<?xml version="1.0" encoding="UTF-8"?><svg id="a" xmlns="http://www.w3.org/2000/svg" width="1920" height="2400" viewBox="0 0 192 240"><defs><style>.b{fill:none;stroke:#fff;stroke-miterlimit:10;stroke-width:.3px;}.c{stroke-width:0px;}</style></defs><rect class="c" width="192" height="240"/><path class="b" d="M12.5,215.95c1.82-.81,3.85-1.04,5.82-1.07,2.18-.18,4.46-.42,6.65-.19,2.91.28,5.7,1.43,8.31,2.69,1.65.78,3.47,1.53,4.98,2.56,7.81,5.28,12,11.17,22.43,10.24,3.02-.15,6.11-.41,9.14-.44,2.19-.07,4.5.16,6.65-.36,3.29-.74,6.59-1.82,9.97-2.07,2.74-.29,5.57.23,8.31.02,4.5-.43,8.49-2.87,12.46-4.82,2.91-1.49,6.29-1.96,9.14-3.6,7.77-4.11,10.52-6.25,19.11-2.03,3.51,1.67,6.76,3.97,9.97,6.14,2.5,1.71,5.23,3.46,8.31,3.79,4.03.49,7.96-1.12,11.63-2.58,1.6-.64,3.45-1.01,4.99-1.8,3.19-1.63,6.06-3.94,9.14-5.75"/><path class="b" d="M12.5,211.79c2.34-1.16,4.97-.82,7.48-.69,3.6.13,7.27.34,10.8,1.08,14.94,2.52,16.39,13.94,29.91,15.45,3.32.36,6.7-.26,9.97-.78,1.61-.28,3.4-.28,4.99-.71,3.26-.92,6.54-2.24,9.97-2.31,3.04-.16,6.11.53,9.14.51,4.86,0,9.17-2.58,13.29-4.85,1.82-1.04,3.99-1.6,5.82-2.62,6.96-4.01,10.98-7.46,19.11-3.37,4,1.81,7.82,4.12,11.63,6.29,2.85,1.59,5.75,3.65,9.14,3.64,4.28.06,8.36-1.68,12.46-2.66,5.09-.48,9.18-3.76,13.29-6.48"/><path class="b" d="M12.5,208.74c2.17-.65,4.47-.38,6.65.03,1.89.3,3.9.58,5.82.71,2.74.21,5.57.1,8.31.35,2.82.37,5.71,1.08,8.31,2.24,3.81,1.73,6.73,4.92,9.97,7.47,2.72,2.11,5.84,3.97,9.14,5,3.58,1.09,7.31.08,10.8-.83,1.33-.31,2.86-.45,4.15-.91,2.43-.82,4.91-1.88,7.48-2.16,5.82-.54,11.7,2.46,17.45.5,2.96-.91,5.64-2.68,8.31-4.2,1.58-.9,3.45-1.55,4.98-2.54,4.85-3.14,9.01-5.88,14.96-3.6,5.15,2.06,10.44,3.83,15.79,5.29,1.96.55,3.89,1.53,5.82,2.17,1.3.35,2.82.44,4.15.36,4.71-.39,9.38-1.65,14.12-1.56,3.99-.33,7.46-2.71,10.8-4.71"/><path class="b" d="M12.5,206.39c4.48-.36,8.83,1.33,13.29,1.32,3.59.07,7.27-.6,10.8.28,3.89.37,7.72,1.3,10.8,3.84,4.91,3.62,11.07,10.09,17.45,10.11,2.84,0,5.55-1.18,8.31-1.68,2.82-.44,5.47-1.87,8.31-2.25,3.68-.59,7.25.96,10.8,1.63,5.91,1.31,9.99,0,14.96-3.22,2.97-1.85,6.23-3.18,9.14-5.18,8.18-5.29,11.91.21,19.94.53,3.58.2,7.24-.72,10.8-.11,1.63.32,3.3,1.08,4.99,1.19,2.74.27,5.57,0,8.31.13,9.1.42,10.18,2.38,19.11-2.41"/><path class="b" d="M12.5,203.43c4.17-.19,8.32.69,12.46.98,2.74.2,5.58.09,8.31.42,2.47.46,4.99,1.13,7.48,1.57,5.81,1.23,10.1,5.71,14.95,8.81,4.62,3.25,8.66,4.05,14.12,2.63,2.44-.58,5.05-.61,7.48-1.23,2.7-.61,5.6-.86,8.31-.19,9.33,2.35,13.8,3.69,22.43-1.77,2.45-1.39,5.14-2.51,7.48-4.1,3.8-2.47,7.16-3.32,11.63-2.26,2.97.76,6.12,1.34,9.14.48,4.14-.9,8.1-3.63,12.46-2.88,1.87.44,3.91.6,5.82.78,5.15.26,9.94,2.45,14.95,3.39,3.41.48,6.86-.57,9.97-1.88"/><path class="b" d="M12.5,199.59c3.29-.45,6.67-.3,9.97.03,3.05.3,6.17.7,9.14,1.45,1.98.47,3.93,1.38,5.82,2.11,2.2.8,4.52,1.57,6.65,2.55,4.32,1.99,8.26,4.82,12.46,7.01,2.81,1.37,6.03,1.86,9.14,1.69,2.74-.12,5.57-.5,8.31-.08,3.02.28,6.12.13,9.14.38,4.12.52,8.31.82,12.46,1.05,6.53.69,11.94-2.33,17.45-5.38,2.6-1.57,5.27-3.41,8.31-3.98,8.37-.74,9.51,2.02,18.28-2.95,4.05-2.26,6.76-3.94,11.63-3.44,2.49.02,5.09.21,7.48.98,2.55.84,4.99,2.2,7.48,3.21,4.15,1.92,8.94,2.31,13.29.88"/><path class="b" d="M12.5,195.73c2.14-.63,4.43-.85,6.65-.95,2.75-.19,5.6-.2,8.31.36,4.25.79,7.94,3.19,11.63,5.29,5.6,3.15,11.45,5.99,17.45,8.29,3.23.86,6.67.47,9.97.67,3.46.08,6.77,1.31,9.97,2.51,2.65.93,5.5,1.47,8.31,1.55,3.06.19,6.1-.82,9.14-.93,4.16-.04,8.49.25,12.46-1.25,5.54-1.77,9.83-6.69,15.79-7.22,3.03-.13,6.18.14,9.14-.66,5.41-1.35,9.84-5.07,14.95-7.11,1.55-.61,3.35-.81,4.99-1.03,2.17-.31,4.51-.38,6.65.17,2.66.68,5.06,2.26,7.48,3.5,4.29,2.28,9.24,3.99,14.12,2.9"/><path class="b" d="M12.5,192.55c2.1-.89,4.43-1.15,6.65-1.58,2.7-.61,5.52-1.3,8.31-1,3.72.35,7,2.43,9.97,4.54,2.89,2.03,5.88,4.13,9.14,5.52,1.84.8,3.89,1.31,5.82,1.84,1.34.36,2.76,1.05,4.15,1.2,2.74.29,5.57-.24,8.31.11,2.97.32,5.78,1.65,8.31,3.19,6.91,4.58,9.99,6.88,18.28,3.41,2.38-.81,4.99-.86,7.48-.89,5.5.08,9.64-1.04,14.12-4.29,2.5-1.59,5.31-2.99,8.31-3.23,2.18-.12,4.48.15,6.65-.2,4.65-.96,9-3.18,13.29-5.15,4.44-2.15,9.19-4.03,14.12-4.58,2.96-.25,5.8,1.06,8.31,2.5,4.82,2.64,10.08,5.73,15.79,4.88"/><path class="b" d="M12.5,190.41c1.86-.7,3.9-1.02,5.82-1.49,2.51-.79,4.92-2.1,7.48-2.75,3.77-1.12,7.7.16,10.8,2.38,2.89,1.91,5.84,3.97,9.14,5.12,2.66.99,5.61,1.04,8.31,1.84,2.9,1.12,6.13.41,9.14.88,6.01.93,10.46,5.61,14.96,9.32,4.61,3.74,8.09,3.65,13.29,1.22,8.51-2.84,12.74.57,21.6-5.68,2.25-1.33,4.84-2.35,7.48-2.47,2.47-.09,5.02.54,7.48.09,1.69-.27,3.38-1.09,4.99-1.66,2.48-.93,5.04-1.92,7.48-2.94,4.9-1.97,9.79-4.5,14.95-5.63,3.26-.61,6.4.9,9.14,2.51,4.6,2.56,9.47,5.74,14.96,5.24"/><path class="b" d="M12.5,189.55c1.91-.3,3.98-.54,5.82-1.17,3.42-1.35,6.42-3.78,9.97-4.83,5.27-1.76,9.29,1.89,14.12,3.27,2.93.99,6.09,1.18,9.14,1.58,1.39.17,2.82.75,4.15,1.13,1.03.25,2.27.4,3.32.5,8.63.29,14.11,5.5,19.94,11.18,4.95,4.4,7.91,4.83,14.12,2.88,3.84-.93,7.83-1.41,11.63-2.5,2.9-.75,5.63-2.19,8.31-3.48,2.32-1,4.95-1.45,7.48-1.27,2.46.19,5,.88,7.48.4,1.71-.3,3.4-1.17,4.99-1.85,2.49-1.11,5.03-2.35,7.48-3.54,2.98-1.46,6.04-2.94,9.14-4.13,2.11-.85,4.35-1.76,6.65-1.9,3.71-.28,6.95,1.99,9.97,3.84,4.03,2.45,8.41,5.03,13.29,4.85"/><path class="b" d="M12.5,188.22c6.68.62,11.45-5.05,17.45-6.89,2.42-.84,5.02-.58,7.48-.07,2.17.33,4.46.54,6.65.68,2.76.2,5.63.28,8.31,1.05,1.37.39,2.79,1.12,4.15,1.52,1.87.56,3.9.91,5.82,1.29,4.48.8,8.88,2.51,12.46,5.36,6.72,5.64,10.89,12.3,20.77,9.25,5.9-1.53,11.49-4.27,17.45-5.59,3.03-.44,6.15.11,9.14.57,3.42.75,7-.02,9.97-1.82,3.35-1.85,6.58-4.04,9.97-5.81,2.37-1.26,4.93-2.35,7.48-3.2,2.12-.75,4.38-1.51,6.65-1.57,3.71-.15,6.98,2.05,9.97,3.98,3.97,2.65,8.41,5.06,13.29,5.15"/><path class="b" d="M12.5,185.19c3.22.45,6.3-1.03,9.14-2.37,3.23-1.56,6.49-3.3,9.97-4.26,2.41-.7,5.02-.73,7.48-1.2,4.1-.73,8.49-1.17,12.46.36,3.58,1.43,6.99,3.48,10.8,4.32,3.28.84,6.79,1.06,9.97,2.28,6.76,2.57,11.25,9.3,18.28,11.26,2.79.67,5.69-.24,8.31-1.19,3.75-1.4,7.59-2.97,11.63-3.18,2.23-.18,4.5.48,6.65,1.02,5.18,1.46,9.37,1.42,14.12-1.36,3.89-2.31,7.45-5.3,11.63-7.1,2.63-1.19,5.54-1.85,8.31-2.62,3.8-1.18,8.06-1.41,11.63.58,6.01,3.25,9.19,6.56,16.62,7.11"/><path class="b" d="M12.5,180.48c1.98.15,3.98-.43,5.82-1.08,2.18-.71,4.45-1.44,6.65-2.11,3.57-1.09,7.23-2.07,10.8-3.13,2.73-.89,5.43-2.22,8.31-2.6,6.6-.97,11.74,4.26,17.45,6.62,3.13,1.39,6.63,1.42,9.97,1.79,3.13.54,6.26,1.55,9.14,2.88,4.83,2.14,9.28,6.73,14.96,5.76,2.79-.43,5.53-1.44,8.31-1.9,2.73-.47,5.66-.4,8.31.46,1.92.67,3.86,1.65,5.82,2.23,4.64,1.6,9.22-.48,13.29-2.64,3.99-2.38,7.82-5.39,12.46-6.38,2.16-.51,4.48-.67,6.65-1.16,2.72-.63,5.49-1.54,8.31-1.55,8.31.31,9.64,6.28,20.77,7.29"/><path class="b" d="M12.5,175.36c3.13-.11,6.08-1.47,9.14-2.02,4.15-.89,8.44-1.53,12.46-2.92,2.84-.93,5.46-2.62,8.31-3.54,2.39-.8,5.11-.85,7.48.06,2.59,1.05,5.18,2.38,7.48,3.97,3.22,2.3,6.76,4.54,10.8,4.91,2.75.2,5.56.58,8.31.73,3.09.08,6.26.54,9.14,1.73,2.17.81,4.39,1.82,6.65,2.36,4.93.87,10.03-.95,14.96.33,4.18.71,7.58,3.6,11.63,4.63,3.15.77,6.33-.51,9.14-1.84,4.9-1.94,9.52-5.18,14.96-5.29,2.75-.12,5.63.25,8.31-.52,4.04-1.1,8.19-3.27,12.46-2.1,2.71.62,4.94,2.56,7.48,3.59,2.61,1.11,5.51,1.62,8.31,1.94"/><path class="b" d="M12.5,170.24c2.5-.16,5-.86,7.48-1.2,4.5-.58,9.09-1.28,13.29-3.06,2.86-1.09,5.49-2.85,8.31-4.02,2.9-1.26,6.28-1.23,9.14.13,1.92.91,4.01,1.79,5.82,2.91,4.4,3.05,8.59,6.21,14.12,6.73,1.89.26,3.9.6,5.82.51,3.3-.16,6.69-.43,9.97.12,2.48.29,4.99.93,7.48,1.15,3.6.15,7.33-.09,10.8,1.02,2.6.79,5.11,2.07,7.48,3.38,2.75,1.61,5.83,3.35,9.14,2.92,2.89-.4,5.53-1.95,8.31-2.76,3.23-.87,6.61-1.62,9.97-1.36,2.48.14,5,.75,7.48.86,4.88.29,8.76-3.41,13.29-4.57,3.78-1.09,6.73.63,9.97,2.32,2.86,1.34,6.01,2.17,9.14,2.6"/><path class="b" d="M12.5,165.75c1.91.02,3.91-.1,5.82-.18,1.9-.02,3.92.04,5.82-.16,3.87-.35,7.46-2.1,10.8-3.98,3.65-1.91,7.26-4.96,11.63-4.54,2.36.2,4.55,1.42,6.65,2.42,4.32,1.65,8.08,4.59,12.46,6.09,1.85.65,3.89,1.08,5.82,1.46,1.88.39,3.88.79,5.82.8,5.54.03,11.07-1.11,16.62-.75,4.41-.31,8.58-.05,12.46,2.28,6.91,3.91,10.6,8.78,19.11,5.07,6.49-2.73,12.68.46,19.11,1.5,4.81.89,8.56-1.95,12.46-4.27,3.75-2.3,7.6-2.97,11.63-.84,3.46,1.63,7,3.37,10.8,4.05"/><path class="b" d="M12.5,162.7c1.89.37,3.9.64,5.82.89,2.44.43,5.01.9,7.48.45,3.05-.53,5.74-2.29,8.31-3.92,2.78-1.55,5.36-3.66,8.31-4.9,3.36-1.48,6.9-.33,9.97,1.28,3.45,1.47,7.13,2.58,10.8,3.33,3.29.64,6.73.77,9.97,1.66,3.74,1.19,7.73,1.84,11.63,1.2,1.93-.23,3.91-.84,5.82-1.2,2.47-.24,5.01-.64,7.48-.84,6.01-.41,10.33,4.43,14.95,7.46,9.59,6.21,11.9-2.18,22.43,2.87,3.89,1.65,8.27,3.07,12.46,1.73,7.29-2.41,11.34-8.71,19.94-5.44,3.95,1.41,7.46,4.09,11.63,4.93"/><path class="b" d="M12.5,161.26c2.66,1.13,5.55,1.75,8.31,2.58,3.84,1.21,7.6.14,10.8-2.11,1.86-1.3,3.93-2.52,5.82-3.77,2.52-1.76,5.16-3.84,8.31-4.2,4.08-.47,7.59,2.52,11.63,2.52,5.55.39,11.15-2.68,16.62-.76,5.83,2.25,9.79,2.93,15.79.67,1.86-.6,3.93-.73,5.82-1.23,3.93-1.08,7.64-.19,10.8,2.35,4.71,3.66,9.31,8.92,15.79,8.74,2.74-.18,5.63-.49,8.31.28,4.6,1.6,9.04,4.74,14.12,3.2,6.16-1.73,11.47-7.33,18.28-5.96,2.51.61,5.14,1.29,7.48,2.39,2.96,1.51,5.83,3.5,9.14,4.18"/><path class="b" d="M12.5,160.37c1.82.96,3.84,1.66,5.82,2.19,2.38.82,4.93,1.72,7.48,1.4,2.75-.33,5.2-1.91,7.48-3.39,2.24-1.34,4.59-2.7,6.65-4.32,2.62-1.93,5.79-3.59,9.14-3.16,1.65.18,3.36.74,4.99,1.04,4.75.84,9.04-2.04,13.29-3.67,4.55-1.96,7.2-.46,11.63.42,2.17.39,4.49.26,6.65-.19,2.49-.57,4.9-1.84,7.48-2.03,2.43-.44,5.01-1.09,7.48-.49,3.69.9,6.46,3.82,9.14,6.34,3.19,2.91,6.57,6.07,10.8,7.33,1.85.54,3.91.48,5.82.68,2.26.18,4.57.71,6.65,1.63,2.85,1.22,6.01,2.31,9.14,1.66,6.76-1.6,11.4-7.65,19.11-5.59,1.68.44,3.39,1.25,4.98,1.91,1.33.53,2.89.93,4.15,1.62,2.93,1.52,5.82,3.47,9.14,4.02"/><path class="b" d="M12.5,158.75c1.84.85,3.85,1.5,5.82,1.96,2.93.9,6.13,1.57,9.14.66,2.33-.65,4.5-1.97,6.65-3.04,1.95-.84,3.98-1.78,5.82-2.85,3.04-1.71,6.44-3.06,9.97-3.07,2.77,0,5.69.29,8.31-.85,5.29-1.95,9.87-6.51,15.79-6.37,3.97.2,7.93-.57,11.63-1.99,1.62-.58,3.31-1.37,4.99-1.79,2.71-.45,5.66-.36,8.31.4,5.74,1.93,9.45,7.19,14.12,10.77,6.1,5.41,8.52,6.52,16.62,7.5,3.01.44,6.07,1.31,9.14,1.04,7.89-.64,13.06-7.73,21.6-4.97,2.01.58,3.94,1.69,5.82,2.6,1.32.63,2.89,1.14,4.15,1.9,2.9,1.66,5.8,3.7,9.14,4.35"/><path class="b" d="M12.5,156.56c9.05,2.55,12.12,2.73,20.77-.96,2.4-.82,5.03-1.15,7.48-1.81,3.03-.7,6.12-1.45,9.14-2.17,2.21-.54,4.56-1.02,6.65-1.96,3.72-1.71,7.11-4.17,10.8-5.93,2.33-1.19,4.94-1.84,7.48-2.38,5.26-1.3,9.7-4.83,14.96-6.15,2.23-.5,4.6.17,6.65,1.04,4.06,1.82,7.42,4.93,10.8,7.74,2.06,1.82,4.52,3.31,6.65,5.04,3.9,3.32,7.99,6.97,13.29,7.61,5.35.68,10.74-.92,15.79-2.57,3.79-1.29,7.58-3,11.63-3.2,3.78-.23,7.52,1,10.8,2.8,1.62.86,3.46,1.63,4.99,2.66,2.88,1.9,5.75,4.14,9.14,5.05"/><path class="b" d="M12.5,154.12c1.92.09,3.91.52,5.82.73,2.78.27,5.64-.17,8.31-.97,3.24-.93,6.52-2.44,9.97-2.16,5.32.51,9.21.73,14.12-1.79,4.94-2.23,9.32-5.56,14.12-8.02,3.41-1.84,7.33-2.62,10.8-4.3,5.77-2.96,12.42-9.15,19.11-5.07,3.86,2.3,7.09,5.6,10.8,8.12,2.55,1.92,5.68,3.02,8.31,4.8,4.13,2.9,7.99,6.98,13.29,7.44,4.8.31,8.84-3.07,13.29-4.33,2.94-.97,6.08-1.49,9.14-1.89,3.28-.44,6.68-.72,9.97-.27,3.59.44,6.98,2.13,9.97,4.1,3.18,2.23,6.22,4.96,9.97,6.18"/><path class="b" d="M12.5,151.79c1.91-.29,3.91.04,5.82.15,1.35.01,2.84-.19,4.15-.49,4.39-.94,8.69-3.42,13.29-2.76,1.65.29,3.35.89,4.99,1.25,3.15.85,6.46.06,9.14-1.71,4.47-2.79,8.62-6.21,13.29-8.68,3.67-2.03,7.97-2.7,11.63-4.73,5.86-3.41,11.23-7.88,18.28-4.41,3.33,1.86,6,4.81,9.14,6.94,2.94,2.21,6.55,3.17,9.97,4.32,4.83,2.05,8.67,6.57,14.12,7,4.13.36,7.32-2.87,10.8-4.54,5.09-2.84,11.08-1.55,16.62-2.18,6.73-.63,11.12-.61,16.62,3.93,2.81,2.15,5.71,4.47,9.14,5.52"/><path class="b" d="M12.5,149.84c1.9-.41,3.9-.16,5.82-.1,1.65-.04,3.4-.39,4.98-.83,4.04-1.08,8.19-3.11,12.46-2.3,1.64.34,3.34.93,4.99,1.24,2.9.65,5.9-.19,8.31-1.86,4.68-3.18,9.16-6.79,14.12-9.52,2.87-1.58,6.1-2.52,9.14-3.72,6.73-3.21,11.35-7.07,19.11-3.79,2.79,1.03,5.09,3.12,7.48,4.82,2.47,1.83,5.3,3.35,8.31,4.04,2.54.55,5.19,1.09,7.48,2.39,3.21,1.65,6.31,3.98,9.97,4.48,3.02.51,5.91-.93,8.31-2.63,2.29-1.52,4.76-3.05,7.48-3.64,3.26-.72,6.67-.03,9.97-.24,7.18-.34,12.97-1.88,19.11,3.12,3.01,2.18,6.23,4.45,9.97,5.11"/><path class="b" d="M12.5,147.28c2.71-.73,5.56.06,8.31-.33,3.37-.37,6.65-1.5,9.97-2.11,4.18-1.05,8.28,1.14,12.46.7,3.46-.36,6.32-2.65,9.14-4.48,5.25-3.1,10.16-6.9,15.79-9.3,6.2-2.45,12.21-6.35,19.11-4.14,2.24.65,4.54,1.49,6.65,2.48,3.24,1.68,6.42,3.71,9.97,4.7,2.72.82,5.67,1.06,8.31,2.15,3.58,1.44,6.91,3.82,10.8,4.36,5.7.89,9.83-4.06,14.95-5.51,2.94-.94,6.11-.61,9.14-.66,3.31-.16,6.64-.9,9.97-.91,10.31-.6,13.08,7.06,22.43,7.05"/><path class="b" d="M12.5,143.63c2.17-.61,4.45-.18,6.65-.02,2.48.14,5.04-.11,7.48-.55,2.45-.42,4.98-1.04,7.48-1.08,3.02.1,6.11.86,9.14.39,3.31-.43,6.21-2.33,9.14-3.78,5.54-2.36,10.41-6.03,15.79-8.69,6.17-3.06,11.32-5.05,18.28-3.2,4.78,1.2,9.44,2.92,14.12,4.43,3,.94,6.16,1.54,9.14,2.54,4.21,1.45,7.91,4.58,12.46,4.96,5.59.46,9.69-4.35,14.96-5.34,3.52-.86,7.26-.24,10.8-.98,5.16-1.56,10.66-2.33,15.79-.2,5.42,2.28,9.47,5.43,15.79,4.58"/><path class="b" d="M12.5,139.08c1.92-.34,3.93,0,5.82.4,1.88.34,3.9.54,5.82.47,3.06-.08,6.1-.9,9.14-1.22,2.74-.19,5.56.37,8.31.17,4.37-.09,8.36-2.15,12.46-3.4,5.65-1.77,10.46-5.49,15.79-7.97,6.37-3.43,13.75-3.67,20.77-2.62,6.59.9,13.11,2.7,19.11,5.59,4.36,1.93,8.25,5.79,13.29,5.57,4.56-.29,8.03-3.93,12.46-4.74,3.25-.77,6.69-.54,9.97-1.13,2.29-.4,4.42-1.63,6.65-2.25,3.25-.98,6.82-.64,9.97.55,5.56,2.31,11.22,5.34,17.45,4.75"/><path class="b" d="M12.5,134.2c3.96.1,7.63,2.24,11.63,2.18,4.46.11,8.82-1.69,13.29-.99,4.2.31,8.43-.17,12.46-1.37,2.77-.69,5.68-1.21,8.31-2.34,5.1-2.12,9.78-5.27,14.96-7.24,3.21-1.22,6.65-1.97,9.97-2.83,3.51-.84,7.18-1.6,10.8-1.16,6.8.49,12.55,4.49,18.28,7.8,3.53,2.24,7.16,5.49,11.63,4.99,3.86-.43,7-3.22,10.8-3.88,3.27-.72,6.72-.68,9.97-1.48,2.02-.47,3.96-1.53,5.82-2.43,3.09-1.48,6.74-1.65,9.97-.53,2.24.7,4.42,1.85,6.65,2.59,4.09,1.09,8.2,2.54,12.46,2.75"/><path class="b" d="M12.5,129.94c4.17,1.06,8.02,3.62,12.46,3.52,3.33.1,6.64-1.05,9.97-.86,3.56.5,7.26.68,10.8-.03,2.48-.58,5-1.37,7.48-1.96,6.76-1.52,12.68-5.42,19.11-7.85,3.32-1.25,6.74-2.42,9.97-3.89,3.42-1.44,6.99-3.3,10.8-3.13,7.61.2,13.57,5.64,19.94,9.13,3.06,2.06,6.14,4.74,9.97,5.02,3.23.25,6.17-1.43,9.14-2.4,2.67-.8,5.55-1,8.31-1.3,2.24-.25,4.58-.68,6.65-1.59,2.64-1.23,5.33-2.77,8.31-2.91,3.45-.27,6.75,1.17,9.97,2.2,1.85.6,3.94.71,5.82,1.22,2.72.66,5.51,1.45,8.31,1.76"/><path class="b" d="M12.5,125.6c5.35,2.58,8.57,5.33,14.96,5.04,2.18-.04,4.47-.34,6.65-.09,1.35.19,2.81.66,4.15.88,4.61.94,8.24-.08,12.46-1.81,2.17-.84,4.51-1.5,6.65-2.42,3.3-1.41,6.59-3.04,9.97-4.24,4.2-1.49,8.73-2.38,12.46-4.94,3.96-2.3,7.7-6.34,12.46-6.65,5.57-.01,10.46,3.1,14.96,6.04,1.84,1.25,3.95,2.31,5.82,3.52,2.38,1.6,4.75,3.48,7.48,4.46,4.71,1.83,9.41-1,14.12-1.28,3.85-.32,7.86.19,11.63-.83,2.81-.82,5.45-2.36,8.31-3.07,3.54-1.02,7.27-.35,10.8.34,1.88.35,3.93.43,5.82.74,2.74.42,5.55.93,8.31,1.2"/><path class="b" d="M12.5,121.38c7.44,5.18,8.92,6.47,18.28,6.94,3.51.09,6.58,2.08,9.97,2.68,3.88.85,7.48-1.11,10.8-2.86,1.58-.85,3.39-1.54,4.99-2.36,1.9-.99,3.87-2.13,5.82-3.04,2.09-.98,4.38-1.74,6.65-2.15,2.19-.43,4.57-.53,6.65-1.42,5.66-2.08,11.19-10.54,16.62-10.47,7.42.4,13.7,4.82,19.94,8.41,3.12,1.97,6.22,4.44,9.97,5.02,4.16.58,8.3-.93,12.46-.74,4.69.04,9.55,1.24,14.12-.29,3.88-1.27,7.5-3.57,11.63-3.99,3.02-.33,6.12.04,9.14.22,3.3.14,6.67-.03,9.97,0"/><path class="b" d="M12.5,117.6c1.96,1.49,3.78,3.38,5.82,4.76,1.74,1.17,3.78,2.06,5.82,2.59,2.99.79,6.19.98,9.14,1.94,2.01.65,3.87,1.92,5.82,2.72,5.72,2.62,9.5-.89,14.12-3.75,5.18-2.63,9.67-7.29,15.79-7.54,2.18-.17,4.53.14,6.65-.55,5.73-1.77,9.26-7.55,14.96-9.32,1.9-.3,3.92.3,5.82.49,4.01.58,8,1.72,11.63,3.53,4.95,2.27,9.25,6.59,14.96,6.77,3.58.04,7.22-.42,10.8-.19,3.87.08,7.76.81,11.63.68,4.62-.05,8.41-2.78,12.46-4.61,2.33-1,4.95-1.47,7.48-1.55,1.62-.05,3.37.28,4.98.1,3.07-.31,6.08-1.36,9.14-1.74"/><path class="b" d="M12.5,114.43c3.9,3.86,6.78,7.2,12.46,8.32,2.75.63,5.66.94,8.31,1.94,2.03.75,3.87,2.14,5.82,3.06,5.02,2.59,8.54-.05,12.46-3.07,2.43-1.78,5.17-3.3,7.48-5.26,3.71-3.01,7.6-4.81,12.46-4.01,6.82,1.28,11.57-3.41,17.45-5.7,2.4-.91,5,.05,7.48-.06,3.6.03,7.33-.07,10.8,1.03,5.18,1.64,9.31,6.1,14.96,6.37,2.18.12,4.46-.07,6.65-.02,3.57.31,7.22.24,10.8.18,5.32.04,10.41-.35,14.95-3.42,5.27-3.27,8.84-3.89,14.96-3.65,3.46-.47,6.57-2.44,9.97-3.17"/><path class="b" d="M12.5,111.68c3.53,4.06,6.82,7.92,12.46,8.76,2.45.46,5.05.53,7.48,1.12,2.05.44,3.93,1.62,5.82,2.48,5.01,2.41,8.49.35,12.46-2.76,1.78-1.45,3.92-2.58,5.82-3.86,2.39-1.7,4.75-3.69,7.48-4.84,3.43-1.6,7.22-.62,10.8-.29,3.65.29,7.31-.47,10.8-1.47,1.6-.44,3.33-.92,4.99-1.04,1.62-.05,3.36.25,4.98.04,3.84-.37,7.76-1.48,11.63-.74,2.73.46,5.12,2.09,7.48,3.42,2.3,1.31,4.84,2.47,7.48,2.86,1.89.25,3.92.32,5.82.46,1.62.13,3.36.45,4.99.33,3.07-.19,6.14-.94,9.14-1.59,3.05-.75,6.24-1.45,9.14-2.69,2.76-1.3,5.4-3.08,8.31-4.05,1.85-.56,3.89-.92,5.82-1.12,1.62-.17,3.4.03,4.98-.41,3.09-.82,5.98-2.52,9.14-3.12"/><path class="b" d="M12.5,108.58c6.18,7.65,9.95,10.26,19.94,10.27,1.67.07,3.37.61,4.98.97,4.58,1.08,8.67-.77,12.46-3.16,2.07-1.29,4.42-2.22,6.65-3.18,2.44-1.16,4.9-2.52,7.48-3.36,6.23-2.16,12.79-.18,19.11.4,2.18.18,4.47.09,6.65-.05,1.91-.11,3.96-.07,5.82-.61,6.02-1.76,11.38-4.75,17.45-1.17,3.75,1.97,7.49,4.17,11.63,5.21,2.95.76,6.06,1.96,9.14,1.3,2.86-.59,5.61-1.87,8.31-2.96,2.97-1.28,6.08-2.36,9.14-3.39,2.49-.96,4.97-2.19,7.48-3.1,3.51-1.15,7.17-2.04,10.8-2.72,3.31-.86,6.54-2.35,9.97-2.71"/><path class="b" d="M12.5,105.04c3.45,4.06,7.39,8.28,12.46,10.23,2.67.94,5.58.58,8.31.15,2.2-.25,4.54-.27,6.65-1.04,3.93-1.21,7.6-3.33,11.63-4.2,3.55-.69,7.25-.83,10.8-1.55,3.58-.61,7.16-1.71,10.8-1.93,4.31-.16,8.28,2.02,12.46,2.71,5.33,1.07,10.13-.92,14.95-2.92,3.13-1.21,6.61-2.14,9.97-1.45,6.27,1.5,11.53,5.61,17.45,8,3.13,1.52,6.12.9,9.14-.57,2.76-1.29,5.5-2.83,8.31-4.01,2.09-.97,4.43-1.52,6.65-2.12,2.52-.7,5.06-1.68,7.48-2.67,2.55-.91,5-2.28,7.48-3.35,3.97-1.48,8.2-2.62,12.46-2.67"/><path class="b" d="M12.5,100.99c1.75,1.99,3.76,3.92,5.82,5.58,2.01,1.77,4.12,3.71,6.65,4.71,2.71,1.11,5.71.39,8.31-.68,1.33-.54,2.88-.94,4.15-1.61,3.21-1.74,6.31-4.04,9.97-4.73,5.91-.97,11.54,2.75,17.45,1.97,3.92-.45,7.59-2.97,11.63-2.14,4.94.91,9.82,3.76,14.96,2.36,3.55-1.09,7.12-2.41,10.8-3.01,5.53-.87,11.48-.68,16.62,1.74,2.26,1.06,4.52,2.38,6.65,3.68,1.78,1.05,3.72,2.3,5.82,2.54,3.6.15,6.81-2.04,9.97-3.47,2.12-1.02,4.39-1.99,6.65-2.66,1.59-.44,3.37-.67,4.98-1.01,2.94-.6,5.74-1.96,8.31-3.47,1.98-1.19,3.85-2.77,5.82-3.98,3.7-2.24,8.25-2.43,12.46-2.11"/><path class="b" d="M12.5,96.9c2.76,2.85,6.04,5.24,9.14,7.7,4.98,3.71,8.55,1.77,13.29-.95,3.25-1.48,5.78-4.35,9.14-5.63,2.74-1.15,5.76-.48,8.31.83,2.81,1.09,5.51,2.64,8.31,3.75,2.7,1.03,5.71.64,8.31-.49,8.31-4.49,13.44,1.77,21.6.04,6.44-2.44,10.07-1.64,16.62-.57,3.84.67,7.86-.26,11.63.89,2.63.74,5.13,2.11,7.48,3.5,2.6,1.59,5.25,2.74,8.31,1.63,3.68-1.22,7.11-3.24,10.8-4.43,2.65-1.03,5.57-1.27,8.31-1.93,3.07-.81,5.84-2.66,8.31-4.6,6.46-5.87,8.48-7.08,17.45-5.81"/><path class="b" d="M12.5,93.06c2.65,2.55,5.92,4.46,9.14,6.19,4.18,2.17,8.03.33,11.63-2,1.59-.96,3.45-1.73,4.98-2.78,2.67-1.77,5.83-3.49,9.14-2.82,2.4.45,4.49,1.97,6.65,3.02,4.84,2.3,8.5,5.38,14.12,3.09,2.14-.8,4.3-1.99,6.65-1.96,4.21-.14,8.27,1.55,12.46,1.67,1.64.05,3.42-.16,4.98-.66,1.57-.51,3.37-.56,4.99-.25,4.38.84,8.09,3.77,12.46,4.63,2.17.34,4.46-.07,6.65-.03,3.75-.06,7.41,1.16,10.8,2.66,3.44,1.6,5.73,1.52,9.14-.18,3.27-1.6,6.51-3.46,9.97-4.65,2.11-.81,4.46-1.18,6.65-1.75,2.38-.64,4.66-1.91,6.65-3.35,8.1-6.13,8.44-9.49,19.94-7.68"/><path class="b" d="M12.5,89.44c1.71,1.27,3.73,2.16,5.82,2.55,2.13.56,4.45.92,6.65.6,4.45-.65,8.2-3.49,12.46-4.75,3.88-1.65,7.88-1.74,11.63.3,2.41,1.37,4.9,2.76,7.48,3.79,1.82.86,3.8,1.74,5.82,1.99,7.8.49,7.54-4.52,19.94-2.74,2.45.32,5,.74,7.48.68,2.19-.09,4.48-.76,6.65-.05,3.45.99,6.3,3.42,9.14,5.51,1.96,1.46,4.16,2.95,6.65,3.24,4.38.73,8.9.79,13.29,1.42,2.17.2,4.48.96,6.65.45,4.75-1.6,8.58-5.22,13.29-6.95,2.38-1.04,5.01-1.65,7.48-2.45,2.05-.7,4.06-1.83,5.82-3.09,8.01-5.88,9.37-10.21,20.77-8.79"/><path class="b" d="M12.5,85.86c2.95,1.23,6.15.24,9.14-.31,3.6-.75,7.21-1.76,10.8-2.57,2.97-.67,6.1-1.3,9.14-.77,3.88.63,7.31,2.79,10.8,4.47,1.28.61,2.83.97,4.15,1.45,1.85.66,3.84,1.33,5.82,1.5,3.18.31,6.26-.95,9.14-2.14,3.16-1.1,6.63-1.63,9.97-1.46,2.51.15,5.02.85,7.48,1.28,1.88.4,3.92.26,5.82.48,2.03.26,4.08,1.06,5.82,2.14,3.01,1.86,5.54,4.52,8.31,6.7,2.47,1.82,5.41,3.16,8.31,4.12,2.4.72,5.02.7,7.48.37,1.33-.17,2.82-.42,4.15-.59,1.73-.06,3.52-.55,4.98-1.49,2.51-1.51,4.91-3.37,7.48-4.78,2.6-1.47,5.5-2.51,8.31-3.49,3.94-1.14,7.63-3.12,10.8-5.72,2.25-1.68,4.33-3.78,6.65-5.37,3.66-2.33,8.15-3.36,12.46-2.86"/><path class="b" d="M12.5,82.24c2.72.02,5.09-1.57,7.48-2.65,2.83-1.35,5.99-2.16,9.14-2.02,1.63.05,3.36.27,4.98.37,1.92.03,3.95.06,5.82.57,4.01,1.02,7.73,3.02,11.63,4.34,1.58.57,3.37.77,4.99,1.2,8.52,2.62,10.35,1.37,18.28-1.32,3.79-1.3,7.99-1.21,11.63.52,1.87.75,3.83,1.65,5.82,2.05,2.17.38,4.5.31,6.65.84,3.56.82,6.51,3.27,9.14,5.69,1.82,1.72,3.91,3.37,5.82,4.98,2.74,2.43,6.26,4.23,9.97,3.03,1.66-.45,3.36-1.22,4.98-1.79,1.05-.32,2.35-.61,3.32-1.15,2.28-1.23,4.41-2.92,6.65-4.21,3.83-2.35,8.33-3.29,12.46-4.98,3.31-1.18,6.38-3.09,9.14-5.25,2.24-1.66,4.34-3.7,6.65-5.27,3.7-2.29,8.04-4.01,12.46-3.56"/><path class="b" d="M12.5,78.56c4.39-1.46,7.65-5.67,12.46-6.03,3.17-.32,6.15,1.15,9.14,1.94,6.27.66,12.06,3.48,18.28,4.42,4.54.23,8.74,2.55,13.29,2.58,5.75.14,10.77-4.91,16.62-3.18,4.18,1.14,7.28,4.98,11.63,5.59,2.18.19,4.47-.26,6.65,0,3.23.32,6.01,2.37,8.31,4.53,1.98,1.82,3.93,3.91,5.82,5.83,2.44,2.52,5.64,4.31,9.14,2.79,1.69-.64,3.35-1.67,4.98-2.43,1.04-.44,2.34-.81,3.32-1.37,2.19-1.2,4.36-2.69,6.65-3.7,3.4-1.65,7.32-1.8,10.8-3.2,3.89-1.29,7.59-3.23,10.8-5.78,2.24-1.64,4.36-3.65,6.65-5.23,3.7-2.33,7.98-4.38,12.46-3.92"/><path class="b" d="M12.5,74.97c4.71-2.09,8.49-6.59,14.12-5.89,2.56.24,5.01,1.35,7.48,2,3.32.54,6.7,1.13,9.97,1.97,2.17.51,4.44.98,6.65,1.27,1.9.29,3.95.29,5.82.76,3.77,1.03,7.65,2.71,11.63,1.94,4.24-.73,7.95-4.26,12.46-3.27,4.89.99,7.83,5.83,12.46,7.39,2.14.59,4.46.22,6.65.31,3.08.05,5.99,1.53,8.31,3.49,4.2,3.08,8.2,10.02,14.12,8.46,2.33-.65,4.44-2.08,6.65-3.03,3.45-.98,6.57-2.97,9.97-4.07,3.21-1.11,6.74-1,9.97-1.98,3.78-1.19,7.6-2.57,10.8-4.96,6-4.35,11.93-10.61,19.94-10.15"/><path class="b" d="M12.5,71.36c2-.69,3.91-1.85,5.82-2.74,4.97-2.45,10.47-1.97,15.79-1.27,4.85.1,9.47,1.78,14.12,2.95,2.97.81,6.14.57,9.14,1.13,4.66,1.1,9.62,2.23,14.12-.07,2.08-1.02,4.25-2.32,6.65-2.27,5.61.06,8.8,5.52,13.29,8.04,3.59,1.9,7.97,1.43,11.63,3.2,5.59,2.27,9.53,8.19,15.79,8.8,2.9.15,5.62-1.26,8.31-2.13,1.29-.47,2.81-.69,4.15-.96,1.36-.34,2.84-.89,4.15-1.36,2.13-.77,4.42-1.39,6.65-1.79,2.47-.45,5.09-.69,7.48-1.52,4.13-.97,8.21-2.34,11.63-4.92,5.53-4.06,10.99-9.66,18.28-9.88"/><path class="b" d="M12.5,67.48c2.21-.51,4.42-1.41,6.65-1.84,2.74-.51,5.58-.83,8.31-1.39,3.81-.69,7.75-2.15,11.63-1.21,4.31.94,8.1,3.61,12.46,4.37,1.33.25,2.82.17,4.15.16,1.34.03,2.82.2,4.15.36,3.87.52,8.02.69,11.63-1.02,1.83-.86,3.72-2.04,5.82-2.03,5.58-.06,8.93,5.18,13.29,7.81,1.51.9,3.36,1.39,4.98,2.03,1.97.74,3.99,1.67,5.82,2.72,3.64,2.01,6.86,4.94,10.8,6.36,4.62,1.67,9.45.02,14.12-.43,1.9-.2,3.93.04,5.82-.25,1.94-.32,3.93-.97,5.82-1.54,4.65-1.38,9.39-2.68,14.12-3.75,3.61-.61,7.06-2.17,9.97-4.38,5.33-4.03,10.42-9.61,17.45-10.22"/><path class="b" d="M12.5,63.21c1.9-.28,3.9-.68,5.82-.79,3.07-.04,6.27-.16,9.14-1.39,3.97-1.59,7.96-5.02,12.46-3.29,4.63,1.43,8.32,5.46,13.29,5.87,2.47-.1,5.02-.18,7.48.11,4.17.45,8.61.65,12.46-1.3,6.09-3.09,11.13,2.19,15.79,5.4,2.26,1.57,5.17,1.95,7.48,3.43,3.53,2.05,6.58,4.94,9.97,7.19,3.28,2.3,6.14,2.48,9.97,1.65,3.83-.77,7.83-1.04,11.63.03,6.08,1.71,11.84-1.94,17.45-3.8,1.87-.63,3.87-1.3,5.81-1.65,2.9-.48,5.83-1.35,8.31-2.97,6.55-4.16,11.6-11.85,19.94-12.42"/><path class="b" d="M12.5,58.44c1.89-.31,3.9-.61,5.82-.54,2.47.17,5.08.39,7.48-.39,4.14-1.1,7.23-5.1,11.63-5.27,5.38.19,9.14,4.9,14.12,6.3,1.31.4,2.81.28,4.15.19,1.34-.03,2.83.13,4.15.34,3.82.6,7.75,1.93,11.63,1.08,1.62-.38,3.28-1.16,4.99-1.07,5.18.12,8.93,4.21,13.29,6.41,1.26.67,2.83.96,4.15,1.47,1.43.59,2.9,1.5,4.15,2.4,3.75,2.55,7.07,6.29,11.63,7.33,3.39.47,6.6-1.47,9.97-1.57,1.63-.1,3.41.06,4.98.51,2.18.63,4.35,1.74,6.65,1.86,5.34.1,10.05-3.01,14.96-4.71,2.39-.91,5.02-1.35,7.48-2.02,2.4-.69,4.69-2,6.65-3.52,5.82-4.55,10.93-12.06,19.11-11.73"/><path class="b" d="M12.5,54.14c1.59-.46,3.33-.82,4.99-.9,2.18-.05,4.48.21,6.65-.17,4.29-.57,7.57-3.86,11.63-5.02,5.57-1.05,9.99,3.53,14.96,5.17,2.66.97,5.63.26,8.31,1.21,3.62.99,7.04,2.92,10.8,3.38,1.64.23,3.36-.23,4.99-.37,4.36-.07,8.14,2.62,11.63,4.92,1.53.98,3.25,1.94,4.99,2.48,2.29.51,4.58,1.4,6.65,2.53,4.16,2.08,8.38,5.46,13.29,4.8,4.76-1.11,8.32-2.67,13.29-.94,2.41.87,4.86,2.05,7.48,2.03,4.62.13,9.04-1.67,13.29-3.25,2.98-1.16,6.18-1.88,9.14-3.08,3.11-1.33,5.86-3.53,8.31-5.82,4.56-4.32,9.71-10.04,16.62-9.14"/><path class="b" d="M12.5,50.39c3.67-1.62,7.81-1.14,11.63-2.12,4.09-.89,7.5-3.85,11.63-4.55,6.42-.48,11.33,4.94,17.45,5.96,5.4.22,10,3.32,14.96,5.1,2.1.83,4.44.82,6.65,1,3.69.72,6.86,3.04,9.97,5.03,1.78,1.19,3.76,2.35,5.82,3,1.89.52,3.95.81,5.82,1.43,3.81,1.12,7.61,2.79,11.63,2.88,6.39-.14,9.07-4.46,16.62-1.75,1.88.69,3.81,1.69,5.82,1.96,4.11.8,8.48,1,12.46-.52,2.54-.89,5.04-2.14,7.48-3.28,3.17-1.35,6.35-2.89,9.14-4.93,6.26-4.08,11.7-12.48,19.94-11.69"/><path class="b" d="M12.5,46.99c3.67-1.63,7.87-1.55,11.63-2.91,3.87-1.12,7.51-3.64,11.63-3.65,6.55.46,11.89,5.12,18.28,6.3,4.69.85,8.91,3.32,13.29,5.06,2.63,1.23,5.66,1.43,8.31,2.57,4.94,2.41,8.81,6.86,14.12,8.53,1.86.55,3.93.62,5.82,1.02,2.47.47,4.99,1.1,7.48,1.44,9.89,1.81,12.44-6.44,21.6-3.43,1.34.46,2.8,1.1,4.15,1.51,1.62.37,3.39.68,4.98,1.15,5.42,1.64,9.63-.03,14.12-3.09,2.88-2.05,6.08-3.72,9.14-5.47,3.47-1.96,6.88-4.16,9.97-6.69,3.58-2.87,7.54-6.44,12.46-5.95"/><path class="b" d="M12.5,43.69c3.73-1.44,7.86-1.62,11.63-2.95,6.74-2.11,9.67-3.5,16.62-.87,3.03,1.06,6.07,2.31,9.14,3.25,2.74.88,5.62,1.55,8.31,2.57,3.33,1.23,6.65,2.69,9.97,3.93,2.17.87,4.58,1.44,6.65,2.56,4.88,2.91,8.57,7.91,14.12,9.65,1.85.58,3.92.47,5.82.75,3.59.49,7.15,1.72,10.8,1.74,9.03-.1,10.75-9.67,21.6-5.29,1.29.49,2.81.73,4.15.99,1.89.5,3.85,1.27,5.82,1.45,6.55.52,10.71-5.7,15.79-8.79,4.21-2.86,9.13-4.59,13.29-7.5,3.98-2.86,7.95-7.18,13.29-6.53"/><path class="b" d="M12.5,40.18c3.21-1.05,6.67-1.14,9.97-1.73,3.83-.55,7.75-1.42,11.63-.98,3.91.7,7.74,2.05,11.63,2.87,2.74.62,5.6,1.05,8.31,1.81,3.1.89,6.16,2.13,9.14,3.34,2.47,1.01,5.01,2.08,7.48,3.09,2.42.9,4.75,2.25,6.65,4.01,3.56,3.02,6.93,6.93,11.63,8.09,1.59.4,3.36.22,4.99.31,4.73.32,9.34,3.01,14.12,1.87,3.95-1.08,6.47-4.79,9.97-6.72,3.24-2.02,6.55-1.42,9.97-.31,1.31.38,2.84.46,4.15.82,2.13.58,4.44,1.17,6.65.7,4.8-1.17,7.99-5.45,11.63-8.48,3.66-3.2,8.09-5.38,12.46-7.41,5.52-2.46,9.9-9.12,16.62-7.46"/><path class="b" d="M12.5,36.53c6.01-1.16,12.24-.36,18.28.21,3.65.41,7.16,1.79,10.8,2.3,4.39.81,9.01.44,13.29,1.81,3.63,1.14,7.26,2.51,10.8,3.9,2.78,1.14,5.71,2.22,8.31,3.76,4.86,3.2,8.35,8.71,14.12,10.41,1.87.54,3.91.21,5.82.2,8.22.53,12.89,5.9,19.94-1.71,4.34-4.2,7.68-7.23,14.12-5.81,5.23.49,9.3,2.24,14.12-.96,3.57-2.33,6.55-5.56,9.97-8.08,3.58-2.8,7.65-4.95,11.63-7.09,4.92-2.67,9.67-8.07,15.79-6.01"/><path class="b" d="M12.5,33.54c6.75-.57,13.44,1.27,19.94,2.87,3.26.98,6.54,2.14,9.97,2.33,3.85.41,7.89-.04,11.63,1.14,5.42,2.03,11.22,2.99,16.62,5.06,7,2.56,10.66,10.93,18.28,12.16,2.19.28,4.45-.39,6.65-.24,2.51.09,5.04.75,7.48,1.3,2.44.56,5.21.84,7.48-.43,4.79-2.98,7.89-8.43,13.29-10.47,3.45-1.29,7.22-.63,10.8-.62,4.63.07,8.75-2.42,12.46-4.94,3.88-2.59,7.71-5.39,11.63-7.91,2.99-1.84,6.11-3.65,9.14-5.43,3.47-2.07,7.48-4.22,11.63-3.12"/><path class="b" d="M12.5,31.8c6.45.21,12.86,1.61,19.11,3.15,2.23.54,4.41,1.59,6.65,2.12,2.43.56,5,.76,7.48.94,2.2.16,4.51.28,6.65.84,1.94.54,3.86,1.5,5.82,1.97,3.52.98,7.26,1.19,10.8,2.05,6.16,1.31,9.76,7.12,14.96,10.18,2.19,1.4,4.91,1.98,7.48,1.58,3.01-.46,6.08-1.15,9.14-1.08,3.87,0,8.21,1.15,11.63-1.26,4.92-3.22,8.46-8.57,14.12-10.64,3.17-1.16,6.7-.57,9.97-1.34,5.18-1.07,10.24-3.03,14.96-5.4,6.13-3.47,11.64-8.16,18.28-10.7,3.1-1.4,6.49-2.85,9.97-2.34"/><path class="b" d="M12.5,30.86c2.76.24,5.55.88,8.31,1.15,3.3.39,6.69.54,9.97,1.12,2.59.36,4.99,1.59,7.48,2.29,3.25.84,6.67,1.12,9.97,1.7,4.11.45,7.61,2.77,11.63,3.48,4.11.85,8.55.39,12.46,2.09,9.8,5.66,12.04,12.75,24.93,7.01,3.14-1.39,6.55-2.18,9.97-2.46,5.95-.31,10.38-4.73,14.95-8.03,2-1.4,4.25-2.73,6.65-3.29,1.62-.27,3.4-.41,4.98-.88,4.13-1.14,8.23-2.58,12.46-3.33,3.57-.49,6.96-1.93,9.97-3.88,3.22-1.99,6.46-4.17,9.97-5.62,1.29-.49,2.84-.76,4.15-1.2,2.93-.93,6.03-1.96,9.14-1.58"/><path class="b" d="M12.5,29.71c2.77.38,5.51,1.32,8.31,1.5,3.57.34,7.25.06,10.8.63,2.31.29,4.43,1.5,6.65,2.13,2.97.83,6.12,1.2,9.14,1.81,1.93.38,3.97.81,5.82,1.48,2.13.87,4.37,1.77,6.65,2.19,3.27.69,6.69.65,9.97,1.25,3.09.5,5.73,2.4,8.31,4.05,5.1,3.35,8.96,4.63,14.96,2.7,3.54-1.4,6.47-4.11,9.97-5.62,3.43-1.58,7.34-1.85,10.8-3.34,4.31-1.67,8.16-4.42,12.46-6.1,1.55-.67,3.34-.99,4.99-1.32,1.38-.38,2.86-1.03,4.15-1.64,2.93-1.4,5.95-2.85,9.14-3.57,1.88-.45,3.94-.56,5.82-.99,2.31-.57,4.56-1.68,6.65-2.8,3.67-1.89,7.41-4.29,11.63-4.52,3.56-.41,7.28-1.09,10.8-.06"/><path class="b" d="M12.5,27.97c2.77.36,5.51,1.31,8.31,1.49,3.86.36,7.85.22,11.63,1.21,2.26.57,4.38,1.82,6.65,2.39,3.52.94,7.21,1.42,10.8,1.99,4.23.55,8.24,2.29,12.46,2.91,3.85.72,7.9.79,11.63,2.05,3.87,1.45,7.48,3.87,11.63,4.48,2.51.35,5.14-.27,7.48-1.15,2.15-1.03,4-2.78,5.82-4.29,4.88-4.41,8.76-5.7,14.96-7.37,4.2-1.12,8.33-2.66,12.46-4.01,1.86-.71,3.97-1.05,5.82-1.79,3.1-1.34,6-3.28,9.14-4.52,3.4-1.54,7.25-1.49,10.8-2.45,4.57-1.35,8.67-4.07,13.29-5.28,1.58-.42,3.36-.33,4.98-.34,3.13-.03,6.37.56,9.14,2.06"/><path class="b" d="M12.5,25.57c2.2.19,4.45.74,6.65.97,3.32.34,6.74.56,9.97,1.43,4.58,1.15,8.66,3.82,13.29,4.83,2.15.51,4.44.92,6.65,1.08,1.9.12,3.92.07,5.82.32,3.88.52,7.74,1.53,11.63,2.02,3.57.6,7.34.19,10.8,1.33,5.3,1.73,10.36,4.25,15.79,1.33,4.02-2.52,6.84-6.65,10.8-9.27,5.65-3.82,12.75-4,19.11-5.92,3.09-.89,6.17-2.1,9.14-3.3,3.26-1.54,6.47-3.4,9.97-4.36,4.35-1.18,9.01-1.08,13.29-2.59,3.32-1.06,6.57-2.58,9.97-3.38,1.87-.43,3.92-.27,5.82-.18,2.98.16,5.91,1.32,8.31,3.09"/></svg>