<?xml version="1.0" encoding="UTF-8"?><svg id="a" xmlns="http://www.w3.org/2000/svg" width="1920" height="2400" viewBox="0 0 192 240"><defs><style>.b{fill:none;stroke:#fff;stroke-miterlimit:10;stroke-width:.3px;}.c{stroke-width:0px;}</style></defs><rect class="c" x="0" width="192" height="240"/><path class="b" d="M10.66,228.28c3.36.58,6.87.68,10.19,1.46,3.64,1.1,6.4,2.67,10.19.82,4.56-2.34,8.5-6.12,13.59-7.37,9.67-3.82,14,1.09,22.93-.96,5.9-1.7,11.91.5,17.83.94,2.23.17,4.57,1.13,6.79.52,2.43-.95,3.78-3.65,5.1-5.74.58-1.02,1.44-2.61,2.55-3.14l.85.11c2.68,2.17,3,6.58,5.94,8.49l.85.03c2.89-1.77,3.77-5.74,5.94-8.22,1.2-1.66,3.2-1.86,5.09-1.74,4.38.05,8.46,2.01,12.74,2.72,3.44.38,6.79,1.5,10.19,2.1,1.36.22,2.88-.05,4.25-.05,1.67.03,3.45.33,5.1.56,2.51.39,5.16.33,7.64.86,2.5.59,5.03,1.69,7.64,1.54,1.42-.02,2.87-.73,4.25-.96,4.39.01,7.72,3.69,11.04,6.13"/><path class="b" d="M10.66,227.91c2.52-.35,5.07-1.2,7.64-1.15,5.51.4,8.48,5.98,14.44,2.33,2.85-1.83,5.56-4.06,8.49-5.76,1.86-.96,4.02-1.53,5.94-2.35,4.3-1.92,9.02-1.63,13.59-1.18,2.83.23,5.71-.17,8.49-.66,5.76-.72,11.31,1.57,16.98,2.06,2.21.25,4.59,1.26,6.79.52,3.87-1.65,4.58-6.66,7.64-9.11l.85-.03c3,1.79,3.39,7.68,6.79,8.72,2.68-.67,4.13-5.32,5.94-7.35,2.87-3.82,8.15-1.45,11.89-.43,2.17.68,4.52,1.07,6.79,1.06,2.83-.03,5.71.37,8.49.89,1.35.26,2.89.19,4.25.4,2.28.4,4.52,1.4,6.79,1.84,2.91.49,5.68,1.72,8.49,2.53,10.29,2.17,7.49-6.75,20.38,3.43"/><path class="b" d="M10.66,225.35c2.4-.91,5.03-1.98,7.64-1.48,5.62,1.67,8.69,8.37,15.28,4.14,2.65-1.62,5.05-3.76,7.64-5.46,1.87-1.09,4.04-1.85,5.94-2.87,2.88-1.51,6.05-2.7,9.34-2.77,2.23-.09,4.56.07,6.79-.02,1.95-.05,4-.36,5.94-.56,5.02-.51,9.66,1.59,14.44,2.7,1.65.29,3.45.58,5.1.9,1.34.25,2.89.56,4.25.22,4.43-1.45,5.23-6.99,8.49-9.71l.85-.12c3.3,1.8,3.45,6.95,6.79,8.73,3.72.16,4.95-7.74,9.34-8.31,3.77-.68,7.3,1.62,11.04,1.74,2.53.19,5.12-.4,7.64-.37,1.67,0,3.46.31,5.1.65,1.7.28,3.55.6,5.09,1.41,4.65,2.57,9.69,5.89,15.29,5.53,2.38-.21,4.69-1.2,6.79-2.28,4.14-2.14,8.49.48,11.89,2.84"/><path class="b" d="M10.66,221.44c11.57-5.24,12.2,12.08,23.78,4.33,2.33-1.45,4.49-3.35,6.79-4.84,1.58-.96,3.48-1.63,5.09-2.55,3.94-2.21,8.11-4.28,12.74-4.28,3.09-.1,6.26-.26,9.34-.53,2.87-.19,5.83.33,8.49,1.4,3.53,1.55,7.2,2.95,11.04,3.48,2.56.51,5.6,1,7.64-1.02,1.31-1.14,2.5-2.85,3.4-4.33,1.13-1.65,2.03-4.51,4.25-4.89,2.55.95,3.52,4.66,5.09,6.72,3.55,5.62,6.34-2.23,9.34-4.13,2.29-1.38,5.12-1.15,7.64-.72,1.64.25,3.43.42,5.09.32,1.96-.11,3.99-.57,5.94-.69,3.19-.15,6.47.77,9.34,2.09,1.82,1.06,3.45,2.67,5.09,3.97,4.5,3.82,11.08,2.9,16.13.72,5.75-2.83,8.67-3.37,14.44-.02"/><path class="b" d="M10.66,217.62c8.59-2.53,9.86,7.19,16.13,8.02,3.16-.03,5.9-2.17,8.49-3.75,1.94-1.27,3.92-2.72,5.94-3.84,1.9-.95,4.06-1.62,5.94-2.62,4-2.02,8.18-4.03,12.74-4.23,3.64-.22,7.41-.64,11.04-.13,2.71.44,5.24,1.81,7.64,3.07,3.14,1.74,6.64,2.91,10.19,3.43,2.67.54,5.72.33,7.64-1.83,1.28-1.24,2.49-2.99,3.4-4.51,1.11-1.7,2.12-4.32,4.25-4.92,2.52.4,3.68,4.02,5.1,5.87,4.21,6.75,6.57-.99,11.04-2.37,2.67-1.09,5.66-1.1,8.49-1.33,2.81-.19,5.67-.82,8.49-.72,3.32.23,6.75,1.45,9.34,3.55,2.14,1.75,4.02,4.28,6.79,5.04,3.41.43,6.87-.76,10.19-1.42,3.19-.68,6.25-2,9.34-2.99,2.8-.88,5.83-.37,8.49.71"/><path class="b" d="M10.66,214.86c3.33-.98,6.47,1.32,8.49,3.76,6.12,8.27,7.46,4.97,14.44.27,2.44-1.62,4.97-3.33,7.64-4.54,2.21-.86,4.63-1.45,6.79-2.44,3.03-1.23,6.13-2.59,9.34-3.29,4.44-.81,9.22-.93,13.59.32,3.32,1.14,6.23,3.32,9.34,4.91,3.88,1.91,8.37,3.4,12.74,2.88,2.55-.43,4.44-2.56,5.94-4.51,1.84-2.07,3.72-7.74,6.79-7.6,3.47,1.59,4.21,6.47,7.64,8.18,1.83.7,3.63-.69,5.09-1.64,1.01-.66,2.31-1.3,3.4-1.83,4.65-2.47,10.04-3.5,15.28-3.26,11.09.4,11.33,9.64,18.68,6.81,4.08-1.48,8.5-1.3,12.74-1.89,2.01-.32,3.99-1.21,5.94-1.72,2.18-.6,4.59-.55,6.79-.1"/><path class="b" d="M10.66,213.5c3.53-1.11,6.53,1.88,8.49,4.45,5.12,7.4,6.69,4.1,11.89-.69,2.81-2.42,6.01-4.57,9.34-6.2,1.86-.88,4.02-1.2,5.94-1.88,9.28-3.11,14.92-6.12,24.63-1.83,2.34,1.13,4.55,2.7,6.79,4,2.12,1.2,4.47,2.21,6.79,2.94,4.11,1.34,9.23,3.1,12.74-.47,1.61-1.49,3.1-3.46,4.25-5.32,1.45-1.96,3-5.81,5.94-5.3,2.94,1.5,4.2,5.12,6.79,7.08,5.16,3.62,10.44-3.68,15.28-4.98,2.15-.73,4.54-.88,6.79-.95,1.94-.05,4.02-.14,5.94.21,1.83.34,3.6,1.35,5.09,2.42,1.71,1.22,3.72,2.7,5.94,2.26,1.96-.52,3.88-1.61,5.94-1.8,3.71-.56,7.35,1.2,11.04.95,2-.26,3.99-1.08,5.94-1.51,1.62-.36,3.44-.51,5.1-.44"/><path class="b" d="M10.66,213.15c4.65-1.44,7.53,3.53,10.19,6.45,2.16,2.34,4.01,1.64,5.94-.47,1.64-1.79,3.28-3.84,5.1-5.46,2.81-2.4,5.95-4.65,9.34-6.16,1.61-.64,3.45-.99,5.09-1.55,2.79-.9,5.65-1.83,8.49-2.56,1.9-.53,3.95-1.08,5.94-.95,3,.15,5.75,1.7,8.49,2.79,3.37,1.72,6.64,3.81,10.19,5.17,2.19.9,4.55,1.65,6.79,2.4,1.93.64,3.93,1.46,5.94,1.8,5.88,1.04,8.97-5.5,11.89-9.46,6.62-9.61,8.93,4.82,16.13,4.94,1.96.07,3.71-1.25,5.09-2.5,1.51-1.34,3.23-2.75,5.1-3.57,2.94-1.23,6.25-1.33,9.34-1.97,6.74-1.55,8.8,3.79,13.59,2.89,1.11-.3,2.31-1.02,3.4-1.39,1.87-.65,4.02-.77,5.94-.32,2.03.47,4,1.49,5.94,2.23,2.14.9,4.61.49,6.79-.03,1.91-.44,3.98-.78,5.94-.89"/><path class="b" d="M10.66,213.15c4.47-1.41,7.13,3.28,10.19,5.57,3.38,2.03,5.68-2.67,7.64-4.71,1.92-2.35,4.28-4.48,6.79-6.18,1.85-1.29,3.87-2.59,5.94-3.5,2.46-.94,5.13-1.53,7.64-2.33,1.93-.56,3.99-1.09,5.94-1.54,2.19-.57,4.6-1,6.79-.2,7.51,3.44,15.03,7.07,22.93,9.57,3.63,1.06,7.15,3.24,11.04,3.06,6.4-.67,9.06-12.21,14.44-12.43,2.56.38,4.2,2.89,5.94,4.56,9.12,9.52,8.93-.73,17.83-3.3,1.65-.55,3.45-1.08,5.09-1.64,2.41-.9,5.14-1.46,7.64-.54,1.66.54,3.33,1.55,5.1,1.69,1.49.1,2.96-.74,4.25-1.38,1.57-.65,3.39-1.1,5.1-1.2,3.92-.24,6.81,2.93,10.19,4.32,3.28,1.17,6.84.06,10.19-.18"/><path class="b" d="M10.66,213.24c4.72-1.09,6.4,3.2,10.19,3.89,2.27-.1,3.75-2.35,5.1-3.91,1.29-1.62,2.74-3.42,4.25-4.85,3.22-2.98,7.05-5.43,11.04-7.25,3.28-1.23,6.79-2,10.19-2.83,2.48-.48,5.11-1.29,7.64-.88,1.43.34,2.88,1.15,4.25,1.68,1.64.67,3.44,1.3,5.1,1.93,3.97,1.58,7.89,3.42,11.89,4.93,3.07,1.17,6.3,2.12,9.34,3.36,2.4.87,5.06,1.93,7.64,1.38,6.95-1.71,9.94-15.94,16.98-10.24,1.76,1.48,3.4,3.37,5.1,4.92,1.13,1.09,2.54,2.53,4.25,2.42,2.83-.6,4.5-3.58,6.79-5.14,3.05-2.28,6.71-3.76,10.19-5.27,2.12-.86,4.6-1.11,6.79-.37,1.61.51,3.36,1.31,5.1,1.08,4.16-1.11,8.24-4.5,12.74-2.87,1.87.67,3.52,2.08,5.09,3.25,3.3,2.65,6.98,2.86,11.04,2.38"/><path class="b" d="M10.66,213.32c1.71-.25,3.51.2,5.1.82,1.61.69,3.56,1.18,5.09.06,2.97-2.27,4.87-5.8,7.64-8.3,3.9-3.61,8.64-6.39,13.59-8.31,3.85-1.22,7.89-2.05,11.89-2.6,2.91-.56,5.75.46,8.49,1.33,4.11,1.16,8.06,2.92,11.89,4.78,3.57,1.71,7.24,3.39,11.04,4.54,2.52.84,5.07,1.88,7.64,2.58,1.33.37,2.87.65,4.25.4,2.24-.6,4.37-1.99,5.94-3.68,2.33-2.48,4.23-5.96,7.64-7.07,4.18-.96,7.5,4.14,10.19,6.65,1.79,1.9,3.89,2.36,5.94.5,2.89-2.62,5.89-5.29,9.34-7.16,2.6-1.49,5.44-3.01,8.49-3.2,2.88-.16,5.61,1.88,8.49,1.11,3.85-1.56,7.46-4.49,11.89-3.78,6.43,1.22,7.5,7.2,16.13,6.76"/><path class="b" d="M10.66,212.86c1.94-.19,4.03.13,5.94-.29,1.7-.42,3.12-1.79,4.25-3.06,1.63-1.87,3.26-4.01,5.1-5.69,6-5.23,13.32-9.33,21.23-10.66,3.06-.52,6.23-1.03,9.34-.69,8.07.64,15.03,5.08,22.08,8.64,2.68,1.39,5.61,2.42,8.49,3.29,2.49.78,5.07,1.6,7.64,2.04,2.42.4,4.8-.84,6.79-2.08,3.55-2.38,5.79-6.91,10.19-7.93,3.03-.58,5.64,1.72,7.64,3.7,1.5,1.5,2.94,3.59,5.1,4.15,2.38.36,4.22-1.85,5.94-3.16,4.41-3.6,9.41-7.44,15.28-7.84,2.27.02,4.51,1.23,6.79.91,1.54-.33,2.88-1.56,4.25-2.29,2.53-1.51,5.53-2.43,8.49-2.25,6.44.28,9.43,6.73,16.13,6.83"/><path class="b" d="M10.66,211.03c6.19-.7,8.33-6.05,12.74-9.52,2.1-1.67,4.55-3.03,6.79-4.49,2.65-1.8,5.49-3.47,8.49-4.6,3.77-1.53,7.84-2.27,11.89-2.5,2.8-.1,5.72-.21,8.49.31,3.96.66,7.64,2.46,11.04,4.52,2.51,1.39,5.13,2.79,7.64,4.17,5.17,3.03,11.06,4.66,16.98,5.38,3.53-.01,6.71-2.28,9.34-4.43,4.17-3.62,9.4-7.18,14.44-2.81,1.99,1.55,3.56,3.93,5.94,4.93,3.2,1.05,6.01-2.31,8.49-3.87,3.74-2.8,8.07-5.18,12.74-5.89,1.95-.12,3.99.48,5.94.28,1.58-.3,2.91-1.58,4.25-2.38,2.49-1.62,5.52-2.47,8.49-2.39,7.17-.19,10.45,5.72,16.98,6.6"/><path class="b" d="M10.66,207.37c3.43-1.41,5.73-4.57,8.49-6.9,2.5-2.08,5.67-3.21,8.49-4.75,3.66-2.1,6.98-4.98,11.04-6.34,6.17-2.19,14.84-3.08,21.23-1.44,4.05,1.03,7.4,3.74,11.04,5.66,4.74,2.43,9.37,5.33,14.44,7.04,2.72.85,5.67,1.03,8.49,1.27,3.83-.07,7.03-2.73,10.19-4.59,2.85-1.75,6.11-2.94,9.34-3.75,2.57-.56,4.96,1.1,6.79,2.73,1.71,1.51,3.54,3.46,5.94,3.67,1.48.03,2.99-.74,4.25-1.46,1.97-1.16,3.96-2.55,5.94-3.69,2.92-1.59,6.11-2.99,9.34-3.8,4.41-.53,5.4.13,9.34-2.85,4.46-3,10.43-2.91,15.28-.94,3.67,1.68,6.95,4.52,11.04,5.16"/><path class="b" d="M10.66,202.66c2.64-1.68,4.8-4.22,7.64-5.58,1.32-.62,2.88-1.01,4.25-1.48,1.43-.54,2.93-1.33,4.25-2.11,3.5-2,6.55-4.87,10.19-6.62,6.58-3.03,14.24-3.48,21.23-1.7,3.43.91,6.37,3.1,9.34,4.95,2.14,1.3,4.54,2.35,6.79,3.43,3.9,1.78,7.78,3.84,11.89,5.1,2.18.59,4.55.62,6.79.61,3.43,0,6.34-2.28,9.34-3.65,2.65-1.35,5.76-1.46,8.49-2.54,1.58-.68,3.31-1.7,5.09-1.48,4.4.94,6.99,6.56,11.89,5.94,3.71-.74,6.82-3.24,10.19-4.83,2.18-1.09,4.51-2.11,6.79-2.96,1.94-.64,4.08-1.05,5.94-1.9,1.72-.76,3.37-1.98,5.09-2.74,3.16-1.43,6.83-1.44,10.19-.78,5.54.87,9.69,5.63,15.28,6.27"/><path class="b" d="M10.66,198.02c1.6-1.07,3.28-2.32,5.1-3.01,1.04-.4,2.34-.52,3.4-.83,2.95-.97,5.81-2.45,8.49-4,4.1-2.29,7.54-5.81,11.89-7.66,5.65-2.19,12.17-1.86,17.83.11,3.72,1.31,6.79,3.99,10.19,5.9,3.19,1.74,6.79,2.71,10.19,3.96,5.88,2.09,9.51,4.79,16.13,3.77,3.26-.59,6.07-2.79,9.34-3.35,5.3-.64,5.25.38,10.19-2.77,5.21-2.79,8.37,4.32,13.59,4.72,2.7.33,5.32-1.01,7.64-2.22,2.23-1.2,4.55-2.46,6.79-3.63,3.62-1.79,7.5-3.18,11.04-5.15,4.86-2.79,11.1-2.6,16.13-.37,4.12,1.88,7.96,5.3,12.74,4.99"/><path class="b" d="M10.66,194.13c2.06-1.26,4.53-1.45,6.79-2.12,4.01-1.47,8.15-2.88,11.89-4.97,3.84-2.06,7.03-5.32,11.04-7.05,1.86-.76,3.99-.77,5.94-1.1,3.73-.75,7.67-.25,11.04,1.54,3.82,1.88,7.12,4.8,11.04,6.5,3.24,1.38,6.84,1.74,10.19,2.75,2.35.65,4.59,1.86,6.79,2.86,2.93,1.14,6.29,1.3,9.34.57,4.95-1.61,6.4-2.76,11.89-1.89,2.96.49,5.13-2,7.64-3.04,2.23-.96,4.78-.27,6.79.91,9.37,6.11,13.16.57,21.23-3.84,4.01-1.51,7.85-3.6,11.89-5.03,4.17-1.16,8.81-.69,12.74,1.08,5.12,2.58,8.13,5.73,14.44,4.6"/><path class="b" d="M10.66,191.04c1.35-.35,2.9-.45,4.25-.8,1.97-.49,3.99-1.24,5.94-1.8,3.52-.85,7.04-1.97,10.19-3.8,3.22-1.67,6.02-4.2,9.34-5.67,1.3-.58,2.86-.64,4.25-.86,5.88-1.69,7.95-2.97,13.59.65,4.39,2.53,8.45,6.17,13.59,7.01,2.23.41,4.6.59,6.79,1.2,2.7.63,5.1,2.24,7.64,3.24,2.98.98,6.35.9,9.34,0,2.71-.92,5.66-1.66,8.49-.84,1.62.37,3.46.87,5.09.32,1.72-.67,3.34-1.87,5.09-2.47,2.13-.77,4.53-1.21,6.79-.87,1.97.32,3.97,1.08,5.94,1.35,4.83.83,8.92-2.41,12.74-4.86,2.28-1.56,5.12-2.04,7.64-3.06,4.06-1.73,8.27-3.07,12.74-2.35,10.21,1.36,9.27,8.21,21.23,5.46"/><path class="b" d="M10.66,188.86c3.18-.36,6.25-1.45,9.34-2.21,4.41-.67,8.79-1.86,12.74-4,2.58-1.27,4.99-3.08,7.64-4.22,1.88-.8,4.11-.68,5.94-1.63,6.87-3.91,7.31-3.07,13.59,1.02,3.86,2.06,7.37,5.37,11.89,5.8,2.54.23,5.2.33,7.64,1.12,2.09.58,4.04,1.78,5.94,2.76,4.44,2.09,8.33.69,12.74-.43,2.93-.73,5.69.86,8.49,1.41,2.07.43,4.01-.79,5.94-1.29,2.25-.58,4.63-1.13,6.79-2.01,2.68-1.08,5.65-1.14,8.49-1.28,4.78-.18,8.67-3.25,12.74-5.39,2.38-1.2,5.15-1.55,7.64-2.45,6.06-2,13.26-1.86,18.68,1.77,6.3,4.86,7.17,3.79,14.44,2.35"/><path class="b" d="M10.66,186.76c3.17-.44,6.21-1.7,9.34-2.29,4.03-.4,8.13-.97,11.89-2.57,2.92-1.1,5.64-2.82,8.49-4.05,2.23-.87,4.83-1,6.79-2.51,2.03-1.37,4.09-3.8,6.79-3.25,1.57.46,2.93,1.74,4.25,2.66,1.29.91,2.87,1.68,4.25,2.45,2.28,1.26,4.32,3.18,6.79,4.08,1.6.55,3.43.5,5.1.49,1.67.05,3.48.28,5.09.72,3.55.84,6.41,3.81,10.19,3.82,5.15.07,8.26-3.32,13.59-.55,1.55.73,3.35,1.35,5.09,1.18,1.07-.14,2.31-.5,3.4-.54,6.05-.03,6.84-1.29,11.89-3.83,2.71-1.26,5.75-1.86,8.49-3.04,3.18-1.33,6.11-3.36,9.34-4.59,6.66-2.38,18.65-4.18,24.63.21,3.11,2.36,5.82,5.76,10.19,4.22,1.65-.48,3.36-1.36,5.09-1.5"/><path class="b" d="M10.66,184.41c3.15-.57,6.16-2.02,9.34-2.44,1.65-.21,3.44-.08,5.09-.2,2.57-.15,5.21-.67,7.64-1.51,2.61-.86,5.11-2.23,7.64-3.3,1.92-.82,4.19-1.07,5.94-2.28,4.26-2.97,5.86-7.73,11.04-2.63,1.98,1.75,4.68,2.5,6.79,4.03,7.86,6.83,7.41,3.09,16.13,4.86,3.45.83,6.44,3.67,10.19,3.08,3.12-.32,6.14-2.32,9.34-1.45,2.05.52,3.88,1.95,5.94,2.42,1.64.37,3.44-.03,5.1.08,2.51.26,5.24.87,7.64-.19,2.99-1.4,5.54-3.73,8.49-5.19,1.91-1,4-1.91,5.94-2.84,2.7-1.35,5.53-2.66,8.49-3.33,1.66-.42,3.4-1.1,5.09-1.4,2.21-.41,4.56-.6,6.79-.84,2.79-.25,5.71-.82,8.49-.27,5.25.82,7.33,7.94,12.74,7.34,2.38-.36,4.41-2.12,6.79-2.48"/><path class="b" d="M10.66,181.74c3.11-.74,6.13-2.2,9.34-2.48,3.66-.16,7.4.74,11.04-.08,2.96-.55,5.77-1.87,8.49-3.11,1.61-.76,3.46-1.26,5.1-1.94,1.6-.72,3.07-2.04,4.25-3.32,1.47-1.56,3.56-4.14,5.94-2.91,2.21,1.52,4.15,3.66,6.79,4.47,4.05,1.31,5.96,6.18,10.19,7.02,2.51.17,5.13-.3,7.64-.06,2.07.12,4.08.98,5.94,1.82,1.57.64,3.42.89,5.09.59,2.81-.47,5.57-2.23,8.49-1.42,2.09.53,3.89,2.06,5.94,2.69,1.62.46,3.45.08,5.1.32,2.21.45,4.52,1.19,6.79,1,3.65-.42,6.35-3.33,9.34-5.18,4.33-2.7,9.2-5.2,14.44-5.08,2.02.04,4-.79,5.94-1.22,3.12-.67,6.32-1.37,9.34-2.39,5.3-1.9,7.97-1.47,11.89,2.8,1.78,1.84,4.01,4.08,6.79,3.74,2.46-.33,4.43-2.26,6.79-2.88"/><path class="b" d="M10.66,178.88c4.12-1.2,8.37-3.03,12.74-2.18,2.49.47,5.1,1,7.64.71,4.53-.53,8.5-3.12,12.74-4.64,1.56-.66,3.08-1.8,4.25-3.01,1.79-1.72,3.89-5.23,6.79-4.05,1.5.84,2.79,2.3,4.25,3.19,1.27.78,2.91,1.14,4.25,1.77,2.84,1.44,4.39,4.57,6.79,6.54,1.41,1.17,3.36,1.22,5.1,1.01,1.94-.17,4-.42,5.94-.17,1.72.19,3.43.98,5.1,1.39,5.55,1.37,9-3.69,14.44-.3,1.79,1.05,3.77,2.31,5.94,2.14,1.38-.14,2.94-.13,4.25.4,3,.93,6.42,1.55,9.34.05,4.45-2.48,8.38-6.26,13.59-7.11,2.55-.61,5.15.33,7.64.76,1.39.24,2.91-.19,4.25-.53,4.23-.96,8.07-3.15,11.89-5.12,2.77-1.56,5.9-2.02,8.49.2,2.9,2.4,5.94,6.46,10.19,5.02,1.75-.55,3.37-1.78,5.09-2.39"/><path class="b" d="M10.66,176.06c3.59-1.02,7.26-2.35,11.04-2.29,5.16.36,7.98,2.87,13.59.83,3.15-1.24,6.35-2.64,9.34-4.23,1.56-.92,3.03-2.33,4.25-3.66,1.67-1.8,4.25-4.52,6.79-2.64,1.61,1.11,3.17,2.65,5.09,3.23,1.4.39,3.03.64,4.25,1.5,3.38,2.29,4.65,8.05,9.34,8.11,2.81-.05,5.7-.71,8.49-.14,2.48.62,5.12,1.19,7.64.45,2.47-.61,5.08-1.97,7.64-1,2.58.89,4.77,3.18,7.64,3.14,1.07-.02,2.33-.23,3.4-.16,1.66.32,3.39.99,5.09,1.15,7.97,1.21,11.58-6.87,19.53-6.45,3.57.03,6.55,3.22,10.19,2.51,6.71-1.16,11.85-6.08,17.83-8.92,4.12-1.5,6.78,3.24,10.19,4.64,3.2,1.7,6.29.56,9.34-.86"/><path class="b" d="M10.66,173.39c4.69-1.05,9.57-3.3,14.44-2.17,2.22.66,4.44,1.79,6.79,1.85,3.94.02,7.58-2.1,11.04-3.78,2.2-1.22,4.2-2.99,5.94-4.79,2.18-2.12,4.71-4.21,7.64-2.02,1.54,1.03,3.21,2.24,5.1,2.5,1.4.18,3.02.24,4.25,1.03,2.21,1.57,3.41,4.37,5.1,6.42,2.38,3.19,4.93,2.84,8.49,2.62,2.54-.21,5.11.53,7.64.54,3.72.09,7.38-2.69,11.04-1.07,3.3,1.54,5.39,3.57,9.34,2.72,2.26-.42,4.54.49,6.79.52,8.05.62,11.29-6.48,18.68-5.26,3.38.51,5.87,3.65,9.34,3.74,4.78-.48,13.28-4.88,16.98-7.94,2.64-2.38,5.04-4.45,8.49-1.89,3.96,2.58,8.73,5.6,13.59,3.7"/><path class="b" d="M10.66,170.83c2.26-.53,4.6-1.14,6.79-1.89,2.67-.99,5.68-1.9,8.49-.98,1.99.68,3.86,2.01,5.94,2.44,3.55.71,7.09-1.05,10.19-2.6,1.8-1.08,3.55-2.54,5.09-3.94,1.94-1.71,4.07-3.91,6.79-4.11,2.16.08,3.98,1.65,5.94,2.36,1.6.64,3.43.41,5.1.43,4.61.4,5.87,8.17,10.19,10.14,2.12.87,4.56.63,6.79.78,1.65.09,3.44.32,5.1.19,1.98-.16,4.01-.72,5.94-1.14,3.83-1.2,6.77,1.75,10.19,2.79,1.94.53,4.01-.06,5.94-.29,3.74-.02,7.45-.1,11.04-1.35,5.22-2.39,9.76-5.59,15.28-1.73,2.02,1.39,4.16,3.31,6.79,2.9,2.02-.21,4.03-1.07,5.94-1.72,2.97-.98,5.97-2.21,8.49-4.09,1.56-1.02,3.01-2.53,4.25-3.91,1.27-1.38,3.04-3.12,5.1-2.56,2.09.75,4.03,2.15,5.94,3.26,2.79,1.71,5.92,3.66,9.34,3.18"/><path class="b" d="M10.66,168.28c1.99-.42,4.07-.98,5.94-1.79,3.1-1.54,6.72-3.48,10.19-1.91,2.04.9,3.79,2.6,5.94,3.26,3.17.94,6.57-.38,9.34-1.92,4.15-2.64,8.05-8.77,13.59-7.54,2.24.61,4.4,2.02,6.79,1.94,3.65-.34,5.11-1.53,7.64,1.98,4.34,6.36,5.13,9.16,13.59,9.33,2.25.15,4.59-.19,6.79-.61,1.92-.32,4.01-.78,5.94-.28,4.77,1.57,6.35,3.93,11.89,2.27,1.63-.44,3.44-.66,5.09-.96,1.95-.4,4-.93,5.94-1.34,2.57-.78,5.01-2.2,7.64-2.78,4.78-1.23,7.56,1.17,11.04,3.98,1.94,1.43,4.63,1.34,6.79.48,2.75-1.16,5.75-1.9,8.49-3.09,2.27-1.14,4.29-2.97,5.94-4.87,1.76-1.76,3.18-4.82,5.94-4.98,2.24.41,4.07,2.21,5.94,3.4,3.04,2.15,6.31,4.66,10.19,4.76"/><path class="b" d="M10.66,165.62c2.01-.39,4.11-1,5.94-1.93,3.01-1.77,6.63-4.08,10.19-2.42,2.18.96,3.83,2.97,5.94,4.05,2.99,1.58,6.6.51,9.34-1.12,4.18-3.2,8.5-8.8,14.44-7.08,2.18.61,4.48,1.61,6.79,1.16,1.93-.29,4.03-1.8,5.94-.73,2.21,1.5,3.51,4.21,5.1,6.29,3.18,4.92,8.09,5.9,13.59,5.16,3.06-.35,6.36-.9,9.34.18,6.8,3.09,7.41,2.98,14.44.44,2.76-.9,5.66-1.58,8.49-2.22,1.94-.6,3.95-1.37,5.94-1.77,6.46-1.37,8.08.97,12.74,4.55,2.08,1.22,4.69,1.06,6.79-.02,3.08-1.57,6.59-2.51,9.34-4.67,1.95-1.43,3.59-3.46,5.09-5.33,1.13-1.26,2.42-3.06,4.25-3.22,2.38.32,4.06,2.57,5.94,3.87,3.17,2.56,6.85,4.98,11.04,5.21"/><path class="b" d="M10.66,163.01c2-.31,4.11-.8,5.94-1.68,2.8-1.57,6.01-3.7,9.34-2.49,2.63.9,4.45,3.29,6.79,4.66,2.92,1.73,6.63.81,9.34-.9,4.15-3.53,8.36-8.43,14.44-6.89,2.47.55,5.15,1.37,7.64.48,2.16-.71,4.59-2.7,6.79-1.05,6.22,6.03,6.26,11.86,16.98,10.99,3.4-.17,6.98,0,10.19,1.22,8.67,4.18,10.72-.36,18.68-2.23,5.28-.76,10.84-2.87,16.13-1.17,2.29.81,4.03,2.77,5.94,4.18,2.52,1.66,5.07,1.66,7.64.05,3.24-1.89,6.52-3.91,9.34-6.4,2.92-2.21,5.97-9.03,10.19-5.7,4.43,3.87,9.05,7.99,15.28,8.1"/><path class="b" d="M10.66,160.54c1.97-.14,4.07-.3,5.94-.94,2.65-1.14,5.53-2.79,8.49-1.82,2.9.84,4.95,3.37,7.64,4.6,2.73,1.15,5.97.48,8.49-.9,1.59-.95,2.88-2.6,4.25-3.83,2.89-2.79,7.02-4.59,11.04-3.48,2.45.65,5.18,1.65,7.64.5,1.99-.81,3.69-2.75,5.94-2.81,5.61.7,7,10.73,15.29,11.16,4.27.31,8.59.78,12.74,1.87,8.37,2.84,10.38-.71,17.83-2.59,5.28-.85,10.89-1.41,16.13-.12,2.64.75,4.69,2.79,6.79,4.44,2.47,1.78,4.94,2.38,7.64.59,3.63-2.41,6.97-5.4,10.19-8.32,3.04-3.01,5.86-6.87,10.19-3.16,4.1,3.39,8.97,6.25,14.44,6.34"/><path class="b" d="M10.66,157.95c1.95.08,4,.4,5.94.26,1.38-.16,2.86-.67,4.25-.79,6.09-.64,8.95,5.31,15.28,4.11,7.26-.74,7.96-7.25,14.44-9.18,2.93-.87,5.78.74,8.49,1.62,4.85,1.65,6.73-1.81,10.19-4.15,5.72-2.26,9.11,8.47,14.44,9.85,2.74.86,5.68,1.19,8.49,1.74,3.89.61,7.98,1.04,11.89.44,2.61-.48,5.11-1.66,7.64-2.4,2.44-.74,5.11-.87,7.64-.65,2.51.25,5.14.05,7.64.38,4.88.57,8.28,2.86,11.89,6,5.67,4.91,9.05.56,13.59-3.22,1.71-1.45,3.46-3.12,5.09-4.64,1.86-1.67,4.1-3.7,6.79-3.35,2.42.45,4.56,2,6.79,2.95,3.18,1.49,6.68,2.54,10.19,2.79"/><path class="b" d="M10.66,154.96c2,.34,3.99,1.16,5.94,1.69,1.93.43,4.04.42,5.94.99,2.86.74,5.5,2.54,8.49,2.73,3.21.14,6.67-.48,9.34-2.34,4.06-3.22,6.43-9.2,12.74-7.1,2.56.8,4.94,2.45,7.64,2.8,8.97.27,6.94-13.95,17.83-1.1,2.49,3.11,4.59,4.73,8.49,5.71,6.92,2.25,13.23.47,19.53-2.66,5.15-2.55,8.22-2.28,13.59-.66,2.75.87,5.74,1.09,8.49,1.92,2.74,1,5.34,2.64,7.64,4.42,1.92,1.46,3.79,3.3,5.94,4.41,7.4,2.42,13.79-9.32,20.38-11.43,2.76-.98,5.77-.15,8.49.55,3.35.86,6.75,1.92,10.19,2.34"/><path class="b" d="M10.66,151.63c2.42.67,4.6,2.15,6.79,3.31,3.03,1.39,6.08,3.04,9.34,3.81,2.81.52,5.77-.07,8.49-.8,7.63-1.79,8.35-11.22,16.98-8.04,3.29,1.14,6.56,3.53,10.19,2.88,4.78-.87,6.06-7.97,10.19-7.5,3.72,1.36,5.77,5.32,8.49,7.97,2.44,2.4,5.95,3.81,9.34,4.09,4.02.17,7.73-1.98,11.04-4.01,3.65-2.25,7.31-5.67,11.89-5.29,2.65.32,5.34,1.03,7.64,2.41,1.64.92,3.38,1.99,5.09,2.76,1.05.47,2.37.86,3.4,1.38,3.57,2.05,6.96,4.58,10.19,7.12,5.68,5.33,12.08.44,16.98-3.38,2.8-2.11,5.89-4.11,9.34-4.93,2.47-.55,5.13-.75,7.64-.42,2.54.42,5.07,1.37,7.64,1.65"/><path class="b" d="M10.66,148.28c5.43,2.05,9.4,7.35,15.28,8.32,2.26.21,4.58-.4,6.79-.77,3.48-.44,6.1-1.64,8.49-4.22,2.29-2.34,5.2-3.79,8.49-2.83,5.71,1.51,12.27,5.59,16.98-.19,5.26-7.14,6.64-6.86,11.89.15,3.04,4.56,8.88,8.9,14.44,6.02,5.19-2.42,9.44-6.47,14.44-9.2,1.8-.95,3.92-1.37,5.94-1.29,1.66-.05,3.49-.14,5.09.35,2.65.86,4.69,3.03,6.79,4.74,1.49,1.3,3.38,2.28,5.1,3.23,3.02,2.19,6.34,4.08,9.34,6.28,5.53,4.36,13.24.74,18.68-2.08,4.07-2.23,8.25-4.45,12.74-5.74,1.31-.4,2.87-.66,4.25-.44,1.98.32,3.95,1.23,5.94,1.47"/><path class="b" d="M10.66,145.03c5.3,2.03,9.38,8.25,15.28,8.58,1.96,0,3.99-.46,5.94-.57,2.67-.07,5.57-.31,7.64-2.21,2.33-2.15,5.34-3.29,8.49-2.5,4.68.98,9.68,2.34,14.44,1.08,2.95-.89,4.93-3.56,6.79-5.84,4.77-6.34,8.2,3.09,11.04,6.3,2.94,3.36,6.75,5.59,11.04,3.07,3.12-1.89,6.15-4.08,9.34-5.87,2.65-1.54,5.45-3.13,8.49-3.7,1.66-.26,3.48-.35,5.09-.85,3.4-1.07,5.75-1.06,8.49,1.48,1.95,1.73,3.79,3.82,5.94,5.31,1.68,1,3.43,2.2,5.09,3.23,2.29,1.05,4.53,2.43,6.79,3.51,2.66,1.24,5.69.41,8.49.32,3.39-.22,6.92-.09,10.19-1.15,3.58-1.16,6.85-3.23,10.19-4.91,1.59-.84,3.3-1.89,5.09-2.23,2.31-.38,4.55.91,6.79,1.2"/><path class="b" d="M10.66,141.89c2.25.74,4.11,2.48,5.94,3.91,2.17,1.52,4.26,3.46,6.79,4.36,2.46.88,5.12.07,7.64.1,1.37,0,2.88.21,4.25.23,4.1-.15,4.89-3.66,10.19-2.76,1.94.33,3.96.9,5.94.96,1.96.06,4.01-.2,5.94-.46,4.72-.46,8.05-1.87,11.04-5.64,1.14-1.24,2.39-3.12,4.25-3.18,3.07.87,4.31,4.59,5.94,7.02,1.68,2.66,4.24,5.78,7.64,5.86,4.33-.39,7.19-4.41,11.04-6.04,2.92-1.44,6.09-2.62,9.34-2.97,1.36-.18,2.9-.12,4.25-.34,2.07-.4,4.02-1.54,5.94-2.34,2.19-1.03,4.18-.57,5.94,1.03,1.98,1.73,3.79,3.9,5.94,5.43,1.6,1.03,3.39,2.08,5.09,2.92,1.66.58,3.44,1.24,5.1,1.82,3.06,1.2,6.23-.05,9.34-.18,3.17-.16,6.24,1.03,9.34,1.47,2.98.45,5.95-.74,8.49-2.19,3.19-1.56,5.95-4.17,9.34-5.29,1.95-.45,4.01.34,5.94.5"/><path class="b" d="M10.66,138.84c2.29.54,4.15,2.26,5.94,3.69,2.45,1.71,4.7,4.1,7.64,4.93,2.47.68,5.13,0,7.64.4,4.7.87,4.26.67,8.49-.93,3.44-.77,6.75,1.34,10.19,1.09,2.6-.18,5.14-1.19,7.64-1.83,2.66-.7,5.47-1.51,7.64-3.28,1.17-.94,2.39-2.25,3.4-3.36.88-.91,2.02-2.15,3.4-2.04,3.53,1.34,4.61,6.32,6.79,9.13,2.56,3.24,5.49,5.16,9.34,2.52,4.47-3.15,6.98-5.63,12.74-6.43,2.22-.32,4.56-.21,6.79-.09,5.08.3,9.46-6.35,13.59-3.68,2.18,1.42,3.89,3.65,5.94,5.22,2.5,1.77,5.43,3.22,8.49,3.65,1.91.41,4,.68,5.94.35,1.66-.3,3.41-.87,5.09-1.01,1.98-.2,4.09.16,5.94.87,3.57,1.45,7.1,3.81,11.04,2.05,4.01-1.53,7.29-4.5,11.04-6.49,1.81-.89,3.99-.83,5.94-1.03"/><path class="b" d="M10.66,135.97c2.27.2,4.21,1.71,5.94,3.05,1.74,1.2,3.45,2.72,5.09,4.05,2.14,1.75,4.95,2.32,7.64,2.4,2.82.07,5.7,1.35,8.49.49,3.12-1.13,6.3.37,9.34,1.04,2.92.71,5.84-.46,8.49-1.6,2.49-1.06,5.21-1.81,7.64-3.02,1.9-.96,3.64-2.49,5.09-4.03.96-.98,2.04-2.3,3.4-2.71,5.11-.5,6.26,14.99,14.44,12.62,2.19-.87,4.03-2.63,5.94-3.95,2.19-1.7,4.9-2.72,7.64-3.02,2.52-.37,5.13-.03,7.64.15,3.53-.02,6.37-2.53,9.34-4.09,2.43-1.43,4.66-1.07,6.79.72,1.66,1.33,3.29,2.99,5.1,4.12,1.84.99,3.86,2.07,5.94,2.41,2.22.27,4.58.34,6.79,0,3.06-.58,6.2-1.7,9.34-1.07,3.39.58,6.24,2.77,9.34,4.09,4.9,1.89,9.65-2.08,13.59-4.57,2.35-1.69,4.95-3.19,7.64-4.26"/><path class="b" d="M10.66,133.36c2.14-.21,4.21.78,5.94,1.93,2.87,1.54,4.99,4.21,7.64,6.03,1.99,1.34,4.47,1.74,6.79,2.1,2.21.37,4.54.92,6.79.62,2.33-.2,4.62.69,6.79,1.39,2.16.67,4.58,1.1,6.79.43,3.2-1.07,6.22-2.81,9.34-4.1,2.14-.94,4.24-2.28,5.94-3.89,1.37-1.23,2.65-2.91,4.25-3.86,4.99-2.05,6.31,11.69,12.74,12.64,4.95.78,8.25-6.22,15.28-6.79,1.64-.23,3.44-.28,5.09-.2,1.67.14,3.5.26,5.09-.34,3.76-1.27,6.85-4.81,11.04-4.66,3.63.35,6.2,3.42,9.34,4.95,3.58,2.14,6.96,2.45,11.04,1.81,2.53-.36,5.08-1.19,7.64-1.29,3.33-.19,6.51,1.23,9.34,2.84,2.33,1.26,4.89,2.77,7.64,2.48,6.56-.87,11-6.42,16.13-10.02"/><path class="b" d="M10.66,131.17c2.93-.83,5.99.34,8.49,1.86,2.17,1.45,3.94,3.6,5.94,5.25,2.36,2.05,5.51,2.77,8.49,3.4,2.5.64,5.23.54,7.64,1.54,4.85,2.1,8.78,3,13.59.2,2.86-1.57,5.85-3.12,8.49-5.03,2.45-1.73,4.4-4.23,6.79-6.02,5.85-3.25,6.76,13.54,15.29,12.61,4.18-.71,6.98-4.65,11.04-5.74,3.28-1.1,6.8-.8,10.19-.94,2.83-.46,5.17-2.39,7.64-3.7,5.53-3,10.3-1.2,15.28,1.84,5.88,4.1,11.47,1.67,17.83.86,3.24-.35,6.5.69,9.34,2.18,2.71,1.34,5.43,3.11,8.49,3.44,6.85.49,11.36-5.9,16.13-9.81"/><path class="b" d="M10.66,129.47c3.69-1.46,7.99-.21,11.04,2.12,2.57,2.06,4.66,4.92,7.64,6.44,3.45,1.75,7.49,1.97,11.04,3.42,4.45,2.14,7.79,4.09,12.74,1.87,3.74-1.7,7.15-4.25,10.19-6.98,1.41-1.31,2.87-2.89,4.25-4.24,1.3-1.32,3.3-2.89,5.09-1.5,2.3,1.98,3.47,5.17,5.1,7.66,1.87,2.77,4.89,5.57,8.49,5.03,3.17-.52,5.71-2.79,8.49-4.21,2.35-1.14,5.04-1.69,7.64-1.79,1.66-.09,3.5.19,5.09-.38,2.75-.98,4.97-3.17,7.64-4.33,1.84-.81,3.96-1.04,5.94-1.19,2.62-.31,5.36.17,7.64,1.53,2.09,1.28,4.28,2.78,6.79,2.98,4,.64,7.93-.87,11.89-1.15,3.23-.27,6.46.73,9.34,2.12,2.77,1.26,5.5,2.95,8.49,3.64,6.63,1.42,11.51-4.7,16.13-8.44"/><path class="b" d="M10.66,127.99c3.81-1.79,8.54-.67,11.89,1.64,2.9,2.17,5.11,5.43,8.49,6.94,2.98,1.32,6.4,1.58,9.34,3.02,4.09,2.13,7.93,5.47,12.74,3.09,11.23-4.8,14.9-19.49,20.38-12.49,2.43,3.35,4.09,7.52,7.64,9.91,8.39,5.52,11.77-3.7,21.23-3.7,1.06-.04,2.33.03,3.4.02,3.35-.34,5.71-3.2,8.49-4.8,1.77-1.08,3.93-1.58,5.94-1.96,2.49-.54,5.29-.99,7.64.27,1.96,1.03,3.82,2.53,5.94,3.22,4.47,1.52,9.07-.29,13.59-.48,3.22-.14,6.43.86,9.34,2.15,3.09,1.3,6.04,3.2,9.34,3.92,5.88,1.22,10.79-3.54,15.28-6.6"/><path class="b" d="M10.66,126.47c3.67-2.08,8.48-1.17,11.89,1.04,3.24,2.25,5.55,5.96,9.34,7.38,2.46.87,5.21.99,7.64,1.95,4.5,1.69,8.27,7.39,13.59,5.44,3.85-1.56,6.82-4.84,9.34-8.03,1.87-2.34,3.48-5.23,5.94-7,3.78-2.12,5.88,3.41,7.64,5.82,2.69,4.17,7.54,7.94,12.74,7.38,2.21-.31,4.13-1.71,5.94-2.9,2.03-1.23,4.43-1.98,6.79-2.16,5.37-.03,5.73.83,10.19-3.07,2.18-1.99,4.73-3.78,7.64-4.5,1.89-.54,3.97-1.11,5.94-.79,2.17.44,4.07,1.87,5.94,2.96,4.7,3.14,10.11,1.36,15.28,1.05,3.2-.12,6.41.74,9.34,1.95,3.12,1.24,6.08,3.11,9.34,4,5.7,1.62,11.2-1.97,16.13-4.4"/><path class="b" d="M10.66,125.08c3.13-2.52,7.75-1.91,11.04,0,2.84,1.77,4.93,4.64,7.64,6.58,2.93,2.27,6.85,1.4,10.19,2.44,5.24,1.48,8.35,9.17,14.44,7.44,7.44-2.66,10.39-14.49,15.28-16.14,3.29-.29,5.02,4.39,6.79,6.55,2.95,3.93,8.54,7.51,13.59,7.18,3.27-.4,5.47-3.37,8.49-4.45,1.84-.81,3.98-.9,5.94-.62,1.37.24,2.96.4,4.25-.26,5.23-3.01,7.39-8.39,14.44-8.79,2.45,0,4.76,1.25,6.79,2.5,1.56.96,3.29,2.02,5.1,2.44,3.33.65,6.84.13,10.19-.13,3.47-.24,6.99.6,10.19,1.92,3.07,1.25,6.06,2.96,9.34,3.63,5.76,1.17,11.51-1.29,16.98-2.82"/><path class="b" d="M10.66,124.59c2.75-3.5,7.56-3.44,11.04-1.08,3.28,2.16,5.56,5.91,9.34,7.29,4.23,1.08,7.96-1.23,11.89,2.12,2.67,2.18,4.66,5.31,7.64,7.1,4.6,2.68,8.81-2.12,11.04-5.73,2.18-2.75,5.66-13.23,10.19-8.99,1.92,1.93,3.24,4.62,5.1,6.6,3.32,3.11,8.91,6.29,13.59,5.75,2.63-.47,4.46-2.83,6.79-3.97,7.51-4.33,8.5,2.86,15.28-4.16,8.09-8.68,10.07-6.8,19.53-1.58,1.27.63,2.85.85,4.25.95,1.93.21,4,.29,5.94.16,5.01-.71,9.9.9,14.44,2.89,7.87,3.33,16.54.71,24.63-.33"/><path class="b" d="M10.66,125.08c3.26-4.66,7.28-5.65,11.89-2.1,2.5,1.9,4.62,4.63,7.64,5.74,3.91,1.21,8.06-1.94,11.89.6,4.93,3.31,8.96,13.72,16.13,8.69,5.23-3.24,8.2-18.45,13.59-13.38,1.57,1.6,2.81,3.79,4.25,5.5,1.41,1.51,3.26,2.85,5.09,3.79,3.14,1.34,6.73,2.97,10.19,2.01,1.59-.51,2.88-1.9,4.25-2.8,8.21-5.48,9.73-.37,14.44-2.5,2.63-1.41,4.57-3.93,6.79-5.86,3.03-3.02,5.83-2.23,9.34-.57,1.67.8,3.39,1.85,5.09,2.56,2.7.92,5.64,1.49,8.49,1.63,2.81.08,5.72-.42,8.49.26,3.7.72,7.19,2.8,11.04,2.7,1.94-.02,4-.25,5.94-.28,1.36-.01,2.89.11,4.25-.06,3.94-.45,7.9-1.43,11.89-1.27"/><path class="b" d="M10.66,125.18c3.66-3.88,6.79-6.46,11.89-3,2.22,1.48,4.24,3.54,6.79,4.45,3.93,1.34,7.97-2.15,11.89-.4,5.43,2.74,7.6,10.85,14.44,11.1,3.65-.03,6.02-3.4,7.64-6.27,1.95-3.24,5.06-11.4,9.34-5.87,1.59,1.97,2.96,4.45,5.1,5.9,3,2.42,8.92,4.25,12.74,3.47,2-.42,3.46-2.13,5.1-3.21,2.7-1.82,6.12-2.59,9.34-2.1,7.54,1.89,8.99-3.15,14.44-6.35,2.9-.93,5.85.83,8.49,1.86,2.78.94,5.63,2.29,8.49,2.87,3.35.75,6.83-.13,10.19.25,3.12.37,6.16,1.75,9.34,1.65,1.97-.14,3.97-.82,5.94-.94,1.66-.08,3.45.25,5.09-.1,4.75-.77,9.6-2.24,14.44-1.53"/><path class="b" d="M10.66,123.3c2.57-.81,4.84-2.85,7.64-2.88,4.15-.17,7.17,3.37,11.04,4.23,3.98.89,7.96-2.35,11.89-.62,2.45,1.05,4.16,3.4,5.94,5.28,2.53,2.57,5.57,5.47,9.34,5.77,3.65.12,5.92-3.42,7.64-6.17,1.87-3.14,4.79-8.84,8.49-4.13,1.59,1.97,2.96,4.43,5.1,5.89,2.8,2.28,6.69,2.76,10.19,2.7,5.48-.26,6.15-4.68,11.89-5.21,5.17-.66,8.64,1.85,13.59-1.11,2.62-1.2,4.61-4.1,7.64-4.24,1.69-.01,3.46.53,5.09.92,2.08.44,4.07,1.53,5.94,2.49,3.09,1.69,6.79,1.67,10.19,1.16,4.79-.97,9.8,1.56,14.44-.47,1.31-.47,2.84-.91,4.25-.88,1.66.19,3.47-.1,5.1-.45,2.78-.62,5.67-1.17,8.49-1.56,2.22-.34,4.59-.54,6.79-.03"/><path class="b" d="M10.66,119.65c2.79.75,5.67-.38,8.49-.16,3.88.13,7.2,2.73,11.04,3.04,2.28.21,4.55-.63,6.79-.83,2.84-.35,5.6.92,7.64,2.84,3.94,3.18,9.71,10,15.28,7.29,3.34-2.08,4.89-6.11,7.64-8.78,5.63-4.64,6.85,8.78,15.28,8.87,2.86.17,5.89-.11,8.49-1.38,1.96-1.04,3.65-2.87,5.94-3.18,6.71-1.04,11.54,3.02,17.83-1.58,2.4-1.61,4.48-3.77,7.64-3.17,4.07.44,7.3,3.3,11.04,4.65,3.38,1.02,6.86-.26,10.19-.85,2.5-.38,5.14-.1,7.64-.48,2.37-.28,4.49-1.74,6.79-2.23,4.59-.09,9.04-1.53,13.59-2.06,3.07-.41,6.28-1.01,9.34-.25"/><path class="b" d="M10.66,115.23c3.57,2.29,7.91,2.07,11.89,3.04,3.06.79,6.13,2.08,9.34,1.98,1.66-.04,3.43-.36,5.09-.31,3.88,0,7.26,2.28,10.19,4.6,3.9,2.83,9.9,7.55,14.44,3.46,2.44-2.17,4.04-5.38,6.79-7.22,3.6-2.16,5.78,2.76,7.64,5.04,1.56,1.8,3.49,3.86,5.94,4.29,3.15.32,6.41-.5,9.34-1.61,1.9-.83,3.78-2.16,5.94-2.13,5.64-.21,11.66,3.27,16.98.23,2.09-1.02,3.79-2.94,5.94-3.8,5.34-1.31,9.47,3.79,14.44,4.65,3.21.51,6.28-1,9.34-1.67,2.24-.44,4.64-.75,6.79-1.54,2.03-.69,3.9-2.07,5.94-2.74,5.08-.86,10.12-2.25,15.28-2.55,3.08-.25,6.3-.61,9.34.13"/><path class="b" d="M10.66,111.04c1.88,1.25,3.82,2.69,5.94,3.49,2.17.81,4.56,1.22,6.79,1.81,2.49.62,5.07,1.33,7.64,1.5,1.94.12,4-.12,5.94.09,3.47.27,6.49,2.23,9.34,4.06,2.13,1.34,4.45,2.56,6.79,3.48,10.4,4.49,10.41-6.91,17.83-7.77,2.83.4,4.24,3.49,5.94,5.44,1.63,1.74,3.48,3.87,5.94,4.3,4.36.47,8.48-1.78,12.74-2.2,5.39.15,10.68,2.71,16.13,2.41,2.9-.33,5.35-2.22,7.64-3.87,4.58-2.76,9.27,1.6,13.59,2.94,3.46,1.2,6.98-.4,10.19-1.64,2-.59,4.1-1.27,5.94-2.26,1.69-.87,3.39-2.08,5.1-2.92,3.57-1.27,7.27-2.49,11.04-3.02,5.34-.6,10.86-.6,16.13.47"/><path class="b" d="M10.66,107.56c2.25,1.5,4.34,3.46,6.79,4.64,3.74,1.64,7.85,2.56,11.89,3.1,3.7.35,7.6.1,11.04,1.75,3.63,1.73,7.18,3.81,11.04,5,2.15.71,4.5,1.5,6.79,1.12,5.9-.71,9.71-12.06,16.13-7.25,2.53,2.39,4.59,5.5,7.64,7.32,2.05,1.12,4.57.93,6.79.57,2.49-.44,5.16-.75,7.64-.07,3.65,1,7.27,2.33,11.04,2.83,1.93.25,3.99.77,5.94.51,2.51-.35,4.69-1.93,6.79-3.23,4.55-2.53,9.11,1.54,13.59,2.24,3.06.51,5.92-1.07,8.49-2.52,1.66-.82,3.53-1.56,5.09-2.56,5.59-3.64,11.93-6.61,18.68-6.98,5.17-.22,10.29,1.06,15.28,2.24"/><path class="b" d="M10.66,104.87c2.34,1.45,4.41,3.49,6.79,4.88,5.14,2.94,11.23,3.28,16.98,3.97,5.41.7,10.02,4.02,15.29,5.28,3.65,1.12,7.69,1.91,11.04-.45,3.41-2.31,6.18-5.78,10.19-7.12,2.71-.61,5.03,1.71,6.79,3.45,3.02,2.97,6.52,6.04,11.04,5.76,1.36-.03,2.89-.14,4.25.09,1.41.29,2.92.88,4.25,1.43,3.49,1.57,7.23,2.67,11.04,3.11,1.95.21,3.97.89,5.94.84,7.88-1.04,6.04-5.52,16.13-2.09,7.07,2.29,9.48-2.68,15.28-5.38,2.55-1.36,5.01-3.11,7.64-4.31,4.24-1.81,8.94-3.12,13.59-2.82,4.95.65,9.59,2.84,14.44,3.94"/><path class="b" d="M10.66,102.82c2.96,1.64,5.45,4.19,8.49,5.7,6.93,3.27,15.03,2.41,22.08,5.38,4.47,1.66,11.52,4.62,16.13,2.72,4.12-1.65,7-5.45,11.04-7.26,1.79-.94,3.92-2.36,5.94-1.23,4.23,2.4,7.5,6.35,11.89,8.51,1.82.89,3.98.84,5.94,1.1,3.3.69,6.16,2.82,9.34,3.87,3.25,1.27,6.85,1.27,10.19,2.16,2.71,1.05,5.84,1.19,8.49-.13,1.29-.7,2.77-1.45,4.25-1.61,3.67-.46,7.47,1.62,11.04.12,2.27-.95,4.05-2.92,5.94-4.42,1.26-1,2.92-1.75,4.25-2.65,1.34-.91,2.81-1.98,4.25-2.73,2.62-1.39,5.61-2.07,8.49-2.65,2.48-.48,5.13-.94,7.64-.44,2.06.41,4.02,1.53,5.94,2.31,2.97,1.29,6.13,2.36,9.34,2.81"/><path class="b" d="M10.66,101.2c3.31,1.56,6.02,4.27,9.34,5.79,2.39,1.11,5.07,1.57,7.64,2.02,3.92.93,8.01,1.35,11.89,2.46,4.62,1.2,10.54,4.32,15.28,3,3.58-1.28,6.27-4.26,9.34-6.38,1.52-1.12,3.36-1.93,5.1-2.64,1.04-.51,2.25-1.18,3.4-1.39,2.78-.28,4.74,2.32,6.79,3.78,2.22,1.58,4.46,3.34,6.79,4.76,2.54,1.72,5.84,1.28,8.49,2.71,2.77,1.34,5.54,2.93,8.49,3.85,2.17.71,4.56.9,6.79,1.35,2.6.55,4.92,2.3,7.64,2.37,2.14.32,4.02-1.01,5.94-1.66,3.01-.97,6.28-.04,9.34-.64,2.36-.48,4.28-2.23,5.94-3.86,1.33-1.22,2.86-2.54,4.25-3.7,1.62-1.16,3.31-2.54,5.1-3.45,1.82-.93,3.94-1.42,5.94-1.76,3.06-.45,6.23-1.34,9.34-.94,2.51.35,4.68,1.96,6.79,3.24,3.3,2.01,7.24,2.55,11.04,2.69"/><path class="b" d="M10.66,99.8c3.35,1.32,6.11,3.86,9.34,5.39,2.39,1.13,5.1,1.44,7.64,2.07,4.75,1.31,9.74,1.72,14.44,3.24,4.06,1.01,8.76,3.62,12.74,1.12,3.62-2.34,6.38-5.96,10.19-8.04,1.85-1.05,4.06-1.52,5.94-2.5,4.4-2.43,7.04,1.91,10.19,4.21,2.54,1.41,5,3.22,7.64,4.44,1.88.8,4.1.76,5.94,1.67,4.15,1.92,8.13,4.56,12.74,5.24,1.38.24,2.94.5,4.25,1.05,2.7,1.32,5.3,3.61,8.49,3.45,1.43-.2,2.83-1.09,4.25-1.38,1.91-.49,4-.55,5.94-.83,7.16-1.01,9.92-9.18,16.13-11.98,2.89-1.38,6.24-1.38,9.34-1.97,4.57-.94,7.32-.84,11.04,2.35,5.53,4.89,7.84,3.44,14.44,3.73"/><path class="b" d="M10.66,98.45c3.67,1.19,6.62,3.95,10.19,5.34,3.33,1.03,6.84,1.68,10.19,2.68,4.25.92,8.56,1.75,12.74,2.98,3.29.94,7.28,2.36,10.19-.24,4.63-4.02,8.05-9.26,14.44-10.7,4.28-1.59,6.19-3.2,10.19.28,2.04,1.92,4.4,3.61,6.79,5.06,2.24,1.58,4.86,2.81,7.64,2.91,3.99.68,7.34,3.34,11.04,4.83,2.7,1.25,5.88,1.33,8.49,2.78,2.71,1.66,5.05,4.82,8.49,4.82,2.5-.66,5.09-1.39,7.64-1.87,3.77-.79,6.92-3.44,9.34-6.33,2.25-2.99,4.57-6.16,8.49-6.89,2.49-.55,5.15-.52,7.64-1.04,4.09-.94,6.9-1.78,10.19,1.67,2.16,2.07,4.28,5.2,7.64,4.93,3.1-.3,6.18-1.76,9.34-1.05"/><path class="b" d="M10.66,96.99c3.37.96,6.19,3.25,9.34,4.68,1.87.79,4.01,1.07,5.94,1.67,3.91,1.22,7.91,2.28,11.89,3.23,2.22.6,4.54,1.21,6.79,1.69,2.19.52,4.7,1.1,6.79-.03,2.39-1.42,4.11-3.88,5.94-5.91,1.92-2.22,4.16-4.41,6.79-5.76,2.11-1.14,4.61-1.55,6.79-2.53,5.83-2.94,8.51,1.82,12.74,4.82,9.49,7.8,7.79,1.61,16.98,6.62,1.88,1,3.89,2.07,5.94,2.68,2.28.69,4.83,1.1,6.79,2.55,2.76,1.94,4.8,5.81,8.49,5.93,1.37-.25,2.89-.6,4.25-.9,4.01-.89,7.68-3.36,10.19-6.59,2.24-2.95,4.3-6.9,8.49-7,2.8-.29,5.74-.07,8.49-.81,5.61-1.74,7.28-2.36,11.04,2.95,1.23,1.65,2.73,4.05,5.1,3.83,4.06-.88,7.41-4.3,11.89-2.96"/><path class="b" d="M10.66,95.37c3.32.98,6.18,3.14,9.34,4.47,1.89.71,4.03,1.03,5.94,1.67,4.77,1.56,9.58,3.16,14.44,4.46,2.74.61,5.68,1.41,8.49.98,4.49-1.11,7.46-7.57,11.04-10.55,2.8-2.76,6.57-4.1,10.19-5.4,3.65-1.74,6.2-2.03,9.34.84,1.92,1.78,3.88,3.74,5.94,5.36,1.69,1.42,3.66,2.98,5.94,3.14,1.96.04,3.96-.85,5.94-.46,4.52.68,8.25,3.84,12.74,4.66,6.74,1.2,8.22,9.64,14.44,8.12,11.92-1.44,11.41-13.94,18.68-13.2,2.51.25,5.11.82,7.64.5,7.91-1.46,8.33-5.11,13.59,3.76,2.6,4.28,4.23,2.98,7.64.47,2.67-1.8,6.09-3.41,9.34-2.36"/><path class="b" d="M10.66,93.76c2.92,1.03,5.65,2.7,8.49,3.91,2.74,1.05,5.77,1.41,8.49,2.54,5.79,2.09,11.57,5.06,17.83,5.25,4.65.3,7.53-3.9,10.19-7.06,2.15-2.62,4.66-5.15,7.64-6.8,2.43-1.39,5.17-2.39,7.64-3.71,4.4-2.5,7.04-.95,10.19,2.45,13.75,14.48,10.41,1.98,22.93,7.21,2.77,1.3,5.69,2.46,8.49,3.68,1.9.89,3.62,2.37,5.09,3.84,1.8,1.77,4.07,3.77,6.79,3.15,7.08-.22,9.26-7.72,13.59-11.94,3.25-2.95,7.45.33,11.04.78,2.89.64,5.7-.67,8.49-1.15,5.02-.27,5.38,7.97,9.34,9.03,2.09-.43,3.37-2.67,5.1-3.77,2.64-1.72,6.26-3.02,9.34-1.79"/><path class="b" d="M10.66,92.65c2.85,1,5.64,2.39,8.49,3.38,2.8.82,5.82,1.07,8.49,2.33,5.93,2.39,12.96,6.72,19.53,4.81,3.92-1.53,6.37-5.33,9.34-8.11,2.4-2.42,5.42-4.23,8.49-5.65,2.65-1.2,5.15-2.87,7.64-4.36,3.86-2.35,6.69.06,9.34,2.85,1.56,1.61,3.4,3.2,5.1,4.67,2.28,1.98,4.79,2.98,7.64,1.47,1.85-.79,3.9-1.56,5.94-1.52,2.69.06,5.26,1.29,7.64,2.44,2.67,1.28,5.39,2.74,7.64,4.69,2.35,1.98,5.11,4.99,8.49,3.76,6.7-1.43,8.69-8.66,13.59-12.39,3.61-2.21,7.65.42,11.04,1.85,1.3.54,2.84.96,4.25,1.03,1.36.07,2.89-.15,4.25,0,4.64.8,4.92,7.03,8.49,9.21,2.22.2,3.47-2.83,5.09-4,2.6-2.02,7.13-3.24,10.19-1.66"/><path class="b" d="M10.66,92.09c2.82.75,5.65,1.78,8.49,2.45,2.23.44,4.65.44,6.79,1.3,4.49,1.75,8.73,4.44,13.59,5.1,2.85.46,5.98.53,8.49-1.09,3.65-2.23,6.48-5.72,10.19-7.87,3.26-1.89,7.09-2.79,10.19-4.97,8.79-6.81,8.71-7.23,16.98.56,7.28,6.89,7.13,4.02,15.28,1.85,2.92-.59,5.92.4,8.49,1.74,2.4,1.22,4.72,2.84,6.79,4.56,2.74,2.34,5.78,4.58,9.34,2.35,3.04-1.48,5.48-4.06,7.64-6.61,2.72-3.48,5.38-6.25,10.19-5.78,3.18.24,5.79,2.46,8.49,3.92,2.08,1.27,4.63,1.7,6.79,2.77,1.86,1.04,3.18,3.09,4.25,4.87.85,1.35,1.82,3.32,3.4,3.93,2.35-.08,3.39-3.18,5.09-4.47,2.76-2.13,7.13-2.82,10.19-.95"/><path class="b" d="M10.66,91.77c2.53.33,5.12.87,7.64,1.24,2.24.26,4.63,0,6.79.74,3.18.99,6.09,2.87,9.34,3.65,2.19.57,4.55.7,6.79.61,1.69-.02,3.52-.17,5.09-.85,3.6-1.49,6.63-4.19,10.19-5.76,3.59-1.55,7.78-1.72,11.04-4.04,3.59-2.1,7.46-8.61,11.89-7.57,2.69.89,4.68,3.26,6.79,5.04,2.34,2.1,5.02,5.09,8.49,4.35,3.45-.64,6.61-2.76,10.19-2.81,3.5-.06,6.65,1.95,9.34,3.99,1.84,1.38,3.72,3.06,5.94,3.78,3.19,1.07,6.09-1.36,8.49-3.15,3.9-2.91,6.76-7.72,11.89-8.54,6.61-1.78,8.88,1.32,13.59,5.19,1.89,1.55,4.2,2.81,5.94,4.54,1.89,1.88,3.16,4.55,5.09,6.37,1.62,1.42,3.34-.54,4.25-1.86.85-1.16,2.06-2.51,3.4-3.13,2.68-1.2,6.08-1.08,8.49.68"/><path class="b" d="M10.66,91.34c2.52.06,5.12.27,7.64.24,1.66-.12,3.44-.38,5.1-.06,3.76.71,7.15,3.02,11.04,3.19,2.25.17,4.58-.17,6.79-.51,1.37-.2,2.91-.33,4.25-.7,3.18-.81,6.2-2.32,9.34-3.23,6.28-1.59,10.09-.2,15.28-5.41,2.86-2.46,5.36-6.83,9.34-7.35,2.75.06,4.85,2.37,6.79,4.06,6.45,6.46,8.59,7.06,16.98,3.18,3.15-1.48,6.38-1.49,9.34.46,3.15,1.91,6.21,5.05,10.19,4.62,2.87-.42,5.28-2.43,7.64-3.97,2.46-1.66,4.74-3.91,7.64-4.8,1.63-.52,3.46-.83,5.1-1.31,2.67-1.09,5.54-.69,7.64,1.36,2.12,1.94,3.91,4.43,5.94,6.45,1.3,1.31,2.92,2.61,4.25,3.9,1.44,1.42,2.79,3.25,4.25,4.65,2.06,1.96,3.73.02,5.09-1.68.85-1.03,2.12-2.12,3.4-2.59,2.53-.94,5.51-.32,7.64,1.29"/><path class="b" d="M10.66,90.79c2.24-.12,4.58-.37,6.79-.75,1.63-.4,3.41-.77,5.09-.54,2.32.27,4.54,1.31,6.79,1.85,1.92.47,4.01.44,5.94.1,2.25-.38,4.53-1.09,6.79-1.42,4.23-.53,8.49-1.21,12.74-1.61,3.67-.35,7.6.08,11.04-1.5,5.68-2.17,10.18-12.1,15.28-11.41,8.22,2.4,10.45,15.56,22.93,7.73,3-1.91,5.95-3.2,9.34-1.29,7.69,4.75,10.81,4.4,18.68.24,1.34-.68,2.82-1.54,4.25-2.03,1.9-.66,4.03-.92,5.94-1.52,1.64-.56,3.32-1.52,5.09-1.57,4.19.09,6.17,4.73,8.49,7.56,1.56,2.21,3.75,4.07,5.94,5.62,1.46,1.09,2.85,2.59,4.25,3.75,1.35,1.15,2.9,1.14,4.25-.2,1.2-1.1,2.64-2.34,4.25-2.79,2.29-.68,4.85.02,6.79,1.32"/><path class="b" d="M10.66,89.78c2.66,0,5.17-1.18,7.64-2,3.73-1.19,7.36.84,11.04,1.14,2.91.18,5.74-.95,8.49-1.75,2.18-.63,4.53-1.05,6.79-1.14,2.81-.1,5.68.35,8.49.47,4.54.11,9.37.15,13.59-1.78,2.64-1.27,4.82-3.48,6.79-5.59,2.44-2.44,5.38-6.71,9.34-5.22,3.43,1.61,5.68,5,8.49,7.42,4.23,3.84,9.09,4.36,13.59.63,2.71-2.1,5.71-4.61,9.34-3.12,7.04,2.99,13.2,3.56,20.38.6,2.73-1.02,5.81-1.15,8.49-2.32,8.73-4.74,9.73,2.42,14.44,7.88,1.7,2.21,4.6,2.94,6.79,4.48,1.12.83,2.33,1.99,3.4,2.89.6.54,1.71,1.08,2.55.82,4.18-1.97,6.18-3.76,11.04-1.51"/><path class="b" d="M10.66,88.17c2.15.16,4.08-1.16,5.94-2.03,3.83-1.91,7.93.13,11.89.13,2.63-.06,5.16-1.18,7.64-1.93,2.99-.85,6.22-1.53,9.34-1.33,2.84.33,5.62,1.42,8.49,1.54,2.25.13,4.58-.25,6.79-.6,1.98-.29,4.09-.62,5.94-1.39,2.98-1.29,5.36-3.77,7.64-6,2.41-2.36,5.65-6.1,9.34-4.16,3.36,1.92,5.54,5.45,8.49,7.88,2.52,2.13,6.01,3.73,9.34,2.91,2.66-.79,4.72-2.95,6.79-4.68,3.12-2.77,5.41-2.95,9.34-1.96,3.16.34,6.23,1.45,9.34,2.03,2.82.57,5.76.15,8.49-.65,1.95-.47,4.04-.87,5.94-1.5,8.27-3.52,9.63-2.92,14.44,4.67,1.25,1.84,2.86,3.89,5.1,4.51,1.07.28,2.38.51,3.4.97,2.16.95,3.56,3.15,5.09,4.83,3.18,2.52,5.97-2.19,11.89-.44"/><path class="b" d="M10.66,86.26c1.87.04,3.51-1.25,5.1-2.08,3.67-2.14,7.94-.33,11.89-.62,3.74-.37,7.27-2.12,11.04-2.35,2.81-.18,5.73-1.02,8.49-.12,4.15,1.34,6.71,1.83,11.04.93,3.11-.47,6.45-.58,9.34-1.95,5.01-2.09,10.47-11.98,16.13-9.3,4.07,2.23,6.25,6.86,10.19,9.31,4.55,2.84,8.67,2.9,12.74-.8,2.13-1.77,4.14-4.04,6.79-5.03,3.3-.9,7-.46,10.19.69,5.78,2.35,8.31,2.84,14.44,1.07,3.9-.96,7.75-3.44,11.89-2.48,2.28.72,3.76,2.99,5.09,4.83,1.51,2.1,3.19,4.78,5.94,5.24,1.06.15,2.35.14,3.4.39,2.98.65,4.14,3.94,5.94,6.01,1.53,1.71,4.02,1.17,5.94.54,1.6-.49,3.42-.76,5.1-.62"/><path class="b" d="M10.66,84.29c1.87-.31,3.48-1.64,5.1-2.54,3.64-2.01,7.97-.41,11.89-1.05,2.25-.3,4.53-.96,6.79-1.19,1.94-.21,4-.14,5.94-.18,1.38.01,2.87-.38,4.25-.39,2,.06,4,.8,5.94,1.18,2.51.56,5.13,0,7.64-.26,3.43-.42,7.14-.57,10.19-2.37,4.55-2.48,8.68-9.65,14.44-8.43,3.75,1.26,5.75,5.14,8.49,7.73,3.03,2.93,7.72,4.93,11.89,3.47,5.14-2.14,8.48-8.01,14.44-8.23,2.93-.39,5.84.61,8.49,1.78,6.42,3.09,10.76.93,16.98-1.08,2.16-.58,4.61-.58,6.79-.08,1.71.5,3.14,1.95,4.25,3.29,1.86,2.2,3.64,5.33,6.79,5.67,1.06.09,2.34,0,3.4.16,1.85.22,3.32,1.78,4.25,3.29,3.92,7.32,6.45,3.64,12.74,3.28"/><path class="b" d="M10.66,82.34c1.51-.54,2.93-1.66,4.25-2.55,3.42-2.56,7.93-1.39,11.89-1.82,4.22-.51,8.5-.7,12.74-.32,2.24.23,4.56-.39,6.79-.05,1.94.26,3.98.72,5.94.67,3.38-.24,6.83-.54,10.19-1.04,8.9-.87,12.08-10.07,19.53-9.55,4.29.77,6.46,5.12,9.34,7.91,2.83,2.81,7.13,4.06,11.04,3.31,2.86-.68,5.27-2.64,7.64-4.29,12.64-9.15,15.66,1.25,26.32-1.44,2.53-.6,5.05-1.66,7.64-2,3.89-.14,7.52.34,10.19,3.5,3.96,4.3,4.19,4.94,10.19,4.9,1.77.17,3.3,1.5,4.25,2.93,4.04,6.9,6.09,4.85,12.74,3.92"/><path class="b" d="M10.66,80.38c2.79-1.65,5.05-4.66,8.49-4.92,6.77-.56,13.61-.26,20.38.25,2.23.24,4.57.15,6.79.37,2.8.35,5.69.17,8.49-.11,4.3-.4,8.8-.77,12.74-2.7,3.84-1.84,6.83-5.41,11.04-6.5,8.73-2.24,10.24,8.93,17.83,10.1,3.74.8,7.72.13,11.04-1.77,6.25-3.7,11.22-6.56,18.68-4.18,3.28,1.01,6.82,1.56,10.19.63,2.51-.56,5.06-1.48,7.64-1.66,3.6.07,7.5.71,10.19,3.31,3.89,3.58,4.83,4.14,10.19,3.79,1.61.03,3.23.9,4.25,2.12,3.95,5.52,6.16,6.05,12.74,4.79"/><path class="b" d="M10.66,78.42c2.22-1.75,4.09-4.27,6.79-5.33,4.66-1.35,9.7-.64,14.44-.03,2.79.45,5.68.31,8.49.46,3.37.33,6.79.88,10.19.67,6.09-.14,12.33-.99,17.83-3.76,2.3-1.14,4.46-2.74,6.79-3.81,3.51-1.64,8.02-1.61,11.04,1.03,2.05,1.81,3.67,4.31,5.94,5.86,3.65,2.28,9.55,1.65,13.59.68,5.65-1.65,10.84-5.59,16.98-5,2.54.18,5.1.91,7.64,1.15,2.25.25,4.6-.1,6.79-.61,2.22-.45,4.52-1.09,6.79-1.16,2.57.13,5.26.62,7.64,1.59,2.37,1.04,4.35,3.01,6.79,3.89,2.17.77,4.56.11,6.79.09,6.2.2,5.79,7.63,16.13,6.31"/><path class="b" d="M10.66,76.41c1.96-1.78,3.66-4.1,5.94-5.5,4.75-2.56,10.32-1.13,15.29-.07,3.64.85,7.39-.42,11.04.15,8.87,1.52,15.43,1.49,23.78-2.19,2.89-1.01,5.58-2.69,8.49-3.64,3.01-.86,6.45-.91,9.34.39,2.98,1.5,4.72,4.79,7.64,6.39,2.07,1.06,4.56.73,6.79.66,2.23-.11,4.57-.18,6.79-.47,10.06-1.56,11.29-5.99,22.93-3.87,4.27.65,8.53-.49,12.74-1.03,2.25-.36,4.61-.04,6.79.54,1.7.4,3.51.97,5.09,1.7,2.37,1.14,4.94,2.37,7.64,2.09,2.23-.16,4.54-.91,6.79-.58,1.84.38,3.5,1.64,5.1,2.58,2.5,1.61,5.48,2.68,8.49,2.58"/><path class="b" d="M10.66,74.2c4.43-4.37,6.75-7.55,13.59-7.33,3.17.08,6.19,1.48,9.34,1.7,2.56.17,5.09-.84,7.64-.88,3.41.28,6.78,1.36,10.19,1.74,3.4.54,6.95.3,10.19-.89,4.21-1.54,8.44-3.21,12.74-4.48,3.57-.68,7.82-.79,11.04,1.12,2.3,1.57,4.14,4.06,6.79,5.08,2.19.71,4.58,0,6.79-.21,2.51-.31,5.12-.24,7.64-.34,4.18-.05,8.08-1.76,11.89-3.28,2.41-.91,5.11-.94,7.64-.67,2.79.3,5.69.61,8.49.31,3.64-.26,7.4-1.05,11.04-.44,3.15.62,6.25,1.75,9.34,2.57,2.18.59,4.58.67,6.79.2,2.22-.41,4.51-1.23,6.79-1.03,4.37.85,8.21,3.76,12.74,4.03"/><path class="b" d="M10.66,71.49c4.8-4.1,8.54-7.23,15.29-6.78,2.82.21,5.64,1.21,8.49,1.02,2.54-.16,5.08-1.15,7.64-.98,2.83.41,5.7,1.12,8.49,1.74,3.02.72,6.26,1.35,9.34.57,2.3-.55,4.54-1.61,6.79-2.3,2.52-.61,5.07-1.51,7.64-1.91,1.93-.27,4.01-.2,5.94-.02,1.41.12,3.01.35,4.25,1.09,2.53,1.46,4.62,4.09,7.64,4.55,2.29.2,4.56-.73,6.79-1.09,2.49-.48,5.12-.51,7.64-.45,2.87.08,5.84-.34,8.49-1.49,2.45-1.03,4.9-2.52,7.64-2.49,3.68-.04,7.35,1,11.04.85,4.51-.08,9.18-.85,13.59.44,4.11,1.2,8.45,2.45,12.74,1.42,3.11-.59,6.14-2.09,9.34-2.12,4.13.07,7.82,2.47,11.89,2.93"/><path class="b" d="M10.66,68.05c3.9-2.43,8.19-4.35,12.74-5.15,2.51-.43,5.13-.14,7.64.08,2.25.22,4.59-.1,6.79-.57,1.65-.27,3.41-.86,5.09-.7,2.56.29,5.19.79,7.64,1.59,3.52,1.21,7.31,2.48,11.04,1.46,2.52-.66,5.05-1.62,7.64-1.96,2.48-.58,5.08-1.11,7.64-1.03,2.24.13,4.76-.09,6.79,1.02,2.89,1.63,5.72,4.65,9.34,3.64,2.26-.58,4.51-1.55,6.79-2.04,2.76-.63,5.68-.65,8.49-.6,2.6.04,5.28-.44,7.64-1.54,2.14-1.01,4.33-2.38,6.79-2.25,3.71.1,7.31,1.56,11.04,1.56,4.23.09,8.59-.61,12.74.49,4.68,1.35,8.78,2.32,13.59.68,4.94-1.44,10.08-4.72,15.28-2.45,1.93.73,3.9,1.75,5.94,2.13"/><path class="b" d="M10.66,63.95c2.7-1.12,5.61-1.76,8.49-2.15,1.66-.35,3.42-.82,5.09-1.08,3.35-.57,6.83-.18,10.19-.66,2.05-.16,4.03-.97,5.94-1.66,1.33-.47,2.86-.5,4.25-.4,2.91.11,5.83.88,8.49,2.05,3.26,1.54,6.43,3.36,10.19,2.68,1.94-.3,3.98-.69,5.94-.84,1.94-.31,3.98-.73,5.94-.83,2.51.02,5.32-.55,7.64.62,2.63,1.38,5.28,3.9,8.49,3.03,3.96-1.24,7.68-3.52,11.89-3.93,3.64-.58,7.44.22,11.04-.67,2.91-.63,5.4-2.9,8.49-2.76,3.48.05,6.74,1.78,10.19,2.06,4.22.39,8.56-.7,12.74.3,4.83,1.3,8.67,2.31,13.59.4,5.17-1.73,10.59-5.92,16.13-3.19,1.96.89,3.86,2.25,5.94,2.87"/><path class="b" d="M10.66,59.2c2.78-.55,5.69-.2,8.49-.32,2.26-.2,4.55-.81,6.79-1.07,3.69-.5,7.66-.13,11.04-1.96,2.36-1.19,4.97-2.09,7.64-1.94,3.14.03,6.41.45,9.34,1.6,3.08,1.26,5.29,4.19,8.49,5.2,2.17.63,4.56.49,6.79.52,2.53-.21,5.11-.75,7.64-.94,1.06-.09,2.33-.3,3.4-.22.81.12,1.83.54,2.55.93,4.63,2.83,6.28,2.94,11.04.26,4.43-2.34,9.34-4.18,14.44-3.68,2.79.26,5.75.86,8.49-.04,3.69-1.64,6.05-2.65,10.19-1.51,1.93.52,3.94,1.24,5.94,1.45,1.94.21,4.01.01,5.94-.19,7.94-1.32,11.54,3.59,19.53.32,5.06-2.1,10.51-5.46,16.13-3.49,2.43.88,4.46,2.76,6.79,3.83"/><path class="b" d="M10.66,54.36c3.42-.73,6.8.56,10.19.78,1.96.08,4.01-.21,5.94-.49,1.97-.29,4.06-.6,5.94-1.28,7.1-3.08,7.75-2.83,15.28-2.14,5.12.14,7.07-1.98,11.04,2.72,2.1,2.47,4.33,5.31,7.64,6.09,3.92,1.3,8-.09,11.89-.83,4.02-.29,6.76,4.02,11.04,1.81,7.16-4.04,13.65-8.1,22.08-4.83,1.88.6,4.03.98,5.94.31,6.17-3.02,8.14-2.07,14.44-.84,3.69.56,7.36-.84,11.04-.82,4.39.36,8.22,2.5,12.74,1,2.63-.76,5.09-2.21,7.64-3.16,2.15-.77,4.53-1.12,6.79-1.26,4.76-.44,7.37,2.07,11.04,4.51"/><path class="b" d="M10.66,50.3c2.79-.68,5.71-.25,8.49.24,2.22.29,4.57.33,6.79.08,4.31-.24,8.41-2.86,12.74-2.17,1.43.32,2.87,1.1,4.25,1.57,2.42.74,5.22,1.72,7.64.48,5.01-3.13,6.06-5.94,10.19.43,2.33,3.89,5.25,8.4,10.19,8.88,2.31.19,4.61-.67,6.79-1.3,4.06-.65,6.82,3.27,11.04.73,19.98-13.63,21.15-.91,29.72-3.72,2.89-1.32,6.14-2.22,9.34-1.89,2.22.23,4.56.62,6.79.37,3.11-.26,6.19-1.55,9.34-1.31,2.82.31,5.62,1.42,8.49,1.23,3.94-.18,7.33-2.6,11.04-3.63,3.56-.83,7.41-1.34,11.04-.73,2.59.58,4.68,2.49,6.79,3.97"/><path class="b" d="M10.66,47.01c3.9-.94,7.94-.15,11.89-.32,3.96.03,7.93-1.1,11.89-.79,3.09.3,5.28,2.86,7.64,4.59,2.22,1.33,4.98,3.13,7.64,2.13,3.73-1.64,4.94-7.64,8.49-8.76,3.46.35,5.84,10.59,10.19,13.21,1.92,1.42,4.49,1.98,6.79,1.26,1.06-.32,2.28-.78,3.4-.79,1.7-.01,3.43.64,5.09.91,2.92.54,5.43-1.45,7.64-3.06,1.54-1.11,3.35-2.08,5.09-2.83,12.42-5.63,15.31,4.27,22.93,1.49,2.46-.77,5.06-1.47,7.64-1.69,2.51-.19,5.14.03,7.64-.35,2.82-.38,5.63-1.4,8.49-1.45,2.25.04,4.55.65,6.79.77,2.6.17,5.24-.51,7.64-1.45,4.01-1.74,8.39-2.44,12.74-2.59,4.97-.5,7.23.47,11.04,3.64"/><path class="b" d="M10.66,44.72c3.93-.46,7.96-.29,11.89-.88,3.91-.26,8.25-1.12,11.89.73,3.08,1.75,5.09,4.93,7.64,7.3,3.15,2.59,7.05,5.34,10.19,1.1,2.5-2.71,4.67-10.88,7.64-11.69,4.18,1.23,5.41,13.77,12.74,15.65,1.39.35,2.9-.05,4.25-.39,1.06-.2,2.33-.21,3.4-.08,7.78,1.56,9-2.48,15.28-5.41,5.78-2.93,9.42-2.71,15.28-.26,2.14.85,4.44,1.85,6.79,1.71,2.52-.36,5.12-.86,7.64-1.25,3.35-.61,6.85-.74,10.19-1.4,2.23-.43,4.53-1.06,6.79-1.22,1.65-.08,3.44.12,5.09.19,4.07.34,8.03-.96,11.89-2.06,2.74-.75,5.65-1.13,8.49-1.23,5.71-.14,8.78-1.51,13.59,2.71"/><path class="b" d="M10.66,43.14c2.8-.04,5.71.17,8.49-.27,4.42-.8,9.39-2.23,13.59.12,3.93,2.41,6.16,6.77,9.34,9.98,2.75,2.57,6.87,5.82,10.19,2.22,2.39-2.57,3.76-6.21,5.1-9.39,1.07-2.09,1.82-5.77,4.25-6.62,3.34,1.01,5.42,12.33,11.04,15.35,1.82,1.05,3.98.36,5.94.34,1.95-.05,4,.27,5.94.08,3.88-.38,6.87-3.27,10.19-5.01,5.11-2.98,8.71-4,14.44-1.97,3.54,1.18,7.27,2.16,11.04,1.79,6.59-.04,13.09-1.45,19.53-2.72,3.63-.63,7.41-.09,11.04-.79,3.39-.57,6.78-1.53,10.19-2.01,3.07-.47,6.25-.44,9.34-.54,4.36-.32,7.26-1.3,11.04,1.8"/><path class="b" d="M10.66,41.84c2.8.23,5.71.56,8.49.02,4.14-.86,8.84-2.43,12.74.05,4.31,2.86,6.58,7.89,10.19,11.47,3.5,3.41,8.09,5.69,11.89,1.3,2.44-2.81,3.79-6.71,5.1-10.14,1.03-2.15,1.79-6.3,4.25-7.15,1.72.58,2.54,2.92,3.4,4.36,1.92,3.52,3.62,7.65,6.79,10.24,1.45,1.05,3.39,1.05,5.09,1.09,1.66.03,3.44.12,5.09.06,4.44-.11,8.17-2.88,11.89-4.99,5.36-3.33,8.24-4.18,14.44-2.57,5.26,1.27,10.73,1.82,16.13,1.74,4.29-.23,8.56-1.03,12.74-1.96,3.05-.65,6.27-.52,9.34-1.04,5.33-.94,10.7-2.03,16.13-2.11,2.52-.11,5.14.03,7.64-.29,3.29-.54,6.37-1.21,9.34.86"/><path class="b" d="M10.66,40.48c2.5.32,5.13.66,7.64.26,3.08-.49,6.18-1.72,9.34-1.35,6.7,1.02,9.22,8.48,13.59,12.75,4.08,4.37,11.44,5.55,15.28.26,3.32-3.64,5.21-15.7,8.49-16.65,3.27,1.11,6.01,10.56,9.34,13.33,2.05,1.85,5.02,1.99,7.64,2.06,5.23.34,10.12-1.91,14.44-4.65,6.32-4.18,8.71-4.58,16.13-3.39,6.47.84,12.96,2.45,19.53,1.92,2.85-.3,5.68-1.21,8.49-1.73,2.8-.47,5.7-.77,8.49-1.31,6.71-1.22,13.59-1.14,20.38-1.47,3.95-.05,8.04-1.99,11.89-.38"/><path class="b" d="M10.66,38.85c2.22.27,4.56.52,6.79.23,3.89-.57,8.02-2.49,11.89-.81,6.07,2.8,7.79,10.6,13.59,13.72,3.69,1.61,8,1.44,11.89.76,7.33-1.62,7.03-15.8,11.89-18.51,3.47.46,5.99,10.03,9.34,12.55,2.54,2.17,6.16,2.24,9.34,2.09,4.59-.18,8.98-1.97,12.74-4.54,5.83-3.96,9.22-4.49,16.13-3.74,2.84.25,5.73.76,8.49,1.49,3.3.84,6.75,1.88,10.19,1.4,4.28-.78,8.42-2.41,12.74-3.04,5.3-1.13,10.77-.63,16.13-.95,3.66-.33,7.39-.57,11.04-.95,2.81-.33,5.65-1.17,8.49-1.1"/><path class="b" d="M10.66,36.73c2.23.16,4.58.26,6.79-.12,2.52-.46,5.06-1.38,7.64-1.4,8.2-.07,10.04,9.95,16.13,13.47,3.49,1.31,7.4.33,11.04.64,2.5-.01,5.52,1.05,7.64-.75,4.95-4.53,6.22-25.33,13.59-9.98,1.58,2.89,3.43,6.28,6.79,7.3,3.55,1.04,7.44.69,11.04.11,4.39-.7,7.91-3.69,11.89-5.42,4.84-2.16,10.23-.93,15.28-.4,11.1,1.69,10.38,4.04,22.08-.43,3.25-1.13,6.73-1.91,10.19-1.68,2.52.14,5.12.48,7.64.38,2.83-.08,5.69-.72,8.49-1.11,2.79-.36,5.73-.14,8.49-.78,2.04-.44,3.99-1.53,5.94-2.22"/><path class="b" d="M10.66,34.1c1.95-.02,4.02-.07,5.94-.41,1.67-.31,3.42-.87,5.1-1.18,7.23-1.63,10.75,4.09,14.44,9.14,1.61,2.12,3.87,4.48,6.79,3.97,2.51-.29,5.11-.73,7.64-.68,1.66.03,3.46.18,5.1.51,1.37.27,2.85.85,4.25,1.01,5.03.3,5.81-13.73,11.04-14.75,3.23,1.08,4.9,8.44,8.49,10.57,2.72,1.83,6.18,1.81,9.34,1.78,1.96-.04,4.04-.22,5.94-.73,2.02-.53,4.01-1.47,5.94-2.24,5.27-2.31,9.17-.58,14.44-.06,3.1.16,6.24-.59,9.34-.27,5.73.64,9.1.21,14.44-2.02,9.75-4.15,9.78-1.38,18.68-1.32,4.28-.31,8.39-2.18,12.74-1.92,5,.29,6.84-2.08,11.04-3.83"/><path class="b" d="M10.66,31.42c1.66-.14,3.46-.32,5.1-.68,1.68-.36,3.42-1.06,5.1-1.43,7.69-2.02,11.25,5.07,15.28,10.1,1.41,1.77,3.56,3.4,5.94,2.71,2.21-.52,4.51-1.18,6.79-1.29,2.81-.06,5.74.05,8.49.62,1.44.35,2.87,1.2,4.25,1.71,2.85.84,3.97-3.09,5.09-4.97,1.19-2.06,3.58-7.49,5.94-7.9,1.1.22,1.95,1.53,2.55,2.39,1.51,2.27,2.8,5.11,5.1,6.72,3.78,2.55,9.2,2.26,13.59,1.97,3.41-.34,6.73-1.72,10.19-1.64,3.4.07,6.77,1.39,10.19.9,2.87-.4,5.59-1.76,8.49-2.01,2.52-.28,5.12.22,7.64.27,4.46.11,8.58-1.94,12.74-3.26,4.77-1.75,9.6,1.43,14.44.49,2.57-.39,5.08-1.43,7.64-1.88,2.21-.45,4.57-.23,6.79-.51,3.35-.68,6.14-3.02,9.34-4.09"/><path class="b" d="M10.66,29.34c3.27-.34,6.38-1.5,9.34-2.87,7.44-3.5,11.38,4.98,15.28,9.72,3.66,4.72,5.48,2.61,10.19,1.34,2.75-.78,5.68-.37,8.49-.28,4.66-.09,5.42-.07,9.34,2.57,3.88,2.04,7.12-9.58,10.19-11.08l.85-.04c2.59,1.71,3.58,5.21,5.94,7.19,4.76,3.83,12.07,3.25,17.83,2.82,9.92-.87,10.05,2.24,20.38-2.67,7.81-3.19,12.35,2.24,20.38-.47,2.75-.74,5.6-1.87,8.49-1.47,2.51.34,5.09,1.05,7.64.83,2.9-.18,5.68-1.36,8.49-1.99,2.2-.46,4.57-.51,6.79-.79,3.92-.55,7.26-3.02,11.04-4.02"/><path class="b" d="M10.66,28.01c4.69-.51,6.52-2.04,10.19-4.6,3-2.03,5.59-.87,7.64,1.77,1.75,2.19,3.42,4.72,5.1,6.96,4.95,6.71,5.68,2.88,11.89,1.55,2.79-.59,5.68.2,8.49.19,2.52.05,5.34-1.23,7.64.3,2.64,1.83,3.79,4.27,6.79,1.12,2.29-1.99,3.99-8.59,6.79-8.73,1.46.58,2.46,2.28,3.4,3.46,1.93,2.9,5.14,4.73,8.49,5.49,4.99,1.14,10.19,1.18,15.28,1.09,2.25-.02,4.61-.16,6.79-.72,2.29-.58,4.58-1.54,6.79-2.37,3.74-1.5,7.9-2.7,11.89-1.42,2.25.58,4.49,1.61,6.79,2,3.98.53,7.91-1.17,11.89-.96,2.8.21,5.69.64,8.49.17,2.86-.41,5.64-1.54,8.49-2,3.09-.48,6.32-.7,9.34-1.56,2.84-.85,5.55-2.39,8.49-2.88"/><path class="b" d="M10.66,26.65c8.18-.1,8-5.45,13.59-7.13,3.52-.06,5.6,6.18,7.64,8.6,1.78,2.39,4.25,6.52,7.64,4.14,1.28-.79,2.75-1.64,4.25-1.89,3.38-.81,6.8.59,10.19.46,2.01-.04,3.96-1.03,5.94-1.19,3.3-.19,4.57,4.79,7.64,3.78,3.88-1.36,4.99-9.27,8.49-9.51,2.15.89,3.38,3.31,5.1,4.78,3.35,2.76,7.7,3.96,11.89,4.76,8.7,1.93,13.22-1.06,21.23-2.1,2.6-.2,5.16-.96,7.64-1.7,2.19-.62,4.62-.62,6.79.1,1.72.53,3.45,1.42,5.1,2.14,2.93,1.21,6.26.9,9.34.6,4.52-.46,9.17-.07,13.59-1.34,4.71-1.34,9.61-1.91,14.44-2.62,3.45-.64,6.69-2.38,10.19-2.8"/><path class="b" d="M10.66,24.98c2.33.18,4.93-.01,6.79-1.56,2.45-1.75,6.04-8.09,9.34-5.13,2.67,3.08,3.97,7.36,6.79,10.37,2.03,2.3,3.78,1.77,5.94.04,4.44-3.74,9.48-.38,14.44-.76,2.61-.09,5.01-2.51,7.64-1.63,2.71,1.27,4.2,5.97,7.64,3.16,1.78-1.61,2.96-4.09,4.25-6.09,1.37-2.07,2.77-3.6,5.09-1.63,1.43,1.15,2.78,2.72,4.25,3.82,1.81,1.26,3.89,2.33,5.94,3.12,3.5,1.29,7.25,2.56,11.04,2.15,3.11-.29,6.19-1.44,9.34-1.35,2.55.04,5.08,1.07,7.64,1,1.77-.09,3.49-.97,5.1-1.64,3.03-1.44,6.45-1.22,9.34.47,4.5,2.96,7.45,3.27,12.74,2.51,4.86-.62,9.68-1.74,14.44-2.91,4.16-1.06,8.5-1.36,12.74-1.9,3.43-.54,6.74-1.95,10.19-2.35"/><path class="b" d="M10.66,23.17c2.62.49,5.68.52,7.64-1.56,2.19-1.65,5.43-7.15,8.49-4.9,3.3,2.41,5.67,14.27,11.04,10.06,2-1.75,3.95-3.42,6.79-3.11,2.28.11,4.53.98,6.79,1.24,6.83.79,7.87-6.26,13.59,1.32,2.15,2.32,4.49.46,5.94-1.56,3.67-5.04,4.55-9.71,11.04-4.24,4.04,3.55,9.14,6.05,14.44,6.99,3.08.47,6.27-.27,9.34.2,4.24.59,8.38,3.8,12.74,2.2,1.4-.53,2.86-1.36,4.25-1.92,7.12-2.87,9.13,3.31,15.28,3.92,7.12.49,13.54-3.47,20.38-4.81,4.15-1.05,8.5-1.02,12.74-1.43,3.41-.4,6.77-1.52,10.19-1.9"/><path class="b" d="M10.66,21.48c1.9.45,4.03.96,5.94.33,3.5-1.16,7.27-9.02,11.04-5.41,2.97,2.52,5.18,12.65,10.19,7.7,4.49-4.93,6.84-3.93,12.74-2.72,2.34.44,4.72-.3,6.79-1.35,4.45-2.35,5.6,2.21,8.49,4.36,4.31,2.01,6.69-6.41,10.19-7.88,1.66-.69,3.55.08,5.09.74,3.29,1.43,5.98,4.06,9.34,5.37,2.95,1.33,6.21,1.94,9.34,2.67,2.57.66,5.18,1.54,7.64,2.51,2.66,1.07,5.58,2.17,8.49,1.69,4.49-.94,7.74-4.35,12.74-2.3,1.48.63,2.9,1.76,4.25,2.63,2.96,2.1,6.82,2.14,10.19,1.09,5.49-1.72,10.36-5.27,16.13-6.16,3.89-.84,7.95-.37,11.89-.63,3.41-.24,6.79-1.15,10.19-1.47"/><path class="b" d="M10.66,19.96c2.13.66,4.6,1.62,6.79.7,1.52-.82,2.96-2.1,4.25-3.23,1.56-1.39,3.89-3.32,5.94-1.73,2.32,1.96,3.65,5.05,5.94,7.05,4.59,3.14,5.59-7.06,14.44-5.58,1.93.26,4.01.6,5.94.2,1.93-.33,3.97-1.56,5.94-.87,1.84.84,2.99,2.88,4.25,4.37,3.25,4.16,6.18-.47,8.49-2.98,2.27-2.63,4.48-2.78,7.64-1.75,1.7.51,3.52,1.15,5.09,1.97,1.96,1.01,3.88,2.38,5.94,3.18,3.44,1.14,6.96,2.27,10.19,3.96,4.18,2.01,8.85,4.38,13.59,3.02,4.35-1.42,8.08-3.77,12.74-1.63,2.35,1.11,4.35,3.04,6.79,3.98,3.35,1.36,7.13.23,10.19-1.38,8.17-4.89,11.93-7.9,22.08-6.84,4.85.6,9.66-.58,14.44-1.22"/><path class="b" d="M10.66,18.4c2.11.79,4.5,2.01,6.79,1.35,3.59-1.27,6.93-7.27,11.04-4.17,2.47,1.79,4.27,5.65,7.64,5.67,2.12-.38,3.58-2.37,5.1-3.73,4.81-4.36,7.74-3.58,13.59-4.06,1.73-.22,3.7-.12,5.09,1.06,2.37,1.68,4.15,6.95,7.64,5.74,1.97-1.05,3.36-3.09,5.09-4.44,2.19-1.85,5.19-.98,7.64-.19,3.51,1.02,6.99,2.36,10.19,4.13,1.58.83,3.46,1.25,5.1,1.95,2.03.88,4.03,2.08,5.94,3.17,3.52,2.1,7.84,3.65,11.89,2.19,8.24-3.44,10.21-3.87,17.83,1.37,9.05,5.95,14.71-2.77,22.08-6.68,3.34-1.87,7.32-2.13,11.04-1.52,2.78.46,5.68.65,8.49.4,2.8-.2,5.67-.8,8.49-.57"/><path class="b" d="M10.66,16.34c1.87.78,3.88,1.74,5.94,1.76,5.14-.83,7.98-7.65,13.59-2.83,2.24,1.75,4.52,4.57,7.64,4.32,1.58-.25,3.01-1.35,4.25-2.29,4.05-3.02,7.21-6.48,12.74-5.98,5.9-.02,8.09,9.35,12.74,6.47,2.67-2.01,4.66-5.16,8.49-4.34,5.55,1.35,10.92,3.56,16.13,5.88,3.7,1.13,6.83,3.56,10.19,5.41,3.06,1.72,6.87,2.58,10.19,1.07,2.47-1.02,4.93-2.55,7.64-2.78,4.85-.23,8.49,3.68,12.74,5.37,12.69,5.18,15.87-14.58,30.57-10.18,2.74.81,5.64,1.14,8.49.96,3.09-.1,6.29-.71,9.34.07"/><path class="b" d="M10.66,13.61c2.12.82,4.46,1.92,6.79,1.53,3.67-.98,7.01-4.38,11.04-3.25,3.31.95,5.56,3.9,8.49,5.53,6.71,3.92,10.34-4.55,16.13-5.95,2.44-.61,4.9.52,6.79,1.99,5.77,4.64,6.01,2.65,11.04-1.1,2.64-1.6,5.79-.59,8.49.3,5.27,1.5,10.32,3.82,15.28,6.11,2.59,1.45,5.01,3.38,7.64,4.75,2.81,1.54,6.29,2.36,9.34,1.01,2.25-.9,4.41-2.35,6.79-2.89,2.67-.54,5.34.66,7.64,1.9,2.45,1.32,4.97,2.77,7.64,3.6,12,3.88,14.88-14.52,27.17-11.55,2.54.57,5.01,1.87,7.64,2.02,4.24.26,8.6-1.09,12.74.28"/><path class="b" d="M10.66,10.52c1.89.65,3.92,1.37,5.94,1.4,5.77-.44,11.37-5.85,16.98-1.87,4.51,3.2,8.23,8.91,14.44,5.47,5.32-3.38,7.38-5.1,13.59-2.18,1.63.72,3.6.78,5.09-.28,6.02-4.95,7.24-3.98,14.44-2.49,6.02,1.99,11.85,4.86,16.98,8.59,14.68,10.51,15.07-1.79,24.63,1.3,3.7,1.46,7.16,3.68,11.04,4.71,13.74,4.29,14.44-16.63,28.87-11,8.46,3.87,11.2-.49,18.68,1.61"/></svg>