<?xml version="1.0" encoding="UTF-8"?><svg id="a" xmlns="http://www.w3.org/2000/svg" width="1920" height="2400" viewBox="0 0 192 240"><defs><style>.b{fill:none;stroke:#fff;stroke-miterlimit:10;stroke-width:.3px;}.c{stroke-width:0px;}</style></defs><rect class="c" x="0" width="192" height="240"/><path class="b" d="M12.02,220.59c4.79,2.19,9.01,5.8,14.21,7.04,3.27.81,6.71.35,10.03.65,2.76.21,5.59.51,8.36.46,2.77-.12,5.6-.51,8.36-.74,2.79-.51,5.64.06,8.36.67,2.72.58,5.57.98,8.36.83,3.34-.17,6.67-1,10.03-.95,3.88-.06,7.9.77,11.7-.34,5.59-1.96,11.38-3.5,16.71-6.13,5.25-2.43,10.69-5.79,16.71-4.58,6.04,1.25,12.28,1.56,18.38.62,3.94-.59,7.96-1.21,11.7-2.63,3.9-1.46,7.7-3.36,11.7-4.56,4.42-1.08,8.97-1.85,13.37-3.05"/><path class="b" d="M12.02,216.25c4.17,2.1,8.04,4.96,12.53,6.38,2.7.93,5.59,1.42,8.36,2.07,2.24.53,4.45,1.49,6.69,2.02,5.6,1.69,10.37-1.05,15.88-1.15,3.39.15,6.68,1.4,10.03,1.83,4.18.73,8.39-.18,12.53-.71,3.59-.47,7.27,0,10.86-.38,2.29-.22,4.49-1.21,6.69-1.84,3.38-1.01,6.8-2.14,10.03-3.58,8.55-3.82,12.69-6.87,22.56-6.18,3.88.02,7.82-.15,11.7-.14,4.18-.02,8.43-.04,12.53-.92,4.88-.96,9.52-2.97,14.21-4.59,4.43-1.29,8.96-2.4,13.37-3.76"/><path class="b" d="M12.02,212.79c2.81,1.38,5.4,3.35,8.36,4.45,3.51,1.42,7.31,2.14,10.86,3.43,4.68,1.65,8.9,5.74,14.21,4.77,5.61-1.38,8.09-3.3,14.21-1.71,8.95,2.19,11.36,1.47,20.06.07,3.31-.45,6.73-.09,10.03-.59,5.7-1.34,11.37-3.2,16.71-5.62,4.3-2.01,8.68-4.1,13.37-5.01,3.84-.75,7.84-.84,11.7-1.46,4.68-.74,9.48-.84,14.21-.65,3.33.07,6.72-.27,10.03-.64,4.29-.54,8.45-1.91,12.53-3.29,3.84-1.15,7.81-2.1,11.7-3.06"/><path class="b" d="M12.02,209.69c2.54,1.13,4.86,2.92,7.52,3.79,2.97,1.04,6.18,1.49,9.19,2.39,1.7.51,3.48,1.25,5.01,2.14,1.94,1.18,3.81,2.71,5.85,3.71,2.56,1.37,5.65,1.64,8.36.56,1.89-.61,3.87-1.35,5.85-1.58,4.76-.29,9.44,1.44,14.21,1.27,4.23.07,8.36-1.19,12.53-1.63,3.31-.37,6.73.09,10.03-.49,4.29-.99,8.53-2.48,12.53-4.3,4.1-1.86,8.09-4.24,12.53-5.2,4.37-1.06,8.96-.82,13.37-1.64,4.17-.81,8.28-2.18,12.53-2.49,3.31-.24,6.71-.16,10.03-.17,2.76.13,5.6.35,8.36.18,3.43-.06,6.75-1.23,10.03-2.12,3.28-.84,6.7-1.31,10.03-1.87"/><path class="b" d="M12.02,206.81c3.03,1.28,5.88,3.21,9.19,3.72,6.5,1.1,10.5,1.4,15.88,5.67,2.66,1.85,5.84,3.56,9.19,3.14,2.49-.38,4.99-1.24,7.52-1.39,4.17-.06,8.35.95,12.53.68,6.45-.2,12.74-2.43,19.22-1.91,5.89.47,11.52-1.84,16.71-4.38,4.28-2.11,8.52-4.78,13.37-5.3,4.98-.65,10.13.48,15.04-.86,3.4-.91,6.65-2.5,10.03-3.49,2.68-.82,5.56-1.19,8.36-1.17,3.4-.03,6.71,1.19,10.03,1.74,1.89.35,3.93.56,5.85.31,1.94-.22,3.93-.86,5.85-1.21,3.01-.55,6.15-.76,9.19-1.12"/><path class="b" d="M12.02,204.17c2.47.94,4.88,2.35,7.52,2.78,4.45.77,9.22.46,13.37,2.51,3.98,2.14,7.75,5.47,12.53,5.38,2.77-.11,5.57-.93,8.36-.75,3.32.3,6.68,1.05,10.03.96,7-.15,13.88-2.26,20.89-2.11,8.7.78,14.95-2.9,22.56-6.3,3.39-1.52,7.16-2.16,10.86-2.13,4.73.04,9.66.7,14.21-.96,3.45-1.27,6.62-3.32,10.03-4.69,11.42-4.97,15.77,5.23,26.74,2.17,3.56-.72,7.26-.75,10.86-1.04"/><path class="b" d="M12.02,200.96c2.18.73,4.39,1.75,6.69,2.07,4.15.58,8.49.03,12.53,1.3,2.68.74,4.95,2.58,7.52,3.56,2.09.83,4.43,1.29,6.69,1.22,2.48-.15,5.04-.64,7.52-.31,3.33.55,6.62,1.74,10.03,1.83,2.78.14,5.6-.32,8.36-.6,2.77-.16,5.6-.48,8.36-.84,3.87-.49,7.83-.05,11.7-.46,4.94-.55,9.54-2.7,14.21-4.29,3.73-1.38,7.76-1.72,11.7-1.91,5.57-.3,11.47.24,16.71-2,3.13-1.36,6.07-3.31,9.19-4.69,4.04-1.88,7.68-1.8,11.7.14,4.84,2.15,8.76,4.05,14.21,2.62,3.57-.63,7.26-.54,10.86-.73"/><path class="b" d="M12.02,197.27c2.18.54,4.43,1.31,6.69,1.44,3.32.22,6.72-.23,10.03.15,1.98.21,4.04.76,5.85,1.6,2.05,1.08,4.37,1.85,6.69,2.08,3.6.5,7.27-.63,10.86-.03,2.27.39,4.47,1.44,6.69,2.06,3.77,1.22,7.8,1.04,11.7.68,1.63-.12,3.39,0,5.01-.1,2.48-.16,5.03-.51,7.52-.59,4.45-.12,9,.26,13.37-.79,3.89-.85,7.74-2.18,11.7-2.74,2.18-.32,4.49-.2,6.68-.4,3.61-.3,7.27-.65,10.86-1.11,3.07-.48,6.3-.67,9.19-1.91,3.93-1.53,7.57-3.97,11.7-4.98,5.49-1.4,10.53,2.3,15.88,2.9,2.78.4,5.6-.36,8.36-.59,3.04-.24,6.15,0,9.19.03"/><path class="b" d="M12.02,193.83c2.2.25,4.46.81,6.69.75,3.61-.08,7.24-.94,10.86-.74,2.91,0,5.58,1.35,8.36,2,3.28.67,6.71.41,10.03.24,3.85-.28,7.34,1.52,10.86,2.75,4.3,1.6,8.91.95,13.37.86,3.88.3,7.81-.28,11.7-.18,4.44.14,8.97.77,13.37-.12,3.59-.62,7.21-1.57,10.86-1.77,1.91-.13,3.93.15,5.85.11,3.05-.05,6.16-.43,9.19-.78,3.89-.63,7.94-.88,11.7-2.09,4.48-1.43,8.66-4.01,13.37-4.69,4.48-.52,8.89,1.25,13.37,1.29,2.78.15,5.59-.53,8.36-.6,3.36-.05,6.73.71,10.03,1.24"/><path class="b" d="M12.02,191.42c2.48-.09,5.07.28,7.52-.24,3.9-.75,7.7-2.35,11.7-2.54,2.81-.18,5.57.85,8.36.96,3.6.31,7.31.2,10.86.95,3.97.85,7.61,3.1,11.7,3.47,2.77.33,5.6-.13,8.36-.36,3.04-.09,6.15.15,9.19-.03,4.48-.17,8.92.85,13.37,1.14,4.18.19,8.37-.56,12.53-.78,3.06-.26,6.15.29,9.19.46,4.73.19,9.52.07,14.21-.63,3.13-.35,6.25-1.17,9.19-2.29,3.31-1.21,6.57-2.8,10.03-3.57,2.44-.55,5.04-.56,7.52-.65,3.32-.11,6.71-.23,10.03-.43,4.92-.45,9.58,1.54,14.21,2.88"/><path class="b" d="M12.02,189.82c1.91-.3,3.96-.38,5.85-.77,1.69-.39,3.43-1.06,5.01-1.74,3.5-1.48,7.03-3.31,10.86-3.7,1.63-.11,3.39-.04,5.01-.1,3.65-.1,7.38.31,10.86,1.46,3.88,1.21,7.61,3.24,11.7,3.65,3.36.39,6.71-.57,10.03-.86,3.74.07,7.26-.15,10.86-.07,3.08.15,6.16.9,9.19,1.44,6.06,1.11,12.27,1.09,18.38,1.69,7.74,1.08,15.69,1.98,23.4.2,4.97-.88,9.57-3.1,14.21-4.97,5.37-1.82,10.95-3.94,16.71-3.43,5.69.26,10.59,3.53,15.88,5.25"/><path class="b" d="M12.02,188.28c2.52-.47,5.14-.95,7.52-1.92,3.43-1.37,6.67-3.28,10.03-4.81,2.36-1.13,4.95-1.86,7.52-2.33,2.99-.68,6.19-1,9.19-.21,6.77,1.97,12.63,6.19,20.06,4.59,1.63-.27,3.37-.68,5.01-.85,1.34-.14,2.84,0,4.18-.08,2.48-.13,5.04-.38,7.52-.16,4.24.47,8.38,1.83,12.53,2.74,7.66,1.95,15.59,2.58,23.4,3.64,4.15.53,8.41.56,12.54-.24,2.8-.39,5.69-.84,8.36-1.79,4.92-1.85,9.53-4.56,14.21-6.94,10.3-5.81,16.81,3.36,25.9,6.45"/><path class="b" d="M12.02,186.21c5.59-.95,10.77-3.57,15.88-5.92,4.33-2.01,8.78-3.98,13.37-5.28,3.41-.9,6.9.19,10.03,1.56,2.69,1.11,5.51,2.19,8.36,2.83,3.6.84,7.3.02,10.86-.61,1.33-.22,2.83-.2,4.18-.24,1.63-.09,3.38-.29,5.01-.36,3.12-.2,6.24.52,9.19,1.45,4.42,1.29,8.84,2.82,13.37,3.66,5.69.84,11.81,1.45,17.55,2.06,3.88.4,7.85.32,11.7-.31,2.78-.26,5.68-.43,8.36-1.29,5.51-1.82,10.18-5.52,15.04-8.56,3.68-2.29,7.3-2.07,10.86.37,4.89,2.84,8.83,7.34,14.21,9.31"/><path class="b" d="M12.02,183.11c2.58-.29,5.06-1.37,7.52-2.15,3.92-1.28,7.88-2.59,11.7-4.15,4.03-1.42,7.65-3.93,11.7-5.09,3.09-.84,6.29.18,9.19,1.23,3.01,1,6.05,2.23,9.19,2.71,3.92.67,7.81-.65,11.7-.83,8.32-.49,9.49-.95,17.55,2.19,2.96,1.05,6.07,1.98,9.19,2.41,2.74.39,5.59.37,8.36.44,3.89.19,7.8.89,11.7,1.02,3.88.27,7.83.16,11.7-.2,2.48-.07,5.07.07,7.52-.41,6.06-1.18,10.87-5.43,15.88-8.75,3.77-2.46,7.32-2.09,10.86.62,5.01,3.17,8.79,8.14,14.21,10.67"/><path class="b" d="M12.02,179.23c2.57-.26,5.03-1.36,7.52-1.98,3.58-.95,7.3-1.62,10.86-2.66,4.45-1.08,8.29-3.73,12.53-5.33,5.21-1.85,10.69.3,15.88,1.19,4.13.86,8.37.39,12.53.15,3.61,0,7.32-.03,10.86.73,2.28.5,4.5,1.51,6.69,2.3,6.69,2.85,11.46,2.05,18.38,1.81,3.92.01,7.78,1.2,11.7,1.34,3.87.29,7.82.24,11.7.11,2.76,0,5.61.33,8.36-.1,5.61-.83,10.25-4.44,15.04-7.2,4.03-2.36,7.86-2.17,11.7.51,1.64,1.08,3.49,2.14,5.01,3.39,2.94,2.37,5.79,5.09,9.19,6.8"/><path class="b" d="M12.02,175.42c3.13-.36,6.12-1.66,9.19-2.28,4.14-.98,8.45-1.47,12.53-2.68,3.39-1.06,6.64-2.71,10.03-3.77,2.68-.85,5.57-1.16,8.36-1.33,8.08-.01,16.29-.63,24.23,1.18,6.78,1.27,13.02,5.38,20.06,5.16,3.88-.2,7.82-.93,11.7-.33,3.09.48,6.09,1.69,9.19,2.15,5.79.96,11.72.4,17.55.79,5.34.23,10.38-1.9,15.04-4.28,4.36-2.26,9.54-3.62,14.21-1.43,2.2,1.02,4.57,1.95,6.69,3.15,3.06,1.83,5.97,4.08,9.19,5.64"/><path class="b" d="M12.02,172.01c4.3-.55,8.36-2.34,12.53-3.43,6.1-1.54,12.27-2.91,18.38-4.39,4.46-1.05,8.9-2.4,13.37-3.41,2.97-.85,6.07-1.75,9.19-1.49,2.86.18,5.61,1.28,8.36,2.02,3.11,1.01,6.1,2.53,9.19,3.58,3.18,1.27,6.64,1.71,10.03,2.02,2.49.11,5.04-.45,7.52-.51,5.39-.35,10.14,2.58,15.04,4.33,3.72,1.37,7.77,1.57,11.7,1.51,2.2-.03,4.49.27,6.69.29,3.08.05,6.23-.4,9.19-1.26,2.81-.77,5.54-2.04,8.36-2.78,5.24-1.39,10.73-.53,15.88.82,4.48.69,8.45,3.1,12.54,4.91"/><path class="b" d="M12.02,168.81c5.37-.5,10.09-3.3,15.04-5.17,2.96-1.09,6.09-1.92,9.19-2.46,2.19-.28,4.5-.23,6.69-.49,3.49-.33,6.85-1.52,10.03-2.95,3.14-1.03,5.97-3.01,9.19-3.79,3.16-.8,6.38.36,9.19,1.77,2.24.96,4.55,2,6.69,3.18,2.84,1.46,5.98,2.63,9.19,2.81,1.91.05,3.94-.12,5.85,0,1.64-.02,3.38-.32,5.01-.41,3.22-.27,6.44.74,9.19,2.37,4.94,2.87,10,6.28,15.88,6.56,2.76.16,5.61,0,8.36.4,4.17.41,8.43.1,12.53-.71,2.78-.49,5.54-1.5,8.36-1.74,4.99-.31,10.04-.2,15.04-.32,4.36-.32,8.58,1.23,12.54,2.88"/><path class="b" d="M12.02,165.3c1.95-.21,4-.58,5.85-1.24,2.58-.98,5.05-2.42,7.52-3.63,3.41-1.69,7.09-3.06,10.86-3.62,1.63-.16,3.38-.06,5.01-.07,3.76.07,7.52-.89,10.86-2.59,7.1-2.9,10.53-7.49,18.38-2.85,1.59.92,3.41,1.7,5.01,2.59,3.54,2.07,7.51,3.84,11.7,3.6,1.34-.07,2.83-.3,4.18-.35,1.63.08,3.39-.03,5.01-.21,3.51-.45,7.09.48,10.03,2.43,4.21,2.73,8.43,5.86,13.37,7.12,2.71.68,5.59.57,8.36.7,4.99.55,9.99,1.67,15.04,1.49,2.5,0,5.06-.44,7.52-.85,2.19-.27,4.5-.37,6.69-.67,9.67-1.36,12.65-4.19,22.56.16"/><path class="b" d="M12.02,162.15c5.01-.35,8.4-2.43,12.53-4.99,5.31-3.27,10.42-5.1,16.71-4.88,4.09-.07,8.05-1.35,11.7-3.12,2.79-1.04,5.44-2.72,8.36-3.4,3.57-.88,7.05.86,10.03,2.67,2.46,1.3,4.99,2.67,7.52,3.82,3.7,1.69,7.78,1.5,11.7.88,1.05-.1,2.29.05,3.34.02,2.19-.08,4.5-.33,6.69.05,3.4.56,6.35,2.58,9.19,4.39,2.11,1.27,4.39,2.49,6.69,3.4,3.96,1.67,8.35,1.39,12.54,1.8,4.29.67,8.37,2.4,12.53,3.56,5.19,1.73,10.84,1.01,15.88-.91,3.08-1.17,6.03-2.87,9.19-3.81,4.57-1.54,9.24.57,13.37,2.45"/><path class="b" d="M12.02,159.15c1.95-.32,4.03-.74,5.85-1.51,1.73-.8,3.43-1.95,5.01-3,6.22-4.37,10.82-6.09,18.38-6.62,7.06-.67,13.14-4.94,20.06-6.13,3.6-.48,7,1.21,10.03,2.95,3.51,1.71,6.98,3.89,10.86,4.61,3.32.74,6.7-.32,10.03-.15,9.47.27,10.03.43,18.38,5.02,3.42,1.63,7.08,3,10.86,3.44,4.51.47,9.17.6,13.37,2.52,4.72,1.78,9.05,5.14,14.21,5.46,5.79.08,10.24-4.25,15.04-6.84,5.23-3.18,10.86-.24,15.88,1.87"/><path class="b" d="M12.02,155.82c1.94-.48,4.01-.98,5.85-1.76,3.46-1.7,6.53-4.25,10.03-5.89,4.96-2.49,10.65-2.69,15.88-4.31,4.24-1.26,8.24-3.36,12.53-4.46,2.67-.83,5.55-1.47,8.36-1.05,4.46.75,8.48,3.19,12.53,5.06,4.41,2.31,8.51,2.59,13.37,2.26,4.81.37,9.79.88,14.21,2.96,4.51,2.27,9.25,4.15,14.21,5.18,4.42.95,9,1.31,13.37,2.48,3.17.81,6.26,2.14,9.19,3.57,2.63,1.23,5.39,2.67,8.36,2.76,4.82-.11,8.6-3.7,12.53-6.05,1.74-1.04,3.78-1.99,5.85-1.97,4,.15,7.82,1.69,11.7,2.53"/><path class="b" d="M12.02,152.06c2.2-.72,4.58-1.28,6.69-2.27,2.77-1.37,5.46-3.08,8.36-4.18,4.03-1.53,8.42-1.87,12.53-3.11,5.19-1.37,9.88-4.29,15.04-5.7,3.54-.98,7.13-2.35,10.86-2.17,3.19.13,6.31,1.28,9.19,2.58,2.46,1.21,4.91,2.67,7.52,3.55,2.66.96,5.56,1.16,8.36,1.32,2.52.29,5.09.88,7.52,1.59,3.79,1.12,7.28,3.16,10.86,4.77,4.33,1.62,8.9,2.72,13.37,3.89,3.3.79,6.66,1.65,10.03,2.06,4.25.35,8.48,1.16,12.53,2.49,3.88,1.26,7.05,1.58,10.86-.23,4.29-1.8,8.45-5.22,13.37-4.32,3.58.49,7.25.81,10.86.61"/><path class="b" d="M12.02,148.18c2.18-.7,4.53-1.21,6.69-1.99,2.46-.96,4.96-2.1,7.52-2.78,3.54-.97,7.33-.96,10.86-1.98,4.95-1.17,9.58-3.42,14.21-5.46,1.3-.59,2.82-1.04,4.18-1.47,1.66-.59,3.38-1.39,5.01-2.05,12.41-5.27,15.97,3.12,26.74,5.17,4.62.6,9.25,1.73,13.37,3.97,3.63,1.82,6.95,4.47,10.86,5.68,6.64,1.95,13.1,5.08,20.06,5.69,2.78,0,5.59-.72,8.36-.9,3.33-.29,6.72.23,10.03.56,4.34.23,8.44-1.63,12.53-2.77,1.59-.42,3.37-.67,5.01-.58,1.33.12,2.84.3,4.18.27,2.81-.04,5.64-.69,8.36-1.37"/><path class="b" d="M12.02,144.64c4.2-.49,8.39-1.35,12.53-2.19,2.74-.51,5.61-.74,8.36-1.2,6.3-1.42,12.39-3.83,18.38-6.22,2.22-.91,4.64-1.64,6.69-2.94,3.46-2.01,6.86-4.55,10.86-5.32,4.89-1.03,9.18,2.11,13.37,4.12,3.96,2.07,8.44,2.93,12.53,4.66,4.12,1.79,7.84,4.46,11.7,6.73,2.04,1.27,4.4,2.1,6.69,2.79,1.97.7,3.98,1.62,5.85,2.53,4.25,1.86,9.44,5.64,14.21,4.22,5.63-2.02,10.31-5.92,16.71-5.19,5.02.4,10.04-.35,15.04-.6,1.63-.07,3.39.18,5.01.11,3.55-.28,6.79-2.07,10.03-3.41"/><path class="b" d="M12.02,141.4c6.66.49,13.55.74,20.06-1.04,3.1-.91,6.12-2.31,9.19-3.31,2.99-1.11,6.17-1.85,9.19-2.87,1.95-.71,4.04-1.44,5.85-2.48,2.61-1.52,5.04-3.5,7.52-5.21,5.93-4.22,10.11-4.92,16.71-1.62,2.8,1.32,5.59,2.83,8.36,4.22,2.2,1.12,4.61,2.1,6.69,3.45,3.88,2.44,7.53,5.4,11.7,7.36,2.92,1.42,6.3,1.76,9.19,3.26,2.61,1.23,5.09,2.89,7.52,4.44,2.25,1.36,4.77,3.09,7.52,2.81,2.53-.45,4.67-2.2,6.69-3.68,3.01-2.25,6.19-4.85,10.03-5.39,3.33-.19,6.7.52,10.03.63,2.19.11,4.49-.03,6.68-.05,1.62-.06,3.4.12,5.01-.14,3.6-.74,6.69-3.02,10.03-4.44"/><path class="b" d="M12.02,138.23c1.88.58,3.92.97,5.85,1.38,2.44.54,5.01,1,7.52.81,3.89-.24,7.43-2.12,10.86-3.81,3.18-1.52,6.57-2.82,10.03-3.53,15.96-1.89,21.82-19,37.6-11.02,2,.97,3.98,2.23,5.85,3.42,1.63,1.04,3.48,2,5.01,3.18,3.53,2.67,6.84,5.85,10.86,7.8,3.64,1.9,7.95,1.83,11.7,3.42,2.34.95,4.58,2.36,6.68,3.75,1.81,1.17,3.72,2.54,5.85,3.05,5.17.98,10.82-6.32,15.88-8.18,2.06-.98,4.46-.97,6.68-.84,2.48.12,5.05.21,7.52-.08,1.92-.24,3.93-.61,5.85-.85,1.63-.23,3.44-.19,5.01-.7,3.11-.98,6.02-2.74,9.19-3.56"/><path class="b" d="M12.02,135.37c3.01,1.08,6.1,2.16,9.19,2.97,2.77.68,5.77.34,8.36-.86,3.68-1.74,7.06-4.2,10.86-5.7,3.16-1.45,6.68-1.74,10.03-2.45,2.96-.7,5.62-2.41,8.36-3.68,3.6-1.76,7.22-3.63,10.86-5.29,3.88-1.76,8.25-3.35,12.53-2.23,2.71.65,5.21,2.14,7.52,3.67,1.98,1.28,4.12,2.56,5.85,4.19,4.16,3.77,8.4,8.21,14.21,9.11,3.89.67,8.03.42,11.7,2.1,3.82,1.4,7.37,4.84,11.7,3.79,4.39-1.05,8.2-3.84,12.54-5.07,3.23-1.03,6.75-.59,10.03-1.36,3.77-.71,7.18-2.73,10.86-3.74,1.32-.34,2.87-.46,4.18-.84,2.99-.83,6.05-1.94,9.19-1.93"/><path class="b" d="M12.02,132.73c3.35.94,6.61,2.43,10.03,3.15,4.21.89,8.22-1.15,11.7-3.32,2.66-1.54,5.46-3.02,8.36-4.05,3.21-1.25,6.79-1.23,10.03-2.37,1.96-.72,3.87-1.85,5.85-2.52,3.29-1.21,6.73-2.17,10.03-3.36,7.05-2.51,12.5-6.52,20.06-2.59,2.62,1.36,5.37,2.8,7.52,4.87,4.59,4.31,9.16,9.76,15.88,10.28,3.32.26,6.72-.54,10.03.03,3.97.45,7.61,2.9,11.7,2.45,3.66-.27,7.25-1.34,10.86-1.92,3.01-.62,6.2-.55,9.19-1.29,4.61-1.09,8.33-4.29,12.53-6.29,1.53-.73,3.37-.96,5.01-1.34,2.98-.69,6.15-1.14,9.19-.58"/><path class="b" d="M12.02,130.99c4.65,1.04,9.36,3.23,14.21,2.14,4.16-.89,7.79-3.34,11.7-4.91,2.15-.93,4.43-1.82,6.69-2.44,1.9-.53,3.96-.81,5.85-1.37,2.82-.79,5.45-2.37,8.36-2.91,4.47-.94,9.14-1.43,13.37-3.26,4.01-1.75,8-4.34,12.53-4.16,3.26.18,6.48,1.58,9.19,3.34,2.72,2.05,5.04,4.75,7.52,7.07,3.34,3.21,7.69,6.18,12.53,5.65,2.77-.29,5.57-.99,8.36-1.11,3.08-.27,6.14.67,9.19.93,7.47.72,15.46,1.37,22.56-1.55,4.26-1.82,7.71-5.11,11.7-7.39,4.3-2.32,9.61-2.6,14.21-.99"/><path class="b" d="M12.02,129.54c3.82.87,7.76,1.82,11.7,1.2,3.15-.41,6.22-1.48,9.19-2.55,3.03-1.06,6.15-2.08,9.19-3.12,2.72-.96,5.62-1.59,8.36-2.47,2.21-.69,4.4-1.77,6.69-2.2,4.73-.83,9.69-.76,14.21-2.58,6.55-2.62,11.64-7.68,19.22-4.93,3.65.96,6.46,3.71,9.19,6.16,3.75,3.38,8.05,7.11,13.37,7.18,3.66-.06,7.25-1.17,10.86-1.62,2.76-.26,5.63,0,8.36.44,3.31.68,6.63,1.76,10.03,1.83,5.34.09,10.47-2.18,15.04-4.75,7.96-4.64,12.61-10.49,22.56-6.31"/><path class="b" d="M12.02,127.69c5.63,1.73,10.36.54,15.88-.79,5-1.18,10.15-1.98,15.04-3.59,2.19-.72,4.5-1.4,6.69-2.14,2.7-.95,5.48-2.01,8.36-2.26,5.12-.41,10.33-1,15.04-3.19,2.53-1.1,4.96-2.62,7.52-3.66,5.09-2.25,11.13-1.23,15.88,1.41,5.92,3.53,11.98,7.78,19.22,7.23,3.07-.09,6.16-.67,9.19-1.04,2.19-.15,4.51-.12,6.69.18,2.52.49,4.99,1.57,7.52,2.03,5.3,1.18,9.49-1.46,14.21-3.31,4.26-1.58,8.54-3.32,12.54-5.51,5.22-3.24,8.16-3.85,14.21-2.09"/><path class="b" d="M12.02,124.94c5.27,2.01,10.63-.41,15.88-1.23,3.87-.63,7.87-.77,11.7-1.66,4.26-.98,8.38-2.64,12.53-3.97,4.04-1.31,8.4-.94,12.53-1.72,4.65-.81,9.04-2.75,13.37-4.54,3.68-1.56,7.78-1.96,11.7-1.25,5.63.55,11.1,2.21,16.71,2.84,4.42.49,8.91,1,13.37.84,3.88-.2,7.83-.65,11.7-.06,1.66.34,3.39,1.01,5.01,1.49,3.57,1.21,7.53.86,10.86-.89,2.11-1.09,4.34-2.22,6.69-2.7,3.31-.75,6.81-1.04,10.03-2.18,1.74-.57,3.48-1.54,5.01-2.54,3.23-1.97,7.2-2.17,10.86-1.69"/><path class="b" d="M12.02,120.78c5.21,1.92,10.6-.38,15.88-.73,3.9-.29,7.89-.35,11.7-1.31,4.54-1.05,8.83-3.11,13.37-4.13,4.68-.85,9.52.35,14.21-.54,5.38-.79,10.39-3.51,15.88-3.7,3.05-.17,6.15.49,9.19.31,5.09-.28,10.09-1.46,15.04-2.61,3.82-.81,7.82-.65,11.7-.83,3.61-.13,7.27-.39,10.86.06,5.41.57,9.07,4.12,15.04,2.33,3.11-.9,5.9-2.92,9.19-3.2,3.03-.39,6.19-.26,9.19-.92,2.41-.41,4.61-1.71,6.68-2.92,3.06-1.59,6.62-2.03,10.03-1.89"/><path class="b" d="M12.02,115.88c4.62,1.46,9.48.14,14.21.27,9.34.48,11.36.09,20.06-3.38,3.43-1.31,7.19-2.37,10.86-1.51,2.48.48,5,1.2,7.52,1.42,2.21.21,4.52,0,6.69-.46,2.46-.55,4.99-1.22,7.52-1.39,6.39-.45,10.48,1.39,16.71-1.64,11.33-5.06,14.41-10.51,28.41-8.87,1.64.21,3.39.64,5.01.95,1.68.2,3.45.61,5.01,1.28,5.58,2.43,9.42,2.72,15.04.1,4.74-2.1,10.1-.65,15.04-1.77,2.68-.44,5-2.11,7.52-3,2.65-.95,5.55-1.29,8.36-1.29"/><path class="b" d="M12.02,111.41c3.26.86,6.7.56,10.03.64,3.06.05,6.15.55,9.19.88,5.66.82,10.73-2.29,15.88-4.1,2.92-1.01,6.22-1.41,9.19-.38,5.19,1.93,9.31,4.02,15.04,2.74,2.45-.53,5-.99,7.52-.92,2.76.01,5.6.41,8.36.17,3.77-.22,6.89-2.66,10.03-4.52,6.72-3.92,13.8-11.7,21.73-12.17,3.17-.11,6.26.97,9.19,2.05,1.31.46,2.87.6,4.18,1.05,1.63.54,3.36,1.26,5.01,1.73,5.02,1.58,8.71-.3,13.37-1.77,4.38-.94,8.97-.08,13.37-.98,2.6-.35,4.99-1.7,7.52-2.3,2.71-.65,5.6-.69,8.36-.46"/><path class="b" d="M12.02,107.84c3.55.78,7.26.53,10.86.79,3.07.19,6.14.85,9.19,1.18,5.06.68,9.56-2.22,14.21-3.67,2.95-.96,6.27-1.07,9.19.04,4.66,2,8.88,4.82,14.21,3.63,3.32-.76,6.59-1.52,10.03-1.32,8.36.27,9.26-.56,15.88-5.07,3.61-2.15,7.41-4.14,10.86-6.55,3.11-2.04,5.95-4.63,9.19-6.45,4.17-2.38,8.47-.98,12.53.84,1.29.53,2.85.66,4.18,1.04,3.75,1.21,7.81,2.23,11.7.98,2.51-.68,4.94-1.97,7.52-2.39,3.57-.57,7.28-.27,10.86-.8,2.52-.23,5.05-.93,7.52-1.46,3.36-.52,6.81.28,10.03,1.22"/><path class="b" d="M12.02,104.81c5.22,1.07,10.62.33,15.88,1.09,8.82,1.43,9.55.13,17.55-2.21,2.99-.82,6.26-.72,9.19.29,5.89,2.44,9.2,5.09,15.88,2.8,2.14-.7,4.43-1.27,6.69-1.35,4.22-.17,8.73.1,12.53-2.07,1.45-.76,2.8-2.01,4.18-2.88,1.26-.78,2.78-1.44,4.18-1.92,6.08-1.83,10.39-3.5,15.04-8.04,3.56-3.34,7.55-5.71,12.53-3.99,1.04.33,2.28.77,3.34,1.05,1.03.24,2.3.31,3.34.52,3.87.89,8.02,1,11.7-.68,1.93-.77,3.87-1.83,5.85-2.48,4.04-1.21,8.38-.91,12.53-1.43,2.2-.18,4.49-.45,6.69-.7,3.94-.14,7.53,2,10.86,3.84"/><path class="b" d="M12.02,101.35c4.9,1.37,10.04.58,15.04,1.11,2.76.25,5.58.83,8.36.8,3.4-.14,6.69-1.34,10.03-1.88,3.03-.54,6.23-.34,9.19.5,7.81,2.79,9.59,3.46,17.55.36,4.84-1.71,10.14-.1,15.04-1.45,2.82-.6,5.01-2.68,7.52-3.93,2.89-1.32,6.16-1.6,9.19-2.43,5.85-1.38,8.9-5.53,13.37-8.98,3.34-2.55,6.9-2.73,10.86-1.76,1.61.3,3.39.25,5.01.42,3.12.32,6.37-.11,9.19-1.51,1.98-.93,3.92-2.21,5.85-3.24,4.06-2.22,8.88-2,13.37-2.2,2.48-.05,5.04-.07,7.52-.06,4.21.45,7.62,3.44,10.86,5.91"/><path class="b" d="M12.02,97.71c3.96,1.67,8.36,1.23,12.53,1.71,3.9.34,7.76,1.58,11.7,1.46,4.48-.19,8.89-1.45,13.37-1.58,3.65-.27,7.27.53,10.86.95,2.51.24,5.13-.14,7.52-.93,2.72-.87,5.45-2.18,8.36-2.17,3.06-.06,6.13.74,9.19.61,1.68-.06,3.48-.42,5.01-1.1,1.67-.8,3.3-1.99,5.01-2.7,3.74-1.69,7.89-2.4,11.7-3.91,5.91-1.97,9.54-8.29,15.88-9.22,2.2-.31,4.49.17,6.69.28,9.59.74,10.95-1.11,18.38-6.47,4.64-3.08,10.55-2.75,15.88-2.6,1.91.16,3.96.1,5.85.47,3.97,1.02,7.1,4.02,10.03,6.73"/><path class="b" d="M12.02,93.28c3.81,2.15,8.4,1.67,12.53,2.74,3.06.64,6.09,1.69,9.19,2.13,3.88.35,7.85-.01,11.7-.52,3.62-.41,7.23-1.36,10.86-1.67,2.48-.17,5.06-.19,7.52-.54,2.53-.34,5.08-1.04,7.52-1.76,5.93-2.35,10.82,1.09,16.71.66,4.01-.32,7.24-3.18,10.86-4.67,3.98-1.97,8.46-2.77,12.53-4.48,2.34-1.13,4.44-2.87,6.68-4.16,1.76-1.03,3.81-1.82,5.85-1.97,3.6-.21,7.26.45,10.86.45,7.14,0,10.69-7.51,16.71-10.02,4.5-1.72,9.51-1.24,14.21-.8,6.45.13,9.83,2.7,14.21,7.17"/><path class="b" d="M12.02,88.04c1.74,1.13,3.8,1.73,5.85,1.93,1.94.32,3.97.79,5.85,1.37,3.06.92,6.07,2.28,9.19,2.98,3.53.5,7.3.61,10.86.46,2.24-.16,4.56-.53,6.69-1.28,2.21-.74,4.4-1.85,6.69-2.38,4.37-1.04,8.96-1.06,13.37-1.91,1.91-.34,3.88-1.06,5.85-.86,5.52.58,11.29,4.03,16.71,1.15,2.78-1.35,5.46-3.11,8.36-4.22,2.64-1.07,5.56-1.46,8.36-1.9,4.03-.54,7.15-3.57,10.86-4.97,3.17-1.26,6.71-.98,10.03-.67,2.76.41,5.78.82,8.36-.56,5.42-2.69,8.15-9.27,14.21-10.87,4.08-1.1,8.41-.41,12.54.1,6.5.35,9.6,1.74,14.21,6.48"/><path class="b" d="M12.02,82.71c1.76,1.09,3.81,1.67,5.85,1.87,1.95.33,3.98.86,5.85,1.5,3.33,1.1,6.56,2.78,10.03,3.45,4.16.28,8.34,1.4,12.53.99,3.03-.22,5.8-1.76,8.36-3.27,4.3-2.49,9.39-2.51,14.21-2.76,2.24-.04,4.46-.85,6.69-.92,7.02.39,11.92,4.85,19.22,1.16,3.16-1.45,6.51-2.81,10.03-2.9,2.19-.11,4.51.16,6.68-.22,3.98-1,6.97-4.3,10.86-5.55,2.4-.74,5.03-.89,7.52-.61,2.74.36,5.68,1.21,8.36.06,6.28-2.59,8.83-10.77,15.88-11.93,3.89-.69,7.85.31,11.7.86,6.52.47,9.26.81,14.21,5.67"/><path class="b" d="M12.02,78.42c2.3,1.28,4.97,1.5,7.52,1.85,2.52.39,5.08,1.05,7.52,1.79,1.9.57,3.9,1.22,5.85,1.6,1.62.32,3.41.28,5.01.69,3.54.8,7.19,2.17,10.86,1.6,2.8-.49,5.09-2.38,7.52-3.71,3.82-2.08,8.27-2.43,12.53-2.58,2.5-.02,5.02-.8,7.52-.66,3.65.24,7.2,1.54,10.86,1.71,4.8.46,9.39-1.93,14.21-1.41,3.05.16,6.12,1.24,9.19.9,2.2-.3,4.11-1.79,5.85-3.07,2.5-1.91,5.17-3.97,8.36-4.48,1.6-.32,3.39-.37,5.01-.17,2.18.3,4.5.85,6.69.3,5.89-1.61,8.59-7.93,13.37-11.19,4.08-2.6,9.08-.95,13.37.19,7.21,1.91,10-.8,16.71,5.15"/><path class="b" d="M12.02,74.95c2.59,1.28,5.55,1.29,8.36,1.66,3.34.42,6.7,1.14,10.03,1.66,2.46.5,5.07.16,7.52.67,2.83.65,5.55,1.93,8.36,2.66,5.12,1.63,8.34-2.31,12.53-4.32,3.84-2.02,8.28-2.28,12.53-2.08,3.61-.08,7.26.23,10.86.37,8.06.04,11.62-1.93,20.05.61,2.69.68,5.6,1.46,8.36.73,6.47-2.42,8.4-8.33,16.71-7.61,2.76.14,5.61,1.07,8.36.35,5.51-1.6,8.47-7.12,12.53-10.74,4.15-3.96,9.75-1.21,14.21.66,7.01,3.24,10.77-1.21,17.55,3.43"/><path class="b" d="M12.02,71.64c2.64,1.11,5.59.99,8.36,1.55,3.86.71,7.75,1.76,11.7,1.85,1.92.09,3.93-.41,5.85-.16,3.78.38,7.16,2.52,10.86,3.18,2.84.43,5.36-1.2,7.52-2.83,2.07-1.46,4.29-2.96,6.69-3.82,5.48-2.09,11.13.75,16.71.71,6.62.15,10.74-2.68,17.55-.39,8.76,2.62,12.18,2.25,19.22-3.73,2.14-1.62,4.73-3.15,7.52-2.85,3.35.19,6.64,1.55,10.03,1.28,4.56-.42,7.86-4.14,10.86-7.23,1.89-1.92,3.9-4.27,6.68-4.79,4.16-.62,7.93,1.94,11.7,3.27,1.82.69,3.9,1.13,5.85.8,3.59-.73,7.45-1.82,10.86.13"/><path class="b" d="M12.02,68.18c2.42.81,5.09.58,7.52,1.33,3.61,1.06,7.09,2.87,10.86,3.36,2.53.45,5.03-.39,7.52-.64,3.42-.3,6.76.84,10.03,1.68,3.06.73,6.03-.49,8.36-2.45,4.58-3.66,8.91-6.99,15.04-4.79,4.25,1.66,8.74,3.19,13.37,2.55,2.2-.23,4.47-.77,6.69-.72,4.17.33,8.3,2.35,12.53,1.35,3.08-.65,5.87-2.42,8.36-4.28,2.36-1.83,4.65-4.09,7.52-5.09,2.49-.9,5.14.14,7.52.93,7.53,2.68,11.76,1.17,17.55-4.03,2.91-2.63,5.86-4.82,10.03-4.18,2.81.34,5.58,1.3,8.36,1.86,6.96,1.85,10.59-3.62,16.71-.83"/><path class="b" d="M12.02,64.83c1.62.27,3.38.3,5.01.39,4.83.82,8.6,4.6,13.37,5.62,3.44.9,6.67-1.1,10.03-1.49,3.33-.63,6.7.46,10.03.17,6.5-.68,9.94-8.5,16.71-8.45,2.69.02,5.2,1.32,7.52,2.55,2.63,1.38,5.42,2.72,8.36,3.3,3,.66,6.16.15,9.19.49,3.88.73,8.02,1.49,11.7-.44,3.35-1.68,6.29-4.21,9.19-6.55,2.23-1.89,4.56-4.13,7.52-4.72,3.25-.49,6.19,1.61,9.19,2.5,3.76,1.18,7.92,2.27,11.7.56,2.34-.94,4.5-2.49,6.68-3.74,5.08-2.85,11.17-1.68,16.71-2.5,1.97-.25,4.03-.76,5.85-1.56,2.85-1.31,6.26-2.29,9.19-.67"/><path class="b" d="M12.02,61.8c1.63.11,3.39.09,5.01.19,4.49.71,8.16,3.91,12.53,5,4.03,1.27,7.83-1.08,11.7-1.86,3.55-.91,7.38-.24,10.86-1.46,5.77-2.01,9.92-9.01,16.71-7.63,5.98,1.18,10.28,6.1,15.88,8.2,3.17,1.23,6.68,1.22,10.03,1.5,4.6.41,8.95-1.63,12.53-4.36,2.18-1.65,4.56-3.23,6.69-4.96,3.11-2.57,6.73-4.99,10.86-3.24,3.33,1.26,6.68,2.66,10.03,3.87,5.24,2.01,9.32.55,14.21-1.55,5.36-1.74,10.77-3.45,15.88-5.85,1.89-.86,3.97-1.61,5.85-2.52,2.81-1.45,6.27-2.3,9.19-.66"/><path class="b" d="M12.02,59.6c2.2.29,4.52.39,6.69.86,2.78.63,5.55,1.61,8.36,2.1,4.54,1,9.01-.28,13.37-1.46,3-.84,6.19-1.09,9.19-1.87,6.85-1.62,11.71-8.96,19.22-8.01,6.11.48,10.26,5.39,15.04,8.61,6.86,4.94,15.21,2.09,21.73-1.97,2.16-1.28,4.43-2.59,6.69-3.71,1.87-1,3.82-2.13,5.85-2.77,4.01-1.43,7.99.81,11.7,2.16,4.05,1.45,8.16,3.22,12.54,3.22,3.37-.04,6.82-.64,10.03-1.63,3.39-1.18,6.38-3.38,9.19-5.56,1.59-1.23,3.31-2.6,5.01-3.68,1.27-.79,2.85-1.4,4.18-2.08,2.78-1.46,6.13-2.51,9.19-1.28"/><path class="b" d="M12.02,57.76c7.43,2.28,14.14,2.39,21.73.99,5.04-.63,10.17-1.33,15.04-2.81,6.31-2.2,11.5-7.48,18.38-7.99,8.69-.68,11.14,3.73,17.55,8.09,6.37,4.41,11.47,1.16,17.55-1.7,4.73-2.2,9.88-3.6,15.04-4.35,6.12-.84,11.64,2.83,17.55,3.72,3.57.63,7.25.97,10.86,1.14,4.63.31,7.86.02,11.7-2.92,3.8-2.68,6.71-6.68,10.86-8.84,3.75-1.64,7.41-4.31,11.7-3.94"/><path class="b" d="M12.02,55.86c4.82,2.47,9.81,2.8,15.04,1.63,3.02-.6,6.09-1.44,9.19-1.39,15.04.03,15.54-5.74,27.58-9.14,3.25-.78,6.7-1.06,10.03-.75,2.43.41,4.64,1.83,6.69,3.13,3.03,1.95,6.27,4.22,10.03,4.21,4.26,0,7.73-3.06,11.7-4.19,3.21-1.08,6.69-.89,10.03-.87,4.19.11,8.46.33,12.53,1.37,3.6.69,7.14,2.15,10.86,1.81,3.32-.16,6.72-.26,10.03.18,3.03.39,6.26,1.09,9.19-.15,4.19-1.67,7.34-5.16,10.86-7.86,1.72-1.38,4-2,5.85-3.18,2.65-1.55,5.35-3.32,8.36-4.1"/><path class="b" d="M12.02,53.52c5.89,3.43,12.73,3,19.22,1.99,3.3-.51,6.72-.14,10.03-.54,2.86-.39,5.8-1.14,8.36-2.5,4.01-2.36,7.98-5.02,12.53-6.24,3.78-1.06,7.78-1.59,11.7-1.66,2.97.18,5.71,1.69,8.36,2.91,5.43,2.74,9.61,2.95,15.04.11,3.09-1.48,6.62-2.25,10.03-1.6,3.02.56,6.12,1.09,9.19,1.33,2.76.21,5.61.23,8.36.56,1.64.15,3.42.34,5.01.75,1.57.52,3.38.56,5.01.38,3.03-.34,6.14-.85,9.19-.58,3.32.2,6.69,1.3,10.03.72,4.47-.79,8.06-3.93,11.7-6.43,1.79-1.26,4.05-1.9,5.85-3.15,2.72-1.74,5.37-3.82,8.36-5.11"/><path class="b" d="M12.02,50.7c3.48,1.46,7.22,2.31,10.86,3.21,6.78,1.48,14.15,2.18,20.89.17,4.9-1.32,8.92-4.59,13.37-6.87,5.38-2.82,13.09-6.1,19.22-4.61,3.44.95,6.59,2.88,10.03,3.84,4.28,1.2,7.72.25,11.7-1.35,2.38-.85,4.99-1.34,7.52-1.07,2.79.27,5.55,1.25,8.36,1.39,2.78.19,5.61-.3,8.36-.61,1.9-.17,3.94-.31,5.85-.14,1.65.17,3.34.84,5.01.89,4.44.11,8.94-.24,13.37.22,7.79.67,12.56-1.13,19.22-4.97,1.57-.89,3.46-1.51,5.01-2.43,3.07-1.79,5.95-4.07,9.19-5.55"/><path class="b" d="M12.02,47.99c4.25.99,8.47,2.29,12.53,3.91,6.33,2.51,12.7,3.79,19.22,1.12,2.91-1.05,5.74-2.47,8.36-4.11,1.9-1.1,4.01-2.09,5.85-3.3,5.04-3.07,10.44-7.48,16.71-6.57,3.22.58,6.18,2.21,9.19,3.41,4.66,2.02,9.43,2.18,14.21.5,9.88-3.07,12.23,1.14,20.89-.85,3-.65,6.11-1.36,9.19-1.22,1.66.1,3.37.73,5.01.99,3.01.54,6.14.86,9.19.95,5.44.28,10.67-1.69,15.88-3.01,3.93-1.07,7.95-2.13,11.7-3.76,3.42-1.56,6.62-3.68,10.03-5.26"/><path class="b" d="M12.02,45.5c7.51.92,14.33,4.63,21.73,6.02,3.68.72,7.46-.15,10.86-1.56,2.57-.96,5.12-2.2,7.52-3.53,1.96-.95,4.1-1.82,5.85-3.15,4.81-3.19,9.57-8.79,15.88-7.98,3.78.62,7.27,2.43,10.86,3.66,3.45,1.13,7.23,1.86,10.86,1.39,3.07-.46,6.11-1.41,9.19-1.81,2.47-.37,5.05-.26,7.52.03,5.04.32,9.99-1.45,15.04-1.21,3.43.09,6.69,1.57,10.03,2.21,3.3.73,6.88.7,10.03-.61,4.37-2.03,8.54-4.83,13.37-5.68,2.19-.39,4.52-.6,6.68-1.15,4.26-1.25,8.44-2.91,12.54-4.61"/><path class="b" d="M12.02,43.3c2.24.19,4.49.87,6.69,1.29,3.31.63,6.71,1.09,10.03,1.64,3.58.47,7.24,1.61,10.86.95,5.57-1.06,10.63-3.84,15.88-5.86,3.32-1.66,6.12-4.29,9.19-6.33,6.63-4.61,9.69-2.4,16.71-.66,2.98.84,6.1,1.42,9.19,1.69,2.75.45,5.63.43,8.36-.17,3.05-.6,6.11-1.55,9.19-1.96,2.75-.36,5.6-.03,8.36-.13,4.74-.14,9.55.07,14.21,1,1.95.46,3.92,1.25,5.85,1.77,3.96,1.27,8.35.5,11.7-1.94,3.78-2.62,7.22-6.07,11.7-7.48,2.41-.75,5.06-.7,7.52-1.16,4.11-1.11,8.45-1.43,12.54-2.68"/><path class="b" d="M12.02,41c2.23.33,4.45,1.16,6.69,1.43,3.31.39,6.71.07,10.03.05,3.9-.22,7.84,1.09,11.7.18,4.01-.93,7.9-2.49,11.7-4.04,1.63-.62,3.47-1.07,5.01-1.89,4.09-2.03,7.92-5.02,12.53-5.73,1.94-.34,3.95.16,5.85.51,1.9.32,3.93.56,5.85.67,3.04.23,6.15,0,9.19-.04,2.77.17,5.62.26,8.36-.29,3.63-.62,7.2-1.83,10.86-2.26,7.3-.59,14.59.81,21.73,2.18,6,1.87,10.25,3.17,15.88-.77,4.97-3.35,8.9-8.77,15.04-10.04,1.32-.28,2.84-.43,4.18-.6,1.34-.19,2.82-.61,4.18-.69,3.04-.21,6.17-.03,9.19-.5"/><path class="b" d="M12.02,38.3c6.94,2.51,8.58,2.57,15.88,1.6,1.91-.23,3.93-.42,5.85-.33,1.63.15,3.39.34,5.01-.01,6.07-1.41,11.41-5.08,17.55-6.33,4.64-1.48,9.23-3.78,14.21-3.67,2.22.05,4.46.79,6.69.76,3.93.11,7.85-.77,11.7-1.43,2.74-.45,5.63-.05,8.36-.65,3.94-.69,7.76-2.17,11.7-2.86,4.7-.72,9.52,0,14.21.54,3.91.6,7.97.76,11.7,2.17,12.48,4.76,16.73-7.07,26.74-10.88,1.58-.58,3.37-.94,5.01-1.28,1.34-.29,2.81-.76,4.18-.91,3.03-.36,6.15-.1,9.19-.15"/><path class="b" d="M12.02,35.21c7.17,3.71,9.67,3.83,17.55,2.44,1.34-.21,2.83-.4,4.18-.41,1.95.14,4.02.11,5.85-.67,4.02-1.62,7.61-4.3,11.7-5.79,1.84-.73,3.93-.8,5.85-1.2,2.48-.48,5.02-1.13,7.52-1.56,2.17-.37,4.49-.56,6.69-.32,2.18.35,4.45.88,6.69.62,3.68-.27,7.27-1.46,10.86-2.2,2.75-.53,5.67-.21,8.36-1.13,3.4-.97,6.64-2.6,10.03-3.61,3.23-1.07,6.71-.67,10.03-.4,3.31.26,6.7.34,10.03.39,1.64.04,3.44.07,5.01.56,4.04,1.3,8.17,3.73,12.54,2.55,2.15-.52,4.11-1.85,5.85-3.16,2.15-1.57,4.4-3.24,6.69-4.61,2.82-1.77,6.03-2.95,9.19-3.94,1.89-.67,3.86-1.52,5.85-1.88,2.44-.5,5.05-.5,7.52-.24"/></svg>