<?xml version="1.0" encoding="UTF-8"?><svg id="a" xmlns="http://www.w3.org/2000/svg" width="1920" height="2400" viewBox="0 0 192 240"><defs><style>.b{fill:none;stroke:#fff;stroke-miterlimit:10;stroke-width:.3px;}.c{stroke-width:0px;}</style></defs><rect class="c" width="192" height="240"/><path class="b" d="M12.14,232c1.6-.55,3.37-.96,5.01-1.37,1.9-.52,3.87-1.18,5.84-1.37,3.32-.33,6.75-.22,10.01-1.07,4.4-1,8.85-2,13.35-2.4,3.3-.44,6.67-.96,10.01-1.03,5.02-.17,10.04.58,15.02,1.06,5.06.18,10.51,0,15.02-2.57,2.3-1.35,4.68-3.2,7.51-2.91,1.96.12,3.96.73,5.84,1.26,2.2.61,4.5,1.24,6.68,1.91,4.46,1.42,9.31,3.63,13.35-.02,3.41-3.02,6.38-8.41,11.68-7.44,3.56.6,6.35,3.18,9.18,5.22,1.54,1.15,3.44,2.04,5.01,3.15,2.01,1.28,4.14,3.16,6.68,2.96,1.44-.09,2.86-.91,4.17-1.43,1.56-.59,3.34-1.06,5.01-1.22,3.6-.27,7.27.04,10.85.47,2.48.37,5.11.51,7.51,1.24"/><path class="b" d="M12.14,225.83c1.57-.64,3.36-.97,5.01-1.31,1.89-.46,3.89-.92,5.84-.76,3.38.06,6.65,1.29,10.01,1.42,2.76.08,5.59-.26,8.34-.41,3.31-.18,6.7-.31,10.01-.39,4.44-.07,8.92.05,13.35.22,2.76.09,5.59.47,8.34.14,3.36-.42,6.92-.75,10.01-2.22,2.06-.96,3.88-2.55,5.84-3.67,2.85-1.61,6.22-.54,9.18.18,2.46.66,5.03,1.25,7.51,1.85,3.51.79,7.41,2.88,10.85.78,3.9-2.19,6.62-7.38,11.68-6.77,4.35.59,8.05,3.29,11.68,5.54,1.8,1.14,3.94,1.91,5.84,2.86,5.66,2.95,5.71,1,10.85-.81,2.12-.67,4.48-.51,6.68-.4,2.54.22,5,1.28,7.51,1.69,3.06.52,6.29.63,9.18,1.88"/><path class="b" d="M12.14,219.67c2.57-1.19,5.55-1.52,8.34-1.74,4.06.18,8.03,1.55,11.68,3.26,2.87,1.27,6.07,1.75,9.18,2.01,5,.22,10.03.7,15.02,1.13,3.87.29,7.81.15,11.68.04,3.99-.02,7.87-1.48,11.68-2.52,1.78-.57,3.52-1.61,5.01-2.72,1.75-1.32,3.59-2.97,5.84-3.28,3.09-.22,6.15.96,9.18,1.43,1.91.38,3.94.73,5.84,1.15,1.9.41,3.88,1.06,5.84,1.05,4.22-.14,6.61-4.31,10.01-6.18,3.48-1.84,7.07.87,10.01,2.59,2.94,1.69,5.98,3.45,9.18,4.62,1.31.47,2.83.84,4.17,1.22,1.58.45,3.39.92,5.01.39,1.1-.43,2.26-1.28,3.34-1.76,1.52-.72,3.33-1.09,5.01-1.05,1.63-.07,3.42-.05,5.01.41,1.67.47,3.37,1.29,5.01,1.85,1.85.64,3.93.71,5.84,1.07,1.96.39,4,1.03,5.84,1.8"/><path class="b" d="M12.14,216.09c2.06-1.07,4.4-1.67,6.68-2.04,1.89-.35,3.96-.6,5.84-.09,2.28.67,4.6,1.59,6.68,2.76,2.16,1.29,4.34,2.78,6.68,3.75,3.15,1.42,6.68,1.6,10.01,2.3,4.38.93,8.85,1.86,13.35,1.71,2.77-.09,5.61-.39,8.34-.82,1.99-.44,3.96-1.35,5.84-2.12,1.9-.8,4.03-1.38,5.84-2.38,1.77-.95,3.39-2.4,5.01-3.57,3.52-2.6,6.14-1.6,10.01-.9,3.6.48,7.25,1.05,10.85,1.6,4.12.73,7.27-1.96,10.01-4.66,6.64-6.64,10.36,3.77,17.52,6.38,2.08.93,4.43,1.38,6.68,1.67,1.61.22,3.37.52,5.01.39,2.15-.2,3.82-1.94,5.84-2.56,1.28-.46,2.82-.56,4.17-.69,1.92-.21,4-.13,5.84.51,1.95.65,3.88,1.7,5.84,2.32,3.95.8,8.01,1.54,11.68,3.3"/><path class="b" d="M12.14,214.68c3.44-1.61,7.21-2.42,10.85-3.43,1.99-.6,4.08-.08,5.84.91,2.95,1.36,5.72,3.21,8.34,5.11,2.95,2.2,6.56,3.08,10.01,4.11,4.03,1.35,8.22,2.65,12.52,2.62,3.36-.03,6.75-.66,10.01-1.42,2.03-.62,3.97-1.79,5.84-2.76,1.57-.82,3.41-1.4,5.01-2.17,1.76-.84,3.4-2.18,5.01-3.28,3-2.13,5.66-2.57,9.18-1.55,3.01.44,6.15.48,9.18.73,4.97.52,8.42-2.16,11.68-5.55,3.55-3.66,6.16-2.78,9.18.91,2.04,2.44,4.03,5.2,6.68,7.02,2.4,1.71,5.49,1.97,8.34,1.84,1.34,0,2.84.13,4.17.05,2.15-.03,3.92-1.52,5.84-2.25,3.2-.85,6.71-1.52,10.01-.95,2.59.51,5.03,1.82,7.51,2.66,4.24,1.04,8.55,2.14,12.52,4.02"/><path class="b" d="M12.14,212.36c3.15-1.41,6.58-2.05,10.01-2.2,1.9-.36,3.87-1.41,5.84-.84,2.26.84,4.49,2.03,6.68,3.04,2.01,1.12,3.86,2.74,5.84,3.92,1.82,1.13,3.91,1.97,5.84,2.88,2.15,1.02,4.41,2.09,6.68,2.82,3.76,1.31,7.87,1.13,11.68.16,1.91-.5,4-.82,5.84-1.56,1.71-.73,3.36-1.89,5.01-2.75,1.28-.66,2.83-1.11,4.17-1.61,4.2-1.55,7.74-5.57,12.52-5.1,2.17.49,4.46.71,6.68.53,3.15-.09,6.46-.44,9.18-2.18,1.85-1.06,3.53-2.65,5.01-4.16,1.87-1.94,4.77-4.66,7.51-2.66,5.21,4.39,7.54,14.18,15.85,13.35,1.04-.08,2.29-.27,3.34-.35,1.34-.06,2.84.14,4.17-.08,1.13-.2,2.28-.96,3.34-1.37,1.86-.62,3.93-.94,5.84-1.36,4.58-1.08,9.13.54,13.35,2.21,4.51,1.3,9.02,2.82,13.35,4.66"/><path class="b" d="M12.14,208.74c2.67-.78,5.54-1.54,8.34-1.19,1.61.26,3.37.91,5.01.42,3.07-1.31,5.43.19,8.34,1.03,3.16.82,5.7,3.07,8.34,4.86,4.29,2.62,8.4,6.03,13.35,7.27,3.38.77,6.81-.35,10.01-1.38,1.61-.55,3.44-.82,5.01-1.49,1.38-.62,2.8-1.53,4.17-2.16,1.82-.84,3.97-1.04,5.84-1.74,2.28-.85,4.47-2.15,6.68-3.16,1.27-.56,2.78-1,4.17-1.05,1.05-.05,2.29.21,3.34.23,1.94-.02,3.98-.43,5.84-.96,3.11-.91,5.93-2.81,8.34-4.93,3.26-3.04,7.3-8.55,11.68-3.78,4.59,5.09,7.4,14.75,15.85,13.64,1.03-.15,2.29-.25,3.34-.14,1.04.15,2.29.38,3.34.19,1.1-.25,2.25-.99,3.34-1.28,2.74-.69,5.53-1.57,8.34-1.89,4.31-.52,8.53.97,12.52,2.43,4.17,1.42,8.4,2.84,12.52,4.39"/><path class="b" d="M12.14,204.91c9.8-2.51,10.01,1.8,15.02.27,1.92-.75,3.96-.06,5.84.44,2.7.64,5.36,1.69,7.51,3.48,2.49,1.94,5.02,3.99,7.51,5.92,2.69,2.05,5.65,4.41,9.18,4.5,2.95.03,5.66-1.5,8.34-2.52,1.3-.53,2.82-.85,4.17-1.19,1.07-.34,2.29-.86,3.34-1.25,2.38-.94,5.09-.74,7.51-1.53,2.62-.7,4.99-2.25,7.51-3.2,2.1-.86,4.47-.88,6.68-1.2,4.08-.85,7.64-3.25,10.85-5.81,3.12-2.13,5.76-6.74,10.01-6.14,1.88.4,3.74,1.42,5.01,2.88,4.09,4.68,6.62,11.85,13.35,13.3,2.19.28,4.53.27,6.68.88,2.02.7,3.95-.67,5.84-1.18,2.95-1.03,6.04-2.01,9.18-2.23,5.2-.54,10.25,1.21,15.02,3.08,2.99,1.12,6.19,1.88,9.18,3"/><path class="b" d="M12.14,201.33c8.94-2.53,9.37,1.45,15.02.54,1.62-.55,3.39-.42,5.01.08,1.96.52,4.01,1.25,5.84,2.12,3.76,2.22,6.74,5.63,10.01,8.48,2.57,2.28,5.44,5.38,9.18,5.09,3.05-.37,5.56-2.48,8.34-3.6,2.37-.94,5.05-1.1,7.51-1.74,1.89-.37,3.94-.06,5.84-.3,3.67-.34,6.62-2.86,10.01-4.03,1.6-.58,3.4-.98,5.01-1.53,3.4-1.28,6.33-3.64,9.18-5.83,6.24-4.66,7.78-7.8,15.85-3.56,2.82,1.95,4.58,5.19,6.68,7.83,1.56,2.05,3.65,3.84,5.84,5.19,1.47.96,3.32,1.34,5.01,1.71,1.63.37,3.34,1.02,5.01,1.2,1.11.05,2.3-.63,3.34-.94,1.62-.58,3.35-1.27,5.01-1.76,2.68-.74,5.57-.91,8.34-.9,2.49.02,5.1.19,7.51.89,2.26.56,4.48,1.59,6.68,2.34,2.44.83,5.07,1.37,7.51,2.19"/><path class="b" d="M12.14,199.38c2.44-.54,5.03-.73,7.51-.47,1.65.22,3.34.85,5.01.96,1.66.12,3.38-.4,5.01-.6,2.88-.13,5.74.71,8.34,1.87,3.98,2.16,6.86,5.94,10.01,9.09,2.29,2.29,4.72,5.8,8.34,5.53,2.53-.41,4.56-2.3,6.68-3.61,1.25-.79,2.72-1.56,4.17-1.9,1.32-.26,2.83-.23,4.17-.37,3.35-.49,6.73,1.5,10.01.32,2.36-.93,4.39-2.72,6.68-3.82,1.89-.95,4.01-1.72,5.84-2.78,2.03-1.19,3.98-2.74,5.84-4.18,7.09-5.24,9.46-7.43,18.36-3.94,4.32,2.07,6.32,7,10.01,9.87,1.54,1.25,3.23,2.59,5.01,3.49,1.58.7,3.39,1.21,5.01,1.8,1.01.33,2.26.68,3.34.62,1.37-.28,2.85-.84,4.17-1.28,1.59-.56,3.33-1.16,5.01-1.38,1.9-.22,3.93-.16,5.84-.16,3.04,0,6.18-.11,9.18.5,2.31.33,4.5,1.44,6.68,2.21,2.41.88,5.05,1.28,7.51,1.98"/><path class="b" d="M12.14,199.02c2.48-.19,5.04-.04,7.51.07,1.91.16,3.93.51,5.84.19,2.5-.4,4.99-1.29,7.51-1.57,3.43-.3,6.82,1.19,9.18,3.64,2.35,2.38,4.57,5.08,6.68,7.67,1.84,2.16,4.23,5.67,7.51,4.48,3.1-1.41,5.33-4.33,8.34-5.9,2.52-1.48,5.6-.95,8.34-.55,2.81.44,5.4,2.96,8.34,2.03,2.53-1.06,4.39-3.39,6.68-4.85,3.44-2.13,6.86-4.39,10.01-6.93,6.76-4.98,11.09-6.17,19.19-3.43,3.91,1.24,6.26,5,9.18,7.64,4.03,3.49,8.79,6.81,14.19,7.49,3.07-.49,6.05-1.84,9.18-2.01,2.2-.06,4.48.42,6.68.45,2.48.08,5.03-.28,7.51-.15,3.2.08,6.22,1.34,9.18,2.41,2.14.73,4.49,1.03,6.68,1.55"/><path class="b" d="M12.14,198.48c5.86.21,11.79,1.21,17.52-.56,2.92-.98,6.05-2.37,9.18-1.54,4.7,1.79,7.82,7.8,10.85,11.64,1.56,2.15,3.93,4.77,6.68,2.78,4.06-2.92,7.57-8.95,13.35-7.42,1.67.31,3.48.74,5.01,1.51,2.56,1.22,5.43,4.8,8.34,2.41,2.1-1.74,3.78-4.14,5.84-5.93,2.66-2.27,5.51-4.48,8.34-6.52,7.24-4.7,11.91-4.97,20.03-2.36,3.66,1.15,6.28,4.25,9.18,6.59,1.79,1.49,3.88,2.79,5.84,4.04,2.29,1.39,4.79,2.85,7.51,3.13,3.28-.48,6.66-1.54,10.01-1.08,2.47.43,4.97,1.33,7.51,1.28,3.05-.02,6.12-.91,9.18-.67,2.59.09,5.07,1.14,7.51,1.92,1.87.55,3.94.8,5.84,1.21"/><path class="b" d="M12.14,197.38c5.54.28,11.17.53,16.69-.22,2.27-.39,4.5-1.29,6.68-2.01,3.53-1.43,5.93-.72,8.34,2.15,2.14,2.64,3.95,5.77,5.84,8.58,2.39,3.5,4.42,4.37,7.51,1.01,4.5-4.61,7.14-9.07,14.19-5.88,1.37.46,2.94.91,4.17,1.68,2.56,1.33,5.28,6.19,8.34,3.35,1.89-1.88,3.32-4.42,5.01-6.47,2.33-2.87,5.19-5.48,8.34-7.42,7.23-4.42,12.31-3.41,20.03-1.08,3.78,1.14,6.81,3.9,10.01,6.07,3.16,2.05,6.62,4.13,10.01,5.76,1.33.58,2.86.11,4.17-.26,1.9-.17,3.95-.2,5.84.03,3.42.52,6.48,2.74,10.01,2.68,3.1.02,6.12-1.19,9.18-1.53,1.9-.15,3.95-.23,5.84.11,2.47.56,5.02,1.21,7.51,1.69"/><path class="b" d="M12.14,195.78c4.99.37,10.03-.15,15.02-.17,2.5-.18,5.12-.46,7.51-1.26,1.9-.63,3.76-1.99,5.84-1.8,5.12.87,7.16,9.7,10.85,13.02,2.18,2,4.4-.43,5.84-2.08,1.3-1.46,2.71-3.13,4.17-4.43,5.35-4.67,8.04-.55,13.35.88,2.4.55,4.2,2.42,5.84,4.13,2.43,2.61,4.1,1.51,5.84-1.06,1.38-2.09,2.73-4.56,4.17-6.61,2.29-3.35,5.51-6.17,9.18-7.92,3.65-1.82,7.87-1.29,11.68-.33,2.78.65,5.67,1.27,8.34,2.29,4.64,1.99,8.81,5,13.35,7.19,1.85.87,3.64,2.73,5.84,2.38,1-.42,2.23-.92,3.34-.84,1.96.16,4.03.54,5.84,1.34,4.19,2.07,7.55,4.53,12.52,3.2,4.18-1.08,8.23-2.97,12.52-3.64,2.22-.2,4.53.27,6.68.8"/><path class="b" d="M12.14,193.49c3,.65,6.14.36,9.18.22,4.16.04,8.37-.07,12.52-.37,2.09-.22,3.91-1.55,5.84-2.25,5.03-1.78,6.98,5.25,9.18,8.43,2.13,3.64,4.13,5.68,7.51,1.83,5.67-6.13,7.9-9.15,15.85-3.99,2.84,1.46,6.03.6,8.34,3.31,1,1.07,2.03,2.55,3.34,3.28,2.86.95,4.57-3.85,5.84-5.73,2.98-5.55,7.35-11.91,14.19-12.51,3.1-.08,6.17.9,9.18,1.5,4.93.88,9.75,2.43,14.19,4.78,1.9.92,3.96,1.78,5.84,2.74,1.6.71,3.14,2.26,5.01,2.08,1.03-.31,2.26-.72,3.34-.83,1.08,0,2.33.39,3.34.76,6.39,2.72,9.61,8.41,17.52,5.37,2.55-1.07,5.18-2.29,7.51-3.78,3.02-2.28,6.07-4.15,10.01-3.03"/><path class="b" d="M12.14,190.25c1.58.57,3.33,1.01,5.01,1.12,1.34.1,2.83-.03,4.17.09,2.75.41,5.58.38,8.34.31,1.91-.02,3.93.41,5.84.15,1.75-.35,3.41-1.36,5.01-2.1,4.48-2.37,6.42,3.59,8.34,6.48,1.99,3.33,3.98,5.88,7.51,2.44,3.22-3.08,6.89-6.73,11.68-4.66,1.66.64,3.3,1.69,5.01,2.25,1.86.63,3.96.15,5.84.62,3.01.74,4.2,4.12,6.68,5.62,5.88,1.7,7.51-21.4,23.36-17.41,3.87.8,7.87,1.31,11.68,2.38,2.53.7,5.06,1.72,7.51,2.66,2.24.84,4.58,1.76,6.68,2.92,4.78,2.1,4.63-3.41,13.35,3.94,7.94,7.24,12.52,6.17,20.86.21,3.23-2.72,6.07-7.29,10.85-6.83"/><path class="b" d="M12.14,186.29c1.58.72,3.31,1.47,5.01,1.85,1.33.3,2.86.28,4.17.68,1.6.5,3.32,1.08,5.01,1.18,1.91.13,3.94,0,5.84.29,2.19.42,4.56.77,6.68-.17,3.53-1.48,5.56-3.85,8.34.3,2.22,2.86,4.69,9.19,9.18,6.09,6.11-4.3,8.08-4.43,15.02-1.92,2.14.69,4.48.34,6.68.46,5.86-.17,7.31,7.09,10.85,5.57,3.09-2.35,4.37-6.51,6.68-9.54,2.5-3.6,6.22-7.04,10.85-7.1,2.5-.03,5.04.54,7.51.85,7.18,1.03,14.15,3.36,20.86,6.03,1.64.22,3.34-.7,5.01-.49,4.41.79,7.36,5.45,10.85,7.98,4.55,3.7,9.46,3.59,14.19.2,1.92-1.37,4.15-2.56,5.84-4.24,2.82-2.55,5.29-6.11,9.18-7.03"/><path class="b" d="M12.14,182.19c1.58.87,3.3,1.79,5.01,2.39,1.03.38,2.31.55,3.34.94,1.66.71,3.26,1.88,5.01,2.39,1.87.55,3.93.32,5.84.44,1.38.08,2.84.49,4.17.83,6.03,1.39,7.54-3.03,10.85-1.86,3.07,1.89,4.5,6.41,8.34,7.05,2.02.12,3.94-.98,5.84-1.51,3.85-1.31,7.8.19,11.68.43,2.49.29,5.02-.53,7.51-.36,5.84.14,8.2,10.22,13.35,2.78,3.58-5.13,7.38-11.72,14.19-12.59,3.05-.24,6.18.37,9.18.84,2.78.55,5.6,1.31,8.34,2.04,2.21.6,4.57,1.09,6.68,2.01,2.95,1.64,4.59-.23,7.51.01,2.06.24,3.57,2.04,5.01,3.37,2.36,2.33,4.63,5.02,7.51,6.72,3,1.81,6.92,1.99,10.01.32,1.94-1.06,3.82-2.49,5.84-3.4,4.97-2.07,7.83-7.2,12.52-9.67"/><path class="b" d="M12.14,178.07c1.61.9,3.32,1.93,5.01,2.68,1.04.48,2.35.81,3.34,1.4,2.58,1.74,4.9,4.68,8.34,4.35,1.63-.09,3.4-.28,5.01.12,2.68.68,5.55,2.09,8.34,1.21,1.85-.64,3.85-2.41,5.84-1.24,2.64,1.81,4.92,4.8,8.34,5.03,2.21.11,4.47-.46,6.68-.51,2.77-.17,5.58.41,8.34.43,2.5-.11,4.99-1.05,7.51-.88,3.2.12,5.89,2.11,8.34,3.97,2.4,1.85,4.62,1.81,6.68-.5,1.7-1.86,3.32-4.06,5.01-5.94,6.23-7.13,10.48-6.89,19.19-4.9,3.29.86,6.69,1.55,10.01,2.3,1.35.34,2.78,1.02,4.17,1.21,1.1.15,2.31-.38,3.34-.67,1.32-.38,2.9-.48,4.17.12,1.28.65,2.35,2.01,3.34,3.02,2.52,2.62,5.01,5.61,8.34,7.23,5.8,2.62,9.16-.33,14.19-2.65,2.3-.9,4.74-1.83,6.68-3.41,2.59-1.98,4.77-4.65,7.51-6.44"/><path class="b" d="M12.14,174.29c1.66.8,3.37,1.81,5.01,2.64,1.41.69,3.06,1.37,4.17,2.53,2.12,2.09,4.09,5.57,7.51,5.2,4.64-.91,5.78-.43,10.01,1.36,3.09,1.37,4.65.69,7.51-.61,1.41-.58,2.95-.09,4.17.69,1.56.92,3.24,1.96,5.01,2.43,2.14.59,4.47.52,6.68.55,2.2.02,4.48.25,6.68.25,2.78,0,5.56-.98,8.34-.75,2.61.19,5.18,1.15,7.51,2.3,2.56,1.18,5.41,3.58,8.34,2.24,2.99-1.66,5.08-4.66,7.51-6.99,6.54-6.8,10.87-5.31,19.19-3.31,2.17.52,4.48.84,6.68,1.23,1.62.32,3.35.88,5.01.94,1.11.02,2.3-.57,3.34-.9,2.38-.87,4.98-.39,6.68,1.57,2.98,3.16,5.89,6.85,10.01,8.55,4.72,2,8.98-.43,13.35-2.08,2.22-.82,4.64-1.46,6.68-2.71,3.05-1.81,5.45-4.64,8.34-6.66"/><path class="b" d="M12.14,171.21c2.85,1.24,5.9,2.55,8.34,4.49,1.56,1.51,2.78,3.62,4.17,5.27,1.28,1.56,3.04,2.35,5.01,1.63,2.31-.85,4.39-1.17,6.68-.04,2.22.88,4.26,2.57,6.68,2.88,1.43.09,2.87-.62,4.17-1.12,1.61-.71,3.42-.34,5.01.26,1.6.56,3.33,1.17,5.01,1.48,5.51.98,11.14.43,16.69.29,4.08.18,7.82,2.16,11.68,3.3,1.88.6,3.85,1.44,5.84,1.53,3.83-.1,6.49-3.55,9.18-5.86,7.44-7.29,10.97-5.03,20.03-3.17,3.02.5,6.13.88,9.18,1.1,1.43.09,2.86-.64,4.17-1.1,2.2-.82,4.84-.68,6.68.91,3.59,3.22,6.77,7.5,11.68,8.72,4.49,1.11,9.05-.66,13.35-1.82,6.62-1.53,9.05-4.6,14.19-8.39"/><path class="b" d="M12.14,168.85c3.81,1.28,7.9,3.07,10.01,6.69,1.38,1.94,2.51,4.86,5.01,5.54,2.07.15,3.82-1.54,5.84-1.73,3.82-.04,6.58,3.3,10.01,4.47,1.36.42,2.89.05,4.17-.46,3.43-1.7,7.25-.49,10.85-.16,4.14.49,8.36.14,12.52.3,3.87.15,7.34,2.13,10.85,3.55,2.65.97,5.58,1.22,8.34,1.69,5.8.95,9.73-4.45,14.19-7.18,5.3-3.73,10.17-1.47,15.85-.38,1.61.27,3.38.28,5.01.31,1.62.04,3.39.26,5.01-.02,2.93-.93,6.14-2.62,9.18-1.1,2.21,1.11,3.91,3.18,5.84,4.68,2.16,1.78,4.75,3.25,7.51,3.83,2.99.65,6.16.49,9.18.11,2.79-.39,5.68-.87,8.34-1.83,3.77-1.44,6.71-4.42,10.01-6.63"/><path class="b" d="M12.14,167.15c5.28,1.47,8.34,3.62,10.85,8.51.85,1.31,1.79,3.05,3.34,3.61,1.86.35,3.4-1.25,5.01-1.92,4.3-1.63,8.02,3.13,11.68,4.67,3.37,1.45,6.62-1.32,10.01-1.36,3.31-.32,6.7-.35,10.01-.48,3.04-.11,6.27-.34,9.18.76,3.77,1.33,6.86,4.41,10.85,5.16,1.9.27,3.93.23,5.84.37,6.53.93,11.13-4.59,16.69-6.89,3.75-1.65,7.85-.64,11.68.11,1.61.32,3.38.36,5.01.34,1.62,0,3.38.13,5.01.02,1.42-.07,2.86-.78,4.17-1.25,3.77-1.38,7.01-.78,10.01,1.91,2.65,2.35,5.66,4.56,9.18,5.33,2.98.71,6.13.88,9.18.95,3.34.03,6.8-.14,10.01-1.12,3.75-1.21,6.78-3.96,10.01-6.1"/><path class="b" d="M12.14,166.05c2.36.66,4.78,1.65,6.68,3.24,1.32,1.12,2.47,2.86,3.34,4.34,1.06,1.7,2.57,4.68,5.01,3.68,2.09-1.05,4.12-3.17,6.68-2.4,3.99,1.15,6.81,4.83,10.85,5.8,1.97.32,3.99-.41,5.84-1,3.82-1.06,7.78-1.87,11.68-2.55,4.28-.71,8.06-.81,11.68,1.92,2.93,1.85,5.55,4.82,9.18,5.13,11.27.09,10.24-.06,20.03-4.87,2.84-1.32,6.06-1.9,9.18-1.63,4.71.28,9.46,1.31,14.19.94,2.49-.58,4.9-1.85,7.51-1.93,5.43-.48,8.61,5,13.35,6.57,4.27,1.4,8.92,1.18,13.35,1.64,3.9.31,7.95-.04,11.68-1.24,2.7-.99,5.12-2.78,7.51-4.35"/><path class="b" d="M12.14,165.54c10.32,2.54,9.41,11.53,14.19,9.84,1.88-.93,3.59-2.76,5.84-2.61,5.46.7,9.15,6.99,15.02,6.09,3.67-.62,7.31-1.79,10.85-2.93,4.18-1.32,9.13-3.86,13.35-1.44,2.1,1.25,3.99,3.04,5.84,4.62,1.18,1.06,2.61,2.18,4.17,2.59,2.72.54,5.59-.12,8.34-.05,3.8.02,7.37-1.54,10.85-2.9,3.69-1.49,7.69-2.36,11.68-2.26,1.92.03,3.96.13,5.84.54,2.42.52,5.03,1.22,7.51.68,1.61-.52,3.34-1.16,5.01-1.46,8.34-1.87,10.01,3.82,16.69,5.73,4.36.99,8.94.31,13.35.91,1.9.26,3.93.2,5.84.03,1.33-.04,2.84-.01,4.17-.14,3.33-.27,6.41-1.9,9.18-3.68"/><path class="b" d="M12.14,165.48c9.27,2.37,8.95,9.57,13.35,7.94,1.38-.63,2.73-1.68,4.17-2.17,3.08-.9,5.87,1.28,8.34,2.8,2.01,1.31,4.23,2.65,6.68,2.83,3.68.19,7.35-.92,10.85-1.93,4-1.19,7.57-3.72,11.68-4.53,4.53-.94,8.4,5.02,11.68,7.51,2.34,2.02,5.53,1.3,8.34,1.22,2.19-.06,4.51.04,6.68-.36,3.64-.71,7.19-2.05,10.85-2.72,3.55-.65,7.26-.94,10.85-.48,2.51.32,4.93,1.66,7.51,1.53,1.66-.17,3.37-.84,5.01-1.13,2.16-.45,4.48-.64,6.68-.43,3.05.38,5.73,2.2,8.34,3.68,2.26,1.25,4.96,1.66,7.51,1.67,2.48,0,5.03-.33,7.51-.27,1.63.03,3.38.3,5.01.35,1.04,0,2.29-.19,3.34-.13,4.71.42,9.13.22,13.35-2.19"/><path class="b" d="M12.14,165.41c11.05,2.92,7.23,9.34,15.85,4.78,2.17-.99,4.68-.43,6.68.71,2.89,1.59,5.74,3.9,9.18,4,4.24,0,8.49-1.09,12.52-2.34,2.92-.99,5.61-2.69,8.34-4.08,4.08-2.09,6.05-1.33,9.18,1.76,1.66,1.55,3.32,3.36,5.01,4.88,1.36,1.17,3.24,1.68,5.01,1.53,3.32-.31,6.7.22,10.01,0,4.74-.5,9.42-1.81,14.19-2.16,2.47-.21,5.06-.26,7.51.15,1.95.29,3.86,1.27,5.84,1.38,2.21-.03,4.47-.66,6.68-.84,3.63-.32,7.46-.18,10.85,1.3,8.86,4.37,11.04,2.31,20.03,2.17,1.34.02,2.84.2,4.17.25,1.34-.03,2.83-.25,4.17-.11,4.17.39,8.55.61,12.52-.98"/><path class="b" d="M12.14,164.7c9.76,2.04,8.02,7.4,14.19,5.02,2.39-.99,5.13-1.22,7.51-.07,3.14,1.53,6.34,3.76,10.01,3.29,5.73-.7,11.61-1.93,16.69-4.78,6.5-3.65,8.27-6.24,14.19.15,2.49,2.16,4.71,5.57,8.34,5.62,1.34.02,2.83-.12,4.17-.03,2.76.16,5.57.79,8.34.69,4.18-.11,8.36-.88,12.52-1.21,2.47-.2,5.05-.28,7.51.05,1.66.18,3.35.89,5.01,1.03,3.32.05,6.69-.38,10.01-.2,4.02.09,7.9,1.34,11.68,2.56,2.4.77,5.04.68,7.51.39,4.13-.48,8.36-.79,12.52-.51,1.91.2,3.93-.23,5.84-.1,3.87.25,7.87.67,11.68-.29"/><path class="b" d="M12.14,163.45c10.29,1.48,8.26,6.69,15.02,5.7,7.78-1.52,9.14,3.67,16.69,1.89,3.91-.86,7.93-1.65,11.68-3.09,2.94-1.17,5.65-2.98,8.34-4.6,3.27-1.99,5.48-2.03,8.34.63,1.6,1.47,3.3,3.09,5.01,4.44,1.4,1.23,3.1,2.47,5.01,2.64,1.91.14,3.93-.4,5.84-.13,3.35.41,6.62,1.67,10.01,1.74,4.73.24,9.47-.61,14.19-.88,2.5-.22,5.06.06,7.51.53,3.03.25,6.15.4,9.18.71,2.78.27,5.63.7,8.34,1.37,2.97.82,6.09,1.57,9.18.94,2.18-.33,4.46-.73,6.68-.8,3.59-.05,7.25.05,10.85,0,1.92.03,3.92-.42,5.84-.33,3.31.11,6.71.5,10.01.08"/><path class="b" d="M12.14,162.16c3.57.26,7.29,1,10.01,3.49,1.01.84,2.12,1.92,3.34,2.45,2.32,1.13,5.01,1.27,7.51,1.71,2.16.51,4.46,1.06,6.68.57,2.51-.56,5.01-1.54,7.51-2.15,3.38-.88,6.91-1.63,10.01-3.3,1.97-1,3.93-2.28,5.84-3.37,2.12-1.27,4.49-2.01,6.68-.44,2.04,1.33,3.81,3.26,5.84,4.61,2.51,1.6,5.3,3.1,8.34,2.15,1.59-.45,3.36-.79,5.01-.46,2.59.47,4.99,1.85,7.51,2.59,5.7,1.85,11.76.87,17.52-.14,3.6-.66,7.3.15,10.85.77,4.14.96,8.34,1.9,12.52,2.71,1.6.32,3.37.61,5.01.53,3.35-.35,6.61-1.66,10.01-1.64,2.47-.05,5.03.24,7.51.12,3.05-.12,6.16-.53,9.18-.99,3.6-.45,7.25.47,10.85.48"/><path class="b" d="M12.14,160.77c3.06.12,6.36.01,9.18,1.37,2.49,1.2,4.46,3.35,6.68,4.94,4.67,3.54,9.19,2.78,14.19.5,3.21-1.26,6.7-1.75,10.01-2.63,2.59-.69,5.14-1.79,7.51-3.02,2.78-1.42,6.23-3.54,9.18-1.35,1.92,1.23,3.79,2.8,5.84,3.82,2.87,1.34,6.34,1.61,9.18.07,1.76-.94,3.9-1.48,5.84-.78,2.36.77,4.46,2.35,6.68,3.43,3.81,2,8.27,2.94,12.52,2,3.06-.53,6.03-2.13,9.18-2.05,4.31.28,8.43,1.79,12.52,3.06,2.97.79,6.11,1.27,9.18,1.51,3.14.29,6.13-1.1,9.18-1.57,3.57-.54,7.27-.08,10.85-.54,3.9-.46,7.72-1.88,11.68-1.86,2.8.01,5.59.86,8.34,1.29"/><path class="b" d="M12.14,159.32c3.85-.15,7.96-.72,11.68.54,8.88,4.43,6.87,8.1,18.36,4.81,4.41-.91,8.97-1.26,13.35-2.33,3.1-.67,6.01-2.35,9.18-2.71,3.99-.23,7,3.26,10.85,3.77,7.56.9,9.28-5.84,15.02-2.99,4.88,2.62,9.14,7.3,15.02,7.46,3.24.09,6.23-1.49,9.18-2.62,3.48-1.33,7.33-.23,10.85.42,3.55.84,7.23,1.28,10.85,1.69,2.18.34,4.46.75,6.68.67,3.31-.4,6.66-1.07,10.01-1.13,12.64-1.07,11.95-6.04,26.7-1.22"/><path class="b" d="M12.14,157.87c3.04-.33,6.14-.77,9.18-1.07,3.48-.45,6.32.03,9.18,2.13,2.13,1.69,4.78,2.67,7.51,2.68,5-.1,10.01-.77,15.02-.67,3.43-.03,6.67-1.44,10.01-1.99,2.26-.35,4.6.18,6.68,1.08,6.37,2.83,9.65,1.05,15.02-2.58,8.16-4.98,14.29,13.17,25.87,7.56,1.91-.81,3.83-1.93,5.84-2.48,3.26-.69,6.73-.32,10.01-.93,8.94-1.72,8.92.54,16.69,2.05,1.61.21,3.38.1,5.01.06,2.49-.07,5.09-.23,7.51-.88,2.89-.72,5.54-2.35,8.34-3.3,3.01-1.11,6.25-.19,9.18.75,2.19.67,4.51,1.24,6.68,1.99"/><path class="b" d="M12.14,156.47c2.76-.35,5.59-.72,8.34-1.12,3.26-.5,6.93-1.16,10.01.38,3.02,2.02,5.49,3.03,9.18,2.95,3.05.01,6.12-.77,9.18-.56,1.36.06,2.83.41,4.17.55,1.63.15,3.4,0,5.01-.33,3.57-.93,7.27-1.37,10.85-.21,2.14.6,4.43,1.22,6.68.98,7.99-1.03,9.88-9.68,18.36-2.31,6.72,5.63,10.23,10.3,19.19,5.09,2.33-1.3,4.97-2.02,7.51-2.75,1.71-.57,3.42-1.53,5.01-2.38,2.41-1.39,4.93-1.76,7.51-.56,5.17,1.93,8.21,4.53,14.19,3.92,12.13-.07,14.19-7.64,21.7-5.02,3.6,1.32,7.06,3.21,10.85,3.98"/><path class="b" d="M12.14,155.2c2.76-.34,5.6-.59,8.34-1.01,3.29-.47,6.79-.88,10.01.15,1.1.37,2.24,1.16,3.34,1.53,1.02.36,2.26.56,3.34.59,1.92.06,3.95-.12,5.84-.45,1.62-.32,3.35-.75,5.01-.76,2.82-.05,5.5,1.44,8.34,1.22,3.05-.14,6.1-1.2,9.18-.88,4.15.49,8.47,1.95,12.52.14,2.41-.93,4.5-2.67,6.68-4.01,6.55-3.17,11.17,5.07,15.85,8.26,3.8,3.01,7.62,2.59,11.68.35,2.46-1.36,5.06-2.68,7.51-4.07,2.31-1.4,4.1-3.85,6.68-4.79,1.33-.26,2.85.04,4.17.23,1.63.29,3.41.56,5.01,1.03,2.3.69,4.42,2.09,6.68,2.87,1.57.53,3.38.49,5.01.37,1.92-.14,3.97-.34,5.84-.81,2.94-.69,5.59-2.38,8.34-3.54,3.41-1.54,6.81-.34,10.01,1.12,2.67,1.13,5.46,2.27,8.34,2.72"/><path class="b" d="M12.14,154.03c6.93-.76,14.32-2.03,20.86,1.09,2.19.64,4.52.08,6.68-.44,3.84-.67,7.77-3.13,11.68-1.61,1.84.68,3.85,1.31,5.84,1.26,2.78-.06,5.55-.97,8.34-.95,3.6.03,7.34.95,10.85-.26,3.09-.92,5.57-3.2,8.34-4.74,1.55-.78,3.45-.5,5.01.11,4.53,1.61,7.14,6.1,10.85,8.91,4.84,4.12,9.57,2.35,14.19-1.04,1.66-1.24,3.5-2.54,5.01-3.97,1.52-1.42,2.92-3.45,5.01-4.05,1.59-.48,3.37-.67,5.01-.92,1.33-.26,2.81-.64,4.17-.72,3.13-.17,5.7,2.04,8.34,3.36,3.09,1.59,6.73.55,10.01.26,3.42-.39,6.62-2.01,10.01-2.46,2.58-.36,5.16.54,7.51,1.52,3.15,1.28,6.58,2.31,10.01,1.84"/><path class="b" d="M12.14,152.84c2.74-.38,5.58-.69,8.34-.76,2.8.05,5.67.54,8.34,1.37,3.68,1.17,4.27,2.8,8.34.97,2.18-1.01,4.45-2.05,6.68-2.95,1.56-.68,3.28-1.43,5.01-1.45,2.61.06,4.92,1.79,7.51,2.05,2.8.37,5.61-.53,8.34-1.02,2.45-.47,5.04-.45,7.51-.75,2.95-.34,5.82-1.5,8.34-3.05,2.25-1.36,4.76-3.11,7.51-2.22,4.2,1.04,7.08,4.38,10.01,7.32,5.26,5.34,9.86,6.53,15.85,1.38,2.57-2.11,4.94-4.64,7.51-6.74,2.01-1.47,4.46-2.38,6.68-3.46,4.73-2.84,7.83-3.44,12.52-.02,3.82,2.82,5.57,2.37,10.01,1.84,1.9-.16,3.93-.12,5.84-.21,2.47-.12,5.06-.32,7.51.15,3.13.56,6,2.32,9.18,2.69,2.22.26,4.5-.41,6.68-.77"/><path class="b" d="M12.14,151.5c6.18-1.24,11.7-1.47,17.52,1.3,4.11,2.23,4.15,2.83,8.34.08,1.84-1.26,3.84-2.49,5.84-3.48,1.53-.81,3.25-1.65,5.01-1.71,1.72-.02,3.42.8,5.01,1.36,3.52,1.53,7.36.52,10.85-.58,4.4-1.44,9.07-2.18,13.35-3.98,2.45-.92,4.87-2.43,7.51-2.68,2.71.08,5.34,1.46,7.51,3.01,7.96,7.64,12.68,13.69,22.53,4.11,3.47-2.91,7.04-5.84,10.85-8.3,2.63-1.98,5.74-3.95,9.18-3.49,5.1.61,7.74,5.99,13.35,4.45,3.03-.66,6.18-.12,9.18.43,2.22.37,4.53.82,6.68,1.52,1.64.51,3.35,1.3,5.01,1.75,3.39,1.11,6.73-.75,10.01-1.39"/><path class="b" d="M12.14,149.93c5.85-1.67,11.11-2.14,16.69.71.78.38,1.78.97,2.5,1.44.93.71,2.11,1.5,3.34,1.25,1.92-.55,3.43-2.21,5.01-3.36,2.71-1.96,5.72-4.25,9.18-4.43,2.85.03,5.49,1.75,8.34,1.72,3.23-.19,6.25-1.71,9.18-2.95,3.22-1.44,6.62-2.65,10.01-3.6,2.72-.72,5.52-1.64,8.34-1.85,1.4.03,2.9.51,4.17,1.06,1.06.48,2.33,1.08,3.34,1.67,1.81,1.34,3.33,3.27,5.01,4.76,6.99,6.41,12.3,5.22,19.19-.49,6.12-4.37,11.48-12.92,20.03-11.13,3.94.64,6.78,4.45,10.85,4.47,2.48-.21,5.02-.99,7.51-.38,3.39.76,6.76,1.9,10.01,3.1,2.14.77,4.34,1.93,6.68,1.93,2.89-.21,5.5-1.93,8.34-2.41"/><path class="b" d="M12.14,148.16c8.43-3.25,13.63-2.4,20.86,2.89,2.18,1.25,4.29-.64,5.84-2.05,1.52-1.4,3.22-2.86,5.01-3.9,3.51-2.25,7.05-1.46,10.85-.71,4.04.43,8.25-3.23,11.68-5.09,2.81-1.71,5.92-3.16,9.18-3.7,3.28-.47,6.81-.58,10.01.35,1.39.47,2.86,1.22,4.17,1.88,1.12.51,2.45,1.13,3.34,2,2.92,2.95,5.91,6.29,10.01,7.53,5.91,1.9,11.56-1.97,15.85-5.66,2.73-2.48,5.18-5.5,8.34-7.47,3.48-2.16,7.97-1.91,11.68-.5,2.28.85,4.34,2.46,6.68,3.18,1.89.58,3.95.07,5.84-.19,2.25-.29,4.58.3,6.68,1.08,2.51.92,5.05,2.02,7.51,3.04,2.07.85,4.41,1.88,6.68,1.22,2.49-.81,4.91-2.12,7.51-2.57"/><path class="b" d="M12.14,146.24c8.3-3.54,12.39-3.54,20.03,1.53,2.43,2.01,4.39,1.66,6.68-.28,5.31-4.79,7.77-6.1,15.02-5.64,3.03.08,5.29-2.55,7.51-4.26,2.61-2.18,5.27-4.55,8.34-6.07,6.4-3.46,13.63-.07,19.19,3.5,1.04.61,2.41,1.11,3.34,1.9,1.65,1.5,3.21,3.37,5.01,4.71,6.67,5.3,14.61,3.58,20.86-1.43,3.39-2.61,6.02-6.42,10.01-8.19,3.44-1.4,7.4-.77,10.85.29,1.99.65,3.9,1.8,5.84,2.57,2.37,1.03,5.03.51,7.51.29,1.66-.09,3.44.25,5.01.79,2.55.89,5.04,2.16,7.51,3.24,2.32,1.01,5,2.23,7.51,1.16,2.45-.88,4.9-2.12,7.51-2.47"/><path class="b" d="M12.14,144.1c8.69-3.72,12.66-4.3,20.86,1.03,4.19,3.42,7.29-.72,10.85-2.76,2.28-1.32,4.92-2.05,7.51-2.47,3.92-.35,4.97-1.59,7.51-4.34,2.06-2.25,4.26-4.58,6.68-6.46,6.11-4.66,11.23-5.24,17.52-.57,2,1.26,3.89,2.92,5.84,4.25,1.5.78,3.08,1.78,4.17,3.09,4.98,6.2,12.88,7.12,20.03,4.44,2.72-1.02,5.3-2.61,7.51-4.48,3.35-2.84,6.99-6.04,11.68-5.8,2.51.06,5.12.48,7.51,1.27,2.23.73,4.37,1.99,6.68,2.49,3.29.69,6.77-.43,10.01.65,2.59.73,5.07,2.05,7.51,3.16,2.31,1.02,4.98,2.27,7.51,1.3,2.72-.9,5.45-2.15,8.34-2.35"/><path class="b" d="M12.14,141.67c5.31-2,11.07-4.37,16.69-2.09,6.45,2.25,6.98,6.19,14.19,2.04,3.46-1.8,7.21-3.09,10.85-4.48,1.67-1.02,2.96-2.85,4.17-4.34,1.48-1.88,3.17-3.86,5.01-5.42,1.72-1.46,3.75-2.75,5.84-3.61,1.01-.41,2.21-.99,3.34-.87,1.34,0,2.83,0,4.17,0,1.05.04,2.33-.15,3.34.24,3.12,1.83,5.65,4.6,8.34,6.97,1.01.83,2.43,1.52,3.34,2.47,1.32,1.39,2.64,3.11,4.17,4.28,3.82,2.89,8.98,1.77,13.35,1.07,3.45-.65,6.94-1.68,10.01-3.4,3.04-1.64,5.82-4,9.18-4.99,3.8-1.07,7.92-.5,11.68.49,2.23.63,4.41,1.75,6.68,2.27,2.71.69,5.61.29,8.34.75,2.61.42,5.13,1.54,7.51,2.64,2.57,1.13,5.5,2.6,8.34,1.63,2.98-.88,6.03-2,9.18-1.9"/><path class="b" d="M12.14,138.87c4.6-1.35,9.33-3.17,14.19-2.9,2.29.17,4.6.9,6.68,1.88,2.93,1.57,5.71,3.22,9.18,2.34,2.31-.52,4.57-1.57,6.68-2.62,1.63-.88,3.52-1.67,5.01-2.79,1.88-1.8,3.33-4.24,5.01-6.23,3.59-4.6,8.1-5.88,13.35-7.69,2.75.02,5.59-.08,8.34.05,2.53,1.77,4.57,4.32,6.68,6.55,1.27,1.32,3.09,2.34,4.17,3.84,4.11,5.64,6.58,6.92,13.35,4.58,5.77-2.01,11.97-2.77,17.52-5.4,5.74-2.87,11.31-3.31,17.52-1.78,2.52.64,4.96,1.82,7.51,2.37,2.16.5,4.49.59,6.68.95,3.79.51,7.25,2.34,10.85,3.5,2.47.91,5.08.12,7.51-.54,2.42-.63,5.02-.92,7.51-.58"/><path class="b" d="M12.14,135.63c2.45-.66,5.04-1.09,7.51-1.68,4.38-1.04,9.11-1.33,13.35.4,2.8,1.02,5.38,2.89,8.34,3.44,4.35.65,8.28-2.25,11.68-4.58,2.91-2.95,4.83-7.01,8.34-9.38,2.71-1.95,6.05-2.69,9.18-3.64,1.07-.37,2.31-.89,3.34-1.35,1.62-.14,3.38-.04,5.01-.07.42,0,1.25,0,1.67,0,1.31.6,2.38,2,3.34,3.04,1.81,2.19,3.65,4.56,5.84,6.39,3.52,4.44,5.71,10.23,12.52,7.15,3.34-1.44,6.51-3.44,10.01-4.49,4.12-1.17,8.42-1.87,12.52-3.15,4.86-1.38,10.09-1.53,15.02-.41,2.81.68,5.52,1.97,8.34,2.61,3.02.73,6.18,1.18,9.18,2.03,2.76.72,5.48,2,8.34,2.24,2.24.07,4.48-.77,6.68-1.08,2.46-.44,5.08-.32,7.51.25"/><path class="b" d="M12.14,131.99c5.22-.86,10.55-1.75,15.85-1.47,2.87.2,5.74,1.03,8.34,2.23,2.43,1.04,4.77,2.85,7.51,2.91,2.8-.04,5.27-1.77,7.51-3.28,2.02-1.43,3.42-3.78,5.01-5.63,2.55-3.18,6.12-5.58,10.01-6.77,2.85-.75,5.74-1.66,8.34-3.08,1.87-.38,3.94-.1,5.84-.16,1.97,1.52,3.5,3.8,5.01,5.75,1.18,1.71,2.94,3.24,4.17,4.89,2.79,4.38,5.41,10.4,11.68,7.57,4.6-2.01,8.44-5.66,13.35-7,2.43-.69,5.05-.9,7.51-1.44,4.64-1.02,9.44-1.64,14.19-1.05,3.77.28,7.29,1.87,10.85,3,5.21,1.54,10.52,3,15.85,4.03,2.22.35,4.5-.39,6.68-.75,3.31-.7,6.81-.46,10.01.62"/><path class="b" d="M12.14,128.17c5.23-.85,10.61-.83,15.85-.15,3.13.43,6.3,1.27,9.18,2.58,2.44,1,4.74,3,7.51,2.83,2.81-.38,5.48-2.07,7.51-3.99,2.3-2.58,4.63-5.35,7.51-7.31,3.2-2.43,7.09-3.69,10.85-4.95,1.96-.67,3.78-2.2,5.84-2.51,1.04,0,2.3,0,3.34,0,2.1,1.39,3.51,3.8,5.01,5.77,1.23,1.79,2.87,3.57,4.17,5.29,2.39,3.73,4.49,10.18,10.01,9.34,5.73-1.1,9.84-5.78,15.02-8.12,2.33-1.12,5.02-1.27,7.51-1.83,4.35-1.05,8.89-1.65,13.35-1.04,7.28.55,13.81,4.26,20.86,5.85,2.97.67,6.11,1.54,9.18,1.07,5.47-1.18,9.61-1.87,15.02.28"/><path class="b" d="M12.14,124.61c3.01-.52,6.14-.86,9.18-.37,4.81.73,9.6,1.94,14.19,3.55,5.44,1.84,7.48,5.45,13.35,1.91,2.54-1.41,4.37-3.93,6.68-5.66,3.27-2.71,6.95-5.04,10.85-6.73,2.24-.89,4.6-1.76,6.68-3.01,3.48-2.03,5.71-2.61,8.34.97,2.38,3.55,5.37,6.94,7.51,10.62,2.88,5.87,6.01,11.95,13.35,7.53,4.5-2.5,8.58-5.9,13.35-7.87,1.85-.7,3.95-.93,5.84-1.52,2.7-.78,5.49-1.75,8.34-1.66,4.51.24,9.04,1.23,13.35,2.57,4.68,1.58,9.3,3.58,14.19,4.49,9.27,2.06,12.34-3.22,22.53.73"/><path class="b" d="M12.14,121.65c4.13-.88,7.64-.93,11.68.4,4.18,1.3,8.41,2.67,12.52,4.18,3.41,1.07,6.26,4,10.01,2.45,3.19-1.1,5.61-3.75,8.34-5.63,3.62-2.71,7.62-4.99,11.68-6.98,2.56-1.1,5.11-2.41,7.51-3.82,4.27-2.54,6.22.86,8.34,4.08,2.24,3.41,5.03,6.7,6.68,10.46,3.09,6.49,6.24,10.08,13.35,5.67,1.99-1.22,3.9-2.78,5.84-4.07,2.11-1.3,4.4-2.53,6.68-3.51,1.84-.82,3.93-1.22,5.84-1.82,2.7-.85,5.49-1.92,8.34-2.08,3.41-.02,6.72,1.3,10.01,2.04,6.22,1.45,12.04,4.43,18.36,5.51,9.27,2.08,12.77-2.81,22.53.5"/><path class="b" d="M12.14,119.43c4.71-.98,8.1-.37,12.52,1.32,3.53,1.31,7.23,2.32,10.85,3.35,1.06.34,2.33.68,3.34,1.14,2.02,1.1,4.29,2.43,6.68,1.77,3.54-.99,6.13-4.01,9.18-5.93,3.91-2.64,8.32-4.53,12.52-6.64,1.98-.88,3.95-2.03,5.84-3.07,1.52-.86,3.55-1.32,5.01-.1,2.05,1.9,3.46,4.67,5.01,6.98,1.73,2.58,3.72,5.28,5.01,8.13,1.26,2.32,2.58,5.16,5.01,6.47,3.41,1.57,7.21-.3,10.01-2.31,2.22-1.56,4.29-3.54,6.68-4.86,4.83-2.3,9.92-4.15,15.02-5.74,4.3-1.22,7.67.29,11.68,1.59,2.47.71,5.07,1.28,7.51,2.11,3.85,1.27,7.71,2.72,11.68,3.59,2.45.53,5,1.12,7.51,1.25,2.79.01,5.59-.8,8.34-1.15,2.76-.39,5.64-.11,8.34.53"/><path class="b" d="M12.14,117.24c4.63-.57,9.11.97,13.35,2.64,2.66,1.04,5.52,1.65,8.34,1.98,1.36.21,2.85.53,4.17.9,2.41.98,4.68,3.51,7.51,2.71,3.67-1.7,6.42-5.22,10.01-7.19,3.65-2.19,7.88-3.26,11.68-5.12,1.36-.61,2.85-1.37,4.17-2.07,1.77-1,4.15-1.71,5.84-.19,2.1,1.99,3.52,4.87,5.01,7.33,1.57,2.59,3.63,5.16,5.01,7.88,1.24,2.08,2.71,4.5,5.01,5.53,4.61,1.66,9.15-1.47,12.52-4.35,1.74-1.48,3.79-2.77,5.84-3.77,1.6-.73,3.43-1.29,5.01-2.07,3.27-1.32,6.48-3.26,10.01-3.75,3.54-.45,6.72,1.59,10.01,2.5,4.49,1.02,9.03,2.06,13.35,3.69,2.99,1.06,6.11,1.97,9.18,2.79,2.15.57,4.43,1.24,6.68,1.14,2.51-.22,5.02-1.01,7.51-1.34,2.46-.35,5.05-.24,7.51.11"/><path class="b" d="M12.14,115.55c4.63-.18,8.99,1.81,13.35,3.06,3.51,1.1,7.24,1.14,10.85,1.62,4.05.27,5.76,6.35,10.01,3.09,3.77-3.07,6.93-7.23,11.68-8.88,2.71-.94,5.66-1.38,8.34-2.41,4.66-1.69,8.07-4.97,11.68.48,1.49,2.22,2.78,4.93,4.17,7.21,1.83,2.65,3.81,5.46,5.84,7.96,2.97,3.74,7.9,3.14,11.68,1.04,3.15-1.92,5.69-4.86,9.18-6.27,2.72-1.35,5.75-2.19,8.34-3.82,3.29-1.77,7.01-4.25,10.85-2.62,1.95.73,3.8,2,5.84,2.49,3.29.65,6.74.66,10.01,1.47,5.78,1.34,11.05,4.33,16.69,6.14,1.57.51,3.36.82,5.01.6,1.65-.26,3.37-.84,5.01-1.18,2.99-.65,6.14-.61,9.18-.49"/><path class="b" d="M12.14,114.51c3.98.06,7.78,1.64,11.68,2.25,4.15.62,8.47.38,12.52,1.68,2.08.44,3.43,2.33,5.01,3.58,2.56,2.11,5.03-.58,6.68-2.49,1.55-1.79,3.18-3.77,5.01-5.28,4.2-3.68,8.41-2.83,13.35-4,3.87-1.1,6.84-3.33,10.01.56,2.06,2.54,3.3,5.91,5.01,8.67.88,1.44,2.21,2.96,3.34,4.21,1.22,1.37,2.59,2.94,4.17,3.92,3.08,1.79,6.97.55,10.01-.73,2.49-1.17,4.34-3.46,6.68-4.87,2.61-1.5,5.59-2.42,8.34-3.6,1.71-.89,3.37-2.16,5.01-3.17,7.96-5.61,8.8,2.13,15.85,2.1,9.16-.27,12.8-.67,20.86,4.54,5.62,3.32,7.71,4.52,14.19,2.17,3.24-.86,6.7-.49,10.01-.84"/><path class="b" d="M12.14,113.91c3.34.09,6.66,1.05,10.01,1.08,3.04.17,6.27-.94,9.18.34,1.36.58,2.79,1.4,4.17,1.93,1.03.47,2.37.69,3.34,1.3,4.71,3.96,5.68,2.85,9.18-1.64,2.69-3.74,5.89-8.06,10.85-8.53,2.19-.2,4.49.07,6.68-.09,2.5-.07,5.04-1.78,7.51-.71,4.45,2.47,5.47,8.23,8.34,12.09,2.06,2.51,4.52,5.08,7.51,6.45,1.88.74,3.99.25,5.84-.32,1.36-.38,2.88-.81,4.17-1.37,2.8-1.15,4.78-3.75,7.51-5.01,2.42-1.18,5.16-1.88,7.51-3.19,1.99-1.3,3.82-3.06,5.84-4.33,4.95-3.37,6.83,2.21,10.85,3.82,2.12.67,4.5.62,6.68.28,5.22-.79,10.14-2.42,15.02.61,4.1,2.29,7.38,7.22,12.52,6.87,1.68-.2,3.38-.95,5.01-1.39,3.26-.84,6.77-.1,10.01-1.07"/><path class="b" d="M12.14,113.25c3.32-.04,6.72.33,10.01-.25,4.9-1.07,5.71-1.12,10.01,1.48,1.81.95,3.84,1.72,5.84,2.13,1.17.38,2.31,1.28,3.34,1.93,3.05,1.88,5.21-2.09,6.68-4.2,1.45-2.22,2.99-4.69,5.01-6.45,3.25-2.99,7.66-2.4,11.68-1.95,1.05.08,2.3.07,3.34-.11,1.33-.32,2.87-.57,4.17-.03,4.62,2.42,5.98,9.06,9.18,12.98,2.02,2.29,4.59,4.44,7.51,5.44,2.62.77,5.11-.81,7.51-1.63,1.65-.56,3.48-1.08,5.01-1.96,1.69-.96,3.23-2.43,5.01-3.25,2.15-1.09,4.61-1.79,6.68-3.04,2.59-1.74,4.56-4.58,7.51-5.76,2.64-.83,4.27,2.15,5.84,3.75,4.34,5.13,12.25,1.28,17.52-.32,3.37-1.21,6.51-.77,9.18,1.73,1.68,1.44,3.42,3.09,5.01,4.63,1.6,1.48,3.56,3.05,5.84,3.13,2,.04,3.93-.96,5.84-1.39,1.87-.46,3.93-.31,5.84-.46,1.39-.12,2.9-.58,4.17-1.15"/><path class="b" d="M12.14,112.04c2.49-.27,5.06-.54,7.51-1.03,1.9-.35,3.88-1.1,5.84-.96,1.44.16,2.87.93,4.17,1.52,1.87.88,3.89,1.7,5.84,2.36,1.04.4,2.35.59,3.34,1.12,1.33.68,2.64,1.92,4.17,2.09,2.5-.26,3.76-3.13,5.01-4.99,1.42-2.36,2.89-5.03,5.01-6.85,2.99-2.55,7.21-2.06,10.85-1.71,1.33.15,2.83.28,4.17.13,1.36-.27,2.93-.35,4.17.36,3.27,2.15,4.63,6.32,6.68,9.5,1.43,2.49,3.32,4.99,5.84,6.45,1.51.94,3.21,1.95,5.01,2.18,2.8.32,5.06-1.81,7.51-2.79,1.89-.79,4.04-1.25,5.84-2.25,2.62-1.7,5.52-3.03,8.34-4.33,3.05-1.4,6.66-8.07,10.01-6.68,2.71,1.74,3.48,5.92,6.68,6.98,2.19.41,4.52-.15,6.68-.57,3.42-.75,6.87-1.74,10.01-3.3,3.49-1.95,6.4-2.25,9.18,1.08,2.73,3.14,5.07,7.33,9.18,8.81,1.93.55,3.98-.21,5.84-.67,1.87-.47,3.93-.44,5.84-.63,1.73-.18,3.49-.9,5.01-1.72"/><path class="b" d="M12.14,110.03c3.58-.78,7.17-2.02,10.85-2.24,1.69.03,3.4.68,5.01,1.13,3.44.83,6.71,2.32,10.01,3.55,1.9.87,3.56,3.12,5.84,2.77,3.89-1.66,5.44-9.02,9.18-11.83,3.07-2.24,7.25-1.67,10.85-1.64,1.34.07,2.84.09,4.17-.08,1.05-.21,2.32-.31,3.34.1,2.43,1.15,3.67,4.03,5.01,6.2,1.96,3.45,4.01,7.29,7.51,9.41,1.82.97,3.78,2.07,5.84,2.4,3.28.51,5.65-2.37,8.34-3.71,2.7-1.29,5.79-1.83,8.34-3.46,2.27-1.22,4.89-2.17,6.68-4.12,2.15-1.84,5.38-7.76,8.34-4.13,3.99,5.67,2.44,9.18,10.85,6.56,4.77-1.19,10.19-.96,14.19-4.23,3.77-3.14,6.33-3.38,9.18,1.04,3.02,4.72,5.79,10.68,12.52,9.05,3.91-.74,8.32.02,11.68-2.53"/><path class="b" d="M12.14,107.36c3.48-1.08,7.16-2.34,10.85-1.76,3.31.68,6.89.59,10.01,1.97,1.94.95,3.96,2.04,5.84,3.1,1.63,1.28,3.52,3.67,5.84,2.69,4.1-2.91,4.72-9.18,9.18-11.77,3.38-1.43,7.26-1,10.85-1.24,1.06-.04,2.3-.17,3.34-.38,1.05-.28,2.34-.44,3.34.1,2.72,1.95,4.05,5.46,5.84,8.19,3.08,5.32,7.1,8.51,13.35,9.08,3.76.13,6.05-3.58,9.18-5.08,1.55-.8,3.39-1.28,5.01-1.91,1.99-.8,4.02-1.88,5.84-3.02,1.54-1.11,2.93-2.73,4.17-4.15,1.23-1.29,3.06-3.65,5.01-2.34,1.96,2.04,2.82,5.23,4.17,7.67.94,1.8,2.12,2.6,4.17,1.93,1.91-.57,3.84-1.54,5.84-1.78,3.33-.36,6.85-.06,10.01-1.38,3.38-1.15,6.34-7.56,10.01-5.97,4.37,3.18,4.94,10.08,10.01,12.53,2.33,1.03,5.03.68,7.51.67,3.24.29,6.06-1.68,8.34-3.77"/><path class="b" d="M12.14,104.6c2.41-.8,4.96-1.51,7.51-1.65,1.63-.08,3.38.15,5.01.27,2.79.18,5.84-.23,8.34,1.3,1.97,1.17,3.91,2.64,5.84,3.88,1.6,1.44,3.34,4.23,5.84,3.11,4.12-2.62,4.74-8.8,9.18-11.12,3.71-1.32,7.85-.66,11.68-1.41,1.36-.17,2.8-.77,4.17-.81,2.91.72,4.26,4.11,5.84,6.36,2.28,3.65,5.03,7.66,9.18,9.31,2.35.87,5.03,1.52,7.51.85,2.99-.94,5-3.67,7.51-5.39,2.53-1.75,5.68-2.43,8.34-3.92,1.86-.9,3.63-2.27,5.01-3.81,1.41-1.35,2.82-3.71,5.01-3.62,4.23,1.23,4.53,10.74,8.34,11.49,2.06-.06,3.87-1.55,5.84-2.03,4.09-1.03,8.66.2,12.52-1.9,6.24-3.92,8.28-14.15,14.19-2.45,1.52,2.69,3.07,5.89,5.84,7.5,5.94,2.94,10.98.05,15.02-4.5"/><path class="b" d="M12.14,102.35c2.72-.74,5.54-1.53,8.34-1.85,1.34-.09,2.83-.01,4.17-.05,2.19-.03,4.53-.65,6.68.02,1.91.66,3.53,2.18,5.01,3.51,1.01.95,2.4,1.84,3.34,2.87,1.51,1.73,3.49,3.83,5.84,2.14,3.4-2.64,4.4-7.76,8.34-9.81,2.09-.83,4.47-.64,6.68-.76,2.22-.07,4.54-.37,6.68-1.01,3-1.3,5.17,1.53,6.68,3.72,1.55,2.25,3.12,4.77,5.01,6.76,1.44,1.53,3.09,3.16,5.01,4.08,3.16,1.36,7.12,1.73,10.01-.44,2.69-1.83,4.74-4.61,7.51-6.34,2.37-1.45,5.13-2.34,7.51-3.76,1.5-.78,2.96-1.98,4.17-3.14,1.34-1.25,3-2.97,5.01-2.52,4.6,1.4,5.04,11.48,9.18,12.01,2.01-.14,3.87-1.39,5.84-1.76,2.16-.48,4.5-.38,6.68-.77,3.42-.55,6.13-1.62,8.34-4.42,1.9-1.93,5.21-8.46,8.34-6.31,3.2,2.96,4.39,7.68,7.51,10.74,5.82,5.36,11.78.43,15.85-4.4"/><path class="b" d="M12.14,100.89c3.13-.39,6.11-1.68,9.18-2.3,1.63-.22,3.4-.37,5.01-.74,1.33-.29,2.8-.72,4.17-.68,3.36.22,5.21,3.55,7.51,5.56,2.44,1.38,4.2,5.72,7.51,4.29,3.85-2.14,4.9-7.66,9.18-9.21,2.43-.62,5.04-.26,7.51-.47,2.26-.03,4.44-1.08,6.68-1.17,2.71.36,4.31,3.13,5.84,5.12,1.46,2.1,3.2,4.26,5.01,6.07,4.9,5.28,10.91,5.28,15.85.06,1.87-1.8,3.69-3.9,5.84-5.39,3.19-2.08,6.91-3.38,10.01-5.61,4.63-3.72,7.38-4.8,10.85.98,1.6,2.42,2.46,5.93,5.01,7.55,1.3.55,2.87.2,4.17-.14,1.6-.42,3.37-.76,5.01-1.03,3.43-.72,7.22-1.36,10.01-3.62,2.29-1.9,3.93-4.65,5.84-6.9.89-1.04,1.99-2.43,3.34-2.88,5.23-.48,6.83,14.73,15.85,11.94,3.45-1.13,5.82-4.2,8.34-6.64"/><path class="b" d="M12.14,100.01c2.95-.03,5.7-1.26,8.34-2.43,1.6-.55,3.4-.9,5.01-1.44,2.63-.87,5.82-2.76,8.34-.64,1.54,1.18,2.81,2.95,4.17,4.31.75.66,1.85,1.44,2.5,2.21,1.13,1.24,2.39,2.89,4.17,3.12,4.3-.14,6.13-6.55,10.01-8.11,2.37-.87,5.04-.39,7.51-.63,2.24-.08,4.44-1.1,6.68-1.08,3.55.58,5.31,4.46,7.51,6.91,2.18,2.46,4.43,5.32,7.51,6.66,3.61,1.3,7.42-.55,10.01-3.07,2.48-2.29,4.71-5.05,7.51-6.97,2.36-1.57,5.08-2.73,7.51-4.19,2.21-1.15,4.31-2.78,6.68-3.61,1.39-.44,2.99.01,4.17.8,3.6,2.25,4.85,6.98,8.34,9.3,1.54.67,3.39.44,5.01.2,2.8-.43,5.65-1.09,8.34-1.99,1.38-.42,2.94-.89,4.17-1.67,3.11-1.88,5.17-5.09,7.51-7.77.9-1.08,2.01-2.49,3.34-3.06,2.3-.63,3.81,2.03,5.01,3.57,1.22,1.73,2.6,3.69,4.17,5.12,5.13,4.84,10.06-1.42,14.19-4.36"/><path class="b" d="M12.14,99.12c3.03.12,5.77-1.36,8.34-2.77,1.6-.72,3.4-1.29,5.01-1.99,1.64-.68,3.3-1.66,5.01-2.16,4.37-1.16,6.2,4.06,9.18,6.11,5.9,6.82,6.48,6.18,12.52-.01,3.17-3.41,6.73-2.52,10.85-3,2.45-.22,5.12-1.58,7.51-.44,2.03,1.12,3.54,3.19,5.01,4.93,1.5,1.77,3.21,3.63,5.01,5.12,2.83,2.63,6.01,2.51,9.18.54,3.78-2.27,6.55-5.9,10.01-8.56,2.82-2.12,6.16-3.57,9.18-5.38,2.16-1.07,4.26-2.67,6.68-3.06,3.68-.23,6.6,2.8,9.18,5.04,2.47,2.25,4.88,3.68,8.34,3.27,3.94-.25,7.93-1.02,11.68-2.23,3.41-1.27,5.96-4.09,8.34-6.71,1.27-1.38,2.51-3.19,4.17-4.13,2.42-1.15,4.39,1.52,5.84,3.09,1.44,1.63,3.06,3.43,5.01,4.46,4.31,1.79,7.79-2.72,11.68-3.71"/><path class="b" d="M12.14,97.79c3.07-.03,5.79-1.63,8.34-3.16,1.88-.96,3.96-1.78,5.84-2.75,4.75-2.61,7.2-3.89,10.85,1.08,1.14,1.66,2.96,3,4.17,4.59,1.51,1.98,3.9,5.01,6.68,3.47,2.63-1.66,4.59-4.46,7.51-5.71,2.36-.94,5.04-.7,7.51-1.09,3.14-.46,6.49-1.74,9.18.69,3.67,3.01,8.73,11.35,14.19,8.81,4.08-1.93,7.35-5.31,10.85-8.09,2.27-1.86,4.93-3.35,7.51-4.74,1.92-1.06,3.92-2.25,5.84-3.29,2.23-1.36,5.05-2.21,7.51-.93,2.27,1,4.38,2.58,6.68,3.54,6.13,2.01,12.86,2.35,19.19,1.19,5.64-1.13,9.54-5.71,13.35-9.63,3.67-3.52,7,.94,10.01,3.01,3.82,3.17,8.32-.73,12.52-.08"/><path class="b" d="M12.14,95.89c3.73-.38,6.74-2.78,10.01-4.34,1.64-.77,3.41-1.61,5.01-2.47,1.55-.8,3.23-1.81,5.01-1.92,2.68-.04,4.37,2.5,5.84,4.39.68.86,1.73,1.88,2.5,2.65,1.06,1.29,2.15,2.94,3.34,4.11,3.87,4,6.82-1.01,10.01-3.08,2.92-2.05,6.66-1.74,10.01-2.33,5.7-1.18,7.75-.31,11.68,3.83,2.61,2.33,6.31,5.68,10.01,3.92,3.58-1.89,6.66-4.73,10.01-6.99,3.13-2.34,6.65-4.19,10.01-6.16,5.57-3.14,7.98-5.62,14.19-1.81,3.15,1.77,4.7,2.29,8.34,1.77,2.22-.23,4.52.27,6.68.75,8.16,1.94,13.67.41,20.03-5.02,1.61-1.47,3.15-3.32,5.01-4.5,3.64-2.34,6.71.77,10.01,2.02,3.26.97,6.94.17,10.01,1.86"/><path class="b" d="M12.14,93.59c3.29-.81,6.18-2.74,9.18-4.21,1.63-.74,3.4-1.51,5.01-2.31,1.58-.75,3.26-1.69,5.01-1.99,3.01-.48,5.05,2.29,6.68,4.38,1.38,1.56,3.06,3.17,4.17,4.95,5.51,7.87,7.69,1.64,13.35-1.36,2.59-1.16,5.59-1.02,8.34-1.43,5.13-.65,7.86-.24,11.68,3.38,2.46,2.05,6.01,3.55,9.18,2.45,2.67-1.17,5.02-3.14,7.51-4.64,4.12-2.65,8.29-5.33,12.52-7.8,8.16-4.91,8.52-4.12,16.69-.14,5.32,2.24,5.3-2.29,15.02,1.06,9.01,2.75,11.8.53,19.19-4.46,2.6-2,5.03-4.7,8.34-5.44,2.26-.52,4.54.49,6.68,1.12,3.2.88,6.55,1.82,9.18,3.95"/><path class="b" d="M12.14,91.25c2.54-1.09,5.05-2.45,7.51-3.69,3.02-1.3,6.13-2.58,9.18-3.82,3.56-1.49,6.19.17,8.34,2.98.71.84,1.66,1.96,2.5,2.67,1.18,1.29,2.27,3.07,3.34,4.45,5.61,7.44,8.88-2.31,15.02-2.94,2.74-.37,5.58-.52,8.34-.56,2.91-.02,5.98.41,8.34,2.23,2.3,1.74,4.65,2.47,7.51,1.81,2.73-.27,5.15-1.8,7.51-3.07,6.63-3.33,12.25-8.58,19.19-11.29,4.18-1.52,7.9,1.77,11.68,3.05,1.28.52,2.79.93,4.17.59,2.15-.56,4.42-1.29,6.68-.92,2.26.34,4.5,1.25,6.68,1.91,6.9,2.2,9.27,1.55,15.02-2.73,4.28-2.53,8.34-6.06,13.35-6.96,4.94-.44,9.94,1.76,13.35,5.29"/><path class="b" d="M12.14,89.37c2.17-1.19,4.42-2.48,6.68-3.5,2.72-1.2,5.6-2.18,8.34-3.32,3.7-1.59,6.45-1.29,9.18,1.77,1.01,1.12,2.22,2.42,3.34,3.42,1.15,1.37,2.25,3.19,3.34,4.61,4.36,5.84,7.38.7,11.68-1.78,2.51-1.41,5.56-1.23,8.34-1.28,3.32.07,6.78.04,10.01.82,3.07,1.06,4.95,2.82,8.34,1.36,3.64-1.34,7.45-2.46,10.85-4.37,3.45-1.99,6.53-4.7,10.01-6.65,8.34-4.92,9.02-1.92,16.69.83,1.31.4,2.79.93,4.17.98,2.77-.21,5.52-1.51,8.34-.93,2.56.45,5.05,1.53,7.51,2.32,9.18,3.13,9.68.2,16.69-4.54,7.76-4.89,17.75-7.62,24.2.81"/><path class="b" d="M12.14,88.51c2.15-1.3,4.4-2.65,6.68-3.71,2.44-1.11,5.06-2.01,7.51-3.1,2.64-1.21,5.82-2.27,8.34-.25,1.74,1.4,3.4,3.19,5.01,4.74,1.4,1.79,2.62,4.05,4.17,5.72,3.26,3.6,6.32.02,9.18-2.03,2.13-1.66,4.91-1.93,7.51-1.79,2.76.1,5.59.29,8.34.45,1.63.08,3.39-.1,5.01.14,2.18.33,4.48,1.59,6.68.66,1.39-.56,2.82-1.41,4.17-2.05,2.88-.89,5.81-1.95,8.34-3.62,4.57-3.01,9.19-7.49,15.02-7.29,2.72.24,5.07,1.93,7.51,2.98,2.09.86,4.47,1.12,6.68,1.51,1.93.12,3.92-.49,5.84-.61,4.37-.28,8.39,2.01,12.52,3.1,9.18,2.98,9.72-2.65,16.69-6.36,4.57-2.25,9.95-3.6,15.02-2.62,3.16.7,5.59,3.19,7.51,5.66"/><path class="b" d="M12.14,88.41c2.47-1.58,4.87-3.46,7.51-4.76,2.42-1.11,5.1-1.83,7.51-2.98,3.51-1.73,6.2-2.32,9.18.69,1.01,1.03,2.37,2.08,3.34,3.15,1.4,1.81,2.62,4.08,4.17,5.77,3.28,3.68,6.3.06,9.18-2,1.89-1.45,4.37-1.7,6.68-1.53,3.03.2,6.14.5,9.18.54,1.64.01,3.37-.38,5.01-.41,2.23-.08,4.45,1.15,6.68.68,1.77-.44,3.38-1.62,5.01-2.39,1.64-.63,3.48-1.13,5.01-2.03,3.72-2.04,6.88-5.14,10.85-6.74,5.73-2.51,9.03.64,14.19,2.32,2.36.53,5.08.67,7.51.96,2.19.04,4.5-.17,6.68.21,3.95.74,7.7,2.53,11.68,3.15,1.89.31,3.99.61,5.84-.03,4.04-1.86,6.62-6.08,10.85-7.69,4.45-1.73,9.54-2.04,14.19-.96,3.2.9,5.48,3.65,7.51,6.12"/><path class="b" d="M12.14,87.3c3.33-2.51,6.37-6.19,10.85-6.35,2-.18,4.04-.74,5.84-1.63,2.67-1.39,5.17-1.66,7.51.48,1.02.93,2.28,1.97,3.34,2.86,1.17,1.32,2.28,3.11,3.34,4.51,3.72,4.92,6.03,3.01,10.01-.18,1.86-1.51,4.34-1.92,6.68-1.76,3.03.19,6.14.44,9.18.32,1.64-.06,3.37-.5,5.01-.54,2.55-.08,4.94,1.6,7.51,1.2,1.74-.29,3.36-1.33,5.01-1.91,1.68-.52,3.51-1.04,5.01-2,3.82-2.3,7.21-5.72,11.68-6.74,4.62-1.12,8.84,1.94,13.35,2.3,4.2.19,8.4.92,12.52,1.75,4.09,1.11,8.23,2.37,12.52,2.34,1.94.08,4.07.11,5.84-.79,5.02-2.98,7.56-7.79,14.19-8.02,3.95-.18,8.04.56,11.68,2.11,2.63,1.25,4.68,3.56,6.68,5.62"/><path class="b" d="M12.14,83.67c2.7-2.1,5.35-6.14,9.18-5.68,1.65.3,3.3,1.19,5.01,1.23,1.45.01,2.89-.7,4.17-1.29,3.5-1.8,5.72.38,8.34,2.43,2.81,1.58,4.15,4.96,6.68,6.9,4.3,3.55,7.53-2.95,11.68-3.44,2.17-.42,4.48-.21,6.68-.2,3.35.16,6.72-.51,10.01-.38,2.86.32,5.39,2.42,8.34,2.13,1.38-.11,2.83-.65,4.17-.95,1.34-.32,2.89-.49,4.17-1,4.17-1.81,7.36-5.49,11.68-7.04,3.2-1.27,6.72-.72,10.01-.18,2.46.4,5.04.41,7.51.63,4.23.46,8.28,2.1,12.52,2.53,2.76.24,5.59-.27,8.34-.46,1.93-.19,4.03-.13,5.84-.92,5.74-2.73,8.53-7.34,15.85-6.08,3.79.63,7.46,2.15,10.85,3.92,2.38,1.38,4.58,3.27,6.68,5.04"/><path class="b" d="M12.14,78.2c2.27-1.85,4.44-4.59,7.51-4.99,1.64.03,3.02,1.29,4.17,2.32,1.16,1.04,2.52,2.34,4.17,2.39,1.13-.03,2.32-.63,3.34-1.08,2.47-1.25,4.73.06,6.68,1.6.97.77,2.4,1.15,3.34,1.96,2.75,2.43,5.68,7.86,10.01,5.63,1.42-.76,2.78-1.93,4.17-2.74,3.04-1.66,6.67-1.4,10.01-1.62,3.03-.11,6.25-.66,9.18.38,1.65.58,3.32,1.52,5.01,2.01,1.87.55,3.94.37,5.84.11,1.62-.19,3.39-.2,5.01-.39,2.16-.38,4.06-1.76,5.84-2.95,2.12-1.45,4.32-3.01,6.68-4.06,4.95-2.22,10.59-1.63,15.85-1.36,3.59.31,7.22,1.21,10.85.91,3.35-.35,6.69-1.22,10.01-1.79,2.19-.42,4.57-.17,6.68-1,3.59-1.33,6.86-3.9,10.85-3.91,7.5-.17,16.42,6.84,22.53,10.87"/><path class="b" d="M12.14,73.41c6.32-5.16,8.3-7.44,13.35.53.98,1.3,2.35,2.96,4.17,2.67,1.37-.28,2.75-1.14,4.17-1.17,1.93,0,3.48,1.51,5.01,2.5.7.45,1.72.71,2.5.94,3.38,1.81,5.61,7.11,10.01,6.27,1.83-.57,3.37-2,5.01-2.94,2.78-1.55,6.06-1.89,9.18-2.11,3.07-.26,6.29-.23,9.18.97,5.64,2.52,7.7,1.37,13.35,1.43,1.62.11,3.39.46,5.01.07,4.29-1.2,7.69-4.45,11.68-6.33,3.07-1.56,6.57-2.38,10.01-2.38,4.73.07,9.65.94,14.19-.86,3.09-.96,5.98-2.72,9.18-3.3,1.91-.37,3.95-.11,5.84.2,2.87.24,5.69-.87,8.34-1.84,5.34-2.38,9.64-.3,14.19,2.69,4.5,2.96,8.72,6.44,13.35,9.19"/><path class="b" d="M12.14,70.16c5.72-4.33,9.23-8.51,13.35.13,1.16,1.92,2.37,5.04,5.01,5.06,3.4-.7,4.58-1.29,7.51,1.09.71.53,1.64,1.22,2.5,1.48.82.05,1.83.41,2.5.88,3.76,2.69,6.67,8.01,11.68,4.08,3.76-2.99,8.57-4.41,13.35-4.12,3.4.04,6.63,1.58,10.01,1.7,2.52.03,5.01-.84,7.51-1.03,3.69-.59,7.22,2.18,10.85.94,5.81-1.96,10.4-7.01,16.69-7.65,3.89-.43,8.02.37,11.68-1.36,5.95-2.31,9.73-7.72,16.69-5.85,1.34.37,2.78,1.02,4.17,1.22,1.62.26,3.4.15,5.01-.15,3.28-.58,6.65-2.1,10.01-1.22,2.85.75,5.26,2.72,7.51,4.54,3.84,3.12,7.43,6.69,11.68,9.25"/><path class="b" d="M12.14,67.41c2.97-2.04,6.94-6.78,10.85-4.49,1.99,1.73,3,4.64,4.17,6.93,1.02,1.95,2.45,4.57,5.01,4.38,3.56-.44,4.82.94,7.51,2.81.7.42,1.72.54,2.5.72,1.89.7,3.47,2.24,5.01,3.5,6.52,5.7,8.41-2.04,15.85-3.6,4.16-1.07,8.34.74,12.52.52,3.77-.21,7.07-2.65,10.85-2.79,8.51.32,6.72,6.69,17.52.35,2.39-1.39,4.8-3.06,7.51-3.78,5.08-1.25,8.7-.02,13.35-3.36,2.85-1.71,5.27-4.25,8.34-5.58,2.59-1.16,5.66-1.3,8.34-.4,2.42.97,4.84,2.33,7.51,2.45,3.65.33,7.21-1.18,10.85-1.19,7.18.12,13.97,10.31,20.03,14.13"/><path class="b" d="M12.14,65.06c3.1-2.43,7.58-7.93,11.68-4.4,3.54,3.64,3.82,11.49,9.18,12.96,1.42.28,2.97.72,4.17,1.55,1.25.81,2.6,1.97,4.17,1.98,3.52.62,5.84,3.91,9.18,4.95,2.63.66,4.78-1.53,6.68-3.01,8.3-6.56,9.56-2.36,17.52-3.88,2.62-.66,5.06-2.08,7.51-3.18,2.86-1.41,6.44-1.69,9.18.15,1.44.88,2.68,2.34,4.17,3.13,4.32,2.18,8.77-1.02,12.52-3,3.84-2.22,8.49-1.82,12.52-3.33,4.57-2.14,7.52-6.97,12.52-8.31,2.68-.77,5.69-.88,8.34.06,2.46,1.05,4.82,2.64,7.51,3.07,3.62.74,7.26-.5,10.85-.88,7.99-.7,14.47,8.37,20.03,13.01"/><path class="b" d="M12.14,62.74c2.92-2.49,6.53-7.53,10.85-5.22,4.31,3.56,4.67,10.15,8.34,14.24,1.11,1.18,2.72,1.92,4.17,2.57,1.06.53,2.24,1.3,3.34,1.77,1.32.42,2.91.35,4.17,1,3.44,1.27,7.13,5.41,10.85,2.65,3.44-2.55,6.4-6.34,10.85-7.11,2.18-.43,4.49.14,6.68-.17,5.05-.62,8.71-4.7,13.35-6.36,8.66-2.68,9.29,8.65,17.52,7.1,2.62-.48,5-1.95,7.51-2.79,2.42-.8,5.03-1.18,7.51-1.75,8.83-1.63,8.16-10.35,20.03-9.98,2.72-.07,5.24,1.18,7.51,2.55,2.28,1.22,4.91,2.02,7.51,1.98,3.38,0,6.65-1.32,10.01-1.5,6.93-.08,12.94,5.63,17.52,10.26"/><path class="b" d="M12.14,60.02c11.94-12.79,13.17.17,18.36,9.5,1.78,3.25,5.45,5.56,9.18,5.6,8.18,1.48,9.5,7.59,16.69-.83,2.1-2.16,4.49-4.42,7.51-5.12,1.6-.39,3.38-.31,5.01-.3,4.11-.1,7.55-2.8,10.85-4.95,14.06-9.66,12.27,4.87,22.53,6.44,3.12.21,6.14-1.1,9.18-1.57,2.48-.43,5.05-.85,7.51-1.39,5.86-1.9,7.36-8.76,14.19-9.44,9.04-1.42,9.97,3.47,17.52,4.43,4.26.53,8.36-1.27,12.52-1.84,3.15-.43,6.33.54,9.18,1.82,2.62,1.13,5.27,2.52,7.51,4.31"/><path class="b" d="M12.14,56.89c13.4-12.96,13.6,7.81,20.86,14.46,1.15.92,2.68,1.57,4.17,1.47,1.38.03,2.88.4,4.17.86,2.47.75,4.85,2.48,7.51,2.39,5.99-1.2,8.12-11.85,16.69-12.09,4.26.12,6.33-.25,10.01-2.5,4.08-2.26,8.41-6.16,13.35-5.65,2.56.47,4.32,2.75,5.84,4.67,2.24,2.74,4.8,5.72,8.34,6.69,2.42.65,5.04.38,7.51.22,3.04-.25,6.21-.38,9.18-1.13,3.86-1.24,5.82-5.27,9.18-7.27,3.22-1.87,7.31-2.03,10.85-1.07,1.73.49,3.38,1.56,5.01,2.3,3.36,1.55,7.22,1.97,10.85,1.27,3.59-.61,7.16-2.01,10.85-1.85,2.24.1,4.5.76,6.68,1.26,2.18.52,4.5.9,6.68,1.44"/><path class="b" d="M12.14,53.89c13.18-10.52,13.08,9.48,20.86,14.81,1.55.74,3.37,1.11,5.01,1.59,1.96.56,3.94,1.4,5.84,2.13,9.57,4.06,10.48-14.65,23.36-13.59,3.65.3,6.97-1.57,10.01-3.34,4.2-2.26,9.35-6.08,14.19-3.47,1.67,1.03,2.95,2.86,4.17,4.36,6.41,8.65,10.26,9.91,20.86,9.24,6.4.09,7.7-3.54,12.52-6.33,3.31-1.67,7.33-1.68,10.85-.67,2.53.76,4.92,2.21,7.51,2.81,5.59,1.6,11.18-.69,16.69-1.49,2.49-.34,5.05.24,7.51.6,2.78.43,5.71.17,8.34-.83"/><path class="b" d="M12.14,51.1c11.44-7.39,12.33,8.35,19.19,13.03,2.34,1.46,4.96,2.57,7.51,3.58,2.11.83,4.35,1.99,6.68,1.87,3.4-.5,5.43-3.84,7.51-6.24,2.15-2.63,4.5-5.39,7.51-7.07,1.51-.83,3.3-1.36,5.01-1.51,1.63-.16,3.42-.05,5.01-.48,3.24-.94,6.18-2.83,9.18-4.32,7.44-3.94,11.35-4.02,16.69,2.97,3.39,4.29,6.8,9.47,12.52,10.69,2.43.58,5.02.68,7.51.65,1.34,0,2.86.06,4.17-.28,2.46-.56,4.5-2.32,6.68-3.49,3.26-1.81,7.22-2.06,10.85-1.46,2.3.35,4.51,1.37,6.68,2.17,4.55,1.77,9.54,1.22,14.19.12,2.44-.51,5.01-1.02,7.51-.7,5.34,1.21,8.96,1.84,13.35-2.29"/><path class="b" d="M12.14,48.52c9.02-4.53,11.47,6.7,16.69,11.2,2.68,1.62,5.49,3.2,8.34,4.5,2.79,1.27,6.2,2.75,9.18,1.25,4.16-2.47,6.91-6.82,10.85-9.62,2.43-1.81,5.35-3.05,8.34-3.53,1.62-.3,3.42-.31,5.01-.79,3.8-1.25,7.23-3.52,10.85-5.2,7.85-4.26,11.54-.52,16.69,5.35,3.1,3.79,6,8.38,10.85,10.06,2.92,1.06,6.12,1.08,9.18,1.3,2.95.37,5.76-.89,8.34-2.14,4.13-1.94,8.96-2.11,13.35-1.04,8.8,2.89,10.62,3.53,20.03,1.54,1.88-.34,3.93-.6,5.84-.3,1.67.24,3.32,1.1,5.01,1.28,3.82.62,7.06-2.17,9.18-5.05"/><path class="b" d="M12.14,46.12c7.61-2.57,10.52,6.88,15.02,10.9,2.35,1.39,5.1,2.24,7.51,3.55,3.55,1.79,7.92,3.46,11.68,1.3,2.66-1.51,5.01-3.67,7.51-5.41,2.52-1.85,5.39-3.35,8.34-4.37,2.95-1.17,6.25-1.33,9.18-2.51,4-1.77,7.66-4.35,11.68-6.09,3.56-1.83,7.11-1.02,10.01,1.59,2.27,2,4.74,3.99,6.68,6.34,2.83,3.42,5.64,7.4,10.01,8.9,2.11.76,4.46,1.05,6.68,1.3,1.33.16,2.82.44,4.17.39,2.59-.04,5.07-1.15,7.51-1.9,4.59-1.44,9.63-1.16,14.19.28,6.83,2.42,11.39,2.02,18.36.67,1.9-.29,3.98-.37,5.84.2,6.38,3.17,9.77.2,13.35-5.14"/><path class="b" d="M12.14,43.84c3.96-.88,7.06,2.64,9.18,5.5,1.8,2.31,3.17,5.48,5.84,6.92,2.2.59,4.56.96,6.68,1.85,4.71,2.01,8.6,2.93,13.35.4,5.16-2.76,10.4-5.47,15.85-7.6,2.41-1.06,5.07-1.63,7.51-2.59,4.56-2.09,8.59-5.38,13.35-7.05,4.3-1.73,7.98,1.6,10.85,4.41,1.94,1.65,4.16,3.22,5.84,5.14,4.65,5.54,7.58,8.26,15.02,9.27,7.07,1.54,8.39.52,15.02-1.15,4.73-1.03,9.62-.13,14.19,1.24,2.69.7,5.56,1.12,8.34,1.02,2.5-.07,5.05-.59,7.51-.97,1.9-.29,3.99-.4,5.84.23,1.32.51,2.72,1.36,4.17,1.4,4.31.06,7.02-4.19,9.18-7.37"/><path class="b" d="M12.14,41.59c6.15-.4,9.66,9.55,13.35,13.26.89.86,2.15,1.05,3.34.95,1.05-.02,2.29,0,3.34.14,6.21,1.26,8.65,2.64,15.02.1,3.56-1.42,7.35-2.39,10.85-3.95,2.52-1.14,5.01-2.56,7.51-3.75,1.58-.79,3.42-1.34,5.01-2.12,4.19-2.12,7.98-5.22,12.52-6.61,4.34-1.65,8.1,1.82,10.85,4.77,1.98,2.05,4.65,3.44,6.68,5.44,4.87,5.14,7.89,7.38,15.02,8.64,3.26.68,6.7,1.26,10.01.64,1.93-.36,3.91-1.02,5.84-1.38,4.74-.96,9.59.06,14.19,1.26,4.95,1.28,10.08.8,15.02-.25,1.89-.32,3.99-.5,5.84.11,1.32.5,2.71,1.38,4.17,1.37,4.31-.19,6.86-4.55,9.18-7.67"/><path class="b" d="M12.14,39.3c4.02-.17,8.11,7.17,10.01,10.3,1.33,1.99,2.47,5.07,5.01,5.7,1.07-.05,2.29-.32,3.34-.49,2.75-.54,5.59.08,8.34.17,2.54.1,5.12-.48,7.51-1.3,4.05-1.57,8.58-1.74,12.52-3.61,2.59-1.26,5-3.01,7.51-4.41,1.59-.9,3.44-1.58,5.01-2.51,3.49-1.98,6.87-4.53,10.85-5.42,4.96-1.39,8.63,3.02,11.68,6.23,1.92,2.02,4.58,3.29,6.68,5.1,5.18,4.78,9.77,6.5,16.69,7.52,2.74.29,5.59.53,8.34.46,2.22-.11,4.48-.73,6.68-1.02,5.07-.77,10.08.68,15.02,1.63,2.73.44,5.61.44,8.34-.02,2.76-.43,5.54-1.29,8.34-1.38,1.06-.03,2.34.15,3.34.53.69.34,1.73.73,2.5.85,4.53.43,7.46-4.1,10.01-7.17"/><path class="b" d="M12.14,36.92c3.45.18,6.48,5.9,8.34,8.54,1.79,2.59,3.6,8.08,6.68,9.08,2.26-.06,4.43-1.19,6.68-1.39,3.94-.26,7.98-.5,11.68-2.01,1.88-.71,3.87-1.51,5.84-1.92,2.49-.53,5.14-.77,7.51-1.75,3.62-1.4,6.56-4.17,10.01-5.87,3.61-1.81,6.89-4.53,10.85-5.6,6.9-2.01,10.57,4.38,15.02,8.29,2.94,2.13,6.02,4.26,9.18,6.06,3.6,1.83,7.71,2.51,11.68,3.01,3.03.23,6.16-.32,9.18.29,4.12.8,8.37.1,12.52.55,4.2.34,8.29,1.82,12.52,1.81,5.09.1,9.95-1.97,15.02-2.09,1.67-.13,3.37.54,5.01.73,4.16.27,7.29-3.2,10.01-5.87"/><path class="b" d="M12.14,34.46c3.3.44,6.48,6.62,8.34,9.3,1.92,2.89,3.48,7.98,6.68,9.53,1.98.28,3.95-.79,5.84-1.22,2.74-.65,5.65-.88,8.34-1.72,3.18-.84,6.12-2.48,9.18-3.65,3.26-1.14,6.8-1.53,10.01-2.82,2.73-1.14,5.02-3.23,7.51-4.77,3.28-1.75,6.35-4.21,10.01-5.11,5.07-1.25,9.29,2.52,12.52,5.92,2.25,2.26,4.77,4.43,7.51,6.07,3.71,2.4,8.12,3.52,12.52,3.55,3.06.17,6.21.03,9.18-.78,2.86-.69,5.76.22,8.34,1.43,1.84.77,3.88,1.32,5.84,1.68,2.19.37,4.5.69,6.68,1.14,3,.62,6.1,1.26,9.18,1.03,3.64-.21,7.22-1.32,10.85-1.67,3.31-.35,6.69-.51,10.01-.57,3.39-.3,6.42-2.22,9.18-4.07"/><path class="b" d="M12.14,31.91c2.3.64,3.71,3,5.01,4.83,1.05,1.62,2.36,3.51,3.34,5.18,2,3.08,3.38,7.83,6.68,9.7,2.23.54,4.51-.74,6.68-1.17,2.49-.53,5.1-.96,7.51-1.82,3.54-1.05,6.64-3.22,10.01-4.63,3.49-1.53,7.43-1.95,10.85-3.63,2.89-1.64,5.41-3.99,8.34-5.58,2.04-1.23,4.26-2.56,6.68-2.8,4.68-.29,8.4,3.35,11.68,6.22,7.7,7.14,12.67,9.86,23.36,7.61,1.65-.33,3.42-.78,5.01-1.33,1.59-.58,3.3-1.3,5.01-1.44,2.54-.25,4.8,1.37,6.68,2.88,1.79,1.39,3.74,2.85,5.84,3.72,2.41.89,5.01,1.47,7.51,2.05,2.43.58,5.03.82,7.51.54,2.49-.25,5.02-.88,7.51-1.16,2.46-.3,5.04-.08,7.51-.31,1.65-.18,3.37-.74,5.01-.99,3.39-.5,6.78-1.35,10.01-2.48"/><path class="b" d="M12.14,28.98c2.8,1.01,4.28,4.09,5.84,6.41,1.47,2.24,2.98,4.82,4.17,7.22,1.18,2.17,2.34,4.78,4.17,6.48,2.19,1.78,5.12.18,7.51-.32,2.81-.64,5.71-1.32,8.34-2.54,3.45-1.4,6.47-3.8,10.01-4.99,3.25-1.26,6.9-1.55,10.01-3.18,4.6-2.33,9.46-8.41,15.02-7.56,3.58.9,6.32,3.75,9.18,5.91,8.65,6.98,14.01,9.66,25.03,5.76,2.8-.99,5.56-2.32,8.34-3.35,3.08-1.24,5.89-1.11,8.34,1.33,2.5,2.3,4.59,5.28,7.51,7.08,2.85,1.45,6.04,2.43,9.18,2.99,4.17.68,8.34-.76,12.52-.69,2.76-.02,5.59.76,8.34.3,1.98-.45,3.85-1.61,5.84-2.07,2.69-.75,5.56-1.04,8.34-1.14"/><path class="b" d="M12.14,25.94c4.47.47,10.13,14.4,12.52,18.33,2.27,3.97,4.21,4.16,8.34,2.87,3.14-.84,6.33-1.86,9.18-3.47,3.28-1.65,6.33-4.11,10.01-4.82,1.9-.35,3.95-.45,5.84-.89,2.41-.53,4.72-1.75,6.68-3.24,3.71-2.76,8.56-7.98,13.35-4.44,2.36,1.61,4.3,3.95,6.68,5.55,5.11,3.4,11.23,6.38,17.52,5.42,7.33-.95,13.52-5.77,20.86-6.66,3.66-.78,6.32,2.33,8.34,4.92,1.53,1.78,3.03,3.95,5.01,5.27,3.78,2.13,8.13,3.66,12.52,3.48,2.47-.1,5.04-.37,7.51-.12,2.5.2,5.01.98,7.51,1.24,2.1.29,4.07-.83,5.84-1.81,3.03-1.64,6.55-2.71,10.01-2.07"/><path class="b" d="M12.14,23.97c2.17-1.02,3.87,1.11,5.01,2.67,1.89,2.67,3.63,5.78,5.01,8.75,1.25,2.58,2.52,5.55,4.17,7.9,1.23,1.72,2.89,2.58,5.01,2.17,3.89-.72,7.53-2.58,10.85-4.68,7.68-4.78,6.5-3.92,15.02-3.85,2.44-.16,4.79-1.3,6.68-2.81,6.39-5.32,8.96-10.48,15.85-1.92,2.92,3.69,7.2,5.27,11.68,6.14,6.06,1.4,11.93.15,17.52-2.33,3.73-1.53,7.61-2.99,11.68-3.23,2.18-.04,4.53-.48,6.68-.03,3.99,1.69,5.95,6.28,9.18,8.98,3.21,2.11,7.06,3.46,10.85,4.03,4.47.39,9.07.32,13.35,1.87,2.12.61,4.49,1.45,6.68.7,4.04-1.73,7.79-5.55,12.52-4.47"/><path class="b" d="M12.14,23.69c2.23-1.71,4.05-1.46,5.84.63,2.91,3.31,4.73,7.6,6.68,11.51,1.42,2.53,2.75,6.19,5.84,6.97,3.71.43,7.05-2.02,10.01-3.93,3.98-2.66,6.6-5.16,11.68-3.74,1.61.36,3.35.77,5.01.75,2.92.01,5.55-1.68,7.51-3.72,2.86-2.56,6.63-9.92,10.85-5.4,2.07,2.35,3.51,5.44,5.84,7.57,2.7,2.35,6.65,2.12,10.01,2.31,3.35.04,6.78-.35,10.01-1.24,3.09-.85,6.09-2.23,9.18-3.11,2.68-.82,5.53-1.37,8.34-1.3,2.77-.04,5.58.47,8.34.44,2.03.05,3.68,1.67,5.01,3.05,2.09,1.97,3.91,4.65,6.68,5.69,2.7,1.01,5.52,1.98,8.34,2.57,2.46.53,5.06.77,7.51,1.31,3.95.82,7.61,3.12,11.68,3.31,4.98-.43,8.1-6.5,13.35-5.71"/><path class="b" d="M12.14,24.26c1.72-.97,3.85-2.3,5.84-1.34,4.89,3.08,7,8.94,10.01,13.6,4.46,7.71,10.97-.1,15.85-2.92,4.38-2.57,8.83,1.44,13.35,1.18,8.33-.14,10.57-12.89,15.85-12.49,4.18,1.77,5.07,8.4,8.34,11.45,2.68,2.53,6.74,1.29,10.01,1.04,3.67-.53,7.33-1.49,10.85-2.66,3.53-1.19,7.12-2.44,10.85-2.84,3.88-.49,7.85.07,11.68.74,4.87.48,5.51.56,9.18,4,1.31,1.04,2.66,2.42,4.17,3.15,1.28.5,2.83.72,4.17,1.02,3.33.71,6.72,1.53,10.01,2.4,5.07,1.35,9.72,4.51,15.02,4.93,4.96-.3,7.51-6.51,12.52-6.43"/><path class="b" d="M12.14,24.2c2.81-.43,5.7-1.26,8.34.25,4.44,1.35,6.78,5.57,9.18,9.18,1.94,2.99,4.55,3.52,7.51,1.57,4.72-3.34,7.48-5.96,13.35-3.08,2.07.89,4.4,1.6,6.68,1.29,9.53-.6,11.67-18.77,17.52-13.21,3.53,3.65,5.07,13.34,10.85,13.56,7.86-.29,14.93-4.45,22.53-6.05,5.5-1.12,11.26-.92,16.69.45,2.57.57,5.35,1.02,7.51,2.63,1.88,1.43,3.77,3.14,5.84,4.29,1.28.5,2.83.38,4.17.4,2.21.03,4.54.18,6.68.79,2.93.71,5.66,2.19,8.34,3.52,2.39,1.14,4.98,2.07,7.51,2.84,7.36,2.76,9.26-5.62,15.02-6.26"/><path class="b" d="M12.14,23.16c2.86.36,5.62,1.41,8.34,2.28,1.91.38,3.99-.72,5.84.11,3.15,1.45,4.14,5.77,7.51,6.84,2.09.36,4.02-.98,5.84-1.79,1.54-.72,3.31-1.24,5.01-1.37,2.67-.07,5.02,1.6,7.51,2.32,4.9,1.41,9.91-.8,12.52-5.11,1.98-2.33,5.43-12.41,9.18-9.76,4.8,4.15,6.04,15.72,14.19,14.93,5.85-.62,11.1-3.7,16.69-5.36,5.09-1.5,10.57-1.99,15.85-1.45,4.07.61,8.08,2.06,11.68,4.04,1.76,1.01,3.39,2.5,5.01,3.71,1.09.99,2.74,1.35,4.17,1.09,2.19-.28,4.45-1.03,6.68-.75,4.05.48,7.19,3.46,10.85,4.98,2.67,1.08,5.5,2.11,8.34,2.62,2.6.33,4.86-1.47,6.68-3.11,1.7-1.48,3.47-3.5,5.84-3.76"/><path class="b" d="M12.14,21.98c2.09.5,4.1,1.57,5.84,2.81,1.44,1.11,3.18,2.28,5.01,1.31,1.36-.67,2.65-1.87,4.17-2.15,2.13-.22,3.57,1.84,5.01,3.08,1.8,1.69,4.41,1.6,6.68,1.18,1.62-.26,3.37-.34,5.01-.41,2.94-.21,5.53,1.67,8.34,2.16,5.66,1.12,10.88-2.8,13.35-7.66,1.82-2.91,2.97-6.79,5.84-8.86,5.12-1.98,6.52,13.27,15.02,15.64,6.18,1.31,11.94-2.47,17.52-4.55,5.26-1.92,11.1-2.87,16.69-2.6,3.86.44,7.43,2.35,10.85,4.09,1.78.82,3.59,1.93,5.01,3.28,2.31,2.38,4.15,3.43,7.51,2.3,1.33-.45,2.77-1.16,4.17-1.32,3.19-.33,5.78,2.04,8.34,3.58,2.28,1.42,4.93,2.34,7.51,3.04,2.45.81,5.34,1.03,7.51-.62,2.79-1.7,4.94-4.94,8.34-5.41"/><path class="b" d="M12.14,21.04c1.75.6,3.56,1.49,5.01,2.65,1.98,1.59,3.99,4.28,6.68,2.27,1.41-1.02,2.65-2.56,4.17-3.43,2.13-1.2,4.04.69,5.84,1.61,1.29.53,2.81.88,4.17,1.17,2.45.59,5,.9,7.51,1.05,1.95.34,3.89,1.21,5.84,1.54,2.94.61,5.91-.6,8.34-2.16,3.07-1.86,5.1-5.08,6.68-8.21,5.91-12.59,7.83-6.12,12.52,2.35,1.65,2.96,4.23,5.55,7.51,6.59,7.42,2.82,14.17-2.7,20.86-5.06,4.54-1.41,9.4-2.59,14.19-2.24,3.6.51,6.79,2.58,10.01,4.12,1.39.66,3.02,1.28,4.17,2.33,2.33,2.15,4.73,5.47,8.34,4.64,1.73-.41,3.29-1.63,5.01-2.08,3.23-.74,5.75,2.12,8.34,3.55,2.02,1.21,4.38,1.99,6.68,2.47,2.56.71,5.38.18,7.51-1.41,2.62-1.71,5.05-4.43,8.34-4.64"/><path class="b" d="M12.14,20.09c1.72.76,3.54,1.7,5.01,2.89,2.37,2.01,4.45,4.62,7.51,2,1.4-1.19,2.7-2.79,4.17-3.9,1.49-1.19,3.33-1.16,5.01-.42,1.34.46,2.86.89,4.17,1.43,2.14.84,4.34,1.94,6.68,2,1.95.22,3.91.96,5.84,1.27,3.66.59,7.19-1.36,10.01-3.51,2.63-2.05,4.31-5.23,5.84-8.13,6.63-14.09,9.13,1.97,14.19,7.05,2.33,2.61,5.82,3.77,9.18,4.34,6.18,1.18,11.39-2.95,16.69-5.37,2.9-1.29,6.05-2.16,9.18-2.67,2.17-.35,4.48-.68,6.68-.37,3.26.52,6.18,2.33,9.18,3.61,1.04.48,2.36.9,3.34,1.51,3.02,2.26,5.16,6.25,9.18,6.9,2.17.25,3.93-1.5,5.84-2.2,2.45-.93,4.75.91,6.68,2.2,1.5,1,3.26,1.9,5.01,2.38,8.72,2.87,10.94-5.63,18.36-5.58"/></svg>