<?xml version="1.0" encoding="UTF-8"?><svg id="a" xmlns="http://www.w3.org/2000/svg" width="1920" height="2400" viewBox="0 0 192 240"><defs><style>.b{fill:none;stroke:#fff;stroke-miterlimit:10;stroke-width:.3px;}.c{stroke-width:0px;}</style></defs><rect class="c" x="0" width="192" height="240"/><path class="b" d="M9.65,229.52c1.92-.64,4.05-.64,6.01-1.05,1.91-.65,3.97-1.28,6.01-.92,2.62.37,5.13,1.55,7.73,1.99,1.66.31,3.47.36,5.16.46,1.97.15,4.04.38,6.01.41,1.98,0,4.11-.16,6.01.51,5.46,2.43,6.71.43,10.31-3.41,1.14-1.22,2.66-2.28,4.3-2.66,1.55-.45,3.05-1.45,4.3-2.44,1.48-1.16,2.96-2.65,4.3-3.96,1.11-1.04,2.69-2.46,4.3-1.66,3.32,2.47,3.91,7.69,7.73,9.63,4.22,2.39,8.32,2.6,12.89,1.11,1.93-.57,3.97-1.37,6.01-1.27,5.4.6,8.63,5.09,14.61,2.63,6.26-2.3,15.64-12.17,22.34-8.25,3.4,2.11,6.66,4.61,10.31,6.32,3.67,1.76,7.91,3.86,12.03,2.51,3.76-1.25,5.41-5.46,7.73-8.35,5.67-6.97,8.92-7.71,14.61-.15"/><path class="b" d="M9.65,225.54c2.12-1.12,4.69-1.14,6.87-2.09,4.81-2.5,9.1-.43,13.75,1.17,1.64.53,3.49.65,5.16,1.08,2.8.79,5.71,1.38,8.59,1.73,2.17.39,3.89,2.17,6.01,2.65,3.52.14,5.14-3.99,7.73-5.74,1.56-1.1,3.68-1.39,5.15-2.66,3.01-2.01,5.4-5.05,8.59-6.76,4.26-1.55,6.29,7.85,9.45,9.9,2.46,1.73,5.51,3.16,8.59,2.73,2.8-.4,5.3-2,7.73-3.32,2.09-1.26,4.71-1.34,6.87-.22,5.28,2.82,8.11,3.82,13.75.91,4.71-2.17,10.19-7.18,15.47-6.87,2.83.16,5.35,1.77,7.73,3.16,3.32,1.87,6.74,3.78,10.31,5.13,9.27,3.44,13.16-2.29,18.9-8.35,5-5.51,7.47-5.37,12.03.59"/><path class="b" d="M9.65,221.23c1.79-1.2,4.06-1.51,6.01-2.31,3.59-1.83,7.29-2.62,11.17-1.17,2.85,1.09,5.77,2.28,8.59,3.44,2.77,1.27,5.62,2.52,8.59,3.25,2.24.74,3.72,3.06,6.01,3.65,3.07.05,4.67-3.57,6.87-5.22,1.22-1.09,3.01-1.57,4.3-2.56,2.33-1.83,4.52-4.02,6.87-5.82,7.91-6.43,8.11,7.84,15.47,10.8,5.67,3.21,9.46-.53,13.75-3.9,5.72-4.13,9.22,4.46,15.47,2.86,4.9-1.25,9.14-4.34,13.75-6.34,8.44-3.99,16.42,2.91,24.06,5.75,4.79,1.88,8.45,1.14,12.89-1.23,3.7-1.93,6.57-5.1,9.45-8.04,4.03-4.08,6.53-1.75,9.45,2.05"/><path class="b" d="M9.65,216.83c1.51-1.07,3.45-1.52,5.16-2.17,1.96-.73,3.94-1.73,6.01-2.1,3.21-.65,6.53.2,9.45,1.53,2.4,1,4.79,2.26,6.87,3.81,1.32.91,2.85,1.83,4.3,2.53,1.1.46,2.45.9,3.44,1.6,1.92,1.28,3.41,4.25,6.01,3.97,2.51-.9,3.96-3.58,6.01-5.14,1.03-.84,2.41-1.6,3.44-2.43,1.74-1.53,3.41-3.39,5.16-4.91,8.03-7.55,10.13,2.59,14.61,7.66,2.61,2.55,6.72,4.85,10.31,2.94,2.33-1.22,4.09-3.44,6.01-5.17,3.19-2.91,5.9-.59,8.59,1.61,4.43,3.76,7.62,1.76,12.03-.65,4.82-2.34,9.99-4.65,15.47-4.37,4.81.05,9.47,1.73,13.75,3.81,3.91,2.03,8.47,4,12.89,2.45,3.27-1.26,6.68-2.66,9.45-4.85,5.28-4.6,7.91-10.54,13.75-2.22"/><path class="b" d="M9.65,212.61c1.81-1.1,4.03-1.58,6.01-2.27,2.2-.75,4.53-1.46,6.87-1.5,4.18-.16,8.45,1.06,12.03,3.18,1.81,1.21,3.44,2.91,5.15,4.25,1.54,1.24,3.7,1.74,5.16,3.11,1.66,1.47,2.91,3.92,5.16,4.54,2.2.11,3.68-2.1,5.16-3.42,1.59-1.6,3.63-2.95,5.16-4.62,5.22-5.67,9.53-11.25,15.47-2.55,1.6,2.16,3.06,4.77,5.16,6.5,2.13,1.67,4.96,3.22,7.73,2.38,2.91-.94,4.69-3.76,6.87-5.72,2.5-2.28,4.82-.88,6.87,1.14,6.64,6.99,8.86,1.71,15.47-1.25,3.78-1.59,7.96-2.07,12.03-2.14,4.02-.09,8.12-.03,12.03,1.03,4.76,1.16,8.7,4.93,13.75,5.05,5.14-.08,9.86-3.04,13.75-6.18,5.39-5.13,7.59-8.02,12.89-.5"/><path class="b" d="M9.65,208.88c7.16-2.87,18.99-4.17,25.78.15,1.85,1.35,3.42,3.28,5.16,4.76,1.01.83,2.47,1.4,3.44,2.29,2.03,1.74,3.28,4.91,6.01,5.67,2.11.05,3.66-1.93,5.16-3.17,1.39-1.27,3.06-2.57,4.3-4,5.39-6.61,9.37-11.41,16.32-3.07,1.85,2.13,3.57,4.7,6.01,6.21,1.99,1.29,4.58,2.2,6.87,1.2,2.66-1.1,4.31-3.87,6.87-5.13,4.37-1.38,6.24,5.19,10.31,5.59,3.07.08,5.29-2.66,7.73-4.15,5.49-3.77,12.6-2.77,18.9-2.67,3.72.03,7.56.01,11.17,1.01,4.63,1.54,8.59,5.46,13.75,5.11,2.81-.11,5.58-1.21,7.73-3.01,2.3-1.87,4.63-3.91,6.87-5.84,4.56-4.21,7.56-.44,10.31,3.5"/><path class="b" d="M9.65,205.86c3.84-1.34,8.01-1.32,12.03-1.45,3.71,0,7.54-.14,11.17.75,2.81.64,4.87,2.91,6.87,4.82,1.75,1.45,3.8,2.85,5.16,4.73,3.76,5.05,5.06,6.49,10.31,1.95,3.43-2.36,5.69-6.02,8.59-8.91,5.54-5.56,11.38.88,15.47,4.85,3.98,3.44,7.54,4.09,12.03,1.12,1.5-.9,3.39-1.97,5.16-1.18,3.12,1.44,5.48,6.69,9.45,4.43,2.6-1.61,4.87-3.94,7.73-5.13,2.41-1.06,5.15-1.19,7.73-1.38,4.28-.44,8.62-.17,12.89.22,3.71.36,7.68.25,11.17,1.73,2.33,1.07,4.55,2.6,6.87,3.68,3.59,1.82,7.91,1.81,11.17-.7,7.99-6.32,11.3-14.07,18.9-1.5"/><path class="b" d="M9.65,203.48c2.5-.72,5.17-.49,7.73-.43,2.55.01,5.18-.09,7.73-.15,4.1-.12,8.67-.17,12.03,2.56,1.65,1.37,3.74,2.46,5.16,4.1,5.14,5.74,5.67,10.69,13.75,4.69,3.07-2.04,5.01-5.45,7.73-7.87,4.87-4.85,11.24-.45,15.47,3.02,2.38,1.9,5.55,2.91,8.59,2.46,1.68-.23,3.45-.81,5.16-.78,2.85.08,4.66,2.74,6.87,4.16,2.6,1.77,5.06-.91,6.87-2.59,1.2-1.08,2.76-1.99,4.3-2.49,3.26-1.34,6.84-1.54,10.31-1.87,4.87-.89,9.82-.14,14.61.9,2.82.65,5.79.97,8.59,1.69,2.06.61,4.1,1.63,6.01,2.58,3.88,2.07,8.18,2.94,12.03.24,2.47-1.62,4.54-3.97,6.87-5.77,6.08-4.91,9.98,2.55,12.89,7.05"/><path class="b" d="M9.65,201.43c2.28-.13,4.61.43,6.87.5,3.42.06,6.89-.35,10.31-.43,3.62-.18,7.26.7,10.31,2.67.77.42,1.84.93,2.58,1.4.87.67,1.87,1.79,2.58,2.63,2.25,2.43,4.1,6.34,7.73,6.76,3.13.03,6.38-1.4,8.59-3.59,2.5-2.54,4.5-5.92,7.73-7.61,3.37-1.52,7.29-.26,10.31,1.51,2.45,1.42,4.85,3.33,7.73,3.72,7.46,1.08,7.28-.18,13.75,4.6,4.07,2.35,6.34-3.32,9.45-4.85,3.96-2.05,8.53-2.26,12.89-2.62,7.11-1.44,11.5.42,18.04,2.8,1.9.69,4.06.57,6.01.96,2.02.42,4.07,1.21,6.01,1.88,3.28,1.24,7.07,1.9,10.31.2,2.79-1.34,5.11-3.62,7.73-5.22,6.68-4.29,10.59,5.27,13.75,9.61"/><path class="b" d="M9.65,200.1c1.96.29,4.02.71,6.01.73,3.71.03,7.46-.59,11.17-.59,2.99-.05,5.91.98,8.59,2.22,1.45.61,3.17,1.14,4.3,2.3,2.56,2.44,4.64,5.67,7.73,7.5,3.34,2.03,8.13,2.19,11.17-.49,7.79-7.79,9.04-13.06,20.62-6.12,1.04.59,2.3,1.24,3.44,1.63,2.23.6,4.66.81,6.87,1.49,1.44.41,2.98,1.06,4.3,1.78,1.32.71,2.78,1.65,4.3,1.84,3.01.1,4.85-2.94,6.87-4.73,1.19-1.08,2.8-1.92,4.3-2.47,4.12-1.45,8.6-1.28,12.89-1.77,5.56-.78,10.7,1.94,15.47,4.44,2.13.99,4.61.73,6.87,1.03,4.53.77,9.1,3,13.75,1.67,3.42-.89,6.27-3.25,9.45-4.68,7.28-3.3,10.77,7.04,14.61,11.31"/><path class="b" d="M9.65,199.14c5.96,1.18,12.06-.56,18.04.08,2.07.29,4.07,1.24,6.01,1.94,1.38.59,3.06.98,4.3,1.86,2.56,2.16,4.85,4.82,7.73,6.59,3.29,2.66,7.69,5.41,12.03,3.74,6.45-3.44,10.23-14.59,18.9-8.75,1.93,1.12,3.88,2.5,6.01,3.21,1.64.47,3.49.56,5.15.95,2.87.48,5.66,1.88,8.59,1.93,2.85-.17,4.9-2.59,6.87-4.39,1.48-1.38,3.29-2.65,5.16-3.43,3.51-1.45,7.42-1.68,11.17-1.77,3.48-.2,7.09.12,10.31,1.54,2.77,1.02,5.12,3.02,7.73,4.32,2.14.97,4.61.62,6.87.9,2.28.32,4.6.99,6.87,1.31,5,.92,9.34-1.27,13.75-3.29,8.83-4.28,12.19,6.41,17.18,11.37"/><path class="b" d="M9.65,198.13c5.7.37,11.51-.85,17.18.03,2.05.47,4.07,1.44,6.01,2.23,1.39.59,3.08.92,4.3,1.85,1.12.82,2.34,1.93,3.44,2.77,1.03.78,2.41,1.43,3.44,2.2,2.26,1.75,4.35,3.94,6.87,5.32,6.18,3.36,9.17,1.47,13.75-3.05,2.01-1.9,4.08-4.25,6.87-4.9,3.73-.66,6.41,2.74,9.45,4.28,2.34,1.3,5.16,1,7.73,1.05,2.59-.02,5.38-.1,7.73-1.33,2.19-1.14,4.08-2.97,6.01-4.48,2.56-1.97,5.41-3.78,8.59-4.52,3.62-.95,7.48-.89,11.17-.46,5.04.51,9.94,2.43,13.75,5.82,1.21.87,2.81,1.47,4.3,1.6,1.38.07,2.93-.03,4.3.19,3.39.5,6.86,1.41,10.31,1,4.17-.39,7.91-2.71,12.03-3.3,7.79-1.07,10.48,8.14,15.47,12.21"/><path class="b" d="M9.65,196.89c3.42-.12,6.89-.46,10.31-.31,2.28,0,4.71.01,6.87.83,1.76.58,3.46,1.61,5.16,2.34.77.29,1.82.53,2.58.85,1.47.67,2.91,1.76,4.3,2.57,1.73,1.03,3.56,2.23,5.16,3.46,2.23,1.82,4.37,3.99,6.87,5.45,2.78,1.54,6.26,2.93,9.45,2.02,5.77-1.73,9.78-11.53,16.32-6.53,3.03,2.21,5.49,4.21,9.45,3.03,5.23-1.06,9.57-4.33,13.75-7.47,10.44-7.42,15.51-6.97,27.49-4.22,7.54,1.32,7.58,6.58,13.75,6.44,1.98-.03,4.06.29,6.01.59,2.82.45,5.78.59,8.59.01,5.31-.98,11.12-4.39,16.32-1.37,4.44,2.67,6.22,8.14,10.31,11.17"/><path class="b" d="M9.65,195.38c2.84-.16,5.75-.36,8.59-.2,1.98.06,4.1.06,6.01.63,2.46.61,4.49,2.4,6.87,3.18,8.04,1.98,13.28,9.07,20.62,12.41,3.16,1.29,6.81,3.32,10.31,2.46,4.84-1.27,8.45-9.56,13.75-6.45,2.71,1.65,5.29,3.6,8.59,2.21,4.73-1.76,8.66-5.16,12.89-7.81,5.1-3.37,10.95-6.23,17.18-6.19,2.61,0,5.21.8,7.73,1.4,2.22.55,4.61.7,6.87.96,1.88.2,3.78,1.06,5.16,2.36.99,1,2.15,2.27,3.44,2.9,1.83.88,4.05.65,6.01.92,3.11.38,6.32.84,9.45.4,7.15-1,15.59-6.14,21.48.56,2.75,2.93,4.52,6.9,7.73,9.4"/><path class="b" d="M9.65,193.73c2.55-.04,5.18-.07,7.73.05,2.64.05,5.45.36,7.73,1.79,1.06.61,2.28,1.37,3.44,1.78,1.71.41,3.48,1.06,5.15,1.56,3.2,1.35,5.59,4.16,8.59,5.85,1.66.91,3.41,1.97,5.16,2.73,2.25.96,4.67,1.77,6.87,2.84,3.15,1.38,6.97,4.25,10.31,1.86,1.88-1.27,3.5-3.13,5.15-4.65,1.76-1.72,3.73-2.43,6.01-1.25,3.87,2.1,5.83,1.1,9.45-.8,4.42-2.32,8.41-5.5,12.89-7.71,6.55-3.27,14.4-4.82,21.48-2.43,2.19.67,4.57,1.09,6.87,1.03,2.29-.05,4.88-.43,6.87.95,1.54,1.08,2.67,2.95,4.3,3.92,1.79,1,4.02,1.13,6.01,1.38,2.53.3,5.19.5,7.73.18,6.56-.68,13.17-5.17,19.76-2.5,5.12,2.48,7.09,8.49,11.17,12.15"/><path class="b" d="M9.65,191.91c3.69.37,7.61,0,11.17,1.19,1.74.69,3.37,1.94,5.16,2.53,7.57,1.19,7.92,2.15,13.75,6.52,3.33,2.19,7.41,2.91,11.17,4.04,2.42.75,4.69,2.12,6.87,3.37,5.45,3.48,7.56.2,11.17-3.64,1.29-1.43,3.1-2.91,5.16-2.34,1.08.27,2.32.75,3.44.84,2.59,0,4.67-2.08,6.87-3.2,3.85-2.28,7.88-4.43,12.03-6.12,6.38-2.84,12.9-3.63,19.76-2.27,2.84.64,5.64,1.91,8.59,1.91,1.98.07,4.04-.39,6.01-.47,4.7,0,4.88,4.94,10.31,6.06,3.64.8,7.52.8,11.17.06,6.68-1.31,14.1-6.07,20.62-1.91,3.82,2.71,6.3,6.95,9.45,10.34"/><path class="b" d="M9.65,189.82c2.84.53,5.9.58,8.59,1.7,1.73.75,3.35,2.03,5.16,2.59.77.21,1.79.18,2.58.15,1.09.03,2.35.2,3.44.28,2.21.25,4.24,1.59,6.01,2.85,1.87,1.4,3.82,2.98,6.01,3.85,3.61,1.33,7.57,1.57,11.17,2.89,5.69,2.19,8.44,6.6,13.75.6,1.79-1.84,3.98-4.66,6.87-3.58,1.05.38,2.3.88,3.44.69,2.83-.95,5.03-3.35,7.73-4.6,3.18-1.78,6.83-2.5,10.31-3.44,3.5-1.08,6.7-3.2,10.31-3.95,2.23-.47,4.63-.29,6.87,0,2.3.29,4.7.78,6.87,1.61,2.96,1.25,6.27,1.83,9.45,1.18,1.65-.27,3.52-.78,5.15-.16,1.34.58,2.4,1.98,3.44,2.95,2.26,2.19,5.47,3.29,8.59,3.11,6.3.12,12.07-2.77,18.04-4.32,8.44-2.45,13.58,3.36,18.9,8.94"/><path class="b" d="M9.65,187.67c2.32.68,4.75,1.4,6.87,2.57,1.65.9,3.27,2.26,5.15,2.61,2.54.02,5.18-.63,7.73-.5,1.49.2,3,.96,4.3,1.69,2.28,1.37,4.45,3.14,6.87,4.26,3,1.23,6.3,1.85,9.45,2.57,1.72.4,3.53.99,5.15,1.67,1.59.68,3.39,1.44,5.16,1.25,3.47-.44,5.31-4.19,8.59-5.04,1.48-.3,2.95.55,4.3,1.02,1.91.71,3.69-.71,5.16-1.76,1.58-1.13,3.29-2.4,5.16-3.01,3.59-1.19,7.51-.67,11.17-1.41,3.48-.89,6.33-3.35,9.45-4.99,4.77-2.73,10.73-1.84,15.47.51,8.2,4.51,11.45-1.02,15.47,2.35,2.27,2.34,5.21,4.45,8.59,4.52,3.49-.06,7.01-.78,10.31-1.87,3.71-1.19,7.34-2.86,11.17-3.64,5.82-1.26,12.76,3.19,17.18,6.64"/><path class="b" d="M9.65,186.26c2.98,1.33,5.66,3.4,8.59,4.81,1.65.71,3.48,0,5.16-.24,2.25-.34,4.57-1.41,6.87-.83,3.5.82,6.29,3.34,9.45,4.9,4.08,1.87,8.58,2.8,12.89,4.01,4.7,1.38,7.05,1.23,11.17-1.46,1.27-.73,2.87-1.13,4.3-.68,3.21,1.19,4.55,2.79,7.73.24,6.71-5.65,9.28-3.81,17.18-3.81,3.09-.01,6.05-1.4,8.59-3.05,4.52-3.07,9.65-7.18,15.47-5.74,2.17.57,4.07,2.06,6.01,3.12,1.79,1.01,3.96,1.61,6.01,1.3,1.37-.18,2.9-.63,4.3-.48,1.3.19,2.4,1.34,3.44,2.05,3.36,2.43,6.33,2.84,10.31,1.78,6.15-1.17,11.83-4.29,18.04-5.16,2.63-.38,5.26.47,7.73,1.26,3.2,1.02,6.49,2.08,9.45,3.69"/><path class="b" d="M9.65,185.7c2.81,1.74,5.86,4.88,9.45,3.8,1.7-.37,3.51-.83,5.16-1.39,1.34-.5,2.86-.98,4.3-.99,3.83.05,7.11,2.4,10.31,4.23,2.38,1.38,5.15,2.07,7.73,2.94,3.57,1.06,7.42,2.2,11.17,1.47,1.71-.35,3.43-1.14,5.16-1.41,2.25-.37,4.14,1.26,6.01,2.22,1.83,1.02,3.69.06,5.16-1.13,1.63-1.22,3.31-2.68,5.15-3.57,1.86-.81,4.02-.89,6.01-.73,5.6.65,10.08,1.32,15.47-1.04,3.39-1.38,6.37-3.7,9.45-5.64,2.76-1.71,6.09-3.97,9.45-2.68,3.33,1.27,5.7,4.84,9.45,5.01,1.4.03,2.91-.48,4.3-.64,1.22-.06,2.4.82,3.44,1.35,2.59,1.42,5.75,2.13,8.59,1.04,8.33-2.35,17.06-6.95,25.78-3.72,3.69,1.07,7.55,1.81,11.17,3.09"/><path class="b" d="M9.65,185.3c1.75,1.23,3.78,2.62,6.01,2.48,3.86-.53,7.34-2.69,11.17-3.31,5.4-.65,9.93,2.9,14.61,4.95,3.08,1.04,6.24,2.15,9.45,2.71,2.24.39,4.62.37,6.87.06,3.04-.54,5.32-.02,7.73,1.92,2.11,1.64,3.84,2,6.01.24,1.92-1.47,3.89-3.12,6.01-4.29,2.62-1.4,5.76-1.11,8.59-.7,3.39.57,6.91.81,10.31.16,3.2-.57,6.5-1.28,9.45-2.68,4.02-1.86,7.31-5.03,11.17-7.13,5.92-2.81,8.02,4.25,12.89,4.94,1.12.05,2.38-.39,3.44-.71,1.44-.3,2.93.55,4.3.87,1.63.45,3.48.67,5.16.36,3.79-1.02,7.35-2.97,11.17-3.91,5.92-1.68,12.22-.88,18.04.83,3.4.9,6.92,1.64,10.31,2.59"/><path class="b" d="M9.65,184.24c5.46,3.25,10.8-2.26,16.32-2.52,5.23-.35,10.05,2.15,14.61,4.38,3.59,1.36,7.36,2.56,11.17,3.1,3.99.46,7.83.02,11.17,2.74,1.25.86,2.69,2.05,4.3,1.91,2.66-.77,4.49-3.33,6.87-4.65,2.98-1.92,5.94-2.61,9.45-2.02,2.53.39,5.16.8,7.73.67,2.57-.11,5.19-.66,7.73-1.06,5.23-.71,9.45-1.75,13.75-5,3.41-2.32,7.89-7.16,12.03-3.61,1.43,1.16,2.7,2.85,4.3,3.8.7.39,1.79.56,2.58.37,1.07-.32,2.29-.95,3.44-.85,2.53.38,5.24.67,7.73-.12,3.94-1.47,7.75-3.71,12.03-4.05,4.01-.36,8.06.38,12.03.85,5.3.53,10.38,2.33,15.47,3.81"/><path class="b" d="M9.65,182.26c6.24,1.22,11.49-4.87,18.9-3.1,2.31.47,4.69,1.13,6.87,2.02,2.83,1.21,5.6,2.78,8.59,3.59,2.5.83,5.14,1.56,7.73,2.04,2.63.48,5.41.99,7.73,2.39,7.46,5.2,6.65,2.01,12.89-2.04,2.32-1.28,5.06-2.16,7.73-2.02,3.41.27,6.88.96,10.31.59,2.29-.21,4.61-.85,6.87-1.24,2.25-.4,4.63-.61,6.87-1,4.16-.57,7.8-2.85,11.17-5.22,2.96-1.8,7.02-5.51,10.31-2.44,1.84,1.53,3.29,4.51,6.01,4.36.79-.14,1.79-.64,2.58-.83,1.66-.3,3.49-.02,5.15-.3,2.41-.28,4.7-1.41,6.87-2.42,4.88-2.36,9.46-1.66,14.61-.89,3.11.41,6.33.19,9.45.08,4.27.12,8.09,2.45,12.03,3.85"/><path class="b" d="M9.65,179.98c5.82-.64,11.15-4.84,17.18-3.77,2.93.54,5.86,1.57,8.59,2.75,2.27,1.03,4.53,2.34,6.87,3.19,4.46,1.8,9.3,2.63,13.75,4.45,2.98,1.11,6.14,4.6,9.45,2.67,1.82-1.14,3.32-2.97,5.16-4.1,2.27-1.46,5.11-1.67,7.73-1.71,3.7.12,7.48.81,11.17.16,2.32-.35,4.59-1.32,6.87-1.82,4.29-.8,8.82-.76,12.89-2.53,3.62-1.51,6.66-4.23,10.31-5.71,1.55-.74,3.41-1.78,5.16-1.07,3.03,1.34,4.62,6.86,8.59,5.07,2.48-.77,5.25-.31,7.73-1.15,1.74-.47,3.47-1.41,5.16-2.03,4.19-1.6,8.67-.28,12.89.49,2.25.38,4.67.28,6.87-.33,1.69-.41,3.44-1.18,5.16-1.47,4.18-.35,7.56,2.85,11.17,4.47"/><path class="b" d="M9.65,178.25c1.76-.49,3.46-1.5,5.16-2.16,2.22-.81,4.6-1.47,6.87-2.11,4.46-1.18,8.94.73,12.89,2.67,3.09,1.58,6.17,3.38,9.45,4.54,3.37,1.32,6.96,2.2,10.31,3.57,7.77,3.55,7.84,4.66,14.61-1.34,1.94-1.48,4.5-1.85,6.87-1.68,5.15.22,10.59,1.1,15.47-1.06,1.67-.7,3.38-1.68,5.16-2.1,3.1-.65,6.39-.29,9.45-1.18,2.69-.44,5.45-1.19,7.73-2.72,3.16-2.05,6.48-4.43,10.31-4.88,2.3.13,3.71,2.45,5.16,3.96,2.54,2.81,3.71,1.58,6.87,1.45,1.68,0,3.51,0,5.16-.36,1.74-.32,3.45-1.22,5.16-1.64,4.07-.91,8.1.82,12.03,1.66,8.23,1.89,11.01-5.95,16.32-4.32,2.85,1.09,5.11,3.43,7.73,4.94"/><path class="b" d="M9.65,177.38c2.04-.93,3.91-2.45,6.01-3.26,2.79-.81,5.7-1.66,8.59-1.95,5.07-.36,9.47,2.72,13.75,4.99,5.58,3.37,12.09,4.57,18.04,7.07,8.01,3.61,8.44-1.78,14.61-4.11,2.8-.7,5.77.03,8.59.21,3.46.34,7.13.17,10.31-1.37,2.62-1.15,4.87-3.34,7.73-3.92,1.66-.31,3.48-.08,5.16-.14,1.09-.05,2.35-.36,3.44-.44,4-.1,7.06-1.12,10.31-3.48,2.71-1.78,6.03-4.58,9.45-3.26,2.58,1.41,3.91,4.78,6.87,5.57.76.12,1.82,0,2.58.01,1.38.05,2.92.31,4.3.42,1.07.08,2.37.04,3.44-.14,1.37-.27,2.88-.81,4.3-.77,5.54-.15,10.82,4.35,16.32,2.25,1.95-.83,3.66-2.38,5.16-3.84,1.61-1.56,3.51-3.81,6.01-3.32,3.03.97,5.07,3.86,7.73,5.49"/><path class="b" d="M9.65,177.21c2.32-1.29,4.32-3.36,6.87-4.23,4.15-1.12,8.66-2.28,12.89-.91,4.25,1.42,7.99,4.12,12.03,6.01,3.24,1.58,6.87,2.26,10.31,3.25,2.53.68,5.08,1.83,7.73,1.9,6.54-.43,7.26-6.58,15.47-5.16,3.11.34,6.34.94,9.45.37,2.47-.44,4.81-1.68,6.87-3.06,2.12-1.42,4.27-3.22,6.87-3.61,1.37-.17,2.92.04,4.3-.01,1.37-.17,2.91-.26,4.3-.14,2.64.24,5.43-.17,7.73-1.55,5.49-3.04,8.8-8.93,14.61-2.23,3.52,3.76,4.27,2.64,8.59,3.78,1.64.48,3.43,1.05,5.16,1.17,2.32-.07,4.63-.16,6.87.62,6.05,1.77,12.1,5.33,17.18-.53,2.58-2.34,5.25-8.86,9.45-6.59,2.11,1.41,3.88,3.5,6.01,4.88"/><path class="b" d="M9.65,176.96c2.04-1.26,3.87-3.07,6.01-4.17,3.48-1.42,7.41-2.2,11.17-1.79,5.04.65,9.22,3.92,13.75,5.96,2.65,1.36,5.69,1.79,8.59,2.29,2.28.39,4.61,1.04,6.87,1.49,7.16,1.7,9.81-5.16,16.32-4.79,4.55.17,9.34,1.85,13.75-.04,2.13-.87,4.16-2.23,6.01-3.57,1.78-1.37,3.77-2.76,6.01-3.2,1.66-.25,3.49-.19,5.15-.39,2.56.06,5.15,1.09,7.73.66,7.16-1.04,9.81-9.46,15.47-6.76,3,1.64,5.05,5.05,8.59,5.68,2.73.44,5.17,2.03,7.73,2.95,1.35.46,2.96.66,4.3,1.18,2.57.93,5.13,2.16,7.73,2.97,14.48,4.42,13.74-10.18,20.62-11.14,2.72.59,4.42,3.39,6.87,4.58"/><path class="b" d="M9.65,175.74c2.01-1.08,3.92-2.6,6.01-3.53,3.54-1.25,7.39-2.24,11.17-1.83,4.64.53,8.64,3.28,12.89,5,3.47,1.72,7.44,1.44,11.17,2,3.38.51,6.96,1.78,10.31.46,2.67-.97,4.99-2.92,7.73-3.71,4.85-1.16,9.74,1.45,14.61.6,5.61-1.02,9.28-6.15,14.61-7.79,1.64-.39,3.45-.95,5.15-.65,5.89,1.48,8.55,2.28,13.75-1.78,6.44-5.78,7.32-7.19,14.61-1.18,1.97,1.64,4.59,2.26,6.87,3.28,2.61,1.44,5.07,3.33,7.73,4.68,2.73,1.57,5.5,3.38,8.59,4.14,5.8,1.38,11.22.38,14.61-4.94,1.92-2.28,4.11-8.13,7.73-6.93,1.77.9,3.31,2.49,5.16,3.26"/><path class="b" d="M9.65,172.85c2.72-1.28,5.56-2.56,8.59-2.81,2.81-.48,5.72-1.05,8.59-.85,4.23.25,8.1,2.31,12.03,3.73,1.63.64,3.41,1.31,5.16,1.51,1.96.23,4.05.17,6.01.29,3.13.11,6.32,1.13,9.45.56,5.81-1.38,7.78-4.94,14.61-3.54,2.26.37,4.58,1.07,6.87,1.19,5.26.22,9.54-3.52,13.75-6.16,2.33-1.39,4.86-3.34,7.73-2.8,2.27.38,4.54,1.37,6.87,1.33,5-.06,8.41-4.26,12.03-7.12,4.29-3.51,8.38.98,12.03,3.2,2.19,1.4,4.78,2.37,6.87,3.92,2.86,2.3,5.57,4.96,8.59,7.07,4.38,3.17,10.4,3.38,15.47,1.95,3.54-.97,5.8-4.23,7.73-7.13,1.15-1.62,2.36-3.79,4.3-4.55,2.28-.43,3.94,1.92,6.01,2.47"/><path class="b" d="M9.65,168.81c1.88-.89,3.94-1.72,6.01-1.96,1.97-.09,4.05-.13,6.01-.26,7.26-.68,14.03,2.02,20.62,4.71,2.72,1.01,5.73,1.01,8.59.97,2.26-.03,4.62.22,6.87.04,3.05-.2,5.79-1.79,8.59-2.84,4.89-1.99,9.74,1.08,14.61,1.44,3.05.13,5.94-1.28,8.59-2.62,2.79-1.29,5.28-3.22,7.73-5.03,1.75-1.15,3.99-1.41,6.01-.97,5.23,1.32,8.6.89,12.89-2.54,1.97-1.5,3.78-3.47,6.01-4.59,2.91-1.57,6.13.07,8.59,1.75,1.98,1.34,4.09,2.75,6.01,4.17,2.04,1.5,4.26,3.01,6.01,4.86,2.17,2.11,4.23,4.63,6.87,6.17,4.16,2.16,9.25,1.92,13.75,1.09,4.35-.71,7.07-3.73,9.45-7.21,1.15-1.52,2.4-3.57,4.3-4.21,1.89-.31,3.41,1.46,5.16,1.87"/><path class="b" d="M9.65,165.11c1.93-.78,3.96-1.66,6.01-2.05,1.66-.25,3.48-.31,5.16-.46,7.84-.64,15.61,2.09,22.34,5.92,3.97,2.23,8.59,1.48,12.89,1,2.01-.23,4.12-.71,6.01-1.44,2.43-1.03,5.02-2.28,7.73-2.04,2.98.24,5.73,1.71,8.59,2.43,3.22.88,6.49-.38,9.45-1.58,3.04-1.01,5.92-2.54,8.59-4.29,2.03-1.26,4.47-2.04,6.87-1.87,9.43,1.09,11-3.39,18.04-7.49,6.28-3.04,12.07,3,16.32,6.95,1.28,1.29,2.95,2.47,4.3,3.69,1.75,1.56,3.39,3.51,5.16,5.05,4.45,3.86,11.76,3.52,17.18,2.33,3.57-.67,6.42-3.22,8.59-6.01,1.24-1.49,2.54-3.38,4.3-4.29,1.81-.78,3.48.89,5.16,1.32"/><path class="b" d="M9.65,160.91c1.96-.52,4.01-1.19,6.01-1.5,2.85-.25,5.75-.64,8.59-.96,4.74-.36,9.54,1.24,13.75,3.32,3.8,1.86,6.8,5.65,11.17,6.22,2.31.22,4.65-.51,6.87-1.03,3.24-.73,6.38-1.97,9.45-3.18,3.19-1.2,6.53.1,9.45,1.43,5.2,2.52,8,.51,12.89-1.16,3.07-1.04,6.5-.94,9.45-2.36,1.63-.73,3.4-1.56,5.16-1.96,2.56-.54,5.32-.68,7.73-1.76,4.05-1.7,7.04-5.35,11.17-6.9,7.45-2.73,12.82,3.92,17.18,8.91,1.19,1.36,2.88,2.49,4.3,3.6,1.12.89,2.35,2.07,3.44,3,5.36,4.53,13.41,4.28,19.76,2.24,3.47-1.35,6.08-4.28,8.59-6.92,3.16-3.14,3.95-2.56,7.73-.95"/><path class="b" d="M9.65,155.58c5.15.32,10.38.14,15.47-.78,4.44-.78,9.01.63,12.89,2.74,4.14,2.13,6.75,6.65,11.17,8.27,2.64.76,5.3-.57,7.73-1.45,2.23-.89,4.65-1.58,6.87-2.5,3.79-1.75,6.74-.81,10.31.87,6.38,3.19,8.87-1.52,14.61-2.45,4.44-.26,6.5,2.77,11.17.22,3.58-1.97,7.65-3.04,11.17-5.13,3.65-2.21,6.8-5.65,11.17-6.38,8.75-1.62,12.28,5.39,17.18,10.96.92.95,2.33,1.72,3.44,2.42,1.43.91,2.88,2.14,4.3,3.07,5.76,3.71,13.78,3.97,19.76.63,3.43-1.98,6.1-5.16,9.45-7.22.68-.37,1.8-.61,2.58-.49,1.12.22,2.34.9,3.44,1.21"/><path class="b" d="M9.65,150.19c2.02.5,3.97,1.6,6.01,2.01,8.67,1.64,11.75-3.7,21.48.95,2.61,1.2,4.94,3.14,6.87,5.24,2.33,2.37,4.82,6.06,8.59,5.53,2.42-.47,4.6-1.94,6.87-2.84,1.34-.59,2.91-.99,4.3-1.43,1.34-.44,2.88-.84,4.3-.76,2.68.17,5.1,1.75,7.73,2.15,3.27.5,5.93-1.91,8.59-3.39,8.24-4.95,9.85,6.64,17.18,1.96,3.42-2.2,6.99-4.33,10.31-6.68,3.1-2.34,6.26-5.1,10.31-5.44,5.3-.78,9.75,1.37,12.89,5.64,1.66,2.03,3.13,4.54,5.16,6.25,2.58,1.54,5.16,3.29,7.73,4.85,4.36,2.49,9.86,3.32,14.61,1.47,3.52-1.51,6.3-4.38,9.45-6.5,4.49-3.13,5.36-2.68,10.31-1.06"/><path class="b" d="M9.65,146.14c2.76.73,4.92,3.03,7.73,3.66,6.08,1.33,10.56-2.96,17.18-.7,4.48.97,8.32,3.73,11.17,7.25,1.54,1.7,3.11,3.73,5.16,4.85,3.69,1.71,6.97-1.9,10.31-2.96,2.17-.69,4.59-1.15,6.87-1.1,2.3.16,4.55,1.22,6.87,1.21,4.79-.16,7.59-5.08,12.03-6.21,5.13-.89,7.17,5.43,11.17,7.31,3,1.15,5.56-1.74,7.73-3.41,1.91-1.62,4.03-3.22,6.01-4.75,2.79-2.2,5.75-4.64,9.45-4.9,10.21-1.04,12.33,2.96,18.04,10.08,2.27,2.19,5.14,3.87,7.73,5.64,15.7,9.12,16.95-4.82,27.49-7.12,2.69-.45,5.14,1.29,7.73,1.63"/><path class="b" d="M9.65,143.4c2.58.62,4.5,2.79,6.87,3.84,3.03,1.38,6.4.39,9.45-.39,2.5-.63,5.18-.98,7.73-.45,8.73,1.09,10.74,4.76,16.32,10.53,5.7,5.63,9.2-1.84,15.47-1.68,2.85-.28,5.76.64,8.59.24,5.53-.76,8.13-7.59,13.75-7.87,5.77.41,7.89,10.06,12.89,10.6,2.86-.31,4.79-2.98,6.87-4.7,1.88-1.7,3.97-3.39,6.01-4.89,1.54-1.11,3.29-2.3,5.16-2.75,4.51-.77,9.52-.87,13.75,1.09,2.4,1.23,4.27,3.46,6.01,5.47,2.63,2.84,5.42,5.73,8.59,7.97,14.59,9.86,15.61-6.87,25.78-7.91,3.34-.12,6.15,2.4,9.45,2.58"/><path class="b" d="M9.65,141.5c2.25.58,4.06,2.31,6.01,3.47,2.91,1.79,6.39.9,9.45.07,2.49-.64,5.15-1.09,7.73-.9,4.59.2,9.41.83,12.89,4.12,2.9,2.4,5.12,5.89,8.59,7.55,2.01.89,4.2.02,6.01-.92,1.59-.79,3.38-1.54,5.16-1.76,1.67-.21,3.48-.06,5.16-.12,6.71.19,9.17-6.64,14.61-9.08,7.37-2.68,10.15,9.68,15.47,12.11,2.81.62,4.91-2.24,6.87-3.81,2.11-1.9,4.46-3.74,6.87-5.23,2.75-1.93,6.18-2.27,9.45-2.24,3.14.04,6.42.04,9.45.96,2.97,1.02,5.52,3.19,7.73,5.36,2,2.17,3.79,4.77,6.01,6.73,13,11.09,15.21-8.12,24.92-7.69,3.66.27,6.62,3.19,10.31,3.33"/><path class="b" d="M9.65,140.1c2.19.68,4.01,2.34,6.01,3.4,3,1.57,6.41.32,9.45-.46,2.78-.73,5.72-1.03,8.59-.94,4.12-.07,8.49.23,12.03,2.56,4.77,2.66,8.38,9.63,14.61,8.14,2.26-.59,4.53-1.58,6.87-1.83,1.68-.22,3.54-.26,5.16-.85,4.83-1.97,7.29-7.39,12.03-9.56,8.3-3.46,10.83,9.09,16.32,12.64,2.56,1.39,4.97-1.17,6.87-2.61,1.86-1.52,3.92-3.02,6.01-4.2,2.32-1.4,5-2.31,7.73-2.31,4.85-.04,9.82.04,14.61.88,4.68.72,6.64,2.48,9.45,6.15,13.04,16.62,15.84-2.11,24.92-3,4.35-.26,7.79,3.33,12.03,3.66"/><path class="b" d="M9.65,139.01c2.37.92,4.39,2.8,6.87,3.44,2.61.54,5.25-.53,7.73-1.21,2.76-.81,5.71-1.29,8.59-1.23,4.68-.01,9.56.43,13.75,2.71,4.55,2.31,8.28,7.06,13.75,7.03,1.7-.01,3.49-.37,5.16-.66,2.01-.36,4.17-.71,6.01-1.63,3.4-1.76,5.66-5.12,8.59-7.49,6.8-5.57,11.39-3.43,15.47,3.67,2.13,2.93,5.01,8.97,9.45,6.88,4.27-2.43,8.03-6.04,12.89-7.35,6.27-1.35,12.6.96,18.9.94,1.67.01,3.49-.29,5.15-.11,4.46,1.1,6.85,5.74,10.31,8.4,2.72,2.35,5.92,2.1,8.59-.22,4-3.49,6.87-7.78,12.89-5.56,2.88.97,5.56,2.78,8.59,3.3"/><path class="b" d="M9.65,138.13c1.97.87,3.9,2.19,6.01,2.7,2.31.49,4.69-.3,6.87-.99,2.77-.89,5.67-1.76,8.59-1.88,4.94-.09,9.96.84,14.61,2.52,5.38,2.12,10.25,6.21,16.32,5.98,8.78.1,10.48-3.11,16.32-8.46,2.61-2.19,5.97-3.89,9.45-3.71,8.21.24,9.3,15,17.18,14.11,2.21-.56,4.12-2.11,6.01-3.31,5.27-3.63,10.01-5.17,16.32-3.26,3.36.84,6.81,2.03,10.31,1.95,1.71-.06,3.5-.51,5.16-.91,4.03-1.05,6.96,1.84,9.45,4.58,2.68,3.02,5.9,4.79,9.45,1.79,2.15-1.76,4.11-4.17,6.87-4.98,4.88-1.14,9.18,2.5,13.75,3.56"/><path class="b" d="M9.65,137.36c4.57,2.1,7.17,2.72,12.03,1.07,7.79-2.66,10.85-3.26,18.9-1.04,4.75.91,9.16,3.04,13.75,4.51,4.66,1.24,9.95,1.98,14.61.42,4.08-1.71,6.58-5.76,10.31-7.98,2.8-1.65,6.23-2.42,9.45-1.95,7.8,1.03,8.73,13.15,16.32,13.91,1.85-.02,3.63-1.04,5.16-2,2.22-1.43,4.46-3.07,6.87-4.17,7.48-3.63,13.36,2.77,20.62,3.29,3.28.28,6.36-1.18,9.45-2,5.77-1.07,7.71,8.87,13.75,6.42,2.23-1.06,3.88-3.22,6.01-4.45,5.02-2.97,10.5.97,15.47,2.17"/><path class="b" d="M9.65,136.55c9.12,3.3,13.08-.47,21.48-2.18,2.89-.52,5.81.26,8.59.98,1.96.51,4.08.87,6.01,1.48,4.71,1.61,9.6,2.87,14.61,2.98,3.14.1,6.57.24,9.45-1.21,4-2.07,6.71-6.31,11.17-7.55,3.34-.89,7.12-.87,10.31.55,1.69.81,3.13,2.38,4.3,3.81,3.03,3.45,5.79,9.42,11.17,8.85,3.99-.82,6.81-4.23,10.31-6.07,7.14-3.88,12.31,2.08,18.9,3.94,3.09.81,6.51.46,9.45-.77,2.72-1.29,5.11-3.03,7.73-.38,1.84,1.7,3.41,4.26,6.01,4.82,2.29.45,4.35-1.06,6.01-2.44,5.4-4.74,11.18-1.53,17.18-.23"/><path class="b" d="M9.65,135.6c5.08,1.01,10.52,1.57,15.47-.33,2.55-.88,5.09-2.09,7.73-2.64,2.27-.47,4.65.09,6.87.54,2.27.47,4.67.81,6.87,1.54,4.42,1.46,9.1,2.07,13.75,2.02,3.15-.06,6.51-.11,9.45-1.36,4.17-1.86,7.27-6.07,12.03-6.56,3.82-.34,8.09.27,11.17,2.72,4.62,3.51,8.58,12.74,15.47,10.6,2.96-1.15,5.15-3.73,7.73-5.48,6.89-4.7,12.61.92,18.9,3.56,3.25,1.37,7.05,1.17,10.31-.04,2.86-1.06,5.68-4.66,8.59-1.71,3.12,3.25,5.22,6.93,10.31,4.31,2.14-1.28,4.33-2.87,6.87-3.18,3.73-.51,7.48.6,11.17.95"/><path class="b" d="M9.65,134.5c2.85.27,5.76.63,8.59,1.04,2.9.41,5.93.03,8.59-1.2,2.32-.96,4.51-2.43,6.87-3.28,2.18-.77,4.62-.49,6.87-.26,2,.18,4.09.47,6.01,1.08,4.98,1.54,10.26,2.19,15.47,1.8,2.87-.26,5.91-.48,8.59-1.64,3.96-1.67,7.49-5.01,12.03-4.84,3.31.1,6.76,1.01,9.45,2.99,5.24,3.6,10.68,13.88,18.04,9.39,2.42-1.6,4.36-4.03,6.87-5.51,6.51-3.41,13.05,1.92,18.9,4.4,3.58,1.46,7.85.99,11.17-.92,1.68-.93,3.19-2.63,5.16-2.93,3.22.29,4.44,4.23,6.87,5.9,4.42,2.94,9.14-2.35,13.75-2.63,3.11-.44,6.33-.17,9.45-.26"/><path class="b" d="M9.65,133.24c2.28.12,4.66.32,6.87.87,3.04.82,6.38,1.75,9.45.56,3.2-1.08,5.69-3.6,8.59-5.23,1.81-.95,4-1.23,6.01-1.34,1.69-.07,3.51-.04,5.15.37,3.67.89,7.39,1.95,11.17,2.28,4.28.31,8.72.03,12.89-1.03,3.71-1.13,7.22-3.33,11.17-3.52,3.63-.1,7.34,1.06,10.31,3.14,5.6,3.66,12.57,13.75,19.76,7.92,2.25-1.81,4.15-4.36,6.87-5.5,6.36-1.82,13.2,2.03,18.9,4.46,3.67,1.48,7.97.67,11.17-1.56,1.61-1.03,3.15-2.75,5.16-2.93,3.25.52,4.45,4.46,6.87,6.29,3.64,2.76,8.34-1.32,12.03-2.3,3.31-1.04,6.88-1.24,10.31-1.57"/><path class="b" d="M9.65,131.74c1.99.05,4.09.21,6.01.72,2.56.71,5.06,2,7.73,2.25,5.13.47,8.33-4.22,12.03-6.92,3.27-2.02,7.34-3.14,11.17-2.42,3.46.6,6.85,1.79,10.31,2.41,5.13.87,10.58.68,15.47-1.21,5.9-2.4,12.76-1.14,18.04,2.2,4.95,3.02,12.76,10.78,18.9,8.04,3.22-1.69,5.17-5.31,8.59-6.67,3.06-.87,6.37-.19,9.45.27,1.99.33,4.1.78,6.01,1.43,1.67.58,3.43,1.37,5.16,1.79,8.63,2.11,11.92-5.94,16.32-4.51,2.85,1.39,4.2,4.79,6.87,6.44,3.53,1.84,7.81-1.67,11.17-2.76,3-1.15,6.27-1.7,9.45-2.08"/><path class="b" d="M9.65,129.85c1.99.02,4.1.19,6.01.75,2.59.83,5.07,2.26,7.73,2.86,6.19,1.59,9.38-4.91,13.75-7.86,5.85-3.97,9.8-3.97,16.32-1.69,4.9,1.77,10.29,3.09,15.47,1.76,2.56-.68,5.03-2.15,7.73-2.15,2.38.03,4.68,1.06,6.87,1.87,2.33.87,4.74,1.84,6.87,3.11,4.87,2.87,9.85,5.95,15.47,7.09,4.42.88,7.14-3.48,10.31-5.72,2.97-2.04,6.9-1.4,10.31-1.36,2.26.11,4.64.22,6.87.63,2.55.47,5.12,1.41,7.73,1.5,6.54.46,10.84-6.08,15.47-3.91,2.86,1.45,4.65,4.66,7.73,5.73,2.63.77,5.29-.69,7.73-1.52,3.32-1.32,6.77-2.57,10.31-3.18"/><path class="b" d="M9.65,127.46c7.03-.27,9.37,3,15.47,4.28,4.4.95,7.48-2.62,10.31-5.38,5.5-4.71,9.72-8.05,17.18-5.31,4.4,1.7,8.9,3.8,13.75,3.39,2.45-.13,4.71-1.37,6.87-2.4,2.61-1.35,5.33-.87,7.73.65,2.7,1.69,5.7,2.98,8.59,4.3,4.67,2.38,9.58,4.35,14.61,5.87,8.17,3.14,9.32-4.32,16.32-5.15,4.23-.75,8.6-1.03,12.89-.92,2.56.07,5.17.59,7.73.64,3.29.08,6.45-1.24,9.45-2.45,2.95-1.24,6.48-2.36,9.45-.57,2.3,1.27,4.3,3.36,6.87,4.09,1.65.47,3.5.04,5.15-.21,3.57-.33,6.89-1.95,10.31-2.9"/><path class="b" d="M9.65,124.8c2.59.04,5.31.34,7.73,1.31,2.55,1.05,5.02,2.55,7.73,3.16,5.59,1.66,8.15-1.77,12.03-4.96,7.84-6.58,10.25-7.22,19.76-3.14,2.98,1.12,6.26,1.77,9.45,1.48,2.12-.18,4.17-1.12,6.01-2.13,1.55-.83,3.34-1.78,5.16-1.57,1.92.31,3.6,1.64,5.16,2.72,1.57,1.12,3.37,2.16,5.15,2.89,6.09,2.7,12.55,4.43,18.9,6.37,3.92,1.28,7.01-1.1,10.31-2.8,1.31-.6,2.92-.82,4.3-1.21,1.67-.44,3.47-.94,5.16-1.31,3.09-.67,6.31-1.05,9.45-1.29,2.25-.14,4.62,0,6.87-.25,3.78-.55,7.48-1.83,11.17-2.8,4.22-1.33,7.24-1.69,11.17.85,2.79,1.87,6.19,2.53,9.45,3.09,2.66.54,5.31-.51,7.73-1.48"/><path class="b" d="M9.65,122.31c2.57.13,5.26.33,7.73,1.08,2.34.75,4.57,2.06,6.87,2.91,2.42.83,5.24,1.68,7.73.72,3.14-1.53,5.85-4.02,8.59-6.15,5.22-4.42,9.53-3.37,15.47-1.38,15.95,4.79,17.89-7.16,25.78-1,4.85,4.12,11.1,5.89,17.18,7.31,2.29.54,4.65,1.2,6.87,1.96,2.74,1.04,5.8,1.41,8.59.33,2.29-.93,4.5-1.41,6.87-1.97,2.29-.68,4.59-1.67,6.87-2.38,2.8-.84,5.73-1.53,8.59-2.12,1.95-.34,4.05-.46,6.01-.74,1.68-.27,3.48-.72,5.15-1.02,2.26-.42,4.65-.74,6.87-1.31,1.7-.43,3.47-1.11,5.15-1.59,2.55-.84,5.37-.39,7.73.81,2.04.88,4.18,1.85,6.01,3.12,2.57,1.73,5.52,3.1,8.59,1.72"/><path class="b" d="M9.65,120.16c2.84.21,5.82.16,8.59.88,3.8,1.12,7.27,3.36,11.17,4.18,3.81.88,7.47-2.51,10.31-4.64,2.85-2.49,6.45-4.17,10.31-3.66,2.57.26,5.17.93,7.73,1.21,3.43.4,6.99.11,10.31-.83,4.17-1.09,8.57-4.53,12.89-2.13,2.36,1.29,4.42,3.29,6.87,4.43,2.97,1.38,6.26,2.21,9.45,2.89,3.17.6,6.45,1.09,9.45,2.33,3.29,1.47,6.82,1.93,10.31.86,1.67-.39,3.52-.55,5.16-1.09,2.02-.63,4.06-1.57,6.01-2.37,2.8-1.1,5.73-2.13,8.59-3.06,2.51-.71,5.21-.99,7.73-1.64,3.64-.94,7.5-.78,11.17-1.51,4.33-.83,8.3-4.23,12.89-2.98,5.58.85,8.46,8.12,13.75,8.27"/><path class="b" d="M9.65,118.14c3.12.23,6.39-.21,9.45.58,4.15,1.1,7.8,3.85,12.03,4.66,5.52.04,8.72-5.72,13.75-7.18,4.18-1.31,8.61-.16,12.89-.22,4.39,0,8.76-1.01,12.89-2.46,7.68-2.88,9.77-1.75,16.32,2.55,2.07,1.27,4.52,1.96,6.87,2.48,3.09.75,6.34,1.01,9.45,1.66,2.38.51,4.65,1.67,6.87,2.63,2.68,1.23,5.74,1.37,8.59.77,4.25-.41,8.18-2.27,12.03-3.98,2.28-.93,4.55-2.15,6.87-2.96,2.51-.81,5.19-1.36,7.73-2.06,3.08-.71,6.32-.48,9.45-.66,4.59-.13,8.52-2.88,12.89-3.89,6.69-1.81,9.74,5.77,14.61,8.64"/><path class="b" d="M9.65,116.28c2.27,0,4.61-.38,6.87-.39,2.43-.07,4.77.96,6.87,2.06,1.98.97,4.02,2.07,6.01,3.01,3.23,1.66,6.14-.54,8.59-2.51,6.04-4.99,9.83-4.63,17.18-4.76,4.68-.13,9.32-1.24,13.75-2.72,11.39-3.97,11.68-.74,21.48,3.03,4.16,1.38,8.6,1.79,12.89,2.61,2.4.48,4.73,1.57,6.87,2.74,2.1,1.15,4.47,2.1,6.87,2.31,4.14.12,8.29-.95,12.03-2.69,3.76-1.6,7.22-4.04,11.17-5.18,2.25-.62,4.55-1.53,6.87-1.88,2.53-.37,5.19-.1,7.73-.06,2.89.08,5.81-.59,8.59-1.32,9.85-2.71,11.19-3.88,18.9,3.94"/><path class="b" d="M9.65,114.46c10.54-1.75,9.08-1.29,18.04,3.83,3.06,1.99,4.91,1.87,7.73-.38,8.18-6.87,10.8-5.7,20.62-6.89,5.9-.7,11.44-3.07,17.18-4.45,8.02-2,12.21,3.07,19.76,4.3,4.55,1.07,9.34,1.4,13.75,3.02,4.29,1.7,8.16,4.75,12.89,5.15,4.18.35,8.33-1.07,12.03-2.92,1.73-.83,3.45-1.99,5.16-2.85,1.62-.8,3.45-1.48,5.15-2.05,1.94-.65,3.96-1.51,6.01-1.71,3.99-.38,8.03.43,12.03.14,3.13-.11,6.36-.3,9.45-.83,4.62-1,8.72-1.39,12.89,1.37"/><path class="b" d="M9.65,112.6c9.64-2.7,9.3-2.09,17.18,3.44,2.4,1.67,4.34,2.43,6.87.5,8.7-7.12,9.2-6.21,19.76-7.8,5.89-.89,11.45-3.22,17.18-4.73,9.15-2.59,10.95.52,18.9,2.71,4.83.94,9.86.99,14.61,2.4,4.49,1.21,8.55,3.67,12.89,5.29,5.51,1.98,9.18,2.06,14.61-.33,2.9-1.28,5.6-3.16,8.59-4.24,4.71-1.86,7.55-3.5,12.89-2.82,5.14.51,10.3,1.28,15.47,1.43,4.57.02,9.19-.77,13.75-.32"/><path class="b" d="M9.65,110.79c8.58-3.52,9.33-3.38,16.32,2.6,2.73,2.23,4.81,3.04,7.73.61,7.42-6.35,8.89-5.97,18.04-7.44,5.58-1.17,10.86-3.47,16.32-5.04,7.61-2.17,10.12-2.08,17.18,1.36,2.42,1,5.12,1.44,7.73,1.35,12.09-.73,14.36,2.43,24.92,5.67,2.55.68,5.13,1.67,7.73,2.16,6.29.74,11.6-3.55,17.18-5.72,3.97-2.27,7.53-2.83,12.03-1.85,8.96,2.13,18.24,4.64,27.49,3.05"/><path class="b" d="M9.65,109.01c8.3-4.65,9.34-4.69,16.32,1.79,2.79,2.46,4.6,3.33,7.73.79,6.22-5.25,8.47-5.89,16.32-7.12,4.94-1.36,9.78-3.26,14.61-4.98,4.1-1.29,8.53-2.94,12.89-2.14,2.5.56,4.61,2.28,6.87,3.38,2.63,1.3,5.69,1.73,8.59,1.38,4.8-.64,9.88-1.96,14.61-.25,2.28.78,4.55,1.9,6.87,2.54,2.22.65,4.64.95,6.87,1.56,2.58.6,5.07,1.96,7.73,2.18,3.03.23,5.96-.99,8.59-2.35,2.27-1.12,4.67-2.23,6.87-3.47,3.38-1.96,7.59-1.71,11.17-.43,5.31,2,10.7,4.03,16.32,4.95,3.37.65,6.94,1.09,10.31.24"/><path class="b" d="M9.65,107.29c8.4-6.07,9.62-6.18,17.18.93,2.82,2.57,4.62,3.02,7.73.6,5.35-4.22,8.16-5.05,14.61-6.56,1.72-.49,3.47-1.32,5.16-1.91,2.55-.88,5.21-1.74,7.73-2.7,4.05-1.4,10.4-4.15,14.61-3.06,3.02.9,5.04,3.64,7.73,5.11,3.12,1.65,6.89,1.88,10.31,1.26,5.39-.89,10.85-4.29,16.32-2.03,2.75,1.05,5.64,2.03,8.59,2.29,2.93.41,5.83,1.38,8.59,2.43,3.14,1.05,6.57.26,9.45-1.19,2.28-1.06,4.65-2.2,6.87-3.38,3.44-1.89,7.66-1.46,11.17,0,5.33,2.37,10.54,5.24,16.32,6.37,3.33.82,6.91,1.55,10.31.68"/><path class="b" d="M9.65,105.82c3.15-2.32,6.05-6.03,10.31-6,3.57.39,5.93,3.68,8.59,5.75,2.72,2.58,5,1.69,7.73-.24,3.63-2.67,7.71-4.46,12.03-5.68,1.71-.55,3.45-1.41,5.16-1.97,2.84-.91,5.79-1.78,8.59-2.83,3.61-1.3,7.33-2.7,11.17-3.09,2.8-.19,5.1,1.84,6.87,3.77,2.26,2.76,5.02,4.35,8.59,4.7,3.12.48,6.43.44,9.45-.54,2.02-.67,4.06-1.63,6.01-2.47,1.86-.89,3.91-1.84,6.01-1.82,2.92.07,5.7,1.4,8.59,1.72,2.29.28,4.66.76,6.87,1.42,1.69.47,3.42,1.3,5.16,1.6,4.2.77,8.21-1.36,12.03-2.8,2.4-1.11,5.05-2.03,7.73-1.81,5.34.24,9.89,3.45,14.61,5.61,2.42,1.21,5.13,1.95,7.73,2.65,3.03.87,6.32,1.5,9.45.76"/><path class="b" d="M9.65,104.63c3.72-2.97,6.98-7.36,12.03-8,2.42.01,4.3,2.03,6.01,3.5,1.88,1.65,4.09,4.27,6.87,3.23,2.45-.93,4.57-2.72,6.87-3.94,2.14-1.21,4.57-2.08,6.87-2.92,2.75-1.18,5.71-1.98,8.59-2.76,2.58-.75,5.19-1.69,7.73-2.53,5.94-1.72,9.37-3.53,13.75,2.08,1.42,1.77,2.96,3.87,5.16,4.72,1.89.69,4.03.89,6.01,1.18,2.24.32,4.62.55,6.87.24,4.75-.69,8.71-3.73,12.89-5.85,2.99-1.42,6.35-.49,9.45-.05,4.4.49,8.67,1.81,12.89,3.08,6.73,1.53,13.07-2.71,19.76-2.51,5.27-.03,9.95,2.84,14.61,4.95,2.15,1.06,4.59,1.65,6.87,2.34,3.02.95,6.3,1.58,9.45.99"/><path class="b" d="M9.65,103.51c2.52-1.68,4.49-4.2,6.87-6.04,1.97-1.33,3.77-3.23,6.01-4.09,3.36-.96,6.16,3.01,8.59,4.81,2.55,2.4,5.1,1.49,7.73-.18,3.45-2.24,7.26-3.99,11.17-5.27,2.24-.64,4.63-1.09,6.87-1.71,4.01-1.04,7.95-2.58,12.03-3.36,6.35-1.6,7.91,5.36,12.03,8.32,1.51.94,3.44,1.07,5.16,1.25,3.98.33,8.03,1.47,12.03.8,4.11-.82,7.82-3.13,11.17-5.55,3.27-2.47,7.29-2.51,11.17-1.86,3.16.5,6.39,1.14,9.45,2.07,4.9,1.87,10.3,2.12,15.47,1.43,2.26-.3,4.59-.87,6.87-.99,2.29-.11,4.68.26,6.87.89,2.92.82,5.75,2.17,8.59,3.21,4.72,1.36,9.65,2.73,14.61,2.4"/><path class="b" d="M9.65,102.14c3.23-1.78,5.78-4.71,8.59-7.06,2.43-2.35,5.66-7.06,9.45-4.55,6.75,4.72,6.36,7.4,14.61,2.55,2.18-1.1,4.5-2.19,6.87-2.79,3.71-.84,7.5-1.57,11.17-2.57,8.17-1.93,11.05-4.58,16.32,3.7,3.26,5.01,6.07,3.61,11.17,4.12,4.27.32,8.63,1.69,12.89.61,3.82-.96,7.24-3.07,10.31-5.48,2.93-2.19,6.71-3.03,10.31-2.48,3.16.4,6.39.93,9.45,1.83,4.75,1.5,9.55,3.75,14.61,3.75,9.01-1.72,11.43-2.46,20.62.54,2.46.85,5.17.91,7.73,1.18,2.85.28,5.75.79,8.59,1.17"/><path class="b" d="M9.65,100.26c3.32-1.26,6.12-3.86,8.59-6.34,2.7-2.65,5.82-8.55,10.31-6.96,2.14,1.05,3.99,2.81,6.01,4.06,3.37,2.21,7.08-.3,10.31-1.54,4.15-1.5,8.59-2.16,12.89-3.06,3.15-.57,6.27-1.63,9.45-2.02,5.75-.79,7.26,6.1,11.17,8.72,1.56.84,3.48.41,5.16.29,1.96-.17,4.05-.13,6.01.08,5.47.61,10.01,2.38,15.47.21,4.18-1.11,7.18-4.63,11.17-6.17,2.96-1.26,6.31-1.06,9.45-.77,4.27.24,8.35,1.72,12.03,3.85,3.75,2.12,5.84,3.54,10.31,2.18,8.43-2.62,10.39-2.2,18.9-.72,2.25.29,4.62-.21,6.87.09,2.91.31,5.77,1.3,8.59,2.03"/><path class="b" d="M9.65,97.78c9.18-1.76,12.97-15.2,19.76-13.73,1.86.55,3.5,1.91,5.16,2.88,1.52.98,3.29,2,5.15,1.96,2.62-.18,5.2-1.19,7.73-1.84,3.89-1.29,8.01-1.74,12.03-2.41,3.08-.58,6.3-2.01,9.45-1.03,4.27,1.34,5.2,7.23,9.45,8.39,1.71.08,3.47-.66,5.16-.85,2.25-.28,4.63-.17,6.87.12,7.44,1.07,10.14,3.1,18.04.61,4.08-1.72,7.69-4.66,12.03-5.77,3.63-.73,7.54-1.19,11.17-.27,2.94.87,5.39,2.97,7.73,4.87,2.55,2.35,5.58,2.13,8.59.84,7.6-3.58,9.84-3.45,18.04-2.39,2.25.24,4.64-.07,6.87.38,3.19.63,6.26,2.04,9.45,2.67"/><path class="b" d="M9.65,95.07c9.34-.47,12.85-15.84,21.48-12.74,7.46,3.21,8.37,6.99,17.18,3.49,3.59-1.27,7.45-1.43,11.17-2.04,3.38-.91,7.03-2.4,10.31-.31,3.05,1.73,4.67,7.29,8.59,6.83,1.68-.44,3.42-1.18,5.16-1.36,5.24-.52,10.43.87,15.47,2.15,2.22.52,4.61.6,6.87.4,2.33-.07,4.72-.55,6.87-1.46,3.8-1.38,7.28-3.67,11.17-4.83,2.18-.7,4.55-1.47,6.87-1.22,3.25.44,5.56,3.18,7.73,5.39,2.38,2.8,5.7,2.35,8.59.6,4.02-2.48,7.96-4.75,12.89-4.12,3.72.45,7.5.99,11.17,1.76,3.66,1.09,7.35,2.36,11.17,2.82"/><path class="b" d="M9.65,92.31c5.67-.29,9.13-5.47,12.89-9.06,2.47-2.65,5.14-3.76,8.59-2.21,3.61,1.28,6.56,4.2,10.31,5.12,2.35.36,4.7-.61,6.87-1.38,3.27-1.27,6.86-1.22,10.31-1.31,2.36-.19,4.51-1.66,6.87-1.84,7.13-.81,7.83,8.99,13.75,6.52,7.01-2.85,14.49.37,21.48,1.69,5.4.6,11.15.89,16.32-1.05,2.63-1.17,5.18-2.75,7.73-4.08,1.84-.97,3.86-2.2,6.01-2.14,3.55.4,5.42,4.09,7.73,6.38,2.2,2.31,5.59.89,7.73-.77,3.27-2.37,6.95-4.83,11.17-4.59,8.51.6,16.38,4.79,24.92,5.35"/><path class="b" d="M9.65,89.36c5.83-.43,9.39-5.78,13.75-9.01,2.72-2.25,4.91-1.96,7.73-.16,2.83,1.45,5.37,3.79,8.59,4.3,2.66.83,5.31-.27,7.73-1.32,2.42-1.03,5.16-1.26,7.73-.75,1.94.29,4.07.83,6.01.31,1.44-.4,2.88-1.27,4.3-1.72,1.69-.52,3.68-.3,5.16.7,4,2.92,4.5,6.89,10.31,4.45,2.78-.77,5.79-.39,8.59.08,3.43.6,6.87,1.53,10.31,2.09,2.82.43,5.76.34,8.59.52,4.05.33,8.46.37,12.03-1.84,2.08-1.11,4.1-2.57,6.01-3.94,2.11-1.58,4.66-2.71,6.87-.59,1.6,1.46,2.88,3.54,4.3,5.16,2.37,2.67,5.56.62,7.73-1.2,6.22-5.09,10.61-4.99,18.04-2.76,2.81.82,5.74,1.56,8.59,2.23,3.34.92,6.83,1.69,10.31,1.67"/><path class="b" d="M9.65,86.19c6.28-.6,9.78-6.97,15.47-8.94,2.6-.71,4.93,1.11,6.87,2.6,2.11,1.4,4.24,3.36,6.87,3.59,2.36-.1,4.73-.83,6.87-1.8,7.29-3.25,8.93-.17,15.47.83,3.34-.02,5.96-3.73,9.45-2.61,3.85,1.53,5.31,7.41,10.31,5.44,3.67-.92,7.52-.13,11.17.53,3.96.69,8,1.38,12.03,1.29,5.72-.27,12,1.65,17.18-1.58,8.46-5.09,8.37-9.84,15.47.65,2.46,3.12,5.47.74,7.73-1.26,5.54-4.74,10.58-4.11,17.18-2.36,2.82.71,5.75,1.32,8.59,1.94,3.91,1.03,7.96,1.92,12.03,1.59"/><path class="b" d="M9.65,82.7c3.24-.39,6.02-2.35,8.59-4.22,2.05-1.33,4.33-2.96,6.87-2.98,3.39.24,5.86,3.07,8.59,4.79,1.7,1.23,3.82,2.73,6.01,1.94,1.97-.83,4.04-1.71,6.01-2.52,5.53-2.36,9.49-1.05,14.61,1.4,2.08.98,4.05.95,6.01-.25,1.65-.8,3.28-2.18,5.16-2.34,3.42.63,4.58,4.94,7.73,6.12,1.07.36,2.36.08,3.44-.08,1.37-.16,2.92-.16,4.3-.12,6,.41,12.01,1.32,18.04.9,4.83-.36,9.93,1.04,14.61-.56,1.83-.71,3.62-1.87,5.16-3.07,1.94-1.35,4.34-4.25,6.87-2.64,1.76,1.39,2.97,3.66,4.3,5.43,1.96,2.97,4.59,2.27,6.87.07,5.2-5.05,10.61-4.48,17.18-3.08,3.41.68,6.9,1.31,10.31,1.96,3.93.88,8.01,1.31,12.03.84"/><path class="b" d="M9.65,78.94c2.4-.29,4.75-1.26,6.87-2.37,2.35-1.21,5-2.73,7.73-2.24,3.58.85,6.19,3.85,9.45,5.39,4.89,2.85,5.88,1.17,10.31-.89,5.76-2.74,12.55-2.02,18.04,1.01,1.56.82,3.47,1.24,5.15.57,3.11-.95,5.64-5.25,8.59-1.5,1.9,2.09,3.63,5.51,6.87,5.37,3.41-.15,6.89-.26,10.31-.22,4.87.07,9.75-.54,14.61-.74,3.7-.1,7.5.52,11.17-.11,2.18-.5,4.24-1.72,6.01-3.04,1.94-1.33,4.46-4.09,6.87-2.23,1.71,1.58,2.88,3.97,4.3,5.8,1.6,2.25,4.13,2.01,6.01.22,1.72-1.54,3.72-3.08,6.01-3.6,4.82-1.05,9.81.11,14.61.8,6.5,1.15,13.18,1.95,19.76,1.03"/><path class="b" d="M9.65,75.26c2.31-.14,4.66-.71,6.87-1.37,2.18-.73,4.63-1.36,6.87-.53,3.72,1.35,6.44,4.77,10.31,5.78,2.82.91,6.07.94,8.59-.77,2.12-1.08,4.5-1.9,6.87-2.17,3.4-.3,6.93-.42,10.31.07,5.57,1.1,7.45,4.29,12.89-.06,4.53-3.54,6.28,3.95,9.45,5.84,1.74,1.15,4.03.82,6.01.89,2.26-.02,4.62-.07,6.87-.23,4.87-.32,9.72-1.39,14.61-1.42,4.29-.2,8.93.8,12.89-1.32,7.2-4.13,7.71-7.07,12.89,1.65,1.27,2.19,3.67,3.76,6.01,2.01,2.06-1.6,4.19-3.47,6.87-3.86,6-.94,12.09.35,18.04,1.11,5.43.72,10.94-.32,16.32-.98"/><path class="b" d="M9.65,71.99c11.4.06,9.81-2.67,19.76,4.81,3,1.91,6.92,1.83,10.31,1.24,2.33-.55,4.52-1.86,6.87-2.35,2.5-.65,5.18-.75,7.73-1.08,3.68-.46,7.45-1.88,11.17-.89,1.63.42,3.51.78,5.16.24,3.44-1.42,5.24-4.94,8.59-.86,1.34,1.58,2.58,3.61,4.3,4.81,2.85,1.55,6.27,2.06,9.45,2.49,4.88.52,9.76-.58,14.61-.96,3.97-.47,8.09.08,12.03-.68,8.37-2.45,9.37-9.09,15.47,1.74,1.17,2.01,3.72,4.03,6.01,2.46,2.11-1.45,4.24-3.22,6.87-3.56,3.67-.57,7.49-.35,11.17.07,3.12.37,6.3,1.01,9.45.91,2.31-.07,4.65-.77,6.87-1.35,2.23-.57,4.61-.99,6.87-1.45"/><path class="b" d="M9.65,69.32c3.68.53,7.57.12,11.17,1.12,3.32,1.07,5.66,3.93,8.59,5.66,2.06,1.17,4.58,1.19,6.87,1.09,2.66-.07,5.25-.87,7.73-1.76,3.65-1.1,7.53-1.51,11.17-2.64,3.27-.99,6.09-3.31,9.45-4.02,1.7-.32,3.47.34,5.15.5,3.41.46,5.4-3.71,8.59-2.79,2.46,1.2,3.92,3.91,6.01,5.59,1.95,1.75,4.55,2.73,6.87,3.86,5.5,2.64,10.44,2.48,16.32,1.67,3.69-.5,7.5-.36,11.17-.97,8.96-2.31,9.92-8.62,16.32,2.44,1.45,2.33,4.05,5.01,6.87,3.02,1.33-.83,2.79-1.85,4.3-2.35,3.58-1.11,7.48-.85,11.17-.52,3.97.41,8.05,1.25,12.03.44,2.36-.48,4.64-1.62,6.87-2.49,1.91-.76,4.03-1.35,6.01-1.88"/><path class="b" d="M9.65,67.22c1.97.19,4.05.42,6.01.65,1.69.16,3.54.24,5.16.81,3.11,1.07,5.14,3.95,7.73,5.8,2.2,1.67,5.08,1.82,7.73,1.63,3.52-.2,6.87-1.59,10.31-2.24,6.77-1.48,10.17-3.61,15.47-7.85,1.69-1.25,3.91-2.26,6.01-1.48,6.49,2.34,6.54-2.17,11.17-1.91,3.08,1.09,5.11,4.13,7.73,5.97,2.65,1.93,5.69,3.38,8.59,4.87,4.46,2.7,8.75,2.66,13.75,1.97,3.13-.41,6.39-.53,9.45-1.35,1.75-.51,3.53-1.36,5.15-2.17,2.09-1.1,4.83-2.2,6.87-.42,3.12,2.74,4.55,7.11,7.73,9.81,1.51,1.33,3.62.68,5.16-.26,3.34-1.98,7.39-2.11,11.17-1.85,6.04.5,12.56,1.42,18.04-1.81,3.02-1.68,6.13-3.41,9.45-4.45"/><path class="b" d="M9.65,65.37c2.27,0,4.61.36,6.87.48,2.03,0,4.3.04,6.01,1.3,2.8,2.07,4.54,5.56,7.73,7.15,3.56,1.54,7.58.51,11.17-.38,2.27-.4,4.67-.7,6.87-1.39,3.16-.96,6.08-2.8,8.59-4.92,1.99-1.67,3.86-3.71,6.01-5.18,2.95-2.04,4.74-.7,7.73.08,4.18,1.18,7.09-4.1,11.17-2.03,3.4,1.79,6.02,4.87,9.45,6.63,1.68.88,3.55,1.72,5.16,2.73,1.9,1.16,3.83,2.59,6.01,3.18,2.78.77,5.78.39,8.59,0,2.59-.39,5.29-.85,7.73-1.81,5.04-1.95,9.46-6.21,13.75-.38,1.45,1.94,2.89,4.25,4.3,6.22.89,1.34,2.03,3,3.44,3.83,1.95,1.03,4.11-.28,6.01-.81,3.32-.97,6.89-.75,10.31-.68,5.56.12,11.5-.33,16.32-3.36,3.05-1.94,6.07-4.15,9.45-5.49"/><path class="b" d="M9.65,63.66c2.25-.35,4.62.05,6.87-.12,5.37-1.06,6.59,1.47,9.45,5.28,3.44,4.87,7.55,4.67,12.89,3.81,3.71-.51,7.67-.18,11.17-1.71,2.98-1.3,5.48-3.64,7.73-5.94,1.81-1.8,3.61-4,6.01-5.02,3.18-1.19,6.23,1.58,9.45.99,5.78-1.51,6.61-4.62,12.89-.46,2.64,1.97,5.5,3.78,8.59,4.94,2.64,1.26,5.16,2.94,7.73,4.32,4.62,2.1,10.08.86,14.61-.95,7.52-3.69,11.57-6.56,17.18,1.83,1.47,1.95,2.93,4.26,4.3,6.29,1.35,2.06,3.42,3.66,6.01,2.97,2.51-.56,5.15-.96,7.73-1.04,6.72-.24,13.72-.98,19.76-4.12,3.5-2.08,6.61-4.93,10.31-6.67"/><path class="b" d="M9.65,62.03c1.62-.56,3.47-.56,5.16-.72,1.4-.14,2.89-.68,4.3-.73,3.78.27,5.23,4.72,7.73,6.97,1.99,2.23,4.97,2.36,7.73,2.62,2.83.24,5.75.26,8.59.34,2.9.11,6.01.02,8.59-1.46,2.64-1.49,4.82-3.83,6.87-6.02,1.66-1.71,3.51-3.85,6.01-4.17,1.73-.25,3.49.45,5.15.83,1.37.3,2.94.34,4.3,0,1.74-.45,3.45-1.39,5.15-1.95,4.07-1.48,7.85,1.18,11.17,3.23,1.86,1.09,4.08,1.65,6.01,2.58,3.1,1.35,6.16,3.1,9.45,3.96,4.47,1,8.9-.89,12.89-2.72,9.23-4.25,12.64-.1,18.04,7.06,2.51,3.57,4.31,7.49,9.45,6.38,3.12-.43,6.33-.68,9.45-1.09,5.64-.72,11.42-1.95,16.32-4.94,3.5-2.23,6.65-5.11,10.31-7.1"/><path class="b" d="M9.65,60.3c2.09-1.18,4.63-1.29,6.87-2.03,5.08-1.61,7.37,4.72,11.17,6.74,4.87,2.04,10.22,2.98,15.47,3.4,3.14.34,6.57.67,9.45-.89,2.24-1.19,4.21-3.04,6.01-4.8,2.08-2.09,4.56-4.43,7.73-4.25,1.39.09,2.9.52,4.3.54,1.72.07,3.55-.34,5.15-.93,4.09-1.71,7.9-2.76,12.03-.47,2.16,1.23,4.45,2.44,6.87,3.07,4.65,1.82,9.53,3.81,14.61,3.73,3.88-.14,7.44-2.02,11.17-2.84,6.68-1.65,12.58,3.38,16.32,8.39,2.39,3.2,4.84,7.15,9.45,6.32,3.71-.42,7.49-.84,11.17-1.49,5.16-.94,10.32-2.67,14.61-5.76,3.42-2.59,6.5-5.79,10.31-7.85"/><path class="b" d="M9.65,58.3c2.11-1.74,5.02-2.68,7.73-2.66,2.69.22,4.81,2.23,6.87,3.77,1.28.97,2.89,1.7,4.3,2.44,4.8,2.44,10.13,3.84,15.47,4.46,3.09.47,6.45,1.14,9.45-.11,4.64-1.84,7.77-6.78,12.89-7.5,2.58-.04,5.27-.1,7.73-.99,5.71-2.03,9.66-3.62,15.47-.61,2.45,1.18,5.23,1.71,7.73,2.74,4.08,1.49,8.58,1.84,12.89,1.44,2.58-.26,5.17-.99,7.73-1.35,6.35-.94,12.84,2.06,17.18,6.6,2.71,2.86,4.98,7.46,9.45,7.49,3.72-.19,7.49-.79,11.17-1.4,5.89-1.11,11.64-3.53,16.32-7.3,3.41-2.81,6.39-6.34,10.31-8.48"/><path class="b" d="M9.65,56.26c3.21-4.17,7.93-3.22,12.03-1.04,3.82,1.64,7.3,4.08,11.17,5.62,2.2.9,4.54,1.73,6.87,2.19,1.66.34,3.49.41,5.16.74,3.36.65,6.86,2.07,10.31,1.22,3.65-1.04,6.64-3.79,10.31-4.82,1.66-.5,3.54-.67,5.16-1.34,3.11-1.2,6.16-2.82,9.45-3.5,3.15-.72,6.43-.18,9.45.83,2.57.63,5.2,1.39,7.73,2.14,12.04,3.2,19.25-3.2,31.79,2.89,1.84.85,3.71,2.02,5.16,3.46,2.73,2.64,5.12,6.92,9.45,6.64,4.01-.37,8.08-.96,12.03-1.77,5.63-1.33,10.93-4.08,15.47-7.65,3.7-2.99,6.89-6.82,11.17-9.03"/><path class="b" d="M9.65,54.88c2.63-3.77,5.28-4.02,9.45-2.81,4.08.75,7.43,3.37,11.17,4.99,2.48,1.11,5.07,2.25,7.73,2.81,2.81.59,5.79.3,8.59.97,3.21.6,6.19,2.35,9.45,2.74,3.04.37,5.82-1.25,8.59-2.21,1.35-.47,2.94-.67,4.3-1.11,1.12-.39,2.38-1.01,3.44-1.55,9.6-5.4,14.85-3.73,24.92-1.66,6.26,1.06,12.61-.24,18.9.01,3.82.16,7.58,1.28,11.17,2.53,8.03,2.34,9.09,9.92,15.47,8.71,4.25-1.05,8.64-1.7,12.89-2.73,4.94-1.33,9.59-3.76,13.75-6.72,4.27-3.02,7.91-7.19,12.89-9.07"/><path class="b" d="M9.65,54.08c1.9-2.64,4.28-4.68,7.73-4.1,2.1.08,4.15.88,6.01,1.79,1.95.9,4.02,1.79,6.01,2.58,2.76,1.1,5.61,2.32,8.59,2.62,2.26.23,4.61-.14,6.87,0,4.65.06,8.77,2.39,12.89,4.26,2.75,1.18,5.83.64,8.59-.2,5.35-1.24,10.05-4.47,15.47-5.51,5.14-1.31,10.31.23,15.47.52,11.22.23,16.95-1.94,28.35,2.05,2.06.62,4.24,1.37,6.01,2.61,2.89,1.98,5.46,6.02,9.45,4.88,2.58-.79,5.11-2.01,7.73-2.66,4.98-1.24,10.02-2.54,14.61-4.92,2.67-1.32,5.31-2.92,7.73-4.65,3.41-2.41,6.98-5,11.17-5.78"/><path class="b" d="M9.65,53.06c3.23-3.51,6.45-5.35,11.17-3.48,3.99,1.24,8.05,2.42,12.03,3.7,1.92.55,4.02.9,6.01.76,3.4-.37,6.9-1.05,10.31-.38,7.6,1.25,11.42,8.49,19.76,6.21,3.56-.58,6.93-2.03,10.31-3.23,4.11-1.49,8.55-1.87,12.89-1.55,8.3.65,16.65-1.9,24.92-.34,2.6.46,5.2,1.35,7.73,2.06,3.11.78,6.16,2.1,8.59,4.23,2.8,2.36,5.26,2.99,8.59,1.12,6.75-3.87,14.48-5.5,21.48-8.83,6.25-2.61,11.82-7.52,18.9-7.56"/><path class="b" d="M9.65,51.13c3.5-2.3,6.03-3.71,10.31-2.78,2.55.37,5.21.64,7.73,1.2,2.27.48,4.57,1.26,6.87,1.6,2.88.51,5.78-.27,8.59-.82,2.82-.5,5.84-.51,8.59.37,8.61,2.98,9.98,9.37,20.62,7.96,4.42-.41,8.53-2.46,12.89-3.18,4.23-.92,8.62-.7,12.89-1.24,5.4-.66,10.87-1.86,16.32-1.15,2.92.34,5.79,1.33,8.59,2.18,2.95.82,6.04,1.65,8.59,3.43,2.21,1.57,5.02,3.03,7.73,1.85,3.59-1.53,6.74-4.06,10.31-5.63,5.33-2.59,10.82-4.96,16.32-7.16,5.73-2.52,9.78-4.42,16.32-3.65"/><path class="b" d="M9.65,48.08c3-1.26,6.19-1.94,9.45-1.66,2.55.05,5.21-.02,7.73.43,3.69.61,7.37,2.18,11.17,1.73,5.6-.99,9.77-2.86,15.47-.37,7.37,3.43,9.68,9.47,18.9,9.49,5.87.13,11.49-2.16,17.18-3.3,2.8-.62,5.77-.68,8.59-1.19,3.71-.57,7.41-1.58,11.17-1.8,5.97-.45,11.53,2.24,17.18,3.71,2.98.81,5.55,2.9,8.59,3.47,3.86.51,7.26-2.08,10.31-4.09,2.21-1.49,4.59-2.97,6.87-4.35,4.53-2.89,9.57-4.9,14.61-6.71,5.7-2.36,9.46-2.25,15.47-1.16"/><path class="b" d="M9.65,44.25c2.7-1.15,5.69-1.38,8.59-1.26,2.55-.01,5.22-.13,7.73.39,3.74.72,7.31,2.66,11.17,2.67,2.32-.03,4.63-.82,6.87-1.32,2.81-.61,5.87-.63,8.59.35,7.21,2.76,10.57,10.59,18.9,11.3,6.77,1.04,13.38-1.31,19.76-3.23,2.81-.62,5.79-.83,8.59-1.53,3.38-.76,6.81-1.85,10.31-1.85,5.4-.03,10.3,2.7,15.47,3.89,3.15.8,6.13,2.64,9.45,2.7,7.18-.22,12.43-6.04,18.04-9.81,2.07-1.57,4.52-2.76,6.87-3.84,3.53-1.72,7.29-3.23,11.17-3.92,3.76-.4,7.49.91,11.17,1.49"/><path class="b" d="M9.65,40.29c3.06-2.09,6.76-2.1,10.31-1.91,2,.06,4.11.33,6.01.96,2.35.76,4.6,2.03,6.87,2.97,2.69,1.22,5.74,1.5,8.59.73,9.69-2.64,13.11-1.05,19.76,6.08,2.21,2.2,4.65,4.54,7.73,5.4,5.86,1.67,12.35,1.21,18.04-.89,1.67-.62,3.44-1.38,5.16-1.84,1.95-.46,4.07-.72,6.01-1.23,3.68-.91,7.33-2.43,11.17-2.5,4.54-.17,8.67,2.05,12.89,3.36,3.41.84,6.82,2.05,10.31,2.51,3.87.32,7.8-.9,11.17-2.74,3.74-2.19,6.85-5.38,10.31-7.94,4.8-2.97,9.86-5.86,15.47-6.95,4.36-.94,8.61,1.37,12.89,1.9"/><path class="b" d="M9.65,36.68c1.67-1.48,3.78-2.64,6.01-2.94,2.85-.2,5.85-.05,8.59.81,3.1.97,5.8,2.97,8.59,4.55,2.59,1.47,5.62,2.31,8.59,1.69,4.77-.93,10.51-2.75,14.61.9,3.99,3.29,6.61,8.25,11.17,10.86,2.89,1.46,6.25,1.8,9.45,1.79,2.27.08,4.66-.02,6.87-.56,3.28-.66,6.24-2.5,9.45-3.39,4.7-.81,9.07-3.03,13.75-3.9,4.8-.94,9.4,1.15,13.75,2.91,3.31,1.08,6.85,1.76,10.31,2.1,3.82.21,7.65-.84,11.17-2.23,3.98-1.5,7.12-4.56,10.31-7.25,1.24-1.08,2.89-1.92,4.3-2.74,2.17-1.32,4.46-2.73,6.87-3.56,10.1-3.51,9.31-1.43,18.9.49"/><path class="b" d="M9.65,33.39c1.63-1.62,3.69-3.1,6.01-3.43,3.47-.3,7.15.03,10.31,1.59,4.62,2.19,8.44,6.48,13.75,7.02,4.84.38,9.9-2.67,14.61-.65,2.91,1.51,4.88,4.44,6.87,6.94,2.14,2.7,4.4,5.79,7.73,7.06,2.16.85,4.57,1.13,6.87,1.17,1.67.08,3.48.21,5.16.08,3.62-.19,7.05-1.59,10.31-3.07,2.81-1.05,5.85-1.7,8.59-2.97,7.79-3.51,12.06-3.26,19.76.24,6.05,2.16,12.86,2.21,18.9,0,3.31-1.12,6.7-2.46,9.45-4.66,1.68-1.29,3.36-2.87,5.16-4.01,1.38-.74,2.95-1.51,4.3-2.32,2.31-1.47,5.11-2,7.73-2.62,2-.45,4-1.37,6.01-1.72,3.85-.26,7.47,1.72,11.17,2.51"/><path class="b" d="M9.65,30.31c1.62-1.64,3.65-3.23,6.01-3.47,3.16-.01,6.5.1,9.45,1.34,4.31,1.77,7.78,5.15,12.03,7.06,5.01,2.82,9.49.06,14.61-.24,5.45.16,8.15,6.82,11.17,10.53,4.61,6.55,8.21,6.09,15.47,6.46,4.76.38,9.43-.94,13.75-2.85,3.88-1.08,7.49-2.96,11.17-4.54,3.24-1.29,6.91-1.73,10.31-.88,2.31.54,4.58,1.58,6.87,2.21,4.19,1.01,8.71,1,12.89-.06,4.43-1.23,8.89-2.85,12.89-5.15,2.06-1.29,3.95-3.08,6.01-4.37,1.63-.82,3.48-1.56,5.15-2.29,3.33-1.09,7.04-.64,10.31-2.01,5.67-2.77,9.12-.96,14.61,1.08"/><path class="b" d="M9.65,27.24c2.46-2.54,5.06-3.78,8.59-2.91,3.61.23,7.22,1.2,10.31,3.12,2.58,1.54,5.08,3.41,7.73,4.84,1.6.96,3.33,2.05,5.16,2.54,2.64.77,5.3-.35,7.73-1.28,3.8-1.55,6.3-.29,8.59,2.87,2.93,3.9,4.87,8.79,8.59,12.06,2.62,2.23,6.24,1.92,9.45,2.02,3.71.34,7.5.34,11.17-.39,3.45-.84,7.06-1.99,10.31-3.41,5.84-3.1,10.3-5.72,17.18-3.99,1.97.45,4.01,1.13,6.01,1.46,3.11.45,6.37.31,9.45-.3,3.23-.69,6.4-1.91,9.45-3.16,2.29-.97,4.74-1.91,6.87-3.21,2.03-1.24,3.88-3.01,6.01-4.09,1.62-.59,3.43-1.16,5.15-1.34,1.67-.15,3.48.04,5.16.03,2.38,0,4.76-.84,6.87-1.88,4.61-2.45,8.7-.62,12.89,1.71"/><path class="b" d="M9.65,24.11c3.93-3.67,5.6-2.91,10.31-1.82,4.41.71,8.42,2.86,12.03,5.41,2.56,1.7,5.22,3.44,7.73,5.21,4.45,3.08,6.27,1.52,10.31-1.01,2.05-1.27,4.26-1.46,6.01.39,4.5,4.52,6.39,14.61,12.89,16.4,2.23.46,4.62.1,6.87.28,6.33.64,12.84.19,18.9-1.82,3.65-1.24,6.71-3.85,10.31-5.2,8.96-3.12,13.35,2.85,25.78-1.18,2.9-.92,5.79-2.15,8.59-3.32,2.28-.99,4.73-1.91,6.87-3.18,1.71-1.03,3.37-2.45,5.15-3.36,2.98-1.18,6.38-.46,9.45-.07,2,.27,4.17-.01,6.01-.85,1.69-.73,3.38-1.86,5.15-2.4,3.93-1.32,7.18,1.24,10.31,3.25"/><path class="b" d="M9.65,20.98c4.49-4.2,7.11-1.7,12.03-.29,8.03,2.64,13.91,9.09,20.62,13.88,5.21,2.83,7.93-7.2,12.89-5.12,5.27,3.87,6.59,16.59,13.75,17.58,1.96.14,4.05-.07,6.01.06,1.97.1,4.04.48,6.01.47,4.86-.27,9.96,0,14.61-1.69,3.89-1.55,7.09-4.66,11.17-5.81,5.33-1.52,10.92.64,16.32-.41,5.11-.7,9.91-2.8,14.61-4.83,2.54-1.12,5.24-2.12,7.73-3.33,1.43-.74,2.91-1.79,4.3-2.61.69-.41,1.76-.85,2.58-.84.4.06,1.31.18,1.72.25,3.41.38,6.85,2.03,10.31,1.15,2.47-.62,4.59-2.34,6.87-3.39,4.66-2.15,7.58,1.27,11.17,3.64"/><path class="b" d="M9.65,18.06c4.13-3.87,6.88-1.57,11.17.31,7.53,3.2,12.99,9.58,18.9,15,3.36,3.24,5.51,3.35,8.59-.25,1.78-1.96,3.24-4.99,6.01-5.64,2.83.19,3.94,3.98,5.16,6.08,1.51,3.1,2.92,6.65,5.16,9.31,1.06,1.21,2.65,2.09,4.3,2,1.97-.06,4.05-.16,6.01.03,1.68.15,3.47.56,5.16.66,1.97.15,4.05-.13,6.01-.16,3.77.04,7.77.05,11.17-1.8,2.35-1.23,4.54-2.95,6.87-4.21,3.9-2.32,8.54-1.96,12.89-1.97,3.19-.08,6.4-.83,9.45-1.71,5.9-1.79,11.4-4.74,17.18-6.85,2.36-.77,4.44-2.54,6.87-3.08,3.45.4,6.78,2.37,10.31,2.63,4.3.42,7.4-3.22,11.17-4.56,4.11-1.38,7.14,2.57,10.31,4.46"/><path class="b" d="M9.65,15.76c3.23-3.38,5.87-2.54,9.45-.35,4.63,2.4,8.71,5.81,12.03,9.82,1.89,2.17,4,4.36,6.01,6.42,1.73,1.71,3.65,3.64,6.01,4.41,4.45.42,6.27-4.98,8.59-7.86,7.22-9.57,8.68,14.85,16.32,14.11,1.96-.13,4.05-.32,6.01-.07,2,.21,4.02.89,6.01,1.12,3.12.25,6.32-.17,9.45-.02,6.07.17,9.81-3.18,14.61-6.18,2.07-1.23,4.48-2.05,6.87-2.27,2.54-.25,5.21-.17,7.73-.63,4.69-1.05,9.32-2.64,13.75-4.49,3.64-1.61,7.37-3.19,11.17-4.41,2.24-.57,4.5-2.31,6.87-1.57,3.52,1.52,7.21,3.67,11.17,3.36,2.17-.26,4.23-1.4,6.01-2.6,1.78-1.19,3.77-2.61,6.01-2.51,3.33.32,5.66,3.27,8.59,4.61"/><path class="b" d="M9.65,14.28c2.51-3.19,5.21-3.71,8.59-1.44,2.8,1.6,5.49,3.6,7.73,5.92,4.49,4.27,12.6,18.97,19.76,16.21,3.4-1.8,4.65-5.94,6.87-8.85,5.49-7.39,8.16,10.33,12.89,12.82,1.25.84,2.88.71,4.3.58,1.38-.09,2.92-.19,4.3-.06,2.03.2,4,1.19,6.01,1.51,1.95.35,4.04.17,6.01.17,7.77.5,11.19-1.9,17.18-6.29,2.28-1.6,4.95-2.82,7.73-3.2,2.84-.42,5.83-.41,8.59-1.24,6.38-2.14,12.61-4.82,18.9-7.18,1.92-.68,4.02-1.22,6.01-1.61,1.35-.31,2.93-.59,4.3-.18,3.59,1.67,7.05,4.3,11.17,4.41,5.99.27,9.62-6.48,14.61-5.02,2.7,1.07,5.02,3.09,7.73,4.16"/><path class="b" d="M9.65,13.4c1.82-2.76,4.48-4.82,7.73-2.86,2.86,1.47,5.54,3.5,7.73,5.85,5.57,5.72,9.9,16.9,18.9,17.31,8.37.28,8.79-20.86,16.32-5.29,1.69,3.03,3.14,7.42,6.87,8.36,1.97.13,4.04-.26,6.01-.14,2.4.01,4.59,1.31,6.87,1.83,2.22.52,4.61.41,6.87.48,6.18.5,10.96-2.96,15.47-6.71,2.5-1.94,5.49-3.36,8.59-3.99,2.54-.55,5.24-.81,7.73-1.57,2.31-.72,4.6-1.8,6.87-2.63,4.28-1.45,8.65-2.78,12.89-4.35,11.1-4.04,10.32,2.78,19.76,4.52,6.78,1.07,10.57-6.24,15.47-4.92,1.49.48,2.95,1.47,4.3,2.24,1.31.76,2.92,1.33,4.3,1.94"/><path class="b" d="M9.65,13.09c1.4-2.36,3.77-5.39,6.87-4.28,3.66,1.43,6.93,3.94,9.45,6.95,4.92,5.44,8.27,14.13,16.32,15.4,3.36.57,5.89-.4,7.73-3.29,1.36-1.99,2.5-4.53,4.3-6.19,2.23-1.85,4.1,1.22,5.16,2.9,1.36,2.22,2.68,4.83,4.3,6.88,2.95,3.88,6.3,1.68,10.31,2.44,2.07.32,4.02,1.41,6.01,1.98,2.48.74,5.17.86,7.73.89,7.5.26,11.88-6.87,18.04-9.88,4.01-2.09,8.63-2.52,12.89-3.89,2.85-.97,5.68-2.25,8.59-3.04,4.04-.98,8.09-2.09,12.03-3.42,3.42-1.14,6.55-1.22,9.45,1.24,2.72,2.19,5.91,4.26,9.45,4.66,6.45.74,10.18-6.08,14.61-4.68,1.78.58,3.47,1.74,5.15,2.53,1.35.6,2.93,1.13,4.3,1.7"/><path class="b" d="M9.65,13.3c1.44-2.43,3.57-5.94,6.87-5.22,3.59,1.05,6.79,3.26,9.45,5.84,4.92,4.84,8.3,12.32,15.47,14.19,2.63.66,5.8.5,7.73-1.63,1.56-1.68,2.77-3.98,4.3-5.69,1.92-2.13,3.65-1.3,5.16.71,1.46,1.97,2.77,4.39,4.3,6.32,3.51,4.8,6.37,2.5,11.17,3.4,2.36.48,4.6,1.69,6.87,2.44,1.9.64,4.01.95,6.01,1.03,5.85.41,9.67-4.04,13.75-7.46,2.52-2.06,5.48-3.69,8.59-4.66,2.8-.9,5.77-1.52,8.59-2.36,2.28-.68,4.59-1.59,6.87-2.27,3.64-1.11,7.51-1.53,11.17-2.58,2.53-.63,5.1-1.66,7.73-1.68,2.65,0,4.84,1.84,6.87,3.31,2.06,1.41,4.38,2.77,6.87,3.22,6.52,1.17,9.57-4.71,13.75-4.13,1.79.35,3.51,1.39,5.16,2.14,1.9.88,4.07,1.46,6.01,2.23"/></svg>