<?xml version="1.0" encoding="UTF-8"?><svg id="a" xmlns="http://www.w3.org/2000/svg" width="1920" height="2400" viewBox="0 0 192 240"><defs><style>.b{fill:none;stroke:#fff;stroke-miterlimit:10;stroke-width:.3px;}.c{stroke-width:0px;}</style></defs><rect class="c" x="0" width="192" height="240"/><path class="b" d="M11.72,220.41c4.41,1.47,8.71,3.5,12.58,6.08,2.58,1.67,5.12,4.28,8.39,4.28,1.72-.2,3.42-1.09,5.03-1.68,2.38-1.05,4.91-1.97,7.55-1.97,2.76-.28,5.63-.53,8.39-.04,2.89.47,5.66,1.68,8.39,2.71,6.05,2.57,11.7,1.15,17.61-.95,3.42-1.02,6.72-2.56,10.06-3.78,5.74-2.28,9.62,2.43,15.09,2.2,2.28-.13,4.51-1.04,6.71-1.58,3.57-.78,7.3.02,10.9.09,3.33.01,6.79-.79,10.06.11,3.55.95,6.57,3.35,10.06,4.43,2.15.56,4.5.51,6.71.64,4.44.12,9.04,1.3,13.42.21,3.08-.98,5.8-3,8.39-4.88,3.16-2.3,6.31-4.78,9.22-7.39"/><path class="b" d="M11.72,219.12c3.73,1.13,7.5,2.48,10.9,4.39,2.82,1.53,5.2,4.17,8.39,4.95,2.3.33,4.52-1.06,6.71-1.57,1.61-.49,3.35-1,5.03-1.12,1.06-.03,2.3.05,3.35.07,3.36.07,6.77.4,10.06,1.08,4.66.96,9.52,2.18,14.26,1.05,5.78-1.18,10.4-5.2,15.93-7.03,4.18-1.74,8.41-2.75,12.58-.36,2.21,1.17,4.32,2.8,6.71,3.63,2.44.9,5.11.32,7.55-.27,1.9-.27,3.95-.39,5.87-.35,1.63.15,3.39.32,5.03.25,1.92-.07,3.97-.22,5.87.15,4.58,1.02,8.72,3.72,13.42,4.3,3.61.32,7.3.37,10.9.75,3.61.23,7.5.74,10.9-.78,2.36-1.03,4.57-2.58,6.71-3.99,2.91-1.89,5.81-3.98,8.39-6.32"/><path class="b" d="M11.72,217.86c3.66,1.02,7.42,2.04,10.9,3.6,2.07.96,3.92,2.53,5.87,3.69,1.99,1.24,3.77,1.08,5.87.32,2.45-.64,5.01-1.27,7.55-1.4,1.93-.04,3.95.29,5.87.42,5.01.43,10.06.9,15.09.86,5.04.1,10.11-1.23,14.26-4.15,2.23-1.47,4.32-3.37,6.71-4.59,3.69-1.53,7.77-2.32,11.74-2.71,3.72-.28,6.7,2.4,9.22,4.78,4.76,4.47,6.23,4.89,12.58,3.49,1.88-.51,3.95-.27,5.87-.27,1.34,0,2.85-.09,4.19.04,1.7.18,3.45.83,5.03,1.45,8.55,3.72,13.16,2.15,21.8,2.68,3.6.14,7.38.78,10.9-.17,2.37-.74,4.56-2.18,6.71-3.38,2.94-1.6,5.9-3.41,8.39-5.68"/><path class="b" d="M11.72,216.41c2.22.45,4.51,1.05,6.71,1.57,1.66.37,3.48.68,5.03,1.4,2.6,1.15,4.64,3.72,7.55,4.14,1.38.07,2.84-.5,4.19-.68,2.19-.36,4.49-.65,6.71-.61,2.77.15,5.6.59,8.39.63,3.06.11,6.19-.12,9.22-.51,6.98-.81,11.76-.61,17.61-5.25,2.41-1.78,4.66-4.1,7.55-5.1,1.86-.62,3.95-.38,5.87-.52,1.41-.09,2.91-.59,4.19-1.14,7.31-3.7,10.27,1.24,14.26,6.57,1.54,1.93,3.21,4.56,5.87,4.89,1.41.05,2.91-.42,4.19-.96,1.3-.43,2.83-.59,4.19-.69,1.34-.1,2.86-.19,4.19.03,1.69.3,3.42.99,5.03,1.55,6.23,2.39,10.28,2.27,16.77,1.36,5.57-.82,11.23,1.01,16.77.13,2.05-.5,3.99-1.66,5.87-2.59,2.97-1.39,5.94-3.05,8.39-5.26"/><path class="b" d="M11.72,214.59c1.93.22,3.94.66,5.87.86,2.26.25,4.72.33,6.71,1.56,1.96,1.15,3.68,3,5.87,3.72,1.34.41,2.84-.04,4.19-.13,2.2-.2,4.5-.31,6.71-.28,2.77.09,5.61.51,8.39.43,3.39,0,6.8-.61,10.06-1.5,2.44-.68,5.03-1.06,7.55-1.36,4.89-.49,8.83-3.66,12.58-6.56,1.89-1.43,4.32-2.49,6.71-1.89,5.5,1.76,6.13,1.7,10.9-1.67,7.05-5.45,9.84-2.25,13.42,4.54,1.71,2.88,2.83,6.87,5.87,8.63,1.45.49,2.94-.44,4.19-1.07,1-.47,2.27-.85,3.35-1.08,2.21-.61,4.56-.02,6.71.57,3.87.82,7.73,2.35,11.74,2.15,2.82-.1,5.61-.92,8.39-1.33,2.19-.33,4.51-.26,6.71-.03,3.04.25,6.18.74,9.22.41,1.74-.31,3.43-1.27,5.03-1.98,3-1.26,5.95-2.89,8.39-5.08"/><path class="b" d="M11.72,212.36c2.21.09,4.5.16,6.71.25,2.4,0,4.84.65,6.71,2.21,1.58,1.19,3.14,2.74,5.03,3.42,1.32.41,2.84.15,4.19.18,2.2,0,4.5.02,6.71.07,6.21.42,12.62.29,18.45-2.14,2.66-1.12,5.54-1.72,8.39-2.08,4.15-.62,7.49-3.36,10.9-5.57,2.03-1.35,4.6-1.6,6.71-.29,2.13,1.15,4.11,3.34,6.71,3.19,3.54-1.03,6.49-3.68,9.22-6.06,5.41-5.2,7.83-4.77,10.9,2.13,1.13,2.6,2.27,5.78,3.35,8.4.86,1.69,1.83,4.76,4.19,4.51,2.02-.79,3.66-2.64,5.87-3.02,1.62-.31,3.41-.03,5.03.14,2.81.17,5.64.74,8.39,1.34,4.82.94,9.52-1.09,14.26-1.57,5.01-.47,10.09.55,15.09.15,4.32-1.06,8.44-3.16,11.74-6.15"/><path class="b" d="M11.72,209.84c3.88-.32,8.3-.95,11.74,1.29,6.54,4.95,4.72,5.29,13.42,5.51,6.45.23,13.05.02,19.29-1.82,2.29-.69,4.48-1.9,6.71-2.75,2.4-.94,5.12-.95,7.55-1.8,2.98-.95,5.5-3.06,8.39-4.18,4.69-1.65,7.46,3.71,10.9,5.82,1.67,1.09,3.34.88,5.03-.02,1.68-.74,3.49-1.57,5.03-2.56,3.66-2.32,5.86-6.38,9.22-9.02,6.21-3.8,7.46,17.32,11.74,19.71l.84.08c2.07-.94,3.45-3.37,5.87-3.62,2.48-.13,5.06-.19,7.55-.11,1.64.11,3.39.44,5.03.57,1.92.14,3.96-.04,5.87-.31,5.56-.89,11.11-2.24,16.77-2.25,2.21-.11,4.51.16,6.71.18,4.15-.5,7.7-3.02,10.9-5.53"/><path class="b" d="M11.72,207.19c4.95-1.15,9.77-.52,13.42,3.24,1.73,1.55,3.53,3.48,5.87,4.04,3.31.44,6.74.43,10.06.09,3.08-.32,6.19-.94,9.22-1.52,3.42-.62,6.93-1.32,10.06-2.91,1.58-.75,3.31-1.54,5.03-1.9,1.93-.38,4.02-.62,5.87-1.31,3.02-.93,5.92-3.48,9.22-2.73,5.31,1.61,7.76,10.74,14.26,7.98,6.76-1.75,9.43-3.09,13.42-9.04,1.44-1.81,2.64-4.62,5.03-5.29,4.73,1.06,5.33,18.05,9.22,21.37l.84.1c2.42-1.34,3.5-4.04,6.71-4.06,3.33-.25,6.73-.2,10.06-.32,2.21-.13,4.51-.44,6.71-.67,5.44-.35,10.58-2.38,15.93-3.19,1.91-.27,3.95-.32,5.87-.13,4.37.18,8.06-2.57,11.74-4.53"/><path class="b" d="M11.72,204.55c3.58-1.29,7.91-.71,10.9,1.67,2.53,1.92,4.48,4.91,7.55,6.01,3.87.75,7.93-.02,11.74-.8,2.76-.64,5.59-1.37,8.39-1.86,2.5-.45,5.13-.73,7.55-1.51,2.24-.72,4.42-1.92,6.71-2.49,2.48-.54,5.14-.7,7.55-1.59,7.03-2.84,8.58-1.63,13.42,3.8,3.11,3.5,5.27,4.97,10.06,3.89,3.09-.43,6.45-.51,9.22-2.1,3.03-1.91,4.93-5.28,6.71-8.29,1.18-1.81,2.18-4.41,4.19-5.43l.84.13c2.05,1.95,2.57,5.74,3.35,8.35,1.22,4.28,1.7,9.7,4.19,13.46l.84.38c1.38-.27,2.34-1.75,3.35-2.61.91-.8,2.16-1.45,3.35-1.66,2.19-.37,4.52-.43,6.71-.79,3.59-.63,7.27-.96,10.9-1.26,4.95-.49,9.44-2.98,14.26-4.03,2.44-.67,5.08-.35,7.55-.8,3.19-.58,6.11-2.27,9.22-3.08"/><path class="b" d="M11.72,202.21c3.17-1.75,7.28-.93,10.06,1.2,2.61,1.96,4.47,5.12,7.55,6.43,3.89.89,7.96-.58,11.74-1.47,2.74-.75,5.57-1.53,8.39-1.95,2.48-.39,5.1-.53,7.55-1.11,2.54-.59,4.98-1.81,7.55-2.29,2.49-.38,5.11-.54,7.55-1.26,7.61-2.59,9.23,1.27,14.26,5.88,2.03,1.84,4.74,3.25,7.55,2.98,2.2-.06,4.51.05,6.71.14,7.05.68,9.54-4.05,12.58-9.45,1.53-2.46,2.55-5.89,5.03-7.56l.84.17c3.71,4.7,3.56,18.07,7.55,22.21l.84.13c2.13-.91,3.62-3.12,5.87-3.87,2.96-1.01,6.12-1.7,9.22-2.08,2.77-.33,5.66-.24,8.39-.89,4.88-1.21,9.37-3.76,14.26-4.94,2.17-.55,4.54-.55,6.71-1.1,2.75-.59,5.54-1.59,8.39-1.59"/><path class="b" d="M11.72,200.5c3.03-2.37,7.33-1.47,10.06.93,2.28,1.87,3.98,4.71,6.71,5.98,1.3.5,2.86.24,4.19.02,2.24-.43,4.52-1.12,6.71-1.74,2.74-.77,5.57-1.54,8.39-1.95,2.76-.41,5.64-.41,8.39-.93,2.53-.47,5-1.52,7.55-1.91,2.49-.32,5.1-.32,7.55-.93,8.05-2.33,9.34,1.1,15.09,5.56,4.55,3.78,8.12,2.83,13.42,3.82,2.17.35,4.55,1.32,6.71.48,4.58-2.05,6.93-7.03,9.22-11.21,1.22-2.19,2.31-4.96,4.19-6.68l.84-.17c3.74,2.94,4.08,16.5,7.55,21.05,1.5,1.76,3.57.08,5.03-.87,1.79-1.14,3.82-2.14,5.87-2.7,4.13-1.04,8.59-.74,12.58-2.4,6.06-2.28,11.96-5.35,18.45-6.2,3.28-.64,6.74-1.35,10.06-.58"/><path class="b" d="M11.72,199.32c3.17-2.63,7.07-2.01,10.06.54,2.19,1.76,3.84,4.69,6.71,5.42,1.67.15,3.43-.43,5.03-.85,2.2-.63,4.49-1.33,6.71-1.89,3-.77,6.13-1.32,9.22-1.49,3.39-.15,6.8-.67,10.06-1.57,2.44-.66,5.05-.62,7.55-.68,1.96-.11,3.98-.62,5.87-1.11,2.18-.61,4.66-.8,6.71.31,3.51,1.99,6.46,5,10.06,6.86,2.56,1.38,5.58,1.52,8.39,2.05,2.29.35,4.44,1.62,6.71,1.98,4.62-.17,7.78-4.61,10.06-8.17,1.12-1.84,2.33-4.11,3.35-6.01.88-1.56,1.87-3.65,3.35-4.73l.84-.14c4.63,2.79,4.42,18.93,10.06,20.73,2.34.22,4.51-1.26,6.71-1.85,3.67-1.03,7.5-1.88,10.9-3.67,3.74-1.94,7.8-3.27,11.74-4.74,3.99-1.55,8.27-2.7,12.58-2.67,1.97.03,3.97.69,5.87,1.15"/><path class="b" d="M11.72,198.51c4.76-3.35,8.87-1.1,12.58,2.49,2.78,2.61,4.19,2.24,7.55,1.12,3.54-1.15,7.22-2.09,10.9-2.66,3.04-.46,6.18-.66,9.22-1.04,3.63-.4,7.21-1.81,10.9-1.49,1.63.12,3.4.4,5.03.18,1.7-.26,3.44-.94,5.03-1.55,4.23-1.8,6.55-.76,10.06,1.79,3.01,1.87,5.88,4.22,9.22,5.49,2.69,1.05,5.74,1.16,8.39,2.36,1.57.7,3.22,1.82,5.03,1.61,3.97-.7,6.99-4.07,9.22-7.21,1.47-2.15,2.9-4.69,4.19-6.94,1.11-1.73,2.14-4.26,4.19-5.03,5.89.79,5.33,19.67,14.26,19.88,5.79.27,9.9-4.73,15.09-6.46,2.74-.97,5.67-1.61,8.39-2.65,2.97-1.14,6.03-2.37,9.22-2.64,3.51-.49,6.75,1.29,10.06,2.11"/><path class="b" d="M11.72,197.99c3.53-1.45,6.63-1.48,10.06.23,1.37.71,2.74,1.77,4.19,2.31,2.01.68,3.97-.75,5.87-1.24,5.4-1.82,11.17-2.02,16.77-2.76,3.93-.35,7.77-1.9,11.74-1.73,2.76.18,5.65,1.52,8.39.46,2.83-1.02,5.26-3.51,8.39-3.6,2.18.12,4.03,1.65,5.87,2.66,2.22,1.17,4.5,2.45,6.71,3.64,1.59.82,3.34,1.69,5.03,2.28,1.95.62,4.07,1.16,5.87,2.18,1.48.92,3.22,1.9,5.03,1.64,3.9-.77,6.91-4.02,9.22-7.06,1.78-2.44,3.43-5.25,5.03-7.81,1.31-1.83,3.14-5.55,5.87-4.1,4.09,3.48,4.9,9.55,8.39,13.54,4.09,5.06,7.54,3.57,12.58.96,4.7-2.36,10.26-1.48,15.09-3.41,9.77-4.07,9.43-2.09,18.45,1.08"/><path class="b" d="M11.72,197.95c4.46-.2,9.08-1.2,13.42.29,1.46.34,2.92-.29,4.19-.93,1.31-.54,2.81-1.02,4.19-1.31,4.96-1.01,10.11-.88,15.09-1.73,5.19-.87,8.98-2.77,14.26-.75,5.64,2.12,7.42-1.68,11.74-4.1,2.92-1.6,5.75.93,8.39,1.99,3.68,1.32,7.49,2.54,10.9,4.49,2.58,1.16,5.24,2.36,7.55,4.02,4.41,2.62,8.93-1.52,11.74-4.69,3.71-4.1,5.94-9.55,10.06-13.26,4.63-3.28,8.05,5.19,10.9,7.71,3.65,3.83,9.37,3.59,14.26,4.03,3.9.35,7.8,1.87,11.74,1.21,2.3-.39,4.47-1.56,6.71-2.16,1.92-.57,4.11-.4,5.87.59,2.5,1.19,4.91,2.83,7.55,3.73"/><path class="b" d="M11.72,198.19c4.18.91,7.16-1.54,10.9-2.57,1.06-.14,2.29.06,3.35.03,1.17-.05,2.31-.79,3.35-1.24,2.63-1.16,5.54-1.63,8.39-1.76,3.9-.2,7.9-.05,11.74-.93,3.92-.89,7.81-2.29,11.74-.63,2.78,1.07,5.82,2.3,8.39.07,5.67-5,5.19-6.07,12.58-2.96,2.44.73,5.12.74,7.55,1.51,4.05,1.26,7.4,4.12,10.9,6.39,4.92,2.75,9.57-2.22,12.58-5.65,3.44-3.89,5.84-8.94,10.06-12.07,4.41-2.85,8.19,2.4,11.74,4.38,1.82,1.06,4,1.63,5.87,2.6,2.73,1.52,5.55,3.04,8.39,4.35,3.86,1.91,8.15,4.24,12.58,3.2,2.21-.55,4.39-1.68,6.71-1.72,1.47-.02,2.95.78,4.19,1.48,2.49,1.44,4.84,3.39,7.55,4.43"/><path class="b" d="M11.72,198.11c3.97.52,6.83-2.85,10.06-4.52,1.54-.8,3.41-.37,5.03-.84,1.87-.93,3.83-1.93,5.87-2.43,3.8-1.11,7.84-.6,11.74-.61,3.11-.03,6.21-.76,9.22-1.47,6.83-1.89,10.57,3.92,15.09,1.74,2.8-1.48,4.26-5.21,7.55-5.81,1.69-.13,3.41.58,5.03.94,1.61.41,3.39.31,5.03.33,4.82-.15,8.19,2.93,11.74,5.7,5.81,4.54,11.35-1.7,15.09-5.89,3.26-3.51,6.19-9.13,10.9-10.66,1.05,0,2.31,0,3.35,0,2.42.38,4.55,1.98,6.71,3.03,2.19,1.17,4.61,2.16,6.71,3.48,3.34,2.3,6.68,4.74,10.06,6.97,2.91,2.1,6.34,4,10.06,3.43,2.24-.28,4.42-1.45,6.71-1.42,4.95.43,8.12,5.23,12.58,6.94"/><path class="b" d="M11.72,197.13c4.03-.72,6.61-4.38,10.06-6.24,1.28-.63,2.82-.44,4.19-.51,1.42-.2,2.81-1.05,4.19-1.41,3.53-1.03,7.17-2.25,10.9-2.15,3.05.06,6.19.31,9.22-.18,3.3-.56,6.75-1.83,10.06-.65,4.75,1.55,7.58,4.35,11.74-.26,3.08-3.65,4.57-4.04,9.22-3.39,2.77.25,5.69-.57,8.39.39,5.76,2.23,9.03,8.93,15.93,4.43,3.18-2.04,5.9-4.86,8.39-7.68,2.07-2.29,4.1-4.9,6.71-6.61.94-.61,2.29-.32,3.35-.38,1.63.02,3.4-.06,5.03.06,4,1.87,8,3.94,11.74,6.3,3.94,2.81,7.82,5.81,11.74,8.64,2.58,2,5.06,3.04,8.39,2.36,1.92-.34,3.89-1.22,5.87-1.11,5.39.5,8.63,5.69,13.42,7.59"/><path class="b" d="M11.72,195.08c3.66-1.71,6.06-5.67,10.06-6.74,1.36-.26,2.84.2,4.19.22,2.76-.48,5.64-.89,8.39-1.48,3.29-.81,6.63-1.97,10.06-1.84,2.49.05,5.1.28,7.55-.32,2.72-.66,5.53-2.01,8.39-1.37,2.31.48,4.43,1.83,6.71,2.42,3.56.91,5.98-2.41,8.39-4.41,1.88-1.49,4.42-1.58,6.71-1.68,2.21-.17,4.58-.54,6.71.28,3.72,1.39,6.8,4.67,10.9,4.92,3.16.04,5.98-1.86,8.39-3.72,4.27-3.22,7.22-8.05,11.74-10.94,1.92,0,3.95,0,5.87,0,1.06.05,2.37-.2,3.35.31,4,2,7.97,4.21,11.74,6.61,2.86,1.93,5.64,4.14,8.39,6.23,2.97,2.19,6.02,5.53,10.06,4.69,2.49-.28,5.02-1.58,7.55-.89,5.3.93,8.59,5.78,13.42,7.69"/><path class="b" d="M11.72,191.88c3.91-3.03,7.12-6.95,12.58-5.02,1.33.4,2.83.23,4.19.29,1.63.09,3.4.21,5.03.13,3.13-.13,6.15-1.27,9.22-1.74,2.2-.28,4.52-.11,6.71-.48,6.18-1.12,8.36-5.82,15.09-2.21,2.3,1.1,5.16,2.1,7.55.68,2.05-1.24,3.7-3.27,5.87-4.33,2.82-1.23,6.2-1.76,9.22-1.11,3.76.85,7.04,3.39,10.9,3.85,8.54.62,13.63-7.49,19.29-12.51.36-.32,1.23-.89,1.68-1.07.41,0,1.27,0,1.68,0,1.63,0,3.4,0,5.03,0,1.52-.22,2.93.65,4.19,1.37,1.63.94,3.39,1.97,5.03,2.9,2.48,1.5,5.16,2.89,7.55,4.54,2.59,1.84,5.1,3.96,7.55,5.97,3.11,2.58,4.99,3.9,9.22,3.01,1.62-.29,3.37-.8,5.03-.77,2.27.32,4.66,1.01,6.71,2.07,3.15,1.76,5.8,4.52,9.22,5.77"/><path class="b" d="M11.72,188.03c3.15-2.66,6.73-4.64,10.9-3.1,1.58.62,3.36.9,5.03,1.12,1.92.38,3.93.88,5.87,1.1,2.79.34,5.64-.2,8.39-.64,1.92-.25,3.98-.15,5.87-.61,2.44-.57,4.67-1.99,6.71-3.4,2.51-1.84,5.24-3.4,8.39-2.07,2.68.96,5.42,2.88,8.39,2.29,1.91-.5,3.47-2.03,5.03-3.16,2.16-1.64,4.84-2.68,7.55-2.9,4.34-.43,8.35,1.99,12.58,2.5,6.08.84,11.16-1.45,15.09-6.07,2.13-2.29,4.1-5,6.71-6.77,9.81-.07,6.85-.75,15.09,4.34,2.71,1.68,5.68,3.09,8.39,4.77,2.08,1.34,4.02,3.1,5.87,4.73,3.49,3.07,5.17,4.62,10.06,3.87,1.92-.22,3.93-.72,5.87-.62,1.08.06,2.31.48,3.35.73,1.39.29,2.93.7,4.19,1.36,3.15,1.59,5.87,4.14,9.22,5.34"/><path class="b" d="M11.72,184.33c3.85-2.63,7.62-2.22,11.74-.55,2.79.68,5.64,1.39,8.39,2.23,3.25.98,6.71.91,10.06.63,1.93-.04,4.02.15,5.87-.56,5.03-1.62,8.46-8.62,14.26-7.05,2.77.79,5.42,2.52,8.39,2.48,2.21-.08,4.12-1.52,5.87-2.72,2-1.38,4.31-2.54,6.71-2.98,4.47-.89,8.94.96,13.42,1.04,3.64.29,7.69.96,10.9-1.23,4.5-2.86,6.48-8.53,10.9-11.41,2.2,0,4.51-.01,6.71.01,2.66,1.36,5.05,3.36,7.55,4.98,2.64,1.76,5.68,2.99,8.39,4.63,2.14,1.3,4.03,3.18,5.87,4.86,3.62,3.46,5.34,3.18,10.06,2.87,2.2-.19,4.51-.57,6.71-.25,2.49.61,5.2.86,7.55,1.94,3.15,1.45,5.91,3.83,9.22,4.94"/><path class="b" d="M11.72,181.24c3.54-1.52,7.44-.47,10.9.76,2.51.64,5.1,1.28,7.55,2.15,3.49,1.23,7.22,1.68,10.9,1.57,3.19.13,5.57.68,8.39-1.35,3.43-2.34,6.27-6.88,10.9-6.5,4.61.69,8.65,3.68,13.42,1.31,3.24-1.69,6.38-3.9,10.06-4.51,2.46-.5,5.06-.17,7.55-.08,1.92.09,3.98-.03,5.87.38,5.08,1.36,8.57,2.8,12.58-1.81,3.08-3.4,4.83-8.07,8.39-11.04,1.92.05,3.97-.14,5.87.12,2.7,1.49,5.03,3.73,7.55,5.49,2.3,1.69,5.09,2.72,7.55,4.14,2.17,1.19,4.1,2.96,5.87,4.66,1.17,1.06,2.58,2.29,4.19,2.56,1.92.03,3.95.07,5.87-.03,2.48-.13,5.06-.46,7.55-.25,2.82.44,5.82.85,8.39,2.15,3.09,1.55,5.85,3.96,9.22,4.92"/><path class="b" d="M11.72,178.79c3.39-.64,6.83.44,10.06,1.39,3.1.69,6.18,1.68,9.22,2.58,3.24.98,6.7,1.07,10.06,1.12,1.36,0,2.84.41,4.19.38,4.89-.38,7.2-5.92,11.74-7.17,3.14-.76,6.17.87,9.22,1.32,9.22,1.41,12.19-5.53,22.64-5.45,2.48.04,5.15-.49,7.55.34,2,.73,3.86,2.09,5.87,2.81,9.33,3.18,10.98-12.4,16.77-16.04,1.34.07,2.9-.21,4.19.24,2.78,1.56,5.01,4.07,7.55,5.98,1.99,1.6,4.5,2.55,6.71,3.78,2.12,1.15,4.1,2.78,5.87,4.42,1.35,1.26,3.08,2.53,5.03,2.18,1.92.03,3.96.26,5.87-.05,2.47-.38,5.03-.94,7.55-.78,3.2.29,6.5,1.26,9.22,2.98,2.95,1.86,5.7,4.5,9.22,5.18"/><path class="b" d="M11.72,176.73c3.42-.12,6.78.98,10.06,1.78,4.19.85,8.28,2.52,12.58,2.77,2.49.17,5.06-.12,7.55.09.77.07,1.76.3,2.52.42,1.11.1,2.38-.22,3.35-.73,2.09-1.18,3.79-3.15,5.87-4.35,3.39-2.19,7.34-.36,10.9.28,2.79.37,5.71-.04,8.39-.83,4.73-1.57,9.21-4.21,14.26-4.74,2.74-.18,5.8-.65,8.39.48,3.13,1.59,5.53,5.01,9.22,5.31,10.37.16,9.98-25.32,19.29-17.73,2.33,1.82,4.34,4.21,6.71,5.98,2.05,1.51,4.6,2.4,6.71,3.83,2.34,1.41,4.25,3.67,6.71,4.89,1.01.38,2.31.11,3.35.3,5.66.98,10.12-3.95,15.93-1.64,2.33.93,4.74,2.1,6.71,3.66,3.11,2.39,5.85,6.28,10.06,6.51"/><path class="b" d="M11.72,174.79c6.54.54,12.76,3.18,19.29,3.82,3.63.4,7.28-.69,10.9-.46,5.27,1.36,5.89-.52,10.06-2.97,3.1-1.89,6.82-.97,10.06,0,7,1.62,13.62-2.51,20.13-4.46,3.2-1.08,6.73-1.75,10.06-.91,5.14.71,7.11,7.69,12.58,7.39,12.06-.3,9.98-27.03,19.29-18.87,2.01,1.77,3.78,4,5.87,5.68,2.05,1.56,4.62,2.49,6.71,4.01,1.94,1.27,3.7,3.12,5.87,4.02.72.24,1.78.15,2.52.28,7.21,1.85,10.45-7.18,17.61-2.88,1.43.86,2.87,2.06,4.19,3.08,1.43,1,2.99,2.19,4.19,3.47,2.57,2.35,5.55,6.48,9.22,6.67"/><path class="b" d="M11.72,172.8c6.19.82,12.15,3.42,18.45,3.37,4.79.1,9.52-2.75,14.26-1.1,2.73.32,5.02-1.74,7.55-2.4,1.88-.48,3.97-.51,5.87-.12,2.19.48,4.43,1.35,6.71,1.28,3.19-.12,6.26-1.39,9.22-2.44,3.56-1.33,7.21-2.68,10.9-3.61,3.54-.98,7.21.29,10.06,2.43,2.74,2.52,4.98,6.66,9.22,6.48,2.81-.04,5.78-1.17,7.55-3.42,2.41-3.37,3.58-7.8,5.03-11.64,1.14-2.89,2.86-8.15,6.71-4.91,2.09,1.74,3.78,4.14,5.87,5.89,1.76,1.4,4.02,2.27,5.87,3.56,1.93,1.22,3.71,2.99,5.87,3.83,2.45.3,5.19,1.18,7.55.07,3.83-2.17,6.72-7.28,11.74-4.56,2.15,1.17,3.97,3.05,5.87,4.56,1.31,1.07,2.95,2.04,4.19,3.19,3.12,2.79,6.17,6.02,10.06,7.73"/><path class="b" d="M11.72,170.72c6.87,1.45,13.88,4.68,20.96,2.55,3.31-.75,6.58-2.72,10.06-2.18,1.04.28,2.26.63,3.35.46,3.03-.57,6.11-1.38,9.22-1.11,2.25.12,4.49.89,6.71,1.17,4.11.51,8.01-1.44,11.74-2.88,3.79-1.47,7.71-2.97,11.74-3.57,3.7-.44,6.8,2.28,9.22,4.73,1.77,2.03,3.37,4.62,5.87,5.83,2.93,1.12,7.84-.36,10.06-2.47,2.61-2.93,3.71-7.21,5.03-10.82,1.05-2.34,2.27-8.91,5.87-7.54,2.39,1.28,3.92,3.85,5.87,5.66,1.37,1.44,3.36,2.25,5.03,3.26,1.39.83,2.88,1.87,4.19,2.81,1.2.84,2.67,1.81,4.19,1.73,1.36.12,2.83.62,4.19.64,4.38-.22,5.78-6.11,10.06-6.65,3.28-.19,5.73,2.61,8.39,4.11,1.82,1.11,4.02,1.72,5.87,2.77,3.78,2.39,7.14,5.51,10.9,7.92"/><path class="b" d="M11.72,168.52c7.21,1.89,12.48,4.64,20.13,2.19,3.09-.84,6.01-2.58,9.22-2.93,1.4-.15,2.83.43,4.19.61,2.48.16,5.06,0,7.55.11,3.63-.04,7.27,1.07,10.9.65,6.67-.67,18.17-8.83,24.32-5.66,2.04,1.1,3.54,3.15,5.03,4.86,1.7,1.78,3.09,4.14,5.03,5.68,2.75,2.03,6.34.48,9.22-.48,7.11-2.54,6.82-16.35,11.74-20.11,2.77-.74,4.91,3.36,6.71,4.98,1.76,2.1,4.49,3.06,6.71,4.55,1.64,1.03,3.3,2.34,5.03,3.21.71.3,1.77.28,2.52.41,1.9.42,3.94,1.75,5.87.79,1.69-.96,2.91-2.82,4.19-4.24,3.07-3.66,5.8-2.12,9.22.03,1.97,1.28,4.41,1.59,6.71,1.33,3.14-.19,5.94,1.72,8.39,3.48,1.93,1.37,3.98,2.83,5.87,4.26"/><path class="b" d="M11.72,166.16c8.56,2.26,11.87,4.29,20.96,1.33,3.03-.89,5.99-2.63,9.22-2.57,1.38.08,2.83.69,4.19.89,2.19.41,4.49.67,6.71.84,3.32.22,6.76.59,10.06-.06,6.53-.93,18.8-9.35,24.32-4.57,4,3.35,5.53,9.85,10.9,11.47,2.89.33,5.68-1.2,8.39-2.01,6.21-2.2,7.04-12.66,10.06-17.96,2.21-4.02,4.82-.59,6.71,1.68.96,1.16,2.17,2.51,3.35,3.44,1.28.91,2.9,1.62,4.19,2.51,1.62,1.04,3.26,2.37,5.03,3.14.71.28,1.78.29,2.52.46,2.45.71,5.08,3.56,7.55,1.37,2.5-2.08,4.43-6.82,8.39-5.37,1.88.72,3.81,1.78,5.87,1.85,3.81-.06,5.96-3.15,10.06-1.4,3.54,1.54,6.78,3.86,10.06,5.87"/><path class="b" d="M11.72,163.69c2.81.46,5.6,1.37,8.39,1.96,5.67.99,11.48-.19,16.77-2.25,3.02-1.14,5.37-1.23,8.39-.07,11.35,3.47,17.2.94,27.67-3.04,2.94-.94,6.12-1.74,9.22-1.45,2.6.28,4.53,2.44,5.87,4.52,3.49,5.82,5.72,11.27,13.42,7.13,2.16-1.05,4.74-1.47,6.71-2.9,4.73-3.96,5.13-14.45,9.22-18,2.54-.75,5.03,4.32,6.71,5.89,1.12,1.33,2.69,2.43,4.19,3.27,1.91,1.19,3.73,2.81,5.87,3.59,1.04.35,2.37.32,3.35.85,2.15.98,4.1,3.77,6.71,2.88,3-1.44,4.52-6.09,8.39-5.52,1.61.35,3.37.78,5.03.53,2.49-.3,4.61-1.92,6.71-3.16,3.26-2.22,7.09-.2,10.06,1.55,1.86,1.06,3.96,1.92,5.87,2.88"/><path class="b" d="M11.72,161.19c9.69,1.26,15.29,4.05,25.16.02,2.39-.95,5.13-1.26,7.55-.2,10.98,4.5,16.45.43,26.83-2.7,3.21-.97,6.76-1.41,10.06-.66,2.62.66,4.53,2.94,5.87,5.16,3.47,5.92,5.35,10.44,12.58,5.45,2.57-1.8,5.89-2.36,8.39-4.24,4.23-3.54,5.37-15.38,9.22-17.16,2.63.43,4.8,5.55,6.71,7.5,1.35,1.69,3.31,2.95,5.03,4.21,1.69,1.33,3.76,2.13,5.87,2.4,2.25.75,3.84,2.82,5.87,3.94,3.64,1.76,5.65-3.11,8.39-4.57,1.77-1.06,3.98-.36,5.87-.93,2.45-.65,4.64-2.18,6.71-3.59,1.93-1.32,4.27-2.79,6.71-2.19,2.37.46,4.55,1.77,6.71,2.8,1.57.75,3.36,1.33,5.03,1.78"/><path class="b" d="M11.72,158.72c3.08.15,6.21.61,9.22,1.26,2.46.56,5.01,1.25,7.55,1.33,3.19.14,6.26-1.06,9.22-2.07,2.16-.75,4.58-.73,6.71.11,2.7.89,5.48,2.14,8.39,1.85,5.78-.69,11.13-3.39,16.77-4.72,3.25-1.03,6.77-1.1,10.06-.23,2.89.47,5.25,2.51,6.71,4.98,1.75,2.46,2.91,6.11,5.87,7.36,2.99.68,5.35-2.01,7.55-3.61,2.02-1.62,4.38-2.95,6.71-4.06,6.16-2.68,6.39-14.37,10.9-16.83,2.13.24,3.09,2.99,4.19,4.53.99,1.67,2.17,3.64,3.35,5.18,1.94,2.29,4.5,4.63,7.55,5.19,4.34.14,7.33,7.74,11.74,3.73,2.14-1.89,3.8-4.79,6.71-5.6,1.07-.22,2.35-.5,3.35-.94,3.49-1.5,6.48-4.13,10.06-5.41,3.16-1.16,6.37.61,9.22,1.86,2.09.98,4.41,1.67,6.71,1.91"/><path class="b" d="M11.72,156.25c3.07.17,6.24.47,9.22,1.24,4.69,1.66,7.56,2.71,12.58,1.3,2.18-.54,4.44-1.3,6.71-1.24,3.17-.13,6.13,1.42,9.22,1.86,2.9.38,5.7-.98,8.39-1.85,3.55-1.2,7.24-2.21,10.9-3,1.89-.43,3.92-.89,5.87-.7,2.52.4,5.18.89,7.55,1.85,2.76,1.34,4.27,4.37,5.87,6.83,6.4,11.08,10.75-3.54,19.29-6.94,5.75-2.26,6.56-13.01,10.9-14.09,3.89.73,5.81,12.3,11.74,15.14,1.29.66,2.96.63,4.19,1.44,2.98,1.7,5.73,5.72,9.22,2.53,2.69-2.35,4.24-6.11,7.55-7.74,4.79-1.66,9.08-5.09,14.26-5.51,2.67-.12,5.15,1.32,7.55,2.31,2.34,1.08,4.96,1.78,7.55,1.72"/><path class="b" d="M11.72,153.78c2.79.27,5.64.75,8.39,1.31,2.72.87,5.51,1.93,8.39,2.12,3.1.33,6.15-.79,9.22-.87,1.93.16,3.96.48,5.87.79,1.62.33,3.37.77,5.03.78,3.9,0,7.16-2.68,10.9-3.43,3.57-.91,7.3-1.39,10.9-2.15,2.8-.77,5.65.01,8.39.66,7.75.99,7.53,6.65,12.58,10.69,4.05,2.11,7.14-4.4,9.22-6.97,1.41-1.95,3-4.09,5.03-5.43.97-.62,2.27-1.07,3.35-1.42,3.77-1.32,5.26-5.54,7.55-8.46,5.83-7.49,8.35,9.88,13.42,12.7.66.46,1.75.75,2.52.98,1.42.55,2.88,1.45,4.19,2.22,7.55,4.6,9.72-7.67,15.93-9.09,4.13-1.35,8.08-4.09,12.58-3.8,2.08.18,4.03,1.31,5.87,2.21,2.81,1.5,5.99,2.66,9.22,2.26"/><path class="b" d="M11.72,151.47c1.66.28,3.39.81,5.03,1.14,1.63.28,3.42.25,5.03.67,3.04.58,6.11,1.58,9.22,1.62,1.94.02,3.93-.58,5.87-.49,1.42.1,2.84.85,4.19,1.23,1.62.32,3.39.63,5.03.83,3.39.42,6.29-1.73,9.22-3.06,2.62-1.16,5.57-1.4,8.39-1.72,1.64-.19,3.41-.44,5.03-.74,1.62-.33,3.36-.85,5.03-.77,2.79.39,5.62,1.12,8.39,1.64,4.35.98,6,5.76,9.22,8.32,6.34,4.98,9.18-12.34,15.93-14.32,5.19-1.04,5.57-.77,9.22-5.04,2.61-3,5.03-4.23,7.55-.28,2.23,3.24,3.58,7.46,6.71,9.99,2.57,1.18,5.15,2.56,7.55,4.07,5.44,3.25,8.37-2.88,11.74-6.02,2.14-1.89,5.15-2.55,7.55-4.06,3.01-1.73,6.54-4.05,10.06-2.31,3.97,1.89,7.94,4.84,12.58,3.99"/><path class="b" d="M11.72,149.43c1.88.63,3.86,1.39,5.87,1.42,1.35-.04,2.84-.17,4.19,0,2.85.17,5.58,1.32,8.39,1.69,2.5.38,5.09-.99,7.55-.21,1.11.45,2.26,1.29,3.35,1.78,1.83.65,3.93.99,5.87.88,1.81-.2,3.5-1.22,5.03-2.13,4.53-3.07,8.36-2.33,13.42-2.93,2.25-.24,4.51-.92,6.71-1.43,1.35-.26,2.86-.02,4.19.26,1.34.28,2.83.59,4.19.75,1.66.2,3.51.27,5.03,1.01,3.47,1.66,5.2,6.35,9.22,6.87,5.14-1.14,6.84-14.89,14.26-15.82,5.44-.15,5.78-.54,10.06-3.78,1.43-1.1,3.54-1.74,5.03-.4,2.39,2.21,3.79,5.48,5.87,7.95,1.58,1.88,4.09,2.84,5.87,4.51,1.88,1.54,3.59,3.64,5.87,4.6,4.94,1.45,7.25-5.79,10.9-7.95,2.2-1.28,4.65-2.37,6.71-3.89,2.67-1.94,5.74-4.77,9.22-3.01,3.73,1.67,7.43,4.41,11.74,3.68"/><path class="b" d="M11.72,147.69c5.58,2.55,6.59.39,11.74,1.05,2.79.38,5.52,1.8,8.39,1.45,1.65-.17,3.36-.93,5.03-.72,1.24.24,2.37,1.26,3.35,2,1.88,1.41,4.4,1.95,6.71,1.61,1.81-.34,3.47-1.48,5.03-2.39,3.12-2.06,6.5-1.98,10.06-1.97,2.24-.06,4.55-.46,6.71-1.04,1.34-.38,2.8-.97,4.19-1.11,3.37-.08,6.67,1.29,10.06.98,5.35-.59,6.97,2.55,10.9,5.09,2.2,1.26,3.88-.41,5.03-2.18,1.43-2.22,2.76-4.88,4.19-7.1,1.81-2.93,4.69-5.7,8.39-5.44,1.64.03,3.45.13,5.03-.4,1.99-.63,3.81-2.04,5.87-2.45,4.22-.45,6.36,5.98,9.22,8.37,1.76,1.36,3.65,2.85,5.03,4.61,2.16,2.36,3.99,6.12,7.55,6.37,3.82-.49,5.71-5.8,8.39-8.22,1.91-1.83,4.55-2.82,6.71-4.3,2.26-1.46,4.19-3.69,6.71-4.73,4.66-1.41,8.65,4.07,14.26,3.29"/><path class="b" d="M11.72,146.14c5.2,2.54,6.1.45,10.9.59,3.07.18,6.12,1.76,9.22,1.08,1.66-.32,3.31-1.32,5.03-1.29,3.48.8,4.57,5.01,9.22,4.53,2.11-.14,4.04-1.34,5.87-2.29,3.06-1.79,6.66-1.51,10.06-1.62,1.95-.11,3.99-.48,5.87-1,1.64-.43,3.32-1.24,5.03-1.37,2.24-.17,4.5.51,6.71.73,1.64.18,3.42,0,5.03-.32,3.84-.97,6.22.27,9.22,2.52,6.2,4.7,8.16-8.29,14.26-11.58,2.51-1.56,5.6-.93,8.39-1.15,2.83-.2,5.51-2.34,8.39-1.61,2.66,1.03,4.12,3.95,5.87,6.03,1.35,1.91,3.57,3.22,5.03,5.04,2.8,3.03,4.87,9,9.22,9.78,4.38-.21,6.44-8.69,10.9-11.14,2.16-1.39,4.66-2.47,6.71-4.05,1.77-1.24,3.61-2.93,5.87-3.08,4.08-.02,7.56,3.41,11.74,2.61"/><path class="b" d="M11.72,144.47c5.05,2.68,6.25.14,10.9.3,5.2.6,7.52,2.52,12.58-.53,2.08-1.23,3.58-.6,5.03,1.12,3.09,3.77,5.49,4.88,10.06,2.65,5.71-3.1,8.31-2.26,14.26-3.02,2.85-.31,5.55-1.64,8.39-1.97,2.79-.27,5.6.62,8.39.5,3.13-.04,6.07-1.87,9.22-1.53,2.96.16,5.34,3.65,8.39,2.43,3.81-2.32,5.45-7.15,9.22-9.58,2.67-1.95,6.12-1.58,9.22-1.96,2.53-.34,4.97-1.73,7.55-1.63,2.68.35,4.3,3.03,5.87,4.95,1.35,1.95,3.28,3.6,5.03,5.16,3.64,3.8,5.17,9.89,10.06,12.37,4.39,1.13,6.86-9.45,11.74-12.21,2.08-1.39,4.55-2.33,6.71-3.58,2.73-1.71,5.26-2.07,8.39-1.14,2.42.68,5.08,1.28,7.55.45"/><path class="b" d="M11.72,142.52c4.91,2.63,6.4-.21,10.9.12,2.25.21,4.47,1.1,6.71,1.34,3.68.46,5.44-1.98,8.39-3.32,3.22-.53,4.82,6.62,9.22,6.81,2.69.03,5.08-1.64,7.55-2.49,2.65-1.02,5.58-1.24,8.39-1.49,3.17-.15,6.19-1.27,9.22-2.05,1.9-.4,3.95-.31,5.87-.18,1.64.1,3.42.11,5.03-.2,1.96-.38,3.94-1.17,5.87-1.65,1.94-.54,4.07-.27,5.87.62,5.71,3.22,7.82-1.38,11.74-4.66,3.24-2.98,6.75-3.37,10.9-3.93,2.53-.44,4.99-1.61,7.55-1.85,3.75.21,5.87,4.06,8.39,6.37,1.27,1.3,3.01,2.43,4.19,3.82,2.98,3.8,5.04,8.43,8.39,11.95,5.34,5.34,7.71-7.91,13.42-11.27,1.49-1.02,3.33-1.71,5.03-2.28,2.11-.82,4.47-1.05,6.71-.77,3.09.38,6.42.54,9.22-1.04"/><path class="b" d="M11.72,140.2c5.26,2.57,7.26-1.25,12.58.33,3.66,1.01,7.56,2.8,10.9-.03,1.28-.94,2.48-2.66,4.19-2.69,1.51.48,2.46,2.28,3.35,3.48,2.46,3.6,4.71,5.95,9.22,3.91,2.43-1.02,4.94-2.14,7.55-2.6,3.05-.59,6.3-.59,9.22-1.72,2.13-.81,4.42-1.52,6.71-1.7,2.49-.2,5.09-.12,7.55-.64,6.64-1.57,7.32-2.92,14.26-.68,4.99,1.05,8.38-3.96,12.58-5.71,2.34-1.16,5.02-1.6,7.55-2.14,2.22-.48,4.47-1.33,6.71-1.71,3.91-.32,7.03,3.12,10.06,5.14,1.32,1.1,2.9,2.21,4.19,3.34,3.57,4.05,5.9,9.17,9.22,13.4,2.68,3.19,5.04.54,6.71-2.07,1.27-1.96,2.62-4.24,4.19-5.97,1.89-2.21,4.66-3.65,7.55-3.95,1.63-.22,3.4.1,5.03.13,3.26.19,6.59-.69,9.22-2.64"/><path class="b" d="M11.72,137.57c1.83.74,3.96.82,5.87.39,1.32-.37,2.81-.76,4.19-.57,4.46.32,9.05,4.55,13.42,1.8,1.75-1.11,2.96-3.36,5.03-3.89,3.75.98,5.03,9.25,10.06,9.43,2.66-.05,5.07-1.59,7.55-2.4,2.41-.89,5.04-1.29,7.55-1.8,3.7-.87,7.08-2.99,10.9-3.48,2.2-.38,4.52-.61,6.71-1.05,2.74-.57,5.56-1.34,8.39-1.33,1.66.01,3.39.47,5.03.65,4.34.71,8.08-2.02,11.74-3.91,2.86-1.53,6.07-2.37,9.22-3.03,1.91-.44,3.91-1.09,5.87-1.26,2.35-.21,4.59.93,6.71,1.78,2.97,1.03,5.82,2.56,8.39,4.37,1.75.95,3.05,2.82,4.19,4.4,2.47,3.34,4.24,7.35,6.71,10.69,3.99,5.05,7.45-3.01,10.06-5.52,1.75-1.93,4.06-3.64,6.71-3.95,1.63-.21,3.4.12,5.03-.01,3.36-.14,6.67-1.49,9.22-3.67"/><path class="b" d="M11.72,134.76c2.46.65,5.12.3,7.55-.33,1.66-.28,3.47.12,5.03.69,4.47,1.6,9.4,5.73,13.42.99,1.19-1.07,2.39-3.09,4.19-2.92,4.9,3.19,5.27,13.21,13.42,9.7,1.92-.76,3.9-1.68,5.87-2.32,2.2-.74,4.59-1.22,6.71-2.16,3.68-1.92,7.63-3.44,11.74-4.11,3.03-.54,6.14-1.1,9.22-1.15,2.22-.11,4.5.31,6.71.37,1.68,0,3.46-.36,5.03-.94,3.42-1.29,6.61-3.27,10.06-4.48,2.14-.78,4.48-1.3,6.71-1.75,1.61-.35,3.37-.72,5.03-.71,2.31-.02,4.5,1.1,6.71,1.62,3.49.64,6.96,1.69,10.06,3.44,5.78,2.56,7.97,10.85,11.74,15.59,3.6,4.67,7.23-1.6,10.06-3.86,1.67-1.38,3.71-2.6,5.87-2.97,4.76-.37,9.71-1.47,13.42-4.66"/><path class="b" d="M11.72,131.95c7.1.51,7.8-2.66,15.09,1.6,3.89,2.07,7.99,5.44,11.74,1.2,1.27-1.17,2.41-3.07,4.19-3.45,3.94,1.23,5.01,10.17,10.06,11.12,2.37.3,4.61-1.02,6.71-1.93,2.43-1.16,5.08-2.03,7.55-3.11,6.74-3.87,12.26-5.7,20.13-5.3,5.49.14,8.3,1.04,13.42-1.77,3.27-1.67,6.55-3.54,10.06-4.68,3.5-1.04,7.23-1.94,10.9-1.84,2.31.13,4.47,1.32,6.71,1.81,3.38.57,6.85,1.11,10.06,2.36,1.32.57,2.98.77,4.19,1.56,4.65,3.73,6.31,10,10.06,14.47,3.86,4.26,8-1.95,11.74-3.3,1.82-.89,3.94-1.27,5.87-1.83,3.47-1.13,7.08-2.33,10.06-4.5"/><path class="b" d="M11.72,129.37c2.51-.21,5.07-.67,7.55-1.08,4.52-.31,8.06,3.35,11.74,5.45,3.84,2.46,6.13,2.36,9.22-1.12.95-.99,2.01-2.39,3.35-2.85,2.18.17,3.13,3.02,4.19,4.61,2.27,4.1,4.71,8.52,10.06,5.91,3.05-1.44,6.16-2.95,9.22-4.37,4.11-2.51,8.45-4.88,13.42-4.82,3.9,0,7.83.74,11.74.4,4.75-.13,8.48-3.74,12.58-5.73,4.79-2.56,11.3-4.83,16.77-4.06,2.01.37,3.92,1.44,5.87,2,1.91.45,3.96.73,5.87,1.17,2.23.45,4.5,1.16,6.71,1.72,1.38.31,3.04.22,4.19,1.19,4.09,3.35,5.82,8.78,9.22,12.72,3.4,3.99,7.99.19,11.74-1.13,5.13-1.56,10.33-3.21,15.09-5.69"/><path class="b" d="M11.72,127.29c2.73-.72,5.57-1.47,8.39-1.71,4.75.12,8.6,5.01,12.58,7.27,3.34,2.32,5.9,1.12,8.39-1.68.95-.97,1.98-2.41,3.35-2.78,2.47.41,3.7,4.17,5.03,6.04,4.89,8.67,9.16,3.76,15.93.87,2.05-.87,3.92-2.31,5.87-3.37,2.04-1.07,4.4-1.74,6.71-1.79,2.8-.09,5.6.65,8.39.77,2.21.02,4.54-.18,6.71-.64,1.77-.47,3.48-1.52,5.03-2.46,6.71-4.1,14.36-9.78,22.64-8.51,2.03.45,3.96,1.54,5.87,2.33,1.87.66,3.96.97,5.87,1.47,2.78.63,5.57,1.62,8.39,2.07,1.05.15,2.33-.15,3.35.2,4.72,2.33,6.38,8.1,10.06,11.59,3.31,3.17,8,.74,11.74-.23,1.89-.59,3.96-.96,5.87-1.46,2.79-.84,5.65-1.75,8.39-2.76"/><path class="b" d="M11.72,126.05c13.11-6.19,12.73.11,22.64,5.96,5.57,2.54,7.56-5.22,10.9-4.92,1.95.95,3,3.34,4.19,5.05,2.98,4.75,5.49,6.55,10.9,3.9,2.19-1.01,4.53-1.93,6.71-2.96,1.91-1.1,3.74-2.59,5.87-3.27,3.52-1.33,7.3-.41,10.9-.05,1.64.14,3.41-.1,5.03-.37,1.06-.14,2.33-.23,3.35-.56,7.48-2.83,13.44-8.8,20.96-11.55,5.4-1.91,8.76.22,13.42,2.63,1.85.77,3.96,1.11,5.87,1.67,2.49.66,5.02,1.56,7.55,2.08.73.14,1.77.2,2.52.1.73-.21,1.78-.27,2.52-.05,5.04,2.02,6.57,8.75,11.74,10.56,3.61.79,7.34-.61,10.9-1.17,1.89-.47,3.96-.53,5.87-.86,2.22-.44,4.53-1.02,6.71-1.64"/><path class="b" d="M11.72,125.95c4.77-3.05,10.14-5.67,15.09-1.45,2.42,1.94,4.74,4.24,7.55,5.63,2.42,1.23,4.98-.29,6.71-2,.99-.87,2.02-2.18,3.35-2.5,1.94.1,3.1,2.26,4.19,3.62,2.91,4.19,5.49,7,10.9,5.01,2.48-.88,5.14-1.51,7.55-2.57,2.61-1.55,5.28-3.35,8.39-3.66,2.48-.35,5.06.13,7.55.08,1.66-.02,3.4-.47,5.03-.73,1.06-.11,2.32-.1,3.35-.39,2.76-.7,5.13-2.52,7.55-3.93,3.44-1.98,6.81-4.2,10.06-6.46,3.81-2.72,8.38-4.01,12.58-1.29,2.21,1.22,4.31,2.92,6.71,3.76,3.97.96,7.87,2.39,11.74,3.32,3.14.6,4.41-1.47,7.55.81,3.37,2.33,5.67,6.82,10.06,7.34,4.2.11,8.42-.73,12.58-1.21,3.36-.23,6.8-.42,10.06-1.31"/><path class="b" d="M11.72,126.08c4.55-2.81,9.83-6.35,15.09-3.05,2.32,1.4,4.3,3.5,6.71,4.78,2.64,1.66,5.44.39,7.55-1.48.97-.76,2.05-1.89,3.35-1.97,1.77.2,3.05,1.9,4.19,3.1,3.15,3.71,5.91,5.56,10.9,4.38,2.21-.49,4.58-.79,6.71-1.55,1.71-.66,3.36-1.79,5.03-2.53,1.82-.83,3.88-1.4,5.87-1.58,1.63-.16,3.4-.13,5.03-.31,1.67-.17,3.39-.73,5.03-1.05,1.63-.22,3.46.2,5.03-.45,2.06-.92,3.93-2.43,5.87-3.56,2.81-1.65,5.81-3.18,8.39-5.2,5.67-4.59,9.56-7.38,15.93-1.79,1.82,1.45,3.71,3.12,5.87,4.04,1.88.66,3.97,1.07,5.87,1.68,2.18.64,4.41,1.63,6.71,1.68,1.07-.01,2.28-.53,3.35-.53,3.95.12,6.7,3.55,10.06,5.17,2.02,1.16,4.47,1.11,6.71.86,1.63-.11,3.4-.2,5.03-.35,2.2-.2,4.5-.51,6.71-.71,2.49-.16,5.09-.25,7.55-.72"/><path class="b" d="M11.72,125.19c4.91-1.26,9.85-4.84,15.09-3.13,2.73.91,4.91,3.07,7.55,4.15,2.32.93,4.8-.17,6.71-1.51.97-.66,2.14-1.45,3.35-1.42,1.95.24,3.52,1.82,5.03,2.94,4.41,3.77,8.95,3.01,14.26,2.32,2.96-.51,5.63-2.14,8.39-3.24,2.38-.99,4.99-1.54,7.55-1.82,2.56-.21,5.04-1.21,7.55-1.68,1.07-.15,2.3.21,3.35.29,2.88-.33,5.08-2.72,7.55-4.04,3.84-2.1,7.69-4.27,10.9-7.3,5.11-4.75,8.93-3.63,13.42,1.18,1.99,1.96,4.01,4.29,6.71,5.25,2.75.76,5.63,1.38,8.39,2.11,1.61.43,3.4.17,5.03.09,1.36-.02,2.88.24,4.19.61,3.12.88,6.02,2.63,9.22,3.24,2.46.54,5.06.14,7.55.12,5.6-.05,11.16-1.25,16.77-1.1"/><path class="b" d="M11.72,122.49c5.05,1.47,10.05-1.23,15.09-1.22,3.58.12,6.47,3.12,10.06,3.05,4.62-.34,5.89-3.53,10.9-.89,3.35,1.76,7.11,2.67,10.9,2.52,2.52.02,5.15-.07,7.55-.94,2.82-.91,5.56-2.28,8.39-3.19,2.15-.73,4.5-1.13,6.71-1.65,2.21-.47,4.41-1.65,6.71-1.59.77.07,1.75.46,2.52.57,2.55-.02,4.62-2.02,6.71-3.23,2.13-1.39,4.54-2.53,6.71-3.85,6.25-3.69,9.48-11.58,16.77-3.92,2.45,2.52,4.5,5.73,7.55,7.59,1.76.95,3.92,1.1,5.87,1.37,3.05.41,6.2.63,9.22,1.18,4.16.75,8.39,1.51,12.58,2.07,2.48.26,5.06.19,7.55.27,5.59.36,11.22-1.15,16.77-.21"/><path class="b" d="M11.72,118.51c7,4.25,9.74,1.54,16.77,1.38,2.88.04,5.53,1.61,8.39,1.85,2.5.33,5.05-.44,7.55-.2,3.9.71,7.76,1.41,11.74,1.37,2.49.02,5.09.33,7.55-.14,4.67-.87,8.9-3.3,13.42-4.67,1.91-.59,3.97-1.11,5.87-1.75,1.59-.51,3.33-1.21,5.03-1.06,1.35.22,2.79,1,4.19.64,2.44-.68,4.53-2.39,6.71-3.62,2.45-1.47,5.2-2.63,7.55-4.28,2.29-1.55,4.2-3.86,6.71-5.09,3.77-1.42,7,2.3,9.22,4.86,7.42,10.01,10.15,7.13,20.96,9.56,3.01.66,6.17.28,9.22.38,4.46.21,8.96.41,13.42.7,4.74.19,9.65-.66,14.26.82"/><path class="b" d="M11.72,114.71c1.92.91,3.83,2.13,5.87,2.75,2.74.76,5.63.03,8.39-.21,1.93-.18,3.96.06,5.87.33,5.09.85,9.9,3.19,15.09,3.48,2.22.11,4.51-.3,6.71-.49,1.92-.17,3.95-.15,5.87-.09,5.07.27,9.79-2.03,14.26-4.14,4.03-1.78,8.28-3.38,12.58-4.35,1.39-.24,2.87.31,4.19.66,3.07.9,5.85-1.44,8.39-2.84,2.65-1.66,5.7-2.7,8.39-4.28,2.31-1.34,4.19-3.6,6.71-4.56,3.83-.86,6.76,3.05,9.22,5.4,2.55,2.45,4.68,5.53,7.55,7.62,1.71,1.12,3.88,1.44,5.87,1.7,2.77.27,5.61.78,8.39.9,3.34-.18,6.7-1.07,10.06-.79,4.17.25,8.4.57,12.58.77,4.21.02,8.59.04,12.58,1.56"/><path class="b" d="M11.72,112.17c1.97.45,3.91,1.37,5.87,1.83,2.48.51,5.07-.08,7.55-.32,2.23-.24,4.54.09,6.71.57,1.35.3,2.9.37,4.19.87,3.2,1.36,5.7,4.32,9.22,4.96,2.86.53,5.63-.84,8.39-1.36,2.74-.61,5.63-.22,8.39-.65,5.88-.8,10.58-4.78,15.93-7,1.6-.67,3.37-1.28,5.03-1.77,1.59-.46,3.38-.93,5.03-.59,1.89.44,3.9,1.33,5.87.93,3.04-.7,5.55-2.86,8.39-4.07,1.87-.85,4-1.36,5.87-2.23,1.45-.68,2.89-1.75,4.19-2.67,3.1-2.46,5.68-1.06,8.39,1.15,1.59,1.37,3.51,2.63,5.03,4.08,2.84,2.83,4.91,7.32,9.22,8.04,3.24.61,6.78,1.13,10.06,1.04,2.5-.34,5.01-1.2,7.55-1.23,1.64-.05,3.4.17,5.03.3,2.48.14,5.06.2,7.55.31,5.08.1,10.3.29,15.09,2.15"/><path class="b" d="M11.72,110.57c2.23.14,4.48.83,6.71.88,2.22-.02,4.5-.52,6.71-.67,3.67-.26,7.3.86,10.9,1.34,3.6,1.5,5.32,5.95,9.22,6.98,2.96.71,5.63-1.36,8.39-2.08,2.98-.92,6.25-.39,9.22-1.32,6.45-1.79,11.19-7.17,17.61-9.07,5.84-1.96,6.25-1.01,11.74.21,3.76.69,6.81-2.25,10.06-3.6,1.82-.82,3.93-1.07,5.87-1.46,1.45-.31,2.95-1.05,4.19-1.85,1.45-.95,3.23-2.03,5.03-1.48,1.82.54,3.43,1.85,5.03,2.82,1.1.61,2.47,1.22,3.35,2.15,2.28,2.27,4.01,5.31,6.71,7.14,2.23,1.37,5.04,1.02,7.55,1.11,1.64,0,3.39.4,5.03.35,2.2-.13,4.49-.56,6.71-.44,1.93.1,3.94.5,5.87.57,3.05.14,6.17,0,9.22-.02,4.53-.1,9.11.68,13.42,2.05"/><path class="b" d="M11.72,109.39c1.92-.11,3.95.12,5.87.08,2.21-.08,4.49-.53,6.71-.6,2.51-.12,5.07.29,7.55.58,1.63.26,3.47.2,5.03.76,3.09,1.71,4.4,5.62,7.55,7.26,2.9,1.59,5.77-.82,8.39-1.91,1.82-.8,3.9-1.12,5.87-1.22,7.01-.17,11.75-6.11,17.61-9.1,3.06-1.5,6.61-2.95,10.06-2.31,9.07,2.59,7.9,2.08,15.93-1.98,5.51-1.98,6.3.87,12.58-2.98,2.63-1.28,5.23.72,7.55,1.79.75.3,1.84.57,2.52,1.04,1.23.9,2.39,2.31,3.35,3.48,3.46,4.52,6.02,5.81,11.74,4.69,2.18-.4,4.51-.23,6.71-.39,3.99-.18,7.74,1.88,11.74,1.65,3.63-.02,7.27-.8,10.9-.76,3.66.01,7.34.69,10.9,1.47"/><path class="b" d="M11.72,108.44c4.98-.64,10.07-.74,15.09-.7,3.32-.01,6.82-.25,10.06.58,4,1.97,5.51,9.24,10.9,8.01,3.1-1.15,5.81-3.52,9.22-3.82,1.94-.25,4.05-.34,5.87-1.12,4.61-2.12,8.1-6.14,12.58-8.5,2.77-1.49,6.02-2.82,9.22-2.27,2.24.41,4.46,1.35,6.71,1.72,2.67.59,5.32-.55,7.55-1.93,2.24-1.34,4.88-2.5,7.55-2.03,1.34.2,2.82.62,4.19.57,2.38-.05,4.31-2.12,6.71-1.99,1.74.15,3.39,1.14,5.03,1.63,1.63.17,3.08.89,4.19,2.11,1.87,1.89,3.51,4.33,5.87,5.66,3.45,1.54,7.38.19,10.9-.42,2.53-.53,5.22-.24,7.55.91,5.43,2.61,10.41,1.04,15.93-.08,4.44-.59,8.98-.21,13.42.26"/><path class="b" d="M11.72,107.76c3.27-.93,6.72-.68,10.06-.87,4.16-.37,8.39-1.21,12.58-.8,5.34-.04,6.39,6.86,10.9,8.5,2.09.69,4.14-.65,5.87-1.68,1.54-.94,3.28-1.82,5.03-2.25,2.5-.59,5.26-.64,7.55-1.95,3.31-1.87,6.01-4.77,9.22-6.79,2.96-1.89,6.45-3.64,10.06-3.07,4.8.79,8.65,3.37,13.42.63,3.06-1.64,6.5-3.68,10.06-2.44,1.33.4,2.79,1.02,4.19,1.13,2.08.18,3.86-1.38,5.87-1.58,1.71-.13,3.42.64,5.03,1.06,1.06.23,2.38.1,3.35.67,1.89,1.08,3.39,2.95,5.03,4.36,2.15,2.05,4.73,2.26,7.55,1.79,1.91-.3,3.96-.37,5.87-.62,4.48-1.25,7.49,2.03,11.74,2.49,4.08.54,7.93-1.32,11.74-2.43,4.4-.85,8.95-1.05,13.42-1"/><path class="b" d="M11.72,107.14c2.72-.76,5.62-.98,8.39-1.48,3.86-.74,7.79-1.59,11.74-1.61,1.65.06,3.55.05,5.03.86,3.39,2.16,4.96,7.04,9.22,7.83,3.14.22,5.61-2.35,8.39-3.43,2.66-1.21,5.74-1.39,8.39-2.65,5.79-3.11,10.44-9.52,17.61-9.26,3.94.1,7.77,2.32,11.74,1.49,4.18-1.06,8.06-4.51,12.58-3.38,1.7.42,3.35,1.41,5.03,1.87,2.3.73,4.44-.94,6.71-.98,2.25-.05,4.45,1.25,6.71.88,2.28.04,4.12,1.79,5.87,3.05,3.05,2.47,5.58,2.12,9.22,1.69,2.49-.18,5.06.26,7.55.26,2,.1,3.97.98,5.87,1.54,2.42.74,5.13.77,7.55,0,2.64-.78,5-2.44,7.55-3.44,4.35-1.2,8.91-1.84,13.42-1.95"/><path class="b" d="M11.72,105.6c6.91-1.5,13.8-3.99,20.96-3.57,4.79-.16,6.81,4.02,10.06,6.67,4,3.05,7.06,1.21,10.9-.84,3.21-1.69,6.95-2.34,10.06-4.23,4.28-2.71,8.13-6.74,13.42-7.3,4.22-.55,8.35,1.41,12.58,1.02,5.81-.86,10.83-5.11,16.77-1.88,7.14,3.64,6.07-.79,14.26,1.61,1.05.27,2.3-.02,3.35-.09,3.02.18,5.45,2.51,8.39,3.05,2.47.44,5.07-.16,7.55.23,1.64.27,3.37.78,5.03.94,2.23.13,4.52.59,6.71,1,5.5,1.08,9.21-1.75,13.42-4.79,1.44-1.05,3.32-1.55,5.03-1.94,3.26-.92,6.71-1.11,10.06-1.38"/><path class="b" d="M11.72,103.09c3.09-.65,6.17-1.61,9.22-2.39,2.45-.55,5.04-.79,7.55-.88,3.86-.12,7.09-.1,10.06,2.7,4.27,4.06,8.47,6.55,14.26,3.68,3.04-1.42,6.26-2.62,9.22-4.18,7.74-4.57,10.24-8.26,20.13-6.6,2.48.34,5.08.26,7.55-.15,5.19-1.18,10.84-3.03,15.93-.54,1.58.65,3.3,1.43,5.03,1.56,1.64.05,3.39-.35,5.03-.27,1.96.06,3.94.73,5.87.97,1.07.08,2.29-.36,3.35-.38,1.98-.03,3.97.74,5.87,1.21,1.88.49,3.94.53,5.87.61,3.69.18,7.18,1.89,10.9,1.79,5.95.68,9.57.64,14.26-3.64,1.56-1.34,3.2-2.91,5.03-3.9,4.21-1.78,8.93-1.89,13.42-2.31"/><path class="b" d="M11.72,99.84c4.18-.76,8.29-2.3,12.58-2.36,1.92-.06,3.95-.03,5.87.04,1.66.05,3.48.14,5.03.8,2.37.97,4.44,2.73,6.71,3.9,1.28.64,2.82,1.04,4.19,1.43,3.36,1.02,6.92.19,10.06-1.16,4.49-1.69,8.42-4.57,12.58-6.89,5.04-2.86,9.74-1.48,15.09-1.76,8.11-1.16,13.7-2.68,21.8.41,4.29,1.64,9.01.71,13.42,1.81,1.32.27,2.84.63,4.19.32,1.88-.49,3.95-.53,5.87-.28,3.04.46,6.19.63,9.22,1.14,1.65.29,3.39.84,5.03,1.16,1.61.28,3.4.31,5.03.4,7.26.56,10.2-1.87,15.09-6.8,1.41-1.32,3.11-2.72,5.03-3.18,3.8-1.03,7.83-1.1,11.74-1.38"/><path class="b" d="M11.72,96.15c3.32-.52,6.7-1.32,10.06-1.42,2.21.01,4.5.27,6.71.42,1.64.12,3.43.12,5.03.56,2.29.59,4.5,1.71,6.71,2.51,1.58.62,3.38.89,5.03,1.2,4.25,1.14,8.41,1.64,12.58-.11,5.43-2.03,9.93-6.59,15.93-6.95,2.48-.22,5.07-.06,7.55-.34,2.23-.24,4.5-.85,6.71-1.21,6.85-1.21,13.56,1.28,20.13,2.88,4.42.85,8.97,1.31,13.42,1.99,1.07.09,2.31-.24,3.35-.42,1.62-.26,3.39-.36,5.03-.3,2.78.12,5.64.4,8.39.83,3.04.53,6.13,1.24,9.22,1.37,4.2.35,8.61-.66,11.74-3.61,2.52-2.14,4.62-4.99,7.55-6.61,4.19-1.76,8.96-1.4,13.42-1.64"/><path class="b" d="M11.72,92.32c3.02-.4,6.18-.64,9.22-.54,1.94.17,3.95.6,5.87.87,1.63.24,3.41.3,5.03.62,4.13.95,8.29,2.12,12.58,1.98,4.46.3,8.93,2.21,13.42,1.12,3.89-.88,7.16-3.45,10.9-4.73,3.5-1.19,7.3-1,10.9-1.65,3.05-.53,6.12-1.44,9.22-1.55,3.65-.12,7.33.65,10.9,1.35,3.68.84,7.25,2.27,10.9,3.2,3.82.87,7.82,1.39,11.74,1.47,2.2-.31,4.48-.77,6.71-.85,3.34-.11,6.75.22,10.06.68,7.32,1.31,13.93,2.74,20.13-2.64,2.53-2.07,4.68-4.81,7.55-6.43,4.17-1.86,8.98-1.19,13.42-1.16"/><path class="b" d="M11.72,88.66c4.5-.45,9.09.02,13.42,1.32,3.32.66,6.72,1.29,10.06,1.88,3.62.61,7.28-.25,10.9-.31,3.09-.03,6.18.67,9.22,1.12,4.45.83,8.52-1.43,12.58-2.85,2.42-.79,5.05-1.09,7.55-1.53,2.22-.39,4.5-.97,6.71-1.4,3.86-.87,7.85-.34,11.74.03,2.22.15,4.57.31,6.71.97,2.58.79,5.07,2.07,7.55,3.1,3.93,1.78,8.34,1.83,12.58,1.94,2.21-.07,4.49-.44,6.71-.35,5.3.23,10.67.2,15.93.92,5.92,1.19,12.02-.07,16.77-3.88,2.48-1.83,4.7-4.27,7.55-5.53,4.02-1.48,8.43-.63,12.58-.31"/><path class="b" d="M11.72,85.65c3.06-.21,6.24.03,9.22.72,5.7,1.63,11.59,3.87,17.61,3.2,4.17-.55,8.35-1.59,12.58-1.64,3.37-.07,6.69,1.21,10.06.94,2.56-.2,5.07-1.11,7.55-1.7,4.45-.92,8.9-2.24,13.42-2.79,2.49-.26,5.07.16,7.55.36,2.2.21,4.51-.1,6.71.11,3.7.35,6.85,2.64,10.06,4.31,3.04,1.75,6.59,2.39,10.06,2.07,3.05,0,6.19.18,9.22.56,2.75.41,5.6.72,8.39.62,3.33-.13,6.74-.51,10.06-.08,5.22.68,10.46-.89,15.09-3.23,2.87-1.41,5.46-3.53,8.39-4.82,4.01-1.58,8.44-.62,12.58-.25"/><path class="b" d="M11.72,83.64c2.77-.17,5.65-.14,8.39.4,4.22.97,8.28,2.8,12.58,3.42,3.07.45,6.21-.14,9.22-.75,3.09-.53,6.2-1.26,9.22-2.09,4.17-1.26,8.37.63,12.58.42,5.4-.32,10.55-2.42,15.93-2.86,3.09-.36,6.17.53,9.22.72,3.07.08,6.31-.71,9.22.63,4.74,2.01,8.85,6.12,14.26,6.16,2.21-.08,4.52-.09,6.71.29,3.11.32,6.16,1.31,9.22,1.88,3.04.53,6.2.19,9.22-.27,2.75-.49,5.61-.44,8.39-.41,2.26-.04,4.57-.57,6.71-1.28,3.32-1.15,6.74-2.2,10.06-3.34,2.2-.77,4.43-1.82,6.71-2.35,3.56-.78,7.3-.47,10.9-.2"/><path class="b" d="M11.72,82.87c3.62-.17,7.33-.52,10.9.27,3.66.61,7.18,2.2,10.9,2.45,2.81.23,5.64-.42,8.39-.92,2.86-.38,5.77-.96,8.39-2.22,5.69-2.77,7.54-1.98,13.42-1.22,3.38.35,6.75-.52,10.06-1.06,2.47-.41,5.06-.5,7.55-.2,1.95.23,3.93.93,5.87,1.21,3.05.41,6.3-.6,9.22.7,4.25,1.74,8,4.83,12.58,5.76,3.05.42,6.22.4,9.22,1.14,4.5.72,8.78,2.95,13.42,2.77,3.09-.04,6.17-.85,9.22-1.19,2.8-.27,5.74-.28,8.39-1.33,2.79-1.04,5.49-2.57,8.39-3.35,2.43-.68,5.05-.86,7.55-1.19,4.99-.7,10.02-1.92,15.09-1.57"/><path class="b" d="M11.72,82.91c1.93.05,3.95-.22,5.87-.34,2.49-.09,5.06,0,7.55.17,3.62.26,7.24,1.37,10.9,1.03,1.93-.14,3.95-.53,5.87-.78,2.25-.26,4.65-.47,6.71-1.48,2.56-1.2,4.89-3.06,7.55-4.04,2.7-1.01,5.64-.33,8.39.06,2.2.34,4.51.18,6.71-.05,3.34-.38,6.79-.25,10.06.56,1.95.47,3.89,1.39,5.87,1.76,1.62.3,3.4.12,5.03.23,3.65.34,6.75,2.66,10.06,4.03,3.39,1.67,7.24,1.81,10.9,2.42,4.23.88,8.43,2.11,12.58,3.31,4.66,1.43,9.58.6,14.26-.27,7.01-.84,8.54-2.54,14.26-6.02,2.51-1.45,5.49-2.16,8.39-1.92,2.48.15,5.05.67,7.55.44,3.34-.33,6.69-1.3,10.06-1.08"/><path class="b" d="M11.72,82.63c5.29.3,10.64-.52,15.93-.33,2.2.13,4.5.38,6.71.26,2.22-.1,4.51-.51,6.71-.82,2.8-.41,5.86-.43,8.39-1.87,4.18-2.56,7.98-7.28,13.42-6.16,1.64.23,3.38.63,5.03.76,1.92.11,3.95.08,5.87.23,3.44.28,6.91,1.14,10.06,2.56,1.3.57,2.78,1.14,4.19,1.36,1.34.2,2.86.21,4.19.44,2.05.36,4.02,1.37,5.87,2.3,2.09,1.05,4.38,2,6.71,2.37,3.64.48,7.39.8,10.9,1.93,2.74.83,5.64,1.4,8.39,2.2,4.04,1.3,8.38,1.8,12.58,1.03,2.83-.49,5.78-1.08,8.39-2.33,6.06-3.24,9.73-10.2,17.61-9.12,2.54.24,5,1.41,7.55,1.58,3.35.15,6.71-.95,10.06-.68"/><path class="b" d="M11.72,81.44c5.84.73,11.77.33,17.61-.2,2.21-.09,4.52-.07,6.71-.39,2.5-.37,5.03-1.08,7.55-1.37,3.38-.33,6.59-.83,9.22-3.17,3.43-2.9,6.76-6.7,11.74-5.48,4.72,1.07,9.65,1.33,14.26,2.92,2.62.72,5.04,2.19,7.55,3.19,1.85.72,3.95.88,5.87,1.29,2.67.54,5.06,2.13,7.55,3.16,2.62,1.17,5.58,1.23,8.39,1.48,3.1.24,6.21.95,9.22,1.68,2.2.43,4.53.78,6.71,1.34,4.68,1.4,9.39,2.53,14.26,1.24,9.72-2.08,10.87-9.67,18.45-12.5,2.67-.85,5.63-1.01,8.39-.47,1.66.3,3.37,1.03,5.03,1.32,3.32.59,6.73-.29,10.06,0"/><path class="b" d="M11.72,79.33c4.42.63,8.95,1.07,13.42.89,1.94-.09,3.95-.55,5.87-.84,2.5-.37,5.09-.72,7.55-1.35,2.17-.55,4.48-.95,6.71-1.15,1.96-.2,4.08-.35,5.87-1.25,4.89-2.14,8.28-8.68,14.26-7.37,5.12,1.1,10.23,2.55,15.09,4.5,2.26.97,4.43,2.38,6.71,3.33,2.12.9,4.51,1.2,6.71,1.84,2.85.93,5.45,2.75,8.39,3.44,1.88.48,3.95.34,5.87.43,3.07.08,6.18.48,9.22.81,2.5.2,5.1.3,7.55.9,4.93,1.42,9.02,3.55,14.26,1.52,2.5-.95,4.84-2.57,6.71-4.47,1.95-1.98,3.7-4.39,5.87-6.14,1.65-1.32,3.87-1.88,5.87-2.46,3.54-1,7.35-1.01,10.9-.08,3.83.98,7.84.5,11.74.71"/><path class="b" d="M11.72,76.53c2.75.47,5.61.75,8.39,1.04,3.03.35,6.22.61,9.22-.06,4.18-.93,8.37-2.13,12.58-2.92,3.04-.51,6.26-.45,9.22-1.37,5.34-1.59,9.01-8.19,15.09-7.08,2.88.55,5.69,1.64,8.39,2.76,2.2.93,4.58,1.7,6.71,2.8,3.06,1.52,5.9,3.71,9.22,4.65,1.92.51,4.03.82,5.87,1.61,2.96,1.2,5.94,2.93,9.22,2.91,3.61-.17,7.29-.38,10.9-.55,2.76-.16,5.64-.51,8.39,0,4.79.88,8.16,4.84,13.42,2.79,2.54-1.02,4.8-2.88,6.71-4.8,1.64-1.7,3.19-3.78,5.03-5.27,1.42-1.14,3.34-1.64,5.03-2.23,3.22-1.09,6.65-1.92,10.06-1.89,2.5.06,5.05.68,7.55.79,2.48.19,5.07.02,7.55.27"/><path class="b" d="M11.72,73.34c2.76.4,5.62.59,8.39.94,3.03.45,6.17.83,9.22.38,5.06-.92,9.95-3.06,15.09-3.48,3.5.17,6.9,1.09,10.06-1.02,3.99-2.48,7.26-7.34,12.58-5.86,2.64.52,5.13,1.77,7.55,2.89,1.61.76,3.42,1.4,5.03,2.16,3.54,1.56,6.54,4.23,10.06,5.79,1.83.8,3.93,1.09,5.87,1.53,2.27.53,4.52,1.46,6.71,2.23,3.54,1.48,7.35.36,10.9-.46,2.48-.6,5.04-1.25,7.55-1.7,2.19-.43,4.6-.6,6.71.24,3.35,1.23,6.13,5.02,10.06,3.75,4.48-1.57,7.34-5.76,10.9-8.65,1.67-1.34,3.92-1.79,5.87-2.54,3.24-1.16,6.65-2.09,10.06-2.55,2.48-.32,5.07.09,7.55.23,2.76.21,5.63.11,8.39.43"/><path class="b" d="M11.72,69.97c3.6.49,7.28.83,10.9,1.03,2.77.18,5.63.35,8.39-.12,1.96-.34,3.98-.9,5.87-1.52,2.38-.9,5.04-1.83,7.55-.85,1.64.53,3.34,1.32,5.03,1.66,2.81.66,5.57-.76,7.55-2.68,2.32-2.02,4.29-5.19,7.55-5.68,2.94-.1,5.83,1.14,8.39,2.5,3.01,1.64,6.34,2.8,9.22,4.67,3.26,2.1,6.28,4.84,10.06,5.96,2.15.65,4.51.83,6.71,1.25,2.24.38,4.48,1.2,6.71,1.63,3.18.52,6.24-1.16,9.22-2,2.44-.82,5.12-1.04,7.55-1.88,4-1.46,6.88-2.01,10.06,1.44,2.67,2.9,5.35,2.75,8.39.43,2.51-1.75,4.8-4.02,7.55-5.4.99-.5,2.3-.81,3.35-1.16,2.19-.83,4.46-1.74,6.71-2.4,2.99-.88,6.08-1.92,9.22-1.92,4.17.14,8.43.14,12.58.62"/><path class="b" d="M11.72,66.72c3.33.43,6.71,1.04,10.06,1.23,4.48-.03,9.11-.27,13.42-1.61,7.39-2.95,7.11-1.78,13.42,1.95,2.39,1.37,5.37,1.46,7.55-.37,5.53-4.51,6.43-11.76,15.09-7.22,3.6,2,7.52,3.58,10.9,5.95,4.11,3.09,8.17,6.85,13.42,7.78,2.18.37,4.51.22,6.71.41,1.94.14,3.92.83,5.87.93,2.55-.16,5.06-1.16,7.55-1.69,2.48-.57,5.16-.71,7.55-1.67,1.38-.51,2.86-1.22,4.19-1.84,1.52-.76,3.43-1.46,5.03-.54,1.18.7,2.2,2.01,3.35,2.75,1.85,1.22,4.13.19,5.87-.75,1.61-.81,3.35-1.71,5.03-2.35,1.59-.62,3.45-.82,5.03-1.45,4.67-1.78,9.35-3.88,14.26-4.89,4.71-.47,9.55-.18,14.26.3"/><path class="b" d="M11.72,63.85c1.92.28,3.96.47,5.87.79,1.34.25,2.82.55,4.19.59,3.65.07,7.35-.47,10.9-1.25,2.87-.63,5.36-3.01,8.39-2.95,1.97.24,3.58,1.77,5.03,3,2.34,1.97,5.07,4.62,8.39,4.14,6.71-1.57,7.7-14.35,15.93-11.38,2.05.84,3.93,2.26,5.87,3.3,3.02,1.47,5.94,3.32,8.39,5.63,2,1.9,4.34,3.57,6.71,4.96,1.78,1.08,3.77,2.13,5.87,2.35,2.5.31,5.05-.52,7.55-.39,2.22.19,4.44,1.14,6.71.79,1.65-.15,3.4-.59,5.03-.86,1.91-.29,3.98-.33,5.87-.76,2.08-.42,4.15-1.37,5.87-2.6,1.61-1.05,3.13-2.68,5.03-3.18,1.88-.13,3.3,1.64,5.03,2.13,2.15.78,4.53.31,6.71-.05,1.62-.26,3.42-.23,5.03-.56,3.13-.88,6.2-2.22,9.22-3.39,2.16-.88,4.41-1.91,6.71-2.37,4.69-.7,9.55-.43,14.26.06"/><path class="b" d="M11.72,61.13c1.64.19,3.41.35,5.03.65,1.63.33,3.36.82,5.03.88,3.35.12,6.86-.2,10.06-1.25,1.74-.7,3.44-1.83,5.03-2.81,3.23-2.33,5.95-.6,8.39,1.85,4.99,4.97,9.81,10.22,15.09,2.21,1.9-2.66,3.45-5.87,5.87-8.11,3.58-3.07,6.83-.86,10.06,1.38,2.22,1.45,4.69,2.74,6.71,4.49,2.7,2.42,5.37,5.02,8.39,7.06,1.55,1.15,3.18,2.52,5.03,3.15,2.75,1.06,5.63-.07,8.39-.48,1.72-.21,3.45.51,5.03,1.06,2.17.6,4.53.2,6.71-.11,5.42-.69,10.38.17,14.26-4.59,1.55-1.56,2.86-3.9,5.03-4.66,2.13-.18,3.92,1.58,5.87,2.17,1.31.42,2.86.5,4.19.85,1.88.51,3.94.82,5.87.36,4.39-.78,8.44-2.81,12.58-4.37,5.12-1.57,10.67-1.23,15.93-.71"/><path class="b" d="M11.72,58.21c1.65.05,3.43.12,5.03.53,1.09.27,2.28.83,3.35,1.14,6.05,1.43,11.23-.43,15.93-4.22,3.11-2.51,5.91-.66,8.39,1.66,4.62,4.38,10.2,12.24,15.93,4.54,2.38-3.01,4.07-6.73,6.71-9.54,2.88-2.87,5.7-3.68,9.22-1.32,2.87,1.84,5.96,3.63,8.39,6.06,2.62,2.85,5.53,5.56,8.39,8.17,3.4,3.4,6.29,4.35,10.9,2.71,5.79-1.41,4.49,2.98,14.26,1.22,2.76-.37,5.64-.18,8.39-.62,4.58-.99,6.31-6.04,9.22-9.14,1.76-2.03,3.75-1.15,5.87-.31,2.25.58,4.55,1.3,6.71,2.17,3.52,1.02,7.41.96,10.9-.15,2.76-.9,5.49-2.22,8.39-2.66,4.14-.69,8.43-.4,12.58.03"/><path class="b" d="M11.72,54.55c1.95-.1,4.06-.05,5.87.75,1.07.49,2.23,1.24,3.35,1.6,5.42,1.94,10.7-1.19,15.09-4.1,3.53-1.83,6.75,1.79,9.22,3.9,3.54,3.12,8.43,9.28,13.42,5.28,4.48-3.53,6.38-9.49,10.9-13,1.62-1.41,3.6-2.93,5.87-2.78,4.39.64,8.17,3.8,10.9,7.14,1.78,2.29,3.9,4.5,5.87,6.62,2.49,2.68,5.19,6.45,9.22,6.42,1.68-.12,3.33-1.06,5.03-1.1,1.5-.02,2.89.96,4.19,1.58,2.92,1.35,6.19.5,9.22.14,2.19-.29,4.51-.14,6.71-.18,5.19-.07,7.06-5.82,10.06-9.09.84-.92,2.09-1.85,3.35-2.05,1.63-.12,3.41,0,5.03.2,4.45.82,8.81,2.93,13.42,2.53,3.38-.39,6.67-1.64,10.06-1.96,3.89-.34,7.87-.01,11.74.39"/><path class="b" d="M11.72,50.63c4.5-.49,5.6.61,9.22,2.63,3.9,1.95,7.99.51,11.74-1,1.33-.56,2.71-1.5,4.19-1.53,4.51.35,10.1,6.98,14.26,9.3,5.93,3.88,10.92-3.42,14.26-7.49,2.15-2.68,4.98-4.87,7.55-7.13,6.63-5.41,11.09-.91,15.09,4.76,1.83,2.25,4.01,4.41,5.87,6.64,2.43,2.54,4.77,6.29,8.39,7.11,1.97.23,3.91-1.26,5.87-.62,6.26,3.41,6.77,2.22,13.42,1.51,3.04-.38,6.41.71,9.22-.84,3.1-1.96,4.77-5.59,7.55-7.92,3.37-2.88,8.3-3.67,12.58-2.89,2.22.46,4.46,1.28,6.71,1.58,2.76.37,5.62.04,8.39-.13,4.74-.27,9.54.15,14.26.62"/><path class="b" d="M11.72,47.05c7.06-1.01,7.92,3.77,14.26,4.03,2.23.04,4.52-.51,6.71-.85,1.97-.57,3.99-.91,5.87.14,2.63,1.3,5.12,3.04,7.55,4.68,2.52,1.56,5.21,4.14,8.39,3.65,4.42-1.16,7.63-4.72,10.9-7.69,1.46-1.42,3.38-2.45,5.03-3.61,1.69-1.26,3.37-2.81,5.03-4.11,8.65-6.74,10.16,1.42,15.93,6.18,2.43,2.07,4.74,4.49,6.71,7.01,1.66,1.92,3.22,4.66,5.87,5.27,1.08.12,2.3-.29,3.35-.45,1.16-.13,2.39.53,3.35,1.09.98.53,2.25,1,3.35,1.17,3.35.4,6.71-.77,10.06-.73,2.21-.05,4.59.3,6.71-.48,1.94-.75,3.52-2.39,5.03-3.75,1.58-1.46,3.33-3,5.03-4.31,3.17-2.28,6.84-4.71,10.9-4.51,3.11.24,6.14,1.39,9.22,1.85,6.37,1.07,12.87,1.46,19.29,2.12"/><path class="b" d="M11.72,44.16c6.25-.61,7.38,2.23,12.58,3.88,2.7.77,5.61.56,8.39.77,1.36,0,2.9-.07,4.19.43,2.87,1.12,5.67,2.63,8.39,4.09,2.12,1.11,4.28,2.59,6.71,2.87,4.35-.18,8.78-4.52,12.58-6.52,2.04-1.33,4.59-1.64,6.71-2.78,2.39-1.34,4.5-3.31,6.71-4.9,5.86-4.24,7.55-1.21,11.74,2.9,1.2,1.08,2.81,1.9,4.19,2.7,2.94,1.73,4.93,4.76,6.71,7.58,1.39,2,2.97,5.24,5.87,4.8,1.05-.22,2.32-.45,3.35-.06,2.08.98,4.37,1.89,6.71,1.79,3.62-.19,7.26-.87,10.9-.79,2.71.08,5.3-.98,7.55-2.42,1.69-.96,3.5-2.02,5.03-3.23,3.29-2.59,6.14-6.04,10.06-7.72,5.03-1.99,10.29.75,15.09,2.22,4.84,1.7,10.03,2.1,15.09,2.62"/><path class="b" d="M11.72,42c6-.22,8.24,2.45,13.42,4.15,3.57.97,7.33,1.45,10.9,2.4,3.9,1.46,7.8,3.1,11.74,4.47,1.31.41,2.84.67,4.19.34,2.96-.99,5.59-2.93,8.39-4.28,2.06-1.03,4.41-1.64,6.71-1.67,1.66.03,3.49.06,5.03-.66,3.04-1.4,5.5-3.89,8.39-5.56,6.09-3.63,7.4,1.38,12.58,2.94,7.55,1.53,7.53,10.24,12.58,14.15,1.32.61,2.83-.18,4.19-.15,1.94.27,3.9,1.06,5.87,1.17,2.5.14,5.06-.32,7.55-.47,2.48-.2,5.09.04,7.55-.43,1.38-.29,2.84-.88,4.19-1.27,1.36-.39,2.92-.78,4.19-1.42,2.33-1.2,4.11-3.39,5.87-5.27,3.06-3.27,6.92-6.84,11.74-6.36,4.57.48,8.39,3.44,12.58,5.06,3.47,1.28,7.26,1.51,10.9,1.98"/><path class="b" d="M11.72,40.49c4.48.2,8.5,2.33,12.58,3.95,3.28,1.16,6.78,1.81,10.06,2.97,1.39.36,2.85,1.01,4.19,1.52,2.17.68,4.48,1.25,6.71,1.69,6.22,1.54,9.55-3.19,15.09-4.61,3.05-.71,6.21.2,9.22.66,2.8.33,5.41-1.13,7.55-2.79,1.8-1.31,3.8-2.6,5.87-3.44,4.27-1.71,5.34-.45,9.22.88,3.49.71,5.56,1.08,7.55,4.36,1.23,1.99,2.36,4.54,3.35,6.65,1.05,1.9,2.28,5.43,5.03,4.8,2.37-.98,5.02-1,7.55-1.1,2.2-.18,4.49-.57,6.71-.56,2.5-.03,5.05.55,7.55.55,1.65-.02,3.39-.47,5.03-.57,4.56.03,6.34-.8,9.22-4.4,3.86-4.35,8.54-10.53,15.09-9.3,3.13.69,5.8,2.74,8.39,4.52,3.58,2.76,8.27,3.04,12.58,3.66"/><path class="b" d="M11.72,39.54c4.06.65,7.85,2.51,11.74,3.76,2.98,1.06,6.19,1.52,9.22,2.35,2.25.62,4.49,1.57,6.71,2.28,2.43.57,5.08.72,7.55.33,4.94-.96,8.95-5.54,14.26-4.92,3.14.23,6.12,1.64,9.22,2.01,3.1.36,5.93-1.29,8.39-2.98,1.78-1.17,3.85-2.06,5.87-2.73,3.97-1.56,5.21-1.26,9.22-.34,2.35.29,4.6,1.5,5.87,3.53,1.69,2.55,2.92,5.77,4.19,8.53.96,1.84,2.36,5.56,5.03,4.21,4.06-2.46,8.45-5.39,13.42-4.99,2.32.23,4.51,1.37,6.71,2.07,1.58.51,3.39.59,5.03.78,1.35.15,2.84.51,4.19.59,3.95.18,5.97-4.02,8.39-6.47,3.85-4,8.91-10.01,15.09-7.66,2.57,1.03,4.66,3.11,6.71,4.91,3.18,2.94,7.7,3.15,11.74,3.92"/><path class="b" d="M11.72,39.08c3.17.61,6.1,2.22,9.22,2.99,3.53,1.03,7.26,1.37,10.9,1.75,3.99.2,7.69,2.78,11.74,2.12,5.84-.84,10.57-6.37,16.77-5.13,9.31,1.83,10.84,5.24,20.13-.39,1.54-.81,3.37-1.28,5.03-1.79,1.63-.52,3.34-1.27,5.03-1.59,1.96-.25,4.05.31,5.87.99,2.35.93,3.9,3.3,5.03,5.45,1.63,2.56,3.71,10.55,6.71,10.87.95-.14,1.88-1.01,2.52-1.68,1.37-1.42,2.76-3.15,4.19-4.51,2.2-2.04,5.36-3.42,8.39-2.79,2.2.49,4.05,2.05,5.87,3.28,1.79,1.19,3.85,2.19,5.87,2.94,1.82.7,3.93,1.59,5.87.87,2.47-1.13,4.01-3.74,5.87-5.61,2.8-2.92,5.77-5.91,9.22-8.06,7.78-4.56,10.3,3.29,15.93,6.44,2.61,1.24,5.64,1.46,8.39,2.27"/><path class="b" d="M11.72,38.85c2.28.42,4.5,1.39,6.71,2.06,1.6.42,3.38.67,5.03.78,3.61.25,7.29-.14,10.9-.1,1.96.07,3.94.75,5.87,1.04,2.59.52,5.26-.24,7.55-1.45,8.55-4.66,11.31-3.34,20.13-.54,6.04,2.04,8.87-.17,14.26-2.19,1.32-.44,2.85-.73,4.19-1.09,1.64-.45,3.36-1.13,5.03-1.48,3.64-.72,7.32,1.51,9.22,4.54,1.24,1.88,2.39,4.31,3.35,6.34,1.06,1.89,1.93,4.88,4.19,5.62,1.52-.11,2.52-1.8,3.35-2.89,1.31-1.85,2.63-4.02,4.19-5.67,2.12-2.12,5.37-3.56,8.39-2.94,2.84.81,4.71,3.44,6.71,5.43,2.52,2.43,6.28,6.01,10.06,4.84,2.41-1.05,4-3.5,5.87-5.26,2.84-2.8,6-5.44,9.22-7.79,8.81-6.33,10.23,2,16.77,5.58,2.41,1.05,5.13,1.5,7.55,2.54"/><path class="b" d="M11.72,38.32c2.25.29,4.48,1.07,6.71,1.45,5.33.62,10.67-.6,15.93-1.25,2.78-.23,5.6.6,8.39.49,4.06-.31,7.68-2.74,11.74-3.18,3.09-.36,6.27.27,9.22,1.13,2.99.93,6.03,2.26,9.22,2.21,2.9.03,5.65-1.21,8.39-2,1.89-.55,3.97-.73,5.87-1.23,3.54-1.01,6.71-2.27,10.06.08,4.45,2.97,6.03,8.56,9.22,12.6,2.37,2.87,4.52-.63,5.87-2.6,1.44-2.07,2.96-4.43,5.03-5.93,2.43-1.43,5.5-3.47,8.39-2.28,1.78.92,3.07,2.82,4.19,4.41,1.84,2.67,3.78,5.7,6.71,7.27,4.68,2.47,7.74-3.34,10.9-5.8,2.33-2.05,5.03-3.81,7.55-5.62,2.31-1.5,4.71-3.47,7.55-3.74,4.03.08,6.17,4.36,9.22,6.4,2.5,1.87,5.73,2.5,8.39,4.1"/><path class="b" d="M11.72,37.45c2.22.25,4.48.9,6.71.99,5.72-.09,11.22-1.96,16.77-3.11,3.61-.42,7.36.02,10.9-.93,2.98-.85,6.11-1.4,9.22-1.13,2.51,0,5.13.13,7.55.84,6.08,2.01,9.43,3.3,15.93,1.74,2.46-.56,5.07-.74,7.55-1.17,2.21-.39,4.42-1.59,6.71-1.35,4.08.57,6.85,4.22,9.22,7.26,1.48,1.87,2.91,4.21,5.03,5.42,1.95.96,3.78-.81,5.03-2.13,1-1.08,2.24-2.33,3.35-3.29,1.24-1.08,2.82-2.04,4.19-2.94,1.55-.98,3.19-2.25,5.03-2.6,3.83-.23,5.64,5.33,7.55,7.93,1.74,2.69,4.84,6.58,8.39,4.54,2.19-1.34,3.84-3.59,5.87-5.14,2.25-1.87,4.98-3.21,7.55-4.57,1.66-.89,3.41-1.93,5.03-2.88,1.51-.88,3.24-1.85,5.03-1.92,3.19.11,5.27,3.19,7.55,5.05,2.4,2.32,5.61,3.61,8.39,5.38"/><path class="b" d="M11.72,36.18c2.19.33,4.47.94,6.71.83,4.85-.63,9.63-2.06,14.26-3.64,3.23-1.1,6.71-1.47,10.06-2.01,2.5-.36,5.03-1.08,7.55-1.29,2.23-.17,4.51.42,6.71.7,1.64.12,3.42-.03,5.03.36,2.52.55,5.01,1.58,7.55,2.09,2.45.51,5.05.56,7.55.47,2.77-.15,5.64-.03,8.39-.49,2.47-.55,4.98-1.96,7.55-1.07,5.21,1.51,7.73,7.26,12.58,9.43,2.69,1.29,5.79.68,8.39-.54,1.76-.66,3.56-1.61,5.03-2.78,2.41-1.65,4.49-4.51,7.55-4.87,3.64.45,5.34,6.1,7.55,8.65,1.34,1.74,3.51,3.69,5.87,2.91,2.9-1.22,4.72-4.2,7.55-5.59,3.37-1.95,7.38-2.51,10.9-4.13,1.39-.62,2.87-1.48,4.19-2.23,1.47-.86,3.37-1.62,5.03-.86,2.63,1.35,4.53,3.9,6.71,5.83,1.69,1.63,3.87,2.88,5.87,4.08"/><path class="b" d="M11.72,34.53c6.64,1.9,8.81.44,15.09-1.15,2.55-.68,5.07-1.77,7.55-2.67,3.83-1.2,7.8-2.14,11.74-2.89,2.17-.45,4.49-.79,6.71-.54,1.66.18,3.38.72,5.03.97,1.93.1,3.98-.11,5.87.46,3.57.98,7.22,1.86,10.9,2.27,3.58.36,7.34,1.4,10.9.44,2.28-.87,4.32-1.63,6.71-.57,3.36,1.02,5.54,4.11,8.39,5.97,2.45,1.78,5.6.99,8.39,1.51,2.73.55,5.61,2.28,8.39.97,2.55-1.27,4.52-3.58,6.71-5.34,2.24-1.94,4.54-2.44,6.71-.05,2.22,2.23,3.68,5.67,6.71,6.93,3.69,1.34,6.09-2.76,9.22-3.86,3.44-1.42,7.29-1.4,10.9-2.07,1.73-.32,3.52-.99,5.03-1.89,1.8-.97,3.68-2.78,5.87-2.28,2.05.82,3.56,2.79,5.03,4.37,1.87,2.18,4.04,4.34,6.71,5.5"/><path class="b" d="M11.72,32.68c5.13,1.85,7.54,1.2,12.58-.2,1.92-.54,3.99-.97,5.87-1.64,2.51-.94,5.02-2.1,7.55-2.97,3.48-1.4,7.22-2.18,10.9-2.82,1.62-.24,3.4-.32,5.03-.14,1.65.17,3.38.68,5.03.84,1.35.09,2.85-.08,4.19.12,1.66.22,3.4.68,5.03,1.04,4.23.79,8.37,2.17,12.58,3.04,2.28.45,4.57-.3,6.71-1,2.01-.55,4.12.45,5.87,1.38,2.04,1.29,3.77,3.24,5.87,4.44,2.99,1.85,6.12-.8,9.22-.26,1.86.38,3.49,1.68,5.03,2.71,3.02,2.09,5.93.59,8.39-1.57,3.98-3.33,6.93-6.8,11.74-2.26,1.49,1.19,3.07,2.77,5.03,3.08,2.8.44,4.97-1.93,7.55-2.5,3.85-.69,7.85-.08,11.74-.28,1.68-.05,3.51-.36,5.03-1.1,1.43-.69,2.84-1.81,4.19-2.64,4.8-3.11,7.77,7.62,13.42,9.14"/><path class="b" d="M11.72,30.82c1.84.73,3.87,1.36,5.87,1.35,3.1-.2,6.21-1,9.22-1.72,2.85-.66,5.73-1.47,8.39-2.71,3.25-1.5,6.52-3.17,10.06-3.84,2.44-.62,5.01-1.23,7.55-1.23,1.94-.01,3.95.43,5.87.58,1.34.15,2.85.15,4.19.21,1.66.14,3.41.53,5.03.89,4.33.77,8.27,3.08,12.58,3.85,4.59.36,6.15-2.25,10.9.29,2.94,1.69,5.39,5.69,9.22,4.81,3.18-.99,5.88-3.24,9.22-1.19,2.38,1.38,4.56,3.9,7.55,3.65,3.55-.53,6.16-3.44,9.22-5.07,5.18-3.07,8.45,1.41,13.42,1,1.71-.09,3.35-1.05,5.03-1.28,2.53-.17,5.05.83,7.55,1.09,3.59.29,7.53,1.01,10.9-.6,2.01-.9,3.61-3.02,5.87-3.25,1.42.14,2.5,1.53,3.35,2.55,2.22,2.61,4.08,6.15,7.55,7.25"/><path class="b" d="M11.72,29.01c4.55,1.94,9.6.63,14.26-.24,3.36-.85,6.8-1.74,10.06-2.9,1.93-.8,3.9-1.81,5.87-2.52,1.61-.54,3.41-.91,5.03-1.44,4.31-1.51,8.94-1.66,13.42-.89,3.09.3,6.26.64,9.22,1.62,2.84.89,5.54,2.41,8.39,3.28,2.73.85,5.62.08,8.39-.08,3.4.12,5.18,1.86,7.55,3.98,1.58,1.4,3.83,2.31,5.87,1.35,3.42-1.63,6.25-3.68,10.06-1.58,2.12,1.13,4.24,2.73,6.71,2.92,5.19-.03,9.21-4.35,14.26-5.11,2.46-.45,5.06-.18,7.55-.18,1.93-.02,3.95-.44,5.87-.58,2.94.07,5.53,1.88,8.39,2.4,3.85.51,8.24,1.15,11.74-.92,1.85-.98,3.57-3.34,5.87-2.79,1.4.67,2.46,2.24,3.35,3.45,1.84,2.54,3.75,5.46,6.71,6.78"/><path class="b" d="M11.72,26.91c2.74.53,5.61.78,8.39.32,2.51-.24,5.11-.51,7.55-1.16,3.82-.91,7.29-2.9,10.9-4.36,2.65-1.18,5.6-1.37,8.39-2,4.38-1.23,8.9-2,13.42-1.02,3.68.66,7.48,1.24,10.9,2.81,5.28,2.57,7.52,3.21,13.42,2.84,2.01.08,4.27.44,5.87,1.74,2.92,2.69,5.25,4.94,9.22,2.46,8.39-5.32,9.94.37,17.61.29,2.88-.28,5.69-1.34,8.39-2.33,3.78-1.47,7.73-2.69,11.74-3.32,2.18-.33,4.5-.74,6.71-.48,3.22.77,5.9,3.22,9.22,3.67,2.75.32,5.7.36,8.39-.39,1.5-.47,2.96-1.48,4.19-2.45,6.34-5.47,6.98,4.68,14.26,9.69"/><path class="b" d="M11.72,24.53c3.33.64,6.72.3,10.06.08,3.67-.11,7.53-.27,10.9-1.87,4.37-2.42,7.19-5.52,12.58-5.48,4.99-.62,10.08-1.86,15.09-.66,3.1.65,6.25,1.46,9.22,2.56,2.2.9,4.41,2.08,6.71,2.75,3.52,1.14,7.37.5,10.9,1.56,4.96,1.15,5.71,6.78,11.74,2.96,10.57-7,12.76,2.78,28.51-3.7,2.75-1.07,5.59-2.17,8.39-3.11,2.65-.88,5.6-1.92,8.39-1.08,2.92,1.21,5.28,3.75,8.39,4.56,3.3.67,7,.38,10.06-1.06,2.48-1.05,4.58-4.46,7.55-3.38,2.22,1.27,3.52,3.85,5.03,5.82,1.48,2.04,3.32,4.08,5.03,5.93"/><path class="b" d="M11.72,22.44c3.06.14,6.17-.18,9.22-.2,2.5.12,5.04.65,7.55.64,7.54.1,11.76-8.52,19.29-8.61,4.46-.32,9.05-.47,13.42.68,2.82.71,5.66,1.63,8.39,2.63,2.19.89,4.42,1.99,6.71,2.62,3.26,1,6.8.77,10.06,1.77,5.18.87,6.02,6.88,11.74,2.82,7.06-5.56,11.16-3.62,19.29-3.12,3.87.39,7.57-1.31,10.9-3.11,2.43-1.34,4.98-2.69,7.55-3.76,2.58-1.18,5.73-2.05,8.39-.63,2.61,1.58,4.69,4.13,7.55,5.32,2.91,1.13,6.31.8,9.22-.15,2.76-.84,4.68-3.62,7.55-4.11,3.2.07,4.84,3.64,6.71,5.76,1.56,2,3.49,3.98,5.03,6"/><path class="b" d="M11.72,20.68c4.15-.56,8.47-1.02,12.58.04,3.61.85,7.61,1.07,10.9-.92,4.42-2.14,7.95-6,12.58-7.71,1.88-.52,3.95-.26,5.87-.13,2.52.21,5.11.64,7.55,1.31,2.82.77,5.65,1.77,8.39,2.8,2.18.9,4.42,1.94,6.71,2.56,3.27.96,6.82.8,10.06,1.88,1.48.36,3.04,1,4.19,2.02,2.16,1.86,4.04,3.35,6.71,1.29,5.58-4.53,8.3-6.81,15.93-6.12,2.48.16,5.07,1.02,7.55.41,4.45-1.27,7.84-4.76,11.74-7.07,4.1-2.52,8.59-4.12,12.58-.41,1.87,1.7,3.67,3.74,5.87,5.03,2.74,1.62,6.22,1.65,9.22.84,1.46-.42,2.95-1.29,4.19-2.16,1.21-.84,2.65-1.88,4.19-1.9,3.01.14,4.82,3.2,6.71,5.18,1.63,1.88,3.55,3.79,5.03,5.79"/></svg>