<?xml version="1.0" encoding="UTF-8"?><svg id="a" xmlns="http://www.w3.org/2000/svg" width="1920" height="2400" viewBox="0 0 192 240"><defs><style>.b{fill:none;stroke:#fff;stroke-miterlimit:10;stroke-width:.3px;}.c{stroke-width:0px;}</style></defs><rect class="c" width="192" height="240"/><path class="b" d="M10.96,227.42c2.38-1.17,5.06-1.76,7.62-2.4,2.23-.51,4.52-1.17,6.77-1.57,3.35-.52,6.79.12,10.15-.12,3.08-.04,6.23-.1,9.31-.21,2.26.06,4.57.6,6.77,1.08,4.5,1.17,9.07.99,13.54-.22,2.75-.75,5.65-.82,8.46-.52,2.23.16,4.59.22,6.77.78,3.89,1.07,7.73,2.74,11.85,2.67,1.94.02,4,.11,5.92-.19,1.67-.26,3.42-.81,5.08-1.13,3.67-.61,7.4-1.22,11-2.2,2.21-.53,4.55-.88,6.77-1.37,2.75-.59,5.74-1.02,8.46-.08,9.65,3.61,6.15,11.89,18.62,4.91,3-1.6,6.32-1.09,9.31.26,7.29,2.99,16.59,7.49,23.69,1.82"/><path class="b" d="M10.96,226.75c2.74-2.11,6.02-3.41,9.31-4.38,2.45-.8,5.04-1.53,7.62-1.75,3.92-.28,7.92-.1,11.85.08,1.94.16,4.02-.02,5.92.39,2.33.54,4.56,1.68,6.77,2.55,5.45,2.36,9.86,1.38,15.23-.44,3.82-1.06,7.98-.75,11.85-.1,2.83.54,5.6,1.68,8.46,2.06,3.62.4,7.42.32,11-.33,3.18-.81,6.13-2.51,9.31-3.32,3.87-.97,7.91-1.37,11.85-2.01,5.46-.93,10.29.55,14.39,4.27,1.74,1.52,3.36,4,5.92,3.91,5.96-.88,8.58-5.92,15.23-3.09,2.79,1.07,5.68,2.14,8.46,3.23,5.22,2.17,11.81,4.46,16.92.91"/><path class="b" d="M10.96,225.88c1.93-1.3,3.87-2.83,5.92-3.95,4.23-2,8.84-3.53,13.54-3.81,3.08-.17,6.24-.01,9.31.23,1.95.24,4.08.21,5.92.94,5.14,2.38,9.01,6.7,15.23,5.82,3.54-.35,6.68-2.41,10.15-3,7.68-1.23,15.15,2.79,22.85,1.5,2.27-.28,4.65-.71,6.77-1.6,3.54-1.59,7.11-3.4,11-3.97,8.19-1.3,13.19-2.52,20.31,2.91,2.09,1.3,3.8,3.35,5.92,4.59,1.65.85,3.56.08,5.08-.7,3.28-1.45,6.34-4.04,10.15-2.9,3.66,1.12,7.42,2.17,11,3.54,5.19,2.33,11.25,5.87,16.92,3.06"/><path class="b" d="M10.96,224.44c6.04-2.97,11.75-7.27,18.62-8.1,3.63-.39,7.39-.28,11,.23,3.76.42,5.65,1.49,8.46,3.91,4.87,4.34,9.87,5.66,16.08,3.35,4.01-1.65,7.41-2.96,11.85-2.31,5.58.72,11.39,1.17,16.92-.05,4.38-1.05,8.44-3.23,12.69-4.67,4.09-1.32,8.42-1.98,12.69-2.3,5.62-.35,10.15,3.47,14.39,6.62,1.75,1.24,3.58,3.29,5.92,2.88,3.5-1.06,6.41-4.02,10.15-4.36,2.29-.11,4.56.79,6.77,1.27,2.82.62,5.84.92,8.46,2.23,4.93,2.61,10.16,6.92,16.08,4.94"/><path class="b" d="M10.96,220.24c3.14.23,6.38-.5,9.31-1.6,2.52-1.07,4.94-2.6,7.62-3.28,4.97-1.18,10.35-.96,15.23.52,6.26,2.45,7.15,8.46,16.08,8.2,1.97-.04,4.04-.37,5.92-.95,2.49-.76,4.99-1.91,7.62-2.15,1.95-.23,3.99.19,5.92.4,1.94.23,4.01.13,5.92-.26,3.37-.85,6.92-1.28,10.15-2.61,1.94-.82,3.93-1.84,5.92-2.54,3.01-1.04,6.2-1.75,9.31-2.44,13.76-3.21,14.69-.18,25.39,7.13,2.53,1.79,4.38,1.27,6.77-.47,3.23-1.97,6.33-3.25,10.15-2.19,3.02.79,6.23.7,9.31,1.07,7.56,1.1,10.81,9.98,19.46,8.19"/><path class="b" d="M10.96,212.96c2.96.09,5.64,1.69,8.46,2.37,2.85.63,5.74-.31,8.46-1.1,1.62-.4,3.41-.63,5.08-.7,4.03-.14,8.31.44,11.85,2.48,2.56,1.83,4.65,4.53,7.62,5.76,1.84.76,3.96.89,5.92.86,2.24-.03,4.59-.23,6.77-.75,2.22-.52,4.49-1.29,6.77-1.51,1.97-.27,3.99.4,5.92.66,1.66.24,3.48.1,5.08-.4,2.04-.64,3.99-1.8,5.92-2.68,1.31-.62,2.89-1.04,4.23-1.59,2.55-1.05,4.93-2.74,7.62-3.45,2.18-.6,4.55-.77,6.77-1.16,2.23-.36,4.54-.91,6.77-1.29,5.46-1.11,9.78.48,14.39,3.36,2.5,1.63,4.81,3.8,7.62,4.93,2.14,1,4.2-.37,5.92-1.55,1.25-.73,2.81-1.29,4.23-1.58,2.24-.41,4.56.3,6.77.56,2.22.28,4.55-.07,6.77-.22,9.77-1.04,11.2,11.63,21.16,10.08"/><path class="b" d="M10.96,208.2c2.36-2.25,4.93-2.6,7.62-.68,2.2,1.42,4.34,3.2,6.77,4.22,2.11.95,4.52.72,6.77.77,2.84.07,5.77.44,8.46,1.39,1.39.51,2.98,1.02,4.23,1.83,1.4.98,2.81,2.28,4.23,3.24,2.44,1.75,5.55,2.01,8.46,1.95,2.81-.07,5.7-.34,8.46-.85,1.92-.33,3.97-.65,5.92-.59,3.1.44,6.13,2.17,9.31,1,3.16-1.08,5.61-3.61,8.46-5.24,1.28-.77,2.87-1.25,4.23-1.84,1.65-.85,3.33-1.97,5.08-2.64,2.12-.84,4.52-.95,6.77-1.13,2.24-.18,4.56-.59,6.77-.99,3.08-.65,6.31-.4,9.31.55,1.96.54,4.08,1.01,5.92,1.9,2.99,1.33,5.19,4.3,8.46,5.04,1.82.36,3.6-.61,5.08-1.56,1.49-.87,3.36-1.29,5.08-1.31,2.53.04,5.07.96,7.62.71,2.82-.21,5.61-1.38,8.46-1.25,7.99.5,9.38,13.32,18.62,11.76"/><path class="b" d="M10.96,209.79c3.46-5.18,6.37-12.54,12.69-5.42,2.05,2.13,3.97,4.81,6.77,6,4.01,1.14,8.05,2.37,11.85,4.12,3.26,1.03,5.85,3.78,9.31,4.29,4.21.71,8.49-.1,12.69-.44,2.82-.27,5.84-.4,8.46.83,8.74,4.45,11.92-3.61,18.62-7.04,1.03-.51,2.37-.83,3.39-1.38,1.06-.6,2.29-1.37,3.38-1.91,3.92-1.94,8.49-1.21,12.69-1.87,1.93-.22,4.01-.37,5.92.06,1.39.3,2.84.97,4.23,1.28,2.21.57,4.57-.45,6.77.12,3.57,1.04,6,6.34,10.15,4.66,1.66-.68,3.26-1.92,5.08-2.19,3.11-.51,6.21.78,9.31.6,3.99-.23,7.79-3.03,11.85-1.89,3.58,1.17,5.46,4.89,7.62,7.7,2.17,2.87,5.37,6.09,9.31,5.15"/><path class="b" d="M10.96,211.62c2.61-2.86,7.32-15.48,11.85-13.21,2.93,1.87,4.48,5.38,6.77,7.9,1.98,2.41,5.06,3.55,7.62,5.2,2.38,1.52,4.96,2.82,7.62,3.75,2.36,1.17,4.99,1.86,7.62,1.98,5.62.3,11.48-1.9,16.92.32,2.2.86,4.35,2.3,6.77,2.46,5.96.13,9.21-5.93,13.54-9.04,1.48-1.12,3.39-1.72,5.08-2.43,2.15-1.17,4.28-2.73,6.77-3.06,1.92-.29,3.99-.16,5.92-.1,1.94.08,4,.07,5.92.38,2.39.31,4.53,1.7,6.77,2.48,2.86.81,4.96-2.09,7.62-2.4,3.69.22,5.31,5.91,9.31,4.93,1.13-.45,2.28-1.37,3.38-1.88,3.23-1.43,6.8.24,10.15.04,4.1-.14,7.69-3.13,11.85-2.78,8.29,1.11,9.28,15.39,18.62,13.93"/><path class="b" d="M10.96,211.26c4.06-3.56,7.47-14.45,11.85-15.48,3.22.02,5.05,4.61,6.77,6.86,2.05,3.45,5.44,5.8,8.46,8.32,3.69,3.26,8.74,4.31,13.54,4.6,2.83.14,5.66-.62,8.46-.82,1.37-.03,2.9.1,4.23.41,1.73.5,3.45,1.43,5.08,2.19,3.78,2.13,7.16,2.81,11,.37,3.36-1.97,5.6-5.39,8.46-7.94,1.67-1.53,3.9-2.4,5.92-3.32,2.14-1.21,4.23-2.93,6.77-3.14,2.24-.22,4.58.25,6.77.68,3.28.57,6.41,1.93,9.31,3.55,2.09,1.32,4.01,1.37,5.92-.32,2.16-1.93,4.67-5.09,7.62-2.47,1.35,1.11,2.61,2.72,4.23,3.46,1.52.58,3.03-.52,4.23-1.34.96-.57,2.27-.92,3.38-.9,1.94.09,3.98.45,5.92.36,4.69-.13,8.75-4.02,13.54-3.03,8.08,1.81,9.33,15.09,18.62,13.85"/><path class="b" d="M10.96,209.51c5.1-3.19,8.08-14.81,12.69-15.75,3.29.38,5.05,4.92,6.77,7.36,1.32,2.27,3.19,4.35,5.08,6.15,1.55,1.57,3.21,3.3,5.08,4.49,1.49.98,3.37,1.28,5.08,1.61,3.33.72,6.83.74,10.15-.02,7.03-1.82,8.57,1.68,14.39,4.04,4.33,2.02,9.24-.27,12.69-3.03,2.38-2.05,4.28-4.8,6.77-6.73,2.11-1.59,4.71-2.62,6.77-4.29,2.81-2.3,5.97-2.49,9.31-1.3,3.28,1.01,6.35,2.73,9.31,4.43,4.07,2.18,5.78,3.08,9.31-.65,1.69-1.55,3.34-4.23,5.92-4.01,2.85.59,4.43,4.77,7.62,3.98,1.34-.61,2.71-1.6,4.23-1.71,2.22-.14,4.57.25,6.77-.25,4.26-.87,8.16-4.09,12.69-3.16,8.38,1.45,10.24,14.26,19.46,13.04"/><path class="b" d="M10.96,207.23c5.49-2.46,8.87-15.82,13.54-15.27,2.94,1.21,4.27,4.78,5.92,7.28,1.32,2.43,3.18,4.73,5.08,6.73,1.25,1.38,2.68,2.92,4.23,3.97,2.69,1.88,6.11,2.3,9.31,2.44,3.46.18,6.74-1.37,10.15-1.51,2.31-.01,4.16,1.76,5.92,3.02,1.47,1.15,3.26,2.08,5.08,2.53,2.6.75,5.29-.16,7.62-1.33,2.01-.84,4.21-1.64,5.92-3.03,1.75-1.41,3.37-3.22,5.08-4.68,2.5-1.99,5.24-3.84,7.62-5.99,4.81-4.36,10.84.33,15.23,3.03,2.3,1.49,4.9,2.74,7.62,3.23,2.43.19,4.43-1.7,5.92-3.38,1.5-1.59,2.88-3.87,5.08-4.54,3.43-.44,4.98,4.86,8.46,4,2.84-1.77,6.24-.87,9.31-1.73,3.73-.99,7.04-3.64,11-3.73,4.87-.07,8.59,3.73,11.85,6.88,2.75,2.86,5.91,5.38,10.15,4.75"/><path class="b" d="M10.96,204.78c5.61-2.55,7.82-12.92,12.69-14.58,3.03.1,4.51,4.26,5.92,6.47,1.71,3.39,4.11,6.52,6.77,9.21,2.33,2.29,5.02,4.75,8.46,4.89,2.51.33,5.16.25,7.62-.38,2.22-.52,4.46-1.57,6.77-1.56,2.03.13,3.63,1.75,5.08,3.01,1.42,1.26,3.16,2.43,5.08,2.71,3.4.79,6.43-1.25,9.31-2.74,1.59-.72,3.48-.99,5.08-1.7,1.47-.67,2.94-1.73,4.23-2.69,2.48-1.75,4.76-3.92,6.77-6.19,3.58-4.03,6.64-3.87,11-1.1,3.25,2,6.35,4.62,10.15,5.47,1.63.33,3.4,1.12,5.08.68,3.9-1.24,5.52-5.63,8.46-8.12,3.92-2.89,5.75,4.16,9.31,4.36,1.07-.13,2.32-.51,3.39-.65,1.66-.19,3.47-.26,5.08-.77,2.33-.7,4.53-2.04,6.77-2.96,4.75-2.15,9.43-.73,13.54,2.11,4.15,2.53,8.31,6.45,13.54,5.62"/><path class="b" d="M10.96,202.26c7.21-3.3,10.53-23.31,17.77-7.79,1.51,3.15,3.45,6.29,5.92,8.77,1.79,1.97,3.63,4.18,5.92,5.58,2.69,1.64,8.01,1.07,11,.27,3.27-.71,6.86-3.66,10.15-1.63,1.47.94,2.8,2.39,4.23,3.39,2.5,1.7,5.88,1.4,8.46.04,2.23-1.16,4.23-3.11,6.77-3.59,3.68-.15,6.37.17,9.31-2.59,3.15-2.94,5.73-9.3,11-7.46,3.03,1.1,5.59,3.31,8.46,4.72,2.92,1.35,6.16,2.23,9.31,2.85,4.59.06,6.64-5.07,9.31-8,3.57-4.41,6.08,1.67,8.46,4,1.06,1.07,2.78,1.36,4.23,1.37,6.36.73,9.68-3.11,15.23-4.84,5.42-1.77,10.21,1.19,15.23,2.78,2.99.92,6.12,2.33,9.31,1.7"/><path class="b" d="M10.96,199.69c7.44-4.12,10.57-22.44,17.77-6.07,1.24,2.79,3.12,5.46,5.08,7.78,1.77,2.17,3.58,4.59,5.92,6.18,1.46,1.06,3.32,1.28,5.08,1.12,1.37-.04,2.89-.18,4.23-.44,2.33-.45,4.63-1.38,6.77-2.39,1.56-.69,3.32-1.6,5.08-1.38,2.83.59,4.74,3.39,7.62,3.9,6.15,1.59,8.61-3.4,13.54-5.22,3.26-.55,5.34,2.46,8.46-.63,3.54-3.71,5.82-9.06,11.85-5.89,3.02,1.58,6.08,3.26,9.31,4.41,2.43.9,5,1.9,7.62,1.99,4.61-.5,6.54-5.64,9.31-8.7,4.54-5.07,6.57,5.37,10.15,6.88,2.2,1.41,5.07,1.81,7.62,1.33,2.74-.62,5.15-2.33,7.62-3.59,4.28-2.38,8.76-2.91,13.54-1.92,2.2.42,4.55.24,6.77.45,2.21.26,4.54.84,6.77.38"/><path class="b" d="M10.96,197.17c3.75-2.14,5.7-6.35,8.46-9.5,4.72-6.01,7.18-.02,9.31,4.29,1.3,2.88,3.18,5.7,5.08,8.21,2.06,2.7,4.25,5.88,7.62,7,1.91.43,4.01.03,5.92-.17,3.92-.53,7.55-2.27,11-4.11,4.59-2.69,7.47.65,11.85,1.75,4.95,1.69,8.67-2.84,12.69-4.85,1.28-.64,2.85-.51,4.23-.56,1.96-.11,3.69-1.4,5.08-2.68,1.41-1.27,3.09-2.72,5.08-2.86,3.36-.02,6.36,2.08,9.31,3.46,5.17,2.54,12.3,6.85,16.92,1.17,2.13-2.26,3.56-5.36,5.92-7.39,3.37-2.33,5.78,5.72,7.62,7.68,1.12,1.34,2.63,2.68,4.23,3.42,6.44,2.45,12-3.05,17.77-5.01,3.49-1.38,7.36-1.22,11-1.86,1.63-.42,3.38-.99,5.08-1.04,1.94-.06,4.01.17,5.92-.25"/><path class="b" d="M10.96,194.83c4.01-2.04,6.27-6.28,9.31-9.42,5.41-6.28,7.96,3.63,10.15,7.41,2.4,4.07,4.83,8.5,8.46,11.61,1.69,1.39,3.81,1.74,5.92,1.37,3.49-.32,7-1.22,10.15-2.75,2.64-1.22,4.95-3.25,7.62-4.41,1.62-.71,3.48-.32,5.08.25,3.01.88,6.11,2.77,9.31,1.55,2.82-.96,5.19-3.01,7.62-4.67,1.86-1.31,4.01-2.4,5.92-3.64,4-2.78,7.07-2.05,11,.35,8.27,4.92,16.57,11.88,23.69,1.13,1.81-2.27,4.71-8.24,7.62-3.86,2.01,3.01,3.25,6.81,5.92,9.35,1.97,2.29,4.63,3.2,7.62,2.83,3.89-.6,7.48-2.61,11-4.27,2.4-1.21,5.04-2.09,7.62-2.83,1.66-.5,3.49-.98,5.08-1.68,1.34-.65,2.81-1.5,4.23-2,2.15-.74,4.57-.69,6.77-1.24"/><path class="b" d="M10.96,192.69c5.03-1.86,7.93-6.73,11.85-10.08,4.1-3,6.11,3.89,7.62,6.57,2.51,4.48,6.21,13.36,11,15.32,1.04.38,2.31.25,3.39.12,1.68-.2,3.46-.57,5.08-1.04,4.57-1.13,8.61-3.75,11.85-7.13,2.15-2.29,4.61-2.84,7.62-2.15,1.98.48,3.9,1.55,5.92,1.86,4.43.66,8.06-2.71,11-5.56,2.24-2.13,5.11-4.81,8.46-3.92,2.5.66,4.69,2.31,6.77,3.79,2.44,1.78,4.95,3.67,7.62,5.11,4.61,2.67,9.69,2.7,13.54-1.29,2.21-2.14,3.8-5.02,5.92-7.23,2.76-2.8,4.8,1.63,5.92,3.75,2.2,4.3,5.49,10.29,11,10.2,4.47-.11,8.72-2.15,12.69-4.04,3.03-1.48,6.3-2.6,9.31-4.13,2.45-1,4.55-2.83,6.77-4.23,2.03-1.27,4.49-1.82,6.77-2.45"/><path class="b" d="M10.96,190.47c3.48-1.01,6.75-2.85,9.31-5.43,1.57-1.47,3.02-3.48,5.08-4.28,3.48-.79,5.24,5.26,6.77,7.57,1.67,3.04,3.28,6.43,5.08,9.39,1.65,2.72,4.11,5.52,7.62,4.99,4.16-.41,8.35-1.82,11.85-4.12,2.58-1.75,4.5-4.41,6.77-6.5,2-1.88,4.94-2.62,7.62-2.14,1.95.36,3.93,1.17,5.92,1.31,4.55.39,7.92-3.23,11-6.04,3.88-3.66,7.33-1.52,11,1.1,3.84,2.72,7.45,6.04,11.85,7.84,11.27,4.15,14.96-9.81,19.46-10.03,2.94.79,4.28,5.61,5.92,7.97,2.07,3.09,4.63,6.69,8.46,7.58,5.04.88,10.11-1.71,14.39-4.11,2.53-1.34,5.15-2.72,7.62-4.17,2.77-1.36,5.23-3.36,7.62-5.29,1.97-1.52,4.39-2.55,6.77-3.23"/><path class="b" d="M10.96,188.2c3.2-.77,6.66-1.38,9.31-3.48,4.07-3.08,7.03-8.41,11-1.77,2.85,4.12,4.85,8.94,7.62,13.11,2.34,3.53,5.33,4.13,9.31,3.41,8.02-1.67,10.55-5.95,16.08-10.98,2.11-1.72,4.89-2.72,7.62-2.79,4.17.12,7.97,1.08,11.85-1.18,2-1.06,3.82-2.7,5.92-3.57,3.02-1.16,5.98,1,8.46,2.51,5.75,3.42,12.25,10.46,19.46,7.51,2.6-1.08,4.84-3.05,6.77-5.06,1.77-1.63,4.06-5.21,6.77-3.4,2.6,2.36,3.83,6.05,5.92,8.82,5.57,7.64,11.19,9.32,19.46,4.15,4.68-3.26,9.61-6.27,14.39-9.37,3.06-2.52,6.2-5.28,10.15-6.27"/><path class="b" d="M10.96,185.98c3.09-.6,6.5-.41,9.31-2.04,1.46-.81,2.93-1.96,4.23-3.01,1.6-1.31,3.89-2.98,5.92-1.58,4.7,3.59,6.47,9.67,10.15,14.11,2.65,3.34,7.39,2.9,11,1.59,6.37-2.26,10.12-8.53,16.08-11.45,4.21-2.21,8.96-2.1,13.54-2.74,3.44-.38,6.64-2.58,10.15-2.25,2.09.34,4.07,1.46,5.92,2.41,3.11,1.64,6.18,3.53,9.31,5.15,4.74,2.56,9.08,2.86,13.54-.49,2.07-1.4,3.96-3.27,5.92-4.81,2.87-2.31,4.92-1.04,6.77,1.7,4.09,6.65,10.3,16.55,19.46,13.11,3.45-1.5,6.23-4.32,9.31-6.43,1.62-1.21,3.38-2.53,5.08-3.65,1.32-.88,2.97-1.6,4.23-2.57,3.12-2.39,6.2-5.25,10.15-6.12"/><path class="b" d="M10.96,183.88c3.08-.32,6.39.19,9.31-1.12,1.78-.73,3.51-1.88,5.08-2.98,1.47-1,3.21-2.19,5.08-2,10.66,3.28,7.77,19.87,23.69,12.08,3.33-1.69,6.25-4.18,9.31-6.31,2.32-1.64,4.96-2.97,7.62-3.98,4.02-1.58,8.41-1.97,12.69-2.16,3.39-.19,6.94-.54,10.15.82,5.42,1.86,10.57,4.61,16.08,6.19,5.5,1.52,9.42-1.81,13.54-4.89,1.47-1.05,3.17-2.37,5.08-2.29,3.32.66,4.86,4.42,6.77,6.85,3.57,4.99,9.34,11.04,16.08,8.87,3.16-1.34,5.72-3.94,8.46-5.95,2.18-1.72,4.44-3.56,6.77-5.07,1.3-.86,2.95-1.49,4.23-2.39,3.15-2.17,6.23-4.95,10.15-5.52"/><path class="b" d="M10.96,181.96c3.09.03,6.35.47,9.31-.7,3.8-1.18,6.94-4.41,11-4.73,11.23.54,7.98,16.57,23.69,8.91,6.37-3.06,12.33-7.54,19.46-8.65,3.63-.57,7.37-.19,11,.18,1.93.17,4,.17,5.92.42,2.82.4,5.67,1.09,8.46,1.66,8.51,1.89,13.31,5.51,21.15-.78,2.29-1.44,4.73-3.64,7.62-3.3,2.64.61,4.31,3.2,5.92,5.17,1.7,2.26,3.7,4.53,5.92,6.3,2.96,2.46,7.37,3.96,11,2.13,3.62-2.01,6.88-4.74,10.15-7.25,1.86-1.43,3.85-2.96,5.92-4.07,1.37-.65,2.95-1.3,4.23-2.13,2.84-1.75,5.85-3.83,9.31-3.87"/><path class="b" d="M10.96,180.2c4.31.49,7.89.05,11.85-1.74,4.26-1.85,8.75-4.13,13.54-3.21,2.06.38,3.65,2.1,5.08,3.51,4.61,5.25,8.29,4.87,14.39,2.53,3.35-1.28,6.75-2.63,10.15-3.77,2.17-.75,4.44-1.63,6.77-1.67,4.9-.19,9.55,1.88,14.39,2.26,4.49.17,9.05-.23,13.54-.05,2.83.17,5.67.86,8.46,1.26,3.54.62,7.31-.08,10.15-2.35,5.31-3.6,9.2-6.76,14.39-.81,10.21,11.79,14.55,9.84,26.23,1.34,2.16-1.55,4.4-3.22,6.77-4.44,1.29-.68,2.9-1.04,4.23-1.63,3.18-1.39,6.58-3.11,10.15-2.58"/><path class="b" d="M10.96,178.38c3.45.28,6.88-.48,10.15-1.48,3.91-1.1,7.84-2.41,11.85-3.16,1.65-.26,3.41-.69,5.08-.8,1.16,0,2.42.51,3.39,1.12,5.44,4.14,7.49,5.2,14.39,3.63,3.07-.68,6.23-1.29,9.31-1.94,2.22-.43,4.47-1.38,6.77-1.22,5.29.36,10.1,3.03,15.23,4.09,4.54.82,9.1-.56,13.54-1.33,3.37-.43,6.79.38,10.15.52,2.65.14,5.43-.49,7.62-2.03,5.54-3.84,10.05-7.73,16.08-2.05,2.88,2.44,6.12,5.54,10.15,5.4,7.32-1.02,13.09-6.31,19.46-9.61,1.01-.52,2.28-1.06,3.38-1.35,1.34-.28,2.89-.38,4.23-.69,3.02-.63,6.27-1.42,9.31-.47"/><path class="b" d="M10.96,176.1c3.14-.22,6.22-1.17,9.31-1.66,3.94-.47,7.96-.8,11.85-1.66,1.69-.32,3.48-.79,5.08-1.44,1.56-.69,3.39-1.24,5.08-.69,2.3.85,4.37,2.48,6.77,3.11,3.84,1.06,7.93.46,11.85.35,1.95-.13,4.01-.3,5.92-.69,1.35-.3,2.83-.77,4.23-.73,3.76.15,7.5,1.28,11,2.62,2.76,1.11,5.49,2.65,8.46,3.14,2.23.34,4.62.11,6.77-.55,1.65-.5,3.36-1.28,5.08-1.51,3.07-.44,6.23.24,9.31.19,6.41.29,10.23-6.04,16.08-7.53,5.44-1.46,9.25,4.19,14.39,4.73,7.74.61,16.91-8.53,24.54-8.96,1.94-.03,3.98.39,5.92.22,2.8-.15,5.82-.55,8.46.65"/><path class="b" d="M10.96,173.18c3.01-.78,6.18-1.45,9.31-1.4,3.64.21,7.36.69,11,.17,2.02-.24,4.13-.71,5.92-1.7,2.05-1.11,4.31-2.84,6.77-2.05,2.25.69,4.46,1.82,6.77,2.35,3.58.81,7.33,1.13,11,1.16,1.66,0,3.45-.14,5.08-.49,1.07-.24,2.3-.67,3.38-.81,3.99-.35,8.12.61,11.85,2,2.94,1.18,5.6,3.12,8.46,4.47,2.36,1.14,5.17,1.13,7.62.26,1.63-.59,3.33-1.47,5.08-1.67,4.2-.53,8.62.96,12.69-.61,5.51-2.31,9.58-8.51,16.08-8.19,2.65.19,5.04,1.74,7.62,2.27,3.16.84,6.42-.16,9.31-1.45,5.62-2.28,11.47-6.26,17.77-4.5,1.63.44,3.37,1.12,5.08,1.15,3.09.11,6.44-1.05,9.31.59"/><path class="b" d="M10.96,170.18c2.99-.87,6.23-.94,9.31-.6,4.99.7,10.25,2.35,15.23.77,2.14-.77,3.93-2.42,5.92-3.46,2.71-1.33,5.74.13,8.46.71,3.86.96,7.86,1.61,11.85,1.61,1.66,0,3.46-.15,5.08-.54,1.35-.35,2.82-.91,4.23-1.01,4.34-.23,8.83.69,12.69,2.68,2.97,1.5,5.53,3.85,8.46,5.41,4.31,2.19,6.95-.85,11-1.4,4.21-.36,8.62,1.23,12.69-.47,5.92-2.55,10.08-9.06,16.92-9.47,2.84-.01,5.61,1.25,8.46,1.18,5.67-.07,10.55-3.78,16.08-4.64,5.1-1.05,8.17,1.82,12.69,2.96,3.67.84,7.58-2.21,11-.05"/><path class="b" d="M10.96,167.42c1.9-.5,3.98-.45,5.92-.25,2.82.19,5.69.68,8.46,1.25,3.56.65,7.47,1.85,11,.5,2.39-.97,4.31-3.04,6.77-3.85,2.76-.75,5.7,0,8.46.42,2.78.44,5.65.74,8.46.85,1.94.07,4.01.03,5.92-.33,1.38-.24,2.84-.85,4.23-1.07,3.71-.37,7.52.55,11,1.78,3.43,1.27,6.47,3.51,9.31,5.76,2.09,1.72,4.94,3.19,7.62,1.91,1.34-.6,2.75-1.49,4.23-1.68,3.92-.47,7.98.96,11.85-.28,6.77-2.07,11.43-8.75,18.62-9.85,3.08-.26,6.21.79,9.31.3,5.68-.73,11.06-4.32,16.92-3.14,3.22.75,6.15,2.57,9.31,3.5,1.89.6,4.03.39,5.92-.12,2.18-.57,4.78-1.41,6.77.1"/><path class="b" d="M10.96,165.01c2.24-.34,4.55.26,6.77.53,2.5.27,5.11.27,7.62.52,3.63.24,7.39,1.83,11,.8,1.81-.6,3.46-1.84,5.08-2.81,4.02-2.7,9.04-1.48,13.54-1.15,3.07.29,6.23.67,9.31.39,2.28-.11,4.48-1.3,6.77-1.23,2.28.17,4.57.89,6.77,1.47,3.91,1.06,7.77,2.66,11,5.15,2.66,1.9,5.74,5.64,9.31,3.67,1.51-.96,3.23-1.96,5.08-1.93,2.8-.01,5.71.37,8.46-.34,3.32-.75,6.38-2.44,9.31-4.11,3.75-1.92,7.63-4.03,11.85-4.61,1.65-.18,3.43.13,5.08.14,1.96-.01,4.03-.28,5.92-.76,8.35-2.35,11.11-3.24,19.46.26,9.77,4.41,12.79-1.53,17.77,1.88"/><path class="b" d="M10.96,163.28c2.84.16,5.58,1.53,8.46,1.31,2.53-.11,5.08-.83,7.62-.93,2.24-.11,4.54.31,6.77.48,5.07.42,8.58-4.53,13.54-4.73,6.49-.68,13.03,2.12,19.46.48,3.38-1.21,5.33-.48,8.46.9,2.74,1.18,5.67,2.1,8.46,3.14,2.08.77,4.16,1.91,5.92,3.26,2.02,1.38,4.07,3.95,6.77,3.42.85-.25,1.83-.97,2.54-1.48,1.46-1.04,3.36-1.11,5.08-1.01,1.37,0,2.9-.17,4.23-.48,4.4-1.05,8.48-3.2,12.69-4.76,3-.97,6.18-1.66,9.31-2.06,3.07-.45,6.26.26,9.31-.44,4.49-.86,8.89-2.76,13.54-2.57,5.21.27,10.06,2.73,15.23,3.25,4.21.47,9.1-1.72,12.69,1.33"/><path class="b" d="M10.96,162.01c2.24.58,4.42,1.8,6.77,1.89,4.74.02,8.73-3.67,13.54-3.38,10.31,1.25,10.07-4.61,19.46-4.39,3.97.09,7.88,1.32,11.85,1.4,1.37.02,2.89-.14,4.23-.44,1.34-.33,2.85-.8,4.23-.41,3.35,1.02,6.09,3.53,9.31,4.85,2.18,1,4.61,1.62,6.77,2.66,2.07.97,3.92,2.55,5.92,3.63,2.9,1.56,4.21-1.4,6.77-1.92,1.06-.12,2.33-.06,3.38-.22,3.32-.51,6.26-2.4,9.31-3.68,6.87-2.89,9.64-2.93,16.92-1.98,2.21.22,4.55.42,6.77.18,1.39-.21,2.9-.68,4.23-1.11,3.28-1.08,6.69-2.08,10.15-2.28,5.12-.12,10.22,1.01,15.23,1.92,5.09.9,11.1-.87,15.23,3.06"/><path class="b" d="M10.96,160.53c2.62,1.23,5.47,2.93,8.46,2.11,3.72-.94,6.51-4.01,10.15-5.13,2.74-.87,5.69.06,8.46-.5,2.08-.38,4.05-1.46,5.92-2.4,3.95-1.87,8.5-1.86,12.69-.87,3.86.92,7.92,1.63,11.85.69,4.34-.73,7.63,3.02,11,5.13,3.61,2.45,7.97,3.56,11.85,5.5,3.99,1.63,4.28-1.91,8.46-1.66,3.51,0,6.39-2.43,9.31-4.07,3.31-1.9,7.15-3.29,11-3.29,2.37.24,4.61,1.39,6.77,2.31,5.46,2.56,9.22,1.18,14.39-1.14,3.73-1.52,7.85-2,11.85-1.99,4.56-.18,9.05,1.02,13.54,1.58,5.42.24,10.08.51,14.39,4.32"/><path class="b" d="M10.96,158.06c7.5,4.95,9.76,2.31,16.08-2.4,1.7-1.21,3.8-2.14,5.92-2.01,2.22.16,4.55.72,6.77.24,2.08-.39,3.97-1.62,5.92-2.37,2.65-1.06,5.62-1.57,8.46-1.21,3.45.41,6.74,1.81,10.15,2.37,2.77.56,5.77-.19,8.46.83,3.37,1.27,6.24,3.66,9.31,5.48,2.57,1.53,5.5,2.66,8.46,3.12,1.8.35,3.42-.8,5.08-1.24,1.92-.44,4.09.1,5.92-.8,2.35-1.06,4.46-2.77,6.77-3.92,3.38-1.73,7.22-2.61,11-2.76,4.39.5,7.35,4.94,11.85,5.15,1.38.11,2.88-.31,4.23-.52,1.68-.22,3.51-.49,5.08-1.16,1.39-.62,2.83-1.57,4.23-2.16,1.57-.64,3.39-1.01,5.08-1.19,4.8-.56,9.64.34,14.39,1,7.07.65,11.02,1.28,16.92,5.75"/><path class="b" d="M10.96,154.41c7.76,5.18,9.52,2.4,16.08-2.38,1.93-1.4,4.42-2.18,6.77-1.48,4.52,1.48,6.73,1.52,11-.64,7.38-3.3,11.41-2.56,18.62.43,3.49,1.48,7.4,1.46,11,2.56,3.76,1.17,7.22,3.32,11,4.43,1.33.35,2.85.63,4.23.54,1.37-.17,2.85-.64,4.23-.72,2.24-.12,4.62.68,6.77-.31,1.95-.78,3.9-1.87,5.92-2.45,3.85-1.08,7.88-1.66,11.85-2.08,3.2-.33,5.68,2.34,8.46,3.45,1.84.8,4.02.49,5.92,1.07,2.73.84,5.77,1.51,8.46.19,1.18-.51,2.38-1.45,3.38-2.23,1.23-.88,2.78-1.63,4.23-2.06,4.11-1.18,8.51-.69,12.69-.22,2.52.3,5.14.62,7.62,1.2,4.2,1.15,8.2,3.13,11.85,5.49"/><path class="b" d="M10.96,150.5c2.43.9,4.9,2.67,7.62,2.15,4.12-.79,6.93-4.63,11-5.5,2.12-.39,4.1.79,5.92,1.68,2.66,1.33,5.83,1.3,8.46-.07,2.71-1.16,5.53-2.38,8.46-2.83,5.26-.98,9.77,1.7,14.39,3.72,3.21,1.25,6.77,1.44,10.15,1.85,1.65.18,3.43.33,5.08.56,1.65.26,3.4.69,5.08.73,1.65.06,3.43-.07,5.08,0,1.38.03,2.88.39,4.23.6,2.24.28,4.54-.39,6.77-.45,2.8.07,5.67.06,8.46-.18,2.82.02,5.67-.59,8.46-.76,1.4.08,2.89.58,4.23.96,1.03.31,2.33.4,3.38.62,3.29.82,5.83,3.76,9.31,3.95,5.87.33,7.85-3.99,12.69-5.76,4.04-1.46,8.5-1.21,12.69-.69,3.5.38,6.92,1.5,10.15,2.86,2.87,1.11,5.78,2.38,8.46,3.9"/><path class="b" d="M10.96,147.23c2.24.22,4.49,1.22,6.77,1.04,4.74-.27,8.7-5.83,13.54-3.7,2.47,1.28,4.76,3.31,7.62,3.66,6.75.67,12.13-7.19,22.85-2.95,1.98.77,3.94,1.89,5.92,2.66,3.79,1.4,7.93.55,11.85.35,3.65-.1,7.34.44,11,.39,2.22.13,4.57.02,6.77.37,2.04.42,4.05,1.33,5.92,2.22,1.54.79,3.38,1.08,5.08,1.27,1.92.3,3.99.47,5.92.26,2.57-.23,5.07-1.23,7.62-1.57,2.65-.51,4.44-.63,6.77,1.02,4.75,3.58,6.36,5.33,12.69,3.47,1.88-.6,3.56-1.92,5.08-3.13,1.49-1.12,3.29-2.08,5.08-2.63,6.46-1.91,13.42-.37,19.46,2.24,3.4,1.21,6.93,2.3,10.15,3.95"/><path class="b" d="M10.96,144.64c2.22-.27,4.55.08,6.77-.21,4.25-.39,8.46-4.6,12.69-2.06,3.58,2.09,6.48,5.01,11,3.95,8.33-2.52,13.02-6.61,22-2.14,3.07,1.61,5.71,3.07,9.31,2.4,2.5-.4,5.08-.88,7.62-.9,2.51-.12,5.12.16,7.62-.26,9.09-1.23,8.52-1.68,15.23,4.47,6.23,3.94,11.47,2.46,17.77-.24,2.28-1.2,4.82-.68,6.77.9,4.14,3.43,6.12,5.31,11.85,3.97,4.26-.77,6.94-4.76,11-6.04,6.42-2.3,13.43-.47,19.46,2.15,3.64,1.22,7.49,2.02,11,3.62"/><path class="b" d="M10.96,142.46c2.77-.6,5.7-.6,8.46-1.24,4.26-1.13,6.89-2.58,11,.05,2.56,1.53,5.27,3.79,8.46,3.23,6.24-1.17,12.04-5.43,18.62-4.28,2.39.38,4.71,1.46,6.77,2.7,1.81,1.05,3.74,2.45,5.92,2.4,2.02-.04,3.97-.99,5.92-1.4,3.06-.47,6.22-.62,9.31-.73,3.42-.16,6.69-2.05,10.15-1.58,2.47.45,4.24,2.61,5.92,4.3,1.63,1.7,3.7,3.2,5.92,4.01,5.54,1.93,10.59-3.22,16.08-2.51,4.63,1.47,7.02,6.25,12.69,5.69,2.35-.18,4.8-.85,6.77-2.18,1.59-1.19,3.27-2.57,5.08-3.43,7.05-3.43,15.18-1.24,22,1.71,3.6,1.14,7.45,1.67,11,2.99"/><path class="b" d="M10.96,140.46c2.77-.63,5.68-.92,8.46-1.49,4.53-1.24,7-1.42,11,1.34,2.21,1.5,4.78,3.41,7.62,2.65,2.06-.56,3.97-1.83,5.92-2.64,3.96-1.69,8.34-3.19,12.69-2.44,3.13.52,5.91,2.3,8.46,4.08,4.69,3.52,6.31,1.24,11-.11,3.88-.82,7.91-.93,11.85-1.26,2.78-.38,5.64-1.67,8.46-.9,3.05,1,4.96,3.96,7.62,5.6,2.19,1.53,4.93,2.46,7.62,1.94,3.07-.51,6.16-1.69,9.31-1.46,2.21.21,4.1,1.69,5.92,2.82,2.03,1.25,4.38,2.29,6.77,2.53,2.89.17,5.9-.56,8.46-1.88,1.93-1.14,3.83-2.61,5.92-3.45,4.78-2.02,10.27-1.94,15.23-.63,2.3.58,4.54,1.67,6.77,2.45,3.56,1.1,7.37,1.39,11,2.2"/><path class="b" d="M10.96,138.58c2.51-.51,5.1-1.04,7.62-1.5,2.47-.58,5.15-1.34,7.62-.33,2.85,1.02,4.95,3.49,7.62,4.83,3.37,1.7,6.62-1,9.31-2.79,15.93-10.16,20.38,4.99,27.08,3.34,1.73-.46,3.36-1.55,5.08-2.03,4.66-1.36,9.56-1.61,14.39-1.64,8.13-.97,7.92-.31,14.39,4.17,2.02,1.21,4.39,2.07,6.77,1.98,12.96-1.2,9.38,1.66,19.46,4.1,4.92,1.19,10.06-.4,14.39-2.79,3.14-1.62,6.63-2.71,10.15-3.07,2.8-.29,5.74-.12,8.46.6,2.3.57,4.53,1.68,6.77,2.45,3.53,1.11,7.33,1.27,11,1.32"/><path class="b" d="M10.96,136.8c2.52-.54,5.09-1.21,7.62-1.74,1.35-.32,2.83-.79,4.23-.81,3.87-.06,6.55,3.13,9.31,5.38,2.87,2.44,5.6,2.04,8.46-.1,8.61-6.97,12.49-9.53,22-1.88,3.94,3.05,5.54,3.83,10.15,1.47,2.96-1.16,6.16-1.85,9.31-2.25,3.35-.41,6.8-.29,10.15-.03,1.65.05,3.45,0,5.08.34,3.98.85,7.04,4.06,11,4.98,2.47.65,5.14.61,7.62,1.19,3.16.67,6.18,2.03,9.31,2.8,3.03.6,6.22.97,9.31.94,5.57-.59,10.7-3.18,16.08-4.56,3.83-1,7.9-1.85,11.85-1.09,2.33.44,4.59,1.47,6.77,2.36,3.74,1.49,7.93,1.67,11.85.81"/><path class="b" d="M10.96,135c2.52-.62,5.09-1.36,7.62-1.95,2.15-.63,4.61-1.26,6.77-.33,4.49,1.82,7.1,9.18,12.69,7.49,4.07-1.61,6.58-5.6,10.15-7.97,1.96-1.36,4.54-1.91,6.77-.88,4.27,1.76,7.26,6.05,11.85,7.12,1.72.28,3.47-.52,5.08-1.01,2.19-.65,4.52-1.19,6.77-1.6,6.16-1.14,12.48-.7,18.62.35,3.66.58,6.81,2.75,10.15,4.19,1.87.8,3.98,1.29,5.92,1.86,1.92.58,3.94,1.29,5.92,1.63,3.04.64,6.22.7,9.31.77,2.22.06,4.55.46,6.77.21,5.96-1.15,11.87-2.75,17.77-4.19,3.83-.99,7.97-2.09,11.85-.7,6.03,2.35,9.39,4.55,16.08,1.98"/><path class="b" d="M10.96,133.11c3.35-.94,6.77-1.9,10.15-2.7,3.68-1.01,6.28,1.5,8.46,4.09,1.99,2.18,4.32,5.23,7.62,4.88,5.94-1.14,8.17-8.17,13.54-10.33,5.95-1.7,9.83,9.06,18.62,6.97,5.03-.72,10.14-1.66,15.23-1.23,2.8.14,5.7,0,8.46.49,2.51.41,5.17.57,7.62,1.33,2.66.8,5.13,2.29,7.62,3.49,2.4,1.13,5,2.09,7.62,2.55,3.35.56,6.8-.17,10.15-.31,2.52-.18,5.11.26,7.62.45,3.14.08,6.24-.96,9.31-1.46,4.53-.81,9.12-1.58,13.54-2.86,3.28-1.02,6.91-1.72,10.15-.21,5.61,2.55,8.27,3.89,14.39,1.27"/><path class="b" d="M10.96,131.2c2.5-.75,5.09-1.48,7.62-2.1,1.62-.43,3.38-1.03,5.08-.8,4.61,1.05,6.32,6.44,10.15,8.76,5.25,3.08,9.59-3.08,12.69-6.53,6.06-7.02,7.94-1.85,13.54,1.79,2.26,1.39,5.04,1.46,7.62,1.49,1.94.03,3.98.3,5.92.33,2.22.05,4.55-.03,6.77.2,1.97.17,3.97.79,5.92,1.05,1.93.24,3.99.24,5.92.43,2.79.45,5.69.66,8.46,1.22,4.69.97,8.63,4.51,13.54,4.61,4.32.12,8.36-2.14,12.69-2.04,2.55-.1,5.09.75,7.62.94,2.25.04,4.56-.52,6.77-.89,4.49-.85,9.07-1.46,13.54-2.36,3.11-.57,6.11-2.1,9.31-2.11,2.06.06,4.07,1,5.92,1.83,4.05,2.02,6.8,1.6,11,.26"/><path class="b" d="M10.96,129.19c3.05-.94,6.21-1.76,9.31-2.5,3.7-1.09,6.24.94,8.46,3.65,4.15,5.33,7.72,8.13,13.54,2.88,2.63-2.33,4.57-5.61,7.62-7.46,4.41-2.3,7.18,5.8,12.69,5.51,1.65.01,3.45-.17,5.08.21,1.96.52,3.93,1.43,5.92,1.81,1.92.42,4.01.5,5.92.97,2.55.56,5.04,1.66,7.62,2.12,1.63.28,3.43.31,5.08.46,1.64.23,3.42.5,5.08.6,3.49.15,6.92,1.06,10.15,2.35,7.9,3.15,12.56-3.97,20.31-3.16,2.58.12,5.06,1.28,7.62,1.51,5.42-.06,10.72-1.76,16.08-2.39,3.74-.36,7.46-1.14,11-2.38,4.78-1.67,8.23,1.58,12.69,2.24,1.93.25,3.99-.13,5.92-.21"/><path class="b" d="M10.96,127.18c2.21-.64,4.52-1.31,6.77-1.8,1.9-.41,4.01-.92,5.92-.32,3.24,1.17,5.19,4.37,7.62,6.63,2.83,2.84,6.17,2.81,9.31.51,3.43-2.31,5.66-6.22,9.31-8.22,2.3-.99,4.33,1.08,5.92,2.47,6.02,5.72,8.18-.34,14.39,4.75,1.26.89,2.76,1.77,4.23,2.25,1.05.34,2.34.54,3.38.89,3.06,1.04,6.11,2.41,9.31,2.94,2.78.37,5.67.42,8.46.69,3.39.09,6.85.33,10.15,1.18,8.84,2.58,12.75-6.04,21.16-5.66,2.29.08,4.62.73,6.77,1.48,4.11,1.51,8.56.09,12.69-.61,3.89-.86,7.92-1.09,11.85-1.71,3.11-.51,6.1-2.19,9.31-1.95,2.35.12,4.56,1.32,6.77,2,2.16.72,4.54.94,6.77,1.37"/><path class="b" d="M10.96,125.53c4.08-.89,8.55-3.1,12.69-1.44,4.65,2,7.71,9.05,13.54,7.23,4.45-1.53,7.25-5.71,11-8.31,1.98-1.49,4.1-1.04,5.92.43,2.51,2.04,5.01,4.1,8.46,3.67,1.39-.1,2.97-.08,4.23.58,2.59,1.53,4.16,4.49,6.77,6.02,1.25.76,2.89.97,4.23,1.51,3.47,1.49,7.19,2.59,11,2.54,4.21.06,8.49-.07,12.69.22,3.68.41,7.66,1,11-1.02,5.7-3.41,9.6-7.67,16.92-6.39,2.87.36,5.59,1.73,8.46,2.05,4.53.3,9.05-.89,13.54-1.35,3.09-.41,6.28-.66,9.31-1.42,3.54-.94,7.43-2.35,11-.77,3.07,1.28,6.13,2.78,9.31,3.77"/><path class="b" d="M10.96,124.91c2.8-.65,5.6-1.72,8.46-2.05,1.76-.09,3.58.54,5.08,1.44,2,1.21,3.85,2.9,5.92,4,3.04,1.78,6.59.88,9.31-1.06,3.35-2.01,7.78-7.78,11.85-6.74,2.18.62,3.98,2.27,5.92,3.35,1.26.71,2.8,1.21,4.23,1.4,2.1.21,4.43.58,5.92,2.22,2.35,2.44,3.72,6.1,6.77,7.82,1.6.59,3.46.75,5.08,1.33,2.71.87,5.64,1.03,8.46.79,3.92-.3,7.91-.62,11.85-.55,4.61.22,8.75.42,12.69-2.43,6.26-4.63,10.27-8.03,18.62-6.78,3.37.43,6.73,1.48,10.15,1.53,4.5-.02,9.08.38,13.54-.43,3.14-.48,6.24-1.48,9.31-2.29,2.75-.67,5.84-1.26,8.46.15,2.84,1.33,5.43,3.39,8.46,4.3"/><path class="b" d="M10.96,125.64c2.89-.45,5.6-1.92,8.46-2.42,3.69-.26,6.74,2.34,10.15,3.28,3.19.96,6.55-.2,9.31-1.83,4.19-2.22,8.35-7.32,13.54-5.23,2.28.91,4.42,2.39,6.77,3.16,2.2.79,4.77.87,6.77,2.17,3.81,2.79,4.47,8.51,8.46,11.11,1.29.53,2.88.35,4.23.65,2.76.59,5.67.73,8.46.26,3.64-.52,7.33-1.13,11-1.36,4.84-.17,9.48-.37,13.54-3.37,1.97-1.33,3.9-2.98,5.92-4.23,2.06-1.2,4.42-2.14,6.77-2.56,3.33-.58,6.8-.3,10.15-.1,3.66.28,7.39.58,11,1.21,3.6.85,7.44,1.05,11-.1,3.64-1.1,7.19-2.79,11-3.28,1.99-.48,4.16-.11,5.92.94,2.46,1.34,4.79,3.27,7.62,3.76"/><path class="b" d="M10.96,127.06c3.01-.36,5.66-2.03,8.46-3.01,3.38-.74,6.77.8,10.15.72,2.97,0,5.82-1.19,8.46-2.44,4.28-1.92,8.54-5.73,13.54-4.28,2.55.69,5.02,1.95,7.62,2.48,2.23.53,4.78.45,6.77,1.72,4.05,3.1,4.52,9.22,8.46,12.42,1.24.68,2.88.47,4.23.75,2.2.4,4.53.8,6.77.5,3.99-.41,7.92-1.49,11.85-2.21,4.04-.68,8.25-1.32,11.85-3.41,2.6-1.43,5-3.4,7.62-4.8,1.82-.93,3.93-1.5,5.92-1.88,3.05-.51,6.23-.41,9.31-.42,4.52-.12,9.14-.03,13.54,1.14,4.05,1.21,7.95,1.23,11.85-.58,3.27-1.48,6.57-3.17,10.15-3.76,1.95-.55,4.12-.37,5.92.58,2.38,1.21,4.85,2.74,7.62,2.63"/><path class="b" d="M10.96,128.17c1.73-.32,3.52-.97,5.08-1.78,1.62-.85,3.27-1.99,5.08-2.42,2.46-.63,5.11-.64,7.62-1.02,2.29-.33,4.61-1.02,6.77-1.86,3.41-1.22,6.69-2.99,10.15-4.04,2.19-.61,4.58-.46,6.77.07,2.74.72,5.62,1.27,8.46,1.16,1.98-.04,4.26-.14,5.92,1.12,3.79,3.3,4.24,9.5,8.46,12.36,3.1.66,6.12,2.13,9.31,2.29,4.08.16,8.05-1.12,11.85-2.47,3.4-1.1,6.91-2.12,10.15-3.64,5.69-2.72,9.38-5.78,16.08-5.78,3.08-.11,6.23.04,9.31.02,3.94-.17,7.97-.29,11.85.59,4.46,1.15,8.51,1.22,12.69-.98,3.54-1.83,7.04-4,11-4.82,5.5-1.63,7.67,2.67,13.54,1.59"/><path class="b" d="M10.96,128.35c4.4-.9,7.69-4.28,11.85-5.75,3-1.09,6.24-1.6,9.31-2.45,3.42-.95,6.8-2.23,10.15-3.38,2.68-1.01,5.6-1.57,8.46-1.25,3.65.43,7.39.63,11-.18,4.38-.99,6.39.44,8.46,4.19,1.75,2.73,2.8,6.74,5.92,8.21,2.92.79,5.5,2.69,8.46,3.3,3.79.78,7.64-.38,11-2.1,2.49-1.11,5.1-2.2,7.62-3.26,5.14-2.15,10.42-4.51,16.08-4.68,3.94-.2,7.92.33,11.85.46,3.08.1,6.24-.2,9.31.14,5.81.76,8.86,1.47,14.39-1.49,4.1-2.2,8.05-5,12.69-5.92,5.55-1.22,6.72,2.8,13.54,1.38"/><path class="b" d="M10.96,127.55c4.73-1.36,8.22-5.17,12.69-7.04,4.32-1.79,9.11-2.15,13.54-3.61,3.63-1.05,7.22-2.57,11-2.99,2.78-.33,5.68-.09,8.46-.42,2.28-.24,4.55-.99,6.77-1.54,7.47-2.04,8.07,8.28,12.69,11.58,1.33.65,2.9,1.15,4.23,1.78,1.61.77,3.32,1.72,5.08,2.12,4.04,1.06,7.47-.56,11-2.31,2.99-1.36,6.16-2.54,9.31-3.48,5.18-1.59,10.66-2.35,16.08-2.02,3.1.16,6.22.82,9.31,1.14,2.5.29,5.11.21,7.62.33,6.12.38,8.89.46,14.39-2.82,21.13-13.23,16.57-.98,27.92-3.24"/><path class="b" d="M10.96,126.08c3.09-1.23,5.77-3.39,8.46-5.29,4.44-3.39,9.07-3.85,14.39-4.55,5.26-.76,10.04-3.43,15.23-4.45,3.06-.6,6.27-.58,9.31-1.3,2.55-.54,5.02-1.77,7.62-2.1,5.23-.44,6.7,6.36,9.31,9.69.95,1.47,2.62,2.39,4.23,2.95,3.02,1.15,5.98,3,9.31,2.95,2.67.03,5.2-1.17,7.62-2.16,2.74-1.12,5.6-2.22,8.46-2.99,6.32-1.79,13.01-1.33,19.46-.62,4.21.63,8.41,1.79,12.69,1.71,3.12-.02,6.41-.24,9.31-1.47,7.16-3.4,14.37-10.02,22.85-7.36,4.48,2,6.16,5.63,11.85,3.81"/><path class="b" d="M10.96,124.2c5.39-2.85,9.75-8.07,16.08-8.89,3.06-.47,6.27-.13,9.31-.82,4.11-1.05,7.89-3.24,11.85-4.73,2.42-.87,5.08-1.14,7.62-1.52,2.29-.33,4.62-.99,6.77-1.84,2.14-.77,4.44-1.93,6.77-1.63,3.1.95,4.36,4.64,5.92,7.17,1.59,3.1,3.37,4.84,6.77,5.79,3.5,1.14,7.33,2.67,11,1.36,5.45-2.06,10.95-4.86,16.92-4.68,2.54.05,5.12.61,7.62,1,2.78.36,5.67.53,8.46.84,4.48.46,9.14,1.27,13.54-.07,11.22-2.97,17-11.7,29.62-5.8,4.22,2.42,6.32,6.03,11.85,4.01"/><path class="b" d="M10.96,122.06c4.66-2.86,8.94-6.8,14.39-8.12,2.47-.61,5.1-.38,7.62-.32,3.19-.02,6.35-1.11,9.31-2.22,2.92-1.29,5.45-3.5,8.46-4.59,2.98-1.1,6.28-1.07,9.31-1.98,2.02-.58,4.04-1.51,5.92-2.42,2.05-.9,4.59-2.6,6.77-1.17,3.44,2.76,4.25,7.83,7.62,10.67,1.42,1.13,3.32,1.66,5.08,1.97,1.63.3,3.41.6,5.08.58,2.68-.05,5.14-1.49,7.62-2.36,4.85-2.02,9.37-2.84,14.39-.82,1.91.68,3.91,1.52,5.92,1.87,5.58.81,11.4.66,16.92-.48,3.22-.92,6.24-2.6,9.31-3.93,4.91-2.43,10.58-4.65,16.08-3.02,2.99.91,5.63,2.82,8.46,4.1,3.98,2.38,6.72,5.72,11.85,3.86"/><path class="b" d="M10.96,119.82c2.76-1.62,5.58-3.31,8.46-4.7,2.39-1.23,4.94-2.46,7.62-2.86,2.5-.43,5.11.24,7.62-.09,3.19-.29,6.61-.53,9.31-2.44,3.44-2.34,6.69-5.46,11-5.99,2.23-.37,4.61-.6,6.77-1.31,2.37-.75,4.64-2.01,6.77-3.27,1.79-1.01,3.7-2.91,5.92-2.36,5.49,3.14,4.76,12.15,13.54,12.62,8.74.9,14-8,22.85-2.46,2.18,1.24,4.36,2.77,6.77,3.54,4.69,1.28,9.81.7,14.39-.79,4.18-1.51,7.78-4.32,11.85-6.06,4.43-1.92,9.65-2.97,14.39-1.68,2.91.97,5.19,3.28,7.62,5.06,1.5,1.18,3.48,1.85,5.08,2.85,3.09,2.07,6.29,4.03,10.15,2.8"/><path class="b" d="M10.96,117.5c2.78-1.12,5.69-2.15,8.46-3.29,2.74-1.21,5.46-2.83,8.46-3.32,1.35-.22,2.87-.14,4.23-.08,2.22-.12,4.55.01,6.77-.14,5.02-.7,8.31-5.2,12.69-7.31,2.6-1.32,5.62-1.4,8.46-1.73,2.33-.29,4.67-1.04,6.77-2.09,1.49-.69,3.02-1.7,4.23-2.81,1.69-1.34,3.49-3.9,5.92-3.29,2.01.97,3.09,3.41,4.23,5.2,1.78,3.14,4.51,6.61,8.46,6.61,3.71.07,6.86-2.35,10.15-3.71,6.97-3.4,10.67,3.18,16.08,6.13,4.15,2.16,9.31,1.33,13.54-.22,4.69-2.17,8.59-5.92,13.54-7.59,4.04-1.34,8.46-1.75,12.69-1.53,3.16.4,5.53,2.92,7.62,5.12,1.21,1.27,2.67,2.67,4.23,3.5,1.04.5,2.37.94,3.38,1.52,3.07,1.77,6.47,3.82,10.15,2.92"/><path class="b" d="M10.96,114.29c2.78-.5,5.72-.28,8.46-.98,2.97-.82,5.53-2.83,8.46-3.74,2.16-.62,4.54-.51,6.77-.57,2.24.1,4.67.26,6.77-.69,4.93-2.22,8.93-6.57,14.39-7.61,3.66-.61,7.5-.64,11-2,5.86-1.41,8.82-9.5,12.69-6.81,1.75,1.47,2.91,3.81,4.23,5.64,5.41,7.63,9.57,4.05,16.08.5,3.2-1.69,5.94-.96,8.46,1.48,6.26,6.22,8.4,9.22,17.77,6.33,3.13-1.14,5.74-3.46,8.46-5.31,2.77-1.92,5.98-3.34,9.31-3.92,3.34-.49,6.79-.83,10.15-1.1,5.25-.07,7.58,5.6,11,8.63,1.82,1.81,4.59,1.93,6.77,3.09,2.87,1.47,5.95,3.24,9.31,2.76"/><path class="b" d="M10.96,109.91c2.6-.03,5.06,1.16,7.62,1.42,3.81.39,6.83-2.39,10.15-3.74,1.58-.6,3.4-.78,5.08-.92,1.94-.11,3.99.28,5.92,0,2.11-.33,4.07-1.5,5.92-2.5,2.21-1.21,4.49-2.51,6.77-3.58,4.22-2.06,9.05-1.97,13.54-3,8.02-1.02,10.64-10.24,15.23-6.21,2.11,2.15,3.59,5.09,5.92,7.03,4.25,3.76,8.95-.44,12.69-2.79,2.93-1.86,5.35-1.26,7.62,1.23,5.38,5.89,7.17,10.32,16.08,7.18,4.78-1.65,8.13-5.93,12.69-8.01,3.41-1.63,7.29-1.85,11-2.16,2.52-.15,5.08-1.24,7.62-.8,4.89,1.34,6.26,7.29,10.15,10.03,1.98,1.39,4.66.97,6.77,2.04,2.97,1.35,5.9,3.41,9.31,3.25"/><path class="b" d="M10.96,104.65c2.78.19,5.04,2.18,7.62,3.01,4.86,1.8,8.33-2.4,12.69-3.48,2.49-.69,5.1-.33,7.62-.09,2.71.18,5.22-1.19,7.62-2.27,3.04-1.35,6.11-2.87,9.31-3.8,4.69-1.4,9.82-1.19,14.39-3.05,1.81-.8,3.53-2.09,5.08-3.3,1.42-1.07,3.18-2.46,5.08-2,2.59.96,3.99,3.8,5.92,5.61,4.82,5.11,9.03,1.62,13.54-1.65,2.52-1.79,4.76-1.44,6.77.88,5,5.63,6.46,11.36,15.23,7.61,5.82-2.34,9.81-8.16,16.08-9.6,3.87-.95,8-.4,11.85-1.5,6.07-2.05,8.03,1.84,11,6.29,1.55,2.43,3.64,4.71,6.77,4.57,1.07.01,2.37.08,3.38.44,3.42,1.24,6.37,3.99,10.15,4.13"/><path class="b" d="M10.96,99.18c2.23,0,4.12,1.51,5.92,2.65,4.98,3.13,7.82,1.9,12.69-.36,2.11-.83,4.52-1.16,6.77-.81,1.64.25,3.41.69,5.08.53,4.08-.73,7.86-2.78,11.85-3.9,5.22-1.74,10.85-1.82,16.08-3.51,2.1-.72,4.1-1.97,5.92-3.2,1.49-.97,3.21-2.16,5.08-2.04,2.49.33,4.12,2.68,5.92,4.19,4.96,4.62,8.85,2.06,13.54-1.21,2.74-1.82,4.97-.52,6.77,1.83,2.68,2.97,4.67,8.39,9.31,8.36,1.74-.16,3.48-.98,5.08-1.64,6.36-3.16,11.19-9.72,18.62-10.47,2.21-.27,4.56-.14,6.77-.43,1.96-.25,3.95-1.02,5.92-1.16,4.85-.02,6.47,6.11,9.31,9.1,2.51,3.24,6.05,1.28,9.31,2.41,3.47,1.3,6.35,4.21,10.15,4.6"/><path class="b" d="M10.96,94.36c3.21-.76,5.68,2.11,8.46,3.17,7.24,3.35,10.52-2.35,19.46.33,4.32,1.12,8.54-1.15,12.69-2.07,4.99-1.4,10.23-1.84,15.23-3.18,2.68-.58,5.27-1.74,7.62-3.14,3.47-2.1,6.5-3.76,10.15-.93,2.23,1.6,4.74,3.37,7.62,3.26,1.75-.01,3.54-.67,5.08-1.47,1.54-.77,3.29-1.84,5.08-1.47,3.19,1.05,4.82,4.58,6.77,7.06,4.17,6.07,7.06,4.56,12.69,1.44,2.86-1.79,5.7-3.79,8.46-5.74,2.57-1.81,5.31-3.74,8.46-4.35,2.76-.6,5.69-.32,8.46-.83,2.2-.34,4.62-1.39,6.77-.35,3.78,2.18,4.86,7.23,8.46,9.61,1.8.94,3.99.25,5.92.38,4.75.26,8.02,4.77,12.69,5.37"/><path class="b" d="M10.96,91.04c2.23-1.47,4.52-.9,6.77.14,2.19.83,4.45,1.79,6.77,2.16,3.62.51,7.37-.04,11,.49,1.96.25,3.95.94,5.92,1.14,1.37.12,2.88-.15,4.23-.36,5.34-1.06,10.71-2.15,16.08-3.08,2.81-.63,5.74-1.21,8.46-2.18,2.31-.86,4.55-2.14,6.77-3.18,9.01-4.18,8.55,4.4,22,.58,5.5-.58,7.84,5.84,11,9.21,1.7,2.07,4.14,3.3,6.77,2.15,1.99-.8,4.04-1.77,5.92-2.79,2.9-1.51,5.86-3.13,8.46-5.12,2.38-1.78,4.75-3.9,7.62-4.86,2.42-.87,5.1-.9,7.62-1.24,2.49-.33,5.3-1.43,7.62.04,3.45,2.23,4.66,7.06,8.46,8.8,1.9.51,3.99-.21,5.92.06,4.68.52,8.05,4.7,12.69,5.39"/><path class="b" d="M10.96,89.6c4.39-3.71,8.52-2.44,13.54-1.1,3.87,1.05,7.88,1.7,11.85,2.27,1.94.31,3.95.9,5.92,1,3.67-.05,7.39-.51,11-1.16,5.93-1.15,12.05-1.91,17.77-3.91,4.88-1.85,9.8-5.22,15.23-3.71,2.48.54,5.08.96,7.62,1.08,1.95.1,4.07.03,5.92.74,6.25,2.12,8.89,12.36,15.23,12.28,2.3-.24,4.54-1.28,6.77-1.87,4.08-1.08,8-2.72,11-5.79,4.19-4.31,7.37-6.7,13.54-7.4,5.35-1.18,7.47-.78,11,3.66,1.57,1.82,3.3,4.27,5.92,4.42,8.89-1.17,10.31,3.41,17.77,4.93"/><path class="b" d="M10.96,89.51c3.66-3.16,8.74-4.7,13.54-4.26,4.28.56,8.39,2.23,12.69,2.68,2.49.44,5.08.86,7.62.71,3.38.03,6.83-.13,10.15-.75,5.34-1.12,10.89-1.6,16.08-3.36,5.48-1.87,10.93-5.1,16.92-4.02,3.41.54,6.99.93,10.15,2.39,3.35,1.54,6.04,4.29,8.46,7,2.87,3.25,6.28,6.62,11,5.85,2.78-.4,5.69-.01,8.46-.46,6.64-1.14,9.26-8.43,14.39-11.98,1.69-1.33,3.85-2.11,5.92-2.63,1.61-.42,3.4-.86,5.08-.72,3.21.3,5.36,3.13,7.62,5.12,1.34,1.25,3.2,2.22,5.08,2.11,6.08-.85,11.11,3.57,16.92,4.35"/><path class="b" d="M10.96,89.44c1.37-.67,2.83-1.53,4.23-2.14,1.95-.73,4.03-1.43,5.92-2.29,3.94-1.9,7.76-1.6,11.85-.43,3.32.67,6.77,1.13,10.15,1.33,3.08.02,6.23.33,9.31.01,3.66-.39,7.33-1.15,11-1.38,7.35-.47,13.87-4.74,21.15-5.49,3.17-.23,6.33.72,9.31,1.71,3.42,1.13,6.58,3.09,9.31,5.41,3.47,2.85,6.72,6.32,11,7.95,2.43.91,5.13,1.12,7.62,1.83,3.59,1.15,7.28,1.15,10.15-1.61,4.43-4.22,7.02-10.61,12.69-13.43,3.96-2,7.97-3.38,11.85-.31,1.6,1.14,3.24,2.57,5.08,3.33,2.4.97,5.16.47,7.62,1.23,3.93,1.06,7.78,2.68,11.85,3.13"/><path class="b" d="M10.96,87.27c5.54.39,9.62-1.51,14.39-3.92,1.83-.79,3.94-1.13,5.92-.91,5.87.91,11.82,1.58,17.77,1.52,3.38-.01,6.78-.68,10.15-.7,3.08-.05,6.29.71,9.31-.2,5.3-1.46,10.52-3.79,16.08-4.03,2.93-.1,5.77.99,8.46,2.02,5.21,1.69,9.8,4.78,14.39,7.69,3.2,2.01,6.65,3.74,10.15,5.13,2.46,1,5.01,2.11,7.62,2.67,6.68,1.71,10.1-4.66,13.54-9.14,1.26-1.69,2.68-3.61,4.23-5.06,1.27-1.05,2.83-2.07,4.23-2.93,6.85-4.29,9.16-.25,15.23,2.22,1.88.65,4,.85,5.92,1.32,4.16,1.09,8.39,2.22,12.69,2.61"/><path class="b" d="M10.96,82.31c4.31,2.09,6.93,3.81,11.85,2.11,2.5-.93,4.91-2.49,7.62-2.78,5.07-.2,10.14,1.22,15.23.92,3.39,0,6.78-.69,10.15-.86,2.25-.11,4.58.27,6.77.78,3.38.98,6.88.23,10.15-.78,5.18-1.56,10.81-2.76,16.08-.88,7.64,2.77,15.31,5.57,22.85,8.61,4.29,1.55,8.18,4.31,12.69,5.18,3.07.53,6.61.98,9.31-.93,3.44-2.54,5.8-6.33,8.46-9.6,1.19-1.45,2.85-2.76,4.23-4.02,5.83-5.25,8.51-5.03,15.23-1.42,6.13,2.77,12.73,4.65,19.46,5.01"/><path class="b" d="M10.96,75.75c4.41,2.4,7.92,7.95,13.54,7.22,2.54-.43,5-1.71,7.62-1.72,3.65.13,7.34.8,11,.67,3.7-.12,7.34-1.1,11-1.54,1.94-.22,4.01-.12,5.92.29,2.21.48,4.48,1.28,6.77,1.3,3.12,0,6.22-.9,9.31-1.18,4.54-.51,9.24.04,13.54,1.59,2.83.93,5.52,2.53,8.46,3.11,4.75,1.01,9.68,1.36,14.39,2.57,3.23.71,6.08,2.72,9.31,3.4,2.77.5,5.68.14,8.46.44,4.03.68,7.71-1.75,10.15-4.77,1.54-1.92,3.37-3.86,5.08-5.63,1.85-2.03,3.7-4.33,5.92-5.99,3.52-2.77,7.5-1.47,11,.59,2.75,1.52,5.5,3.28,8.46,4.37,3.22,1.21,6.73,1.74,10.15,1.95"/><path class="b" d="M10.96,69.69c3.54,1.12,5.83,4.49,8.46,6.91,2.23,2.5,4.82,5.07,8.46,4.63,1.65-.1,3.42-.34,5.08-.22,2.22.26,4.53.58,6.77.55,4.31.04,8.48-1.41,12.69-2.1,2.78-.47,5.7-.44,8.46.14,3.02.79,6.18,1.21,9.31.93,9.37-.79,16.1-.1,24.54,4.36,2.3,1.29,5.02,1.62,7.62,1.59,2.8.02,5.67-.29,8.46-.19,2.58.08,5.2.69,7.62,1.58,3.6,1.45,7.34-.57,11-.47,4.64.45,7.82,2.54,11.85-1.37,2.07-1.98,4.22-4.12,5.92-6.43,1.99-2.53,3.98-5.42,6.77-7.13,8.3-4.58,12.67,8.07,27.08,9.05"/><path class="b" d="M10.96,65.22c6.53.89,9.47,7.64,13.54,11.96,2.81,3.04,7.24,2.73,11,3.44,5.21.92,10.15-1.57,15.23-2.2,3.06-.35,6.24-.34,9.31-.09,2.78.36,5.65.61,8.46.54,8.3-.41,14.24-.53,22,3.14,2.87,1.16,5.4,3.34,8.46,3.97,4.55.77,9.02-1.13,13.54-1.25,8.29.12,5.63,1.95,14.39-1.57,1.86-.62,4.02-.96,5.92-.31,3.77,1.65,6.49,3.43,10.15.25,5.62-3.77,8.54-14.01,16.08-14,2.98.26,5.38,2.44,7.62,4.23,2.65,2.03,5.44,4.11,8.46,5.56,1.83.79,3.96,1.01,5.92,1.17"/><path class="b" d="M10.96,61.26c3.69.4,6.93,2.84,9.31,5.56,2.8,3.33,4.72,7.7,8.46,10.13,3.03,1.73,6.68,2.57,10.15,2.17,3.45-.49,6.66-2.28,10.15-2.56,2.82-.23,5.66.53,8.46.69,3.37.22,6.81-.01,10.15-.39,8.74-.91,15.86-.34,23.69,4,5.2,2.99,8,5.52,14.39,3.67,2.76-.76,5.59-1.65,8.46-1.86,1.64-.17,3.44-.07,5.08-.23,1.46-.26,2.94-1.02,4.23-1.72,2.84-1.55,5.97-3.24,9.31-2.99,3.72.52,6.04,4.87,10.15,2.72,6.67-2.95,9.29-14.47,17.77-13.25,2.28.57,4.18,2.28,5.92,3.77,2.21,1.79,4.48,3.74,6.77,5.42,2.22,1.47,5.05,1.46,7.62,1.5"/><path class="b" d="M10.96,57.77c3.56.34,6.82,2.44,9.31,4.91,3.09,3.15,5.25,7.25,8.46,10.3,2.7,2.46,6.48,3.97,10.15,3.55,2.32-.35,4.54-1.45,6.77-2.12,5.98-2.07,8.9,1.92,14.39,1.91,2.57-.02,5.13-.74,7.62-1.31,3.34-.47,6.78-.95,10.15-.5,13.9,1.26,17.8,10.73,26.23,8.79,2.85-.68,5.6-1.97,8.46-2.59,2.49-.65,5.26-.56,7.62-1.65,3.11-1.62,5.88-4.07,9.31-5.04,2.44-.75,5.33-1.23,7.62.2,1.97,1.59,4.03,3.4,6.77,2.62,5.93-1.75,8.24-10.47,15.23-11.48,2.99-.38,5.54,1.77,7.62,3.64,1.66,1.45,3.52,2.94,5.08,4.51,2.74,2.67,5.84,2.17,9.31,1.76"/><path class="b" d="M10.96,54.88c2.11-.22,4.15.7,5.92,1.76,5.66,3.2,8.63,9.45,13.54,13.52,2.77,2.3,6.59,3.42,10.15,2.85,2.83-.43,5.59-1.6,8.46-1.76,3.08-.17,5.86,1.47,8.46,2.89,3.22,1.77,6.94.8,10.15-.44,5.21-1.41,9.09-1.73,14.39-.48,5.38.96,9.66,4.57,14.39,7.04,4.54,2.62,8.29.84,12.69-.91,3.26-1.37,6.97-1.57,10.15-3.12,2.9-1.61,5.32-4.21,8.46-5.41,1.58-.61,3.41-.87,5.08-1.08,1.64-.16,3.51-.49,5.08.16,2.45,1.47,4.38,4.19,7.62,3.52,2.51-.67,4.2-3.03,5.92-4.82,2.37-2.59,5.56-5.31,9.31-4.85,2.72.41,4.82,2.55,6.77,4.33,2,1.56,3.64,3.84,5.92,5.01,2.46,1.15,5.15-.19,7.62-.64"/><path class="b" d="M10.96,52.78c1.07,0,2.32,0,3.38,0,.84-.06,1.86.07,2.54.6,6.46,3.68,9.72,11.11,16.08,14.91,9.04,5.29,13.43-1.4,21.16,1.54,2.95,1.05,5.32,3.61,8.46,4.11,1.71.23,3.5-.29,5.08-.9,1.97-.55,3.95-1.42,5.92-1.94,2.47-.62,5.13-.44,7.62-.01,3.38.5,6.57,2,9.31,4.02,9.27,5.83,9.77,5.25,19.46,1.26,3.08-1.13,6.5-1.55,9.31-3.35,2.83-1.81,5.21-4.55,8.46-5.66,1.87-.64,3.98-.52,5.92-.58,1.37,0,2.87-.38,4.23-.41,1.64.14,2.98,1.52,4.23,2.46,4.6,3.85,6.92.68,10.15-2.82,2.67-3.06,7.09-5.69,11-3.23,2.23,1.37,4.02,3.53,5.92,5.29,1.38,1.37,3,3.08,5.08,3.18,2.37.02,4.51-1.5,6.77-2.03"/><path class="b" d="M10.96,50.69c1.36,0,2.87,0,4.23,0,1.15-.05,2.51-.06,3.38.81,5.56,4.25,8.92,11.09,15.23,14.44,9.63,5.69,13.64-1.46,22,2.14,3.02,1.15,5.34,3.84,8.46,4.72,4.9.95,8.8-3.35,13.54-3.58,4.3-.33,8.47,1.36,11.85,3.93,3.25,2.05,7,4.51,11,3.94,3.28-.64,6.17-2.6,9.31-3.67,3.13-1.1,6.53-1.72,9.31-3.65,2.99-2,5.61-5.06,9.31-5.72,1.94-.34,3.99.22,5.92.36,1.38.06,2.87-.45,4.23-.59,1.98,0,3.53,1.7,5.08,2.72,1.19.84,2.69,1.93,4.23,1.53,2.83-1.14,4.45-4.17,6.77-6.03,2.61-2.39,6.39-3.2,9.31-.84,3.46,2.32,6.15,8.42,11,6.95,1.94-.72,3.86-1.87,5.92-2.25"/><path class="b" d="M10.96,48.6h6.77c4.48,2.88,7.14,7.87,11,11.45,2.84,2.71,6.44,4.71,10.15,5.93,3.06.82,6.29.14,9.31-.54,3.74-.96,7.72-.18,11,1.79,2.34,1.26,4.25,3.44,6.77,4.36,6.55,1.85,9.03-5.36,16.92-3.25,2.83.67,5.18,2.6,7.62,4.07,3,1.73,6.68,3.34,10.15,2.17,2.94-1,5.57-2.91,8.46-4.03,2.47-1.06,5.24-1.55,7.62-2.83,3.86-1.79,6.76-5.51,11-6.48,2.6-.61,5.09.82,7.62,1.11,1.97.14,4-1.17,5.92-.36,1.8.8,3.4,2.25,5.08,3.26,3.56,2.16,6.13-2.38,8.46-4.39,2.16-2.18,5.58-3.75,8.46-2.01,3.6,1.99,6.28,7.17,11,5.94,2.19-.69,4.42-1.74,6.77-1.75"/><path class="b" d="M10.96,46.51c1.36,0,2.87,0,4.23,0,.79,0,1.81-.08,2.54.3,5.35,3.64,8.07,10.16,13.54,13.69,2.39,1.41,4.96,2.8,7.62,3.63,1.61.45,3.42.42,5.08.29,3.91-.51,7.89-2.01,11.85-.93,2.41.56,4.78,1.65,6.77,3.12,2.63,2.03,5.72,4.74,9.31,3.8,3.1-1.06,5.86-3.53,9.31-3.33,3.16.03,5.84,1.98,8.46,3.5,4.84,2.67,8.88,2.99,13.54-.24,3.41-2.19,7.21-3.77,11-5.14,2.68-1.2,5.19-2.93,7.62-4.58,2.66-1.88,6.11-3.18,9.31-1.91,1.36.49,2.81,1.27,4.23,1.57,1.38.27,2.9-.17,4.23-.48,2.91-.59,5.24,1.92,7.62,3.17,4.37,2.24,7.23-4.05,11-5.41,6.09-2.41,8.43,5.52,16.08,3.71,2.18-.57,4.52-.83,6.77-.56"/><path class="b" d="M10.96,44.42c1.65.08,3.47-.21,5.08.2,1.47.88,3.03,1.99,4.23,3.22,6.19,6.81,6.8,10.04,16.08,13.55,7.25,3.36,13.77-1.48,21.15.37,2.4.49,4.77,1.52,6.77,2.93,2.56,1.75,5.33,3.81,8.46,4.28,2.35.04,4.51-1.33,6.77-1.82,6.72-1.55,9.96,4.98,17.77,2.95,3.63-1.22,6.71-3.79,10.15-5.42,3.35-1.73,7.04-2.9,10.15-5.06,4.16-2.59,8.57-5.54,13.54-3.1,3.16,1.58,4.85,2.62,8.46,1.36,4.61-1.34,8.17,5.29,12.69,2.35,3.07-1.89,6.27-4.94,10.15-3.46,1.64.55,3.35,1.41,5.08,1.66,2.79.31,5.67-.14,8.46-.22,1.66-.04,3.44.31,5.08.56"/><path class="b" d="M10.96,42.56c3.24-.47,6.17,1.78,8.46,3.8,6.08,6.23,6.29,9.5,15.23,12.56,9.99,4.38,16-1.44,26.23,1.24,3.29.89,6.26,2.82,9.31,4.27,1.81,1.08,3.76,2.32,5.92,2.46,1.94.16,3.98-.2,5.92-.11,2.01.04,4,.83,5.92,1.33,5.86,1.63,11.3-1.89,16.08-4.85,3.48-2.22,7.39-3.75,11-5.71,4.25-2.54,9.32-5.65,14.39-3.61,1.99.71,3.83,2.14,5.92,2.57,1.71.31,3.43-.54,5.08-.85,3.91-.44,7.05,3.57,11,2.6,2.83-.74,5.42-2.72,8.46-2.53,1.97.09,3.96.84,5.92.99,2.26.18,4.52-.76,6.77-.72,2.84-.16,5.7.39,8.46.95"/><path class="b" d="M10.96,42.32c5.59-1.46,10.14,5.81,13.54,9.27.97,1.02,2.16,2.17,3.38,2.87,1.31.66,2.87,1.15,4.23,1.68,3,1.08,6.11,2.21,9.31,2.48,5.38.2,10.69-1.48,16.08-1.27,3.16,0,6.33.67,9.31,1.69,1.37.41,2.92.76,4.23,1.35,3.04,1.41,6.01,3.18,9.31,3.92,5.07,1.25,8.22,3.2,13.54,1.14,3.94-1.41,7.42-3.94,11-6.05,3.23-2.04,6.81-3.57,10.15-5.41,3.3-1.83,7.19-3.22,11-2.64,2.4.36,4.62,1.64,6.77,2.7,3.48,1.84,5.2-.25,8.46-.39,3.21.15,6.06,2.32,9.31,2.26,2.55-.05,5.06-1.07,7.62-1.1,2.52-.06,5.09.64,7.62.47,1.69-.06,3.42-.69,5.08-.95,3.39-.37,6.82.28,10.15.81"/><path class="b" d="M10.96,42.34c5.13-2.34,10.15,5.62,13.54,8.56,2.25,2.24,5.59,2.55,8.46,3.56,3.83,1.14,7.78,2.79,11.85,2.37,6.71-.97,13.5-2.37,20.31-1.41,4.27.39,8.68.41,12.69,2.15,2.01.79,4.07,1.79,5.92,2.9,2,1.29,4.32,2.49,6.77,2.29,4.07-.32,7.57-2.81,11-4.82,4.36-2.74,8.9-5.27,13.54-7.51,4.83-2.26,10.67-1.52,15.23,1.05,6.54,3.67,6.31.14,11.85.42,1.68.22,3.43.78,5.08,1.18,3.03.81,6.23.3,9.31.23,2.51-.04,5.1.32,7.62.36,2.55.18,5.1-.62,7.62-.81,3.08-.26,6.24.12,9.31.36"/><path class="b" d="M10.96,42.54c2.64-1.59,5.53.25,7.62,1.93,2.54,2.02,4.49,5.13,7.62,6.29,2.8.67,5.74,1.1,8.46,2.06,3.05.98,6.05,2.63,9.31,2.8,4.55.04,9.02-1.76,13.54-2.28,3.06-.48,6.23-.6,9.31-.84,1.95-.18,3.98-.56,5.92-.77,5.67-.65,9.05.48,13.54,3.86,5.09,3.5,9.48,1.62,14.39-1.02,3.7-1.9,7.22-4.27,11-6.02,1.57-.82,3.31-1.7,5.08-1.99,3.44-.32,7.01.6,10.15,1.95,2.73,1.14,5.35,3.36,8.46,3.07,1.98-.3,3.88-1.46,5.92-1.4,2.25.06,4.54.67,6.77.91,1.93.22,3.99.18,5.92.15,4.24-.14,8.48.59,12.69.86,1.96.05,3.98-.51,5.92-.67,2.78-.33,5.67-.34,8.46-.38"/><path class="b" d="M10.96,42.85c5.76-2.74,9.09,3.47,13.54,5.66,3.32.87,6.96.72,10.15,2.1,3.63,1.48,6.89,4.35,11,4.31,4.09.08,7.95-1.79,11.85-2.81,4.16-1.26,8.5-2.05,12.69-3.18,12.73-3.56,15.63,4.6,25.39,3.09,4.89-.86,9.18-3.55,13.54-5.75,2.67-1.18,5.44-2.79,8.46-2.45,3.24.47,6.42,1.68,9.31,3.19,2.86,1.48,5.91,3.92,9.31,2.87,1.34-.41,2.82-1,4.23-1.16,1.94-.19,3.99.12,5.92.24,2.79.22,5.67.02,8.46.06,4.08-.1,7.89,1.43,11.85,1.99,1.98.11,3.99-.68,5.92-1.03,2.76-.61,5.64-1.06,8.46-1.3"/><path class="b" d="M10.96,43.16c5.23-2,7.69.47,11.85,3.02,1.27.65,2.85.61,4.23.7,10.76.08,10.43,6.16,18.62,7.49,3.87.7,7.56-1.04,11-2.58,3.87-1.76,7.78-3.63,11.85-4.88,7.28-2.62,10.3.29,16.92,2.07,2.23.51,4.59.05,6.77-.47,1.64-.37,3.43-.69,5.08-1.04,3.89-.67,7.43-2.53,11-4.12,3.32-1.38,6.55-2.41,10.15-1.42,2.95.76,5.83,2.03,8.46,3.56,2.81,1.61,5.88,4,9.31,2.99,2.44-.81,5.02-1.48,7.62-1.34,4.21.13,8.52-.62,12.69.12,2.62.46,5.07,1.77,7.62,2.49,2.6.85,5.18-.06,7.62-1.02,3-1.11,6.13-2.1,9.31-2.54"/><path class="b" d="M10.96,43.24c2.72-.71,5.78-.93,8.46.06,1.35.52,2.77,1.36,4.23,1.51,3.37.09,7.03-.45,10.15,1.13,4.63,2.78,6.76,6.97,12.69,7.73,3.23.67,6.51-.25,9.31-1.87,4.51-2.33,8.58-5.76,13.54-7.15,2.47-.7,5.28-.72,7.62.44,3.42,1.43,7.17,4.68,11,4.25,2.23-.45,4.01-2.18,5.92-3.3,2.33-1.44,5.06-2.24,7.62-3.14,4.57-1.72,9.38-4.18,14.39-2.98,3.58.46,7.03,1.79,10.15,3.57,2.7,1.42,5.29,3.68,8.46,3.82,2.88-.05,5.58-1.56,8.46-1.74,4.19-.37,8.58-1.18,12.69.04,2.59.8,5,2.33,7.62,3.07,3.48,1.17,6.27-.39,9.31-1.95,2.66-1.34,5.52-2.53,8.46-3.05"/><path class="b" d="M10.96,42.96c2.77-.33,5.68-.25,8.46-.12,1.65.22,3.41.66,5.08.38,7.79-.99,8.98.12,14.39,5.31,3.72,3.31,10.53,4.75,15.23,3.02,2.69-1.1,5.24-2.71,7.62-4.36,2.56-1.79,5.3-3.7,8.46-4.17,2.28-.38,4.66,0,6.77.9,2.96,1.02,5.7,2.69,8.46,4.13,5.37,2.91,7.93-2.95,11.85-5.51,3.52-2.37,7.59-4.26,11.85-4.75,1.97-.3,4,.28,5.92.58,1.36.2,2.9.33,4.23.68,2.36.65,4.65,1.84,6.77,3.04,2.68,1.46,5.35,3.47,8.46,3.79,2.93.28,5.68-1.26,8.46-1.92,3.83-.99,8.07-1.49,11.85-.04,3.08,1.2,6,3.13,9.31,3.67,3.08.63,5.92-1.1,8.46-2.61,2.62-1.54,5.45-3,8.46-3.6"/><path class="b" d="M10.96,42.19c1.66-.04,3.43.29,5.08.43,2.22.14,4.56.1,6.77-.14,3.56-.64,7.76-2.04,11,.25,4.8,3.89,6.18,5.7,12.69,6.8,7.92,1.68,12.82-3.16,19.46-6.27,3.96-1.82,8.56-1.46,12.69-.46,2.06.58,4.09,1.64,5.92,2.73,1.76,1,3.82,2.32,5.92,1.76,3.56-1.36,5.59-5.04,8.46-7.36,6.75-5.63,10.01-3.79,17.77-2.99,7.05.84,12.21,7.54,19.46,7.54,3.02-.11,5.66-1.99,8.46-2.9,3-.96,6.36-.94,9.31.17,5.52,2.16,11.07,6.07,16.92,2.44,3.26-1.74,6.49-3.84,10.15-4.63"/><path class="b" d="M10.96,40.95c2.83.15,5.61,1.23,8.46,1.2,4.52.27,9.13-3.36,13.54-1.04,2.91,1.91,5.79,4.16,9.31,4.82,4.39,1.11,9.34,1.77,13.54-.32,3.92-1.67,7.61-4.2,11.85-5.01,3.91-.45,7.99-.12,11.85.66,2.73.62,5.18,2.21,7.62,3.52,7.75,4.63,10.6-8.91,19.46-9.92,1.35-.21,2.87,0,4.23.04,1.94.05,3.99-.02,5.92.13,3.84.32,6.87,3.15,10.15,4.9,3.28,1.81,7.22,3.35,11,2.44,2.1-.56,4-1.9,5.92-2.86,3.12-1.55,6.87-1.56,10.15-.56,6.17,1.85,11.24,5.67,17.77,2.52,3.01-1.18,6.08-2.51,9.31-2.93"/><path class="b" d="M10.96,39.57c3.13.19,6.15,1.52,9.31,1.55,3.98.11,7.84-2.78,11.85-1.39,1.72.59,3.38,1.65,5.08,2.29,1.59.64,3.39,1.02,5.08,1.29,4.16.72,8.78,1.46,12.69-.56,4.1-1.81,8.09-4.54,12.69-4.76,2.84-.1,5.71.36,8.46,1.01,3.56.5,7.04,1.66,10.15,3.46,1.79.9,3.86,1.98,5.92,1.51,5.3-1.71,8.03-7.79,13.54-9.2,3.63-.68,7.32-1.59,11-1.88,4.42-.11,7.32,4.01,11,5.84,3.62,1.86,8.18,2.33,11.85.35,1.67-.86,3.35-2.04,5.08-2.78,2.92-1.15,6.25-1.16,9.31-.65,4.07.65,7.87,2.5,11.85,3.46,2.21.53,4.56-.08,6.77-.32,2.78-.37,5.66-.57,8.46-.5"/><path class="b" d="M10.96,38.07c3.41.15,6.71,1.62,10.15,1.57,2.84-.15,5.61-1.35,8.46-1.45,2.35-.13,4.58.92,6.77,1.59,2.17.68,4.52.92,6.77,1.15,3.66.41,7.68.95,11-1.02,4.47-2.29,9.11-5.43,14.39-4.47,2.64.13,5.12,1.29,7.62,2.06,3.47.89,6.92,2.06,10.15,3.61,6.6,3.37,9.86-.28,15.23-3.65,2.63-1.62,5.68-2.55,8.46-3.87,2.75-1.11,5.44-2.97,8.46-3.12,3.87.44,6.11,4.34,9.31,6.16,3.05,1.81,6.99,1.65,10.15.21,2.31-.98,4.43-2.6,6.77-3.51,2.95-1.05,6.22-1.11,9.31-.98,2.26.13,4.61.54,6.77,1.22,1.96.62,3.95,1.55,5.92,2.13,1.89.52,4.01.36,5.92.82,2.8.56,5.62,1.48,8.46,1.85"/><path class="b" d="M10.96,36.27c3.13.14,6.18,1.34,9.31,1.52,3.13.13,6.2-1.03,9.31-1.13,2.6-.13,5.11.9,7.62,1.4,2.48.51,5.1.63,7.62.78,7.24.85,9.2-2.91,15.23-5.3,5.14-1.82,10.57.16,15.23,2.41,3.91,1.54,7.85,3.18,11.85,4.48,4,1.45,8.14-.12,11.85-1.68,3.44-1.38,6.97-2.78,10.15-4.7,2.02-1.19,4.02-2.65,5.92-4.01,1.69-1.15,3.77-2.77,5.92-1.97,3.55,1.7,5.39,6.05,9.31,7.15,6.95,1.86,11.75-5.66,18.62-5.73,3.63-.3,7.42-.59,11,.24,2.36.55,4.58,1.79,6.77,2.78,1.29.61,2.92.79,4.23,1.35,3.34,1.54,6.48,3.72,10.15,4.46"/><path class="b" d="M10.96,33.91c3.13.29,6.16,1.59,9.31,1.77,3.11.15,6.21-.73,9.31-.79,2.58-.08,5.11.79,7.62,1.26,2.48.49,5.09.7,7.62.62,6.75.29,9.52-5.6,16.08-6.16,4.84-.78,9.37,1.81,13.54,3.92,3.5,1.78,7.16,3.49,11,4.4,3.07.84,6.27.3,9.31-.38,4.03-.72,8.14-1.58,11.85-3.38,2.78-1.33,5.34-3.26,7.62-5.33,1.86-1.59,3.62-3.68,5.92-4.63,6.75-1.71,7.12,14.41,21.16,4.46,1.55-1,3.3-2.02,5.08-2.54,1.89-.54,3.97-.72,5.92-.87,3.09-.21,6.38-.38,9.31.81,2.07.82,3.97,2.24,5.92,3.29,1.06.51,2.41.94,3.38,1.62,1.68,1.15,3.33,2.65,5.08,3.71,1.52.91,3.36,1.55,5.08,1.99"/><path class="b" d="M10.96,31.02c2.87.46,5.58,1.85,8.46,2.24,3.65.53,7.35-.45,11-.29,2.27.07,4.55.74,6.77,1.11,3.05.54,6.33.67,9.31-.31,2.45-.87,4.51-2.73,6.77-3.97,2.53-1.37,5.61-1.9,8.46-1.63,7.92,1.99,14.53,8.1,22.85,8.77,3.72.37,7.3-1.25,11-1.24,12.04.21,15.78-3.74,23.69-11.83,5.29-5.14,7.84,2.04,11.85,4.61,6.66,4.15,10.29-1.02,16.08-3.48,4.23-1.5,9.22-2.21,13.54-.72,3.4,1.42,6.01,4.2,9.31,5.85,3.86,3.16,5.62,5.34,11,5.94"/><path class="b" d="M10.96,28.11c2.32.46,4.52,1.64,6.77,2.32,4.11,1.34,8.47.35,12.69.47,2.8.09,5.65.8,8.46.59,1.99-.15,4.08-.66,5.92-1.43,1.74-.8,3.41-2.01,5.08-2.94,3.8-2.17,8.88-2.27,12.69-.1,5.54,3.21,12.04,6.88,18.62,6.72,3.8-.09,7.28-2.05,11-2.53,3.17-.21,6.19,1.3,9.31,1.56,6.96.61,12.55-4.66,16.92-9.42,5.12-5.49,6.92-5.94,12.69-.87,2.06,1.55,4.46,2.83,6.77,3.97,6.09,2.55,11.05-3.74,16.92-4.24,5.43-.88,8.78,2.63,12.69,5.68,5.96,3.55,5.59,5.79,13.54,5.96"/><path class="b" d="M10.96,25.4c3.45.85,6.56,3.03,10.15,3.38,2.79.36,5.67.03,8.46-.1,2.51-.19,5.17.15,7.62-.54,1.77-.51,3.45-1.57,5.08-2.41,1.07-.49,2.35-1.04,3.38-1.6,2.31-1.26,4.93-2.37,7.62-2.05,2.33.31,4.68,1.2,6.77,2.28,1.69.98,3.38,2.26,5.08,3.25,2.84,1.59,6.03,2.88,9.31,3.1,5.3.39,9.61-3.3,14.39-4.93,6.23-2.33,10.84,4.62,16.92,3.93,6.4-.96,10.79-6.38,15.23-10.59,5.25-5.15,8.22-3.37,14.39-1.4,3.65,1.3,6.1,4.68,9.31,6.71,2.08,1.43,4.7.68,6.77-.37,1.83-.86,3.87-1.71,5.92-1.74,4.04-.06,7.01,3.17,10.15,5.24,6.78,4,5.52,3.79,13.54,3.94"/><path class="b" d="M10.96,22.86c2.34.61,4.51,1.91,6.77,2.73,4.62,1.67,9.69,1.16,14.39.08,3.6-.59,6.35-3.14,9.31-5.05,1.27-.76,2.85-1.21,4.23-1.72,2.44-.92,5.25-1.03,7.62.16,6.08,3.07,11.49,8.4,18.62,8.78,4.52.07,8.11-3.14,11.85-5.22,6.5-3.77,12-1.75,17.77,2.17,5.11,3.5,10.24.42,14.39-3.03,3.62-3.1,7.1-6.81,11.85-8.09,1.91-.56,3.98-.94,5.92-1.37,2.51-.65,5.46-.94,7.62.78,2.42,2.08,3.96,5.18,5.92,7.65,1.36,1.83,3.53,3.41,5.92,3.02,2.21-.29,4.53-.98,6.77-.48,2.45.52,4.63,2.05,6.77,3.27,1.85.99,3.9,1.94,5.92,2.5,2.76.58,5.68-.1,8.46.33"/><path class="b" d="M10.96,20.58c2.3.63,4.49,1.89,6.77,2.57,6.82,2.01,13.14.65,18.62-3.83,1.84-1.42,3.72-3.13,5.92-3.96,3.36-.92,7.2-1.15,10.15,1,2.85,1.9,5.3,4.58,8.46,6,1.85.83,3.94,1.35,5.92,1.72,1.35.28,2.84.72,4.23.67,4.17-.14,7.37-3.26,11-4.91,2.61-1.25,5.61-1.42,8.46-1.44,2.22-.02,4.58-.11,6.77.35,3.32.72,5.96,3.34,9.31,3.95,6.09.68,10.21-4.97,15.23-7.36,3.18-1.51,6.85-1.65,10.15-2.78,1.42-.48,2.96-1.15,4.23-1.94,1.3-.78,2.73-1.77,4.23-2.1,5.17-1.03,7.39,6.28,10.15,9.44,1.25,1.66,3.03,3.2,5.08,3.73,2.22.56,4.64.8,6.77,1.69,3.33,1.34,6.53,3.39,10.15,3.81,2.79.3,5.7-.16,8.46.39"/></svg>