<?xml version="1.0" encoding="UTF-8"?><svg id="a" xmlns="http://www.w3.org/2000/svg" width="1920" height="2400" viewBox="0 0 192 240"><defs><style>.b{fill:none;stroke:#fff;stroke-miterlimit:10;stroke-width:.3px;}.c{stroke-width:0px;}</style></defs><rect class="c" width="192" height="240"/><path class="b" d="M10.86,225.19c5.92.52,9.48,9.77,16.1,5.47,3.47-2.34,6.25-6.62,11.01-5.46,1.38.24,2.87.73,4.24,1.02,1.07.18,2.34.38,3.39.67,3.31,1.05,6.94,1.69,10.17,0,3.82-1.85,7.11-4.77,11.01-6.45,3.19-1.4,6.75-1.8,10.17-2.31,3.93-.58,7.92-1.08,11.86-1.53,2.52-.23,5.09-.93,7.62-.98,5.79.13,7.78,6.73,11.01,10.46,3.53,4.26,5.67-.91,9.32-1.38,2.78-.36,5.68-.55,8.47-.22,3.92.49,8.12,1.17,11.86-.51,3.1-1.38,5.99-3.4,9.32-4.24,3.32-1.2,5.97,1.75,8.47,3.44,2.08,1.23,4.43,2.33,6.78,2.92,8.12,1.94,12.91-11.97,19.49-8.82"/><path class="b" d="M10.86,224.65c3.96.21,6.64,3.68,10.17,5.03,6.23,2.49,9.28-5.41,14.4-7.1,1.93-.57,4.03-.21,5.93.29,2.29.43,4.59,1.19,6.78,1.99,2.5.88,5.3.63,7.62-.63,3.75-1.99,7.14-4.73,11.01-6.49,6.63-2.83,14.12-2.3,21.18-2.4,1.66-.03,3.45-.15,5.08-.48,1.91-.42,3.95-1.04,5.93-.88,6.94.35,8.83,15.01,15.25,10.43,1.47-1.09,3.26-1.87,5.08-2.12,1.91-.43,3.98-.67,5.93-.56,3.36.19,6.83,1.01,10.17.25,2.03-.49,3.99-1.56,5.93-2.31,1.32-.47,2.88-.79,4.24-1.17,3.94-1.23,6.84,2.54,10.17,3.91,1.86.7,3.96,1.14,5.93,1.39,8.25.92,12.94-9.16,19.49-7.06"/><path class="b" d="M10.86,224.55c3.04-.02,5.74,1.62,8.47,2.73,6.56,2.92,9.79-2.76,14.4-6.16,2.43-1.85,5.64-1.88,8.47-1.08,2.93.43,5.52,2.29,8.47,2.59,3.13.24,5.9-1.68,8.47-3.21,3.76-2.27,7.5-4.92,11.86-5.88,6.16-1.42,12.44.56,18.64.55,1.99,0,4.05-.48,5.93-1.12,2.42-.78,5.3-1.69,7.62-.16,3.25,2.17,4.8,6.16,7.62,8.77,1.92,1.77,4,.75,5.93-.39,1.89-.8,3.96-1.54,5.93-2.11,2.78-.59,5.69.05,8.47.31,1.65.15,3.47.15,5.08-.25,1.94-.54,3.96-1.25,5.93-1.68,2.61-.91,5.23-.94,7.62.62,1.88,1.15,3.78,2.61,5.93,3.23,4.2.91,8.76.52,12.71-1.2,4.2-1.63,7.9-4.72,12.71-3.69"/><path class="b" d="M10.86,224.71c2.85-.1,5.69.59,8.47,1.06,6.31,1.35,9.87-3.51,14.4-6.81,2.43-1.8,5.56-2.31,8.47-1.65,2.65.27,5.03,1.8,7.62,2.29,4.06.62,7.65-2.16,11.01-4.04,2.66-1.66,5.51-3.21,8.47-4.26,5.85-2.38,10.39-.12,16.1,1.09,2.47.5,5.13.69,7.62.27,1.71-.32,3.48-.96,5.08-1.61,2.1-.9,4.68-1.74,6.78-.38,3.43,2.15,4.83,6.71,8.47,8.55,1.4.52,2.96-.15,4.24-.74.75-.32,1.82-.65,2.54-1.03,3.28-1.99,5.63-2.17,9.32-1.27,10.22,2.83,12.75-3.88,18.64-.22,4.61,3.12,6.8,4.92,12.71,3.84,4.66-.5,9.05-2.41,13.56-3.56,2.19-.46,4.56-.36,6.78-.15"/><path class="b" d="M10.86,224.78c13.08-.18,12.55-.51,22.87-7.8,2.72-1.89,6.08-2.41,9.32-2.04,2.59.14,5.02,1.55,7.62,1.63,3.71.01,7.05-2.12,10.17-3.91,2.39-1.4,5.05-2.45,7.62-3.45,8.6-3.97,10.01-.3,17.79,1.9,3.03.83,6.28.83,9.32.05,2.36-.55,4.52-1.91,6.78-2.72,4.64-1.71,7.27,3.56,10.17,6.15,1.37,1.32,3.34,1.67,5.08.9,1.79-.53,3.51-1.53,5.08-2.51,1.78-1.07,4.04-1.04,5.93-.26,4.71,2,6.88,3.09,11.86.71,6.25-3.16,9.42,4.23,15.25,4.78,5.48.17,10.73-2.16,16.1-2.96,3.07-.55,6.25-.03,9.32.23"/><path class="b" d="M10.86,224.27c9.99-.04,14.84-4.37,22.87-9.09,3.05-1.83,6.66-2.45,10.17-2.66,1.97-.04,3.98.58,5.93.76,1.99.19,4.08-.23,5.93-.95,2.3-.89,4.44-2.38,6.78-3.2,3.2-.91,6.27-2.34,9.32-3.66,2.15-.88,4.68-1.02,6.78.08,3.72,2.08,7.46,4.71,11.86,4.99,2.23.01,4.6.01,6.78-.52,3.98-.91,7.85-5.66,11.86-2.26,1.96,1.48,3.53,3.82,5.93,4.64,2.03.46,4.2-.56,5.93-1.54,1.28-.85,2.69-1.95,4.24-2.23,4.44-.58,7.3,5.39,11.86,3.85,1.97-.61,3.83-1.98,5.93-2.08,2.19-.02,4.16,1.39,5.93,2.52,2.26,1.51,4.82,3.02,7.62,3.06,4.3-.15,8.47-1.71,12.71-2.3,3.94-.61,7.95.14,11.86.62"/><path class="b" d="M10.86,222.97c9.16-.49,16.44-6.76,24.57-10.28,2.98-1.21,6.15-2.27,9.32-2.82,2.24-.2,4.54.39,6.78.31,2.7,0,5.22-1.22,7.62-2.3,1.88-.81,4.04-1.11,5.93-1.87,3.6-1.32,6.99-4.17,11.01-3.73,2.6.36,4.68,2.26,6.78,3.68,1.8,1.22,3.91,2.16,5.93,2.93,1.32.44,2.86.53,4.24.65,1.64.21,3.46.3,5.08-.1,3.62-.69,6.28-4.76,10.17-4.07,2.58.73,4.27,3.26,6.78,4.14,2.03.59,4.21-.44,5.93-1.45,1.94-1.38,4.24-3.59,6.78-2.34,2.49,1.19,4.08,4,6.78,4.8,2.15.41,4.07-1.14,5.93-1.95,2.57-1.32,5.4.02,7.62,1.41,2.36,1.4,4.85,2.98,7.62,3.38,4.56.35,9.03-1.43,13.56-1.76,3.95-.26,7.94.45,11.86.81"/><path class="b" d="M10.86,220.89c4.79-.67,9.21-2.9,13.56-4.91,6.15-2.81,12.25-5.87,18.64-8.12,2.98-1.18,6.24-.16,9.32-.52,2.62-.29,5.05-1.65,7.62-2.12,2.65-.56,5.25-1.66,7.62-2.94,3.37-1.9,7.37-3.55,11.01-1.35,2.05,1.13,3.92,2.8,5.93,4,2.19,1.18,4.4,2.66,6.78,3.43,12.04,4.59,12.86-8.6,21.18-2.19,3,2.33,5.43,1.83,8.47-.11,2.23-1.65,4.75-4.72,7.62-2.42,1.78,1.33,3.1,3.49,5.08,4.55,5.11,1.44,6.17-5.6,13.56-1.38,8.22,4.79,8.42,4.64,17.79,3.19,5.32-.99,10.75-.25,16.1.12"/><path class="b" d="M10.86,218.35c3.22-.59,6.27-2.02,9.32-3.17,4.53-1.76,9.1-3.59,13.56-5.53,3.61-1.45,7.26-3.11,11.01-4.15,1.92-.34,3.99-.12,5.93-.28,1.39-.1,2.88-.53,4.24-.85,2.56-.5,5.19-1.09,7.62-2.05,5.34-1.95,10.27-6.7,16.1-3.24,2.87,1.71,5.64,3.76,8.47,5.53,1.65,1.17,3.25,2.69,5.08,3.58,2.92,1.38,6.52,1.34,9.32-.3,2.07-1.17,3.84-3.04,5.93-4.18,6.27-2.73,6.57,6.4,16.1-.88,5.83-4.8,6.87,4.62,11.86,3.7,2.35-.66,4.27-2.7,6.78-2.92,4.55-.04,8.34,3.34,12.71,4.26,1.62.42,3.44.3,5.08.14,2.51-.19,5.11-.47,7.62-.63,4.5-.2,9.06.31,13.56.52"/><path class="b" d="M10.86,215.48c2.61-.48,5.12-1.62,7.62-2.44,3.38-1.14,6.83-2.29,10.17-3.54,4.71-1.82,9.64-3.11,14.4-4.78,1.86-.72,3.97-.81,5.93-1.06,2.85-.38,5.76-.87,8.47-1.84,3.13-1.03,6.33-2.13,9.32-3.53,4-2.06,7.7-3.09,11.86-.74,2.86,1.68,5.84,3.41,8.47,5.43,1.46,1.21,2.68,2.99,4.24,4.09,2.44,1.6,5.67,1.93,8.47,1.22,3.82-.91,6.18-4.38,9.32-6.43,1.81-1.2,4.07-.63,5.93.13,2.45.99,5.15.22,7.62-.29,1.61-.44,3.47-1.16,5.08-.35,3.55,2.06,4.52,6.2,9.32,3.32,1.79-1.02,3.8-2.13,5.93-2,4.01.37,7.84,2.03,11.86,2.42,4.2.33,8.49-.21,12.71-.11,4.51.12,9.05.52,13.56.73"/><path class="b" d="M10.86,212.36c6.58-1.49,12.96-3.9,19.49-5.61,3.35-.82,6.83-1.35,10.17-2.23,1.38-.35,2.86-.95,4.24-1.31,1.94-.45,4.02-.8,5.93-1.39,3.13-.98,6.16-2.5,9.32-3.4,1.93-.57,4.01-1.06,5.93-1.7,1.65-.53,3.38-1.3,5.08-1.66,4.65-1.08,8.84,1.87,12.71,4.01,1.54.86,3.11,2.06,4.24,3.42.95,1.23,2.07,2.74,3.39,3.6,4.19,2.47,9.85,1.62,13.56-1.38,2.66-1.96,4.54-5.12,7.62-6.47,1.87-.71,3.99-.2,5.93-.29,4.61-.23,8.97,2.22,11.86,5.7,2.54,2.94,4.59,2.16,7.62.48,1.54-.84,3.32-1.61,5.08-1.81,3.07-.33,6.24.1,9.32.05,3.65.06,7.36-.34,11.01-.06,5.93.28,11.87.93,17.79,1.24"/><path class="b" d="M10.86,209.05c5.72-.88,11.29-2.72,16.94-3.91,5.06-.88,10.3-1.08,15.25-2.55,4.7-1.57,8.95-4.29,13.56-6.06,2.7-.97,5.65-1.04,8.47-1.37,3.09-.38,6.16-1.76,9.32-1.19,3.6.64,7,2.39,10.17,4.15,2.11,1.29,3.49,3.61,5.08,5.42,3.92,3.9,11.11,2.65,15.25-.31,4.36-2.84,6.79-8.34,11.86-10.08,2.97-1.15,5.48-.09,7.63,2.09,1.9,1.92,3.49,4.39,5.08,6.56,1.08,1.4,2.36,3.27,4.24,3.57,2.12.14,4.12-1.1,5.93-2.04,2.09-1.15,4.41-2.14,6.78-2.56,2.49-.44,5.11-.67,7.62-.95,2.22-.2,4.54-.58,6.78-.41,4.23.38,8.49,1.01,12.71,1.44,2.5.26,5.13.25,7.62.57"/><path class="b" d="M10.86,205.62c5.12-.55,10.18-1.72,15.25-2.62,4.21-.52,8.51-.74,12.71-1.4,6.01-.84,10.52-5.68,16.1-7.72,4.65-1.93,9.63.54,14.4-.51,3.1-.55,6.34-.21,9.32.76,2,.64,4.17,1.3,5.93,2.48,2.63,1.81,3.92,5.27,6.78,6.77,2.1.91,4.56.8,6.78.46,3.89-.58,7.4-2.73,10.17-5.46,3.52-3.17,6.55-9.09,11.01-10.71,5.86-.5,8.97,10.62,12.71,14.13,4.62,4.35,9.77-2.02,14.4-3.19,3.85-1.03,7.92-1.38,11.86-1.86,3.7-.19,7.35,1.03,11.01,1.39,3.91.68,7.95.61,11.86,1.2"/><path class="b" d="M10.86,202.19c2.49-.5,5.12-.57,7.62-.91,3.08-.4,6.21-.97,9.32-1.17,2.52-.14,5.12-.37,7.62-.73,2.33-.12,4.73-.62,6.78-1.78,5.69-2.58,11.02-8.41,17.79-6.73,2.52.59,4.99,1.91,7.62,1.94,2.23-.09,4.54-.51,6.78-.46,3.14.08,6.5.4,9.32,1.88,1.65,1.02,3,2.76,4.24,4.23,1.08,1.4,2.42,3.02,4.24,3.41,6.76,1.06,13.39-2.68,17.79-7.59,1.79-2.03,3.43-4.46,5.08-6.6,1.15-1.43,2.5-3.15,4.24-3.88,5.52-1.43,9.75,10.76,13.56,13.92,4.89,4.55,9.56-.25,14.4-1.96,3.54-1.05,7.35-1.23,11.01-1.54,3.73-.09,7.31,1.48,11.01,1.74,3.92.59,8.01.25,11.86,1.28"/><path class="b" d="M10.86,198.98c3.54-1.11,7.36-1.04,11.01-1.46,5.34-.61,10.85-.33,16.1-1.59,4.53-1.42,8.45-4.35,12.71-6.38,7.97-3.5,9.47.79,16.1,2.63,2.55.31,5.14-.62,7.63-1.05,4.38-1.05,8.89-.39,11.86,3.27,2.2,2.27,3.92,5.88,7.62,5.46,6.67-.34,12.68-4.2,16.94-9.16,2.72-3.15,4.46-7.31,7.62-10.06,2.88-2.11,5.83,1.17,7.62,3.23,3.91,4.22,7.16,10.86,13.56,11.29,3.31.1,6.19-1.98,9.32-2.71,3.58-.69,7.38-.91,11.01-.53,2.81.47,5.57,1.71,8.47,1.62,4.23.13,8.7-.47,12.71,1.22"/><path class="b" d="M10.86,196.35c4.78-2.09,10.1-2.38,15.25-2.45,2.23-.05,4.55.14,6.78,0,1.68-.21,3.48-.59,5.08-1.17,4.31-1.77,8.34-4.33,12.71-5.98,8.95-3.17,10.25,4.79,16.94,5.01,2.73-.29,5.08-2.03,7.62-2.89,3.11-.91,6.79-.4,9.32,1.69,1.53,1.24,2.96,2.92,4.24,4.41,1,1.3,2.5,2.56,4.24,2.52,7-.28,13.16-4.47,17.79-9.46,2.91-3.21,4.6-7.54,7.62-10.64,3.23-2.88,6.87,1.13,9.32,3.2,2.46,2.19,4.92,4.57,7.62,6.46,3.26,1.99,7.01,4.59,11.01,3.62,4.1-1.21,8.48-1.66,12.71-.94,1.97.34,3.94,1.22,5.93,1.42,1.96.02,3.98-.57,5.93-.71,3.41-.38,7.1-.21,10.17,1.47"/><path class="b" d="M10.86,194.61c5.43-2.84,11.73-4.04,17.79-2.95,2.63.46,5.25-.57,7.62-1.59,1.69-.72,3.44-1.65,5.08-2.48,1.33-.61,2.9-1.05,4.24-1.64,2.4-1,4.98-2.04,7.62-2,3.91.01,6.5,3.42,9.32,5.63,6.74,5.23,8.93-6.22,19.49-2.84,2.37.85,4.28,2.77,5.93,4.6,1.2,1.28,2.43,3.06,4.24,3.49,2.59.35,5.23-.7,7.62-1.58,4.66-1.83,8.47-5.45,11.86-9.03,2.84-3.2,4.46-7.55,7.62-10.45,1.93-.13,4.01-.17,5.93.02,2.92,1.46,5.75,3.3,8.47,5.11,2.58,1.76,5.3,3.53,7.62,5.62,2.23,2.03,4.31,4.28,7.63,3.6,2.49-.4,5.1-.75,7.62-.45,1.98.17,3.98.89,5.93,1.22,2.37.26,4.5-1.3,6.78-1.68,3.94-.71,8.32-.41,11.86,1.57"/><path class="b" d="M10.86,192.92c5.13-1.98,10.52-3.83,16.1-3.32,2.7.04,5.27-1.14,7.62-2.34,3.26-1.6,6.52-3.45,10.17-3.96,2.99-.75,6.29-1.77,9.32-.65,3.08,1.25,5.06,4.21,7.62,6.18,5.95,4.48,8.99-7.78,20.33-4.63,2.33.7,4.3,2.43,5.93,4.18,1.28,1.25,2.49,3.06,4.24,3.68,2.28.53,4.67-.46,6.78-1.26,5.1-1.86,8.98-5.88,12.71-9.66,1.51-1.66,2.98-3.71,4.24-5.57.99-1.28,1.89-3.26,3.39-4,2.8,0,5.67,0,8.47,0,1.7.04,3.61-.3,5.08.77,11.61,6.14,11.04,14.66,18.64,13.93,1.65-.09,3.44-.14,5.08.06,1.64.2,3.44.57,5.08.19,2.89-.75,5.32-3.15,8.47-2.92,3.7,0,7.61.42,11.01,1.95"/><path class="b" d="M10.86,189.57c3.26-1.18,6.69-2.22,10.17-2.46,1.36-.13,2.88,0,4.24-.05,1.4-.09,2.93-.48,4.24-.98,3.66-1.55,7.1-3.8,11.01-4.73,1.34-.35,2.87-.32,4.24-.41,1.65-.13,3.43-.32,5.08-.14,4.41.33,6.96,4.4,10.17,6.89,5.3,4.09,10.67-9.03,22.03-5.89,2.29.59,4.31,2.11,5.93,3.79,1.32,1.25,2.6,2.96,4.24,3.8,3.22.89,6.46-1.17,9.32-2.44,4.69-2.42,8.24-6.61,11.86-10.34,2.08-2.19,3.67-5.1,5.93-7.11,3.65,0,7.36,0,11.01,0,1.36,0,2.88,0,4.24,0,.78,0,1.82-.07,2.54.26,3.06,2.16,5.57,5.18,7.62,8.28,2.65,3.99,5.06,6.55,10.17,6.5,7.28.62,8.15-3.63,13.56-3.68,2.25.05,4.57.46,6.78.83,1.94.34,4.03.57,5.93,1.14"/><path class="b" d="M10.86,185.94c7.55-4.14,9.93.14,16.94-2.66,3.43-1.28,6.51-3.68,10.17-4.31,2.22-.46,4.56-.26,6.78.05,1.99.18,4.13.46,5.93,1.38,1.9.95,3.58,2.56,5.08,4.04,1.18,1.1,2.55,2.53,4.24,2.74,2.24-.05,4.03-1.89,5.93-2.87,5.52-2.98,9.37-6.43,16.1-4.7,2.68.55,4.92,2.37,6.78,4.29,1.25,1.15,2.53,2.79,4.24,3.24,3.03.26,5.8-1.58,8.47-2.75,4.04-1.77,7.1-5.1,10.17-8.16,1.71-1.68,3.49-3.56,5.08-5.36,1.03-1.1,2.13-2.61,3.39-3.47,4.5,0,9.05,0,13.56,0,1.06,0,2.33,0,3.39,0,.79,0,1.84-.09,2.54.35,1.46,1.21,3.01,2.66,4.24,4.11,2.97,3.44,5.29,8.47,10.17,9.41,2.27.41,4.69-.1,6.78-1.02,1.86-.81,3.84-1.9,5.93-1.76,2.55.11,5.13.76,7.62,1.23,2.2.44,4.55.61,6.78.89"/><path class="b" d="M10.86,183.81c6.14-4.26,7.97.41,16.1-3.33,3.39-1.4,6.46-3.99,10.17-4.49,2.28-.15,4.61.45,6.78,1.09,3.56.85,6.78,2.81,9.32,5.42,2.21,2.13,4.47,4.63,7.62,2.48,1.06-.65,2.28-1.49,3.39-2.06,1.33-.68,2.93-1.18,4.24-1.9,4.78-3.08,8.65-4.67,14.4-3.15,3.84.97,6.12,4.6,9.32,6.64,3.08,1.42,7.21-1.88,10.17-2.92,5.2-2.06,8.75-6.61,12.71-10.34,2.19-1.95,4.18-4.53,6.78-5.94,5.92.03,11.88-.06,17.79.04,2.35,1.62,4.79,3.4,6.78,5.45,2.24,2.36,4.37,5.35,7.62,6.31,3.12.89,6.25-.61,9.32-1.01,3.14-.17,6.28.9,9.32,1.56,2.74.71,5.64,1.04,8.47,1.09"/><path class="b" d="M10.86,182.96c1.81-.97,3.87-1.74,5.93-1.89,2.31,0,4.68-.4,6.78-1.4,4.38-1.88,8.03-5.45,12.71-6.63,2.68-.33,5.24,1.15,7.62,2.16,4.04,1.75,6.96,5.19,10.17,8.06,3.11,2.7,5.66.06,8.47-1.52,1.56-.87,3.46-1.27,5.08-1.98,2.71-1.44,5.38-3.28,8.47-3.8,11.26-2.12,12.47,7.28,18.64,6.68,2.09-.44,3.98-1.75,5.93-2.57,2.55-1.09,5.35-1.94,7.62-3.57,4.68-3.32,10.75-11.79,16.1-13.29,2.8,0,5.67,0,8.47,0,1.65.07,3.47-.18,5.08.17,4.14,2.12,8.34,4.41,11.86,7.47,1.87,1.57,4.29,2.71,6.78,2.55,2.51-.11,5.12-.8,7.62-.27,2.53.64,5.17,1.28,7.62,2.17,2.95,1.14,6.15,1.77,9.32,1.73"/><path class="b" d="M10.86,181.79c1.64-.49,3.4-1.02,5.08-1.35,1.68-.3,3.51-.5,5.08-1.21,5.77-2.21,9.84-8.04,16.1-9.05,3.24.16,7.82,3.43,10.17,5.64,3.07,2.54,6.35,9.05,11.01,6.56,1.93-1.04,3.81-2.44,5.93-3.1,2.69-.66,5.16-2.05,7.62-3.25,3.67-1.71,8.06-2.43,11.86-.7,3.07,1.2,5.29,4.09,8.47,5.05,2.38.89,4.74-.36,6.78-1.52,1.82-1,3.93-1.62,5.93-2.16,7.44-2.22,11.46-9.73,17.79-13.7,1.76-1.03,3.84-2.02,5.93-1.89,1.65.07,3.47-.19,5.08.21,4.21,1.06,7.89,3.62,11.86,5.29,3.16,1.7,6.33,4.34,10.17,3.58,1.93-.28,3.96-.8,5.93-.72,2.9.21,5.72,1.35,8.47,2.22,3.48,1.67,7.04,3.59,11.01,3.58"/><path class="b" d="M10.86,180.16c3.72-.6,7.71-1.01,11.01-2.94,5.45-2.79,9.72-8.95,16.1-9.47,2.93.46,5.48,2.56,7.63,4.49,3.03,2.63,6.07,8.71,10.17,9.15,2.19,0,4.06-1.56,5.93-2.52,2.38-1.31,5.16-1.84,7.62-2.95,3.43-1.5,7.21-3.06,11.01-2.28,1.74.35,3.54,1.08,5.08,1.96,1.61.97,3.27,2.18,5.08,2.74,5.76,1.56,6.29-.52,11.01-2.43,1.92-.63,4.09-.81,5.93-1.7,5.78-2.91,10.18-7.91,15.25-11.82,7.79-6.22,14.72.16,22.03,3.42,2.99,1.36,5.8,4.25,9.32,2.71,1.93-.72,3.87-1.82,5.93-2.13,3.5-.46,6.94,1.03,10.17,2.19,3.56,1.8,6.88,4.51,11.01,4.81"/><path class="b" d="M10.86,178.18c3.44-.09,7.13-.55,10.17-2.28,5.77-3.09,10.18-9.12,16.94-10.08,2.61-.14,4.91,1.73,6.78,3.35,1.84,1.75,3.5,3.96,5.08,5.94,1.4,1.69,2.97,3.66,5.08,4.46,2.42.79,4.74-.82,6.78-1.91,2.35-1.35,5.04-2.18,7.62-2.93,2.72-.85,5.58-1.86,8.47-1.64,3.93.32,7.25,2.9,11.01,3.83,1.62.4,3.43.43,5.08.23.77-.02,1.81-.04,2.54-.32,1.76-.75,3.31-2.2,5.08-2.94,2.19-.78,4.68-.96,6.78-2.02,5.46-2.9,10.35-7.06,15.25-10.79,1.95-1.42,4.28-2.8,6.78-2.7,5.43.72,9.55,4.98,14.4,7.18,2.65,1.64,5.26,4.43,8.47,2.18,1.89-1.21,3.71-2.9,5.93-3.5,3.74-.87,7.51.92,11.01,2.06,3.72,1.59,6.9,4.58,11.01,5.2"/><path class="b" d="M10.86,176c3.44.14,7.16-.29,10.17-2.09,5.96-3.43,11.21-9.77,18.64-9.45,2.32.39,4.29,2.06,5.93,3.65,2.69,2.68,4.78,6.09,7.62,8.61,4,3.67,7.93.02,11.86-1.64,2.65-1.13,5.61-1.68,8.47-1.92,2.63-.21,5.24.63,7.62,1.65,1.57.68,3.39,1.02,5.08,1.21,3.43.49,6.86-.55,10.17-1.34,1.82-.81,3.24-2.54,5.08-3.32,2.47-.85,5.27-.9,7.62-2.14,2.36-1.12,4.56-2.77,6.78-4.13,2.99-1.64,5.71-3.87,8.47-5.84,3.23-2.38,6.66-3.43,10.17-.86,3.13,2.02,6.08,4.46,9.32,6.31,2.64,1.95,5.17,5.19,8.47,2.27,5.61-5.3,7.21-4.79,14.4-2.92,1.97.47,4.1.85,5.93,1.77,2.74,1.37,5.39,3.26,8.47,3.76"/><path class="b" d="M10.86,173.81c4.15.32,8.44-.68,11.86-3.09,3.78-2.44,7.42-5.53,11.86-6.67,3.91-1.14,7.12-.78,10.17,2.04,2.16,1.82,4.08,4.13,5.93,6.26,2.12,2.41,4.91,5.48,8.47,4.65,5.19-1.54,8.37-4.83,14.4-3.62,2.9.49,5.53,2.26,8.47,2.55,3.86.14,7.65-1.16,11.01-2.95,1.31-.67,2.9-1.1,4.24-1.7,1.11-.63,2.28-1.62,3.39-2.26,2.36-1.15,5.21-.83,7.62-1.85,2.38-.92,4.58-2.45,6.78-3.72,3.01-1.43,5.84-3.32,8.47-5.36,4.32-3.32,7.58-4.2,11.86-.16,2.34,2.15,5.03,4.01,7.63,5.83,2.1,1.81,4.76,4.99,7.62,2.62,6.4-5.88,6.46-4.37,14.4-2.92,2.5.47,5.19.42,7.62,1.22,2.82,1,5.42,2.89,8.47,3.14"/><path class="b" d="M10.86,171.87c7.03.23,11.32-2.96,16.94-6.43,3.52-2.1,7.75-3.36,11.86-2.89,1.93.23,3.64,1.43,5.08,2.66,3.64,2.92,6.3,7.07,10.17,9.71,5.39,3.45,10.4-3.1,16.1-2.16,2.7.26,5.07,1.88,7.62,2.66,5.48,1.42,10.07-2.95,14.4-5.59,1.54-.99,3.4-1.58,5.08-2.25,1.04-.54,2.26-1.25,3.39-1.58,1.62-.43,3.45-.45,5.08-.85,2.09-.51,4.08-1.63,5.93-2.68,2.79-1.61,6.01-2.6,8.47-4.77,2.32-1.69,4.6-4.16,7.63-4.39,2.76.03,4.97,2.17,6.78,4.03,1.47,1.57,3.3,3,5.08,4.18,2.46,1.71,5.24,5.62,8.47,3.29,6.88-5.92,6.71-3.1,14.4-1.52,3.04.67,6.27.3,9.32.88,2.79.7,5.51,2.21,8.47,1.97"/><path class="b" d="M10.86,169.89c3.19-.18,6.41-1.08,9.32-2.37,2.86-1.35,5.6-3.13,8.47-4.46,3.38-1.57,7.33-2.14,11.01-1.54,2.36.42,4.24,2.17,5.93,3.74,3.92,3.35,7.76,9.53,13.56,8.9,2.33-.33,4.54-1.49,6.78-2.16,4.51-1.59,7.84.62,11.86,2.22,5.41,1.62,9.61-3.42,13.56-6.29,1.27-.98,2.79-1.95,4.24-2.65,1.32-.54,2.9-.78,4.24-1.29,1.89-.61,3.99-.76,5.93-1.15,2.06-.44,4.07-1.46,5.93-2.43,1.57-.89,3.45-1.43,5.08-2.19,1.85-.96,3.53-2.48,5.08-3.85,1.65-1.39,3.59-3.27,5.93-2.96,4.4,1.05,6.5,5.75,10.17,8,2.46,1.6,5.32,4.45,8.47,3.2,1.45-.67,2.81-1.88,4.24-2.61,2.23-1.24,4.76-.02,6.78,1.1,1.57.84,3.36,1.57,5.08,2.03,3.01.89,6.22.76,9.32.85,3.08.34,6.23,1.36,9.32.47"/><path class="b" d="M10.86,167.48c6.08-.74,11.39-4,16.94-6.3,3.98-1.51,8.68-1.8,12.71-.31,1.99.83,3.57,2.57,5.08,4.04,2.05,2.02,4.21,4.19,6.78,5.56,6.68,3.77,12.7-3.03,19.49-.55,2.8.84,5.43,2.87,8.47,2.68,6.07-1.15,10.26-8.4,16.1-10.58,3.35-.66,6.89-.83,10.17-1.87,1.7-.55,3.44-1.41,5.08-2.12,1.32-.6,2.93-.9,4.24-1.54,3.26-1.56,5.32-4.93,8.47-6.62,5.08-2.16,8.9,9.35,16.94,10.3,4.51.69,7.38-5.25,11.86-2.59,3.8,2.33,7.36,5.44,11.86,6.3,2.19.52,4.55.34,6.78.22,3.15.03,6.36-.31,9.32-1.46"/><path class="b" d="M10.86,164.73c6.76-1.29,12.63-5.59,19.49-6.46,3.41-.27,7.16.07,10.17,1.81,5.27,3.61,7.62,9.7,15.25,8.54,3.13-.41,6.2-1.52,9.32-2.01,4.18-.84,8.12,1.17,11.86,2.75,2.77,1.28,5.26.55,7.62-1.17,2.39-1.58,4.61-3.59,6.78-5.45,1.75-1.41,3.65-3.14,5.93-3.57,1.94-.05,4.02-.04,5.93-.45,2.61-.52,5.14-1.63,7.62-2.55,1.33-.5,2.94-.67,4.24-1.26,1.93-.9,3.6-2.53,5.08-4.02,1.51-1.47,3.68-3.92,5.93-2.43,3.8,2.93,6.16,7.99,11.01,9.47,4.1,1.19,6.84-1.29,10.17-3.13,2.33-1.28,5-.06,6.78,1.62,3.51,3.08,7.06,6.76,11.86,7.59,3.08.5,6.34-.02,9.32-.86,2.01-.65,3.97-1.75,5.93-2.52"/><path class="b" d="M10.86,161.74c5.73-1.52,10.97-4.89,16.94-5.45,14.73-.87,13.94,7.63,21.18,9.58,2.87.47,5.72-.75,8.47-1.4,6.48-1.7,10.62-2.4,16.94.43,2.15.83,4.38,2.3,6.78,1.85,5.33-1.48,9.15-5.93,13.56-9,.7-.46,1.71-.96,2.54-1.09,1.65,0,3.44.19,5.08-.05,3.47-.44,6.67-2.3,10.17-2.62,5.2-.39,8.18-8.11,11.86-7.25,1.82.89,2.98,2.98,4.24,4.48,1.36,1.82,3.26,3.4,5.08,4.74,1.49.87,3.41.92,5.08.75,2.91-.19,5.19-2.27,7.62-3.62,3.21-1.84,6.22.23,8.47,2.56,5.28,5.95,9.37,9.59,17.79,7.21,3.09-.84,5.58-3.12,8.47-4.39"/><path class="b" d="M10.86,158.56c3.7-1.16,7.25-2.98,11.01-3.93,3.86-.86,8.03-.78,11.86.18,2.15.62,4.24,1.78,5.93,3.24,1.68,1.43,3.21,3.31,5.08,4.5,2.39,1.56,5.22.42,7.62-.49,2.17-.8,4.51-1.36,6.78-1.78,3.61-.67,7.37-1.5,11.01-.62,2.01.39,4.07,1.09,5.93,1.93,2.33,1.22,5.14,1.84,7.62.7,2.34-.96,4.77-2.04,6.78-3.61,2.57-1.76,5.02-4.99,8.47-4.45,3.15.35,6.29-.47,9.32-1.19,1.62-.43,3.46-.23,5.08-.59,4.53-.92,8.12-9.99,11.86-5.69,1.13,1.39,2.27,3.21,3.39,4.6,1.17,1.36,2.83,2.53,4.24,3.63,1.24.71,2.86.63,4.24.62,1.38,0,2.93-.12,4.24-.61,3.04-1.2,5.76-4.48,9.32-3.33,4.39,1.58,6.42,6.38,10.17,8.89,3.69,2.67,8.73,1.94,12.71.34,2.73-1.19,4.93-3.47,7.62-4.73"/><path class="b" d="M10.86,155.23c3.62-1.21,7.2-2.88,11.01-3.36,1.94-.24,3.99-.14,5.93.03,1.97.13,4.09.31,5.93,1.1,3.76,1.44,6.05,5.04,9.32,7.18,2.52,1.59,5.24-.2,7.63-1.17,1.86-.76,3.95-1.11,5.93-1.36,3.13-.35,6.23-1.19,9.32-1.76,2.22-.35,4.59-.19,6.78.27,2.25.56,4.48,1.59,6.78,2.01,1.95.45,4.02.13,5.93-.32,1.4-.23,2.96-.6,4.24-1.23,2.96-1.36,5.13-4.48,8.47-4.97,1.94-.02,3.99.2,5.93-.06,2.5-.32,5.11-.65,7.62-.24,3.65.16,5.92-3.32,8.47-5.39,3.72-3.49,5.66,1.46,7.62,4.06.61.86,1.72,1.82,2.54,2.46,1.15,1.04,2.59,2.17,4.24,2.11,2.82.13,5.88.82,8.47-.66,1.57-.89,3.27-1.98,5.08-2.28,2.53-.42,4.97,1.09,6.78,2.73,1.9,1.81,3.59,4.13,5.93,5.43,3.67,2.07,8.17.76,11.86-.62,3.1-1.24,5.49-3.86,8.47-5.31"/><path class="b" d="M10.86,151.86c3.29-1.07,6.69-2.28,10.17-2.53,1.66-.1,3.44.1,5.08.28,1.66.15,3.46.23,5.08.62,3.61.75,5.9,3.9,8.47,6.25,4.03,3.72,6.05,1.24,10.17-.31,2.72-.86,5.7-.5,8.47-1.03,2.9-.46,5.66-1.7,8.47-2.5,2.18-.6,4.55-.61,6.78-.28,2.83.19,5.68.75,8.47,1.2,1.35.17,2.88.05,4.24.26,2.03.33,4.22-.04,5.93-1.22,1.89-1.24,3.69-2.97,5.93-3.56,1.33-.37,2.87-.2,4.24-.17,1.36.02,2.88-.04,4.24,0,2-.07,3.96.87,5.93.9,4.28.07,8.02-8.34,11.86-5.03,1.6,1.55,2.72,3.83,4.24,5.46,1.66,1.54,3.51,3.38,5.93,3.39,2.78.38,5.73,1.4,8.47.28,1.32-.55,2.81-1.21,4.24-1.43,3.1-.5,6.12,1.15,8.47,3.02,4.68,4.35,7.49,4.77,13.56,2.75,2.04-.66,4.13-1.59,5.93-2.76,1.95-1.24,3.82-2.9,5.93-3.88"/><path class="b" d="M10.86,148.78c4.34-1.46,9-2.42,13.56-1.48,2.52.33,5.26.19,7.62,1.23,3.48,1.63,5.16,5.62,8.47,7.48,3.02,1.64,5.69-1.14,8.47-1.94,1.62-.44,3.43-.36,5.08-.4,4.54.02,8.62-2.18,12.71-3.86,1.6-.58,3.43-.8,5.08-1.16,2.76-.64,5.71-.94,8.47-.14,1.63.47,3.44.75,5.08,1.17,2.14.79,4.62,1.7,6.78.45,2-1.12,3.78-2.87,5.93-3.73,3.48-1.33,7.56-.94,11.01.31,4.08,2.13,6.11.06,9.32-2.28,1.23-.78,2.69-1.86,4.24-1.58,1.92.61,3.13,2.67,4.24,4.22.83,1.35,2.14,2.73,3.39,3.7,1.35,1.29,3.32,1.62,5.08,1.94,1.35.32,2.85.73,4.24.86,2.58.31,5.07-.98,7.62-.99,4.39-.02,8.1,2.74,11.86,4.61,3.02,1.29,6.39.11,9.32-.89,4.67-1.47,8.46-4.74,12.71-7.04"/><path class="b" d="M10.86,145.99c2.7-.92,5.62-1.48,8.47-1.44,1.68.04,3.42.51,5.08.69,2.25.28,4.73.15,6.78,1.27,3.91,1.85,5.41,6.78,9.32,8.47,3.5.97,5.98-2.74,9.32-2.98,1.65-.19,3.44-.14,5.08-.39,5.17-.74,9.57-3.88,14.4-5.66,2.4-1,4.96-2.15,7.62-2.03,2.9.26,5.7,1.52,8.47,2.32,1.61.66,3.29,1.73,5.08,1.73,2.32-.1,4.08-2,5.93-3.19,2.68-1.83,6.1-2.69,9.32-2.16,2.34.32,4.35,2.23,6.78,2.06,1.89-.19,3.49-1.56,5.08-2.47,2.48-1.28,4.82-1.86,6.78.63,2.4,3.01,4.53,6.97,8.47,8.12,2.48.58,5.06,1.34,7.62,1.34,2.8-.11,5.68-.89,8.47-.18,3.78.76,7.22,2.85,11.01,3.58,2.29.36,4.64-.45,6.78-1.17,5.25-1.65,9.88-4.85,14.4-7.9"/><path class="b" d="M10.86,143.35c2.67-.99,5.64-1.41,8.47-1.1,1.38.19,2.86.64,4.24.86,2.26.37,4.74.33,6.78,1.5,2.43,1.26,4.29,3.52,5.93,5.65,1.17,1.42,2.42,3.26,4.24,3.87,3.71.61,5.86-3.63,9.32-4.21,1.35-.31,2.88-.43,4.24-.67,3.59-.65,6.95-2.38,10.17-4.03,3.8-2.21,8.13-4.94,12.71-4.13,1.71.34,3.45,1.06,5.08,1.62,1.35.47,2.92.79,4.24,1.36,3.33,1.57,5.5,1.81,8.47-.63,2.42-1.88,5.33-3.46,8.47-3.44,2.46-.14,4.57,1.38,6.78,2.18,4.23,1.32,6.7-4.1,11.01-2.78,2.3.87,3.64,3.35,5.08,5.18,1.38,1.74,3.12,3.51,5.08,4.59,2.62,1.13,5.63,1.53,8.47,1.54,1.65-.05,3.43-.37,5.08-.39,1.97-.03,4.04.31,5.93.82,3.32.9,6.66,2.34,10.17,2.19,2.01-.02,4.04-.71,5.93-1.33,1.69-.54,3.51-1.18,5.08-2.02,3.4-1.59,6.32-4.1,9.32-6.31"/><path class="b" d="M10.86,141.11c3.2-1.32,6.86-1.41,10.17-.42,1.91.53,3.99.69,5.93,1.01,9.24,1.91,11.29,14.9,16.94,10.97,2.22-1.74,4.08-4.2,6.78-5.25,3.69-1.25,7.49-2.36,11.01-4.07,1.68-.86,3.35-2.04,5.08-2.78,2.13-.77,4.5-1.29,6.78-1.21,4.06.3,7.8,2.35,11.86,2.76,2.49.63,5.3,1.23,7.62-.23,2.81-1.83,5.78-4.06,9.32-3.87,2.15,0,4.05,1.27,5.93,2.13,5.21,2.42,7.59-5.35,12.71-1.93,1.69,1.23,2.97,3.21,4.24,4.84,1.6,1.98,3.61,3.95,5.93,5.06,3.75,1.55,7.95.99,11.86.54,2.24-.1,4.58.19,6.78.6,3.06.58,6.18,1.43,9.32,1.42,4.05-.09,8.16-1.14,11.86-2.74,3.74-1.88,6.72-5.03,10.17-7.35"/><path class="b" d="M10.86,140.04c3.29-1.03,6.77-.95,10.17-.62,2.22.22,4.61-.23,6.78.43,7.79,2.33,10.66,12.99,15.25,12.42,2.86-1.02,4.43-4.14,6.78-5.93,2.92-2.45,6.6-3.89,10.17-5.13,2.2-.86,4.39-2.16,6.78-2.43,3.37-.04,6.85.04,10.17.73,3.59.9,7.32,1.18,11.01,1.19,5.46.1,8.6-5.34,14.4-4.11,2.08.41,3.87,1.9,5.93,2.36,5.82.86,7.38-7.44,13.56-.75,2.64,3.27,5.31,6.96,9.32,8.62,3.24,1.23,6.82.56,10.17.24,2.8-.22,5.69.29,8.47.55,4.5.62,9.12.58,13.56-.47,2.25-.49,4.69-.82,6.78-1.84,4-2.02,7.13-5.46,11.01-7.67"/><path class="b" d="M10.86,139.27c2.8-.22,5.68-.37,8.47-.67,1.97-.26,3.99-.86,5.93-1.27,5.73-1.06,10.32,6.15,13.56,9.95,4.49,5.7,6.93,2.85,11.01-1.22,1.97-1.91,4.24-3.74,6.78-4.82,2.45-.86,5.03-1.79,7.62-2.09,1.65-.17,3.43,0,5.08,0,1.94-.06,3.99-.28,5.93-.27,4.51.13,9.08.18,13.56-.44,4.78-.88,8.36-4.68,13.56-2.65,1.62.65,3.32,1.58,5.08,1.77,5.15.3,7.49-6.64,12.71-1.72,1.5,1.38,2.84,3.25,4.24,4.73,1.99,1.84,4.19,3.8,6.78,4.72,3.27,1.09,6.81.24,10.17.16,3.93.06,7.92.68,11.86.34,3.44-.21,6.86-1.11,10.17-2.05,2.23-.67,4.65-1.13,6.78-2.1,3.86-1.93,7.09-5.04,11.01-6.85"/><path class="b" d="M10.86,138.2c2.8.17,5.74-.06,8.47-.69,2.04-.54,3.99-1.61,5.93-2.4,4.83-2.43,9.87,5.11,12.71,8.23,4.88,5.91,7.25,6.13,13.56,1.95,2.31-1.54,4.95-2.58,7.63-3.25,2.48-.77,5.08-1.47,7.62-1.98,2.82-.52,5.64-1.37,8.47-1.84,3.07-.5,6.25-.77,9.32-1.24,2.25-.27,4.61-.49,6.78-1.18,2.7-.89,5.63-1.79,8.47-1.07,2.47.64,5.02,1.92,7.62,1.35,2.15-.48,3.98-1.98,5.93-2.91,4.26-1.94,7.42,3,10.17,5.49,7.88,7.04,10.04,5.11,19.49,5.38,4.24.41,8.59,0,12.71-1.09,4.58-1.32,9.08-3.11,13.56-4.74,4.13-1.63,7.7-4.54,11.86-6.12"/><path class="b" d="M10.86,136.35c3.11.02,6.3-.48,9.32-1.19,2.06-.57,4.01-1.73,5.93-2.63,4.49-2.62,9.76,6.05,12.71,8.73,4.26,4.61,7.75,4.8,13.56,3.28,2.21-.6,4.6-.82,6.78-1.51,4.24-1.48,8.36-3.45,12.71-4.62,4.7-1.36,9.6-2.08,14.4-2.96,3.64-.44,7.33-1.65,11.01-1.13,2.49.37,5.09,1.15,7.62.68,8.01-2.17,7.96-7.12,16.1.17,3.16,2.9,6.8,5.7,11.01,6.8,3.6.74,7.37.44,11.01.65,7.12.24,13.93-2.51,20.33-5.34,2.77-1.22,5.72-2.26,8.47-3.51,3.07-1.4,6.09-3.14,9.32-4.17"/><path class="b" d="M10.86,133.43c2.52-.47,5.05-1.34,7.62-1.48,1.66-.09,3.47-.06,5.08-.52,1.41-.39,2.86-1.13,4.24-1.63,3.28-.56,5.56,2.88,7.63,4.9,5.02,5.79,8.1,8.48,16.1,7.01,2.21-.38,4.55-.51,6.78-.79,1.97-.33,4-.91,5.93-1.43,4.99-1.35,10.16-2.07,15.25-2.93,3.95-.71,7.86-1.92,11.86-2.33,2.51-.26,5.11.17,7.62.16,6.42.23,10.21-5.2,15.25-4.43,2.19.52,4.12,2.05,5.93,3.32,3.54,2.82,7.46,5.49,11.86,6.75,2.74.7,5.66.85,8.47.96,3.14.19,6.32-.38,9.32-1.3,6.19-1.64,11.92-4.63,17.79-7.11,4.61-1.45,8.89-3.97,13.56-5.23"/><path class="b" d="M10.86,129.56c3.13-1.48,6.74-2.99,10.17-1.55,1.32.46,2.83.9,4.24.74,1.41-.12,2.82-.98,4.24-.95,4.59.89,7.87,8.05,12.71,10.17,3.82,2.01,8.01-.05,11.86-.89,3.31-.62,6.82-.58,10.17-.31,8.7,1.45,13.61.79,22.03-1.56,1.92-.45,3.97-.92,5.93-1.13,2.24-.18,4.62-.27,6.78-.98,5.01-1.54,9.69-6.13,15.25-4.33,3.36,1.21,6.31,3.48,9.32,5.36,3.93,2.25,8.15,4.32,12.71,4.84,2.78.36,5.73.48,8.47-.19,4.01-1.1,7.95-2.65,11.86-4.06,4.83-1.83,9.39-4.44,14.4-5.78,3.38-1.13,6.66-2.79,10.17-3.49"/><path class="b" d="M10.86,125.25c2.7-1.62,6.23-3.33,9.32-1.77,1.7.89,3.23,2.41,5.08,3.01,1.38.43,2.87-.04,4.24-.28,4.2.15,6.9,5.34,10.17,7.55,3.21,2.57,6.4,2.88,10.17,1.37,4.93-2.08,10.25-3.36,15.25-.71,2.38,1.24,4.84,2.78,7.62,2.77,4.02.02,7.97-1.2,11.86-2.05,3.65-1.04,7.5-1.7,11.01-3.15,6.51-3.22,9.87-7.3,17.79-4.62,8.29,2.96,15.49,9.3,24.57,9.87,5.74.58,10.81-2.72,16.1-4.37,4.62-1.45,9.03-3.58,13.56-5.27,4.57-1.01,8.94-2.98,13.56-3.81"/><path class="b" d="M10.86,121.16c2.68-1.65,6.32-3.06,9.32-1.46,1.89,1.11,3.31,3.06,5.08,4.31,1.21.87,2.8,1.1,4.24.79,3.99-.2,6.4,3.81,9.32,5.91,4.3,3.54,7.66,3.43,12.71,1.72,3.27-.95,6.72-2.14,10.17-1.72,6.11,1.39,6.55,7.15,14.4,4.87,4.84-1.2,9.74-2.38,14.4-4.16,8.77-3.83,9.83-10.78,21.18-6.06,4.57,1.81,9.1,3.86,13.56,5.94,4.05,1.69,8.24,3.64,12.71,3.75,5.2.27,9.66-2.85,14.4-4.47,4.86-1.52,9.67-3.23,14.4-5.1,1.89-.64,4.01-.87,5.93-1.39,2.77-.68,5.63-1.44,8.47-1.78"/><path class="b" d="M10.86,117.64c2.74-1.48,6.35-2.59,9.32-1.15,2.37,1.36,3.82,3.99,5.93,5.66,4.41,2.84,3.82-1.22,11.01,5.06,5.39,4.37,8.6,4.6,15.25,3.69,2.59-.23,5.13-1.1,7.62-1.76,7.97-1.93,7.01,8.3,16.94,4.19,2.24-.73,4.64-1.37,6.78-2.38,2.2-1.09,4.61-1.95,6.78-3.1,1.87-.97,3.52-2.56,5.08-3.94,4.71-4.41,8.89-3.82,14.4-1.34,4.45,2.14,8.95,4.26,13.56,6.04,5.07,2.03,10.52,4.43,16.1,3.73,4.83-.62,8.92-3.68,13.56-4.99,2.5-.77,5.15-1.41,7.62-2.27,2.23-.75,4.5-1.74,6.78-2.36,4.47-.8,9.02-1.48,13.56-1.78"/><path class="b" d="M10.86,114.74c3.06-1.39,7.17-2.59,10.17-.47,2.24,1.73,3.7,4.47,5.93,6.21,1.68,1.37,4.08,1.07,5.93,2.07,2.59,1.42,4.97,3.38,7.62,4.7,2.84,1.57,6.15,1.89,9.32,2.22,3.21.48,6.39.37,9.32-1.16,1.81-.82,3.99-1.88,5.93-.88,2.8,1.57,4.81,5.3,8.47,4.76,4.3-.75,8.29-2.83,11.86-5.27,1.92-1.18,4.08-2.22,5.93-3.5,2.51-1.76,4.59-4.45,7.62-5.35,6.28-1.54,13.97,3.62,19.49,6.23,7.63,3.23,16.28,7.22,24.57,4.1,2.85-1.02,5.58-2.54,8.47-3.45,3.04-.97,6.28-1.53,9.32-2.52,2.23-.69,4.5-1.65,6.78-2.18,4.46-.71,9.06-.53,13.56-.45"/><path class="b" d="M10.86,112.18c3.81-1.54,8.94-2.38,11.86,1.22,1.89,2,3.5,4.57,5.93,5.97,1.01.53,2.33.79,3.39,1.22,1.12.44,2.35,1.16,3.39,1.77,3.44,1.99,7.13,3.66,11.01,4.53,4.66,1.27,8.17,3.14,12.71.22,1.76-.98,3.84-2.48,5.93-1.63,2.67,1.28,4.41,4.54,7.62,4.67,5.26-.11,9.51-3.68,13.56-6.63,1.92-1.27,4.09-2.41,5.93-3.8,1.84-1.45,3.67-3.24,5.93-4.04,5.84-1.9,14.42,2.36,19.49,5.25,2.68,1.49,5.63,2.65,8.47,3.76,3.79,1.19,7.9,1.77,11.86,1.33,3.83-.46,7.41-2.11,11.01-3.37,3.28-1.12,6.81-1.5,10.17-2.32,2.82-.64,5.61-1.77,8.47-2.25,4.53-.45,9.06.73,13.56,1.05"/><path class="b" d="M10.86,109.85c3.21-.97,7.05-1.65,10.17-.06,3,1.82,4.85,5.14,7.62,7.25,1.23.95,2.86,1.49,4.24,2.17,1.64.85,3.38,1.79,5.08,2.5,3.3,1.49,6.88,2.48,10.17,4.01,7.7,3.76,7.95,1.1,14.4-2.1,4.21-1.23,6.11,5,11.01,4.36,4.6-.42,8.4-3.29,11.86-6.11,1.85-1.38,4-2.53,5.93-3.78,5.88-4.53,8.27-6.66,16.1-4.83,4.21.94,8.15,2.92,11.86,5.08,4.23,2.1,8.76,3.93,13.56,3.85,5.51.25,10.8-1.66,16.1-2.85,4.48-.82,9.13-.9,13.56-2.07,7.37-2.3,11.57.68,18.64,1.49"/><path class="b" d="M10.86,107.78c3.01-.7,6.29-.93,9.32-.24,1.96.54,3.67,1.96,5.08,3.36,2.09,2.06,4.12,4.47,6.78,5.82,4.23,2.69,9.09,4.14,13.56,6.33,5.53,3.02,7.91,5.23,13.56.71,4.12-3.22,5.46-2.4,9.32.48,3.26,2.31,7.6,1.36,11.01-.12,3.35-1.58,6.06-4.32,9.32-6.06,6.04-3.24,9.3-8.22,16.94-7.86,3.5.13,6.98,1.12,10.17,2.53,4.54,2.23,9.26,4.63,14.4,4.92,5.96.46,11.9-.74,17.79-1.42,2.79-.25,5.68-.04,8.47-.14,2.82-.08,5.68-.64,8.47-1,5.6-.8,10.62,2.82,16.1,3.27"/><path class="b" d="M10.86,105.99c15.92-2.02,13.46,3.56,24.57,10.45,2.94,1.88,6.34,3.06,9.32,4.87,3.3,1.93,7.09,5.41,11.01,2.92,2.91-1.52,5.66-5.55,9.32-4.01,2.38,1.25,4.82,2.81,7.62,2.71,8.98-.1,10.52-3.2,17.79-6.92,2.05-1.07,3.96-2.6,5.93-3.8,2.35-1.44,4.95-2.68,7.62-3.38,4.15-1.12,8.66-.89,12.71.56,2.73,1.14,5.64,2.01,8.47,2.86,4.95,1.37,10.16,1.25,15.25,1.37,3.94.18,7.93-.68,11.86-.03,2.21.29,4.54.58,6.78.52,2.52-.05,5.1-.52,7.62-.44,2.65.11,5.16,1.33,7.62,2.18,2.16.73,4.51,1.25,6.78,1.44"/><path class="b" d="M10.86,104.51c3.64-.24,7.38-.37,11.01-.02,3.4.36,6.17,2.63,8.47,4.99,5.08,5.36,11.71,8.83,17.79,12.89,6.55,4.25,8.93-2.83,14.4-4.34,2.36-.41,4.48,1.26,6.78,1.47,1.93.28,3.99.14,5.93.04,1.65-.12,3.44-.03,5.08-.24,2.41-.3,4.65-1.5,6.78-2.59,1.93-.97,4.03-1.89,5.93-2.92,4.85-2.67,10.05-4.82,15.25-6.7,2.69-.91,5.64-1.42,8.47-.96,2.79.65,5.75,1.01,8.47,1.92,3.26,1.03,6.78,1.09,10.17,1.07,2.87-.05,5.69.87,8.47,1.43,2.2.49,4.56.23,6.78.42,2.26.29,4.52,1.09,6.78,1.38,2.5.35,5.11.06,7.62,0,2.94-.19,5.72,1.08,8.47,1.9,2.45.68,5.09,1.01,7.62,1.08"/><path class="b" d="M10.86,103.26c2.51-.09,5.11-.09,7.62-.17,2.52-.07,5.19-.24,7.62.54,3.58,1.15,5.8,4.48,8.47,6.9,3.88,3.72,8.07,7.18,12.71,9.9,7.13,4.73,9.25-2.95,15.25-4.44,2.23-.35,4.54.56,6.78.16,2.23-.25,4.53-.7,6.78-.72,1.96-.07,3.98.44,5.93.52,3.28.11,6.31-1.55,9.32-2.62,3.31-1.37,6.81-2.38,10.17-3.61,2.59-.96,5.17-2.2,7.62-3.47,2.39-1.21,4.92-2.53,7.62-2.79,2.22-.04,4.56-.04,6.78.07,1.67.15,3.41.74,5.08.91,3.36.44,6.86.16,10.17.96,2.59.67,5.03,2.07,7.62,2.73,2.52.5,5.24.32,7.62,1.43,1.87.72,3.92,1.33,5.93,1.41,2.22.12,4.56-.17,6.78.03,2.27.2,4.53,1.05,6.78,1.38,2.49.36,5.12.27,7.62.13"/><path class="b" d="M10.86,102.08c2.8-.02,5.68.01,8.47-.11,2.51-.07,5.14-.29,7.62.18,4.86,1.06,7.73,5.74,11.01,9.09,3,3.37,8.91,8.32,13.56,8.58,4.36-.4,6.82-5.09,11.01-6.03,1.92-.47,4.06-.34,5.93-1.04,5.49-2.12,8.8-2.9,14.4-.51,2.18.8,4.59.33,6.78-.22,2.23-.57,4.57-1.13,6.78-1.76,4.68-1.35,9.28-3.18,13.56-5.52,2.19-1.17,4.42-2.54,6.78-3.36,2.2-.59,4.54-1.12,6.78-1.52,2.58-.42,5.11.64,7.62,1.02,3.07.59,6.36.49,9.32,1.6,2.31.89,4.45,2.43,6.78,3.29,1.32.44,2.89.56,4.24.91,1.42.39,2.89,1.19,4.24,1.78,3.43,1.67,7.34,1.03,11.01,1.19,2.23.14,4.53.73,6.78.68,2.54-.06,5.12-.66,7.62-1.06"/><path class="b" d="M10.86,100.85c3.37.04,6.8.17,10.17.11,3.08.03,6.31-.23,9.32.59,7.23,2.77,7.94,12.34,19.49,15.48,3.64,1.04,6.57-1.93,9.32-3.84,2.26-1.65,5.05-2.37,7.62-3.36,2.26-1.01,4.41-2.49,6.78-3.25,3.65-1.35,7.16,0,10.17,2.16,1.73,1.1,3.94,1.24,5.93,1.07,4.39-.24,8.69-1.43,12.71-3.18,4.75-1.82,9.15-4.46,13.56-6.96,1.3-.7,2.86-1.27,4.24-1.79,1.86-.72,3.9-1.49,5.93-1.46,2.92.09,5.58,1.74,8.47,2.02,5.73.53,6.92.55,11.86,3.88,1.52.92,3.44,1.24,5.08,1.85,1.76.69,3.41,1.92,5.08,2.77,3.37,1.8,7.35,1.17,11.01,1.42,1.93.14,4.01.29,5.93-.1,2.58-.55,5.08-1.68,7.62-2.35"/><path class="b" d="M10.86,99.45c5.92.17,11.86.94,17.79.59,3.09-.21,5.77,1.23,7.62,3.65,2.61,2.98,4.78,6.72,8.47,8.51,2.86,1.2,6.22,2.56,9.32,1.57,3.07-1.17,5.56-3.59,8.47-5.07,1.66-.91,3.48-1.82,5.08-2.83,1.87-1.22,3.84-2.57,5.93-3.38,3.37-1.44,6.72-.17,9.32,2.15,1.21,1.09,2.63,2.29,4.24,2.72,3.91,1.02,8.16.51,11.86-1.02,5.54-2.25,11.11-4.67,16.1-8,3.17-1.92,6.5-4.05,10.17-4.82,2.89-.47,5.76.63,8.47,1.45,2.18.69,4.55.1,6.78.22,3.03.25,5.07,2.96,7.62,4.3,1.69.83,3.57,1.64,5.08,2.78,1.84,1.36,3.73,2.98,5.93,3.73,2.14.75,4.54.77,6.78.87,1.94.08,4.01.26,5.93-.12,3.33-.71,6.13-2.96,9.32-4.08"/><path class="b" d="M10.86,97.8c4.24.17,8.48.98,12.71,1.3,3.07.33,6.3-.1,9.32.64,4.45,1.34,6.44,6.2,10.17,8.61,1.48,1,3.33,1.48,5.08,1.72,1.64.24,3.42.58,5.08.48,3.55-.32,6.38-2.87,9.32-4.64,2.25-1.44,4.58-2.99,6.78-4.5,2.03-1.34,4.29-2.79,6.78-2.95,4.07-.18,6.57,3.61,9.32,6,2.38,1.79,5.59,2.06,8.47,1.84,4.23-.53,8.01-2.79,11.86-4.45,2.54-1.12,5.21-2.2,7.62-3.59,2.51-1.48,5.03-3.16,7.62-4.5,4.77-2.79,8.94-3.8,14.4-2.43,3.94.17,5.86-1.47,9.32,1.76,2.21,2.29,5.13,3.83,7.63,5.76,3.75,3.28,6.55,6.04,11.86,6.35,9.85,1.31,9.27-1.39,16.94-5.41"/><path class="b" d="M10.86,96.35c1.97.05,4,.56,5.93.9,2.81.39,5.67.92,8.47,1.36,2.78.48,5.73.26,8.47.94,4.1,1.04,6.38,5.16,10.17,6.76,1.83.87,3.96.8,5.93.79,2.24.05,4.64.25,6.78-.55,6.08-2.19,13.6-10.86,19.49-11.48,5.64-.13,7.32,6.75,11.86,8.77,5.46,2.21,11.24-.26,16.1-2.86,2.7-1.33,5.64-2.31,8.47-3.33,2.28-.82,4.55-1.93,6.78-2.87,3.14-1.13,5.77-3.35,8.47-5.23,2.47-1.73,5.43-2.82,8.47-2.69,1.65,0,3.47-.39,5.08.11,2.75,1.05,4.47,3.78,6.78,5.48,6.58,4.74,8.78,10.69,17.79,11.27,8.05,1.52,9.32-3.07,15.25-6.61"/><path class="b" d="M10.86,95.23c1.99.12,3.99.78,5.93,1.19,3.1.51,6.23,1.27,9.32,1.83,2.78.51,5.74.34,8.47,1.14,3.14.85,5.46,3.47,8.47,4.55,2.43.97,5.1.83,7.63.4,2.24-.27,4.64-.31,6.78-1.12,5.9-1.93,14.7-12.47,20.33-11.17,6.85,2.28,6.48,11.21,15.25,10.76,2.6,0,5.28-.62,7.62-1.75,3-1.57,6.02-3.34,9.32-4.21,2.77-.78,5.67-1.37,8.47-2.03,2.38-.41,4.93-.88,6.78-2.56,2.41-2.06,4.37-4.77,6.78-6.83,4.46-3.68,8.69-4.07,12.71.51,2.12,2.22,4.68,4.17,6.78,6.41,3.26,3.42,6.29,7.68,11.01,9.12,1.6.49,3.42.74,5.08.93,1.36.17,2.92.2,4.24-.24,3.81-1.41,5.97-5.33,9.32-7.46"/><path class="b" d="M10.86,94.37c1.99.17,3.99.91,5.93,1.33,2.81.51,5.68,1.12,8.47,1.73,2.77.61,5.7.6,8.47,1.19,3.57.7,6.46,3.55,10.17,3.72,2.53.4,5.15.03,7.62-.54,3.23-.62,6.5-1.58,9.32-3.3,3.18-1.95,6.16-4.35,9.32-6.33,1.8-1.17,3.78-2.44,5.93-2.81,5.08-.61,7.51,5.13,10.17,8.46,1.39,1.84,3.62,2.99,5.93,2.98,9.32.42,10.24-3.63,17.79-5.94,3.86-.96,7.88-1.68,11.86-1.8,5.36.09,8.03-5.37,11.01-8.97,3.45-4.46,6.58-6.12,11.01-1.57,2.19,2.1,4.69,4.08,6.78,6.28,6.25,6.78,9.72,13.23,20.33,12.15,4.49-1.08,6.67-5.83,10.17-8.43"/><path class="b" d="M10.86,93.69c1.7.14,3.43.75,5.08,1.11,2.21.48,4.57.73,6.78,1.24,3.6.95,7.38,1.12,11.01,1.87,3.37.9,6.52,3.29,10.17,2.6,7.25-.14,12.63-2.09,18.64-6.07,3.79-2.45,7.53-5.29,11.86-6.72,9.32-3.01,9.48,8.93,16.1,10.83,1.63.34,3.43.12,5.08.06,1.67-.08,3.5-.25,5.08-.83,3.23-1.39,5.9-4.05,9.32-5.07,1.89-.61,3.98-.96,5.93-1.33,1.64-.29,3.41-.69,5.08-.7,6.02.49,7.43-.31,11.01-5.2,2.46-3.28,5.41-9.17,10.17-5.6,2.88,2.17,5.85,4.43,8.47,6.92,5.89,5.76,10.71,14.64,20.33,12.79,4.56-1.24,6.8-6,10.17-8.92"/><path class="b" d="M10.86,93.08c1.99.12,3.97.85,5.93,1.17,1.94.3,4.01.47,5.93.87,1.93.39,3.97.84,5.93,1.09,1.66.22,3.48.38,5.08.91,2.46.81,4.96,2.24,7.62,1.96,1.38-.17,2.86-.65,4.24-.88,1.64-.29,3.44-.4,5.08-.64,3.08-.42,5.85-2.13,8.47-3.7,4.36-2.69,8.59-5.88,13.56-7.37,3.04-.94,6.84-1.56,9.32.92,3.5,3.18,5.17,10.2,11.01,9.25,2.5-.35,5.15-.16,7.62-.67,3.49-.97,5.97-4.08,9.32-5.39,1.87-.8,3.98-1.27,5.93-1.85,2.44-.81,5.07-1.45,7.62-.81,7.41,2.09,8.8-4.64,13.56-8.22,2.58-1.69,5.48.42,7.62,1.89,1.97,1.33,4.07,2.72,5.93,4.2,2.74,2.15,5.18,4.82,7.62,7.28,2.53,2.57,5.53,5.28,9.32,5.49,6.28.74,9.74-5.49,13.56-9.36"/><path class="b" d="M10.86,92.47c2.27.07,4.54.78,6.78,1.05,4.25.4,8.47,1.4,12.71,1.9,3.95.77,7.79,3.38,11.86,1.59,1.62-.61,3.37-1.26,5.08-1.51,2.24-.32,4.67-.29,6.78-1.23,6.08-2.67,11.35-7.15,17.79-9.03,6.82-2.01,9.66-1.72,13.55,4.54,1.6,2.3,3.54,5.45,6.78,4.98,1.65-.21,3.41-.64,5.08-.68,1.95-.08,4.1.03,5.93-.79,2.38-1.27,4.44-3.27,6.78-4.61,2.68-1.45,5.63-2.62,8.47-3.71,1.31-.46,2.88-.57,4.24-.28,1.65.35,3.37,1.09,5.08,1.11,2.71.02,4.89-2.04,6.78-3.75,2.52-2.5,5.44-3.03,8.47-.98,2.21,1.37,4.54,2.79,6.78,4.11,2.68,1.56,5.35,3.38,7.62,5.5,2.41,2.09,4.68,4.65,7.62,5.99,6.98,2.89,11.96-3.96,16.1-8.48"/><path class="b" d="M10.86,91.8c5.96.38,11.9,1.43,17.79,2.36,2.83.51,5.58,1.81,8.47,1.94,2.72.04,5.16-1.52,7.62-2.45,2.42-.96,5.14-.98,7.62-1.66,6.43-2.3,12.16-6.32,18.64-8.53,8.32-2.87,10.66-1.49,15.25,5.67,1.07,1.47,2.36,3.3,4.24,3.74,2.3.36,4.51-1.01,6.78-1.2,1.93-.25,4.01-.06,5.93-.39,1.91-.37,3.54-1.8,5.08-2.9,1.84-1.41,3.91-2.73,5.93-3.85,5.62-3.33,6.66-3.13,12.71-1.18,1.66.4,3.53.17,5.08-.52,6.53-3.48,7.13-3.98,13.56.34,3.72,2.52,8.14,3.91,11.86,6.4,2.56,1.73,4.87,4.04,7.62,5.46,6.46,2.98,12.05-3.24,16.1-7.51"/><path class="b" d="M10.86,91.04c4.23.2,8.54.4,12.71,1.18,3.69.55,7.31,1.73,11.01,2.18,4.02.37,7.36-2.46,11.01-3.65,2.21-.78,4.64-1.22,6.78-2.19,5.07-2.54,9.96-5.57,15.25-7.64,8.65-3.31,12.83-3.26,17.79,5.17,1.36,1.85,2.7,4.39,5.08,5.01,2.7.32,5.02-1.78,7.63-2.16,2.2-.49,4.56-.19,6.78-.43,1.89-.28,3.53-1.62,5.08-2.63,1.91-1.34,3.96-2.72,5.93-3.97,2.28-1.57,4.93-2.28,7.62-1.36,9.68,3.64,11.05-2.71,16.94-.47,3.26,1.57,6.06,4.11,9.32,5.7,3.27,1.68,7.03,2.39,10.17,4.37,1.93,1.08,3.85,2.52,5.93,3.31,5.87,2.05,11.22-2.47,15.25-6.21"/><path class="b" d="M10.86,90.13c3.65.25,7.4.15,11.01.77,3.93.61,7.86,1.79,11.86,1.73,2.09-.04,4.11-.97,5.93-1.92,1.9-.97,3.95-1.91,5.93-2.71,6.36-2.12,11.13-7.09,16.94-10.24,4.37-2.45,11.46-4.66,16.1-1.92,4.36,2.72,6,8.07,9.32,11.77,4.39,4.82,7.49-2.47,14.4-2.27,1.94-.04,4.04.5,5.93-.09,2.37-.99,4.6-2.51,6.78-3.84,1.53-.95,3.25-2.04,5.08-2.22,1.67-.15,3.45.31,5.08.62,3.47.86,6.89-.44,10.17-1.46,2.77-.85,5.46.8,7.62,2.38,2.49,1.73,4.93,3.73,7.62,5.13,3.74,1.9,8.07,2.32,11.86,4.12,7.32,3.72,12.36,2.05,18.64-2.7"/><path class="b" d="M10.86,89.04c3.08.31,6.25.27,9.32.65,3.91.52,7.89,1.5,11.86,1.06,2.76-.22,5.24-1.67,7.62-2.94,2.49-1.26,5.2-2.29,7.62-3.67,4.67-2.7,8.23-6.99,12.71-9.98,2.75-1.91,5.89-3.65,9.32-3.71,4.23-.43,8.22.48,11.01,3.88,3.14,2.94,6.94,14.51,11.86,12.65,1.82-.77,3.4-2.27,5.08-3.28,1.75-1.09,3.85-1.9,5.93-1.91,1.68-.03,3.43.47,5.08.66,1.44.19,2.95-.41,4.24-.99,1.95-.84,3.91-1.99,5.93-2.66,1.89-.6,3.99-.36,5.93-.3,2,.06,4.07-.45,5.93-1.17,2.4-.83,5.06-2.15,7.62-1.26,5.07,2.11,8.72,6.67,13.56,9.21,3.64,1.99,7.96,2.11,11.86,3.31,7.14,2.52,11.03,2.71,17.79-1.2"/><path class="b" d="M10.86,87.78c3.07.41,6.24.53,9.32.87,3.92.49,8.03.91,11.86-.31,2.38-.69,4.58-2.07,6.78-3.19,2.53-1.22,5.29-2.23,7.62-3.81,4.59-3.13,8.16-7.62,12.71-10.82,2.27-1.62,4.82-3.22,7.62-3.66,4.17-.21,8.84.6,11.86,3.71,2.02,2.03,3.61,4.72,5.08,7.15,1.82,2.66,4.47,8.52,8.47,6.81,3.82-2.33,6.95-6.43,11.86-6.31,2.3,0,4.51,1.1,6.78,1.31,2.02.08,4.01-.91,5.93-1.43,3.59-1.18,7.65-.64,11.01-2.61,2.84-1.4,6.06-3.48,9.32-2.32,1.87.69,3.55,2.07,5.08,3.31,3.06,2.37,6,5.1,9.32,7.11,3.55,2.28,7.87,2.44,11.86,3.36,7.39,2.32,10.15,3.43,17.79.28"/><path class="b" d="M10.86,86.41c5.58.62,11.39,1.56,16.94.37,3.61-.82,6.83-2.86,10.17-4.38,2.26-.98,4.71-1.79,6.78-3.15,5.52-3.69,9.83-8.97,15.25-12.8,4.48-3.09,6.77-3.53,11.86-1.52,5.11,1.67,8.29,6.34,11.01,10.69,2.04,2.9,5,8.98,9.32,6.43,2.1-1.42,3.84-3.52,5.93-4.96,2.17-1.56,4.91-2.68,7.62-2.32,2.6.32,4.99,1.86,7.62,1.97,2.82-.19,5.68-.86,8.47-1.3,2.48-.52,4.71-2.02,6.78-3.42,4.84-3.47,7.54-2.97,11.86.97,3.51,3.08,7.01,6.38,11.01,8.84,3.54,2.3,7.88,2.51,11.86,3.54,7.69,2.49,9.54,3.47,17.79,1.1"/><path class="b" d="M10.86,84.93c7.82.86,14.08.85,21.18-2.96,3.25-1.71,6.82-2.83,10.17-4.31,7.29-3.49,12.1-10.35,18.64-14.87,4.6-3.3,7.43-1.89,11.86.69,5.41,3.23,8.12,9.25,11.86,14.06,5.84,7.42,9.34-.85,14.4-4.06,2.66-1.89,6.15-2.91,9.32-1.77,1.95.63,3.9,1.67,5.93,2.06,2.79.42,5.8.06,8.47-.82,2.91-1.12,4.96-3.78,7.62-5.32,2.77-1.71,5.41-.4,7.62,1.55,2.29,1.95,4.45,4.25,6.78,6.16,2.84,2.35,5.89,4.67,9.32,6.09,3.8,1.53,8,1.89,11.86,3.22,1.91.57,3.93,1.31,5.93,1.51,3.11.24,6.31-.37,9.32-1.09"/><path class="b" d="M10.86,83.3c5.12.05,10.41-.1,15.25-1.96,2.85-1.05,5.65-2.46,8.47-3.57,2.77-1.14,5.79-1.9,8.47-3.25,6.95-4.01,11.82-10.85,18.64-15.06,1.48-.91,3.33-1.65,5.08-1.23,2.5.76,4.8,2.36,6.78,4.04,4.97,4.17,7.07,10.84,11.86,15.13,3.42,2.73,6.99-.72,9.32-3.2,1.78-1.76,3.78-3.53,5.93-4.81,2.51-1.53,5.68-2.08,8.47-1.03,5.19,2.11,10.07,4.46,15.25.75,1.95-1.37,3.67-3.37,5.93-4.25,4.18-1.35,7.43,3.65,10.17,6.08,2.27,2.33,4.88,4.5,7.62,6.24,2.6,1.68,5.49,3.1,8.47,3.94,2.75.8,5.68,1.15,8.47,1.73,1.96.32,3.97.98,5.93,1.28,3.38.34,6.89-.02,10.17-.9"/><path class="b" d="M10.86,81.45c3.67-.49,7.41-.98,11.01-1.85,3.47-.86,6.84-2.28,10.17-3.57,3.65-1.52,7.74-2.15,11.01-4.49,3.99-2.67,7.38-6.2,11.01-9.31,2.86-2.34,6.02-4.48,9.32-6.14,1.91-1.01,4.2-.7,5.93.52,2.67,1.66,4.96,4.07,6.78,6.62,2.9,3.61,5.73,11.45,10.17,12.86,3.98.59,6.68-3.28,9.32-5.63,13.24-12.75,15.45-1.1,25.42-2.92,2.82-.82,4.98-3.14,7.62-4.32,3.94-1.65,6.93,2.5,9.32,5,2.06,2.28,4.28,4.64,6.78,6.44,4.03,2.86,8.65,5.15,13.56,6,2.21.33,4.55.28,6.78.32,1.97-.07,4,.45,5.93.71,3.36.36,6.9.39,10.17-.58"/><path class="b" d="M10.86,79.35c6.99-2.14,14.25-3.35,21.18-5.71,4.66-1.12,8.9-3.54,12.71-6.4,2.3-1.68,4.68-3.47,6.78-5.39,1.66-1.49,3.3-3.26,5.08-4.61,2.63-1.63,5.63-2.83,8.47-4.03,5.42-1.67,9.4,5.4,11.86,9.21,2.22,3.26,5.5,12.07,10.17,11.36,2.73-.52,4.89-2.67,6.78-4.57,2.11-2.08,4.32-4.28,6.78-5.96,8.43-5.78,12.69,2.28,20.33,1,2.07-.53,3.94-1.88,5.93-2.62,3.88-1.52,7.06,1.93,9.32,4.64,2.08,2.42,4.27,4.97,6.78,6.97,4.2,3.13,9.15,5.7,14.4,6.36,3.14.28,6.24-.83,9.32-1.21,1.67-.18,3.43.38,5.08.56,3.06.41,6.29.7,9.32-.07"/><path class="b" d="M10.86,77.06c2.99-1.23,6.12-2.37,9.32-2.94,3.36-.63,6.89-.81,10.17-1.84,4.92-1.47,9.19-4.48,13.56-7.06,2.57-1.48,5.39-2.78,7.62-4.76,2.1-1.82,3.87-4.21,5.93-6.08,1.14-1.05,2.77-1.55,4.24-1.92,1.39-.37,2.87-1.01,4.24-1.47,5.05-2.05,8.02,3.5,10.17,7.11,2.31,3.59,6.47,14.98,11.86,12.73,3.14-1.23,5.32-4.08,7.63-6.41,3.17-3.16,7.03-6.87,11.86-6.43,4.34.46,8.27,3.27,12.71,3.11,2.01-.18,3.96-1.12,5.93-1.49,5.94-.76,9.02,5.79,12.71,9.29,4.06,4.36,9.51,7.48,15.25,9.03,3.46,1.01,7.02-.24,10.17-1.68,1.01-.44,2.28-.91,3.39-1.03,1.37-.06,2.88.36,4.24.53,3.05.47,6.23,1.06,9.32.65"/><path class="b" d="M10.86,74.66c2.66-1.22,5.54-2.24,8.47-2.53,4.3-.28,8.77-.45,12.71-2.41,3.82-1.71,7.2-4.37,11.01-6.09,1.89-.8,4.02-1.2,5.93-1.93,1.56-.61,3.07-1.74,4.24-2.93,1.5-1.55,2.9-3.53,4.24-5.22,1.07-1.34,2.43-2.87,4.24-3.1,1.69-.27,3.49-.7,5.08-1.33,1.31-.48,2.83-1.1,4.24-.74,3.03,1.26,4.4,4.93,5.93,7.6,2.37,4.29,6.32,15.22,12.71,10.82,2.94-1.96,5.04-5.03,7.62-7.4,4.49-4.32,8.42-5.39,14.4-3.54,2.49.64,5.05,1.44,7.62,1.65,2.52.06,5.14-.89,7.62-.14,5.21,2.02,7.85,7.55,11.86,11.12,3.89,3.79,11.51,8.06,16.94,8.39,3.1.07,5.9-1.74,8.47-3.26,2.76-1.77,4.51-1.59,7.62-1.03,3.07.48,6.2,1.15,9.32,1.19"/><path class="b" d="M10.86,72.22c5.09-2.22,10.75-1.52,16.1-2.36,5.38-1.09,9.54-5.02,14.4-7.29,4.76-2.02,8.64.46,12.71-4.17,2.81-2.81,4.25-7.11,7.62-9.31,1.62-.53,3.49-.53,5.08-1.14,1.39-.5,2.79-1.42,4.24-1.74,3.15-.45,4.6,3.38,5.93,5.58,3.67,7.07,7.68,17.84,16.1,8.32,7.08-8.02,10.74-9.06,21.18-7.23,2.21.35,4.53.77,6.78.77,2.87-.08,5.64,1.12,7.62,3.18,2.51,2.31,4.45,5.34,6.78,7.82,2.39,2.66,5.26,5.06,8.47,6.67,4.18,1.96,8.76,4.88,13.56,3.72,2.48-.74,4.67-2.38,6.78-3.83,3.03-2.2,4.98-1.79,8.47-1.25,2.79.44,5.67.88,8.47,1.25"/><path class="b" d="M10.86,69.72c2.79-.37,5.66-.74,8.47-.77,3.72.06,7.63.12,11.01-1.66,3.55-1.7,6.62-4.39,10.17-6.1,4.21-2.29,8.78,1.14,12.71-2.06,3.21-2.54,5.01-6.5,7.62-9.56,1.23-1.6,3.23-1.81,5.08-2.07,2.92-.3,5.53-3.98,8.47-2.44,3.14,2.63,4.39,7.03,6.78,10.27,1.95,2.69,5.08,5.42,8.47,3.38,5.37-3.45,7.13-7.81,14.4-9.02,4.46-.82,9.09-.99,13.56-.16,1.68.26,3.53.51,5.08,1.25,5.6,3.09,8.17,9.53,12.71,13.79,3.26,3.38,7.58,5.46,11.86,7.24,4.79,2.16,8.89,3.19,13.56-.03,2.43-1.46,4.67-3.83,7.62-4.12,4.23.29,8.52.79,12.71,1.44"/><path class="b" d="M10.86,66.99c1.32.51,2.86.42,4.24.39,1.94,0,3.99.14,5.93.22,7.58.66,11.92-3.71,17.79-7.47,5.03-3.24,6.85-1.12,11.86-1.47,6.67-1.16,8.68-11.09,14.4-11.48,1.44-.17,2.99-.64,4.24-1.41,1.31-.74,2.72-1.77,4.24-2.01,3.45-.17,5.58,5.89,7.63,8.2,2.27,2.87,5.86,4.96,9.32,2.76,2.34-1.33,4.37-3.34,6.78-4.57,3.48-1.74,7.3-2.89,11.01-4.02,3.92-1.17,8.2-.44,11.86,1.24,2.01,1.08,3.67,2.93,5.08,4.69,1.75,2.18,3.54,4.63,5.08,6.96,2.02,2.94,4.67,5.59,7.62,7.58,2.58,1.78,5.57,3,8.47,4.12,3.18,1.27,6.72,2.58,10.17,1.69,4.07-1.01,7.01-4.56,11.01-5.67,1.64-.23,3.44.14,5.08.21,2.8.18,5.67.44,8.47.57"/><path class="b" d="M10.86,63.87c1.56,1.56,3.85,1.78,5.93,2.04,2.21.31,4.55.6,6.78.37,5.71-.5,9.97-4.66,14.4-7.83,2.47-1.75,5.34-3.39,8.47-3.17,6.26.82,8.23.13,12.71-4.35,1.77-1.69,3.46-3.94,5.93-4.58,1.4-.38,2.96-.83,4.24-1.53,1.61-.78,3.25-2.03,5.08-2.19,3.5.2,5.34,6.09,7.62,8.41,1.91,2.01,4.77,3.83,7.62,2.88,1.79-.56,3.47-1.73,5.08-2.67,1.9-1.11,4-2.13,5.93-3.18,3.1-1.6,5.94-3.95,9.32-4.94,3.27-.89,6.65.66,9.32,2.48,2.7,2.06,4.73,5.03,6.78,7.69,2.02,2.49,3.79,5.43,5.93,7.83,1.72,1.89,3.84,3.6,5.93,5.06,4.82,3.25,12.86,7.19,18.64,5.03,3.9-1.35,6.93-4.77,11.01-5.64,1.94-.12,3.99.39,5.93.51,2.5.31,5.11.32,7.62.16"/><path class="b" d="M10.86,60.13c3.32,4.69,10.04,5.76,15.25,4.02,4.64-1.5,8.04-5.22,11.86-8.05,2.55-1.84,5.33-3.75,8.47-4.33,2.51-.44,5.11.46,7.62.17,4.84-.48,7.72-5,11.86-6.93,2.84-1.07,5.5-2.91,8.47-3.58,3.14-.21,4.5,3.54,5.93,5.73,1.08,1.94,2.48,4.02,4.24,5.42,4.14,3.78,7.91,1.15,11.86-1.29,2.37-1.44,4.72-3.15,6.78-5.01,1.86-1.65,3.71-3.62,5.93-4.79,6.97-3.44,13.74,8.02,17.79,12.32,1.66,1.96,3.3,4.22,5.08,6.07,1.8,1.86,3.95,3.57,5.93,5.23,17.68,15,20.6-.63,30.5-.72,2.23.37,4.52,1,6.78,1.2,1.94.11,4-.15,5.93-.36"/><path class="b" d="M10.86,55.99c4.53,7.29,11.27,9.28,18.64,4.59,3.35-2.11,6.08-5.17,9.32-7.44,3.12-2.05,6.38-4.53,10.17-5.08,1.68-.15,3.44.33,5.08.63,4.33.96,7.84-1.57,11.01-4.15,2.6-1.72,5.48-3.27,8.47-4.18,3.51-1.21,5.41,2.7,6.78,5.22,1.79,3.42,4.03,7.18,7.62,8.93,2.27.95,4.78-.07,6.78-1.22,2.8-1.59,5.41-3.69,7.62-6.02,2.02-2.07,3.77-4.63,5.93-6.56,2.97-2.69,5.78-1.79,8.47.73,2.77,2.4,5.16,5.34,7.62,8.04,2.49,2.58,5.09,5.24,7.62,7.78,2.18,2.01,4.66,3.88,6.78,5.96,6.69,6.18,10.7,12.37,19.49,4.59,2.88-2.28,6.19-5.41,10.17-4.67,1.66.42,3.39,1.14,5.08,1.43,2.51.38,5.15-.07,7.62-.54"/><path class="b" d="M10.86,51.79c4.73,7.35,10.18,11.79,18.64,6.6,2.78-1.69,5.08-4.17,7.62-6.18,2.07-1.67,4.47-3.06,6.78-4.37,1.62-.9,3.32-1.98,5.08-2.59,3.45-1.22,6.71,1.43,10.17,1.18,3.73-.27,6.26-3.46,9.32-5.22,2.45-1.36,5.7-3.22,8.47-1.83,2.43,1.79,3.56,5.06,5.08,7.57,1.3,2.2,3.05,4.43,5.08,6.01,3.07,2.41,7.16.95,10.17-.82,4.86-2.67,7.68-7.65,11.01-11.85,2.74-3.26,5.27-3.68,8.47-.66,2.66,2.33,5.06,5.09,7.62,7.52,2.7,2.47,5.66,4.82,8.47,7.17,2.7,1.96,5.34,4.2,7.62,6.64,1.74,1.79,3.44,3.9,5.08,5.78,1.4,1.53,3.03,3.3,5.08,3.91,2.77.64,4.98-1.84,6.78-3.58,2.71-2.69,5.93-6.34,10.17-5.56,1.42.31,2.85,1.14,4.24,1.56,3.07.96,6.37.12,9.32-.86"/><path class="b" d="M10.86,47.75c2.15,3.03,4.71,5.95,7.62,8.27,3.8,2.97,9.1,1.61,12.71-1.01,2.06-1.44,3.93-3.35,5.93-4.87,1.85-1.4,3.92-2.71,5.93-3.85,1.63-.86,3.48-1.59,5.08-2.5,2.03-1.3,4.47-1.88,6.78-.94,4.53,1.9,7.06,2.27,11.01-1.04,2.03-1.59,4.21-3.32,6.78-3.91,1.68-.48,3.7-.54,5.08.68,1.79,1.68,2.98,4.22,4.24,6.29,1.7,2.7,3.9,5.46,6.78,6.96,3.81,1.71,8.46.58,11.86-1.59,3.7-2.48,5.75-6.71,8.47-10.1,1.91-2.47,4.61-4.59,7.62-2.4,3.04,2.05,5.6,4.87,8.47,7.13,5.9,4.78,13.03,8.24,17.79,14.3,2.54,3,4.32,6.99,7.62,9.26,2.22,1.26,4.49-.77,5.93-2.34,2.08-2.19,3.93-5.02,6.78-6.28,3.64-1.6,6,1.39,9.32,1.91,3.03.33,5.84-1.38,8.47-2.65"/><path class="b" d="M10.86,43.96c2.98,3.1,6,6.36,9.32,9.1,4.73,3.37,10.6.7,14.4-2.82,2.69-2.15,5.56-4.28,8.47-6.11,1.57-.84,3.45-1.27,5.08-1.97,1.38-.56,2.8-1.45,4.24-1.86,4.79-.92,7.51,4.04,12.71.57,1.96-1.26,3.8-2.98,5.93-3.96,2.13-.67,4.82-1.16,6.78.22,2.14,1.72,3.44,4.48,5.08,6.63,1.64,1.99,3.63,3.96,5.93,5.16,3.88,1.79,8.7,2.2,12.71.61,3.7-1.7,5.84-5.52,8.47-8.45,1.7-1.93,3.94-4.34,6.78-3.87,4.24,1.01,7.41,4.55,11.01,6.83,5.76,4.08,13.01,6.56,16.94,12.76,1.4,2.04,2.77,4.45,4.24,6.44,1.53,2.12,3.56,3.36,5.93,1.46,1.87-1.48,3.39-3.59,5.08-5.26,1.51-1.55,3.68-2.9,5.93-2.46,1.47.25,2.9,1.15,4.24,1.76,4.06,1.82,7.73-1.84,11.01-3.76"/><path class="b" d="M10.86,40.47c1.93,1.51,4.12,2.91,5.93,4.56,1.4,1.31,2.76,2.97,4.24,4.2,4.38,3.78,9.45,2.5,13.56-.92,2.54-1.81,5.15-3.69,7.62-5.6,2.48-1.8,5.8-1.82,8.47-3.24,5.91-3.19,6.58.32,11.86.18,2.54-.35,4.67-2.13,6.78-3.45,1.47-1.02,3.32-1.36,5.08-1.22,1.49-.07,3.1.4,4.24,1.39,1.56,1.38,2.86,3.32,4.24,4.86,3.35,3.66,7.89,5.4,12.71,6.08,5.86,1.03,8.95.27,13.55-3.5,2.98-2.29,6.06-5.67,10.17-5.2,4.35.85,7.88,3.95,11.86,5.74,5.5,2.57,10.97,3.78,14.4,9.34,2.26,2.88,4.68,9.87,9.32,6.75,1.82-1.32,3.37-3.24,5.08-4.69,1.58-1.39,3.8-2.42,5.93-1.87,1.75.38,3.33,1.63,5.08,2.01,1.78.36,3.62-.54,5.08-1.49,1.66-1.08,3.4-2.33,5.08-3.37"/><path class="b" d="M10.86,37.41c2.57,1.3,5.57,2.16,7.62,4.3,3.35,3.5,7.21,8.64,12.71,6.5,2.12-.78,4-2.31,5.93-3.45,2.07-1.2,3.91-2.98,5.93-4.25,1.51-.94,3.4-1.18,5.08-1.64,1.72-.47,3.45-1.33,5.08-2.03,3.46-1.84,6.63.73,10.17.12,5.83-1.32,5.79-4.47,12.71-2.97,2.45.4,4.23,2.45,5.93,4.08,1.19,1.17,2.74,2.19,4.24,2.91,3.15,1.52,6.76,1.83,10.17,2.44,4.46.74,9.08.82,13.56.13,2.01-.34,4.01-1.16,5.93-1.79,4.81-2.04,8.91-.25,13.56,1.18,3.88,1.28,8.16,1.51,11.86,3.31,5.69,2.43,7.59,12.62,13.56,9.11,3.2-1.97,6.02-5.66,10.17-5.16,1.46.17,2.92.96,4.24,1.56,2.24,1.14,4.81.2,6.78-1.09,1.61-.98,3.39-2,5.08-2.83"/><path class="b" d="M10.86,34.78c2.23.56,4.74.6,6.78,1.76,6.54,4.53,8.29,13.46,17.79,7.31,1.38-.76,2.96-1.57,4.24-2.5,1.59-1.1,3.23-2.47,5.08-3.11,1.94-.58,4.07-.97,5.93-1.82,1.91-.81,3.83-2.01,5.93-2.2,2.8-.16,5.71.71,8.47-.11,2.25-.55,4.41-1.93,6.78-1.9,1.96.21,4.04.69,5.93,1.26,1.84.74,3.43,2.19,5.08,3.24,1.26.77,2.81,1.36,4.24,1.72,1.9.48,3.98.53,5.93.68,3.36.38,6.8.5,10.17.78,4.42.32,8.26,3.28,12.71,3.34,2.23-.17,4.54-.6,6.78-.6,2.8,0,5.67.27,8.47.21,2.8,0,5.71-.21,8.47.3,4.1.66,6.51,3.74,9.32,6.42,2.69,2.57,5.83.74,8.47-.88,9.09-5.7,9.79,1.5,16.1-.46,2.54-1.06,4.98-2.59,7.62-3.43"/><path class="b" d="M10.86,32.18c2.81.15,6.08-.61,8.47,1.28,3.98,2.93,6.1,10.07,11.86,9.65,2.09-.29,4.01-1.51,5.93-2.29,2.04-.91,3.97-2.29,5.93-3.34,1.56-.82,3.42-1.17,5.08-1.7,2.9-.85,5.47-2.84,8.47-3.37,2.5-.39,5.13-.02,7.62-.41,2.78-.38,5.65-1.58,8.47-.82,2.22.68,4.66,1.02,6.78,1.99,2.38,1.26,4.89,2.57,7.62,2.82,3.35.3,6.8.15,10.17.24,3.41-.09,7.06-.24,10.17,1.42,2.96,1.39,5.24,4.23,8.47,5.03,2.76.47,5.68.27,8.47.24,3.44,0,6.84-.81,10.17-1.59,4.09-1.09,8.54-.78,11.86,2.08,5.66,4.96,6.73,2.52,12.71.26,1.86-.67,4.03-.86,5.93-.21,1.66.51,3.35,1.41,5.08,1.66,2.11.24,4.11-.95,5.93-1.85,1.57-.79,3.37-1.42,5.08-1.81"/><path class="b" d="M10.86,29.48c2.76-.18,5.88-1.38,8.47.06,4.71,3.01,6.56,12.4,13.56,10.48,1.96-.67,4.02-1.42,5.93-2.22,2.47-1.15,4.98-2.45,7.62-3.15,3.23-.91,6.07-2.98,9.32-3.82,2.75-.66,5.68-.5,8.47-.8,2.79-.31,5.73-.72,8.47.14,2.2.73,4.58,1.17,6.78,1.88,1.91.67,3.91,1.48,5.93,1.7,3.64.44,7.36-.11,11.01-.12,15.35-1.08,12.45,6.87,24.57,8.16,5.08.84,9.71.47,14.4-1.76,2.11-.92,4.43-1.85,6.78-1.67,3.75.06,6.44,3.64,10.17,3.63,1.74-.11,3.45-.99,5.08-1.54,2.14-.79,4.58-.94,6.78-.31,1.65.44,3.38,1.16,5.08,1.36,2.1.21,4.1-.96,5.93-1.84,1.81-.9,3.92-1.39,5.93-1.52"/><path class="b" d="M10.86,26.56c2.99-.46,6.59-2.12,9.32-.06,4.14,3.19,5.57,11.19,11.86,10.8,4.66-.88,9.07-2.84,13.56-4.3,2.6-.85,5.05-2.3,7.62-3.22,2.96-1.08,6.21-1.19,9.32-1.36,3.38-.25,6.9-.35,10.17.72,1.91.62,3.98,1.1,5.93,1.57,1.93.52,3.94,1.22,5.93,1.44,3.37.41,6.79-.38,10.17-.1,3.37.08,6.87-.14,10.17.73,3.32.86,6.23,2.89,9.32,4.3,2.64,1.28,5.62,1.8,8.47,2.35,4.45.88,9.45,2.15,13.56-.48,1.63-.93,3.31-2.11,5.08-2.75,1.58-.57,3.45-.64,5.08-.26,1.94.49,3.89,1.48,5.93,1.5,1.69.03,3.45-.56,5.08-.92,1.62-.36,3.45-.42,5.08-.11,1.94.35,3.95,1.05,5.93,1.12,5.2-.15,6.28-3.54,12.71-2.07"/><path class="b" d="M10.86,23.42c3.29-.81,7.5-2.5,10.17.52,3.52,3.38,5.19,10.42,11.01,10.29,4.32-.54,8.57-1.87,12.71-3.22,2.55-.89,5.03-2.22,7.62-2.98,2.72-.83,5.65-1.03,8.47-1.16,2.51-.1,5.13-.25,7.62.15,3.99.74,7.78,2.17,11.86,2.83,3.05.8,6.23.39,9.32.22,2.26-.12,4.57.36,6.78.73,3.07.5,6.26.74,9.32,1.34,3.41.66,6.76,1.84,10.17,2.49,2.77.58,5.69.63,8.47,1.08,2.3.38,4.62,1.14,6.78,2.02,4.36,1.91,6.82-.46,10.17-2.93,2.7-1.97,6.04-2.72,9.32-2.03,2.51.4,5.12,0,7.62-.13,3.39-.15,6.77,1.12,10.17.65,2.55-.24,5.02-1.8,7.62-1.36,1.72.35,3.41,1.3,5.08,1.8"/><path class="b" d="M10.86,20.17c7.68-2.49,9.28-.81,13.56,5.39,3.89,5.74,6.09,6.29,12.71,4.91,2.85-.54,5.76-1.25,8.47-2.31,3.49-1.47,7.2-2.61,11.01-2.73,4.5-.19,9.16-.56,13.56.69,3.59,1.01,7.25,2.12,11.01,2.2,2.23.05,4.55-.28,6.78-.37,4.71-.46,9.04,1.83,13.56,2.72,5.55,1.15,11.3,1.26,16.94.89,3.94-.27,8.25-1.6,11.86.67,1.72,1.02,3.28,2.59,5.08,3.49,2.12,1.07,4.35-.38,5.93-1.76,1.29-1.1,2.82-2.25,4.24-3.19,2.44-1.8,5.6-1.67,8.47-1.41,3.08.12,6.24.35,9.32.41,1.96,0,4.02-.36,5.93-.77,1.92-.48,4.1-.68,5.93.25,1.95.93,3.84,2.31,5.93,2.92"/><path class="b" d="M10.86,17.05c8.78-3.01,10.19,2.88,15.25,8.17,2.97,3.19,6.17,3.11,10.17,2.49,1.96-.25,4.02-.59,5.93-1.1,2.26-.62,4.52-1.6,6.78-2.23,3.57-.98,7.36-.71,11.01-.72,2.52.02,5.15.02,7.62.54,3.37.73,6.7,2.06,10.17,2.29,3.09.15,6.23-.51,9.32-.59,2.91-.2,5.86.44,8.47,1.74,3.97,1.83,8.25,3.55,12.71,3.11,2.86-.22,5.7-1.08,8.47-1.77,2.91-.47,5.69-1.63,8.47-2.54,6.26-1.92,7.99,3.27,11.86,6.65,1.59,1.32,3.62.72,5.08-.49,1.68-1.25,3.34-2.81,5.08-3.98,2.96-2.04,6.76-1.64,10.17-1.82,3.4-.02,6.81-.69,10.17-1.18,6.28-1.03,8.36,3.97,13.56,4.61"/><path class="b" d="M10.86,14.45c2.56-.76,5.53-.59,7.62,1.21,3.56,2.75,5.7,7.55,10.17,9.03,3.58,1.03,7.4,0,11.01-.4,3.48-.46,6.7-2.19,10.17-2.71,2.51-.32,5.12.06,7.62.25,2.8.24,5.69.2,8.47.62,3.95.7,7.8,2.39,11.86,2.41,3.93-.18,7.92-1.28,11.86-.63,2.43.36,4.65,1.65,6.78,2.8,2.89,1.52,6.01,3.04,9.32,3.26,4,.29,7.42-2.21,11.01-3.54,1.65-.56,3.51-.94,5.08-1.74,2.44-1.09,4.89-2.7,7.62-2.82,3.94.03,5.57,4.51,7.63,7.18,3.91,6.01,7.29.55,11.01-2.33,2.76-2.52,6.62-2.93,10.17-3.39,3.34-.46,6.79-1.31,10.17-.64,4.6.55,7.87,5.43,12.71,4.71"/><path class="b" d="M10.86,12.69c2.86-.65,5.73.67,7.62,2.78,3.11,3.05,6.17,7.53,11.01,7.42,1.97-.06,4-.53,5.93-.88,2.23-.39,4.58-.65,6.78-1.21,3.03-.87,6.08-2.43,9.32-2.01,2.54.3,5.08,1.1,7.62,1.41,2.8.36,5.73.42,8.47,1.16,7.65,2.18,9.18,2.27,16.94,1.15,4.07-.56,7.64,1.02,11.01,3.11,3.67,1.85,7.65,4.02,11.86,3.94,3.61-.32,6.14-3.4,9.32-4.79,1.91-.75,4.07-1.18,5.93-2.1,2.46-1.03,4.9-2.65,7.62-2.85,4.12.08,5.55,5.04,7.62,7.85,4.18,7.01,7.96-1.02,11.86-3.68,2.45-1.84,5.5-2.88,8.47-3.49,4.32-1.06,8.77.19,12.71,2.01,3.09,1.69,6.55,3.46,10.17,2.55"/><path class="b" d="M10.86,11.48c6.59-.33,8.51,8.11,14.4,9.62,3.79,1.01,7.45-1.02,11.01-2,2.21-.62,4.6-.96,6.78-1.68,2.19-.76,4.41-1.92,6.78-1.94,2.38,0,4.6,1.22,6.78,2.03,1.87.72,3.95,1.15,5.93,1.42,4.87.52,9.51,2.51,14.4,2.83,4.51.3,9.2-1.71,13.56.11,2.87,1.2,5.49,3.12,8.47,4.07,2.76.88,5.54,2.31,8.47,2.44,3.52-.05,5.71-3.36,8.47-5.06,1.76-1.14,4-1.39,5.93-2.12,2.25-.75,4.5-1.81,6.78-2.48,7.35-2.27,7.56,8.14,12.71,9.98,1.31.06,2.49-1.01,3.39-1.85,1.4-1.38,2.84-3.07,4.24-4.45,3.66-3.66,9.19-7.05,14.4-4.69,5.8,2.81,11.01,6.21,17.79,4.68"/><path class="b" d="M10.86,10.23c6.49.62,7.78,9.91,14.4,10.16,3.63-.06,6.91-2.08,10.17-3.45,2.42-1.1,5.12-1.61,7.62-2.45,5.38-2.29,7.3-3.89,12.71-.3,2.07,1.31,4.37,2.46,6.78,3,2.81.59,5.68,1.28,8.47,1.95,2.76.61,5.62,1.31,8.47,1.27,2.81.11,5.67-.64,8.47-.3,3.1.37,5.65,2.46,8.47,3.59,1.61.63,3.43,1.04,5.08,1.51,1.65.46,3.39,1.13,5.08,1.44,4.01.79,6.38-3.28,9.32-5.21,1.47-1.03,3.4-1.34,5.08-1.83,1.95-.55,3.99-1.25,5.93-1.84,5.48-1.88,7.45.55,10.17,4.96,1.04,1.46,2.22,3.73,4.24,3.81,1.34-.21,2.5-1.38,3.39-2.32,1.42-1.58,2.85-3.48,4.24-5.08,2.59-2.89,6.03-6.04,10.17-5.89,2.65.29,4.76,2.29,6.78,3.86,4.16,3.69,10.11,3.56,15.25,2.51"/><path class="b" d="M10.86,8.21c4.96,1.2,6.56,6.77,10.17,9.74,2.23,1.88,5.19,1.44,7.62.23,2.27-1.04,4.54-2.3,6.78-3.39,2.41-1.22,5.09-1.97,7.62-2.87,1.74-.67,3.4-1.81,5.08-2.6,3.07-1.61,6-.13,8.47,1.82,1.83,1.37,3.8,2.81,5.93,3.69,4.33,1.74,9.07,2.26,13.56,3.46,4.69,1.37,9.76-.16,14.4,1.33,2.59.93,4.91,2.73,7.62,3.33,2.22.51,4.57.93,6.78,1.48,3.05.84,5.41-.05,7.62-2.21,1.71-1.56,3.63-3.25,5.93-3.83,3.12-.73,6.19-1.89,9.32-2.59,3.31-.82,5.77.44,7.62,3.21,1.45,1.76,2.6,4.7,5.08,5.1,2.33-.33,3.71-2.88,5.08-4.55,1.55-2.15,3.2-4.52,5.08-6.4,2.76-2.76,7.47-5.38,11.01-2.5,2.65,1.96,4.48,5.18,7.62,6.43,3.79,1.54,8.04.46,11.86-.43"/></svg>