<?xml version="1.0" encoding="UTF-8"?><svg id="a" xmlns="http://www.w3.org/2000/svg" width="1920" height="2400" viewBox="0 0 192 240"><defs><style>.b{fill:none;stroke:#fff;stroke-miterlimit:10;stroke-width:.3px;}.c{stroke-width:0px;}</style></defs><rect class="c" width="192" height="240"/><path class="b" d="M15.57,209.83c3.66,1.64,7.35,3.4,11.2,4.53,3.66,1.13,7.56,1.58,11.2,2.79,3.88,1.42,7.79,3.24,12,3.25,2.37.06,4.83.11,7.2.05,2.65-.25,5.33-.98,8-1,3.52-.11,6.95,1.05,10.4,1.49,6.84,1.1,10.73-1.58,16.81-3.62,3.72-1,7.51-1.96,11.2-3.07,3.35-.92,6.9-2.19,10.4-1.45,3.86.92,7.59,2.57,11.2,4.18,2.38,1.21,5,2.14,7.2,3.68,4.1,2.71,7.57,6.46,12,8.65,5.84,2.36,13.86,1.13,20.01.42,4.01-.59,8.12-.98,12-2.21"/><path class="b" d="M15.57,206.23c4.28,2.06,8.38,4.59,12.8,6.34,3.6,1.42,7.47,2.14,11.2,3.12,3.92,1.01,8,1.32,12,1.74,1.85.23,3.77.7,5.6,1.02,2.09.29,4.3.25,6.4.3,2.66.04,5.38.27,8,.68,3.68.62,7.54,1.22,11.2.18,3.91-1.1,7.43-3.36,11.2-4.82,6.26-2.93,12.75-7.57,20.01-5.89,6.26,1.6,12.63,3.83,17.61,8.09,3.85,3.28,7.34,7.28,12,9.44,1.99.93,4.28,1.18,6.4,1.63,3.4.72,6.93,1.24,10.4.79,5.54-.59,10.62-3.2,16.01-4.46"/><path class="b" d="M15.57,202.66c4.3,2.38,8.32,5.37,12.8,7.39,3.53,1.56,7.41,2.33,11.2,2.89,2.37.24,4.83.17,7.2.26,3.62-.03,7.09,1.12,10.4,2.44,4.11,1.4,8.51,1.77,12.8,2.13,2.91.19,5.87.85,8.8.63,5.66-.36,10.31-4.07,15.21-6.55,6.95-4.49,11.16-8.32,20.01-6.27,2.11.4,4.3.89,6.4,1.32,1.9.34,3.9.84,5.6,1.78,6.34,3.38,9.89,10.66,16.81,13.17,2.57.92,5.41,1.03,8,1.9,4.73,1.58,9.72,2.08,14.41.03,3.55-1.57,7.25-3.23,11.2-3.34"/><path class="b" d="M15.57,199.62c4.13,2.77,8.08,6.08,12.8,7.8,3.32,1.22,6.93,1.44,10.4,1.95,2.38.17,4.83-.22,7.2-.33,3.64-.36,7.2.7,10.4,2.36,4.73,2.3,9.99,3.21,15.21,3.51,2.64.22,5.36.7,8,.29,5.13-.65,9.23-4.16,13.61-6.6,4.44-2.87,8.78-6.96,14.41-6.87,2.12.01,4.29.55,6.4.75,1.82.2,3.77.3,5.6.31,1.56.03,3.27-.1,4.8.26,6.97,1.74,10.24,10.56,17.61,13.02,2.03.75,4.31.77,6.4,1.22,2.66.63,5.29,1.74,8,2.15,8.3,1.28,11.61-5.12,20.01-2.82"/><path class="b" d="M15.57,197.51c3.85,3.01,7.83,6.37,12.8,7.21,2.35.44,4.82.35,7.2.4,1.29.02,2.71.29,4,.26,1.85-.05,3.77-.4,5.6-.65,3.23-.54,6.61-.31,9.6,1.09,5.26,2.53,10.99,3.92,16.81,4.35,3.98.5,8.2,1.01,12-.61,3.95-1.74,7.51-4.38,11.2-6.59,2.71-1.78,5.59-3.62,8.8-4.3,3.45-.84,6.95.39,10.4.45,3.24.13,6.42-.84,9.6-1.23,3.61-.32,6.5,2.29,8.8,4.74,2.45,2.51,4.91,5.26,8,6.99,2.65,1.61,5.86,1.48,8.8,1.99,3.69.79,7.37,2.2,11.2,1.96,2.18-.02,4.35-.72,6.4-1.39,3.17-.95,6.63-.41,9.6.96"/><path class="b" d="M15.57,195.22c3.91,3.18,8.41,6.07,13.6,6.25,2.1.14,4.3-.02,6.4-.04,1.29-.03,2.71.17,4,.07,2.4-.18,4.82-.84,7.2-1.16,4.63-.93,8.52,1.17,12.8,2.45,3.9,1.14,7.97,1.84,12,2.35,3.43.47,7.03.91,10.4-.1,2.59-.72,4.93-2.24,7.2-3.62,2.85-1.73,5.78-3.5,8.8-4.9,3.22-1.51,6.89-2.05,10.4-1.51,2.09.31,4.28.74,6.4.58,1.86-.1,3.81-.5,5.6-1.01,2.29-.73,4.83-1.46,7.2-.63,2.58.91,4.51,3.15,6.4,5.02,2.91,2.93,6.1,6.32,10.4,6.88,2.1.22,4.31-.13,6.4.17,3.48.39,6.92,1.4,10.4,1.72,1.84.24,3.79-.01,5.6-.3,3.27-.39,6.62.41,9.6,1.74"/><path class="b" d="M15.57,191.77c6.93,4.87,15.62,6.83,24.01,6.4,2.67-.3,5.34-1.03,8-1.33,2.97-.48,5.96.24,8.8,1.05,2.08.53,4.29.95,6.4,1.33,4.5.75,9.03,1.82,13.6,2.01,3.37.07,6.74-.97,9.6-2.72,3.35-2.02,6.76-4.09,10.4-5.56,3.51-1.48,7.4-2.22,11.2-1.86,2.38.21,4.81.78,7.2.84,1.84.07,3.79-.09,5.6-.43,2.07-.44,4.27-1.02,6.4-.72,2.51.25,4.61,1.95,6.4,3.6,2.02,1.84,4.06,3.89,6.4,5.32,2.35,1.53,5.32,1.86,8,1.14,5.43-1.33,10.04.23,15.2,1.72,1.79.47,3.77.32,5.6.53,2.7.27,5.43.93,8,1.79"/><path class="b" d="M15.57,187.11c2.8,1.46,5.95,2.28,8.8,3.63,3.67,1.59,7.24,3.71,11.2,4.48,4.54.63,9.06-1.1,13.6-1.14,2.41-.09,4.84.54,7.2.93,2.9.44,5.9.7,8.8,1.16,4.23.56,8.51,1.94,12.8,1.36,3.85-.48,7.2-2.65,10.4-4.69,2.48-1.57,5.25-2.78,8-3.8,4.81-1.82,10.11-2.79,15.21-1.7,3.67.75,7.43,1.65,11.2,1.32,8.6-.5,9.46,3.07,16.01,6.78,2.42,1.36,5.4,1.57,8,.61,7.28-2.83,9.97-1.68,16.81,1.34,4.19,1.17,8.6,1.73,12.8,2.9"/><path class="b" d="M15.57,182.14c3.25,1.18,6.69,1.78,9.6,3.77,3.44,2.03,6.54,4.91,10.4,6.14,1.53.46,3.24.24,4.8.1,3.17-.32,6.41-.69,9.6-.58,1.85.1,3.77.53,5.6.78,2.1.27,4.3.36,6.4.53,4.29.26,8.52,1.34,12.8,1.6,2.77.08,5.56-.76,8-2.02,3.75-2.03,7.12-4.88,11.2-6.29,6.78-2.8,13.6-5.33,20.81-2.38,1.81.61,3.73,1.27,5.6,1.65,2.89.5,5.91.63,8.8,1.18,3.41.92,6.21,3.43,9.6,4.42,4.92,1.73,9.04-1.74,13.6-2.85,4-1.02,7.76,1.18,11.2,2.91,4.21,1.54,8.58,2.82,12.8,4.32"/><path class="b" d="M15.57,178.14c1.79.72,3.78,1.18,5.6,1.8,1.64.61,3.31,1.51,4.8,2.43,4.68,2.83,8.52,6.73,14.41,6.08,3.45-.05,6.96-.36,10.4-.15,1.84.16,3.76.54,5.6.74,2.64.26,5.37.36,8,.64,5.03.4,10.26,2.11,15.21.4,3.57-1.14,6.54-3.61,9.6-5.67,1.95-1.34,4.22-2.36,6.4-3.26,8.62-3.57,13.83-2.95,22.41.01,2.84.88,5.88,1.11,8.8,1.54,4.76.31,8.8,3.66,13.6,3.64,4.85,0,8.89-3.39,13.61-4.05,3.34-.53,6.58.85,9.6,2.09,4.67,1.28,8.73,4.01,12.8,6.54"/><path class="b" d="M15.57,175.17c3.1,1.42,6.49,2.27,9.6,3.68,3.51,1.49,6.82,3.56,10.4,4.88,5.16,1.73,10.69.76,16.01.83,3.99.33,8.01.91,12,1.16,3.46.29,6.94.93,10.4,1.1,10.04.71,13.97-7.62,22.41-10.87,3.52-1.5,7.49-1.6,11.2-.85,2.92.54,5.9,1.09,8.8,1.71,5.6,1.18,11.45,1.29,16.81,3.46,8.31,3.14,12.92-.83,20.81-2.13,4.28-.66,8.72.2,12.81,1.46,3.66,1.66,6.52,4.73,9.6,7.22"/><path class="b" d="M15.57,173.04c3.76,2,7.9,3.08,12,4.08,3.25.85,6.43,2.12,9.6,3.19,2.81.95,5.86,1.29,8.8,1.03,2.64-.23,5.34-.79,8-.56,3.7.5,7.47.89,11.2,1.12,3.45.26,6.94.75,10.4.74,9.37.61,13.3-7.87,20.81-11.48,5.76-2.94,10.27.03,16.01.63,3.98.46,8.05.69,12,1.35,2.44.43,4.87,1.28,7.2,2.1,4.84,1.82,9.42,1.82,14.41.58,3.68-.59,7.48-.65,11.2-.83,11.38-.48,11.03.78,19.21,8.08"/><path class="b" d="M15.57,171.31c1.83.77,3.7,1.77,5.6,2.35,3.65.96,7.55.84,11.2,1.83,4,.96,7.77,3.24,12,2.93,2.95-.07,5.85-1.12,8.8-1.15,2.13-.05,4.28.63,6.4.72,4.78.27,9.62.4,14.41.61,11.76,1.3,13.32-5.27,21.61-11.11,4.18-3.03,8.08-2.83,12.8-1.37,2.84.77,5.89.64,8.8.88,2.95.22,5.98.66,8.8,1.59,2.92.98,5.76,2.44,8.8,3.07,3.94.99,8.03.26,12-.02,2.68,0,5.36.78,8,1.12,13.32,1.28,9.77-2.53,21.61,6.98"/><path class="b" d="M15.57,169.26c2.14.59,4.22,1.65,6.4,2.09,3.7.65,7.57.61,11.2,1.67,3.93,1.11,7.81,3.07,12,2.51,2.67-.22,5.32-1.11,8-1.13,2.13-.05,4.27.67,6.4.71,3.72.16,7.49-.1,11.2-.04,2.65-.02,5.36.17,8,.22,7.29-.07,11.54-6.99,16.81-11.01,7.28-6.17,10.87-3.21,19.21-2.88,3.55.3,7.1,1.17,10.4,2.49,4.34,1.88,8.75,4.11,13.61,4.01,2.65.08,5.35-.47,8-.43,3.9.32,7.37,2.63,11.21,3.31,2.34.52,4.82.55,7.2.65,4.22.37,7.59,3.4,11.2,5.3"/><path class="b" d="M15.57,166.38c2.17.23,4.3.99,6.4,1.53,2.37.59,4.84,1.15,7.2,1.8,3.69.97,7.37,2.35,11.2,2.67,4.06.43,8.01-.98,12-1.36,2.12-.22,4.29.33,6.4.43,3.98.15,8.03.09,12,.42,13,1.14,13.89-1.56,23.21-9.29,7.98-7.02,10.51-7.24,20.81-5.82,3.55.46,7.08,1.45,10.4,2.76,2.65,1.03,5.25,2.43,8,3.19,3.88,1.16,8,1.07,12,.87,5.01-.24,8.94,3.64,13.61,4.86,2.82.96,5.92.85,8.8,1.52,3.01.76,5.88,2.16,8.8,3.18"/><path class="b" d="M15.57,163.47c5.67.12,10.67,3.19,16.01,4.7,6.34,1.95,12.91-.16,19.21-1.22,2.09-.32,4.3-.29,6.4-.16,1.83.04,3.77-.01,5.6.09,6.76.33,12.57,3.38,19.21.11,3.21-1.48,6-3.81,8.8-5.93,1.54-1.08,3.29-2.11,4.8-3.23,4.14-3.08,9.02-6.11,14.41-5.21,7.06,1.02,14.23,2.05,20.81,4.94,3.07,1.13,6.35,1.88,9.6,2.25,2.36.32,4.85.23,7.2.65,4.24,1.24,7.71,4.4,12,5.53,2.58.79,5.36.95,8,1.42,2.95.49,5.91,1.27,8.8,2.01"/><path class="b" d="M15.57,160.92c2.13.21,4.38.44,6.4,1.18,3.87,1.45,7.74,3.63,12,3.4,3-.16,5.86-1.44,8.8-1.97,2.89-.6,5.86-1.18,8.8-1.42,3.19-.16,6.42-.46,9.6-.67,8.05-.38,11.92,5.03,20.01.66,3.06-1.58,5.88-3.7,8.8-5.49,2.29-1.31,4.91-2.17,7.2-3.5,6.65-3.49,9.41-4.52,16.81-2.46,3.94.9,8.03,1.2,12,1.9,3.22.74,6.35,2.05,9.6,2.68,2.62.59,5.34,1.09,8,1.43,2.15.23,4.46.4,6.4,1.45,3.11,1.58,6.17,3.52,9.6,4.34,5.6,1.18,11.42,1.54,16.81,3.63"/><path class="b" d="M15.57,158.91c2.09.52,4.35.67,6.4,1.32,4.19,1.5,8.42,2.92,12.8,1.22,2.63-.98,5.19-2.42,8-2.87,3.94-.8,8.02-.58,12-.92,2.41-.27,4.79-1.13,7.2-1.38,8.02-.84,10.92,4.9,19.21.12,2.93-1.57,5.76-3.5,8.8-4.87,2.03-.86,4.35-1.12,6.4-1.94,4.81-1.72,10.09-4.38,15.21-2.29,2.6.85,5.3,1.65,8,2.07,2.09.34,4.31.41,6.4.7,1.6.19,3.25.75,4.8,1.13,1.81.42,3.76.75,5.6,1.04,3.7.65,7.5,1.02,11.2,1.67,1.94.53,3.8,1.62,5.6,2.5,2,1.01,4.2,1.85,6.4,2.26,2.09.41,4.32.49,6.4.93,3.67.62,7.21,2.04,10.4,3.93"/><path class="b" d="M15.57,156.98c2.05.71,4.3.89,6.4,1.35,3.38.88,7.04,1.43,10.4.18,3.01-.97,5.67-3.04,8.8-3.64,4.48-.94,9.1.23,13.6-.34,3.02-.51,5.78-2.17,8.8-2.67,2.93-.58,5.94.12,8.8.75,6.41,1.3,11.79-3.59,17.61-5.38,1.25-.44,2.72-.58,4-.85,1.6-.36,3.27-.95,4.8-1.53,4.46-1.75,8.98-3.54,13.6-1.19,4.1,1.79,8.35,3.33,12.81,3.93,2.66.44,5.29,1.44,8,1.59,3.17.26,6.43.26,9.6.48,2.13.14,4.43.21,6.4,1.13,3.16,1.46,6.17,3.47,9.6,4.26,2.06.53,4.3.64,6.4.99,4.19.67,7.91,2.99,11.2,5.56"/><path class="b" d="M15.57,155.14c1.78.61,3.74.84,5.6,1,2.63.36,5.38.68,8,.15,3.72-.64,6.88-2.94,10.4-4.11,4.95-1.43,10.2.22,15.21-.73,3.58-.85,6.72-3.21,10.4-3.74,3.73-.73,7.48.9,11.2.35,4.54-.69,8.58-3.16,12.8-4.82,2.57-1.03,5.45-1.28,8-2.39,14.29-6.1,13.43-1.65,25.61,3.76,8.24,3.27,10.81,2.41,19.21,1.41,2.67-.3,5.51-.41,8,.73,2.66,1.11,5.27,2.54,8,3.48,2.31.84,4.82,1.3,7.2,1.87,4.51,1.18,7.88,4.77,11.2,7.82"/><path class="b" d="M15.57,152.56c2.06.59,4.28.56,6.4.66,3.19.24,6.5.25,9.6-.65,3.77-1.01,7.23-3.27,11.2-3.48,3.98-.36,8.11.03,12-1,4.26-1.4,8.14-4.36,12.8-4.27,2.12-.05,4.29.41,6.4.46,2.43.01,4.92-.45,7.2-1.28,3.32-1.18,6.4-3.08,9.6-4.54,3.46-1.17,6.92-2.55,10.4-3.64,13.21-3.92,15.34,6.05,26.41,8.99,6.41,1.71,12.82-1.33,19.21-1.65,5.65.2,10.81,3.03,16.01,4.96,5.88,1.67,9.46,6.47,13.6,10.6"/><path class="b" d="M15.57,148.73c2.1.36,4.29.11,6.4.19,2.91.15,5.89.55,8.8.34,3.6-.1,6.92-1.71,10.4-2.37,4.52-.73,9.24-.72,13.6-2.22,1.9-.69,3.76-1.77,5.6-2.59,6.28-3.04,9.78-.97,16.01-1.45,5.32-.15,9.98-2.96,14.41-5.64,3.04-1.5,6.28-2.84,9.6-3.54,3.15-.66,6.46-.36,9.6.21,3.36.45,6.08,2.83,8.8,4.66,2.86,2,6.11,3.74,9.6,4.22,4.24.46,8.58.23,12.8-.32,2.91-.38,5.85-1.17,8.8-1.15,5.31-.22,10.01,2.6,14.4,5.24,4.73,2.42,7.94,6.93,12,10.22"/><path class="b" d="M15.57,143.88c2.38.15,4.83-.38,7.2-.06,3.47.42,6.89,1.56,10.4,1.63,3,.15,5.86-1.11,8.8-1.42,5.48-.6,11.17-1.29,16.01-4.15,3.4-1.92,7.24-3.37,11.2-3.07,2.37.2,4.82.31,7.2.22,3.58.13,7.24-.52,10.4-2.26,2.88-1.61,5.67-3.55,8.8-4.66,3.81-1.57,8.05-1.42,12-.5,2.12.45,4.43.54,6.4,1.51,4.13,1.97,8.14,4.56,12.8,5.02,2.37.2,4.85.21,7.2.64,3.68.55,7.5,1.29,11.2.53,3.66-.75,7.54-2.02,11.2-.64,3.29,1.16,5.94,3.65,8.8,5.55,3.83,2.57,7.07,6.11,11.2,8.23"/><path class="b" d="M15.57,138.95c2.65.07,5.39-.49,8,.13,4.23.85,8.41,2.78,12.8,2.32,3.41-.73,6.93-.76,10.4-.89,2.71-.21,5.49-.77,8-1.81,1.64-.71,3.26-1.75,4.8-2.65,4.01-2.52,8.09-3.49,12.8-3.06,7.21-.1,10.66,1.87,17.61-2.06,5.55-3.1,10.48-4.55,16.81-2.96,2.08.52,4.34.62,6.4,1.22,2.93.87,5.78,2.25,8.8,2.8,3.14.71,6.44.27,9.6.67,3.23.51,6.36,1.79,9.6,2.25,4.11.81,7.93-1.71,12-1.53,4.09.15,7.35,3.05,10.4,5.47,4,2.86,7.98,6.17,12.8,7.5"/><path class="b" d="M15.57,134.67c2.91.32,5.91-.07,8.8.44,4.77.72,9.54,2.12,14.41,1.64,2.39,0,4.82.51,7.2.63,2.14.13,4.36-.24,6.4-.86,5.62-1.69,9.89-6.85,16.01-7.11,2.64-.09,5.38.05,8,.31,2.62.43,5.33,1.07,8,.76,4.52-.48,8.34-3.47,12.8-4.25,3.71-.82,7.54-.12,11.2.6,3.24.38,6.48,1.01,9.6,1.98,2.58.73,5.32,1.15,8,1.3,2.38.1,4.85-.04,7.2.45,3.94.67,7.98,2.03,12,1.25,1.83-.35,3.73-1,5.6-1.1,4.57-.41,8.57,2.36,12,5.03,4,3.02,8.57,5.62,13.61,6.3"/><path class="b" d="M15.57,130.88c2.88.63,5.88.49,8.8.55,3.2.05,6.44.37,9.6.83,2.1.33,4.34.42,6.4.97,2.84.75,5.86,1.66,8.8,1.01,2.84-.6,5.55-1.92,8-3.44,3.17-2.03,6.52-4.32,10.4-4.5,2.92-.06,5.91.45,8.8.79,3.4.73,7,1.41,10.4.37,2.69-.77,5.25-2.18,8-2.76,4.22-1.03,8.61-.27,12.8.51,2.09.39,4.32.4,6.4.8,2.68.47,5.35,1.29,8,1.88,3.39.85,6.92,1.13,10.4,1.15,3.45.1,6.97.24,10.4-.2,2.12-.26,4.26-1.01,6.4-1.16,4.95-.35,9.54,2.1,13.6,4.67,4.11,2.72,8.78,4.55,13.61,5.5"/><path class="b" d="M15.57,127.36c3.13.83,6.4.83,9.6.6,2.93-.15,5.94,0,8.8.62,2.42.51,4.9,1.16,7.2,2.1,3.63,1.48,6.9,1.59,10.4-.26,2.44-1.22,4.88-2.65,7.2-4.09,3.06-1.99,6.7-3.46,10.4-2.79,2.37.44,4.82.92,7.2,1.28,2.08.42,4.27.85,6.4.72,3.09-.13,5.94-1.57,8.8-2.58,2.55-.86,5.35-.99,8-.68,2.94.32,5.88,1.12,8.8,1.55,2.09.3,4.32.28,6.4.65,4.1.66,7.98,2.38,12,3.33,5.38,1.1,10.84-.78,16.01-2.14,1.81-.51,3.72-1.16,5.6-1.27,3.82-.13,7.62,1.02,11.2,2.22,2.74.94,5.39,2.3,8,3.52,2.91,1.29,5.93,2.54,8.8,3.9"/><path class="b" d="M15.57,123.6c1.83.3,3.75.71,5.6.76,2.1.05,4.3-.09,6.4.04,5.08.28,9.79,2.5,14.41,4.43,3.39,1.44,6.59.78,9.6-1.16,2.08-1.31,4.28-2.61,6.4-3.85,2.43-1.51,5.08-3.05,8-3.25,3-.25,5.88,1.03,8.8,1.42,6.41,1.44,9.12,1.32,15.21-1.22,2.78-1.12,5.9-1.12,8.8-.52,3.21.63,6.37,1.76,9.6,2.31,2.63.43,5.39.33,8,.88,4.36.73,8.37,3.16,12.8,3.43,6-.14,11.17-3.84,16.81-5.45,3.93-1,8.05.08,12,.43,6.93.6,13.03,4.47,18.41,8.64"/><path class="b" d="M15.57,119.53c1.84.09,3.76.42,5.6.57,3.22.2,6.54.47,9.6,1.56,2.98,1.06,5.9,2.47,8.8,3.72,3.89,1.98,7.31,2.7,11.2.28,2.37-1.43,4.8-2.92,7.2-4.28,2.23-1.39,4.59-2.89,7.2-3.43,3.23-.72,6.44.51,9.6,1,7.32,1.78,8.81,1.73,16.01-.4,2.62-.66,5.42-.33,8,.34,3.21.82,6.36,2.1,9.6,2.81,2.07.47,4.29.54,6.4.67,4.59.15,9.03,1.77,13.6,1.99,6.53-.25,12.26-4.01,18.41-5.79,3.64-.87,7.49-.6,11.2-.75,7.27-.45,13.31,4.49,18.41,9.09"/><path class="b" d="M15.57,116.13c1.85-.14,3.77.13,5.6.33,2.4.23,4.88.52,7.2,1.18,4.41,1.31,8.56,3.49,12.8,5.24,3.7,1.7,6.93,1.45,10.4-.6,2.08-1.2,4.29-2.35,6.4-3.47,2.48-1.41,5.12-2.9,8-3.22,3.47-.33,7,.75,10.4,1.32,7.71,2.24,8.67,1.13,16.01.26,2.94-.14,5.96.26,8.8.99,3.74.9,7.37,2.56,11.2,3.03,2.9.25,5.89.04,8.8.07,2.91-.03,5.9.12,8.8-.24,4.34-.44,8.69-1.31,12.8-2.77,3.38-1.31,6.85-2.55,10.4-3.32,2.85-.64,5.88-1.33,8.8-.81,2.01.33,3.88,1.45,5.6,2.47,3.09,1.83,6.04,4.05,8.8,6.34"/><path class="b" d="M15.57,113.58c1.84-.24,3.77-.03,5.6.18,2.39.22,4.86.46,7.2,1,4.68,1.12,9.13,3.14,13.61,4.86,3.71,1.5,6.95.89,10.4-.89,5.07-2.25,10.23-5.64,16.01-4.98,2.65.37,5.37.79,8,1.25,2.87.7,5.81,1.64,8.8,1.53,5.57-.38,11.29-1.12,16.81.11,3.03.68,5.9,2.07,8.8,3.12,1.77.59,3.76.65,5.6.5,5.6-.58,11.15-1.92,16.81-1.9,3.84-.07,7.71-.82,11.2-2.44,5.35-2.09,11.8-6.59,17.61-5.05,2.34.62,4.35,2.21,6.4,3.43,2.64,1.64,5.38,3.31,8,4.98"/><path class="b" d="M15.57,111.69c2.11-.25,4.3.05,6.4.18,3.47.17,7.02.43,10.4,1.27,2.13.52,4.32,1.19,6.4,1.88,2.07.74,4.21,1.64,6.4,1.93,3.06.46,6.03-.82,8.8-1.96,3.84-1.48,7.81-3.26,12-3.17,2.13.02,4.31.48,6.4.82,1.28.2,2.73.25,4,.54,2.88.64,5.82,1.57,8.8,1.51,2.91-.12,5.89-.35,8.8-.29,2.1-.09,4.31-.23,6.4.11,3.15.47,6.03,2.06,8.8,3.54,4.97,3.11,10.8.7,16.01-.44,3.65-.95,7.5-.41,11.2-.95,4.92-.78,9.18-3.84,13.61-5.98,3.57-2.07,7.93-4.01,12-2.23,2.29.92,4.29,2.59,6.4,3.82,2.53,1.54,5.29,2.84,8,4"/><path class="b" d="M15.57,110.08c2.11-.14,4.3.07,6.4.11,3.46.05,6.99.09,10.4.68,2.13.36,4.33.87,6.4,1.47,2.33.72,4.74,1.61,7.2,1.74,3.05.17,5.97-1.09,8.8-2.05,5.08-1.8,9.81-2.98,15.21-1.85,2.36.49,4.86.56,7.2,1.12,3.38.92,6.89,1.58,10.4,1.19,2.1-.15,4.3-.13,6.4-.11,2.67-.12,5.48-.12,8,.87,3.15,1.15,5.81,3.41,8.8,4.86,4.44,1.97,9.24-.23,13.61-1.37,3.62-1.18,7.54-.57,11.2-1.49,4.77-1.12,8.34-4.84,12.8-6.65,4.38-2.37,8.78-4.36,13.61-1.77,2.19,1.1,4.25,2.67,6.4,3.85,2.49,1.41,5.25,2.46,8,3.21"/><path class="b" d="M15.57,108.13c5.33-.03,10.74.04,16.01.94,2.39.42,4.84.94,7.2,1.48,2.34.59,4.77,1.31,7.2,1.35,3.59.06,6.96-1.58,10.4-2.39,4.77-1.46,9.44-2.34,14.41-1.31,1.83.35,3.8.52,5.6.98,3.38.96,6.84,2.09,10.4,1.76,4.78-.07,9.9-.63,14.41,1.29,2.84,1.23,5.31,3.29,8,4.78,4.67,2.69,9.87-.2,14.41-1.79,3.04-1.3,6.42-1.25,9.6-1.93,4.53-1,8.14-4.12,12-6.48,1.19-.71,2.72-1.08,4-1.57,2.77-1.06,5.84-1.86,8.8-1.17,3.16.67,5.94,2.56,8.8,3.96,3.01,1.56,6.28,2.74,9.6,3.39"/><path class="b" d="M15.57,106.03c2.64.21,5.37.15,8,.53,5.06.71,10.11,1.74,15.21,2.13,3.7.45,7.53.87,11.2,0,5-.96,10.09-2.1,15.21-2.1,5.18.19,10.32,1.41,15.21,3.08,2.82.96,5.86.89,8.8.79,7.49-.41,10.69.97,16.81,5.05,1.89,1.19,4.1,2.28,6.4,2,5.57-.68,9.96-4.81,15.21-6.5,2.41-.65,4.94-1.26,7.2-2.35,2.76-1.25,5.38-2.96,8-4.47,1.92-1.22,4.18-1.86,6.4-2.2,2.07-.44,4.3-.7,6.4-.34,3.42.55,6.46,2.44,9.6,3.78,3.55,1.49,7.37,2.41,11.2,2.68"/><path class="b" d="M15.57,103.83c2.09.4,4.31.38,6.4.72,3.17.58,6.37,1.46,9.6,1.62,3.19.19,6.42-.22,9.6-.37,4.26-.13,8.54-.62,12.8-.7,5.37-.18,10.79.22,16.01,1.54,2.11.53,4.35.95,6.4,1.67,2.6.93,5.24,2.12,8,2.46,5.07.51,10.44-.79,15.21,1.52,2.94,1.21,5.67,3.16,8.8,3.85,4.69.6,9-2.55,12.81-4.89,2.07-1.33,4.21-2.78,6.4-3.9,2.1-.98,4.33-1.93,6.4-2.97,4.79-2.33,9.76-4.8,15.21-4.83,11.87-1.21,12.95,6.89,27.21,4.54"/><path class="b" d="M15.57,101.46c1.81.45,3.76.58,5.6.85,2.11.41,4.26,1.07,6.4,1.35,3.8.59,7.54-.58,11.2-1.42,4.96-1.22,10.19-1.45,15.21-.45,3.81.45,7.59,1.34,11.2,2.61,4.23,1.54,8.69,2.58,12.8,4.42,2.29,1.02,4.69,2.13,7.2,2.43,3.18.42,6.42.02,9.6.02,3.56.16,6.94,1.61,10.4,2.28,3.26.77,5.91-.52,8.8-1.83,7.69-3.24,13.85-9.31,21.61-12.4,3.8-1.5,7.99-1.45,12.01-1.28,2.92-.06,5.94-.38,8.8.36,9.49,2.74,9.55,5.38,20.01,1.31"/><path class="b" d="M15.57,99.24c2.08.54,4.31.66,6.4,1.14,2.85.72,5.87,1.4,8.8.81,4.85-1.07,9.34-3.85,14.41-4.02,2.99-.16,5.98.54,8.8,1.45,1.55.46,3.28.7,4.8,1.23,2.15.71,4.32,1.67,6.4,2.57,3.39,1.55,6.96,2.82,10.4,4.23,2.66,1.24,5.21,2.93,8,3.88,2.29.72,4.82.88,7.2.73,2.1-.26,4.28-.66,6.4-.67,4-.11,8.26.34,12-1.38,1.56-.79,3.16-1.82,4.8-2.46,3.51-1.44,7.14-2.83,10.4-4.8,2.72-1.57,5.2-3.7,8-5.13,4.58-2.46,8.83-1.36,13.61-.43,3.44.51,6.96-.55,10.4-.04,10.4,1.75,9.25,5.22,20.01-.94"/><path class="b" d="M15.57,97.09c2.09.49,4.31.7,6.4,1.13,3.14.74,6.51,1.05,9.6-.03,2.7-.88,5.26-2.34,8-3.09,4.79-1.65,9.8-.55,14.41,1.16,2.95.75,6,1.44,8.8,2.66,4.52,1.94,9.23,3.59,13.61,5.83,5.65,3.45,9.86,6.34,16.81,4.35,4.22-1.14,8.66-1.66,12.8-3.08,2.89-.87,5.19-3.08,8-4.1,3.14-1.13,6.51-1.74,9.6-3.01,2.56-1.01,4.87-2.69,7.2-4.12,6.01-3.6,9.8-1.78,16.01-.59,2.65.3,5.36-.35,8-.41,11.33-.08,10.02,5.36,21.61-2.06"/><path class="b" d="M15.57,95.1c3.15.59,6.39,1.3,9.6,1.38,9.95-.38,11.58-7.41,24.01-3.37,1.83.56,3.73,1.3,5.6,1.71,2.7.37,5.44.92,8,1.84,4.59,1.66,9.23,3.44,13.61,5.61,4.79,2.75,9.38,5.92,15.21,4.66,2.42-.62,4.84-1.59,7.2-2.39,2.65-.93,5.42-1.78,8-2.89,2.5-.97,4.62-2.9,7.2-3.69,2.86-.91,5.92-1.31,8.8-2.11,2.54-.69,4.96-1.97,7.2-3.32,3.93-2.42,8.26-3.52,12.81-2.27,2.08.49,4.25,1.12,6.4,1.2,5.6.1,11.25-.23,16.81.62,3.88.07,7.18-2.48,10.4-4.32"/><path class="b" d="M15.57,92.63c9.35,2.12,11.27,1.79,20.01-1.86,2.53-.98,5.37-.99,8-.41,3.23.66,6.36,1.95,9.6,2.52,1.55.31,3.24.18,4.8.31,1.87.17,3.81.61,5.6,1.16,4.6,1.55,9.14,3.47,13.61,5.39,4.45,2.22,9.23,5.09,14.41,4.08,3.63-.91,6.93-2.91,10.4-4.25,2.09-.86,4.33-1.64,6.4-2.56,1.84-.84,3.65-2.03,5.6-2.61,5.1-1.55,10.44-2.52,15.2-5.03,10.02-5.46,11.15-3.97,21.61-1.75,4.23.86,8.57.34,12.8-.17,1.56-.09,3.28-.04,4.8-.48,2.78-.72,5.41-2.13,8-3.32"/><path class="b" d="M15.57,89.28c6.38,1.44,9.36,2.61,16.01.76,2.85-.75,5.83-1.7,8.8-1.21,3.75.55,7.4,1.95,11.2,2.13,3.2.18,6.41-.97,9.6-.33,3.63.55,7.02,2.17,10.4,3.49,1.52.62,3.25,1.03,4.8,1.59,1.88.67,3.79,1.56,5.6,2.38,10.5,5.05,12.47.52,21.61-3.38,5.59-2.15,11.21-4.33,16.81-6.48,3.22-1.21,6.39-2.7,9.6-3.92,1.86-.86,3.73-2,5.6-2.85,3.22-1.58,6.99-1.75,10.4-.73,3.93,1.04,7.83,3.02,12.01,2.31,2.15-.28,4.28-1.1,6.4-1.5,4.01-.42,8.04-1.15,12-1.88"/><path class="b" d="M15.57,84.98c2.99.53,5.82,1.88,8.8,2.47,4.2.97,8.55.37,12.8.3,2.41.02,4.83.65,7.2.98,2.9.42,5.97.48,8.8-.35,7.29-2.7,10.63-1.5,17.61,1.1,2.04.8,4.33,1.01,6.4,1.67,2.19.7,4.34,1.78,6.4,2.78,2.7,1.28,5.76,2.63,8.8,1.96,4.61-1.44,8.24-5.1,12.8-6.73,3.15-1.21,6.47-2.14,9.6-3.4,3.25-1.31,6.43-2.95,9.6-4.43,2.01-1.11,4.32-1.74,6.4-2.66,2.13-1.08,4.21-2.49,6.4-3.45,4.76-2.31,9.77-.7,14.4,1.06,6.48,2.2,9.51-1.53,15.21-1.6,3.23-.02,6.45.74,9.6,1.32"/><path class="b" d="M15.57,79.93c4.82.85,8.93,3.89,13.6,5.24,3.09,1.01,6.38,1.36,9.6,1.65,4.54.62,9.35.51,13.6-1.36,6.82-3.38,10.31-3.61,17.61-1.5,2.32.75,4.87.83,7.2,1.51,2.53.78,4.9,2.18,7.2,3.46,2.63,1.45,5.75,2.97,8.8,2.05,4.44-1.67,7.79-5.38,12-7.5,3.24-1.78,6.91-2.69,10.4-3.84,4.29-1.44,8.54-3.12,12.8-4.62,4.25-1.19,7.63-4.57,12-5.48,4.84-1.24,9.58,1.26,14.4,1.14,2.44-.1,4.86-.93,7.2-1.55,5.18-1.64,9.91,2.01,14.41,4.05"/><path class="b" d="M15.57,74.87c3.27.3,6.14,2.13,8.8,3.92,3.04,2.04,6.13,4.22,9.6,5.47,5.52,2.07,11.59.85,16.81-1.53,2.87-1.37,5.69-3.08,8.8-3.85,4.48-1.28,9.16-.35,13.6.6,8.32.7,13.42,7.66,20.01,7.08,4.14-.89,7.16-4.3,10.4-6.79,2.17-1.75,4.54-3.52,7.2-4.45,4.9-1.74,10.13-2.19,15.21-3.12,10.1-2,10.75-7.51,23.21-6.63,2.12.05,4.33-.16,6.4-.59,2.62-.53,5.31-1.35,8-1.2,2.38.13,4.52,1.55,6.4,2.9,2.07,1.51,4.18,3.2,6.4,4.48"/><path class="b" d="M15.57,70.57c3.32.16,6.22,2.01,8.8,3.95,3.07,2.26,6.09,4.82,9.6,6.37,4.68,2.26,9.87.68,14.41-1.15,7.15-2.78,14.44-7.21,22.41-5.61,5.33.97,10.44,2.93,15.21,5.48,7.62,3.79,10.51,3.07,16.81-2.48,4.94-4.52,7.52-6.74,14.41-7.74,3.16-.55,6.43.05,9.6-.29,6.08-.55,10.89-5.06,16.81-6.28,2.62-.61,5.41-.66,8-1.44,5.04-1.48,10.57-3.16,15.21.35,3.21,2.35,5.97,5.48,9.6,7.21"/><path class="b" d="M15.57,67.4c3.55.16,6.69,2.07,9.6,3.95,3.69,2.35,7.56,4.94,12,5.46,3.26.37,6.49-.7,9.6-1.52,3.75-.91,7.56-1.84,11.2-3.12,4.31-1.6,8.95-3.49,13.6-2.35,1.89.45,3.74,1.36,5.6,1.89,4.62,1.31,9.11,3.14,13.6,4.82,4.98,2.29,8.75.96,12.8-2.36,2.77-2.22,5.39-4.88,8.8-6.08,8.62-3.9,11.91-.4,19.21-2.82,3.29-1.16,6.38-2.96,9.6-4.27,2.27-1,4.78-1.53,7.2-2,3.44-.91,6.76-2.78,10.4-2.65,7.5.16,10.85,8.07,17.61,9.73"/><path class="b" d="M15.57,65.02c6.21.58,11.46,4.66,17.61,5.6,4.26.91,8.58.07,12.8-.59,3.71-.45,7.59-.27,11.2-1.36,4.43-1.35,8.81-4.06,13.6-3.33,2.23.31,4.24,1.63,6.4,2.18,4.56,1.16,9.23,2.17,13.6,3.97,6.71,3.27,10.07,2.69,16.01-1.71,2.65-2.04,5.81-3.39,8.8-4.85,1.76-.81,3.69-1.54,5.6-1.86,3.45-.5,7.07-.34,10.4-1.46,4.11-1.37,7.88-3.72,12-5.07,1.78-.65,3.79-.78,5.6-1.3,2.35-.7,4.74-1.7,7.2-1.91,9-.65,12.65,9.05,20.01,9.2"/><path class="b" d="M15.57,62.8c2.98.14,5.9,1.05,8.8,1.63,3.14.65,6.4,1.02,9.6,1.04,4,.15,8.01-.45,12-.55,3.45-.02,6.97.67,10.4.05,5.77-1.16,11.67-5.43,17.61-2.59,4.83,2.13,10.24,2.63,15.21,4.39,4.71,1.55,9.31,4.54,14.41,2.64,3.05-1.09,5.87-2.87,8.8-4.22,2.92-1.58,5.72-3.56,8.8-4.84,2.84-1.11,5.86-1.87,8.8-2.63,2.16-.66,4.32-1.63,6.4-2.5,2.56-1.08,5.26-2.07,8-2.58,1.27-.26,2.73-.32,4-.51,1.57-.28,3.24-.74,4.8-1.04,11.19-2.35,15.14,8.66,23.21,7.61"/><path class="b" d="M15.57,60.79c2.65-.16,5.36.19,8,.07,4.52-.2,9.08-.61,13.6-.57,2.64,0,5.36-.22,8-.06,2.4.11,4.83.66,7.2.97,3.22.55,6.52.11,9.6-.9,10.08-3.27,9.23-1.62,18.41,1.22,3.94,1.2,8.04,1.97,12,3.06,4.11,1.34,8.42,3.16,12.8,2.07,5.61-1.27,10.39-4.68,15.21-7.66,5.13-2.89,10.51-5.45,16.01-7.58,4.61-1.76,9.64-.96,14.41-1.82,12.92-2.77,16.8,8.36,25.61,5.68"/><path class="b" d="M15.57,58.76c2.09-.45,4.31-.65,6.4-1.07,2.89-.65,5.83-1.49,8.8-1.67,2.92-.23,5.89.21,8.8.18,4.28-.18,8.6,0,12.8.83,3.42.67,6.98.96,10.4.11,11.8-3.18,10.29-.43,20.81,2.66,3.37,1.04,6.97,1.14,10.4,1.85,3.92.94,7.91,2.39,12,1.88,2.82-.3,5.45-1.6,8-2.74,3.51-1.65,7.03-3.46,10.4-5.39,4.18-2.42,8.03-5.81,12.8-7,3.15-.78,6.43.04,9.6.17,2.65,0,5.35-.56,8-.42,2.47.09,4.94.86,7.2,1.82,4.71,2.04,9.12,5.35,14.41,2.88"/><path class="b" d="M15.57,56.69c2.08-.76,4.32-1.37,6.4-2.12,3.29-1.32,6.8-2.56,10.4-2.22,1.85.12,3.76.55,5.6.69,1.84.11,3.78-.09,5.6-.28,3.17-.38,6.44-.52,9.6-.06,3.16.57,6.36,1.48,9.6.99,2.4-.25,4.81-.93,7.2-1.2,2.5-.37,4.98.47,7.2,1.54,2.32,1.06,4.73,2.16,7.2,2.79,3.37.97,6.97.62,10.4,1.14,4.22.66,8.49,2.13,12.8,1.53,2.18-.29,4.25-1.39,6.4-1.82,3.5-.83,7.19-1.45,10.4-3.15,4.68-2.46,8.13-7.4,13.6-8.22,2.68-.4,5.37.54,8,.92,2.64.27,5.36-.24,8-.05,2.75.13,5.47,1,8,2.04,4.74,1.98,9.24,4.67,14.41,2.19"/><path class="b" d="M15.57,54.73c2.09-.96,4.32-1.85,6.4-2.82,3.2-1.63,6.74-3.07,10.4-2.63,2.38.21,4.8.99,7.2.78,4.55-.41,8.97-2.43,13.6-1.94,1.61.12,3.24.74,4.8,1.09,1.54.34,3.23.48,4.8.39,2.68-.13,5.34-.92,8-1.18,2.81-.35,5.49.9,8,2.01,2.29,1,4.73,1.89,7.2,2.31,3.43.59,7,.24,10.4,1.04,4.44.87,9.06,2.61,13.6,1.44,3.85-1.37,8.05-.24,12-.99,6.68-1.14,9.94-9.03,16.81-9.72,2.7-.29,5.35.78,8,1.05,3.73.12,7.6-.2,11.2.99,2.98.9,5.9,2.23,8.8,3.34,3.01,1.3,6.5,1.79,9.6.5"/><path class="b" d="M15.57,52.19c2.09-1.02,4.29-2.02,6.4-2.98,2.51-1.21,5.2-2.35,8-2.58,2.66-.27,5.35.35,8,.38,4.15-.14,7.94-2.31,12-2.96,1.55-.27,3.25-.31,4.8-.02,2.08.51,4.24,1.14,6.4,1.15,3.79.16,7.44-1.35,11.2-1.43,4.15.21,7.94,2.42,12,3.15,2.88.69,5.91.9,8.8,1.49,2.73.64,5.37,1.81,8,2.74,2.54.89,5.29,1.61,8,1.34,1.55-.23,3.22-.61,4.8-.51,4.66.23,9.6,1.17,13.6-1.9,5.44-4.12,9.18-8.99,16.81-7.17,3.94.87,8.1.61,12,1.68,3.27.87,6.46,2.23,9.6,3.47,3.22,1.47,6.86,2.84,10.4,1.68"/><path class="b" d="M15.57,48.72c4.33-1.96,8.86-3.85,13.6-4.47,3.17-.44,6.45-.03,9.6-.5,7.57-1.74,10.85-5.02,19.21-3.03,2.37.31,4.86.15,7.2-.3,2.63-.48,5.3-1.33,8-1.29,2.68.17,5.37.89,8,1.41,3.76.79,7.59,1.61,11.2,2.93,3.89,1.53,7.26,4.28,11.2,5.7,1.76.65,3.73,1.03,5.6.97,1.83-.12,3.76-.39,5.6-.37,4.27-.12,8.85.67,12.8-1.36,2.87-1.42,5.27-3.74,8-5.38,3.05-2.01,6.88-2.61,10.4-1.65,2.87.78,5.9,1.17,8.8,1.83,3.53.83,7.05,1.97,10.4,3.35,3.49,1.59,7.25,3.72,11.2,2.59"/><path class="b" d="M15.57,44.7c7.41-2.96,15.49-3.19,23.21-4.84,4.24-1.15,8.37-3.08,12.8-3.41,3.45-.28,6.96.49,10.4-.09,3.49-.42,6.9-1.68,10.4-1.99,5.09,0,10.39.33,15.21,2.1,2.22.86,4.46,1.98,6.4,3.36,2.66,1.94,5.15,4.28,8,5.93,4.36,2.77,9.53,2.2,14.41,1.6,2.9-.34,5.9,0,8.8-.2,6.89-.18,11.38-7.51,18.41-7.07,2.5.11,4.79,1.46,7.2,1.97,3.97,1,8.09,1.64,12,2.86,4.48,1.5,8.64,4.96,13.6,3.14"/><path class="b" d="M15.57,40.73c4.21-1.05,8.57-1.47,12.8-2.35,4.59-1.1,9.09-2.72,13.61-4.1,2.84-.92,5.83-1.61,8.8-1.85,3.18-.24,6.45-.14,9.6-.71,4.3-.66,8.45-2.37,12.8-2.73,5.45-.2,11.21-.62,16.01,2.49,6.49,3.47,10.22,11.11,17.61,13.01,1.8.4,3.76.68,5.6.61,2.38-.17,4.81-.67,7.2-.58,4.26.2,8.83,1.95,12.8-.4,4.17-2.12,8.69-5.56,13.61-3.9,2.29,1.03,4.71,1.98,7.2,2.38,3.17.61,6.48.76,9.6,1.61,4.95,1.7,7.99,4.89,13.6,2.24"/><path class="b" d="M15.57,37.41c4.3-.53,8.69-1.13,12.8-2.52,2.72-.93,5.35-2.3,8-3.4,3.39-1.21,6.86-2.49,10.4-3.18,4.5-.83,9.18-.81,13.6-2.08,3.75-.93,7.41-2.41,11.2-3.17,1.54-.31,3.24-.34,4.8-.48,2.37-.2,4.86-.33,7.2.15,8.1,1.7,12.41,9.49,18.41,14.39,4.28,3.48,9.88,4.21,15.21,4.3,4.14.22,7.85,2.76,12,2.8,3.19-.26,5.94-2.29,8.8-3.53,2.45-1.13,5.35-1.89,8-1.04,1.01.37,2.17.96,3.2,1.26,4.39,1.41,9.18.61,13.61,1.8,1.38.37,2.75,1.22,4,1.89,2.98,1.7,6.6,1.84,9.6.08"/><path class="b" d="M15.57,34.11c4.42-.23,8.79-1.47,12.8-3.3,3.7-1.71,7.24-3.93,11.2-5,3.11-1.06,6.35-1.98,9.6-2.46,4.62-.61,9.27-1.43,13.6-3.17,3.19-1.2,6.3-2.84,9.6-3.72,5.57-1.1,11.14-1.65,16.01,1.85,5.18,3.39,8.78,8.66,13.6,12.47,3.31,2.6,7.37,4.13,11.2,5.78,3.03,1.12,6.04,2.52,8.8,4.22,3.63,2.19,7.1,3.8,11.21,1.66,3.35-1.52,6.62-3.74,10.4-3.91,2.21-.2,4.25,1.07,6.4,1.32,2.9.41,5.89-.1,8.8-.12,1.88-.02,3.89.22,5.6,1.04,3.98,2.48,7.58,3.57,12,1.23"/><path class="b" d="M15.57,30.59c6.71-.29,12.48-4.1,18.41-6.82,2.53-1.19,5.35-1.75,8-2.59,6.56-2.11,13.62-2.48,20.01-5.13,3.61-1.46,6.82-3.86,10.4-5.38,3.04-.99,6.42-1.66,9.6-1.12,5.25,1.08,8.98,5.43,12.8,8.86,4.02,4.01,8.69,7.32,13.6,10.14,3.64,2.38,7.01,5.25,10.4,7.97,3.57,2.83,7.89,6.84,12.8,5.17,4.93-1.75,9.68-5.73,15.21-4.36,4.48,1.39,9.07-.65,13.6-.53,2.32-.05,4.44,1.1,6.4,2.19,3.02,1.47,6.59,1.06,9.6-.21"/></svg>