<?xml version="1.0" encoding="UTF-8"?><svg id="a" xmlns="http://www.w3.org/2000/svg" width="1920" height="2400" viewBox="0 0 192 240"><defs><style>.b{fill:none;stroke:#fff;stroke-miterlimit:10;stroke-width:.3px;}.c{stroke-width:0px;}</style></defs><rect class="c" x="0" width="192" height="240"/><path class="b" d="M8.18,221.47c4.9.86,9.9,1.39,14.85,1.88,5.51.43,11.26.7,16.6-.94,1.75-.53,3.49-1.48,5.24-2.01,3.49-.26,7.27-.23,10.49,1.3,1.87.9,3.63,2.31,5.24,3.6,1.28.97,2.73,2.19,4.37,2.43,3.2-1,6.17-3,9.61-3.14,7.23-.37,14.61.8,21.85,1.15,3.77.28,7.61.56,11.36,1.08,1.7.24,3.54.57,5.24.81,1.72-.17,3.57-.52,5.24-.96,4.88-1.16,9.28-3.77,13.98-5.39,4.81-1.31,10.02-.96,14.86.05,5.44,1.35,10.97,2.65,16.6,2.77,6.68.29,13.43-.4,20.1.24"/><path class="b" d="M8.18,219.94c8.37,1.03,16.91,2.03,25.34,1.18,2.05-.24,4.18-.75,6.12-1.46,1.65-.68,3.44-1.3,5.24-1.11,2.89.08,5.99-.35,8.74.76,1.92.77,3.68,2.16,5.24,3.48,1.67,1.21,3.86,3.86,6.12,2.93,1.73-.66,3.49-1.65,5.24-2.25,1.94-.63,4.09-.83,6.12-.84,6.7.15,13.41.97,20.1,1.38,3.77.29,7.61.59,11.36,1.11,1.7.19,3.53.66,5.24.69,2.03-.25,4.15-.7,6.12-1.26,4.19-1.16,8.15-3.12,12.23-4.56,6.91-2.29,14.19-.35,20.97,1.44,10.32,2.62,20.98.68,31.46.85"/><path class="b" d="M8.18,218.45c7.52.78,15.18,1.28,22.72.58,3.29-.23,6.43-1.45,9.61-2.2,3.18-.06,6.43,0,9.61-.02,5.92-.46,10.09,8.69,13.98,7.2,3.08-1.35,6.15-3.09,9.61-3.15,7-.24,14,.9,20.97,1.29,5.84.42,11.7.99,17.48,1.93,3.87-.44,7.7-1.54,11.36-2.85,6.43-2.43,11.23-4.57,18.35-3.42,4.72.72,9.25,2.54,13.98,3.21,9.29,1.51,18.66-.24,27.96-.68"/><path class="b" d="M8.18,217c6.95.59,14.03.74,20.97-.05,2.95-.3,5.85-1.29,8.74-1.87,3.47-.07,7.01,0,10.49-.03,1.74.01,3.71-.21,5.24.79,3.17,1.82,5.1,5.73,8.74,6.72,2.1-.53,4.07-1.79,6.12-2.49,5.06-1.79,10.51-.98,15.73-.56,7.85.76,15.78,1.14,23.59,2.23,1.1.15,2.4.35,3.5.51,2.03-.06,4.14-.6,6.12-1.06,6.18-1.41,11.97-4.64,18.35-5.09,7.54-.53,14.42,3.49,21.85,4.07,8.77.98,17.53-.66,26.21-1.68"/><path class="b" d="M8.18,215.6c8.76.57,17.72.27,26.21-2.1,1.38-.31,2.96-.17,4.37-.2,2.3,0,4.69,0,6.99,0,1.4,0,2.97,0,4.37,0,1.17-.07,2.53.02,3.5.76,2.18,1.73,3.63,4.52,6.12,5.93,1.63,1.06,2.73.71,4.37-.02,1.68-.65,3.47-1.44,5.24-1.83,2.84-.65,5.84-.76,8.74-.9,3.19.16,6.43.55,9.61.82,7.57.67,15.2,1.2,22.72,2.38,6.92-.4,13.43-3.39,20.1-5.09,4.28-1.14,8.88-.9,13.11.36,4.85,1.49,9.75,3.17,14.85,3.48,8.52.71,17.01-.84,25.34-2.42"/><path class="b" d="M8.18,214.26c5.52.31,11.13,0,16.6-.81,2.94-.39,5.81-1.48,8.74-1.89,3.77-.02,7.59,0,11.36,0,1.4,0,2.97,0,4.37,0,.84-.02,1.91-.08,2.62.45,2.77,2.38,5.1,5.72,8.74,6.83,1.16.28,2.41-.44,3.5-.76,4.98-2.05,10.42-2.25,15.73-2.39,3.78.03,7.59.7,11.36.95,4.06.37,8.18.71,12.23,1.19,1.4.17,2.97.38,4.37.58,1.09.16,2.4.42,3.5.16,6.85-.99,13.34-3.65,20.1-5.04,7.49-1.59,13.91,2.06,20.97,3.67,10.43,2.16,21.27.69,31.46-2.01"/><path class="b" d="M8.18,212.99c5.25.23,10.57-.19,15.73-1.18,2.64-.48,5.22-1.58,7.86-1.99,3.77-.02,7.59,0,11.36,0,1.4,0,2.97,0,4.37,0,.82-.02,1.89-.05,2.62.4,2.9,2.09,5.36,5.01,8.74,6.38,1.64.81,2.75.51,4.37-.06,5.86-2.16,12.18-2.3,18.35-2.39,2.31-.1,4.69.34,6.99.52,3.18.31,6.43.6,9.61.92,2.6.26,5.28.57,7.86.94,1.7.27,3.54.59,5.24.14,6.5-1.06,12.75-3.39,19.22-4.6,7.91-1.64,14.39,2.42,21.85,3.96,10.44,1.8,21.41,1.07,31.46-2.31"/><path class="b" d="M8.18,211.77c4.97.17,10.01-.33,14.85-1.43,2.65-.55,5.17-2,7.86-2.29,3.77,0,7.59,0,11.36,0,1.97.15,4.29-.4,6.12.43,3.75,2.26,7,5.63,11.36,6.74,1.12.41,2.4-.26,3.5-.49,4.78-1.55,9.85-1.98,14.85-2.08,3.48-.07,7.03-.22,10.49.27,4.35.45,8.76.85,13.11,1.37,1.4.17,2.97.38,4.37.58,1.09.17,2.4.39,3.5.13,6.79-1.02,13.33-3.36,20.1-4.45,8.08-1.58,14.29,2.37,21.85,3.98,4.58.92,9.33.96,13.98.93,6.23.02,12.56-.74,18.35-3.14"/><path class="b" d="M8.18,210.62c4.69.14,9.43-.38,13.98-1.52,2.39-.64,4.67-1.87,6.99-2.68,5.21-.31,10.51-.02,15.73-.12,1.24.05,2.46.9,3.5,1.5,1.1.67,2.39,1.46,3.5,2.12,1.93,1.14,3.98,2.36,6.12,3.07.77.26,1.81.56,2.62.62.45-.09,1.3-.29,1.75-.4,7.92-2.36,16.28-2.24,24.47-2.17,4.35.44,8.76.9,13.11,1.41,2.6.21,5.26.91,7.86.89,6.78-.94,13.34-3.16,20.1-4.2,9.16-1.74,14.34,1.91,22.72,3.79,5.16,1.05,10.5.88,15.73.9,5.92.05,12.06-.21,17.48-2.85"/><path class="b" d="M8.18,209.52c6.24.04,12.86-.5,18.35-3.71.77-.42,1.77-1,2.62-1.22.79-.03,1.83-.03,2.62-.03,2.3,0,4.69,0,6.99,0,5.62-.09,4.78-.17,9.61,2.47,3.02,1.39,10,5.39,13.11,4.66,8.24-2.26,16.85-2.4,25.34-2.19,6.42.36,12.84,1.37,19.22,2.17,6.78-.86,13.35-3.01,20.1-3.99,11.22-1.95,15.3,2.09,25.34,3.88,5.19.79,10.5.48,15.73.54,5.59,0,11.54.35,16.6-2.44"/><path class="b" d="M8.18,208.45c4.96.02,10.2-.23,14.86-2.07,1.49-.7,3.03-1.7,4.37-2.67.99-.86,2.25-.99,3.5-.9,3.47,0,7.01-.01,10.49,0,2.13.6,4.05,2.07,6.12,2.86,4.25,1.71,8.59,3.55,13.11,4.41,3.76-.67,7.54-1.58,11.36-1.87,4.92-.46,9.92-.4,14.85-.28,5.26.16,10.51,1.08,15.73,1.7,2.61.58,5.3-.2,7.86-.67,4.36-.87,8.71-2.01,13.11-2.69,13.91-2.25,15.88,1.53,27.96,3.62,5.78.75,11.67.34,17.48.44,4.98-.1,10.4.63,14.85-2.09"/><path class="b" d="M8.18,207.37c3.19.07,6.46-.07,9.61-.55,2.07-.33,4.32-.63,6.12-1.8,1.2-.69,2.49-1.71,3.5-2.66.71-.64,1.59-1.51,2.62-1.3,2,0,4.12,0,6.12,0,1.4.08,3.07-.26,4.37.38,3.26,1.91,6.86,3.27,10.49,4.28,2.87.84,5.81,1.74,8.74,2.35,1.71.48,3.55-.22,5.24-.46,2.28-.4,4.68-.77,6.99-.99,6.37-.56,12.85-.47,19.22.03,3.77.45,7.6.95,11.36,1.45,2.31.18,4.72-.58,6.99-.94,4.06-.82,8.14-1.82,12.23-2.43,5.48-.76,11.19-1.2,16.6.22,4.63,1.18,9.2,2.85,13.98,3.32,5.79.58,11.67.23,17.48.32,4.66-.21,9.9.88,13.98-1.93"/><path class="b" d="M8.18,206.23c4.65.07,9.41-.07,13.98-.99,2.94-1.02,5.11-3.41,6.99-5.77,2.57-.33,5.28-.06,7.86-.14,1.57.23,2.92,1.54,4.37,2.11,3.86,1.74,8.14,2.47,12.23,3.47,2.86.54,5.81,1.59,8.74,1.56,1.7-.28,3.54-.58,5.24-.84,7.5-1.19,15.16-1.1,22.72-.55,2.89.29,5.85.74,8.74,1.09.78.1,1.84.24,2.62.33,1.1-.1,2.4-.31,3.5-.49,10.33-1.91,20.9-4.9,31.46-3.03,4.68.89,9.25,2.54,13.98,3.22,5.48.83,11.08.63,16.6.67,2.59,0,5.27,0,7.86,0,3.02.08,6.42.07,8.74-2.17"/><path class="b" d="M8.18,204.8c3.48-.06,7.01.23,10.49-.03,1.73-.09,3.63-.06,5.24-.79,1.75-.65,3.39-2,4.37-3.58.32-.73,1.19-2.16,1.75-2.73,1.7-.11,3.55-.16,5.24-.01,4.57,4,10.91,4.17,16.6,5.3,3.47.6,6.99,1.32,10.49,1.78,3.49-.25,6.99-1.05,10.49-1.3,4.92-.49,9.93-.35,14.85-.04,4.08.26,8.17.97,12.23,1.4,3.51-.36,7.04-1.09,10.49-1.81,9.42-1.96,19.32-3.26,28.84-1.25,4.05.86,8.13,1.95,12.23,2.53,5.2.63,10.5.69,15.73.8,2.88.04,5.85.06,8.74.03,3.41.1,5.92-.48,7.86-3.59"/><path class="b" d="M8.18,202.54c2.89-.07,5.86,0,8.74.31,3.73.46,8.04,1.19,11.36-1.04.83-1.09,2.33-1.75,3.5-2.39.77-.39,1.7-1.21,2.62-1.07,2.45,1.88,5.81,1.75,8.74,2.11,3.78.32,7.61.72,11.36,1.26,3.18.42,6.41,1.01,9.61,1.27,5.5-.72,11.04-1.58,16.6-1.42,5.85.02,11.68.81,17.48,1.43,6.16-.68,12.21-2.25,18.35-3.08,8.68-1.08,17.61-1.5,26.21.38,2.92.39,5.82,1.32,8.74,1.69,5.2.61,10.5.73,15.73.91,3.76.02,7.66.36,11.36-.42,2.68-.52,3.71-3.65,4.37-5.94l.87-.72"/><path class="b" d="M8.18,200.19c3.48-.11,7.04-.08,10.49.39,1.43.17,2.94.7,4.37.81,1.7.27,3.53.23,5.24.22,1.41-.03,3,.12,4.37-.26,1.38-.54,2.89-1.16,4.37-1.32,4.32-.64,8.76-.68,13.11-.39,5.25.29,10.49,1.24,15.73,1.57,5.21-.63,10.47-1.35,15.73-1.14,5.02-.03,9.94.9,14.85,1.11,7.31-.83,14.51-2.63,21.85-3.3,5.8-.49,11.66-.87,17.48-.86,2.59.04,5.28.18,7.86.38,1.17.06,2.36.87,3.5,1.15,6.5,1.85,13.4,1.52,20.1,1.8,2.29.03,4.7.05,6.99-.15,1.79-.16,3.77-.52,5.24-1.62.58-.42,1.37-1.51,1.75-2.1,0,0,.87-1.71.87-1.71l.87-.7h.87"/><path class="b" d="M8.18,197.82c4.96-.23,9.98-.19,14.85.72,1.48.07,3.07.5,4.37,1.21,1.39.22,2.97.08,4.37.12,1.41-.02,2.97.04,4.37-.05,1.71-.29,3.53-.78,5.24-1.06,3.15-.55,6.42-.71,9.61-.61,5.54.15,11.08.91,16.6,1.34,5.79-.65,11.65-1.24,17.48-.77,3.18.08,6.44.89,9.61.62,8.17-.96,16.25-2.75,24.47-3.34,5.23-.37,10.51-.76,15.73-1.35,1.4-.14,2.97-.29,4.37-.43,1.09-.06,2.42-.4,3.5-.1,1.04.56,2.36,1.11,3.5,1.47,5.36,1.55,11.05,1.86,16.6,1.93,4.06,0,8.24.14,12.23-.69,1.99-.41,3.95-1.53,5.24-3.11,0,0,.87-1.02.87-1.02l.87-.37c.4,0,1.34,0,1.75,0"/><path class="b" d="M8.18,195.46c4.64-.12,9.35-.52,13.98-.12,1.96-.06,4.28-1.02,6.12-.13,2.07,3.46,2.42,2.91,6.12,2.91,1.7-.03,3.54.08,5.24-.08,2.6-.4,5.24-1.05,7.86-1.26,5.81-.49,11.69.03,17.48.53,1.7.13,3.53.44,5.24.44,2.3-.19,4.69-.43,6.99-.55,4.06-.24,8.19.09,12.23.43,3.49.16,7.03-.67,10.49-1.06,5.5-.83,11.06-1.63,16.6-2.12,3.76-.36,7.61-.57,11.36-1.07,3.21-.45,6.45-1.18,9.61-1.87,1.09-.19,2.39-.68,3.5-.43,2.21,1.01,4.6,1.91,6.99,2.39,4,.82,8.16,1.08,12.23,1.27,4.35.11,8.81.05,13.11-.73,2.18-.41,4.36-1.34,6.12-2.69,1.14-1.05,2.95-.67,4.37-.73"/><path class="b" d="M8.18,193.15c3.77-.17,7.6-.33,11.36-.71,3.67-.07,5.92-1.31,8.74-3.53,2.5,1.63,2.98,5.3,5.24,7.16,1.64.55,3.54.21,5.24.3,2.63.15,5.29-.29,7.86-.8,7.8-1.22,15.78-.49,23.59.25,2.59.4,5.27.06,7.86-.05,2.89-.12,5.86.01,8.74.19,7.01-.47,13.99-1.68,20.97-2.45,6.09-.75,12.28-1.03,18.35-1.94,3.86-.49,7.51-2.23,11.36-2.74,1.75-.14,3.61.14,5.24.79,1.96.65,4.08,1.19,6.12,1.53,6.62,1.01,13.43,1.25,20.1.63,2.65-.28,5.4-.8,7.86-1.85.75-.33,1.83-.83,2.62-1.07,1.39-.09,2.97-.04,4.37.02"/><path class="b" d="M8.18,190.94c4.37-.2,8.83-.43,13.11-1.42,1.88-.32,3.53-1.63,5.24-2.39,1.7-.08,3.54-.04,5.24-.03l.87.57c.8,2.38,1.61,5.77,4.37,6.54,2.24.61,4.69.37,6.99.4,2.32-.2,4.68-.79,6.99-1.03,5.79-.62,11.68-.44,17.48.04,12.84,1.81,25.68-.61,38.45-1.89,6.1-.68,12.31-.93,18.35-2.08,2.37-.45,4.72-1.34,6.99-2.13,1.35-.51,2.95-.46,4.37-.45,1.4.03,2.98-.07,4.37.08,2.31.44,4.67,1.16,6.99,1.54,4.88.85,9.91,1.08,14.85.99,3.5-.07,7.07-.39,10.49-1.19,1.72-.37,3.5-1.12,5.24-1.41,1.7-.04,3.55.13,5.24.25"/><path class="b" d="M8.18,188.81c4.69-.2,9.51-.53,13.98-2.08,1.1-.43,2.32-1.2,3.5-1.4,2.59,0,5.27-.01,7.86,0,1.32,2,2.23,4.72,4.37,6.04,1.8,1.11,4.05,1.35,6.12,1.44,2.63.24,5.28-.45,7.86-.81,5.48-.75,11.09-.78,16.6-.43,3.18.2,6.42.69,9.61.7,9.06-.12,18.07-1.46,27.09-2.25,6.11-.62,12.32-.87,18.35-2.11,2.06-.44,4.17-1.17,6.12-1.96,1.32-.63,2.94-.66,4.37-.61,3.18.09,6.48-.29,9.61.41,5.44,1.2,11.03,1.86,16.6,1.85,4.38,0,8.83-.32,13.11-1.29,1.4-.29,2.94-.83,4.37-.9,2,.11,4.12.31,6.12.45"/><path class="b" d="M8.18,186.78c5.35-.14,10.79-.84,15.73-3.01,1.96-.4,4.12-.09,6.12-.18,1.1,0,2.4,0,3.5,0,.53-.1,1.32.14,1.75.44,2.38,3.9,4.91,6.26,9.61,6.76,1.1.15,2.39.25,3.5.29,1.72-.16,3.54-.56,5.24-.81,3.45-.53,7-.75,10.49-.82,4.66-.1,9.33.66,13.98.75,4.95-.06,9.93-.51,14.85-.96,9.01-.99,18.13-1.27,27.09-2.71,2.04-.37,4.18-.94,6.12-1.69,1.37-.49,2.87-1.32,4.37-1.26,3.76.03,7.6-.06,11.36.04,2.61.3,5.26.97,7.86,1.33,6.05.89,12.27,1.08,18.35.37,2.63-.22,5.26-1.05,7.86-1.36,2.59.18,5.27.38,7.86.52"/><path class="b" d="M8.18,184.83c3.2-.1,6.49-.38,9.61-1.1,2.06-.43,4.09-1.35,6.12-1.86,4.06-.06,8.18-.05,12.23,0,1.28.94,2.31,2.56,3.5,3.6,1.23,1.11,2.8,2.07,4.37,2.62,2.21.73,4.66,1.22,6.99,1.16,2.01-.31,4.11-.75,6.12-1.03,6.07-1,12.25-.6,18.35-.18,6.69.37,13.43-.52,20.1-.99,6.98-.64,14.03-.93,20.97-1.91,2.03-.31,4.16-.75,6.12-1.38,1.73-.52,3.48-1.44,5.24-1.87,2.29-.1,4.7-.02,6.99-.04,2.59.06,5.29-.15,7.86.14,5.48,1.04,11,2.19,16.6,2.25,4.68.17,9.4-.38,13.98-1.29,3.47.14,7.01.26,10.49.35"/><path class="b" d="M8.18,182.96c3.2-.08,6.49-.39,9.61-1.14,2.04-.42,4.05-1.43,6.12-1.74,2.89,0,5.85,0,8.74,0,1.7.07,3.57-.17,5.24.16,1.49,1.12,2.84,2.73,4.37,3.8,2.29,1.67,5.09,2.7,7.86,3.19,2.02.53,4.13,0,6.12-.41,2.86-.57,5.82-1.02,8.74-1.05,4.65-.15,9.34.3,13.98.34,5.82-.14,11.67-.66,17.48-1.08,7.28-.62,14.68-.75,21.85-2.27,2.7-.53,5.26-1.77,7.86-2.6,2.58-.19,5.28-.03,7.86-.08,2.59.06,5.29-.14,7.86.12,6.05,1.3,12.12,2.9,18.35,2.92,3.19.12,6.45-.19,9.61-.58,4.64-.03,9.34-.2,13.98-.27"/><path class="b" d="M8.18,181.16c3.21-.07,6.49-.39,9.61-1.16,2.03-.43,4.04-1.45,6.12-1.66,3.18,0,6.43,0,9.61,0,1.99.11,4.17-.26,6.12.22,2.05,1.4,3.92,3.31,6.12,4.5,2.64,1.43,5.7,2.7,8.74,2.64,3.73-.79,7.53-1.62,11.36-1.71,4.94-.26,9.92.22,14.85.07,6.4-.26,12.83-.78,19.22-1.19,6.13-.46,12.38-.68,18.35-2.24,2.37-.54,4.61-1.86,6.99-2.3,4.64,0,9.34,0,13.98,0,2.38.09,4.72,1.09,6.99,1.72,2.55.77,5.23,1.4,7.86,1.8,9.86,1.51,19.84.25,29.71-.41"/><path class="b" d="M8.18,179.42c5.12.02,10.03-1.12,14.85-2.71,4.92-.29,9.92-.02,14.86-.11,1.44.03,3.15-.25,4.37.71,2.25,1.62,4.5,3.45,6.99,4.7,1.88.97,4.01,1.75,6.12,2.02,1.12-.1,2.4-.47,3.5-.71,8.31-1.96,16.91-.8,25.34-1.35,9.9-.71,19.9-.83,29.71-2.41,2.04-.38,4.17-.95,6.12-1.67,1.38-.48,2.88-1.28,4.37-1.28,3.18,0,6.43,0,9.61,0,1.7.06,3.58-.18,5.24.24,4.92,1.66,9.67,4.08,14.85,4.86,9.85,1.77,19.87.11,29.71-.9"/><path class="b" d="M8.18,177.72c3.21-.05,6.49-.4,9.61-1.16,2.03-.45,4.06-1.39,6.12-1.7,4.64-.03,9.34,0,13.98,0,1.7.06,3.56-.14,5.24.13,2.5,1.16,4.61,3.21,6.99,4.59,2.09,1.31,4.48,2.5,6.99,2.64,1.71-.34,3.53-.8,5.24-1.09,6.33-1.17,12.82-.78,19.22-.97,8.44-.45,16.92-.87,25.34-1.63,3.52-.36,7.11-.88,10.49-1.96,1.42-.44,2.96-1.08,4.37-1.53,1.07-.3,2.4-.17,3.5-.2,3.76.1,7.62-.2,11.36.13,2.57.69,4.64,2.62,6.99,3.77,3.79,1.84,8.08,2.47,12.23,2.83,9.33.76,18.71-.26,27.96-1.41"/><path class="b" d="M8.18,176.05c3.21-.05,6.49-.4,9.61-1.16,2.04-.46,4.07-1.34,6.12-1.75,5.52-.13,11.08,0,16.6-.05,1.4.06,3-.18,4.37.2,2.79,1.41,5.06,3.85,7.86,5.26,1.85.92,4.01,1.9,6.12,1.8,1.1-.23,2.39-.52,3.5-.74,5.73-1.18,11.65-1.27,17.48-1.3,3.77-.12,7.6-.38,11.36-.6,6.99-.47,14.07-.65,20.97-1.92,2.04-.39,4.16-.98,6.12-1.68,1.36-.48,2.89-1.14,4.37-1.03,2.59,0,5.27,0,7.86,0,1.41.05,3.06-.22,4.37.43,2.26,1.07,3.82,3.36,6.12,4.41,3.21,1.64,6.93,2.11,10.49,2.39,4.64.17,9.34-.38,13.98-.25,2.59,0,5.27.21,7.86.27,3.48-.18,7.03-.48,10.49-.9"/><path class="b" d="M8.18,174.41c3.21-.05,6.49-.4,9.61-1.14,2.34-.49,4.62-1.6,6.99-1.91,4.35-.02,8.76,0,13.11,0,2.29.08,4.72-.19,6.99.15,3.42,1.35,6.23,4.03,9.61,5.5,1.88.75,4.06,1.85,6.12,1.51,5.72-1.36,11.61-1.93,17.48-2.04,4.36-.05,8.76-.4,13.11-.64,8.77-.64,17.8-.65,26.21-3.5,1.08-.36,2.36-.85,3.5-.97.77,0,1.85,0,2.62,0,2.3,0,4.7,0,6.99,0,3.04.22,4.63,3.57,6.99,5.08,3.07,1.88,6.95,2.56,10.49,1.95,7.24-.76,14.58-.92,21.85-.64,2.59.12,5.28.34,7.86.61,1.99.25,4.12.41,6.12.12"/><path class="b" d="M8.18,172.79c3.21-.05,6.49-.4,9.61-1.13,2.34-.5,4.65-1.49,6.99-1.99,6.1-.2,12.25-.01,18.35-.07,2.9-.08,5.4,1.89,7.86,3.17,3,1.7,6.2,3.33,9.61,4,1.42.24,2.97-.42,4.37-.62,1.99-.4,4.1-.73,6.12-.95,5.21-.59,10.5-.57,15.73-.97,9.62-.76,19.49-.68,28.84-3.36,1.4-.4,2.93-1,4.37-1.23,2.59-.05,5.27,0,7.86-.02,1.45-.09,2.56,1.39,3.5,2.3.76.81,1.88,1.87,2.62,2.71,1.59,1.57,3.95,2.2,6.12,2.38,1.09-.16,2.4-.42,3.5-.6,5.47-.92,11.07-.92,16.6-1.04,7.88-.2,15.78.25,23.59,1.26"/><path class="b" d="M8.18,171.17c3.81-.06,7.68-.54,11.36-1.55,2.58-.65,5.15-1.95,7.86-1.77,3.77,0,7.59,0,11.36,0,1.7.02,3.54-.04,5.24.04,1.48.21,3.02.85,4.37,1.45,4.56,2.08,9,4.77,13.98,5.69,2.03.02,4.11-.76,6.12-1.02,5.18-.94,10.49-1.17,15.73-1.46,6.98-.51,14.01-.86,20.97-1.63,4.43-.47,8.85-1.41,13.11-2.74,2.53-.63,5.28-.23,7.86-.3,2.08,1.43,3.27,4.09,5.24,5.68,2.98,2.66,5.34,1.61,8.74.82,2.56-.52,5.26-.75,7.86-.88,11.93-.26,23.96-.68,35.83.76"/><path class="b" d="M8.18,169.56c3.81-.06,7.67-.55,11.36-1.51,2.02-.51,4.09-1.28,6.12-1.76,1.39-.29,2.96-.15,4.37-.18,4.35,0,8.76-.01,13.11,0,6.48.91,12.1,4.85,18.35,6.58.78.22,1.83.47,2.62.61,1.73-.05,3.54-.64,5.24-.9,2.87-.53,5.84-.93,8.74-1.21,10.77-.91,21.64-1.25,32.33-2.9,3.24-.46,6.42-1.54,9.61-2.18,1.09-.02,2.4-.01,3.5-.01.75.18,1.4,1.12,1.75,1.75,2.9,4.82,4.64,7.26,10.49,4.75,3.37-1.01,6.99-1.15,10.49-1.23,3.76-.07,7.59-.03,11.36-.02,8.73.02,17.52-.3,26.21.57"/><path class="b" d="M8.18,167.93c3.51-.07,7.07-.48,10.49-1.27,2.63-.57,5.24-1.54,7.86-2.13,3.44-.41,7.02-.07,10.49-.18,2,.03,4.12-.07,6.12.06,1.74.23,3.57.77,5.24,1.28,3.84,1.18,7.6,2.74,11.36,4.14,1.95.71,4.07,1.37,6.12,1.73,1.11-.02,2.4-.36,3.5-.56,6.32-1.36,12.8-1.83,19.22-2.35,7.86-.7,15.79-1.13,23.59-2.33,2.01-.31,4.14-.7,6.12-1.17,1.09-.24,2.37-.72,3.5-.78,2.29,3.52,3.15,9.19,8.74,7.16,1.6-.87,3.44-1.58,5.24-1.84,4.03-.58,8.18-.35,12.23-.31,11.93.41,23.9-.29,35.83.33"/><path class="b" d="M8.18,166.31c3.5-.07,7.06-.49,10.49-1.25,2.92-.62,5.82-1.63,8.74-2.25,1.98-.36,4.12-.14,6.12-.2,2.88.04,5.86-.08,8.74.06,5.05.81,10.02,2.32,14.85,3.96,3.67,1.15,7.48,3.05,11.36,3.18,2-.36,4.11-.8,6.12-1.15,9.23-1.6,18.64-2.03,27.96-2.89,3.47-.28,7.01-.61,10.49-.87,1.39-.1,2.97-.19,4.37-.17,1.18.03,2.65.1,3.5,1.04,1.27,3.54,1.99,5.11,6.12,4.19,1.71-.85,3.27-2.35,5.24-2.57,4.03-.6,8.18-.1,12.23.01,13.09.74,26.22.06,39.32.21"/><path class="b" d="M8.18,164.66c6.87,0,13.48-2,20.1-3.56,1.98-.39,4.12-.2,6.12-.24,2.3.03,4.7-.07,6.99.06,6.78,1.19,13.58,2.71,20.1,4.93,2.84.88,5.76,2.05,8.74,2.27,3.19-.52,6.42-1.25,9.61-1.74,3.16-.51,6.44-.54,9.61-.91,4.64-.54,9.31-1.14,13.98-1.32,3.76-.15,7.64-.52,11.36.21,2.24.38,4,2.09,5.24,3.88.77.21,1.83.16,2.62.16.5.08,1.31-.11,1.75-.36,1.67-1.19,3.38-2.63,5.24-3.51,2-.22,4.12.09,6.12.25,15.96,1.84,32.04,1.15,48.06.79"/><path class="b" d="M8.18,163c4.1-.1,8.23-.68,12.23-1.59,3.47-.75,6.96-1.81,10.49-2.25,3.17-.11,6.44-.08,9.61-.02,2.32.31,4.68.95,6.99,1.34,5.9.96,11.8,2.18,17.48,4.12,7.85,2.54,7.09,1.86,14.86.49,4.91-.68,9.93-.83,14.85-1.46,3.17-.4,6.4-.89,9.61-.8,2.91.02,5.97.08,8.74,1.07,1.21.45,2.5,1.28,3.5,2.09.64.64,1.77.7,2.62.64,2.36.26,2.77-.67,4.37-2.13,1.71-1.47,3.88-2.69,6.12-3.08,8.28,2.04,16.84,2.67,25.34,2.81,9.61.22,19.24-.2,28.84-.63"/><path class="b" d="M8.18,161.33c4.7-.11,9.4-.89,13.98-1.93,4.03-.8,8.1-2,12.23-2.04,2,.05,4.13-.12,6.12.12,2.3.44,4.67,1.06,6.99,1.41,5.25.79,10.61,1.33,15.73,2.82,3.76,1,7.5,2.43,11.36,3.03,1.72-.06,3.55-.49,5.24-.75,4.61-.77,9.34-.93,13.98-1.34,4.06-.26,8.17-1.1,12.23-.54,2.74.26,5.45,1.2,7.86,2.5,1.32.55,2.97.23,4.37.31,1.04-.59,1.8-2.06,2.62-2.89,2.05-2.08,5.08-2.73,7.86-3.16,1.16-.01,2.39.68,3.5.96,1.96.61,4.09,1.09,6.12,1.44,4.6.77,9.32,1.05,13.98,1.21,10.48.34,21,0,31.46-.76"/><path class="b" d="M8.18,159.63c9.46-.15,18.54-3.5,27.96-4.02,1.1,0,2.4-.03,3.5.04,2.02.32,4.1.99,6.12,1.33,3.73.7,7.6.89,11.36,1.36,3.52.42,7.07,1.16,10.49,2.13,3.17.87,6.36,2,9.61,2.51,2.89.08,5.84-.76,8.74-.89,4.34-.35,8.75-.57,13.11-.77,3.22-.17,6.53,0,9.61,1,1.36.44,2.91.95,4.37.83.78,0,1.87.06,2.62-.23,1.34-.87,1.96-3.12,2.62-4.49,1.2-.96,2.88-1.28,4.37-1.46,1.99-.23,4.11-.31,6.12-.43,2.34.57,4.6,1.85,6.99,2.33,4.55,1.15,9.31,1.52,13.98,1.76,11.35.49,22.76.23,34.08-.81"/><path class="b" d="M8.18,157.92c7.67-.2,15.14-2.28,22.72-3.24,3.44-.31,7.09-1.34,10.49-.36,7.64,2.42,15.8,1.59,23.59,3.11,5.62.88,10.92,3.43,16.6,3.86,2.59-.07,5.27-.45,7.86-.54,5.22-.24,10.55-.59,15.73.3,1.68.33,3.53.4,5.24.36,1.77.15,3.47-.95,4.37-2.42.89-1.45,1.54-3.79,2.62-5.12,3.76.3,7.58.72,11.36.64,1.78.39,3.48,1.51,5.24,2.02,2.52.86,5.23,1.39,7.86,1.74,6.65.83,13.4.91,20.1.89,7.28-.04,14.61-.33,21.85-1.16"/><path class="b" d="M8.18,156.19c5.29-.15,10.53-1.18,15.73-2.06,4.91-.79,9.9-1.31,14.85-1.76,1.78-.33,3.55.57,5.24.96,1.97.52,4.09.86,6.12,1.04,6.69.48,13.5.17,20.1,1.6,2.02.4,4.14.94,6.12,1.51,1.95.72,4.05,1.35,6.12,1.62,4.91.81,9.92.16,14.85.33,2.59.04,5.27.29,7.86.24,2.12.06,4.45-.35,6.12-1.75,1.88-1.48,2.75-4.12,4.37-5.79,3.19-.03,6.44-.02,9.61.32,1.4.15,2.99.03,4.37.34,3.81,1.96,7.98,3.25,12.23,3.75,6.65.87,13.4.91,20.1.9,7.28-.05,14.62-.29,21.85-1.25"/><path class="b" d="M8.18,154.45c8.51-.35,16.84-2.58,25.34-3.06,2.59-.21,5.28-.39,7.86-.65,1.4.43,2.95.95,4.37,1.28,4.85,1.15,9.91.9,14.85.93,4.66,0,9.38.25,13.98,1.05,2.73.29,5.17,1.89,7.86,2.37,4.57,1.02,9.32,1.19,13.98,1.24,4.83.04,10.37.22,13.98-3.56,1.15-1.09,2.17-2.77,3.5-3.66,5.23-.09,10.52-.03,15.73.5,3.81,2,7.96,3.39,12.23,3.89,6.64.89,13.4.91,20.1.9,7.28-.07,14.63-.24,21.85-1.31"/><path class="b" d="M8.18,152.69c5.58-.18,11.09-1.32,16.6-2.05,5.5-.71,11.08-.87,16.6-1.24,1.79-.32,3.53.7,5.24,1.02,2.26.54,4.67.78,6.99.85,7.27.1,14.58-.57,21.85-.01,2.19-.11,4.09,1.27,6.12,1.85,3.37,1.07,6.96,1.57,10.49,1.79,8.85.41,12.29,0,19.22-5.81.97-.68,2.38-.4,3.5-.45,1.7,0,3.54,0,5.24,0,3.19-.1,6.43.3,9.61.41,3.82,2,7.94,3.5,12.23,4.01,6.93.93,13.99.91,20.97.89,6.99-.09,14.05-.23,20.97-1.33"/><path class="b" d="M8.18,150.91c5.57-.2,11.08-1.32,16.6-1.98,5.5-.64,11.08-.72,16.6-.91.79-.03,1.84-.09,2.62-.15,1.43.2,2.94.84,4.37,1.09,2.84.6,5.84.74,8.74.68,6.69-.2,13.4-.86,20.1-1.01.83-.08,1.9.17,2.62.58,1.07.46,2.38.93,3.5,1.25,3.67,1.06,7.55,1.55,11.36,1.55,2.63-.03,5.42-.28,7.86-1.33,1.68-.93,3.49-1.91,5.24-2.7,1.03-.53,2.3-1.21,3.5-1.1,4.06.01,8.18-.02,12.23.01,1.4.07,2.97.22,4.37.3.8.04,1.89-.01,2.62.38,3.51,1.91,7.39,3.21,11.36,3.72,6.93.93,13.99.91,20.97.9,6.99-.1,14.06-.19,20.97-1.33"/><path class="b" d="M8.18,149.13c5.57-.21,11.08-1.31,16.6-1.91,5.5-.58,11.08-.59,16.6-.64,1.41-.02,2.97-.06,4.37-.14,2.01.35,4.07,1.09,6.12,1.28,3.75.48,7.6.3,11.36,0,5.53-.39,11.06-1.29,16.6-1.56,2.04.39,4.06,1.36,6.12,1.73,4.27.92,8.82,1.32,13.11.29,1.49-.33,2.99-1.13,4.37-1.74,2-.4,4.05-1.35,6.12-1.31,5.81.08,11.68-.23,17.48.25,1.09.11,2.43,0,3.5.31,1.09.54,2.38,1.22,3.5,1.7,2.47,1.08,5.2,1.74,7.86,2.13,6.93.94,13.99.92,20.97.92,6.99-.1,14.06-.17,20.97-1.31"/><path class="b" d="M8.18,147.33c5.56-.22,11.07-1.3,16.6-1.85,5.8-.55,11.66-.47,17.48-.42,2,.06,4.12-.11,6.12-.02,1.67.49,3.51.86,5.24,1.06,4.34.49,8.78.16,13.11-.34,3.19-.37,6.44-.86,9.61-1.38,2.56-.27,5.33-.88,7.86-.16,3.97.96,8.16,1.53,12.23.97,1.44-.2,3.01-.61,4.37-1.11,1.4-.19,2.97-.37,4.37-.56,3.46-.34,7.02-.08,10.49-.16,4.65-.07,9.34.05,13.98.3,1.21.13,2.41,1,3.5,1.48,1.35.66,2.92,1.27,4.37,1.67,5.96,1.57,12.23,1.63,18.35,1.8,9.31.05,18.73.18,27.96-1.25"/><path class="b" d="M8.18,145.51c4.97-.22,9.92-1.04,14.85-1.62,4.33-.46,8.75-.56,13.11-.52,4.64.02,9.34.27,13.98.07,3.98.97,8.14,1.35,12.23,1.07,6.49-.22,12.77-2.21,19.22-2.66,2.61-.27,5.27.07,7.86.36,2.59.23,5.29.21,7.86-.15,4.6-.72,9.34-.32,13.98-.42,5.81.03,11.67-.1,17.48.13,1.22-.11,2.44.75,3.5,1.25,1.63.85,3.47,1.61,5.24,2.08,5.11,1.34,10.48,1.52,15.73,1.71,10.18.14,20.49.36,30.58-1.2"/><path class="b" d="M8.18,143.68c7.59-.36,15.1-2.03,22.72-2,7.27-.17,14.58.46,21.85.13,3.41.81,6.99,1.04,10.49.87,5.33-.16,10.5-1.68,15.73-2.54,4.92-.51,9.92-.16,14.85-.21,11.35-.11,22.73-.01,34.08-.04,1.54-.11,3.04.86,4.37,1.51,1.35.68,2.92,1.32,4.37,1.75,4.52,1.3,9.31,1.58,13.98,1.8,5.81.23,11.67.23,17.48.1,5.24-.15,10.56-.34,15.73-1.27"/><path class="b" d="M8.18,141.84c7.3-.33,14.53-1.89,21.85-1.89,7.86-.16,15.74.48,23.59.23,1.43-.21,2.96.09,4.37.3,1.7.21,3.54.3,5.24.27,2.91-.05,5.89-.43,8.74-1.03,2.3-.46,4.65-1.22,6.99-1.47,4.93-.28,9.92-.04,14.85-.12,11.35,0,22.73,0,34.08,0,1.53.14,3,1.12,4.37,1.73,1.35.64,2.93,1.23,4.37,1.62,5.68,1.48,11.64,1.62,17.48,1.8,9.89.07,19.93.34,29.71-1.38"/><path class="b" d="M8.18,140c8.16-.43,16.26-2.08,24.47-1.79,6.11.04,12.24.31,18.35.33,2.3,0,4.7-.05,6.99-.29,1.71.07,3.53.39,5.24.39,2.91.06,5.89-.25,8.74-.84,2.01-.39,4.08-1.07,6.12-1.33,5.22-.23,10.5-.02,15.73-.09,11.06,0,22.14,0,33.21,0,1.53.08,3,1.02,4.37,1.62,1.64.77,3.49,1.43,5.24,1.87,5.7,1.35,11.64,1.49,17.48,1.66,9.89.04,19.95.37,29.71-1.52"/><path class="b" d="M8.18,138.16c6.42-.24,12.8-1.48,19.22-1.64,9.89-.21,19.82.61,29.71.12,1.41-.08,2.98-.24,4.37-.46,1.1.07,2.4.17,3.5.18,3.22.05,6.49-.45,9.61-1.2,2.54-.72,5.26-.5,7.86-.53,3.77,0,7.59,0,11.36,0,6.98,0,13.99,0,20.97,0,4.05.1,8.2-.2,12.23.13,2.9,1.05,5.69,2.66,8.74,3.31,6.56,1.54,13.39,1.59,20.1,1.73,9.32-.04,18.82.29,27.96-1.75"/><path class="b" d="M8.18,136.34c6.13-.21,12.22-1.3,18.35-1.5,8.73-.16,17.48.4,26.21.2,4.08-.08,8.25-.23,12.23-1.15,3.51.19,7.03-.43,10.49-.95,5.81-.13,11.67,0,17.48-.05,6.98,0,13.99,0,20.97,0,2.59,0,5.27,0,7.86,0,1.4.05,3.01-.16,4.37.22,3.15,1.22,6.26,2.81,9.61,3.44,6.59,1.35,13.4,1.41,20.1,1.53,9.32-.09,18.87.34,27.96-2.02"/><path class="b" d="M8.18,134.52c6.12-.17,12.23-1.21,18.35-1.37,9.02-.07,18.07.49,27.09.13,3.19-.11,6.46-.28,9.61-.77,2.32-.28,4.64-1.22,6.99-1.21,6.39-.36,12.83-.09,19.22-.17,7.56,0,15.16,0,22.72,0,4.05.1,8.2-.21,12.23.14,3.2,1.06,6.28,2.73,9.61,3.41,6.86,1.52,13.98,1.54,20.97,1.67,4.94.04,9.92,0,14.85-.23,4.7-.24,9.5-.65,13.98-2.14"/><path class="b" d="M8.18,132.73c6.12-.13,12.23-1.1,18.35-1.2,8.73.03,17.49.58,26.21.13,3.48-.15,7.04-.36,10.49-.88,2.32-.31,4.68-1.01,6.99-1.36,5.52-.06,11.08,0,16.6-.02,7.56,0,15.16,0,22.72,0,4.35.1,8.78-.2,13.11.13,3.5,1.1,6.85,2.89,10.49,3.58,6.87,1.43,13.98,1.45,20.97,1.57,7.27,0,14.62.08,21.85-.83,1.72-.24,3.58-.6,5.24-1.1.76-.22,1.8-.71,2.62-.71"/><path class="b" d="M8.18,130.97c6.12-.08,12.23-.98,18.35-1.01,8.44.12,16.9.71,25.34.18,6.18-.22,12.33-1.04,18.35-2.43,4.93-.15,9.92-.01,14.85-.06,7.56,0,15.16,0,22.72,0,2.59,0,5.27,0,7.86,0,1.7.06,3.57-.17,5.24.19,3.76,1.25,7.42,3.06,11.36,3.77,7.18,1.38,14.56,1.35,21.85,1.45,6.69,0,13.44.03,20.1-.74,2.03-.25,4.17-.66,6.12-1.3,1.01-.55,2.39-.16,3.5-.27"/><path class="b" d="M8.18,129.23c6.11-.02,12.24-.83,18.35-.79,7.85.2,15.74.85,23.59.35,6.76-.31,13.52-1.14,20.1-2.77,4.04-.3,8.18-.04,12.23-.12,11.94-.04,23.9.11,35.83.12,4.1,1.2,7.99,3.25,12.23,4.01,7.75,1.51,15.73,1.37,23.59,1.48,6.11-.02,12.27,0,18.35-.62,2.34-.24,4.77-.7,6.99-1.5,1.39.13,2.97.16,4.37.08"/><path class="b" d="M8.18,127.54c6.11.04,12.24-.67,18.35-.54,7.56.29,15.15,1,22.72.53,4.96-.27,9.97-.79,14.85-1.72,2.32-.42,4.68-1.16,6.99-1.6,2.29-.14,4.7-.03,6.99-.06,6.98.03,13.99-.05,20.97.03,4.94.32,9.9.96,14.85,1.11,2.29.24,4.85-.15,6.99.84,3.89,1.6,8.06,2.65,12.23,3.13,5.79.64,11.66.69,17.48.75,6.1.02,12.25.03,18.35-.33,2.92-.22,6-.43,8.74-1.55,1.99.19,4.12.17,6.12.01"/><path class="b" d="M8.18,125.9c5.82.08,11.66-.43,17.48-.3,7.27.31,14.56,1.14,21.85.81,5.56-.21,11.16-.86,16.6-2.01,3.49-.64,6.87-2.31,10.49-2.01,6.1,0,12.25,0,18.35,0,4.41-.22,8.79.58,13.11,1.34,4.92.79,9.92,1.26,14.85,1.94,1.44.15,2.95.82,4.37,1.12,2.55.63,5.25,1.05,7.86,1.28,6.09.51,12.24.51,18.35.55,6.1,0,12.25.04,18.35-.32,2.05-.11,4.23-.36,6.12-1.22,2.59.04,5.28.02,7.86-.27"/><path class="b" d="M8.18,124.32c4.94.09,9.92-.11,14.85-.11,3.17.26,6.42.66,9.61.58,3.76.3,7.59.53,11.36.55,6.44.05,12.93-.57,19.22-1.99,3.26-.61,6.38-2.01,9.61-2.69,5.23-.03,10.5,0,15.73-.01,4.08,0,8.25-.24,12.23.86,9.79,2.3,19.76,3.85,29.71,5.24,6.67.6,13.41.53,20.1.6,6.39,0,12.83.1,19.22-.08,1.74-.12,3.55-.63,5.24-1.01,2.89-.19,5.87-.38,8.74-.76"/><path class="b" d="M8.18,122.8c4.64.11,9.34.03,13.98.09,3.17.39,6.41.81,9.61.87,15.31.7,26.47,1.39,41.07-4.68,1.67-.35,3.54-.1,5.24-.17,2.89,0,5.85,0,8.74,0,4.07.1,8.28-.42,12.23.79,9.15,2.59,18.49,4.71,27.96,5.75,7.54.74,15.16.57,22.72.68,6.98-.04,14,.37,20.97.03,1.73-.05,3.55-.52,5.24-.82,2.58-.43,5.28-.72,7.86-1.12"/><path class="b" d="M8.18,121.35c4.35.13,8.76.13,13.11.23,4.91.66,9.89,1.14,14.85,1.19,12.37.67,25.44.84,36.7-5.06,1.58-.83,3.53-.49,5.24-.55,2.3,0,4.69,0,6.99,0,2.3,0,4.69,0,6.99,0,2.04-.11,4.17.17,6.12.81,9.1,2.92,18.4,5.52,27.96,6.3,7.26.68,14.57-.27,21.85-.13,8.73,0,17.48.87,26.21.51,3.18-.55,6.43-1.18,9.61-1.7"/><path class="b" d="M8.18,119.97c4.35.14,8.76.18,13.11.35,6.34,1.01,12.82,1.18,19.22,1.42,11.22.42,23.36.52,33.21-5.64,1.26-.87,2.92-.69,4.37-.69,2,0,4.12,0,6.12,0,2.3,0,4.69,0,6.99,0,1.72-.02,3.59-.07,5.24.48,3.51,1.04,6.99,2.42,10.49,3.5,5.96,1.78,12.12,3.16,18.35,3.46,4.06-.24,8.17-.74,12.23-.9,5.81-.27,11.67-.39,17.48-.11,2.59.13,5.28.08,7.86.31,2.02.11,4.11.6,6.12.8,2.59-.02,5.28.04,7.86-.03,2.31-.26,4.7-.78,6.99-1.21"/><path class="b" d="M8.18,118.66c4.06.12,8.18.18,12.23.36,3.76.41,7.58.84,11.36,1.01,5.22.3,10.5.51,15.73.56,4.36.09,8.79,0,13.11-.71,3.58-.56,7.25-1.41,10.49-3.08,1.15-.62,2.43-1.49,3.5-2.25.7-.52,1.73-1.03,2.62-.89,3.77,0,7.59,0,11.36,0,2,.05,4.13-.13,6.12.12,1.12.23,2.42.67,3.5,1.06,7.6,2.83,15.38,6.01,23.59,6.23,3.77-.41,7.57-1.04,11.36-1.29,7.26-.6,14.58-.42,21.85-.87,3.19-.13,6.43-.62,9.61-.76,1.71,0,3.74-.37,5.24.62l.87,1.71c1.47,1.06,3.54.63,5.24.72,2.62.09,5.31-.1,7.86-.7"/><path class="b" d="M8.18,117.42c5.53.13,11.1.13,16.6.74,7.26.52,14.57.89,21.85.99,5.82.11,11.73.15,17.48-.93,4.67-.78,8.77-2.59,12.23-5.85,3.71-.62,7.61-.27,11.36-.42,3.21.06,6.6-.47,9.61.92,6.81,2.64,13.59,5.89,20.97,6.49,3.2-.32,6.42-1.11,9.61-1.49,4.62-.57,9.33-.72,13.98-.88,6.7-.26,13.53-.43,20.1-1.87,1.5-.37,3.13-1.02,4.37-1.98.3-.38,1.31-1.01,1.75-1.22.4,0,1.34,0,1.75,0,1.45,1.73,1.69,4.75,3.5,6.26,1.42,1.21,3.46,1.32,5.24,1.28,1.7-.01,3.56.08,5.24-.21"/><path class="b" d="M8.18,116.21c10.2-.06,20.39.86,30.58,1.19,4.35.22,8.75-.29,13.11-.12,6.73.32,13.84.52,20.1-2.38,1.19-.58,2.5-1.46,3.5-2.34.6-.82,1.65-1.22,2.62-1.33,3.72-.69,7.59-.77,11.36-.91,2.63-.06,5.42-.42,7.86.82,6.25,2.43,12.38,6.12,19.22,6.41,2.91-.43,5.83-1.25,8.74-1.72,4.31-.74,8.75-.82,13.11-.99,7.29-.29,14.67-.5,21.85-1.89,1.43-.31,3.02-.77,4.37-1.36,1.36-.62,2.79-1.66,4.37-1.43,1.52.84,2.26,2.97,3.5,4.15,3.07,3.4,7.1,3.54,11.36,3.39"/><path class="b" d="M8.18,115.01c9.61-.13,19.23.41,28.84.73,5.23-.15,10.49-.64,15.73-.52,3.77.09,7.6.34,11.36.51,3.28-.27,6.71-.83,9.61-2.45.85-.48,1.92-1.3,2.62-1.98,1.06-.49,2.38-.89,3.5-1.22,3.4-.91,6.99-1.16,10.49-1.38,2.34-.11,4.84-.5,6.99.66,5.72,2.26,11.18,6.14,17.48,6.44,2.63-.45,5.26-1.31,7.86-1.86,4.57-1.05,9.32-1.1,13.98-1.21,7.87-.29,15.84-.43,23.59-1.95,1.42-.3,3-.73,4.37-1.23,1.08-.37,2.34-1.02,3.5-1.12,1.71.74,2.9,2.59,4.37,3.69,3.14,2.61,7.26,4.12,11.36,3.85"/><path class="b" d="M8.18,113.74c8.73-.2,17.49.08,26.21.24,4.65-.15,9.34-.53,13.98-.74,4.65-.21,9.34.04,13.98.3,2.6.19,5.29.74,7.86.05,1.46-.29,3.06-.8,4.37-1.51.83-.45,1.8-1.29,2.62-1.75.77-.34,1.83-.77,2.62-1.05,4.7-1.85,9.85-2.26,14.85-2.51,2.81.33,5.34,2.13,7.86,3.3,3.16,1.54,7.8,4.43,11.36,3.85,3.77-.92,7.49-2.34,11.36-2.82,4.03-.57,8.18-.37,12.23-.5,8.17-.23,16.45-.38,24.47-2.15,1.1-.26,2.42-.62,3.5-.96.4-.14,1.33-.42,1.75-.55.48-.03,1.38.34,1.75.67,4.34,3.22,9.29,6.43,14.86,6.59"/><path class="b" d="M8.18,112.35c8.44-.24,16.91.01,25.34-.2,6.69-.2,13.4-.96,20.1-1,3.77,0,7.6.2,11.36.5,1.71.13,3.53.5,5.24.6,1.44-.16,3.02-.48,4.37-1.02,1.21-.44,2.35-1.46,3.5-2,1.93-.99,4.07-1.84,6.12-2.54,2.52-.81,5.24-1.25,7.86-1.52,1.09-.1,2.4-.22,3.5-.2,1.16.26,2.44.89,3.5,1.43,4.1,1.93,8.49,5.73,13.11,5.86,2.95-.67,5.8-1.98,8.74-2.67,3.97-1.04,8.15-1.09,12.23-1,11.4,0,23.02-.04,34.08-3.14,2.14.69,4.09,2.18,6.12,3.14,3.3,1.65,6.81,3.25,10.49,3.8"/><path class="b" d="M8.18,110.36c9.9.35,19.82.26,29.71-.26,10.75-.73,21.63-1.61,32.33.12,4.14,1.12,7.07-1.36,10.49-3.17,4.3-2.26,9.11-3.73,13.98-3.86,4.98-.43,11.55,7.72,16.6,7.32,3.79-1.1,7.4-3.04,11.36-3.59,4.61-.79,9.34-.24,13.98-.23,6.7.11,13.44-.08,20.1-.84,3.5-.39,7.05-.99,10.49-1.76,5.58,1.92,10.81,5.03,16.6,6.39"/><path class="b" d="M8.18,108.17c8.72.54,17.48.62,26.21.24,6.69-.24,13.4-.94,20.1-1.09,4.65-.14,9.35.04,13.98.52,1.1.12,2.4.32,3.5.53,1.09.2,2.39.58,3.5.26,2.92-.58,5.24-2.79,7.86-4.08,3.46-1.86,7.38-3.28,11.36-3.13.78,0,1.85-.04,2.62.12.84.27,1.89.86,2.62,1.34,3.16,1.97,5.93,4.95,9.61,5.93,1.83-.04,3.58-1.16,5.24-1.83,1.93-.87,4.04-1.64,6.12-2.06,4.59-.98,9.34-.37,13.98-.17,5.81.27,11.67.21,17.48-.19,4.96-.34,9.96-.95,14.85-1.81.82-.11,1.87.34,2.62.6,1.09.39,2.41.86,3.5,1.27,3.47,1.27,6.97,2.68,10.49,3.81"/><path class="b" d="M8.18,105.89c7.55.64,15.15,1.03,22.72.79,7.28-.11,14.57-.82,21.85-1.11,7.89-.4,15.85-.16,23.59,1.48,2.34-.23,4.26-1.8,6.12-3.1,3.32-2.34,7.14-4.63,11.36-4.27,1.7.11,3.68-.35,5.24.49,3.39,1.8,6.61,6.72,10.49,6.92,2.72-.86,5.15-2.68,7.86-3.57,7.62-2.67,15.75-.16,23.59-.33,4.94.09,9.93-.11,14.85-.5,4.07-.32,8.19-.81,12.23-1.34,1.76.03,3.55.85,5.24,1.29,3.52,1.08,7.04,2.38,10.49,3.66"/><path class="b" d="M8.18,103.57c6.96.74,13.97,1.39,20.97,1.29,7.87,0,15.74-.73,23.59-1.05,7.85-.27,15.9-.66,23.59,1.24,3.14,1.02,5.69-1.73,7.86-3.57,2.71-2.23,5.06-3.94,8.74-3.56,1.4,0,2.97,0,4.37,0,.83-.03,1.92-.02,2.62.49,3.04,2.08,4.96,6.16,8.74,7.02,1.56-.37,3.02-1.44,4.37-2.25,7.79-5.28,16.73-2.12,25.34-1.81,5.22.27,10.51.15,15.73-.15,3.48-.2,7.02-.5,10.49-.82,1.99-.1,4.13-.6,6.12-.38,4.45.98,8.88,2.33,13.11,4.04"/><path class="b" d="M8.18,101.21c6.66.85,13.37,1.75,20.1,1.8,8.16.13,16.32-.6,24.47-.94,8.14-.25,16.49-.89,24.47,1.08,3.66,1.48,6.83-1.91,8.74-4.66,2.14-2.14,3.13-2.47,6.12-2.31,2.59,0,5.27-.02,7.86.02,3.19,1.72,4.25,6.33,7.86,7.49,1.29.09,2.5-.95,3.5-1.65,7.58-6.53,15.65-3.46,24.47-2.59,5.79.54,11.67.46,17.48.2,6.11-.25,12.24-.86,18.35-1.17,4.15.7,8.32,1.75,12.23,3.33"/><path class="b" d="M8.18,98.79c7.81,1.17,15.66,2.59,23.59,2.42,9.03-.03,18.06-.89,27.09-1.11,4.93-.1,9.95-.31,14.85.34,2.04.23,4.15.73,6.12,1.29,1.18.19,2.5-.43,3.5-1,1.77-1.11,3.19-3.01,4.37-4.71.26-.48,1.16-1.45,1.75-1.59,1.09,0,2.4,0,3.5,0,2.59,0,5.27,0,7.86,0,2.81,1.5,3.73,8.59,7.86,7.37,2.39-1.53,4.24-4.09,6.99-5.05,2.51-.77,5.26-.73,7.86-.64,1.71.1,3.57.07,5.24.44,10.32,2.26,20.99,1.62,31.46,1.07,4.06-.23,8.17-.54,12.23-.64,3.84.4,7.73,1.24,11.36,2.56"/><path class="b" d="M8.18,96.29c3.48.59,7.01,1.26,10.49,1.84,2.57.55,5.23,1.04,7.86,1.13,8.73.51,17.49-.26,26.21-.65,5.52-.24,11.08-.46,16.6-.37,3.51.06,7.1.42,10.49,1.4.41.13,1.32.35,1.75.42.82-.15,1.89-.55,2.62-.96,2.58-1.42,4.1-4.22,6.12-6.24,1.37-.34,2.97-.12,4.37-.18,2.3.01,4.7-.02,6.99.02,2.2,2.2,2.61,9.03,6.99,7.2,1.91-1.49,3.76-3.38,6.12-4.15,5.08-1.63,10.52-.32,15.73-.24,3.49.01,7,.71,10.49.79,5.81.22,11.67-.03,17.48-.28,4.93-.2,9.91-.6,14.85-.6,3.52.32,7.11.85,10.49,1.94"/><path class="b" d="M8.18,93.71c3.2.56,6.44,1.27,9.61,1.97,2.22.83,4.62,1.42,6.99,1.61,9.3.89,18.66.06,27.96-.38,5.81-.27,11.66-.5,17.48-.44,2.91.02,5.9.26,8.74.9,1.1.25,2.4.65,3.5.93,1.57-.19,3.15-1.06,4.37-2.04,1.95-1.47,3.24-3.91,5.24-5.29,1.7-.07,3.54-.02,5.24-.03,1.1.03,2.42-.12,3.5.18,2.36,1.98,3.8,9.22,7.86,6.86,1.63-1.2,3.33-2.62,5.24-3.34,4.76-1.74,9.95-.61,14.85-.31,9.88.59,19.82.29,29.71-.05,8.44-.31,17.07-1.2,25.34,1.01"/><path class="b" d="M8.18,91.03c2.62.44,5.3,1.04,7.86,1.72.86.23,1.81.93,2.62,1.26,1.35.57,2.93.96,4.37,1.2,7.8,1.11,15.75.77,23.59.32,9.01-.48,18.06-1.02,27.09-.78,2.33.08,4.74.44,6.99,1.01,2.2.64,3.07,1.12,5.24-.06,1.61-.83,3.13-2.2,4.37-3.52,1.03-1,2.04-2.62,3.5-3,6.57,0,5.65-.78,9.61,4.7,1.79,2.32,3.41,3.94,6.12,1.65,1.56-1.13,3.37-2.2,5.24-2.68,3.7-.94,7.62-.38,11.36-.03,13.37,1.54,26.81-.29,40.2-.47,5.82-.08,11.75-.2,17.48.99"/><path class="b" d="M8.18,88.32c2.02.27,4.15.68,6.12,1.2.99.14,1.81,1.2,2.62,1.69,1.55,1,3.45,1.64,5.24,2.01,10.09,1.78,20.42.84,30.58.29,4.93-.27,9.92-.46,14.85-.55,3.47-.03,7.04-.16,10.49.3,2.04.3,4.15.86,6.12,1.45,3.61-.34,6.29-3.42,8.74-5.81.35-.4,1.28-1.11,1.75-1.38.77-.13,1.85-.1,2.62-.1,4.18.81,5.56,6.36,9.61,7.5,2.17-.64,4.02-2.27,6.12-3.07,5.62-2.08,11.7-.28,17.48-.03,5.51.39,11.09.31,16.6.03,6.98-.36,13.99-.79,20.97-.96,5.23-.12,10.55-.28,15.73.59"/><path class="b" d="M8.18,85.8c1.71.09,3.56.28,5.24.62,4.07,4.58,9.04,5.37,14.86,5.81,6.09.46,12.26.41,18.35-.02,9.88-.6,19.81-1.23,29.71-.98,2.03.08,4.15.47,6.12.97,2.85.91,3.39,1.07,6.12-.5,2.6-1.5,4.58-4,6.99-5.74,4.09-.62,7.51,6.33,11.36,7.15,2.07-.77,4.05-2.07,6.12-2.87,5.65-1.95,11.7-.15,17.48.12,5.51.4,11.09.34,16.6.07,6.98-.34,13.99-.78,20.97-1,5.22-.15,10.53-.41,15.73.28"/><path class="b" d="M8.18,83.94c1.4.03,2.98-.09,4.37.1,1.43,1.14,2.76,2.72,4.37,3.63,3.68,2.13,8.08,2.52,12.23,2.88,8.44.71,16.92.08,25.34-.5,6.39-.37,12.82-.61,19.22-.66,3.21-.06,6.51.18,9.61,1.06.78.22,1.85.54,2.62.77,2.3-.24,4.35-1.8,6.12-3.18,1.42-.99,2.68-2.88,4.37-3.33,1.9.66,3.7,1.92,5.24,3.19,1.57,1.27,3.21,2.97,5.24,3.42,2.32-.92,4.58-2.27,6.99-2.97,5.45-1.39,11.11.18,16.6.49,5.51.42,11.09.36,16.6.11,7.27-.33,14.57-.79,21.85-1.03,4.93-.15,9.94-.43,14.85.11"/><path class="b" d="M8.18,82.19c1.4.08,3.03-.23,4.37.26,2.03,1.91,4.27,3.84,6.99,4.67,4.2,1.39,8.72,1.66,13.11,1.92,5.23.26,10.51.19,15.73-.24,7.55-.58,15.15-.98,22.72-1.14,3.47-.04,7.06-.25,10.49.41,1.73.35,3.56.89,5.24,1.41.83-.1,1.89-.53,2.62-.91,1.53-.8,3.06-1.98,4.37-3.1.73-.61,1.67-1.63,2.62-1.89,1.87.54,3.69,1.63,5.24,2.79,1.59,1.19,3.27,2.7,5.24,3.19,2.58-1.04,5.12-2.47,7.86-3.05,5.21-.95,10.52.4,15.73.74,5.51.43,11.08.38,16.6.15,7.56-.32,15.15-.79,22.72-1.04,4.64-.14,9.35-.4,13.98.02"/><path class="b" d="M8.18,80.45c1.41.12,3.17-.37,4.37.47,3.85,3.96,8.63,5.35,13.98,5.91,6.07.7,12.25.83,18.35.58,7.56-.5,15.14-1.19,22.72-1.38,4.35-.09,8.77-.43,13.11,0,2.36.28,4.73,1.06,6.99,1.75,1.9-.46,3.71-1.6,5.24-2.78,1.12-.8,2.22-2.1,3.5-2.67,4.02.68,6.73,4.24,10.49,5.49,2.59-.98,5.13-2.38,7.86-2.95,5.2-.98,10.52.38,15.73.73,5.51.47,11.08.41,16.6.21,7.56-.29,15.15-.75,22.72-.99,4.64-.13,9.35-.4,13.98-.04"/><path class="b" d="M8.18,78.7c1.42.11,3.23-.4,4.37.68,4.13,4.18,10.08,5.4,15.73,5.91,5.79.57,11.67.68,17.48.43,7.56-.53,15.14-1.27,22.72-1.46,4.35-.09,8.77-.48,13.11-.03,2.37.25,4.69,1.23,6.99,1.77,3.1-.78,5.35-3.31,7.86-5.08,4.03.38,6.79,3.87,10.49,5.1,2.37-.6,4.57-2.09,6.99-2.58,5.43-1.49,11.12.1,16.6.45,5.5.5,11.08.44,16.6.26,12.22-.33,24.47-1.49,36.7-.99"/><path class="b" d="M8.18,76.95c2.61-.02,3.27-.29,5.24,1.61,1.76,1.48,3.92,2.65,6.12,3.34,5.07,1.56,10.46,1.9,15.73,2.16,5.52.17,11.1.13,16.6-.45,7.25-.69,14.56-1.07,21.85-1.3,3.47-.09,7.07-.35,10.49.44,1.73.36,3.49,1.28,5.24,1.47,2.75-.81,4.86-3.02,6.99-4.82,2.98.06,5.47,2.01,7.86,3.55,2.88,1.79,3.24,1.42,6.12.06,2.72-1.21,5.75-2,8.74-1.92,6.7.3,13.37,1.59,20.1,1.48,14.85.11,29.71-1.56,44.56-1"/><path class="b" d="M8.18,75.2c2.85-.08,3.09-.11,5.24,1.77,1.78,1.42,3.94,2.53,6.12,3.21,6.49,1.91,13.37,2.26,20.1,2.14,4.36.12,8.77.12,13.11-.42,7.25-.73,14.56-1.15,21.85-1.4,3.18-.1,6.47-.33,9.61.26,1.75.39,3.57,1.07,5.24,1.69,2.88-.07,5.07-2.79,6.99-4.67,4.42-.39,7.27,4.07,11.36,4.76,2.29-.88,4.56-2.15,6.99-2.65,5.46-1.32,11.11.22,16.6.57,5.21.48,10.5.44,15.73.32,12.22-.26,24.47-1.26,36.7-.79"/><path class="b" d="M8.18,73.45c3.5-.28,3.5.74,6.12,2.52,2.09,1.41,4.56,2.37,6.99,2.98,6.28,1.56,12.79,1.75,19.22,1.54,2.3-.02,4.69.15,6.99.17,2.01-.07,4.12-.28,6.12-.49,7.25-.76,14.56-1.24,21.85-1.52,3.18-.1,6.48-.38,9.61.28,1.75.43,3.56,1.21,5.24,1.84,2.61-.31,4.54-2.72,6.12-4.62,4.38-1.07,7.39,3.73,11.36,4.66,2.1-.45,4.03-1.82,6.12-2.37,5.69-1.82,11.69-.24,17.48.18,5.21.51,10.5.51,15.73.4,12.22-.22,24.47-1.13,36.7-.64"/><path class="b" d="M8.18,71.71c.79,0,1.85-.04,2.62.13,1.46.88,2.87,2.18,4.37,3,2.4,1.38,5.16,2.23,7.86,2.79,3.14.64,6.41,1,9.61,1.21,2.59-.03,5.27-.19,7.86-.17,4.67,0,9.33.52,13.98-.22,6.67-.73,13.39-1.27,20.1-1.56,3.76-.11,7.66-.63,11.36.21,1.76.48,3.54,1.39,5.24,2.03,1.81-.37,3.28-1.92,4.37-3.32.32-.56,1.11-1.59,1.75-1.82,5.08-.63,8.67,7.17,13.11,4.36,5.14-2.8,10.07-2.9,15.73-2.13,19.14,2.52,38.46-.33,57.67.59"/><path class="b" d="M8.18,69.96c.8,0,1.86-.06,2.62.2,1.43.91,2.88,2.15,4.37,2.97,2.94,1.66,6.31,2.54,9.61,3.11,2.28.39,4.68.66,6.99.83,3.18-.04,6.43-.29,9.61-.24,2.89,0,5.86.12,8.74.33,2.01-.06,4.12-.34,6.12-.56,6.67-.77,13.39-1.33,20.1-1.65,3.46-.12,7.09-.64,10.49.26,1.78.52,3.47,1.68,5.24,2.21,2.66-.7,3.65-3.71,5.24-5.61,4.96-1.21,8.55,7.25,13.11,5.08,5.74-3.18,10.26-3.29,16.6-2.46,18.85,2.39,37.88-.17,56.8.78"/><path class="b" d="M8.18,68.21c.81,0,1.87-.08,2.62.27,1.69,1.13,3.4,2.52,5.24,3.4,3.26,1.62,6.91,2.42,10.49,2.94,1.99.24,4.11.62,6.12.45,3.18-.19,6.43-.3,9.61-.28,3.18-.01,6.43.23,9.61.39,2.01-.12,4.12-.41,6.12-.64,6.66-.84,13.39-1.38,20.1-1.77,3.46-.13,7.21-.81,10.49.65,1.43.59,2.82,1.85,4.37,2.07,2.56-.87,3.3-4.25,4.37-6.42,5.22-1.61,8.14,7.34,13.11,6.17,6.26-3.32,9.6-3.77,16.6-2.92,18.85,2.39,37.88.11,56.8,1.07"/><path class="b" d="M8.18,66.46c1.32-.1,2.48.07,3.5.96,1.33,1,2.87,2.06,4.37,2.8,3.52,1.75,7.48,2.57,11.36,3.07,2.29.41,4.69.22,6.99.05,2.88-.15,5.85-.22,8.74-.19,3.18.03,6.44.2,9.61.49,1.71-.06,3.55-.32,5.24-.54,7.24-1.04,14.55-1.64,21.85-2.16,2.58-.17,5.31-.57,7.86.04,1.57.45,3.07,1.53,4.37,2.48,3.76,2.43,4.34-4.78,5.24-6.99,1.44-.01,3.12-.16,4.37.71,2.87,2.11,5.36,7.81,9.61,6.47,6.08-3.48,9.76-3.73,16.6-2.91,18.56,2.26,37.3.29,55.92,1.27"/><path class="b" d="M8.18,64.71c1.36-.14,2.47.21,3.5,1.1,1.33,1.01,2.87,2.07,4.37,2.81,4.06,2.01,8.64,2.8,13.11,3.23,5.8-.48,11.66-.7,17.48-.49,2.6.06,5.27.36,7.86.51,1.71-.14,3.55-.41,5.24-.66,8.39-1.33,16.89-1.94,25.34-2.74,2.84-.27,5,.7,6.99,2.71.56.76,1.67,1.23,2.62,1.08l.87-.72c.31-1.68,1.12-5.26,1.75-6.83,1.1.03,2.42-.1,3.5.14,1.73,1.71,3.15,4.01,5.24,5.35,1.51.94,3.4,2.1,5.24,1.83,2.66-.87,5.18-2.33,7.86-3.14,4.01-.9,8.2,0,12.23.31,8.69.96,17.48.9,26.21.85,8.73-.05,17.49-.03,26.21.33"/><path class="b" d="M8.18,62.97c2.12-.33,3.62,1.52,5.24,2.57,2.35,1.63,5.1,2.78,7.86,3.47,2.26.53,4.67,1.02,6.99,1.08,2.59-.26,5.27-.46,7.86-.56,6.4-.25,12.86-.17,19.22.6,5.85-.52,11.61-2.01,17.48-2.42,4.67-.34,9.33-1.21,13.98-1.66,3.9-.28,4.64,2.25,6.99,4.47h1.75c.91-1.28,1.51-6,1.75-7.54,2.5,1.19,4.65,3.25,6.99,4.72,2.12,1.27,4.54,2.28,6.99,2.67,2.67-.6,5.24-1.81,7.86-2.56,1.38-.44,2.91-1.02,4.37-1.11,3.19.09,6.44.52,9.61.82,8.41.85,16.9.8,25.34.83,8.44,0,16.91.12,25.34.44"/><path class="b" d="M8.18,61.22c1.75-.26,3.08,1.28,4.37,2.22,1.57,1.2,3.41,2.27,5.24,2.99,2.77,1.08,5.79,1.69,8.74,1.95,2-.23,4.11-.43,6.12-.56,4.93-.31,9.92-.41,14.85-.22,3.19.05,6.43.58,9.61.74,3.81-.41,7.58-1.42,11.36-2.01,4.64-.7,9.39-1,13.98-1.97,2.63-.37,6.43-2.17,8.74-.44.91,1.27,1.79,3.24,2.62,4.56.76.38,1.85.37,2.62.03,1.09-2.69,2.06-4.37,5.24-3.18,1.98.81,4.05,1.73,6.12,2.31,1.08.32,2.38.64,3.5.85,2.06.03,4.14-.93,6.12-1.42,2.86-.79,5.77-1.8,8.74-2.09,5.81.5,11.64,1.23,17.48,1.39,13.39.38,26.81.24,40.2.79"/><path class="b" d="M8.18,59.47c.96-.15,1.94.56,2.62,1.15,1.05.9,2.32,1.95,3.5,2.69,2.61,1.66,5.69,2.63,8.74,3.1,1.41.35,2.96.11,4.37-.08,1.99-.23,4.11-.39,6.12-.51,6.68-.36,13.44-.39,20.1.29,1.4.12,2.96.42,4.37.47,4.14-.41,8.13-1.84,12.23-2.45,4.67-.73,9.48-1.11,13.98-2.66,1.1-.36,2.4-.84,3.5-1.2,3.6.1,4.64,4.62,6.99,6.65.44.07,1.31.1,1.75.06,2.5-2.51,3.37-3.26,6.99-2.19,1.99.54,4.1,1.07,6.12,1.48,1.4.3,2.96.65,4.37.2,4.65-.99,9.25-2.48,13.98-3.1,5.52.31,11.06,1.12,16.6,1.22,13.1.4,26.22.44,39.32.91"/><path class="b" d="M8.18,57.72c1.01.03,1.93.99,2.62,1.63,1.29,1.2,2.81,2.44,4.37,3.28,2.4,1.3,5.17,2,7.86,2.31,2.87-.44,5.84-.77,8.74-.96,4.34-.3,8.75-.37,13.11-.28,4.67.02,9.35.6,13.98,1.14,3.58-.38,7.05-1.51,10.49-2.49,3.45-.75,7.06-1.08,10.49-1.98,1.44-.38,3.01-.93,4.37-1.52,1.71-.25,3.65-.09,5.24.63,1.79.92,3.06,2.86,4.37,4.32.88,1.13,2.12,1.99,3.5,1.08,2-1.91,4.45-1.93,6.99-1.34,2.88.48,5.83,1.14,8.74,1.43,2.91-.43,5.88-1.08,8.74-1.76,2.86-.6,5.83-1.21,8.74-1.46,2.29.23,4.69.48,6.99.66,7.84.62,15.74.69,23.59.88,7.56.18,15.16.4,22.72.59"/><path class="b" d="M8.18,56.01c1.3.73,2.38,2.18,3.5,3.14,2.39,2.21,5.53,3.55,8.74,3.99,1.42.17,2.96-.36,4.37-.49,1.99-.27,4.11-.48,6.12-.62,4.64-.32,9.34-.35,13.98-.24,2.89.07,5.86.23,8.74.53,2.01.15,4.1.67,6.12.74,2.95-.39,5.9-1.18,8.74-2.07,5.59-1.51,15.54-4.87,20.97-2.86,1.72.71,3.07,2.34,4.37,3.6.88.9,2.12,2.21,3.5,1.58,1.53-.98,3.4-1.68,5.24-1.48,3.78.26,7.58,1.17,11.36,1.35,3.21-.38,6.44-1.09,9.61-1.72,2.87-.47,5.83-1.09,8.74-1.28,2.29.22,4.69.44,6.99.61,14.83.88,29.72,1.02,44.56,1.43"/><path class="b" d="M8.18,54.72c2.92,3.54,5.71,6.24,10.49,6.79,3.76-.5,7.55-1.32,11.36-1.48,4.34-.28,8.76-.28,13.11-.2,4.07.09,8.2.27,12.23.8,1.41.18,2.97.44,4.37.68,2.34-.15,4.74-.78,6.99-1.43,6.02-1.65,16.78-5.01,22.72-3.22,2.04.72,3.63,2.5,5.24,3.86.99.92,2.21,1.59,3.5.77,1.58-.8,3.49-1.09,5.24-.92,3.49.2,7.02.7,10.49,1.08,3.51-.18,7.02-1.02,10.49-1.56,2.88-.47,5.85-.88,8.74-1.28,2.59.21,5.27.45,7.86.6,14.25.75,28.55,1.11,42.82,1.34"/><path class="b" d="M8.18,54.26c1.91,2.99,5.02,5.62,8.74,5.58,1.7-.36,3.52-.82,5.24-1.09,4.6-.79,9.33-.93,13.98-.92,5.52.04,11.1.13,16.6.63,2.01.19,4.13.49,6.12.85,1.41.43,2.97.14,4.37-.19,5.23-1.24,10.39-2.99,15.73-3.75,3.15-.45,6.44-1.03,9.61-.49,1.99.33,3.73,1.67,5.24,2.92.99.81,2.18,1.93,3.5,2.16,1.67-.52,3.45-1.25,5.24-1.16,3.49.01,7.02.42,10.49.76,2.9.43,5.87-.34,8.74-.71,4.05-.63,8.17-1.16,12.23-1.71,4.64.25,9.33.63,13.98.79,11.93.45,23.88.95,35.83.93"/><path class="b" d="M8.18,54.95c1.37,1.96,3.68,3.38,6.12,3.24,1.42-.29,2.95-.8,4.37-1.12,2.84-.68,5.82-1.05,8.74-1.17,5.81-.23,11.67,0,17.48.19,3.48.14,7.03.33,10.49.8,1.71.23,3.55.56,5.24.89.8.05,1.84-.19,2.62-.35,3.79-.83,7.53-2.16,11.36-2.85,2.86-.58,5.83-1.01,8.74-1.3,3.29-.37,6.96-.27,9.61,1.96,1.63.99,3.17,3,5.24,2.81,2.2-.84,4.66-.94,6.99-.83,3.48.11,7.01.49,10.49.74,4.08-.27,8.17-.97,12.23-1.43,2.29-.28,4.7-.57,6.99-.85,2.89.06,5.85.33,8.74.44,13.39.54,26.8,1.25,40.2.98"/><path class="b" d="M8.18,55.99c2.31,1.02,4.77.24,6.99-.6,1.67-.57,3.5-1.02,5.24-1.29,5.48-.79,11.09-.36,16.6-.2,5.52.23,11.1.32,16.6.91,2.62.25,5.27.84,7.86,1.26,2.03-.36,4.15-.87,6.12-1.47,6.24-1.74,12.75-2.81,19.22-3,2.13,0,4.37.57,6.12,1.81,1.42.84,2.79,2.17,4.37,2.72,1.36.5,2.93-.48,4.37-.48,5.23-.35,10.51.37,15.73.49,4.36-.36,8.76-.91,13.11-1.35,2.29-.17,4.69-.66,6.99-.54,7.56.37,15.15.67,22.72.92,7.85.32,15.75.52,23.59.07"/><path class="b" d="M8.18,54.69c4.64-1.16,9.21-2.83,13.98-3.42,4.36-.06,8.76.36,13.11.59,8.45.54,17.04.41,25.34,2.28,1.41.43,2.98-.24,4.37-.5,2.3-.58,4.66-1.33,6.99-1.78,3.15-.65,6.42-1.05,9.61-1.38,2.87-.27,5.9-.69,8.74.04,2.6.62,4.58,2.72,6.99,3.72,1.08.49,2.39.14,3.5-.07,6.09-.67,12.26.17,18.35.19,4.35-.32,8.76-.75,13.11-1.11,2.29-.15,4.69-.53,6.99-.38,7.56.29,15.16.57,22.72.82,7.26.22,14.62.46,21.85-.39"/><path class="b" d="M8.18,51.84c5.97-1.64,12.17-2.5,18.35-2.74,3.77.27,7.58.79,11.36.98,7.88.5,15.88.56,23.59,2.44,3.55-.22,6.97-1.77,10.49-2.32,5.18-.87,10.48-1.5,15.73-1.61,2.12.01,4.29.67,6.12,1.74,1.33.86,2.79,1.91,4.37,2.27,1.09.36,2.39-.09,3.5-.16,1.4-.12,2.97-.17,4.37-.2,4.65-.13,9.34.18,13.98.4,7.56-.33,15.14-1.38,22.72-1.12,8.44.21,16.9.65,25.34.72,5.23-.16,10.62.19,15.73-1.12"/><path class="b" d="M8.18,48.92c7.49-1.27,15.14-1.42,22.72-1.49,5.49.77,11.07,1.01,16.6,1.35,3.19.2,6.46.49,9.61,1.05,2,.2,4.12,1.28,6.12.77,2.61-.56,5.24-1.4,7.86-1.91,3.15-.61,6.42-.91,9.61-1.18,4.65-.4,9.92-1.36,13.98,1.58,1.53,1.02,3.4,1.79,5.24,1.93.77-.12,1.84-.22,2.62-.28,2.59-.2,5.27-.3,7.86-.27,4.06,0,8.18.35,12.23.38,6.39-.28,12.82-.77,19.22-.79,8.73.09,17.48.62,26.21.52,5.23-.25,10.85.24,15.73-1.97"/><path class="b" d="M8.18,46.2c8.43-.46,16.9-.13,25.34-.37,4.92.55,9.91.86,14.85,1.16,4.71.21,9.37,1.18,13.98,2.05,4.9-1.14,9.8-2.56,14.86-2.83,2.3-.19,4.7-.37,6.99-.59,2.9-.28,5.99-.42,8.74.69,1.95,1,3.9,2.35,6.12,2.72,2.57.49,5.27-.3,7.86-.25,4.35-.15,8.76,0,13.11.16,5.52.35,11.08-.12,16.6-.21,6.1-.17,12.25-.01,18.35.11,4.94.13,9.92.2,14.85-.01,4.74-.27,10.04-.13,13.98-3.17"/><path class="b" d="M8.18,43.74c7.85.41,15.74.75,23.59.63,1.71.02,3.54-.22,5.24-.08,3.46.38,7.01.56,10.49.8,5.01.23,9.97,1.17,14.85,2.21,2.61-.55,5.25-1.35,7.86-1.87,2.86-.55,5.84-.78,8.74-.97,4.62-.16,9.46-1.45,13.98.06,2.16,1.23,4.5,2.46,6.99,2.8,2.83.37,5.85-.38,8.74-.3,5.52-.12,11.08.09,16.6.25,4.06.2,8.17-.03,12.23-.05,5.81-.04,11.67,0,17.48.07,4.94.11,9.92.04,14.85-.24,4.98-.24,10.45-.87,13.98-4.79"/><path class="b" d="M8.18,41.51c6.93.97,13.98,1.33,20.97,1.37,3.18.04,6.43-.2,9.61-.29,2.59.25,5.27.42,7.86.6,5.31.25,10.56,1.2,15.73,2.36,2.89-.63,5.81-1.54,8.74-2.01,3.16-.5,6.43-.62,9.61-.83,4.03-.17,8.31-1.31,12.23.05,2.17,1.16,4.53,2.29,6.99,2.66,3.17.52,6.43-.17,9.61-.15,5.52-.13,11.08.03,16.6.15,10.48.31,20.98.25,31.46.29,6.11-.18,12.4-.03,18.35-1.59,3.13-.8,5.54-3.16,7.86-5.26"/><path class="b" d="M8.18,39.47c7.45,1.55,15.13,1.91,22.72,1.87,3.19,0,6.43-.32,9.61-.45,1.7.15,3.54.27,5.24.4,3.19.23,6.46.51,9.61,1.05,2.33.35,4.67,1.09,6.99,1.47,2.89-.66,5.81-1.56,8.74-1.99,2.87-.42,5.85-.52,8.74-.68,2.6-.13,5.27-.49,7.86-.68,1.7-.05,3.67-.18,5.24.58,2.48,1.16,5.11,2.36,7.86,2.61,3.17.48,6.43-.05,9.61-.08,4.93-.12,9.92-.04,14.85.03,6.69.11,13.41.22,20.1.36,7.86.21,15.77.3,23.59-.62,3.01-.38,6.15-1.08,8.74-2.73,1.18-.76,2.45-1.86,3.5-2.79.59-.61,1.74-1.21,2.62-1.05"/><path class="b" d="M8.18,37.56c7.95,2.06,16.29,2.34,24.47,2.17,2.89-.09,5.86-.29,8.74-.62,1.41.07,2.97.21,4.37.31,3.19.24,6.46.54,9.61,1.11,2.33.35,4.67,1.18,6.99,1.49,2.88-.69,5.8-1.58,8.74-1.98,2.87-.39,5.85-.45,8.74-.59,2.31-.11,4.7-.39,6.99-.64,1.99-.15,4.25-.46,6.12.44,2.51,1.04,5.13,2.2,7.86,2.48,3.17.5,6.42.3,9.61.13,4.35-.14,8.76-.12,13.11-.09,7.27.07,14.58.15,21.85.33,8.15.35,16.44.6,24.47-1.12,2.46-.56,4.94-1.58,6.99-3.06,1.4-.92,2.71-2.47,4.37-2.92.76,0,1.86,0,2.62,0"/><path class="b" d="M8.18,35.75c8.17,2.46,16.87,2.6,25.34,2.36,2.3-.09,4.7-.26,6.99-.51,1.71-.3,3.53-.22,5.24-.03,3.19.25,6.46.58,9.61,1.19,2.33.35,4.66,1.29,6.99,1.51,2.58-.64,5.23-1.45,7.86-1.86,2.86-.45,5.85-.5,8.74-.6,2.6-.08,5.28-.38,7.86-.71,2.01-.21,4.23-.55,6.12.36,2.54.94,5.15,2.05,7.86,2.36,3.75.59,7.58.53,11.36.32,3.76-.11,7.59-.12,11.36-.12,7.27.03,14.58.08,21.85.3,2.89.07,5.85.3,8.74.37,4.68-.16,9.45-.53,13.98-1.73,3.56-.88,6.68-2.98,9.61-5.09.65-.48,1.82-.69,2.62-.62,1.09,0,2.41,0,3.5,0"/><path class="b" d="M8.18,33.99c4.74,1.69,9.86,2.21,14.85,2.49,5.81.25,11.69.11,17.48-.52,1.1-.11,2.39-.32,3.5-.41,2.89.23,5.87.49,8.74.94,2.93.44,5.88,1.22,8.74,1.99,2.33-.05,4.67-1.22,6.99-1.56,3.13-.66,6.42-.73,9.61-.81,2.6-.05,5.29-.27,7.86-.65,2.3-.31,4.79-.85,6.99.15,2.56.85,5.17,1.91,7.86,2.26,4.32.68,8.75.8,13.11.54,3.76-.1,7.59-.13,11.36-.13,5.81,0,11.67.05,17.48.22,4.06.07,8.17.58,12.23.25,4.13-.24,8.34-.88,12.23-2.31,1.79-.66,3.63-1.61,5.24-2.62,1.35-.81,2.8-1.98,4.37-2.33,2.29-.03,4.7,0,6.99-.01"/><path class="b" d="M8.18,32.25c4.98,1.94,10.43,2.42,15.73,2.64,5.52.17,11.11,0,16.6-.59,1.41-.15,2.96-.39,4.37-.56,2.6.23,5.29.5,7.86.94,2.94.48,5.87,1.32,8.74,2.11,2.35-.24,4.65-1.3,6.99-1.67,3.14-.65,6.42-.67,9.61-.73,4.11.07,8.17-.83,12.23-1.26,2.67.43,5.26,1.56,7.86,2.24,2.25.6,4.68.87,6.99,1.11,4.92.56,9.92.25,14.85.18,6.69-.08,13.41-.06,20.1.12,7.28.32,14.77.74,21.85-1.36,3.42-1.01,6.51-3.02,9.61-4.71,1.52-1.02,3.48-1.02,5.24-.95,2.29,0,4.7,0,6.99,0"/><path class="b" d="M8.18,30.49c8.99,3.78,23.48,3,33.21,2.02,1.41-.16,2.97-.41,4.37-.59,2.61.25,5.3.59,7.86,1.11,1.72.35,3.56.83,5.24,1.32.78.23,1.83.54,2.62.75.46-.07,1.31-.28,1.75-.42,2.54-.78,5.21-1.52,7.86-1.79,2.88-.29,5.85-.21,8.74-.29,2.92-.06,5.88-.6,8.74-1.13,2.65-.59,5.33.75,7.86,1.39,2.81.89,5.81,1.36,8.74,1.67,10.74,1.11,21.56.1,32.33.56,7.87.28,16.03.46,23.59-2.07,2.76-.93,5.38-2.46,7.86-3.97.7-.43,1.79-.95,2.62-1.05,1.09,0,2.41,0,3.5,0,2.88,0,5.85,0,8.74,0"/><path class="b" d="M8.18,28.68c8.33,3.99,23.92,3.05,33.21,2.12,1.71-.19,3.54-.49,5.24-.71,2.31.26,4.72.62,6.99,1.12,2.64.54,5.25,1.53,7.86,2.17,1.41-.38,2.96-.91,4.37-1.31,4.8-1.5,9.9-1.1,14.85-1.26,2.63-.1,5.3-.64,7.86-1.21,2.31-.54,4.75.47,6.99.98,2.83.85,5.81,1.48,8.74,1.86,9.85,1.24,19.81.87,29.71,1.03,8.47-.04,17.21.13,25.34-2.59,3.04-.99,5.89-2.64,8.74-4.04,1.86-.92,4.11-.48,6.12-.58,3.18,0,6.43,0,9.61,0"/><path class="b" d="M8.18,27.23c1.18-.15,2.37.75,3.5,1.01,1.67.51,3.51.88,5.24,1.09,8.41.89,16.95.59,25.34-.36,1.71-.2,3.54-.5,5.24-.69,2.32.31,4.73.75,6.99,1.35,9.78,2.94,4.55,2.1,13.98-.06,4.59-.92,9.35-.22,13.98-.66,2.34-.22,4.72-.86,6.99-1.44,5.04.38,9.84,2.3,14.85,2.91,9.54,1.25,19.23,1.22,28.84,1.19,9.12-.11,18.51-.42,27.09-3.82,2.62-.96,5.15-2.46,7.86-3.15,5.22-.23,10.5-.02,15.73-.09"/><path class="b" d="M8.18,26.11c.8-.05,1.83-.16,2.62-.04.78.3,1.81.64,2.62.84,1.68.41,3.52.66,5.24.82,9.91.85,19.88.06,29.71-1.26,2.95.46,5.92,1.22,8.74,2.21,3.53,1.21,3.41,1.68,6.99.23,2.78-1.02,5.78-1.64,8.74-1.68,4.36-.1,8.84.42,13.11-.73,1.1-.26,2.37-.74,3.5-.92,1.72.08,3.56.31,5.24.66,3.45.79,6.97,1.62,10.49,2.12,8.96,1.22,18.06,1.21,27.09,1.13,6.13-.13,12.33-.5,18.35-1.72,4.78-.93,9.41-2.63,13.98-4.27,2.47-1.01,5.26-.68,7.86-.73,3.76,0,7.59,0,11.36,0"/><path class="b" d="M8.18,24.85c1.4-.02,2.97-.3,4.37-.12,1.95.61,4.09.96,6.12,1.17,5.21.5,10.51.43,15.73.19,3.19-.16,6.44-.46,9.61-.83,1.99-.11,4.15-.8,6.12-.4,3.6.7,7.02,2.23,10.49,3.36,3.46-.99,6.81-2.7,10.49-2.82,5.53-.35,11.3.79,16.6-1.33,1.33-.63,2.96-.38,4.37-.29,2.33.19,4.71.74,6.99,1.23,4.59.96,9.29,1.64,13.98,1.9,9.3.56,18.69.61,27.96-.34,5-.53,9.99-1.49,14.85-2.75,3.2-.79,6.39-1.93,9.61-2.65,2.27-.34,4.7-.1,6.99-.17,3.76,0,7.59,0,11.36,0"/><path class="b" d="M8.18,23.47c1.71-.06,3.54-.2,5.24-.36,2.01.26,4.08.87,6.12.99,4.92.45,9.92.38,14.85.17,3.19-.15,6.44-.43,9.61-.77,2.28-.12,4.73-.77,6.99-.34,3.3.74,6.34,2.53,9.61,3.32,3.67-1.35,7.36-3.1,11.36-3.08,4.06-.17,8.22.58,12.23-.22,1.45-.3,3.01-.86,4.37-1.46,2-.13,4.13,0,6.12.25,5.8.94,11.59,2.28,17.48,2.57,8.72.61,17.52.57,26.21-.32,8.86-.82,17.56-2.81,26.21-4.77,2.28-.34,4.7-.11,6.99-.18,4.06,0,8.18,0,12.23,0"/><path class="b" d="M8.18,21.99c2.6-.02,5.28-.56,7.86-.44,4.85,1.08,9.91,1.04,14.85,1,4.36-.07,8.77-.4,13.11-.8,3.17-.16,6.61-1.01,9.61.39,7.69,2.94,4.55,3.54,12.23.38,2.21-.8,4.65-1.14,6.99-1.13,4.96,0,10.26,1.1,14.85-1.32.43-.27,1.24-.51,1.75-.42,1.1-.02,2.4-.02,3.5.02,4.1.19,8.17,1.19,12.23,1.74,7.22,1,14.57,1.2,21.85.98,12.63-.52,25.15-2.53,37.57-4.78,6.39-.23,12.83-.02,19.22-.09"/><path class="b" d="M8.18,20.4c3.18-.02,6.46-.63,9.61-.61,5.44,1.05,11.08.92,16.6.77,6.1-.06,12.27-1.34,18.35-.6,2.35.89,4.62,2.25,6.99,3.08,2.41-.61,4.6-2.16,6.99-2.85,5.09-1.72,10.51-.24,15.73-.56,2.17-.13,4.22-1.11,6.12-2.07,2.59-.04,5.28-.15,7.86.14,4.65.54,9.3,1.49,13.98,1.81,7.84.63,15.76.54,23.59-.26,10.22-.86,20.44-1.9,30.58-3.41,6.39-.16,12.83-.01,19.22-.06"/><path class="b" d="M8.18,18.75c3.48-.13,7.03-.41,10.49-.85,5.19.71,10.48.96,15.73.76,6.09-.03,12.29-1.19,18.35-.25,2.5.41,4.51,2.44,6.99,2.89,2.07-.79,4.04-2.12,6.12-2.91,5.01-2.11,10.5-.8,15.73-.73,2.63.08,4.78-1.09,6.99-2.32,2.59.03,5.28-.16,7.86.04,3.49.26,7.01.88,10.49,1.25,7.82.79,15.76.96,23.59.2,9-.91,18.09-1.06,27.09-1.94,2.59-.24,5.26-.69,7.86-.86,6.1-.03,12.25,0,18.35-.01"/><path class="b" d="M8.18,17.06c2.89-.11,5.86-.31,8.74-.62,1.1-.12,2.4-.28,3.5-.42,1.11-.04,2.39.29,3.5.37,7.84.82,15.74,0,23.59-.05,10.39-.11,9.66,5.15,13.98,2.22,6.5-4.33,10.94-3.91,18.35-3.14,3.97.41,5.5-.41,8.74-2.47,3.47.21,7.02-.11,10.49.27,7.24.82,14.54,1.56,21.85,1.44,4.96.03,9.92-.68,14.85-.96,5.81-.31,11.67-.22,17.48-.42,4.37-.07,8.76-.7,13.11-1.01,5.81,0,11.66,0,17.48,0"/></svg>