<?xml version="1.0" encoding="UTF-8"?><svg id="a" xmlns="http://www.w3.org/2000/svg" width="1920" height="2400" viewBox="0 0 192 240"><defs><style>.b{fill:none;stroke:#fff;stroke-miterlimit:10;stroke-width:.3px;}.c{stroke-width:0px;}</style></defs><rect class="c" x="0" width="192" height="240"/><path class="b" d="M8.23,220.74c3.36,1.01,4.54,4.21,6.11,6.98,1.09.02,2.4.01,3.49.01,1.88-3.25,1.85-4.58,6.11-3.87,1.73.27,3.55.74,5.24,1.16,1.39.24,2.97.32,4.37.51,7.52.98,15.14,1.13,22.71,1.44,2.59.08,5.27.31,7.86.35,7.91-.37,15.77-1.65,23.58-2.88,2.58-.39,5.26-.84,7.86-1.05,2.72,1.32,5.77,2.06,8.73,2.58,4.32.64,8.74,1.38,13.1,1.43,6.09-.79,12.19-1.87,18.34-2.16,3.18-.28,6.43-.02,9.61.09,4.35.17,8.75.28,13.1.31,8.43.15,16.9-.39,25.33.18"/><path class="b" d="M8.23,218.44c5.72-.44,5.85,3.08,6.99,7.53,1.4-.03,2.98.12,4.37-.12,2.53-2.88,6.17-2.61,9.61-1.98,2.27.39,4.7.32,6.99.61,4.34.41,8.75.67,13.1.84,3.77.21,7.59.32,11.35,0,11.12-.51,22.1-2.67,33.19-3.49.48-.05,1.32.14,1.75.35,1.08.38,2.38.75,3.49,1.01,3.14.74,6.41,1.2,9.61,1.62,2.87.25,5.85.96,8.73.76,6.08-.85,12.19-1.9,18.34-2.11,3.47-.27,7.01-.07,10.48.11,3.76.16,7.59.26,11.35.3,8.73.17,17.49-.33,26.2.25"/><path class="b" d="M8.23,216.7h6.99c.25,1.64.89,6.13,1.75,7.54,1.1,0,2.39,0,3.49,0,1.73-.4,3.41-1.47,5.24-1.54,1.71-.16,3.55.02,5.24.25,4.65.06,9.33.56,13.97.78,3.77.31,7.59-.1,11.35-.29,7.59-.39,15.16-1.28,22.71-2.11,4.63-.55,9.33-.81,13.97-1.18,2.03.28,4.08,1.13,6.11,1.44,3.74.73,7.58,1.23,11.35,1.71,2,.2,4.11.6,6.11.6,2-.24,4.12-.59,6.11-.9,4.32-.71,8.73-1.11,13.1-1.27,7.27-.38,14.56.44,21.83.41,8.73.16,17.49-.28,26.2.3"/><path class="b" d="M8.23,214.95h7.86c.35,1.74,1.2,5.3,1.75,6.97l.87.57c1.4-.04,2.98.12,4.37-.14,1.67-.45,3.5-.82,5.24-.8,3.18.18,6.43.19,9.61.35,3.48.31,7.01.25,10.48-.08,6.98-.47,14-.94,20.96-1.68,5.79-.62,11.64-1.15,17.47-1.39,1.1-.06,2.4-.15,3.49-.24.79-.07,1.85-.26,2.62,0,7.4,1.99,15.12,2.73,22.71,3.67,6.38-.86,12.75-2.1,19.21-2.17,7.56-.39,15.14.34,22.71.37,8.73.15,17.49-.22,26.2.35"/><path class="b" d="M8.23,213.2h7.86l.87.61c.79,2.13,1.11,5.72,3.49,6.72,3.16.7,6.42-.37,9.61-.22,4.64.18,9.34.26,13.97-.22,5.81-.47,11.66-.91,17.47-1.42,7.55-.72,15.12-1.49,22.71-1.68,1.4-.07,2.97-.17,4.37-.29,1.1-.03,2.43-.45,3.49-.04,4.28,1.16,8.73,1.77,13.1,2.43,3.47.43,6.99,1.14,10.48,1.28,6.08-.9,12.17-2.05,18.34-2.1,7.86-.34,15.73.24,23.58.35,8.73.15,17.49-.16,26.2.39"/><path class="b" d="M8.23,211.46h8.73c1.34,1.69,1.91,4.34,3.49,5.86,2.8,2.45,8.63,1.29,12.23,1.6,9.03-.51,18.06-1.57,27.07-2.3,4.64-.41,9.32-.92,13.97-1.2,5.52-.2,11.09-.37,16.59-.92,7.98,2.17,16.28,3.05,24.45,4.16,6.08-.87,12.17-2.12,18.34-2.14,8.15-.27,16.31.16,24.45.32,8.73.15,17.49-.11,26.2.42"/><path class="b" d="M8.23,209.71c2,0,4.12,0,6.11,0,1.1.04,2.43-.14,3.49.22,1.62,2.35,3.1,5.4,6.11,6.17,1.95.56,4.1.63,6.11.73,2.3.13,4.7.09,6.99-.19,7.85-.74,15.73-1.57,23.58-2.31,6.08-.63,12.22-1.05,18.34-1.19,3.48-.06,7.01-.51,10.48-.63,4.54,1.4,9.3,2.09,13.97,2.85,3.76.5,7.57,1.37,11.35,1.5,6.07-.95,12.17-2.14,18.34-2.09,8.44-.16,16.9.16,25.33.34,8.43.12,16.9-.05,25.33.44"/><path class="b" d="M8.23,207.96c2.3,0,4.69,0,6.99,0,1.13.07,2.53-.27,3.49.45,1.86,2.28,3.96,4.73,6.99,5.36,6.31,1.59,12.84.65,19.21,0,8.43-.91,16.87-1.91,25.33-2.53,5.51-.39,11.09-.31,16.59-.85,1.15-.25,2.42.21,3.49.56,1.68.49,3.53.92,5.24,1.26,6.07,1.14,12.21,2.2,18.34,2.93,5.51-.79,11.01-2.04,16.59-2.11,9.6-.2,19.22.12,28.82.3,8.14.11,16.32,0,24.45.44"/><path class="b" d="M8.23,206.21c2.3,0,4.69,0,6.99,0,1.41.12,3.18-.39,4.37.54,2.84,2.85,5.58,4.48,9.61,5.04,6.06,1.16,12.27.04,18.34-.51,7.56-.85,15.12-1.95,22.71-2.54,5.22-.39,10.51-.19,15.72-.63,1.16-.25,2.42.36,3.49.72,1.67.55,3.52,1.03,5.24,1.41,3.74.82,7.58,1.46,11.35,2.1,2.58.34,5.26,1.05,7.86,1.01,5.5-.84,11.01-2.07,16.59-2.08,9.89-.1,19.81.16,29.69.33,7.85.1,15.74.06,23.58.44"/><path class="b" d="M8.23,204.47c3.76.06,7.6-.12,11.35.08,1.79.87,3.38,2.4,5.24,3.16,3,1.32,6.36,1.8,9.61,2.1,7.31-.07,14.61-1.12,21.83-2.16,4.92-.71,9.88-1.46,14.85-1.72,4.64-.24,9.34.07,13.97-.19,1.19-.22,2.42.5,3.49.89,1.67.63,3.51,1.18,5.24,1.6,6.33,1.43,12.77,2.69,19.21,3.45,5.51-.81,11-2.12,16.59-2.17,9.89-.03,19.81.16,29.69.32,8.14.12,16.32.11,24.45.46"/><path class="b" d="M8.23,202.72c3.47,0,7.01,0,10.48,0,2.27-.27,4.11,1.44,6.11,2.21,2.2.93,4.63,1.49,6.99,1.84,3.16.55,6.43.26,9.61.03,6.74-.54,13.4-1.98,20.09-2.95,3.74-.53,7.58-.8,11.35-.81,4.06.05,8.17.33,12.23.22,2.6.9,5.16,2.24,7.86,2.89,6.3,1.66,12.77,2.85,19.21,3.79,5.82-.65,11.57-2.32,17.47-2.22,18.05.19,36.11.32,54.15.8"/><path class="b" d="M8.23,200.97c4.35.05,8.76-.1,13.1.07,2.59.82,5.16,2.02,7.86,2.49,3.43.75,7,.87,10.48.53,4.69-.34,9.36-1.26,13.97-2.12,4.08.04,8.18-.55,12.23-.96,6.1-.02,12.24-.02,18.34.03,1.19.1,2.43.82,3.49,1.3,1.37.63,2.94,1.25,4.37,1.71,3.41,1.1,6.98,1.86,10.48,2.58,3.16.61,6.39,1.35,9.61,1.62,5.79-.9,11.56-2.41,17.47-2.28,18.05.25,36.11.38,54.15.8"/><path class="b" d="M8.23,199.22c4.64.02,9.33-.04,13.97.02,4.02.9,8.07,2.06,12.23,2.09,4.39.05,8.77-.78,13.1-1.38,2.58.29,5.26.44,7.86.41,3.8.02,7.6-.61,11.35-1.11,2.88-.07,5.85-.01,8.73-.03,2.3,0,4.69,0,6.99,0,1.44-.02,3.07-.1,4.37.65,5.98,3.08,12.67,4.41,19.21,5.76,2.27.34,4.69,1.16,6.99.65,4.61-.87,9.26-1.96,13.97-2.08,6.68-.14,13.4.27,20.09.24,12.22-.06,24.46.39,36.68.53"/><path class="b" d="M8.23,197.48c5.22.04,10.5-.07,15.72.04,2.88.38,5.82.92,8.73.97,3.49.16,7.01-.46,10.48-.73,2.87.42,5.83.82,8.73.95,5.27.35,10.54-.31,15.72-1.19,4.64-.12,9.33-.01,13.97-.04,1.4.03,2.97-.08,4.37.09,2.35.85,4.61,2.21,6.99,2.99,5.37,1.84,10.99,3.1,16.59,3.99,2.61.5,5.29-.58,7.86-.97,3.43-.7,6.98-1.14,10.48-1.18,9.02.07,18.06.44,27.07.3,9.6.15,19.22.44,28.82.53"/><path class="b" d="M8.23,195.73c7.27.07,14.58-.19,21.83.22,3.47.23,7.01-.33,10.48-.12,4.91.65,9.87,1.45,14.85,1.38,4.4.08,8.78-.69,13.1-1.43,5.22-.11,10.5,0,15.72-.04,1.52-.14,3.05.21,4.37.98,1.66.83,3.49,1.65,5.24,2.27,5.09,1.75,10.41,3,15.72,3.84,1.1.25,2.41,0,3.49-.22,1.7-.33,3.54-.73,5.24-1.04,4.01-.78,8.15-1.05,12.23-.93,8.72.3,17.48.33,26.2.33,9.02.14,18.06.46,27.07.5"/><path class="b" d="M8.23,194.01c9.89-.07,19.8-.02,29.69-.02,5.52.47,11.03,1.65,16.59,1.59,5,.18,9.95-.74,14.85-1.58,4.64-.04,9.33,0,13.97-.02,1.1.01,2.4-.05,3.49.07,2.36.83,4.61,2.26,6.99,3.07,5.07,1.84,10.39,3.14,15.72,3.99,1.41.27,2.98-.31,4.37-.51,2.58-.53,5.25-1.1,7.86-1.41,5.2-.65,10.5-.24,15.72-.13,6.68.23,13.41.05,20.09.15,8.72.13,17.48.48,26.2.48"/><path class="b" d="M8.23,192.88c4.03-.71,8.16-.68,12.23-.65,4.93,0,9.91,0,14.85,0,2.91.02,5.86.59,8.73.94,3.45.45,7,.74,10.48.76,5,.13,9.97-.69,14.85-1.66,4.05-.12,8.17-.01,12.23-.05,1.7,0,3.54-.01,5.24.01,2.42.66,4.62,2.22,6.99,3.04,4.78,1.82,9.81,3.1,14.85,3.98,2.61.47,5.29-.66,7.86-1.04,3.71-.77,7.56-1.2,11.35-1.17,9.6.29,19.22.43,28.82.37,9.02.15,18.06.53,27.07.49"/><path class="b" d="M8.23,191.99c3.75-.58,7.55-1.41,11.35-1.49,5.22.06,10.5-.15,15.72.12,5.81.56,11.62,1.57,17.47,1.63,5.58.22,11.15-.57,16.59-1.71,3.47-.12,7.01-.01,10.48-.05,2.58.11,5.31-.24,7.86.18,1.75.69,3.5,1.73,5.24,2.45,5.02,2.09,10.37,3.51,15.72,4.44,1.1.28,2.41-.05,3.49-.25,2-.39,4.11-.87,6.11-1.22,4.01-.73,8.16-.91,12.23-.75,8.72.39,17.48.32,26.2.33,9.01.16,18.06.56,27.07.46"/><path class="b" d="M8.23,190.95c4.07-.6,8.14-1.53,12.23-1.98,2.58-.28,5.27-.23,7.86-.22,7.6,0,15.11,1.63,22.71,1.8,5.85.23,11.76-.24,17.47-1.6,3.44-.48,7.02-.1,10.48-.22,2,0,4.11,0,6.11,0,.78,0,1.84-.03,2.62.08.82.25,1.86.77,2.62,1.16,5.72,2.94,12.02,4.75,18.34,5.86,1.41.28,2.98-.32,4.37-.53,2.58-.55,5.24-1.13,7.86-1.44,5.2-.68,10.5-.24,15.72-.11,6.97.27,13.99.03,20.96.15,8.72.15,17.48.56,26.2.41"/><path class="b" d="M8.23,189.76c6.1-.81,12.15-2.57,18.34-2.54,8.18-.07,16.28,1.59,24.45,1.73,5.85.19,11.77-.25,17.47-1.66,3.42-.63,7.02-.17,10.48-.3,2,0,4.11,0,6.11,0,1.43,0,3.07-.17,4.37.57,5.98,3.21,12.52,5.46,19.21,6.58,1.73.12,3.55-.52,5.24-.82,2.57-.57,5.24-1.1,7.86-1.37,5.5-.58,11.08,0,16.59.08,6.39.21,12.82,0,19.21.09,8.72.15,17.48.58,26.2.36"/><path class="b" d="M8.23,188.44c6.12-.72,12.15-2.54,18.34-2.66,8.17-.1,16.29,1.49,24.45,1.58,5.55.13,11.19-.17,16.59-1.48,3.67-1.05,7.59-.5,11.35-.63,2,0,4.11,0,6.11,0,1.4.07,3.03-.21,4.37.29,5.78,3.03,11.88,5.62,18.34,6.76,1.41.37,2.98-.12,4.37-.39,1.7-.37,3.53-.8,5.24-1.13,4-.79,8.16-1.01,12.23-.84,9.3.49,18.64.45,27.95.4,8.72.14,17.48.59,26.2.31"/><path class="b" d="M8.23,187.04c6.13-.67,12.16-2.48,18.34-2.7,8.17-.15,16.29,1.38,24.45,1.44,4.95.08,9.98-.12,14.85-1.1,1.71-.33,3.52-.88,5.24-1.15,2.59-.09,5.27-.02,7.86-.04,3.47.03,7.01-.07,10.48.05,2.43.8,4.63,2.41,6.99,3.39,3.34,1.5,6.9,2.72,10.48,3.49,2.61.76,5.3-.45,7.86-.93,3.7-.89,7.55-1.44,11.35-1.44,4.35,0,8.75.37,13.1.44,6.1.16,12.24.1,18.34.06,8.72.08,17.48.59,26.2.22"/><path class="b" d="M8.23,185.59c6.43-.65,12.73-2.59,19.21-2.73,7.87-.06,15.71,1.3,23.58,1.34,4.65.06,9.38-.11,13.97-.92,2.32-.36,4.66-1.18,6.99-1.51,2.29-.04,4.69,0,6.99-.02,3.47,0,7.01,0,10.48,0,1.22-.06,2.47.69,3.49,1.26,1.08.62,2.38,1.35,3.49,1.91,3.04,1.53,6.3,2.79,9.61,3.61.77.19,1.84.4,2.62.52,1.72-.28,3.55-.74,5.24-1.16,3.41-.88,6.96-1.54,10.48-1.64,4.65-.15,9.33.34,13.97.44,6.1.2,12.24.16,18.34.13,9.01-.11,18.07.57,27.07.08"/><path class="b" d="M8.23,184.1c6.44-.6,12.74-2.53,19.21-2.73,7.87-.1,15.71,1.24,23.58,1.25,4.65.05,9.38-.13,13.97-.91,2.33-.37,4.69-1.09,6.99-1.6,2.28-.25,4.69-.05,6.99-.11,3.76,0,7.59,0,11.35,0,2.28,0,4.16,1.86,6.11,2.82,3,1.7,6.26,3.13,9.61,4,.77.19,1.83.43,2.62.48,2.03-.35,4.12-.95,6.11-1.47,3.4-.91,6.96-1.46,10.48-1.48,4.35-.03,8.75.42,13.1.54,5.81.21,11.66.2,17.47.18,9.31-.13,18.64.31,27.95.05"/><path class="b" d="M8.23,182.59c6.44-.56,12.74-2.48,19.21-2.72,7.58-.14,15.13,1.11,22.71,1.15,5.24.07,10.56-.1,15.72-1.04,2.33-.39,4.68-1.16,6.99-1.64,1.99-.17,4.12-.04,6.11-.08,4.35.01,8.75-.02,13.1.02,1.9.5,3.55,1.96,5.24,2.92,2.44,1.5,5.12,2.82,7.86,3.68,1.07.31,2.37.7,3.49.69,1.73-.32,3.55-.86,5.24-1.34,3.1-.91,6.37-1.58,9.61-1.72,6.98-.17,13.98.78,20.96.74,7.56.12,15.15.04,22.71.08,5.52.01,11.08.22,16.59.04"/><path class="b" d="M8.23,181.07c6.45-.52,12.75-2.43,19.21-2.71,7.57-.17,15.13,1.06,22.71,1.06,5.24.05,10.55-.14,15.72-1.04,2.63-.41,5.25-1.32,7.86-1.82,1.7-.09,3.54-.03,5.24-.04,3.47,0,7.01,0,10.48,0,4.31-.12,4.37-.07,7.86,2.47,2.41,1.68,5.07,3.23,7.86,4.18,1.07.33,2.36.76,3.49.67,1.73-.34,3.55-.93,5.24-1.46,3.09-.98,6.36-1.67,9.61-1.79,6.98-.11,13.97.9,20.96.88,7.56.15,15.15.1,22.71.14,5.52.01,11.08.2,16.59.02"/><path class="b" d="M8.23,179.55c6.46-.47,12.75-2.37,19.21-2.72,7.28-.22,14.56.93,21.83.95,5.53.05,11.13-.12,16.59-1.03,2.63-.41,5.27-1.22,7.86-1.84,1.68-.28,3.54-.1,5.24-.14,3.47,0,7.01,0,10.48,0,1.09,0,2.4,0,3.49,0,.84-.07,1.92.12,2.62.62,2.81,2,5.52,4.37,8.73,5.71,3.69,1.69,5.12.93,8.73-.3,3.07-1.1,6.33-1.95,9.61-2.11,6.7-.25,13.39.92,20.09.96,7.85.22,15.73.21,23.58.24,5.81,0,11.66.19,17.47,0"/><path class="b" d="M8.23,178.04c4.68-.4,9.36-1.25,13.97-2.14,1.99-.26,4.13-.22,6.11-.56,7.27-.29,14.56.94,21.83.8,5.53,0,11.14-.24,16.59-1.21,2.63-.43,5.26-1.29,7.86-1.84,1.69-.16,3.54-.05,5.24-.08,3.47,0,7.01,0,10.48,0,1.09,0,2.4,0,3.49,0,.83-.05,1.93.03,2.62.55,2.56,1.95,4.92,4.39,7.86,5.78,3.58,1.86,5.25.88,8.73-.43,3.04-1.21,6.32-2.1,9.61-2.23,6.7-.17,13.39,1.09,20.09,1.15,13.67.33,27.37.45,41.05.3"/><path class="b" d="M8.23,176.54c2.31-.2,4.7-.48,6.99-.83,1.71-.22,3.51-.76,5.24-.69,2.6,0,5.29-.16,7.86-.51,1.71-.15,3.51-.83,5.24-.71,6.97.37,13.98.89,20.96.59,4.67-.16,9.39-.54,13.97-1.48,2.32-.43,4.65-1.27,6.99-1.62,2-.05,4.11-.01,6.11-.02,3.18,0,6.43,0,9.61,0,1.09,0,2.4,0,3.49,0,.83-.03,1.93-.05,2.62.49,2.3,1.91,4.33,4.39,6.99,5.84,3.42,2.03,5.43.81,8.73-.6,3.01-1.35,6.3-2.26,9.61-2.34,6.42-.09,12.8,1.22,19.21,1.34,13.96.47,27.96.55,41.92.4"/><path class="b" d="M8.23,175.08c3.49-.17,6.98-1.02,10.48-.94,5.59.03,11.15-.69,16.59-1.85,6.68.36,13.4.67,20.09.33,4.67-.21,9.4-.64,13.97-1.62,2.01-.41,4.09-1.08,6.11-1.42,2.29-.13,4.69-.03,6.99-.06,4.93,0,9.91-.02,14.85.01,1,.37,1.93,1.47,2.62,2.24,1.27,1.45,2.75,3.04,4.37,4.1,5.59,3.74,8.6-3.31,18.34-3.28,6.13,0,12.21,1.36,18.34,1.55,14.25.64,28.54.67,42.8.51"/><path class="b" d="M8.23,173.64c9-.9,18.24-.19,27.07-2.46,2.48-.84,5.28-.15,7.86-.22,3.76.13,7.59.07,11.35-.08,4.66-.2,9.38-.6,13.97-1.48,2.32-.42,4.67-1.13,6.99-1.56,2.29-.19,4.69-.04,6.99-.09,3.47,0,7.01,0,10.48,0,1.09,0,2.4,0,3.49,0,.84-.02,1.93-.11,2.62.49,1.98,2.13,3.51,5.01,6.11,6.48,5.53,2.71,8.11-5.5,20.09-4.14,5.81.62,11.62,1.63,17.47,1.83,13.67.63,27.37.66,41.05.49"/><path class="b" d="M8.23,172.24c8.15-.39,16.38-.33,24.45-1.65,2.03-.33,4.14-.86,6.11-1.46,4.64.15,9.33.22,13.97.03,5.25-.19,10.55-.59,15.72-1.56,2.31-.41,4.67-1.08,6.99-1.48,2.29-.19,4.69-.04,6.99-.09,3.47,0,7.01,0,10.48,0,1.09,0,2.4,0,3.49,0,.81,0,1.9-.09,2.62.36,2.2,2.03,3.46,5.23,6.11,6.77,6.36,2.38,6.44-6.12,22.71-4.19,2.9.28,5.83.92,8.73,1.18,4.33.47,8.75.65,13.1.81,11.34.42,22.72.39,34.06.24"/><path class="b" d="M8.23,170.89c5.23-.13,10.5-.36,15.72-.7,4.98-.36,10.04-.82,14.85-2.23,2.19-.91,4.68-.38,6.99-.49,3.77,0,7.6-.14,11.35-.39,6.19-.29,12.29-1.52,18.34-2.73,7.55-.14,15.15-.07,22.71-.03,2.54,1.62,3.61,5.02,6.11,6.74,2.19,1.53,4.96.56,6.99-.78,1.62-.96,3.43-1.93,5.24-2.47,5.1-1.47,10.53-.59,15.72-.16,6.33,1.1,12.8,1.34,19.21,1.6,10.76.47,21.55.33,32.32.2"/><path class="b" d="M8.23,169.45c8.15-.27,16.36-.53,24.45-1.6,3.25-.41,6.5-1.26,9.61-2.27,3.47,0,7.01-.02,10.48-.18,4.36-.2,8.78-.54,13.1-1.18,3.2-.42,6.4-1.28,9.61-1.67,7.55.03,15.17-.19,22.71.08,2.78,2.16,3.91,6.97,7.86,7.43,1.89.23,3.67-.7,5.24-1.65,1.62-.95,3.43-1.88,5.24-2.39,5.41-1.49,11.1-.4,16.59-.03,16.78,2.18,33.77,2.01,50.66,1.71"/><path class="b" d="M8.23,167.91c8.74-.28,17.54-.6,26.2-1.85,2.63-.42,5.34-1.03,7.86-1.91,1.6-.78,3.52-.51,5.24-.58,5.53-.1,11.11-.4,16.59-1.11,3.49-.4,6.99-1.23,10.48-1.64,4.93-.09,9.91,0,14.85-.04,1.7,0,3.54,0,5.24,0,1.1.05,2.45-.17,3.49.26,2.45,2.41,3.76,7.4,7.86,7.28,1.91.21,3.65-.93,5.24-1.82,1.62-.93,3.43-1.81,5.24-2.29,5.72-1.45,11.68-.18,17.47.15,9.57,1.02,19.2,1.7,28.82,1.92,6.98.09,13.99-.22,20.96-.3"/><path class="b" d="M8.23,166.28c9.03-.33,18.12-.7,27.07-1.98,2.33-.39,4.74-.94,6.99-1.67,1.4-.41,2.87-1.27,4.37-1.16,4.94-.1,9.93-.32,14.85-.84,3.78-.36,7.58-1.11,11.35-1.53,8.14-.13,16.32-.07,24.45-.03,2.35,2.05,3.11,5.91,6.11,7.3,1.07.32,2.39.2,3.49.17.84-.2,1.87-.73,2.62-1.14,2.19-1.23,4.52-2.5,6.99-3.06,5.75-1.26,11.68.01,17.47.32,9.3.73,18.61,1.76,27.95,2.02,7.27.18,14.57-.31,21.83-.41"/><path class="b" d="M8.23,164.59c9.32-.43,18.71-.74,27.95-2.15,2.33-.42,4.74-1,6.99-1.74,1.99-.64,3.96-1.75,6.11-1.54,7.31-.11,14.58-1.14,21.83-1.85,8.43-.06,16.89,0,25.33-.02,2.2,1.88,2.71,5.5,5.24,7.13.74.42,1.8.44,2.62.41.8.01,1.87.03,2.62-.29,2.84-1.4,5.6-3.24,8.73-3.93,6.04-1.35,12.26.06,18.34.34,9.03.5,18.03,1.81,27.07,2.13,7.56.28,15.15-.37,22.71-.54"/><path class="b" d="M8.23,162.84c9.61-.53,19.32-.75,28.82-2.38,2.64-.52,5.33-1.23,7.86-2.13,1.41-.46,2.92-1.2,4.37-1.56.78-.03,1.84-.07,2.62-.1,5.24-.18,10.49-.83,15.72-1.11,9.31-.04,18.64,0,27.95-.01.81.27,1.43,1.62,1.75,2.32.66,1.38,1.54,3.28,2.62,4.38.92.91,2.3.89,3.49.84,1.58.19,3.06-.74,4.37-1.49,2.16-1.22,4.57-2.24,6.99-2.8,6.63-1.38,13.42.3,20.09.49,8.46.32,16.86,1.85,25.33,2.2,7.86.39,15.73-.41,23.58-.66"/><path class="b" d="M8.23,161.03c9.61-.54,19.33-.79,28.82-2.49,3.24-.65,6.5-1.59,9.61-2.71,2.24-.82,4.55-1.81,6.99-1.66,13.66-.73,27.37-.24,41.05-.38.86.29,1.45,2.05,1.75,2.79.41.91,1.15,2.72,1.75,3.51,1.12,1.57,2.69,1.22,4.37,1.24,1.59-.17,2.98-1.42,4.37-2.12,2.14-1.19,4.59-1.98,6.99-2.4,6.96-1.09,13.99.56,20.96.74,8.19.18,16.27,1.96,24.45,2.33,8.15.5,16.32-.45,24.45-.78"/><path class="b" d="M8.23,159.18c9.32-.53,18.73-.9,27.95-2.5,2.93-.58,5.89-1.37,8.73-2.28,2.57-.79,5.19-1.83,7.86-2.25,13.66-.28,27.37,0,41.05-.1,1.59,1.97,1.63,5.44,3.49,7.25,1.04.46,2.39.24,3.49.28,1.27-.22,2.43-1.28,3.49-1.94,3.57-2.37,8.01-3.05,12.23-3.09,7.28.12,14.54,1.35,21.83,1.41,6.12.49,12.21,1.78,18.34,2.21,9.02.82,18.07-.31,27.07-.78"/><path class="b" d="M8.23,157.3c8.74-.52,17.55-1.01,26.2-2.44,5.94-.94,11.58-3.29,17.47-4.4,6.66-.39,13.41-.04,20.09-.15,4.06,0,8.17,0,12.23,0,2.29.08,4.72-.19,6.99.15,1.8,2.09,2.21,5.55,4.37,7.34,1.4-.02,3.12.38,4.37-.39,1.6-1.28,3.3-2.72,5.24-3.45,3.87-1.44,8.16-1.43,12.23-1.25,3.77.22,7.59.74,11.35,1.03,3.47.28,7.01.36,10.48.57,5.23.65,10.46,1.72,15.72,2.19,9.6,1.05,19.24-.23,28.82-.82"/><path class="b" d="M8.23,155.35c8.16-.55,16.38-1.14,24.45-2.48,5.02-.82,9.91-2.4,14.85-3.58,3.41-.92,6.99-.74,10.48-.74,4.93,0,9.91,0,14.85,0,4.64,0,9.33,0,13.97,0,3.23.97,4,7.94,7.86,7.54,2.1.14,3-.14,4.37-1.79,3.22-3.73,8.55-3.81,13.1-3.74,5.84.14,11.65,1.15,17.47,1.5,3.47.25,7.03.26,10.48.69,5.5.92,11.02,2,16.59,2.35,9.04.73,18.07-.58,27.07-1.17"/><path class="b" d="M8.23,153.33c7.88-.63,15.8-1.38,23.58-2.76,5.57-.96,10.99-2.84,16.59-3.58,4.04-.38,8.17-.1,12.23-.18,6.68,0,13.4,0,20.09,0,2.76-.25,3.57.59,5.24,2.6,1.71,1.82,3.3,4.94,6.11,4.94.79,0,1.86.06,2.62-.19,1.98-.98,3.53-2.87,5.24-4.22.41-.34,1.29-.97,1.75-1.24,1.08-.22,2.39-.33,3.49-.36,7.31-.17,14.57,1.22,21.83,1.81,4.05.33,8.19.42,12.23.9,4.34.79,8.72,1.69,13.1,2.16,5.49.6,11.08.63,16.59.28,4.94-.31,9.9-1.03,14.85-1.29"/><path class="b" d="M8.23,151.2c7-.7,14.03-1.65,20.96-2.86,4.67-.81,9.29-2.14,13.97-2.88,2.86-.49,5.84-.41,8.73-.41,3.47,0,7.01,0,10.48,0,5.52.04,11.08-.08,16.59.05,2.78,1.28,4.55,4.21,6.99,6,1.56,1.35,3.25,1.64,5.24,1.47,1.6-.23,3.08-1.32,4.37-2.22,2.4-1.75,4.98-3.53,7.86-4.36,1.69-.23,3.54.17,5.24.27,4.66.43,9.33,1.19,13.97,1.72,4.04.48,8.17.63,12.23,1,5.28.46,10.45,2,15.72,2.54,6.07.7,12.25.72,18.34.29,4.94-.34,9.9-1.14,14.85-1.39"/><path class="b" d="M8.23,148.93c6.14-.78,12.24-2.07,18.34-3.09,4.35-.79,8.7-1.88,13.1-2.36,6.96-.4,13.99-.07,20.96-.17,4.64,0,9.33,0,13.97,0,.94-.1,1.94.58,2.62,1.17,1.11.97,2.38,2.19,3.49,3.15,1.52,1.28,3.27,2.65,5.24,3.12,3.91.76,7.19-2.06,10.48-3.7,2.96-1.56,6.26-2.76,9.61-3.05,1.09.14,2.4.32,3.49.47,4.35.58,8.74,1.34,13.1,1.82,4.05.46,8.18.64,12.23,1.15,5.25.7,10.42,2.19,15.72,2.62,3.17.37,6.43.36,9.61.28,2.59.05,5.28.1,7.86-.15,5.24-.35,10.47-1.33,15.72-1.53"/><path class="b" d="M8.23,146.45c3.81-.62,7.6-1.68,11.35-2.56,4.03-.81,8.14-1.58,12.23-2.08,3.17-.37,6.43-.21,9.61-.24,4.64,0,9.33,0,13.97,0,4.35,0,8.75,0,13.1,0,1.1,0,2.4,0,3.49,0,2.14.49,3.56,2.68,5.24,3.96,1.76,1.49,3.82,2.97,6.11,3.46,3.76.62,7.15-1.82,10.48-3.18,3.04-1.39,6.3-2.48,9.61-3.01,1.39-.17,2.97-.57,4.37-.31,4.35.65,8.73,1.43,13.1,1.96,4.05.5,8.18.78,12.23,1.32,5.26.69,10.43,2.19,15.72,2.64,2.88.4,5.85.14,8.73.09,2.88-.11,5.85.24,8.73.12,5.82-.38,11.63-1.41,17.47-1.55"/><path class="b" d="M8.23,143.71c2.03-.37,4.06-1.39,6.11-1.52,3.81-.13,7.61-.8,11.35-1.48,4.31-.86,8.72-.99,13.1-.9,4.93,0,9.91,0,14.85,0,4.93,0,9.91,0,14.85,0,.92-.14,1.95.39,2.62.98,1.12.97,2.37,2.22,3.49,3.18,1.51,1.28,3.33,2.48,5.24,3.05,3.94,1.14,7.73-1.43,11.35-2.65,4.73-1.88,9.77-3.07,14.85-3.43,2.02-.2,4.12.47,6.11.71,3.46.57,7,1.08,10.48,1.48,3.77.44,7.61.83,11.35,1.48,4.06.68,8.13,1.67,12.23,2.1,2.88.45,5.85.01,8.73-.04,3.47-.1,7.02.05,10.48.29,6.11-.43,12.21-1.43,18.34-1.52"/><path class="b" d="M8.23,140.66c1.36-.42,2.96-.14,4.37-.24,2-.03,4.12-.12,6.11-.31,4.08-.41,8.15-1.32,12.23-1.8,3.16-.4,6.43-.19,9.61-.24,4.64,0,9.33,0,13.97,0,2.88,0,5.85,0,8.73,0,2.87.05,3.97-.52,6.11,1.79,2.25,2.21,4.75,4.54,7.86,5.41,1.7.55,3.59.24,5.24-.31,2.02-.63,4.11-1.44,6.11-2.12,5.06-1.75,10.38-2.87,15.72-3.23,2.03-.29,4.12.01,6.11.39,2.29.36,4.69.73,6.99,1.04,4.64.64,9.35,1.17,13.97,1.95,4.06.68,8.14,1.58,12.23,2.04,2.88.44,5.85-.18,8.73-.2,4.06-.16,8.18,0,12.23.32,2.59.1,5.28-.42,7.86-.63,3.75-.4,7.58-.72,11.35-.72"/><path class="b" d="M8.23,138.59c3.77.1,7.6.09,11.35-.27,4.37-.45,8.73-1.39,13.1-1.87,6.38-.31,12.82-.04,19.21-.13,2.88,0,5.85,0,8.73,0,3.97,0,4.17-.48,6.99,2.57,1.51,1.52,3.29,3.05,5.24,3.97,1.32.6,2.91,1.05,4.37.96,2.68-.39,5.28-1.48,7.86-2.25,4.24-1.36,8.67-2.33,13.1-2.83,2.58-.3,5.26-.49,7.86-.58,3.18.44,6.43.96,9.61,1.39,7.59.97,15.15,2.32,22.71,3.53,1.39.17,2.96.43,4.37.41,1.7-.16,3.54-.32,5.24-.42,3.47-.21,7.01-.23,10.48-.06,2.3.07,4.69.39,6.99.43,6.09-.52,12.21-1.44,18.34-1.26"/><path class="b" d="M8.23,136.84c4.06.13,8.19.14,12.23-.27,4.08-.44,8.16-1.24,12.23-1.79,5.5-.47,11.08-.09,16.59-.2,4.35.05,8.76-.1,13.1.06,2.26,1.44,3.83,3.97,6.11,5.41,2.25,1.52,5.16,2.52,7.86,1.77,2.91-.74,5.81-1.79,8.73-2.48,6.27-1.54,12.77-2.16,19.21-2.35,6.4.69,12.84,1.68,19.21,2.63,3.18.5,6.42,1.06,9.61,1.53,2.28.28,4.69.82,6.99.46,8.12-.91,16.34-.71,24.45.11,6.38-.53,12.8-1.56,19.21-1.17"/><path class="b" d="M8.23,135.14c4.06.14,8.18.15,12.23-.22,4.38-.41,8.75-1.3,13.1-1.92,4.62-.4,9.34-.08,13.97-.18,4.06,0,8.17,0,12.23,0,1.84.55,2.94,2.68,4.37,3.86,2.3,2.22,5.47,3.83,8.73,3.65,2.35-.29,4.69-1.14,6.99-1.7,7.39-1.92,15.09-2.58,22.71-2.68,5.82.64,11.68,1.37,17.47,2.22,3.18.47,6.42.99,9.61,1.4,1.99.25,4.11.6,6.11.26,9.28-1.1,18.67-.94,27.95.12,6.67-.46,13.39-1.69,20.09-1.02"/><path class="b" d="M8.23,133.5c4.35.15,8.77.16,13.1-.27,4.39-.41,8.75-1.36,13.1-2.01,3.16-.29,6.43-.07,9.61-.13,4.64.03,9.34-.07,13.97.04,1.95,1.31,3.3,3.6,5.24,4.95,3.19,2.51,7.52,3.08,11.35,1.92,3.15-.77,6.39-1.5,9.61-1.95,7.52-1.04,15.18-1.36,22.71-.24,7,.63,13.97,1.76,20.96,2.43,6.38-.41,12.79-1.31,19.21-1.14,5.54-.07,11.08.76,16.59,1.07,6.65-.6,13.41-1.75,20.09-.84"/><path class="b" d="M8.23,131.89c4.94.15,9.94.14,14.85-.45,4.1-.42,8.16-1.44,12.23-2.03,6.68-.18,13.41-.01,20.09-.07,1.08.03,1.95,1.23,2.62,1.95.74.81,1.76,1.87,2.62,2.56,5.95,4.67,11.67,2.74,18.34,1.57,6.04-.96,12.23-1.29,18.34-1.07,8.14.71,16.31,1.48,24.45,2.21,6.67-.63,13.38-1.4,20.09-1.43,6.71-.11,13.43.51,20.09,1.32,7.25-.4,14.59-2.05,21.83-.67"/><path class="b" d="M8.23,130.32c5.82.16,11.71.08,17.47-.82,3.21-.44,6.41-1.33,9.61-1.84,2.58-.17,5.27-.03,7.86-.08,2.59,0,5.27,0,7.86,0,3.09-.1,3.19-.1,5.24,2.21,5.66,6.27,13.35,5.72,20.96,4.47,4.62-.59,9.32-.84,13.97-.76,7.57.23,15.14,1.13,22.71,1.3,9.58-.86,19.19-1.93,28.82-1.67,6.43,0,12.83,1,19.21,1.58,7.23-.73,14.63-2.13,21.83-.47"/><path class="b" d="M8.23,128.79c5.23.09,10.53.06,15.72-.62,3.53-.41,7.03-1.34,10.48-2.15,2.56-.38,5.28-.1,7.86-.18,3.18.05,6.44-.1,9.61.07,2.3,1.77,4.21,4.28,6.99,5.39,8.86,3.86,18.66.93,27.95,1.33,5.52-.04,11.08.57,16.59.45,8.15-.51,16.29-1.53,24.45-1.83,6.68-.24,13.42-.26,20.09.24,4.38.24,8.74,1.15,13.1,1.48,7.52-.83,15.26-2.34,22.71-.23"/><path class="b" d="M8.23,127.27c5.82.05,11.72-.01,17.47-.99,2.95-.44,5.84-1.46,8.73-2.11,2.29-.17,4.69-.03,6.99-.07,2.59,0,5.27,0,7.86,0,1.38.38,2.39,1.88,3.49,2.72,1.26,1.05,2.84,1.99,4.37,2.59,3.87,1.49,8.12,1.87,12.23,2.08,6.39.29,12.82-.16,19.21,0,9.62-.31,19.22-1.46,28.82-2.03,13.09-.63,26.34-.78,39.3,1.36,1.69.31,3.53.58,5.24.21,2.59-.3,5.27-.7,7.86-.99,4.68-.53,9.46-.1,13.97,1.24"/><path class="b" d="M8.23,125.77c5.53-.02,11.13-.1,16.59-1.02,1.73-.3,3.56-.75,5.24-1.27,1.39-.4,2.9-1.06,4.37-1.13,2.88,0,5.85,0,8.73,0,1.8.15,3.94-.53,5.24.86,1.73,1.71,3.81,3.25,6.11,4.07,4.17,1.52,8.7,1.86,13.1,2.13,6.1.35,12.25.14,18.34-.18,13.39-.75,26.75-2.35,40.18-2.2,6.39.06,12.84.1,19.21.59,4.38.32,8.77,1.12,13.1,1.84,3.49-.03,7-.97,10.48-1.29,2.87-.29,5.87-.34,8.73.12,2.04.3,4.11,1.04,6.11,1.48"/><path class="b" d="M8.23,124.27c6.12-.12,12.36-.23,18.34-1.64,2.05-.47,4.09-1.38,6.11-1.95,2.29-.16,4.69-.03,6.99-.07,1.7.05,3.55-.11,5.24.11,1.67,1.34,3.25,3.05,5.24,3.93,4.35,1.98,9.27,2.26,13.97,2.57,9.02.47,18.08-.13,27.07-.74,10.75-.81,21.53-1.56,32.31-1.4,7.27.14,14.59.14,21.83.74,4.4.28,8.74,1.48,13.1,1.95,6.07-.75,12.21-2.5,18.34-1.33,2.34.3,4.61,1.66,6.99,1.61"/><path class="b" d="M8.23,122.75c5.53-.2,11.16-.35,16.59-1.48,2.4-.46,4.68-1.63,6.99-2.38,3.46-.02,7.03-.17,10.48.07,1.57,1.48,3.19,3.2,5.24,4.02,4.95,2,10.46,2.03,15.72,2.23,8.15.05,16.32-.3,24.45-.82,11.04-.75,22.12-1.42,33.19-1.21,7.85.18,15.75.14,23.58.75,2.91.26,5.88.75,8.73,1.35,1.69.28,3.52.99,5.24.64,5.47-.87,11.02-2.44,16.59-1.56,1.44.22,3.01.7,4.37,1.21,1.33.51,2.95,1.05,4.37.63"/><path class="b" d="M8.23,121.2c5.24-.23,10.57-.39,15.72-1.45,2.46-.42,4.67-1.84,6.99-2.64,1.7,0,3.54,0,5.24,0,1.1.03,2.43-.12,3.49.19,2.63,3.41,5.4,4.74,9.61,5.32,4.03.59,8.16.69,12.23.67,2.59-.02,5.28-.13,7.86-.36,4.64-.05,9.34-.21,13.97-.46,11.63-.66,23.28-1.34,34.94-1.08,8.72.24,17.5.05,26.2.76,2.62.27,5.3.75,7.86,1.34,1.69.31,3.51,1.09,5.24.72,5.44-1.06,11.01-2.71,16.59-1.85,3.25.36,6.26,3.17,9.61,2"/><path class="b" d="M8.23,119.71c5.24-.27,10.6-.38,15.72-1.62,1.15-.31,2.46-.85,3.49-1.44.78-.44,1.7-1.19,2.62-1.29,1.4,0,2.96,0,4.37,0,.84-.01,1.9-.1,2.62.42,1.44,2.33,3.37,4.12,6.11,4.69,3.69.9,7.58.97,11.35,1.06,4.65.05,9.36-.1,13.97-.69,3.46-.18,7.01-.07,10.48-.26,11.05-.45,22.12-1.17,33.19-.98,5.81.08,11.66.2,17.47.26,4.35.08,8.76-.03,13.1.33,2.92.24,5.9.76,8.73,1.49,1.39.31,2.93.9,4.37.93.78-.12,1.86-.37,2.62-.57,3.99-.98,8.1-1.96,12.23-2.03,1.74-.01,3.63.29,5.24.98,2.39,1.16,5.19,2.71,7.86,1.54"/><path class="b" d="M8.23,118.3c4.95-.24,10.01-.36,14.85-1.49,1.17-.31,2.5-.89,3.49-1.59.76-.53,1.62-1.59,2.62-1.61,1.4,0,2.97,0,4.37,0,1.26,1.25,1.97,3.34,3.49,4.35,3.11,1.82,6.99,1.63,10.48,1.87,4.93.14,9.93.06,14.85-.34,2.01-.17,4.13-.43,6.11-.78,1.7-.13,3.54,0,5.24-.05,12.51-.2,25.04-1.11,37.56-.75,6.68.18,13.4.26,20.09.24,4.06,0,8.19-.12,12.23.34,3.25.34,6.48,1.2,9.61,2.12,2.01.7,4.14-.48,6.11-.86,3.14-.8,6.38-1.6,9.61-1.91,1.71-.16,3.61-.08,5.24.5,1.14.45,2.42,1.19,3.49,1.77.96.67,2.3,1.19,3.49,1.04.8.04,1.92-.01,2.62-.48"/><path class="b" d="M8.23,117.02c3.48-.12,7.02-.26,10.48-.63,3.54-.34,6.82-.96,8.73-4.31,1.06-.34,2.4-.24,3.49-.12,1.01,3.19,2.39,5.84,6.11,6.02,2.87.32,5.85.35,8.73.37,5.23,0,10.51-.12,15.72-.63,2.31-.23,4.72-.58,6.99-1.08,1.09-.13,2.4-.01,3.49-.02,12.8.05,25.62-.88,38.43-.38,7.26.29,14.57.31,21.83.14,4.06-.08,8.2-.2,12.23.44,2.97.39,5.85,1.52,8.73,2.25,1.75.04,3.55-.8,5.24-1.19,3.44-.95,6.94-2.01,10.48-2.48,3.8-.66,6.91,1.14,9.61,3.66.7.39,1.84.35,2.62.34.79.06,1.9-.09,2.62-.47"/><path class="b" d="M8.23,115.88c4.93-.15,9.95-.02,14.85-.7,3.7-.67,2.25-3.06,4.37-4.8.3,1.35,1.1,4.26,1.75,5.46,1.92,1.55,4.69,1.08,6.99,1.14,2.59-.03,5.27-.06,7.86-.11,7.87-.21,15.86-.28,23.58-1.99,1.37-.46,2.95-.28,4.37-.24,1.7.04,3.54.06,5.24.05,5.23-.04,10.5-.19,15.72-.25,11.94-.33,23.88.92,35.81.32,4.93-.11,9.95-.58,14.85.19,1.73.27,3.58.74,5.24,1.31,1.64.53,3.51,1.5,5.24.84,3.79-1.1,7.58-2.41,11.35-3.53,3.05-.86,6.66-1.93,9.61-.28,1.19,1.86,2.72,4.47,5.24,4.38,1.1.01,2.45.06,3.49-.36"/><path class="b" d="M8.23,114.9c3.18.04,6.44.09,9.61.35,2.6.25,5.23.84,7.86.66,3.77.08,7.59-.13,11.35-.33,4.35-.19,8.75-.31,13.1-.52,4.36-.22,8.78-.5,13.1-1.19,2.02-.33,4.15-.79,6.11-1.36,1.4.1,2.96.17,4.37.21,8.43.19,16.89-.16,25.33-.02,6.69.01,13.4.62,20.09.67,7.27.16,14.57-1.07,21.83-.55,3.33.19,6.48,1.5,9.61,2.51,1.08.47,2.44.1,3.49-.29,1.09-.36,2.41-.81,3.49-1.21,4.67-1.59,9.16-3.9,13.97-5.05,1.5.58,2.47,2.37,3.49,3.53,2.49,3.24,4.67,4.23,8.73,3.35"/><path class="b" d="M8.23,113.93c15.71.58,31.48.24,47.16-.91,3.2-.27,6.46-.64,9.61-1.29,2.02-.27,4.06-1.39,6.11-1.14,9,.57,18.06.14,27.07.38,7.28.05,14.56.88,21.83.8,6.98.05,13.98-1.48,20.96-.79,1.74.21,3.6.65,5.24,1.28,1.65.58,3.46,1.57,5.24,1.52,2.05-.6,4.15-1.45,6.11-2.28,3.57-1.38,6.86-3.62,10.48-4.83,5.86-.56,6.94,9.11,15.72,7.29"/><path class="b" d="M8.23,112.2c6.1.23,12.24.25,18.34.22,3.47-.16,7.01-.3,10.48-.27,7.86.05,15.78-.49,23.58-1.45,2.02-.28,4.14-.67,6.11-1.16,1.42-.24,2.92-1.1,4.37-.97,8.7.76,17.48.37,26.2.68,7.28.1,14.55,1.01,21.83.94,5.84.03,11.64-1.15,17.47-1.3,2.32-.05,4.76.19,6.99.88,2.02.69,4.07,1.66,6.11,2.29,1.81,0,3.59-1.1,5.24-1.75,2.05-.95,4.17-2.09,6.11-3.25,1.36-.76,2.82-1.86,4.37-2.18,7.46-.51,9.05,8.03,18.34,7.41"/><path class="b" d="M8.23,109.48c2-.09,4.14-.17,6.11-.53.81-.14,1.81-.68,2.62-.82,1.95,1,4,1.11,6.11,1.31,3.75.41,7.59.43,11.35.58,4.94.14,9.92.5,14.85.01,5.84-.41,11.76-.89,17.47-2.28,1.42-.35,2.98-.81,4.37-1.27,2.58.34,5.26.49,7.86.58,5.52.18,11.08.21,16.59.4,8.73.13,17.46,1.51,26.2.99,6.67-.3,13.46-2.62,20.09-.92,2.37.71,4.66,1.95,6.99,2.79,1.51,0,3.02-.94,4.37-1.54,3.03-1.49,5.83-3.58,8.73-5.29,1.6-.72,3.61-.29,5.24.16,2.84.87,5.31,2.73,7.86,4.17,2.66,1.48,5.7,2.4,8.73,2.63"/><path class="b" d="M8.23,105.8c2.68-.58,4.5-2.28,6.11-4.38,1.58-.18,2.99,1.08,4.37,1.68.82.39,1.97.82,2.62,1.49.98.84,2.27,1.55,3.49,1.93,3.94,1.18,8.15,1.28,12.23,1.58,3.47.12,7.01.59,10.48.35,5.54-.38,11.14-.82,16.59-1.87,2.63-.51,5.31-1.24,7.86-2.07,1.4.19,2.96.37,4.37.47,7.55.5,15.15.48,22.71.92,6.4.29,12.8,1.17,19.21,1.06,7.04.11,13.92-2.8,20.96-1.83,3.11.49,5.87,2.31,8.73,3.5,1.54-.06,3.04-1.08,4.37-1.79,2.71-1.54,5.14-3.74,7.86-5.25,1.99-.37,4.18.24,6.11.75,2.71.78,5.29,2.17,7.86,3.3,3.03,1.37,6.3,2.42,9.61,2.79"/><path class="b" d="M8.23,101.13c.79-.47,1.74-1.22,2.62-1.5.79,0,1.83,0,2.62,0,1.7.05,3.56-.14,5.24.14.97.34,1.84,1.45,2.62,2.07,1.27,1.01,2.84,1.89,4.37,2.42,5.61,1.8,11.64,1.82,17.47,2.29,3.77.41,7.6-.06,11.35-.41,6.2-.57,12.4-1.65,18.34-3.56,11.31,1.12,22.74,1.1,34.06,2.17,6.09.58,12.31,1.1,18.34-.3,4.82-1.02,9.97-2.54,14.85-1.01,2.44.84,4.67,2.4,6.99,3.5,1.59-.16,3.07-1.28,4.37-2.13,2.06-1.44,4.02-3.25,6.11-4.65,1.03-.57,2.39-.17,3.49-.08,2.04.27,4.15.81,6.11,1.41,5.47,1.76,10.84,4.17,16.59,4.88"/><path class="b" d="M8.23,97.88c2.3,0,4.69,0,6.99,0,1.1,0,2.39,0,3.49,0,.5.18,1.35.72,1.75,1.06,2.06,1.59,4.47,2.92,6.99,3.63,4.53,1.29,9.31,1.59,13.97,1.99,2,.15,4.11.32,6.11.43,2.89-.21,5.86-.47,8.73-.8,6.21-.63,12.35-1.96,18.34-3.68,5.77.87,11.65,1.01,17.47,1.39,6.99.4,14,1.07,20.96,1.79,3.48.21,7.07.14,10.48-.63,3.97-1.2,8-2.71,12.23-2.5,4.03,0,7.16,2.85,10.48,4.69,3.9-1.06,6.27-4.95,9.61-7,9.6.43,18.48,4.84,27.95,6.09"/><path class="b" d="M8.23,96.14c3.47,0,7.01,0,10.48,0,1.55.45,2.94,1.67,4.37,2.41,1.88,1.07,4.02,1.9,6.11,2.43,5.99,1.44,12.22,1.73,18.34,2.26,7.02-.41,14.08-1.3,20.96-2.8,2.6-.57,5.26-1.3,7.86-1.83,3.46.49,7,.81,10.48,1.06,5.52.38,11.08.87,16.59,1.36,3.75.53,7.56,1.14,11.35,1.18,3.51.05,7.14-.22,10.48-1.37,1.8-.52,3.37-2,5.24-2.29,4.13-.95,8.06-.33,11.35,2.48,1.07.84,2.22,2.07,3.49,2.61,2.58-.8,4.27-3.35,6.11-5.18.95-1.02,1.95-2.14,3.49-1.8,9.76.96,19.1,4.48,28.82,5.74"/><path class="b" d="M8.23,94.39c3.47,0,7.01,0,10.48,0,1.87.36,3.53,1.75,5.24,2.53,1.9.98,4.04,1.75,6.11,2.26,6,1.37,12.21,1.87,18.34,2.29,8.22-.68,16.42-1.84,24.45-3.72,1.98-.39,4.08-.96,6.11-1,2.87.43,5.84.71,8.73.98,4.06.38,8.18.7,12.23,1.19,5.46.92,11.04,1.77,16.59,1.6,3.89-.14,7.93-.78,11.35-2.73,1.12-.62,2.41-1.48,3.49-2.17,1.98-.46,4.26-.25,6.11.58,1.67.75,3.18,2.17,4.37,3.55.64.76,1.59,1.95,2.62,2.16,3.27-1.15,4.15-5.46,6.99-7.19,4.13.02,8.2,1.17,12.23,1.95,6.67,1.3,13.33,2.94,20.09,3.77"/><path class="b" d="M8.23,92.64c3.47,0,7.01,0,10.48,0,1.88.14,3.57,1.47,5.24,2.23,2.18,1.12,4.6,1.99,6.99,2.56,5.72,1.3,11.63,1.84,17.47,2.3,9.1-.75,18.12-2.35,27.07-4.12,1.98-.33,4.1-.56,6.11-.61,2,.18,4.11.51,6.11.71,9.9.86,19.68,3.75,29.69,3.05,12.69-.55,14.97-9.21,20.96-4.54,1.81,1.55,2.77,4.13,4.37,5.86,3.03.87,4.14-5.54,6.11-7.24,4.42-.46,8.79,1.2,13.1,1.96,7.24,1.4,14.51,2.87,21.83,3.73"/><path class="b" d="M8.23,90.9c2.59,0,5.27,0,7.86,0,1.4.06,3.02-.19,4.37.27,2.62,1.09,5.14,2.66,7.86,3.53,4.21,1.43,8.7,2.04,13.1,2.58,2.29.25,4.68.59,6.99.69,1.4-.14,2.97-.31,4.37-.47,5.25-.61,10.52-1.38,15.72-2.32,6.6-1.32,13.39-2.32,20.09-1.18,6.08,1.02,12.18,2.24,18.34,2.74,5.22.52,10.61.65,15.72-.67,2.41-.61,4.79-1.68,6.99-2.83,2.6-1.35,5.8-2.73,8.73-1.76,1.58,1.9,1.73,5.25,3.49,6.96.48.08,1.33-.11,1.75-.35.97-2,1.65-5.06,2.62-7.06,1.98-.24,4.13-.18,6.11,0,3.21.56,6.4,1.59,9.61,2.2,7.22,1.38,14.52,2.61,21.83,3.39"/><path class="b" d="M8.23,89.15c2.59,0,5.27,0,7.86,0,2.04.02,4.26-.24,6.11.8,2.53,1.24,5.14,2.56,7.86,3.35,5.95,1.67,12.19,2.48,18.34,2.92,4.65-.5,9.35-1.14,13.97-1.84,6.66-.93,13.32-2.63,20.09-2.41,4.4.1,8.76,1.08,13.1,1.74,6.06.9,12.21,1.67,18.34,1.63,3.84-.08,7.74-.7,11.35-2.03,3.83-1.18,8.24-4.61,12.23-2.39,1.37,1.17,2.03,3.69,2.62,5.31.43.32,1.21.58,1.75.47l.87-.6.87-6.92c2.88.03,5.86-.12,8.73.08,3.21.66,6.38,1.81,9.61,2.4,7.21,1.35,14.53,2.41,21.83,3.08"/><path class="b" d="M8.23,87.4c4.06.02,8.17-.04,12.23.03,1.83.34,3.56,1.41,5.24,2.17,4.64,2.23,9.78,3.25,14.85,4,2.29.34,4.69.65,6.99.89,2.01-.13,4.12-.47,6.11-.72,4.94-.66,9.92-1.42,14.85-2.2,4.32-.67,8.72-1.36,13.1-1.22,4.4.08,8.76,1.02,13.1,1.62,5.48.8,11.05,1.35,16.59,1.53,5.04.12,10.12-.72,14.85-2.46,3.26-1.04,7.41-3.25,10.48-.71,1.08,1.11,1.91,3.08,2.62,4.44.43.13,1.3.22,1.75.18.98-1.13,1.52-6.1,1.75-7.54,3.18.04,6.44-.1,9.61.07,2.91.67,5.79,1.82,8.73,2.38,7.48,1.47,15.11,2.36,22.71,2.96"/><path class="b" d="M8.23,85.65c2.88,0,5.85,0,8.73,0,2.01.06,4.24-.29,6.11.64,2.28,1.04,4.6,2.26,6.99,3.07,3.1,1.07,6.38,1.76,9.61,2.32,3.13.39,6.47,1.38,9.61.86,5.53-.74,11.08-1.59,16.59-2.41,4.62-.66,9.3-1.45,13.97-1.44,4.39-.03,8.77.81,13.1,1.39,5.2.74,10.47,1.24,15.72,1.45,3.78.22,7.65,0,11.35-.79,3.23-.63,6.39-1.87,9.61-2.53,5.06-.98,6.16,1.19,8.73,4.95.45.07,1.31,0,1.75-.13,1.23-2.16,1.61-5.48,3.49-7.21,1.08-.25,2.4-.12,3.49-.15,1.7.03,3.54-.07,5.24.07,2.9.76,5.77,1.97,8.73,2.52,7.47,1.46,15.12,2.15,22.71,2.67"/><path class="b" d="M8.23,83.91c2.88,0,5.85,0,8.73,0,1.99.1,4.19-.29,6.11.36,2.89,1.21,5.72,2.81,8.73,3.71,4.81,1.52,9.86,2.36,14.85,3.01,10.49-1.11,20.88-3.57,31.44-4,4.08-.12,8.19.51,12.23,1.02,4.91.65,9.89,1.2,14.85,1.43,2.88.12,5.85.3,8.73.09,3.53-.24,7.06-1.02,10.48-1.91,3.09-.73,6.76-1.8,9.61.15,1.33.93,2.18,2.76,3.49,3.68h.87c2.41-1.88,3.03-5.83,6.11-7.01,2.5-.76,5.28-.46,7.86-.43,2.6.77,5.19,1.91,7.86,2.45,7.74,1.6,15.7,2.1,23.58,2.58"/><path class="b" d="M8.23,82.16c4.64,0,9.33,0,13.97,0,3.1.48,5.77,2.6,8.73,3.55,4.2,1.58,8.68,2.52,13.1,3.24,1.71.41,3.53.29,5.24-.08,2-.32,4.11-.67,6.11-.99,6.37-.99,12.79-2,19.21-2.51,8.77-.67,17.46,1.47,26.2,1.86,6.1.31,12.31.73,18.34-.52,4.52-.67,9.83-3.04,13.97-.07,1.2.84,2.04,2.64,3.49,3.06,1.06-.19,1.96-1.35,2.62-2.12,1.19-1.44,2.62-3.03,4.37-3.8,3.3-1.31,7.02-.86,10.48-.76,1.98.65,4.06,1.44,6.11,1.84,7.75,1.55,15.71,1.88,23.58,2.3"/><path class="b" d="M8.23,80.41c4.64,0,9.33,0,13.97,0,1.52-.14,3.05.58,4.37,1.25,1.39.7,2.93,1.47,4.37,2.06,3.63,1.5,7.51,2.51,11.35,3.26,1.09.21,2.39.43,3.49.59,2.61-.33,5.27-.89,7.86-1.32,4.91-.85,9.89-1.59,14.85-2.16,3.46-.38,7-.72,10.48-.65,5.83.19,11.65,1.06,17.47,1.48,6.37.33,12.85.86,19.21.16,4.89-.41,10.06-2.6,14.85-.71,1.69.71,2.9,2.4,4.37,3.42l.87.02c1.6-.86,2.91-2.45,4.37-3.51,1.25-.93,2.84-1.65,4.37-1.95,3.72-.67,7.6-.34,11.35-.26,1.94.7,4.08,1.2,6.11,1.54,7.21,1.12,14.55,1.39,21.83,1.7"/><path class="b" d="M8.23,78.66c3.47,0,7.01,0,10.48,0,2,.07,4.14-.17,6.11.15,2.1.71,4.09,2.01,6.11,2.89,2.78,1.28,5.77,2.27,8.73,3.02,1.97.41,4.08,1.12,6.11,1.04,3.48-.62,7-1.38,10.48-1.96,8.35-1.31,16.85-2.63,25.33-2.13,4.65.22,9.33.77,13.97,1.03,5.51.28,11.08.45,16.59.39,2.6-.11,5.28-.49,7.86-.84,2.87-.38,5.97-.72,8.73.36,2,.68,3.28,2.77,5.24,3.49,1.58-.57,2.97-1.9,4.37-2.8,1.28-.86,2.86-1.57,4.37-1.9,3.13-.68,6.43-.54,9.61-.52,1.4.02,2.97.04,4.37.04,1.4.32,2.95.73,4.37.95,7.5,1.17,15.14,1.32,22.71,1.58"/><path class="b" d="M8.23,76.92c3.76,0,7.59,0,11.35,0,2.28.15,4.83-.42,6.99.48,3.41,1.73,6.81,3.7,10.48,4.86,2.53.78,5.2,1.7,7.86,1.83,4.93-.99,9.87-2.19,14.85-2.9,5.77-.84,11.63-1.51,17.47-1.62,6.11-.05,12.24.54,18.34.77,5.52.15,11.08.36,16.59.38,4.92,0,10.07-1.56,14.85.12,1.85.85,3.4,2.51,5.24,3.38,1.94-.16,3.51-1.85,5.24-2.63,4.54-2.4,9.89-1.84,14.85-1.91,1.7,0,3.54,0,5.24-.03,2.27.53,4.67.88,6.99,1.1,6.37.61,12.82.76,19.21.89"/><path class="b" d="M8.23,75.22c5.52.21,11.08-.13,16.59-.05,2.94-.11,5.3,2.3,7.86,3.43,2.48,1.29,5.17,2.38,7.86,3.13,1.09.28,2.37.64,3.49.69.79-.15,1.84-.4,2.62-.59,10.24-2.75,20.85-4.06,31.44-4.39,5.52-.16,11.08.13,16.59.22,6.11.02,12.24.51,18.34.61,3.75.03,7.72-.69,11.35.51,1.79.85,3.55,2.09,5.24,3.11.36.28,1.28.58,1.75.55.44-.17,1.33-.58,1.75-.82,1.36-.75,2.9-1.58,4.37-2.1,3.62-1.26,7.58-1.13,11.35-1.13,3.18.08,6.44-.12,9.61-.03,8.34,1.44,16.89,1.34,25.33,1.49"/><path class="b" d="M8.23,73.88c4.06.26,8.18.04,12.23-.22,1.7-.1,3.54-.23,5.24-.24,1.22-.14,2.5.45,3.49,1.09,4.27,2.75,8.84,5.58,13.97,6.25,1.73-.35,3.55-.93,5.24-1.41,8.5-2.52,17.4-3.34,26.2-4.01,10.74-.85,21.58-1.02,32.32-.04,2.58.25,5.26.5,7.86.53,2.67.01,5.45.14,7.86,1.42,2.38.94,4.49,2.85,6.99,3.45,2.05-.74,4.03-1.97,6.11-2.63,4.77-1.53,9.91-1.01,14.85-1.06,2.59.02,5.27-.1,7.86-.15,2.28.38,4.68.6,6.99.76,6.09.39,12.24.43,18.34.41"/><path class="b" d="M8.23,72.66c4.35.26,8.76-.03,13.1-.35,2.29-.11,4.69-.53,6.99-.39.84.38,1.87,1.08,2.62,1.61,3.43,2.4,7.14,4.93,11.35,5.56,2.37-.45,4.69-1.46,6.99-2.15,6.49-2.08,13.34-2.79,20.09-3.5,5.23-.52,10.47-1.34,15.72-1.56,10.79-.41,21.82-.26,32.32,2.57,2.08.62,4.2,1.54,6.11,2.55,1.37.67,2.84,1.67,4.37,1.94,2.04-.69,4.05-1.79,6.11-2.41,4.79-1.45,9.91-.98,14.85-.97,3.18.06,6.43-.09,9.61-.18,1.69.24,3.53.41,5.24.53,6.67.43,13.4.42,20.09.32"/><path class="b" d="M8.23,71.39c6.99.35,13.98-.62,20.96-.79.57,0,1.34.46,1.75.82,1.1.84,2.37,1.87,3.49,2.67,2.03,1.31,5.36,3.73,7.86,3.06,4.35-1.39,8.58-3.39,13.1-4.22,4.31-.9,8.74-1.36,13.1-1.9,2.89-.33,5.83-.91,8.73-1.08,7.56-.06,15.15,0,22.71-.02,3.53.05,7.01,1.16,10.48,1.72,4.93.81,9.53,2.86,13.97,5.04.39.21,1.3.45,1.75.45.43-.14,1.33-.46,1.75-.64,1.08-.44,2.38-.97,3.49-1.33,2.78-.92,5.81-1.2,8.73-1.23,5.81.03,11.66.3,17.47-.07,8.7.81,17.47.82,26.2.56"/><path class="b" d="M8.23,70.04c6.11.23,12.24-.42,18.34-.54,2.03.1,4.64-.33,6.11,1.39,1.83,1.63,3.83,3.34,6.11,4.3,1.15.57,2.37.42,3.49-.11,3.42-1.49,6.86-3.13,10.48-4.1,3.69-1.02,7.56-1.52,11.35-2.02,2.29-.28,4.68-.65,6.99-.78,2.88-.02,5.85,0,8.73,0,6.39,0,12.82,0,19.21,0,2.35.08,4.71.81,6.99,1.35,2.29.59,4.72,1.03,6.99,1.71,3.62.99,6.95,2.91,10.48,4.14,2.39-.24,4.63-1.69,6.99-2.17,3.39-.88,7-.94,10.48-.86,5.52.19,11.08.29,16.59-.02,8.69.83,17.49.63,26.2.31"/><path class="b" d="M8.23,68.57c4.94.13,9.91-.2,14.85-.33,3.2-.04,6.62-.1,9.61,1.23.93.46,1.84,1.56,2.62,2.22,3.76,3.25,4.83,2.35,8.73.12,11.07-6.54,24.34-5.29,36.68-5.38,6.1.07,12.25-.15,18.34.09,4.42.89,8.74,2.46,13.1,3.58,3.26.98,6.34,2.68,9.61,3.61,2.62-.72,5.18-1.94,7.86-2.44,5.46-1.07,11.08-.45,16.59-.35,3.76.18,7.6-.14,11.35-.06,8.7.66,17.49.44,26.2,0"/><path class="b" d="M8.23,67c4.35.1,8.75-.13,13.1-.19,4.14-.04,8.68,0,12.23,2.41,1.66,1,3.1,3.16,5.24,2.95,2.24-.77,4.07-2.61,6.11-3.76,4.16-2.55,9.12-3.71,13.97-3.72,12.22,0,24.46,0,36.68,0,3.98-.23,7.65,1.8,11.35,2.95,2.29.77,4.74,1.39,6.99,2.29,1.98.66,4,1.84,6.11,1.96,2.6-.75,5.19-1.89,7.86-2.38,3.72-.71,7.59-.62,11.35-.46,5.22.25,10.49.43,15.72.23,9.58.53,19.24.51,28.82-.15"/><path class="b" d="M8.23,65.36c4.35.08,8.75-.13,13.1-.09,12.45-.15,12.27,5.37,16.59,5.16,2.01-.86,3.5-2.84,5.24-4.11,3.69-3.02,7.61-3.61,12.23-3.38,12.8,0,25.63,0,38.43,0,1.1.02,2.41-.06,3.49.09,2.72.58,5.29,1.95,7.86,2.97,1.95.83,4.09,1.53,6.11,2.17,1.99.67,4.06,1.52,6.11,2.02,2.96-.5,5.76-2.01,8.73-2.48,3.43-.66,7.01-.59,10.48-.45,5.8.3,11.65.62,17.47.43,9.87.61,19.83.43,29.69-.3"/><path class="b" d="M8.23,63.67c3.76.06,7.59-.07,11.35-.02,3.22.05,6.59.24,9.61,1.45,1.51.6,3.04,1.57,4.37,2.48.99.69,2.26,1.42,3.49,1,1.45-.64,2.52-2.24,3.49-3.42,1.2-1.35,2.68-2.77,4.37-3.47,2.47-.9,5.28-.35,7.86-.5,13.39,0,26.79,0,40.18,0,1.09,0,2.4-.03,3.49.05,2.79.54,5.31,2.2,7.86,3.38,3.59,1.69,7.46,3.09,11.35,3.87,2.63-.65,5.21-1.81,7.86-2.4,3.98-.95,8.17-.79,12.23-.58,5.8.35,11.65.71,17.47.58,10.16.76,20.42.37,30.57-.42"/><path class="b" d="M8.23,61.92c6.38.21,13.05-.68,19.21,1.36,1.5.54,3.04,1.41,4.37,2.27,1.26.82,2.84,1.91,4.37,1.14,2.97-1.64,4.03-5.59,6.99-7.19,2.29-.13,4.69-.03,6.99-.06,13.97.12,27.96-.29,41.92.24,2.3.2,4.76.3,6.99.94,4.62,2.59,9.42,5.74,14.85,6.07,2.63-.66,5.21-1.83,7.86-2.44,4.26-1.07,8.75-.83,13.1-.55,6.09.52,12.24.65,18.34.84,4.63.43,9.33.36,13.97.27,5.52-.12,11.1-.32,16.59-.87"/><path class="b" d="M8.23,60.13c4.64.07,9.36-.16,13.97.48,10.52,1.3,9.87,10.04,17.47-.65.69-.8,1.59-1.86,2.62-2.21,1.7-.1,3.54-.03,5.24-.05,8.14,0,16.31,0,24.45,0,5.51.43,11.08.4,16.59.8,4.43.39,8.96,1.05,13.1,2.73,2.33,1,4.5,2.6,6.99,3.24,1.38.4,2.97.83,4.37.26,8.5-3.1,11.84-3.67,20.96-2.84,7.55.69,15.15.82,22.71,1.34,9.02.18,18.1-.11,27.07-.98"/><path class="b" d="M8.23,58.28c4.35.05,8.79-.11,13.1.6,9.32,1.3,9.8,9.7,16.59-.08,2.72-3.79,3.75-2.71,7.86-2.85,7.56.04,15.15-.07,22.71.04,6.32,1.34,12.82.8,19.21,1.41,4.43.45,8.93,1.24,13.1,2.84,2.88,1.03,5.68,2.65,8.73,3.11,1.46-.13,3-.72,4.37-1.21,7.33-3.12,13.25-2.78,20.96-1.97,4.34.38,8.74.73,13.1.84,2.88.29,5.84.54,8.73.61,9.02.13,18.1-.17,27.07-1.09"/><path class="b" d="M8.23,56.38c4.94.09,10.11-.19,14.85,1.46,1.5.55,3.05,1.45,4.37,2.35,1.47,1.11,3.44,2.15,5.24,1.18,2.56-1.71,3.68-5.05,6.11-6.9.77-.35,1.81-.28,2.62-.27,1.1,0,2.39,0,3.49,0,5.23,0,10.5,0,15.72,0,1.7.04,3.55-.1,5.24.1,1.71.35,3.51.89,5.24,1.13,2.86.45,5.85.34,8.73.37,3.48.02,7.04.23,10.48.77,2.93.46,5.92,1.07,8.73,2.01,2.9.93,5.75,2.29,8.73,2.94,3.36-.01,6.39-2.11,9.61-2.88,5.68-1.71,11.68-.84,17.47-.27,3.76.37,7.58.68,11.35.84,3.16.45,6.42.64,9.61.74,9.31.17,18.69-.17,27.95-1.15"/><path class="b" d="M8.23,54.41c7.86.08,12.8-.16,19.21,5.04,5.28,2.8,6.4-4.5,9.61-6.87,8.41-.32,16.9-.01,25.33-.12,1.46-.05,2.98.57,4.37.94,1.96.56,4.08.89,6.11,1,4.05.17,8.18-.13,12.23.23,6.28.44,12.46,1.94,18.34,4.15,1.08.36,2.38.75,3.49.97,2.73-.12,5.38-1.37,7.86-2.41,2.72-1.15,5.79-1.61,8.73-1.68,4.37-.07,8.75.7,13.1,1.07,5.53.38,11.06,1.23,16.59,1.47,10.18.35,20.44-.03,30.57-1.12"/><path class="b" d="M8.23,52.4c4.7.09,9.84-.06,13.97,2.52,2,1.1,3.59,3.65,6.11,3.32,3.81.36,4.11-6.37,6.99-7.54,2.3,0,4.69,0,6.99,0,6.39,0,12.82,0,19.21,0,1.46.18,2.96.87,4.37,1.26,1.66.49,3.51.81,5.24.94,4.34.31,8.76-.16,13.1.2,6.25.41,12.44,1.78,18.34,3.86,1.38.4,2.92.98,4.37,1.01.78-.15,1.85-.42,2.62-.63,4.65-1.21,9.04-3.93,13.97-3.69,4.38.02,8.75.84,13.1,1.23,4.66.34,9.3,1.32,13.97,1.52,11.05.55,22.19.15,33.19-1.04"/><path class="b" d="M8.23,50.44c16.76-.23,12.64,7.26,20.09,5.94,2.21-1.75,2.62-5.21,4.37-7.33,9-.26,18.06-.01,27.07-.09,1.49.06,2.97.86,4.37,1.31,1.94.66,4.07,1.06,6.11,1.22,4.34.33,8.75-.19,13.1.12,6.22.37,12.41,1.57,18.34,3.5,1.39.42,2.94.86,4.37,1.12,2.05-.23,4.14-.91,6.11-1.48,3.96-1.28,8.04-2.58,12.23-2.81,2.61-.26,5.28.14,7.86.51,5.25.55,10.44,1.8,15.72,2.11,11.92.76,23.94.37,35.81-.92"/><path class="b" d="M8.23,48.54c3.55.11,7.4.3,10.48,2.28,1.57.99,2.9,2.6,4.37,3.71,1.06.37,2.39.2,3.49.22,2.52-1.53,2.26-5.66,4.37-7.53,9.31.02,18.64-.04,27.95.02,1.47.29,2.95,1.1,4.37,1.57,1.93.68,4.07,1.06,6.11,1.22,4.05.33,8.17-.12,12.23.03,5.88.23,11.79,1.1,17.47,2.66,2.28.62,4.65,1.35,6.99,1.76,5.86-1.03,11.49-3.4,17.47-3.79,7.93-.71,15.71,1.64,23.58,2.11,12.21.78,24.52.42,36.68-.89"/><path class="b" d="M8.23,46.71c6.55.29,8.61,1.45,13.1,6.02.74.35,1.82.28,2.62.28.5.1,1.34-.14,1.75-.44,1.13-1.77,1.88-4.65,2.62-6.6.96-.78,2.35-.43,3.49-.49,2,0,4.11,0,6.11,0,6.1,0,12.24,0,18.34,0,1.52-.16,3.03.51,4.37,1.14,1.36.6,2.92,1.12,4.37,1.43,5.45,1.14,11.08.32,16.59.52,5.57.23,11.17.99,16.59,2.28,2.59.62,5.24,1.4,7.86,1.85,2.33-.33,4.71-.97,6.99-1.52,13.22-3.67,20.32-1.29,33.19-.17,12.5.8,25.1.46,37.56-.86"/><path class="b" d="M8.23,44.96c5.57.4,7.67,2.08,11.35,5.97.73.41,1.82.33,2.62.32.47.07,1.33-.1,1.75-.33,1.18-1.89,1.83-4.99,2.62-7.05,3.43-.4,7.02-.05,10.48-.16,6.1,0,12.24,0,18.34,0,1.19-.12,2.46.38,3.49.9,1.36.65,2.91,1.28,4.37,1.65,4.26,1.06,8.75.9,13.1.76,6.72-.25,13.49.5,20.09,1.74,2.01.4,4.12.91,6.11,1.38,1.39.26,2.94.81,4.37.69,2.01-.36,4.12-.83,6.11-1.28,5.13-1.22,10.44-1.99,15.72-1.82,5.83.14,11.65,1.16,17.47,1.5,12.5.73,25.1.4,37.56-.87"/><path class="b" d="M8.23,43.34c4.5.53,6.68,2.68,9.61,5.81.42.24,1.27.44,1.75.36.8,0,1.88.08,2.62-.29,1.18-1.94,1.75-5.15,2.62-7.24,9.89-.03,19.8,0,29.69-.01,1.19-.12,2.46.46,3.49.99,1.35.67,2.91,1.31,4.37,1.69,3.39.88,6.99.94,10.48.9,7.59-.38,15.22.11,22.71,1.37,3.49.58,6.99,1.48,10.48,2.1,1.71.26,3.55-.47,5.24-.71,5.44-1.2,11-2.16,16.59-2.12,6.42-.01,12.81.99,19.21,1.29,12.22.6,24.51.24,36.68-.9"/><path class="b" d="M8.23,41.88c3.29.64,5.67,3.16,7.86,5.5.42.26,1.26.47,1.75.38.8,0,1.89.09,2.62-.32,1.15-1.95,1.67-5.17,2.62-7.21,10.47-.03,20.97,0,31.44,0,2.12.45,4.02,1.89,6.11,2.47,2.79.9,5.82,1.16,8.73,1.23,3.76.11,7.59-.18,11.35-.08,4.07.1,8.18.54,12.23,1.02,3.2.39,6.45.99,9.61,1.63,2.28.41,4.68,1.19,6.99.53,6.04-1.18,12.16-2.39,18.34-2.4,6.7-.08,13.4.82,20.09,1.07,11.93.5,23.91.07,35.81-.89"/><path class="b" d="M8.23,40.79c1.21.54,2.51,1.44,3.49,2.33,1.07.93,2.13,2.37,3.49,2.89.78,0,1.84,0,2.62,0,2.53-1.36,2.75-5.24,4.37-7.42,3.74-.3,7.59-.03,11.35-.12,6.68,0,13.4,0,20.09,0,2.14.34,4.04,1.84,6.11,2.44,2.5.85,5.23,1.18,7.86,1.31,4.06.22,8.17-.06,12.23-.01,3.78.05,7.6.4,11.35.79,3.79.37,7.62.94,11.35,1.65,2.28.3,4.68,1.22,6.99.75,6.06-1.09,12.16-2.29,18.34-2.37,6.69-.17,13.4.58,20.09.81,11.93.48,23.9-.03,35.81-.79"/><path class="b" d="M8.23,40.54c1.81,1.04,3.33,2.81,5.24,3.67.78.08,1.85.09,2.62-.04,2.62-1.46,3.36-4.99,5.24-7.15,1.33-.54,2.96-.2,4.37-.29,2.3,0,4.69,0,6.99,0,6.68,0,13.4,0,20.09,0,2.17.1,4.07,1.69,6.11,2.31,2.77,1,5.8,1.36,8.73,1.49,4.06.21,8.17-.04,12.23.03,4.07.08,8.18.46,12.23.85,3.78.35,7.61.89,11.35,1.55,2.28.28,4.68,1.15,6.99.69,5.77-1.01,11.6-2.06,17.47-2.23,6.98-.26,13.99.4,20.96.58,11.64.39,23.31-.16,34.94-.66"/><path class="b" d="M8.23,40.26c6.08,4.92,7.76.98,11.35-3.86.32-.54,1.19-1.18,1.75-1.41,1.41-.02,2.96,0,4.37-.01,6.68,0,13.4,0,20.09,0,2.3,0,4.69,0,6.99,0,1.83.28,3.51,1.46,5.24,2.06,2.21.85,4.64,1.32,6.99,1.55,5.21.52,10.5.14,15.72.31,7.29.34,14.61.98,21.83,2.06,1.7.26,3.54.57,5.24.84,1.09.2,2.4.36,3.49.1,6.06-1.03,12.18-2.04,18.34-2.19,8.44-.22,16.89.49,25.33.48,9.6.08,19.22-.38,28.82-.54"/><path class="b" d="M8.23,39.76c4.48,3.25,7.68-2.28,10.48-5.07.92-.98,2.13-1.63,3.49-1.45,1.41,0,2.96,0,4.37,0,4.93,0,9.91-.01,14.85,0,2.59.08,5.26.37,7.86.36,1.41.03,2.96-.17,4.37-.16,2.29.89,4.57,2.08,6.99,2.61,6.57,1.51,13.41.87,20.09,1.14,8.75.47,17.54,1.2,26.2,2.58,1.4.18,2.95.56,4.37.51,2-.28,4.11-.65,6.11-.96,4.32-.68,8.73-1.15,13.1-1.32,8.43-.28,16.89.27,25.33.23,9.31.05,18.64-.34,27.95-.22"/><path class="b" d="M8.23,38.82c4.33,1.1,7.73-5.3,11.35-6.97.74-.36,1.82-.39,2.62-.36,1.4,0,2.97,0,4.37,0,3.76,0,7.59-.02,11.35.01,5.5.44,11.1,1.66,16.59.44,7.61,3.71,16.21,3.3,24.45,3.44,8.74.43,17.52,1.13,26.2,2.26,2.3.26,4.68.82,6.99.89,1.1-.15,2.4-.35,3.49-.52,5.19-.83,10.46-1.51,15.72-1.73,8.14-.34,16.31.01,24.45,0,9.31.04,18.65-.22,27.95.19"/><path class="b" d="M8.23,37.16c4.34-1.34,7.08-5.69,11.35-7.18,1.08-.33,2.39-.22,3.49-.24,2,0,4.11,0,6.11,0,3.79-.06,7.64-.07,11.35.78,4.88.86,10.02,1.29,14.85-.06,1.46.2,2.94,1.01,4.37,1.35,2.53.73,5.24,1.11,7.86,1.33,4.63.41,9.34.26,13.97.58,10.2.77,20.45,1.49,30.57,3.02,2.01.06,4.12-.5,6.11-.72,2.88-.42,5.84-.81,8.73-1.09,6.37-.62,12.82-.66,19.21-.65,12.51.11,25.07-.2,37.56.71"/><path class="b" d="M8.23,34.73c3.82-2.06,7.05-5.45,11.35-6.53,1.97-.37,4.12-.13,6.11-.2,2.59.03,5.27-.06,7.86.05,3.5.45,6.96,1.5,10.48,1.83,2.58.28,5.28.33,7.86,0,1.75-.16,3.52-.87,5.24-1.14,3.91,1.45,8.08,2.24,12.23,2.56,3.17.29,6.43.31,9.61.48,4.36.26,8.75.71,13.1,1.08,4.35.36,8.76.65,13.1,1.16,2.89.27,5.84.89,8.73,1.03,5.51-.72,11.05-1.61,16.59-2.03,6.96-.55,13.98-.62,20.96-.64,10.77,0,21.59.13,32.32,1.28"/><path class="b" d="M8.23,32.01c10.07-6.73,11.17-5.75,22.71-5.76,3.24.23,6.4,1.43,9.61,1.9,5.8,1,11.96.93,17.47-1.35,2.89.65,5.78,1.68,8.73,2.05,4.32.71,8.75.77,13.1,1.12,11.34,1.19,22.76,1.8,34.06,3.32,6.4-.56,12.79-1.77,19.21-2.16,16.86-1.17,33.88-.94,50.66,1.25"/><path class="b" d="M8.23,29.23c7.39-4.63,11.68-4.94,20.09-4.73,3.58-.07,6.98,1.54,10.48,2.07,4,.75,8.18,1.01,12.23.53,1.74-.21,3.58-.61,5.24-1.17,1.11-.33,2.33-1.01,3.49-1.11,5.67,1.71,11.55,2.7,17.47,3.01,9.01.97,18.03,2,27.07,2.62,3.18.28,6.43.68,9.61,1.04,1.4.14,2.97-.23,4.37-.35,12.44-1.7,24.99-2.84,37.56-2.58,9.36.14,18.69,1.29,27.95,2.6"/><path class="b" d="M8.23,26.51c6.34-3.5,13.86-4.23,20.96-3.59,2.9.65,5.8,1.69,8.73,2.2,4.29.79,8.76,1.01,13.1.48,2.05-.25,4.18-.75,6.11-1.45,1.39-.4,2.88-1.48,4.37-1.2,3.17.74,6.37,1.71,9.61,2.19,3.16.52,6.44.72,9.61,1.19,7.82,1.15,15.7,1.95,23.58,2.51,3.18.27,6.43.63,9.61.96,1.71.06,3.54-.3,5.24-.45,11.59-1.41,23.24-2.89,34.94-2.67,9.98.13,19.82,2.08,29.69,3.27"/><path class="b" d="M8.23,23.87c5.75-2.4,12.17-2.92,18.34-2.85,3.55.48,6.93,2.06,10.48,2.59,4.3.78,8.76.97,13.1.53,2.34-.24,4.76-.73,6.99-1.5,1.97-.63,3.97-1.95,6.11-1.56,2.33.39,4.67,1.19,6.99,1.66,3.44.77,7.02,1.07,10.48,1.68,7.51,1.28,15.11,2.19,22.71,2.71,3.48.26,7.01.71,10.48.97,1.4-.13,2.97-.29,4.37-.44,12.18-1.26,24.4-3.38,36.68-2.86,5.86.32,11.68,1.37,17.47,2.29,3.74.49,7.59,1.59,11.35.83"/><path class="b" d="M8.23,21.33c3.09-.97,6.39-1.35,9.61-1.64,2.58-.17,5.27-.56,7.86-.36,3.52.71,6.92,2.21,10.48,2.75,4.59.81,9.34.95,13.97.49,3.28-.32,6.58-1.12,9.61-2.42,3-1.56,6.51-.85,9.61.06,3.13.88,6.42,1.35,9.61,1.94,7.78,1.57,15.67,2.72,23.58,3.29,3.48.23,7,.73,10.48.92,1.7-.15,3.54-.33,5.24-.51,6.4-.69,12.82-1.54,19.21-2.26,5.49-.63,11.06-1.25,16.59-.91,6.5.36,12.8,2.3,19.21,3.22,1.69.26,3.53.54,5.24.66,1.7-.19,3.55-.47,5.24-.75"/><path class="b" d="M8.23,18.88c3.14-.62,6.42-.78,9.61-.98,2.29-.03,4.71-.54,6.99-.2,3.77.97,7.47,2.47,11.35,2.97,4.89.73,9.93.79,14.85.22,3.95-.36,7.71-1.75,11.35-3.22,1.67-.3,3.54-.13,5.24-.12,1.74.23,3.54.82,5.24,1.23,9.79,2.25,19.66,4.33,29.69,5.05,2.89.23,5.85.52,8.73.81,3.19-.16,6.44-.58,9.61-.93,9.04-.98,18.02-2.66,27.07-3.5,4.38-.34,8.86.08,13.1,1.24,5.16,1.46,10.33,3.12,15.72,3.45,2.31-.25,4.7-.7,6.99-1.11"/><path class="b" d="M8.23,16.53c4.92-.36,9.92-.47,14.85-.61,4.65,1.16,9.13,3.01,13.97,3.39,5.21.55,10.54.49,15.72-.27,3.31-.46,6.55-1.56,9.61-2.9,1.91-.7,4.12-.27,6.11-.39,1.75-.08,3.56.49,5.24.92,1.7.44,3.55.84,5.24,1.31,10.22,2.97,20.87,4.07,31.44,4.9,5.83-.48,11.69-1.2,17.47-2.12,6.75-.86,13.36-2.64,20.09-3.61,12.38-1.83,17,5.45,27.95,6.06,2.62-.2,5.28-.88,7.86-1.38"/><path class="b" d="M8.23,14.31c2.89-.04,5.85,0,8.73-.03,1.7.07,3.57-.28,5.24.08,2.33.55,4.67,1.45,6.99,2.06,2.83.76,5.81,1.23,8.73,1.45,5.52.39,11.14.25,16.59-.71,3.35-.48,6.45-2.01,9.61-3.09,2.88-.04,5.88-.21,8.73.11,5.6,1.18,10.95,3.43,16.59,4.44,6.33,1.26,12.79,1.98,19.21,2.53,9.11-.65,18.22-2.12,27.07-4.38,2.01-.55,4.11-1.25,6.11-1.85,1.37-.35,2.95-.95,4.37-.61,3.15.54,6.41.96,9.61,1.07,2.29.2,4.72-.15,6.99.17,4.1,3,8.61,6.35,13.97,5.97,2.33-.27,4.7-.96,6.99-1.49"/><path class="b" d="M8.23,12.29c2.3.02,4.69.08,6.99.12,1.71.07,3.56-.13,5.24.27,2.63.56,5.25,1.55,7.86,2.2,3.12.8,6.39,1.24,9.61,1.43,5.81.31,11.73.16,17.47-.9,3.02-.52,5.93-1.72,8.73-2.91,1.36-.4,2.97-.16,4.37-.22,2.29.07,4.72-.2,6.99.22,4.44,1.05,8.62,3.14,13.1,4.06,6.3,1.43,12.77,2.37,19.21,2.88,6.15-.6,12.36-1.39,18.34-2.99,3.84-.99,7.67-2.23,11.35-3.71,3.69-1.25,7.65.08,11.35.62,4.31.66,8.75.8,13.1.61,1.4-.06,2.97-.18,4.37-.32,1.15.26,1.84,1.75,2.62,2.52,4.07,4.77,9.48,4.08,14.85,2.21"/></svg>