<?xml version="1.0" encoding="UTF-8"?><svg id="a" xmlns="http://www.w3.org/2000/svg" width="1920" height="2400" viewBox="0 0 192 240"><defs><style>.b{fill:none;stroke:#fff;stroke-miterlimit:10;stroke-width:.3px;}.c{stroke-width:0px;}</style></defs><rect class="c" x="0" width="192" height="240"/><path class="b" d="M8.54,226.95c4.63.32,9.29-.3,13.92-.22,3.5-.09,6.99.86,10.44.01,5.96-1.28,11.75-3.38,17.4-5.64,1.06-.46,2.32-.89,3.48-.58,1.7.24,3.53.57,5.22.86,4.01.7,8.11,1.24,12.18,1.43,3.46.19,6.99-.05,10.44.3,5.8.53,11.6,1.5,17.4,1.97,10.12.96,20.31.89,30.46.54,6.44-.22,12.98-.7,19.14-2.7,3.13-.94,6.33-1.97,9.57-2.42,4.02-.53,8.15-.46,12.18-.28,1.77,0,3.54.79,5.22,1.24,2.53.73,5.22,1.26,7.83,1.58"/><path class="b" d="M8.54,225.31c6.95.06,13.93-.97,20.89-.37,2,.07,4.1.68,6.09.35,5.05-.7,9.99-2.25,14.79-3.92,1.41-.39,2.87-1.37,4.35-1.35,3.46.34,6.98.87,10.44,1.2,6.35.74,12.8.36,19.14,1.08,7.81.81,15.65,1.63,23.5,1.87,8.11.28,16.26.04,24.37-.26,5.87-.21,11.77-.99,17.4-2.72,6.19-1.89,12.67-2.8,19.14-2.53,4.81,1.45,9.77,2.58,14.79,2.97"/><path class="b" d="M8.54,223.59c6.95-.05,13.92-.96,20.89-.73,2,.04,4.11.18,6.09.4,1.4.1,2.95.53,4.35.35,4.11-.47,8.22-1.39,12.18-2.54,1.69-.44,3.43-1.35,5.22-1.15,3.76.09,7.56.42,11.31.6,4.04.25,8.15.17,12.18.42,6.08.39,12.19,1.03,18.27,1.34,11.87.68,23.81.42,35.68-.15,5.31-.27,10.55-1.35,15.66-2.77,4.82-1.27,9.81-2.08,14.79-2.22,2.32.3,4.65,1.19,6.96,1.56,3.71.73,7.54,1.19,11.31,1.43"/><path class="b" d="M8.54,221.82c8.12-.16,16.24-1.05,24.37-.89,3.47.04,7,.4,10.44.83,2,.36,4.11-.13,6.09-.37,2.9-.36,5.81-1.15,8.7-1.54,3.45-.29,6.98-.23,10.44-.19,11.91-.06,23.78,1.06,35.68,1.33,6.37.18,12.78.06,19.14-.11,4.92-.15,9.9-.17,14.79-.73,4.42-.42,8.74-1.69,13.05-2.7,3.7-.87,7.52-1.47,11.31-1.75,6.84,1.64,13.85,2.64,20.89,2.89"/><path class="b" d="M8.54,220.01c8.41-.12,16.82-.99,25.24-1,6.1-.13,12.22.52,18.27,1.2,7.8-.77,15.65-1.46,23.5-1.38,10.15-.02,20.31.63,30.46.64,6.08.08,12.2-.11,18.27-.27,5.51-.15,11.09-.2,16.53-1.13,6.09-1.2,12.07-3.11,18.27-3.71,1.11-.25,2.4.29,3.48.48,1.68.36,3.52.69,5.22.93,5.18.72,10.44,1.09,15.66,1.26"/><path class="b" d="M8.54,218.2c8.7-.08,17.4-.94,26.11-1.04,7.84-.28,15.7.24,23.5,1.04,5.19.66,10.46-.21,15.66-.29,6.95-.25,13.94-.12,20.89-.07,8.98.09,18,.04,26.98-.25,4.92-.15,9.9-.12,14.79-.66,6.78-.72,13.23-3.3,20.02-4.05,1.1-.28,2.39.27,3.48.45,1.68.35,3.52.66,5.22.88,6.05.75,12.18,1.09,18.27,1.22"/><path class="b" d="M8.54,216.39c13.63-.22,27.26-1.52,40.9-1.13,7.26.11,14.51.87,21.76,1.32,4.92.23,9.88-.07,14.79-.13,15.37-.16,30.76-.24,46.12-.85,7.47-.17,14.43-3.24,21.76-4.29,1.1-.3,2.4.21,3.48.41,1.97.42,4.09.76,6.09,1,6.63.72,13.35,1.02,20.02,1.1"/><path class="b" d="M8.54,214.57c15.66-.25,31.32-1.53,46.99-1.24,6.1-.04,12.2.5,18.27,1.01,5.78.24,11.62.36,17.4.5,13.63-.18,27.28-.44,40.9-.94,6.61-.21,12.69-3.18,19.14-4.27,1.41-.4,2.97.3,4.35.55,1.97.43,4.09.77,6.09.99,7.21.72,14.51,1,21.76,1.05"/><path class="b" d="M8.54,212.75c17.69-.24,35.38-1.48,53.08-1.36,4.64-.13,9.3.45,13.92.8,6.66.34,13.35.63,20.02.86,6.37.19,12.78-.24,19.14-.34,5.79-.22,11.63-.07,17.4-.5,6.07-.3,11.5-3.45,17.4-4.54,1.13-.17,2.39.44,3.48.65,1.97.49,4.08.88,6.09,1.14,8.07.87,16.25,1.13,24.37,1.17"/><path class="b" d="M8.54,210.92c19.15-.19,38.29-1.35,57.43-1.45,3.76-.09,7.56.45,11.31.7,7.24.39,14.51.89,21.76,1.15,6.08.17,12.2-.33,18.27-.37,5.2-.17,10.49.13,15.66-.55,3.68-.41,7.02-2.25,10.44-3.54,1.06-.4,2.38-.82,3.48-1.1,0,0,.87-.21.87-.21l.87.23c6.16,2.06,12.7,2.57,19.14,2.83,5.2.24,10.45.54,15.66.46"/><path class="b" d="M8.54,209.07c20.31-.1,40.61-1.21,60.92-1.45,10.73.47,21.46,1.62,32.2,1.99,5.79,0,11.61-.41,17.4-.39,4.91-.11,9.97.32,14.79-.8,2.75-.8,5.27-2.41,7.83-3.64,1.34-.56,2.86-1.43,4.35-1.34,2.82.97,5.75,1.92,8.7,2.43,4.58.8,9.29.92,13.92,1.19,4.91.25,9.87.56,14.79.44"/><path class="b" d="M8.54,207.22c21.18,0,42.35-1.05,63.53-1.38,10.73.35,21.45,1.9,32.2,2.03,5.78-.25,11.61-.39,17.4-.31,5.85.02,10.72.58,15.66-3.26,1.86-1.14,4.73-3.75,6.96-3.07,3.67,1.35,7.41,2.76,11.31,3.24,4.31.59,8.72.73,13.05,1.03,4.91.31,9.87.66,14.79.5"/><path class="b" d="M8.54,205.37c22.05.1,44.09-.91,66.14-1.25,6.38.17,12.78.95,19.14,1.43,4.03.28,8.14.79,12.18.52,5.49-.24,11.04-.25,16.53-.08,7.04.25,9.7.18,14.79-5.16.66-.63,1.71-1.42,2.61-1.68.41-.04,1.32-.07,1.74-.06,2.45-.07,4.68,1.49,6.96,2.18,3.05,1.1,6.35,1.61,9.57,1.9,8.39.57,16.81,1.66,25.24,1.39"/><path class="b" d="M8.54,203.5c20.31.05,40.62-.39,60.92-1.02,9.61-.49,19.17.85,28.72,1.64,3.46.39,6.98.26,10.44.09,3.46-.1,6.99-.05,10.44.05,4.29-.1,9.46,1.29,13.05-1.66,1.65-1.42,2.7-3.73,4.35-5.14,1.98-.25,4.1-.06,6.09-.11,1.5.22,2.97,1.1,4.35,1.67,1.91.83,4.04,1.47,6.09,1.84,4.3.74,8.72.93,13.05,1.41,5.77.58,11.6,1.2,17.4.9"/><path class="b" d="M8.54,201.64c8.4-.15,16.83.07,25.24-.03,10.73-.1,21.47-.43,32.2-.71,7.54-.23,15.13-.45,22.63.52,4.33.45,8.71.97,13.05,1.25,4.62-.03,9.3-.37,13.92-.14,2.58,0,5.25.21,7.83.34,2,.04,4.24.21,6.09-.67,2.3-1.34,2.91-4.5,4.35-6.55,2.87-.07,5.83-.02,8.7-.03,1.51.27,2.96,1.23,4.35,1.82,1.63.72,3.47,1.29,5.22,1.63,4.01.75,8.15,1.01,12.18,1.55,6.33.81,12.75,1.6,19.14,1.22"/><path class="b" d="M8.54,199.77c8.69-.21,17.41.09,26.11.05,10.73-.04,21.47-.38,32.2-.63,7.24-.16,14.56-.5,21.76.42,4.33.5,8.7,1.09,13.05,1.39,4.33-.29,8.72-.27,13.05-.18,4.33.03,8.75.96,13.05.22,3.06-.59,4.21-4.1,5.22-6.64l.87-.51c2.87,0,5.83-.02,8.7.01,1.18.26,2.4,1.04,3.48,1.55,1.61.8,3.46,1.42,5.22,1.8,3.72.77,7.57,1.1,11.31,1.72,6.89,1.12,13.9,2.03,20.89,1.56"/><path class="b" d="M8.54,197.91c9.28-.28,18.57.08,27.85.11,10.44,0,20.89-.32,31.33-.56,7.24-.15,14.56-.48,21.76.46,3.74.49,7.55,1.05,11.31,1.35,4.33-.29,8.72-.3,13.05-.19,4.61.17,9.35,1.05,13.92.16,3.06-.88,3.88-4.6,5.22-7.08,1.99-.08,4.1-.02,6.09-.04,1.4.07,3.05-.25,4.35.38,2.18,1.19,4.52,2.35,6.96,2.89,4.3.94,8.74,1.51,13.05,2.4,6.57,1.3,13.33,1.77,20.02,1.38"/><path class="b" d="M8.54,196.06c4.33-.05,8.72-.14,13.05-.19,5.5.16,11.04.34,16.53.34,11.02.02,22.05-.3,33.07-.55,5.21-.12,10.47-.17,15.66.25,3.77.3,7.55,1.08,11.31,1.47,1.98.33,4.1-.05,6.09-.07,4.05-.09,8.15-.12,12.18.3,2.57.32,5.25,0,7.83.23,5.03.39,5.78-2.43,7.83-6.21,3.23-1.46,6.99-1.06,10.44-.97,1.48.43,2.89,1.5,4.35,2.02,2.2.88,4.64,1.36,6.96,1.83,4.91.96,9.81,2.33,14.79,2.89,1.69.23,3.53-.13,5.22-.16,3.17-.14,6.42-.15,9.57.19"/><path class="b" d="M8.54,194.22c5.21-.08,10.46-.17,15.66-.22,5.5.19,11.03.41,16.53.41,12.47.05,24.95-.45,37.42-.54,3.46.02,7,.14,10.44.55,3.18.36,6.39,1,9.57,1.36,4.61,0,9.3-.58,13.92-.16,1.7.1,3.52.39,5.22.41,1.99-.13,4.1-.26,6.09-.04,7.98,1.22,3.9-5.4,13.92-6.12,2.29-.13,4.68.15,6.96.28,1.42.45,2.9,1.23,4.35,1.6,4.61,1.19,9.28,2.42,13.92,3.49,1.07.21,2.38.48,3.48.51,1.69-.23,3.52-.44,5.22-.57,4.03-.32,8.16-.3,12.18.19"/><path class="b" d="M8.54,192.39c6.08-.11,12.2-.17,18.27-.26,4.91.27,9.88.42,14.79.46,11.89.09,23.79-.32,35.68-.45,6.73-.16,13.4.88,20.02,1.94,4.62-.08,9.3-.75,13.92-.2,1.39.11,2.95.37,4.35.39,1.39-.1,2.95-.28,4.35-.32,2.01-.15,4.09.59,6.09.42,1.44-.18,2.46-1.61,3.48-2.51,2.33-2.09,5.62-2.96,8.7-2.9,2.58.06,5.25.33,7.83.42,4.88,1.53,9.83,3.07,14.79,4.31.4.09,1.33.26,1.74.33.4-.07,1.33-.22,1.74-.29,1.38-.23,2.95-.44,4.35-.59,4.9-.43,9.93-.68,14.79.14"/><path class="b" d="M8.54,190.57c6.66-.15,13.36-.16,20.02-.31,4.62.29,9.3.45,13.92.51,11.6.13,23.21-.22,34.81-.36,6.44-.14,12.82.92,19.14,1.95,4.33-.19,8.72-.84,13.05-.31,1.4.13,2.95.37,4.35.48,1.7-.13,3.52-.43,5.22-.52,2.33-.24,4.65.87,6.96.59,1.27-.51,2.36-1.76,3.48-2.51,2.25-1.55,5.11-2.29,7.83-2.24,3.46.16,7.01.25,10.44.67,2.58.85,5.25,1.76,7.83,2.63,1.37.43,2.92.94,4.35,1.09.76-.16,1.84-.38,2.61-.53,3.71-.7,7.55-.95,11.31-1.06,3.17-.06,6.46-.14,9.57.57"/><path class="b" d="M8.54,188.77c7.24-.16,14.52-.19,21.76-.36,4.33.3,8.72.46,13.05.53,11.31.18,22.63-.13,33.94-.27,6.16-.13,12.22,1.01,18.27,1.97,4.03-.29,8.14-.92,12.18-.42,1.4.15,2.96.38,4.35.55,2.01-.04,4.09-.58,6.09-.71,1.09-.06,2.41.01,3.48.26,1.07.28,2.35.72,3.48.61,1.62-.38,2.9-1.89,4.35-2.64,2.1-1.12,4.58-1.77,6.96-1.72,3.75.14,7.6.25,11.31.81,2.97.63,5.75,2.21,8.7,2.93,1.09.45,2.39-.24,3.48-.41,1.38-.31,2.95-.57,4.35-.74,3.15-.36,6.4-.48,9.57-.57,3.18-.13,6.45-.03,9.57.65"/><path class="b" d="M8.54,186.98c7.53-.2,15.1-.16,22.63-.43,4.04.24,8.14.49,12.18.56,11.31.27,22.63-.04,33.94-.16,5.56-.06,11.08.91,16.53,1.9,3.75.03,7.55-.96,11.31-.55,2.01.13,4.09.62,6.09.76,1.41-.14,2.96-.45,4.35-.72,1.67-.33,3.55-.44,5.22-.04,1.09.28,2.33.92,3.48.9,1.64-.06,2.95-1.55,4.35-2.25,2.11-1.11,4.56-1.82,6.96-1.76,3.76.11,7.61.23,11.31.9,2.7.47,5.21,1.88,7.83,2.6,1.73,0,3.5-.87,5.22-1.08,2.26-.42,4.67-.61,6.96-.72,5.5-.24,11.09-.59,16.53.49"/><path class="b" d="M8.54,185.2c7.82-.23,15.68-.17,23.5-.49,3.75.14,7.56.49,11.31.55,11.31.37,22.63.04,33.94-.06,5.28-.03,10.5,1,15.66,1.94,2.89-.11,5.81-.77,8.7-.77,1.71,0,3.54.21,5.22.51,1.39.25,2.95.62,4.35.28,4.38-.87,6.94-2.17,11.31-.02,2.05.85,3.54-.68,5.22-1.61,2.12-1.12,4.55-1.89,6.96-1.83,3.76.08,7.62.22,11.31,1,2.37.5,4.66,1.61,6.96,2.31,2.01-.4,4.05-1.21,6.09-1.47,2.85-.45,5.82-.53,8.7-.62,5.21-.22,10.5-.22,15.66.63"/><path class="b" d="M8.54,183.43c8.4-.24,16.84-.2,25.24-.56,8.67.72,17.41.8,26.11.81,6.95.06,13.95-.53,20.89-.04,2.6.21,5.27.65,7.83,1.17,1.09.21,2.38.49,3.48.6.77-.09,1.84-.2,2.61-.29,2.27-.36,4.66-.68,6.96-.56,2.32.08,4.67.76,6.96,1.07,2.67-.19,5.2-1.47,7.83-1.84,1.1-.15,2.46-.1,3.48.38,1.26.74,2.85,1.6,4.35,1.36,1.42-.66,2.86-1.7,4.35-2.23,2.93-1.49,6.39-1.16,9.57-.98,2.3.14,4.72.38,6.96.93,2.04.49,4.09,1.4,6.09,2.02,2-.5,4.04-1.32,6.09-1.6,3.14-.49,6.4-.49,9.57-.57,5.5-.08,11.08-.1,16.53.68"/><path class="b" d="M8.54,181.66c6.08-.18,12.2-.22,18.27-.32,2.58-.05,5.25-.2,7.83-.28,1.99.18,4.1.32,6.09.43,6.94.35,13.93.48,20.89.43,5.21-.02,10.46-.32,15.66-.19,4.4.08,8.76,1.05,13.05,1.9,3.47-.03,6.94-1.23,10.44-.89,2.33.08,4.65,1.02,6.96,1.15,3.59-.3,6.76-2.99,10.44-2.6,1.47,1.22,3.34,2.2,5.22,2.58,2.35-.78,4.49-2.47,6.96-2.98,2.26-.44,4.68-.29,6.96-.15,2.61.17,5.32.51,7.83,1.27,1.41.43,2.94,1.04,4.35,1.48,1.13-.14,2.39-.69,3.48-.99,4.77-1.41,9.87-1.1,14.79-1.1,5.21.13,10.5-.1,15.66.66"/><path class="b" d="M8.54,179.87c6.08-.19,12.2-.2,18.27-.3,4.05-.06,8.15-.52,12.18-.01,7.23.48,14.51.66,21.76.62,5.21-.01,10.46-.32,15.66-.2,4.41.06,8.75,1.13,13.05,1.98,3.18-.29,6.36-1.24,9.57-1.1,2.35.04,4.68.86,6.96,1.32,3.83.06,6.83-2.99,10.44-3.84,1.98,1.65,4.32,3.42,6.96,3.72,2.01-.84,3.98-2.13,6.09-2.69,4.58-.78,9.43-.21,13.92.87,1.72.36,3.45,1.47,5.22,1.44.77-.25,1.83-.6,2.61-.84,5.06-1.55,10.45-1.06,15.66-1.06,5.49.15,11.08-.21,16.53.59"/><path class="b" d="M8.54,178.05c8.98-.3,18-.05,26.98-.57,10.41.88,20.89,1.14,31.33.81,4.04-.09,8.16-.27,12.18.17,3.21.29,6.38,1.35,9.57,1.74,4.01-.56,8.13-1.86,12.18-.86,1.41.3,2.92.93,4.35,1.14,3.76-.05,6.48-3.27,9.57-5.01,1.51.85,2.78,2.38,4.35,3.18,1.31.65,2.83,1.77,4.35,1.53,1.73-.69,3.43-1.81,5.22-2.33,2.82-.69,5.84-.45,8.7-.18,3.28.28,6.47,1.37,9.57,2.39,2.25-.73,4.6-1.53,6.96-1.78,4.03-.44,8.14-.15,12.18-.13,5.78.19,11.67-.32,17.4.56"/><path class="b" d="M8.54,176.19c9.27-.29,18.58.03,27.85-.48,9.82.99,19.73,1.1,29.59.82,4.62-.1,9.34-.33,13.92.43,2.31.39,4.67,1.03,6.96,1.49,1.11,0,2.4-.31,3.48-.53,11-2.81,11.75,2.48,16.53.22,2.31-1.36,4.1-3.64,6.09-5.4l.87.08c2.37,2.52,5.44,4.56,8.7,5.71,2.14-.41,3.93-2.05,6.09-2.42,5.54-.96,11.3.15,16.53,2.03.83.21,1.84-.25,2.61-.49,1.37-.44,2.93-.83,4.35-1.03,4.02-.51,8.14-.17,12.18-.15,6.36.26,12.84-.46,19.14.6"/><path class="b" d="M8.54,174.27c9.27-.31,18.58.23,27.85-.31,10.11,1.03,20.31,1.1,30.46.76,4.34-.1,8.78-.2,13.05.68,7.11,1.64,4.97,1.67,12.18.12,2.26-.44,4.73-.57,6.96.11,2.8.99,5.27,2.53,7.83-.01,1.24-1.24,2.41-2.99,3.48-4.37,0,0,.87-1.01.87-1.01,0,0,.87-.37.87-.37,3.04,2.85,6.48,5.55,10.44,6.97,1.8-.49,3.38-1.83,5.22-2.22,5.52-1.2,11.29.03,16.53,1.85.83.08,1.84-.34,2.61-.58,1.37-.44,2.93-.81,4.35-.99,4.32-.49,8.72-.07,13.05-.07,6.36.26,12.87-.58,19.14.69"/><path class="b" d="M8.54,172.25c9.28-.29,18.57.45,27.85-.05,9.82,1.01,19.73,1.07,29.59.73,4.34-.09,8.79-.17,13.05.75,1.71.36,3.52.89,5.22,1.26,2.33.02,4.67-.95,6.96-1.34,2.26-.48,4.74-.65,6.96.1,1.13.37,2.37,1.09,3.48,1.49,1.15.16,2.57.14,3.48-.67,1.86-1.75,2.78-4.55,4.35-6.52,2.09-.93,3.64,1.56,5.22,2.54,2.43,1.69,4.99,3.63,7.83,4.52,1.75-.56,3.35-1.87,5.22-2.16,5.24-1.09,10.68.11,15.66,1.81,1.15.1,2.39-.56,3.48-.82,1.37-.39,2.93-.69,4.35-.81,4.33-.33,8.72.06,13.05.06,6.36.25,12.91-.68,19.14.87"/><path class="b" d="M8.54,170.12c9.28-.26,18.57.75,27.85.3,9.82,1.06,19.73,1.01,29.59.7,3.17-.05,6.43-.05,9.57.39,2.33.31,4.69,1,6.96,1.57,1.09.39,2.4-.1,3.48-.32,1.98-.49,4.07-1.11,6.09-1.41,2.02-.33,4.24-.17,6.09.74,1.36.73,2.71,1.69,4.35,1.44,3.1-.32,3.62-5.24,5.22-7.39,3.42-.71,4.41.92,6.96,2.67,1.36.96,2.93,1.96,4.35,2.83,1.05.61,2.26,1.48,3.48,1.7,4.35-2.58,9.02-2.98,13.92-2.05,2.35.33,4.64,1.36,6.96,1.74,2.24-.71,4.6-1.45,6.96-1.65,4.32-.36,8.72.03,13.05.03,6.65.28,13.55-.78,20.02,1.18"/><path class="b" d="M8.54,167.85c6.68-.27,13.35.63,20.02.76,2.58.05,5.25.05,7.83-.02,4.9.5,9.86.89,14.79.9,6.95.15,13.94-.46,20.89,0,3.24.2,6.45,1.1,9.57,1.92,1.42.22,2.98-.44,4.35-.75,3.62-.98,7.73-2.5,11.31-.63.79.44,1.82,1.18,2.61,1.62.76.16,1.84.13,2.61.08,2.1-1.39,2.51-4.87,3.48-7.04.42-.29,1.23-.54,1.74-.43.78,0,1.84-.02,2.61.05,1.21.45,2.42,1.4,3.48,2.11,1.67,1.15,3.52,2.31,5.22,3.41,1.05.61,2.23,1.6,3.48,1.72,4.74-2.76,10.46-2.88,15.66-1.5,6.25,1.82,3.49,1.28,9.57-.08,5.73-.98,11.62-.19,17.4-.31,6.09.1,12.43-.55,18.27,1.58"/><path class="b" d="M8.54,165.4c6.11-.24,12.19.76,18.27,1.15,3.16.16,6.41.19,9.57.13,4.6.61,9.28.91,13.92.96,6.95.17,13.95-.44,20.89.12,2.02.18,4.13.56,6.09,1.09,1.39.29,2.92,1.06,4.35.85,2.03-.41,4.11-1.11,6.09-1.69,3.51-1.11,7.56-1.69,10.44,1.12.59.65,1.73,1.05,2.61.92,0,0,.87,0,.87,0l.87-.48c1.1-1.92,1.58-5.08,2.61-7.03,1.69.05,3.54-.11,5.22.11,2.75,1.26,5.24,3.24,7.83,4.81,1.36.82,2.75,2.09,4.35,2.38,6.87-3.59,12.97-2.36,20.02-.19,2.26-.65,4.61-1.4,6.96-1.64,4.9-.46,9.88-.04,14.79-.08,4.04.05,8.16-.1,12.18.34,1.1.13,2.41.38,3.48.66,1.08.28,2.4.91,3.48.33"/><path class="b" d="M8.54,162.74c3.17-.05,6.42.15,9.57.56,3.16.44,6.38,1.05,9.57,1.19,2.87.21,5.83.14,8.7.23,2.85.45,5.82.72,8.7.87,6.36.35,12.78.1,19.14.12,5.01-.07,10.01.71,14.79,2.19,1.11.32,2.41-.23,3.48-.48,1.4-.41,2.96-.94,4.35-1.38,2.76-.83,5.97-1.85,8.7-.44,1.25.64,2.22,2.09,3.48,2.7.78,0,1.85.05,2.61-.17l.87-1.99c.24-1.11.79-4.59,1.74-5.35,1.99.07,4.13-.17,6.09.14,2.75,1.2,5.29,3.07,7.83,4.65,1.34.89,2.75,2.05,4.35,2.41,1.74-.41,3.45-1.37,5.22-1.72,3.13-.71,6.47-.44,9.57.27,1.72.35,3.52.95,5.22,1.36.44-.11,1.31-.36,1.74-.48,4.48-1.45,9.27-1.42,13.92-1.33,4.62.09,9.3.02,13.92.24,2.01.11,4.14.36,6.09.84.77.19,1.82.53,2.61.63.78-.21,1.84-.57,2.61-.83"/><path class="b" d="M8.54,159.91c3.18-.02,6.44.23,9.57.77,3.16.59,6.35,1.4,9.57,1.6,2.57.24,5.25.25,7.83.32,3.14.56,6.39.89,9.57,1.07,6.65.4,13.36.06,20.02.29,4.44.07,8.81,1.1,13.05,2.32,2.69-.21,5.29-1.43,7.83-2.25,2.74-.87,5.91-2.11,8.7-.83,1.38.7,2.38,2.27,3.48,3.31.77.07,1.84.06,2.61.06.93-1.15,1.51-5.71,1.74-7.15.74-.46,1.78-.38,2.61-.37,1.4,0,2.95-.01,4.35.01,1.54.28,3.01,1.27,4.35,2.02,2.37,1.3,4.65,2.98,6.96,4.38,2.37,1.25,2.95.44,5.22-.32,2.2-.78,4.64-1.07,6.96-.92,2.02.11,4.13.54,6.09,1.04,1.39.23,2.96,1.2,4.35.69,1.68-.46,3.5-.95,5.22-1.2,3.72-.53,7.56-.38,11.31-.36,3.75.06,7.57.04,11.31.29,2.63.16,5.31.68,7.83,1.42,1.42-.33,2.95-.9,4.35-1.3"/><path class="b" d="M8.54,157.33c3.18,0,6.45.04,9.57.65,2.89.57,5.76,1.58,8.7,1.88,2.57.37,5.25.37,7.83.58,2.85.56,5.81.94,8.7,1.16,6.07.48,12.2.32,18.27.47,4.4.08,8.84.62,13.05,1.92.76.22,1.81.54,2.61.54,2.05-.41,4.14-1.16,6.09-1.91,3.29-1.1,6.93-3.14,10.44-1.96,1.55.69,2.54,2.53,3.48,3.86.74.38,1.81.3,2.61.3,1.14-.74,1.51-6.33,1.74-7.51,2.58.05,5.26-.11,7.83.08,2.78.88,5.33,2.59,7.83,4.05,1.36.89,2.82,1.96,4.35,2.53,1.77,1.09,3.46-.33,5.22-.74,2.22-.68,4.66-.83,6.96-.61,2.64.22,5.27.98,7.83,1.61,1.39.45,2.96-.44,4.35-.64,1.96-.47,4.08-.75,6.09-.85,6.07-.18,12.21-.11,18.27.29,1.4.12,2.97.33,4.35.62,1.1.17,2.36.78,3.48.54,1.71-.43,3.5-1.09,5.22-1.47"/><path class="b" d="M8.54,155.57c4.35-.17,8.72.43,13.05.65,2.82.81,5.77,1.42,8.7,1.64,3.79.23,7.52,1.36,11.31,1.62,5.48.57,11.03.57,16.53.7,3.77.1,7.62.31,11.31,1.12,2.01.41,4.07,1.17,6.09,1.52,1.43-.27,2.98-.75,4.35-1.23,3.41-1.07,9.76-4.81,13.05-3.45,2.15.92,2.69,3.57,4.35,4.93h1.74l.87-.52.87-6.99c1.69,0,3.53,0,5.22,0,1.1.02,2.42-.1,3.48.23,2.4.85,4.73,2.18,6.96,3.41,2.19,1.34,4.46,2.86,6.96,3.56,6.06-2.47,10.29-2.3,16.53-.7.78.18,1.83.43,2.61.59,1.7-.31,3.51-.79,5.22-1.08,3.42-.62,6.98-.62,10.44-.61,3.75.05,7.57.08,11.31.43,2.01.19,4.13.57,6.09,1.06,1.13.2,2.4-.37,3.48-.63,1.38-.41,2.93-.85,4.35-1.08"/><path class="b" d="M8.54,153.83c4.93-.11,9.86.71,14.79.71,4.4.29,8.72,1.51,13.05,2.24,7.46,1.34,15.08,1.28,22.63,1.65,3.49.19,7.06.61,10.44,1.52,1.39.37,2.95.81,4.35,1.13,1.75-.29,3.56-.92,5.22-1.53,3.75-1.4,7.34-3.53,11.31-4.23,3.5-.04,4.63,3.48,6.09,5.99.77.03,1.84.02,2.61.02l.87-7.51c2.58.01,5.25-.03,7.83.02,5.65,1.27,10.28,5.21,15.66,7.18,6.27-2.13,9.15-2.32,15.66-.87,1.09.23,2.39.52,3.48.73,1.71-.21,3.51-.7,5.22-.94,4-.7,8.14-.66,12.18-.61,3.76.08,7.6.18,11.31.8,1.1.18,2.4.46,3.48.72,2.89-.56,5.75-1.69,8.7-1.97"/><path class="b" d="M8.54,152.09c3.76-.05,7.55.58,11.31.66,4.99-.18,9.93.74,14.79,1.74,8.3,1.68,16.83,1.58,25.24,2.31,3.83.33,7.62,1.3,11.31,2.3.77.32,1.84.09,2.61-.14,1.11-.3,2.41-.74,3.48-1.15,3.53-1.31,6.88-3.23,10.44-4.45,4.86-1.8,6.5,1.97,7.83,5.87.72.46,1.8.37,2.61.36l.87-7.51c2.58.02,5.25-.05,7.83.03,4.93,1.13,9.37,3.87,13.92,5.98,3.01,1.61,3.04,1.16,6.09.19,1.94-.57,4.08-.79,6.09-.71,2.31.1,4.69.58,6.96,1.01,1.09.18,2.37.61,3.48.47,2.27-.44,4.66-.86,6.96-1.11,7.5-.55,15.24-.46,22.63,1.07,3.5-.24,6.88-1.93,10.44-1.97"/><path class="b" d="M8.54,150.35c3.47.05,6.97.61,10.44.69,3.77-.02,7.6-.02,11.31.73,4.6.84,9.26,1.71,13.92,2.12,5.2.51,10.48.63,15.66,1.35,3.52.47,7,1.5,10.44,2.34,2.07-.27,4.15-1.08,6.09-1.82,2.65-1.02,5.25-2.39,7.83-3.57,2.4-1.05,5.28-2.38,7.83-1.09,2.1,1.43,1.91,4.98,3.48,6.77h1.74c.32-1.85,1.14-5.76,1.74-7.51,2.29.05,4.69-.12,6.96.09,5.14,1.3,9.99,3.7,14.79,5.89,2.97,1.52,3.04,1.32,6.09.31,1.94-.56,4.08-.78,6.09-.71,3.51.06,6.97,1.13,10.44,1.44,1.98-.35,4.09-.69,6.09-.92,7.52-.78,15.19-.43,22.63.91,3.74-.71,7.46-2.08,11.31-2.05"/><path class="b" d="M8.54,148.61c2.88.08,5.82.51,8.7.63,2.58.18,5.25-.08,7.83.05,4.68.24,9.3,1.38,13.92,2.04,8.68,1.33,17.61,1.21,26.11,3.62,1.09.29,2.38.64,3.48.88,2.06-.3,4.14-1.09,6.09-1.81,3.87-1.4,7.44-3.65,11.31-5.01,1.93-.57,4.11-.42,6.09-.31l.87.81c.5,1.61,1.37,4.97,1.74,6.63h1.74c.86-1.21,1.5-5.32,1.74-6.78l.87-.73c1.7.03,3.53-.08,5.22.07,1.44.22,2.98.73,4.35,1.19,4.11,1.37,8.24,2.88,12.18,4.69,2.03.93,3.01,1.63,5.22.68,2.22-.71,4.64-1.03,6.96-.96,3.5.07,7,.86,10.44,1.39,1.7-.23,3.52-.54,5.22-.73,5.18-.64,10.47-.57,15.66-.16,1.4.12,2.96.31,4.35.53.77.12,1.83.39,2.61.21,4.02-.78,8.04-2.13,12.18-1.95"/><path class="b" d="M8.54,146.87c3.76.1,7.55.69,11.31.63,4.96-.33,9.93.2,14.79,1.17,9.81,1.92,19.95,1.98,29.59,4.78.77.2,1.83.47,2.61.64.79-.12,1.85-.41,2.61-.64,2.33-.72,4.73-1.59,6.96-2.56,3.18-1.26,6.16-3.4,9.57-4,2.28-.05,4.68,0,6.96-.02l.87,7.51h1.74l.87-.54c.24-1.35.81-5.54,1.74-6.59,4.05-1.33,9.09,1.12,13.05,2.15,2.62.78,5.28,1.71,7.83,2.67,1.69.66,3.43,1.63,5.22,2,4.19-1.45,8.68-1.78,13.05-1.13,2.88.24,5.82,1.33,8.7.71,5.17-.73,10.45-.93,15.66-.59,2.6.06,5.25.67,7.83.76,4.61-.78,9.19-2.32,13.92-1.98"/><path class="b" d="M8.54,145.12c3.47-.05,6.98.47,10.44.47,3.76-.09,7.59-.26,11.31.37,4.34.67,8.7,1.61,13.05,2.22,6.42.89,12.9,1.75,19.14,3.55.77.2,1.83.47,2.61.62,1.42-.29,2.98-.76,4.35-1.22,2.93-.98,5.92-2.05,8.7-3.4,1.96-.89,3.98-2.04,6.09-2.52,2.57-.2,5.25-.03,7.83-.09l.87.74.87,6.78c.44.02,1.31-.02,1.74-.08,1.99-7.8,2.74-7.9,10.44-5.95,4.63,1.32,9.42,2.36,13.92,4.09,4.99,2.09,3.69,1.69,8.7.59,2.85-.49,5.84-.38,8.7-.09,2.59.19,5.24.89,7.83.92,5.46-.71,11.03-1,16.53-.59,2.29.02,4.69.78,6.96.43,4.89-.83,9.78-2.28,14.79-1.83"/><path class="b" d="M8.54,143.38c3.46-.07,6.98.18,10.44.23,3.46-.04,7-.25,10.44.21,4.37.56,8.71,1.66,13.05,2.39,6.43,1.06,12.88,2.22,19.14,4.02.77.21,1.83.49,2.61.17,1.41-.35,2.97-.85,4.35-1.31,3.21-1.08,6.52-2.17,9.57-3.66,1.65-.74,3.42-1.7,5.22-2.01,2.58-.08,5.25-.01,7.83-.03,1.05.94,1.51,6.19,1.74,7.49.43.01,1.31.02,1.74.02.88-1.54,1.54-3.93,2.61-5.36,2.1-2.22,6.09-.67,8.7-.2,4.62,1.2,9.42,2.01,13.92,3.62,1.67.53,3.43,1.6,5.22,1.48.77-.2,1.83-.48,2.61-.64,2.83-.6,5.83-.61,8.7-.4,3.18.17,6.39.85,9.57,1,6.35-.69,12.8-.81,19.14-.04,3.21-.12,6.41-1.01,9.57-1.51,2.84-.51,5.82-.62,8.7-.42"/><path class="b" d="M8.54,141.64c3.75-.01,7.56.02,11.31.04,3.17-.02,6.41-.14,9.57.15,4.4.45,8.72,1.69,13.05,2.55,6.15,1.16,12.25,2.67,18.27,4.35.8.26,1.84-.08,2.61-.3,1.41-.41,2.96-.93,4.35-1.4,3.51-1.18,7.13-2.32,10.44-3.99,1.33-.6,2.85-1.39,4.35-1.39,2.58,0,5.25,0,7.83,0l.87.84c.25,1.1.59,6.05,1.74,6.68h.87c2.19-2.16,1.93-6.35,6.09-6.22,2.63.06,5.28.78,7.83,1.35,2.87.65,5.84,1.2,8.7,1.91,2.04.47,4.12,1.24,6.09,1.94.76.26,1.8.58,2.61.62.78-.19,1.83-.45,2.61-.61,1.96-.41,4.09-.57,6.09-.55,4.65-.07,9.29.96,13.92,1.07,3.16-.23,6.4-.42,9.57-.33,2.29-.03,4.68.44,6.96.25,6.37-.7,12.68-2.55,19.14-1.86"/><path class="b" d="M8.54,139.9c7.53.1,15.11-.22,22.63.14,3.82.47,7.58,1.62,11.31,2.49,5.56,1.25,11.05,2.92,16.53,4.46,1.12.35,2.41-.29,3.48-.57,1.4-.46,2.96-1.02,4.35-1.5,3.5-1.21,7.14-2.27,10.44-3.97.74-.36,1.8-.8,2.61-.99,1.08-.1,2.39-.05,3.48-.06,2.29.02,4.68-.04,6.96.03.31,1.83,1.12,5.73,1.74,7.45.47.09,1.31-.05,1.74-.26,2.4-5.58,3.38-6.64,9.57-5.41,4.03.91,8.14,1.73,12.18,2.55,2.03.41,4.14,1.04,6.09,1.74,1.36.37,2.92,1.22,4.35.86,2.53-.65,5.22-.99,7.83-.99,4.94-.04,9.88.71,14.79,1.04,2.28.1,4.67-.2,6.96-.13,1.99-.03,4.1.24,6.09.04,4.37-.28,8.71-1.22,13.05-1.75,2.86-.35,5.83-.28,8.7-.12"/><path class="b" d="M8.54,138.16c5.21,0,10.46,0,15.66,0,2.87.06,5.84-.15,8.7.15,3.54.52,7.01,1.69,10.44,2.64,4.68,1.26,9.27,2.96,13.92,4.3,1.11.44,2.41-.23,3.48-.54,1.4-.49,2.96-1.09,4.35-1.6,3.45-1.3,7.11-2.29,10.44-3.88.74-.37,1.8-.84,2.61-1.02,1.09-.08,2.39-.04,3.48-.05,2.58,0,5.25,0,7.83,0,.83,1.23,1.49,5.16,1.74,6.62l.87.89h.87c2.21-2.98,2.12-6.71,6.96-6.19,2.63.18,5.26.95,7.83,1.5,2.57.57,5.26,1,7.83,1.54,2.03.4,4.14.99,6.09,1.65,1.65.47,3.5,1.4,5.22.82,2.25-.52,4.65-.8,6.96-.84,8.42-.05,16.81,1.5,25.24.85,5.25-.21,10.45-1.27,15.66-1.81,2.87-.28,5.83-.16,8.7-.03"/><path class="b" d="M8.54,136.42c5.21,0,10.46,0,15.66,0,3.45.06,7-.16,10.44.19,5.66,1.2,11.11,3.39,16.53,5.36,5.37,1.97,5.05,2.36,10.44.05,3.11-1.33,6.38-2.45,9.57-3.57,1.72-.58,3.47-1.52,5.22-1.98,4.04-.08,8.14,0,12.18-.03,1.28,1.88,1.49,5.38,2.61,7.36l.87.16.87-.41c3.03-5.75,4.91-6.9,11.31-5.15,3.99,1.07,8.13,1.74,12.18,2.54,2.03.41,4.13,1.05,6.09,1.69,1.37.33,2.94,1.14,4.35.74,2.25-.52,4.65-.84,6.96-.9,8.12-.19,16.24,1.17,24.37.63,5.24-.2,10.45-1.14,15.66-1.64,3.16-.3,6.41-.15,9.57-.06"/><path class="b" d="M8.54,134.68c9.27.06,18.59-.2,27.85.29,4.8,1.23,9.37,3.39,13.92,5.31,5.41,2.38,5.19,2.03,10.44-.37,2.8-1.32,5.78-2.45,8.7-3.48,1.69-.56,3.46-1.43,5.22-1.75,4.33-.03,8.72,0,13.05,0,1.42,2.15,1.57,5.67,3.48,7.49l.87-.02c1.27-1.11,2.19-2.94,3.48-4.03,2.17-1.72,5.17-1.88,7.83-1.84,4.28,1.17,8.69,2.03,13.05,2.82,2.03.4,4.13,1,6.09,1.63,1.65.43,3.5,1.32,5.22.79,2.26-.49,4.66-.76,6.96-.82,7.83-.17,15.67.89,23.5.39,4.94-.21,9.87-.99,14.79-1.42,3.45-.31,6.98-.14,10.44-.1"/><path class="b" d="M8.54,132.94c5.79,0,11.62,0,17.4,0,3.75.14,7.56.39,11.31.4,1.48.07,2.99.88,4.35,1.41,2.63,1.14,5.27,2.52,7.83,3.8,4.71,2.37,5,2.14,9.57-.29,2.77-1.5,5.73-2.82,8.7-3.87,1.66-.55,3.45-1.38,5.22-1.45,2.87,0,5.83,0,8.7,0,1.69.08,3.57-.2,5.22.19,1.58,2.18,1.91,5.91,4.35,7.32,1.08-.15,1.91-1.4,2.61-2.12.92-.98,2.19-1.95,3.48-2.37,2.2-.8,4.65-.9,6.96-.82,1.75-.04,3.55.29,5.22.76,2.86.64,5.85,1.07,8.7,1.72,2.91.64,5.78,1.78,8.7,2.36,2.86-.45,5.79-1.04,8.7-1.05,7.53-.17,15.09.61,22.63.15,4.93-.23,9.87-.91,14.79-1.2,3.46-.22,6.98,0,10.44,0"/><path class="b" d="M8.54,131.2c7.83,0,15.69-.16,23.5.45,2.58.15,5.27,0,7.83.37,2.71,1.13,5.3,2.73,7.83,4.21,5.08,2.96,5.41,3.18,10.44-.01,3.49-2.14,7.29-4.04,11.31-4.93,4.9-.23,9.88-.02,14.79-.09.48-.1,1.35.14,1.74.44,0,0,.87,1.31.87,1.31,1.22,1.87,2.04,5,4.35,5.75,1.28-.57,2.34-1.91,3.48-2.69,1.26-.87,2.86-1.44,4.35-1.74,3.42-.65,6.99-.24,10.44-.17,3.48.51,7.02,1.25,10.44,2.06,10.87,3.24,5.35,1.73,15.66,1.04,7.24-.29,14.52.31,21.76-.06,4.92-.17,9.87-.69,14.79-.92,3.75-.19,7.56.04,11.31-.01"/><path class="b" d="M8.54,129.46c4.92.02,9.88-.04,14.79.03,2.87.23,5.82.53,8.7.6,10.17.37,8.2-.47,16.53,5.29,3.43,2.31,4.65,1.75,7.83-.55,3.15-2.27,6.56-4.57,10.44-5.3,5.78-.17,11.62-.05,17.4-.05,2.75,1.54,3.76,6.85,6.96,7.4,1.19-.59,2.34-1.69,3.48-2.36,3.41-1.95,7.49-2.03,11.31-1.89,2.29.07,4.67.11,6.96.15,2.9.49,5.87,1.08,8.7,1.88,1.99.57,4.07,1.27,6.09,1.7,1.11.24,2.38-.28,3.48-.41,1.68-.28,3.52-.47,5.22-.56,6.95-.3,13.94.06,20.89-.23,4.92-.14,9.87-.55,14.79-.67,3.75-.11,7.56.1,11.31-.02"/><path class="b" d="M8.54,127.71c4.33.03,8.72-.05,13.05.03,2.87.29,5.82.64,8.7.71,4.04.21,8.25-.05,12.18,1.04,1.58.69,2.99,2.08,4.35,3.11,4.32,3.63,5.46,3.27,9.57-.33,2.5-2.04,5.34-4.4,8.7-4.56,5.21,0,10.46,0,15.66,0,2.82-.25,3.52.57,5.22,2.68,1.49,1.61,2.82,4.46,5.22,4.67,5.77-3.9,9.81-4.03,16.53-3.77,2.58.06,5.25.02,7.83.1,2.33.28,4.71.93,6.96,1.55,8.71,2.78,5.59,1.44,13.92.75,7.23-.43,14.52-.19,21.76-.44,4.62-.12,9.3-.39,13.92-.44,3.75-.06,7.57.12,11.31-.05"/><path class="b" d="M8.54,125.97c3.46.02,6.99-.05,10.44.03,3.17.22,6.39.8,9.57.84,3.46.14,7,.04,10.44.43,3.09.29,5.71,1.41,7.83,3.7,3.74,3.61,5.27,3.09,8.7-.49,1.96-1.87,4.12-4.22,6.96-4.52,4.33,0,8.72,0,13.05,0,1.39,0,2.96,0,4.35,0,.79,0,1.87-.07,2.61.28,2.98,1.49,5.6,6.59,8.7,6.98,5.78-3.57,10.86-3.62,17.4-3.39,3.17.06,6.41-.09,9.57.1,2.04.23,4.12.93,6.09,1.49,1.68.51,3.5,1.08,5.22,1.46,1.11.21,2.39-.29,3.48-.43,1.39-.24,2.95-.43,4.35-.55,7.81-.52,15.68-.37,23.5-.6,7.53-.33,15.1-.05,22.63-.32"/><path class="b" d="M8.54,124.23c3.17,0,6.41-.05,9.57.26,3.16.3,6.39.78,9.57.81,6.45.31,14.14-1.04,19.14,4.01,3.13,3.43,4.96,3.1,7.83-.38,1.68-1.81,3.42-4.47,6.09-4.7,4.33,0,8.72,0,13.05,0,1.39,0,2.96,0,4.35,0,1.11,0,2.46-.11,3.48.41,2.27,1.15,4.18,3.1,6.09,4.75.98.81,2.19,1.87,3.48,2.08,6.49-3.56,12.04-3.24,19.14-3.12,3.46.04,7-.22,10.44.15,1.74.25,3.54.9,5.22,1.39,1.68.5,3.49,1.1,5.22,1.37,2.26-.5,4.65-.91,6.96-1.12,9.54-.73,19.15-.53,28.72-.73,5.5-.1,11.04.15,16.53-.18"/><path class="b" d="M8.54,122.59c6.39.15,12.76,1.2,19.14,1.19,6.12.15,13.24-1.1,18.27,3.21,3.1,2.83,4.63,4.79,7.83.61,1.55-1.74,2.83-4.43,5.22-5.1,4.33-.01,8.72,0,13.05,0,2.57.12,5.3-.27,7.83.22,4.31,1.35,7.23,5.27,11.31,7.01,7.5-3.39,12.09-2.98,20.02-2.91,3.75.03,7.58-.31,11.31.15,1.75.2,3.54.87,5.22,1.37,1.38.43,2.94.88,4.35,1.19,2.29-.34,4.65-.92,6.96-1.12,14.75-1.32,29.61-.25,44.38-.94"/><path class="b" d="M8.54,121.35c5.2.36,10.45.8,15.66.93,4.04.05,8.14-.3,12.18-.15,5.58.11,8.27,1.81,12.18,5.52,4.86,3.21,6.08-7.89,11.31-6.89,4.04,0,8.14,0,12.18,0,2.92.05,6.02-.38,8.7,1.03,2.12.88,4.22,2.13,6.09,3.45,1.06.73,2.33,1.61,3.48,2.19.75.5,1.84.47,2.61.02,2.76-1.08,5.73-1.89,8.7-2.1,3.16-.25,6.41-.09,9.57-.11,3.17.03,6.41-.17,9.57-.13,4.22-.11,8.16,1.6,12.18,2.6,1.71.14,3.51-.63,5.22-.78,2.85-.43,5.82-.66,8.7-.79,12.17-.58,24.39.25,36.55-.45"/><path class="b" d="M8.54,120.24c6.06.46,12.2.76,18.27.49,6.75-.2,14.78-1.71,20.01,3.65,2.22,2.2,3.83,3.22,6.09.34,1.75-2.02,3.2-5.22,6.09-5.7,3.46-.02,6.98,0,10.44,0,2.84.15,5.99-.43,8.7.49,2.35.8,4.78,1.73,6.96,2.92,2.29,1.23,4.47,2.94,6.96,3.75,8.55-3.31,13.84-2.46,22.63-2.57,3.75-.04,7.59-.43,11.31.14,2.05.29,4.12,1.02,6.09,1.61,1.08.27,2.36.84,3.48.6,7.4-1.72,15.07-1.85,22.63-1.81,8.4-.05,16.85.32,25.24-.26"/><path class="b" d="M8.54,119.1c5.2.39,10.46.46,15.66.23,3.75-.18,7.55-.61,11.31-.63,4.98-.13,8.68,1.1,12.18,4.69,5.04,5.2,6.76-6.52,12.18-6.12,4.92,0,9.88,0,14.79,0,2.38.19,4.69,1.36,6.96,2.04,3.04,1.01,5.88,2.67,8.7,4.15.75.36,1.77.82,2.61.89,1.09-.34,2.39-.75,3.48-1.08,2.51-.76,5.21-1.16,7.83-1.26,3.46-.13,6.98,0,10.44-.05,3.17,0,6.4-.29,9.57-.22,4.21-.04,8.16,1.63,12.18,2.6,4.28-.94,8.67-1.65,13.05-1.83,11.3-.52,22.65.4,33.94-.43"/><path class="b" d="M8.54,117.87c4.91.3,9.88.3,14.79-.02,4.04-.26,8.13-.8,12.18-.88,4.97-.18,8.69.99,12.18,4.6,5.04,5.29,6.68-6.02,12.18-6.04,4.91.02,9.88-.09,14.79.05,2.9.79,5.83,1.84,8.7,2.75,2.68.91,5.26,2.33,7.83,3.49.75.32,1.78.74,2.61.76,1.4-.39,2.94-.9,4.35-1.26,2.53-.66,5.23-.93,7.83-.99,3.46-.09,6.98.02,10.44-.04,3.17-.03,6.4-.34,9.57-.28,4.2-.03,8.16,1.62,12.18,2.6,4-.87,8.09-1.63,12.18-1.85,11-.57,22.07.36,33.07-.48"/><path class="b" d="M8.54,116.49c4.63.18,9.31.21,13.92-.16,4.05-.29,8.13-.88,12.18-1.07,5.29-.31,9.3.54,13.05,4.47,5.14,5.49,6.71-5.65,12.18-5.91,4.62-.08,9.3-.01,13.92-.03,1.76.27,3.52,1.08,5.22,1.56,3.22.93,6.52,1.89,9.57,3.3,1.95.83,3.99,1.85,6.09,2.22,2.83-.82,5.75-1.73,8.7-1.99,6.35-.6,12.78-.01,19.14-.47,3.46-.22,7.04-.34,10.44.48,1.72.39,3.52,1.03,5.22,1.5,1.07.39,2.38.56,3.48.16,6.83-1.65,13.89-1.89,20.89-1.74,6.95.05,13.95.14,20.89-.32"/><path class="b" d="M8.54,114.96c4.33.09,8.73.16,13.05-.2,4.34-.31,8.7-1.01,13.05-1.25,5.24-.36,9.35.43,13.05,4.37,5.35,5.76,6.8-5.39,12.18-5.78,4.62-.12,9.3-.03,13.92-.04,2.05.41,4.07,1.34,6.09,1.87,3.22.88,6.49,1.85,9.57,3.14,1.95.8,4.04,1.58,6.09,2.04,2.88-.59,5.75-1.65,8.7-1.89,6.64-.7,13.36-.04,20.02-.56,3.16-.22,6.44-.38,9.57.22,2.93.48,5.75,1.91,8.7,2.21,5.41-1.26,10.97-2.11,16.53-2.06,8.11-.04,16.26.18,24.37-.32"/><path class="b" d="M8.54,113.26c4.33.04,8.73.15,13.05-.21,4.63-.34,9.28-1.14,13.92-1.35,4.9-.29,8.77.66,12.18,4.33,5.59,6.05,6.83-5.17,12.18-5.67,4.62-.15,9.3-.01,13.92-.06,2.07.29,4.08,1.3,6.09,1.83,3.8,1.04,7.64,2.18,11.31,3.6,1.95.62,4.03,1.51,6.09,1.57,3.12-.85,6.34-1.68,9.57-1.91,7.23-.57,14.53.05,21.76-.67,3.19-.2,6.51-.04,9.57.95,1.39.39,2.95.87,4.35,1.25,1.07.36,2.38.58,3.48.19,5.97-1.43,12.14-1.99,18.27-1.86,6.37.01,12.78.02,19.14-.31"/><path class="b" d="M8.54,111.42c4.04.04,8.15.18,12.18-.09,4.64-.28,9.29-1.06,13.92-1.37,5.27-.32,8.16,0,12.18,3.61,7.28,7.29,6.88-3.81,13.05-4.97,4.91-.11,9.88-.05,14.79-.02,2.05.41,4.08,1.36,6.09,1.92,3.78,1.06,7.6,2.21,11.31,3.5,1.96.64,4.08,1.18,6.09,1.63,3.42-.86,6.92-1.73,10.44-2,7.23-.65,14.53.03,21.76-.76,3.2-.3,6.48-.03,9.57.89,1.4.36,2.96.82,4.35,1.2,1.08.25,2.36.8,3.48.56,4.29-.92,8.66-1.77,13.05-1.96,7.53-.22,15.1-.06,22.63-.38"/><path class="b" d="M8.54,109.47c4.33.11,8.73.29,13.05,0,4.64-.3,9.28-1.07,13.92-1.31,4.91-.64,9.29,2.2,13.05,5.02,5.85,4.71,6.71-7.02,12.18-6.34,4.92.02,9.88-.03,14.79.02,2.07.37,4.08,1.38,6.09,1.96,4.05,1.19,8.14,2.49,12.18,3.71,1.69.45,3.52.91,5.22,1.29,1.12.1,2.39-.39,3.48-.6,1.38-.32,2.95-.64,4.35-.85,5.17-.82,10.45-.93,15.66-.84,4.35.09,8.71-.54,13.05-.62,3.52.32,7.04,1.18,10.44,2.12,1.08.3,2.39.63,3.48.87.78.03,1.85-.22,2.61-.38,2.85-.59,5.8-1.13,8.7-1.41,7.51-.63,15.1-.29,22.63-.58"/><path class="b" d="M8.54,107.43c4.33.22,8.72.43,13.05.18,4.35-.25,8.71-.9,13.05-1.18,2.07-.3,4.16.39,6.09,1.05,3.1.99,5.96,2.7,8.7,4.41,2.86,2.02,5.32-1.5,6.96-3.49.74-.94,1.69-2.25,2.61-3.02.75-.37,1.8-.29,2.61-.29,5.2.07,10.47-.15,15.66.09,5.73,2,11.53,3.96,17.4,5.53,7.97,2.05,5.3,1.41,13.05.05,5.16-.87,10.43-1.27,15.66-1.15,4.05.12,8.14-.32,12.18-.53,3.79.23,7.63.76,11.31,1.72,1.99.47,4.06,1.15,6.09,1.39,3.45-.64,6.95-1.38,10.44-1.73,6.63-.66,13.36-.43,20.02-.58"/><path class="b" d="M8.54,105.35c4.03.33,8.14.57,12.18.45,4.35-.15,8.72-.75,13.05-1.06,1.73-.12,3.55.64,5.22,1.03,3.64.95,7.14,2.54,10.44,4.32,3.09,1.99,5.86-1.6,7.83-3.64,1.66-1.76,2.5-3.48,5.22-3.11,3.46,0,6.98,0,10.44,0,1.99.08,4.13-.18,6.09.16,5.4,2.07,10.91,4.01,16.53,5.39,2.29.49,4.65,1.17,6.96,1.51,1.7-.34,3.52-.74,5.22-1.06,5.16-.95,10.41-1.72,15.66-1.71,3.75,0,7.57-.02,11.31-.33,3.46.25,7.01.29,10.44.85,2.31.35,4.69.92,6.96,1.48,1.98.5,4.06,1.1,6.09.48,8.29-1.65,16.81-1.98,25.24-1.71"/><path class="b" d="M8.54,103.27c4.6.54,9.29.87,13.92.64,2.29-.11,4.68-.32,6.96-.52,1.4-.07,2.98-.45,4.35-.05,5.69,1.16,11.23,3,16.53,5.36,2.7,1.05,5.95-2.36,7.83-4.02,2.12-1.97,2.93-3.43,6.09-3.08,5.21,0,10.46-.01,15.66,0,2.09.42,4.07,1.61,6.09,2.28,3.4,1.24,6.92,2.35,10.44,3.16,2.58.5,5.21,1.37,7.83,1.58,6.34-1.17,12.68-2.75,19.14-3,3.46-.12,6.99-.08,10.44-.19,3.43.5,6.99.39,10.44.64,5.01.26,9.89,1.66,14.79,2.58,3.18-.13,6.39-.98,9.57-1.22,4.89-.53,9.88-.66,14.79-.4"/><path class="b" d="M8.54,101.22c4.59.7,9.28,1.11,13.92.94,2-.07,4.1-.21,6.09-.36,1.1-.05,2.41-.33,3.48.02,6.19,1.33,12.33,2.98,18.27,5.15,2.52.81,5.84-1.84,7.83-3.24,2.15-1.47,4.09-4.21,6.96-3.86,5.5,0,11.04-.01,16.53,0,2.11.44,4.07,1.71,6.09,2.41,3.09,1.19,6.34,2.21,9.57,2.92,2.58.56,5.24,1.2,7.83,1.68,5.85-.47,11.54-2.62,17.4-3.17,3.15-.36,6.4-.34,9.57-.36,3.42.63,6.95.96,10.44.94,3.17.05,6.43.18,9.57.66,3.48.5,6.97,1.39,10.44,1.95,1.09.21,2.4-.15,3.48-.26,1.39-.19,2.96-.38,4.35-.52,4.32-.44,8.72-.59,13.05-.41"/><path class="b" d="M8.54,99.21c4.28.8,8.69,1.32,13.05,1.29,2-.02,4.1-.12,6.09-.23,1.44-.22,2.96.06,4.35.44,6.12,1.37,12.25,2.82,18.27,4.56,2.75.57,7.24-2.32,9.57-3.79,2.17-1.29,4.24-3.61,6.96-3.35,3.75,0,7.56,0,11.31,0,1.99.09,4.14-.2,6.09.17,3.68,1.64,7.38,3.42,11.31,4.4,3.72.93,7.54,1.77,11.31,2.48,5.03-.33,9.86-2.32,14.79-3.28,3.12-.66,6.39-.92,9.57-.91,2.48.92,5.2,1.37,7.83,1.53,4.62.26,9.31,0,13.92.47,4.38.4,8.71,1.45,13.05,2.09,2.28.37,4.68-.31,6.96-.41,3.45-.3,6.98-.42,10.44-.34"/><path class="b" d="M8.54,97.17c6.26,1.53,12.73,1.86,19.14,1.57,4.04.88,8.12,1.84,12.18,2.63,2.29.45,4.68.96,6.96,1.48,1.68.31,3.52,1.07,5.22.55,3.36-.75,6.58-2.23,9.57-3.89,2.23-1.08,4.38-3.1,6.96-3.13,5.5,0,11.04,0,16.53,0,2.45.37,4.61,2.16,6.96,2.94,5.29,2.08,10.98,3.06,16.53,4.17,3.88-.21,7.63-1.76,11.31-2.89,3.35-1.04,6.9-2.09,10.44-1.99,1.35.59,2.92,1.12,4.35,1.47,7.12,1.69,14.54.4,21.76,1.23,4.95.47,9.85,1.63,14.79,2.14,4.03-.04,8.13-.63,12.18-.49"/><path class="b" d="M8.54,95.77c2.05-.22,4.1.3,6.09.7,2.85.51,5.81.78,8.7.77,1.43-.08,2.96.37,4.35.64,1.99.41,4.1.84,6.09,1.23,4.6.95,9.3,1.59,13.92,2.42,3.21.78,6.5-.49,9.57-1.36,2.66-.87,5.32-2.01,7.83-3.24,1.67-.78,3.4-1.85,5.22-2.25,5.78-.04,11.63-.13,17.4.04,3.16,1.39,6.19,3.3,9.57,4.19,3.99,1.11,8.12,1.98,12.18,2.76,2.33.42,4.76-.67,6.96-1.33,3.18-1.13,6.32-2.63,9.57-3.54,1.07-.29,2.37-.6,3.48-.68.41.19,1.32.56,1.74.74,8.25,3.62,17.39,2,26.11,2.49,6.13.34,12.16,1.81,18.27,2.27,2.57.27,5.25-.09,7.83-.05"/><path class="b" d="M8.54,94.69c11.18.06,22.01,3.36,33.07,4.54,2.87.21,5.83,1.12,8.7.66,4.73-.64,9.44-1.82,13.92-3.45,2.93-.99,5.73-2.58,8.7-3.44,3.44-.25,6.99-.03,10.44-.1,1.4,0,2.96,0,4.35,0,.81-.02,1.88-.02,2.61.38,3.51,2.1,7.29,3.87,11.31,4.7,3.15.75,6.38,1.5,9.57,2.07,1.11.21,2.41-.24,3.48-.51,2.07-.6,4.16-1.53,6.09-2.47,1.96-.95,4.03-2,6.09-2.71.41-.14,1.31-.4,1.74-.51.82.08,1.85.57,2.61.87,9.33,3.98,17.29,2.67,26.98,2.73,8.46.17,16.76,2.41,25.24,2.35"/><path class="b" d="M8.54,93.66c12.83.86,25.43,4.04,38.29,4.65,9.23-.8,18.42-2.71,26.98-6.32,2.72-1.25,5.81-.74,8.7-.83,1.99,0,4.1,0,6.09,0,1.1.04,2.47-.18,3.48.38,1.68.98,3.43,2.16,5.22,2.93,2.47,1.11,5.21,1.76,7.83,2.38,1.69.4,3.52.81,5.22,1.16,1.08.2,2.39.62,3.48.29,5.43-.98,9.61-5.1,14.79-6.69,13.37,5.29,17.59,4.36,31.33,3.97,7.88-.09,15.63,1.81,23.5,2.01"/><path class="b" d="M8.54,92.62c11.31,1.21,22.56,3.3,33.94,3.9,4.93-.04,9.9-.78,14.79-1.35,7.46-.95,14.76-2.92,21.76-5.65,1.98-.25,4.1-.06,6.09-.12,2.58.03,5.26-.07,7.83.05,2.09.99,3.95,2.64,6.09,3.55,3.3,1.46,6.94,2.18,10.44,3,1.39.25,2.93.79,4.35.68,4.98-.72,8.76-4.36,13.05-6.63.39-.2,1.3-.47,1.74-.51.43.11,1.32.36,1.74.51,1.09.37,2.39.82,3.48,1.18,2.82.94,5.77,1.8,8.7,2.31,6.9,1.27,13.94.13,20.89.11,6.7-.05,13.34,1.27,20.02,1.63"/><path class="b" d="M8.54,91.55c8.1,1.1,16.21,2.31,24.37,2.85,2.29.15,4.67.43,6.96.45,2.58-.15,5.25-.45,7.83-.62,8.75-.64,17.59-1.39,26.11-3.63,1.73-.45,3.59-.98,5.22-1.72,1.07-.46,2.29-1.21,3.48-1.2,3.75,0,7.56,0,11.31,0,1.32.07,2.43,1.3,3.48,1.99,1.03.74,2.34,1.53,3.48,2.08,3.58,1.55,7.51,2.35,11.31,3.16,3.44.55,6.83-1.51,9.57-3.38,2.37-1.59,4.69-4.36,7.83-3.79,6.6,1.75,13.09,4.42,20.02,4.6,5.8.29,11.61-.65,17.4-.61,5.52-.02,11.04.84,16.53,1.26"/><path class="b" d="M8.54,90.42c8.35,1.34,16.78,2.28,25.24,2.64,6.96-.23,13.93-.85,20.89-1.23,7.29-.48,14.62-1.22,21.76-2.82,1.77-.41,3.61-1.1,5.22-1.92.76-.39,1.78-.95,2.61-1.15.44,0,1.3-.02,1.74-.01,1.99,0,4.1,0,6.09,0,1.4.12,3.15-.38,4.35.5,1.6,1.39,3.34,2.9,5.22,3.9,1.62.8,3.48,1.41,5.22,1.88,2.24.49,4.65,1.44,6.96,1.02,4.46-.72,7.86-3.92,11.31-6.56.95-.73,2.33-.8,3.48-.73,1.74-.11,3.58.2,5.22.76,6.22,1.89,12.58,3.87,19.14,3.88,5.22.08,10.45-.75,15.66-.83,4.93-.12,9.89.46,14.79.92"/><path class="b" d="M8.54,89.22c6.33,1.04,12.73,1.83,19.14,2.08,9.85-.37,19.73-1.05,29.59-1.46,6.97-.43,14.03-.9,20.89-2.28,2.78-.56,5.33-1.98,7.83-3.25,1.38-.22,2.96-.08,4.35-.12,1.99,0,4.1,0,6.09,0,1.68.86,2.8,2.81,4.35,3.88,1.98,1.59,4.53,2.43,6.96,3.05,3.01.92,5.9.54,8.7-.84,2.92-1.31,5.28-3.67,7.83-5.53,1.51-.94,3.53-.43,5.22-.56,4.58-.35,8.67,1.56,13.05,2.6,4.52,1.23,9.23,2.03,13.92,1.9,4.64-.07,9.29-.82,13.92-.97,4.34-.17,8.74.19,13.05.62"/><path class="b" d="M8.54,87.95c4.88.8,9.85,1.45,14.79,1.67,4.62-.29,9.3-.64,13.92-.84,10.72-.47,21.49-.61,32.2-1.46,4.67-.43,9.5-.63,13.92-2.33,1.8-.61,3.43-1.96,5.22-2.54,2.58.02,5.26-.07,7.83.05,2.4,1.85,4.2,4.64,6.96,6.07,7.25,3.61,12.81-.37,18.27-4.94.7-.53,1.69-1.18,2.61-1.18,1.4,0,2.96,0,4.35,0,2.88.09,5.9-.3,8.7.49,6.57,1.68,13.16,3.87,20.02,3.83,4.06.04,8.15-.56,12.18-.91,4.62,0,9.3.16,13.92.22"/><path class="b" d="M8.54,86.61c3.44.56,6.97,1.02,10.44,1.26,4.04-.22,8.14-.58,12.18-.79,8.4-.47,16.83-.59,25.24-.83,4.92-.12,9.88-.33,14.79-.64,3.47-.22,7.03-.39,10.44-1.12,2.76-.54,5.5-1.61,7.83-3.18.94-.73,2.36-.59,3.48-.59.79,0,1.88-.08,2.61.27,3.45,4.28,7.09,7.92,13.05,7.18,4.95-.92,9.48-3.58,13.05-7.07.72-.48,1.79-.39,2.61-.38,1.4,0,2.96,0,4.35,0,3.16.07,6.42-.15,9.57.12,6.1,1.14,12.05,3.35,18.27,3.79,3.46.36,6.99-.17,10.44-.26,5.5-.01,11.04.04,16.53-.15"/><path class="b" d="M8.54,85.2c2.57.4,5.24.78,7.83.93,3.75-.34,7.56-.63,11.31-.86,8.1-.54,16.25-.58,24.37-.77,6.08-.1,12.2-.23,18.27-.51,3.76-.17,7.59-.23,11.31-.79,2.65-.38,5.4-.95,7.83-2.11,1.45-.55,2.73-2.19,4.35-2.1,1.27,1.17,2.23,3.03,3.48,4.22,2.05,2.02,4.95,3.26,7.83,3.28,5.84-.43,11.83-3.5,16.53-6.88.95-.76,2.34-.64,3.48-.63,1.09,0,2.39,0,3.48,0,3.75,0,7.56,0,11.31,0,5.3.48,10.4,2.42,15.66,3.14,2.56.44,5.25.34,7.83.5,6.64.53,13.37.17,20.02-.08"/><path class="b" d="M8.54,83.73c1.98.25,4.09.71,6.09.62,3.74-.38,7.56-.71,11.31-.95,7.81-.54,15.67-.57,23.5-.7,7.53-.1,15.1-.22,22.63-.48,7.32-.14,14.83-.44,21.76-2.99,1.85,3.46,5.65,5.65,9.57,5.46,1.74-.2,3.55-.74,5.22-1.24,4.55-1.25,9.02-2.96,13.05-5.44,1-.67,2.3-.91,3.48-.8,1.4,0,2.96,0,4.35,0,4.04,0,8.14,0,12.18,0,3.82-.13,7.6.92,11.31,1.68,1.97.44,4.08.81,6.09,1.02,1.4.25,2.93.74,4.35.91,6.62.85,13.37.41,20.02.07"/><path class="b" d="M8.54,82.2c1.1.16,2.38.33,3.48.44,2-.07,4.1-.42,6.09-.58,4.03-.39,8.13-.67,12.18-.84,12.46-.47,24.96-.27,37.42-.63,3.75-.13,7.56-.08,11.31-.22,4.34-.16,8.71-.65,13.05-.69.46-.03,1.32.12,1.74.3.39.44,1.25,1.22,1.74,1.53,2.03,1.2,4.64,1.78,6.96,1.25,2.61-.6,5.25-1.47,7.83-2.18,3.87-1.03,7.75-2.29,11.31-4.15.74-.37,1.79-.83,2.61-.94.77,0,1.84,0,2.61,0,2.29,0,4.68,0,6.96,0,4.62,0,9.3-.02,13.92.01,2.61.12,5.27.62,7.83,1.09,1.15.13,2.4.77,3.48,1.17,1.64.61,3.49,1.08,5.22,1.37,6.32.93,12.79.61,19.14.23"/><path class="b" d="M8.54,80.62c2.59.6,5.24-.02,7.83-.29,4.03-.45,8.13-.78,12.18-.96,11.01-.46,22.05-.23,33.07-.47,5.79-.12,11.62-.22,17.4-.23,3.75-.07,7.57-.37,11.31.01,1.54.11,3.09.72,4.35,1.6,1.31.63,2.91.91,4.35.97,2.66-.23,5.26-1.28,7.83-1.92,3.45-.95,7.04-1.72,10.44-2.83,2.04-.63,4.1-1.58,6.09-2.36,1.33-.54,2.95-.35,4.35-.38,1.69,0,3.53,0,5.22,0,4.62,0,9.3,0,13.92,0,2.57.09,5.28-.22,7.83.19,3.14,1.14,6.24,2.69,9.57,3.24,6.29,1.15,12.79.97,19.14.58"/><path class="b" d="M8.54,78.99c2.29.49,4.67-.2,6.96-.41,3.74-.46,7.55-.84,11.31-1.04,10.43-.51,20.89-.2,31.33-.4,8.11-.17,16.25-.26,24.37-.27,2.59,0,5.29-.01,7.83.54,2.08.42,3.93,1.88,6.09,2.02,2.97.34,5.86-1.1,8.7-1.74,3.43-.94,7.01-1.6,10.44-2.52,3.25-.76,6.37-2.22,9.57-3.1,1.69-.12,3.53-.03,5.22-.06,8.11.05,16.26-.09,24.37.05,3.23.82,6.27,2.5,9.57,3.11,6.26,1.33,12.78,1.28,19.14.97"/><path class="b" d="M8.54,77.3c2.29.47,4.68-.32,6.96-.53,3.73-.52,7.55-.95,11.31-1.14,10.14-.47,20.31-.09,30.46-.3,7.53-.09,15.09-.42,22.63-.24,3.46.01,7.08-.13,10.44.84,1.44.42,2.86,1.37,4.35,1.62,2.64.64,5.3-.54,7.83-1.17,3.13-.88,6.39-1.56,9.57-2.21,2.91-.62,5.88-1.35,8.7-2.29,1.39-.45,2.94-1.04,4.35-1.42,1.07-.27,2.39-.17,3.48-.18,8.69,0,17.41,0,26.11,0,1.78.15,3.55.98,5.22,1.55,1.94.7,4.06,1.28,6.09,1.67,5.71,1.07,11.61,1.15,17.4.93"/><path class="b" d="M8.54,75.58c2.29.53,4.68-.32,6.96-.59,3.44-.56,6.96-1.03,10.44-1.24,10.14-.54,20.31-.03,30.46-.25,7.53-.05,15.09-.53,22.63-.32,3.46.09,7.07-.13,10.44.81,1.46.4,2.86,1.39,4.35,1.7,2.01.61,4.14,0,6.09-.55,2.56-.7,5.23-1.38,7.83-1.91,3.77-.74,7.62-1.44,11.31-2.49,2.88-.67,5.7-2.24,8.7-2.21,9.27.02,18.57-.03,27.85.02,3.53.65,6.89,2.28,10.44,2.88,5.71,1.14,11.6,1.34,17.4,1.16"/><path class="b" d="M8.54,73.88c2.3.56,4.69-.38,6.96-.71,3.43-.66,6.96-1.19,10.44-1.4,9.85-.49,19.73.11,29.59-.11,7.53-.04,15.09-.57,22.63-.5,3.75.17,7.67-.18,11.31.92,1.05.58,2.32,1.27,3.48,1.6.76.22,1.82.44,2.61.52,1.11-.06,2.4-.41,3.48-.67,2.28-.58,4.66-1.19,6.96-1.67,3.45-.72,7.01-1.27,10.44-2.1,3.22-.71,6.41-1.8,9.57-2.71,1.36-.38,2.95-.24,4.35-.26,2.29,0,4.68,0,6.96,0,6.37.02,12.78-.04,19.14.02,3.51.62,6.91,2.08,10.44,2.65,5.43,1.03,11.02,1.31,16.53,1.16"/><path class="b" d="M8.54,72.23c2.02.49,4.12-.37,6.09-.75,2.84-.67,5.8-1.23,8.7-1.54,7.22-.69,14.52-.17,21.76-.14,6.66.09,13.36.02,20.02-.26,7.23-.3,14.53-.79,21.76-.21,1.25.02,2.41.94,3.48,1.45,1.05.5,2.35.96,3.48,1.23,1.7.57,3.54.27,5.22-.2,2.28-.54,4.66-1.11,6.96-1.58,6.44-1.17,12.91-2.43,19.14-4.47,1.92-.71,4.07-.78,6.09-.72,1.99,0,4.1,0,6.09,0,6.37,0,12.78,0,19.14,0,3.52.06,6.94,1.72,10.44,2.24,5.42,1.05,11.02,1.4,16.53,1.24"/><path class="b" d="M8.54,70.64c2.04.37,4.13-.64,6.09-1.1,2.82-.81,5.78-1.44,8.7-1.76,7.23-.65,14.52.06,21.76.11,6.37.12,12.78.07,19.14-.24,7.24-.29,14.51-1.16,21.76-.83.85.23,1.83.89,2.61,1.28,1.62.8,3.47,1.46,5.22,1.91,1.37.32,2.95.77,4.35.38,2.29-.45,4.67-1.02,6.96-1.49,5.23-1.02,10.54-1.93,15.66-3.41,2.59-.67,5.2-1.66,7.83-2.13,2.57-.15,5.25-.02,7.83-.06,6.66,0,13.36,0,20.02,0,3.86-.26,7.54,1.38,11.31,1.94,5.15.91,10.44,1.25,15.66,1.06"/><path class="b" d="M8.54,69.06c1.79.12,3.57-.72,5.22-1.3,2.23-.83,4.62-1.52,6.96-1.92,7.76-1.25,15.69.05,23.5.11,13.38.57,26.73-.62,40.03-1.9,2.73,1.56,5.63,2.95,8.7,3.68,1.96.42,4.08,1.19,6.09.99,6.97-1.4,14.05-2.52,20.89-4.51,3.17-.83,6.33-2.04,9.57-2.58,3.16-.14,6.41-.02,9.57-.06,7.24.03,14.52-.06,21.76.03,2.9.45,5.79,1.34,8.7,1.73,4.59.68,9.29.93,13.92.68"/><path class="b" d="M8.54,67.33c1.55.15,3.03-.76,4.35-1.44,1.35-.7,2.9-1.38,4.35-1.83,4.49-1.44,9.28-1.34,13.92-.94,3.75.28,7.56.59,11.31.77,6.65.32,13.36.37,20.02,0,4.64-.24,9.31-.8,13.92-1.38,2-.13,4.1-.89,6.09-.7,3.08,1.4,6.33,2.6,9.57,3.58,2.83.7,5.79,1.48,8.7,1.62,5.24-.91,10.55-1.77,15.66-3.24,3.77-1.07,7.53-2.4,11.31-3.4.75-.25,1.83-.15,2.61-.15,1.4,0,2.96-.1,4.35-.22,8.1-.41,16.26-.05,24.37-.17,1.39.03,2.97-.08,4.35.1,2.29.4,4.66.99,6.96,1.3,4.3.61,8.72.77,13.05.44"/><path class="b" d="M8.54,65.59c.96.16,1.94-.45,2.61-1.05,1.04-.89,2.27-1.89,3.48-2.53,7.36-3.68,15.74-1.01,23.5-.49,6.64.62,13.35.85,20.02.66,5.82-.15,11.67-.76,17.4-1.75,1.4-.2,2.94-.6,4.35-.74,2.26.78,4.65,1.53,6.96,2.16,5.44,1.38,10.94,2.9,16.53,3.46,3.78-.55,7.64-1.14,11.31-2.22,2.62-.77,5.26-1.77,7.83-2.69,1.95-.66,3.99-1.67,6.09-1.28,4.09.36,8.15-.62,12.18-1.03,5.5,0,11.04,0,16.53,0,3.16.1,6.44-.26,9.57.26,5.41,1.12,11.02,1.61,16.53,1.01"/><path class="b" d="M8.54,63.85l.87-.03c1.49-2.7,2.62-6.02,6.09-6.56,6.72-1.28,13.41.62,20.01,1.69,8.33,1.28,16.82,1.61,25.24,1.23,3.77-.18,7.59-.58,11.31-1.23,1.4-.24,2.96-.55,4.35-.83.81-.34,1.82.06,2.61.26,6,1.58,12.18,2.52,18.27,3.61,3.16.55,6.39,1.18,9.57,1.58,2.01-.19,4.13-.51,6.09-.97,4.26-.91,8.11-3.19,12.18-4.62,4.04.09,8.18.37,12.18-.38,2-.33,4.08-.95,6.09-1.21,1.99-.09,4.1-.02,6.09-.04,5.21,0,10.46,0,15.66,0,2.91-.17,5.83.43,8.7.79,3.15.34,6.42.33,9.57-.06"/><path class="b" d="M8.54,61.75c1.54-2.33,2.33-6.03,5.22-7.07,1.39-.17,2.95-.06,4.35-.09,2.87.03,5.83-.07,8.7.05,1.73.18,3.54.67,5.22,1.09,7.93,2.08,16.19,2.75,24.37,2.69,6.12-.04,12.3-.59,18.27-1.95,2.89.34,5.8,1.16,8.7,1.51,4.9.73,9.88,1.22,14.79,1.86,2.88.37,5.83.81,8.7,1.24,1.98.19,4.1.9,6.09.51,2.39-.41,4.79-1.26,6.96-2.33,1.41-.59,2.8-1.79,4.35-1.95,4.31-.58,8.74-.1,13.05-.71,3.23-.35,6.37-1.52,9.57-1.98,3.75-.08,7.56,0,11.31-.03,4.62.01,9.3-.02,13.92.01,3.74.39,7.57.7,11.31.19"/><path class="b" d="M8.54,58.4c1.89-2.61,4.37-5.38,7.83-5.51,4.62-.1,9.3-.03,13.92-.03,3.52.48,6.92,1.88,10.44,2.41,5.72,1.04,11.6,1.35,17.4,1.27,4.95-.08,9.95-.5,14.79-1.52,2.86.52,5.81,1.04,8.7,1.35,7.51.85,15.11,1.09,22.63,1.9,2.59.29,5.27.57,7.83,1.04,1.4.16,2.96.97,4.35.54,2.75-.57,5.1-2.43,7.83-3.04,4.8-1.37,9.89-.87,14.79-1.52,4.12-.42,8.07-2.05,12.18-2.45,10.73-.02,21.47,0,32.2,0"/><path class="b" d="M8.54,55.9c4.15-5.25,11.37-4.81,17.4-4.78,2.58.05,5.26-.11,7.83.08,2.32.47,4.65,1.34,6.96,1.84,8.82,1.94,18.02,2.06,26.98,1.12,1.71-.15,3.53-.77,5.22-.23,2.85.54,5.82.86,8.7,1.11,6.94.56,13.94.62,20.89.96,3.76.22,7.61.34,11.31,1.08,1.73.25,3.48,1.21,5.22,1.2.79-.23,1.85-.65,2.61-.97,3.3-1.41,6.87-2.36,10.44-2.69,4.64-.33,9.37-.48,13.92-1.53,3.16-.64,6.36-1.54,9.57-1.88,4.03-.21,8.14-.03,12.18-.09,3.46,0,6.99,0,10.44,0,1.9,0,3.58,1.4,5.22,2.22"/><path class="b" d="M8.54,53.72c4.85-4.59,12.08-3.91,18.27-4.33,3.16.05,6.43-.19,9.57.12,2.31.56,4.64,1.4,6.96,1.89,4.55,1.01,9.27,1.38,13.92,1.45,4.05.05,8.17-.14,12.18-.68,3.44.61,6.96,1.15,10.44,1.37,10.13.75,20.32.3,30.46.66,3.26.08,6.56.7,9.57,1.97.75.34,1.85.41,2.61.04,1.09-.38,2.39-.85,3.48-1.22,5.58-2.01,11.59-1.88,17.4-2.55,3.77-.45,7.55-1.23,11.31-1.76,3.44-.45,6.98-.7,10.44-.8,12.77-.38,9.31,5.08,18.27,6.5"/><path class="b" d="M8.54,51.63c4.99-3.73,11.51-3.16,17.4-3.7,4.03-.33,8.15-.42,12.18-.22,3.17.76,6.33,1.93,9.57,2.39,4.58.75,9.29.95,13.92.85,2-.04,4.1-.19,6.09-.36,1.39.3,2.95.57,4.35.78,11.53,1.55,23.22,1.04,34.81.76,3.16-.04,6.43-.29,9.57.2,1.4.49,2.95,1.06,4.35,1.54,1.07.32,2.34.97,3.48.77,3.13-.97,6.32-2.05,9.57-2.56,3.73-.56,7.57-.65,11.31-1.06,6.06-.65,12.18-1.69,18.27-.9,2.36.24,4.78.87,6.96,1.81,2.28.96,4.55,2.27,6.96,2.86,1.95.48,4.1.32,6.09.34"/><path class="b" d="M8.54,49.58c1.12-.48,2.4-1.11,3.48-1.66,3.94-1.08,8.13-1.06,12.18-1.3,5.47-.3,11.08-1.24,16.53-.48,5.34,1.72,10.92,2.76,16.53,2.87,2.58.09,5.25.06,7.83-.09,1.41.13,2.95.53,4.35.72,10.35,1.54,20.9,1.39,31.33,1,4.63-.15,9.3-.64,13.92-.79,3.51.78,6.99,1.93,10.44,2.93,1.37.48,2.96-.52,4.35-.78,2.25-.66,4.64-1.21,6.96-1.52,4.03-.49,8.14-.66,12.18-1.03,4.03-.31,8.15-.72,12.18-.23,2,.33,4.13.64,6.09,1.16,2.33.6,4.66,1.54,6.96,2.24,3.07.99,6.41.9,9.57.49"/><path class="b" d="M8.54,47.54c1.42-.48,2.96-1.07,4.35-1.61,3.71-.64,7.56-.63,11.31-.8,5.5-.34,11.02-.92,16.53-.92,1.76-.05,3.53.78,5.22,1.16,2.25.6,4.65,1.04,6.96,1.3,3.15.36,6.4.47,9.57.41,2.29.31,4.66.87,6.96,1.13,10.08,1.3,20.32,1.29,30.46.85,4.35-.21,8.74-.59,13.05-1.13,4.09.58,8.22,1.35,12.18,2.51,1.08.25,2.36.85,3.48.62,2.28-.6,4.64-1.31,6.96-1.73,4.87-.86,9.87-.99,14.79-1.3,4.63-.21,9.4-.39,13.92.8,4.38.65,8.61,2.53,13.05,2.71,2-.16,4.11-.48,6.09-.75"/><path class="b" d="M8.54,45.51c1.71-.44,3.53-1,5.22-1.51,3.16-.27,6.4-.34,9.57-.39,4.92-.17,9.87-.67,14.79-.78,2.29-.04,4.68-.08,6.96.08,2.26.64,4.64,1.22,6.96,1.56,2.56.43,5.25.47,7.83.71,3.43.69,6.96,1.26,10.44,1.64,9.81,1.06,19.74,1.08,29.59.67,3.76-.19,7.59-.5,11.31-1.08,2.58.18,5.26.44,7.83.75,3.22.39,6.45,1.15,9.57,1.98,2,.67,4.11-.56,6.09-.87,3.12-.72,6.38-1.08,9.57-1.28,5.2-.31,10.47-.58,15.66-.12,5.27.56,10.41,2.17,15.66,2.84,2.59-.16,5.25-.65,7.83-.94"/><path class="b" d="M8.54,43.47c2.01-.37,4.09-.96,6.09-1.34,3.17-.15,6.41-.12,9.57-.18,5.21-.16,10.45-.59,15.66-.55,10-.16,19.69,2.81,29.59,3.75,10.1,1.03,20.32,1.09,30.46.73,2.29-.1,4.68-.27,6.96-.51,1.39-.14,2.95-.47,4.35-.29,3.75.21,7.58.28,11.31.75,2.92.35,5.85,1.08,8.7,1.78,1.73.07,3.52-.74,5.22-1.01,2.55-.52,5.24-.85,7.83-1.04,4.91-.32,9.89-.45,14.79-.09,5.27.38,10.41,1.9,15.66,2.43,2.88-.17,5.82-.71,8.7-.97"/><path class="b" d="M8.54,41.42c2.31-.27,4.66-.93,6.96-1.16,2.58-.04,5.25,0,7.83,0,5.21-.05,10.45-.41,15.66-.34,9.97-.03,19.7,2.59,29.59,3.5,9.82.95,19.73,1.08,29.59.86,2.58-.08,5.26-.21,7.83-.45,1.99-.32,4.09-.2,6.09-.11,3.75.11,7.57.04,11.31.39,3.22.27,6.44,1.01,9.57,1.76,2.32-.16,4.64-1.06,6.96-1.29,4.01-.6,8.13-.81,12.18-.81,3.76,0,7.59.2,11.31.72,3.17.47,6.37,1.23,9.57,1.5,1.39.24,2.97-.09,4.35-.24,1.99-.25,4.1-.49,6.09-.68"/><path class="b" d="M8.54,39.36c2.3-.23,4.68-.59,6.96-.97,2.58.01,5.25.08,7.83.11,5.5,0,11.04-.29,16.53-.09,9.65.3,19.11,2.58,28.72,3.36,9.54.82,19.15.99,28.72.86,3.17-.06,6.42-.18,9.57-.5,2.87.08,5.83.2,8.7.16,3.46-.02,7-.07,10.44.28,2.92.27,5.85.98,8.7,1.62,5.98-1.39,12.14-2.05,18.27-1.93,3.76.04,7.59.31,11.31.82,2.59.32,5.23.97,7.83,1.17,1.39.22,2.97-.09,4.35-.25,2.28-.28,4.67-.55,6.96-.75"/><path class="b" d="M8.54,37.26c2.6-.12,5.25-.56,7.83-.78,2.29.05,4.67.13,6.96.18,5.5.06,11.04-.15,16.53.14,9.34.47,18.53,2.48,27.85,3.21,12.43.95,24.96,1.27,37.42.63,4.62.05,9.3.23,13.92.05,3.46-.07,7.01-.05,10.44.45,2.32.24,4.65,1.11,6.96,1.27,5.4-1.26,11-1.75,16.53-1.68,6.42,0,12.8,1.02,19.14,1.9,3.76-.18,7.55-.94,11.31-1.15"/><path class="b" d="M8.54,35.13c2.59-.07,5.26-.31,7.83-.61,2.29.04,4.67.17,6.96.22,5.79.1,11.63-.04,17.4.41,9.02.7,17.95,2.51,26.98,3.15,12.15.9,24.38,1.13,36.55.71,5.49.26,11.04.26,16.53.04,3.17-.09,6.43-.07,9.57.34,2.31.29,4.67.92,6.96,1.35,5.12-1.14,10.42-1.64,15.66-1.59,6.41,0,12.79,1.03,19.14,1.76,3.75-.42,7.55-.97,11.31-1.23"/><path class="b" d="M8.54,32.97c3.47.1,6.98-.56,10.44-.39,6.95.35,13.95.13,20.89.71,8.73.74,17.37,2.47,26.11,3.13,12.15.99,24.37,1.12,36.55.9,2.58-.04,5.25.28,7.83.26,3.75.06,7.56-.09,11.31-.23,3.17-.11,6.42-.13,9.57.27,2.31.29,4.68.89,6.96,1.36,4.85-.95,9.84-1.49,14.79-1.45,6.11.02,12.21.91,18.27,1.59,4.05-.31,8.12-1,12.18-1.24"/><path class="b" d="M8.54,30.78c3.47.16,6.98-.32,10.44-.25,7.24.32,14.54.18,21.76.97,6.1.66,12.18,1.79,18.27,2.49,6.92.83,13.92,1.25,20.89,1.47,9.86.34,19.74-.12,29.59.46,6.37.23,12.77-.49,19.14-.31,3.52.07,7.02.92,10.44,1.65,2.85-.52,5.8-1.02,8.7-1.13,7.55-.68,15.13.42,22.63,1.24,4.35-.3,8.71-1,13.05-1.28"/><path class="b" d="M8.54,28.62c3.46.13,6.98-.09,10.44-.11,6.66.16,13.38.11,20.02.81,6.11.66,12.18,1.91,18.27,2.68,6.92.91,13.92,1.35,20.89,1.62,7.53.22,15.09.22,22.63.15,6.36.39,12.77.68,19.14.28,4.33-.2,8.74-.51,13.05.1,1.71.24,3.54.66,5.22,1.04,1.08.37,2.39.29,3.48,0,9.22-1.69,18.62-.69,27.85.42,4.64-.31,9.29-1.02,13.92-1.34"/><path class="b" d="M8.54,26.74c9.56.13,19.17-.34,28.72.34,8.46.87,16.76,3.04,25.24,3.77,11.85,1.2,23.78,1.23,35.68,1.14,2.59-.12,5.25.25,7.83.37,4.04.22,8.14.23,12.18.06,6.38-.29,12.89-.93,19.14.74.76.18,1.84.42,2.61.57,1.1.05,2.39-.32,3.48-.46,1.98-.31,4.09-.5,6.09-.54,6.39-.46,12.8.47,19.14,1.14,4.93-.35,9.87-1.07,14.79-1.42"/><path class="b" d="M8.54,25c6.37,0,12.78,0,19.14,0,3.75.06,7.57-.15,11.31.17,7.87,1,15.57,3.24,23.5,3.89,11.84,1.25,23.78,1.22,35.68,1.11,2.29-.08,4.67.31,6.96.4,3.75.22,7.56.28,11.31.17,5.2-.11,10.46-.79,15.66-.32,2.93.22,5.81,1.2,8.7,1.63,1.98-.36,4.09-.72,6.09-.89,6.97-.62,13.96.15,20.89.97,5.22-.41,10.45-1.16,15.66-1.54"/><path class="b" d="M8.54,23.26c6.95,0,13.93,0,20.89,0,4.04.08,8.16-.18,12.18.15,3.21.43,6.41,1.34,9.57,2.01,3.71.81,7.53,1.43,11.31,1.84,11.55,1.28,23.2,1.24,34.81,1.11,2.59-.08,5.25.37,7.83.46,4.04.23,8.14.28,12.18.13,4.91-.15,9.88-.78,14.79-.33,2.93.25,5.83,1.18,8.7,1.73,1.09-.18,2.39-.43,3.48-.59,7.51-1.12,15.14-.22,22.63.65,5.51-.49,11.02-1.3,16.53-1.71"/><path class="b" d="M8.54,21.52c11.59.06,23.22-.12,34.81.07,2.93.38,5.83,1.35,8.7,2,3.7.89,7.53,1.52,11.31,1.93,10.97,1.23,22.05,1.17,33.07,1.03,2.88-.08,5.82.42,8.7.5,4.33.23,8.72.26,13.05.07,4.91-.2,9.89-.83,14.79-.2,2.33.3,4.68,1.02,6.96,1.54,1.09.34,2.39-.18,3.48-.31,7.5-1.35,15.14-.3,22.63.53,5.8-.56,11.6-1.49,17.4-1.93"/><path class="b" d="M8.54,19.78c12.18.02,24.37-.05,36.55.03,2.95.37,5.81,1.51,8.7,2.17,3.7.92,7.53,1.51,11.31,1.9,10.11,1.08,20.31,1.02,30.46.88,3.17-.08,6.4.46,9.57.54,5.2.26,10.47.23,15.66-.13,4.03-.23,8.17-.6,12.18,0,2.63.32,5.2,1.46,7.83,1.73,1.39-.27,2.95-.57,4.35-.76,6.67-.97,13.39.23,20.02.86,6.09-.66,12.16-1.75,18.27-2.22"/><path class="b" d="M8.54,18.04c12.76.01,25.53-.02,38.29.01,2.96.38,5.8,1.66,8.7,2.31,3.69.93,7.53,1.48,11.31,1.86,9.53.97,19.15.87,28.72.72,3.75.08,7.55.59,11.31.64,5.21.2,10.47,0,15.66-.37,3.16-.19,6.42-.37,9.57.06,2.34.31,4.69,1.12,6.96,1.72,1.38.46,2.96-.23,4.35-.41,1.68-.31,3.52-.53,5.22-.59,2.88-.05,5.85.14,8.7.48,2.29.22,4.66.84,6.96.81,6.38-.81,12.73-2.13,19.14-2.63"/><path class="b" d="M8.54,16.3c13.34,0,26.69-.02,40.03.01,2.96.44,5.78,1.8,8.7,2.44,3.98.99,8.11,1.51,12.18,1.87,8.67.77,17.41.64,26.11.51,5.2.36,10.45.76,15.66.71,4.34.02,8.72-.37,13.05-.6,2.58-.12,5.28-.16,7.83.28,2.35.38,4.66,1.33,6.96,1.9,1.42.1,2.95-.52,4.35-.73,2.26-.44,4.66-.66,6.96-.55,2.29.14,4.69.35,6.96.72,1.98.23,4.09.91,6.09.7,3.49-.47,6.99-1.27,10.44-1.92,3.14-.56,6.4-.93,9.57-1.28"/><path class="b" d="M8.54,14.55c13.63,0,27.27,0,40.9,0,3,.08,5.79,1.74,8.7,2.36,4.53,1.18,9.26,1.72,13.92,2.07,8.1.7,16.26.24,24.37.42,5.77.48,11.61.71,17.4.54,4.34-.12,8.71-.64,13.05-.64,2.32,0,4.74.28,6.96.97,1.7.45,3.44,1.41,5.22,1.49,4.24-1.11,8.67-2.07,13.05-1.3,2,.26,4.11.63,6.09,1.04,1.38.24,2.95.64,4.35.36,3.52-.53,6.97-1.69,10.44-2.42,3.42-.73,6.98-1.13,10.44-1.59"/><path class="b" d="M8.54,12.81c14.21,0,28.43,0,42.64,0,1.47,0,2.98.68,4.35,1.15,1.67.6,3.5,1.15,5.22,1.56,4.84,1.12,9.85,1.56,14.79,1.85,6.36.34,12.78.22,19.14.13,4.33.34,8.71.61,13.05.64,6.96.24,13.93-1.03,20.89-.59,2.7.19,5.33,1.19,7.83,2.17,1.69.79,3.55-.28,5.22-.63,1.95-.5,4.08-.82,6.09-.84,4.46-.25,8.64,2.08,13.05,2.02,3.62-.42,6.95-2.21,10.44-3.11,3.96-1.1,8.13-1.51,12.18-2.16"/></svg>