<?xml version="1.0" encoding="UTF-8"?><svg id="a" xmlns="http://www.w3.org/2000/svg" width="1920" height="2400" viewBox="0 0 192 240"><defs><style>.b{fill:none;stroke:#fff;stroke-miterlimit:10;stroke-width:.3px;}.c{stroke-width:0px;}</style></defs><rect class="c" width="192" height="240"/><path class="b" d="M8.1,225.23c2.31.19,4.76.26,7,.94,2.01.59,3.94,1.98,6.12,1.72,2.04.08,3.35-1.99,4.37-3.46,2.54-3.77,2.29-4.3,7-4.08,3.18,0,6.44,0,9.62,0,3.08-.29,5.95,1.1,8.75,2.17,2.51.95,5.21,1.63,7.87,1.97,5.2.65,10.51.63,15.74.8,4.94.13,9.92.4,14.87.41,10.79-.12,21.64-.31,32.36,1.2,2,.21,4.11.55,6.12.63,2.89-.26,5.86-.6,8.75-.84,3.77-.34,7.61-.59,11.37-1.06,4.06-.66,8.17-1.36,12.24-1.9,2.9-.43,5.89-.88,8.75-1.52,1.97-.29,4.16-1.23,6.12-1.12,2.74,1.26,5.76,2.07,8.75,2.51"/><path class="b" d="M8.1,224.05c1.71.3,3.58.46,5.25.98,1.4.38,2.91,1,4.37,1.1,2.44-.11,4.43-1.91,6.12-3.49,1.72-1.64,3.69-3.44,6.12-3.83,2.87-.35,5.88-.28,8.75.04,3.61.52,7,2.1,10.5,3.06,3.39.97,6.98,1.41,10.5,1.55,9.61.18,19.25.43,28.86.55,10.21-.14,20.47-.35,30.61,1.01,2.59.24,5.27.73,7.87.75,3.48-.29,7.02-.66,10.5-.94,7.58-.61,15.2-1.19,22.74-2.24,2.91-.38,5.9-.84,8.75-1.54,1.09-.25,2.41-.58,3.5-.87.76-.2,1.83-.61,2.62-.35,2.77,1.12,5.79,1.78,8.75,2.19"/><path class="b" d="M8.1,222.82c2.34.3,4.66,1.18,7,1.51,8.68-1.85,8.52-9.18,22.74-5.94,4.35,1.11,8.64,2.7,13.12,3.22,5.79.73,11.68.39,17.49.43,6.99,0,14,.35,20.99.22,5.23-.05,10.51-.21,15.74-.03,4.96.16,9.94.71,14.87,1.27,1.7.19,3.54.38,5.25.53,3.77-.21,7.6-.64,11.37-.89,7.57-.51,15.2-.78,22.74-1.73,3.21-.37,6.49-.84,9.62-1.66,1.09-.27,2.41-.62,3.5-.93.76-.21,1.82-.67,2.62-.38,2.8.96,5.81,1.52,8.75,1.91"/><path class="b" d="M8.1,221.48c1.7.31,3.5,1.1,5.25,1,2.51-.54,4.78-2.02,7-3.24,4.89-3.07,10.31-3.08,15.74-1.64,4.31,1.1,8.66,2.4,13.12,2.77,6.1.55,12.26.06,18.37.06,7.57,0,15.17.29,22.74.1,4.94-.08,9.93-.19,14.87.04,4.96.21,9.94.81,14.87,1.35,2,.18,4.12.54,6.12.3,3.47-.27,7.02-.55,10.49-.74,7.57-.39,15.2-.52,22.74-1.4,3.22-.32,6.49-.82,9.62-1.66,1.09-.28,2.42-.64,3.5-.98.76-.23,1.81-.72,2.62-.44,2.83.82,5.83,1.31,8.75,1.68"/><path class="b" d="M8.1,220.12c1.39.37,2.97.94,4.37.34,3.01-1.06,5.74-2.96,8.75-4.02,4.81-1.84,10.06-.73,14.87.53,3.99,1.04,8.11,1.9,12.24,2.09,5.82.3,11.67-.2,17.49-.27,6.99-.09,14,.2,20.99.04,9.92-.27,19.88-.24,29.74,1.08,2.29.25,4.69.5,7,.67,4.06-.21,8.18-.6,12.24-.76,7.86-.34,15.78-.34,23.61-1.2,3.22-.28,6.5-.81,9.62-1.67,1.1-.29,2.42-.67,3.5-1.02.76-.24,1.8-.75,2.62-.52,2.85.69,5.84,1.14,8.75,1.5"/><path class="b" d="M8.1,218.71c2.48.95,4.83-.99,7-1.97,7.14-3.96,12.67-2.79,20.12-.83,9.13,2.54,18.65,1.57,27.99,1.25,5.23-.17,10.51,0,15.74,0,5.53,0,11.09-.17,16.62-.21,8.78-.21,17.51,1.04,26.24,1.81,4.64.12,9.34-.58,13.99-.63,5.82-.23,11.68-.15,17.49-.53,6.81-.36,13.7-1.09,20.12-3.53,1.32-.74,2.98,0,4.37.16,1.99.33,4.12.62,6.12.86"/><path class="b" d="M8.1,217.22c.87.17,1.86-.28,2.62-.65,1.42-.72,2.93-1.64,4.37-2.31,5.98-3.01,12.27-1.37,18.37.23,8.28,2.22,16.91,1.56,25.36,1.11,6.69-.36,13.42-.15,20.12-.19,7.86-.01,15.76-.43,23.61-.07,6.72.3,13.4,1.39,20.12,1.77,11.64-.96,23.35-.47,34.98-1.36,5.67-.34,11.38-1.44,16.62-3.67,1.1-.2,2.41.22,3.5.33,1.99.29,4.12.56,6.12.8"/><path class="b" d="M8.1,215.56c2.18-.7,4.03-2.36,6.12-3.27,5.6-2.7,11.83-.8,17.49.67,7.41,1.97,15.16,1.59,22.74,1.13,6.1-.4,12.25-.46,18.37-.41,10.78.13,21.6-.67,32.36.14,5.53.43,11.08,1.23,16.62,1.53,6.11-.2,12.25-.63,18.37-.61,8.15-.12,16.43,0,24.49-1.37,2.33-.45,4.76-1.04,7-1.86,1.4-.41,2.85-1.62,4.37-1.21,2.59.35,5.28.67,7.87.98"/><path class="b" d="M8.1,213.65c4.44-2.8,6.55-4.89,12.24-4.42,3.87.28,7.6,1.69,11.37,2.51,3.42.77,6.99,1.09,10.5,1.09,6.7,0,13.42-.73,20.12-.84,11.07-.05,22.16-.21,33.23-.28,8.19-.04,16.33,1.25,24.49,1.82,2.89.26,5.86-.1,8.75-.17,4.06-.16,8.18-.22,12.24-.24,4.94,0,9.93-.08,14.87-.38,6.61-.26,13.35-1.32,19.24-4.46,2.89.31,5.86.63,8.75,1"/><path class="b" d="M8.1,211.72c1.67-1.24,3.28-2.87,5.25-3.63,4.58-1.74,9.51.03,13.99,1.26,4.8,1.44,9.87,1.93,14.87,1.79,4.95-.1,9.93-.54,14.87-.75,4.94-.22,9.93-.21,14.87-.23,9.03.04,18.09-.42,27.11-.1,7.3.25,14.57,1.43,21.86,1.77,2.59.18,5.28-.12,7.87-.17,3.77-.13,7.6-.17,11.37-.18,4.94,0,9.93-.04,14.87-.3,6.87-.33,14.24-.91,20.12-4.82,2.9.03,5.87.48,8.75.82"/><path class="b" d="M8.1,209.78c3.6-3.78,6.11-5.02,11.37-3.95,5.24,1.15,10.31,3.33,15.74,3.51,7.58.44,15.17-.57,22.74-.77,9.61-.27,19.25-.14,28.86-.35,4.94-.07,9.94-.06,14.87.26,5.82.45,11.66,1.17,17.49,1.49,5.23.39,10.51-.13,15.74-.11,7.57-.04,15.18,0,22.74-.43,4.72-.32,9.62-.88,13.99-2.77,1.52-.57,2.83-1.99,4.37-2.45,2.6.12,5.29.37,7.87.74"/><path class="b" d="M8.1,207.9c1.57-1.06,2.63-3.11,4.37-3.89,3.77-1.31,7.76.43,11.37,1.52,6.14,2.27,12.78,2.44,19.24,2.03,11.35-.85,22.74-.97,34.11-1,9.62-.11,19.28-.42,28.86.67,5.81.49,11.66.98,17.49,1.14,6.4,0,12.84-.24,19.24-.18,6.4-.1,12.88,0,19.24-.75,5.47-.59,9.84-1.55,13.99-5.47,2.6.03,5.3.24,7.87.65"/><path class="b" d="M8.1,206.13c1.81-1.33,3.38-3.22,5.25-4.48,3.32-.4,6.54,1.09,9.62,2.1,3.07,1.12,6.35,1.91,9.62,2.11,6.7.41,13.43-.44,20.12-.69,7.27-.33,14.59-.27,21.86-.37,6.69-.01,13.42-.21,20.12-.04,7.57.45,15.16,1.22,22.74,1.56,8.15.46,16.34.25,24.49.12,5.82-.1,11.69.12,17.49-.35,4.43-.48,9.23-.59,13.12-3,1.25-.81,2.49-2.1,3.5-3.19,1.02-.48,2.4-.23,3.5-.22,1.4.07,2.99.22,4.37.45"/><path class="b" d="M8.1,204.43c2.33-1.47,4.22-4.16,7-4.76,3.63.59,6.97,2.44,10.5,3.4,4.53,1.3,9.33,1.23,13.99,1.01,11.64-.87,23.32-1.01,34.98-1.06,5.82,0,11.68-.12,17.49-.02,5.23.27,10.51.77,15.74,1.05,11.64.83,23.32.79,34.98.51,3.77-.11,7.6.16,11.37.13,4.07-.05,8.21-.39,12.24-.91,2.89-.4,5.91-1.41,7.87-3.68.71-.78,1.51-2.27,2.62-2.52,2.3.03,4.71-.08,7,.08"/><path class="b" d="M8.1,202.78c2.55-1.63,4.8-4.15,7.87-4.8,3.26.92,6.34,2.62,9.62,3.48,6.56,1.7,13.44.7,20.12.38,10.18-.59,20.41-.5,30.61-.59,4.94.04,9.93-.11,14.87.09,9.89.74,19.82,1.3,29.74,1.52,9.03.27,18.08-.29,27.11-.11,2.3.03,4.7.24,7,.31,2.59-.14,5.28-.26,7.87-.42,6-.41,10.02-.67,13.12-6.57,1.05-.4,2.4-.2,3.5-.24,1.4,0,2.97,0,4.37,0"/><path class="b" d="M8.1,201.16c2.79-1.7,5.32-4.33,8.75-4.67,2.37.72,4.64,2.01,7,2.77,2.5.87,5.23,1.25,7.87,1.31,6.41.11,12.83-.69,19.24-.82,11.94-.23,23.91-.31,35.86-.17,13.68.84,27.39,1.64,41.11,1.53,8.44-.1,16.93-.49,25.36.1,4.06.1,8.19,0,12.24-.22,5.51-.31,8.42-.96,10.5-6.64,1.04-.44,2.39-.22,3.5-.27,1.41.04,3.04-.18,4.37.41"/><path class="b" d="M8.1,199.57c3.06-1.73,5.86-4.58,9.62-4.5,2.06.66,4.06,1.82,6.12,2.47,2.5.87,5.24,1.18,7.87,1.21,6.41,0,12.83-.76,19.24-.81,11.07-.12,22.16-.25,33.23-.04,5.53.16,11.09.75,16.62.93,10.19.44,20.41.59,30.61.42,7.28-.22,14.59-.16,21.86.1,5.81.07,11.69.55,17.49-.12,6.73-.66,2.89-7.48,8.75-6.91,1.34.89,2.74,2.06,4.37,2.36"/><path class="b" d="M8.1,197.64c.97.12,1.88-.72,2.62-1.21,1.05-.74,2.31-1.57,3.5-2.07,7.01-2.8,6.18,3.48,20.99,2.44,7.85-.52,15.74-.76,23.61-.69,7.57-.06,15.17-.08,22.74.13,6.12.17,12.25.82,18.37.99,9.9.38,19.83.41,29.74.28,9.03-.28,18.08-.09,27.11.07,4.94.21,9.92.62,14.87.51,2.84.26,5.66-.85,7.87-2.6,1.32-.54,2.97-.2,4.37-.36"/><path class="b" d="M8.1,195.58l.87.48c2.54-1.38,4.87-3.56,7.87-3.87.8-.1,1.83-.09,2.62,0,1.14.32,2.38.98,3.5,1.38,4.15,1.67,8.74,1.52,13.12,1.28,7.27-.5,14.58-.54,21.86-.48,6.4,0,12.84-.06,19.24.16,9.33.29,18.65,1.21,27.99,1.28,15.74.29,31.49-.3,47.23-.11,7-.12,13.99.85,20.99.69,2-.02,4.13.08,6.12-.18,1.42-.17,2.97-.65,4.37-.9"/><path class="b" d="M8.1,193.46c.4.32,1.24.69,1.75.69,3.61-2.37,6.86-4.51,11.37-3.2,1.65.72,3.47,1.39,5.25,1.72,5.48.95,11.1.01,16.62-.03,10.78-.09,21.59-.03,32.36.26,10.19.51,20.4,1.32,30.61,1.33,16.61.11,33.24-.29,49.85-.29,4.66-.01,9.35.33,13.99.64,4.65.07,9.35.13,13.99.02"/><path class="b" d="M8.1,191.3c.43.28,1.31.81,1.75,1.07.95.04,1.87-.75,2.62-1.21,1.05-.66,2.31-1.36,3.5-1.72,1.96-.61,4.14-.5,6.12-.07,2.21.87,4.61,1.54,7,1.7,4.06.28,8.18-.16,12.24-.22,4.94-.13,9.93.05,14.87.11,6.4.09,12.85.08,19.24.43,9.31.61,18.65,1.33,27.99.92,11.36-.23,22.75.29,34.11.18,15.44-.23,30.92-.71,46.35.15"/><path class="b" d="M8.1,189.13c.78.46,1.83,1.14,2.62,1.57,1.54-.45,2.9-1.7,4.37-2.32,3.64-1.79,7.7-.75,11.37.32,4.3.87,8.77.38,13.12.32,5.53-.13,11.09.14,16.62.25,7.28.11,14.6.29,21.86.84,4.06.25,8.18.5,12.24.59,4.35-.19,8.76-.35,13.12-.44,9.9-.14,19.84-.09,29.74.31,6.98.59,14,.08,20.99-.12,4.36-.07,8.76-.44,13.12-.63,5.52-.18,11.09-.14,16.62-.04"/><path class="b" d="M8.1,186.98c1.14.57,2.38,1.43,3.5,2.03,1.17-.47,2.38-1.35,3.5-1.92,1.59-.82,3.46-1.31,5.25-1.31,3.55-.08,6.95,1.38,10.5,1.43,3.77.15,7.6-.09,11.37-.03,4.65.06,9.35.33,13.99.46,5.53.15,11.1.29,16.62.7,5.52.32,11.09.83,16.62.37,12.52-.67,25.08-.83,37.61-.54,7.28.18,14.59.87,21.86.88,3.48-.16,7.03-.31,10.5-.65,2.29-.27,4.69-.62,7-.75,5.81-.42,11.67-.38,17.49-.52"/><path class="b" d="M8.1,184.87c1.5.58,2.96,1.65,4.37,2.4,2.26-1.07,4.44-2.69,7-3,4.41-.65,8.72,1.04,13.12,1.03,9.62-.06,19.25.57,28.86.94,5.82.23,11.67.72,17.49.95,5.82-.2,11.67-.63,17.49-.87,12.52-.54,25.08-.64,37.61-.36,5.83.16,11.66,1.36,17.49,1.4,4.99-.16,9.91-1.33,14.87-1.81,5.8-.56,11.68-.49,17.49-.74"/><path class="b" d="M8.1,182.84c1.88.49,3.56,1.76,5.25,2.66,2.06-.75,3.94-2.24,6.12-2.69,4.65-1.05,9.33.5,13.99.58,10.21.15,20.41.99,30.61,1.46,3.47.21,7.02.46,10.5.57,4.65-.22,9.35-.52,13.99-.8,9.31-.57,18.66-.86,27.99-1.05,6.4-.15,12.84-.54,19.24-.3,5.54.64,11.07,1.82,16.62,2.43,4.73-.16,9.3-1.76,13.99-2.2,5.79-.65,11.68-.51,17.49-.8"/><path class="b" d="M8.1,180.91c2.25.27,4.19,1.72,6.12,2.78,1.85-.22,3.44-1.75,5.25-2.23,4.86-1.53,9.93-.13,14.87.07,10.21.37,20.41,1.33,30.61,1.88,4.07.39,8.18.11,12.24-.16,4.94-.31,9.92-.66,14.87-.9,10.77-.59,21.6-.51,32.36-1.4,3.76-.28,7.59-.56,11.37-.55,4.38.64,8.76,1.82,13.12,2.65,1.69.34,3.52.79,5.25.94,1.1-.11,2.42-.32,3.5-.58,8.51-2.76,17.42-2.34,26.24-2.64"/><path class="b" d="M8.1,179.1c1.49-.03,3.08.49,4.37,1.21,1.09.54,2.24,1.59,3.5,1.68,3.95-2.27,6.83-3.01,11.37-2.94,2.89.11,5.84.69,8.75.76,9.33.54,18.65,1.52,27.99,2.04,9.91-.15,19.82-1.38,29.74-1.6,6.11-.2,12.26-.06,18.37-.36,5.85-.24,11.7-1,17.49-1.78,2.25-.14,4.79-.84,7-.41,4.67,1.05,9.39,2.15,13.99,3.49,1.39.39,2.95.85,4.37,1.09,1.12-.07,2.44-.4,3.5-.77,8.09-3.09,16.88-2.28,25.36-2.54"/><path class="b" d="M8.1,177.44c3.25-.67,5.99,1.54,8.75,2.85,2.05-.65,3.97-1.97,6.12-2.35,1.97-.43,4.11-.57,6.12-.59,2.29.31,4.69.53,7,.71,5.82.42,11.67,1.05,17.49,1.54,3.77.3,7.6.78,11.37.31,10.19-.64,20.39-1.61,30.61-1.48,6.69.1,13.44.47,20.12-.19,5.91-.44,11.69-1.93,17.49-3.04,2.31-.65,4.71.33,7,.7,4.15.86,8.29,2.04,12.24,3.55,1.07.4,2.37.87,3.5,1.1.81-.03,1.88-.36,2.62-.66,7.96-3.64,16.88-2.48,25.36-2.64"/><path class="b" d="M8.1,175.94c4.32-1.44,6.8,1.33,10.5,2.58,3.27-1.61,6.83-2.69,10.5-2.78,4.36.32,8.76.82,13.12,1.21,4.94.51,9.92,1.05,14.87,1.44,4.36-.27,8.76-.71,13.12-.96,6.39-.41,12.83-.89,19.24-.78,6.12.06,12.25.74,18.37.83,4.97.01,10.01-.3,14.87-1.4,3.84-.85,7.56-2.39,11.37-3.37,6.58.67,13.25,1.84,19.24,4.77,2.51,1.14,3.39,1.91,6.12.43,7.57-3.87,16.32-2.25,24.49-2.34"/><path class="b" d="M8.1,174.62c5.34-2.43,7.66.77,12.24,2.12,3.04-1.3,6.29-2.34,9.62-2.47,5.24.38,10.52.94,15.74,1.53,2.59.29,5.27.58,7.87.82,2.31-.04,4.7-.4,7-.6,7.84-.69,15.74-1.19,23.61-1.16,6.13.06,12.26.82,18.37,1.31,6.68.44,13.55.61,20.12-.87,3.05-.72,5.94-2.16,8.75-3.51,1.54-.97,3.52-.63,5.25-.61,6.04.22,12.23,1.28,17.49,4.42,1.86,1,3.13,2.13,5.25.76,7.38-4.51,16.33-2.43,24.49-2.39"/><path class="b" d="M8.1,173.45c5.7-3.35,8.73-.4,13.99,1.57,3.1-.96,6.31-2.25,9.62-2,4.37.2,8.77.71,13.12,1.2,2.29.18,4.7.74,7,.6,3.78-.35,7.59-.9,11.37-1.24,6.39-.39,12.84-.71,19.24-.47,8.18.34,16.29,1.91,24.49,2.08,5.81.01,11.81.46,17.49-.95,1.49-.42,3.06-1.15,4.37-1.96,1.11-.61,2.25-1.73,3.5-2.05,1.68-.37,3.53-.58,5.25-.66,6.06-.3,12.45.62,17.49,4.21,2.04,1.34,2.93,2.18,5.25.52,3.56-2.46,8.02-2.97,12.24-2.7,3.77.17,7.6.57,11.37.74"/><path class="b" d="M8.1,172.39c4.96-3.17,8.02-2.83,13.12-.31,1.33.5,2.93,1.54,4.37.94,5.65-1.94,11.69-.92,17.49-.38,1.71.16,3.54.44,5.25.5,1.41-.14,2.97-.32,4.37-.48,3.48-.34,7.01-.93,10.5-1.25,5.52-.25,11.1-.34,16.62-.03,7.01.43,13.97,1.82,20.99,2.14,5.52.25,11.09.1,16.62.14,3.48-.1,7.26.44,10.49-1.13,1.18-.57,2.32-1.69,3.5-2.26,5.86-2.93,13.06-3.21,19.24-1.16,1.5.56,3.07,1.45,4.37,2.39,1.04.73,2.25,1.78,3.5,2.14,2.17-.69,3.88-2.65,6.12-3.26,2.79-.92,5.86-.79,8.75-.58,3.48.29,7.01.73,10.5.97"/><path class="b" d="M8.1,171.32c1.98-1.01,3.92-2.44,6.12-2.94,4.65-1.06,8.72,2.27,13.12,3.11,1.42-.01,2.95-.5,4.37-.59,2-.18,4.12-.14,6.12-.03,3.49.18,7.02.8,10.5.16,4.95-.54,9.93-1.14,14.87-1.8,2.59-.06,5.28-.03,7.87.05,8.81.04,17.46,2.14,26.24,2.52,6.98.19,14.01.03,20.99.08,2.3,0,4.7,0,7,0,1.8.09,3.77,0,5.25-1.18,2.41-1.63,5.03-3.2,7.87-3.91,4.27-1.05,8.97-1.11,13.12.45,1.53.6,3.09,1.6,4.37,2.63,1,.73,2.15,2.03,3.5,1.92,1.23-.55,2.36-1.73,3.5-2.44,1.01-.64,2.33-1.18,3.5-1.42,5.82-.91,11.69.86,17.49,1.21"/><path class="b" d="M8.1,170.06c1.88-.5,3.52-1.87,5.25-2.71,5.51-3.06,11.13,1.16,16.62,2.08,1.99.41,4.11.29,6.12.22,3.19.11,6.45-.14,9.62-.48,4.06-.42,8.18-.87,12.24-1.32,2.89-.29,5.83-.92,8.75-.62,4.37.22,8.79.58,13.12,1.18,4.35.6,8.73,1.42,13.12,1.61,12.23.29,24.5.04,36.73.12,1.94-.35,3.57-1.87,5.25-2.82,1.85-1.13,4-2.04,6.12-2.51,4.35-.91,9.25-.78,13.12,1.6,1.82,1.03,3.29,2.94,5.25,3.71.98-.16,1.95-1.07,2.62-1.75.96-.89,2.25-1.78,3.5-2.21,2.8-.92,5.89-.49,8.75-.08,3.18.5,6.42,1.09,9.62,1.44"/><path class="b" d="M8.1,168.39c2.32.19,4.21-1.59,6.12-2.63,2.08-1.22,4.6-1.82,7-1.41,3.54.61,6.99,1.94,10.5,2.7,4.9.8,9.95.26,14.87-.12,4.06-.37,8.18-.76,12.24-1.15,2.3-.13,4.7-.69,7-.54,8.49.61,16.86,2.62,25.36,3.07,13.11.19,26.24.02,39.36.07,2.3-.17,4.14-2.07,6.12-3.09,3.14-1.85,6.85-2.81,10.5-2.75,3.11,0,6.3.93,8.75,2.9,1.38.91,2.61,2.81,4.37,2.84.99-.4,1.97-1.46,2.62-2.27.91-.95,2.22-1.82,3.5-2.16,2.56-.67,5.32-.2,7.87.27,3.17.62,6.41,1.33,9.62,1.75"/><path class="b" d="M8.1,166.64c3.16.31,4.52-.91,7-2.52,2.82-1.93,6.35-2.25,9.62-1.51,2.51.39,4.62,1.05,7,1.83,4.86,1.12,9.94.67,14.87.39,6.69-.36,13.42-1.24,20.12-1.33,7.85,1.08,15.67,2.9,23.61,3.1,13.7.13,27.41.01,41.11.05,1.59-.02,3.06-1.14,4.37-1.92,1.62-1.03,3.44-2.05,5.25-2.71,4.16-1.47,9.04-1.82,13.12.08,2.3,1.03,3.97,3.22,6.12,4.45,2.46-.05,3.38-3.17,5.25-4.31,2.96-1.6,6.52-.66,9.62.03,2.87.7,5.82,1.45,8.75,1.91"/><path class="b" d="M8.1,164.89c1.74-.04,3.72.27,5.25-.76,5.28-3.75,7.5-4.55,13.99-3.59.85.03,1.86.49,2.62.84,1.07.42,2.37.79,3.5,1.01,4.02.74,8.18.59,12.24.44,7.28-.29,14.58-.92,21.86-.96,7.2,1.42,14.5,2.87,21.86,2.94,13.99.22,27.99.04,41.98.1,1.56.17,3.1-.72,4.37-1.51,1.65-1.01,3.46-2.07,5.25-2.8,4.38-1.75,9.62-2.35,13.99-.3,2.31,1.04,3.95,3.29,6.12,4.52,2.34-.24,3.72-3.15,5.25-4.69,3.04-3.05,13.23,1.82,17.49,2.27"/><path class="b" d="M8.1,163.14c1.7-.09,3.62.27,5.25-.32,5.4-3.24,6.15-5.01,13.12-4.77,1.23-.12,2.43.51,3.5,1.02,1.07.44,2.37.83,3.5,1.07,3.71.77,7.59.77,11.37.71,7.57-.15,15.17-.63,22.74-.52,2.93.13,5.83,1.18,8.75,1.52,4.03.72,8.16.98,12.24,1.04,13.99.29,27.99.26,41.98.25.78,0,1.86.05,2.62-.15.82-.28,1.88-.84,2.62-1.28,1.65-.96,3.48-1.97,5.25-2.7,4.64-1.86,10.19-2.69,14.87-.56,2.32,1.04,3.99,3.26,6.12,4.57,2.34.03,4.35-3.9,6.12-5.33.63-.75,1.66-1.08,2.62-.9,1.75.16,3.59.69,5.25,1.25,2.57.88,5.22,1.86,7.87,2.47"/><path class="b" d="M8.1,161.39c1.71-.03,3.55.08,5.25-.07,1.62-.48,3.02-1.78,4.37-2.74,2.23-1.75,5.08-2.53,7.87-2.71.46-.03,1.29-.09,1.75-.11.46.2,1.3.61,1.75.82,1.07.49,2.36.96,3.5,1.26,3.4.88,7,1.04,10.49,1.09,8.45.05,16.92-.42,25.36-.15,2.94.03,5.83,1.1,8.75,1.41,3.45.45,7.02.51,10.5.6,6.4.14,12.84-.17,19.24,0,2.89.1,5.85.46,8.75.58,4.94.06,9.93,0,14.87.02,1.18.1,2.49-.44,3.5-1.02,1.38-.75,2.94-1.57,4.37-2.21,4.09-1.82,8.62-2.96,13.12-2.77,7.82.24,9.16,5.61,12.24,5.86,2.41-1.34,3.88-4.06,6.12-5.63.41-.3,1.28-.81,1.75-1.01,1.45-.22,3.02.48,4.37.91,2.59.98,5.2,2.2,7.87,2.96"/><path class="b" d="M8.1,159.64c1.71,0,3.54,0,5.25,0,2.06-.25,3.63-2.03,5.25-3.17,1.75-1.36,3.95-2.19,6.12-2.58.8-.15,1.83-.39,2.62-.12,1.36.69,2.92,1.36,4.37,1.82,3.37,1.05,6.98,1.32,10.5,1.44,9.61.2,19.25-.18,28.86.08,3.46.45,6.99,1.06,10.5,1.14,4.94.24,9.93.13,14.87-.12,3.48-.16,7.01-.56,10.5-.48,7-.08,13.99,1.04,20.99.93,2.98-.18,5.98-.95,8.75-2.06,1.98-.81,3.95-1.96,6.12-2.16,5.16-.86,10.92-1.75,15.74.8,2.26,1.07,3.79,3.55,6.12,4.4,2.98-1.5,4.68-4.96,7.87-6.2,2.12-.92,3.19-.82,5.25.18,2,.89,4.06,1.97,6.12,2.72"/><path class="b" d="M8.1,157.89c2-.03,4.13.08,6.12-.06,2.02-.62,3.57-2.41,5.25-3.61,2-1.48,4.54-2.37,7-2.7,5.34,2.91,11.49,3.66,17.49,3.74,5.23.12,10.51.05,15.74.04,4.65,0,9.36-.04,13.99-.55,2.86.48,5.85.7,8.75.81,4.06.14,8.19-.02,12.24-.33,1.4-.11,2.97-.26,4.37-.42,1.4,0,2.97.09,4.37.1,3.77.04,7.6-.1,11.37-.3,3.53-.22,7.43-.12,10.5-2.15,2.89,2.41,6.96,2.23,10.5,1.86,2.04-.25,4.16-.77,6.12-1.4,1.41-.38,2.9-1.19,4.37-1.29,4.69-.09,9.85-.46,13.99,2.15,1.85,1.1,3.36,2.96,5.25,3.98,2.43-.67,3.99-3.38,6.12-4.67,2.25-1.53,5.21-2.1,7.87-1.57,1.41.71,2.94,1.58,4.37,2.25"/><path class="b" d="M8.1,156.14c1.41,0,2.97,0,4.37,0,1.18.08,2.52-.07,3.5-.79,1.48-1.04,2.9-2.48,4.37-3.53,1.54-1.07,3.44-1.8,5.25-2.28,1.49.26,2.94,1.24,4.37,1.7,5.28,1.99,11.04,2.16,16.62,2.28,5.52.07,11.1.06,16.62-.11,2.6-.1,5.3-.26,7.87-.71,1.44-.19,2.95-.83,4.37-1.05,5.49.76,11.09.88,16.62.53,1.09-.06,2.4-.19,3.5-.25,2.56.48,5.27.67,7.87.74,6.14.13,12.37-.3,18.37-1.66,1.45-.26,2.91-1.22,4.37-1.31,4.98,2.52,11.23,2.38,16.62,1.45,2.33-.44,4.7-1.15,7-1.74,2.01.13,4.14.25,6.12.59,2.51.4,5,1.46,7,3.04,1.38.9,2.62,2.79,4.37,2.85,1.89-1.07,3.42-2.92,5.25-4.09,3.34-2.32,7.74-1.97,11.37-.55"/><path class="b" d="M8.1,154.39c2-.02,4.12.04,6.12-.03,2.1-.52,3.63-2.44,5.25-3.75,1.72-1.45,3.9-2.64,6.12-3.07,6.99,3.62,14.14,4.18,21.86,4.23,6.4.04,12.87.1,19.24-.58,2.35-.28,4.81-.76,7-1.7,1.41-.54,2.76-1.92,4.37-1.42,2.29.3,4.69.56,7,.69,2.3.15,4.7.15,7,.11,2.47,1.02,5.22,1.48,7.87,1.75,7.29.64,14.74.21,21.86-1.49,1.74-.33,3.51-1.12,5.25-1.41,3.35,1.12,6.98,1.53,10.5,1.77,3.19.17,6.48-.07,9.62-.66,2.01-.36,4.11-.91,6.12-1.26,2.02.26,4.18.58,6.12,1.23,1.87.61,3.72,1.71,5.25,2.94,1.05.84,2.27,1.96,3.5,2.52,1.62-.67,2.97-2.14,4.37-3.15,3.18-2.62,7.6-2.8,11.37-1.47"/><path class="b" d="M8.1,152.64c2-.04,4.13.1,6.12-.08,1.31-.37,2.52-1.45,3.5-2.35,1.54-1.47,3.27-3.01,5.25-3.86,1.12-.54,2.36-1.01,3.5-.26,5.67,2.89,12.08,3.71,18.37,3.84,5.23.15,10.52.12,15.74-.17,5.12-.29,10.49-.95,14.87-3.84,1.24-.97,2.89-.87,4.37-.83,1.71-.02,3.55.09,5.25.22,1.1.08,2.4.17,3.5.23,1.98.88,3.97,2.07,6.12,2.54,5.41,1.31,11.09,1.34,16.62,1.06,3.5-.21,7.07-.64,10.5-1.4,2.32-.4,4.66-1.4,7-1.61,3.16.57,6.42,1.03,9.62,1.28,3.18.23,6.46.19,9.62-.21,2.61-.31,5.28-.88,7.87-1.31,2.73.28,5.51,1.22,7.87,2.62,1.81,1.08,3.45,2.7,5.25,3.79h.87c5.06-3.55,7.25-6.09,13.99-4.4"/><path class="b" d="M8.1,150.89c4.67-.11,6.07.85,9.62-2.79,1.52-1.48,3.26-2.99,5.25-3.8.46-.18,1.28-.51,1.75-.63.5.02,1.32.29,1.75.52,5.66,2.93,12.06,3.82,18.37,3.95,5.52.16,11.11.12,16.62-.34,4.56-.35,9.21-1.3,13.12-3.79,1.52-1.02,3.52-.6,5.25-.68,2.3,0,4.7,0,7,0,1.24.16,2.4,1.12,3.5,1.65,1.33.68,2.92,1.25,4.37,1.6,6,1.36,12.26,1.31,18.37.97,5.91-.3,11.75-1.54,17.49-2.92,2-.14,4.12.45,6.12.57,3.17.34,6.43.54,9.62.43,2.9-.1,5.88-.44,8.75-.89,1.09-.17,2.41-.37,3.5-.51,1.46.18,3.02.81,4.37,1.38,2.91,1.18,5.13,3.67,7.87,5.1,1.56-.69,2.95-2.04,4.37-2.95,2.52-1.76,5.76-2.27,8.75-1.66"/><path class="b" d="M8.1,149.15c6.98.28,6.42-.54,11.37-4.83,1-.82,2.29-1.56,3.5-2.01,1.13-.5,2.38-.74,3.5-.08,5.65,3,12.04,4.01,18.37,4.14,5.82.17,11.7.12,17.49-.5,2.65-.31,5.38-.8,7.87-1.78,2.06-.63,3.93-2.56,6.12-2.49,2.3,0,4.7,0,7,0,1.41.08,3.13-.3,4.37.54,1.85,1.21,3.97,2.24,6.12,2.78,6.55,1.59,13.42,1.45,20.12,1.14,6.77-.35,13.52-1.48,20.12-3.04,4.92.58,9.91,1.02,14.87.82,4.09-.1,8.18-.81,12.24-1.21,2.13.69,4.29,1.71,6.12,2.99.78.56,1.86,1.36,2.62,1.96.68.52,1.7,1.35,2.62,1.21,3.82-2.48,6.4-5.02,11.37-4.45"/><path class="b" d="M8.1,147.4c6.94.56,7.25-2.51,12.24-5.88,2.09-1.13,4.77-2.32,7-.91,5.88,3.2,12.65,3.92,19.24,4.03,5.53.1,11.13.01,16.62-.71,2.67-.37,5.43-1,7.87-2.17,1.67-.76,3.3-2.17,5.25-1.91,2.89,0,5.86,0,8.75,0,1.29-.17,2.46.89,3.5,1.49,1.31.79,2.9,1.47,4.37,1.89,7.68,1.97,15.77,1.59,23.61,1.22,6.75-.47,13.57-1.16,20.12-2.94,4.63.48,9.34.79,13.99.64,2.9-.08,5.87-.37,8.75-.7,1.09-.12,2.41-.26,3.5-.35,1.18.17,2.45.89,3.5,1.43,2.47,1.27,4.53,3.4,7,4.64,1.6-.48,2.95-1.86,4.37-2.68,1.8-1.13,3.99-1.82,6.12-1.81"/><path class="b" d="M8.1,145.57c6.19.68,8.18-4.41,13.12-6.55,5.17-2.01,5.97-.25,10.5,1.55,4.99,1.9,10.45,2.18,15.74,2.32,5.24.07,10.55-.03,15.74-.74,2.36-.34,4.81-.89,7-1.86,1.46-.6,2.88-1.68,4.37-2.18.78-.03,1.84-.02,2.62-.02,2.59,0,5.28,0,7.87,0,1.28.18,2.4,1.3,3.5,1.89,1.32.77,2.9,1.39,4.37,1.79,7.98,1.93,16.35,1.48,24.49,1.13,5.24-.33,10.55-.71,15.74-1.52,1.1-.2,2.42-.48,3.5-.79.77-.21,1.81-.66,2.62-.59,4.63.41,9.34.63,13.99.44,3.78-.12,7.6-.65,11.37-.92,2.25.33,4.26,1.98,6.12,3.2,1.35.9,2.73,2.34,4.37,2.66,2.81-1.57,5.39-3.98,8.75-4.27"/><path class="b" d="M8.1,143.63c5.7.38,8.76-5.72,13.99-6.79,1.66-.39,3.57-.75,5.25-.29,2.29,1,4.56,2.33,7,2.98,4.52,1.3,9.31,1.52,13.99,1.62,4.95.05,9.96-.05,14.87-.74,2.37-.35,4.82-.92,7-1.94,1.14-.53,2.39-1.33,3.5-1.91.76-.29,1.83-.23,2.62-.22,2.89.03,5.86-.07,8.75.05,1.46.76,2.86,2,4.37,2.68,2.98,1.41,6.36,1.92,9.62,2.23,6.09.53,12.26.35,18.37.08,5.53-.32,11.12-.57,16.62-1.3,2.36-.27,4.7-1.11,7-1.61,4.64.38,9.34.55,13.99.35,2.6-.1,5.28-.35,7.87-.61,1.4-.08,2.98-.42,4.37-.18,3.17,1.37,5.75,3.89,8.75,5.53,1.31.11,2.45-1.11,3.5-1.73,1.29-.88,2.85-1.7,4.37-2.1"/><path class="b" d="M8.1,141.61c4.8-.26,7.87-4.74,12.24-6.16,2.49-.63,5.35-1.28,7.87-.55,5.81,3.25,10.91,4.21,17.49,4.45,5.82.21,11.72.17,17.49-.64,2.38-.36,4.84-.97,7-2.05,1.39-.64,2.74-1.94,4.37-1.82,2.3-.08,4.7-.25,7-.23,2.66-.04,3.12-.22,5.25,1.56,4.52,3.25,10.37,3.53,15.74,3.81,5.23.19,10.51.04,15.74-.18,7.87-.56,16.03-.24,23.61-2.69,1.68-.3,3.55.13,5.25.12,3.18.13,6.44.14,9.62,0,2.6-.12,5.28-.38,7.87-.64,1.09-.1,2.41-.24,3.5-.31.87.05,1.88.7,2.62,1.12,2.4,1.33,4.48,3.43,7,4.55,2.21-.62,3.94-2.58,6.12-3.35"/><path class="b" d="M8.1,139.46c4.54-.79,7.77-4.85,12.24-5.89,10.51-2.15,7.94.79,16.62,2.95,7.99,1.63,16.4,1.46,24.49.71,3.32-.39,6.74-1.18,9.62-2.95,1.98-.34,4.12-.36,6.12-.5,1.71-.12,3.55-.32,5.25-.49,1.49-.24,2.37-.24,3.5.88,4.86,3.93,11.53,3.95,17.49,4.2,5.53.11,11.1-.03,16.62-.24,7.88-.51,16.03-.18,23.61-2.65,4.93.15,9.93.46,14.87.11,3.49-.19,7.02-.62,10.5-.98,1.95-.29,3.67,1.43,5.25,2.35,1.66,1.13,3.33,2.65,5.25,3.32,1.52-.61,2.94-1.8,4.37-2.59"/><path class="b" d="M8.1,137.24c3.11-.9,5.79-3.09,8.75-4.37,3.25-1.46,6.99-1.61,10.5-1.77,1.58-.19,3.04.86,4.37,1.57,1.62.87,3.47,1.6,5.25,2.05,5.41,1.32,11.08,1.37,16.62,1.32,3.79-.09,7.67-.3,11.37-1.16,1.12-.27,2.44-.69,3.5-1.16.38-.26,1.28-.53,1.75-.49,4.93-.43,9.94-.49,14.87-1.01,3.87,3.32,9.07,4.08,13.99,4.31,4.94.26,9.93.18,14.87.11,4.94-.08,9.93-.26,14.87-.51,4.97-.24,10.05-.5,14.87-1.83,1.35-.58,2.95-.34,4.37-.27,2.3.11,4.7.15,7,.12,5.56-.02,11.11-.79,16.62-1.44,1.81.88,3.63,2.07,5.25,3.27,1.32.92,2.75,2.18,4.37,2.52.84-.33,1.88-1,2.62-1.5"/><path class="b" d="M8.1,134.96c3.48-1.49,6.76-3.76,10.5-4.64,2.55-.56,5.28-.56,7.87-.88,1.12-.08,2.47-.24,3.5.31,1.68.92,3.44,2,5.25,2.64,3.62,1.32,7.55,1.69,11.37,1.89,3.77.17,7.61.15,11.37-.13,2.32-.18,4.74-.49,7-1.09,1.13-.24,2.34-.95,3.5-.97,3.18-.28,6.43-.41,9.62-.45,1.7-.05,3.54-.13,5.25-.21,1.17-.08,2.6-.25,3.5.67,1.3.81,2.89,1.42,4.37,1.77,5.14,1.16,10.5,1.03,15.74,1.08,6.11,0,12.26-.09,18.37-.31,7.03-.26,14.18-.42,20.99-2.34,4.93.32,9.94.38,14.87.01,3.79-.27,7.62-.82,11.37-1.46,1.94.26,3.64,1.8,5.25,2.82,1.62,1.09,3.26,2.71,5.25,3.06l.87-.4"/><path class="b" d="M8.1,132.58c3.83-1.95,7.89-3.96,12.24-4.29,1.71-.1,3.55-.14,5.25-.32,1.4-.05,3.01-.58,4.37-.12,2.74,1.59,5.58,3.25,8.75,3.84,7.58,1.47,18.79,1.58,26.24-.5,1.91-.68,4.12-.5,6.12-.7,4.64-.23,9.35-.05,13.99-.22,1.23-.22,2.38.87,3.5,1.22,1.64.62,3.51.99,5.25,1.2,7.83.78,15.76.44,23.61.45,7.28-.14,14.62-.19,21.86-.96,1.71-.2,3.56-.48,5.25-.86,1.08-.24,2.37-.72,3.5-.54,8.78.54,17.65-.03,26.24-1.97,3.52,1.42,6.25,4.33,9.62,5.98"/><path class="b" d="M8.1,130.08c3.25-1.64,6.88-2.86,10.5-3.33,3.77-.25,7.63-.04,11.37-.74,1.17.53,2.38,1.44,3.5,2.06,1.6.89,3.46,1.57,5.25,1.98,6.58,1.35,13.46,1.28,20.12.56,2.04-.23,4.14-.76,6.12-1.29,4.64-.33,9.34-.47,13.99-.33,2.3.02,4.7.04,7-.01,1.16.15,2.35.94,3.5,1.19,1.67.46,3.52.73,5.25.86,12.22.66,24.5.43,36.73.07,3.48-.14,7.04-.37,10.5-.85,2.03-.18,4.1-.95,6.12-1.09,4.94.25,9.94.31,14.87-.14,3.51-.32,7.08-.89,10.5-1.77.41-.11,1.34-.33,1.75-.44.86.02,1.88.62,2.62,1.02,2.13,1.17,4.11,2.83,6.12,4.19"/><path class="b" d="M8.1,127.46c1.01-.59,2.4-.75,3.5-1.1,2.25-.65,4.65-1.2,7-1.31,2-.12,4.12.14,6.12.11,2.01.02,4.13-.23,6.12-.49,3.53,2.75,7.8,4.19,12.24,4.52,4.34.41,8.78.39,13.12-.01,2.65-.19,5.29-.9,7.87-1.42,4.06-.24,8.18-.47,12.24-.3,3.47.14,7.02.11,10.5.13,2.71,1.25,5.81,1.51,8.75,1.72,11.64.57,23.33.5,34.98.16,5.86-.16,11.76-.62,17.49-1.9,4.94.22,9.94.31,14.87-.12,4.44-.36,8.88-1.28,13.12-2.66.84-.3,1.88.29,2.62.66,1.82.93,3.62,2.21,5.25,3.44"/><path class="b" d="M8.1,124.8c3.47-.48,6.96-1.47,10.5-1.41,2.31,0,4.69.43,7,.47,2.01.14,4.12-.17,6.12-.23,3.19,2.63,7.32,3.73,11.37,4.04,3.47.3,7.03.29,10.5.04,3.25-.15,6.46-.97,9.62-1.57,3.47-.21,7.02-.41,10.49-.35,4.35.11,8.77.38,13.12.15,2.76,1.06,5.82,1.35,8.75,1.55,10.77.61,21.58.66,32.36.34,6.72-.17,13.53-.39,20.12-1.86,3.77.13,7.6.22,11.37.08,3.5-.13,7.07-.49,10.5-1.25,2.66-.52,5.26-1.62,7.87-2.33,2.24.43,4.3,1.77,6.12,3.08"/><path class="b" d="M8.1,122.48c3.76-.32,7.58-1.01,11.37-.62,2.6.3,5.25.83,7.87.95,1.71.19,3.55-.11,5.25.09,4.7,3.56,10.98,3.5,16.62,3.46,4.46-.04,8.8-.84,13.12-1.83,4.35-.31,8.76-.52,13.12-.32,2.59.11,5.28.22,7.87.19,1.4.08,3.03-.38,4.37.12,6.25,1.62,12.84,1.36,19.24,1.75,6.98.25,14.01.11,20.99-.13,6.42-.22,12.93-.33,19.24-1.6,1.98-.29,4.12.02,6.12-.04,3.77.03,7.62-.02,11.37-.43,2.94-.33,5.94-.9,8.75-1.85,3.84-1.52,6.65-2.6,10.5-.07"/><path class="b" d="M8.1,120.25c3.47-.09,7.03-.45,10.5-.02,4.63.73,9.27,1.96,13.99,1.91.52.03,1.34.41,1.75.72,1.05.55,2.35,1.02,3.5,1.29,4.57.99,9.36.83,13.99.49,2.93-.26,5.93-.72,8.75-1.58,1.68-.34,3.54-.34,5.25-.48,6.98-.52,14.01.48,20.99-.07,5.08,1.52,10.5,1.5,15.74,1.89,9.9.68,19.84.29,29.74-.14,5.26-.13,10.55-.67,15.74-1.44,4.06.07,8.19.07,12.24-.08,3.81-.17,7.7-.58,11.37-1.64,2.06-.54,4.08-1.6,6.12-2.18,1.99-.06,4.15-.21,6.12.1"/><path class="b" d="M8.1,118.13c3.48.08,7.06-.02,10.5.61,4.91,1.1,9.83,2.49,14.87,2.9,1.7.51,3.45,1.31,5.25,1.48,4.62.6,9.37.4,13.99-.11,2.64-.31,5.34-.9,7.87-1.73,1.4-.15,2.97-.29,4.37-.4,7.27-.61,14.59.37,21.87-.13,4.52,1.34,9.33,1.44,13.99,1.87,9.6.84,19.26.61,28.86.03,5.53-.29,11.14-.41,16.62-1.3,3.46-.21,7.02,0,10.5-.15,4.67-.11,9.45-.31,13.99-1.49,1.43-.37,3.01-.93,4.37-1.52,1.05-.44,2.33-1.1,3.5-1.08,1.7,0,3.55,0,5.25,0"/><path class="b" d="M8.1,116.11c3.19.21,6.48.33,9.62,1.02,4.65,1.18,9.24,2.77,13.99,3.54,2.61.38,5.22,1.25,7.87,1.37,5.83.29,11.81.03,17.49-1.39,2-.63,4-1.25,6.12-1.35,3.75-.41,7.6-.5,11.37-.36,4.06.28,8.19.06,12.24.09,3.96,1.13,8.16,1.37,12.24,1.79,5.8.56,11.66.88,17.49.77,7.58-.16,15.17-.83,22.74-1.23,3.49-.21,6.99-.88,10.49-.66,6.41-.14,12.92-.03,19.24-1.23,1.74-.35,3.6-.9,5.25-1.57,1.39-.52,2.86-1.49,4.37-1.56,1.7,0,3.55,0,5.25,0"/><path class="b" d="M8.1,114.19c3.21.32,6.51.68,9.62,1.57,4.33,1.37,8.65,2.99,13.12,3.86,4.56,1.17,9.3,1.41,13.99,1.19,5.02-.18,10.2-.63,14.87-2.61,6.02-1.3,12.25-1.2,18.37-.94,1.7.04,3.54.04,5.25,0,1.1.01,2.43-.25,3.5.09,3.69,1,7.58,1.33,11.37,1.76,5.5.6,11.08,1,16.62.94,6.13.02,12.26-.66,18.37-1.05,2.59-.18,5.28-.33,7.87-.53,1.7-.09,3.54-.47,5.25-.37,3.77.14,7.6-.03,11.37-.18,3.78-.17,7.65-.33,11.37-1.06,1.74-.34,3.6-.88,5.25-1.56,1.4-.53,2.86-1.5,4.37-1.69,1.7,0,3.55,0,5.25,0"/><path class="b" d="M8.1,112.35c3.24.42,6.54,1.05,9.62,2.15,4,1.51,8.04,3.1,12.24,3.94,1.98.43,4.1.8,6.12.94,2.3.06,4.7-.17,7-.16,4.08.11,8.26.06,12.24-.96,1.79-.35,3.5-1.34,5.25-1.79,5.72-1.37,11.66-1.3,17.49-1.06,1.7.04,3.54.03,5.25,0,1.11-.03,2.44-.18,3.5.26,3.7.96,7.58,1.34,11.37,1.81,5.79.7,11.66,1.09,17.49.99,4.96-.01,9.94-.57,14.87-1,4.35-.4,8.77-.61,13.12-1.01,4.65.21,9.35.15,13.99-.14,3.78-.2,7.64-.37,11.37-1.08,1.74-.33,3.6-.85,5.25-1.52,1.41-.54,2.89-1.49,4.37-1.83,1.7-.02,3.55,0,5.25-.01"/><path class="b" d="M8.1,110.59c4.57.68,8.91,2.41,13.12,4.22,3.61,1.43,7.49,2.51,11.37,2.75,5.23-.33,10.51-.82,15.74-.25,2.92.42,5.96.09,8.75-.87,1.43-.49,2.88-1.37,4.37-1.68,5.39-1.52,11.07-1.47,16.62-1.24,1.7.03,3.54.03,5.25,0,1.18-.13,2.38.06,3.5.46,9.73,2.06,19.79,3.01,29.74,2.84,8.47-.23,16.9-1.62,25.36-2.04,4.65.16,9.35.39,13.99.01,4.36-.28,8.81-.43,13.12-1.2,3.43-.49,6.49-2.08,9.62-3.42,1.69-.14,3.55-.04,5.25-.07"/><path class="b" d="M8.1,108.91c7.27,1.39,13.49,6.39,20.99,6.85,4.65-.41,9.3-1.5,13.99-1.12,2.31.12,4.71.39,7,.73,1.1.16,2.39.36,3.5.47,1.44-.06,3.02-.39,4.37-.9,1.68-.76,3.45-1.65,5.25-2.11,4.5-1.47,9.32-1.4,13.99-1.24,2.3.05,4.7.05,7,.02,1.11.24,2.39.68,3.5.91,9.49,1.83,19.19,2.89,28.86,2.66,8.19-.18,16.3-1.83,24.49-2.13,5.81.48,11.68.48,17.49-.02,3.78-.28,7.64-.49,11.37-1.23,3.07-.53,5.97-1.9,8.75-3.26,1.66-.4,3.55-.11,5.25-.19"/><path class="b" d="M8.1,107.35c6.31,1.6,11.71,6.36,18.37,6.63,2.61-.34,5.28-.84,7.87-1.3,1.41-.22,2.95-.64,4.37-.77,2.01,0,4.13.14,6.12.37,2.32.26,4.72.7,7,1.2,2.63.72,5.39,1,7.87-.37,1.67-.87,3.45-1.86,5.25-2.42,3.93-1.24,8.17-1.12,12.24-1.03,2,.04,4.12.05,6.12.04,1.71.4,3.51,1.04,5.25,1.33,9.22,1.66,18.61,2.74,27.99,2.48,7.62-.16,15.14-1.83,22.74-2.18,5.81.41,11.68.78,17.49.23,4.66-.38,9.41-.58,13.99-1.54,3.09-.54,5.9-2.13,8.75-3.34,1.39-.12,2.98-.04,4.37-.06"/><path class="b" d="M8.1,105.93c5.34,1.79,9.96,5.98,15.74,6.31,3.5-.57,7.02-1.37,10.49-2.07,1.41-.29,2.97-.67,4.37-1.02,2.31.09,4.71.33,7,.68,2.33.35,4.74.88,7,1.56,1.95.61,4.06,1.31,6.12.9,1.89-.52,3.46-2.04,5.25-2.8,4.06-1.93,8.72-1.88,13.12-1.81,1.7.02,3.54.03,5.25.04,1.71.45,3.5,1.12,5.25,1.43,8.35,1.54,16.86,2.65,25.36,2.66,6.15.1,12.29-.77,18.37-1.6,2.29-.25,4.69-.72,7-.57,4.94.27,9.92.81,14.87.53,6.41-.49,12.96-.68,19.24-2.17,2.43-.59,4.76-1.79,7-2.89,1.34-.47,2.98-.19,4.37-.26"/><path class="b" d="M8.1,104.72c4.37,1.87,8.27,5.26,13.12,5.84,1.73-.23,3.55-.73,5.25-1.12,4.06-.97,8.23-1.71,12.24-2.85,3.8.12,7.67.7,11.37,1.58,2.65.61,5.2,1.92,7.87,2.45,2.26.32,3.54-.67,5.25-1.91,1.3-.87,2.87-1.65,4.37-2.1,4.24-1.23,8.76-.89,13.12-.92.84-.1,1.86.31,2.62.6,1.08.37,2.39.72,3.5.96,7.77,1.49,15.7,2.52,23.61,2.76,6.44.22,12.89-.47,19.24-1.45,1.7-.23,3.54-.51,5.25-.66,3.78-.03,7.6.42,11.37.61,4.65.31,9.36-.06,13.99-.47,4.08-.38,8.25-.66,12.24-1.61,2.42-.56,4.81-1.6,7-2.76,1.27-.77,2.96-.56,4.37-.58"/><path class="b" d="M8.1,103.77c3.67,1.78,7.12,4.92,11.37,5.04,2.03-.37,4.11-1.07,6.12-1.55,4.34-1.1,8.82-1.86,13.12-3.11,5.29.38,10.72.95,15.74,2.76,1.73.59,3.43,1.69,5.25,2,1.31.17,2.53-.33,3.5-1.18,1.3-1.01,2.84-2.04,4.37-2.66,4.14-1.63,8.75-1.38,13.12-1.42,1.94.8,4.06,1.47,6.12,1.89,7.49,1.39,15.12,2.35,22.74,2.65,6.43.23,12.89-.42,19.24-1.41,4.9-.95,9.93-.45,14.87-.05,5.52.52,11.11.25,16.62-.3,4.37-.43,8.84-.71,13.12-1.75,1.76-.44,3.62-1.11,5.25-1.9.75-.38,1.84-.93,2.62-1.25.74-.23,1.85-.18,2.62-.18"/><path class="b" d="M8.1,103.06c3,1.57,6.05,4.22,9.62,3.99,2.34-.5,4.67-1.46,7-2.01,2.87-.75,5.85-1.33,8.75-1.96,1.72-.3,3.51-1.01,5.25-1.12,4.37.32,8.82.6,13.12,1.53,1.76.39,3.63,1,5.25,1.8,1.86.92,3.98,2.63,6.12,1.54,5.73-4.81,9.33-5.22,16.62-5.25,2.2,1.01,4.63,1.73,7,2.2,7.21,1.3,14.55,2.15,21.86,2.52,6.13.22,12.31-.31,18.37-1.24,4.6-.84,9.36-.59,13.99-.18,6.1.65,12.27.65,18.37,0,4.36-.42,8.81-.72,13.12-1.54,2.06-.4,4.2-1.03,6.12-1.87,1.68-.65,3.37-1.98,5.25-1.86"/><path class="b" d="M8.1,102.53c2.89,1.62,6.24,3.83,9.62,2.31,3.93-1.57,8.09-2.61,12.24-3.39,2.31-.47,4.72-.95,7-1.53,2.3.07,4.7.23,7,.39,5.34.45,11.14.6,15.74,3.69,4.51,3.63,5.83-.53,9.62-2.45,2.92-1.59,6.36-1.9,9.62-2.04,1.07.49,2.38,1.01,3.5,1.37,2.82.91,5.82,1.43,8.75,1.84,6.08.78,12.23,1.53,18.37,1.68,5.25.06,10.55-.36,15.74-1.11,4.9-.82,9.94-.59,14.87-.14,3.47.31,7.01.64,10.5.6,4.07-.06,8.19-.47,12.24-.84,4.38-.44,8.86-.76,13.12-1.9,2.72-.65,5.26-2.1,7.87-3.05"/><path class="b" d="M8.1,101.99c4.84,2.66,6.69,1.69,11.37-.37,3.06-1.2,6.4-1.78,9.62-2.4,2.01-.36,4.12-.8,6.12-1.18,3.48.08,7.02.26,10.5.43,5.75.33,12.19.37,16.62,4.61.7.61,1.75.61,2.62.57,1.38-.29,2.45-1.69,3.5-2.54,1.49-1.3,3.34-2.4,5.25-2.95,1.37-.37,2.95-.69,4.37-.67,2.49,1.12,5.19,1.99,7.87,2.54,6.04,1.18,12.24,1.67,18.37,2.17,5.23.4,10.53.19,15.74-.32,3.76-.42,7.57-1.02,11.37-.91,5.25.02,10.5.86,15.74,1.08,4.66.21,9.36-.23,13.99-.64,7.72-.68,15.68-1.18,22.74-4.67"/><path class="b" d="M8.1,101.29c4.33,1.83,7.55-.8,11.37-2.39,3.35-1.23,7-1.62,10.49-2.24,2.27-.5,4.69-.31,7-.28,3.18.08,6.44.18,9.62.26,4.37.22,9.02-.05,13.12,1.69,1.66.73,3.04,2.23,4.37,3.41.78.21,1.83.17,2.62.15,1.72-.85,2.87-2.81,4.37-3.97,1.47-1.24,3.36-2.12,5.25-2.47,1.16.14,2.39.79,3.5,1.13,2.81.98,5.8,1.66,8.75,2.11,7.52.99,15.15,1.76,22.74,1.64,3.19-.09,6.45-.31,9.62-.65,2-.19,4.11-.58,6.12-.53,5.55-.17,11.1.56,16.62,1.03,6.7.62,13.44-.1,20.12-.69,6.81-.58,13.77-1.19,20.12-3.9"/><path class="b" d="M8.1,100.14c.79.02,1.84.03,2.62-.04,1.47-.3,2.99-1.05,4.37-1.63,2.53-1.08,5.21-2.06,7.87-2.77,6.28-1.49,12.84-.87,19.24-.89,3.48.05,7.02,0,10.5.07,2.93.1,6.1.12,8.75,1.53,1.36.75,2.54,2.18,3.5,3.37,1,.57,2.39.34,3.5.31,1.68-1.35,2.73-3.64,4.37-5.05.72-.58,1.65-1.35,2.62-1.35,1.41.39,2.97.88,4.37,1.28,3.13.91,6.39,1.58,9.62,2,6.95.82,13.99,1.38,20.99,1.29,3.19-.09,6.45-.3,9.62-.6,2-.16,4.11-.55,6.12-.44,6.14,0,12.25.92,18.37,1.36,6.41.45,12.86-.28,19.24-.82,6.77-.57,13.67-1.11,20.12-3.43"/><path class="b" d="M8.1,98.4c2.11-.13,4.14-1.23,6.12-1.88,2.83-1.02,5.81-1.87,8.75-2.53,6.32-1.24,12.84-.74,19.24-.84,5.81.1,11.7-.59,17.49.05,2.07.25,4.09,1.37,5.25,3.12.27.6,1.18,1.74,1.75,2.08,1.1-.03,2.42.11,3.5-.17,1.25-1.61,1.93-4.11,3.5-5.46,2.93-.32,5.89.7,8.75,1.21,3.73.78,7.57,1.3,11.37,1.61,5.8.46,11.67.79,17.49.58,2.89-.11,5.86-.31,8.75-.56,1.7-.12,3.54-.43,5.25-.29,8.18.22,16.29,1.91,24.49,1.71,5.25-.12,10.51-.71,15.74-1.13,6.17-.49,12.42-1.09,18.37-2.9"/><path class="b" d="M8.1,96.31c5.69-1.88,11.52-3.62,17.49-4.35,6.38-.63,12.84-.28,19.24-.51,4.36-.09,8.76-.46,13.12-.56,5.99-.02,6.8.63,9.62,5.76h3.5c.82-.28,1.44-1.83,1.75-2.53.61-.89,1.53-1.89,2.62-2.13,1.98-.47,4.14-.09,6.12.18,2.3.35,4.69.74,7,1.02,6.95.82,14,1.13,20.99,1,4.95-.04,9.93-.73,14.87-.78,6.71.44,13.4,1.52,20.12,1.88,6.42.27,12.85-.47,19.24-.98,6.74-.53,13.55-1.01,20.12-2.73"/><path class="b" d="M8.1,93.98c6-1.67,12.17-3.05,18.37-3.68,6.39-.48,12.84-.22,19.24-.54,4.36-.17,8.76-.62,13.12-.93,5.91-.37,8.02-.24,9.62,6,1.4.11,2.98.15,4.37-.03,2.03-3.41,3.86-4.55,7.87-4.27,3.49.21,7.01.8,10.5,1.09,7.26.66,14.59.8,21.86.45,3.48-.15,7.02-.4,10.49-.57,6.69.68,13.39,1.71,20.12,2.06,6.71.27,13.43-.52,20.12-1.03,6.73-.5,13.52-.96,20.12-2.48"/><path class="b" d="M8.1,91.73c5.78-1.18,11.63-2.27,17.49-2.94,5.22-.46,10.51-.35,15.74-.52,4.07-.11,8.19-.37,12.24-.8,2.6-.27,5.27-.62,7.87-.87,1.99-.12,4.25-.54,6.12.33,0,0,.87.99.87.99.22,1.06.81,4.54,1.75,5.24h3.5c.91-.65,1.77-1.9,2.62-2.6.97-.74,2.29-1.23,3.5-1.37,4.95-.41,9.93.64,14.87.84,9.61.7,19.25.07,28.86-.27,6.38.86,12.81,1.79,19.24,2.09,4.95.19,9.94-.19,14.87-.6,8.75-.81,17.61-.98,26.24-2.79"/><path class="b" d="M8.1,89.61c6.12-.78,12.23-1.93,18.37-2.5,6.1-.45,12.26-.29,18.37-.63,4.67-.23,9.37-.76,13.99-1.46,1.7-.25,3.54-.53,5.25-.75,1.1-.08,2.44-.48,3.5-.05,1.68,1.82,2.29,4.87,3.5,6.98,1.07.35,2.39.18,3.5.21,1.02-.24,1.85-1.42,2.62-2.05.72-.56,1.75-1.13,2.62-1.38,3.99-1.01,8.2-.23,12.24-.03,5.22.39,10.51.56,15.74.48,5.23-.07,10.51-.37,15.74-.4,6.07.94,12.22,1.8,18.37,2.06,7,.23,14.01-.59,20.99-1.09,7.01-.49,14.08-.83,20.99-2.2"/><path class="b" d="M8.1,87.62c5.85-.39,11.67-1.44,17.49-2.06,5.51-.49,11.09-.41,16.62-.64,4.37-.17,8.79-.52,13.12-1.15,2.31-.33,4.7-.76,7-1.15,1.69-.2,3.68-.93,5.25.04,2.42,1.66,3.14,5.03,5.25,6.95,1.1.06,2.41.13,3.5-.09,2.03-1.84,4.17-3.35,7-3.55,4.64-.43,9.35.24,13.99.38,5.81.29,11.68.21,17.49.06,2.89-.07,5.86-.14,8.75-.11,5.78.95,11.64,1.77,17.49,1.98,7,.21,14.01-.61,20.99-1.09,7.3-.5,14.66-.76,21.86-2.14"/><path class="b" d="M8.1,85.72c6.45-.08,12.83-1.42,19.24-1.94,6.68-.48,13.43-.33,20.12-.86,3.79-.28,7.63-.77,11.37-1.45,2-.35,4.1-.82,6.12-1.06,1.19.02,2.52.52,3.5,1.19,2.1,1.5,3.45,4,5.25,5.8.95.76,2.37.46,3.5.47,1.18-.63,2.3-1.78,3.5-2.39,3.48-1.76,7.59-1.42,11.37-1.32,3.77.17,7.6.39,11.37.45,6.4.13,12.84-.18,19.24-.09,1.73-.03,3.54.52,5.25.73,2.58.37,5.27.68,7.87.92,8.15.76,16.35-.19,24.49-.75,7.88-.54,15.83-.69,23.61-2.15"/><path class="b" d="M8.1,83.91c6.45.2,12.84-1.21,19.24-1.77,6.97-.57,14.02-.41,20.99-.99,3.5-.27,7.05-.73,10.5-1.37,3.6-.61,6.14-1.8,9.62.12,2.01,1.06,3.68,2.88,5.25,4.49.69.67,1.65,1.56,2.62,1.76.81.02,1.89.08,2.62-.32,1.06-.77,2.3-1.72,3.5-2.26,3.27-1.43,7-1.33,10.5-1.27,4.06.12,8.18.35,12.24.39,6.11.09,12.26-.17,18.37-.01,4.62.7,9.3,1.54,13.99,1.74,7.58.39,15.18-.49,22.74-.93,7.88-.48,15.84-.58,23.61-2.06"/><path class="b" d="M8.1,82.15c6.45.45,12.85-1.02,19.24-1.66,6.97-.67,14.01-.53,20.99-1.07,3.49-.26,7.05-.68,10.5-1.3,1.71-.29,3.54-.71,5.25-.99,1.77.21,3.65.69,5.25,1.49,1.89.94,3.65,2.42,5.25,3.78,1.7,1.56,3.97,2.85,6.12,1.3,1.29-.96,2.83-1.9,4.37-2.37,3.37-1.03,7.01-.95,10.5-.9,4.06.1,8.18.28,12.24.28,5.23,0,10.51-.17,15.74-.03,1.43-.01,2.96.53,4.37.72,3.16.49,6.42.87,9.62,1.02,7.58.33,15.17-.54,22.74-.9,7.88-.39,15.85-.45,23.61-2"/><path class="b" d="M8.1,80.46c6.75.69,13.44-.98,20.12-1.69,7.26-.75,14.6-.62,21.86-1.22,4.39-.34,8.81-1,13.12-1.88,3.37-.17,6.79,1.29,9.62,3.04,2.01,1.23,3.88,3,6.12,3.81,2.33.61,4.13-1.66,6.12-2.45,2.99-1.32,6.39-1.52,9.62-1.58,4.36-.05,8.76.16,13.12.15,4.94-.02,9.93-.2,14.87-.15,2.05-.13,4.12.56,6.12.88,2.58.39,5.27.69,7.87.84,7.57.41,15.17-.39,22.74-.67,8.18-.33,16.45-.3,24.49-2"/><path class="b" d="M8.1,78.83c7.04.92,14.04-.94,20.99-1.77,6.96-.82,14.01-.76,20.99-1.26,4.38-.3,8.81-.86,13.12-1.71,3.98-.14,7.97,1.56,11.37,3.52,1.95,1.12,3.91,2.62,6.12,3.2.85.07,1.89-.35,2.62-.73,1.91-1.15,3.87-2.48,6.12-2.87,4.28-.93,8.76-.76,13.12-.77,6.99.13,14-.35,20.99-.34,1.76-.14,3.53.6,5.25.86,2.87.44,5.85.75,8.75.91,7.28.35,14.59-.28,21.86-.43,8.18-.19,16.47-.14,24.49-1.99"/><path class="b" d="M8.1,77.1c2.24.67,4.69.5,7,.41,4.71-.2,9.35-1.31,13.99-1.99,6.65-.98,13.42-1.04,20.12-1.41,4.97-.27,9.98-.77,14.87-1.69,4.31.42,8.49,1.91,12.24,4.05,1.99.9,4.78,3.14,7,2.36,2.75-.92,4.95-3.2,7.87-3.65,6.02-1.25,12.26-.74,18.37-1.05,4.94-.2,9.92-.58,14.87-.6,1.44-.06,2.95.65,4.37.82,3.46.49,7.01.88,10.5,1.05,6.98.29,14.01-.1,20.99-.1,7.9,0,15.91-.07,23.61-2.03"/><path class="b" d="M8.1,75.37c6.87,1.98,14.14-.11,20.99-1.25,6.33-1.17,12.82-1.42,19.24-1.71,5.55-.2,11.12-.74,16.62-1.53,3.94.51,7.82,1.76,11.37,3.54,1.69.81,3.49,1.74,5.25,2.4.43.16,1.3.41,1.75.49.45-.07,1.32-.3,1.75-.47,2.76-.93,5-3.22,7.87-3.8,6.31-1.3,12.85-.88,19.24-1.49,4.06-.28,8.17-.66,12.24-.73,1.44-.1,2.96.57,4.37.74,3.17.39,6.43.76,9.62,1.04,8.14.59,16.34.37,24.49.54,4.36.04,8.79,0,13.12-.6,1.41-.19,2.98-.47,4.37-.77,1.09-.19,2.38-.71,3.5-.56"/><path class="b" d="M8.1,74.07c8.7,1.66,15.19.12,23.61-1.67,5.75-1.14,11.65-1.46,17.49-1.72,5.54-.21,11.12-.59,16.62-1.33,3.94.56,7.78,1.89,11.37,3.56,1.39.62,2.95,1.33,4.37,1.88,1.06.36,2.36.96,3.5.64,3.14-.88,5.95-2.81,8.75-4.43,1.08-.29,2.39-.54,3.5-.69,4.63-.62,9.35-.68,13.99-1.16,4.35-.4,8.75-.81,13.12-.88,1.42-.07,2.96.43,4.37.55,4.65.36,9.34.97,13.99,1.29,9.02.45,18.08,1.01,27.11.78,2.61-.12,5.31-.42,7.87-.93.77-.15,1.86-.39,2.62-.57,1.09-.04,2.41.05,3.5.09"/><path class="b" d="M8.1,72.68c2.89.28,5.84.74,8.75.85,2.3.05,4.71-.18,7-.47,6.44-.99,12.7-3.14,19.24-3.52,5.51-.54,11.1-.58,16.62-.96,2.6-.08,5.28-.63,7.87-.59,2.05.39,4.17.99,6.12,1.72,3.77,1.34,7.4,3.42,11.37,4.14,3.17-.49,6.01-2.35,8.75-3.92,1.09-.57,2.25-1.59,3.5-1.76,2.57-.48,5.27-.7,7.87-.92,9-.97,18.07-1.11,27.11-.69,9.91.66,19.81,1.66,29.74,2.07,3.77.16,7.62.17,11.37-.33,1.41-.19,2.99-.47,4.37-.78,2,0,4.12.15,6.12.22"/><path class="b" d="M8.1,71.23c2.9.17,5.85.6,8.75.86,3.77.1,7.64.15,11.37-.45,4.12-.72,8.12-2.2,12.24-2.9,8.65-1.53,17.51-1.22,26.24-1.97,2.39-.46,4.77.52,7,1.28,3.76,1.35,7.43,3.23,11.37,4,3.16.13,6.07-1.88,8.75-3.34,5.62-3.42,4.67-3.34,11.37-3.82,6.1-.48,12.26-.22,18.37-.28,5.82.05,11.68-.13,17.49.14,7.58.37,15.16,1.27,22.74,1.59,3.78.14,7.65-.08,11.37-.82,2.88.25,5.86.3,8.75.45"/><path class="b" d="M8.1,69.75c2.61.03,5.28.39,7.87.6,2.59.11,5.28.02,7.87.05,3.47-.1,7.09.34,10.49-.51,4.04-1.08,8.07-2.48,12.24-2.98,6.36-.9,12.83-.91,19.24-1.2,1.7,0,3.55-.31,5.25-.13,3.26.91,6.43,2.29,9.62,3.4,4.83,1.84,6.77,1.81,11.37-.64,3.27-1.61,6.16-4.19,9.62-5.4,7.85-.24,15.75-.02,23.61-.09,7.57.04,15.17-.09,22.74.07,4.95.17,9.92.74,14.87.96,3.19.21,6.45-.13,9.62-.39,3.75.46,7.6.48,11.37.68"/><path class="b" d="M8.1,68.27c2.9-.12,5.85.37,8.75.39,3.19-.08,6.46.22,9.62-.33,3.77-.28,7.59.66,11.37.29,2.96-.46,5.82-1.67,8.75-2.27,3.71-.83,7.58-1.17,11.37-1.37,3.18-.15,6.44-.25,9.62-.36,1.99.06,4.21-.5,6.12.21,4.03,1.34,8.02,3.15,12.24,3.8,2.44-.16,4.84-1.18,7-2.28,1.78-.91,3.57-2.13,5.25-3.21,1.55-.99,3.32-2.21,5.25-2.01,8.15,0,16.34,0,24.49,0,8.44,0,16.92-.02,25.36,0,4.94.08,9.93.64,14.87.29,2-.13,4.11.48,6.12.55,3.18.25,6.44.26,9.62.46"/><path class="b" d="M8.1,66.73c3.48-.17,7.02.35,10.5,0,1.73-.16,3.68-.26,5.25-1.09,1.77-1.41,2.38-4.31,5.25-3.33,1.25.38,2.39,1.4,3.5,2.04,3.17,1.85,6.82,2.91,10.49,2.53,2.94-.44,5.82-1.54,8.75-2.03,4.02-.75,8.17-1,12.24-1.15,2.3-.08,4.7-.13,7-.15,1.76-.06,3.63-.05,5.25.72,2.85.95,5.78,1.97,8.75,2.5,2.73.24,5.46-1.1,7.87-2.24,2.09-1.07,4.15-2.45,6.12-3.71.74-.47,1.78-1.07,2.62-1.34.77-.15,1.84-.11,2.62-.11,8.44,0,16.92,0,25.36,0,11.95,0,23.91,0,35.86,0,2.61.05,5.26.69,7.87.82,3.47.26,7.02.22,10.5.46"/><path class="b" d="M8.1,64.89c4.33.14,8.94.65,13.12-.73,2.79-1.09,2.75-4.52,4.37-6.55,1.41,0,2.97-.02,4.37.03.85.35,1.86,1.07,2.62,1.57,2.78,1.74,5.77,3.32,8.75,4.7,5.18,2.71,10.43.21,15.74-.48,6.06-.81,12.26-1.01,18.37-.62,2.32.52,4.66,1.38,7,1.86,4.28,1.27,8.59-1.01,12.24-3.05,2.32-1.25,4.43-3.26,7-3.98,3.47-.06,7.02,0,10.5-.02,17.2,0,34.41,0,51.6,0,2.91-.05,5.84.77,8.75.88,3.76.24,7.61.13,11.37.41"/><path class="b" d="M8.1,62.85c4.03.27,8.31.85,12.24-.33,2.91-1.63,5.41-4.2,7.87-6.45,1.07-.35,2.39-.17,3.5-.21,1.48.02,3.01.69,4.37,1.19,3.62,1.37,7.11,3.22,10.5,5.08,2.99,1.44,6.43,1.47,9.62.76,6.04-1.06,12.24-1.48,18.37-1.07,3.8.12,7.56,2.1,11.37,1.3,3.44-.69,6.68-2.32,9.62-4.18,1.93-1.08,3.8-3.02,6.12-3.07,3.77,0,7.6,0,11.37,0,16.32,0,32.66,0,48.98,0,2.92-.08,5.83.91,8.75,1,4.35.26,8.77-.03,13.12.33"/><path class="b" d="M8.1,60.79c8.59.88,11.95,1.37,19.24-3.89,1.2-.75,2.2-2.15,3.5-2.75,1.7-.06,3.55-.09,5.25.03,3.3.39,6.61,1.33,9.62,2.75.92.33,1.83,1.29,2.62,1.84,1.29.89,2.87,1.62,4.37,2.04,1.95.49,4.11.88,6.12.72,3.18-.35,6.42-.73,9.62-.81,2.6-.08,5.29-.04,7.87.26,2.58.31,5.28.96,7.87.46,4.81-.77,9.14-3.28,13.12-5.97,1.25-.9,2.81-1.54,4.37-1.35,1.7,0,3.54,0,5.25,0,4.94,0,9.93,0,14.87,0,12.82,0,25.66,0,38.48,0,3.22.11,6.38,1.39,9.62,1.38,4.65.12,9.35-.37,13.99.05"/><path class="b" d="M8.1,58.75c8.45.94,12.51,1.48,20.12-3.14,3.78-2.46,2.82-3.55,7.87-3.25,3.78-.01,7.7-.09,11.37.98,2.23,2.16,4.87,4.11,7.87,5.03,3.08.98,6.4,1.31,9.62,1.4,2-.12,4.12-.21,6.12-.22,4.36-.08,8.83.89,13.12-.28,4.8-1.01,9.03-3.65,13.12-6.24,1.27-.83,2.93-.67,4.37-.67,1.7,0,3.54,0,5.25,0,5.52,0,11.09,0,16.62,0,11.65.08,23.34-.16,34.98.09,3.18.66,6.34,1.8,9.62,1.88,5.23.1,10.5-.91,15.74-.37"/><path class="b" d="M8.1,56.86c8.6.68,12.97,1.66,20.99-2.71,1.84-.93,3.29-2.78,5.25-3.5,1.41-.07,2.97-.02,4.37-.03,2.89,0,5.86,0,8.75,0,1.72-.15,3.04,1.5,4.37,2.35,2.08,1.51,4.52,2.67,7,3.35,4.25,1.17,8.74,1.4,13.12,1.51,4.7.12,9.52.05,13.99-1.57,2.09-.69,4.21-1.66,6.12-2.74,1.7-.92,3.4-2.22,5.25-2.82,9.9-.16,19.84-.11,29.74,0,6.4-.09,12.84-.08,19.24-.08,2.88.07,5.87-.15,8.75.11,1.75.32,3.55,1.02,5.25,1.52,3.08.96,6.41,1.31,9.62,1.05,4.62-.56,9.33-1.3,13.99-.86"/><path class="b" d="M8.1,55.1c8.44.52,13.92,1.57,21.86-2.48,2.62-1.24,4.67-4.29,7.87-3.75,4.06,0,8.18,0,12.24,0,1.59.37,2.97,1.66,4.37,2.42,2.14,1.28,4.58,2.24,7,2.84,6.54,1.45,13.5,1.88,20.12.69,2.41-.52,4.71-1.71,7-2.6,2.06-.89,4.06-2.18,6.12-3.06,1.64-.54,3.55-.21,5.25-.29,2.59,0,5.28,0,7.87,0,6.41,0,12.85-.12,19.24.34,2.89.03,5.86-.29,8.75-.31,4.65-.06,9.35-.01,13.99-.02,4.57.06,8.6,2.88,13.12,3.36,3.78.6,7.65-.03,11.37-.75,3.15-.52,6.43-.79,9.62-.52"/><path class="b" d="M8.1,53.48c8.43.36,14.78,1.39,22.74-2.46,2.16-.98,3.96-2.83,6.12-3.8.79-.14,1.83-.11,2.62-.11,3.77,0,7.6,0,11.37,0,1.93-.1,3.57,1.45,5.25,2.21,2.45,1.27,5.17,2.18,7.87,2.73,8.45,1.62,17.75,1.64,25.36-2.83,1.62-.85,3.41-1.82,5.25-2.07,3.18-.11,6.44-.01,9.62-.04,4.94,0,9.93,0,14.87,0,2.6.14,5.26.61,7.87.62,5.23-.12,10.5-.7,15.74-.61,2,.02,4.14-.12,6.12.21,3.62.66,6.94,2.55,10.5,3.44,3.4.91,7.04.89,10.5.36,4.57-1.04,9.28-2.06,13.99-1.65"/><path class="b" d="M8.1,51.9c9.17.26,15.86,1.31,24.49-2.94,1.14-.63,2.42-1.52,3.5-2.25,1-.69,2.22-1.51,3.5-1.34,4.36,0,8.76,0,13.12,0,1.86.23,3.53,1.52,5.25,2.19,2.48,1.11,5.2,1.89,7.87,2.37,6.35,1.11,13.04,1.05,19.24-.85,3.24-.96,6.32-2.65,9.62-3.42,2.26-.48,4.7-.24,7-.29,3.77,0,7.6,0,11.37,0,1.7.02,3.55-.05,5.25.04,2.88.32,5.84.84,8.75.82,5.53-.17,11.08-.85,16.62-.78,5.91-.23,10.93,3.69,16.62,4.65,3.44.62,7.09.44,10.5-.33,4.25-1.14,8.69-2.1,13.12-1.77"/><path class="b" d="M8.1,50.33c9.52.14,16.4,1.26,25.36-3.07,1.49-.73,2.98-1.83,4.37-2.72,1.01-.77,2.26-1.04,3.5-.93,4.35.09,8.78-.18,13.12.12,1.75.61,3.5,1.58,5.25,2.2,2.52.93,5.22,1.58,7.87,1.98,5.5.82,11.19.57,16.62-.66,3.84-.84,7.52-2.46,11.37-3.25,3.73-.69,7.6-.31,11.37-.4,4.06.11,8.22-.31,12.24.36,3.44.57,7.01.87,10.5.59,4.64-.41,9.34-.75,13.99-.72,6.16.49,11.32,4.8,17.49,5.34,3.18.35,6.51.1,9.62-.63,4.24-1.25,8.67-2.34,13.12-2.05"/><path class="b" d="M8.1,48.76c5.23,0,10.53.4,15.74-.09,3.63-.41,7.19-1.63,10.49-3.14,1.49-.69,3-1.75,4.37-2.64,1-.74,2.26-1.17,3.5-1.02,2.59,0,5.28,0,7.87,0,1.7.07,3.57-.18,5.25.17,4.18,1.82,8.56,3.34,13.12,3.83,5.22.7,10.58.4,15.74-.58,4.4-.82,8.69-2.38,13.12-3.03,3.16-.47,6.44-.38,9.62-.39,2.89.04,5.86-.09,8.75.08,3.75.55,7.56,1.25,11.37,1.13,4.94-.2,9.91-.89,14.87-.83,8.68.12,12.52,7.03,24.49,5.76,2.98-.18,5.89-1.16,8.75-1.96,2.82-.74,5.82-1.18,8.75-1.05"/><path class="b" d="M8.1,47.18c5.23,0,10.52.25,15.74-.1,3.31-.26,6.57-1.27,9.62-2.54,1.8-.73,3.65-1.71,5.25-2.8,1.97-1.4,2.83-1.78,5.25-1.62,3.77.03,7.6-.06,11.37.04,1.76.49,3.5,1.44,5.25,1.98,2.81.93,5.81,1.48,8.75,1.8,5.82.63,11.76.07,17.49-1.01,5.21-1.03,10.41-2.48,15.74-2.68,4.05-.11,8.2-.27,12.24.02,5.47,1,11.07,1.55,16.62.85,4.05-.34,8.18-.69,12.24-.44,3.4.72,6.48,2.56,9.62,3.97,5.42,2.59,11.7,2.61,17.49,1.38,4.23-1.36,8.62-2.73,13.12-2.58"/><path class="b" d="M8.1,45.5c5.06-.26,9.92.13,14.87,0,3.92-.12,7.79-1.19,11.37-2.75,1.79-.75,3.64-1.73,5.25-2.81,1.3-.92,2.71-1.81,4.37-1.58,3.77,0,7.6,0,11.37,0,2.09.41,4.05,1.66,6.12,2.18,2.82.84,5.82,1.31,8.75,1.56,5.83.48,11.74-.1,17.49-1.04,5.79-1.01,11.59-2.36,17.49-2.55,2.59-.07,5.29-.22,7.87-.05,2.59.35,5.26.89,7.87,1.1,4.65.47,9.36-.1,13.99-.45,2.88-.19,5.86-.29,8.75-.11,2.77.7,5.35,2.21,7.87,3.51,4.5,2.54,9.77,3.28,14.87,2.78,2.99-.16,5.93-1.01,8.75-1.97,2.81-.86,5.8-1.46,8.75-1.45"/><path class="b" d="M8.1,43.62c4.94-.19,9.94-.17,14.87.23,3.9-.07,7.8-.98,11.37-2.54,1.77-.73,3.62-1.65,5.25-2.66,1.09-.66,2.28-1.59,3.5-2,.46-.02,1.3-.04,1.75-.03,3.77.06,7.61-.14,11.37.09,1.72.61,3.48,1.53,5.25,2.03,3.1.93,6.4,1.38,9.62,1.6,5.83.34,11.72-.21,17.49-1.05,5.81-.89,11.61-2.14,17.49-2.46,1.7-.08,3.55-.2,5.25-.14,3.18.38,6.41,1.04,9.62,1.21,5.25.41,10.51-.38,15.74-.63,2.3-.1,4.71-.12,7,.08,3.79.91,6.9,3.65,10.49,5.07,5.23,2.11,11.15,1.75,16.62.89,4.32-1.11,8.57-3.02,13.12-3.01"/><path class="b" d="M8.1,41.74c4.06-.12,8.19-.24,12.24.02,5.05.7,9.31.08,13.99-1.93,2.08-.85,4.22-1.91,6.12-3.11,1.08-.64,2.25-1.6,3.5-1.86.46,0,1.3,0,1.75,0,3.48.02,7.02-.04,10.49.03,2.04.66,4.02,1.83,6.12,2.32,3.11.84,6.41,1.22,9.62,1.39,6.13.23,12.3-.32,18.37-1.18,5.52-.8,11.05-1.95,16.62-2.37,2.31-.3,4.71.06,7,.42,2.28.34,4.69.59,7,.7,5.25.3,10.51-.46,15.74-.66,2.59-.09,5.3-.09,7.87.28,4.71,1.98,8.68,5.94,13.99,6.36,1.39.21,2.97-.11,4.37-.13,1.7-.07,3.55.04,5.25.17,2.69-.13,5.35-.93,7.87-1.84,2.52-.84,5.21-1.5,7.87-1.64"/><path class="b" d="M8.1,39.82c4.06-.02,8.19-.22,12.24.03,1.71.1,3.55.3,5.25.52,2.04-.11,4.18-.48,6.12-1.1,2.7-.88,5.39-2.1,7.87-3.48,1.71-.82,3.3-2.49,5.25-2.68,3.77,0,7.6,0,11.37,0,2.09.47,4.01,1.85,6.12,2.33,3.11.88,6.41,1.24,9.62,1.41,6.42.24,12.89-.28,19.24-1.15,4.96-.67,9.9-1.74,14.87-2.34,2-.33,4.13.01,6.12.27,2.58.36,5.27.64,7.87.74,5.83.3,11.67-.54,17.49-.66,2.3-.04,4.72.01,7,.42,1.6.32,3.02,1.58,4.37,2.43,1.88,1.3,3.94,2.64,6.12,3.36.75.25,1.84.48,2.62.58,1.41-.06,2.97-.4,4.37-.49,2.6-.23,5.3-.02,7.87.38,2.08.14,4.19-.7,6.12-1.36,2.52-.88,5.2-1.65,7.87-1.88"/><path class="b" d="M8.1,37.92c6.11-.05,12.3-.3,18.37.68,5-.21,9.69-2.43,13.99-4.82,1.66-.83,3.28-2.52,5.25-2.41,3.48,0,7.02,0,10.49,0,.87-.04,1.88.47,2.62.86,1.06.53,2.36,1.07,3.5,1.42,2.81.84,5.82,1.21,8.75,1.41,6.99.37,14.06-.16,20.99-1.09,4.68-.61,9.32-1.75,13.99-2.42,4.66.03,9.32,1.05,13.99,1.03,5.54.17,11.09-.5,16.62-.63,3.19,0,6.62-.15,9.62,1.06,1.74,1.17,3.48,2.64,5.25,3.77,1.79,1.03,4,2.29,6.12,1.86,2.55-.56,5.25-.96,7.87-.84,2.33.02,4.69.67,7,.88,3.84-.7,7.44-2.69,11.37-3.07"/><path class="b" d="M8.1,36.04c4.35-.04,8.77-.13,13.12.09,2.02.12,4.13.4,6.12.72,1.74-.1,3.59-.51,5.25-1.05,4.36-1.38,8.24-3.95,12.24-6.07,1.99-.25,4.12-.06,6.12-.11,1.41,0,2.97,0,4.37,0,.8,0,1.87-.07,2.62.24,3.74,2.09,7.99,3.08,12.24,3.37,7.28.52,14.64.03,21.86-.92,4.4-.56,8.75-1.73,13.12-2.49,4.65.23,9.33.86,13.99.9,5.53.12,11.09-.42,16.62-.56,3.49-.04,7.17-.11,10.5,1.1,1.88,1.03,3.44,2.83,5.25,3.98,1.77,1.15,4.01,2.31,6.12,1.44,3.38-.97,7-1.3,10.5-.82,1.1.14,2.42.39,3.5.64,1.07.26,2.41.65,3.5.23,2.88-.88,5.76-2.12,8.75-2.6"/><path class="b" d="M8.1,34.17c4.65-.06,9.35-.11,13.99.16,2.02.12,4.12.51,6.12.77.8-.09,1.84-.28,2.62-.45,3.38-.81,6.58-2.43,9.62-4.07,1.97-.91,3.84-2.84,6.12-2.71,3.77.05,7.61-.11,11.37.07,1.44.55,2.91,1.45,4.37,1.94,1.94.69,4.08,1.11,6.12,1.37,8.13.89,16.41.36,24.49-.78,2.32-.36,4.72-.85,7-1.4,1.4-.29,2.93-.87,4.37-.86,4.65.16,9.34.63,13.99.64,5.53.05,11.09-.37,16.62-.49,4.09-.02,8.47-.23,12.24,1.6,1.79,1.27,3.33,3.15,5.25,4.26,2.46,1.5,3.52,1.08,6.12.19,3.37-1.04,7.03-1.17,10.5-.64,1.42.21,2.99.58,4.37.96.75.21,1.83.54,2.62.39,2.62-.72,5.21-1.89,7.87-2.45"/><path class="b" d="M8.1,32.31c4.65-.08,9.35-.08,13.99.17,1.41.1,2.98.29,4.37.52,1.1.22,2.39.44,3.5.14,5.74-1.02,10.52-4.68,15.74-6.98,3.18-.1,6.44-.01,9.62-.04,1.1.03,2.42-.12,3.5.18,1.11.49,2.37,1.16,3.5,1.6,4.16,1.57,8.71,1.9,13.12,2,4.36.03,8.78-.14,13.12-.6,2.91-.31,5.89-.79,8.75-1.45,2.01-.36,4.06-1.34,6.12-1.25,4.65.09,9.34.41,13.99.37,5.23-.01,10.51-.33,15.74-.4,4.97.03,10.46-.53,14.87,2.21,1.43,1.2,2.77,2.85,4.37,3.84,2.06,1.31,3.07,1.02,5.25.09,1.64-.63,3.5-1.11,5.25-1.29,4.76-.57,9.46.74,13.99,2.04,2.38-.39,4.66-1.57,7-2.14"/><path class="b" d="M8.1,30.46c6.69-.04,13.52-.31,20.12,1.02,2.71.21,5.43-1.1,7.87-2.14,3.27-1.44,6.33-3.5,9.62-4.88,4.34-.22,8.77-.04,13.12-.08,2.05.63,4.01,1.89,6.12,2.38,4.82,1.29,9.91,1.41,14.87,1.31,4.67-.11,9.4-.47,13.99-1.33,1.41-.27,2.98-.63,4.37-1,1.1-.25,2.36-.83,3.5-.76,4.36,0,8.76.18,13.12.14,5.23-.03,10.51-.33,15.74-.37,5.49.15,11.54-.72,16.62,1.8,2.06.99,3.39,3.15,5.25,4.41,1.97,1.39,3.26.69,5.25-.23,1.9-.84,4.05-1.4,6.12-1.54,4.45-.36,8.92.64,13.12,2.07.75.24,1.85.61,2.62.24,1.41-.42,2.97-1.02,4.37-1.47"/><path class="b" d="M8.1,28.66c2.89-.2,5.86-.07,8.75-.03,3.79.03,7.66.24,11.37,1.07.82.27,1.82,0,2.62-.19,1.78-.43,3.6-1.18,5.25-1.96,11.93-5.9,6.69-4.88,20.12-4.92,1.4.07,3.04-.22,4.37.33,2.21,1.04,4.59,1.98,7,2.43,6.32,1.21,12.86.99,19.24.49,4.45-.3,8.82-1.42,13.12-2.5,8.74.05,17.5-.09,26.24-.42,3.18-.07,6.44-.01,9.62.02,2.9.06,5.92.09,8.75.83,1.53.41,3.13,1.24,4.37,2.22,1.19.92,2.28,2.39,3.5,3.28,1.89,1.47,3.41.46,5.25-.49,1.6-.8,3.47-1.4,5.25-1.64,3.78-.48,7.71-.04,11.37.96,2.02.54,4.07,1.43,6.12,1.84,1.11-.26,2.42-.72,3.5-1.09"/><path class="b" d="M8.1,26.87c2.89-.25,5.85-.15,8.75-.09,3.49.06,7.07.21,10.5.97.81.16,1.82.5,2.62.2,1.78-.37,3.61-1.08,5.25-1.85,2.32-1.11,4.69-2.39,7-3.54,1.36-.64,2.85-1.54,4.37-1.69,2.89,0,5.86,0,8.75,0,1.7.02,3.55-.06,5.25.05,2.3.78,4.59,1.95,7,2.42,4.57,1.03,9.33,1.12,13.99.99,3.79-.13,7.65-.47,11.37-1.22,2.03-.28,4.12-1.29,6.12-1.4,8.45,0,16.92-.28,25.36-.59,4.35-.1,8.77.02,13.12.14,5.71.11,10.11.96,13.99,5.54,2.65,2.85,4.22,1.06,7-.36,4.86-2.37,10.63-1.81,15.74-.64,1.73.43,3.56,1.09,5.25,1.67.75.26,1.84.59,2.62.74.41-.1,1.34-.33,1.75-.47"/><path class="b" d="M8.1,25.09c6.38-.36,12.96-.43,19.24.91,1.22.39,2.3.37,3.5-.06,1.46-.42,3.01-1.1,4.37-1.77,2.3-1.16,4.66-2.44,7-3.53,1.36-.6,2.87-1.4,4.37-1.52,2.89,0,5.86,0,8.75,0,2,.02,4.12-.05,6.12.04,2.04.57,4.05,1.6,6.12,2.08,3.97,1.02,8.16,1.26,12.24,1.23,3.79-.04,7.64-.31,11.37-.98,1.11-.2,2.41-.49,3.5-.78,1.09-.27,2.36-.79,3.5-.69,9.91.06,19.83-.69,29.74-.74,4.36.11,8.78.14,13.12.53,4.22.29,7.68,2.06,10.5,5.21,1.66,1.85,3.18,2.12,5.25.57,5.02-3.71,11.68-3.31,17.49-2.11,3.28.66,6.38,2.2,9.62,2.97"/><path class="b" d="M8.1,23.33c6.4-.4,12.97-.58,19.24.97,2.4.8,4.85-.75,7-1.69,3.92-1.89,7.86-4.63,12.24-5.23,2.59,0,5.28,0,7.87,0,2.88.12,5.9-.26,8.75.19,5,1.99,10.36,3,15.74,2.94,3.78.03,7.64-.22,11.37-.87,2.34-.27,4.64-1.42,7-1.37,5.23-.01,10.51-.1,15.74-.31,6.1-.31,12.26-.64,18.37-.33,4.65.28,9.49.07,13.99,1.46,2.36.76,4.42,2.43,6.12,4.18,1.67,1.84,3.19,2.23,5.25.56,3.46-2.86,7.86-3.66,12.24-3.31,5.15.16,10.09,1.83,14.87,3.62"/><path class="b" d="M8.1,21.58c6.11-.36,12.38-.76,18.37.84,2.47,1.04,4.8-.36,7-1.44,3.89-2.09,7.83-4.54,12.24-5.33,2.89-.08,5.86-.01,8.75-.03,3.18.06,6.45-.13,9.62.09,2.02.53,4.08,1.37,6.12,1.8,2.84.66,5.83.94,8.75.98,3.49.05,7.05-.18,10.5-.76,2.33-.26,4.63-1.42,7-1.28,7.28.09,14.6-.11,21.86-.51,5.82-.33,11.68-.16,17.49.24,3.51.24,7.18.36,10.5,1.65,1.57.62,3.13,1.71,4.37,2.84,1.22,1.08,2.54,2.83,4.37,2.46,2.42-1.15,4.31-3.47,7-4.17,2.79-.87,5.86-.82,8.75-.6,4.51.3,8.94,1.58,13.12,3.25"/><path class="b" d="M8.1,19.82c6.13-.25,12.42-.94,18.37.99,2.13.9,4.27-.57,6.12-1.51,3.82-2.26,7.78-4.68,12.24-5.36,2.59-.17,5.28-.02,7.87-.06,2.59-.02,5.28,0,7.87-.01,1.7.06,3.57-.15,5.25.16,4.8,1.52,9.8,2.57,14.87,2.41,2.9-.03,5.89-.28,8.75-.81,1.73-.23,3.51-1.02,5.25-1.06,4.65.18,9.35.15,13.99.06,8.45-.21,16.93-.98,25.36-.1,4.09.33,8.35.38,12.24,1.8,1.55.58,3.12,1.58,4.37,2.65,1.43,1.24,3.19,3.3,5.25,2.12,1.14-.82,2.35-2.01,3.5-2.83,1.51-1.08,3.42-1.8,5.25-2.06,6.49-.77,13.19.41,19.24,2.8"/><path class="b" d="M8.1,18.06c5.82-.07,11.88-1.02,17.49.93.47.13,1.29.38,1.75.49,1.54-.26,3.06-1.13,4.37-1.94,6.97-4.76,10.79-6.09,19.24-5.17,2.3.13,4.7-.07,7-.23,2.89-.03,5.86-.05,8.75,0,2.62.46,5.23,1.41,7.87,1.75,3.74.55,7.62.52,11.37.1,1.72-.2,3.56-.53,5.25-.93,1.08-.31,2.37-.58,3.5-.41,6.69.35,13.43.35,20.12.1,6.7-.38,13.44-.4,20.12.35,5.05.47,10.56.53,14.87,3.53,1.43.91,2.71,2.52,4.37,3.01,4.54.19,3.79-6.29,14.87-6.05,5.04.04,10.15.85,14.87,2.67"/></svg>