<?xml version="1.0" encoding="UTF-8"?><svg id="a" xmlns="http://www.w3.org/2000/svg" width="1920" height="2400" viewBox="0 0 192 240"><defs><style>.b{fill:none;stroke:#fff;stroke-miterlimit:10;stroke-width:.3px;}.c{stroke-width:0px;}</style></defs><rect class="c" width="192" height="240"/><path class="b" d="M7.96,225.99c11.71-.13,23.32-2.35,35.04-2.01,5.57.14,11.18.67,16.65,1.78,2.02.42,4.14.99,6.13,1.53,1.38.3,2.96.93,4.38.61,3.47-.6,6.39-2.88,9.64-4.06,3.77-.5,7.63.03,11.39.42,3.47.32,7.03.4,10.51.61,5.24.3,10.52.67,15.77.74,7,.06,14.03-.06,21.03.28,7.57.28,15.2.84,22.78.43,7.63-.49,15.21-1.84,22.78-2.87"/><path class="b" d="M7.96,223.86c9.07-.3,18.08-1.73,27.16-1.95,7.31-.18,14.69.18,21.9,1.4,4.14.63,8.17,2.06,12.26,2.88,3.4-.2,6.51-2.11,9.64-3.32,2.71-1.51,5.81-.95,8.76-.7,3.17.41,6.44.59,9.64.74,6.12.3,12.27.79,18.4.92,7,.13,14.03-.03,21.03.25,7.58.24,15.2.8,22.78.39,8.22-.47,16.38-1.79,24.53-2.89"/><path class="b" d="M7.96,221.67c7.01-.39,14.02-1.28,21.03-1.7,9.05-.36,18.2-.18,27.16,1.23,4.15.6,8.22,1.85,12.26,2.92,2.36.8,4.79-.52,7.01-1.25,2.57-.97,5.23-1.96,7.88-2.66,3.49,0,7.02.73,10.51.79,7,.31,14.02.89,21.03,1.07,7,.16,14.03.02,21.03.25,7.29.2,14.61.68,21.9.33,8.8-.45,17.57-1.71,26.28-2.94"/><path class="b" d="M7.96,219.41c10.49-.89,21-2.05,31.54-1.55,9.46.24,18.99,1.12,28.03,4.06,1.09.29,2.37.71,3.5.7,1.12-.22,2.42-.61,3.5-.96,2.58-.86,5.24-1.76,7.88-2.38,1.09-.24,2.38-.58,3.5-.61,2,.22,4.12.45,6.13.53,7,.28,14.02.85,21.03,1.09,6.99.23,14.03.09,21.03.26,7.58.16,15.2.61,22.78.26,9.08-.51,18.17-1.59,27.16-3.01"/><path class="b" d="M7.96,217.05c5.81-.59,11.69-1,17.52-1.29,5.24-.15,10.53.02,15.77.24,9.18.31,18.41,1.2,27.16,4.15,1.09.28,2.37.75,3.5.65,2.63-.58,5.27-1.54,7.88-2.19,2.56-.66,5.25-1.16,7.88-1.39,2,.17,4.13.22,6.13.3,6.42.23,12.85.79,19.27.97,6.7.21,13.45.12,20.15.26,7.87.13,15.78.54,23.65.13,4.67-.22,9.37-.74,14.02-1.24,4.37-.51,8.83-.94,13.14-1.86"/><path class="b" d="M7.96,214.56c10.76-1.18,21.62-1.07,32.41-.48,5.84.28,11.74.51,17.52,1.42,3.86.58,7.67,1.72,11.39,2.86.78.23,1.84.5,2.63.66.81.07,1.85-.22,2.63-.43,2.29-.61,4.68-1.28,7.01-1.74,2.57-.56,5.29-.7,7.88-1.13,2.89,0,5.87.11,8.76.25,11.66.82,23.36.93,35.04,1.01,10.51.22,21.07.53,31.54-.63,6.43-.69,12.97-1.13,19.27-2.65"/><path class="b" d="M7.96,211.94c10.48-1.04,21.05-.28,31.54.27,6.42.35,12.91.45,19.27,1.44,4.48.63,8.79,2.21,13.14,3.39,1.72.59,3.57-.24,5.26-.58,2.57-.63,5.25-1.18,7.88-1.46,2.32-.13,4.69-.77,7.01-.89,3.78,0,7.62.21,11.39.42,10.49.67,21.03.58,31.54.72,10.52.25,21.07.22,31.54-.97,5.86-.62,11.83-1.09,17.52-2.71"/><path class="b" d="M7.96,209.2c8.46-.56,16.97.23,25.41.81,6.11.46,12.28.64,18.4.97,4.41.26,8.87.77,13.14,1.92,2.03.53,4.13,1.24,6.13,1.84,1.38.33,2.96,1.05,4.38.64,3.74-.84,7.57-1.57,11.39-1.9,2.31-.24,4.68-.97,7.01-1.03,5.54-.01,11.11.47,16.65.65,7.58.29,15.2.28,22.78.34,7.58.07,15.2.24,22.78-.22,4.66-.29,9.37-.74,14.02-1.23,4.71-.53,9.5-1.16,14.02-2.63"/><path class="b" d="M7.96,207.02c1.96-.6,4.12-.35,6.13-.34,2.9.08,5.87.27,8.76.49,7.86.71,15.75,1.55,23.65,1.75,5.85.22,11.8.34,17.52,1.69,2.64.61,5.29,1.51,7.88,2.3,1.67.47,3.52,1.17,5.26.64,3.16-.66,6.43-1.08,9.64-1.42,2.61-.36,5.27-1.03,7.88-1.32,5.83-.06,11.69.44,17.52.58,7.29.24,14.61.23,21.9.27,7.88.06,15.79.12,23.65-.48,8.81-.78,17.84-1.21,26.28-4.07"/><path class="b" d="M7.96,205.02c3.15-.53,6.46-.16,9.64-.26,8.79.26,17.49,2.04,26.28,2.25,6.42.31,12.94.11,19.27,1.34,2.96.56,5.9,1.54,8.76,2.45,1.95.5,4.09,1.48,6.13,1.13,2.88-.52,5.86-.8,8.76-1.16,2.9-.46,5.85-1.15,8.76-1.58,5.54-.12,11.11.31,16.65.43,7.29.22,14.61.24,21.9.24,7,.01,14.04.03,21.03-.43,9.73-.7,19.6-1.4,28.91-4.52"/><path class="b" d="M7.96,203.13c2.29-.26,4.71-.07,7.01-.12,2.89.03,5.87-.08,8.76.08,6.13.56,12.24,1.68,18.4,1.98,6.7.47,13.49.09,20.15,1.07,5.41.7,10.41,3.21,15.77,4.11,2.01.12,4.12-.46,6.13-.55,4.12-.34,8.18-1.52,12.26-2.12,3.77-.14,7.62.03,11.39.15,8.75.3,17.53.38,26.28.33,10.23.04,20.49-.27,30.66-1.4,3.8-.4,7.66-.93,11.39-1.78,2.63-.48,5.2-1.78,7.88-1.88"/><path class="b" d="M7.96,201.32c6.11-.12,12.28-.11,18.4,0,5.54.53,11.08,1.58,16.65,1.89,6.7.51,13.49.03,20.15,1,4.82.64,9.32,2.7,14.02,3.84,2.92.84,5.81.39,8.76.1,4.69-.55,9.26-2.29,14.02-2.21,21.31.21,42.72,1.19,63.95-1.15,3.8-.42,7.66-.99,11.39-1.88,2.88-.67,5.75-1.92,8.76-1.64"/><path class="b" d="M7.96,199.56c6.99-.11,14.03-.11,21.03,0,5.25.5,10.5,1.48,15.77,1.76,6.11.45,12.31.04,18.4.78,4.22.48,8.26,1.99,12.26,3.31,4.51,1.49,9.38,1.84,14.02.76,2.89-.55,5.83-1.4,8.76-1.71,4.36-.28,8.78-.14,13.14-.08,7.87.15,15.78.2,23.65.06,10.53-.13,21.1-.57,31.54-2.04,3.22-.47,6.5-1.1,9.64-1.98,1.08-.3,2.39-.69,3.5-.88,1.4-.1,2.98-.04,4.38-.05"/><path class="b" d="M7.96,197.9c2.86-.35,5.87-.06,8.76-.15,4.66,0,9.36-.02,14.02.01,5.26.33,10.5,1.33,15.77,1.6,5.53.39,11.13.07,16.65.61,3.91.36,7.72,1.56,11.39,2.89,3.35,1.23,6.94,1.96,10.51,2.04,1.41.14,2.99.2,4.38-.13,2.91-.49,5.83-1.38,8.76-1.75,4.93-.47,9.94-.34,14.89-.31,8.75.11,17.53.07,26.28-.18,9.07-.26,18.19-.79,27.16-2.2,3.84-.53,7.61-1.71,11.39-2.54,2-.13,4.13-.03,6.13-.06"/><path class="b" d="M7.96,196.56c1.82-1.01,4.13-.42,6.13-.57,2.89,0,5.87,0,8.76,0,4.07.05,8.2-.11,12.26.09,4.66.38,9.34,1.05,14.02,1.27,10.09.44,16.52-.5,26.28,3.5,3.35,1.27,6.94,1.89,10.51,2.03,2.01.19,4.14.6,6.13.01,7.71-2.03,15.74-1.85,23.65-1.83,8.75.04,17.53-.08,26.28-.43,8.17-.48,16.42-.71,24.53-1.93,3.56-.51,7.05-1.65,10.51-2.58,2.28-.31,4.71-.07,7.01-.14"/><path class="b" d="M7.96,196.25c2.47-2.63,2.84-1.93,6.13-2.01,2.6,0,5.29,0,7.88,0,7,.08,14.05-.27,21.03.39,3.77.32,7.61.61,11.39.68,3.78.1,7.63.02,11.39.5,4.26.46,8.24,2.22,12.26,3.56,3.09,1.06,6.42,1.2,9.64,1.54,1.41.17,2.97.42,4.38.59,1.72-.27,3.55-.7,5.26-1,9.26-1.48,18.7-.93,28.03-1.15,10.23-.05,20.45-.8,30.66-1.23,5.27-.28,10.6-.69,15.77-1.8,2.34-.48,4.7-1.3,7.01-1.89,1.68-.34,3.55-.13,5.26-.19"/><path class="b" d="M7.96,197.92c1.24-.76,2.53-1.91,3.5-2.99.77-.79,1.57-2.03,2.63-2.44,3.19,0,6.45-.01,9.64,0,4.07.23,8.19.34,12.26.17,6.71-.45,13.44.27,20.15.38,4.67.12,9.46,0,14.02,1.16,2.98.73,5.83,2.11,8.76,3.01,2.52.84,5.25,1.11,7.88,1.34,2.02.24,4.13.62,6.13.97,1.41.38,2.98-.11,4.38-.33,1.7-.29,3.54-.53,5.26-.71,9.3-.96,18.7-.58,28.03-.94,6.42-.19,12.87-.46,19.27-.98,4.07-.04,8.2-.18,12.26-.45,4.1-.28,8.26-.71,12.26-1.61,3.21-.62,6.31-2.27,9.64-2.03"/><path class="b" d="M7.96,198.3c4.1.27,6.98-1.18,8.76-4.95.72-.59,1.77-.49,2.63-.51,1.11-.03,2.4-.07,3.5-.13,3.2-.2,6.45-.55,9.64-.89,3.19-.34,6.44-.78,9.64-1.02,6.7-.16,13.45,0,20.15.1,3.22.07,6.54.27,9.64,1.22,3.51,1.1,6.88,2.86,10.51,3.56,1.98.41,4.14.47,6.13.82,2.32.36,4.69.96,7.01,1.33,1.1.28,2.41-.07,3.5-.19,1.41-.18,2.98-.39,4.38-.59,7.26-.79,14.61-.72,21.9-.98,8.47-.18,16.96-.63,25.41-1.22,7.89-.09,15.86-.14,23.65-1.47,3.27-.51,6.46-1.7,9.64-2.56"/><path class="b" d="M7.96,195.89c3.12.73,6.46.85,9.64.53,3.64-1.74,7.45-3.24,11.39-4.18,4.62-1.17,9.31-2.36,14.02-3.11,4.93-.35,9.95-.05,14.89-.14,3.77.04,7.62-.08,11.39.06,3.33.49,6.54,1.72,9.64,2.98,2.78,1.13,5.83,1.48,8.76,1.95,3.48.7,7,1.56,10.51,2.1,2,.31,4.13-.36,6.13-.52,2.59-.31,5.28-.45,7.88-.58,12.85-.55,25.73-.87,38.55-1.83,6.12.05,12.29.04,18.4-.37,5.02-.39,10.19-.93,14.89-2.83"/><path class="b" d="M7.96,192.15c1.73.28,3.58.66,5.26,1.19,1.96.7,4,1.6,6.13,1.45,2.1.13,4.18-.66,6.13-1.31,2.01-.68,4.12-1.41,6.13-2.08,2.89-.96,5.86-1.97,8.76-2.9,2.24-.74,4.62-1.44,7.01-1.27,6.7,0,13.45-.02,20.15.01,2.04.21,4.13.87,6.13,1.3,2.02.44,4.16.9,6.13,1.52,3.11,1.06,6.42,1.57,9.64,2.14,4.06.78,8.16,1.73,12.26,2.25,6.68-.71,13.43-1.06,20.15-1.35,8.76-.39,17.55-.68,26.28-1.42,2.59-.25,5.29.03,7.88,0,4.07.05,8.2.04,12.26-.11,5.27-.27,10.72-.41,15.77-2.09"/><path class="b" d="M7.96,188.94c2.58.29,5.48.08,7.88,1.17,1.02.74,2.31,1.42,3.5,1.82,4.7,1.67,6.88.9,11.39-.57,2.94-.97,5.91-2.11,8.76-3.31,2.28-.89,4.57-2.17,7.01-2.56,6.12-.04,12.28,0,18.4-.01,2.97-.12,5.85,1.12,8.76,1.57,4.42.61,8.73,2.06,13.14,2.68,5.85.81,11.63,2.36,17.52,2.83,1.71.18,3.55-.14,5.26-.21,2.6-.15,5.29-.31,7.88-.46,6.99-.4,14.03-.68,21.03-1.09,4.37-.13,8.77-.89,13.14-.68,6.41.2,12.86.3,19.27.11,4.38-.19,8.87-.27,13.14-1.36"/><path class="b" d="M7.96,186.33c1.41.02,2.97-.01,4.38-.04.81-.02,1.86-.11,2.63.21,1.04.77,2.33,1.55,3.5,2.08,3.02,1.32,6.35,2.21,9.64,2.55,3.93-.63,7.77-2.03,11.39-3.68,2.35-1.04,4.63-2.5,7.01-3.47,1.36-.43,2.97-.19,4.38-.25,2.6,0,5.29,0,7.88,0,2.3.03,4.71-.06,7.01.05,2.03.39,4.1,1.12,6.13,1.48,2.88.56,5.9.8,8.76,1.45,3.74.86,7.61,1.28,11.39,1.88,5.23.81,10.47,1.91,15.77,2.12,4.07.33,8.2-.18,12.26-.36,5.53-.32,11.11-.59,16.65-.91,4.07-.18,8.2-.6,12.26-.81,6.99.27,14.03.44,21.03.35,4.66-.11,9.42-.1,14.02-.95"/><path class="b" d="M7.96,184.08c8.99-.46,3.66-.6,11.39,2.44,3.66,1.31,7.55,2.15,11.39,2.78,5.74-.61,11.02-3.39,15.77-6.54,1.26-.92,2.9-.83,4.38-.8,2.01,0,4.13,0,6.13,0,2.6.01,5.29-.03,7.88.02,1.74.31,3.53,1.05,5.26,1.42,2.85.71,5.87.84,8.76,1.27,5.22.95,10.52,1.58,15.77,2.31,6.09.93,12.23,1.76,18.4,1.89,4.07.37,8.19,0,12.26-.23,7.88-.35,15.78-.99,23.65-1.37,6.99.22,14.03.38,21.03.33,4.66-.06,9.39-.03,14.02-.68"/><path class="b" d="M7.96,182.06c1.41-.05,2.98-.17,4.38-.33,1.22.1,2.38,1.04,3.5,1.46,1.38.6,2.94,1.15,4.38,1.57,4.01,1.13,8.17,1.88,12.26,2.65,3.02.45,7.85-1.64,10.51-3.13,7.01-4.44,3.52-4.14,12.27-4.05,3.18.07,6.46-.15,9.64.1,1.42.38,2.95.99,4.38,1.36,3.12.88,6.44.96,9.64,1.33,4.07.55,8.18,1.2,12.26,1.59,7.57.9,15.15,2.02,22.78,2.25,3.77.12,7.61.62,11.39.4,4.95-.26,9.95-.51,14.89-.8,2.89-.11,5.86-.54,8.76-.47,11.67.08,23.4.67,35.04-.28"/><path class="b" d="M7.96,180.18c1.41.01,2.99-.45,4.38-.12,2.46,1.29,5.19,2.19,7.88,2.85,3.74.91,7.61,1.47,11.39,2.18,1.41.22,2.95.64,4.38.67,2.4-.38,4.85-1.13,7.01-2.26,1.53-.8,3.09-1.95,4.38-3.1,1.52-1.38,2.22-2.15,4.38-1.92,4.07,0,8.2-.01,12.26,0,1.77.3,3.52,1.19,5.26,1.62,2.83.8,5.85.94,8.76,1.15,2.61.24,5.29.63,7.88.95,6.41.68,12.86,1.38,19.27,1.99,7.87.6,15.78.99,23.65,1.43,7-.16,14.02-.86,21.03-.95,11.38-.1,22.8.41,34.17-.32"/><path class="b" d="M7.96,178.38c.8-.04,1.84-.13,2.63-.21,1.49.22,2.93,1.22,4.38,1.62,3.1,1.05,6.41,1.66,9.64,2.17,3.78.57,7.63,1.13,11.39,1.82,2.67.61,5.48-.58,7.88-1.66,1.57-.8,3.14-2.01,4.38-3.26.95-.9,2.01-2.42,3.5-2.15,4.07.01,8.2-.03,12.26.02,2.05.46,4.06,1.49,6.13,1.91,4.59,1.01,9.38.79,14.02,1.52,16.58,1.92,33.28,2.75,49.94,3.73,6.71-.1,13.44-.69,20.15-.67,9.92-.14,19.88.2,29.79-.31"/><path class="b" d="M7.96,176.62c.81-.05,1.84-.2,2.63,0,1.65.78,3.49,1.47,5.26,1.95,4,1.07,8.17,1.56,12.26,2.07,3.5.41,7.04.97,10.51,1.58,2.08.07,4.25-.7,6.13-1.54,1.62-.78,3.18-2.06,4.38-3.39.75-.76,1.54-2.05,2.63-2.33,4.07.02,8.2-.03,12.26.02,2.34.56,4.62,1.71,7.01,2.11,3.15.65,6.45.55,9.64.89,5.82.63,11.68,1.21,17.52,1.65,6.11.57,12.27.8,18.4,1.13,7.29.5,14.61.99,21.9,1.42,6.12.13,12.27-.56,18.4-.51,9.04-.15,18.12.11,27.16-.25"/><path class="b" d="M7.96,174.9c1.21-.25,2.44.31,3.5.8,1.66.66,3.51,1.2,5.26,1.59,4.89,1.06,9.94,1.39,14.89,1.97,2.91.32,5.87.83,8.76,1.3,5.36-.55,8.25-2.86,11.39-7.04,4.34-.43,8.78.03,13.14-.02,2.59.7,5.18,1.81,7.88,2.09,2.59.34,5.29.31,7.88.58,5.24.51,10.52,1.11,15.77,1.46,7.28.64,14.61.86,21.9,1.26,8.17.55,16.36,1.13,24.53,1.69,2,.18,4.13-.15,6.13-.21,3.18-.16,6.45-.24,9.64-.28,8.46-.14,16.95.08,25.41-.18"/><path class="b" d="M7.96,173.19c1.19-.06,2.39.81,3.5,1.13,1.38.5,2.95.94,4.38,1.26,5.17,1.13,10.52,1.37,15.77,1.91,3.2.3,6.46.79,9.64,1.31,4.57-.24,7.86-2.26,10.51-5.92,4.88-1.02,9.95-.42,14.89-.65,2.27.66,4.64,1.38,7.01,1.59,8.19.39,16.35,1.54,24.53,2.05,6.99.56,14.03.71,21.03,1.11,8.46.53,16.95,1.23,25.41,1.82,5.24.08,10.52-.42,15.77-.37,7.87-.11,15.78.09,23.65-.08"/><path class="b" d="M7.96,171.49c7.63,3.65,16.28,3.56,24.53,4.35,3.2.27,6.46.74,9.64,1.23,3.22-.26,6.63-1.32,8.76-3.88,1.56-2.19,8.69-1.91,11.39-2.11,2.01-.06,4.13-.1,6.13-.26,1.1.27,2.39.61,3.5.79,3.16.53,6.46.4,9.64.76,11.34,1.33,22.75,2.11,34.17,2.51,8.18.38,16.36,1.15,24.53,1.71,6.69.75,13.44.2,20.15.16,7.87-.1,15.78.11,23.65,0"/><path class="b" d="M7.96,170.1c7.95,3.61,16.89,3.33,25.41,4.13,2.91.24,5.88.62,8.76,1.04,2.05.05,4.24-.46,6.13-1.24.87-.38,1.93-1.11,2.63-1.76.39-.45,1.17-.97,1.75-1.07,5.38-1.61,11.12-1.22,16.65-1.84,1.41-.25,2.96.43,4.38.47,3.48.22,7.05.33,10.51.78,10.75,1.44,21.59,1.99,32.41,2.47,7.3.37,14.61,1.09,21.9,1.57,7.56.84,15.19.49,22.78.41,7.58-.06,15.2.16,22.78.1"/><path class="b" d="M7.96,168.64c8.25,3.61,17.49,3.17,26.28,3.99,2.91.18,5.86.73,8.76.91,2.05-.19,4.24-.54,6.13-1.4.87-.4,1.92-1.15,2.63-1.78,1.08-.39,2.38-.76,3.5-.99,4.89-1.03,9.96-.95,14.89-1.61,1.71-.47,3.52.03,5.26.05,3.8.03,7.63.5,11.39,1,9.57,1.42,19.26,1.88,28.91,2.42,7.3.45,14.61,1.13,21.9,1.63,7.26.8,14.61.58,21.9.51,8.17-.03,16.36,0,24.53-.05"/><path class="b" d="M7.96,167.09c9.94,4.19,21.05,2.96,31.54,4.39,3.5.58,7.27.11,10.51-1.33.48-.23,1.34-.8,1.75-1.12,1.92-.8,4.09-1.24,6.13-1.57,5.23-.78,10.62-.67,15.77-1.97,4.98.06,9.98.52,14.89,1.37,8.69,1.44,17.51,1.97,26.28,2.55,8.17.63,16.37,1.25,24.53,1.99,6.68.58,13.45.21,20.15.22,8.17-.13,16.36-.13,24.53-.24"/><path class="b" d="M7.96,165.45c5.76,2.58,12.18,3.02,18.4,3.39,5.25.22,10.53.82,15.77,1.15,2.95-.24,6.09-.57,8.76-1.94,2.5-1.83,5.79-2,8.76-2.43,3.48-.39,7.05-.56,10.51-1.1,1.11-.17,2.42-.45,3.5-.75.79-.21,1.8-.64,2.63-.54,4.71-.06,9.4.79,14.02,1.62,7.8,1.49,15.75,2.1,23.65,2.7,8.46.76,16.96,1.48,25.41,2.37,6.7.27,13.45-.04,20.15-.08,8.17-.18,16.36-.22,24.53-.42"/><path class="b" d="M7.96,163.69c6.28,2.93,13.35,3.17,20.15,3.62,2.9.18,5.87.37,8.76.62,2.31.28,4.7.38,7.01.03,2.04-.23,4.2-.58,6.13-1.29,1.22-.37,2.27-1.52,3.5-1.82,2.85-.68,5.85-.95,8.76-1.21,2.9-.26,5.89-.48,8.76-1.02,2.06-.32,4.1-1.19,6.13-1.62,5.01-.2,10.02.67,14.89,1.77,7.2,1.62,14.58,2.31,21.9,3.05,7.87.88,15.77,1.74,23.65,2.54,4.06.3,8.2-.16,12.26-.18,11.38-.07,22.79-.38,34.17-.72"/><path class="b" d="M7.96,161.85c5.96,2.98,12.75,3.33,19.27,3.78,3.48.23,7.03.46,10.51.75,2.01.18,4.14-.15,6.13-.33,2.03-.24,4.18-.59,6.13-1.23,1.54-.42,2.81-1.86,4.38-2.07,3.16-.54,6.44-.72,9.64-1,2.61-.23,5.32-.5,7.88-1.08,1.74-.34,3.51-1.14,5.26-1.44,3.19-.05,6.45-.04,9.64,0,2.35.14,4.73.76,7.01,1.33,6.59,1.78,13.4,2.65,20.15,3.59,6.69.98,13.41,2.02,20.15,2.55,4.66.3,9.36-.4,14.02-.37,11.97.11,23.96-.35,35.92-.88"/><path class="b" d="M7.96,159.91c5.88,3.23,12.72,3.63,19.27,4.1,3.19.22,6.45.45,9.64.67,2.31-.14,4.71-.32,7.01-.6,2.33-.31,4.8-.67,7.01-1.51,1.17-.45,2.39-1.29,3.5-1.84,3.76-.47,7.62-.57,11.39-.94,2.32-.22,4.75-.55,7.01-1.14,1.71-.41,3.47-1.32,5.26-1.21,3.19,0,6.45,0,9.64,0,1.4,0,2.98-.02,4.38.02,1.44.13,3,.56,4.38.96,6,1.92,12.23,3.04,18.4,4.27,6.33,1.32,12.77,2.65,19.27,2.24,2.61.07,5.28-.46,7.88-.5,5.53-.16,11.11.02,16.65.15,8.46-.22,16.95-.7,25.41-1.19"/><path class="b" d="M7.96,157.84c5.51,3.4,12.09,4.02,18.4,4.5,2.6.2,5.29.38,7.88.56,3.2-.11,6.46-.43,9.64-.82,2.33-.31,4.76-.72,7.01-1.42,1.48-.51,2.98-1.4,4.38-2.1,4.07-.27,8.21-.31,12.26-.78,2.03-.23,4.17-.62,6.13-1.2,1.38-.43,2.91-1.02,4.38-.9,4.07,0,8.2,0,12.26,0,2.59.11,5.34-.28,7.88.29,4.93,1.65,9.87,3.39,14.89,4.73,3.72,1.05,7.51,2.3,11.39,2.53,2.6.05,5.3-.07,7.88-.37,2.3-.29,4.68-.82,7.01-.72,7,.06,14.03.48,21.03.69,7.88-.43,15.79-.91,23.65-1.52"/><path class="b" d="M7.96,155.6c4.86,3.44,10.83,4.51,16.65,4.99,2.59.21,5.28.5,7.88.55,4.37-.32,8.81-.69,13.14-1.37,3.64-.54,7.31-1.48,10.51-3.35,2.89-.15,5.87-.09,8.76-.3,2.32-.15,4.74-.42,7.01-.94,1.72-.33,3.49-1.19,5.26-1.25,7.29,0,14.61,0,21.9,0,.78,0,1.85-.02,2.63.07,1.81.44,3.58,1.43,5.26,2.2,2.87,1.33,5.83,2.7,8.76,3.89,3.01,1.36,6.38,1.64,9.64,1.27,3.15-.28,6.39-1.14,8.76-3.35,2.11,1.15,4.67,1.36,7.01,1.68,2.89.33,5.86.54,8.76.74,3.48.23,7.03.43,10.51.63,7.89-.35,15.78-1.2,23.65-1.84"/><path class="b" d="M7.96,153.18c4.33,3.32,8.62,4.89,14.02,5.53,3.47.37,7.03.96,10.51.5,6.74-.66,13.6-1.2,20.15-3.01,1.75-.53,3.53-1.4,5.26-1.98,3.19.05,6.46.04,9.64-.27,2.97-.19,5.88-1.12,8.76-1.76,1.71-.04,3.55-.01,5.26-.02,4.66,0,9.36,0,14.02,0,2.59.09,5.32-.2,7.88.15,3.46,1.27,6.23,4.03,9.64,5.44,4.03,1.98,9.06,2.96,13.14.61,2.27-1.47,3.72-4,5.26-6.14.44-.04,1.31-.08,1.75-.06,1.38,1.27,2.56,3.09,4.38,3.81,4.12,1.76,8.74,1.98,13.14,2.48,3.48.33,7.03.6,10.51.86,7.6-.52,15.19-1.52,22.78-2.21"/><path class="b" d="M7.96,150.92c1.96.61,3.43,2.52,5.26,3.44,3.71,2.11,8.07,2.79,12.26,3.17,3.49.42,7.04-.42,10.51-.7,4.97-.57,9.99-1.17,14.89-2.19,2.97-.55,5.89-1.61,8.76-2.51,2.6.07,5.29.07,7.88-.15,2.65-.18,5.32-.82,7.88-1.44,1.69-.22,3.55-.06,5.26-.11,7.29.08,14.62-.15,21.9.09,3.54,1.07,6.24,3.99,9.64,5.4,4.51,2.14,10.06,3.43,14.02-.49.55-.53,1.38-1.78,1.75-2.44.22-.64,1.08-2.24,1.75-2.56,1.7.08,3.59-.19,5.26.18,4.44,4.85,11.41,5.18,17.52,6.01,3.18.32,6.44.8,9.64.93,7.31-.63,14.59-1.88,21.9-2.54"/><path class="b" d="M7.96,148.97c.81.25,1.86.67,2.63,1.01,1.16.79,2.32,1.99,3.5,2.75,3.57,2.37,8.05,3.11,12.26,3.23,7.87-1.05,15.82-1.86,23.65-3.17,2.62-.44,5.31-.98,7.88-1.64,1.7-.33,3.51-1.08,5.26-1.02,3.51.03,7.09-.25,10.51-1.05,2.01-.08,4.12.44,6.13.41,4.09.13,8.2-.45,12.26-.77,2-.09,4.13-.02,6.13-.04,1.4.04,3-.13,4.38.19,3.4,1.1,6.36,3.39,9.64,4.79,4.59,2.29,9.96,4.47,14.02-.05.54-.58,1.37-1.92,1.75-2.61,0,0,.88-1.73.88-1.73,0,0,.88-.6.88-.6,2.3.06,4.82-.25,7.01.62,2.24,1.91,5.04,3.15,7.88,3.83,3.72.92,7.59,1.43,11.39,1.95,2.3.2,4.71.86,7.01.68,7.02-.75,13.98-2.26,21.03-2.82"/><path class="b" d="M7.96,147.08c1.8.6,3.63,1.56,5.26,2.52.74.76,1.74,1.7,2.63,2.28,2.75,1.71,6.41,2.61,9.64,2.29,8.13-1.38,16.36-2.23,24.53-3.37,5.84-.75,11.65-2.09,17.52-2.59,4.39-.52,8.77.47,13.14.56,5.27.08,10.55-.67,15.77-1.36,2.61-.3,5.41-.82,7.88.34,4.06,1.74,8.15,3.58,12.26,5.2,4.65,2.22,8.7,2.63,11.39-2.53,2.12-3.46,7.96-2.14,11.39-1.83,3.69,2.24,8.08,3.02,12.26,3.8,3.77.55,7.59,1.49,11.39,1.67,7.02-.9,13.94-2.71,21.03-3.15"/><path class="b" d="M7.96,145.24c1.54.43,3.03,1.41,4.38,2.23,1.55.87,3.07,2.05,4.38,3.23,2.83,1.95,6.4,2.26,9.64,1.31,6.92-1.44,14-2.11,21.03-2.88,5.83-.59,11.68-1.39,17.52-1.85,4.37-.4,8.79-.09,13.14.38,3.19.2,6.46.09,9.64-.15,4.96-.36,9.93-1.17,14.89-1.57,2.43-.31,4.73,1.14,7.01,1.78,2.9.99,5.93,1.89,8.76,3.07,2.22.88,4.52,2.42,7.01,1.82,1.39-.24,2.52-1.47,3.5-2.38.96-.87,2.28-1.72,3.5-2.16,1.92-.68,4.11-.8,6.13-.8.77,0,1.85.03,2.63.06.81.17,1.85.66,2.63.94,5.96,1.97,12.26,2.8,18.4,4.01,1.1.18,2.42-.21,3.5-.37,2.02-.34,4.13-.84,6.13-1.28,4.02-.85,8.16-1.51,12.26-1.71"/><path class="b" d="M7.96,143.43c2.99.87,5.34,3.34,7.88,5.03,1.52,1.25,3.24,2.33,5.26,2.42,1.14.16,2.41-.29,3.5-.55,1.7-.45,3.53-.88,5.26-1.2,10.99-1.83,22.19-2.29,33.29-3,3.77-.17,7.62-.18,11.39.14,4.05.45,8.2.44,12.26.18,4.38-.26,8.78-.84,13.14-1.29,2-.2,4.12-.4,6.13-.46,1.44.1,2.97.69,4.38.99,3.21.8,6.56,1.49,9.64,2.75,3.25,1.17,5.24,3.88,8.76,1.59,1.99-1.11,3.9-2.66,6.13-3.27,2.52-.75,5.27-.86,7.88-.92,1.13.17,2.4.74,3.5,1.03,4.9,1.33,9.95,2.24,14.89,3.39.4.09,1.34.27,1.75.35.77-.12,1.86-.33,2.63-.49,1.72-.33,3.55-.88,5.26-1.29,4.29-1.05,8.72-1.76,13.14-1.87"/><path class="b" d="M7.96,141.66c1.73.01,3.11,1.55,4.38,2.55,2.41,1.84,4.62,4.89,7.88,5.01,2.1.05,4.11-1.12,6.13-1.56,2.55-.69,5.26-1.12,7.88-1.42,8.72-.91,17.53-1.04,26.28-1.27,3.78-.07,7.62-.08,11.39.11,4.94.36,9.94.61,14.89.26,4.97-.27,9.95-.9,14.89-1.4,3.77-.32,7.66-.76,11.39.07,2.62.43,5.35.8,7.88,1.61,2.5.74,4.5,2.81,7.01,3.52.84.04,1.89-.4,2.63-.77,2.53-1.25,5.09-2.77,7.88-3.32,1.98-.43,4.12-.63,6.13-.78,1.69.49,3.54,1.01,5.26,1.4,4.09.91,8.22,1.92,12.26,3,1.08.41,2.43,0,3.5-.26,1.72-.44,3.54-1.09,5.26-1.54,4.25-1.06,8.75-2.1,13.14-1.59"/><path class="b" d="M7.96,139.91c2.31-.28,3.77,2.12,5.26,3.51,2.35,2.38,4.16,4.91,7.88,3.87,1.4-.57,2.93-1.29,4.38-1.72,3.95-1.2,8.16-1.53,12.26-1.73,13.13-.38,26.31-.24,39.42.45,6.42.24,12.88-.24,19.27-.86,7.25-.73,14.63-1.52,21.9-.56,2.4.33,4.83,1.08,7.01,2.14,1.7.75,3.4,2,5.26,2.32,2.38-.78,4.66-2.12,7.01-2.99,2.5-.94,5.25-1.36,7.88-1.72,4.1.77,8.23,1.83,12.26,2.91,1.71.49,3.54,1.12,5.26,1.58,1.14.11,2.44-.38,3.5-.75,3.93-1.42,8.05-2.91,12.26-3,1.7.26,3.55.52,5.26.71"/><path class="b" d="M7.96,138.16c.44,0,1.32,0,1.75.02,2.57,1.57,3.82,4.85,6.13,6.76,1.16,1.03,2.96.88,4.38.62,1.38-.75,2.88-1.68,4.38-2.17,3.36-1.14,7-1.37,10.51-1.49,10.22-.19,20.45.57,30.66.78,4.95.11,9.94.45,14.89.44,5.55-.02,11.12-.42,16.65-.92,8.13-.67,16.42-1.58,24.53-.32,3.69.53,7.05,2.38,10.51,3.62,2.39-.68,4.66-2.03,7.01-2.84,2.51-.82,5.23-1.7,7.88-1.78,3.79.88,7.7,1.59,11.39,2.88,1.71.51,3.47,1.49,5.26,1.68.81-.17,1.87-.6,2.63-.93,9.34-4.06,8.07-2.77,17.52-1.76"/><path class="b" d="M7.96,136.81c.78-.06,1.85-.17,2.63-.24,1.99,2.14,2.81,5.55,5.26,7.28,1.42.15,3.28.46,4.38-.66,1.47-1.28,3.36-2.2,5.26-2.61,5.16-1.08,10.54-.68,15.77-.44,6.41.38,12.85.91,19.27,1.17,9.33.35,18.7.79,28.03.27,10.79-.55,21.6-2.06,32.41-1.37,2.64.25,5.36.76,7.88,1.6,1.73.54,3.5,1.43,5.26,1.88,3.25-1.06,6.32-2.82,9.64-3.7,1.4-.32,2.93-1.03,4.38-.96,2.91.59,5.93,1.13,8.76,2.05,2.38.68,4.62,2.07,7.01,2.7,2.41-.78,4.64-2.3,7.01-3.19,1.61-.81,3.55-.35,5.26-.2,2.6.32,5.28.73,7.88.97"/><path class="b" d="M7.96,136.07c1.11.04,2.44.13,3.5.49,1.51,1.48,1.69,4.42,3.5,5.64,1.1.02,2.41.08,3.5-.08,2.49-3.11,4.85-4.04,8.76-4.25,4.07-.24,8.21.11,12.26.47,7.86.78,15.76,1.58,23.65,1.85,7.29.25,14.61.39,21.9.14,6.72-.2,13.45-.79,20.15-1.22,9.04-.33,18.47-1.41,27.16,1.73.77.28,1.85.67,2.63.93,1.83.07,3.58-1.16,5.26-1.77,2.53-1.14,5.27-2.04,7.88-2.96,3.24.39,6.56,1.05,9.64,2.18,2.09.74,4.04,2.13,6.13,2.85,2.19-.66,4-2.42,6.13-3.2,4.67-.59,9.37.74,14.02,1.02"/><path class="b" d="M7.96,135.39c1.73.23,3.46,1.18,4.38,2.69.3.69.99,2.09,1.75,2.38,1.1-.02,2.42.07,3.5-.11,1.03-1.74,2.23-3.89,4.38-4.33,3.71-.85,7.64-.36,11.39-.04,6.71.73,13.41,1.84,20.15,2.35,9.9.8,19.87.82,29.79.57,9.93-.25,19.85-1.22,29.79-1.49,4.95-.17,9.99-.41,14.89.4,3,.33,5.87,1.51,8.76,2.28,4.19-1.37,8.1-3.65,12.26-5.05,3.25.46,6.64.94,9.64,2.35,1.8.78,3.42,2.24,5.26,2.93,1.64-.28,2.85-1.86,4.38-2.41,2.2-.82,4.71-.7,7.01-.48,2.9.29,5.85.77,8.76.94"/><path class="b" d="M7.96,134.68c1.31.38,2.64,1.3,3.5,2.35.33.54,1.13,1.48,1.75,1.68,1.1-.03,2.42.1,3.5-.15.87-2.87,1.66-5.62,5.26-5.46,2.91-.06,5.88.29,8.76.68,6.71.97,13.39,2.36,20.15,2.97,9.89.97,19.86.89,29.79.66,10.81-.25,21.61-1.15,32.41-1.47,8.23-.38,16.72-.64,24.53,2.4,3.03-.94,5.92-2.51,8.76-3.88,1.12-.44,2.26-1.55,3.5-1.47,3.29.37,6.76.83,9.64,2.59,1.48.84,2.8,2.3,4.38,2.96.54,0,1.36-.4,1.75-.75.73-.53,1.78-1.14,2.63-1.45,5.13-1.57,10.55.34,15.77.42"/><path class="b" d="M7.96,133.94c.88.37,1.94,1.12,2.63,1.77.36.43,1.19,1.11,1.75,1.24.78,0,1.85,0,2.63,0l.88-.53.88-5.91c1.85-.98,4.16-.12,6.13.05,2.61.38,5.3.84,7.88,1.36,7.52,1.6,15.09,3.22,22.78,3.68,11.66.79,23.38.35,35.04-.1,9.04-.42,18.11-.95,27.16-1.18,7.64-.31,15.52-.5,22.78,2.26,4.09-1.23,7.67-3.79,11.39-5.77,3.63.24,7.61.64,10.51,3.07,1.11.88,2.18,2.27,3.5,2.85.53.05,1.35-.31,1.75-.65.74-.48,1.79-1.04,2.63-1.33,5.15-1.51,10.54.37,15.77.38"/><path class="b" d="M7.96,133.17c3.06,1.85,2.26,2.2,6.13,2.04.58-1.78,1.42-5.7,1.75-7.56,1.41.03,2.98-.08,4.38.09,2.32.42,4.71,1.02,7.01,1.55,6.09,1.49,12.16,3.31,18.4,4.11,13.35,1.71,26.89.95,40.3.52,10.8-.48,21.61-1.02,32.41-1.27,5.83-.14,11.83-.38,17.52,1.1,2.96.88,3.04,1.58,6.13-.05,2.81-1.34,5.47-3.16,7.88-5.11,13.06-.1,10.27,5.95,14.89,6.28,1.83-1.15,3.94-2.13,6.13-2.25,4.38-.27,8.76.83,13.14.84"/><path class="b" d="M7.96,132.32c.43.26,1.31.75,1.75.99,1.08.21,2.44.26,3.5-.06.65-1.47,1.46-5.03,1.75-6.64l.88-.71c2,.05,4.14-.13,6.13.12,1.74.34,3.56.9,5.26,1.41,5.18,1.61,10.39,3.37,15.77,4.2,12.74,1.92,25.72,1.09,38.55.72,11.38-.45,22.78-1.05,34.17-1.25,6.12-.14,12.32-.5,18.4.38,1.12.18,2.43.51,3.5.88.76.26,1.8.75,2.63.59,3.65-1.34,6.89-3.79,9.64-6.5,3.19-.2,6.89-.26,9.64,1.61,1.27,1.94,2.68,4.82,5.26,5.07,2.11-1.25,4.53-2.18,7.01-2.18,4.08-.04,8.18.84,12.26.83"/><path class="b" d="M7.96,131.3c1.02.53,2.39.41,3.5.34,2.02-1.63,2.27-5.17,3.5-7.35,1.09-.26,2.4-.13,3.5-.16,1.41.04,2.99-.11,4.38.14,4.76,1.21,9.25,3.45,14.02,4.66,11.69,3.04,23.96,2.18,35.92,1.94,13.72-.5,27.45-1.25,41.17-1.44,4.95-.07,9.94-.31,14.89-.19,3.87.08,7.8.54,11.39,2.09,3.89-1.17,6.89-4.17,9.64-7.01,2.56-.31,5.33-.23,7.88.17,2.19,2.3,3.58,6.13,7.01,6.87,2.13-1.18,4.54-2.09,7.01-2.1,4.08-.03,8.18.81,12.26.76"/><path class="b" d="M7.96,129.94c4.45.74,4.57-5.2,7.01-7.53,2.6-.02,5.29-.1,7.88.04,2.73.61,5.3,2,7.88,3.02,2.81,1.16,5.78,2.14,8.76,2.74,10.96,2,22.22,1.17,33.29.86,13.13-.63,26.28-1.2,39.42-1.32,7.29,0,14.63-.57,21.9.07,2.08.17,4.21.84,6.13,1.63,1.98.08,3.75-1.57,5.26-2.69,1.59-1.21,2.71-3.3,4.38-4.38,2.3,0,4.71,0,7.01,0,2.54,2.41,4.27,6.18,7.88,7.25,2.15-1.12,4.55-2.02,7.01-2.03,4.08-.02,8.18.77,12.26.7"/><path class="b" d="M7.96,128.13c3.66-.81,4.04-5.84,7.01-7.5,2.6.03,5.29-.06,7.88.05,2.14.46,4.16,1.68,6.13,2.58,5.16,2.6,10.88,3.98,16.65,4.27,11.38.63,22.8-.15,34.17-.71,10.5-.52,21.03-.76,31.54-.81,5.24-.01,10.53-.14,15.77-.21,2.89,0,5.89.03,8.76.43,1.79.24,3.55,1.11,5.26,1.61,3.48-1.16,5.7-4.33,7.88-7.06,2.28-.33,4.71-.06,7.01-.14,1.09.35,1.89,1.73,2.63,2.53,1.71,1.86,3.7,3.85,6.13,4.68,1.95-.78,3.99-1.75,6.13-1.86,4.37-.24,8.76.7,13.14.57"/><path class="b" d="M7.96,125.73c2.53-1.65,3.81-4.77,6.13-6.63,1.07-.36,2.4-.18,3.5-.22,2,.11,4.2-.28,6.13.3,4.06,1.83,7.87,4.42,12.26,5.46,4.55,1.19,9.34,1.35,14.02,1.41,5.24.04,10.53-.14,15.77-.41,15.75-.99,31.53-1.49,47.31-1.4,4.95,0,9.94-.13,14.89-.19,4.45-.02,9.09-.06,13.14,2.04,2.17-.49,3.93-2.34,5.26-4.03.76-.96,1.48-2.63,2.63-3.19,2.27.12,4.81-.28,7.01.23,2.53,2.67,5.24,5.59,8.76,6.92,2-.58,3.99-1.67,6.13-1.76,4.37-.25,8.77.64,13.14.5"/><path class="b" d="M7.96,122.85c2.15-1.69,3.65-4.43,6.13-5.65,1.7-.15,3.55-.04,5.26-.07,1.76-.01,3.72-.18,5.26.86,2.81,1.64,5.65,3.48,8.76,4.52,4.48,1.55,9.32,1.75,14.02,1.82,5.24.06,10.53-.14,15.77-.44,16.32-1.18,32.7-1.57,49.06-1.39,5.24.02,10.53-.1,15.77-.19,4.44-.02,9.13-.22,13.14,1.99,3.56-.46,5.08-4.59,7.01-7.12,2.3-.05,4.72-.14,7.01.05,2.85,2.72,5.92,5.54,9.64,7,1.47-.17,2.91-1.13,4.38-1.38,2.56-.59,5.29-.32,7.88-.12,2.3.19,4.7.27,7.01.26"/><path class="b" d="M7.96,119.91c2.13-1.62,4.05-4.66,7.01-4.54,1.71,0,3.55,0,5.26,0,1.62-.14,3.06.17,4.38,1.13,6.02,4.34,11,5.92,18.4,6.04,9.94.32,19.88-.63,29.79-1.24,8.16-.52,16.36-.65,24.53-.65,11.09.08,22.2.09,33.29-.15,2.61.05,5.39-.06,7.88.82.8.29,1.87.8,2.63,1.18,3.19-.07,4.77-4.31,6.13-6.69.7-.56,1.79-.47,2.63-.46,1.4,0,2.98-.02,4.38.03,1.21.8,2.33,2.13,3.5,2.97,2.18,1.52,4.56,3.03,7.01,4.06,1.48,0,2.92-1.05,4.38-1.29,2.56-.61,5.29-.36,7.88-.18,2.3.18,4.7.24,7.01.23"/><path class="b" d="M7.96,117.06c3.38-2.67,4.29-3.73,8.76-3.43,1.71.02,3.55-.04,5.26.04,1.25.38,2.46,1.36,3.5,2.11,4.26,3.4,9.5,4.93,14.89,5.03,4.95.21,9.95.05,14.89-.24,8.17-.52,16.35-1.31,24.53-1.56,10.21-.32,20.45-.13,30.66-.04,6.41.08,12.86-.13,19.27-.24,2.6.03,5.35-.15,7.88.51.81.23,1.89.68,2.63,1.08,0,0,.88.46.88.46l.88.03c2.84-1.34,3.47-4.93,5.26-7.19,2,0,4.13,0,6.13,0,1.25.64,2.34,1.96,3.5,2.74,2.45,1.65,5.2,3.04,7.88,4.28.86.21,1.85-.38,2.63-.66.76-.28,1.83-.59,2.63-.73,4.63-.65,9.36.33,14.02.13"/><path class="b" d="M7.96,114.33c3.43-2.43,4.68-2.6,8.76-2.46,1.41,0,2.97,0,4.38,0,.93.04,1.92.75,2.63,1.3,2.59,2.14,5.46,4.21,8.76,5.04,5.7,1.39,11.71.96,17.52.79,9.05-.5,18.09-1.55,27.16-1.83,10.79-.36,21.62-.06,32.41.04,6.71.11,13.45-.14,20.15-.29,2.6.01,5.35-.21,7.88.49.82.24,1.89.73,2.63,1.17,0,0,.88.5.88.5h.88c2.46-1.38,3.25-4.72,4.38-7.1,1.4-.19,2.98-.07,4.38-.1.44,0,1.31,0,1.75,0,.51.18,1.37.79,1.75,1.18,2.01,1.81,4.58,3.03,7.01,4.15,1.39.59,2.86,1.57,4.38,1.79,2.19-.96,4.6-1.71,7.01-1.72,3.78-.02,7.61.39,11.39.29"/><path class="b" d="M7.96,111.73c3.04-1.87,5.38-1.65,8.76-1.62,1.41,0,2.97-.02,4.38.02.92.3,1.91,1.16,2.63,1.79,2.46,2.28,5.42,4.22,8.76,4.87,5.46,1.03,11.13.65,16.64.4,9.04-.64,18.09-1.69,27.16-1.92,10.8-.31,21.62.06,32.41.15,5.83.11,11.7-.05,17.52-.25,3.18-.06,6.46-.31,9.64,0,1.89.2,3.69,1.2,5.26,2.22l.88-.08c2.01-1.33,2.75-4.42,3.5-6.56l.88-.65c1.71,0,3.55,0,5.26,0,1.27.47,2.36,1.71,3.5,2.4,1.88,1.21,4.09,2.08,6.13,2.97,1.4.58,2.92,1.37,4.38,1.8,1.94-.76,4.03-1.56,6.13-1.7,4.07-.24,8.19.28,12.26.16"/><path class="b" d="M7.96,109.28c1.91-.87,4.07-1,6.13-.92,2.01,0,4.13,0,6.13,0,1.42.11,2.5,1.57,3.5,2.44,1.27,1.21,2.8,2.43,4.38,3.2,5.98,2.9,17.77,1.53,24.53,1.01,8.14-.83,16.34-1.49,24.53-1.63,10.51-.15,21.03.2,31.54.29,6.12.11,12.28-.12,18.4-.35,3.18-.03,6.5-.46,9.64.18,1.58.35,3.04,1.44,4.38,2.3,3.03-.78,2.71-5.34,4.38-7.43,1.1,0,2.41,0,3.5,0,.83,0,1.91-.1,2.63.41,1.05.83,2.32,1.78,3.5,2.4,3.38,1.66,7.03,2.91,10.51,4.33,2-.57,4.02-1.52,6.13-1.66,4.06-.31,8.2.17,12.26.06"/><path class="b" d="M7.96,106.98c3.13-.71,6.46-.25,9.64-.37,1.13.06,2.56-.27,3.5.52,2.52,2.54,5.09,5.45,8.76,6.22,3.13.75,6.44.7,9.64.65,4.08-.06,8.21-.43,12.26-.87,6.97-.78,14.01-1.32,21.03-1.49,14.01-.34,28.04.39,42.05.24,4.95-.09,9.95-.34,14.89-.55,2.91-.05,6.14-.49,8.76,1.07.78.5,1.77,1.37,2.63,1.74.75-.19,1.42-1.26,1.75-1.88.62-1.65,1.44-4.05,2.63-5.38,1.05-.44,2.4-.22,3.5-.27.94-.16,1.93.57,2.63,1.11.75.55,1.8,1.22,2.63,1.63,3.37,1.59,7.07,2.58,10.51,4.03,1.1.64,2.43-.06,3.5-.43,1.07-.38,2.38-.69,3.5-.83,4.06-.39,8.2.05,12.26-.04"/><path class="b" d="M7.96,104.94c2.29-.19,4.71-.04,7.01-.08,1.7.08,3.59-.2,5.26.19,1.5,1.37,2.78,3.27,4.38,4.54,3.15,2.61,7.49,2.73,11.39,2.69,8.51.06,16.93-1.52,25.41-2.03,13.41-.9,26.87-.27,40.3-.22,7,.09,14.03.14,21.03-.26,2.89-.13,5.87-.32,8.76-.43,3.63-.26,6.09.18,8.76,2.88l.88.15c2.33-1.87,2.67-5.75,5.26-7.4,2.37-.53,3.42.43,5.26,1.65,2.94,1.8,6.42,2.56,9.64,3.68,1.1.38,2.41.86,3.5,1.27.76.41,1.86.36,2.63,0,5.29-2.12,11.1-1.22,16.65-1.33"/><path class="b" d="M7.96,103.17c3.77-.17,7.62-.02,11.39-.07,1.44.85,2.34,2.76,3.5,3.93,2.58,3.03,6.75,3.62,10.51,3.52,8.81.14,17.51-1.6,26.28-2.13,7.87-.51,15.78-.45,23.65-.26,5.83,0,11.69.04,17.52.06,7.29.05,14.62.12,21.9-.36,4.06-.11,8.21-.8,12.26-.43.84.13,1.93.55,2.63,1.03.81.6,1.71,1.73,2.63,2.19l.88-.27c2.24-2.12,3.06-6.07,6.13-7.24,1.22.32,2.4,1.27,3.5,1.83,1.34.72,2.92,1.36,4.38,1.81,2.3.71,4.73,1.31,7.01,2.09,1.41.4,2.9,1.22,4.38,1.29,1.98-.62,4.06-1.36,6.13-1.6,3.76-.38,7.62-.13,11.39-.16"/><path class="b" d="M7.96,101.47c1.69-.24,3.55-.07,5.26-.11,2,.05,4.14-.13,6.13.11,4.62,7.23,6.49,7.56,14.89,7.33,7.93-.11,15.75-1.79,23.65-2.2,8.45-.52,16.95-.3,25.41-.08,5.24.06,10.53-.12,15.77-.09,8.17-.02,16.38.1,24.53-.55,2.3-.15,4.71-.36,7.01-.5,1.71-.12,3.62-.25,5.26.37,1.7.56,2.51,2.99,4.38,3.1,2.54-1.69,3.6-5.12,6.13-6.87.9-.11,1.85.6,2.63.97,1.36.68,2.93,1.31,4.38,1.77,2.28.71,4.72,1.22,7.01,1.87,2.03.52,4.08,1.42,6.13,1.87,2.27-.69,4.63-1.49,7.01-1.72,3.47-.32,7.03-.17,10.51-.16"/><path class="b" d="M7.96,99.86c1.94-.54,4.14-.15,6.13-.26,1.1,0,2.41,0,3.5,0,.56-.11,1.32.16,1.75.5,3.37,7.48,6.59,7.19,14.02,6.93,7.63-.23,15.16-1.93,22.78-2.28,8.75-.47,17.53-.17,26.28.07,5.24.11,10.53-.17,15.77-.24,7.88-.13,15.79.06,23.65-.59,4.07-.15,8.2-1.05,12.26-.72,2.02.79,3.3,2.97,5.26,3.85,1.95-.63,3.07-2.88,4.38-4.31.69-.75,1.53-2,2.63-2.11,3.89,1.79,8.1,2.83,12.26,3.73,2.64.6,5.29,1.51,7.88,2.29,2.3-.57,4.64-1.42,7.01-1.69,3.46-.4,7.03-.29,10.51-.26"/><path class="b" d="M7.96,98.42c1.32-.67,2.94-.59,4.38-.57,2,0,4.13,0,6.13,0,.59.65,1.49,2.48,1.75,3.35,2.03,4.79,6.13,4.25,10.51,4.15,7.64-.16,15.15-2,22.78-2.38,13.72-.75,27.46.71,41.17-.07,8.16-.47,16.38-.09,24.53-.73,4.08-.22,8.19-.88,12.26-1.09,2.77.5,4.71,2.82,7.01,4.2,1.03.1,1.97-.88,2.63-1.54,1.4-1.36,2.57-3.47,4.38-4.31,3.72,1.18,7.55,2.25,11.39,2.95,3.25.61,6.48,1.59,9.64,2.54,2.34-.28,4.65-1.31,7.01-1.57,3.46-.49,7.03-.41,10.51-.36"/><path class="b" d="M7.96,97.16c1.08-.39,2.36-.91,3.5-1.06,2,0,4.13,0,6.13,0,.92.34,1.46,2.4,1.75,3.19,1.57,4.27,3.73,4.51,7.88,4.38,7.96.11,15.73-2.09,23.65-2.52,12.25-.66,24.54.54,36.79.24,4.95-.1,9.94-.48,14.89-.7,4.95-.16,9.95-.07,14.89-.48,5.22-.17,10.83-2.06,15.77.37.82.43,1.89,1.15,2.63,1.71.68.52,1.7,1.32,2.63,1.2,2.46-1.14,3.79-4.01,6.13-5.25,4.95.97,9.92,2.11,14.89,3,2.64.44,5.23,1.64,7.88,1.9,5.37-1.7,11.04-2.16,16.65-1.9"/><path class="b" d="M7.96,96.05c2.61-.52,5.17-1.94,7.88-1.7,3.21,5.83,2.93,7.87,10.51,7.52,7.09.06,13.98-2.02,21.03-2.54,10.49-.67,21.04.23,31.54.37,11.98.14,23.95-1.06,35.92-1.4,5.5-.15,11.28-1.22,16.65.42,1.17.43,2.47,1.19,3.5,1.87.7.47,1.73,1.17,2.63,1.13,2.44-.91,3.83-3.6,6.13-4.64,4.7.28,9.36,1.48,14.02,2.13,2.02.35,4.15.83,6.13,1.36,1.1.28,2.39.68,3.5.88.43-.1,1.32-.32,1.75-.43,4.83-1.34,9.9-1.71,14.89-1.47"/><path class="b" d="M7.96,95.05c2-.24,4.13-.4,6.13-.62l.88.43c.99,1.84,2.31,3.95,4.38,4.67,3.09.96,6.46.49,9.64.33,7.61-.7,15.07-3.08,22.78-2.72,10.22.14,20.44.96,30.66.84,11.13-.3,22.07-1.24,33.29-1.42,4.65-.11,9.45-.6,14.02.48,1.49.4,3.05,1.17,4.38,1.95,1.77,1.09,2.58,1.34,4.38.01,1.15-.82,2.43-1.94,3.5-2.86,3.13-.77,6.49.23,9.64.53,5.3.67,10.6,1.63,15.77,3.01,2.32-.27,4.68-1.06,7.01-1.33,3.16-.51,6.45-.56,9.64-.42"/><path class="b" d="M7.96,94.1c2.02.07,4.22.17,6.13.89.7.82,1.66,1.78,2.63,2.26,3.82,1.73,8.23.91,12.26.62,7-.88,13.93-2.65,21.03-2.62,10.22.11,20.44,1.24,30.66,1.01,7.01-.12,14.03-.73,21.03-1.04,6.41-.27,12.86-.32,19.27-.38,2.91.05,5.97.16,8.76,1.06,1.78.56,3.52,1.62,5.26,2.29,2.38-.12,4.15-2.29,6.13-3.38,3.74-.79,7.64.08,11.39.42,2.9.37,5.89.73,8.76,1.28,2.32.38,4.67,1.2,7.01,1.42,5.16-1.13,10.47-1.94,15.77-1.56"/><path class="b" d="M7.96,93.14c1.74.22,3.6.61,5.26,1.21,1.01.73,2.29,1.39,3.5,1.67,3.14.77,6.46.39,9.64.12,6.43-.66,12.79-2.24,19.27-2.48,11.97-.4,23.94,1.38,35.92.8,10.5-.46,21.01-1.42,31.54-1.23,4.95.06,10.05-.2,14.89,1,2.08.52,4.08,1.66,6.13,2.26,1.9-.49,3.66-1.72,5.26-2.81,1.06-.37,2.38-.59,3.5-.64,3.2-.11,6.46.29,9.64.59,4.09.43,8.24.98,12.26,1.86,1.1.23,2.4.51,3.5.72,1.72-.17,3.54-.61,5.26-.83,3.46-.51,7.02-.77,10.51-.52"/><path class="b" d="M7.96,92.12c1.73.36,3.64.73,5.26,1.47,1.63.67,3.51.94,5.26,1.05,5.88.09,11.72-1.12,17.52-1.91,4.33-.61,8.77-.87,13.14-.79,11.38.31,22.78,1.41,34.17.61,9.62-.61,19.27-1.34,28.91-1.03,5.56.17,11.33-.01,16.65,1.85,1.1.39,2.39.91,3.5,1.25,1.89,0,3.66-1.28,5.26-2.17,3.02-1.23,6.45-1.01,9.64-.85,4.67.29,9.39.76,14.02,1.48,2.61.38,5.27,1.07,7.88,1.37,4.91-.76,9.92-1.44,14.89-1.07"/><path class="b" d="M7.96,90.99c2.63.46,5.21,1.53,7.88,1.74,4.67.36,9.4-.53,14.02-1.13,7.23-1.19,14.59-1.56,21.9-1.15,10.79.56,21.63,1.11,32.41.2,9.03-.67,18.11-1.26,27.16-.8,5.88.24,11.93.37,17.52,2.43,3.42,1.69,5.57-1.06,8.76-1.76,3.12-.77,6.45-.62,9.64-.47,7.35.32,14.66,1.37,21.9,2.63,4.93-.26,9.93-1.17,14.89-.7"/><path class="b" d="M7.96,89.72c2.3.43,4.66,1.12,7.01,1.23,2.01.18,4.13-.11,6.13-.28,6.99-.76,13.97-2.08,21.03-2.04,9.93,0,19.85,1.07,29.79.8,10.52-.24,21-1.75,31.54-1.56,5.84.15,11.74.42,17.52,1.26,1.73.26,3.58.7,5.26,1.19,1.09.29,2.36.82,3.5.79.43-.1,1.33-.36,1.75-.51,5.7-2.86,12.22-2.41,18.4-2.04,6.75.35,13.47,1.42,20.15,2.37,4.65-.15,9.36-.79,14.02-.38"/><path class="b" d="M7.96,88.31c2.29.43,4.67.86,7.01.87,3.2-.17,6.46-.58,9.64-.99,5.79-.81,11.67-1.37,17.52-1.23,9.92.22,19.86,1.16,29.79.73,10.51-.46,21-2.06,31.54-1.62,5.55.29,11.16.73,16.65,1.66,2.33.39,4.7,1.12,7.01,1.64,1.47-.06,3.02-.68,4.38-1.21,5.89-2.08,12.28-1.52,18.4-1.25,7.04.35,14.03,1.46,21.03,2.25,4.35.08,8.78-.42,13.14-.05"/><path class="b" d="M7.96,86.78c3.17.62,6.45.64,9.64.19,3.78-.4,7.6-.97,11.39-1.32,7.86-.79,15.79-.19,23.65.19,7.28.35,14.63.52,21.9-.07,9.6-.79,19.26-2.15,28.91-1.44,7.06.64,14.14,1.51,21.03,3.23,1.45.21,3.02-.47,4.38-.88,1.67-.54,3.52-.99,5.26-1.25,5.21-.75,10.54-.4,15.77-.17,7.32.36,14.61,1.5,21.9,2.13,2,.22,4.13.08,6.13.11,2-.02,4.13.13,6.13.02"/><path class="b" d="M7.96,85.14c4.07.71,8.21-.14,12.26-.57,4.92-.62,9.92-1.09,14.89-1.04,9.05.11,18.1,1.02,27.16.99,7.03.09,14.05-.73,21.03-1.52,5.8-.59,11.69-1.04,17.52-.62,7.05.76,14.08,2.02,21.03,3.43,2.66.18,5.27-1.25,7.88-1.65,3.72-.77,7.6-.94,11.39-.89,6.13.07,12.3.42,18.4,1.1,8.14.77,16.35,1.84,24.53,1.18"/><path class="b" d="M7.96,83.39c3.49.39,7.04-.42,10.51-.74,4.63-.56,9.35-.95,14.02-.88,8.76.14,17.52,1.06,26.28,1.11,7.03.16,14.07-.45,21.03-1.43,6.37-.79,12.85-1.53,19.27-.99,2.94.24,5.89.96,8.76,1.63,3.48.66,7.03,1.28,10.51,1.93,1.41.36,3.01-.1,4.38-.45,1.39-.37,2.97-.76,4.38-1.04,4.3-.85,8.76-1.03,13.14-.97,14.63-.08,29.16,3.01,43.8,2.08"/><path class="b" d="M7.96,81.47c2.91.06,5.87-.56,8.76-.8,4.34-.49,8.77-.8,13.14-.71,14.58.43,29.26,2.44,43.8.39,8.67-1.11,17.55-3.06,26.28-1.51,2.66.5,5.29,1.47,7.88,2.21,1.98.47,4.12.81,6.13,1.14,3.55.84,7.03-.89,10.51-1.38,4.89-.9,9.93-1.05,14.89-.99,14.92-.01,29.75,2.88,44.68,1.89"/><path class="b" d="M7.96,79.28c6.11-.57,12.25-1.33,18.4-1.19,15.74.52,31.62,2.94,47.31.4,8.35-1.18,17.02-3.51,25.41-1.45,3.56.91,6.84,2.98,10.51,3.49,4.15.87,8.2-.95,12.26-1.52,5.19-.87,10.52-1.02,15.77-.97,7.6.08,15.22.5,22.78,1.28,7.86.64,15.78.94,23.65.51"/><path class="b" d="M7.96,76.67c4.95-.2,9.94-.66,14.89-.54,6.14.14,12.28.86,18.4,1.24,8.15.55,16.37.88,24.53.28,4.71-.35,9.38-1.32,14.02-2.18,6.02-.99,12.47-2.37,18.4-.25,2.7.96,5.13,2.78,7.88,3.59,1.98.57,4.16.18,6.13-.24,2.29-.5,4.69-1.05,7.01-1.4,5.49-.84,11.1-.94,16.65-.92,8.77.02,17.55.67,26.28,1.47,7.28.53,14.61.61,21.9.31"/><path class="b" d="M7.96,73.76c4.94.35,9.95.07,14.89.46,7.88.6,15.76,1.55,23.65,1.87,6.7.3,13.47.41,20.15-.27,5.02-.51,9.96-1.79,14.89-2.76,4.85-.87,10.15-1.99,14.89-.1,2.19.89,4.1,2.55,6.13,3.72,1.88,1.13,4.14.51,6.13.06,2.31-.4,4.69-.98,7.01-1.34,5.78-.91,11.69-.96,17.52-.97,9.65-.02,19.3.67,28.91,1.55,7.28.48,14.61.48,21.9.32"/><path class="b" d="M7.96,70.56c4.26,1.12,8.78,1.09,13.14,1.63,6.12.66,12.25,1.5,18.4,1.89,8.73.56,17.56.95,26.28.07,4.74-.49,9.4-1.72,14.02-2.85,5.08-1.07,10.86-2.93,15.77-.4,2.53,1.2,4.08,4.47,7.01,4.72,1.77-.1,3.52-1.01,5.26-1.33,3.16-.58,6.43-1.09,9.64-1.35,7.28-.5,14.62-.37,21.9-.21,7.9.12,15.78.98,23.65,1.57,6.99.4,14.03.36,21.03.34"/><path class="b" d="M7.96,67.28c4.11,1.86,8.74,2.29,13.14,3.05,6.09.98,12.24,1.78,18.4,2.13,12.58.72,25.53,1.28,37.67-2.67,5.07-1.29,10.52-3.61,15.77-2.1,2.38.88,3.83,3.32,5.26,5.27,1.17,1.22,3.02,1.01,4.38.24,1.06-.5,2.37-.98,3.5-1.27,2.84-.65,5.86-.77,8.76-1.02,7.57-.38,15.2-.17,22.78-.05,8.19.11,16.37.94,24.53,1.63,7.28.41,14.61.38,21.9.54"/><path class="b" d="M7.96,64.58c11.34,4.72,23.73,6.03,35.92,6.47,10.56.39,21.44.62,31.54-2.96,5.34-1.69,10.94-4.32,16.65-3.12,2.07.65,2.87,3.37,3.5,5.19,2.08,4.23,4.96.4,7.88-.38,2.51-.82,5.27-.83,7.88-.94,8.16-.29,16.36.09,24.53.16,8.49.09,16.96.89,25.41,1.7,7.58.42,15.2.45,22.78.82"/><path class="b" d="M7.96,62.83c2.53-.3,4.71,1.42,7.01,2.21,3.08,1.22,6.38,2.02,9.64,2.63,6.34,1.17,12.84,1.46,19.27,1.71,7,.21,14.08.35,21.03-.69,3.27-.51,6.55-1.42,9.64-2.61,2.89-1.04,5.73-2.56,8.76-3.18,2.88-.26,5.87-.05,8.76-.11.85,2.09,1.28,5.45,2.63,7.3,1.26.58,2.57.15,3.5-.79.99-.82,2.27-1.63,3.5-2,2.81-.86,5.86-.69,8.76-.7,3.78,0,7.61.16,11.39.26,11.1.31,22.25.2,33.29,1.49,9.59,1.09,19.29.95,28.91,1.69"/><path class="b" d="M7.96,61.84c1.41,0,2.98.04,4.38.12,1.15.39,2.38,1.17,3.5,1.64,2.76,1.24,5.79,2.01,8.76,2.56,6.35,1.11,12.85,1.35,19.27,1.56,6.71.15,13.51.23,20.15-.82,3.29-.55,6.59-1.51,9.64-2.87,2.31-.95,4.54-2.45,7.01-2.96,3.19-.07,6.45,0,9.64-.03,1.3,1.98,1.11,5.77,2.63,7.54.44.02,1.32.02,1.75,0,1.2-.84,2.22-2.3,3.5-3.05,2.63-1.49,5.85-1.26,8.76-1.18,4.95.18,9.94.44,14.89.63,8.45.39,16.98.04,25.41.91,7.26.96,14.59,1.34,21.9,1.69,2.6.15,5.29.31,7.88.49,2.31.24,4.71.27,7.01-.06"/><path class="b" d="M7.96,61.11c2.31.14,4.72.36,7.01.67,1.46.35,2.92,1.26,4.38,1.65,1.96.62,4.1,1.05,6.13,1.36,6.08.89,12.27,1.12,18.4,1.26,6.42.1,12.93.09,19.27-.98,2.99-.53,6.01-1.42,8.76-2.73,2.32-.92,4.43-3,7.01-3.05,3.19,0,6.45,0,9.64,0,.63,1.5,1.45,5.02,1.75,6.65l.88.92c.44.02,1.32-.03,1.75-.1,1.07-1.23,2.07-2.96,3.5-3.82,2.65-1.43,5.88-.93,8.76-.76,4.65.37,9.36.64,14.02.87,6.41.33,12.86.31,19.27.49,7.56.85,15.17,1.7,22.78,2.01,4.96.15,9.95.58,14.89.98,2.61.16,5.31-.4,7.88-.79"/><path class="b" d="M7.96,60.39c3.2.33,6.46.76,9.64,1.22,3.16.73,6.38,1.62,9.64,1.9,5.51.63,11.1.79,16.65.86,6.13.04,12.35-.06,18.4-1.15,2.69-.51,5.43-1.33,7.88-2.55,2.08-.86,3.88-2.77,6.13-3.14,3.19,0,6.45,0,9.64,0,1.61,2.02,1.27,6.06,3.5,7.56,1.65.33,2.59-1.47,3.5-2.51.92-1.05,2.18-2.11,3.5-2.59,1.06-.45,2.38-.44,3.5-.33,1.71.13,3.55.38,5.26.58,3.77.4,7.61.65,11.39.86,5.82.33,11.69.44,17.52.5,8.99,1.28,18.1,1.81,27.16,2.28,4.38.11,8.78.67,13.14,1.01,3.23-.29,6.5-.87,9.64-1.68"/><path class="b" d="M7.96,59.58c4.07.51,8.2.97,12.26,1.45,2.6.36,5.26.91,7.88,1.1,7.85.63,15.79.74,23.65.37,6.29-.43,12.92-1.08,18.4-4.46,1.1-.67,2.33-1.63,3.5-2.17,3.18-.23,6.45-.03,9.64-.09l.88.64c.92,2.14,1.39,5.58,3.5,6.9h.88c1.29-.72,2.33-2.19,3.5-3.07,2.46-1.93,5.77-2.07,8.76-2.06,2.62-.08,5.28.4,7.88.63,3.48.29,7.03.49,10.51.64,3.48.17,7.03.19,10.51.33,2.89.37,5.86.73,8.76.99,6.98.66,14.03.93,21.03,1.37,4.08.14,8.21.52,12.26,1.06,4.17-.39,8.37-1.39,12.26-2.94"/><path class="b" d="M7.96,58.61c7,.72,14.02,1.56,21.03,2.13,6.99.38,14.04.44,21.03.09,5.32-.38,10.82-.92,15.77-3.04,2.19-.88,4.08-2.56,6.13-3.68,3.18-.17,6.45-.06,9.64-.05,1.51,2.29,1.92,5.93,4.38,7.46h.88c1.75-1.14,3.24-2.96,5.26-3.68,4.2-1.44,8.8-.62,13.14-.6,8.17.23,16.39.39,24.53,1.27,9.6,1.09,19.28,1.37,28.91,1.93,14.35.9,11.51,2.5,25.41-3.66"/><path class="b" d="M7.96,57.47c6.41.62,12.85,1.33,19.27,1.73,6.99.32,14.04.33,21.03-.03,5.32-.37,10.8-1.01,15.77-3.05,2.22-.87,4.11-2.55,6.13-3.75,1.7-.18,3.55-.05,5.26-.09,1.4.11,3.1-.32,4.38.38,1.26,2.29,2.07,5.53,4.38,7.02l.88.05c1.73-1.05,3.29-2.7,5.26-3.35,4.51-1.39,9.38-.42,14.02-.39,8.17.22,16.38.26,24.53,1.05,12.52,1.3,25.17.98,37.67,2.5,3.34.26,7.04-.65,9.64-2.83,2.51-1.38,5.18-2.72,7.88-3.67"/><path class="b" d="M7.96,56.23c6.98.66,14.01,1.37,21.03,1.56,6.12-.21,12.29.18,18.4-.33,5.04-.36,10.18-1.15,14.89-3.04,1.87-.77,3.67-2,5.26-3.24.92-.82,2.37-.64,3.5-.65,2,0,4.13,0,6.13,0,.74.29,1.46,1.73,1.75,2.4,1.01,1.8,2.07,4.71,4.38,5.06,1.18-.6,2.36-1.65,3.5-2.31,3.16-1.84,7-1.51,10.51-1.36,5.24.31,10.52.44,15.77.49,8.77.1,17.53,1.01,26.28,1.43,8.46.42,16.99.4,25.41,1.49,4.05.19,8.44-1.16,11.39-4.01,3.02-3.49,3.34-3.2,7.88-3.19"/><path class="b" d="M7.96,54.94c4.36.41,8.77.75,13.14.99,2.89-.03,5.87-.16,8.76-.11,5.24-.12,10.54.38,15.77,0,4.75-.31,9.56-1.09,14.02-2.8,2.2-.8,4.31-2.11,6.13-3.57,1.17-1.02,2.96-.6,4.38-.68,1.7,0,3.55,0,5.26,0,2.33,2.1,2.88,6.3,6.13,7.48,2.29-1.14,4.36-3.03,7.01-3.33,5.22-.62,10.53.28,15.77.28,5.53.13,11.12.11,16.65.41,7.87.42,15.77.99,23.65,1.18,4.36.14,8.79.23,13.14.58,2.01.16,4.13.4,6.13.64,3-.28,6.1-.92,8.76-2.37,2.33-1.14,4-3.42,6.13-4.81,1.7-.09,3.55-.03,5.26-.05"/><path class="b" d="M7.96,53.6c2.6.21,5.28.41,7.88.55,3.19-.17,6.45-.29,9.64-.32,3.78,0,7.62.02,11.39.15,2.3.02,4.71.36,7.01.22,4.45-.28,8.96-.97,13.14-2.56,1.79-.68,3.67-1.58,5.26-2.66,1.07-.66,2.17-1.96,3.5-1.97,2.6,0,5.29,0,7.88,0,.64.38,1.44,1.66,1.75,2.31,1.08,1.84,2.39,4.06,4.38,5.02.93.02,1.87-.75,2.63-1.21,1.3-.81,2.87-1.48,4.38-1.74,2.87-.47,5.87-.16,8.76-.04,3.19.18,6.45.29,9.64.35,9.05.03,18.12.48,27.16.98,6.41.32,12.86.38,19.27.62,3.49.13,7.05.44,10.51.87,2.04-.11,4.17-.54,6.13-1.11,1.81-.54,3.68-1.39,5.26-2.44,1.49-.96,2.92-2.36,4.38-3.35,1.85-.57,4.17-.14,6.13-.27"/><path class="b" d="M7.96,52.2c4.36.39,8.77-.31,13.14-.3,7.3-.18,14.63-.02,21.9.64,4.16-.28,8.39-.97,12.26-2.55,1.8-.72,3.66-1.71,5.26-2.81,1.06-.66,2.17-1.92,3.5-1.91,2.6,0,5.29,0,7.88,0,1.21.59,1.89,2.41,2.63,3.46,1.08,1.51,2.43,3.51,4.38,3.9,4.56-2.8,6.94-3.3,12.27-2.97,4.36.22,8.77.44,13.14.48,9.05.05,18.12.51,27.16.92,6.41.27,12.86.28,19.27.53,3.5.06,7.03.59,10.51.8,3.29-.38,6.64-1.16,9.64-2.61,1.49-.72,3.05-1.71,4.38-2.68,1.01-.7,2.21-1.77,3.5-1.82,1.7,0,3.55,0,5.26,0"/><path class="b" d="M7.96,50.52c11.36-.77,22.83-1.1,34.17.21,3.86.13,7.83-.91,11.39-2.36,1.81-.78,3.66-1.84,5.26-3,2.08-1.62,2.52-2.01,5.26-1.85,1.4,0,2.98,0,4.38,0,.8,0,1.9-.09,2.63.34,1.73,2.47,3.26,5.6,6.13,6.93,1.24-.08,2.39-1.1,3.5-1.56,2.98-1.45,6.42-1.31,9.64-1.15,5.82.34,11.69.43,17.52.52,8.46.12,16.94.68,25.41.88,7.87.24,15.81.02,23.65.87.77.09,1.85.22,2.63.3,1.1-.13,2.42-.32,3.5-.54,3.02-.59,6.04-1.61,8.76-3.06,6.57-3.66,4.38-3.67,12.26-3.53"/><path class="b" d="M7.96,48.46c11.07-.6,22.27-1.07,33.29.43,1.41.29,2.98.08,4.38-.19,2.4-.42,4.84-1.21,7.01-2.32,2.53-1.14,4.59-3.27,7.01-4.58,3.18-.03,6.46-.15,9.64.06,2.14,2.5,3.69,6.09,7.01,7.25,1.95-.96,3.95-2.17,6.13-2.5,4.63-.63,9.37.13,14.02.15,9.93.13,19.87.48,29.79.88,7.58.27,15.2.16,22.78.44,3.2.04,6.45.61,9.64.75,2.34-.3,4.76-.8,7.01-1.49,2.71-.83,5.38-2.06,7.88-3.36,1.66-.8,3.4-1.95,5.26-2.2.77,0,1.86-.01,2.63.04.87.18,1.92.79,2.63,1.33"/><path class="b" d="M7.96,46.44c11.08-.46,22.29-1,33.29.7,3.29.51,6.73-.83,9.64-2.28,2.2-1.16,4.18-2.91,6.13-4.42,1.32-.63,2.97-.39,4.38-.43,2,0,4.13,0,6.13,0,1.09.58,1.9,2.12,2.63,3.07,1.35,1.65,2.99,3.91,5.26,4.15,2.16-1.16,4.52-2.28,7.01-2.43,4.65-.27,9.36.31,14.02.33,11.68.07,23.36.84,35.04.97,5.83.08,11.7-.01,17.52.27,2.61.12,5.3.4,7.88.76,2.33-.28,4.75-.77,7.01-1.42,4.52-1.28,8.76-3.47,13.14-5.12,1.13-.64,2.51.07,3.5.66,1.12.67,2.41,1.56,3.5,2.28"/><path class="b" d="M7.96,44.47c10.79-.36,21.71-.87,32.41.79,3.31.76,6.82-.58,9.64-2.28,2.83-1.59,5.29-4.77,8.76-4.72,2.59.11,5.33-.25,7.88.19,2.05,2.1,4.6,7.03,7.88,6.94,1.89-1.01,3.98-1.95,6.13-2.18,2.88-.32,5.87-.04,8.76.06,3.48.16,7.03.22,10.51.26,9.05.12,18.11.77,27.16.84,8.46.16,16.98-.28,25.41.6,1.1.1,2.4.37,3.5.36,1.72-.23,3.57-.59,5.26-1.03,5.06-1.32,9.9-3.5,14.89-5.04,1.25-.13,2.44.9,3.5,1.43,1.39.82,2.94,1.77,4.38,2.51"/><path class="b" d="M7.96,42.55c10.79-.29,21.72-.79,32.41.99,3,.64,6.17-.65,8.76-2.09,8.53-5.74,5.24-4.95,15.77-4.94,1.06.49,1.91,1.84,2.63,2.71,1.41,1.75,3.14,3.6,5.26,4.48.89.02,1.85-.62,2.63-.97.77-.35,1.81-.72,2.63-.91,4.89-.94,9.96-.04,14.89-.07,11.1.02,22.19.87,33.29.94,6.41.05,12.86-.15,19.27.09,2.01.08,4.14.23,6.13.47,1.41.18,2.97.52,4.38.15,6.61-1.04,12.73-4.15,19.27-5.44,2.92,1.41,5.73,3.27,8.76,4.46"/><path class="b" d="M7.96,40.65c10.5-.24,21.13-.68,31.54,1.03,3.32.83,6.81-.61,9.64-2.3,2.82-1.56,5.3-4.87,8.76-4.62,2,.05,4.14-.12,6.13.1,2.61,2.31,4.47,5.79,7.88,7.1.88,0,1.85-.63,2.63-.97.77-.34,1.81-.7,2.63-.88,4.9-.89,9.95-.03,14.89-.06,11.39,0,22.78,1,34.17.93,6.12,0,12.28-.22,18.4.03,2.91.09,5.88.49,8.76.86,1.42-.2,2.99-.51,4.38-.86,3.83-.96,7.57-2.43,11.39-3.44,1.09-.29,2.4-.6,3.5-.84,0,0,.88-.19.88-.19,0,0,.88.28.88.28,3.12,1.61,6.23,3.54,9.64,4.49"/><path class="b" d="M7.96,38.78c10.21-.2,20.54-.58,30.66,1.05,3.31.91,6.77-.35,9.64-2.01,2.1-1.25,4.04-2.99,6.13-4.24,1.02-.63,2.36-.62,3.5-.58,1.7.11,3.62-.28,5.26.27,1.81,1.62,3.35,3.81,5.26,5.33,1.23.95,2.88,2.23,4.38,1.08,2.13-1.13,4.61-1.65,7.01-1.67,5.54.02,11.11.41,16.65.39,6.42.04,12.86.54,19.27.73,6.41.22,12.86.05,19.27-.02,3.78-.03,7.62-.02,11.39.29,2.61.1,5.3,1.09,7.88.34,5.34-1.11,10.41-3.39,15.77-4.4.76-.16,1.84-.42,2.63-.3,1.1.58,2.41,1.3,3.5,1.9,2.43,1.36,5.11,2.49,7.88,2.91"/><path class="b" d="M7.96,36.93c7.87-.14,15.8-.35,23.65.32,2.91.27,5.89.68,8.76,1.21,4.72-.26,8.67-3.1,12.26-5.91.73-.52,1.73-1.15,2.63-1.3,1.1-.01,2.4,0,3.5,0,1.71,0,3.16-.3,4.38,1.18,2.16,2.04,4.73,5.8,7.88,6,1.89-.97,3.99-1.85,6.13-2.01,4.06-.32,8.2.12,12.26.16,9.64,0,19.28.69,28.91.9,7.58.12,15.2-.35,22.78-.11,2.01.07,4.14.22,6.13.46,1.41.09,2.98.68,4.38.42,6.53-1.24,12.63-4.28,19.27-5.07,2.08.91,4.06,2.32,6.13,3.26,2.2.94,4.64,1.55,7.01,1.85"/><path class="b" d="M7.96,35.09c9.93-.15,19.96-.42,29.79,1.26,3.67.95,7.48-.77,10.51-2.76,6.29-4.58,4.29-4.2,12.26-4.06,3.53,1.85,5.53,6.34,9.64,7.26,1.92-.93,3.98-1.88,6.13-2.06,4.35-.37,8.78.12,13.14.14,11.1-.04,22.19,1.02,33.29.85,6.12-.08,12.28-.38,18.4-.09,2.61.13,5.31.44,7.88.91,1.43.18,3-.41,4.38-.74,3.19-.75,15.49-5.98,17.52-3.81,3.87,2.68,8.43,4.37,13.14,4.69"/><path class="b" d="M7.96,33.25c9.64-.14,19.37-.35,28.91,1.29,3.65,1,7.46-.57,10.51-2.54,6.32-4.49,4.03-4.51,12.26-4.2,3.56,1.82,5.74,5.91,9.64,7.23,2.02-.63,3.97-1.85,6.13-2,4.64-.44,9.36.1,14.02.11,12.56.02,25.11,1.22,37.67.66,4.65-.11,9.37-.23,14.02.11,1.71.13,3.56.35,5.26.64,1.1.26,2.41.42,3.5.05,6.18-1.57,11.99-4.63,18.4-5.31,1.51.67,2.9,1.93,4.38,2.67,3.45,1.97,7.45,2.83,11.39,3.03"/><path class="b" d="M7.96,31.42c7.29-.08,14.64-.24,21.9.5,2.91.33,5.88.77,8.76,1.28,4.76-.33,8.77-3.17,12.26-6.19,1.66-1.55,4.08-.9,6.13-1.02,1.67-.24,3.19.72,4.38,1.79,1.4,1.22,2.91,2.64,4.38,3.77,2.17,1.52,2.75,2.31,5.26.85,3.54-1.64,7.6-1.26,11.39-1.19,4.36.16,8.78.22,13.14.28,6.71.09,13.44.61,20.15.64,6.41.08,12.86-.36,19.27-.25,3.8.05,7.66.39,11.39,1.16,1.12.24,2.43-.28,3.5-.55,1.74-.52,3.57-1.25,5.26-1.93,3.92-1.49,8.04-3.2,12.26-3.34,5.2,4.23,9.95,5.93,16.65,6.06"/><path class="b" d="M7.96,29.59c9.36-.15,18.8-.17,28.03,1.55,3.32.82,6.83-.66,9.64-2.37,2.15-1.27,3.84-3.49,6.13-4.5,1.4-.05,2.98-.02,4.38-.03,4.31-.38,8.01,5.94,12.26,7.33,2.27-.82,4.53-2.02,7.01-2.07,4.94-.26,9.95.18,14.89.18,12.84.13,25.7,1.04,38.55.42,5.56-.23,11.21.07,16.65,1.31,3.38-.43,6.52-2.11,9.64-3.4,3.34-1.46,6.9-2.61,10.51-3.19,1.94.77,3.42,2.66,5.26,3.67,3.87,2.51,8.64,2.95,13.14,3.05"/><path class="b" d="M7.96,27.75c9.07-.15,18.22-.07,27.16,1.63,3.65.88,7.54-.8,10.51-2.87,1.48-1.06,2.92-2.53,4.38-3.62.71-.48,1.81-.41,2.63-.4,1.4.03,2.99-.09,4.38.1,2.64.94,4.83,3.01,7.01,4.71,1.29.96,2.74,2.26,4.38,2.48,3.73-1.95,7.26-2.27,11.39-2.09,4.07.09,8.2.22,12.26.26,6.71.04,13.44.39,20.15.49,6.71.12,13.45-.05,20.15-.2,3.51-.03,7.09.41,10.51,1.18,1.1.39,2.44.13,3.5-.25,1.77-.57,3.59-1.42,5.26-2.23,4.13-2.02,8.48-4.12,13.14-4.4,1.94,1,3.42,2.96,5.26,4.12,4.05,2.82,9.24,3.06,14.02,3.07"/><path class="b" d="M7.96,25.9c5.24-.07,10.54-.04,15.77.31,2.92.18,5.88.66,8.76,1.14,1.41.19,2.96.58,4.38.59.8-.13,1.85-.36,2.63-.57,3.87-.9,6.73-3.81,9.64-6.3,1.52-.67,3.6-.21,5.26-.34,4.65-.19,8.39,4.77,12.26,6.82,1.2.83,2.36.15,3.5-.38,1.35-.56,2.93-.95,4.38-1.09,4.06-.32,8.2,0,12.26.03,5.24.1,10.53.13,15.77.29,6.99.18,14.03.32,21.03.23,5.54,0,11.21-.51,16.65.8,1.09.21,2.41.75,3.5.31,2.45-.67,4.8-1.95,7.01-3.17,3.76-2.11,7.82-4.28,12.26-3.85.41-.02,1.34.03,1.75.12.89.58,1.88,1.64,2.63,2.38,4.22,4.53,10.85,4.82,16.65,4.6"/><path class="b" d="M7.96,24.05c5.54-.07,11.13,0,16.65.51,3.21.3,6.45,1.01,9.64,1.49,1.73.42,3.6-.18,5.26-.67,3.11-.94,5.65-3.19,7.88-5.45.89-1.03,2.26-1.01,3.5-.95,1.1,0,2.41,0,3.5,0,1.89.03,3.68,1.17,5.26,2.11,2.69,1.56,4.97,4.01,7.88,5.17.86-.02,1.85-.55,2.63-.86,1.36-.53,2.93-.9,4.38-1.04,5.82-.36,11.7.1,17.52.08,12.55.19,25.12.49,37.67.4,3.52,0,7.11.3,10.51,1.25,4.72.62,10.9-6.06,15.77-7.02,1.69-.2,3.55-.06,5.26-.1,1.1.04,2.45-.16,3.5.25,1.68,1.58,3.2,3.65,5.26,4.78,4.24,2.33,9.34,2.05,14.02,1.87"/><path class="b" d="M7.96,22.19c5.54-.07,11.14.06,16.65.69,2.91.35,5.86,1.04,8.76,1.47,1.73.39,3.6-.21,5.26-.7,3.15-.93,5.68-3.26,7.88-5.6.85-1,2.33-.82,3.5-.81,1.4.01,2.98-.04,4.38.04,2.89.59,5.47,2.4,7.88,4.03,1.64,1.14,3.34,2.58,5.26,3.23.85-.07,1.85-.56,2.63-.86,1.36-.51,2.94-.87,4.38-1.01,5.82-.38,11.7.04,17.52.02,12.55.16,25.12.32,37.67.5,2.01.07,4.15.24,6.13.59,1.41.14,2.98.98,4.38.54,3.29-.85,5.99-3.19,8.76-5.04,1.03-.7,2.31-1.5,3.5-1.89.76-.2,1.85-.16,2.63-.16,2.89,0,5.87,0,8.76,0,1.79.84,2.76,3.08,4.38,4.2,4.46,3.42,10.5,2.64,15.77,2.43"/><path class="b" d="M7.96,20.32c6.72-.05,13.55.17,20.15,1.54,1.7.34,3.54.68,5.26.91,2.4-.15,4.89-.9,7.01-2.04,2.4-1.22,3.96-3.73,6.13-5.23,2.3-.05,4.71-.04,7.01,0,3.2.52,6.08,2.43,8.76,4.16,1.09.74,2.37,1.65,3.5,2.32.76.4,1.74.97,2.63.67,1.09-.42,2.37-.91,3.5-1.2,4.57-1.05,9.37-.55,14.02-.6,10.51.16,21.04.1,31.54.41,6.42.15,12.97-.13,19.27,1.34,3.24.2,6.3-1.92,8.76-3.83,1.62-1.15,3.12-3.28,5.26-3.31,4.36,0,8.78-.01,13.14,0,1.61,1.22,2.67,3.34,4.38,4.47,4.62,3.14,10.53,1.92,15.77,1.79"/><path class="b" d="M7.96,18.67c5.55-.4,11.16.07,16.65.96,2.6.49,5.26,1.14,7.88,1.44,2.4-.3,4.9-.94,7.01-2.15,2.05-1.16,3.64-3.16,5.26-4.82,1.01-.61,2.38-.32,3.5-.38,1.71.04,3.56-.12,5.26.13,3.84.88,7.25,3.15,10.51,5.27,1.31.76,2.79,1.95,4.38,1.86.44-.15,1.31-.46,1.75-.61,3.62-1.32,7.59-1.25,11.39-1.25,4.66,0,9.36.07,14.02.09,7,0,14.03,0,21.03.29,5.25.15,10.57.11,15.77.94.77.13,1.86.33,2.63.49,2.81-.15,5.54-1.46,7.88-2.95,2.05-1.26,3.91-3.12,6.13-4.09,1.68-.33,3.55-.09,5.26-.16,2.6.03,5.29-.06,7.88.04,1.74,1.53,3.08,3.79,5.26,4.81,5.17,2.48,11.14,1.18,16.65,1.04"/><path class="b" d="M7.96,17.05c2.3-.09,4.71-.19,7.01-.22,3.2.25,6.49.61,9.64,1.28,3.15.66,6.45,1.74,9.64.69,4.78-1.07,6.48-3.39,9.64-6.69,1.39-.27,2.98-.09,4.38-.14,1.4.03,2.98-.08,4.38.1,2.45.42,4.82,1.53,7.01,2.68,2.91,1.46,5.54,3.8,8.76,4.57,1.71-.47,3.5-1.15,5.26-1.42,1.99-.33,4.12-.4,6.13-.44,4.36-.05,8.78-.01,13.14,0,7,.05,14.03-.14,21.03.24,4.95.18,9.97.24,14.89.86,1.41.14,2.96.56,4.38.6,4.19-.56,7.97-2.72,11.39-5.08,1.31-.84,2.81-1.84,4.38-2.09.77-.02,1.85-.02,2.63-.01,2.6,0,5.29,0,7.88,0,.96.5,1.87,1.66,2.63,2.41.96.94,2.27,1.87,3.5,2.4,3.01,1.29,6.41,1.37,9.64,1.23,2.89-.08,5.87-.25,8.76-.4"/></svg>