<?xml version="1.0" encoding="UTF-8"?><svg id="a" xmlns="http://www.w3.org/2000/svg" width="1920" height="2400" viewBox="0 0 192 240"><defs><style>.b{fill:none;stroke:#fff;stroke-miterlimit:10;stroke-width:.3px;}.c{stroke-width:0px;}</style></defs><rect class="c" x="0" width="192" height="240"/><path class="b" d="M8.39,226.16c9.87-.06,19.77-.13,29.64.26,3.18.14,6.42.37,9.59.67,2.58.27,5.26.54,7.85.21,4.77-.38,9.45-1.65,13.95-3.23,3.72-1.23,7.43-2.83,11.33-3.35,10.48-1.22,20.98.79,31.38,1.85,6.69.8,13.39,1.89,20.05,2.9,7.75,1.2,15.74,2.18,23.54.83,5.76-.98,10.94-3.97,16.56-5.41,3.67-1.01,7.56-.85,11.33-.85"/><path class="b" d="M8.39,224.42c10.45-.06,20.94-.19,31.38.22,3.18.14,6.42.38,9.59.7,2.29.2,4.68.57,6.97.33,4.74-.3,9.44-1.43,13.95-2.89,3.74-1.15,7.44-2.72,11.33-3.26,10.16-1.32,20.38.68,30.51,1.45,11.63,1.15,23.18,3.49,34.87,3.96,5.31.18,10.7-.47,15.69-2.33,3.43-1.22,6.88-2.67,10.46-3.42,3.41-.74,6.98-.84,10.46-.85"/><path class="b" d="M8.39,222.66c15.4-.07,30.87-.57,46.2,1.21,5.6.45,11.22-.92,16.56-2.47,3.46-1.01,6.89-2.4,10.46-3,9.83-1.62,19.8.23,29.64.81,7.84.87,15.68,2.02,23.54,2.78,7.5.81,15.14,1.53,22.67.54,8.86-1.19,17.12-5.42,26.15-5.68"/><path class="b" d="M8.39,220.91c13.65,0,27.35-.63,40.97.48,4.04.29,8.15,1.18,12.2.73,3.83-.36,7.65-1.26,11.33-2.35,3.15-.94,6.33-2.11,9.59-2.64,5.15-.99,10.48-.77,15.69-.48,4.63.34,9.33.55,13.95,1.01,7.23,1.01,14.53,1.77,21.79,2.49,8.09.81,16.29,1.51,24.41.73,8.62-.69,16.74-4.13,25.28-5.29"/><path class="b" d="M8.39,219.14c13.65-.01,27.35-.75,40.97.22,4.34.29,8.72,1.21,13.08,1.13,7.52-.34,14.47-3.56,21.79-4.93,5.17-.86,10.48-.64,15.69-.39,4.35.28,8.77.31,13.08.99,6.95.9,13.95,1.59,20.92,2.23,8.1.77,16.28,1.37,24.41.86,8.63-.36,16.91-3.04,25.28-4.9"/><path class="b" d="M8.39,217.37c6.96-.11,13.96-.19,20.92-.32,6.67-.1,13.39-.25,20.05.25,4.94.32,9.87,1.32,14.82,1.5,7.23-.24,13.89-3.43,20.92-4.73,4.88-.82,9.9-.69,14.82-.53,4.66.12,9.34.37,13.95,1.09,15.04,1.6,30.18,3.54,45.33,2.92,8.3-.27,16.44-2.18,24.41-4.39"/><path class="b" d="M8.39,215.59c6.96-.12,13.96-.23,20.92-.43,6.67-.16,13.39-.42,20.05.02,3.48.22,7.01.71,10.46,1.23,2.57.27,5.25.84,7.85.55,6.3-.55,12.12-3.4,18.31-4.48,4.59-.77,9.31-.73,13.95-.63,2.29.05,4.68.13,6.97.2,2.29.31,4.68.65,6.97.91,10.14,1.16,20.33,2.07,30.51,2.68,13.16.7,26.57.26,39.23-3.72"/><path class="b" d="M8.39,213.8c7.26-.14,14.54-.32,21.79-.61,6.67-.24,13.39-.61,20.05-.16,4.09.24,8.17,1.05,12.2,1.67,3.16.56,6.44.88,9.59.1,5.02-.98,9.77-3.18,14.82-4,5.75-.94,11.64-.71,17.44-.63,3.19.06,6.41.81,9.59,1.09,12.16,1.34,24.38,2.39,36.61,2.73,11.1.2,22.43-.1,33.13-3.39"/><path class="b" d="M8.39,212.01c11.34-.16,22.67-.97,34-1.42,4.95-.15,9.96.16,14.82,1.09,3.75.68,7.54,1.53,11.33,1.88,6.36.06,12.14-3.27,18.31-4.37,5.44-1,11.05-.89,16.56-.87,2.9.04,5.83.75,8.72,1.02,13.01,1.53,26.13,2.44,39.23,2.75,10.78.07,21.81.14,32.26-2.87"/><path class="b" d="M8.39,210.2c11.06-.19,22.09-1.25,33.13-1.93,4.65-.22,9.37,0,13.95.88,4.64.83,9.25,2.16,13.95,2.66,2.64.13,5.34-.62,7.85-1.39,4.54-1.54,9.13-3.23,13.95-3.6,3.74-.37,7.57-.39,11.33-.41,2.01-.04,4.11.5,6.1.72,13.57,1.88,27.29,2.59,40.97,2.97,11.33.01,22.95.47,34-2.38"/><path class="b" d="M8.39,208.39c6.68-.25,13.4-.68,20.05-1.36,6.08-.58,12.19-1.5,18.31-1.31,5.02.16,9.98,1.33,14.82,2.6,3.68.86,7.52,2.23,11.33,1.59,4.8-.79,9.21-3.19,13.95-4.23,3.41-.77,6.98-1,10.46-1.12,2.29,0,4.71-.31,6.97.14,14.4,2.39,29.02,3.04,43.59,3.4,6.38.09,12.8.1,19.18-.12,5.54-.21,11.17-.49,16.56-1.85"/><path class="b" d="M8.39,206.54c6.98-.36,13.99-.94,20.92-1.91,6.91-.95,13.94-2.29,20.92-1.33,6.58.81,12.64,3.93,19.18,4.94,4.91.74,9.44-1.92,13.95-3.4,4.43-1.7,9.25-2.11,13.95-2.28,1.4-.05,2.96-.09,4.36-.13,3.17.51,6.41,1.05,9.59,1.48,6.35.89,12.77,1.45,19.18,1.66,8.99.43,18.02.4,27.02.47,8.71-.03,17.58.23,26.15-1.57"/><path class="b" d="M8.39,204.61c6.12-.37,12.27-.95,18.31-2.02,2.3-.41,4.69-.9,6.97-1.37,1.69-.28,3.51-.89,5.23-.64,5.2.47,10.48.54,15.69.85,4.12,1.32,8.01,3.46,12.2,4.55,4.07,1.3,8.43.52,12.2-1.33,3.61-1.62,7.38-3.13,11.33-3.62,2.28-.32,4.68-.46,6.97-.55,1.71-.06,3.56-.25,5.23.2,6.91,1.24,13.91,2.28,20.92,2.74,10.44.62,20.93.38,31.38.57,9.58-.05,19.3.54,28.77-1.2"/><path class="b" d="M8.39,202.67c5.25-.39,10.55-.98,15.69-2.14,2.31-.51,4.69-1.19,6.97-1.83,1.11-.11,2.39.2,3.49.29,8.09,1.07,16.34.6,24.41,1.81,2.88,1.22,5.6,3.11,8.72,3.75,4.41,1.06,8.36-.14,12.2-2.31,3.26-1.67,6.8-3.01,10.46-3.43,3.16-.39,6.41-.5,9.59-.58,1.4.27,2.96.58,4.36.84,6.04,1.13,12.17,2.06,18.31,2.48,4.33.35,8.73.25,13.08.26,5.8.02,11.64.1,17.44.18,10.15-.01,20.44.66,30.51-.93"/><path class="b" d="M8.39,200.73c6.22-.5,12.47-1.6,18.31-3.87,3.18.34,6.4.97,9.59,1.19,7.81.86,15.82.34,23.54,1.93,2.79.5,5.07,2.52,7.85,3.02,1.68.24,3.54.17,5.23.09,1.85-.25,3.66-1.15,5.23-2.11,3.65-2.4,7.79-4.25,12.2-4.55,2.87-.26,5.84-.35,8.72-.38,1.7.32,3.53.72,5.23,1.07,5.74,1.17,11.58,2.12,17.44,2.54,4.04.35,8.15.2,12.2.17,4.92-.03,9.9.07,14.82.19,6.67.17,13.38.3,20.05.23,4.93-.08,9.94-.13,14.82-.91"/><path class="b" d="M8.39,198.84c5.08-.48,10.19-1.5,14.82-3.71,8.59,1.81,17.41,2.15,26.15,2.6,3.48.22,7.06.46,10.46,1.29,1.44.35,3,.9,4.36,1.48,1.06.44,2.32.99,3.49.92,5.86.12,6.72.18,11.33-3.63,3.66-3.13,8.42-3.81,13.08-3.77,2.88,0,5.89-.32,8.72.39,6.89,1.56,13.86,3.01,20.92,3.45,6.37.39,12.8-.12,19.18.15,14.21.43,28.55,1.36,42.72-.32"/><path class="b" d="M8.39,197.03c2.62-.29,5.34-.74,7.85-1.58,1.46-.44,2.94-1.32,4.36-1.86,8.82,2.25,17.99,2.39,27.02,2.94,3.77.23,7.63.51,11.33,1.3,2.33.44,4.64,1.41,6.97,1.81,1.99.07,4.11.02,6.1.03,2.68-.25,4.37-2.89,6.1-4.66,2.93-3.46,6.41-2.84,10.46-2.86,3.75.07,7.59-.15,11.33.11,6.64,1.35,13.25,3.19,20.05,3.64,6.37.53,12.8-.07,19.18.26,6.67.27,13.37.85,20.05.93,8.13.04,16.33-.05,24.41-1.04"/><path class="b" d="M8.39,195.39c2.97-.33,6.09-.88,8.72-2.38.75-.65,1.73-.74,2.62-.35.79.21,1.82.46,2.62.62,3.14.64,6.4,1,9.59,1.26,7.25.58,14.57.64,21.79,1.45,2.31.26,4.7.67,6.97,1.16,1.97.46,4.07.88,6.1.77,5.38.22,6.55-.27,10.46-3.97,1.57-1.33,2.85-3.93,5.23-3.55,3.76,0,7.58,0,11.33,0,3.18.08,6.49-.32,9.59.58,5.7,1.51,11.53,2.82,17.44,3.15,4.34.29,8.74.05,13.08.11,4.94.09,9.9.6,14.82.98,11.6.92,23.32.55,34.87-.75"/><path class="b" d="M8.39,194.01c2.71-.2,5.54-.71,7.85-2.22,4.48,1.45,9.29,1.59,13.95,1.89,6.38.32,12.81.42,19.18.9,6.97.35,13.94,2.43,20.92,1.33,3.66-.9,6.75-3.43,9.59-5.79,1.46-1.37,2.41-1.59,4.36-1.47,1.7,0,3.53,0,5.23,0,4.34.07,8.75-.16,13.08.1,5.2,1.18,10.35,2.85,15.69,3.29,6.07.65,12.23.12,18.31.6,6.97.55,13.93,1.64,20.92,1.76,8.73.17,17.49-.47,26.15-1.48"/><path class="b" d="M8.39,193.16c12.48.15,25-.28,37.49.22,7.82.11,15.78,2.06,23.54.46,4.04-1.15,7.84-3.3,11.33-5.6.73-.49,1.74-1.14,2.62-1.32.44,0,1.31,0,1.74,0,2,0,4.11,0,6.1,0,2.88,0,5.84,0,8.72,0,1.7.03,3.57-.14,5.23.32,4.56,1.29,9.2,2.6,13.95,2.97,5.49.54,11.08.18,16.56.77,6.96.77,13.91,2.05,20.92,2.2,9.03.25,18.07-.65,27.02-1.74"/><path class="b" d="M8.39,192.7c4.92-.01,9.9.02,14.82-.02,6.96-.27,13.96-.52,20.92-.39,7.83.03,15.79,1.1,23.54-.44,5.16-1.24,10.19-3.29,14.82-5.87,1.54-1.02,3.48-.79,5.23-.8,2,0,4.11,0,6.1,0,2.58,0,5.26,0,7.85,0,2.02-.01,4.17-.11,6.1.57,3.96,1.23,8.06,2.23,12.2,2.56,4.91.48,9.92.33,14.82,1.01,7.23,1.1,14.46,2.5,21.79,2.58,9.04.3,18.08-.78,27.02-1.94"/><path class="b" d="M8.39,190.95c1.4,0,2.96,0,4.36,0,2.28-.37,4.67-.56,6.97-.55,9.29.07,18.6.59,27.9.46,5.8-.04,11.68-.07,17.44-.91,3.24-.47,6.46-1.41,9.59-2.37,3.31-.85,6.51-2.21,9.59-3.66,1.6-.74,3.52-.42,5.23-.48,2.88,0,5.84,0,8.72,0,2.88,0,5.84,0,8.72,0,1.44.13,2.98.66,4.36,1.06,7.89,2.56,16.34,1.87,24.41,3.46,15.75,3.61,32.08,2.99,47.95.49"/><path class="b" d="M8.39,183.83c1.61,1.57,3.96,2.15,6.1,2.58,2.56.49,5.25.77,7.85,1.02,4.34.39,8.73.78,13.08,1.01,9.29.16,18.65.48,27.9-.6,3.51-.42,7.03-1.19,10.46-2.03,3.55-.75,7.13-1.73,10.46-3.19.76-.31,1.81-.71,2.62-.88,1.09-.1,2.39-.05,3.49-.06,2.58,0,5.26,0,7.85,0,3.46,0,7,0,10.46,0,1.75.11,3.54.82,5.23,1.26,5.1,1.44,10.46,1.74,15.69,2.46,5.47,1.14,10.99,2.41,16.56,2.97,4.91.7,9.89-.08,14.82.08,2.59,0,5.26.22,7.85.29,4.95-.36,9.91-1.08,14.82-1.79"/><path class="b" d="M8.39,181.46c4.3,2.19,9.21,2.83,13.95,3.4,4.62.47,9.3,1.06,13.95,1.21,11.34.43,22.81.59,34-1.56,5.3-.95,10.67-1.84,15.69-3.86,1.91-.83,4.07-.72,6.1-.7,2.88,0,5.84,0,8.72,0,3.17,0,6.42,0,9.59,0,1.75.03,3.55.75,5.23,1.17,3.98,1.17,8.2,1.46,12.2,2.49,4.28,1.17,8.68,2.08,13.08,2.69,2.86.37,5.83.93,8.72.55,7.24-.57,14.56-.44,21.79.15,4.07-.3,8.17-.97,12.2-1.56"/><path class="b" d="M8.39,179.8c5.3,1.93,10.98,2.56,16.56,3.1,4.63.44,9.3.91,13.95,1.01,6.67.25,13.39.39,20.05-.07,3.78-.26,7.58-.9,11.33-1.41,3.17-.51,6.44-.86,9.59-1.52,2.64-.54,5.28-1.4,7.85-2.21,1.64-.59,3.51-.54,5.23-.52,2.58,0,5.26,0,7.85,0,4.94.1,10.02-.46,14.82.99,9.2,2.38,18.4,5.08,27.9,5.96,1.7.26,3.53-.1,5.23-.19,2.29-.17,4.68-.28,6.97-.34,6.1-.23,12.23.24,18.31.58,3.18-.33,6.43-.82,9.59-1.31"/><path class="b" d="M8.39,178.33c5.66,1.63,11.59,2.17,17.44,2.62,4.63.37,9.31.76,13.95.88,10.18.43,20.45.39,30.51-1.42,5.86-.66,11.79-1.32,17.44-3.11,3.63-1.12,7.58-.78,11.33-.85,2.58.02,5.27-.06,7.85.14,2.62.21,5.29.78,7.85,1.37,8.69,1.89,17.28,4.45,26.15,5.35,1.99.35,4.11.04,6.1-.12,2.58-.2,5.26-.33,7.85-.39,6.09-.16,12.23,0,18.31.5,3.48.41,7.02-.58,10.46-.99"/><path class="b" d="M8.39,176.97c5.71,1.32,11.6,1.76,17.44,2.11,4.92.31,9.89.64,14.82.77,10.18.37,20.45.34,30.51-1.44,5.23-.66,10.57-.99,15.69-2.36,3.37-.93,6.98-1.01,10.46-1.11,5.26-.13,10.55.45,15.69,1.55,8.73,1.58,17.31,4.11,26.15,5.06,1.99.35,4.11.12,6.1-.06,2.58-.21,5.26-.34,7.85-.42,5.51-.16,11.06-.12,16.56.15,2.29.06,4.68.45,6.97.46,2.3-.25,4.69-.6,6.97-.96"/><path class="b" d="M8.39,175.62c5.73,1.11,11.61,1.41,17.44,1.66,5.21.23,10.47.51,15.69.63,9.3.27,18.67.27,27.9-1.09,5.48-.93,11.11-1.07,16.56-2.21,8.6-1.78,17.57-1.09,26.15.49,8.75,1.35,17.33,3.83,26.15,4.73,1.99.32,4.11.02,6.1-.11,2.29-.17,4.68-.29,6.97-.36,6.09-.18,12.22-.19,18.31.05,2.29.1,4.69.28,6.97.52,2.3-.08,4.69-.54,6.97-.85"/><path class="b" d="M8.39,174.25c6.33,1.04,12.78,1.16,19.18,1.35,6.67.21,13.38.45,20.05.51,7.56.09,15.17-.21,22.67-1.26,4.9-.8,9.91-1.04,14.82-1.79,8.64-1.59,17.54-.85,26.15.59,8.76,1.2,17.35,3.6,26.15,4.46,1.69.26,3.53.08,5.23-.05,2.29-.15,4.68-.28,6.97-.35,6.67-.21,13.38-.26,20.05-.05,2.59.09,5.27.29,7.85.56,2-.2,4.12-.49,6.1-.79"/><path class="b" d="M8.39,172.81c6.63.94,13.37.94,20.05,1.07,7.25.12,14.54.33,21.79.32,5.52-.01,11.08-.23,16.56-.83,5.51-.67,11.03-1.48,16.56-1.9,8.96-1.49,18.1-.82,27.02.63,8.48,1.06,16.79,3.26,25.28,4.18,4.33.55,8.73-.21,13.08-.23,6.96-.26,13.96-.33,20.92-.11,2.59.08,5.27.25,7.85.51,2.01-.05,4.12-.43,6.1-.69"/><path class="b" d="M8.39,171.3c6.93.87,13.95.78,20.92.84,7.25.04,14.54.19,21.79.15,5.52-.04,11.08-.31,16.56-.96,4.93-.59,9.86-1.48,14.82-1.69,2.89-.16,5.83-.72,8.72-.74,5.83-.08,11.67.61,17.44,1.45,4.94.72,9.93,1.42,14.82,2.4,6.59,1.34,13.32,2.43,20.05,1.81,8.12-.39,16.28-.61,24.41-.4,3.47.05,7,.41,10.46.55,1.7-.16,3.54-.39,5.23-.64"/><path class="b" d="M8.39,169.71c6.07.68,12.21.69,18.31.66,6.09-.01,12.22,0,18.31.02,6.68.01,13.4-.07,20.05-.76,5.24-.43,10.43-1.74,15.69-1.89,3.76-.11,7.57-.66,11.33-.72,5.25.14,10.5.86,15.69,1.61,4.64.69,9.34,1.32,13.95,2.18,7.16,1.44,14.48,2.65,21.79,2.01,7.83-.41,15.7-.62,23.54-.45,3.47.09,7,.31,10.46.59,2-.02,4.12-.37,6.1-.62"/><path class="b" d="M8.39,168.06c11.29,1.07,22.68.35,34,.44,7.26-.03,14.57-.03,21.79-.8,2.89-.3,5.85-.74,8.72-1.23,1.99-.33,4.08-.8,6.1-.77,4.64-.11,9.32-.37,13.95-.61,4.37.28,8.75.95,13.08,1.62,4.92.78,9.91,1.44,14.82,2.33,7.16,1.38,14.48,2.69,21.79,2.09,8.12-.45,16.28-.7,24.41-.51,3.47.1,7,.36,10.46.64,2-.13,4.12-.37,6.1-.64"/><path class="b" d="M8.39,166.33c10.72,1,21.51.28,32.26.26,7.26-.1,14.57-.06,21.79-.81,2.9-.3,5.86-.74,8.72-1.27,2-.31,4.07-.96,6.1-.97,5.8-.1,11.64-.1,17.44-.36,3.19.36,6.43.93,9.59,1.47,5.2.92,10.49,1.65,15.69,2.57,7.45,1.43,15.06,2.8,22.67,2.16,8.12-.49,16.28-.72,24.41-.51,3.47.07,7,.48,10.46.64,2-.15,4.12-.36,6.1-.62"/><path class="b" d="M8.39,164.56c10.43.96,20.93.21,31.38.09,6.97-.17,13.98-.14,20.92-.86,2.9-.3,5.86-.77,8.72-1.34,2-.33,4.07-1.04,6.1-1.13,4.92-.15,9.9.08,14.82.09,2,0,4.11-.03,6.1-.12,2.01.31,4.11.73,6.1,1.12,5.77,1.2,11.64,2.07,17.44,3.1,7.73,1.54,15.64,2.81,23.54,2.04,7.82-.5,15.7-.67,23.54-.45,3.18.11,6.42.39,9.59.68,2.3-.1,4.69-.38,6.97-.65"/><path class="b" d="M8.39,162.76c11.31,1,22.68.01,34-.2,6.39-.21,12.84-.29,19.18-1.19,2.31-.33,4.7-.79,6.97-1.29,1.98-.4,4.07-1.03,6.1-.97,5.51-.12,11.06.16,16.56.35,3.54.21,7.02-.38,10.46.68,5.46,1.33,11.03,2.35,16.56,3.29,4.04.73,8.12,1.64,12.2,2.08,2.57.29,5.26.5,7.85.58,3.46-.2,6.99-.47,10.46-.62,6.37-.25,12.8-.37,19.18-.09,2.88.13,5.84.43,8.72.68,2.29-.21,4.69-.43,6.97-.7"/><path class="b" d="M8.39,160.93c7.24.69,14.54.36,21.79.04,7.25-.34,14.55-.58,21.79-1.03,3.78-.26,7.62-.67,11.33-1.41,3.14-.65,6.35-1.47,9.59-1.27,6.97-.01,13.97-.08,20.92.36,1.4.05,2.96.09,4.36.08,1.43-.07,3-.05,4.36.43,5.43,1.53,11.01,2.65,16.56,3.64,4.89.98,9.84,1.98,14.82,2.32,5.8.61,11.63-.49,17.44-.52,5.5-.14,11.06-.25,16.56.05,2.88.12,5.84.54,8.72.67,2.29-.22,4.69-.47,6.97-.73"/><path class="b" d="M8.39,159.08c7.24.69,14.55.29,21.79-.13,7.26-.44,14.55-.79,21.79-1.43,4.38-.35,8.73-1.29,13.08-1.92,1.99-.15,4.11-.04,6.1-.07,8.71.03,17.45-.19,26.15.38,2.3.2,4.77-.37,6.97.44,5.12,1.63,10.42,2.76,15.69,3.77,5.16,1.12,10.41,2.06,15.69,2.37,2.59.32,5.26-.12,7.85-.28,3.17-.24,6.42-.39,9.59-.46,5.22-.09,10.48-.19,15.69.19,2.29.16,4.69.4,6.97.63,2.59-.14,5.26-.54,7.85-.79"/><path class="b" d="M8.39,157.21c6.67.63,13.39.29,20.05-.22,6.68-.48,13.39-1.03,20.05-1.67,3.77-.35,7.57-1.02,11.33-1.46,4.04-.18,8.16-.03,12.2-.07,9,.07,18.04-.25,27.02.4,1.09.04,2.4.05,3.49.03,1.11-.06,2.44-.12,3.49.34,4.53,1.58,9.25,2.72,13.95,3.69,5.16,1.16,10.41,2.15,15.69,2.52,2.59.36,5.26-.12,7.85-.29,3.46-.27,6.99-.42,10.46-.48,5.22-.13,10.49-.14,15.69.31,2,.15,4.11.42,6.1.57,2.59-.25,5.26-.59,7.85-.87"/><path class="b" d="M8.39,155.31c7.83.75,15.71-.07,23.54-.51,2.9-.25,5.86-.66,8.72-1.2,3.47-.39,7-.8,10.46-1.22,3.16-.45,6.41-.34,9.59-.35,4.63,0,9.32,0,13.95,0,8.71.06,17.46-.26,26.15.46,1.4.05,2.96.04,4.36-.03,1.15-.2,2.43.14,3.49.6,3.95,1.48,8.1,2.49,12.2,3.43,5.15,1.23,10.41,2.19,15.69,2.61,2.59.31,5.26-.32,7.85-.43,3.46-.27,7-.36,10.46-.46,6.1-.19,12.24.03,18.31.72,3.47.5,7-.47,10.46-.74"/><path class="b" d="M8.39,153.86c10.17-.13,20.42.42,30.51-1.05,4.41-.49,8.7-1.87,13.08-2.51,6.67-.04,13.38,0,20.05-.01,5.22,0,10.48,0,15.69,0,4.06-.03,8.17-.05,12.2.43,1.99.15,4.11.2,6.1.09,1.1,0,2.46-.4,3.49.14,3.93,1.59,8.08,2.76,12.2,3.74,5.14,1.3,10.4,2.29,15.69,2.75,2.29.18,4.68-.4,6.97-.48,3.75-.28,7.57-.43,11.33-.53,6.1-.15,12.25.19,18.31.91,3.18.09,6.42-.68,9.59-.97"/><path class="b" d="M8.39,152.44c10.46-.1,20.99.37,31.38-.99,4.72-.5,9.34-1.73,13.95-2.78,5.49-.32,11.06-.03,16.56-.13,4.05-.02,8.16,0,12.2.13,4.34-.12,8.73-.19,13.08-.12,3.17.27,6.4.81,9.59.73,1.09-.01,2.4-.09,3.49-.21.8-.09,1.87-.35,2.62.08,8.34,3.34,17.22,5.55,26.15,6.54,2.29.25,4.68-.31,6.97-.41,3.75-.27,7.57-.51,11.33-.58,5.81-.13,11.66.19,17.44.88,1.39.23,2.97-.09,4.36-.23,1.99-.27,4.13-.45,6.1-.86"/><path class="b" d="M8.39,150.95c11.04-.07,22.15.33,33.13-1.08,2.9-.36,5.87-.84,8.72-1.53,2-.46,4.07-1.16,6.1-1.48,4.04-.14,8.16-.01,12.2-.05,2,.01,4.11-.02,6.1.02,2.29.32,4.65.92,6.97.96,3.8.27,7.57-.69,11.33-.98,3.8-.21,7.55.94,11.33,1,1.7.05,3.54-.05,5.23-.27,1.1-.08,2.42-.62,3.49-.19,4.21,1.83,8.64,3.24,13.08,4.39,3.99,1.05,8.09,1.96,12.2,2.27,2,.17,4.11-.28,6.1-.37,3.75-.29,7.57-.57,11.33-.62,5.81-.13,11.66.24,17.44.93,3.48-.09,7.06-.62,10.46-1.36"/><path class="b" d="M8.39,149.39c11.62-.06,23.31.28,34.87-1.2,4.74-.47,9.36-1.78,13.95-2.98,3.44-.38,7-.06,10.46-.16,1.7.03,3.55-.12,5.23.2,2.01.39,4.07,1.1,6.1,1.34,4.93.62,10.01.19,14.82-1.04.43-.11,1.31-.31,1.74-.4,1.12,0,2.4.37,3.49.57,1.97.41,4.09.68,6.1.7,2.01.03,4.13-.17,6.1-.53,1.41-.23,3.02-.89,4.36-.07,3.92,1.76,8.07,3.12,12.2,4.27,3.69,1.04,7.49,1.96,11.33,2.17,5.5-.07,11.04-.97,16.56-.93,5.52-.12,11.08.24,16.56.84,1.4.13,2.97-.17,4.36-.28,2.33-.19,4.73-.6,6.97-1.28"/><path class="b" d="M8.39,147.79c11.91-.05,23.89.22,35.74-1.24,4.75-.47,9.37-1.79,13.95-3.05,2.85-.41,5.84-.09,8.72-.19,4.18-.24,8.11,1.67,12.2,2.15,6.09.64,12.43.36,18.31-1.44,3.97.97,8.12,1.52,12.2.9,2.03-.26,4.13-.77,6.1-1.31,1.19-.26,2.42.63,3.49,1.03,3.37,1.51,6.93,2.75,10.46,3.82,3.09,1.04,6.32,1.85,9.59,2.02,2.29.27,4.69-.12,6.97-.25,3.16-.28,6.41-.45,9.59-.5,5.23-.12,10.49.24,15.69.74,4.08,0,8.28-.51,12.2-1.65"/><path class="b" d="M8.39,146.15c12.21-.04,24.47.16,36.61-1.3,4.76-.46,9.36-1.9,13.95-3.15,2.56-.26,5.27-.14,7.85-.07,3.52.47,6.97,1.63,10.46,2.27,3.43.57,6.99.65,10.46.61,3.79-.07,7.66-.31,11.33-1.3,2.81.75,5.83.92,8.72.71,3.26-.22,6.51-1.07,9.59-2.12,1.8-.59,3.6.87,5.23,1.48,2.53,1.17,5.22,2.23,7.85,3.17.71.48,1.79.99,2.62,1.24,2.81.78,5.82.96,8.72,1.18,4.63-.18,9.31-.68,13.95-.72,5.23-.14,10.48.31,15.69.67,4.09-.22,8.25-.63,12.2-1.75"/><path class="b" d="M8.39,144.49c12.21-.03,24.47.09,36.61-1.28,4.76-.46,9.38-1.83,13.95-3.18,3.16-.49,6.49-.17,9.59.58,2.87.65,5.82,1.38,8.72,1.89,2.86.44,5.83.59,8.72.68,4.34.05,8.78.34,13.08-.39,1.38-.46,2.95,0,4.36.06,2,.12,4.12.02,6.1-.24,2.34-.32,4.76-.85,6.97-1.69,1.08-.39,2.32-1.08,3.49-1.1,1.86-.2,3.63.41,5.23,1.32,1.09.55,2.39,1.21,3.49,1.75.92,1.04,2.15,2.22,3.49,2.7,2.48.92,5.24,1.08,7.85,1.33,4.92.49,9.89-.28,14.82-.32,5.22-.19,10.48.28,15.69.49,4.38-.19,8.82-.71,13.08-1.79"/><path class="b" d="M8.39,142.8c9.29-.03,18.62.03,27.9-.57,7.06-.41,14.22-1.05,20.92-3.45,2.78-1.09,5.87-.71,8.72-.09,2.59.53,5.25,1.17,7.85,1.67,3.99.89,8.13,1.18,12.2,1.39,3.46.16,6.99.47,10.46.48,1.71-.02,3.55-.17,5.23-.5,2.88.18,5.86.14,8.72-.32,2.03-.31,4.17-.77,6.1-1.48,1.45-.47,2.87-1.53,4.36-1.85,1.99,0,4.11,0,6.1,0,.9,1.14,1.67,3,2.62,4.1,1.97,2.13,5.12,2.42,7.85,2.71,5.78.7,11.63.36,17.44.17,4.93-.2,9.9.28,14.82.32,4.66-.22,9.4-.77,13.95-1.84"/><path class="b" d="M8.39,141.09c9.29-.02,18.62,0,27.9-.61,6.76-.4,13.63-.9,20.05-3.22,1.07-.36,2.36-.79,3.49-.91,1.72.02,3.55.41,5.23.74,3.17.65,6.4,1.35,9.59,1.91,6.03,1.12,12.23,1.19,18.31,1.92,3.45.35,7.02.39,10.46-.11,2.59.07,5.28-.15,7.85-.56,3.35-.52,6.83-1.37,9.59-3.43.65-.56,1.81-.52,2.62-.49,1.09,0,2.4,0,3.49,0,.86,1.27,1.6,3.26,2.62,4.41,2.02,2.04,5.15,2.19,7.85,2.45,4.92.42,9.89.49,14.82.34,5.22-.06,10.48.1,15.69.17,5.24-.36,10.57-.76,15.69-1.95"/><path class="b" d="M8.39,139.37c12.21.01,24.46-.15,36.61-1.36,3.54-.39,7.1-1.15,10.46-2.33,1.08-.37,2.36-.82,3.49-1.02,1.72.03,3.54.48,5.23.78,7.47,1.61,15.05,2.77,22.67,3.39,6.05.79,12.2,1.71,18.31.95,4.09-.16,8.27-.63,12.2-1.78,1.53-.39,2.95-1.42,4.36-2.07.77-.05,1.85-.02,2.62.11,1.16.19,2.47.7,3.49,1.3.77.84,1.63,2.21,2.62,2.82,2.36,1.26,5.23,1.26,7.85,1.45,3.17.14,6.42.27,9.59.35,5.8-.16,11.64.12,17.44.06,6.11-.38,12.32-.69,18.31-2.03"/><path class="b" d="M8.39,137.63c9.3.02,18.62-.12,27.9-.75,4.35-.29,8.79-.5,13.08-1.38,2.97-.54,5.81-1.82,8.72-2.56,4.09.3,8.15,1.48,12.2,2.09,4.89.92,9.88,1.47,14.82,2.03,3.19.36,6.4,1.06,9.59,1.41,4.03.44,8.16.5,12.2.18,5.24-.21,10.43-1.79,15.69-1.27,4.42.41,8.62,2.36,13.08,2.51,6.96.37,13.96.36,20.92.43,4.93.11,9.91-.12,14.82-.52,4.07-.35,8.22-.65,12.2-1.59"/><path class="b" d="M8.39,135.88c9.01.04,18.04-.18,27.02-.8,6.77-.39,13.7-.77,20.05-3.38,1.94-.92,4.1-.26,6.1.09,2.58.49,5.26.99,7.85,1.43,6.34,1.19,12.83,1.64,19.18,2.8,5.71,1.24,11.6,1.68,17.44,1.5,4.64-.12,9.3-.75,13.95-.68,6.7.12,13.33,1.75,20.05,1.62,14.52.2,29.25.69,43.59-2.03"/><path class="b" d="M8.39,134.12c8.72.05,17.46-.23,26.15-.86,6.76-.43,13.71-.68,20.05-3.34,1.36-.61,2.93-.58,4.36-.25,1.4.25,2.96.55,4.36.8,4.04.73,8.14,1.41,12.2,1.98,3.46.49,7.02.85,10.46,1.5,4.02.84,8.09,1.76,12.2,2,8.41.73,16.86-.44,25.28-.07,5.22.24,10.47.7,15.69.94,4.34.09,8.74.05,13.08.06,5.81.07,11.65-.07,17.44-.56,4.65-.38,9.38-.65,13.95-1.66"/><path class="b" d="M8.39,132.35c8.43.07,16.88-.3,25.28-.95,4.35-.35,8.78-.46,13.08-1.25,2.68-.44,5.28-1.49,7.85-2.34,1.99-.49,4.13.19,6.1.49,2.58.48,5.25.94,7.85,1.35,6.07,1.05,12.29,1.49,18.31,2.86,13.07,3.73,26.74,1.53,40.1,2.09,7.25.22,14.53.67,21.79.55,4.92-.06,9.9.16,14.82-.17,3.76-.26,7.58-.53,11.33-.86,2.9-.3,5.95-.44,8.72-1.44"/><path class="b" d="M8.39,130.57c11.64.11,23.28-.9,34.87-1.95,2.33-.28,4.75-.77,6.97-1.53,1.66-.57,3.43-1.37,5.23-1.22,2.32.02,4.69.65,6.97,1.01,3.45.61,6.99,1.14,10.46,1.64,3.76.53,7.61.93,11.33,1.73,2.9.62,5.79,1.6,8.72,2.07,6.61,1.1,13.38.92,20.05.85,6.96-.17,13.96-.19,20.92,0,6.09.21,12.22.28,18.31.24,4.93.01,9.91.1,14.82-.42,5.54-.51,11.27-.47,16.56-2.39"/><path class="b" d="M8.39,128.78c7.86.11,15.72-.46,23.54-1.24,4.05-.41,8.18-.53,12.2-1.18,2.67-.36,5.27-1.36,7.85-2.12,1.09-.19,2.39-.09,3.49-.11,3.21.09,6.41.99,9.59,1.41,4.62.75,9.31,1.34,13.95,1.98,5.05.57,9.81,2.62,14.82,3.39,4.89.88,9.89.16,14.82.35,10.74.2,21.51.11,32.25.3,4.34.12,8.74.08,13.08.09,4.35.03,8.75.02,13.08-.39,5.57-.41,11.3-.89,16.56-2.87"/><path class="b" d="M8.39,126.99c7.58.12,15.15-.57,22.67-1.45,3.75-.44,7.59-.61,11.33-1.17,2.66-.32,5.27-1.23,7.85-1.91,1.69-.17,3.53-.05,5.23-.08,3.5.09,6.99,1.06,10.46,1.48,4.62.73,9.33,1.22,13.95,1.94,4.76.68,9.19,2.87,13.95,3.54,1.99.4,4.1.29,6.1.11,1.99-.12,4.11-.17,6.1-.18,10.45.07,20.93.15,31.38.3,9.29.31,18.61.6,27.9-.02,6.13-.42,12.38-1.05,18.31-2.71"/><path class="b" d="M8.39,125.18c6.71.09,13.42-.52,20.05-1.48,4.04-.59,8.17-.87,12.2-1.44,2.64-.3,5.24-1.19,7.85-1.62,2.29-.02,4.68,0,6.97,0,3.5.03,6.99,1.01,10.46,1.39,4.62.71,9.33,1.14,13.95,1.89,4.78.73,9.14,3.22,13.95,3.83,1.4.29,2.96.04,4.36-.09,2.28-.2,4.68-.33,6.97-.37,10.45-.06,20.93.13,31.38.33,6.97.18,13.95.8,20.92.46,4.35-.09,8.74-.46,13.08-.87,4.36-.43,8.81-.77,13.08-1.78"/><path class="b" d="M8.39,123.37c7.32.13,14.6-.93,21.79-2.15,4.34-.67,8.78-1.04,13.08-1.95,1.97-.49,4.1-.36,6.1-.37,2.59.01,5.26-.03,7.85.02,4.34.58,8.72,1.35,13.08,1.84,3.46.48,7.04.71,10.46,1.44,2.41.45,4.7,1.59,6.97,2.45,2.21.77,4.62,1.41,6.97,1.49,8.95-1.21,18.02-.88,27.02-.77,6.09.11,12.22.2,18.31.46,3.76.14,7.57.6,11.33.56,5.23.09,10.48-.4,15.69-.74,5.52-.43,11.11-.67,16.56-1.69"/><path class="b" d="M8.39,121.54c4.06-.02,8.19-.27,12.2-.9,5.5-.99,11.01-2.2,16.56-2.91,3.72-.75,7.56-.56,11.33-.57,3.75.11,7.62-.3,11.33.33,4.03.66,8.15,1.13,12.2,1.59,2.28.37,4.77.3,6.97,1.02,2.9.92,5.84,2.01,8.72,3.02,2.51.74,5.23,1.58,7.85,1.04,9.53-1.28,19.18-.96,28.77-.75,5.22.13,10.48.24,15.69.51,4.34.27,8.72.68,13.08.68,4.93-.11,9.9-.57,14.82-.82,5.22-.34,10.51-.55,15.69-1.33"/><path class="b" d="M8.39,119.69c4.07-.06,8.21-.39,12.2-1.18,3.77-.74,7.51-2.02,11.33-2.46,2.6-.07,5.26-.43,7.85-.63,3.17-.03,6.42,0,9.59-.01,2.88.03,5.84-.06,8.72.04,2,.24,4.1.63,6.1.87,3.16.41,6.42.71,9.59,1.04,2.02.45,4.1,1.22,6.1,1.75,4.06,1.1,8.03,2.79,12.2,3.41,1.39.28,2.96-.21,4.36-.32,10.11-1.36,20.34-1.06,30.51-.71,4.34.14,8.74.26,13.08.52,4.34.31,8.72.7,13.08.74,4.34.04,8.74-.46,13.08-.62,5.8-.33,11.66-.51,17.44-1.19"/><path class="b" d="M8.39,117.81c3.78-.11,7.63-.5,11.33-1.32,2.61-.48,5.16-1.85,7.85-1.75,3.17-.11,6.43,0,9.59-.35,1.71-.14,3.52-.55,5.23-.72,1.1,0,2.39,0,3.49,0,4.05.02,8.16-.04,12.2.03,1.71.18,3.53.52,5.23.73,2.28.31,4.69.49,6.97.76,1.72.4,3.55.9,5.23,1.43,3.75,1.04,7.61,1.94,11.33,3.08,1.67.48,3.51.89,5.23,1.13,1.71,0,3.53-.43,5.23-.59,4.9-.59,9.89-.91,14.82-1.17,4.63.02,9.32.22,13.95.37,4.63.17,9.32.29,13.95.58,4.34.34,8.72.75,13.08.86,4.34.19,8.74-.36,13.08-.49,5.8-.3,11.65-.47,17.44-.99"/><path class="b" d="M8.39,115.9c5.04-.21,10.06-1.14,14.82-2.79,4.34-.03,8.74.31,13.08.15,2.66,0,5.3-.65,7.85-1.34,3.19-.08,6.44-.07,9.59.53,4.33.49,8.76.35,13.08,1,4.43.56,8.72,1.99,13.08,2.9,4.07.82,8.07,2.25,12.2,2.73,1.99-.28,4.1-.59,6.1-.83,5.2-.61,10.47-.96,15.69-1.31,4.05.08,8.16.25,12.2.41,4.34.19,8.74.3,13.08.55,4.92.46,9.88.98,14.82,1.12,4.05.24,8.16-.25,12.2-.37,5.8-.27,11.64-.44,17.44-.8"/><path class="b" d="M8.39,113.95c2.91-.24,5.89-.68,8.72-1.38,2.01-.43,4-1.58,6.1-1.19,4.06.14,8.15.64,12.2.73,3.27.2,6.63-.15,9.59-1.64,6.51,3.36,13.96,1.17,20.92,1.9,4.12.31,8.2,1.29,12.2,2.29,4.38.71,8.7,2,13.08,2.66,2.89-.2,5.83-.82,8.72-1.08,4.91-.55,9.89-.89,14.82-1.28,3.46-.14,7,.23,10.46.32,4.05.19,8.16.32,12.2.49,5.78.67,11.62,1.2,17.44,1.48,4.05.29,8.15-.14,12.2-.27,5.51-.23,11.06-.38,16.56-.58"/><path class="b" d="M8.39,111.91c2.61-.3,5.3-.78,7.85-1.47,1.42-.27,2.9-1.19,4.36-1.06,4.65.3,9.3,1.09,13.95,1.47,2.87.24,5.94.59,8.72-.39,6.79,3.45,14.58.43,21.79.82,4.71.07,9.38,1.08,13.95,2.14,3.48.57,7,1.33,10.46,1.97,1.41.36,2.96.02,4.36-.18,2.29-.33,4.68-.65,6.97-.9,5.2-.56,10.47-.97,15.69-1.34,2.58-.22,5.26.13,7.85.2,3.75.24,7.59.23,11.33.51,6.94.87,13.94,1.4,20.92,1.77,3.76.33,7.58,0,11.33-.12,5.21-.18,10.48-.32,15.69-.37"/><path class="b" d="M8.39,109.8c2.32-.35,4.72-.86,6.97-1.5.8-.22,1.83-.55,2.62-.8,1.4-.23,2.97,0,4.36.2,6.37.86,12.72,2.58,19.18,2.47,3.51,1.62,7.56,1.48,11.33,1.17,3.47-.32,6.98-.92,10.46-1.1,3.48-.19,7.03.11,10.46.68,5.5,1.03,11.03,2.11,16.56,2.95,3.17-.44,6.41-.95,9.59-1.31,7.52-.75,15.11-1.66,22.67-1.59,3.17.22,6.42.26,9.59.5,5.21.58,10.46,1.18,15.69,1.54,5.21.37,10.47.64,15.69.87,6.67-.22,13.38-.41,20.05-.34"/><path class="b" d="M8.39,107.6c2.02-.38,4.13-.89,6.1-1.45.79-.22,1.83-.53,2.62-.76,1.1-.06,2.39.01,3.49.14,6.11,1.08,12.13,2.95,18.31,3.66,2.79.95,5.76,1.51,8.72,1.42,7.86-.05,15.65-2.37,23.54-1.4,6.13.64,12.19,2.07,18.31,2.87,2.6-.13,5.25-.76,7.85-1.04,8.66-1.07,17.42-1.94,26.15-1.91,6.12.08,12.22,1.03,18.31,1.55,8.69.79,17.44,1.15,26.15,1.45,5.21-.02,10.48-.14,15.69,0"/><path class="b" d="M8.39,105.32c3.75-.72,7.45-2.49,11.33-1.87,2.06.22,4.15.94,6.1,1.61,2.58.71,5.26,1.44,7.85,2.13,1.09.29,2.39.56,3.49.83,1.89.83,4.06,1.19,6.1,1.34,8.77.74,17.4-1.97,26.15-1.58,4.67.19,9.34.98,13.95,1.74,1.98.38,4.1.67,6.1.89,1.7-.25,3.53-.56,5.23-.81,9.23-1.32,18.57-2.25,27.9-2.25,6.7.06,13.38,1.06,20.05,1.59,13.62,1.11,27.32,1.33,40.97,1.67"/><path class="b" d="M8.39,103.01c2.28-.53,4.64-1.24,6.97-1.52,1.99-.02,4.15-.18,6.1.28,3.76,1.35,7.53,2.87,11.33,4.1,1.14.3,2.39.88,3.49,1.28,1.65.52,3.51.77,5.23.9,4.63.3,9.34.02,13.95-.49,4.9-.58,9.87-1.32,14.82-1.07,6.14.25,12.24,1.27,18.31,2.19,2.01-.01,4.11-.61,6.1-.85,2.87-.45,5.83-.83,8.72-1.14,6.93-.73,13.95-1.25,20.92-1.03,7.27.28,14.53,1.31,21.79,1.76,12.47.91,25,.8,37.49,1.18"/><path class="b" d="M8.39,100.72c2.83-.75,5.79-1.15,8.72-1.01,1.7.09,3.62-.28,5.23.39,3.79,1.72,7.57,3.66,11.33,5.44,2.48.89,5.23,1.07,7.85,1.17,4.64.14,9.33-.06,13.95-.53,5.78-.65,11.61-1.38,17.44-.95,3.47.21,7.01.58,10.46,1,2,.17,4.1.76,6.1.64,6.65-1.01,13.33-2.15,20.05-2.58,5.49-.43,11.06-.59,16.56-.31,6.97.4,13.95,1.25,20.92,1.67,12.18.89,24.42.55,36.61.75"/><path class="b" d="M8.39,98.54c4.28-.93,8.73-.47,13.08-.57,1.27-.05,2.49.84,3.49,1.52,1.1.78,2.4,1.69,3.49,2.49,2.85,3.1,7.43,3.09,11.33,3.25,5.22.12,10.49,0,15.69-.45,6.36-.64,12.78-1.34,19.18-.84,2.88.18,5.84.41,8.72.71,1.99.13,4.11.68,6.1.41,7.53-1.05,15.05-2.43,22.67-2.75,11.94-.83,23.84.89,35.74,1.59,7.24.45,14.54.56,21.79.49,4.63,0,9.32-.34,13.95-.17"/><path class="b" d="M8.39,96.38c4.33-.34,8.74-.07,13.08-.16,2.13-.35,3.57,1.74,4.36,3.41.99,1.54,2.56,2.85,4.36,3.29,3.1.79,6.41.68,9.59.75,8.44.16,16.88-.38,25.28-1.12,6.09-.37,12.23.05,18.31.52,1.4.11,2.96.29,4.36.35,3.19-.31,6.42-.92,9.59-1.34,5.46-.92,11.03-1.48,16.56-1.68,11.94-.47,23.84,1.19,35.74,1.77,6.96.36,13.96.42,20.92.25,4.34-.04,8.73-.55,13.08-.37"/><path class="b" d="M8.39,94.48c2.88,0,5.84,0,8.72,0,1.69.1,3.6-.26,5.23.25.98,2.6,2.19,5.94,5.23,6.64,3.97.92,8.16.52,12.2.63,5.22,0,10.48.04,15.69-.2,4.34-.18,8.73-.64,13.08-.72,4.05-.05,8.16.1,12.2.32,2.29.05,4.69.49,6.97.23,9.84-1.35,19.66-3.27,29.64-3.07,11.93.06,23.82,1.56,35.74,1.96,6.38.22,12.8.2,19.18-.08,3.76-.1,7.57-.66,11.33-.48"/><path class="b" d="M8.39,92.74h11.33c.93.46,1.43,2.78,1.74,3.63.27.8,1.13,2.08,1.74,2.62,1.73,1.25,4.06,1.21,6.1,1.26,2.59,0,5.26-.1,7.85-.04,6.38.07,12.8.09,19.18-.02,3.76-.09,7.57-.45,11.33-.48,3.76-.04,7.58.08,11.33.18,2.59.04,5.27.39,7.85.02,4.08-.42,8.15-1.31,12.2-1.89,6.05-.85,12.19-1.36,18.31-1.23,12.51.24,24.98,1.66,37.49,1.96,5.8.14,11.64.08,17.44-.23,3.76-.11,7.57-.77,11.33-.62"/><path class="b" d="M8.39,90.99c1.99,0,4.11,0,6.1,0,1.1.04,2.42-.13,3.49.19,1.09,3.42,1.56,7.48,6.1,7.31,3.76.07,7.57-.43,11.33-.22,10.74.47,21.51.23,32.26-.09,6.09-.11,12.24.73,18.31-.05,4.67-.52,9.3-1.58,13.95-2.25,5.76-.74,11.62-1.07,17.44-.89,13.37.45,26.72,1.81,40.1,1.98,5.51.06,11.07-.08,16.56-.45,3.18-.13,6.41-.74,9.59-.62"/><path class="b" d="M8.39,89.25c1.4,0,2.96,0,4.36,0,.82,0,1.9-.1,2.62.4,1.1,3.3,1.56,7.68,6.1,7.13,1.71.05,3.53-.33,5.23-.45,1.99-.16,4.11-.17,6.1-.11,4.05.11,8.15.49,12.2.55,7.84.09,15.7-.11,23.54-.2,6.1.05,12.27.63,18.31-.56,4.65-.69,9.29-1.74,13.95-2.36,5.48-.61,11.06-.69,16.56-.46,13.94.67,27.88,1.91,41.84,1.96,5.22,0,10.49-.18,15.69-.56,2.88-.13,5.83-.7,8.72-.65"/><path class="b" d="M8.39,87.51h3.49c1.92,2.18,1.72,6.98,5.23,7.5,2.04.2,4.11-.28,6.1-.62,2.57-.34,5.26-.33,7.85-.24,5.22.18,10.47.77,15.69.87,8.42.12,16.86-.21,25.28-.06,3.17,0,6.43-.02,9.59-.32,5.23-.81,10.45-2.02,15.69-2.78,6.32-1.1,12.8-.85,19.18-.54,14.51.91,29.04,2.02,43.59,2.02,7.86.03,15.72-.65,23.54-1.3"/><path class="b" d="M8.39,85.76l.87.06c1.71,3.06,2.37,8.15,6.97,7.46,2.3-.31,4.62-1.2,6.97-1.21,4.64-.23,9.33.17,13.95.5,8.4.8,16.85.79,25.28.64,6.38-.19,12.85.03,19.18-.91,1.45-.26,3.04-.71,4.36-1.37,1.38-.39,2.95-.65,4.36-.89,4.31-.67,8.71-1.2,13.08-1.3,4.06-.01,8.16.33,12.2.63,22.59,1.8,45.4,3.32,68,.82"/><path class="b" d="M8.39,87.58c2.71,5.97,5.54,3.67,10.46,2.64,3.15-.48,6.42-.26,9.59-.13,8.42.4,16.84,1.51,25.28,1.34,5.8-.06,11.64-.17,17.44-.39,6.37-.27,13.54-.45,18.31-5.29,4.92-.16,9.91.12,14.82.35,7.26.71,14.51,1.8,21.79,2.29,19.13,1.4,38.42,2,57.54.06"/><path class="b" d="M8.39,88.89c2.47,2.01,5.24-.04,7.85-.56,2.84-.61,5.84-.45,8.72-.32,7.55.37,15.12,1.05,22.67,1.44,5.21.14,10.48-.02,15.69-.13,6.97-.35,14.32.11,20.92-2.51,2.25-.93,4.19-2.62,6.1-4.08,1.25-.79,2.96-.37,4.36-.47,3.8-.11,7.61.63,11.33,1.27,12.3,2.77,24.91,3.69,37.49,4.07,13.36.48,26.78.42,40.1-.84"/><path class="b" d="M8.39,87.97c1.17.25,2.42-.37,3.49-.77,1.64-.63,3.48-1.05,5.23-1.18,6.68-.29,13.38.61,20.05.9,11.89.88,23.85.76,35.74.07,4.15-.32,8.48-.87,12.2-2.85,1.16-.62,2.44-1.51,3.49-2.3.95-.79,2.21-1.49,3.49-1.31,4.05,0,8.16-.02,12.2.01,3.56.31,6.98,1.76,10.46,2.5,4.28,1.01,8.7,1.53,13.08,1.9,18.54,1.44,37.25,1.65,55.79.15"/><path class="b" d="M8.39,86.06c4.41-2.02,9.18-2.29,13.95-1.88,4.05.25,8.15.51,12.2.74,12.47.77,25.01.98,37.49.19,4.14-.31,8.43-.87,12.2-2.69,1.49-.72,3.01-1.77,4.36-2.72.96-.79,2.28-1.03,3.49-.91,4.34,0,8.74,0,13.08,0,1.09.01,2.4-.04,3.49.06,1.76.3,3.54,1.06,5.23,1.6,3.09,1.03,6.36,1.75,9.59,2.18,9.53,1.19,19.17,1.49,28.77,1.66,10.46.11,20.96-.01,31.38-.86"/><path class="b" d="M8.39,83.69c4.12-1.69,8.71-1.62,13.08-1.36,4.05.26,8.15.51,12.2.71,8.7.4,17.44.73,26.15.62,5.51-.1,11.1-.16,16.56-.97,2.68-.42,5.42-1.15,7.85-2.37,1.79-.86,3.45-2.25,5.23-3.13,2.26-.35,4.69-.07,6.97-.15,3.76,0,7.58,0,11.33,0,1.09.01,2.4-.03,3.49.05,1.76.38,3.53,1.25,5.23,1.82,2.79.99,5.78,1.63,8.72,2.03,10.11,1.24,20.34,1.48,30.51,1.59,9.29,0,18.63-.05,27.9-.78"/><path class="b" d="M8.39,81.45c5.64-1.73,11.65-.88,17.44-.61,6.67.38,13.37.66,20.05.71,6.37.32,12.8.32,19.18.15,6.46-.28,13.3-.41,19.18-3.42,2.14-1.22,4.64-1.99,6.97-2.76,1.66-.39,3.53-.15,5.23-.21,4.63,0,9.32,0,13.95,0,1.09.03,2.41-.1,3.49.15,1.43.45,2.95,1.18,4.36,1.7,2.78,1.05,5.78,1.7,8.72,2.09,10.11,1.2,20.34,1.43,30.51,1.5,8.71-.01,17.46-.02,26.15-.68"/><path class="b" d="M8.39,79.37c4.55-1.07,9.32-.75,13.95-.49,4.63.28,9.31.49,13.95.62,12.77.1,25.63,1.2,38.36-.36,2.66-.34,5.34-1.06,7.85-1.99,2.02-.42,4.13-.98,6.1-1.59,2.84-.85,5.68-2.28,8.72-2.01,5.22,0,10.48,0,15.69,0,2.86-.36,5.26,1.31,7.85,2.2,2.78,1,5.79,1.56,8.72,1.9,10.12,1.08,20.34,1.3,30.51,1.32,7.84-.01,15.72,0,23.54-.58"/><path class="b" d="M8.39,77.41c4.88-.86,9.91-.49,14.82-.23,4.92.27,9.89.45,14.82.53,10.45,0,20.93.89,31.38.11,3.51-.23,7.08-.71,10.46-1.69,4.41-.58,8.84-1.5,13.08-2.87,1.39-.44,2.93-1,4.36-1.32,1.98-.27,4.11-.07,6.1-.13,4.05,0,8.16,0,12.2,0,1.51-.16,3.04.51,4.36,1.15,1.64.75,3.48,1.43,5.23,1.89,4.54,1.16,9.3,1.39,13.95,1.73,7.82.51,15.7.61,23.54.61,6.96.02,13.97,0,20.92-.49"/><path class="b" d="M8.39,75.53c6.64-.89,13.39-.06,20.05.12,6.67.34,13.39.05,20.05.44,10.18.43,20.48.51,30.51-1.43,5.89-.55,11.81-1.56,17.44-3.44,1.38-.43,2.91-1.01,4.36-1.15,1.7-.01,3.53,0,5.23,0,4.05,0,8.16,0,12.2,0,1.52.03,2.99.98,4.36,1.53,1.64.72,3.49,1.33,5.23,1.73,6.28,1.32,12.79,1.45,19.18,1.79,12.19.33,24.43.59,36.61-.13"/><path class="b" d="M8.39,73.7c6.95-.74,13.96.05,20.92.19,4.92.15,9.9.2,14.82.14,5.21.35,10.47.52,15.69.5,3.76-.02,7.59-.16,11.33-.55,2.01-.15,4.09-.69,6.1-.8,7.36-.43,14.79-1.39,21.79-3.78,1.08-.35,2.37-.79,3.49-1.01,1.99-.19,4.11-.04,6.1-.09,4.05.05,8.16-.1,12.2.06,2.89,1.01,5.67,2.62,8.72,3.2,6.57,1.4,13.37,1.45,20.05,1.78,11.32.25,22.69.58,34-.09"/><path class="b" d="M8.39,71.88c5.5-.47,11.06-.11,16.56.09,5.5.2,11.06.3,16.56.27,10.15.29,20.38,1.11,30.51-.18,4.31-.67,8.75-.43,13.08-.97,5.93-.54,11.82-1.8,17.44-3.77,2.75-1.11,5.82-.66,8.72-.74,3.76.03,7.58-.05,11.33.03,1.47.37,2.96,1.23,4.36,1.8,1.64.69,3.49,1.24,5.23,1.62,6.01,1.18,12.21,1.2,18.31,1.51,11.03.25,22.1.64,33.13.02"/><path class="b" d="M8.39,70.07c5.5-.36,11.06-.06,16.56.13,5.8.19,11.64.28,17.44.24,10.15.59,20.4,1.06,30.51-.32,10.59.03,21.36-.7,31.38-4.35,2.79-1.21,5.77-.93,8.72-.94,3.76,0,7.58-.01,11.33,0,1.5.27,2.97,1.18,4.36,1.76,1.35.59,2.93,1.12,4.36,1.49,5.97,1.39,12.22,1.28,18.31,1.62,10.74.24,21.52.7,32.26.12"/><path class="b" d="M8.39,68.26c6.38-.29,12.8.08,19.18.24,5.21.2,10.48.06,15.69.27,6.08.38,12.21.66,18.31.46,3.77-.01,7.58-.62,11.33-.68,11.18.37,22.55-.47,33.13-4.33,1.08-.36,2.37-.81,3.49-1.04,1.69-.16,3.53-.05,5.23-.08,3.76,0,7.58,0,11.33,0,1.19.06,2.43.79,3.49,1.29,1.64.8,3.47,1.55,5.23,2.02,5.68,1.33,11.64,1.15,17.44,1.49,10.45.23,20.94.75,31.38.22"/><path class="b" d="M8.39,66.47c11.04-.19,22.09.4,33.13.53,9.86.75,19.78.64,29.64,0,7.25.42,14.59.38,21.79-.57,4.74-.66,9.42-1.98,13.95-3.5,1.69-.54,3.48-1.28,5.23-1.55,1.09-.03,2.4-.02,3.49-.02,3.76,0,7.58,0,11.33,0,2.58-.3,4.69,1.64,6.97,2.51,2.72,1.22,5.78,1.57,8.72,1.75,6.95.44,13.96.57,20.92.73,6.67.21,13.38.37,20.05.12"/><path class="b" d="M8.39,64.68c9.88-.18,19.77.35,29.64.47,10.15.64,20.35.87,30.51.34,11.93.74,24.27,1.16,35.74-2.78,3.19-.94,6.36-2.22,9.59-3.03,4.33-.21,8.74-.02,13.08-.08,1.4.08,3.05-.26,4.36.33,2.67,1.67,5.51,3.43,8.72,3.74,7.22.75,14.54.63,21.79.87,7.25.19,14.54.54,21.79.28"/><path class="b" d="M8.39,62.9c11.62-.09,23.27.22,34.87.92,7.55.08,15.12.38,22.67.24,10.15.63,20.43,1.35,30.51-.46,6.91-1.03,13.29-4.19,20.05-5.73,3.17-.03,6.42,0,9.59-.01,1.69.13,3.66-.35,5.23.38,2.65,1.77,5.48,3.64,8.72,4.06,6.93.67,13.96.36,20.92.56,7.54.12,15.12.55,22.67.31"/><path class="b" d="M8.39,61.11c10.46-.15,20.94.23,31.38.91,6.97.07,13.96.34,20.92.49,3.48-.05,6.99.58,10.46.72,7.83.35,15.74.38,23.54-.51,7.86-.84,15.1-4.31,22.67-6.37,2.83-.52,5.85-.12,8.72-.24,1.69.13,3.66-.35,5.23.39,2.89,2.02,5.97,4.17,9.59,4.5,6.95.47,13.96.05,20.92.2,7.25.08,14.54.51,21.79.32"/><path class="b" d="M8.39,59.31c9.89-.24,19.77.48,29.64.99,7.55.05,15.13.31,22.67.73,2.02.06,4.09.71,6.1.79,6.1.27,12.22-.26,18.31-.49,3.47-.17,7.01.46,10.46.1,5.13-.44,10.04-2.26,14.82-4.06,2.83-1.06,5.84-1.83,8.72-2.72,2.23-.56,4.69-.18,6.97-.29,1.69.12,3.64-.32,5.23.34,2.93,2.05,5.93,4.37,9.59,4.87,2.87.32,5.84.19,8.72.11,4.05-.07,8.16-.13,12.2-.15,7.26,0,14.54.49,21.79.32"/><path class="b" d="M8.39,57.5c7.56-.17,15.12.47,22.67.83,6.08.41,12.22.28,18.31.51,4.05.27,8.2.36,12.2,1.04,1.38.33,2.95.27,4.36.27,1.7-.02,3.53.05,5.23-.05,5.5-.54,11.02-1.4,16.56-1.1,2.3.08,4.69.28,6.97.52,1.09.11,2.39.3,3.49.35,1.1-.12,2.41-.34,3.49-.6,5.65-1.44,10.86-4.32,16.56-5.59,1.09-.3,2.38-.76,3.49-1.02,1.99-.1,4.11-.02,6.1-.04,3.14-.13,3.63.04,6.1,2.08,2.48,1.94,5.53,3.45,8.72,3.58,6.96.16,13.96-.47,20.92-.42,6.67,0,13.38.46,20.05.32"/><path class="b" d="M8.39,55.69c3.48-.08,7,.14,10.46.41,4.92.25,9.89.54,14.82.73,9.02.23,18.1.13,27.02,1.57,2.58-.04,5.27.11,7.85-.08,4.85-1.05,9.84-1.94,14.82-1.84,3.77.06,7.59.39,11.33.85,2.29.16,4.69,1.01,6.97.69,4.28-.72,8.15-2.93,12.2-4.38,1.95-.72,4.11-1.19,6.1-1.76,1.09-.3,2.36-.84,3.49-1.02,2.29,0,4.68,0,6.97,0,2.07.19,3.55,2.21,5.23,3.25,1.79,1.26,3.94,2.23,6.1,2.61,4.04.44,8.16-.15,12.2-.22,4.05-.16,8.15-.38,12.2-.34,5.8.07,11.63.4,17.44.32"/><path class="b" d="M8.39,53.88c2.6-.07,5.26.34,7.85.47,3.75.25,7.58.39,11.33.59,6.67.35,13.38.3,20.05.59,3.47.27,7.02.56,10.46,1.1,2.58.04,5.26.08,7.85-.02,1.1-.43,2.35-1.09,3.49-1.42,1.67-.46,3.54-.66,5.23-1.01,4.91-.6,9.92,0,14.82.42,2.89.28,5.85.65,8.72,1.12,1.69.17,3.53.89,5.23.6,3.68-.66,6.99-2.63,10.46-3.92,3.08-1.27,6.5-1.65,9.59-2.89,1.03-.46,2.38-.39,3.49-.39,1.39.03,2.97-.08,4.36.08,2.24,1,3.95,3.11,6.1,4.29,1.3.77,2.88,1.41,4.36,1.73,1.68.3,3.53.21,5.23.22,2.87-.24,5.84-.41,8.72-.55,9.28-.81,18.6-.12,27.9-.12"/><path class="b" d="M8.39,52.09c12.16,1.21,24.41,1.33,36.61,1.7,3.77.19,7.59.63,11.33,1.11,2.29.03,4.68,0,6.97.01.51-.26,1.37-1.01,1.74-1.45,1.47-1.1,3.45-1.39,5.23-1.55,1.99-.29,4.08-.79,6.1-.77,2.3.17,4.68.45,6.97.69,6.4.69,12.86,1.3,19.18,2.61,3.92.91,8.49-2.47,12.2-3.64,2.5-.99,5.26-1.42,7.85-2.14,1.68-.56,3.39-1.52,5.23-1.27,2.75-.04,3.91-.25,6.1,1.72,2.5,2.17,5.38,4.23,8.72,4.77,2.88.26,5.85.05,8.72-.22,4.05-.23,8.15-.6,12.2-.81,6.67-.29,13.38.26,20.05.22"/><path class="b" d="M8.39,50.52c11.59,1.02,23.25,1.23,34.87,1.58,3.77.17,7.59.62,11.33,1.06,1.99.03,4.11,0,6.1.01.8-.23,1.43-1.62,1.74-2.28,1.94-1.47,4.67-1.14,6.97-1.29,6.08-.92,12.27-.16,18.31.68,4.64.57,9.36,1.05,13.95,1.97,1.09.22,2.39.49,3.49.69,3.39-.44,6.44-2.27,9.59-3.47,2.78-1.13,5.83-1.55,8.72-2.3,1.44-.37,2.87-1.37,4.36-1.52,2.67-.06,3.95-.18,6.1,1.68,2.56,2.15,5.35,4.38,8.72,5.01,3.17.38,6.43.08,9.59-.21,4.06-.23,8.15-.72,12.2-.96,6.38-.33,12.8.2,19.18.18"/><path class="b" d="M8.39,48.92c11.01.87,22.09,1.16,33.13,1.48,3.18.12,6.42.48,9.59.79,1.39.23,2.96.26,4.36.24,1.1-.06,2.48.22,3.49-.35.29-1.24,1.06-3.98,1.74-5.05,1.11,1.14,2.88,1.11,4.36,1.24,2.58.25,5.26-.05,7.85.08,6.11.18,12.25.53,18.31,1.42,3.47.42,7.02.83,10.46,1.48,1.4.26,2.96.61,4.36.89,1.13-.13,2.42-.51,3.49-.89,3.95-1.63,7.92-3.45,12.2-4.03,2.11-.3,4.22-1.07,6.1-2.05,1.04-.41,2.41-.34,3.49-.14.85.31,1.89.98,2.62,1.53,2.63,2.09,5.34,4.48,8.72,5.19,5.5.65,11.08-.31,16.56-.73,8.09-1.16,16.28-.53,24.41-.44"/><path class="b" d="M8.39,47.28c10.73.78,21.51,1.1,32.26,1.45,2.59.1,5.26.42,7.85.6,2.56.29,5.31.66,7.85.06,1.73-1.38,2.03-5.15,2.62-7.14l.87.11c2.23,3.39,6.92,2.75,10.46,3.09,3.75.26,7.58.44,11.33.67,5.83.23,11.65,1.04,17.44,1.8,2.61.35,5.26.96,7.85,1.45,3.03-.52,5.86-1.98,8.72-3.03,2.22-.81,4.64-1.3,6.97-1.66,7.08-.95,6.12-5.26,13.08.51,3.63,2.99,6.48,4.68,11.33,4.03,4.94.19,9.92-.4,14.82-1.03,7.21-1.03,14.54-.42,21.79-.34"/><path class="b" d="M8.39,45.63c10.15.69,20.34,1.06,30.51,1.39,2.59.09,5.26.39,7.85.55,1.69.17,3.52.45,5.23.29,1.23-.03,2.69-.29,3.49-1.32.54-1.28,1.38-4.03,1.74-5.38l.87-.75c.95-.16,1.98.41,2.62,1.07.99.69,2.32,1.17,3.49,1.43,8.9,1.63,18.06,1.22,27.02,2.23,3.76.45,7.6.82,11.33,1.47,1.4.24,2.97.57,4.36.87.8.11,1.85-.19,2.62-.41,3.21-.95,6.29-2.57,9.59-3.24,2.27-.53,4.74-.66,6.97-1.34,1.48-.44,2.94-1.37,4.36-1.95,4.64,1.09,7.51,5.91,12.2,6.99.79.26,1.82-.06,2.62-.15,1.09-.13,2.39-.16,3.49-.12,3.18.08,6.43.36,9.59-.14,3.46-.43,6.97-1.07,10.46-1.2,4.92-.2,9.9.1,14.82.16"/><path class="b" d="M8.39,43.96c9.86.64,19.76,1.03,29.64,1.39,2.29.1,4.68.34,6.97.46,2.57.26,5.37.59,7.85-.37,2.37-1.16,1.87-5.04,3.49-6.77.78,0,1.83,0,2.62,0,.48.18,1.33.68,1.74.98,1.57.91,3.44,1.53,5.23,1.8,8.63,1.5,17.47,1.15,26.15,2.06,3.47.39,7.01.73,10.46,1.29,1.4.23,2.97.54,4.36.83.79.32,1.84-.02,2.62-.22,3.5-.97,6.85-2.68,10.46-3.29,2.29-.44,4.75-.55,6.97-1.29,1.47-.39,2.84-1.62,4.36-1.77,1.85.77,3.66,1.98,5.23,3.22,2.23,1.56,4.91,4.28,7.85,3.32,2.84-.59,5.84-.27,8.72-.2,1.7.1,3.53.51,5.23.2,3.47-.41,6.97-1.17,10.46-1.38,4.92-.31,9.9-.01,14.82.07"/><path class="b" d="M8.39,42.29c9.28.59,18.6,1,27.9,1.36,2.29.1,4.68.3,6.97.41,1.7.16,3.53.36,5.23.12,4.59-.17,5.16-3.23,6.1-6.98.76-.34,1.81-.27,2.62-.27.84-.03,1.91-.06,2.62.48,2.07,1.36,4.55,2.12,6.97,2.49,8.05,1.4,16.29,1.13,24.41,1.8,3.76.42,7.59.75,11.33,1.33,1.71.26,3.54.63,5.23.97.8,0,1.85-.3,2.62-.52,3.18-.95,6.3-2.37,9.59-2.93,1.98-.37,4.13-.5,6.1-.92,1.82-.39,3.61-1.32,5.23-2.2,4.21,1.46,7.09,5.44,11.33,6.75,2.8-.92,5.8-1,8.72-.82,2.6-.05,5.26.55,7.85.63,3.47-.45,6.96-1.27,10.46-1.49,4.63-.33,9.32-.08,13.95,0"/><path class="b" d="M8.39,40.6c8.99.57,18.02.99,27.02,1.37,1.99.11,4.11.24,6.1.33,2.59.27,5.33.31,7.85-.44,2.77-.8,3.52-4.3,4.36-6.67,1.7.04,3.55-.15,5.23.13,2.38,1.46,5.07,2.51,7.85,2.92,8.04,1.44,16.29,1.11,24.41,1.78,3.76.4,7.59.7,11.33,1.27,1.71.26,3.54.61,5.23.95.8.07,1.85-.23,2.62-.45,3.17-.94,6.31-2.3,9.59-2.84,1.98-.36,4.12-.47,6.1-.84,1.81-.34,3.64-1.16,5.23-2.06,3.37.56,5.92,3.45,8.72,5.22,2.36,1.59,2.75,1.02,5.23.36,2.84-.56,5.84-.25,8.72-.15,2.3.14,4.67.67,6.97.75,3.17-.5,6.38-1.24,9.59-1.46,4.33-.35,8.74-.15,13.08-.06"/><path class="b" d="M8.39,38.9c8.7.57,17.44.98,26.15,1.4,4.62.08,9.48,1.09,13.95-.49,2.53-.99,3.26-4.17,4.36-6.36,1.7,0,3.53,0,5.23,0,1.18.32,2.36,1.2,3.49,1.66,1.63.71,3.49,1.19,5.23,1.5,8.04,1.45,16.3,1.05,24.41,1.75,3.76.38,7.59.66,11.33,1.21,1.1.16,2.4.39,3.49.6,1.09.23,2.4.55,3.49.15,3.77-.99,7.43-2.68,11.33-3.15,2.29-.33,4.74-.38,6.97-1.05,1.47-.33,2.86-1.48,4.36-1.65,1.82.77,3.68,1.84,5.23,3.07,1.07.82,2.32,1.82,3.49,2.51.74.51,1.81.69,2.62.25,1.9-.77,4.07-.98,6.1-.95,2.29.07,4.7.1,6.97.4,2,.18,4.09.71,6.1.7,3.16-.59,6.38-1.26,9.59-1.46,3.75-.28,7.58-.14,11.33-.07"/><path class="b" d="M8.39,37.2c8.41.57,16.86.99,25.28,1.43,3.17.04,6.42.49,9.59.15,1.78-.17,3.75-.49,5.23-1.56,1.7-1.28,2.33-3.83,3.49-5.52,2,.04,4.11-.08,6.1.07,2.72,1.46,5.63,2.74,8.72,3.19,7.76,1.38,15.71,1.02,23.54,1.65,4.05.4,8.18.65,12.2,1.24,1.71.25,3.54.61,5.23.94.8.08,1.85-.21,2.62-.42,3.16-.94,6.31-2.26,9.59-2.75,2.28-.38,4.71-.42,6.97-.88,1.81-.33,3.53-1.35,5.23-1.97,1.81.74,3.69,1.73,5.23,2.94,1.08.83,2.33,1.86,3.49,2.59.77.57,1.78.65,2.62.18,2.16-.97,4.64-1.14,6.97-1.08,4.38.02,8.76.61,13.08,1.31,2.89-.35,5.8-1.15,8.72-1.37,3.74-.4,7.58-.29,11.33-.23"/><path class="b" d="M8.39,35.5c8.12.55,16.28,1.05,24.41,1.44,4.62.06,9.64.84,13.95-1.23,2.22-1.14,2.88-3.97,4.36-5.75,2,0,4.11,0,6.1,0,1.2.22,2.38,1.09,3.49,1.56,1.91.86,4.05,1.42,6.1,1.79,7.47,1.31,15.13.96,22.67,1.58,4.05.38,8.17.61,12.2,1.14,1.71.23,3.54.57,5.23.9,1.1.33,2.41-.02,3.49-.31,3.17-.9,6.3-2.25,9.59-2.7,2.28-.36,4.71-.39,6.97-.83,1.8-.36,3.62-1.2,5.23-2.06,1.8.73,3.69,1.64,5.23,2.84,1.09.83,2.34,1.9,3.49,2.66.8.63,1.75.64,2.62.15,2.41-1.18,5.22-1.29,7.85-1.21,4.68,0,9.35.74,13.95,1.5,5.99-1.39,12.16-1.9,18.31-1.66"/><path class="b" d="M8.39,33.79c7.83.53,15.69,1.13,23.54,1.42,4.62.1,9.72.68,13.95-1.55,1.01-.61,2.02-1.85,2.62-2.85.27-.7,1.14-2.13,1.74-2.6,2,0,4.11,0,6.1,0,1.56-.02,2.94,1.21,4.36,1.72,1.64.69,3.49,1.2,5.23,1.55,7.46,1.45,15.13,1.03,22.67,1.69,4.34.4,8.75.59,13.08,1.16,2.01.27,4.11.69,6.1,1.03.79-.1,1.85-.36,2.62-.56,3.17-.86,6.31-2.18,9.59-2.61,2.28-.34,4.71-.36,6.97-.79,1.8-.36,3.63-1.17,5.23-2.05,1.82.59,3.69,1.54,5.23,2.69,1.4,1.04,2.82,2.41,4.36,3.25.88.16,1.85-.45,2.62-.79.75-.31,1.81-.61,2.62-.73,6.39-.66,12.9.18,19.18,1.41,2.61-.12,5.24-1,7.85-1.25,3.15-.39,6.41-.41,9.59-.39"/><path class="b" d="M8.39,32.09c7.83.57,15.69,1.23,23.54,1.45,2.29.16,4.69.09,6.97-.15,2.08-.21,4.32-.6,6.1-1.76.99-.64,2.01-1.88,2.62-2.88.26-.64,1.11-1.95,1.74-2.28,2.29,0,4.68,0,6.97,0,1.5.31,2.92,1.37,4.36,1.88,1.64.65,3.49,1.13,5.23,1.46,7.18,1.36,14.55.95,21.79,1.65,4.34.38,8.75.55,13.08,1.07,2.3.25,4.67.82,6.97,1.04.78-.15,1.85-.4,2.62-.61,3.16-.88,6.32-2.12,9.59-2.53,2.28-.32,4.71-.33,6.97-.77,1.8-.36,3.63-1.18,5.23-2.07,1.83.51,3.68,1.5,5.23,2.59,1.42,1.05,2.83,2.47,4.36,3.35.89.18,1.85-.48,2.62-.84,1.04-.47,2.35-.81,3.49-.92,6.4-.46,12.92.18,19.18,1.56.78.3,1.83.03,2.62-.14,1.4-.27,2.96-.6,4.36-.83,3.15-.48,6.41-.6,9.59-.59"/><path class="b" d="M8.39,30.38c7.83.65,15.69,1.26,23.54,1.49,4.4-.15,9.55.08,13.08-2.98.51-.48,1.37-1.61,1.74-2.21.3-.6,1.01-1.75,1.74-1.96,2.29,0,4.68,0,6.97,0,1.54.02,2.95,1.18,4.36,1.69,1.64.69,3.49,1.21,5.23,1.56,7.17,1.46,14.56,1.02,21.79,1.78,4.63.38,9.33.52,13.95,1.1,2,.27,4.11.62,6.1.95,1.12,0,2.41-.41,3.49-.68,3.15-.9,6.32-2.09,9.59-2.46,2.29-.29,4.71-.3,6.97-.76,1.81-.38,3.63-1.23,5.23-2.12,1.83.51,3.67,1.51,5.23,2.58,1.45,1.03,2.84,2.5,4.36,3.44.91.23,1.85-.5,2.62-.88,1.03-.51,2.35-.88,3.49-1.01,6.99-.54,14.12.13,20.92,1.78,2.02.16,4.1-.72,6.1-.92,2.86-.44,5.83-.6,8.72-.71"/><path class="b" d="M8.39,28.68c6.95.63,13.94,1.22,20.92,1.41,4.06.03,8.37-.03,12.2-1.53,2.36-.94,3.93-3.23,5.23-5.3,1.04-.48,2.38-.24,3.49-.29,1.7,0,3.53,0,5.23,0,2.06.64,4,1.91,6.1,2.46,4.5,1.35,9.28,1.69,13.95,1.94,3.77.09,7.58.41,11.33.73,3.76.27,7.58.42,11.33.77,2.01.18,4.11.52,6.1.8.77.12,1.84.31,2.62.4.78-.15,1.85-.39,2.62-.59,3.45-.93,6.88-2.27,10.46-2.63,2.29-.27,4.72-.28,6.97-.78,1.81-.41,3.62-1.31,5.23-2.21,2.17.71,4.32,1.9,6.1,3.31,1.37.91,2.61,2.89,4.36,2.94,3.6-2.56,7.99-2.38,12.2-2.25,5.29.06,10.56.87,15.69,2.14,1.72-.05,3.52-.66,5.23-.86,2.57-.39,5.25-.6,7.85-.73"/><path class="b" d="M8.39,27.01c7.24.6,14.52,1.43,21.79,1.34,3.81-.21,7.94-.28,11.33-2.24,1.85-1.08,3.06-3.17,4.36-4.79,1.69-.18,3.53-.05,5.23-.09,1.4.05,2.98-.14,4.36.15,1.97.86,4.01,1.89,6.1,2.44,5.37,1.48,11.03,1.71,16.56,1.93,6.37.62,12.8.89,19.18,1.36,2.3.2,4.69.55,6.97.88.43.07,1.32.21,1.74.29,1.12-.01,2.41-.41,3.49-.68,3.16-.87,6.32-2.07,9.59-2.47,5.29-.55,8.26-.32,13.08-3.24,2.14.87,4.32,1.99,6.1,3.48,1.39.94,2.61,2.84,4.36,3.04,3.69-2.72,7.85-2.56,12.2-2.44,5.29.03,10.56.73,15.69,2,1.7.6,3.53,0,5.23-.27,2.57-.43,5.25-.69,7.85-.87"/><path class="b" d="M8.39,25.41c7.53.49,15.11,1.62,22.67,1.07,3.61-.29,7.6-.66,10.46-3.11,1.28-1.05,2.16-2.9,3.49-3.88,3.17.06,6.43-.12,9.59.08,2.82,1.16,5.68,2.51,8.72,3.05,6.3,1.28,12.81,1.16,19.18,1.9,5.21.4,10.49.48,15.69,1,2,.23,4.12.48,6.1.81,1.42.41,2.98,0,4.36-.38,3.73-1.01,7.45-2.45,11.33-2.76,2.6-.27,5.37-.27,7.85-1.2,1.46-.51,2.9-1.51,4.36-2.01,2.15.88,4.33,2.06,6.1,3.58,1.36,1.03,2.63,2.75,4.36,3.14,3.6-2.66,7.04-2.74,11.33-2.63,5.26,0,10.55.55,15.69,1.67,1.39.3,2.96.57,4.36.79,3.16-.52,6.4-1.01,9.59-1.25"/><path class="b" d="M8.39,23.79c7.53.45,15.12,1.64,22.67.82,5.68-.5,8.9-1.78,12.2-6.59.76-.35,1.81-.28,2.62-.27,1.1,0,2.39,0,3.49,0,1.4.02,2.96-.04,4.36.05.81.22,1.85.7,2.62,1.04,5.18,2.31,10.96,2.85,16.56,3.22,2.89.1,5.83.62,8.72.78,4.34.31,8.74.42,13.08.72,2.3.16,4.69.44,6.97.73,1.71.19,3.54.83,5.23.23,4.35-1.03,8.58-2.85,13.08-3.16,2.3-.22,4.76-.29,6.97-1.04,1.79-.5,3.39-1.98,5.23-2.23,2.18.86,4.33,2.15,6.1,3.68,1.36,1.08,2.67,2.69,4.36,3.24,1.36-.81,2.8-1.87,4.36-2.27,3.69-.87,7.58-.44,11.33-.39,5.86.33,11.65,1.52,17.44,2.43,2.59-.31,5.25-.75,7.85-.97"/><path class="b" d="M8.39,22.17c8.4.51,16.95,1.91,25.28.05,2.26-.51,4.52-1.65,6.1-3.37.78-.84,1.66-2.19,2.62-2.84,3.46.02,7-.05,10.46.03,3.16,1.08,6.25,2.62,9.59,3.11,3.72.74,7.57.93,11.33,1.28,6.34.89,12.79.94,19.18,1.32,2.59.16,5.27.41,7.85.74,1.4.12,2.95.63,4.36.51,2.64-.51,5.28-1.41,7.85-2.19,3.93-1.35,8.18-1.21,12.2-2.02,2.16-.47,4.07-1.88,6.1-2.67,2.28.11,4.32,1.83,6.1,3.12,1.7,1.29,3.2,3.26,5.23,4.02,1.89-1.13,3.84-2.5,6.1-2.7,3.74-.39,7.6-.24,11.33.14,4.36.39,8.76.86,13.08,1.61,1.39.23,2.96.48,4.36.67,2-.03,4.1-.49,6.1-.64"/><path class="b" d="M8.39,20.53c6.96.44,13.97,1.51,20.92.46,5.53-.68,7.9-2.36,11.33-6.59,1.38-.28,2.96-.1,4.36-.15,2.29.02,4.68-.05,6.97.04,3.16,1.04,6.26,2.56,9.59,3.05,3.43.7,7,.87,10.46,1.29,6.05.84,12.21.98,18.31,1.26,4.66.14,9.34.79,13.95,1.38,2.64-.49,5.28-1.39,7.85-2.18,1.95-.61,4.07-1.1,6.1-1.35,2.29-.29,4.74-.35,6.97-1.02,2.12-.52,3.9-2.35,6.1-2.49,2.73.1,4.98,2.32,6.97,3.98,1.32,1.13,2.65,2.74,4.36,3.27,1.66-.91,3.34-2.17,5.23-2.58,4.59-.89,9.34-.22,13.95.18,4.06.3,8.18.68,12.2,1.31,1.99.3,4.1.62,6.1.86,1.09-.1,2.4-.27,3.49-.38"/><path class="b" d="M8.39,18.88c5.5.31,11.05,1.27,16.56.69,2.95-.24,6.05-.64,8.72-1.99,1.25-.64,2.55-1.7,3.49-2.73.75-.76,1.49-2.12,2.62-2.34,2.59,0,5.26,0,7.85,0,1.1.01,2.4-.04,3.49.06.81.2,1.85.63,2.62.94,5.22,2.26,10.99,2.64,16.56,3.33,10.69,1.55,21.62.69,32.26,2.62,1.42.28,2.98-.41,4.36-.72,2.88-.82,5.77-1.92,8.72-2.5,3.15-.67,6.54-.5,9.59-1.64,1.45-.54,2.87-1.62,4.36-2.07,1.09-.03,2.42-.15,3.49.14,1.59.65,3.09,1.9,4.36,3.04,1.63,1.33,3.1,3.5,5.23,3.99,1.66-.91,3.37-2.08,5.23-2.56,4.29-1.01,8.76-.24,13.08.12,4.05.3,8.17.49,12.2,1.01,2.29.28,4.68.63,6.97.92,1.09.11,2.39.41,3.49.23"/></svg>