<?xml version="1.0" encoding="UTF-8"?><svg id="a" xmlns="http://www.w3.org/2000/svg" width="1920" height="2400" viewBox="0 0 192 240"><defs><style>.b{fill:none;stroke:#fff;stroke-miterlimit:10;stroke-width:.3px;}.c{stroke-width:0px;}</style></defs><rect class="c" x="0" width="192" height="240"/><path class="b" d="M8.15,224.88c6.75.21,13.4,1.71,20.1,2.4,3.18-.02,6.43-.63,9.62-.72,6.97-.41,13.99-.6,20.98-.73,7.01-.18,14.07.12,20.98,1.35,1.4.22,2.96.44,4.37.57,3.2-.17,6.42-.87,9.62-1.15,5.29-.68,10.54.23,15.73,1.17,3.85-.14,7.71-1.33,11.36-2.51,1.53-.56,3.12-1.48,4.37-2.53.78-.69,1.76-1.8,2.62-2.41,2.48-.27,4.76,1.15,6.99,2,1.13.47,2.56.86,3.5,1.68,1.29.8,2.9,1.35,4.37,1.68,5.15,1.06,10.49,1.13,15.73,1.28,8.44.17,16.91-.16,25.35-.28"/><path class="b" d="M8.15,223.24c6.17.21,12.24,1.55,18.36,2.27,1.4.19,2.97-.24,4.37-.32,2-.21,4.11-.37,6.12-.49,6.68-.39,13.41-.54,20.1-.73,8.76-.32,17.59-.26,26.22,1.42,1.99.3,4.11.75,6.12.44,3.46-.37,7-.77,10.49-.66,2.01.05,4.13.28,6.12.55,1.7.32,3.55.38,5.24-.04,3.81-.8,7.77-1.51,11.36-3.06,1.99-.83,3.65-2.45,5.24-3.85,3.26.97,6.32,2.75,9.62,3.65.83.22,1.82.83,2.62,1.12,1.07.38,2.38.68,3.5.86,13.33,1.7,26.83.49,40.21.33"/><path class="b" d="M8.15,221.58c5.88.22,11.66,1.53,17.48,2.24,10.43-1.26,20.97-1.38,31.47-1.67,7.86-.23,15.79-.6,23.6.51,3.48.45,6.98,1.26,10.49,1.51,2.89-.1,5.85-.43,8.74-.36,2.6-.04,5.28.45,7.87.4,2.33-.22,4.71-.81,6.99-1.28,2.92-.66,5.99-1.26,8.74-2.49.83-.38,1.9-1.03,2.62-1.59.28-.39,1.28-.99,1.75-1.1,3.43,1.36,6.86,2.98,10.49,3.76,1.95.7,4.05,1.29,6.12,1.47,13.08,1.26,26.24.03,39.34-.18"/><path class="b" d="M8.15,219.91c5.29.23,10.51,1.37,15.73,2.1,1.4.24,2.97-.26,4.37-.36,2-.24,4.11-.42,6.12-.55,8.43-.49,16.91-.51,25.35-.81,9.92-.42,19.95-.59,29.72,1.47,3.74.7,7.58.66,11.36.59,3.8.24,7.65.06,11.36-.86,3.49-.73,7.09-1.31,10.49-2.42,1.15-.38,2.48-.98,3.5-1.65,0,0,.87-.64.87-.64,0,0,.87-.1.87-.1,2.27.93,4.63,1.97,6.99,2.65,2.57.68,5.25,1.36,7.87,1.85,3.74.52,7.59.57,11.36.61,9.91.09,19.82-.71,29.72-.88"/><path class="b" d="M8.15,218.21c4.99.25,9.93,1.33,14.86,2.06,1.41.15,2.96-.31,4.37-.42,2.29-.29,4.69-.48,6.99-.61,7.85-.41,15.75-.38,23.6-.63,7.85-.22,15.75-.74,23.6-.18,3.52.14,7.02.94,10.49,1.5,3.16.47,6.42.67,9.62.67,5.02.16,9.96-.98,14.86-1.89,2.32-.43,4.75-.89,6.99-1.61.8-.26,1.88-.7,2.62-1.1,0,0,.87-.53.87-.53l.87-.06c2.28.88,4.63,1.93,6.99,2.59,2.27.62,4.7.99,6.99,1.48,4.03.6,8.18.58,12.24.6,9.91,0,19.82-.87,29.72-1.02"/><path class="b" d="M8.15,216.51c4.7.26,9.35,1.29,13.99,2.02,2.58.04,5.27-.73,7.87-.84,10.46-.81,20.99-.46,31.47-.9,8.14-.28,16.34-.78,24.48-.11,2.91.3,5.83,1.14,8.74,1.45,4.03.51,8.18.64,12.24.29,3.79-.45,7.59-1.29,11.36-1.84,2.02-.34,4.16-.73,6.12-1.32,1.14-.28,2.33-1.11,3.5-1.26,2.85,1.08,5.73,2.4,8.74,2.98,5.73,1.28,11.63,1.48,17.48,1.37,9.91-.07,19.81-1,29.72-1.13"/><path class="b" d="M8.15,214.79c4.4.28,8.77,1.25,13.11,1.97,1.41.22,2.97-.33,4.37-.45,1.99-.28,4.11-.48,6.12-.61,10.47-.54,20.99-.2,31.47-.66,8.14-.28,16.33-.85,24.48-.3,8.55,1.91,16.7,2.66,25.35.85,4.96-.86,10.22-.96,14.86-3.08,2.28.89,4.64,1.89,6.99,2.59,5.99,1.47,12.22,1.68,18.36,1.55,10.2-.11,20.39-1.11,30.6-1.22"/><path class="b" d="M8.15,213.06c4.41.3,8.76,1.34,13.11,2.06,4.9-.85,9.89-1.36,14.86-1.41,7.86-.13,15.75,0,23.6-.23,7.28-.18,14.58-.64,21.85-.79,2.29-.02,4.71-.13,6.99.13,4.31.88,8.7,1.74,13.11,1.86,4.69.29,9.35-.68,13.99-1.23,2.89-.35,5.88-.65,8.74-1.2.78-.15,1.86-.42,2.62-.66.39-.23,1.3-.39,1.75-.28,7.61,3.64,16.2,3.83,24.48,3.62,10.2-.17,20.39-1.2,30.6-1.29"/><path class="b" d="M8.15,211.31c4.11.31,8.19,1.28,12.24,2,1.72,0,3.53-.56,5.24-.73,2.29-.31,4.69-.49,6.99-.58,10.77-.27,21.57.11,32.34-.35,4.94-.19,9.92-.46,14.86-.66,3.46-.06,7.07-.59,10.49.16,4.59.95,9.29,1.73,13.99,1.68,3.21.04,6.44-.56,9.62-.91,4.94-.64,10.07-.68,14.86-2.13,7.61,3.58,15.36,3.64,23.6,3.43,10.49-.19,20.97-1.28,31.47-1.36"/><path class="b" d="M8.15,209.56c4.12.33,8.18,1.37,12.24,2.09,4.02-.81,8.14-1.37,12.24-1.45,10.77-.18,21.57.23,32.34-.2,5.23-.19,10.51-.47,15.73-.78,3.47-.12,7.07-.72,10.49.15,4.01.82,8.13,1.53,12.24,1.61,3.2.13,6.45-.33,9.62-.69,5.52-.56,11.13-.81,16.61-1.74,7.29,3.59,15.69,3.07,23.6,2.92,10.2-.27,20.39-1.31,30.6-1.37"/><path class="b" d="M8.15,207.79c4.12.32,8.15,1.6,12.24,2.06,4.86-1.1,9.88-1.53,14.86-1.5,15.44.22,30.92.35,46.33-.91,2.29-.17,4.69-.34,6.99-.4,4.64.71,9.27,1.92,13.99,2.09,3.78.26,7.6-.29,11.36-.63,4.93-.42,9.93-.61,14.86-1.04,1.53-.41,2.97.58,4.37,1.03,2.54.69,5.25,1.08,7.87,1.29,14.29.61,28.55-1.35,42.83-1.41"/><path class="b" d="M8.15,206.11c3.81.42,7.61,1.27,11.36,1.99,2.61-.2,5.24-1.07,7.87-1.22,3.76-.37,7.6-.33,11.36-.26,10.77.24,21.58.36,32.34-.18,3.77-.19,7.6-.44,11.36-.77,3.19-.27,6.47-.73,9.62.15,4.58.96,9.29,1.75,13.99,1.62,6.98-.45,13.98-1.12,20.98-1.19,1.09-.02,2.4-.04,3.5-.02,1.13.15,2.37.75,3.5.96,2.26.54,4.68.83,6.99.98,14.29.42,28.55-1.46,42.83-1.51"/><path class="b" d="M8.15,204.44c3.81.35,7.6,1.25,11.36,1.94,2.32-.24,4.66-1.01,6.99-1.21,3.75-.45,7.6-.4,11.36-.32,11.06.3,22.16.48,33.22-.07,3.77-.19,7.6-.46,11.36-.83,2.89-.21,5.88-.83,8.74-.08,4.59.96,9.27,1.9,13.99,1.85,2.9.03,5.85-.36,8.74-.52,4.05-.24,8.18-.38,12.24-.35,2,.03,4.13.12,6.12.37,2.81.83,5.82,1.17,8.74,1.32,14.29.24,28.55-1.54,42.83-1.58"/><path class="b" d="M8.15,202.76c3.82.28,7.61,1.18,11.36,1.87,2.32-.24,4.66-1.04,6.99-1.27,2.87-.36,5.85-.39,8.74-.34,11.35.33,22.74.64,34.09.16,4.07-.18,8.19-.46,12.24-.87,2.58-.15,5.29-.82,7.87-.47,4.91.88,9.83,2.17,14.86,2.17,2.89.1,5.86-.21,8.74-.39,4.05-.22,8.18-.33,12.24-.23,2.3.07,4.7.29,6.99.46,2.56.55,5.25.95,7.87,1.03,14.58.24,29.13-1.58,43.71-1.57"/><path class="b" d="M8.15,201.09c3.82.23,7.62,1.05,11.36,1.8,2.33-.19,4.67-1,6.99-1.3,2.57-.37,5.27-.4,7.87-.37,11.64.37,23.32.77,34.97.26,3.77-.17,7.61-.43,11.36-.82,2.59-.18,5.27-.78,7.87-.64,5.22.87,10.4,2.31,15.73,2.31,6.69.02,13.38-.79,20.1-.44,2.3.11,4.7.25,6.99.46,2.58.38,5.25.85,7.87.87,14.87.21,29.71-1.6,44.58-1.52"/><path class="b" d="M8.15,199.41c2.61.16,5.3.49,7.87.97,1.41.21,2.94.78,4.37.76,4.57-1.13,9.27-1.94,13.99-1.7,11.64.43,23.32.85,34.97.33,3.48-.16,7.02-.41,10.49-.77,2.59-.22,5.26-.72,7.87-.74,5.23.79,10.41,2.31,15.73,2.39,6.69.18,13.41-.67,20.11-.28,2.59.14,5.29.2,7.87.49,2,.29,4.09.71,6.12.68,15.45.26,30.88-1.57,46.33-1.38"/><path class="b" d="M8.15,197.74c4.11.14,8.22.86,12.24,1.71,4.58-1.05,9.26-2.07,13.99-1.79,11.35.46,22.73.9,34.09.42,6.14-.15,12.25-1.11,18.36-1.53,5.53.78,10.99,2.41,16.61,2.48,6.69.17,13.41-.56,20.11-.15,2.6.06,5.29.17,7.87.46,2,.28,4.09.67,6.12.55,15.45.13,30.88-1.52,46.33-1.16"/><path class="b" d="M8.15,196.07c2.61.05,5.29.32,7.87.72,1.72.18,3.52.87,5.24.8,4.3-.94,8.68-1.96,13.11-1.72,11.06.46,22.15.94,33.22.48,3.48-.14,7.02-.4,10.49-.76,2.59-.21,5.27-.77,7.87-.73,5.54.72,10.99,2.36,16.61,2.51,6.69.26,13.41-.37,20.1-.1,2.89.06,5.86.18,8.74.47,2.58.41,5.26.42,7.87.38,14.86.06,29.72-1.43,44.58-.77"/><path class="b" d="M8.15,194.42c4.4-.06,8.8.66,13.11,1.48,2.32-.36,4.67-1.06,6.99-1.38,2.57-.45,5.26-.49,7.87-.38,10.47.51,20.99.88,31.47.42,3.48-.16,7.02-.45,10.49-.82,2.59-.22,5.27-.85,7.87-.41,5.24.75,10.42,2.2,15.73,2.4,6.69.35,13.41-.24,20.1-.05,4.07.05,8.19.29,12.24.69,3.47.06,7.02,0,10.49.03,6.4-.02,12.83-.52,19.23-.61,6.69-.19,13.42.06,20.11.21"/><path class="b" d="M8.15,192.77c4.77-.27,9.33.74,13.99,1.32,4.32-.82,8.67-2.01,13.11-1.75,9.89.4,19.82.89,29.72.51,3.78-.12,7.61-.43,11.36-.82,2.3-.18,4.69-.71,6.99-.49,5.57.45,11.01,2.17,16.61,2.48,6.68.51,13.41-.07,20.1.02,4.65,0,9.35.25,13.99.58,7.86.07,15.75.03,23.6-.35,4.94-.13,9.92-.16,14.86-.02,3.77.1,7.6.42,11.36.06"/><path class="b" d="M8.15,191.13c3.19-.2,6.46.03,9.62.47,1.72.14,3.53.81,5.24.7,4.03-.76,8.1-1.9,12.24-1.72,9.31.28,18.65.84,27.97.49,3.19-.1,6.44-.31,9.62-.62,2.59-.22,5.26-.68,7.87-.58,5.9.11,11.62,1.99,17.48,2.44,7.84.62,15.74-.02,23.6.13,4.94-.01,9.92.47,14.86.46,7.86.11,15.74-.16,23.6-.32,4.65-.06,9.34.13,13.99.24,3.19-.07,6.44-.35,9.62-.64"/><path class="b" d="M8.15,189.5c4.96-.44,9.99.16,14.86,1.12,3.79-.44,7.52-1.79,11.36-1.78,7.86-.02,15.74.66,23.6.47,6.71.05,13.41-.83,20.1-1.06,6.2-.18,12.23,1.72,18.36,2.31,2.88.37,5.85.05,8.74.11,6.4.22,12.83,0,19.23.12,11.06.43,22.15.44,33.22.15,4.35-.07,8.76.22,13.11.05,4.36-.15,8.77-.62,13.11-1.06"/><path class="b" d="M8.15,187.87c5.24-.59,10.58-.02,15.73.99,3.21-.34,6.38-1.47,9.62-1.68,6.69-.37,13.41.34,20.11.27,7.57.07,15.16-.54,22.73-.8,6.2-.26,12.24,1.48,18.36,2.17,3.17.4,6.43-.13,9.62,0,6.69.13,13.41.3,20.1.27,10.77.32,21.57.39,32.34.2,4.06.03,8.18.13,12.24-.14,4.94-.4,9.93-.97,14.86-1.49"/><path class="b" d="M8.15,186.25c3.75-.5,7.61-.41,11.36.02,2.02.14,4.1.83,6.12.81,1.1-.23,2.39-.51,3.5-.74,7.15-1.74,14.58-.74,21.85-.77,8.74.12,17.49-.5,26.22-.51,5.59.08,11.06,1.58,16.61,2.13,3.17.14,6.43-.34,9.62-.21,7.27.1,14.58.45,21.85.39,7.27.11,14.58.38,21.85.28,5.81-.08,11.67.12,17.48-.13,2.91-.12,5.86-.64,8.74-1,3.47-.45,7.02-.75,10.49-1.18"/><path class="b" d="M8.15,184.62c4.03-.61,8.19-.57,12.24-.12,1.41.16,2.97.4,4.37.65,1.13.33,2.39.19,3.5-.13,7.7-2.07,15.72-1.34,23.6-1.35,4.06-.05,8.18,0,12.24-.08,4.64-.08,9.35-.31,13.99-.03,4.69.3,9.32,1.42,13.99,1.89,2,.13,4.12-.26,6.12-.26,9.32-.18,18.65.61,27.97.41,12.23.19,24.48.48,36.71.22,3.2-.28,6.43-1.01,9.62-1.44,3.75-.57,7.6-.93,11.36-1.39"/><path class="b" d="M8.15,182.98c4.03-.64,8.18-.72,12.24-.33,1.41.13,2.97.34,4.37.58,1.11.12,2.39.62,3.5.31,8.89-2.28,18.01-1.77,27.1-1.71,8.15.17,16.36-.47,24.48.43,3.48.42,7,1.1,10.49,1.46,3.76-.11,7.59-.52,11.36-.37,4.94.11,9.92.39,14.86.52,6.1-.03,12.25-.07,18.36-.15,3.47,0,7.02-.12,10.49.02,4.93.27,9.92.51,14.86.4,3.52-.18,7.02-1.11,10.49-1.69,4.33-.78,8.75-1.3,13.11-1.81"/><path class="b" d="M8.15,181.32c4.6-.74,9.35-.88,13.99-.36,2.32.15,4.68.91,6.99.9,1.1-.22,2.39-.49,3.5-.69,7.18-1.4,14.57-1.29,21.85-1.15,5.23.08,10.51.01,15.73.12,3.78.07,7.62.34,11.36.91,3.17.38,6.42,1.21,9.62.75,8.15-.75,16.33.29,24.48.31,5.23-.11,10.51-.24,15.73-.44,4.35-.18,8.76-.4,13.11-.15,5.23.25,10.49,1.2,15.73.77,3.82-.41,7.59-1.49,11.36-2.19,4.03-.79,8.17-1.34,12.24-1.86"/><path class="b" d="M8.15,179.63c4.03-.61,8.17-.93,12.24-.67,3.21.14,6.43.82,9.62,1.21,8.04-1.74,16.27-2.22,24.48-1.9,6.4.11,12.84.05,19.23.48,4.38.28,8.75,1.05,13.11,1.48,7.55-.84,15.17-.35,22.73.07,4.94,0,9.93-.3,14.86-.48,5.81-.23,11.66-.85,17.48-.56,5.55.11,11.06,1.42,16.61,1.32,4.15-.29,8.2-1.56,12.24-2.45,4.31-1,8.74-1.72,13.11-2.34"/><path class="b" d="M8.15,177.91c4.04-.55,8.16-.96,12.24-.77,3.51.12,7.03.77,10.49,1.28,3.77-.48,7.56-1.31,11.36-1.58,3.75-.39,7.6-.29,11.36-.26,6.11.1,12.26.14,18.36.56,4.37.27,8.75,1.01,13.11,1.34,6.97-.79,14.01-.41,20.98.09,7.57-.29,15.17-.66,22.73-1.2,5.51-.48,11.11-.39,16.61.13,4.36.32,8.74,1.43,13.11,1.32,4.16-.38,8.21-1.71,12.24-2.73,4.3-1.14,8.72-2.01,13.11-2.73"/><path class="b" d="M8.15,176.14c4.05-.45,8.16-.95,12.24-.81,3.8.09,7.61.79,11.36,1.28,3.19-.08,6.42-.99,9.62-1.24,3.46-.44,7.01-.46,10.49-.45,6.11.05,12.26.16,18.36.58,4.36.24,8.75,1,13.11,1.18,6.39-.67,12.85-.44,19.23.12,4.35-.28,8.76-.59,13.11-.84,4.36-.27,8.76-.63,13.11-.97,4.94-.16,9.94-.12,14.86.34,4.37.37,8.75,1.21,13.11,1.67,4.16.2,8.27-1.35,12.24-2.44,4.87-1.49,9.85-2.8,14.86-3.72"/><path class="b" d="M8.15,174.35c4.06-.33,8.16-.89,12.24-.81,4.38.12,8.77.88,13.11,1.39,6.07-.89,12.2-1.75,18.36-1.6,6.11.02,12.26.19,18.36.67,4.36.19,8.76,1.2,13.11.76,3.17-.24,6.44-.31,9.62-.16,2.3.04,4.69.45,6.99.41,6.1-.59,12.24-1.15,18.36-1.6,8.99-.93,18.11-.89,27.1.15,4.07.45,8.16,1.28,12.24,1.71,4.2-.14,8.27-1.65,12.24-2.91,4.58-1.53,9.24-3.08,13.99-3.99"/><path class="b" d="M8.15,172.53c4.06-.2,8.16-.78,12.24-.75,4.67.19,9.35.83,13.99,1.38,2.9-.11,5.85-.74,8.74-1,3.46-.32,7.01-.39,10.49-.37,8.17.02,16.34.66,24.48,1.36,4.93-.12,9.92-.59,14.86-.09,3.78.54,7.62-.23,11.36-.74,4.04-.63,8.17-.92,12.24-1.31,3.75-.47,7.59-.37,11.36-.38,5.83-.01,11.7.27,17.48,1,4.37.48,8.73,1.49,13.11,1.89,8.85-.88,16.6-6.16,25.35-7.39"/><path class="b" d="M8.15,170.68c3.78-.06,7.59-.57,11.36-.64,5.25.12,10.52.76,15.73,1.33,2.89.1,5.85-.65,8.74-.8,4.05-.33,8.18-.37,12.24-.29,6.7.13,13.42.65,20.1,1.13,3.18-.06,6.43-.36,9.62-.26,2.6-.05,5.28.5,7.87.32,6.45-.6,12.76-2.43,19.23-2.88,4.04-.45,8.18-.08,12.24-.1,6.41.07,12.87.3,19.23,1.11,3.19.39,6.45.92,9.62,1.47,1.39.24,2.97.5,4.37.67,1.11,0,2.42-.28,3.5-.51,4.22-.96,8.28-2.68,12.24-4.4,3.03-1.33,6.22-2.78,9.62-2.46"/><path class="b" d="M8.15,168.78c3.77.15,7.59-.38,11.36-.46,5.54.18,11.1.7,16.61,1.28,2.89.2,5.85-.52,8.74-.63,4.64-.33,9.34-.31,13.99-.15,4.94.18,9.93.47,14.86.79,2.29.14,4.7-.16,6.99-.15,3.78-.2,7.61.62,11.36.08,5.92-.63,11.59-2.79,17.48-3.58,4.64-.07,9.34.31,13.99.4,5.82.18,11.69.28,17.48.9,5.86.53,11.68,1.68,17.48,2.62,1.1.21,2.42-.15,3.5-.35,2.05-.45,4.17-1.13,6.12-1.9,3.58-1.33,6.91-3.4,10.49-4.73,1.65-.51,3.55-.24,5.25-.3"/><path class="b" d="M8.15,166.76c3.77.47,7.59-.07,11.36-.11,5.83.17,11.68.64,17.48,1.2,3.18.25,6.43-.46,9.62-.52,4.35-.23,8.76-.16,13.11-.01,4.36.12,8.76.37,13.11.59,2.3-.03,4.69-.16,6.99-.12,3.19.03,6.44.45,9.62-.09,5.74-.59,11.06-3.04,16.61-4.41,5.81.41,11.66.85,17.48,1.1,4.94.23,9.93.28,14.86.73,5.26.45,10.54,1.17,15.73,2.13,1.7.31,3.54.66,5.24.91,2.99-.06,5.97-1.15,8.74-2.2,2.07-.84,4.18-1.92,6.12-3.02,1.35-.74,2.86-1.68,4.37-2.04,1.7-.1,3.55-.03,5.25-.05"/><path class="b" d="M8.15,164.72c2,.23,4.11.38,6.12.44,2-.04,4.12-.24,6.12-.14,5.53.16,11.1.53,16.61,1.01,3.47.45,7.01-.2,10.49-.27,4.35-.17,8.76-.09,13.11,0,5.52.17,11.08.5,16.61.37,3.78.17,7.63.16,11.36-.54,4.93-.71,9.33-3.24,13.99-4.84,1.35-.51,2.97.17,4.37.23,2.59.34,5.27.62,7.87.88,6.38.63,12.83.82,19.23,1.11,5.84.35,11.71,1,17.48,1.98,2.89.45,5.83,1.18,8.74,1.5,2.36-.32,4.77-.97,6.99-1.83,2.09-.81,4.21-1.9,6.12-3.07,1.37-.81,2.84-1.9,4.37-2.38,1.99-.13,4.12-.03,6.12-.06"/><path class="b" d="M8.15,162.65c4.04.59,8.16.74,12.24.71,4.06.12,8.18.28,12.24.56,3.18.14,6.43.64,9.62.54,5.81-.36,11.67-.44,17.48-.35,9.3.05,18.79,1.21,27.97-.75,4.02-.94,7.61-3.26,11.36-4.89.43-.18,1.31-.51,1.75-.65,1.11-.06,2.4.31,3.5.48,1.99.37,4.11.73,6.12,1,6.36.89,12.81,1.44,19.23,1.64,7.02.22,14.05.92,20.98,2.04,3.19.5,6.42,1.23,9.62,1.71,2.68-.35,5.39-1.11,7.87-2.18,1.79-.77,3.63-1.81,5.24-2.89,1.33-.82,2.73-2.18,4.37-2.27,2,0,4.12,0,6.12,0"/><path class="b" d="M8.15,160.56c8.38,1.37,16.9,1.17,25.35,1.7,2.89.17,5.85.38,8.74.55,5.81-.19,11.67-.46,17.48-.35,8.69-.05,17.73,1,26.22-1.2,3.74-1.15,7-3.49,10.49-5.17,3.97-1.34,8.26.3,12.24.88,5.48.94,11.05,1.63,16.61,1.96,7.88.31,15.8.77,23.6,2.01,3.79.54,7.58,1.42,11.36,2,2.36-.31,4.78-.94,6.99-1.82,1.8-.72,3.65-1.72,5.24-2.82,1.38-.88,2.74-2.3,4.37-2.69,2.29,0,4.7,0,6.99,0"/><path class="b" d="M8.15,158.47c4.63.71,9.32,1.3,13.99,1.68,4.06.13,8.18.25,12.24.47,3.18.13,6.43.45,9.62.47,4.64-.19,9.34-.38,13.99-.35,4.94,0,9.92.13,14.86-.03,3.5-.16,7.14-.28,10.49-1.38,2.11-.69,4.23-1.73,6.12-2.9,1.38-.83,2.84-1.94,4.37-2.47,1.69-.21,3.54-.06,5.24-.1,1.7.03,3.56-.1,5.24.18,5.78,1.12,11.61,2.26,17.48,2.78,6.09.59,12.27.53,18.36,1.26,6.76.59,13.42,2.04,20.11,3.09,5.12-.65,10.05-2.77,13.99-6.12.33-.33,1.32-.9,1.75-1.11.76-.09,1.86-.07,2.62-.07,1.7,0,3.55,0,5.25,0"/><path class="b" d="M8.15,156.39c4.94.72,9.91,1.54,14.86,2.13,3.18.21,6.44.22,9.62.38,3.48.14,7.02.33,10.49.49,4.65-.13,9.34-.39,13.99-.39,4.65-.04,9.34.01,13.99-.19,3.52-.15,7.16-.44,10.49-1.68,1.8-.64,3.64-1.58,5.24-2.62,1.37-.82,2.75-2.13,4.37-2.39,4.64.05,9.35-.11,13.99.07,4.65.75,9.3,1.89,13.99,2.45,5.78.83,11.68.79,17.48,1.33,7.63.65,15.21,1.99,22.73,3.41,5.06-.26,10.11-2.35,13.99-5.61.37-.36,1.33-1.04,1.75-1.34,1.05-.36,2.4-.3,3.5-.3,1.7,0,3.55,0,5.25,0"/><path class="b" d="M8.15,154.34c5.55.66,11.06,1.95,16.61,2.61,5.51.33,11.09.39,16.61.68,4.94-.09,9.92-.34,14.86-.42,8.16-.34,16.77.52,24.48-2.67,1.48-.64,3.04-1.56,4.37-2.48,1.02-.67,2.2-1.71,3.5-1.7,6.1.07,12.26-.15,18.36.09,3.5.53,7,1.43,10.49,1.98,6.05,1.1,12.25,1.13,18.36,1.66,7.33.68,14.63,1.9,21.85,3.29,1.7.49,3.56.05,5.24-.33,3.09-.72,6.18-1.95,8.74-3.86,3.61-3.52,7.63-2.78,12.24-2.83"/><path class="b" d="M8.15,152.34c6.18.52,12.2,2.35,18.36,3.07,3.76.3,7.6.27,11.36.45,4.94-.11,9.92-.35,14.86-.44,4.65-.11,9.35-.16,13.99-.52,3.83-.32,7.78-.78,11.36-2.24,1.49-.6,3.05-1.48,4.37-2.38,1.02-.66,2.2-1.72,3.5-1.66,5.52,0,11.09,0,16.61,0,2,.04,4.13-.11,6.12.13,2.32.35,4.7.95,6.99,1.4,6.31,1.4,12.81,1.58,19.23,2.09,7.03.7,14.04,1.9,20.98,3.2,1.08.17,2.39.51,3.5.43,2.66-.37,5.38-1.03,7.87-2.06,1.85-.72,3.6-1.97,5.24-3.06,1.94-.81,4.04-1.64,6.12-2,1.69-.23,3.55-.1,5.25-.13"/><path class="b" d="M8.15,150.41c6.83.32,13.34,2.74,20.1,3.48,6.97.65,14-.26,20.98-.39,8.73-.48,17.82,0,26.22-2.73,1.48-.55,3.05-1.38,4.37-2.24,1.28-.89,2.73-1.92,4.37-1.67,5.81,0,11.67,0,17.48,0,2.59.04,5.28-.09,7.87.07,2.03.25,4.12.8,6.12,1.23,6.3,1.52,12.81,1.72,19.23,2.29,6.74.75,13.44,2.01,20.1,3.22,1.08.18,2.39.46,3.5.47,2.34-.3,4.76-.82,6.99-1.56,2.15-.59,4.09-1.98,6.12-2.82,3.93-1.41,7.98-3.13,12.24-2.9"/><path class="b" d="M8.15,148.56c6.88.07,13.37,2.62,20.1,3.63,2.59.44,5.27.29,7.87.01,2.89-.22,5.85-.42,8.74-.58,8.74-.57,17.64-.38,26.22-2.32,2.11-.51,4.27-1.35,6.12-2.49.77-.47,1.8-1.14,2.62-1.53.77-.22,1.83-.17,2.62-.17,7.86.05,15.76-.21,23.6.33,1.7.05,3.54,0,5.24-.11,1.43.12,2.97.58,4.37.88,3.43.8,6.98,1.4,10.49,1.74,3.18.31,6.45.38,9.62.85,7.32.88,14.53,2.75,21.85,3.6,4.24-.44,8.36-1.76,12.24-3.45,4.61-1.35,9.21-3.11,13.99-3.75"/><path class="b" d="M8.15,146.8c4.12.05,8.27.66,12.24,1.76,4.54,1.25,9.23,2.72,13.99,1.98,11.02-1.54,22.26-1.16,33.22-3.16,2.38-.48,4.83-1.21,6.99-2.33,1.09-.55,2.29-1.42,3.5-1.68.44,0,1.31,0,1.75,0,5.52,0,11.09-.02,16.61.01,2.31.19,4.68.66,6.99.83,2.29.19,4.7.22,6.99.07,1.71-.06,3.58-.52,5.24.05,3.43.83,6.98,1.47,10.49,1.84,2.88.31,5.87.37,8.74.81,7.03.97,13.95,2.75,20.98,3.68,4.18-.08,8.3-1.46,12.24-2.77,5.24-1.27,10.46-2.79,15.74-3.91"/><path class="b" d="M8.15,145.15c4.11-.06,8.27.45,12.24,1.51,3.71.88,7.5,2.55,11.36,2.26,4.66-.45,9.33-1.23,13.99-1.66,6.11-.59,12.3-.89,18.36-1.95,2.35-.42,4.77-1.02,6.99-1.89,1.97-.76,3.91-2.1,6.12-1.8,5.52.03,11.09-.06,16.61.04,3.47.53,6.97,1.35,10.49,1.51,4.07.28,8.2-.02,12.24-.52,3.16.65,6.4,1.34,9.62,1.67,2.88.33,5.88.4,8.74.9,6.72,1.06,13.33,3.03,20.1,3.76,4.18-.21,8.22-1.63,12.24-2.63,5.54-1.12,11.1-2.38,16.61-3.62"/><path class="b" d="M8.15,143.63c3.79-.21,7.66.16,11.36,1.01,3.49.78,6.93,2.08,10.49,2.57,2.02.07,4.12-.5,6.12-.74,4.65-.65,9.32-1.46,13.99-1.94,4.66-.54,9.4-1.03,13.99-2.09,2.98-.54,5.78-2.04,8.74-2.57,6.11.02,12.25-.04,18.36.02,3.48.57,6.96,1.57,10.49,1.87,4.92.57,9.94.41,14.86-.12.77-.08,1.85-.2,2.62-.29,2.01.26,4.1.76,6.12.99,3.77.49,7.65.59,11.36,1.48,3.78.8,7.58,1.86,11.36,2.65,2.85.56,5.86,1.15,8.74.46,2.94-.44,5.84-1.48,8.74-2.07,6.12-1.07,12.29-2.1,18.36-3.44"/><path class="b" d="M8.15,142.31c4.07-.48,8.25-.08,12.24.83,3.2.7,6.37,1.82,9.62,2.31,2.62.05,5.28-.83,7.87-1.21,3.77-.64,7.59-1.36,11.36-1.98,4.07-.66,8.22-1.26,12.24-2.22,2.61-.53,5.2-1.68,7.87-1.92,6.69.07,13.43-.15,20.1.09,4.6,1.05,9.26,2.16,13.99,2.47,4.64.42,9.35.15,13.99-.2,1.7-.13,3.54-.29,5.24-.43,1.71.17,3.54.54,5.24.72,5.99.34,11.72,2.32,17.48,3.84,3.4.86,7.03,1.41,10.49.56,2.64-.45,5.23-1.49,7.87-1.94,6.69-1.04,13.47-1.79,20.11-3.2"/><path class="b" d="M8.15,141.3c5.81-1.36,11.83.05,17.48,1.48,1.69.39,3.5.93,5.24.97,1.42-.19,2.98-.51,4.37-.82,6.39-1.43,12.84-2.76,19.23-4.21,3.2-.63,6.38-1.79,9.62-2.2,7.56-.3,15.17-.08,22.73-.11,3.79.67,7.53,1.91,11.36,2.36,5.19.8,10.5.87,15.73.67,6.97-.23,14.14-.99,20.98.73,2.61.81,5.26,1.82,7.87,2.62,3.63,1.18,7.61,1.5,11.36.78,2.94-.56,5.75-1.94,8.74-2.27,6.99-.87,14.06-1.35,20.98-2.73"/><path class="b" d="M8.15,140.63c5.94-2.24,12.39-.57,18.36.71,1.39.27,2.94.7,4.37.65,1.11-.15,2.41-.41,3.5-.66,7.63-1.8,15.18-4.04,22.73-6.15,6.08-.75,12.25-.52,18.36-.55,3.18.04,6.44-.09,9.62.06,2.33.39,4.68,1.16,6.99,1.63,6.29,1.4,12.8,1.81,19.23,1.73,5.81,0,11.7-.45,17.48.37,3.2.54,6.5,1.06,9.62,2.01,1.68.58,3.45,1.41,5.24,1.6,1.69.23,3.54.11,5.24.14,2.05.11,4.21-.21,6.12-1,1.93-.86,3.99-1.7,6.12-1.87,3.75-.47,7.6-.51,11.36-.82,3.79-.29,7.62-.81,11.36-1.41"/><path class="b" d="M8.15,139.85c5.36-1.66,9.38-1.75,14.86-.68,2.87.36,5.85,1.49,8.74.91,7.82-1.41,15.18-4.59,22.73-6.93,6.39-.34,12.83-.26,19.23-.27,4.37.1,8.88-.45,13.11.91,7.12,1.89,14.51,2.59,21.85,2.68,6.69.14,13.49-.25,20.1,1.01,4.11.74,8.17,1.98,12.24,2.88,2.58.17,5.28.03,7.87.07,1.47.04,3.14-.32,4.37-1.15,1.3-.94,2.69-2.03,4.37-2.14,4.03-.56,8.18-.25,12.24-.37,4.67-.08,9.37-.54,13.99-1.2"/><path class="b" d="M8.15,138.24c1.11.33,2.39.17,3.5-.07,1.69-.31,3.52-.64,5.24-.7,3.5-.15,7.03.54,10.49.94,3.53.44,7.12-.77,10.49-1.7,3.25-1.02,6.52-2.23,9.62-3.64,1.66-.72,3.44-1.63,5.24-1.92,1.1-.05,2.4-.03,3.5-.03,8.15.07,16.34-.13,24.48.08,2.91.46,5.83,1.34,8.74,1.84,4.02.77,8.15,1.23,12.24,1.46,8.73.64,17.61-.08,26.22,1.72,4.06.78,8.11,2.06,12.24,2.44,1.7,0,3.55,0,5.24,0,1.1,0,2.45.05,3.5-.34,2.09-1.45,2.16-5.21,4.37-6.46,2.64,2.03,6.44,1.92,9.62,2.44,6.96.84,14.03.61,20.98-.27"/><path class="b" d="M8.15,135.61c1.98.5,4.09.92,6.12,1.11,2-.08,4.11-.33,6.12-.27,2.01.03,4.12.24,6.12.37,3.23-.16,6.51-.7,9.62-1.57,2.67-.75,5.36-1.77,7.87-2.95,2.02-.89,3.98-2.25,6.12-2.84,2.59-.18,5.28-.03,7.87-.08,6.69.07,13.43-.15,20.1.09,5.8,1.01,11.59,2.38,17.48,2.83,7.84.77,15.76.66,23.6,1.31,3.82.32,7.62,1.22,11.36,2,5.39,1.25,11.35,2.25,16.61-.01,1.03-.49,2.04-1.63,2.62-2.59,0,0,.87-1.31.87-1.31l.87-.5c2.95-1.4,4.59-2.77,7.87-.86,7.67,3.3,16.33,2.92,24.48,2.21"/><path class="b" d="M8.15,133.03c9.73,2.14,20.15,2.6,29.72-.52,2.08-.69,4.2-1.63,6.12-2.67,1.39-.73,2.84-1.77,4.37-2.18,1.7-.09,3.54-.03,5.24-.04,6.98.06,14-.12,20.98.07,5.52.78,11.04,1.93,16.61,2.43,5.22.49,10.5.78,15.73,1.03,4.95.24,9.98.41,14.86,1.32,4.65.86,9.27,2.23,13.99,2.66,2.94.07,5.97-.46,8.74-1.41,1.15-.37,2.38-1.13,3.5-1.58.76-.2,1.85-.43,2.62-.57,2.05-.2,4.12-.85,6.12-1.27,2.27-.44,4.69-.63,6.99-.64,1.13-.11,2.43.2,3.5.56,1.07.28,2.4.53,3.5.68,4.33.56,8.77.45,13.11.17"/><path class="b" d="M8.15,130.66c9.5,1.46,19.5,2.58,28.85-.3,3.09-.9,5.93-2.6,8.74-4.13,1.32-.59,2.96-.28,4.37-.36,6.69.02,13.42-.04,20.1.02,7.55.99,15.11,2.16,22.73,2.51,7.56.54,15.19.67,22.73,1.53,4.12.49,8.18,1.65,12.24,2.5,1.98.43,4.09.87,6.12.95,1.72-.09,3.57-.37,5.24-.75,2.05-.4,4.1-1.27,6.12-1.78,2.27-.4,4.69-.53,6.99-.59,5.5-.61,11.07-.89,16.61-.71,4.94-.07,9.92.26,14.86.09"/><path class="b" d="M8.15,128.49c8.97.9,18.23,1.92,27.1-.28,3.09-.73,5.95-2.29,8.74-3.75,1.62-.62,3.55-.23,5.24-.33,5.52,0,11.09,0,16.61,0,2.62.09,5.27.74,7.87,1.04,8.69,1.09,17.49,1.08,26.22,1.56,5.54.31,11.15.56,16.61,1.61,4.96,1,9.81,2.82,14.86,3.3,4.5,0,8.69-2.13,13.11-2.54,4.64-.4,9.34-.11,13.99-.41,8.44-.04,16.91,0,25.35-.07"/><path class="b" d="M8.15,126.45c7.84.34,15.83,1.45,23.6-.14,1.72-.42,3.58-.83,5.24-1.42,1.76-.6,3.53-1.57,5.24-2.28,2.24-.51,4.71-.11,6.99-.23,4.94.06,9.93-.13,14.86.08,4.33.7,8.71,1.51,13.11,1.63,11.06.44,22.22-.3,33.22,1.24,4.19.49,8.22,1.91,12.24,3.11,3.09.89,6.4,1.94,9.62,1.11,3.21-.57,6.33-1.96,9.62-2.12,4.05-.39,8.18-.08,12.24-.04,9.9-.05,19.82.17,29.72.07"/><path class="b" d="M8.15,124.51c7.85.1,15.82,1.07,23.6-.32,2.06-.38,4.19-1,6.12-1.81,1.67-.64,3.38-1.87,5.24-1.75,2.59,0,5.27,0,7.87,0,3.47.05,7.02-.11,10.49.08,5.18.98,10.44,1.9,15.73,1.81,12.21.01,24.78-2.06,36.71,1.36,4.63,1.41,9.06,4.08,13.99,4.28,2.68-.21,5.32-1.18,7.87-1.97,4-.83,8.18-.69,12.24-.59,11.93.52,23.9.49,35.84.65"/><path class="b" d="M8.15,122.62c8.14-.09,16.41.88,24.48-.59,3.33-.53,6.44-2,9.62-3.04,5.22-.26,10.51-.02,15.73-.1,2.64.03,5.26.97,7.87,1.3,4.02.64,8.17.83,12.24.6,10.73-.48,21.71-2.93,32.34-.41,7.06,1.81,12.36,8.54,20.1,5.01,4.92-2.19,10.49-1.65,15.73-1.51,12.51.74,25.07.7,37.59,1.09"/><path class="b" d="M8.15,120.75c8.44-.25,17,.8,25.35-.83,2.04-.39,4.16-1,6.12-1.7,1.37-.47,2.89-1.14,4.37-1.08,4.35.01,8.76-.02,13.11.01,3.2.44,6.39,1.43,9.62,1.72,8.49,1.17,16.93-.78,25.35-1.63,2.91-.32,5.86.41,8.74.69,3.75.43,7.59.44,11.36.42.96-.05,1.91.79,2.62,1.33.76.62,1.85,1.42,2.62,2.03,4.9,4,7.66,3.69,13.11.97,4.51-1.36,9.36-.75,13.99-.59,13.09.95,26.24.87,39.34,1.53"/><path class="b" d="M8.15,118.89c7.85-.33,15.79.55,23.6-.56,3.89-.43,7.61-1.85,11.36-2.85,2.58-.19,5.28-.03,7.87-.08,2.62-.02,5.33-.13,7.87.64,5.69,1.37,11.65,1.84,17.48,1.27,4.4-.32,8.71-1.74,13.11-1.91,3.24-.16,6.42.92,9.62,1.29,4.03.59,8.18.61,12.24.88,1.72.24,3.73.32,5.24,1.23,2.66,3.69,3.15,4.5,7.87,4.11,1.55-.41,2.86-1.75,4.37-2.26,3.91-1.33,8.2-.69,12.24-.5,14.24,1.26,28.57,1.15,42.83,2.09"/><path class="b" d="M8.15,117c7.85-.41,15.78.51,23.6-.54,3.87-.42,7.62-1.67,11.36-2.67,2.28-.31,4.7-.07,6.99-.14,2.01.03,4.16-.16,6.12.37,6.53,1.67,13.4,2.32,20.1,1.44,4.09-.47,8.08-2.09,12.24-1.81,3.51.36,6.96,1.63,10.49,1.95,5.21.79,10.7.32,15.73,2.07.9.37,1.97,1.15,2.62,1.87.25.51,1.24,1.41,1.75,1.65,1.4-.02,2.97.05,4.37-.06.86-.59,1.73-1.71,2.62-2.26,2.91-1.58,6.44-1.21,9.62-.98,4.64.43,9.33.88,13.99,1.19,11.35.75,22.75.82,34.09,1.62"/><path class="b" d="M8.15,115.06c7.85-.46,15.78.55,23.6-.46,3.86-.41,7.63-1.54,11.36-2.52,2.56-.4,5.28-.1,7.87-.19,3.26-.16,6.41,1.18,9.62,1.58,4.89.75,9.95.9,14.86.21,3.8-.51,7.47-2.16,11.36-1.79,2.93.42,5.8,1.56,8.74,1.99,3.73.67,7.59.9,11.36,1.26,2.65.3,5.47.69,7.87,1.91,1.2.6,2.24,1.91,3.5,2.38,1.4-.05,3,.15,4.37-.17.59-1.62,1.58-3.51,3.5-3.73,2.88-.44,5.88-.06,8.74.33,4.34.61,8.74,1.09,13.11,1.42,11.92.91,23.91.99,35.84,1.85"/><path class="b" d="M8.15,113.06c7.57-.49,15.18.58,22.73-.22,4.15-.36,8.22-1.46,12.24-2.48,2.27-.41,4.7-.14,6.99-.21,2.95-.05,5.83,1.15,8.74,1.54,4.6.76,9.35.95,13.99.49,2.65-.25,5.32-.95,7.87-1.68,2.89-.83,5.97-.18,8.74.77,2.54.75,5.24,1.28,7.87,1.63,4.64.65,9.43.68,13.99,1.88,2.24.41,4.1,2.01,6.12,2.91,1.09,0,2.41.02,3.5-.02,1.28-1.56,1.34-4.78,2.62-6.34,2.68,1.36,5.84,1.51,8.74,2.11,6.32,1.32,12.79,2.01,19.23,2.42,6.1.45,12.25.57,18.36.88,4.65.12,9.34.64,13.99.66"/><path class="b" d="M8.15,110.97c3.47-.14,7.02-.17,10.49,0,3.47.21,7.02.4,10.49.12,3.21-.22,6.48-.7,9.62-1.44,2.56-.61,5.2-1.44,7.87-1.25,3.93-.32,7.54,1.05,11.36,1.64,4.6.71,9.35.89,13.99.41,2.66-.25,5.32-.98,7.87-1.76,2.94-.86,5.96.17,8.74,1.1,2.25.67,4.67,1.17,6.99,1.5,5.23.78,10.63.81,15.73,2.29,1.48.44,3.02,1.25,4.37,2,5.08,2.02,6.24-3.29,8.74-6.41l.87-.36c2.61,1.68,5.79,2.25,8.74,3.04,6.85,1.69,13.96,2.13,20.98,2.57,5.81.35,11.67.52,17.48.79,3.77.14,7.6.67,11.36.23"/><path class="b" d="M8.15,108.78c3.18-.14,6.44-.16,9.62.02,2.59.13,5.27.48,7.87.45,5.3.02,10.6-.79,15.73-2.05,2.82-.68,5.9-.79,8.74-.24,7.67,1.94,15.77,2.76,23.6,1.39,2.35-.33,4.63-1.51,6.99-1.7,2.42-.2,4.72.92,6.99,1.57,2.54.76,5.24,1.27,7.87,1.62,4.65.63,9.42.81,13.99,1.95,1.79.4,3.6,1.22,5.24,2,1.38.68,3.12.37,4.37-.47,1.56-1,3.03-2.48,4.37-3.74.98-.86,2.16-2.1,3.5-2.35,9.4,4.78,20.28,5,30.59,5.64,4.64.24,9.34.38,13.99.61,2,.1,4.12.23,6.12.37,2-.04,4.13-.21,6.12-.43"/><path class="b" d="M8.15,106.47c3.18-.15,6.44-.14,9.62.1,2.6.19,5.26.63,7.87.63,4.99.08,10-.61,14.86-1.67,3.15-.79,6.49-.88,9.62.05,7.96,1.87,16.45,2.5,24.48.7,2.28-.55,4.58-1.74,6.99-1.32,2.05.44,4.09,1.34,6.12,1.86,2.26.63,4.67,1.07,6.99,1.38,4.65.63,9.41.85,13.99,1.95,2.08.42,4.1,1.46,6.12,2.08,1.14.34,2.47-.29,3.5-.75,3.52-1.76,6.63-4.54,10.49-5.58,9.18,4.6,19.68,4.73,29.72,5.31,4.06.19,8.18.32,12.24.53,4.37.38,8.78.34,13.11-.38"/><path class="b" d="M8.15,104.06c3.18-.16,6.44-.12,9.62.19,3.47.39,6.98,1.03,10.49.86,3.2-.07,6.46-.45,9.62-1,2.57-.39,5.25-1.23,7.87-.85,7.71,1.83,15.67,2.99,23.6,2.11,2.03-.21,4.16-.61,6.12-1.22,1.94-.68,4.07-1.43,6.12-.73,3.42,1.13,6.91,2.3,10.49,2.81,4.62.78,9.39.93,13.99,1.86,2.38.39,4.74,1.22,6.99,2.05,2.06.93,4.22-.41,6.12-1.19,2.27-1.05,4.62-2.22,6.99-3.02,1.64-.46,3.53-1.22,5.24-.85,1.07.51,2.38,1.05,3.5,1.44,2.8.96,5.81,1.51,8.74,1.89,7.24.89,14.57,1.09,21.85,1.4,2.89.12,5.86.26,8.74.46,3.2-.12,6.48-.37,9.62-1.01"/><path class="b" d="M8.15,101.69c3.48-.13,7.03-.1,10.49.32,3.17.47,6.4,1.09,9.62.99,3.2-.02,6.46-.37,9.62-.86,2.59-.38,5.29-1.08,7.87-.28,7.4,1.84,15.12,2.61,22.73,1.88,2.03-.2,4.16-.58,6.12-1.15,2.47-.81,4.39-1.73,6.99-.69,3.95,1.41,8.07,2.49,12.24,2.97,5.25.71,10.68.9,15.73,2.6,3.74,1.26,4.02,1.74,7.87.21,3.41-1.27,6.89-2.66,10.49-3.29,1.68-.19,3.57-.66,5.24-.35.75.34,1.84.76,2.62,1.02,2.81.93,5.81,1.43,8.74,1.79,6.66.77,13.41.96,20.11,1.25,2.59.11,5.28.24,7.87.41,3.79-.15,7.68-.42,11.36-1.38"/><path class="b" d="M8.15,99.65c3.47.04,7.02-.12,10.49.12,3.47.43,6.97,1.23,10.49,1.08,4.09,0,8.18-.68,12.24-1.12,2.04.05,4.12.76,6.12,1.13,7.15,1.49,14.59,1.92,21.85,1.06,2.04-.26,4.17-.74,6.12-1.41,2.29-.95,3.77-1.14,6.12-.25,6.43,2.45,13.33,3,20.11,3.82,3.59.4,7.04,1.65,10.49,2.65.78.33,1.85.04,2.62-.2,1.41-.41,2.97-.94,4.37-1.38,3.39-1.07,6.94-1.94,10.49-2.17,1.4-.07,2.97-.17,4.37-.27,1.09.38,2.38.87,3.5,1.17,2.83.77,5.83,1.19,8.74,1.48,5.8.57,11.66.76,17.48,1.02,6.71.44,13.61.58,20.11-1.43"/><path class="b" d="M8.15,97.9c4.06.01,8.18-.03,12.24.02,2.88.31,5.83.86,8.74.81,3.79.09,7.59-.53,11.36-.72,1.72.25,3.54.72,5.24,1.08,7.43,1.59,15.16,2.07,22.73,1.28,2.03-.23,4.17-.64,6.12-1.27,2.1-.71,3.88-1.68,6.12-.81,2.57.8,5.22,1.71,7.87,2.23,3.73.78,7.59,1.11,11.36,1.59,3.9.35,7.62,1.73,11.36,2.79,1.1.43,2.42,0,3.5-.31,1.09-.32,2.4-.7,3.5-1.01,3.4-.95,6.96-1.64,10.49-1.85,2-.09,4.12-.12,6.12-.2,3.14.8,6.36,1.72,9.62,2,6.08.71,12.25.88,18.36,1.16,4.06.26,8.18.4,12.24-.09,2.95-.17,5.86-1.05,8.74-1.6"/><path class="b" d="M8.15,96.15c4.65,0,9.34-.01,13.99,0,2.59.2,5.26.55,7.87.53,2.89.02,5.86-.24,8.74-.44,2.34.2,4.69.94,6.99,1.37,7.74,1.52,15.77,1.95,23.6.99,2.04-.28,4.18-.76,6.12-1.45.78-.28,1.83-.69,2.62-.92.8-.15,1.85.04,2.62.25,2.87.85,5.79,1.84,8.74,2.36,3.45.66,7.02.97,10.49,1.45,3.6.37,7.02,1.81,10.49,2.74,1.1.43,2.41.26,3.5-.12,1.09-.3,2.4-.66,3.5-.94,3.41-.88,6.97-1.44,10.49-1.63,2.88-.07,5.86-.15,8.74-.03,2.81.88,5.82,1.33,8.74,1.65,7.54.69,15.16,1.03,22.73,1.21,2.89-.14,5.88-.32,8.74-.75,2.31-.38,4.67-1.06,6.99-1.34"/><path class="b" d="M8.15,94.41c5.23,0,10.5-.02,15.73,0,2.3.12,4.69.34,6.99.32,3.19.12,6.49-.65,9.62.19,9.68,2.36,19.82,3.28,29.72,1.91,1.74-.27,3.59-.71,5.24-1.29,1.38-.44,2.88-1.35,4.37-1.07,4.07.93,8.06,2.44,12.24,2.92,3.17.49,6.46.76,9.62,1.36,1.74.37,3.54,1.1,5.24,1.61,1.38.46,2.95.92,4.37,1.23,1.12-.09,2.41-.51,3.5-.78,3.12-.84,6.39-1.46,9.62-1.74,4.34-.39,8.76-.17,13.11-.09,3.41.89,6.98,1.32,10.49,1.6,3.76.3,7.6.46,11.36.63,2.89.12,5.85.36,8.74.11,2.6-.14,5.29-.33,7.87-.74,2.58-.51,5.25-1.02,7.87-1.35"/><path class="b" d="M8.15,92.66c6.11.04,12.25-.08,18.36.05,3.77.3,7.6,0,11.36.09,3.2.54,6.4,1.47,9.62,1.96,4.03.66,8.16.97,12.24,1.03,4.37.04,8.83-.13,13.11-1.09,2.08-.42,4.11-1.38,6.12-1.99,3.28-.09,6.41,1.58,9.62,2.1,4.02.88,8.19,1.17,12.24,1.9,2.64.67,5.24,1.81,7.87,2.55.76.22,1.83.51,2.62.59.78-.18,1.85-.45,2.62-.65,7.95-2.26,16.31-1.97,24.48-1.52,4.02.78,8.15,1.25,12.24,1.47,5.81.29,11.67.81,17.48.31,5.29-.21,10.49-1.46,15.74-2.02"/><path class="b" d="M8.15,90.91c9.9,0,19.84-.04,29.72.18,3.19.6,6.4,1.52,9.62,2,4.32.7,8.74,1,13.11,1.02,6.22.04,12.61-.47,18.36-3.03,1.71-.45,3.59.15,5.24.58,2.27.64,4.67,1.23,6.99,1.62,3.17.57,6.47.81,9.62,1.49,3.14,1.17,6.35,2.45,9.62,3.24,2.27,0,4.7-1.11,6.99-1.39,3.44-.62,7-.82,10.49-.81,3.77.05,7.6.26,11.36.52,4.04.59,8.15,1.08,12.24,1.25,2.88.15,5.85.3,8.74.4,3.18-.13,6.44-.27,9.62-.54,4.66-.48,9.32-1.34,13.99-1.78"/><path class="b" d="M8.15,89.16c9.61-.08,19.24.13,28.85.06,3.22.47,6.4,1.52,9.62,2.04,4.31.76,8.74,1.1,13.11,1.16,6.48.03,13.23-.2,19.23-2.89,1.64-.66,3.58-.3,5.24.09,1.99.5,4.1,1.05,6.12,1.43,3.16.62,6.45.92,9.62,1.52,1.99.82,4.11,1.65,6.12,2.39,1.37.51,2.94,1.02,4.37,1.34,2.33-.18,4.66-1.13,6.99-1.41,4.31-.69,8.76-.74,13.11-.54,4.95.2,9.94.61,14.86,1.21,3.76.34,7.59.51,11.36.67,4.36-.06,8.77-.33,13.11-.71,4.64-.59,9.33-1.17,13.99-1.61"/><path class="b" d="M8.15,87.41c9.61-.07,19.24.1,28.85.09,2.65.22,5.26,1.22,7.87,1.7,3.14.67,6.41,1.08,9.62,1.3,7.85.36,16.12.64,23.6-2.13,3.29-1.83,7.07-.61,10.49.16,3.15.71,6.43,1.1,9.62,1.59,2.43.44,4.67,1.89,6.99,2.68,1.94.67,4.03,1.82,6.12,1.67,2.85-.74,5.8-1.42,8.74-1.65,5.52-.48,11.1-.07,16.61.34,6.39.45,12.81,1.41,19.23,1.26,9.36-.23,18.66-1.47,27.97-2.28"/><path class="b" d="M8.15,85.66c6.11,0,12.25,0,18.36,0,3.77.05,7.59.31,11.36.15,2.92.49,5.81,1.54,8.74,2.02,4.59.86,9.32,1.16,13.99,1.2,6.15-.06,12.57-.17,18.36-2.5,2.97-1.52,6.49-.81,9.62-.18,2.57.53,5.26.94,7.87,1.3.78.11,1.85.27,2.62.45.77.39,1.84.91,2.62,1.28,2.82,1.28,5.72,2.68,8.74,3.4,1.13.06,2.4-.45,3.5-.67,1.38-.33,2.96-.62,4.37-.78,5.51-.62,11.1-.27,16.61.2,5.52.42,11.07,1.05,16.61,1.26,10.8-.37,21.57-1.48,32.34-2.34"/><path class="b" d="M8.15,83.91c6.11,0,12.25,0,18.36,0,3.77.11,7.59.46,11.36.3,2.07-.11,4.11.94,6.12,1.33,3.13.78,6.4,1.26,9.62,1.51,8.12.47,18.63.73,26.22-2.34,1.59-.87,3.48-.85,5.24-.8,3.8.04,7.58,1.08,11.36,1.45,1.58.07,3.04.67,4.37,1.49,1.97,1.02,4.08,2.06,6.12,2.94,1.36.53,2.9,1.19,4.37,1.27,1.09-.27,2.4-.62,3.5-.86,6.02-1.25,12.28-.95,18.36-.39,4.94.41,9.91.92,14.86,1.21,11.96-.4,23.9-1.51,35.84-2.31"/><path class="b" d="M8.15,82.16c6.11,0,12.25,0,18.36,0,4.06.28,8.17.7,12.24.51,2.08-.15,4.1.98,6.12,1.35,3.13.77,6.41,1.19,9.62,1.4,4.64.3,9.35.27,13.99-.05,4.14-.32,8.4-.82,12.24-2.47,1.59-.86,3.49-.78,5.24-.75,3.79-.12,7.6.59,11.36.97,1.25.01,2.44.93,3.5,1.5,1.97,1.11,4.07,2.25,6.12,3.2,1.35.62,2.92,1.19,4.37,1.51,1.11-.19,2.4-.58,3.5-.82,5.72-1.22,11.69-.92,17.48-.4,4.64.45,9.33.94,13.99,1.16,2.29-.15,4.7-.32,6.99-.45,10.2-.5,20.4-1.26,30.6-1.85"/><path class="b" d="M8.15,80.42c5.81,0,11.67,0,17.48,0,4.93.46,9.9,1.16,14.86.84,1.16-.06,2.39.59,3.5.85,1.39.39,2.95.74,4.37.98,4.6.77,9.33.92,13.99.86,6.77-.2,13.81-.39,20.1-3.16,1.62-.64,3.54-.3,5.24-.38,3.48-.07,7.02.15,10.49.46,3.85,1.83,7.31,4.61,11.36,6.06.76.27,1.81.63,2.62.61,1.39-.36,2.95-.77,4.37-1.02,2.86-.47,5.85-.52,8.74-.49,5.84.16,11.66,1.11,17.48,1.45,4.64-.06,9.34-.65,13.99-.79,9.03-.38,18.07-1.01,27.1-1.43"/><path class="b" d="M8.15,78.67c5.81.04,11.67-.08,17.48.05,5.47.94,11.04,1.65,16.61,1.24,7.04,2.26,14.51,2.53,21.85,2.28,6.48-.29,13.2-.56,19.23-3.17,2.19-.76,4.71-.26,6.99-.4,2.88.11,5.9-.25,8.74.22,4.09,1.94,9.42,6.86,13.99,6.86,3.66-1.1,7.55-1.41,11.36-1.36,5.85,0,11.65,1.26,17.48,1.38,8.13-.73,16.32-1.05,24.48-1.38,5.82-.22,11.66-.67,17.48-.82"/><path class="b" d="M8.15,76.92c5.52.04,11.09-.08,16.61.05,5.17,1.12,10.42,2.16,15.73,1.98,1.1,0,2.4-.09,3.5-.11.78.25,1.83.55,2.62.73,2.56.57,5.26.85,7.87.99,5.23.26,10.52.07,15.73-.33,4.42-.36,8.96-.85,13.11-2.52,2.69-1.28,5.76-.64,8.74-.78,1.7,0,3.54,0,5.24,0,1.11.02,2.48-.15,3.5.42,3.76,2.17,7.14,5.22,11.36,6.51,1.69.61,3.54-.53,5.24-.66,2.57-.4,5.27-.46,7.87-.42,4.67.11,9.34.93,13.99,1.29,2.89-.16,5.85-.54,8.74-.7,6.39-.44,12.83-.6,19.23-.84,5.52-.19,11.08-.57,16.61-.66"/><path class="b" d="M8.15,75.74c5.21-.55,10.5-.7,15.73-.54,3.47.8,6.91,2.06,10.49,2.38,3.46.42,7.02.47,10.49.23,2.3.24,4.66.94,6.99,1.02,5.22.4,10.51.21,15.73-.11,4.37-.32,8.84-.59,13.11-1.62,2.06-.45,4.08-1.42,6.12-1.92,4.64-.07,9.34,0,13.99-.03,1.99.31,3.61,1.97,5.24,3.04,2.38,1.71,4.99,3.4,7.87,4.12,1.43-.07,2.95-.67,4.37-.84,2.57-.35,5.28-.42,7.87-.33,4.08.12,8.17.91,12.24,1.15,4.05-.45,8.17-.84,12.24-1.05,11.06-.44,22.15-.83,33.22-1.13"/><path class="b" d="M8.15,74.91c3.19-.15,6.44-.48,9.62-.85,1.99-.13,4.14-.73,6.12-.41,3.65,1.42,7.44,2.71,11.36,3.08,2.58.3,5.27.4,7.87.33,1.71,0,3.56-.4,5.24-.02,5.2.72,10.51.51,15.73.26,4.95-.31,9.96-.62,14.86-1.37,1.73-.29,3.57-.7,5.24-1.23,1.4-.41,2.9-1.16,4.37-1.29,4.35,0,8.76,0,13.11,0,2.05-.17,3.69,1.61,5.24,2.69,2.37,1.8,4.96,3.63,7.87,4.41,1.43.17,2.95-.57,4.37-.68,2.57-.32,5.28-.4,7.87-.26,3.19.18,6.44.63,9.62.98,4.64-.42,9.32-1.02,13.99-1.2,11.06-.39,22.15-.71,33.22-.94"/><path class="b" d="M8.15,74.01c5.53-.14,11.17-.25,16.61-1.31,5.33,2.86,11.51,3.57,17.48,3.54,2.6.09,5.28-.49,7.87-.28,6.4.37,12.85-.15,19.23-.65,5.86-.53,11.87-.84,17.48-2.75,1.36-.5,2.9-1.03,4.37-.9,2,0,4.12,0,6.12,0,1.7,0,3.54,0,5.24,0,1.19-.1,2.54.09,3.5.87,3.04,2.21,5.93,5.02,9.62,6.12,1.09.45,2.4-.14,3.5-.29,4.32-.71,8.78-.47,13.11.05,1.09.12,2.4.31,3.5.36,1.4-.15,2.97-.32,4.37-.46,3.17-.35,6.43-.67,9.62-.81,11.35-.4,22.74-.62,34.09-.81"/><path class="b" d="M8.15,72.99c5.81.03,11.71.3,17.48-.42,1.48.15,2.91,1.17,4.37,1.48,2.82.81,5.82,1.14,8.74,1.28,4.07.23,8.19-.1,12.24-.51,4.95,0,9.93-.39,14.86-.81,7.58-.81,15.4-.9,22.73-3.21,1.08-.35,2.34-.89,3.5-.88,2.3,0,4.7,0,6.99,0,1.7,0,3.54,0,5.24,0,1.2-.1,2.55.09,3.5.9,3.25,2.4,6.31,5.71,10.49,6.33,1.97-.47,4.1-.69,6.12-.76,3.49-.23,7.02.4,10.49.62,2.59-.3,5.27-.64,7.87-.89,7.25-.75,14.58-.72,21.85-.84,6.4-.06,12.83-.33,19.23-.32"/><path class="b" d="M8.15,71.87c6.1.24,12.25.62,18.36.66,1.44-.11,2.93.89,4.37,1.08,2.84.62,5.84.8,8.74.86,4.37.08,8.79-.2,13.11-.83,3.77-.25,7.6-.61,11.36-.99,8.14-1,16.46-1.19,24.48-3.02,1.43-.35,2.96-.95,4.37-1.35,2.58-.23,5.28-.04,7.87-.1,1.7,0,3.54,0,5.24,0,1.19-.1,2.56.07,3.5.89,3.21,2.47,6.23,5.9,10.49,6.34,1.68-.35,3.53-.5,5.24-.56,2.9-.2,5.86.25,8.74.43,3.76-.46,7.58-1.03,11.36-1.3,6.68-.49,13.41-.43,20.1-.52,6.11-.05,12.25-.26,18.36-.24"/><path class="b" d="M8.15,70.65c6.11.41,12.27.82,18.36,1.52,2.03.15,4.1.74,6.12.94,2.88.29,5.85.32,8.74.28,7.34,0,14.58-1.39,21.85-2.19,8.13-1.12,16.36-1.57,24.48-2.77,1.73-.28,3.59-.73,5.24-1.31,1.34-.59,2.92-.78,4.37-.69,2.59,0,5.28,0,7.87,0,1.69.13,3.68-.36,5.24.41,3.55,2.56,6.63,6.62,11.36,6.82,3.74-.59,7.61-.44,11.36-.1,4.06-.49,8.15-1.2,12.24-1.47,6.39-.45,12.83-.35,19.23-.41,6.4-.02,12.83-.21,19.23-.19"/><path class="b" d="M8.15,69.35c7.3.55,14.63,1.29,21.85,2.5,4.33.48,8.77.23,13.11.19,3.19-.1,6.45-.28,9.62-.7,3.48-.55,7-1.23,10.49-1.71,7.52-1.19,15.15-1.81,22.73-2.54,2.32-.24,4.74-.54,6.99-1.16,1.42-.34,2.9-1.18,4.37-1.24,4.64.11,9.37-.22,13.99.14,3.3,2.02,5.67,5.7,9.62,6.68,2.53.81,5.27.04,7.87.18,1.71.02,3.55.3,5.24-.04,3.76-.52,7.57-1.17,11.36-1.42,6.1-.42,12.25-.28,18.36-.32,6.69,0,13.42-.16,20.11-.13"/><path class="b" d="M8.15,67.89c7,.65,14,1.59,20.98,2.48,6.39.21,12.84.16,19.23-.03,5.63-.14,11.08-1.75,16.61-2.65,6.64-1.17,13.39-1.75,20.1-2.25,2.6-.21,5.3-.39,7.87-.9,1.77-.3,3.52-1.14,5.24-1.6,4.64-.01,9.34-.05,13.99.01,1.33.49,2.48,1.78,3.5,2.72,1.5,1.44,3.28,2.9,5.24,3.66,2.19.93,4.66.87,6.99.78,3.21.11,6.45-.24,9.62-.81,4.61-.76,9.32-1.15,13.99-1.19,10.77,0,21.57-.05,32.34-.06"/><path class="b" d="M8.15,66.32c7,.6,13.96,2.01,20.98,2.4,4.65.02,9.34-.02,13.99-.06,3.48.01,7.03.19,10.49-.25,4.15-.41,8.13-1.95,12.24-2.64,5.75-1.14,11.64-1.68,17.48-2.03,5.3-.33,10.79-.33,15.73-2.51,4.64-.14,9.34-.02,13.99-.05,1.37.39,2.48,1.73,3.5,2.65,1.01.98,2.29,2.08,3.5,2.81,5.3,2.97,11.77,1.7,17.48.85,4.6-.79,9.32-1.2,13.99-1.21,10.77.06,21.57.05,32.34.08"/><path class="b" d="M8.15,64.69c7.01.51,13.94,2.29,20.98,2.28,4.65,0,9.34-.17,13.99-.21,4.06.02,8.2.5,12.24-.09,3.61-.37,6.97-2.01,10.49-2.76,5.43-1.29,11.04-1.77,16.61-2.03,5.87-.36,11.98.01,17.48-2.41,4.64-.09,9.34-.02,13.99-.03,2.4.97,3.93,3.53,6.12,4.89,5.39,3.61,12.35,2.19,18.36,1.25,4.6-.8,9.32-1.14,13.99-1.1,10.48.14,20.99.16,31.47.24"/><path class="b" d="M8.15,63.01c4.96.44,9.93,1.22,14.86,1.95,2.88.38,5.85.25,8.74.1,4.06-.26,8.18-.38,12.24-.2,4.05.17,8.2.68,12.24.14,2.06-.3,4.19-.89,6.12-1.67,1.39-.59,2.87-1.37,4.37-1.65,4.53-1.32,9.3-1.54,13.99-1.74,3.18-.15,6.44-.2,9.62-.31,2.93-.11,6.01-.31,8.74-1.48,1.89-.81,4.12-.36,6.12-.47,2.89,0,5.86,0,8.74,0,.95-.12,1.96.61,2.62,1.22,1.07,1,2.33,2.23,3.5,3.12,4.68,3.62,11.12,2.96,16.61,2.08,4.89-.89,9.88-1.49,14.86-1.45,10.77.15,21.57.31,32.34.4"/><path class="b" d="M8.15,61.27c5.56.44,11.08,1.49,16.61,2.13,2.89.19,5.86-.15,8.74-.35,2.59-.2,5.27-.44,7.87-.36,4.93.41,9.91,1.07,14.86.71,2.4-.26,4.81-1.05,6.99-2.06,1.5-.58,2.81-1.95,4.37-2.34,3.39-.92,6.99-1.06,10.49-1.14,5.81-.27,11.7.06,17.48-.61,1.77-.18,3.51-1.05,5.24-1.31,4.06,0,8.18,0,12.24,0,5.79-.7,5.39,6.94,16.61,6.98,6.76.1,13.34-2.1,20.11-2.04,5.23-.11,10.51.16,15.73.25,6.11.14,12.25.13,18.36.28"/><path class="b" d="M8.15,59.5c3.49.31,7.03.75,10.49,1.28,2.87.4,5.83,1.06,8.74.88,4.66-.12,9.32-.94,13.99-.88,2.63-.04,5.25.82,7.87.9,3.76-.05,7.8.58,11.36-.88,2.82-1.21,5.39-3.11,7.87-4.89,2.27-.41,4.69-.46,6.99-.45,6.1.01,12.26.19,18.36-.14,2.05-.1,4.13-.67,6.12-1.12,4.06-.06,8.18,0,12.24-.03,1.41.08,3.14-.31,4.37.55,3.56,2.95,6.44,5.85,11.36,6.21,6.76.71,13.39-1.46,20.1-1.78,6.1-.33,12.25.08,18.36.21,5.81.22,11.68.07,17.48.43"/><path class="b" d="M8.15,57.68c3.49.3,7.03.74,10.49,1.27,2.59.35,5.25.96,7.87.97,6.11-.13,12.25-1.38,18.36-.64,1.41.17,2.95.57,4.37.69,1.4,0,2.97,0,4.37,0,2.01-.06,4.23.27,6.12-.61,3.19-1.41,5.9-3.8,8.74-5.76.43-.28,1.27-.77,1.75-.95,1.1.02,2.4.06,3.5.11,6.39.37,12.83.6,19.23.34,2.02-.06,4.11-.51,6.12-.67,3.77,0,7.6,0,11.36,0,1.7.03,3.55-.08,5.24.08,1.62.66,2.99,2.11,4.37,3.14,1.53,1.2,3.37,2.29,5.24,2.85,5.13,1.45,10.57.53,15.73-.26,7.79-1.37,15.74-1.04,23.6-.75,6.4.29,12.84.14,19.23.58"/><path class="b" d="M8.15,55.85c6.16.35,12.23,1.73,18.36,2.32,5.24-.17,10.49-1.01,15.73-.85,2.92,0,5.84.82,8.74.91,1.4,0,2.97,0,4.37,0,1.1-.03,2.44.13,3.5-.25,2.6-1.21,4.74-3.38,6.99-5.11,2.11-1.72,3.35-2.41,6.12-2.19,5.52-.08,11.09.2,16.61.21,6.98-.19,13.99-.25,20.98-.21,1.7,0,3.54,0,5.24,0,1.67.13,3.07,1.52,4.37,2.45,1.58,1.21,3.38,2.41,5.24,3.14,3.87,1.47,8.18,1.33,12.24.89,3.77-.44,7.57-1.17,11.36-1.48,4.05-.35,8.18-.32,12.24-.21,7.86.34,15.76.24,23.6.74"/><path class="b" d="M8.15,54.07c6.45.32,12.81,1.75,19.23,2.28,5.81-.24,11.66-1.15,17.48-.69,2.31.15,4.68.74,6.99.83,2.29-.1,4.74.24,6.99-.19,2.85-2.04,4.56-5.71,7.87-7.18,1.08-.29,2.4-.14,3.5-.17,12.81,0,25.65,0,38.46,0,2,.02,4.12-.04,6.12.03,1.59.38,3.04,1.55,4.37,2.45,1.6,1.12,3.41,2.25,5.24,2.96,3.58,1.39,7.58,1.45,11.36,1.17,6.12-.57,12.2-1.87,18.36-1.95,4.94-.15,9.92.07,14.86.16,4.94.04,9.93.14,14.86.48"/><path class="b" d="M8.15,52.51c6.72.34,13.41,1.39,20.1,2,4.94-.18,9.91-.75,14.86-.68,3.79,0,7.57,1.05,11.36.9,1.41-.03,3.04.16,4.37-.41,2.7-1.32,3.66-4.66,5.24-6.98,4.03-.37,8.19-.04,12.24-.15,7.27,0,14.58,0,21.85,0,3.47,0,7.02,0,10.49,0,1.99.09,4.16-.21,6.12.19,2.78,1.07,5.17,3.13,7.87,4.38,4.57,2.29,9.87,2.41,14.86,1.95,5.82-.59,11.62-1.74,17.48-1.95,5.23-.25,10.5-.11,15.73-.11,4.36-.14,8.76.31,13.11.47"/><path class="b" d="M8.15,50.97c7,.37,14,1.08,20.98,1.71,4.93,0,9.92-.64,14.86-.48,5.04-.11,12.32,2.43,16.61-.75,2.17-1.53,3.23-4.37,5.24-6,11.06-.04,22.15,0,33.22-.01,3.18,0,6.44,0,9.62,0,2,.09,4.22-.3,6.12.49,2.98,1.27,5.72,3.25,8.74,4.45,4.95,2.06,10.48,2.06,15.73,1.56,6.11-.66,12.21-1.8,18.36-2.08,4.93-.29,9.92-.3,14.86-.49,3.77.22,7.59.45,11.36.58"/><path class="b" d="M8.15,49.4c7.86.39,15.75.98,23.6,1.52,3.47-.18,7.01-.37,10.49-.4,2.3-.02,4.7.06,6.99.28,2.87.31,5.89.76,8.74.09,3.81-.83,6.15-4.22,8.74-6.82.46-.26,1.23-.49,1.75-.4,1.1,0,2.4,0,3.5,0,11.94,0,23.9,0,35.84,0,2.01.04,4.2-.22,6.12.54,4.67,1.83,8.97,4.78,13.99,5.65,9.01,1.72,18.13-.53,27.1-1.49,5.21-.54,10.5-.97,15.73-1.18,4.35.18,8.76.41,13.11.52"/><path class="b" d="M8.15,47.83c8.44.42,16.91.81,25.35,1.3,3.47-.1,7.01-.3,10.49-.26,4.66-.16,9.37,1.06,13.99.19,3.91-.63,6.81-3.66,9.62-6.21,1.38-1.36,3.5-.8,5.24-.91,11.65,0,23.32,0,34.97,0,3.04-.25,6,.81,8.74,2.04,3.4,1.49,6.85,3.11,10.49,3.93,11.02,2.41,22.23-.48,33.22-1.7,2.59-.28,5.27-.71,7.87-.87,5.23,0,10.51.21,15.74.28"/><path class="b" d="M8.15,46.24c9.02.42,18.07.7,27.1,1.07,3.47.06,7.01-.21,10.49-.11,4.36.02,8.79.74,13.11-.12,3.21-.49,6.17-2.1,8.74-4.02,2.3-1.77,4.88-3.17,7.87-2.87,10.77,0,21.57,0,32.34,0,6.71.73,12.65,4.61,19.23,5.95,12.47,2.62,25.22-.24,37.59-2.11,6.38-.46,12.84-.28,19.23-.28"/><path class="b" d="M8.15,44.64c12.23.41,24.48.97,36.71.87,4.65-.01,9.36.47,13.99-.2,3.01-.35,6.03-1.25,8.74-2.61,3.31-1.74,6.7-3.59,10.49-3.97,2.28-.39,4.69-.28,6.99-.29,2.89,0,5.85,0,8.74,0,2.59,0,5.28,0,7.87,0,2.01.01,4.15-.11,6.12.33,7.13,1.44,13.8,4.73,20.98,5.97,11.63,1.98,23.44.15,34.97-1.64,6.67-.63,13.41-.79,20.11-.81"/><path class="b" d="M8.15,43.04c9.9.36,19.82.54,29.72.69,7.27.04,14.6.44,21.85-.27,4.55-.39,8.92-1.93,13.11-3.68,2.52-.99,5.25-1.68,7.87-2.35,4.25-1.17,8.76-.61,13.11-.73,4.66.04,9.43-.33,13.99.9,7.91,1.71,15.54,4.8,23.6,5.82,8.11.95,16.36.66,24.48-.03,9.29-1.03,18.61-2.08,27.97-2.07"/><path class="b" d="M8.15,41.42c14.56.45,29.14.62,43.71.58,4.96-.04,10-.21,14.86-1.24,5.3-1.25,10.52-3.02,15.73-4.58,1.38-.43,2.94-.91,4.37-1.13,1.99-.2,4.12-.06,6.12-.1,2,.02,4.12-.06,6.12.07,2.92.27,5.87.88,8.74,1.46,9.31,1.89,18.44,5.04,27.97,5.66,3.47.24,7.01-.17,10.49-.04,3.77.01,7.59.4,11.36.23,8.73-.48,17.46-1.52,26.23-1.54"/><path class="b" d="M8.15,39.8c12.23.35,24.48.45,36.71.44,6.69-.08,13.44.02,20.11-.7,6.55-.84,13.04-2.52,19.23-4.79,1.67-.59,3.47-1.31,5.24-1.52,1.4-.03,2.97.03,4.37.12,4.39.33,8.78,1.14,13.11,1.87,9.91,1.7,19.66,4.6,29.72,5.31,7.27-.52,14.58-.51,21.85-.15,8.44.13,16.91.26,25.35-.02"/><path class="b" d="M8.15,38.17c13.1.38,26.23.23,39.34.31,12.94-.18,26.33-.19,38.46-5.3.78-.31,1.82-.76,2.62-1,2,.03,4.12.18,6.12.38,4.07.42,8.19.98,12.24,1.56,9.63,1.42,19.15,3.72,28.85,4.66,4.94-.15,9.91-.77,14.86-.92,11.06-.18,22.16-.09,33.22.25"/><path class="b" d="M8.15,36.55c13.1.4,26.23-.16,39.34.15,5.52.09,11.09-.17,16.61-.43,7.71-.37,15.58-1.28,22.73-4.37,1.04-.45,2.39-.27,3.5-.29,1.7.03,3.54.13,5.24.26,4.36.34,8.77.75,13.11,1.32,5.53.79,11.09,1.63,16.61,2.49,3.75.48,7.58,1.37,11.36,1.34,4.96-.3,9.92-1.09,14.86-1.62,10.77-.45,21.57-.92,32.34-.42"/><path class="b" d="M8.15,34.93c13.4.23,26.81-.44,40.21-.06,4.94.19,9.92.03,14.86-.2,4.65-.24,9.38-.43,13.99-1.16,2.02-.31,4.15-.74,6.12-1.3,1.11-.3,2.39-.81,3.5-1.12.78-.05,1.84-.09,2.62-.11,12.01-.16,23.96,1.56,35.84,3.12,3.47.43,6.99,1.09,10.49,1.25,2.9-.18,5.88-.5,8.74-1,2.3-.42,4.66-1.05,6.99-1.25,3.75-.44,7.59-.67,11.36-.82,6.96-.6,14-.79,20.98-.45"/><path class="b" d="M8.15,33.32c11.36-.18,22.73-.48,34.09-.37,8.15.02,16.33.52,24.48-.06,4.66-.25,9.38-.52,13.99-1.28,1.73-.28,3.56-.74,5.24-1.21,2.59-.2,5.27-.27,7.87-.26,12.88-.02,25.69,1.77,38.46,3.26,3.47.51,7.06-.02,10.49-.58,3.17-.73,6.37-1.65,9.62-2.04,5.49-.81,11.07-1.16,16.61-1.51,3.17-.32,6.43-.56,9.62-.64,1.7.02,3.58-.2,5.25.17"/><path class="b" d="M8.15,31.46c12.52-.24,25.06-.44,37.59-.33,7.28-.04,14.58.61,21.85.14,4.07-.19,8.19-.43,12.24-.9,2.32-.18,4.67-.88,6.99-.97,6.39-.36,12.84-.36,19.23-.04,6.41.44,12.84,1.04,19.23,1.66,2.89.29,5.85.7,8.74.91,2.3-.07,4.71-.2,6.99-.48,9.84-1.96,19.78-3.49,29.72-4.84,1.71-.39,3.54.21,5.24.41,2.58.32,5.28.49,7.87.76"/><path class="b" d="M8.15,29.57c13.98-.22,27.98-.39,41.96-.25,6.4-.07,12.84.62,19.23.31,4.65-.2,9.36-.46,13.99-1.04,3.45-.4,7.02-.4,10.49-.53,10.51-.36,21.01.63,31.47,1.48,6.08.66,12.25.89,18.36.53,6.14-.61,12.35-1.29,18.36-2.76,2.55-.4,5.28-.11,7.87-.28,4.64-.1,9.34-.2,13.99-.09"/><path class="b" d="M8.15,27.67c15.73-.15,31.47-.34,47.2-.15,3.18.05,6.44.13,9.62.28,2.3.1,4.69.34,6.99.17,4.36-.15,8.77-.47,13.11-.83,6.1-.23,12.25-.44,18.36-.35,9.91.29,19.82,1.18,29.72,1.64,7.56.2,15.16.03,22.73.08,9.37-.06,18.63-2.03,27.97-2.53"/><path class="b" d="M8.15,25.74c11.36-.03,22.73-.12,34.09-.13,10.19-.01,20.42-.08,30.59.64,4.35.16,8.76-.31,13.11-.47,6.1-.23,12.25-.36,18.36-.29,11.36.44,22.73.98,34.09,1.2,4.94-.13,9.92-.41,14.86-.43,5.23,0,10.5.42,15.73.44,4.97-.18,9.93-1,14.86-1.62"/><path class="b" d="M8.15,23.83c11.94,0,23.9,0,35.84-.05,11.36-.04,22.76-.14,34.09.79,11.05-.16,22.15-.81,33.22-.24,7.55.18,15.2.71,22.73-.12,1.8-.26,3.53-1.25,5.24-1.8,2.02-.67,4.04-1.81,6.12-2.28,2.32,1.47,5.21,1.82,7.87,2.24,3.46.48,7.01.84,10.49,1.23,4.35.47,8.74,1.05,13.11,1.31,2.31-.09,4.71-.43,6.99-.75"/><path class="b" d="M8.15,21.93c18.94.14,37.88-.07,56.82.03,6.12.05,12.26.48,18.36.93,6.39-.05,12.83-.26,19.23-.19,6.98-.03,14,.4,20.98.23,3.21-.16,6.81.01,9.62-1.79.56-.39,1.39-1.43,1.75-2,.39-.34,1.31-.96,1.75-1.23,1.57-.96,3.36-2.09,5.24-2.18.85.27,1.85.96,2.62,1.38,2.41,1.27,5.2,1.87,7.87,2.32,5.79.93,11.68,1.4,17.48,2.2,2.89.38,5.85.82,8.74,1.16,1.69.17,3.55.47,5.25.22"/><path class="b" d="M8.15,20.05c9.32-.03,18.66.16,27.97.13,10.48,0,20.99-.2,31.47-.09,6.7.01,13.41.62,20.1.93,4.35.23,8.76.04,13.11.01,4.94.05,9.92-.07,14.86.04,2.89.14,5.86.31,8.74.03,2.99-.15,6.33-.99,7.87-3.81.72-2.24,2.92-3.56,5.24-3.33,1.41.06,3.08-.24,4.37.44,3.24,1.68,6.9,2.5,10.49,3.01,5.5.79,11.09,1.14,16.61,1.75,4.96.5,9.92,1.36,14.86,1.94"/><path class="b" d="M8.15,18.18c9.32-.04,18.66.19,27.97.18,11.36,0,22.73-.23,34.09-.17,6.41-.02,12.83.56,19.23.84,4.35.24,8.76-.08,13.11,0,4.35.09,8.76-.03,13.11.18,3.77.29,7.75.71,11.36-.69,2.21-.87,3.51-3.29,4.37-5.36.84-.97,2.31-1,3.5-.93,1.4.02,2.97-.05,4.37.05,1.43.48,2.93,1.3,4.37,1.75,2.25.69,4.67,1.15,6.99,1.5,11.02,1.58,22.22,1.56,33.22,3.36"/></svg>