<?xml version="1.0" encoding="UTF-8"?><svg id="a" xmlns="http://www.w3.org/2000/svg" width="1920" height="2400" viewBox="0 0 192 240"><defs><style>.b{fill:none;stroke:#fff;stroke-miterlimit:10;stroke-width:.3px;}.c{stroke-width:0px;}</style></defs><rect class="c" x="0" width="192" height="240"/><path class="b" d="M8.92,220.34c8.07-.23,16.19-.07,24.26-.07,1.25.65,2.34,1.94,3.47,2.76,2.22,1.7,5.04,2.56,7.8,2.83,7.81.66,15.6-1.09,23.4-1.29,4.89-.2,9.84.18,14.73.12,6.06-.16,12.14-.67,18.2-.99,5.18-.32,10.41-.78,15.6-.52,10.96.49,21.97,1.32,32.93.38.76-.07,1.83-.21,2.6-.25.75.22,1.83.47,2.6.63,2.25.46,4.64.74,6.93.9,7.21.42,14.47.05,21.66-.36"/><path class="b" d="M8.92,219.17c3.09-.91,6.36-.62,9.53-.65,4.89,0,9.84,0,14.73,0,1.78-.08,2.95,1.93,4.33,2.79,1.76,1.31,3.92,2.2,6.07,2.61,4.85.93,9.86.38,14.73-.06,5.75-.57,11.54-1.17,17.33-1.05,15.02.33,30.04-1.55,45.06-.8,10.38.42,20.8,1.23,31.19.6,10.31,1.71,20.82.77,31.19.33"/><path class="b" d="M8.92,218.29c1.69-.46,3.47-1.13,5.2-1.44,1.69-.14,3.51-.04,5.2-.07,4.02,0,8.11,0,12.13,0,1.4.11,3.19-.39,4.33.64,1.99,1.86,4.28,3.62,6.93,4.38,7.34,2.07,15.08.53,22.53-.04,7.47-.93,15.03-.57,22.53-.83,9.81-.2,19.65-.66,29.46-.45,7.22.14,14.45.71,21.66,1.02,4.89.28,9.85.1,14.73.25,9.79.93,19.66-.07,29.46-.38"/><path class="b" d="M8.92,217.5c2.33-.62,4.6-1.72,6.93-2.33,3.71-.31,7.53-.04,11.26-.12,2.86.07,5.82-.14,8.66.1,1.75,1.19,3.28,2.95,5.2,3.9,6.69,3.31,14.5,2.1,21.66,1.56,3.74-.34,7.51-.89,11.26-1.06,5.47-.27,10.99-.24,16.46-.35,10.1-.14,20.23-.44,30.33-.12,11.26.48,22.52,1.5,33.79,1.41,9.53.38,19.07-.47,28.6-.73"/><path class="b" d="M8.92,216.67c3.28-.74,6.24-2.72,9.53-3.34,2.57-.02,5.23,0,7.8-.01,2.28,0,4.65,0,6.93,0,2.45.02,3.39-.39,5.2,1.54,6.67,6.36,16.72,4.88,25.13,4.3,4.32-.37,8.66-1.08,13-1.27,6.05-.34,12.14-.2,18.2-.33,10.97-.13,21.97-.39,32.93.3,8.07.55,16.17,1.2,24.26,1.15,10.4.02,20.8-.61,31.19-.89"/><path class="b" d="M8.92,215.72c2.05-.51,4.15-1.27,6.07-2.15,1.66-.72,3.38-1.76,5.2-1.99,2.28-.02,4.65,0,6.93,0,2.28,0,4.65,0,6.93,0,2.51,0,3.37-.35,5.2,1.61,6.89,6.59,17.29,4.96,25.99,4.47,4.9-.44,9.81-1.27,14.73-1.41,5.47-.24,10.99-.03,16.46-.21,8.65-.15,17.34-.3,25.99-.04,5.48.19,10.99.76,16.46,1.03,14.72,1.03,29.47-.46,44.19-.55"/><path class="b" d="M8.92,214.64c3.99-.77,7.59-2.78,11.26-4.41,1.9-.68,4.08-.29,6.07-.39,2.57,0,5.23,0,7.8,0,1.39.07,2.98-.19,4.33.21.47.33,1.32,1.07,1.73,1.46,7.21,7.03,18.56,5.03,27.73,4.63,4.6-.5,9.23-1.2,13.86-1.35,4.89-.17,9.84.07,14.73-.17,8.65-.26,17.34-.46,25.99-.26,6.06.21,12.14.84,18.2,1.13,5.47.4,10.99.24,16.46-.05,8.66-.19,17.34-.69,26-.62"/><path class="b" d="M8.92,213.41c2.98-.58,5.95-1.6,8.66-2.97,2.17-1.05,4.42-2.56,6.93-2.33,3.15,0,6.38,0,9.53,0,2.69.07,4.97-.57,6.93,1.73,4.27,4.39,10.59,5.41,16.46,5.37,4.61-.01,9.28-.2,13.86-.65,4.01-.49,8.09-.96,12.13-1.08,4.32-.06,8.69.13,13-.16,8.65-.42,17.34-.73,25.99-.62,5.77.16,11.56.75,17.33,1.05,6.05.45,12.15.19,18.2-.19,8.36-.23,16.76-.57,25.13-.39"/><path class="b" d="M8.92,212.04c2.96-.52,5.94-1.41,8.66-2.7,2.51-1.05,4.96-3.07,7.8-2.97,3.44,0,6.95,0,10.4,0,.78,0,1.82,0,2.6.02,2.02.45,3.69,1.97,5.2,3.29,3.38,2.76,7.84,3.83,12.13,3.94,1.98-.15,4.08-.25,6.07-.26,1.99-.02,4.08.09,6.07.21,2.58-.07,5.24-.32,7.8-.61,3.14-.32,6.37-.6,9.53-.63,3.74.07,7.53.09,11.26-.18,8.64-.61,17.33-1.11,25.99-1.1,5.19.09,10.41.59,15.6.89,7.21.58,14.46.15,21.66-.3,7.79-.21,15.61-.36,23.4-.08"/><path class="b" d="M8.92,210.55c2.95-.46,5.93-1.24,8.66-2.44,2.61-1.04,5.04-2.86,7.8-3.47,2.86,0,5.8,0,8.67,0,1.69.08,3.55-.2,5.2.2,2.9,1.11,5.17,3.45,7.8,5.01,2.1,1.18,4.55,1.85,6.93,2.09,3.14-.36,6.36-.76,9.53-.76,3.75-.07,7.53.48,11.26.75,2.28-.15,4.65-.42,6.93-.53,4.6-.27,9.27.07,13.86-.32,10.66-.77,21.36-2.11,32.06-1.56,7.2.4,14.44,1.1,21.66.82,3.74-.06,7.53-.45,11.26-.63,7.5-.15,15.04-.14,22.53.22"/><path class="b" d="M8.92,208.96c3.24-.45,6.53-1.26,9.53-2.57,2.62-1,5.04-2.89,7.8-3.47,2.57,0,5.23,0,7.8,0,1.69.06,3.53-.16,5.2.15,3.49,1.27,6.32,3.97,9.53,5.75,1.31.67,2.87,1.18,4.33,1.4,1.11-.01,2.38-.34,3.47-.53,2.83-.53,5.78-.86,8.66-.91,4.05-.1,8.12.56,12.13,1,3.43.4,6.95.42,10.4.33,13.91.27,27.67-3.22,41.59-2.25,9.51.71,19.08.98,28.59.22,8.35-.57,16.78-.12,25.13.25"/><path class="b" d="M8.92,207.28c3.54-.44,7.12-1.28,10.4-2.72,1.42-.62,2.96-1.38,4.33-2.1,1.05-.53,2.26-1.28,3.47-1.28,14.78.24,10.1-1.74,22.53,6.18,3.31,1.84,4.46.98,7.8.13,3.09-.8,6.34-1.28,9.53-1.37,4.94-.19,9.84.85,14.73,1.4,4.01.53,8.11.22,12.13.37,2.57.03,5.23.56,7.8.38,8.08-.73,16.13-2.35,24.26-2.26,7.5.15,15.02.97,22.53.69,5.19-.1,10.41-.44,15.6-.65,6.35.07,12.73.31,19.06.69"/><path class="b" d="M8.92,205.52c3.53-.4,7.11-1.17,10.4-2.53,2.67-.95,5.09-2.76,7.8-3.53,13.83.22,10.8-1.73,22.53,5.99,2.38,1.46,3.48,1.77,6.07.62,2.23-.86,4.59-1.69,6.93-2.16,3.68-.76,7.53-.94,11.26-.59,4.05.38,8.08,1.32,12.13,1.7,4.61.3,9.28.34,13.86.98,1.69.19,3.51.43,5.2.62,1.09.02,2.38-.23,3.47-.36,5.75-.72,11.51-1.95,17.33-1.94,7.21,0,14.44.8,21.66.58,6.34-.09,12.72-.41,19.06-.51,5.48.18,11,.41,16.46.76"/><path class="b" d="M8.92,203.7c3.52-.37,7.09-1.09,10.4-2.39,2.68-.94,5.14-2.6,7.8-3.54,3.15-.13,6.38-.02,9.53-.05,4.94-.24,9.02,3.35,13,5.81,2.38,1.52,3.45,2.21,6.07.71,2.47-1.3,5.08-2.6,7.8-3.29,3.64-.95,7.52-1.2,11.26-.89,4.07.36,8.1,1.36,12.13,1.95,5.78.6,11.6,1.19,17.33,2.19,1.68.28,3.5.53,5.2.64,1.7-.11,3.52-.49,5.2-.77,3.99-.76,8.06-1.41,12.13-1.46,6.64-.07,13.29.61,19.93.48,12.13-.17,24.29-.56,36.39.46"/><path class="b" d="M8.92,201.83c3.52-.35,7.09-1.04,10.4-2.31,2.67-.92,5.15-2.52,7.8-3.47,3.73-.13,7.54-.11,11.26,0,5.23.91,9.35,4.59,13.86,7.08,2.47,1.06,4.89-1.95,6.93-3.02,2.08-1.34,4.5-2.35,6.93-2.84,6.94-1.45,13.99.12,20.8,1.56,5.76,1.01,11.6,1.72,17.33,2.92,2.84.58,5.78,1.08,8.67,1.34,4.87-.87,9.75-2.12,14.73-2.18,6.63-.13,13.29.51,19.93.39,11.84,0,23.71-.27,35.53.65"/><path class="b" d="M8.92,199.91c3.21-.31,6.48-.91,9.53-1.97,2.67-.89,5.23-2.27,7.8-3.4,1.34-.48,2.94-.23,4.33-.29,2.28.02,4.66-.04,6.93.03,3.37.47,6.6,1.99,9.53,3.67,2.02,1.13,3.89,2.82,6.07,3.66,2.58.22,4.41-2.41,6.07-4.03,1.24-1.09,2.76-2.15,4.33-2.69,2.48-.86,5.22-.61,7.8-.64,2.86.03,5.82-.12,8.66.22,3.49.42,6.96,1.34,10.4,2.02,4.32.81,8.7,1.56,13,2.49,3.44.72,6.92,1.59,10.4,2.14,2.3.52,4.67-.61,6.93-.94,3.11-.66,6.36-.98,9.53-1.03,4.03-.04,8.11.24,12.13.31,5.47.11,10.99.08,16.46.18,8.08.19,16.2.05,24.26.72"/><path class="b" d="M8.92,197.94c5.8-.4,11.28-2.47,16.46-5,1.33-.6,2.92-.41,4.33-.44,1.99,0,4.08,0,6.07,0,3.94.23,7.78,1.82,11.26,3.59,2.07,1.06,3.97,2.66,6.07,3.67,2.59.74,4.57-2.24,6.07-3.94.99-1.1,1.89-3.01,3.47-3.31,5.18-.02,10.41,0,15.6,0,1.98.03,4.09-.08,6.07.09,2.31.28,4.66.87,6.93,1.36,4.59,1,9.28,1.75,13.86,2.79,3.76.8,7.5,1.93,11.26,2.7,1.65.35,3.54-.59,5.2-.83,2.53-.58,5.2-.97,7.8-1.11,4.02-.24,8.11.06,12.13.15,4.6.13,9.26.17,13.86.28,9.23.35,18.51.16,27.73.83"/><path class="b" d="M8.92,195.93c5.52-.39,10.63-2.41,15.6-4.7,1.05-.47,2.34-.48,3.47-.45,1.69,0,3.51,0,5.2,0,3.25-.15,6.46.87,9.53,1.83,3.76,1.09,7.08,3.26,10.4,5.27,3.85,1.59,6.35-4.68,8.67-6.8,1.31-.56,2.94-.21,4.33-.3,2.57,0,5.23,0,7.8,0,2.86,0,5.8,0,8.66,0,1.98.03,4.1-.13,6.07.25,6.59,1.56,13.34,2.43,19.93,3.96,2.61.58,5.21,1.56,7.8,2.24.76.21,1.82.48,2.6.64.78-.13,1.83-.4,2.6-.59,8.75-2.44,17.91-1.27,26.86-1.17,5.76.14,11.57.4,17.33.52,5.76.15,11.58.14,17.33.58"/><path class="b" d="M8.92,193.89c3.23-.33,6.5-1.06,9.53-2.24,2.82-1.01,5.56-2.9,8.66-2.61,2.86.09,5.84-.23,8.66.25,5.39,1.16,10.92,2.58,15.6,5.61,2.98,2.08,4.4,2.16,6.93-.64,1.51-1.56,2.41-4.14,4.33-5.22,5.47,0,10.99,0,16.46,0,1.69,0,3.51-.02,5.2.02,1.99.16,4.08.47,6.07.61,2.63.05,5.2,1.01,7.8,1.3,4.93.63,9.98,1.09,14.73,2.64,2.54.9,5.16,1.9,7.8,2.51,1.4-.27,2.94-.73,4.33-1.02,8.53-1.91,17.35-.7,26-.58,10.67.57,21.39.49,32.06,1.11"/><path class="b" d="M8.92,191.85c3.24-.35,6.5-1.14,9.53-2.34,1.68-.65,3.46-1.49,5.2-1.99,1.06-.29,2.38-.19,3.47-.21,3.47,0,7.04-.23,10.4.81,4.1,1.04,8.33,2.01,12.13,3.91,1.72.82,3.37,2.14,5.2,2.71,4-.09,5.31-4.95,7.8-7.3,2.55-.3,5.23-.05,7.8-.13,4.02.03,8.11-.06,12.13.04,3.16.81,6.19,2.01,9.53,1.98,2.87.06,5.8.07,8.66.32,3.16.11,6.41.23,9.53.82,4.21.71,8,2.97,12.13,3.94,3.39-.9,6.88-1.73,10.4-1.9,6.34-.34,12.73.21,19.06.42,10.38.64,20.82.5,31.19,1.14"/><path class="b" d="M8.92,189.8c2.62-.31,5.3-.91,7.8-1.77,2-.67,4.03-1.63,6.07-2.2,1.94-.48,4.09-.19,6.07-.26,2.6-.05,5.29-.05,7.8.72,4.97,1.33,10.15,2.35,14.73,4.78,1.85.93,3.98,2.79,6.07,1.42,2.74-1.53,3.69-5.05,6.07-6.91,4.02-.02,8.11,0,12.13,0,1.39,0,2.94,0,4.33,0,.8,0,1.85-.06,2.6.26,3.11,1.9,5.65,3.93,9.53,3.86,1.99,0,4.1-.17,6.07-.43,1.98-.36,4.05-.84,6.07-.91,8.46-.74,10.81,1,18.2,3.85.42.15,1.29.38,1.73.44.43-.11,1.3-.34,1.73-.46,1.07-.29,2.37-.58,3.47-.77,3.41-.58,6.95-.7,10.4-.62,6.93.16,13.87.7,20.8.94,7.5.26,15.04.25,22.53.76"/><path class="b" d="M8.92,187.76c4.51-.45,8.73-2.24,13-3.6,1.65-.47,3.51-.29,5.2-.32,1.98.03,4.09-.06,6.07.05,4.09.72,8.11,2.08,12.13,3.13,2.66.75,5.35,1.77,7.8,3.07,3.5,2.22,5.43.91,7.8-2.04,1.08-1.3,1.9-3.41,3.47-4.2,3.73,0,7.53,0,11.26,0,1.39,0,2.94,0,4.33,0,.8,0,1.86-.08,2.6.29,2.41,2.07,4.53,4.9,7.8,5.65,3.42.99,7.07.29,10.4-.76,3.09-1.06,6.21-2.38,9.53-2.47,2.64-.18,5.38.32,7.8,1.38,1.68.76,3.49,1.58,5.2,2.27,1.05.39,2.36.95,3.47.46,2.23-.63,4.63-1,6.93-1.18,7.79-.67,15.61.2,23.4.56,5.47.25,10.99.3,16.46.45,3.15.02,6.38.38,9.53.28"/><path class="b" d="M8.92,185.73c2.62-.35,5.29-1.01,7.8-1.85,1.96-.63,4.01-1.46,6.07-1.73,1.98-.11,4.08-.02,6.07-.05,1.69.04,3.53-.13,5.2.19,4.35,1.08,8.67,2.48,13,3.66,2.34.69,4.73,1.6,6.93,2.64,2.87,1.64,4.72.79,6.93-1.41,1.55-1.48,2.47-3.97,4.33-5.08,4.02,0,8.11,0,12.13,0,1.69,0,3.51,0,5.2,0,1.12.4,1.94,1.89,2.6,2.8,1.41,2.11,3.41,4.2,6.07,4.48,1.68.22,3.51.18,5.2.18,1.4,0,2.97,0,4.33-.34,3.02-.76,5.76-2.48,8.66-3.54,7.11-2.86,11.03,1.51,17.33,3.39,1.12.12,2.37-.41,3.47-.57,1.96-.37,4.07-.56,6.07-.68,5.77-.38,11.57.09,17.33.44,5.47.37,10.99.41,16.46.54,4.32.09,8.68.35,13,.07"/><path class="b" d="M8.92,183.7c2.62-.37,5.28-1.05,7.8-1.85,2.22-.69,4.57-1.53,6.93-1.47,3.44.1,6.98-.23,10.4.17,4.35,1.15,8.64,2.73,13,3.88,2.62.72,5.28,1.63,7.8,2.66,2.62,1.4,4.96.19,6.93-1.7,1.55-1.45,2.64-3.66,4.33-4.96,5.18-.12,10.42-.09,15.6-.01,1.23.18,2.56.83,3.47,1.69,1.38,2.34,2.71,6.19,6.07,5.75,4.31-.05,8.69.11,13-.07,2.47-.54,4.66-2.12,6.93-3.17,6.49-3.49,10.5.68,16.46,2.54.76.3,1.83.21,2.6-.02,1.08-.23,2.37-.44,3.47-.56,3.14-.35,6.38-.4,9.53-.4,4.9.11,9.83.58,14.73.77,8.37.25,16.77.47,25.13.05"/><path class="b" d="M8.92,181.68c4.12-.53,8.06-2.15,12.13-2.89,3.72-.33,7.53-.06,11.26-.14,2.4-.05,4.69,1.16,6.93,1.85,3.13,1.04,6.35,2.07,9.53,2.93,2,.54,4.1,1.18,6.07,1.84,1.87.7,3.3,1.06,5.2.13,2.53-1.11,4.36-3.45,6.07-5.53,1.24-.79,2.9-1,4.33-1.12,2.27-.14,4.66-.08,6.93-.1,2,.03,4.24-.12,6.07.85,1.28.8,2.6,2.02,3.47,3.27.72,1,1.56,2.57,2.6,3.28,4.3.21,8.69.02,13,.08,5.62.07,5.59.29,10.4-2.75,2.3-1.44,5.17-2.07,7.8-1.22,2.93.91,5.67,2.61,8.66,3.33,1.67.46,3.51-.39,5.2-.45,3.14-.33,6.38-.39,9.53-.32,5.48.1,10.98.69,16.46.76,7.5.12,15.04-.06,22.53-.36"/><path class="b" d="M8.92,179.65c3.8-.55,7.49-1.92,11.26-2.56,4.29-.4,8.69-.08,13-.18,2.1.22,4.09,1.33,6.07,2.01,2.81,1.06,5.79,1.92,8.66,2.8,2.26.64,4.67,1.17,6.93,1.81,2.82.87,4.2,1.04,6.93-.33,2.01-.96,3.58-2.78,5.2-4.24,2.91-1.5,6.3-1.83,9.53-1.9,9.4-.25,8.17,1.41,13.86,7.31,4.6.08,9.26,0,13.86.03,1.98-.02,4.08.04,6.07-.03,1.58-.38,2.98-1.59,4.33-2.43,2.25-1.58,5.16-2.19,7.8-1.29,2.9.92,5.66,2.54,8.66,3.14,1.38.36,2.94-.25,4.33-.32,2.56-.27,5.23-.33,7.8-.29,4.9.07,9.83.56,14.73.63,8.36-.29,16.77-.14,25.13-.59"/><path class="b" d="M8.92,177.61c3.77-.59,7.46-1.92,11.26-2.34,2.27-.17,4.65-.06,6.93-.09,2.28.05,4.67-.12,6.93.09,2.64.82,5.16,2.27,7.8,3.12,4.79,1.66,9.76,2.86,14.73,3.81,2.66.79,5.49-.28,7.8-1.61,1.72-1.06,3.21-2.74,5.2-3.32,4.62-1.7,9.89-2.32,14.73-1.26,2.74.75,4.32,3.49,6.07,5.51.37.47,1.1,1.1,1.73,1.13,1.09,0,2.38,0,3.47,0,2.28,0,4.66,0,6.93,0,2.28,0,4.66,0,6.93,0,2.86.07,3.73.16,6.07-1.74,2.49-2.01,5.57-2.93,8.67-1.79,2.87.94,5.65,2.47,8.66,2.95,1.38.3,2.94-.23,4.33-.27,2.27-.18,4.66-.21,6.93-.15,3.15.14,6.38.29,9.53.45,2.86-.14,5.8-.29,8.66-.32,6.92-.11,13.88-.09,20.8-.45"/><path class="b" d="M8.92,175.55c3.46-.59,6.9-1.69,10.4-2.02,4.89-.14,9.85-.15,14.73,0,2.08.68,4.03,1.99,6.07,2.79,2.49,1.06,5.18,1.83,7.8,2.48,2.82.75,5.77,1.28,8.66,1.69,2.61.63,5.35-.02,7.8-.99,1.84-.65,3.42-2.12,5.2-2.86,5.12-2.11,10.98-3.47,16.46-2.14,3.22.86,4.48,4.42,6.93,6.32,4.88.29,9.84.02,14.73.11,2.28-.04,4.66.09,6.93-.07,1.54-.66,2.87-2.04,4.33-2.84,2.08-1.25,4.7-1.21,6.93-.4,2.84.98,5.65,2.38,8.66,2.76,1.38.25,2.94-.17,4.33-.19,2.57-.15,5.23-.1,7.8.03,4.61.51,9.25-.28,13.86-.29,7.5-.12,15.04-.09,22.53-.44"/><path class="b" d="M8.92,173.46c3.15-.58,6.33-1.48,9.53-1.7,5.18-.08,10.42-.14,15.6.02,1.8.68,3.46,1.96,5.2,2.77,2.44,1.21,5.15,2.04,7.8,2.65,3.97.95,8.06,1.53,12.13,1.85,2.02-.13,4.13-.54,6.07-1.12,2.12-.57,4.01-1.96,6.07-2.69,5.18-1.94,10.92-3.71,16.46-2.41,3.28.74,4.51,4.33,6.93,6.24,4.87.33,9.84.03,14.73.12,2.28-.05,4.67.12,6.93-.1,1.5-.76,2.83-2.16,4.33-2.93,2.13-1.16,4.73-.91,6.93-.09,3.08,1.14,6.21,2.47,9.53,2.66,1.39-.02,2.94-.2,4.33-.21,2.28-.07,4.66.1,6.93.16,1.69-.09,3.51-.18,5.2-.3,9.79-.71,19.66-.26,29.46-.75"/><path class="b" d="M8.92,171.33c2.84-.55,5.76-1.25,8.66-1.34,5.18-.04,10.41,0,15.6-.01,1.29-.02,2.45,1.04,3.47,1.7,1.32.9,2.86,1.79,4.33,2.4,4.66,1.85,9.77,2.52,14.73,2.99,4.06.48,8.22-.04,12.13-1.17,6.88-2.5,14.14-6.23,21.66-4.85,3.49.66,4.58,3.98,6.93,6.13,1.03.46,2.37.23,3.47.28,4.02,0,8.11,0,12.13,0,1.98-.1,4.13.24,6.07-.21.82-.51,1.83-1.37,2.6-1.95,2.88-2.3,6.35-1.76,9.53-.44,3.55,1.42,7.41,2.44,11.26,2.1,4.61.06,9.26-.26,13.86-.58,9.23-.48,18.5-.2,27.73-.57"/><path class="b" d="M8.92,169.17c3.68-.86,7.5-1.03,11.26-.93,4.31,0,8.68,0,13,0,.96,0,1.9.85,2.6,1.42.74.61,1.78,1.4,2.6,1.9,2.34,1.45,5.11,2.27,7.8,2.77,7.14,1.25,14.51,1.67,21.66.3,7.88-1.49,17-7.65,25.13-4.97,2.76,1.08,3.72,4.42,6.07,6.02,4.6.07,9.26,0,13.86.03,1.39,0,2.94,0,4.33,0,.82.03,1.89.02,2.6-.45,1.06-.83,2.26-1.9,3.47-2.52,2.45-1.32,5.34-.66,7.8.26,2.51.91,5.12,1.86,7.8,2.1,5.47.52,11-.31,16.46-.59,9.22-.51,18.5-.19,27.73-.52"/><path class="b" d="M8.92,167.37c1.4-.26,2.93-.61,4.33-.8,1.39-.12,2.94-.05,4.33-.07,3.73,0,7.53,0,11.26,0,1.09,0,2.38,0,3.47,0,.97-.15,1.98.35,2.6,1.05,4.96,5.68,12.96,5.77,19.93,6.19,2.86.17,5.81-.04,8.66-.2,3.47-.23,7.05-.48,10.4-1.47,5.99-1.77,11.81-5,18.2-4.86,3.45.02,5.01,1.48,6.93,4.12.7.85,1.48,2.3,2.6,2.65,4.6,0,9.26,0,13.86,0,1.68-.11,3.61.3,5.2-.32,3.85-2.76,5.33-4.39,10.4-2.78,2.56.79,5.13,1.9,7.8,2.3,5.75.83,11.58-.24,17.33-.51,8.93-.5,17.92-.18,26.86-.46"/><path class="b" d="M8.92,165.76c1.69-.3,3.49-.75,5.2-.94,2.27-.11,4.66-.02,6.93-.05,4.02.08,8.12-.19,12.13.15,1.42.57,2.29,2.34,3.47,3.27,2.35,2.13,5.59,2.96,8.66,3.33,8.33.97,16.78.4,25.13-.05,4.2-.23,8.24-1.59,12.13-3.1,4.37-1.77,9.07-3.61,13.86-2.87,3.33.54,5.09,3.99,6.93,6.45,1.31.57,2.94.21,4.33.31,2.57,0,5.23,0,7.8,0,7.35.05,4.54.38,10.4-3.15,2.19-1.04,4.73-.51,6.93.19,2.54.81,5.13,1.87,7.8,2.2,5.47.67,11-.36,16.46-.62,8.65-.5,17.34-.19,26-.43"/><path class="b" d="M8.92,164.14c1.99-.34,4.06-.86,6.07-1.06,2.57-.08,5.23-.01,7.8-.04,3.43.16,7.06-.45,10.4.53,1.05.59,1.8,2.1,2.6,2.95,2.16,2.45,5.54,3.24,8.67,3.53,4.59.49,9.26.18,13.86.11,5.18-.14,10.42,0,15.6-.4,3.27-.2,6.51-1.09,9.53-2.32,3.14-1.22,6.22-2.86,9.53-3.58,7-1.36,9.78-.03,13,6.36,1.31.57,2.94.21,4.33.31,2.28,0,4.65,0,6.93,0,6.48.24,4.46-.44,9.53-3.18,2.47-1.15,5.33-.45,7.8.35,2.52.85,5.13,1.83,7.8,2.1,5.18.52,10.42-.4,15.6-.67,8.35-.52,16.76-.24,25.13-.43"/><path class="b" d="M8.92,162.51c2.28-.38,4.63-.96,6.93-1.17,2.57-.09,5.23-.01,7.8-.04,2.28.05,4.67-.12,6.93.1,6.2,1.43,1.93,6.76,13.86,7.19,1.98.14,4.08-.15,6.07-.18,2.86-.09,5.8-.07,8.66-.11,5.76-.05,11.57.24,17.33-.12,3.26-.2,6.57-.89,9.53-2.3,5.12-2.38,10.62-5.53,16.46-4.09,1.79.37,3.36,1.74,4.33,3.24.74,1.11,1.47,2.96,2.6,3.75,2.86,0,5.8,0,8.66,0,1.69-.12,3.7.39,5.2-.58,1.86-1.26,3.77-2.87,6.07-3.21,4.53-.58,8.64,2.14,13,2.85,6.02.95,12.16-.29,18.2-.54,7.49-.39,15.03-.22,22.53-.34"/><path class="b" d="M8.92,160.89c2.57-.4,5.2-1.01,7.8-1.26,2.57-.13,5.23-.03,7.8-.06,1.69,0,3.51,0,5.2,0,6.58,1.68,1.73,7.81,13.86,7.33,12.09-1.24,24.28.31,36.39-.3,3.28-.2,6.58-.99,9.53-2.45,3.58-1.76,7.17-3.97,11.26-4.14,3.62-.3,7.38.64,9.53,3.78.73.98,1.57,2.54,2.6,3.24,3.15-.06,6.39.14,9.53-.1,1.56-.52,2.92-1.8,4.33-2.6,1.27-.75,2.85-1.26,4.33-1.32,5.12-.16,9.65,3.08,14.73,3.32,5.77.35,11.57-.55,17.33-.81,6.63-.3,13.3-.22,19.93-.27"/><path class="b" d="M8.92,159.26c2.86-.42,5.78-1.01,8.66-1.3,2.85-.23,5.8-.08,8.66-.12,1.39.1,3.05-.3,4.33.35,1.63,1.26,2.39,3.64,3.47,5.31,2.15,2.32,5.82,1.86,8.67,1.51,7.75-.97,15.62-.35,23.4-.11,5.76.17,11.58-.48,17.33.17,2.64-.16,5.36-.72,7.8-1.76,2.91-1.22,5.65-3.02,8.66-3.99,4.25-1.29,9.28-1.14,13,1.49.92.57,1.97,1.6,2.6,2.48.21.54,1.17,1.73,1.73,1.96,8.77,1.03,8.6-5.27,17.33-3.98,2.97.48,5.78,1.84,8.66,2.63,2.51.71,5.21.89,7.8.84,5.19-.11,10.41-.69,15.6-.91,5.47-.21,10.99-.19,16.46-.16"/><path class="b" d="M8.92,157.64c3.15-.42,6.36-.97,9.53-1.26,3.73-.28,7.53-.27,11.26-.27l.87.6c1.39,2.08,1.27,6.41,4.33,6.8,1.69.13,3.53.17,5.2-.16,4.55-.89,9.25-.9,13.86-.72,2.86.12,5.81.19,8.66.36,2.28.11,4.65.36,6.93.12,4.02-.24,8.1-.54,12.13-.43,1.39.04,2.95.15,4.33.3,1.09.08,2.38.44,3.47.24,6.2-.77,11.04-5.76,17.33-6.12,1.98-.17,4.1-.03,6.07.25,1.67.15,3.58.54,5.2-.06,2.13,6.95,6.34,4.44,11.26,2.15,3.16-.65,6.5-.37,9.53.72,2.55.87,5.14,1.98,7.8,2.47,4.85.79,9.85.29,14.73.04,7.2-.59,14.45-.71,21.66-.54"/><path class="b" d="M8.92,156.03c4.02-.43,8.08-1.12,12.13-1.12,1.69.03,3.51.35,5.2.17,1.1-.18,2.32-.84,3.47-.7.95,1.1,1.5,5.76,1.73,7.16,1.3.59,2.94.22,4.33.32,1.43.1,2.95-.39,4.33-.67,1.38-.28,2.93-.46,4.33-.54,6.35-.31,12.73.3,19.06.66,4.32.49,8.68-.29,13-.54,5.48-.46,11.07-.39,16.46.8,4.75-.36,8.59-3.72,13-5.17,2.77-.92,5.78-.99,8.66-1.15,1.72-.06,3.49-.76,5.2-.87.61.19,1.41,1.11,1.73,1.64.64.77,1.62,1.64,2.6,1.93,2.96.91,5.73-1.36,8.66-1.02,3.28,0,6.52.95,9.53,2.17,6.23,2.91,13.25,2.36,19.93,2.09,6.91-.58,13.87-.75,20.8-.49"/><path class="b" d="M8.92,154.42c5.73-.36,12.06-1.89,17.33,1.13.45.33,1.32,1.06,1.73,1.44.4.79,1.27,2.37,1.73,3.13,1.98-.03,4.08.07,6.07-.06,1.1-.3,2.35-.75,3.47-.98,3.4-.69,6.95-.59,10.4-.47,5.77.2,11.56.9,17.33,1.16,5.48-.43,10.97-1.24,16.46-1.43,4.67-.27,9.33.45,13.86,1.51,3.46-.61,6.4-2.74,9.53-4.17,2.71-1.24,5.74-1.75,8.67-2.2,1.09-.19,2.38-.51,3.47-.73,1.08-.17,2.38-.08,3.47-.1.92.11,1.84.95,2.6,1.42,1.52.94,3.47,1.1,5.2.83,3.49-.63,7.08.07,10.4,1.2,3.37,1.32,6.73,3.03,10.4,3.37,3.43.44,6.95.04,10.4.23,7.21-.27,14.45-.75,21.66-.36"/><path class="b" d="M8.92,152.84c4.87-.11,10.32-1.28,14.73,1.37,1.86.88,2.69,3.09,4.33,4.16,1.98.04,4.08.02,6.07.01,1.12-.34,2.33-1.01,3.47-1.29,1.37-.35,2.93-.52,4.33-.57,8.4-.27,16.77,1.11,25.13,1.5,7.49-.67,14.98-2.14,22.53-1.86,2.6.08,5.28.41,7.8,1.06,1.09.27,2.37.68,3.47.92.79-.16,1.85-.49,2.6-.79,3.89-2.03,7.78-4.27,12.13-5.17,2.26-.54,4.57-1.48,6.93-1.27,1.08.02,2.39-.06,3.47.09,1.63.64,3.43,1.24,5.2,1.31,2.89.2,5.9.32,8.66,1.25,3.77,1.23,7.32,3.32,11.26,4.01,3.41.79,6.95.14,10.4.2,7.21.17,14.46-.02,21.66.22"/><path class="b" d="M8.92,151.28c2.57-.06,5.24-.11,7.8.13,1.76.56,3.55,1.49,5.2,2.3,3.49,1.85,3.47,3.29,7.8,2.95,1.1-.05,2.43.18,3.47-.28,1.48-1.12,3.36-1.75,5.2-1.88,8.97-.4,17.95.94,26.86,1.73,3.45.08,6.96-.75,10.4-1.09,5.15-.72,10.39-1.24,15.6-1.11,2.89.06,5.88.36,8.66,1.16,3.2.85,3.69,1.96,6.93.17,4.64-2.6,9.6-4.71,14.73-6.11,2.27-.12,4.66-.04,6.93-.05,2,.24,4.07.81,6.07,1.12,2.93.48,5.91,1.2,8.66,2.34,3.1,1.23,6.2,2.79,9.53,3.29,1.67.32,3.51.39,5.2.16,1.98-.15,4.08-.21,6.07-.23,6.34-.01,12.72.16,19.06.11"/><path class="b" d="M8.92,149.76c1.39.02,2.94.08,4.33.2,2.3.88,4.64,1.93,6.93,2.81,1.7.65,3.45,1.56,5.2,2.04,1.67.15,3.54.22,5.2-.06,1.24-.37,2.43-1.32,3.47-2.06,1.34-.47,2.93-.53,4.33-.53,9.27.21,18.5,1.57,27.73,2.34,8.92-1.11,17.84-2.77,26.86-2.51,2.58.04,5.27.19,7.8.75,2.04.43,4.07,1.33,6.07,1.91,2.45-.61,4.66-2.17,6.93-3.23,3.09-1.42,6.28-2.94,9.53-3.95,2.86-.05,5.8-.02,8.67-.01,1.42.13,2.95.55,4.33.88,2.92.71,5.88,1.62,8.66,2.77,3.59,1.55,7.33,3.02,11.26,3.34,2.56.14,5.22-.43,7.8-.4,6.34-.15,12.72-.11,19.06-.06"/><path class="b" d="M8.92,148.3c1.52-.04,2.96.79,4.33,1.32,1.96.78,4.06,1.5,6.07,2.13,5.88,2.08,9.56,2.13,14.73-1.61.43-.32,1.21-.49,1.73-.39,1.09.06,2.38.17,3.47.27,2.57.24,5.23.5,7.8.74,3.74.36,7.54.73,11.26,1.18,2.57.2,5.23.9,7.8.76,4.62-.57,9.24-1.45,13.86-1.97,4.3-.49,8.68-.62,13-.65,4.65-.04,9.47,0,13.86,1.74.77.29,1.82.7,2.6.97,1.85-.22,3.53-1.53,5.2-2.29,3.12-1.58,6.39-3.05,9.53-4.6,1.64-.44,3.52-.13,5.2-.22,1.98.05,4.1-.12,6.07.11,6,1.22,11.49,4.2,17.33,5.94,1.94.51,4.06.91,6.07,1.04,2.27-.26,4.65-.44,6.93-.54,5.76-.2,11.57-.31,17.33-.11"/><path class="b" d="M8.92,147.34c4.16,1.74,8.56,3.05,13,3.86,1.09.26,2.38.06,3.47-.09,1.41-.22,3.01-.4,4.33-.97,1.43-.57,2.97-1.32,4.33-2.04,1.1-.8,2.22-.68,3.47-.41,5.45.82,10.99,1.31,16.46,1.95,3.74.38,7.52,1.1,11.26,1.38,4.91-.62,9.81-1.63,14.73-2.16,4.59-.51,9.26-.49,13.86-.51,6.87-.07,11.78-.41,18.2,2.72,1.51-.27,2.96-1.28,4.33-1.93,1.97-1,4.1-1.95,6.07-2.95,1.66-.78,3.24-2.42,5.2-2.21,3.15.04,6.38-.08,9.53.06,6.82,1.57,12.98,5.44,19.93,6.58,1.08.19,2.38.38,3.47.48,2.27-.25,4.65-.45,6.93-.56,5.18-.24,10.42-.35,15.6-.05"/><path class="b" d="M8.92,146.65c3.91,1.33,8.01,2.5,12.13,2.84,2.87-.38,5.9-.65,8.67-1.56,1.71-.6,3.54-1.32,5.2-2.06,1.03-.7,2.35-.32,3.47-.09,5.15.91,10.41,1.38,15.6,2.07,2.28.3,4.66.64,6.93.97,1.39.14,2.94.59,4.33.42,5.19-.72,10.37-1.87,15.6-2.31,4.59-.4,9.26-.19,13.86-.18,4.6.11,9.32-.55,13.86.37,2.1.39,4.06,1.56,6.07,2.23,2.9-1.23,5.77-2.74,8.67-4,1.82-.81,3.33-2.46,5.2-3.12,3.15,0,6.38,0,9.53,0,2.39.25,4.69,1.4,6.93,2.2,3.96,1.54,7.95,3.21,12.13,4.08,1.67.36,3.5.65,5.2.82,2.28-.03,4.65-.38,6.93-.45,4.6-.26,9.27-.23,13.87.07"/><path class="b" d="M8.92,145.7c3.09.93,6.33,1.62,9.53,2,3.46-.38,6.99-.87,10.4-1.57,2.61-.76,5.29-1.61,7.8-2.67,8.6,1.65,17.36,2.45,26,3.93,1.7.4,3.51-.1,5.2-.36,2.86-.49,5.79-1.05,8.66-1.46,6.3-.95,12.73-.42,19.06-.31,4.03.13,8.1-.34,12.13-.27,2.05.06,4.19.49,6.07,1.33,2.35,1.02,2.66,1.81,5.2.45,2.23-1.12,4.76-1.87,6.93-3.1,1.51-.84,2.82-2.32,4.33-3.14,1.98-.06,4.08-.01,6.07-.03,1.71,0,3.58-.1,5.2.52,7.87,2.88,15.76,6.32,24.26,6.65,5.75-.46,11.57-.5,17.33-.13"/><path class="b" d="M8.92,144.53c2.81.58,5.78,1.54,8.66,1.25,4.03-.58,8.17-.91,12.13-1.84,2-.51,4.12-1.09,6.07-1.78.44-.17,1.28-.46,1.73-.56.77.18,1.82.4,2.6.54,5.16.94,10.43,1.53,15.6,2.41,2.57.42,5.22.9,7.8,1.29,1.1-.03,2.38-.3,3.47-.48,3.73-.61,7.49-1.55,11.26-1.79,6.34-.33,12.73.06,19.06.28,5.19.31,10.45-1.11,15.6-.23,2.12.37,4.05,1.64,6.07,2.31,1.42-.44,2.94-1.11,4.33-1.64,1.42-.51,3.03-1.05,4.33-1.83,1.57-.9,2.9-2.44,4.33-3.52.76-.23,1.82-.18,2.6-.17,2.27.09,4.7-.25,6.93.28,5.22,1.59,10.28,3.85,15.6,5.13,5.36,1.33,10.94,2.03,16.46,1.75,3.15-.06,6.38.19,9.53-.09"/><path class="b" d="M8.92,143.21c1.68.36,3.5.67,5.2.88,2.58-.06,5.23-.6,7.8-.86,3.17-.41,6.43-.73,9.53-1.55,1.4-.33,2.96-.75,4.33-1.2.78-.25,1.76-.75,2.6-.67,8.05,1.56,16.21,2.68,24.26,4.23,2.29.2,4.67-.67,6.93-.98,3.11-.68,6.34-1.09,9.53-1.15,8.09-.42,16.18.87,24.26.49,5.36-.38,10.59-1.8,15.6,1.01.73.35,1.75.95,2.6.71,1.39-.42,2.94-.97,4.33-1.39,1.82-.61,3.72-1.49,5.2-2.72,1.12-.88,2.18-2.3,3.47-2.96,2.27.05,4.68-.17,6.93.15,5.25,1.33,10.32,3.48,15.6,4.74,8.46,2.23,17.32,2.5,26,1.67"/><path class="b" d="M8.92,141.78c1.38.23,2.93.56,4.33.56,2.57-.32,5.23-.63,7.8-.92,5.85-.63,11.85-1.29,17.33-3.57,8.08,1.51,16.2,2.96,24.26,4.55,3.19-.16,6.36-1.22,9.53-1.59,4.29-.55,8.68-.62,13-.53,6.35.05,12.71,1.13,19.06.76,4.88-.22,9.98-2.05,14.73-.15,1.41.49,2.85,1.44,4.33,1.66,5.72-1.2,9-2.65,13-7.01,2.52-.56,5.32-.21,7.8.47,6.33,1.73,12.61,3.83,19.06,5.05,6.57,1.05,13.34,1.02,19.93.18"/><path class="b" d="M8.92,140.27c2.86.68,5.8-.15,8.66-.37,4.02-.48,8.14-.7,12.13-1.42,2-.36,4.12-.79,6.07-1.38,1.11-.29,2.32-.98,3.47-1.12.45.09,1.29.27,1.73.35,4.61.87,9.28,1.75,13.86,2.78,1.69.37,3.51.79,5.2,1.15,1.4.34,2.92.63,4.33.2,8.23-1.88,16.73-2.15,25.13-1.62,6.62.39,13.32,1.52,19.93.31,7.64-1.36,8.48-1.12,15.6,1.66,3.37-.12,6.74-1.46,9.53-3.31,1.62-1,2.73-2.94,4.33-3.93,4.42-.02,8.71,1.54,13,2.44,3.22.65,6.26,2.18,9.53,2.66,7.13,1.27,14.52,1.25,21.66.09"/><path class="b" d="M8.92,138.71c1.69.31,3.51-.18,5.2-.31,2.57-.29,5.23-.54,7.8-.78,5.84-.58,11.98-1.02,17.33-3.65,7.59,1.22,15.02,3.39,22.53,5,2.6-.02,5.22-.94,7.8-1.23,3.71-.55,7.52-.71,11.26-.76,6.66-.17,13.31.65,19.93,1.19,4.35.31,8.74-.24,13-1.09,8.94-1.93,11.06,3.23,16.46,1.71,2.47-.6,4.94-1.73,6.93-3.31,1.25-.94,2.22-2.6,3.47-3.53,3.77.35,7.54,1.11,11.26,1.77.85.11,1.82.72,2.6,1.05,1.63.7,3.47,1.23,5.2,1.6,7.69,1.5,15.72,1.38,23.4-.1"/><path class="b" d="M8.92,137.1c7.19-.93,14.5-1.17,21.66-2.3,2.02-.34,4.14-.79,6.07-1.48,1.13-.35,2.3-1.18,3.47-1.39.45.09,1.29.27,1.73.36,4.36.91,8.72,2.06,13,3.29,1.39.39,2.94.83,4.33,1.19,1.38.4,2.92.7,4.33.27,8.81-1.84,17.9-2.03,26.86-1.46,7.48.61,15.08,2.01,22.53.29,4.03-.91,8.17-1.41,12.13.11,1.94.58,4.02,1.44,6.07,1.42,2.81-.44,5.64-1.57,7.8-3.44.48-.42,1.34-1.38,1.73-1.89,0,0,.87-1.21.87-1.21l.87-.45c2.87.18,5.81.48,8.66.75,2.34,1.55,5.03,2.67,7.8,3.17,7.99,1.5,16.34,1.21,24.26-.57"/><path class="b" d="M8.92,135.26c5.17-.64,10.41-1.01,15.6-1.45,5.31-.58,11.04-1.04,15.6-4.1,4.4.8,8.75,2.13,13,3.52,1.69.55,3.5,1.15,5.2,1.68,1.36.34,2.93.84,4.33.48,5.7-1.15,11.52-1.69,17.33-1.74,4.32-.09,8.7.03,13,.44,3.16.28,6.36.83,9.53.96,4.95.4,9.9-.38,14.73-1.43,2.55-.5,5.27-.5,7.8.12,1.69.42,3.51.92,5.2,1.33,1.07.25,2.35.74,3.47.57,4.68-.76,7.24-3.06,9.53-7.1,2.28.05,4.66-.07,6.93.13,3.52,3.23,8.39,4.07,13,4.38,6.67.47,13.46-.08,19.93-1.79"/><path class="b" d="M8.92,133.41c8.06-1.05,16.3-.92,24.26-2.65,1.43-.33,3-.83,4.33-1.47,1.16-.46,2.22-1.61,3.47-1.78,3.84.77,7.62,2.06,11.26,3.49,2.54.96,5.08,2.26,7.8,2.66,1.39.33,2.96-.16,4.33-.37,1.68-.31,3.5-.57,5.2-.75,6.32-.6,12.72-.74,19.06-.48,8.64.44,17.39,2.63,25.99.63,2.27-.43,4.62-1.04,6.93-1.15,2.3-.13,4.69.3,6.93.8,2.31.39,4.64,1.2,6.93,1.68,4.56-.49,6.95-2.9,8.66-7.04,1.5-.67,3.56-.21,5.2-.34,1.3.34,2.28,1.73,3.47,2.32,1.29.73,2.88,1.23,4.33,1.53,8.61,1.48,17.61.71,26-1.67"/><path class="b" d="M8.92,131.57c6.04-.7,12.16-.9,18.2-1.58,3.21-.41,6.55-.89,9.53-2.21,1.52-.63,2.92-1.83,4.33-2.64,3.62.5,7.11,1.88,10.4,3.43,1.43.67,2.79,1.86,4.33,2.31,1.91.58,4.06,1.38,6.07,1.04,3.99-.75,8.08-1.25,12.13-1.45,6.63-.32,13.32-.44,19.93.22,5.73.74,11.55,1.5,17.33,1,2.9-.27,5.81-1,8.66-1.54,4.3-.85,8.77-.15,13,.8,1.7.37,3.45,1.23,5.2,1.31,4.25-.41,5.75-3.43,6.93-7.1.75-.33,1.81-.26,2.6-.26.81,0,1.88-.09,2.6.36,1.58,1.72,3.78,2.9,6.07,3.33,8.92,1.59,18.24.44,26.86-2.16"/><path class="b" d="M8.92,129.76c7.2-.82,14.52-.83,21.66-2.07,2.37-.43,4.84-1.1,6.93-2.33,1.39-.71,2.63-2.41,4.33-2.19,2.73-.1,5.43.9,7.8,2.2,1.68,1.74,3.7,3.31,6.07,3.95,1.36.43,2.92.77,4.33.98,2.59-.16,5.21-.88,7.8-1.06,5.17-.53,10.41-.68,15.6-.73,3.45-.02,6.97.1,10.4.43,6.58.86,13.3,1.77,19.93.86,2.88-.42,5.78-1.23,8.66-1.63,2.56-.35,5.24-.15,7.8.09,3.29.16,6.4,1.5,9.53,2.35,4.44,0,5.03-4.04,6.07-7.45,1.09,0,2.38,0,3.47,0,1.1.8,2.21,1.99,3.47,2.57,2.94,1.37,6.33,1.6,9.53,1.65,7.05.1,14.08-1.13,20.8-3.22"/><path class="b" d="M8.92,127.96c7.78-.88,15.74-.7,23.4-2.47,1.79-.45,3.66-1.18,5.2-2.21,2.28-1.66,2.23-2,5.2-1.84,1.69.09,3.62-.3,5.2.43,2.79,4.61,7.01,6.12,12.13,6.72,2.28-.33,4.64-.8,6.93-1.01,5.17-.54,10.41-.7,15.6-.78,3.74-.05,7.54.03,11.26.37,4.3.56,8.65,1.19,13,1.27,2.57.07,5.25.04,7.8-.36,2.88-.44,5.78-1.23,8.66-1.66,4.58-.47,9.42-.45,13.86.89,1.7.47,3.37,1.74,5.2,1.6.97.04,2.03-.47,2.6-1.35.35-1.53,1.29-4.62,1.73-6.13h1.73c1.04.91,2.14,2.15,3.47,2.65,2.72,1.08,5.77,1.27,8.66,1.39,7.64.21,15.27-1.18,22.53-3.51"/><path class="b" d="M8.92,126.17c7.49-.8,15.15-.69,22.53-2.34,1.78-.43,3.65-1.13,5.2-2.12.79-.52,1.81-1.34,2.6-1.87.76-.18,1.83-.14,2.6-.14,1.68.09,3.56-.22,5.2.21,2.01,2.92,4.28,5.07,7.8,5.97,1.66.43,3.48.97,5.2.93,1.09-.17,2.37-.41,3.47-.56,4.58-.64,9.25-.89,13.86-1.04,4.89-.16,9.84-.26,14.73.06,4.61.38,9.23,1.28,13.86,1.4,2.57.11,5.24.15,7.8-.11,2.9-.31,5.81-1.04,8.66-1.61,4.25-.78,8.7-.89,13-.45,1.77.23,3.63.78,5.2,1.64.4.25,1.31.72,1.73.94,1.07.15,2.4.16,3.47-.02.9-1.15,1.77-2.96,2.6-4.16l.87-.28c2.76.88,5.79.94,8.66,1.07,4.62.14,9.3-.19,13.86-.94,2.31-.39,4.69-.94,6.93-1.62,1.37-.36,2.89-1.16,4.33-.82"/><path class="b" d="M8.92,124.39c7.49-.79,15.18-.64,22.53-2.46,1.46-.4,3.04-1.04,4.33-1.84,1.12-.62,2.16-1.92,3.47-2.12,2.28.03,4.66-.08,6.93.06,3.62,4.86,6.24,5.98,12.13,6.97.79.21,1.81.02,2.6-.14,1.39-.24,2.94-.45,4.33-.61,5.17-.56,10.41-.75,15.6-.88,4.02-.09,8.11-.11,12.13.17,5.45.67,10.95,1.47,16.46,1.47,6.77.34,13.21-2.34,19.93-2.6,3.73-.19,7.73-.64,11.26.85,1.23.48,2.22,1.79,3.47,2.19.42,0,1.31,0,1.73,0,1.88.31,2.83-1.89,4.33-2.56,1.92-.59,4.08-.56,6.07-.65,2.57-.08,5.23-.16,7.8-.35,3.77-.32,7.6-.83,11.26-1.78,1.71-.44,3.53-1.06,5.2-1.62.76-.05,1.84.07,2.6.15"/><path class="b" d="M8.92,122.62c7.21-.73,14.59-.65,21.66-2.37,1.8-.48,3.68-1.29,5.2-2.38.98-.74,2.12-1.86,3.47-1.62,1.98,0,4.08,0,6.07,0,1.23,1.02,2.19,2.71,3.47,3.69,2.44,1.95,5.65,2.72,8.66,3.25,1.1.28,2.38.11,3.47-.12,1.39-.23,2.94-.43,4.33-.57,5.74-.58,11.56-.77,17.33-.9,3.44-.06,6.96-.06,10.4.17,6.31.84,12.69,1.65,19.06,1.49,4.1-.06,8.14-1.14,12.13-1.95,3.41-.66,6.95-.92,10.4-1.24,2.57-.12,5.42-.41,7.8.76,1.02.57,1.64,2.08,2.6,2.72,1.07.25,2.4.25,3.47,0,1.36-.74,2.77-1.78,4.33-2.08,3.39-.76,6.95-.81,10.4-1.17,3.77-.36,7.6-.89,11.26-1.88,1.72-.46,3.53-1.12,5.2-1.72,1.09-.01,2.38.07,3.47.16"/><path class="b" d="M8.92,120.85c6.92-.68,14.01-.67,20.8-2.32,1.8-.48,3.68-1.27,5.2-2.36.99-.72,2.12-1.9,3.47-1.67,1.98,0,4.08,0,6.07,0,1.02.52,1.82,1.88,2.6,2.68.71.7,1.72,1.52,2.6,2,1.85,1.01,4.01,1.61,6.07,2.02,1.08.18,2.37.55,3.47.36,5.71-1,11.55-1.31,17.33-1.54,6.04-.14,12.18-.58,18.2.21,6.59.8,13.28,1.62,19.93,1.13,3.49-.33,6.97-1.25,10.4-1.94,2.55-.52,5.23-.8,7.8-1.21,1.98-.31,4.08-.63,6.07-.93,1.09-.09,2.41-.64,3.47-.18,1.79,2.59,3.22,5.66,6.93,4.79,1.12-.37,2.34-1.09,3.47-1.45,1.36-.45,2.92-.76,4.33-.97,4.9-.69,9.91-1.03,14.73-2.2,2.34-.54,4.7-1.41,6.93-2.3,1.38-.13,2.95-.03,4.33.02"/><path class="b" d="M8.92,119.08c6.64-.62,13.43-.7,19.93-2.28,1.46-.39,3.04-1.01,4.33-1.78,1.14-.63,2.21-1.84,3.47-2.24,1.69,0,3.51,0,5.2,0,.83-.01,1.9-.1,2.6.43.98,1.21,2.17,2.64,3.47,3.53,2.29,1.56,5.11,2.3,7.8,2.81,2.01.57,4.06.15,6.07-.17,9.47-1.13,19.06-1.4,28.59-1.31,6.06.44,12.11,1.51,18.2,1.63,5.87.42,11.65-.91,17.33-2.22,4.94-1.01,10.15-1.54,14.73-3.79,1.05.3,1.91,1.54,2.6,2.31,1.23,1.43,2.58,3.16,4.33,3.98,1.73.71,3.59-.09,5.2-.74,1.36-.48,2.92-.87,4.33-1.14,4.89-.9,9.92-1.28,14.73-2.6,2.37-.54,4.61-1.78,6.93-2.43,1.39-.05,2.95-.06,4.33-.02"/><path class="b" d="M8.92,117.31c6.64-.63,13.47-.7,19.93-2.52,2.22-.65,4.29-1.97,6.07-3.42,1.01-.52,2.37-.26,3.47-.31,1.68.11,3.58-.23,5.2.29,2.47,3.26,5.55,5.13,9.53,5.99,2.25.53,4.64,1.09,6.93.51,5.44-.82,10.98-1.11,16.46-1.34,5.76-.14,11.6-.62,17.33.12,7.17.75,14.44,1.77,21.66,1.13,4.38-.51,8.68-1.77,13-2.65,2.32-.46,4.72-1.05,6.93-1.88,1.44-.46,2.87-1.46,4.33-1.82,3.83,1.73,5.93,6.73,10.4,7.12,2.04-.25,4.04-1.24,6.07-1.64,4.86-1.13,9.92-1.54,14.73-2.9,2.38-.62,4.69-1.72,6.93-2.7,1.67-.27,3.51-.18,5.2-.2"/><path class="b" d="M8.92,115.54c6.07-.53,12.27-.78,18.2-2.27,2.17-.58,4.33-1.62,6.07-3.04,1.34-.44,2.94-.09,4.33-.12,1.98.1,4.1.08,6.07.34,2.32,2.96,5.94,4.49,9.53,5.25,2.27.55,4.62.94,6.93.36,5.44-.79,10.98-1.11,16.46-1.34,5.47-.14,11.02-.62,16.46.05,7.47.71,15.02,1.83,22.53,1.17,3.8-.44,7.56-1.46,11.26-2.35,2-.5,4.14-.97,6.07-1.69,1.76-.62,3.52-1.64,5.2-2.45,5.13.69,8.62,8,13.86,7.16,5.93-1.89,12.2-2.49,18.2-4.09,2.72-.66,5.23-2.13,7.8-3.16,1.68-.13,3.51-.04,5.2-.07"/><path class="b" d="M8.92,113.76c3.74-.27,7.55-.6,11.26-1.12,3.9-.51,7.95-1.27,11.26-3.51,4.03.11,8.12.24,12.13.57,3.6,3.15,8.36,4.34,13,4.95,3.45-.19,6.93-.96,10.4-1.13,4.88-.41,9.83-.62,14.73-.78,4.33-.23,8.7-.09,13,.46,6.89.62,13.87,1.57,20.8.92,4.4-.54,8.74-1.77,13-2.97,2.75-.68,5.34-2.03,7.8-3.39,2.52,0,4.89,1.35,6.93,2.72,9.37,6.96,7.7,4.05,18.2,2.32,3.78-.74,7.69-1.42,11.26-2.9,1.43-.59,2.93-1.49,4.33-2.14,1.94-.42,4.09-.1,6.07-.19"/><path class="b" d="M8.92,111.98c5.79-.5,11.73-.89,17.33-2.55,1.41-.4,2.8-1.49,4.33-1.27,3.15.06,6.38.18,9.53.35,1.09.06,2.38.15,3.47.26,1.17.4,2.31,1.37,3.47,1.82,2.18.95,4.6,1.55,6.93,1.98.77.14,1.82.3,2.6.4,1.09-.11,2.38-.28,3.47-.44,1.98-.29,4.08-.52,6.07-.7,6.9-.62,13.87-.89,20.8-1.01,9.23.44,18.47,2.2,27.73,1.54,3.51-.34,7.02-1.23,10.4-2.21,3.31-.93,6.61-2.17,9.53-4.01,7.25-.1,10.42,5.08,16.46,6.88,1.1.33,2.39.04,3.47-.24,1.39-.34,2.94-.71,4.33-1.01,3.74-.81,7.62-1.41,11.26-2.6,1.44-.48,3.01-1.16,4.33-1.9,1.04-.55,2.23-1.49,3.47-1.42,1.69,0,3.51,0,5.2,0"/><path class="b" d="M8.92,110.18c4.34-.33,8.73-.81,13-1.66,1.74-.32,3.55-.88,5.2-1.51,1.09,0,2.38,0,3.47.02,4.6.17,9.3.09,13.86.77,3.66,2.08,7.97,3.05,12.13,3.42,4.88-.66,9.81-1.28,14.73-1.59,3.15-.23,6.38-.35,9.53-.48,2.57-.07,5.24-.28,7.8.01,8.92.58,17.92,2.12,26.86,1.23,4.14-.57,8.24-1.72,12.13-3.24,1.78-.58,3.45-1.79,5.2-2.38,1.69-.1,3.54,0,5.2.35,3.14.63,5.93,2.48,8.66,4.06,2.67,1.71,5.51,2.86,8.66,1.75,4.88-1.2,9.96-1.84,14.73-3.45,1.45-.51,3.02-1.25,4.33-2.05.99-.62,2.23-1.51,3.47-1.33,1.68,0,3.52,0,5.2,0"/><path class="b" d="M8.92,108.35c3.75-.32,7.56-.72,11.26-1.44,1.72-.25,3.48-.95,5.2-1.16,5.19-.07,10.42.1,15.6.38,1.09.07,2.38.18,3.47.3,1.07.48,2.34,1.03,3.47,1.38,1.66.53,3.49.96,5.2,1.27,1.38.25,2.93.54,4.33.24,9.46-1.33,19.04-2.07,28.59-2.12,8.36.56,16.74,1.65,25.13,1.59,3.81-.06,7.64-.8,11.26-1.95,2.36-.75,4.76-1.75,6.93-2.95,3.08-.78,6.44-.76,9.53-.05,2.43.58,4.76,1.79,6.93,2.99,2.27,1.51,5.01,2.9,7.8,2.74,2.28-.43,4.65-.98,6.93-1.44,3.79-.79,7.72-1.46,11.26-3.07,1.47-.66,2.94-1.72,4.33-2.52,2.23-.45,4.67-.09,6.93-.2"/><path class="b" d="M8.92,106.49c3.17-.26,6.4-.61,9.53-1.16,1.41-.23,2.93-.64,4.33-.9,1.39-.06,2.94-.08,4.33-.08,5.48.05,11.01.12,16.46.6,2.06.21,4.02,1.38,6.07,1.76,1.96.49,4.06.87,6.07,1.1,2.28-.29,4.65-.62,6.93-.91,7.18-.91,14.44-1.31,21.66-1.54,6.34.45,12.72,1.01,19.06,1.4,5.49.35,11.14.39,16.46-1.19,2.38-.63,4.72-1.67,6.93-2.72,4.26-.82,8.74-1.49,13-.28,2.45.66,4.87,1.75,6.93,3.23,2.09,1.12,4.54,2.03,6.93,2.08,4.04-.76,8.12-1.58,12.13-2.47,2.03-.48,4.17-1.11,6.07-2.01,1.47-.68,2.93-1.8,4.33-2.6,2.25-.33,4.66-.07,6.93-.15"/><path class="b" d="M8.92,104.62c4.07-.25,8.13-.94,12.13-1.65,3.15-.12,6.38-.13,9.53-.07,4.61.11,9.28.14,13.86.67,2,.46,4.02,1.35,6.07,1.71,1.67.34,3.49.73,5.2.77,2.28-.3,4.65-.65,6.93-.92,6.89-.9,13.86-1.4,20.8-1.58,8.65.52,17.32,1.5,25.99,1.5,5.05-.07,10.21-1.06,14.73-3.39,5.42-.86,11.07-2.15,16.46-.48,1.88.42,3.61,1.51,5.2,2.55,1.85,1.02,4,1.75,6.07,2.17,2.28.55,4.67-.45,6.93-.77,3.16-.63,6.43-1.19,9.53-2.11,1.77-.53,3.63-1.31,5.2-2.3,1.05-.61,2.18-1.79,3.47-1.82,1.98,0,4.09,0,6.07,0"/><path class="b" d="M8.92,102.76c3.48-.18,6.96-.87,10.4-1.3,7.79-.12,15.62-.17,23.4.42,1.77.05,3.54.59,5.2,1.13,2.52.62,5.19,1.33,7.8,1.29,8.9-1.26,17.87-2.42,26.86-2.55,6.34.41,12.72.9,19.06,1.24,6.09.33,12.39.41,18.2-1.71.79-.28,1.85-.74,2.6-1.11,1.97-.36,4.08-.58,6.07-.85,4.55-.8,9.54-1.12,13.86.78,2.28,1.74,5.04,2.94,7.8,3.67,1.36.32,2.93.81,4.33.46,4.91-.96,9.95-1.67,14.73-3.2,1.46-.5,3.04-1.23,4.33-2.08,1.04-.63,2.17-1.84,3.47-1.78,1.98,0,4.09,0,6.07,0"/><path class="b" d="M8.92,100.9c3.47-.14,6.92-1.13,10.4-.95,7.79-.06,15.62-.18,23.4.42,2.36.08,4.65.95,6.93,1.45,1.67.36,3.5.65,5.2.83,1.09-.11,2.38-.31,3.47-.46,5.46-.79,10.97-1.53,16.46-1.95,3.15-.22,6.38-.47,9.53-.13,5.76.36,11.56.77,17.33,1.03,6.4.29,13.12.26,19.06-2.45,2.17-.78,4.67-.7,6.93-1.08,3.13-.49,6.36-1,9.53-.65,1.1.11,2.41.32,3.47.63,1.28,1,2.85,1.96,4.33,2.65,1.9.88,4.02,1.56,6.07,2.02,1.37.4,2.95.42,4.33.05,4.62-.94,9.38-1.55,13.86-3.05,1.47-.51,3.04-1.28,4.33-2.16,1-.66,2.16-1.84,3.47-1.67,1.98,0,4.09,0,6.07,0"/><path class="b" d="M8.92,99.04c2-.13,4.08-.5,6.07-.68,2.57.07,5.23.08,7.8.04,6.34-.03,12.73-.07,19.06.37,4.11.19,8.03,1.77,12.13,2.1,1.99.12,4.09-.48,6.07-.69,8.31-1.15,16.72-2.61,25.13-1.79,8.64.39,17.35,1.44,25.99.67,2.01-.23,4.13-.64,6.07-1.24,1.43-.36,2.85-1.35,4.33-1.47,2.27-.3,4.67-.46,6.93-.8,2.54-.44,5.21-.78,7.8-.63,1.13.1,2.58.03,3.47.86,2.32,1.72,5.05,3,7.8,3.87,1.65.53,3.49.97,5.2,1.24,1.71-.06,3.51-.56,5.2-.83,3.76-.72,7.64-1.29,11.26-2.57,1.48-.53,3.05-1.34,4.33-2.26.7-.52,1.71-1.34,2.6-1.52,2.27,0,4.66,0,6.93,0"/><path class="b" d="M8.92,97.17c4-.64,8.09-.2,12.13-.28,6.63-.04,13.31-.13,19.93.27,4.4.15,8.63,1.62,13,2.02,4.34-.25,8.68-1.28,13-1.78,3.72-.54,7.51-.99,11.26-1.15,2.28.1,4.66.24,6.93.36,8.93.34,17.96,1.47,26.86.3,1.72-.27,3.56-.69,5.2-1.26.79-.28,1.85-.73,2.6-1.12.75-.2,1.83-.3,2.6-.38,3.76-.23,7.51-1.09,11.26-1.35,4.14-.24,3.61.14,6.93,2.24,2.66,1.57,5.68,2.67,8.67,3.44,1.07.27,2.37.54,3.47.7,1.69-.24,3.51-.61,5.2-.91,3.76-.71,7.65-1.27,11.26-2.59,2.21-.75,4.16-2.26,6.07-3.56,1.07-.28,2.39.03,3.47.16,1.38.2,2.94.38,4.33.44"/><path class="b" d="M8.92,95.3c3.72-.28,7.53.17,11.26.05,6.63-.02,13.3-.14,19.93.21,4.67.14,9.23,1.45,13.86,1.93,4.35-.34,8.68-1.3,13-1.91,3.14-.49,6.36-.95,9.53-1.13,2.57.08,5.23.21,7.8.34,5.76.28,11.56.64,17.33.72,5.54.05,11.3-.18,16.46-2.38.43-.19,1.32-.63,1.73-.87.76-.1,1.83-.21,2.6-.28,1.99-.18,4.1-.4,6.07-.73,1.67-.3,3.5-.58,5.2-.64.78-.04,1.87-.13,2.6.24,1.07.74,2.34,1.64,3.47,2.29,3.72,2.12,7.92,3.49,12.13,4.21,2.29.07,4.66-.72,6.93-1.01,5.44-.96,11.26-1.81,15.6-5.53,2.83.58,5.76,1.15,8.67,1.2"/><path class="b" d="M8.92,93.57c10.38.49,20.81-.14,31.19.42,4.66.17,9.24,1.29,13.86,1.79,5.23-.51,10.41-1.66,15.6-2.47,5.42-1.08,10.99-.43,16.46-.25,8.64.27,17.42,1.2,25.99-.26,1.73-.33,3.57-.82,5.2-1.5.8-.33,1.86-.88,2.6-1.32.76-.12,1.83-.22,2.6-.3,3.17-.23,6.36-.93,9.53-1.13.76-.03,1.83-.07,2.6.01,1.49.67,2.91,1.87,4.33,2.66,2.42,1.4,5.13,2.47,7.8,3.26,1.66.49,3.48.94,5.2,1.16,2.3-.14,4.65-.76,6.93-1.08,4.41-.8,9.09-1.38,13-3.73.29-.32,1.3-.75,1.73-.82.75.16,1.84.36,2.6.48,2.26.36,4.65.57,6.93.61"/><path class="b" d="M8.92,92.03c10.39.42,20.81-.18,31.19.39,1.99.15,4.09.28,6.07.52,2.57.38,5.2.95,7.8,1.13,5.24-.54,10.42-1.73,15.6-2.62,2.26-.48,4.63-.6,6.93-.49,3.15.04,6.38.18,9.53.3,10.32.16,24.86,2.11,33.79-3.52,1.34-.44,2.95-.4,4.33-.6,3.14-.43,6.37-.42,9.53-.37,1.21.36,2.4,1.33,3.47,1.98,1.32.84,2.89,1.66,4.33,2.28,3.3,1.38,6.83,2.47,10.4,2.9,1.98-.31,4.08-.68,6.07-1,4.69-.84,9.71-1.33,13.86-3.84,3.72.44,7.51.94,11.27.92"/><path class="b" d="M8.92,90.47c10.68.37,21.39-.25,32.06.42,4.37.03,8.66,1.15,13,1.46,5.25-.52,10.42-1.8,15.6-2.78,1.96-.49,4.07-.37,6.07-.36,3.44-.02,6.96.11,10.4.23,6.92.21,13.89.6,20.8.03,2.91-.27,5.91-.76,8.66-1.77,1.79-.6,3.49-1.77,5.2-2.53,2.56-.2,5.23-.13,7.8-.14,1.68.07,3.55-.18,5.2.17,2.8,1.64,5.57,3.55,8.67,4.63,3.04,1.1,6.27,2.19,9.53,2.32,1.69-.27,3.51-.57,5.2-.84,4.69-.72,9.48-1.37,13.86-3.26,4.01.44,8.1.71,12.13.71"/><path class="b" d="M8.92,88.9c10.68.25,21.39-.18,32.06.35,4.07.07,8.1.92,12.13,1.36,5.27-.14,10.45-1.73,15.6-2.74,1.95-.54,4.07-.35,6.07-.38,3.73-.07,7.53.02,11.26.13,6.05.15,12.15.41,18.2.07,5.57-.25,10.75-1.36,15.6-4.2,1.65-.38,3.52-.11,5.2-.18,2.57.02,5.23-.05,7.8.04,2.38,1.05,4.5,2.86,6.93,3.84,3.81,1.59,7.96,3.21,12.13,3.18,5.47-.97,11.13-1.34,16.46-2.95,1.88-.85,4.08-.2,6.07-.22,2.86.14,5.8.23,8.67.2"/><path class="b" d="M8.92,87.32c10.68.14,21.39-.15,32.06.28,4.06.07,8.1.9,12.13,1.31,5.29-.13,10.45-1.79,15.6-2.9,1.65-.39,3.51-.13,5.2-.23,3.73-.11,7.53-.11,11.26-.02,6.05.11,12.15.34,18.2.01,5.4-.23,10.85-1.25,15.6-3.94,1.62-.52,3.52-.16,5.2-.26,2.57,0,5.23,0,7.8,0,1.25.13,2.42,1.12,3.47,1.74,1.33.85,2.89,1.68,4.33,2.32,3.56,1.55,7.39,2.7,11.26,3.09,5.18-.85,10.47-1.28,15.6-2.41,2.2-.82,4.63-.49,6.93-.45,3.15.09,6.38.14,9.53.1"/><path class="b" d="M8.92,85.76c10.68.02,21.38-.15,32.06.19,4.06.06,8.1.88,12.13,1.27,5.01-.07,9.9-1.68,14.73-2.84,1.95-.37,4.09-.17,6.07-.31,3.44-.15,6.95-.21,10.4-.16,5.76.05,11.57.23,17.33-.01,5.65-.2,11.42-1.01,16.46-3.72,1.6-.61,3.52-.23,5.2-.33,2.57,0,5.23,0,7.8,0,1.25-.14,2.47.78,3.47,1.41,1.33.87,2.89,1.75,4.33,2.42,3.81,1.7,7.94,3.06,12.13,3.27,4.59-.7,9.28-1.12,13.86-1.86,1.08-.17,2.37-.53,3.47-.63,1.38,0,2.95.03,4.33.04,3.44.03,6.96.06,10.4,0"/><path class="b" d="M8.92,84.21c11.26-.09,22.54-.26,33.79.16,4.05.07,8.08,1.33,12.13,1.1,4.13-.35,8.16-1.59,12.13-2.67,2.54-.39,5.23-.27,7.8-.47,7.78-.5,15.61-.1,23.4-.28,6.15-.17,12.56-.47,18.2-3.17,1.28-.74,2.89-.85,4.33-.77,1.98,0,4.08,0,6.07,0,6.8-.15,4.75,0,10.4,3.15,4.03,2.09,8.49,3.47,13,3.97,4.32-.39,8.68-1,13-1.45,2.61-.4,5.13-.81,7.8-.68,4.02-.02,8.11-.03,12.13-.13"/><path class="b" d="M8.92,82.68c8.65-.28,17.34-.17,25.99-.18,3.45.02,6.96.07,10.4.38,2.58.24,5.21.8,7.8.92,4.44.13,8.78-1.3,13-2.53,1.97-.32,4.08-.34,6.07-.5,7.77-.68,15.6-.59,23.4-.65,6.39-.16,13.04-.22,19.06-2.63,1.06-.42,2.31-1.06,3.47-1.14,2.28,0,4.66,0,6.93,0,2.27.11,4.71-.26,6.93.21,1.44.75,2.91,1.85,4.33,2.63,4.25,2.34,9.04,3.81,13.86,4.3,4.02-.39,8.1-.86,12.13-1.21,6.88-.98,13.87-.54,20.8-.86"/><path class="b" d="M8.92,81.12c6.63-.2,13.3-.28,19.93-.25,5.47-.03,11-.13,16.46.33,2.29.19,4.64.72,6.93.85,2.59.2,5.28-.07,7.8-.69,1.71-.41,3.52-.99,5.2-1.51,1.38-.21,2.94-.36,4.33-.49,7.48-.75,15.01-1.16,22.53-1.13,7.24-.18,14.77.03,21.66-2.5,1.07-.39,2.32-.97,3.47-1.1,2.57,0,5.23,0,7.8,0,1.98,0,4.08-.02,6.07.01,1.55.47,2.94,1.7,4.33,2.48,4.46,2.63,9.59,4.15,14.73,4.65,3.73-.32,7.52-.73,11.26-.99,7.18-.79,14.45-.57,21.66-.9"/><path class="b" d="M8.92,79.48c10.68-.13,21.38-.48,32.06-.23,6.07.03,12.14,2.01,18.2.74,1.72-.34,3.51-.96,5.2-1.43,2.26-.44,4.65-.7,6.93-.94,5.17-.58,10.39-1.13,15.6-1.21,8.08-.32,16.37.16,24.26-1.92,1.71-.44,3.45-1.31,5.2-1.58,2.57-.01,5.23,0,7.8,0,2.27.03,4.66-.08,6.93.06,1.19.45,2.39,1.39,3.47,2.05,4.66,2.95,10.13,4.51,15.6,5.01,3.45-.17,6.95-.59,10.4-.75,7.49-.62,15.03-.56,22.53-.9"/><path class="b" d="M8.92,77.87c10.97-.16,21.96-.56,32.93-.28,2.89.05,5.82.48,8.66.94,2.27.21,4.66.11,6.93.12,2.66-.09,5.21-1.22,7.8-1.68,6.3-1.02,12.69-1.91,19.06-2.33,8.07-.53,16.28-.08,24.26-1.6,2.33-.4,4.61-1.45,6.93-1.86,2.28-.02,4.66,0,6.93,0,1.98,0,4.08,0,6.07,0,1.43.14,3.16.2,4.33,1.11,5.05,3.61,11.18,5.48,17.33,5.97,3.44-.06,6.95-.46,10.4-.58,7.49-.45,15.03-.47,22.53-.83"/><path class="b" d="M8.92,76.26c10.96-.25,21.96-.61,32.93-.39,2.89.03,5.83.45,8.66.96,2.27.16,4.66.05,6.93.08,2.96.19,5.78-1.1,8.66-1.55,5.17-.87,10.39-1.74,15.6-2.35,7.76-.85,15.64-.54,23.4-1.49,2.01-.26,4.12-.68,6.07-1.24,1.36-.39,2.89-.93,4.33-.84,3.44,0,6.95,0,10.4,0,2.03.01,4.11.66,6.07,1.15,1.23.22,2.4,1.16,3.47,1.75,1.33.76,2.9,1.47,4.33,1.99,3.59,1.33,7.46,1.95,11.26,2.22,1.98-.15,4.08-.24,6.07-.32,8.65-.43,17.34-.47,26-.88"/><path class="b" d="M8.92,74.66c11.25-.34,22.54-.7,33.79-.49,2.6.04,5.26.42,7.8.97,2.57.1,5.23.02,7.8.04,2.64.16,5.23-.79,7.8-1.25,3.73-.73,7.54-1.32,11.26-2.06,4.29-.66,8.7-.74,13-1.39,4.01-.48,8.12-.38,12.13-.83,2-.19,4.11-.49,6.07-.93,1.68-.34,3.47-1.01,5.2-1.03,3.73.02,7.53-.05,11.26.03,1.72.23,3.52.79,5.2,1.21,1.08.28,2.39.62,3.47.92,1.4.67,2.88,1.59,4.33,2.16,3.01,1.25,6.29,2.02,9.53,2.41,4.58.65,9.26.01,13.86,0,7.21-.15,14.46-.23,21.66-.57"/><path class="b" d="M8.92,73.05c11.54-.4,23.11-.78,34.66-.62,2.32.04,4.71.35,6.93,1.01,2.86.02,5.8,0,8.66,0,2.62.12,5.25-.63,7.8-1.1,3.46-.59,6.94-1.52,10.4-2.03,4.61-.37,9.28-.78,13.86-1.42,2-.28,4.1-.64,6.07-1.1,1.69-.11,3.52-.24,5.2-.43,2.89-.25,5.79-.99,8.66-1.39,1.69-.04,3.51-.01,5.2-.02,2.28,0,4.66-.01,6.93,0,2.03.25,4.08,1.02,6.07,1.49,1.68.44,3.52.87,5.2,1.32.74.42,1.82.94,2.6,1.28,3.01,1.29,6.29,2.08,9.53,2.49,4.87.73,9.83.28,14.73.27,7.21-.03,14.46-.07,21.66-.39"/><path class="b" d="M8.92,71.43c12.12-.43,24.27-.88,36.39-.8,1.74.04,3.64.25,5.2,1.07,2.86.03,5.8,0,8.66.01,5.9.29,11.57-1.86,17.33-2.68,6.06-.6,12.2-1.05,18.2-2.17,1.4-.27,2.96-.63,4.33-1.03,1.08-.3,2.33-.84,3.47-.89,1.99-.2,4.07-.59,6.07-.71,2.28-.01,4.66,0,6.93,0,2.28.02,4.66-.04,6.93.03,1.73.3,3.51.98,5.2,1.42,2.26.62,4.66,1.12,6.93,1.69,3.52,1.71,7.38,2.82,11.26,3.32,5.44.78,10.99.49,16.46.51,6.92.07,13.88.11,20.8-.18"/><path class="b" d="M8.92,69.79c13.57-.59,27.17-.65,40.73-1.48.49.3,1.35,1.04,1.73,1.47,2.56.2,5.23.16,7.8.19,2.28-.01,4.67.1,6.93-.27,4.07-.53,8.02-1.93,12.13-2.2,5.77-.66,11.63-1.1,17.33-2.29,1.72-.37,3.55-.9,5.2-1.51,1.36-.48,2.85-1.28,4.33-1.21,3.73,0,7.53,0,11.26,0,1.69.02,3.51-.04,5.2.04,1.43.26,2.94.85,4.33,1.26,2.82.87,5.81,1.39,8.66,2.12,3.53,1.63,7.41,2.59,11.26,3.05,12.37,1.32,24.85.03,37.26.49"/><path class="b" d="M8.92,68.12c9.52-.34,19.08-.55,28.59-1.04,2.29-.15,4.69-.3,6.93-.8.47-.1,1.3-.41,1.73-.61,1.41-.06,2.96.31,4.33.6,1.46.29,2.84,1.25,4.33,1.41,3.99.6,8.11.68,12.13.47,3.79-.33,7.48-1.6,11.26-1.95,8.14-1.17,16.7-1.26,24.26-4.82,1.3-.71,2.91-.64,4.33-.61,1.98,0,4.08,0,6.07,0,2.57,0,5.23-.02,7.8.01,1.12.16,2.39.64,3.47.99,3.08,1.06,6.35,1.69,9.53,2.36,3.84,1.64,7.98,2.65,12.13,3.09,12.39,1.26,24.85-.23,37.26.2"/><path class="b" d="M8.92,66.42c8.95-.23,17.93-.45,26.86-1.11,2.31-.17,4.75-.39,6.93-1.22,1.98-.12,4.08-.03,6.07.05,1.4.07,2.95.18,4.33.44,1.59.76,3.47,1.12,5.2,1.39,3.99.63,8.11.7,12.13.44,2.01-.22,4.07-.87,6.07-1.18,8.37-1.58,17.33-1.31,25.13-5.1,1.35-.77,2.76-1.25,4.33-1.09,1.98,0,4.08,0,6.07,0,1.98,0,4.08,0,6.07,0,1.75-.14,3.58.23,5.2.9,2.79.99,5.76,1.67,8.67,2.24,3.93,1.37,7.97,2.68,12.13,3.13,12.95,1.55,26.01-.28,38.99.11"/><path class="b" d="M8.92,64.66c7.8-.07,15.63-.32,23.4-1.03,1.7-.16,3.52-.37,5.2-.68,1.09-.28,2.34-.45,3.47-.45,4.31-.22,8.69-.33,13-.05,3.65,1.11,7.45,2,11.26,2.3,2.57.03,5.24.13,7.8-.05,2.86-.51,5.78-1.13,8.66-1.52,6.09-.98,12.5-1.28,18.2-3.85,1.11-.52,2.36-1.27,3.47-1.79.74-.3,1.82-.24,2.6-.23,1.39,0,2.94,0,4.33,0,2.28,0,4.66,0,6.93,0,1.4,0,2.99-.12,4.33.39,2.8,1,5.74,1.89,8.67,2.45,3.36,1.24,6.86,2.32,10.4,2.93,14.05,2.34,28.33.05,42.46.35"/><path class="b" d="M8.92,62.7c6.91.4,13.91-.14,20.8-.83,2-.23,4.12-.53,6.07-1.06,1.68-.18,3.51-.09,5.2-.08,3.15-.19,6.38-.3,9.53-.35,1.98.04,4.12-.18,6.07.21,3.4.95,6.89,1.95,10.4,2.42,2.57.08,5.23.03,7.8.02,2.3-.22,4.65-.75,6.93-1.09,5.5-.95,11.23-1.37,16.46-3.45,1.79-.7,3.49-1.91,5.2-2.77.76-.2,1.82-.15,2.6-.15,2.86,0,5.8,0,8.66,0,1.98.06,4.11-.16,6.07.19,6.06,1.76,11.94,4.32,18.2,5.37,14.6,2.58,29.48.29,44.19.37"/><path class="b" d="M8.92,58.77c3.26,2.38,7.45,2.03,11.26,1.86,3.17-.18,6.4-.49,9.53-1.03,1.1-.18,2.37-.55,3.47-.74,1.69-.08,3.51-.1,5.2-.09,4.61.12,9.26-.33,13.86-.37,2.27.03,4.68-.27,6.93.07,3.2.78,6.33,2.06,9.53,2.8,3.15.03,6.38.1,9.53-.04,3.17-.38,6.38-1,9.53-1.52,3.52-.64,7.15-1.33,10.4-2.87,1.14-.54,2.42-1.34,3.47-2.05.7-.48,1.71-1.07,2.6-.97,4.89.13,9.93-.47,14.73.74,8,2.13,15.98,4.7,24.26,5.51,13.26,1.22,26.58-.34,39.86-.45"/><path class="b" d="M8.92,53.54c2.36,1.68,5.05,3.13,7.8,4.05,2.82.63,5.83.42,8.66.04,1.1-.17,2.39-.42,3.47-.71,1.68-.19,3.51-.14,5.2-.16,8.95.25,17.92-.29,26.86-.64,2.09-.35,4.19.45,6.07,1.32,1.17.54,2.31,1.59,3.47,2.14,3.73-.05,7.54.13,11.26-.09,4.98-.69,10.09-1.53,14.73-3.52.8-.36,1.86-.94,2.6-1.41,1.38-.39,2.93-.78,4.33-1.07,4.83-1.17,9.9-.74,14.73.24,9.18,1.85,18.34,4.31,27.73,4.85,12.42.67,24.84-.57,37.26-.7"/><path class="b" d="M8.92,50.37c1.82-.09,3.57.88,5.2,1.56,1.91.84,4.01,1.54,6.07,1.9,3.41.61,6.95.66,10.4.8,3.73.09,7.53.34,11.26.33,4.89-.19,9.84-.34,14.73-.62,2.28-.14,4.68-.3,6.93-.69,2-.29,4.11-1.16,5.2-2.96.42-.22,1.26-.4,1.73-.32.33,1.58,1.16,4.86,1.73,6.35.66.69,1.66,1.06,2.6,1.08,1.39.09,2.94.05,4.33.06,2.28-.03,4.67.13,6.93-.25,5.58-1,10.97-2.96,16.46-4.34,5.63-1.75,11.61-1.12,17.33-.17,8.93,1.35,17.81,3.43,26.86,3.79,12.13.5,24.26-.62,36.39-.73"/><path class="b" d="M8.92,48.63c1.69.04,3.52-.11,5.2.13,2.33.48,4.64,1.45,6.93,2.08,3.64,1.11,7.48,1.56,11.26,1.82,6.91.62,13.88.32,20.8-.06,4.04-.27,8.21-.41,12.13-1.52.81-.25,1.88-.72,2.6-1.18.34-.34,1.25-.83,1.73-.91,2.19,4.59,4.35,6.52,9.53,6.93,2.56.21,5.24.3,7.8.03,4.98-.71,9.87-2.18,14.73-3.44,6.75-2.09,13.92-1.22,20.8-.31,8.36,1.01,16.68,2.78,25.13,2.96,11.84.37,23.69-.65,35.53-.71"/><path class="b" d="M8.92,46.9c2.86.1,5.85-.27,8.66.29,4.31,1.14,8.52,2.92,13,3.31,6.6.89,13.3.73,19.93.37,6.14-.32,12.43-.67,18.2-2.96,3.25,4.26,7.87,5.64,13,6.14,7.06,1.05,13.99-1.49,20.8-3.05,6.82-1.61,13.91-.83,20.8-.12,8.37.84,16.69,2.51,25.13,2.57,6.06.2,12.15-.05,18.2-.31,5.47-.17,10.99-.26,16.46-.36"/><path class="b" d="M8.92,45.86c2.84-.45,5.79-.65,8.66-.66,2.37.23,4.68,1.16,6.93,1.88,2.51.82,5.18,1.36,7.8,1.68,6.02.81,12.15.55,18.2.24,3.75-.21,7.56-.5,11.26-1.11,1.99-.2,4.19-1.12,6.07-1.25,5.21,4.55,12.44,5.33,19.06,5.92,5.28-.39,10.44-1.9,15.6-3.02,6.84-1.34,13.9-.76,20.8-.18,8.38.7,16.7,2.31,25.13,2.35,5.77.18,11.57-.02,17.33-.27,5.76-.16,11.57-.24,17.33-.32"/><path class="b" d="M8.92,45.39c3.93-1.06,8.08-1.34,12.13-1.39,4.29,1.11,8.54,2.69,13,3.05,8.06.74,16.23.25,24.26-.59,1.7-.2,3.52-.46,5.2-.77,1.1-.13,2.36-.72,3.47-.41,4.37,2.88,9.64,3.96,14.73,4.78,1.97.28,4.07.66,6.07.69,3.19-.32,6.41-.97,9.53-1.68,6.76-1.84,13.84-2,20.8-1.63,8.12.3,16.17,1.63,24.26,2.27,7.78.47,15.61.32,23.4-.02,5.76-.14,11.57-.2,17.33-.26"/><path class="b" d="M8.92,45.12c4.97-1.83,10.34-2.29,15.6-2.13,3.94,1.17,8.03,2.07,12.13,2.35,6.63.46,13.33.08,19.93-.56,1.99-.2,4.09-.47,6.07-.77,1.1-.09,2.42-.68,3.47-.13,4.28,2.26,9.13,3.24,13.86,4.08,2.56.4,5.21.96,7.8,1.02,1.7-.18,3.52-.46,5.2-.78,2.59-.45,5.2-1.2,7.8-1.61,3.13-.5,6.37-.72,9.53-.79,10.74-.35,21.39,1.27,32.06,2.17,7.78.44,15.61.3,23.4-.02,5.76-.12,11.57-.16,17.33-.19"/><path class="b" d="M8.92,44.61c2.83-.87,5.73-1.84,8.66-2.31,3.12-.49,6.38-.63,9.53-.51,3.39.85,6.91,1.47,10.4,1.7,8.97.6,17.97-.39,26.86-1.46,3.8,1.84,8,2.8,12.13,3.59,3.43.64,6.93,1.28,10.4,1.66,4.97-.38,9.78-1.96,14.73-2.48,7.47-.82,15.04-.69,22.53-.23,8.09.51,16.14,1.88,24.26,1.87,5.77.17,11.57-.01,17.33-.23,5.76-.11,11.57-.11,17.33-.13"/><path class="b" d="M8.92,43.67c3.17-.74,6.33-1.81,9.53-2.45,3.4-.66,6.94-.91,10.4-.92,2.55.53,5.21.97,7.8,1.21,4.01.37,8.11.34,12.13.13,3.16-.16,6.38-.44,9.53-.74,1.69-.09,3.52-.54,5.2-.32,3.31,1.4,6.89,2.23,10.4,2.91,4.01.75,8.08,1.55,12.13,2.02,2-.13,4.1-.48,6.07-.9,10.49-2.35,21.38-2.27,32.06-1.73,6.36.34,12.7,1.3,19.06,1.63,7.5.33,15.03.24,22.53-.06,5.76-.11,11.57-.07,17.33-.08"/><path class="b" d="M8.92,42.4c3.49-.58,6.94-1.65,10.4-2.39,3.11-.68,6.36-.99,9.53-1.28,1.99-.18,4.08.56,6.07.69,2.85.35,5.8.5,8.66.5,6.07,0,12.15-.66,18.2-1.07,3.93,1.38,8.03,2.38,12.13,3.09,3.72.67,7.5,1.43,11.26,1.86,2.3-.2,4.67-.7,6.93-1.15,10.55-1.92,21.38-1.94,32.06-1.45,6.65.33,13.28,1.32,19.93,1.59,7.21.26,14.46.21,21.66-.09,5.76-.11,11.57-.04,17.33-.03"/><path class="b" d="M8.92,40.9c3.79-.44,7.54-1.44,11.26-2.27,3.12-.68,6.37-1.11,9.53-1.55,1.68-.3,3.51.32,5.2.43,2.56.31,5.22.48,7.8.51,5.77.08,11.57-.52,17.33-.79,1.45-.01,2.92.87,4.33,1.15,2.54.69,5.21,1.22,7.8,1.71,4.01.66,8.07,1.68,12.13,1.94,2-.24,4.09-.66,6.07-1.03,10.85-1.85,21.96-1.95,32.93-1.54,6.94.28,13.86,1.27,20.8,1.56,7.21.24,14.46.22,21.66-.08,5.76-.11,11.57-.01,17.33.02"/><path class="b" d="M8.92,39.24c7.6-.71,14.98-2.99,22.53-4.03,3.15.36,6.37.74,9.53.86,6.06.25,12.14-.37,18.2-.52,3.69,1.07,7.47,2.07,11.26,2.71,4.02.72,8.07,1.61,12.13,2.03,2-.23,4.09-.64,6.07-.99,11.43-1.83,23.11-1.95,34.66-1.57,7.23.26,14.44,1.26,21.66,1.52,6.92.19,13.88.2,20.8-.1,5.76-.11,11.57-.01,17.33.07"/><path class="b" d="M8.92,37.48c5.56-.26,11.03-1.58,16.46-2.7,1.99-.41,4.09-.83,6.07-1.32,1.4-.03,2.94.22,4.33.32,7.2.79,14.45.23,21.66.09,1.15-.06,2.37.61,3.47.86,2.25.62,4.64,1.12,6.93,1.56,4.3.81,8.64,1.75,13,2.23,2.01-.1,4.09-.6,6.07-.91,12.01-1.83,24.27-1.92,36.39-1.58,7.51.25,15.01,1.24,22.53,1.46,6.34.12,12.72.21,19.06-.09,6.05-.15,12.15-.06,18.2.07"/><path class="b" d="M8.92,35.64c5.55-.16,11.06-1.21,16.46-2.43,1.4-.31,2.95-.67,4.33-1.03,1.08-.29,2.33-.75,3.47-.53,7.48.79,15.02.63,22.53.48,1.15-.1,2.38.47,3.47.76,1.96.56,4.07,1.01,6.07,1.41,4.59.91,9.22,1.86,13.86,2.43,2.01-.01,4.09-.58,6.07-.86,12.31-1.83,24.84-1.83,37.26-1.6,7.8.2,15.6,1.15,23.4,1.41,12.48.38,24.76-.46,37.26,0"/><path class="b" d="M8.92,33.76c5.24-.1,10.49-.8,15.6-2,1.7-.39,3.53-.85,5.2-1.35,1.08-.3,2.32-.92,3.47-.7,5.18.39,10.4.71,15.6.63,1.98-.01,4.08-.03,6.07.02,2.01.37,4.04,1.21,6.07,1.57,4.3.92,8.66,1.8,13,2.49,1.39.2,2.93.54,4.33.56,1.7-.23,3.51-.57,5.2-.84,12.6-1.85,25.42-1.75,38.13-1.62,8.38.15,16.75,1.1,25.13,1.36,12.13.34,24.27-.46,36.39,0"/><path class="b" d="M8.92,31.84c7.97-.03,15.92-1.4,23.4-4.18,4.6.3,9.25.64,13.86.73,1.69.04,3.51.06,5.2.1,1.11.03,2.44-.01,3.47.46,4.79,1.48,9.81,2.3,14.73,3.22,2.27.39,4.64.82,6.93,1.11,1.7-.22,3.51-.55,5.2-.83,12.31-1.83,24.84-1.68,37.26-1.68,9.25.04,18.48,1.02,27.73,1.3,12.13.38,24.27-.46,36.39,0"/><path class="b" d="M8.92,29.9c8.47-.03,15.56-1.04,23.4-4.31,6.62.56,13.32.66,19.93,1.18,4.73,1.72,9.8,2.45,14.73,3.38,2.86.42,5.78,1.19,8.66,1.3,1.4-.19,2.94-.47,4.33-.69,13.17-1.96,26.57-1.71,39.86-1.72,7.8.04,15.59,1.06,23.4,1.14,6.34.14,12.72.16,19.06.13,6.92-.33,13.88-.3,20.8-.11"/><path class="b" d="M8.92,27.96c5.81-.1,11.75-.35,17.33-2.13,1.12-.35,2.4-.85,3.47-1.34.79-.34,1.73-.97,2.6-1.03,5.76.43,11.57.82,17.33,1.23,5.3,1.9,10.92,2.82,16.46,3.76,2.57.44,5.22.92,7.8,1.29,1.7-.1,3.51-.51,5.2-.75,13.18-1.89,26.57-1.61,39.86-1.67,7.51.14,15.01,1.07,22.53,1.15,7.21.21,14.45.01,21.66.01,6.63-.31,13.3-.34,19.93-.14"/><path class="b" d="M8.92,26.03c7.7-.12,15.8-.55,22.53-4.71,5.48.13,11.01.8,16.46,1.33,4.86,2.3,10.36,2.82,15.6,3.79,3.15.52,6.37,1.11,9.53,1.57,1.4-.12,2.94-.43,4.33-.63,13.18-1.93,26.57-1.72,39.86-1.74,8.08.26,16.17,1.07,24.26,1.21,13.86.47,27.73-.79,41.59-.36"/><path class="b" d="M8.92,24.12c7.69-.24,14.94-.5,21.66-4.71,1.06-.4,2.37-.15,3.47-.13,1.39.08,2.94.2,4.33.32,1.39.12,2.94.28,4.33.44,1.11.17,2.48.13,3.47.72,5.08,2.57,10.94,2.96,16.46,3.96,3.16.5,6.37,1.09,9.53,1.55,1.7-.15,3.51-.52,5.2-.74,6.59-.87,13.29-1.1,19.93-1.31,6.63-.18,13.3-.3,19.93-.13,8.95.26,17.9,1.13,26.86,1.21,13.01.47,25.99-1.12,38.99-.7"/><path class="b" d="M8.92,22.24c5.82-.38,11.97-.42,17.33-2.97,1.11-.53,2.32-1.33,3.47-1.77,1.69-.13,3.51-.04,5.2-.06,2.58-.03,5.24.18,7.8.52.8.36,1.81.97,2.6,1.35,5.14,2.38,10.95,2.72,16.46,3.68,3.16.48,6.37,1.05,9.53,1.52,2-.1,4.07-.6,6.07-.78,13.52-1.2,27.16-1.38,40.73-1.18,9.82.33,19.63,1.22,29.46,1.28,5.18.07,10.42.04,15.6-.26,6.62-.59,13.28-1.08,19.93-.85"/><path class="b" d="M8.92,20.4c4.34-.35,8.79-.63,13-1.83,1.13-.32,2.42-.83,3.47-1.36,1.08-.51,2.24-1.41,3.47-1.51,1.09,0,2.38,0,3.47,0,2.28,0,4.65,0,6.93,0,1.58-.14,2.97,1.13,4.33,1.74,1.88.95,4.01,1.59,6.07,2.03,4.57.94,9.26,1.44,13.86,2.17,2.57.33,5.21.99,7.8,1.1,1.69-.25,3.5-.53,5.2-.69,13.82-1.08,27.73-1.3,41.59-1.1,10.4.35,20.79,1.33,31.19,1.44,5.19.09,10.43.11,15.6-.33,6.04-.59,12.11-1.46,18.2-1.25"/><path class="b" d="M8.92,18.6c5.6-.6,11.48-1.17,16.46-4,1.27-.83,2.89-.63,4.33-.64,2.28,0,4.65,0,6.93,0,.8,0,1.84-.07,2.6.22,1.1.55,2.34,1.31,3.47,1.82,2.71,1.23,5.74,1.84,8.66,2.32,5.76.86,11.58,1.54,17.33,2.49,1.4.36,2.93.08,4.33-.14,1.39-.18,2.94-.33,4.33-.43,7.78-.54,15.6-.71,23.4-.87,9.82-.25,19.67-.21,29.46.61,10.95.77,21.95,1.4,32.93.88,6.68-.12,13.25-1.9,19.93-1.9"/></svg>