<?xml version="1.0" encoding="UTF-8"?><svg id="a" xmlns="http://www.w3.org/2000/svg" width="1920" height="2400" viewBox="0 0 192 240"><defs><style>.b{fill:none;stroke:#fff;stroke-miterlimit:10;stroke-width:.3px;}.c{stroke-width:0px;}</style></defs><rect class="c" x="0" width="192" height="240"/><path class="b" d="M8.67,222.35c5.75.7,11.58,1.36,17.38,1.31,2.31,0,4.69-.32,6.95-.74,1.7.09,3.52.2,5.21.31,3.75.25,7.56.62,11.3.98,1.99.27,4.07.74,6.08.84,6.35.37,12.76.51,19.12.74,3.75-.06,7.55-.27,11.3-.32,3.45-.07,6.98-.1,10.43.05,2.29.07,4.68.56,6.95.05,3.64-.48,6.92-2.41,10.43-3.35,3.44-.94,7.03-.1,10.43.59,2.84.47,5.83.5,8.69.3,2.96-.26,5.97-.94,8.69-2.14,1.42-.61,2.9-1.53,4.34-2.07.76-.14,1.84-.11,2.61-.1,5.49.06,11.03-.11,16.51.07,5.98,1.26,12.12,2.37,18.25,1.66"/><path class="b" d="M8.67,220.97c5.48.51,11,1.11,16.51,1.07,2.3-.02,4.69-.25,6.95-.64,1.4.11,2.95.24,4.34.35,5.5.44,11.03,1.01,16.51,1.57,4.91.25,9.86.39,14.77.58,7.23.36,14.49-.39,21.72-.36,2.87-.03,5.82-.02,8.69.15,2.3.1,4.68.7,6.95.05,3.86-.72,7.35-3.02,11.3-3.38,3.21-.35,6.41.64,9.56,1.08,3.44.38,7.01.41,10.43-.19,2.38-.41,4.81-1.19,6.95-2.33,1.08-.57,2.32-1.4,3.48-1.81,1.08-.1,2.39-.05,3.48-.06,4.62.02,9.29-.05,13.9.03,2.31.35,4.64,1.12,6.95,1.49,3.99.7,8.12.99,12.17.8"/><path class="b" d="M8.67,219.66c5.19.33,10.43.85,15.64.83,2.29-.02,4.69-.13,6.95-.53,2.58.24,5.24.51,7.82.75,10.38,1.08,20.86,1.31,31.28,1.59,7.81-.33,15.65-.67,23.46-.63,3.47-.01,6.99.28,10.43.7,3.01-.35,5.87-1.62,8.69-2.63,2.47-.87,5.22-1.2,7.82-.85,5.71,1.02,11.63,1.86,17.38.56,1.76-.38,3.61-1.02,5.21-1.85,1.42-.67,2.79-1.92,4.34-2.27,1.99,0,4.1,0,6.08,0,3.45.06,6.99-.13,10.43.09,6.22,1.7,12.64,2.82,19.12,2.73"/><path class="b" d="M8.67,218.42c7.52.35,15.08.89,22.59.28,4.03.43,8.12.83,12.17,1.15,5.49.08,11.02.32,16.51.49,5.23.32,10.41.18,15.64-.11,7.52-.26,15.07-.6,22.59-.32,2.3.1,4.69.34,6.95.73,3.02-.29,5.84-1.7,8.69-2.62,2.49-.82,5.23-1.06,7.82-.72,6,1.01,12.28,1.82,18.25.15,1.8-.5,3.64-1.34,5.21-2.35,1.01-.62,2.21-1.65,3.48-1.53,2.28,0,4.67,0,6.95,0,2.58.01,5.25-.03,7.82.02,1.73.25,3.52.92,5.21,1.32,4.81,1.22,9.83,1.68,14.77,1.91"/><path class="b" d="M8.67,217.25c4.62,0,9.28.34,13.9.35,3.16.15,6.41-.32,9.56.06,4.89.57,9.85.76,14.77.69,4.91.12,9.87.24,14.77.42,4.62.22,9.29-.27,13.9-.38,8.67-.25,17.41-.79,26.07-.11,1.4.13,2.96.36,4.34.61,3.02-.24,5.81-1.78,8.69-2.6,2.5-.77,5.23-.94,7.82-.6,6.3.98,12.98,1.78,19.12-.43,1.84-.66,3.61-1.81,5.21-2.9.95-.69,2.37-.48,3.48-.51,1.99,0,4.1,0,6.08,0,2.28.03,4.67-.07,6.95.05,2.02.41,4.07,1.2,6.08,1.65,4.54,1.09,9.26,1.54,13.9,1.94"/><path class="b" d="M8.67,216.12c5.2-.14,10.44.2,15.64.21,4.05-.08,8.12.39,12.17.49,8.39-.05,16.81,0,25.2.32,8.1-.35,16.23-.75,24.33-.92,6.07-.09,12.22-.34,18.25.49.78.11,1.84.3,2.61.45,1.45-.12,2.99-.68,4.34-1.16,2.77-1.05,5.69-2.1,8.69-2.15,3.19-.08,6.39.71,9.56.89,5.32.4,11.07.03,15.64-2.97.74-.5,1.78-1.23,2.61-1.59.76-.09,1.84-.07,2.61-.07,2.28,0,4.67,0,6.95,0,1.98.05,4.11-.11,6.08.09,2.3.57,4.63,1.46,6.95,1.95,4.27.98,8.69,1.45,13.04,1.97"/><path class="b" d="M8.67,214.97c8.1-.38,16.23.39,24.33.42,5.49-.06,11.02-.19,16.51-.15,4.04-.03,8.13.3,12.17.05,8.39-.39,16.8-.77,25.2-.93,6.07-.08,12.23-.33,18.25.61.78.13,1.84.34,2.61.49,1.43-.27,2.98-.8,4.34-1.31,2.76-1.06,5.7-2.01,8.69-2.01,2.89-.03,5.81.58,8.69.76,4.99.37,10.35.13,14.77-2.44,1.1-.62,2.29-1.61,3.48-2.06,2.87-.06,5.82,0,8.69-.03,2.28.07,4.69-.16,6.95.13,2.01.53,4.07,1.32,6.08,1.82,4.55,1.18,9.27,1.71,13.9,2.43"/><path class="b" d="M8.67,213.73c7.23-.4,14.5.16,21.72.25,6.07-.15,12.18-.29,18.25-.34,3.75,0,7.55.12,11.3-.14,8.68-.39,17.38-.8,26.07-.98,6.36-.08,12.81-.39,19.12.57,1.09.15,2.37.54,3.48.56,1.11-.25,2.41-.69,3.48-1.08,2.77-1.05,5.7-2.08,8.69-2.17,2.88-.12,5.82.43,8.69.61,4.06.29,8.31.17,12.17-1.26,1.84-.66,3.54-1.91,5.21-2.89,1.34-.45,2.95-.17,4.34-.24,1.99,0,4.1,0,6.08,0,1.98.07,4.12-.17,6.08.16,2,.56,4.07,1.37,6.08,1.89,4.55,1.22,9.28,1.82,13.9,2.68"/><path class="b" d="M8.67,211.82c18.24.85,36.52.52,54.74-.34,8.1-.37,16.23-.7,24.33-.84,6.07-.06,12.25-.31,18.25.76.78.15,1.84.38,2.61.55,1.45-.17,2.98-.81,4.34-1.3,2.49-.95,5.14-1.83,7.82-1.99,6.35-.2,12.87,1.56,19.12-.35,2.15-.6,4.2-1.78,6.08-2.96,1.25-.76,2.95-.4,4.34-.48,2.58,0,5.25,0,7.82,0,1.69.06,3.55-.17,5.21.18,2,.59,4.06,1.41,6.08,1.96,4.55,1.28,9.29,1.95,13.9,2.94"/><path class="b" d="M8.67,209.63c7.23.36,14.5.53,21.72.76,8.69.2,17.39-.03,26.07-.49,9.55-.4,19.12-.88,28.68-1.06,6.94-.07,13.99-.48,20.86.74,1.39.21,2.96.95,4.34.37,3.15-1,6.25-2.52,9.56-2.93,6.35-.68,12.84,1.26,19.12-.53,2.47-.58,4.74-1.96,6.95-3.13,1.64-.43,3.53-.12,5.21-.21,3.16,0,6.4,0,9.56,0,3.33-.19,6.33,1.77,9.56,2.48,4.28,1.18,8.72,1.92,13.04,2.97"/><path class="b" d="M8.67,207.44c5.48.37,11.02.37,16.51.56,7.51.5,15.07.79,22.59.36,11.87-.43,23.75-1.11,35.63-1.35,7.22-.08,14.56-.54,21.72.6,1.41.22,2.94.68,4.34.91,3.51-.91,6.81-2.76,10.43-3.27,6.04-.8,12.26.9,18.25-.66,2.44-.53,4.75-1.75,6.95-2.88,1.9-.63,4.11-.18,6.08-.31,3.16,0,6.4,0,9.56,0,1.45-.12,3.02.26,4.34.82,1.67.63,3.5,1.28,5.21,1.78,4.28,1.25,8.73,2.09,13.04,3.24"/><path class="b" d="M8.67,205.25c5.77.37,11.6.43,17.38.4,6.6.95,13.32,1.17,19.99.84,12.45-.36,24.91-1.14,37.37-1.36,7.23-.08,14.57-.54,21.72.68,1.41.26,2.96.67,4.34,1.02,3.53-.88,6.81-2.81,10.43-3.38,5.45-.85,11.07.46,16.51-.62,3.07-.42,5.84-2.03,8.69-3.11,5.19-.14,10.44-.01,15.64-.05,3.06-.18,5.81,1.69,8.69,2.46,4.56,1.47,9.3,2.47,13.9,3.79"/><path class="b" d="M8.67,203.05c5.77.33,11.62.53,17.38-.06,5.86,1.87,12.17,1.65,18.25,1.58,13.04-.23,26.07-1.15,39.1-1.33,6.94-.08,13.98-.48,20.86.63,1.72.29,3.53.8,5.21,1.25,3.27-.77,6.27-2.61,9.56-3.34,5.41-1.2,11.07.08,16.51-.93,3.04-.4,5.84-1.87,8.69-2.86,5.77-.17,11.6-.01,17.38-.06,1.48.03,2.99.79,4.34,1.31,1.37.56,2.94,1.14,4.34,1.6,4.29,1.39,8.71,2.5,13.04,3.76"/><path class="b" d="M8.67,200.81c2.87.17,5.82.24,8.69.17,2.61-.07,5.34-.19,7.82-1.05,3.97,2.15,8.62,2.37,13.03,2.58,5.49.21,11.02-.03,16.51-.14,9.26-.32,18.54-.93,27.81-1.01,6.07-.1,12.2-.35,18.25.24,2.94.26,5.86,1.06,8.69,1.85,2.38-.61,4.67-1.83,6.95-2.73,3.56-1.44,7.51-1.46,11.3-1.43,2.88.02,5.87-.11,8.69-.77,2.37-.47,4.63-1.64,6.95-2.27,3.74-.13,7.55-.01,11.3-.05,2.57.07,5.26-.15,7.82.11,1.75.5,3.52,1.41,5.21,2.06,5.09,1.96,10.39,3.47,15.64,4.93"/><path class="b" d="M8.67,198.51c5.24.13,10.84.46,15.64-1.98,3,2.23,6.75,3.22,10.43,3.5,6.04.79,12.18.53,18.25.45,10.42-.31,20.85-1.03,31.28-1.11,5.2-.06,10.47-.29,15.64.32,1.71.2,3.54.49,5.21.89,1.41.3,2.91.93,4.34,1.1,2.11-.54,4.11-1.7,6.08-2.58,1.89-.83,4.03-1.4,6.08-1.62,3.73-.39,7.57-.08,11.3-.56,2.97-.32,5.87-1.36,8.69-2.29,2.24-.43,4.68-.11,6.95-.2,3.74,0,7.55,0,11.3,0,3.14-.31,5.85,1.77,8.69,2.78,4.81,1.8,9.73,3.64,14.77,4.65"/><path class="b" d="M8.67,196.11c4.71,0,9.93,0,13.9-2.89h.87c2.63,1.81,5.49,3.5,8.69,4.03,1.71.23,3.49.8,5.21.99,4.02.43,8.13.38,12.17.38,10.14-.06,20.27-.98,30.41-1.08,7.24-.22,14.54-.39,21.72.75,2.33.34,4.7,1,6.95,1.66,1.53.09,3.02-.9,4.34-1.54,1.63-.87,3.43-1.74,5.21-2.24,5.95-1.6,12.32-.34,18.25-2.11,1.4-.36,2.93-.9,4.34-1.22,2.27-.25,4.67-.05,6.95-.11,4.62.05,9.29-.1,13.9.06,1.79.5,3.53,1.55,5.21,2.31,2.51,1.17,5.2,2.19,7.82,3.11,2.79.83,5.72,2.3,8.69,1.87"/><path class="b" d="M8.67,193.55c2.61-.08,5.33-.36,7.82-1.16,1.12-.35,2.36-.97,3.48-1.35,1.74-.12,3.71-.29,5.21.75,2.14,1.3,4.5,2.42,6.95,2.96,2.11,1.1,4.61,1.42,6.95,1.63,2.86.24,5.82.29,8.69.31,13.58-.03,27.2-1.33,40.84-1.26,4.33.35,8.74.53,13.03,1.2,1.41.23,2.97.57,4.34.95.77.21,1.82.52,2.61.69.44-.1,1.32-.37,1.74-.55,2.33-1.03,4.49-2.66,6.95-3.41,3.61-1.22,7.54-1.08,11.3-1.31,2.91-.14,5.88-.67,8.69-1.44,3.61-1.06,7.56-.43,11.3-.59,2.58,0,5.25,0,7.82,0,1.69.08,3.56-.2,5.21.2,4,1.92,7.94,4.15,12.17,5.57,3.03,1.08,6.37,2.4,9.56,1.19"/><path class="b" d="M8.67,190.78c2.65-.16,5.23-1.07,7.82-1.54,2.29,0,4.67,0,6.95,0,1.53-.04,2.99.94,4.34,1.53,1.8.61,3.42,1.89,5.21,2.52,5.31,1.62,11.02,1.39,16.51,1.5,9.27-.04,18.54-.87,27.81-1.08,2.58-.07,5.24-.15,7.82-.2,1.99.08,4.09.31,6.08.43,3.76.28,7.59.53,11.3,1.23,1.71.32,3.53.85,5.21,1.28,1.17,0,2.44-.62,3.48-1.12,1.45-.72,2.92-1.79,4.34-2.55,3.79-1.74,8.09-1.66,12.17-1.9,2-.11,4.12-.35,6.08-.74,1.98-.37,4.05-.99,6.08-.9,6.07,0,12.18,0,18.25,0,.76,0,1.85-.03,2.61.1,1.79.74,3.5,2,5.21,2.88,2.48,1.35,5.16,2.54,7.82,3.47,3.13,1.24,6.52,1.46,9.56-.2"/><path class="b" d="M8.67,187.85c2.85-.5,5.81-.33,8.69-.35,2.57.07,5.26-.16,7.82.12,1.26.26,2.5,1.02,3.48,1.84,1.28.89,2.85,1.61,4.34,2.03,6.5,1.61,13.34,1.4,19.99,1.33,9.85-.25,19.69-1.07,29.54-1.22,6.65.48,13.42.75,19.99,1.98,1.71.27,3.48,1.07,5.21,1.09,2.5-.64,4.8-2.13,6.95-3.52,1.95-1.5,4.57-1.87,6.95-2.12,4.64-.29,9.33-.51,13.9-1.4,3.14-.32,6.4-.08,9.56-.15,4.62,0,9.29,0,13.9,0,1.26-.14,2.52.76,3.48,1.48,1.04.76,2.37,1.58,3.48,2.24,5.46,3.12,11.82,5.93,17.38,1.36"/><path class="b" d="M8.67,185.76c3.45,0,6.97,0,10.43,0,1.1,0,2.38,0,3.48,0,.82-.01,1.88-.07,2.61.37,2.37,1.62,4.98,3.06,7.82,3.63,6.83,1.41,13.91,1.27,20.86,1.14,8.98-.21,17.96-1.08,26.94-1.21,8.12.77,16.42.85,24.33,2.99,2.71.91,5.55-1.33,7.82-2.58,1.67-.96,3.25-2.51,5.21-2.8,3.7-.74,7.56-.6,11.3-1,5.75-.82,11.59-.47,17.38-.54,4.04,0,8.13,0,12.17,0,1.33.16,2.49,1.33,3.48,2.15.98.92,2.35,1.79,3.48,2.5,1.86,1.12,3.95,2.19,6.08,2.68,1.97.27,4.19.35,6.08-.33,1.7-.74,3.45-1.78,5.21-2.38"/><path class="b" d="M8.67,184.02c3.16,0,6.4,0,9.56,0,1.69.11,3.63-.31,5.21.38,2.97,1.68,6.16,3.14,9.56,3.68,6.87,1.17,13.91,1.1,20.86.94,7.82-.13,15.64-1,23.46-1.21,2.3-.16,4.67.27,6.95.44,3.45.31,6.98.56,10.43.94,2.3.26,4.69.62,6.95,1.14,1.4.26,2.91.9,4.34.86,4.26-.92,7.48-4.21,11.3-6.04,2.83-.61,5.82-.62,8.69-.79,6.93-.54,13.91-.28,20.86-.33,2.58,0,5.24,0,7.82,0,1.74-.03,3.69-.12,5.21.87,1.62.95,2.87,2.71,4.34,3.84,1.54,1.12,3.34,2.22,5.21,2.66,1.07.2,2.39.11,3.48.13,1.78.14,3.6-.57,5.21-1.25,1.65-.68,3.48-1.33,5.21-1.75"/><path class="b" d="M8.67,182.28c3.45,0,6.97,0,10.43,0,2.48-.06,4.65,1.69,6.95,2.4,3.05,1.13,6.34,1.71,9.56,2.04,9.23.87,18.56.53,27.81-.04,4.33-.27,8.7-.75,13.03-.84,5.49.36,11.03.99,16.51,1.5,2.6.29,5.27.71,7.82,1.31,1.09.25,2.38.59,3.48.84.81-.02,1.86-.35,2.61-.63,2.49-.96,4.76-2.59,6.95-4.08,1.05-.67,2.24-1.68,3.48-1.96,4.3-.58,8.71-.51,13.03-.54,4.91,0,9.86,0,14.77,0,2.86.12,5.88-.32,8.69.35,6.94,2.2,9.07,7.95,17.38,7.15,2.07-.05,4.13-.89,6.08-1.49,1.95-.63,4.07-1.18,6.08-1.56"/><path class="b" d="M8.67,180.54c3.15.1,6.43-.22,9.56.15,2.31.74,4.61,1.83,6.95,2.48,5.62,1.65,11.56,1.98,17.38,2.16,6.94.17,13.93-.07,20.86-.58,4.61-.21,9.3-1.23,13.9-.65,5.78.64,11.63.97,17.38,1.85,2.61.39,5.26,1.05,7.82,1.68,2.06.38,4.29-1.02,6.08-1.93,2.66-1.51,5-3.78,7.82-4.99,1.98-.23,4.09-.18,6.08-.19,6.94,0,13.91,0,20.86,0,2.94-.1,5.99,0,8.69,1.31,4.66,1.93,8.74,5.63,13.9,6.16,2.93.25,5.89-.32,8.69-1.17,2.84-.75,5.79-1.5,8.69-1.99"/><path class="b" d="M8.67,178.81c2.28.08,4.7-.2,6.95.18,4.27,1.37,8.55,2.95,13.03,3.53,11.21,1.54,22.63,1.2,33.89.4,3.46-.27,6.97-.69,10.43-.95,3.16.22,6.39.69,9.56.94,5.83.54,11.72,1.17,17.38,2.73.43.11,1.31.32,1.74.42.81,0,1.86-.32,2.61-.59,2.53-.93,4.82-2.58,6.95-4.19,1.3-.92,2.74-2.14,4.34-2.45,2.58-.02,5.24,0,7.82,0,6.07,0,12.18,0,18.25,0,5.72-.29,10.58,3.42,15.64,5.53,3.23,1.47,6.87,2.36,10.43,1.81,5.23-.87,10.35-2.55,15.64-3.1"/><path class="b" d="M8.67,177.07c1.1.01,2.39-.05,3.48.1,1.74.3,3.53.94,5.21,1.44,3.1.96,6.35,1.65,9.56,2.11,12.09,1.53,24.38,1.23,36.5.17,2.87-.27,5.82-.65,8.69-.91,3.72.64,7.55.85,11.3,1.27,4.66.47,9.38,1.12,13.9,2.36,1.08.26,2.35.72,3.48.71,3.64-.73,6.72-3.11,9.56-5.38,1.65-1.36,3.02-2.1,5.21-1.87,2.28,0,4.67,0,6.95,0,5.78,0,11.6,0,17.38,0,2.42.04,4.77,1.1,6.95,2.05,2.57,1.17,5.19,2.49,7.82,3.52,4.88,1.97,8.75,2.38,13.9,1.11,4.87-1.04,9.81-2.04,14.77-2.49"/><path class="b" d="M8.67,175.48c5.53.97,10.9,2.91,16.51,3.48,12.38,1.44,24.97,1.25,37.37.06,2.58-.27,5.24-.63,7.82-.92,1.41-.08,2.94.45,4.34.55,2.57.28,5.25.5,7.82.79,4.38.46,8.8,1.16,13.03,2.39,1.08.29,2.36.71,3.48.83,3.31-.59,6.17-2.7,8.69-4.82,1.03-.84,2.22-1.93,3.48-2.42,2.86-.21,5.82-.03,8.69-.09,5.78,0,11.6,0,17.38,0,4.68.36,8.72,3.31,13.03,4.91,4.09,1.63,8.6,3.11,13.03,2.23,6.62-1.17,13.26-2.53,19.99-2.97"/><path class="b" d="M8.67,174.48c6.03,1.24,12.09,2.66,18.25,3.11,11.84.92,23.82.8,35.63-.54,2.29-.27,4.67-.62,6.95-.92,1.41.05,2.94.53,4.34.67,2.57.33,5.25.5,7.82.82,4.1.46,8.23,1.2,12.17,2.44,1.08.32,2.36.73,3.48.92,3.82-.59,6.78-3.44,9.56-5.91.68-.59,1.68-1.37,2.61-1.48.43,0,1.31,0,1.74,0,1.99,0,4.09,0,6.08,0,6.07.03,12.18-.06,18.25.04,4.32.74,8.1,3.35,12.17,4.87,3.3,1.34,6.85,2.36,10.43,2.52,2.6-.22,5.25-.75,7.82-1.19,5.73-1.04,11.57-1.74,17.38-2.12"/><path class="b" d="M8.67,173.44c6.61,1.15,13.27,2.33,19.99,2.65,10.99.56,22.09.45,33.02-.93,2.29-.3,4.67-.68,6.95-1.01,4,.84,8.11,1.23,12.17,1.65,3.82.44,7.66,1.22,11.3,2.48,1.08.36,2.36.8,3.48,1,4.05-.4,6.73-3.91,9.56-6.43,1.23-.91,2.87-1.1,4.34-1,1.99,0,4.09,0,6.08,0,5.78.02,11.6-.04,17.38.02,2.44.27,4.76,1.45,6.95,2.46,2.8,1.34,5.71,2.71,8.69,3.62,2.22.69,4.63,1.16,6.95,1.32,3.19-.29,6.4-.95,9.56-1.44,6.03-1,12.15-1.55,18.25-1.92"/><path class="b" d="M8.67,172.26c6.63.93,13.29,1.93,19.99,2.19,10.71.42,21.52.29,32.15-1.17,2.29-.32,4.67-.74,6.95-1.1,3.97,1.03,8.11,1.35,12.17,1.81,2.92.37,5.9.95,8.69,1.89,3.2,1.01,5.49,2.78,8.69.55,2.11-1.51,3.96-3.59,6.08-5.08,1.52-1.21,3.35-1.32,5.21-1.22,1.99,0,4.09,0,6.08,0,5.48.11,11.04-.22,16.51.14,3.05.59,5.89,2.16,8.69,3.44,3.04,1.43,6.26,2.7,9.56,3.35,2.27.54,4.67.53,6.95.06,2.58-.4,5.24-.88,7.82-1.25,6.32-.95,12.74-1.39,19.12-1.77"/><path class="b" d="M8.67,170.94c6.92.79,13.88,1.7,20.85,1.87,10.43.27,20.96.07,31.28-1.58,2-.3,4.08-.76,6.08-1.03,3.66,1.05,7.52,1.45,11.3,1.84,2.92.35,5.92.91,8.69,1.92,2.99,1.05,5.68,3.07,8.69.84,2.13-1.43,4.01-3.43,6.08-4.93,1.52-1.2,3.3-1.68,5.21-1.5,1.99,0,4.09,0,6.08,0,3.16,0,6.4,0,9.56,0,1.99.04,4.11-.14,6.08.21,6.66,1.36,12.33,5.83,19.12,6.84,2.28.54,4.68.26,6.95-.17,2.57-.42,5.24-.89,7.82-1.25,6.9-1,13.9-1.37,20.86-1.78"/><path class="b" d="M8.67,169.52c6.64.62,13.31,1.42,19.99,1.58,10.44.22,20.97-.02,31.28-1.8,2-.28,4.07-.94,6.08-1.01,3.67,1.03,7.52,1.53,11.3,1.93,13.23,1.28,11.34,8.32,20.86-.35,1.53-1.26,3.25-2.68,5.21-3.16,2.57-.18,5.25-.03,7.82-.08,2.87,0,5.82,0,8.69,0,1.99,0,4.12-.08,6.08.34,6.99,1.25,12.94,5.78,19.99,6.81,2.28.51,4.69,0,6.95-.37,2.86-.49,5.81-1,8.69-1.38,7.19-.97,14.49-1.24,21.73-1.71"/><path class="b" d="M8.67,168.02c17.02,1.65,34.38,2.41,51.27-.84,1.69-.21,3.51-1.03,5.21-.79,3.11.85,6.36,1.39,9.56,1.79,2.92.33,5.94.74,8.69,1.83,4.12,1.78,6.19,4.04,10.43.66,2.74-2.03,5.26-4.9,8.69-5.71,1.39-.11,2.95-.04,4.34-.06,5.49.15,11.09-.44,16.51.57,7.32,1.11,13.58,5.56,20.85,6.67,2.29.44,4.69-.21,6.95-.56,3.15-.57,6.38-1.13,9.56-1.52,7.49-.95,15.07-1.14,22.59-1.68"/><path class="b" d="M8.67,166.46c17.63,1.54,35.65,2.28,53.01-1.84.45-.1,1.29-.27,1.74-.33.45.12,1.29.34,1.74.45,1.38.34,2.94.66,4.34.91,3.44.67,7.03.85,10.43,1.73,1.81.48,3.63,1.35,5.21,2.34,1.48,1.01,3.53,1.24,5.21.64,3.72-1.85,6.41-5.56,10.43-6.91,2.23-.56,4.68-.17,6.95-.28,4.05-.08,8.16.05,12.17.76,3.83.6,7.67,1.59,11.3,2.97,3.66,1.41,7.36,3.09,11.3,3.57,2.3.33,4.69-.38,6.95-.73,3.43-.66,6.95-1.27,10.43-1.68,7.78-.94,15.66-1.05,23.46-1.71"/><path class="b" d="M8.67,164.84c5.78.34,11.59.89,17.38,1.06,7.82.16,15.7-.11,23.46-1.14,4.08-.53,8.16-1.47,12.17-2.4,2.3.32,4.64,1.08,6.95,1.41,3.73.74,7.66.89,11.3,2.07,1.87.58,3.52,1.89,5.21,2.81.75.31,1.81.29,2.61.28,1.24.07,2.51-.68,3.48-1.39,1.42-1.06,2.91-2.37,4.34-3.41,2.9-2.14,5.07-2.95,8.69-2.7,4.07-.14,8.15.55,12.17,1.07,4.1.54,8.23,1.33,12.17,2.62,4.01,1.29,7.94,3.2,12.17,3.67,2.6.22,5.27-.64,7.82-1.06,3.43-.7,6.95-1.3,10.43-1.7,8.07-.95,16.25-.96,24.33-1.79"/><path class="b" d="M8.67,163.16c5.49.29,11.01.76,16.51.95,6.66.15,13.37-.09,19.99-.83,3.48-.4,7.01-1.01,10.43-1.8,1.97-.31,4.09-1.45,6.08-.83,3.13.75,6.38,1.33,9.56,1.82,2.59.43,5.34.7,7.82,1.61,1.18.44,2.48,1.21,3.48,1.97.68.55,1.7,1.16,2.61,1.14.78,0,1.84.03,2.61-.11,1.94-.76,3.55-2.41,5.21-3.62,2.29-1.7,4.9-3.49,7.82-3.74,4.06.23,8.13.92,12.17,1.41,4.06.49,8.2,1.02,12.17,2.05,3.22.8,6.39,2.06,9.56,3.03,1.66.45,3.49.88,5.21.92,1.4-.12,2.96-.4,4.34-.68,5.72-1.27,11.53-2.36,17.38-2.8,7.22-.65,14.53-.66,21.73-1.6"/><path class="b" d="M8.67,161.44c5.49.25,11.02.71,16.51.88,6.08.11,12.21-.14,18.25-.86,3.49-.42,7.02-1.06,10.43-1.9,1.4-.34,2.94-.74,4.34-1.06.81-.1,1.83.19,2.61.36,3.72.84,7.54,1.45,11.3,2.09,2.02.37,4.19.75,6.08,1.58,1.19.53,2.42,1.45,3.48,2.2,1.2.96,2.91.7,4.34.69,1.29-.38,2.46-1.49,3.48-2.33,2.32-1.87,5.6-4.71,8.69-4.73,3.46.41,6.97.89,10.43,1.3,4.33.54,8.75.9,13.03,1.75,3.83.7,7.57,2.02,11.3,3.12,1.66.39,3.5.82,5.21.8,1.71-.16,3.54-.47,5.21-.84,5.99-1.43,12.1-2.52,18.25-2.96,7.23-.63,14.56-.58,21.73-1.79"/><path class="b" d="M8.67,159.67c5.49.2,11.02.65,16.51.81,5.5.08,11.05-.2,16.51-.89,3.19-.41,6.43-1.02,9.56-1.8,1.98-.38,4.05-1.34,6.08-1.23,3.45.69,6.96,1.42,10.43,2.02,3.55.67,7.3,1.25,10.43,3.18,1.12.58,2.18,1.8,3.48,1.94,1.11-.06,2.48.22,3.48-.37,2.04-1.64,3.8-3.85,6.08-5.19,1.02-.54,2.27-1.43,3.48-1.21,3.45.46,6.97.94,10.43,1.33,4.91.59,9.9.93,14.77,1.78,4.12.64,8.13,2,12.17,2.98,3.49.95,6.96.29,10.43-.41,6.26-1.58,12.66-2.76,19.12-3.18,7.23-.63,14.6-.57,21.73-2.09"/><path class="b" d="M8.67,157.84c6.94.17,13.91.93,20.85.7,7.95-.16,15.82-1.55,23.46-3.68,2.57-.7,5.27.45,7.82.8,3.76.78,7.64,1.35,11.3,2.53,2.48.81,4.8,2.23,6.95,3.66,1.07.19,2.39.09,3.48.11,1.79-1.12,2.75-3.49,4.34-4.87,1.16-.98,2.72-2.35,4.34-1.84,2.28.39,4.66.76,6.95,1.07,6.92,1,13.96,1.31,20.86,2.45,4.68.67,9.21,2.34,13.9,2.93,2.29.28,4.69-.31,6.95-.6,3.21-.5,6.45-1.25,9.56-2.17,2.56-.5,5.23-.89,7.82-1.18,8.67-1.02,17.55-.77,26.07-2.87"/><path class="b" d="M8.67,155.96c7.81.1,15.65,1.08,23.46.42,3.78-.28,7.6-.81,11.3-1.65,2.88-.59,5.76-1.68,8.69-1.99,2.91.08,5.84.83,8.69,1.36,3.19.67,6.5,1.29,9.56,2.46,2.43.91,4.65,2.5,6.95,3.65,1.08.02,2.39.02,3.48,0,1.5-2.43,1.85-6.87,5.21-7.45,2.86.64,5.79,1.38,8.69,1.83,6.6,1.16,13.34,1.49,19.99,2.34,5.57.58,10.98,2.28,16.51,3.02,2.58.3,5.26-.35,7.82-.63,3.19-.45,6.44-1.05,9.56-1.86,2.53-.79,5.18-1.4,7.82-1.64,5.76-.71,11.61-.95,17.38-1.6,3.2-.26,6.38-1.2,9.56-1.49"/><path class="b" d="M8.67,154c7.52-.04,15.08.99,22.59.3,3.49-.3,7.02-.86,10.43-1.68,2.57-.55,5.17-1.6,7.82-1.63,2.91-.1,5.85.49,8.69,1.06,3.2.67,6.51,1.37,9.56,2.59,2.39,1.01,4.68,2.47,6.95,3.7,1.07.25,2.39.15,3.48.12,1.12-.68,1.5-5.69,1.74-6.81l.87-.66c2.32-.01,4.75-.16,6.95.7,3.11.9,6.36,1.57,9.56,2.04,5.18.75,10.45,1.05,15.64,1.71,4.66.55,9.3,1.52,13.9,2.41,2.57.52,5.24.5,7.82.08,2.87-.34,5.83-.7,8.69-1.13,3.81-.6,7.63-1.5,11.3-2.7,1.96-.42,4.09-.57,6.08-.8,4.03-.42,8.14-.72,12.17-1.23,3.45-.44,6.92-1.3,10.43-1.08"/><path class="b" d="M8.67,151.98c3.45,0,6.98.06,10.43.19,3.74.24,7.56.4,11.3-.02,3.2-.3,6.44-.89,9.56-1.68,1.68-.41,3.49-.96,5.21-1.18,1.09-.06,2.39-.03,3.48-.04,2.61-.06,5.28.42,7.82.95,2.92.62,5.93,1.34,8.69,2.5,2.38,1.04,4.64,2.58,6.95,3.77,1.03.44,2.39.29,3.48.21,2.09-1.61,1.78-5.49,3.48-7.42,1.99.07,4.12-.18,6.08.16,3.68,1.2,7.46,2.31,11.3,2.84,4.89.73,9.87,1.02,14.77,1.63,4.65.53,9.29,1.46,13.9,2.21,1.39.19,2.95.33,4.34.42,1.7-.08,3.52-.33,5.21-.49,3.46-.36,6.99-.74,10.43-1.24,3.2-.5,6.44-1.22,9.56-2.07,1.7-.42,3.46-1.2,5.21-1.34,4.03-.49,8.14-.86,12.17-1.41,1.69-.22,3.51-.54,5.21-.68,1.99-.04,4.1-.01,6.08-.02"/><path class="b" d="M8.67,149.85c3.45-.04,6.98-.08,10.43.04,2.87.15,5.82.41,8.69.15,2.9-.2,5.86-.69,8.69-1.35,1.98-.43,4.05-1.11,6.08-1.18,2.28.02,4.67-.05,6.95.05,2.62.2,5.28.76,7.82,1.41,2.36.62,4.8,1.44,6.95,2.6,1.98,1.12,3.93,2.6,6.08,3.38,1.15.1,2.6.23,3.48-.66.94-.95,1.93-2.5,2.61-3.64.63-1.01,1.43-2.67,2.61-3.14,1.69.04,3.53-.1,5.21.09,3.41,1.13,6.85,2.42,10.43,2.95,5.17.87,10.45,1.14,15.64,1.83,4.92.6,9.84,1.57,14.77,2.09,3.17.48,6.4-.03,9.56-.3,4.04-.37,8.15-.76,12.17-1.34,5.59-.86,11.09-2.35,16.51-3.93,3.46-.41,6.97-.93,10.43-1.31,3.16-.17,6.4-.03,9.56-.07"/><path class="b" d="M8.67,147.62c3.45-.1,6.97-.23,10.43-.13,2.87.15,5.82.46,8.69.14,3.51-.25,6.97-1.23,10.43-1.78,3.74-.1,7.57-.18,11.3.08,4.19.54,8.43,1.65,12.17,3.66,2.71,1.4,5.35,4.48,8.69,3.52,3.4-1.67,5.36-5.44,8.69-7.19,1.38-.24,2.95-.12,4.34-.1,1.75.43,3.49,1.32,5.21,1.85,2.51.83,5.2,1.36,7.82,1.71,4.03.52,8.14.85,12.17,1.38,3.75.47,7.54,1.12,11.3,1.51,2.57.28,5.23.61,7.82.68,2.58-.21,5.24-.42,7.82-.63,6.4-.5,12.83-1.16,19.12-2.51,5.55-1.03,10.95-2.93,16.51-3.86,4.02-.38,8.13-.08,12.17-.17"/><path class="b" d="M8.67,145.31c1.99.06,4.09.27,6.08.09,1.41-.06,2.94-.48,4.34-.39,2.58.11,5.24.47,7.82.2,2.6-.18,5.24-.76,7.82-1.1,1.69-.14,3.52-.05,5.21-.07,4.05.05,8.22-.3,12.17.78,2.71.67,5.44,1.72,7.82,3.19,2.37,1.42,4.78,4.21,7.82,3.35,4.54-1.97,8.12-6.12,13.03-7.26,2.15-.4,4.16.73,6.08,1.5,6.07,2.39,12.73,2.47,19.12,3.38,6.63.9,13.3,1.77,19.99,2.16,3.45.04,6.98-.44,10.43-.61,4.92-.38,9.9-.78,14.77-1.61,7.01-1.05,13.9-2.89,20.85-4.2,3.7-.69,7.54-.69,11.3-.66"/><path class="b" d="M8.67,143.85c2.57.24,5.26.33,7.82-.05,1.11-.15,2.39-.41,3.48-.67.79-.19,1.78-.57,2.61-.43,3.47.29,6.97-.43,10.43-.4,3.16,0,6.4,0,9.56,0,1.99.02,4.11-.09,6.08.24,3.05.5,6.07,1.63,8.69,3.26,2.29,1.33,4.11,3.83,6.95,3.97,2.51-.32,4.68-2.09,6.95-3.09,3.59-1.73,7.36-3.38,11.3-4.11,1.19.02,2.39.82,3.48,1.22,1.64.69,3.48,1.25,5.21,1.63,3.41.74,6.97,1.05,10.43,1.49,4.03.51,8.12,1.13,12.17,1.51,4.03.38,8.12.76,12.17.94,3.75-.03,7.55-.42,11.3-.62,7.87-.48,15.72-1.55,23.46-3.01,7.46-1.37,14.96-3.09,22.59-3.05"/><path class="b" d="M8.67,142.52c3.16.3,6.43.28,9.56-.34,2.03-.34,4.05-1.17,6.08-1.51,3.73-.27,7.55-.04,11.3-.11,7.39.15,13.53-1.08,19.99,3.48,1.6,1.32,3.17,3.1,5.21,3.72,1.81.67,3.6-.44,5.21-1.17,1.66-.78,3.48-1.55,5.21-2.15,3.93-1.35,8.06-2.29,12.17-2.95,1.76.27,3.45,1.39,5.21,1.77,3.38.95,6.96,1.31,10.43,1.78,3.45.45,6.97.96,10.43,1.34,5.76.59,11.59,1.03,17.38,1.26,3.16-.13,6.4-.32,9.56-.51,7.86-.42,15.7-1.39,23.46-2.64,7.77-1.19,15.58-2.64,23.46-2.67"/><path class="b" d="M8.67,141.21c3.16.28,6.43.23,9.56-.35,2.04-.32,4.08-1.08,6.08-1.57,3.11-.73,6.4-.4,9.56-.47,2.58,0,5.24,0,7.82,0,3.58-.14,7.31.38,10.43,2.24,1.66,1.42,3.32,3.13,5.21,4.25,2.24,1.45,3.87.88,6.08-.18,1.66-.73,3.48-1.44,5.21-1.96,3.66-1.11,7.51-1.67,11.3-2.15,1.69-.12,3.53-.63,5.21-.38.76.31,1.82.67,2.61.9,3.38.95,6.96,1.34,10.43,1.84,4.32.6,8.69,1.19,13.03,1.55,8.38.71,16.81,1.25,25.2.52,15.72-.59,31.18-4.38,46.92-4.53"/><path class="b" d="M8.67,139.88c4.35.35,8.82.07,13.03-1.11,4.19-1.43,8.63-1.83,13.03-1.68,4.63.23,10.73-.83,14.77,1.78,1.63,1.46,3.37,3.06,5.21,4.24,1.25.75,2.84,1.74,4.34,1.25,2.57-.95,5.14-2.18,7.82-2.81,3.95-1.03,8.1-1.35,12.17-1.64,1.39-.1,2.95-.2,4.34-.3,1.1-.08,2.43-.25,3.48.21,3.39.94,6.96,1.37,10.43,1.88,5.46.81,11,1.43,16.51,1.76,7.8.52,15.65.91,23.46.28,15.4-.69,30.61-3.92,46.06-3.86"/><path class="b" d="M8.67,138.49c5.26.41,10.59-.22,15.64-1.72,4.23-1.15,8.67-1.45,13.03-1.4,9.98.09,7.36.13,14.77,5.46,1.51.88,3.39,2.34,5.21,1.77,2.83-1.08,5.69-2.34,8.69-2.9,4.27-.89,8.7-.94,13.03-1.1,1.69-.06,3.52-.13,5.21-.21,1.09-.03,2.42-.23,3.48.12,10.29,2.07,20.8,3.07,31.28,3.5,6.36.28,12.76.49,19.12,0,15.09-.76,30.05-3.53,45.19-3.35"/><path class="b" d="M8.67,137.03c3.75.22,7.59.02,11.3-.61,2.31-.42,4.66-1.1,6.95-1.56,4.83-1.03,9.85-1.3,14.77-.93,1.27-.01,2.49.78,3.48,1.49,1.69,1.2,3.46,2.55,5.21,3.65,1.79,1.02,4,2.61,6.08,1.5,2.77-1.18,5.7-2.22,8.69-2.68,4-.67,8.12-.62,12.17-.65,3.45-.01,6.97-.16,10.43-.25,10.6,1.98,21.37,3,32.15,3.28,6.36.18,12.76.51,19.12.02,7.84-.34,15.65-1.33,23.46-2.04,6.92-.64,13.91-.91,20.86-.93"/><path class="b" d="M8.67,135.52c4.05.18,8.17-.04,12.17-.72,6-1.25,12.07-2.75,18.25-2.49,1.57-.08,3.04.95,4.34,1.69,1.99,1.23,4.03,2.63,6.08,3.76,3,1.6,3.83,1.95,6.95.45,2.47-1.03,5.16-1.75,7.82-2.1,4.3-.58,8.71-.36,13.03-.34,3.75.05,7.55-.15,11.3-.12,4.33.51,8.68,1.4,13.03,1.79,5.76.6,11.59.84,17.38,1.03,6.94.11,13.92.6,20.85.1,7.54-.32,15.07-1.25,22.59-1.88,6.92-.59,13.91-.79,20.86-.81"/><path class="b" d="M8.67,133.95c4.04.14,8.16-.08,12.17-.69,5.18-.9,10.36-2.25,15.64-2.41,3.48-.15,8.8,4.01,12.17,5.47,3.17,1.63,3.85,1.28,6.95-.06,2.47-.99,5.17-1.63,7.82-1.92,4.31-.47,8.71-.17,13.03-.1,4.33.11,8.71-.13,13.03.03,4.05.34,8.11,1.21,12.17,1.51,6.05.57,12.17.78,18.25.94,6.94.05,13.92.61,20.86.14,7.25-.31,14.49-1.18,21.72-1.75,6.93-.55,13.91-.72,20.86-.75"/><path class="b" d="M8.67,132.34c4.04.1,8.16-.1,12.17-.66,4.62-.7,9.23-1.83,13.9-2.21,4.7.57,8.77,3.47,13.03,5.32,3.03,1.56,4.07.72,6.95-.44,2.48-.96,5.18-1.55,7.82-1.78,4.61-.41,9.29.02,13.9.1,4.62.13,9.29-.12,13.9.18,3.76.25,7.53.99,11.3,1.25,6.35.54,12.75.73,19.12.85,6.94,0,13.92.62,20.86.18,6.96-.29,13.91-1.11,20.86-1.63,6.93-.52,13.91-.68,20.86-.72"/><path class="b" d="M8.67,130.68c4.34.06,8.74-.14,13.03-.75,3.75-.51,7.52-1.45,11.3-1.74,4.94.61,9.4,3.06,13.9,5,2.79,1.45,4.33.32,6.95-.69,2.2-.83,4.61-1.38,6.95-1.62,4.9-.5,9.87.04,14.77.16,4.62.16,9.29-.05,13.9.25,4.34.23,8.7.89,13.03,1.2,6.06.44,12.17.59,18.25.69,7.23-.02,14.5.65,21.72.23,6.67-.28,13.33-1.05,19.99-1.53,6.93-.51,13.91-.66,20.86-.72"/><path class="b" d="M8.67,128.98c7,.16,13.98-.72,20.85-1.95,2.9-.32,5.93.54,8.69,1.37,3.24,1.04,6.31,2.72,9.56,3.73,1.81.22,3.56-.87,5.21-1.44,6.93-2.69,14.49-1.56,21.72-1.32,5.2.22,10.45,0,15.64.41,9.24.84,18.52,1.53,27.81,1.57,4.62.08,9.29.15,13.9.28,3.75.12,7.55.34,11.3.04,6.67-.29,13.33-1.06,19.99-1.5,6.64-.46,13.33-.6,19.99-.68"/><path class="b" d="M8.67,127.25c4.04.02,8.15-.15,12.17-.6,2.59-.23,5.23-.89,7.82-1.03,3.22.04,6.5.54,9.56,1.55,2.93.91,5.75,2.35,8.69,3.23,2.13.1,4.11-1.19,6.08-1.8,6.71-2.34,13.92-1.21,20.86-.94,5.2.26,10.45.08,15.64.46,9.53.81,19.1,1.41,28.68,1.45,4.91.08,9.87.15,14.77.3,3.45.09,6.97.37,10.43.09,6.66-.27,13.33-1.01,19.99-1.46,6.64-.45,13.33-.62,19.99-.71"/><path class="b" d="M8.67,125.49c3.75.01,7.56-.14,11.3-.5,2.58-.21,5.22-.84,7.82-.72,3.51.02,7.09.48,10.43,1.57,11.22,3.89,5.59,3.55,16.51.27,6.56-1.51,13.35-.28,19.99-.08,3.74.17,7.55.11,11.3.29,4.62.22,9.28.67,13.9.95,7.8.48,15.65.51,23.46.65,3.74.06,7.55.15,11.3.27,3.16.12,6.4.31,9.56.06,6.37-.27,12.75-.95,19.12-1.38,6.64-.46,13.33-.64,19.99-.75"/><path class="b" d="M8.67,123.7c8.71.21,17.41-1.95,26.07-.19,3.29.61,6.43,1.98,9.56,3.11,2.35.98,4.76-.73,6.95-1.44,2.2-.82,4.61-1.33,6.95-1.51,5.5-.37,11.02.46,16.51.66,3.74.16,7.55.14,11.3.34,5.2.28,10.44.76,15.64.99,12.15.53,24.34.39,36.5.91,7.53.29,15.08-.69,22.59-1.18,7.51-.58,15.07-.85,22.59-.99"/><path class="b" d="M8.67,121.88c10.4.02,21.27-2.23,31.28,1.6,1.69.6,3.46,1.42,5.21,1.8.46-.09,1.3-.3,1.74-.42,1.74-.51,3.47-1.46,5.21-1.97,2.22-.71,4.63-1.07,6.95-1.15,5.21-.12,10.44.64,15.64.85,9.28.15,18.54.95,27.81,1.37,13.03.41,26.08.45,39.1.95,13.91-.58,27.78-2.15,41.71-2.26"/><path class="b" d="M8.67,120.04c7.23-.12,14.5-.68,21.72-.2,4.2.25,8.3,1.49,12.17,3.09,2.96,1.53,5.9-.82,8.69-1.69,2.76-.99,5.77-1.38,8.69-1.36,5.5.07,11.01.91,16.51,1.06,8.98.17,17.96,1.07,26.94,1.34,8.39.26,16.81.32,25.2.53,5.2.03,10.44.55,15.64.27,13.03-.63,26.05-1.98,39.1-2.16"/><path class="b" d="M8.67,118.19c8.09.03,16.27-.69,24.33.3,3.62.44,7.03,1.91,10.43,3.15.81.37,1.81.03,2.61-.2,1.75-.54,3.48-1.54,5.21-2.12,3.03-1.1,6.35-1.4,9.56-1.27,6.94.41,13.89,1.26,20.85,1.36,8.1.4,16.22,1.09,24.33,1.23,7.81.2,15.65.3,23.46.49,4.91.06,9.87.5,14.77.21,13.04-.58,26.05-1.91,39.1-2.16"/><path class="b" d="M8.67,116.5c8.09-.06,16.27-.7,24.33.29,3.64.42,7.01,2.02,10.43,3.21,2.78.33,5.25-1.83,7.82-2.6,2.75-1.06,5.77-1.29,8.69-1.18,4.64,0,9.28.78,13.9,1.06,9.56.41,19.12,1.19,28.68,1.52,8.39.26,16.81.39,25.2.58,5.2.06,10.44.49,15.64.2,13.33-.5,26.63-1.84,39.97-2.19"/><path class="b" d="M8.67,114.79c8.38-.13,16.87-.83,25.2.38,3.34.48,6.39,2.14,9.56,3.17,2.52.29,4.64-1.7,6.95-2.36,3.07-.95,6.37-1.07,9.56-1.1,5.21-.06,10.45.32,15.64.74,6.94.34,13.91.87,20.85,1.22,13.31.58,26.66.7,39.97,1.12,15.66-.15,31.28-1.83,46.92-2.32"/><path class="b" d="M8.67,113.05c7.22-.29,14.5-.6,21.72-.14,2.33.17,4.74.57,6.95,1.33,1.74.58,3.5,1.51,5.21,2.16,2.41,1.01,4.69-.96,6.95-1.55,3.34-1.07,6.94-1.27,10.43-1.38,11.02-.26,22.03.87,33.02,1.48,11.57.61,23.18.83,34.76,1.14,18.56.51,37.08-1.54,55.61-2.22"/><path class="b" d="M8.67,111.29c8.37-.36,16.87-1.01,25.2.14,2.08.37,4.19,1.13,6.08,2.06,1.57.74,3.42,1.88,5.21,1.3,1.98-.64,4.04-1.42,6.08-1.84,5.12-1.03,10.43-1.06,15.64-1.04,6.09-.07,12.18.36,18.25.82,8.96.69,17.96.97,26.94,1.3,8.68.33,17.39.63,26.07.23,15.08-.3,30.13-1.48,45.19-2.16"/><path class="b" d="M8.67,109.52c5.48-.36,11.01-.74,16.51-.61,2.88.02,5.85.02,8.69.52,1.77.31,3.61.94,5.21,1.75,1.79,1.03,3.94,2.29,6.08,1.89,1.4-.35,2.94-.83,4.34-1.16,5.67-1.33,11.58-1.52,17.38-1.57,6.09-.13,12.19.15,18.25.7,8.67.7,17.39.95,26.07,1.35,3.74.16,7.55.35,11.3.4,5.2-.16,10.44-.3,15.64-.43,15.08-.24,30.13-1.29,45.19-1.99"/><path class="b" d="M8.67,107.74c5.48-.46,11-.95,16.51-.84,2.87-.01,5.85-.08,8.69.39.8.13,1.84.4,2.61.66.85.38,1.8,1.19,2.61,1.64,2.71,1.5,5.7,2.25,8.69,1.21,6.53-1.56,13.29-1.98,19.99-2.06,5.21-.12,10.46-.07,15.64.48,8.38.72,16.81,1.05,25.2,1.47,2.87.12,5.82.43,8.69.38,5.78-.25,11.6-.44,17.38-.57,9.26-.21,18.55-.38,27.81-.8,6.94-.26,13.91-.87,20.86-1.02"/><path class="b" d="M8.67,105.95c3.75-.35,7.54-.84,11.3-1.04,3.74-.07,7.55-.23,11.3-.16,1.11.06,2.44.09,3.48.51,1.5,1.3,3.36,2.38,5.21,3.07,1.92.65,4.06,1.16,6.08,1.21,2.28-.41,4.65-.9,6.95-1.22,5.45-.86,11-1.13,16.51-1.24,6.38-.29,12.77.33,19.12.88,6.93.52,13.92.76,20.85,1.23,3.74.36,7.55-.21,11.3-.3,5.19-.26,10.44-.38,15.64-.46,9.26-.15,18.55-.26,27.81-.62,6.36-.22,12.75-.78,19.12-.81"/><path class="b" d="M8.67,104.15c4.04-.45,8.11-1.15,12.17-1.4,3.75-.03,7.55-.49,11.3-.37,4.05,3.55,9.51,4.96,14.77,5.38,2.28-.35,4.66-.74,6.95-1.04,4.87-.75,9.85-1.06,14.77-1.24,5.21-.22,10.46-.14,15.64.45,8.08.78,16.23,1.1,24.33,1.66,6.93-.51,13.9-1.02,20.85-1.18,10.71-.18,21.44-.11,32.15-.39,7.23-.12,14.49-.76,21.73-.67"/><path class="b" d="M8.67,102.36c3.46-.47,6.96-1.16,10.43-1.61,3.45-.34,6.98-.45,10.43-.83,4.61,3.41,9.17,4.79,14.77,5.6,1.09.17,2.38.35,3.48.47,2.29-.21,4.67-.57,6.95-.86,9.77-1.25,19.73-1.92,29.54-.81,6.93.68,13.91,1.15,20.85,1.53,7.51-.63,15.06-1.26,22.59-1.56,10.42-.24,20.86.07,31.28-.12,8.1-.01,16.23-.66,24.33-.39"/><path class="b" d="M8.67,100.58c3.47-.55,6.96-1.4,10.43-1.99,2.56-.4,5.25-.46,7.82-.83,2.02.98,3.97,2.36,6.08,3.16,3.31,1.33,6.92,1.95,10.43,2.53,1.98.31,4.09.59,6.08.79,2.88-.26,5.82-.65,8.69-1.01,8.93-.98,17.99-1.56,26.94-.4,5.48.46,11.01,1.16,16.51,1.29,8.1-.7,16.2-1.61,24.33-1.85,9.83-.53,19.7.09,29.54-.03,9.26.12,18.56-.47,27.81.06"/><path class="b" d="M8.67,98.76c3.79-.7,7.51-1.97,11.3-2.67,1.09-.19,2.38-.29,3.48-.39,2.09.61,4.06,1.84,6.08,2.62,3.31,1.35,6.91,2.08,10.43,2.67,4.02.59,8.11,1.29,12.17,1.46,5.78-.54,11.58-1.35,17.38-1.63,8.42-.72,16.82.77,25.2,1.4,2.29.34,4.67.16,6.95-.12,2.87-.29,5.82-.6,8.69-.92,6.05-.66,12.17-.77,18.25-1.05,3.74-.29,7.55-.17,11.3-.08,4.91.09,9.86.15,14.77.19,9.55.17,19.15-.21,28.68.63"/><path class="b" d="M8.67,96.86c2.02-.49,4.12-1.17,6.08-1.85,1.64-.46,3.52-1.53,5.21-.81,3.47,1.02,6.93,2.31,10.43,3.21,3.69.93,7.52,1.49,11.3,1.97,4.32.5,8.69,1.1,13.03,1.36,5.48-.53,11.01-1.16,16.51-1.45,7.55-.53,15.07.92,22.59,1.38,7.25-.48,14.47-1.6,21.72-1.99,6.36-.27,12.76-.31,19.12-.68,4.03-.1,8.13.15,12.17.14,12.16.25,24.4-.05,36.5,1.35"/><path class="b" d="M8.67,94.88c2.05-.62,4.11-1.56,6.08-2.38,1.46.04,2.93.87,4.34,1.18,1.67.47,3.52.78,5.21,1.15,7.13,1.64,14.45,2.44,21.72,3.12,3.75.33,7.55.79,11.3,1.05,5.2-.25,10.43-.91,15.64-1.12,4.05-.21,8.14.3,12.17.64,2.28.18,4.67.59,6.95.24,6.94-.66,13.89-1.56,20.86-1.93,6.07-.25,12.18-.04,18.25-.32,7.8-.49,15.65-.36,23.46-.26,9.57.16,19.2.48,28.68,1.93"/><path class="b" d="M8.67,92.79c1.11-.41,2.31-1.22,3.48-1.46,4.18,1.52,8.64,2.09,13.03,2.58,5.47.75,11.01,1.3,16.51,1.73,4.33.35,8.71.67,13.03,1.06,4.32.46,8.71.64,13.03.22,2.58-.14,5.24-.34,7.82-.34,3.46.04,6.97.41,10.43.61,4.34-.37,8.71-.88,13.03-1.41,4.61-.44,9.27-.83,13.9-.88,5.78-.03,11.6.26,17.38.08,5.5-.1,11.02-.68,16.51-.78,12.21-.2,24.46.48,36.5,2.64"/><path class="b" d="M8.67,90.58c1.42-.11,2.94.58,4.34.76,1.98.38,4.08.68,6.08.88,9.83.76,19.7,1.45,29.54,2,8.96.5,17.95,1.54,26.94,1.2,5.81.26,11.62-.43,17.38-1.1,6.04-.82,12.15-1.28,18.25-1.21,6.94.12,13.91.65,20.86.35,8.4-.21,16.79-1.4,25.2-1.22,8.79.12,17.44,1.81,26.07,3.29"/><path class="b" d="M8.67,90.04c10.07,1.41,20.28,1.25,30.41,1.81,12.17.4,24.33,1.22,36.5,1.57,7.85-.01,15.67-1.15,23.46-2,4.03-.21,8.13-.25,12.17-.07,7.22.4,14.49.94,21.72.58,7.82-.26,15.63-1.43,23.46-1.41,5.53,0,11.08.67,16.51,1.7,1.99.37,4.1.81,6.08,1.19,1.38.25,2.95.65,4.35.31"/><path class="b" d="M8.67,89.23c10.4.75,20.86.54,31.28.85,9.84.14,19.7.54,29.54.69,3.16.09,6.39.42,9.56.3,4.63-.13,9.3-.63,13.9-1.1,2.87-.27,5.8-.77,8.69-.67,7.83-.05,15.64,1.12,23.46,1.23,11.33.43,22.57-1.99,33.89-1.62,4.67.17,9.34.92,13.9,1.88,2.28.47,4.65,1.01,6.95,1.36,1.09-.09,2.4-.35,3.48-.57"/><path class="b" d="M8.67,88.11c17.37.44,34.76-.03,52.14.2,2.87.06,5.82-.11,8.69-.08,2.86.3,5.81.48,8.69.51,6.09,0,12.19-.68,18.25-1.22,5.77-.63,11.62.31,17.38.79,6.05.6,12.17.85,18.25.58,9.56-.31,19.09-2.34,28.68-1.58,4.09.29,8.17,1.1,12.17,2,1.68.37,3.51.78,5.21,1.05,1.71-.18,3.54-.61,5.21-.99"/><path class="b" d="M8.67,86.83c18.41.08,37.18-.5,55.61-.93,2-.17,4.09-.2,6.08.13,2.57.26,5.24.4,7.82.45,6.67.1,13.34-.6,19.99-1.07,5.22-.18,10.45.91,15.64,1.35,6.05.62,12.18.83,18.25.54,9.56-.37,19.08-2.54,28.68-1.65,5.3.39,10.45,1.92,15.64,2.93,2.32-.1,4.69-.86,6.95-1.35"/><path class="b" d="M8.67,85.44c9.56.02,19.13-.32,28.68-.7,9.26-.36,18.56-.69,27.81-1.36,1.99-.13,4.08.52,6.08.58,3.73.33,7.55.44,11.3.37,4.04-.08,8.13-.34,12.17-.57,1.99-.05,4.1-.4,6.08-.19,8.94,1.12,17.9,2.49,26.94,2.28,8.44.04,16.79-1.68,25.2-2.08,3.75-.15,7.59.06,11.3.69,3.79.58,7.52,1.81,11.3,2.42,2.6-.45,5.26-1.14,7.82-1.77"/><path class="b" d="M8.67,84c17.98-.17,35.97-1.24,53.88-2.88,1.72-.37,3.5.22,5.21.42,2.56.35,5.24.56,7.82.67,7.23.32,14.5-.13,21.72-.38,3.49-.33,6.98.56,10.43.99,4.59.69,9.26,1.2,13.9,1.36,9.03.54,17.99-.99,26.94-1.89,6.38-.65,12.89-.28,19.12,1.31,1.99.47,4.08,1.05,6.08,1.46,1.11.11,2.4-.32,3.48-.54,1.99-.47,4.09-1.01,6.08-1.49"/><path class="b" d="M8.67,82.54c13.64-.05,27.27-1.05,40.84-2.4,4.34-.41,8.71-.96,13.03-1.5,4.24,1.05,8.68,1.43,13.03,1.63,5.78.24,11.6.08,17.38-.06,3.46.02,7.02-.49,10.43.27,7.45,1.32,15.02,2.23,22.59,2.17,6.69-.2,13.35-1.17,19.99-1.93,6.94-.84,14.07-.69,20.86,1.12,1.99.49,4.08,1.09,6.08,1.5,3.52-.36,6.96-1.68,10.43-2.36"/><path class="b" d="M8.67,81.07c11.32-.07,22.66-.69,33.89-2.18,4.04-.49,8.14-1.02,12.17-1.62,1.99-.25,4.08-.74,6.08-.85,1.08.29,2.37.59,3.48.8,11.75,2.07,23.76,1.15,35.63,1.2,2.91-.05,5.81.92,8.69,1.25,4.01.66,8.11,1.07,12.17,1.22,7.85.36,15.69-.87,23.46-1.81,8.96-1.23,16.53-.7,25.2,1.93.75.2,1.84.46,2.61.63,1.11-.04,2.4-.44,3.48-.7,2.57-.68,5.22-1.39,7.82-1.94"/><path class="b" d="M8.67,79.61c8.4-.13,16.86-.24,25.2-1.33,5.51-.72,11.04-1.67,16.51-2.66,1.7-.31,3.52-.66,5.21-.98,1.09-.15,2.37-.63,3.48-.41,6.48,1.84,13.29,2.26,19.99,2.44,6.94.15,13.91.05,20.86.06,2.63-.18,5.24.67,7.82,1.04,4,.69,8.11,1.13,12.17,1.31,7.56.42,15.11-.75,22.59-1.68,9.67-1.36,16.69-1.07,26.07,1.85.75.21,1.84.48,2.61.64,1.43-.04,2.97-.61,4.34-.95,2.55-.72,5.22-1.42,7.82-1.93"/><path class="b" d="M8.67,78.15c7.82-.13,15.7-.12,23.46-1.12,7.93-1.06,15.66-3.31,23.46-5.02.5-.13,1.28-.06,1.74.14,1.09.3,2.38.62,3.48.86,2.55.55,5.23.94,7.82,1.2,10.39.99,20.86.72,31.28.81,2.93-.24,5.82.56,8.69,1.02,3.43.54,6.96.91,10.43,1.11,7.27.56,14.53-.56,21.72-1.45,9.52-1.37,17.75-1.48,26.94,1.82,1.07.28,2.36.74,3.48.67,1.09-.25,2.4-.61,3.48-.93,2.84-.84,5.78-1.64,8.69-2.18"/><path class="b" d="M8.67,76.45c8.68.11,17.49.36,26.07-1.21,5.94-1.1,11.58-3.47,17.38-5.1.45-.12,1.29-.32,1.74-.4,1.39.38,2.94.78,4.34,1.08,3.13.68,6.37,1.16,9.56,1.47,10.39.96,20.86.86,31.28.92,1.69,0,3.52-.06,5.21-.09,2.26.48,4.65.86,6.95,1.14,6.32.76,12.76,1.38,19.12.65,8.94-.85,17.94-2.85,26.94-1.65,4.47.44,8.68,2.31,13.03,3.24,4.36-.97,8.6-2.67,13.04-3.36"/><path class="b" d="M8.67,74.38c8.97-.02,18.08,1.49,26.94-.54,4.29-.94,8.21-3.09,12.17-4.9,1.06-.45,2.32-1.01,3.48-1.12,2.57.59,5.21,1.26,7.82,1.62,5.74.9,11.58,1.32,17.38,1.53,9.84.31,19.72.59,29.54.02,6.32.95,12.73,1.72,19.12,1.98,8.14-.05,16.19-1.93,24.33-2,4.08-.08,8.22.36,12.17,1.4,2.61.66,5.21,1.67,7.82,2.34,2.05-.19,4.1-1.07,6.08-1.6,2.54-.77,5.21-1.44,7.82-1.86"/><path class="b" d="M8.67,72.12c4.33.03,8.72.27,13.03.68,5.17.52,10.56,1.01,15.64-.37,4-1.05,6.93-4.23,10.43-6.22,15.17,2.78,30.67,2.97,46.05,3.06,3.16-.01,6.41-.06,9.56-.41,1.42-.13,2.95-.54,4.34-.77.77.08,1.83.16,2.61.2,6.1.34,12.12,2.13,18.25,1.96,8.68-.31,17.38-1.98,26.07-1.01,3.23.36,6.48,1.17,9.56,2.2,1.68.52,3.46,1.29,5.21,1.52.41-.11,1.32-.34,1.74-.47,3.98-1.26,8.02-2.57,12.17-3.16"/><path class="b" d="M8.67,69.57c5.21,0,10.48.32,15.64,1.08,3.15.53,6.35,1.09,9.56.92,2.31-.04,4.91.32,6.95-1.01,3.96-2.79,1.94-4.53,7.82-4.55,6.65.01,13.33.59,19.99.69,10.12.18,20.29.62,30.41.11,3.56-.21,7.18-.87,10.43-2.38,1.05-.38,2.38-.22,3.48-.23,1.4.03,2.96.15,4.34.35,3.79.54,7.47,2,11.3,2.28,6.06.48,12.18-.03,18.25-.02,4.07,0,8.21.33,12.17,1.33,2.93.71,5.82,1.88,8.69,2.79.73.33,1.87.28,2.61-.03,1.09-.33,2.39-.78,3.48-1.13,3.09-1.03,6.33-1.86,9.56-2.29"/><path class="b" d="M8.67,66.61c5.79-.1,11.67.04,17.38,1.06,2.67.39,5.17,1.78,7.82,2.16,1.99,0,4.09,0,6.08,0,1.12-.05,2.5.23,3.48-.45,4.1-3.4,8.72-4.26,13.9-4.37,3.74-.1,7.55-.27,11.3-.28,9.84-.23,19.72.22,29.54-.47,2.01-.17,4.12-.46,6.08-.93,1.4-.31,2.92-.87,4.34-1.01,6.65.07,13.35-.15,19.99.09,3.75.53,7.49,1.55,11.3,1.72,6.09.41,12.31.32,18.25,1.88,3.25.8,6.39,2.2,9.56,3.24.74.39,1.86.1,2.61-.18,1.09-.36,2.39-.83,3.48-1.2,3.07-1.06,6.33-1.86,9.56-2.24"/><path class="b" d="M8.67,63.07c5.19-.46,10.44-.5,15.64-.79,2.86-.07,5.94-.6,8.69.4,1.93.84,2.76,3.42,3.48,5.22,2.24.42,4.68.08,6.95.19,2.24.27,4.15-.77,6.08-1.73,2.18-1.03,4.58-1.8,6.95-2.23,9.47-1.47,19.11-1.79,28.68-1.98,6.68-.04,13.38-.51,19.99-1.53,6.07-.07,12.18,0,18.25-.03,4.62.03,9.29-.06,13.9.04,3.16.47,6.37,1.13,9.56,1.44,4.08.47,8.24,1.01,12.17,2.25,3.23.96,6.31,2.58,9.56,3.49,4.85-1.56,9.64-3.59,14.77-3.98"/><path class="b" d="M8.67,59.17c4.88-.57,9.87-.22,14.77-.31,2.58,0,5.24,0,7.82,0,1.69.09,3.57-.22,5.21.21,2.09,2.79,3.59,7.55,7.82,7.29,2.31-.03,4.79.25,6.95-.74,3.64-1.51,7.4-2.9,11.3-3.56,9.15-1.89,18.49-2.43,27.81-2.68,12.72-.85,25.49-.45,38.23-.53,3.16,0,6.4,0,9.56,0,2.59-.02,5.28-.1,7.82.5,4.06.76,8.23,1.42,12.17,2.7,3.56,1.05,6.85,3.05,10.43,4.02,2.33-.67,4.63-1.76,6.95-2.46,2.51-.79,5.2-1.31,7.82-1.56"/><path class="b" d="M8.67,57.12c8.39.02,16.81-.03,25.2.02,1.57.34,3.01,1.45,4.34,2.29,1.93,1.27,4,2.57,6.08,3.59,8.21,4.19,13.08-.67,20.86-2.64,4.28-1.14,8.6-2.44,13.03-2.79,9.24-.77,18.55-.36,27.81-.46,7.81,0,15.65,0,23.46,0,4.04,0,8.13,0,12.17,0,2.28.06,4.7-.18,6.95.25,3.83.77,7.68,1.81,11.3,3.29,2.91,1.13,5.68,2.85,8.69,3.69,2.33-.7,4.62-1.84,6.95-2.55,2.51-.8,5.2-1.29,7.82-1.5"/><path class="b" d="M8.67,55.38c4.62,0,9.29,0,13.9,0,2.86.1,5.85-.24,8.69.2,6.13,1.8,12.17,4.08,18.25,6.04,3.32,1.14,7.08,1.89,10.43.45,3.78-1.53,7.43-3.55,11.3-4.87,2.2-.87,4.56-1.69,6.95-1.78,10.71-.12,21.44,0,32.15-.04,3.16-.05,6.4.17,9.56.17,2.87.02,5.82-.19,8.69-.17,4.91,0,9.86,0,14.77,0,3.17.1,6.5-.37,9.56.65,2.96.86,5.92,2.05,8.69,3.41,2.26,1.08,4.54,2.46,6.95,3.18,2.06-.52,4.07-1.62,6.08-2.29,2.77-.99,5.76-1.55,8.69-1.75"/><path class="b" d="M8.67,53.64c5.78.06,11.61-.12,17.38.08,2.62.36,5.24,1.18,7.82,1.73,3.14.72,6.39,1.3,9.56,1.9,3.49.65,7.01,1.5,10.43,2.46,3.65,1.08,7.7,2.11,11.3.29,2.22-.96,4.1-2.71,6.08-4.04,2.04-1.36,4.42-2.64,6.95-2.41,3.16,0,6.4,0,9.56,0,6.36,0,12.76,0,19.12,0,2.6.1,5.23.76,7.82.91,4.03.31,8.14.2,12.17-.18,1.7-.17,3.52-.47,5.21-.68,2.57-.12,5.25-.02,7.82-.05,4.32.09,8.73-.2,13.03.13,4.98,1.23,9.33,4.22,13.9,6.43.72.33,1.79.83,2.61.53,1.41-.51,2.94-1.24,4.34-1.79,3.02-1.2,6.32-1.86,9.56-2.04"/><path class="b" d="M8.67,51.9c4.03.05,8.14-.11,12.17.08,3.49.38,6.97,1.28,10.43,1.86,6.6,1.23,13.36,1.53,19.99,2.61,2.91.47,5.85,1.19,8.69,1.94,3.38.99,7.21,1.68,10.43-.19,2.57-1.36,4.59-3.69,6.95-5.34,1.75-1.3,4.05-.9,6.08-.95,2.58,0,5.24,0,7.82,0,3.74.06,7.56-.13,11.3.1,3.49.33,6.94,1.39,10.43,1.76,7.24.55,14.67.12,21.72-1.66,3.12-.46,6.4-.09,9.56-.21,3.45.1,7-.22,10.43.15,5,1.5,9.04,5.21,13.9,7.02.83.16,1.87-.35,2.61-.67,1.07-.48,2.37-1.05,3.48-1.46,2.75-1.03,5.76-1.55,8.69-1.7"/><path class="b" d="M8.67,50.16c2.28.03,4.67-.06,6.95.05,2.3.23,4.67.74,6.95,1.11,5.45.97,10.99,1.7,16.51,2.06,6.36.46,12.82.51,19.12,1.63,2.31.41,4.69,1.01,6.95,1.65,2.23.69,4.61,1.19,6.95.97,4.47-.51,7.21-4.83,11.3-6.3,2.89-1.55,6.4-1.07,9.56-1.08,9.05.3,17.81,3.81,26.94,2.88,4.05-.25,8.17-.56,12.17-1.31,2.03-.36,4.08-1.17,6.08-1.62,5.49-.11,11.02,0,16.51-.04,1.87,0,3.63,1.19,5.21,2.07,3.13,1.75,6.01,4.37,9.56,5.23,2.04-.68,4.04-1.81,6.08-2.47,2.49-.85,5.2-1.27,7.82-1.39"/><path class="b" d="M8.67,48.43c2.93-.17,5.84.54,8.69,1.09,3.14.59,6.38,1.03,9.56,1.39,8.93,1.06,17.96,1,26.94,1.21,4.06.14,8.2.48,12.17,1.43,2.92.58,5.71,2.11,8.69,2.37,4.1.2,5.21-.33,8.69-2.34,1.94-.95,4.02-1.97,6.08-2.62,1.66-.42,3.51-.5,5.21-.44,5.82.23,11.58,1.47,17.38,1.93,4.04.2,8.15-.19,12.17-.59,3.47-.38,7.03-.72,10.43-1.55,2.04-.43,4.04-1.49,6.08-1.87,3.74-.01,7.55,0,11.3,0,2,.11,4.25-.39,6.08.61,2.4,1.27,4.69,2.97,6.95,4.46,1.79,1.05,3.96,2.98,6.08,1.74,3.78-1.88,7.92-3.18,12.17-3.28"/><path class="b" d="M8.67,46.8c10.81,2.56,21.93,3.4,33.02,3.42,7.52.09,15.08-.57,22.59-.18,3.56.2,7.19.86,10.43,2.39,1.6.8,3.39,1.64,5.21,1.75,2.31.05,4.75.09,6.95-.74,2.28-.67,4.62-1.58,6.95-2.05,6.04-.95,12.19.08,18.25.36,5.23.12,10.47-.7,15.64-1.36,4.74-.57,9.54-1.39,13.9-3.43,1.04-.4,2.39-.25,3.48-.27,1.99,0,4.1,0,6.08,0,2.27.12,4.72-.27,6.95.21,3.09,1.49,5.76,3.88,8.69,5.65,1.01.6,2.27,1.37,3.48,1.45.42-.15,1.33-.49,1.74-.69,3.49-1.77,7.37-2.88,11.3-3"/><path class="b" d="M8.67,45.74c11.89,2.94,24.32,2.95,36.5,2.72,7.83-.17,15.64-1.27,23.46-1.5.87-.13,1.88.35,2.61.76,1.07.54,2.36,1.13,3.48,1.58,4.43,1.61,9.12,3.37,13.9,3.12,2.02-.06,4.1-.6,6.08-.94,2.26-.39,4.66-.63,6.95-.72,5.2-.26,10.45.48,15.64-.03,3.48-.26,6.99-.87,10.43-1.43,3.17-.52,6.44-.97,9.56-1.76,2.08-.5,4.15-1.43,6.08-2.33,1.03-.42,2.39-.24,3.48-.28,2.58,0,5.24,0,7.82,0,1.39.07,3.01-.22,4.34.26,3.01,1.3,9.35,7.59,12.17,6.9,1.72-.63,3.47-1.59,5.21-2.16,2.2-.75,4.63-1.17,6.95-1.28"/><path class="b" d="M8.67,44.73c7.96,1.83,16.2,2.08,24.33,2.22,10.77.14,21.56-.66,32.15-2.61,3.2.8,6.35,2.11,9.56,2.89,5.14,1.31,10.42,2.3,15.64,3.23,2.28.43,4.68.19,6.95-.1,2.27-.26,4.66-.43,6.95-.47,2.87-.09,5.82.15,8.69.12,3.47-.04,7-.39,10.43-.94,3.18-.51,6.4-1.21,9.56-1.8,3.86-.72,7.83-1.55,11.3-3.49,1.54-.88,3.52-.47,5.21-.55,2.87,0,5.82,0,8.69,0,2.01-.06,3.63,1.72,5.21,2.75,2.45,1.65,4.87,3.91,7.82,4.54,2.03-.67,4.04-1.76,6.08-2.4,1.93-.63,4.06-.98,6.08-1.1"/><path class="b" d="M8.67,43.63c8.57,1.63,17.37,1.75,26.07,1.7,5.79-.09,11.63-.38,17.38-1.1,3.2-.28,6.38-1.23,9.56-1.53,8.02,1.88,16.15,3.38,24.33,4.32,4.04.47,8.1,1.32,12.17,1.52,4.91.27,9.87-.13,14.77-.27,2.88-.09,5.83.53,8.69.02,4.09-.5,8.15-1.51,12.17-2.41,4.19-.88,8.45-1.91,12.17-4.11,1.32-.53,2.95-.21,4.34-.29,1.99,0,4.1,0,6.08,0,1.08.02,2.4-.08,3.48.12.84.36,1.87,1.08,2.61,1.62,2.76,1.95,5.49,4.26,8.69,5.47,1.82-.05,3.51-1.3,5.21-1.84,2.19-.85,4.61-1.35,6.95-1.52"/><path class="b" d="M8.67,42.43c11.77,1.74,23.79,1.55,35.63.73,2.88-.24,5.84-.58,8.69-1.05,1.68-.15,3.57-.99,5.21-.73,7.48,1.28,15.03,2.29,22.59,2.91,6.36.56,12.8.64,19.12,1.55,5.19.51,10.44-.23,15.64.04,2.89.11,5.83.55,8.69.91,2.31-.32,4.7-.8,6.95-1.41,3.75-1.02,7.64-1.83,11.3-3.18,1.78-.6,3.44-1.85,5.21-2.46,3.74-.03,7.55,0,11.3-.01,2.02-.14,3.63,1.67,5.21,2.67,2.46,1.7,4.95,3.68,7.82,4.62,1.76-.46,3.5-1.43,5.21-2.02,1.92-.7,4.05-1.15,6.08-1.33"/><path class="b" d="M8.67,41.16c10.94,1.33,22.05,1.19,33.02.41,2.59-.21,5.26-.5,7.82-.89,1.69-.15,3.51-.91,5.21-.59,13.8,1.82,27.79,2.95,41.71,2.31,2.57.37,5.2,1,7.82,1.03,3.74.18,7.55-.09,11.3.15,4.08.12,8.15.84,12.17,1.46,3.23-.52,6.42-1.58,9.56-2.49,2.63-.79,5.37-1.6,7.82-2.86,1.08-.54,2.27-1.46,3.48-1.7,1.08,0,2.39,0,3.48,0,2.58,0,5.25,0,7.82,0,1.98.26,3.56,1.97,5.21,2.96,2.46,1.55,4.91,3.69,7.82,4.28,3.39-1.29,6.76-2.94,10.43-3.23"/><path class="b" d="M8.67,39.83c9.51.93,19.14.86,28.68.28,2.88-.2,5.83-.48,8.69-.86,1.4-.15,2.94-.54,4.34-.59,1.09.13,2.38.29,3.48.41,7.21.79,14.48,1.2,21.72,1.49,7.23.19,14.56.31,21.72-.78,3.96.98,8.08,1.48,12.17,1.49,4.92.14,9.89.31,14.77.95,2.01.25,4.09.81,6.08,1.13,4.14-.88,8.21-2.37,12.17-3.85,1.12-.45,2.43-1.06,3.48-1.66,1.05-.56,2.22-1.59,3.48-1.56,1.39,0,2.95-.01,4.34.02,2.28.05,4.67.04,6.95.06,2.78,1.21,5.19,3.33,7.82,4.83,1.6.86,3.32,2.3,5.21,2.26,3.1-1.2,6.21-2.7,9.56-3.06"/><path class="b" d="M8.67,38.46c12.73.94,25.59.48,38.23-1.19,6.92.76,13.9,1.23,20.86,1.47,10.13.34,20.41.66,30.41-1.28,9.27,2.82,19.19,1.49,28.68,2.97,2.01.19,4.06,1.14,6.08,1.09,3.56-.92,7.08-2.29,10.43-3.79,6.22-3.01,3.64-3.63,11.3-3.02,2.28.16,4.68-.08,6.95.14,4.08,2.18,7.8,5.25,12.17,6.88,1.49-.08,2.96-1.01,4.34-1.51,1.63-.66,3.48-1.2,5.21-1.49"/><path class="b" d="M8.67,37.05c11.58.58,23.26.28,34.76-1.23,9.52.92,19.11,1.4,28.68,1.53,8.69.1,17.56.16,26.07-1.86,5.37,1.45,10.95,2.06,16.51,2.29,4.33.23,8.73.14,13.03.7,2.32.23,4.65,1.09,6.95,1.35,2.99-.78,5.93-2.06,8.69-3.44,2.12-.94,3.95-2.71,6.08-3.59,1.7.06,3.52.33,5.21.44,2.28.16,4.67.08,6.95.01,4.23,1.72,7.94,4.74,12.17,6.51,1.41.73,3.01-.48,4.34-.94,1.63-.7,3.47-1.32,5.21-1.67"/><path class="b" d="M8.67,35.61c7.52.25,15.08.09,22.59-.36,3.18-.11,6.4-.77,9.56-.86,10.69.87,21.43,1.35,32.15,1.41,6.08.07,12.21-.06,18.25-.78,2.64-.2,5.39-1.08,7.82-1.29,4.75,1.54,9.82,1.99,14.77,2.34,5.48.36,11.06-.09,16.51.73,2.03.22,4.07,1.06,6.08,1.26,3.4-.97,6.66-2.67,9.56-4.67,1.08-.7,2.19-1.92,3.48-2.23,2.57.29,5.23.73,7.82.73,1.69.04,3.52-.16,5.21-.13,2.29,1.17,4.69,2.38,6.95,3.61,1.95,1.03,3.95,2.33,6.08,2.94,2.66-.65,5.12-2.19,7.82-2.74"/><path class="b" d="M8.67,34.14c6.65.11,13.35-.07,19.99-.46,1.99-.13,4.1-.29,6.08-.51,1.4-.18,2.94-.41,4.34-.2,9.83.65,19.7,1.08,29.54,1.2,7.82.1,15.7.13,23.46-.9,1.4-.19,2.96-.45,4.34-.74,1.09-.18,2.41-.83,3.48-.26,5.34,1.53,10.97,2.11,16.51,2.29,5.78.18,11.69-.48,17.38.79,1.41.21,2.91,1.1,4.34.91,3.95-1.22,7.35-3.82,10.43-6.5,2-.07,4.09.5,6.08.61,2.28.21,4.67.14,6.95-.06,1.52-.29,2.98.88,4.34,1.37,3.55,1.42,6.79,3.71,10.43,4.89,2.38-.52,4.59-1.89,6.95-2.5"/><path class="b" d="M8.67,32.65c6.07,0,12.19-.19,18.25-.57,2.58-.18,5.25-.4,7.82-.72,1.99.09,4.09.25,6.08.34,10.12.46,20.28.84,30.41.89,9.29.04,18.74,0,27.81-2.25,6.43,2,13.28,2.67,19.99,2.63,4.33-.02,8.72-.41,13.03.04,2.36.2,4.69,1.01,6.95,1.66,2.21-.66,4.31-1.96,6.08-3.41,1.14-.84,2.15-2.32,3.48-2.86,4.61.39,9.28,1.1,13.9.39,1.48.02,2.94,1.02,4.34,1.43,3.29,1.15,6.33,3.02,9.56,4.3.77.44,1.84.15,2.61-.17,1.41-.52,2.92-1.25,4.35-1.72"/><path class="b" d="M8.67,31.14c8.12-.07,16.25-.54,24.33-1.3,15.04.79,30.13,1.14,45.19,1.1,6.98-.15,14.05-.52,20.85-2.17,4.5,1.35,9.23,2.04,13.9,2.44,4.32.31,8.71.07,13.03-.13,4.69-.26,9.54-.09,13.9,1.84,3.26-.57,5.53-3.41,7.82-5.55,2.58-.28,5.25.14,7.82.25,2.58.15,5.26-.03,7.82-.42,2.25.88,4.7,1.54,6.95,2.42,2.62,1.01,5.15,2.51,7.82,3.4,1.81-.07,3.53-1.18,5.21-1.77"/><path class="b" d="M8.67,29.62c7.24-.19,14.52-.49,21.72-1.31,14.18.62,28.39.83,42.58.96,8.71.03,17.54-.16,26.07-2.11,5.63,1.58,11.53,2.45,17.38,2.55,6.07.14,12.19-.93,18.25-.34,1.43.17,3,.55,4.34,1.07.76.29,1.76.89,2.61.65,2.1-.83,3.76-2.66,5.21-4.32,1.32-.52,2.93-.68,4.34-.69,2.87,0,5.82.3,8.69.07,1.09-.08,2.4-.24,3.48-.42,1.41.28,2.95.83,4.34,1.18,2.98.76,5.92,1.93,8.69,3.24,3.25,1.63,3.63,1.3,6.95-.17"/><path class="b" d="M8.67,28.1c6.66-.22,13.36-.55,19.99-1.3,14.76.54,29.55.6,44.32.77,8.71.06,17.52-.2,26.07-2.04,4.22,1.25,8.67,1.86,13.03,2.31,7.24.68,14.49-.58,21.72-.48,2.04.07,4.21.45,6.08,1.29.41.2,1.32.6,1.74.8,1.36.08,2.57-1.13,3.48-2.01,3.17-3.67,8.73-2.41,13.03-2.67,2,.06,4.1-.57,6.08-.47,2.86.79,5.89,1.25,8.69,2.23,2.66.82,5.17,2.31,7.82,3.13.81-.17,1.86-.57,2.61-.9"/><path class="b" d="M8.67,26.58c4.33-.16,8.71-.4,13.03-.74,2.29-.11,4.66-.6,6.95-.51,9.26.38,18.55.24,27.81.35,9.55.04,19.14.43,28.68-.1,4.66-.21,9.32-.94,13.9-1.72,3.66,1.06,7.52,1.58,11.3,2.08,3.73.44,7.55.43,11.3.24,4.04-.18,8.12-.71,12.17-.73,3.05-.1,6.09.78,8.69,2.36,1.38-.09,2.41-1.46,3.48-2.18,1.74-1.29,3.95-1.96,6.08-2.14,2.57-.23,5.25-.09,7.82-.31,1.41-.06,2.94-.47,4.34-.48.43.1,1.3.29,1.74.38,3.5.63,7.11,1.22,10.43,2.55,1.1.43,2.39,1.02,3.48,1.51,1.04.5,2.37,1.02,3.48.42"/><path class="b" d="M8.67,25.06c5.79-.25,11.62-.58,17.38-1.24,4.33.07,8.71.18,13.03.18,8.68-.04,17.39-.09,26.07,0,7.81.04,15.67.25,23.46-.48,3.18-.29,6.43-.75,9.56-1.42,1.43,0,2.94.64,4.34.85,2.56.5,5.24.87,7.82,1.21,4.31.51,8.71.44,13.03.15,4.61-.24,9.29-1.11,13.9-.62,2.22.2,4.2,1.48,6.08,2.55,1.5-.7,2.86-2.01,4.34-2.74,3.46-1.79,7.52-1.52,11.3-1.76,1.71-.06,3.52-.44,5.21-.61,1.97.41,4.09.64,6.08.94,2.33.34,4.74.87,6.95,1.68,2.03.69,4,1.9,6.08,2.45"/><path class="b" d="M8.67,23.53c5.79-.14,11.61-.77,17.38-1.14,11.58.16,23.18-.19,34.76-.17,12.17-.07,24.51.69,36.5-1.86,1.1-.41,2.38.25,3.48.43,1.68.37,3.51.69,5.21.95,5.15.86,10.42,1.19,15.64.87,3.17-.16,6.4-.51,9.56-.79,2.57-.2,5.29-.48,7.82.14.82.21,1.89.69,2.61,1.15.7.49,1.68,1.36,2.61,1.23,5.55-3.69,8.31-3.83,14.77-4.13,1.71-.09,3.52-.42,5.21-.66,1.38.24,2.95.41,4.34.55,2.9.27,5.89.6,8.69,1.43,2.07.58,4.1,1.62,6.08,2.44"/><path class="b" d="M8.67,22c3.46-.14,6.98-.3,10.43-.56,2.87-.23,5.81-.57,8.69-.51,16.8-.17,33.6-.65,50.4-.55,4.34-.08,8.73-.35,13.03-.95,2.31-.21,4.65-1.02,6.95-1.12,6.52,1.59,13.27,2.58,19.99,2.54,5.22-.02,10.45-.74,15.64-1.19,2.3-.17,4.82-.28,6.95.75,1.06.74,2.25,1.81,3.48,2.29,1.47-.54,2.91-1.57,4.34-2.18,3.53-1.61,7.51-1.62,11.3-1.94,1.4-.11,2.95-.4,4.34-.61,1.68.24,3.52.37,5.21.47,4.77.19,9.61.92,13.9,3.1"/><path class="b" d="M8.67,20.46c5.21-.17,10.45-.51,15.64-.89,4.91-.16,9.86-.22,14.77-.35,7.81-.24,15.65-.53,23.46-.61,6.36-.13,12.76.02,19.12-.25,5.26-.2,10.5-1.05,15.64-2.12,7.36,1.78,15,2.89,22.59,2.66,3.47-.1,6.98-.48,10.43-.86,2.57-.26,5.23-.71,7.82-.54.88.02,1.99.4,2.61,1.06,1.01.8,2.29,1.72,3.48,2.24.88.08,1.85-.53,2.61-.9,1.34-.68,2.89-1.33,4.34-1.73,3.37-.97,6.98-.89,10.43-1.38.78-.11,1.83-.31,2.61-.42,1.98.23,4.09.31,6.08.36,4.41.09,8.97.41,13.04,2.27"/><path class="b" d="M8.67,18.91c7.24-.19,14.49-.81,21.72-1,15.63-.52,31.28-1.35,46.92-1.38,6.43-.06,12.86-.92,19.12-2.37,4.54,1.19,9.26,1.8,13.9,2.38,6.05.73,12.21.4,18.25-.32,3.16-.3,6.37-.98,9.56-.95,1.17.56,2.39,1.54,3.48,2.24,2.86,1.82,2.96,1.99,6.08.43,2.45-1.09,5.15-1.84,7.82-2.11,2.88-.3,5.84-.54,8.69-1.06,1.98.19,4.09.22,6.08.22,4.36,0,8.89-.07,13.04,1.45"/></svg>