<?xml version="1.0" encoding="UTF-8"?><svg id="a" xmlns="http://www.w3.org/2000/svg" width="1920" height="2400" viewBox="0 0 192 240"><defs><style>.b{fill:none;stroke:#fff;stroke-miterlimit:10;stroke-width:.3px;}.c{stroke-width:0px;}</style></defs><rect class="c" width="192" height="240"/><path class="b" d="M8.27,212.75c2.39.05,4.74.86,6.98,1.59,2.58.82,5.25,1.64,7.86,2.34,7.37,2.11,15.34,2.96,22.7.37,6.78-2.08,13.89-3.14,20.95-3.67,2.88-.23,5.85.2,8.73.05,5.8-.4,11.65-.96,17.46-.36,5.39.08,10.81.54,15.71,2.98,2.85,1.31,5.65,3,8.73,3.74,3.68,1.01,7.59.57,11.35.91,1.77.14,3.54.88,5.24,1.35,2.29.6,4.71,1.09,6.98,1.76,5.49,1.59,10.76,4.42,16.59,4.5,4.23.14,8.3-1.4,12.22-2.78,4.68-1.22,9.28-2.91,13.97-4.13"/><path class="b" d="M8.27,209.23c4.05-.1,8.19-.51,12.22.09,3.56.49,6.97,1.9,10.48,2.65,3.72.56,7.62.81,11.35.18,3.82-.73,7.53-2.17,11.35-2.92,3.41-.87,6.93-1.78,10.48-1.62,4.76.08,9.2,2.4,13.97,2.39,3.77.2,7.59-.44,11.35-.13,1.72.14,3.53.66,5.24.87,2.92.38,5.95.78,8.73,1.8,6.52,2.2,11.89,8.13,19.21,7.5,3.18-.1,6.43-1.2,9.6-.5,3.18.52,6.5.8,9.6,1.71,3.53.94,6.89,2.67,10.48,3.38,5.63,1.46,10.37,1,15.71-1.29,5.09-1.83,10.35-3.56,15.71-4.36"/><path class="b" d="M8.27,206.71c2.72-.3,5.28-1.5,7.86-2.32,5.02-1.73,9.23-.1,13.97,1.48,1.37.42,2.95.48,4.36.6,1.99.18,4.11.3,6.11.15,3.6-.23,7.03-1.64,10.48-2.6,3.19-.7,6.32-2.07,9.6-2.31,6.44-.57,11.37,4.63,17.46,5.7,4.89,1.09,10.13-.31,14.84,1.75,2.54.73,5.29.86,7.86,1.44,3.09.65,6.06,2.02,8.73,3.69,5,3.26,9.35,6.7,15.71,5.3,1.71-.32,3.51-.88,5.24-1.11,1.39-.13,2.97-.04,4.37-.14,2.89-.17,5.89-.13,8.73.5,3.49.81,6.93,2.07,10.48,2.66,5.41,1.39,9.83.51,14.84-1.77,4.73-1.84,9.72-3.46,14.84-3.55"/><path class="b" d="M8.27,204.5c2.52-.66,4.76-2.18,6.98-3.47,4.95-2.95,8.82-2.36,13.97-.47,1.65.6,3.51.67,5.24.74,2.29.16,4.69.33,6.98.11,4.18-.42,8.13-2.18,12.22-3.06,2.53-.78,5.17-1.78,7.86-1.64,8.11.67,11.97,8.94,22.7,9.73,2.03.14,4.18.42,6.11,1.1,1.41.52,2.88,1.38,4.36,1.67,3.46.69,7.14.59,10.48,1.84,5.69,1.78,9.75,7.1,15.71,8.12,2.97.48,5.94-.5,8.73-1.42,1.66-.51,3.56-.63,5.24-1.1,3.11-.81,6.37-1.53,9.6-1.23,3.22.33,6.45,1.16,9.6,1.84,2.81.75,5.81,1.4,8.73.96,2.71-.38,5.31-1.53,7.86-2.48,4.22-1.47,8.57-2.97,13.09-3.05"/><path class="b" d="M8.27,201.95c4.79-2.12,8.49-6.85,13.97-7.29,2.67-.23,5.3.71,7.86,1.3,2.26.46,4.69.19,6.98.44,4.09.38,8.22-.08,12.22-.98,2.62-.43,5.32-.85,7.86-1.68,5.46-1.71,9.78.37,13.97,3.8,3.5,2.8,7.07,5.82,11.35,7.34,2.27.76,4.76,1.12,6.98,2.02,1.75.64,3.42,1.83,5.24,2.28,4.02.92,8.32.62,12.22,2.1,5.64,1.82,10.3,6.96,16.59,6.42,2.09-.11,4.18-.9,6.11-1.64,1.68-.64,3.6-1.07,5.24-1.82,4.8-2.26,9.46-3.86,14.84-2.85,3.58.32,6.96,1.84,10.47,2.45,3.22.57,6.55-.17,9.6-1.21,4.61-1.41,9.12-3.45,13.97-3.9"/><path class="b" d="M8.27,199.07c5.81-3.55,10.73-10.32,18.33-8.95,1.7.22,3.51.66,5.24.7,2.89-.16,5.85-.02,8.73.17,2.88.22,5.85.12,8.73.14,1.7-.01,3.54.25,5.24.01,3.15-.47,6.43-1.45,9.6-.64,8.92,2.4,12.78,12.98,21.82,15.19,1.41.45,2.99.97,4.36,1.52,1.68.72,3.44,1.65,5.24,2.04,4.6,1.01,9.41,1.06,13.97,2.29,6.67,1.66,12.14,5.41,19.21,2.44,9.3-3.52,12.47-8.71,23.57-7.37,4.11.62,7.99,2.75,12.22,2.63,6.67-.11,12.55-4.2,19.2-4.55"/><path class="b" d="M8.27,195.74c5.11-3.51,9.26-9.28,15.71-10.28,2.6-.38,5.26.27,7.86.29,5.8-.47,11.73-.5,17.46.65,1.72.33,3.49,1.04,5.24,1.17,5.73.12,9.89-.82,14.84,3.04,5.23,3.96,8.06,10.65,13.97,13.79,1.62.75,3.52,1.13,5.24,1.55,4.68,1.11,9.17,3.13,13.97,3.77,2.27.36,4.68.54,6.98.53,2-.04,4.12-.19,6.11.15,12.13,2.16,12.56.76,22.7-5.17,3.45-1.93,7.41-2.91,11.35-3,1.7-.11,3.56-.21,5.24.19,4.56,1.11,9.21,2.95,13.97,1.89,4.97-1.1,9.62-3.61,14.84-3.47"/><path class="b" d="M8.27,191.99c5.4-4.09,10.14-10.68,17.46-10.95,2.3-.08,4.68.46,6.98.31,5.47-.61,11.22-1.97,16.59-.05,2.32.83,4.52,2.27,6.98,2.68,5.28.87,9.91,1.57,13.97,5.44,5.38,4.73,8.38,14.3,16.59,14.45,2,.13,4.15.05,6.11.55,5.4,1.61,10.74,4.96,16.59,3.62,1.43-.27,2.93-.94,4.37-1.2,1.38-.26,2.96-.31,4.36-.27,3.77.09,7.79.99,11.35-.7,2.97-1.47,5.63-3.72,8.73-4.96,3.27-1.47,6.93-1.93,10.48-2.14,2-.12,4.1-.65,6.11-.35,3.79.5,7.49,2.01,11.35,1.97,3.33.07,6.5-1.29,9.6-2.31,2.5-.81,5.23-1.23,7.86-1.12"/><path class="b" d="M8.27,188.31c5.14-4.3,10.15-11.12,17.46-11.01,2.89.05,5.84,1.03,8.73.42,5.38-1.15,11.42-3.55,16.59-.43,3.17,2.21,6.87,3.48,10.48,4.77,12.32,4.56,12.73,14.38,20.95,18.49,2.22.83,4.71.19,6.98-.06,4.8-.92,8.77,2.59,13.09,3.99,3.57,1.32,7.16.76,10.48-.97,2.75-1.05,5.83-1.03,8.73-.91,2.31.11,4.79.2,6.98-.66,2.52-.93,4.56-2.96,6.98-4.09,4-2.16,8.66-2.26,13.1-2.36,1.72-.04,3.52-.61,5.24-.57,4.42.15,8.64,2.18,13.1,2.01,3.04-.04,5.94-1.3,8.73-2.38,2.48-.95,5.19-1.6,7.86-1.67"/><path class="b" d="M8.27,185.16c4.79-4.1,9.73-10.72,16.59-10.65,2.93.02,5.79,1.38,8.73,1.2,5.07-.48,9.64-4.15,14.84-3.57,2.66.39,4.75,2.37,6.98,3.7,2.92,1.83,5.96,3.66,8.73,5.71,2.44,1.8,4.86,3.86,6.98,6.02,2.27,2.37,4.37,5.15,6.98,7.18,5.33,4.38,9.26-.11,14.84.87,4.87,1.41,8.72,5.67,13.97,5.96,2.11.18,4.22-.59,6.11-1.43,1.64-.59,3.51-.91,5.24-1.05,4.14-.31,8.6-.07,12.22-2.45,1.4-.9,2.88-2.07,4.37-2.84,4.32-2.51,9.21-1.97,13.97-1.6,2.31.1,4.67-.6,6.98-.27,3.49.33,6.96,1.37,10.48,1.51,6.25.44,11.52-3.61,17.46-4.79"/><path class="b" d="M8.27,181.84c2.89-2.45,5.7-5.17,8.73-7.45,2.94-2.3,6.81-3.44,10.48-2.39,2.55.61,5.18,1.8,7.86,1.31,2.74-.46,5.34-1.76,7.86-2.89,2.39-1.17,5.24-2.26,7.86-1.15,4.02,2.08,7.22,5.58,10.48,8.66,4.13,4.05,8.34,8.21,13.09,11.53,6.71,4.14,9.3.66,15.71.47,2.23-.02,4.33,1.12,6.11,2.36,2.24,1.53,4.5,3.28,6.98,4.41,5.38,2.48,7.96.09,13.1-.64,5.97-.73,10.83-1.25,15.71-5.2,6.45-4.75,10.27-3.46,17.46-2.07,2.87.19,5.85-.22,8.73.03,4.35.22,8.74.8,13.09.47,4.34-.36,8.2-2.82,12.22-4.29"/><path class="b" d="M8.27,177.57c3.55-2.62,6.76-5.84,10.48-8.22,3.15-2.07,7.02-2.22,10.48-.87,3.03,1.21,6.35,2.1,9.6,1.27,5.22-.91,9.8-5.64,14.84-1.5,7.29,5.67,12.04,16.2,21.82,17.96,3.83.4,7.58-1.01,11.35-1.32,6.54-.39,10.32,4.63,15.71,7.2,4.93,2.39,8.14.9,13.1.42,8.32-.41,11.75-2.02,18.33-6.95,3.68-2.62,7.88-3.47,12.22-2.06,1.97.54,4.05,1.3,6.11,1.32,4.94,0,9.91-.64,14.84.01,1.7.14,3.54.42,5.24.65,4.02.28,7.81-1.66,11.35-3.32"/><path class="b" d="M8.27,172.31c2.36-1.69,4.76-3.54,6.98-5.41,3.33-2.87,7.67-5.57,12.22-4.18,4.33,1.3,8.44,3.85,13.09,3.76,2.05.06,4.13-.57,6.11-1,5.84-1.44,9.53,3.43,13.09,7.18,4.03,4.4,9.21,9.55,15.71,8.49,3.43-.59,6.98-1.42,10.48-.88,4.07.89,7.82,3.04,11.35,5.17,7.71,4.58,10.58,2.26,18.33,2.67,10.77,1.25,13.65-3.1,21.82-8.37,5.69-3.32,9.21-.83,14.84.23,2.88.31,5.85-.23,8.73-.27,3.23-.03,6.52.57,9.6,1.52,4.35,1.89,9,.84,13.09-1.2"/><path class="b" d="M8.27,166.87c2.31-1.76,4.74-3.58,6.98-5.44,3.33-2.85,7.72-5.5,12.22-3.91,4.83,1.57,9.03,4.83,13.97,6.12,1.68.44,3.53.35,5.24.33,5.74-.24,9.05,3.2,13.09,6.64,12.01,10.28,15.26,2,26.19,5.92,4.04,1.89,8,4.15,12.22,5.63,2.49.86,5.24,1.09,7.86.82,3.17-.37,6.47-.89,9.6.05,6.72,1.94,10.85,1.55,16.59-2.69,2.56-1.92,4.97-4.27,7.86-5.72,4.13-2.22,8.03-.68,12.22.28,3.74.55,7.64-.12,11.35.71,8.29,1.68,11,6.18,20.08,2.39"/><path class="b" d="M8.27,162.25c2.28-1.7,4.72-3.38,6.98-5.1,2.35-1.73,4.94-3.51,7.86-4.06,6.25-.97,11.74,3.21,16.59,6.57,2.08,1.45,4.5,2.47,6.98,2.98,2.65.69,5.38,1.46,7.86,2.64,5.21,2.58,10.65,5.17,16.59,5.25,3.17.31,6.47-.09,9.6.65,3.4.71,6.56,2.36,9.6,3.96,2.2.99,4.62,1.77,6.98,2.27,2.57.51,5.31.29,7.86-.24,2.55-.5,5.24-1.28,7.86-.8,3.8.76,7.37,3,11.35,2.75,7.16-.38,11.33-7.19,17.46-9.92,3.31-1.56,7.04-.85,10.48-.2,3.49.43,7.14.51,10.48,1.77,7.48,2.78,12.43,8.03,20.95,4.76"/><path class="b" d="M8.27,158.58c4.59-2.55,8.94-5.8,13.97-7.43,4.3-1.29,9.4-.91,13.09,1.77,3.97,3.05,7.35,6.97,12.22,8.65,3.83,1.75,8.07,2.24,12.22,2.61,3.21.32,6.46.92,9.6,1.62,4.61,1.15,9.41,1.6,13.97,2.95,4.4,1.13,8.54,3.37,13.09,3.89,2.61.35,5.33-.01,7.86-.69,2.54-.64,5.19-1.6,7.86-1.36,3.6.45,6.87,2.44,10.48,2.87,8.08.98,13.18-6.76,20.08-9.43,3.86-1.62,8.16-1.06,12.22-.8,10.81.44,17.34,13.16,28.81,9.45"/><path class="b" d="M8.27,155.66c6.73-2.76,13.59-5.82,20.95-6.31,5.3-.61,8.53,3.47,12.22,6.52,2.49,2.13,5.59,3.61,8.73,4.5,2.55.74,5.27.26,7.86.02,6.06-.76,10.41,2.64,15.71,4.7,4.47,1.6,9.3,1.54,13.97,1.88,3.5.34,6.95,1.5,10.48,1.62,4.77.31,9.23-2.2,13.97-2.14,4.65.36,9.26,2.68,13.97,1.42,3.19-.67,6-2.54,8.73-4.22,3-1.82,6.21-3.54,9.6-4.5,2.52-.73,5.24-1.01,7.86-1.17,2.94-.28,6.05-.05,8.73,1.28,3.18,1.55,5.84,4.09,8.73,6.08,4.08,2.68,8.94,5.39,13.97,4.02"/><path class="b" d="M8.27,153.11c2.34-.46,4.66-1.34,6.98-1.87,2.57-.48,5.28-.69,7.86-1.12,3.44-.45,7-1.75,10.48-1.08,2.94.88,5.33,3.08,7.86,4.73,1.82,1.28,3.99,2.14,6.11,2.74,1.66.48,3.51.79,5.24.69,3.16-.35,6.52-1.32,9.6-.04,4.28,1.62,7.2,5.58,11.35,7.43,6.09,2.71,10.67-.4,16.59-.6,2.33.02,4.68.73,6.98.99,4.74.78,9.35-.96,13.97-1.71,4.05-.41,8.19.55,12.22-.12,3.78-.59,7.18-2.52,10.48-4.34,3.03-1.52,6.32-2.66,9.6-3.5,2.56-.66,5.25-1.17,7.86-1.61,3.14-.63,6.55-1.17,9.6.14,4.25,1.79,7.41,5.46,11.35,7.78,3.34,2.25,7.15,4.62,11.35,4"/><path class="b" d="M8.27,150.14c2.35-.34,4.64-1.29,6.98-1.62,2.58-.25,5.27,0,7.86-.08,3.76.07,7.64-1.29,11.35-.4,3.07.94,5.75,2.95,8.73,4.1,2.77.95,5.8,1.45,8.73,1.44,2.01-.05,4.1-.55,6.11-.43,8.22.49,11.62,11.17,20.08,10.98,6.05-.03,10.19-3.81,16.59-2.2,9.11,1.84,12.04-1.62,20.08-2.66,4.74-.41,9.61-.75,13.97-2.85,1.76-.75,3.51-1.87,5.24-2.68,1.93-.89,4.07-1.61,6.11-2.17,5.46-1.39,11.06-2.45,16.59-3.54,4.69-.73,8.8,2.24,12.22,5.08,1.66,1.36,3.57,2.67,5.24,4.01,2.78,2.2,5.94,4.44,9.6,4.63"/><path class="b" d="M8.27,146.5c1.72-.37,3.56-.82,5.24-1.33,2.6-.53,5.31.16,7.86.66,2.27.48,4.66.83,6.98.92,1.7.09,3.55.01,5.24.23,2.99.48,5.82,1.85,8.73,2.66,4.54,1.08,9.31,1.35,13.97,1.34,9.12-.1,12.49,9.08,20.95,9.73,5.58.49,11-2.33,16.59-1.4,9.35,1.76,12.04-1.39,20.08-4.46,3.97-1.46,8.2-2.29,12.22-3.58,3.01-.85,5.82-2.43,8.73-3.55,5.32-1.89,11.02-2.58,16.59-3.35,5.54-.97,9.6-2.33,14.84.95,6.04,3.5,10.56,9.69,17.46,11.62"/><path class="b" d="M8.27,143.35c1.71-.39,3.54-.82,5.24-1.27,3.86-.57,7.61,1.15,11.35,1.8,3.14.67,6.44.67,9.6,1.21,4.35.85,8.68,2.02,13.09,2.52,2.32.32,4.68.99,6.98,1.37,2.62.38,5.35.75,7.86,1.62,4.21,1.34,7.9,4.16,12.22,5.16,6.6,1.3,13.44-.25,20.08.69,3.19.55,6.62.53,9.6-.89,4.59-2.23,8.62-5.55,13.09-7.99,3.74-2.22,8.04-3.28,12.22-4.32,6.46-2.26,13.22-3.77,20.08-4.12,3.49.03,6.99-.67,10.47-.69,5.44-.14,9.96,3.27,13.97,6.56,2.95,2.3,6.16,4.44,9.6,5.93"/><path class="b" d="M8.27,141.3c2.3-.41,4.65-1.14,6.98-1.33,2.59-.14,5.27.13,7.86.16,2.59.07,5.27-.12,7.86.04,4.41.49,8.8,1.55,13.09,2.68,3.94.87,7.58,2.56,11.35,3.91,3.4,1.05,6.99,1.63,10.48,2.34,2.61.49,5.26,1.22,7.86,1.78,2.27.4,4.69.49,6.98.69,2.61.19,5.26.75,7.86,1.04,2.89.24,5.85.53,8.73.9,4.74.49,8.84-2.46,12.22-5.43,2.32-1.93,4.71-4,6.98-5.98,3.16-2.8,7.09-4.78,11.35-5.07,6.21-.58,12.15-2.9,18.33-3.73,2.87-.5,5.85-.07,8.73.03,3.47.08,7.06-.14,10.48.61,3.31.69,6.01,2.94,8.73,4.81,3.09,2.01,6.43,3.77,9.6,5.65"/><path class="b" d="M8.27,140.07c3.82-.6,7.67-1.43,11.35-2.64,2.93-.96,5.77-2.38,8.73-3.26,2.28-.77,4.71-.31,6.98.21,3.62.74,7.17,2.07,10.48,3.71,3.28,1.49,6.39,3.5,9.6,5.11,2.72,1.31,5.73,2.16,8.73,2.49,3.18.32,6.45.44,9.6.99,2.59.26,5.29.27,7.86.7,3.78.7,7.47,2.16,11.35,2.34,3.47.67,7.29,1.2,10.47-.75,4.02-2.37,7.15-6.07,10.48-9.29,2.36-2.46,4.78-5.16,7.86-6.73,3.5-1.88,7.61-.74,11.35-1.45,4.79-.83,9.22-3.15,13.97-4.11,2.88-.68,5.86.12,8.73.44,3.45.46,7.05.34,10.48,1.01,2.94.54,5.34,2.51,7.86,3.97,3.21,1.71,6.64,3.25,9.6,5.4"/><path class="b" d="M8.27,138.56c5.96-.59,10.27-3.03,14.84-6.72,2.17-1.63,4.38-3.53,6.98-4.41,1.69-.56,3.56-.06,5.24.28,3.4.74,6.66,2.27,9.6,4.11,5.49,3.18,10.64,7.17,16.59,9.47,3.34,1.27,6.97,1.65,10.48,2.16,3.15.53,6.45.26,9.6.78,3.24.55,6.35,1.94,9.6,2.44,3.16.39,6.43,1.61,9.6.68,6.84-2.1,12.6-11.59,18.33-16.03,6.91-5.29,10.29.3,19.2-4.14,4.2-1.76,8.35-4.75,13.09-4.41,2.29.32,4.68.67,6.98.84,3.78.34,7.82-.08,11.35,1.59,1.45.7,2.92,1.79,4.36,2.51,3.31,1.66,6.74,3.37,9.6,5.76"/><path class="b" d="M8.27,136.02c9.79-2.7,11.6-6.71,19.21-11.99,2.15-1.46,4.49-1.87,6.98-1.14,3.41.79,6.64,2.41,9.6,4.23,3.36,2.2,7.03,4.02,10.48,6.07,5.69,3.48,11.68,6.86,18.33,8,2.86.46,5.85.21,8.73.44,2.63.19,5.26.97,7.86,1.36,3.18.36,6.38,1.42,9.6,1.27,6.89-.65,11.78-8.08,16.59-12.47,2.55-2.5,5.84-4.92,9.6-4.51,2.01.14,4.09.72,6.11.72,3.13-.1,6.06-1.62,8.73-3.12,3.55-1.9,7.14-4.67,11.35-4.54,2.29.23,4.68.62,6.98.77,3.46.32,7.06-.32,10.48.49,1.82.43,3.55,1.52,5.24,2.28,3.4,1.51,6.76,3.36,9.6,5.77"/><path class="b" d="M8.27,132.9c2.53-1.58,5.43-2.72,7.86-4.47,3.24-2.26,6.22-5.03,9.6-7.1,1.82-1.08,3.96-2.01,6.11-1.9,4.1.48,7.78,2.73,11.35,4.65,4.1,2.54,8.81,3.96,13.09,6.14,4.7,2.25,9.13,5.18,13.97,7.15,3.58,1.48,7.54,1.54,11.35,1.66,2.3.08,4.68.48,6.98.64,3.2.12,6.41.94,9.6,1.08,7.93.06,12.74-7.35,18.33-11.86,6.74-5.38,8.92-1.82,15.71-1.92,5.19-.69,9.34-4.34,13.97-6.49,1.59-.75,3.45-1.37,5.24-1.31,2.89.22,5.82.95,8.73,1.01,2.89.12,5.84-.56,8.73-.36,1.78.1,3.58.83,5.24,1.44,3.46,1.27,6.74,3.2,9.6,5.52"/><path class="b" d="M8.27,129.66c2.74-2.19,5.98-3.82,8.73-5.99,3.68-2.73,7.51-5.97,12.22-6.56,5.19-.57,9.5,3.12,13.97,5.17,2.43,1.33,5.16,2.13,7.86,2.72,3.52,1.01,7.16,1.96,10.48,3.54,3.57,1.63,6.84,4,10.48,5.49,5.54,2.12,11.57,2.81,17.46,3.09,2.61,0,5.27.46,7.86.68,5.28.56,10.16-2.19,13.97-5.61,3.62-3.06,7.17-7.28,12.22-7.58,2.33-.06,4.68.68,6.98.88,5.44.27,10.07-3.3,14.84-5.4,2.42-1.13,5.19-1.92,7.86-1.36,3.43.65,6.96,1.58,10.48,1.02,2.29-.31,4.66-.91,6.98-.83,4.9.42,9.28,3.13,13.09,6.07"/><path class="b" d="M8.27,126.76c2.8-2.2,6.01-3.99,8.73-6.3,5.22-4.4,11.38-8.77,18.33-5.34,4.25,2.04,8.32,4.94,13.09,5.62,2.02.23,4.11.66,6.11,1.02,2.34.35,4.78.79,6.98,1.66,3.42,1.31,6.43,3.57,9.6,5.35,6.67,3.5,13.21,6.69,20.95,6.45,6.17.54,11.02,1.32,16.59-2.27,7.88-4.96,10.17-11.9,20.95-9.86,7.16.88,13.21-4.26,20.08-5.17,4.45-.45,8.61,2.32,13.09,1.78,2.64-.22,5.23-1.2,7.86-1.49,4.99-.39,9.31,2.86,13.09,5.7"/><path class="b" d="M8.27,124.17c3.03-1.75,6.2-3.52,8.73-5.98,3.89-3.45,7.71-7.91,13.09-8.82,4.77-.65,8.8,2.75,13.09,4.24,2.19.93,4.62,1.42,6.98,1.62,1.71.19,3.53.61,5.24.85,5.31.6,9.82,3.62,13.97,6.78,1.62,1.21,3.56,2.23,5.24,3.36,3.05,2.06,6.19,4.19,9.6,5.6,2.99,1.39,6.37,1.51,9.6,1.75,8.34,1.33,13.7.2,20.08-5.56,4.94-4.56,8.42-8.26,15.71-7.27,7.33,1.1,13.79-3.77,20.95-4.1,4.44.13,8.57,2.83,13.1,2.12,2.34-.26,4.67-1.09,6.98-1.48,5.04-.76,9.33,2.84,13.09,5.68"/><path class="b" d="M8.27,120.64c6.83-2.2,11.08-8.35,16.59-12.55,7.33-5.69,11.46-2.76,19.21-.47,4.52,1.42,9.49.95,13.97,2.58,4.5,1.62,7.88,5.27,11.35,8.4,1.57,1.47,3.52,2.71,5.24,3.97,2.75,2.05,5.63,4.13,8.73,5.62,3.22,1.72,6.91,2.2,10.48,2.64,5.7,1.08,11.41,1.16,16.59-1.81,6.72-3.57,10.55-11.37,19.2-10.58,3.49.37,7.08.28,10.48-.67,3.73-.87,7.46-2.48,11.35-2.37,2.62.18,5.25.98,7.86,1.26,2.59.31,5.3.05,7.86-.43,7.51-1.86,10.77,1.55,16.59,5.56"/><path class="b" d="M8.27,116.47c3.69-.76,6.74-3.27,9.6-5.58,4.07-3.33,8.14-7,13.09-8.96,4.78-2.04,10.02-.23,14.84.73,4.31.89,9.04.12,13.09,2.11,4.66,2.34,7.74,6.85,11.35,10.46,3.87,3.53,8.28,6.71,13.09,8.82,3.02,1.38,6.38,1.99,9.6,2.72,5.74,1.4,11.89,1.46,17.46-.66,6.62-2.17,10.87-9.57,18.33-9.56,1.72-.07,3.54.34,5.24.5,1.99.19,4.13.14,6.11-.16,4.66-.7,9.17-2.73,13.97-2.21,3.76.13,7.59,0,11.35-.19,2.89-.1,5.99-.4,8.73.72,3.37,1.41,6.36,3.73,9.6,5.38"/><path class="b" d="M8.27,112.27c2.58-.31,4.83-1.85,6.98-3.19,3.15-1.97,6.37-4.02,9.6-5.85,1.97-1.12,4.09-2.24,6.11-3.27,2.37-1.36,5.11-2.16,7.86-2.05,3.53-.02,6.97,1.19,10.48,1.37,3.18.22,6.56-.48,9.6.74,4.45,1.83,7.36,6.02,10.48,9.48,3.53,4.01,8.12,7.19,13.09,9.14,3.38,1.38,7.04,2.07,10.48,3.28,4.22,1.29,8.76,1.23,13.09.71,2.6-.39,5.37-.63,7.86-1.53,4.41-1.84,8.22-5.34,13.09-5.94,2.94-.48,5.86.59,8.73,1.05,2.57.43,5.31.34,7.86-.21,2.31-.47,4.65-1.29,6.98-1.68,3.79-.23,7.56-1.18,11.35-1.43,3.81-.14,7.77.34,11.35,1.65,3.49,1.53,6.73,3.85,10.48,4.75"/><path class="b" d="M8.27,108.68c2.89-.27,5.31-2.12,7.86-3.32,3.71-1.84,7.63-3.39,11.35-5.19,4.76-2.26,7.39-5.07,13.09-4.61,3.22.14,6.36,1.42,9.6,1.33,3.48.01,7.07-1.59,10.48-.28,4.78,1.85,7.67,6.52,11.35,9.83,3.06,2.75,6.64,5.03,10.48,6.55,3.42,1.43,7.1,2.35,10.48,3.88,4.45,1.66,9.34.96,13.97.66,2.29-.24,4.71-.06,6.98-.39,2.38-.44,4.71-1.45,6.98-2.25,9.45-3.61,11.79.98,20.08,1,2.98-.07,5.88-1.12,8.73-1.88,1.38-.36,2.99-.44,4.36-.8,2.28-.56,4.63-1.33,6.98-1.54,4.2-.33,8.37,1.18,12.22,2.72,3.3,1.59,6.7,3.55,10.48,3.5"/><path class="b" d="M8.27,105.91c3.46-.15,6.45-2.26,9.6-3.46,5.42-2.24,10.73-4.82,15.71-7.92,3.81-1.91,8.27-1.27,12.22-.19,7.79,2.04,11.09-3.63,17.46-1.49,2.68,1.02,4.89,3.13,6.98,5.02,1.9,1.75,4.04,3.46,6.11,5.01,4.01,2.99,8.5,5.37,13.09,7.33,1.7.72,3.44,1.76,5.24,2.24,4.26,1.12,8.75.47,13.09.56,2.3-.04,4.69.5,6.98.25,2.63-.29,5.26-1.11,7.86-1.56,9.28-1.86,13.11,4.78,22.7,1.96,1.71-.45,3.51-1.11,5.24-1.49,1.09-.2,2.41-.33,3.49-.59,2.27-.52,4.64-1.18,6.98-1.26,3.89-.09,7.66,1.42,11.35,2.48,3.65,1.38,7.33,3.35,11.35,3.05"/><path class="b" d="M8.27,102.96c2.39.16,4.75-.61,6.98-1.34,3.6-1.14,7.15-2.63,10.48-4.42,3.74-1.79,7.1-4.9,11.35-5.35,2.3-.25,4.72.04,6.98.5,2.54.66,5.32.83,7.86.05,2.13-.62,4.1-1.94,6.11-2.86,5.91-3.02,10.16.52,14.84,3.85,5.28,3.87,10.57,7.9,16.59,10.57,2.49,1.22,5.09,2.49,7.86,2.94,3.15.59,6.43.81,9.6,1.28,2.6.3,5.23,1.09,7.86,1.11,4.05-.03,8.21-.86,12.22.04,2.69.52,5.23,1.81,7.86,2.53,3.14.89,6.54.55,9.6-.5,2-.63,4.05-1.53,6.11-1.95,1.39-.21,2.97-.26,4.37-.43,2.28-.24,4.68-.47,6.98-.38,2.01.1,4.11.47,6.11.64,2,.23,4.14.31,6.11.76,3.17.73,6.36,1.74,9.6,2.14"/><path class="b" d="M8.27,98.84c4.73.39,9.6-.55,13.97-2.37,3.63-1.53,6.94-3.83,10.48-5.54,2.99-1.35,6.42-1.2,9.6-.86,1.99.22,4.1.68,6.11.37,6.56-.71,11.33-7.9,18.33-5.57,6.44,2.11,11.69,6.6,17.46,9.98,5.71,3.33,12.04,5.47,18.33,7.4,3.47,1.1,6.91,2.56,10.48,3.3,2.86.46,5.86.26,8.73.61,2.38.26,4.79.96,6.98,1.92,1.97.82,3.98,1.93,6.11,2.29,5.62,1.07,10.44-2.91,15.71-3.97,1.69-.19,3.54.03,5.24.12,3.75.2,7.62.51,11.35-.07,6-1.39,10.61-2.08,16.59.24"/><path class="b" d="M8.27,93.49c9.92.98,13.22.12,21.82-4.67,2.64-1.49,5.72-2.03,8.73-1.86,2.88,0,5.86.63,8.73.2,4.82-.84,8.5-4.57,13.09-6,3.18-1.04,6.56-.18,9.6.9,6.1,1.56,10.94,5.9,16.59,8.5,6.22,2.65,12.61,5.05,18.33,8.72,7.68,4.75,8.4,3.57,16.59,4.66,3.42.55,6.55,2.26,9.6,3.8,5.66,3.08,11.38-1.31,16.59-3.33,2.8-1.26,5.89-.44,8.73.2,2.26.47,4.7.59,6.98.18,2.17-.31,4.22-1.46,6.11-2.49,4.35-2.24,9.19-4.64,13.97-2.08"/><path class="b" d="M8.27,87.5c3.2.01,6.4.91,9.6.85,5.37.1,9.9-3.13,14.84-4.66,5.72-1.38,12.04,1.54,17.46-1.38,4.01-2.01,7.61-5.33,12.22-5.86,2.32-.29,4.73.23,6.98.74,1.39.34,2.98.45,4.36.8,3.44,1.09,6.48,3.27,9.6,5.01,3.55,2.21,7.59,3.57,11.35,5.35,3.79,1.84,7.2,4.47,10.48,7.09,5.88,4.73,7.34,5.31,14.84,5.61,2.37.21,4.82.81,6.98,1.81,3.87,1.8,6.82,4.17,11.35,2.72,5.2-1.36,10.08-6.05,15.71-4.08,2.79.89,5.78,1.84,8.73,1.21,4.06-.73,7.01-4.03,10.48-6.01,2.97-2.18,6.71-4.59,10.47-2.97"/><path class="b" d="M8.27,81.88c3.22-.26,6.4.8,9.6.97,5.18.51,9.93-1.91,14.84-3.03,5.47-.92,11.34,1.78,16.59-.59,4.7-2.24,8.64-6.32,13.97-7.11,3.16-.5,6.42.11,9.6.02,4.26.52,7.77,3.48,11.35,5.62,5.31,3.55,11.63,5.46,16.59,9.58,2.37,1.84,4.68,3.95,6.98,5.87,2.46,2.12,5.39,3.98,8.73,4.11,2.9.24,5.93.32,8.73,1.19,6.26,2.08,8.53,5.1,15.71,2.77,3.45-1,6.82-2.87,10.47-2.95,2.37.06,4.67,1.13,6.98,1.57,5.76,1.13,8.57-1.21,13.09-4.18,4.01-2.35,7.16-7.07,12.22-7.02"/><path class="b" d="M8.27,76.72c3.79-.72,7.57.68,11.35.88,4.07.4,8.18-.22,12.22-.69,3.46-.33,7.01.04,10.48,0,2.66.08,5.43-.17,7.86-1.35,4.08-1.9,7.92-4.47,12.22-5.89,2.24-.77,4.66-1.27,6.98-1.68,1.69-.27,3.52-.76,5.24-.46,4.19.84,7.75,3.55,11.35,5.69,5.14,3.18,10.97,5.29,15.71,9.1,4.57,3.24,8.34,8.31,13.97,9.69,3.45.75,7.1.9,10.48,2,4.53,1.51,9.06,3.68,13.97,3.31,4.16-.1,8.1-1.89,12.22-2.19,4.08.08,8.12,1.38,12.22,1.05,1.78-.13,3.61-.82,5.24-1.51,1.12-.48,2.5-.97,3.49-1.69,3.6-2.65,6.34-6.61,10.48-8.53"/><path class="b" d="M8.27,72.6c2.57-.73,5.27-.3,7.86.07,3.46.47,6.99.97,10.48,1.29,4.92.5,9.92.61,14.84,0,1.7-.2,3.55-.28,5.24-.57,2.05-.38,4.14-1.1,6.11-1.76,3.86-1.28,7.69-2.84,11.35-4.6,3.1-1.36,6.19-3.3,9.6-3.72,5.5-.12,10.14,3.56,14.84,5.93,5.01,2.65,10.41,4.77,14.84,8.4,6.54,5.19,8.66,8.4,17.46,9.88,4.4.91,8.75,2.25,13.1,3.36,3.93,1.2,8.16,1.97,12.22.95,3.44-.85,6.87-2.18,10.48-2.09,4.4-.19,8.7,1.55,13.1,1.11,2.71.04,5.1-1.5,6.98-3.32,2.29-2.09,4.49-4.5,6.98-6.36"/><path class="b" d="M8.27,69.48c1.97-.54,4.1-.56,6.11-.32,2.3.17,4.7.37,6.98.68,4.66.48,9.26,2.14,13.97,2.06,2.33-.13,4.7-.67,6.98-1.11,2.29-.42,4.71-.7,6.98-1.21,2.88-.61,5.92-.84,8.73-1.75,4.54-1.38,8.23-4.57,12.22-7.01,3.45-2.19,7.78-1.46,11.35.05,3.55,1.47,6.96,3.41,10.48,4.95,5.05,2.03,9.87,4.7,13.97,8.31,2.71,2.24,5.44,4.73,8.73,6.08,5.31,2.03,11.01,3.1,16.59,4.11,2.93.39,5.79,1.55,8.73,1.85,4.61.65,8.83-1.75,13.09-3.06,3.06-1.04,6.47-1.5,9.6-.49,11.66,4.62,11.32,3.12,20.95-4.04"/><path class="b" d="M8.27,66.71c2.28-.52,4.68-.32,6.98-.21,2.3.06,4.69.08,6.98.3,4.12.24,8.12,1.68,12.22,2.01,4.43-.12,8.7-1.77,13.09-2.26,3.73-.8,7.72-.4,11.35-1.66,10.49-4.08,11.14-13.09,24.44-7.02,2.59,1.15,5.22,2.47,7.86,3.51,3.28,1.24,6.67,2.48,9.6,4.43,6.61,4.33,9.89,9.41,18.33,10.72,4.31.82,8.72,1.47,13.09,1.84,2.88.4,5.8,1.28,8.73,1.11,4.34-.16,8.11-2.71,12.22-3.81,3.34-1.26,7.16-1.84,10.48-.21,9.03,4.7,10.62,5.27,20.08.52"/><path class="b" d="M8.27,63.58c2.3-.35,4.68.02,6.98.11,3.47.05,7.01-.21,10.48.09,2.63.17,5.27.78,7.86,1.24,2,.24,4.13,0,6.11-.32,3.76-.67,7.58-1.36,11.35-1.97,2-.27,4.15-.4,6.11-.89,3.95-.92,7.32-3.41,10.48-5.84,5.85-5.03,10.26-3.66,16.59-.45,2.25,1.13,4.59,2.33,6.98,3.14,3.34.95,6.71,2.18,9.6,4.13,7.07,4.65,9.71,9.7,19.21,8.93,3.76-.14,7.59-.35,11.35-.27,2.88.16,5.83.72,8.73.49,4.52-.24,8.62-2.61,13.09-3.06,3.44-.8,7.18-1.13,10.48.41,8.03,3.97,10.81,5.33,20.08,3.43"/><path class="b" d="M8.27,60.31c2.63-.15,5.24.68,7.86.75,3.47.1,7-.32,10.48-.19,2.64.02,5.28.68,7.86,1.17,1.99.3,4.11.31,6.11.14,3.86-.29,7.64-1.33,11.35-2.37,2.92-.68,5.97-1.27,8.73-2.49,2.43-1.04,4.77-2.51,6.98-3.95,2.12-1.35,4.39-2.95,6.98-3.12,6.13-.24,10.9,4.61,16.59,6.12,4.5.77,8.66,2.87,12.22,5.69,2.5,1.83,4.94,4.08,7.86,5.23,3.42,1.17,7.12.25,10.48-.69,2.28-.61,4.68-1.19,6.98-1.74,4-.81,8.19-.43,12.22-1.01,2.88-.31,5.83-.83,8.73-1.01,1.09-.06,2.4.09,3.49.08,1.7-.04,3.54-.22,5.24-.15,4.35.07,8.26,2.32,12.22,3.85,4.18,1.5,8.66,2.31,13.09,2.57"/><path class="b" d="M8.27,56.73c2.67.06,5.22,1.21,7.86,1.47,3.75.42,7.59-.04,11.35.12,4.45.07,8.62,2.24,13.09,2.14,4.67.18,8.85-2.09,13.09-3.69,3.49-1.19,7.12-2.23,10.48-3.77,2.95-1.26,5.75-3.06,8.73-4.24,5.64-1.89,10.74,2.32,15.71,4.34,2.47,1.11,5.34,1.03,7.86,1.99,4.81,1.61,8.58,5.3,13.09,7.49,4.52,1.93,9.56.14,13.97-1.3,2.33-.68,4.66-1.69,6.98-2.36,5.13-1.14,10.45-2.22,15.71-1.51,2.63.25,5.24,1.12,7.86,1.4,2.89.19,5.91.19,8.73.93,3.57.88,6.96,2.55,10.48,3.6,3.39.95,6.98,1.34,10.48,1.63"/><path class="b" d="M8.27,53.16c3.01.26,5.75,1.87,8.73,2.3,3.73.66,7.59.42,11.35.74,4.76.31,9.11,3.19,13.97,2.81,4.54-.15,8.17-3.22,12.22-4.85,4.54-1.84,9.45-2.81,13.97-4.71,1.73-.68,3.48-1.69,5.24-2.28,4.91-1.5,9.58,1.47,13.97,3.29,1.9.87,4.05,1.18,6.11,1.31,2.06.24,4.19.8,6.11,1.58,3.55,1.36,6.78,3.7,10.48,4.67,4.92.7,10.01.22,14.84-.88,2.65-.69,5.24-1.87,7.86-2.67,4.64-1.75,9.25-2.28,13.97-.44,2.28.75,4.59,1.82,6.98,2.18,3.18.44,6.49.55,9.6,1.41,10.18,2.9,8.53,4.43,20.08,2.47"/><path class="b" d="M8.27,50.27c2.12.24,4.14,1.2,6.11,1.95,1.66.58,3.5,1,5.24,1.24,3.45.48,7.03.36,10.48.89,2.68.4,5.23,1.61,7.86,2.24,2.86.74,6.01.56,8.73-.62,2.68-1.15,5.13-2.98,7.86-4.04,3.34-1.35,6.98-1.92,10.48-2.67,1.73-.38,3.59-.88,5.24-1.54,1.4-.54,2.88-1.36,4.36-1.66,5.55-1.24,10.47,2.54,15.71,3.57,2.28.31,4.7,0,6.98.32,3.89.36,7.59,1.89,11.35,2.85,2.25.6,4.7.28,6.98.7,9.75,1.61,11.11,1.24,20.08-2.57,5.55-2.21,9.64-.5,14.84,1.54,2.48.93,5.25,1.08,7.86,1.38,2.64.29,5.34.9,7.86,1.73,2.03.63,4.09,1.57,6.11,2.24,3.98.89,7.73-1.56,11.35-2.84"/><path class="b" d="M8.27,48.58c3.02.42,5.74,2.09,8.73,2.62,3.42.72,7,.56,10.48.57,4.77-.24,9.22,2.12,13.97,2.05,4.11.03,7.74-2.14,11.35-3.83,2.75-1.2,5.77-1.89,8.73-2.34,2.3-.36,4.71-.64,6.98-1.17,1.75-.36,3.52-1.14,5.24-1.58,5.76-1.22,10.97,2.62,16.59,3.08,2.6.08,5.26-.57,7.86-.6,4.11-.24,8.16.91,12.22,1.29,4.5-.29,8.73,1.58,13.09,2.33,4.96,1.18,9.35-2.01,13.97-3.17,2.25-.56,4.71-.61,6.98-.16,3.18.64,6.33,1.85,9.6,1.95,2.89.15,5.88.25,8.73.85,2.96.57,5.9,1.62,8.73,2.64,4.22,1.41,8.34-1.37,12.22-2.71"/><path class="b" d="M8.27,47.58c2.97.43,5.76,1.84,8.73,2.27,4.93.91,9.9-.37,14.84-.36,2.6.11,5.26.55,7.86.59,2.93.06,5.95-.37,8.73-1.31,3.17-1.09,6.32-2.48,9.6-3.23,3.41-.84,6.99-1.07,10.48-1.41,2.59-.25,5.25-1.1,7.86-.54,4.62.9,9.16,2.96,13.97,2.43,2.93-.32,5.81-1.4,8.73-1.82,3.46-.6,7.02-.15,10.48.22,2,.15,4.15-.01,6.11.51,4.29.91,8.64,2.9,13.09,2.01,3.19-.74,6.26-2.32,9.6-2.37,3.5-.25,7.01.59,10.48.91,1.7.16,3.54-.01,5.24-.11,3.78-.24,7.63.06,11.35.73,2.6.43,5.23,1.28,7.86,1.48,3.52.13,7.01-.89,10.48-1.34"/><path class="b" d="M8.27,46.45c3.52.48,6.93,1.84,10.48,2.16,5,.62,9.91-.92,14.84-1.41,5.22-.48,10.56-.46,15.71-1.5,4.39-.93,8.6-2.87,13.09-3.36,2.28-.29,4.69-.24,6.98-.16,1.7.08,3.56-.04,5.24.36,5.48,1.49,8.95,3.35,14.84,1.75,4.9-1.21,9.66-3.69,14.84-3.29,2.01.09,4.11.48,6.11.68,1.4.1,2.97.07,4.36.28,3.47.48,6.96,1.33,10.48,1.42,3.9.17,7.47-2.03,11.35-1.97,3.76-.06,7.59.66,11.35.27,2.92-.3,5.76-1.57,8.73-1.55,4.36-.09,8.75.61,13.1.91,4.67.04,9.38.3,13.97,1.2"/><path class="b" d="M8.27,44.66c4.13.38,8.12,1.83,12.22,2.37,6.27.94,12.23-1.8,18.33-2.7,4.31-.79,8.79-.39,13.09-1.19,2.63-.57,5.23-1.6,7.86-2.18,2.54-.59,5.27-.7,7.86-.35,2.31.36,4.77.63,6.98,1.4,2.8,1,5.69,2.38,8.73,2.21,3.08-.21,5.9-1.77,8.73-2.85,3.6-1.42,7.4-2.91,11.35-2.51,2.63.19,5.24,1.06,7.86,1.34,5.21.26,10.53,1.03,15.71.12,2.63-.41,5.19-1.6,7.86-1.72,2.59-.13,5.27.16,7.86-.04,2.37-.16,4.81-.78,6.98-1.74,1.66-.74,3.41-1.71,5.24-1.94,3.76-.5,7.59.37,11.35.45,2,.15,4.13.08,6.11-.2,4-.26,7.75,1.63,11.35,3.14"/><path class="b" d="M8.27,41.94c4.22.21,8.2,1.74,12.22,2.89,6.46,1.78,10.59-.2,16.59-1.96,2.25-.6,4.66-1.01,6.98-1.13,2.59-.13,5.29.05,7.86-.34,2.63-.46,5.23-1.45,7.86-1.97,4.67-1.05,9.47.15,13.97,1.45,10.45,4.42,10.87,1.15,20.08-2.57,3.28-1.39,6.96-2.07,10.48-1.26,2.32.47,4.64,1.38,6.98,1.75,6.4.72,13,.85,19.2-1.12,4.22-1.42,8.87-.8,13.1-2.24,2.11-.67,4.21-1.75,6.11-2.89,1.6-.97,3.34-2.11,5.24-2.36,2.29-.35,4.71.09,6.98.42,1.99.27,4.11.45,6.11.56,1.71.13,3.54-.3,5.24-.37,3.75.04,7.16,2.01,10.48,3.53"/><path class="b" d="M8.27,38.14c2.02.2,4.18.45,6.11,1.13,4.54,1.71,8.93,4.64,13.97,4.41,3.93-.21,7.52-2.27,11.35-3.01,3.69-.96,7.58-.74,11.35-1.02,9.1-1.55,10.43-3.16,20.08-.37,4.26.96,8.79,3.05,13.09,1.14,2.97-1.23,5.66-3.26,8.73-4.26,3.31-1.26,6.93-2.07,10.48-1.55,2.33.3,4.68,1.03,6.98,1.48,1.39.25,2.97.36,4.36.57,4.61.75,9.4,1.12,13.97-.1,4.65-1.36,9.5-2.33,13.97-4.26,2.06-.9,4.16-2.05,6.11-3.18,1.63-.91,3.36-2.09,5.24-2.42,2.3-.39,4.72.14,6.98.54,1.98.38,4.11.52,6.11.69,2.3.28,4.69-.22,6.98-.23,3.3.06,6.52,1.2,9.6,2.29"/><path class="b" d="M8.27,34.16c8.25.25,11.77,5.95,19.21,7.29,2.38.41,4.78-.3,6.98-1.12,2.55-.87,5.2-1.72,7.86-2.2,3.14-.6,6.44-.42,9.6-.84,3.74-.62,7.52-1.79,11.35-1.36,4.42.49,8.64,2.37,13.09,2.71,5.01.64,8.87-2.12,13.09-4.25,2.99-1.34,6.38-1.81,9.6-2.24,4.94-.5,9.94.27,14.84.87,3.45.64,6.93,1.72,10.48,1.52,8.25-.5,15.18-5.64,22.7-8.51,3.04-1.22,6.28-2.57,9.6-1.77,1.99.34,4.09.84,6.11.97,2.29.05,4.7-.01,6.98-.12,4.66-.51,9.43-.73,13.97.73"/><path class="b" d="M8.27,30.81c8.28.5,11.78,6.11,19.21,7.66,2.36.47,4.77-.16,6.98-.94,2.27-.73,4.65-1.46,6.98-1.94,3.13-.69,6.43-.62,9.6-.95,2.91-.34,5.8-1.31,8.73-1.56,7.53-.77,13.21,4.13,20.95,1.29,3.03-.99,5.73-2.93,8.73-3.98,3.06-1,6.43-.74,9.6-1.09,4.34-.27,8.74-.86,13.09-.6,2.95.26,5.82,1.39,8.73,1.85,4.17.72,8.48-.46,12.22-2.3,2.9-1.52,5.67-3.48,8.73-4.68,3.57-1.42,7.57-1.48,11.35-1.31,2.9.43,5.76,1.61,8.73,1.55,3.5-.21,6.96-1.31,10.48-1.45,3.75-.51,7.67-.91,11.35.25"/><path class="b" d="M8.27,28.22c2.34.39,4.8.85,6.98,1.82,4.21,1.86,8.36,4.51,13.09,4.64,2.38.12,4.73-.71,6.98-1.33,3.11-.87,6.37-1.58,9.6-1.74,2.59-.13,5.3-.05,7.86-.55,3.44-.74,6.91-1.92,10.48-1.76,2.64.08,5.29.82,7.86,1.37,4.48,1.09,9.07-.39,13.09-2.32,2.95-1.5,6.25-2.62,9.6-2.16,3.17.22,6.44.26,9.6-.19,2.88-.36,5.81-1.11,8.73-1.03,4.66.36,9.25,2.65,13.97,1.42,2.73-.6,5.47-1.69,7.86-3.15,3.94-2.59,8.19-5.22,13.09-3.79,2.28.67,4.71,1.23,6.98,1.93,2.49.88,5.19,1.79,7.86,1.37,2.96-.55,5.73-2.13,8.73-2.59,4.34-.44,8.86-1.67,13.09,0"/><path class="b" d="M8.27,25.76c11.6,1.85,14.34,7.01,27.06,3.06,2.84-.66,5.81-1.08,8.73-1.07,2.59,0,5.28.29,7.86-.02,2.65-.37,5.24-1.39,7.86-1.92,2.56-.55,5.29-.55,7.86-.07,5.46,1.24,8.49,1.8,13.97-.1,2.58-.85,5.14-2.12,7.86-2.5,3.47-.45,6.99.67,10.48.59,3.82.09,7.57-1.02,11.35-1.36,3.22-.2,6.41.92,9.6,1.1,3.94.29,7.81-1.13,11.35-2.73,2.32-1.15,4.54-2.78,6.98-3.68,3.5-1.45,7.26-.12,10.48,1.43,1.97.78,4.13,1.41,6.11,2.18,2.5.91,5.38,1.05,7.86-.03,3.06-1.41,6.2-2.91,9.6-3.16,3.44-.76,7.14-1.1,10.47.26"/><path class="b" d="M8.27,22.27c3.83.72,7.59,1.94,11.35,2.92,3.12.76,6.45.87,9.6.26,4.01-.89,8.07-2.09,12.22-1.75,2.91.13,5.82.95,8.73,1.16,3.02.28,5.94-.94,8.73-1.91,3.32-1.22,6.96-1.83,10.48-1.22,4.29.89,8.73,1.69,13.09.8,2.3-.42,4.65-1.14,6.98-1.42,1.99-.27,4.11-.12,6.11-.02,5.25.45,10.5-.31,15.71-.79,4.06-.2,8.18,1.04,12.22.16,3.31-.7,6.48-2.14,9.6-3.42,3.22-1.53,6.89-2.96,10.48-1.85,2.42.66,4.66,2.09,6.98,2.99,3.65,1,7.6,2.42,11.35,1.09,2.69-.97,5.14-2.73,7.86-3.65,4.52-1.21,9.5-1.96,13.97-.16"/><path class="b" d="M8.27,17.9c2.28.69,4.71,1.25,6.98,1.95,3.91,1.29,8.12,2.11,12.22,1.3,2.62-.44,5.22-1.4,7.86-1.75,4.81-.81,9.43,1.02,13.97,2.31,6.97,1.92,12.44-4.74,20.08-3.87,4.71.51,9.15,2.94,13.97,2.74,4.38-.28,8.73-1.31,13.09-1.75,6.35-.77,12.82-1.24,19.21-.84,3.87.4,7.81-.27,11.35-1.9,9.9-4.37,12.33-4.6,21.82.77,1.57.84,3.49,1.01,5.24,1.15,2.97.32,6.08-.21,8.73-1.61,2.28-1.22,4.55-2.72,6.98-3.63,4.5-1.56,9.51-1.32,13.97.28"/></svg>