<?xml version="1.0" encoding="UTF-8"?><svg id="a" xmlns="http://www.w3.org/2000/svg" width="1920" height="2400" viewBox="0 0 192 240"><defs><style>.b{fill:none;stroke:#fff;stroke-miterlimit:10;stroke-width:.3px;}.c{stroke-width:0px;}</style></defs><rect class="c" x="0" width="192" height="240"/><path class="b" d="M13.03,227.01c4.14.27,8.26-.91,12.38-1.09,4.93-.32,9.97-.38,14.86.45,3.07.57,6.1,1.64,9.08,2.54,3.68,1.28,7.67,2.31,11.56,1.4,2.81-.57,5.49-1.87,8.26-2.61,2.66-.75,5.51-.77,8.26-.75,1.79.25,3.33-.94,4.95-1.48,2.74-.83,5.48-1.93,8.26-2.64,1.86-.45,3.87-.8,5.78-.95,1.34-.19,2.95.3,4.13-.52,2.6-1.33,5.64-.82,8.26.17,2.76.91,5.48,2.2,8.26,3.08,5.22,1.18,10.45,2.45,15.69,3.52,3.82,1.04,7.59,2.62,11.56,2.99,3.3.35,6.65-.19,9.91-.68,2.17-.25,4.47-.95,6.6-.18,2.92.79,6.35,2.07,9.08.12,3.38-2.65,4.14-5.96,9.08-6.66"/><path class="b" d="M13.03,225.58c3.04-.16,6.06-.98,9.08-1.28,4.92-.48,9.94-.69,14.86-.11,4.31.49,8.33,2.33,12.38,3.76,3.93,1.6,8.39,2.01,12.38.37,8.17-3.5,8.82-4.65,18.16-3.88,2.94-1.41,5.93-2.98,9.08-3.91,2.65-.74,5.51-.91,8.26-.79,3.53-2.7,6.8-2.44,10.73-.87,2.78,1,5.55,2.24,8.26,3.4,1.03.26,2.27.47,3.3.73,5.22,1.24,10.54,2.16,15.69,3.7,7.22,2.38,12.27,2.89,19.81,2.04,1.33-.07,2.8-.38,4.13-.37,3.43.79,7.46,2.42,10.73.37,3.35-2.38,4.43-6.33,9.08-6.91"/><path class="b" d="M13.03,223.87c2.74-.45,5.49-1.19,8.26-1.49,4.91-.48,9.95-.72,14.86-.15,9.97,1.37,15.88,9.48,26.42,3.61,4.12-2.23,8.31-5.13,13.21-4.85,1.89-.02,3.89.48,5.78.29,4.09-2.79,8.16-4.59,13.21-4.01,1.2-.01,2.24-1.13,3.3-1.59,1.23-.62,2.76-.92,4.13-.77,3.15.46,6.16,1.83,9.08,3.04,1.63.67,3.27,1.7,4.95,2.2,2.48.38,4.97,1.12,7.43,1.59,2.47.4,5.03.81,7.43,1.54,6,1.54,11.9,3.94,18.16,4.12,3.28.12,6.65.14,9.91-.36,2.71.28,5.5,1.15,8.26.78,5.11-.73,6.29-7.27,11.56-7.79"/><path class="b" d="M13.03,221.94c6.16-1.77,12.61-2.15,18.99-2.02,10.72-.34,15.8,8.04,24.77,6.23,5.27-1.15,9.2-5.24,14.03-7.36,3.62-1.7,7.71-1.18,11.56-.85,4.43-2.86,6.04-4,11.56-3.47,2.01-1.11,4.22-2.42,6.6-2.22,4.34.59,8.51,2.48,12.38,4.47.98.58,2.15,1.15,3.3,1.19,1.34.21,2.81.57,4.13.89,2.41.66,4.97.95,7.43,1.35,3.05.66,6.12,1.55,9.08,2.55,6.9,2.56,13.23,4.02,20.64,3.27,3.54-.72,7.21.62,10.73-.29,4.37-1.25,5.97-6.93,10.73-7.42"/><path class="b" d="M13.03,219.82c6.9-2.13,14.3-2.2,21.46-1.89,10.69.76,15.65,11.49,27.24,4.39,6.63-4.23,10.35-8.87,18.99-8.2,1.04-.02,2.3.14,3.3-.21,1.18-.97,2.65-1.87,4.13-2.27.72-.19,1.73-.32,2.48-.31.75,0,1.74.2,2.48-.02,1.54-.68,3.26-1.37,4.95-1.55,1.94-.16,3.95.44,5.78,1.01,3.2.93,6.26,2.42,9.08,4.18.67.41,1.72.43,2.48.53,1.34.2,2.82.55,4.13.88,3.29,1,6.6,1.18,9.91,1.87,5.15,1.07,9.9,3.51,14.86,5.18,6.69,2.26,13.78.63,20.64.7,7.45.13,7.88-6.5,14.03-7.61"/><path class="b" d="M13.03,217.58c6.36-2.06,13.2-1.89,19.81-1.9,11.86-.58,17.04,12.21,28.89,5.15,4.77-2.91,8.55-7.63,14.03-9.3,1.85-.52,3.87-.83,5.78-1.02,1.34-.24,3.06.13,4.13-.87,1.2-.75,2.71-1.24,4.13-1.29.74-.03,1.74.11,2.48-.01,1.57-.49,3.31-.91,4.95-.94,1.94-.03,3.93.51,5.78,1.04,2.97.77,5.74,2.27,8.26,4,.67.41,1.72.4,2.48.49,1.04.13,2.28.37,3.3.62,3.79,1,7.63,2.02,11.56,2.32,11.15,1.96,13.31,7.91,26.42,7.05,2.46-.03,4.99-.28,7.43-.53,3.78-.05,7.19-.59,9.91-3.51.62-.7,1.75-1.41,2.48-1.98,1.17-.91,2.58-2.02,4.13-2.11"/><path class="b" d="M13.03,215.24c3.43-1.18,7.13-1.42,10.73-1.58,3.83-.13,7.72-.16,11.56-.06,10.14,0,16.85,12.23,27.24,5.54,4.64-2.99,8.06-7.81,13.21-10.03,3.14-1.34,6.53-2.04,9.91-2.41,1.7-1.02,3.83-1.3,5.78-1.07,1.31-.23,2.79-.43,4.13-.44,3.07.04,6.21.77,9.08,1.84,1.76.72,3.43,1.92,4.95,3.03,6.22.34,11.98,3.22,18.16,3.73,7.33-.11,12.17,5.42,18.99,6.79,3.78.78,7.73.55,11.56.39,3.29-.3,6.75-.35,9.91-1.37,2.05-.89,3.96-2.37,5.78-3.65,1.48-1.13,2.97-2.82,4.95-2.9"/><path class="b" d="M13.03,212.85c6.94-2.1,14.33-1.02,21.46-1.37,12.37-1.22,18.9,12.39,28.89,6.2,4.01-2.65,6.87-6.77,10.73-9.6,3.42-2.26,7.44-3.92,11.56-4.14,1.56-.53,3.3-.86,4.95-.75,1.32.12,2.8-.05,4.13.04,3.05.23,6.24.63,9.08,1.8,1.46.55,2.65,1.97,4.13,2.41,6.51.7,12.54,3.65,18.99,4.63,1.6.25,3.35-.07,4.95.17,5.14.81,9,4.97,14.03,6.15,4.01,1.1,8.27.94,12.38.78,3.3-.25,6.77-.33,9.91-1.49,2.01-.85,4.11-1.86,5.78-3.3,1.47-1.16,2.93-2.95,4.95-2.99"/><path class="b" d="M13.03,210.39c5.08-1.43,10.48-.94,15.69-.76,1.35.15,2.8-.14,4.13-.35,1.61-.22,3.35-.18,4.95.08,1.62.26,3.34.66,4.95.97,1.73.2,3.46.79,4.95,1.69,4.95,2.57,10.82,7.83,16.51,4.24,3.59-2.32,6.06-6.06,9.08-9.01,2.7-2.61,6.23-4.53,9.91-5.28,1.61-.23,3.34-.45,4.95-.66,1.89-.12,3.89.04,5.78.13,2.75.24,5.62.45,8.26,1.32,1.46.4,2.64,1.82,4.13,2.06,6.76,1.29,13.01,4.62,19.81,5.7,2.17.22,4.44.07,6.6-.05,2.73.05,5.15,1.68,7.43,3.02,2.04,1.23,4.3,2.33,6.6,2.95,4,1.1,8.27,1.04,12.38.84,3.33-.19,6.76-.49,9.91-1.68,1.77-.63,3.52-1.68,4.95-2.89,1.45-1.19,2.93-2.95,4.95-3.01"/><path class="b" d="M13.03,208.02c4.3-1.04,8.84-.7,13.21-.35.49.1,1.21.01,1.65-.16,1.03-.26,2.25-.49,3.3-.61,2.18-.28,4.47-.09,6.6.37,2.17.45,4.42.97,6.6,1.3,1.04.16,2.26.32,3.3.43.78.3,1.76.85,2.48,1.28,3.19,1.87,6.26,4.34,9.91,5.25,1.7.26,3.48-.37,4.95-1.17,3.21-1.57,5.2-4.77,7.43-7.43,6.06-7.8,12.56-7.15,21.46-6.98,3.34.26,7.05.19,9.91,2.2,4.58,1.18,8.83,3.37,13.21,5.09,1.53.76,3.33.3,4.95.4,2.45.08,4.98.4,7.43.38,3.13-.27,6.25.78,9.08,2.02,2.92,1.6,5.84,3.45,9.08,4.34,3.99,1.16,8.26,1.18,12.38.98,3.35-.17,6.79-.56,9.91-1.86,1.79-.73,3.51-1.93,4.95-3.2,1.13-1.02,2.53-2.2,4.13-2.27"/><path class="b" d="M13.03,205.92c3.5-.76,7.19-.61,10.73-.26,4.78-1.62,9.17-1.61,14.03-.35,2.7.62,5.5,1.17,8.26,1.5,1.32.21,2.84.14,4.13.52.43.24,1.24.75,1.65,1.01,1.33.87,2.78,1.89,4.13,2.75,2.89,2.92,5.79,3.13,9.08.69,4.17-3.09,7.66-7.2,11.56-10.58,2.55-2.06,5.9-2.55,9.08-2.58,3,.39,6.07.36,9.08.05,2.76-.04,5.83-.07,8.26,1.44,3.83,1.27,7.28,3.38,10.73,5.42.73.3,1.74.06,2.48-.06,1.31-.23,2.8-.43,4.13-.47,3.57-.03,7.17.55,10.73.69,4.35.76,8.3,3.01,12.38,4.58,3.39,1.55,6.99,2.77,10.73,3.07,2.44.25,4.99.12,7.43-.02,3.71-.09,7.5-.94,10.73-2.82,2.24-1.26,3.92-3.81,6.6-4.15"/><path class="b" d="M13.03,203.89c1.05.17,2.25-.18,3.3-.21,1.33-.09,2.8-.09,4.13-.02.83-.02,1.72-.61,2.48-.88,1.28-.47,2.77-.72,4.13-.76,5.88-.07,11.54,1.99,17.34,2.72,1.32.21,2.79.41,4.13.5,1.05.11,2.33-.08,3.3.39,1.35.9,2.79,1.98,4.13,2.9,2.39,2.61,5.05,4.04,8.26,1.75,4.2-2.97,7.11-7.59,11.56-10.26,2.08-1.7,4.74-2.57,7.43-2.39.74,0,1.74,0,2.48-.02,1.03.2,2.26.41,3.3.46,1.91.1,3.9-.28,5.78-.57,2.15-.25,4.51-.35,6.6.26,2.54,1.23,5.19,2.57,7.43,4.32,2.21,1.97,2.96,1.84,5.78,1.31,2.67-.68,5.51-1.02,8.26-.65,1.61.19,3.34.55,4.95.75,1.03.11,2.28.1,3.3.31,4.02.85,7.75,2.8,11.56,4.25,4.98,2.02,10.25,3.66,15.69,3.39,2.45-.06,5,.02,7.43-.34,2.22-.55,4.6-1.07,6.6-2.22,2.24-1.26,3.99-3.64,6.6-4.16"/><path class="b" d="M13.03,202.32c.75.19,1.73-.05,2.48-.13.76-.08,1.79-.09,2.48-.47,1.18-.88,2.64-1.7,4.13-1.84,1.92-.16,3.91.37,5.78.7,1.89.33,3.89.66,5.78,1.01,2.99.52,6.08.87,9.08,1.31,3.26.53,6.6.9,9.91.81,2.19,1.64,4.48,3.34,6.6,5.06,3.95,2.42,7.38-2.26,9.91-4.76,2.79-2.93,5.85-6.3,9.91-7.31,1.89-.31,3.89.17,5.78.2,1.63-.17,3.32.34,4.95.27,2.21-.07,4.4-.87,6.6-1.01,8.02-1.27,7.32,3.41,13.21,5.36,4.82,1.04,1.81-4.58,14.03-.53,1.32.26,2.79.59,4.13.78,1.91.17,3.94.25,5.78.87,5.56,1.73,10.86,4.39,16.51,5.83,3.21.82,6.61.89,9.91.94,1.61.02,3.35.1,4.95-.05,1.91-.32,3.94-.74,5.78-1.34,3.07-1.01,5.14-3.98,8.26-4.88"/><path class="b" d="M13.03,201.15c7-6.5,7.46-1.75,14.86-.56,4.09.52,8.28.35,12.38.66,2.47.18,4.97.74,7.43.99,1.89.14,3.89.06,5.78,0,2.63,1.62,5.21,4.29,8.26,5.2,3.17.28,5.41-2.72,7.43-4.73,1.53-1.75,3.38-3.44,4.95-5.15,3.62-3.7,7.3-1.15,11.56-1.26,2.75-.06,5.56-.28,8.26-.85,3.25-.58,7.07-1.85,9.91.54,1.72,1.43,3.5,3.21,5.78,3.64,2.99-2.72,4.3-3.19,8.26-1.99,2.97.91,6.06,1.64,9.08,2.35,2.43.53,5.03.28,7.43,1,5.31,1.43,10.35,3.87,15.69,5.22,2.95.72,6.06.9,9.08,1.07,1.89.1,3.89.28,5.78.14,1.9-.31,3.94-.57,5.78-1.12,3.05-.95,5.25-3.67,8.26-4.73"/><path class="b" d="M13.03,196.14c4.24-2.09,7,3.42,10.73,4.44,2.67.93,5.55.1,8.26-.21,3.25-.55,6.62-1.01,9.91-.59,1.91.21,3.88.79,5.78,1.07,2.16.29,4.44.34,6.6.17,1.95,1.12,3.65,2.9,5.78,3.77,5.75,2.9,9.26-4.02,12.38-7.65,2.2-2.8,5-3.22,8.26-2.13,4.02,1.31,8.37.58,12.38-.36,2.94-.6,6.07-2.07,9.08-1.14,2.4.73,4.04,3.75,6.6,3.8,2.59-3.5,5.64-2.17,9.08-.98,2.39.81,4.96,1.26,7.43,1.72,1.61.31,3.31.85,4.95,1.02,1.61.17,3.36.06,4.95.41,3.08.6,6.11,1.7,9.08,2.7,4.22,1.62,8.71,2.52,13.21,2.85,2.17.19,4.43.47,6.6.48,1.33,0,2.8-.32,4.13-.42,1.36-.17,2.88-.52,4.13-1.1,2.24-1.15,4.26-2.92,6.6-3.9"/><path class="b" d="M13.03,194.05c5.76,4.56,7.1,9.89,15.69,6.2,2.14-.75,4.4-1.49,6.6-2.06,1.04-.07,2.26.15,3.3.08,1.34,0,2.79-.42,4.13-.43,4.07.86,8.17,2.18,12.38,1.93,9.19,7.48,11.07,1.86,17.34-4.79,2.03-2.11,4.91-1.79,7.43-.86,5.75,2.18,11.75-.27,17.34-1.81,4.97-1.44,6.15.36,9.91,2.98.9-.27,1.65-1.3,2.48-1.71,2.46-1.05,5.06.54,7.43,1.18,3.47,1.12,7.19,1.46,10.73,2.29,1.59.39,3.32.81,4.95.95,1.9.05,3.92.13,5.78.56,4.72.95,9.25,2.88,14.03,3.56,6.52.83,13.41,2.4,19.81.22,2.25-1.03,4.33-2.62,6.6-3.62"/><path class="b" d="M13.03,196.66c8.54,10.25,12.69,2.2,22.29-.33,1.59.3,3.34.37,4.95.2,1.34-.1,2.79-.54,4.13-.62,3.51.96,7.08,2.15,10.73,2.37,2.96,1.47,5.47,4.15,9.08,2.42,5.21-2.57,7.04-10.6,14.03-7.86,3.57,1.36,7.04,1.49,10.73.5,4.21-.87,8.9-3.93,13.21-2.61,1.51.56,2.68,2.04,4.13,2.71,2.82-3.8,7.15-.86,10.73-.09,4.07,1.02,8.31,1.5,12.38,2.49,1.59.4,3.32.81,4.95.96,1.9.06,3.91.13,5.78.5,4.94.96,9.85,2.29,14.86,2.84,5.69.82,11.67,2.14,17.34.5,1.09-.37,2.28-1.07,3.3-1.58,1.07-.39,2.3-.98,3.3-1.53"/><path class="b" d="M13.03,199.77c5.27,3.51,10.16.99,14.86-2.06,2.33-1.33,4.9-2.43,7.43-3.32,2.15.35,4.43.56,6.6.29,1.34-.14,2.81-.43,4.13-.68,3.01.78,6,1.94,9.08,2.43.86.2,1.73,1.02,2.48,1.45,1.94,1.27,4.52,1.82,6.6.57,4.64-2.57,6.93-9.1,13.21-6.77,3.18,1.08,6.64,1.43,9.91.49,5.91-1.5,12.21-6.22,17.34-.43,1.27-1.33,3.08-2.27,4.95-1.82,2.48.52,4.94,1.47,7.43,1.97,4.93,1.04,10,1.61,14.86,2.96,2.7.9,5.5.23,8.26.73,2.46.34,4.97.97,7.43,1.32,3,.43,6.1.63,9.08,1.16,4.88.84,9.91,1.89,14.86,1.04.76-.15,1.77-.48,2.48-.79,1.65-.46,3.44-.96,4.95-1.79"/><path class="b" d="M13.03,200.15c5.56,1.05,10.3-1.65,14.86-4.44,1.54-.86,3.32-1.53,4.95-2.19,1.3-.38,2.74-1.36,4.13-1.08,2.98.56,6.09.44,9.08.01.42-.07,1.24-.22,1.65-.29.74.16,1.75.41,2.48.62,1.61.46,3.33,1,4.95,1.39,3.48,2.14,5.85,4.47,9.91,1.62,3.13-2.07,5.72-6.13,9.91-5.73,1.63.16,3.33.66,4.95.87,2.18.3,4.5.02,6.6-.61,6.03-1.99,10.9-5.41,16.51-.23,2.78-3.23,6.47-1.57,9.91-.64,3.23.87,6.61,1.37,9.91,1.91,2.17.38,4.46.71,6.6,1.2,1.31.42,2.76.97,4.13,1.13,1.61.07,3.34-.23,4.95-.08,2.75.14,5.54.66,8.26,1.07,1.87.39,3.89.33,5.78.46,1.91.12,3.91.44,5.78.8,3.52.68,7.12,1.45,10.73,1.39,1.34.02,2.82-.2,4.13-.45,1.94-.24,3.98-.65,5.78-1.44"/><path class="b" d="M13.03,198.53c5.02-.19,9.66-2.31,14.03-4.6,2.34-1.17,4.97-1.85,7.43-2.71,1.02-.32,2.24-.72,3.3-.89,1.59.29,3.33.48,4.95.49,1.9,0,3.91-.11,5.78-.46,1.34.25,2.81.62,4.13.94,1.06.31,2.43.34,3.3,1.09,2.83,2.1,5.8,3.84,9.08,1.47,3.27-2.22,6.4-5.68,10.73-5.06,2.16.2,4.44.47,6.6.09,6.87-1.29,11.61-5.85,18.16-.26,3.48-3.63,6.56-1.93,10.73-.89,3.78.96,7.71,1.41,11.56,2.03,1.61.26,3.36.51,4.95.9,1.61.49,3.26,1.33,4.95,1.49,1.33.08,2.8-.29,4.13-.33,2.17-.15,4.45-.05,6.6.23,1.89.22,3.89.49,5.78.75,2.46-.03,5.01-.1,7.43.38,3.29.58,6.59,1.47,9.91,1.89,4.1.43,8.41.38,12.38-.8"/><path class="b" d="M13.03,195.7c5.11-.88,9.99-2.73,14.86-4.42,3.81-.99,7.67-2.1,11.56-2.77,1.61.04,3.34.35,4.95.31,1.61.08,3.36-.32,4.95-.04,1.61.26,3.34.64,4.95.92.83.21,1.75.93,2.48,1.35,3.72,2.25,6.24,2.69,9.91.02,6.93-5.17,8.43-2.99,15.69-4.67,1.57-.55,3.32-.79,4.95-1.06,1.6-.35,3.29-1.02,4.95-.91.87.09,1.86.72,2.48,1.33,1.05.52,2.27,1.24,3.3,1.78,2.53-4.95,6.61-2.44,10.73-1.51,4.05.99,8.27,1.29,12.38,1.9,1.91.28,3.9.74,5.78,1.17,1.3.54,2.74,1.21,4.13,1.49,1.91.39,3.89-.4,5.78-.6,3.83-.67,7.74-.07,11.56.41,1.03.22,2.27.05,3.3-.03,1.61-.1,3.36.04,4.95.32,7.29,1.54,14.8,3.85,22.29,2.22"/><path class="b" d="M13.03,191.8c6.26-1.43,12.65-2.42,18.99-3.43,5.7-1.08,11.54-2.07,17.34-1.13,1.61.24,3.38.39,4.95.79,1.01.58,2.23,1.24,3.3,1.69,4.3,2.05,6.88.97,10.73-1.29,2.77-1.63,5.94-2.52,9.08-3.11,2.15-.52,4.39-1.07,6.6-1.22,5.47-.82,7.15-3.11,10.73,2.72.85-.92,1.58-2.48,2.48-3.36,1.15-1.07,2.79-.78,4.13-.27,1.32.43,2.78.93,4.13,1.29,4.57,1.2,9.37,1.09,14.03,1.66,2.16.5,4.52.74,6.6,1.49,3.65,1.78,5.2,2.07,9.08.75,1.86-.5,3.85-1.01,5.78-1.06,2.46,0,4.99.43,7.43.74,1.04.26,2.26-.22,3.3-.27,1.32-.12,2.82-.05,4.13.15,3.61.6,7.15,1.82,10.73,2.56,4.04.85,8.27,1.31,12.38.82"/><path class="b" d="M13.03,187.11c3.51-.71,7.17-.42,10.73-.37,3.01.04,6.08-.13,9.08-.34,6.83-.65,13.87-1.47,20.64,0,1.57.71,3.29,1.43,4.95,1.86,3.42,1.12,6.8-.02,9.91-1.48,4.73-2.03,9.81-3.27,14.86-4.23,2.14-.31,4.51-1.67,6.6-.61.82.48,1.51,1.68,2.48,1.91.81-.6,1.92-1.4,2.48-2.26,1.27-1.19,2.85-.41,4.13.34.99.56,2.21,1.12,3.3,1.44,2.11.65,4.41.9,6.6.97,4.11.16,8.36-.34,12.38.69,1.34.31,2.92.47,4.13,1.18,1.76.87,3.76,1.81,5.78,1.55,3.59-.82,6.94-3.08,10.73-2.92,2.19.12,4.44.54,6.6.89,2.41-.55,4.97-.96,7.43-.44,3.62.67,7.15,1.98,10.73,2.83,4.02,1,8.23,1.61,12.38,1.45"/><path class="b" d="M13.03,183.9c1.89-.33,3.86-.98,5.78-1.06,4.36.78,8.77,1.65,13.21,1.68,6.32.13,12.68-.55,18.99.04,2.19.5,4.38,1.38,6.6,1.75,3.92.9,7.87-.27,11.56-1.54,1.86-.64,3.91-1.07,5.78-1.69,2.1-.83,4.42-1.31,6.6-1.84,2.6-.62,5.07-1.82,7.43.15,6.49-4.15,5.25-1.3,10.73,1.27,2.61.96,5.52.92,8.26.83,5.78-.25,12.17-1.69,17.34,1.65,1.99,1.07,4.49,1.66,6.6.6,3.64-1.64,7.36-4.25,11.56-3.34,1.33.21,2.81.5,4.13.77,1.07-.02,2.24-.59,3.3-.72,1.31-.21,2.81-.18,4.13.02,3.65.59,7.18,1.99,10.73,2.97,4.28,1.26,8.74,2.12,13.21,2.2"/><path class="b" d="M13.03,182.71c2.18-.22,4.45-.56,6.6-.99,1.61-.24,3.32-.87,4.95-.76,2.93.92,6.02,1.53,9.08,1.76,4.65.49,9.38.12,14.03.4,3.85.39,7.68,1.4,11.56,1.45,3.06.05,6.12-.67,9.08-1.37,1.91-.45,3.97-.79,5.78-1.58,1.85-.67,3.87-1.19,5.78-1.67,1.84-.45,3.93-1.14,5.78-.4,1.51-.84,3.22-1.63,4.95-1.87,1.28-.36,2.43.64,3.3,1.43.97.89,2.14,1.93,3.3,2.56,2.24,1.22,4.95,1.14,7.43,1.08,3.02-.11,6.09-.53,9.08-.9,2.97-.23,6.44-.97,9.08.79,8.49,5.94,10.43-2.11,18.16-2.98,2.23-.18,4.42.81,6.6.96,2.33-.94,4.96-1.2,7.43-.75,3.66.65,7.19,2.04,10.73,3.11,4.28,1.34,8.72,2.39,13.21,2.68"/><path class="b" d="M13.03,181.2c3.31.2,6.67-.24,9.91-.88,1.61-.3,3.33-.7,4.95-.9.43.14,1.22.41,1.65.53,3.2.91,6.6,1.28,9.91,1.53,3.53.55,7.15.83,10.73.85,3.83.13,7.74.41,11.56-.05,3.02-.34,6.07-1,9.08-1.43,1.89-.55,3.87-1.19,5.78-1.68,1.31-.34,2.78-.68,4.13-.82.41-.03,1.24-.05,1.65-.04.4-.22,1.23-.64,1.65-.83,1.79-.72,3.83-1.39,5.78-1.26,1.57.74,2.79,2.33,4.13,3.4,2.71,2.39,6.53,2.2,9.91,2.01,4.98-.15,9.9-1.27,14.86-1.58.75-.03,1.78-.1,2.48.23.39.28,1.25.84,1.65,1.12,2.11,1.51,4.94,2.59,7.43,1.37,6.59-3.65,8.07-7.53,16.51-4.7,5.74-2.33,11.81.07,17.34,1.88,4.83,1.6,9.8,3,14.86,3.59"/><path class="b" d="M13.03,179.35c5.79,1.51,11.65-.18,17.34-1.33,2.41.86,5.06,1.11,7.43,2.11,2.91.92,6.06.97,9.08.89,7.45-.27,14.92-.73,22.29-1.93,1.92-.18,3.89-.73,5.78-1.08,1.31-.33,2.86-.26,4.13-.74,2.24-1.08,6.68-2.91,9.08-2.06,2.75,1.62,4.85,4.67,8.26,4.99,4.92.45,9.95-.14,14.86-.6,1.89-.23,3.89-.57,5.78-.79,1.03-.08,2.3-.37,3.3,0,2.67,1.1,5.12,3.69,8.26,2.81,5.21-1.73,8.66-8.25,14.86-6.86.73.15,1.75.39,2.48.6.74,0,1.75-.27,2.48-.38,2.16-.35,4.46-.29,6.6.12,3.94.74,7.73,2.29,11.56,3.45,4.05,1.18,8.25,1.97,12.38,2.78"/><path class="b" d="M13.03,177.09c6.71,3.08,12.33,1.15,18.99-.52,4.33,2.96,8.97,3.35,14.03,2.84,4.39-.35,8.82-.87,13.21-1.27,3.29-.33,6.63-.81,9.91-1.21,1.88-.3,3.94-.2,5.78-.68,3.23-.86,6.47-2.86,9.91-2.31,2.5.43,4.46,2.33,6.6,3.52,2.48,1.41,5.49,1.31,8.26,1.24,2.45-.09,4.98-.21,7.43-.33,2.46-.13,4.99-.34,7.43-.66,1.6-.11,3.37-.68,4.95-.32,2.12.99,4.32,2.21,6.6,2.75,5.35.44,8.41-5.9,13.21-7.47,2.12-.86,4.45-.34,6.6.08,4.76-.51,9.58.24,14.03,1.97,1.87.64,3.86,1.32,5.78,1.78,1.33.05,2.82.23,4.13.5,3.01.64,6.04,1.57,9.08,2.1"/><path class="b" d="M13.03,174.54c3.89,2.51,8.68,3.53,13.21,2.43,1.33-.33,2.75-.73,4.13-.58,1.05.04,2.32-.23,3.3.23,3.59,1.88,7.71,1.31,11.56.85,3.56-.36,7.18-.76,10.73-1.22,4.94-.61,9.95-1.04,14.86-1.83,4.05-.88,8.25-2.15,12.38-.99,2.9.47,5.5,2.03,8.26,2.94,2.66.76,5.53.49,8.26.42,3-.12,6.08-.2,9.08-.29,3.29.01,6.63-.63,9.91-.6,2.3,1.21,4.8,2.42,7.43,2.63,5.48.14,8.4-6.22,13.21-8.05,2.62-1.21,5.54-.34,8.26.02,3.35.48,6.74,1.08,9.91,2.31,1.32.46,2.8,1,4.13,1.43,2.16.11,4.44-.4,6.6-.03,3.65.52,7.14,1.99,10.73,2.75"/><path class="b" d="M13.03,171.88c2.65,1.97,5.73,3.67,9.08,3.94,1.04.09,2.27.06,3.3-.07,2.45.27,4.98.27,7.43,0,.78-.18,1.73.13,2.48.3.74.14,1.73.21,2.48.18,3.02-.24,6.05-1.03,9.08-1.21,6.07-.46,12.09-1.67,18.16-2.16,3.01-.24,6.04-1.11,9.08-1.02,2.19.1,4.44.63,6.6.96,1.6.28,3.36.35,4.95.65,1.9.35,3.88.85,5.78,1.17,1.6.22,3.35.12,4.95.03,6.86-.46,13.78.03,20.64-.44,1.17-.24,2.26.83,3.3,1.21,1.26.57,2.74,1.06,4.13,1.18,6.59.3,9.82-7.27,15.69-9.03,1-.29,2.27-.37,3.3-.17,2.31.1,4.69.8,6.6,2.1,1.84.79,3.93,1.23,5.78,2.02,5.69,2.67,4.7-.41,9.91-.38,4.56.34,8.82,2.39,13.21,3.51"/><path class="b" d="M13.03,169.23c2.44,1.95,5.15,3.87,8.26,4.56,2.19.36,4.35,1.32,6.6,1.25,2.75.09,5.52-.57,8.26-.51,2.21-.22,4.4-1.07,6.6-1.38,2.15-.35,4.43-.37,6.6-.56,6.04-.76,12.12-1.51,18.16-2.27,1.61-.18,3.38-.11,4.95.3,1.9.5,3.82,1.33,5.78,1.59,3.82.5,7.73-.2,11.56.22,3.02.38,6.07-.34,9.08-.47,3.56-.16,7.18.25,10.73.38,1.61.07,3.35.1,4.95.09,1.04.04,2.31-.17,3.3.18,1.49.9,3.22,1.77,4.95,2.05,4.6.71,7.66-3.65,10.73-6.34,2.02-1.88,4.58-3.56,7.43-3.59,1.32.09,2.8.29,4.13.37,4.25.45,6.67,4.79,10.73,5.77.87-.28,1.74-1.18,2.48-1.69,1.86-1.4,4.32-2.04,6.6-1.47,2.53.59,4.97,1.74,7.43,2.55,2.15.73,4.46,1.3,6.6,2.06"/><path class="b" d="M13.03,168.77c.76-.12,1.72-.38,2.48-.18.73.52,1.7,1.18,2.48,1.61,4.61,2.39,5.97,3.96,11.56,3.31,2.18-.28,4.48-.5,6.6-1.08,2.14-.69,4.34-1.61,6.6-1.79,2.72-.24,5.55-.01,8.26-.49,3.56-.47,7.16-1.01,10.73-1.38,1.89-.16,3.88-.63,5.78-.44,3.74.4,6.88,3.26,10.73,3.17,3.04.06,6.07-.82,9.08-1.1,2.74-.23,5.57-.14,8.26-.84,3.53-.74,7.2-.28,10.73.19,2.99.38,6.07.64,9.08.71.4.01,1.25.03,1.65.03.4.22,1.26.69,1.65.94,1.47.82,3.24,1.49,4.95,1.35,5.01-.76,7.33-6.49,11.56-8.82,1.94-1.13,4.38-1.72,6.6-1.23,1.61-.29,3.43-.2,4.95.4,2.56,1.11,4.23,3.69,6.6,5.11,1.22-.68,2.16-2.11,3.3-2.91,3.05-2.48,6.03-1.03,9.08.53,4.17,1.94,8.76,2.95,13.21,4.05"/><path class="b" d="M13.03,168.87c1.63-.1,3.34-.93,4.95-.81,4.99,4.71,7.71,4.34,14.03,3.05,2.92-.34,5.35-2.43,8.26-2.87,2.99-.51,6.09.39,9.08-.14,2.18-.33,4.43-.85,6.6-1.19,2.72-.31,5.54-.24,8.26-.59,2.35-.42,4.59,1,6.6,2.01,5.7,3.21,10.69,1.26,16.51-.12,1.31-.28,2.79-.44,4.13-.47,1.02.2,2.27.22,3.3.1,1.61-.17,3.35-.43,4.95-.69,1.32-.2,2.8-.63,4.13-.28,4.07.78,8.23,1.44,12.38,1.62.87-.03,1.74.75,2.48,1.13,1.22.66,2.72,1.19,4.13,1.13,4.95-.56,7.32-6.5,11.56-8.73,1.71-.97,3.81-1.5,5.78-1.32,1.3-.27,2.79-.55,4.13-.41,3.3.1,5.15,3.21,7.43,5.13,6.54-9.7,8.63-1.01,16.51.52,1.86.42,3.89.53,5.78.79,1.63.21,3.35.67,4.95,1"/><path class="b" d="M13.03,168.41c2.45-.39,4.99.36,7.43.59,1.31.47,2.69,1.24,4.13,1.2,2.52-.03,4.98-1.02,7.43-1.51,1.63-.83,3.25-2,4.95-2.7,3.48-1.61,7.17.52,10.73.07,1.95-.27,3.85-1.15,5.78-1.53,2.16-.37,4.44-.05,6.6.01,1.62.12,3.35-.25,4.95-.17.76.25,1.76.69,2.48,1.05,9.14,5.04,12.41,2.45,21.46.12,1.6.27,3.3.83,4.95.62,3.57-.34,7.17-.92,10.73-1.27,1.35-.02,2.8.52,4.13.71,2.43.46,4.97.78,7.43.96.84.1,1.74.83,2.48,1.2,1.22.63,2.75,1.06,4.13.84,1.95-.33,3.6-1.78,4.95-3.13,1.75-1.78,3.6-3.75,5.78-5.01.96-.55,2.22-1.01,3.3-1.21.38-.07,1.26-.15,1.65-.15.38-.14,1.26-.41,1.65-.53,4.86-1.15,6.94.35,9.91,4.1,6.02-10.49,7.64,1.47,17.34,2.29,3.83.38,7.77-.12,11.56.68"/><path class="b" d="M13.03,167.57c2.41.52,4.96.76,7.43.85,1.9.05,3.95.04,5.78-.56,3.07-.75,5.62-2.7,8.26-4.32,1.71-1.05,3.84-1.42,5.78-.86,3.23.83,5.09,2.41,8.26.35,4.18-2.3,7.18-1.36,11.56-.74.74.09,1.74.15,2.48.16.77,0,1.78-.15,2.48.24,3.93,1.7,7.95,3.9,12.38,3.47,2.23-.15,4.49-.78,6.6-1.48,1.58-.44,3.28-1.48,4.95-.92,1.58.41,3.32.73,4.95.54,2.72-.33,5.53-.55,8.26-.85,1.32-.13,2.8-.24,4.13-.3,1.05.11,2.27.45,3.3.63,2.15.41,4.42.7,6.6.9,1.41.31,2.67,1.46,4.13,1.68,4.58.88,7.39-3.84,10.73-6.08.95-.7,2.19-1.41,3.3-1.82,1.04-.35,2.35-.55,3.3-1.15,2.03-.85,4.44-1.2,6.6-.71,1.72.47,3.04,2.05,4.13,3.37,1.09-1.12,1.85-2.96,3.3-3.7,3.65-.82,5.85,7.13,14.03,7.4,4.39.25,8.83-.51,13.21.06"/><path class="b" d="M13.03,166.36c5.04.83,10.46.09,14.86-2.59,2.66-1.5,5.15-3.76,8.26-4.25,3.03-.38,5.38,2.38,8.26,2.59,5.78-4.7,7.19-4.19,14.03-2.51,1.87.46,3.91.46,5.78.82,3.71,1.49,7.47,3.38,11.56,3.4,2.21.04,4.49-.45,6.6-1.07,1.32-.32,2.75-1.03,4.13-1.02,1.9.17,3.87.65,5.78.73,4.11-.27,8.26-.77,12.38-1,1.64-.23,3.35.17,4.95.49,2.16.38,4.43.66,6.6.88.83-.03,1.73.63,2.48.91,1.55.62,3.42.62,4.95-.05,3.51-1.63,6.14-4.9,9.91-6.07,2.49-2.08,5.84-3.22,9.08-2.81,1.7.24,3.08,1.63,4.13,2.89.69-.19,1.35-1.26,1.65-1.85.33-.48,1.11-1.32,1.65-1.55,2.28-.31,4.13,3.24,5.78,4.55,3.35,3.48,7.92,3.39,12.38,3.07,3.55-.2,7.18-.32,10.73-.01"/><path class="b" d="M13.03,164.64c4.34.34,8.65-1.17,12.38-3.28,2.91-1.58,5.73-3.79,9.08-4.32,1.77-.29,3.53.62,4.95,1.58.7.45,1.6,1.22,2.48,1.24,1.31-.52,2.31-1.83,3.3-2.77,2.8-2.77,5.71-2.11,9.08-.99,2.94.91,6.02,1.58,9.08,1.94,2.68,1.08,5.42,2.29,8.26,2.9,2.69.62,5.57.59,8.26-.01,1.34-.28,2.81-.68,4.13-1.02.74.06,1.74.23,2.48.3,2.17.05,4.43.48,6.6.34,3.54-.5,7.17-.62,10.73-.89,2.48-.3,4.97.61,7.43.79,1.89.23,3.89.43,5.78.61,1.04.26,2.22.77,3.3.83,2.69.22,5.18-1.25,7.43-2.53,2.46-1.07,4.29-3.25,6.6-4.55,2.21-1.2,4.94-1.85,7.43-1.32,1.28.36,2.45,1.45,3.3,2.43l.83-.18c.58-1.04,1.43-2.51,2.48-3.15l.83-.08c1.37.52,2.38,2.01,3.3,3.08,1.33,1.61,2.97,3.28,4.95,4.04,3.17,1.19,6.64.3,9.91.12,3.84-.31,7.74-.05,11.56.33"/><path class="b" d="M13.03,162.63c4.17-.02,8-2.12,11.56-4.09,2.59-1.41,5.27-3.09,8.26-3.42,1.41-.14,2.95.26,4.13,1.05.73.45,1.58,1.32,2.48,1.39,5.7-4.14,4.18-7.46,12.38-4.5,3.75,1.3,7.69,2.1,11.56,2.92,1.86.76,3.85,1.52,5.78,2.06,2.65.76,5.5,1.17,8.26.86,1.9-.09,3.88-1.02,5.78-.59,1.87.32,3.88.36,5.78.32,1.32.02,2.81.14,4.13,0,2.98-.5,6.07-.61,9.08-.8,1.34-.2,2.81-.06,4.13.21,1.6.24,3.34.4,4.95.52,2.17.16,4.44.35,6.6.59,2.15.54,4.47.6,6.6-.02,3.12-.45,4.86-3.27,7.43-4.8,3.44-2.32,8.66-3.45,11.56.29,1.64-.8,2.07-3.57,4.13-3.75,1.42.36,2.4,1.93,3.3,2.98,1.65,2.11,3.83,4.2,6.6,4.53,1.03.14,2.27.09,3.3-.04,1.61.26,3.29.83,4.95.66,4.39-.35,8.79-1.74,13.21-.87"/><path class="b" d="M13.03,160.53c6.67-.23,11.64-6,18.16-6.74,1.06-.07,2.32.14,3.3.55.76.34,1.66,1.07,2.48,1.28,1.54-1.82,3.42-3.58,4.95-5.41,1.32-1.5,3.27-1.19,4.95-.58,5.64,1.98,11.62,2.91,17.34,4.59,3.69,1.33,7.59,2.57,11.56,2.48,1.33-.02,2.8-.28,4.13-.4,2.15.38,4.42.7,6.6.67,2.17-.14,4.44-.09,6.6-.28,2.43-.4,4.96-.67,7.43-.7,2.18-.31,4.43.27,6.6.34,3.84.15,7.75.09,11.56.67,1.87.31,3.88.43,5.78.33.83-.15,1.8-.78,2.48-1.27,3.72-3.19,9.48-6.74,14.03-3.08l.83.04c6.23-9.12,6.33,1.72,13.21,3.42.72.19,1.73.29,2.48.28.76-.02,1.76-.25,2.48.11,3.13,1.38,6.65.8,9.91.27,2.98-.5,6.07-.62,9.08-.73"/><path class="b" d="M13.03,158.41c7.41.12,14.11-8.75,21.46-4.26,2.21-2.32,3.75-5.7,6.6-7.31,1.41-.31,2.83.54,4.13.97,2.89,1.08,6.08,1.09,9.08,1.66,3.32.67,6.64,1.67,9.91,2.57,3.21,1.08,6.52,2.2,9.91,2.49,1.61.18,3.34-.1,4.95-.08,1.88.34,3.87.64,5.78.73,3.85.03,7.76-.3,11.56-.87,2.72-.37,5.53-.17,8.26,0,3.28.11,6.62-.4,9.91-.27,3.05.04,6.08.88,9.08,1.28,1.82-.08,3.45-1.28,4.95-2.2,2.62-1.74,6.04-2.79,9.08-1.53,2.35-.81,3.92-3.67,6.6-3.7,1.81.22,2.98,2.05,4.13,3.28,1.66,1.93,3.98,3.57,6.6,3.68,1.05.12,2.29-.3,3.3.04,3.57,1.88,7.74,1.4,11.56.72,2.98-.52,6.07-.62,9.08-.73"/><path class="b" d="M13.03,156.26c6.44-.34,12.42-5.91,18.99-3.54l.83-.2c1.61-1.9,4.59-8.64,7.43-7.57,1.6.62,3.2,1.65,4.95,1.79,2.72.24,5.53-.38,8.26.02,7.07,1.03,13.54,4.67,20.64,5.56,1.03.11,2.26.12,3.3.1,2.16.38,4.42.76,6.6.9,3.01.2,6.08-.24,9.08-.47,2.43-.52,4.97-.35,7.43-.42,3.02.07,6.1-.17,9.08-.67,2.98-.46,6.09-.66,9.08-.16,1.34.21,2.82.56,4.13.91.74,0,1.75-.15,2.48-.33,3.68-1,7.17-2.75,10.73-4.08,2.56-1.03,5.67-2.4,8.26-.71,1.49.93,2.73,2.49,4.13,3.54,1.16.87,2.69,1.55,4.13,1.77,1.32.32,2.84-.22,4.13.15,4.29,2.39,9.36,1.99,14.03,1.23,2.71-.41,5.53-.47,8.26-.67"/><path class="b" d="M13.03,154.07c5.81-.55,11.5-5.66,17.34-2.7,1.94-1.01,2.84-3.66,4.13-5.34.93-1.35,2.22-3.47,4.13-2.48,1.54.78,3.14,1.94,4.95,1.86,2.5-.13,4.92-1.24,7.43-1.32,3.99-.18,7.87,1.21,11.56,2.58,4.02,1.45,8.11,3.04,12.38,3.52,3.25.64,6.59,1.23,9.91,1.35,2.46.11,4.98-.31,7.43-.5,1.6-.31,3.34-.13,4.95-.15,2.45-.08,5-.24,7.43-.58,6.02-1.13,11.12-2.81,17.34-1.27,1.4.51,2.86-.51,4.13-1.01,1.83-.83,3.8-1.65,5.78-2.04,3.51-.65,7.4-1.18,10.73.42,1.74.8,3.29,2.2,4.95,3.12,1.23.64,2.75,1.06,4.13,1.17,1.35.13,2.91-.38,4.13.43,4.38,1.98,9.33,2.16,14.03,1.58,2.99-.35,6.08-.43,9.08-.68"/><path class="b" d="M13.03,151.99c2.54-.34,5.04-1.27,7.43-2.14,2.59-.95,5.56-1.93,8.26-.84,1.73-.94,2.87-3.02,4.13-4.48.86-.99,1.83-2.53,3.3-2.52,1.48.33,2.73,1.54,4.13,2.06,1.65.61,3.43-.07,4.95-.72,1.55-.67,3.26-1.34,4.95-1.54,5.16-.57,10.16,1.37,14.86,3.25,3.46,1.4,7.07,2.62,10.73,3.4,3.24.69,6.59,1.21,9.91,1.24,2.18.04,4.44-.33,6.6-.55,3.85.24,7.77-.06,11.56-.79,3.32-.66,6.57-1.87,9.91-2.45,3.24-.6,6.63-.62,9.91-.32,1.4-.04,2.75-1,4.13-1.26,2.4-.62,4.99-.36,7.43-.13,2.52.28,5.11.81,7.43,1.86,2.37,1.07,4.76,2.48,7.43,2.6,1.33.16,2.89-.3,4.13.37,2.37.88,4.93,1.49,7.43,1.84,3.26.49,6.63.35,9.91.18,2.44-.17,4.99-.12,7.43-.35"/><path class="b" d="M13.03,150.01c2.54-.24,5.05-1.1,7.43-1.97,2.08-.73,4.36-1.61,6.6-1.22,2.91-1.22,4.41-4.83,7.43-5.88,1.58.01,2.72,1.64,4.13,2.19,1.97.82,4.07-.28,5.78-1.25,1.52-.86,3.22-1.71,4.95-2.03,3.26-.51,6.72-.24,9.91.57,5.6,1.68,10.82,4.59,16.51,5.99,5.1,1.28,10.47,1.83,15.69.97,3.58.46,7.22-.06,10.73-.73,4.46-.87,8.7-2.8,13.21-3.48,3.25-.55,6.62-.72,9.91-.85,1.32-.03,2.81-.19,4.13-.07,1.33.16,2.81.45,4.13.7,2.75.56,5.59,1.08,8.26,1.97,2.66.88,5.41,1.94,8.26,1.8,1.66-.16,3.34.67,4.95.95,2.15.48,4.42.88,6.6,1.17,5.73.72,11.58.65,17.34.45"/><path class="b" d="M13.03,148.04c4.59-.11,8.73-2.54,13.21-3.23,1.38-.86,2.83-1.97,4.13-2.96.96-.7,2.09-1.66,3.3-1.82.91.16,1.79,1.03,2.48,1.59,2.13,1.93,4.47.96,6.6-.36,2.03-1.32,4.18-2.77,6.6-3.19,3.26-.5,6.67-.98,9.91-.11,5.39,1.5,10.35,4.36,15.69,6.06,5.04,1.61,10.42,2.24,15.69,1.72,4.16.49,8.34-.27,12.38-1.2,4.15-1.02,8.12-2.9,12.38-3.44,3.54-.45,7.2-.36,10.73.1,3.57.61,7.14,1.56,10.73,2.1,3.82.63,7.71,1.15,11.56,1.61,10.08,1.64,20.31,3.01,30.55,2.9"/><path class="b" d="M13.03,145.96c2.81.19,5.63-.55,8.26-1.49,1.62-.6,3.47-.93,4.95-1.84,1.36-.72,2.81-1.62,4.13-2.4.98-.58,2.18-1.36,3.3-.69,2.78,2.4,3.97,3.41,7.43,1.35,2.21-1.2,4.17-3.08,6.6-3.89,6.03-1.71,10.61-2.29,16.51.32,5.13,2.15,10.2,4.78,15.69,5.89,2.96.62,6.06.97,9.08.81,1.88.19,3.89.3,5.78.2,3.61-.35,7.26-1.16,10.73-2.22,3.99-1.33,8.08-3.18,12.38-2.57,3.4.43,6.66,1.73,9.91,2.77,2.65.81,5.49,1.27,8.26,1.38,6.88.13,13.79.1,20.64.79,7.43.47,14.85,1.8,22.29,1.9"/><path class="b" d="M13.03,143.74c4.55.77,9.08-.99,13.21-2.74,1.06-.48,2.27-1.1,3.3-1.63.99-.53,2.18-1.22,3.3-.68,3.53,2.66,4.12,3.41,8.26,1.01,1.94-1.12,3.71-2.76,5.78-3.67,1.82-.78,3.91-1.08,5.78-1.71,3.23-.76,6.72-.65,9.91.23,5.07,1.63,9.75,4.44,14.86,5.98,3.21.93,6.57,1.51,9.91,1.71,2.7.41,5.53.58,8.26.3,4.8-.62,9.55-1.88,14.03-3.69,5.4-2.19,8.35-.82,13.21,1.7,4.53,2.49,9.83,2.52,14.86,2.4,7.42-.25,14.87-.71,22.29-.16,3.85.23,7.73.67,11.56,1.15,2.44.27,4.96.78,7.43.67"/><path class="b" d="M13.03,141.62c1.61.07,3.34.36,4.95.21,2.81-.34,5.64-1.15,8.26-2.21,1.05-.43,2.27-.99,3.3-1.47,1.01-.58,2.29-.62,3.3-.04,3.37,2.64,4.62,2.45,8.26.42,2.47-1.38,4.65-3.51,7.43-4.3,1.66-.34,3.32-1.1,4.95-1.55,2.68-.69,5.55-.54,8.26-.13,4.73.65,8.8,3.42,13.21,5.05,3.17,1.23,6.58,1.97,9.91,2.65,3.78.72,7.72,1.16,11.56.66,4.84-.63,9.59-1.95,14.03-3.96,5.37-2.38,8.01.8,12.38,3.22,2.51,1.35,5.47,1.49,8.26,1.37,2.17-.07,4.44.04,6.6.12,7.15.15,14.31-1,21.46-.67,3.85.12,7.74.48,11.56.99,2.72.35,5.5.92,8.26.85"/><path class="b" d="M13.03,139.77c5.05.83,10.22.02,14.86-2.1,2.47-1.37,4.37-.94,6.6.58,2.48,1.45,5.17-.24,7.43-1.34,2.64-1.58,5.17-3.62,8.26-4.25,3.84-1.79,7.35-2.47,11.56-1.74,1.92.3,3.95.7,5.78,1.36,2.8,1.02,5.49,2.51,8.26,3.6,6.56,2.39,13.6,4.28,20.64,3.61,3.34-.37,6.74-.99,9.91-2.12,2.23-.77,4.32-2.18,6.6-2.78,3.28-.79,5.78,2.07,8.26,3.71,2.9,2.2,6.52,1.75,9.91,1.46,2.46-.18,4.99.27,7.43.47,6.61.46,13.2-1.05,19.81-.95,3.57,0,7.19.28,10.73.7,3.27.38,6.6.96,9.91.93"/><path class="b" d="M13.03,137.97c12.13,2.36,13.94-3.62,19.81-1.72,3.99,1.79,5.33,1.03,9.08-.64,2.79-1.24,5.24-3.4,8.26-4.16,1.66-.42,3.28-1.35,4.95-1.74,1.85-.48,3.88-.59,5.78-.42,3.07.3,6.17,1.07,9.08,2.09,2.49.95,4.95,2.22,7.43,3.18,4.53,1.65,9.23,3.04,14.03,3.63,1.9.09,3.89-.21,5.78-.37,2.75-.23,5.62-.29,8.26-1.21,2.56-.89,4.91-2.52,7.43-3.51,2.14-.81,4.24.63,5.78,1.99,3.85,3.58,6.51,3.81,11.56,3.24,3.03-.37,6.08.29,9.08.61,6.36.46,12.65-1.25,18.99-1.32,6.9-.22,13.75,1.2,20.64,1.27"/><path class="b" d="M13.03,136.3c4.37,1.02,9,.96,13.21-.69.75-.26,1.72-.64,2.48-.86,1.33-.01,2.81.06,4.13.27,5.1,1.14,5.3.45,9.91-1.15,2.55-1.01,4.8-2.85,7.43-3.69,3.78-1.13,7.52-2.72,11.56-2.25,5.78.51,11.22,2.83,16.51,5.06,4.05,1.35,8.13,3.03,12.38,3.57,3.01-.12,6.05-.92,9.08-.77,2.19-.02,4.66.46,6.6-.81,2.76-1.62,5.72-3.94,9.08-3.66,1.58.44,2.9,1.78,4.13,2.8,3.93,3.52,7.48,3.24,12.38,2.93,2.75-.15,5.52.46,8.26.59,6.38.2,12.63-1.64,18.99-1.82,6.61-.3,13.21.88,19.81.88"/><path class="b" d="M13.03,134.91c6.73,1.34,9.44.53,15.69-1.51,1.89.19,3.88.27,5.78.3,1.62.06,3.38.15,4.95-.36,1.6-.59,3.35-1.04,4.95-1.59,1.93-.86,3.8-2.12,5.78-2.88,1.82-.76,3.85-1.17,5.78-1.54,2.11-.59,4.41-.84,6.6-.68,6.94.59,13.26,3.91,19.81,6,2.4.81,4.86,2.05,7.43,2.13,2.75-.22,5.46-1.3,8.26-1.19,1.33,0,2.81.2,4.13.39.74-.08,1.74-.26,2.48-.36.74-.1,1.76-.16,2.48-.38.73-.53,1.72-1.26,2.48-1.75,1.9-1.14,4.37-2.2,6.6-1.62,1.51.65,2.83,1.95,4.13,2.91,1.23.9,2.73,1.74,4.13,2.35,2.86,1.17,6.07.81,9.08.84,2.73-.02,5.53.36,8.26.26,6.11-.18,12.07-1.92,18.16-2.24,3.83-.25,7.73-.03,11.56.22,2.44.26,5.06-.08,7.43.63"/><path class="b" d="M13.03,133.63c5.53,1.1,9.68.59,14.86-1.5,1.29-.41,2.79.28,4.13.2,2.73-.11,5.6-.33,8.26-1.02.75-.22,1.73-.59,2.48-.8.77-.05,1.76-.31,2.48-.59,2.21-.92,4.33-2.29,6.6-3.06,2.09-.76,4.39-1.16,6.6-1.18,1.59-.27,3.34-.36,4.95-.25,5.76.42,11.08,2.99,16.51,4.72,2.8.7,5.39,2.37,8.26,2.78,2.81.06,5.46-1.43,8.26-1.61,1.61-.16,3.37-.06,4.95.28,1.32-.23,2.79-.5,4.13-.55,1.04-.1,2.28.12,3.3-.13,1.82-1.59,4.16-2.73,6.6-2.74,1.9-.25,3.48,1.25,4.95,2.22,2.55,1.6,5.27,3.33,8.26,3.91,4.07.61,8.28.31,12.38.4,4.72-.06,9.4-1.01,14.03-1.79,4.64-.84,9.32-1.15,14.03-.84,1.89.03,3.89.02,5.78.08,1.34.18,2.81.62,4.13.93"/><path class="b" d="M13.03,132.16c3.8.58,7.82.73,11.56-.24,1.36-.39,2.69-1.38,4.13-1.5,2.41.72,5.01.69,7.43.04,1.89-.46,3.93-.76,5.78-1.4,1.28-.51,2.85-.47,4.13-1.01,2.75-1.09,5.35-2.76,8.26-3.45,2.12-.55,4.43-.63,6.6-.4,3.04-.19,6.16.24,9.08,1.1,3.85,1.19,7.65,2.73,11.56,3.75,1.9.62,3.75,1.86,5.78,2.03,3.1.03,6-1.66,9.08-1.92,1.6-.23,3.35-.03,4.95-.07,2.66-.65,5.56-.79,8.26-.23.85-.18,1.71-.98,2.48-1.35,1.76-.88,3.88-.88,5.78-.55,1.49.13,2.83,1.12,4.13,1.77,2.19,1.01,4.36,2.31,6.6,3.2,2.62.94,5.5,1.07,8.26,1.07,2.45,0,4.99.06,7.43-.14,5.82-.42,11.56-1.73,17.34-2.52,1.6-.17,3.34.34,4.95.35,4.13.13,8.3.45,12.38,1.07"/><path class="b" d="M13.03,130.44c2.16.28,4.43.43,6.6.38,1.01.3,2.25.46,3.3.4,1.07-.07,2.3-.39,3.3-.79.75-.28,1.65-.87,2.48-.82.74.09,1.74.09,2.48,0,1.04-.03,2.27.05,3.3-.16,2.49-.51,4.97-1.4,7.43-2.02,1.56-.64,3.38-.67,4.95-1.26,2.22-.81,4.36-2.09,6.6-2.84,2.89-1.05,6.09-1.05,9.08-.48,2.76.21,5.6.49,8.26,1.33,3.56,1.11,7.08,2.54,10.73,3.36,1.62.54,3.22,1.6,4.95,1.72,3.4.17,6.56-1.69,9.91-2.01,1.32-.16,2.81-.12,4.13-.16,3.49-.67,7.27-1.19,10.73-.15,3.42-2.97,7.86-1.11,11.56.26,1.27.52,2.78.69,4.13.84,1.84.86,3.79,1.82,5.78,2.27,4.31.89,8.83.9,13.21.65,5.27-.28,10.5-1.3,15.69-2.21,1.9.1,3.85.77,5.78.77,3.83.19,7.74-.03,11.56.4"/><path class="b" d="M13.03,128.49c1.6.18,3.34.32,4.95.33,1.58.51,3.27,1.15,4.95,1.15,1.68.12,3.33-.59,4.95-.84.74.16,1.73.26,2.48.24,1.71-.04,3.41-.74,4.95-1.43,1.94-.43,3.89-1.22,5.78-1.82,2.14-.75,4.46-1.16,6.6-1.87,1.94-.7,3.85-1.75,5.78-2.47,3.7-1.58,7.78-.98,11.56-.05,4.57.35,8.88,2.12,13.21,3.5,1.95.43,3.98.97,5.78,1.86,3.02,1.09,6.18-.06,9.08-.99,1.84-.53,3.87-.68,5.78-.69,2.17-.15,4.43-.41,6.6-.54,2.17-.22,4.48-.57,6.6.12.46,0,1.29-.33,1.65-.61.96-.47,2.25-.66,3.3-.47,5.49,1.55,7.63,5.01,14.03,2.65,3.93,1.56,8.16,2.38,12.38,2.51,4.67.1,9.37-.43,14.03-.69,1.61-.13,3.35-.32,4.95-.51,1.32.14,2.8.21,4.13.12,4.1-.35,8.27-.93,12.38-.36"/><path class="b" d="M13.03,126.4c1.32.17,2.81.19,4.13.36,1.55.69,3.27,1.35,4.95,1.66,1.32.23,2.81.24,4.13.02,1.56.51,3.34.71,4.95.37,3.25-.61,5.97-2.75,9.08-3.73,3.51-1.39,7.32-2.13,10.73-3.78,6.99-3.47,9.46-2.18,16.51-.61,4.5.79,8.76,2.67,13.21,3.68,1.85.64,3.77,1.59,5.78,1.54,2.56,0,4.93-1.36,7.43-1.75,2.98-.41,6.08-.27,9.08-.22,1.91.03,3.91-.3,5.78-.66,1.6-.42,3.38-.38,4.95.14,4.84-3.64,8.15,3.86,14.03,3.4,2.35-.03,4.48-1.29,6.6-2.14,4.2,1.59,8.69,2.62,13.21,2.45,2.73.14,5.53.02,8.26-.21,3-.2,6.09-.29,9.08-.63,2.19-.32,4.41-.98,6.6-1.27,2.44-.32,5-.22,7.43.17"/><path class="b" d="M13.03,124.3c.75.08,1.73.17,2.48.2,1.36.36,2.79,1.04,4.13,1.48,1.02.36,2.24.72,3.3.93,1.05.35,2.22.97,3.3,1.21,4.1.99,7.89-1.62,11.56-3.05,1.61-.71,3.28-1.62,4.95-2.18,2.18-.81,4.49-1.52,6.6-2.5,9.64-4.58,10.05-3.31,19.81-.86,2.48.59,4.99,1.44,7.43,2.19,1.62.46,3.41.82,4.95,1.5,5.59,2.56,7.95-.49,13.21-.78,3.03-.18,6.07.46,9.08.65,1.93,0,3.93-.48,5.78-1,1.56-.54,3.33-.75,4.95-.38,2.03-.73,2.96-1.18,4.95.23,3.42,2.73,6.93,5.41,11.56,3.84,1.98-.7,3.82-2.02,5.78-2.8,2.19.53,4.36,1.53,6.6,1.86,1.91.17,3.85.91,5.78.87,2.48-.03,4.98-.64,7.43-.96,2.16-.3,4.43-.39,6.6-.35,2.23-.01,4.42-1.14,6.6-1.56,2.95-.74,6.11-.59,9.08-.04"/><path class="b" d="M13.03,122.34c1.67.06,3.38.66,4.95,1.17,2.62,1.5,5.09,3.79,8.26,3.97,3.59.16,6.65-2.23,9.91-3.4,4.43-1.64,9.03-3.05,13.21-5.29,9.49-4.8,10.18-3.62,19.81-.9,3.29.91,6.62,1.96,9.91,2.89,2.6.96,5.43,2.32,8.26,1.57,1.61-.42,3.3-1.07,4.95-1.32,2.16-.31,4.47-.14,6.6.24,2.68.58,5.53,1.28,8.26.57,2.73-.59,5.38-2.09,8.26-1.65.44.03,1.28-.21,1.65-.45,1.18-.3,2.44.45,3.3,1.21,3.28,3.27,7.75,5.79,12.38,3.73,2.23-.98,4.28-2.61,6.6-3.38,1.56.71,3.44.98,4.95,1.77,3.86,2.47,8.37.48,12.38-.49,1.86-.44,3.87-.67,5.78-.64,1.04-.03,2.29.23,3.3-.05,2.14-.62,4.37-1.35,6.6-1.53,2.17-.2,4.44.08,6.6.25"/><path class="b" d="M13.03,120.66c.75.11,1.73.27,2.48.4.45.28,1.25.91,1.65,1.26,1.97,1.58,4.1,3.34,6.6,3.95,3.98.87,7.27-2.24,10.73-3.63,3.13-1.43,6.63-1.82,9.91-2.79,2.31-.9,4.44-2.38,6.6-3.55,3.27-1.74,6.98-3.32,10.73-2.32,1.94.41,3.9,1.17,5.78,1.77,3.31.85,6.63,1.89,9.91,2.88,2.92.93,5.92,2.76,9.08,2.11,1.62-.37,3.31-1.02,4.95-1.29,2.44-.38,5.03-.12,7.43.44,3.61.96,7.12,1.67,10.73.25,1.04-.34,2.23-.87,3.3-1.1,1.02-.19,2.27-.21,3.3-.22.44.06,1.27-.14,1.65-.36,1.63-.33,3.02,1.11,4.13,2.11,2.58,2.45,6.32,4.07,9.91,3.36,2.96-.68,5.49-2.65,8.26-3.82,1.52-.93,2.93.68,4.13,1.46,2.15,1.54,4.99,1.62,7.43.77,3.24-1.04,6.45-2.58,9.91-2.71,1.03-.05,2.28,0,3.3.09.73.07,1.76.27,2.48,0,1.58-.38,3.33-.7,4.95-.82,2.04-.94,4.32-1.78,6.6-1.56"/><path class="b" d="M13.03,119.23c1.74-.07,2.87,1.69,4.13,2.63,2.23,1.94,5.15,4.03,8.26,3.09,3.77-1.28,6.79-4.34,10.73-5.27,3.21-1.05,6.74-.73,9.91-1.9,1.96-1.1,3.8-2.62,5.78-3.69,4.35-2.45,7.65-2.94,12.38-1.25,3.21,1.26,6.64,1.94,9.91,3.02,1.63.51,3.38,1.09,4.95,1.76,2.05.82,4.36,1.77,6.6,1.47,1.63-.3,3.32-.94,4.95-1.24,5.32-1.1,10.44,1.46,15.69,1.69,2.28,0,4.46-1,6.6-1.63,1.02-.22,2.26-.3,3.3-.37,1.64,0,3.49-.88,4.95.21,4.34,3.68,9.28,6.05,14.86,3.43,1.34-.57,2.81-1.32,4.13-1.94.73-.2,1.75.03,2.48.12,1.18.21,2.17,1.34,3.3,1.71,3.99,1.5,7.9-1.33,11.56-2.63,2.85-1.16,6.06-1.38,9.08-.85.72.11,1.75.27,2.48.38.81-.24,1.78-.89,2.48-1.34,2.22-1.45,4.64-3.25,7.43-3.04"/><path class="b" d="M13.03,117.95c.57.04,1.3.62,1.65,1.02.74.68,1.71,1.61,2.48,2.25,4.41,3.95,7.29,2.75,11.56-.49,2.19-1.64,4.71-3.01,7.43-3.47,1.87-.42,3.88-.5,5.78-.64,1.6-.34,3.37-.41,4.95-.82,1.65-1.11,3.25-2.54,4.95-3.57,5.12-3.11,8.65-2.66,14.03-.63,3.26,1.23,6.61,1.73,9.91,3.06,2.95,1.02,5.89,2.78,9.08,2.77,1.93-.23,3.86-1.01,5.78-1.3,2.71-.4,5.56-.2,8.26.24,2.75.38,5.47,1.47,8.26,1.6,1.61-.08,3.37-.18,4.95-.53,1.32-.35,2.75-.99,4.13-1.1,1.61-.07,3.34-.52,4.95-.39.8.22,1.79.79,2.48,1.24,2.95,1.78,6.41,3.17,9.91,2.98,1.67-.06,3.35-.75,4.95-1.11,2.15.36,4.43.52,6.6.56.71.25,1.72.57,2.48.62,7.45-.28,10.77-6.99,19.81-4.7,1.99-.9,3.92-2.19,5.78-3.33,1.53-1.46,3.6-2.62,5.78-2.16"/><path class="b" d="M13.03,116.86c1.5.9,2.73,2.49,4.13,3.55,4.59,3.98,7.85.28,11.56-2.65,2.1-1.71,4.72-2.77,7.43-2.93,1.04-.12,2.27-.16,3.3-.29,1.02-.3,2.25-.49,3.3-.55,1.6-.2,3.48.3,4.95-.43,2.26-1.88,4.59-3.91,7.43-4.87,4.13-1.6,8.45.35,12.38,1.65,3.62.98,7.31,1.99,10.73,3.58,1.81.77,3.82,1.5,5.78,1.75,1.06.01,2.28-.29,3.3-.56,4.26-1.22,8.86-1.28,13.21-.56,2.49.44,4.91,1.53,7.43,1.81,1.87.31,3.92.5,5.78.04,1.06-.27,2.25-.83,3.3-1.15,2.11-.53,4.45-.56,6.6-.29,1.02.42,2.26.89,3.3,1.26,1.57.58,3.3,1.16,4.95,1.46,1.03.23,2.31.13,3.3.5,2.04.95,4.39,1.18,6.6,1.24,2.74.09,5.61-.16,8.26-.85,3.79-1.22,6.93-4,10.73-5.18,1.56-.48,3.35-.55,4.95-.24,0,0,.83-.17.83-.17l.83-.67c.73-.62,1.75-1.48,2.48-2.11,2.82-2.44,5.32-4.15,9.08-2.28"/><path class="b" d="M13.03,115.97c2.19,1.42,3.87,4.03,6.6,4.51,4.72.29,7.69-6.45,12.38-7.63,1.56-.47,3.34-.43,4.95-.44,1.07-.11,2.23-.69,3.3-.81,2.45-.52,4.98.38,7.43.21,4.53-4.23,8.48-6.92,14.86-4.9,5.53,1.79,11.23,3.1,16.51,5.58,1.85.57,3.8,1.55,5.78,1.34,1.63-.22,3.34-.76,4.95-1.07,1.59-.35,3.34-.37,4.95-.53,2.74-.28,5.63-.12,8.26.75,2.13.79,4.37,1.49,6.6,1.93,1.85.42,3.89.77,5.78.36,1.36-.33,2.77-1.05,4.13-1.41.73-.11,1.74-.05,2.48.03,3.36.46,6.84.92,9.91,2.46,1.6.71,3.25,1.68,4.95,2.14,3.21.77,6.72.62,9.91-.24,2.26-.64,4.53-1.6,6.6-2.69,1.9-1.09,3.8-2.44,5.78-3.4,1.24-.6,2.74-1.05,4.13-1.08.74,0,1.76.23,2.48-.09,4.92-5.1,6.69-9.22,13.21-2.91"/><path class="b" d="M13.03,115.24c1.78.77,3.05,2.68,4.95,3.29,6.06,1.67,8.59-9.69,16.51-8.66.41.03,1.24.09,1.65.12,1.04-.29,2.22-.86,3.3-1,2.79-.53,5.53.56,8.26.9,3.78-3.67,7.65-6.59,13.21-5.23,6.14,1.63,12.33,3.4,18.16,5.95,1.84.6,3.79,1.6,5.78,1.36,3.28-.56,6.57-1.45,9.91-1.63,3.02-.54,6.22-.39,9.08.78,1.54.68,3.35.95,4.95,1.43,1.88.53,3.84,1.22,5.78,1.48,2.27.39,4.47-.63,6.6-1.22,3.04.52,6.2,1.13,9.08,2.24,2.69,1.1,5.27,2.87,8.26,3.03,4.4.44,8.66-1.16,12.38-3.39,1-.58,2.22-1.27,3.3-1.7.77-.27,1.82-.67,2.48-1.16,2.41-1.55,5.34-2.8,8.26-2.21,1.89-1.94,4.21-7.29,7.43-6.11,1.08.53,2.26,1.36,3.3,1.96,1.04,1.26,2.17,2.85,3.3,4.03"/><path class="b" d="M13.03,114.62c.92-.09,1.78.76,2.48,1.23.68.46,1.66.95,2.48,1.08,6.34.08,8.06-11.24,16.51-9.51,1.42.41,2.72-.98,4.13-1.09,1.9-.3,3.96.07,5.78.63,1.03.31,2.2.96,3.3.91,6.3-6.27,10-6.36,18.16-3.72,3.61,1,7.2,2.3,10.73,3.54,2.66.92,5.35,2.66,8.26,2.34,3.29-.46,6.58-1.35,9.91-1.59,1.61-.16,3.33-.53,4.95-.37,2.47.25,4.95,1.2,7.43,1.6,2.81.62,5.5,1.86,8.26,2.65,2.15.67,4.48.34,6.6-.29,1.67-.05,3.34.83,4.95,1.17,2.9.62,5.49,2.28,8.26,3.26,7.44,2.12,12.19-2.21,18.16-5.63,1.5-.78,3.29-1.21,4.95-1.44,1.24-.62,2.74-1.14,4.13-1.29.39-.04,1.26-.05,1.65-.03.67-.16,1.35-1.13,1.65-1.69,1.23-1.57,2.48-4.89,4.95-4.16,1.77,1.09,3.28,2.82,4.95,4.06.87,1.48,2.04,3.22,3.3,4.39"/><path class="b" d="M13.03,113.88c.42.05,1.24.14,1.65.19.95.58,2.17,1.12,3.3,1.06,6.53-1.39,7.85-12.03,16.51-9.85,3.83-3.22,8.46-1.23,12.38.7,1.31-.18,2.26-1.64,3.3-2.36,2.04-1.77,4.7-2.96,7.43-2.99,3.95.08,7.81,1.47,11.56,2.62,4.13,1.45,8.33,2.84,12.38,4.48,3.23,1.08,6.67-.41,9.91-.81,4.34-.87,8.84-1.14,13.21-.29,2.82.39,5.66,1.12,8.26,2.3,3.09,1.42,6.42,2.94,9.91,2.23,1.38-.25,2.8.7,4.13,1.01,2.84.69,5.43,2.34,8.26,3.06,9.06,1.96,13.57-5.82,21.46-8,1.29-.35,2.8-.42,4.13-.25,1.03-.01,2.26-.3,3.3-.23,1.86-1.61,2.38-5.11,4.95-5.82,1.83.41,2.82,2.52,4.13,3.69.38.39,1.21,1.11,1.65,1.43,1.23,1.61,2.32,3.73,4.13,4.79"/><path class="b" d="M13.03,112.8c1.62.06,3.35.67,4.95.36,4.29-1.55,6.23-6.4,9.91-8.86.93-.63,2.18-1.14,3.3-1.24.76-.06,1.78.13,2.48-.28,1.38-1.08,3.14-2.04,4.95-1.86,2.96.39,5.74,1.82,8.26,3.36,3.95-3.23,6.85-6.07,12.38-5.43,4.54.54,8.92,2.15,13.21,3.67,3.3,1.12,6.64,2.33,9.91,3.53,1.89.42,3.92-.1,5.78-.43,2.45-.48,4.97-1.06,7.43-1.47,4.36-.74,8.89-.31,13.21.52,3.82.83,7.12,3.16,10.73,4.53,1.54.57,3.32.77,4.95.76,1.34.39,2.8.97,4.13,1.39,1.63.54,3.31,1.36,4.95,1.85,2.68.72,5.63.46,8.26-.35,2.67-.91,4.92-2.87,7.43-4.13,1.84-.98,3.87-1.84,5.78-2.66,1.28-.55,2.74-1.21,4.13-1.43,1.68-.32,3.35.51,4.95.79,1.41-1.72,2.09-4.51,4.13-5.61,1.98.11,2.88,2.61,4.13,3.86.68.8,1.78,1.72,2.48,2.5.94,1.57,2.29,3.3,4.13,3.82"/><path class="b" d="M13.03,111.25c1.6.11,3.42.38,4.95-.22,4.82-2.19,7-8.37,12.38-9.58.87,0,1.87-.55,2.48-1.15.96-.67,2.16-1.39,3.3-1.67,2.61-.55,5.12.97,7.43,1.97,1.07.49,2.07,1.74,3.3,1.72,5.46-4.93,9.18-6.51,16.51-4.61,6.7,1.85,13.22,4.46,19.81,6.6,4.49.2,8.83-1.65,13.21-2.36,2.69-.5,5.53-.51,8.26-.37,3.42.05,6.87.83,9.91,2.44,2.45,1.23,4.83,2.82,7.43,3.72,1.58.56,3.4.67,4.95,1.32,2.96.92,5.9,2.45,9.08,2.34,2.52-.06,5.15-.56,7.43-1.67,2.6-1.44,5.34-2.8,8.26-3.5,1.68-.44,3.45-1.07,4.95-1.94,2.44-1.5,4.72-2.46,7.43-.83,1.56-1.32,2.03-4.24,4.13-4.84,2.26.91,3.12,3.81,4.95,5.31,1.83,1.83,2.71,4.48,5.78,4.6"/><path class="b" d="M13.03,109.26c1.62.04,3.42.03,4.95-.52,3.19-1.67,5.42-4.75,8.26-6.9.94-.74,2.22-1.35,3.3-1.85,1.35-1.39,3.14-2.56,4.95-3.24,2.21-.85,4.61-.04,6.6.99,1.78.71,3.48,1.84,4.95,3.05,4.2-2.79,7.62-6.56,13.21-5.77,3.94.57,7.76,1.98,11.56,3.14,3.84,1.3,7.8,2.42,11.56,3.95,3.79,1.41,9.31-1.11,13.21-1.88,2.67-.66,5.51-.88,8.26-.93,2.18-.05,4.47-.06,6.6.45,4.21.92,7.75,3.6,11.56,5.48,2.07,1.02,4.43,1.53,6.6,2.24,2.36.84,4.89,1.55,7.43,1.35,3.11-.14,6.22-.94,9.08-2.16,2.07-.84,4.41-1.07,6.6-1.33,6.1-.26,7.92-6.23,12.38-4.05,1.01-1.17,2.18-2.59,3.3-3.65l.83-.19c1,.37,1.86,1.55,2.48,2.37.68.99,1.74,2.22,2.48,3.16,1.14,2.07,3.19,4.2,5.78,3.67"/><path class="b" d="M13.03,106.97c5.37-.11,7.71-2.35,11.56-5.58,2.18-1.75,3.99-4.22,6.6-5.39,3.52-1.95,6.45-1.7,9.91.21.76.34,1.8.8,2.48,1.29.72.52,1.62,1.38,2.48,1.69,1.81-1.59,3.94-2.99,5.78-4.53,1.9-1.27,4.34-1.82,6.6-1.55,3.35.47,6.64,1.58,9.91,2.43,4.7,1.37,9.46,2.75,14.03,4.51,4.01,1.91,8.4-.24,12.38-1.2,4.54-1.21,9.34-1.74,14.03-1.66,5.21.25,9.59,3.39,14.03,5.78,1.79.95,3.81,1.66,5.78,2.09,1.58.46,3.3.94,4.95,1.02,4.18.28,8.32-.74,12.38-1.51,2.72-.32,5.56.16,8.26-.36,1.87-.41,3.56-1.66,4.95-2.93,1.3-1.21,3.04-2.68,4.95-2.05,1.17-1.13,2.41-2.8,4.13-3.02,4.2,1.85,4.88,10.27,10.73,8.27"/><path class="b" d="M13.03,104.57c6.44-.36,10.05-5.42,14.86-8.84,2.73-1.47,5.92-2.82,9.08-2.38,1.4.24,2.83.93,4.13,1.49,1.53.49,2.94,1.62,4.13,2.67l.83-.04c.72-.62,1.71-1.39,2.48-1.94.71-.73,1.67-1.69,2.48-2.31,3.56-2.69,7.57-1.99,11.56-.9,7.26,1.66,14.52,3.53,21.46,6.27,3.8,1.52,7.83-.4,11.56-1.28,2.41-.64,4.96-1.09,7.43-1.46,2.16-.31,4.42-.72,6.6-.63,6.17.1,11.09,4.28,16.51,6.62.68.36,1.73.5,2.48.66,1.31.31,2.78.66,4.13.75,4.11.34,8.28-.2,12.38-.41,3.01,0,6.08.71,9.08.31,1.85-.26,3.61-1.33,4.95-2.59,1.42-1.27,2.88-3.17,4.95-3.2,7.92-7.57,6.57,8.41,14.86,4.77"/><path class="b" d="M13.03,102.26c5.63-.48,9.39-5.15,14.03-7.77,3.04-1.53,6.46-2.65,9.91-2.2,1.67.27,3.35,1.02,4.95,1.53,1.16.55,2.33,1.55,3.3,2.37.97-.2,1.83-1.22,2.48-1.9.73-.71,1.69-1.65,2.48-2.29,4.44-3.64,9.03-1.99,14.03-.99,1.65.25,3.34.88,4.95,1.32,2.42.67,4.97,1.22,7.43,1.7,3.39.71,6.58,2.33,9.91,3.25,3.32.77,6.69-.58,9.91-1.3,2.44-.59,4.98-1.11,7.43-1.61,2.42-.51,4.94-1.07,7.43-.95,6.1.18,11.02,4.28,16.51,6.39,3.25.6,6.59.96,9.91.95,2.45.08,4.99.03,7.43.2,2.72.29,5.51.81,8.26.73,5.87-.07,6.56-4.2,10.73-5.96,1.4-.96,3.3-2,4.95-1.05,3.26,2.44,4.86,7.76,9.91,4.97"/><path class="b" d="M13.03,100.21c3-.34,5.81-1.76,8.26-3.48,2.06-1.54,4.14-3.29,6.6-4.14,3.3-1.5,6.38-1.66,9.91-1.05,1.33.28,2.83.59,4.13.99,1.15.5,2.3,1.48,3.3,2.22.89-.5,1.72-1.61,2.48-2.27,1.88-1.74,4.03-3.44,6.6-3.97,2.16-.53,4.46-.09,6.6.27,2.56.25,5.01,1.24,7.43,2.04,3.74,1.18,7.72,1.52,11.56,2.26,1.96.37,3.88,1.29,5.78,1.88,4.06,1.56,7.5.79,11.56-.17,2.46-.55,4.99-1.14,7.43-1.76,2.67-.7,5.46-1.48,8.26-1.34,3.81.15,7.37,1.83,10.73,3.49,2.11.95,4.27,2.25,6.6,2.5,4.35.67,8.83.67,13.21,1.11,4.09.37,8.26,1.41,12.38.8,4.36-.59,6.46-5.48,10.73-6.29,5.21-.83,6.08,7.31,12.38,3.79"/><path class="b" d="M13.03,98.48c5.32-.26,7.46-3.37,11.56-5.91,3.94-1.86,8.04-3.18,12.38-1.95,1.6.28,3.38.21,4.95.61,1.04.45,2.21,1.12,3.3,1.44l.83-.19c4.83-4.67,8.1-6.37,14.86-5.23,3.14.4,6.02,2.14,9.08,2.9,5.08,1.63,10.66.77,15.69,2.66,6.4,2.66,12.62.85,18.99-.87,4.7-1.54,9.11-2.86,14.03-1.28,4.49,1.35,8.64,3.82,13.21,4.95,3.82.47,7.73.63,11.56,1.09,3.55.38,7.15.97,10.73.98,2.72.13,5.44-.85,7.43-2.71,1.21-1,2.54-2.31,4.13-2.66,5.44-1.46,7.44,5.44,13.21,2.29"/><path class="b" d="M13.03,97.11c4.34-.03,7.2-3.7,10.73-5.63,2.63-1.05,5.44-2.04,8.26-2.39,1.64-.18,3.38.21,4.95.61,1.3.36,2.8.22,4.13.15,1.65.06,3.38.5,4.95.97,2.4-1.58,4.65-3.7,7.43-4.61,2.64-.78,5.56-.7,8.26-.28,1.92.44,3.9,1.13,5.78,1.72,3.23,1,6.57,1.9,9.91,2.47,2.44.26,4.99.28,7.43.61,2.22.23,4.41,1.1,6.6,1.46,4.43.74,8.95-.24,13.21-1.45,4-1.28,8.09-3.13,12.38-2.48,5.7.86,10.9,3.73,16.51,4.96,3.51.79,7.16,1.05,10.73,1.39,2.72.32,5.51.69,8.26.79,6.56.55,7.32-.77,12.38-4.19,5.26-1.66,8.88,3.3,14.03.96"/><path class="b" d="M13.03,95.62c3.91-.24,6.59-3.53,9.91-5.17,1.83-.74,3.9-1.16,5.78-1.75,1.84-.51,3.87-.91,5.78-.61,1.34.22,2.78.75,4.13.95,1.36.17,2.78-.53,4.13-.56,1.34-.05,2.82.22,4.13.45,4.81-2.81,6.39-4.66,12.38-4.63,4.79-.06,9.39,1.74,14.03,2.67,4.1.95,8.12,2.38,12.38,2.33,2.78-.01,5.51.88,8.26,1.13,3.31.37,6.68-.12,9.91-.88,4.1-.97,8.07-3.01,12.38-2.84,3.08.07,6.14.95,9.08,1.78,2.43.69,4.98,1.26,7.43,1.87,5.45,1.13,11.06,1.53,16.51,2.68,2.16.28,4.44.15,6.6.23,2.64.04,5.27-.88,7.43-2.38.38-.29,1.25-.84,1.65-1.11,1.3-.27,2.81-.29,4.13-.19,3.27.29,6.66,1.23,9.91.26"/><path class="b" d="M13.03,93.8c3.54-.35,6.03-2.91,9.08-4.38,1.27-.57,2.8-.73,4.13-1.08,1.88-.48,3.85-1.12,5.78-1.37,1.05-.13,2.28-.08,3.3.14,1.04.21,2.22.74,3.3.62,1.94.11,3.89-.36,5.78-.7,1.6-.29,3.55.53,4.95-.48,1.84-1.06,3.72-2.34,5.78-2.93,4.03-.96,8.32-1.08,12.38-.29,4.14.8,8.37,1.55,12.38,2.9,1.86.61,3.83,1.33,5.78,1.59,1.61.1,3.35.01,4.95.13,2.98.39,6.06.9,9.08.58,5.33-.32,10.36-2.56,15.69-2.83,3.6-.15,7.21.6,10.73,1.22,2.73.44,5.54.83,8.26,1.36,2.16.3,4.44.42,6.6.72,4.69.56,9.24,2.6,14.03,2,2.2.01,4.53-.15,6.6-.91,1.42-.4,2.68-1.68,4.13-1.91,4.38-.3,8.85.08,13.21-.5"/><path class="b" d="M13.03,91.79c1.65-.42,3.38-1.05,4.95-1.7,1.53-.9,3.2-1.9,4.95-2.29,3.36-.31,6.58-1.57,9.91-1.99,1.05-.09,2.28.02,3.3.27,1.61-.09,3.34-.14,4.95-.03,1.91.14,3.89-.29,5.78-.55.74-.09,1.73-.18,2.48-.2.52.11,1.23-.1,1.65-.38,2.77-1.67,5.8-3.16,9.08-3.35,3.53-.77,7.2-.72,10.73-.03,2.75.5,5.58,1.03,8.26,1.86,2.48.77,4.93,1.92,7.43,2.63,1.85.52,3.89.16,5.78.21,2.45.13,4.97.55,7.43.41,4.99-.19,9.88-1.57,14.86-1.84,4.4-.24,8.83.4,13.21.69,2.74.06,5.53.41,8.26.71,2.17.1,4.46.09,6.6.46,4.11.76,8.12,2.56,12.38,2.25,2.18-.08,4.48-.15,6.6-.69,1.4-.31,2.77-1.18,4.13-1.61,3.01-.1,6.08-.48,9.08-.74,1.32-.12,2.82.12,4.13-.26"/><path class="b" d="M13.03,89.68c3.03-.94,6.04-2.2,9.08-3.07,1.6-.32,3.37-.19,4.95-.59,1.9-.42,3.85-1.07,5.78-1.35,1.04-.2,2.28.03,3.3-.23,2.98-.7,6.07-.12,9.08-.18,1.61-.14,3.34-.38,4.95-.54.75-.07,1.75-.04,2.48-.22.43-.23,1.23-.69,1.65-.92,2.01-1.28,4.28-2.01,6.6-2.45,3.73-1.21,7.71-1.47,11.56-.69,2.77.5,5.6,1.13,8.26,2.08,2.48.85,4.89,2.14,7.43,2.81,2.14.51,4.43.08,6.6.11,4.67.6,9.38.06,14.03-.43,4.12-.33,8.22-1.48,12.38-1.31,3.88-.01,7.67,1.38,11.56,1.14,1.61.02,3.34.29,4.95.28,1.89,0,3.91-.13,5.78.2,3.85.75,7.58,2.38,11.56,2.41,2.45.09,5.02-.13,7.43-.63,1.37-.21,2.74-1.18,4.13-1.2,2.48-.06,4.99-.59,7.43-.93.73-.18,1.75.11,2.48.19.72.07,1.76,0,2.48-.16"/><path class="b" d="M13.03,87.55c2.93-1.08,5.97-2.03,9.08-2.39,1.89-.15,3.92.12,5.78-.41,2.17-.5,4.38-1.29,6.6-1.51,1.88-.43,3.85-.99,5.78-1.13,2.73-.24,5.54.42,8.26.01,1.88-.27,3.89-.2,5.78-.13,1.15-.32,2.23-1.3,3.3-1.8,1.56-.73,3.39-1.12,4.95-1.85,3.93-1.61,8.28-1.76,12.38-.78,2.51.53,5.05,1.32,7.43,2.29,2.16.84,4.32,2.02,6.6,2.5,2.14.47,4.43.32,6.6.22,5.49.53,11.1.07,16.51-.99,3.27-.66,6.56-1.65,9.91-1.89,4.48-.23,8.96.86,13.21,2.18,2.99.45,6.09-.12,9.08.27,3.05.47,6.03,1.63,9.08,2.09,2.98.57,6.1.31,9.08-.1,1.36-.16,2.79-.79,4.13-1,1.91-.08,3.92-.38,5.78-.8.37-.08,1.26-.22,1.65-.28.37.11,1.26.29,1.65.37,1.02.19,2.28.23,3.3.03"/><path class="b" d="M13.03,85.4c2.88-1.12,5.98-1.75,9.08-1.73,2.18.02,4.46.47,6.6-.21,4.12-1.03,8.21-2.48,12.38-3.27,2.43-.41,4.98-.1,7.43-.15,2.73-.3,5.53-.1,8.26.1.77-.36,1.71-1,2.48-1.36,1.07-.44,2.34-.92,3.3-1.59,6.07-3.31,11.91-2.59,18.16-.28,3.54,1.27,6.9,3.36,10.73,3.65,2.17.23,4.44.11,6.6.38,3.28.01,6.69-.02,9.91-.74,3.89-.98,7.58-2.83,11.56-3.47,6.4-2.74,13.12.38,18.99,3.05.95.55,2.26.26,3.3.28,1.61-.03,3.36.08,4.95.36,3.56.61,7.09,1.91,10.73,1.97,3.03-.04,6.15-.24,9.08-1.08,2.21-.07,4.46-.53,6.6-1.01,1.85.46,3.87.92,5.78.59"/><path class="b" d="M13.03,83.25c3.21-1.34,6.53-1.22,9.91-.87,1.9.12,3.9.51,5.78-.03,4.46-1.09,8.75-2.93,13.21-4.01,2.14-.49,4.42-.57,6.6-.59,1.89-.05,3.89-.13,5.78.04,1.04.11,2.26.25,3.3.35.47.16,1.2.14,1.65-.04.71-.44,1.7-.95,2.48-1.27.41-.34,1.2-.97,1.65-1.26,1.5-.92,3.27-1.67,4.95-2.17,4.69-1.31,9.63.12,14.03,1.82,3.18,1.36,6.42,2.85,9.91,3.2,5.22.54,10.9,1.16,15.69-1.46,3.66-1.95,7.33-4.27,11.56-4.67,1.73-.97,3.78-1.65,5.78-1.48,4.5.33,8.48,2.86,12.38,4.91,2.09.99,4.2,2.65,6.6,2.57,5.56.03,10.92,2.3,16.51,1.78,1.91-.03,3.92-.27,5.78-.67,1.91-.08,3.92-.41,5.78-.84,2.13.48,4.41,1.07,6.6.71"/><path class="b" d="M13.03,81.06c1.55-.55,3.31-.92,4.95-.73,3.01.4,6.02,1.34,9.08,1.16,5.45-.7,10.41-3.53,15.69-4.93,3.74-.93,7.72-1.16,11.56-.85,1.91.2,3.97.31,5.78,1.02,1.43-.83,2.85-1.94,4.13-2.97,1.98-1.28,4.28-2.3,6.6-2.71,5.76-.9,11.25,1.77,16.51,3.73,3.43,1.19,7.11,1.73,10.73,1.74,5.57.23,9.46-3.91,14.03-6.34,1.77-.94,3.83-1.43,5.78-1.8,2.06-1.66,4.85-2.35,7.43-1.65,3.75.94,7.35,2.59,10.73,4.43,2.96,1.66,5.89,3.56,9.08,4.74,2.32,1.07,4.97.89,7.43,1.35,5.17.99,10.48.63,15.69.1,1.04-.09,2.27-.32,3.3-.49,2.42.48,4.95,1.17,7.43.79"/><path class="b" d="M13.03,78.63c4.75-1.21,7.15,1.12,11.56,1.79,2.83.3,5.65-.49,8.26-1.53,2.47-.89,4.99-1.9,7.43-2.87,6.5-2.48,13.97-3.28,20.64-1.02,7.8-6.44,11.58-7.68,21.46-4.58,5.03,1.67,10.28,3.88,15.69,3.09,5.93-.97,9.78-6.63,15.69-7.75.41-.09,1.24-.25,1.65-.31.4-.3,1.23-.88,1.65-1.14,2.27-1.48,5.05-.8,7.43.01,4.17,1.26,8.42,2.48,12.38,4.31,4.56,2.25,9,4.95,14.03,6.04,2.93.87,6.05.9,9.08.94,3.56.07,7.2-.01,10.73-.47,2.7.47,5.49,1.24,8.26.85"/><path class="b" d="M13.03,76.3c4.77-1,7.23,2,11.56,2.85,2.83.44,5.67-.27,8.26-1.39,2.17-.85,4.45-1.68,6.6-2.58,6.67-2.73,14.48-4.63,21.46-2.04,1.58-.52,2.84-2.01,4.13-3.01,2.18-1.58,4.75-2.88,7.43-3.28,8.19-1.04,15.77,4.56,23.94,3.45,3.35-.57,6.19-2.68,9.08-4.32,2.28-1.32,4.84-2.35,7.43-2.85,4.8-3.05,5.83-1.49,10.73-.19,4.98,1.18,10.05,2.28,14.86,4.07,4.67,1.74,9.15,4.17,14.03,5.3,5.67,1.14,11.57,1.58,17.34,1.05,2.99.41,6.04,1.27,9.08.9"/><path class="b" d="M13.03,74.05c5.04-1.03,7.72,2.71,12.38,3.4,4.24,1.54,9.16-1.86,13.21-3.11,6.95-2.7,14.89-5.69,22.29-3.07.52-.07,1.29-.59,1.65-.95,1.09-.75,2.24-1.79,3.3-2.57,1.97-1.33,4.24-2.47,6.6-2.87,5.02-.81,9.91,1.24,14.86,1.7,2.73.26,5.5,1.35,8.26.75,3.53-.66,6.64-2.73,9.91-4.13,1.82-.86,3.88-1.41,5.78-2.06.95-.6,2.18-1.14,3.3-1.29,2.58-.35,4.93,1.24,7.43,1.59,2.72.47,5.56.75,8.26,1.37,3.32.75,6.65,1.76,9.91,2.76,4.68,1.44,9.25,3.41,14.03,4.48,5.12,1.22,10.43,1.75,15.69,1.51,2.99.44,6.04,1.14,9.08.88"/><path class="b" d="M13.03,71.86c2.91-.61,4.84-.02,7.43,1.27,1.28.61,2.77,1.14,4.13,1.56.7.44,1.68,1,2.48,1.24,4.09,1,7.84-1.78,11.56-3.01,6.99-2.15,14.96-6.06,22.29-3.42,5.97-4.3,9.35-7.71,17.34-6.51,2.71.47,5.49.96,8.26.99,2.73.08,5.52.41,8.26.5,2.62.27,5.06-1.04,7.43-1.95,1.87-.78,3.87-1.54,5.78-2.22,1.25-.67,2.72-1.31,4.13-1.56,3.12-.68,6.03,1.09,9.08,1.34,3.57.32,7.23.39,10.73,1.24,7.2,1.87,14.27,4.33,21.46,6.21,5.38,1.41,10.94,2.35,16.51,2.19,2.99.44,6.05,1.02,9.08.87"/><path class="b" d="M13.03,69.69c1.04-.12,2.24-.51,3.3-.47,1.66.05,3.37.62,4.95,1.08,3.55.8,5.88,4.4,9.91,3.56,2.63-.41,5.04-1.81,7.43-2.9,1.92-.32,3.91-.91,5.78-1.45,4.3-1.22,8.68-2.73,13.21-2.48,1.07-.03,2.24.59,3.3.45,6.73-5.2,11.07-7.93,19.81-5.78,4.09.45,8.28.16,12.38.13,3.06-.09,6.19-.53,9.08-1.55,3.97-1.4,8.07-3.23,12.38-2.61,1.35.14,2.8.58,4.13.84,1.59.27,3.34.34,4.95.37,3.3.02,6.69.11,9.91.89,5.26,1.37,10.39,3.34,15.69,4.57,5.44,1.35,10.91,2.84,16.51,3.34,1.6.19,3.35.09,4.95.25,2.71.41,5.51.79,8.26.77"/><path class="b" d="M13.03,67.59c3.24-.74,6.8-1.37,9.91.2,3.11,1.47,6.25,4.08,9.91,3.09,2.28-.49,4.37-1.79,6.6-2.42,2.17-.3,4.46-.5,6.6-1.03,4.58-.99,9.32-2.82,14.03-1.57,2.2-1.37,4.31-3.1,6.6-4.33,3.23-1.69,7.1-2.63,10.73-1.98,4.27,1.29,8.83.73,13.21.57,3.03-.18,6.12-.53,9.08-1.2,3.54-.8,7.1-1.9,10.73-2.22,3.03-.33,6.11.12,9.08.7,2.16.3,4.43.29,6.6.21,2.73-.11,5.57-.07,8.26.5,5.02,1.12,9.84,3.13,14.86,4.28,5.19,1.15,10.41,2.46,15.69,3.16,2.15.33,4.44.35,6.6.53,2.43.34,4.97.62,7.43.68"/><path class="b" d="M13.03,65.66c6.04-1.35,8.08-2.18,14.03.47,2.32.95,4.95,1.46,7.43.88,1.88-.44,3.84-1.07,5.78-1.17,1.89-.04,3.9.06,5.78-.23,4.39-.58,8.74-2.26,13.21-1.52,2.01-.96,3.83-2.43,5.78-3.48,3.27-1.71,7.02-2.88,10.73-2.69,1.63.25,3.29.92,4.95,1,3,.26,6.08.05,9.08-.12,7.24-.3,14.25-2.55,21.46-3.09,2.76-.28,5.56.04,8.26.6,3,.23,6.08.38,9.08.04,7.16-.73,13.85,2.46,20.64,4.15,5.46,1.19,10.99,2.3,16.51,3.12,4.37.52,8.82.89,13.21,1.23"/><path class="b" d="M13.03,63.81c3.32-.44,6.53-1.86,9.91-1.91,3.33-.02,6.58,1.2,9.91,1.28,2.17.06,4.44-.11,6.6.04,2.17.08,4.43.5,6.6.39,2.76-.1,5.52-.8,8.26-1.13,1.33-.27,2.85.15,4.13-.26,1.74-.58,3.33-1.74,4.95-2.55,3.6-1.68,7.55-3.04,11.56-3.06,2.2.25,4.35,1.24,6.6,1.22,4.39.17,8.85-.12,13.21-.63,6.05-.8,12.06-2.18,18.16-2.47,3.02-.21,6.06.59,9.08.42,1.62,0,3.35.27,4.95.44,1.32-.14,2.8-.36,4.13-.45,3.32-.22,6.7.41,9.91,1.21,3.02.77,6.04,1.81,9.08,2.51,2.43.55,4.98.89,7.43,1.32,7.09,1.29,14.27,2.29,21.46,2.78"/><path class="b" d="M13.03,61.66c1.91-.18,3.93-.22,5.78-.78,3.22-.82,6.58-1.42,9.91-1.17,3.29.23,6.64.56,9.91.97,1.9.24,3.86.75,5.78.61,2.74.28,5.54.01,8.26-.33,1.32-.23,2.86.01,4.13-.42,1.71-.38,3.37-1.2,4.95-1.91,3.99-1.45,8.12-2.91,12.38-3.18,1.97-.07,3.84.96,5.78,1.16,4.09.47,8.29.15,12.38-.12,5.8-.53,11.54-1.78,17.34-2.29,2.44-.23,4.97-.68,7.43-.5,1.88.25,3.89.07,5.78.23,1.63.13,3.34.57,4.95.81,3.26-.55,6.62-.87,9.91-.36,4.48.48,8.8,2.02,13.21,2.89,3.54.63,7.19.95,10.73,1.53,5.76.86,11.54,1.84,17.34,2.37"/><path class="b" d="M13.03,59.32c1.62-.11,3.34.12,4.95.11,3.56-.75,7.02-2.41,10.73-2.24,4.12.28,8.28.78,12.38,1.2,4.63.68,9.39,1.18,14.03.29,1.65-.22,3.36-.74,4.95-1.22,1.89-.46,3.9-.92,5.78-1.46,3.19-.8,6.58-1.93,9.91-1.42,1.33.32,2.76.9,4.13,1.06,2.15.31,4.43.28,6.6.25,6.94.06,13.77-1.35,20.64-2.11,2.75-.2,5.52-.85,8.26-1.13,1.61-.19,3.35.03,4.95.09,2.5,0,5.01.67,7.43,1.25,1.04.12,2.27-.16,3.3-.29,6.67-1.05,13.3.81,19.81,1.99,4.09.58,8.29.72,12.38,1.34,5.23.68,10.46,1.68,15.69,2.36"/><path class="b" d="M13.03,55.98c1.88-.36,3.89-.43,5.78-.67,2.35-.84,5.01-1.34,7.43-.53,2.67.91,5.34,2.39,8.26,2.14,2.73-.19,5.52-.55,8.26-.54,1.06-.05,2.26.28,3.3.39,2.16.22,4.44.21,6.6.06,3.56-.37,7.2-.76,10.73-1.33,3.55-.69,7.09-1.99,10.73-1.99,2.25,0,4.37,1.18,6.6,1.34,8.84.83,17.67-.57,26.42-1.69,3.04-.26,6.06-1.1,9.08-1.44,1.89-.23,3.9,0,5.78.27,2.2.3,4.42,1.04,6.6,1.43,3.28-.16,6.61-.7,9.91-.47,4.98.03,9.89,1.26,14.86,1.5,8.62.08,17.14,1.49,25.59,3.05"/><path class="b" d="M13.03,52.8c2.68-.41,5.54-1.04,8.26-.7,5.31,1.86,7.33,8.26,14.03,5.25,2.87-1.27,5.93-2.26,9.08-2.52,1.32.17,2.8.2,4.13.2,1.9.03,3.89-.22,5.78-.26,2.73-.03,5.55.17,8.26-.22,4.13-.56,8.16-2.28,12.38-1.91,2.23.13,4.37,1.19,6.6,1.36,4.1.42,8.28.19,12.38-.08,5.52-.37,11.04-1.13,16.51-1.9,2.72-.44,5.49-1.13,8.26-1.19,4.76-.12,9.24,2.51,14.03,1.84,6.32-.54,12.67.06,18.99.3,3.83.02,7.73-.21,11.56.13,5.27.37,10.52,1.34,15.69,2.4"/><path class="b" d="M13.03,50.93c2.17-.05,4.44-.55,6.6-.41,5.28,3.9,7.88,11.18,15.69,6.53,3.01-1.75,6.32-3.61,9.91-3.52,2.18,0,4.43-.32,6.6-.32,2.73.14,5.52.46,8.26.45,3.92-.07,7.74-1.26,11.56-2.04,1.89.04,3.91,0,5.78.34,1.89.38,3.83,1.08,5.78,1.19,3.56.37,7.18-.09,10.73-.33,6.89-.44,13.82-.99,20.64-2.1,2.7-.44,5.54-.71,8.26-.27,4.35.92,8.73,2.06,13.21,1.68,7.42-.24,14.88-.18,22.29-.8,6.93-.34,13.89.66,20.64,2.19"/><path class="b" d="M13.03,50.19c1.89.13,3.89.17,5.78.2,1.22.71,2.24,2.1,3.3,3.01,1.61,1.48,3.6,2.8,5.78,3.21,4.27.91,7.85-2.11,11.56-3.65,1.01-.35,2.26-.16,3.3-.27,1.62-.09,3.35-.37,4.95-.58,3.27-.72,6.62.05,9.91.26,3.02.29,6.12-.04,9.08-.67,1.89-.39,3.88-.86,5.78-1.25,1.61.05,3.35.17,4.95.32,3.29.4,6.55,1.55,9.91,1.27,2.46-.11,4.96-.72,7.43-.83,4.38-.08,8.83-.06,13.21-.4,4.4-.28,8.79-1.26,13.21-1.2,2.48,0,4.97.67,7.43.89,1.67-.06,3.3.77,4.95.9,4.66.37,9.38-.15,14.03-.48,4.95-.33,9.9-1.15,14.86-1.33,5.55-.12,11.12.64,16.51,1.91"/><path class="b" d="M13.03,49.33c1.62.22,3.35.48,4.95.8,1.15.46,2.2,1.54,3.3,2.1,1.49.83,3.25,1.34,4.95,1.43,1.93.13,3.95-.2,5.78-.82,2.72.28,5.56.27,8.26-.25,2.74-.55,5.51-1.32,8.26-1.84.74-.15,1.74-.37,2.48-.52,1.05.04,2.26.27,3.3.38,3.27.4,6.62.82,9.91.38,3.6-.33,7.14-1.56,10.73-1.82,3.3.23,6.63.73,9.91,1.21,2.19.25,4.47-.11,6.6-.6,2.18-.06,4.42.51,6.6.52,6.34.07,12.69-.58,18.99-1.18,3-.26,6.09-.28,9.08.07,1.6.23,3.36.06,4.95.24,3.41,1.31,7.12,1.44,10.73,1.13,7.18-.5,14.3-1.96,21.46-2.57,5.26-.29,10.57.36,15.69,1.55"/><path class="b" d="M13.03,47.91c1.05.17,2.27.43,3.3.71.73.42,1.69.97,2.48,1.27,1.01.4,2.24.56,3.3.73.74.27,1.72.61,2.48.83,5.09,1.31,10.57,1.08,15.69.06,2.76-.57,5.52-1.42,8.26-2.08,1.04-.26,2.26-.57,3.3-.81.76-.09,1.73.15,2.48.25,9.28,1.7,12.58.5,21.46-.91,3-.49,6.08.31,9.08.43,2.45.17,4.98-.18,7.43.2,7.64,1.56,15.43.42,23.12-.21,2.72-.23,5.53-.39,8.26-.35,2.45.05,4.99.21,7.43-.05,1.91.39,3.84,1.18,5.78,1.45,3.83.44,7.76-.05,11.56-.58,5.51-.71,10.98-1.98,16.51-2.46,4.7-.3,9.45.32,14.03,1.3"/><path class="b" d="M13.03,46.41c1.49.88,3.21,1.67,4.95,1.78.77.04,1.75-.15,2.48.15,1.84.75,3.81,1.51,5.78,1.82,1.88.25,3.89.25,5.78.2,5-.18,9.97-1.15,14.86-2.15,1.62-.34,3.34-.8,4.95-1.17.43-.09,1.22-.26,1.65-.33.43.08,1.23.23,1.65.29,10.68,2.48,14.63.4,24.77-.5,4.42-.42,8.85.32,13.21.95,2.15.41,4.4.9,6.6.99,5.23.08,10.48-.68,15.69-1.11,4.1-.41,8.27-.48,12.38-.51,1.33.02,2.81-.32,4.13-.15,2.19.41,4.4,1.2,6.6,1.49,4.13.43,8.33-.02,12.38-.85,4.42-.61,8.8-1.73,13.21-2.36,4.95-.6,9.99.08,14.86.96"/><path class="b" d="M13.03,45.92c2.19.83,4.44.37,6.6-.24,4.29,2.01,7.68,2.61,12.38,2.24,5.24-.43,10.46-1.42,15.69-2.05,2.45-.29,4.95-.94,7.43-1,1.89.4,3.87.92,5.78,1.26,9.08,1.87,18.14-1.83,27.24-.83,3.6.42,7.15,1.48,10.73,2.01,2.16.3,4.44.14,6.6-.04,6.87-.6,13.73-1.69,20.64-1.75,1.61-.03,3.35-.15,4.95-.34,1.63.17,3.39.5,4.95.97,3.04,1.48,5.82,1.39,9.08.8,3.01-.43,6.1-.73,9.08-1.34,10.89-2.3,13.26-3.36,24.77-1.28"/><path class="b" d="M13.03,44.66c1.35.14,2.86-.07,4.13-.54.75-.27,1.67-.85,2.48-.93,2.6,1.16,5.37,2.3,8.26,2.37,5.52.27,11.06-.7,16.51-1.5,2.71-.42,5.52-.79,8.26-.99,1.04-.07,2.26-.04,3.3-.09,1.06.09,2.27.49,3.3.73,8,2.28,15.08,1.36,23.12.27,3.28-.34,6.7-.29,9.91.57,10.36,2.5,7.75,3.22,18.99,1.34,6-.92,12.09-1.48,18.16-1.54,2.8-.17,5.55.95,8.26,1.5,2.79.42,5.54-.69,8.26-1.11,2.43-.38,4.99-.25,7.43-.51,3.64-.26,7.19-1.33,10.73-2.13,4.91-1.02,10-.42,14.86.56"/><path class="b" d="M13.03,42.92c1.38-.05,2.88-.45,4.13-1.02.74-.34,1.68-.95,2.48-1.16,2.36,1.02,4.84,2.13,7.43,2.39,5.21.52,10.5-.05,15.69-.63,5.98-.84,12.23-2.12,18.16-.43,8.75,2.21,14.4,1.74,23.12.43,2.64-.16,5.82-.53,8.26.65,3.63,2.23,7.14,4.33,11.56,3.12,2.74-.61,5.49-1.52,8.26-2.01,2.97-.55,6.07-.69,9.08-.82,4.66-.18,9.43-.5,14.03.41,3.4.74,6.69-.85,9.91-1.67,3.25-.7,6.63.06,9.91-.13,1.89-.08,3.91-.21,5.78-.52,1.58-.49,3.32-1,4.95-1.29,4.37-.73,8.9-.34,13.21.61"/><path class="b" d="M13.03,41.01c2.35-.23,4.61-1.29,6.6-2.49,2.39.95,4.86,2.03,7.43,2.35,4.92.55,9.93.26,14.86-.03,3.84-.35,7.69-1.17,11.56-1.22,1.04-.01,2.26.12,3.3.15,1.34-.06,2.82.03,4.13.35,4.13.72,8.23,1.89,12.38,2.42,3.56.44,7.18-.09,10.73-.38,2.49-.16,5.12.1,7.43,1.09,3.78,1.68,7.35,3.91,11.56,2.13,12.61-5.63,12.89-3.37,25.59-3.77,3.04-.33,6.13.51,9.08-.16,3.1-.53,5.91-2.4,9.08-2.52,2.19-.07,4.43.49,6.6.65,2.44.22,4.98.21,7.43.11,1.95-.08,3.83-1.13,5.78-1.33,4.11-.58,8.35-.39,12.38.59"/><path class="b" d="M13.03,39.05c2.31-.23,4.57-1.16,6.6-2.23,1.67-.03,3.31,1.06,4.95,1.37,2.39.66,4.97.73,7.43.79,5.23.08,10.51.13,15.69-.67,3.27-.53,6.62-.52,9.91-.13,1.62.08,3.36-.15,4.95.25,4.5,1.9,9.17,3.7,14.03,4.36,4.09.65,8.3-.28,12.38.36,4.08.61,8.25,3.31,12.38,1.65,4.82-2.25,9.25-6.13,14.86-6.02,3.03,0,6.06.81,9.08.98,3.24-.67,6.64-.41,9.91-.68,3.12-.49,6.09-1.83,9.08-2.77,2.45-.61,5.02.08,7.43.59,2.69.51,5.52.73,8.26.79.72.02,1.76.06,2.48-.06,1.28-.5,2.77-.96,4.13-1.19,4.1-.59,8.36-.52,12.38.52"/><path class="b" d="M13.03,37.18c2.58-.18,5.15-1.09,7.43-2.28,3.14,1.23,6.53,1.95,9.91,1.92,3.56.04,7.17.07,10.73.11,3.3,0,6.62-.62,9.91-.89,1.05-.12,2.26.14,3.3.19,1.62-.05,3.34.23,4.95.33,2.61.06,5.07,1.32,7.43,2.31,3.48,1.49,7.04,3,10.73,3.86,3.77.97,7.72.56,11.56.91,3.53.31,7.22,1.52,10.73.59,3.13-1.06,5.47-3.7,8.26-5.38,6.51-4.29,9.56-3.09,16.51-1.4,3.18-1.02,6.63-.66,9.91-1.04,3.38-.48,6.61-1.86,9.91-2.66,2.5-.42,5.02.48,7.43,1.03,2.68.6,5.51.87,8.26,1,.74.04,1.78.14,2.48-.17,1.27-.55,2.76-1.03,4.13-1.27,4.09-.55,8.37-.48,12.38.54"/><path class="b" d="M13.03,35.37c2.88.06,5.59-1.14,8.26-2.05,5.26,2.14,10.99,1.26,16.51,1.43,4.12.2,8.29-.02,12.38-.57,2.97.72,6.06.61,9.08.48,1.35.48,2.77,1.24,4.13,1.71,1.03.4,2.31.71,3.3,1.2,4.06,1.81,8.08,3.92,12.38,5.09,3.2.92,6.61.91,9.91,1.07,3.82.08,8.07.73,11.56-1.18,2.13-1.23,3.92-3.16,5.78-4.75,3.03-2.49,6.64-4.95,10.73-4.77,1.36.05,2.85.41,4.13.86,1.04.28,2.21,1.13,3.3.8,3.73-1.15,7.76-.3,11.56-1.1,1.91-.34,3.91-.82,5.78-1.33,1.83-.62,3.91-.67,5.78-.22,3.23.88,6.55,1.71,9.91,1.85,1.32,0,2.89.41,4.13-.16,3.02-1.59,6.52-2.18,9.91-1.89,2.47,0,5.02.26,7.43.84"/><path class="b" d="M13.03,33.49c1.92.13,3.94-.18,5.78-.71,1.06-.27,2.22-.86,3.3-.99,2.11.66,4.38,1.16,6.6,1.14,2.45-.02,4.98-.23,7.43-.25,3.28-.04,6.63.11,9.91,0,1.33-.03,2.8-.22,4.13-.21,1.87.36,3.87.64,5.78.62,1.04,0,2.27-.11,3.3,0,1.66.64,3.32,1.64,4.95,2.36,1.84.9,3.93,1.54,5.78,2.41,3.99,1.9,8.01,4.05,12.38,4.91,2.42.46,4.97.57,7.43.57,3.36.05,6.85-.38,9.91-1.85,2.85-1.7,4.95-4.5,7.43-6.65,5.23-4.48,10.15-5.93,16.51-2.6,4.57-1.23,9.4.12,14.03-.74,1.91-.22,3.87-.8,5.78-1.05,3.38-.26,6.58,1.39,9.91,1.7,1.32.16,2.8.24,4.13.25,1.08.03,2.4.08,3.3-.63,3.21-1.94,7.04-2.54,10.73-2.15,2.46.2,5.02.37,7.43.91"/><path class="b" d="M13.03,31.52c2.18.29,4.48.08,6.6-.43,1.32-.22,2.79-1.12,4.13-.64,4.6,1.24,9.37.3,14.03.19,4.11-.14,8.27.13,12.38.02,2.17.17,4.42.56,6.6.47.43,0,1.23-.03,1.65-.03.83.17,1.76.84,2.48,1.25,1.58.94,3.31,1.92,4.95,2.76,3.68,2.02,7.78,3.18,11.56,4.95,4.11,1.84,8.73,2.6,13.21,2.12,2.65-.42,5.2-1.62,7.43-3.07,2.18-1.43,4.29-3.19,6.6-4.42,3.8-3.99,9.05-7.78,14.86-6.62,1.39.28,2.86.9,4.13,1.54,1.89.06,3.89-.05,5.78.22,2.45.18,4.97.6,7.43.51,2.2,0,4.43-.62,6.6-.79,1.92-.07,3.92.42,5.78.83,1.59.26,3.36.04,4.95.42,1.6.24,3.59.34,4.95-.68,1.99-1.25,4.25-2.37,6.6-2.67,4.39-.48,8.87.26,13.21.9"/><path class="b" d="M13.03,29.48c3.58.68,7.24.06,10.73-.75,3.53.7,7.17.64,10.73.23,5.2-.6,10.47-.46,15.69-.08,2.17.12,4.44.21,6.6.47.75.09,1.76.21,2.48.46.42.27,1.23.81,1.65,1.07,6.98,4.68,14.69,8.66,23.12,9.78,9.83,1.72,14.53-9.73,23.12-11.99,1.71-.39,3.33-1.35,4.95-1.97,2.61-.89,5.53-1.31,8.26-.75,1.98.33,3.76,1.7,5.78,1.82,3.54.56,7.16,1.09,10.73,1.44,1.9.16,3.9-.15,5.78-.38,1.32-.13,2.81.09,4.13.08,2.99-.75,6.12-.29,9.08.35,2.45-1.22,4.7-3.11,7.43-3.72,5.16-.98,10.53.01,15.69.63"/><path class="b" d="M13.03,27.92l.83-.36c3.55.56,7.2.26,10.73-.32,3.28.22,6.63.31,9.91-.09,3.27-.31,6.61-.74,9.91-.65,4.96.32,9.96.88,14.86,1.69,4.97,3.38,9.93,7.03,15.69,8.96,9.85,3.26,13.61,1.35,20.64-5.68,5.78-5.99,10.51-5.83,18.16-7.11,7.97-1.6,9.61,1.05,16.51,2.8,3.26.42,6.62.84,9.91.72,3.01-.35,6.04-1.16,9.08-1.24,1.33-.09,2.8.27,4.13.3,1.03-.29,2.32-.46,3.3-.88,1.75-1.1,3.72-2.2,5.78-2.57,2.7-.46,5.54-.32,8.26-.12,2.73.19,5.54.4,8.26.78"/><path class="b" d="M13.03,28.7c2.96-1.06,5.98-2.24,9.08-2.8,5.21-.36,10.49-.2,15.69-.85,2.72-.28,5.52-.71,8.26-.53,4.42.41,8.85,1.21,13.21,2.04,3.64,2.05,6.85,5.02,10.73,6.7,5.9,2.79,12.73,3.31,18.16-.79,4-2.79,7.17-7.58,12.38-8.04,2.45-.18,5-.12,7.43-.52,4.89-.78,9.89-2.45,14.86-1.19,2.76.65,5.43,1.93,8.26,2.31,2.71.37,5.53.49,8.26.5,3-.21,6.06-.7,9.08-.72,1.06.08,2.27-.4,3.3-.6,1.31-.27,2.8-.47,4.13-.61,1.86-.73,3.73-1.85,5.78-2.01,5.76-.56,11.59.21,17.34.59"/><path class="b" d="M13.03,28.88c5.08-1,9.94-2.97,14.86-4.53,1-.39,2.25-.18,3.3-.26,1.62-.04,3.35-.22,4.95-.45,3-.38,6.06-1.01,9.08-1.18,2.77-.07,5.56.53,8.26,1.08,2.18.44,4.46.84,6.6,1.42,1.62,1.1,3.31,2.38,4.95,3.43,5.08,3.55,11.8,4.64,17.34,1.46,3.5-1.68,6.56-4.22,9.91-6.16,5.92-3.1,8.18,1.88,17.34-.53,2.22-.54,4.4-1.53,6.6-2.13,4.42-1.09,8.92.63,13.21,1.57,4.35.78,8.82.45,13.21.3,3.35-.2,6.56-1.55,9.91-1.71,1.03-.07,2.27-.11,3.3-.13,1.53-.65,3.28-1.17,4.95-1.25,6.04-.31,12.12.32,18.16.48"/><path class="b" d="M13.03,28.35c3.64-.37,7.26-1.26,10.73-2.39,2.45-.84,4.92-1.84,7.43-2.48,1.89-.71,3.79-1.06,5.78-1.34,2.18-.42,4.44-.9,6.6-1.35,3.86-.9,7.8.15,11.56,1.02,1.9.46,3.97.78,5.78,1.54,1.03.71,2.25,1.57,3.3,2.26,6.96,4.7,11.83,2.87,18.16-1.6,3.64-2.17,8.07-4.87,12.38-3.05,2.14.88,4.28,2.11,6.6,2.44,3.6.42,7.34-.42,10.73-1.6,2.91-1.02,5.86-3.33,9.08-2.38,3.6.18,7.12,1.42,10.73,1.48,1.93.15,3.87-.71,5.78-.86,3.56-.28,7.21-.36,10.73-1.05,2.15-.3,4.44-.2,6.6-.14,1.61-.14,3.31-.71,4.95-.63,6.32.01,12.67.39,18.99.36"/><path class="b" d="M13.03,27.2c7.4-.6,14.48-3.1,21.46-5.44,2.38-.95,4.95-1.55,7.43-2.16,2.12-.61,4.36-1.32,6.6-1.15,4.2.36,8.32,1.66,12.38,2.7,1.95,1.01,3.75,2.53,5.78,3.4,9.98,4.36,13.25-9.32,23.12-6.45,3.93,1.26,7.22,4.52,11.56,4.42,3.89-.04,7.88-.7,11.56-1.97,3.12-1.12,5.57-3.74,9.08-2.38,3.01.22,6.05.88,9.08.86,1.91-.38,3.83-1.25,5.78-1.54,2.14-.4,4.44-.34,6.6-.48,2.17-.08,4.43-.35,6.6-.31,1.89-.01,3.9.3,5.78.15,3.27-.35,6.63.13,9.91.17,4.39.16,8.82.09,13.21-.03"/><path class="b" d="M13.03,25.54c5.05-.47,9.89-2.29,14.86-3.2,2.56-.33,4.96-1.5,7.43-2.19,2.48-.65,4.98-1.48,7.43-2.22,1.31-.48,2.74-1.08,4.13-1.3,2.47-.39,5.03.12,7.43.69,2.46.59,5,1.21,7.43,1.89,2.36,1.32,4.67,3.18,7.43,3.53,4.95.57,7.92-4.14,11.56-6.57,5.59-3.42,10.63,2.42,15.69,4.13,2.36.79,4.97.77,7.43.59,3.32-.3,6.78-.63,9.91-1.86,1.68-.65,3.26-1.86,4.95-2.48.73-.24,1.76-.24,2.48.05.35.26,1.21.5,1.65.46,1.61.08,3.35.22,4.95.31,1.05,0,2.35.19,3.3-.36,2.37-.87,4.89-1.67,7.43-1.85,3.83-.22,7.73-.27,11.56-.14,2.45.16,4.98.2,7.43.27,2.17.16,4.43.39,6.6.47,4.94.2,9.93.03,14.86-.24"/><path class="b" d="M13.03,23.32c2.83,0,5.57-1.35,8.26-2.11,3.18-1.08,6.56-1.68,9.91-1.82,1.4,0,2.76-.88,4.13-1.12,1.89-.37,3.93-.53,5.78-1.08,2.75-.79,5.3-2.6,8.26-2.53,4.49.09,8.87,1.56,13.21,2.57,2.74,1.54,5.76,3.83,9.08,3.02,3.48-.88,5.62-4.08,8.26-6.23,2.96-2.35,6.25-1,9.08.8,2.34,1.41,4.77,2.94,7.43,3.64,2.93.78,6.07.75,9.08.6,2.77-.17,5.66-.5,8.26-1.53,1.68-.64,3.25-1.85,4.95-2.42,1.44-.52,2.79.46,4.13.79,1.03.02,2.27.01,3.3.03,1.34.03,2.89.09,4.13-.51,2.14-.66,4.37-1.44,6.6-1.69,5.2-.53,10.48-.15,15.69,0,3.58-.06,7.16.69,10.73.86,5.21.24,10.48-.09,15.69-.41"/><path class="b" d="M13.03,20.36c.75.05,1.73.16,2.48.19,1.06-.33,2.27-.81,3.3-1.22,2.4-.96,4.89-1.97,7.43-2.51,2.42-.55,4.97-.42,7.43-.37,1.33-.2,2.77-.6,4.13-.56,1.91-.03,3.91-.42,5.78-.81,7.04-4.25,12.55-1.12,19.81.14,2.55,1.33,5.24,3.26,8.26,2.96,3.52-.54,5.86-3.62,8.26-5.96,2.95-2.79,6.03-1.5,9.08.31,2.09,1.17,4.31,2.36,6.6,3.06,2.91.93,6.05,1.18,9.08,1.29,2.75.05,5.62-.19,8.26-1,2.23-.59,4.24-2.3,6.6-2.34,1.4.08,2.74,1.03,4.13,1.11,1.32-.06,2.81-.08,4.13-.18,3.49-.98,7.09-2.06,10.73-2.21,4.39-.23,8.82.18,13.21.16,3.32-.25,6.62.59,9.91.89,5.76.47,11.58-.16,17.34-.45"/><path class="b" d="M13.03,17.63c1.04.06,2.26.15,3.3.27.77-.19,1.74-.57,2.48-.84,2.68-1.03,5.46-2.02,8.26-2.67,1.86-.44,3.86-.82,5.78-.84,1.9.07,3.89-.12,5.78-.28,2.17-.21,4.47.4,6.6-.08,6.58-4.32,12.17-1.08,18.99.34,2.7.9,5.31,2.71,8.26,2.57,2.61-.23,4.81-2.09,6.6-3.87,1.17-1.25,2.49-2.72,4.13-3.33,3.44-1.07,6.72,1.38,9.91,2.35,2.19,2.01,4.25,3.92,7.43,3.89,1.99.16,3.92-.65,5.78-1.22,1.89-.01,3.91,0,5.78-.33,1.93-.3,3.85-1.13,5.78-1.45,1.05-.13,2.29.12,3.3.36,1.03.23,2.24.66,3.3.75.73-.06,1.75-.13,2.48-.21.72-.24,1.73-.53,2.48-.67,3.56-.47,7.12-1.42,10.73-1.32,4.67-.01,9.37.42,14.03.06,2.47.12,4.96.9,7.43,1.05,3.28.34,6.63.11,9.91-.16,2.44-.15,4.99-.16,7.43-.35"/></svg>