<?xml version="1.0" encoding="UTF-8"?><svg id="a" xmlns="http://www.w3.org/2000/svg" width="1920" height="2400" viewBox="0 0 192 240"><defs><style>.b{fill:none;stroke:#fff;stroke-miterlimit:10;stroke-width:.3px;}.c{stroke-width:0px;}</style></defs><rect class="c" width="192" height="240"/><path class="b" d="M10.78,226.37c3.69.38,7.46.72,11.02,1.81,3.72.92,7.27,2.63,11.02,3.38,3.96.79,7.41-1.7,11.02-2.81,2.18-.79,4.56-.5,6.78-.07.76.12,1.78.25,2.54.29.79-.33,1.81-.9,2.54-1.33,2.22-1.3,4.44-2.83,6.78-3.91,4.32-2.91,9.19-1.02,13.57.69,2.95,1.19,6.13,2.01,9.33,2.09,5.38.19,10.75-.69,16.11-.9,6.01-.17,11.99,1.03,17.81,2.43,5.82,1.41,11.76,3,17.81,2.73,3.44,0,6.8-1.12,10.18-1.49,1.63.34,3.45.35,5.09.7,2.78.57,5.63,1.34,8.48,1.43,6.85.15,13.51-2.22,20.35-2.3"/><path class="b" d="M10.78,224.37c4.57.47,9.19.99,13.57,2.44,4.14,1.08,8.33,3.32,12.72,2.49,3.43-.75,6.58-2.93,10.18-2.94,1.67.04,3.44.39,5.09.58.88-.14,1.82-.88,2.54-1.37,1.65-1.16,3.35-2.53,5.09-3.56,6.22-3.82,10.53-.2,16.11,2.55,2.61,1.27,5.59,1.8,8.48,1.57,6.21-.54,12.39-2.02,18.66-1.89,8.06.02,15.95,1.88,23.74,3.71,6.13,1.43,12.52,1.41,18.66.06,1.92-.37,3.99-.57,5.94-.33,3.36.78,6.69,2.07,10.18,2.17,6.58.06,12.95-2.25,19.5-2.61"/><path class="b" d="M10.78,222.95c4.85-.57,9.76.71,14.42,1.99,3.6.96,7.24,2.48,11.02,2.33,4.08-.2,7.72-2.92,11.87-2.65,1.37-.03,2.9.56,4.24.18,2.3-1.58,4.38-3.67,6.78-5.1,2.29-1.39,5.13-1.23,7.63-.58,3,1.22,5.62,3.36,8.48,4.86,2.58,1.37,5.61,1.73,8.48,1.31,7.28-1.2,14.63-2.51,22.05-2.26,4.54.08,9.11.56,13.57,1.42,3.67.69,7.33,1.72,11.02,2.31,5.05.95,10.22.48,15.26-.23,3.11.15,6.2,1.1,9.33.9,2.75.65,5.64,1.24,8.48,1.1,6.02-.38,11.77-2.73,17.81-3.12"/><path class="b" d="M10.78,221.39c4.56-.71,9.15.06,13.57,1.23,3.89.98,7.81,2.43,11.87,2.47,2.91.05,5.69-1.12,8.48-1.78,1.91-.47,4-.41,5.94-.16.95-.11,1.83-1.02,2.54-1.58,1.86-1.5,3.68-3.39,5.94-4.28,2.25-.78,4.67.09,6.78.92,2.81.81,5.16,2.67,7.63,4.16,5.06,3.43,10.6,1.49,16.11.73,6.45-.88,12.99-1.59,19.5-1.4,3.96.14,7.97.61,11.87,1.32,3.66.68,7.32,1.69,11.02,2.16,3.07.41,6.25.43,9.33.14,1.95.1,3.99.64,5.94.84,3.36.48,6.77,1.53,10.18.75,1.06-.13,2.33.17,3.39.2,1.65.09,3.45,0,5.09-.26,5.12-.86,10.04-2.94,15.26-3.25"/><path class="b" d="M10.78,219.65c3.95-.43,7.99-.34,11.87.57,4.78.94,9.49,2.73,14.42,2.7,4.28,0,8.4-2.04,12.72-1.42,3.51-1.68,5.92-6.23,10.18-6.13,3.07.41,5.62,2.54,8.48,3.59.75.29,1.77.62,2.54.83,2.11,1.23,4.34,2.62,6.78,3.07,3.66.58,7.39-.41,11.02-.79,7.31-.93,14.65-2.14,22.05-1.8,3.96.07,7.97.65,11.87,1.3,3.37.62,6.76,1.5,10.18,1.87,2.22.31,4.56.16,6.78.28,3.03.88,6.22,1.45,9.33,2.01,1.94.33,3.96.93,5.94.93,1.97.02,4.04-.35,5.94-.89,2.24-.12,4.59-.25,6.78-.78,4.53-1.07,8.85-3.04,13.57-3.23"/><path class="b" d="M10.78,217.75c3.66-.2,7.4-.24,11.02.4,4.25.65,8.44,1.96,12.72,2.45,3.38.42,6.83,0,10.18-.51,1.36-.24,2.89-.08,4.24-.31,2.69-1.59,4.87-4.09,7.63-5.56,1.63-.85,3.57-.39,5.09.49,4.06,2.51,6.97,4.47,11.87,4.98,3.43,1.9,7.21,2.1,11.02,1.63,5.68-.47,11.32-1.57,16.96-2.34,3.64-.2,7.37-.07,11.02-.19,2.81-.04,5.69.48,8.48.77,3.4.41,6.79,1.27,10.18,1.79,2.2.44,4.59.24,6.78.63,3.59,1.17,7.32,2.1,11.02,2.81,2.49.49,5.07,1.15,7.63.94,2.6-.13,5.19-.91,7.63-1.74,1.97-.27,4.04-.76,5.94-1.35,1.68-.5,3.43-1.24,5.09-1.81,1.91-.45,3.97-.9,5.94-.97"/><path class="b" d="M10.78,215.75c4.53-.09,9.1.2,13.57.98,4.22.62,8.45,1.71,12.72,1.9,2.23.1,4.56-.03,6.78-.17,1.07-.09,2.34-.03,3.39-.22.45-.17,1.28-.58,1.7-.82,2.2-1.15,3.81-3.3,5.94-4.54,2.53-1.32,5.54-.36,7.63,1.36,2.51,1.81,5.43,3.23,8.48,3.83,1.35.36,2.93.11,4.24.55,6.22,2.53,14.71.71,21.2-.37,1.64-.32,3.43-.61,5.09-.86,1.94-.03,3.99.13,5.94.04,2.51-.05,5.12-.18,7.63-.23,3.08.36,6.26.6,9.33,1.06,2.52.39,5.1.99,7.63,1.32,1.97.23,4.08.21,5.94,1,4.7,1.55,9.53,2.84,14.42,3.65,3.67.67,7.51.1,11.02-1.05,1.08-.36,2.36-.86,3.39-1.33,1.38-.34,2.9-.81,4.24-1.29,1.38-.49,2.89-1.15,4.24-1.71,1.91-.46,3.96-.96,5.94-.96"/><path class="b" d="M10.78,213.8c3.37.11,6.8.5,10.18.7,5.64.69,11.3,1.57,16.96,2.07,3.41.05,7.17.58,10.18-1.41,2.24-1.3,4.11-3.68,6.78-4.1,2.29-.13,4.7.57,6.78,1.45,2.33,1.51,4.96,2.71,7.63,3.45,1.89.51,3.97.83,5.94.71,1.9.59,3.94,1.15,5.94,1.29,4.81.39,9.68-.27,14.42-1.07,2.22-.41,4.55-.82,6.78-1.17,1.94.12,3.99.24,5.94.17,2.52-.03,5.12-.26,7.63-.29,3.65.44,7.4.57,11.02,1.21,1.65.29,3.43.64,5.09.87,1.7.12,3.48.52,5.09,1.09,5.8,1.83,11.69,3.86,17.81,4.2,3.44.04,6.94-.66,10.18-1.79,2.54-.98,5.08-2.22,7.63-3.19,2.59-1.32,5.55-2.16,8.48-2.12"/><path class="b" d="M10.78,212.16c4.78.56,9.65.48,14.42,1.15,3.36.39,6.8.64,10.18.86,2.79.12,5.71.48,8.48-.02,5.06-.84,7.19-5.57,12.72-3.99,1.94.4,4.03.71,5.94,1.29,2.15,1.01,4.48,1.9,6.78,2.5,2.18.61,4.53.82,6.78.87,1.64.39,3.41.81,5.09,1.02,7.09.85,14.22-.43,21.2-1.56,1.06-.25,2.32-.22,3.39-.08,1.65.11,3.44.09,5.09.03,2.81-.14,5.68-.4,8.48.01,3.38.22,6.84.41,10.18,1.1,4.96.61,9.65,2.48,14.42,3.88,3.82,1.18,7.84,2.09,11.87,1.95,3.72-.25,7.51-.99,11.02-2.25,4.74-1.78,9.12-5.37,14.42-5.1"/><path class="b" d="M10.78,210.77c3.65.3,7.37.42,11.02.53,3.65.35,7.35.78,11.02.83,3.93-.02,8.02.54,11.87-.48,2.05-.56,3.96-1.78,5.94-2.52,1.32-.5,2.86-.44,4.24-.34,1.95.11,4.01.32,5.94.65,3.75.56,7.27,2.25,11.02,2.84,1.64.36,3.44.34,5.09.55,3.9.72,7.9,1.26,11.87,1.23,5.4.09,10.79-.7,16.11-1.52,1.35-.25,2.88.05,4.24.03,2.23.03,4.56-.1,6.78-.26,5.37.42,10.83.29,16.11,1.52,6.03,1.26,11.71,4.03,17.81,5.03,5.68.97,11.46-.38,16.96-1.77,2.95-.91,5.7-2.56,8.48-3.88,1.92-.55,3.96-1.19,5.94-1.47"/><path class="b" d="M10.78,209.51c3.94.13,7.93.26,11.87.3,3.93.35,7.92.76,11.87.61,3.09-.1,6.28.02,9.33-.53,2.31-.43,4.5-1.6,6.78-2.09,3.61-.72,7.4-.71,11.02-.08,3.97.7,7.9,1.85,11.87,2.54,6.2.65,12.42,1.63,18.66,1.85,5.4.32,10.77-.74,16.11-1.31,1.93-.12,4,.07,5.94-.09,2.23-.09,4.55.19,6.78.15,3.98-.13,7.98.22,11.87,1.05,6.54,1.5,12.7,4.73,19.5,5.06,4.56.32,9.11-.95,13.57-1.72,3.31-.6,6.33-2.28,9.33-3.73,1.92-.54,4-.95,5.94-1.4"/><path class="b" d="M10.78,208.38c3.08-.14,6.24.02,9.33-.01,3.1-.1,6.24.2,9.33.43,4.51.17,9.07-.19,13.57-.43,3.18-.34,6.24-1.6,9.33-2.34,2.47-.58,5.11-.79,7.63-.55,4.01.38,7.91,1.68,11.87,2.35,4.19.72,8.5.8,12.72,1.31,3.93.5,7.9,1.2,11.87,1.29,3.96.08,7.94-.56,11.87-.99,3.92-.45,7.93-.25,11.87-.35,2.23-.06,4.55-.28,6.78-.19,2.53.19,5.15.54,7.63,1.07,6.42,1.85,12.7,4.79,19.5,4.81,4.27-.09,8.53-1.03,12.72-1.81,2.98-.52,5.73-1.99,8.48-3.16,1.93-.44,4.01-.76,5.94-1.25"/><path class="b" d="M10.78,207.23c4.79-.17,9.63-.25,14.42-.26,3.94.27,7.93.44,11.87.07,3.68-.18,7.51.28,11.02-1.14,6.96-2.77,11.36-3.32,18.66-1.36,4.42,1.23,9.02,1.68,13.57,2.17,1.94.17,4.01-.07,5.94.29,4.49.68,9,1.83,13.57,1.69,3.39-.05,6.81-.57,10.18-.86,3.08-.28,6.25-.31,9.33-.54,2.52-.18,5.1-.63,7.63-.68,2.25-.03,4.56.44,6.78.71,7.59,1.78,14.87,5.9,22.9,5.14,4.55-.46,9.18-1.16,13.57-2.48,1.39-.47,2.92-1.12,4.24-1.78,2.21-.54,4.58-.84,6.78-1.39"/><path class="b" d="M10.78,205.69c5.64.3,11.32-.11,16.96-.09,3.09.19,6.25.09,9.33-.16,2.51.1,5.14.43,7.63,0,7.97-1.87,11.17-5.65,20.35-3.5,2.8.63,5.64,1.48,8.48,1.93,2.23.32,4.58.43,6.78.94,1.92.31,3.99.47,5.94.44,1.07,0,2.35-.22,3.39.07,4.71,1.07,9.56,2.01,14.42,1.51,5.08-.44,10.21-.83,15.26-1.5,4.89-.86,9.52-2.07,14.42-.41,6.88,1.4,13.21,5.28,20.35,5.51,5.14.14,10.32-.86,15.26-2.19,1.7-.49,3.44-1.32,5.09-1.93,2.22-.48,4.57-.85,6.78-1.37"/><path class="b" d="M10.78,203.86c4.78.37,9.62.76,14.42.48,3.08-.18,6.25.01,9.33-.3,3.64-.26,7.41.59,11.02-.24,7.1-1.75,11.57-6.03,19.5-4.1,2.82.6,5.65,1.51,8.48,2.06,2.22.46,4.6.44,6.78,1.1,2.48.56,5.09.94,7.63.98,1.66.14,3.47-.38,5.09-.05,2.49.63,5.11,1.05,7.63,1.5,1.65.17,3.45-.02,5.09-.22,4.5-.69,9.14-.9,13.57-2.01,4.39-1.16,9.05-2.84,13.57-1.29,13.28,4.51,18.25,9.03,33.07,5.39,2.6-.62,5.2-1.56,7.63-2.67,2.5-.58,5.12-1.05,7.63-1.57"/><path class="b" d="M10.78,201.82c4.21.46,8.48,1.04,12.72,1.14,5.64,0,11.32-.11,16.96-.12,3.47-.12,7-.75,10.18-2.18,5.2-2.36,9.39-4.59,15.26-3.04,2.82.65,5.65,1.58,8.48,2.16,1.63.41,3.48.35,5.09.84,4.92,1.41,10.15,2.33,15.26,1.51,1.18-.13,2.33.7,3.39,1.08,2.45.89,5.16.3,7.63-.18,2.21-.44,4.54-.8,6.78-1.05,1.68-.16,3.5-.31,5.09-.92,4.61-1.51,9.51-4.19,14.42-2.31,5.43,2,10.65,4.67,16.11,6.58,5.46,1.87,11.44,1.56,16.96.11,2.58-.68,5.18-1.65,7.63-2.72,2.77-.74,5.66-1.31,8.48-1.83"/><path class="b" d="M10.78,199.61c4.5.61,9.03,1.39,13.57,1.67,5.06.23,10.2.29,15.26.04,2.26-.15,4.58-.57,6.78-1.05,1.4-.27,2.95-.5,4.24-1.14,5.8-2.57,9.41-5.49,16.11-3.6,2.53.62,5.09,1.46,7.63,2.05,1.63.46,3.48.48,5.09.98,4.92,1.51,10.08,2.73,15.26,2.34,1.35.33,2.9.47,4.24.89,3.45.49,6.79-1.26,10.18-1.67,1.92-.36,4-.39,5.94-.66,4.88-1.72,9.91-5.83,15.26-3.53,2.53,1.05,5.05,2.38,7.63,3.3,1.93.76,4.11,1.16,5.94,2.18,6.62,3.42,13.14,4.27,20.35,2.19,2.57-.7,5.17-1.66,7.63-2.69,3.06-.79,6.21-1.55,9.33-2.06"/><path class="b" d="M10.78,197.38c8.96,1.4,18.03,2.98,27.14,2.18,2.85-.21,5.69-.9,8.48-1.48,1.63-.45,3.57-.19,5.09-.99,5.48-2.68,8.76-5.64,15.26-3.86,2.53.61,5.1,1.46,7.63,2.09,2.25.5,4.6.93,6.78,1.7,3.86,1.12,7.84,2.21,11.87,2.36,2.48.51,5.09.82,7.63.61,2.29-.34,4.52-1.33,6.78-1.8,2.19-.58,4.57-.5,6.78-.85,4.04-1.77,8-5.79,12.72-4.38,2.4.84,4.48,2.58,6.78,3.63,2.9,1.4,6.18,1.88,9.33,2.38,1.49.07,2.9.96,4.24,1.53,2.4,1.03,5.01,1.89,7.63,2.04,5.55.27,10.98-1.58,16.11-3.51,3.52-.77,6.69-1.71,10.18-2.25"/><path class="b" d="M10.78,195.18c8.15,1.06,16.32,3.04,24.59,2.46,3.74-.19,7.38-1.29,11.02-2.01,1.06-.2,2.32-.34,3.39-.34.82.06,1.86.02,2.54-.5,4.02-2.29,7.81-5.17,12.72-4.17,2.57.43,5.13,1.29,7.63,1.99,1.92.59,4.03.93,5.94,1.56,7.12,2.25,14.51,4.38,22.05,3.85,2.3-.3,4.5-1.47,6.78-1.87,1.91-.53,4.08-.25,5.94-.75,3.26-1.72,6.19-5.3,10.18-4.91,3.97.87,6.37,4.86,10.18,6.16,3.22,1.25,6.8.71,10.18.92.75.02,1.8.04,2.54.06.8.13,1.8.65,2.54.96,3.43,1.59,7.32,1.89,11.02,1.26,2.97.15,5.77-1.14,8.48-2.12.74-.24,1.79-.6,2.54-.82.75-.07,1.81-.21,2.54-.36,2.49-.68,5.06-1.45,7.63-1.77"/><path class="b" d="M10.78,193.01c8.44.85,16.9,3.32,25.44,2.27,4.57-.48,8.92-2.67,13.57-2.54.44.02,1.26.1,1.7.15.89-.05,1.81-.77,2.54-1.21,3-1.99,6.43-3.96,10.18-3.43,2.88.33,5.7,1.34,8.48,2.12,6.78,1.78,13.4,4.35,20.35,5.46,3.08.28,6.24-.38,9.33-.23,1.95-.43,3.93-1.24,5.94-1.44,1.06-.14,2.33-.2,3.39-.2,3.31-1.32,5.52-5.33,9.33-5.48,5.52.91,7.51,8.48,14.42,8.68,1.97.1,4-.43,5.94-.71,2.5-.32,5.11-.54,7.63-.63,2.93,1.27,6.12,2.02,9.33,1.73,1.92.43,4.05.32,5.94-.24,1.73-.44,3.38-1.52,5.09-1.98,1-.41,2.34-.29,3.39-.49,1.4-.22,2.89-.79,4.24-1.2,1.33-.37,2.88-.58,4.24-.79"/><path class="b" d="M10.78,190.82c7.63.67,15.2,2.77,22.9,2.37,6.31-.22,12.29-4.34,18.66-2.57,6.5-4.4,9.12-5.95,16.96-3.45,7.36,2.05,14.59,4.68,22.05,6.35,2.79.7,5.67-.37,8.48-.43,1.36-.06,2.88.02,4.24.06,2.2-.51,4.52-.86,6.78-.78,3.07-1.39,4.92-5.34,8.48-5.7,5.76,1.11,7.72,11.22,16.11,10.27,2.01-.22,3.99-1.07,5.94-1.59,3.03-.77,6.2-1.36,9.33-1.54,1.95.3,3.93,1.11,5.94,1.11,2.1.89,4.54,1.24,6.78.71,1.75-.39,3.53-1.22,5.09-2.09,1-.46,2.32-.36,3.39-.42,1.73-.12,3.47-.84,5.09-1.38,1.32-.39,2.87-.59,4.24-.75"/><path class="b" d="M10.78,188.68c7.62.67,15.21,2.7,22.9,2.16,6.27-.38,12.32-4.7,18.66-2.51,1.52-.53,2.84-1.83,4.24-2.61,3.8-2.49,7.71-2.23,11.87-.94,7.93,2.19,15.7,5.12,23.74,6.85,2.27.16,4.54-.72,6.78-.92,2.52-.29,5.12.14,7.63.15,3.26-.27,3.46.66,5.94-2.03,2.57-2.55,5.27-6,8.48-2.07,3.75,4.4,7.58,11.34,14.42,9.55,2.61-.65,5.04-2.08,7.63-2.8,3.29-.93,6.74-1.86,10.18-1.89,1.48.21,2.9,1,4.24,1.62,3,1.35,6.49.84,9.33-.67.75-.38,1.76-.99,2.54-1.31,1.36.08,2.91.13,4.24-.22,1.39-.35,2.85-1.06,4.24-1.41,1.04-.23,2.33-.38,3.39-.47"/><path class="b" d="M10.78,186.61c7.87.8,15.8,2.79,23.74,1.81,3.18-.4,6.23-1.67,9.33-2.44,1.9-.43,3.99-.77,5.94-.46,1.1.09,2.3.91,3.39.51,1.33-.96,2.8-2.09,4.24-2.88,4.5-2.78,9.79-.83,14.42.54,4.52,1.33,9.01,2.91,13.57,4.11,2.23.57,4.5,1.49,6.78,1.82,2.28.07,4.53-.9,6.78-1.13,3.38-.35,6.87.09,10.18.81,2.04-.77,3.41-3.26,5.09-4.64,3.02-2.98,4.95-.51,6.78,2.16,1.47,2.18,3.17,4.49,5.09,6.29,3.02,2.95,7.32,3.32,11.02,1.47,5.02-2.64,10.52-4.28,16.11-5.16.52-.09,1.29.19,1.7.52.73.47,1.76,1.07,2.54,1.45,4.03,2.11,8.38.33,11.87-2,1.66.24,3.49.24,5.09-.32,2.15-.87,4.43-1.7,6.78-1.65"/><path class="b" d="M10.78,184.66c7.57.97,15.24,2.56,22.9,1.66,5.42-.55,10.56-3.76,16.11-2.85,1.1.14,2.27.95,3.39.74,7.1-6.05,10.3-5.01,18.66-2.58,6.16,2.02,12.46,3.73,18.66,5.63,2.79,1.05,5.69-.56,8.48-.85,2.22-.27,4.57-.13,6.78.15,1.08.11,2.3.68,3.39.52,2.16-1.51,3.68-3.98,5.94-5.32,2.9-1.1,4.52,3.15,5.94,4.99,1.35,2.1,3.1,4.2,5.09,5.72,3.21,2.54,7.58,2.29,11.02.36,4.72-2.66,10.02-4.09,15.26-5.27,1.89-.27,3.54,1.12,5.09,1.99,3.97,2.32,8.43.58,11.87-1.87,1.36-.09,2.89.24,4.24-.13,1.42-.33,2.87-1.08,4.24-1.53,1.04-.29,2.32-.4,3.39-.4"/><path class="b" d="M10.78,182.83c7.55,1.16,15.25,2.49,22.9,1.41,5.39-.61,10.6-3.66,16.11-2.61,1.1.19,2.26.98,3.39.96,7.3-6.7,10.73-5.13,19.5-2.65,5.84,2.05,11.95,3.37,17.81,5.36,2.48,1.04,5.16-.23,7.63-.65,3.35-.53,6.93-.44,10.18.58,2.14-1.83,4.12-4.34,6.78-5.37,2.6.07,3.74,3.35,5.09,5.15,1.11,1.8,2.58,3.65,4.24,4.96,3.43,2.99,7.92,3.24,11.87,1.13,3.67-2.12,7.77-3.37,11.87-4.36,1.66-.28,3.4-1.12,5.09-1.02.76.26,1.83.55,2.54.93.71.53,1.74,1.18,2.54,1.57,2.08,1.05,4.62,1.07,6.78.23,1.8-.57,3.36-1.96,5.09-2.63,1.05.18,2.34.23,3.39.02,2.54-.61,4.91-2.28,7.63-1.98"/><path class="b" d="M10.78,181.14c7.54,1.31,15.27,2.44,22.9,1.18,5.1-.64,10.04-3.14,15.26-2.54,1.44.18,2.85,1.04,4.24,1.38,2.25-1.98,4.57-4.35,7.63-4.94,2.23-.46,4.6-.02,6.78.5,1.98.43,4.03,1.03,5.94,1.69,4.16,1.41,8.46,2.51,12.72,3.57,1.98.47,3.94,1.51,5.94,1.85,1.99.15,4-.63,5.94-.95,3.05-.46,6.34-.57,9.33.27,1.65-.69,2.73-2.6,4.24-3.57,4.2-3.17,5.44.03,7.63,3.3,2.28,3.91,6.29,7.4,11.02,7.42,2.72,0,5.27-1.31,7.63-2.52,4.74-2.35,10.22-2.59,15.26-4.03.77.28,1.83.63,2.54,1.04.72.57,1.74,1.27,2.54,1.7,2.94,1.7,6.55,1.03,9.33-.67,1.03-.58,2.16-1.54,3.39-1.65,1.07.15,2.35.09,3.39-.2,2.22-.69,4.36-2.13,6.78-1.87"/><path class="b" d="M10.78,179.55c2.23.37,4.55.77,6.78,1.1,1.94.05,4,.06,5.94.17,1.66.05,3.43.28,5.09.32,1.66-.13,3.44-.37,5.09-.61,6.42-.83,13.42-4.57,19.5-.66,2.1-1.83,4.04-4.22,6.78-5.07,4.74-1.35,9.92.8,14.42,2.24,4.14,1.4,8.5,2.21,12.72,3.3,1.69.43,3.38,1.36,5.09,1.66,1.98.21,4-.51,5.94-.83,3.05-.44,6.32-.65,9.33.14,9.93-11.16,8.76.2,16.11,4.62,4.15,2.67,8.48,2.35,12.72.1,2.85-1.59,6.1-2.31,9.33-2.62,2.83-.26,5.72-.71,8.48-1.39,1.29.23,2.32,1.49,3.39,2.16,1.46,1.01,3.29,1.78,5.09,1.79,1.75,0,3.56-.64,5.09-1.47,1.04-.57,2.19-1.47,3.39-1.69.39-.21,1.26-.35,1.7-.26.77,0,1.82-.21,2.54-.47,1.9-.7,3.83-1.91,5.94-1.73"/><path class="b" d="M10.78,178.05c1.36.19,2.87.54,4.24.64,2.8-.07,5.68-.12,8.48-.06,1.94.04,4,.17,5.94.34,1.37.22,2.88.13,4.24-.15,6.43-.81,13.44-4.38,19.5-.5.98-.33,1.82-1.47,2.54-2.15,1.76-1.89,4.14-3.38,6.78-3.41,4.12-.11,8.05,1.42,11.87,2.76,3.3,1.07,6.77,1.78,10.18,2.44,1.7.27,3.48.79,5.09,1.41,1.02.43,2.26.9,3.39.89,2.26-.02,4.53-.82,6.78-1,1.64-.15,3.44-.24,5.09-.2.77.04,1.79.36,2.54.08,1.85-2.24,4.45-4.87,7.63-3.92,1.79,1.18,2.94,3.38,4.24,5.03,1.26,1.77,3.06,3.25,5.09,4.04,5.94,2.77,9.84-.16,15.26-2.11,3-.9,6.24-.68,9.33-.75,1.97,0,3.99-.64,5.94-.72.96.06,1.8,1.06,2.54,1.56,2.13,1.63,4.96,2.63,7.63,1.9,1.8-.39,3.45-1.53,5.09-2.31,1.37-.41,2.79-1.13,4.24-1.17,2.3-.47,4.36-2.19,6.78-2.09"/><path class="b" d="M10.78,176.6c1.64.38,3.42.29,5.09.21,2.23-.08,4.55-.19,6.78-.23,2.23-.04,4.56.03,6.78.21,1.65.08,3.44.42,5.09.25,4.77-.7,9.54-2.56,14.42-1.99,1.11.2,2.38.67,3.39,1.17.37.26,1.24.55,1.7.54,1.75-1.84,3.47-4.14,5.94-5.03,4.9-1.49,9.85.82,14.42,2.42,5.23,1.88,10.99,1.66,16.11,3.77,3,1.26,6.27-.08,9.33-.43,1.63-.31,3.44-.19,5.09-.28.8.03,1.81.35,2.54-.12,1.88-2.38,4.45-4.44,7.63-3.24,1.42.73,2.41,2.44,3.39,3.64,1.29,1.72,2.99,3.4,5.09,4.05,8.29,3.15,11.43-1.6,18.66-2.11,2.53-.04,5.11.47,7.63.59,1.36.06,2.88-.16,4.24-.27,1.05.27,2.33.55,3.39.75,4.45,2.71,7.09,3.37,11.87.61,1.38-.53,2.95-1.06,4.24-1.79.73-.28,1.81-.46,2.54-.74,1.63-.61,3.3-1.67,5.09-1.7"/><path class="b" d="M10.78,175.21c4.79.12,9.62-.42,14.42-.49,3.66-.07,7.37.32,11.02.4,6.11-1.12,11.98-3.51,17.81,0,.99-.42,1.81-1.66,2.54-2.4.92-.95,2.13-1.98,3.39-2.42,2.73-.82,5.78-.37,8.48.39,3.34,1.2,6.63,2.79,10.18,3.32,2.78.54,5.69.71,8.48,1.18,1.98.36,3.89,1.48,5.94,1.5,2.55-.04,5.12-.76,7.63-1.16,1.36-.04,2.88-.17,4.24-.24.77,0,1.81.27,2.54-.09,2.29-2.88,5-4.07,8.48-2.41,2.68,2.55,4.54,5.44,8.48,6.12,3.63,1,7.49.59,11.02-.59,2.19-.6,4.48-1.5,6.78-1.3,2.59.19,5.1,1.25,7.63,1.75,1.66.29,3.48.02,5.09.6,1.64.36,3.43.65,5.09.89,1.6.6,3.33,1.38,5.09,1.17,1.44-.13,2.97-.69,4.24-1.37,1.74-.56,3.53-1.41,5.09-2.35.69-.45,1.8-.68,2.54-.99,1.33-.56,2.78-1.35,4.24-1.5"/><path class="b" d="M10.78,173.71c5.36.12,10.76-.32,16.11-.54,3.37-.08,6.81.06,10.18.06,1.09.03,2.33-.4,3.39-.62,1.92-.46,3.97-.86,5.94-1.07,2.92-.48,5.88.37,8.48,1.69,2.91-3.22,4.67-5.08,9.33-4.6,2.68.05,5.22,1.15,7.63,2.2,2.41,1.01,5.03,1.79,7.63,2.11,2.5.36,5.13.36,7.63.71,1.97.3,3.91,1.3,5.94,1.24,4.79-.3,9.58-2.15,14.42-1.38,3.05-3.68,6.29-3.77,10.18-1.27,2.13,1.89,4.77,3.5,7.63,3.86,1.36,0,2.87.31,4.24.27,1.67,0,3.46-.29,5.09-.65,2.78-.52,5.62-1.83,8.48-1.1,2.34.53,4.55,1.77,6.78,2.61,2.78.74,5.61,1.64,8.48,2.03,1.35.2,2.88.39,4.24.47,1.64.36,3.47.52,5.09-.05,2.31-.87,4.69-1.89,6.78-3.2,1.08-.79,2.11-1.31,3.39-1.72,1.03-.45,2.27-1.06,3.39-1.24"/><path class="b" d="M10.78,172.39c5.08.27,10.2.16,15.26-.33,3.93-.28,7.93-.29,11.87-.46,6.03-1.26,11.89-3.56,17.81-.44,3.22-3.84,6.25-4.29,11.02-3.43,4.23,1.31,8.25,3.53,12.72,4,2.5.4,5.13.16,7.63.48,1.96.25,3.93,1.15,5.94,1.03,3.12-.22,6.21-1.19,9.33-1.48,1.64-.22,3.46-.42,5.09,0,.92-.3,1.75-1.32,2.54-1.83,2.05-1.44,4.76-1,6.78.25,2.94,1.69,5.6,5.06,9.33,4.51,1.11-.17,2.36-.65,3.39-1.09,1.64-.22,3.45-.17,5.09-.5,3.52-.69,6.67-2.1,10.18-.37,2.02.87,3.94,2.21,5.94,3.13,2.66,1.26,5.55,2.17,8.48,2.55,1.64.26,3.43.38,5.09.4,1.37.29,2.94.08,4.24-.41,2.65-1.14,5.25-2.69,7.63-4.32.61-.62,1.76-.95,2.54-1.27.73-.33,1.76-.76,2.54-.96"/><path class="b" d="M10.78,171.31c2.51.19,5.11.45,7.63.41,2.53-.03,5.12-.38,7.63-.64,3.93-.39,7.94-.5,11.87-.83,6-1.57,12.64-3.86,18.66-1.17,1.3-.89,2.65-2.1,4.24-2.45,3.13-.79,6.4-.21,9.33,1.04,3.52,1.41,7.22,2.63,11.02,2.9,1.94.18,4-.06,5.94.21,1.96.22,3.93,1.14,5.94.96,5.06-.32,10.18-2.76,15.26-1.5,8.43-8.47,10.55,5.2,18.66,2.87,1.74-.52,3.42-1.54,5.09-2.24,1.07-.05,2.34-.19,3.39-.41,3.75-.9,6.56-1.89,10.18.24,2.3,1.27,4.47,2.98,6.78,4.21,2.35,1.2,5.03,1.9,7.63,2.3,1.05.16,2.33.27,3.39.29,1.61.61,3.5.53,5.09-.09,4.62-1.74,7.92-5.93,12.72-7.24"/><path class="b" d="M10.78,170.5c4.21.56,8.52.76,12.72-.03,3.91-.69,7.93-.88,11.87-1.24,2.05,0,4.03-.74,5.94-1.41,2.45-.79,5.06-1.35,7.63-1.51,2.81-.03,5.81-.14,8.48.86.56.09,1.28-.23,1.7-.58.41-.22,1.25-.59,1.7-.73,1.61-.45,3.43-.6,5.09-.62,1.4.18,2.91.66,4.24,1.11,2.75.96,5.59,1.98,8.48,2.44,2.49.47,5.12.34,7.63.51,1.43.02,2.87.68,4.24,1,1.05.2,2.33.22,3.39.1,5.05-.53,10.18-3.04,15.26-1.62,8.5-9.13,9.52,7.27,19.5,2.35,2.72-1.31,5.45-2.85,8.48-3.29,3.45-1.07,6.23-1.11,9.33.94,2.02,1.24,3.93,2.89,5.94,4.15,1.81,1.08,3.9,1.89,5.94,2.4,1.34.38,2.9.47,4.24.82,1.25.67,2.84.99,4.24.69,3.13-.81,5.88-2.85,8.48-4.7,1.04-.85,2.31-1.84,3.39-2.64.76-.26,1.8-.67,2.54-.96"/><path class="b" d="M10.78,169.89c2.22.21,4.54.53,6.78.44,2.55-.08,5.14-.69,7.63-1.19,3.89-.78,7.92-1.04,11.87-1.41,3.57-1.33,7.15-3,11.02-3.16,1.95-.16,4,.17,5.94.34,1.68.08,3.52.24,5.09.9.8-.09,1.77-.58,2.54-.78,1.37-.25,2.87-.66,4.24-.88,2.01-.03,4.03.75,5.94,1.3,2.19.69,4.51,1.35,6.78,1.7,2.5.36,5.12.45,7.63.71,1.1.26,2.31.85,3.39,1.17,1.33.36,2.88.35,4.24.17,2.54-.36,5.13-.99,7.63-1.57,2.74-.7,5.71-1.18,8.48-.39,8.64-9.26,7.64,8.47,20.35,1.84,4.99-2.23,11.85-5.78,16.96-2.22,2.82,1.88,5.29,4.46,8.48,5.76,1.03.46,2.3.9,3.39,1.18.81.18,1.91.38,2.54.96,1.73,1.15,4.03,1.39,5.94.52,2.35-1.06,4.59-2.59,6.78-3.93,1.1-.72,2.38-1.64,3.39-2.48.39-.36,1.27-1.06,1.7-1.38.42-.13,1.29-.44,1.7-.61"/><path class="b" d="M10.78,169.49c2.8.1,5.7.38,8.48-.13,3.41-.63,6.74-1.89,10.18-2.41,2.49-.5,5.12-.6,7.63-.95,2.69-1.34,5.48-2.79,8.48-3.29,3.11-.65,6.28.04,9.33.7,1.06.18,2.34.2,3.39.43,1.1.16,2.27.94,3.39.84,1.13-.24,2.37-.71,3.39-1.26,1.9-.71,4.04-.23,5.94.27,4.41,1.31,9.01,1.94,13.57,2.52,2.76.91,5.47,2.36,8.48,1.89,3.12-.3,6.29-.9,9.33-1.68,2.74-.69,5.67-1.98,8.48-.91.55-.15,1.35-.85,1.7-1.28,1.29-1.27,2.79-1.47,4.24-.34,1.46,1.16,2.74,2.83,4.24,3.94,3.36,2.52,7.63.6,11.02-.84,6.09-2.54,10.73-3.07,16.96-.55,1.63.51,2.93,1.62,4.24,2.66,1.27.91,2.79,1.78,4.24,2.37,2.37.78,4.17,3.09,6.78,3.21,2.9.07,5.22-2.15,7.63-3.44,1.67-.95,3.55-1.84,5.09-3.01,1.37-.92,2.63-2.44,4.24-2.94"/><path class="b" d="M10.78,168.92c2.23-.01,4.57.07,6.78-.24,3.79-.63,7.32-2.43,11.02-3.38,2.45-.74,5.08-1.15,7.63-1.27,2.58-.95,4.9-2.81,7.63-3.44,4.11-1.21,7.96-.16,11.87,1.17,1.34.37,2.91.44,4.24.85,1.08.31,2.3.9,3.39,1.17,4.08-3.43,8.95-1.17,13.57-.45,2.22.48,4.64.63,6.78,1.41,2.47.85,4.96,2.16,7.63,2.16,3.97-.02,8-.46,11.87-1.33,2.3-.5,4.44-1.86,6.78-2.18.76-.07,1.78.17,2.54.15,5.24-5.63,6.04,5.05,13.57,3.38,3.18-.6,6.17-2.1,9.33-2.81,3.06-.79,6.34-.64,9.33.37,1.72.47,3.56,1,5.09,1.95,2.97,1.19,5.94,2.58,8.48,4.55,4.54,3.36,6.54,3.02,11.02-.17,2.08-1.42,4.52-2.39,6.78-3.47,1.86-.91,3.23-2.83,5.09-3.68"/><path class="b" d="M10.78,167.9c2.81-.18,5.68-.53,8.48-.85,3.44-1.23,6.75-2.99,10.18-4.25,2.14-.82,4.5-1.3,6.78-1.36,2-.86,3.86-2.28,5.94-3.01,4.44-1.72,9.37-.73,13.57,1.2,1.87.8,4.03,1.06,5.94,1.76,1.02.57,2.32.22,3.39.04,1.09-.09,2.32-.46,3.39-.66,2.24-.25,4.58.23,6.78.62,1.95.38,4.04.67,5.94,1.27,2.56.73,5.06,1.92,7.63,2.6,2.2.47,4.55.38,6.78.41,1.65.03,3.45.19,5.09-.1,1.66-.26,3.5-.31,5.09-.97,2.51-.87,4.79-3.4,7.63-2.72.45-.24,1.29-.82,1.7-1.13,2.03-.76,3.61,1.49,5.09,2.53,2.4,2.19,5.67,1.55,8.48.64,2.48-.75,5.04-1.65,7.63-1.96,2.89-.39,5.84.29,8.48,1.47,1.4.57,2.97,1.15,4.24,1.99,2.78,1.5,5.86,2.58,8.48,4.38,4.73,3.14,6.6,2.63,11.02-.61,2.52-1.86,5.66-2.63,8.48-3.85,1.53-.82,2.8-2.34,4.24-3.28"/><path class="b" d="M10.78,166.26c3.67-.61,7.34-1.6,11.02-2.19,2.63-1.01,5.08-2.67,7.63-3.87,2.09-1.02,4.45-1.7,6.78-1.75,1.42-.57,2.84-1.53,4.24-2.14,4.26-1.99,9.28-1.3,13.57.26,2.75,1.21,5.58,2.43,8.48,3.23,3.63-.58,7.38-.64,11.02-.16,3.44.44,6.91,1.24,10.18,2.42,1.65.57,3.38,1.35,5.09,1.76,1.63.37,3.43.52,5.09.7,1.95.18,3.98.7,5.94.77,1.94-.18,4.04-.02,5.94-.58,2.25-.63,4.03-2.42,5.94-3.67.94-.68,2.27-.85,3.39-.98.98-.95,2.31-.9,3.39-.13,1.54,1.03,3.17,2.4,5.09,2.57,4.34-.06,8.38-2.34,12.72-2.48,4.65-.28,8.87,2.24,12.72,4.54,1.85,1.08,4.03,1.78,5.94,2.76,2.62,1.29,5.39,3.64,8.48,2.7,2.74-1.05,4.9-3.37,7.63-4.44,1.86-.83,4.02-1.13,5.94-1.8,1.54-.68,2.87-2.05,4.24-2.99"/><path class="b" d="M10.78,163.99c2.6-.5,5.06-1.78,7.63-2.41,1.36-.37,2.87-.73,4.24-1.04,1.08-.27,2.43-.4,3.39-1.01,2.12-1.38,4.35-2.87,6.78-3.63,1.04-.32,2.3-.55,3.39-.6,1.1-.37,2.31-1.03,3.39-1.46,2.92-1.31,6.24-1.27,9.33-.65,2.58.46,5.26,1.01,7.63,2.17,1.92.75,3.83,2.2,5.94,2.3,3.65-.42,7.4-.21,11.02.36,3.13.48,6.32,1.16,9.33,2.17,3.34,1.24,6.63,2.47,10.18,3.01,1.97.4,3.98,1.08,5.94,1.52,2.49.26,5.17.27,7.63-.28,2.71-.75,4.61-3.11,6.78-4.74.67-.5,1.74-.93,2.54-1.15,1.05-.46,2.36-.63,3.39,0,1.3.69,2.75,1.57,4.24,1.73,3.17.07,6.23-1.32,9.33-1.84,7.18-1.47,11.29,1.95,16.96,5.48,1.86,1.04,4.03,1.72,5.94,2.65,1.84.86,3.84,1.98,5.94,1.83,3.54-.56,5.95-3.86,9.33-4.91,1.87-.72,4-.87,5.94-1.28,1.5-.51,2.91-1.63,4.24-2.47"/><path class="b" d="M10.78,161.26c2.38-.53,4.52-1.96,6.78-2.8,3.01-1.17,6.27-1.81,9.33-2.83,2.12-.5,3.86-2.1,5.94-2.74,1.04-.36,2.3-.62,3.39-.69,1.08-.31,2.31-.8,3.39-1.11,3.33-1.1,6.86-.38,10.18.39,2.86.58,5.88.99,8.48,2.41,1.08.47,2.24,1.3,3.39,1.58,1.07-.06,2.33-.1,3.39-.1,2.53.02,5.14.32,7.63.73,3.41.57,6.88,1.27,10.18,2.33,3.35,1.2,6.73,2.48,10.18,3.4,2.25.68,4.46,1.84,6.78,2.27,3.39.23,7.17.34,10.18-1.46,1.84-1.17,3.38-3.01,5.09-4.34.97-.62,2.32-.95,3.39-1.34,1.11-.37,2.35.32,3.39.65,2.48.99,5.17.03,7.63-.56,6.11-1.78,12.06-1.29,16.96,3.09,2.5,2.03,5.45,3.57,8.48,4.64,2.37.97,5.07,2.25,7.63,1.24,2.96-1.28,5.32-3.87,8.48-4.74,1.88-.6,3.99-.6,5.94-.77,1.46-.33,2.93-1.22,4.24-1.91"/><path class="b" d="M10.78,158.33c2.42-.6,4.54-2.14,6.78-3.16,3.55-1.52,7.32-2.7,11.02-3.78,2.56-.56,4.98-1.96,7.63-2.1,1.65-.33,3.4-.83,5.09-.94,1.67-.11,3.46.15,5.09.54,1.65.4,3.42.88,5.09,1.18,1.65.31,3.48.4,5.09.92,1.43.47,2.92,1.26,4.24,1.98.44.02,1.26.05,1.7.07,6.59.29,13.15,1.53,19.5,3.27,3.14,1.07,6.17,2.63,9.33,3.64,2.85.9,5.59,2.4,8.48,3.15,2.22.31,4.58.08,6.78-.25,1.72-.26,3.6-.66,5.09-1.59,1.5-.97,2.9-2.42,4.24-3.6,1.64-.62,3.45-1.18,5.09-1.81.72-.43,1.77-.13,2.54-.03,1.07.13,2.35-.05,3.39-.3,1.36-.31,2.88-.7,4.24-.99,1.35.12,2.88.29,4.24.2,1.07-.06,2.34-.23,3.39-.41.78-.03,1.81.3,2.54.56,1.61.46,3.02,1.63,4.24,2.73,1.56,1.3,3.32,2.64,5.09,3.66,1.55.92,3.39,1.59,5.09,2.17,2.44.97,5.35,1.23,7.63-.29,3.47-2.28,6.61-4.7,11.02-4.48.74,0,1.8.07,2.54.08,1.42-.25,2.88-1.01,4.24-1.49"/><path class="b" d="M10.78,155.46c2.1-.58,4.07-1.75,5.94-2.83,1.61-.85,3.41-1.59,5.09-2.29,3.25-1.34,6.72-2.26,10.18-2.91,1.08-.18,2.3-.62,3.39-.74,1.95-.13,3.98-.55,5.94-.52,4.61.16,8.92,2.45,13.57,2.48,1.76.12,3.54.81,5.09,1.63,3.38.41,6.81.92,10.18,1.44,3.96.75,7.99,1.57,11.87,2.64,2.88,1.06,5.66,2.58,8.48,3.8,4.02,1.76,8.15,4.4,12.72,3.75,2.81-.36,5.71-.83,8.48-1.44,1.91-.54,3.45-2.08,5.09-3.12,2.85-.99,5.81-1.99,8.48-3.42,1.33-.42,2.89-.68,4.24-1.04,1.08-.07,2.32.37,3.39.5,2.79.46,5.69.17,8.48-.13,1.29.15,2.45,1.09,3.39,1.91,1.32,1.07,2.83,2.23,4.24,3.17,3.83,2.43,9.18,5.09,13.57,2.66,3.83-2.32,7.05-4.96,11.87-4.4.74.06,1.79.23,2.54.23,1.29-.58,2.87-.91,4.24-1.23"/><path class="b" d="M10.78,152.81c4.16-1.3,7.78-4.01,11.87-5.51,2.97-1.21,6.16-1.98,9.33-2.44,1.93-.35,3.95-.83,5.94-.69,1.95-.16,4.02-.12,5.94.31,3.09.67,6.14,1.93,9.33,2.14,1.07.05,2.34.04,3.39.23,1.08.25,2.29.74,3.39.9,3.93.78,7.95,1.41,11.87,2.24,1.94.46,3.99.96,5.94,1.37,1.36.29,2.93.44,4.24.94,2.92,1.11,5.73,2.71,8.48,4.19,6.47,3.68,9.45,5.23,16.96,3.1,2.19-.62,4.62-.32,6.78-1.01,1.14-.36,2.34-1.14,3.39-1.68,1.96-.64,4.04-1.35,5.94-2.18,1.09-.48,2.37-1.13,3.39-1.73.71-.42,1.67-1.12,2.54-1.12,1.67-.1,3.45.18,5.09.46,2.86.17,5.74.71,8.48,1.55,1.07.31,2.35.73,3.39,1.11.78.43,1.79,1.15,2.54,1.63,2.04,1.3,4.4,2.3,6.78,2.75,5.16,1.37,8.34-2.63,12.72-4.32,2.4-.92,5.14-.9,7.63-.37,1.64-.41,3.38-.97,5.09-1.02"/><path class="b" d="M10.78,149.95c1.81-.21,3.52-.61,5.09-1.57,1.9-1.02,3.97-2.01,5.94-2.89,2.95-1.3,6.14-2.2,9.33-2.69,1.91-.49,3.96-.88,5.94-.83,1.94.08,4.01.06,5.94.41,2.55.46,5.08,1.41,7.63,1.9,1.64.36,3.43.29,5.09.34,1.67.22,3.44.64,5.09.96,2.8.58,5.68,1.19,8.48,1.76,2.23.57,4.52,1.32,6.78,1.77,1.63.42,3.47.26,5.09.75,3.65,1.09,6.98,3.18,10.18,5.19,7.19,4.77,9.7,4.83,17.81,2.22,2.2-.48,4.57,0,6.78-.4,2.84-.79,5.72-1.8,8.48-2.82,1.39-.43,2.82-1.64,4.24-1.75,7.48-.42,14.99,1.08,22.05,3.5,3.16,1.33,6.97,1.92,10.18.42,4.98-2.63,8.32-5.47,14.42-4.13.74.32,1.82.03,2.54-.23,1.03-.26,2.33-.38,3.39-.41"/><path class="b" d="M10.78,146.99c1.65-.25,3.43-.52,5.09-.74,2.01-.65,3.97-1.78,5.94-2.57,2.17-.92,4.49-1.72,6.78-2.27,2.18-.7,4.49-1.32,6.78-1.39,2.52-.09,5.14.01,7.63.42,2.25.42,4.53,1.16,6.78,1.59,1.64.34,3.43.38,5.09.33,2.8.45,5.7.89,8.48,1.46,1.66.4,3.47.75,5.09,1.28,2.19.82,4.47,1.76,6.78,2.15,1.63.3,3.44-.16,5.09.19,3.7.66,7.11,2.64,10.18,4.75,5.8,4.12,8.77,6.75,16.11,4.03,1.84-.87,3.86-1.7,5.94-1.62,1.65.02,3.43.31,5.09.25,3.2-.16,6.27-1.49,9.33-2.31,4.44-.91,9.08-.82,13.57-.29,2.82.31,5.69.86,8.48,1.4,3.03.6,6.3,1.12,9.33.26,2.39-.76,4.54-2.31,6.78-3.38,2.08-1.01,4.47-1.57,6.78-1.54,1.68-.05,3.44.53,5.09.74,1.31-.4,2.87-.59,4.24-.59"/><path class="b" d="M10.78,144.74c2.8-.45,5.8-.65,8.48-1.62,5.22-2.02,10.41-4.69,16.11-4.83,2.52-.11,5.14-.12,7.63.33,2.8.5,5.63,1.35,8.48,1.5.76.05,1.78,0,2.54.05,1.06.26,2.31.52,3.39.65,4.15.14,8.35,1.04,11.87,3.32.73.39,1.71.9,2.54,1.02,1.66-.07,3.43-.45,5.09-.35,1.94.28,4.02.52,5.94.98,3.03.96,5.99,2.5,8.48,4.48,5.07,4.03,8.58,7.3,15.26,4.14,1.35-.7,2.78-1.63,4.24-2.09,4.14-1.31,8.51.69,12.72-.2,3.65-.59,7.31-1.64,11.02-1.8,4.81-.28,9.64.37,14.42.86,3.4.33,7.09.4,10.18-1.27,4.72-2.7,8.81-4.43,14.42-3.66,1.39.13,2.86.78,4.24.9,1.03-.24,2.33-.39,3.39-.4"/><path class="b" d="M10.78,143.01c2.54-.31,5.17-.71,7.63-1.43,2.87-.9,5.63-2.33,8.48-3.29,4.06-1.41,8.45-1.73,12.72-1.77,2.84.06,5.68.8,8.48,1.15,1.35.17,2.88.25,4.24.21,1.06.21,2.32.56,3.39.71,1.64.26,3.45-.07,5.09.19,1.44.28,3.02.83,4.24,1.64,1.09.82,2.29,1.92,3.39,2.73,1.15-.17,2.37-.83,3.39-1.36,2.46-.97,5.2-.13,7.63.55,6.82,2.11,9.94,2.96,15.26,8.02,4.04,3.68,7.91,4.92,12.72,1.71,6.86-5.19,9.41-2.99,16.96-2.88,2.85-.03,5.68-.84,8.48-1.28,3.34-.55,6.8-.6,10.18-.34,4.75.1,9.97,1.44,14.42-.78,2.17-1.09,4.39-2.41,6.78-2.97,3.3-.69,6.83-.81,10.18-.34,1.39.23,2.9.71,4.24,1.12.74-.13,1.79-.25,2.54-.29"/><path class="b" d="M10.78,141.51c2.55-.28,5.19-.71,7.63-1.52,2.84-.99,5.6-2.43,8.48-3.32,3.82-1.19,7.89-1.58,11.87-1.84,2.24-.1,4.56.33,6.78.56,1.93.25,3.99.29,5.94.29,1.34.34,2.85.72,4.24.77,1.07.03,2.33-.2,3.39-.2,3.05.11,5.07,2.68,6.78,4.89l.85.16c3.85-5.06,5.75-3.29,11.02-1.88,5.62,1.66,11.82,3.03,16.11,7.3,3.61,3.57,7.53,7.51,12.72,4.08,6-4.5,8.14-6.66,16.11-5.67,1.94.17,4,.23,5.94.01,2.25-.25,4.54-.9,6.78-1.19,6.47-1.01,13.06,1.16,19.5.15,4.92-2.44,6.93-3.74,12.72-3.55,2.51,0,5.14-.19,7.63.19,1.96.21,3.96,1.2,5.94,1.08"/><path class="b" d="M10.78,140.1c2.55-.26,5.21-.68,7.63-1.55,2.54-.96,5.04-2.29,7.63-3.14,2.72-.91,5.65-1.38,8.48-1.78,3.07-.52,6.24-.59,9.33-.25,2.22.2,4.55.17,6.78.15,1.63.33,3.41.74,5.09.56,4.9-1.14,6.32,2.31,8.48,5.87,1.05-1.52,1.79-3.75,3.39-4.81,1.42-.71,2.97.24,4.24.86,1.58.82,3.35,1.59,5.09,2.02,2.18.6,4.57.54,6.78.96,2.65.51,5.26,1.57,7.63,2.84,1.89,1.14,3.56,2.87,5.09,4.44,3.3,3.51,6.71,5.73,11.02,2.22,7.4-6.57,9.32-8.15,19.5-7.44,2.86.15,5.69-.73,8.48-1.19,2.21-.36,4.56-.36,6.78-.12,2.52.23,5.12.52,7.63.83,1.64.11,3.49.48,5.09,0,5.16-2.84,7.02-2.68,12.72-2.32,2.23.05,4.55-.23,6.78-.17,2.25.07,4.56.53,6.78.8"/><path class="b" d="M10.78,138.72c2.56-.22,5.22-.62,7.63-1.53,2.26-.9,4.49-2.17,6.78-3,2.71-1,5.64-1.51,8.48-2,3.06-.57,6.22-.86,9.33-.68,3.09.15,6.26-.32,9.33.18,1.65.25,3.45-.29,5.09,0,2.85.79,3.23,4.35,5.09,6.17.79-1.85,1.41-4.82,3.39-5.75,1.3-.03,2.45,1.02,3.39,1.8,1.02.87,2.23,1.87,3.39,2.54,7.83,4.21,11.06-1.7,19.5,3.18,2.27,1.37,4.13,3.52,5.94,5.43,1.37,1.43,3.04,3.05,5.09,3.34,6.97.05,9.2-11.91,22.05-11.4,1.94,0,4.01,0,5.94-.32,2.22-.41,4.52-.99,6.78-1.07,4.85-.13,9.65,1.06,14.42,1.74.75.09,1.79.21,2.54.14.4-.2,1.28-.6,1.7-.79,1.55-.7,3.38-1.12,5.09-1.01,2.52.19,5.1.77,7.63.6,3.93-.38,7.92-.58,11.87-.35"/><path class="b" d="M10.78,137.23c2.25-.17,4.64-.3,6.78-1.05,2.05-.66,3.99-1.87,5.94-2.77,3.18-1.51,6.73-2.17,10.18-2.79,5.3-.98,10.74-1.05,16.11-1.18,6.43.23,7.52-1.31,10.18,5.63l.85.3c.61-1.7,1.33-4.24,2.54-5.61l.85-.24c2.25.82,3.4,3.45,5.09,5.01,2.77,2.97,7.09,4.14,11.02,3.28,4.36-.89,7.36-3.03,11.87-.82,2.34,1.09,4.24,3.14,5.94,5.04,1.64,1.76,3.37,4.15,5.94,4.44,3.36-.06,5.48-3.39,7.63-5.55,6.07-6.8,9-7.42,17.81-7.66,2.82-.2,5.64-1.06,8.48-1.15,5.17-.17,10.24,1.22,15.26,2.23.41.08,1.29.26,1.7.37.8,0,1.79-.5,2.54-.73,1.6-.51,3.44-.5,5.09-.22,2.21.37,4.53.83,6.78.74,3.95-.26,7.92-.86,11.87-1.12"/><path class="b" d="M10.78,135.8c3.19-.02,6.48-.42,9.33-1.96,3.41-2.01,7.1-3.61,11.02-4.25,1.92-.41,3.99-.63,5.94-.83,3.83-1.01,7.93-1.09,11.87-1.09,5.78-.24,7.23-.77,9.33,5.26,1.84-1.11,1.97-4.11,3.39-5.62l.85-.17c1.04.41,1.92,1.7,2.54,2.57.98,1.36,2.16,2.96,3.39,4.1,3.34,3.04,8.36,4.03,12.72,3.1,3.64-.87,7.14-3.4,11.02-2.31,5.26,1.17,8.15,9.5,12.72,9.91,3.49-.37,5.44-4.07,7.63-6.4,6.19-7.58,9.34-7.87,18.66-8.25,2.51-.26,5.09-.84,7.63-.75,5.46.25,10.87,1.51,16.11,3,1.35.72,2.86-.15,4.24-.28,1.66-.18,3.46.08,5.09.37,5.62,1.25,11.4.18,16.96-.9"/><path class="b" d="M10.78,134.45c3.18.17,6.44-.51,9.33-1.85,2.95-1.63,5.98-3.36,9.33-4,2.19-.5,4.54-.78,6.78-.81,3.75-1.41,7.88-1.87,11.87-1.58,5.24.02,6.36-.93,8.48,4.74,1.03-1.84,1.88-4.3,3.39-5.81l.85-.2c1,.44,1.9,1.65,2.54,2.5,1.24,1.68,2.63,3.57,4.24,4.9,3.87,3.07,9.64,3.74,14.42,3.04,4.14-.84,7.39-3.62,11.87-2.5,4.5,1.04,8.16,10.88,12.72,9.45,3.35-1.68,5.21-5.41,7.63-8.13,5.88-7.44,10.02-6.89,18.66-7.52,4.52-.85,9.15-.26,13.57.86,3.38.89,6.87,1.71,10.18,2.86.72.43,1.78.12,2.54-.02,1.35-.2,2.89-.16,4.24-.02,2.51.28,5.1.8,7.63.81,3.41-.02,6.98-.38,10.18-1.64"/><path class="b" d="M10.78,133.03c10.41-.11,10.51-3.66,18.66-5.52,2.2-.46,4.55-.53,6.78-.51,1.82-.94,3.9-1.59,5.94-1.85,1.64-.22,3.44-.26,5.09-.11.76.08,1.78.35,2.54.24,2.73-.43,3.82,1.69,5.09,3.66.82-1.91,1.49-4.81,3.39-5.93,1.91-.31,3.17,1.65,4.24,2.91,1.24,1.55,2.65,3.28,4.24,4.48,4.21,3.03,10.24,3.32,15.26,3.02,2.95-.14,5.64-1.62,8.48-2.23,1.64-.31,3.45-.24,5.09.03,2.07,1.12,3.56,3.31,5.09,5.04,1.81,2.15,4.67,5.78,7.63,3.3,4.67-4.08,7.08-10.61,12.72-13.63,4.19-2.09,9.05-1.61,13.57-2.19,4.03-.45,8.04.75,11.87,1.86,3.63,1.18,7.38,2.19,11.02,3.32.39.21,1.28.26,1.7.11.74-.1,1.79-.15,2.54-.15,1.95,0,4.01.24,5.94.49,2.78.31,5.71.69,8.48.18,1.67-.51,3.44-1.19,5.09-1.76"/><path class="b" d="M10.78,131.13c11.25,1.05,12.56-4.31,22.05-4.62,1.06-.04,2.33,0,3.39-.06,1.28-.74,2.81-1.4,4.24-1.78,2.45-.65,5.12-.74,7.63-.39.5.03,1.33.46,1.7.79.94.32,1.94,1.19,2.54,1.96l.85.14c4.07-13.97,8.05.92,15.26,3.11,3.78,1.47,7.93,1.2,11.87.83,2.53-.01,5.17-.2,7.63-.83,1.91-.5,3.96-.88,5.94-.87,1.09.01,2.47-.14,3.39.56,2.69,2.44,4.51,6.01,7.63,7.96,3.68,1.68,6.52-3.84,8.48-6.19,1.98-2.69,4.06-5.58,6.78-7.56,1.22-.91,2.83-1.46,4.24-1.98,1.29-.62,2.82-1.13,4.24-1.31,1.38-.17,2.96-.03,4.24.53,1.95-.14,4.03-.1,5.94.36,3.15.8,6.26,2.04,9.33,3.09,2.49.83,5.12,1.54,7.63,2.3.74.21,1.79.46,2.54.62.75.01,1.79-.13,2.54-.16,1.65-.07,3.44.06,5.09.22,7.46.92,8.02.93,15.26-1.4"/><path class="b" d="M10.78,128.79c11.65,2.58,13.42-2.92,24.59-2.79,1.17-.07,2.31-.97,3.39-1.36,1.58-.66,3.38-1.13,5.09-1.3,3.84-.44,4.71.08,6.78,3.31l.85-.73c2.79-9.18,4.99-7.45,10.18-1.06,1.76,2.02,4.11,3.72,6.78,4.22,3.32.63,6.83.65,10.18.22,1.97-.2,3.94-1.06,5.94-.94,4.22-.09,8.5-.7,12.72-.52,5.33,4.62,7.76,13.35,14.42,4,2.41-3.18,4.61-6.76,7.63-9.42.96-.83,2.25-1.61,3.39-2.15,1.76-1.14,3.85-2.01,5.94-2.27,2.03-.32,4.17.16,5.94,1.21,2.69.18,5.23,1.36,7.63,2.49,2.75,1.21,5.63,2.34,8.48,3.29,2.18.71,4.5,1.36,6.78,1.6,2.22.12,4.55-.32,6.78-.09,3.64.29,7.37.62,11.02.22,1.97-.33,3.99-1.01,5.94-1.45"/><path class="b" d="M10.78,126.11c2.82.44,5.59,1.62,8.48,1.61,2.87.09,5.71-.78,8.48-1.42,2.48-.58,5.11-.85,7.63-1.14,2.28-.61,4.45-1.95,6.78-2.43,2.64-.77,5.11-.71,6.78,1.78l.85-.24c1.22-1.77,1.67-4.56,3.39-5.96,4.59-2.55,7.04,8.48,14.42,9.14,5.67.69,11.54.05,16.96-1.76,2.81-.06,5.68.32,8.48.52,1.36.05,2.88-.08,4.24-.03.59.11,1.36.87,1.7,1.34.76.91,1.77,2.17,2.54,3.06,5.42,6.56,8.33,1.32,11.87-3.57,2.17-3.04,4.39-6.4,7.63-8.4,1.39-.64,2.84-1.53,4.24-2.15,2.37-.93,5.15-1.31,7.63-.6,1.19.36,2.44,1.15,3.39,1.95,5.77,2.87,11.19,7.09,17.81,7.75,4.23.07,8.49-.48,12.72-.49,2.8,0,5.68.42,8.48.28,1.97-.19,3.99-.84,5.94-1.2"/><path class="b" d="M10.78,123.97c1.36.17,2.9.11,4.24.41,1.39.29,2.85.9,4.24,1.18,4.82,1,9.67-.72,14.42-1.44,2.31-.37,4.59-1.28,6.78-2.07,2.16-.86,4.82-1.29,6.78.27,2.05-.67,3.06-3.25,4.24-4.9,2.61-2.71,5.09-.03,6.78,2.18,1.98,2.55,4.28,5.4,7.63,6.03,4.47.72,9.13.06,13.57-.66,1.38-.27,2.9-.66,4.24-1.06,1.09-.43,2.24-.58,3.39-.4,2.24.12,4.56.52,6.78.77,1.36.19,2.99-.03,4.24.61,2.36,2.29,4.82,6.57,8.48,6.43,6.06-1.96,8.66-14.47,16.96-16.22,3.29-1.77,7.56-2.46,11.02-.8,3.15,1.79,5.44,4.89,8.48,6.86,1.51.93,3.27,2.08,5.09,2.09,4.72-3.17,8.66-1.26,13.57-.02,1.02.46,2.32.05,3.39.04,1.36-.08,2.89-.03,4.24.11,2.22.23,4.54.7,6.78.57,1.67-.18,3.43-.64,5.09-.91"/><path class="b" d="M10.78,121.66c.76.1,1.79.26,2.54.4,1.37.06,2.9.06,4.24.4,1.38.31,2.86.89,4.24,1.19,1.63.34,3.44.35,5.09.17,3.71-.49,7.44-1.37,11.02-2.42,1.91-.56,3.91-1.41,5.94-1.4.78.02,1.76.46,2.54.25,1.16-.8,2.39-1.93,3.39-2.9.59-.94,1.47-2.1,2.54-2.5,2.65-.99,4.49,1.95,5.94,3.68,1.4,1.78,3.01,3.74,5.09,4.74,2.62,1.23,5.67.97,8.48.74,3.1-.3,6.27-.73,9.33-1.36,1.67-.28,3.4-1.03,5.09-1.11,3.67.2,7.36.88,11.02,1.16,2.8,1.99,4.8,5.78,8.48,6.27,3.28-.17,5.02-3.82,6.78-6.14,1.76-2.6,3.57-5.46,5.94-7.56,1.61-1.46,3.81-2.26,5.94-2.59,1.85-.74,3.93-1.22,5.94-1.22,6.22-.25,9.5,6.16,14.42,8.88,1.65-.9,3.16-2.39,5.09-2.75,2.89-.64,5.84.5,8.48,1.6,1.08.22,2.35.57,3.39.92,1.08.35,2.32.88,3.39,1.23,1.36-.1,2.89,0,4.24.24,2.22.38,4.51,1.05,6.78,1.08,1.67-.03,3.44-.46,5.09-.68"/><path class="b" d="M10.78,118.52c1.09.4,2.31,1.05,3.39,1.46,1.93.33,4.04.04,5.94.67,6.04,1.97,8.47,1.26,14.42-.01,2.57-.39,5.08-1.47,7.63-1.95.76-.14,1.79-.16,2.54,0,1.53-.56,2.96-1.77,4.24-2.76,3.18-3.99,5.45-3.8,8.48.21,2.3,3.11,5.18,6.15,9.33,6.19,3.11.14,6.27-.37,9.33-.85,2.81-.44,5.71-.92,8.48-1.59,1.61-.45,3.45-.02,5.09.07,2.51.3,5.11.64,7.63.88,2.43,1.94,4.41,5.02,7.63,5.69,3.72.27,5.71-4.08,7.63-6.61,1.71-2.52,3.49-5.3,5.94-7.17,2.67-2.03,6.23-1.93,9.33-2.82,6.9-1.42,10,3.26,14.42,7.44,2.69-2.95,5.2-4.57,9.33-3.65,2.62.51,5.05,1.87,7.63,2.49,2.59.83,5.18,1.97,7.63,3.14,1.08.06,2.35.3,3.39.58,1.93.51,3.94,1.21,5.94,1.39,1.66.13,3.44-.24,5.09-.42"/><path class="b" d="M10.78,116.06c2.05.27,4.06,1.07,5.94,1.9,1.03.36,2.33.18,3.39.41,1.96.35,3.96,1.05,5.94,1.3,1.65.22,3.45.11,5.09-.15,1.65-.3,3.45-.48,5.09-.84,1.67-.37,3.43-.95,5.09-1.35.75-.18,1.78-.32,2.54-.3,1.85-.5,3.53-1.86,5.09-2.93,3.09-4.08,5.63-3.32,8.48.46,2.58,3.4,5.66,6.07,10.18,5.91,5.71-.16,11.34-1.64,16.96-2.6,4.24-.09,8.5.69,12.72,1.06,2.23,1.65,4.03,4.25,6.78,5.09,3.67.81,5.77-3.42,7.63-5.86,1.73-2.5,3.5-5.29,5.94-7.15,2.91-2.23,6.8-1.92,10.18-2.72,5.16-1.08,9.03,2.2,11.87,6.12,1.34-.66,2-2.42,3.39-3.23,3.09-1.97,6.98-.76,10.18.32,3.4,1.18,6.87,2.38,10.18,3.82,1.97.74,3.89,1.97,5.94,2.48,4.75,1.55,6.63,2.74,11.87,1.97"/><path class="b" d="M10.78,114.57c2.9-.3,5.73.55,8.48,1.35,3.08.63,6.17,1.76,9.33,1.9,4.3,0,8.61-.83,12.72-2.05.75-.19,1.77-.35,2.54-.35.44-.19,1.27-.61,1.7-.83.78-.41,1.81-1.01,2.54-1.5.82-.68,1.67-1.87,2.54-2.48,3.99-3.29,6.7,2.74,9.33,4.94,3.08,3.17,7.76,3.39,11.87,2.66,3.96-.64,7.92-1.59,11.87-2.26,2.51.14,5.12.23,7.63.44,1.36.14,2.88.29,4.24.4.41.04,1.28.13,1.7.17.5.21,1.33.86,1.7,1.25,2.71,2.57,6.1,5.4,9.33,1.8,3.5-3.66,5.49-9.07,10.18-11.48,2.64-1.17,5.65-1.31,8.48-1.52,4.63-1.24,8.77,1.65,11.02,5.56,1.23-2.42,2.98-4.98,5.94-5.2,5.07-.3,9.83,2.24,14.42,4.08,3.61,1.56,7.43,2.76,11.02,4.38,4.53,1.8,6.72,3.31,11.87,2.74"/><path class="b" d="M10.78,113.32c1.07-.13,2.31-.4,3.39-.38,1.37.19,2.88.49,4.24.77,1.65.37,3.45.67,5.09,1.08,1.62.5,3.39.99,5.09,1.13,4.28.2,8.64-.42,12.72-1.69.75-.2,1.77-.39,2.54-.43.78-.31,1.8-.8,2.54-1.18.44-.23,1.28-.72,1.7-.98.42-.5,1.24-1.49,1.7-1.95,2.55-2.43,4.44-2.35,6.78.26,3.98,4.72,7.03,7.39,13.57,6.54,4-.43,7.91-1.63,11.87-2.31,1.05-.3,2.32.04,3.39.07,1.94.13,4,.23,5.94.35,1.36.11,2.88.2,4.24.27,1.17.05,2.6.07,3.39,1.07,2.72,2.41,6.07,5.33,9.33,1.91,3.48-3.47,5.52-8.7,10.18-10.85,1.84-.75,3.96-1.09,5.94-1.22.75-.03,1.79.19,2.54.02,3.99-.91,7.61,1.7,9.33,5.18,1.07-2.28,2.4-5.14,5.09-5.8,5.78-1.25,10.93,2.75,16.11,4.66,4.11,1.79,8.51,2.91,12.72,4.4,4.12,2.03,6.22,3.31,11.02,3.05"/><path class="b" d="M10.78,112.36c4.52-.63,9.09.09,13.57.67,3,.97,6.18,1.47,9.33,1.05,2.59.06,5.18-.6,7.63-1.35,1.35-.42,2.97-.41,4.24-1.09,1.3-.48,2.61-1.44,3.39-2.61,2.48-2.76,4.7-4.28,7.63-1.05,3.36,3.8,6.37,6.99,11.87,6.65,4.61-.15,9.05-1.72,13.57-2.52,5.06.52,10.18.87,15.26,1.03,1.32-.11,2.38,1.23,3.39,1.9,1.87,1.46,4.5,2.98,6.78,1.51,4.2-2.99,6.15-8.62,11.02-10.79,2.37-1.02,5.11-1.38,7.63-.82,3.49-1.17,6.96,1.3,8.48,4.37,1.38-1.82,2.11-4.55,4.24-5.71,3.01-1.62,6.49-.47,9.33.98,2.21,1.03,4.52,2.07,6.78,2.98,4.93,2.08,10.08,3.68,15.26,4.98,1.49.36,2.86,1.45,4.24,2.07,2.06,1.13,4.49,1.23,6.78,1.34"/><path class="b" d="M10.78,111.52c3.34-.53,6.8-.66,10.18-.45,1.94.18,4.08.04,5.94.71,2.99.99,6.23.71,9.33.63,2.29-.2,4.54-1.09,6.78-1.57,4.44-.33,4.76-2.44,7.63-5.04,3.88-3.97,6.57,1.28,9.33,3.7,4.24,4.36,10.79,3.26,16.11,1.92,1.93-.42,3.95-1.13,5.94-1.23,1.06.15,2.33.3,3.39.42,4.2.53,8.49.68,12.72.81.93.05,1.81.94,2.54,1.42,1.91,1.37,4.43,2.83,6.78,1.7,4.54-2.57,6.74-8.3,11.87-10.06,1.3-.47,2.85-.76,4.24-.67.76.06,1.77.43,2.54.41,2.7-.77,5.38,1.06,6.78,3.27l.85.14c.97-2.47,2.3-5.53,5.09-6.33,2.33-.75,4.68-.05,6.78,1.02,2.74,1.24,5.64,2.32,8.48,3.32,5.56,2.06,11.12,4.27,16.96,5.45,1.52.32,2.83,1.58,4.24,2.18,1.8.97,3.96,1.04,5.94,1.27"/><path class="b" d="M10.78,110.05c4.76-.68,9.62-.68,14.42-.44,1.13-.05,2.32.54,3.39.81,1.62.42,3.42.57,5.09.48,1.67.04,3.46.01,5.09-.42,2.21-.59,4.5-1.27,6.78-1.52,1.76-.67,2.92-2.6,4.24-3.87,2.88-3.07,4.67-3.56,7.63-.24,5.09,6.02,8.61,6.44,16.11,5.15,1.67-.32,3.44-.81,5.09-1.2,1.05-.21,2.31-.7,3.39-.44,5.61.82,11.29,1.31,16.96,1.4,2.41,1.18,4.72,3.49,7.63,2.97,2.42-.5,4.24-2.54,5.94-4.19,2.15-2.18,4.59-4.45,7.63-5.23,1.94-.58,4.11-.34,5.94.51,2.35-.59,4.58,1.08,5.94,2.85,1.58-1.83,2.03-4.86,4.24-6.2,3.06-1.98,6.29-.85,9.33.48,2.19.83,4.54,1.56,6.78,2.23,4.04,1.13,7.94,2.87,11.87,4.3,2.45.88,5.1,1.43,7.63,2.02,1.21.26,2.31,1.32,3.39,1.88,1.76,1.12,3.92,1.39,5.94,1.64"/><path class="b" d="M10.78,108.31c1.32-.49,2.85-.52,4.24-.55,2.23-.07,4.56-.06,6.78-.03,1.36.02,2.88.06,4.24.11,1.67.37,3.35,1.24,5.09,1.4,3.7.47,7.48-.05,11.02-1.18,1.35-.44,3.03-.36,4.24-1.18,2.67-1.68,5.79-8.11,9.33-5.6,2.59,2.05,4.46,5.21,7.63,6.48,2.11.89,4.55.83,6.78.58,3.15-.23,6.27-1.02,9.33-1.78,1.62-.44,3.45.13,5.09.25,2.79.38,5.67.78,8.48.99,2.23.14,4.56.08,6.78.31,1.54,1,3.26,2.1,5.09,2.47,4.63.67,7.55-4.02,11.02-6.25,2.88-2.06,6.96-3.14,10.18-1.2,1.88.14,3.77.88,5.09,2.27,1.39-2,2.01-4.99,4.24-6.31,3.13-1.98,6.94-1.02,10.18.15,2.21.68,4.55,1.3,6.78,1.88,4.1.98,7.97,2.76,11.87,4.3,2.44.94,5.08,1.55,7.63,2.11,1.59.21,2.89,1.48,4.24,2.23,1.5.95,3.35,1.39,5.09,1.6"/><path class="b" d="M10.78,106.81c1.65-.39,3.39-1.17,5.09-1.18,3.37.17,6.81.25,10.18.38,2.48.88,4.92,2.02,7.63,1.97,4.36-.02,8.62-1.43,12.72-2.77,2.5-1.73,4.12-4.69,6.78-6.19,4.64-1.49,5.94,8.54,15.26,7.39,3.71-.26,7.42-.9,11.02-1.83,3.1,0,6.25.61,9.33.99,2.5.36,5.1.61,7.63.66,1.06.04,2.33.1,3.39.17.83.19,1.79.86,2.54,1.23,8.19,4.36,11.71-6.96,20.35-6.38,1.48.05,2.97.75,4.24,1.44,1.14.06,2.43.54,3.39,1.15,1.7-1.58,2.05-4.64,4.24-5.82,3.6-2.18,8.02-1.52,11.87-.44,2.8.71,5.7,1.33,8.48,2.12,3.49.97,6.79,2.66,10.18,3.91,2.45.91,5.1,1.44,7.63,2.06,1.24.19,2.37,1.19,3.39,1.84,1.5,1,3.28,1.9,5.09,2.13"/><path class="b" d="M10.78,105.21c2.21-.62,4.52-1.25,6.78-1.64,2.8.23,5.67.45,8.48.57,2.09,1.12,4.4,2.14,6.78,2.38,4.72.47,9.2-1.66,13.57-3.14,2.33-1.34,3.88-3.89,5.94-5.58,2.32-2.12,4.4.3,5.94,2.06,1.2,1.34,2.62,2.8,4.24,3.63,2.61,1.38,5.68.92,8.48.55,1.66-.15,3.46-.33,5.09-.71,1.06-.19,2.3-.65,3.39-.54,5.12.11,10.17,1.31,15.26,1.62,1.94.1,4,.18,5.94.34,1.55.86,3.29,1.8,5.09,1.97,5.26.32,8.69-4.86,13.57-5.99,1.9-.51,4.07-.56,5.94.11.41.21,1.29.65,1.7.88,1.09-.04,2.33.36,3.39.54.88-1.69,1.77-3.99,3.39-5.11,4.33-2.55,9.68-2.36,14.42-1.23,2.82.62,5.73,1.23,8.48,2.12,2.58.84,5.11,2.05,7.63,3.04,3.26,1.32,6.82,1.86,10.18,2.86,2.18,1.33,4.31,3.05,6.78,3.8"/><path class="b" d="M10.78,103.56c3.04-.81,6.19-1.58,9.33-1.85,1.07.07,2.32.24,3.39.32.78.06,1.82.08,2.54.43,1.8,1.11,3.85,2.09,5.94,2.5,3.8.8,7.56-.8,11.02-2.19,1.34-.57,2.89-1.09,4.24-1.63.82-.68,1.83-1.71,2.54-2.49,4.38-5.06,5.17-4.57,9.33.28,3.12,3.56,6.58,3.97,11.02,3.14,1.35-.21,2.89-.25,4.24-.46,1.35-.25,2.86-.54,4.24-.49,4.25-.07,8.52.54,12.72,1.17,2.21.34,4.55.4,6.78.55.75.05,1.79.12,2.54.18.81.18,1.79.78,2.54,1.11,3.04,1.51,6.58.66,9.33-1.1,3.52-2.24,7.58-4.25,11.87-3.49.78.14,1.78.64,2.54.86,1.06-.17,2.36.18,3.39-.15.66-1.18,1.56-2.8,2.54-3.74,2.27-1.43,4.98-2.3,7.63-2.68,4.26-.72,8.58.05,12.72,1.08,4.12.87,7.96,2.75,11.87,4.22,3.3,1.18,6.88,1.65,10.18,2.85,1.97,1.2,3.71,3.07,5.94,3.8"/><path class="b" d="M10.78,101.87c4.42-1.02,9.01-2.05,13.57-1.75,1.5.35,2.8,1.65,4.24,2.22,5.05,2.58,8.84.94,13.57-1.25,1.33-.59,2.84-1.18,4.24-1.59.99-.1,1.88-1.1,2.54-1.76,5.89-6.58,5.37-5.84,11.02.27,2.84,2.85,6.5,2.79,10.18,2.02,1.95.16,4-.17,5.94-.37,2.51-.24,5.12-.26,7.63-.12,3.11.18,6.24.75,9.33,1.14,2.51.24,5.12.35,7.63.57.85,0,1.79.67,2.54,1,1.28.59,2.83,1.01,4.24.99,4.35-.08,7.71-3.55,11.87-4.41,2.18-.43,4.64-.71,6.78.05,1.36.04,2.87-.4,4.24-.3.72-.96,1.62-2.34,2.54-3.11,2.39-1.24,4.98-2.37,7.63-2.91,7.91-1.79,15.66.51,22.9,3.68,2.51.92,5.1,1.9,7.63,2.73,1.64.54,3.48.94,5.09,1.57,1.56,1.15,3.16,2.67,5.09,3.15"/><path class="b" d="M10.78,100.1c4.19-.76,8.45-1.53,12.72-1.58,1.2.05,2.3,1.08,3.39,1.51,2.58,1.32,5.54,2.65,8.48,1.82,2.67-.74,5.07-2.37,7.63-3.39,1.32-.52,2.85-.93,4.24-1.2.48-.29,1.32-1.03,1.7-1.45,5.04-5.53,5.02-6.71,10.18-.38,2.39,2.73,5.85,3.59,9.33,2.78,1.1-.22,2.27.55,3.39.47,3.65-.32,7.34-.99,11.02-.88,3.97-.02,7.93.86,11.87,1.18,2.23.17,4.56.32,6.78.55,1.03.56,2.28,1.22,3.39,1.61,5.06,1.92,8.99-1.67,13.57-3.06,2.44-.59,5.15-.95,7.63-.47,1.6-.58,3.43-.83,5.09-1.18.64-.82,1.57-1.88,2.54-2.3,1.09-.41,2.34-1.02,3.39-1.51,2.64-1.21,5.6-1.82,8.48-2.1,3.38-.64,6.89-.24,10.18.68,5.26,1.46,10.17,4,15.26,5.92,1.92.72,4.03,1.25,5.94,1.98,1.23.98,2.68,2.05,4.24,2.39"/><path class="b" d="M10.78,98.16c3.65-.42,7.36-.86,11.02-1.07,1.57-.31,2.89.94,4.24,1.51,1.03.48,2.28.93,3.39,1.16,1.58.6,3.43.91,5.09.48,3.82-1.19,6.92-4.33,11.02-4.77,2.24-.05,2.86-1.17,4.24-2.67,2.09-2.31,3.93-5.65,6.78-2.06,3.86,4.68,5.66,6.2,11.87,5.57,2.84,1.81,6.25.56,9.33.25,3.64-.47,7.38-.51,11.02-.1,3.92.54,7.93.76,11.87,1.13,1.21,0,2.31,1.03,3.39,1.47,2.33,1.16,5.14,1.57,7.63.73,2-.65,3.95-1.77,5.94-2.44,1.87-.65,3.97-.84,5.94-.96.75-.08,1.8-.05,2.54-.14,1.59-.65,3.41-1.14,5.09-1.51.93.01,1.8-.89,2.54-1.33,1.69-.65,3.43-1.57,5.09-2.3,2.42-.94,5.06-1.56,7.63-1.95,3.32-.89,6.87-.97,10.18.07,5.24,1.58,10.21,4.05,15.26,6.13,1.92.76,3.98,1.5,5.94,2.17.94.73,2.22,1.45,3.39,1.72"/><path class="b" d="M10.78,96.1c3.36-.29,6.8-.42,10.18-.56.86-.2,1.83.41,2.54.81.74.39,1.77.88,2.54,1.19,2.12.79,4.53,1.13,6.78,1.13,1.85-.18,3.57-1.31,5.09-2.3,2.93-2.1,5.68-3.19,9.33-3.15,1.18-1.04,2.39-2.48,3.39-3.69.88-.98,1.95-2.45,3.39-2.53,1.42.33,2.47,1.82,3.39,2.85,2.75,3.4,5.75,5.01,10.18,4.44,2.22,1.73,5.01,1.69,7.63,1.15,2.5-.43,5.1-.81,7.63-.92,3.38-.19,6.82.2,10.18.55,2.23.15,4.56.22,6.78.43.44.03,1.27.14,1.7.21.43.27,1.26.8,1.7,1.05,1.28.76,2.78,1.49,4.24,1.83,3.93,1.1,7.42-1.53,11.02-2.62,2.17-.62,4.55-.61,6.78-.81,1.66-.51,3.4-1.24,5.09-1.68,1.05-.3,2.31-.59,3.39-.74,2.23-.95,4.5-2.11,6.78-2.95,3.32-1.18,6.84-1.89,10.18-2.98,5.05-1.22,9.84,1.51,14.42,3.24,3.12,1.24,6.2,2.78,9.33,4.02,1.35.54,2.87,1.12,4.24,1.61.72.39,1.74.94,2.54,1.15"/><path class="b" d="M10.78,93.98c3.08-.22,6.24-.24,9.33-.25,1.49.26,2.83,1.44,4.24,1.95,2.86,1.25,6.3,1.65,9.33.84,2.73-1.08,4.9-3.37,7.63-4.45,1.58-.64,3.41-.7,5.09-.66.59-.05,1.34-.7,1.7-1.13,1.12-1.2,2.3-2.75,3.39-3.97,2-2.31,3.42-1.23,5.09.7,2.51,3.15,5.91,5.88,10.18,5.35,3.42,2.12,5.49,2.09,9.33,1.36,3.61-.65,7.35-1.07,11.02-.93,3.94.23,7.92.58,11.87.68.77.04,1.83.07,2.54.42.42.27,1.27.82,1.7,1.08,1.54.97,3.3,1.91,5.09,2.33,3.96,1.1,7.36-1.83,11.02-2.75,1.62-.39,3.43-.38,5.09-.46,1.45-.03,2.84-1.02,4.24-1.33,2.18-.67,4.52-1.2,6.78-1.48,1.46-.22,2.87-1.18,4.24-1.67,2.76-1.07,5.65-2.02,8.48-2.89,5.9-3.31,9.36-2.51,15.26.31,3.78,1.24,7.4,3.06,11.02,4.67,2.18,1,4.59,1.75,6.78,2.71"/><path class="b" d="M10.78,91.84c2.51-.17,5.12-.21,7.63-.18,1.51.12,2.85,1.4,4.24,1.95,2.84,1.49,6.19,1.91,9.33,1.31,1.87-.42,3.54-1.69,5.09-2.76,3.03-2.22,5.64-2.7,9.33-2.39,2.27-1.85,3.73-4.69,5.94-6.58,2.14-1.28,3.75,1.61,5.09,2.88,1.4,1.53,3.13,3,5.09,3.73,1.31.53,2.85.64,4.24.79,2.18,1.59,5,2.09,7.63,1.61,3.08-.46,6.21-1.06,9.33-1.15,3.38-.21,6.81.13,10.18.34,9.39.13,5.05-.19,12.72,3.78,5.49,2.61,7.87-.39,12.72-2.07,1.89-.58,3.99-.4,5.94-.41,2.86-1.55,6.15-2.15,9.33-2.7,1.35-.22,2.87-.41,4.24-.44,1.66-.59,3.43-1.3,5.09-1.91,1.66-.64,3.46-1.34,5.09-2.06,1.31-.9,2.78-1.95,4.24-2.59,3.35-1.43,7.09-.08,10.18,1.43,6.27,1.59,11.65,5.5,17.81,7.42"/><path class="b" d="M10.78,89.71c1.65-.14,3.43-.23,5.09-.25,1.21-.19,2.4.43,3.39,1.03,3.78,2.22,8.41,3.87,12.72,2.22,1.81-.69,3.44-2.03,5.09-3.01,2.53-1.67,5.57-1.69,8.48-1.45,2.46-1.7,3.9-4.63,5.94-6.75,3.61-3.35,5.52,5.95,13.57,7.11,1.18.01,2.35.63,3.39,1.12,1.3.5,2.84.78,4.24.71,2.53-.16,5.11-.75,7.63-.99,2.79-.26,5.68-.28,8.48-.2,3.37.21,6.8.37,10.18.37,1.58-.09,2.91,1.39,4.24,2.08,3.62,2.4,7.73,4.58,11.87,1.99,3.4-2.04,6.08-3.34,10.18-2.73,1.58-.86,3.29-1.76,5.09-2.05,1.91-.53,3.94-1.12,5.94-1.19,1.65-.07,3.44-.07,5.09-.01.43,0,1.27.08,1.7.14.44-.1,1.29-.4,1.7-.59,1.4-.59,2.92-1.33,4.24-2.07,2.09-1.74,4.08-4.05,6.78-4.81,2.94-.79,5.76.73,8.48,1.56,6.19,1.03,11.18,5.23,16.96,7.37"/><path class="b" d="M10.78,87.58c1.36-.07,2.91-.5,4.24-.11,2.41,1.44,4.83,3.15,7.63,3.75,3.42.86,7.14.21,10.18-1.53,1.62-.93,3.29-2.14,5.09-2.71,2.17-.74,4.55-.27,6.78-.27,2.87-1.95,4.26-5.47,6.78-7.74,2.38-1.43,4.32,2.28,5.94,3.58,1.44,1.41,3.23,2.67,5.09,3.45,1.31.55,2.83.97,4.24,1.12.76.26,1.77.65,2.54.85,4.2,1.04,8.48-.7,12.72-.64,3.94-.05,7.94.06,11.87.34,1.06.02,2.33.03,3.39.04.8,0,1.86-.08,2.54.41,3.93,2.14,7.92,6.13,12.72,5.19,4.65-1.46,7.19-5.43,12.72-4.65,1.62-.81,3.29-1.83,5.09-2.22,1.63-.55,3.37-1.26,5.09-1.49,1.65-.23,3.45,0,5.09.17,2.03.07,4.1.6,5.94,1.46,4.27-1.66,5.81-6.97,10.18-8.48,2.58-.85,5.16.43,7.63,1,6.27.67,11.55,4.45,16.96,7.36"/><path class="b" d="M10.78,85.46c2.3-.12,3.97,1.91,5.94,2.79,4.21,2.32,9.33,1.76,13.57-.18,2.77-1.15,5.36-3.22,8.48-3.22,1.65-.14,3.49.56,5.09.03,1.69-1.15,3.1-2.99,4.24-4.67.92-1.27,1.89-3.06,3.39-3.72,1.37-.27,2.51,1.01,3.39,1.88,1.02,1.06,2.24,2.3,3.39,3.21,4.95,3.8,11.73,5.02,17.81,3.99,3.35-.51,6.81-.38,10.18-.14,3.94.15,7.93.45,11.87.44,3.68,1.9,6.98,4.81,11.02,5.93,4.69,1.23,8.01-3.16,11.87-4.93,1.27-.58,2.84-.9,4.24-.87,1.1-.45,2.28-1.27,3.39-1.7,1.93-.77,3.96-1.64,5.94-2.29,3.04-.89,6.33-.15,9.33.6,1.79.58,3.26,2.21,5.09,2.63,3.01-3.19,4.61-8.66,9.33-9.73,2.01-.38,4,.52,5.94.78,6.19.64,11.86,3.65,16.96,7.05"/><path class="b" d="M10.78,84.14c8.97,6.98,14.64,2.61,23.74-.76,2.48-.77,5.12.09,7.63.07,2.55-1.53,4.34-4.18,5.94-6.62.92-1.34,2.45-3.37,4.24-2.17,1.79,1.28,3.31,3.15,5.09,4.44,2.52,1.87,5.5,3.21,8.48,4.16,3.55,1.12,7.39.81,11.02.3,2.5-.29,5.12-.87,7.63-.41,2.78.42,5.67.61,8.48.73,1.36.14,2.9,0,4.24.27.42.25,1.28.75,1.7,1.01,2.55,1.43,4.93,3.38,7.63,4.5,5.99,2.41,9.1-1.25,13.57-4.49,1.48-1.02,3.29-1.84,5.09-2.04,1.32-.78,2.86-1.55,4.24-2.23,2.48-.96,4.95-2.35,7.63-2.66,2.55-.17,5.31.23,7.63,1.31,1.19.64,2.4,1.72,3.39,2.63,0,0,.85.75.85.75l.85.3.85-.28c2.37-3.69,4.15-9.82,9.33-10.02,1.08,0,2.35.23,3.39.5,2.01.07,4.03.78,5.94,1.35,4.21,1.1,8.28,2.89,11.87,5.36"/><path class="b" d="M10.78,83.66c8.61,5.55,14.44-1.05,22.9-2.45,2.25-.33,4.54.51,6.78.61,1.33-.64,2.45-2.04,3.39-3.13,1.04-1.34,2.39-2.84,3.39-4.21,1.45-2.06,2.86-3.26,5.09-1.33,1.61,1.36,3.29,2.92,5.09,4.03,3.17,1.9,6.65,3.46,10.18,4.54,7.54,1.98,15.32-1.56,22.9.15,1.65.16,3.44.24,5.09.32,3.49,1.74,6.62,4.3,10.18,5.9,5.68,2.24,10.39-1.57,14.42-5.14,2.82-2.14,6.19-3.62,9.33-5.23,2.48-.95,4.99-2.22,7.63-2.67,2.82-.29,6.07-.14,8.48,1.5,1.22.88,2.43,2.21,3.39,3.35.75.33,1.8.79,2.54,1.13,4.23-8.76,5.42-13.45,16.11-8.75,4.42,1.87,9.38,2.4,13.57,4.82"/><path class="b" d="M10.78,82.6c7.97,3.92,13.49-3.14,21.2-3.47,2.28-.21,4.54.69,6.78.92,2.53-1.46,3.96-4.49,5.94-6.57,5.1-5.47,4.85-3.59,10.18.04,2.09,1.41,4.49,2.51,6.78,3.54,2.2.98,4.47,2.11,6.78,2.81,3.84,1.13,7.94.71,11.87.44,3.08-.23,6.24-.41,9.33-.46,1.36.11,2.87.38,4.24.45,3.45,1.76,6.66,4.09,10.18,5.73,5.86,3.13,11.05-2.22,15.26-5.72,2.47-2.23,5.43-3.87,8.48-5.16,1.59-.76,3.43-1.29,5.09-1.86,1.6-.58,3.38-1.13,5.09-1.3,2.52-.14,5.42-.21,7.63,1.17,1.24.91,2.44,2.3,3.39,3.5.8.45,1.82,1.21,2.54,1.78l.85.06c2.35-5.47,4.25-13.42,11.87-9.4,2.14,1.39,4.38,2.89,6.78,3.78,3.26,1.15,6.91.67,10.18,1.8"/><path class="b" d="M10.78,81.05c7.27,2.67,12.53-4,19.5-4.12,1.38-.01,2.91.22,4.24.6,1.05.25,2.31.81,3.39.46,2.24-2.1,3.83-5,5.94-7.22.97-.94,2.27-1.89,3.39-2.65,1.51-.64,3.02.52,4.24,1.3,3.66,2.5,7.91,4.05,11.87,5.98,2.68,1.33,5.48,2.75,8.48,3.14,6.75.82,13.59-.16,20.35-.18,2.19,1.37,4.58,2.64,6.78,3.98,3.26,1.8,7.38,3.94,11.02,2,5.09-2.86,8.18-8.5,13.57-10.93,2.97-1.36,6.14-2.36,9.33-3.03,3.81-1.1,7.97-1.65,11.87-.73,1.78.71,3.15,2.44,4.24,3.94,1.16.99,2.36,2.36,3.39,3.48,2.09-4.49,4.23-15.51,11.02-9.63,2.02,2.04,4.19,4.22,6.78,5.51,3.49,1.68,7.37.11,11.02.22"/><path class="b" d="M10.78,79.18c6.64,1.85,11.53-3.83,17.81-4.33,2.61-.22,5.13.92,7.63,1.44,2.25-1.16,3.47-3.89,5.09-5.74,1.34-1.76,3.19-3.37,5.09-4.49,1.12-.36,2.4.16,3.39.67,1.06.53,2.32,1.16,3.39,1.66,2.77,1.3,5.72,2.39,8.48,3.71,2.8,1.32,5.5,3.11,8.48,4.01,2.72.8,5.66.88,8.48,1.01,3.94.21,7.94.21,11.87-.19,1.61.91,3.5,1.6,5.09,2.55,4.2,2.4,9.92,5.72,14.42,2.24,4.73-3.69,7.58-9.97,13.57-11.95,2.94-1.28,6.19-1.62,9.33-2.07,3.33-.66,6.78-1.11,10.18-.98,5.01-.11,6.63,5.74,9.33,8.95,1.74-3.07,3.2-14.57,8.48-11.34,2.99,3.24,5.09,7.74,9.33,9.62,3.68,1.51,7.45-.65,11.02-1.48"/><path class="b" d="M10.78,77.2c7.1,1.31,11.23-4.01,17.81-4.26,2.32-.13,4.52,1.12,6.78,1.26,2.99-1.53,4.35-5.09,6.78-7.29,1.29-1.05,2.4-2.87,4.24-2.91,1.43.03,2.91.67,4.24,1.13,1.95.71,4,1.51,5.94,2.27,1.98.77,4.06,1.64,5.94,2.63,2.23,1.17,4.44,2.65,6.78,3.61,4.29,1.67,9.05,1.49,13.57,1.97,1.36.1,2.88.17,4.24.15.77-.02,1.81-.17,2.54.16,2.97,1.63,6.28,2.73,9.33,4.21,12.15,4.9,13.09-7.22,21.2-12.28,3.1-1.65,6.68-2.36,10.18-2.41,2.23-.19,4.56-.46,6.78-.72,2.78-.19,5.73-.8,8.48-.23,3.71,1.73,5.12,6.27,6.78,9.7,1.4-3.05,2.72-11.38,5.94-12.41,2.34.57,3.65,5.06,5.09,6.94,5.68,8.3,9.57,7.45,17.81,3.4"/><path class="b" d="M10.78,75.07c1.65.03,3.46.26,5.09-.05,4.33-.87,8.19-3.79,12.72-3.73,2.01-.08,3.97.95,5.94.97,4.02-2.09,5.84-6.76,9.33-9.45,2.34-1.33,5.21-.2,7.63.37,3.76,1.18,7.56,2.52,11.02,4.41,4.74,2.81,7.82,5.06,13.57,5.45,3.94.34,7.91,1.07,11.87,1.13,2.52,1.78,5.59,2.78,8.48,3.78,3,.95,6.23,1.72,9.33.74,4.21-1.29,6.55-6.56,9.33-9.71,2.34-3.14,5.48-4.92,9.33-5.53,2.49-.45,5.12-.3,7.63-.4,3.1-.21,6.24-.69,9.33-.98,4.36-.63,6.09-.27,8.48,3.68.83,1.21,1.26,3.51,2.54,4.19,1.13-3.16,1.88-7.26,4.24-9.78l.85-.14c1.19.66,1.96,2.45,2.54,3.61.71,1.56,1.68,3.68,2.54,5.16,5.42,8.48,10.77,7.74,18.66,3.02"/><path class="b" d="M10.78,72.65c2.22-.04,4.58.31,6.78.02,6.8-2.02,8.67-3.81,16.11-2.13,4.08-1.96,5.95-6.46,9.33-9.21,4.8-2.94,14.91,1.39,19.5,3.89,2.25,1.29,4.44,2.91,6.78,4.04,4.72,2.15,10.23,1.84,15.26,2.84.77.11,1.82.18,2.54.46.71.58,1.73,1.3,2.54,1.74,2.15.93,4.49,1.76,6.78,2.26,14,3.13,13.12-8.25,22.05-13.82,5.57-2.57,11.91-1.23,17.81-2.18,2.23-.25,4.56-.54,6.78-.8,5.07-1.09,6.83,2.53,8.48,6.6,1.83-2.23,1.79-6.18,4.24-7.97l.85.14c2.76,3.2,3.34,8.04,5.94,11.4,5.28,7.07,12.02,5.75,18.66,1.46"/><path class="b" d="M10.78,70.2c2.8.02,5.68.26,8.48.21,4.12-1.19,8.39-2.55,12.72-1.71,2.04.46,3.71-1.62,5.09-2.83,1.98-2.01,3.48-4.77,5.94-6.27,4.57-2.29,9.9-.8,14.42.91,6.01,1.99,10.53,7.36,16.96,8.19,3.66.47,7.39.82,11.02,1.51,1.21.52,2.24,1.77,3.39,2.41,1.51.89,3.4,1.31,5.09,1.74,8.92,1.59,12.76-1.26,17.81-8.26,1.81-2.29,3.89-4.86,6.78-5.76,4.93-1.39,10.21-.8,15.26-1.34,3.95-.3,7.93-.85,11.87-1.21,3.23-.39,4.61,3.17,5.94,5.46.81-2.03,1.38-5.23,3.39-6.42l.85.33c2.9,3.94,3.35,9.56,6.78,13.2,2.73,3,7.1,4.05,11.02,3.53,2.73-.38,5.28-1.74,7.63-3.12"/><path class="b" d="M10.78,67.9c3.37.1,6.8.28,10.18.35,3.59-.84,7.32-1.55,11.02-1.16,3.53.19,6.85-5.61,9.33-7.75,3.68-3.22,9.1-3.31,13.57-1.87,2.96.85,5.88,2.16,8.48,3.82,2.72,1.71,5.38,3.8,8.48,4.77,3,.95,6.24.87,9.33,1.32,1.37.28,3.09.18,4.24,1.07,1.43,1.39,3.09,2.98,5.09,3.47,3.3.96,6.9.64,10.18-.27,2.97-.93,5.55-2.99,7.63-5.25,3.36-3.72,6.31-8.13,11.87-8.2,5.09-.02,10.2-.36,15.26-.8,2.8-.23,5.68-.5,8.48-.8,3.7-.7,5.01-.42,6.78,3.22l.85-.49c.55-1.23,1.22-3.28,2.54-3.88l.85.33c3.35,4.54,3.37,11.62,8.48,14.88,3.03,1.74,6.74,2.11,10.18,1.94,2.71-.17,5.3-1.35,7.63-2.66"/><path class="b" d="M10.78,65.77c3.94.22,7.93.42,11.87.42,3.07-.42,6.22-.87,9.33-.76,3.73.06,6.69-5.16,9.33-7.36,3.46-2.94,8.36-3.88,12.72-2.77,5.38,1.03,9.89,4.28,14.42,7.16,2.04,1.21,4.41,2.07,6.78,2.3,1.94.2,4,.26,5.94.47,1.1.17,2.5.1,3.39.85,1.24,1.28,2.67,2.72,4.24,3.6,2.66,1.26,5.78.81,8.48-.1,2.78-.67,5.41-2.11,7.63-3.89,4.29-3.21,7.67-8.77,13.57-8.82,2.23-.12,4.55.22,6.78.15,2.81-.1,5.67-.61,8.48-.81,3.08-.26,6.24-.55,9.33-.82,4.12-.52,5.46-1.53,7.63,3.01.55-1.34,1.29-3.4,2.54-4.25l.85.1c3.67,4.26,3.34,11.61,8.48,14.75,2.29,1.28,5.06,1.58,7.63,1.83,3.79.42,7.69-.19,11.02-2.08"/><path class="b" d="M10.78,63.75c4.21.37,8.49.6,12.72.51,3.09-.08,6.23-.5,9.33-.55,3.41-.32,6.01-4.55,8.48-6.63,3-2.55,7.06-4.08,11.02-3.68,3.91.29,7.7,1.77,11.02,3.8,2.5,1.51,4.93,3.35,7.63,4.51,1.84.8,3.94,1.16,5.94,1.24,1.06.22,2.33.48,3.39.67.75.13,1.79.3,2.54.4.94.31,1.79,1.36,2.54,1.96,2.85,2.65,6.67,3.27,10.18,1.53,1.97-.89,4.12-1.72,5.94-2.91,4.33-2.62,7.89-6.72,12.72-8.45,2.45-.77,5.12-.49,7.63-.22,3.69.41,7.38-.52,11.02-.9,3.37-.35,6.81-.66,10.18-.98,2.92-.31,4.98-1.36,6.78,1.87l.85.02c.55-1.05,1.24-2.87,2.54-3.14,3.59,2.22,3.85,11.59,8.48,14.24,2.53,1.48,5.63,1.59,8.48,1.87,3.73.35,7.63.03,11.02-1.67"/><path class="b" d="M10.78,61.79c7.59,1.05,15.28.71,22.9.11,5.69-.58,7.68-10.34,19.5-9.8,7.09.18,11.85,4.67,17.81,7.64,2.6,1.2,5.64,1.34,8.48,2.18,1.06.27,2.37.4,3.39.82.4.4,1.26,1.19,1.7,1.55,2.61,2.29,5.2,2.41,8.48,1.81,2.09-.64,3.96-2.11,5.94-3.02,5.48-3,10.44-7.99,16.96-8.45,2.52-.09,5.11.41,7.63.38,2.55,0,5.12-.69,7.63-1.06,3.36-.45,6.81-.66,10.18-1.03,3.7-.3,6.52-1.6,8.48,2.66.78-1.11,1.53-2.87,2.54-3.79l.85-.19c1.26.68,1.98,2.65,2.54,3.88,1.52,3.35,2.55,7.81,5.94,9.79,2.32,1.2,5.08,1.27,7.63,1.49,3.99.36,8.15.21,11.87-1.41"/><path class="b" d="M10.78,59.89c5.6.81,11.31,1.22,16.96.73,2.81-.22,5.71-.24,8.48-.84,3.05-1.1,4.87-4.3,7.63-5.91,5.45-3.7,12.85-3.73,18.66-.81,3.18,1.51,6.09,3.71,9.33,5.12,1.3.56,2.84.95,4.24,1.11,1.92.55,3.98,1.1,5.94,1.52,2.47,2.46,4.88,4.08,8.48,3.08,1.69-.33,3.47-.88,5.09-1.47,1.59-1.08,3.45-2,5.09-3,1.9-1.15,3.9-2.4,5.94-3.31,6.24-2.77,8.71-2.46,15.26-2.18,3.14.1,6.25-.74,9.33-1.22,2.79-.33,5.68-.37,8.48-.63,2.49-.11,5.3-1.18,7.63.11.98.62,1.78,2,2.54,2.85.59-1.38,1.41-3.39,2.54-4.42l.85-.24c1.25.55,1.98,2.41,2.54,3.55,1.52,3.21,2.7,7.35,5.94,9.25,2.33,1.17,5.09,1.14,7.63,1.3,3.98.28,8.1.11,11.87-1.28"/><path class="b" d="M10.78,57.95c5.29.93,10.74,1.55,16.11,1.19,3.72-.2,7.39-.56,11.02-1.44,1.33-.06,2.45-1.22,3.39-2.04,1-.95,2.23-2.01,3.39-2.74,4.2-2.68,9.55-3.55,14.42-2.62,4.64.97,8.52,3.92,12.72,5.93,2.64,1.3,5.71,1.39,8.48,2.31.95.09,1.88.95,2.54,1.56,2.59,2.19,4.58,2.09,7.63.98,2.21-.77,4.49-1.67,6.78-2.18,1.93-1.02,3.97-2.11,5.94-3.06,2.92-1.37,6.16-2.16,9.33-2.69,2.21-.3,4.56-.21,6.78-.24,2.24-.01,4.58-.13,6.78-.5,2.22-.37,4.53-.87,6.78-.87,2.51-.04,5.13.09,7.63-.19,3.63-.59,6.51-1.06,8.48,2.82l.85.19c.83-1.68,1.48-4.45,3.39-5.19,3.05.91,4.2,9.35,8.48,11.6,2.31,1.26,5.09,1.05,7.63,1.16,3.97.23,8.04.09,11.87-1.05"/><path class="b" d="M10.78,55.93c3.9.76,7.9,1.41,11.87,1.73,3.09.23,6.26-.02,9.33-.39,3.12-.45,6.16-1.74,9.33-1.92,2.08-1.12,3.75-3.14,5.94-4.13,2.12-1.02,4.5-1.71,6.78-2.24,1.64-.17,3.44,0,5.09.12,5.26.65,9.65,3.95,14.42,5.96,1.85.84,3.96,1,5.94,1.28,1.35.15,2.4,1.25,3.39,2.05,2.34,1.79,4.29,1.42,6.78.22,1.92-.8,3.91-1.77,5.94-2.27,1.05-.27,2.34-.17,3.39-.4,1.9-.83,3.93-1.7,5.94-2.23,2.76-.65,5.66-1.1,8.48-1.37,3.37-.22,6.82-.15,10.18-.57,2.52-.27,5.09-.84,7.63-.88,2.52-.01,5.11.38,7.63.32,4.67-.21,7.36-2.12,10.18,3.1l.85-.25c.88-1.9,1.56-4.72,3.39-5.94l.85.03c2.66,2.22,3.47,6.2,5.94,8.64,2.19,2.03,5.46,3.48,8.48,2.81,1.59-.65,3.43-.27,5.09-.32,2.54.02,5.15-.28,7.63-.8"/><path class="b" d="M10.78,53.87c3.65.76,7.32,1.74,11.02,2.21,3.94.45,8.04.28,11.87-.78,2.52-.71,5-1.98,7.63-2.19,1.09-.14,2.35.38,3.39-.04,1.78-1.46,3.84-2.71,5.94-3.63,2.48-1.65,5.59-2.23,8.48-1.47,3.57.28,6.99,1.6,10.18,3.17,3.47,1.65,7.08,3.63,11.02,3.56,3.29,1.94,4.37,4.09,8.48,1.72,2.4-1.21,4.92-2.57,7.63-2.86,1.36-.12,2.88.04,4.24,0,7.69-2.3,15.86-1.62,23.74-2.64,2.22-.28,4.54-.62,6.78-.53,1.95.05,4,.55,5.94.13,1.94-.22,3.99-.43,5.94-.59,2.63-.38,4.65,1.84,5.94,3.86l.85-.23c.8-2.1,1.67-4.87,3.39-6.41l.85-.22c2.39,1.11,3.33,4.37,5.09,6.23.87,1.06,2.17,2.02,3.39,2.63,1.16.95,2.73,1.61,4.24,1.68,1.1.07,2.39-.18,3.39-.63.39-.27,1.22-.56,1.7-.55,3.09.19,6.26.11,9.33-.29"/><path class="b" d="M10.78,52.03c2.85.55,5.68,1.47,8.48,2.19,4.72,1.15,9.85.95,14.42-.77,4.52-2.03,7.76-4.33,12.72-1.65.54,0,1.3-.41,1.7-.74.82-.5,1.91-1.22,2.54-1.95,1.18-1.06,2.71-1.97,4.24-2.4,2.21-.61,4.62-.22,6.78.4,5.1.73,9.63,3.37,14.42,5.09,1.32.5,2.88.73,4.24,1.07,1.31.75,2.81,1.51,4.24,1.99,1.84.57,3.56-.65,5.09-1.52,1.81-1.02,3.86-1.95,5.94-2.23,2.22-.24,4.56.08,6.78.04,3.09-.01,6.25-.25,9.33-.43,3.08-.19,6.25-.19,9.33-.41,2.81-.17,5.67-.66,8.48-.74.75-.01,1.79.01,2.54.05,1.37-.13,2.88-.54,4.24-.76,2.78-.41,5.66-1.09,8.48-1.05,2.26.07,3.54,2.25,5.09,3.55.98-2.06,1.93-5.01,4.24-5.89,1.02-.02,1.94.98,2.54,1.7.74.92,1.73,2.19,2.54,3.04.9.96,2.22,1.77,3.39,2.32,2.92,2.68,7,2.67,10.18.42,2.79.24,5.68.3,8.48.18"/><path class="b" d="M10.78,50.32c3.5.51,6.73,2.19,10.18,2.92,4.96,1,10.28-.35,14.42-3.2,5.63-3.97,8.29-2.75,13.57.81.91-.63,1.77-1.88,2.54-2.66,1.55-1.62,3.67-2.84,5.94-3,2.28-.19,4.62.4,6.78,1.07,4.1.82,7.96,2.62,11.87,4.04,1.05.37,2.31.75,3.39.98,1.89.79,3.87,1.76,5.94,1.97,1.87.32,3.49-1.17,5.09-1.9,1.81-.92,3.89-1.62,5.94-1.69,8.75.25,17.54,1.12,26.29.42,2.51-.18,5.11-.51,7.63-.52,1.36-.28,2.88-.66,4.24-.97,2.5-.58,5.1-1.11,7.63-1.54,3.32-.68,5.57-.2,7.63,2.68.68-.25,1.4-1.45,1.7-2.06.62-.94,1.59-2.14,2.54-2.75,2.17-.41,3.54,2.13,5.09,3.26.94.8,2.2,1.56,3.39,1.88,1.97,1.38,4.27,2.71,6.78,2.36,1.45-.16,2.97-.74,4.24-1.44.99-.57,2.32-.13,3.39-.11,1.36.1,2.88.19,4.24.25"/><path class="b" d="M10.78,48.68c3.59.37,6.68,2.53,10.18,3.24,6.16,1.31,11.53-2.95,16.11-6.47,5.16-3.72,7.96-.61,11.87,2.87.75-.02,1.79-.05,2.54-.06,3.67-4.89,8.07-5.16,13.57-3.43,1.92.65,4.02,1.1,5.94,1.77,2.52.85,5.07,1.87,7.63,2.59,4.09,1.42,6.71,2.51,11.02.8,1.58-.75,3.35-1.46,5.09-1.74,2.22-.3,4.56.07,6.78.22,3.66.29,7.37.71,11.02,1.03,3.93.3,7.94.25,11.87-.04,2.25-.12,4.6-.28,6.78-.9,3.36-.85,6.78-1.71,10.18-2.39,3.95-.84,6.57-1.39,9.33,2.24,2.92-2.79,2.87-6.89,7.63-3.12,1.48,1.09,3.25,2.06,5.09,2.32,2.25,1.46,4.89,2.61,7.63,2.11,1.73-.19,3.44-.98,5.09-1.46,1.65.18,3.43.34,5.09.46"/><path class="b" d="M10.78,47.07c4.18.34,7.57,3.82,11.87,3.59,4.7-.36,8.32-4,11.87-6.74,1.99-1.67,4.12-3.67,6.78-4.09,3.56-.53,5.31,3.09,7.63,5.01,1.67.03,3.44.71,5.09.53,3.82-4.24,9.68-2.99,14.42-1.24,4.24,1.26,8.49,2.65,12.72,3.95,2.49.78,5.21.66,7.63-.31,2.44-.75,5.07-1.21,7.63-1.03,8.51.39,16.88,2.71,25.44,2.32,2.24-.08,4.58-.18,6.78-.62,3.67-.83,7.34-1.94,11.02-2.73,2.49-.52,5.07-1.29,7.63-1.25,1.69.09,3.15,1.4,4.24,2.59,2.78-3.32,2.57-5.92,7.63-3.23,1.55.78,3.35,1.37,5.09,1.52,1.65.61,3.29,1.67,5.09,1.85,2.23.32,4.59.02,6.78-.42.76-.14,1.76-.5,2.54-.53.75.05,1.79.1,2.54.14"/><path class="b" d="M10.78,45.48c1.5.05,2.93.88,4.24,1.54,2.09,1.05,4.38,2.21,6.78,2.09,4.18-.33,7.13-3.87,10.18-6.37,3.13-2.44,6.01-6.02,10.18-6.5,2.61-.27,4.6,1.9,5.94,3.87.94.67,2.33.73,3.39,1.12,1.43.46,2.93,1.22,4.24,1.94,5.05-3.37,9.07-2.38,14.42-.4,1.9.73,4,1.23,5.94,1.85,2.21.64,4.5,1.43,6.78,1.76,2.04.35,4.08-.38,5.94-1.14,1.32-.44,2.85-.75,4.24-.8,2.56-.1,5.13.67,7.63,1.14,7.29,1.28,14.59,3.17,22.05,2.86,3.77.02,7.44-1.05,11.02-2.11,4.19-1.09,8.45-2.2,12.72-2.89.75-.09,1.8-.14,2.54,0,1.33.39,2.82,1.16,4.24.99,1.12-2.01,2.66-3.42,5.09-2.7,1.93.52,3.94,1.22,5.94,1.4,2.08-.02,3.88,1.35,5.94,1.61,3.63.6,7.44.58,11.02-.29"/><path class="b" d="M10.78,43.9c4.69,1.91,9.57,5.81,14.42,1.99,5.49-3.96,16.24-18.57,22.9-9.83,3.61.49,6.62,2.85,9.33,5.12,7.24-4.25,11.64-.44,18.66,1.57,3,.81,6.19,2.08,9.33,1.31,1.12-.28,2.31-.95,3.39-1.33,2.74-.99,5.76-.59,8.48.26,4.47,1.29,9.04,2.4,13.57,3.49,6.36,1.49,13.23,2.14,19.5-.07,3.87-1.28,7.89-2.25,11.87-3.11,1.64-.36,3.42-.78,5.09-.98,1.94-.11,3.99-.18,5.94-.1,2.93.31,1.87-2.55,6.78-1.73,2.21.38,4.54.73,6.78.85,4.65,1.4,9.53,2.42,14.42,2.13"/><path class="b" d="M10.78,43.06c9.05,4.04,9.92,4.24,16.96-3.05,1.67-1.8,3.9-3.12,5.94-4.44,3.07-2.62,6.97-4.3,11.02-4.48,1.2-.06,2.35.73,3.39,1.21.78.07,1.82.36,2.54.66,3.08,1.24,5.28,3.94,7.63,6.16l.85.05c5.36-4.23,11.6-.69,16.96,1.56,2.7.89,5.62,1.79,8.48,1.18,1.14-.23,2.36-.85,3.39-1.35,2.7-1.23,5.79-.65,8.48.32,5.02,1.75,10.17,3.26,15.26,4.77,6.07,1.79,12.72,2.13,18.66-.35,4.37-1.67,9-2.63,13.57-3.55,1.92-.43,3.97-.76,5.94-.84,1.91-.42,3.98-.61,5.94-.66.87.01,1.73-.81,2.54-1.02,1.04-.27,2.33-.27,3.39-.2,2.23.17,4.56.37,6.78.57,4.17,1.07,8.42,2.11,12.72,2.43"/><path class="b" d="M10.78,42.52c1.94.59,3.95,1.42,5.94,1.79,5.67.25,8.3-6.71,12.72-9.25,1.86-1.13,3.96-2.03,5.94-2.91,1.78-1.07,3.93-1.51,5.94-1.91,1.36-.29,2.85-.8,4.24-.94.43-.03,1.28.09,1.7.23.76-.03,1.81.07,2.54.28,2.37.67,4.34,2.49,5.94,4.3,1.01,1.13,1.99,2.81,3.39,3.49,5.25-5.3,11.41-2.13,16.96.74,1.32.6,2.87,1.06,4.24,1.52,1.37.16,2.91.07,4.24-.29,1.13-.3,2.34-.99,3.39-1.48,3.11-1.29,6.41.23,9.33,1.35,4.45,1.77,9.08,3.2,13.57,4.88,5.97,2.25,12.75,2.68,18.66,0,5.11-2.28,10.64-3.3,16.11-4.26,4.22-.56,8.45-1.54,12.72-1.64,2.34-1.16,5.1-.96,7.63-.83,5.19.12,10.15,1.97,15.26,2.64"/><path class="b" d="M10.78,42.03c1.64.3,3.42.75,5.09.85,4.3-.37,6.53-4.86,9.33-7.6,1.94-2.27,4.89-3.27,7.63-4.21,1.64-.51,3.4-1.09,5.09-1.41,1.37-.19,2.91-.35,4.24-.75,8.79-3.63,11.18.57,16.11,7.01,2.7-2.36,4.53-4.38,8.48-4.01,4.03.34,7.31,3.02,11.02,4.31,1.35.53,2.83,1.21,4.24,1.54.78-.06,1.8-.24,2.54-.46,1.13-.32,2.33-1,3.39-1.48,3.2-1.15,6.4.82,9.33,1.94,4.18,1.79,8.57,3.24,12.72,5.09,5.89,2.67,12.73,3.14,18.66.32,2.75-1.17,5.55-2.48,8.48-3.15,5.31-1.16,10.77-1.76,16.11-2.78,2.21-.34,4.54-.61,6.78-.57.77-.07,1.78-.45,2.54-.57,1.35-.21,2.88-.23,4.24-.19,4.9-.03,9.63,1.48,14.42,2.33"/><path class="b" d="M10.78,41.41c1.65.07,3.48.29,5.09-.16,3.78-1.48,5.7-5.57,8.48-8.3,1.91-2.21,4.95-2.61,7.63-3.27,1.66-.36,3.44-.76,5.09-1.17,1.37-.14,2.91-.23,4.24-.62,2.21-.7,4.39-1.98,6.78-1.83,4.58.32,6.79,5.04,9.33,8.2,3.14-4.91,7.17-6.7,12.72-4.44,1.89.87,4.04,1.35,5.94,2.22,2.52,1.07,5.03,2.4,7.63,3.26,1.43-.29,2.91-.94,4.24-1.54,3.56-1.03,6.94,1.5,10.18,2.65,2.79,1.19,5.69,2.35,8.48,3.56,4.15,2.26,8.75,4.18,13.57,3.83,6.42-.15,11.64-4.62,17.81-5.82,3.63-.71,7.4-.96,11.02-1.7,4.47-.83,9-1.76,13.57-1.35,6.13-1.82,12.58.02,18.66,1.21"/><path class="b" d="M10.78,40.5c7.12-.04,8.41-5.05,12.72-9.44,1.36-1.49,3.14-2.04,5.09-2.18,1.94-.29,4.01-.55,5.94-.97,2.25-.68,4.6-.91,6.78-1.58,1.88-.7,3.87-1.62,5.94-1.49,3.95.33,6.57,4.04,8.48,7.14.98-.68,1.76-2.13,2.54-3,1.29-1.49,3.11-2.74,5.09-3.01,1.97-.37,4,.3,5.94.51,5.73.84,10.87,3.86,16.11,6.14,1.68-.2,3.34-1.28,5.09-.87,3.53.83,6.81,2.67,10.18,3.98,7.5,2.96,11.44,7.71,20.35,6.46,6.91-.82,12.5-6.01,19.5-6.46,2.52-.27,5.15-.38,7.63-.9,3.91-.74,7.88-1.79,11.87-1.9,1.37,0,2.88.24,4.24.36,1.59-.57,3.41-.76,5.09-.81,4-.21,7.97.78,11.87,1.53"/><path class="b" d="M10.78,39.18c1.38-.34,2.91-.79,4.24-1.31,3.5-2.27,5.34-6.4,8.48-9.06,1.38-1.27,3.33-1.3,5.09-1.36,1.66-.12,3.46-.34,5.09-.71,2.51-.72,5.15-1.3,7.63-2.09,5.42-2.33,9.93.77,12.72,5.4.9-.86,1.75-2.33,2.54-3.28,1.3-1.57,3.07-2.98,5.09-3.43,4.55-.76,9.26.38,13.57,1.83,4.02,1.45,8.01,3.15,11.87,4.97.48.17,1.24.15,1.7-.05.77-.13,1.79-.06,2.54.12,3.78,1.12,7.4,2.9,11.02,4.42,4.02,2.37,7.9,5.5,12.72,5.96,3.71.41,7.56-.24,11.02-1.58,3.43-1.3,6.67-3.25,10.18-4.34,3-.93,6.23-.79,9.33-.98,2.86-.19,5.66-1.17,8.48-1.66,3.31-.87,6.81-1.44,10.18-.56,1.08.42,2.34-.12,3.39-.39,1.04-.23,2.33-.37,3.39-.43,3.41-.3,6.84.55,10.18,1.16"/><path class="b" d="M10.78,37.36c1.68-.7,3.46-1.54,5.09-2.35,2.99-2.1,4.6-5.88,7.63-7.98,1.45-1.12,3.37-.99,5.09-1.02,1.67-.09,3.47-.4,5.09-.82,1.92-.57,4.01-.98,5.94-1.54,1.6-.47,3.42-1.05,5.09-.59,1.48.56,2.92,1.65,4.24,2.5,1.22.93,2.28,2.43,3.39,3.46,3.6-8.19,8.7-9.54,16.96-7.41,6.43,1.34,12.7,3.52,18.66,6.26.44.2,1.27.61,1.7.81,1.09-.09,2.36.08,3.39.41,2.85.97,5.72,2.17,8.48,3.38,1.77.96,3.4,2.42,5.09,3.5,2.02,1.33,4.38,2.37,6.78,2.72,5.19.69,10.51-.64,15.26-2.7,5.62-2.48,8.82-4.42,15.26-3.74,1.95.1,4.06.17,5.94-.46,1.61-.66,3.43-1.09,5.09-1.58,1.9-.54,3.95-1.12,5.94-1.12,2-.05,3.97.92,5.94,1.01,1-.5,2.29-.9,3.39-1.1,3.6-1.06,7.43-.07,11.02.55"/><path class="b" d="M10.78,35.15c2.51-1.49,5.2-2.91,7.63-4.53,2.45-2.8,5.2-6.4,9.33-6.17,3.13-.08,6.28-.87,9.33-1.52,1.63-.4,3.39-.97,5.09-.93,3.96.19,5.35,3.96,7.63,6.47,1.27-1.68,2.07-4.12,3.39-5.77,2.73-3.55,6.8-4.64,11.02-3.39,3.89,1.03,7.94,1.56,11.87,2.37,5.27,1.24,10.43,3.16,15.26,5.6,2.9.53,5.77,1.52,8.48,2.67,2.23.81,4.06,2.55,5.94,3.93,1.97,1.45,4.34,2.59,6.78,2.9,4.27.46,8.63-.56,12.72-1.69,2-.76,3.91-2.01,5.94-2.72,2.18-.74,4.53-1.34,6.78-1.82,3.12-.5,6.24.61,9.33.85,2.47.28,4.71-1.19,6.78-2.32,2.05-1.07,4.47-1.77,6.78-1.86,2.02.04,4.05.78,5.94,1.43,1.48-.28,2.8-1.47,4.24-1.9,3.32-.91,6.86-.06,10.18.48"/><path class="b" d="M10.78,32.78c3.3-2.24,6.75-4.39,10.18-6.43,3-2.98,6.95-3.73,11.02-3.85,7.14-.85,10.35-3.9,15.26,3.49,3.28-3.51,6.2-9.49,11.87-8.62,3.13.55,6.15,1.9,9.33,2.21,2.51.32,5.13.35,7.63.71,2.57.37,5.17,1.1,7.63,1.92,3.19,1.02,6.3,2.47,9.33,3.89,1.33.46,2.91.65,4.24,1.13,1.73.58,3.6,1.3,5.09,2.38,2.38,1.79,4.69,3.99,7.63,4.81,4.49,1.24,9.16-.27,13.57-1.21,3.3-1.55,6.45-3.79,10.18-4.21,3.4-.43,6.97-.63,10.18.8,3.68,1.44,5.94,2.08,9.33-.55,2.34-1.58,4.57-4.04,7.63-3.82,1.41.05,2.93.51,4.24,1.01.72.3,1.74.8,2.54.51,3.4-3.99,9.04-2.69,13.57-1.99"/><path class="b" d="M10.78,30.43c4.55-3.12,9.19-6.4,14.42-8.29,2.15-.78,4.53-.81,6.78-1,4.42-.5,8.48-2.64,11.87,1.54,4.5-2.43,8.67-8.13,14.42-6.24,2.51.75,5.01,1.9,7.63,2.26,3.07.52,6.25-.05,9.33.35,5.35.15,10.44,1.96,15.26,4.14,1.36.59,2.87,1.24,4.24,1.81,1.4.21,2.93.57,4.24,1.11,2.89,1.04,5.1,3.37,7.63,5.01,2.99,1.98,6.77,2.03,10.18,1.28,1.65-.4,3.53-.6,5.09-1.31,3.07-1.4,5.92-3.62,9.33-4.13,3.07-.38,6.26.07,9.33.26,2.95.87,5.45,3.08,8.48,3.75,5.13.39,7.24-6.59,11.87-7.54,2.33-.33,4.51,1.34,6.78,1.32,3.54-4.15,8.91-2.28,13.57-2.03"/><path class="b" d="M10.78,28.22c7.01-4.75,11.63-7.88,20.35-8.36,2.51-.25,5.09-1.3,7.63-.85.82.21,1.68,1,2.54,1.02,2.07-1.4,4.51-2.32,6.78-3.31,2.62-1.2,5.61-2.26,8.48-1.31,3.33,1.07,6.6,2.75,10.18,2.74,1.07.04,2.33-.07,3.39-.1,1.92.35,3.98.58,5.94.63,3.68.08,7.55-.09,11.02,1.34,2.49,1.15,5.04,2.36,7.63,3.28,1.35.4,2.95.5,4.24,1.15,2.81,1.15,5.07,3.38,7.63,4.94,4.14,2.4,9.46,1.47,13.57-.54,3.56-1.58,6.93-4.28,11.02-4.07,3.69.26,7.3,1.61,11.02,1.66,2.79,1.32,5.23,4.1,8.48,4.12,4.05-.59,5.7-5.18,8.48-7.64,2.29-2.34,4.98-1.43,7.63-.32.98-.01,1.74-1.1,2.54-1.54,3.67-2.19,7.93.1,11.87-.36"/><path class="b" d="M10.78,26.19c6.46-4.05,10.05-6.4,17.81-7.31,2.53-.37,5.06-1.38,7.63-1.37.82.06,1.71.68,2.54.5,2.01-1.24,4.57-1.51,6.78-2.29,2.47-.7,5.02-1.71,7.63-1.65,3.56.17,6.69,2.33,10.18,2.88,1.93.41,3.99.17,5.94.21,1.06.24,2.32.48,3.39.65,4.76.83,9.66-.08,14.42.7,2.66.53,5.14,1.93,7.63,2.96,1.35.46,2.96.68,4.24,1.36,2.97,1.42,5.46,3.86,8.48,5.18,5.34,2.26,10.58-1.25,15.26-3.52,2.86-1.58,6.08-2.72,9.33-1.63,3.61,1.11,7.2,2.67,11.02,2.83.93-.03,1.82.86,2.54,1.35,1.01.72,2.25,1.58,3.39,2.09,8.68,3.06,8.12-13.97,17.81-8.5,5.55-4.91,8.35-.52,14.42-1.66"/><path class="b" d="M10.78,24.35c3.07-1.59,6.07-3.55,9.33-4.76,2.16-.8,4.54-1.16,6.78-1.61,1.67-.34,3.43-.89,5.09-1.3,1.35-.34,2.96-.55,4.24.12,1.63-1.49,3.92-1.26,5.94-1.65,2.54-.46,5.08-1.34,7.63-1.74,5.35-.9,7.87,1.24,12.72,2.28,2.21.49,4.55.33,6.78.28,2.2.52,4.53,1.01,6.78,1.22,3.92.51,7.94.02,11.87.34,2.35.25,4.63,1.27,6.78,2.18,3.09.8,5.9,2.56,8.48,4.39,5.27,3.8,9.05,2.73,14.42-.11,2.58-1.08,4.98-2.8,7.63-3.71,3.51-1.12,7.01.76,10.18,2.08,2.93,1.24,6.11,2.3,9.33,2.29,2.71,1.89,6.07,4.78,9.33,2.24,2.76-2.27,4-6.07,6.78-8.33,1.17-.97,2.87-1.03,4.24-.47.4.27,1.23.42,1.7.29,3.35-3.22,6.37-1.53,10.18-.59,1.37.2,2.9,0,4.24-.3"/><path class="b" d="M10.78,22.63c2.84-1.21,5.58-2.84,8.48-3.92,2.16-.81,4.55-1.2,6.78-1.72,2.77-.57,5.59-2.17,8.48-1.5,2.54-2.1,4.74-.97,7.63-1.51,3.62-.72,7.3-1.69,11.02-1.59,2.94-.27,5.69,1.07,8.48,1.78,2.46.68,5.11.74,7.63.45,1.09-.22,2.33.22,3.39.42,1.35.29,2.87.55,4.24.75,3.34.56,6.8.57,10.18.61,5.91.09,11.26,3.27,16.11,6.35,2.2,1.51,5.05,2.17,7.63,1.36,3.6-1.14,6.94-3.14,10.18-5.05,4.1-2.61,7.74-1.7,11.87.27,4.02,1.78,8.21,3.91,12.72,3.79,6.4,4.85,8.88,1.91,12.72-3.75,2.24-2.99,3.95-4.23,7.63-2.6,3.46-3.38,6.38-1.52,10.18-.17,1.64.44,3.48.13,5.09-.32"/><path class="b" d="M10.78,20.83c3.74-1.02,7.19-3.16,11.02-3.94,2.86-.58,5.69-1.55,8.48-2.36.76-.18,1.77-.27,2.54-.17,1.06-.49,2.22-1.25,3.39-1.46,1.65-.27,3.42.37,5.09.11,3.68-.33,7.32-1.38,11.02-1.58,1.65-.04,3.47-.43,5.09,0,3.58,1.04,7.22,2.47,11.02,2,1.37-.07,2.87-.48,4.24-.38,2.5.52,5.11,1,7.63,1.38,3.91.71,8.03.33,11.87,1.42,3.62,1.11,6.75,3.51,10.18,5.07,1.78,1,3.87,1.78,5.94,1.38,4.79-.86,8.48-4.38,12.72-6.49,2.64-1.35,5.78-1.08,8.48-.04,4.25,1.55,8.3,3.82,12.72,4.87,1.33.31,2.87.47,4.24.41,1.24.74,2.77,1.43,4.24,1.42,6.02,0,7.84-11.03,14.42-7.42,3.54-3.39,6.48-1.36,10.18.28,1.89.76,4.07.33,5.94-.3"/><path class="b" d="M10.78,18.96c2.02-.27,4.02-1.01,5.94-1.66,2.19-.75,4.54-1.31,6.78-1.89,2.82-.71,5.53-2.16,8.48-2.28,4.31-2.93,6.52-.65,11.02-1.19,4.75-.78,9.58-2.31,14.42-2.07,1.98.38,3.98,1.12,5.94,1.58,3.62.96,7.38.31,11.02-.12,4.78.88,9.6,1.75,14.42,2.37,1.07.19,2.34.48,3.39.79,1.09.53,2.34,1.25,3.39,1.85,2.66,1.53,5.47,3.07,8.48,3.8,8.21,1.86,13.02-8.98,21.2-7.7,7.55,1.16,14.25,6.3,22.05,6.1.75-.12,1.79.15,2.54.14,1.83-.02,3.66-.91,5.09-2,2.89-2.35,5.24-5.26,9.33-3.4,3.9-3.51,7.1-.6,11.02.78,1.94.62,4.08.12,5.94-.55"/><path class="b" d="M10.78,17.14c4.57-.68,9.14-1.88,13.57-3.18,2.2-.82,4.46-1.76,6.78-2.19,1.27-.69,2.79-1.26,4.24-1.38,1.98-.15,3.95.71,5.94.6,3.14-.08,6.25-1.18,9.33-1.74,2.48-.42,5.11-1.14,7.63-.85,3.11.47,6.17,1.58,9.33,1.76,3.1.24,6.24-.36,9.33-.46,4.8,1.01,9.76,1.64,14.42,3.21,2.53,1.4,4.93,3.24,7.63,4.31,10.98,4.4,12.64-4.03,21.2-6.93,3.07-.85,6.34-.03,9.33.79,3.1.86,6.24,1.86,9.33,2.79,3.52.92,7.5,2.7,11.02.95,1.34-.5,2.94-.75,4.24-1.39,1.37-.63,2.81-1.55,4.24-2.05.71-.25,1.79-.39,2.54-.31.77.1,1.75.6,2.54.42,4.21-3.36,7.65-.16,11.87.83,1.98.45,4-.23,5.94-.52"/></svg>