<?xml version="1.0" encoding="UTF-8"?><svg id="a" xmlns="http://www.w3.org/2000/svg" width="1920" height="2400" viewBox="0 0 192 240"><defs><style>.b{fill:none;stroke:#fff;stroke-miterlimit:10;stroke-width:.3px;}.c{stroke-width:0px;}</style></defs><rect class="c" x="0" width="192" height="240"/><path class="b" d="M10.91,217.16c4.85.71,9.12,3.51,13.55,5.46l.85-.09c2.05-2.24,5.17-1.14,7.62-.27,2.95.9,5.89,2.06,8.47,3.79,1.19.57,2.13.79,3.39,1.05.87.4,1.86,1.26,2.54,1.92,2.64,2.89,4.94,3.16,8.47,1.67,10.93-4.89,14.41-2.32,25.4-2.01,2.24,0,4.56-.37,6.77-.65,2.52-.25,5.12-.56,7.62-.99,1.95-.31,3.96-.91,5.93-1.12,1.36-.11,2.89.03,4.23.21,3.47-4.29,4.91-1.97,8.47.55,3.09,2.32,7.43,3.19,11.01,1.54,4.48.95,9.16.88,13.55-.52,1.06-.29,2.32-.66,3.39-.91,1.08.15,2.33.48,3.39.71.75.17,1.8.37,2.54.58,1.04.77,2.28,1.69,3.39,2.36,5.59,3.6,12.08-.08,17.78-1.6,1.9-.62,3.93-1.28,5.93-1.52,1.93-.21,4-.11,5.93-.3"/><path class="b" d="M10.91,215.35c4.52.07,8.05,3.39,11.85,5.39,2.52-3.93,5.94-1.63,9.31-.44,2.47.94,5.21,1.38,7.62,2.47,2.17,1.19,4.75,1.86,6.77,3.28,3.37,3.18,4.72,4.7,9.31,2.27,2.65-1.35,5.47-2.72,8.47-3.01,4.23-.25,8.5.46,12.7.86,3.35.42,6.8.74,10.16.24,3.64-.54,7.37-.88,11.01-1.46,1.66-.24,3.41-.74,5.08-.9,1.37-.15,2.87.37,4.23.27,3.65-5.04,6.94.11,11.01,1.39,1.87.63,4,.89,5.93.41,2.18.67,4.49,1.23,6.77,1.36,2.84.2,5.76-.3,8.47-1.13,1.06-.33,2.31-.77,3.39-1.07.44-.19,1.25-.21,1.69-.03,1.06.29,2.32.62,3.39.87,1.43.93,2.79,2.28,4.23,3.19,4.39,3.25,9.81.86,14.39-.66,4.66-1.58,9.42-3.26,14.39-3.42"/><path class="b" d="M10.91,213.61c3.73-.18,6.57,2.89,9.31,5,1.03-.34,1.64-1.71,2.54-2.24,1.35-.77,2.97-.16,4.23.5,1.33.68,2.82,1.42,4.23,1.89,2.73.94,5.71,1.25,8.47,2.08,2.57,1.1,5.48,1.95,7.62,3.8,2.99,3,4.6,3.97,8.47,1.54,2.56-1.6,5.38-3.12,8.47-3.23,4.51.03,9.08.35,13.55,1.03,3.62.52,7.35,1,11.01.58,3.64-.52,7.33-1.08,11.01-1.31,1.67-.21,3.4-.88,5.08-.96,1.08,0,2.35.3,3.39.59.9-.37,1.71-1.42,2.54-1.91,2.97-1.55,5.72,1.45,8.47,2.26,1.03.36,2.3.63,3.39.71.45-.06,1.27.02,1.69.15,2.71.97,5.57,1.81,8.47,1.94,2.85.14,5.79-.4,8.47-1.39,1.34-.47,2.82-1.08,4.23-1.27.75.23,1.78.53,2.54.74.9.42,1.81,1.42,2.54,2.07,5.13,4.95,8.18,4.35,14.39,1.89,2.76-1.02,5.65-1.95,8.47-2.79,2.46-.76,5.04-1.53,7.62-1.73"/><path class="b" d="M10.91,211.75c3.27.26,5.42,3.39,7.62,5.49,1.38-2.54,2.86-4.94,5.93-2.84,1.83,1.21,3.78,2.53,5.93,3.09,2.75.72,5.67.95,8.47,1.41,2.82,1,6.05,1.82,8.47,3.63,3.02,2.77,4.55,4.54,8.47,1.77,3.21-2.38,6.9-4.22,11.01-3.58,3.95.16,7.97.25,11.85,1.09,3.61.66,7.34,1.06,11.01.89,2.24-.11,4.55-.59,6.77-.86,1.36-.07,2.88.13,4.23-.02,1.98-.19,3.91-1.37,5.93-1.19,1.09.11,2.31.63,3.39.8,3.57-4.32,5.99-2,10.16-.37,1.31.51,2.86.63,4.23.82,3.5,1.38,7.2,2.64,11.01,2.55,2.29-.03,4.65-.49,6.77-1.33,2.18-.72,4.65-2.2,6.77-.58,1.87,1.82,3.71,3.97,5.93,5.38,4.22,2.7,8.69-1.02,12.7-2.38,2.17-.83,4.53-1.44,6.77-2.06,2.18-.67,4.49-1.29,6.77-1.5"/><path class="b" d="M10.91,210.14c2.14,1.05,3.62,3.29,5.08,5.09l.85.25c3.08-7.29,4.75-3.46,9.31-.39,1.5.9,3.34,1.39,5.08,1.55,3.11.27,6.32.31,9.31,1.33,2.25.69,4.78,1.21,6.77,2.5,3.52,3.03,5,5.06,9.31,1.6,4.54-3.39,6.2-4.11,11.85-3.54,1.94.1,3.99.11,5.93.22,1.66.21,3.44.59,5.08.94,3.59.81,7.34,1.08,11.01.94,2.24,0,4.55-.47,6.77-.52,1.35.14,2.87.47,4.23.28,4.71-1.04,4.03-2.42,9.31-.53.83-.51,1.68-1.55,2.54-2.03,2.24-1.17,4.68.09,6.77.97,1.58.69,3.38.93,5.08,1.02.76.3,1.78.72,2.54,1.02,3.99,1.55,8.49,2.29,12.7,1.31,2.54-.62,5.01-1.94,7.62-2.22,3.11,1.93,4.91,5.98,8.47,7.43,4.12,1.36,7.45-2.65,11.01-4.06,2.11-1,4.5-1.52,6.77-1.97,2.2-.54,4.5-1.05,6.77-1.1"/><path class="b" d="M10.91,209.66c1.22,1.41,2.39,3.32,3.39,4.89.84-.32,1.41-1.97,1.69-2.71.52-1.01,1.3-2.61,2.54-2.84,2.19.38,3.41,2.87,5.08,4.14,4.09,3.71,8.87,1.54,13.55,2.81,3.38.74,7,1.03,10.16,2.53,1.63,1.19,3.12,2.95,5.08,3.62,1.93.46,3.66-1,5.08-2.1,1.57-1.21,3.25-2.58,5.08-3.38,2.67-1.07,5.68-.12,8.47-.22,1.65.1,3.45-.06,5.08.24,2.8.55,5.62,1.44,8.47,1.69,2.79.27,5.67.08,8.47-.03,1.65-.04,3.45-.33,5.08.09,1.92.49,4.07.7,5.93-.12,1.04-.43,2.25-1.06,3.39-1.14,1.65.07,3.45.93,5.08.42.62-.66,1.66-1.37,2.54-1.61,1.7-.51,3.52.11,5.08.79,1.84.76,3.92,1.4,5.93,1.02,4.72,2.07,10.1,3.63,15.24,2.41,1.66-.44,3.43-1.02,5.08-1.48.73-.2,1.77-.54,2.54-.33,2.26,2.3,4.17,5.19,6.77,7.13,1.84,1.38,4.19.93,5.93-.39,1.98-1.4,3.83-3.21,5.93-4.46,2.26-1.41,5.01-1.84,7.62-2.1,1.92-.34,3.98-.56,5.93-.33"/><path class="b" d="M10.91,211.05c.41.78,1.26,2.35,1.69,3.13,1.5-2.19,1.64-6.1,4.23-7.33,3.79,1.04,4.33,7.74,11.01,7.64,1.94.02,3.99-.3,5.93-.3.76.17,1.78.36,2.54.49,3.07.5,6.29.57,9.31,1.37,3,.51,4.64,3.83,7.62,4.46,3.69.31,6.77-4.74,10.16-6.1,2.39-1.03,5.11-.1,7.62-.17,1.93.16,4.02-.1,5.93.25,2.5.57,5.05,1.37,7.62,1.6,4.2.53,8.53-.71,12.7.02,2.19.51,4.55,1.18,6.77.43,1.07-.34,2.28-.99,3.39-1.2,1.95-.08,3.99.39,5.93.46,3.57-3.26,6.34-.85,10.16.1,1.37.43,2.89-.17,4.23.16,3.97,1.62,8.4,2.66,12.7,2.15,2.81-.43,5.62-1.61,8.47-1.71,2.73,2.42,5.56,8.05,9.31,8.4,2.52-.14,4.27-2.46,5.93-4.1,2.07-2.22,4.51-4.55,7.62-5.07,1.34-.24,2.87-.22,4.23-.26,1.66-.2,3.46-.19,5.08.25"/><path class="b" d="M10.91,213.62c1.12-2.54,1.74-7.41,4.23-8.84,3.42.75,4.42,8.36,10.16,8.88,2.26.23,4.55-.45,6.77-.72,1.94.15,3.98.49,5.93.59,3.1.21,6.33.29,9.31,1.23.78.55,1.8,1.36,2.54,1.95,6.07,5.41,8.74-.73,13.55-3.96,1.8-1.3,3.87-.98,5.93-.75,2.79.3,5.68.16,8.47.39,2.48.58,5.06,1.26,7.62,1.39,4.23.25,8.56-1.13,12.7.22,1.89.54,3.99.85,5.93.36,1.36-.3,2.82-1.01,4.23-.98,1.96-.07,3.99.42,5.93.61,4.06-3.35,6.78-.03,11.01.29,1.07.06,2.32-.23,3.39-.22,1.88.74,3.94,1.29,5.93,1.6,1.92.31,3.99.5,5.93.24,2.51-.46,5.07-1.19,7.62-1.44,1.04.27,1.84,1.52,2.54,2.25,1.87,2.06,3.54,4.62,5.93,6.12,5.19,2.8,8.51-8.86,14.39-10.28,1.6-.49,3.43-.41,5.08-.32,1.68-.03,3.5-.02,5.08.65"/><path class="b" d="M10.91,206.88c.53-1.27,1.18-3.41,2.54-4.03l.85.17c1.8,1.5,2.84,4.01,4.23,5.86,1.53,2.23,3.95,4.08,6.77,3.96,2.86.05,5.6-1.42,8.47-1.05,3.93.23,7.96.07,11.85.74,1.67.1,2.96,1.48,4.23,2.42,3.27,2.64,5.98,3.36,9.31.39,2.42-1.93,4.38-5.12,7.62-5.69,1.37-.03,2.87.3,4.23.38,1.65.15,3.43.28,5.08.32,1.66.02,3.45-.02,5.08.39,1.92.33,3.98.56,5.93.49,1.94-.1,3.98-.42,5.93-.51,2.84.12,5.63,1.22,8.47,1.34,1.68.03,3.43-.5,5.08-.75,2.23-.18,4.6.02,6.77.57.41.19,1.26.27,1.69.14.39-.27,1.25-.72,1.69-.89,1.29-.72,2.92-.4,4.23.08,1.6.55,3.37,1.17,5.08,1.16,1.37.12,2.94-.59,4.23-.02,2.71.85,5.63,1.3,8.47,1.35,2.56,0,5.09-.96,7.62-1.22.76.21,1.82.51,2.54.83,1.08,1.2,2.34,2.67,3.39,3.89,1.76,1.83,3.86,4.94,6.77,4.09,1.83-.78,3.09-2.71,4.23-4.25,2.08-2.85,4.14-6.33,7.62-7.59,1.87-.65,3.99-.56,5.93-.42,1.4-.05,2.97.16,4.23.8"/><path class="b" d="M10.91,201.62l.85-.55.85.13c2.79,2.29,3.94,6.25,6.77,8.56,3.63,3.25,8.53,1.68,12.7.62,2.79-.23,5.67-.19,8.47-.13,1.95.07,4.01.22,5.93.58,1.75,1.11,3.28,2.8,5.08,3.84,3.09,2.01,6.87.34,9.31-1.93,2.19-1.99,4.27-5.47,7.62-5.13,4.74.73,9.6,1.25,14.39.81,2.81.33,5.68-.05,8.47-.32,3.11.15,6.23.86,9.31,1.17,1.67.08,3.43-.36,5.08-.51,3.14.07,6.41.3,9.31,1.61,4.23-2.64,4.97-1.29,9.31-.31,1.92.41,3.99.15,5.93.07.75.22,1.78.49,2.54.65,2.48.44,5.1.87,7.62.61,1.66-.17,3.41-.9,5.08-.73,1.07.27,2.34.65,3.39.99,2.47,2.5,4.45,5.88,7.62,7.57,2.54,1.07,4.57-1.54,5.93-3.34,3.02-4.23,5.91-9.81,11.85-9.77,2.23.09,4.68-.17,6.77.75"/><path class="b" d="M10.91,199.61c3.73,2.92,5.09,8.88,10.16,10.14,3.63,1.3,7.43.3,11.01-.68,2.46-.63,5.09-.85,7.62-.68,1.95.11,4.01.4,5.93.77,1.26.49,2.32,1.77,3.39,2.56,2.37,2.08,5.61,3.04,8.47,1.34,2.45-1.36,4.54-3.44,6.77-5.1,2.36-2.38,3.54-2.69,6.77-1.95,2.5.37,5.09.82,7.62.85,2.25.03,4.57-.35,6.77-.78,4.75-.83,9.63-.27,14.39.18,1.36.06,2.88-.18,4.23-.27.75.06,1.79.14,2.54.19,2.95,0,5.9.74,8.47,2.19.81-.22,1.82-.75,2.54-1.17,2.15-1.07,4.59.15,6.77.52,2.49.61,5.18-.05,7.62.7,3.03.58,6.23,1.27,9.31.79,1.06-.17,2.31-.51,3.39-.48.76.16,1.79.42,2.54.63.42.12,1.27.38,1.69.51.48.37,1.32,1.24,1.69,1.71,1.55,1.73,3.13,3.76,5.08,5.06,4.71,2.94,8.3-6.14,11.01-8.87,2-2.61,5.18-4.15,8.47-4.13,1.95.04,4.05-.21,5.93.45"/><path class="b" d="M10.91,199.87c2.6,4.02,5.27,9.97,11.01,9.3,2.32-.45,4.5-.2,6.77-.69,3.88-.87,7.84-1.98,11.85-1.47,1.65.19,3.5.25,5.08.82,2.87,2.71,6.92,6.28,11.01,3.85,4.15-2.16,7.76-7.9,12.7-7.93,4.43.88,9.07,1.73,13.55.7,3.03-.77,6.18-1.39,9.31-1.47,3.08-.11,6.23.17,9.31.14,2.78.37,5.69.23,8.47.65,1.82.45,3.51,1.66,5.08,2.66,4.23-2.35,4.66-2.29,9.31-1.18,1.63.31,3.42.43,5.08.48,1.08.1,2.32.51,3.39.7,2.76.49,5.65,1.22,8.47.89,1.06-.14,2.32-.38,3.39-.47,1.37.26,2.89.64,4.23,1.04,1,.41,1.82,1.63,2.54,2.38,1,1.13,2.22,2.47,3.39,3.42,4.96,4.11,8.35-3.67,11.01-6.83,2.47-3.51,5.82-5.47,10.16-5.53,1.68,0,3.46-.13,5.08-.56"/><path class="b" d="M10.91,200.69c2.67,4.89,5.77,8.62,11.85,6.86.44-.12,1.27-.4,1.69-.55,1.36.16,2.88.07,4.23-.13,3.08-.47,6.18-1.35,9.31-1.42,2.23,0,4.61.16,6.77.71,2.87,2.67,6.83,6.67,11.01,4.31,4.4-2.42,7.34-7.83,12.7-8.3,4.5.04,9.08,1.32,13.55.22,3.33-.88,6.7-1.94,10.16-2.21,1.93-.15,3.99-.24,5.93-.14,1.35.18,2.87.36,4.23.48,5.78.56,7.07-.99,11.85,3.43.52.1,1.28-.16,1.69-.45,1.37-.49,2.73-1.53,4.23-1.53,1.69.02,3.42.61,5.08.86,1.06.18,2.32.3,3.39.4,1.34.41,2.86.8,4.23,1.09,2.48.54,5.07,1.2,7.62,1.2,1.94-.04,3.98-.46,5.93-.45,1.07.21,2.34.52,3.39.82,1.45,1.33,2.79,3.09,4.23,4.43,3.89,3.83,6.53,1.81,9.31-1.91,3.21-4.41,5.93-8.57,11.85-9.18.74-.1,1.79-.18,2.54-.22,1.03-.45,2.28-.97,3.39-1.16"/><path class="b" d="M10.91,200.93c3.2,5.63,7.81,6.8,13.55,4.01,3.08.54,6.26-.22,9.31-.61,3.06-.45,6.25-.49,9.31-.05.61.02,1.33.61,1.69,1.05,1.04.96,2.25,2.13,3.39,2.98,4.86,3.75,8.27.52,11.85-3.01,3.24-3.09,5.5-4.85,10.16-4.05,3.11.19,6.23-.46,9.31-.7,2.61-.29,5.11-1.38,7.62-2.09,2.73-.77,5.63-1.29,8.47-1.3,1.66.03,3.43.31,5.08.45,2.78.4,5.73-.11,8.47.51,1.7.58,3.02,2.16,4.23,3.4l.85.02c.99-.65,2.25-1.25,3.39-1.59,1-.51,2.28-.74,3.39-.56,1.66.28,3.41.81,5.08,1.05,3.03,1.06,6.17,2.02,9.31,2.68,2.48.53,5.09.88,7.62.61,1.65-.12,3.43-.22,5.08-.23.78-.03,1.83-.06,2.54.31,3.39,3.67,7.18,9.34,11.85,3.7,4.14-4.9,6.45-9.62,13.55-10.42,1.76-.12,3.33-1.41,5.08-1.69"/><path class="b" d="M10.91,200.39c3.31,4.99,8.67,5.16,13.55,2.35,3.05.67,6.25.07,9.31-.19,2.79-.28,5.68-.25,8.47.04.63.04,1.33.7,1.69,1.16.75.73,1.77,1.71,2.54,2.41,5.03,4.68,8.5,2.66,12.7-1.69,2.08-2,4.5-4.52,7.62-4.37,1.92.32,3.98.54,5.93.35,2.62-.19,5.23-1,7.62-2.04,7.55-2.97,12.05-4.54,20.32-3.63,6.07.35,7.79-1.02,11.85,4.58,5.1-4.34,8.94-2.86,14.39-.35,5.65,2.2,11.69,3.49,17.78,3.09,2.22.03,4.57-.1,6.77.19,3.11,2.08,6.06,7.46,10.16,3.99,3.93-3.47,6.42-9.04,11.85-10.5,1.03-.33,2.31-.62,3.39-.73,1.32-.64,2.8-1.36,4.23-1.71"/><path class="b" d="M10.91,199.19c3.51,4.41,9.04,4.06,13.55,1.44,1.65-.01,3.42.36,5.08.22,3.65-.15,7.36-.45,11.01-.08,1.01-.1,1.99.66,2.54,1.43.73.76,1.77,1.75,2.54,2.46,4.74,4.62,8.36,3.71,12.7-.77,2.28-2.16,4.96-5.37,8.47-4.5,1.6.47,3.42.63,5.08.54,2.35-.12,4.71-.9,6.77-2.01,7.15-4.33,10.13-5.57,18.63-5.97,2.51-.02,5.12-.07,7.62.15,2.71.23,4.49,2.68,5.93,4.73,4.96-4.62,7.07-3.83,12.7-.83,3.75,1.74,7.77,3.16,11.85,3.89,2.76.57,5.66.5,8.47.56,2.8.1,5.67.28,8.47.43,1.28,1.03,2.84,1.99,4.23,2.84.67.53,1.68,1.09,2.54,1.21,3.03.11,4.93-3.01,6.77-4.97,1.67-1.97,3.58-4.03,5.93-5.2,1.55-.73,3.36-1.27,5.08-1.37,1.35-.56,2.8-1.33,4.23-1.65"/><path class="b" d="M10.91,197.52c4.16,4.32,9.58,3.13,14.39.74,5.02.84,10.2.06,15.24.78,3.64,2.99,7.21,8.97,12.7,7.25,3.07-1.15,5.18-3.96,7.62-6.01,2.21-1.92,4.05-2.34,6.77-1.22,1.9.47,4.01.54,5.93.12,5.81-1.3,9.38-7.14,15.24-8.34,2.75-.74,5.71-.45,8.47-1.09,5.24-.7,8.06-.05,11.01,4.6l.85.38c4.34-6.66,7.09-4.01,12.7-.96,4.34,1.87,8.88,3.52,13.55,4.36,2.76.59,5.66.47,8.47.54,3.09.17,6.22.69,9.31.65,2.22,1.49,4.85,3.27,7.62,3.14,2.12-.5,3.65-2.44,5.08-3.95,2.12-2.38,4.5-4.91,7.62-5.92,1.03-.33,2.3-.57,3.39-.46,1.39-.39,2.79-1.25,4.23-1.47"/><path class="b" d="M10.91,195.47c2.66,2.55,6.68,3.13,10.16,2.27,1.7-.34,3.37-1.33,5.08-1.57,2.2.4,4.55.36,6.77.4,2.23.05,4.56.32,6.77.59,4.24,4.51,9.51,11.56,16.09,6.51,2.35-1.69,4.24-4.17,6.77-5.6,1.77-.99,3.37-.27,5.08.39,2.48.69,5.28.58,7.62-.53,4.5-2.03,7.12-7.04,11.85-8.63,1.88-.59,3.97-.71,5.93-.69,1.36,0,2.89-.15,4.23.12,4.41.02,5.99,1.22,8.47,4.83l.85.02c1.41-2.46,3.28-6.73,6.77-5.83,2.11.74,3.93,2.33,5.93,3.3,1.85.93,4,1.43,5.93,2.17,3.31,1.18,6.71,2.33,10.16,3.01,3.04.74,6.22.5,9.31.58,3.08.21,6.21.85,9.31.73,2.66,1.6,6.36,3.67,9.31,1.71,4.12-2.92,7.69-9.4,13.55-7.94,1.37-.34,2.78-1.16,4.23-1.18"/><path class="b" d="M10.91,193.11c4.27,3.71,10.32,2.7,15.24,1.01,4.19.65,8.56.15,12.7,1.11,2.39,3.03,5.12,6.02,8.47,8,2.34,1.38,5.34,1.16,7.62-.24,3.05-1.68,5.15-4.97,8.47-6.18,1.47-.45,2.9.48,4.23.94,2.82.83,6.02.39,8.47-1.25,4.06-2.43,6.2-7.91,11.01-9,2.49-.63,5.11.08,7.62.05,4.47-.26,5.79,4.15,8.47,6.61,1.62-2.88,4.02-11.12,8.47-8.99,2,1.05,3.8,2.69,5.93,3.52,1.32.53,2.88.78,4.23,1.2,2.54.77,5.11,1.74,7.62,2.6,3.55,1.2,7.24,2.39,11.01,2.54,4.23-.11,8.48.34,12.7.49.42,0,1.28.02,1.69.02.41.22,1.28.66,1.69.88,1.28.62,2.82,1.08,4.23,1.21,3.17.3,5.37-2.67,7.62-4.44,2.23-1.85,5.69-4.26,8.47-2.14,1.26-.64,2.79-1.25,4.23-1.03"/><path class="b" d="M10.91,190.54c4.33,3.38,10.2,2.95,15.24,1.71.77-.2,1.78.11,2.54.2.75.09,1.78.17,2.54.21,2.22.17,4.64-.04,6.77.64,4.34,5.35,10.35,12.85,17.78,7.93,2.88-1.62,5.05-4.96,8.47-5.44,1.17-.03,2.31.78,3.39,1.11,2.86.78,6.07.12,8.47-1.61,4.82-3.28,6.48-10.73,13.55-9.25,1.37.3,2.84.9,4.23,1.08,2.05-.1,3.88,1.21,5.08,2.78l.85-.19c2.55-2.63,4.75-8.83,9.31-7.23,1.45.72,2.82,1.93,4.23,2.72,2.03,1.23,4.54,1.19,6.77,1.78,3.46.91,6.82,2.38,10.16,3.63,3.26,1.21,6.67,2.38,10.16,2.67,4.78.13,9.61.39,14.39.25.84-.2,1.8.38,2.54.71,1.56.62,3.38,1.2,5.08,1,5.16-1.21,8.56-8.28,14.39-4.61,1.01-.41,2.3-.71,3.39-.5l.85-1.26"/><path class="b" d="M10.91,187.83c4.67,3.26,10.67,3.24,16.09,2.4,1.91.43,3.97.65,5.93.72,1.36.12,2.92.03,4.23.45,4.56,5.54,10.84,13.38,18.63,8.42,1.72-1.01,3.42-2.33,5.08-3.44,1.19-.85,2.71-1.73,4.23-1.46,1.09.29,2.24,1.04,3.39,1.13,3.05.31,6.22-.82,8.47-2.88,3.06-2.52,4.4-7.31,8.47-8.46,2.45-.76,4.73.87,6.77,2,.54.08,1.28-.2,1.69-.53,1.87-.67,3.58-2,5.08-3.27,2.68-2.38,4.86-4.01,8.47-2.31,1.16.48,2.27,1.5,3.39,2.08.99.53,2.27.88,3.39.95,6.34-.02,11.97,3.46,17.78,5.58,2.98,1.13,6.12,2.17,9.31,2.43,5.06.32,10.18.33,15.24-.04,2.12.74,4.5,1.73,6.77,1.28,4.43-1.25,9.02-6.88,13.55-2.75.5.16,1.26,0,1.69-.26.73-1.44,1.68-3.43,2.54-4.79"/><path class="b" d="M10.91,185.07c4.79,2.91,10.58,3.64,16.09,3.26,3.02.8,6.21.93,9.31,1.15,4.43,5.35,10.94,13.34,18.63,9.16,2.29-1.12,4.45-2.7,6.77-3.75,1.02-.42,2.25-1.07,3.39-.94.8.12,1.77.63,2.54.84,2.96.41,6.11-.64,8.47-2.44,4.45-3.21,6.77-13.09,13.55-7.44,1.17-.91,2.1-2.45,3.39-3.23,2.2-1.12,4.4-2.58,6.77-3.32,1.67-.48,3.51-.05,5.08.57,1.4.49,2.91,1.12,4.23,1.79,2.14.86,4.56.16,6.77.56,5.04.96,9.7,3.36,14.39,5.32,3,1.24,6.12,2.47,9.31,3.09,4.17.69,8.49.71,12.7.48,1.65-.07,3.43-.28,5.08-.33,2.14.6,4.55,1.3,6.77.79,3.85-1.03,7.8-4.93,11.85-2.47,2.55-.77,3.28-3.98,5.08-5.66"/><path class="b" d="M10.91,182.35c4.97,2.54,10.51,3.91,16.09,4.06,2.71.89,5.63,1.2,8.47,1.36,1.85,1.53,3.29,3.78,5.08,5.4,3.36,3.1,7.97,6.12,12.7,4.5,2.34-.68,4.54-2,6.77-2.96,1.59-.7,3.41-1.19,5.08-1.64.8-.1,1.78.34,2.54.51,3,.15,6.11-.88,8.47-2.73,1.69-1.27,3.08-3.2,4.23-4.94,1.64-2.75,4.63-5.83,7.62-2.78,1.12-.32,1.73-1.87,2.54-2.61,1.58-1.6,3.83-2.5,5.93-3.18,3.72-1.22,7.36.95,11.01,1.5,1.91.53,3.99,0,5.93.13,8.1,1.03,15.21,5.48,22.86,8.02,5.14,1.72,10.72,1.95,16.09,1.59,1.65-.12,3.43-.3,5.08-.46,1.65.18,3.41.58,5.08.56,4.18.43,7.66-3.39,11.85-2.76,2.36-1.61,4.13-4.2,6.77-5.39"/><path class="b" d="M10.91,179.73c4.91,1.99,9.95,3.87,15.24,4.56,1.65.42,3.39,1.08,5.08,1.35,1.35.28,2.91.27,4.23.63,4.38,5.52,10.98,11.83,18.63,9.59,2-.53,3.99-1.45,5.93-2.15,1.89-.69,3.98-1.14,5.93-1.64,1.06.15,2.32.35,3.39.17,2.78-.39,5.55-1.6,7.62-3.51,1.69-1.45,3.01-3.59,4.23-5.43,1.53-2.38,3.64-4,5.93-1.34.9-.8,1.64-2.28,2.54-3.08,2.07-1.75,4.94-2.65,7.62-2.75,2.83.08,5.62,1.13,8.47,1.12,2.23.2,4.55-.15,6.77-.06,7.16.8,13.71,4.05,20.32,6.7,7.43,3.25,15.74,3.85,23.71,2.74,1.06-.21,2.33,0,3.39.1,1.94.08,4.02.08,5.93-.32,1.69-.43,3.42-1.21,5.08-1.74.8-.23,1.92-.37,2.54-.99,1.36-1.01,2.78-2.3,4.23-3.17.99-.48,2.3-.72,3.39-.88"/><path class="b" d="M10.91,177.28c2.3.54,4.55,1.58,6.77,2.36,2.48.88,5.07,1.68,7.62,2.33,3.02,1.03,6.09,2.22,9.31,2.43.57.18,1.36.98,1.69,1.45.73.84,1.75,1.97,2.54,2.75,1.9,1.91,4.35,3.37,6.77,4.52,6.33,2.97,10.86.56,16.93-1.32,1.35-.32,2.84-.87,4.23-.91,1.98.42,4.09-.3,5.93-1,8.63-2.95,8.88-14.07,13.55-9.37l.85-.17c1.08-3.58,5.12-4.69,8.47-4.96,2.24-.09,4.54.46,6.77.5,3.94.21,7.94-.91,11.85-.13,10.59,1.61,19.75,8.35,30.48,9.35,3.92.55,7.94.52,11.85,0,1.35-.22,2.87.16,4.23.04,2.24-.15,4.6-.39,6.77-.99,1.36-.45,2.92-.91,4.23-1.51.75-.51,1.79-1.24,2.54-1.76.7-.5,1.73-1.13,2.54-1.43,1.33-.27,2.88-.2,4.23-.23"/><path class="b" d="M10.91,174.99c2.03.19,4.04,1,5.93,1.71,2.21.85,4.54,1.67,6.77,2.43,3.62,1.25,7.12,3.17,11.01,3.53,1.65.92,2.76,2.91,4.23,4.1,1.69,1.58,3.88,2.75,5.93,3.81,5.85,2.9,10.08,2.91,16.09.45,1.61-.58,3.43-.94,5.08-1.37.42-.06,1.28-.01,1.69.08,1.1.02,2.36-.33,3.39-.7,4.03-1.29,6.93-3.24,9.31-6.8,1-1.26,1.79-3.45,3.39-4.03.97.02,1.93.84,2.54,1.52.9-1.98,1.95-3.87,4.23-4.4,3.56-1.22,7.34-.57,11.01-.61,3.09-.16,6.21-.84,9.31-.92,2.25.02,4.59.4,6.77.93,7.18,2.02,14,5.26,21.17,7.35,3.58.91,7.34,1.33,11.01,1.68,3.09.3,6.24-.3,9.31.08,2.86.02,5.7-.83,8.47-1.42,1.39-.4,3.01-.79,4.23-1.61,1.56-.92,3.21-2.26,5.08-2.39,1.35.19,2.87.26,4.23.26"/><path class="b" d="M10.91,172.83c3.27-.11,6.3,1.56,9.31,2.6,4.89,1.53,9.29,4.56,14.39,5.4.6.07,1.36.8,1.69,1.26.99,1.08,2.22,2.32,3.39,3.22,2.1,1.44,4.48,2.65,6.77,3.74,2.13.96,4.42,1.93,6.77,2.13,3.55.37,6.79-1.52,10.16-2.28,1.06-.2,2.29-.76,3.39-.61,1.74.3,3.51-.53,5.08-1.17,1.68-.72,3.61-1.31,5.08-2.43,1.57-1.32,3.09-3.08,4.23-4.79.67-.93,1.44-2.49,2.54-2.99.89.26,1.92.96,2.54,1.64.77-2.48,1.51-3.87,4.23-4.41,3.31-.94,6.79-.42,10.16-.65,7.19-1.18,12.3-2.32,19.47.31,6.39,2.39,12.89,4.62,19.47,6.41,3.62.71,7.35,1.2,11.01,1.72,2.23.27,4.59.09,6.77.7,3.18.45,6.34-.65,9.31-1.65,1.35-.44,2.93-.76,4.23-1.35,1.06-.56,2.29-1.3,3.39-1.8,1-.47,2.33-.64,3.39-.22,1.04.23,2.33.24,3.39.18"/><path class="b" d="M10.91,170.61c3.26-.48,6.33,1.32,9.31,2.35,1.96.74,4.06,1.48,5.93,2.43,2.71,1.36,5.47,2.87,8.47,3.49,1.03,0,1.88,1.1,2.54,1.77.97.98,2.2,2.08,3.39,2.8,2.49,1.39,5.06,2.86,7.62,4.14,2.1,1.02,4.39,2.04,6.77,2,3.2-.1,6.21-1.67,9.31-2.32,1.32-.55,2.88-.19,4.23-.44,1.42-.38,2.88-1.17,4.23-1.73,1.36-.56,2.98-.98,4.23-1.77,1.62-1.14,2.99-2.93,4.23-4.45.72-.96,1.55-2.47,2.54-3.18.84.21,1.88.72,2.54,1.29.84-2.59,1.46-3.49,4.23-4.01,1.35-.29,2.85-.56,4.23-.61,1.94.04,4.01.19,5.93-.24,7.51-1.83,13.89-2.5,21.17.73,5.72,2.36,11.79,3.76,17.78,5.2,3.66.57,7.37,1.15,11.01,1.85.75.13,1.79.29,2.54.38.78.22,1.77.73,2.54.98,1.59.53,3.43.66,5.08.41,2.67-.39,5.16-1.71,7.62-2.75.73-.3,1.79-.61,2.54-.88,1.34-.63,2.78-1.52,4.23-1.87,1.1-.29,2.34.21,3.39.46.74.1,1.8.06,2.54-.04"/><path class="b" d="M10.91,168.22c3.29-.67,6.31,1.42,9.31,2.42,2.26.79,4.66,1.53,6.77,2.67,2.96,1.56,5.98,3.28,9.31,3.87,1.01,1.03,2.23,2.23,3.39,3.09,1.88,1.23,4.01,2.32,5.93,3.51,3.56,2.11,7.5,4.9,11.85,3.85,2.83-.57,5.61-1.78,8.47-2.17,2.8.33,5.11-1.55,7.62-2.44,1.39-.46,3.03-.79,4.23-1.66,2.3-1.88,3.97-4.61,5.93-6.81.81-.16,1.82.19,2.54.54,1.13-2.74,2.4-2.94,5.08-3.53,1.9-.59,3.98-.31,5.93-.36,1.39-.07,2.89-.42,4.23-.75,5.48-1.43,11.46-2.28,16.93-.38,3.65,1.28,7.23,2.99,11.01,3.89,6.68,1.64,13.6,2.21,20.32,3.63.41.09,1.28.27,1.69.36.72.52,1.76,1.19,2.54,1.61,2.29,1.26,5.06,1.77,7.62,1.18,3.71-.71,6.66-3.39,10.16-4.63,1.31-.6,2.76-1.45,4.23-1.48.79,0,1.81.33,2.54.61.74.16,1.8.11,2.54-.03"/><path class="b" d="M10.91,165.84c3.35-.99,6.24,1.88,9.31,2.75,2.21.78,4.68,1.1,6.77,2.2,3.31,1.57,6.49,3.72,10.16,4.38,1.9,2.06,4.39,3.53,6.77,4.94,2.52,1.56,5,3.4,7.62,4.8,4.03,2.23,8.61.43,12.7-.67,1.33-.4,2.9-.27,4.23-.63,1.42-.52,2.85-1.46,4.23-2.06,1.9-.86,4.29-.79,5.93-2.2,1.5-1.42,2.9-3.29,4.23-4.86.69-1.21,2.05-1.63,3.39-1.41.46-.4,1.3-1.28,1.69-1.75,1.06-.36,2.32-.79,3.39-1.12,2.17-.69,4.56-.14,6.77-.51,4.47-.92,8.93-2.36,13.55-2.33,4.81-.14,9.19,2.14,13.55,3.85,3.51,1.33,7.28,1.97,11.01,2.29,3.35.52,6.81.71,10.16,1.22.75.12,1.79.32,2.54.48.83.4,1.79,1.22,2.54,1.75,2.88,2.14,6.5,3.87,10.16,3.02,3.16-.56,5.94-2.42,8.47-4.3.98-.71,2.28-1.34,3.39-1.82.98-.52,2.27-.93,3.39-.78,1.37.25,2.81,1.01,4.23.62"/><path class="b" d="M10.91,163.16c1.81-.47,3.58.66,5.08,1.54,1.56.94,3.33,1.8,5.08,2.3,1.91.61,4.06.76,5.93,1.48,2.62.94,5.07,2.49,7.62,3.58,1.03.41,2.3.8,3.39,1.03.82.52,1.78,1.44,2.54,2.03,2.84,1.87,5.8,3.73,8.47,5.84,6.89,5.6,11.21,2.05,18.63,1.14,1.82-.31,3.42-1.6,5.08-2.33,1.28-.6,2.86-.78,4.23-1.05,4.34-1.06,5.31-7.61,10.16-7.53l.85-1.09c2.17-.84,4.37-2.01,6.77-1.79,2.88.21,5.72-.59,8.47-1.32,10.59-2.49,13.34-1.03,22.86,3.04,5.38,2.09,11.28,1.81,16.93,2.38,1.35.22,2.96-.03,4.23.53.42.31,1.28.95,1.69,1.26,3.67,2.66,7.89,5.96,12.7,4.82,2.73-.52,5.44-1.69,7.62-3.44,1.05-.84,2.27-1.9,3.39-2.66,1.3-.64,2.82-1.31,4.23-1.64,1.41.02,2.81.98,4.23.77"/><path class="b" d="M10.91,160.45c1.59,0,3,1.16,4.23,2.03,1.27.92,2.75,1.86,4.23,2.39,2.15.77,4.54.92,6.77,1.31,2.29.59,4.62,1.56,6.77,2.55,2.09,1.19,4.49,1.85,6.77,2.53,1.49,1.43,3.43,2.49,5.08,3.7,4.28,3.57,8.3,7.81,14.39,7.03,3.13-.32,6.2-1.37,9.31-1.82,2.03-.68,3.82-2.21,5.93-2.7,6.07-.58,5.51-2.34,9.31-6.21.96-.72,2.21-1.43,3.39-1.69,1.59-.94,3.31-2.02,5.08-2.57,1.9-.52,3.99-.14,5.93-.36,1.98-.23,3.99-.88,5.93-1.31,7.33-1.7,11.73-1.73,18.63,1.63,2.71,1.23,5.52,2.53,8.47,3.04,3.61.66,7.38.33,11.01.75.75.12,1.81.23,2.54.46,1.57,1.12,3.33,2.27,5.08,3.09,6.35,3.48,7.73,5.14,15.24,2.55,3.32-.88,6-3.18,8.47-5.45,1.52-.86,3.39-1.36,5.08-1.79.76.2,1.75.63,2.54.68"/><path class="b" d="M10.91,158.1c2.53,1.17,4.26,3.74,6.77,4.96,3.12,1.67,6.79.93,10.16,1.43,1.4.36,2.9.95,4.23,1.5,2.2.94,4.45,2.05,6.77,2.64.78.2,1.85.37,2.54.82.76.59,1.73,1.44,2.54,1.95,2.37,1.73,4.35,4.13,6.77,5.81,6.02,4.48,12.01,2.45,18.63.92,1.68-.68,3.31-1.84,5.08-2.29,2.01-.42,4.38-.31,5.93-1.91,1.47-1.33,2.61-3.31,4.23-4.46.99-.62,2.23-1.27,3.39-1.51,1.27-.9,2.8-1.82,4.23-2.45,1.86-.74,3.98-.37,5.93-.45,2.28-.13,4.55-.91,6.77-1.35,16.44-4.35,17.86,5.42,32.17,5.42,1.35.02,2.88-.04,4.23-.08.95-.07,1.82.87,2.54,1.36,1.03.77,2.3,1.66,3.39,2.35,1.79,1.16,3.89,2,5.93,2.6,1.02.5,2.28,1.04,3.39,1.32,1.96.42,4.03-.29,5.93-.75,2.57-.64,5.27-1.26,7.62-2.53,1.91-.93,3.34-2.8,5.08-3.95,1.04-.35,2.32-.77,3.39-1.06.74-.22,1.82-.48,2.54-.05"/><path class="b" d="M10.91,156.46c4.17,4.04,6.16,7.5,12.7,6.55,2.5-.33,5.17-.72,7.62.12,2.04.64,3.9,1.97,5.93,2.63,1.63.53,3.44.96,5.08,1.46.82.46,1.76,1.3,2.54,1.81,1.79,1.39,3.32,3.32,5.08,4.75,6.63,5.54,12.59,4.42,20.32,2.32,1.64-.68,3.31-1.7,5.08-2.05,1.37-.26,2.96-.28,4.23-.9,2.93-1.56,4.38-5.21,7.62-6.3.42-.16,1.26-.39,1.69-.46,1.48-1.17,3.23-2.4,5.08-2.89,1.92-.4,3.99.12,5.93-.14,2.25-.33,4.54-1.01,6.77-1.43,14.89-4.29,18.5,6.62,32.17,5.82.83-.21,1.82.37,2.54.73,2.13.91,3.93,2.62,5.93,3.76,2.04,1.24,4.39,2.25,6.77,2.55,1.33.37,2.88.55,4.23.23,4.19-1.22,8.75-1.35,12.7-3.34,1.9-.85,3.54-2.39,5.08-3.75,1.62-.56,3.39-1.19,5.08-1.5"/><path class="b" d="M10.91,155.67c3.87,5.14,6.76,7.93,13.55,6.19,2.73-.74,5.68-1.61,8.47-.63,2.38.72,4.39,2.5,6.77,3.2,1.35.38,2.87.76,4.23,1.12,1.21.63,2.44,1.7,3.39,2.67,4.31,4.88,10.22,8.41,16.93,7.28,3.19-.44,6.42-1.13,9.31-2.57,2.12-.97,4.69-.65,6.77-1.7,3.33-1.79,5.13-6.26,9.31-6.35,1.4-1.33,3.21-2.53,5.08-3.05,1.35-.28,2.87,0,4.23.06,2.28.08,4.55-.75,6.77-1.14,6.43-1.87,11.67-2.13,17.78.98,2.77,1.3,5.5,2.95,8.47,3.79,1.33.39,2.85.72,4.23.83.78.06,1.84-.02,2.54.42,1.95.95,4.04,1.91,5.93,2.97,2.27,1.55,4.89,2.8,7.62,3.25,1.34.21,2.88.39,4.23.17,1.37-.23,2.86-.71,4.23-.94,2.8-.41,5.78-.21,8.47-1.22,2.07-.74,4.17-1.82,5.93-3.15.41-.39,1.29-1.17,1.69-1.57,1.33-.5,2.84-1.06,4.23-1.38"/><path class="b" d="M10.91,155.57c3.38,5.15,7.39,7.23,13.55,5.86,2.81-.74,5.49-2.45,8.47-2.43,2.89,0,5.17,2.08,7.62,3.31,1.02.49,2.28.95,3.39,1.2,1.23.14,2.55.61,3.39,1.57,6.94,7.32,12.77,10.11,22.86,7.35,1.7-.42,3.39-1.31,5.08-1.77,1.63-.44,3.48-.42,5.08-.97,1.95-.73,3.63-2.3,5.08-3.75.68-.69,1.69-1.6,2.54-2.07.7-.32,1.77-.44,2.54-.46,1.3-1.47,3.19-2.63,5.08-3.16,1.36-.25,2.87.12,4.23.16,1.08.02,2.34-.21,3.39-.45,6.74-1.44,11.72-3.6,18.63-.93,3.2,1.18,6.15,3.12,9.31,4.38,1.33.49,2.84.98,4.23,1.27,1.15.1,2.36.64,3.39,1.12,4.87,2.18,9.74,5.06,15.24,4.94,2.27.23,4.51-.8,6.77-.79,1.65-.02,3.43.26,5.08.2,1.71-.06,3.52-.52,5.08-1.2,1.73-.78,3.56-1.77,5.08-2.91.42-.39,1.29-1.2,1.69-1.61,1.04-.41,2.3-.86,3.39-1.13"/><path class="b" d="M10.91,155.73c1.11,1.51,2.55,3.06,4.23,3.92,2.85,1.34,6.18,2.09,9.31,1.48,3.27-.63,6.11-2.7,9.31-3.5,2.76-.74,5.4.69,7.62,2.2,1.81,1.06,3.89,1.91,5.93,2.43,2.88,2.1,5.29,4.98,8.47,6.69,6.23,3.63,13.09,2.35,19.47-.09,2.5-.68,5.34-.46,7.62-1.85,3.01-1.47,4.96-5.18,8.47-5.51,6.23-4.71,5.89-1.78,11.85-2.89,1.64-.43,3.45-.65,5.08-1.07,2.99-.91,6.18-1.54,9.31-1.25,4.6.31,8.66,2.77,12.7,4.76,1.87.88,3.95,1.56,5.93,2.16,2.51.98,5.11,1.99,7.62,2.96,2.15.8,4.45,1.57,6.77,1.58,1.36.05,2.88.05,4.23.1,1.36-.1,2.87-.36,4.23-.31,2.25.08,4.51.94,6.77.95,3.71.08,7.16-1.74,10.16-3.76.83-.59,1.8-1.59,2.54-2.28.73-.28,1.78-.62,2.54-.81"/><path class="b" d="M10.91,155.7c2.68,3.12,7.05,4.31,11.01,4.73,7.62.73,12.67-6.01,18.63-3.87,2.81,1.3,5.43,3.22,8.47,4.03,2.39,2.08,4.86,4.28,7.62,5.88,3.03,1.81,6.64,2.66,10.16,2.5,3.21-.07,6.25-1.41,9.31-2.18,1.63-.37,3.44-.41,5.08-.73,1.46-.3,2.99-.98,4.23-1.79,1.43-.94,2.85-2.24,4.23-3.25.97-.75,2.31-1.25,3.39-1.8,1.59-.78,3.25-1.94,5.08-1.98,1.07,0,2.32.24,3.39.22,1.38-.05,2.89-.4,4.23-.73,2.57-.24,5.1-1.11,7.62-1.61,5.27-1.1,10.63.49,15.24,3.05,3.47,1.84,7.22,3.19,11.01,4.19,2.76.81,5.61,1.7,8.47,2.08,3.63.54,7.42-.18,11.01.68,6.88,2.44,10.68,2.28,16.93-1.86,1.19-.73,2.25-2.05,3.39-2.85.37-.14,1.3-.39,1.69-.49"/><path class="b" d="M10.91,155.26c1.65,1.43,3.9,2.06,5.93,2.73,4.09,1.3,8.56,1.38,12.7.23,4.2-.97,8.25-3.85,12.7-3.04,1.48.3,2.92,1.17,4.23,1.89,1.3.73,2.86,1.26,4.23,1.82,2.09,1.85,4.33,3.75,6.77,5.13,3.03,1.8,6.63,2.82,10.16,2.69,3.19-.11,6.2-1.5,9.31-2.05,3.13-.43,6.49-.42,9.31-2.05,2.62-1.43,4.84-3.71,7.62-4.87,1.6-.71,3.27-1.86,5.08-1.91,2.24.19,4.58.29,6.77-.37,1.62-.49,3.46-.39,5.08-.87,5.91-1.8,11.34-1.68,16.93,1.12,2.48,1.19,5.05,2.42,7.62,3.38,5,1.06,10.13,1.81,15.24,2.02,1.96.11,4.04.32,5.93.86,2,.56,3.95,1.63,5.93,2.27,4.62,1.47,9.67-.01,13.55-2.7,1.2-.73,2.4-1.9,3.39-2.89.35-.18,1.3-.45,1.69-.53"/><path class="b" d="M10.91,154.28c2.88,1.4,6.17,2.15,9.31,2.72,3.93.56,7.99.13,11.85-.7,4.43-.9,8.97-2.82,13.55-1.77,2.31.58,4.49,1.87,6.77,2.55,2.06,1.86,4.38,3.58,6.77,4.97,2.81,1.53,6.09,2.53,9.31,2.3,2.87-.19,5.64-1.3,8.47-1.76,3.38-.47,6.98-.27,10.16-1.7,3.02-1.26,5.46-3.7,8.47-4.99,1.31-.59,2.75-1.46,4.23-1.44,2.25.19,4.59.22,6.77-.44,1.89-.63,4.01-.39,5.93-.96,5.68-1.63,10.68-1.48,16.09,1.05,2.22.94,4.5,2.05,6.77,2.87,4.46.62,9.05.53,13.55.68,2.92.09,5.86.85,8.47,2.17,6.12,3.57,11.57,3.89,17.78.21.79-.43,1.85-1.07,2.54-1.65.94-.83,2.06-2,3.39-2.11"/><path class="b" d="M10.91,153.38c3.43.14,6.72,1.6,10.16,1.81,6.81.58,13.55-1.22,20.32-1.65,2.51-.04,5.14-.3,7.62.14,1.68.42,3.39,1.2,5.08,1.58,4.44,3.77,9.97,7.59,16.09,6.6,3.36-.56,6.73-1.55,10.16-1.58,3.77-.14,7.73-.69,11.01-2.67,2.18-1.35,4.39-2.89,6.77-3.87,1.54-.8,3.42-.53,5.08-.51,1.68-.02,3.46-.43,5.08-.85,1.6-.49,3.45-.16,5.08-.6,3.03-.66,6.19-1.43,9.31-1.07,3.23.31,6.33,1.61,9.31,2.81,1.34.51,2.79,1.35,4.23,1.5,3.65.07,7.36-.06,11.01-.25,3.21-.25,6.49.45,9.31,1.99,7.28,4.37,11.85,4.53,19.47.65,1.75-.79,3.09-2.73,5.08-2.95"/><path class="b" d="M10.91,152.02c1.98-.11,4.01.17,5.93.61,2.2.41,4.53.68,6.77.64,3.66-.05,7.36-.6,11.01-.85,3.08-.26,6.23-.17,9.31-.15,2.79-.02,5.74-.53,8.47.28,1.35.52,3.11.54,4.23,1.52,3.84,3.01,8.47,5.93,13.55,5.57,3.1-.23,6.2-1.1,9.31-1.25,4.26-.29,8.77-.43,12.7-2.27,2.27-1.15,4.43-2.75,6.77-3.75,2.66-1.1,5.72-.24,8.47-1.04,1.07-.22,2.31-.6,3.39-.77,1.06.09,2.33.03,3.39-.12,2.51-.4,5.07-1.1,7.62-1.16,3.18-.1,6.35.78,9.31,1.84,1.94.6,3.85,1.85,5.93,1.89,3.64-.2,7.42-.03,11.01-.77,2.88-.71,5.82.31,8.47,1.39,7.67,4.1,11.14,4.63,19.47,1.44,1.69-.75,3.15-2.36,5.08-2.45"/><path class="b" d="M10.91,150.48c4.53-.25,9.02,1.08,13.55.67,3.65-.25,7.34-.86,11.01-.89,3.37-.1,6.79.37,10.16.27,3.09-.09,6.31-.37,9.31.5,1.08.31,2.46.39,3.39,1.08,4.92,4.06,10.54,6.21,16.93,4.94,5.6-.92,11.44-.67,16.93-2.2,2.06-.69,4.04-1.9,5.93-2.96,1.01-.56,2.24-1.19,3.39-1.41,1.64-.27,3.44-.15,5.08-.36,1.67-.21,3.45-.64,5.08-1.04,2.24.08,4.57-.08,6.77-.56,4.49-1.02,9.2-.66,13.55.83,1.67.47,3.35,1.42,5.08,1.65,1.93.04,4.05.21,5.93-.28,5.23-1.53,7.24-2.71,12.7-.4,1.62.61,3.39,1.23,5.08,1.62,1.32.52,2.84,1.06,4.23,1.37,3.32.73,6.89.44,10.16-.43,1.98-.64,3.76-2.14,5.93-2.13"/><path class="b" d="M10.91,148.99c3.66-.18,7.35.23,11.01.23,2.52-.09,5.09-.59,7.62-.53,2.53-.03,5.11-.51,7.62-.65,2.8.19,5.66.52,8.47.48,3.95-.05,8-.13,11.85.89.78.16,1.84.34,2.54.73,1.01.82,2.26,1.72,3.39,2.37,2.81,1.59,6.07,2.61,9.31,2.65,2.55.05,5.1-.72,7.62-.94,1.36-.11,2.88-.07,4.23.02,2.8-.3,5.71-.47,8.47-1.07,3.32-.76,6.14-2.94,9.31-4.07,2.78-.48,5.72-.34,8.47-1.05.75-.16,1.79-.39,2.54-.56,1.36.09,2.88.08,4.23-.08,3.63-.51,7.33-1.26,11.01-.74,1.98.23,4.04.74,5.93,1.38,1.06.33,2.28.93,3.39,1.05,1.69.35,3.46-.36,5.08-.78,4.97-1.67,7.35-3.01,12.7-1.1,2.48.81,5.1,1.47,7.62,2.11,3.27.93,6.76,1.59,10.16,1.19,1.4-.18,2.92-.69,4.23-1.22,1.03-.25,2.33-.34,3.39-.42"/><path class="b" d="M10.91,147.6c3.93-.11,7.92-.28,11.85-.38,3.08,0,6.24.12,9.31-.07,3.38-.17,6.8-.64,10.16-.92,3.36.21,6.8.06,10.16.35,2.84.16,5.69.81,8.47,1.41,1.25.24,2.27,1.49,3.39,2.06,1.79,1.09,3.87,1.92,5.93,2.33,3.68.87,7.34-.54,11.01-.72,1.96-.09,3.99.27,5.93.5,2.8-.3,5.73-.34,8.47-1.05,3.21-.9,6.07-2.88,9.31-3.7,1.35-.15,2.88-.22,4.23-.39,1.96-.24,3.99-.7,5.93-1.06,1.36.06,2.88.03,4.23-.11,3.35-.4,6.77-1.07,10.16-.82,2.88.15,5.75.94,8.47,1.86,1.35.44,2.9-.07,4.23-.36,2.26-.55,4.51-1.48,6.77-2.02,3.08-.81,6.34-.08,9.31.83,1.06.32,2.32.75,3.39,1.05.75.06,1.8.19,2.54.31,2.5.43,5.08,1.02,7.62,1.02,1.36.01,2.89-.21,4.23-.44,1.64-.09,3.43-.19,5.08-.26"/><path class="b" d="M10.91,146.31c3.93-.21,7.92-.57,11.85-.64,5.07.08,10.19.05,15.24-.51,2.54-.13,5.11-.7,7.62-1,5.7,0,11.4.75,16.93,2.09,1.25.14,2.29,1.33,3.39,1.86,1.28.72,2.8,1.32,4.23,1.65,3.96,1.1,7.89-.78,11.85-.68,2.27,0,4.54.7,6.77,1,2.23-.04,4.56-.19,6.77-.44,3.57-.4,6.7-2.49,10.16-3.31,1.85-.76,3.98-.72,5.93-1.03,2.51-.38,5.06-1.05,7.62-.96,3.94-.24,7.89-1.21,11.85-1.02,1.96.03,4,.44,5.93.73,1.35.08,2.88.13,4.23.16,1.06,0,2.33.14,3.39.09,2.76-.57,5.63-1.32,8.47-1.03,1.98.19,4.03.73,5.93,1.29,1.64-.17,3.42-.41,5.08-.29,5.62.43,11.29,1,16.93.81"/><path class="b" d="M10.91,145.04c3.93-.3,7.91-.81,11.85-.96,5.64.09,11.33-.02,16.93-.73,2.54-.24,5.11-.84,7.62-1.28,5.42.13,10.82,1,16.09,2.26,1.61.17,2.88,1.04,4.23,1.81,1.29.64,2.81,1.13,4.23,1.33,3.7.57,7.3-1.24,11.01-.84,2.28.11,4.54.94,6.77,1.35,1.34.26,2.88.06,4.23.07,1.95-.04,4.03-.11,5.93-.61,1.39-.38,2.89-1,4.23-1.51,2.24-.53,4.57-1.12,6.77-1.81,3.37-.41,6.76-1.28,10.16-1.39,3.94-.32,7.89-1.21,11.85-1.24,4.51.12,9.03-.77,13.55-.73,1.95.01,4.02.15,5.93.54,1.06.15,2.31.74,3.39.44,3.3-.8,6.8-1.19,10.16-.55,5.02.97,10.08,2.24,15.24,1.95"/><path class="b" d="M10.91,143.61c3.94-.3,7.91-.92,11.85-1.17,3.93-.12,7.93.15,11.85-.27,3.1-.27,6.26-.62,9.31-1.23,1.37-.22,2.85-.74,4.23-.85,1.07.04,2.32.11,3.39.2,4.85.38,9.67,1.29,14.39,2.43,1.17.15,2.34.9,3.39,1.38,2.37,1.03,5.09,1.25,7.62.79,5.92-1.49,8.85.02,14.39,1.21,3.07.13,6.26.33,9.31-.1,1.4-.25,2.9-.76,4.23-1.24,1.35-.29,2.88-.56,4.23-.87,2.54-.51,5.06-1.52,7.62-1.93,3.63-.7,7.37-.93,11.01-1.56,4.24-.6,8.49-1.43,12.7-2.2,1.64-.31,3.43-.52,5.08-.77,1.64-.45,3.42-.91,5.08-1.26,3.06-.75,6.33-.54,9.31.47,4.45,1.45,8.93,3.07,13.55,3.93,2.48.51,5.12.43,7.62.77"/><path class="b" d="M10.91,141.9c4.24-.2,8.47-1.02,12.7-1.26,2.8-.13,5.67.16,8.47,0,5.13-.27,10.29-1.01,15.24-2.39,4.52.03,9.09.42,13.55,1.15,2.53.42,5.12,1.04,7.62,1.61.82.13,1.77.7,2.54.98,1.03.37,2.3.66,3.39.76,1.96.19,4.01-.18,5.93-.5,1.65-.19,3.45-.08,5.08.27,2.24.47,4.52,1.25,6.77,1.65,3.07.19,6.23.56,9.31.34,1.39-.12,2.9-.54,4.23-.96,3.41-.48,6.86-1.19,10.16-2.18,2.2-.64,4.49-1.35,6.77-1.61,3.41-.47,6.87-1.12,10.16-2.15,2.48-.8,5.21-1.18,7.62-2.18,2.23-1.02,4.37-2.57,6.77-3.16,4.58-.96,8.43,2.71,12.7,3.7,3.02.86,6.23,1.1,9.31,1.64,3.89.93,7.82,2.03,11.85,2.11"/><path class="b" d="M10.91,139.89c4.24-.03,8.47-.86,12.7-1.11,3.93-.18,7.93.39,11.85-.11,4.01-.33,7.98-1.25,11.85-2.29,2.23.1,4.55.18,6.77.28,5.13.13,10.25.93,15.24,2.11,2.28.4,4.43,1.63,6.77,1.75,2.24.28,4.54-.33,6.77-.37,2.28.08,4.58.75,6.77,1.3,1.9.55,3.96.83,5.93,1.01,2.22.24,4.54.53,6.77.46,1.69,0,3.42-.62,5.08-.77,4.03-.36,7.99-1.5,11.85-2.67,2.75-.89,5.66-1.44,8.47-2.1,3.41-.99,6.78-2.32,10.16-3.39,2.42-.9,4.2-3.28,6.77-3.86,2.28-.37,4.25,1.37,5.93,2.67,1.73,1.39,3.73,2.76,5.93,3.25,1.62.37,3.44.33,5.08.16.74-.08,1.8-.2,2.54-.29.44.11,1.31.48,1.69.72,2.58,1.36,5.62,1.42,8.47,1.38,2.22-.02,4.55.04,6.77-.03"/><path class="b" d="M10.91,137.69c4.52.19,9.04-.63,13.55-.83,3.93-.11,7.93.58,11.85.06,3.72-.36,7.44-1.2,11.01-2.29,2.21-.24,4.55.16,6.77.12,5.4.03,10.82.52,16.09,1.73,2.59.35,5.03,1.58,7.62,1.89,2.23.38,4.55-.21,6.77-.04,2.56.27,5.11,1.07,7.62,1.61,3.34.59,6.76,1.24,10.16,1.39,1.67.12,3.43-.24,5.08-.37,3.74-.17,7.45-1.1,11.01-2.23,3.33-1.12,6.8-2.03,10.16-3.06,2.53-.93,5.1-2.03,7.62-2.97,1.12-.46,2.5-.96,3.39-1.82,1.39-1.13,3.14-2.8,5.08-2.1,3.16,1.69,5.05,5.29,8.47,6.64,2.36,1.05,5.13,1.1,7.62.54.81.26,1.76.93,2.54,1.28,1.55.69,3.39,1,5.08.9,4.24-.48,8.4-1.85,12.7-1.98"/><path class="b" d="M10.91,135.45c5.36.53,10.73-.51,16.09-.46,9,.87,13.43.1,22.01-2.34,5.34.29,10.76.03,16.09.59,3.11.35,6.25.99,9.31,1.59,1.11.17,2.3.77,3.39,1.03,1.33.36,2.86.55,4.23.58,1.95.01,4.01-.12,5.93.32,4.5.91,8.96,2.31,13.55,2.79,3.35.29,6.83.16,10.16-.29,3.75-.59,7.43-1.81,11.01-3.07,3.4-1.16,6.91-2.19,10.16-3.75,2.27-.97,4.78-1.83,6.77-3.31,5.91-5.78,6.75,3.78,14.39,5.69,1.6.53,3.44.53,5.08.84.37.23,1.28.64,1.69.81,3.82,1.5,8.13,1.21,11.85-.45,2.69-1.04,5.59-1.71,8.47-1.96"/><path class="b" d="M10.91,133.29c5.05.68,10.18.17,15.24-.07,3.94-.1,7.92.76,11.85.27,4.31-.37,8.49-1.73,12.7-2.63,2.22-.12,4.55.13,6.77.05,5.96-.17,11.94.35,17.78,1.58,2.29.32,4.47,1.46,6.77,1.74,2.5.41,5.14.08,7.62.61,3.96.85,7.81,2.42,11.85,2.92,2.49.3,5.11.53,7.62.42,4.92-.38,9.78-1.73,14.39-3.45,5.15-1.95,10.45-3.76,15.24-6.53,1.41-.63,2.57-2.23,4.23-2.22,1.74.26,3.03,1.9,4.23,3.04,2.02,2.19,4.7,3.86,7.62,4.5,3.91.88,7.77,2.47,11.85,2.32,2.38-.05,4.65-1.15,6.77-2.11,2.37-1.05,5.01-1.75,7.62-1.54"/><path class="b" d="M10.91,131.28c5.6.9,11.3.53,16.93.2,3.65,0,7.36.71,11.01.29,4.87-.44,9.58-1.99,14.39-2.75,1.93-.19,3.99,0,5.93-.1,5.94-.19,11.95.11,17.78,1.32,2.59.38,5.02,1.67,7.62,2,1.93.38,4.01-.06,5.93.36,3.11.8,6.17,2.08,9.31,2.76,6.2,1.63,9.83,1.63,16.09.23,4.39-.78,8.63-2.29,12.7-4.08,2.78-1.22,5.8-2.16,8.47-3.64,1.92-.96,3.84-2.66,5.93-3.15,2.09.05,3.6,2.02,5.08,3.27,1.86,1.78,4.27,3.07,6.77,3.68,3.87.9,7.83,2.26,11.85,2.04,2.4-.13,4.56-1.5,6.77-2.28,2.46-.59,5.09-.86,7.62-.89"/><path class="b" d="M10.91,129.45c5.88.95,11.86.87,17.78.35,3.37-.1,6.79.53,10.16.29,7.11-.58,14-2.96,21.17-3.15,8.26-.42,16.57.66,24.55,2.76,1.91.44,4,.25,5.93.51,3.17.66,6.32,1.78,9.31,3.01,2.66,1.08,5.58,1.82,8.47,1.75,3.97-.16,7.94-.98,11.85-1.64,5.39-.95,10.04-4.17,15.24-5.73,2.93-1.07,5.34-3.65,8.47-4.14,1.63.12,3.04,1.4,4.23,2.41,2.11,1.98,4.77,3.47,7.62,4.04,2.51.55,5.08,1.23,7.62,1.63,3.14.47,6.31-.57,9.31-1.36,2.73-.78,5.62-1.35,8.47-1.42"/><path class="b" d="M10.91,127.65c3.91.56,7.9,1.05,11.85.91,3.65-.1,7.35-.75,11.01-.43,8.31.98,16.34-1.92,24.55-2.54,9.33-.69,18.82-.26,27.94,1.89,1.64.3,3.44.29,5.08.54,2.33.38,4.68,1.19,6.77,2.28,5.73,3.27,9.72,3.32,16.09,2.4,2.8-.35,5.71-.48,8.47-1.1,2.04-.46,4.06-1.38,5.93-2.31,1.65-.77,3.34-1.82,5.08-2.38,1.05-.36,2.37-.62,3.39-1.09,1.09-.53,2.34-1.29,3.39-1.9,4.97-3.26,6.8.29,11.01,2.41,2.1,1.07,4.47,1.69,6.77,2.14,1.93.41,3.96,1.03,5.93,1.24,2.87.23,5.73-.81,8.47-1.53,2.73-.77,5.62-1.31,8.47-1.4"/><path class="b" d="M10.91,125.83c3.35.49,6.77,1.04,10.16,1.09,3.09.07,6.24-.3,9.31-.6,3.93-.32,7.93.38,11.85,0,5.94-.58,11.81-2.05,17.78-2.38,4.78-.31,9.61-.26,14.39-.13,4.24.16,8.56.36,12.7,1.31,2.48.6,5.16.55,7.62,1.26,2.73.82,5.04,2.75,7.62,3.9,3.44,1.55,7.35,1.23,11.01.91,3.36-.33,6.85-.19,10.16-.9,3.64-.87,6.89-2.98,10.16-4.7,1.98-.56,4.17-.82,5.93-2.01,5.68-3.65,6.47-1.28,11.85.75,1.4.37,2.84,1.15,4.23,1.52,1.93.5,3.99.92,5.93,1.4,3.43,1.06,6.92-.21,10.16-1.31,2.98-.99,6.18-1.4,9.31-1.41"/><path class="b" d="M10.91,123.99c4.46.73,9.01,1.5,13.55,1.16,2.81-.14,5.66-.67,8.47-.79,2.8-.13,5.67.14,8.47.11,5.96-.19,11.84-1.61,17.78-2.04,4.49-.34,9.05-.3,13.55-.31,4.78.03,9.63.03,14.39.55,1.67.18,3.42.68,5.08.93,1.38.2,2.95.29,4.23.88,2.38,1.05,4.43,2.9,6.77,4.01,3.15,1.49,6.77,1.31,10.16,1.15,3.08-.18,6.25-.02,9.31-.39,4.32-.6,8.12-3.07,11.85-5.15,1.27-.64,2.94-.41,4.23-1.03,1.67-.71,3.32-1.85,5.08-2.34,2-.55,4.04.48,5.93,1.04,1.03.33,2.33.58,3.39.82.37.24,1.28.66,1.69.84,1.87.73,3.98,1.11,5.93,1.57,3.42,1,6.11.33,9.31-1.07,3.44-1.51,7.24-2.31,11.01-2.04"/><path class="b" d="M10.91,122.16c4.18.74,8.44,1.55,12.7,1.28,4.23-.18,8.45-1.16,12.7-1.07,2.8,0,5.67.27,8.47.04,4.81-.28,9.6-1.15,14.39-1.51,9.29-.46,18.64-.42,27.94-.29,3.12.09,6.28.65,9.31,1.37,4.59,1.81,7.3,5.75,12.7,6.07,4.2.27,8.49.18,12.7.04,3.95-.2,7.6-1.98,11.01-3.85,1.07-.57,2.34-1.28,3.39-1.89,1.05-.29,2.37-.2,3.39-.64,2.44-.95,4.87-2.74,7.62-2.2,1.93.32,3.96.79,5.93.84,1.27.76,2.8,1.46,4.23,1.83,2.46.58,5.06,1.41,7.62,1.17,2.37-.39,4.59-1.63,6.77-2.55,2.9-1.26,6.14-1.97,9.31-1.71"/><path class="b" d="M10.91,120.94c10.07,2.4,14.15.24,23.71-.49,3.37-.23,6.79.15,10.16.06,4.8-.13,9.61-.77,14.39-1.16,4.49-.33,9.05-.21,13.55-.31,5.91-.16,11.87-.33,17.78-.15,11.09.42,9.41,3.79,17.78,7,2.43.75,5.09.82,7.62.88,2.22.04,4.56.08,6.77-.11,2.56-.32,5.24-.8,7.62-1.83,1.94-1.01,3.95-2.16,5.93-3.1.41-.22,1.29-.68,1.69-.91.74-.2,1.81-.27,2.54-.53,1.67-.57,3.37-1.5,5.08-1.93,2.48-.5,5.11.17,7.62,0,1.13.27,2.28,1.09,3.39,1.45,1.6.57,3.41.98,5.08,1.28,3.6.9,7-.96,10.16-2.43,2.88-1.18,6.17-2.67,9.31-1.98"/><path class="b" d="M10.91,120.02c5.01,1.15,10.21,1,15.24.05,2.82-.42,5.61-1.46,8.47-1.57,3.93-.33,7.92.12,11.85.02,4.8-.01,9.61-.55,14.39-.86,4.5-.25,9.05-.07,13.55-.22,6.47-.25,13.01-.56,19.47.05,1.94.18,4.01.3,5.93.68.79.38,1.81,1,2.54,1.48,7.72,5.66,12.68,6.14,22.01,5.16,2.25-.22,4.64-.47,6.77-1.27,1.42-.54,2.81-1.56,4.23-2.1,1.69-.7,3.43-1.66,5.08-2.43,2-.43,3.94-1.46,5.93-1.96,2.47-.51,5.11-.35,7.62-.56,2.35,1.24,5,2.05,7.62,2.44,5.18,1.11,9.58-2.69,14.39-3.86,1.03-.29,2.32-.54,3.39-.66,0,0,.85-.03.85-.03l.85.44"/><path class="b" d="M10.91,119.05c5.91,1.11,11.94-.1,17.78-1.13,3.07-.57,6.17-1.52,9.31-1.5,5.06-.08,10.17.34,15.24.13,3.09-.12,6.23-.5,9.31-.61,3.08-.13,6.23-.05,9.31-.05,4.51.05,9.04-.46,13.55-.44,3.95,0,7.92.6,11.85.87,1.06.07,2.33.16,3.39.27,2.11.65,3.99,2.19,5.93,3.22,2.35,1.36,4.91,2.66,7.62,3.08,4.19.52,8.49.03,12.7-.02,1.67-.08,3.48-.27,5.08-.76,1.41-.46,2.81-1.38,4.23-1.83,2.02-.79,4.07-1.85,5.93-2.97,1.9-.71,3.94-1.47,5.93-1.89,1.92-.35,3.99-.5,5.93-.74,1.11.14,2.32.76,3.39,1.05,1.89.57,3.95.99,5.93,1.09,4.52.19,8.4-2.8,12.7-3.73,1.04-.24,2.32-.56,3.39-.43.39.16,1.3.5,1.69.69"/><path class="b" d="M10.91,117.97c4.55.58,9.07-.61,13.55-1.24,4.24-.57,8.46-1.56,12.7-2.15,3.08-.3,6.23-.1,9.31.01,2.51.07,5.11.25,7.62.19,2.8-.08,5.67-.45,8.47-.56,3.93-.18,7.92.12,11.85.06,4.22-.03,8.48-.65,12.7-.48,4.52.21,9.03,1.1,13.55,1.38.42.04,1.27.13,1.69.17.76.46,1.79,1.1,2.54,1.57,1.59.98,3.35,1.96,5.08,2.66,3.46,1.46,7.34,1.21,11.01,1.3,3.65.03,7.39.53,11.01-.11,4.14-1.13,8.22-2.89,11.85-5.19,2.6-1.31,5.62-1.82,8.47-2.29.74-.11,1.79-.27,2.54-.26,1.05.27,2.32.61,3.39.84,2.47.52,5.11.9,7.62.53,3.47-.62,6.66-2.61,10.16-3.1,1.68.21,3.48.66,5.08,1.21"/><path class="b" d="M10.91,116.73c3.73.14,7.37-1.06,11.01-1.67,3.36-.54,6.81-.91,10.16-1.47,2.8-.36,5.64-1,8.47-1.13,4.5-.21,9.04.47,13.55.49,4.78-.15,9.6-.69,14.39-.33,2.79.14,5.67.23,8.47.07,3.08-.16,6.22-.57,9.31-.56,5.1.08,10.15,1.26,15.24,1.61,2.25-.06,4,1.55,5.93,2.47,2.33,1.24,4.99,1.96,7.62,2.1,4.51.2,9.05.71,13.55,1.01,3.18.18,6.36-.6,9.31-1.74,2-.76,4.07-1.72,5.93-2.79,1.28-.85,2.69-1.84,4.23-2.14,2.18-.58,4.51-1.18,6.77-1.27,2.5.33,5.09.78,7.62.86,2.89.18,5.77-.58,8.47-1.55,3.4.01,6.87.45,10.16,1.29"/><path class="b" d="M10.91,115.26c3.75-.29,7.3-1.84,11.01-2.38,2.21-.36,4.55-.51,6.77-.78,4.47-.74,9.02-1.42,13.55-1.76,4.23-.03,8.48.64,12.7.65,2.8-.02,5.67-.23,8.47-.16,2.8.05,5.67.33,8.47.43,4.8.25,9.6-.67,14.39-.8,4.54-.06,9.06.88,13.55,1.44,1.65.24,3.45.38,5.08.7,1.6.84,3.38,1.64,5.08,2.24,2.97,1.03,6.22,1.15,9.31,1.5,4.21.42,8.45,1.45,12.7,1.12,2.29-.15,4.61-.86,6.77-1.58,2.65-.92,5.34-2.08,7.62-3.73,1.13-1.05,2.76-1.51,4.23-1.82,3.29-.94,6.8-.28,10.16-.31,1.35.02,2.88-.02,4.23-.15.74-.08,1.79-.31,2.54-.18,4.51.48,9.09.93,13.55,1.79"/><path class="b" d="M10.91,113.55c3.7-.71,7.24-2.36,11.01-2.8,1.93-.28,3.99-.35,5.93-.59,1.06-.24,2.31-.51,3.39-.69,3.36-.45,6.79-.79,10.16-1.16,3.37-.23,6.8.27,10.16.49,2.79.24,5.67.18,8.47.24,5.92.1,11.86,1.32,17.78.61,3.64-.36,7.34-.98,11.01-.86,5.4.1,10.76,1.11,16.09,1.93,2.01.27,3.94,1.37,5.93,1.81,2.47.65,5.1,1.02,7.62,1.47,3.92.64,7.87,1.62,11.85,1.68,5.8-.35,12.11-1.82,16.93-5.17,2.58-2.13,6.16-1.9,9.31-2.19,2.51-.1,5.12-.43,7.62-.06,5.67.59,11.29,1.8,16.93,2.6"/><path class="b" d="M10.91,111.62c2.25-.6,4.52-1.5,6.77-2.09,2.18-.59,4.52-.87,6.77-1.04,1.98-.1,3.97-.86,5.93-1.11,1.35-.22,2.87-.34,4.23-.42,1.64-.32,3.41-.61,5.08-.74,3.65-.34,7.36.15,11.01.42,3.64.32,7.37.34,11.01.74,5.6.71,11.29,1.66,16.93.71,6.7-1.12,13.56-1.4,20.32-.64,2.82.36,5.66,1.06,8.47,1.51,2.19.68,4.53,1.23,6.77,1.7,4.51.9,8.98,2.25,13.55,2.81,4.82.19,9.74-.55,14.39-1.8,3.21-1.04,6.27-2.69,9.31-4.08,3.06-.51,6.22-.97,9.31-1.2,6.85.65,13.52,2.59,20.32,3.57"/><path class="b" d="M10.91,109.54c3.84-1.3,7.79-2.5,11.85-2.8,2.78-.63,5.6-1.46,8.47-1.61,2.83-.13,5.61-1.25,8.47-1.27,3.66-.1,7.36.46,11.01.67,3.37.26,6.82.39,10.16.96,3.64.59,7.3,1.54,11.01,1.63,3.69.12,7.38-.66,11.01-1.25,2.77-.47,5.66-.64,8.47-.74,3.93-.21,7.96-.47,11.85.33,7.39,1.47,14.68,3.52,22.01,5.25,4.74,1.04,9.64.13,14.39-.3,1.99-.23,4.02-.88,5.93-1.48,2.29-.71,4.67-1.51,6.77-2.69,2.72-.78,5.66-1.17,8.47-1.52,6.88.68,13.52,2.83,20.32,3.95"/><path class="b" d="M10.91,107.39c3.01-1.05,6.2-1.63,9.31-2.27,3.53-1.25,7.27-1.86,11.01-1.99,3.26-.99,6.72-1.91,10.16-1.51,3.93.55,7.89,1.3,11.85,1.57,2.23.29,4.59-.25,6.77.33,5.87,1.39,10.8,3.03,16.93,1.83,2.52-.4,5.1-1.04,7.62-1.44,2.49-.42,5.11-.52,7.62-.76,3.92-.42,7.93-1.08,11.85-.37,3.4.61,6.78,1.68,10.16,2.41,4.21,1.11,8.45,2.35,12.7,3.31,3.61.81,7.36.14,11.01.03,4.35-.09,8.54-1.58,12.7-2.69,1.96-.63,3.85-1.77,5.93-2,1.64-.22,3.42-.91,5.08-.7,4.27.49,8.55,1.32,12.7,2.43,2.21.67,4.73.79,6.77,1.9"/><path class="b" d="M10.91,105.25c1.91-.61,4.04-.84,5.93-1.49,3.77-1.47,7.77-2.61,11.85-2.43,3.9-.69,7.78-2.71,11.85-1.95,4.19.9,8.39,2.14,12.7,2.4,1.36.1,2.88.08,4.23-.07.78-.09,1.78-.36,2.54-.04,4.42,1.22,8.86,3.12,13.55,2.61,3.43-.27,6.81-1.29,10.16-2.01,2.76-.63,5.67-.77,8.47-1.09,4.75-.71,9.6-2,14.39-.86,5.36,1.36,10.74,2.85,16.09,4.28,2.27.45,4.51,1.4,6.77,1.82,1.92.32,3.99.18,5.93.11,2.22-.11,4.58-.04,6.77-.46,3.06-.76,6.22-1.48,9.31-2.09,1.71-.37,3.43-1.17,5.08-1.72,1.35-.28,2.88-.56,4.23-.8,3.97.12,7.99.86,11.85,1.75,1.35.34,2.88.72,4.23,1.04,1.41.47,2.87,1.31,4.23,1.9"/><path class="b" d="M10.91,103.15c3.53-.56,6.7-2.49,10.16-3.3,1.34-.32,2.86-.49,4.23-.49,1.09.04,2.35.09,3.39-.32,4.65-1.19,7.78-3.11,12.7-1.36,4.32,1.57,8.91,2.82,13.55,2.72,1.68.03,3.42-.59,5.08-.55,3.62,1.1,7.16,2.91,11.01,3.03,4.95.17,9.63-1.85,14.39-2.85,2.77-.58,5.69-.57,8.47-1.12,3.07-.61,6.15-1.65,9.31-1.7,4.09-.22,7.97,1.39,11.85,2.4,3.67.87,7.36,1.94,11.01,2.9,1.89.71,3.9,1.53,5.93,1.74,3.07.21,6.25.13,9.31-.21,1.95-.34,3.98-.93,5.93-1.3,2.21-.44,4.59-.58,6.77-1.15,1.68-.37,3.38-1.24,5.08-1.5,2.77-.66,5.68-.12,8.47.17,2.25.28,4.58.73,6.77,1.28,2.25.85,4.57,1.84,6.77,2.8"/><path class="b" d="M10.91,101.06c3.17-.85,6.09-2.64,9.31-3.32,1.63-.37,3.42-.44,5.08-.31.78-.12,1.78-.42,2.54-.6.77-.18,1.8-.41,2.54-.68,1-.57,2.24-1.08,3.39-1.23,1.94-.23,4.02.07,5.93.45,1.96.7,3.92,1.74,5.93,2.32,2.99.88,6.19,1.38,9.31,1.2,1.68-.06,3.42-.62,5.08-.8,2.55.82,5.03,2.08,7.62,2.78,5.45,1.54,10.92-.82,16.09-2.36,2.99-.99,6.22-1.03,9.31-1.44,2.58-.38,5.08-1.44,7.62-1.99,6.52-1.74,12.37,1.43,18.63,2.7,3.69.94,7.46,1.87,11.01,3.29,2.95,1.11,6.21,1.12,9.31.94,3.13-.18,6.21-1.21,9.31-1.56,1.94-.22,4.02-.37,5.93-.8,1.95-.4,3.97-1.07,5.93-1.44,3.36-.28,6.83.15,10.16.6,3.42.96,6.86,2.17,10.16,3.46"/><path class="b" d="M10.91,98.76c2.84-.87,5.54-2.38,8.47-2.99,1.34-.29,2.86-.4,4.23-.33.76-.21,1.77-.48,2.54-.65,1.44-.26,2.98-.58,4.23-1.37,2.71-1.16,5.7-.05,8.47.28,1.81.11,3.41,1.36,5.08,1.95,2.41.92,5.05,1.41,7.62,1.59,1.65.1,3.45.04,5.08-.25,1.36-.13,2.92-1.02,4.23-.36,1.64.94,3.34,2.1,5.08,2.86,3.24,1.5,7,.93,10.16-.48,2.84-.8,5.66-1.91,8.47-2.81,1.32-.51,2.86-.4,4.23-.53,2.24-.29,4.59-.66,6.77-1.24,4.05-1.46,8.32-3.27,12.7-2.22,3.7.69,7.3,2.07,11.01,2.74,4.9.9,9.66,2.55,14.39,4.04,4.45,1.12,9.11.39,13.55-.4,2.5-.38,5.13-.45,7.62-.91,3.07-.52,6.19-1.25,9.31-1.34,3.44-.12,6.88.65,10.16,1.6,2.24.6,4.61,1.13,6.77,1.98"/><path class="b" d="M10.91,96.44c1.97-.57,3.96-1.46,5.93-2.04,1.61-.53,3.41-.71,5.08-.94,1.9-.58,3.97-.98,5.93-1.31,1.04-.44,2.23-1.02,3.39-.99,3.11.23,6.16,1.45,9.31,1.41,2.1,1.12,4.41,2.04,6.77,2.41,2.48.43,5.1.62,7.62.42,1.66-.04,3.45-.9,5.08-.34,1.91,1.23,3.82,2.75,5.93,3.64,3.29,1.42,7.04.51,10.16-.94,1.92-.97,3.87-2.09,5.93-2.75.43-.16,1.26-.48,1.69-.63.76-.15,1.78,0,2.54-.01,1.98-.06,4.04-.42,5.93-1.01,1.36-.42,2.92-.78,4.23-1.33,2.43-1.06,4.93-2.39,7.62-2.58,4.05-.07,7.89,1.8,11.85,2.4,2.77.65,5.69.84,8.47,1.44,3.7.83,7.36,2.08,11.01,3.11,4.16,1.06,8.51.6,12.7.02,5.08-.37,10.14-1.47,15.24-1.57,6-.04,12.01,1.15,17.78,2.7"/><path class="b" d="M10.91,94.14c1.97-.46,3.97-1.19,5.93-1.68,2.26-.42,4.53-1.2,6.77-1.69,1.35-.31,2.88-.51,4.23-.82,1.03-.43,2.3-.51,3.39-.26,3.03.78,6.14,1.77,9.31,1.56,1.66.5,3.34,1.38,5.08,1.65,2.48.47,5.1.64,7.62.62,1.37.06,2.88-.36,4.23-.14.8.16,1.88.22,2.54.76,1.85,1.33,3.76,2.88,5.93,3.65,3.69,1.24,7.69-.23,11.01-1.9,1.74-.83,3.33-2.24,5.08-3.03.45-.2,1.23-.24,1.69-.08.75.1,1.78.1,2.54.02,2.31-.21,4.61-.92,6.77-1.7,3-.73,5.53-2.75,8.47-3.65,4.67-1.19,9,2.06,13.55,2.6,3.34.56,6.81.4,10.16.81,3.99.71,7.92,1.97,11.85,2.96,4.15,1.04,8.49.7,12.7.25,4.77-.44,9.59-1.17,14.39-1.02,5.69.08,11.37.96,16.93,2.1"/><path class="b" d="M10.91,91.81c4.58-.67,8.98-2.37,13.55-3.14,1.92-.29,3.99-.97,5.93-.42,2.2.62,4.48,1.43,6.77,1.62,1.65.27,3.52-.34,5.08.37,2.96,1.03,6.2,1.18,9.31,1.29,1.36.08,2.88-.12,4.23.07,1.34.63,3.12.67,4.23,1.72,1.78,1.35,3.72,2.83,5.93,3.38,5.38.98,10.97-2.12,15.24-5.12.73-.31,1.76-.42,2.54-.29,1.08.03,2.34-.18,3.39-.43,2.61-.5,5.13-1.62,7.62-2.52,1.47-.53,2.84-1.66,4.23-2.36,3.57-1.94,6.75-.75,10.16.81,2.4,1.03,5.01,1.83,7.62,2.09,3.07.36,6.23-.1,9.31,0,3.95.51,7.93,1.46,11.85,2.17,3.57.97,7.34,1.05,11.01.75,5.62-.45,11.29-.92,16.93-.73,5.11-.03,10.27.38,15.24,1.59"/><path class="b" d="M10.91,89.35c4.29-.19,8.47-1.57,12.7-2.21,1.92-.32,3.99-.86,5.93-.31,3.01.88,6.13,1.88,9.31,1.66.77-.03,1.78-.11,2.54-.19,1.63.4,3.4.81,5.08.95,1.65.16,3.43.26,5.08.32,1.09.1,2.45-.22,3.39.48,1.3.77,3,1.04,4.23,1.9,2,1.52,4.21,3.18,6.77,3.49,3.5.26,7-1.1,10.16-2.46,1.68-.77,3.24-2.07,5.08-2.47,2.15-.88,4.57-1.12,6.77-1.84,2.29-.62,4.57-1.64,6.77-2.53,1.09-.63,2.3-1.54,3.39-2.18,2.32-1.48,5.19-1.57,7.62-.29,2.46,1.17,4.96,2.55,7.62,3.23,5.24,1.44,10.74.47,16.09.77,5.4.06,10.69,1.56,16.09,1.72,6.76-.03,13.55-.63,20.32-.44,5.08-.14,10.29-.33,15.24,1"/><path class="b" d="M10.91,87.12c3.68-.04,7.37-.76,11.01-1.27,1.93-.21,3.98-.81,5.93-.57,3.08.56,6.16,1.57,9.31,1.6,1.66.06,3.43-.18,5.08-.2,1.63.34,3.42.55,5.08.68,1.65.13,3.43.24,5.08.3,1.41.6,2.82,1.62,4.23,2.22,1.54.5,2.87,1.73,4.23,2.56,1.49.92,3.31,1.58,5.08,1.54,4.11-.34,8.17-1.85,11.85-3.65,1.7-.51,3.46-1.28,5.08-1.99,3.3-1.39,6.9-2.2,10.16-3.69,1.49-.68,2.85-1.93,4.23-2.79,4.09-2.85,7.27-.5,11.01,1.52,3.87,2.11,8.33,2.9,12.7,2.9,2.21.35,4.54.56,6.77.33,7.03-.99,14.11.81,21.17.38,3.65-.13,7.36-.2,11.01-.3,3.08-.09,6.24-.25,9.31.03,3.92-.18,8.04-.45,11.85.63"/><path class="b" d="M10.91,84.97c3.38.09,6.81-.23,10.16-.57,1.94-.13,3.99-.61,5.93-.45,3.65.4,7.33,1.1,11.01,1.15,1.36.03,2.87-.06,4.23-.14,2.51.2,5.1.56,7.62.69,1.91.04,3.43,1.79,5.08,2.58,4.22,2.08,6.67,5.16,11.85,3.98,4.03-.97,8.04-2.34,11.85-3.95,3.92-1.63,7.81-3.49,11.85-4.78,3.11-1.09,5.27-4.1,8.47-5.02,3.79-.85,6.87,2.4,10.16,3.71,1.85.85,3.92,1.47,5.93,1.8,1.69.18,3.47.51,5.08,1.06,3.31.87,6.83.54,10.16,0,2.79.07,5.67,0,8.47-.01,6.77.06,13.56-.44,20.32-.69,4.21-.18,8.54-.72,12.7.2,3.06.31,6.31-.5,9.31.47"/><path class="b" d="M10.91,83.05c2.22-.21,4.55,0,6.77-.16,2.8-.07,5.67-.45,8.47-.37,5.63.21,11.29.85,16.93.73,1.94.22,4,.32,5.93.59,1.09.66,2.33,1.51,3.39,2.22,5.06,3.04,8.15,6.15,14.39,4.29,2.25-.63,4.56-1.4,6.77-2.13,1.67-.71,3.41-1.62,5.08-2.31,1.63-.67,3.46-1.21,5.08-1.9,1.93-.87,3.95-1.83,5.93-2.56,3.38-1.68,6.08-5.55,10.16-5.35,3.7.61,6.63,3.47,10.16,4.62,1.59.61,3.4.99,5.08,1.3,3.4,1.62,7.25,2.4,11.01,2,1.66-.1,3.42-.55,5.08-.68,3.07.26,6.24.19,9.31.06,6.49-.37,12.98-1.23,19.47-1.62,3.93-.2,7.96-.75,11.85.02,1.39.19,2.83,1.02,4.23,1.05,1.64-.12,3.45-.28,5.08.04"/><path class="b" d="M10.91,81.3c5.07-.13,10.17-.39,15.24-.36,4.79,0,9.61.32,14.39.51,1.94.19,4.02.18,5.93.59.78.42,1.8,1.06,2.54,1.54,2.96,1.9,6.03,3.91,9.31,5.2,2.45.88,5.18.59,7.62-.15,1.66-.49,3.44-1.06,5.08-1.61,1.97-.9,3.93-2.1,5.93-2.94,3.07-1.18,6.48-1.66,9.31-3.44,4.74-2,8.69-8.42,14.39-6.3,2.62,1.05,5.01,2.81,7.62,3.89,1.31.56,2.84,1.03,4.23,1.35,1.57.86,3.36,1.63,5.08,2.14,4.68,1.54,9.71.79,14.39-.34,3.92.39,7.93.44,11.85.04,3.94-.41,7.91-1.04,11.85-1.4,4.19-.57,8.46-1.21,12.7-.93,2.25.01,4.61.29,6.77.92,1.08.31,2.35.82,3.39,1.28.73-.07,1.8-.13,2.54-.12"/><path class="b" d="M10.91,79.26c8.74.2,17.52-.28,26.25.38,1.65.15,3.43.27,5.08.46,1.71.6,3.49,1.43,5.08,2.3,2.2,1.2,4.47,2.52,6.77,3.52,1.55.82,3.33,1.52,5.08,1.72,2.89.31,5.75-.75,8.47-1.59,2.68-.95,5.01-2.86,7.62-3.96,1.84-.84,3.98-.95,5.93-1.36,2.24-.4,4.1-1.89,5.93-3.15,2.23-1.65,4.15-3.86,6.77-4.96,3.36-1.75,6.3-.57,9.31,1.25,2.37,1.48,5.06,2.49,7.62,3.55,5.05,2.97,11.13,4.43,16.93,3.31,1.95-.33,3.99-.86,5.93-1.28,2.79.15,5.67.46,8.47.26,2.52-.14,5.12-.48,7.62-.83,2.52-.14,5.13-.3,7.62-.72,7.86-1.39,16.37-2.3,23.71,1.54"/><path class="b" d="M10.91,77.06c8.45.61,16.97.22,25.4.99,7.69.58,13.65,6.56,21.17,7.83,1.97.29,4.04-.14,5.93-.68,1.76-.43,3.56-1.16,5.08-2.15,2.4-1.43,4.81-3.25,7.62-3.77,1.35-.23,2.88-.08,4.23-.28,1.97-.2,3.68-1.45,5.08-2.75,1.78-1.3,3.28-3.19,5.08-4.46,3.73-2.35,7.1-3.01,11.01-.61,1.36.74,2.85,1.62,4.23,2.31,1.04.56,2.43.93,3.39,1.64,4.79,2.88,10.48,4.63,16.09,4.41,4.01-.19,7.87-1.7,11.85-2.05,3.07.35,6.25.24,9.31-.1,3.08-.01,6.25.09,9.31-.34,8.38-1.27,17.16-3.01,25.4-.11"/><path class="b" d="M10.91,74.82c5.34.49,10.73.74,16.09.98,2.51.13,5.11.22,7.62.44,2.57.4,5.18,1.2,7.62,2.11,3.47,1.38,6.61,3.65,10.16,4.86,2.14.71,4.53,1.13,6.77.79,2.31-.43,4.74-1.03,6.77-2.25,3.22-1.78,6.31-4.54,10.16-4.66,1.65.03,3.48.47,5.08-.16,1.25-.48,2.48-1.42,3.39-2.4,1.08-1.01,2.37-2.21,3.39-3.29,2.21-2.17,5.36-3.6,8.47-3.71,1.81.03,3.55.98,5.08,1.86,1.61.95,3.35,1.99,5.08,2.73,1.61.97,3.33,2.07,5.08,2.79,4.55,1.77,9.47,3.22,14.39,3.02,4.27-.26,8.41-1.8,12.7-1.94,5.63-.26,11.32.51,16.93-.15,3.95-.45,7.89-1.35,11.85-1.69,4.51-.41,9.13-.2,13.55.83"/><path class="b" d="M10.91,72.62c5.34.57,10.73.93,16.09,1.29,6.09.32,12.36,1.09,17.78,4.09,5.74,3.39,10.23,5.53,16.93,3.24,3.03-1.04,5.66-3.08,8.47-4.57,3.1-1.71,5.1-1.74,8.47-1.12,2.33,0,4.45-1.65,5.93-3.34,1.64-1.51,3.22-3.36,5.08-4.6,1.77-1.05,3.85-1.96,5.93-2.11,2.52-.13,4.7,1.56,6.77,2.78,1.3.81,2.84,1.57,4.23,2.19,1.8,1.21,3.87,2.23,5.93,2.94,4.39,1.33,8.91,2.88,13.55,2.92,4.83-.1,9.54-1.73,14.39-1.58,5.35,0,10.76.56,16.09-.14,3.95-.5,7.89-1.4,11.85-1.77,4.21-.42,8.53-.26,12.7.49"/><path class="b" d="M10.91,70.54c9.29,1.19,18.82.95,27.94,3.21,4.02.85,7.39,3.34,11.01,5.13,6.3,2.96,12.33.54,17.78-2.96,2.3-1.32,4.88-2.71,7.62-2.56,1.08.08,2.31.47,3.39.47,1.14-.17,2.33-.9,3.39-1.33,1.23-.81,2.3-2.22,3.39-3.2,2.82-3.03,6.58-6.26,11.01-5.72,2.18.47,4.03,2.05,5.93,3.13,1.55,1.02,3.46,1.61,5.08,2.47,2.59,1.54,5.58,2.42,8.47,3.2,3.59.98,7.24,2.27,11.01,2.23,3.1,0,6.23-.62,9.31-.9,2.22-.19,4.55-.15,6.77-.09,4.78.2,9.64.39,14.39-.28,3.94-.55,7.89-1.43,11.85-1.83,3.92-.41,7.95-.33,11.85.23"/><path class="b" d="M10.91,68.62c10.16,1.14,20.58.96,30.48,3.77,3.38.92,6.16,3.29,9.31,4.69,3.74,1.7,8.17,1.35,11.85-.33,3.4-1.5,6.49-3.94,10.16-4.81,1.65-.42,3.44-.08,5.08.17,1.47.09,2.88-1.02,4.23-1.49,1.53-1.15,2.85-2.87,4.23-4.18,2.49-2.78,6.22-5.58,10.16-4.71,2.15.69,3.97,2.34,5.93,3.41,1.55.9,3.35,1.63,5.08,2.1,2.64,1.4,5.59,2.27,8.47,3.06,3.33.94,6.68,2.21,10.16,2.47,3.65.3,7.36-.29,11.01-.4,3.93-.09,7.92.29,11.85.3,6.28.15,12.46-1.21,18.63-2.16,4.47-.65,9.06-.79,13.55-.3"/><path class="b" d="M10.91,66.86c5.63.35,11.29.93,16.93,1.2,5.43.33,10.94,1.21,16.09,2.99,2.35.95,4.55,2.44,6.77,3.64,3.45,2.02,7.3,1.84,11.01.71,3.5-1.25,6.59-3.61,10.16-4.69,1.9-.65,3.98-.37,5.93-.21,1.43-.33,2.87-1.17,4.23-1.71,1.56-1.13,2.86-2.9,4.23-4.24,2.44-2.82,6.21-5.83,10.16-4.62,2.4,1,4.4,2.95,6.77,4.02,1.57.76,3.38,1.32,5.08,1.71,2.19.87,4.5,1.7,6.77,2.32,3.62,1.04,7.23,2.48,11.01,2.89,3.64.42,7.36.09,11.01.13,4.22.09,8.48.58,12.7.49,6.27-.03,12.45-1.44,18.63-2.33,4.19-.57,8.48-.74,12.7-.44"/><path class="b" d="M10.91,65.22c4.79.14,9.61.6,14.39.83,2.8.15,5.68.13,8.47.45,3.4.47,6.89,1.11,10.16,2.16,5.66,2.2,9.38,7.06,16.09,5.39,4.28-.57,7.8-3.38,11.85-4.64,1.89-.69,3.99-.34,5.93-.55,1.63-.81,3.56-1.38,5.08-2.4.78-.79,1.77-1.94,2.54-2.75,2.65-3.12,6.49-7.21,11.01-5.62,2.37,1.1,4.36,3.08,6.77,4.12,2.38,1.18,5.16,1.4,7.62,2.29,4.75,1.51,9.49,3.34,14.39,4.26,3.9.65,7.92.53,11.85.75,4.21.28,8.47.85,12.7.76,6.27-.12,12.44-1.52,18.63-2.42,4.18-.57,8.48-.76,12.7-.59"/><path class="b" d="M10.91,63.64c5.07.03,10.17.46,15.24.61,2.8.11,5.68-.03,8.47.2,2.55.19,5.12.78,7.62,1.29,2.41.44,4.73,1.53,6.77,2.86,2.8,1.84,5.8,4.01,9.31,3.87,2.26-.12,4.65-.58,6.77-1.37,2.23-.93,4.46-2.14,6.77-2.87,1.04-.32,2.3-.57,3.39-.63.79,0,1.84-.05,2.54-.48,1.64-.74,3.43-1.5,5.08-2.22.44-.43,1.29-1.35,1.69-1.83,2.99-3.33,6.69-8.7,11.85-6.86,2.37,1.14,4.34,3.17,6.77,4.21,2.65,1.22,5.67,1.5,8.47,2.22,4.46,1.45,8.92,3.17,13.55,4.05,3.89.72,7.92.79,11.85,1.2,4.76.53,9.59,1.34,14.39,1.02,5.41.05,10.77-1,16.09-1.92,4.45-.73,9.04-1.01,13.55-.86"/><path class="b" d="M10.91,62.07c5.35-.04,10.74.34,16.09.37,4.5,0,9.1-.39,13.55.54,2.87.62,5.96,1,8.47,2.65,2.5,1.51,4.78,3.67,7.62,4.55,4.93,1.31,9.9-.98,14.39-2.8,1.59-.62,3.39-1,5.08-1.21,1.37-.57,2.88-1.27,4.23-1.87,1.07-.51,2.46-.92,3.39-1.69,3.44-3.49,6.86-10.18,12.7-8.4,2.41,1.1,4.34,3.24,6.77,4.32,2.91,1.35,6.23,1.54,9.31,2.26,3.95,1.1,7.82,2.7,11.85,3.51,4.16.92,8.49,1.16,12.7,1.76,3.64.58,7.33,1.21,11.01,1.45,1.61.42,3.42.57,5.08.56,4.84-.05,9.64-1.1,14.39-1.86,4.46-.72,9.02-1.26,13.55-1.22"/><path class="b" d="M10.91,60.48c5.35-.07,10.74.24,16.09.15,4.5-.1,9.06-.63,13.55-.01,3.13.52,6.52.87,9.31,2.46,2.04,1.22,3.89,2.96,5.93,4.19,4.71,2.89,10.5.72,15.24-1.03,1.33-.52,2.87-.9,4.23-1.31,2.84-1.14,5.63-2.6,8.47-3.74,3.87-3.35,7.26-11.42,13.55-8.69,2.53,1.53,4.71,3.89,7.62,4.75,3.58,1.05,7.45,1.22,11.01,2.39,6.01,2.13,12.32,3.28,18.63,4.05,3.67.53,7.33,1.44,11.01,1.92,2.63,1.18,5.6,1.62,8.47,1.51,9.1-.45,17.97-3.11,27.09-3.41"/><path class="b" d="M10.91,58.86c5.07-.06,10.18.17,15.24.02,4.5-.14,9.04-.84,13.55-.54,2.25.13,4.58.44,6.77.92,1.72.37,3.63.71,5.08,1.78,2.02,1.37,3.83,3.23,5.93,4.49,3.91,2.35,8.65.94,12.7-.28,4.71-1.39,9.1-3.72,13.55-5.76,2.31-.88,3.48-3.66,5.08-5.4,1.82-2.2,4.54-4.63,7.62-4.09,2.31.6,3.94,2.72,5.93,3.92,2.48,1.68,5.58,2.03,8.47,2.46,2.25.41,4.58.96,6.77,1.58,7.42,2.44,15.29,2.99,22.86,4.75,1.74.38,3.53.6,5.08,1.59,2.09.98,4.47,1.56,6.77,1.64,9.73.17,19.15-3.02,28.79-3.84"/><path class="b" d="M10.91,57.22c5.07-.06,10.18.19,15.24-.04,4.5-.25,9.03-1.06,13.55-.83,2.83.18,5.7.66,8.47,1.29,1.66.44,3.74.36,5.08,1.54,1.94,1.53,3.74,3.48,5.93,4.67,3.97,2.18,8.68.76,12.7-.58,4.76-1.48,8.97-4.3,13.55-6.18,1.8-1.16,2.84-3.47,4.23-5.05,1.83-2.16,4.55-4.7,7.62-4.03,1.26.36,2.4,1.44,3.39,2.26,1.24,1.05,2.73,2.11,4.23,2.73,2.39,1,5.1,1.11,7.62,1.58,2.82.59,5.68,1.41,8.47,2.15,6.97,1.74,14.21,2.35,21.17,4.18,1.92.98,3.83,2.31,5.93,2.91,2.98.96,6.23.89,9.31.64,3.39-.29,6.83-.83,10.16-1.5,1.98-.34,3.99-1.1,5.93-1.62,2.46-.65,5.08-1.08,7.62-1.21"/><path class="b" d="M10.91,55.56c5.35-.06,10.75.31,16.09-.07,2.8-.23,5.66-.73,8.47-.87,2.23.02,4.54.59,6.77.72,1.69.02,3.45.29,5.08.72,2.21.43,4.54.73,6.77,1.03,2.11,1.29,3.73,3.48,5.93,4.69,5.35,3.21,11.78.31,16.93-1.95,3.46-1.5,6.48-4.14,10.16-5.1,2.5-3.09,4.59-7.04,8.47-8.61,4.54-1.72,5.99,5.25,14.39,6.02,3.16.31,6.29,1.11,9.31,2.06,3.33.81,6.76,1.58,10.16,2.02,3.96.56,7.95,1.33,11.85,2.21,2.38,1.57,4.83,3.3,7.62,4.06,5.54,1.37,11.41.4,16.93-.61,2.27-.81,4.49-2.03,6.77-2.79,2.69-.91,5.63-1.27,8.47-1.25"/><path class="b" d="M10.91,53.87c6.76-.03,13.6.75,20.32-.37,1.35-.14,2.87-.39,4.23-.28,2.77.53,5.64.98,8.47,1.03,2.71.9,5.64,1.23,8.47,1.45,1.06.08,2.33.16,3.39.2.52.17,1.34.82,1.69,1.22,1.71,1.58,3.68,3.18,5.93,3.9,5.23,1.5,10.66-1.09,15.24-3.45,2.02-1.09,3.95-2.58,5.93-3.74,1.25-.8,2.9-1.13,4.23-1.72,2.29-3.18,5.12-7.77,9.31-8.37,2.71.49,4.43,3.24,6.77,4.51,3.01,1.96,6.74,1.94,10.16,2.56,2.57.49,5.07,1.59,7.62,2.17,5.35.84,10.75,1.66,16.09,2.63,2.03.08,3.47,1.57,5.08,2.62,2.96,2.07,6.54,3.28,10.16,3.28,2.81.07,5.69-.15,8.47-.58,2.15-.46,4.05-1.97,5.93-3.05,3.76-2.53,8.27-3.18,12.7-2.69"/><path class="b" d="M10.91,52.11c4.79-.02,9.61.56,14.39.58,3.66.04,7.34-.88,11.01-.66,1.92.4,3.98.68,5.93.89,1.06.3,2.3.72,3.39.92,3.9.52,7.91.87,11.85.81,2.29,1.92,4.62,4.16,7.62,4.87,5.04,1.1,10.16-1.29,14.39-3.84,2.82-1.75,5.27-4.36,8.47-5.44.79-.21,1.87-.12,2.54-.66,1.66-2.39,3.69-4.74,5.93-6.61,2.32-2,3.9-1.23,5.93.65,6.28,6.31,10.49,3.75,17.78,6.37,1.62.57,3.38,1.22,5.08,1.51,1.34.29,2.88.16,4.23.36,3.08.52,6.23,1.13,9.31,1.63,1.28,0,2.43.87,3.39,1.64,1.03.75,2.29,1.61,3.39,2.25,4.53,2.71,10.16,2.8,15.24,2.02,2.2-.9,4.08-2.63,5.93-4.1,4.88-4.14,8.39-3.97,14.39-3.03"/><path class="b" d="M10.91,50.3c4.81,0,9.61.78,14.39,1.07,3.37.19,6.79-.41,10.16-.31,3.15-.05,6.23,1,9.31,1.47,1.94.15,3.99-.12,5.93-.03,2.51.09,5.1.41,7.62.49,1.47.91,2.74,2.44,4.23,3.34,3.48,2.44,8.06,2.2,11.85.63,2.77-1.07,5.38-2.75,7.62-4.7,2.61-2.04,5.64-5.79,9.31-4.2.6-.14,1.37-.97,1.69-1.46,1.08-1.26,2.31-2.8,3.39-4.06,1.79-2.06,3.4-3.97,5.93-1.59,2.01,1.86,4.1,3.96,6.77,4.83,3.82,1.28,8.07.67,11.85,2.16,2.19.76,4.45,1.74,6.77,1.99,1.06.12,2.32.11,3.39.1,1.36.25,2.87.55,4.23.8,1.35.25,2.87.53,4.23.74.87.28,1.81,1.1,2.54,1.63,3.17,2.47,6.92,4.42,11.01,4.6,1.92.03,4.12.43,5.93-.32,2.67-1.33,4.61-3.86,6.77-5.84,5.16-4.85,8.95-3.61,15.24-2.56"/><path class="b" d="M10.91,48.49c5.12-.13,10.16,1.14,15.24,1.53,3.08.19,6.23-.03,9.31.14,2.53.09,5.11.58,7.62.83,2.57.23,5.06-1,7.62-1.04,2.82-.1,5.68.55,8.47.89,2.09,1.82,4.14,3.98,6.77,5,4.27,1.71,9.08,0,12.7-2.46,2.44-1.67,4.52-3.98,6.77-5.89,2.59-2.31,4.75-2.89,7.62-.6,1.85-1.14,2.99-3.48,4.23-5.19.93-1.23,1.79-3.26,3.39-3.71.94.1,1.87.93,2.54,1.53,1.3,1.15,2.79,2.41,4.23,3.37,4.03,2.7,9.08,1.57,13.55,2.76,2.55.65,5.01,1.96,7.62,2.4,1.35.21,2.87.22,4.23.25,1.95.31,3.98.79,5.93,1.11,1.28.05,2.41,1.04,3.39,1.77,1.31.96,2.79,2.01,4.23,2.76,2.31,1.24,5.02,1.74,7.62,1.79,1.42.06,3.05.18,4.23-.77,2.49-1.85,4.43-4.52,6.77-6.55,2.69-2.55,6.5-3.79,10.16-3.04,1.96.34,4.05.64,5.93,1.31"/><path class="b" d="M10.91,46.75c4.56-.24,9.06.81,13.55,1.42,3.63.44,7.36.34,11.01.62,3.06.06,6.3.98,9.31.13,6.17-2.89,7.98-2.36,14.39-.68,1.87,1.03,3.28,3.02,5.08,4.19,3.36,2.69,8.09,3.19,11.85,1.04,4.58-2.33,7.53-6.85,11.85-9.53,2.96-1.75,4.51.71,6.77,2.17.9-.98,1.9-2.52,2.54-3.68.94-1.85,1.3-5.13,3.39-6.05,1.32.02,2.42,1.24,3.39,2.01,1,.85,2.35,1.62,3.39,2.43,4.45,3.2,8.59,2.03,13.55,2.71,4.03.63,7.69,2.99,11.85,2.89,1.39,0,2.88.37,4.23.65,1.06.23,2.36.37,3.39.75,1.91,1.33,3.85,2.88,5.93,3.95,2.31,1.23,5.03,1.63,7.62,1.55.42,0,1.28-.03,1.69-.06.86-.28,1.86-1.01,2.54-1.59,2.81-2.46,5.16-5.67,8.47-7.52,4.5-2.54,9.95-1.05,14.39.87"/><path class="b" d="M10.91,45.13c4.55-.33,9.07.49,13.55,1.14,3.35.39,6.8.41,10.16.65,3.07.09,6.3.6,9.31-.17,2.31-.84,4.24-2.84,6.77-3.09,2.29-.3,4.64.43,6.77,1.19.77.28,1.84.63,2.54,1.08.75.68,1.78,1.62,2.54,2.3,3.29,3.03,8.16,6.55,12.7,4.08,1.78-1.03,3.41-2.56,5.08-3.75,1.87-1.08,3.41-2.85,5.08-4.2,1.81-1.48,4.37-3.69,6.77-2.24,1.15.86,2.27,2.18,3.39,3.07,2.48-2.69,1.95-8.12,5.08-10.27,1.66-.19,2.95,1.44,4.23,2.26,4.06,2.75,6.62,4.9,11.85,4.47,2.52-.11,5.16-.13,7.62.46,2.27.53,4.49,1.6,6.77,2.05,2.23.33,4.59.45,6.77,1.06,1.08.27,2.46.29,3.39.97,1.87,1.3,3.81,2.79,5.93,3.68,1.84.76,3.95,1.06,5.93,1.01.42-.01,1.28-.05,1.69-.08.84-.29,1.85-.96,2.54-1.51,4.47-3.86,8.62-9.32,15.24-8.42,3.09-.03,5.67,1.93,8.47,2.94"/><path class="b" d="M10.91,43.64c4.52-.35,9.07,0,13.55.58,3.36.33,6.8.39,10.16.58,3.36.06,7.06.39,10.16-1.14,5.46-3.6,4.95-3.89,11.01-.96,1.04.49,2.3,1.04,3.39,1.43,1.43.75,2.9,1.82,4.23,2.73,3.06,1.92,6.21,5.55,10.16,4.57,2.65-.91,4.59-3.25,6.77-4.9.98-.77,2.25-1.58,3.39-2.11,1.59-1.27,3.25-2.76,5.08-3.68,1.92-1.02,3.46-.48,5.08.82.79.02,1.85.29,2.54.67,1.72-2.53,1.7-6.67,4.23-8.63,1.22-.42,2.43.53,3.39,1.18.75.53,1.81,1.18,2.54,1.74,2.16,1.77,4.77,3.39,7.62,3.6,3.36.13,6.8-.46,10.16-.06,2.6.29,5.09,1.39,7.62,1.99,3.11.46,6.25,1.12,9.31,1.82,1.65,1.03,3.32,2.33,5.08,3.19,2.32,1.18,5.04,1.6,7.62,1.41,1.2-.32,2.42-1.16,3.39-1.92,5.04-4.35,9.62-9.12,16.93-7.12,2.26.94,4.41,2.39,6.77,3.08"/><path class="b" d="M10.91,42.79c1.66-.19,3.44-.5,5.08-.81,1.36-.07,2.87-.1,4.23-.07,5.07.24,10.18.4,15.24.71,2.8.14,5.78.19,8.47-.71,2.41-.84,4.16-3.42,6.77-3.67,1.26.34,2.37,1.39,3.39,2.15,2.92,2.07,6.3,3.57,9.31,5.5,3.08,1.75,6.33,5.13,10.16,3.93,3.27-1.33,5.42-4.52,8.47-6.24,1.36-.77,2.91-1.58,4.23-2.42.99-.71,2.24-1.5,3.39-1.94,2.37-1.05,5.67-2.54,7.62,0,3.43-10.31,4.45-7.63,11.85-2.5,1.98,1.31,4.4,2.02,6.77,1.86,3.36-.11,6.8-.48,10.16-.2,2.58.26,5.09,1.28,7.62,1.77,2.84.42,5.68,1.22,8.47,1.91,1.95,1.07,3.81,2.58,5.93,3.34,2.73,1.02,6.05,1.43,8.47-.53,4.92-3.65,10.21-9.1,16.93-7.1,2.5,1.06,4.97,2.46,7.62,3.12"/><path class="b" d="M10.91,41.84c3.49-.25,6.79-1.25,10.16-1.67,5.07-.25,10.2-.04,15.24.55,2.78.24,5.77.5,8.47-.39,1.46-.57,2.86-1.65,4.23-2.39.73-.37,1.69-.95,2.54-.68,1.2.7,2.25,2,3.39,2.8.72.54,1.75,1.21,2.54,1.63,1.05.73,2.24,1.7,3.39,2.29,1.28.77,3.01.89,4.23,1.73,2.51,1.47,5.44,3.6,8.47,2.44,2.27-.93,4.01-2.95,5.93-4.41,1.79-1.39,4.05-2.25,5.93-3.51,1.94-1.21,3.94-2.57,5.93-3.69,1.78-1.02,4.38-2.17,5.93-.19,1.26-.77,1.65-2.96,2.54-4.11,1.72-2.39,4.23-1.2,5.93.52,1.01.81,2.28,1.67,3.39,2.34,2.48,1.69,5.55,1.98,8.47,1.75,3.37.07,6.8-.37,10.16-.13,1.98.18,4,.76,5.93,1.21,1.96.37,4.02.76,5.93,1.36,1.35.42,2.9.71,4.23,1.19.41.29,1.27.85,1.69,1.12,3.64,2.33,8.13,3.76,11.85.79,4.46-3.1,9.38-7.6,15.24-6.32,2.79.96,5.57,2.24,8.47,2.89"/><path class="b" d="M10.91,40.44c3.98-.37,7.99-1.01,11.85-2.05,2.5-.3,5.11-.38,7.62-.3,3.11.13,6.23.78,9.31,1.11,2.23.22,4.67.43,6.77-.49,1.9-.78,3.83-2.14,5.93-2.23,4.14,2.75,7.6,6.99,12.7,7.97,2.31,1.2,4.91,2.83,7.62,2.19,2.3-.62,4.07-2.52,5.93-3.9,1.47-1.2,3.43-1.78,5.08-2.65,2.59-1.4,5.13-3.09,7.62-4.67,1.5-.86,3.25-2.28,5.08-1.82.41.28,1.28.83,1.69,1.1,1.03-2.08,2.28-5.37,5.08-5.21,3.64,2.35,7.26,5.61,11.85,5.6,2.23,0,4.55.16,6.77.17,2.23-.04,4.55-.31,6.77-.23,3.13.16,6.24,1.01,9.31,1.57,2.21.68,4.51,1.39,6.77,1.86,3.45,2.11,7.77,4.92,11.85,2.84,5.09-2.66,9.87-7.81,16.09-6.84,2.81.73,5.62,1.77,8.47,2.36"/><path class="b" d="M10.91,38.69c3.38-.31,6.82-.72,10.16-1.36,2.77-.63,5.61-1.3,8.47-1.29,4.28-.14,8.49,1.07,12.7,1.65,1.06.14,2.32.23,3.39.11,2-.32,3.97-1.22,5.93-1.73,2.16-.71,2.64-.2,4.23,1.19,3.33,3.03,12.43,9.08,16.93,7.49,2.53-.82,4.44-2.96,6.77-4.14,1.01-.52,2.35-.77,3.39-1.2,1.09-.45,2.35-1.1,3.39-1.67,2-1.11,4.04-2.4,5.93-3.69,1.75-1.15,4.27-3.24,5.93-.84,1.83-1.33,2.45-4.76,5.08-4.92,2.82,1.37,5.47,3.34,8.47,4.37,1.87.64,3.97.72,5.93.83,1.65.12,3.42.4,5.08.36,2.23-.02,4.54-.32,6.77-.35,3.12-.03,6.27.63,9.31,1.23,2.46.89,5.13,1.38,7.62,2.14,3.12,2.14,7.22,4.32,11.01,2.69,2.98-1.3,5.56-3.5,8.47-4.93,2.09-.93,4.46-1.88,6.77-1.8,2.84.35,5.65,1.3,8.47,1.76"/><path class="b" d="M10.91,36.67c3.65-.38,7.38-.7,11.01-1.26,1.96-.28,3.97-.87,5.93-1.13,4.25-.72,8.56.13,12.7,1.1,1.91.43,3.95.96,5.93.88,1.97-.15,4-.66,5.93-1.03,1.52-.32,3.19-.66,4.23.8,3.94,3.55,10.53,8.58,16.09,6.66,2.09-.76,3.91-2.32,5.93-3.25,1-.49,2.31-.68,3.39-.89,1.74-.46,3.49-1.32,5.08-2.15,2.03-1.07,4.07-2.4,5.93-3.73,2.25-1.53,3.64-2.96,5.93-.43.91-1.61,2.19-3.39,3.39-4.79l.85-.32c3.2.91,6.1,2.96,9.31,3.89,1.89.56,3.98.69,5.93.94,1.64.27,3.41.53,5.08.53,2.8.04,5.66-.41,8.47-.42,2.81.08,5.76.37,8.47,1.15,2.19.66,4.52,1.24,6.77,1.65,3.14,2.13,7.12,4.41,11.01,3.05,2.71-.98,5.09-2.84,7.62-4.19,1.81-1.04,3.96-1.58,5.93-2.22,3.08-.58,6.25.5,9.31.84"/><path class="b" d="M10.91,34.47c4.2-.55,8.5-.66,12.7-1.19,3.64-.5,7.3-1.65,11.01-1.19,4.04.32,7.87,1.99,11.85,2.55,2.23.19,4.56-.08,6.77-.36,1.1-.09,2.32.44,3.39.63,2.04.3,3.37,2.3,5.08,3.28,2.92,1.98,6.59,3.62,10.16,2.62,2.37-.64,4.45-2.25,6.77-3.01,1.61-.52,3.49-.35,5.08-.96,2.36-.8,4.67-2.02,6.77-3.34,1.39-.88,2.88-1.98,4.23-2.91,1.48-1.08,2.98-1.44,4.23.25l.85-.18c1.14-1.38,1.77-3.76,3.39-4.66,1.13-.14,2.34.46,3.39.79,1.97.64,3.96,1.57,5.93,2.22,3.29.94,6.78,1.43,10.16,1.92,3.37.34,6.8-.09,10.16-.22,3.09-.03,6.32.17,9.31.98,1.92.52,3.97.99,5.93,1.31,3.23,2.01,7.04,4.53,11.01,3.33,3.04-.96,5.61-3.11,8.47-4.46,2.11-.97,4.5-1.61,6.77-2.02,2.23-.16,4.56.14,6.77.36"/><path class="b" d="M10.91,32.13c4.47-.71,9.05-.5,13.55-.86,3.65-.34,7.31-1.47,11.01-1.18,4.09.27,7.87,2.15,11.85,2.92,1.92.35,3.98.37,5.93.36,2.46.93,5.15,1.49,7.62,2.4,4.02,2.28,7.01,4.24,11.85,2.6,2.23-.76,4.4-2.1,6.77-2.4,4.66.18,8.94-2.06,12.7-4.6,2.5-1.55,5.28-4.74,7.62-1.12.58-.6,1.42-2.24,1.69-3.04,1.65-3.59,3.68-2.36,6.77-1.67,1.96.54,3.96,1.37,5.93,1.91,2.48.64,5.1,1.16,7.62,1.63,4.47.78,9.04.38,13.55.31,2.51.07,5.12.24,7.62.51,1.64.41,3.42.81,5.08,1.09,1.26.05,2.31,1.25,3.39,1.79,1.82.99,3.82,2.12,5.93,2.3,4.19.25,7.4-3.11,11.01-4.7,1.56-.73,3.38-1.24,5.08-1.49,2.44-.75,5.1-.71,7.62-.57"/><path class="b" d="M10.91,29.71c4.46-.81,9.05-.35,13.55-.4,1.68.02,3.44-.41,5.08-.73,2.21-.32,4.54-.48,6.77-.48,4.13.26,7.89,2.27,11.85,3.22,1.34.32,2.86.59,4.23.72.75.31,1.78.76,2.54,1.04,4.11,1.31,8.45,2.87,12.7,3.55,2.96.43,5.71-1.04,8.47-1.84,2.19-.67,4.58.18,6.77-.4,2.31-.66,4.69-1.47,6.77-2.67,1.7-.93,3.45-2.11,5.08-3.16,1.59-1.11,3.57-1.74,5.08-.12l.85-.13c.95-2.11,2.23-5.33,5.08-4.9,1.67.12,3.46.4,5.08.85,4.15,1.27,8.4,2.44,12.7,3.05,8.67,1.48,17.68-.13,26.25,1.99,2.33,1.65,4.78,3.58,7.62,4.22,5.19.95,8.85-4.09,13.55-5.31,3.31-.81,6.74-1.59,10.16-1.62"/><path class="b" d="M10.91,27.34c4.75-.97,9.61-.2,14.39,0,1.69-.03,3.41-.72,5.08-.91,2.21-.3,4.55-.26,6.77-.29,3.54.23,6.83,1.81,10.16,2.9,1.62.58,3.47.88,5.08,1.47,2.91,1.46,6.14,2.37,9.31,3.06,2.47.53,5.11.84,7.62.44,1.95-.31,3.95-.98,5.93-1.15,1.66-.17,3.44.14,5.08.37,1.4.08,2.94-.3,4.23-.81,2.94-1,5.85-2.31,8.47-4,1.77-1.01,3.77-2.55,5.93-2.02.35.26,1.26.47,1.69.4,1.25-1.57,2.19-3.91,4.23-4.62,2.77-.59,5.75-.07,8.47.63,4.14,1.24,8.43,2.04,12.7,2.66,4.46.75,9.03,1.14,13.55,1.31,3.37.05,6.81-.02,10.16.43,2.68,1.83,5.14,4.45,8.47,5.06,4.26.73,7.43-3.02,11.01-4.64,2.09-1.01,4.49-1.43,6.77-1.71,1.65-.26,3.4-.77,5.08-.87"/><path class="b" d="M10.91,25.14c4.76-1.04,9.63-.27,14.39.24,1.69-.02,3.38-.96,5.08-1.1,3.34-.36,6.86-.33,10.16.29,3.72.96,7.28,2.63,11.01,3.61,4.42,2.21,9.47,3.21,14.39,3.19,3.09-.05,6.22-.69,9.31-.45,2.52.15,5.11,1.09,7.62.38,4.19-1.17,8.04-3.03,11.85-5.1,1-.5,2.27-.98,3.39-1.12,1.06-.02,2.36-.12,3.39-.4,1.05-1.55,2.41-3.28,4.23-3.93,3.91-1.09,8.03-.08,11.85.88,1.05.25,2.31.49,3.39.63,1.05.35,2.29.78,3.39.97,1.64.34,3.46.03,5.08.47,3.61.71,7.32,1.45,11.01,1.58,2.22.06,4.55,0,6.77.11,1.09.1,2.47-.06,3.39.65,2.51,2.06,5.13,4.57,8.47,5.08,4.34.37,7.26-3.74,11.01-5.22,3.48-1.44,7.4-1.31,11.01-2.28"/><path class="b" d="M10.91,23.13c2.48-.46,5.1-.71,7.62-.53,2.24.09,4.54.7,6.77.75,1.68-.28,3.37-1.09,5.08-1.28,2.79-.43,5.68-.05,8.47.19,3.53.28,6.82,1.89,10.16,2.92,1.99.54,3.92,1.6,5.93,2.11,4.68,1.22,9.59,1.3,14.39,1.32,2.23.02,4.56.18,6.77.48,1.93.24,3.98.69,5.93.39,3.2-.54,6.32-1.87,9.31-3.1,3.22-1.39,6.6-3.05,10.16-3.23,1.43-1.03,2.61-2.69,4.23-3.47,3.95-1.92,8.57-1.04,12.7-.21,3.28,1.26,6.5,3.29,10.16,2.98,1.37-.05,2.88-.26,4.23-.42,1.93.48,3.97,1.01,5.93,1.33,3.34.48,6.8.28,10.16.51,1.37-.11,2.39,1.33,3.39,2.07,2.19,1.8,4.65,3.95,7.62,4.07,4.06-.17,6.62-4.08,10.16-5.59,3.44-1.59,7.43-1.07,11.01-2.14"/><path class="b" d="M10.91,21.25c2.49-.39,5.1-.7,7.62-.55,1.94.11,3.97.5,5.93.37,2.3.07,4.47-1.27,6.77-1.35,2.23-.2,4.57.08,6.77.4,2.26.28,4.62.64,6.77,1.42,1.94.64,3.98,1.32,5.93,1.93,2.09,1.02,4.48,1.53,6.77,1.82,4.2.55,8.48.71,12.7,1.06,3.65.27,7.34.83,11.01.88,4.41-.15,8.56-2.07,12.7-3.4,2.74-1.03,5.53-2.2,8.47-2.45,3.03-2.99,6.69-4.75,11.01-4.52,3.65,0,7.02,1.61,10.16,3.3,2.06,1.03,4.47,1.51,6.77,1.29,1.95-.17,3.98-.59,5.93-.75,1.08.13,2.31.59,3.39.77,3.33.65,6.81.44,10.16.84,4.69,3.96,9.22,9.77,15.24,4.23,2.04-1.7,4.15-3.67,6.77-4.38,3.03-.74,6.28-.49,9.31-1.18"/><path class="b" d="M10.91,19.39c5.04-.67,10.18-.61,15.24-.77,5.76-2.25,11.13-.73,16.93.34,2.25.57,4.55,1.32,6.77,1.98,1.61.64,3.36,1.3,5.08,1.54,8.99,1.04,18.04,1.9,27.09,2.07,4.34.05,8.6-1.36,12.7-2.65,2.46-.8,4.99-1.98,7.62-1.98,1.61-1.12,3.21-2.55,5.08-3.25,3.45-1.36,7.45-1.54,11.01-.5,5.02,1.68,7.61,5.09,13.55,4.14,2.51-.37,5.08-.88,7.62-1.01,1.05.24,2.32.47,3.39.6,1.35.18,2.87.31,4.23.41.83.03,1.91.04,2.54.66,3.04,2.54,5.97,6.37,10.16,6.75,4.63-.34,6.84-5.59,11.01-7.07,1.85-.71,3.98-.62,5.93-.7,1.37-.03,2.88-.26,4.23-.45"/><path class="b" d="M10.91,17.26c4.78-.39,9.59-1.1,14.39-.82,6.07-1.73,9.2-1.35,15.24.09,2.82.56,5.71,1.15,8.47,1.99,1.65.49,3.35,1.29,5.08,1.53,5.61.64,11.3.98,16.93,1.38,4.78.19,9.61.17,14.39.41,4.35-.11,8.59-1.43,12.7-2.74,1.95-.67,4.26-.67,5.93-2.02,4.23-2.58,9.54-3.66,14.39-2.49,2.75.63,5.08,2.46,7.62,3.6,4.32,2.08,9.07.3,13.55-.13.75-.1,1.79-.25,2.54-.35.76.02,1.79.24,2.54.35,1.05.16,2.33.31,3.39.42.95.34,1.81,1.41,2.54,2.06,1.03.98,2.3,2.15,3.39,3.07,7.47,6.59,9.55.44,15.24-3.99,3.46-2.57,7.97-.66,11.85-1.74"/><path class="b" d="M10.91,15.14c4.79-.32,9.58-1.06,14.39-.93,2.46-.65,5.07-1.16,7.62-.95,3.44.22,6.81,1.26,10.16,2,1.64.39,3.45.56,5.08,1.01,1.39.3,2.84.98,4.23,1.3,3.02.74,6.23.6,9.31.78,5.06.28,10.17.47,15.24.45,2.23.01,4.55.06,6.77.26,2.22.27,4.55.41,6.77.06,4.01-.6,7.95-1.84,11.85-2.88,5.95-2.86,13.15-5.11,19.47-2.06,3.8,2.07,7.32,4.16,11.85,3.5,2.23-.28,4.55-.67,6.77-.97,2.21-.39,4.56-.83,6.77-.27,1.63.86,2.83,2.67,4.23,3.84,2.59,2.21,5.54,5.75,9.31,4.85,3.93-1.52,5.72-6.03,9.31-8.08,3.4-1.96,7.4.33,11.01-.76"/><path class="b" d="M10.91,13.07c4.51-.13,9.03-.9,13.55-.9,3.03-.67,6.21-1.13,9.31-.67,3.42.44,6.79,1.48,10.16,2.2,1.63.39,3.43.64,5.08.91,1.33.45,2.84.9,4.23,1.14,3.62.57,7.36.27,11.01.35,5.91.07,11.87-.01,17.78.16,2.52.06,5.09.65,7.62.59,6.4-.33,12.59-2.38,18.63-4.38,14.61-4.41,15.21,4.21,26.25,3.58,3.96-.22,7.9-1.16,11.85-1.36,2,1.02,3.43,3.12,5.08,4.59,2.86,2.69,7.18,6.84,11.01,3.36,2.76-2.34,4.5-5.92,7.62-7.85,3.46-2.11,7.35.87,11.01-.17"/><path class="b" d="M10.91,11.23c3.93-.3,7.92-.65,11.85-.89,3.06-.46,6.21-1.02,9.31-.68,5.14.57,10.15,2.16,15.24,3.02,4.16.99,8.41,1.64,12.7,1.35,7.89-.23,15.82-.59,23.71-.4,2.8.13,5.65.77,8.47.57,5.44-.43,10.85-1.71,16.09-3.23,14.07-4.1,14.35,2.31,25.4,3.21,3.96.2,7.93-.44,11.85-.84,2.57,2.06,5.1,4.37,7.62,6.49,3.6,3.09,6.81,4.07,10.16.02,2.18-2.48,3.9-5.69,6.77-7.46,3.85-2.26,7.06,1.26,11.01.43"/><path class="b" d="M10.91,9.72c3.05-.55,6.23-.69,9.31-.98,3.08-.27,6.22-.82,9.31-.67,3.13.13,6.26.81,9.31,1.45,2.79.56,5.68,1,8.47,1.58,4.71,1.12,9.59,1.3,14.39.87,7.32-.44,14.68-.98,22.01-1.07,2.82-.07,5.64.91,8.47.75,3.11-.05,6.23-.65,9.31-.9,3.14-.33,6.25-1.24,9.31-1.97,7.98-1.92,10.58.05,17.78,2.32,2.46.66,5.08,1.07,7.62,1.18,2.51.18,5.12.03,7.62-.24,1.27.39,2.35,1.62,3.39,2.4,1.61,1.35,3.36,2.82,5.08,4.03,2.46,1.64,5.65,3.84,8.47,1.67,4.29-3.15,5.94-10.26,11.85-10.92,2.96-.22,5.5,2.12,8.47,1.74"/></svg>