<?xml version="1.0" encoding="UTF-8"?><svg id="a" xmlns="http://www.w3.org/2000/svg" width="1920" height="2400" viewBox="0 0 192 240"><defs><style>.b{fill:none;stroke:#fff;stroke-miterlimit:10;stroke-width:.3px;}.c{stroke-width:0px;}</style></defs><rect class="c" x="0" width="192" height="240"/><path class="b" d="M10.11,230.86c7.87,3.28,13.81-4.66,19.66-8.61,5.87-4.54,10.53-1.36,17.09-2.71,3.33-.6,6.06-3.09,9.4-3.58,6.95-.72,11.36,6.54,17.95,7.3,5.97,1.2,11.92,1.31,17.95,1.9,4.84.47,9.62,2.04,14.53,1.69,4.42-.18,8.59-1.91,12.82-3.02,2.76-.73,5.71-.96,8.55-.74,5.11.74,10.42.76,15.38,2.3,3.49,1.07,6.78,2.88,10.25,4,11.35,3.98,18.01,1.48,28.2-3.85"/><path class="b" d="M10.11,227.3c7.48,2.75,13.25-4.22,18.8-8.08,4.62-3.54,7.42-3.09,12.82-3.41,2.31-.23,4.71-.76,6.84-1.72,4.17-1.97,8.13-4.85,12.82-2.45,4.57,2.17,7.46,6.82,11.96,9.06,2.91,1.39,6.18,2.14,9.4,2.19,1.96.02,4.02-.26,5.98-.21,1.68,0,3.46.29,5.13.46,1.95.17,4.03.17,5.98.11,2.82-.08,5.72-.27,8.55-.27,1.96-.03,4.03.23,5.98-.02,3.42-.41,6.8-1.57,10.26-1.73,4.76-.54,9.11,1.85,13.67,2.73,3.06.66,6.28.71,9.4.86,1.96.12,4.02.4,5.98.48,3.74.09,7.46.87,11.11,1.59,6.34,1.36,11.69-2.27,17.09-4.97"/><path class="b" d="M10.11,221.72c7.34,2.02,13.52-3.51,19.66-6.61,1.59-.81,3.37-1.56,5.13-1.9,2.83-.48,5.81-.57,8.55-1.51,5.98-1.66,11.34-7.92,17.95-5.83,5.02,1.98,7.78,7.11,11.96,10.23,2.92,2.2,6.57,3.58,10.26,3.46,2.53-.13,5.16-.59,7.69-.26,3.42.8,6.91-.21,10.26-.94,2.49-.53,5.16-.85,7.69-.46,1.4.19,2.88.78,4.27,1,4.81.68,9.72-.83,14.53.11,3.09.51,5.71,2.51,8.55,3.71,3.53,1.71,7.45,1.36,11.11.26,2.82-.6,5.72-1.24,8.55-1.83,2.87-.55,5.81.12,8.55.97,7.03,2.37,11.08-1.34,17.09-4.2"/><path class="b" d="M10.11,215.24c6.86,1.31,13.32-2.12,19.66-4.23,1.64-.54,3.42-1.1,5.13-1.37,2.25-.31,4.63-.36,6.84-.92,4.69-1.1,8.42-4.44,12.82-6.22,2.34-1.15,5.05-2.3,7.69-1.57,3.57,1.03,6.09,4.12,8.55,6.73,2.16,2.37,4.71,4.62,7.69,5.88,3.22,1.52,6.83,1.04,10.26.76,1.68-.16,3.46.28,5.13.29,2.63-.14,5.17-1.2,7.69-1.88,7.79-2.18,8.77.99,15.38,1.86,4.86.53,10.12.22,14.53,2.66,2.51,1.45,4.9,3.4,7.69,4.3,3.15,1.11,6.47-.12,9.4-1.34,2.57-.84,5.13-1.99,7.69-2.87,1.61-.49,3.47-.66,5.13-.33,1.4.3,2.91.89,4.27,1.32,6.39,2.56,10.67-1.29,16.24-3.79"/><path class="b" d="M10.11,209.11c3.11.53,6.31.18,9.4-.31,3.99-.61,8-1.41,11.96-2.15,1.37-.25,2.88-.59,4.27-.63,2.25-.06,4.61.09,6.84-.33,2.73-.49,5.28-1.86,7.69-3.18,1.62-.93,3.49-1.68,5.13-2.57,2.09-1.13,4.4-2.33,6.84-2.24,6.76.49,10.11,8.67,17.09,10.63,3.01,1.09,6.28.7,9.4.43,2.25-.21,4.62.38,6.84-.21,4.71-1.21,9.65-3.55,14.53-1.74,1.93.77,3.93,1.71,5.98,2.12,3.98.82,8.09,1.3,11.96,2.58,4.59,1.36,8.01,5.43,12.82,6.23,2.61.43,5.26-.49,7.69-1.35,3.15-.83,6.18-2.38,9.4-2.9,2.33-.37,4.68.44,6.84,1.23,6.78,2.73,10.84.03,17.09-2.34"/><path class="b" d="M10.11,203.57c2.24.41,4.58.23,6.84.06,2.25-.11,4.59-.07,6.84.04,2.53.11,5.16.3,7.69.17,1.38-.06,2.89-.38,4.27-.4,2.83-.02,5.78.24,8.55-.52,3.59-1.01,6.85-3.06,10.26-4.54,2.41-1.22,4.94-2.63,7.69-2.85,6.1-.54,9.91,5.37,15.38,6.9,4.4,1.57,9.12.83,13.67.89,2.96.33,5.83-.87,8.55-1.87,5.3-2.02,8.53-2,13.67.41,4.8,1.56,9.87,2.44,14.53,4.45,3.84,1.5,7.11,4.35,11.11,5.47,3.06.96,6.33.34,9.4-.24,2.56-.29,5.17-.77,7.69-1.27,2.86-.58,5.8,0,8.55.85,5.63,1.61,11.56.64,17.09-.89"/><path class="b" d="M10.11,199.12c2.25.44,4.58.09,6.84-.02,1.97-.04,4.04.17,5.98.49,3.93.67,7.96,1.77,11.96,1.04,3.12-.22,6.38-.08,9.4-1.01,6.31-2,11.94-6.67,18.8-6.64,4.01-.06,7.5,2.14,11.11,3.53,3.85,1.16,7.97,1.41,11.96,1.63,2.53.04,5.17.45,7.69.14,4.64-.88,8.81-3.98,13.67-3.8,3.25.13,6.17,2.02,9.4,2.63,4.11.95,8.16,2.39,11.96,4.23,3.74,2.07,7.6,4.29,11.96,4.6,2.81.29,5.73-.1,8.55.16,3.37.62,6.86.37,10.26.56,1.69.08,3.46.56,5.13.79,1.65.21,3.46.3,5.13.37,3.97.24,8.05.47,11.96-.43"/><path class="b" d="M10.11,195.37c1.96.32,4.02.14,5.98-.1,1.96-.15,4.04-.05,5.98.21,3.12.4,6.25,1.29,9.4,1.43,3.12-.08,6.32-.55,9.4-1.02,7.36-1.24,12.72-7.2,20.51-6.59,4.09.07,8.01,1.47,11.96,2.34,2.52.39,5.16.3,7.69.57,2.84.27,5.73.81,8.55,1.24,2.88.59,5.85.05,8.55-1.04,11.23-4.45,10.14-1.62,20.51.24,3.85.73,7.65,2.08,11.11,3.91,3.3,2.22,7.15,3.22,11.11,3.26,2.54.1,5.22.07,7.69.73,3.1,1.08,6.08,2.35,9.4,2.72,2.25.27,4.58.76,6.84.94,1.95.09,4.03-.08,5.98.04,3.68.33,7.52.68,11.11-.45"/><path class="b" d="M10.11,191.13c3.69.45,7.41-.51,11.11-.31,3.98.04,7.98.89,11.96.6,4.01-.46,8.16-.72,11.96-2.17,6.62-2.49,9.4-5.83,17.09-4.71,3.42.35,6.84,1.23,10.26,1.6,2.82.17,5.73-.21,8.55.16,4.32.39,8.44,2.58,12.82,2.32,4.6-.45,8.99-2.68,13.67-2.36,2.35.06,4.56,1.19,6.84,1.59,2.8.49,5.75.51,8.55,1.09,2.01.43,4.11,1.08,5.98,1.96,1.94.95,3.83,2.32,5.98,2.76,3.91.94,8.08.31,11.96,1.41,2.47.64,4.57,2.33,6.84,3.42,2.66,1.33,5.64,2.12,8.55,2.72,2.48.65,5.16.32,7.69.33,4.05.25,8.28.16,11.96-1.75"/><path class="b" d="M10.11,187.11c4.81.68,9.7-.25,14.53-.38,3.69-.15,7.44-.32,11.11-.7,2.84-.19,5.77-.34,8.55-.99,3.58-.76,6.9-2.51,10.26-3.91,5.16-1.92,10.85-1.78,16.24-1.1,3.96.46,8.05-.25,11.96.72,4.26.94,8.36,3,12.82,2.75,4.26-.06,8.56-.85,12.82-.36,1.99.18,3.99.93,5.98,1.12,2.81.29,5.73.12,8.55.41,2.3.25,4.7.74,6.84,1.65,2.36,1.27,5,2.1,7.69,2.22,11.91.42,11.31,3.6,20.51,8.56,1.89.94,3.95,1.85,5.98,2.43,1.63.4,3.46.43,5.13.42,4.66.24,9-.74,12.82-3.53"/><path class="b" d="M10.11,183.57c7.37,1.67,14.89-.11,22.22-1.17,5.09-.76,10.36-.19,15.38-1.45,10.23-2.92,13.91-7.72,25.64-5.53,3.4.23,6.91.09,10.26.87,5.38,1.34,10.66,3.37,16.24,3.78,3.1.3,6.29.1,9.4.11,2.25.04,4.59.35,6.84.34,5.44-.03,10.99-.08,16.24,1.53,4.26.61,8.83-.12,12.82,1.89,3.24,1.47,5.89,4.05,8.55,6.35,2.88,2.5,5.99,4.92,9.4,6.65,2.61,1.3,5.69,1.34,8.55,1.17,3.81-.17,7.37-2.02,10.26-4.43"/><path class="b" d="M10.11,179.86c8.58,2.3,13.87,1.27,22.22-.68,4.49-.85,9.14-.48,13.67-.83,3.23-.26,6.49-1.15,9.4-2.56,4.46-2.33,9.3-5.19,14.53-4.04,2.78.71,5.67,1.22,8.55,1.16,4.96-.07,9.89.87,14.53,2.61,4.05,1.61,8.43,2.94,12.82,2.12,2.25-.34,4.56-.97,6.84-1.11,5.11-.29,10.27-.02,15.38-.12,2.25,0,4.6.09,6.84-.24,3.21-.46,6.63-.07,9.4,1.72,7.62,4.59,14.79,16.71,23.93,17.3,5.14.33,9.66-.66,13.67-4.08"/><path class="b" d="M10.11,175.86c5.61,1.34,11.34,2.81,17.09,1.4,2.54-.52,5.11-1.33,7.69-1.67,5.94-.9,12.11.26,17.95-1.37,5.12-1.51,9.7-5.67,15.38-4.43,2.02.36,3.97,1.38,5.98,1.78,4.52.77,9.16-.66,13.67.17,5.29.75,9.83,5.02,15.38,4.12,3.57-.46,6.71-2.64,10.26-3.16,4.23-.58,8.58-.06,12.82-.58,7.67-.72,12.03-4.96,18.8,1.44,4.04,3.89,7.74,8.24,11.96,11.93,3.33,2.94,7.34,5.66,11.96,5.54,4.72.15,8.76.24,12.82-2.68"/><path class="b" d="M10.11,171.73c4.56.58,9.02,2.38,13.67,2,4.36-.23,8.49-2.02,12.82-2.46,3.96-.54,7.99-.24,11.96-.22,3.21-.04,6.4-.77,9.4-1.89,3.9-1.46,8.2-1.43,11.96.4,2.12,1.02,4.44,1.94,6.84,1.8,2.85-.08,5.7-.84,8.55-.96,1.99-.08,4.11.23,5.98.92,1.98.77,3.95,1.9,5.98,2.56,6.09,2.17,10.09-1.87,15.38-3.81,2.46-.76,5.14-.91,7.69-1.13,3.47-.25,6.99-.83,10.26-2.05,5.54-2.31,9.06-2.94,13.67,1.65,6.71,6.91,13.3,17.27,23.93,17.63,4.79.13,9.23,1.44,13.67-1.21"/><path class="b" d="M10.11,167.37c4.56.21,9.07,1.67,13.67,1.22,5.74-.44,11.29-2.56,17.09-2.51,3.99-.1,7.97.92,11.96.83,2.54,0,5.16-.33,7.69-.16,2.31.13,4.68.7,6.84,1.51,1.97.71,3.94,1.8,5.98,2.31,4.55,1.01,9.11-1.03,13.67-.83,5.28,0,10.02,4.03,15.38,2.69,3.76-.84,6.8-3.49,10.25-5.05,4.03-1.78,8.51-2.24,12.82-2.96,5.15-.61,10.19-4.69,15.38-2.3,3.45,1.63,5.98,4.76,8.55,7.48,2.81,3.03,5.92,5.97,9.4,8.23,3.52,2.45,7.76,3.49,11.97,3.95,3.68.77,7.66,1.01,11.11-.74"/><path class="b" d="M10.11,163.5c3.4.04,6.85.47,10.26.31,5.72-.19,11.42-1.07,17.09-1.74,2.24-.23,4.61-.28,6.84.08,2.27.41,4.58,1.12,6.84,1.63,4.92,1.02,9.75,2.55,14.53,4.07,2.24.66,4.54,1.49,6.84,1.94,1.94.35,4.03.3,5.98.12,4.53-.55,9.14-1.08,13.67-.29,8.42,1.75,11.76.78,18.8-4.04,3.38-2.22,7.1-4.18,11.11-4.91,2.23-.39,4.6-.47,6.84-.83,3.92-.78,7.97-2.25,11.96-1.05,5.51,1.53,9.29,6.19,13.67,9.54,7.53,5.92,17.46,12.79,27.35,8.65"/><path class="b" d="M10.11,160.44c4.28.34,8.57-.34,12.82-.76,3.39-.32,6.86-.14,10.26-.19,5.86-.36,9.75-1.24,15.38,1.3,3.53,1.33,6.96,3.07,10.26,4.89,3.15,1.69,6.68,2.73,10.26,2.9,4.53.34,9.14.02,13.67-.08,3.4-.14,6.87.05,10.26-.31,2.24-.12,4.6-.04,6.84-.32,9.87-1.06,13.95-9.21,22.22-11.6,2.49-.58,5.16-.32,7.69-.42,2.53-.25,5.15-.49,7.69-.37,3.46.11,7.06.47,10.25,1.9,1.83.79,3.48,2.19,5.13,3.29,2.93,1.95,5.84,4.1,8.55,6.35,7.01,5.72,11.12,9.24,20.51,5.85"/><path class="b" d="M10.11,157.86c4.89.73,9.65-1.36,14.53-1.32,3.14-.05,6.28.77,9.4.98,3.11.11,6.31-.52,9.4,0,4.04.8,7.73,3.06,11.11,5.34,2.66,1.93,5.32,4.21,8.55,5.11,4.52,1.2,9.1-.93,13.67-.72,5.71,0,11.6.92,17.09-1.08,3.67-.8,7.56-.92,11.11-2.26,5.17-1.73,8.77-6.04,12.82-9.44,5.22-4.39,9.17-2.82,15.38-2.8,2.24.2,4.58.54,6.84.62,2.24.1,4.6-.05,6.84.18,2.15.14,4.1,1.36,5.98,2.3,4.19,1.91,7.83,4.89,11.11,8.08,6.52,6.27,8.7,8.02,17.95,5.7"/><path class="b" d="M10.11,154.73c4.89.73,9.64-1.5,14.53-1.13,3.49.14,6.81,1.6,10.26,1.96,3.11.21,6.34-.34,9.4.38,6.17,1.48,10.5,6.3,15.38,9.96,5.13,3.68,9.07,1.41,14.53.6,4.24-.45,8.57.22,12.82-.2,2.72-.12,5.18-1.49,7.69-2.37,2.78-.86,5.76-1.26,8.55-2.1,7.71-2.12,10.6-7.46,16.24-12.18,2.82-2.45,6.67-2.89,10.25-2.61,3.46-.18,6.84.92,10.26,1.24,2.81.3,5.74-.12,8.55.24,1.12.16,2.36.7,3.42,1.05,1.37.43,2.94.86,4.27,1.4,3.6,1.42,6.62,4.08,9.4,6.7,2.11,1.92,4.18,4.23,6.84,5.4,2.94,1.27,6.28,1,9.4.89"/><path class="b" d="M10.11,150.73c5.12,1.08,10.25-.71,15.38-.39,3.19.14,6.3,1.19,9.4,1.85,2.82.47,5.79.45,8.55,1.28,4.23,1.3,7.83,4.2,11.11,7.08,3.45,3.27,7.65,7.29,12.82,5.96,1.98-.42,3.99-1.2,5.98-1.59,1.93-.38,4.02-.54,5.98-.6,3.69-.14,7.57.14,11.11-1.11,1.4-.53,2.84-1.43,4.27-1.88,3.97-1.28,8.27-1.82,11.96-3.87,2.91-1.54,5.53-3.77,7.69-6.24,2.76-2.97,5.47-6.51,9.4-7.93,3-.93,6.31-.76,9.4-.45,2.25.4,4.56,1.07,6.84,1.27,1.95.19,4.03.03,5.98-.15,1.98-.26,4.06-.06,5.98.47,1.99.37,4.11.77,5.98,1.57,5.68,2.3,9.32,7.69,14.53,10.7,2.87,1.53,6.22,2.01,9.4,2.47"/><path class="b" d="M10.11,145.55c2.21.6,4.54,1.15,6.84,1.21,3.69.12,7.42-.48,11.11-.3,2.62.05,5.2.82,7.69,1.55,2.59.64,5.29,1.28,7.69,2.45,4.21,2.04,7.67,5.37,11.11,8.48,3.18,3.08,7.15,6.87,11.96,5.56,1.72-.41,3.46-1.19,5.13-1.77,1.92-.63,4-1.12,5.98-1.49,3.93-.78,8.07-.43,11.96-1.38,1.46-.35,2.89-1.24,4.27-1.77,2.19-.8,4.61-1.19,6.84-1.85,2.39-.68,4.76-1.79,6.84-3.16,2.48-1.65,4.88-3.68,6.84-5.94,2.74-2.97,5.44-6.54,9.4-7.88,3.03-.88,6.34-.41,9.4.05,2.78.66,5.66,1.5,8.55,1.2,2.87-.2,5.65-1.54,8.55-1.47,9.34.38,13.51,6.03,20.51,10.92,3.39,2.21,7.26,3.67,11.11,4.85"/><path class="b" d="M10.11,139.12c4.07,1.64,8.38,2.99,12.82,2.83,2.54-.01,5.16-.33,7.69-.11,2.06.14,4.04,1.09,5.98,1.72,2.98.99,5.95,2.31,8.55,4.09,3.73,2.56,6.96,5.89,10.26,8.98,3.18,3.22,7.19,6.49,11.96,4.66,4.23-1.6,8.43-3.52,12.82-4.68,3.34-.9,6.93-.73,10.26-1.68,1.4-.45,2.83-1.28,4.27-1.61,2.55-.64,5.26-1.04,7.69-2.08,3.84-1.63,7.15-4.39,10.25-7.12,2.24-2.17,4.33-4.72,6.84-6.6,3.95-3.09,7.49-2.13,11.96-1.23,2.81.59,5.62,1.84,8.55,1.66,6.04-.45,8.71-4.75,15.38-2.32,4.49,1.58,8.14,4.88,11.96,7.6,1.84,1.34,4.03,2.37,5.98,3.51,2.78,1.58,5.65,3.23,8.55,4.59"/><path class="b" d="M10.11,132.03c4.43,1.8,8.83,4.16,13.67,4.58,2.24.24,4.6.13,6.84.39,2.1.19,4.03,1.31,5.98,2,4.98,1.74,9.81,4.22,13.67,7.86,2.01,1.81,4.13,3.76,5.98,5.74,2.67,2.78,6.07,6.03,10.26,5.29,5.49-1.16,10.12-4.71,15.38-6.49,2.47-.81,5.17-1.02,7.69-1.59,1.43-.29,2.88-1.05,4.27-1.47,3.8-.85,7.81-1.43,11.11-3.67,2.97-1.95,5.84-4.23,8.55-6.53,2.73-2.47,5.57-5.52,9.4-6.03,2.34-.3,4.68.61,6.84,1.39,1.38.43,2.94.85,4.27,1.4,3.3,1.42,6.99,1.69,10.25.01,1.95-.87,3.88-2.17,5.98-2.65,5.49-.87,10.2,3.06,14.53,5.85,2.33,1.75,5.13,2.83,7.69,4.14,3.24,1.86,6.23,4.29,9.4,6.26"/><path class="b" d="M10.11,125.45c4.71,1.34,9,3.93,13.67,5.36,2.5.78,5.19,1.17,7.69,1.96,2.28.83,4.45,2.18,6.84,2.75,3.16.93,6.49,1.75,9.4,3.34,4.8,2.7,8.19,7.19,11.96,11.07,2.22,2.22,5.31,4.05,8.55,3.32,4.4-.89,8.06-3.7,11.96-5.74,3.18-1.7,6.84-2.25,10.26-3.26,1.38-.47,2.84-1.22,4.27-1.53,2.26-.52,4.67-.91,6.84-1.79,3.09-1.21,5.85-3.27,8.55-5.17,2.66-1.63,5.05-3.83,7.69-5.48,3.65-2.31,7.44-1.75,11.11.19,2.56,1.03,5.16,2.22,7.69,3.33,2.73,1.15,5.89.94,8.55-.32,1.66-.71,3.37-1.69,5.13-2.15,5.1-1.14,10.09,1.37,14.53,3.62,2.42,1.42,5.24,2.17,7.69,3.5,3.37,2.03,6.26,4.87,9.4,7.2"/><path class="b" d="M10.11,119.19c4.84.44,9.35,2.42,13.67,4.52,3.78,1.75,7.6,3.58,11.11,5.83,4.18,2.37,9.2,1.77,13.67,3.08,6.85,2.37,9.96,9.92,16.24,13.17,3.55,1.89,7.66.74,11.11-.81,2.5-1.07,5.09-2.16,7.69-2.96,3.49-.98,6.99-2.12,10.26-3.72,2.83-1.06,5.84-1.92,8.55-3.3,3.48-1.73,6.72-4.04,10.25-5.67,2.18-1.21,4.39-2.69,6.84-3.32,4.08-1.15,7.55.73,11.11,2.46,4.21,1.64,7.98,5.36,12.82,4.59,2.34-.3,4.57-1.43,6.84-1.99,3.34-.73,6.88-.89,10.25-.3,2.31.39,4.64,1.18,6.84,2,1.68.64,3.58,1.15,5.13,2.1,3.42,2.08,6.3,5.05,9.4,7.56"/><path class="b" d="M10.11,114.23c10.27-1.21,16.25,3.06,23.93,9.08,2.69,2.05,6.01,3.37,9.4,3.5,2.55.07,5.26-.29,7.69.69,6.33,2.82,10.5,9.23,17.09,11.64,2.44.99,5.15.67,7.69.36,3.76-.43,7.57-1.21,11.11-2.6,2.34-.89,4.62-2.16,6.84-3.31,2.81-1.38,5.75-2.69,8.55-4.09,2.22-1.09,4.53-2.28,6.84-3.19,1.93-.72,4.07-1.22,5.98-1.99,3.5-1.34,7.54-1.75,11.11-.42,1.98.81,4.03,1.78,5.98,2.66,1.7.92,3.42,2.11,5.13,3.02,3.1,1.82,6.87,2.03,10.25.96,5.01-1.13,10.22-2.56,15.38-1.82,3.22.61,6.47,1.69,9.4,3.15,3.37,1.86,6.34,4.5,9.4,6.82"/><path class="b" d="M10.11,111.36c2.82-.58,5.68-1.44,8.55-1.71,2.32-.19,4.76.3,6.84,1.34,6.18,3.13,10.29,9.68,17.09,11.68,3.63.92,7.69-.21,11.11,1.71,2.57,1.15,5.24,2.33,7.69,3.72,2.56,1.42,5.08,3.11,7.69,4.43,1.56.83,3.39,1.29,5.13,1.53,1.65.31,3.45.58,5.13.56,6.47-.07,11.47-4.83,17.09-7.38,3.53-1.76,7.26-3.33,11.11-4.23,2.79-.65,5.75-.75,8.55-1.42,3.35-.61,6.95-.82,10.26.1,2,.65,4.06,1.51,5.98,2.36,1.69.85,3.42,1.96,5.13,2.79,3.14,1.68,6.85,1.89,10.25.99,4.48-.76,9.11-2.17,13.67-1.88,2.65.21,5.25,1.2,7.69,2.19,4.49,1.64,8.72,4,12.82,6.44"/><path class="b" d="M10.11,109.77c2.91-.87,5.73-2.2,8.55-3.33,6.85-2.81,11.51,2.12,16.24,6.32,4.15,3.94,7.56,7.62,13.67,7.81,3.2.23,6.22,1.61,9.4,1.98,2.67.44,5.33,1.37,7.69,2.7,3.01,1.74,6.01,3.7,9.4,4.63,6.28,2.34,10.54-.91,15.38-4.47,4.56-3.03,9.88-5.17,15.38-5.49,2.53-.21,5.16.02,7.69-.21,3.1-.38,6.27-.86,9.4-.75,4.92-.02,9.36,2.62,13.67,4.67,2.89,1.4,6.25,1.85,9.4,1.18,2.23-.48,4.57-.87,6.84-1.12,3.38-.51,6.97-.66,10.26.44,2.61.83,5.11,2.23,7.69,3.13,3.64,1.23,7.48,2.04,11.11,3.3"/><path class="b" d="M10.11,108.1c3.29-1.07,6.31-2.86,9.4-4.36,6.61-3.27,11.51,1.09,16.24,5.33,2.89,2.75,5.66,5.99,9.4,7.58,1.9.72,4.02,1.13,5.98,1.63,1.09.26,2.33.75,3.42,1.02,1.36.29,2.9.41,4.27.58,5.07.39,9.23,3.52,13.67,5.65,12.93,5.75,14.56-8.27,28.2-8.57,5.13-.17,10.28,1.32,15.38.17,9.89-1.58,11.9.1,20.51,4.07,3.22,1.41,6.87,1.4,10.26.63,2.49-.56,5.14-.65,7.69-.64,2.91.01,5.88.64,8.55,1.79,2.8,1.17,5.53,2.84,8.55,3.43,3.36.66,6.87.55,10.26.94"/><path class="b" d="M10.11,105.62c4.24-1.08,7.93-3.57,11.96-5.14,7.36-2.91,13.25,2.09,17.95,7.21,2.49,2.6,5.32,5,8.55,6.63,2.17,1.1,4.45,2.31,6.84,2.85,2.51.49,5.18.53,7.69,1.06,2.63.52,5.21,1.56,7.69,2.56,6.4,3.03,10.94.92,16.24-3.02,2.52-1.9,5.31-3.8,8.55-4.1,4.37-.53,8.59,1.19,12.82,1.99,2.8.58,5.73.15,8.55-.12,3.09-.23,6.32-.61,9.4-.13,2.64.48,5.16,1.68,7.69,2.5,4.39,1.61,9.12,1.19,13.67.81,4.08-.09,8.19,1.01,11.96,2.49,10.05,4.51,10.72,6.28,22.22,3.36"/><path class="b" d="M10.11,102.36c3.84-.74,7.5-2.31,11.11-3.76,3.99-1.58,8.64-3.28,12.82-1.42,5.11,2.64,8.39,7.77,12.82,11.3,2.32,1.97,4.83,4,7.69,5.12,5.22,1.79,10.91,1.63,16.24,3.02,6.86,2.41,12.73-1.65,18.8-4.3,2.92-1.34,6.26-1.63,9.4-1.05,3.44.56,6.8,1.8,10.25,2.26,4.24.3,8.57.12,12.82.15,1.96-.08,4.04-.12,5.98.23,1.69.25,3.44.88,5.13,1.13,3.38.47,6.86.09,10.26.29,3.9.11,7.61,1.55,11.11,3.16,5.81,2.42,11.51,6.02,17.95,6.28,3.29,0,6.46-1.32,9.4-2.68"/><path class="b" d="M10.11,98.68c4.58-.79,9.22-1.73,13.67-3.11,6.94-2.43,10.01-3.88,16.24,1.19,3.8,3.13,7.24,6.81,11.11,9.86,3.49,2.6,7.72,4.23,11.96,5.08,3.36.67,6.86.78,10.26,1.22,3.18.18,6.31-.91,9.4-1.49,5.07-.81,10.24-1.55,15.38-1.6,3.4-.04,6.86.07,10.26.09,3.13-.09,6.31.12,9.4.63,3.95.64,8-.06,11.96.39,6.66,1.18,10.12-1.8,17.09,2.05,6.52,3.92,11.72,7.75,19.66,8.43,5.99.72,9.71,1.33,15.38-1.69"/><path class="b" d="M10.11,95.27c1.96-.29,4.02-.64,5.98-.9,2.25-.17,4.61-.13,6.84-.5,2.91-.42,5.69-1.64,8.55-2.26,7.34-.99,13.34,4.63,18.8,8.72,2.65,2.03,5.68,3.69,8.55,5.39,4.87,2.86,10.65,3.85,16.24,3.51,2.81-.33,5.7-.94,8.55-.62,10.76,2.06,12.16,1.18,22.22-2.54,2.43-.83,5.11-1.49,7.69-1.08,2.83.45,5.67,1.35,8.55,1.45,2.82.1,5.73-.27,8.55.01,3.1.45,6.32-.68,9.4.13,3.33.81,6.04,3.21,8.55,5.42,5.49,5.1,10.39,7.13,17.95,5.81,2.54-.46,5.17.05,7.69.34,2.57.29,5.28-.01,7.69-.94"/><path class="b" d="M10.11,92.72c2.21-.52,4.55-1.14,6.84-1.16,3.69.15,7.45.58,11.11-.13,1.66-.26,3.44-.62,5.13-.59,2.84.22,5.79.39,8.55,1.15,3.97,1.03,7.62,3.05,11.11,5.15,4.4,2.43,8.12,6.11,12.82,8.01,2.67,1.11,5.67,1.55,8.55,1.46,2.25-.14,4.58-.56,6.84-.48,3.49.1,6.78,1.74,10.26,2.02,7.9.71,12.95-7.74,20.51-8.36,2.86-.02,5.71.87,8.55,1.14,2.81.32,5.73.09,8.55.29,1.08.06,2.35.34,3.42.48,1.97.19,4.08.26,5.98.87,10.82,4.04,11.84,16.08,26.49,11.74,6.94-2.55,10.39,1.22,17.09-.02"/><path class="b" d="M10.11,89.99c4.65-2.47,7.88-2.22,12.82-1.09,3.36.75,6.85.97,10.26,1.39,2.81.58,5.73.04,8.55-.13,3.17-.22,6.49,0,9.4,1.37,6.92,2.93,11.14,10.59,18.8,12.07,3.94.74,8.01-.24,11.96.34,4.46.75,9.27,2.98,13.67.78,5.09-2.37,9-7.08,14.53-8.52,2.79-.5,5.73-.15,8.55-.27,3.39-.04,6.9-.46,10.26.21,14.83,3.56,17.87,17.1,28.2,16.45,4.37-.18,8.47-2.27,12.82-2.55,4,.1,7.94,1.55,11.96,1.14"/><path class="b" d="M10.11,87.48c2.66-2.04,6.03-3.24,9.4-2.75,5.54.64,10.73,3.24,16.24,3.94,5.4-.11,10.99-3.28,16.24-.66,7.95,4.06,10.74,11.84,21.37,11,2.84-.04,5.76.14,8.55.69,2.53.5,5.07,1.48,7.69,1.36,3.46.08,6.57-1.68,9.4-3.48,3.15-1.96,6.52-3.95,10.26-4.46,2.53-.25,5.18-.16,7.69-.64,4.23-.72,8.84-1.41,12.82.64,6,3.27,10.03,9.17,15.38,13.3,7.31,6.04,11.49,2.62,19.66,1.67,5.63-1.11,11.42-.07,17.09-.74"/><path class="b" d="M10.11,85.42c4.68-4.03,11.33-4.42,17.09-2.89,1.69.42,3.48.99,5.13,1.55,1.33.5,2.83.99,4.27.97,5.1-.11,10.47-2.45,15.38-.07,4.86,2.24,8.83,6.97,14.53,7.05,2.57.12,5.13-.76,7.69-.77,2.89.04,5.78.81,8.55,1.57,1.64.46,3.4,1.08,5.13,1.1,5.56.22,10-4,15.38-4.65,3.72-.6,7.4.97,11.11.67,7.86-1.03,11.83-1.53,17.95,4.48,7.18,7.76,11.88,15.77,23.93,11.63,4.42-1.52,9.12-.54,13.67-.69,4.08-.22,8.04-1.58,11.96-2.59"/><path class="b" d="M10.11,83.68c2.29-1.66,5.01-2.67,7.69-3.5,4.09-1.37,8.57-2.04,12.82-1,1.71.35,3.41,1.18,5.13,1.48,3.66.54,7.44-.03,11.11.47,6.32.58,11.35,6.59,17.95,4.48,2.05-.59,4.04-1.7,5.98-2.56,4.49-2.1,9.33.37,13.67,1.72,2.44.96,5.24.83,7.69-.02,9.06-3.62,10.07-3.1,18.8.66,2.73.9,5.73.66,8.55,1.09,7.63.99,12.35,7.8,17.09,13.13,2.89,3.25,6.61,5.63,11.11,4.47,2.58-.49,5.22-1.14,7.69-2.05,2.17-.7,4.58-1.03,6.84-.59,9.9,2.63,10.97.29,19.66-3.64"/><path class="b" d="M10.11,81.74c2.71-1.39,5.75-2.13,8.55-3.3,3.79-1.51,7.81-3.14,11.96-2.81,2.02.13,3.98,1.03,5.98,1.27,3.11.39,6.32.47,9.4,1.04,6.91,1.04,11.83,6.14,18.8,1.81,8.55-5.66,8.45-6.85,18.8-3.18,2.4,1.02,5.13,1.45,7.69.82,4.8-1.32,8.74-3.22,13.67-.87,2.03.89,3.98,2.21,5.98,3.16,1.62.71,3.46,1.24,5.13,1.81,7.46,2.23,12.81,8.19,17.95,13.71,7.68,8.16,10.25,5.02,19.66,2.71,2.44-.79,5.12-1.34,7.69-.9,2.25.42,4.54,1.21,6.84,1.36,5.02.21,9.25-3.2,13.67-5.08"/><path class="b" d="M10.11,78.97c3.11-1.07,6.44-1.74,9.4-3.21,4.03-1.8,8.26-4.15,12.82-3.69,5.08,1.11,10.37,1.31,15.38,2.75,6.32,1.89,10.96,4.35,17.09.18,2.31-1.46,4.44-3.4,6.84-4.72,4.65-2.31,9.84.21,14.53,1.15,5.19.96,10.2-2.45,15.38-1.16,4.07.9,7.3,3.84,11.11,5.37,6.99,2.94,12.51,8.31,17.95,13.43,3.71,3.39,8.28,7.25,13.67,5.91,2.27-.45,4.52-1.46,6.84-1.66,2.8-.45,5.7-1.06,8.55-.73,2.28.23,4.55,1.07,6.84,1.29,5.48.56,10.35-2.86,15.38-4.48"/><path class="b" d="M10.11,75.85c2.54-.63,5.23-1.01,7.69-1.93,3.68-1.31,7.25-3.21,11.11-3.97,2.25-.52,4.59-.14,6.84.19,3.12.3,6.32.48,9.4,1.08,4.55.7,8.99,2.86,13.67,2.38,5.58-.5,9.42-5.27,14.53-6.96,3.93-.89,8.04.14,11.96.62,5.95.6,11.03-2.63,17.09-.14,2.71,1.01,5.18,2.71,7.69,4.1,2.32,1.13,4.76,2.27,6.84,3.82,5.04,3.54,9.34,8.15,14.53,11.49,7.11,4.49,10.96,3.78,18.8,2.76,3.11-.14,6.32-.21,9.4.3,3.36.6,6.88,1.55,10.25.53,4-1.19,7.92-2.85,11.96-3.92"/><path class="b" d="M10.11,72.97c2.84-.38,5.77-.75,8.55-1.48,4.47-1.09,9.02-2.53,13.67-2.32,4.81.62,9.71-.08,14.53.37,4.53.44,9.11,2.18,13.67,1.07,6.94-1.62,10.18-6.79,17.95-6.08,3.11,0,6.31.43,9.4.03,3.93-.72,8.04-1.75,11.96-.41,3.38,1.02,6.37,3.11,9.4,4.87,1.62.95,3.55,1.62,5.13,2.65,4.5,2.86,8.3,6.8,12.82,9.63,2.82,1.87,6.16,2.84,9.4,3.69,3.62.93,7.37,1.72,11.11,1.9,3.41.05,6.88.17,10.26.71,3.95.62,8.1,1.43,11.96-.06,3.95-1.42,7.9-3.04,11.96-4.1"/><path class="b" d="M10.11,70.9c5.14.05,10.26-.96,15.38-1.2,1.96-.11,4.03-.15,5.98-.06,1.67.08,3.46.33,5.13.16,3.69-.33,7.39-1.23,11.11-1.26,2.85-.02,5.7.84,8.55.9,3.3.09,6.53-1.1,9.4-2.65,2.49-1.28,4.93-2.99,7.69-3.64,4.21-.73,8.58-.03,12.82-.42,3.69-.41,7.36-2.05,11.11-1.16,4.13.84,7.62,3.46,11.11,5.66,1.57,1.06,3.49,1.78,5.13,2.72,4.83,2.94,8.59,7.52,13.67,10.09,2.61,1.41,5.7,1.5,8.55,2.09,2.87.55,5.73,1.49,8.55,2.26,3.02.98,6.27.83,9.4.98,3.11.24,6.28.73,9.4.9,6.74.19,12.57-3.92,18.8-5.88"/><path class="b" d="M10.11,69.43c4.5.77,9.13.17,13.67.3,2.54,0,5.16.07,7.69.25,1.67.12,3.46.37,5.13.2,3.73-.32,7.39-1.46,11.11-1.86,2.84-.35,5.71.58,8.55.33,5.94-.65,10.15-5.48,15.38-7.83,3.81-1.46,8.02-.32,11.96-.2,3.15.38,6.31-.35,9.4-.86,5.79-.58,10.69,3.24,15.38,6.06,1.87,1.2,4.14,1.93,5.98,3.18,3.05,2.04,5.72,4.72,8.55,7.03,5.37,4.42,7.26,3.82,13.67,4.4,4.56.48,9.04,2.21,13.67,1.9,3.98-.31,8,.38,11.96.63,7.11.67,13.48-3.15,19.66-6.1"/><path class="b" d="M10.11,67.35c3.88,1.06,7.98,1.15,11.96,1.51,4.56.27,9.14.77,13.67,1.3,2.55.15,5.2-.15,7.69-.68,2.8-.65,5.65-1.57,8.55-1.64,8.22.61,13.23-7.53,20.51-9.79,5.12-1.18,10.28.91,15.38,1.27,1.66.12,3.46-.01,5.13-.02,4.31.29,8.13,2.7,11.96,4.47,2.46,1.21,5.1,2.23,7.69,3.11,2.1.8,4.16,2.02,5.98,3.32,4.05,2.71,7.67,7.09,12.82,7.43,2.82.1,5.73-.13,8.55,0,2.82.09,5.72.43,8.55.37,4.58-.41,9.13.59,13.67.99,6.93.58,13.73-1.89,19.66-5.32"/><path class="b" d="M10.11,64.82c3.07.83,6.24,1.62,9.4,2,3.67.48,7.44.6,11.11,1.06,8.54,1.4,10.2,2.74,18.8-.49,2.2-.81,4.7-.88,6.84-1.86,10.87-5.68,13.55-10.64,27.35-8.38,1.95.38,4.01.84,5.98,1.14,1.37.24,2.94.33,4.27.78,2.96,1.06,5.65,2.91,8.55,4.1,4.6,2.01,9.84,1.79,14.53,3.51,2.81,1.03,5.32,2.89,7.69,4.67,2.03,1.43,4.28,3.06,6.84,3.24,2.58.13,5.19-.57,7.69-1.07,4.47-.86,9.11-1.67,13.67-1.28,3.11.39,6.26,1.03,9.4,1.18,2.25.17,4.6-.13,6.84-.4,4.38-.33,8.88-.86,12.82-2.95"/><path class="b" d="M10.11,62.2c2.87.6,5.64,1.87,8.55,2.28,3.65.6,7.43.39,11.11.69,4.14.16,7.86,2.43,11.96,2.76,3.33.28,6.41-1.4,9.4-2.62,1.66-.68,3.54-1.17,5.13-2.01,3.58-1.82,7.16-3.91,11.11-4.8,1.94-.47,4.03-.73,5.98-1.13,2.53-.52,5.12-1.21,7.69-1.53,4-.48,8.16.21,11.96,1.47,3.53,1.63,6.44,4.63,10.26,5.69,2.48.76,5.15.34,7.69.29,6.17.08,8.6.03,13.67,4.11,4.16,3.21,6.74,4.94,11.96,2.53,4.63-2,9.3-4.89,14.53-4.6,2.83.22,5.7.82,8.55.88,3.71.29,7.42-.72,11.11-.72,3.68.32,7.48,1.29,11.11.11"/><path class="b" d="M10.11,60.1c2.05.4,4.03,1.34,5.98,2.01,1.9.58,4,.81,5.98.82,3.96.02,8.1-.74,11.96.47,1.98.64,3.97,1.61,5.98,2.16,3.18,1.03,6.5.11,9.4-1.31,1.92-.95,4.02-1.78,5.98-2.62,2.72-1.25,5.56-2.52,8.55-2.95,2.52-.4,5.16-.17,7.69-.36,1.74-.15,3.53-.77,5.13-1.43,5.07-2.35,10.72-4.74,16.24-2.31,2.12,1.06,4.01,2.75,5.98,4.04,2.22,1.52,4.97,2.52,7.69,2.15,3.37-.55,6.83-1.14,10.25-1.11,2.92.13,5.5,1.87,7.69,3.67,1.82,1.39,3.72,3.08,5.98,3.69,4.27.6,7.72-3.08,11.11-5.12,2.77-1.81,5.97-3.64,9.4-3.38,3.68.31,7.45.51,11.11-.13,3.37-.44,6.92-1.76,10.26-.45,3.03,1.1,6.09,2.71,9.4,2.59"/><path class="b" d="M10.11,58.16c2.04.51,4.02,1.51,5.98,2.22,4.7,1.64,9.7.49,14.53.47,4.7-.1,8.94,3.04,13.67,2.49,6.21-1.02,11.55-5.39,17.95-5.72,2.85-.21,5.72.52,8.55.67,5.97.08,10.05-5.34,15.38-7.22,6.48-2.68,9.37,1.54,14.53,4.37,2.31,1.29,5.09,1.68,7.69,1.22,6.11-.87,10.16-1.58,15.38,2.44,1.84,1.3,3.79,2.79,5.98,3.41,3.95.76,7.22-2.55,10.26-4.57,2.6-1.89,5.41-3.79,8.55-4.63,1.63-.42,3.46-.32,5.13-.45,1.97-.12,4.05-.41,5.98-.83,3.63-.67,7.39-2.26,11.11-1.38,3.78,1.17,7.11,3.79,11.11,4.31"/><path class="b" d="M10.11,55.75c2.86.89,5.61,2.35,8.55,3.01,4.77,1.23,9.7.19,14.53.13,2.27.03,4.59.59,6.84.88,5.09.89,9.95-1.26,14.53-3.2,5.88-2.42,9.66-.86,15.38.5,7.3,1.37,12.69-8.56,19.66-10.3,4.46-1.16,8.1,2.62,11.96,4.17,2.38,1.1,5.09,1.52,7.69,1.41,4.04-.18,8.25.06,11.96,1.8,2.47,1.08,4.95,2.57,7.69,2.79,3.51.2,6.52-2.21,9.4-3.9,3.66-2.33,7.66-4.37,11.96-5.15,3.44-.53,6.89-1.4,10.25-2.27,3.91-1.05,8.2-1.62,11.96.22,3.06,1.29,6.14,2.82,9.4,3.54"/><path class="b" d="M10.11,53.18c10.83,4.09,13.16,5.58,24.78,3.31,2.82-.28,5.73-.04,8.55-.2,3.85-.21,7.63-1.32,11.11-2.95,5.85-2.52,9.68-.83,15.38.54,7.17,1.3,13.05-8.09,19.66-10.25,5.01-1.72,10.39,2.2,15.38,3.02,3.36.77,6.93.62,10.25,1.56,3.67.89,7.27,2.69,11.11,2.62,5.09-.28,9.06-4.08,13.67-5.83,3.26-1.41,6.84-2.01,10.26-2.9,3.11-.82,6.24-1.9,9.4-2.51,3.67-.8,7.61-.7,11.11.76,3.62,1.32,7.38,2.45,11.11,3.42"/><path class="b" d="M10.11,50.72c2.45,1.19,5.19,1.84,7.69,2.89,4.27,1.89,9.12,2.96,13.67,1.43,1.67-.49,3.41-1.24,5.13-1.57,2.22-.47,4.58-.61,6.84-.75,2.85-.21,5.84-.44,8.55-1.42,3.27-1.42,6.6-3.16,10.26-3.22,2.56-.11,5.16.51,7.69.8,6.38.49,11.57-4.63,17.09-7.09,3.4-1.83,7.35-1.95,11.11-1.61,3.69.31,7.43.72,11.11,1.16,5.05.26,9.43,3.66,14.53,3.54,5.51-.39,9.48-5.03,14.53-6.79,3.24-1.35,6.85-1.45,10.26-2.08,2.87-.6,5.66-1.82,8.55-2.36,5.58-1.18,9.42.02,14.53,2.13,3.34,1.06,6.91,1.49,10.26,2.49"/><path class="b" d="M10.11,48.54c2.12,1.2,4.58,1.74,6.84,2.59,3.75,1.55,7.86,3.1,11.96,2.1,3.54-.78,6.62-3.08,10.26-3.56,4.5-.87,9.37-.15,13.67-1.97,1.96-.93,3.97-2.05,5.98-2.87,2.41-1.01,5.08-1.55,7.69-1.56,2.54-.01,5.21.23,7.69-.49,4.98-1.19,9.64-3.51,14.53-4.97,2.76-.83,5.72-1.15,8.55-1.67,3.65-.6,7.39-1.24,11.11-1.21,1.69.03,3.53.17,5.13.73,2.8.99,5.54,2.56,8.55,2.83,7.85.59,11.79-8.3,23.07-8.68,4.95-.07,9.58-2.4,14.53-2.45,1.98-.03,4.09.19,5.98.79,2.01.6,4,1.64,5.98,2.32,3.35,1.05,6.94,1.46,10.26,2.66"/><path class="b" d="M10.11,46.61c2.06,1.3,4.51,1.88,6.84,2.48,3.57,1.06,7.44,1.74,11.11.78,3.83-.88,7.13-3.49,11.11-3.87,3.09-.43,6.3-.18,9.4-.45,3.43-.17,6.4-2.11,9.4-3.55,3.18-1.59,6.71-2.55,10.26-2.72,5.54-.17,10.89-1.96,16.24-3.29,4.84-1.35,9.93-2.07,14.53-4.19,5.05-2.07,10.8-5.23,16.24-2.68,2.48,1.02,5,2.35,7.69,2.72,3.75.57,7.17-1.57,10.25-3.41,2.64-1.55,5.51-2.98,8.55-3.53,2.79-.52,5.73-.33,8.55-.66,4.22-.66,8.53-1.44,12.82-.97,2.96.26,5.76,1.56,8.55,2.51,3.36,1,6.93,1.5,10.26,2.62"/><path class="b" d="M10.11,44.35c2.26,1.52,5.02,1.98,7.69,2.1,5.26.37,10.55-.82,15.38-2.87,2.9-1.39,6.24-1.53,9.4-1.44,8.96.42,9.35-.95,17.09-3.85,4.1-1.54,8.56-1.57,12.82-2.35,5.92-1.52,11.99-2.52,17.95-3.86,3.06-.65,5.93-2.15,8.55-3.82,4.61-2.73,9.65-7.25,15.38-5.55,3.69,1.11,7.15,3.44,11.11,3.5,3.72.08,6.96-2.11,10.26-3.5,3.46-1.59,7.34-2.11,11.11-1.78,5.96.45,11.98-.55,17.95-.02,2.61.25,5.15,1.26,7.69,1.83,3.09.65,6.31.95,9.4,1.56"/><path class="b" d="M10.11,41.41c3.88,2.51,8.62,1.21,12.82.35,2.82-.62,5.74-1.18,8.55-1.84,1.67-.4,3.41-1.06,5.13-1.2,3.96-.33,8.03.13,11.96-.55,3.5-.54,6.76-2.23,10.26-2.78,3.93-.77,8.01-.63,11.96-1.21,2.86-.57,5.69-1.64,8.55-2.23,3.67-.86,7.46-1.44,11.11-2.38,8.14-2,15.43-11.58,23.93-10.21,9.2,2.16,10.82,4.79,20.51.5,3.5-1.41,7.35-2.08,11.11-1.58,3.67.48,7.41.85,11.11.87,2.82.09,5.73-.19,8.55-.07,2.58.09,5.15.88,7.69,1.2,2.81.37,5.72.47,8.55.62"/><path class="b" d="M10.11,37.91c2.93,1.64,6.33,1.06,9.4.2,2.77-.73,5.68-1.3,8.55-1.45,2.56-.05,5.16-.43,7.69-.81,2.24-.18,4.6-.17,6.84-.42,4.12-.38,8.01-1.97,11.96-3.01,5.08-1.07,10.27.51,15.38.02,3.51-.46,6.81-2.13,10.26-2.91,4.25-1.22,8.79-1.79,12.82-3.67,6.85-3,13.68-7.25,21.37-7.3,3.13.05,6.28.77,9.4,1,4.44.47,8.7-1.1,12.82-2.51,3.01-.96,6.27-1.31,9.4-.89,3.68.49,7.39,1.24,11.11,1.38,3.11.2,6.29-.25,9.4-.28,2.26-.04,4.59.43,6.84.64,2.81.27,5.73.31,8.55.19"/><path class="b" d="M10.11,34.32c4.42,2.05,9.12-.35,13.67-.46,2.54-.14,5.15.27,7.69.37,2.83-.08,5.73-.55,8.55-.86,2.93-.43,5.81-1.45,8.55-2.54,2.18-.86,4.47-1.85,6.84-2.04,4.86-.41,9.66,1.43,14.53,1.04,3.23-.33,6.26-1.87,9.4-2.64,3.96-1.16,8.1-1.92,11.96-3.39,6.87-3.55,14.7-4.16,22.22-5.3,5.1-.59,10.33-.15,15.38-1.18,4.66-.74,8.93-3.22,13.67-3.55,5.46-.38,10.78,1.66,16.24,1.56,3.4.05,6.85-.6,10.26-.49,4.25.26,8.55.87,12.82.61"/><path class="b" d="M10.11,31.09c3.76,1.79,7.97.9,11.96.88,3.99-.14,7.98,1.21,11.96.72,3.51-.39,7.03-1.2,10.26-2.65,3.32-1.38,6.6-3.37,10.26-3.65,5.69-.29,11.45,1.67,17.09.23,2.25-.62,4.56-1.45,6.84-1.99,3.09-.74,6.3-1.26,9.4-1.92,2.7-.42,5.12-1.91,7.69-2.7,4.13-1.28,8.54-1.21,12.82-1.37,3.98-.24,8-.73,11.96-1.16,4.31-.57,8.66-1.48,12.82-2.73,3.64-1.38,7.19-3.36,11.11-3.8,2.84-.39,5.75.22,8.55.65,2.52.34,5.15.47,7.69.37,3.39-.14,6.86-.66,10.26-.37,3.71.37,7.38,1.46,11.11,1.62"/><path class="b" d="M10.11,27.83c4.19,2.3,9.01,2.5,13.67,2.72,4.25.23,8.61,1.01,12.82.05,5.99-1.1,10.92-5.79,17.09-6.07,4.54.15,9.12,1.45,13.67.57,3.51-.54,6.84-2.01,10.26-2.9,3.62-.96,7.42-1.24,11.11-1.8,3.26-.51,6.16-2.43,9.4-3.05,7-1.62,14.28-.09,21.37-.95,2.89-.31,5.77-1.11,8.55-1.94,1.95-.59,4.12-.87,5.98-1.72,3.35-1.46,6.62-3.43,10.25-4.12,2.82-.63,5.74-.05,8.55.35,2.52.27,5.16.28,7.69.19,3.68-.11,7.45-.53,11.11.02,3.42.64,6.77,1.98,10.26,2.29"/></svg>