<?xml version="1.0" encoding="UTF-8"?><svg id="a" xmlns="http://www.w3.org/2000/svg" width="1920" height="2400" viewBox="0 0 192 240"><defs><style>.b{fill:none;stroke:#fff;stroke-miterlimit:10;stroke-width:.3px;}.c{stroke-width:0px;}</style></defs><rect class="c" width="192" height="240"/><path class="b" d="M13.11,223.87c2.42-.58,5.05-.58,7.42.2,1.83.64,3.81,1.37,5.77,1.3,4.28-.2,7.11-4.01,10.72-5.81,2.78-1.19,6.4-1.83,9.07-.09.91.62,1.87,1.78,2.47,2.7.41.34,1.25,1.02,1.65,1.37.93-1.04,1.64-2.83,2.47-3.94,2.58-3.75,6.71-1.01,9.9.29,1.57.84,3.21,1.87,4.95,2.32,2.18.4,4.42.96,6.6,1.35,4.39.77,8.8-.54,13.2-.45,2.2,0,4.43.62,6.6.91,6.85.83,13.72,1.81,20.62,2.05,1.32.06,2.8.11,4.12.14,1.8,1.06,3.79,2.07,5.77,2.74,3.74,1.17,7.71,1.73,11.55,2.48,1.88.24,3.88.56,5.77.56,4.22-.22,8.33-1.48,12.37-2.59,5.22-1.06,10.48-2.13,15.67-3.32,2.95-.73,6.07-.62,9.07-.89"/><path class="b" d="M13.11,223.18c2.91-.87,6.08-1.46,9.07-.63,1.32.37,2.74.99,4.12,1.1,6.05.37,9.04-6.78,15.67-5.95,1.53.16,3.04,1.02,4.12,2.09.39.21,1.23.55,1.65.67.36.27,1.19.54,1.65.5,3-6.46,5.14-5.6,10.72-2.63,5.12,2.49,10.72,4.66,16.5,4.57,3.58-.03,7.14-.92,10.72-.91,9.62.52,19.22,1.81,28.87,1.9.74.02,1.75,0,2.47.17,1.56.97,3.29,1.96,4.95,2.73,3.38,1.58,7.08,2.52,10.72,3.24,7.67,1.55,12.49-.02,19.8-1.79,3.82-1.06,7.73-2,11.55-3.06,4.25-1.38,8.74-1.89,13.2-1.73"/><path class="b" d="M13.11,222.26c4.84-1.47,8.32-2.38,13.2-.44,1.97.48,4.08-.14,5.77-1.15,3.95-2.55,7.9-5.31,12.37-1.97,1.04-.15,2.3-.13,3.3.22.56-.32,1.38-1.45,1.65-2.05,2.44-3.76,5.07-2.16,8.25-.47,6.79,3.61,14.51,6.16,22.27,5.05,2.44-.28,4.96-.68,7.42-.74,1.89-.08,3.88.13,5.77.15,7.97-.06,15.94.95,23.92.8,1.29-.17,2.28.45,3.3,1.14,1.02.62,2.25,1.33,3.3,1.88,3.38,1.72,7,3.25,10.72,4.05,5.5,1.03,11.15.22,16.5-1.23,2.76-.77,5.48-1.93,8.25-2.65,1.58-.45,3.35-.7,4.95-1.09,1.86-.61,3.85-1.22,5.77-1.59,2.96-.61,6.07-.53,9.07-.5"/><path class="b" d="M13.11,221.1c4.54-1.21,9.48-3.01,14.02-.93,1.62.41,3.43.12,4.95-.54,3.95-1.89,6.15-3.75,10.72-2.02,1.27-.48,2.77-.8,4.12-.6,2.33-2.74,3.42-5.13,7.42-3.17,3.23,1.51,6.48,3.17,9.9,4.2,4.5,1.5,9.26,2.46,14.02,1.98,3.01-.11,6.06-.64,9.07-.76,4.11.02,8.26-.23,12.37-.27,6.31.25,12.65.65,18.97.49,3.59,1.99,6.85,4.73,10.72,6.2,7.98,3.46,17.03,1.6,24.74-1.73,3.4-1.45,7.11-1.93,10.72-2.44,4.5-1.57,9.31-1.75,14.02-1.55"/><path class="b" d="M13.11,219.65c3.8-.8,7.63-2.04,11.55-1.99,1.88.39,3.82,1.25,5.77,1.08,2.86-.19,5.38-2.08,8.25-2.19.75-.03,1.76.19,2.47-.12,1.53-.66,3.26-1.31,4.95-1.28,3.34-3.75,4.36-4.26,9.07-2.21,2.99,1.34,6.22,2.23,9.07,3.84,3.1,1.4,6.61.91,9.9,1.36,4.39.06,8.82-.23,13.2-.51,3.01-.06,6.08-.09,9.07-.46,4.1-.44,8.27-.11,12.37.05,3.27.26,6.64.02,9.9.33,2.02.85,3.79,2.67,5.77,3.7,2.79,1.65,5.9,2.91,9.07,3.59,8,1.73,15.63-2.24,23.09-4.5,2.94-.78,6.05-.94,9.07-1.05,4.28-1.2,8.79-1.22,13.2-1.03"/><path class="b" d="M13.11,217.9c3.57-.47,7.13-1.37,10.72-1.67,1.37-.19,2.78.54,4.12.7,2.76.54,5.59.05,8.25-.73,3.14-.45,5.86-2.64,9.07-2.82,2.29-1.52,3.41-3.54,6.6-2.91,2.79.6,5.56,1.63,8.25,2.57,2.99,2.45,6.87,3.65,10.72,3.51,2.73-.12,5.56-.2,8.25-.7,4.11.09,8.26-.11,12.37-.11,2.46-.06,4.97-.55,7.42-.78,2.44-.24,4.98-.22,7.42-.12,2.45.09,4.98.29,7.42.42,1.33.07,2.82.06,4.12.38,1.12.14,2.42.44,3.3,1.21,2.53,1.73,5.33,3.23,8.25,4.21,2.62.9,5.46,1.5,8.25,1.32,5.96-.51,11.57-2.97,17.32-4.45,4.02-1.01,8.25-1.09,12.37-.95,3.79-.71,7.71-.67,11.55-.49"/><path class="b" d="M13.11,215.83c3.58-.05,7.16-.7,10.72-1,1.08-.15,2.24.5,3.3.64,1.31.25,2.8.31,4.12.17,2.23-.27,4.52-.86,6.6-1.69,2.37-.98,4.82-2.14,7.42-2.29,4.27-4.15,8.15-2.51,13.2-1.17,1.82,1.2,3.69,2.59,5.77,3.31,4.72,1.65,9.95,1.5,14.85.83,1.34-.23,2.81-.58,4.12-.91,3.26-.22,6.63.22,9.9.02,4.92-.58,9.86-1.54,14.85-1.12,4.13.29,8.32.64,12.37,1.49,1.47.3,2.76,1.51,4.12,2.1,2.06,1.07,4.35,1.94,6.6,2.51,4.07,1.21,8.38.51,12.37-.68,3.54-.95,7.12-1.98,10.72-2.68,5.14-1.05,10.46-.93,15.67-.56,3-.22,6.07-.26,9.07-.08"/><path class="b" d="M13.11,213.32c3.54.54,7.17.27,10.72.07,2.33.93,4.95,1.35,7.42.85,4.83-.85,9.09-3.84,14.02-4.18,4.08-3.17,7.65-2.81,12.37-1.59,1.18.19,2.26,1.2,3.3,1.73,1.26.73,2.74,1.4,4.12,1.84,6.7,1.97,13.94,1.76,20.62-.18,1.57-.56,3.32-.34,4.95-.27,1.89.14,3.9.05,5.77-.26,8.08-1.6,13.4-1.36,21.44.14,1.61.25,3.38.47,4.95.93,1.01.56,2.25,1.2,3.3,1.68,4.91,2.26,9.57,3.1,14.85,1.56,6.46-1.78,13.08-3.27,19.8-3.47,4.12-.12,8.28.28,12.37.64,1.88.06,3.89,0,5.77.12"/><path class="b" d="M13.11,210.52c2.92.87,6.03,1.23,9.07,1.27,1.11.04,2.23.83,3.3,1.08,1.57.46,3.35.55,4.95.21,5.03-1.14,9.58-4.33,14.85-4.42,3.21-1.87,6.12-3.06,9.9-2.35,1.33.24,2.84.4,4.12.82,1.83,1,3.78,2.05,5.77,2.68,4.25,1.27,8.78,1.73,13.2,1.74,4.19-.06,8.28-1.3,12.37-2.08,1.61-.06,3.35.08,4.95-.11,2.75-.26,5.51-.96,8.25-1.29,2.99-.39,6.09-.39,9.07.04,3.87.55,7.69,1.71,11.55,2.34,3.68,1.54,7.48,3.4,11.55,3.46,3.66-.14,7.17-1.55,10.72-2.31,3.5-.81,7.15-1.14,10.72-1.54,7.16-.82,14.3.79,21.45,1.01"/><path class="b" d="M13.11,208.14c1.09-.33,2.26.4,3.3.64,1.58.46,3.32.81,4.95,1.02,2.26,1.24,4.75,2.59,7.42,2.28,2.01-.2,3.94-1.14,5.77-1.9,3.44-1.37,6.96-2.89,10.72-2.98,1.16-.03,2.24-.99,3.3-1.39,2.03-.96,4.36-1.4,6.6-1.15,1.61.18,3.35.39,4.95.68,1.85.87,3.8,1.8,5.77,2.35,4.28,1.14,8.78,1.62,13.2,1.75,4.46.13,8.85-.98,13.2-1.78,2.14-.49,4.45-.46,6.6-.91,4.87-1,9.85-2.22,14.85-1.42,4.5.59,8.8,2.3,13.2,3.33,3.18,1.18,6.5,2.39,9.9,2.68,3.4.34,6.64-1.17,9.9-1.87,3.5-.83,7.17-1.07,10.72-1.58,7.17-1.03,14.3.76,21.45,1.18"/><path class="b" d="M13.11,207.44c1.32-.26,2.79-.53,4.12-.74,1.08.12,2.35.48,3.3,1.01,2.74,2.19,6.36,4.07,9.9,2.73,3.27-1.29,6.49-2.93,9.9-3.86,2.12-.65,4.42-.71,6.6-.99,3.55-2.07,6.6-3.04,10.72-2.39,1.04.11,2.26.23,3.3.33,2.15.76,4.35,1.73,6.6,2.18,5.13,1.03,10.43,1.61,15.67,1.46,3.6-.16,7.2-.9,10.72-1.58,2.72-.58,5.57-1,8.25-1.77,3.71-1.18,7.64-2.12,11.55-1.51,7.97.98,15.21,5.07,23.09,6.39,5.61.28,10.94-2.26,16.5-2.68,1.6-.14,3.35-.05,4.95.04,2.43-.32,4.97-.46,7.42-.35,4.4.25,8.79,1.13,13.2,1.37"/><path class="b" d="M13.11,206.65c1.61-.32,3.34-.7,4.95-1.03,1.2-.23,2.44.56,3.3,1.31,2.9,2.36,6.4,3.65,9.9,1.75,3.09-1.71,6.46-3,9.9-3.81,2.14-.47,4.42-.56,6.6-.76,4.96-2.85,6.75-3.09,12.37-2.52,1.69-.01,3.37.51,4.95,1.05,1.58.47,3.32.83,4.95,1.08,4.9.67,9.9,1.25,14.85,1.06,3.88-.21,7.75-1.04,11.55-1.85,2.53-.48,5.09-1.2,7.42-2.29,3.06-1.48,6.54-2.08,9.9-1.5,7.12,1.13,13.79,4.16,20.62,6.33,1.29.39,2.76.85,4.12.91,1.64.06,3.38-.33,4.95-.75,5.88-1.75,12.05-2.78,18.15-1.56.71.21,1.75.08,2.47.05,1.32-.05,2.81-.04,4.12.03,3.55.29,7.16.69,10.72.86"/><path class="b" d="M13.11,205.61c1.34-.21,2.8-.54,4.12-.82,1.6.49,3.36.89,4.95,1.42.72.5,1.67,1.12,2.47,1.47,4.19,2.04,7.71-1.98,11.55-3.01,1.87-.56,3.85-1.18,5.77-1.52,2.15-.38,4.43-.42,6.6-.63,1.96-.66,3.69-2.21,5.77-2.61,2.14-.43,4.43-.2,6.6-.1,2.24-.04,4.43.65,6.6,1.09,5.97.93,12.09,1.59,18.15,1.42,4.75-.29,9.4-1.57,14.02-2.63,1.72-.57,3.35-1.69,4.95-2.51,3.56-2,7.76-.96,11.55-.3,3.89.81,7.79,1.92,11.55,3.21,3.3,1.15,6.56,2.6,9.9,3.63,2.42.89,5.06.19,7.42-.53,2.4-.71,4.93-1.36,7.42-1.61,4.7-.57,9.45.11,14.02,1.22,2.16-.14,4.44-.08,6.6.06,1.88.06,3.89-.05,5.77.05"/><path class="b" d="M13.11,204.2c1.05-.06,2.26-.48,3.3-.25,2.15.62,4.4,1.21,6.6,1.63,2.1,1.15,4.41,1.45,6.6.36,1.65-.76,3.27-1.86,4.95-2.56,3.44-1.15,7.11-1.95,10.72-2.29,1.61-.14,3.34-.24,4.95-.4,1.57-.88,3.16-2.04,4.95-2.45,2.14-.45,4.43-.3,6.6-.23,2.48.02,4.98.48,7.42.82,3.54.41,7.17.61,10.72.89,6.78.74,13.3-1.17,19.8-2.82,1.96-.94,3.66-2.64,5.77-3.26,2.19-.6,4.47.3,6.6.74,2.14.48,4.43.56,6.6.82,1.95.19,3.91.88,5.77,1.42,2.16.65,4.44,1.27,6.6,1.94,3.32.96,6.53,2.55,9.9,3.32,2.52.26,5.01-.81,7.42-1.37,2.67-.67,5.5-1,8.25-1.07,4.21-.22,8.34.89,12.37,1.93,1.03,0,2.27-.11,3.3-.1,2.15-.38,4.41-.86,6.6-.62"/><path class="b" d="M13.11,202.43c.45-.03,1.21-.11,1.65-.15,1.31.45,2.78.87,4.12,1.2,1.59.39,3.32.75,4.95.98,1.01.36,2.25.47,3.3.26,3.21-.74,5.82-3.19,9.07-3.83,2.45-.43,4.96-1.01,7.42-1.35,2.71-.42,5.54-.49,8.25-.89,2.57-2.1,5.85-2.62,9.07-2.48,3.01.03,6.07.3,9.07.5,3.27.23,6.62.45,9.9.53,2.73.17,5.56.18,8.25-.35,2.49-.45,5-1.16,7.42-1.87,1.63-.54,3.6-.67,4.95-1.84,1.61-1.25,3.67-2.58,5.77-1.8,5.68,2.59,5.78,3.33,12.37,2.48,1.17-.21,2.25.17,3.3.65,1.02.38,2.25.81,3.3,1.12,2.94.84,6.1.91,9.07,1.56,2.8.56,5.5,1.81,8.25,2.54,1.33.21,2.83-.07,4.12-.36,4.57-1.05,9.31-1.94,14.02-1.56,2.22.07,4.42.96,6.6,1.15,1.32-.06,2.81-.05,4.12-.2,2.39-.62,4.97-.97,7.42-.52"/><path class="b" d="M13.11,200.38c.51-.1,1.2.05,1.65.26,1.03.35,2.25.72,3.3.99,2.92.6,6.12,1.69,9.07.76,2.79-.98,5.32-2.84,8.25-3.44,5.47-.77,10.97-1.76,16.5-2.09,1.5.07,2.7-1.37,4.12-1.72,3.72-1.13,7.72-.7,11.55-.57,3.28.17,6.62.11,9.9.09,2.72-.03,5.54.28,8.25-.11,3.65-.56,7.19-1.87,10.72-2.91,5.14-1.11,5.34-5.4,10.72-.35,4.64,4.49,6.76,3.59,12.37,1.77.46-.09,1.27.15,1.65.43,1.01.46,2.24.99,3.3,1.32,2.1.65,4.42.76,6.6.65,2.45-.13,5.01-.25,7.42.29,2.47.46,4.88,1.6,7.42,1.64,1.9.22,3.9-.24,5.77-.53,2.7-.48,5.5-.9,8.25-.83,3.82-.35,7.71-.38,11.55-.23,1.03.11,2.26-.25,3.3-.24,1.33-.04,2.83.17,4.12.48"/><path class="b" d="M13.11,198.13c3.47,1.05,7.06,2.34,10.72,2.32,2.34-.25,4.46-1.58,6.6-2.47,2.58-1.16,5.45-1.51,8.25-1.58,4.94-.37,9.88-1.32,14.85-1.42.8-.21,1.71-.87,2.47-1.18,1.54-.61,3.31-.92,4.95-1.07,2.72-.24,5.52-.04,8.25-.08,2.73-.03,5.52-.35,8.25-.5,3-.24,6.14.35,9.07-.46,3.61-.93,7.12-2.39,10.72-3.35,1.91-.79,3.71-2.4,5.77-.9,3.36,2.52,5.15,7.92,9.9,8.11,2.68-.08,4.96-1.87,7.42-2.71,8.59,4.32,11.66.44,19.8,1.04,2.46.26,4.93,1.07,7.42,1,4.16.21,8.27-.92,12.37-1.41,3.81-.49,7.72-.34,11.55-.11,1.03.14,2.26-.09,3.3,0,1.35.09,2.83.43,4.12.84"/><path class="b" d="M13.11,195.88c1.85.67,3.85,1.24,5.77,1.65,1.89.52,3.95.57,5.77-.22,2.15-.86,4.31-1.99,6.6-2.45,2.14-.46,4.42-.54,6.6-.48,1.04-.09,2.25-.38,3.3-.44,1.33-.14,2.8.03,4.12,0,2.44-.23,4.97-.6,7.42-.66,1.11.07,2.37-.05,3.3-.73,1.26-.59,2.76-.99,4.12-1.25,2.97-.6,6.07-.45,9.07-.6,2.74-.15,5.52-.66,8.25-.9,2.72-.26,5.54-.2,8.25-.55,2.19-.66,4.43-1.51,6.6-2.24,2.16-.72,4.44-1.42,6.6-2.13,3.76-.48,5.98,5.74,8.25,8.11,4.73,5.92,8.67,2.26,14.02-.2,6.5,3.15,12.42-.33,18.97-.67,2.18-.08,4.43.29,6.6.45,2.45.15,5-.03,7.42-.41,5.16-.88,10.44-1.34,15.67-.97,1.32.12,2.8.06,4.12.15,1.66.15,3.38.68,4.95,1.21"/><path class="b" d="M13.11,193.62c2.14.62,4.39,1.37,6.6,1.69,2.64.07,4.98-1.54,7.42-2.31,2.1-.69,4.41-.85,6.6-.82,1.33,0,2.8.13,4.12.13,1.31-.25,2.79-.35,4.12-.38,1.33-.04,2.81,0,4.12.21,2.17-.13,4.42-.44,6.6-.46,1.05-.08,2.34.28,3.3-.25,1.78-.9,3.82-1.47,5.77-1.86,2.42-.5,4.98-.48,7.42-.69,2.18-.21,4.43-.68,6.6-.98,2.45-.29,4.99-.56,7.42-.93,1.92-.29,3.98-.51,5.77-1.28,1.88-.66,3.86-1.38,5.77-1.93,4.8-2.35,6.83,1.69,9.07,5.19,5.59,9.37,9.45,8.32,18.15,3.49,6.93,1.99,13.69-1.99,20.62-1.97,2.73-.05,5.52.27,8.25.11,3.02-.17,6.07-.73,9.07-1.02,3.27-.32,6.62-.35,9.9-.2,3.11-.2,6.18.54,9.07,1.61"/><path class="b" d="M13.11,191.39c1.91.34,3.81,1.32,5.77,1.26,1.72-.13,3.39-.97,4.95-1.65,3.08-1.49,6.58-1.34,9.9-1.03,1.61.11,3.34.34,4.95.37,1.6-.15,3.34-.17,4.95-.14,3.56.36,7.16-.17,10.72.02.43.02,1.23.09,1.65.13.74-.34,1.72-.79,2.47-1.08,1.57-.59,3.29-1.16,4.95-1.45,3.56-.51,7.21-.73,10.72-1.57,5.86-.74,11.72-1.9,17.32-3.81,2.37-.88,5.31-1.69,7.42.19,4.67,4.44,6.91,13.27,14.85,12.45,2.28-.23,4.54-1.13,6.6-2.08.75-.39,1.76-.98,2.47-1.43.4-.04,1.25-.04,1.65-.01,5.03.02,9.9-1.6,14.85-2.27,4.35-.69,8.82-.31,13.2-.55,5.47-.54,10.97-1.41,16.5-1.14,3.39-.28,6.73.63,9.9,1.74"/><path class="b" d="M13.11,189.29c1.38.04,2.76.72,4.12.8,5.1-.13,6.49-3.86,13.2-2.72,4.09.56,8.24,1.07,12.37,1.24,3.83.15,7.72.01,11.55.21.74.04,1.73.14,2.47.13.76-.34,1.75-.86,2.47-1.26,1.51-.75,3.29-1.14,4.95-1.42,1.88-.35,3.89-.53,5.77-.88,2.17-.42,4.4-1.07,6.6-1.32,4.53-.37,8.85-2.03,13.2-3.24,12.27-4.36,10.51,11.86,23.09,12.68,2.51.16,5.11-.43,7.42-1.38,1.68-.62,3.23-1.92,4.95-2.4,7.12-.94,14.24-2.34,21.45-2.44,2.44-.15,4.98-.07,7.42-.28,4.1-.4,8.24-1.06,12.37-1.08,1.89.02,3.89-.13,5.77.05,2.24.21,4.46.99,6.6,1.63"/><path class="b" d="M13.11,187.27c1.63-.05,3.32.54,4.95.36,1.72-.2,3.39-1.07,4.95-1.77,2.83-1.48,6.07-1.14,9.07-.44,7.6,1.46,15.37,1.77,23.09,1.81.75,0,1.74-.02,2.47-.19.72-.38,1.71-.84,2.47-1.1,2.11-.71,4.42-1.04,6.6-1.45,3.06-.39,6.06-1.36,9.07-1.99,1.6-.29,3.37-.32,4.95-.73,2.48-.59,4.97-1.48,7.42-2.16,12.56-4.11,11.39,10.09,24.74,11.88,5.73,1,10.72-2.08,15.67-4.43,2.15-.34,4.42-.55,6.6-.68,7.14-.33,14.32-.51,21.45-1.06,4.91-.63,9.89-1.08,14.85-.98,2.51.08,5.03.81,7.42,1.52"/><path class="b" d="M13.11,185c1.89.15,3.88.35,5.77.32,5.39-.9,6.87-3.63,13.2-2.05,4.33.99,8.78,1.62,13.2,2.12,3,.05,6.07-.03,9.07-.05,1.33-.03,2.81-.04,4.12-.18,1.29-.48,2.78-.87,4.12-1.14,3.85-.78,7.81-1.38,11.55-2.62,2.11-.72,4.41-.88,6.6-1.19,1.92-.4,3.89-1.09,5.77-1.63,12.61-4.23,12.59,7.4,25.57,10.44,6.89,1.91,11.98-1.18,18.15-3.62,1.29-.44,2.75-1.02,4.12-1.1,2.45.04,4.98.28,7.42.3,5.77.05,11.57-.48,17.32-.96,6.55-.77,13.38-1.58,19.8.41"/><path class="b" d="M13.11,182.08c1.63-.13,3.34.2,4.95.38,1.33-.17,2.79-.4,4.12-.54,1.61-.21,3.34-.1,4.95-.12,1.58-.4,3.33-.52,4.95-.32,3.85.56,7.68,1.65,11.55,2.13,1.87.26,3.89,0,5.77.12,4.39,0,8.91.15,13.2-.92,4.77-.83,9.44-1.87,14.02-3.47,1.57-.52,3.33-.58,4.95-.81,1.35-.27,2.81-.75,4.12-1.15,5.27-1.74,8.64-1.5,13.2,1.8,4.08,2.94,8.26,6.04,13.2,7.36,7.27,2.23,12.25-.4,18.97-2.65,2.11-.66,4.39-1.18,6.6-1.35,1.03.15,2.27.32,3.3.43,6.32.64,12.67-.38,18.97-.78,6.27-.77,12.76-1.46,18.97.11"/><path class="b" d="M13.11,178.16c2.66-.98,5.63-.58,8.25.34,1.04-.1,2.25-.31,3.3-.33,3.42-.06,6.8,1.04,9.9,2.4,1.32.24,2.81.43,4.12.69,1.32.25,2.8.53,4.12.75,1.33-.03,2.8-.19,4.12-.09,5.2.46,10.5.48,15.67-.3,3.58-.66,7.24-1.27,10.72-2.33,2.7-.8,5.38-2.19,8.25-2.27,2.25-.22,4.42-1.23,6.6-1.74,5.09-1.65,9.84,1.05,14.02,3.73,5.41,3.39,11.58,6.53,18.15,5.99,3.37-.3,6.64-1.49,9.9-2.36,3.2-.93,6.58-1.38,9.9-1.59,5.16,1.1,10.48.66,15.67.04,3.57-.19,7.17-.59,10.72-.99,4.1-.32,8.32-.26,12.37.53"/><path class="b" d="M13.11,173.34c4.09-2.76,9.17-.25,13.2,1.44,1.85.71,3.94,1.09,5.77,1.88,1.94.74,3.92,1.68,5.77,2.61.44.2,1.22.62,1.65.82.75.2,1.72.02,2.47-.02,3.88-.4,7.69.73,11.55.87,6.1.09,12.22-.78,18.15-2.22,3.09-.69,6.07-1.98,9.07-2.96,1.31-.34,2.84-.27,4.12-.75,4.74-1.74,8.33-2.74,13.2-.64,7.76,3.47,14.88,9.3,23.92,8.13,4.14-.52,8.22-1.78,12.37-2.24,2.44-.3,4.99-.37,7.42-.72,3.25.57,6.6,1.01,9.9.62,1.89-.17,3.89-.42,5.77-.61,1.61-.06,3.35-.09,4.95-.29,5.45-.78,11.04-1.04,16.5-.17"/><path class="b" d="M13.11,168.75c1.74-.8,3.52.41,4.95,1.32,1.27.83,2.7,1.71,4.12,2.24,3.72,1.28,7.85,1.04,11.55,2.47,3.55,1.03,7.03,2.78,10.72,3.24,3.31.33,6.55,1.6,9.9,1.68,6.37.14,12.79-.86,18.97-2.39,3.09-.77,5.98-2.35,9.07-3.08.73-.18,1.75-.2,2.47-.38,1.36-.37,2.8-1.01,4.12-1.47,4.07-1.65,8.52-.94,12.37.95,7.1,3.43,13.11,7.61,21.44,6.67,4.37-.57,8.78-1.33,13.2-1.36,2.46-.02,5-.27,7.42-.66,1.33.15,2.79.55,4.12.69,1.88.21,3.89.1,5.77-.09,1.61-.15,3.34-.41,4.95-.53,1.32.06,2.81.02,4.12-.1,5.46-.74,11.03-1.18,16.5-.29"/><path class="b" d="M13.11,166.14c2.43,1.88,3.62,5.14,5.77,7.31,4.08,4.58,9.66,1.53,14.85,1.6,3.87-.21,7.78.31,11.55,1.17,2.47.59,4.92,1.59,7.42,2.01,3.8.67,7.74.33,11.55-.12,3.59-.5,7.23-1.18,10.72-2.16,2.77-.84,5.42-2.28,8.25-2.95.73-.17,1.74-.29,2.47-.43,1.37-.38,2.8-1.11,4.12-1.63,5.2-2.37,9.95-1.22,14.85,1.24,6.43,3.33,11.43,5.96,18.97,5.42,4.09-.46,8.25-.82,12.37-.48,3.02.14,6.11-.16,9.07-.72,1.33.12,2.78.61,4.12.7,1.89.16,3.9,0,5.77-.21,2.71-.53,5.52-.04,8.25-.32,5.18-.71,10.47-1.13,15.67-.32"/><path class="b" d="M13.11,165.94c6.24,14.36,7.16,12.32,21.44,9.76,3.79-.65,7.7-1.33,11.55-.82,1.4.09,2.8.84,4.12,1.26,1.83.64,3.84,1.13,5.77,1.3,8.43.58,17-1.19,24.74-4.49,1.29-.51,2.76-1,4.12-1.28,1.07-.16,2.33-.4,3.3-.89,6.46-3.31,10.5-4.38,17.32-.96,1.25.79,2.75,1.47,4.12,1.99,1.56.79,3.28,1.59,4.95,2.14,2.9.93,6.04,1.25,9.07,1.36,2.17,0,4.43-.25,6.6-.22,1.89,0,3.89.26,5.77.41,2.16.15,4.44.23,6.6-.02,1.62-.09,3.33-.73,4.95-.61,3.21.93,6.64.45,9.9.1,1.02.17,2.27.29,3.3.31,2.74.12,5.53-.42,8.25-.7,3.27-.27,6.64-.18,9.9.23"/><path class="b" d="M13.11,166.75c1.47,3.35,2.49,9.22,6.6,10.16,6.37.58,12.81-.25,18.97-1.9,3.21-.72,6.6-1.61,9.9-1.09,10.5,5.29,22.65,2.15,32.99-1.96,1.3-.51,2.77-1.02,4.12-1.34,1.39-.22,2.91-.53,4.12-1.27,4.28-2.3,8.18-4.47,13.2-3.1,1.37.57,2.77,1.5,4.12,2.11.99.46,2.23.88,3.3,1.11,1.85.86,3.8,1.81,5.77,2.34,4.57,1.15,9.33,1.38,14.02,1.46,3.56.27,7.15.91,10.72.91,2.47,0,5.01-.41,7.42-.92,1.64-.11,3.32.7,4.95.79,1.03.09,2.27.02,3.3.03,1.59.22,3.35.26,4.95.11,2.45-.23,4.96-.77,7.42-.96,3.27-.18,6.64-.19,9.9.2"/><path class="b" d="M13.11,167.38c1.13,2.76,1.77,7.13,4.95,8.24,1.61.14,3.34-.1,4.95-.02,3.28.15,6.63.41,9.9.05,3.07-.28,6.11-1.13,9.07-1.91,2.13-.55,4.38-1.1,6.6-1.16.82.09,1.74.66,2.47.99,6.12,2.91,13.38,3.06,19.8,1.05,2.47-.74,4.95-1.73,7.42-2.47,2.21-.57,4.48-1.24,6.6-2.08,1.83-.76,4.01-.68,5.77-1.61,3.65-1.91,7.2-4.77,11.55-4.49,2.83.67,5.34,2.53,8.25,2.98,1.13.09,2.25.91,3.3,1.3,1.54.67,3.29,1.22,4.95,1.5,3.81.7,7.68,1.35,11.55,1.67,2.99.41,6.06.88,9.07,1.1,1.88.17,3.9.16,5.77-.06,1.03-.07,2.27-.5,3.3-.25,1.34.09,2.82.33,4.12.65,1.31.17,2.81.21,4.12.33,3.63.25,7.17-.97,10.72-1.51,3.81-.47,7.75-.19,11.55.26"/><path class="b" d="M13.11,167.41c.97,2.34,1.71,6.84,4.95,6.72,1.88-.25,3.88-.44,5.77-.21,4.92.7,9.96.68,14.85-.26,3.58-.61,7.08-2.05,10.72-2.28,4.85,3.03,10.82,4.54,16.5,3.54,3.73-.64,7.19-2.35,10.72-3.61,3.47-1.27,7.29-1.35,10.72-2.73,1.02-.31,2.25-.51,3.3-.68,1.43-.44,2.9-1.26,4.12-2.11,2.42-1.67,5.18-3.57,8.25-3.44,1.38.18,2.82.79,4.12,1.26,1.82.81,4.01.75,5.77,1.63,2.82,1.44,5.98,2.08,9.07,2.61,3.55.75,7.16,1.5,10.72,2.19,4.07.62,8.25,1.29,12.37.96,3.77.73,7.7,1.13,11.55,1.08,3.4-.14,6.61-1.59,9.9-2.29,2.42-.55,4.99-.38,7.42-.08,1.61.14,3.36.29,4.95.61"/><path class="b" d="M13.11,166.72c.83,2.01,1.55,5.47,4.12,5.79,1.61-.15,3.33-.52,4.95-.35,2.17.2,4.41.67,6.6.68,3.56,0,7.18-.36,10.72-.71,3.34-.32,6.59-1.49,9.9-1.99,4.96,3.43,11.41,5.33,17.32,3.46,3.71-.9,7.08-2.9,10.72-3.99,1.3-.4,2.78-.79,4.12-1.01,2.18-.24,4.5-.31,6.6-1,1.29-.46,2.79-.66,4.12-.92,2.13-.64,4.01-2.09,5.77-3.39,1.47-1.03,3.2-2.03,4.95-2.47,1.65-.22,3.38.39,4.95.81,1.3.36,2.78.65,4.12.77,2.14.85,4.32,1.92,6.6,2.36,2.74.5,5.56,1.04,8.25,1.8,2.45.64,4.93,1.54,7.42,1.99,2.98.47,6.05.91,9.07.93,1.87.5,3.82,1.15,5.77,1.23,3.58.24,7.32.38,10.72-.95,3.19-1.17,6.41-2.84,9.9-2.73,2.98.21,6.15.88,9.07,1.49"/><path class="b" d="M13.11,165.33c.71,1.77,1.47,4.31,3.3,5.24,1.02.36,2.26.09,3.3.03,2.46-.13,4.96.59,7.42.52,2.18-.04,4.43-.46,6.6-.63,2.44-.22,4.98-.11,7.42-.23,1.62-.08,3.37-.33,4.95-.7,1.03-.19,2.24-.69,3.3-.53,4.01,2.93,9.01,4.83,14.02,4.16,3.09-.69,6.17-1.79,9.07-3.05,2.86-1.29,6.02-1.84,9.07-2.43,2.13-.62,4.41-.82,6.6-1.08,1.05-.18,2.27-.48,3.3-.75,1.04-.22,2.32-.31,3.3-.77,2.38-1.08,4.4-2.97,6.6-4.35,1.99-2.05,4.89-1.71,7.42-1.09,1.59.42,3.45.27,4.95.97,3.36,1.64,7.12,2.02,10.72,2.79,3.1.66,6.08,1.96,9.07,2.96,2.93.79,6.05,1.1,9.07,1.31,4.28,2.03,9.46,2.1,14.02,1.07,2.58-.71,4.95-2.21,7.42-3.2,2.05-.84,4.39-1.26,6.6-1.02,2.76.39,5.57,1.12,8.25,1.9"/><path class="b" d="M13.11,163.32c1.68,4.2,2.52,6.02,7.42,5.8,1.89.12,3.89.39,5.77.1,2.19-.32,4.39-1.09,6.6-1.3,3.01-.36,6.07.3,9.07.47,2.19.13,4.48-.2,6.6-.75,4.51,2.97,8.39,5.14,14.02,4.48,2.27-.39,4.41-1.58,6.6-2.27,1.92-.52,3.84-1.39,5.77-1.86,1.86-.47,3.91-.35,5.77-.78,1.9-.41,3.86-1.05,5.77-1.4,3.03-.4,6.12-.94,9.07-1.71,2.77-1.18,5.21-3.27,7.42-5.28,2.08-1.74,4.95-1.3,7.42-.93.73.1,1.74.19,2.47.24,1.92.53,3.82,1.48,5.77,1.9,3.58.68,7.31.99,10.72,2.36,2.17.81,4.31,2.02,6.6,2.53,1.3.31,2.79.53,4.12.68.77.08,1.82.09,2.47.57,4.07,1.82,8.93,1.86,13.2.72,2.86-.89,5.44-2.65,8.25-3.68,4.86-1.95,10.12-.21,14.85,1.33"/><path class="b" d="M13.11,162.06c.94.79,1.7,2.31,2.47,3.26,1.82,2.05,4.88,2.08,7.42,1.98,3.44-.29,6.41-2.68,9.9-2.7,3.36.06,6.59,1.47,9.9,1.93,1.03.15,2.26.2,3.3.12,1.46-.23,2.13-.39,3.3.67,3.92,2.96,9.18,4.57,14.02,3.25,2.94-1.27,5.85-2.86,9.07-3.3,2.12-.72,4.42-.53,6.6-.75,2.48-.41,4.96-1.25,7.42-1.75,2.72-.5,5.55-.81,8.25-1.47,1.71-.48,3.59-.91,4.95-2.13,2.34-1.43,3.89-4.19,6.6-5,1.57-.43,3.35-.25,4.95-.14,1.36.07,2.86.1,4.12.69,2.88,1.17,6.02,1.56,9.07,1.96,2.85.35,5.71,1.19,8.25,2.53,2.51,1.39,5.4,2.16,8.25,2.43,1.35.38,2.72,1.22,4.12,1.46,3.23.61,6.71.61,9.9-.24,2.86-.81,5.46-2.48,8.25-3.49,5.14-2.07,10.69-.28,15.67,1.41"/><path class="b" d="M13.11,160.81c.69.58,1.63,1.21,2.47,1.52,1.19,1.49,3.05,2.4,4.95,2.44,3.96.25,6.96-3.04,10.72-3.64,2.63-.4,5.12.91,7.42,1.98,2.07.89,4.34,1.71,6.6,1.91.43.03,1.22.03,1.65,0,1.14.49,2.21,1.54,3.3,2.14,3.4,2.13,7.6,2.92,11.55,2.22,1.82-.18,3.37-1.42,4.95-2.22,2.25-1.23,4.89-1.63,7.42-1.73,1.32-.16,2.8.11,4.12-.06,2.49-.31,4.97-1.15,7.42-1.67,2.97-.75,6.15-.71,9.07-1.64,1.6-.5,3.31-1.09,4.95-1.46.79-.52,1.82-1.32,2.47-2,3.3-3.39,4.94-4.76,9.9-4.42,3.18-.24,5.96,1.5,9.07,1.84,2.43.43,5,.52,7.42.99,2.01.39,4.01,1.28,5.77,2.3,2.01,1.11,4.32,1.85,6.6,2.15,1.35.35,2.72,1.17,4.12,1.39,1.86.36,3.89.45,5.77.32,1.6-.33,3.32-.75,4.95-.92,2.27-.49,4.39-1.8,6.6-2.49,5.41-2.07,11.23-.38,16.5,1.34"/><path class="b" d="M13.11,159.07c1.15.94,2.74,1.27,4.12,1.67.67.46,1.67.88,2.47,1,7.11.5,9.08-7.44,18.15-1.53,2.47,1.61,5.27,3.01,8.25,3.27,4.53,4.41,11.39,5.6,17.32,3.69,1.36-.75,2.7-1.86,4.12-2.5,3.63-1.75,7.74-.25,11.55-.84,3.58-.59,7.11-1.78,10.72-2.19,1.61-.22,3.38-.27,4.95-.71,1.91-.53,3.84-1.37,5.77-1.79,2.83-1.4,4.55-4.58,7.42-5.94,2.55-1.08,5.55-.93,8.25-.65,1.6.45,3.3,1.04,4.95,1.31,3.23.8,6.66.52,9.9,1.23,2.95.67,5.36,2.81,8.25,3.66.71.23,1.73.46,2.47.58.75.22,1.73.67,2.47.89,2.4.73,5.02.79,7.42.04,1.3-.31,2.79-.58,4.12-.66,1.39.02,2.83-.12,4.12-.71,6.58-2.61,12.42-1.37,18.97.56"/><path class="b" d="M13.11,157c1.44.94,3.25,1.33,4.95,1.28,1.3.4,2.77.71,4.12.39,4.03-1.05,8.07-4.33,12.37-2.44,2.38.97,4.4,2.79,6.6,4.08,1.55.99,3.7,1.13,4.95,2.58,3.95,3.63,9.83,3.94,14.85,2.88,1.06-.25,2.33-.54,3.3-1.07.72-.57,1.69-1.33,2.47-1.8,2.75-1.8,6.06-.73,9.07-.54,2.76.2,5.57-.36,8.25-.95,3.5-.93,7.14-1.33,10.72-1.78,2.21-.51,4.45-1.31,6.6-2.05,1.27-.31,2.38-1.39,3.3-2.25,3.91-4.01,5.83-5.1,11.55-4.65,2.79.13,5.48,1.41,8.25,1.78,2.43.38,4.99.08,7.42.38,3.64.39,6.4,3.26,9.9,4.13,1.35.26,2.79.82,4.12,1.16,2.18.5,4.46-.16,6.6-.55,2.42-.52,4.98-.22,7.42-.27,1.58-.43,3.32-.85,4.95-1.05,4.71-.62,9.47.5,14.02,1.63"/><path class="b" d="M13.11,154.73c1.72,1,3.82,1.28,5.77,1.12,1.05.03,2.25.34,3.3.19,3.84-.47,7.61-2.94,11.55-1.79,2.46.73,4.53,2.49,6.6,3.93.98.69,2.21,1.35,3.3,1.84.43.37,1.21,1.11,1.65,1.47,3.77,3.47,9.31,3.16,14.02,2.34,1.64-.29,3.37-.8,4.95-1.33.98-.82,2.12-1.82,3.3-2.34,1.83-.81,3.91-.28,5.77.13,2.15.34,4.43.41,6.6.3,3.33-.24,6.62-1.14,9.9-1.75,4.77-.61,9.55-1.58,14.02-3.42,4.52-3.13,5.82-7.28,12.37-6.41,1.9.17,3.88.55,5.77.8,2.08.78,4.36,1.31,6.6,1.22,8.27-.61,7.1.25,14.02,3.52,1.55.59,3.3,1.14,4.95,1.34,1.33.1,2.81-.14,4.12-.32,3.26-.58,6.62-.22,9.9-.05,5.75-1.27,11.67-.45,17.32.9"/><path class="b" d="M13.11,152.41c2,1.04,4.38,1.28,6.6,1.04,1.88.35,3.89.35,5.77,0,2.97-.49,6.15-1.38,9.07-.19,2.7,1.04,4.92,3.11,7.42,4.51,1.19,1.23,2.67,2.44,4.12,3.33,1.7,1.06,3.82,1.24,5.77,1.15,2.19-.07,4.45-.41,6.6-.82,1.92-.36,3.92-.91,5.77-1.52,2.22-1.59,3.62-3.1,6.6-2.24,2.38.73,4.93,1.17,7.42,1.18,4.18.16,8.32-.67,12.37-1.6,2.46-.49,5.05-.78,7.42-1.62,2.19-.54,4.49-1.02,6.6-1.82,1.31-.27,2.37-1.5,3.3-2.39,2.56-2.72,5.07-4.9,9.07-3.91,1.94.36,3.84,1.28,5.77,1.62.73.08,1.75.02,2.47-.09,1.31.27,2.78.56,4.12.51,3-.05,6.11-1.08,9.07-.21,3.86,1.33,7.3,4.34,11.55,4.38,4.39-.25,8.82-.39,13.2.16,5.24-.64,10.51.09,15.67.97"/><path class="b" d="M13.11,150.21c2.04.9,4.38,1.23,6.6,1.09,2.15.39,4.41.71,6.6.52,6.38-.73,8.79.06,14.02,3.62,1.98,2.13,4.46,4.31,7.42,4.8,3.88.04,7.76-1.09,11.55-1.82,1.63-.35,3.35-.84,4.95-1.31,2.12-1.15,3-2.72,5.77-1.89,1.86.64,3.83,1.34,5.77,1.68,2.15.42,4.43.29,6.6.13,3.34-.02,6.66-.83,9.9-1.56,2.5-.46,5.02-1.18,7.42-2.01,2.45-.58,4.98-1.18,7.42-1.8,3.1-2.11,5.46-7.09,9.9-5.73,2.33.57,4.21,2.53,6.6,2.84,1.35.12,2.84-.2,4.12-.58,1.03-.06,2.26.18,3.3.08,1.63-.1,3.35-.49,4.95-.79,2.78-.64,5.73-.12,8.25,1.18,2.86,1.41,5.87,2.74,9.07,3.12,1.89.02,3.89,0,5.77.06,3,.07,6.07.41,9.07.44,3.56.2,7.23.24,10.72.99"/><path class="b" d="M13.11,148.27c2.1.71,4.38,1.1,6.6,1.06,1.58.44,3.31.83,4.95.97,3.28.29,6.73-.06,9.9,1,1.39.46,2.87,1.17,4.12,1.92,1.87,1.96,3.99,3.94,6.6,4.83,1.9.71,3.96.04,5.77-.61,1.3-.45,2.79-.78,4.12-1.12,2.16-.54,4.43-1.04,6.6-1.57,1.4-.35,3.06-.58,4.12-1.65,2.12-1.56,4.53.09,6.6.91,2.07.87,4.34,1.61,6.6,1.66,1.9.07,3.88-.37,5.77-.41,3.92-.14,7.77-1.26,11.55-2.24,3.48-1.23,7.02-2.54,10.72-2.89.41-.05,1.25-.19,1.65-.28.45-.34,1.27-1.12,1.65-1.54,1.46-1.45,2.84-3.53,4.95-4.05,2.65-.36,4.64,2,6.6,3.41,2.51,1.66,5.71.66,8.25-.44,1.91.08,3.93-.19,5.77-.7,3.2-.87,6.7-1.4,9.9-.25,1.64.55,3.35,1.33,4.95,1.98,2.12.68,4.42,1.14,6.6,1.63,7.14.42,14.37.51,21.45,1.73"/><path class="b" d="M13.11,146.67c1.87.37,3.86.78,5.77.82,1.89.4,3.85,1.03,5.77,1.28,3.28.5,6.7.59,9.9,1.53,2,.36,3.46,1.92,4.95,3.16,2.04,1.67,4.67,3.35,7.42,2.92,1.74-.39,3.34-1.5,4.95-2.22,1.54-.68,3.32-1.11,4.95-1.54,2.43-.61,4.96-1.13,7.42-1.56.95-.63,2.09-1.49,3.3-1.38,2.64.6,4.87,2.53,7.42,3.42,1.8.71,3.84,1.08,5.77.99,2.18-.13,4.41-.64,6.6-.62,5.44-.41,10.6-2.38,15.67-4.23,2.35-.96,4.99-.72,7.42-1.23,2.79-2.51,5-7.81,9.07-3.81,1.29,1.18,2.46,2.86,4.12,3.56,1.84.75,3.97.37,5.77-.3,1.06-.34,2.18-1.15,3.3-1.26,4.96-.35,9.8-2.78,14.85-1.9,2.54.43,4.91,1.71,7.42,2.25,2.16.53,4.41,1.13,6.6,1.55,1.89.11,3.89.26,5.77.43,3.84.28,7.71.99,11.55,1.2"/><path class="b" d="M13.11,145.28c1.61.14,3.33.38,4.95.42,1.89.48,3.86,1.05,5.77,1.43,3.27.68,6.65,1.07,9.9,1.86,1.23.2,2.26,1.4,3.3,2.03,2.8,1.96,6.34,4.52,9.9,3.1,1.75-.79,3.3-2.2,4.95-3.16,1.49-.88,3.29-1.36,4.95-1.8,1.59-.4,3.33-.72,4.95-.93,1.12-.08,2.41-.3,3.3-1.05,3.76-2.02,7.82,6.08,17.32,5.14,3.27-.5,6.65-.41,9.9-1.03,4.28-.76,8.34-2.43,12.37-3.98,2.07-.88,4.42-.6,6.6-.89,1.03-.3,1.8-1.58,2.47-2.34,5.55-7.79,6.63,3.47,12.37,3.52,2.64.11,5.2-1.09,7.42-2.4,4.44-.4,8.77-1.83,13.2-2.32,2.8-.4,5.62.35,8.25,1.24,1.89.49,3.89,1.01,5.77,1.5,2.92.91,6.06,1.03,9.07,1.47,2.99.3,6.07,1,9.07.68"/><path class="b" d="M13.11,143.99c3.66-.33,7.19.89,10.72,1.67,1.88.42,3.88.82,5.77,1.19,1.08.23,2.43.36,3.3,1.11,3.8,2.23,8.62,5.97,13.2,4.02,2.43-1.24,4.23-3.57,6.6-4.9,3.03-1.53,6.54-2.1,9.9-2.32.5.08,1.27-.22,1.65-.53,1.02-.52,2.34-.35,3.3.24,3.54,2.44,7.16,5.18,11.55,5.76,2.7.51,5.53.23,8.25.06,3.31-.26,6.69-.62,9.9-1.51,3.42-.78,6.6-2.46,9.9-3.58,1.85-.48,3.9-.2,5.77-.57,1.57-1.2,2.5-3.34,4.12-4.49,3.42-1.46,4.84,6.19,9.07,6.51,1.95.27,4-.35,5.77-1.13,1.08-.43,2.17-1.33,3.3-1.63,3.32-.27,6.64-1.02,9.9-1.68,2.41-.49,4.96-.98,7.42-.71,3.06.47,6.08,1.51,9.07,2.27,2.93.94,6.04,1.37,9.07,1.78,2.7.3,5.56.79,8.25.19"/><path class="b" d="M13.11,142.8c3.32-.55,6.67.54,9.9,1.23,1.88.45,3.89.83,5.77,1.3,1.31.75,2.78,1.57,4.12,2.25,4.24,2.1,9.9,4.59,14.02.96,1.92-1.59,3.63-3.66,5.77-4.97,2.99-1.61,6.53-2.15,9.9-2.21,2-.57,3.19-.64,4.95.65,2.8,2.09,5.73,4.26,9.07,5.38,7.48,2.3,15.6,1.58,23.09-.3,2.92-.6,5.48-2.39,8.25-3.39,2.1-.72,4.49-.31,6.6-.95,1.26-1.37,2.19-3.75,4.12-4.24,2.78.8,3.5,4.48,5.77,6.05,2.44,1.81,5.73.76,8.25-.35,1.08-.45,2.17-1.37,3.3-1.7,1.33-.07,2.81-.23,4.12-.44,4.91-.7,9.84-2.56,14.85-1.89,5,.93,9.78,3,14.85,3.62,2.97.37,6.15.75,9.07-.08"/><path class="b" d="M13.11,141.72c3.58-.65,7.28.17,10.72,1.14,5.8,2.27,12.58,6.27,18.97,4.75,3.77-1.16,5.99-4.79,9.07-6.99,3.1-2.05,7.07-2.64,10.72-2.58,1.77-.42,3.57.42,4.95,1.46,3.25,2.45,6.82,4.69,10.72,5.93,4.78,1.38,9.87,2.15,14.85,1.83,3.02-.34,6.15-.69,9.07-1.54,2.31-.82,4.43-2.32,6.6-3.44.96-.51,2.2-.96,3.3-1,1.37.02,3.09.33,4.12-.8.88-1.14,1.79-2.98,3.3-3.34,2.77.87,3.44,4.62,5.77,6.18,3.24,2.09,7.84-.28,10.72-2.11,1.57-.38,3.36-.27,4.95-.62,4.9-.79,9.83-2.4,14.85-1.92,3.93.55,7.69,2.15,11.55,3.04,3.75.78,7.83,1.15,11.55.04"/><path class="b" d="M13.11,140.7c4.84-.31,9.47,1.32,14.02,2.71,4.76,1.29,9.98,2.59,14.85,1.12,8.01-3.28,7.19-9.17,18.97-9.65,3.61-.26,6.22,1.74,9.07,3.61,2.64,1.54,5.44,3,8.25,4.21,5.95,2.52,12.52,3.79,18.97,3.1,2.5-.22,5.15-.42,7.42-1.61,2.88-1.27,5.29-3.61,8.25-4.68,1.32-.32,2.82.22,4.12-.22.95-1.15,1.8-2.98,3.3-3.48,2.76.69,3.48,4.58,5.77,6.08,3.26,2,7.85-.7,10.72-2.42,1.33.02,2.81-.1,4.12-.31,5.17-.89,10.38-2.45,15.67-1.96,3.95.46,7.69,2.15,11.55,3.05,3.5.7,7.29.66,10.72-.37"/><path class="b" d="M13.11,139.55c3.61.14,7.19.95,10.72,1.61,5.41.88,11.11,1.62,16.5.2,4.51-1.15,7.66-4.88,11.55-7.17,2.77-1.37,5.97-2.24,9.07-2.17,2.98.12,5.68,1.7,8.25,3.06,2.7,1.41,5.6,2.6,8.25,4.11,5.52,3.19,11.66,5.71,18.15,5.48,6.81.09,11.12-1.06,16.5-5.42,1.13-.9,2.6-1.85,4.12-1.65.79.26,1.87.07,2.47-.52.58-.87,1.49-2.14,2.47-2.58l.82.08c2.14,1.32,2.94,4.21,4.95,5.68,3.04,1.81,7.29-.6,9.9-2.34,4.48.15,8.79-1.41,13.2-1.97,5.97-.93,10.06,0,15.67,1.9,4.17,1.68,8.93,1.42,13.2.26"/><path class="b" d="M13.11,138.14c5.47.64,10.99,1.19,16.5.92,3.6-.06,7.3-.26,10.72-1.5,4.5-1.35,8.13-4.55,12.37-6.41,2.59-1.93,5.99-2.32,9.07-1.54,3.63.82,6.51,3.52,9.9,4.92,2.37,1,4.95,1.68,7.42,2.38,1.86,1.21,3.8,2.57,5.77,3.59,4.02,2.17,8.65,3.08,13.2,2.97,3.7.14,7.35-.79,10.72-2.26,2.85-1.07,4.8-3.71,7.42-5.11,1.01-.45,2.29.07,3.3-.31.97-.88,1.8-2.67,3.3-2.62,2.57,1.09,3.13,4.71,5.77,5.73,1.92.57,4.03-.22,5.77-1.01,1.08-.46,2.09-1.6,3.3-1.66,1.61.11,3.36-.04,4.95-.35,4.86-1.06,9.84-2.17,14.85-1.69,2.51.24,5.03.94,7.42,1.7,1.84.67,3.79,1.42,5.77,1.48,1.61.08,3.35-.11,4.95-.34.4-.06,1.25-.19,1.65-.26.44-.24,1.27-.83,1.65-1.16"/><path class="b" d="M13.11,136.27c4.02,1.05,8.3.44,12.37.05,3.55-.43,7.19-.57,10.72-1.15,3.36-.77,6.7-2.01,9.9-3.3,1.35-.39,2.33-1.73,3.3-2.66,2.15-2.13,5.31-2.8,8.25-2.49,7.34.39,8.07,3.11,14.02,5.66,2.9,1.19,6.16,1.42,9.07,2.51,1.03.77,2.25,1.72,3.3,2.47,7.59,5.78,17.78,6.23,26.39,2.55,1.45-.66,2.95-1.66,4.12-2.73.98-.9,2.1-2.09,3.3-2.69,1-.41,2.31-.12,3.3-.58.59-.78,1.45-1.89,2.47-2.07,3.44.79,3.42,6.22,8.25,5.22,2.13-.31,3.9-1.75,5.77-2.66,3.04.48,6.12-.25,9.07-.9,2.96-.61,6.05-1,9.07-.93,3.34.12,6.76.79,9.9,1.96,2.8,1.33,6.07,1.43,9.07.8,1.54-.66,2.98-1.86,4.12-3.06"/><path class="b" d="M13.11,133.84c1.04.32,2.25.7,3.3.98,2.76-.02,5.54-.75,8.25-1.21,4.07-.83,8.29-.96,12.37-1.69,1.33-.37,2.78-.86,4.12-1.18,1.05-.3,2.39-.43,3.3-1.09,5.49-6.46,8.69-5.96,16.5-4.75,3.69.34,6.55,3.02,9.9,4.33,3.16,1.31,6.66,1.66,9.9,2.71,5.15,3.59,8.99,7.88,15.67,8.69,3.56.55,7.24.29,10.72-.57,2.61-.5,5.3-1.31,7.42-2.96,1.73-1.22,3.1-3.16,4.95-4.21.38-.16,1.23-.33,1.65-.33.89-.18,1.92-.79,2.47-1.51,2.89-1.99,4.2,2.98,6.6,3.73,2.64.9,5.3-.79,7.42-2.2,1.32-.12,2.79.29,4.12.16,1.63-.09,3.36-.46,4.95-.79,4.31-.89,8.83-1.3,13.2-.52,1.61.3,3.38.59,4.95,1.09.69.35,1.73.76,2.47.97,5.1,1.44,8.3-.79,11.55-4.57"/><path class="b" d="M13.11,131c1.62.46,3.33,1.04,4.95,1.5,2.75-.49,5.49-1.43,8.25-1.89,3.25-.62,6.62-.75,9.9-1.14,1.62-.26,3.33-.78,4.95-1.1,3.35-3.28,6.33-7.13,11.55-6.61,3.03.14,6.12.51,9.07,1.24,1.06,0,2.29.21,3.3.53,3.8,1.43,7.65,2.89,11.55,4.04,1.63.59,3.45,1.14,4.95,2.01,4.65,3.05,8.43,7.77,14.02,9.17,5.41,1.44,11.17.45,16.5-.91,3.42-.91,5.7-3.8,8.25-6.03.93-.63,2.26-.93,3.3-1.34.78-.31,1.62-1.14,2.47-1.27,1.34.02,2.41,1.3,3.3,2.17,2.73,2.88,6.34.83,9.07-.91,4.94,1.42,9.89-.77,14.85-.92,3.03-.2,6.11.21,9.07.82,1.98.23,3.8,1.4,5.77,1.61,4.6.8,8.15-2.93,10.72-6.25"/><path class="b" d="M13.11,128.04c1.62.29,3.35.73,4.95,1.11,1.04.18,2.27.75,3.3.32,1.86-.57,3.86-1.09,5.77-1.43,2.7-.52,5.52-.56,8.25-.82,1.74-.64,3.55-1.51,4.95-2.75,2.42-2.05,4.94-4.51,8.25-4.89,1.88-.24,3.89-.06,5.77.09,2.24.21,4.65.62,6.6,1.81,1.31.19,2.8-.17,4.12.05,3.39.43,6.71,1.61,9.9,2.82,3.31,1.46,6.94,2.57,9.9,4.71,4.55,3.62,8.68,8.21,14.85,8.73,2.72.34,5.54.01,8.25-.33,2.5-.3,5.13-.7,7.42-1.78,3.44-1.59,5.32-5.49,9.07-6.56,1.8-.6,3.04-1.94,4.95-.57,4,3.43,5.74,1.88,9.9-.02,4.89,1.65,9.89-.48,14.85-.52,2.47-.09,5.01.23,7.42.7,1.94.25,3.84,1.15,5.77,1.45,5.06.66,8.8-3.61,11.55-7.28"/><path class="b" d="M13.11,125.35c10.9.96,12.57,1.93,23.09-2.72,3.17-1.28,5.76-3.86,9.07-4.83,3.46-.85,7.33-.75,10.72.34,1.11.43,2.35,1.15,3.3,1.86.32.39,1.17.99,1.65,1.14,5.15-.9,10.09,1.15,14.85,2.83,1.59.53,3.33,1.01,4.95,1.4,1.72.14,3.49.61,4.95,1.55,3.22,2.06,5.77,5.16,9.07,7.1,2.22,1.34,4.84,2.07,7.42,2.22,1.87.36,3.9.29,5.77.03,4.33-.85,9.12-1.33,12.37-4.65,1.4-1.46,3.02-2.9,4.95-3.61,1.29-.53,2.7-1.44,4.12-1.43,1.98.31,3.65,2.08,5.77,1.74,1.73-.15,3.31-1.25,4.95-1.7,2.37.76,4.96.99,7.42.61,3.25-.48,6.6-1,9.9-.64,3.34.21,6.57,1.44,9.9,1.65,5.04.12,8.72-4.26,11.55-7.91"/><path class="b" d="M13.11,122.96c5.79-.42,11.77.03,17.32-2.01,1.89-.65,3.93-1.22,5.77-1.98,1.93-.73,3.85-1.79,5.77-2.53,3.63-1.29,7.89-1.67,11.55-.31,1.54.66,2.96,1.9,4.12,3.09.43.42,1.27,1.31,1.65,1.78.38.2,1.22.4,1.65.38,1.62.1,3.37.29,4.95.67,2.71-2.67,6-2.26,9.07-.46,1.47.79,2.74,2.18,4.12,3.07,1.34.04,2.81-.06,4.12-.3,2.47.02,4.77,1.45,6.6,3.01,2.56,2.18,5.09,4.69,8.25,6,1.98,1.16,4.29,1.89,6.6,1.76,4.75-.27,9.61-1.02,14.02-2.87,2.17-.93,3.76-2.94,5.77-4.11,1.82-1.05,3.81-2.08,5.77-2.83,1.07-.15,2.31.23,3.3.59,2.48.98,5.08-.26,7.42-1.06,5.35,1.97,10.28-.11,15.67.21,3.56.26,7.13,1.32,10.72,1.04,4.9-.43,8.63-4.34,11.55-7.97"/><path class="b" d="M13.11,120.86c3.53-.76,7.17-1.18,10.72-1.8,3.04-.51,6.07-1.38,9.07-2.07,4.93-1.09,9.65-3.7,14.85-3.16,4.89.1,6.92,3.5,9.9,6.7,1.21.73,2.78,1.04,4.12,1.4,1.73-2.22,3.36-5.59,6.6-5.57,3.2.24,6.34,1.63,9.07,3.27,1.78,1.05,3.29,2.69,4.95,3.89,7.13-2.85,12.73,8.16,18.97,9.78,2.15.54,4.45.06,6.6-.28,2.16-.34,4.44-.46,6.6-.8,4.57-.64,8.49-3.23,12.37-5.53,1.29-.73,2.78-1.47,4.12-2.11.71-.35,1.66-.84,2.47-.63,1.03.15,2.25.45,3.3.42,1.36-.05,2.82-.53,4.12-.89.72-.35,1.74-.21,2.47.04,1.02.26,2.25.47,3.3.53,3.01.16,6.06-.55,9.07-.53,3.82.28,7.73.51,11.55-.03,4.67-.69,8.58-3.88,11.55-7.39"/><path class="b" d="M13.11,119.07c6.7-2.15,13.66-3.58,20.62-4.6,3.82-.61,7.62-2.11,11.55-1.62,5.42.56,6.4,2.5,9.9,5.99,1.41.48,2.65,1.72,4.12,2.02,2.02-2.87,3.88-8.12,8.25-7.17,3.33.97,6.69,2.18,9.9,3.51,2.34,1.11,4.45,2.84,6.6,4.27,4.49-.35,7.56,2.4,10.72,5.15,2.23,2.35,4.75,5.26,8.25,5.31,1.94.02,3.89-.68,5.77-1.07,1.86-.41,3.87-.59,5.77-.69,2.79-.13,5.66-.54,8.25-1.6,4.16-1.79,8.15-4.11,12.37-5.77.72-.27,1.73-.1,2.47-.1,1.35-.03,2.82-.4,4.12-.72.4-.12,1.24-.3,1.65-.35.4.11,1.24.31,1.65.41,1.02.23,2.26.42,3.3.46,3.56,0,7.2-.3,10.72-.85,3.82-.67,7.83-.65,11.55-1.82,1.16-.3,2.3-1.1,3.3-1.72,1.92-.76,3.51-2.33,4.95-3.76"/><path class="b" d="M13.11,117.61c6.25-2.78,12.98-4.34,19.8-4.74,3.01-.13,6.05-.97,9.07-.71,3.59.36,7.24,1.82,9.9,4.3.7.35,1.76.53,2.47.85.79.36,1.79,1.01,2.47,1.55,1.14-.45,1.8-2.12,2.47-3.07,2.55-4.04,4.26-6.1,9.07-3.62,2.88,1.4,6.04,2.21,9.07,3.18,1.7.6,3.39,1.57,4.95,2.45,1.06.57,2.16,1.52,3.3,1.94,1.72.07,3.49.77,4.95,1.65,1.73,1.11,3.35,2.64,4.95,3.91,2.29,2.58,5.25,5.8,9.07,4.81,2.74-.68,5.41-1.96,8.25-2.28,2.99-.41,6.09-.09,9.07-.52,4.58-.75,8.83-2.88,13.2-4.36,2.93-1.1,6.04-1.86,9.07-2.63,1.35-.08,2.79.52,4.12.63,1.61.2,3.37.13,4.95-.23,2.21-.5,4.41-1.37,6.6-1.95,2.12-.59,4.41-.92,6.6-1.15,1.91-.2,3.94-.44,5.77-1.03,2.15-1.3,4.52-2.43,6.6-3.84"/><path class="b" d="M13.11,116.48c5.74-2.95,11.64-4.78,18.15-4.5,3.29.09,6.67-.73,9.9.24,2.59.7,5,2.1,7.42,3.22,2-.27,4.1.15,5.77,1.31,2.82-2.25,4.73-8.84,9.07-8.11,2.6.72,4.86,2.49,7.42,3.34,2.93,1.11,6.2,1.33,9.07,2.62,1.97.81,3.98,1.83,5.77,2.98,1.3.56,2.87.85,4.12,1.55,2.71,1.54,4.86,4.01,7.42,5.75,1.18,1.23,2.54,2.62,4.12,3.31,2.5,1.08,5.14-.32,7.42-1.33,1.81-.81,3.8-1.54,5.77-1.84,3.54-.55,7.18.19,10.72-.22,4.49-.6,8.83-2.19,13.2-3.35,2.42-.64,4.97-1.17,7.42-1.68,1.61.01,3.36.12,4.95-.24,4.02-.91,7.5-3.5,11.55-4.36,3.49-.88,7.22-.44,10.72-1.25,1.89-1.17,3.98-2.25,5.77-3.58"/><path class="b" d="M13.11,115.49c6.54-3.6,11.45-5.35,18.97-3.8,2.16.43,4.47-.17,6.6.46,2.01.47,3.86,1.68,5.77,2.38,2.16.41,4.49-.1,6.6.57,2.42-2.81,4.26-6.41,7.42-8.49,1.59-.94,3.49-.3,4.95.58,3.26,2.11,6.83,3.87,10.72,4.38,3.93.96,7.97,2.04,11.55,4,1.56.89,3.51,1.32,4.95,2.45,1.99,1.5,3.79,3.45,5.77,4.96,1.6,1.1,3.35,2.25,4.95,3.35,3.76,1.94,7.35-1.55,10.72-2.88,2.3-1.05,4.9-1.61,7.42-1.57,2.45.04,4.97.48,7.42.38,2.2-.08,4.45-.6,6.6-1.06,3-.64,6.05-1.41,9.07-1.96,2.15-.42,4.45-.57,6.6-.97,3.3-.66,6.12-2.75,9.07-4.26,2.27-1.19,4.86-1.96,7.42-2.08,7-.23,6.97,1.2,13.2-3.33"/><path class="b" d="M13.11,114.55c5.03-2.94,10.59-5.75,16.5-3.66,3.29-1.15,4.35-.82,7.42.58,2.39.95,4.91,1.82,7.42,2.39,2.15-.94,4.16-2.62,5.77-4.31,2.34-2.5,5.06-6.95,9.07-5.47,2.04.86,3.83,2.43,5.77,3.48,2.26,1.34,4.91,1.87,7.42,2.49,2.91,1.08,6.09,1.42,9.07,2.25,3.14,1,6.41,2.28,9.07,4.26,2.88,2.55,5.45,5.73,9.07,7.27,3.47,1.46,4.73,2.16,8.25.12,6.79-4.18,9.92-6.05,18.15-4.74,2.75.35,5.56-.19,8.25-.77,2.71-.56,5.52-1,8.25-1.47,2.15-.37,4.42-.52,6.6-.54,3.37-.73,6.08-3.24,9.07-4.81,2.24-1.26,4.85-2.04,7.42-2.07,3.01-.08,6.07.7,9.07.31,1.38-.66,2.86-1.52,4.12-2.37"/><path class="b" d="M13.11,113.6c4.43-2.58,9.55-5.79,14.85-3.95,1.58-.48,3.25-1.32,4.95-1.03,1.15.18,2.3.95,3.3,1.5,1.3.72,2.77,1.49,4.12,2.12,2.63-2.4,5.41-4.79,8.25-6.95,2.22-2,5.03-4.81,8.25-3.26,3.09,1.55,5.69,4.15,9.07,5.15,1.3.44,2.78.78,4.12,1,1.56.65,3.3,1.19,4.95,1.53,5.12.86,10.57,1.55,14.85,4.75,3.54,3.22,6.59,7.56,11.55,8.63,3.9,1.16,5.95-.15,9.07-2.32,3.66-2.55,7.72-5.31,12.37-5.21,1.9.02,3.88.41,5.77.51,1.63.1,3.37-.22,4.95-.58,4.05-.91,8.23-1.6,12.37-1.83,1.61-.05,3.35,0,4.95.12.81-.18,1.78-.8,2.47-1.24,3.29-2.14,6.68-4.64,10.72-4.94,3.86-.37,7.69.95,11.55.7,1.14-.09,2.3-.86,3.3-1.36"/><path class="b" d="M13.11,112.58c4.23-2.39,8.91-5.82,14.02-4.33,5.68-2.15,5.91-.87,10.72,1.79,3.08-3.57,6.45-7.21,10.72-9.36,4.28-2.49,7.24.46,10.72,2.69,1.99,1.25,4.31,2.07,6.6,2.58,3.37.51,6.52,2.08,9.9,2.56,4.86.66,10.13,1.22,14.02,4.5,3.4,3.4,6.41,7.77,11.55,8.46,4.74.81,6.24-.19,9.9-2.99,3.66-2.73,7.59-5.97,12.37-6.11,1.9-.06,3.88.31,5.77.39,1.64.08,3.37-.34,4.95-.75,5.62-1.5,11.57-2.02,17.32-.99,1.5-.27,2.8-1.54,4.12-2.25,1.76-1.1,3.74-2.14,5.77-2.64,3.24-.83,6.66-.25,9.9.28,2.43.3,4.98.45,7.42.3"/><path class="b" d="M13.11,111.49c4.65-2.24,7.59-5.07,13.2-4.69,4-1.87,6.38-1.68,9.9,1.01,3.53-4.45,8.41-10.73,14.85-9.4,2.97.9,5.34,3.23,8.25,4.28,2.63.99,5.49,1.46,8.25,1.97,2.16.67,4.38,1.48,6.6,1.97,6.51,1.31,12.68.91,17.32,6.65,2.03,2.39,4.32,4.96,7.42,5.88,2.93.88,6.12.51,9.07-.07,5.06-2.9,8.95-8.13,14.85-9.47,2.98-.67,6.08.37,9.07-.09,1.91-.35,3.86-1.02,5.77-1.38,1.87-.36,3.88-.53,5.77-.69,3.03-.14,6.14.37,9.07,1.1,2.21-1.02,4.3-2.52,6.6-3.37,3.93-1.62,8.29-1.17,12.37-.51,2.44.3,4.97.52,7.42.61"/><path class="b" d="M13.11,109.79c1.04-.26,2.28-.56,3.3-.88,2.3-1.32,4.77-2.63,7.42-3.04,4.02-1.93,7.66-3.16,11.55-.16,2.9-4.48,7.33-9.41,13.2-8.7,2.7.34,4.96,2.16,7.42,3.18,3.4,1.38,7.17,1.66,10.72,2.47,3.01.82,6,1.99,9.07,2.6,3,.58,6.19.64,9.07,1.78,7.71,2.48,8.32,11.16,17.32,10.51,2.78-.24,5.66-.81,8.25-1.86,3.46-2.74,6.72-5.99,10.72-7.94,2.03-.95,4.39-1.18,6.6-1.01,1.05-.06,2.23-.54,3.3-.45.41.04,1.25.21,1.65.34.4-.09,1.25-.28,1.65-.38,1.59-.41,3.32-.79,4.95-.99,4.42-.68,8.91-.45,13.2.9.82.08,1.76-.53,2.47-.86,1.29-.62,2.76-1.28,4.12-1.73,6.43-2.13,13.24-.18,19.8.23"/><path class="b" d="M13.11,108.06c3.09-.91,6.15-2.14,9.07-3.48,3.81-1.76,8.51-3.63,12.37-1l.82-.32c2.71-4.69,7.53-8.38,13.2-7.29,2.84.59,5.39,2.32,8.25,2.85,2.99.6,6.11.93,9.07,1.66,3.05.74,6.04,1.96,9.07,2.76,3.54.92,7.37.85,10.72,2.44,1.41.67,2.84,1.72,4.12,2.61,1.13,1.02,2.27,2.43,3.3,3.56,1.85,2.13,4.5,3.83,7.42,3.65,3.4-.19,6.73-1.36,9.9-2.53.75-.29,1.77-.7,2.47-1.09.72-.63,1.73-1.48,2.47-2.09,2.71-2.15,5.59-4.51,9.07-5.19,1.16-.06,2.3-.8,3.3-1.32,2.59-1.35,4.94-.96,7.42.43,3.5-.66,7.16-1.06,10.72-.93,1.62.12,3.36.43,4.95.78.74.16,1.7.57,2.47.53,9.11-4.1,16.05-2.88,25.57-1.75"/><path class="b" d="M13.11,106.29c3.03-1.13,6.09-2.41,9.07-3.66,3.87-1.62,8.49-2.93,12.37-.67.69-.15,1.32-1.11,1.65-1.66.68-.93,1.56-2.18,2.47-2.9,5.93-3.95,9.31-3.23,15.67-1.15,3.8.86,7.79,1.06,11.55,2.14,4.15,1.07,8.12,3.01,12.37,3.67,5.07.6,7.42,1.62,11.55,4.51,3.56,3.15,5.95,7.88,11.55,6.75,5.21-1.13,10.13-3.49,14.85-5.92,2.09-1.51,4.27-3.11,6.6-4.24,2.04-1.44,4.19-3.03,6.6-3.78,1.91-.66,4.02-.22,5.77.68,1.03.4,2.15,1.31,3.3,1.21,4.66-.3,9.54-.68,14.02.91,1.37.04,2.8-.67,4.12-.96,1.58-.43,3.33-.76,4.95-.96,5.75-.66,11.6-.07,17.32.65"/><path class="b" d="M13.11,104.52c5.23-2.33,10.66-5.04,16.5-5.18,1.05,0,2.29.19,3.3.47.74.2,1.68.69,2.47.6.94-1.37,2-3.04,3.3-4.09,2.3-1.33,4.75-2.69,7.42-3.01,3.05-.51,6.09.49,9.07.99,3.86.55,7.81,1.03,11.55,2.23,3.6,1.04,7.06,2.72,10.72,3.54,2.8.49,5.67,1,8.25,2.26,1.34.78,2.75,1.81,4.12,2.54,3.72,2.83,5.97,7.81,11.55,6.48,2.86-.66,5.61-1.96,8.25-3.21,2.78-1.38,5.64-2.82,8.25-4.5,3.32-2.07,6.27-4.92,9.9-6.48,5.08-2.24,9.26,1.2,14.02,2.42,2.45-.12,4.99-.12,7.42.21,1.06.1,2.29.47,3.3.79.39-.05,1.26-.19,1.65-.27,8.09-2.03,16.52-1.66,24.74-.69"/><path class="b" d="M13.11,102.83c6.55-3.94,14.82-6.29,22.27-3.66.97-.58,1.73-1.96,2.47-2.78.84-1,2.15-1.64,3.3-2.19,5.09-2.94,9.25-2.89,14.85-1.98,3.9.46,7.83,1.17,11.55,2.44,3.31,1.08,6.52,2.67,9.9,3.53,2.8.56,5.63,1.41,8.25,2.57,1.51,1.2,3.38,2.12,4.95,3.22,3.08,2.16,5.63,6.3,9.9,5.65,4.04-.51,7.35-3.17,10.72-5.23,2.48-1.53,5.05-3.11,7.42-4.8,2.38-1.65,4.76-3.55,7.42-4.73,2.58-1.15,5.62-1.31,8.25-.22,3.02.83,6,2.06,9.07,2.7,1.87.44,3.86.85,5.77,1.04.74.11,1.75.38,2.47.57.73.03,1.75-.02,2.47-.09,3-.35,6.05-.99,9.07-1.12,5.22-.25,10.47.21,15.67.61"/><path class="b" d="M13.11,101.31c2.94-2.1,6.25-3.96,9.9-4.39,2.43-.31,4.98-.18,7.42.03,1.9.23,3.96.33,5.77.96,1.51-1.52,2.76-3.66,4.95-4.29,2.85-1.5,5.87-2.95,9.07-3.47,5.24-.58,10.62.46,15.67,1.85,3.94,1.16,7.62,3.16,11.55,4.35,2.5.63,5.01,1.57,7.42,2.48.82.36,1.74,1.15,2.47,1.65.73.46,1.79.98,2.47,1.5,3,2.28,5.97,5.48,9.9,5.92,4.4.2,7.53-3.43,10.72-5.92,4.19-3.21,8.48-6.49,13.2-8.89,4.1-1.97,8.34-1.77,12.37.25,2.96.89,6.08,1.51,9.07,2.29,1.94.41,3.85,1.35,5.77,1.8,1.58.34,3.35.32,4.95.14,1.38-.06,2.82-.55,4.12-.96,1.01-.25,2.26-.39,3.3-.42,2.17-.04,4.45.18,6.6.46,3,.16,6.07.4,9.07.51"/><path class="b" d="M13.11,100.02c5.12-4.31,8.98-5.86,15.67-4.48,2.7.55,5.58.36,8.25,1,1.13-.89,2.09-2.33,3.3-3.13,2.48-1.05,4.92-2.41,7.42-3.44,4.47-2.17,9.26-2.09,14.02-1.08,4.96.73,9.47,3,14.02,4.97,2.71,1.01,5.57,1.87,8.25,2.98,1.19.35,2.27,1.37,3.3,2.01,2.14.96,3.88,2.78,5.77,4.11,1.73,1.23,3.75,2.24,5.77,2.88,5.44,1.68,8.81-4.39,12.37-7.4,3.17-2.93,6.74-5.64,10.72-7.36,3.34-1.43,7.22-1.62,10.72-.72,1.37.43,2.8,1.17,4.12,1.69,2.66.8,5.58.89,8.25,1.73,2.83.75,6.18,4.1,9.07,2.25,4.56-2.52,9.95-1.61,14.85-.82,3.23.63,6.61.7,9.9.76"/><path class="b" d="M13.11,99.03c5.94-5.25,9.48-6.9,17.32-4.5,2.41.65,5,.14,7.42.57,1.6-.57,2.42-2.64,4.12-3.12,4.11-1.7,7.93-4.36,12.37-5.21,2.43-.56,5-.2,7.42.21,2.2.38,4.48.85,6.6,1.55,3.69,1.24,7.01,3.51,10.72,4.69,1.93.6,3.89,1.49,5.77,2.22,1.25.95,2.75,1.79,4.12,2.52,3,2.33,6.16,4.7,9.9,5.69,1.01.3,2.25.56,3.3.7,2.46-.53,4.2-2.73,5.77-4.53,3.41-4.18,7.26-8.39,12.37-10.44,3.9-1.66,8.35-1.36,12.37-.32,1.66.51,3.3,1.47,4.95,1.99,2.43.48,5.17.07,7.42,1.31,1.37.73,2.69,1.92,4.12,2.51,3.27-1.76,6.98-2.92,10.72-2.48,3.88.33,7.72,1.32,11.55,2.01,2.43.28,4.97.48,7.42.41"/><path class="b" d="M13.11,98.27c1.9-1.48,3.68-3.36,5.77-4.59,3.46-2.09,7.86-2.01,11.55-.59,1,.4,2.26.04,3.3.15,1.89.18,3.88.15,5.77.06.68-.71,1.59-1.62,2.47-2.06,1.08-.32,2.32-.82,3.3-1.38,3-1.46,5.91-3.32,9.07-4.43,2.37-.84,4.99-.63,7.42-.25,2.48.38,5.03.87,7.42,1.62,3.8,1.09,7.02,3.61,10.72,4.93,2.27.74,4.69,1.56,6.6,3.05,1.02.6,2.37,1.04,3.3,1.8,2.73,2.04,5.66,4.12,9.07,4.77,1.58.35,3.33.55,4.95.6,1.39-.19,2.4-1.71,3.3-2.67,3.3-4.2,6.52-8.96,11.55-11.22,3.33-1.57,7.19-1.62,10.72-.73,2.58.32,5.06,1.31,7.42,2.35.99.4,2.26.28,3.3.18,2.25-.27,4.21,1.11,5.77,2.56,2.02-.39,3.75-1.91,5.77-2.28,9.26-.97,17.97,4.01,27.22,3.48"/><path class="b" d="M13.11,97.57c2.01-1.38,3.75-3.33,5.77-4.69,3.56-2.54,7.49-2.17,11.55-1.47,1.9-.43,3.9.04,5.77.36,1.04.09,2.27-.03,3.3-.18.83-.04,1.86-.39,2.47-.97.68-.42,1.73-.64,2.47-.9,3.19-1.25,6.1-3.23,9.07-4.91,2.47-1.46,5.45-1.74,8.25-1.3,2.47.32,5.01.79,7.42,1.43,1.95.52,3.97,1.26,5.77,2.18,1.62.86,3.28,1.97,4.95,2.74,1.56.74,3.39,1.15,4.95,1.89,1,.63,2.14,1.52,3.3,1.84,2.4.97,4.32,3,6.6,4.2,3.55,1.67,7.73,1.37,11.55,1.14,4.13-4.81,7.38-11.39,14.02-13.06,2.99-.86,6.15-.25,9.07.57,1.63.33,3.41.64,4.95,1.32,4.73,2.46,5.03-1.3,9.07,2.41,1.14-.19,2.2-1.16,3.3-1.5,1.03-.34,2.2-.94,3.3-1.02,1.9-.16,3.9.16,5.77.46,3.88.66,7.75,1.66,11.55,2.67,2.13.64,4.4,1.13,6.6,1.45,1.59.2,3.37.47,4.95.07"/><path class="b" d="M13.11,95.73c.76-.18,1.78-.38,2.47-.74.74-.63,1.72-1.51,2.47-2.12,1.66-1.35,3.65-2.54,5.77-2.93,1.88-.42,3.88-.02,5.77-.06,2.41-.54,5.03-.57,7.42.08,2.5.58,5.07-.2,7.42-.99,3.68-.9,6.8-3.25,9.9-5.31,2.9-2.01,6.55-2.01,9.9-1.39,2.76.43,5.59,1,8.25,1.86,3.27.92,6.13,2.88,9.07,4.49,1,.48,2.25.92,3.3,1.25.78.33,1.73,1,2.47,1.4,1.4.51,2.96,1.06,4.12,2.05,1.88,1.58,4.02,3.27,6.6,3.31,3.29.04,6.64-.56,9.9-.98,4.38-6.01,8.78-12.71,17.32-11.14,1.71-.47,3.58-.4,4.95.85.65.48,1.72.63,2.47.85,1.04.33,2.23.87,3.3,1.13,2.94.27,2.83-1.37,5.77,1.22,3.25-3.38,7.28-3.18,11.55-2.39,3.31.5,6.67,1.09,9.9,1.97,2.74.7,5.49,1.66,8.25,2.27,2.39.64,5.1,1.16,7.42.01"/><path class="b" d="M13.11,93.7c1.32-.37,2.8-.74,4.12-1.07,1.17-.45,2.21-1.57,3.3-2.19,1.46-.92,3.22-1.58,4.95-1.73.74-.07,1.74-.04,2.47-.09,1.57-.46,3.32-.57,4.95-.63,3.02-.18,6.06.66,9.07.54,3.47-.49,7.01-1.47,9.9-3.53,1.85-1.3,3.67-2.92,5.77-3.81,2.6-1.08,5.55-.64,8.25-.23,3.34.54,6.73,1.3,9.9,2.49,2.31.83,4.53,2.09,6.6,3.4,1.26.75,2.83,1.24,4.12,1.91,1.24.76,2.85,1.02,4.12,1.66,1.68,1.1,3.12,2.81,4.95,3.68,2.63,1.26,5.6.26,8.25-.42,1.87-.54,3.98-.72,5.77-1.51,3.02-4.5,7.31-9.26,13.2-9.06.8-.01,1.72-.57,2.47-.78,1.35-.4,2.96-.22,4.12.6.76.53,1.54,1.59,2.47,1.84,1.33.39,2.73,1.14,4.12,1.27.42,0,1.25-.11,1.65-.24.87-.1,1.84.53,2.47,1.06.93-.27,1.68-1.37,2.47-1.87,1.94-1.3,4.42-.89,6.6-.68,4.7.46,9.42,1.24,14.02,2.33,2.18.54,4.46,1.14,6.6,1.84,3.14,1.23,6.2,1.75,9.07-.43"/><path class="b" d="M13.11,91.7c2.44-.8,5.03-1.39,7.42-2.32,2.69-.98,5.39-2.24,8.25-2.64,2.16-.2,4.42-.56,6.6-.4,2.17.27,4.41.66,6.6.71,3.4.21,6.96-.68,9.9-2.41,2.93-1.84,5.46-4.86,9.07-5.31,2.74-.3,5.56.27,8.25.74,3.65.7,7.32,1.72,10.72,3.23,2.26.95,4.34,2.49,6.6,3.43.72.32,1.73.74,2.47,1.02.77.19,1.83.44,2.47.93,5.15,4.66,6.43,5.54,13.2,2.89,1.88-.68,3.94-1.23,5.77-2.02,2.31-3.13,5.21-6.22,9.07-7.3,1.02-.35,2.34-.29,3.3-.8,2.01-1.06,4.66-1.48,6.6-.05.74.58,1.66,1.53,2.47,2.01.39.16,1.26.5,1.65.68.97.45,2.24.64,3.3.58.85-.07,1.85.5,2.47,1.04,2.76-2.89,3.37-3.13,7.42-3.13,5.88-.12,11.64,1.55,17.32,2.86,1.61.44,3.41.76,4.95,1.42,4.06,1.96,6.62,1.07,9.9-1.76"/><path class="b" d="M13.11,89.82c4.11-1.42,8.22-3.03,12.37-4.32,1.3-.37,2.79-.5,4.12-.67,1.6-.23,3.33-.51,4.95-.48,2.77.11,5.46,1.25,8.25,1.3,3.34.04,6.95-.35,9.9-2.01,2.76-1.7,5.05-4.45,8.25-5.35,2.42-.59,5-.17,7.42.19,3.05.49,6.13,1.21,9.07,2.14,3.12.99,6.24,2.25,9.07,3.9,1.57.69,3.41,1.09,4.95,1.85,5.12,3.97,6.11,6.97,13.2,3.76,1.88-.81,3.96-1.52,5.77-2.47,3.64-4.7,6.46-6.79,12.37-7.81,2.05-.94,4.65-1.25,6.6.08,1.05.71,2.12,1.86,3.3,2.36,1.76,1.01,4,1.04,5.77,1.99l.82-.25c2.09-3.29,6.38-3.46,9.9-3.51,2.22.06,4.46.68,6.6,1.22,2.76.6,5.54,1.43,8.25,2.23,1.03.3,2.26.63,3.3.91.72.31,1.71.78,2.47.99,3.57,1.02,6.51-1.81,9.07-3.85"/><path class="b" d="M13.11,88.19c3.79-1.6,7.59-3.4,11.55-4.55,1.3-.37,2.8-.48,4.12-.69,1.88-.32,3.86-.73,5.77-.69,2.85.03,5.46,1.6,8.25,2,2.19.36,4.48-.09,6.6-.64,1.32-.39,2.87-.52,4.12-1.1,2.56-1.52,4.68-3.91,7.42-5.12,4.28-1.49,9.7.05,14.02.98,5.66,1.41,11.14,3.59,16.5,5.87,5.64,3.38,6.34,8.02,14.02,4.35,1.33-.63,2.94-1.17,4.12-2.07.39-.49,1.25-1.46,1.65-1.95,2.51-3.07,5.91-5.59,9.9-6.26,1.02-.22,2.28-.18,3.3-.42,1.6-.43,3.47-.34,4.95.46,1.32.77,2.72,1.79,4.12,2.41,1.57.58,3.36.97,4.95,1.51.49-.18,1.29-.8,1.65-1.18.68-.53,1.72-1.05,2.47-1.45,2.79-1.22,6.08-1.56,9.07-1.02,5.02,1.16,9.95,2.89,14.85,4.48,5.4,2.58,8.31-1.1,12.37-3.94"/><path class="b" d="M13.11,86.87c3.55-1.67,6.97-3.84,10.72-5.03,2.12-.62,4.45-.76,6.6-1.27,5.76-1.21,7.38.32,12.37,2.27,3.64,1.3,7.17-.91,10.72-1.47,1.91-.34,3.44-1.85,4.95-2.95,4.18-3.7,8.95-3.03,14.02-2.09,6.16,1.33,12.26,3.19,18.15,5.45,3.1,1.33,5.44,4.05,8.25,5.83,2.02,1.22,4.54.8,6.6-.11,2.13-.6,3.56-2.49,4.95-4.09,1.68-1.92,3.56-3.92,5.77-5.22,3.96-2.24,8.84-2.68,13.2-1.49,2.13.89,4.32,1.96,6.6,2.45,1.05.24,2.2,1,3.3.92,3.52-3.07,8.58-4.71,13.2-3.53,3.66.9,7.16,2.49,10.72,3.69,1.86.61,3.78,1.59,5.77,1.59,3.98.06,6.62-3.39,9.9-5.08"/><path class="b" d="M13.11,85.78c3.44-1.52,6.41-4.06,9.9-5.48,1.81-.78,3.88-.93,5.77-1.37,2.4-.53,4.97-1.02,7.42-.61,3.55.42,6.25,4.03,9.9,3.71,3.26-.93,6.55-1.97,9.9-2.56,2.12-.74,3.79-2.63,5.77-3.66,2.97-1.74,6.61-1.51,9.9-1.05,3.63.5,7.2,1.59,10.72,2.57,3.01.9,6.2,1.49,9.07,2.77,4.55,1.96,8.49,8.91,14.02,5.94,3.83-2.44,6.1-6.78,9.9-9.29,2.89-1.88,6.47-2.75,9.9-2.74,1.67,0,3.38.59,4.95,1.09,3.1.67,6.3,1.39,9.07,2.97.88-.87,2.12-1.62,3.3-1.97,5.23-3.83,11.1-1.98,16.5.38,2.91,1.26,5.83,3.12,9.07,3.26,4.19.06,7.09-3.48,10.72-4.96"/><path class="b" d="M13.11,84.65c4.29-1.28,7.27-5.22,11.55-6.57,4.53-.93,9.52-2.84,14.02-.87,1.99.92,3.75,2.52,5.77,3.37,2.49-.39,4.97-1.29,7.42-1.84,1.88-.35,3.92-.44,5.77-.93,1.51-.39,2.81-1.6,4.12-2.39,1.71-1.1,3.74-1.89,5.77-2.05,5.33-.43,10.56,1.2,15.67,2.49,6.64,1.69,8.61,1.4,14.02,6.2,4.48,3.88,7.54,3.77,11.55-.65,2.52-2.68,4.88-5.86,8.25-7.53,3.56-1.49,7.73-2.46,11.55-1.46,1.52.74,3.33.54,4.95.88,2.05.39,4,1.43,5.77,2.48.89-.81,2.13-1.48,3.3-1.78,1.46-1.03,3.17-1.93,4.95-2.25,6.58-1.03,12.56,2.84,18.15,5.73,5.24,1.55,8.79-2.46,13.2-4.25"/><path class="b" d="M13.11,83.15c4.34-.12,7.04-4.35,10.72-6.1,1.5-.82,3.32-1.06,4.95-1.47,2.12-.53,4.4-.98,6.6-.86,3.18.04,5.76,2.12,8.25,3.83,1.08.04,2.25-.55,3.3-.75,1.61-.34,3.34-.72,4.95-1.04,2.16-.29,4.45.06,6.6-.35,1.79-.39,3.42-1.38,4.95-2.34,1.74-.98,3.78-1.62,5.77-1.78,5.03-.44,9.99.98,14.85,2.07,7.09,1.53,8.33,1.25,14.02,6.26,4.67,4.02,7.79,2.62,11.55-1.63,2.44-2.68,4.79-5.87,8.25-7.27,3.53-1.12,7.98-2.34,11.55-.93,1.02.17,2.27-.06,3.3.03,1.08.07,2.32.43,3.3.89.41.19,1.26.63,1.65.88,0,0,.82.63.82.63,0,0,.82.13.82.13.91-.74,2.16-1.3,3.3-1.55,1.29-.74,2.64-1.73,4.12-2.07,5.05-1.12,10.31.73,14.85,2.89,1.07.56,2.29,1.32,3.3,1.98.71.44,1.61,1.16,2.47,1.23,1.93.49,3.98-.06,5.77-.78,2.08-.74,4.03-1.95,5.77-3.28"/><path class="b" d="M13.11,81.09c4.98,1.55,8.16-4.43,12.37-6.01,2.37-.82,4.95-1.34,7.42-1.76,3.71-.59,7.03.54,9.9,2.89,1.1.25,2.24-.57,3.3-.78,2.13-.52,4.42-.86,6.6-1.06,2.18-.02,4.41.73,6.6.52,1.06-.19,2.26-.66,3.3-.94,6.89-3.94,12.34-3.12,19.8-1.66,3,.64,6.12,1.12,9.07,1.94,2.43,1.08,4.48,2.99,6.6,4.56,4.73,3.55,7.65,3.03,11.55-1.3,2.86-3.09,5.5-7.14,9.9-8.05,2.4-.54,4.95-1.07,7.42-1.03.74.04,1.74.35,2.47.45.39-.06,1.25-.18,1.65-.23,2.7-.41,5.49.73,7.42,2.6,1.28-.68,2.66-1.52,4.12-1.73,1.32-.66,2.63-1.72,4.12-2.01,5.08-.82,11.02.74,15.67,2.79,2.03.85,3.78,2.49,5.77,3.36,2.27.15,4.61-.45,6.6-1.54,1.33-.75,2.67-1.87,4.12-2.39"/><path class="b" d="M13.11,78.96c2.16.62,4.57.08,6.6-.76,1.93-1.32,3.71-3.08,5.77-4.22,1.23-.7,2.75-1.01,4.12-1.3,1.86-.45,3.85-.89,5.77-.89,1.36,0,2.85.24,4.12.72,1.11.32,2.11,1.46,3.3,1.39,1.28-.57,2.75-1.13,4.12-1.42,2.41-.37,4.99-.85,7.42-.47,2.15.42,4.37,1.49,6.6,1.15,1.31-.37,2.8-.74,4.12-1.05,1.04-.41,2.23-.99,3.3-1.31,3.73-1.17,7.74-1.06,11.55-.35,2.73.46,5.52,1.05,8.25,1.57,1.04.22,2.31.35,3.3.74,1.11.56,2.32,1.41,3.3,2.17,4.11,3.26,9.6,6.77,14.02,1.98,5.76-5.85,5.73-8.89,14.85-9.82,1.6-.33,3.34-.32,4.95-.11,1.02-.22,2.26-.43,3.3-.49,1.39-.09,2.93.31,4.12,1.03.76.4,1.61,1.3,2.47,1.47,1.13-.94,2.69-1.47,4.12-1.71,1.68-1.18,3.65-2.2,5.77-2.05,4.7.37,9.55.83,14.02,2.43,1.38.48,2.87,1.17,4.12,1.93,1.05.58,2.16,1.54,3.3,1.93,1.69-.18,3.42-.8,4.95-1.5,1.32-.6,2.69-1.54,4.12-1.86"/><path class="b" d="M13.11,76.75c2.51.68,5.09-.37,7.42-1.23.73-.27,1.73-.63,2.47-.88,1.3-.85,2.68-1.93,4.12-2.53,1.26-.54,2.8-.7,4.12-1,3.24-.73,6.85-.99,9.9.57,2.69-.92,5.33-2.2,8.25-2.28,1.6-.11,3.36-.27,4.95.03,1.37.29,2.81.92,4.12,1.38,1.01.31,2.23.66,3.3.66,1.6-.36,3.34-.66,4.95-.96,7.84-2.56,10.16-2.17,18.15-.53,1.6.32,3.34.66,4.95.95,1.19.09,2.34.96,3.3,1.6,1.57,1.11,3.24,2.38,4.95,3.27,3.02,1.67,6.75,1.68,9.9.36.85-.54,1.81-1.53,2.47-2.28,5.44-6.38,5.38-7.42,14.02-8.44,1.02-.21,2.28-.02,3.3-.24,3.62-.84,7.19-1.01,9.9,1.99,1.42-1.06,3.19-1.79,4.95-2.03,1.32-1.19,3.16-1.93,4.95-1.76,2.18.18,4.42.71,6.6.9,3.02.28,6.14.41,9.07,1.25,1.98.52,3.99,1.33,5.77,2.33,1.04.46,2.11,1.51,3.3,1.47,2.23-.66,4.39-1.82,6.6-2.52"/><path class="b" d="M13.11,74.46c2.83.76,5.67-.53,8.25-1.56,1.57-.64,3.29-1.24,4.95-1.62,1.24-.68,2.72-1.2,4.12-1.33,1.89-.26,3.86-.67,5.77-.7.75-.01,1.74.05,2.47.16.48.18,1.2.12,1.65-.1,3.42-1.41,6.97-2.71,10.72-2.69,1.33-.04,2.83-.05,4.12.32,2.49.77,4.84,2.22,7.42,2.72,1.32-.19,2.8-.36,4.12-.51,2.23-.17,4.45-.8,6.6-1.39,1.86-.43,3.89-.43,5.77-.2,3.59.44,7.16,1.4,10.72,2.01,1.77.62,3.36,1.96,4.95,2.92,5.07,3.44,9.65,3.21,14.85.15.4-.22,1.25-.68,1.65-.91.41-.48,1.26-1.47,1.65-1.97,1.89-2.35,4.25-4.84,7.42-5.18,2.44-.42,4.99-.63,7.42-1.08,3.15-.59,6.6-.99,9.07,1.51l.83.08c1.35-1.24,3.31-1.48,4.95-2.12,1.86-1.64,4.37-1.46,6.6-.78,1.58.41,3.32.78,4.95.91,9.68.19,11.54.25,20.62,4.21,1.36-.38,2.79-1.05,4.12-1.52"/><path class="b" d="M13.11,72.1c5.23,1.38,9.81-2.72,14.85-3.39,3.25-.64,6.71-.39,9.9-1.35,4.11-1.15,8.03-3.28,12.37-3.45,4.2-.45,6.3.49,9.9,2.38,1.02.46,2.23,1.01,3.3,1.34.74.03,1.74-.06,2.47-.09,1.89-.07,3.9-.13,5.77-.43,1.88-.38,3.82-1.08,5.77-1.03,2.77-.02,5.56.62,8.25,1.21,1.03.23,2.26.49,3.3.69,1.11.38,2.29,1.14,3.3,1.74,5.26,3.44,10,4.58,15.67,1.2,1.89-1.17,4.03-2.22,5.77-3.61,1.68-2.01,3.89-3.93,6.6-4.24,2.73-.35,5.53-.83,8.25-1.24,2.97-.58,6.05-.56,8.25,1.86.88-.86,2.11-1.6,3.3-1.92.76-.22,1.82-.39,2.47-.87,1.97-1.52,4.5-.75,6.6.06,1.56.56,3.3,1,4.95,1.1,3.83.21,7.72-.67,11.55-.1,4.48.55,8.79,2.12,13.2,3.01"/><path class="b" d="M13.11,69.64c4.56,1.58,8.97-1.07,13.2-2.48,3.18-1.17,6.7-.71,9.9-1.79,6.21-1.73,12.31-5.44,18.97-4.19,2.93.83,5.49,2.78,8.25,4.02.95.57,2.24.38,3.3.44,1.61.05,3.34.16,4.95.08,2.47-.15,4.93-1.09,7.42-.95,1.91.05,3.91.43,5.77.84,1.33.34,2.89.51,4.12,1.15,4.96,2.65,9.89,5.74,15.67,3.44,3.51-1.39,6.55-3.86,9.9-5.6,2.67-2.64,4.69-2.86,8.25-3.24,1.88-.38,3.88-.69,5.77-.97,2.51-.49,5.43-.6,7.42,1.28l.82.03c1.33-1.23,3.21-1.8,4.95-2.15,2.23-1.66,4.27-1.21,6.6-.07,1.79.83,3.79,1.54,5.77,1.65,3.03.22,6.06-.75,9.07-.82,2.96.69,6.06.58,9.07.73,2.18.21,4.41.73,6.6.9"/><path class="b" d="M13.11,67.03c7.25,2.76,10-1.91,16.5-2.71,4.94-.06,9.54-2.17,14.02-4.04,3.66-1.51,8.44-3.06,12.37-1.98,3.22,1.25,5.94,3.65,9.07,5.08,2.46.08,4.97.55,7.42.67,1.91.08,3.87-.56,5.77-.63,2.75-.2,5.61.25,8.25,1.04,5.02,2,9.99,5.58,15.67,4.32,4.62-.87,8.17-4.33,12.37-6.2.74-.41,1.7-1.12,2.47-1.48,1.25-.55,2.78-.66,4.12-.73,2.48-.26,4.94-1.12,7.42-1.39,2.52-.52,5.45-.55,7.42,1.36.76-.43,1.68-1.18,2.47-1.54,1-.43,2.24-.74,3.3-.97,1.86-1.31,3.87-1.08,5.77,0,1.8.94,3.73,1.96,5.77,2.24,1.61.23,3.36.07,4.95-.24,1.04-.15,2.24-.65,3.3-.46,1.28.51,2.76.98,4.12,1.2,4.4.64,8.78-1.12,13.2-.9"/><path class="b" d="M13.11,64.46c6.2,2.83,10.87-3.25,17.32-2.62.75.04,1.74.17,2.47.27,1.07-.15,2.29-.54,3.3-.92,2.2-.85,4.47-1.82,6.6-2.84,2.59-1.22,5.44-1.97,8.25-2.45,1.87-.29,3.9-.67,5.77-.26,1.17.29,2.33,1.14,3.3,1.82,1.64,1.07,3.33,2.34,4.95,3.44,3.04.26,6.05,1.13,9.07,1.47,2.75-.07,5.44-.72,8.25-.28,3.23.3,6.16,1.89,9.07,3.17,2.58,1.11,5.42,1.9,8.25,1.8,3.97,0,7.47-2.09,10.72-4.14,1.28-.72,2.77-1.46,4.12-2.04.94-.59,2.18-1.17,3.3-1.3,1.89-.17,3.94.04,5.77-.61,1.82-.72,3.83-1.19,5.77-1.45,2.27-.46,4.74-.12,6.6,1.33.89-.84,2.12-1.61,3.3-1.96,1.03-.34,2.33-.49,3.3-1,5.32-2.26,7.13,5.74,17.32,2.5,1.92.64,3.72,1.96,5.77,2.27,4.44.75,8.87-.94,13.2-1.74"/><path class="b" d="M13.11,62.16c3.12,1.07,6.25-.48,9.07-1.7,2.05-.87,4.36-1.43,6.6-1.33,5.53.32,4.23,1.98,9.9-.81,2.15-.97,4.32-2.2,6.6-2.87,3.48-.97,7.14-1.47,10.72-1.91,3.72-.54,6.4,2.6,9.07,4.66,3.39.22,6.59,1.64,9.9,2.3,1.59.35,3.34-.19,4.95-.12,2.21-.01,4.53.35,6.6,1.15,7.66,3.61,14.64,5.46,22.27.53,2.34-1.28,4.86-2.57,7.42-3.31,1.88-.29,3.9.27,5.77-.12,1.72-.31,3.35-1.3,4.95-1.94,3.12-.68,6.18-1.24,9.07.54,1.79-1.67,4.32-2.07,6.6-2.66,2.24-1.34,4.69.15,6.6,1.39,1.48.93,3.2,1.78,4.95,2.02,1.91.33,3.9-.21,5.77-.48,1.72,1.21,3.69,2.36,5.77,2.78,4.41.69,8.92-.4,13.2-1.39"/><path class="b" d="M13.11,59.75c2.28.44,4.57-.51,6.6-1.46,5.7-2.96,9.84-1.98,15.67-.27,3.16-.92,5.93-3,9.07-3.97,2.38-.72,4.97-.89,7.42-1.22,1.9-.22,3.88-.67,5.77-.92,2.08-.26,4.3.53,5.77,2.02.38.41,1.14,1.07,1.65,1.29.42.03,1.23.14,1.65.21,3.43.6,6.51,2.55,9.9,3.33,1.3.31,2.8-.13,4.12-.01,3.19-.04,6.19,1.23,9.07,2.46,4.92,1.99,10.62,2.59,15.67.72,3.02-1.24,5.89-3.07,9.07-3.92,2.71-.43,5.57.45,8.25-.34,1.44-.36,2.85-1.25,4.12-1.98,2.85-1,6.31-1.55,9.07-.02,2.16-1.6,4.92-1.9,7.42-2.64,5.26-1.95,7.37,5.98,16.5,3.58,1.83,1.02,3.67,2.35,5.77,2.73,4.38.61,8.89-.14,13.2-.94"/><path class="b" d="M13.11,57.25c6.83-.06,7.9-5.42,18.15-2.66,1.62.41,3.32,1.04,4.95,1.41,1.12-.05,2.31-.72,3.3-1.21,4.87-3.05,7.78-2.74,13.2-3.19,3.82-.34,8.27-2.75,11.55.36,5.25-.26,9.18,3.81,14.02,5.08,2.76-.08,5.65-.07,8.25.99,3.91,1.67,8.08,3,12.37,2.99,2.49.03,5.08-.35,7.42-1.21,2.68-1.04,5.36-2.5,8.25-2.87,1.88-.21,3.89.09,5.77.02,1.67-.04,3.45-.46,4.95-1.21.76-.37,1.75-.99,2.47-1.43.73-.2,1.74-.44,2.47-.59,1.3-.27,2.8-.43,4.12-.25.75.11,1.71.54,2.47.33.96-.55,2.22-.99,3.3-1.22,1.03-.24,2.27-.52,3.3-.74,1.01-.32,2.23-.71,3.3-.42,1.48.39,2.87,1.45,4.12,2.29,3.57,2.56,6.5,2.76,10.72,2.15,2.41,1.66,5.36,2.28,8.25,2.03,3.01-.08,6.09-.39,9.07-.8"/><path class="b" d="M13.11,54.65c1.05-.08,2.28-.1,3.3-.38,1.35-.44,2.79-1.1,4.12-1.58,5.46-2.24,11.15.05,16.5,1.43,1.48.09,2.86-1.02,4.12-1.67,2.7-1.73,5.95-2.01,9.07-1.89,1.9,0,3.93-.11,5.77-.6,2.11-.59,4.39-1.38,6.6-.89.99.45,2.25.24,3.3.3,1.65.05,3.44.36,4.95,1.04,3.01,1.48,5.6,4.44,9.07,4.76,1.33-.07,2.81,0,4.12.23,2.54.48,4.92,1.77,7.42,2.4,5.94,1.69,12.44,1.59,18.15-.88,1.81-.72,3.81-1.31,5.77-1.33,2.72-.04,5.58.43,8.25-.33,1.39-.39,2.86-1.08,4.12-1.78,1.6-.42,3.31-.95,4.95-1.21,1.32-.21,2.83-.17,4.12.15,1.05-.21,2.24-.74,3.3-.92,1.9-.41,3.92-.8,5.77-1.38,1.46-.24,2.97.53,4.12,1.37,5,3.98,7.61,4.86,14.02,3.88,1.33-.2,2.78.42,4.12.34,3.56.1,7.18-.16,10.72-.4"/><path class="b" d="M13.11,51.81c2.41-.55,4.94-1.23,7.42-.9,1.88-.31,3.86-.67,5.77-.56,3.91.14,7.73,1.33,11.55,2.08,1.45-.28,2.84-1.2,4.12-1.88,3.26-1.97,7.13-1.2,10.72-1.24,2.55.01,4.97-1.08,7.42-1.59,2.15-.27,4.43-.2,6.6-.21,2.58.05,5.31.58,7.42,2.15,2.15,1.63,4.53,3.89,7.42,3.51,1.95,0,3.97.41,5.77,1.13,5.75,2.06,12.06,3.19,18.15,2.17,1.95-.37,3.86-1.33,5.77-1.83,4.28-1.42,8.91.4,13.2-.94,1.85-.69,3.82-1.33,5.77-1.66,1.61-.35,3.3-.98,4.95-1.13,1.03-.11,2.27.14,3.3.09,1.58-.44,3.35-.71,4.95-1.1,1.64-.24,3.25-1.42,4.95-.89,1.88.63,3.42,2.21,4.95,3.41,2.27,1.94,5.25,3.09,8.25,3.01,2.72-.1,5.53-.21,8.25-.41,3.01-.35,6.06-.99,9.07-1.32"/><path class="b" d="M13.11,48.86c4.02-1.58,8.48-1.96,12.37.21,2.97.53,6.09.75,9.07,1.26,5.12,1.12,6.32-1.64,10.72-2.48,3-.42,6.07.48,9.07.11,2.5-.31,4.9-1.52,7.42-1.7,3.27-.15,6.66-.36,9.9.23,2.14.41,4.08,1.69,5.77,3,.98.63,2.17,1.38,3.3,1.7,1.04-.04,2.27-.03,3.3.08,2.25.25,4.41,1.26,6.6,1.78,4.28,1.11,8.76,1.88,13.2,1.59,2.86-.06,5.49-1.45,8.25-2.04,3.25-.73,6.62.12,9.9.02,1.66-.07,3.35-.69,4.95-1.05,3.05-.3,6.08-1.18,9.07-1.78,1.6-.31,3.37.24,4.95-.07,1.33-.25,2.82-.6,4.12-.98.67-.42,1.69-.91,2.47-1.03,3.51-.3,5.58,3.44,8.25,5.12,2.81,2.11,6.51,2.39,9.9,2.09,4.53-.08,8.82-1.8,13.2-2.73"/><path class="b" d="M13.11,45.98c5.29-2.17,10.96-1.57,15.67,1.67,1.38,1.14,3.26,1.14,4.95,1.33,1.37.19,2.8.11,4.12-.27.76-.07,1.76-.17,2.47-.46,6.7-3.54,7.49-1.3,14.02-1.59,1.94-.21,3.88-.96,5.77-1.38,1.58-.33,3.34-.28,4.95-.35,3.57-.04,7.39-.44,10.72,1.13,1.97.87,3.78,2.3,5.77,3.13,1.9-.03,3.94-.04,5.77.56,8.42,2.95,15.26,3.63,23.92,1.11,4.33-1.29,8.84.66,13.2-.22,2.14-.47,4.45-.4,6.6-.85,3.78-.72,7.68-1.66,11.55-1.12,3.24.25,4.7-3.41,8.25-1.67,2.72,1.63,4.57,4.57,7.42,6.03,3.52,1.84,7.81,1.47,11.55.53,3.07-.88,6.02-2.34,9.07-3.27"/><path class="b" d="M13.11,43.44c5.99-2.22,11.95-1.41,17.32,1.94,1.04.6,2.2,1.43,3.3,1.93,1.92.43,3.88-.09,5.77-.4,1.75-.11,3.35-1.15,4.95-1.74,3.2-1.26,6.61.19,9.9,0,2.5-.14,4.94-1.11,7.42-1.33,4.37-.06,8.87-.67,13.2.16,2.63.57,5.05,1.93,7.42,3.14,1.03.2,2.26-.03,3.3.07,1.07.07,2.29.44,3.3.8,7.24,3.31,13.96,2.17,21.45.65,3.56-.52,7.19-.18,10.72.37,2.44.13,4.98-.1,7.42-.18,3.85-.39,7.67-1.32,11.55-1.46,1.02-.12,2.27-.2,3.3-.13.39.05,1.25.12,1.65.13.46-.11,1.29-.57,1.65-.87,8.3-5.31,8.04,10.33,22.27,6.02,3.44-1.15,6.53-3.28,9.9-4.61"/><path class="b" d="M13.11,41.26c7.16-2.32,13.38-1.42,19.8,2.37,1.07.56,2.28,1.32,3.3,1.97,1.6.33,3.37-.03,4.95-.31,1.71-.29,3.31-1.32,4.95-1.85,2.95-.98,6.06.22,9.07.04,2.75-.09,5.5-.95,8.25-1.06,4.1-.02,8.3-.54,12.37.14,2.6.41,5.08,1.5,7.42,2.64,1.61.16,3.38-.25,4.95.36,7.51,3.08,8.42,3.14,16.5,1.56,1.88-.35,3.86-.83,5.77-.95,1.89-.11,3.89.05,5.77.22,3.29.31,6.58,1.15,9.9,1.19,3.32.11,6.63-.61,9.9-1.05,2.99-.3,6.11-.26,9.07-.77,1.36-.27,2.91-.43,4.12-1.15,6.49-2.57,7.66,9.49,18.15,6.95,4.28-1.13,7.56-4.47,11.55-6.24"/><path class="b" d="M13.11,39.37c7.56-2.27,15.55-1.83,22.27,2.56,1.04.61,2.18,1.46,3.3,1.9,1.33.23,2.81.36,4.12-.06,1.39-.38,2.79-1.19,4.12-1.7,3.16-1.3,6.61-.07,9.9-.28,2.19-.04,4.44-.46,6.6-.77,4.38-.06,8.84-.51,13.2.1,2.59.29,5,1.56,7.42,2.42,1.91-.32,3.98-.27,5.77.51,7.3,3.56,8.29,2.19,15.67.31,3.22-.92,6.64-.67,9.9-.08,2.46.46,4.94,1.27,7.42,1.65,3.82.63,7.76.2,11.55-.46,2.42-.44,4.98-.39,7.42-.57,2.47-.21,4.98-.81,7.42-1.22.76-.08,1.72-.55,2.47-.68.77-.11,1.81.15,2.47.54,4.39,3.07,6.85,7.93,13.2,6.26,4.39-1.36,7.44-5.26,11.55-7.19"/><path class="b" d="M13.11,37.75c7.8-2.12,16.93-2.72,23.92,2,1.05.63,2.11,1.69,3.3,2.05,1.62.02,3.38-.04,4.95-.44,1.35-.31,2.81-.8,4.12-1.23,2.97-.69,6.07.21,9.07.07,1.92.04,3.88-.48,5.77-.64,3.83-.1,7.72-.37,11.55-.05,2.88.24,5.49,1.78,8.25,2.48,1.88-.23,3.92-.56,5.77.03,1.66.53,3.34,1.4,4.95,2.07,3.7,1.47,7.26-1.19,10.72-2.17,2.94-1.02,6.13-.52,9.07.26,2.46.72,4.91,1.79,7.42,2.31,4.06.86,8.32.38,12.37-.3,4.63-.77,9.44-.27,14.02-1.38,1.61-.31,3.32-.87,4.95-1.09,4.81.47,6.78,7.13,13.2,6.26,4.93-.94,7.96-5.68,12.37-7.75"/><path class="b" d="M13.11,36.28c9.12-2.34,20.42-3.74,28.04,2.99,2.47.27,4.97-.76,7.42-.92,3-.3,6.08,0,9.07.25,2.19.22,4.43-.24,6.6-.47,3.55-.09,7.18-.41,10.72-.05,1.36.17,2.84.54,4.12,1.01,1.61.14,3.34.31,4.95.5.74-.08,1.74-.05,2.47.04,1.33.22,2.81.46,4.12.72,1.96.57,3.85,1.62,5.77,2.28,5.16,1.43,8.55-5.16,14.85-3.35,2.6.53,5.01,1.85,7.42,2.88,4.93,2.17,10.5,1.51,15.67.68,3.52-.69,7.17,0,10.72-.21,3.39-.2,6.58-1.75,9.9-2.24,2.9.43,4.88,3.08,7.42,4.33,6.59,3.68,11.17-3.89,16.5-6.47"/><path class="b" d="M13.11,34.91c8.27-2.35,22.69-3.99,29.69,1.91,1.89.16,3.86-.61,5.77-.48,3.28.16,6.62.41,9.9.63,5.74-.02,11.6-1.01,17.32.02.73.24,1.72.16,2.47.1,1.04-.02,2.26.07,3.3.14,1.03.12,2.26,0,3.3.09,1.93.15,3.92.64,5.77,1.16,3.81.7,7.77,4.36,11.55,1.62,2.08-1.25,4.09-3.11,6.6-3.37,6.07,0,9.47,5.65,16.5,5.47,2.73,0,5.53-.37,8.25-.62,3.28.14,6.63.27,9.9.59,4,.24,7.72-1.75,11.55-2.58.72-.18,1.72-.48,2.47-.39,1.75.57,3.35,1.82,4.95,2.7,6.58,3.9,10.41-1.8,15.67-4.77l.83.34"/><path class="b" d="M13.11,33.6c7.22-2.08,14.84-2.73,22.27-1.5,2.18.27,4.49.38,6.6,1.04,1.13.3,2.15,1.28,3.3,1.48,3.28-.61,6.61.34,9.9.43,4.38.27,8.81.15,13.2.17,2.17,0,4.45.07,6.6.4,1.33-.06,2.79-.32,4.12-.23,1.33.15,2.8-.06,4.12-.03,4.53.27,9.04,1.43,13.2,3.24,2.11.9,4.67,1.19,6.6-.28,3.83-2.75,5.82-5.35,10.72-2.61,3.8,2.3,6.76,5.04,11.55,4.88,2.17.06,4.44-.58,6.6-.25,4.37.48,8.8,1.13,13.2,1.24,2.54-.21,4.99-1.26,7.42-1.94,2.66-.68,5.48-1.47,8.25-1.33,7.77,4.19,9.69,2.31,16.5-2.18.43.14,1.26.51,1.65.74"/><path class="b" d="M13.11,32.34c4.8-1.37,9.84-2.2,14.85-1.86,2.47.15,4.95.87,7.42,1.03,3.82.38,8.11-1.05,11.55,1.18,1.9-.22,3.89.11,5.77.35,2.16.23,4.43.44,6.6.54,4.1.25,8.26.24,12.37.4.74.04,1.74.13,2.47.22.74-.09,1.73-.24,2.47-.29,1.33-.06,2.8-.01,4.12-.22,3.58-.03,7.23.51,10.72,1.3,3.02.73,5.86,2.6,9.07,2.44,2.32.14,4.15-1.5,5.77-2.94,3.54-3.38,6.37-2.23,9.9.41,3.15,2.62,6.55,4.17,10.72,3.65.73-.06,1.74-.16,2.47-.23.74.11,1.74.34,2.47.5,2.7.6,5.51,1.04,8.25,1.36,1.88.19,3.88.56,5.77.34,1.64-.2,3.36-.75,4.95-1.17,1.06-.04,2.3-.31,3.3-.66,5.32-1.72,11.08.01,16.5-.75,2.06-.49,3.96-1.73,5.77-2.78.88-.14,1.75.64,2.47,1.04"/><path class="b" d="M13.11,31.09c5.06-1.47,10.46-2.43,15.67-1.21,2.95.78,5.96,1.9,9.07,1.59,2.77-.16,5.47-1.26,8.25-1.33,1.11-.03,2.31.44,3.3.89,4.4.17,8.79,1.14,13.2,1.23,3.83.09,7.72.27,11.55.36,2.16-.24,4.43-.29,6.6-.46,3.01.09,6.09.36,9.07.79,2.86.28,5.41,1.96,8.25,2.3,2.9.42,5.63-1.01,8.25-2.03,4.05-4.07,6.3-3.68,10.72-.37,2.54,2.11,5.7,3.68,9.07,3.43,1.32.06,2.88-.46,4.12.11,4.79,1.51,9.83,2.45,14.85,2.73,1.33.04,2.8-.4,4.12-.35,1.3.24,2.8.37,4.12.18,1.06-.14,2.31-.51,3.3-.91.69-.31,1.69-.77,2.47-.64,4.38.08,8.98,1.11,13.2-.57,1.38-.48,2.73-1.48,4.12-1.9.74.45,1.74,1.08,2.47,1.53"/><path class="b" d="M13.11,29.85c5.18-1.48,10.45-2.67,15.67-.66,2.14.81,4.31,1.9,6.6,2.23,6.21,1.15,10.19-3.73,14.85-2.47.77.24,1.7.77,2.47.99,1.61.15,3.34.4,4.95.55,5.47.45,11.01.47,16.5.57,3.83-.25,7.71-.47,11.55-.11,2.18.16,4.5.23,6.6.91,3.2,1.32,6.63,2,9.9.48,1.32-.54,2.77-1.22,4.12-1.7.75-.26,1.81-.54,2.47-.99,4.2-3.99,8.5,1.07,12.37,2.92,1.76.85,3.83,1.14,5.77,1.15,1.65-.03,3.43-.03,4.95.72,4.76,1.68,9.84,2.49,14.85,2.92,2.35.83,4.9,1.59,7.42,1.42,2.58-.1,5.05-1.13,7.42-2.05,5.15.63,9.24.82,14.02-1.65,1.04.49,2.26,1.14,3.3,1.65"/><path class="b" d="M13.11,28.58c5.02-1.28,9.81-2.94,14.85-.65,1.92.79,3.8,1.98,5.77,2.65,4.49,1.69,8.45.27,12.37-2.03,5.17-2.78,6.11-.7,10.72.72,2.45.08,4.98.08,7.42.1,3.83,0,7.72.16,11.55.11,3.83-.15,7.72-.24,11.55.04,3.96-.09,7.58,2.55,11.55,1.46,2-.52,3.88-1.66,5.77-2.45,1.54-.64,3.3-1.1,4.95-1.37.81,0,1.74-.6,2.47-.88.72-.23,1.74-.25,2.47-.07,3.46.99,6.34,3.58,9.9,4.3,2.14.48,4.45.49,6.6.9,1.84.79,3.84,1.52,5.77,2.03,2.14.56,4.42,1.02,6.6,1.4,2.11,1.01,4.34,2.06,6.6,2.7,3.19.92,6.65.96,9.9.31,1.93-.38,3.9-1.1,5.77-1.71,1.6-.02,3.35.12,4.95-.11,1.05-.13,2.3-.41,3.3-.76,1.67.14,3.35.96,4.95,1.41"/><path class="b" d="M13.11,27.27c5.73-1.25,10.06-3.42,15.67-.19,2.81,1.59,5.76,3.35,9.07,3.5,6.77.61,10.04-6.77,16.5-4.5,1.87.64,3.83,1.38,5.77,1.78,1.32.14,2.8-.02,4.12-.02,4.11-.03,8.26.12,12.37.1,3.83.05,7.72-.21,11.55.13,6.52,1.02,7.62,2.68,14.02-1.09,2.97-1.76,6.46-2.53,9.9-2.51,1.34.06,2.79-.53,4.12-.2,3.36.8,6.51,2.52,9.9,3.24,1.32.31,2.81.59,4.12.89,1.3.61,2.78,1.27,4.12,1.78,2.36,1.01,5.07,1.29,7.42,2.27,6.33,3.75,9.93,4.63,17.32,4.77,4.47.18,8.78-1.38,13.2-1.73,2.18-.15,4.44.29,6.6.55"/><path class="b" d="M13.11,25.9c4.33-.65,8.82-3.06,13.2-1.47,2.03.72,3.9,2.04,5.77,3.06,2.01,1.07,4.31,1.86,6.6,1.92,7.34.13,9.37-7.34,17.32-4.86,2.74.45,5.47,1.44,8.25,1.63,6.31.24,12.65.45,18.97.32,2.74,0,5.57.18,8.25.78,3.62.89,6.89-.41,9.9-2.36,3.91-2.63,8.61-3.08,13.2-2.57,1.32.21,2.81.09,4.12.27,2.76.52,5.53,1.38,8.25,2.08,2,.47,3.9,1.55,5.77,2.36,2.1.94,4.38,1.73,6.6,2.34,2.92.99,5.3,3.39,8.25,4.4,2.33.9,4.95.97,7.42,1.12,2.45.13,4.98.38,7.42.51,5.51.33,10.99-.88,16.5-.87"/><path class="b" d="M13.11,24.46c2.19-.4,4.44-.94,6.6-1.47,2.4-.64,5.08-1.01,7.42.03,3.77,1.73,7.2,4.7,11.55,4.82,3.05.25,5.83-1.31,8.25-2.99,1.27-.71,2.62-1.9,4.12-1.95,1.88.19,3.88.24,5.77.35,3.04.15,6.05,1.01,9.07,1.28,3.28.27,6.61.67,9.9.78,2.72.1,5.52-.06,8.25-.03,7.06-.06,9.91,2.18,16.5-2.16,4.47-3.01,8.78-3.49,14.02-2.79,4.14.54,8.32,1.2,12.37,2.19,2.28.5,4.47,1.62,6.6,2.55,2.11.94,4.39,1.75,6.6,2.42,2.72,1.56,5.16,3.87,8.25,4.7,3.77.85,7.72-.11,11.55.12,3.01.08,6.07.51,9.07.59,3.29.08,6.65-.27,9.9-.77"/><path class="b" d="M13.11,22.95c3.85-.62,7.66-1.92,11.55-2.19,3.07.01,5.65,2.05,8.25,3.42,2.97,1.59,6.63,2.47,9.9,1.3,2.05-.75,3.89-2.17,5.77-3.23,2.73.17,5.52.21,8.25-.11,2.74-.18,5.55.14,8.25.62,3.83.5,7.68,1.31,11.55,1.46,4.11.12,8.26-.29,12.37-.1,8.16.83,10.54-3.75,17.32-5.57,3.81-.8,7.77-.11,11.55.54,3.55.67,7.2,1.12,10.72,1.9,3.98,1.05,7.61,3.27,11.55,4.47,2.39.91,4.27,3.03,6.6,4.1,2.27,1.18,4.98.95,7.42.51,3.52-.67,7.12-1.39,10.72-1.17,4.65.27,9.41,1.18,14.02.07"/><path class="b" d="M13.11,21.38c2.16-.49,4.43-.91,6.6-1.32,1.88-.34,3.85-.87,5.77-.92,3.03,0,5.63,1.95,8.25,3.23,5.61,2.75,8.94,1.92,14.02-1.28,1.86.38,3.88.55,5.77.37,2.17-.25,4.41-.69,6.6-.71,3.34-.12,6.63.86,9.9,1.4,4.85,1.27,9.9,1.04,14.85.63,3-.24,6.13-.04,9.07-.78,4.36-1.03,7.99-4.12,12.37-5.06,4.12-.8,8.32.24,12.37.97,3.52.72,7.2.78,10.72,1.45,4.32.96,8.16,3.46,12.37,4.77,2.24,1.17,4.15,3.16,6.6,3.93,5.07,1.27,9.88-2.07,14.85-2.65,5.21-1.03,10.47,1.16,15.67.14"/><path class="b" d="M13.11,19.83c2.09-.82,4.41-.89,6.6-1.17,1.9-.31,3.84-.98,5.77-1.14,4.26-.49,7.69,2.69,11.55,3.88,2.39.77,5.12.79,7.42-.27,1.06-.43,2.18-1.25,3.3-1.5,2.41.54,4.99.66,7.42.23,2.7-.44,5.51-.75,8.25-.53,3.22.99,6.61,1.56,9.9,2.26,5.48.82,11.02-.44,16.5-.77,5.28-.36,9.95-3.08,14.85-4.78,3.77-1.1,7.78-.27,11.55.42,2.97.57,6.05.89,9.07.91,4.02-.05,8.01.97,11.55,2.87,2.36,1.24,5.06,1.97,7.42,3.18,4.04,2.99,6.66,3.84,11.55,1.95,4.7-1.98,9.64-3.95,14.85-3.54,2.72.19,5.51.8,8.25.51"/><path class="b" d="M13.11,18.86c.76-.34,1.74-.83,2.47-1.2,1.29-.35,2.81-.06,4.12-.34,2.21-.31,4.42-1.06,6.6-1.49,4.21-.56,7.74,2.28,11.55,3.52,2.4.77,5.11.72,7.42-.31,1.05-.38,2.18-1.12,3.3-1.28,1.87.32,3.88.5,5.77.35,2.97-.2,6.13-.87,9.07-.25,1.57.59,3.3,1.13,4.95,1.48,1.89.31,3.86.88,5.77,1.04,3.3.28,6.64-.3,9.9-.74,3.28-.46,6.67-.67,9.9-1.42,3.63-.85,7.13-2.34,10.72-3.3,1.3-.28,2.8-.37,4.12-.3,1.04.06,2.28.27,3.3,0,4.42-.66,8.86.45,13.2,1.2,3.64.07,7.44.37,10.72,2.14,3.15,1.71,6.55,3.04,9.9,4.28,3.53,2.48,6.8,2.82,10.72.89,2.14-1.02,4.33-2.22,6.6-2.93,2.91-.89,6.04-1.31,9.07-1.24,2.17.1,4.42.59,6.6.57"/><path class="b" d="M13.11,17.68c1.02-.47,2.17-.98,3.3-1.08,1.59-.44,3.32-.69,4.95-.95,2.46-.45,4.93-1.35,7.42-1.63,4.12,0,7.56,2.81,11.55,3.42,3.13.57,6.15-.81,9.07-1.71,2.73.14,5.52.14,8.25.01,1.61.02,3.37-.09,4.95.23,1.57.71,3.29,1.41,4.95,1.87,7.43,2.07,11.76.44,18.97-.5,4.45-.39,8.89-1.18,13.2-2.37,1.32-.32,2.8-.73,4.12-1.03.76-.14,1.8-.17,2.47-.6,5.74-3.82,11.94-2.57,18.15-.81,2.19.57,4.45,1.29,6.6,2,1.35.29,2.86.64,4.12,1.2,3.74,1.89,7.45,4.05,11.55,5.11,1.89.54,3.73,1.73,5.77,1.58,4.28-.16,7.48-3.71,11.55-4.68,2.67-.7,5.47-1.38,8.25-1.29,1.61.04,3.35.26,4.95.47.37-.16,1.26-.48,1.65-.63"/><path class="b" d="M13.11,16.27c1.27-.58,2.78-.68,4.12-.98,2.42-.73,4.95-1.26,7.42-1.79,2.67-.52,5.52-1.56,8.25-.93,3.55.85,6.97,2.83,10.72,2.47,2.74-.32,5.5-1.03,8.25-1.32,2.99-.33,6.09-.21,9.07.07.48-.02,1.25.26,1.65.52,1.02.52,2.24,1.11,3.3,1.54,2.07.84,4.37,1.34,6.6,1.37,3.62.13,7.19-.83,10.72-1.48,2.97-.57,6.09-.56,9.07-1.05,3.29-.56,6.64-1.08,9.9-1.8.96,0,1.77-1.02,2.47-1.55,1.21-1.01,2.66-2.05,4.12-2.65,2.61-1.09,5.56-.66,8.25-.13,2.47.48,5.01,1.11,7.42,1.86,3.82,1.3,7.82,2.36,11.55,3.92,3.91,2.22,7.88,4.58,12.37,5.41,2.83.66,5.55,1.37,8.25-.24,1.9-1.04,3.76-2.42,5.77-3.24,2.63-.97,5.48-1.6,8.25-2.01,1.61-.18,3.35.04,4.95.23,1.03-.35,2.24-.88,3.3-1.14"/></svg>