<?xml version="1.0" encoding="UTF-8"?><svg id="a" xmlns="http://www.w3.org/2000/svg" width="1920" height="2400" viewBox="0 0 192 240"><defs><style>.b{fill:none;stroke:#fff;stroke-miterlimit:10;stroke-width:.3px;}.c{stroke-width:0px;}</style></defs><rect class="c" width="192" height="240"/><path class="b" d="M10.75,231.39c4.79.25,9.63-.19,14.42-.2,4.8-.09,9.63.37,14.42.41,5.98-.46,12.04-1.22,17.81-2.93,5.9-1.29,11.71-3.31,16.96-6.31,1.63-.88,3.41-1.79,5.09-2.56,1.28-.59,2.8-1.16,4.24-1.01,2.92.47,4.76,3.24,6.79,5.13,4.6,5.23,11.37,3.4,16.96.99,4.89-2.03,5.5-1.57,10.18.34,3.35,1.3,6.84,2.41,10.18,3.72,4.3,1.73,9.08,1.27,13.57.65,5.64-.91,11.25-2.31,16.96-2.76,3.13-.19,6.19-1.31,9.33-1.47,2.23-.19,4.59-.11,6.79.32,2.22-.2,4.55-.41,6.79-.35"/><path class="b" d="M10.75,228.66c6.76-.6,13.57-1.2,20.36-.66,1.66.12,3.45.2,5.09.45,2.23.37,4.52.96,6.79,1.05,3.42.02,6.8-1.12,10.18-1.54,4.92-.56,9.74-1.89,14.42-3.49,2.92-1.02,5.72-2.57,8.48-3.93,1.36-.68,2.88-1.42,4.24-2.09,1.27-.62,2.8-1.22,4.24-.97,2.11.47,3.67,2.34,5.09,3.84,3.5,4.08,5.57,5.25,11.03,5.14,2.59-.06,5.23-.68,7.63-1.64,2.2-.85,4.42-2.09,6.79-2.39.81-.2,1.8.27,2.54.53,1.06.37,2.33.8,3.39,1.15,2.79.93,5.76,1.6,8.48,2.74,4.27,1.78,9.08,1.46,13.57.87,3.95-.54,7.92-1.37,11.88-1.84,2.79-.44,5.74-.36,8.48-1.04,3.04-.71,6.2-1.3,9.33-1.4,1.36-.08,2.89.16,4.24.13,1.35-.16,2.88-.27,4.24-.22"/><path class="b" d="M10.75,226.14c8.21-2.55,17-2.41,25.45-1.3,2.86.61,5.6,1.95,8.48,2.47,2.54-.32,5.08-1.16,7.63-1.42,2.5-.34,5.13-.25,7.63-.57,5.6-1,11.02-3.04,16.12-5.53,1.37-.65,2.9-1.39,4.24-2.09,1.29-.69,2.75-1.54,4.24-1.67,4.31.17,6.14,5.14,9.33,7.35,1.44,1.06,3.37,1.46,5.09,1.81,5.96,1.16,10.8-.49,16.12-3.02,1.02-.42,2.29-.82,3.39-.92,1.05.33,2.33.7,3.39.99,3.68.96,7.5,1.66,11.03,3.11,3.26.98,6.82.98,10.18.67,6.76-.87,13.55-1.81,20.36-2.27,3.9-.97,7.86-2.05,11.87-2.37,1.94-.23,4,.19,5.94.14"/><path class="b" d="M10.75,224.15c7.48-4.2,16.32-3.98,24.6-3.14,3.65.33,6.73,2.76,10.18,3.78,2.48-.59,5.08-1.12,7.63-1.22,2.52-.12,5.12.22,7.63.09,2.02-.03,4.04-.64,5.94-1.27,3.5-.79,6.89-2.21,10.18-3.62,1.39-.63,2.91-1.36,4.24-2.1,1.31-.75,2.74-1.74,4.24-2.06,4.68-.43,6.46,5.67,10.18,7.54,3.39,1.69,7.24,2.5,11.03,2.28,2.94-.1,5.84-1.03,8.48-2.27,1.05-.48,2.31-1.06,3.39-1.48.74-.27,1.75-.66,2.54-.41,2.79.61,5.68,1.09,8.48,1.65,1.06.21,2.34.48,3.39.72,1.04.38,2.29.86,3.39,1.05,3.05.63,6.25.73,9.33.33,3.94-.46,7.92-1.1,11.88-1.4,2.5-.32,5.16.11,7.63-.41,5.29-1.24,10.59-3.67,16.12-3.01"/><path class="b" d="M10.75,222.74c5.49-4.11,11.89-5.62,18.66-5.43,2.52.08,5.14.11,7.63.48,1.45.34,2.94,1.05,4.24,1.76,1.65.77,3.25,2.24,5.09,2.45,3.62-.65,7.39-.83,11.03-.22,3.68.59,7.51.41,11.03-.88,3.75-.96,7.49-2.26,11.03-3.83,1.43-.66,2.96-1.52,4.24-2.43,1.67-1.23,3.97-2.38,5.94-1.1,2.79,2.01,4.45,5.5,7.63,7.03,4.28,2.56,9.58,3.07,14.42,2.11,2.65-.56,5.16-1.86,7.63-2.92.4-.18,1.27-.49,1.7-.61,1.06.15,2.33.29,3.39.44,2.51.37,5.11.72,7.63.98,3.45.15,6.74,1.56,10.18,1.75,7.4.23,14.67-1.94,22.05-1.99,1.36.06,2.89-.13,4.24-.22,4.17-1.15,8.28-3.48,12.72-2.98"/><path class="b" d="M10.75,221.79c6.84-5.89,14.02-7.65,22.9-7.2,5.3-.3,8.4,2.31,12.72,4.78,2.8-.18,5.7-.24,8.48.15,2.8.42,5.62,1.27,8.48,1.14,3.49.03,6.86-1.18,10.18-2.12,4.13-1.3,8.51-2.56,11.87-5.41,7.06-5.78,7.02,3.61,16.12,7.27,4,1.51,8.62,1.66,12.72.45,1.1-.35,2.36-.9,3.39-1.4.74-.34,1.69-.98,2.54-.72,5.92.38,11.88.68,17.81.62,1.09.03,2.32.55,3.39.72,1.34.25,2.88.36,4.24.37,7.4-.08,14.67-1.93,22.05-2.31,1.35-.2,2.92-.1,4.24-.44,3-1.11,6.02-2.84,9.33-2.26"/><path class="b" d="M10.75,221.07c3.6-2.92,7.37-5.89,11.87-7.26,3.53-1.17,7.31-1.64,11.03-1.55,1.97.01,4.07.08,5.94.79,2.39.84,4.62,2.29,6.79,3.58,1.02.39,2.32.32,3.39.44,1.66.12,3.45.32,5.09.61,1.97.32,3.98,1.02,5.94,1.39,4.26.77,8.62-.16,12.72-1.32,3.4-1.1,6.97-1.98,10.18-3.59,1.54-.78,2.91-2.15,4.24-3.23,3.35-2.93,5.36-.42,7.63,2.22,2.34,2.55,5.12,5.09,8.48,6.15,4.43,1.25,9.44,1.19,13.57-.98,2.8.14,5.68.36,8.48.33,4.8.04,9.63-.47,14.42-.71,1.67-.17,3.43.33,5.09.45,2.51.2,5.12.04,7.63-.12,3.69-.2,7.38-.97,11.03-1.55,2.8-.31,5.67-.69,8.48-.86,1.45-.24,2.86-1.18,4.24-1.63,1.3-.54,2.89-.38,4.24-.16"/><path class="b" d="M10.75,220.27c3.39-2.27,6.43-5.21,10.18-6.92,5.7-2.76,12.48-3.81,18.66-2.23,2.68.77,5.17,2.24,7.63,3.51,3.08.56,6.28.91,9.33,1.67,2.5.67,5.02,1.67,7.63,1.78,4.29.06,8.64-.75,12.72-2.05,3.1-1.16,6.51-1.83,9.33-3.62,1.46-1.08,2.78-2.66,4.24-3.75,4.64-3.56,7.54,7.91,16.12,9.39,2.19.45,4.56.6,6.79.33.77-.1,1.81-.35,2.54-.6.4-.25,1.23-.37,1.7-.21,7.34.88,14.77.22,22.05-.83,2.22-.22,4.55-.56,6.79-.61,4.2.46,8.53.62,12.72.07,4.77-.82,9.58-1.69,14.42-2.04,2.86-.92,4.34-2.33,7.63-1.24"/><path class="b" d="M10.75,219.15c1.84-.75,3.5-2.16,5.09-3.31,2.11-1.58,4.41-3.12,6.79-4.27,1.21-.48,2.24-1.69,3.39-2.28,1.26-.72,2.8-1.12,4.24-1.14,2-.14,3.98.64,5.94.76,3.59.22,6.97,1.77,10.18,3.28,3.74,1.55,8.01,1.65,11.88,2.86,1.64.5,3.4,1.12,5.09,1.44,1.64.22,3.44.04,5.09,0,4.63-.17,9.28-1.09,13.57-2.86,2.77-.87,5.74-1.85,7.63-4.18.97-1.02,2.08-2.36,3.39-2.95,2.18-.66,3.77,1.7,5.09,3.06,1.55,1.69,3.19,3.59,5.09,4.9,2.94,1.99,6.7,2.52,10.18,2.29.77-.07,1.81-.27,2.54-.49,1.36.13,2.88.32,4.24.4,3.08.22,6.25.3,9.33.09,6.29-.34,12.4-2.26,18.66-2.8,1.37-.12,2.88.31,4.24.43,2.21.3,4.55.48,6.79.31,3.98-.3,7.89-1.48,11.87-1.76,1.35-.26,2.95-.2,4.24-.7,1.83-.85,4-1.42,5.94-.54"/><path class="b" d="M10.75,217.7c3.21-.8,5.72-3.35,8.48-5.06,1.77-1.43,3.19-3.52,5.09-4.82,3.41-2.57,8.08-1.91,11.88-.6,1.32.47,2.91.53,4.24,1,2,.6,4.03,1.47,5.94,2.29,3.78,1.5,7.95,1.96,11.88,2.97,1.36.34,2.86.79,4.24,1.03,3.09.01,6.24-.13,9.33-.15,5.88.25,11.74-1.44,16.96-4.06,1.95-1.31,3.22-3.61,5.09-5,5.06-2.82,6.51,10.54,19.51,9.68,2.22-.42,4.54.15,6.79.22,3.65.22,7.38.31,11.03-.05,3.13-.32,6.28-.99,9.33-1.74,2.75-.78,5.61-1.58,8.48-1.68,1.99-.21,4,.57,5.94.9,2.2.44,4.55.63,6.79.42,2.54-.22,5.12-.84,7.63-1.29,1.93-.33,4-.51,5.94-.77,1.91-.48,3.97-1.43,5.94-.69"/><path class="b" d="M10.75,216.06c2.56-.19,4.72-2,6.79-3.35,1.73-1.75,3.29-3.91,5.09-5.59,4.47-4.58,10.87-2.8,16.12-.8,3.21.7,6.27,2.14,9.33,3.31,2.76.86,5.66,1.51,8.48,2.12,1.37.26,2.86.72,4.24.86,1.07.03,2.33.05,3.39.05,3.66,0,7.37-.21,11.03-.39,4.9-.13,9.92-.77,14.42-2.84,2.12-1.13,3.38-3.52,5.09-5.13,4.06-3.66,6.89,6.35,13.57,8.08,2.44.86,5.12.52,7.63.85,6.48.38,13.09.6,19.51-.56,1.96-.39,4.04-.87,5.94-1.53,2.16-.7,4.48-1.62,6.79-1.55,1.95.31,4.03.43,5.94,1.01,2.52.29,5.09.99,7.63,1.03,4.59.06,9.03-1.61,13.57-1.99,1.97-.09,3.95-1.03,5.94-.76"/><path class="b" d="M10.75,214.31c2.19.12,4.18-1.23,5.94-2.38,1.52-1.37,2.88-3.22,4.24-4.74,4.85-6.19,11.3-5.44,17.81-2.54,5.37,1.76,10.57,4.22,16.12,5.44,11.53,2.23,23.42.62,34.78-1.87.78-.19,1.83-.47,2.54-.86,1.18-1.14,2.29-2.77,3.39-3.98,4.04-4.48,6.76,4.76,12.72,6.73,5.73,1.78,11.89,1.33,17.81,1.08,4.25-.25,8.59-.4,12.72-1.48,1.98-.53,3.96-1.45,5.94-1.99.77.02,1.8.35,2.54.52,1.62.39,3.43.54,5.09.58,1.02.4,2.31.74,3.39.91,1.34.2,2.88.25,4.24.2,1.93.24,3.99.49,5.94.27,5.13-.52,10.11-2.25,15.27-2.57"/><path class="b" d="M10.75,212.5c2.91.27,5.75-1.65,7.63-3.72,2.83-3.19,5.6-7.27,10.18-7.82,4.14-.72,8.17,1,11.88,2.65,2.47,1.06,5.11,1.96,7.63,2.89,4.09,1.44,8.42,2.31,12.72,2.81,3.07.4,6.23.8,9.33.66,8.44-.36,16.61-2.81,24.6-5.39,4.96-7.24,6.3-2.01,11.03,1.63,1.71,1.31,3.92,1.98,5.94,2.67,4.73,1.01,9.67.25,14.42-.21,3.93-.48,7.96-.6,11.87-1.2,1.72-.28,3.46-1,5.09-1.59.82-.13,1.79.39,2.54.64,2.15.77,4.51,1.18,6.79,1.19,1.29.62,2.83,1.1,4.24,1.31,2.22.35,4.56.15,6.79-.04,2.21.33,4.57.27,6.79-.01,3.74-.36,7.3-2.02,11.03-2.36"/><path class="b" d="M10.75,210.64c2.15.44,4.24-.71,5.94-1.91,3.27-2.1,5.17-5.88,8.48-7.95,5.57-3.35,11.7-.85,16.96,1.83,5.1,2.31,10.63,3.61,16.12,4.62,3.91.73,7.87,1.79,11.87,1.69,5.18-.16,10.33-1.29,15.27-2.82,3.69-1.08,7.25-2.92,11.03-3.67,2.95-3.73,4.31-3.25,7.63-.33,1.78,1.54,4,2.62,5.94,3.92,1.81.88,3.95,1.1,5.94,1.13,4.57.13,9.07-.92,13.57-1.53,4.22-.62,8.69-.3,12.72-1.88,1.18-.03,2.32.89,3.39,1.26,1.85.8,3.92,1.36,5.94,1.49,1.14.25,2.29,1.09,3.39,1.45,1.31.49,2.85.82,4.24.91,1.66.11,3.45-.05,5.09-.31,1.06-.29,2.32-.19,3.39,0,4.65.56,9.25-.72,13.57-2.32"/><path class="b" d="M10.75,208.73c2.93.75,5.51-1.38,7.63-3.12,2.06-1.62,4.03-3.54,5.94-5.33,6.42-5.09,13.23-2.12,19.51,1.41,3.28,1.23,6.73,2.19,10.18,2.84,9.35,1.87,13.73,4.53,23.75,2.46,5.24-1,10.3-2.85,15.27-4.73,1.34-.47,2.83-1.08,4.24-1.27,1.05-.76,2.1-1.99,3.39-2.36,2.19-.35,4.11,1.35,5.94,2.29,1.69,1.55,3.6,3.14,5.94,3.53,5.66,1.18,11.4-.15,16.96-1.21,4.2-.8,8.66-.35,12.72-1.8,2.92,1.69,5.99,3.26,9.33,3.9,2.46,1.85,5.38,3.35,8.48,3.63,2.85.39,5.69-.52,8.48-.8,4.23.83,8.67.28,12.72-1.12"/><path class="b" d="M10.75,206.8c5.07,1.47,9.41-5.9,13.57-8.14,8.55-4.57,12.47-2.81,20.36,1.6,3.27,1.2,6.76,1.88,10.18,2.52,9.73,2.22,12.98,4.81,23.75,2.86,4.93-.91,9.72-2.58,14.42-4.27,1.64-.56,3.39-1.23,5.09-1.59,1.17-.53,2.17-1.76,3.39-2.22,2.12-.91,4.47-.07,5.94,1.6,1.42,1.27,3.24,2.32,5.09,2.8,3.01.76,6.24.92,9.33.68,2.84-.27,5.68-1.04,8.48-1.54,3.9-.85,8.06-.44,11.87-1.71,2.68,1.69,5.57,3.15,8.48,4.38,4.77,4.22,9.64,6.61,16.12,5.2,1.07-.2,2.34-.5,3.39-.78.76-.01,1.79.16,2.54.22,2.8.18,5.72.03,8.48-.51"/><path class="b" d="M10.75,204.86c5.24,1.65,9.33-6.45,13.57-8.7,2.27-1.31,5.02-1.92,7.63-1.69,2.58-.31,5.27,0,7.63,1.11,2.06.81,3.91,2.31,5.94,3.15,3,1.02,6.22,1.5,9.33,2.05,3.75.66,7.34,2.15,11.03,3.05,4.71,1.12,9.68.96,14.42.11,4.61-.84,9.14-2.26,13.57-3.77,1.92-.65,3.97-1.32,5.94-1.81.73-.56,1.74-1.37,2.54-1.83,1.86-1.04,3.35-.99,5.09.3,1.55,1.05,3.3,2.09,5.09,2.67,3.25,1.04,6.78,1.46,10.18,1.19,2.83-.28,5.68-.98,8.48-1.48,3.62-.8,7.47-.56,11.03-1.62.86.14,1.81.83,2.54,1.26,1.33.8,2.83,1.68,4.24,2.35,3.81,3.23,7.58,7.25,12.72,8.11,3.7.6,7.46-.37,11.03-1.28,2.8.03,5.72.27,8.48-.29"/><path class="b" d="M10.75,202.88c4.97,1.98,8.96-6.41,12.72-8.76,3.17-2.23,7.35-2.81,11.03-1.59,1.99.21,4.11.42,5.94,1.34,1.73.78,3.48,1.88,5.09,2.88,2.68,1.05,5.65,1.4,8.48,1.83,4.36.56,8.48,2.31,12.72,3.33,4.71,1.1,9.67,1.04,14.42.28,4.6-.7,9.14-1.97,13.57-3.36,2.22-.69,4.58-1.25,6.79-1.99.71-.59,1.73-1.36,2.54-1.81,2.31-1.21,4.71.37,6.79,1.35,3.68,1.69,7.82,2.58,11.87,2.46,2.84-.16,5.69-.82,8.48-1.32,3.91-.77,8.01-.64,11.87-1.66,1.68.96,3.51,1.99,5.09,3.11,1.88,1.82,3.97,3.64,5.94,5.37,2.23,1.93,4.73,3.86,7.63,4.59,3.95.96,8.01-.37,11.88-1.14,2.49-.68,5.23-.25,7.63-1.31"/><path class="b" d="M10.75,200.97c2.4.99,4.33-.21,5.94-1.95,2.02-2.14,3.74-4.78,5.94-6.76,3.49-3.07,8.5-3.72,12.72-1.84.72.4,1.75.5,2.54.56,1.11.18,2.37.6,3.39,1.06,2.04.89,3.95,2.3,5.94,3.29,1.91.52,3.98.84,5.94,1.07,4.66.39,9.09,2.07,13.57,3.27,4.68,1.26,9.63,1.29,14.42.68,4.87-.54,9.69-1.75,14.42-2.99,1.63-.49,3.46-.72,5.09-1.17,1.53-.39,2.96-1.36,4.24-2.23,2.15-1.19,4.69-.43,6.79.49,7.19,2.93,12.01,3,19.51,1.35,2.77-.51,5.67-.65,8.48-.81,1.37-.1,2.87-.5,4.24-.58,2.9,1.47,5.18,3.96,7.63,6.04,3.02,2.48,5.74,5.6,9.33,7.28,3.25,1.57,6.9.54,10.18-.4,1.63-.44,3.42-.85,5.09-1.09,1.82-.07,3.62-.78,5.09-1.85"/><path class="b" d="M10.75,199.09c3.27,1.14,4.85-.35,6.79-2.77,2.73-3.65,5.42-8.04,10.18-9.14,3.17-.84,6.51.15,9.33,1.64,4.1.14,7.58,2.54,11.03,4.5,1.52.78,3.43.8,5.09,1.04,2.25.21,4.6.51,6.79,1.08,3.65.96,7.29,2.25,11.03,2.83,6.21.7,12.55-.07,18.66-1.2,3.93-.81,7.94-1.53,11.88-2.33,2.1-.47,3.92-1.91,5.94-2.57,3.79-.86,7.37,1.49,11.03,2.12,4.18,1.11,8.55.59,12.72-.29,2.77-.51,5.67-.59,8.48-.59,1.65-.01,3.43-.31,5.09-.19,1.22.58,2.33,1.79,3.39,2.62,2.21,1.87,4.64,3.69,6.79,5.63,2.11,1.88,4.21,4.07,6.79,5.32,3.7,1.93,7.57-.46,11.03-1.81,1.6-.61,3.45-.91,5.09-1.41,1.19-.32,2.63-.68,3.39-1.74"/><path class="b" d="M10.75,197.2c3.45.72,4.69.51,6.79-2.33,2.75-3.84,5.25-8.64,10.18-9.94,3.16-.92,6.54.04,9.33,1.6,1.04.35,2.34.2,3.39.52,3.02.77,5.73,2.55,8.48,3.96.75.38,1.74.89,2.54,1.12,1.06.14,2.33.24,3.39.33,2.26.18,4.6.55,6.79,1.15,12.4,3.96,21.47,2.51,33.93.45,1.96-.23,3.98-.79,5.94-1.06,1.07-.15,2.36-.28,3.39-.6,1.12-.33,2.32-1.03,3.39-1.47,3.37-1.2,6.89.33,10.18,1.09,2.19.52,4.53.96,6.79.87,2.26-.05,4.56-.61,6.79-.95,3.06-.52,6.25-.3,9.33-.14,3.27-.18,6.06,1.48,8.48,3.5,1.96,1.5,4.07,3.07,5.94,4.69,3,2.46,5.86,6.58,10.18,6.19,2.23-.41,4.1-2.02,5.94-3.25,3.04-1.8,6.13-3.74,9.33-5.25"/><path class="b" d="M10.75,195.28c1.63.49,3.47.29,5.09-.14,1.01-.48,1.91-1.75,2.54-2.63,2.57-3.93,5.21-8.66,10.18-9.75,2.9-.68,5.94.24,8.48,1.65,2.97-.18,5.87.69,8.48,2.06,2.74,1.35,5.51,2.91,8.48,3.69,1.33.39,2.88.33,4.24.55,1.94.32,3.99.65,5.94.94,2.24.43,4.52,1.15,6.79,1.47,3.35.45,6.8.56,10.18.45,5.39-.28,10.77-1.22,16.12-1.87,3.05-.69,6.23-.88,9.33-1.14,1.12-.2,2.34-.81,3.39-1.22,1.03-.34,2.31-.49,3.39-.44,4.27.25,8.4,2.11,12.72,1.89,3.11-.18,6.2-1.17,9.33-1.18,1.66-.03,3.45.17,5.09.4,1.1.16,2.44.28,3.39.9,3.05,1.61,6.42,2.82,9.33,4.68,2.42,1.75,4.63,3.96,6.79,6.02,2.34,2.34,5.39,4.62,8.48,1.98,2.06-1.76,3.94-3.95,5.94-5.78,2.06-2.21,4.17-4.65,6.79-6.22"/><path class="b" d="M10.75,193.32c1.6.63,3.49.41,5.09-.12,1.04-.18,1.96-1.27,2.54-2.08,1.11-1.54,2.3-3.47,3.39-5.02,4.01-5.48,9.17-6.79,15.27-3.82,3.87-.8,7.59,1.18,11.03,2.7,3.19,1.53,6.65,2.58,10.18,2.95,2.24.27,4.6.48,6.79,1.07,3.31.96,6.73,1.73,10.18,1.91,9.1.76,18.13-1.29,27.14-2.23,2.23-.29,4.57.12,6.79-.14,1.93-.52,3.87-1.51,5.94-1.33,3.13.11,6.22,1.07,9.33,1.38,1.96.18,4.02-.14,5.94-.51,3.62-.83,7.44-.81,11.03.18,1.16.4,2.33,1.32,3.39,1.93,4.58,2.67,9.27,5.24,13.57,8.35.76.48,1.87,1.06,2.54,1.67,1.34,1.38,2.99,3.18,5.09,3.06,2.36-.39,3.78-2.83,5.09-4.59,1.36-1.97,3.01-4.1,4.24-6.16,1.62-2.57,3.44-5.36,5.94-7.17"/><path class="b" d="M10.75,191.3c2.47,1.26,6.03.47,7.63-1.81,3.08-4.24,5.4-9.16,11.03-10.39,1.35-.29,2.89-.26,4.24.03,1.11.19,2.27.86,3.39.91,5.07-.97,9.73,2.08,14.42,3.49,3.55,1.16,7.37,1.31,11.03,1.98,2.84.56,5.62,1.71,8.48,2.2,6.71,1.25,13.63.87,20.36-.07,5.33-.58,10.73-1.83,16.12-1.31,1.06.12,2.32.42,3.39.31,1.11-.11,2.32-.67,3.39-.96,2.49-.59,5.15-.09,7.63.28,1.64.26,3.43.52,5.09.39,2.26-.16,4.54-.82,6.79-1.09,2.24.13,4.56.5,6.79.76,1.88.65,3.43,2.3,5.09,3.37,4.2,2.93,8.51,5.82,12.72,8.73,1.55.98,3.39,1.75,5.09,2.43.31.31,1.27.83,1.7.96,2.46.49,4-2.26,5.09-4.03,1.05-1.9,2.34-4.17,3.39-6.08,2.13-3.96,3.86-8.7,7.63-11.42"/><path class="b" d="M10.75,189.23c2.46,1.65,5.96.83,7.63-1.55,3.43-4.51,5.66-9.39,11.88-10.44,1.97-.31,4.07.05,5.94.71,1.07-.06,2.32-.3,3.39-.23,4.11.22,7.93,2.1,11.87,3.1,3.59.95,7.4,1.02,11.03,1.81,3.94,1,7.79,2.61,11.88,2.98,5.33.69,10.78.33,16.12-.21,4.49-.66,9.04-1.27,13.57-1.61,1.36-.11,2.89-.09,4.24.15,1.37.22,2.84.85,4.24.78,1.42-.07,2.85-.81,4.24-1.03,2.51-.38,5.13.11,7.63.36,1.95.32,4-.23,5.94-.25,1.93.37,3.98.71,5.94.91,1.35.2,2.93.11,4.24.52,1.3.76,3.03,1.01,4.24,1.89,2.16,1.91,4.58,3.7,6.79,5.56,1.22,1.17,2.9,2.1,4.24,3.11,2.94,2.19,6.43,4.01,10.18,4.01,2.84-.62,3.86-4.22,5.09-6.49,1.04-2.32,2.41-5.03,3.39-7.38,1.62-3.51,3.19-7.81,6.79-9.75"/><path class="b" d="M10.75,187.18c6.58,4.52,9.46-5.55,13.57-8.83,1.91-1.53,4.34-2.62,6.79-2.89,1.67-.17,3.48.09,5.09.54,1.93-.34,4.01-.31,5.94.05,3.42.62,6.75,1.87,10.18,2.45,3.36.57,6.85.63,10.18,1.38,2.86.63,5.61,1.94,8.48,2.55,4.44.95,9.05,1.21,13.57.95,4.25-.02,8.55-.32,12.72-1.18,1.94-.19,4.01-.13,5.94-.47,1.92-.33,4.01-.69,5.94-.24,1.4.28,2.83,1.07,4.24,1.27,2.03.27,3.95-.91,5.94-1.06,1.94-.17,4,.06,5.94.19.75.04,1.8-.01,2.54.04,1.06.25,2.34.58,3.39.85,2.74.78,5.66,1.08,8.48,1.38,1.81.99,3.86,1.82,5.94,1.97,5.55,4.51,14.2,15.3,22.05,10.9,2.02-2.3,3.05-5.69,4.24-8.45,2.38-4.63,4.02-13.14,9.33-14.98"/><path class="b" d="M10.75,185.18c2.56,1.87,4.61,1.67,6.79-.58,2.41-2.47,4.21-5.67,6.79-7.98,1.43-1.2,3.31-1.99,5.09-2.49,2.19-.57,4.58-.55,6.79-.11,2.24-.2,4.58-.07,6.79.37,3.09.59,6.2,1.48,9.33,1.83,3.37.38,6.84.38,10.18,1.02,3.17.58,6.17,2.09,9.33,2.71,4.73.98,9.62.96,14.42.87,3.09.09,6.26-.03,9.33-.44,2.21-.43,4.55-.41,6.79-.5,2.27-.1,4.5-1.27,6.79-1.02,2.62.32,4.88,2.52,7.63,1.92,7.36-2.48,10.87-.35,17.81,1.58,1.94.6,4.23.32,5.94,1.53,1.25.73,2.79,1.33,4.24,1.51.76.09,1.83.04,2.54.35,4.46,4.39,11.81,13.69,18.66,9.1,3.4-2.21,4.7-5.49,5.94-9.16,2-4.11,4.09-13.57,9.33-14.07"/><path class="b" d="M10.75,183.51c6.48,4.81,10.31-8.46,16.12-10.14,3.2-1.26,6.77-1.61,10.18-1.18,2.24.14,4.58.32,6.79.79,2.78.54,5.65,1.15,8.48,1.33,3.65.24,7.39.19,11.03.68,3.47.48,6.71,2.14,10.18,2.64,4.75.83,9.63.5,14.42.7,5.1.3,10.18-.62,15.27-.69,2.3-.03,4.5-1.34,6.79-1.23,1.51.18,2.94,1.12,4.24,1.84,1.26.63,2.85.86,4.24.61.77-.18,1.78-.63,2.54-.82,6.26-1.25,11.75,3.24,17.81,3.91,2.88,1.97,5.71,3.36,9.33,2.89,2.81,2.56,5.16,5.84,8.48,7.82,7.8,4.95,12.05-5.97,15.27-11.24,2.72-3.31,4.03-12.08,9.33-11.41"/><path class="b" d="M10.75,181.89c5.85,3.98,10.19-7.75,15.27-9.83,3.21-1.24,6.75-1.73,10.18-1.76,2.28-.04,4.64.41,6.79,1.17,2.21.5,4.54.89,6.79,1.15,3.36.3,6.81.26,10.18.37,2.52,0,5.16-.19,7.63.46,2.79.7,5.59,1.74,8.48,1.92,4.5.45,9.07.11,13.57.49,5.08.17,10.2-.47,15.27-.72,5.23-.85,5.18-2.52,10.18,1.03,1.24.68,2.85.9,4.24.74.76-.22,1.76-.7,2.54-.88,2.25-.45,4.66.06,6.79.84,3.36,1.29,6.64,3.04,10.18,3.82,4.27,3.05,5.68,3.68,11.03,3.66,12.71,15.93,15.02,1.88,22.05-8.69,2.08-3.14,4.64-9.2,9.33-6.87"/><path class="b" d="M10.75,180.28c3.38,2.1,6.38-1.39,8.48-3.7,2.01-2.22,4.03-4.76,6.79-6.09,2.13-.85,4.54-1.13,6.79-1.5,2.5-.33,5.13-.57,7.63-.17,3.71.54,7.23,2.39,11.03,2.34,3.95.12,7.94-1.12,11.88-.41.76.11,1.79.3,2.54.44,1.07-.05,2.34.02,3.39.21,3.07.65,6.16,1.62,9.33,1.57,2.51.13,5.12-.03,7.63.04,3.36.29,6.81.44,10.18.15,1.94-.14,4-.27,5.94-.38,1.96-.06,4.06-.13,5.94-.75,4.59-1.88,6.07,2.01,10.18,2.69.81.17,1.88.09,2.54-.46,1.83-.88,4.04-.67,5.94-.13,4.1,1.25,7.76,3.76,11.88,4.99,2,1.08,3.72,2.89,5.94,3.61,1.85.72,3.97.89,5.94.9,1.04.29,1.79,1.58,2.54,2.28,4.54,4.8,7.92,3.77,11.03-1.79,2.29-4.09,4.19-8.64,6.79-12.56,2.75-4.52,4.97-6.83,10.18-3.65"/><path class="b" d="M10.75,178.66c3.44,1.88,6.33-1.71,8.48-3.95,1.99-2.13,4.1-4.46,6.79-5.71,1.84-.8,3.99-.93,5.94-1.3,3.06-.48,6.25-.89,9.33-.4,3.1.44,6.17,1.63,9.33,1.53,3.68.01,7.35-1.16,11.03-.78,2.26.25,4.57.81,6.79,1.28,1.37-.03,2.9.08,4.24.36,4.14,1.12,8.48.88,12.72.71,2.52.01,5.11.42,7.63.36,2.81-.04,5.68-.42,8.48-.5,1.65-.06,3.45-.05,5.09-.24,1.67-.21,3.38-1.03,5.09-.92,3.02.52,5.2,4.07,8.48,3.53,1.14-.94,2.77-1.44,4.24-1.29,3.34.31,6.37,2.1,9.33,3.55,1.89.97,3.92,1.98,5.94,2.65,1.83,1.45,3.73,3.1,5.94,3.97,2.12.92,4.52,1.24,6.79,1.57.9.42,1.77,1.49,2.54,2.09,5.09,4.35,8.39-3.35,10.18-7.17,1.45-3.33,3.01-6.97,5.09-9.96,3.38-5.27,6.28-3.46,11.03-1.35"/><path class="b" d="M10.75,177.29c6.45,1.6,9.77-9.15,16.12-10.39,1.34-.31,2.88-.26,4.24-.45,2.78-.4,5.66-.87,8.48-.68,3.12.18,6.2,1.27,9.33,1.34,3.69,0,7.35-1.05,11.03-1.12,3.16.08,6.23,1.17,9.33,1.63,3.67-.81,7.34.85,11.03.57,2.23-.04,4.56-.3,6.79-.35,1.94.03,3.99.3,5.94.3,3.38,0,6.8-.54,10.18-.51,1.66-.03,3.47,0,5.09-.38,1.63-.39,3.54-1.08,5.09-.11,1.76,1.47,3.67,3.08,5.94,3.68,1.69-1.61,3.61-2.41,5.94-1.84,3.31.7,6.32,2.49,9.33,3.95,1.34.68,2.85,1.4,4.24,1.96.42.17,1.27.48,1.7.63.42.38,1.27,1.16,1.7,1.53,3.05,2.78,7.07,4.11,11.03,4.99,1.52.22,2.69,1.7,4.24,1.81,3.9-.23,5.36-5.41,6.79-8.38,1.76-3.89,4.24-12.72,9.33-12.81,2.62.26,5.06,1.66,7.63,2.15"/><path class="b" d="M10.75,175.82c4.52.38,8.09-6.7,11.87-8.92,2.73-2.02,6.14-1.7,9.33-1.89,2.5-.3,5.11-.63,7.63-.45,2.54.16,5.1.88,7.63,1.06,5.39.25,10.77-2.28,16.12-.76,2.24.38,4.51,1.49,6.79,1.44,3-1.09,6.25-.54,9.33-.22,3.12.14,6.24-.69,9.33-.8,1.94,0,3.99.23,5.94.21,2.8-.04,5.68-.36,8.48-.38,1.65-.03,3.46.07,5.09-.28,2.21-.59,4.24-1.28,5.94.83,1.07,1.39,2.66,2.59,4.24,3.34,1.12-1.22,2.46-2.68,4.24-2.75,3.63-.02,6.95,1.97,10.18,3.41,2.75,1.31,5.58,2.64,8.48,3.58,1.26,1.31,2.73,2.71,4.24,3.72,3.03,2.05,6.67,3.08,10.18,3.95,3.57,1.65,5.65-2.63,6.79-5.31,1.63-3.75,2.83-8.11,5.09-11.55,2.02-3.06,4.14-3.79,7.63-2.63,1.05.3,2.32.63,3.39.83.78.12,1.86.22,2.54.66"/><path class="b" d="M10.75,174.26c4.44-.64,7.53-7.2,11.87-9.21,3.38-1.82,7.36-1.05,11.03-1.56,2.22-.21,4.56-.36,6.79-.08,2.52.3,5.08,1.03,7.63.91,2.53-.22,5.13-.66,7.63-1.04,2.22-.48,4.6-.38,6.79.21,1.67.42,3.43,1.02,5.09,1.49,1.35.36,2.92.95,4.24.21,1.87-.67,3.95-1.03,5.94-1.01,1.94-.02,4,.38,5.94.05,1.66-.4,3.37-1.2,5.09-1.38,1.93-.26,4-.13,5.94-.09,2.8.01,5.68-.06,8.48-.15,1.65-.03,3.47.08,5.09-.33,1.83-.57,3.71-1.06,5.09.71,1.27,1.33,2.23,3.75,4.24,4.04,2.7-5.18,6.65-3.41,11.03-1.7,3.91,1.64,7.84,3.42,11.88,4.76.42.14,1.27.42,1.7.55,1.01,1.12,2.24,2.44,3.39,3.42,2.85,2.42,6.51,3.87,10.18,4.48,3.29.93,4.77-2.18,5.94-4.66,1.94-4.14,3.03-9.11,5.94-12.72,2.06-2.56,4.77-2.18,7.63-1.5,1.98.32,4.06.67,5.94,1.41"/><path class="b" d="M10.75,172.52c2.05-.51,3.64-2.25,5.09-3.68,2.19-2.25,4.56-4.69,7.63-5.65,2.44-.79,5.1-.73,7.63-.81,2.52-.09,5.11-.44,7.63-.29,2.26.13,4.54.8,6.79,1.05,1.95.23,4-.17,5.94-.41,1.94-.24,3.99-.61,5.94-.82,4.14-.16,7.91,2.05,11.88,2.9.42.09,1.27.25,1.7.31.42-.12,1.28-.38,1.7-.53,1.33-.43,2.86-.82,4.24-1.04,1.92-.41,4.05-.08,5.94-.62,2.33-.45,4.47-1.81,6.79-2.32,3.89-1.01,7.93-.18,11.88-.35,1.65-.08,3.45-.02,5.09-.26,2.31-.46,4.26-1.59,5.94.86,1.12,1.41,1.99,3.5,3.39,4.67.93-1.42,1.84-3.39,3.39-4.24,2.84-1.17,5.85.62,8.48,1.6,5.04,1.75,10.16,3.45,15.27,4.99,3.47,4.48,8.4,8.57,14.42,7.96,3.36-.85,5.24-8.53,6.79-11.49,1.81-4.26,4.12-7.8,9.33-6.68,2.54.31,5.12.89,7.63,1.32"/><path class="b" d="M10.75,170.16c4.4-2.49,7.71-7.04,12.72-8.38,2.75-.73,5.67-.61,8.48-.7,2.8-.14,5.71-.52,8.48.07,2.48.52,5.07,1.29,7.63.92,1.94-.25,4-.49,5.94-.74,1.93-.3,4.01-.54,5.94-.05,1.61.57,3.43.42,5.09.74,2.01.32,3.98,1.22,5.94,1.69,1.08.09,2.34.11,3.39-.21,1.63-.32,3.43-.53,5.09-.59,1.41.06,2.83-1.14,4.24-1.5,3.21-.81,6.04-2.88,9.33-3.47,3.05-.75,6.24.11,9.33-.15,1.98.02,4-.53,5.94-.87,3.37.14,3.93,4.71,5.94,6.71,1.32-1.99,2.27-5.24,5.09-5.42,2.14-.16,4.11,1.04,5.94,1.98,1.87.93,3.95,1.72,5.94,2.36,2.17.67,4.49,1.35,6.79,1.32,2.02-.21,4.02.67,5.94,1.18,3.51,4.58,8.04,9.67,14.42,7.42,3.72-3.64,4.61-9.43,7.63-13.59,2.02-2.97,5.21-3.24,8.48-2.61,2.22.3,4.56.57,6.79.83"/><path class="b" d="M10.75,167.24c5.84-4.97,9.9-7.51,17.81-7.25,2.81.07,5.68-.41,8.48-.39,2.87.04,5.63,1.3,8.48,1.48,3.38,0,6.81-.66,10.18-.99,4.31-2.06,8.15-2.18,12.72-.9.74.35,1.77.1,2.54.05,1.08-.05,2.36.1,3.39.39,1.87.42,3.37,1.83,5.09,2.47,1.17.16,2.34-.71,3.39-1.11,1.6-.8,3.47-1.35,5.09-2.1,2.42-1.34,5.01-2.56,7.63-3.43,2.19-.5,4.56-.06,6.79-.31,1.37-.08,2.87-.48,4.24-.48,3.35.54,3.74,5.04,5.94,7.05,2.94-7.85,5.22-7.19,11.88-3.55,4.42,1.73,8.9,3.62,13.57,4.52,2.23.34,4.57-.02,6.79-.24,3.76,4.16,7.02,9.89,13.57,6.92,3.42-3.39,4.61-8.55,7.63-12.26,1.97-2.63,5.51-2.86,8.48-2.18,2.25.1,4.63.32,6.79,1.03"/><path class="b" d="M10.75,164.02c5.37-5.16,10.02-5.04,16.96-5.03,3.38,0,6.8-.95,10.18-.6,1.97.26,3.98.96,5.94,1.29,1.64.31,3.44.16,5.09-.04,1.36-.22,3.01-.06,4.24-.75,3.36-2.13,7.03-3.21,11.03-2.99,1.37-.06,2.91.53,4.24.17,3.4-.83,7.25-.52,10.18,1.53,1.32.92,2.65,2.18,4.24,2.62,1.95-.79,3.98-1.71,5.94-2.48,1.39-.69,2.86-1.62,4.24-2.32,1.41-.57,2.83-1.53,4.24-2.08,2.17-.56,4.55-.71,6.79-.62,3.18.38,3.76,4.32,5.94,6.08l.85-.16c2.85-7.9,5.66-5.9,11.87-3,2.79.93,5.78,1.5,8.48,2.7,4.67,2.04,9.21,3.83,14.42,3.14,4.45,3.67,9.63,9.74,14.42,2.83,2.5-3.33,4.04-7.81,7.63-10.17,2.04-1.14,4.59-.96,6.79-.45,2.32.08,4.77.58,6.79,1.76"/><path class="b" d="M10.75,160.73c4.34-4.29,9.9-2.42,15.27-2.57,3.69-.07,7.32-1.49,11.03-1.24,1.98.18,3.99.81,5.94,1.17,1.93.4,4,.28,5.94.06,1.41-.41,2.91-1.07,4.24-1.67,3.89-2,8.39-2.59,12.72-2.45,2.77-.54,5.64-1.08,8.48-.9,2.07.03,4.2.66,5.94,1.8.77.49,1.77,1.25,2.54,1.74,1.09.31,2.29.99,3.39,1.27,1.35-.6,2.91-1.17,4.24-1.82,1.93-1.05,3.85-2.43,5.94-3.16,1.89-.59,3.92-1.63,5.94-.87.95.34,1.94,1.25,2.54,2.03,1.01.91,2.43,1.71,3.39,2.68,1.26-2.95,2.72-7.33,6.79-5.76,1.06.3,2.32.68,3.39.94.74.37,1.76.84,2.54,1.09,2.77.75,5.8.75,8.48,1.85,5.47,2.23,10.85,5.47,16.96,5.24,6.52,5.57,10.22,6.32,15.27-1.33,2.77-4.01,5.55-7.86,11.03-6.89,2.9.61,6.18,1.23,8.48,3.22"/><path class="b" d="M10.75,157.57c2.94-2.42,6.84-1.05,10.18-.44,2.22.41,4.59.37,6.79-.16,2.5-.6,5.03-1.6,7.63-1.62,2.29-.05,4.56.75,6.79,1.14,2.83.52,5.77-.33,8.48-1.12,3.81-1.44,7.82-2.38,11.87-2.74,2.55-.08,5.09-.78,7.63-.96,3.64-.17,7.57-1.07,11.03.5.8.37,1.83.99,2.54,1.49.74.24,1.8.5,2.54.75,1.1.28,2.23,1.27,3.39,1.14,2.1-.72,4-2.12,5.94-3.16,3.39-1.75,7.33-.19,10.18,1.91,3.8-8.59,5.37-5.19,12.72-3.95,2.68,1.06,5.72.63,8.48,1.3,3.26.76,6.26,2.51,9.33,3.78,3.5,1.52,7.22,2.67,11.03,3.1,1.24.99,2.74,1.97,4.24,2.52,6.79,2.32,9.71-6.35,14.42-9.4,3.26-2.21,7.68-1.53,11.03.13,1.73.86,3.02,2.63,4.24,4.07"/><path class="b" d="M10.75,154.67c2.17-1.14,4.65-.1,6.79.62,1.87.66,3.94,1.2,5.94,1.1,2.65-.1,5.14-1.34,7.63-2.1,3.94-1.32,7.93.51,11.87.72,1.55-.76,3.42-.75,5.09-1.05,1.96-.34,3.99-.9,5.94-1.29,5.9-.95,11.85-1.91,17.81-2.3,2.52-.18,5.1-.77,7.63-.81,1.09,0,2.37.23,3.39.61,1.03.47,2.23,1.07,3.39,1.08,1.4.2,2.93.62,4.24,1.14.75.28,1.7.94,2.54.7,3-1.98,5.94-3.02,9.33-1.16.92-.79,1.78-2.22,2.54-3.15,1.3-1.65,2.99-2.56,5.09-1.9,1.92.52,3.97,1,5.94,1.28,1.36.2,2.87.53,4.24.66,1.94.14,4.02.08,5.94.43,3.27.6,6.29,2.23,9.33,3.49,2.73,1.14,5.61,2.16,8.48,2.88,1.35.38,2.9.57,4.24.96.7.52,1.73,1.14,2.54,1.47,6.7,2.58,10.15-5.82,15.27-8.35,3.17-1.58,7.07-1.05,10.18.44,1.81.86,3.05,2.79,4.24,4.33l.85-1.37"/><path class="b" d="M10.75,152.04c2.4-.47,4.62,1.13,6.79,1.91,2.98,1.32,6.38,1.15,9.33-.15,1.31-.53,2.89-.65,4.24-1.07,3.05-.96,6.27-.41,9.33.15,1.09.33,2.23-.57,3.39-.6,3.4-.06,6.81-.62,10.18-1.01,3.4-.22,6.81-.87,10.18-1.34,2.22-.27,4.56-.29,6.79-.48,3.71-.15,7.32-1.52,11.03-1.6,1.41,0,2.93.43,4.24.94,1.36,0,2.88.15,4.24.26,2.24.09,4.54,1.09,6.79.56,3.21-.75,5.23-4.09,8.48-4.68,1.69-.14,3.44.5,5.09.78,1.93.34,4,.47,5.94.74,3.34.66,6.86.22,10.18,1.03,3.2.76,6.25,2.25,9.33,3.39,3.83,1.45,7.84,2.58,11.88,3.28,1.4.45,2.7,1.61,4.24,1.71,5.32.19,8.28-5.48,12.72-7.51,3.18-1.54,7.07-1.11,10.18.41,1.32.7,2.46,2.1,3.39,3.23,1.18-.64,1.73-2.51,2.54-3.51"/><path class="b" d="M10.75,149.58c2.73.13,5.03,2.11,7.63,2.75,2.02.67,3.92.23,5.94.07,2.93.15,5.67-1.22,8.48-1.79,2.24-.37,4.57.14,6.79.41.78-.16,1.76-.59,2.54-.7,3.08-.18,6.25-.05,9.33-.33,2.81-.14,5.71-.14,8.48-.64,3.89-.81,7.95-.44,11.87-.93,3.74-.29,7.33-1.67,11.03-2.16,1.06-.12,2.34-.1,3.39.07.77.13,1.76.5,2.54.39,2.22-.23,4.57-.24,6.79-.57,1.74-.34,3.48-1.18,5.09-1.89,2.88-1.47,5.49-.86,8.48-.3,2.5.36,5.13.28,7.63.6,3.63.69,7.44.46,11.03,1.4,5.42,1.47,10.61,3.82,16.12,5,1.64.38,3.43.72,5.09.99.8.23,1.76.87,2.54,1.15,1.03.36,2.36.37,3.39.03,3.76-1.39,6.4-4.9,10.18-6.29,3.95-1.36,8.93-.6,11.88,2.5l.85-.26c.84-1.24,1.77-3.18,3.39-3.45"/><path class="b" d="M10.75,147.14c4.75,1.24,9.3,4.56,14.42,3.4,2.27-.43,4.48-1.48,6.79-1.74,1.37-.16,2.89.01,4.24.21,1.11.22,2.38.29,3.39-.3,1.61-.55,3.43-.28,5.09-.21,1.65.04,3.44,0,5.09-.06,2.23-.13,4.56.04,6.79-.05,1.96-.05,3.98-.59,5.94-.56,3.09.02,6.26.06,9.33-.38,3.44-.4,6.84-1.35,10.18-2.23,1.62-.41,3.41-.73,5.09-.74,1.07-.03,2.32.21,3.39.18,2.25-.4,4.62-.78,6.79-1.54,5.88-2.31,7.88-.68,13.57-.58,2.23,0,4.57-.02,6.79.29,1.95.29,3.97.8,5.94.92,5.53.56,10.79,2.55,16.12,3.99,3.32.92,6.77,1.63,10.18,2.13,1.06.37,2.25,1.06,3.39,1.17,4.27.24,7.23-3.76,11.03-5.1,3.51-1.35,7.87-1.21,11.03.96l.85-.26c1.24-1.75,2.84-3.44,5.09-2.17"/><path class="b" d="M10.75,145.1c4.96,2.32,8.86,4.13,14.42,2.59,2.19-.53,4.53-.98,6.79-.75,1.64.07,3.5.98,5.09.36.73-.39,1.73-.72,2.54-.78,1.67-.12,3.43.34,5.09.43,2.51.13,5.12.06,7.63-.08,1.36-.16,2.88-.04,4.24-.06,1.36-.02,2.88-.27,4.24-.17,3.95.23,7.98.37,11.88-.43,4.58-.73,9.04-2.23,13.57-3.2,1.92-.37,3.99-.52,5.94-.46,1.07-.25,2.34-.58,3.39-.9,2.17-.68,4.49-1.3,6.79-1.24,2.23.07,4.54.53,6.79.49,2.8-.03,5.69-.27,8.48.12,3.12.44,6.19,1.49,9.33,1.81,5.14.83,10.2,2.3,15.27,3.46,1.93.44,3.98.86,5.94,1.17,1.39.2,2.95.39,4.24.98,3.7,1.27,7.04-1.48,10.18-3.02,3.37-1.68,7.51-2.17,11.03-.67.88-.45,1.72-1.5,2.54-2.01,1.71-.97,3.66.13,5.09,1.13"/><path class="b" d="M10.75,142.97c7.52,3.76,10.53,1.07,17.81,1.96,1.94.22,3.98.81,5.94.75.73-.38,1.75-.72,2.54-.93,2.55-.55,5.11.67,7.63.87,4.23.47,8.5-.17,12.72-.27,4.22.01,8.51.84,12.72.18,8-1.23,15.65-4.4,23.75-5.04,2.19-.62,4.49-1.34,6.79-1.39,2.23-.1,4.55.31,6.79.31,4.52-.12,9.15-.67,13.57.61,4.95,1.6,10.18,2.05,15.27,3.08,4.79.92,9.59,2.06,14.42,2.74,1.66.23,3.38.94,5.09.73,2.38-.23,4.61-1.43,6.79-2.33,1.85-.78,3.93-1.36,5.94-1.44,1.06-.08,2.34.2,3.39.08,3.29-3.72,5.89-1.79,9.33.39"/><path class="b" d="M10.75,140.39c1.86.72,3.95,1.11,5.94,1.19,1.93.32,3.99.5,5.94.59,2.85.14,5.7.84,8.48,1.4,2.09-.96,4.52-1.2,6.79-.85,1.68.35,3.41,1.03,5.09,1.41,2.75.62,5.68.67,8.48.49,2.51-.2,5.1-.6,7.63-.44,3.37.13,6.81.69,10.18.32,3.16-.35,6.27-1.37,9.33-2.18,3.94-.95,7.92-1.99,11.87-2.86,1.35-.28,2.88-.52,4.24-.75,1.35-.31,2.85-.73,4.24-.83,2.23-.22,4.56.03,6.79.09,3.94.05,7.94-.74,11.87-.15,3.47.42,6.78,1.78,10.18,2.52,6.51.88,13.06,1.67,19.51,2.96,2.79.4,5.66,1.11,8.48,1.18,2.91-.05,5.71-1.2,8.48-1.94,1.61-.5,3.45-.56,5.09-.9,4.59-4.9,7.16-1.58,11.88.72"/><path class="b" d="M10.75,137.4c2.24.45,4.54,1.07,6.79,1.51,3.43.48,6.87,1.2,10.18,2.24,1.8-1.02,3.97-.85,5.94-.55,1.38.17,2.96.08,4.24.7,3.99,1.72,8.36,2.77,12.72,2.38,2.81-.19,5.65-.84,8.48-.75,3.66.03,7.37.67,11.03.24,3.48-.4,6.82-1.74,10.18-2.66,4.77-1.14,9.59-2.34,14.42-3.25,3.59-1.01,7.35-.74,11.03-.72,3.66-.11,7.37-.74,11.03-.29,3.77.38,7.37,1.81,11.03,2.69,3.33.69,6.8.82,10.18,1.14,5.4.4,10.75,1.54,16.12,2.24,2.82.26,5.72-.12,8.48-.64,1.37-.37,3.15-.18,4.24-1.21,6.52-6,7.81-1.86,14.42.7"/><path class="b" d="M10.75,134.45c4.22,1.32,8.7,2.07,12.72,3.96,2.73-1.54,5.73-.2,8.48.52,1.06.22,2.32.3,3.39.25,2.16,1.07,4.47,2.04,6.79,2.69,6.03,1.91,10.23.4,16.12-.19,4.52-.39,9.09.85,13.57-.02,3.49-.48,6.81-1.9,10.18-2.86,3.91-1,7.93-1.85,11.87-2.69,3.59-1.02,7.33-.94,11.03-.98,3.94-.19,7.94-.84,11.88-.26,3.46.44,6.82,1.62,10.18,2.52,2.75.66,5.66.97,8.48,1.12,3.37.15,6.82.22,10.18.62,3.66.36,7.35,1.14,11.03,1.28,2.57.01,5.34.17,7.63-1.19,1.72-.91,3.33-2.33,5.09-3.17,2.29-1.06,4.78.35,6.79,1.45,1.58.91,3.36,1.79,5.09,2.38"/><path class="b" d="M10.75,131.98c2.91.93,5.87,2.03,8.48,3.64.83-.19,1.69-.91,2.54-1.02,2.41-.08,4.56,1.51,6.79,2.22,1.59.7,3.39.81,5.09.94,2.1,1.21,4.46,2.09,6.79,2.73,6.12,2,10.02,1.45,16.12.09,1.37-.29,2.88-.37,4.24-.02,1.93.32,3.98.63,5.94.72,4.71.31,9.18-1.55,13.57-2.97,3.56-1.3,7.33-2.09,11.03-2.91,1.96-.37,3.98-.98,5.94-1.32,2.22-.28,4.56-.25,6.79-.39,3.65-.25,7.37-.8,11.03-.39,5.77.58,11.17,3.15,16.96,3.6,3.91.58,7.94.31,11.88.41,3.95.07,7.94.58,11.87.86,2.88.2,5.92-.16,8.48-1.56,1.9-.95,3.76-2.47,5.94-2.64,1.8,0,3.55.96,5.09,1.79,1.87,1.03,3.91,2.04,5.94,2.7"/><path class="b" d="M10.75,130.33c1.77.93,3.57,2.12,5.09,3.42,2.82-4.44,5.13-1.6,8.48.25,1.55.86,3.35,1.46,5.09,1.75,1.4.56,2.83,1.48,4.24,2.02,1.87.77,3.98,1.13,5.94,1.62,2.49.55,5.07,1.25,7.63,1.32,3.46.16,6.8-1.12,10.18-1.56,5.99,1.21,11.93,2.24,17.81-.09,5.54-2.01,11.19-3.84,16.96-5.05,1.67-.33,3.39-1.05,5.09-1.29,1.93-.27,4-.35,5.94-.54,5.36-.68,10.87-.98,16.12.55,2.81.68,5.65,1.61,8.48,2.22,1.34.28,2.88.33,4.24.5,1.63.3,3.43.51,5.09.54,5.93-.03,11.89-.57,17.81-.1,3.82.29,7.66-.58,11.03-2.41,2.1-1.13,4.57-1.62,6.79-.47,2.79,1.31,5.53,2.96,8.48,3.9"/><path class="b" d="M10.75,130.67c.44.44,1.29,1.35,1.7,1.82.57-.43,1.45-1.84,1.7-2.53,1.83-3.1,3.82-1.53,5.94.23.75.59,1.73,1.34,2.54,1.82.77.45,1.88.89,2.54,1.51,2.58,2.23,6.01,3.29,9.33,3.76,2.53.36,5.13.84,7.63,1.33,2.76.63,5.67.97,8.48.46,1.68-.26,3.45-.72,5.09-1.14,1.09-.11,2.32.38,3.39.54,1.64.33,3.43.64,5.09.85,6.44,1.04,11.12-1.46,16.96-3.49,2.48-.85,5.16-1.26,7.63-2.14,2.28-.5,4.58-1.24,6.79-1.99,2.17-.64,4.55-.81,6.79-1.12,3.07-.41,6.24-.75,9.33-.52,4.92.36,9.64,2.09,14.42,3.19,2.19.59,4.55.66,6.79.84,2.76.6,5.67.79,8.48.59,3.11-.15,6.25-.65,9.33-1.05,1.06-.07,2.34,0,3.39.16,2.24.02,4.59-.04,6.79-.53,2.01-.43,4.01-1.32,5.94-2,2.62-1.05,5.24-.39,7.63.94,2.17,1.11,4.47,2.21,6.79,2.98"/><path class="b" d="M10.75,130.82c.77-1.85,1.4-4.8,3.39-5.7,1.37-.09,2.47,1.19,3.39,2.03,1.02,1.04,2.39,2.07,3.39,3.12,2.36,2.74,5.78,4.23,9.33,4.61,3.37.47,6.83.79,10.18,1.38,3.06.58,6.18,1.43,9.33,1.04,1.97-.14,4-.63,5.94-1,1.34.45,2.86.85,4.24,1.15,9.35,2.08,11.9.68,20.36-2.61,2.72-.99,5.63-1.61,8.48-2.05,1.7-.49,3.45-1.23,5.09-1.9,5.9-2.15,12.42-3.04,18.66-2.2,5.44.86,10.66,2.93,16.12,3.68,1.64.29,3.45.11,5.09.35,3.02.62,6.3,1.27,9.33.42,3.02-.92,6.1-2.35,9.33-2.04,1.08.11,2.35.4,3.39.71.75.05,1.8-.06,2.54-.14,3.48-.29,6.75-1.86,10.18-2.39,2.35-.33,4.71.58,6.79,1.59,1.89.88,3.94,1.76,5.94,2.38"/><path class="b" d="M10.75,123.2c.37-.42,1.11-.94,1.7-.94,1,.2,1.93,1.21,2.54,1.97,1.08,1.39,2.24,3.13,3.39,4.47,1.89,2.29,4.66,3.83,7.63,4.08,3.93.39,7.96.02,11.87.56,3.69.33,7.29,1.79,11.03,1.6,2.25.08,4.56-.56,6.79-.53,1.04.45,2.31.91,3.39,1.24,9.23,2.71,11.95,1.56,20.36-2.04,2.45-.87,5.07-1.53,7.63-1.93.75-.11,1.79-.19,2.54-.23.81-.24,1.78-.86,2.54-1.2,9.8-4.95,17.8-4.24,27.99-1.12,4.41,1.12,8.98,2.3,13.57,1.98,2.2.4,4.53,1.4,6.79.95,3.45-1,6.49-3.44,10.18-3.65,1.38-.11,2.93.17,4.24.6.74.24,1.77.66,2.54.82.4-.06,1.29-.18,1.7-.25,4.48-.68,9.02-2.68,13.57-1.41,2.86.78,5.62,2.12,8.48,2.87"/><path class="b" d="M10.75,120.09c1.36,1.17,2.42,3.08,3.39,4.56,3.17,5.2,6.63,7.12,12.72,6.54,4.21-.32,8.5-1.09,12.72-.49,1.98.23,3.99.84,5.94,1.22,3.07.36,6.26.27,9.33.02,1.47.16,2.83,1.27,4.24,1.7,2.42.93,5.04,1.7,7.63,1.91,4.27.47,8.11-1.77,11.88-3.43,3.2-1.42,6.8-1.59,10.18-2.29,3.06-.47,5.71-2.24,8.48-3.51,3.96-1.74,8.51-1.68,12.72-1.13,8.2,1.43,16.14,4.85,24.6,4.43,2.7,1.65,5.02,1.45,7.63-.31,5.65-3.83,9.81-4.8,16.12-1.55,11.35-2.03,11.8-2.18,22.9,1.26"/><path class="b" d="M10.75,120.9c6.84,13.12,12.85,8.18,24.6,6.87,2.23-.2,4.59-.12,6.79.34,2.2.59,4.5,1.02,6.79,1.04,1.94.11,3.99.2,5.94.18,1.23-.03,2.3,1.12,3.39,1.57,1.59.83,3.38,1.59,5.09,2.13,3.67,1.42,5.84,1.05,9.33-.61,2.98-1.41,6.08-2.84,9.33-3.5,3.65-.7,7.45-.99,11.03-2.01,1.93-1.07,3.84-2.48,5.94-3.2,3.27-.98,6.84-.8,10.18-.33,5.42.94,10.69,2.76,16.12,3.72,2.48.62,5.13.71,7.63,1.07,1.37.33,2.82,1.07,4.24,1.15,1.91.02,3.62-1.27,5.09-2.35,2.26-1.69,4.73-3.6,7.63-3.89,2.3-.19,4.65.58,6.79,1.35,1.07.37,2.24,1.21,3.39,1.25,7.64-1.73,13.85-.52,21.21,1.7"/><path class="b" d="M10.75,122.19c6.64,11.11,15.84,3.24,25.45,2.73,2.53-.18,5.18-.08,7.63.6,1.91.46,3.99.5,5.94.7,1.94.19,3.99.4,5.94.5,1.12.56,2.3,1.5,3.39,2.11,1.37.75,2.91,1.56,4.24,2.38,5.22,2.55,9.77-2.63,14.42-4.28,4.27-1.94,9.05-1.18,13.57-1.76.76-.09,1.8-.24,2.54-.43,1.33-.9,2.78-1.98,4.24-2.66,5.48-2.06,11.51-.35,16.96,1,3.63.9,7.36,1.67,11.03,2.41,1.35.28,2.87.55,4.24.7,1.06.33,2.31.83,3.39,1.1,1.33.37,2.91.66,4.24.14,3.24-1.43,5.38-4.64,8.48-6.31,4.81-2.9,9.9.97,14.42,2.65,6.85-1.38,13.74.59,20.36,2.25"/><path class="b" d="M10.75,122.35c1.15,1.5,2.94,2.63,4.24,3.99,3.9,3.16,8.7-.16,12.72-1.34,2.98-1.01,6.19-1.48,9.33-1.55,2.83-.18,5.67.56,8.48.61,1.94-.1,3.99-.41,5.94-.35,1.66.07,3.43.43,5.09.58,2.23,1.61,4.22,3.8,6.79,4.88,6.22,2.62,10.81-6.43,19.51-6.66,2.52-.19,5.12.1,7.63.14,1.71-.04,3.77.28,5.09-1.07,5.16-4.16,11.97-1.75,17.81-.85,3.45.46,6.82,1.62,10.18,2.48,1.62.44,3.43.61,5.09.84.81.11,1.79.66,2.54.94,2.45.95,5.44,1.45,7.63-.35,3.53-2.65,6.24-7.25,11.03-7.64,1.74-.1,3.53.57,5.09,1.27,2.29,1,4.57,2.28,6.79,3.42,4.28-.41,8.57.35,12.72,1.34,1.07.26,2.34.62,3.39.94,1.06.13,2.35.23,3.39.48"/><path class="b" d="M10.75,121.72c1.29.92,2.3,2.48,3.39,3.59,3.85,3.61,8.74.11,12.72-1.38,4.01-1.57,8.46-2.06,12.72-1.49,1.94.25,3.96.84,5.94.75,2.52-.22,5.1-.71,7.63-.76,1.67.05,3.89-.45,5.09.99,2.48,2.23,5.81,5.02,9.33,3.46,2.76-1.22,5.03-3.45,7.63-4.95,5.36-3.42,11.88-2.14,17.81-1.55,3.02.34,3.34-3.68,11.03-3.01,1.37.1,2.9.34,4.24.62,2.53.1,5.16.23,7.63.84,2.87.64,5.68,1.8,8.48,2.68,1.61.59,3.49.67,5.09,1.25,2.4.86,5.22,1.71,7.63.46,4.07-2.32,6.38-7.24,11.03-8.68,2.58-.83,5.3.24,7.63,1.32,2,.91,4.05,2,5.94,3.13.89.76,2.3.61,3.39.64,1.07.07,2.35.28,3.39.52,2.51.63,5.11,1.29,7.63,1.89,1.64.23,3.46.09,5.09.51"/><path class="b" d="M10.75,120.62c1.21,1.08,2.04,2.89,3.39,3.85,4.47,3.35,9.27-1.26,13.57-2.67,2.67-1.01,5.64-1.37,8.48-1.21,2.85.08,5.64,1.15,8.48,1.24,1.67.03,3.44-.44,5.09-.63,2.78-.38,5.68-.58,8.48-.25,10.51,10.35,11.77-2.58,22.9-3.7,2.23-.21,4.58-.16,6.79.24,1.95.31,3.96,1,5.94,1.08,5.23-4.61,8.42-2.74,14.42-2.94,3.41.13,6.9.51,10.18,1.49,3.43,1.04,6.66,2.85,10.18,3.63,8.79,3.18,10.24-2.12,16.12-6.86,2.37-1.9,5.61-2.6,8.48-1.5,3.27,1.03,6.44,2.63,9.33,4.47,0,0,.85.45.85.45h.85c.76,0,1.8.14,2.54.31,2,.4,3.97,1.31,5.94,1.83,1.08.1,2.35.4,3.39.69,1.65-.18,3.46-.18,5.09.15"/><path class="b" d="M10.75,119.28c5.58,8.53,10.02,3.46,16.96.49,2.66-1.08,5.64-1.42,8.48-1.19,2.58.15,5.08,1.19,7.63,1.44,2.26.21,4.55-.52,6.79-.75,2.79-.4,5.68-.49,8.48-.15,12.75,11.73,10.8-11.02,33.08-2.19.55-.07,1.33-.64,1.7-1.03.97-.77,2.22-1.54,3.39-1.94,1.87-.64,3.98-.72,5.94-.55,1.36-.13,2.88-.11,4.24.02,3.95.37,8.05.36,11.87,1.56,2.9.88,5.63,2.45,8.48,3.47,6.22,2.12,9.19.89,13.57-3.73,2.81-2.92,6.75-5.94,11.03-4.58,2.95.74,5.9,1.92,8.48,3.55.35.31,1.22.71,1.7.75.41-.06,1.28-.09,1.7-.07,1.09.07,2.36.36,3.39.71,1.39.43,2.84,1.23,4.24,1.65.76-.02,1.81.13,2.54.3.76.17,1.81.47,2.54.72,1.36.06,2.89-.13,4.24.13"/><path class="b" d="M10.75,117.72c4.26,6.47,8.84,4.49,14.42,1.15,2.59-1.41,5.51-2.44,8.48-2.5,3.17-.21,6.27.72,9.33,1.38,1.95.38,4.01-.02,5.94-.31,3.63-.48,7.4-.87,11.03-.19,1.69,1.38,3.65,2.96,5.94,3.02,7.47-.7,9.53-12.51,24.6-4.95l.85-.12c4.6-5.31,10.79-4.07,16.96-3.37,8.38.32,10.94.25,18.66,4.1,3.73,1.91,8.61,2,11.88-.89,3.65-2.97,7.48-7.65,12.72-6.53,2.95.65,5.97,1.61,8.48,3.33,3.33-1.64,7.1-.16,10.18,1.39.75.14,1.79.06,2.54.17,1.09.18,2.35.54,3.39.89,1.08.34,2.29.95,3.39,1.22.42-.01,1.28.02,1.7.06"/><path class="b" d="M10.75,115.96c4.34,5.76,9.15,3.88,14.42.73,2.6-1.4,5.51-2.46,8.48-2.56,1.95-.07,4.02.08,5.94.45,2.47.59,5.1,1.14,7.63.6,3.06-.43,6.24-.64,9.33-.46,1.36.14,2.98.03,4.24.62,1.46,1.15,3.18,2.4,5.09,2.57,2.65.15,4.82-1.84,6.79-3.35,5.67-4.68,9.93-4.54,16.12-.84.57-.15,1.36-.9,1.7-1.36.7-.7,1.69-1.57,2.54-2.07,4.22-2.42,9.11-.64,13.57-.11,8.74.48,11.88-.59,20.36,3.55,3.68,2.06,8.47,2.12,11.88-.54,7.17-5.66,9.59-8.14,18.66-3.55,3.65-2.79,7.12-2.02,11.03-.24,1.03.35,2.33.05,3.39.33,3.22.73,6.37,2.05,9.33,3.5"/><path class="b" d="M10.75,113.92c4.85,5.38,9.86,3.07,15.27.16,2.88-1.42,6.11-2.28,9.33-2.21,2.84-.06,5.67.64,8.48.86,2.25.12,4.54-.58,6.79-.65,1.38.21,2.86.8,4.24,1.02,1.63.3,3.43.41,5.09.4.85-.17,1.82.43,2.54.8.75.33,1.77.84,2.54,1.1,4.03,1.16,7-2.8,10.18-4.56,4.39-2.81,7.75-1.29,11.88,1.05,1.75-2.13,3.87-4.51,6.79-4.8,4.04-.44,7.9,1.29,11.88,1.62,8.68.46,12.62-.86,21.21,3.01,6.36,3.12,10,1.6,15.27-2.55,4.59-3.29,7.63-3.73,12.72-1.12,3.73-3.84,5.95-4.17,11.03-2.55,1.57.74,3.45.46,5.09.95,3.46.95,6.9,2.25,10.18,3.69"/><path class="b" d="M10.75,111.66c4.77,4.42,10.06,2.85,15.27.26,2.92-1.3,6.12-2.18,9.33-2.25,3.38-.16,6.8.54,10.18.35,2.54.51,5.11,1.23,7.63,1.82,1.91.41,3.99.5,5.94.42,1.08-.05,2.39-.25,3.39.25,1.87.51,4.01,1.19,5.94.59,6.13-2.68,8.76-8.36,16.12-3.64.99-.31,1.81-1.49,2.54-2.16,1.53-1.56,3.74-2.56,5.94-2.15,5.58,1.1,11.23,2.4,16.96,2.18,3.95-.05,8.02-.15,11.88.85,2.28.58,4.59,1.45,6.79,2.28,2.37.98,5.2,1.75,7.63.55,1.08-.48,2.32-1.18,3.39-1.68.79-.3,1.86-.75,2.54-1.27,3.35-2.17,6.5-3.18,10.18-1.04,1.21-1.07,2.13-2.82,3.39-3.84,2.6-2.28,6.32-1.63,9.33-.63,1.3.5,2.9.42,4.24.8,4.02.99,8.07,2.19,11.88,3.84"/><path class="b" d="M10.75,109.27c8.5,5.89,15.11-.91,23.75-1.58,1.93-.16,4.01-.3,5.94-.09,1.07.29,2.33.71,3.39,1.03,4.69,1.23,9.52,2.74,14.42,2.34,1.06-.07,2.33-.18,3.39-.31,1.63.32,3.43.48,5.09.49,3.95.07,6.56-3.77,10.18-4.82,1.03-.35,2.34-.46,3.39-.12.76.22,1.72.81,2.54.73,6.87-6.95,8.44-2.18,16.12-1.03,2.51.31,5.13.03,7.63-.17,3.94.02,7.95-.07,11.87.28,3.18.31,6.32,1.23,9.33,2.25,3.67,1.31,5.66,1.89,9.33.04,1.81-.85,3.89-1.88,5.94-1.31,2.11-.87,4.58-1.58,6.79-.61,1.11-.64,1.81-2.31,2.54-3.31,2.56-4.05,5.69-4.83,10.18-3.63,6.21,1.66,12.69,2.51,18.66,5"/><path class="b" d="M10.75,106.86c3.59,1.92,7.89,2.33,11.87,1.68,3.69-.72,7.29-2.07,11.03-2.57,3.45-.73,6.92.59,10.18,1.61,3.02.9,6.19,1.66,9.33,2.01,2.81.25,5.7-.18,8.48-.51,2.5-.03,5.2.29,7.63-.39,3.54-1.41,6.91-5.46,11.03-3.78,7.6-5.97,7.66-2.86,15.27.1,5.54,1.87,11.34-.48,16.96-.67,5.75-.3,11.41,1.05,16.96,2.34,1.06.22,2.3.64,3.39.69.78-.1,1.81-.39,2.54-.67,2.65-1.09,5.74-2.76,8.48-1,.87.87,2.29.55,3.39.66l.85-.42c4.26-6.88,5.23-11.13,14.42-8.41,3.33.94,6.79,1.63,10.18,2.3,2.84.68,5.71,1.57,8.48,2.47"/><path class="b" d="M10.75,104.49c1.94.57,3.91,1.49,5.94,1.71,1.07.11,2.33.03,3.39-.11,1.07.03,2.33,0,3.39-.09,2.54-.25,5.12-.86,7.63-1.3,3.07-.77,6.3-.11,9.33.58,7.71,2.37,12.21,3.74,20.36,2.15,2.78-.4,5.73-.2,8.48-.75,2.87-1.01,5.32-3.47,8.48-3.61,3.59-1.36,5.93-4.7,10.18-2.38,2.25,1.23,4.35,2.99,6.79,3.88,5.78,1.99,11.98-.8,17.81-1.35,5.96-.76,11.94.54,17.81,1.44,1.06.12,2.33.56,3.39.31,4.81-1.66,7.48-3.87,11.87.44,1.18-.41,1.97-2.02,2.54-3.04,1.89-3.21,4-8.13,8.48-7.62,3.43.44,6.82,1.52,10.18,2.32,4.87.85,9.68,2.15,14.42,3.53"/><path class="b" d="M10.75,102.24c2.39.3,4.43,1.52,6.79,1.84,2.24.31,4.58-.04,6.79-.4,1.94-.21,4-.29,5.94-.58,3.37-.44,6.88.02,10.18.75,4.97,1.31,10.05,3.16,15.27,2.57,3.09-.41,6.22-1.01,9.33-1.28,1.65-.26,3.51-.08,5.09-.69,1.39-.57,2.85-1.42,4.24-2,.76-.31,1.86-.53,2.54-1,2.9-2.07,6.78-4.33,10.18-2,2.51,1.57,4.74,3.85,7.63,4.74,2.46.77,5.15.39,7.63-.01,2.82-.47,5.68-1.16,8.48-1.73,3.88-.85,7.93-.96,11.87-.55,3.65.33,7.36.78,11.03.89,2.44-.82,4.97-2.42,7.63-1.81.78.2,1.71.88,2.54.86,1.54-.77,3.03-2,4.24-3.21,1.85-2.21,3.36-5.83,6.79-5.6,3.44.39,6.78,1.68,10.18,2.29,1.91.55,4,.82,5.94,1.24,3.39.76,6.81,1.71,10.18,2.54"/><path class="b" d="M10.75,100.15c.77.1,1.78.2,2.54.26,1.64.56,3.36,1.31,5.09,1.56,4.5.69,9.05-.59,13.57-.55,3.11-.07,6.3.27,9.33.98,3.35.82,6.73,1.9,10.18,2.25,2.82.32,5.71-.14,8.48-.67,3.08-.42,6.22-.99,9.33-1.14,2-.55,3.98-1.54,5.94-2.24,3.04-2.24,7.32-5.06,11.03-2.68,2.6,1.62,4.71,4.19,7.63,5.27,5.3,1.9,15.34-1.91,21.21-2.56,6.19-.84,12.45.59,18.66.03,1.92-.67,3.87-1.76,5.94-1.84.41,0,1.29.11,1.7.23,1.58-.24,2.99-1.5,4.24-2.41,8.09-6.7,6.39-5.76,16.12-3.15,6.51,1.32,13.06,2.53,19.51,4.13"/><path class="b" d="M10.75,98.27c1.07.06,2.33.02,3.39.13,1.9.67,3.93,1.34,5.94,1.6,3.93.52,7.93-.22,11.88-.27,3.1-.09,6.29.17,9.33.79,3.66.73,7.3,1.93,11.03,2.24,2.24.19,4.58-.07,6.79-.45,2.25-.19,4.56-.68,6.79-1.02,1.35-.24,2.89-.23,4.24-.49,1.37-.42,2.9-.91,4.24-1.41,3.14-2.04,7.16-5.08,11.03-3.27,3.18,1.94,5.62,5.32,9.33,6.31,2.49.59,5.15.07,7.63-.31,4.27-.66,8.47-1.9,12.72-2.65,5.32-.99,10.76.18,16.12-.29,2.7,0,4.99-1.89,7.63-2.23,1.19.07,2.44-.44,3.39-1.13,1.72-1.1,3.41-2.53,5.09-3.69,6.03-4.22,9.13-.44,15.27.64,6.23,1,12.49,2.06,18.66,3.43"/><path class="b" d="M10.75,96.65c1.07-.03,2.32-.09,3.39-.15,1.39.15,2.87.66,4.24.94,2.75.65,5.66.83,8.48.69,4.22-.21,8.52-.49,12.72.09,4.56.55,8.99,2.08,13.57,2.47,3.96.17,7.99-.21,11.88-1.03,1.92-.45,4.03-.41,5.94-.85,1.07-.33,2.39-.53,3.39-1.02,2.38-1.44,4.88-3.02,7.63-3.62,2.06-.37,3.53,1.75,5.09,2.74.69.48,1.71.97,2.54,1.11,1.98,1.56,4.16,3.25,6.79,3.4,6.64.2,13.04-2.15,19.51-3.3,4.76-.85,9.63.12,14.42-.21,3.25-.32,5.99-2.92,9.33-2.89,2.93-1.61,5.4-4.14,8.48-5.49,4.93-2.18,8.82,1.27,13.57,2.14,2.77.62,5.68.84,8.48,1.26,3.67.51,7.38,1.22,11.03,1.86"/><path class="b" d="M10.75,95.37c1.65-.09,3.43-.47,5.09-.31,3.65.42,7.33,1.23,11.03,1.12,4.51-.09,9.08-.44,13.57.1,4.27.43,8.47,1.65,12.72,2.18,2.23.11,4.55.54,6.79.33,3.12-.27,6.22-1.14,9.33-1.49,1.97-.23,4.17-.43,5.94-1.39,1.89-1.04,3.91-2.13,5.94-2.88,1.21-.27,2.49.49,3.39,1.22,1.66,1.38,3.64,3.01,5.94,2.69,3.12,2.24,5.37,3.39,9.33,2.99,5.19-.32,10.22-1.84,15.27-2.95,2.76-.55,5.67-.65,8.48-.5,2.23.05,4.59.54,6.79-.03,2.04-.55,3.98-1.7,5.94-2.47.73-.29,1.76-.6,2.54-.71.48.05,1.3-.21,1.7-.48,3.56-2.66,7.08-5.82,11.87-5.12,2.9.59,5.55,2.3,8.48,2.81,6.71,1.39,13.6,1.87,20.36,2.97"/><path class="b" d="M10.75,94.36c2.23-.25,4.54-.7,6.79-.66,3.09,0,6.24.42,9.33.45,3.09.04,6.24-.13,9.33-.09,2.52.12,5.13.3,7.63.52,3.4.41,6.8,1.2,10.18,1.71,1.59.57,3.4.82,5.09.8,3.42-.04,6.81-.97,10.18-1.5,2.23-.45,4.75-.24,6.79-1.38,1.42-.6,2.78-1.72,4.24-2.22,2.68-.71,4.61,2.01,6.79,3.07.7.37,1.75.67,2.54.69.79,0,1.79-.39,2.54,0,.71.51,1.75,1.13,2.54,1.48,6.55,2.59,14.59-.72,21.21-1.8,2.49-.4,5.11-.51,7.63-.38,1.94.12,4.01.61,5.94.11,3.77-.86,7-3.97,11.03-3.66,3.87-3.18,7.38-6.04,12.72-4.7,2.22.82,4.44,1.97,6.79,2.44,6.96,1.59,14.12,2.25,21.21,2.94"/><path class="b" d="M10.75,93.47c2.81-.31,5.66-.88,8.48-1.11,3.08-.29,6.24-.2,9.33-.2,4.23,0,8.53-.25,12.72.45,3.09.36,6.28.11,9.33.81,2.3.33,4.43,1.69,6.79,1.81,3.98.45,7.99-.49,11.88-1.25,1.35-.27,2.88-.53,4.24-.71,1.14-.07,2.42-.36,3.39-.99,1.52-.82,3.3-1.89,5.09-1.43,4.06,1.56,6.13,5.16,11.03,2.73,6.08,4.12,13.71,2.1,20.36.74,2.49-.48,5.1-.81,7.63-.85,1.64.3,3.41.68,5.09.73,5.53.46,9.73-5.12,15.27-4.26,3.46-3.18,7.01-5.41,11.88-4.15,2.2.89,4.45,1.96,6.79,2.43,6.94,1.58,14.09,2.52,21.21,2.74"/><path class="b" d="M10.75,92.36c4.27-.17,8.51-1.07,12.72-1.71,3.35-.43,6.8-.45,10.18-.45,2.23.03,4.58-.02,6.79.38,3.06.49,6.23.76,9.33.77,1.16-.11,2.32.73,3.39,1.06,1.32.49,2.85.88,4.24,1.06,4.26.55,8.57-.27,12.72-1.18,2.46-.68,5.34-.76,7.63-1.81,7.13-3.61,8.75,5.69,16.96,1.03,6.6,3.53,14.21,1.63,21.21.64,1.39-.34,2.88.11,4.24.37,2.48.46,5.12.85,7.63.4,4.95-.81,9.15-5.67,14.42-4.31,3.54-3.08,6.07-5,11.03-3.89,2.21.86,4.46,1.92,6.79,2.44,3.32.83,6.77,1.45,10.18,1.76,3.62.62,7.35.89,11.03.8"/><path class="b" d="M10.75,90.77c1.65-.12,3.43-.14,5.09-.19,2.51-.41,5.11-.85,7.63-1.18,4.18-.82,8.46-1.29,12.72-1.08,2.83,0,5.69.49,8.48.92,1.65.26,3.46.26,5.09.58,4.09,1.33,8.4,2.37,12.72,2.14,5.47-.25,10.82-1.78,16.12-3.04,1.89-.73,4.09-.71,5.94.14,4.72,2.29,6.98,2.87,11.88.47,1.41-.17,2.85.75,4.24.91,2.48.52,5.11.68,7.63.55,1.95-.04,3.99-.48,5.94-.47,2.48.69,5.12,1.13,7.63,1.67,2.57.33,5.17-.51,7.63-1.12,4.49-1.14,8.66-5.32,13.57-3.69,1.8-.92,3.03-2.89,5.09-3.55,4.51-1.56,7.69,1.15,11.87,2.17,2.75.74,5.64,1.27,8.48,1.52,4.18.78,8.48,1.07,12.72.92"/><path class="b" d="M10.75,88.58c1.65-.2,3.43-.18,5.09-.1,3.63-.59,7.35-1.07,11.03-1.21,1.68-.01,3.42-.59,5.09-.71,2.51-.25,5.12-.19,7.63.02,1.96.14,4,.54,5.94.84,1.37.23,2.94.27,4.24.8,5.15,1.72,10.69,2.46,16.12,2.1,3.44-.23,6.86-1.03,10.18-1.92,3.02-.8,6.24-1.87,9.33-.77,4.1,1.42,6.73,2.35,11.03.72,1.05-.32,2.29-.8,3.39-.92.74.2,1.79.44,2.54.59,2.48.5,5.1.72,7.63.64,1.98.35,3.93,1.39,5.94,1.71,1.68.28,3.36,1.15,5.09,1.17,4.45,0,8.38-2.71,12.72-3.39,2.65-1.21,5.49-2.58,8.48-2.34.76.07,1.77.47,2.54.33,5.52-6.53,9.5-3,16.12-1.19,6.67,1.51,13.51,2.46,20.36,2.2"/><path class="b" d="M10.75,86.12c2.21-.46,4.57-.2,6.79-.59,4.2-.64,8.5-.55,12.72-.26,3.6-.88,7.36-1.08,11.03-.51,2.24.3,4.55.74,6.79,1.08,1.67.42,3.41,1.08,5.09,1.48,4.42,1.05,9.02,1.76,13.57,1.64,3.42-.09,6.88-.69,10.18-1.58,2.76-.69,5.58-1.96,8.48-1.44,3.1.35,6.17,1.72,9.33,1.31,3.68-.36,7.33-2.12,11.03-1.13,2.13.16,3.92,1.78,5.94,2.41,1.04.42,2.34.75,3.39,1.12,2.07.99,4.54,1.47,6.79.8,2.38-.67,4.55-2.11,6.79-3.11,2.12-.94,4.5-1.5,6.79-1.82,3.39-.25,6.85-1.76,10.18-.38,1.58-1.3,2.99-3.18,5.09-3.66,1.96-.47,4.06.15,5.94.7,1.93.59,3.98,1.24,5.94,1.73,6.06,1.61,12.41,1.94,18.66,1.87"/><path class="b" d="M10.75,83.59c2.76-.61,5.68-.61,8.48-.93,3.97-.41,7.98.03,11.88.8,1.4-.11,2.83-.86,4.24-1,1.93-.3,4.01-.21,5.94.11,2.8.57,5.71,1.1,8.48,1.78,5.78,1.66,11.75,3.13,17.81,3.05,6.06.07,11.95-1.59,17.81-2.88,2.83-.31,5.68.62,8.48.88,2.82.21,5.69-.33,8.48-.66,1.43-.31,2.93.56,4.24,1.03,2.82,1.15,5.54,2.8,8.48,3.64,7.64,1.97,10.16-5.56,20.36-6.49,1.93-.24,4-.34,5.94-.19,1.96.19,3.97.81,5.94.94,2.25-2.77,4.94-4.24,8.48-2.95,2.5.77,5.07,1.67,7.63,2.22,5.83,1.24,11.88,1.32,17.81,1.43"/><path class="b" d="M10.75,80.85c4.47-.65,9.06-1.1,13.57-.61,2.29.29,4.58,1.07,6.79,1.73,1.16-.2,2.28-1.09,3.39-1.43,1.31-.47,2.85-.72,4.24-.66,1.99.07,4.01.7,5.94,1.15,2.23.54,4.58,1.03,6.79,1.65,3.88,1.1,7.85,2.18,11.88,2.61,3.92.42,7.95.31,11.87,0,5.39-.5,10.7-1.95,16.12-2.21,1.65.19,3.42.52,5.09.58,1.71-.07,3.48.23,5.09.8,2.55.74,5.14,1.66,7.63,2.58,2.67.97,5.62,1.91,8.48,1.26,4.13-.97,7.06-4.53,11.03-5.91,4.59-1.54,9.59-2.22,14.42-1.88,1.1.11,2.37.5,3.39.91.73.28,1.74.8,2.54.49,2.15-2.37,4.52-3.45,7.63-2.24,2.2.75,4.5,1.55,6.79,2,3.05.63,6.23.72,9.33.87,2.8.14,5.68.33,8.48.36"/><path class="b" d="M10.75,78.2c6.47-1.09,13.33-.86,19.51,1.47,1.1-.59,2.21-1.58,3.39-2.01,2.43-.89,5.2-.49,7.63.17,3.33,1,6.8,1.73,10.18,2.55,3.61,1.06,7.29,2.16,11.03,2.64,3.92.5,7.93.44,11.88.46,7.07.05,14.16-1.92,21.21-.64,4.02.79,7.9,2.33,11.88,3.29,3.57.98,7.58,1.61,11.03-.11,7.43-4.2,6.59-5.45,16.12-6.49,3.64-.39,7.36-1.14,11.03-.74,1.73.18,3.34,1.55,5.09,1.39,2.36-2.52,4.59-2.48,7.63-1.28,2.17.78,4.49,1.42,6.79,1.68,3.36.4,6.81.25,10.18.48,1.36.13,2.91.06,4.24.4.41.24,1.27.7,1.7.92"/><path class="b" d="M10.75,75.75c2.76-.61,5.68-.47,8.48-.56,1.95.03,4.02.09,5.94.43,1.4.21,2.85.88,4.24,1.1,3.9-4.17,9.79-1.83,14.42-.39,3.62,1.01,7.42,1.58,11.03,2.68,4.38,1.36,8.99,1.98,13.57,2.04,3.37.11,6.8.39,10.18.41,5.08-.01,10.24-.62,15.27.36,8,1.48,16.71,6.31,24.6,1.95,8.76-5.58,7.61-4.54,17.81-5.46,3.38-.26,6.79-1.01,10.18-1.13,2.02-.02,3.88,1.41,5.94,1.01,1.96-1.85,4.52-1.22,6.79-.38,1.89.63,3.95,1.14,5.94,1.34,2.22.24,4.56.19,6.79.18,1.36.06,2.95-.17,4.24.35,1.64.93,3.38,2,5.09,2.79"/><path class="b" d="M10.75,73.57c1.91-.54,3.99-.35,5.94-.42,3.65-.31,7.52-.49,11.03.72.59,0,1.31-.53,1.7-.92.96-.69,2.21-1.19,3.39-1.21,2.57,0,5.12.91,7.63,1.31,2.71,1.08,5.63,1.76,8.48,2.32,5.38.93,10.62,2.89,16.12,3.01,5.09.11,10.19.8,15.27,1.09,5.7.1,11.47.35,16.96,2.03,6.79,2.22,14.67,3.86,21.21.04,2.47-1.32,4.82-3.23,7.63-3.77,2.2-.4,4.56-.18,6.79-.29,2.81-.07,5.69-.35,8.48-.71,2.24-.24,4.53-.96,6.79-1,1.38.13,2.82.76,4.24.53,1.09.04,2.33-.35,3.39-.51,2.59.07,5.07,1.33,7.63,1.67,2.2.38,4.55.43,6.79.36,1.47-.21,2.95.62,4.24,1.22,2.22,1.08,4.45,2.44,6.79,3.27"/><path class="b" d="M10.75,71.57c1.04-.26,2.31-.43,3.39-.4.77.02,1.79.24,2.54.05,3.33-.47,6.91-.79,10.18.2.87-.31,1.72-1.23,2.54-1.62,1.87-.85,4.04-.49,5.94.09,1.63.44,3.42.78,5.09,1.02,2.17.8,4.53,1.32,6.79,1.8,2.51.54,5.13,1,7.63,1.57,2.49.61,5.07,1.21,7.63,1.4,2.51.18,5.12.17,7.63.4,3.1.27,6.24.8,9.33,1.14,5.4.51,10.88.88,16.12,2.42,7.22,2.21,13.94,3.75,21.21.57,2.59-1.09,4.96-2.86,7.63-3.75,2.17-.67,4.56-.34,6.79-.26,2.81.1,5.69-.1,8.48-.41,1.66-.16,3.46-.35,5.09-.71,1.35-.29,2.85-.73,4.24-.74,3.34.65,6.87-.27,10.18.66,1.35.34,2.87.73,4.24.96,1.37.22,2.94.26,4.24.8,2.26.75,4.59,1.62,6.79,2.53,2.2.9,4.45,2,6.79,2.5"/><path class="b" d="M10.75,69.75c1.04-.28,2.32-.43,3.39-.36.77.05,1.78.33,2.54.13,3.03-.59,6.32-1.01,9.33-.15.86-.38,1.71-1.33,2.54-1.75,2.16-1.13,4.6-.43,6.79.22,1.35.33,2.87.62,4.24.83,2.22.56,4.53,1.12,6.79,1.51,2.81.54,5.69,1.08,8.48,1.68,2.22.5,4.5,1.19,6.79,1.3,2.51.2,5.12.11,7.63.3,3.11.22,6.25.82,9.33,1.32,5.39.82,10.87,1.43,16.12,2.99,3.07.79,6.16,1.87,9.33,2.21,4.28.38,8.81-.12,12.72-1.97,2.21-1.03,4.52-2.13,6.79-3.05,2.14-.82,4.56-.54,6.79-.31,2.51.18,5.13.22,7.63-.06,3.42-.23,6.86-.76,10.18-1.61,1.06-.22,2.33.02,3.39.05,1.36.04,2.89.11,4.24.29,5.9.8,11.33,3.55,16.96,5.34,2.75.87,5.58,1.96,8.48,2.17"/><path class="b" d="M10.75,68.09c1.04-.29,2.32-.43,3.39-.34.76.06,1.77.34,2.54.27,2.74-.63,5.74-1.1,8.48-.27.96-.25,1.73-1.36,2.54-1.87,1.49-.93,3.39-1.21,5.09-.78,4.15,1.17,8.47,1.91,12.72,2.6,3.39.53,6.83,1.18,10.18,1.92,2.23.45,4.49,1.31,6.79,1.29,2.52.08,5.12-.06,7.63.14,2.83.22,5.7.8,8.48,1.34,5.11.96,10.27,1.88,15.27,3.35,3.61.96,7.26,2.22,11.03,2.38,1.95.08,4.02-.1,5.94-.42,1.73-.42,3.48-1.24,5.09-1.97,3.68-1.75,7.76-3.11,11.87-3.04,4.5.57,9.08.69,13.57.04,2.27-.21,4.55-.92,6.79-1.34,2.81-.2,5.76.26,8.48.96,5.18,1.52,10.05,4.09,15.27,5.51,3.01.81,6.18,1.7,9.33,1.5"/><path class="b" d="M10.75,66.58c1.92-.57,4.02-.33,5.94.1,1.62-.41,3.41-.73,5.09-.68,1.09-.02,2.31.51,3.39.45,4.7-5.84,8.4-2.69,14.42-1.78,5.95.79,11.97,1.47,17.81,2.9,1.66.35,3.41.93,5.09,1.18,3.09.04,6.25-.23,9.33.09,3.13.31,6.26,1.04,9.33,1.69,3.99.83,8.02,1.79,11.88,3.11,5.43,1.61,11.31,3.48,16.96,1.91,2.87-.8,5.6-2.27,8.48-3.03,2.18-.61,4.55-.64,6.79-.83,1.95-.1,3.98-.74,5.94-.48,2.51.2,5.12.39,7.63.07,2.56-.22,5.13-.94,7.63-1.5,3.7-.62,7.57.49,11.03,1.76,4.96,2.07,9.95,4.32,15.27,5.3,2.75.48,5.72,1.19,8.48.44"/><path class="b" d="M10.75,65.23c1.91-.51,4.03-.39,5.94.07,2.52-.34,5.22-.81,7.63.31,2.66-2.35,4.48-4.8,8.48-4.39,1.99.26,3.92,1.26,5.94,1.44,6.53.59,13.11,1.18,19.51,2.71,1.96.38,3.96,1.14,5.94,1.38,2.8-.07,5.68-.28,8.48-.02,3.42.3,6.84,1.09,10.18,1.85,3.2.63,6.32,1.76,9.33,2.97,4.83,1.79,10.1,3.12,15.27,2.28,2.89-.47,5.66-1.69,8.48-2.4,3.02-.84,6.25-.42,9.33-.76,1.37-.15,2.9-.44,4.24-.74,1.06-.19,2.31-.68,3.39-.51,2.53.2,5.17.02,7.63-.59,2.47-.59,5.05-1.56,7.63-1.11,4.49.41,8.66,2.28,12.72,4.11,2.95,1.29,6.15,2.17,9.33,2.71,2.49.39,5.1.89,7.63.83,1.09-.38,2.32-1.06,3.39-1.51"/><path class="b" d="M10.75,64c2.2-.53,4.59-.39,6.79.06,2.26-.51,4.64-.15,6.79.63,2.21-2.39,4.99-5.21,8.48-5.17.81.09,1.78.55,2.54.8,1.05.31,2.31.48,3.39.57,7.11.37,14.27.92,21.21,2.58,1.96.38,3.96,1.2,5.94,1.42,2.23-.06,4.56-.19,6.79-.08,3.12.14,6.28.69,9.33,1.33,2.93.53,5.82,1.48,8.48,2.81,5.5,2.62,11.78,4,17.81,2.65,3.08-.64,6.16-1.74,9.33-1.89,2.23-.08,4.57.13,6.79-.15,2.87-.37,5.79-1.13,8.48-2.21,1.97-.02,4.04-.28,5.94-.82,1.9-.51,3.94-1.26,5.94-1.06,2.85.24,5.78.75,8.48,1.7,3.15,1.11,6.13,2.85,9.33,3.84,4.38,1.29,9.05,1.3,13.57,1.69,1.82-.9,3.29-2.62,5.09-3.57"/><path class="b" d="M10.75,62.87c2.48-.51,5.14-.52,7.63-.1,1.07-.09,2.34-.04,3.39.19.77.17,1.75.62,2.54.67,2.53-2.14,4.58-6.32,8.48-5.6,1.89.68,3.92,1.2,5.94,1.2,7.66.27,15.42.65,22.9,2.47,1.96.41,3.96,1.19,5.94,1.51,1.94-.02,4-.06,5.94,0,3.4.06,6.81.67,10.18,1.04,2.41.37,4.65,1.63,6.79,2.72,5.41,3.03,11.73,4.12,17.81,2.81,3.9-.82,7.87-1.68,11.88-1.4,3.46.05,6.96-.66,10.18-1.91,1.09-.4,2.35-1.01,3.39-1.52,1.36-.36,2.9-.74,4.24-1.18,1.88-.68,3.98-.6,5.94-.4,2.56.22,5.19.68,7.63,1.46,3.49,1.09,6.66,3.16,10.18,4.17,2.73.78,5.68.66,8.48.57,1.65-.13,3.48.18,5.09-.19,1.93-1.87,3.6-4.27,5.94-5.67"/><path class="b" d="M10.75,61.77c4.47-.96,9.07-.43,13.57-.1,2.22-2.38,4.78-5.86,8.48-5.04,1.06.32,2.28.77,3.39.89,5.07.35,10.2.32,15.27.74,6.05.36,12.04,1.62,17.81,3.42,3.66-.06,7.38.33,11.03.16,2.97-.22,5.96.56,8.48,2.15,3.17,1.87,6.49,3.8,10.18,4.41,5.11.98,10.24-.49,15.27-1.25,3.64-.49,7.43-.01,11.03-.9,3.32-.69,6.31-2.48,9.33-3.91,2.1-.92,4.5-1.31,6.79-1.21,3.73.14,7.53.73,11.03,2.08,2.85,1.1,5.54,2.84,8.48,3.72,3.61,1.1,7.4-.02,11.03-.45.39-.05,1.3-.13,1.7-.17,1.09-.48,1.85-1.93,2.54-2.83,1.35-1.83,2.93-3.93,5.09-4.83"/><path class="b" d="M10.75,60.68c4.46-.81,9.05-1.05,13.57-1.21,2.9-1.89,4.38-4.8,8.48-4.19,3.27,1.14,6.77,1.03,10.18,1.11,5.08.25,10.22.23,15.27.89,3.12.39,6.28,1,9.33,1.75,1.67.32,3.39,1.13,5.09,1.18,3.39.22,6.79-.61,10.18-.47,7.55.48,10.27,8.16,21.21,7.45,3.7-.2,7.36-1.23,11.03-1.69,3.37-.38,6.89-.17,10.18-1.12,7.3-2.26,8.89-6.36,17.81-5.3,3.14.32,6.39.85,9.33,2.03,3.12,1.27,5.97,3.44,9.33,4.06,3.49.57,6.86-1.1,10.18-1.93,1.74-.17,2.5-2.36,3.39-3.59,1.41-2.04,3.14-4.89,5.94-4.9"/><path class="b" d="M10.75,59.54c4.78-.77,9.61-1.55,14.42-2.16,2.46-1.67,4.38-3.67,7.63-3.38,1.4.11,2.85.73,4.24.86,9.88.65,19.89.22,29.69,1.92,1.66.27,3.45.61,5.09.99,1.35.25,2.86.75,4.24.64,3.35-.13,6.88-1.1,10.18-.15,2.17.77,4.07,2.35,5.94,3.66,3.61,2.78,8.14,4.44,12.72,3.83,3.42-.31,6.79-1.29,10.18-1.82,3.37-.52,6.92-.37,10.18-1.5,6.48-2.43,8.04-6.22,16.12-5.59,1.68.26,3.41.93,5.09,1.19,1.93.35,4.02.47,5.94.88,3.13,1.31,5.91,3.71,9.33,4.28,2.35.34,4.71-.65,6.79-1.65,1.35-.73,3.04-1.25,4.24-2.22,1.96-2.76,4.14-9.17,8.48-6.92"/><path class="b" d="M10.75,58.31c5.39-.81,10.79-1.96,16.12-3.07,1.49-1.06,3.24-2.09,5.09-2.3,2.29-.4,4.54.57,6.79.8,3.08.29,6.25.26,9.33.42,7.62.37,15.3.23,22.9.95,2.86.2,5.67,1.11,8.48,1.55,2.22-.2,4.55-.87,6.79-.46,2.26.48,4.16,2.13,5.94,3.51,3.31,2.79,7.39,5.19,11.87,4.73,3.73-.29,7.36-1.51,11.03-2.14,3.37-.65,6.95-.64,10.18-1.91,2.47-.89,4.52-2.75,6.79-4.01,2.27-1.27,5.05-1.99,7.63-1.58,1.88.77,3.86,1.72,5.94,1.78,3.42.27,7.28-.4,10.18,1.83,4.17,2.77,7.34,4.03,11.88.95,1.37-.87,2.87-1.92,4.24-2.8,1.25-1.48,2.17-3.66,3.39-5.18,1.7-2.24,3.85-2.56,5.94-.47"/><path class="b" d="M10.75,56.98c6.03-.58,11.82-2.66,17.81-3.43,1.79-1,3.88-1.66,5.94-1.75,1.99-.13,3.99.53,5.94.79,3.36.34,6.8.57,10.18.75,3.94.16,7.94.17,11.87-.13,4.21-.31,8.5-.98,12.72-.48,2.71.22,5.13,1.25,7.63,2.15,1.92-.46,4.11-.77,5.94.16,4.59,2.46,7.93,7.82,13.57,7.97,3.74.06,7.4-1.18,11.03-1.95,3.63-.89,7.46-1.17,11.03-2.32,5.04-1.84,6.69-5.76,12.72-6.04,1.19.2,2.34,1.11,3.39,1.65,3.72,1.84,7.96-.06,11.87.62.4.05,1.29.18,1.7.26.84.27,1.82.97,2.54,1.46,1.52,1.03,3.24,2.14,5.09,2.43,2.59.42,4.91-1.35,6.79-2.91,1.37-1.24,3.08-2.46,4.24-3.91,2.11-3.84,4.69-7.12,8.48-2.6"/><path class="b" d="M10.75,55.56c4.9-.3,9.66-1.74,14.42-2.83,1.91-.41,3.98-.7,5.94-.68,1.63-.46,3.4-.94,5.09-1.05,2.26-.2,4.58.32,6.79.71,1.93.29,3.99.52,5.94.69,4.22.36,8.54.4,12.72-.34,3.15-.34,6.2-1.57,9.33-2.06,3.39-.56,6.98-.18,10.18,1.07,1.42.5,2.82,1.49,4.24,1.98,5.08-1.44,8.22,3.95,11.88,6.45,2.36,1.94,5.57,2.24,8.48,1.68,3.98-.68,7.91-1.89,11.87-2.64,2.84-.58,5.86-1.1,8.48-2.38,1.51-.8,2.87-2.16,4.24-3.16,1.66-1.22,3.86-2.23,5.94-1.99,1.42.66,2.73,1.92,4.24,2.41,1.32.42,2.88.37,4.24.18,1.65-.25,3.42-.66,5.09-.74,1.66-.06,3.46.17,5.09.48,1.46.72,2.82,1.97,4.24,2.76,3.18,1.97,6.01.88,8.48-1.6,1.96-1.94,3.98-4.06,5.94-6.01,2.43-3.71,4.89-3.56,7.63-.2"/><path class="b" d="M10.75,54.1c6.09-.06,11.85-2.37,17.81-3.26,2.22-.32,4.55-.16,6.79-.1,1.64-.24,3.43-.43,5.09-.34,3.4.13,6.77,1.16,10.18,1.18,2.53.07,5.12-.26,7.63-.45,1.67-.04,3.45-.05,5.09-.44,3.12-.99,5.99-3.03,9.33-3.28,1.96-.17,4.02.18,5.94.58,2.64.52,5.33,1.35,7.63,2.76.98.63,2.32.41,3.39.66,3.79,1.43,5.87,5.45,9.33,7.4,2.59,1.42,5.71,1.01,8.48.45,2.88-.45,5.64-1.64,8.48-2.2,1.95-.34,4.06-.47,5.94-1.14,1.72-.4,3.6-.93,5.09-1.91,1.45-1.04,2.76-2.59,4.24-3.59.67-.45,1.73-.85,2.54-.93.77-.45,1.87-.16,2.54.35,1,.73,2.22,1.63,3.39,2.06,1.6.55,3.46.32,5.09-.02,1.64-.36,3.41-.84,5.09-.94,1.95-.09,4.03.16,5.94.59,1.34.96,2.78,2.15,4.24,2.93,2.89,1.62,5.63.11,7.63-2.16,2.86-2.91,5.1-7.14,9.33-8.19,1.72-.09,3.17,1.37,4.24,2.56"/><path class="b" d="M10.75,52.59c6.11.24,11.89-2.09,17.81-3.17,2.78-.48,5.68-.2,8.48-.06,1.94.11,4,.2,5.94.4,1.38.12,2.86.54,4.24.63,5.39.06,10.72-2.54,16.12-1.1,1.58.28,2.93-1.29,4.24-1.96,3.96-2.74,6.83-1.5,11.03-.41,2.51.52,5.23.43,7.63,1.41.77.3,1.73.88,2.54,1.03,1.13.3,2.46.69,3.39,1.43,2.48,1.77,4.17,4.64,6.79,6.23,3.1,1.82,6.88.88,10.18.19,1.95-.61,3.91-1.57,5.94-1.92,3.7-.5,7.63-.71,11.03-2.4,1.64-.88,2.87-2.59,4.24-3.8.64-.54,1.7-1.04,2.54-1.11,2.17-1.34,4.02,1.4,5.94,2.09,1.85.81,4.04.46,5.94,0,1.63-.39,3.4-.89,5.09-1.01,1.95-.12,4.02.13,5.94.49,1.49.69,2.78,2.1,4.24,2.86,2.83,1.71,5.74.25,7.63-2.13,2.2-2.39,3.84-5.71,6.79-7.28,2.38-1.11,5.18-.08,6.79,1.88"/><path class="b" d="M10.75,51.03c3.15.38,6.29-.32,9.33-1.08,3.15-.49,6.18-1.75,9.33-2.23,4.8-.59,9.7.36,14.42,1.21,2.59.46,5.18-.4,7.63-1.12,4.26-1.22,8.44-2.15,12.72-.47.77-.14,1.8-.33,2.54-.59.43-.34,1.25-1.01,1.7-1.32,3.73-2.89,7.94.74,11.87,1.19,1.65.27,3.43.04,5.09.05,2.35.13,4.71,1.09,6.79,2.15,2.54,1.73,4.18,4.66,6.79,6.3,2.79,1.8,6.29,1.08,9.33.43,1.99-.51,3.9-1.67,5.94-2.05,2.79-.5,5.73-.38,8.48-1.11,2.76-.43,5.09-2.2,6.79-4.35.6-.65,1.64-1.35,2.54-1.46.38-.21,1.27-.54,1.7-.64,1.91-.03,3.36,1.73,5.09,2.32,1.87.7,4.03.42,5.94,0,1.64-.36,3.41-.86,5.09-.98,2.23-.08,4.63.04,6.79.66,1.02.83,2.26,1.83,3.39,2.49,2.92,1.78,5.73.28,7.63-2.21,2.58-2.79,4.76-7.99,9.33-7.05,1.45.39,3.15.87,4.24,1.94"/><path class="b" d="M10.75,49.44c2.84.75,5.75-.07,8.48-.88,1.91-.59,3.99-.94,5.94-1.37,4.89-1.95,9.42-1.61,14.42-.39,4.27,1.33,7.85.12,11.87-1.3,4.07-1.14,8.69-2.05,12.72-.34,1.39,0,2.88-.54,4.24-.78.42-.31,1.22-.83,1.7-1.01,3.83-1.15,7.29,1.91,11.03,2.24,2.51.47,5.13-.15,7.63.18,1.74.68,3.57,1.58,5.09,2.67,1.57,1.63,3.15,3.56,5.09,4.78,3.05,1.98,6.92,1.03,10.18.12,1.61-.71,3.35-1.49,5.09-1.8,3.37-.46,6.9-.26,10.18-1.32,2.04-.61,3.65-2.29,5.09-3.78.6-.63,1.65-1.26,2.54-1.25,2.62-2.25,4.99.59,7.63,1.18,1.92.44,4.02.2,5.94-.1,3.61-.84,7.39-.88,11.03-.16,1.27,1.04,2.71,2.25,4.24,2.9,2.65,1.21,5.24-.83,6.79-2.86,4.87-6.13,5.6-8.24,13.57-4.62"/><path class="b" d="M10.75,47.97c3.45,1.2,6.92-.64,10.18-1.64,1.62-.52,3.4-.94,5.09-1.15,2.15-.77,4.46-1.57,6.79-1.33,9.87,1.8,8.76,2.76,18.66-.69,3.02-.71,6.23-1.09,9.33-.93,1.42.06,2.86.73,4.24.98,1.65-.31,3.43-.65,5.09-.87,1.3-.55,2.86-.72,4.24-.41,1.69.37,3.43,1.09,5.09,1.56,2.18.59,4.53.87,6.79.96.76.02,1.79-.04,2.54.11.78.34,1.81.89,2.54,1.33,1.38.83,2.95,1.75,4.24,2.72.71.69,1.74,1.57,2.54,2.15,3.27,2.61,7.38,1.63,11.03.51,1.59-.73,3.35-1.46,5.09-1.73,3.36-.39,6.88-.2,10.18-1.06,2-.54,3.57-2.16,5.09-3.48.35-.33,1.25-.87,1.7-1.06.48.03,1.33-.32,1.7-.63,1.52-1.16,3.48-.4,5.09.13,1.57.66,3.39.99,5.09,1.01,2.24.07,4.56-.3,6.79-.42,2.23-.05,4.59.07,6.79.5,1.26,1.02,2.7,2.22,4.24,2.79,3.8,1.23,6.39-2.77,8.48-5.28,4.01-5.21,6.5-3.7,11.88-1.82"/><path class="b" d="M10.75,46.64c3.53,1.34,6.97-1.02,10.18-2.25,1.87-.76,3.93-1.33,5.94-1.52,1.37-.34,2.8-1.07,4.24-1.13,1.4-.11,2.89.34,4.24.61,2.21.44,4.54.79,6.79.94,2.01.03,4.01-.9,5.94-1.37,2.44-.81,5.08-.98,7.63-1.06,1.95-.09,3.99-.49,5.94-.44,1.12.05,2.38.42,3.39.89.76-.1,1.78-.24,2.54-.33,2.23-.23,4.56-.41,6.79-.57,2.87.18,5.66,1.31,8.48,1.82,1.64.4,3.48.46,5.09.93,3.49,1.64,6.87,3.72,10.18,5.69,3.55,2.52,7.23,1.37,11.03.21,1.58-.73,3.35-1.41,5.09-1.63,1.65-.14,3.44-.29,5.09-.38,1.66-.05,3.47,0,5.09-.39,1.96-.42,3.54-1.93,5.09-3.1,1.26-.83,2.85-1.44,4.24-2.01,1.06-.26,2.35,0,3.39.26,1.34.33,2.88.19,4.24.08.74.14,1.79.28,2.54.35,1.94.19,4,.07,5.94.08,1.95.06,4,.28,5.94.49,1.47.6,2.71,1.99,4.24,2.51,2.98,1.26,5.84-1.01,7.63-3.22,5.01-6.1,6.42-5.57,13.57-3.3"/><path class="b" d="M10.75,45.39c4.02,1.45,7.53-2.08,11.03-3.52,1.84-.85,3.92-1.38,5.94-1.46,1.08-.24,2.27-.82,3.39-.84,3.94.34,7.91,1.09,11.87,1.24,2.25-.21,4.5-1.16,6.79-1.2,1.95-.09,3.99.41,5.94.36,2.59.05,5.05-1.37,7.63-1.23.45.05,1.28.25,1.7.41,1.36.13,2.88-.14,4.24-.15,2.8-.08,5.69-.03,8.48.22,3.12.58,6.38,1.12,9.33,2.29,3.48,1.51,6.71,3.67,10.18,5.2,2.11.91,4.45,1.87,6.79,1.44,3.5-.52,6.67-2.5,10.18-2.92,1.64-.28,3.43-.45,5.09-.37,2.55.13,5.35.38,7.63-.99,1.08-.65,2.2-1.71,3.39-2.18,1.34-.58,2.8-1.42,4.24-1.7,1.08-.09,2.33.26,3.39.41,1.37.17,2.9-.08,4.24-.35,1.37-.14,2.87.39,4.24.42,2.52.13,5.13.16,7.63.54,1.91.05,3.33,1.76,5.09,2.33,2.75,1.2,5.74-.28,7.63-2.33,5.51-5.99,6.75-5.78,14.42-3.69"/><path class="b" d="M10.75,44.1c3.13,1.24,6.02-1.34,8.48-2.95,1.79-1.24,3.8-2.44,5.94-2.93,1.06-.24,2.31-.35,3.39-.31,1.05-.31,2.29-.63,3.39-.4,3.67.16,7.37.64,11.03.89,1.66.14,3.42-.41,5.09-.32,2.9-.04,5.56,1.85,8.48,1.47,2.11-.23,3.98-1.56,5.94-2.25,1.05-.37,2.32-.22,3.39-.1,2.23-.1,4.56-.1,6.79.04,4.86.35,9.91.66,14.42,2.68,2.56,1.2,5.06,2.75,7.63,3.94,10.01,5.02,11.97-.19,21.21-1.28,3.09-.23,6.26.88,9.33.2,1.17-.27,2.43-.95,3.39-1.64,1.95-.85,3.98-1.84,5.94-2.67,1.67-.15,3.41.63,5.09.44,1.38-.12,2.88-.52,4.24-.75,1.34.31,2.87.56,4.24.68,2.23.19,4.63.18,6.79.81.71.47,1.77,1.07,2.54,1.43,2.8,1.46,6.21.65,8.48-1.42,6.02-5.62,7.27-5.64,15.27-3.81"/><path class="b" d="M10.75,42.78c4.59,1.84,9.06-5.66,13.57-6.89,1.6-.56,3.42-.65,5.09-.42.46-.11,1.23-.2,1.7-.17,3.39.1,6.82.39,10.18.84,2.22.32,4.58.09,6.79.51,2.92.49,5.4,3,8.48,2.55,2.24-.34,4.04-2.01,5.94-3.12,3.14-1.83,11.49-.44,15.27-.11,2.84.3,5.8.65,8.48,1.68,5.92,2.58,11.8,7.51,18.66,5.62,4.37-1.45,8.82-3.98,13.57-2.82,2.21.31,4.56.74,6.79.42,1.14-.21,2.33-.92,3.39-1.34,2-.69,4.02-1.65,5.94-2.54,1.33-.57,2.86.3,4.24.25,1.68.02,3.45-.48,5.09-.82,1.37-.2,2.86.48,4.24.56,1.94.22,4.02.33,5.94.73,2.47,1.59,5.59,2.78,8.48,1.63,1.86-.7,3.53-2.08,5.09-3.27,4.07-3.6,8.69-2.66,13.57-1.74"/><path class="b" d="M10.75,41.45c4.27,1.5,7.81-4.74,11.03-6.8,1.91-1.45,4.4-2.19,6.79-1.8,1.91.47,3.98.41,5.94.53,2.25.19,4.55.71,6.79.99,1.65.26,3.45.27,5.09.57,2.45.51,4.64,1.95,6.79,3.16,6.31,2.94,8.17-5.18,14.42-4.71,3.98-.29,7.93.8,11.87,1.12,2.55.23,5.23.51,7.63,1.44,3.94,1.7,7.55,4.51,11.87,5.2,2.25.34,4.64-.05,6.79-.74,2.18-.9,4.46-1.93,6.79-2.42,2.83-.57,5.67.63,8.48.79,2.27.31,4.76.4,6.79-.86,2.63-.62,5.19-1.76,7.63-2.9,1.07.12,2.31.48,3.39.5,1.98.02,4.01-.58,5.94-.96,1.09,0,2.32.42,3.39.56,1.36.2,2.88.34,4.24.54,1.49.11,2.83,1.26,4.24,1.67,2.52.94,5.38.37,7.63-1,1.95-1.13,3.83-2.66,5.94-3.5,3.54-1.17,7.42-.43,11.03.05"/><path class="b" d="M10.75,40.25c4.69.8,7.63-5.74,11.03-8.21,1.85-1.57,4.42-2.26,6.79-1.65,1.09.22,2.27.84,3.39.83,3.16.08,6.24,1.11,9.33,1.62,1.64.33,3.47.39,5.09.81,1.76.65,3.52,1.67,5.09,2.68,5.82,4.32,8.31-.57,12.72-3.69,2.89-1.25,6.27-1.4,9.33-.71,1.93.4,3.97.84,5.94.99,2.23.17,4.59.23,6.79.73,3.9.98,7.13,3.77,11.03,4.8,2.77.83,5.79.34,8.48-.56,1.62-.71,3.38-1.47,5.09-1.95,2.53-.86,5.13.15,7.63.56,2.21.26,4.57.66,6.79.3,1.11-.22,2.27-1.02,3.39-1.19,2.31-.56,4.6-1.51,6.79-2.43,1.36.19,2.85.61,4.24.5,1.67-.13,3.44-.54,5.09-.83.78-.26,1.78.07,2.54.21,1.06.2,2.33.35,3.39.48.76.1,1.79.26,2.54.39,1.02.57,2.27,1.19,3.39,1.52,2.23.69,4.72.25,6.79-.75,2.24-1.07,4.39-2.61,6.79-3.34,3.59-.82,7.4-.24,11.03.1"/><path class="b" d="M10.75,38.96c4.96.18,7.47-6.79,11.03-9.58,3.77-3.31,6.98-.81,11.03-.03,3.15.45,6.2,1.67,9.33,2.22,1.07.21,2.33.43,3.39.63,2.07.83,4.05,2.12,5.94,3.28,2.34,1.74,5.19,2.25,7.63.41,1.47-1.1,2.85-2.63,4.24-3.82,2.48-1.51,5.53-2.8,8.48-2.34,5.26,1.41,10.84.97,16.12,2.28,4.71,1.62,9.14,5.32,14.42,4.31,3.8-.41,7.12-3.16,11.03-2.86,1.4.13,2.86.72,4.24.95,2.48.37,5.17.77,7.63.15,1.09-.32,2.31-.96,3.39-1.31,1.37-.36,2.9-.82,4.24-1.29,1.03-.35,2.28-.96,3.39-.67,1.63.36,3.45.39,5.09.1,1.36-.12,2.88-.66,4.24-.41,2.21.45,4.56.61,6.79.92.83,0,1.8.62,2.54.93,1.01.44,2.29.81,3.39.9,3.69.28,6.88-2.05,10.18-3.31,1.84-.77,3.97-.85,5.94-.74,2.23.06,4.56.2,6.79.38"/><path class="b" d="M10.75,37.33c1.56-.24,3.24-.71,4.24-2.03,2.16-2.38,3.75-5.43,5.94-7.79,3.63-3.97,6.81-1.39,11.03-.32,3.67.96,7.32,2.24,11.03,3.05,2.43.59,4.62,2.17,6.79,3.37,3.06,1.91,5.96,3.55,9.33,1.2,1.77-1.23,3.18-3.18,5.09-4.22,3.29-2.18,5.27-3.43,9.33-2.56,4.77.76,9.69.84,14.42,1.79,4,1.18,7.62,3.82,11.87,4.18,1.97.16,4.08-.15,5.94-.83,2.44-.83,5-2.03,7.63-1.76,1.4.14,2.87.7,4.24.98,2.2.38,4.6.58,6.79.01,1.41-.38,2.92-.99,4.24-1.61,1.37-.34,2.89-.77,4.24-1.17,1.88-.79,3.98-.35,5.94-.29,1.66.03,3.45-.55,5.09-.15,3.06.56,6.25.66,9.33,1.04,1.35.44,2.82,1.14,4.24,1.35,4.81.82,8.95-2.68,13.57-3.24,3.37-.16,6.81.33,10.18.41"/><path class="b" d="M10.75,35.12c1.41-.51,2.92-1.23,4.24-1.93,2.67-3.02,4.09-7.44,7.63-9.62,2.58-1.26,5.17.8,7.63,1.46,3.32,1.19,6.86,1.93,10.18,3.12,2.65.93,5.21,2.33,7.63,3.74,2.15,1.1,4.34,2.62,6.79,2.91,3.1.33,5.58-1.92,7.63-3.95,1.28-1.18,2.86-2.3,4.24-3.36,3.28-2.72,7.24-1.41,11.03-.93,3.63.63,7.42.47,11.03,1.25,2.03.53,3.97,1.67,5.94,2.36,7.52,2.94,10,.69,16.96-.76,2.27-.3,4.57.45,6.79.78,4.15.71,7.97-1.29,11.88-2.23,1.94-.36,3.95-1.1,5.94-1.08,1.99-.16,3.99.42,5.94.7,3.63.52,7.38.45,11.03.79,1.69.15,3.36,1.11,5.09,1.14,4.42.33,8.4-2.32,12.72-2.71,1.36-.15,2.89.06,4.24.22,1.93.2,4,.29,5.94.39"/><path class="b" d="M10.75,32.06c1.4-.82,2.89-1.84,4.24-2.73.84-.53,1.99-1.28,2.54-2.14.97-1.56,2.08-3.44,3.39-4.73,1.81-1.82,3.9-1.47,5.94-.28,1.34.64,2.85,1.31,4.24,1.84,5.19,1.77,10.57,3.06,15.27,6.03,7.95,4.6,11.18,5.39,17.81-1.65,2.1-2.04,4.5-4.51,7.63-4.53,2.84.12,5.65,1.07,8.48,1.35,1.37.28,2.87-.16,4.24-.12,1.38,0,2.88.38,4.24.56,2.37.3,4.53,1.65,6.79,2.36,2.41.88,5.07,1.29,7.63,1.12,3.16-.12,6.2-1.36,9.33-1.7,2.8-.25,5.68.41,8.48.17,3.45-.17,6.71-1.74,10.18-1.79.8-.1,1.76-.68,2.54-.85.76-.15,1.81-.05,2.54.19,4.54,1.93,9.62,1.11,14.42,1.28,1.36.03,2.89.13,4.24.24,1.61.48,3.4.85,5.09.77,3.75-.18,7.29-1.87,11.03-2.13,1.66-.16,3.45.14,5.09.42,1.64.23,3.44.36,5.09.45"/><path class="b" d="M10.75,28.08c2.64-2.22,5.39-4.49,8.48-6.04,1.47-1.97,3.43-3.66,5.94-2.31,2.68,1.54,5.51,3.01,8.48,3.9,4.41,1.23,8.82,2.72,12.72,5.17,7.12,4.25,11.83,5.33,17.81-1.32,6.08-6.58,6.07-6.34,14.42-3.93,1.45.51,2.83-.69,4.24-.83,4.07-.53,8.14.98,11.87,2.44,6.59,2.73,12.02,1.12,18.66.19,3.66-.28,7.42-.11,11.03-.93,1.63-.35,3.43-.57,5.09-.71.74-.24,1.76-.65,2.54-.7,1.82-.1,3.42,1.16,5.09,1.67,3.02.82,6.26.17,9.33.03,3.08-.25,6.25-.24,9.33-.02,1.92.34,3.97.74,5.94.5,3.67-.38,7.3-1.68,11.03-1.51,2.83.15,5.63,1.12,8.48,1.15"/><path class="b" d="M10.75,23.47c2.19-2.11,4.69-4.17,7.63-5.1.75-.24,1.77-.49,2.54-.6.76-.19,1.76-.47,2.54-.31,1.19.28,2.36,1.13,3.39,1.75,1.31.78,2.82,1.56,4.24,2.12,3.59,1.4,7.52,1.98,11.03,3.62,3.21,1.39,6.01,3.72,9.33,4.89,8.09,3.03,11.46-1.72,16.12-7.34,3.09-3.96,7.08-2.16,11.03-.81,2.97-2.13,6.83-1.73,10.18-.89,4.01.86,7.77,2.9,11.88,3.33,4.53.48,9.08-.51,13.57-.98,3.38-.3,6.81-.7,10.18-1.12.76-.07,1.79-.16,2.54-.23.77-.19,1.75-.63,2.54-.72,1.89-.19,3.52,1.11,5.09,1.93,2.37,1.11,5.12.72,7.63.42,2.79-.34,5.66-.79,8.48-.87,2.23-.07,4.56,0,6.79.15,2.21.4,4.56.55,6.79.22,3.07-.41,6.22-1.04,9.33-.79,2.56.17,5.06,1.22,7.63,1.26"/><path class="b" d="M10.75,18.94c3.47-3.35,8.11-4.19,12.72-3.14,2.33.96,4.39,2.72,6.79,3.57,4.42,1.74,9.37,2.09,13.57,4.42,3.95,2.29,7.91,5.42,12.72,5.25,5.01.23,7.6-3.39,10.18-7.08,3.1-4.82,6.09-4.25,11.03-2.84,3.13-2.58,7.45-1.17,11.03-.5,1.92.58,4,1,5.94,1.51,2.45.81,5.04,1.5,7.63,1.62,7.1.26,14.12-1.5,21.21-1.74,1.42-.1,2.75-1.18,4.24-1.02,2.6.14,4.3,2.66,6.79,3.12,3.95.59,7.96-.72,11.87-1.18,4.19-.66,8.51-.6,12.72-.3,4.22.79,8.49-.11,12.72-.19,1.66,0,3.47.18,5.09.55,1.34.34,2.85.79,4.24.89"/><path class="b" d="M10.75,15.22c4.07-2.6,9.2-1.41,13.57-.28,1.16.26,2.34,1.04,3.39,1.56,1.31.63,2.84,1.18,4.24,1.56,3.97,1.04,8.19,1.55,11.88,3.46,2.32,1.21,4.4,3.04,6.79,4.14,3.07,1.62,6.87,2.05,10.18.98,2.79-1.08,4.35-4.03,5.94-6.38,2.16-4.06,6.02-4.7,10.18-3.53,3.19-2.7,7.41-.09,11.03.08,1.39.08,2.87.55,4.24.72,2.56.24,5.13.89,7.63,1.41,3.34.59,6.82.41,10.18.11,3.08-.29,6.24-.59,9.33-.67,1.46.07,2.84-.99,4.24-1.28,1.72-.48,3.63-.04,5.09.95,2.97,2.48,4.54,3.2,8.48,2.58,4.24-.63,8.45-1.77,12.72-2.18,4.79-.42,9.65-.09,14.42.42,3.37.17,6.81-.3,10.18.03,1.06.11,2.34.26,3.39.47,1.05.31,2.3.76,3.39.91"/><path class="b" d="M10.75,12.65c5-1.39,15.02,2.08,20.36,3.23,4.52,1.18,9.19,2.08,13.57,3.71,2.57,1.46,4.9,3.52,7.63,4.71,2.09.92,4.53,1.12,6.79.91,2.01-.13,3.89-1.3,5.09-2.88,1.51-1.85,2.49-4.46,4.24-6.1,2.19-1.51,5-2.41,7.63-1.65,3.17-2.43,6.78.77,10.18.88.76.05,1.78.03,2.54-.02.77.04,1.78.29,2.54.36,1.65.12,3.44.13,5.09.28,3.37.31,6.78.96,10.18.78,1.94-.05,4-.17,5.94-.21,1.07-.05,2.36.09,3.39-.27,3.67-1.11,7.58-2.68,11.03-.08,1.09.78,2.17,2.01,3.39,2.6,2.7,1.13,5.75.18,8.48-.36,3.64-.8,7.31-1.84,11.03-2.23,5.35-.48,10.79-.19,16.12.48,3.93.31,7.96.17,11.88.68,1.09.23,2.3.83,3.39,1.08"/><path class="b" d="M10.75,11c3.71-.05,7.38,1.09,11.03,1.68,5.06,1.08,10.21,1.97,15.27,3.09,3.79.86,7.58,2.05,11.03,3.87,2.04.82,3.82,2.43,5.94,3.07,2.72.72,6.04.99,8.48-.66,2.29-1.66,3.34-4.63,5.09-6.74,1.98-1.42,4.26-2.9,6.79-2.84,1.15.32,2.26-.68,3.39-.61,2.38.24,4.44,1.9,6.79,2.31,1.37.29,2.89-.23,4.24-.02,2.46.65,5.12.18,7.63.21,5.08-.06,10.22.22,15.27-.43,6.7-.93,10.78-2.71,16.12,2.87,2.92,2.32,6.93.91,10.18.12,3.63-.99,7.29-2.21,11.03-2.72,6.47-.6,13.09-.43,19.51.58,1.93.19,3.99.44,5.94.5,2.33-.17,4.69.36,6.79,1.36"/><path class="b" d="M10.75,9.71c5.68.59,11.32,1.87,16.96,2.75,5.43.85,10.98,1.63,16.12,3.68,5.45,2.19,11.77,6.65,17.81,4.28,2.32-1.2,3.61-3.82,5.09-5.85,2.45-1.9,5.17-4.21,8.48-3.77,2.48-1.78,5.25.69,7.63,1.5,1.31.56,2.85.54,4.24.43.44.19,1.24.47,1.7.55,2.22.37,4.56-.16,6.79-.21,3.08-.25,6.25-.34,9.33-.66,4.78-.39,9.62-1.68,14.42-1.06,1.82.29,3.62,1.17,5.09,2.26,1.3.98,2.55,2.46,4.24,2.73,2.23.29,4.58-.12,6.79-.46,4.24-1.15,8.36-2.98,12.72-3.68,1.34-.24,2.88,0,4.24-.1,1.94-.07,4-.22,5.94-.28,4.83-.25,9.69.34,14.42,1.24,2.86.14,5.92.05,8.48,1.53"/><path class="b" d="M10.75,8.4c5.38.52,10.77,1.37,16.12,2.13,3.96.59,8.03.99,11.87,2.15,2.91.82,5.82,1.94,8.48,3.36,2.65,1.27,5.45,2.86,8.48,2.74,2.94-.05,5.32.44,7.63-1.88,1.13-1.08,2.07-2.76,3.39-3.63,1.61-1.25,3.19-2.89,5.09-3.7.74-.29,1.76-.43,2.54-.26,1.08-.32,2.21-1.12,3.39-.84,2.08.42,3.93,1.8,5.94,2.43.42.13,1.26.28,1.7.3.97.61,2.24,1.12,3.39,1.2,1.38.11,2.88-.3,4.24-.43,2.8-.22,5.68-.46,8.48-.7,3.68-.31,7.35-1.16,11.03-1.46,7.23-.68,8.64,1.6,14.42,4.4,1.62.43,3.44.26,5.09.17,1.67-.11,3.5-.2,5.09-.75,3.27-1.35,6.71-2.54,10.18-3.23,2.21-.31,4.56-.03,6.79-.33,6.49-.69,13.09-.7,19.51.57,2.53.53,5.3.47,7.63,1.74"/></svg>