<?xml version="1.0" encoding="UTF-8"?><svg id="a" xmlns="http://www.w3.org/2000/svg" width="1920" height="2400" viewBox="0 0 192 240"><defs><style>.b{fill:none;stroke:#fff;stroke-miterlimit:10;stroke-width:.3px;}.c{stroke-width:0px;}</style></defs><rect class="c" width="192" height="240"/><path class="b" d="M11.5,227.2c3.05-.13,6.21-.32,9.25-.14,6.43.76,12.82,2.62,19.34,2.4,8.98-.3,17.97-1.05,26.9-1.98,3.06-.35,6.23-.18,9.25-.82,5.42-1.07,10.39-4.09,15.98-4.39,1.93-.16,4-.05,5.89.42,1.68.42,3.38,1.2,5.04,1.68,1.6.58,3.55.33,5.04,1.19,4.77,2.42,8.15,3.42,13.45,1.92,3.02-.66,6.16-1.16,9.25-1.33,2.77-.19,5.64-.06,8.41-.24,4.48-.19,8.96-1.15,13.45-.94,6.89-.1,13.46,2.31,20.18,3.49.91.02,1.78.91,2.52,1.36,1.47.96,3.27,1.73,5.04,1.79"/><path class="b" d="M11.5,225.54c4.75-.47,9.58-.39,14.29.41,5.03.64,10.03,2.08,15.13,1.89,8.71-.09,17.41-.97,26.06-1.91,3.05-.4,6.24-.21,9.25-.84,2.89-.49,5.63-1.78,8.41-2.67,2.14-.71,4.48-1.08,6.73-1.19,4.83-.29,9.74.43,14.29,2.06,6.22,2.29,10.03,4.13,16.82,2.41,2.75-.48,5.62-.76,8.41-.73,2.78,0,5.63.32,8.41.16,5.06-.2,10.06-1.6,15.13-1.61,6.31-.05,12.37,2.1,18.5,3.31,1.12.48,2.23,1.48,3.36,1.97,1.25.61,2.83.8,4.2.65"/><path class="b" d="M11.5,223.69c5.31-.29,10.7-.23,15.97.47,4.46.72,8.89,2.07,13.45,2.04,11.82.18,23.56-1.77,35.31-2.7,4.32-.57,8.21-3.06,12.61-3.23,2.2-.15,4.52-.21,6.73-.15,3.37.5,6.8,1.13,10.09,2.01,5.44,1.57,11.16,3.12,16.82,1.7,2.75-.46,5.62-.64,8.41-.5,2.78.11,5.62.58,8.41.46,5.37-.14,10.6-1.88,15.97-1.91,5.72-.07,11.28,1.73,16.82,2.96.9.05,1.8.88,2.52,1.34,1.69,1.16,3.91,1.48,5.89.97"/><path class="b" d="M11.5,221.47c2.5-.07,5.07.27,7.57.32,2.78.05,5.65-.15,8.41.27,5.02.89,9.98,2.53,15.13,2.46,9.27.02,18.56-.98,27.75-2.18,2.76-.44,5.64-.48,8.41-.76,2.51-.67,4.98-1.83,7.57-2.22,1.91-.3,3.96-.27,5.89-.3,1.35,0,2.86-.11,4.2.1,8.59,1.42,17.3,4.38,26.06,2.68,2.74-.5,5.63-.66,8.41-.46,2.78.17,5.61.73,8.41.66,5.66-.04,11.15-2,16.82-1.95,5.42.06,10.73,1.58,15.98,2.8.89.15,1.77,1.01,2.52,1.44,1.73,1.13,3.97,1.24,5.89.54"/><path class="b" d="M11.5,219.05c2.8.1,5.61.83,8.41.98,2.49-.2,5.08-.42,7.57-.07,2.83.39,5.62,1.3,8.41,1.9,2.45.58,5.05.83,7.57.93,4.19.15,8.43-.25,12.61-.53,5.35-.25,10.68-1.08,15.97-1.78,2.48-.36,5.08-.35,7.57-.52,1.94-.45,3.91-1.27,5.89-1.61,3.31-.57,6.75-.24,10.09-.32,2.25.11,4.51.82,6.73,1.13,6.35,1.29,12.91,1.9,19.34.78,3.03-.51,6.17-.98,9.25-.71,2.22.14,4.51.55,6.73.72,2.21.15,4.53,0,6.73-.27,3.06-.41,6.16-1.1,9.25-1.32,2.78-.23,5.66-.01,8.41.45,3.38.49,6.77,1.27,10.09,2.07,3.02,1.63,4.61,3.43,8.41,1.88"/><path class="b" d="M11.5,216.59c2.82.28,5.59,1.31,8.41,1.6,2.48-.31,5.07-.62,7.57-.33,5.1.65,9.96,2.77,15.13,2.99,4.19.35,8.43,0,12.61-.27,5.63-.18,11.24-.99,16.82-1.74,3.9-.5,7.94-.23,11.77-1.28,2.72-.7,5.62-.66,8.41-.57,1.92.06,3.97-.09,5.89.19,6.65,1.15,13.43,2.6,20.18,1.39,3.63-.5,7.26-1.49,10.93-1.63,3.36-.11,6.74.68,10.09.77,5.36.21,10.63-1.35,15.97-1.37,2.23-.08,4.53.39,6.73.7,3.1.27,6.23.8,9.25,1.54,1.23.13,2.33,1.17,3.36,1.76,1.74,1.05,4.02,1.29,5.89.43"/><path class="b" d="M11.5,214.25c2.83.4,5.53,1.91,8.41,2.02,1.88-.55,3.94-.75,5.89-.55,4.9.07,9.53,1.95,14.29,2.82,4.43.72,8.99.62,13.45.32,2.78-.17,5.65-.13,8.41-.58,3.92-.28,7.86-.83,11.77-1.25,2.49-.25,5.1-.05,7.57-.57,3.87-.61,7.86-.69,11.77-.52,2.21.07,4.53-.05,6.73.28,5.56.71,11.21,1.96,16.82,1.1,5.34-.67,10.54-2.79,15.97-2.53,3.34.21,6.73.76,10.09.55,3.92-.13,7.84-.96,11.77-.96,3.08.16,6.19.83,9.25,1.18,2.5.31,5.12.29,7.57.93,1.23.11,2.31,1.19,3.36,1.75,1.74,1.02,3.97,1.39,5.89.67"/><path class="b" d="M11.5,212.18c2.78.48,5.53,2.81,8.41,1.75,1.31-.47,2.82-.73,4.2-.7,1.67.03,3.43.43,5.04.81,3.12.36,6.2,1.28,9.25,2.01,4.65,1.16,9.53,1.2,14.29.97,1.64-.08,3.4-.15,5.04-.15,1.35-.17,2.85-.43,4.2-.55,1.92-.19,3.96-.24,5.89-.29,1.93-.17,3.95-.52,5.89-.64,2.78-.22,5.65,0,8.41-.53,3.33-.46,6.75-.24,10.09-.02,2.21.16,4.53.03,6.73.36,3.59.62,7.29,1.07,10.93.82,2.78.16,5.66.08,8.41-.38,5.08-.68,9.99-2.73,15.13-2.88,3.34.06,6.74.5,10.09.32,3.35-.02,6.75-.79,10.09-.49,5.88.59,11.73,1.76,17.66,1.9,1.22.09,2.3,1.16,3.36,1.66,1.75.95,3.93,1.4,5.89.87"/><path class="b" d="M11.5,210.58c1.68.55,3.33,1.59,5.04,2.04,5.11-3.14,8-2.57,13.45-.71,2.97,1.01,6.22,1.33,9.25,2.17,5.22,1.21,10.65,1.1,15.98.92,1.66.03,3.41-.43,5.04-.65,2.2-.3,4.51-.31,6.73-.25,3.35.19,6.73-.71,10.09-.54,3.08.3,6.17-.49,9.25-.38,3.92.21,7.86.9,11.77,1.18,5.44,1.51,11.25,2.59,16.82,1.09,2.25-.56,4.4-1.71,6.73-1.97,3.92-.74,7.87-1.6,11.77-2.4,2.48-.34,5.08-.09,7.57-.09,3.35.07,6.75-.24,10.09-.34,1.92.19,3.97.39,5.89.63,5.01.69,10.06,1.56,15.13,1.59,1.09.4,2.29,1.15,3.36,1.6,1.55.64,3.39.87,5.05.57"/><path class="b" d="M11.5,208.52c.96.71,2.22,1.37,3.36,1.7,3.36-2.37,4.86-3.77,9.25-2.84,2.28.48,4.58,1.33,6.73,2.23,1.87.95,3.81,1.5,5.89,1.71,5.76,1.36,11.74,1.79,17.66,1.5,2.81-.08,5.59-1,8.41-.99,2.22-.03,4.52.25,6.73.37,1.34-.19,2.85-.38,4.2-.47,2.21-.15,4.53-.01,6.73.25,1.92-.21,3.95-.45,5.89-.37,4.25.25,8.41,1.53,12.61,2.14,7.35,2.4,15.71,2.75,22.7-.91,1.06-.51,2.3-1.16,3.36-1.66,1.92-.33,3.97-.56,5.89-.92,1.92-.36,3.94-.83,5.89-1.02,2.2-.2,4.52-.17,6.73-.22,2.78.03,5.64-.36,8.41-.03,6.73.58,13.41,2,20.18,2.24,2.67.95,5.52,2.23,8.41,1.64"/><path class="b" d="M11.5,205.65c.4.32,1.25.93,1.68,1.21l.84.04c3.02-3.55,5.9-3.58,10.09-2.31,2.25.62,4.58,1.36,6.73,2.29,1.66.69,3.34,1.71,5.04,2.27,2.24.15,4.5.76,6.73.96,3.61.34,7.3.45,10.93.35,3.1.02,6.15-1.04,9.25-.9,1.94.06,3.97.35,5.89.58,1.65-.03,3.4-.44,5.04-.49,2.51-.19,5.08.21,7.57.52,1.91-.24,3.96-.45,5.89-.33,4.02.32,7.86,1.91,11.77,2.77,5.19,1.25,10.64,1.9,15.98,1.39,3.23-.15,6.37-1.17,9.25-2.61,1.7-.54,3.42-1.42,5.04-2.16,3.04-.63,6.17-1.2,9.25-1.57,3.89-.4,7.86-.42,11.77-.48,2.78.21,5.64.52,8.41.86,4.46.56,8.96,1.24,13.45,1.49,2.7.77,5.58,1.74,8.41,1.08"/><path class="b" d="M11.5,203.26l.84.69c3.77-4.47,6.78-3.42,11.77-1.96,4.01,1.23,8.1,2.48,11.77,4.57.72.41,1.68.84,2.52.76,1.06.09,2.3.29,3.36.4,3.9.27,7.87.3,11.77.23,2.23,0,4.51-.43,6.73-.64,2.51-.15,5.09.26,7.57.63,3.61-.38,7.31-1.02,10.93-.31.76.12,1.78.32,2.52.48,1.93-.08,3.95-.53,5.89-.43,3.77.21,7.36,1.74,10.93,2.82,1.59.57,3.4.84,5.04,1.18,2.47.51,5.04,1.07,7.57,1.22,4.83.23,9.69-.93,14.29-2.3,1.68-.52,3.47-1.17,5.04-1.96,1.28-.72,2.74-1.45,4.2-1.72,5.79-1.09,11.77-1.46,17.66-1.29,6.46.44,12.89,1.47,19.34,1.99,3.05.34,6.14,1.53,9.25.83"/><path class="b" d="M11.5,200.64c3.31-4.49,7.31-2.62,11.77-1.43,4.6,1.29,9.32,2.55,13.45,5.03,2.57,1.39,5.57,1.3,8.41,1.25,3.06-.04,6.19.03,9.25-.01,2.22.02,4.51-.37,6.73-.3,1.94,0,3.95.48,5.89.48,4.43-.86,9.04-1.08,13.45-.04,1.9.52,3.95-.31,5.89-.28,3.81-.09,7.42,1.54,10.93,2.8,2.16.86,4.52,1.44,6.73,2.15,2.7.88,5.55,1.71,8.41,1.77,4.01.11,7.9-1.29,11.77-2.13,2.87-.75,5.66-2.02,8.41-3.12,1.57-.8,3.26-1.62,5.04-1.77,4.14-.79,8.42-.75,12.61-1.02,4.19-.01,8.44.48,12.61.89,3.05.35,6.18.69,9.25.91,2.76.41,5.6,1.08,8.41.68"/><path class="b" d="M11.5,196.67c3.32-3.51,7.94-.23,11.77.44,3.37.7,6.84,1.34,10.09,2.51,1.98.8,3.82,2.1,5.89,2.7.76.28,1.75.68,2.52.92,1.93,0,3.96-.27,5.89-.24,3.91,0,7.86.23,11.77.16,1.65,0,3.4.29,5.04.31,1.92-.32,3.95-.67,5.89-.84,3.65-.37,7.34.18,10.93.79,1.92-.24,3.95-.62,5.89-.55,4.77.36,9.03,2.94,13.45,4.54,4.93,2.07,9.58,4.5,15.13,3.65,1.37-.17,2.88-.54,4.2-.93,1.36-.14,2.87-.39,4.2-.71,4.5-1,8.4-3.68,12.61-5.43,2.93-1.04,6.18-.95,9.25-1.2,3.62-.3,7.3-.48,10.93-.19,5.33.2,10.65.99,15.97,1.32,2.47.4,5.05.82,7.57.64"/><path class="b" d="M11.5,193.39c1.77-1.37,4.06-.74,5.89.16,1.6.74,3.32,1.54,5.04,1.93,3.3.73,6.8.41,10.09,1.24,1.41.28,2.88.88,4.2,1.41,2.23.76,4.53,1.6,6.73,2.44,1.01.5,2.29.04,3.36.08,1.64-.04,3.41.04,5.04.14,2.21.16,4.51.37,6.73.48,1.35.09,2.86.36,4.2.02,3.58-.65,7.28-1.18,10.93-.87,1.94.1,3.95.53,5.89.62,1.63-.22,3.4-.4,5.04-.56,3.85-.51,7.55,1.13,10.93,2.76,2.8,1.35,5.71,2.69,8.41,4.23,3.77,2.25,8.26,3.15,12.61,2.55,2.77-.52,5.68-.73,8.41-1.49,4.57-1.09,8.58-3.64,12.61-5.91,1.53-.76,3.37-.89,5.04-.97,2.21-.14,4.52-.32,6.73-.52,7.83-.81,15.73.21,23.54.79,2.49.23,5.05.75,7.57.66"/><path class="b" d="M11.5,190.62c2.46-1.12,4.75,1.04,6.73,2.24,1.5.97,3.25,1.82,5.04,2.05,3.07.35,6.18-.54,9.25-.44,1.68.04,3.41.57,5.04.91,3.13.6,6.29,1.41,9.25,2.58,1.01.49,2.26.63,3.36.65,1.36.11,2.86.3,4.2.48,1.64.23,3.41.43,5.04.63,1.64-.29,3.4-.62,5.04-.86,2.47-.37,5.07-.49,7.57-.27,1.94.08,3.98.78,5.89.21,2.18-.44,4.51-.53,6.73-.71,4.57-.52,8.74,1.95,12.61,4.04,3.47,1.65,6.56,4.14,10.09,5.66,5.09,1.79,10.81,1.14,15.97-.04,3.09-.86,6.32-1.54,9.25-2.88,2.35-.93,4.33-2.8,6.73-3.62.73-.28,1.77-.65,2.52-.9,1.35-.09,2.86-.2,4.2-.32,2.49-.22,5.07-.53,7.57-.74,5.03-.26,10.12-.13,15.13.29,3.9.29,7.85.91,11.77.77"/><path class="b" d="M11.5,188.23c2.42-.4,4.2,1.95,5.89,3.32,5.21,5.08,9.12,2.8,15.13,1.16,1.36-.09,2.85.28,4.2.32,3.07.2,6.22.38,9.25.99,2.34.39,4.63,1.33,6.73,2.42,1.28.72,2.72,1.39,4.2,1.48,1.08.28,2.3.14,3.36-.14,4.42-.92,9.01-.98,13.45-.2,1.64-.36,3.39-.88,5.04-1.16,2.48-.32,5.07-.41,7.57-.52,4.02,0,7.58,2.32,10.93,4.29,1.62,1,3.42,2.01,5.04,3,1.3.92,2.78,1.95,4.2,2.67,2.3,1.2,5.01,1.42,7.57,1.43,1.92-.01,3.99.07,5.89-.28,2.24-.44,4.5-1.23,6.73-1.73,2.22-.51,4.58-.84,6.73-1.64,1.44-.48,2.91-1.33,4.2-2.1,2.17-.91,4.5-1.72,6.73-2.49,1.84-.66,3.97-.57,5.89-.87,2.77-.34,5.62-.67,8.41-.76,7.28-.37,14.59.41,21.86.6"/><path class="b" d="M11.5,186.16c3.4.51,5.82,6.11,9.25,7.69,3.38,1.84,6.9-.33,10.09-1.46,1.64.13,3.41.07,5.04-.12,4.71-.65,9.57-1.77,14.29-.59,2.04.41,4.03,1.38,5.89,2.28,1.03.46,2.2,1.23,3.36,1.15,2.52.02,5.06.72,7.57.75,1.65-.02,3.41.48,5.04.33,1.94-.44,3.94-1.07,5.89-1.47,1.9-.36,3.96-.31,5.89-.51,2.52-.24,5.2-.37,7.57.7,2.99,1.25,5.71,3.22,8.41,4.98,1.31.86,2.81,1.79,4.2,2.52,1.01.73,2.24,1.56,3.36,2.1,2.59,1.25,5.6,1.15,8.41,1.14,1.05,0,2.31,0,3.36-.05,3.1-.6,6.12-1.87,9.25-2.35,2.52-.36,5.18-.55,7.57-1.49,4.11-1.7,8.37-3.21,12.61-4.55,4.64-1.15,9.54-1.35,14.29-1.84,5.86-.57,11.79-.91,17.66-.25"/><path class="b" d="M11.5,184.46c1.85.47,3.06,2.37,4.2,3.76,1.8,2.27,3.74,5.05,6.73,5.75,1.07.22,2.33.09,3.36-.21,3.08.29,6.29-.13,9.25-1,5.23-1.54,10.37-4.39,15.97-3.91,2.89.25,5.72,1.21,8.41,2.24,3.12.23,6.3.65,9.25,1.74,2.16.47,4.52-.03,6.73.05,3.35.3,6.75,0,10.09-.38,2.24-.27,4.65-.29,6.73.71,4.84,2.2,8.65,6.23,13.45,8.51,4.51,2.93,7.55,2.27,12.61,2.19,1.4.07,2.88-.5,4.2-.89,1.89-.62,3.92-1.22,5.89-1.55,1.91-.31,3.97-.24,5.89-.53,1.72-.18,3.44-.88,5.04-1.48,4.4-1.63,8.9-3.17,13.45-4.3,2.75-.66,5.65-.93,8.41-1.55,7.64-1.69,11.27-2.9,19.34-1.53"/><path class="b" d="M11.5,184.4c3.69,3.45,6.13,8.63,10.93,10.73,8.06,2.38,18.89-6.46,26.91-8.18,3.59-.88,7.37-.32,10.93.42,1.93.14,3.99.21,5.89.69,3.55.85,7.33-.28,10.93.23,3.41.5,6.71,1.92,10.09,2.52,1.05-.1,2.31-.22,3.36-.07,4.29.8,7.54,4.13,10.93,6.64,2.26,1.77,4.88,3.19,7.57,4.2,1.81.8,3.94.85,5.89.68,1.63-.13,3.4-.28,5.04-.34,1.37-.33,2.86-.86,4.2-1.28,1.88-.58,3.92-1.1,5.89-1.28,1.34-.1,2.86-.05,4.2-.14,1.13.02,2.35-.56,3.36-.99,1.61-.67,3.39-1.31,5.04-1.86,4.36-1.51,8.93-2.51,13.45-3.37,11.04-2.53,11.65-6.25,24.38-3.6"/><path class="b" d="M11.5,185.56c3.08,4.05,5.86,10.96,11.77,10.93,3.54-.2,6.9-1.78,10.09-3.21,5.62-2.58,10.96-5.91,16.82-7.94,2.95-.99,6.15-1.26,9.25-1.09,2.5-.13,5.1-.27,7.57.22,3.34,0,6.76-.58,10.09-.11,3.99.73,8,1.78,11.77,3.29,1.89.93,4.02,1.62,5.89,2.58,3.05,1.78,5.55,4.48,8.41,6.53,3.15,2.2,6.99,4.12,10.93,3.8,2.5-.31,5.08-.71,7.57-1.06,1.91-.62,3.92-1.3,5.89-1.73,1.32-.31,2.84-.57,4.2-.58,1.08-.02,2.42.12,3.36-.51,3.73-1.87,7.69-3.5,11.77-4.43,3.58-.78,7.29-1,10.93-1.35,2.65-.81,5.06-2.44,7.57-3.58,4.98-2.61,9.96-1,15.13-.11"/><path class="b" d="M11.5,186.83c2.87,4.73,5.97,11.18,12.61,9.23,8.67-2.38,16.22-7.62,24.38-11.23,4.99-2.25,10.55-3.06,15.98-3.45,1.35-.08,2.85.11,4.2.13,1.64-.11,3.41-.2,5.04-.13,5.54.34,11,1.92,15.97,4.35,2.21,1.12,4.68,2.06,6.73,3.47,4,3.2,7.49,7.48,12.61,8.92,3.78,1.28,6.4.55,10.09-.47,1.33-.33,2.85-.63,4.2-.83,3-.91,6.1-1.86,9.25-2.1,3.28-1.75,6.52-3.78,10.09-4.92,2.13-.83,4.43-1.54,6.73-1.62,3.09-.33,6.18.53,9.25.63,2.3-1.2,4.4-2.96,6.73-4.12,2.3-1.23,5.05-1.47,7.57-.86,2.49.57,5.06,1.19,7.57,1.64"/><path class="b" d="M11.5,187.33c4.36,7.72,7.25,9.99,15.97,6.64,8.51-3.07,15.93-8.53,24.38-11.71,7.53-2.35,15.7-3.7,23.54-2.35,7.7,1.28,14.41,5.65,21.86,7.85,4.55,4.32,8.28,8.93,15.13,9.03,1.35.03,2.88-.07,4.2-.38,1.92-.68,3.93-1.51,5.89-2.09,3.36-1.01,7.06-1.31,10.09-3.21,3.46-2.25,6.98-4.58,10.93-5.87,2.09-.91,4.43-1.49,6.73-1.28,3.02.02,5.6,1.92,8.41,2.73,1.85-.81,3.32-2.57,5.04-3.61,2.79-2.04,6.05-2.28,9.25-1.1,2.46.8,5.03,1.55,7.57,2.03"/><path class="b" d="M11.5,186.73c4.35,7.42,7.85,8.88,15.97,5.94,7.13-2.45,13.35-6.91,20.18-10.02,2.16-.82,4.51-1.42,6.73-2.08,4.1-1.19,8.37-1.84,12.61-2.27,1.35-.13,2.85-.3,4.2-.28,2.27.26,4.56.96,6.73,1.65,2.59.9,5.06,2.32,7.57,3.4,3.22,1.37,6.65,2.49,10.09,3.16,2.98.37,3.08.74,5.04,2.89,4.19,4.77,8.89,6.51,15.13,5.01,2.91-.6,5.69-1.86,8.41-3.03,2.89-1,5.9-2.03,8.41-3.83,3.38-2.54,6.88-5.1,10.93-6.46,1.83-.77,3.87-1.46,5.89-1.21,3.94.14,6.2,3.12,9.25,5.09,1.78-1.17,3.23-3.03,5.04-4.17,2.88-2.09,6.18-1.65,9.25-.25,2.42,1.01,5,1.92,7.57,2.46"/><path class="b" d="M11.5,185.09c2.2,3.54,5.46,7.52,10.09,7.05,4.14-.35,8.11-1.99,11.77-3.87,2.24-1.09,4.4-2.59,6.73-3.49,5.56-2,11.1-4.22,16.82-5.73,4.12-1.01,8.43-1.1,12.61-1.71.74-.09,1.77-.22,2.52-.29.77.12,1.79.44,2.52.69,4.16,1.23,7.72,3.93,11.77,5.42,4.02,1.55,8.37,1.9,12.61,2.3,5.17,5.54,7.87,8.63,15.98,6.25,2.87-.84,5.66-2.14,8.41-3.29,2.29-.89,4.72-1.74,6.73-3.21,4.15-2.82,7.74-6.7,12.61-8.31,2.37-.95,5.01-1.86,7.57-1.1,2,.43,3.77,1.78,5.04,3.35,1.04,1.11,1.97,2.83,3.36,3.53,1.02-1.17,2.32-2.47,3.36-3.61.78-1.13,1.91-2.5,3.36-2.68,1.76-.08,3.45.94,5.04,1.55,3.4,1.04,6.62,2.77,10.09,3.6"/><path class="b" d="M11.5,182.66c1.88,2.72,4.16,5.76,7.57,6.54.5,0,1.28.34,1.68.61.72.38,1.71.66,2.52.66,4.19-.23,7.98-2.54,11.77-4.15,3.82-1.76,7.85-3.19,11.77-4.73,3.83-1.49,7.7-3.18,11.77-3.88,3.03-.51,6.2-.44,9.25-.78,1.64-.17,3.41-.46,5.04-.67.81.02,1.79.46,2.52.75,2.64.99,5.05,2.67,7.57,3.93,2.34,1.19,4.97,1.98,7.57,2.35,1.62.27,3.4.41,5.04.37,1.35.08,3-.17,4.2.56,6.45,8.4,10.68,7.13,19.34,2.75,4.13-2.31,8.87-3.74,12.61-6.69,3.27-2.87,6.66-5.95,10.93-7.2,2.4-.83,5.08-1.44,7.57-.62,3.9,1.02,5.51,5.2,7.57,8.23,1-.53,1.81-1.86,2.52-2.7.75-1.45,1.59-3.71,3.36-4.13,1.25-.02,2.41.94,3.36,1.64.99.75,2.22,1.58,3.36,2.07,1.82.82,3.94.95,5.89,1.22,1.31.59,2.82,1.16,4.2,1.53"/><path class="b" d="M11.5,179.77c1.57,2.21,3.49,4.37,5.89,5.7,2.3,3.81,5.03,4.94,9.25,3.34,3.12-1.17,6.15-2.76,9.25-4,3.3-1.38,6.76-2.55,10.09-3.88,6.06-2.5,10.91-4.75,17.66-4.63,1.93-.06,3.97-.12,5.89-.33,1.64-.1,3.41-.67,5.04-.45,3.53,1.26,6.59,3.64,10.09,4.96,2.65,1.01,5.58,1.4,8.41,1.52,2.2.07,4.61-.43,6.73.3,1.91,2.22,3.84,4.92,6.73,5.89,5.02,1.29,10.12-3.18,14.29-5.47,1.58-1,3.43-1.82,5.04-2.75,2.51-1.53,4.98-3.31,7.57-4.72,1.51-1.35,3.25-2.73,5.04-3.69,3.8-1.84,8.54-3.02,12.61-1.43,3.21,1.44,4.36,5.35,5.89,8.24l.84.1c1.74-1.95,2-5.4,4.2-6.9,1.43-.19,2.48,1.35,3.36,2.25.93,1.04,2.13,2.22,3.36,2.91,2.54,1.4,5.59,1.4,8.41,1.21,1.05.38,2.29.89,3.36,1.2"/><path class="b" d="M11.5,176.78c1.2,1.59,2.78,3.12,4.2,4.5,2.13,4.24,4.63,8.53,10.09,6.64,2.92-.92,5.62-2.56,8.41-3.79,2.98-1.35,6.16-2.41,9.25-3.48,5.02-1.68,9.84-4.25,15.13-5,5.02-.51,10.13-.46,15.13-1.2,1.14-.27,2.36.41,3.36.85,1.66.78,3.38,1.78,5.04,2.56,3.12,1.53,6.64,2.16,10.09,2.23,1.93.05,3.96-.28,5.89-.12,1.55-.17,2.47,1.47,3.36,2.46,4.39,5.44,8.04,5,13.45,1.2,2.24-1.53,4.45-3.31,6.73-4.79,1.97-1.17,4.06-2.39,5.89-3.78,2.34-1.7,4.83-3.44,7.57-4.45,2.22-1.57,4.87-2.64,7.57-3.02,8.94-1.22,10.37.25,13.45,8.53l.84.54c1.41-2.05,1.83-5.17,3.36-7.14l.84-.32c1.06.37,1.9,1.68,2.52,2.55,1.93,3.13,4.63,5.21,8.41,5.37,1.05.08,2.31.05,3.36-.06.76-.08,1.77-.3,2.52-.09.74.29,1.76.65,2.52.88"/><path class="b" d="M11.5,173.96c.73.8,1.71,1.87,2.52,2.59.47.76,1.31,2.38,1.68,3.19,3.58,7.49,6.69,9.18,14.29,5.18,2.46-1.26,4.99-2.63,7.57-3.64,2.73-1.09,5.63-1.93,8.41-2.87,3.88-1.29,7.74-2.9,11.77-3.65,2.75-.51,5.63-.54,8.41-.74,2.78-.21,5.63-.62,8.41-.84,1.14-.03,2.33.68,3.36,1.09,1.91.87,3.89,1.91,5.89,2.6,2.67.96,5.59,1.24,8.41,1.24,2.21-.05,4.52-.38,6.73-.07,2.63,2.31,4.61,6.18,8.41,6.65,4.42.04,7.68-3.77,10.93-6.27,2.02-1.83,4.48-3.21,6.73-4.72,2.65-1.9,5.38-3.91,8.41-5.16,1.9-.73,3.92-1.51,5.89-2.04,2.17-.52,4.5-.76,6.73-.89,6.65-1.26,7.35,3.67,9.25,8.65l.84.45c1.37-2.21,1.53-5.71,3.36-7.63l.84.05c4.03,4.43,4.02,9.58,11.77,8.94,1.64-.11,3.43-.21,5.04-.54,1.05.32,2.3.77,3.36,1.06"/><path class="b" d="M11.5,171.28c.45.41,1.23,1.21,1.68,1.6.46.78,1.29,2.41,1.68,3.24,1.55,3.01,3,6.62,5.89,8.6,5.03,2.9,11.99-3.19,16.82-4.9,2.97-1.27,6.16-2.15,9.25-3.07,3.33-1,6.69-2.14,10.09-2.87,3.29-.73,6.74-.84,10.09-1.14,2.78-.25,5.62-.75,8.41-.89,2.6.57,5.05,1.98,7.57,2.83,3.73,1.39,7.83,1.59,11.77,1.29,3.37-.09,3.63-.36,5.89,2.33,4.09,4.67,7.3,6.39,12.61,2.06,3.34-2.67,6.26-6.02,10.09-8.03,2.17-1.42,4.37-3.03,6.73-4.14,3.71-1.72,7.71-2.97,11.77-3.54,2.21-.29,4.51-.82,6.73-1.03,3.96.62,4.63,6.07,5.89,9.16l.84-.43c1.29-2.18,1.22-6.05,3.36-7.6,3.99,2.54,3.14,10.8,10.93,10.51,2.52-.17,5.03-1.21,7.57-1.11,1.04.34,2.3.7,3.36.97"/><path class="b" d="M11.5,168.81c1.55,1.15,2.47,3.4,3.36,5.05,1.61,3.04,3.12,6.59,5.89,8.77,5.1,3.67,12.63-2.9,17.66-4.67,5.68-2.26,11.72-3.67,17.66-5.06,3.58-.8,7.29-1.08,10.93-1.41,3.07-.28,6.17-.87,9.25-1.03,2.84.69,5.57,2.01,8.41,2.72,3.26.9,6.73.82,10.09.8.75,0,1.78.03,2.52.08,1.29.63,2.32,2.07,3.36,3.03,3.7,3.83,7.09,5.66,11.77,1.96,2.95-2.2,5.38-5.18,8.41-7.28,2.51-1.38,4.96-3.09,7.57-4.28,1.59-.71,3.4-1.28,5.05-1.84,1.88-.7,3.9-1.37,5.89-1.71,2.79-.57,5.6-1.52,8.41-1.99,3.75.4,4.73,6.93,5.89,9.84,1.26-2.72,1.82-6.44,3.36-9.01l.84-.09c3.91,5.19,3.41,13.89,12.61,11.37,1.92-.51,3.88-1.48,5.89-1.58,1.34.39,2.85.78,4.2,1.09"/><path class="b" d="M11.5,166.59c1.51,1.05,2.44,3.18,3.36,4.72,1.49,2.7,2.97,5.74,5.04,8.05,2.85,3.26,6.5,2.73,10.09,1.12,3.11-1.36,6.1-3.14,9.25-4.42,5.91-2.36,12.23-3.72,18.5-4.76,3.6-.6,7.3-.87,10.93-1.26,2.78-.31,5.62-.79,8.41-1.01,3.09.67,6.11,1.98,9.25,2.49,3.31.55,6.75.43,10.09.66,2.25,1.87,4.27,4.23,6.73,5.86,5.49,3.88,10.53-1.76,14.29-5.37,1.65-1.71,3.76-3.01,5.89-4.02,2.85-1.74,6.09-2.76,9.25-3.78,3.28-1.34,6.77-1.93,10.09-3.27,1.59-.46,3.37-1.41,5.05-.94,2.46,1.58,3.23,5.22,4.2,7.81l.84.54c.42-1.35,1.27-4.06,1.68-5.41.26-.78.85-2.7,1.68-3.08,1.35.92,1.92,3.36,2.52,4.79,1.89,5.14,3.5,9.97,10.09,7.97,2.29-.54,4.39-2.09,6.73-2.36,1.64.32,3.41.72,5.05,1.07"/><path class="b" d="M11.5,164.61c1.43.87,2.52,2.56,3.36,3.96,1.57,2.6,3.1,5.53,5.04,7.88,4.2,5.33,9.25,2.73,14.29.36,4.03-2,8.23-3.81,12.61-4.89,6.29-1.79,12.86-2.35,19.34-2.96,3.92-.32,7.87-.96,11.77-1.43,2.53.39,5.03,1.44,7.57,1.85,3.03.58,6.18.76,9.25.97,2.9,1.95,5.27,4.79,8.41,6.4,5.1,2.72,9.04-1.1,12.61-4.36,1.6-1.36,3.18-3.04,5.04-4.04,1.94-.83,3.91-1.91,5.89-2.65,1.91-.71,4.01-1.27,5.89-2.07,2.29-.47,4.62-1.19,6.73-2.19,2.13-.89,4.37-2.18,6.73-2.17,3.03.82,3.98,6.23,5.04,8.83.96-2.93,1.78-6.67,3.36-9.33l.84.25c3.67,6.35,2.99,17.1,13.45,12.82,1.69-.65,3.38-1.64,5.04-2.34,2.22.23,4.53.48,6.73.88"/><path class="b" d="M11.5,162.84c5.24,3.25,6.54,10.29,11.77,13.56,4.52,2.82,12.24-2.33,16.82-3.92,5.11-2,10.5-3.59,15.97-4.15,6.15-.61,12.38-.81,18.5-1.74,1.35-.2,2.85-.44,4.2-.61,2.81.38,5.58,1.48,8.41,1.88,1.9.43,4.04.34,5.89.95,5.15,3.43,11.38,10.6,17.66,5.26,2.56-1.9,4.87-4.31,7.57-6.03,1.24-.83,2.83-1.34,4.2-1.88,1.34-.56,2.84-1.23,4.2-1.72,2.41-.97,5.11-1.32,7.57-2.12,3.42-1.17,6.39-3.84,10.09-4.11,3.25.25,3.96,4.66,5.04,7.1,1.54-2.15,1.81-5.59,3.36-7.78l.84-.43c1.77,2.15,2.34,5.67,3.36,8.2.96,2.41,2.14,5.77,5.04,6.29,3.61.42,7.03-1.58,10.09-3.24,2.78.14,5.64.17,8.41.5"/><path class="b" d="M11.5,161.27c1.66,1.3,3.15,3.09,5.04,4.08,2.06,2.77,3.92,6,6.73,8.1,2.18,1.72,5.06,1.49,7.57.76,3.15-.86,6.2-2.27,9.25-3.43,5.15-1.92,10.49-3.72,15.97-4.29,5.02-.41,10.12-.42,15.13-.91,1.93-.17,3.96-.52,5.89-.78,1.72-.29,3.38-.34,5.04.25,2.74.79,5.65,1.24,8.41,1.91,4.69,2.89,11.92,10.3,17.66,6.54,2.97-1.85,5.41-4.59,8.41-6.41,1.5-.97,3.39-1.41,5.04-2.02,3.24-1.3,6.73-2.06,10.09-2.96,3.57-.99,6.37-3.98,10.09-4.53,3.34-.8,4.88,2.59,5.89,5.15l.84-.28c.75-2.13,1.22-5.57,3.36-6.78l.84.36c4.83,10.09,3.58,19.08,17.66,11.22,3.34.18,6.75.01,10.09.23"/><path class="b" d="M11.5,159.93c2.25,2.19,4.26,5.1,7.57,5.66,5.6,7.33,8.38,7.2,16.82,4.7,6.93-2.09,13.75-5.08,21.02-5.76,4.74-.38,9.55-.17,14.29-.52,2.21-.16,4.52-.46,6.73-.66,1.36-.13,2.88-.3,4.2.16,2.57.73,5.45.94,7.57,2.72,3.14,2.41,6.19,5.25,10.09,6.35,1.86.48,4.03,1.05,5.89.32,3.15-1.49,5.53-4.33,8.41-6.25,1.71-1.27,3.88-1.84,5.89-2.44,2.72-.95,5.61-1.56,8.41-2.22,3.4-.68,6.2-2.82,9.25-4.29,1.82-.71,4.08-.85,5.89-.05,1.03.58,1.95,1.89,2.52,2.89l.84.03c.78-1.93,1.36-5.01,3.36-6.06l.84.03c1.42.75,1.93,3.24,2.52,4.6,1.81,4.99,3.44,10.8,10.09,8.91,1.72-.48,3.48-1.31,5.04-2.16,3.9.06,7.86.34,11.77.39"/><path class="b" d="M11.5,158.93c2.1,2.33,4.09,5.81,7.57,6.01.78,0,1.76-.41,2.52-.13,4.28,4.29,7.08,3.68,12.61,2.91,5.96-.97,11.8-2.71,17.66-4.14,6.31-1.6,12.9-.99,19.34-1.17,2.21-.05,4.52-.23,6.73-.38,1.35-.02,2.88-.34,4.2.01,7.5,1.5,9.82,9.5,18.5,9.87,1.68.13,3.59.15,5.04-.85,2.91-1.97,5.29-4.84,8.41-6.54,1.53-.84,3.4-1.21,5.04-1.77,2.71-.9,5.64-1.25,8.41-1.89,1.72-.43,3.5-1.15,5.04-2,1.79-.99,3.76-2.21,5.89-2.09,2.04.28,4.42.59,5.89,2.18l.84-.1c.82-1.74,1.59-4.28,3.36-5.28,2.31-.42,3.56,2.15,4.2,3.94.66,1.65,1.6,3.9,2.52,5.42,1.75,3.1,5.18,3.85,8.41,2.75,1.42-.42,2.81-1.34,4.2-1.81,4.18.49,8.41.91,12.61,1.16"/><path class="b" d="M11.5,158.35c3.12,4.33,6.4,8.23,11.77,4.3,1.13.24,2.23,1.11,3.36,1.37,2.45.52,5.08.05,7.57.05,3.64-.16,7.34-.42,10.93-1.02,3.37-.53,6.73-1.43,10.09-1.97,7.8-1.04,15.71.17,23.54-.41,1.74-.19,3.58.14,5.04,1.14,2.15,1.23,4.12,2.97,5.89,4.7,3.46,3.6,7.76,4.62,12.61,3.97,2.45-.08,4.21-2.22,5.89-3.77,1.49-1.45,3.22-2.92,5.04-3.93,2.91-1.31,6.08-2.37,9.25-2.85,2.52-.33,5.19-.55,7.57-1.52,2.16-.81,4.33-2.26,6.73-2.06,2.08.28,4.63,1.46,6.73,1.37,1.11-1.75,2.03-4.51,4.2-5.13,1.2,0,2.39.8,3.36,1.41.54.63,1.36,2.15,1.68,2.91,3.26,7.38,7.35,8.35,14.29,4.64,4.48.64,8.94,1.7,13.45,2.1"/><path class="b" d="M11.5,158.12c2.04,2.92,5.36,6.33,9.25,4.81,1.82-.64,3.38-2.07,5.04-2.99,2.13.82,4.51.4,6.73.52,3.35.07,6.74.5,10.09.47,5.39.04,10.63-1.64,15.98-2.02,3.34-.18,6.75.03,10.09.2,2.21.17,4.53.09,6.73.38,7.63,1.08,7.76.56,13.45,6.14,4.26,4.42,9.66,3.56,15.13,2.51,2.52-1.66,4.27-4.43,6.73-6.18,1.72-1.36,3.88-2.18,5.89-3.01,2.63-1.14,5.57-1.44,8.41-1.47,1.66-.04,3.45-.25,5.04-.71,1.88-.54,3.9-1.28,5.89-.96,1.91.44,3.9,1.07,5.89.97,2.08-1.67,3.33-6.18,6.73-4.86.77.29,1.78.76,2.52,1.11,1.58,1.7,2.52,4.22,4.2,5.86,1.7,1.78,4.34,2.48,6.73,2.01,1.76-.21,3.34-1.41,5.04-1.71,4.52.81,8.89,2.48,13.45,3.1"/><path class="b" d="M11.5,157.82c3.25,3.96,7.34,5.28,11.77,2.26,1.85-.98,3.65-3.03,5.89-2.82,4.22-.16,8.44.6,12.61,1.15,1.05.12,2.31.21,3.36.22,1.62.35,3.36.83,5.04.76,3.39-.01,6.72-1.14,10.09-1.37,6.77-.53,13.54.69,20.18,1.91.74.14,1.78.32,2.52.45,1.55.74,2.95,2.1,4.2,3.25,1.99,2,4.64,3.68,7.57,3.42,3.38-.3,6.77-1.09,10.09-1.75,2.78-2.94,5.38-6.34,9.25-7.93,4.38-2.56,7.71-2.66,12.61-2.07,2.51.28,5.07-.4,7.57-.31,2.21.27,4.48.95,6.73.62,2.41-1.67,3.96-5.95,7.57-4.76.76.19,1.78.5,2.52.73,1.54,1.34,2.61,3.43,4.2,4.73,1.59,1.38,3.79,2.09,5.89,1.94,1.72-.11,3.48-.76,5.04-1.44,4.91.71,9.43,3.16,14.29,4.1"/><path class="b" d="M11.5,156.93c2.44,2.25,5.99,3.59,9.25,2.48,2.36-.76,4.46-2.34,6.73-3.31,2.1-.84,4.49-1.11,6.73-1.37,1.36.16,2.86.4,4.2.63,1.37.31,3.07.29,4.2,1.22,1.98,1.3,4.35,2.2,6.73,2.33,3.7.33,7.26-1.25,10.93-1.16,1.93-.05,3.96-.5,5.89-.49,3.38.15,6.79.69,10.09,1.38,2.21.45,4.51.98,6.73,1.4,1.31.08,2.39,1.33,3.36,2.09,1.82,1.64,4.16,3.18,6.73,2.83,1.99-.24,3.97-1.05,5.89-1.59,2.18-.62,4.51-1.04,6.73-1.48,2.21-2.57,4.47-5.33,7.57-6.87,2.73-1.78,5.91-3.22,9.25-2.74,2.84.26,5.55,1.58,8.41,1.69,3.36.03,6.75,1.03,10.09.25,2.63-2.22,4.41-5.5,8.41-4.56.82.1,1.89.26,2.52.86,1.02,1,2.21,2.22,3.36,3.07,1.67,1.23,3.82,1.91,5.89,1.86,1.69.02,3.4-.63,5.04-.92,4.91,1.18,9.44,3.62,14.29,4.97"/><path class="b" d="M11.5,155.38c6.36,3.99,9.83,1.65,15.97-.67,2.14-.68,4.51-.68,6.73-.92,1.06-.09,2.31-.21,3.36-.3.47-.12,1.25,0,1.68.21,1.48.64,2.78,1.98,4.2,2.75,2.25,1.33,4.96,1.96,7.57,1.82,1.95-.08,3.98-.44,5.89-.86,1.64,0,3.41-.03,5.04-.22,1.93-.18,3.96-.5,5.89-.67,1.94.14,3.98.43,5.89.82,3.64.74,7.27,1.8,10.93,2.47,3.54,2.56,5.72,4.2,10.09,1.99,3.66-1.95,7.64-3.32,11.77-3.76.89-.63,1.77-1.85,2.52-2.63.94-1,2.21-1.98,3.36-2.71,3.08-2.17,6.17-3.99,10.09-3.18,3.29.49,5.93,3.04,9.25,3.41,1.79.16,3.07.2,5.04.43,1.65-.17,3.6-.16,5.04-1.07,3.06-2.72,4.83-4.61,9.25-3.93,1.52.49,2.82,1.8,4.2,2.57,1.74,1.06,3.84,1.73,5.89,1.8,1.36.06,2.88-.13,4.2-.4,5.3,1.07,10.03,4.02,15.13,5.69"/><path class="b" d="M11.5,153.39c5.55,2.76,9.56,1.54,15.13,0,1.9-.43,3.95-.5,5.89-.46,1.35.11,3.03-.42,4.2.26,2.31,1.38,4.91,2.5,7.57,2.99,1.05.33,2.27.8,3.36.97,2.78.45,5.66-.06,8.41-.48,1.93-.08,3.97-.17,5.89-.37,2.21-.21,4.52-.5,6.73-.73,2.53.18,5.11.72,7.57,1.33,2.21.54,4.51,1.12,6.73,1.61.74.16,1.78.37,2.52.52.75.36,1.75.94,2.52,1.25,3.05,1.25,5.98-.98,8.41-2.6,1.79-1.19,3.81-2.29,5.89-2.88,1.87-.63,4-.57,5.89-1.05,1.59-2.02,3.79-3.56,5.89-5,2.82-2.26,6.78-2.87,10.09-1.37,2.64,1.09,4.59,4.04,7.57,4.21,1.94-.16,3.96.26,5.89.32,1.38-.01,2.88-.47,4.2-.8,3.42-2.23,5.51-4.79,10.09-4.08,2.25.78,4.39,2.15,6.73,2.71,2.16.58,4.51.65,6.73.46,2.21.81,4.57,1.55,6.73,2.51,2.78,1.21,5.56,2.67,8.41,3.73"/><path class="b" d="M11.5,151.15c5.85,2.26,10.13.89,15.97.46,1.64-.07,3.41.04,5.04.21.87,0,1.92.19,2.52.87,4.74,3.97,11,3.77,16.82,3.2,3.89-.49,7.86-.88,11.77-1.17,1.92-.08,3.96-.5,5.89-.36,5.38.64,10.67,2.11,15.97,3.18,1.93.41,3.93,1.41,5.89.48,1.85-.8,3.49-2.28,5.04-3.52,3.66-3.17,7.73-4.77,12.61-4.55,2.71-1.95,5.18-4.64,8.41-5.76,2.51-.67,5.43-.31,7.57,1.21,1.15.84,2.33,2.06,3.36,3.02.68.58,1.58,1.43,2.52,1.46,3.35-.07,6.8,1.04,10.09.07,1.89-.31,3.49-1.54,5.04-2.58,2.46-1.52,5.62-2.26,8.41-1.25,2.18.69,4.46,1.46,6.73,1.8,1.62.35,3.5.08,5.04.71,4.89,1.75,9.77,3.79,14.29,6.32"/><path class="b" d="M11.5,148.8c4.09,1.19,8.41,1,12.61.87,2.79,0,5.68.3,8.41.9,1.86,1.87,4.09,3.72,6.73,4.31,4.75.79,9.6-.31,14.29-.98,6.64-1.04,13.51-1.74,20.18-.61,3.35.56,6.77,1.09,10.09,1.79,3.5.67,6.09,2.18,9.25-.43,4.04-3.38,7.8-8.01,13.45-8.34,1.05-.09,2.31-.08,3.36-.03.53-.03,1.33-.56,1.68-.94,1.8-1.39,3.63-3.15,5.89-3.75,2.2-.46,4.76-.36,6.73.82,2.26,1.42,3.7,4.01,5.89,5.51,2.52.03,5.06.68,7.57.85,2.26.07,4.61-.46,6.73-1.23,2.31-1.44,4.81-2.85,7.57-3.12,3.13-.36,6.2.94,9.25,1.43,1.34.27,2.86.45,4.2.66,1.94.65,3.97,1.41,5.89,2.12,1.97.76,3.99,1.75,5.89,2.68,1.2.45,2.34,1.39,3.36,2.13"/><path class="b" d="M11.5,146.44c5.26,1.06,10.73.26,15.97,1.38,1.06.21,2.31.49,3.36.75.9.5,1.77,1.59,2.52,2.27,2.42,2.37,5.13,2.97,8.41,2.47,3.66-.41,7.28-1.46,10.93-1.92,3.05-.37,6.17-.83,9.25-.88,3.91.11,7.89.11,11.77.63,5.08.57,10.2,1.17,15.13,2.56,3.9.98,7.36-4.83,10.09-7,3.62-3.5,7.72-4.35,12.61-3.73,1.53-1.27,3.17-2.72,5.04-3.43,2.41-.77,5.33-.74,7.57.54,2.33,1.43,3.61,4.27,5.89,5.71,2.53.13,5.04,1.01,7.57,1.24,1.65.22,3.44-.05,5.04-.43,2.11-.26,4.01-1.35,5.89-2.27,1.83-.78,3.9-1.28,5.89-1.32,2.24,0,4.54.54,6.73.98,1.62.41,3.43.56,5.05.98,3.71,1.19,7.46,2.53,10.93,4.32,1.08.71,2.17,1.85,3.36,2.41"/><path class="b" d="M11.5,144.15c3.05.37,6.19.27,9.25.4,2.83.14,5.7.77,8.41,1.59,1,.13,1.9,1.15,2.52,1.87,2.02,2.24,4.45,3.89,7.57,2.96,4.72-1.1,9.37-2.99,14.29-2.95,3.06-.01,6.2-.27,9.25-.04,3.05.39,6.2.21,9.25.54,3.34.37,6.76.5,10.09.96,2.83.38,5.64,1.25,8.41,1.92,6.83-.98,9.09-14.91,22.7-11.64,1.32-.81,2.69-1.9,4.2-2.35,2.48-.71,5.46-.57,7.57,1.04,1.19.97,2.38,2.37,3.36,3.54.59.74,1.47,1.75,2.52,1.64,5.14.95,8,2.51,13.45,1.1,1.75-.25,3.45-1.06,5.04-1.77,2.64-1.06,5.57-1.55,8.41-1.23,2.81.27,5.6,1.17,8.41,1.38,3.11.91,6.29,1.92,9.25,3.25,1.81.8,3.09,2.76,5.04,3.37"/><path class="b" d="M11.5,141.99c3.06.2,6.19-.09,9.25.09,2.55.17,5.14.76,7.57,1.57,1.85.38,2.82,2.41,4.2,3.5,2.25,2.04,4.14,1.91,6.73.62,8.1-3.94,10.72-3.62,19.34-2.75,2.23,0,4.51.53,6.73.53,3.92,0,7.86.58,11.77.82,3.38.2,6.82.65,10.09,1.53,1.35.34,2.85.74,4.2,1.07,2.06-.24,3.69-2,5.04-3.43,2.58-2.84,4.91-6.26,8.41-8.05,3.09-1.47,6.87-1.83,10.09-.57,0,0,.84-.04.84-.04l.84-.5c.69-.38,1.74-.78,2.52-.95,5.5-1.15,7.57,2.39,10.93,5.81,3.15.23,6.13,1.62,9.25,2.03,2.78.35,5.7-.13,8.41-.8,1.91-.69,3.89-1.54,5.89-1.93,3.33-.72,6.8-.14,10.09.52,1.04.19,2.3.38,3.36.45,1.67.35,3.42.94,5.04,1.45,1.07.35,2.36.77,3.36,1.3,1.43,1.36,3.11,2.81,5.04,3.36"/><path class="b" d="M11.5,140c2.79-.01,5.63-.21,8.41.09,1.94.09,4.01-.15,5.89.47,1.07.28,2.32.68,3.36,1.05,1.05,1.09,2.18,2.5,3.36,3.45,2.1,1.69,3.81,1.31,5.89-.13,5.42-3.91,9.45-4.69,15.98-3.41,4.15.81,8.39,1.19,12.61,1.37,3.91.35,7.86.88,11.77,1.21,2.8.29,5.67.77,8.41,1.43,1.05.24,2.31.54,3.36.79.74.21,1.78.39,2.52.09,3.66-1.4,5.79-5.14,8.41-7.84,4.13-4.79,10.15-6.28,15.97-3.67,4.68-2.47,8.58-1.07,11.77,2.87.37.49,1.04,1.16,1.68,1.24,1.07.1,2.33.36,3.36.64,1.92.53,3.92,1.23,5.89,1.56,2.47.36,5.11.27,7.57-.16,3.33-.82,6.59-2.35,10.09-2.31,2.52-.05,5.09.49,7.57.9,1.95.26,4.01.41,5.89,1.06,1.07.33,2.42.58,3.36,1.23,1.71,1.45,3.62,3.05,5.89,3.47"/><path class="b" d="M11.5,138.15c1.64,0,3.41-.1,5.04-.26,2.21.17,4.5.63,6.73.67,1.66.1,3.47-.28,5.04.41.59.1,1.35.86,1.68,1.33.7.78,1.68,1.81,2.52,2.43,2.25,1.67,4.01.76,5.89-.88,1.95-1.63,4.14-3.35,6.73-3.73,3.63-.43,7.35.38,10.93.93,3.3.71,6.75.74,10.09,1.14,5.03.63,10.1,1.3,15.13,1.95,2.51.35,5.09.86,7.57,1.38,1.91.37,3.97,1.08,5.89.36,3.21-1.22,5.31-4.29,7.57-6.72,4.77-5.56,9.97-6.94,16.82-4.17,5.49-2.2,8.03-.24,11.77,3.62,3.19.07,6.21,1.41,9.25,2.21,2.16.52,4.51.7,6.73.71,2.27-.15,4.54-.92,6.73-1.51,4.11-1.29,8.47-.79,12.61.03,1.93.32,4.01.32,5.89.92,1.25.18,2.35,1.24,3.36,1.91,1.47,1.03,3.22,2.02,5.04,2.19"/><path class="b" d="M11.5,136.32c1.35,0,2.86-.02,4.2-.11,1.06-.04,2.31-.36,3.36-.12,1.91.38,3.94.72,5.89.87,1.35.15,2.86-.03,4.2.13,1.84,2,4.61,5.4,7.57,3.42,1.42-1.06,2.77-2.52,4.2-3.56,2.4-1.74,5.57-1.97,8.41-1.48,7.5,1.44,15.16,1.87,22.7,3.02,5.03.68,10.12,1.29,15.13,2.08,3.59.41,7.46,2.34,10.93.53,5.43-3.03,8.24-10.66,15.13-10.95,2.26-.13,4.6.37,6.73,1.08,4.65-1.42,7.56-1.27,10.93,2.65.73.27,1.76.24,2.52.34,1.39.18,2.89.62,4.2,1.09,2.69,1.07,5.56,1.79,8.41,2.25,1.36.29,2.86-.15,4.2-.3,3.1-.31,6.11-1.6,9.25-1.67,2.52-.11,5.09.39,7.57.81,1.62.32,3.44.27,5.04.67,2.68,1.37,5.26,3.53,8.41,3.55"/><path class="b" d="M11.5,134.41c2.78.07,5.64-.06,8.41-.31,3.04.57,6.14,1.26,9.25,1.33,1.66.98,3.12,2.67,5.04,3.12,2.92.4,4.56-2.73,6.73-4.13,3.22-2.43,6.39-2.23,10.09-1.27,4.11,1.07,8.4,1.3,12.61,1.75,7.83.99,15.73,1.61,23.54,2.7,1.95.27,4,.65,5.89,1.19,1.87.55,3.91,1.16,5.89.91,6.61-1.26,8.68-10.08,15.98-10.47,1.95-.29,3.96.37,5.89.39,1.8-.82,3.92-1.32,5.89-.95,1.17.22,2.44.87,3.36,1.62.31.41,1.17.98,1.68,1.06,3.89-.43,7.38,1.76,10.93,2.98,1.35.37,2.81,1,4.2,1.21,2.19-.37,4.52-.27,6.73-.46,2.75-.56,5.57-1.41,8.41-1.21,1.94.09,3.97.49,5.89.81,1.34.29,2.93.17,4.2.72,2.62,1.25,5.4,2.83,8.41,2.62"/><path class="b" d="M11.5,132.46c2.21,0,4.52.05,6.73-.05,1.06-.06,2.3-.12,3.36-.13,1.06.18,2.3.47,3.36.67,1.34.26,2.84.51,4.2.66,1.1.5,2.26,1.35,3.36,1.84,2.01,1.29,4.33.46,5.89-1.13,7.16-7.01,9.09-4.23,17.66-2.59,5.57.67,11.23.92,16.82,1.49,5.03.43,10.14.59,15.13,1.41,2.54.37,5.12.98,7.57,1.77,2.17.6,4.45,1.48,6.73,1.36,2.39-.2,4.28-2.04,5.89-3.65,1.72-1.7,3.66-3.45,5.89-4.45,1.81-.82,3.91-1.13,5.89-1.08,3.28-1.97,7.88-2.65,10.93.1,2.21-.47,4.62-.44,6.73.44,2.8,1.27,5.57,2.81,8.41,4.01,2.78-.52,5.63.09,8.41.12,3.05-.45,6.12-1.54,9.25-1.08,2.51.31,5.08.82,7.57,1.23,2.94,1.06,6.06,2.37,9.25,1.91"/><path class="b" d="M11.5,130.45c2.49,0,5.07.08,7.57.02,2.53-.16,5.11.01,7.57.65,1.06.22,2.31.43,3.36.65,1.72,1.02,3.82,2.29,5.89,1.64,3.27-1.15,5.22-4.56,8.41-5.87,1.88-.73,4.01-.31,5.89.19,2.76.71,5.57,1.65,8.41,1.99,4.45.44,9,.39,13.45.84,6.15.48,12.4.32,18.5,1.35,3.49.46,6.73,2.05,10.09,2.98,5.9,1.39,7.19.6,11.77-3.07,1.76-1.4,3.83-2.59,5.89-3.5,3.2-2.71,7.82-3.94,11.77-2.22,6.35-2.53,10.04.97,15.13,4.12,1.35.12,2.85-.21,4.2.01,1.94.26,3.92.99,5.89,1.07,1.94-.33,3.93-.95,5.89-1.17,1.94-.18,3.99.12,5.89.53,4.44.68,8.91,2.68,13.45,1.78"/><path class="b" d="M11.5,128.4c2.5-.08,5.07.07,7.57.09,2.49-.02,5.12-.06,7.57.45,1.35.31,2.88.56,4.2.96,3.21,1.91,5.58,1.43,8.41-.82,3.65-3.37,5.67-5.54,10.93-3.88,2.78.73,5.55,1.86,8.41,2.28,1.08.09,2.27.68,3.36.6,1.93.02,3.96.06,5.89.2,1.62-.31,3.39-.54,5.04-.43,3.64.11,7.32.34,10.93.8,2.49.28,5.09.28,7.57.58,1.35.17,2.86.4,4.2.66,1.38.47,2.86,1.16,4.2,1.71,3.98,1.72,8.82,2.29,12.61-.17,3.93-2.3,7.09-6.33,11.77-7.13.73-.12,1.78-.19,2.52-.16.42.13,1.3,0,1.68-.22,7.08-3.25,10.34-1,15.98,3.46,2.22-.48,4.63-.26,6.73.59,1.57.51,3.37,1.65,5.04,1.07,1.94-.31,3.92-1.01,5.89-1.18,2.56-.18,5.12.63,7.57,1.26,3.55.8,7.31,1.49,10.93.78"/><path class="b" d="M11.5,126.35c2.77-.19,5.63-.1,8.41.04,4.22.1,8.65.34,12.61,1.92,2.28.98,4.83,0,6.73-1.37,4.11-3.47,6.05-5.73,11.77-3.75,1.65.51,3.39,1.23,5.04,1.74,1.75.37,3.56.94,5.04,1.98.75,0,1.77,0,2.52,0,2.71-2.21,5.18-1.81,8.41-1.52,1.35.13,2.86.08,4.2.27,2.18.55,4.47,1.11,6.73,1.28,3.06.27,6.19-.04,9.25.02,2.49.47,5.06.98,7.57,1.39,1.37.5,2.81,1.27,4.2,1.69,4.7,1.66,8.75.44,12.61-2.47,1.59-1.11,3.3-2.36,5.04-3.23,2.49-1.01,5.11-1.94,7.57-3.03,5.37-2.47,9.2-.46,13.45,2.98,2.52-.69,5.26-.35,7.57.86,1.34.61,2.72,1.65,4.2,1.87,1.31-.46,2.83-.81,4.2-.99,1.86-.63,3.92-1.08,5.89-.72,2.57.41,5.02,1.62,7.57,2.12,2.69.69,5.67.64,8.41.27"/><path class="b" d="M11.5,124.33c7-.59,14.24-.33,21.02,1.64,2.24.84,4.8.25,6.73-1.09,2.8-1.84,5.6-4.72,9.25-4.05,2.9.53,5.67,1.88,8.41,2.93,1.17.45,2.17,1.64,3.36,2.01,2.66-3.58,5.22-3.36,9.25-2.71,1.05.14,2.3.27,3.36.33,1.95.55,3.9,1.51,5.89,1.95,2.17.53,4.5.64,6.73.56,3.06-.11,6.19-.39,9.25-.58,2.49.4,5.06.8,7.57,1.06,1.45.07,2.83,1.07,4.2,1.47,3.98,1.6,8.35.35,11.77-1.97,2.04-1.15,3.9-2.82,5.89-4.05,1.53-.96,3.37-1.63,5.04-2.27,4.31-1.76,7.22-.51,10.93,1.78,3.36-.68,6.26-.71,9.25,1.2,1.07.6,2.2,1.57,3.36,1.97,1.8-.92,3.88-1.5,5.89-1.69.76-.19,1.75-.6,2.52-.74,4.23-.8,7.87,2.09,11.77,3.13,1.02.38,2.26.75,3.36.68,1.35.02,2.86.09,4.2-.1"/><path class="b" d="M11.5,122.34c7-1,14.18-.69,21.02,1.14,2.46.83,4.42.84,6.73-.47,7.03-4.57,9.68-4.52,16.82,0,1.11-.23,2.34-.83,3.36-1.32.92-.78,2.15-1.5,3.36-1.63,2.54-.17,5.06.84,7.57,1.07,2.02.62,3.88,1.97,5.89,2.65,2.94,1.07,6.16,1.1,9.25,1.04,3.06-.1,6.2-.26,9.25-.6,3.33-.42,6.76-.5,10.09-.03,1.47.07,2.84,1.11,4.2,1.56,3.07,1.3,6.53.49,9.25-1.25,2.53-1.55,4.88-3.6,7.57-4.9,3.12-1.45,6.87-2.41,10.09-.71,6.77-.82,8.39-1.76,14.29,2.85,1.78-1.16,3.75-2.3,5.89-2.63,1.05-.24,2.35-.1,3.36-.48,5.23-1.58,9.76,2.36,14.29,4.25.75.29,1.78.7,2.52,1,1.32.28,2.86.22,4.2.19"/><path class="b" d="M11.5,120.37c9.12-1.58,15.47-1.14,24.38,1.04.44.09,1.25.26,1.68.34,1.12-.18,2.35-.7,3.36-1.18,2.06-1.02,4.36-2.13,6.73-1.82,1.12.15,2.38.62,3.36,1.17.74.58,1.69.74,2.52.27,1.34-.54,2.85-1.12,4.2-1.64,1.14-.96,2.71-1.53,4.2-1.32,1.39.16,2.87.66,4.2,1.03,1.05.35,2.41.4,3.36,1.01,2.15,1.28,4.28,2.9,6.73,3.57,3.54.94,7.31.73,10.93.7,4.49.04,8.98-.68,13.45-.87,2.21-.03,4.52.03,6.73.2,1.66.25,3.31,1.2,5.04,1.2,5.65.2,9.92-4.4,15.13-5.85.72-.23,1.76-.48,2.52-.51.75.05,1.81,0,2.52-.28,4.87-1.63,10.14-2.69,14.29,1.17l.84-.02c2.71-2.8,6.17-4.29,10.09-3.9,1.06.12,2.3-.21,3.36-.06,1.99.2,4.03.8,5.89,1.53,3,1.15,5.61,3.23,8.41,4.75,1.56.76,3.25,1.64,5.05,1.48"/><path class="b" d="M11.5,118.43c4.43-.81,8.94-1.57,13.45-1.48,4.5,0,8.99.85,13.45,1.29,3.35.36,6.84.26,10.09-.72,2.79-.91,5.83-1.52,8.41-2.95,2.87-1.19,5.74.75,8.41,1.62.42.14,1.25.39,1.68.5.83.37,1.8,1.14,2.52,1.68,1.76,1.32,3.73,2.65,5.89,3.2,3.56.81,7.31.64,10.93.69,4.49.12,8.99-.23,13.45-.66,3.05-.16,6.19-.29,9.25-.23,1.64.17,3.38.66,5.04.45,2.3-.19,4.58-1.04,6.73-1.83,1.62-.69,3.58-.95,5.04-1.95,3.36-1.81,7.14-3.16,10.93-3.71,1.36-.13,2.9,0,4.2.4.76.22,1.72.81,2.52.91,2.44-1.99,5.19-4.14,8.41-4.56,3.94-.36,7.95.53,11.77,1.41,2.88.71,5.84,1.59,8.41,3.1,2.85,1.54,5.37,3.9,8.41,5.06"/><path class="b" d="M11.5,116.53c4.16-.83,8.37-1.76,12.61-2.01,5.86-.42,11.8-.08,17.66-.56,3.7-.27,7.31-1.43,10.93-2.15,3.34-.95,4.4-1.12,7.57.6,1.84,1.09,3.93,1.93,5.89,2.76,2.07,1.67,4.22,3.53,6.73,4.52,3.73,1.34,7.87.98,11.77,1.14,4.47.09,8.99.26,13.45-.25,4.19-.28,8.42-.72,12.61-.89,3.69.45,7.32-.65,10.93-1.21,1.58-.04,2.89-1.39,4.2-2.12,1.83-1.06,3.9-1.97,5.89-2.67,1.31-.4,2.83-.69,4.2-.71.4,0,1.28.07,1.68.15.51-.06,1.33-.58,1.68-.96,3.14-2.23,7.03-3.8,10.93-3.64,3.36.25,6.79.72,10.09,1.41,10.13,1.9,11.42,1.91,20.18,7.85"/><path class="b" d="M11.5,114.67c3.61-.79,7.27-1.68,10.93-2.2,5.03-.67,10.13-1.16,15.13-2.05,3.64-.59,7.3-1.37,10.93-2,1.9-.25,3.97-.59,5.89-.33,1.15.25,2.38.91,3.36,1.53,2.11,1.45,4.41,2.76,6.73,3.84,2.26,1.91,4.72,3.86,7.57,4.8,3.78,1.17,7.87.82,11.77.98,3.91,0,7.87.49,11.77.17,4.77-.24,9.57-.61,14.29-1.28,2.78-.25,5.65-.37,8.41-.83,1.33-.28,3.01.08,4.2-.54,2.39-1.53,4.91-3.01,7.57-4.03,1.01-.45,2.34-.65,3.36-1.08.7-.68,1.74-1.56,2.52-2.15,2.84-2.15,6.63-2.56,10.09-2.44,3.34.37,6.71,1.11,10.09,1.23,2.22.09,4.53.31,6.73.59,2.79.29,5.69.54,8.41,1.27,3.34.82,6.38,2.66,9.25,4.5"/><path class="b" d="M11.5,112.85c3.61-.85,7.28-1.74,10.93-2.4,3.35-.62,6.8-1.13,10.09-2.03,7.08-1.63,15.92-6.11,22.7-1.6,2.17,1.55,4.37,3.26,6.73,4.51,1.81,1.48,3.78,2.98,5.89,4.02,4.13,2.15,8.93,1.96,13.45,1.95,3.92-.08,7.87.36,11.77.5,3.9-.16,7.88-.2,11.77-.5,3.35-.37,6.73-1.04,10.09-1.37,1.34-.2,2.85-.43,4.2-.51,1.08-.07,2.41.18,3.36-.46,1.06-.55,2.29-1.31,3.36-1.85,1.04-.49,2.36-.89,3.36-1.47.94-1.16,2.1-2.54,3.36-3.36,2.12-1.72,4.96-1.83,7.57-1.73,3.96-.18,7.83,1.11,11.77,1.06,6.15-.2,12.38-.63,18.5.33,3.57.53,6.99,1.95,10.09,3.77"/><path class="b" d="M11.5,111.1c6.4-1.67,13-2.67,19.34-4.54,7.56-2.45,14.08-6.7,21.86-2.04,3.59,2.06,6.59,5.11,10.09,7.32,4.49,2.99,9.86,3.63,15.13,3.36,4.47-.13,9.01-.17,13.45.45,2.21.19,4.52-.02,6.73-.02,2.21-.03,4.52.07,6.73-.04,3.93-.27,7.89-.98,11.77-1.63,1.62-.35,3.4-.33,5.04-.41,1.38-.5,2.83-1.3,4.2-1.81,1.24-.9,2.34-2.36,3.36-3.48,1.95-2.27,4.75-2.86,7.57-1.99,1.89.45,3.95.6,5.89.77,3.38.45,6.75.24,10.09-.4,3.87-.62,7.85-.83,11.77-.8,5.46-.11,11.08.63,15.98,3.18"/><path class="b" d="M11.5,109.44c3.88-.99,7.87-1.8,11.77-2.7,2.51-.66,5.06-1.5,7.57-2.18,7.27-2.39,11.55-6.25,19.34-1.89,3.88,2.17,7.05,5.52,10.93,7.68,4.56,2.62,9.99,3.13,15.13,2.56,4.18-.23,8.44-.42,12.61-.02,3.32.57,6.74.42,10.09.46,3.34.1,6.75.42,10.09.05,2.52-.21,5.12-.35,7.57-1.03,1.61-.4,3.39-.53,5.04-.61.75-.24,1.78-.61,2.52-.88,1.21-.79,2.39-2.08,3.36-3.14,3.56-4.36,5.62-2.8,10.09-1.16,3,.78,6.26.78,9.25-.03,5.41-1.77,11.14-2.33,16.82-2.19,5.66-.23,11.5.05,16.82,2.17"/><path class="b" d="M11.5,107.85c6.46-1.55,13.02-2.88,19.34-4.96,6.84-2.12,10.26-5.7,17.66-1.75,4.72,2.51,8.33,6.93,13.45,8.71,2.94,1.02,6.15,1.41,9.25,1.23,1.94-.14,3.95-.58,5.89-.79,3.33-.41,6.75-.35,10.09-.19,2.22.08,4.5.65,6.73.67,3.92-.07,7.87.24,11.77.55.75.04,1.77.08,2.52.08,1.05.13,2.3.39,3.36.36,1.97-.02,3.99-.58,5.89-1.05,2.49-.73,5.56-.36,7.57-2.26,4.34-4.04,4.83-6.71,10.93-2.83,2.55,1.4,5.73,1.41,8.41.34,1.91-.74,3.89-1.7,5.89-2.21,4.1-1.02,8.42-.91,12.61-.86,5.9-.03,11.93-.29,17.66,1.4"/><path class="b" d="M11.5,106.24c6.16-1.45,12.45-2.53,18.5-4.38,6.68-1.83,10.53-5.85,17.66-2.13,5.25,2.64,9.09,7.99,15.13,9.02,2.74.52,5.65.61,8.41.17,1.33-.25,2.85.12,4.2-.06,3.13-.12,6.15-1.48,9.25-1.65,2.79.16,5.64.54,8.41.86,3.34.09,6.76.07,10.09.46,1.05.13,2.33.19,3.36.45,1.55.71,3.33,1.28,5.04,1.35,2.27.1,4.56-.61,6.73-1.22,1.93-.48,3.98-.92,5.89-1.5,2.15-1.38,3.59-3.9,5.89-5.06,3.8-.77,5.79,3.88,10.09,3.36,2.44-.27,4.55-1.88,6.73-2.88,2.33-1.12,5-1.57,7.57-1.65,3.62-.12,7.31.18,10.93.27,5.03-.2,10.16-.18,15.13.68"/><path class="b" d="M11.5,104.65c2.5-.47,5.06-1.1,7.57-1.57,3.66-.59,7.39-1.17,10.93-2.29,6.51-1.7,10.75-5.98,17.66-2.48,2.03,1.52,3.79,3.58,5.89,5.03,1.24.9,2.79,1.56,4.2,2.12,1.26.71,2.78,1.27,4.2,1.53,2.47.43,5.09.41,7.57.03,1.92.15,3.95.51,5.89.4,4.23-.16,8.37-1.59,12.61-1.65,2.5-.12,5.07.3,7.57.26,2.78.11,5.62.55,8.41.53,1.32.55,2.84,1.03,4.2,1.44,1.55.64,3.36,1.04,5.04.94,4.05-.41,7.87-2.22,11.77-3.25,1.16-.86,2.35-2.11,3.36-3.13.83-.86,2.1-1.78,3.36-1.46,3.71,1.12,5.58,5.32,10.09,3.05,8.1-5.32,10.89-4.5,20.18-3.87,6.15.44,12.35-.24,18.5.31"/><path class="b" d="M11.5,103.1c2.5-.44,5.06-1,7.57-1.38,3.95-.46,7.98-.91,11.77-2.15,4.54-1.08,8.62-4.39,13.45-3.95,1.99.45,3.65,1.99,5.04,3.39,4.91,5.38,6.58,5.25,13.45,6.31,1.93.22,3.97-.22,5.89-.12,2.77.31,5.61.77,8.41.55,3.07-.17,6.18-.79,9.25-.96,2.5-.22,5.08.08,7.57.29,2.78.1,5.68.27,8.41.8,3.3,1.81,7.17,2.84,10.93,2.23,4.41-.65,8.28-3.24,12.61-4.16,1.14-.88,2.32-2.15,3.36-3.15.84-.85,2.16-1.52,3.36-1.05,3.77,1.73,5.47,5.66,10.09,2.48,6.79-4.89,11.6-3.8,19.34-3.08,6.15.51,12.34,0,18.5-.08"/><path class="b" d="M11.5,101.61c2.78-.43,5.61-.99,8.41-1.28,3.37-.26,6.83-.52,10.09-1.47,2.25-.63,4.61-1.33,6.73-2.35,2.35-1.07,4.89-2.62,7.57-2.18,4.41,1.13,6.05,6.38,10.09,8.22,3.12,1.53,6.75.81,10.09.83,3.64-.44,7.3.64,10.93.66,4.76.12,9.54-.72,14.29-.48,1.64.08,3.4.44,5.04.46,1.92.18,4.06.12,5.89.78,3.93,2.57,8.81,4.31,13.45,2.73,4.4-1.25,8.01-4.62,12.61-5.21,2.53-1.83,3.92-5.54,7.57-3.58,3.44,2.62,5.01,4.54,9.25,1.67,6.58-4.08,11.29-3.03,18.5-2.32,6.15.44,12.37.31,18.5-.35"/><path class="b" d="M11.5,100.17c3.06-.42,6.17-.93,9.25-1.16,3.67-.17,7.4-.51,10.93-1.62,2.94-.71,5.76-1.95,8.41-3.39,4.31-2.27,6.49-.87,9.25,2.67,5.67,7.54,9.67,5.11,17.66,4.82,3.35.06,6.73.77,10.09.71,4.47.09,9-.34,13.45.09,2.48.36,5.08.46,7.57.75,1.5.42,2.82,1.7,4.2,2.4,2.76,1.62,6,2.9,9.25,2.41,3.05-.44,5.85-2.06,8.41-3.71,2.29-1.56,4.72-3.22,7.57-3.43,1.58-1.58,3.28-4.59,5.89-3.23,1.03.42,2.25.95,3.36,1.07.41.31,1.23.87,1.68,1.11,1.93,1.14,4.08.02,5.89-.83,6.34-3.16,10.95-2.45,17.66-1.76,6.15.33,12.4.59,18.5-.45"/><path class="b" d="M11.5,98.79c5.29-.77,10.67-1.01,15.97-1.57,2.82-.46,5.66-1.26,8.41-2.05,1.75-.58,3.45-1.63,5.04-2.53,3.19-1.86,5.12-1.76,7.57,1.08,5.53,7.1,8.26,7.21,16.82,6.17,4.75-.46,9.53.53,14.29.38,3.06.06,6.2.06,9.25.28,2.22.16,4.5.58,6.73.68.42.03,1.26.12,1.68.17,1.36.9,2.83,1.98,4.2,2.85,5.72,3.73,9.94,4.61,15.97.86,2.94-1.56,5.42-4.04,8.41-5.48.74-.23,1.77-.57,2.52-.8,1.01-.93,1.99-2.43,3.36-2.84,1.45-.03,2.82.96,4.2,1.27.73.17,1.78.1,2.52.22.67.43,1.72.84,2.52.88,2-.06,3.98-1,5.89-1.54,2.15-.68,4.47-1.14,6.73-1.24,3.64-.17,7.3.49,10.93.61,5.3.07,10.74.51,15.98-.53"/><path class="b" d="M11.5,97.27c5.04-.26,10.11-.76,15.13-1.2,3.39-.44,6.76-1.42,10.09-2.19,1.8-.5,3.49-1.63,5.04-2.63,1.46-.93,3.32-2.09,5.04-1.15,4.38,3.01,5.37,7.42,11.77,8.13,3.9.39,7.86-.34,11.77-.26,5.03.17,10.11.23,15.13.42,3.36.15,6.74.72,10.09.97,1.58.35,2.84,1.86,4.2,2.67,2.58,1.8,5.34,3.66,8.41,4.52,2.91.85,5.9-.45,8.41-1.88,2.6-1.45,5.24-3.08,7.57-4.95,1.43-1.25,3.31-2.1,5.04-2.81.79-.56,1.66-1.62,2.52-2.08,1.09-.37,2.34.32,3.36.67,1.29.49,2.86.44,4.2.19,2.35,1.28,5.11.45,7.57-.04,2.46-.53,5.04-.98,7.57-1.05,5.32-.04,10.65.79,15.97.62,3.34-.18,6.79.3,10.09-.4"/><path class="b" d="M11.5,95.79c5.32-.1,10.69-.39,15.97-1.02,3.11-.43,6.18-1.42,9.25-2.08,1.81-.27,3.59-1.12,5.04-2.21,1.68-1.16,3.71-3.15,5.89-2.05,2.78,1.68,4.55,4.83,7.57,6.22,1.27.65,2.8,1.1,4.2,1.32.72.37,1.72.7,2.52.74,1.38.01,2.82-.54,4.2-.39,3.06-.04,6.19-.2,9.25-.3,3.9.14,7.87.12,11.77.37,2.5.15,5.07.57,7.57.77.92.15,1.8,1.03,2.52,1.56,1.33,1.02,2.83,2.15,4.2,3.11,9.63,6.61,10.34,3.76,19.34-1.04,3.3-1.51,5.92-4.25,9.25-5.7,1.11-.52,1.99-1.97,3.36-1.77,1.35.27,2.81.84,4.2.83.74-.01,1.78-.11,2.52-.21.76-.03,1.77.29,2.52.35,4.48.13,8.96-.96,13.45-.81,5.59.26,11.21.79,16.82.52,2.5-.11,5.07.49,7.57.04"/><path class="b" d="M11.5,94.3c4.46.1,9.01.23,13.45-.25,5.14-.59,10.18-1.93,15.13-3.4,2.95-.85,5.14-5.13,8.41-3.97,1.58.73,2.87,2.23,4.2,3.31,1.47,1.22,3.25,2.27,5.04,2.9,2.69,2.82,4.93,3,8.41,1.56,3.64.29,7.31-.29,10.93-.52,4.19.07,8.43.2,12.61.52,1.64.17,3.43.18,5.04.52,2.22,1.71,4.45,3.61,6.73,5.25,3.33,2.24,7.72,5.72,11.77,3.19,2.19-1.41,4.33-3.14,6.73-4.21,1.62-.76,3.42-1.47,5.04-2.2,1.11-.58,2.29-1.51,3.36-2.15,1.02-.64,2.26-1.38,3.36-1.86.32-.37,1.22-.96,1.68-1.14.75-.13,1.79.03,2.52.19,2.19.43,4.52.11,6.73-.05,5.01.61,10.11-.09,15.13.24,5.3.48,10.66.56,15.97.48,2.21,0,4.49.7,6.73.5"/><path class="b" d="M11.5,93c2.2.25,4.51.34,6.73.26,2.21.13,4.52.26,6.73.08,2.26-.17,4.55-.75,6.73-1.33,2.82-.62,5.7-1.37,8.41-2.38,1.5-.46,3.03-1.35,4.2-2.39,1.19-1.03,2.53-2.42,4.2-2.48,1.62.08,2.98,1.34,4.2,2.27,1.27,1.03,2.88,1.84,4.2,2.78,1.51,2.21,3.77,4.74,6.73,4.26,1.13-.17,2.37-.72,3.36-1.27,1.62-.25,3.41.08,5.04-.16,2.21-.25,4.5-.75,6.73-.83,2.21-.06,4.52.18,6.73.23,2.78.16,5.63.39,8.41.51,1.79,1.03,3.41,2.62,5.04,3.87,3.18,2.39,7.61,6.45,11.77,6.18,2.87-.71,5.01-3.14,7.57-4.5,1.55-.89,3.4-1.47,5.04-2.13,1.63-.78,3.46-1.47,5.04-2.33,1.89-1.18,4-2.22,5.89-3.39,1.03-.29,2.31-.1,3.36-.02,2.78.16,5.63-.17,8.41-.21,5.58.54,11.23.53,16.82,1.08,3.62.14,7.31.13,10.93.16,2.22.21,4.48.95,6.73.94"/><path class="b" d="M11.5,91.96c2.74.51,5.62.62,8.41.47,2.2.26,4.52.39,6.73.12,2.57-.29,5.09-1.19,7.57-1.89,2.25-.54,4.61-1.1,6.73-2.07,1.5-.57,3-1.55,4.2-2.61,1.4-1.24,2.98-3.09,5.04-2.84,2.14.55,4.01,2.12,5.89,3.24,1.16,1.87,2.46,4.04,4.2,5.43,2.57,2.12,5.97.7,8.41-.92,3.97.51,7.83-1.07,11.77-1.21,4.48-.07,8.98.62,13.45.77,4.94,3.38,9.84,9.44,15.97,10.29,2.62-.07,4.72-2,6.73-3.45,2.18-1.77,4.97-2.49,7.57-3.36,1.41-.51,2.81-1.45,4.2-2,1.12-.34,2.31-1.07,3.36-1.56,1.09-.5,2.4-1.06,3.36-1.79,1.28-.52,2.85-.39,4.2-.38,2.78.17,5.64.2,8.41-.16,5.57.66,11.21,1.12,16.82,1.43,3.05.18,6.23-.2,9.25.35,1.05.21,2.32.45,3.36.73.99.48,2.32.64,3.36.25"/><path class="b" d="M11.5,91.04c3.29.81,6.73.75,10.09.73,4.59.64,9.13-.67,13.45-2.08,1.91-.57,3.95-1.12,5.89-1.61,1.1-.49,2.38-1.14,3.36-1.82,1.14-.88,2.29-2.17,3.36-3.13,1.3-1.3,3.27-2.18,5.04-1.3.77.32,1.79.83,2.52,1.23.49.57,1.32,1.86,1.68,2.53,1.92,3.4,4.81,7.41,9.25,5.68,1.44-.46,2.78-1.54,4.2-2.03,3.98.16,7.8-1.54,11.77-1.65,3.92-.19,7.86.68,11.77.84,3.68,2.47,6.23,6.42,10.09,8.67,2.23,1.33,5,1.93,7.57,1.44,2.26-.6,4.04-2.41,5.89-3.74,2.17-1.68,4.98-2.25,7.57-2.99,1.45-.44,2.88-1.33,4.2-2.04,1.02-.5,2.27-1.03,3.36-1.36,1.11-.38,2.52-.67,3.36-1.55,2.04-1.19,4.52-.59,6.73-.41,2.21.19,4.53-.02,6.73-.29,1.63.28,3.4.53,5.04.7,3.34.33,6.74.62,10.09.82,1.92.15,3.99-.15,5.89.28,1.34.26,2.86.44,4.2.7,1.73,1.18,4.13,1.65,5.89.27"/><path class="b" d="M11.5,89.87c4.93,1.16,10.11,1.16,15.13.91,3.45-.38,6.79-1.59,10.09-2.6,6.54-2.21,7-.58,11.77-6.35,1.9-1.99,4.34-2.67,6.73-1.06.46.64,1.29,1.99,1.68,2.68,3.92,7.29,7.1,8.63,14.29,4.12.73-.27,1.76-.25,2.52-.35,1.65-.22,3.41-.62,5.04-.93,2.46-.49,5.05-.85,7.57-.76,2.5.2,5.05.79,7.57.9,2.59,1.63,4.41,4.4,6.73,6.37,3.84,3.6,8.54,5.79,13.45,2.73,2.42-1.74,4.61-4.07,7.57-4.9,1.6-.55,3.43-.75,5.04-1.24,1.12-.37,2.35-1.05,3.36-1.65,1-.56,2.24-1.19,3.36-1.42.75-.09,1.79-.22,2.52-.43.81-.9,2.11-1.74,3.36-1.75,1.65.03,3.39.52,5.04.61,1.64.11,3.42-.06,5.04-.23,1.35-.23,2.86.24,4.2.37,1.63.22,3.41.38,5.04.51,1.92.14,3.96.3,5.89.43,1.36.04,2.88,0,4.2.41,1.34.34,2.91.47,4.2.96,2.62,1.62,5.23,1.64,7.57-.6"/><path class="b" d="M11.5,88.32c6.54,1.48,13.63,2.03,20.18.32,3.14-.8,6.22-2,9.25-3.14,1.89-.65,4.29-.48,5.89-1.8,2.01-2.25,4.01-5.97,7.57-5.31,1.99,1.19,2.86,3.92,4.2,5.72,3.39,5.39,7.57,4.97,12.61,2.12,1.02-.47,2.21-1.19,3.36-1.18,1.64-.18,3.41-.5,5.04-.73,2.76-.36,5.62-.73,8.41-.67,1.66.07,3.41.5,5.04.76,1.37-.03,2.51.98,3.36,1.94.75.78,1.78,1.86,2.52,2.65,2.72,2.8,5.78,6.53,10.09,6.23,2.05-.22,4.27-.82,5.89-2.15,4.77-4.3,6.29-4.9,12.61-5.82,2.4-.51,4.33-2.45,6.73-2.9.75-.05,1.8.08,2.52-.21,2.34-3.3,5.2-1.17,8.41-1.07,1.93.11,3.97-.14,5.89-.3,4.16.64,8.41.95,12.61,1.13,1.39-.03,2.87.32,4.2.67,1.06.28,2.36.46,3.36.91,3.27,2.05,6.64,1.59,9.25-1.26"/><path class="b" d="M11.5,86.51c7.97,2,16.51,2.4,24.38-.24,2.27-.72,4.51-1.81,6.73-2.67,1.65-.41,3.37-1.11,5.04-1.44,1.06-.48,1.79-1.93,2.52-2.78,1-1.27,2.54-2.42,4.2-2.53,1.05.29,1.93,1.52,2.52,2.36,1,1.49,2.13,3.3,3.36,4.6,4.51,4.65,9.4.97,14.29-.61,2.68-.91,5.6-1.04,8.41-1.21,4.17-.11,8.69-.49,12.61,1.14,2.22,1.79,3.95,4.3,5.89,6.37,4.42,5.12,7.88,4.69,13.45,1.59,1.84-1.57,3.65-3.47,5.89-4.48,2.58-1.39,5.64-1.08,8.41-1.74,2.59-.49,4.81-3.3,7.57-2.28.55-.2,1.35-.99,1.68-1.46,2-1.47,4.52.22,6.73.24,2.21.19,4.52-.21,6.73-.24,3.87.68,7.85.88,11.77.98,1.96.2,3.97.86,5.89,1.29,4.07,2.73,7.73,2.08,10.93-1.55"/><path class="b" d="M11.5,84.5c7.65,1.94,15.84,2.75,23.54.64,3.08-1.07,6.19-2.3,9.25-3.42,1.64-.48,3.29-1.54,5.04-1.48,9.38-13.14,6.91,7.36,20.18,2.71,3.5-1.36,7.19-2.33,10.93-2.67,5.03-.71,10.16-.16,15.13.72,3.8,2.28,5.64,6.97,9.25,9.54,3.26,2.42,7.14-.07,10.09-1.82,1.22-.62,2.29-1.89,3.36-2.71.96-.76,2.23-1.5,3.36-1.97,2.63-1.17,5.65-.75,8.41-1.3,1.77-.32,3.43-1.35,5.04-2.07.72-.28,1.78-.19,2.52-.33,2.51-2.77,5.32-.68,8.41-.69,1.93.06,3.96-.23,5.89-.26,3.86.72,7.85.84,11.77,1,1.06.23,2.31.53,3.36.79.8.18,1.88.39,2.52.94,4.44,2.7,7.69.87,10.93-2.54"/><path class="b" d="M11.5,82.33c7.1,1.9,14.56,2.55,21.86,1.61,2.27-.49,4.49-1.53,6.73-2.14,2.56-.72,5.17-1.59,7.57-2.74.42-.17,1.24-.45,1.68-.54.52.06,1.28-.26,1.68-.57,1.09-1.35,2.41-3.08,4.2-3.46,4.04.66,4.9,7.42,12.61,6.43,1.97-.29,3.95-1.04,5.89-1.47,2.45-.57,5.05-.86,7.57-.99,2.21-.12,4.52-.25,6.73-.32,2.22.24,4.52.69,6.73,1,.41.06,1.27.18,1.68.24,1.25.86,2.34,2.34,3.36,3.45,5.15,5.53,6.65,9.85,14.29,4.1,6.37-4.31,6.82-6.06,15.13-6.12,1.38-.1,2.92-.35,4.2-.88,1.3-.55,2.74-1.41,4.2-1.28,3.02-2.41,5.06-.99,8.41-.83,1.93.1,3.96-.24,5.89-.18,3.86.73,7.85.92,11.77,1.04,1.35.31,2.86.69,4.2,1.03.74.44,1.74,1.08,2.52,1.43,4.44,1.84,7.02-.75,10.09-3.54"/><path class="b" d="M11.5,80.06c4.94,1.21,10.05,1.86,15.13,2,2.49.03,5.1.31,7.57-.06,3.58-1.19,7.31-2.05,10.93-3.08,2.17-.8,4.32-2.41,6.73-2.18,5.83-7.58,6.47-.32,12.61,1.29,3.91,1.07,7.88-.61,11.77-.98,4.44-.59,8.98-.46,13.45-.59,1.37.14,2.85.55,4.2.77,1.06.2,2.37.25,3.36.72,2.63,3.02,5.2,6.26,8.41,8.7,3.95,3.19,7.85-1.7,10.93-3.89,2.2-1.7,4.84-3.06,7.57-3.65,2.75-.5,5.65-.3,8.41-.75,1.71-.24,3.35-1.22,5.04-1.48.84-.05,1.74-.75,2.52-1.01,1.87-.7,3.96.06,5.89.09,2.21.18,4.54-.4,6.73.04,3.87.73,7.85.88,11.77,1.06.74.18,1.78.44,2.52.63,1.05.58,2.23,1.45,3.36,1.87,4.48,1.66,6.9-1.19,10.09-3.74"/><path class="b" d="M11.5,77.62c4.42.93,8.95,1.5,13.45,1.86,3.05.27,6.18.63,9.25.64,1.39-.11,2.85-.73,4.2-1.02,2.2-.54,4.53-.93,6.73-1.47,2.5-.8,4.89-2.48,7.57-2.6,3.16-1.79,3.38-4.58,7.57-1.82,5.53,3.95,10.61,2.43,16.82,1.91,4.45-.45,8.98-.33,13.45-.25,2.24.1,4.52.79,6.73,1.17,3.61,3.9,9.06,13.3,15.13,8.29,3.39-2.81,6.43-6.54,10.93-7.53,1.62-.46,3.4-.2,5.04-.21,2.2-.25,4.55-.11,6.73-.58,1.05-.27,2.28-.71,3.36-.82.8-.16,1.75-.73,2.52-.98,1.6-.49,3.41-.08,5.04-.04,1.92.09,3.96-.05,5.89-.12,1.34.25,2.85.51,4.2.7,2.2.31,4.51.54,6.73.63,1.05.08,2.34-.08,3.36.22,3.04,1.81,5.52,3.72,9.25,2.22,1.85-.84,3.33-2.54,5.04-3.61"/><path class="b" d="M11.5,75.1c4.16.73,8.42,1.21,12.61,1.72,3.89.52,7.84,1.18,11.77,1.23,3.02-.82,6.2-1.2,9.25-1.85,1.65-.56,3.42-1.21,5.04-1.82,1.31-.47,2.79-1.09,4.2-1.06,4.8-4.68,5.63-1.73,10.93-.44,3,.76,6.19.57,9.25.48,7.55-.37,15.3-1.05,22.7.81,3.36,3.65,6.81,10.47,12.61,9.67,2.44-.66,4.16-2.91,5.89-4.62,1.87-1.99,4.09-3.93,6.73-4.79,1.86-.63,3.99-.68,5.89-.17,1.92,0,3.96-.22,5.89-.06,1.94-.05,3.99-.47,5.89-.85,1.22-.77,2.77-1.1,4.2-.99,2.78.13,5.63.07,8.41,0,4.15.75,8.39,1.41,12.61,1.56,1.83.21,3.3,1.78,5.04,2.31,4.65,1.53,6.62-1.3,10.09-3.55"/><path class="b" d="M11.5,72.64c3.91.47,7.88.9,11.77,1.51,4.44.76,8.93,1.68,13.45,1.82,1.94-.07,3.95-.65,5.89-.84,2.57-.32,5.09-1.28,7.57-2,1.36-.4,2.85-.91,4.2-1.32.84-.15,1.91-.4,2.52-1.04.97-.67,2.13-1.44,3.36-1.38,2.26.15,4.48,1.05,6.73,1.33,3.59.53,7.3.58,10.93.53,4.19-.17,8.43-.27,12.61-.05,1.65.21,3.39.65,5.04.85,2,0,3,2.21,4.2,3.48,2.79,3.48,6.86,8.48,11.77,5.66,3.4-2.48,5.48-6.62,9.25-8.65,2.53-1.39,5.7-1.67,8.41-.66,1.64-.13,3.42-.19,5.04.11,1.63.29,3.41.18,5.04.01.82.08,1.86-.34,2.52-.81.99-.41,2.3-.52,3.36-.53,2.78,0,5.63.02,8.41,0,2.22.23,4.51.75,6.73,1.03,1.63.25,3.41.39,5.04.62,2.67,1.08,5.43,2.77,8.41,2.5,2.67-.17,4.51-2.44,6.73-3.65"/><path class="b" d="M11.5,70.2c3.93.27,7.91.68,11.77,1.45,5.24,1.08,10.58,2.46,15.97,2.24,3.7-.24,7.35-1.25,10.93-2.13,2.52-.6,5.13-1.27,7.57-2.14.72-.45,1.73-1.04,2.52-1.34,2.18-.56,4.53,0,6.73.2,3.05.34,6.18.57,9.25.75,4.18.14,8.43-.09,12.61.03,2.51.25,5.04,1.05,7.57,1.3,4.27,3.58,8.46,12.31,15.13,8.58,2.91-2.23,4.74-5.7,7.57-8.03,2.99-2.52,7.32-2.93,10.93-1.68,3.13-.53,6.13,1.15,9.25,1,1.1,0,2.38-.42,3.36-.91,1.01-.37,2.29-.52,3.36-.56,3.06-.09,6.19.03,9.25.08,3.06.44,6.17,1.05,9.25,1.41,3.67,1.43,7.83,3.64,11.77,1.93,1.43-.72,2.76-1.99,4.2-2.7"/><path class="b" d="M11.5,67.79c3.93.13,7.93.46,11.77,1.35,5.5,1.32,11.09,3.02,16.82,2.7,3.1-.18,6.21-.86,9.25-1.47,2.2-.47,4.53-.76,6.73-1.28,1.08-.29,2.32-.72,3.36-1.12,1.26-.72,2.74-1.29,4.2-1.32,6.17-.41,12.33.78,18.5.73,2.21.05,4.52,0,6.73.1,2.21.47,4.49,1.06,6.73,1.4.55.14,1.34.85,1.68,1.29,1.05,1.14,2.28,2.53,3.36,3.64,3.14,3.38,7.85,6.47,11.77,2.35,3.06-2.96,5.09-7.42,9.25-9.03,2.39-.75,5.1-.95,7.57-.52,1.3.5,2.87.17,4.2.49,1.96.42,3.88,1.46,5.89,1.68,2.26-.25,4.48-1.15,6.73-1.45,3.89-.27,7.89-.07,11.77.26,1.92.32,3.96.66,5.89.95,2.75.9,5.5,2.16,8.41,2.5,1.36.19,2.92,0,4.2-.49,1.42-.65,2.76-1.85,4.2-2.47"/><path class="b" d="M11.5,65.47c3.93.16,7.93.27,11.77,1.19,3.93.87,7.76,2.38,11.77,2.88,5.64.96,11.26-.51,16.82-1.34,2.21-.27,4.56-.3,6.73-.85,1.39-.42,2.86-1.09,4.2-1.63,1.03-.3,2.3-.39,3.36-.51,6.15-.81,12.34.36,18.5.45,1.35.09,2.88-.13,4.2.16,2.19.6,4.58.94,6.73,1.67,4.19,4.27,10.85,12.87,16.82,6.33,2.95-3.02,4.96-7.62,9.25-8.97,1.32-.36,2.85-.45,4.2-.55,1.34-.1,2.87-.23,4.2,0,1.32.35,2.89.09,4.2.57,1.7.4,3.27,1.86,5.04,1.8,2.83.01,5.63-.82,8.41-1.17,3.34-.22,6.75.13,10.09.32,1.94.14,3.97.55,5.89.89,3.49,1.19,7.18,2.73,10.93,2.3,2.18-.22,3.89-1.93,5.89-2.65"/><path class="b" d="M11.5,62.75c3.81,1.19,7.89.79,11.77,1.59,4.28.72,8.32,2.6,12.61,3.21,3.33.5,6.78.25,10.09-.31,3.04-.52,6.14-1.25,9.25-1.12,1.93-.02,4.04.15,5.89-.5,1.07-.38,2.27-1.01,3.36-1.31,1.33-.29,2.86-.36,4.2-.56,5.85-1.09,11.78.23,17.66.24,1.4-.15,2.87.23,4.2.61,1.35.39,2.96.55,4.2,1.21,4.8,4.66,11,12.41,17.66,5.76,4.03-4.48,5.61-9.4,12.61-9.14,3.06-.21,6.23-.71,9.25.05,1.12.3,2.29,1.06,3.36,1.48.73.16,1.77.31,2.52.38,1.92.17,3.97.03,5.89-.11,1.03-.26,2.3-.45,3.36-.5,2.78-.12,5.64.18,8.41.39,1.93.17,4.01.32,5.89.83,3.78,1.09,7.79,2.75,11.77,1.9,1.76-.42,3.28-1.79,5.04-2.23"/><path class="b" d="M11.5,59.68c2.58.44,5.1,1.44,7.57,2.27,2.78.32,5.67.55,8.41,1.17,2.54.54,5.05,1.5,7.57,2.14,2.45.57,5.07.7,7.57.48,3.39-.25,6.71-1.36,10.09-1.71,2.79-.2,5.62.46,8.41.47,1.77-.03,3.39-1.11,5.04-1.59,2.49-.32,5.08-.6,7.57-.93,4.19-.47,8.42.45,12.61.37,1.4-.17,2.87.24,4.2.61,1.09.32,2.5.39,3.36,1.22,5.68,5.19,10.92,11.62,18.5,5,3.01-2.81,4.85-7.54,9.25-8.47,1.9-.37,3.97-.18,5.89-.37,2.2-.24,4.52-.7,6.73-.22,4.05,1.34,8.31,2.4,12.61,2.25,1.06,0,2.3-.35,3.36-.39,1.92-.11,3.97.04,5.89.2,2.78.31,5.71.37,8.41,1.15,3.8.93,7.88,2.48,11.77,1.24,1.34-.56,2.74-1.47,4.2-1.72"/><path class="b" d="M11.5,56.9c3.82.41,7.43,2.03,10.93,3.52,2.17.54,4.53.67,6.73,1.11,2.56.38,5.06,1.32,7.57,1.93,2.74.58,5.66.54,8.41.02,2.8-.47,5.56-1.56,8.41-1.74,3.12-.17,6.18.9,9.25,1.21,1.74.1,3.4-.84,5.04-1.24,1.87-.56,3.96-.54,5.89-.85,4.45-.7,8.98.03,13.45-.12,1.38-.12,2.86.53,4.2.79,2.23,1.06,3.98,3.1,5.89,4.62,5.21,4.53,9.91,5.07,15.13.21,6.01-5.04,5.04-8.48,14.29-7.93,2.51,0,5.06-.75,7.57-.62,4.57.33,8.84,2.59,13.45,2.63,1.93.08,3.94-.47,5.89-.29,3.92.25,7.93.58,11.77,1.43,3.55.74,7.32,1.99,10.93.97,1.34-.5,2.76-1.33,4.2-1.5"/><path class="b" d="M11.5,54.38c5.09.12,9.73,2.59,14.29,4.58,2.17.6,4.53.8,6.73,1.29,1.96.34,3.94,1.04,5.89,1.43,3.06.6,6.28.25,9.25-.65,2.45-.71,4.98-1.64,7.57-1.55,1.97.06,4,.52,5.89,1.08,1.6.44,3.36,1.04,5.04.78,3.86-.92,7.79-1.85,11.77-2.02,2.21-.14,4.52-.04,6.73-.05,1.35.06,2.88-.23,4.2.06,3.27.89,5.72,3.58,8.41,5.5,6.84,5.06,11.33,2.54,16.82-2.78,1.03-.95,2.3-2.03,3.36-2.94,1.48-1.65,3.64-2.8,5.89-2.74,1.92,0,3.97.18,5.89-.02,3.61-.41,7.38-1.12,10.93.02,2.75.81,5.51,2.01,8.41,2.16,1.64.19,3.4-.24,5.04-.2,4.21.12,8.47.69,12.61,1.44,3.29.58,6.75,1.59,10.09.84,1.36-.39,2.78-1.18,4.2-1.32"/><path class="b" d="M11.5,52.07c6.34-.38,12.13,2.74,17.66,5.43,3.35.73,6.76,1.45,10.09,2.27,7.22,1.75,11.68-3.26,18.5-2.32,3.18.29,6.09,2.03,9.25,2.38,1.96,0,3.95-.73,5.89-.99,3.03-.54,6.17-.88,9.25-.94,5.68-.32,8.05.1,12.61,3.66,5.97,4.58,10.97,5.3,16.82.04,2.48-2.07,4.69-4.72,7.57-6.28,2.57-1.41,5.61-.96,8.41-.86,3.08.04,6.18-.63,9.25-.71,4.75-.56,8.76,2.97,13.45,2.92,1.64.09,3.4-.32,5.04-.18,4.21.22,8.45.87,12.61,1.53,2.75.44,5.62,1.1,8.41.68,1.39-.21,2.81-.97,4.2-1.16"/><path class="b" d="M11.5,49.98c5.2-.62,10.56.35,15.13,2.92,1.65.86,3.38,1.88,5.04,2.72,1.36.37,2.86.81,4.2,1.22,3,.75,6.12,1.76,9.25,1.35,2.3-.31,4.53-1.3,6.73-2,2.14-.69,4.49-1.03,6.73-.83,3.53.15,6.63,2.34,10.09,2.73,5.22-1.21,10.62-1.75,15.97-1.41,5.06.03,6.83,1.2,10.93,3.86,5.28,3.38,10.37,3.33,15.13-.91,2.72-2.26,5.06-5.35,8.41-6.73,3.53-1.28,7.32.33,10.93-.29,1.62-.33,3.41-.4,5.04-.61,1.91-.21,3.97-.44,5.89-.17,2.34.4,4.46,1.79,6.73,2.44,1.31.38,2.85.42,4.2.53,1.03-.21,2.31-.3,3.36-.28,2.5.05,5.08.38,7.57.69,3.64.4,7.29,1.11,10.93,1.5,2.26.31,4.58-.22,6.73-.89"/><path class="b" d="M11.5,48.25c5.36-.59,11.1-.51,15.97,2.06,2.55,1.16,4.89,3.02,7.57,3.87,4.02,1.32,8.34,3.14,12.61,1.88,6.18-2.06,11.24-4.12,17.66-1.31.75.28,1.77.67,2.52.93,1.36.19,2.85-.4,4.2-.55,4.15-.75,8.45-.64,12.61-.05,2.54.34,5.28.53,7.57,1.81,9.21,5.37,13.31,5.35,21.02-2.31,5.61-5.37,7.34-3.99,14.29-3.34,1.38.05,2.91-.23,4.2-.73,2.8-.03,5.61-.87,8.41-.87,3.35-.09,6.05,2.35,9.25,2.91.74.1,1.78.2,2.52.29.73-.13,1.78-.3,2.52-.34,1.64-.08,3.42.06,5.04.22,3.65.25,7.32.75,10.93,1.34,3.31.49,6.82,1.13,10.09.13"/><path class="b" d="M11.5,46.87c2.77-.2,5.63-.01,8.41.03,2.51.08,5.18-.06,7.57.83,3.51,1.3,6.54,3.8,10.09,4.97,3.45,1.34,7.22,2.72,10.93,1.62,6.2-1.96,12.13-4.35,18.5-1.45,1.66,0,3.4-.55,5.04-.73,2.19-.32,4.52-.45,6.73-.24,4.26.54,8.53,1.61,12.61,2.92,5.8,2.61,10.88,5.73,16.82,1.36,3.76-2.35,7.07-7.27,11.77-7.33,2.24,0,4.51.68,6.73.87,1.68.17,3.52-.12,5.04-.88,1.04-.17,2.32-.14,3.36-.34,3.3-.72,5.93-1.5,9.25-.08,1.88.85,3.79,2.04,5.89,2.28.39.07,1.28.19,1.68.24,1.01-.33,2.3-.48,3.36-.49,3.34.13,6.77.18,10.09.67,5.01.58,10.07,2.06,15.13,1.48"/><path class="b" d="M11.5,45.45c3.07-.12,6.18.45,9.25.59,2.77.18,5.65-.08,8.41.32,3.67.74,6.58,3.5,10.09,4.69,3.15,1.38,6.65,2.53,10.09,1.52,4.92-1.31,9.94-3.61,15.13-2.84,1.36.22,2.86-.4,4.2-.58,2.18-.43,4.49-.78,6.73-.75,5.91.11,11.37,2.86,16.82,4.86,4.18,1.81,9.01,4.09,13.45,1.77,4.28-1.91,7.38-5.94,11.77-7.59,3.62-.86,7.28.97,10.93.7,1.11-.07,2.39-.48,3.36-1.02.73-.17,1.78-.15,2.52-.24,2.25-.25,4.43-1.47,6.73-1.4,3.35.15,6.02,2.69,9.25,3.29,1.35.48,2.83-.39,4.2-.38,2.21-.03,4.52.02,6.73.06,3.64.38,7.3,1.06,10.93,1.47,2.76.38,5.61.87,8.41.75"/><path class="b" d="M11.5,43.93c3.66-.08,7.29.91,10.93,1.12,3.33.33,6.81-.29,10.09.52,5.36,1.56,10.08,6.25,15.97,5.53,3.48-.46,6.77-1.93,10.09-2.96,5.01-1.15,9.97-2.97,15.13-3.24,7.01-.27,13.07,3.88,19.34,6.41,3.11,1.46,6.61,2.81,10.09,2.03,4.77-1.1,8.32-4.89,12.61-7.02,3.98-1.92,8.44.46,12.61.06,1.12-.08,2.39-.5,3.36-1.06.73-.16,1.78-.18,2.52-.32,1.69-.31,3.38-1.11,5.04-1.52,3.73-.92,6.78,2.14,10.09,3.26.37.15,1.27.33,1.68.34.69-.34,1.75-.63,2.52-.72,1.04-.12,2.31-.12,3.36-.07.73-.12,1.78-.18,2.52-.13,3.08.26,6.17,1.07,9.25,1.36,3.91.3,7.86.84,11.77,1.06"/><path class="b" d="M11.5,42.3c3.95-.19,7.86.96,11.77,1.3,3.61.49,7.37-.02,10.93.79,2.33.59,4.6,1.66,6.73,2.77,2.33,1.22,4.86,2.47,7.57,2.22,3.28-.36,6.24-2.13,9.25-3.36,4.63-1.71,9.36-3.61,14.29-4.21,10.81-1.3,18.98,8.52,29.43,9.03,4.75-.13,8.42-3.68,12.61-5.47,1.78-.97,3.83-1.68,5.89-1.42,3.6.17,7.42,1.32,10.93.09.42-.19,1.29-.64,1.68-.9.75-.08,1.8-.29,2.52-.51,1.63-.49,3.33-1.33,5.04-1.5,3.88-.27,6.55,3.32,10.09,4.29,1.96-1.36,4.49-1.07,6.73-1.47,3.12-.07,6.17,1.13,9.25,1.5,2.76.41,5.63.44,8.41.53,1.92.2,3.95.52,5.89.55"/><path class="b" d="M11.5,40.62c3.93-.45,7.88.59,11.77,1.05,3.89.59,7.9.59,11.77,1.32,1.97.48,4.02,1.18,5.89,1.98,2.3,1.34,4.82,2.72,7.57,2.65,3.36-.2,6.29-2.28,9.25-3.68,4.29-1.96,8.75-3.97,13.45-4.66,11.81-1.82,19.62,8.4,30.27,8.26,2.63-.15,5.16-1.25,7.57-2.24,2.73-1.05,5.59-2.04,8.41-2.82,2.49-.24,5.07.24,7.57.3,2.23.11,4.69.35,6.73-.75.43-.24,1.29-.8,1.68-1.11.7-.35,1.78-.63,2.52-.9,1.58-.57,3.33-1.29,5.04-1.1,3.33.47,5.44,3.59,8.41,4.88,1.22-.81,2.73-1.43,4.2-1.52.73-.25,1.74-.53,2.52-.55,3.15.07,6.14,1.54,9.25,1.95,2.75.46,5.63.43,8.41.36,2.21.19,4.49.73,6.73.7"/><path class="b" d="M11.5,39.01c3.89-.75,7.9.11,11.77.6,4.47.66,9.06,1.03,13.45,2.12,1.66.48,3.45,1.04,5.04,1.7,2.25,1.41,4.87,2.49,7.57,2.39,3.08-.25,5.74-2.28,8.41-3.66,3.98-2.05,8.17-4.06,12.61-4.85,13.93-2.75,21.05,9.07,33.63,6.79,2.22-.42,4.5-1.06,6.73-1.43,2.25-.31,4.52-1.01,6.73-1.55,2.77-.13,5.63.12,8.41.02,2.27.05,4.8.15,6.73-1.25,1.06-.69,2.09-1.95,3.36-2.26,1.83-.7,3.97-1.41,5.89-.61,2.64,1.12,4.34,3.78,6.73,5.29,1.6-.96,3.35-1.95,5.04-2.72,1.97-.59,4.05.28,5.89.95,1.59.6,3.36,1.11,5.04,1.4,2.75.5,5.63.44,8.41.29,2.5.28,5.03,1.01,7.57.96"/><path class="b" d="M11.5,37.47c3.83-1.05,7.9-.41,11.77.06,4.79.63,9.62,1.42,14.29,2.68,2.32.62,4.64,1.46,6.73,2.66,2.07.95,4.47,1.26,6.73,1.07,2.73-.7,5.12-2.45,7.57-3.76,3.71-1.97,7.61-3.87,11.77-4.62,6.45-1.26,10.94-.44,16.82,2.34,6.95,3.06,11.71,4.26,19.34,3.27,3.37-.24,6.85-.08,10.09-1.19,1.34-.2,2.86-.04,4.2-.14,1.92-.13,3.95-.44,5.89-.45,2.36.08,4.94-.19,6.73-1.9.73-.66,1.72-1.63,2.52-2.21,1.29-.48,2.81-.99,4.2-.79,3.39.75,5.12,4.33,7.57,6.47,1.28-.74,2.13-2.38,3.36-3.21,2.07-1.65,4.69-.45,6.73.62,1.56.77,3.33,1.43,5.04,1.76,3.02.59,6.19.56,9.25.32,2.77.42,5.57,1.31,8.41,1.27"/><path class="b" d="M11.5,36.01c6.78-2.35,19.13.47,26.06,2.43,1.65.53,3.49.96,5.04,1.72,2.25,1.37,4.94,2.08,7.57,2.01,2.81.2,5.23-1.46,7.57-2.79,3.22-1.8,6.55-3.62,10.09-4.71,4.04-1.11,8.44-2.18,12.61-1.2,3.43.95,6.65,2.72,10.09,3.66,2.72.8,5.58,1.4,8.41,1.62,3.05.23,6.2.09,9.25.4,1.92.19,3.97.4,5.89.09,1.61-.41,3.41-.25,5.04-.41,1.66-.17,3.4-.68,5.04-.95,1.62-.29,3.41-.23,5.04-.38,2.87-.2,4.74-2.7,6.73-4.47,5.47-2.72,6.98,2.65,10.09,5.72l.84-.3c4-7.3,6.4-3.3,11.77-.7,1.82.8,3.91,1.12,5.89,1.19,2.54.23,5.09-.23,7.57-.15,2.73.68,5.58,1.4,8.41,1.42"/><path class="b" d="M11.5,34.64c3.72-1.48,7.84-1.47,11.77-1.08,5.16.41,10.22,1.72,15.13,3.33,1.06.34,2.31.74,3.36,1.09,1.35.61,2.76,1.49,4.2,1.86,2.72.78,5.66.59,8.41.08,1.4-.58,2.88-1.42,4.2-2.15,3.75-2.07,7.6-4.16,11.77-5.25,2.43-.65,5.03-1.35,7.57-1.12,3.29.39,6.06,2.62,9.25,3.39,6.84,2.05,14.09,1.01,21.02,2.4,1.33.26,2.84.51,4.2.55,1.86.61,3.98.53,5.89.2,1.96-.41,3.91-1.32,5.89-1.7,1.91-.39,4.03-.21,5.89-.84,2.46-.81,3.81-3.39,5.89-4.74,4.66-2.18,5.49,3.86,8.41,5.78,1.21-.64,1.66-2.63,2.52-3.63,3.06-3.68,6.43,1.73,9.25,3.1,1.99,1.21,4.41,1.72,6.73,1.68,2.78-.06,5.65-.22,8.41-.61,3.03.69,6.12,1.61,9.25,1.63"/><path class="b" d="M11.5,33.33c3.96-1.69,8.37-1.95,12.61-1.55,4.9.32,9.68,1.63,14.29,3.26,2.01.62,4.06,1.39,5.89,2.43,3.69,1.71,7.93,1.3,11.77.38,4.6-1.79,8.69-4.9,13.45-6.37,2.92-.95,6.21-2.21,9.25-1.05,4.94,2.59,6.52,4.33,12.61,4.09,6.71.21,14.11-1.78,20.18,1.96,3.56,2.29,7.46,0,10.93-1.26,2.47-.83,5.37-.57,7.57-2.14,1.56-1.07,2.8-2.81,4.2-4.06,1.27-.76,3.08-1.14,4.2.07,1.62,1.65,2.22,4.45,4.2,5.76,3.82-10.88,5.68-4.3,11.77-.16,2.21,1.43,4.96,1.95,7.57,1.76,2.21-.17,4.52-.48,6.73-.7,1.05-.12,2.3-.46,3.36-.36,2.72.75,5.57,1.44,8.41,1.53"/><path class="b" d="M11.5,32.02c6.9-2.92,14.76-2.39,21.86-.48,2.82.8,5.65,1.85,8.41,2.82,1.05.55,2.25,1.29,3.36,1.72,4.6,1.89,9.74.63,14.29-.79,4.5-2.18,13.64-8.15,18.5-5.99,2.76,1.45,5.14,4.12,8.41,4.39,1.96-1.31,4.51-1.94,6.73-.89.96.7,2.28.21,3.36.12,3.85-.33,8.02-1.62,11.77-.24,1.77.83,3.3,2.34,5.04,3.22,3.44,1.35,6.83-1.29,10.09-2.11,3.73-.88,5.89-3.16,8.41-5.84,1.23-.69,2.72-1.72,4.2-1.3,2.28,1.34,3.14,4.5,4.2,6.77,1.7-1.97,1.59-5.89,4.2-7.04,1.78.29,2.9,2.25,4.2,3.35,1.69,1.7,3.65,3.38,5.89,4.31,3.44,1.51,7.32,1.13,10.93.57,1.93-.24,3.98-.4,5.89-.76,1.38-.4,2.86.2,4.2.49,1.62.37,3.39.68,5.04.77"/><path class="b" d="M11.5,30.7c5.86-2.36,12.32-2.87,18.5-1.6,3.75.54,7.39,1.84,10.93,3.13,1.45.47,2.79,1.58,4.2,2.13,4.54,2.16,9.71.9,14.29-.47,3.29-.85,6.1-3.04,9.25-4.27,2.36-.96,4.95-2.23,7.57-1.77,2.58.67,4.37,3.02,6.73,4.15.55-.08,1.33-.67,1.68-1.08.97-.9,2.16-1.93,3.36-2.5,2.18-.98,4.75-.27,6.73.87,1.12.56,2.15,1.73,3.36,2.08,2.2-.41,4.5-.85,6.73-1.07,1.06-.17,2.3-.49,3.36-.18,3.72,1.23,5.6,5.31,10.09,3.78,2.4-.68,4.79-1.83,6.73-3.4,1.11-.89,2.22-2.2,3.36-3.05,1.06-.56,2.29-1.33,3.36-1.87,3.87-2.24,5.03,3.11,6.73,5.43,1.34-1.9,1.63-4.96,3.36-6.61l.84-.21c2.06.97,3.21,3.4,5.05,4.71,5.1,4.41,11.24,4.93,17.66,3.95,1.34-.16,2.86-.2,4.2-.37,1.35-.15,2.84-.53,4.2-.51,2.18.52,4.48,1.01,6.73,1.17"/><path class="b" d="M11.5,29.36c4.6-1.55,9.4-2.74,14.29-2.38,5.47.39,10.9,1.76,15.97,3.81,1.34.74,2.79,1.64,4.2,2.23,3.98,1.87,8.55,1.06,12.61-.11,5.65-1.18,10.25-5.34,15.97-6.25,2.69-.28,4.7,1.97,6.73,3.37l.84-.24c1.76-1.8,3.36-4.3,5.89-5.05,2.84-.56,5.88.35,8.41,1.63,1.15.62,2.39,1.55,3.36,2.42.62.73,1.55,1.3,2.52.92.75-.14,1.78-.29,2.52-.48,1.01-.5,2.25-1.05,3.36-1.26,3.61-.56,6.46,3.14,10.09,2.44,2.57-.49,4.65-2.38,6.73-3.84,1.08-.41,2.33-.98,3.36-1.5,4.16-2.45,5.72-.25,7.57,3.41.75-1.08,1.68-2.62,2.52-3.62.3-.68,1.07-2.03,1.68-2.47l.84-.09c1.97,1.12,3.17,3.44,5.04,4.71,5.61,3.93,12.7,4.52,19.34,3.89,2.79-.03,5.64-.26,8.41-.68,2.22.04,4.49.85,6.73.91"/><path class="b" d="M11.5,28c2.5-.62,5.03-1.5,7.57-1.95,2.46-.45,5.07-.6,7.57-.54,4.88.28,9.69,1.6,14.29,3.17,1.99.84,3.89,2.16,5.89,3,3.98,1.88,8.55,1.09,12.61-.09,5.06-1.18,9.31-4.53,14.29-5.93,2.56-.81,4.84.98,6.73,2.48,3.76-3.01,4.05-7,10.09-5.79,3.45.52,7.2.77,10.09,2.93,1.35.89,2.56,2.54,4.2,2.86,7.57-3.98,7.63-1.19,14.29-2.06,2.5-.67,5.06-1.46,7.57-2.13,2.75-.97,5.18.07,6.73,2.47,1.42-2.06,3.05-4.24,5.04-5.77l.84-.03c1.9,1.05,3.17,3.17,5.04,4.28,3.56,2.03,7.74,2.96,11.77,3.51,3.61.45,7.31.26,10.93.41,2.79.22,5.63-.34,8.41-.4,1.63.39,3.56.25,5.04,1.1"/><path class="b" d="M11.5,26.64c2.51-.5,5.05-1.3,7.57-1.79,2.18-.45,4.51-.6,6.73-.73,5.46-.13,10.87,1.45,15.97,3.26,4,1.98,7.9,4.75,12.61,4.15,2.85-.25,5.72-1,8.41-1.97,2.8-1.26,5.61-2.71,8.41-3.98,3.29-1.59,5.37-1.98,8.41.45l.84-.23c4.76-5.95,4.26-6.06,11.77-4.57,2.2.28,4.53.15,6.73.42,2.32.37,4.63,1.28,6.73,2.3,3.35,1.71,2.21,1.86,5.89.73,3.56-.66,7.33-.9,10.93-.51,2.52-.35,5.37-.93,7.57.75.98-.41,1.78-1.63,2.52-2.35,1.22-1.23,2.63-2.58,4.2-3.35.92-.14,1.87.53,2.52,1.1.99.88,2.19,1.9,3.36,2.52,7.39,3.15,15.66,3.09,23.54,3.81,2.48.36,5.07.22,7.57.1,1.65-.14,3.42-.05,5.04.28.4.26,1.26.74,1.68.96"/><path class="b" d="M11.5,25.29c5.82-1.15,11.67-2.75,17.66-2.45,4.59.33,9.15,1.66,13.45,3.22,3.94,2.04,7.94,4.83,12.61,4.27,5.76-.32,10.87-3.25,15.97-5.66,3.11-1.54,5.27-2.57,8.41-.3,2.11-1.81,3.49-5.63,6.73-5.44,2.26.29,4.44,1.42,6.73,1.61,2.78.35,5.63-.24,8.41-.36,4.01.26,8.01,1.24,11.77,2.61.75.26,1.7.78,2.52.59,1.35-.1,2.86-.07,4.2.12,1.4.16,2.86.76,4.2,1.14.92.19,1.86-.55,2.52-1.09,1.85-1.45,3.88-2.88,5.89-4.11,1.33-.92,2.57-1.82,4.2-.93,1.87,1.09,3.71,2.54,5.89,2.97,3.86.81,7.85,1.27,11.77,1.68,2.78.27,5.64.48,8.41.81,2.22.24,4.5.78,6.73.88,2.49.1,5.08.01,7.57.08,1.23-.06,2.32,1.01,3.36,1.52"/><path class="b" d="M11.5,23.9c3.93-.53,7.84-1.47,11.77-1.96,4.78-.56,9.68-.45,14.29,1.01,10.4,1.88,11.38,8.78,23.54,5.29,3.46-1.17,6.77-2.92,10.09-4.43,2.83-1.37,5.32-3.13,8.41-1.19,1.61-1.61,2.84-4.06,5.04-4.92,2.07-.35,4.02.94,5.89,1.64,2.11.83,4.46,1.29,6.73,1.14,2.56-.08,5.05-1.1,7.57-1.45,5.88.18,11.77,1.23,17.66,1.16,2.89-.13,5.73-1.11,8.41-2.12,2.94-1.61,5.62.34,8.41,1.22,2.16.56,4.51.56,6.73.75,5.04.37,10.11.85,15.13,1.3,2.52.3,5.06.99,7.57,1.32,2.76.31,5.63.3,8.41.47,1.26,0,2.28,1.27,3.36,1.81"/><path class="b" d="M11.5,22.19c2.77-.33,5.63-.6,8.41-.85,2.49-.32,5.05-.78,7.57-.81,2.79-.03,5.68-.03,8.41.62,1.93.39,4.01.59,5.89,1.23,7.69,3.31,9.74,7.5,19.34,4.86,3.72-1.31,7.29-3.17,10.93-4.68,2.35-1.11,4.91-2.98,7.57-1.69,4.24-3.89,3.97-6.28,10.09-2.69,4.45,2.6,9.44,3.78,14.29,1.51,1.34-.54,2.82-1.18,4.2-1.59,1.06.06,2.31.16,3.36.21,6.75.39,13.52-.19,20.18-1.2,2.54-.09,5.05.84,7.57.97,2.21.07,4.52-.08,6.73,0,2.22.04,4.52.34,6.73.54,5.62.51,11.26,1.11,16.82,2.06,2.49.25,5.07.52,7.57.72,1.24.21,2.26,1.41,3.36,1.96"/><path class="b" d="M11.5,20.29c7.82-.62,15.71-1.25,23.54-.67,3.18.15,6.49.56,9.25,2.28,2.25,1.21,4.38,2.85,6.73,3.88,3.15,1.36,6.85,1.41,10.09.34,2-.67,3.97-1.74,5.89-2.59,1.88-.85,3.99-1.44,5.89-2.26,1.65-.68,3.25-1.94,5.04-2.22.76-.06,1.79.21,2.52-.09,3.93-4.95,5.06-4.6,10.09-1.24,4.24,2.81,9.31,5.27,14.29,2.77,1.38-.6,2.86-1.41,4.2-2.09,1.01-.46,2.22-1.26,3.36-.91,5.01.77,10.13.48,15.13-.2,1.63-.25,3.39-.57,5.04-.6,2.21-.09,4.52.12,6.73-.06,8.69-1.06,17.49-.12,26.06,1.42,3.02.7,6.17,1.12,9.25,1.42,1.05.14,2.36.09,3.36.47.7.58,1.74,1.31,2.52,1.79"/><path class="b" d="M11.5,18.32c7.82-.55,15.71-1.29,23.54-.53,3.23.07,6.5.74,9.25,2.51,5.11,3.24,9.52,6.76,15.97,4.82,2.34-.72,4.5-2.12,6.73-3.11,1.83-.85,3.96-1.17,5.89-1.74,2.56-.75,4.72-3.1,7.57-2.63,1.85-1.22,3.25-4.41,5.89-3.54,5.18,2.15,9.15,7.49,15.13,7.62,4.74.07,8.43-3.43,12.61-5.1,2.45.55,5.05.89,7.57.76,3.09-.21,6.21-.83,9.25-1.37,2.2-.34,4.51-.48,6.73-.66,3.33-.47,6.73-.91,10.09-1.01,7.39-.56,14.72.83,21.86,2.62,2.47.5,5.06.83,7.57,1.07,1.27.15,2.24,1.48,3.36,2.02"/><path class="b" d="M11.5,16.36c5.31-.34,10.65-1.08,15.97-1.18,3.08-.06,6.2.38,9.25.73,8.81.75,13.95,11.08,23.54,7.75,4.97-2.05,6.66-4.54,12.61-4.64,1.84-.18,3.5-1.3,5.04-2.23.98-.5,2.28-.77,3.36-.92,1.52-1.52,3.48-4.12,5.89-2.89,3.6,1.77,6.47,4.87,10.09,6.62,3.37,1.85,7.49,1.81,10.93.17,1.99-.85,3.96-2.03,5.89-3.01,1.28-.59,2.74-1.55,4.2-1.13,5.63.68,11.23-1.02,16.82-1.51,8.06-.99,16.25-2.63,24.38-1.51,3.41.44,6.77,1.43,10.09,2.29,2.74.67,5.61,1.16,8.41,1.47.73.57,1.73,1.35,2.52,1.82"/><path class="b" d="M11.5,14.46c1.64-.27,3.38-.65,5.04-.74,1.94-.02,3.96-.27,5.89-.51,3.9-.47,7.91-.47,11.77.28,2.92.39,5.91,1.11,8.41,2.73,4.41,2.8,8.75,6.69,14.29,6.59,4.5-.12,7.64-3.97,11.77-5.19,1.61-.47,3.4-.23,5.04-.14,2.56.05,4.48-2.07,6.73-2.99.85-.34,1.93-.61,2.52-1.39,3.13-2.85,4.45-1.8,7.57.29,4.43,3.17,9.33,7.04,15.13,6.11,5.06-.8,9.32-4.17,14.29-5.29,3.01-.69,6.18-.7,9.25-.91,2.77-.4,5.63-.76,8.41-1.08,9.16-1.2,18.65-3.29,27.75-.62,2.76.79,5.58,1.69,8.41,2.21,1.34.27,2.86.53,4.2.75.83.34,1.76,1.17,2.52,1.62"/><path class="b" d="M11.5,12.16c2.97-1.02,6.15-1.04,9.25-.92,6.43-1.12,13.32-.65,19.34,1.95,5.22,2.73,9.72,7.71,15.97,7.84,3.93.55,6.96-2.42,10.09-4.28,1.49-.88,3.29-1.53,5.04-1.41,3.38.42,4.52,1.4,7.57-.93,2.06-1.42,3.95-2.08,5.89-3.57,2.34-1.73,3.71-.48,5.89.73,5.09,3.24,10.43,7.05,16.82,5.87,4.08-.71,7.78-2.86,11.77-3.88,1.88-.55,3.96-.68,5.89-1.01,1.66-.25,3.38-.86,5.04-1.06,4.75-.6,9.56-1.06,14.29-1.8,6.65-.8,13.56-2.17,20.18-.49,3.1.74,6.13,1.98,9.25,2.65,1.62.38,3.4.73,5.04,1,.35.31,1.28.9,1.68,1.17"/></svg>