<?xml version="1.0" encoding="UTF-8"?><svg id="a" xmlns="http://www.w3.org/2000/svg" width="1920" height="2400" viewBox="0 0 192 240"><defs><style>.b{fill:none;stroke:#fff;stroke-miterlimit:10;stroke-width:.3px;}.c{stroke-width:0px;}</style></defs><rect class="c" x="0" width="192" height="240"/><path class="b" d="M11.69,228.46c2.72.88,5.54,1.83,8.39,2.21,3.04.35,6.18.2,9.23.46,2.22.2,4.47.92,6.71.94,4.56.17,8.99-1.48,13.42-2.33,4.94-1.2,10.15-.78,15.1-1.91,2.53-.59,5.04-1.59,7.55-2.24.43-.09,1.24-.19,1.68-.18.73-.25,1.74-.48,2.52-.49,1.93.03,3.94.5,5.87.3,1.77.79,3.23,2.42,5.03,3.18,3.92,1.69,8.4,1.48,12.58,1.45,1.67.38,3.31,1.35,5.03,1.62,4.53,1.17,9.03-.48,13.42-1.45,1.04-.22,2.33-.28,3.36-.58,1.89-.85,3.88-1.81,5.87-2.41,1.03-.31,2.3-.61,3.36-.82,2.15-1.33,4.35-2.86,6.71-3.79,2.4-.8,5.02-1.27,7.55-1.26,2.21.05,4.5.45,6.71.6,1.63.14,3.41.26,5.03.44,1.95.42,3.94,1.17,5.87,1.67,5.86,1.55,11.68,3.36,17.62,4.6"/><path class="b" d="M11.69,226.79c2.47.81,4.93,2.03,7.55,2.28,3.05.33,6.17-.11,9.23-.06,1.96-.03,3.95.5,5.87.8,4.52.57,9.01-.91,13.42-1.7,3.57-.82,7.29-.75,10.91-1.14,4.03-.4,7.89-1.83,11.74-2.97,1.33-.43,2.91-.22,4.19-.82,1.33-.33,2.85-.2,4.19-.07.75.06,1.77.02,2.52.14.44.27,1.27.86,1.68,1.18,1.89,1.64,4.21,2.93,6.71,3.27,3.31.46,6.73.55,10.07.55,1.71-.14,3.35.94,5.03,1.11,4.79.89,9.52-.91,14.26-1.36,1.77-.07,3.41-1.2,5.03-1.79,1.84-.77,3.91-1.26,5.87-1.62.86-.03,1.8-.72,2.52-1.14,1.9-.98,3.8-2.28,5.87-2.89,4.06-1.24,8.37-1.57,12.58-1.12,2.52.17,5.14.35,7.55,1.15,3.31.99,6.74,1.8,10.07,2.73,3.85,1.22,7.76,2.47,11.74,3.19"/><path class="b" d="M11.69,225.19c7.49,3.65,9.15,1.94,16.78,1.75,2.25-.09,4.5.55,6.71.78,2.5.18,5.09-.23,7.55-.64,2.76-.47,5.59-1.06,8.39-1.31,3.66-.15,7.38-.35,10.91-1.43,3.63-.96,7.09-2.48,10.91-2.42,1.46-.94,3.35-1.04,5.03-.93.81,0,1.85-.01,2.52.53,1.68,1.06,3.19,2.66,5.03,3.47,2.34,1.03,5.03,1.1,7.55,1.19,2.49.1,5.06.19,7.55.16,1.1-.13,2.31.34,3.36.61,1.03.24,2.29.39,3.36.42,4.21-.04,8.41-.97,12.58-1.38,3.5-1.57,7.09-2.71,10.91-3.22,2.23-1.01,4.44-2.33,6.71-3.27,6.16-2.11,12.9-2.7,19.29-1.36,4.17,1.12,8.43,2.07,12.58,3.25,3.57,1.19,7.17,2.54,10.91,3.15"/><path class="b" d="M11.69,223.68c6.43,3.73,9.31,1.46,15.94,1.14,2.52-.17,5.05.5,7.55.71,2.5.18,5.08-.09,7.55-.43,3.88-.62,7.81-1.19,11.74-1.31,2.85-.19,5.66-1.11,8.39-1.9,1.9-.53,3.91-1.17,5.87-1.41,1.08-.18,2.31.34,3.36.04,1.36-1.18,3.27-1.61,5.03-1.58,4.31.98,5.43,4.94,10.91,5.22,4.73.26,9.53.13,14.26.09,1.37.11,2.81.75,4.19.84,2.2.25,4.52.05,6.71-.2,2.48-.41,5.17-.27,7.55-1.13,3.21-1.29,6.66-1.99,10.07-2.55,3.11-1,6.02-2.82,9.23-3.54,3.82-.98,7.77-1.98,11.74-1.79,1.64-.13,3.43-.09,5.03.3,4.17,1.05,8.44,1.91,12.58,3.04,1.96.57,3.94,1.44,5.87,2.07,1.59.58,3.43.86,5.03,1.39"/><path class="b" d="M11.69,222.27c4.76,2.9,7.57,1.71,12.58.73,3.33-.64,6.75-.24,10.07.23,4.47.52,9-.11,13.42-.77,3.33-.45,6.77-.52,10.07-1.21,4.13-.74,8.38-3.47,12.58-1.58.88-.38,1.7-1.39,2.52-1.88.72-.4,1.7-.65,2.52-.58,5.18.93,5.89,5.47,12.58,5.33,5.3-.04,10.64-.52,15.94-.47,1.58.56,3.36.92,5.03,1.01,3.63.11,7.33-.34,10.91-.87,2.46-.7,5.02-1.43,7.55-1.85,1.63-.36,3.46-.51,5.03-1.09,1.02-.45,2.3-.75,3.36-1.08,1.33-.47,2.81-1.02,4.19-1.32,3.31-.79,6.67-1.79,10.07-2.14,1.31-.4,2.81-.81,4.19-.74,2.25.08,4.52.75,6.71,1.23,2.48.57,5.08,1.01,7.55,1.65,2.27.56,4.52,1.55,6.71,2.36,1.59.66,3.46.91,5.03,1.57"/><path class="b" d="M11.69,220.94c3.73,2.08,6.15,1.63,10.07.48,2.98-.82,6.15-1.03,9.23-.83,3.61.3,7.28.79,10.91.56,2.5-.12,5.07-.54,7.55-.85,2.78-.31,5.64-.62,8.39-1.13,2.82-.49,5.54-1.77,8.39-2.12,1.06-.13,2.3.12,3.36.16,3.91-3.84,8.3-.08,11.74,2.36,2.49,1.52,5.58,1.47,8.39,1.23,4.73-.5,9.51-.95,14.26-1.11,1.11-.14,2.28.59,3.36.78,1.6.4,3.38.57,5.03.56,4.23-.05,8.46-.75,12.58-1.66,3.35-.63,6.79-1.18,10.07-2.14,4.2-.85,8.41-1.89,12.58-2.86,1.97-.53,3.76-1.96,5.87-2.08,3.96-.27,7.85,1.21,11.74,1.77,3.46.57,6.84,1.74,10.07,3.09,1.58.69,3.46.98,5.03,1.69"/><path class="b" d="M11.69,219.66c4.2,1.79,5.94.89,10.07-.32,2.98-.83,6.15-.96,9.23-1.05,3.35-.17,6.73.39,10.07.51,2.78.13,5.64-.16,8.39-.54,3.35-.45,6.77-.86,10.07-1.62,2.74-.66,5.53-1.78,8.39-1.52,4.76-3.25,9.36,1.11,13.42,3.37,2.61,1.2,5.63.97,8.39.58,4.99-.8,10.04-1.65,15.1-1.77,1.12-.16,2.29.63,3.36.88,1.87.56,3.92.85,5.87.84,4.22-.04,8.41-.97,12.58-1.46,4.19-.71,8.37-1.69,12.58-2.24,2.5-.47,5.1-.94,7.55-1.63,2.22-.92,4.32-2.45,6.71-2.94,3.64-.6,7.32.66,10.91,1.17,3.44.55,6.86,1.54,10.07,2.9,1.86.83,4,1.28,5.87,2.06"/><path class="b" d="M11.69,218.37c.79.02,1.74.44,2.52.56,1.08.13,2.32-.05,3.36-.33,2.99-.98,6.07-1.93,9.23-2.19,2.49-.26,5.05-.69,7.55-.81,3.32.43,6.71.84,10.07.76,6.23,0,12.41-1.3,18.46-2.71.75-.15,1.76-.3,2.52-.35.5.07,1.27-.17,1.68-.43,4.89-1.94,9.32,2.08,13.42,4.16,1.81.8,3.92.99,5.87.82,4.78-.59,9.46-2.05,14.26-2.55,1.34-.17,2.85-.27,4.19-.3.78-.03,1.83-.1,2.52.35,8.15,3.66,14.33.36,22.65.05,2.21-.3,4.5-.79,6.71-1.07,2.22-.18,4.53-.44,6.71-.89,2.72-.34,5.19-1.77,7.55-3.07,3.55-2.2,7.87-1.24,11.74-.64,3.11.46,6.27,1.13,9.23,2.22,2.73,1.08,5.62,1.99,8.39,2.96"/><path class="b" d="M11.69,216.99c1.65.13,3.42.45,5.03-.11,3.02-.95,6.06-2.15,9.23-2.53,2.22-.24,4.48-.89,6.71-1.05,3.9.04,7.85.27,11.74.45,4.78.36,9.58-.47,14.26-1.35,1.05-.19,2.3-.41,3.36-.55,1.09-.09,2.37-.21,3.36-.75,7.05-2.13,12.33,5.79,19.29,5.22,3.16-.03,6.2-1.18,9.23-1.92,4.11-.98,8.34-1.76,12.58-1.58,1.93.38,3.82,1.63,5.87,2.01,3.89,1.03,7.91.04,11.74-.72,2.18-.43,4.5-.42,6.71-.47,2.5-.12,5.06-.62,7.55-.88,3.43-.23,7.04-.47,10.07-2.26,4.42-2.58,6.46-3.54,11.74-2.81,3.09.35,6.25.82,9.23,1.73,3.64,1.12,7.29,2.43,10.91,3.61"/><path class="b" d="M11.69,215.46c1.06-.02,2.31.05,3.36-.11,2.85-.61,5.54-2.04,8.39-2.68,2.19-.49,4.52-.74,6.71-1.25,1.9-.38,3.95-.39,5.87-.56,3.36-.46,6.76-.11,10.07.49,3.06.27,6.19-.22,9.23-.52,1.36-.05,2.85-.21,4.19-.4,1.11-.05,2.38-.27,3.36-.83,7.09-2.57,13.2,4.72,20.13,4.94,3.45.22,6.83-.89,10.07-1.94,3-.83,6.12-1.57,9.23-1.8,1.63-.1,3.4-.05,5.03.06,2.12,1.04,4.36,2.13,6.71,2.52,3.69.71,7.33-.71,10.91-1.42,2.18-.43,4.51-.21,6.71-.14,2.78.1,5.62-.33,8.39-.53,1.94-.14,4.02-.29,5.87-.9,1.42-.51,2.89-1.36,4.19-2.1,4.06-2.67,7.96-2.49,12.58-1.86,6.03.82,11.85,2.82,17.62,4.68"/><path class="b" d="M11.69,213.76c3.89.17,7.28-2,10.91-3.02,1.89-.53,3.95-.71,5.87-1.03,2.74-.65,5.6-1.1,8.39-1.43,2.79-.25,5.62.44,8.39.72,3.06.15,6.18.05,9.23-.19,1.36-.18,2.88.29,4.19-.06,4.48-2.48,8.93-1.27,13.42.46,3.27,1.27,6.51,3.04,10.07,3.34,3.73.35,7.41-.78,10.91-1.95,2.71-.8,5.57-1.47,8.39-1.72,1.64-.17,3.4.15,5.03.12,1.19-.06,2.31.9,3.36,1.36,1.28.64,2.78,1.22,4.19,1.47,6.28,1,9.75-3.34,16.78-2.02,3.04.34,6.18.47,9.23.21,2.53-.27,5.1-.9,7.55-1.57,2.9-1.57,5.83-3.54,9.23-3.67,3.65-.24,7.32.51,10.91,1.11,4.31.53,8.44,2.11,12.58,3.32"/><path class="b" d="M11.69,211.85c4.21.08,7.73-2.66,11.74-3.48,1.62-.37,3.4-.42,5.03-.69,1.61-.48,3.38-.83,5.03-1.1,1.34-.25,2.84-.38,4.19-.21.76-.14,1.75-.36,2.52-.43,3.36-.29,6.7.86,10.07.71,4.22.14,8.39-1.02,12.58-1.13,2.81.16,5.71.57,8.39,1.47,3.05,1.03,6.03,2.54,9.23,3.1,6.34,1.27,12.29-2.05,18.46-2.88,1.63-.31,3.39-.25,5.03-.07,1.06.03,2.32,0,3.36.25,6.48,4.19,9.11,3.8,15.94.82,7.03-2.61,11.44,2.04,20.13-.86,2.17-.63,4.44-1.37,6.71-1.57,1.82-.93,3.82-1.85,5.87-2.12,2.76-.39,5.64-.04,8.39.34,5.43.43,10.76,1.78,15.94,3.45"/><path class="b" d="M11.69,209.86c3.33.02,6.21-1.84,9.23-2.96,1.31-.47,2.81-.81,4.19-.94,1.06-.13,2.32-.03,3.36-.33,2.16-.56,4.47-1.02,6.71-.99,1.63-.37,3.32-1.09,5.03-.97,1.4-.08,2.84.46,4.19.71,1.91.26,3.95.23,5.87.24,6.42.05,12.92-1.7,19.29-.31,4.24.94,8.19,3.22,12.58,3.49,5.73.55,11.15-1.95,16.78-2.51,1.35-.2,2.85-.17,4.19,0,1.37.06,3.01-.05,4.19.76,4.92,3.41,8.01,4.18,13.42,1.16,7.26-3.96,10.49-.8,17.62-1.25,2.61-.17,5.08-1.31,7.55-2.04,2.14-.68,4.49-.79,6.71-.48,3.43-1.41,7.29-1.25,10.91-.82,1.91.28,3.97.06,5.87.49,3.65.78,7.4,1.55,10.91,2.85"/><path class="b" d="M11.69,207.87c3.65-.07,6.66-2.47,10.07-3.44,1.87-.56,3.93-.7,5.87-.61,1.63-.29,3.37-.68,5.03-.7.81.06,1.83-.12,2.52-.57,1.01-.46,2.25-.85,3.36-.98,1.68-.26,3.39.35,5.03.59,2.48.29,5.06.33,7.55.3,6.13-.08,12.33-1.14,18.46-.53,4.8.89,9.27,3.46,14.26,3.37,3.68.13,7.3-.86,10.91-1.42,3.31-.51,6.75-.75,10.07-.19,1.58.19,2.84,1.64,4.19,2.37,3.44,2.3,6.56,2.17,10.07.06,8.28-5.09,10.93-1.95,19.29-2.77,3.99-.49,7.62-2.97,11.74-2.66,1.68,0,3.37,1,5.03.91,3.01-.63,6.19-.47,9.23-.17,2.8-.34,5.68.17,8.39.84,2.51.63,5.13,1.24,7.55,2.16"/><path class="b" d="M11.69,205.88c3.64-.21,6.61-2.76,10.07-3.65,2.16-.65,4.49-.55,6.71-.46.76-.14,1.75-.26,2.52-.3.45-.02,1.24-.01,1.68.02,1.42-.46,2.75-1.55,4.19-1.99,1.61-.6,3.4-.47,5.03-.06,1.91.29,3.95.4,5.87.48,4.46.21,8.96-.27,13.42-.38,3.06-.07,6.17.32,9.23.47,2.32-.06,4.52,1.1,6.71,1.71,2.69.84,5.58,1.22,8.39,1.14,4.49-.11,8.93-1.28,13.42-1.32,1.92,0,4.04-.02,5.87.6,4.58,3.33,7.89,6.17,13.42,2.57,2.35-1.39,4.82-2.89,7.55-3.35,2.75-.43,5.62-.05,8.39-.13,2.83-.01,5.73-.53,8.39-1.49,3.16-1.2,6.78-1.93,10.07-.83,1.63.45,3.29,1.65,5.03,1.24,2.19-.26,4.51-.17,6.71-.12,1.33-.23,2.86-.24,4.19-.1,3.98.53,7.94,1.62,11.74,2.85"/><path class="b" d="M11.69,203.89c2.72-.25,5.08-1.94,7.55-2.95,2.08-.92,4.43-1.44,6.71-1.35.75.02,1.77.11,2.52.21,1.05.04,2.31-.11,3.36.02,2.05-1.36,4.15-3.22,6.71-3.37,4.16.42,8.39.87,12.58.8,3.62.01,7.29-.48,10.91-.21,4.19.4,8.34,1.65,12.58,1.51,4.81,1.8,10,2.35,15.1,1.78,4.17-.43,8.4-.84,12.58-.34.52-.07,1.3.28,1.68.61.75.53,1.77,1.27,2.52,1.81,4.97,3.75,7.59,3.34,12.58-.04,5.87-4.07,10.25-2.73,16.78-3.33,4.58-.33,8.78-2.88,13.42-2.69,2.04,0,4.05.79,5.87,1.63.72.32,1.76.74,2.52.98.4-.03,1.28-.12,1.68-.18,1.34-.15,2.85-.23,4.19-.22,1.63-.19,3.4-.38,5.03-.19,3.96.5,7.92,1.52,11.74,2.67"/><path class="b" d="M11.69,201.91c2.39-.39,4.53-1.82,6.71-2.78,2.33-1.1,4.97-1.71,7.55-1.51,1.36.04,2.83.51,4.19.46,2.07-1.03,3.65-3.15,5.87-3.98,1.31-.58,2.83-.24,4.19-.2,3.9-.15,7.84.26,11.74.3,3.05.12,6.2-.36,9.23.18,3.66.65,7.18,2.22,10.91,2.57,1.63.18,3.4.18,5.03.17,2.46.52,5.02,1.07,7.55,1.1,4.74.22,9.54-.79,14.26-.08.74.07,1.77.15,2.52.18,1.19.32,2.38,1.16,3.36,1.9,4.6,3.5,7.38,5.13,12.58,1.41,6.74-4.89,9.94-3.86,17.62-4.43,4.86-.29,9.34-2.98,14.26-2.67,2.38.04,4.59,1.26,6.71,2.19,1.01.36,2.27,1.09,3.36.69,3.02-.46,6.17-.92,9.23-.65,2.23.23,4.53.74,6.71,1.29,1.65.28,3.43.68,5.03,1.19"/><path class="b" d="M11.69,199.91c6.55-2.15,8.95-5.6,16.78-3.56,1.02-.15,1.8-1.33,2.52-1.98,1.44-1.31,3.07-2.84,5.03-3.25,2.5.15,5.06-.16,7.55-.32,3.9-.07,7.86.05,11.74.31,5.08-.23,9.5,2.62,14.26,3.86,4.1,1.12,8.42.43,12.58.86,2.76.33,5.62.22,8.39.16,2.49.17,5.06.41,7.55.61.75.06,1.78.07,2.52.28,1.03.57,2.33,1.12,3.36,1.69,4.49,3.35,7.36,5.72,12.58,1.88,7.17-5.38,10.15-4.42,18.46-5.02,4.58-.26,8.81-2.74,13.42-2.62,2.38-.04,4.6,1.16,6.71,2.12,1.28.45,2.83,1.42,4.19.88,4.36-1.35,9.03-1.09,13.42-.06,2.47.63,5.1.92,7.55,1.63"/><path class="b" d="M11.69,197.89c3.87-1.37,7.46-4.05,11.74-3.85,1.37-.07,2.84.57,4.19.41,2.15-2.16,4.22-5.53,7.55-5.73,1.35.23,2.85.14,4.19-.05,3.87-.61,7.83-.88,11.74-.73,2.81.11,5.76.3,8.39,1.39,4.37,1.84,8.57,4.56,13.42,4.88,3.33.26,6.73,0,10.07.03,3.62-.02,7.3.19,10.91.58,1.63.15,3.4.32,5.03.4,1.62.82,3.33,1.78,5.03,2.41,1.97.99,3.67,2.8,5.87,3.35,3.2.83,5.93-1.72,8.39-3.38,1.99-1.42,4.29-2.63,6.71-3.09,3.85-.76,7.88-.31,11.74-.97,7.46-1.03,9.88-4.43,17.62-.2,1.56.65,3.41,1.56,5.03.61,4.26-1.8,9.04-1.42,13.42-.28,2.46.7,5.08,1.15,7.55,1.81"/><path class="b" d="M11.69,195.86c5.2-2.2,8.31-4.3,14.26-3.09,2.52-1.91,4.11-5.66,7.55-6.1,1.06.07,2.29.33,3.36.2,5-.76,10-1.92,15.1-1.49,8.13.54,12.97,7.4,21.81,7.55,3.9.13,7.85-.34,11.74-.27,3.92,0,7.86.5,11.74.9,1.2.16,2.29,1.2,3.36,1.72,1.55.88,3.32,1.63,5.03,2.13,2.09,1.64,4.91,3.19,7.55,1.87,2.11-.98,3.95-2.66,5.87-3.94,1.98-1.36,4.33-2.33,6.71-2.68,1.9-.33,3.95-.31,5.87-.48.73-.27,1.76-.59,2.52-.79,2.43-.63,5.05-.78,7.55-.69,1.97-.2,3.79-1.05,5.87-.86,3.3.08,5.99,2.55,9.23,2.96,2.36-1.17,4.86-2.47,7.55-2.52,5.44,0,10.69,1.97,15.94,3.19"/><path class="b" d="M11.69,193.8c5.09-2.28,7.68-3.55,13.42-2.93,2.35-2.05,4.1-5.81,7.55-6,1.35.21,2.84.45,4.19.15,7.03-1.66,14.27-3.63,20.97.27,6.01,3.46,11.2,6.66,18.46,6.13,3.05-.13,6.17-.51,9.23-.5,3.63-.04,7.3.36,10.91.79.87.2,1.79.98,2.52,1.45,1.29.87,2.78,1.77,4.19,2.42,1.01.46,2.27.91,3.36,1.15.99.61,2.21,1.31,3.36,1.57,2.94.6,5.39-1.73,7.55-3.36,1.75-1.37,3.74-2.69,5.87-3.37,2.14-.68,4.48-.93,6.71-1.05,1.32-.52,2.81-1.07,4.19-1.39,3.26-.77,6.73-.9,10.07-.67,1.04.19,2.3-.1,3.36.04,1.76.13,3.45,1.02,5.03,1.72,2.35.59,2.8,1.04,5.03-.57,3.79-2.66,7.57-1.79,11.74-.77,3.63.77,7.34,1.51,10.91,2.57"/><path class="b" d="M11.69,191.7c2.42-1.04,4.92-2.18,7.55-2.56,1.05-.16,2.29-.23,3.36-.2.88.18,1.86-.17,2.52-.74,1.33-1.35,2.67-3,4.19-4.14,1.21-.82,2.81-.96,4.19-.56,1.07.17,2.32.01,3.36-.24,6.84-2.06,13.54-3.85,20.13.06,6.49,3.83,12.28,7.13,20.13,6.34,3.61-.29,7.28-.75,10.91-.56,11.26.57,6.4.54,15.1,5.36,1.28.67,2.83,1.1,4.19,1.52.7.39,1.72.82,2.52.97,2.98.5,5.4-1.9,7.55-3.6,1.73-1.42,3.72-2.79,5.87-3.49,1.87-.6,3.93-.93,5.87-1.13,1.63-.52,3.35-1.27,5.03-1.61,3.27-.71,6.73-.95,10.07-.72,2.56.39,5.1,1.24,7.55,2.03.74.22,1.73.73,2.52.41,1.33-.91,2.69-2.17,4.19-2.81,3.33-1.43,6.8.59,10.07,1.29,3.85.92,7.93.96,11.74,2.09"/><path class="b" d="M11.69,189.61c2.15-.87,4.42-1.75,6.71-2.14,1.05-.18,2.29-.31,3.36-.35.5.06,1.25-.12,1.68-.34,1.98-.83,3.28-2.9,5.03-4.08,1.78-1.34,3.85-.82,5.87-.7,2.6-.19,5.09-1.27,7.55-2.03,3.78-1.16,8.02-1.42,11.74.08,2.92,1.18,5.58,3.06,8.39,4.46,3.13,1.59,6.57,2.78,10.07,3.16,3.62.39,7.3-.27,10.91-.54,3.05-.21,6.19-.04,9.23.24,1.05.11,2.32.2,3.36.4,1.93,1.41,3.87,3.04,5.87,4.36,1.76,1.19,3.81,2.11,5.87,2.63,1.79.99,4.07,1.2,5.87.12,6.82-4.64,6.54-6.8,15.94-8.03,4.76-1.87,10-2.73,15.1-2.23,2.59.52,5.06,1.79,7.55,2.66,1.27-.5,2.24-1.88,3.36-2.64,3.55-3,7.28-.17,10.91,1.03,4.58,1.63,9.56.78,14.26,1.68"/><path class="b" d="M11.69,187.61c2.15-.79,4.44-1.51,6.71-1.89,1.05-.19,2.29-.34,3.36-.45.77-.3,1.78-.76,2.52-1.14,2.69-2,4.7-4.29,8.39-3.81,1.36.16,2.88.44,4.19-.13,5.69-2.65,11.67-4.59,17.62-1.45,2.53,1.28,4.97,2.93,7.55,4.11,3.15,1.45,6.6,2.48,10.07,2.79,3.63.31,7.29-.4,10.91-.66,3.33.2,6.73.46,10.07.54.41,0,1.26.05,1.68.08.47.17,1.3.71,1.68,1.05,1.35,1.07,2.82,2.32,4.19,3.36,1.97,1.58,4.33,2.75,6.71,3.57,1.84.91,4.12.93,5.87-.21,6.94-5.08,6.25-6.84,15.94-8.4,1.93-.49,3.89-1.31,5.87-1.61,3-.49,6.22-.85,9.23-.22.77.22,1.81.66,2.52,1.04,1.06.29,2.35.58,3.36,1.03,1.6-1.31,3.02-3.22,5.03-3.92,2.72-.79,5.2,1.29,7.55,2.34,2.07,1.02,4.41,1.67,6.71,1.83,3.62.28,7.29-.48,10.91-.06"/><path class="b" d="M11.69,185.7c1.9-.6,3.92-1.14,5.87-1.54,1.34-.34,2.92-.41,4.19-.96,2.71-.89,4.88-2.99,7.55-3.95,3.98-1.33,3.78,1.81,8.39-.9,5.01-2.96,11.5-4.33,16.78-1.27,5.51,2.98,11.17,6.34,17.62,6.48,2.22.14,4.51-.26,6.71-.34,4.43.63,8.97.52,13.42.73.74.02,1.77.07,2.52.09,1.73,1.03,3.41,2.43,5.03,3.61,2.03,1.69,4.31,3.25,6.71,4.35,2.1,1.09,4.73,1.23,6.71-.19,1.8-1.2,3.41-2.93,5.03-4.35,3.38-3.21,8.21-3.8,12.58-4.7,3.74-1.24,7.82-1.92,11.74-1.26.79.16,1.82.58,2.52.98,1.04.16,2.31.47,3.36.3,7.75-9.26,9.11,1.71,20.97,1.39,3.64.08,7.26-.99,10.91-.8"/><path class="b" d="M11.69,183.85c3.03-.84,6.23-1.37,9.23-2.29,2.87-.96,5.52-2.64,8.39-3.61,1.07-.31,2.35-.09,3.36.34,1.75.71,3.56-.46,5.03-1.32,1.55-.94,3.31-1.79,5.03-2.35,7.27-2.61,11.36.55,17.62,3.61,3.18,1.46,6.51,3.1,10.07,3.29,1.64.12,3.4-.04,5.03-.15,1.89.47,3.93.78,5.87.91,4.45.21,8.97-.01,13.42.24,3.37,2.42,6.45,5.4,10.07,7.47,3.21,1.9,6.29,2.24,9.23-.37,5.37-5.01,6.55-6.83,14.26-8.16,3.9-.49,7.76-2.28,11.74-1.57,1.09.19,2.38.5,3.36,1.04.74.04,1.77.02,2.52.07,1.44-1.06,2.45-2.95,4.19-3.63,4.64-1.74,7.93,5.73,17.62,5.34,4.25.18,8.36-1.39,12.58-1.41"/><path class="b" d="M11.69,181.99c3.07-.67,6.23-1.35,9.23-2.31,2.79-.88,5.52-2.26,8.39-2.87,1.4-.23,2.84.42,4.19.66,1.51,0,2.94-.97,4.19-1.71,1.55-.96,3.32-1.83,5.03-2.47,7.3-2.99,11.17-.12,17.62,2.91,2.97,1.33,6.02,2.81,9.23,3.44,1.34.25,2.86.09,4.19-.08,2.16.62,4.47,1.09,6.71,1.28,4.73.36,9.52-.15,14.26.1,4.55,3.12,10.68,11.06,16.78,8.74,1.95-.89,3.55-2.61,5.03-4.11,3.28-3.83,7.72-5.34,12.58-5.98,2.8-.31,5.56-1.37,8.39-1.39,1.42.08,2.9.68,4.19,1.24.74-.06,1.77-.13,2.52-.19,6.64-10.09,9.06,2.5,21.81,1.89,2.21-.06,4.54-.17,6.71-.65,2.46-.57,5-1.37,7.55-1.36"/><path class="b" d="M11.69,180.01c5.7-.89,11.14-3.02,16.78-4.16,1.05-.21,2.31-.14,3.36.09,2.8,1.09,5.21-.89,7.55-2.16,3.59-1.85,7.59-3.88,11.74-3.27,2.65.46,5.13,1.78,7.55,2.87,3.82,1.67,7.64,3.67,11.74,4.53,1.05.22,2.31,0,3.36.15,2.44.67,5.03,1.08,7.55,1.27,4.45.32,8.96-.21,13.42-.06,5.22,3.51,11.52,13.18,18.46,7.82,4.06-3.49,6.04-7.12,11.74-8.42,2.18-.51,4.51-.78,6.71-1.18,1.64-.24,3.36-.9,5.03-.88.79.04,1.81.35,2.52.7.67.5,1.72.61,2.52.44,2.47-1.39,2.93-5.05,6.71-3.89,2.39.81,4.44,2.57,6.71,3.64,4.91,2.48,10.64,2.23,15.94,1.41,3.07-.57,6.04-2.36,9.23-1.58"/><path class="b" d="M11.69,177.87c3.37-.5,6.74-1.36,10.07-2.05,3.82-.89,7.84-1.67,11.74-.94,2.13.31,4.08-1.08,5.87-2.02,9.24-5.08,11.47-5.32,20.97-.74,3.54,1.5,7.1,3.32,10.91,4.05.75.11,1.78.08,2.52.25.74.22,1.76.49,2.52.64,1.9.38,3.94.6,5.87.68,3.05.11,6.17-.19,9.23-.22,1.05-.02,2.31-.02,3.36-.04.52.14,1.33.75,1.68,1.14,3.77,3.33,7.85,9,13.42,8.52,2.39-.42,4.26-2.34,5.87-4.03,1.93-2.1,4.01-4.34,6.71-5.44,2.87-1.35,6.2-1.05,9.23-1.8,1.91-.34,3.94-1.35,5.87-.62.76.27,1.66,1.02,2.52.98,3.78-3.22,3.61-5.94,9.23-2.81,4.03,2.47,8.73,3.88,13.42,4.33,2.5.16,5.08-.24,7.55-.59,1.08-.21,2.33-.61,3.36-.99.74-.26,1.71-.74,2.52-.63,1.33.28,2.84.44,4.19.47"/><path class="b" d="M11.69,175.58c3.62-.49,7.27-1.14,10.91-1.53,3.59-.61,7.27-.9,10.91-.61,2.06.32,4.1-.45,5.87-1.45,2.19-1.16,4.45-2.42,6.71-3.44,3.72-2.04,7.99-.55,11.74.63,3.96,1.38,7.72,3.47,11.74,4.7,1.31.41,2.82.7,4.19.71,2.16.65,4.46,1.25,6.71,1.45,5.02.65,10.1-.86,15.1-.33,4.05,3.5,7.66,9.53,13.42,10.01,7.55-.62,8.19-11.4,19.29-10.84,2.6.12,5.01-1.37,7.55-1.53,1.19,0,2.27.91,3.36,1.24,4.38-5.92,5.01-4.23,10.91-1.89,2.44.85,5.05,1.48,7.55,2.14,2.44.64,5.01,1.26,7.55,1.19,1.94-.1,4-.34,5.87-.86,1.07-.29,2.24-.97,3.36-1.08,1.88.51,3.94.65,5.87.78"/><path class="b" d="M11.69,173.2c3.61-.36,7.29-.34,10.91-.64,1.93-.14,3.96-.35,5.87-.65,1.35,0,2.85.16,4.19.16,1.64-.05,3.44.1,5.03-.35,3.22-1.12,6.15-3.09,9.23-4.54,3.97-2,8.59-.18,12.58.9,3.72,1.07,7.17,3.08,10.91,4.12,1.31.37,2.83.64,4.19.67,1.92.42,3.92,1.06,5.87,1.36,5.02.91,10.09-.36,15.1-.66,4.54,3.27,7.98,10.69,14.26,10.51,6.64-1.31,7.81-10.77,16.78-10.85,1.05.02,2.3.18,3.36.07,1.39-.28,2.85-.95,4.19-1.41.73-.26,1.77-.35,2.52-.11.37.26,1.23.57,1.68.63,3.63-3.57,3.27-4.18,8.39-2.39,3.62.82,7.35,1.44,10.91,2.54,2.97.9,6.09,1.78,9.23,1.57,1.06-.07,2.33-.18,3.36-.46,1.08-.27,2.25-.95,3.36-1.1,2.15.65,4.49.8,6.71,1.08"/><path class="b" d="M11.69,171.05c4.18.05,8.41.2,12.58,0,1.93-.1,3.96-.39,5.87-.64,1.63.15,3.39.36,5.03.31,2.65.01,5.25-.81,7.55-2.1,6.16-3.32,6.98-4.45,14.26-2.81,2.22.54,4.53,1.18,6.71,1.89,2.16.96,4.44,1.93,6.71,2.62,1.87.54,3.92.91,5.87.83,1.34.34,2.84.74,4.19,1.04,4.68,1.26,9.56.58,14.26-.21,1.82-.52,2.99,1.67,4.19,2.67,2.46,2.33,4.45,5.44,7.55,6.99,9.8,4.49,9.57-12.26,22.65-9.74,2.05-.07,3.92-1.42,5.87-1.89.8-.13,1.81.35,2.52.69.84-.64,1.67-1.82,2.52-2.45,1.73-1.28,3.93-.13,5.87-.19,3.09.13,6.24.56,9.23,1.38,3.06.82,6.08,2.1,9.23,2.57,2.8.38,5.84.34,8.39-1.02,1.09-.09,2.29.47,3.36.64,1.34.23,2.86.38,4.19.63"/><path class="b" d="M11.69,169.11c3.9.18,7.84.59,11.74.55,2.8.02,5.62-.5,8.39-.79,7.47,1.22,10.55-.46,16.78-4.17,3.99-1.78,8.55-.43,12.58.55,1.05.28,2.31.57,3.36.85,1.33.59,2.83,1.24,4.19,1.74,2.92,1.05,6.12,1.75,9.23,1.46,3.85.85,7.74,2.25,11.74,1.88,1.35-.09,2.86-.26,4.19-.5.73-.16,1.76-.39,2.52-.29,1.95,1.9,4.03,3.92,5.87,5.93,3.07,4.06,7.45,6.51,11.74,2.48,3-2.75,5.12-6.95,9.23-8.21,1.02-.32,2.29-.47,3.36-.4,1.06.13,2.32.19,3.36-.16,1.08-.22,2.38-.5,3.36-1.03,1.01-.63,2.4-.73,3.36.05.53-.28,1.34-1.14,1.68-1.62,1.17-1.19,2.65-1.22,4.19-1.2,2.76-.32,5.62-.6,8.39-.12,7.73,1.09,14.73,6.28,22.65,3.04,2.13.79,4.49,1.03,6.71,1.42"/><path class="b" d="M11.69,167.19c3.61.35,7.27.9,10.91,1,3.36.1,6.77-.31,10.07-.9,7.66.92,10.2.43,16.78-3.72,4.23-2.01,9.09-.53,13.42.39,2.36.28,4.5,1.52,6.71,2.28,2.13.73,4.46,1.17,6.71,1.3,1.35.14,2.86-.28,4.19-.08,6.03,1.77,9.59,2.88,15.94,1.41,2.78,2.67,5.52,5.53,8.39,8.1,3.07,3.31,7.19,2.45,10.07-.61,2.4-2.4,4.38-5.61,7.55-7.08,1.55-.7,3.37-.69,5.03-.71.74-.17,1.76-.34,2.52-.41,1.42-.05,2.91-.48,4.19-1.06.44-.1,1.27,0,1.68.2,0,0,.84-.1.84-.1.87-1.6,2.47-2.25,4.19-2.43,1.06-.22,2.3-.59,3.36-.84,7.25-1.73,14.08,2.25,20.97,3.8,1.89.37,3.96.62,5.87.31,1.09-.13,2.26-.76,3.36-.8,1.85.72,3.93,1.01,5.87,1.34"/><path class="b" d="M11.69,165.31c3.88.56,7.81,1.3,11.74,1.38,3.36.08,6.77-.36,10.07-.97,1.35-.23,2.84.33,4.19.37,5.34.58,8.99-1.48,13.42-4.01,4.04-1.63,8.48-.42,12.58.29,2.08.11,3.94,1.32,5.87,1.98,2.66.95,5.57,1.42,8.39,1.4,1.36.04,2.84-.44,4.19-.4,3.31.93,6.61,2.31,10.07,2.58,1.36.12,2.85-.24,4.19-.39,1.26.79,2.29,2.28,3.36,3.31,1.76,1.82,3.71,3.7,5.87,5.04,4.54,2.99,7.85.36,10.91-3.16,1.91-2.09,3.92-4.53,6.71-5.44,1.33-.34,2.86-.49,4.19-.86,1.34-.24,2.85-.12,4.19-.19,1.34-.28,2.84-.62,4.19-.82.8-.4,1.64-1.31,2.52-1.56,2.19-.78,4.44-1.74,6.71-2.27,4.82-.99,9.72.5,14.26,2.03,5.17,1.83,10.56,3.59,15.94,1.49,1.58.61,3.36,1.02,5.03,1.28"/><path class="b" d="M11.69,163.64c9.29,1.76,14.14,2.12,23.49.33,4.47,1.03,9.3.98,13.42-1.22,1.66-.73,3.27-1.91,5.03-2.39,3.57-1.02,7.31-.14,10.91.3,2.07.14,3.91,1.54,5.87,2.12,2.94.96,6.14,1.37,9.23,1.19,1.37-.05,2.84-.52,4.19-.66,4.14,1.12,8.18,3.3,12.58,2.82,1.61,1.02,2.76,2.95,4.19,4.21,2.32,2.21,5.05,4.71,8.39,4.98,6.28-.28,8.59-8.03,14.26-9.8,1.08-.26,2.25-.92,3.36-1.1,1.34-.29,2.85-.14,4.19.03,2.69.22,5.29-.94,7.55-2.28,6.42-3.39,11.49-4,18.46-1.82,4.44,1.27,8.76,3.39,13.42,3.71,1.36.07,2.88-.09,4.19-.43.74-.18,1.74-.54,2.52-.43,1.02.34,2.28.68,3.36.84"/><path class="b" d="M11.69,162.29c3.05.5,6.14,1.16,9.23,1.39,1.92.22,3.97-.07,5.87.24,1.92.22,3.97.08,5.87-.22,1.07-.11,2.28-.59,3.36-.52,2.2.43,4.51.33,6.71,0,1.37-.04,2.9-.24,4.19-.7,2.92-.84,5.53-2.64,8.39-3.6,2.15-.61,4.51-.57,6.71-.33,1.34.19,2.89.14,4.19.5,5.86,3.15,12.85,4.27,19.29,2.36,3.33.97,6.58,2.54,10.07,2.86,1.05-.07,1.92,1.02,2.52,1.74.43.47,1.24,1.4,1.68,1.85,2.79,2.8,6.61,6.49,10.91,5.13,4.7-1.81,7.18-6.95,11.74-9.01,2.07-1.13,4.27-2.21,6.71-1.73,1.4.34,2.8.49,4.19.03,1.06-.25,2.34-.51,3.36-.9.41-.26,1.26-.78,1.68-1.03,1.82-1.06,3.87-1.99,5.87-2.66,9.97-3.38,17.51,3.12,26.84,4.36,2.24.23,4.54-.33,6.71-.82.75.08,1.77.37,2.52.51"/><path class="b" d="M11.69,160.75c3.87.72,7.78,1.72,11.74,1.72,1.89.56,3.88,1.2,5.87,1.2,1.65.04,3.42-.17,5.03-.47.42-.11,1.25-.26,1.68-.31.42.12,1.25.33,1.68.41,3.82.93,7.67-.41,10.91-2.42,1.95-.74,4.07-1.41,5.87-2.49,3.3-1.92,7.25-1.63,10.91-1.42,2.32.53,4.4,2.1,6.71,2.73,4.62,1.22,9.62,1.54,14.26.28,1.38-.53,2.88.41,4.19.79,1.86.73,3.91,1.21,5.87,1.56,1.5,1.31,2.72,3.23,4.19,4.58,2.42,2.31,5.65,5.02,9.23,4.16,3.76-1.1,6.27-4.5,9.23-6.85.98-.79,2.21-1.63,3.36-2.16,1.66-1.24,3.75-2.22,5.87-1.94,2.19.66,4.5.05,6.71-.27,1.94-.04,3.39-1.47,5.03-2.31,6.74-3.48,12.12-4.18,19.29-1.49,4.95,1.54,9.78,4.37,15.1,4.12,1.91,0,4.02-.98,5.87-.55"/><path class="b" d="M11.69,159.11c3.33.67,6.67,1.67,10.07,1.93,5.08,2.62,8.66,3.03,14.26,1.71,6.68,2.69,10.73-.34,15.94-4.18,2.96-.56,5.31-2.97,8.39-3.25,6.63-.84,6.19.36,11.74,2.58,4.31,1.25,8.97,1.69,13.42,1.08,1.93-.18,4-1.33,5.87-.44,1.04.36,2.28.76,3.36.99.83.17,1.91.41,2.52,1.05,2.78,3.57,5.94,8.3,10.91,8.53,3.76-.24,6.49-3.4,9.23-5.65,1.5-1.3,3.23-2.62,5.03-3.48.69-.54,1.7-1.22,2.52-1.54,1.29-.54,2.84-.45,4.19-.3,2.46-.46,5.06-.42,7.55-.53,1.68-.83,3.28-2.11,5.03-2.83,1.88-.89,3.97-1.59,5.87-2.43,2.7-.72,5.7-.59,8.39.13,5.72,1.42,10.96,4.57,16.78,5.59,2.49.38,5.07-.16,7.55-.41"/><path class="b" d="M11.69,157.55c2.78.57,5.58,1.46,8.39,1.91,1.16.4,2.26,1.41,3.36,1.95,2.03,1.12,4.39,1.8,6.71,1.85,1.35.04,2.86-.1,4.19-.31.77-.1,1.76-.43,2.52-.09,2.09.8,4.54,1.3,6.71.53,3.35-1.28,6.43-3.4,9.23-5.62.7-.48,1.73-.99,2.52-1.3,1.06-.56,2.27-1.35,3.36-1.87,2.31-1.08,5.02-1.43,7.55-1.27,2.3.76,4.42,2.23,6.71,3,4.06,1.11,8.37,1.66,12.58,1.4,2.8-.16,5.6-.98,8.39-1.15,1.06.26,2.34.57,3.36.97,4.71,6.31,8.77,13.35,16.78,6.36,1.92-1.54,3.84-3.3,5.87-4.7,1.33-.87,2.87-1.73,4.19-2.61.71-.36,1.72-.66,2.52-.7.44.06,1.26-.03,1.68-.17,1.89-.45,3.94-.74,5.87-.44,1.61.23,2.86.62,4.19-.61,1.54-1.03,3.36-1.87,5.03-2.65,1.42-.69,2.65-2.06,4.19-2.54,2.42-.76,5.12-.26,7.55.19,6.04,1.52,11.54,4.79,17.62,6.15,2.47.5,5.07.12,7.55-.03"/><path class="b" d="M11.69,156.17c2.49.61,5.08,1.24,7.55,1.93,2.42,2.04,5.24,3.87,8.39,4.52,1.89.4,3.95.41,5.87.2,1.35-.11,2.91-.67,4.19.02,4.58,1.84,7.97-1.01,11.74-3.21,3.07-1.92,6.1-4.06,9.23-5.89,2.22-1.46,4.92-2.11,7.55-2.22,1.12.21,2.35.8,3.36,1.33,3.03,1.9,6.57,2.73,10.07,3.27,5.57.97,11.27.35,16.78-.73,2.1-.64,3.06,2.2,4.19,3.45,1.4,1.88,3,3.95,5.03,5.18,4.09,2.32,7.89-2.02,10.91-4.32,1.8-1.49,3.8-2.99,5.87-4.09.93-.7,2.19-1.38,3.36-1.55,4.98-1.41,5.75-1.83,10.91-.29.86-.21,1.77-.97,2.52-1.41,1.04-.59,2.3-1.23,3.36-1.79,1.55-1.38,3-3.26,5.03-3.93,4.2-1.04,8.69.92,12.58,2.36,4.45,1.61,8.75,3.91,13.42,4.81,2.19.39,4.51.11,6.71.07"/><path class="b" d="M11.69,154.68c1.94.48,3.95,1.16,5.87,1.69,3.31,2.94,7.2,5.58,11.74,5.95,2.49.28,5.08,0,7.55-.37,1.33.33,2.8.84,4.19.73,3.1-.56,5.68-2.75,8.39-4.21,1.92-1.12,4.05-2.14,5.87-3.43,2.21-1.33,4.38-3,6.71-4.12,4.74-1.89,5.92-1.15,10.07,1.33,2.31,1.26,5.02,1.8,7.55,2.41,6.07,1.33,12.39,1.18,18.46-.08,1.69,1.25,3.31,2.87,5.03,4.1,1.74,1.84,3.85,4.47,6.71,3.69,2.22-.64,4.1-2.3,5.87-3.72,2.1-1.81,4.44-3.5,6.71-5.08.93-.74,2.26-1.19,3.36-1.61,1.58-.6,3.34-1.2,5.03-1.4,2.05-.24,3.95.96,5.87,1.46.84-.24,1.77-.96,2.52-1.4.77-.43,1.84-.96,2.52-1.53,1.47-1.77,2.9-3.99,5.03-5.01,4.16-1.49,9.54,1.1,13.42,2.63,4.43,1.68,8.78,3.86,13.42,4.9,2.18.48,4.51.23,6.71.3"/><path class="b" d="M11.69,153.04c1.36.36,2.86.86,4.19,1.3.86.47,1.78,1.44,2.52,2.07,2.6,2.32,5.77,4.13,9.23,4.75,3.3.65,6.75.5,10.07.05,1.35.2,2.87.57,4.19.03,3.54-1.46,6.56-4.08,10.07-5.62,1.81-.59,3.41-1.89,5.03-2.85,2.28-1.13,4.36-2.85,6.71-3.83,4.39-1.78,5.58-.36,9.23,1.89,2.6,1.35,5.55,2.19,8.39,2.88,3.83.79,7.83,1.12,11.74.98,1.93-.11,3.94-.57,5.87-.67,3.08,2.81,6.72,5.55,10.91,6.27,2.63-.14,4.74-2.17,6.71-3.71,2.83-1.98,4.95-5.29,8.39-6.25,2.36-.93,4.96-2.1,7.55-1.61,1.41.35,2.82,1.19,4.19,1.65,1.12-.46,2.27-1.32,3.36-1.86,2.29-2.25,3.52-5.96,6.71-7.16,2.21-.63,4.58.14,6.71.72,2.29.6,4.57,1.51,6.71,2.5,4.41,1.74,8.82,3.74,13.42,4.91,2.17.59,4.52.27,6.71.57"/><path class="b" d="M11.69,151.25c1.07.31,2.37.64,3.36,1.18.75.69,1.75,1.62,2.52,2.28,1.96,1.71,4.23,3.29,6.71,4.13,3.75,1.27,7.81,1.51,11.74,1.4,1.06-.04,2.3-.13,3.36-.24.78.11,1.79-.06,2.52-.35,2.94-1.31,5.51-3.47,8.39-4.9,1.01-.56,2.3-1.01,3.36-1.47,1.97-1.61,4.37-2.75,6.71-3.69,1.12-.5,2.24-1.45,3.36-1.96,1.27-.62,2.8-1.06,4.19-1.29,2.9.36,4.87,3.07,7.55,4.02,5.45,2.68,11.61,3.4,17.62,3.36,1.93-.07,3.96-.28,5.87-.49.97-.02,1.78.99,2.52,1.49,1.25.93,2.75,1.86,4.19,2.46,7.8,3.42,10.74-3,15.94-7.2,1.17-.89,2.71-1.63,4.19-1.74,1.26-.68,2.79-1.23,4.19-1.53,2.45-.61,4.6,1.13,6.71,2.07.78-.36,1.76-.99,2.52-1.4,2.53-2.69,3.68-7.4,7.55-8.49,3.49-.36,6.78,1.61,10.07,2.5,5.32,1.88,10.51,4.27,15.94,5.84,2.42.82,5.06.67,7.55.95"/><path class="b" d="M11.69,149.32c.86.18,1.93.55,2.52,1.24,1.05.9,2.27,1.99,3.36,2.85,3.27,2.82,7.5,4.16,11.74,4.55,2.48.29,5.06.45,7.55.45,1.64-.02,3.49,0,5.03-.63,3.18-1.51,5.98-3.86,9.23-5.25,1.56-.48,2.82-1.78,4.19-2.59,1.52-.92,3.32-1.61,5.03-2.06,1.19-.25,2.36-.97,3.36-1.63,1.26-.71,2.78-1.26,4.19-1.54,2.69-.41,4.56,2.45,6.71,3.63,3.08,1.82,6.48,3.29,10.07,3.66,4.72.61,9.53.48,14.26.1.86-.24,1.89.26,2.52.84.99.71,2.25,1.45,3.36,1.95,8.05,3.69,11.14-2.67,16.78-6.8.95-.64,2.22-1.23,3.36-1.44,1.08-.41,2.24-1.21,3.36-1.55,3.7-1.57,5.34.38,8.39,2.07,4.79-1.75,5.05-10.79,10.91-10.54,2.65.35,5.06,1.87,7.55,2.76,2.45.95,5.13,1.51,7.55,2.54,3.87,1.32,7.78,2.76,11.74,3.77,1.89.5,3.95.44,5.87.57"/><path class="b" d="M11.69,147.31c9.26,7.35,9.95,7.66,21.81,8.53,3.31.23,7.03.46,10.07-1.06,1.63-.95,3.36-2.05,5.03-2.93.74-.38,1.75-.87,2.52-1.18.42-.35,1.25-1.05,1.68-1.39,2.66-2.02,6-3.03,9.23-3.7.86-.13,1.76-.89,2.52-1.28,1.27-.67,2.79-1.16,4.19-1.43,2.06,0,3.56,1.97,5.03,3.17,3.29,2.76,7.39,4.7,11.74,4.78,5.02.3,10.09-.11,15.1-.35,1.65.83,3.26,2.07,5.03,2.66,7.14,2.86,10.75-3.08,15.94-6.58.69-.44,1.73-.94,2.52-1.18,2.22-1.45,4.77-3.21,7.55-2.88,1.9.46,3.36,2.12,5.03,3.03,4.5-1.67,5.23-12.83,11.74-10.71,2.61.95,4.93,2.75,7.55,3.7,2.72,1.01,5.67,1.46,8.39,2.48,5.24,1.35,10.43,3.7,15.94,3.47"/><path class="b" d="M11.69,145.99c6.46,4.45,8.57,6.43,16.78,6.63,2.49.12,5.06.44,7.55.55,2.53.02,5.14-.4,7.55-1.15,1.72-.55,3.5-1.37,5.03-2.31,1.66-1.04,3.27-2.47,5.03-3.35,2.13-.94,4.49-1.62,6.71-2.31,1.4-.31,3.02-.44,4.19-1.36,1.51-.83,3.31-1.45,5.03-1.62.89.23,1.87.97,2.52,1.59,2.39,2.47,5.06,5.04,8.39,6.16,3.24,1,6.74.54,10.07.4,3.61-.34,7.29-.49,10.91-.63,4.49,3.15,9.55,4.66,14.26,1.02,2.48-1.78,4.78-4,7.55-5.34,1.39-1.4,3.16-2.62,5.03-3.27,1-.42,2.27-.77,3.36-.55,1.94.52,3.34,2.34,5.03,3.33l.84-.05c1.59-2.03,2.97-4.56,4.19-6.82,1.2-2.11,3.04-4.99,5.87-4.29,1.86.48,3.46,1.85,5.03,2.9,1.51,1.03,3.28,1.92,5.03,2.43,4.2.95,8.39,2.16,12.58,3.15,3.28.82,6.65,1.87,10.07,1.7"/><path class="b" d="M11.69,144.57c6.18,3.72,8.5,5.23,15.94,5.09,4.46.06,9.01,1.03,13.42-.06,3.93-.75,7.46-2.77,10.91-4.68,1.55-.74,3.4-1.05,5.03-1.54,1.63-.51,3.32-1.31,5.03-1.51,1.21-.02,2.34-.73,3.36-1.3,1.28-.61,2.81-1,4.19-1.24,1.79.41,3.02,2.23,4.19,3.52,2.53,2.93,5.99,5.62,10.07,5.3,5.04-.27,10.03-1.55,15.1-1.51,1.05,0,2.32-.19,3.36.05.39.28,1.26.8,1.68,1.05,2.26,1.27,4.92,2.28,7.55,1.99,3.95-.51,6.83-3.7,10.07-5.71,1.67-1.76,3.55-3.65,5.87-4.51,1.27-.54,2.77-1.23,4.19-.97,2.32.47,3.58,3.27,5.87,3.67,1.57-2.04,2.99-4.55,4.19-6.82,1.92-3.63,4.44-6.56,8.39-3.27,2.03,1.69,4.13,3.6,6.71,4.39,4.7,1.26,9.47,2.5,14.26,3.41,3.02.62,6.12,1.47,9.23,1.37"/><path class="b" d="M11.69,143.05c6.45,3.26,8.71,3.95,15.94,3.63,3.91-.1,7.85.87,11.74.25,4.13-.53,7.95-2.38,11.74-3.96,1.86-.7,3.99-.82,5.87-1.44,1.06-.36,2.28-.89,3.36-1.21,1.04-.29,2.32-.33,3.36-.63,1.23-.82,2.75-1.47,4.19-1.78.77-.17,1.78-.48,2.52-.05,1.69,1.13,2.89,3.11,4.19,4.62,1.4,1.54,3.06,3.17,5.03,3.93,3.58,1.26,7.36-.31,10.91-.97,2.73-.66,5.58-1.09,8.39-1.09,1.34.08,3.01-.43,4.19.29,6.41,4.22,10.83,4.32,16.78-.76,1.55-1.64,3.18-3.5,5.03-4.81,1.76-1.07,3.83-2.06,5.87-2.43,2.85-.25,4.23,3.11,6.71,3.76,3.61-2.43,5.54-13.46,10.91-11.23,2.45,1.43,4.09,4.13,6.71,5.32,1.28.61,2.81,1,4.19,1.27,2.18.67,4.5,1.2,6.71,1.76,2.45.67,5.04,1.12,7.55,1.54,2.18.38,4.49.79,6.71.73"/><path class="b" d="M11.69,141.51c6.84,2.53,8.77,2.56,15.94,2.23,3.63-.16,7.28.79,10.91.55,4.69-.29,8.93-2.64,13.42-3.73,1.64-.3,3.45-.54,5.03-1.1,1.85-.77,3.89-1.19,5.87-1.39.79-.26,1.75-.9,2.52-1.22,1.28-.52,2.82-.85,4.19-1,2.99,1.5,4.19,5.25,6.71,7.34,3.73,3.87,8.13,2.46,12.58.94,3.51-1.19,7.17-2.13,10.91-2.1,1.05-.01,2.31-.16,3.36.01.73.5,1.75,1.13,2.52,1.56,3.25,1.89,7.38,3.24,10.91,1.28,3.42-2.17,5.61-6.03,9.23-7.96,2.1-.82,4.36-2.46,6.71-1.84,2.18.64,3.42,3.68,5.87,3.32,1.72-1.82,3.01-4.35,4.19-6.53,1.19-2.04,2.97-5.7,5.87-4.54,1.28.7,2.37,2.09,3.36,3.15,1.51,1.71,3.62,2.97,5.87,3.4,2.73.81,5.62,1.31,8.39,1.99,4.61,1.41,9.41,2.5,14.26,2.44"/><path class="b" d="M11.69,139.91c2.22.28,4.47.97,6.71,1.09,2.77.23,5.62-.08,8.39-.14,3.93-.2,7.84.67,11.74.81,3.77-.06,7.35-1.59,10.91-2.69,1.6-.52,3.39-.8,5.03-1.13,1.64-.34,3.36-.98,5.03-1.19,1.06-.09,2.34-.2,3.36-.53.7-.46,1.72-.99,2.52-1.27,3.63-1.09,4.44-1.22,6.71,2.04,9.47,14.83,13.23,2.8,31.04,2.79,4.18,2.23,9.74,6.56,14.26,2.82,2.6-2.04,4.73-4.84,7.55-6.61,1.84-.98,3.89-1.89,5.87-2.52,2.37-.62,4.18,1.42,5.87,2.73.7.33,1.76.35,2.52.38,1.3-1.41,2.46-3.39,3.36-5.07,1.33-2.25,3.38-7.75,6.71-5.29,2.98,3.09,3.86,5.15,8.39,6.28,2.98.96,6.23,1.01,9.23,1.88,2.24.59,4.46,1.56,6.71,2.11,2.17.42,4.5.52,6.71.47"/><path class="b" d="M11.69,137.95c5.29.78,10.63.1,15.94.11,2.5.04,5.07.27,7.55.58,1.91.21,3.94.6,5.87.41,2.87-.28,5.66-1.35,8.39-2.22,2.15-.71,4.49-1.14,6.71-1.57,1.63-.27,3.42-.26,5.03-.6.82-.22,1.75-.88,2.52-1.23,1.28-.57,2.81-.87,4.19-1.05,3.71-.06,5.94,9.05,11.74,10.07,2.29.42,4.62-.47,6.71-1.3,2.44-.99,4.98-2,7.55-2.58,3.02-.59,6.2-.22,9.23-.77,2.31.78,4.43,2.35,6.71,3.26,1.31.48,2.75,1.31,4.19,1.22,3.86-.64,6.22-4.41,9.23-6.58,1.44-1.2,3.31-1.99,5.03-2.7,1.02-.46,2.24-1.07,3.36-1.25,1.94-.35,3.63,1.07,5.03,2.21,1.02.3,2.3.5,3.36.65,2.9-1.78,5.33-12.99,9.23-10.21,1.18,1.06,2.25,2.63,3.36,3.75,1.57,1.53,3.76,2.52,5.87,3.02,3.33.61,6.84.59,10.07,1.73,2.23.71,4.43,1.83,6.71,2.38,1.61.34,3.4.27,5.03.18"/><path class="b" d="M11.69,135.81c4.47.12,8.96-.57,13.42-.57,4.47,0,8.97.48,13.42.88,3.08.59,6.27.34,9.23-.71,1.89-.63,3.89-1.32,5.87-1.62,1.91-.31,3.97-.38,5.87-.76.85-.11,1.77-.79,2.52-1.15.72-.34,1.74-.71,2.52-.88,1.82-.31,3.6-.85,5.03.66,1.86,1.75,3.27,4.17,5.03,6.01,3.72,3.78,7.33,3.32,11.74,1.07,2.93-1.31,5.99-2.79,9.23-3.05,1.64-.05,3.4.27,5.03.42.74.07,1.77.13,2.52.11.81.15,1.77.76,2.52,1.1,1.91.9,4.02,1.68,5.87,2.69,4.81,2.64,8.86-3.97,12.58-6.16,1.23-.87,2.82-1.47,4.19-2.05,1.03-.47,2.26-1.11,3.36-1.42.72-.2,1.78-.23,2.52-.04.79.24,1.74.89,2.52,1.18,1.37.27,2.84.83,4.19,1.14l.84-.3c2.14-2.43,3.79-9.24,6.71-9.91,1.88.44,2.87,2.67,4.19,3.91,3.56,4.07,7.78,3.29,12.58,3.91,2.61.35,5.16,1.36,7.55,2.42,2.34,1.1,4.96,1.82,7.55,1.4"/><path class="b" d="M11.69,133.39c4.18-.31,8.39-.94,12.58-.9,6.14.15,12.34.23,18.46.92,4.54.69,8.94-1.41,13.42-1.86,1.48-.07,2.89-.84,4.19-1.47,1.55-.7,3.34-1.09,5.03-1.14,2.25-.34,3.59.73,5.03,2.3,1.81,2,3.48,4.45,5.87,5.82,3.63,2.3,7.53.53,10.91-1.32,2.65-1.24,5.44-2.67,8.39-2.96,1.67-.04,3.42.45,5.03.84,1.05.31,2.4.34,3.36.92,2.77,2.01,6.04,3.28,9.23,4.46,4.04.67,7-3.64,10.07-5.63,2.24-1.72,5.1-2.46,7.55-3.79.7-.34,1.74-.72,2.52-.85,1.05-.07,2.31.05,3.36.11,2.01.42,3.98,1.41,5.87,2.2,2.43-2.86,2.97-7.36,5.87-9.81l.84.07c1.67,1.09,2.77,3.11,4.19,4.47,3.28,3.38,8.39,2.14,12.58,2.91,4.96.57,9.16,4.58,14.26,4.06"/><path class="b" d="M11.69,130.87c5.55-.76,11.18-.88,16.78-.79,6.7-.66,13.45-.01,20.13.31,2.22-.23,4.58-.48,6.71-1.17,2.95-1.05,6.02-2.31,9.23-2.02.75.05,1.77.14,2.52.19.84.37,1.84,1.12,2.52,1.72,3.06,2.9,6.24,6.87,10.91,6.52,2.4-.17,4.63-1.41,6.71-2.52,2.13-1.12,4.44-2.15,6.71-2.96,2.5-.92,5.17.11,7.55.94,1.99.36,3.41,2.01,5.03,3.08,2.5,1.63,5.33,3.32,8.39,3.43,1.89-.15,3.58-1.43,5.03-2.56,2.35-1.83,4.61-4.06,7.55-4.89,3.04-1.23,5.93-3.28,9.23-3.76,2.44.01,4.76,1.5,6.71,2.83l.84-.42c1.62-2.6,2.19-6.24,4.19-8.59l.84-.17c1.77.84,2.8,2.94,4.19,4.24,3.06,3.13,7.82,2.08,11.74,2.58,5.32.35,9.74,4.39,15.1,4.33"/><path class="b" d="M11.69,128.46c3.88-.48,7.84-.51,11.74-.59,3.02-.64,6.11-1.46,9.23-1.35,5.03.07,10.06.96,15.1.79,3.7.07,7.3-1.09,10.91-1.72,2.21-.38,4.54-.14,6.71.37,1.12.18,2.45.39,3.36,1.15,4.68,3.54,8.76,7.76,15.1,5.14,3.94-1.62,7.59-4.22,11.74-5.26,2.63-.28,5.21.98,7.55,2.03,3.32,3.04,7.05,6.77,11.74,7.22,3.47-.1,5.76-3.23,8.39-5.09.93-.7,2.27-1.08,3.36-1.44,1.07-.42,2.32-1.01,3.36-1.52,1.65-.81,3.4-1.76,5.03-2.59,1.76-.94,3.99-1.68,5.87-.63.82.38,1.86,1.04,2.52,1.66,0,0,.84.68.84.68l.84.16c.81-1.88,1.74-4.53,2.52-6.42.3-.61.97-1.81,1.68-2.04,1.48.16,2.42,1.85,3.36,2.84,2.92,4.05,8.27,2.9,12.58,3.4,5.27.44,9.79,4.07,15.1,4.19"/><path class="b" d="M11.69,126.24c2.79-.13,5.67-.45,8.39-1.11,2.69-.9,5.54-1.59,8.39-1.5,4.77,0,9.5,1.14,14.26,1.27,4.77.17,9.54-.72,14.26-1.29,2.86-.43,5.71.43,8.39,1.34,1.38.54,3.03.37,4.19,1.08,9.09,5.93,11.56,5.63,20.97.66,1.61-.74,3.27-1.86,5.03-2.19,2.21.53,4.5,1.17,6.71,1.72,2.49,1.5,4.37,4,6.71,5.72,1.64,1.41,3.61,2.96,5.87,3.02,3.08,0,5.28-2.57,7.55-4.29.91-.74,2.23-1.2,3.36-1.45,1.37-.47,2.86-1.12,4.19-1.69,2.59-1.09,5.08-2.58,7.55-3.91,2.99-1.79,6.11-.56,8.39,1.78,1.18-2.16,1.7-5.26,3.36-7.13l.84-.2c1.36.56,2.33,2.09,3.36,3.08,3.03,3.17,7.84,1.82,11.74,2.49,5.18.57,9.84,3.67,15.1,3.79"/><path class="b" d="M11.69,123.51c2.85-.38,5.63-1.41,8.39-2.16,2.16-.57,4.49-.78,6.71-.73,5.6.18,11.18,1.15,16.78,1.38,3.9.27,7.85-.23,11.74-.33,1.35,0,2.86-.08,4.19.16,3.12.77,5.96,2.77,9.23,2.98.75.05,1.77-.08,2.52.03,1.32.64,2.81,1.32,4.19,1.83,2.36.94,5.03,1.5,7.55.96,3.55-.8,6.86-2.59,10.07-4.24,1.26-.98,2.89.05,4.19.44,1.62.63,3.43,1.14,5.03,1.82,1.95,1.55,3.97,3.25,5.87,4.85,1.91,1.55,4.12,3.33,6.71,3.31,3.03-.09,5.28-2.44,7.55-4.14.92-.71,2.27-.96,3.36-1.28,1.91-.71,3.97-1.38,5.87-2.11,2.02-.8,4.04-1.9,5.87-3.05,2.8-1.84,6.78-3.72,9.23-.34,1.53-1.42,1.57-4.4,3.36-5.64l.84.03c1.23.72,2.25,2.1,3.36,2.98,1.62,1.33,3.87,1.45,5.87,1.44,1.64.01,3.41.06,5.03.27,5.1.7,9.91,3.01,15.1,3.22"/><path class="b" d="M11.69,119.37c3.87-.72,7.77-1.79,11.74-1.66,6.17.03,12.34.67,18.46,1.38,3.32.38,6.73.36,10.07.49,2.48.26,5.12.21,7.55.77,2.23.92,4.38,2.3,6.71,2.99,2.19.74,4.54.25,6.71-.3,2.72.86,5.5,2.03,8.39,2.15,4.47.06,8.7-2.09,12.58-4.09,2.63.68,5,2.34,7.55,3.26,3.26,2.58,6.37,5.6,10.07,7.56,4.7,2.27,8.09-1.53,11.74-3.8,2.49-.72,5.02-1.6,7.55-2.18,2.67-.71,5.26-1.95,7.55-3.47,1.56-1.05,3.27-2.16,5.03-2.85,1.47-.71,3.13-.31,4.19.91l.84-.16c.55-1.26,1.17-3.41,2.52-4.05,1.34.07,2.34,1.44,3.36,2.18,2.84,2.27,6.73,1.2,10.07,1.59,3.1.22,6.19,1.04,9.23,1.65,2.19.46,4.52.6,6.71,1.03"/><path class="b" d="M11.69,115.11c4.18-.22,8.41-.21,12.58-.03,3.34.07,6.74.07,10.07.41,3.07.31,6.17.91,9.23,1.27,3.62.4,7.32.74,10.91,1.4,1.62.36,3.56.09,5.03.92,5.26,2.91,8.39,4.49,14.26,1.76,2.77.66,5.52,1.83,8.39,1.97,4.47.29,8.56-1.95,12.58-3.47,1.41.67,2.87,1.63,4.19,2.46,1.17.63,2.42,1.54,3.36,2.48,1.58,1.39,3.36,2.81,5.03,4.08,1.73,1.29,3.69,2.66,5.87,2.99,3.87.45,6.93-2.58,10.07-4.32,1.64-.43,3.37-1.04,5.03-1.39,1.64-.28,3.44-.47,5.03-.99,3.06-.89,5.79-2.75,8.39-4.54,1.55-.86,3.21-2.14,5.03-2.22.87.11,1.82.82,2.52,1.3.54-1.19,1.2-3.19,2.52-3.73,1.26.07,2.32,1.21,3.36,1.8,2.77,1.64,6.18.82,9.23,1.04,3.11.06,6.17,1.03,9.23,1.44,1.05.15,2.3.11,3.36.08,1.07.07,2.31.4,3.36.64"/><path class="b" d="M11.69,112.05c3.61.24,7.28.54,10.91.62,3.62.06,7.3-.17,10.91.21,3.08.3,6.18.98,9.23,1.5,3.35.56,6.77,1.1,10.07,1.91,1.04.22,2.3.43,3.36.55.78.08,1.84.08,2.52.53,3.54,1.97,7.65,4.02,11.74,2.54,1.35-.31,2.78-1.51,4.19-1,2.77.65,5.52,1.79,8.39,1.97,4.4.31,8.65-1.39,12.58-3.16,3.48,2,6.17,5.09,9.23,7.63,2.68,2.1,5.6,4.86,9.23,4.71,3.12-.28,5.68-2.47,8.39-3.83.96-.6,2.3-.78,3.36-1.14,1.59-.51,3.38-.57,5.03-.63,5.1-.21,9.26-3.44,13.42-6.01,1.75-1.1,3.88-2.67,5.87-1.17,1.01-.63,1.45-2.13,2.52-2.69,1.51-.13,2.79,1.2,4.19,1.58,2.7.8,5.62.15,8.39.33,3.07.44,6.18,1.09,9.23,1.62,1.91.24,3.96.19,5.87.4"/><path class="b" d="M11.69,110.08c3.88.34,7.85.52,11.74.45,4.75-.23,9.58-.29,14.26.69,3.34.65,6.75,1.33,10.07,2.1,2.49.56,5.01,1.4,7.55,1.7,1.83-.02,3.42,1.16,5.03,1.86,4.68,2.27,7.96,1.77,12.58-.24,6.78,1.35,10.27,4.14,17.62,2.1,1.07-.25,2.35-.59,3.36-1.05,1-.44,2.22-1.14,3.36-.95,2.74,2.14,4.82,5.15,7.55,7.33,2.95,2.56,6.77,5.72,10.91,4.05,2.04-.75,3.92-2.12,5.87-3.07,1.55-.72,3.37-1.13,5.03-1.49,1.34-.21,2.85-.05,4.19.01,5.35.17,9.92-3.09,14.26-5.78,1.99-1.27,4.22-3.27,6.71-2.15.62-.77,1.42-2.04,2.52-2.1,1.66.33,3.31,1.24,5.03,1.25,1.92.15,3.96-.3,5.87-.09,3.05.52,6.2.92,9.23,1.55,1.91.33,3.96.43,5.87.73"/><path class="b" d="M11.69,108.85c4.18,0,8.41-.13,12.58-.33,4.75-.38,9.58-.25,14.26.7,5.08.84,10.08,2.27,15.1,3.4,7.89,3.44,10.72,5.86,19.29,1.92,6.92,1.33,10.87,4.9,18.46,3.25,2.55-.2,4.96-2.29,7.55-1.55,3.32,3.7,8.26,10.08,13.42,10.67,3.13.16,5.73-2,8.39-3.31,1.79-.87,3.92-1.16,5.87-1.45,1.36-.06,2.85.28,4.19.44,5.17.42,10.05-2.28,14.26-4.99,2.66-1.46,5.11-4.13,8.39-3.72.59-.7,1.54-1.48,2.52-1.36,1.34.23,2.82.59,4.19.58,1.35,0,2.85-.14,4.19-.27,1.06.08,2.29.42,3.36.53,4.2.51,8.41,1.24,12.58,1.93"/><path class="b" d="M11.69,107.72c6.41-.56,12.86-1.22,19.29-1.27,8.39.23,16.7,2.26,24.33,5.73,4.51,2.11,9.38,3.81,14.26,1.83,1.38-.38,2.75-1.41,4.19-1.48,3.51.67,6.7,2.49,10.07,3.57,2.4.8,5.03,1.01,7.55.83,1.68-.04,3.4-.59,5.03-.89.75.12,1.77.25,2.52.36.78.11,1.84.3,2.52.74,0,0,.84.97.84.97,1.26,1.44,2.74,3.01,4.19,4.26,5.72,5,8.66,1.97,14.26-.85.99-.45,2.28-.64,3.36-.73,1.05-.12,2.31-.25,3.36-.05,1.35.26,2.82.74,4.19.87,1.95.16,4.01-.31,5.87-.84,5.27-1.44,9.6-4.91,14.26-7.59.98-.48,2.26-.87,3.36-.98.33-.26,1.26-.66,1.68-.78,1.91-.16,3.96.14,5.87-.14.73-.07,1.77-.25,2.52-.15,1.03.27,2.3.48,3.36.59,3.92.37,7.89.92,11.74,1.73"/><path class="b" d="M11.69,106.51c8.85-1.2,17.93-2.49,26.84-1.25,6.11,1.01,11.92,3.44,17.62,5.79,3.41,1.41,7.18,2.66,10.91,1.94,2.31-.42,4.57-1.4,6.71-2.34,1.38-.38,2.9.52,4.19.94,2.22.92,4.45,2.09,6.71,2.91,3.19,1.23,6.69,1.36,10.07,1.24,1.6.49,3.39.77,5.03,1.07,1.38.25,2.9.65,4.19,1.2,2.23,2.32,4.86,5.31,8.39,5.02,3.95-.43,6.82-4.21,10.91-4.13,6.86-.24,6.29,3.27,15.1.67,2.59-.74,5.17-1.83,7.55-3.1,2.51-1.44,4.94-3.2,7.55-4.47,2.86-1.39,6.07-2.04,9.23-2.23.73-.09,1.77-.24,2.52-.25,1.04.21,2.3.45,3.36.56,3.92.28,7.91.58,11.74,1.51"/><path class="b" d="M11.69,105.27c4.71-.81,9.49-1.52,14.26-1.91,3.88-.35,7.86-.6,11.74-.07,6.44.85,12.47,3.52,18.46,5.91,3.68,1.5,7.74,2.79,11.74,1.95,1.99-.38,4-1.14,5.87-1.89,1.82-.87,2.4-.71,4.19.06,3.08,1.27,6.03,3.03,9.23,4.01,2.15.78,4.66.54,6.71,1.59,3.48,1.49,7.38,1.88,10.91,3.25.75.28,1.78.71,2.52,1.03,1.17.89,2.69,1.68,4.19,1.63,3.74-.14,6.39-3.64,10.07-4.03,6.02-.45,7.8,3.57,14.26,2.06,3.75-.71,7.48-1.9,10.91-3.58,3.3-1.82,6.55-3.89,10.07-5.28,2.67-.98,5.57-1.54,8.39-1.87,1.34.06,2.85.3,4.19.37,3.63.11,7.35.21,10.91,1.08"/><path class="b" d="M11.69,104.08c4.72-.82,9.5-1.62,14.26-2.16,4.15-.51,8.41-.9,12.58-.34,6.16.73,11.91,3.29,17.62,5.57,3.7,1.49,7.7,2.89,11.74,2.35,2.58-.3,5.1-1.25,7.55-2.06.43-.13,1.26-.41,1.68-.55,1.13.13,2.32.8,3.36,1.25,2.46,1.15,4.96,2.48,7.55,3.31,1.04.37,2.37.49,3.36,1,2.08,1.24,4.37,2.31,6.71,2.96,2.47.75,5.06,1.42,7.55,2.11,2.15.53,4.49,1.24,6.71.81,3.48-.88,6.23-4.34,10.07-3.75,4.31.53,7.11,3.89,11.74,2.99,4.27-.65,8.56-1.73,12.58-3.3,2.59-1.04,4.98-2.68,7.55-3.75,2.43-1.05,4.91-2.35,7.55-2.77,2.69-.87,5.59-.9,8.39-.77,3.34-.08,6.78-.15,10.07.56"/><path class="b" d="M11.69,102.97c5.3-.86,10.62-1.83,15.94-2.57,6.41-1.1,13.1-1.03,19.29,1.11,5.09,1.63,9.96,4.05,15.1,5.54,9.07,2.76,15.58-2.95,18.46-1.23,2.76,1.19,5.52,2.63,8.39,3.55,1.73.73,3.37,1.98,5.03,2.83,2.6,1.35,5.55,2.14,8.39,2.79,4.14.94,8.64,1.16,12.58-.64,2.76-1.19,5.27-2.94,8.39-1.73,2.82,1.02,5.24,3.37,8.39,3.38,2.82.07,5.66-.63,8.39-1.26,2.5-.62,5.12-1.16,7.55-2.03,2-.69,3.98-1.73,5.87-2.68,2.19-.93,4.5-1.84,6.71-2.7,1.56-.67,3.37-.95,5.03-1.24,1.86-.59,3.95-.49,5.87-.61,3.05-.24,6.19-.48,9.23.02"/><path class="b" d="M11.69,101.89c4.76-.67,9.53-1.51,14.26-2.36,3.59-.64,7.25-1.38,10.91-1.43,6.74-.27,13.11,2.36,19.29,4.7,3.78,1.42,7.67,2.97,11.74,3.17,4.56.24,8.98-1.38,13.42-2.13,2.21.87,4.48,1.87,6.71,2.68,1.36.84,2.8,1.87,4.19,2.65,3.95,2.51,8.75,3.74,13.42,3.56,2.56-.13,5.13-.82,7.55-1.63,2.14-.7,4.41-1.6,6.71-1.48,2.14.11,4.09,1.34,5.87,2.43,4.22,2.92,9.56,2.19,14.26,1.06,3.35-.82,6.81-1.51,10.07-2.67,3.84-1.66,7.78-3.25,11.74-4.6,3.21-1.16,6.69-1.58,10.07-1.9,2.75-.36,5.61-.73,8.39-.47"/><path class="b" d="M11.69,100.78c5.05-.56,10.12-1.32,15.1-2.35,6.57-1.55,13.51-2.72,20.13-.75,3.96,1.08,7.87,2.53,11.74,3.89,4.81,1.75,9.95,3.21,15.1,2.42,2.21-.3,4.5-.75,6.71-1.09,1.05-.15,2.29-.43,3.36-.44.42.14,1.26.43,1.68.58,1.54.36,2.96,1.32,4.19,2.28,1.58,1.03,3.35,2.05,5.03,2.9,3.38,1.53,7.27,2.11,10.91,1.25,5.42-1.37,11.36-4.29,16.78-1.36,2.48,1.23,4.85,2.99,7.55,3.71,4.43.99,9.08-.06,13.42-1.05,2.49-.62,5.1-1.22,7.55-1.99,2.78-1,5.56-2.24,8.39-3.1,3.82-1.31,7.71-2.6,11.74-3.03,3.04-.42,6.14-1.14,9.23-1.09"/><path class="b" d="M11.69,99.53c5.04-.42,10.15-.83,15.1-1.92,5.22-1.17,10.52-2.77,15.94-2.25,5.76.58,11.28,2.64,16.78,4.34,5.11,1.72,10.5,3.2,15.94,2.45,2.48-.3,5.06-.62,7.55-.84,1.35-.06,2.86-.48,4.19-.24,2.32,1.75,4.92,3.28,7.55,4.53,3.12,1.43,6.76,1.96,10.07.86,6.03-2.28,10.47-3.65,16.78-1,2.39.88,4.41,2.63,6.71,3.68,2.33,1.08,5.03,1.18,7.55,1.06,2.22-.09,4.54-.34,6.71-.8,3.08-.64,6.21-1.44,9.23-2.32,2.77-.94,5.58-2.05,8.39-2.88,3.05-.87,6.1-2.03,9.23-2.59,3.61-.62,7.25-1.53,10.91-1.85"/><path class="b" d="M11.69,98.06c4.46-.23,9-.22,13.42-.89,4.25-.61,8.34-2.15,12.58-2.76,4.48-.74,9.06-.07,13.42,1.01,5.92,1.25,11.66,3.41,17.62,4.52,3.31.62,6.74.42,10.07.09,2.77-.17,5.62-.26,8.39-.31,1.32.54,2.87.92,4.19,1.46,1.6.8,3.34,1.67,5.03,2.26,2.38.92,5.1,1.14,7.55.34,1.95-.61,3.87-1.64,5.87-2.09,3.91-.94,8,.04,11.74,1.23,2.73.9,4.86,3.18,7.55,4.19,2.89,1.16,6.16,1.13,9.23.96,6.64-.18,13.05-2.3,19.29-4.4,7.41-2.37,14.97-4.34,22.65-5.61"/><path class="b" d="M11.69,96.24c4.74-.11,9.54.42,14.26-.03,4.28-.41,8.35-2.08,12.58-2.75,4.73-.87,9.58-.13,14.26.71,6.21.95,12.21,3.11,18.46,3.86,3.61.44,7.29-.16,10.91-.03,1.91.15,4.01-.09,5.87.39,2.65,1.11,5.58,1.55,8.39,2.07,2.37.96,5.07,1.42,7.55.6,1.66-.5,3.35-1.36,5.03-1.8,4.15-1.13,8.5,0,12.58.9,2.99,1.05,5.41,3.41,8.39,4.5,3.19,1.3,6.73.86,10.07,1.18,5.76.3,11.35-1.68,16.78-3.35,7.74-2.33,15.55-4.49,23.49-6.05"/><path class="b" d="M11.69,94.05c2.78,0,5.63.15,8.39.5,2.76.34,5.61.79,8.39.49,3.7-.37,7.24-1.79,10.91-2.37,5.26-.96,10.67-.25,15.94.3,5.35.59,10.59,2.13,15.94,2.74,4.17.5,8.41-.23,12.58.29,1.35.12,2.85.29,4.19.4,1.65.38,3.35,1.11,5.03,1.35,1.9.37,3.95.55,5.87.72,1.64.15,3.42.45,5.03,0,7.04-2.44,9.38-2.56,16.78-1.26,3.33.66,6.14,2.74,9.23,4.03,2.11.81,4.46,1.16,6.71,1.3,3.24,1.01,6.7,1.46,10.07.91,2.82-.41,5.64-1.25,8.39-2,2.49-.69,5.09-1.32,7.55-2.11,5.81-1.68,11.72-3.14,17.62-4.47"/><path class="b" d="M11.69,91.63c2.5-.05,5.08.07,7.55.48,2.52.4,5.04,1.19,7.55,1.6,3.37.57,6.81-.19,10.07-1.03,6.02-1.52,12.3-1.38,18.46-1.24,5.92.13,11.73,1.63,17.62,2.08,2.77.24,5.62-.09,8.39.07,1.93.1,3.96.36,5.87.6,1.65.2,3.44.33,5.03.83,3.83.76,7.85.96,11.74.84,1.95-.33,3.92-1.06,5.87-1.4,3.85-.71,7.9-.47,11.74.15,2.86.55,5.66,1.58,8.39,2.58,1.6.57,3.43.78,5.03,1.32,2.87,1.41,6.01,2.54,9.23,2.7,4.26.27,8.44-1.06,12.58-1.84,2.83-.5,5.64-1.42,8.39-2.25,5-1.35,10.06-2.67,15.1-3.84"/><path class="b" d="M11.69,89.33c1.06-.04,2.33-.25,3.36.08,1.55.81,3.31,1.5,5.03,1.81,1.62.29,3.41.26,5.03.02,1.88.6,3.88,1.29,5.87,1.37,2.81.15,5.64-.49,8.39-.99,3.03-.51,6.16-.82,9.23-1.07,3.61-.29,7.28-.65,10.91-.57,3.35.06,6.74.51,10.07.89,4.44.65,8.97.31,13.42.76,7.22.93,14.53,1.52,21.81,1.49,3.07-.36,6.12-1.3,9.23-1.4,3.05-.15,6.19.01,9.23.3,2.22.3,4.5.83,6.71,1.15,2.06.29,3.99,1.48,5.87,2.3,2.39,1.12,4.95,2.15,7.55,2.65,4.72.96,9.54-.15,14.26-.55,3.13-.43,6.21-1.48,9.23-2.37,4.46-1.15,8.93-2.46,13.42-3.45"/><path class="b" d="M11.69,87.41c.84-.27,1.87.09,2.52.64.72.47,1.74,1.05,2.52,1.42,3.37,1.71,7.37,1.64,10.91.48,4.64,1.89,8.63,1.42,13.42.67,4.46-.53,8.96-1.15,13.42-1.73,5.84-.85,11.77-.67,17.62-.05,3.05.3,6.18.28,9.23.56,3.89.38,7.83.99,11.74.97,4.18,0,8.41-.21,12.58.06,2.79.08,5.62-.52,8.39-.74,3.04-.28,6.18-.27,9.23-.17,2.79.07,5.68.24,8.39.95,3.72.97,7.19,2.91,10.91,3.9,3.24.96,6.7,1.29,10.07,1.34,2.2.07,4.51.37,6.71.02,3.14-.39,6.22-1.45,9.23-2.4,3.9-1.03,7.83-2.23,11.74-3.2"/><path class="b" d="M11.69,85.96c.54-.01,1.31.4,1.68.78.74.54,1.72,1.22,2.52,1.67,4.12,2.44,7.31,1.79,11.74,1.25.45-.06,1.24-.2,1.68-.27.45.13,1.26.45,1.68.65,1.3.49,2.83.56,4.19.41,3.33-.49,6.71-1.02,10.07-1.31,1.36-.17,2.86-.45,4.19-.78.76,0,1.77-.09,2.52-.2,6.61-1.34,13.38-2.2,20.13-1.6,3.05.23,6.18.36,9.23.67,3.6.39,7.28.82,10.91.63,3.05-.11,6.17-.43,9.23-.5,2.49-.12,5.07.2,7.55.07,4.45-.36,8.96-.48,13.42-.21,2.2.14,4.51-.19,6.71.02,6.65.47,12.82,3.33,19.29,4.68,3.73,1.4,7.69,2.64,11.74,2.26,3.76-.27,7.37-1.64,10.91-2.84,3.05-.92,6.17-1.87,9.23-2.75"/><path class="b" d="M11.69,84.88c1.69.98,3.23,2.47,5.03,3.28,3.39,1.51,7.21,2.14,10.91,1.69,1.06-.08,2.29-.33,3.36-.34.76.18,1.75.19,2.52.06,1.95-.36,3.91-1.11,5.87-1.4,3.32-.52,6.81.1,10.07-.89,1.9-.45,3.94-.72,5.87-.98,1.34-.34,2.84-.71,4.19-.99,4.39-.94,8.95-1.24,13.42-.98,5.6.19,11.17,1.46,16.78,1.28,3.63-.14,7.29-.62,10.91-.95,3.04-.33,6.18-.38,9.23-.65,6.42-.72,12.93-.34,19.29.67,4.16.74,8.45.94,12.58,1.82,2.34.43,4.74,1.08,6.71,2.48,12.57,7.59,19.54,1.9,31.88-1.77"/><path class="b" d="M11.69,83.97c8.09,6.05,9.6,5.51,19.29,4.61,1.46-.07,2.9-.84,4.19-1.44,1.55-.72,3.32-1.29,5.03-1.36,1.35-.05,2.85.09,4.19.23,2.78-.65,5.48-2.05,8.39-2.1,1.64-.09,3.4.14,5.03.25,1.67-.27,3.37-.98,5.03-1.3,3.83-.88,7.85-.84,11.74-.55,4.74.43,9.47,1.77,14.26,1.3,7.55-.71,15.08-1.97,22.65-2.52,6.73-.77,13.58-.42,20.13,1.34,2.46.6,5.03,1.12,7.55,1.34,1.96.11,4.02.15,5.87.87,1.54.28,2.92,1.33,4.19,2.18,1.59.98,3.35,2,5.03,2.81,2.85,1.33,6.08,2.08,9.23,1.68,5.83-.76,11.26-3.35,16.78-5.24"/><path class="b" d="M11.69,82.96c6.05,4.88,7.24,5.59,15.1,4.18,1.34-.21,2.84-.38,4.19-.51.92.07,1.81-.7,2.52-1.18,1.23-.9,2.69-1.8,4.19-2.15,1.63-.39,3.4-.1,5.03.03,2.64-1.19,5.47-2.34,8.39-2.49,1.65-.06,3.43.17,5.03.55,1.33.24,2.85.9,4.19.54,3.43-1.46,7.2-2.03,10.91-1.7,2.52.07,5.1.33,7.55.93,4.12,1.05,8.42.95,12.58.22,4.46-.66,8.95-1.5,13.42-2.13,6.67-.71,13.43-2.41,20.13-1.08,3.4.56,6.69,1.87,10.07,2.52,1.33.27,2.84.52,4.19.68.75.09,1.81.11,2.52.42,2.69,1.21,5.58,2.12,8.39,2.98,3.51,2.46,7.31,5.13,11.74,5.32,6.43.04,12.49-2.75,18.46-4.83"/><path class="b" d="M11.69,82.41c1.22.53,2.21,1.83,3.36,2.5,3.03,2.21,6.78,1.32,10.07.26,2.16-.68,4.5-1.01,6.71-1.48,1.01-.89,2.19-1.98,3.36-2.66.97-.54,2.25-.84,3.36-.8,1.08.04,2.4.38,3.36-.3,6.56-3.22,11.9-1.56,18.46.29,1.37-.44,2.79-1.21,4.19-1.55,1.88-.5,3.95-.46,5.87-.27,1.63.16,3.39.32,5.03.34,1.65.31,3.38.84,5.03,1.16,3.03.69,6.2.34,9.23-.17,7.84-1.38,15.64-3.09,23.49-4.39,11.52-2.17,14.95,2.26,25.17,3.55,1.82,0,3.42,1.13,5.03,1.85,2.37,1.18,4.97,2.01,7.55,2.57,1.28.2,2.3,1.46,3.36,2.12,1.75,1.24,3.78,2.35,5.87,2.88,6.03,1.39,14.32-1.96,20.13-3.85"/><path class="b" d="M11.69,81.92l.84.12c4.71,4.59,8.28,2.32,13.42.21,1.6-.62,3.37-1.13,5.03-1.53,1.71-.9,3.01-2.8,5.03-3.14.76-.14,1.76-.11,2.52,0,.83.02,1.76-.52,2.52-.81,1.03-.39,2.27-.72,3.36-.85,3.63-.32,7.36.17,10.91.94,1.67.38,3.37,1.14,5.03,1.56,1.16-.07,2.26-.99,3.36-1.34,2.4-.98,5.07-.6,7.55-.21,1.62.23,3.39.37,5.03.31,2.18.58,4.45,1.29,6.71,1.43,3.1.11,6.21-.61,9.23-1.21,3.92-.81,7.88-1.7,11.74-2.73,6.53-1.58,13.42-3.56,20.13-2,3.15.76,6.09,2.41,9.23,3.22,1.88.55,3.94.78,5.87,1.07,2.14,1.22,4.41,2.45,6.71,3.32,2.43.91,5.08,1.43,7.55,2.2,1.28,1.06,2.73,2.24,4.19,3.03,3.54,2.13,7.86,1.85,11.74.99,3.67-.74,7.34-1.77,10.91-2.91"/><path class="b" d="M11.69,81.44l.84-.15c4.34,3.54,7.57,1.22,11.74-1.04,2.11-1.14,4.43-2.06,6.71-2.79.79-.49,1.71-1.31,2.52-1.76.72-.38,1.7-.68,2.52-.7.79.12,1.79-.07,2.52-.4,3.21-1.3,6.74-.77,10.07-.34,2.21.27,4.54.38,6.71.87,1.69.38,3.37,1.22,5.03,1.67.88.01,1.77-.74,2.52-1.11,1.77-.97,3.91-1.22,5.87-.79,1.91.37,3.92.8,5.87.86,1.06.09,2.33-.2,3.36.11,4.74,1.63,8.68,1.06,13.42-.09,4.21-.95,8.48-1.94,12.58-3.32,7.72-2.82,16.77-4.64,24.33-.39,3.15,1.55,6.55,2.82,10.07,3.13,1.85,1.1,3.87,2.16,5.87,2.95,2.41.97,5.07,1.49,7.55,2.25,1.42.43,3.16.67,4.19,1.84,3.58,3.13,7.99,3.91,12.58,3.04,3.95-.62,7.9-1.56,11.74-2.67"/><path class="b" d="M11.69,80.88c.8-.28,1.81-.08,2.52.36.73.27,1.75.35,2.52.21,2.49-.57,4.58-2.36,6.71-3.68,2.07-1.35,4.39-2.49,6.71-3.33,1.11-.32,2.29-.99,3.36-1.4,1.93-.36,3.91-1.07,5.87-1.21,2.52-.15,5.07.56,7.55.86,2.47.38,5.08.29,7.55.66,2.02.31,3.9,1.45,5.87,1.93.87-.16,1.76-.92,2.52-1.33,2.93-1.87,6.17-.38,9.23.2,2.19.44,4.51.27,6.71.08,1.33.38,2.82.73,4.19.91,3.4.29,6.79-.7,10.07-1.46,4.88-1.12,9.65-2.77,14.26-4.7,3.96-1.63,8.34-2.32,12.58-1.65,1.36.21,2.89.42,4.19.85,1.4.52,2.88,1.32,4.19,2.02,1.86,1,3.87,2,5.87,2.67,1.32.53,2.98.56,4.19,1.32,5.19,2.84,11.17,3.66,16.78,5.35.95.17,1.77,1.2,2.52,1.74,1.45,1.1,3.25,2.01,5.03,2.41,2.74.61,5.65.22,8.39-.22,3.08-.5,6.21-1.17,9.23-1.98"/><path class="b" d="M11.69,80.03c.76-.14,1.76-.39,2.52-.14.79.08,1.81-.17,2.52-.51,2.12-1.09,3.96-2.86,5.87-4.25,1.77-1.32,3.81-2.5,5.87-3.31,3.43-1.33,7.2-2.41,10.91-1.86,2.22.36,4.48,1.02,6.71,1.27,2.75.42,5.64.12,8.39.53,1.98.44,3.87,1.58,5.87,1.98,1.57-.92,3.15-2.23,5.03-2.39,1.71-.15,3.42.57,5.03,1.02,1.6.46,3.37.75,5.03.75,1.65.04,3.39-.39,5.03-.39,1.6.42,3.37.8,5.03.71,2.54-.12,5.1-.8,7.55-1.42,3.72-.96,7.44-2.2,10.91-3.86,8.24-4.24,13.26-4.32,21.81-.82,2.34.78,4.46,2.28,6.71,3.26,1.02.46,2.28.94,3.36,1.27,1.84.97,3.88,1.84,5.87,2.45,4.12,1.21,8.45,1.83,12.58,3.01.77.19,1.84.4,2.52.83,1.19,1.16,2.68,2.31,4.19,3.01,3.11,1.49,6.73,1.32,10.07.84,3.08-.43,6.22-1.01,9.23-1.79"/><path class="b" d="M11.69,78.64c3.17-.38,4.45-1.1,6.71-3.29,3.27-3.26,7.11-6.21,11.74-7.11,4.33-1.17,8.38-.06,12.58.97,3.29.71,6.72.62,10.07.77,1.76.08,3.4,1.08,5.03,1.61.76.05,1.76.26,2.52.2,1.28-.75,2.78-1.49,4.19-1.94,2-.5,4.01.45,5.87,1.05,1.59.5,3.37.82,5.03.83,1.94,0,3.97-.34,5.87-.67,1.06.2,2.28.55,3.36.66,3.42.23,6.82-.83,10.07-1.76,2.87-.88,5.73-2.06,8.39-3.44,4.1-2.2,8.64-4.37,13.42-3.58,2.93.33,5.7,1.62,8.39,2.76,4.24,1.73,8.41,3.76,12.58,5.63,3.73,1.51,7.82,2.01,11.74,2.78,1.63.34,3.4.73,5.03,1.08,1.13.29,2.59.31,3.36,1.31,2.41,2.48,5.73,4.14,9.23,4.18,4.51.05,9.06-.79,13.42-1.86"/><path class="b" d="M11.69,76.54c.76-.19,1.76-.39,2.52-.57.84-.57,1.83-1.54,2.52-2.28,2.77-3.1,5.88-6.34,10.07-7.34,4.43-1.24,9.05-.54,13.42.59,3.01.67,6.16.94,9.23,1.16,2.02.02,4.03.55,5.87,1.35,1.35-.14,2.86-.06,4.19.16,1.07-.28,2.27-.8,3.36-1.01,1.34-.26,2.83-.69,4.19-.38,2.49.64,4.93,1.86,7.55,1.95,2.51.16,5.09-.33,7.55-.81,3.29,1.17,6.78.76,10.07-.21,11.9-2.88,17.09-12.31,30.2-6.16,5.33,2.23,10.52,4.92,15.94,6.92,3.8,1.19,7.85,1.51,11.74,2.26,1.63.3,3.4.59,5.03.88.82.12,1.91.28,2.52.92,3.75,4.06,7.92,5.6,13.42,4.9,1.64-.16,3.41-.4,5.03-.68,1.4-.23,2.99-.51,4.19-1.33"/><path class="b" d="M11.69,73.62c.75-.28,1.75-.54,2.52-.74.95-.53,1.81-1.76,2.52-2.56,1.84-2.18,4.01-4.37,6.71-5.43,7.67-2.77,15.75.36,23.49,1.26,1.97.28,4.04.67,5.87,1.47,2.19-.42,4.5-.25,6.71-.21,1.32-.35,2.84-.53,4.19-.66,1.65-.22,3.44-.33,5.03.27,2.4.88,4.97,1.63,7.55,1.5,1.36-.05,2.86-.26,4.19-.5,1.07-.28,2.31-.44,3.36.03,3.6,1.15,7.46,0,10.91-1.17,4.42-1.54,8.32-4.3,12.58-6.16,5.47-2.46,11.58-1.41,16.78,1.23,4.75,2,9.37,4.47,14.26,6.1,4.08,1.14,8.41,1.39,12.58,2.08,1.34.18,2.85.36,4.19.54.81.09,1.9.19,2.52.81,3.62,3.95,7.89,6.49,13.42,5.78,2.21-.27,4.61-.42,6.71-1.18.75-.5,1.79-1.22,2.52-1.76"/><path class="b" d="M11.69,69.95c1.32-.75,3.21-.8,4.19-2.06,2.3-2.87,5.47-5.28,9.23-5.67,4.45-.49,9.04.02,13.42.84,3.36.73,6.7,1.86,10.07,2.55.75.3,1.75.25,2.52.07,1.05-.15,2.3-.25,3.36-.27,3.07.08,6.16-.04,9.23-.26,1.05-.05,2.3-.2,3.36-.18,1.38.11,2.86.58,4.19.95,2.98.91,6.2.78,9.23.2.42-.08,1.26-.24,1.68-.32,1.34.36,2.81.92,4.19,1.08,4.08.28,8.13-1.25,11.74-2.99,5.27-2.74,10.56-6.4,16.78-6.06,4.78-.02,9.22,2.08,13.42,4.16,2.97,1.45,6.11,2.74,9.23,3.85,2.68.9,5.6,1.15,8.39,1.47,3.6.46,7.29.73,10.91,1.07,3.62,3.26,7.33,7.17,12.58,7.21,1.94.06,3.97-.24,5.87-.6,1.87-.9,3.45-2.56,5.03-3.87"/><path class="b" d="M11.69,65.91c1.28-.7,2.85-1.12,4.19-1.67,1.61-1.04,3.14-2.5,5.03-3.06,6.73-2.04,14.52.49,20.97,2.64,1.04.28,2.26.88,3.36.59,2.2-.28,4.48-.8,6.71-.8,5.02.05,10.09.36,15.1-.15,1.95-.13,3.96.52,5.87.78,2.19.35,4.52.27,6.71-.05.42-.06,1.26-.18,1.68-.25.42.09,1.26.31,1.68.43,1.6.48,3.34,1.06,5.03.97,6.84-.2,12.38-4.65,18.46-7.19,4.74-1.83,10.21-2.18,15.1-.73,5.59,2.2,10.98,5.04,16.78,6.73,2.42.7,5.05.84,7.55,1.09,3.6.4,7.29.42,10.91.67,4.26,4.26,10.32,9.85,16.78,7.21,2.6-1.36,4.57-3.78,6.71-5.73"/><path class="b" d="M11.69,62.02c2.09-1.04,4.5-1.43,6.71-2.11,3.17-1.3,6.82-1.18,10.07-.23,1.98.56,3.92,1.59,5.87,2.23,1.33.31,2.83.54,4.19.59,2.98-1.71,5.97-1.5,9.23-.97,2.76.31,5.62.28,8.39.55,4.46.46,8.97.09,13.42-.2,2.76.23,5.61.57,8.39.31,2.85-.46,5.63.94,8.39,1.43,6.75.81,12.6-3.33,18.46-5.99,3.41-1.48,7.2-2.13,10.91-2.17,4.13-.63,8.03,1.32,11.74,2.84,3.83,1.56,7.76,3.07,11.74,4.18,2.17.5,4.5.59,6.71.76,2.2.16,4.51.23,6.71.24,1.35.12,3.01-.36,4.19.42,3.48,3.1,6.59,7.77,11.74,7.79,5.15-.16,8.16-5.18,11.74-8.18"/><path class="b" d="M11.69,58.68c3.7-1.41,7.86-1.47,11.74-.94,3.3.89,6.67,1.89,10.07,2.33,2.5-2.32,5.15-2.92,8.39-1.92,2.74.69,5.6,1.24,8.39,1.68,4.15.64,8.38,1.18,12.58,1.03,4.18-.09,8.4-.68,12.58-.58,3.68.08,7.34.89,10.91,1.72,3.4.44,6.89-.5,10.07-1.64,2.56-.98,5.01-2.45,7.55-3.48,3.43-1.47,7.21-2.02,10.91-2.32,3.97-1.22,8.04.45,11.74,1.84,3.29,1.3,6.72,2.4,10.07,3.55,4.27,1.55,8.95,1.38,13.42,1.5,1.04,0,2.31-.02,3.36-.06.75-.03,1.8-.15,2.52.17,4.06,5.54,9.08,10.99,15.94,5.76,3.01-2.16,5.32-5.31,8.39-7.39"/><path class="b" d="M11.69,55.99c5.94-1.93,11.82.93,17.62,2,1.37-.92,2.5-2.51,4.19-2.89,1.73-.38,3.49.47,5.03,1.14,1.58.7,3.33,1.3,5.03,1.59,1.91.33,3.95.34,5.87.55,2.49.24,5.06.58,7.55.81,8.38.73,16.83-1.1,25.17.36,1.93.24,3.92.89,5.87.88,3.42-.09,6.88-.94,10.07-2.15,2.21-.89,4.43-2.04,6.71-2.77,2.69-.89,5.58-1.36,8.39-1.63,4.66-1.31,7.14-1.09,11.74.44,3.87,1.36,7.85,2.59,11.74,3.86,4,1.47,8.39,1.25,12.58,1.32,1.91.14,4.08-.55,5.87.3,5.78,8.01,9.8,10.11,17.62,2.8,2.42-1.94,4.57-4.58,7.55-5.67"/><path class="b" d="M11.69,53.88c4.94-1.16,9.57,1.37,14.26,2.45,1.19-.84,2.07-2.4,3.36-3.14,2.05-1.19,4.18.44,5.87,1.56,1.51,1.02,3.25,1.98,5.03,2.42,2.74.7,5.62.17,8.39.03,2.78-.12,5.62.19,8.39.43,6.97.66,13.99-.35,20.97.07,3.08.08,6.18.6,9.23.98,5.19.07,10.32-1.46,15.1-3.37,3.48-1.31,7.23-1.9,10.91-2.33,1.6-.48,3.36-.93,5.03-.99,4.62-.06,9.03,1.81,13.42,3.03,2.51.64,5.05,1.5,7.55,2.13,1.89.39,3.95.41,5.87.44,2.49.04,5.07.08,7.55-.08.42.11,1.29.44,1.68.65.71.94,1.75,2.22,2.52,3.11,3.31,3.91,6.61,4.92,10.91,1.6,2.26-1.72,4.42-3.77,6.71-5.45,1.68-1.34,3.7-2.55,5.87-2.81"/><path class="b" d="M11.69,51.28c1.68.13,3.48.46,5.03,1.12,1.36.62,2.74,1.57,4.19,1.97.75.25,1.73.7,2.52.38,4.8-7.48,6.44-2.86,11.74.55,3.25,2.12,7.3,1.77,10.91.93,4.98-1.18,10.1-.31,15.1.2,3.9.35,7.84-.3,11.74-.3,3.33,0,6.74.03,10.07.25,1.64.1,3.39.47,5.03.44,3.66-.15,7.35-.9,10.91-1.77,4.36-1.39,8.85-2.56,13.42-2.99,2.18-.47,4.46-1.08,6.71-1.05,4.28.12,8.45,1.52,12.58,2.51,2.77.62,5.59,1.4,8.39,1.88,3.61.23,7.29.27,10.91.26.83.07,1.9.4,2.52.99.38.5,1.27,1.51,1.68,2.01,3.32,3.93,6.43,5.72,10.91,2.02,4.2-3.44,8.51-7.93,14.26-8.22"/><path class="b" d="M11.69,49.25c3.27.48,5.88,2.73,8.39,4.71,1.89-1.39,2.68-4.31,5.03-5.16,5.43-.33,6.24,10.04,19.29,6.33,8.65-2.57,12.04-.18,20.13.16,4.76.17,9.5-.88,14.26-.72,2.49-.05,5.07,0,7.55.3,1.93.15,3.97-.06,5.87-.38,6.56-.81,12.75-2.77,19.29-3.48,3.03-.43,6.14-1.16,9.23-.83,6.19.81,12.28,2.46,18.46,3.33,4.17.38,8.51-.15,12.58,1.02,3.03,3.3,6.95,8.59,11.74,4.89,2.05-1.45,3.87-3.41,5.87-4.92,3.17-2.32,6.91-4.15,10.91-4.19"/><path class="b" d="M11.69,47.65c2.2.67,4.11,2.25,5.87,3.67,1.74-1.57,3.62-3.75,5.87-4.5,4.5.49,5.99,8.54,14.26,8.03,4.85-.26,9.37-2.72,14.26-2.61,3.97-.02,7.78,1.61,11.74,1.77,4.48.35,9.02-.22,13.42-1.03,2.77-.15,5.62-.34,8.39-.09,3.65.36,7.31-.55,10.91-1,6.97-.98,13.93-2.36,20.97-2.76,4.52-.21,8.96,1.12,13.42,1.63,3.35.34,6.73.98,10.07,1.44,3.05.28,6.2.45,9.23.93,2.53,2.11,4.93,5.2,8.39,5.61,6.84-.42,7.92-9.81,21.81-10.66"/><path class="b" d="M11.69,46.35c1.13.45,2.19,1.5,3.36,1.85,1.82-2.19,4.64-3.9,7.55-2.99,2.76,1.64,4.16,4.97,6.71,6.88,2.6,2.04,6.14,2.17,9.23,1.37,6.34-1.55,11.92-4.36,18.46-1.93,9.34,2.66,14.5.87,23.49-.59,2.2-.27,4.51-.08,6.71-.04,1.64-.03,3.41-.22,5.03-.47,3.6-.59,7.29-.91,10.91-1.35,4.16-.62,8.39-.92,12.58-1.09,3.93-.22,7.87.56,11.74,1.1,3.04.41,6.18.57,9.23.91,3.61.59,7.28,1.21,10.91,1.74,3.57,2.04,7.21,6.43,11.74,4.63,4.16-1.9,6.63-6.39,10.91-8.12,3.14-1.41,6.65-2.09,10.07-2.34"/><path class="b" d="M11.69,45.39c.95-.03,1.73-1.03,2.52-1.45,2.43-1.4,5.12.07,7.55.68,1.07.39,1.85,1.81,2.52,2.67,1.19,1.61,2.52,3.46,4.19,4.59,2.76,1.72,6.26,1.23,9.23.35,4.64-1.43,9.32-3.41,14.26-3.36,1.98.39,3.93,1.28,5.87,1.82,3.26.75,6.72,1.15,10.07.79,5.09-.54,9.98-2.51,15.1-2.88,1.92-.07,3.95.14,5.87-.03,3.07-.19,6.17-.74,9.23-1,5.3-.4,10.62-1.02,15.94-.98,3.92-.08,7.87.48,11.74,1,5.28.75,10.73.52,15.94,1.76,1.74.37,3.7.54,5.03,1.86,3.88,2.99,9.09,5.42,13.42,1.83,2.57-1.94,4.73-4.6,7.55-6.22,2.31-1.23,4.99-1.87,7.55-2.33,1.63-.26,3.44-.88,5.03-.14"/><path class="b" d="M11.69,42.09c1.75-.48,3.53.47,5.03,1.27,1.52.82,3.29,1.53,5.03,1.59,1.95,2.05,3.33,4.94,5.87,6.38,5.32,2.45,11.58-1.7,16.78-3,1.89-.52,3.92-.97,5.87-1.1,1.1.1,2.3.66,3.36.96,1.83.89,3.83,1.71,5.87,1.93,2.76.23,5.66.28,8.39-.29,6.09-1.4,12.08-4.13,18.46-3.7,3.63.05,7.3-.33,10.91-.65,4.17-.26,8.4-.54,12.58-.57,6.18-.13,12.32.95,18.46,1.56,4.17.4,8.45.37,12.58,1.13,4.11,1.93,7.69,5.62,12.58,5.23,5.23-.34,8.36-5.29,12.58-7.75,2.28-1.32,5-1.83,7.55-2.35,1.04-.2,2.31-.45,3.36-.67,1.07-.02,2.35.26,3.36.63"/><path class="b" d="M11.69,41.11c2.88,1.59,5.65,4.37,9.23,3.63,1.09.32,1.79,1.81,2.52,2.6.93,1.08,2.09,2.28,3.36,2.95,4.69,2.27,12.06-2.07,16.78-3.44,1.6-.53,3.37-.92,5.03-1.14,1.41.16,2.83.95,4.19,1.32,1.86.82,3.8,1.83,5.87,1.96,4.61.4,9.21-.77,13.42-2.58,2.68-1.07,5.52-2.02,8.39-2.38,1.34-.24,2.81-.69,4.19-.6,7.55.25,15.11-.48,22.65-.44,5.62.01,11.22.82,16.78,1.55,2.48.29,5.06.52,7.55.67,1.95.11,4.04.1,5.87.88,4.57,1.19,8.48,4.95,13.42,4.54,5.37-.3,9.07-4.67,13.42-7.25,2.27-1.34,5-1.79,7.55-2.33,1.34-.25,2.84-.64,4.19-.84,1.35.03,2.86.26,4.19.48"/><path class="b" d="M11.69,41.24c3.5,2.74,4.83,3.43,9.23,2.54,1.95,2.41,4.25,5.27,7.55,5.62,5.29-.03,10.17-2.65,15.1-4.28,1.04-.35,2.28-.69,3.36-.88.45.12,1.26.42,1.68.6,2.21.84,4.56,1.59,6.71,2.58,2.7.92,5.67.45,8.39-.11,3.22-.76,6.19-2.43,9.23-3.7,2.12-.9,4.44-1.59,6.71-1.95,1.11-.06,2.27-.71,3.36-.89,3.6-.32,7.29.08,10.91.05,7.84-.34,15.73.01,23.49,1.19,4.71.72,9.5,1.32,14.26,1.56,2.5.71,5.08,1.48,7.55,2.28,1.64.63,3.36,1.42,5.03,1.96,7.95,2.81,14.11-4.67,20.97-7.19,3-.91,6.2-1.31,9.23-2.1,1.9-.26,3.96.02,5.87-.22"/><path class="b" d="M11.69,41.06c2.48,2.08,5.48,2.68,8.39,1.07,2.34,1.89,4.39,4.65,7.55,5.2,1.94.32,3.99-.24,5.87-.68,2.83-.71,5.65-1.71,8.39-2.69,3.24-1.17,2.85-1.07,5.87.26,1.86.84,4.02,1.21,5.87,2.03,6.15,2.33,12.21-1.79,17.62-4.31,1.85-.85,3.89-1.55,5.87-1.99,1.41-.29,3.02-.43,4.19-1.35,1.51-.83,3.37-.74,5.03-.73,1.92,0,3.95.11,5.87.22,6.44-.14,12.91.49,19.29,1.33,3.9.53,7.84,1.22,11.74,1.72,2.19.34,4.53.3,6.71.7,2.75.89,5.59,1.8,8.39,2.53,2.44.78,4.95,1.81,7.55,1.83,5.88-.2,10.66-4.35,15.94-6.48,3.73-1.56,7.88-1.85,11.74-2.95,2.22-.24,4.56-.32,6.71-1"/><path class="b" d="M11.69,40.43c1.7,1.13,3.92,1.58,5.87.88.76-.25,1.7-.83,2.52-.87,2.92,2.73,6.66,5.59,10.91,4.62,2.54-.39,5.11-1.05,7.55-1.85,1.35-.36,2.78-1.13,4.19-1.13.75.35,1.75.8,2.52,1.11,2.96,1.22,6.14,2.01,9.23,2.8,2.57.28,5.23-.53,7.55-1.57,6.1-3.22,9.57-5.8,16.78-6.53,1.33-.88,2.54-2.33,4.19-2.62,3.32-.28,6.74.01,10.07.15,3.89.43,7.85.78,11.74,1.23,4.75.6,9.52,1.42,14.26,2.14,3.04.48,6.16.82,9.23,1.02,1.95.62,3.9,1.56,5.87,2.12,2.48.62,5.07,1.19,7.55,1.82,6.08,1.46,11.38-2.76,16.78-4.84,4.51-2.03,9.53-2.48,14.26-3.79,1.04-.2,2.32-.28,3.36-.47,1.37-.3,2.86-.84,4.19-1.25"/><path class="b" d="M11.69,39.37c2.45,1.21,5.31.51,7.55-.84.92.03,1.79.9,2.52,1.37,1.01.69,2.25,1.46,3.36,1.98,4.53,2.29,9.7.5,14.26-.8,1.12.21,2.29.91,3.36,1.28,2.15.83,4.45,1.57,6.71,2.04,1.65.23,3.34.99,5.03.8,9.83-1.46,10.07-8.32,23.49-8.59,1.63-1.31,2.76-3.7,5.03-4.03,2.21-.09,4.5.2,6.71.22,2.22.44,4.48,1.15,6.71,1.51,2.75.41,5.63.25,8.39.63,5.32.59,10.63,1.55,15.94,2.22,2.2.34,4.53.37,6.71.81,2.13,1,4.39,2.04,6.71,2.52,9.5,1.53,10.13,2.86,19.29-1.67,2.96-1.31,6.08-2.44,9.23-3.22,3.05-.72,6.2-1.28,9.23-2.1,2.88-.31,5.63-1.4,8.39-2.17"/><path class="b" d="M11.69,37.99c2.58.76,5.29-.23,7.55-1.48,2.32.79,4.37,2.5,6.71,3.31,1.82.73,3.9,1.17,5.87.98,1.66-.06,3.39-.6,5.03-.7,3.65,1.89,7.7,3.08,11.74,3.76.77.06,1.76.37,2.52.5,1.07.13,2.33-.02,3.36-.33,1.7-.55,3.47-1.34,5.03-2.21,1.36-1.04,2.81-2.29,4.19-3.29,4.49-3.38,8.08-3.35,13.42-3.1,1.91-1.41,2.61-4.45,5.03-5.25,1.94-.23,3.94.56,5.87.6,1.41.42,2.8,1.35,4.19,1.83,1.57.62,3.34,1.07,5.03,1.13,2.49-.05,5.06-.34,7.55-.17,3.92.16,7.86.75,11.74,1.22,2.77.39,5.65.5,8.39,1.1,2.09.21,3.94,1.41,5.87,2.11,1.84.71,3.93.78,5.87.94,2.21.23,4.53.5,6.71.92,1.37.13,2.89-.23,4.19-.64,4.7-1.83,9.31-4.02,14.26-5.13,4.16-1.04,8.42-1.89,12.58-2.9,1.91-.58,3.9-1.33,5.87-1.66"/><path class="b" d="M11.69,36.39c1.66.24,3.47-.07,5.03-.63,1.08-.31,2.21-1.14,3.36-1.19,4.01,1.75,8.06,4.24,12.58,4.1,1.22-.26,2.32.82,3.36,1.29,1.29.67,2.81,1.27,4.19,1.7,2.43.76,5.02,1.29,7.55,1.56,1.06.08,2.28.45,3.36.26,2.75-.44,5.12-2.2,7.55-3.42,1.22-.71,2.28-2.06,3.36-2.97,1.88-1.67,4.2-3.12,6.71-3.54,2.5-.36,5.07.38,7.55.57.72-.16,1.36-1.23,1.68-1.81.89-1.46,1.78-3.47,3.36-4.3,1.09-.36,2.33.17,3.36.5.76.26,1.82.51,2.52.92.43.37,1.24,1.07,1.68,1.42,2.13,1.6,4.88,2.53,7.55,2.44,2.78-.25,5.59-.93,8.39-.94,3.63-.13,7.3.27,10.91.65,3.65.34,7.35.64,10.91,1.6,1.1.36,2.26,1.12,3.36,1.5,2.11.89,4.49.64,6.71.68,2.79.05,5.65.26,8.39.77,1.7.38,3.46-.62,5.03-1.16,2.44-1.02,5.01-1.99,7.55-2.73,4.68-1.39,9.5-2.45,14.26-3.56,2.78-.7,5.55-1.82,8.39-2.27"/><path class="b" d="M11.69,34.68c1.97.08,4.03-.37,5.87-1.04,1.07-.32,2.21-1.16,3.36-1.06,3.33,1.18,6.6,2.8,10.07,3.58,1.68,1.64,3.72,3.1,5.87,4.04,3.16,1.34,6.65,2.04,10.07,2.21,1.7.17,3.52.06,5.03-.81,2.57-1.39,5-3.22,7.55-4.66,1.25-1.33,2.63-2.86,4.19-3.84,2.2-1.45,4.95-2.14,7.55-1.5,1.66-.42,3.44.02,5.03.48.82-1.05,1.95-2.51,2.52-3.74.91-1.57,2.21-3.28,4.19-2.21,3.9,1.56,4.04,5.57,9.23,6.51,3.98.8,7.82-1.17,11.74-1.51,4.73-.62,9.54-.02,14.26.4,2.82.15,5.67.5,8.39,1.26,1.11.35,2.25,1.16,3.36,1.53,2.41.96,5.06.15,7.55.18,2.49-.08,5.08.06,7.55.4,1.05.12,2.3.23,3.36.28,1.07-.29,2.31-.78,3.36-1.16,6.02-2.1,12.27-3.63,18.46-5.16,3.35-.79,6.64-2.2,10.07-2.61"/><path class="b" d="M11.69,32.93c3.5.02,6.76-1.49,10.07-2.38,1.94.59,3.96,1.35,5.87,2.02,1.39.33,2.28,2.02,3.36,2.87,1.47,1.41,3.21,2.78,5.03,3.7,3.34,1.66,7.19,2.36,10.91,2.17,2.21,0,4.17-1.35,5.87-2.62,2.14-1.58,4.3-3.39,6.71-4.57,1.1-.85,2.17-2.14,3.36-2.88,1.97-1.18,4.37-2.22,6.71-1.84,1.93-.38,4.04-.55,5.87.34,1.39-1,2.17-3.02,3.36-4.24.6-.69,1.52-1.63,2.52-1.59,2.67,1.14,3.78,4.44,5.87,6.32,5.38,4.73,12.43-.38,18.46-.76,5.87-.65,11.76.53,17.62.75,1.37.14,2.87.54,4.19.92,1.24.77,2.73,1.52,4.19,1.72,2.22.15,4.49-.62,6.71-.59,2.78-.16,5.62.15,8.39.33,1.34.07,2.85.09,4.19,0,1.05-.29,2.3-.71,3.36-.99,2.49-.7,5.12-1.25,7.55-2.15,2.99-1.02,6.19-1.58,9.23-2.44,3.04-.73,6.08-2.06,9.23-2.18"/><path class="b" d="M11.69,31.16c3.72-.21,7.31-1.5,10.91-2.38,1.1,0,2.31.54,3.36.84,1.23.8,2.3,2.22,3.36,3.23,2.97,3.1,6.6,5.88,10.91,6.7,2.71.48,5.84.72,8.39-.51,3.8-2.38,6.73-6.14,10.91-7.95.85-.26,1.83-.99,2.52-1.54,1.24-.8,2.79-1.42,4.19-1.85.72-.22,1.76-.4,2.52-.35.74-.14,1.76-.42,2.52-.49,1.4-.17,2.87.35,4.19.7,1.1-1.79,2.17-4.24,4.19-5.14,2.45-.17,4.29,4.43,5.87,6.05,5.09,6.23,13.08.09,19.29-.54,1.92-.13,3.95-.48,5.87-.41,3.91.18,7.84.76,11.74.98,1.65.1,3.44.05,5.03.56,1.29.71,2.72,1.56,4.19,1.8,2.23.27,4.48-.74,6.71-.75,3.05-.24,6.18.12,9.23.16,6.93.29,13.45-2.6,20.13-3.99,2.21-.52,4.49-1.23,6.71-1.7,1.87-.55,3.89-1.28,5.87-1.09"/><path class="b" d="M11.69,29.41c4.24-.41,8.36-1.79,12.58-2.32,5.65,4.87,9.99,11.43,18.46,11,1.68-.1,3.47-.46,5.03-1.08,2.4-1.7,4.38-4.09,6.71-5.87,1.23-.96,2.74-1.86,4.19-2.45,1.04-.46,2.4-.66,3.36-1.3,2.12-.91,4.42-1.75,6.71-2.05,1.88-.63,4.04-.63,5.87.17.71-.21,1.38-1.37,1.68-1.98.58-.9,1.46-2.15,2.52-2.51,2.59-.21,4.71,5.3,6.71,6.93,3.68,3.61,9.27,1.1,13.42-.31.73-.3,1.75-.27,2.52-.31,1.35-.08,2.85-.25,4.19-.45,2.48-.37,5.04-.85,7.55-1.03,3.33.39,6.72.85,10.07,1.05,1.34.09,2.85.14,4.19.15,1.67.5,3.21,1.8,5.03,1.88,1.96.08,3.92-.79,5.87-.88,2.76-.28,5.62,0,8.39.02,8.29.24,16.33-2.26,24.33-4.1,3.07-.47,6.07-2.18,9.23-1.72"/><path class="b" d="M11.69,27.69c2.51-.32,5.07-.88,7.55-1.34,1.66-.23,3.61-1.01,5.03.24,1.92,1.05,3.37,2.97,5.03,4.36,3.58,3.29,8.43,5.99,13.42,4.74,1.7-.36,3.47-1.01,5.03-1.76,2.47-2.12,4.61-4.87,7.55-6.39,2.61-1.31,5.63-1.69,8.39-2.55,3.49-1.08,7.33-2.72,10.91-1.07,1.27-1.37,2.03-4.16,4.19-4.26,4.12,1.78,4.91,8.67,10.91,8.36,2.3-.03,4.5-1.04,6.71-1.48,4.22.07,8.47-.41,12.58-1.38,1.9-.41,3.93-.78,5.87-.96,3.32.52,6.71.98,10.07,1.14,1.34.14,2.91-.1,4.19.37,1.6.55,3.28,1.42,5.03,1.18,1.91-.38,3.91-.92,5.87-.96,3.89-.1,7.85.26,11.74,0,6.24-.31,12.39-1.64,18.46-3.04,3.36-.46,6.62-2.5,10.07-1.77"/><path class="b" d="M11.69,25.98c3.35-.44,6.7-1.36,10.07-1.62,1.66,1.05,3.48,2.15,5.03,3.34,2.2,2.09,4.7,4.11,7.55,5.22,4.58,1.94,9.37-.48,13.42-2.62,1.57-1.48,3.19-3.2,5.03-4.34,1.73-1.08,3.88-1.45,5.87-1.68,1.64-.25,3.41-.54,5.03-.84,4.49-1.44,6.05-2.49,10.91-1.02.84-1.4,1.77-3.38,3.36-4.06,3.13-.2,5.33,6.35,9.23,7.29,1.92.56,4.01.06,5.87-.47,5.6.56,11.34-.05,16.78-1.49,1.9-.47,3.93-.89,5.87-1.14,2.77.22,5.59.91,8.39,1.02,1.63.13,3.4.12,5.03.27,1.6.46,3.37.88,5.03.99,1.95-.07,3.91-.87,5.87-.88,2.77-.11,5.62.12,8.39.09,6.75.07,13.53-.53,20.13-1.99,2.55-.4,5.05-1.36,7.55-2,.72-.17,1.77-.31,2.52-.3.4.1,1.29.02,1.68-.15"/><path class="b" d="M11.69,24.31c1.93-.28,3.96-.66,5.87-1,1.36-.19,3.03-.85,4.19.2,1.66,1.02,3.41,2.17,5.03,3.25,2.35,2.1,5.2,4,8.39,4.39,4.34.48,8.06-2.47,11.74-4.31,1.91-1.27,3.59-3.2,5.87-3.85,1.59-.49,3.39-.43,5.03-.44,1.92-.12,3.98-.21,5.87-.53,1.4-.33,2.83-1.08,4.19-1.53,1.91-.47,4.01.08,5.87.55l.84-.24c4.32-7.97,6.28-1.11,10.91,1.77,1.83,1.18,3.83.94,5.87.82,2.17.53,4.49.57,6.71.49,2.21-.01,4.52-.11,6.71-.45,3.66-.57,7.25-1.81,10.91-2.4,1.07-.29,2.3-.11,3.36.14,1.34.24,2.84.45,4.19.57,1.92.18,3.95.24,5.87.31,1.63.2,3.38.61,5.03.64,1.67.18,3.4-.36,5.03-.59,1.34-.17,2.85-.14,4.19-.11,7.54.21,15.17.57,22.65-.62,2.85-.34,5.65-1.25,8.39-2.06,1.9-.61,4.05-.56,5.87-1.43"/><path class="b" d="M11.69,22.66c2.5-.31,5.07-.8,7.55-1.24,1.52.12,2.86,1.41,4.19,2.08,5.16,3.05,8.62,7.08,15.1,4.12,2.84-1.47,5.58-3.33,8.39-4.87,1.44-1.09,3.2-2.1,5.03-2.28,2.5-.21,5.05.55,7.55.32,1.35.06,2.87.15,4.19-.2,1.7-.42,3.34-1.41,5.03-1.84,1.68-.32,3.45.42,5.03.92,1.1-.32,1.79-1.81,2.52-2.6,2.76-3.51,5.9.84,8.39,2.43,1.45,1,3.27,1.61,5.03,1.53,1.58.55,3.37.87,5.03,1.01,4.46.13,9.04.19,13.42-.8,3.33-.73,6.68-1.72,10.07-2.15,1.05.22,2.3.45,3.36.6,2.75.4,5.61.45,8.39.53,1.63.13,3.39.35,5.03.28,1.93,0,3.96-.26,5.87-.45,1.63-.06,3.4-.06,5.03,0,6.41.29,12.88.97,19.29.24,2.85-.24,5.65-1.16,8.39-1.9,1.04-.3,2.31-.56,3.36-.84,1.06-.43,2.31-1.02,3.36-1.5"/><path class="b" d="M11.69,20.99c2.51-.13,5.05-.89,7.55-.97,2.23,1.15,4.52,2.43,6.71,3.65,1.56.9,3.2,2.02,5.03,2.24,5.49.73,9.8-3.86,14.26-6.36,4.11-2.76,7.39-1.03,11.74-.52,2.2.22,4.53.72,6.71.04,4.07-1.24,5.46-2.78,10.07-1.64,1.16-.66,2.11-1.99,3.36-2.54,3.04-1.35,5.85,1.12,8.39,2.48,1.26.73,2.84.95,4.19,1.4,2.95,1.01,6.14,1.17,9.23,1.18,2.77.11,5.64.12,8.39-.3,3.64-.55,7.26-1.56,10.91-2.13,1.91-.3,3.94.54,5.87.56,4.17.24,8.41.38,12.58.13,2.49-.16,5.06-.41,7.55-.42,5.31.24,10.63,1.07,15.94,1.31,4.24.26,8.5-.49,12.58-1.59,2.68-.61,5.16-2.07,7.55-3.38"/><path class="b" d="M11.69,19.25c2.22-.11,4.52-.41,6.71-.8,3.35,1.51,6.63,3.37,10.07,4.67,2.25.68,4.7.01,6.71-1.06,2.13-1.12,3.91-2.99,5.87-4.35,2.74-2.11,5.85-2.94,9.23-1.95,3.03.74,6.13,1.6,9.23,2.05,1.96.18,4.02-.26,5.87-.85,2.68-1,5.48-1.86,8.39-1.59,3.34-2.45,5.44-1.94,9.23-1.21,1.43.21,2.86.93,4.19,1.44,1.03.39,2.31.57,3.36.87,2.71.75,5.59.98,8.39,1.05,2.48.16,5.06.35,7.55.21,4.51-.25,8.95-1.41,13.42-1.98,1.06-.13,2.3.23,3.36.31,1.34.15,2.85.23,4.19.27,3.05.06,6.19,0,9.23-.36,2.76-.47,5.57-1.21,8.39-.92,8.09.6,16.16,3.5,24.33,2.08,4.01-.61,7.55-2.87,10.91-5.02"/><path class="b" d="M11.69,17.42c7.87-.3,4.25-1.4,11.74,1.83,13.47,6.5,12.29-10.12,25.17-6.09,3.05.82,6.14,1.83,9.23,2.52,2.19.42,4.54.19,6.71-.24,2.77-.6,5.55-1.54,8.39-1.78.82.03,1.76-.51,2.52-.75,1.03-.29,2.29-.41,3.36-.41,1.35,0,2.85.09,4.19.11,1.07,0,2.35,0,3.36.42,2.13.76,4.43,1.33,6.71,1.28,2.18.41,4.5.53,6.71.7,3.04.3,6.17.64,9.23.49,3.64-.14,7.3-.8,10.91-1.25,2.2-.44,4.5-.03,6.71.07,3.34.12,6.79.06,10.07-.69,4.6-1.58,9.55-.97,14.26-.26,5.57.88,11.08,2.78,16.78,2.65,4.81-.33,8.8-3.38,12.58-6.09"/><path class="b" d="M11.69,15.52c1.93.04,3.96-.1,5.87-.34,1.63.63,3.39,1.31,5.03,1.9,13.43,5.62,11.5-11.09,24.33-6.67,3.62,1.01,7.22,2.38,10.91,3.11,5.62.67,11.29-.69,16.78-1.72,3.29-.63,6.74-.48,10.07-.87,2.26.09,4.49.98,6.71,1.31,2.2.4,4.51-.21,6.71.05,5.29.46,10.6,1.5,15.94,1.02,4.46-.28,8.95-1,13.42-1.02,2.49.09,5.1.04,7.55-.44,1.66-.31,3.34-1.08,5.03-1.23,5.02-.17,10.14.6,15.1,1.34,3.37.58,6.69,1.74,10.07,2.29,6.22,1.2,10.35-3.31,15.1-6.37"/></svg>