<?xml version="1.0" encoding="UTF-8"?><svg id="a" xmlns="http://www.w3.org/2000/svg" width="1920" height="2400" viewBox="0 0 192 240"><defs><style>.b{fill:none;stroke:#fff;stroke-miterlimit:10;stroke-width:.3px;}.c{stroke-width:0px;}</style></defs><rect class="c" width="192" height="240"/><path class="b" d="M13.65,222.74c6.34-1.67,11.76.18,18.03.61,2.71.16,5.52.16,8.19.7,3.1.57,6.12,1.72,9.01,2.94,2.42,1.16,4.84,2.53,7.37,3.44,1.54.6,3.29.84,4.92,1.07,2.37.71,4.95.73,7.37.32,2.98.16,6.05.23,9.01-.22,1.64-.25,3.39-.7,4.92-1.35.4-.19,1.23-.54,1.64-.71.73-.09,1.73.05,2.46.09,3.53.24,7.13-.04,10.65.15,3.24.27,6.9,1.43,9.83-.54,2.19-1.5,3.86-3.81,5.74-5.65,4.91-5.36,11.65-3.45,18.03-3.31,5.43-.65,10.93-1.14,16.39-1.56,2.15-.09,4.41-.11,6.56.11,1.04.05,2.24.65,3.28.42,3.1-3.02,7.68-1.41,11.47-1.12,2.14.28,4.4.25,6.56.16,1.04.21,2.26.53,3.28.8"/><path class="b" d="M13.65,220.52c5.18-.97,10.41.09,15.57.64,5.84.45,11.83.9,17.21,3.46,4.1,1.71,7.95,4.22,12.29,5.31,3.21.73,6.56.93,9.83,1.15,5.81.44,11.71-.34,17.21-2.25,2.09-.62,4.41.13,6.56.05,4.07-.18,8.44.45,12.29-1.16,5.51-2.69,7.88-9.14,14.75-9.63,5.18-.49,10.4.81,15.57.03,3.8-.27,7.67-.48,11.47-.79,2.42-.19,4.96-.43,7.37-.1,1.06.1,2.22.72,3.28.77,3.07-3.13,7.69-1.74,11.47-1.08,1.58.31,3.31.42,4.92.36,1.65.28,3.32,1,4.92,1.49"/><path class="b" d="M13.65,218.65c2.42-.28,4.94-.29,7.37-.14,2.72-.02,5.5.06,8.19.47,4.12.59,8.34,1.07,12.29,2.43,7.02,2.08,13.11,6.89,20.48,7.77,3.5.51,7.12.83,10.65.45,4.36-.57,8.78-1.19,13.11-1.98,1.85-.55,3.84-.31,5.74-.32,2.44-.1,4.97-.34,7.37-.81,8.22-1.46,9.92-6.54,16.39-9.38,5.52-2.06,11.51-.31,17.21-.52,4.35-.34,8.76-.06,13.11-.35,3.8-.29,8.06-1.57,11.47.75,3.17-3.36,7.52-2.44,11.47-1.31,1.29.38,2.78.49,4.1.66,1.91.54,3.86,1.35,5.74,2"/><path class="b" d="M13.65,216.87c3.75-.78,7.65-1.24,11.47-.79,4.69.61,9.39,1.64,13.93,2.97,5.41,1.6,10.41,4.32,15.57,6.53,4.38,1.77,9.21,2.61,13.93,2.29,3.33-.26,6.54-1.49,9.83-1.99,3.51-.46,7.13-.32,10.65-.69,5.31-.75,10.69-1.9,15.57-4.19,3.12-1.47,5.83-3.84,9.01-5.2,4.1-1.83,8.74-1.6,13.11-1.21,2.97.34,6.03.26,9.01.35,2.98.12,6.03.5,9.01.46,4.08-.08,8.67-2.54,12.29.32.92-.05,1.69-1.03,2.46-1.45,1.69-1.01,3.83-1.2,5.74-.79,1.91.43,3.84,1.2,5.74,1.68,2.5.58,4.97,1.59,7.37,2.47"/><path class="b" d="M13.65,214.21c3.75-.77,7.67-1.11,11.47-.53,4.73.76,9.38,2.19,13.93,3.65,4.8,1.56,9.32,3.89,13.93,5.91,5.35,2.25,11.58,3.55,17.21,1.53,4.59-1.75,8.03-3.33,13.11-2.53,1.31.15,2.78.28,4.1.31,2.79-.49,5.42-1.87,8.19-2.46,3.26-.9,6.63-1.65,9.83-2.74,3.29-1.22,6.41-3.09,9.83-3.97,4.26-1.2,8.76-.93,13.11-.49,2.98.27,6.06.22,9.01.77,2.42.34,4.92.84,7.37.86,4.88-.06,8.79-3.54,13.11.46,1.46-1.55,3.49-3.15,5.74-3,1.67.25,3.3,1.12,4.92,1.56,1.58.47,3.33.83,4.92,1.26,1.63.49,3.32,1.2,4.92,1.79"/><path class="b" d="M13.65,211.78c3.75-.77,7.68-1.08,11.47-.4,5.33,1,10.47,2.95,15.57,4.75,9.47,3.44,19.35,10.95,29.5,5.16,6.38-3.61,9.41-3.48,16.39-2,.82.03,1.75-.54,2.46-.88,1.01-.5,2.22-1.07,3.28-1.46,2.35-.84,4.91-1.25,7.37-1.61,2.16-.29,4.43-.44,6.56-.94,2.74-.69,5.46-1.73,8.19-2.43,2.92-.76,6-1.2,9.01-1.23,2.44-.03,4.94.36,7.37.47,4.99.07,9.74,2.47,14.75,2.31,4.4-.27,8.53-3.85,12.29.18h.82c3.44-4.34,4.39-2.98,9.01-1.5,1.85.52,3.86.89,5.74,1.32,1.64.43,3.34,1.16,4.92,1.78"/><path class="b" d="M13.65,209.54c7.4-1.73,13.56-.33,20.48,2.34,2.98,1.1,6.06,2.13,9.01,3.31,2.73,1.14,5.45,2.54,8.19,3.65,4.09,1.69,8.74,2.79,13.11,1.61,2.33-.67,4.44-2.1,6.56-3.24,3.2-1.83,7.01-2.33,10.65-2.13,1.04.09,2.26.32,3.28.53.78.31,1.8.16,2.46-.34,5.17-3.14,11.36-3.04,17.21-2.96,3.6-.18,7.14-1.27,10.65-1.99,2.95-.64,6-1.19,9.01-1.33,2.43-.05,4.95.16,7.37.36,2.49.43,4.94,1.41,7.37,2.08,7.14,2.15,8.31.33,14.75-.96,1.81-.18,3.29,1.24,4.92,1.76,3.34-4.17,4.62-2.53,9.01-1.38,3.58.8,7.32,1.3,10.65,2.93"/><path class="b" d="M13.65,206.93c2.97-.2,6.04-.34,9.01-.14,3.66.35,7.23,1.55,10.65,2.83,3.51,1.39,7.16,2.56,10.65,3.98,3.23,1.39,6.45,3.04,9.83,4.05,6.77,2.02,10.75.33,16.39-3.32,2.2-1.36,4.83-1.85,7.37-2.07,1.59-.17,3.33-.1,4.92.07,1.03.03,2.26.41,3.28.11,1.81-.82,3.8-1.52,5.74-1.99,2.66-.59,5.48-.68,8.19-.55,2.43.17,4.94.57,7.37.33,5.8-.45,11.44-2.24,17.21-2.9,2.14-.18,4.42-.13,6.56.16,3.08.67,5.97,2.2,9.01,2.99,8.96,2.73,11.1-3.47,19.67-.34,2.29-3.14,5.17-1.4,8.19-.72,3.56.74,7.33,1.03,10.65,2.63"/><path class="b" d="M13.65,204.71c4.91-.66,9.99,0,14.75,1.31,5.24,1.67,10.37,3.8,15.57,5.62,3.99,1.64,7.94,3.76,12.29,4.23,5.5.96,8.77-1.49,13.11-4.28,2.2-1.36,4.89-1.53,7.37-1.95,2.43-.47,4.97-.26,7.37.21,1.36-.26,2.76-.98,4.1-1.36,1.82-.58,3.83-.88,5.74-.89,4.38-.12,8.74,1.02,13.11.88,5.55-.13,10.96-1.63,16.39-2.61,2.13-.39,4.41-.44,6.56-.17,1.67.32,3.36,1.07,4.92,1.72,5.74,2.49,9.42,3.01,15.57,1.49,3.13-1.19,6.55-1.37,9.83-.86,2.06-2.01,4.97-.46,7.37-.1,3.55.6,7.31.71,10.65,2.15"/><path class="b" d="M13.65,202.97c3.5-.64,7.17-.74,10.65.03,5.89,1.4,11.5,3.85,17.21,5.83,5.11,1.7,10.04,4.45,15.57,4.39,1.32.04,2.78.03,4.1,0,3.61-.95,6.2-4.17,9.83-5.05,2.73-.33,5.49-.92,8.19-1.38.73-.09,1.73-.1,2.46-.02.74.09,1.71.36,2.46.18,5.25-2.01,9.33-1.62,14.75-.96,5.42.8,10.97.94,16.39-.03,4.61-.75,9.21-2.46,13.93-1.94,3.17.41,5.97,2.32,9.01,3.2,2.88,1.02,6.02.98,9.01,1.32,2.85.22,5.48-1.26,8.19-1.83,1.29-.26,2.78-.43,4.1-.47.75.03,1.79.03,2.46-.37,2.17-.4,4.39.59,6.56.7,3.27.3,6.7.41,9.83,1.48"/><path class="b" d="M13.65,201.53c7.29-1.97,12.98-.78,19.67,2.37,3.76,1.47,7.61,2.9,11.47,4.06,3.66,1.38,7.54,2.31,11.47,2.16,2.16-.03,4.4-.22,6.55-.32,2.57-.9,4.58-3.3,7.37-3.74,1.31-.22,2.8-.17,4.1-.45,1.62-.31,3.31-.88,4.92-1.22,1.59-.47,3.36.23,4.92-.25,2.38-.62,4.92-.97,7.37-.72,2.7.33,5.49.55,8.19.84,5.39.97,10.98.89,16.39.07,4.33-.68,8.68-2.32,13.11-1.79,2.87.33,5.46,2,8.19,2.83,1.55.52,3.29.87,4.92,1.08,1.82.56,3.83.94,5.74,1,2.53.17,5.01-.76,7.37-1.54,1.82-.6,3.83-.96,5.74-1.19,2.44-.56,4.93.19,7.37.32,3.27.11,6.64.17,9.83.95"/><path class="b" d="M13.65,200.26c8.61-2.77,12.54-2.25,20.48,1.81,3.11,1.5,6.45,2.69,9.83,3.41,3.18.9,6.52,1.52,9.83,1.54,3.55.06,7.12-.55,10.65-.79.83-.16,1.73-.86,2.46-1.26,1.21-.68,2.71-1.11,4.1-1.16,1.63.01,3.37-.27,4.92-.77,1.83-.57,3.78-1.39,5.74-1.25,2.15-.05,4.37-.74,6.56-.55,3.26.33,6.58.76,9.83,1.17,5.65,1.1,11.5,1.16,17.21.57,4.37-.49,8.69-2.08,13.11-1.94,2.58.07,4.98,1.36,7.37,2.18,4,1.19,8.09,2.44,12.29,2.6,4.82.61,9.28-1.71,13.93-2.5,2.13-.49,4.4.15,6.56.12,1.88.02,3.87-.13,5.74.15,1.32-.03,2.8.08,4.1.35"/><path class="b" d="M13.65,199.21c5.9-2.06,11.18-4.34,17.21-1.2,2.7,1.37,5.35,3.06,8.19,4.13,1.84.55,3.84.83,5.74,1.09,2.14.35,4.39.69,6.56.83,4.93.39,9.88-.37,14.75-1.1.76-.2,1.71-.68,2.46-.91,1.28-.38,2.77-.43,4.1-.53,3.08-.36,5.87-2.19,9.01-2.18,2.42-.4,4.97-.35,7.37.15,1.33.22,2.77.64,4.1.88.75.03,1.72-.27,2.46-.38,3.26-.49,6.63-.08,9.83.58,1.9.31,3.78,1.33,5.74,1.12,5.53.19,10.9-1.68,16.39-2.02,3.44-.14,6.54,1.76,9.83,2.42,3.68,1.31,7.61,1.52,11.47,1.7,1.87.16,3.87.32,5.74.05,2.75-.43,5.47-1.35,8.19-1.89,2.11-.54,4.41.02,6.56-.17,1.02-.05,2.26-.12,3.28-.16.71.14,1.73.28,2.46.3,1.02.07,2.26-.25,3.28-.03"/><path class="b" d="M13.65,198.29c6.15-1.99,11.55-6.03,18.03-2.43,2.75,1.37,5.23,3.58,8.19,4.47,1.86.34,3.87.24,5.74.48,4.6.58,9.29,1.12,13.93.81,3.32-.2,6.62-1.06,9.83-1.9,2.46-.45,5.05-.77,7.37-1.76,3.11-1.13,6.61-1.5,9.83-.66,1.37.24,2.7,1.27,4.1,1.27,6.15-4.37,15.74-1.18,22.12,1.36,2.45.32,4.97-.28,7.37-.7,2.96-.38,6.02-.97,9.01-.82,4.65.82,9.13,2.93,13.93,2.95,2.15.04,4.41,0,6.56.22,2.69.37,5.51.63,8.19.07,2.44-.44,4.93-1.07,7.37-1.49,1.88-.02,3.87-.07,5.74-.26,1.03-.18,2.26.04,3.28.22,1.31.16,2.79.14,4.1-.07"/><path class="b" d="M13.65,197.32c6.25-1.38,11.4-7.23,18.03-3.95,1.99.96,3.88,2.35,5.74,3.53.98.56,2.09,1.53,3.28,1.46,6.87-.45,13.62,1.76,20.49,1.35,3.08-.25,6.09-1.3,9.01-2.23,1.87-.58,3.89-1.05,5.74-1.73,5.12-1.64,7.86-1.83,12.29,1.61,1.29-1.07,2.45-2.59,4.1-3.17,5.6-2.07,11.81-.5,17.21,1.5,1.35.53,2.81,1.22,4.1,1.87.69.39,1.64.85,2.46.69,1.9-.11,3.85-.6,5.74-.8,1.87-.17,3.86-.2,5.74-.35,1.93-.14,3.89.44,5.74.93,2.13.47,4.37.99,6.56,1.19,2.98.18,6.04-.19,9.01.05,2.71.23,5.46.85,8.19.65,4.4-.3,8.71-1.49,13.11-1.69,1.33-.31,2.78,0,4.1.23,1.3.18,2.79.23,4.1.12"/><path class="b" d="M13.65,196.24c2.19-.68,4.45-1.52,6.56-2.41,3.86-2.42,7.73-4.92,12.29-2.53,1.69.85,3.37,2.02,4.92,3.1,1.25.72,2.54,2.23,4.1,2.03,6.9-1.14,13.61,2.04,20.48,1.57,4.55-.54,8.84-2.42,13.11-3.98,5.58-2.37,7.21-2.28,11.47,2.24,1.07-1.26,1.92-3.11,3.28-4.11,2.54-1.89,5.96-2.1,9.01-1.98,3.94.25,7.87,1.09,11.47,2.74,2.29.91,4.37,2.46,6.56,3.55,1.61-.12,3.31-.5,4.92-.66,1.87-.16,3.86.07,5.74.02,2.49-.14,4.93.78,7.37,1.1,4.06.8,8.2.13,12.29.17,2.73-.01,5.48.59,8.19.75,2.43.14,4.95-.11,7.37-.3,2.72-.31,5.47-.86,8.19-1.15,2.43.27,4.92.86,7.37.72"/><path class="b" d="M13.65,195.14c2.81-.77,5.43-2.3,8.19-3.21,3.99-3.14,7.42-5.21,12.29-2.31,1.69.93,3.37,2.17,4.92,3.31,1,.6,2.03,1.86,3.28,1.81,2.14-.31,4.4-.7,6.56-.32,4.36.49,8.68,2.09,13.11,1.79,4.9-.44,9.57-2.37,13.93-4.57,4.72-2.67,6.13-.21,9.01,3.27,1.05-1.62,1.87-3.83,3.28-5.2,2.92-2.44,7.05-2.34,10.65-2.2,8.27.6,12.99,2.15,19.67,7.07,1.59-.21,3.3-.59,4.92-.56,2.15.2,4.4.41,6.56.59,4.03.89,8.19,1.18,12.29.61,2.42-.2,4.95-.27,7.37-.11,3.52.36,7.1.8,10.65.63,3.29.03,6.6-.42,9.83-.97,2.72.05,5.46.85,8.19.79"/><path class="b" d="M13.65,194.01c.72-.28,1.71-.59,2.46-.79,1.04-.49,2.25-1.14,3.28-1.65,1.27-.71,2.88-1.11,4.1-1.9,1.83-1.67,3.96-3.52,6.56-3.62,5.2.14,9.06,4.39,13.11,7.14,1.61.03,3.29-.62,4.92-.61,3.86,0,7.64,1.36,11.47,1.67,3.02.18,6.13-.34,9.01-1.24,1.96-.62,3.95-1.54,5.74-2.55,1.48-.78,3.16-2,4.92-1.6,1.9.59,2.67,2.86,4.1,4.04,1.35-1.97,1.96-4.94,4.1-6.26,3.82-1.95,9.01-1.25,13.11-.6,8.79,1.26,12.37.52,19.67,6.67,2.15-.43,4.43-.46,6.56.14,2.15.35,4.41.62,6.56.99,3.55.52,7.12-.34,10.65-.62,3.54-.31,7.13,0,10.65.35,2.43.18,4.94.2,7.37.25,1.88.04,3.87-.06,5.74-.27,1.03-.11,2.24-.4,3.28-.33,2.44.2,4.93.73,7.37.79"/><path class="b" d="M13.65,192.19c1.47-.9,3.29-.98,4.92-1.34,1.56-.92,3.26-1.88,4.92-2.63.89-.45,1.73-1.53,2.46-2.19,1.11-1.03,2.58-1.95,4.1-2.16,3.96-.42,9.14,2.92,12.29,5.18.75.59,1.74,1.42,2.46,2.04.41.19,1.2.26,1.64.13,1.32-.04,2.78-.29,4.1-.28,3.01.19,6,1.11,9.01,1.27,15.42.68,16.75-10.68,22.12-1.08,1.91-1.94,2-5.86,4.92-6.87,2.62-.77,5.51-.54,8.19-.22,2.18.19,4.43.43,6.56.95,3.49.77,7.13.53,10.65.95,1.92.43,3.98.94,5.74,1.86,1.47.74,2.74,2.07,4.1,2.97,1.91-.32,3.93,0,5.74.65,1.85.47,3.85.78,5.74,1.03,3.86.49,7.64-.93,11.47-1.13,2.98-.25,6.04-.06,9.01.19,2.98.19,6.03.3,9.01.43,1.31.04,2.79.04,4.1-.02,1.31-.11,2.77-.43,4.1-.38,2.44.16,4.93.64,7.37.78"/><path class="b" d="M13.65,189.8c1.63-1.21,3.81-1.4,5.74-.92.87-.08,1.75-.85,2.46-1.3,1.01-.69,2.3-1.38,3.28-2.12.39-.47,1.2-1.38,1.64-1.81,3.01-3,6.25-1.8,9.83-.89,2.33.63,4.62,1.78,6.55,3.22,1.41.99,2.68,2.46,4.1,3.43,1.87-.16,3.87-.1,5.74-.02,2.15.32,4.37.86,6.56.93,3.6.11,7.31-.42,10.65-1.81,2.39-.8,4.72-3.15,7.37-2.41,1.41.61,2.14,2.36,3.28,3.3,1.19-2.37,1.87-6.39,4.92-6.95,3.3-.46,6.62.22,9.83.92,2.13.4,4.4.5,6.56.72,2.4.47,4.92.84,7.37.77,2.73-.18,5.54.24,8.19.87,1.11.26,2.34.82,3.28,1.47.75.51,1.6,1.42,2.46,1.74.74-.05,1.74.03,2.46.2,4.39,1.63,8.43,2.76,13.11,1.46,3.46-.85,7.08-1.28,10.65-1.17,3.8.2,7.67.36,11.47.59,3.29.4,6.56-.1,9.83-.26,2.44.09,4.94.52,7.37.73"/><path class="b" d="M13.65,186.98c1.32-1.15,3.25-1.64,4.92-1.02.74.25,1.67.78,2.46.82,1.57-1.28,3.35-2.57,4.92-3.87,1.17-1.57,2.88-3.05,4.92-3.2,3.11-.16,6.19.73,9.01,1.99,1.63.68,3.42,1.36,4.92,2.31,1.45.92,2.87,2.23,4.1,3.42,3.85-.25,7.64,1.04,11.47,1.15,11.36.37,14.72-7.67,18.85-1.45l.82-.33c1.14-1.88,1.78-5,4.1-5.76,1.59-.18,3.32.02,4.92-.04,1.9.35,3.88.87,5.74,1.39,4.53,1.21,9.3,1.28,13.93,1.83,1.6.11,3.33,0,4.92-.2,2.44.06,5.04.06,7.37.86.8.33,1.79.96,2.46,1.51.35.39,1.09.93,1.64.94.75.02,1.75.23,2.46.49,3.03,1.49,6.46,2.54,9.83,1.68,2.69-.62,5.43-1.42,8.19-1.63,5.17-.37,10.4-.04,15.57.23,3.26.24,6.58-.08,9.83-.26,2.44.01,4.95.41,7.37.65"/><path class="b" d="M13.65,183.87c2.42-2.18,5.16-1.1,7.37.75l.82.05c1.87-1.78,3.98-3.52,5.74-5.43,1.97-1.74,5-1.75,7.37-.93,2.45.92,4.87,2.15,7.37,2.91,1.31.44,2.82.83,4.1,1.37,1.48.66,2.9,1.81,4.1,2.88,3.04.01,6.02,1.03,9.01,1.39,3.6.36,7.3-.42,10.65-1.71,2.82-1.12,5.96-2.85,8.19.26,1.84-1.32,2.3-4.07,4.1-5.43,1.49-.67,3.33-.04,4.92-.24,3.37-.08,6.57,1.57,9.83,2.2,2.14.42,4.38.81,6.56,1.02,1.9.08,3.87.39,5.74.73,6.84,1.03,10.35-3.6,16.39,2.18,1.73-.04,3.43.72,4.92,1.53,3.17,1.65,6.61.93,9.83-.12,2.38-.7,4.91-1.1,7.37-1.34,5.44-.67,10.94-.01,16.39.17,2.44.11,4.94-.23,7.37-.27,2.16.04,4.41.35,6.56.58"/><path class="b" d="M13.65,180.74c3.01-2.38,6.07.05,8.19,2.34,1.43-1.19,2.75-2.81,4.1-4.09,1.29-1.5,2.81-2.87,4.92-2.86,2.71-.19,5.04,1.68,7.37,2.78,3.03,1.62,6.52,1.96,9.83,2.62,1.47.38,2.8,1.42,4.1,2.14,1.63.17,3.34.63,4.92,1.06,4.01,1.37,8.36.68,12.29-.63,2.58-.77,5.81-2.84,8.19-.6,2.11-1.09,2.69-4.13,4.92-5.03,1.6-.01,3.32.23,4.92-.06,1.91.01,3.92.36,5.74.94,2.91.99,5.99,1.58,9.01,2.08,2.24.3,4.39.52,6.55,1.24,3.78,1.04,7.8.86,11.47-.5,1.3-.43,2.87-.77,4.1.03,1.14.56,2.06,1.88,3.28,2.26.75.03,1.76.25,2.46.52,2.29,1.06,4.76,2.51,7.37,1.78,2.45-.67,4.86-1.8,7.37-2.25,6.19-1.36,12.57-1.12,18.85-.58,2.44.22,4.95.06,7.37-.2,2.44-.07,4.95.28,7.37.52"/><path class="b" d="M13.65,177.91c3.26-1.95,6.29.78,8.19,3.29.58-.09,1.32-.82,1.64-1.27,1.04-1.2,2.31-2.61,3.28-3.87,3.73-3.62,8.03.33,11.47,2.29,1.74.96,3.76,1.6,5.74,1.81,1.87.23,3.87.09,5.74.36,1.1.21,2.32.77,3.28,1.35,1.33.32,2.81.73,4.1,1.2,4.32,1.92,8.81.87,13.11-.52,1.57-.51,3.25-1.27,4.92-1.36.76-.02,1.69.45,2.46.41.74-.77,1.78-1.77,2.46-2.6.61-.74,1.46-1.66,2.46-1.78,1.03.11,2.25.22,3.28.06.74-.1,1.71-.35,2.46-.31,2.22-.12,4.46.41,6.55,1.07,3.21.86,6.56,1.48,9.83,2.05,1.89.52,3.82,1.27,5.74,1.7,3.18.81,6.64,1.35,9.83.34,1.6-.42,3.23-1.41,4.92-1.42.84.11,1.82.69,2.46,1.23.35.37,1.11.86,1.64.84,2.8.58,5.16,3.32,8.19,2.51,2.48-.7,4.83-2.06,7.37-2.56,6.44-1.51,13.11-1.61,19.67-.88,2.17.35,4.39-.17,6.56-.29,2.44-.07,4.95.26,7.37.49"/><path class="b" d="M13.65,175.58c3.62-1.47,6.33,1.38,8.19,4.13,1.97-.75,2.85-3.34,4.1-4.9,2.81-3.31,7.12-.86,9.83,1.3,2.16,1.6,4.66,3,7.37,3.31,2.15.28,4.4.02,6.56-.08,1.38-.05,2.86.36,4.1.93,1.94.56,3.84,1.53,5.74,2.19,2.39.77,5,.38,7.37-.25,2.21-.48,4.43-1.24,6.56-2,.72-.23,1.7-.45,2.46-.41.46.17,1.2.13,1.64-.06,1.36-1.07,2.63-2.59,4.1-3.5.72-.31,1.71-.15,2.46-.1,1.05-.02,2.27-.31,3.28-.6,1.87-.3,3.88-.42,5.74.04,3.23.87,6.55,1.62,9.83,2.25,4.29,1.42,8.67,2.77,13.11,3.66,2.43.49,5.06.36,7.37-.59,1.29-.45,2.68-1.39,4.1-1.16,1.65.64,3.37,1.59,4.92,2.48,2.13,1.48,4.03,2.25,6.55,1.06,3.32-1.69,6.96-2.67,10.65-3.13,5.13-.95,10.4-.93,15.57-.25,1.6.17,3.3-.5,4.92-.48,2.71-.15,5.5.22,8.19.44"/><path class="b" d="M13.65,173.73c4.09-1.1,6.2,1.91,8.19,4.91,1.85-1.47,2.24-4.47,4.1-5.99,1.16-.85,2.75-.83,4.1-.55,3.17.56,5.45,3.31,8.19,4.8,3.75,2.36,8.13,1.83,12.29,1.26,3.28-.21,6.13,1.79,9.01,3.02,3.76,1.44,7.8-.21,11.47-1.18,2.11-.77,4.26-1.79,6.56-1.73,1.02-.83,2.32-1.69,3.28-2.59.91-.74,2.14-.96,3.28-.78,2.48-.2,4.84-1.54,7.37-1.51,1.64-.05,3.33.5,4.92.85,1.88.47,3.95.76,5.74,1.51,3.35,1.58,7.07,2.28,10.65,3.11,2.17.47,4.37,1.19,6.56,1.6,6.31,1.27,8.02-3.33,11.47-1.32,2.1,1.1,4.01,3.34,6.56,3.1,2.57-.47,4.82-2.16,7.37-2.72,6.15-1.38,12.53-2.58,18.85-1.75,1.89.33,3.84-.5,5.74-.51,2.99-.13,6.13-.04,9.01.83"/><path class="b" d="M13.65,172.19c3.73-.75,5.63,1.75,7.37,4.59l.82.13c1.3-2.82,2.57-7.19,6.56-6.11,1.04.2,2.24.51,3.28.73,1.99,1.06,3.85,2.56,5.74,3.78,2.18,1.39,4.78,2.27,7.37,2.24,3.53.02,7.31-1.69,10.65.14,2.11,1.08,4.13,2.73,6.56,2.98,1.91.22,3.92-.24,5.74-.81,2.57-.35,5.02-1.45,7.37-2.48.71-.29,1.69-.59,2.46-.58,1.8-.61,3.16-2.31,4.92-3,.72-.25,1.72-.15,2.46-.24.76-.14,1.75-.48,2.46-.77,4.17-1.86,6.36-1.56,10.65-.52,2,.48,3.76,1.93,5.74,2.54,2.35.88,4.92,1.33,7.37,1.81,2.17.41,4.42.91,6.56,1.47,1.86.47,3.81,1.13,5.74,1.22,1.36.06,2.86-.27,4.1-.83,1.24-.59,2.66-1.49,4.1-1.06,1.8,1.12,3.52,2.95,5.74,3.1,2.61-.11,4.88-1.87,7.37-2.49,5.86-1.45,11.96-2.8,18.03-2.25,1.61.22,3.3-.59,4.92-.63,3.58-.33,7.38-.24,10.65,1.42"/><path class="b" d="M13.65,170.8c5.17-.46,4.49,3.43,7.37,4.11,1.6-2.83,2.44-6.53,6.56-5.21,1.59.44,3.32.82,4.92,1.2,1.91,1.11,3.8,2.47,5.74,3.54,2.23,1.21,4.84,1.86,7.37,1.7,2.45-.1,4.91-1.12,7.37-.71,4.32.69,6.16,5.06,11.47,4.32,1.05-.12,2.26-.45,3.28-.72,1.36-.1,2.83-.53,4.1-1.03,1.64-.64,3.31-1.56,4.92-2.29.71-.32,1.75-.44,2.46-.77,1.33-.76,2.61-1.96,4.1-2.42,1.03-.24,2.3-.19,3.28-.64,3.22-1.43,6.17-3.17,9.83-2.3,1.46.33,2.78,1.45,4.1,2.12,3.46,2.09,7.55,2.61,11.47,3.2,3.3.52,6.6,1.37,9.83,2.22,7.12,2.32,8.61-2.49,11.47-.83,4.89,3.94,6.25,2.24,11.47.43,5.83-1.7,11.93-2.96,18.03-2.79,3.41-1.09,7.12-1.21,10.65-.8,1.73.37,3.39,1.35,4.92,2.2"/><path class="b" d="M13.65,169.5c1.58-.09,3.17.72,4.1,1.98.57.68,1.64.86,2.46,1.03,3.02-4.43,2.58-5.19,8.19-3.41,1.57.52,3.36.61,4.92,1.13,2.14,1.15,4.29,2.52,6.55,3.4,2.05.79,4.37,1.1,6.56.84,1.6-.21,3.29-.72,4.92-.7,6.36-.03,7.12,7.18,15.57,4.73,3.54-.13,6.78-1.93,9.83-3.57.97-.57,2.17-1.12,3.28-1.32.42-.25,1.24-.78,1.64-1.06,1.43-1.21,3.21-1.33,4.92-1.78,1.65-.68,3.29-1.72,4.92-2.44,1.49-.72,3.32-1.23,4.92-.54,2.22,1.05,4.25,2.68,6.56,3.56,3.37,1.36,7.12,1.31,10.65,1.91,4.14.62,8.17,2.01,12.29,2.72,1.33.17,2.84,0,4.1-.49,1.26-.52,2.69-1.45,4.1-1.01.69.51,1.7,1.16,2.46,1.56,2.01,1.23,4.47.8,6.56,0,1.85-.63,3.84-1.24,5.74-1.71,2.69-.65,5.46-1.3,8.19-1.72,1.58-.33,3.36-.17,4.92-.56,3.64-1.31,7.68-1.24,11.47-.73,1.73.6,3.34,1.78,4.92,2.69"/><path class="b" d="M13.65,168.32c1.23.07,2.23,1.1,3.28,1.59.73.15,1.73.34,2.46.51.78-.92,1.49-2.4,2.46-3.14,2.11-1.06,4.45.54,6.56.94,1.84.59,3.91.55,5.74,1.12,2.11,1,4.31,2.09,6.55,2.77,1.56.46,3.3.68,4.92.58,2.42-.23,4.94-.87,7.37-.35,7.2,3.81,5.89,7.1,15.57,5.36,3.77-.99,7.28-2.95,10.65-4.87.7-.4,1.75-.64,2.46-1.02.4-.3,1.2-.86,1.64-1.11.96-.53,2.21-.82,3.28-1.04,1.42-.5,2.8-1.48,4.1-2.22,5.45-3.76,7.37.44,12.29,2.25,3.64,1.4,7.69.95,11.47,1.66,4.14.62,8.16,2.05,12.29,2.7,1.32.21,2.84.1,4.1-.38,1.26-.55,2.69-1.23,4.1-1.11,1,.57,2.18,1.32,3.28,1.71,2.09.84,4.45.45,6.56-.15,1.87-.5,3.86-1.05,5.74-1.52,3.22-.83,6.51-1.71,9.83-2.01,1.25-.55,2.74-.99,4.1-1.17,2.98-.41,6.03.22,9.01.35,1.8.27,3.29,1.77,4.92,2.52"/><path class="b" d="M13.65,167.44c1.46.55,3.36,1.15,4.92,1,.84-1.49,2.11-3.39,4.1-2.88,1.9.43,3.83,1.21,5.74,1.63,2.12.6,4.4.7,6.56,1.02,1.56.67,3.29,1.25,4.92,1.72,2.37.73,4.93.73,7.37.53,1.85-.02,4.09-.44,5.74.59,6.07,3.87,7.25,8.01,15.57,5.76,3.59-1.41,7.2-2.98,10.65-4.69.99-.59,2.15-1.34,3.28-1.63.69-.51,1.67-1.13,2.46-1.46,1-.44,2.33-.53,3.28-1.1,5.69-3.72,6.03-5.01,12.29-1.05,2.71,1.59,5.92,2.02,9.01,1.96,2.45.04,4.98.37,7.37.87,4.6.76,9.2,3.08,13.93,2.31,1.59-.45,3.2-1.43,4.92-1.31,1.36.39,2.68,1.37,4.1,1.64,3.56.8,7.2-.45,10.65-1.25,2.69-.69,5.45-1.49,8.19-1.96,2.08-.74,4.3-1.51,6.56-1.27,2.17.13,4.39.72,6.55.88,1.31.16,2.83-.07,4.1.31.7.41,1.72.94,2.46,1.28"/><path class="b" d="M13.65,166.2c1.01.31,2.24.6,3.28.79,1.97-3.13,3.1-3.45,6.56-2.37,2.96.77,5.98,1.67,9.01,2.11,1.03.14,2.24.21,3.28.19,1.6.4,3.28.97,4.92,1.18,3.23.54,6.59.18,9.83.61,2.3.67,3.99,2.68,5.74,4.2,2.41,2.17,5.65,4.08,9.01,3.59,3.46-.66,6.57-2.6,9.83-3.85,1.56-.7,3.33-1.21,4.92-1.82,2.16-1.11,4.31-2.51,6.55-3.44,3.67-.4,5.84-5.28,9.83-4.14,2.24.76,4.26,2.31,6.56,2.97,3.17,1.01,6.58.28,9.83.68,5.03.43,9.79,2.38,14.75,3.18,1.31.17,2.8.16,4.1-.1,1.58-.44,3.23-1.26,4.92-1.17,1.12,0,2.21.87,3.28,1.14,2.92.91,6.08.4,9.01-.19,3.01-.6,6.02-1.51,9.01-2.16,1.51-.66,3.26-1.16,4.92-1.04,2.76.23,5.44,1.34,8.19,1.63,1.59.16,3.33.08,4.92-.01.72-.04,1.75-.16,2.46.1"/><path class="b" d="M13.65,165.05c.45.22,1.18.23,1.64.03,2.19-3.13,4-2.82,7.37-2.09,3.01.62,6.01,1.57,9.01,2.21,1.3.27,2.77.45,4.1.44.75-.02,1.73-.12,2.46.05,3.47.89,7.12.75,10.65,1.2,5.14,1.71,6.75,8.96,13.93,8.7,3.21-.12,6.12-1.83,9.01-3.04,2.4-1.01,4.95-1.89,7.37-2.86,1.02-.37,2.32-.52,3.28-1.06,1.58-.87,3.25-1.9,4.92-2.61.76-.24,1.81-.44,2.46-.94,1.64-1.38,3.44-3.26,5.74-3.27,2.32.2,4.34,1.76,6.56,2.38,3.17,1.09,6.57.18,9.83.43,5.62.27,10.85,2.8,16.39,3.48,1.32.12,2.81.04,4.1-.28,1.83-.53,3.81-1.2,5.74-.89,1.58.49,3.24,1.22,4.92,1.33,4.44.27,8.84-.99,13.11-2.04,5.08-2.17,8.2.06,13.11,1.09,2.95.58,6.05.24,9.01-.05"/><path class="b" d="M13.65,162.77c1.94-2.06,4.75-2.23,7.37-1.74,3.61.54,7.12,1.75,10.65,2.64,2.38.64,4.93.62,7.37.55,2.7.3,5.48.73,8.19.98,5.08,1.88,7.13,9.01,13.11,9.1,4.74.3,8.76-2.74,13.11-4.1,1.58-.51,3.34-.88,4.92-1.41,1.85-.75,3.84-1.42,5.74-2.02,1.86-.9,3.69-2.19,5.74-2.66,1.63-1.02,3.02-2.74,4.92-3.3,1.97-.5,3.91.64,5.74,1.22,2.07.72,4.39.9,6.56.62,6.77-1.29,13.19,1.78,19.67,3.17,1.58.29,3.32.42,4.92.19,1.88-.33,3.8-1.06,5.74-1.1,1.98-.2,3.83.88,5.74,1.18,4.12.47,8.31-.47,12.29-1.44,1.79-.64,3.86-.86,5.74-.48,2.73.62,5.41,1.73,8.19,2.13,2.96.45,6.04.15,9.01-.08"/><path class="b" d="M13.65,159.68c2.57-1.14,5.51-.86,8.19-.37,4.98.82,9.66,3.27,14.75,3.44,3.83.22,8.23-.23,11.47,2.2,4.26,3.34,6.78,8.65,13.11,7.56,4.11-.41,7.61-2.94,11.47-4.17,2.92-.94,6.21-.55,9.01-1.93,1.56-.73,3.33-1.31,4.92-1.98,1.29-.68,2.71-1.44,4.1-1.9,2.02-1.22,3.94-3.5,6.56-2.83,2.39.61,4.87,1.39,7.37,1.13,2.16-.14,4.38-.72,6.56-.62,4.79.19,9.31,2.16,13.93,3.22,2.11.49,4.39.81,6.56.56,2.16-.3,4.34-1.14,6.56-1.06,1.92,0,3.85.76,5.74,1.04,2.15.24,4.42.08,6.56-.2,6.3-1.15,7.39-1.94,13.93.1,4.53,1.28,9.29,1.01,13.93.76"/><path class="b" d="M13.65,157.21c6.45-1.39,12.75,1.49,18.85,3.22,2.65.69,5.47.86,8.19.99.74.04,1.72.13,2.46.22,1.36.6,2.85,1.37,4.1,2.19,4.16,3.04,7.22,8.02,13.11,6.61,7.78-1.29,10.1-6.06,18.85-4.89,2.65.18,5.09-1.24,7.37-2.4,1.59-.72,3.24-1.67,4.92-2.16,1.09-.53,2.19-1.48,3.28-2,1.82-.82,3.87-.01,5.74.14,3.01.31,6.03-.63,9.01-.86,3.06-.23,6.1.72,9.01,1.51,3.2.93,6.5,1.81,9.83,2.1,3.31.48,6.56-.75,9.83-.91,2.98.35,6.01.94,9.01.96,2.73.06,5.48-.61,8.19-.78,3.61-.33,7.1,1.02,10.65,1.35,4.07.45,8.21.06,12.29.05"/><path class="b" d="M13.65,154.95c6.52-.99,12.77,1.7,18.85,3.64,2.11.6,4.38.94,6.56,1.18,1.44.11,2.85.18,4.1,1,1.87,1.12,4.07,1.94,5.74,3.39,3.12,2.59,6.31,5.36,10.65,4.1,2.83-.7,5.64-1.76,8.19-3.17,3.79-2.14,7.22-3.13,11.47-1.7,2.17.7,4.57.45,6.55-.65,2.09-1.19,4.12-2.79,6.56-3.15,1.33-.58,2.62-1.68,4.1-1.86,2.43-.11,4.97.38,7.37-.22,2.67-.56,5.46-1.19,8.19-.81,4.92.84,9.74,2.51,14.75,2.85,1.87.17,3.86.26,5.74.11,1.59-.11,3.31-.5,4.92-.4,3.53.21,7.12.5,10.65.56,2.43,0,4.94-.26,7.37-.25,3.29-.06,6.56.85,9.83.93,4.36.13,8.76-.3,13.11-.23"/><path class="b" d="M13.65,152.67c6.55-.72,12.8,1.85,18.85,4.01,1.84.58,3.83,1,5.74,1.31,1.72.14,3.45.78,4.92,1.67,2.2,1.12,4.49,2.32,6.56,3.69,2.53,1.98,5.73,3.74,9.01,2.71,2.81-.87,5.62-2.06,8.19-3.48,4.05-2.38,7.79-3.97,12.29-1.62,2.26,1.18,5.01,1.73,7.37.49,1.83-1.02,3.57-2.78,5.74-3,1.69-.32,3.17-1.63,4.92-1.75,2.74-.03,5.56-.09,8.19-.94,3.79-1.19,7.7-.36,11.47.44,3.22.6,6.56.9,9.83,1.03,3.53.13,7.12.15,10.65.37,3.25.15,6.58.04,9.83.26,4.93.09,9.84-.03,14.75.58,5.45.29,10.93-.74,16.39-.5"/><path class="b" d="M13.65,150.26c6.58-.28,12.85,2,18.85,4.44,3.18,1.29,6.82,1.3,9.83,3.02,2.79,1.34,5.47,3.04,8.19,4.51,2.22,1.24,4.79,2.37,7.37,1.62,2.85-.85,5.57-2.37,8.19-3.76,2.95-1.7,6.29-3.8,9.83-2.99,3.62.87,6.65,4.66,10.65,3.34,1.48-.44,2.64-1.76,4.1-2.27,1-.47,2.17-1.09,3.28-1.26,1.04-.33,2.21-.9,3.28-1.15,2.14-.34,4.44-.12,6.56-.68,5.77-1.88,8.23-.93,13.93-.38,2.97.28,6.03.19,9.01.28,2.41.4,4.93.78,7.37.87,3.53.16,7.12.1,10.65,0,3.52.34,7.12.26,10.65.36,2.43.08,4.94.39,7.37.36,2.72-.03,5.49-.49,8.19-.68,2.43.18,4.9.93,7.37.76"/><path class="b" d="M13.65,147.87c6.9-.08,13.44,2.35,19.67,5.1,2.63,1.1,5.63,1.31,8.19,2.56,1.28.74,2.8,1.37,4.1,2.08,1.3.76,2.74,1.63,4.1,2.28,2.05.91,4.24,2.13,6.56,1.91,2.37-.24,4.5-1.6,6.56-2.7,3-1.47,5.74-3.7,9.01-4.55,6.41-1.79,8.93,5.23,14.75,4.73,1.16-.11,2.28-.86,3.28-1.39,2.39-1.12,4.78-2.42,7.37-3,2.1-.59,4.42-.3,6.55-.74,3.22-.83,6.49-1.44,9.83-1.12,3.53.24,7.13-.07,10.65-.04,4.05.69,8.17,1.38,12.29,1.34,2.71.02,5.49-.09,8.19-.24,3.25.24,6.57.29,9.83.34,2.43.06,4.94.31,7.37.27,2.39.09,5.08-.72,7.37-.59,2.93.74,5.97,1.47,9.01,1.45"/><path class="b" d="M13.65,145.53c5.04.06,10.09,1.25,14.75,3.14,2.18.86,4.36,2,6.56,2.82,1.83.71,3.9,1.02,5.74,1.69,2.47,1.16,4.99,2.42,7.37,3.73,2.57,1.18,5.37,2.37,8.19,2.69,7.29-1.16,13.46-11,21.3-6.52,2.91,1.72,5.4,4.72,9.01,4.82,1.41.06,2.83-.65,4.1-1.18,1.89-.84,3.89-1.72,5.74-2.66,1.83-.53,3.84-.75,5.74-.81,2.75-.06,5.47-.87,8.19-1.16,4.08-.32,8.21-.58,12.29-.94,4.34.63,8.72,1.47,13.11,1.51,4.64.16,9.3-.53,13.93-.17,5.45-.07,10.97.74,16.39-.07,1.64-.44,3.33.41,4.92.74,2.39.62,4.91,1.13,7.37,1.23"/><path class="b" d="M13.65,143.23c5.34.08,10.65,1.53,15.57,3.55,2.19.88,4.36,2.05,6.56,2.91,1.83.74,3.9,1.03,5.74,1.73,2.43,1.2,4.93,2.47,7.37,3.63,2.34.96,4.89,1.56,7.37,1.97.42.06,1.22.19,1.64.25,1.1-.31,2.3-.95,3.28-1.55,2.18-1.31,4.36-2.84,6.56-4.12,3.37-2.08,7.41-2.18,10.65.2,2.12,1.43,4.06,3.44,6.56,4.21,2.44.99,5.07.11,7.37-.84,2.2-.82,4.38-1.96,6.55-2.83,3.23-.57,6.6-.35,9.83-.95,2.7-.44,5.49-.81,8.19-1.23,1.86-.19,3.87-.8,5.74-.56,4.07.5,8.19,1.17,12.29,1.3,4.36.2,8.76-.22,13.11-.35,2.7.13,5.49.06,8.19.16,2.98.12,6.05.26,9.01-.15,1.64-.33,3.33.63,4.92.94,2.66.71,5.44,1.33,8.19,1.54"/><path class="b" d="M13.65,141.01c5.65.1,11.18,1.88,16.39,3.95,2.19.88,4.36,2.03,6.56,2.9,1.82.74,3.88,1.07,5.74,1.71,2.41,1.19,4.89,2.5,7.37,3.53,2.34.86,4.9,1.21,7.37,1.4.74.06,1.72.12,2.46.15.82-.12,1.76-.7,2.46-1.11,2.45-1.41,4.77-3.25,7.37-4.37,7.64-3.18,10.69,4.41,17.21,5.71,3.7.37,7.29-1.16,10.65-2.49,1.07-.46,2.29-1.11,3.28-1.72.41-.05,1.23-.15,1.64-.2,2.42-.25,4.96-.08,7.37-.42,3.56-.45,7.12-1.3,10.65-1.93,1.59-.35,3.32.16,4.92.25,2.15.21,4.4.43,6.56.62,6,.5,12.04-.02,18.03-.22,5.18-.1,10.4.29,15.57-.11,4.31,1.13,8.64,2.47,13.11,2.85"/><path class="b" d="M13.65,138.95c8.03.35,15.68,3.53,22.94,6.74,2.32,1.12,5.05,1.32,7.37,2.36,2.17.98,4.34,2.21,6.56,3.1,2.33.86,4.91,1.08,7.37,1.1,1.03.01,2.25,0,3.28-.06,3.12-1.28,5.78-3.68,9.01-4.71,4.63-1.66,8.68,1.75,12.29,4.17,2.38.71,4.85,1.6,7.37,1.55,3.1-.05,6.18-1.08,9.01-2.29,1.38-.61,2.79-1.54,4.1-2.28.4-.04,1.23-.1,1.64-.11,2.43-.06,4.96,0,7.37-.34,3.01-.4,6.03-1.18,9.01-1.71,4.62.46,9.29.85,13.93.96,5.46.17,10.94-.28,16.39-.48,4.08-.21,8.21.07,12.29-.14,2.2.27,4.41,1.06,6.56,1.58,2.66.66,5.46,1.12,8.19,1.38"/><path class="b" d="M13.65,137.09c4.19.19,8.31,1.31,12.29,2.55,3.89,1.15,7.75,2.6,11.47,4.22,2.6,1.21,5.57,1.45,8.19,2.55,4.95,2.24,7.3,4.15,13.11,3.9.74-.01,1.72-.06,2.46-.12.76-.26,1.74-.73,2.46-1.1,2.11-1.09,4.25-2.39,6.56-3.02,3.5-1.08,7,.6,9.83,2.56,2.26.23,4.46,1.06,6.56,1.89,2.07.74,4.36,1.19,6.56.98,2.53-.28,5.09-1.04,7.37-2.15,1.05-.52,2.27-1.22,3.28-1.83.7-.4,1.62-1.06,2.46-1.1,2.15.02,4.41.12,6.56-.08,2.73-.23,5.5-.82,8.19-1.31,4.88.5,9.84.68,14.75.72,8.75.11,17.47-1.04,26.22-.84,2.77.18,5.5,1.12,8.19,1.74,2.67.61,5.47.93,8.19,1.16"/><path class="b" d="M13.65,135.45c4.45.43,8.83,1.56,13.11,2.82,3.58,1,7.2,2.08,10.65,3.47,1.57.61,3.28,1.24,4.92,1.65,1.6.42,3.38.68,4.92,1.32,1.97.66,3.83,1.86,5.74,2.65,2.28.89,4.96,1.54,7.37.89,4.8-1.43,9.53-5.17,14.75-3.38.76.24,1.75.67,2.46,1.03.73,0,1.73.03,2.46.1,6.01.59,9.69,5.21,16.39,3.72,2.85-.51,5.56-1.81,8.19-2.94,1.58-.83,3.21-1.86,4.92-2.43,3.82.27,7.71,0,11.47-.71,5.16.48,10.38.6,15.57.49,3.81-.07,7.67-.19,11.47-.5,4.07-.33,8.2-.77,12.29-.67,3.33.12,6.6,1.12,9.83,1.83,2.67.56,5.48.72,8.19.86"/><path class="b" d="M13.65,133.99c4.43.63,8.78,1.85,13.11,2.94,4.7,1.05,9.39,2.3,13.93,3.93,2.11.69,4.38,1.17,6.56,1.59,2.24.7,4.38,1.92,6.56,2.79,6.43,3.15,11.61-2.57,18.03-2.24,1.36-.02,2.76.63,4.1.66,1.58-.29,3.33-.33,4.92-.08,2.64.36,5.02,1.81,7.37,2.95,5.02,2.62,7.81,2,13.11,1.26,2.54-.36,5.09-1.14,7.37-2.32,1.87-.87,3.69-2.19,5.74-2.62,1.82-.53,3.87-.21,5.74-.53,2.42-.35,4.94.33,7.37.37,5.72.09,11.49-.13,17.21-.49,5.45-.29,10.91-1.54,16.39-1.09,3.03.26,6.03,1.14,9.01,1.7,2.67.49,5.48.49,8.19.52"/><path class="b" d="M13.65,132.68c3.59.69,7.07,2.04,10.65,2.78,4.05.95,8.26,1.31,12.29,2.33,2.45.61,4.93,1.45,7.37,2.07,1.86.5,3.89.73,5.74,1.26,2.62,1.11,5.3,2.55,8.19,2.73,3.94.05,7.56-2.15,11.47-2.37,1.61-.14,3.35.08,4.92.47,2.08-.68,4.38-1.03,6.56-.64,3.55.6,6.58,2.84,9.83,4.25,2.28,1.1,4.86,1.49,7.37,1.39,2.71.07,5.52-.03,8.19-.51,3.43-.61,6.61-2.23,9.83-3.47,1.82-.66,3.89-.9,5.74-1.49,2.68-.49,5.49-.21,8.19-.12,3.81-.09,7.68-.18,11.47-.58,2.43-.2,4.96-.25,7.37-.64,3.52-.48,7.08-1.26,10.65-1.14,3.6.1,7.12,1.17,10.65,1.74,2.68.42,5.49.26,8.19.18"/><path class="b" d="M13.65,131.67c3.54,1.07,7.01,2.58,10.65,3.3,3.48.83,7.12.77,10.65,1.14,3.6.39,7.14,1.45,10.65,2.27,2.43.62,5.09.73,7.37,1.83,3.83,1.64,6.72,1.59,10.65.46,2.11-.53,4.37-.99,6.56-.93,1.34-.03,2.77.42,4.1.41.72-.25,1.71-.55,2.46-.71,5.05-1.18,9.55,2.12,13.93,4.1,3.03,1.54,6.47,1.99,9.83,2.09,3.82.1,7.75-.13,11.47-1.03,3.54-.95,7.04-2.24,10.65-2.94,5.96-1.08,12.02-1.86,18.03-2.71,2.42-.31,4.95-.17,7.37-.31,2.72-.48,5.45-1.27,8.19-1.61,4.42-.61,8.79.75,13.11,1.47,1.58.27,3.32.34,4.92.27,1.32-.09,2.8-.23,4.1.17"/><path class="b" d="M13.65,130.66c9.29,4,12.89,4.55,22.94,4.49,5.53.35,10.92,1.95,16.39,2.77,3.59,1.48,6.9,1.68,10.65.74,3.48-.77,7.16-1.06,10.65-.23,1.88-.23,3.8-1.02,5.74-.81,4.97.57,9.21,3.75,13.93,5.22,4.2,1.39,8.75,1.39,13.11,1.01,3.57-.16,7.19-.48,10.65-1.4,3.26-.83,6.6-1.65,9.83-2.58,3.47-1.17,7.04-2.21,10.65-2.84,1.86-.32,3.85-.6,5.74-.46,1.87.04,3.9.5,5.74.04,7.88-2.7,10.03-2.22,18.03-.53,2.12.45,4.39.54,6.56.46,1.31.34,2.78.75,4.1,1.08"/><path class="b" d="M13.65,129.56c2.94,1.3,5.85,2.93,9.01,3.62,5.09,1.05,10.39.98,15.57.98,3.57-.02,7.14.64,10.65,1.19,2.44.39,5.01.52,7.37,1.29,5.16,1.36,10.36-1.11,15.57-.6,1.61.06,3.31.48,4.92.62,1.57-.34,3.32-.46,4.92-.2,3.98.78,7.67,2.69,11.47,4.04,5.34,2.13,9.99,2.08,15.57,1.26,3.26-.23,6.62-.22,9.83-.88,1.67-.24,3.33-.99,4.92-1.54,1.91-.59,3.98-1,5.74-1.99,5.92-2.86,11.5-4.33,18.03-2.68.71.11,1.73.22,2.46.21.72-.29,1.74-.72,2.46-1.02,1.79-.76,3.78-1.41,5.74-1.47,3.33-.09,6.59,1.04,9.83,1.61,1.57.3,3.31.5,4.92.42,1.9.48,3.85,1.2,5.74,1.72"/><path class="b" d="M13.65,128.38c3.6,1.9,7.32,3.9,11.47,4.15,4.07.32,8.21.35,12.29.61,2.98.03,6.04-.13,9.01.22,2.98.29,6.03.54,9.01.86,2.39.58,4.91.97,7.37.66,4.61-.6,9.3-1.27,13.93-.49,2.71.41,5.5.82,8.19,1.32,2.5.55,4.98,1.49,7.37,2.37,4.15,1.59,8.63,3.04,13.11,2.22,1.88-.32,3.84-.82,5.74-1,2.15-.22,4.41-.28,6.56-.56.73-.1,1.74-.27,2.46-.43,1.04-.53,2.22-1.28,3.28-1.78.69-.34,1.71-.7,2.46-.89.74-.17,1.78-.19,2.46-.57,2.62-1.4,5.26-3.11,8.19-3.78,2.12-.39,4.42-.46,6.56-.14,1.34.27,2.79.8,4.1,1.2.7.22,1.73.45,2.46.56.8-.18,1.75-.79,2.46-1.17,1.73-.96,3.74-1.72,5.74-1.7,3.35.06,6.56,1.43,9.83,2.01,1.57.37,3.32.37,4.92.46,1.88.58,3.84,1.33,5.74,1.85"/><path class="b" d="M13.65,127.12c6.33,3.79,9.16,4.15,16.39,4.27,2.99.11,6.03.47,9.01.63,1.88.12,3.86-.1,5.74-.12,3.81.02,7.68.06,11.47.37,2.15.24,4.37.79,6.56.63,2.99-.12,6.02-.69,9.01-.81,3.27-.16,6.6.14,9.83.58,4.54.65,8.82,2.56,13.11,4.09,2.62.95,5.37,1.98,8.19,1.98,3.1.06,6.01-1.38,9.01-1.96,2.41-.51,4.96-.75,7.37-1.28.88-.25,1.75-1.15,2.46-1.69,1.18-.93,2.63-1.85,4.1-2.22,1.02-.33,2.32.07,3.28-.42,4.44-2.88,6.76-4.27,12.29-3.38,2.93.31,5.44,2.18,8.19,3.04,1.21-.12,2.22-1.26,3.28-1.78,4-2.64,8.23-.58,12.29.69,2.36.76,4.9,1.04,7.37.9,1.87.62,3.82,1.36,5.74,1.8"/><path class="b" d="M13.65,125.79c7.07,4.51,10.25,3.55,18.03,4.2,3.26.3,6.56.85,9.83.9,3.53-.09,7.11-.55,10.65-.6,4.65-.27,9.29.88,13.93.49,11.85-1.07,17.57-1.1,28.68,3.72,1.83.72,3.82,1.37,5.74,1.84,1.84.52,3.86.86,5.74.29,1.94-.53,3.85-1.52,5.74-2.19,2.12-.8,4.4-1.44,6.56-2.13,1.23-.6,2.21-1.97,3.28-2.8,2.32-2.04,4.3-2.66,7.37-2.36,4.72-3.24,7.56-3.75,13.11-2.31,2.71.78,4.9,2.81,7.37,4.06.54.02,1.28-.47,1.64-.85.7-.57,1.67-1.3,2.46-1.75,3.83-2.29,7.81.79,11.47,1.96,2.35.86,4.92.94,7.37.62,1.85.63,3.8,1.33,5.74,1.64"/><path class="b" d="M13.65,124.41c6.26,4.02,9.54,3.11,16.39,3.76,4.08.46,8.17,1.39,12.29,1.45,3.56.01,7.1-.89,10.65-1.07,5.72-.31,11.48.57,17.21.07,11.2-.59,15.89-.46,26.22,4.23,3.64,1.31,7.63,1.53,11.47,1.49,2.2-.99,4.39-2.24,6.56-3.29,1.04-.55,2.38-1.04,3.28-1.82,2.2-2.09,4.42-4.56,7.37-5.54.7-.23,1.72-.39,2.46-.37.39.1,1.25.04,1.64-.11,1.51-.84,3.2-1.72,4.92-2.03,3.3-.44,6.82.39,9.83,1.72,2.1,1.12,3.79,3.04,5.74,4.37,1.55-.65,2.61-2.39,4.1-3.2,3.97-2.45,7.76,1.81,11.47,2.89,1.27.44,2.75.75,4.1.74,1.04.01,2.24-.34,3.28-.32,1.83.61,3.8,1.21,5.74,1.36"/><path class="b" d="M13.65,123c5.73,3.63,9.38,2.56,15.57,3.23,5.43.76,10.86,2.47,16.39,1.87,2.99-.41,5.99-1.22,9.01-1.38,4.9-.15,9.85.04,14.75-.14,7.1-.11,14.42-.7,21.3,1.42,1.96.65,3.83,1.8,5.74,2.58,2.83,1.19,6.03,1.06,9.01.67,3.22-.29,6.46-1.24,9.01-3.29,3.48-2.54,6.38-6.28,10.65-7.53,1-.33,2.28-.12,3.28-.45,1.74-.9,3.76-1.57,5.74-1.57,3.05.09,6.16.83,9.01,1.89,2.71,1.14,4.39,3.82,6.56,5.68,1.49-1.58,2.9-3.63,4.92-4.57,2.71-.88,5.16,1.32,7.37,2.56,1.72,1.04,3.72,1.88,5.74,2.06,1.32.12,2.8-.04,4.1-.28,2.11.59,4.35,1.14,6.56,1.15"/><path class="b" d="M13.65,121.61c5.45,3.38,9.72,2.02,15.57,2.72,5.45.74,10.82,2.76,16.39,2.25,3.03-.25,5.98-1.35,9.01-1.61,4.62-.3,9.31-.22,13.93-.46,6.28-.3,12.62-.9,18.85.32,1.63.26,3.39.61,4.92,1.25,1.36.59,2.76,1.48,4.1,2.12,2.79,1.43,6.08,1.24,9.01.37,2.89-.73,5.77-1.89,8.19-3.65,3.26-2.23,6.13-5.26,9.83-6.8.98-.39,2.23-.59,3.28-.64,1.22-.65,2.71-1.18,4.1-1.3,1.89-.19,3.88.18,5.74.52,1.9.35,3.91.74,5.74,1.38,2.96,1,4.69,3.86,6.56,6.16l.82-.18c2.4-4.49,3.95-6.28,9.01-3.77,2.3,1.48,4.6,3.37,7.37,3.84,1.59.29,3.33.08,4.92-.15,2.37.64,4.91.99,7.37.91"/><path class="b" d="M13.65,120.27c4.64,2.77,8.89,1.84,13.93,2.05,4.42.31,8.74,1.65,13.11,2.3,2.41.38,4.96.44,7.37.03,2.17-.38,4.37-1.12,6.56-1.42,1.59-.28,3.32-.13,4.92-.04,2.15.03,4.41.02,6.56-.11,5.18-.39,10.35-1.56,15.57-1.28,3.57.13,7.23.67,10.65,1.71,1.7.62,3.3,1.78,4.92,2.58,2.52,1.36,5.57,1.31,8.19.27,2.6-.91,5.13-2.25,7.37-3.85,3.72-2.44,7.02-6.05,11.47-7.1,1.11-.05,2.21-.85,3.28-1.09,1-.26,2.25-.32,3.28-.21,1.61.18,3.32.63,4.92.9,2.17.36,4.5.57,6.56,1.42,1.21.51,2.42,1.53,3.28,2.51.75.9,1.54,2.38,2.46,3.13l.82.16c1.9-4.11,3.48-6.64,8.19-4.03,1.01.52,2.28,1,3.28,1.56,1.67,1.22,3.63,2.35,5.74,2.52,1.33.17,2.78-.3,4.1-.15,2.66.6,5.48.75,8.19.59"/><path class="b" d="M13.65,118.97c4.7,2.67,9.69,1.25,14.75,1.61,5.77.52,11.37,2.62,17.21,2.56,1.62,0,3.35-.24,4.92-.62,1.32,0,2.79-.06,4.1-.19,1.59-.19,3.31.22,4.92.1,2.17-.04,4.42-.41,6.56-.77,4.38-.75,8.62-2.56,13.11-2.63,3.3-.11,6.62.6,9.83,1.29,1.31.32,2.78.66,4.1.97,1.67.69,3.33,1.71,4.92,2.56,5.08,3.03,10.65-.62,14.75-3.7,3.6-2.64,7.02-5.9,11.47-6.98,2.5-1.5,5.54-.95,8.19-.2,6.21,1.44,10.13-.09,13.93,6.53.42.07,1.24.31,1.64.48,2.03-4.29,3.56-6.3,8.19-3.39,1.52.85,3.23,1.65,4.92,2.1,1.19.8,2.66,1.48,4.1,1.64,1.03.14,2.25-.14,3.28-.08.72.15,1.72.32,2.46.41,2.42.28,4.95.13,7.37-.09"/><path class="b" d="M13.65,117.69c4.88,2.53,10.38.68,15.57,1.19,4.13.43,8.18,1.67,12.29,2.25,2.7.48,5.5.1,8.19.59,2.16.25,4.4-.19,6.56-.19,3.05.06,6.09-.75,9.01-1.52,4.52-.86,8.46-3.75,13.11-4.15,3.35-.44,6.66.67,9.83,1.57,1.63.41,3.33,1.06,4.92,1.6,1.4.36,2.84,1.06,4.1,1.77,6.11,3.49,9.42,2.29,14.75-1.79,3.43-2.44,6.52-5.86,10.65-7.07,1.67-1.06,3.77-1.59,5.74-1.2,2.16.39,4.36,1.13,6.56,1.29,5.13.11,7.58,1.68,10.65,5.72.41,0,1.24.11,1.64.2,3.69-8.44,6.53-2.82,12.29-.87,1.3.43,2.83.63,4.1,1.16,1,.32,2.24.27,3.28.29,3.75.94,7.69.53,11.47-.02"/><path class="b" d="M13.65,116.39c4.96,2.24,10.39.31,15.57.68,3.59.27,7.11,1.33,10.65,1.94,1.86.33,3.84.61,5.74.64,1.01.31,2.22.63,3.28.74,4.98.42,10.09-.37,14.75-2.16,1.02-.36,2.23-.76,3.28-1.04.77-.18,1.82-.37,2.46-.89,5.77-3.76,10.58-5.38,17.21-2.55,1.28.56,2.8.96,4.1,1.49,1.89.78,3.82,1.75,5.74,2.47,1.84.86,3.73,1.94,5.74,2.37,2.73.62,5.85.27,8.19-1.32,3.92-2.46,7.13-6.24,11.47-7.98,1.23-.68,2.66-1.42,4.1-1.53,2.75-.17,5.47.88,8.19,1.1,4.61.17,7.74,2.36,10.65,5.79.41-.05,1.23-.06,1.64-.04,4.37-8.82,7-1.84,13.11-.14,1.83.54,3.85.7,5.74.97,1.31.2,2.77.53,4.1.61,3.01.18,6.06-.44,9.01-.97"/><path class="b" d="M13.65,115.11c5.59,1.99,11.49-.54,17.21.24,4.65.67,9.23,2.01,13.93,2.41,3.33,1.49,7.13.99,10.65.67,4.6-.48,8.61-3.22,13.11-4.11,3.68-2.99,8.19-5.65,13.11-5.03,2.25.24,4.5,1.01,6.56,1.93,2.53.89,5.01,2.12,7.37,3.37,4.85,2.36,8.37,4.48,13.93,2.71,3.19-.77,5.58-3.28,8.19-5.1,1.94-1.55,4.33-2.54,6.56-3.57,2.62-1,5.52-.39,8.19.01,4.42.39,8.65,2.47,11.47,5.93.41-.01,1.23-.07,1.64-.12.98-.78,1.61-2.41,2.46-3.31,2.08-2.28,4.62-.35,6.56,1.06,1.46,1.04,3.17,2.02,4.92,2.48,1.84.48,3.86.56,5.74.78,1.31.17,2.77.46,4.1.5,3.03.08,6.07-.61,9.01-1.25"/><path class="b" d="M13.65,113.79c5.42,1.34,10.92-.81,16.39-.44,4.42.3,8.7,1.82,13.11,2.23.8-.02,1.71.52,2.46.75,1.28.39,2.77.5,4.1.45,2.99-.27,6.16-.17,9.01-1.17,1.93-.63,3.85-1.6,5.74-2.33,1.27-.6,2.92-.63,4.1-1.4,2.95-2.65,6.64-4.66,10.65-4.99,6.49-.52,12.48,2.74,18.03,5.68,3.57,1.81,7.32,3.89,11.47,3.24,1.34-.17,2.84-.5,4.1-1,2.52-1.46,4.86-3.4,7.37-4.88.94-.57,2.18-1.08,3.28-1.24,1.22-.68,2.71-1.23,4.1-1.4,3.01-.26,6.17.19,9.01,1.18,2.7,1.07,5.11,2.9,7.37,4.68.41-.08,1.23-.18,1.64-.21,4.39-8.92,7.12-1.91,13.11-.11,1.01.28,2.24.45,3.28.52,1.26.49,2.74.9,4.1.58,1.59-.17,3.31.37,4.92.2,2.47-.11,4.98-.63,7.37-1.18"/><path class="b" d="M13.65,112.38c5.21.69,10.37-1.09,15.57-1.01,3.04-.02,6.07.74,9.01,1.4,1.59.33,3.31.61,4.92.81,1.05.25,2.2.83,3.28.98,2.15.35,4.41,0,6.56-.19,1.6-.19,3.39-.06,4.92-.64,1.93-.57,3.86-1.47,5.74-2.18,1.27-.54,2.81-.72,4.1-1.2,2.79-2.45,6.14-4.4,9.83-5.04,5.54-.95,11.32.55,16.39,2.8,2.72,1.31,5.41,2.91,8.19,4.09,1.78.89,3.73,1.77,5.74,1.95,4.67.84,8.48-2.62,12.29-4.74.97-.54,2.19-1.11,3.28-1.34.74-.14,1.78-.06,2.46-.44,6.17-2.75,13.03.32,18.03,4.12,1.74.04,2.32-2.12,3.28-3.19,3.96-4.6,6.83,2.4,13.11,2.59,2.65,2.36,5.06,2.48,8.19.98,3.28.28,6.63-.08,9.83-.8"/><path class="b" d="M13.65,110.84c3.85.11,7.67-.81,11.47-1.22,3.53-.42,7.19-.29,10.65.53,2.41.57,4.92,1.09,7.37,1.42,1.3.41,2.72.94,4.1.98,2.99.09,6.03-.38,9.01-.48,2.19-.56,4.42-1.31,6.56-2.03,1.29-.44,2.78-.69,4.1-1.03,2.47-1.91,5.16-3.75,8.19-4.62,4.81-1.65,9.92-.59,14.75.4,5.91.92,10.97,4.28,16.39,6.58,6.54,2.73,10.69-1.35,16.39-3.61.69-.25,1.72-.44,2.46-.46.76,0,1.77.27,2.46-.2,6.2-2.69,11.01.12,16.39,3.01l.82-.16c.93-.72,1.68-2.18,2.46-3.04,2.61-3.04,5.46-.35,8.19.89.98.44,2.21.8,3.28.95,1.87,1.59,3.82,3.93,6.56,3.54,1.72-.27,3.37-1.24,4.92-1.99,2.72.11,5.51,0,8.19-.48"/><path class="b" d="M13.65,109.16c3.56-.22,7.11-1.08,10.65-1.48,3.52-.43,7.16-.44,10.65.23,2.7.56,5.46,1.21,8.19,1.62,2.1.68,4.35,1.06,6.56.85,2.15-.14,4.4-.24,6.56-.33,2.17-.45,4.41-1.04,6.56-1.6,1.02-.26,2.26-.46,3.28-.72,1.58-1.01,3.26-2.16,4.92-3.04,3.01-1.55,6.44-2.48,9.83-2.49,2.47.09,4.95.75,7.37,1.14,2.42.43,4.97.59,7.37,1.13,2.25.5,4.47,1.45,6.56,2.4,8.94,4.23,10.43,4.79,19.67.7,1.79-.67,3.84-1.02,5.74-.66,1.08-.14,2.22-.81,3.28-1.06,4.25-1.27,8.49.84,12.29,2.56.41-.1,1.23-.27,1.64-.34,1.16-.96,2.01-2.62,3.28-3.47,1.79-1.27,3.98-.19,5.74.6,1.26.6,2.79.89,4.1,1.34,2.67,3.24,5.4,6.39,9.83,3.9,1.34-.56,2.63-1.8,4.1-1.95,2.15.21,4.41.15,6.56-.07"/><path class="b" d="M13.65,107.35c6.23-.99,12.5-2.53,18.85-1.82,4.91.53,9.88,2.01,14.75,2.69,1.88.11,3.86-.02,5.74-.08,1.89-.04,3.88-.05,5.74-.45,2.15-.43,4.43-.8,6.56-1.33,3.66-1.94,7.33-4.17,11.47-4.92,1.57-.31,3.31-.55,4.92-.37,2.19.26,4.39.95,6.56,1.32,3.5.66,7.18.27,10.65,1.16,3.09.78,6.06,2.17,9.01,3.35,2.54,1.14,5.36,2.14,8.19,1.75,3.88-.52,7.48-2.76,11.47-2.56.39.01,1.24.09,1.64.14.74-.17,1.72-.58,2.46-.79,1.28-.36,2.78-.47,4.1-.31,2.22.18,4.36,1.37,6.56,1.5,1.07-.31,2.47-.25,3.28-1.12.83-1.06,1.98-2.32,3.28-2.8,1.62-.5,3.38.23,4.92.69,1.01.36,2.33.44,3.28.98,5.6,7.18,7.15,7.29,14.75,2.36,2.13.36,4.4.47,6.56.38"/><path class="b" d="M13.65,105.44c6.73-1.5,13.58-2.68,20.48-1.7,4.39.58,8.74,1.68,13.11,2.32,4.91.23,9.91.21,14.75-.69,2.01-.17,3.91-1.12,5.74-1.9,2.9-1.26,5.89-2.57,9.01-3.15,4.87-1.24,7.7.4,12.29,1.22,3.78.57,7.71-.23,11.47.65,3.36.74,6.6,2.1,9.83,3.25,3.02,1.51,6.52,2.29,9.83,1.39,3.47-.86,7.02-2.12,10.65-1.75.75.19,1.72-.19,2.46-.31,1.01-.17,2.25-.19,3.28-.09,1.03.08,2.24.4,3.28.39,1.59-.32,3.3-.71,4.92-.89,1.49-.68,2.44-2.48,4.1-2.92,1.58-.46,3.35.04,4.92.34.73.14,1.77.24,2.46.54,0,0,.82.91.82.91,5.35,7.17,7.57,7.04,14.75,2.05,2.13.43,4.38.72,6.56.72"/><path class="b" d="M13.65,103.48c3.23-.73,6.52-1.53,9.83-1.82,4.08-.36,8.23-.15,12.29.33,4.11.47,8.19,1.5,12.29,1.99,5.16.26,10.52.43,15.57-.79,4.1-1.17,8.13-2.81,12.29-3.77,2.95-.72,6.09-1.03,9.01,0,1.58.44,3.29.91,4.92,1.11,1.87.21,3.86.03,5.74-.09,3.89-.36,7.79.42,11.47,1.64,2.48.75,5.03,1.59,7.37,2.7,2.57,1.08,5.5,1.26,8.19.56,3.75-.99,7.55-2.08,11.47-1.98,3.83-.11,7.68-.8,11.47-1.29,3.12-3.38,5.79-2.42,9.83-2.11,2.71,2.22,4.37,6.39,8.19,6.91,3.15.3,5.55-2.16,8.19-3.38,2.11.58,4.37.91,6.56.99"/><path class="b" d="M13.65,101.51c2.42-.56,4.91-1.18,7.37-1.5,1.32.04,2.78.01,4.1-.04,4.08-.26,8.23-.25,12.29.27,4.1.42,8.18,1.41,12.29,1.78,5.48.38,11.06.1,16.39-1.31,5.17-1.03,10.27-2.86,15.57-3.14,2.78.13,5.44,1.33,8.19,1.66,2.98.35,6.03-.32,9.01-.34,4.5-.17,8.8,1.52,13.11,2.55,2.26.54,4.26,2.05,6.56,2.54,4.2,1.15,8.31-.96,12.29-2.04,4.81-1.05,9.82-1.6,14.75-1.58,2.4-1.98,4.3-2.49,7.37-2.27,2.56-.26,3.38,1.19,4.92,2.89,4.25,5.42,7.95,4.39,13.11.89,2.41.48,4.89,1.18,7.37,1.18"/><path class="b" d="M13.65,99.58c1.32-.3,2.77-.64,4.1-.89,2.71.05,5.49.23,8.19-.1,3.52-.38,7.12-.61,10.65-.34,4.38.27,8.75,1.09,13.11,1.53,4.9.5,9.89.2,14.75-.54,5.49-.66,10.93-1.86,16.39-2.71,2.76-.46,5.51.64,8.19,1.1,3.52.68,7.12-.23,10.65-.29,2.76-.15,5.52.79,8.19,1.36,2.41.68,5.03.97,7.37,1.83,6.39,3.09,9.21,2.9,15.57-.15,4.61-2.01,9.79-2.31,14.75-1.81.81-.2,1.72-.9,2.46-1.26.68-.32,1.71-.58,2.46-.67,1.3-.13,2.79-.2,4.1-.15.45.2,1.27.76,1.64,1.1,5.02,5.29,7.12,6.49,13.93,2.64,1.07-.01,2.23.59,3.28.76,1.57.34,3.31.55,4.92.57"/><path class="b" d="M13.65,97.74c1.04-.18,2.23-.53,3.28-.59,1.86.31,3.85.44,5.74.36,4.1-.18,8.18-1.16,12.29-1.12,8.22-.13,16.36,1.75,24.58,1.4,5.19-.2,10.41-.64,15.57-1.3,2.71-.39,5.46-1.13,8.19-1.3,3.02.04,5.98,1.2,9.01,1.11,3.25.03,6.6-.93,9.83-.38,3,.52,6.04,1.24,9.01,1.91,1.87.49,3.99.55,5.74,1.45,6.94,2.91,9.23,2.41,15.57-1.34,2.75-1.39,5.95-1.93,9.01-1.67,1.6.08,3.31.56,4.92.51,1.44-.93,3.21-1.57,4.92-1.71,1.02-.09,2.26-.29,3.28-.1.44.16,1.27.64,1.64.94,4.83,4.41,6.87,5.17,13.11,2.39,2.84,1.15,5.95,1.73,9.01,1.65"/><path class="b" d="M13.65,95.99c.74-.13,1.71-.36,2.46-.42.74.16,1.71.34,2.46.45,1.59.22,3.32.25,4.92.14,3.28-.22,6.56-1.02,9.83-1.32,4.07-.37,8.23-.33,12.29.12,3.8.4,7.64,1,11.47,1.05,3.26.02,6.58-.12,9.83-.12,2.71-.18,5.49-.33,8.19-.47,4.38-.37,8.69-2.19,13.11-1.17,4.33.95,8.76-.07,13.11-.06,4.94.81,9.81,2.16,14.75,2.95,1.85.69,3.78,1.54,5.74,1.92,8.3,2.27,9.43-4.85,17.21-4.91,2.48-.07,4.95.67,7.37,1.08,1.29-.54,2.69-1.26,4.1-1.48,1.3-.19,2.78-.55,4.1-.32,1.49.45,2.81,1.6,4.1,2.43,2.82,2.04,5.91,1.5,9.01.52,3.37,1.42,6.98,2.23,10.65,1.9"/><path class="b" d="M13.65,94.25c.44-.07,1.21-.22,1.64-.3,1.05.07,2.24.46,3.28.61,1.86.33,3.86.38,5.74.19,3.56-.33,7.09-1.25,10.65-1.61,4.08-.49,8.25-.33,12.29.43,3.5.6,7.09,1.1,10.65.97,5.18-.18,10.39-.43,15.57-.25,3.89.18,7.68-1.01,11.47-1.68,1.88-.17,3.87.11,5.74.32,3.81.38,7.67-.31,11.47-.33,3.27.64,6.58,1.35,9.83,2.08,1.85.52,3.96.54,5.74,1.28,2.32.95,4.88,1.5,7.37,1.71,2.07.33,4.18-.57,5.74-1.89,3.72-3.37,7.39-4.5,12.29-3.04,1.58.33,3.4,1.34,4.92.35,2.03-.81,4.36-1.37,6.56-1.27,2.01.44,3.76,1.89,5.74,2.43.99.29,2.25.36,3.28.24.74-.09,1.75-.43,2.46-.03,3.79,1.89,8.09,2.67,12.29,2.07"/><path class="b" d="M13.65,92.55c.44-.06,1.21-.2,1.64-.27.75.13,1.72.42,2.46.59,1.84.44,3.84.68,5.74.6,6.03-.33,11.94-2.56,18.03-2.05,4.12.43,8.12,1.96,12.29,2.1,5.46.14,10.92-.93,16.39-.59,2.7.12,5.5.41,8.19.02,2.77-.28,5.44-1.41,8.19-1.72,2.98-.18,6.02.42,9.01.19,1.6-.07,3.32-.13,4.92-.23,1.62-.16,3.35-.17,4.92.31,3.8.8,7.63,1.76,11.47,2.38,2.6,1.01,5.4,1.72,8.19,1.88,2.82.4,4.51-.3,6.55-2.28,5.28-4.95,8.63-3.32,14.75-1.49,1.11.26,2.22-.68,3.28-.91,1.56-.41,3.29-.92,4.92-.88,1.06.12,2.27.58,3.28.94.99.36,2.23.67,3.28.75,1.06.07,2.39-.23,3.28.51,4.21,2.72,9.07,3.3,13.93,2.35"/><path class="b" d="M13.65,90.91c.44-.05,1.21-.18,1.64-.26.76.11,1.72.43,2.46.62,1.3.35,2.76.63,4.1.74,4.71.38,9.31-1.12,13.93-1.76,3.64-.64,7.23-.11,10.65,1.21,6.95,2.62,12.66.74,19.67.35,3.54-.24,7.12.29,10.65.24,2.77-.09,5.57-.76,8.19-1.61,2.61-.92,5.48-.67,8.19-.56,2.98.02,6.03-.11,9.01-.22,3.06-.37,6.04.74,9.01,1.31,1.87.4,3.85.82,5.74,1.13,1.84.62,3.8,1.27,5.74,1.49,1.86.25,3.86.31,5.74.28,1.58-.44,2.92-1.74,4.1-2.82,1.57-1.41,3.57-2.65,5.74-2.73,3.16-.16,5.97,1.78,9.01,2.28,1.55-.66,3.27-1.27,4.92-1.62,1.26-.51,2.79-.48,4.1-.19,1.02.22,2.24.51,3.28.64,1.08.06,2.36.09,3.28.77,5.63,3.76,8.96,4.28,15.57,2.83"/><path class="b" d="M13.65,89.33c.44-.05,1.21-.18,1.64-.26.79-.03,1.72.36,2.46.57,1.57.46,3.29.82,4.92.94,4.99.4,9.83-1.35,14.75-1.85,2.19-.24,4.5,0,6.56.83,2.88,1.19,5.86,2.47,9.01,2.61,4.39.21,8.74-.99,13.11-1.29,3.8-.38,7.66.16,11.47.06,2.78-.14,5.58-.85,8.19-1.78,2.06-.77,4.37-.96,6.56-.88,4.63.07,9.3-.14,13.93-.16,2.18.31,4.39.98,6.56,1.37,1.31.27,2.78.56,4.1.78,1.29.45,2.75.92,4.1,1.15,2.63.36,5.58.75,8.19.2,2.13-1.07,3.62-3.25,5.74-4.35,4.62-2.48,7.95.83,12.29,1.74,1.6-.55,3.34-1.15,4.92-1.77,1.54-.54,3.33-.38,4.92-.15,1.32.22,2.89.1,4.1.79,1.71.83,3.33,2.1,4.92,3.13,3.66,2.5,8.32,1.41,12.29.34"/><path class="b" d="M13.65,87.83c1.04-.12,2.28-.61,3.28-.09,1.83.61,3.81,1.13,5.74,1.32,4.13.43,8.26-.54,12.29-1.32,2.68-.45,5.59-.75,8.19.23,3.67,1.54,7.39,3.42,11.47,3.36,4.12.06,8.2-1.18,12.29-1.23,4.63.33,9.39.55,13.93-.62,3.09-.42,5.95-1.99,9.01-2.52,5.7-.48,11.49-.24,17.21-.29,1.92-.06,3.86.69,5.74,1,2.19.38,4.43.91,6.56,1.55,2.93.67,6.03.67,9.01.58,1.59-.45,2.9-1.84,4.1-2.91,1.34-1.19,3.1-2.18,4.92-2.34,1.33-.13,2.84.04,4.1.51,1.87.78,3.71,1.99,5.74,2.36,1.69-.45,3.28-1.44,4.92-2.01,1.28-.37,2.78-.35,4.1-.23,1.03.13,2.29.05,3.28.42,2.17.78,3.93,2.52,5.74,3.88,3.86,3.4,8.8,1.67,13.11.26"/><path class="b" d="M13.65,86.37c.74-.13,1.73-.35,2.46-.53,3.42,1.07,7.02,2.31,10.65,2.08,2.76-.16,5.47-1.09,8.19-1.52,2.96-.51,6.17-.84,9.01.36,7.36,3.51,10.8,3.96,18.85,2.92,5.41.7,11.06.76,16.39-.57,2.46-.64,4.96-1.49,7.37-2.29,1.81-.73,3.78-1.36,5.74-1.51,4.35-.26,8.76-.29,13.11-.15,1.31.05,2.78.07,4.1.07,1.61.24,3.31.69,4.92.97,1.35.17,2.78.71,4.1,1.02,1.57.36,3.31.53,4.92.57,1.84-.1,4.09.42,5.74-.56,2.4-1.52,4.36-4.12,7.37-4.42,6.49-1.01,8.81,4.8,12.29,2.16,1.42-.94,3.19-1.68,4.92-1.69,1.31,0,2.79.16,4.1.21,1.14.25,2.36.95,3.28,1.65,7.27,6.48,7.99,6.55,17.21,3.02"/><path class="b" d="M13.65,84.95c.74-.16,1.73-.42,2.46-.64,1.66.62,3.17,1.92,4.92,2.4,4.91,1.68,10.06,0,14.75-1.59,2.6-.85,5.56-.84,8.19-.1,3.51,1.27,6.9,3.14,10.65,3.62,1.86.34,3.88.03,5.74.32,5.1,1.1,10.49.76,15.57-.29,3.89-.89,7.64-2.46,11.47-3.55,5.29-1.7,10.89-1.74,16.39-1.61,2.43.09,4.94.25,7.37.27,2.46.41,4.94,1.1,7.37,1.62,2.13.35,4.4.37,6.56.35.72,0,1.74-.02,2.46-.06.41-.17,1.26-.58,1.64-.82,3.51-2.5,5.06-4.37,9.83-3.79,2.73.15,4.9,2.12,7.37,3.01.49-.07,1.28-.54,1.64-.87.94-.67,2.13-1.38,3.28-1.6,1.31-.23,2.79-.04,4.1.08.74.06,1.75.06,2.46.29.8.32,1.79.95,2.46,1.49,7.73,7.15,8.26,7.45,18.03,3.09"/><path class="b" d="M13.65,83.65c.74.06,1.72.1,2.46.12.45.17,1.25.63,1.64.91,1.72,1.08,3.72,1.92,5.74,2.2,3.61.5,7.28-.44,10.65-1.69,1.57-.6,3.29-1.18,4.92-1.61,1.3-.34,2.75-.73,4.1-.48,3.17.38,6.02,2.11,9.01,3.08,1.28.44,2.75.83,4.1,1.02,1.28.49,2.75.89,4.1,1.12,4.34.68,8.83.24,13.11-.62,3.91-.81,7.65-2.4,11.47-3.52,3.73-1.03,7.62-1.76,11.47-2.11,5.45-.4,10.96-.05,16.39.36,2.14.44,4.35,1.1,6.56,1.18,1.59.11,3.32.1,4.92.09.72,0,1.74-.01,2.46-.02.77-.24,1.77-.72,2.46-1.13,1.05-.63,2.22-1.54,3.28-2.17,1.2-.67,2.73-1,4.1-1.02,1.62-.02,3.41.13,4.92.78,1.37.58,2.75,1.54,4.1,2.17.89-.21,1.71-1.15,2.46-1.62.93-.59,2.18-.92,3.28-.85,1.32.09,2.78.4,4.1.51.41.03,1.23.06,1.64.07.43.19,1.25.67,1.64.95,2.02,1.47,3.77,3.49,5.74,5.03,4.68,4.06,9.26.68,13.93-1.4"/><path class="b" d="M13.65,83.2c1.05.12,2.36-.18,3.28.46,1.68,1.25,3.67,2.3,5.74,2.7,3.27.63,6.7.07,9.83-.93,5.19-1.71,10.89-4.52,16.39-2.56,3.52,1.48,6.71,4.03,10.65,4.28,5.79.59,11.68-.52,17.21-2.22,4.79-1.68,9.73-2.99,14.75-3.74,5.4-.86,10.93-1.18,16.39-.71,1.59.15,3.33.21,4.92.4,1.85.37,3.84.65,5.74.7,1.59.05,3.32.03,4.92.02.72,0,1.74,0,2.46,0,.76-.14,1.76-.54,2.46-.88,4.19-2.34,5.49-3.49,10.65-2.76,1.09.16,2.32.65,3.28,1.2.69.39,1.63,1.07,2.46,1.11.51-.11,1.29-.67,1.64-1.04,1.61-1.4,3.85-1.1,5.74-.54,1.01.25,2.24.44,3.28.46.8-.08,1.83.04,2.46.6,3.06,2.08,5.45,5.34,9.01,6.63,4.08,1.32,7.87-1.7,11.47-3.19"/><path class="b" d="M13.65,82.71c1.06.08,2.38-.28,3.28.42,1.66,1.29,3.66,2.34,5.74,2.72,9.28,1.81,16.82-5.43,25.4-3.57,2.27.55,4.38,1.81,6.56,2.63,2.06.8,4.37,1.01,6.56.94,6.75-.2,13.24-2.29,19.67-4.16,4.03-.98,8.21-1.55,12.29-2.28,4.05-.56,8.21-.81,12.29-.7,4.09.15,8.19.88,12.29.87,1.87,0,3.86-.06,5.74-.06,1.35.08,2.85,0,4.1-.58,1.92-.69,3.76-1.91,5.74-2.43,2.12-.42,4.47-.33,6.56.24,1.08.36,2.26,1.08,3.28,1.59.81-.19,1.88-.41,2.46-1.07,1.45-1.06,3.35-.64,4.92-.08,1.27.43,2.75.78,4.1.78,1.08-.02,2.4-.36,3.28.45,3.79,2.44,7.31,6.91,12.29,6.14,2.89-.57,5.49-2.22,8.19-3.32"/><path class="b" d="M13.65,82.15c.73,0,1.73-.02,2.46-.05,1.58.9,3.12,2.17,4.92,2.64,3.44.97,7.18.67,10.65,0,4.88-1.04,9.68-3.19,14.75-3.05,2.53.1,4.99,1.07,7.37,1.83,2.89.95,6.04.86,9.01.43,5.56-.76,10.96-2.49,16.39-3.84,2.67-.63,5.49-.89,8.19-1.31,2.44-.36,4.94-.89,7.37-1.24,3.78-.47,7.66-.66,11.47-.5,3.54.15,7.11.74,10.65.52,1.87-.05,3.86-.13,5.74-.11,1.63.07,3.38.15,4.92-.49,1.89-.6,3.8-1.5,5.74-1.95,2.74-.48,5.77-.22,8.19,1.23.74-.09,1.72-.31,2.46-.42.39-.25,1.2-.65,1.64-.78,1.38-.29,2.84.39,4.1.88,2.31,1.03,4.94,1.05,7.37.46,4.23,2.13,7.98,6.47,13.11,5.89,2.88-.45,5.5-2.02,8.19-3.03"/><path class="b" d="M13.65,81.47c.73.01,1.73,0,2.46-.03,1.06.55,2.17,1.42,3.28,1.86,1.52.64,3.28.9,4.92.98,4.71.28,9.38-.62,13.93-1.73,1.85-.36,3.87-.23,5.74-.53,1.61-.1,3.31-.73,4.92-.62,2.72.29,5.44,1.21,8.19,1.23,6.16-.11,12.08-2.25,18.03-3.67,3.73-1.03,7.64-1.3,11.47-1.72,3.55-.41,7.09-1.3,10.65-1.64,5.17-.58,10.4-.34,15.57.15,3.8-.2,7.67-.5,11.47-.25,1.94.28,3.89-.56,5.74-1.04,3.15-.98,6.7-1.59,9.83-.22,1.61-.31,3.34-.5,4.92-.95,2.32.06,4.28,1.83,6.56,2.19,1.31.26,2.8.17,4.1-.11,1.07-.28,2.29-.68,3.28.07,4.23,2.32,8.87,5.82,13.93,3.96,1.89-.57,3.74-1.62,5.74-1.81"/><path class="b" d="M13.65,80.65c.75.02,1.72.03,2.46.02,1.52.84,3.16,1.76,4.92,1.99,4.05.5,8.23.22,12.29-.13,2.71-.35,5.45-.95,8.19-.8,3.27-.08,6.59-.45,9.83-.93,2.43-.03,4.95.38,7.37-.06,5.84-.85,11.42-3.04,17.21-4.17,3.76-.81,7.67-.71,11.47-1.19,4.36-.57,8.71-1.57,13.11-1.75,3.81-.37,7.67.03,11.47.26,3.79-.38,7.66-.69,11.47-.42,1.03.04,2.25.27,3.28.19,2.15-.42,4.37-1.02,6.56-1.28,1.31-.16,2.79-.2,4.1.02,1.32-.13,2.76-.55,4.1-.57.74.03,1.72-.29,2.46-.18,1.44.27,2.8,1.24,4.1,1.88,2.5,1.38,5.53,1.32,8.19.46.71-.21,1.7-.57,2.46-.57.73.31,1.75.78,2.46,1.14,1.83.91,3.77,1.93,5.74,2.52,1.54.51,3.31.52,4.92.45,2.16.37,4.44-.07,6.56-.5"/><path class="b" d="M13.65,79.63c.75.03,1.72.08,2.46.09,1.26.61,2.7,1.19,4.1,1.34,2.7.29,5.49.02,8.19,0,3.82.01,7.67-.33,11.47-.5,3.27-.08,6.58-.5,9.83-.79,2.98-.32,6.07-.41,9.01-.98,4.99-.99,9.79-2.87,14.75-3.97,4.28-1.05,8.75-.85,13.11-1.21,4.1-.38,8.18-1.31,12.29-1.6,3.8-.35,7.68-.44,11.47.06,3.52-.32,7.1-.88,10.65-.75,2.16.04,4.42.26,6.56.58,1.03-.06,2.25-.33,3.28-.47,2.76-.16,5.46-1.09,8.19-1.4,1.31-.05,2.83-.36,4.1.11,1.98.81,3.7,2.39,5.74,3.09,2.08.77,4.46.57,6.56-.04,1.61-.39,3.26-1.21,4.92-1.39,2.16.79,4.35,1.84,6.56,2.53,1.07.45,2.2,1.29,3.28,1.72,2.57,1.14,5.53.78,8.19.22"/><path class="b" d="M13.65,78.34c.75.05,1.72.12,2.46.17,1,.39,2.21.66,3.28.72,2.98.1,6.03-.34,9.01-.35,3.53-.13,7.12.1,10.65-.07,3-.23,6.03-.84,9.01-1.21,4.34-.61,8.8-.78,13.11-1.63,4.61-1.3,9.16-3.08,13.93-3.74,4.33-.64,8.77-.27,13.11-.78,6.25-.65,12.54-1.8,18.85-1.46,1.03.05,2.25.3,3.28.23,1.02-.17,2.25-.36,3.28-.49,2.69-.36,5.48-.51,8.19-.45,2.71-.01,5.49.23,8.19.31,3.22-.7,6.52-1.5,9.83-1.52,2.16.2,3.97,1.78,5.74,2.89,4.16,2.97,8.66,1.89,13.11.28,1.86-.55,4-1.7,5.74-.23,4.73,3.54,7.76,5.45,13.93,4.16"/><path class="b" d="M13.65,76.73c1.61.11,3.31.43,4.92.45,2.44-.08,4.93-.56,7.37-.63,2.43-.11,4.94-.23,7.37-.21,2.15-.01,4.41.25,6.56.04,2.72-.52,5.47-1.29,8.19-1.78,3.8-.69,7.68-1.19,11.47-1.89,5.94-1.31,11.91-2.81,18.03-2.98,3.8-.21,7.67-.21,11.47-.45,4.09-.26,8.21-.73,12.29-1.05,1.87-.15,3.86-.23,5.74-.06,1.33.17,2.78.39,4.1-.01,2.43-.4,4.91-.99,7.37-1.18,3.79-.37,7.66-.31,11.47-.33,1.6-.02,3.33-.11,4.92-.27,1.93-.31,4.04-.19,5.74.87,7.84,5.22,9.59,5.88,18.85,2.89.98-.44,2.25-.31,3.28-.14,1.04.16,2.34.09,3.28.64,3.88,2.89,7.42,4.05,12.29,3.2"/><path class="b" d="M13.65,74.66c1.31.14,2.77.39,4.1.27,1.61-.14,3.31-.53,4.92-.7,4.89-.3,9.84-.71,14.75-.53,2.8.2,5.49-1.17,8.19-1.74,4.03-1.02,8.19-1.73,12.29-2.46,7.82-1.59,15.82-1.73,23.76-1.75,2.16.05,4.4-.27,6.56-.43,1.88-.09,3.86-.13,5.74-.28,3.53-.22,7.11-.71,10.65-.79,1.03,0,2.26.07,3.28.21.74.14,1.75.26,2.46-.05,5.24-1.82,10.91-1.76,16.39-1.9,1.87-.03,3.86-.06,5.74-.05,2.22-.05,4.59.12,6.56,1.25,8.61,5.21,9.51,6.13,19.67,3.96,3.47.93,7.12,1.2,10.65,1.79,2.97.53,5.97,1.51,9.01,1.5"/><path class="b" d="M13.65,72.07c1.04.12,2.24.26,3.28.36,1.89-.18,3.83-.79,5.74-.89,1.88-.13,3.86-.05,5.74-.16,2.98-.21,6.02-.56,9.01-.51,1.08.09,2.25-.44,3.28-.68,1.59-.45,3.31-.94,4.92-1.32,4.3-1.01,8.72-1.76,13.11-2.22,3.79-.4,7.66-.37,11.47-.48,4.08-.12,8.21-.35,12.29-.28,2.17-.04,4.39-.55,6.56-.64,2.99.05,6.04-.14,9.01-.41,2.15-.17,4.4-.44,6.56-.46,1.32-.05,2.78.26,4.1.22,1.08-.04,2.23-.65,3.28-.88,1.29-.33,2.77-.55,4.1-.66,3.25-.26,6.58-.19,9.83-.16,2.98.06,6.08-.11,9.01.48,3.26.73,6,2.91,9.01,4.24,3.77,1.95,8.18,2.19,12.29,1.38,1.62.35,3.27,1.13,4.92,1.41,2.4.52,4.93.77,7.37.99,3.25.25,6.62.66,9.83-.09"/><path class="b" d="M13.65,69.04c1.32.11,2.78.27,4.1.42,1.32-.2,2.76-.54,4.1-.58,1.88-.08,3.86.14,5.74.11,2.17-.04,4.4-.38,6.56-.58,1.03-.1,2.25-.18,3.28-.24,1.57-.52,3.31-.91,4.92-1.27,4.03-.89,8.17-1.59,12.29-1.9,4.35-.37,8.76-.08,13.11-.41,3.26-.24,6.57-.7,9.83-.82,2.15-.13,4.41.11,6.56-.13,2.69-.41,5.48-.6,8.19-.25,2.43-.17,4.95-.34,7.37-.54,2.97-.35,6.03-.25,9.01-.43,1.62-.13,3.26-.94,4.92-1.02,3.79-.39,7.67-.12,11.47.08,2.98.17,6.08.09,9.01.73,3.74.89,7.02,3.17,10.65,4.38,2.07.77,4.34,1.29,6.56,1.35,1.31.13,2.81-.24,4.1.09,6.56,3.41,16.04,3.21,22.94.95"/><path class="b" d="M13.65,65.83c1.61.09,3.32.3,4.92.48,1.04-.06,2.24-.18,3.28-.12,2.7.2,5.48.68,8.19.34,7.14-.71,14.13-2.64,21.3-3.17,4.35-.37,8.77.05,13.11-.41,4.36-.55,8.69-1.79,13.11-1.84,1.6-.06,3.32.07,4.92.07,2.15-.08,4.4-.37,6.56-.14,1.03.09,2.24.35,3.28.43.73-.06,1.73-.13,2.46-.19,2.71-.16,5.49-.38,8.19-.58,2.16-.12,4.4-.39,6.56-.55,1.02-.24,2.24-.52,3.28-.61,2.98-.25,6.04-.05,9.01.14,5.2.59,10.68.21,15.57,2.35,3.44,1.47,7,2.87,10.65,3.71,1.29.27,2.78.43,4.1.47.78,0,1.83-.09,2.46.48,7.29,4.33,16.27,2.28,23.76-.45"/><path class="b" d="M13.65,62.77c2.71.26,5.49.61,8.19.88,2.14.35,4.37.85,6.56.79,3.83-.19,7.65-1.04,11.47-1.42,5.43-.8,10.88-1.78,16.39-1.74,2.44-.09,4.99-.16,7.37-.7,2.71-.62,5.43-1.57,8.19-1.97,4.6-.68,9.31-.15,13.93,0,1.33.11,2.8.36,4.1.64.73.16,1.71.47,2.46.27,2.98-.27,6.04-.3,9.01-.57,3.82-.3,7.66-.89,11.47-1.26,4.09-.11,8.23.19,12.29.61,2.71.24,5.52.34,8.19.89,5.78,1.44,11.24,4.28,17.21,4.98.72.08,1.74.15,2.46.23.36.28,1.24.82,1.64,1.07,1.48.85,3.23,1.51,4.92,1.8,6.54,1.15,12.77-1.81,18.85-3.77"/><path class="b" d="M13.65,60.09c2.43.37,4.94.71,7.37,1.05,2.66.66,5.43,1.37,8.19,1.12,3.26-.35,6.58-.73,9.83-1.1,3.55-.49,7.11-1.23,10.65-1.76,3.8-.56,7.72-.59,11.47-1.47,2.44-.59,4.88-1.58,7.37-1.94,4.06-.5,8.22.03,12.29.08,3.27.27,6.63.42,9.83,1.16,2.71-.04,5.49.14,8.19,0,4.11-.12,8.21-.85,12.29-1.28,2.43-.15,4.95-.02,7.37.05,4.1.2,8.29.37,12.29,1.31,1.57.39,3.37.18,4.92.65,5.37,1.68,10.76,3.73,16.39,4.27,5.78,4.76,12.35,3.79,18.85,1.23,2.42-.9,4.84-2.11,7.37-2.67"/><path class="b" d="M13.65,57.81c2.41.54,4.93.91,7.37,1.25,1.85.46,3.82.99,5.74,1.06,1.89.11,3.86-.18,5.74-.38,4.69-.32,9.36-1.2,13.93-2.29,3.23-.78,6.57-1.27,9.83-1.9,2.73-.49,5.45-1.36,8.19-1.76,3.57-.43,7.09.94,10.65.96.42.01,1.22.02,1.64,0,.97-.51,2.17-1.01,3.28-1.03,2.99.21,6.03.65,9.01.9,3.23.51,6.55.95,9.83.86,4.39-.03,8.74-1.17,13.11-1.32,2.98.07,6.05-.06,9.01.18,3.03.37,6.03,1.25,9.01,1.87,2.13.41,4.43.5,6.56,0,2.7.77,5.48,1.58,8.19,2.33,2.12.59,4.36,1.16,6.56,1.39,2.01,1.35,4.15,2.81,6.56,3.35,4.77,1.16,9.59-.81,13.93-2.64,2.1-.92,4.27-2,6.56-2.38"/><path class="b" d="M13.65,55.69c2.13.49,4.39.82,6.56,1.13,1.84.52,3.82,1,5.74,1.13,4.11.17,8.24-.68,12.29-1.26,4.6-1.02,9.25-2,13.93-2.57,8.56-1.34,10.62-4.98,19.67-.02.95-.04,1.72-1.06,2.46-1.54,2.43-1.88,4.71-1.18,7.37-.43,2.12.48,4.4.41,6.56.47,1.34.17,2.76.7,4.1.86,2.96.38,6.04.5,9.01.21,4.35-.51,8.72-1.36,13.11-1.18,5.56-.17,10.94,1.73,16.39,2.49,2.17.26,4.47.07,6.56-.58,2.16.48,4.42,1.02,6.56,1.63,1.31.37,2.78.8,4.1,1.13,1.02.29,2.31.32,3.28.79,1.47,1.11,3.19,2.14,4.92,2.78,4.91,1.94,10.19.03,14.75-2.01,2.39-1.02,4.76-2.45,7.37-2.81"/><path class="b" d="M13.65,53.47c4.41.53,8.62,2.5,13.11,2.39,4.14-.06,8.23-1.1,12.29-1.79,4.33-.76,8.75-1.32,13.11-1.86,6.49-1.02,8.57-4.79,15.57-1.14,1.13-.25,2.16-1.22,3.28-1.55,1.8-.6,3.87-.7,5.74-.41,1.06.23,2.24.75,3.28,1.07,1.83.62,3.85.48,5.74.63,1.3.42,2.75.91,4.1,1.14,3.49.53,7.14.43,10.65.17,4.07-.49,8.18-1.26,12.29-1.26,6.07-.01,12.02,1.61,18.03,2.25,2.17.18,4.46-.03,6.56-.62,2.18.1,4.43.62,6.56,1.12,2.15.53,4.36,1.27,6.56,1.64,1.5,1.13,3.18,2.29,4.92,3.03,5.09,2.35,10.74.48,15.57-1.63,2.42-.97,4.74-2.51,7.37-2.85"/><path class="b" d="M13.65,51.37c4.32.97,8.6,2.71,13.11,2.37,3.58-.18,7.14-1.03,10.65-1.67,4.33-.79,8.75-1.4,13.11-2.03,2.82-.3,5.5-1.5,8.19-2.28,1.94-.47,3.95.25,5.74.97,2.84-2.66,5.68-2.15,9.01-.86,2.09.8,4.39,1.17,6.56,1.71,3.2.9,6.46,2.07,9.83,1.94,3.26-.15,6.58-.52,9.83-.81,3.25-.42,6.55-1.03,9.83-1.24,6.85-.48,13.68.72,20.48,1.33,2.16.19,4.42.03,6.56-.28,2.16.13,4.42.18,6.56.56,2.45.48,5,1.01,7.37,1.78,2.18,1.7,4.66,3.27,7.37,3.94,3.54.84,7.37.04,10.65-1.38,1.6-.9,3.22-2.07,4.92-2.79,1.54-.58,3.29-1.02,4.92-1.28"/><path class="b" d="M13.65,49.5c4.02.98,8.1,2.31,12.29,2.02,3.58-.18,7.14-1.03,10.65-1.7,3.52-.67,7.12-1.24,10.65-1.84,3.03-.4,6.05-1.17,9.01-1.89.72-.15,1.73-.23,2.46-.1.74.13,1.7.56,2.46.59,1.58-1.33,3.75-2.11,5.74-1.24,2.81,1.1,5.33,3.02,8.19,4,3.4.96,7.11,1.86,10.65,1.97,3.03.06,6.06-.65,9.01-1.26,3.8-.62,7.65-1.31,11.47-1.81,6.52-.77,13.13-.56,19.67-.18,2.45.12,4.93.72,7.37.85,2.43.2,4.95-.05,7.37-.1,3.03-.07,6.06.59,9.01,1.18,5,3.08,8.39,5.91,14.75,4.49,2.42-.56,4.46-2.26,6.55-3.5,2.19-1.35,4.86-1.83,7.37-2.1"/><path class="b" d="M13.65,47.58c11.83,2.94,15.7.82,27.04-1,3.81-.63,7.66-1.32,11.47-1.93,1.02-.16,2.24-.27,3.28-.21.76.03,1.7.39,2.46.27,1.69-1.01,3.77-1.68,5.74-1.26,2.38.53,4.48,2.03,6.56,3.23,2.26,1.34,4.77,2.46,7.37,2.87,7.92,1.89,13.67-.13,21.3-1.59,4.85-1,9.81-1.57,14.75-1.93,4.09-.37,8.27-.56,12.29.42,3.22.64,6.53,1.44,9.83,1.25,4.07-.41,8.21-1.13,12.29-.37.38.06,1.25.17,1.64.22,1.39.65,2.75,1.76,4.1,2.5,2.22,1.34,4.77,2.35,7.37,2.55,4.09.23,7.13-3.1,10.65-4.61,2.04-.82,4.38-1.02,6.56-1.18"/><path class="b" d="M13.65,45.52c4.05.57,8.2,1.12,12.29.73,4.4-.36,8.71-1.59,13.11-1.95,2.43-.24,4.95-.48,7.37-.76,2.42-.28,4.95-.71,7.37-.24,2.58-1,5.37-2.12,8.19-1.69,3.6.58,6.59,2.98,9.83,4.49,2.53,1.28,5.41,1.82,8.19,2.2,6.92,1.01,13.73-1.13,20.48-2.31,3.78-.69,7.66-1.18,11.47-1.68,3.78-.57,7.7-.86,11.47-.03,4.31.91,8.63,2.62,13.11,2.06,3.25-.46,6.53-1.32,9.83-1.26,1.04.12,2.25.48,3.28.68.79.37,1.74,1.12,2.46,1.6,2.19,1.47,4.7,2.83,7.37,3.04,4.29.36,7.68-2.89,11.47-4.32,2.33-.84,4.93-.94,7.37-1.09"/><path class="b" d="M13.65,43.37c3.8.27,7.67.49,11.47.17,3.83-.27,7.64-1.21,11.47-1.41,3.8-.23,7.68.32,11.47,0,2.77-.47,5.44-1.62,8.19-2.17,1.85-.35,3.88-.58,5.74-.2,1.05.3,2.25.79,3.28,1.14,2.93.68,5.4,2.68,8.19,3.74,2.58,1.02,5.44,1.44,8.19,1.74,4.67.41,9.36-.38,13.93-1.26,3.79-.74,7.65-1.37,11.47-1.95,4.85-.73,9.84-1.95,14.75-1.03,4.89,1.03,9.64,3.33,14.75,2.86,3.02-.24,6-1.25,9.01-1.59.76-.22,1.74.19,2.46.41.73.22,1.77.45,2.46.82,2.14,1.65,4.64,3.15,7.37,3.46,3.81.45,7.24-1.76,10.65-3.11,3.09-1.28,6.54-1.36,9.83-1.61"/><path class="b" d="M13.65,41.27c3.53.09,7.13.1,10.65-.17,2.99-.2,6.02-.72,9.01-.86,2.44-.06,4.95.32,7.37.53,4.4-.47,8.82-1.36,13.11-2.49,3.36-.75,5.08-.99,8.19.7,1.52.72,3.24,1.37,4.92,1.59,1.03.17,2.26-.01,3.28.21,4.41,2.66,9.66,3.58,14.75,3.61,4.12.01,8.24-.77,12.29-1.45,3.52-.64,7.13-1.12,10.65-1.75,4.83-.81,9.9-2.21,14.75-.77,4.76,1.54,9.67,3.21,14.75,2.94,2.47-.11,4.96-.8,7.37-1.3.71-.15,1.72-.36,2.46-.34,1,.37,2.24.76,3.28,1.03,1.24.87,2.66,1.87,4.1,2.39,4.41,1.75,8.9-.73,13.11-1.93,2.1-.61,4.38-.88,6.56-1.1,1.39-.18,3.13-.03,4.1-1.25"/><path class="b" d="M13.65,39.27c3.81.03,7.67-.07,11.47-.38,3.52-.27,7.19-.79,10.65.17.43.1,1.2.26,1.64.31.43-.1,1.21-.31,1.64-.41,1.03-.26,2.24-.54,3.28-.75,4.12-.6,8.24-1.43,12.29-2.37,2.06-.27,3.98.9,5.74,1.81,1.51.79,3.23,1.45,4.92,1.72,1.87.31,3.89.21,5.74-.22,1.36.4,2.73,1.26,4.1,1.65,2.1.64,4.38,1,6.55,1.26,6.03.66,12.08-.5,18.03-1.4,3.27-.48,6.6-.98,9.83-1.68,2.7-.48,5.45-1.23,8.19-1.36,3.13-.07,6.06,1.33,9.01,2.15,3.74.91,7.61,1.73,11.47,1.74,2.47.01,4.97-.56,7.37-1.08.71-.15,1.73-.35,2.46-.42.71.27,1.73.6,2.46.81.46.08,1.28.52,1.64.83.94.61,2.18,1.16,3.28,1.41,3.02.67,6.11-.41,9.01-1.15,2.16-.48,4.41-1.02,6.55-1.54,1.3-.24,2.79-.07,4.1-.22,1.23-.8,2.32-2.18,3.28-3.27"/><path class="b" d="M13.65,37.37c3.53.06,7.12-.02,10.65-.22,3.25-.13,6.71-.5,9.83.64,1.95-.2,3.92-.89,5.74-1.6,1.56-.53,3.3-.8,4.92-1.05,3.48-.47,7.22-1.87,10.65-.48,1.9.8,3.76,1.99,5.74,2.61,3.42,1.04,7.21,1.15,10.65.17,5.68,2.29,11.93,3.01,18.03,2.5,6.58-.63,13.22-1.36,19.67-2.87,9.36-2.49,8.19-2.02,17.21.56,4.58.89,9.24,1.94,13.93,1.91,2.74-.08,5.5-.76,8.19-1.21,1.69.31,3.42.95,4.92,1.78,3.71,1.52,7.72-.07,11.47-.58,1.34-.2,2.75-.84,4.1-1.07,1.01-.24,2.28-.11,3.28-.41,1.11-.69,2.39-1.61,3.28-2.58.6-.81,1.59-1.93,2.46-2.47"/><path class="b" d="M13.65,35.62c4.63.29,9.3.03,13.93.07,1.04.03,2.26.14,3.28.34.47.16,1.17.21,1.64.1.44-.11,1.21-.33,1.64-.43.43-.27,1.19-.75,1.64-.96,1.51-.74,3.26-1.2,4.92-1.42,4.05-.34,8.29-1.38,12.29-.24,2.21.66,4.31,1.93,6.56,2.51,3.98.91,8.3,1.15,12.29.16.48-.13,1.22.01,1.64.25.72.27,1.71.57,2.46.75,3.21.69,6.55,1.11,9.83,1.18,6.84-.1,13.77-.62,20.49-1.96,7.17-1.7,9.59-4.32,17.21-1.39,3.17,1.04,6.56,1.43,9.83,2,4.86.94,9.86,1.33,14.75.38.72-.11,1.72-.32,2.46-.27,1.03.3,2.33.45,3.28.98,1.51.61,3.31.72,4.92.56,2.72-.35,5.53-.66,8.19-1.32,1.04-.28,2.39-.22,3.28-.9,1.41-.88,2.82-2.1,4.1-3.17.99-1.11,2.52-3.07,4.1-1.74"/><path class="b" d="M13.65,34c5.43.62,10.99-.12,16.39.77,1.18-.1,2.3-.86,3.28-1.46.97-.58,2.18-1.08,3.28-1.34,2.12-.51,4.39-.49,6.55-.59,2.43-.07,4.97-.18,7.37.29,2.77.53,5.41,1.83,8.19,2.3,4.58.59,9.4.91,13.93-.2,7.67,2.41,15.83,2.14,23.76,1.68,3-.18,6.11-.39,9.01-1.21,3.3-.89,6.46-2.5,9.83-3.11,3.67-.62,7.16,1.17,10.65,1.95,5.41.98,10.89,2.01,16.39,2.4,2.16.08,4.41-.08,6.56-.31,1.03-.07,2.27-.47,3.28-.14,1.33.16,2.77.61,4.1.77,1.6.14,3.33-.07,4.92-.27,2.16-.37,4.59-.22,6.56-1.32,1.44-.83,2.93-1.98,4.1-3.17.86-.92,1.93-2.28,3.28-2.43,1.49.28,2.45,1.96,3.28,3.09"/><path class="b" d="M13.65,32.46c5.16.52,10.42-.14,15.57.69,5.72-3.24,7.45-3.38,13.93-3.12,2.44.09,4.98.2,7.37.72,2.7.56,5.43,1.38,8.19,1.6,4.62.25,9.37.52,13.93-.38,4.83,1.03,9.79,1.69,14.75,1.71,4.9-.05,9.9.15,14.75-.59,3.09-.67,6.05-2.03,9.01-3.09,2.85-1.13,6.04-1.51,9.01-.66,2.97.8,5.95,1.85,9.01,2.24,4.35.64,8.73,1.47,13.11,1.81,2.98.2,6.04,0,9.01-.28,2.42.19,4.93.57,7.37.36,4.77-.22,8.12-1.54,11.47-5.03.84-.77,2.05-1.8,3.28-1.45,2.32,1.27,3.38,4.2,4.92,6.22"/><path class="b" d="M13.65,30.94c4.89.55,9.85-.2,14.75.31,1.42-.24,2.75-1.27,4.1-1.75,2.29-.98,4.91-1.17,7.37-1.04,5.23.14,10.41,1.04,15.57,1.85,3.24.42,6.57.38,9.83.34,1.6-.02,3.32-.08,4.92-.24,1.33-.14,2.79-.51,4.1-.05,6.19,1.18,12.56,1.31,18.85,1.34,9.03.35,10.02-1.08,18.03-3.99,5.65-2.2,10.13-.02,15.57,1.34,7.02,1.21,14.15,2.59,21.3,2.33,1.88-.14,3.86-.21,5.74.03,2.17.09,4.45-.11,6.56-.67,3.43-.79,6.13-3.22,9.01-5.07,2.05-1.23,3.92.91,4.92,2.52,1.27,1.95,2.56,4.26,4.1,6.02"/><path class="b" d="M13.65,29.48c4.9.53,9.84-.22,14.75-.02,1.41-.24,2.74-1.21,4.1-1.64,2.06-.76,4.37-1.03,6.55-.97,5.48.22,10.93,1.21,16.39,1.7,4.62.39,9.31.24,13.93-.05,1.03-.07,2.24-.25,3.28-.28,2.13.42,4.39.7,6.56.9,4.61.44,9.3.55,13.93.67,1.87.02,3.87.14,5.74-.04,3.73-.51,7.11-2.54,10.65-3.73,6.42-2.61,10.98-.74,17.21,1.01,6.71,1.3,13.64,2.43,20.48,2.4,2.43-.18,4.95.07,7.37-.08,3.2-.26,6.3-1.52,9.01-3.19,2.18-1.28,5.05-3.65,7.37-1.38,2.83,2.79,4.17,7.03,7.37,9.49"/><path class="b" d="M13.65,28.14c5.19.56,10.39-.38,15.57-.43,3.03-1.55,6.4-2.56,9.83-2.5,4.92.16,9.84,1.01,14.75,1.3,5.17.44,10.4.34,15.57-.02,3-.38,6.02.54,9.01.67,4.62.41,9.3.54,13.93.71,1.87.06,3.86.14,5.74.09,4.02-.65,7.6-2.97,11.47-4.15,6.27-2.45,11.94-.21,18.03,1.47,5.92,1.21,11.99,2.06,18.03,2.25,2.7-.09,5.51.13,8.19-.19,2.59-.39,5.09-1.5,7.37-2.73,2.91-1.58,6.26-3.69,9.01-.57,2.85,2.96,4.35,7.51,8.19,9.41"/><path class="b" d="M13.65,26.97c5.48.71,10.94-.67,16.39-1.04,2.53-1.29,5.36-2.12,8.19-2.34,3.54-.18,7.13.34,10.65.57,5.71.39,11.48.69,17.21.45,3.55-.36,7.12.32,10.65.58,4.35.37,8.75.51,13.11.66,2.15.07,4.4.17,6.56.18,1.68.12,3.4-.42,4.92-1.1,3.97-1.67,7.98-3.7,12.29-4.25,2.74-.19,5.54.43,8.19,1.08,2.44.6,4.91,1.46,7.37,2,4.58.92,9.27,1.51,13.93,1.84,1.87.11,3.86.11,5.74.04,1.31.08,2.8.02,4.1-.25,6.28-1,11.82-8.33,17.21-1.49,2.47,2.79,4.3,6.98,8.19,7.97"/><path class="b" d="M13.65,26.01c5.23.95,10.45-.69,15.57-1.59,1.43-.04,2.79-.71,4.1-1.23,1.29-.46,2.75-.85,4.1-1.08,1.59-.29,3.32-.02,4.92.13,1.59.18,3.32.24,4.92.31,2.43.1,4.94.34,7.37.39,2.71.01,5.49-.13,8.19-.16,4.64-.09,9.31.35,13.93.66,4.08.27,8.21.38,12.29.47,3.25.04,6.6.29,9.83-.17,1.97-.49,3.85-1.62,5.74-2.37,1.91-.72,3.75-1.92,5.74-2.46,2.67-.73,5.54-.28,8.19.3,2.44.56,4.98,1.13,7.37,1.85,5.03,1.57,10.33,2.21,15.57,2.71,2.15.19,4.4.24,6.56.17,1.32.06,2.81,0,4.1-.29,8.1-2.25,11.78-8.23,18.85.71,1.95,2.26,4.1,5.32,7.37,5.4"/><path class="b" d="M13.65,25.26c3.83,1.1,7.76.02,11.47-1,2.17-.52,4.35-1.36,6.56-1.74,1.86-.66,3.76-1.61,5.74-1.86,1.89-.21,3.87.2,5.74.42,1.59.19,3.32.25,4.92.34,5.18.47,10.39.21,15.57-.04,8.46-.19,16.93.74,25.4.57,4.1-.03,8.43.21,12.29-1.41,1.94-.85,3.81-2.1,5.74-2.98,5-2.39,10.54-.23,15.57.94,2.74.58,5.46,1.53,8.19,2.14,2.95.64,6.02,1.03,9.01,1.38,3.78.35,7.71.65,11.47.09,2.6-.56,4.94-2.09,7.37-3.09,4.92-2.24,9.06.57,12.29,4.23,1.93,1.97,4.35,4.49,7.37,3.96"/><path class="b" d="M13.65,24.63c3.49,1.26,7.31.49,10.65-.88,2.21-.63,4.42-1.52,6.56-2.36,1.92-.55,3.84-1.41,5.74-2.03,1.58-.38,3.33-.2,4.92.07,4.31.65,8.75.75,13.11.87,3.81-.06,7.66-.43,11.47-.48,6.82-.07,13.66.45,20.48.2,4.66-.17,9.55,0,13.93-1.83,1.93-.83,3.78-2.07,5.74-2.85,4.51-1.85,9.44-.27,13.93.86,5.98,1.46,11.88,3.42,18.03,4.09,4.04.57,8.22.81,12.29.45,2.64-.45,4.95-2.09,7.37-3.12,4.86-2.31,9.62.8,13.11,4.11,1.4,1.2,3.06,2.5,4.92,2.84.72.12,1.74-.05,2.46.05"/><path class="b" d="M13.65,24.02c3.45,1.44,7.36.69,10.65-.82,2.51-.89,5.03-1.96,7.37-3.21,1.85-.78,3.8-1.68,5.74-2.24,1.32-.25,2.79-.1,4.1.12,4.04.65,8.21.63,12.29.79,3.81-.02,7.66-.36,11.47-.42,6.27-.1,12.58.36,18.85,0,4.65-.29,9.45-.31,13.93-1.72,4.72-1.59,7.67-4.51,13.11-3.85,8.37,1,16.28,4.38,24.58,5.75,5.1.82,10.46,1.73,15.57.55,2.39-.34,4.35-2.08,6.56-2.94,4.31-1.88,8.9.74,12.29,3.34,1.22.87,2.66,1.83,4.1,2.3,1.29.28,2.77.54,4.1.58"/><path class="b" d="M13.65,23.31c3.73,1.58,7.95.56,11.47-1.11,2.59-.82,5.07-2.16,7.37-3.57,1.77-1.01,3.75-2,5.74-2.51,1.32-.22,2.79,0,4.1.16,3.78.46,7.66.55,11.47.65,3.53-.04,7.12-.37,10.65-.39,5.72-.07,11.48.51,17.21.13,5.2-.4,10.55-.65,15.57-2.2,7.57-2.75,8.34-4.68,17.21-2.9,6.36,1.28,12.52,3.5,18.85,4.93,2.41.52,4.93,1.02,7.37,1.35,2.42.2,4.95.07,7.37.11,1.9-.27,3.84-.95,5.74-1.27,1.16-.21,2.23-1.18,3.28-1.68,2.8-1.67,6.23-1.05,9.01.34,3.01,1.34,5.6,3.98,9.01,4.25,1.02-.06,2.25-.12,3.28-.02"/><path class="b" d="M13.65,22.38c5.98,2.27,15.49-2.25,20.48-5.7,1.48-.96,3.21-1.82,4.92-2.28,1.32-.21,2.78.05,4.1.2,3.51.38,7.12.52,10.65.56,3.26-.08,6.57-.45,9.83-.48,5.46-.1,10.93.72,16.39.49,6.64-.43,13.43-1.15,19.67-3.6,2.09-.87,4.27-1.87,6.56-2.11,5.86-.6,11.61,1.39,17.21,2.88,3.52,1.02,7.09,2.07,10.65,2.91,2.13.46,4.35,1.14,6.56,1.02,1.87-.08,3.86-.27,5.74-.27.72,0,1.74.02,2.46.04.73-.14,1.74-.43,2.46-.62,1.29-.33,2.77-.62,4.1-.75,1.33-.6,2.64-1.66,4.1-1.98,3.51-.78,6.86,1.38,9.83,2.97,2.83,1.65,5.9,2.55,9.01,1"/><path class="b" d="M13.65,21.18c6.25,1.33,16.18-2.33,21.3-6.01,1.44-1.09,3.18-1.99,4.92-2.49,1.32-.16,2.78.16,4.1.27,3.25.25,6.57.48,9.83.44,3.26-.17,6.56-.67,9.83-.67,5.47-.09,10.92,1.03,16.39.92,7.87-.24,15.66-2,22.94-4.94,5.38-1.7,11.1-.37,16.39,1.03,6.02,1.49,11.93,3.71,18.03,4.83,3.27.09,6.55-.8,9.83-.71,1.02-.02,2.26.12,3.28,0,1.84-.48,3.84-.82,5.74-.93.86-.03,1.72-.84,2.46-1.2,1.76-.93,3.96-.7,5.74.07,4.38,1.75,9.14,5.52,13.93,2.94"/></svg>