<?xml version="1.0" encoding="UTF-8"?><svg id="a" xmlns="http://www.w3.org/2000/svg" width="1920" height="2400" viewBox="0 0 192 240"><defs><style>.b{fill:none;stroke:#fff;stroke-miterlimit:10;stroke-width:.3px;}.c{stroke-width:0px;}</style></defs><rect class="c" width="192" height="240"/><path class="b" d="M13.27,223.84c5.07.04,9.82-2.22,14.82-2.73,3-.32,6.07.02,9.06.29,4.42.3,8.87.85,13.17,1.93,4.51,1.21,8.73,3.39,13.17,4.81,3.16,1.04,6.55,1.49,9.88,1.54,5.3.02,10.83-.21,15.64-2.66,3.7.17,7.32-1.16,10.7-2.52,3.56-1.16,7.15-2.42,10.7-3.59,3.43-1.29,6.46-1.17,9.88.08,3.72,1.34,7.7.13,11.52.18,1.12-.1,2.25.71,3.29,1.02.99.36,2.24.56,3.29.55,1.92.05,3.87-.86,5.76-.3,4.39.89,8.69,2.5,13.17,2.94,1.29.39,2.22,1.83,3.29,2.59,1.45,1.21,3.18,2.37,4.94,3.08,2.58,1.03,5.5,1.06,8.23.86,1.65-.69,3.32-1.71,4.94-2.47"/><path class="b" d="M13.27,220.68c5.54.91,10.95-1.6,16.46-1.69,2.73-.09,5.52.28,8.23.49,4.42.3,8.89.9,13.17,2.08,4.59,1.29,8.61,4.14,13.17,5.47,4,1.11,8.25.69,12.35.59,4.1-.26,8.42-.1,12.35-1.46,3.4-.44,6.64-1.75,9.88-2.82,4.63-1.6,9.27-3.59,13.99-4.84,5.74-.84,7.17,3.89,13.99,1.94,1.31-.29,2.78-.65,4.12-.85,1.12.14,2.23.95,3.29,1.29,1.25.51,2.77.72,4.12.63,1.92-.13,3.89-.71,5.76-1.13,1.93-.13,3.89.89,5.76,1.31,2.67.77,5.46,1.44,8.23,1.71,3.79,3.89,9.18,7.38,14.82,6.12,1.91-1.19,3.69-2.82,5.76-3.75"/><path class="b" d="M13.27,217.38c1,.39,2.23.68,3.29.81.74-.07,1.73-.18,2.47-.19,3.87.38,7.67-.84,11.52-.92,3.01-.07,6.07.31,9.06.57,4.14.36,8.36.9,12.35,2.11,3.81,1.14,7.04,3.7,10.7,5.19,3.97,1.59,8.27.36,12.35.02,4.37-.39,8.8-.08,13.17-.17,2.86-.28,5.54-1.66,8.23-2.57,1.57-.55,3.34-.91,4.94-1.36,3.01-1.05,6.06-2.22,9.06-3.33,2.09-.92,4.58-1.03,6.59.17,3.2,1.86,5.23,3.2,9.06,1.81,1.6-.43,3.26-1.36,4.94-1.38,2.45,1.48,5.37,2.37,8.23,1.75,1.9-.37,3.88-.93,5.76-1.37,1.37-.15,2.8.6,4.12.91,2.14.64,4.39,1.27,6.59,1.67.73.13,1.73.28,2.47.35.82.48,1.73,1.4,2.47,1.99,2.35,1.91,5.19,3.46,8.23,3.84,2.28.4,3.31,0,4.94-1.65,1.42-1.39,3.06-2.82,4.94-3.53"/><path class="b" d="M13.27,214.21c.43.22,1.2.62,1.65.8.75.14,1.72-.07,2.47-.09,1.33-.04,2.81.14,4.12.39,1.06.18,2.27.56,3.29.86,2.71-.37,5.48-.97,8.23-.91,3.01.09,6.07.46,9.06.77,3.58.4,7.26.79,10.7,1.91,3.59,1.14,6.44,3.88,9.88,5.31,4.68,1.78,9.31-1.43,13.99-1.65,2.72-.2,5.53.04,8.23.32,1.87.21,3.97,1.04,5.76.15,2.14-.85,4.35-1.83,6.59-2.42,1.58-.38,3.35-.47,4.94-.79,2.79-.75,5.53-2,8.23-3.01,1.82-.83,4.02-1,5.76.12,6.66,4.71,6.94,3.22,13.99.53,1.11.19,2.22.98,3.29,1.29,1.55.56,3.33.67,4.94.38,2.19-.41,4.41-1.15,6.59-1.6,1.37.03,2.8.64,4.12.97,2.41.7,4.93,1.38,7.41,1.78.75.12,1.79.18,2.47.56.7.62,1.7,1.43,2.47,1.96,2.62,1.8,5.83,3.12,9.06,2.95,3.07-1.52,4.63-5.44,8.23-6.12"/><path class="b" d="M13.27,211.35c1.45,1.16,3.23.41,4.94.73,2.87.32,5.72,1.24,8.23,2.66,1.88-.32,3.85-.81,5.76-.96,1.04-.16,2.23-.54,3.29-.52,3.29.07,6.63.63,9.88,1.1,8.32,1.42,8.78,1.51,15.64,6.31,2.57,1.73,5.55,1.46,8.23.15,2.61-1.18,5.32-2.55,8.23-2.75,3.9-.24,7.78.78,11.52,1.71,3.97-1.75,7.95-3.07,12.35-2.73,3.19-.06,6.13-1.76,9.06-2.87,1.91-.91,4.01-.95,5.76.35,6.46,5.14,7.23,2.98,13.99.31,4.26,1.56,6.24,2.06,10.7.56,1.02-.28,2.23-.68,3.29-.71,1.04.18,2.27.46,3.29.72,3.78,1,7.65,1.92,11.52,2.47,1.46,1.21,3.19,2.34,4.94,3.06,2.03.72,4.46,1.55,6.59.94,2.79-1.95,4.41-6.03,8.23-6.18"/><path class="b" d="M13.27,208.92c.4.3,1.15.56,1.65.46.74.02,1.74.11,2.47.21,3.61.42,7.06,1.59,9.88,3.94.42.03,1.24-.08,1.65-.21,2.23-2.45,4.3-2.79,7.41-1.94,2.13.53,4.4.88,6.59,1.14,3.82.55,7.87.64,11.52,1.93,2.4,1.06,4.4,2.98,6.59,4.4,3.16,2.22,6.15.98,9.06-.97,2.7-1.76,5.72-3.52,9.06-3.36,3.08.14,6.12,1.07,9.06,1.92,4.17-1.8,8.73-2.28,13.17-1.35,1.97.28,3.98-.35,5.76-1.15,7.1-3.02,6.07-2.96,12.35,1.28,3.6,2.17,7.26-1,10.7-2.01,1.07-.03,2.24.55,3.29.68,2.48.53,5.06-.05,7.41-.86,5.83.41,11.51,2.14,17.29,2.92,1.49.09,2.72,1.47,4.12,1.95,2.54,1.09,5.49,1.59,8.23,1.14,2.58-2.06,4.32-6.41,8.23-5.85"/><path class="b" d="M13.27,206.9c4.84,1.1,9.28.68,13.17,4.45.42-.02,1.25-.18,1.65-.31,2.42-2.89,4.22-2.48,7.41-1.2,2.08.77,4.37,1.22,6.59,1.4,2.72.19,5.52.26,8.23.51,1.62.22,3.5.25,4.94,1.11,2.32,1.3,4.25,3.38,6.59,4.65,3.69,2.13,7.1-1.39,9.88-3.48,5.05-4.09,9.05-3.28,14.82-1.37,1.6-.35,3.28-.95,4.94-1.03,3.05-.18,6.16.39,9.06,1.3,1.86.65,3.89-.1,5.76-.39,2.98-.67,5.95-3.64,9.06-1.86,6.71,4.5,6.71,3.82,13.99,1.06,1.3-.63,2.77-.06,4.12.05,1.61.17,3.37.06,4.94-.36,6.62.4,13.2,1.64,19.76,2.63,1.43.1,2.76,1.08,4.12,1.44,2.91.88,6.11.75,9.06.14,1.97-2.13,3.99-5.66,7.41-4.72"/><path class="b" d="M13.27,205.23c3.89.88,8.45.5,11.52,3.46,1.02-.44,2.2-.93,3.29-1.13.76-.25,1.65-.79,2.47-.77,2.02.25,3.83,1.6,5.76,2.18,2.09.69,4.39.96,6.59,1.02,2.44.05,4.97.07,7.41.16,1.6.19,3.52.02,4.94.86,3.9,2.4,7.55,7.82,12.35,3.84,4.27-3.44,7.79-8.36,13.99-6.9,1.05.2,2.27.54,3.29.83,1.33-.2,2.76-.69,4.12-.72,3.72-.19,7.23,1.41,10.7,2.49,1.32-.12,2.79-.16,4.12-.14,1.32.02,2.84.21,4.12-.2,1.61-.58,3.22-1.61,4.94-1.84,2.47-.16,4.45,1.78,6.59,2.7,3.84,1.9,7.71-.97,11.52-1.47,1.02.13,2.26.2,3.29.19.73,0,1.75-.06,2.47-.18,1.89.2,3.87.53,5.76.71,3.55.33,7.16.59,10.7.98,1.89.21,3.89.51,5.76.84,1.59.37,3.28.97,4.94.97,1.9.07,3.9-.26,5.76-.59,1.07-.24,2.46-.2,3.29-1.03,1.34-1.73,3.42-3.45,5.76-2.77"/><path class="b" d="M13.27,203.71c3.28.71,7.06.36,9.88,2.46.84-.06,1.69-.77,2.47-1,1.56-.45,3.35-.42,4.94-.16,1.67.55,3.28,1.58,4.94,2.17,1.55.57,3.3.87,4.94.99,4.65.29,9.38-.09,13.99.66,3.82,2.09,7.62,8.18,12.35,4.31,3.71-2.89,6.51-7.75,11.52-8.46,1.32-.17,2.81-.06,4.12.2.76.15,1.72.52,2.47.18,3.95-1.05,7.98.48,11.52,2.15.41.17,1.21.26,1.65.18,1.03-.04,2.26,0,3.29.11,1.9.16,3.86.7,5.76.88,2.23-.22,4.27-1.93,6.59-1.78,3.84.59,6.39,3.67,10.7,2.65,1.9-.37,3.86-.99,5.76-1.33,1.88-.02,3.88,0,5.76-.13,3.79.67,7.67,1.16,11.52,1.21,3,.1,6.07.12,9.06.49,2.71.33,5.48,1.14,8.23.67,3.01-.43,6.03-1.23,9.05-1.62,1.36-1.14,3.07-2.33,4.94-2.01"/><path class="b" d="M13.27,202.24c1.88.27,3.87.53,5.76.75,1.1.15,2.28.74,3.29,1.16,2.57-2.57,6.15-.06,9.06.55,2.65.8,5.49,1.11,8.23,1.46,4.92.31,9.93.1,14.82.79,3.4,2.15,7.18,8.06,11.52,4.38,5.45-4.55,8.08-10.99,16.46-9.48.74.11,1.72.33,2.47.37.73-.1,1.73-.12,2.47-.06,1.65.14,3.39.6,4.94,1.17.73.27,1.7.73,2.47.88,1.32.15,2.8.17,4.12.36,2.78.33,5.5,1.28,8.23,1.83,4.62-1.12,5.75-2.63,10.7-.44,4.2,1.9,7.25,1.01,11.52.25,2.17.12,4.42-.12,6.59-.15,1.88.32,3.87.69,5.76.9,4.08.48,8.25.1,12.35.15,2.46-.05,4.97.49,7.41.67,3.89-.01,7.68-1.33,11.52-1.74.72-.1,1.76-.2,2.47-.37.91-.62,2.18-1.13,3.29-1.16"/><path class="b" d="M13.27,200.7c2.42.56,5.09.35,7.41,1.33.51.03,1.26-.31,1.65-.62.46-.12,1.21-.08,1.65.09,2.2,1,4.27,2.52,6.59,3.28,2.87,1.06,6.05,1.1,9.06.74,4.63-.6,9.35-.29,13.99-.19.91,0,1.76.87,2.47,1.35,1.4.92,2.71,2.28,4.12,3.19,3.73,2.59,6.88-1.62,9.06-4.25,6.55-8.7,11.05-6.83,20.58-5.12,1.34.3,2.76.9,4.12,1.13,1.87.38,3.89.54,5.76.93,2.49.42,4.92,1.52,7.41,1.91,8.32-3.71,10.05.76,17.29.39,1.61-.06,3.33-.57,4.94-.33,2.17.24,4.43-.05,6.59-.26,3.52.61,7.11,1.3,10.7,1.14,3-.06,6.05-.42,9.06-.42,2.18-.1,4.42.48,6.59.41,3.02-.17,6.06-.77,9.06-1.13,1.6-.23,3.35-.37,4.94-.65.68-.36,1.71-.74,2.47-.88"/><path class="b" d="M13.27,199.2c2.14.53,4.49.4,6.59,1.14.74-.28,1.67-.78,2.47-.46,1.44.67,2.8,1.84,4.12,2.71,5.12,3.61,9.91,2.78,15.64,1.62,3.79-.57,7.7-.34,11.52-.26,2.33,1.71,4.71,3.53,7.41,4.64,4.21,1.67,6.77-3.38,9.06-6.04,1.36-1.7,2.94-3.56,4.94-4.5,3.37-1.35,7.21-.91,10.7-.31,1.88.43,3.91.7,5.76,1.23,1.34.33,2.75,1.02,4.12,1.25,1.89.3,3.9.63,5.76,1.11,1.61.38,3.28,1.13,4.94,1.28,2.98-1.63,6.6-1.72,9.88-1.13,1.61.36,3.31.88,4.94,1.15,1.59.27,3.34.22,4.94.07,1.04-.01,2.26.23,3.29.29,2.46.24,4.97-.21,7.41-.38,3.78.72,7.67,1.35,11.52.96,2.99-.22,6.05-.66,9.06-.66,1.89-.08,3.87.41,5.76.3,3.28-.18,6.61-.46,9.88-.77,1.02-.13,2.26-.24,3.29-.28.74-.16,1.73-.53,2.47-.72"/><path class="b" d="M13.27,197.77c1.88.35,3.92.44,5.76.99,2.14-1.48,4.09.88,5.76,2.03,5.47,4.34,10.13,3.82,16.46,2.12,3.77-.81,7.7-.56,11.52-.38,3.22,2.49,7.19,5.77,11.52,4.46,2.54-1.27,4.04-4.07,5.76-6.21,2.76-3.81,5.12-5.19,9.88-5.11,2.17-.02,4.46.11,6.59.58,2.2.24,4.47.66,6.59,1.29,1.94.55,3.92,1.31,5.76,2.11,1.9.34,3.87.93,5.76,1.33,4.64-2.86,7.44-1.48,12.35-.72,2.15.31,4.42.44,6.59.66,2.71.33,5.5.73,8.23.62,1.9-.02,3.87-.47,5.76-.59,3.23.63,6.57,1.22,9.88.92,4.37-.32,8.77-1.27,13.17-.97,2.98.4,6.05.21,9.06.14,1.61-.03,3.34-.22,4.94-.32,1.32-.12,2.82.03,4.12-.23"/><path class="b" d="M13.27,196.33c1.61.25,3.36.5,4.94.91,1.85-1.24,3.45.2,4.94,1.28,1.75,1.32,3.68,2.63,5.76,3.36,3.18,1.21,6.69.82,9.88-.16,2.65-.72,5.48-1.15,8.23-1.03,1.32.05,2.8.13,4.12.24.88.24,1.76,1.11,2.47,1.64,1.23.95,2.68,1.95,4.12,2.56,2.93,1.21,6.97,1.04,9.06-1.61,3.05-3.5,5.33-9.03,10.7-9.03,6.07-.52,12.3.16,18.11,2,1.39.41,2.87,1.12,4.12,1.85.97.52,2.11,1.54,3.29,1.24,2.89-2.68,5.5-2.7,9.06-1.45,2.64.88,5.45,1.43,8.23,1.47,3.83.03,7.69.66,11.52.51,2.19-.04,4.42-.54,6.59-.76,1.6.29,3.32.61,4.94.76,5.24.5,10.42-1.13,15.64-1.3,3.01-.23,6.05.44,9.06.48,3.55.09,7.15-.28,10.7-.18"/><path class="b" d="M13.27,194.92c1.33.21,2.8.55,4.12.83,2.25-1.28,3.9.2,5.76,1.38,2.69,1.83,5.76,3.41,9.06,3.66,2.8.24,5.53-.83,8.23-1.35,2.13-.43,4.41-.63,6.59-.52,1.06.11,2.4-.02,3.29.68,5.39,4.2,9.03,7.05,15.64,3.01,2.36-1.79,3.63-4.9,5.76-6.95,1.85-2.13,4.78-2.34,7.41-2.52,4.93-.45,10.03-.06,14.82,1.26,1.37.35,2.87.86,4.12,1.53,1.04.57,2.11,1.45,3.29.67,1.54-.57,3.29-1.13,4.94-1.19,2,.13,3.91,1.16,5.76,1.83,1.81.68,3.83,1.11,5.76,1.18,2.16.08,4.42-.13,6.59-.04,4.38.22,8.84.42,13.17-.41,1.61-.44,3.33.16,4.94.33,1.87.26,3.88.3,5.76.1,4.38-.5,8.75-1.56,13.17-1.67,2.72-.12,5.51.07,8.23.12,2.99-.05,6.06-.22,9.06-.32"/><path class="b" d="M13.27,193.55c1.6.28,3.4,1.16,4.94.22,1.78-.32,3.44.92,4.94,1.7,1.55.88,3.26,1.79,4.94,2.39,2.61.98,5.52,1.19,8.23.51,3.49-.79,7.1-1.48,10.7-1.24,2.86,1.53,5.33,3.85,8.23,5.3,4.19,2.29,8.06-.15,11.52-2.56,2.73-2.01,3.92-6.07,7.41-7.2,7.57-1.58,15.88-1.73,23.05,1.51,12.15-2.86,11.4,3.7,22.23,2.8,5.46-.65,11,.26,16.46-.34,1.33-.12,2.79-.43,4.12-.52,2.69.47,5.5.89,8.23.64,3.03-.27,6.06-1,9.06-1.47,2.98-.49,6.05-.76,9.06-1.05,4.11-.4,8.2-1.43,12.35-1.34"/><path class="b" d="M13.27,192.23c1.02.25,2.25.53,3.29.69,2.73-1.76,5.69.43,8.23,1.52,2.31,1.08,4.84,2,7.41,2.16,2.19.11,4.44-.38,6.59-.74,1.59-.28,3.32-.51,4.94-.59,1.44.28,2.84,1.24,4.12,1.94,3.73,2.13,7.71,6.22,12.35,4.59,2.68-1.09,5.03-3.03,7.41-4.64,1.33-.79,2.17-2.54,3.29-3.58,1.68-1.93,4.19-2.31,6.59-2.61,1.32-.22,2.78-.56,4.12-.65,1.32.06,2.79-.05,4.12-.05,2.19,0,4.47.29,6.59.83.74.19,1.74.49,2.47.73.41-.09,1.23-.24,1.65-.28,2.71-.17,5.56-.08,8.23.42,3.03,1.02,5.83,2.95,9.06,3.4,3.54.62,7.15-.3,10.7-.36,5.49.1,11.02.44,16.46-.52,2.42.4,4.95.8,7.41.66,3.6-.24,7.16-1.24,10.7-1.89,4.11-.76,8.24-1.67,12.35-2.43,2.43-.36,4.98-.16,7.41.04"/><path class="b" d="M13.27,190.94c1.03.23,2.23.58,3.29.51,1.23-.69,2.76-.82,4.12-.5,2.24.56,4.39,1.68,6.59,2.38,4.27,1.63,8.79.96,13.17.27,1.12-.24,2.28.56,3.29.93,2.28.99,4.49,2.34,6.59,3.66,4.58,2.9,7.74,4.11,12.35.46,1.87-1.34,3.82-2.79,5.76-4.03,1.3-1.2,2.47-2.87,4.12-3.64,1.52-.69,3.34-.74,4.94-1.12,1.32-.28,2.77-.72,4.12-.82,1.6.04,3.33-.21,4.94-.15,2.21,0,4.46.48,6.59,1.05,1.83-.55,3.88-.38,5.76-.25,1.32.12,2.81.19,4.12.44,3.34,1.03,6.36,3.18,9.88,3.67,3.27.57,6.62-.07,9.88-.4,2.99-.26,6.06.01,9.06.07,1.34-.07,2.8.25,4.12.44,1.6.19,3.35.12,4.94-.13,1.87-.18,3.87.3,5.76.13,2.19-.08,4.44-.54,6.59-.99,3.3-.73,6.62-1.67,9.88-2.57,2.41-.65,4.91-1.39,7.41-1.53,2.75-.1,5.51.69,8.23.93"/><path class="b" d="M13.27,189.7c1.03.23,2.24.49,3.29.44.45-.21,1.18-.53,1.65-.63,2.81-.62,5.59.67,8.23,1.46,2.37.76,4.91,1.31,7.41,1.29,1.33,0,2.8-.16,4.12-.33.79-.02,1.74.36,2.47.61,3.23.97,6.02,3.01,9.06,4.41,1.8,1.01,3.72,2.14,5.76,2.59,3.95.9,6.91-2.54,9.88-4.54,1.01-.72,2.23-1.52,3.29-2.14,1.24-1.08,2.49-2.52,4.12-3.02,1.87-.48,3.92-.58,5.76-1.2,2.35-.89,4.93-.99,7.41-1.07,2.21-.13,4.44.43,6.59.84,2.89-.88,6.1-.33,9.06-.03,2.28.56,4.4,1.85,6.59,2.66,5.55,2.35,10.76,1.06,16.46.57,1.32-.03,2.81-.06,4.12.1,2.38.85,4.89,1.71,7.41,2.01,1.88.22,3.9.08,5.76-.27,3.05-.06,6.14-.57,9.06-1.49,2.41-.77,5.04-1.09,7.41-1.98,3.72-1.24,7.51-3.05,11.52-2.8,3.03.39,5.98,1.59,9.06,1.75"/><path class="b" d="M13.27,188.48c1.02.2,2.25.33,3.29.34,1.01-.37,2.2-.84,3.29-.9,2.8-.16,5.54.92,8.23,1.55,2.39.6,4.94.94,7.41.77,1.36.22,2.81.78,4.12,1.19,1.13.33,2.38.9,3.29,1.66,3,2.02,6.29,3.89,9.88,4.57,1.57.42,3.32.93,4.94.44,3.74-1.28,6.38-4.63,9.88-6.4.86-.39,1.7-1.38,2.47-1.9.66-.45,1.68-.87,2.47-1,1.62-.18,3.38-.41,4.94-.89,1.33-.39,2.77-1.01,4.12-1.34,3.26-.37,6.74-.61,9.88.56,1.56-.53,3.3-.74,4.94-.65,1.32.08,2.83.01,4.12.36,2.51.75,4.9,2.09,7.41,2.85,2.63.85,5.48,1.2,8.23,1.04,2.45-.13,4.96-.58,7.41-.8,1.4-.21,2.81.75,4.12,1.14,1.85.71,3.83,1.42,5.76,1.86,4.65,1.04,9.57-.05,13.99-1.58,1.87-.71,3.82-1.58,5.76-2.08,1.57-.5,3.39-.57,4.94-1.1,2.6-1.17,5.34-2.45,8.23-2.6,2.27-.19,4.47.78,6.59,1.46,1.83.56,3.85.88,5.76.96"/><path class="b" d="M13.27,187.02c1.31.25,2.78.35,4.12.23,1.25-.56,2.75-.85,4.12-.8,2.78.11,5.51,1.02,8.23,1.52,1.03.19,2.25.36,3.29.43,2.2.55,4.43,1.4,6.59,2.12,1.2.33,2.24,1.47,3.29,2.09,1.55.99,3.25,2.01,4.94,2.75,3.17,1.28,7.43,2.19,10.7.88,2.97-1.46,5.31-4.05,8.23-5.6,1.37-.74,2.54-2.16,4.12-2.55,3.03-.48,6.18-.86,9.06-2.04,1.52-.71,3.27-1.02,4.94-1.05,2.2-.17,4.52.04,6.59.86,2.32-.91,4.96-.82,7.41-.75,2.54.54,4.93,1.85,7.41,2.6,2.63.86,5.46,1.36,8.23,1.33,1.89-.01,3.89-.25,5.76-.5,1.07-.28,2.27.33,3.29.57,2.76.81,5.44,2.12,8.23,2.85,4.39,1.33,9.12.34,13.17-1.61,2.18-.99,4.33-2.3,6.59-3.13,2.09-.72,4.39-1,6.59-1.15,2.36-.97,4.77-2.28,7.41-2.11,2.31,0,4.46,1.16,6.59,1.9,2.09.68,4.4.91,6.59.86"/><path class="b" d="M13.27,185.25c1.33.09,2.78.49,4.12.38,1.61-.16,3.29-.81,4.94-.65,2.77.11,5.51.92,8.23,1.36,2.5.63,4.97,1.68,7.41,2.52,2.14.57,3.84,2.21,5.76,3.23,3.64,2.33,8.05,3.44,12.35,2.82,4-.33,5.94-2.75,9.06-4.79,1.86-1.13,3.49-2.98,5.76-3.29,2.75-.41,5.49-1.26,8.23-1.74,1.06-.26,2.26-.76,3.29-1.09,2.96-.62,6.2-.66,9.06.44.77.02,1.72-.38,2.47-.48,1.33-.07,2.79-.45,4.12-.38,1.68.22,3.36.97,4.94,1.52,2.11.76,4.37,1.44,6.59,1.81,3.02.63,6.04.21,9.06.19,2.17.62,4.44,1.24,6.59,1.93,8.76,4.12,12.6,3.14,20.58-1.93,4.33-2.82,7.16-3.59,12.35-3.43.82.17,1.73-.5,2.47-.77,1.26-.47,2.78-.65,4.12-.5,1.99.2,3.96,1.03,5.76,1.86,2.57,1.05,5.49,1.17,8.23.94"/><path class="b" d="M13.27,183.53c1.61.08,3.33.53,4.94.36,2.16-.23,4.41-.65,6.59-.28,5.18.54,9.99,2.76,14.82,4.58,2.08,1.31,4.31,2.63,6.59,3.59,4.45,1.75,9.67,1.45,13.99-.54,2.98-1.31,5.37-3.73,8.23-5.22,1.27-.6,2.83-.87,4.12-1.42,1.78-.8,3.81-1.24,5.76-1.13,1.66.08,3.36-.52,4.94-.93,3.01-.57,6.19-.48,9.06.68.73-.2,1.71-.44,2.47-.53.73-.23,1.7-.54,2.47-.55,1.67,0,3.37.68,4.94,1.18,1.86.62,3.84,1.2,5.76,1.59,1.59.32,3.32.54,4.94.59,1.04.07,2.28-.15,3.29.13,2.43.75,4.96,1.47,7.41,2.17,1.62.62,3.21,1.71,4.94,2.08,4.9,1.48,9.33-.59,13.17-3.55,6.32-4.6,8.49-5.96,16.46-5.03.77.18,1.75-.19,2.47-.43,1.01-.25,2.27-.25,3.29-.06,6.67,1.51,6.75,3.86,14.82,2.64"/><path class="b" d="M13.27,181.82c1.33.1,2.79.28,4.12.4,2.99-.18,6.07-.59,9.06-.05,2.82.43,5.58,1.44,8.23,2.47,2.18.89,4.53,1.68,6.59,2.85,5.46,3.09,10.36,4.09,16.46,2.21,4.54-1.3,8.05-4.74,12.35-6.54,1.82-.9,3.66-2.27,5.76-2.32,1.35,0,2.78.54,4.12.7,2.46.07,4.93-.85,7.41-.79,1.35-.03,2.83.24,4.12.62.74.21,1.7.63,2.47.35,1.03-.34,2.18-.94,3.29-.96,3.65.13,7.1,1.89,10.7,2.41,1.59.3,3.32.51,4.94.55,1.04.26,2.26.69,3.29,1.01,3,1.01,6.23,1.59,9.06,3.07,10.45,3.91,14.69-6.6,23.05-9.21,3.52-.93,7.18.26,10.7.58,4.35-1.13,8.29,1.77,12.35,2.8,2.44.52,4.98-.15,7.41-.38"/><path class="b" d="M13.27,180.12c1.33.07,2.79.28,4.12.36,2.99-.19,6.07-.5,9.06-.07,6.99,1.04,13.23,4.7,19.76,7.16,4,1.32,8.45.84,12.35-.63,3.9-1.42,7.17-4.14,10.7-6.24,2.01-1.18,4.17-2.64,6.59-2.63,1.44,0,2.83.81,4.12,1.35,2.65.89,5.51-.27,8.23-.1,1.93.03,3.89.68,5.76,1.07.79-.06,1.71-.61,2.47-.79.72-.16,1.73-.2,2.47-.12,3.86.6,7.63,1.95,11.52,2.34,4.9,1.6,9.9,3.07,14.82,4.61,3.15.55,6.44-.54,9.06-2.29,5.04-3.09,9.05-9.41,15.64-8.68,3.03.35,6.03,1.28,9.06,1.69,3.18-.45,6.12,1.35,9.06,2.3,1.77.79,3.81,1.29,5.76,1.03,1.04-.08,2.25-.48,3.29-.5.36.16,1.26.44,1.65.55"/><path class="b" d="M13.27,178.4c4.37.61,8.79-.35,13.17.12,7.28.8,13.71,4.78,20.58,7.01,3.81,1.09,7.95.37,11.52-1.2,3.92-1.59,6.95-4.76,10.7-6.62,2.01-1.08,4.25-2.19,6.59-2.18,2.14-.05,3.87,1.49,5.76,2.22,1.88.08,3.88.05,5.76.05,2.21-.08,4.42.58,6.59.91,2.43-.34,4.97-.89,7.41-.31,3.89.71,7.77,1.66,11.52,2.91,2.43.75,4.95,1.51,7.41,2.17,1.31.32,2.75.84,4.12.86,7.37-.39,12.17-7.03,18.11-10.55,5.83-3.35,12.07,1.53,18.11,1.42,3.62.92,6.97,3.06,10.7,3.57,1.03.08,2.29-.07,3.29-.32,0,0,.82-.23.82-.23l.82.18c.69.34,1.73.71,2.47.92"/><path class="b" d="M13.27,176.44c4.61.88,9.35-.38,13.99.18,5.2.48,9.99,2.83,14.82,4.64,5.27,2.48,9.27,3.65,14.82,1.07,3.27-1.47,6.06-3.88,9.06-5.81,2.81-1.49,5.88-2.87,9.06-3.27,2.03-.26,4.09.5,5.76,1.62,1.03.18,2.28.31,3.29.59,1.85.47,3.87.63,5.76.87,1.33.2,2.78.59,4.12.73,2.43-.22,4.97-.45,7.41-.13,4.75.69,9.36,2.28,13.99,3.51,2.68.61,5.44,1.82,8.23,1.47,2.78-.44,5.1-2.34,7.41-3.82,4.1-2.59,7.66-6.38,12.35-7.91,3.62-.98,7.29.62,10.7,1.69,1.3.42,2.79.84,4.12,1.17,1.04.18,2.31.09,3.29.57,2.14.91,4.36,1.93,6.59,2.62,2.07.86,4.47,1.04,6.59.24,1.38.31,2.72,1.23,4.12,1.54"/><path class="b" d="M13.27,174.28c2.92.86,6.06.49,9.05.36,3.29-.19,6.68-.1,9.88.73,3.63,1,7.22,2.4,10.7,3.84,2.81,1.3,5.87,2.81,9.06,2.27,5.43-.94,9.26-5.41,13.99-7.84,3.4-1.31,7.03-2.54,10.7-2.59,1.08.02,2.32.34,3.29.79.74.02,1.74.04,2.47.18,1.97.46,3.78,1.73,5.76,2.17,1.88.42,3.86.96,5.76,1.24,1.88-.04,3.88-.16,5.76-.05,5.03.33,9.93,1.87,14.82,3,2.41.44,4.94,1.52,7.41,1.07,3.54-.75,6.15-3.58,9.06-5.52,4.31-2.7,8.67-6.48,13.99-6.56,4.03.12,7.74,2.07,11.52,3.25.38.14,1.26.4,1.65.52,1.06-.16,2.33.11,3.29.58,2.89,1.34,5.91,2.73,9.06,3.37,1.34.26,2.8-.33,4.12-.35,1.24.74,2.73,1.4,4.12,1.81"/><path class="b" d="M13.27,172.1c2.86,1.13,6.05.86,9.05.73,3.27-.19,6.65-.26,9.88.42,3.35.78,6.68,1.94,9.88,3.19,2.88,1.24,5.78,3.25,9.06,2.94,5.53-.74,9.15-5.71,13.99-7.98,1.81-.75,3.86-1.1,5.76-1.52,2.14-.41,4.39-.93,6.59-.91,1.61.29,3.33-.08,4.94.16,2.11.34,3.9,1.8,5.76,2.75,1.54.72,3.3,1.23,4.94,1.65,1.85.37,3.88.14,5.76.27,2.46.09,4.99.41,7.41.86,3.01.54,6.05,1.24,9.06,1.8,1.59.2,3.35.82,4.94.46,3.86-.99,6.71-4.08,9.88-6.29,4.47-2.7,9.43-5.64,14.82-5.49,3.17.15,6.17,1.48,9.06,2.67,1.57.56,3.21,1.66,4.94,1.16,2.61.42,4.9,2.15,7.41,2.95,2.33.88,4.95,1.88,7.41.9,1.64.57,3.23,1.63,4.94,2.07"/><path class="b" d="M13.27,170.05c4.63,2.21,9.91.67,14.82.91,3.06,0,6.13.66,9.06,1.52,2.21.66,4.58,1.22,6.59,2.39,8.86,5.6,11.91.16,18.93-4.6,1.91-1.37,4.31-1.79,6.59-2.08,2.17-.31,4.42-.73,6.59-1.08,7.61-.91,7.57-1.06,13.99,3.11,2.01,1.07,4.3,1.72,6.59,1.74,6.36.16,12.66,1.19,18.93,2.19,1.32.14,2.85.49,4.12-.05,3.37-1.23,6.15-3.72,9.06-5.75,1.97-1.42,4.3-2.47,6.59-3.28,1.35-.55,2.63-1.67,4.12-1.92,3.26-.65,6.71,0,9.88.82,2.5.96,4.95,2.25,7.41,3.31.46,0,1.26-.24,1.65-.47,1.1-.16,2.31.38,3.29.82,2.13.98,4.36,1.98,6.59,2.74,1,.36,2.22.72,3.29.74.75.01,1.74-.3,2.47-.02,1.52.85,3.26,1.58,4.94,2.06"/><path class="b" d="M13.27,168.32c.72.34,1.71.34,2.47.46,1.61.27,3.32.68,4.94.93,1.92.1,3.81-1.01,5.76-.91,1.65-.09,3.32.55,4.94.66,1.34.11,2.81.39,4.12.67,1.34.15,2.82.35,4.12.71,2.99.66,5.4,2.84,8.23,3.91,6.02,2.25,10.26-4.05,14.82-6.81,1.92-1.34,4.33-1.52,6.59-1.68,2.47-.21,4.98-.69,7.41-1.14,7.15-1.14,8-1.13,13.99,3,1.95,1.18,4.34,1.64,6.59,1.87,2.99.31,6.06.39,9.06.64,2.73.25,5.51.68,8.23.96.73.07,1.74.15,2.47.18,1.1-.18,2.31-.77,3.29-1.27,2.53-1.35,4.95-3.07,7.41-4.54,2-1.29,4.34-2.13,6.59-2.89,1.39-1.05,3.2-1.71,4.94-1.84,2.43-.12,5-.14,7.41.26,3.18.99,6.09,2.78,9.06,4.26.46-.19,1.28-.74,1.65-1.07.42-.16,1.21-.26,1.65-.17,2.55.62,4.95,1.97,7.41,2.87,1.81.73,3.78,1.41,5.76,1.4,2.07,1.05,4.33,1.94,6.59,2.52"/><path class="b" d="M13.27,165.81c2.26,0,4.44,1,6.59,1.59.78.24,1.71-.12,2.47-.23,1.9-.19,3.82-1.06,5.76-.75,1.69.16,3.36.92,4.94,1.48,1.87.3,3.9-.03,5.76.45,3.41.51,5.93,3.17,9.06,4.38,5.68,2.1,9.84-3.6,13.99-6.47,2.37-1.81,4.57-1.85,7.41-1.88,2.19-.09,4.45-.43,6.59-.89,1.31-.27,2.8-.36,4.12-.6,1.59-.25,3.33-.61,4.94-.31,3.8.92,6.95,3.61,10.7,4.64,3.48.85,7.14.88,10.7,1.02,2.45.14,4.97.45,7.41.65,1.03.06,2.27.23,3.29.05,1.37-.5,2.83-1.23,4.12-1.91,2.7-1.41,5.43-2.99,8.23-4.19,1.27-.56,2.8-.94,4.12-1.38.94-.6,2.2-1.13,3.29-1.36,2.96-.52,6.06-.31,9.06-.43.78-.01,1.82.24,2.47.69.29.37,1.23.97,1.65,1.18,1.59,1.01,3.37,2.03,4.94,3.09,2.5-4.58,5.42-1.87,9.06-.62,1.87.7,3.86,1.38,5.76,1.98,2.9,1.3,5.96,2.45,9.06,3.21"/><path class="b" d="M13.27,162.7c2.05.2,3.94,1.37,5.76,2.23,1.59-.37,3.28-.87,4.94-.78,1.05-.12,2.22-.61,3.29-.59,2.71-.1,5.02,1.55,7.41,2.55,3.15-.18,6.51.21,9.06,2.24,1.49,1.05,3.13,2.26,4.94,2.68,5.41.9,9.11-4.31,13.17-6.96,1.19-.8,2.66-1.5,4.12-1.55,2.16.04,4.43.16,6.59-.1,2.45-.34,4.96-.87,7.41-1.22,2.13-.48,4.4-.9,6.59-.58,2.97.36,5.52,2.22,8.23,3.33,5.49,2.19,11.54,1.43,17.29,2.25,1.31.11,2.79.29,4.12.23,1.05-.34,2.28-.81,3.29-1.24,3.27-1.36,6.53-2.94,9.88-4.11,1.29-.46,2.8-.78,4.12-1.14.97-.5,2.22-.91,3.29-1.1,1.86-.32,3.88-.37,5.76-.49,1.32-.06,2.8-.29,4.12-.12.97.16,1.92,1.04,2.47,1.82,1.36.95,2.82,2.11,4.12,3.15l.82-.25c2.61-5.88,5.41-2.3,9.88-1.17,1.98.49,3.84,1.64,5.76,2.3,2.91,1.17,6.01,2.04,9.06,2.8"/><path class="b" d="M13.27,159.67c1.83.32,3.23,1.9,4.94,2.43,1.76-.87,3.84-1.06,5.76-.87,2.53-1.05,4.97-.83,7.41.35,1.4.59,2.7,1.7,4.12,2.24.98.53,2.23.44,3.29.52,1.39.16,2.91.61,4.12,1.33,4.05,2.96,6.73,5.37,11.52,1.94,3.67-2.42,6.73-7.04,11.52-6.96,2.98.37,6.08.55,9.06,0,2.75-.46,5.48-1.38,8.23-1.83,2.43-.4,5.07-.53,7.41.37,3.2,1.33,6.42,2.82,9.88,3.34,3.8.6,7.72.67,11.52,1.27,1.03.12,2.26.27,3.29.31,2.48-.62,4.98-1.51,7.41-2.33,2.43-.81,4.93-1.73,7.41-2.39,1.88-.51,3.93-.77,5.76-1.44,1.84-.49,3.87-.68,5.76-.87,1.31-.12,2.8-.36,4.12-.2.93.14,1.91.92,2.47,1.64,1.36,1.21,2.84,2.62,4.12,3.93,1.53-3.21,2.34-6.4,6.59-4.36,1.93.72,4,1.33,5.76,2.43,4.4,2.1,9.25,3.18,13.99,4.2"/><path class="b" d="M13.27,157.14c1.17.43,2.36,1.32,3.29,2.13,2.04-.98,4.35-1.31,6.59-.92.76-.14,1.69-.59,2.47-.65.76-.04,1.74.11,2.47.3,2.93.71,5.74,1.99,8.23,3.68.43.17,1.23.54,1.65.73,1.04.18,2.29.21,3.29.56,5.17,1.77,7.06,7.42,13.17,2.87,3.41-2.4,6.15-6.96,10.7-7.03,2.16.27,4.39.87,6.59.83,4.53.08,8.77-1.89,13.17-2.67,4.9-1.2,7.87.57,12.35,1.96,3.72,1.22,7.68,1.56,11.52,2.15,1.88.3,3.87.63,5.76.87,1.62-.19,3.35-.63,4.94-.99,5.49-1.27,10.9-3.03,16.46-3.93,2.68-.61,5.47-1.29,8.23-1.24,2.78.35,4.87,2.84,6.59,4.86.73-.33,1.39-1.92,1.65-2.61.33-.61,1.06-1.8,1.65-2.2,1.28-.75,2.85-.08,4.12.37,1.75.45,3.3,1.63,4.94,2.33,5.05,1.86,10.33,3.34,15.64,4.22"/><path class="b" d="M13.27,155.28c.44.23,1.26.79,1.65,1.11.83.11,1.69-.53,2.47-.71,1.31-.32,2.8-.26,4.12-.08.79.28,1.7-.16,2.47-.29,1.09-.05,2.29.39,3.29.78,2.35,1.07,5.01,1.39,7.41,2.3,1.4.54,2.75,1.51,4.12,2.12.98.48,2.29.44,3.29.9,3.62,1.27,6.42,6.13,10.7,3.92,4.27-2.09,6.62-7.51,11.52-8.36,1.65-.06,3.32.67,4.94.91,2.99.55,6.14.23,9.06-.59,13.76-4.38,11.64-2.48,24.7.59,3.83.64,7.67,1.59,11.52,2.09,1.89-.19,3.89-.46,5.76-.75,5.81-.86,11.49-2.54,17.29-3.49,2.95-.4,6.35-1.44,9.06.29,1.21.79,2.16,2.26,3.29,3.14,1.71-4.12,2.47-6.56,7.41-4.48,1.29.68,2.69,1.53,4.12,1.91,2.43.65,5.01,1.13,7.41,1.91,3.23.99,6.51,2.15,9.88,2.53"/><path class="b" d="M13.27,154.17c.84-.03,1.69-.73,2.47-.96,1.86-.52,3.9-.17,5.76.16,1.07-.45,2.31-.04,3.29.45,1.31.67,2.73,1.48,4.12,1.98,1.55.58,3.31.74,4.94.87,1.39.17,2.86.68,4.12,1.29,2.08,1.28,4.58,1.49,6.59,2.91,2.35,1.72,5.11,4.41,8.23,2.9,4.43-1.89,7.33-8.72,12.35-8.68,1.64.19,3.3.94,4.94,1.17,2.15.38,4.45.3,6.59-.14,5.44-1.1,10.78-4.33,16.46-3.06,3.04.64,6.06,1.65,9.06,2.45,3.53.86,7.14,1.64,10.7,2.38,2.13.51,4.43.06,6.59,0,4.16-.22,8.29-1.06,12.35-1.95,2.71-.56,5.5-1.15,8.23-1.6,3.48-.67,5.97-.41,8.23,2.65,1.16-.6,1.62-2.46,2.47-3.38,2.34-2.58,5.65.12,8.23.83,2.72.54,5.58.74,8.23,1.6,3.82,1.07,7.56,2.71,11.52,3.21"/><path class="b" d="M13.27,151.44c1.74-.97,3.88-.77,5.76-.45,1.03.28,2.3.02,3.29.46,2.2,1.08,4.23,2.72,6.59,3.46,1.82.65,3.86.64,5.76.62,1.38.05,2.85.48,4.12,1.01,1.88.9,4.03,1.47,5.76,2.65,3.82,2.85,6.36,5.1,10.7,1.45,3.06-2.58,5.48-7.09,9.88-7.39,1.94.13,3.83,1.12,5.76,1.33,2.16.33,4.47.16,6.59-.37,5.12-1.31,10.2-4.3,15.64-3.1,3.63.69,7.13,2.1,10.7,3.02,3.8.87,7.65,2.04,11.52,2.42,4.67,0,9.41.07,13.99-.95,3.27-.64,6.6-1.38,9.88-1.99,3.06-.62,5.99-1.09,8.23,1.65.94-.7,1.62-2.18,2.47-2.97,2.19-1.92,5.09-.27,7.41.47,2.99.47,6.13.35,9.06,1.29,4.13,1.01,8.1,2.88,12.35,3.39"/><path class="b" d="M13.27,148.97c1.87-.48,3.9-.08,5.76.26,1.86-.13,3.45,1.21,4.94,2.13,2.45,1.57,5.28,2.89,8.23,2.96,1.32.04,2.8-.19,4.12,0,2.58.45,5.15,1.53,7.41,2.86,2.15,1.22,4.03,3.36,6.59,3.7,4.22.34,6.41-3.91,9.06-6.43,1.73-1.65,4.1-3.16,6.59-2.92,1.91.31,3.81,1.2,5.76,1.34,2.46.27,5-.26,7.41-.73,1.74-.39,3.31-1.52,4.94-2.17,2.61-.9,5.49-1.36,8.23-.85,4.25.74,8.19,2.7,12.35,3.76,3.51.9,7.13,1.55,10.7,2.15,2.72.07,5.51.24,8.23.25,4.45.02,8.83-1.15,13.17-1.99,1.6-.32,3.33-.68,4.94-.94,1.67-.33,3.59-.18,4.94.97l.82.04c1.75-2.58,3.5-3.39,6.59-2.78,1.27.51,2.73.99,4.12,1.02,3.33-.06,6.69.34,9.88,1.29,3.55.91,7.03,2.41,10.7,2.77"/><path class="b" d="M13.27,146.97c2.17-.12,4.5.23,6.59.79,3.22,1.68,6.25,4.02,9.88,4.79,2.41.69,4.98-.08,7.41.4,1.67.36,3.44.96,4.94,1.8,1.98,1.09,3.8,2.66,5.76,3.77,2.1,1.19,4.69.59,6.59-.73,2.46-2.3,4.32-5.51,7.41-7.06,2.43-1.19,4.93-1.12,7.41-.16,1.57.45,3.33.51,4.94.72,2.23.2,4.6-.18,6.59-1.24,1.41-.68,2.68-1.96,4.12-2.58,2.39-.63,5.01-.73,7.41-.12,2.82.69,5.57,1.86,8.23,3.01,1.3.46,2.83.77,4.12,1.27,3.21.84,6.6,1.09,9.88,1.56,1.87.31,3.87.43,5.76.52,2.44.18,4.97.39,7.41.22,3.59-.31,7.17-1.17,10.7-1.83,2.68-.4,5.73-1.73,8.23-.13,1.24-.32,2.08-1.76,3.29-2.2,1.25-.51,2.81-.56,4.12-.25,1.01.34,2.23.67,3.29.75,3.01.1,6.11-.04,9.06.69,4.13.83,8.14,2.51,12.35,2.91"/><path class="b" d="M13.27,145.19c1.9.05,3.95.28,5.76.86,3.51,1.67,6.84,3.99,10.7,4.8,2.69.66,5.57-.13,8.23.75,2.44.54,4.59,2.04,6.59,3.47,1.66,1.21,3.59,2.63,5.76,2.36,5.96-.67,7.12-8.02,13.17-8.87,2.52-.55,5.01.41,7.41,1.06,5.55,1.39,9.1,0,13.17-3.81.91-.62,2.23-.65,3.29-.72,2.57-.16,5.09.79,7.41,1.8,1.02.24,2.25-.15,3.29.02,2.81.33,5.6,1.24,8.23,2.23,1.63.63,3.35,1.39,4.94,2.12,1.3.25,2.8.22,4.12.36,5.45.46,11,1.58,16.46.76,3.85-.53,7.71-1.36,11.52-2.09.72-.12,1.76-.1,2.47.08,0,0,.82.29.82.29l.82-.1c4.42-3.78,5.91-1.75,10.7-1.43,3.01.03,6.1,0,9.06.62,3.83.73,7.61,2.09,11.52,2.38"/><path class="b" d="M13.27,143.6c1.91.11,3.98.29,5.76,1.05,3.23,1.43,6.42,3.21,9.88,4.05,1.57.42,3.32.47,4.94.53,1.65.12,3.38.56,4.94,1.08,3.01,1.16,5.31,3.75,8.23,5.06,2.58.98,5.29-.49,7.41-1.91,2.19-2.26,4.19-5.27,7.41-6.07,2.46-.62,5.07-.14,7.41.7,3.48,1.07,7.58,1.25,10.7-.89,1.45-.97,2.73-2.47,4.12-3.52,2.74-.76,5.8-.29,8.23,1.18,2.93-1.13,6.1-.36,9.06.33,3.07.73,6.13,1.77,9.06,2.93,1.62.57,3.26,1.5,4.94,1.87,5.77.06,11.5,1.82,17.29,1.17,2.74-.28,5.54-.71,8.23-1.27,2.13-.49,4.47-1.09,6.59-.2,5.12-3.83,6.01-1.99,11.52-1.69,3,.05,6.09.04,9.06.56,3.55.57,7.09,1.66,10.7,1.83"/><path class="b" d="M13.27,142.13c4.98-.09,9.29,2.87,13.99,4.06,3.8.99,7.93.96,11.52,2.71,2.3,1.24,4.31,3.13,6.59,4.41,3.13,1.63,6.46-.67,9.05-2.35,2.11-1.66,3.77-4.32,6.59-4.9,2.45-.49,5.06-.13,7.41.66,3.18.95,6.86,1.2,9.88-.4,1.9-1,3.32-2.87,4.94-4.24,2.44-.67,5.26-.62,7.41.86,2.29-1.36,4.93-.7,7.41-.34,6.51,1.03,12.76,3.33,18.93,5.56,1.55.44,3.35.22,4.94.54,3.8.56,7.67,1.34,11.52,1.14,2.46-.13,4.99-.46,7.41-.94,2.4-.56,4.95-1.1,7.41-.55,4.58-3.34,6.52-1.84,11.52-1.57,3,.1,6.08.09,9.06.51,3.27.41,6.57,1.21,9.88,1.31"/><path class="b" d="M13.27,140.62c4.57.04,8.77,2.33,13.17,3.29,3.88.85,7.9,1.6,11.52,3.28,2.01,1.12,3.84,2.75,5.76,3.99,3,2.05,6.42-.25,9.06-1.85,1.04-.63,2.26-1.41,3.29-2.06.96-.81,2.11-1.79,3.29-2.25,2.63-.87,5.6-.38,8.23.25,5.88,1.55,9.97.69,13.99-4,1.75-.81,3.83-1.34,5.76-1.04.76.15,1.7.69,2.47.8,1.38-1.13,3.32-.58,4.94-.46,2.46.24,4.99.59,7.41,1.11,3.57.81,7.21,1.63,10.7,2.76,2.97.91,5.9,2.39,9.06,2.43,3.29.4,6.58,1.21,9.88,1.5,2.72.23,5.54.01,8.23-.4,2.98-.55,6.01-1.2,9.06-1.17,1.54-.72,3.19-1.62,4.94-1.69,1.89-.14,3.88.17,5.76.32,1.88.15,3.88.17,5.76.24,4.39.12,8.78.92,13.17,1.12"/><path class="b" d="M13.27,139.11c2.5.14,5,.82,7.41,1.45,3.57.88,7.17,1.89,10.7,2.92,1.9.61,3.97,1.12,5.76,2.01,2.3,1.21,4.21,3.28,6.59,4.35,2.67.9,5.2-1.03,7.41-2.29,2.09-1.26,4.33-2.51,6.59-3.46,2.02-1.04,4.39-.99,6.59-.71,1.59.45,3.28,1.1,4.94,1.2,2.49.14,5.13-.36,7.41-1.37,1.09-.59,2.21-1.57,3.29-2.18,1.97-1.2,4.23-2.39,6.59-2.36.77.04,1.69.55,2.47.47,1.5-.79,3.34-.1,4.94-.08,3.58.16,7.2.66,10.7,1.41,3.56.79,7.19,1.57,10.7,2.56,2.18.58,4.37,1.53,6.59,1.97,4.95.45,9.8,2.18,14.82,1.96,4.72-.1,9.34-1.39,13.99-2,1.55-.56,3.29-1.02,4.94-1.08,2.72-.11,5.51.21,8.23.29,4.93.13,9.9.4,14.82.82"/><path class="b" d="M13.27,137.72c6.51.5,12.67,2.92,18.93,4.57,1.65.51,3.48.97,4.94,1.93,1.95,1.1,3.65,2.91,5.76,3.71,2.73.72,5.16-1.36,7.41-2.6,2.04-1.21,4.3-2.24,6.59-2.87,1.84-.5,3.87-.75,5.76-.42,1.33.27,2.78.73,4.12.95,2.71.34,5.59.18,8.23-.55,2.35-.72,4.47-2.2,6.59-3.41,1.71-.93,3.75-2.12,5.76-1.58.45.18,1.22.12,1.65-.09,1.04-.06,2.26.21,3.29.29,2.16.1,4.43.04,6.59.32,2.19.23,4.44.77,6.59,1.24,4.08.93,8.28,1.56,12.35,2.54,1.9.45,3.85,1.14,5.76,1.51,3.03.39,6.04,1.27,9.06,1.76,3.79.65,7.73.54,11.52,0,4.13-.6,8.2-1.87,12.35-2.34,2.99-.22,6.06.04,9.06.08,4.38.05,8.81.13,13.17.52"/><path class="b" d="M13.27,136.41c5.96.23,11.61,2.3,17.29,3.89,1.92.58,4.03,1.04,5.76,2.09,1.97,1.02,3.67,2.75,5.76,3.51,2.74.69,5.14-1.44,7.41-2.64,2.01-1.15,4.3-2,6.59-2.38,3.28-.66,6.63-.11,9.88.43,3.55.12,7.27.09,10.7-.89,2.32-.77,4.45-2.21,6.59-3.37,1.22-.64,2.73-1.31,4.12-.86,1.61-.33,3.33.19,4.94.2,2.44-.04,4.98-.09,7.41.26,2.46.39,4.97,1.02,7.41,1.52,3.79.8,7.71,1.26,11.52,1.92,2.73.51,5.49,1.29,8.23,1.76,2.46.53,4.95,1.31,7.41,1.81,4.05.79,8.3.84,12.35.05,3.83-.71,7.63-2.01,11.52-2.34,2.99-.19,6.06,0,9.06,0,3.82-.02,7.71-.05,11.52.27"/><path class="b" d="M13.27,135.21c2.74.05,5.54.46,8.23.93,3.31.77,6.61,1.84,9.88,2.78,1.99.54,4.01,1.35,5.76,2.44,1.34.75,2.67,1.86,4.12,2.39,2.71.84,5.14-1.22,7.41-2.4,2.01-1.12,4.31-1.86,6.59-2.14,2.99-.41,6.07-.11,9.06.15,2.16.12,4.42-.09,6.59-.08,5.63.05,8.41-1.03,13.17-3.8.97-.48,2.22-.83,3.29-.53,1.6-.25,3.33.26,4.94.16,2.72-.13,5.53-.1,8.23.28,3.29.51,6.59,1.35,9.88,1.87,4.63.81,9.4,1.02,13.99,2.05,3.94.61,7.69,2.12,11.52,3.13,3.75.91,7.74.99,11.52.23,4.64-.97,9.28-2.17,13.99-2.72,5.75.14,11.54-.22,17.29.09"/><path class="b" d="M13.27,134.22c2.18-.18,4.41.3,6.59.28,2.79.16,5.56.98,8.23,1.74,2.18.66,4.49,1.3,6.59,2.2,1.98.81,3.86,2.09,5.76,3.04,2.61,1.14,5.18-.64,7.41-1.86,2.01-1.11,4.29-1.93,6.59-2.14,2.99-.29,6.06-.07,9.06-.1,2.44-.07,4.96-.25,7.41-.14,3.31.12,6.77-.08,9.88-1.31,1.34-.58,2.74-1.43,4.12-1.94.72-.26,1.72-.38,2.47-.22,1.03-.11,2.26.03,3.29.08,2.72-.04,5.51-.03,8.23.06,4.99.14,9.87,1.59,14.82,2.17,4.65.6,9.4.8,13.99,1.83,3.12.67,6.01,2.3,9.06,3.2,3.44,1.06,7.16,1.12,10.7.55,6.26-1.19,12.55-2.44,18.93-2.65,4.1-.2,8.27-.55,12.35.08"/><path class="b" d="M13.27,133.51c1.6-.23,3.34-.21,4.94-.05,1.6-.22,3.34-.23,4.94,0,5.7,1,11.38,2.81,16.46,5.6,2.47,1.48,5.16.36,7.41-.98,1.77-.99,3.74-1.9,5.76-2.19,2.43-.35,4.97-.26,7.41-.38,2.72-.09,5.51-.44,8.23-.34,6.55.47,10.35.41,16.46-2.25,1.83-.52,3.88-.1,5.76-.19,3.55-.08,7.15.15,10.7,0,5.25.16,10.42,1.51,15.64,1.99,4.39.42,8.92.55,13.17,1.83,2.22.84,4.37,2.11,6.59,2.95,3.38,1.32,7.14,1.35,10.7.98,5.74-.79,11.5-1.72,17.29-2.1,4.64-.38,9.35-.77,13.99-.33"/><path class="b" d="M13.27,133.09c1.58-.39,3.32-.53,4.94-.47,1.86-.43,3.86-.64,5.76-.45,2.51.23,5.03.92,7.41,1.74,2.53.58,5.06,1.49,7.41,2.59,3.09,1.8,5.23,1.47,8.23-.24,1.53-.83,3.22-1.67,4.94-2,2.97-.49,6.07-.37,9.06-.76,4.65-.68,9.34-.02,13.99.08,2.18-.07,4.45-.37,6.59-.83,1.32-.35,2.76-.85,4.12-1.06,4.36,0,8.8-.04,13.17.17,2.14-.4,4.42-.51,6.59-.43,5.23.29,10.41,1.49,15.64,1.77,3.6.23,7.29.68,10.7,1.92,2.15,1.07,4.27,2.49,6.59,3.2,4.52,1.3,9.38.69,13.99.23,5.21-.45,10.45-1.09,15.64-1.79,3.53-.47,7.16-.35,10.7-.13"/><path class="b" d="M13.27,132.16c1.63.23,3.32-.08,4.94-.24,1.6-.36,3.29-.89,4.94-.95,2.49-.14,5.04.34,7.41,1.09,2.8.4,5.6,1.25,8.23,2.28,2.64,1.22,4.62,2.03,7.41.63,1.6-.74,3.23-1.75,4.94-2.22,2.12-.57,4.42-.5,6.59-.73,3.53-.43,7.14-.99,10.7-.53,1.88-.26,3.89-.36,5.76-.01,4.93,1.03,9.87-1.41,14.82-.7,3.54.07,7.16,0,10.7.15,2.39-.61,4.94-.97,7.41-1.04,3.58-.05,7.16.6,10.7,1.03,2.71.33,5.52.44,8.23.8,2.47.57,5.05,1.18,7.41,2.1,2.49,1.58,5.23,3.09,8.23,3.29,6.87.55,13.77-.22,20.58-1.08,2.73-.46,5.48-1.25,8.23-1.53,2.72-.22,5.52.19,8.23.36"/><path class="b" d="M13.27,130.13c2.2-.09,4.41.73,6.59.68,1.6-.38,3.28-.93,4.94-.98,1.63-.1,3.35.17,4.94.47,3.36.22,6.69,1.12,9.88,2.15,2.58,1.21,5.69,1.66,8.23.12,1.27-.65,2.71-1.35,4.12-1.66,1.86-.4,3.88-.35,5.76-.57,2.16-.24,4.4-.72,6.59-.71.74,0,1.73.05,2.47.05,1.03-.24,2.24-.53,3.29-.66,1.32-.16,2.81-.1,4.12.19,1.32.3,2.75.84,4.12.84,3.81-.36,7.7-.65,11.52-.24,3.54.25,7.16.19,10.7.19,2.69-.69,5.44-1.58,8.23-1.78,3.57-.29,7.17.4,10.7.83,3.29.44,6.72.41,9.88,1.55,1.88.63,3.91,1.22,5.76,1.94,1.47.97,3.21,1.85,4.94,2.24,2.41.5,4.97.37,7.41.5,3.29.14,6.66.17,9.88-.6,1.86-.38,3.88-.53,5.76-.75,2.16-.57,4.38-1.38,6.59-1.78,3-.66,6.05.49,9.06.43"/><path class="b" d="M13.27,127.83c2.78-.15,5.47,1.23,8.23.97,4.37-.28,8.85-.46,13.17.45,2.22.24,4.51.55,6.59,1.43,3.25.96,6.75-.16,9.88-1.12,2.09-.72,4.41-.62,6.59-.83,2.44-.27,4.94-.75,7.41-.7,2.15-.53,4.34-1.41,6.59-1.4,2.59-.17,4.93,1.27,7.41,1.71,1.32.08,2.79-.1,4.12-.08,2.73,0,5.51.38,8.23.5,2.16.11,4.42-.12,6.59-.03,1.03.04,2.27.13,3.29.26,1.96-.13,3.83-1.41,5.76-1.84,4.26-1.43,8.83-.88,13.17-.17,1.6.23,3.33.49,4.94.68,1.05.07,2.3.18,3.29.55,2.75.83,5.47,2,8.23,2.81,1.22.75,2.71,1.38,4.12,1.64,2.42.37,4.97.17,7.41.36,2.71.08,5.6.52,8.23-.26,2.39-.73,4.92-1.26,7.41-1.46,2.13-.74,4.34-1.66,6.59-1.95,1.62-.23,3.37.07,4.94.45,1.02.01,2.27-.12,3.29-.16"/><path class="b" d="M13.27,125.08c2.87-.12,5.47,1.5,8.23,1.69,2.72.03,5.52,0,8.23.17,1.61.04,3.33.49,4.94.29,1.33-.1,2.81-.03,4.12.24,1.34.28,2.74.91,4.12,1.04,1.9.18,3.89-.17,5.76-.46,2.97-.5,6.04-.81,9.06-.89,1.89-.12,3.87-.47,5.76-.57,4.71-1.21,8.18-3.26,13.17-1.23,1.29.53,2.72,1.19,4.12,1.36,1.88.16,3.88.13,5.76.31,1.88.14,3.87.35,5.76.32,1.61,0,3.33-.32,4.94-.33,2.44-.1,4.98.45,7.41.25,9.5-5.12,13.32-2.69,23.05-1.46,2.82.53,5.5,1.91,8.23,2.75.72.23,1.74.5,2.47.67.96.52,2.21.96,3.29,1.12,2.15.28,4.42-.01,6.59.06,2.44.06,4.97.27,7.41.03,2-.04,3.88-1.02,5.76-1.56,1.01-.29,2.26-.54,3.29-.72,1.56-.58,3.29-1.17,4.94-1.44,1.31-.21,2.82-.19,4.12.09,1.56-.46,3.33-.51,4.94-.68"/><path class="b" d="M13.27,121.72c2.95.12,5.48,1.96,8.23,2.79,2.72.29,5.52.49,8.23.78,1.91.39,3.87,0,5.76-.25,1.33-.13,2.81-.09,4.12.19,1.31.33,2.75.81,4.12.85,3.55.06,7.14-.57,10.7-.47,3.28,0,6.71.07,9.88-.89,1.64-.45,3.3-1.24,4.94-1.67,2.12-.52,4.45-.65,6.59-.16,1.95.48,3.8,1.58,5.76,2.02,4.58.91,9.42,1.16,13.99.11,3.54-.9,7.17.78,10.7.5,1.97-.7,3.74-2.16,5.76-2.81,4.8-1.9,10.01-.43,14.82.7,2.85.35,5.55,1.51,8.23,2.47,2.13.75,4.45,1.21,6.59,1.93,2.69.57,5.52,0,8.23-.05,5.04.02,10.07-.89,14.82-2.56,4.55-1.26,9.27-2.16,13.99-2.38"/><path class="b" d="M13.27,118.26c3.1.23,5.58,2.39,8.23,3.75,2.7.64,5.5,1.23,8.23,1.7,2.46-.01,4.96-.65,7.41-.9,1.64-.17,3.36.15,4.94.57,2.96.63,6.06.17,9.06.32,3.54.09,7.18.6,10.7.03,2.55-.4,4.97-1.55,7.41-2.31,2.38-.65,4.99-.85,7.41-.36,1.65.35,3.33,1.09,4.94,1.58,1.88.5,3.88.96,5.76,1.46,3.08.04,6.18-.58,9.06-1.65,2.43-.86,5.05-.21,7.41.56,2.31.6,3.72,1.49,5.76-.34,5.68-4.37,10.75-4.11,17.29-1.95,4.18,1,8.19,2.71,12.35,3.77,1.88.41,3.82,1.16,5.76,1.18,3.01-.04,6.07-.5,9.06-.88,3.87-.6,7.75-1.5,11.52-2.5,4.15-1.75,8.7-2.37,13.17-2.33"/><path class="b" d="M13.27,115.46c2.84.02,5.3,1.77,7.41,3.5,2.12.96,4.4,1.79,6.59,2.58.48.2,1.18.19,1.65-.02.45-.03,1.24-.25,1.65-.44,1.27-.5,2.76-.79,4.12-.79,1.05,0,2.28.16,3.29.42.74-.09,1.73-.13,2.47-.06,2.7.53,5.48.85,8.23.87,4.1.19,8.23,1.2,12.35.79,2.83-.29,5.55-1.42,8.23-2.31,2.63-.79,5.51-1.08,8.23-.68,3.03.59,6.09,1.37,9.05,2.23.73.22,1.74.52,2.47.75,1.66-.11,3.4-.62,4.94-1.21,2.11-.83,4.23-2.18,6.59-1.96,2.95.2,5.38,2.33,8.23,2.92,2.02-1.17,3.65-3.16,5.76-4.23,4.66-2.72,10.14-.81,14.82.87,3.8,1.24,7.64,2.59,11.52,3.55,1.87.43,3.82,1.12,5.76,1.14,3.89-.02,7.75-.94,11.52-1.79,1.6-.36,3.33-.75,4.94-1.04,1.07-.16,2.35-.34,3.29-.9,3.8-1.92,8.15-2.29,12.35-2.07"/><path class="b" d="M13.27,113.62c2.47-.44,4.8.57,6.59,2.25,2.17,1.21,4.47,2.41,6.59,3.71.47-.02,1.25-.32,1.65-.56,1.12-.31,2.26-1.03,3.29-1.53,2.62-1.06,5.64-.69,8.23.28,2.27,1.08,4.94,1.13,7.41,1.44,2.47.18,4.98.64,7.41,1.09,8.04,1.61,10.85-.62,18.11-2.28,4.91-.83,10.05-.15,14.82,1.17,1.31.25,2.78,1.09,4.12.74,3.41-.9,6.19-4.03,9.88-3.72,3.13.26,5.34,2.97,8.23,3.91,1.78-1.22,3.18-3.15,4.94-4.4,4.33-3.55,10.15-1.64,14.82.15,3.76,1.42,7.65,2.62,11.52,3.67,2.43.59,4.92,1.43,7.41,1.66,3.62.21,7.2-.85,10.7-1.64,1.86-.43,3.86-.81,5.76-.98,1.3-.67,2.75-1.43,4.12-1.96,3.1-1.28,6.58-1.27,9.88-1.08"/><path class="b" d="M13.27,112.52c2.07-.78,4.03-.89,5.76.68,2.41,1.05,4.51,2.79,6.59,4.35.67-.65,1.62-1.41,2.47-1.8.48-.12,1.27-.59,1.65-.9,3.97-2.87,9.18-.66,13.17,1.08,1.2.76,2.76.81,4.12,1.02,1.62.21,3.35.5,4.94.88,7.21,1.92,10.93,1.98,18.11-.13,6.11-1.7,12.73-2.31,18.93-.79,1.02.21,2.26.45,3.29.59.79-.22,1.77-.77,2.47-1.19,2.83-1.8,5.55-3.93,9.06-2.33,2.04,1.02,3.75,2.83,5.76,3.91,7.92-7.6,9-8.45,19.76-4.81,5.13,1.83,10.33,3.59,15.64,4.85,5.89,1.63,8,1.69,13.99.38,1.85-.51,4.05-.35,5.76-1.22,4.92-2.62,8.33-3.77,13.99-3.26"/><path class="b" d="M13.27,111.59c1.21-.66,2.7-1.54,4.12-1,.97.61,2.33.89,3.29,1.53,1.15.73,2.35,1.84,3.29,2.82l.82-.05c1.03-1.36,2.6-2.28,4.12-2.98,1.11-.95,2.66-1.42,4.12-1.29,3.65.33,7.22,1.64,10.7,2.74,1.06.35,2.23,1.01,3.29,1.34,1.04.16,2.27.39,3.29.62,5.11,1.28,10.3,3.14,15.64,2.3,6.11-.72,11.98-2.88,18.11-3.46,3.28-.21,6.6.58,9.88.55,3.09-1.76,6.02-4.97,9.88-3.23,2.13.98,3.63,3.15,5.76,4.1,6.96-9.88,9.14-7.96,19.76-5.07,6.02,1.84,11.96,4.07,18.11,5.46,1.89.4,3.86.95,5.76,1.28,2.16.3,4.43.09,6.59-.15,3.19-.2,6.12-1.84,9.06-2.97,3.09-1.38,6.51-1.97,9.88-1.61"/><path class="b" d="M13.27,110.31c1.15-.85,2.67-1.72,4.12-1.07,2.37.3,4.3,2.03,5.76,3.82,1-1.02,2-2.42,3.29-3.11.74-.37,1.81-.72,2.47-1.24,3.28-1.19,6.7.87,9.88,1.61,2.4.69,4.99.86,7.41,1.47.76.2,1.76.58,2.47.93,2.17.56,4.45,1.09,6.59,1.76,6.2,2.06,11.71,2.31,18.11,1.11,3.64-.64,7.09-2.23,10.7-2.96,3.24-.6,6.61-.3,9.88-.57,1.61.09,2.86-1.21,4.12-2.02,4.71-2.83,7.26.47,10.7,3.3,1.34-1.14,2.18-3.15,3.29-4.51,1.52-2.19,3.86-3.65,6.59-3.03,2.47.47,4.95,1.26,7.41,1.79,10.23,2.18,20.08,6.25,30.46,7.67,3.62.28,7.28-.46,10.7-1.62,3.7-1.26,7.54-2.76,11.52-2.21"/><path class="b" d="M13.27,108.58c1.62-1.28,3.97-1.06,5.76-.27,1.22.54,2.09,1.95,3.29,2.47,1.08-1.84,2.84-3.35,4.94-3.85,3.09-1.69,8.86,2.5,12.35,2.95,2.69.6,5.51.11,8.23.29,1.08.11,2.34.44,3.29.99,2.75.61,5.51,1.48,8.23,2.22,2.67.67,5.48,1.3,8.23,1.41,3.31-.14,6.57-1.26,9.88-1.44,1.09.03,2.31-.16,3.29-.67,1.29-.53,2.76-1.08,4.12-1.42,3.21-.84,6.62-.98,9.88-1.56.4-.06,1.25-.19,1.65-.26.71-.49,1.69-1.18,2.47-1.54,3.89-1.86,6.3.98,9.06,3.29,1.2-.55,1.75-2.46,2.47-3.49,2.53-4.33,4.38-5.01,9.06-3.23,5.34,1.83,11.07,2.09,16.46,3.69,5.18,1.29,10.41,2.57,15.64,3.67,1.88.41,3.87.84,5.76,1.2,2.16.23,4.44.15,6.59-.14,4.97-.61,9.73-3.09,14.82-2.59"/><path class="b" d="M13.27,106.7c2.73-.94,5.62-.19,7.41,2.11.55-.21,1.34-1.07,1.65-1.56.64-.66,1.6-1.4,2.47-1.71,1.68-.65,3.3-.86,4.94.02,1.89.82,3.9,1.65,5.76,2.54,2.29,1.04,4.89,1.55,7.41,1.35,2.73-.16,5.49-1.2,8.23-.72.81.13,1.8.59,2.47,1.05,2.18.42,4.44.97,6.59,1.56,1.93.4,3.88,1.1,5.76,1.64,2.16.55,4.46.08,6.59-.39,2.14-.45,4.4-.85,6.59-.88.73-.02,1.75.03,2.47-.13,1.57-.68,3.3-1.32,4.94-1.81,2.95-.87,6.06-1.39,9.06-2.06.4-.08,1.25-.24,1.65-.33.36-.27,1.23-.73,1.65-.91,3.47-1.56,5.76.87,8.23,2.97,1.5-1.09,2.16-3.73,3.29-5.24,2.56-4.02,4.65-2.39,8.23-1.08,2.62.99,5.46,1.51,8.23,1.85,1.88.29,3.92.33,5.76.8,3.51.93,7.13,1.69,10.7,2.35,3.82.73,7.7,1.42,11.52,2.09,2.7.42,5.48,1.1,8.23.94,5.29-.18,10.34-2.18,15.64-2.26"/><path class="b" d="M13.27,105.17c3.07-.53,4.21.19,6.59,1.93,1.45-2.46,4.56-4.2,7.41-3.36,2.69,1.28,5.46,2.6,8.23,3.69,2.33.89,4.93,1.22,7.41.93,3.79-.29,7.85-2.75,11.52-.84.44.24,1.26.81,1.65,1.13.73.17,1.74.26,2.47.38,1.32.25,2.8.48,4.12.74,1.34.43,2.76,1.12,4.12,1.51,2.13.64,4.45.27,6.59-.14,2.14-.39,4.41-.68,6.59-.75.73-.03,1.74-.05,2.47-.12,1.32-.49,2.79-1.08,4.12-1.55,2.93-1.04,6.04-1.75,9.06-2.47,1.17-.15,2.23-.58,3.29-1.08,3-1.2,5.3,1.1,7.41,2.91,1.77-2.41,2.57-5.83,4.94-7.78,2.21-1.38,4.45.96,6.59,1.47,2.61.99,5.48,1.34,8.23,1.7,1.6.2,3.33.37,4.94.51,2.98.75,6.03,1.55,9.06,2.09,5.99,1.08,12.08,1.74,18.11,2.56,4.08.57,8.28.82,12.35.02,2.73-.61,5.43-1.69,8.23-1.95"/><path class="b" d="M13.27,103.76c1.76-.19,3.62.46,4.94,1.62.8-.55,1.64-1.58,2.47-2.09,1.69-.89,3.95-1.46,5.76-.66,1.06.49,2.24,1.21,3.29,1.71,1.3.56,2.81,1.03,4.12,1.56,2.85,1.1,6.02,1.52,9.06,1.08,6.19-.92,10.19-4.54,15.64.79,1.33-.02,2.79-.5,4.12-.14,1.67.43,3.29,1.39,4.94,1.88,1.83.58,3.87.58,5.76.36,2.98-.4,6.06-.58,9.06-.82,3.01-.92,5.99-2.18,9.06-2.93,1.87-.46,3.84-1.07,5.76-1.32,1.27-.48,2.78-.87,4.12-.44.83.26,1.82.9,2.47,1.46.34.38,1.08.85,1.65.82,1.48-2.32,3.32-8.73,6.59-8.4,1.96.59,3.73,1.96,5.76,2.4,3.48.92,7.15,1.24,10.7,1.72,1.66.05,3.35.56,4.94,1,2.15.56,4.41,1.06,6.59,1.47,5.15.97,10.43,1.36,15.64,1.83,4.36.37,8.8.98,13.17.53,3.34-.35,6.56-1.63,9.88-2.08"/><path class="b" d="M13.27,102.57c1.1.15,2.35.61,3.29,1.21.49-.17,1.29-.76,1.65-1.14.92-.69,2.16-1.19,3.29-1.36,2.99-.59,4.07.18,6.59,1.54,1.77.93,3.87,1.32,5.76,1.92,3.73,1.11,7.79,1.13,11.52.05,5.82-1.74,7.12-2.79,13.17-.54.74.27,1.74.66,2.47.96,1.35.22,2.86.46,4.12,1.06,3.76,1.91,7.38,2.26,11.52,1.82,1.88-.18,3.9-.19,5.76-.53,2.22-.4,4.43-1.25,6.59-1.87,1.59-.47,3.33-.91,4.94-1.3,1.3-.31,2.77-.74,4.12-.57,2.13-.5,4.24.6,5.76,2.03,2.16-2.32,4.18-10.72,8.23-8.86,2.29,1.35,4.76,2.3,7.41,2.62,3.55.52,7.16,1.05,10.7,1.56,3.5,1.02,7.11,1.91,10.7,2.58,6.23,1.19,12.62,1.33,18.93,1.74,3.27.19,6.61.41,9.88.11,3.04-.3,6.05-1.2,9.06-1.71"/><path class="b" d="M13.27,101.88c.4.15,1.23.42,1.65.53,1.58-1.39,3.67-2.22,5.76-2.33,1.04-.04,2.28-.27,3.29.05,1.36.51,2.77,1.32,4.12,1.87,1.27.53,2.77.79,4.12,1.03,2.14.46,4.39.89,6.59.9,3.39.11,6.68-.97,9.88-1.95,2.42.42,4.96.5,7.41.52,2.76.04,5.58.44,8.23,1.21,2.95.97,5.9,2.35,9.06,2.47,4.68.22,9.47-.02,13.99-1.28,2.98-.76,6.03-1.55,9.06-2.13,1.97-.24,4,.44,5.76,1.25,1.72-2.13,2.97-4.9,4.94-6.86.99-1.26,2.44-2.47,4.12-1.71,1.06.46,2.22,1.2,3.29,1.62,2.1.68,4.41.9,6.59,1.23,2.72.43,5.51.87,8.23,1.31,4.59,1.31,9.27,2.54,13.99,3.31,5.43.9,10.98.94,16.46,1.15,3.54.12,7.16.32,10.7.07,2.74-.22,5.53-.79,8.23-1.28"/><path class="b" d="M13.27,100.27c2.83-1.27,6.01-1.37,9.05-1.45,1.96.49,3.82,1.61,5.76,2.17,1.83.57,3.88.59,5.76.86,4.11.62,8.4.4,12.35-.95,5.55,2.14,11.52.89,17.29.94,1.95,0,3.92.49,5.76,1.09,1.85.52,3.85.87,5.76,1.01,1.88.1,3.88.24,5.76.24,2.74-.1,5.54-.56,8.23-1.09,2.45-.46,4.95-1.12,7.41-1.51,1.33-.18,2.8.18,4.12.27,3.2-4.32,6.05-10.77,12.35-6.76,2.53,1.24,5.51,1.17,8.23,1.69,2.44.41,4.97.82,7.41,1.26,5.15,1.43,10.35,2.93,15.64,3.73,5.7.91,11.53.83,17.29.96,5.78.11,11.77.46,17.29-1.59"/><path class="b" d="M13.27,97.98c1.88-.15,3.88-.22,5.76-.25,1.04-.04,2.29-.11,3.29.22,1.89.6,3.82,1.47,5.76,1.89,2.13.49,4.42.33,6.59.51,3.59.37,7.2-.06,10.7-.82,7.46,3.65,13.76,1.29,21.4.87,1.92-.07,3.88.5,5.76.82,2.98.42,6.04.9,9.06.88,3.29-.1,6.63-.6,9.88-1.09,2.16-.32,4.38-.98,6.59-.89,2.16-1.84,3.55-4.63,5.76-6.41,2.9-2.17,6.85-.86,9.88.37,2.37.73,4.98.69,7.41,1.18,4.16.63,8.31,1.53,12.35,2.74,8,2.41,16.36,3.3,24.7,3.28,4.1.09,8.26.52,12.35-.01,2.78-.32,5.66-.62,8.23-1.81"/><path class="b" d="M13.27,96.43c2.44.16,4.99-.14,7.41.24,2.49.43,4.91,1.5,7.41,1.89,2.42.43,4.97.12,7.41.2,1.88.04,3.89.05,5.76-.17,1.34-.1,2.78-.57,4.12-.62,6.66,3.75,13.51,2.43,20.58.97,3.01-.62,6.08-.08,9.06.41,6.56,1.08,13.23.26,19.76-.65,3.06-1.33,4.77-4.54,7.41-6.43,3.23-2.02,7.23-.06,10.7.24,3.5.85,7.18.94,10.7,1.7,5.02.78,9.87,2.5,14.82,3.6,4.58,1.02,9.32,1.39,13.99,1.76,1.6.12,3.34.2,4.94.23,2.4.52,4.95.75,7.41.66,4.74-.03,9.44-1.22,13.99-2.43"/><path class="b" d="M13.27,95.13c3.02,0,6.1.22,9.05.83,3.23.73,6.54,1.61,9.88,1.36,2.71-.25,5.51-.16,8.23-.29,1.04-.06,2.26-.2,3.29-.37.75-.12,1.71-.43,2.47-.25,2.27,1.22,4.83,2.13,7.41,2.38,3.58.35,7.22-.23,10.7-1.03,3.47-.91,7.14-1.32,10.7-.66,3.8.51,7.7.64,11.52.36,2.48-.15,5.12-.33,7.41-1.4,3.06-1.4,4.92-4.84,8.23-5.76,2.99-.52,6.07.47,9.06.72,4.66.61,9.37,1.18,13.99,2.04,4.7.89,9.3,2.42,13.99,3.33,4.62.71,9.35,1.02,13.99,1.56,1.08,0,2.29.34,3.29.74,1,.31,2.25.58,3.29.71,2.99.31,6.11.16,9.06-.41,3.34-.69,6.59-2.01,9.88-2.88"/><path class="b" d="M13.27,93.87c3.28.08,6.62.6,9.88,1,2.44.34,4.94.91,7.41.97,2.17.09,4.42-.31,6.59-.34,3.28-.04,6.68-.02,9.88-.88,7.34,3.89,13.76,2.31,21.4.68,2.98-.58,6.06-.4,9.06-.06,2.99.17,6.07.16,9.05-.05,2.2-.2,4.57-.43,6.59-1.42,2.35-1.13,4.19-3.28,6.59-4.33,2.9-1.12,6.09-.22,9.06.1,5.23.45,10.48,1.14,15.64,2.08,4.71.73,9.34,2.06,13.99,3.01,4.36.6,8.81.82,13.17,1.41,1.41.29,2.74,1.31,4.12,1.72,2.33.87,4.94,1.12,7.41.93,5.56-.1,10.5-2.88,15.64-4.61"/><path class="b" d="M13.27,92.58c4.1.36,8.25.75,12.35,1.16,3.26.38,6.61.78,9.88.29,4.37-.47,8.9.17,13.17-1.12,8.16,4.22,16.28.74,24.7.24,6.55-.17,13.65,1.16,19.76-1.83,2.15-1.16,4.13-2.95,6.59-3.46,2.99-.59,6.05.51,9.06.56,2.16.18,4.46.03,6.59.44,2.15.43,4.43.67,6.59,1.05,1.88.35,3.86.78,5.76,1.02,5.22.78,10.37,2.22,15.64,2.59,1.88.17,3.88.35,5.76.51,2.22.9,4.26,2.48,6.59,3.17,4.27,1.42,8.99.44,13.17-.83,3.36-1.23,6.5-3.15,9.88-4.31"/><path class="b" d="M13.27,91.31c2.15-.26,4.42.35,6.59.43,4.64.33,9.34.81,13.99.79,2.17-.1,4.41-.53,6.59-.47,3.3.07,6.65-.12,9.88-.86,8.45,3.51,17.6.16,26.34.28,4.97.23,10.11.26,14.82-1.61,2.95-1.19,5.68-3.63,9.06-3.24,2.16.18,4.41.57,6.59.6,2.44.11,4.98-.17,7.41.13,2.42.53,4.97.82,7.41,1.26,3.24.71,6.58,1.24,9.88,1.6,3.02.32,6.05,1.02,9.06,1.43,1.31.16,2.8.32,4.12.43.78.05,1.83.09,2.47.62,4.01,2.24,8.37,4.98,13.17,4.1,3.06-.56,6.07-1.67,9.06-2.52,3.02-1.36,5.92-3.19,9.06-4.29"/><path class="b" d="M13.27,90.08c2.43-.64,4.96-.03,7.41.14,3.27.27,6.6.47,9.88.54,3.01.08,6.07-.17,9.06-.51,2.16-.11,4.42-.02,6.59-.1,1.33-.06,2.8-.28,4.12-.5.76-.15,1.74-.36,2.47.02,6.19,1.52,12.65.87,18.93.49,4.09-.39,8.27.16,12.35-.33,2.8-.38,5.61-1.2,8.23-2.24,2.3-1.13,4.79-2.21,7.41-1.83,4.64.65,9.34.17,13.99.14,3.24.76,6.62,1.1,9.88,1.75,2.95.77,6.06.9,9.06,1.39,3.54.48,7.14,1.05,10.7,1.39,3.06,1.41,5.92,3.41,9.06,4.64,5.33,1.97,9.22,0,13.99-2.25,1.53-.69,3.29-1.19,4.94-1.49,2.42-1.19,4.86-2.62,7.41-3.52"/><path class="b" d="M13.27,88.82c1.85-.38,3.88-.7,5.76-.42,3.01.26,6.02,1.11,9.06,1.03,3-.12,6.07-.36,9.06-.7,2.97-.52,6.05-.55,9.06-.51,3.01.1,6.08-.97,9.06-.4,5.98.92,12.08.87,18.11.71,3.55-.13,7.19.23,10.7-.4,3.34-.66,6.68-1.65,9.88-2.79,2.1-.71,4.41-.57,6.59-.43,4.11.28,8.25-.27,12.35-.45,3.26.61,6.6,1.18,9.88,1.69,3.25.65,6.58,1.18,9.88,1.5,2.41.59,5.03.6,7.41,1.28,3.49,1.06,6.52,3.3,9.88,4.66,3.75,1.53,7.88.34,11.52-.95,1.89-1.07,3.81-2.38,5.76-3.34,1.75-.91,3.81-1.33,5.76-1.48,1.86-.83,3.81-1.8,5.76-2.41"/><path class="b" d="M13.27,87.51c1.31-.3,2.78-.5,4.12-.57,2.5.28,4.92,1.28,7.41,1.63,5.62.94,11.02-1.26,16.46-2.22,2.15-.29,4.42-.1,6.59-.16,4.1-.27,8.27-.51,12.35.07,4.63.5,9.34.73,13.99.73,2.72-.02,5.53.11,8.23-.27,1.63-.22,3.37-.62,4.94-1.1,1.31-.3,2.82-.45,4.12-.83,2.91-.93,6.02-1.03,9.06-.94,3.83,0,7.7-.45,11.52-.7.75-.1,1.74.18,2.47.33,1.31.26,2.79.52,4.12.74,4.39.62,8.78,1.52,13.17,2.07,1.33.13,2.83.21,4.12.6.67.44,1.69.93,2.47,1.14,3.43.95,6.47,3.05,9.88,4.04,3.67,1.13,7.35-.66,10.7-2.02,1.59-.65,3.33-1.34,4.94-1.93,1.34-.73,2.71-1.79,4.12-2.41,1.75-.89,3.83-1.09,5.76-1.14,1.58-.55,3.3-1.19,4.94-1.55"/><path class="b" d="M13.27,86.13c1.09-.31,2.25-.35,3.29.12,1.31.4,2.77.79,4.12,1.04,8.61,1.66,12.57-.22,20.58-2.56,2.38-.73,4.95-.59,7.41-.62,2.72-.12,5.51-.07,8.23.13,3.29-.07,6.61.35,9.88.7,4.09.39,8.25.56,12.35.41,2.78-.06,5.54-.78,8.23-1.37,2.19-.04,4.43-.54,6.59-.9,2.15-.35,4.42-.36,6.59-.46,3.83-.17,7.7-.55,11.52-.8,2.73.28,5.5,1.04,8.23,1.38,2.16.35,4.42.62,6.59.92,2.15.41,4.39.9,6.59,1.01,1.22.8,2.67,1.63,4.12,1.91,8.9,2.77,9.85,5.85,18.93.06,2.32-1.32,4.85-2.45,7.41-3.21,1.92-.5,3.92-1.11,5.76-1.86,1.28-.4,2.79-.42,4.12-.49,1.59-.33,3.32-.72,4.94-.9"/><path class="b" d="M13.27,84.93c10.27,4.35,18.01,1.42,27.99-1.66,2.38-.77,4.91-1.2,7.41-1.13,2.45-.05,4.98-.03,7.41.29,2.16.24,4.42.14,6.59.2,4.63.55,9.32,1.21,13.99,1.14,3.32,0,6.66-.55,9.88-1.3,3.02.21,6.07-.42,9.06-.77,5.47-.5,10.99-.88,16.46-1.25,2.46.3,4.96.95,7.41,1.32,3.81.7,7.75.87,11.52,1.73,1.18.04,2.19,1.15,3.29,1.5,1.89.59,3.98.86,5.76,1.79,11.06,5.25,13.32-5.51,23.87-7.37,4.86-.87,9.89-.92,14.82-1.1"/><path class="b" d="M13.27,84.74c3.41,1.19,7.09,1.92,10.7,1.52,5.89-.79,11.6-2.79,17.29-4.44,4.75-1.63,9.87-1.91,14.82-1.15,2.43.35,4.96.28,7.41.28,4.09.47,8.22,1.15,12.35,1.14,3.3-.03,6.65-.48,9.88-1.17,4.4.3,8.8-.41,13.17-.85,4.64-.37,9.34-.98,13.99-.96,5.16,1.09,10.38,2.07,15.64,2.56.75.1,1.79.22,2.47.58.96.62,2.19,1.26,3.29,1.57,3.07.48,5.86,2.49,9.06,2.22,3.94-.07,7.07-2.95,9.88-5.4,2.95-2.76,6.55-5.19,10.7-5.46,4.94-.28,9.9.59,14.82.94"/><path class="b" d="M13.27,84.29c5.84,1.81,11.59.84,17.29-.93,3.81-1.12,7.75-2.02,11.52-3.28,4.79-1.5,9.86-1.97,14.82-1.08,2.43.37,4.97.2,7.41.29,4.09.45,8.22,1.17,12.35,1.04,3.01-.17,6.08-.61,9.06-1.11,2.16.17,4.42.18,6.59.08,6.57-.6,13.16-1.34,19.76-1.68,2.47.07,4.97.95,7.41,1.33,3.24.69,6.59,1.12,9.88,1.5,1.11.36,2.19,1.3,3.29,1.7,1,.38,2.28.55,3.29.92,3.11,1.31,5.98,1.16,9.06-.2,3.52-1.63,6.19-4.69,9.06-7.22,2.45-2.32,5.59-4.18,9.06-4.18,5.3-.04,10.45,1.7,15.64,2.53"/><path class="b" d="M13.27,83.53c5.26,1.14,10.57-.1,15.64-1.5,3.26-.85,6.61-1.64,9.88-2.47,1.61-.45,3.31-1.07,4.94-1.48,1.61-.31,3.33-.68,4.94-.99,2.44-.44,4.96.19,7.41.07,1.6.15,3.33.38,4.94.39,1.32.06,2.8-.11,4.12.06,4.9.54,9.9,1.4,14.82.59,1.88-.22,3.88-.44,5.76-.68,2.44.11,4.97.08,7.41.02,5.48-.31,10.98-.9,16.46-1.19,1.32-.07,2.8-.17,4.12-.2,2.17.43,4.42.93,6.59,1.39,1.87.4,3.87.77,5.76,1.06,1.04.2,2.34.18,3.29.68,1.42,1.04,3.19,1.81,4.94,2.06,1.02.26,2.24.63,3.29.76,3.61.32,7.1-1.93,9.88-4.01,3.12-2.53,5.74-5.8,9.06-8.1,6.9-4.21,15.17.33,22.23,1.96"/><path class="b" d="M13.27,82.36c4.48.51,8.89-.61,13.17-1.78,2.98-.71,6.06-1.27,9.06-1.92,3.36-.5,6.54-1.93,9.88-2.51,1.35-.12,2.78-.58,4.12-.74,1.32-.11,2.8.05,4.12.13,3.56-.09,7.14.45,10.7.29,3.28.11,6.59.76,9.88.86,4.12.18,8.23-.81,12.35-.89,9.6-.12,19.21-.73,28.81-1.05,2.73.52,5.51,1.25,8.23,1.82,1.93.49,4.18.38,5.76,1.76,1.44.97,3.25,1.42,4.94,1.66,1.3.29,2.79.52,4.12.33,5.24-1.24,9.47-5.28,13.17-8.98,1.96-1.89,3.98-4.11,6.59-5.08,7.06-2.32,14.04,1.47,20.58,3.76"/><path class="b" d="M13.27,80.81c4.22.1,8.3-1.21,12.35-2.21,4.07-.87,8.26-1.34,12.35-2.13,1.92-.41,3.86-1.14,5.76-1.61,1.87-.42,3.88-.68,5.76-1.03,2.16-.17,4.42.22,6.59.06,2.16-.04,4.41.43,6.59.34,4.4-.33,8.77.7,13.17.69,1.9.03,3.88-.36,5.76-.53,2.44-.21,4.97-.19,7.41-.2,3.01-.02,6.08-.19,9.06-.66,3.55.13,7.15.1,10.7.01,2.99-.05,6.06-.01,9.06-.08,1.63.23,3.34.71,4.94,1.09,1.31.34,2.81.62,4.12.97.37.33,1.23.94,1.65,1.22,1.43.96,3.22,1.54,4.94,1.65,1.59.25,3.36.4,4.94-.03,2.07-.59,3.98-1.88,5.76-3.05,3.08-1.87,5.7-4.5,8.23-7.05,4.07-4.32,7.21-5.49,13.17-4.87,4.7.54,8.87,3.06,13.17,4.83"/><path class="b" d="M13.27,78.93c4.77-.25,9.29-2.12,13.99-2.79,3.82-.56,7.73-.86,11.52-1.56,2.72-.68,5.44-1.66,8.23-2,4.62-.93,9.35-.23,13.99.06,3,.16,6.07-.4,9.06.1,2.43.26,4.96.5,7.41.38,1.61-.08,3.32-.44,4.94-.5,3.27-.16,6.6.22,9.88.21,3.3.09,6.65-.44,9.88-1.07,3.54.08,7.15.3,10.7.36,2.16.07,4.42.15,6.59.15,1.34-.08,2.82.03,4.12.43.4.1,1.25.29,1.65.39.43.29,1.26.94,1.65,1.29,1.81,1.56,4.19,2.47,6.59,2.45,1.92.19,4-.01,5.76-.83,4.48-2.31,8.76-5.25,12.35-8.8,3.69-3.6,5.98-5.97,11.52-5.94,5.72-.32,10.72,2.83,15.64,5.29"/><path class="b" d="M13.27,76.8c3.62-.41,7.15-1.55,10.7-2.27,2.97-.57,6.05-.8,9.06-1.11,1.89-.18,3.9-.23,5.76-.6,3.26-.76,6.52-1.9,9.88-2.16,4.96-.64,9.87.74,14.82.48,1.89.01,3.89-.44,5.76-.26,2.99.37,6.01,1.25,9.06.97,2.17-.19,4.4-.84,6.59-.82,3.82.16,7.69.71,11.52.46,1.9-.12,3.9-.41,5.76-.77,1.59-.26,3.31-.83,4.94-.53,3.82.37,7.7.62,11.52.82,1.03.05,2.26.08,3.29.07.75-.01,1.78-.14,2.47.25,1.87,1.17,3.56,2.94,5.76,3.53,2.68.57,5.68.44,8.23-.59,2-.86,3.93-2.15,5.76-3.31,2.28-1.39,4.61-2.93,6.59-4.73,4.51-3.96,6.54-7.02,13.17-6.8,2.51,0,5.11.52,7.41,1.55,2.52,1.07,4.81,2.84,7.41,3.73"/><path class="b" d="M13.27,74.52c2.76-.45,5.49-1.37,8.23-1.91,2.69-.55,5.5-.84,8.23-1.02,2.72-.22,5.53-.24,8.23-.6,3.01-.53,6.02-1.48,9.06-1.88,3.83-.42,7.73-.03,11.52.47,2.44.24,4.97.02,7.41-.09,1.32.09,2.84-.15,4.12.27,2.66.72,5.46,1.37,8.23,1.28,3.54-.38,7.14-.87,10.7-1.15,3.27.1,6.61.54,9.88.14,3.03-.27,6.06-1.02,9.06-1.53,4.36.54,8.77,1.13,13.17,1.3,1.16-.11,2.27.82,3.29,1.25,1.29.64,2.76,1.32,4.12,1.8,3.15,1.14,6.84.75,9.88-.55,3.4-1.69,6.64-3.83,9.88-5.8,2-1.38,3.94-3.07,5.76-4.67,1.47-1.27,3.06-2.76,4.94-3.4,3.72-1.08,7.91-.84,11.52.53,1.38.55,2.84,1.38,4.12,2.15,1.33.51,2.8,1.18,4.12,1.74"/><path class="b" d="M13.27,71.84c2.67-.83,5.44-1.65,8.23-1.96,5.18-.58,10.46-.36,15.64-.98,3.28-.45,6.57-1.3,9.88-1.57,4.13-.2,8.25.49,12.35.86,3.27.01,6.6.37,9.88.22,2.43.61,4.89,1.48,7.41,1.66,2.18.25,4.43-.16,6.59-.38,2.99-.28,6.08-.39,9.06-.82,1.02-.23,2.26-.15,3.29-.1,1.61.04,3.34-.04,4.94-.2,3.03-.3,6.06-1.06,9.05-1.6,1.61.22,3.33.58,4.94.78,1.6.22,3.33.42,4.94.55,2.14.86,4.36,1.83,6.59,2.44,3.7,1.04,7.87,1.26,11.52-.05,2.69-1.01,4.99-2.95,7.41-4.44,2.76-1.62,5.53-3.38,8.23-5.09,1.57-1.28,3.17-2.82,4.94-3.82,3.28-1.55,7.25-1.27,10.7-.44,1.39.38,2.84,1.1,4.12,1.74,1.98.57,3.91,1.6,5.76,2.48"/><path class="b" d="M13.27,68.72c6.06-2.24,12.63-1.2,18.93-1.74,4.12-.27,8.24-.97,12.35-1.4,2.44-.19,4.98.02,7.41.23,5.47.56,10.95,1.64,16.46,1.39,1.09-.16,2.28.36,3.29.67,1.57.48,3.31.86,4.94,1.02,3,.34,6.06-.22,9.06-.35,2.44-.15,4.98-.27,7.41-.54,1.9-.15,3.86-.7,5.76-.8,4.18.02,8.25-1.27,12.35-1.76,1.59.37,3.34.61,4.94.94,2.11.84,4.37,1.62,6.59,2.14,4.02.92,8.3,1.13,12.35.28,2.37-.55,4.58-1.87,6.59-3.21,3.75-2.48,7.68-4.8,11.52-7.14,1.85-1.02,3.95-1.79,5.76-2.88,3.96-1.42,8.53-.81,12.35.78,2.6.62,5.06,1.92,7.41,3.16"/><path class="b" d="M13.27,65.66c5.35-1.52,11-.53,16.46-.93,6.57-.34,13.17-1.67,19.76-.92,4.41.4,8.79,1.31,13.17,1.87,2.16.2,4.42.19,6.59.11,1.61.41,3.29,1.06,4.94,1.32,3.51.68,7.15.4,10.7.24,3.27-.15,6.62-.18,9.88-.5,5.54-.41,10.96-1.83,16.46-2.46,1.38-.09,2.79.77,4.12,1.09,1.85.58,3.84,1.06,5.76,1.32,2.98.4,6.06.34,9.06.14,3.47-.11,6.92-1.14,9.88-2.96,3.01-1.81,6.05-3.73,9.06-5.54,2.09-1.31,4.27-2.72,6.59-3.6,7.85-2.84,16.05-1,23.05,3.2"/><path class="b" d="M13.27,62.93c5.41-1.06,11-.21,16.46-.68,6.03-.13,12.12-1.15,18.11-.54,4.7.46,9.36,1.44,13.99,2.26,1.6.2,3.33.29,4.94.31,1.04.04,2.31-.16,3.29.29,3.96,1.34,8.22,1.25,12.35,1.24,3.82-.06,7.7.07,11.52-.13,5.78-.24,11.53-1.19,17.29-1.58,1.36-.17,2.8.25,4.12.51,1.86.35,3.87.54,5.76.52,2.45-.01,4.97-.32,7.41-.54,3.07-.19,6.22-.6,9.06-1.86,3.73-1.62,7.2-3.91,10.7-5.96,2.36-1.43,4.77-3.06,7.41-3.93,7.76-2.22,16.3-.36,23.05,3.87"/><path class="b" d="M13.27,60.54c4.61-.77,9.34-.47,13.99-.67,2.45-.07,4.98.12,7.41-.24,4.94-.69,9.88.66,14.82.26,2.46.25,4.95.86,7.41,1.14,1.6.4,3.31.87,4.94,1.09,2.15.31,4.42.42,6.59.43,1.03.28,2.24.63,3.29.82,2.96.55,6.06.32,9.06.42,4.1.09,8.25.44,12.35.42,6.86-.02,13.72-1.02,20.58-.92,4.41.52,8.83-.31,13.17-.99,3-.41,6.15-.44,9.06-1.39,4.39-1.32,8.42-3.67,12.35-5.98,2.35-1.43,4.73-3.12,7.41-3.88,7.85-1.83,16.29.19,23.05,4.41"/><path class="b" d="M13.27,58.38c4.33-.73,8.79-.94,13.17-.86,3.52-.27,7.19-.7,10.7-.17,2.97.59,5.99,1.51,9.06,1.4,2.73.05,5.54-.85,8.23-.18,3.05.3,6.01,1.42,9.06,1.76,1.32.18,2.8.23,4.12.39,1.84.52,3.85.88,5.76.93,2.72.07,5.52-.2,8.23,0,3.56.18,7.14.69,10.7.83,4.93.18,9.9-.17,14.82-.4,3.27-.22,6.62-.04,9.88-.43,3.31-.41,6.59-1.35,9.88-1.88,2.43-.38,4.99-.35,7.41-.84,4.33-.79,8.51-2.47,12.35-4.61,3.22-1.76,6.15-4.46,9.88-5.09,7.69-1.14,15.65,1.03,22.23,5.03"/><path class="b" d="M13.27,56.3c3.53-.67,7.16-.91,10.7-1.48,3.26-.11,6.62-.11,9.88.09,3.81.99,7.48,2.97,11.52,2.72,3.57-.11,7.13-.91,10.7-1.05,1.67.07,3.33.73,4.94,1.1,2.73.5,5.5,1.14,8.23,1.62,3.53.53,7.15-.04,10.7.03,4.13.09,8.24.93,12.35,1.24,4.37.32,8.8.1,13.17-.16,3.55-.24,7.18-.3,10.7-.78,3.3-.64,6.57-1.7,9.88-2.31,2.7-.46,5.53-.4,8.23-.85,15.4-1.32,15.71-9.32,25.52-8.98,6.65.11,13.21,2.23,18.93,5.56"/><path class="b" d="M13.27,54.56c1.04-.21,2.3-.35,3.29-.74.45-.24,1.19-.66,1.65-.84,2.07-.87,4.42-.63,6.59-.34,2.7.37,5.51.45,8.23.45,1.67.45,3.32,1.37,4.94,1.98,3.35,1.47,7.13,1.49,10.7,1.02,2.99-.35,6.04-.86,9.06-.85,3.57.47,7.08,1.8,10.7,2.05,3.82.4,7.7-.2,11.52-.12,4.14.05,8.25.96,12.35,1.4,7.95.66,16.02-.23,23.87-1.49,3.31-.61,6.54-1.87,9.88-2.35,3.25-.48,6.61-.44,9.88-.71,2.73-.19,5.63-.22,8.23-1.16,6.85-2.46,8.98-7.77,17.29-6.59,3.34.33,6.67,1.19,9.88,2.14,2.5.98,5.05,2.14,7.41,3.43"/><path class="b" d="M13.27,52.39c4.9-4.04,7.12-1.73,12.35-.54,2.7.51,5.52.07,8.23.07,1.31.62,2.76,1.33,4.12,1.86,3.38,1.37,7.15,1.18,10.7.84,3.27-.34,6.59-.79,9.88-.77,3.26.5,6.55,1.35,9.88,1.41,4.38.18,8.8-.38,13.17-.1,4.15.11,8.23,1.16,12.35,1.49,6.33.4,12.71-.6,18.93-1.71,4.13-.76,8.2-2.06,12.35-2.76,4.9-.57,9.9.3,14.82-.08,2.19-.24,4.52-.57,6.59-1.34,6.59-3.29,8.02-7.1,16.46-5.44,2.44.54,5.01.96,7.41,1.66,2.8.97,5.55,2.33,8.23,3.57"/><path class="b" d="M13.27,48.69c6.98-3.29,7.88,6.16,20.58,2.08,1.94.49,3.76,1.73,5.76,2.1,5.71,1.15,11.55-.33,17.29-.47,3.3-.33,6.58.68,9.88.73,4.65.2,9.35-.17,13.99,0,2.17.1,4.44.11,6.59.41,3.51.65,7.12,1.29,10.7.93,5.24-.53,10.48-1.52,15.64-2.55,3.56-.66,7.11-1.7,10.7-2.19,6.3-.41,12.68,2.12,18.93.42,2.18-.56,4.45-1.21,6.59-1.93,1.89-1.12,3.74-2.59,5.76-3.47,2.86-1.19,6.12-.73,9.06-.04,3.12.31,6.24,1.18,9.05,2.57,1.55.75,3.39,1.2,4.94,1.99"/><path class="b" d="M13.27,46.11c5.17-1.34,9.29,8.84,21.4,3.34,2.07.94,4.3,1.83,6.59,2.06,5.48.51,10.99-.59,16.46-.8,2.73-.32,5.5.18,8.23.28,5.2.19,10.45.05,15.64-.28,2.18-.06,4.45.14,6.59.59,2.41.52,4.92,1.19,7.41,1,3.05-.2,6.07-1.07,9.06-1.7,2.98-.59,6.05-1.08,9.06-1.53,1.32-.19,2.79-.39,4.12-.56,2.1-.65,4.38-1.11,6.59-1.04,6.28.36,12.67,3.12,18.93,1.33,3.29-1,6.52-2.4,9.88-3.18,1.23-.8,2.69-1.61,4.12-1.98,1.84-.49,3.89-.44,5.76-.13,1.61.14,3.37.24,4.94.69,1.65.43,3.39,1.09,4.94,1.8,1.91.57,3.94,1.17,5.76,1.98"/><path class="b" d="M13.27,45.06c.75-.1,1.74-.34,2.47-.02,1.36.67,2.79,1.57,4.12,2.3,3.2,1.82,7.03,2.89,10.7,2.24,1.71-.25,3.27-1.42,4.94-1.68,3.33,1.56,7.04,2.2,10.7,1.98,4.67-.15,9.33-.86,13.99-1.11,1.61-.19,3.33.02,4.94.07,2.44.08,4.97.08,7.41.1,3.29-.04,6.59-.78,9.88-.78,2.49,0,5.01.55,7.41,1.18,1.86.39,3.85,1.02,5.76.71,4.45-.73,8.63-2.79,13.17-3.1,2.71-.34,5.51-.42,8.23-.58,2.1-.63,4.4-.92,6.59-.69,4.12.62,8.18,1.81,12.35,2.16,2.44.34,5.03.54,7.41-.24,3.82-1.27,7.47-3.28,11.52-3.78.77-.09,1.74-.54,2.47-.77,1.28-.38,2.78-.55,4.12-.53,3.09-.1,6.18.51,9.06,1.63,2.76.72,5.61,1.46,8.23,2.59"/><path class="b" d="M13.27,43.92c.73-.08,1.74-.2,2.47-.28,6.76,3.33,12.5,6.52,19.76,2.24,1.68.12,3.27,1.28,4.94,1.57,2.12.53,4.41.62,6.59.58,4.95-.11,9.88-.97,14.82-1.29,2.71-.19,5.52.02,8.23.04,4.96.33,9.87-1.57,14.82-.81,3.04.42,6.02,1.49,9.06,1.98,1.68.08,3.4-.55,4.94-1.15,5.3-2.4,9.93-2.65,15.64-2.38,1.06.13,2.26-.05,3.29-.3,1.02-.16,2.26-.22,3.29-.15,3.06.23,6.05,1.32,9.06,1.86,2.15.39,4.42.62,6.59.83,1.6.14,3.34.42,4.94.17,3.21-.49,6.01-2.45,9.06-3.46,1.55-.56,3.32-.81,4.94-1.07,2.69-.46,5.5-.79,8.23-.61,5.07.53,10.11,1.93,14.82,3.86"/><path class="b" d="M13.27,42.42c1.03-.08,2.26-.35,3.29-.21,1.33.52,2.79,1.15,4.12,1.67,6.28,2.44,9.56,2.99,15.64-.35,2.4.93,4.8,2.16,7.41,2.39,6.6.73,13.18-.87,19.76-1.26,3-.35,6.06.17,9.06.01,3.56-.18,7.12-1.15,10.7-1.01,2.49.11,5.01.73,7.41,1.38,1.58.32,3.32,1.02,4.94.65,2.25-.57,4.38-1.81,6.59-2.51,4.23-1.42,8.81-.74,13.17-.43,1.3-.3,2.79-.42,4.12-.33,3.35.25,6.59,1.49,9.88,2.11,3.79.62,7.69.98,11.52,1.22,3.9-.09,7.06-2.9,10.7-3.95,2.92-.77,6.04-1.02,9.06-1.03,1.3-.24,2.79-.34,4.12-.27,4.82.41,9.56,1.94,13.99,3.82"/><path class="b" d="M13.27,40.63c1.03-.11,2.26-.24,3.29-.37,1.62.5,3.34,1.17,4.94,1.74,3.64,1.33,7.74,2.72,11.52,1.14,1.36-.46,2.74-1.32,4.12-1.7,2.56,1.3,5.33,2.44,8.23,2.61,6.06.49,12.08-.99,18.11-1.34,3-.38,6.05-.03,9.06-.1,3.56-.1,7.13-.96,10.7-.89,2.48.07,5.01.5,7.41,1.12,2.2.51,4.41,1.33,6.59.28,2.13-.84,4.31-1.9,6.59-2.31,3.25-.54,6.63-.08,9.88.27,1.88-.09,3.88-.41,5.76-.03,3.32.53,6.57,1.66,9.88,2.24,3.8.59,7.7.91,11.52,1.28,4.23.07,7.52-3.29,11.52-4.17,2.4-.52,4.96-.6,7.41-.57,1.28-.41,2.77-.69,4.12-.75,2.79-.12,5.6.66,8.23,1.48,2.21.69,4.49,1.5,6.59,2.49"/><path class="b" d="M13.27,38.75c1.63-.14,3.37-.62,4.94.08,4.04,1.13,8.05,3.3,12.35,3.06,1.69-.15,3.41-.79,4.94-1.49,1.14-.54,2.12-1.17,3.29-.33,6.62,3.68,14.31,1.65,21.4.97,3.54-.39,7.15-.47,10.7-.43,2.74-.07,5.53-.46,8.23-.91,2.99-.61,6.14-.32,9.06.52,2.46.33,4.94,1.04,7.41,1.34,1.98-.18,3.88-1.15,5.76-1.7,3.45-1.1,7.17-.73,10.7-.34,1.88-.13,3.88-.4,5.76-.08,3.87.58,7.67,1.81,11.52,2.51,4.08.57,8.24,1.18,12.35,1.43,2.36-.09,4.54-1.37,6.59-2.42,2.98-1.7,6.48-2.28,9.88-2.12.79.06,1.74-.45,2.47-.68,1.27-.41,2.77-.7,4.12-.7,2.52.03,5.05.81,7.41,1.63,2.2.77,4.49,1.61,6.59,2.64"/><path class="b" d="M13.27,36.83c1.03-.1,2.25-.33,3.29-.3,1.92.4,3.9,1.01,5.76,1.61,6.6,2.25,9.22,2.71,15.64-.49,5.99,3.39,11.58,2.94,18.11,1.91,4.62-.67,9.33-.85,13.99-.98,3.6-.11,7.2-.8,10.7-1.61,3.63-.74,7.33.21,10.7,1.54,2.09.62,4.41.83,6.59.87,1.61-.32,3.32-.85,4.94-1.12,1.87-.31,3.88-.29,5.76-.19,1.88-.17,3.86-.55,5.76-.42,4.46.3,8.8,1.69,13.17,2.55,2.69.61,5.51.95,8.23,1.32,1.88.21,3.86.65,5.76.66,3.61-.13,6.54-2.69,9.88-3.74,1.28-.42,2.78-.63,4.12-.7,1.06-.04,2.38.1,3.29-.57,3.38-1.82,7.14-1.81,10.7-.51,3.05,1.05,6.15,2.25,9.06,3.67"/><path class="b" d="M13.27,34.9c1.91-.45,3.89-.18,5.76.31,2.75.63,5.5,1.58,8.23,2.29,2.12.58,4.46.71,6.59.11,1.07-.29,2.28-.77,3.29-1.21.4-.27,1.18-.43,1.65-.36,2.51,1.41,5.35,2.28,8.23,2.37,4.14.22,8.25-.78,12.35-1.16,4.65-.44,9.38-.44,13.99-1.19,1.6-.28,3.38-.37,4.94-.85,3.41-1.24,7.2-1.91,10.7-.64,1.94.62,3.88,1.56,5.76,2.33,4.13.41,8.29-.14,12.35-.83,3.55-.49,7.21-.24,10.7.52,7.9,1.62,15.81,3.73,23.87,4.32,3.59-.15,6.56-2.62,9.88-3.71,1.54-.53,3.31-.76,4.94-.79.83-.09,1.74-.78,2.47-1.16,3.44-1.98,7.09-1.74,10.7-.33,3.05,1.15,6.12,2.47,9.06,3.9"/><path class="b" d="M13.27,32.98c2.15-.45,4.45.06,6.59.43,3.6.66,7.06,2.17,10.7,2.6,2.84.31,5.66-.7,8.23-1.81,1.41.21,2.73,1.24,4.12,1.58,4,1.25,8.29.77,12.35.12,4.62-.82,9.39-.68,13.99-1.56,2.49-.48,4.95-1.42,7.41-2.01,1.3-.34,2.8-.34,4.12-.56,3.26-1.43,6.61-1.11,9.88.07,1.96.64,3.89,1.68,5.76,2.52.94.6,2.24.29,3.29.23,2.17-.18,4.41-.61,6.59-.75,3.58-.23,7.21.3,10.7,1.07,4.92,1.08,9.89,2.16,14.82,3.2,3.25.53,6.57,1.49,9.88,1.42,3.28-.25,6.08-2.3,9.06-3.48.99-.41,2.23-.78,3.29-.96,1.1-.13,2.43-.24,3.29-1.03,2.38-1.6,5.33-2.8,8.23-2.18,4.64.97,8.89,3.35,13.17,5.31"/><path class="b" d="M13.27,31.09c3.29-.31,6.68.18,9.88.97,2.72.66,5.43,1.73,8.23,2.01,2.21.23,4.5-.24,6.59-.98,2.08-.87,2.18-.64,4.12.25,4.44,1.85,9.37,1.39,13.99.64,2.98-.45,6.07-.6,9.06-1,4.09-.43,7.73-2.53,11.52-3.9,1.82-.57,3.86-.77,5.76-.78,1.55-.58,3.33-.61,4.94-.31,2.85.38,5.63,1.37,8.23,2.56,1.83.62,3.77,2.13,5.76,1.69,2.42-.39,4.96-.61,7.41-.35,3.89.35,7.73,1.38,11.52,2.23,6.02,1.29,12.04,2.79,18.11,3.83,4.16.81,7.93-1.5,11.52-3.22.99-.45,2.23-.91,3.29-1.18,1.11-.22,2.44-.42,3.29-1.25,2.13-1.51,4.71-2.9,7.41-2.66,5.3.7,10.03,3.63,14.82,5.82"/><path class="b" d="M13.27,29.27c3.28-.25,6.67-.16,9.88.63,3.01.67,5.97,1.91,9.06,2.24,3.1.45,6.09-.75,9.06-1.37,4.95,2.41,10.36,2.14,15.64,1.28,3.56-.46,7.28-.46,10.7-1.64,3.2-1.07,5.93-3.28,9.06-4.51,2.33-.85,4.97-1.02,7.41-.61,2.18-.14,4.46.26,6.59.69,3.94.94,7.73,2.55,11.52,3.91,1.29.36,2.79-.09,4.12.03,1.9.06,3.9.36,5.76.73,5.77,1.24,11.51,2.76,17.29,3.98,3.25.69,6.55,1.7,9.88,1.87,3.57.13,6.78-1.79,9.88-3.31,1-.48,2.24-1,3.29-1.34,1.08-.34,2.46-.5,3.29-1.35,2.12-1.58,4.67-3.12,7.41-2.97,5.6.69,10.61,3.72,15.64,6.09"/><path class="b" d="M13.27,27.52c3.83-.48,7.79-.44,11.52.63,2.71.72,5.43,1.76,8.23,2.08,3.04.37,6.14-.31,9.06-1.13,2.7.56,5.41,1.64,8.23,1.59,2.74.06,5.51-.44,8.23-.66,3.04-.25,6.24-.38,9.06-1.66,7.75-4,8.33-7.36,18.11-5.25,6.23.44,12.24,2.5,18.11,4.52.97.48,2.24.52,3.29.56,1.62.14,3.35.44,4.94.77,7.69,1.75,15.34,3.79,23.05,5.42,4.94,1.21,8.93-.71,13.17-3,1.28-.64,2.76-1.29,4.12-1.73,1.13-.27,2.42-.71,3.29-1.54,2.95-2.27,6.23-3.4,9.88-2.06,2.49.76,5.04,1.68,7.41,2.76,1.89.86,3.81,1.97,5.76,2.7"/><path class="b" d="M13.27,25.75c9.84-1.64,11.95,1.1,20.58,2.6,3.3.43,6.66-.2,9.88-.9,2.18.27,4.36,1.14,6.59,1.18,2.73.17,5.51-.3,8.23-.43,4.23-.08,8.08-.52,11.52-3.21,5.49-4.21,7.87-5.34,14.82-3.82,7.28.91,14.55,2.45,21.4,5.12.98.42,2.26.4,3.29.61,1.33.22,2.8.52,4.12.82,6.57,1.57,13.14,3.3,19.76,4.72,5.68,1.41,9.96-.9,14.82-3.48,1.54-.76,3.28-1.47,4.94-1.91.39-.09,1.26-.32,1.65-.46.37-.31,1.25-.9,1.65-1.18,3.76-2.55,6.61-2.15,10.7-.63,3.95,1.2,7.71,3.03,11.52,4.58"/><path class="b" d="M13.27,23.97c9.67-1.86,11.9.59,20.58,2.42,2.7.47,5.53.35,8.23-.02,1.9-.18,3.89-.89,5.76-.2,3.51.84,7.15.27,10.7.18,5.24.13,8.2-.28,12.35-3.69,5.2-4.21,7.69-3.94,13.99-2.99,8.12,1.07,16.27,2.49,23.87,5.62,8.04,1.27,15.86,3.75,23.87,5.21,8.96,1.82,14.39-5.61,23.05-6.57,4.21-2.33,5.91-3.02,10.7-1.26,4.18,1.33,8.35,2.85,12.35,4.66"/><path class="b" d="M13.27,22.18c12.88-2.91,16.18,3.49,27.99,2.7,2.45-.13,4.96-.5,7.41-.57,1.88.11,3.87.38,5.76.25,1.32.09,2.79.25,4.12.2,6.54-.25,7.83.1,13.17-4.13,4.89-3.89,8.32-2.71,13.99-2.21,5.21.79,10.53,1.3,15.64,2.63,2.85.6,5.54,1.88,8.23,2.93,7.45,1.17,14.81,3.02,22.23,4.34,6.99,1.3,12.67-3.88,18.93-5.95,2.36-.85,4.95-1.1,7.41-1.47,1.22-.64,2.73-1.16,4.12-1.14,2.26.14,4.45,1.14,6.59,1.81,3.35,1.02,6.72,2.21,9.88,3.73"/><path class="b" d="M13.27,20.39c2.7-.44,5.48-1.01,8.23-.84,3.39.18,6.64,1.43,9.88,2.32,3.19.91,6.56,1.44,9.88,1.35,4.65-.16,9.35-.49,13.99-.03,2.44.22,4.98.05,7.41-.22,3.11.21,5.83-.96,8.23-2.86,5.86-4.57,8.79-3.35,15.64-2.82,5.2.77,10.53,1.05,15.64,2.41,1.65.41,3.39,1.05,4.94,1.75,1.04.41,2.17,1.2,3.29,1.34,2.14.49,4.43.33,6.59.68,4.94.79,9.84,2.11,14.82,2.66,6.36.63,11.58-3.79,17.29-5.81,3.4-1.23,7.08-1.83,10.7-1.77.97-.39,2.24-.69,3.29-.58,2.25.3,4.43,1.33,6.59,2,3.07.92,6.2,1.88,9.06,3.36"/><path class="b" d="M13.27,18.58c2.97-.5,6.03-1.13,9.05-.84,3.37.31,6.62,1.58,9.88,2.41,3.2.87,6.56,1.38,9.88,1.35,4.65-.03,9.35-.1,13.99.26,2.44.12,4.99,0,7.41-.34,1.64-.08,3.43-.08,4.94-.83,2.29-1.06,4.28-2.86,6.59-3.89,2.28-1.09,4.93-1.16,7.41-.95,1.6.14,3.35.16,4.94.47,8.74.94,14.08.83,22.23,4.97,7.51-.55,14.8,2.06,22.23,2.6,6.01.27,10.98-3.75,16.46-5.55,3.95-1.32,8.18-1.97,12.35-1.86,1.33-.09,2.8-.42,4.12.04,2.19.64,4.39,1.6,6.59,2.22,2.52.67,5.1,1.41,7.41,2.66"/><path class="b" d="M13.27,16.79c11.38-2.64,14.31,1.17,24.7,2.67,4.9.56,9.9.29,14.82.61,1.62.06,3.34.21,4.94.44,1.89.12,3.89-.1,5.76-.33,2.5-.3,5.21-.43,7.41-1.79,5.47-3.6,8.32-4.2,14.82-3.61,4.33.83,8.83.67,13.17,1.41,1.64.28,3.38.74,4.94,1.31,1.03.36,2.2.99,3.29,1.14.73.15,1.73.37,2.47.48.73-.05,1.74-.08,2.47-.06,1.89.05,3.88.34,5.76.52,4.68.4,9.31,1.64,13.99,1.9,6.21.15,11.42-4,17.29-5.42,3.74-1,7.66-1.52,11.52-1.55,1.32.07,2.82-.27,4.12.11,2.2.61,4.38,1.65,6.59,2.24,2.46.71,5.14,1.06,7.41,2.33"/><path class="b" d="M13.27,14.99c4.03-.88,8.3-1.41,12.35-.32,3.28.83,6.56,1.91,9.88,2.55,2.68.57,5.5.71,8.23.83,4.4.24,8.86.21,13.17,1.13,1.89.18,3.89-.04,5.76-.23,2.19-.22,4.48-.46,6.59-1.11,1.04-.31,2.29-.6,3.29-1.02,1.03-.55,2.24-1.23,3.29-1.72,2.53-1.22,5.45-1.54,8.23-1.54,1.64-.09,3.33.43,4.94.58,2.71.25,5.53.24,8.23.59,3.35.41,6.5,1.92,9.88,2.18,1.31.31,2.79.13,4.12.14,2.72.07,5.52.22,8.23.48,4.12.38,8.22,1.43,12.35,1.69,6.7.25,12.48-4.05,18.93-5.2,3.5-.74,7.13-1.16,10.7-1.21,1.04.02,2.27-.24,3.29.06,2.48.69,4.89,1.88,7.41,2.43,2.15.58,4.57.71,6.59,1.71"/><path class="b" d="M13.27,13.17c2.94-.65,6.04-1.15,9.05-.84,5.83.82,11.38,3.28,17.29,3.67,4.1.25,8.25.55,12.35.83,1.83.59,3.83,1.07,5.76,1.09,3.01,0,6.07-.5,9.06-.79,1.91-.4,3.87-1.07,5.76-1.57,1.02-.3,2.29-.44,3.29-.8,2.05-.95,4.33-1.64,6.59-1.8,1.32-.08,2.8-.18,4.12-.27,1.03.12,2.25.33,3.29.41,2.16.17,4.44.17,6.59.48,1.93.24,3.89.85,5.76,1.35,1.03.12,2.26.23,3.29.32,1.6.22,3.33-.14,4.94-.16,2.72-.07,5.52-.13,8.23.09,4.69.35,9.3,1.67,13.99,1.95,4.88.26,9.45-1.92,13.99-3.39,4.24-1.39,8.72-2.15,13.17-2.41,1.32.02,2.8-.29,4.12-.25,1.96.28,3.87,1.23,5.76,1.79,2.92.97,6.12,1.05,9.06,1.93"/><path class="b" d="M13.27,11.31c2.94-.67,6.05-1.1,9.05-.74,4.99.74,9.8,2.58,14.82,3.22,4.37.48,8.8.79,13.17,1.2,1.87.56,3.8,1.32,5.76,1.48,3.84.34,7.71-.49,11.52-.83,2.72-.69,5.45-1.67,8.23-2.08,1.03-.16,2.26-.19,3.29-.26,1.57-.46,3.32-.68,4.94-.79.76-.08,1.72-.48,2.47-.6.74-.1,1.74-.03,2.47.07,2.72.26,5.55.32,8.23.88,2.16.41,4.35,1.36,6.59,1.04,4.89-.63,9.88-1.45,14.82-.98,5.5.57,10.9,2.34,16.46,2.33,5.15-.06,9.92-2.34,14.82-3.65,2.4-.64,4.94-1.15,7.41-1.42,1.93-.13,3.83-.34,5.76-.69,2.54.03,4.94,1.37,7.41,1.83,2.69.6,5.54.69,8.23,1.28"/><path class="b" d="M13.27,9.42c2.94-.67,6.06-1.02,9.05-.62,5.22.91,10.35,2.55,15.64,3.05,3.83.32,7.71.84,11.52,1.3,1.54.72,3.27,1.34,4.94,1.67,4.08.86,8.27-.11,12.35-.5,3.6-.44,7.05-2.06,10.7-2.29,2.18-.32,4.42.25,6.59.23,1.03-.34,2.22-.84,3.29-1.01,2.72-.3,5.54.27,8.23.62,2.14.32,4.43.88,6.59.52,3.84-.51,7.66-1.51,11.52-1.82,4.18-.34,8.31.82,12.35,1.74,2.96.59,6.04,1.01,9.06,1.21,5.4.38,10.54-1.67,15.64-3.12,2.67-.73,5.47-1.31,8.23-1.49,1.03-.26,2.23-.74,3.29-.86,2.51-.3,4.97.88,7.41,1.26,2.97.57,6.09.48,9.06,1.09"/></svg>