<?xml version="1.0" encoding="UTF-8"?><svg id="a" xmlns="http://www.w3.org/2000/svg" width="1920" height="2400" viewBox="0 0 192 240"><defs><style>.b{fill:none;stroke:#fff;stroke-miterlimit:10;stroke-width:.3px;}.c{stroke-width:0px;}</style></defs><rect class="c" width="192" height="240"/><path class="b" d="M13.84,225.59c1.59-.01,3.31.18,4.91.02,1.89-.42,3.84-1.04,5.72-1.47,4.84-1.12,9.74-2.3,14.72-2.62,3.82-.41,7.67.4,11.45.88,1.87.26,3.86.41,5.72.71,1.87.73,3.82,1.61,5.72,2.24,8.53,2.94,17.46-.61,26.16-.35.39-.02,1.24-.09,1.63-.14.75-.45,1.74-1.15,2.45-1.65,1.93-1.21,4.14-2.92,6.54-2.53,1.89-1.32,4.31-1.82,6.54-1.15l.82-.34c1.81-3.58,3.35-5.56,6.54-1.73,2.14,2.47,4.05,5.36,6.54,7.5,2.45,2.14,5.85,2.71,8.99,2.29,4.4-.53,8.74-1.68,13.08-2.51,3.51-.53,7.2-.17,10.63-1.25,1.13.35,2.48.95,3.27,1.86.95,1.47,2.11,3.21,3.27,4.52,4.92,5.58,8.19-1.42,13.9-.14,1.93.26,3.78,1.44,5.72,1.52"/><path class="b" d="M13.84,222.79c1.04.08,2.26.26,3.27.54,1.01.24,2.23.68,3.27.37,1.31-.37,2.76-.78,4.09-1.07,2.95-.63,6.03-.93,8.99-1.47,4.3-.83,8.71-1.41,13.08-.82,1.87.2,3.85.45,5.72.65,2.19.56,4.4,1.44,6.54,2.16,3.9,1.43,8.16,1.72,12.26,1.11,4.09-.55,8.19-1.3,12.26-1.96,2.7-.32,5.53-.37,8.18-1.1.81-.22,1.73-.9,2.45-1.3.98-.59,2.3-.99,3.27-1.58,2.29-1.86,5.51-2.77,8.18-1.13l.82-.2c5.21-11.26,9.48,7.27,17.17,8.59,2.68.64,5.53.16,8.17-.39,2.71-.57,5.48-1.22,8.18-1.88,2.92-.79,6.01-.4,8.99-.42.73-.02,1.73-.1,2.45-.21,1.12.34,2.21,1.25,3.27,1.73.82.37,1.92.84,2.45,1.61,1.06,1.46,2.35,3.2,4.09,3.89,2.21.76,4.13-1.16,5.72-2.41,4.01-3.55,6.98-2.5,11.45-.6"/><path class="b" d="M13.84,219.69c2.34.01,4.36,1.46,6.54,2.03,2.1-.71,4.32-1.41,6.54-1.56,2.7-.16,5.49-.04,8.18-.42,10.37-1.68,13.92-.58,23.71,2.24,5.12,1.38,10.45.29,15.53-.76,2.97-.6,6.02-1.21,8.99-1.78,2.72-.43,5.54-.88,8.18-1.71,1.67-.53,3.43-1.27,4.91-2.23,2.64-1.99,6.36-2.81,8.99-.34l.82-.36c.86-1.46,2.03-3.88,4.09-3.42,2.58,1.1,4.29,3.85,5.72,6.15,2.1,2.74,4.5,6.01,8.18,6.52,2.72.41,5.54-.21,8.18-.86,2.98-.66,5.98-1.61,8.99-2.14,2.98-.44,6.01.4,8.99.4,1.93.99,3.62,2.53,5.72,3.37.4.18,1.23.54,1.63.71.64.73,1.6,1.7,2.45,2.18,3.65,1.65,5.87-3.52,8.18-5.49,2.88-3.1,6.33-2.34,9.81-.8"/><path class="b" d="M13.84,216.59c2.44-.04,4.53,1.47,6.54,2.65,6.23-2.73,7.78-1.33,13.9-.89,3.53.03,7.1-.69,10.63-.34,4.14.33,8.2,1.47,12.26,2.29,6.04,1.37,12.11-.58,17.99-1.86,5.45-1.26,11.04-2.13,16.35-3.93,4.87-1.38,9.52-6.14,13.9-.98,1.4-1.25,2.06-3.71,4.09-4.15,2.22-.22,3.38,2.1,4.09,3.83.64,1.41,1.54,3.32,2.45,4.58.6.76,1.52,1.64,2.45,1.95.45.05,1.24.33,1.64.55,1.13.94,2.63,1.66,4.09,1.88,2.74.4,5.55-.3,8.18-1.01,2.69-.7,5.46-1.47,8.18-2.07,2.71-.52,5.51.07,8.18.56,1.3,0,2.29,1.26,3.27,1.96,1.22.93,2.7,1.81,4.09,2.45.71.32,1.72.73,2.45.99.96.53,2.13,1.26,3.27.9,1.88-.71,3.02-2.81,4.09-4.4,3.33-5.51,5.6-8.27,12.26-5.35"/><path class="b" d="M13.84,213.68c2.5-.23,4.54,1.47,6.54,2.68,6.43-3.57,8.52-1.06,14.72.28,2.69.39,5.48-.13,8.18.18,4.1.34,8.2,1.16,12.26,1.78,6.67,1.24,13.18-1.35,19.62-2.71,5.21-1.14,10.49-2.13,15.53-3.92,1.89-.62,3.88-1.3,5.72-2.06,3.67-1.6,6.52-1.04,8.99,2.21,1.05-1.85,2.34-4.91,4.91-4.65,1.25.69,1.88,2.77,2.45,3.99,1.33,3.1,3.12,8.06,7.36,7.25.8.13,1.69.76,2.45,1.03,1.54.53,3.31.56,4.91.34,3.32-.53,6.54-1.76,9.81-2.49,2.1-.55,4.35-1.08,6.54-.88,1.62.11,3.33.51,4.91.89,1.12.76,2.18,2,3.27,2.8,1.67,1.31,3.69,2.34,5.72,2.94,1,.26,2.22.71,3.27.53,3.06-1.28,4.11-5.16,5.72-7.8,3.13-6.11,5.59-6.25,11.45-3.28"/><path class="b" d="M13.84,211.1c2.1-.33,4.12.77,5.72,2.02.51.06,1.24-.24,1.63-.54.71-.4,1.68-.87,2.45-1.11,4.13-1.39,7.79,1.65,11.45,3.08,1.79.76,3.84.36,5.72.62,3.8.45,7.65,1.01,11.45,1.51,2.14.26,4.38.53,6.54.44,4.45-.37,8.75-1.88,13.08-2.85,5.42-1.38,11.06-1.96,16.35-3.85,2.43-.77,4.94-1.55,7.36-2.35,3.61-1.43,6.68-1.29,8.99,2.19l.82-.14c.94-1.69,2.06-4,4.09-4.53,3.54,2.11,3.47,13.13,10.63,11.42.82-.11,1.7.5,2.45.7,1.28.35,2.77.4,4.09.25,3.34-.43,6.52-1.81,9.81-2.47,2.92-.74,5.99-1.35,8.99-.79.73.11,1.73.32,2.45.5,1.09.92,2.18,2.23,3.27,3.15,2.58,2.27,6.37,3.95,9.81,3.04,4.15-2.8,4.9-12.69,9.81-13.6,2.79-.06,5.07,2.09,7.36,3.41"/><path class="b" d="M13.84,209.05c1.66-.34,3.49.07,4.91,1l.82-.04c3.27-2.49,6.96-3.04,10.63-1.06,1.94,1.06,3.75,2.56,5.72,3.55.98.39,2.24.18,3.27.39,3.26.51,6.54,1.23,9.81,1.67,10.23,1.6,11.75.02,21.26-2.18,2.96-.68,6.01-1.26,8.99-1.78,2.76-.38,5.54-.97,8.18-1.88,2.97-.93,6.01-1.85,8.99-2.72,3.71-1.33,6.26.51,8.18,3.63,1.13-1.97,2.2-4.39,4.09-5.76l.82.13c3.28,4.25,3.95,13.58,11.45,11.03,4,1.66,8.34-.08,12.26-1.14,4.51-1.08,9.27-2.12,13.9-1.17,2.92,2.92,6.02,7.01,10.63,6.58,1.08-.11,2.38-.33,3.27-.99,1.38-1.59,2.41-3.92,3.27-5.81,4.72-11.07,6.29-8.22,13.9-1.72"/><path class="b" d="M13.84,207.49c1.3-.33,2.82-.29,4.09.17,2.89-1.92,5.41-3.28,8.99-2.57,1.67.27,3.44.83,4.91,1.69,1.41.84,2.74,2.1,4.09,3.02,1,.31,2.25.26,3.27.49,2.17.41,4.39,1.03,6.54,1.51,4.26.92,8.72,1.67,13.08,1.12,2.45-.47,4.92-1.26,7.36-1.77,4.04-.91,8.17-1.6,12.26-2.23,2.44-.38,5-.57,7.36-1.35,3.25-.97,6.54-2,9.81-2.9,3.85-1.38,5.92.15,8.18,3.23l.82.04c.82-1.86,1.97-4.01,3.27-5.58l.82-.32c3.27,2.91,3.3,8.71,7.36,11.01.96.48,2.22.63,3.27.45.42-.07,1.23-.29,1.63-.43.41.05,1.23.17,1.63.24,3.62.25,7.15-1.09,10.63-1.89,4.26-.81,8.76-1.64,13.08-.93,2.55,2.29,4.78,5.45,8.17,6.51,2.38.56,5.3-.44,6.54-2.61,2.23-3.13,4.01-10.38,7.36-11.87,2.08-.35,3.62,1.72,4.91,3.05,1.5,1.7,3.1,3.58,4.91,4.96"/><path class="b" d="M13.84,206.29c.72-.21,1.7-.37,2.45-.38,2.46-1.6,5.08-3.52,8.18-3.27,2.76.19,5.66.61,8.18,1.82,1.44.65,2.66,1.99,4.09,2.65,2.79.14,5.51,1.18,8.18,1.93,4.49,1.34,9.22,2.03,13.9,1.56,2.43-.45,4.91-1.1,7.36-1.43,4.07-.6,8.19-1.16,12.26-1.71,2.44-.33,5-.42,7.36-1.19,3.52-1.02,7.06-2.2,10.63-3.07,3.16-1,5.63,1.77,7.36,4.04,1.43-2.09,2.15-5.07,4.09-6.8l.82.11c3.21,3.35,3.55,10.23,8.99,11.06,1.04.12,2.27-.06,3.27-.37,1.02-.19,2.25.01,3.27-.17,4.61-.88,9.17-2.4,13.9-2.6,1.59-.14,3.31-.28,4.91-.26.41,0,1.23.02,1.63.04.52.09,1.3.69,1.64,1.08,3.16,2.96,8.05,8.67,12.26,4.12,2.09-2.37,3.47-5.56,4.91-8.34,1.68-3.29,3.75-7.3,7.36-3.17,2.37,2.61,4.36,5.82,7.36,7.79"/><path class="b" d="M13.84,205.22c2.2-1.22,4.2-3.01,6.54-3.98,1.8-.71,3.85-.58,5.72-.34,1.88.25,3.88.45,5.72.87,1.75.41,3.45,1.36,4.91,2.38.99.38,2.25.43,3.27.71,1.89.46,3.85,1.1,5.72,1.64,3.69,1.11,7.59,1.76,11.45,1.72,3.26-.14,6.55-.77,9.81-.92,3.81-.29,7.65-.71,11.45-1.14,2.74-.26,5.55-.53,8.18-1.4,2.15-.62,4.39-1.29,6.54-1.9,1.57-.4,3.26-1.08,4.91-1.07,1.19.06,2.42.78,3.27,1.57.71.66,1.54,1.79,2.45,2.2,1.08-2.22,1.89-5.41,4.09-6.79l.82.27c3.47,4.15,4.3,11.58,11.45,10.44,2.14-.49,4.46-.51,6.54-1.3,3.4-1.16,7.05-1.66,10.63-1.84,1.31-.05,2.78-.14,4.09-.18,1.11-.05,2.46-.12,3.27.79,2.98,3.39,7.87,8.71,12.26,4.28,2.09-2.1,3.52-5.03,4.91-7.61,1.49-2.68,3.82-8.04,7.36-4.52,2.98,2.93,5.21,6.84,8.99,8.87"/><path class="b" d="M13.84,203.88c5.06-3.61,6.41-5.68,13.08-4.57,3.32.38,6.88.33,9.81,2.17,1.18.7,2.79.6,4.09,1.01,1.88.45,3.85,1.03,5.72,1.53,3.45.93,7.06,1.53,10.63,1.72,3.79.06,7.65,0,11.45-.08,2.98-.11,6.02-.41,8.99-.71,2.73-.25,5.55-.47,8.18-1.32,2.97-.86,6.01-1.75,8.99-2.55,3.79-1.28,5.6-.6,8.18,2.43l.82-.14c1.01-2.04,1.79-5.16,4.09-6.1,1.67.37,2.42,2.59,3.27,3.88,1.04,1.84,2.3,3.94,4.09,5.15,2.41,1.65,5.47,1.23,8.18.73,2.49-.54,4.86-1.77,7.36-2.29,4.05-.58,8.26-.87,12.26.12,2.48,2.16,4.62,5.54,8.18,5.89,7.73.58,9.74-16.53,15.53-14.69,1.96.95,3.41,2.88,4.91,4.39,1.86,2,4.08,3.83,6.54,5.03"/><path class="b" d="M13.84,202.58c1.23-.33,2.29-1.47,3.27-2.23,1.62-1.36,3.55-2.69,5.72-2.84,1.88-.13,3.85.16,5.72.27,1.88.14,3.89.11,5.72.56,1.07.26,2.25.83,3.27,1.22,1.04.11,2.25.33,3.27.55,2.71.59,5.46,1.38,8.18,1.99,4.02.9,8.16,1.47,12.26,1.79,3.51.37,7.1.56,10.63.31,5.22-.4,10.54-.72,15.53-2.43,2.69-.81,5.46-1.62,8.18-2.35,2.97-1.04,5.35-.19,7.36,2.19l.82-.15c.98-1.87,1.78-4.97,4.09-5.51,1.49.32,2.43,2.03,3.27,3.17,1.15,1.71,2.45,3.65,4.09,4.93,2.78,2.17,6.65,1.96,9.81.8,2.15-.73,4.27-1.93,6.54-2.25,3.53-.38,7.15.21,10.63.78,2.71,2.39,5.69,6.53,9.81,4.89,5.56-2.02,7.9-14.27,13.08-14.2,2.64.64,4.43,3.12,6.54,4.67,1.22.99,2.7,1.94,4.09,2.66.67.69,1.66,1.6,2.45,2.14"/><path class="b" d="M13.84,201.13c1.11-.37,2.46-.76,3.27-1.66,1.64-1.43,3.51-2.95,5.72-3.32,1.86-.3,3.85-.09,5.72-.08,2.16.06,4.45-.02,6.54.61,2.04.9,4.39.82,6.54,1.37,3.81.83,7.62,1.86,11.45,2.63,6.99,1.39,14.1,2.98,21.26,2.09,2.43-.25,4.96-.45,7.36-.9,3.03-.61,6.04-1.58,8.99-2.49,2.68-.71,5.38-1.95,8.18-2.07,1.94.06,3.41,1.62,4.91,2.63.99-1.77,1.81-4.87,4.09-5.27,1.49.48,2.41,2.26,3.27,3.46,1.43,2.18,3.15,4.58,5.72,5.45,5.27,1.79,10.4-1.48,15.53-2.33,2.14-.39,4.41-.24,6.54.09.73.1,1.73.25,2.45.37.9.4,1.73,1.45,2.45,2.09,3.31,3.09,6.58,3.95,9.81.2,1.86-2.14,3.35-4.84,4.91-7.21,1.05-1.55,2.33-3.4,4.09-4.2,2.06-.86,4.1.7,5.72,1.81,1.76,1.26,3.72,2.48,5.72,3.31,1.14,1.2,2.59,2.41,4.09,3.14"/><path class="b" d="M13.84,199.66c1.03-.36,2.33-.5,3.27-1.07,1.92-1.6,4-3.38,6.54-3.81,1.85-.32,3.85-.29,5.72-.34,2.18-.06,4.5.07,6.54.92,6.68.19,13.12,2.49,19.62,3.86,3.25.71,6.51,1.68,9.81,2.16,3.5.51,7.12.36,10.63-.03,5.29-.5,10.49-1.88,15.53-3.52,2.42-.73,4.88-1.66,7.36-2.19,1.87-.35,3.61.92,4.91,2.13l.82-.48c.78-1.34,1.57-3.54,3.27-3.87,1.53.37,2.42,2.23,3.27,3.41,1.06,1.62,2.36,3.47,4.09,4.44,2.22,1.17,4.93,1.25,7.36.84,1.33-.22,2.75-.78,4.09-.95,4.81-.93,9.82-2.09,14.72-1.11,6.42,6.48,9,5.82,13.9-1.64,2.13-2.93,4.08-7.42,8.17-7.69,2.65.2,4.91,2.05,7.36,2.93.71.29,1.72.63,2.45.86,1.46,1.08,3.15,2.12,4.91,2.65"/><path class="b" d="M13.84,198.11c1.32-.36,3-.25,4.09-1.17,2.17-1.64,4.59-3.24,7.36-3.58,3.26-.52,6.64-.52,9.81.45,4.12-.48,8.27.57,12.26,1.44,5.76,1.24,11.44,3,17.17,4.35,9.3,1.9,18.84-.53,27.8-3.04,1.87-.59,3.88-1.14,5.72-1.83,2.64-1.27,4.48-.99,6.54,1.17,1.39-.78,1.7-3.02,3.27-3.64l.82.08c2.06,1.52,3.02,4.32,4.91,6.04,2.6,2.39,6.57,2.36,9.81,1.58,1.04-.25,2.23-.72,3.27-.97,1.02-.12,2.25-.29,3.27-.4,3.78-.4,7.65-.49,11.45-.24,3.49,3.5,6.53,6.64,10.63,1.74,3.44-3.72,5.64-10.61,11.45-10.91,1.95.04,3.87.92,5.72,1.46,1.57.5,3.32.85,4.91,1.29,1.26.54,2.76.91,4.09,1.24"/><path class="b" d="M13.84,196.41c1.32-.2,2.9-.05,4.09-.73,2.57-1.44,5.2-3.06,8.18-3.45,2.42-.4,5.06-.42,7.36.53,1.87-.21,3.83-.6,5.72-.5,4.13.17,8.22,1.21,12.26,2,4.96.99,9.8,2.61,14.72,3.74,5.11,1.16,10.43.76,15.53-.28,3.81-.64,7.69-1.25,11.45-2.2,1.89-.51,3.97-.88,5.72-1.78,2.55-1.55,4.23-2.23,6.54.26,1-.58,1.53-2.12,2.45-2.79l.82-.2c1.88.77,2.76,3.16,4.09,4.58,2.29,2.91,6.43,3.24,9.81,2.46,1.63-.37,3.33-1,4.91-1.55,4.6-.5,9.29-.21,13.9.1,1.75,1.49,3.38,3.59,5.72,4.11,6.36.52,8.39-12.67,16.35-13.08,2.18-.21,4.41.45,6.54.83,2.72.51,5.5,1.08,8.18,1.78"/><path class="b" d="M13.84,194.65c1.03-.03,2.27.06,3.27-.22,1.63-.54,3.31-1.31,4.91-1.94,3.34-1.28,7.23-1.89,10.63-.51,2.65-.65,5.44-1.12,8.18-1.01,4.11.26,8.21,1.16,12.26,1.89,2.98.6,6.06,1.15,8.99,1.96,4,1.08,8.09,2.23,12.26,2.22,3.01.02,6.02-.67,8.99-1.01,4.08-.48,8.23-.84,12.26-1.66,5.37-.5,6.34-6.15,10.63-1.9.68-.82,1.41-2.21,2.45-2.63,2.7.07,3.78,5.5,8.18,6.27,3.91.97,7.75-.74,11.45-1.83,1.27-.37,2.78-.13,4.09-.14,2.43.1,4.93.32,7.36.5,1.39-.14,2.34.98,3.27,1.82,3.01,2.72,6.05,3.62,8.99.24,2.49-2.78,4.37-6.32,7.36-8.63,3-2.31,7.04-2.36,10.63-1.78,2.73.38,5.51.93,8.18,1.62"/><path class="b" d="M13.84,192.82c1.93.3,3.9-.29,5.72-.85,2.12-.64,4.34-1.32,6.54-1.59,1.31-.16,2.79-.17,4.09.1.75.15,1.67.6,2.45.44,2.37-.66,4.9-1.08,7.36-1.19.98-.44,2.2-.76,3.27-.79,3.4-.14,6.63,1.26,9.81,2.23,5.21.85,10.42,1.88,15.53,3.16,2.39.54,4.9.95,7.36.9,2.44-.08,4.93-.61,7.36-.8,4.34-.39,8.78-.34,13.08-1.13,1.46-.2,2.96-.92,4.09-1.87.93-.74,2.02-1.82,3.27-1.93,1.18-.02,2.2,1,3.27,1.34.52-.86,1.31-2.2,2.45-2.23,1.38.32,2.34,1.8,3.27,2.76,2.15,2.63,5.76,3.42,8.99,2.79,2.74-.53,5.44-1.54,8.18-2.09,1.59-.17,3.32.15,4.91.27,1.87.23,3.87.29,5.72.59,11.58,10.92,12.31-2.65,21.26-7.16,5.15-2.33,11.1-1.23,16.35.2"/><path class="b" d="M13.84,190.91c4.43.25,8.67-1.72,13.08-1.85,1.04-.04,2.26.06,3.27.29.76.17,1.67.68,2.45.39,1.29-.39,2.81-.52,4.09-.97,2.3-1.82,5.31-2.46,8.18-1.96,3.93.43,7.77,1.63,11.45,3.05,5.74.94,11.42,2.4,17.17,3.3,3.54.59,7.1-.39,10.63-.59,4.07-.24,8.23.02,12.26-.65,5.01-.44,5.64-6.06,10.63-2.39.88-.46,1.52-1.69,2.45-2.06,2.97-.22,4.19,4.68,9.81,4.8,4.18.16,8.14-1.77,12.26-2.11,1.59.17,3.31.38,4.91.54,1.03.14,2.3.08,3.27.51.99.79,2.2,1.7,3.27,2.37,3.38,2.22,6.79,2.49,9.81-.49,2.92-2.75,5.37-6.24,8.99-8.13,5-2.53,11.19-2.5,16.35-.47"/><path class="b" d="M13.84,188.88c4.66.41,9.24-1.35,13.9-1.24,1.05.03,2.27.24,3.27.56.44.22,1.16.34,1.64.21,1.2-.16,2.28-1.12,3.27-1.75,2.7-1.89,5.84-2.14,8.99-1.54,2.15.31,4.41.5,6.54.9,2.48.48,4.97,1.29,7.36,2.11,4.55,1.2,9.25,2.13,13.9,2.89,1.85.28,3.85.48,5.72.32,1.87-.22,3.83-.66,5.72-.78,3.79-.27,7.67.15,11.45-.36,1.38-.16,2.9-.54,4.09-1.29,1.46-.91,3.05-2.39,4.91-1.83,1.07.25,2.17,1.08,3.27,1.22,2.8-4.85,5.58.24,8.99,1.24,2.34.84,4.95.74,7.36.29,2.7-.42,5.44-1.24,8.18-1.37,1.86.31,3.85.5,5.72.76,1.76,1.3,3.7,2.6,5.72,3.46,4.15,2.02,7.49-.17,10.63-2.87,2.55-2.25,4.99-4.91,8.18-6.27,4.9-1.81,10.77-2.71,15.53-.05"/><path class="b" d="M13.84,186.93c6,.7,12.08-1.88,17.99-.05,6.01-4.11,7.8-4.03,14.72-2.8,2.97.33,6.06.19,8.99.85,3.04.57,5.98,1.78,8.99,2.43,4.79,1.16,9.74,2.44,14.72,2.02,2.16-.3,4.35-.95,6.54-1.03,3.25-.18,6.58.14,9.81-.32,2.02-.19,3.92-1.18,5.72-2.05,2.12-.68,4.68-.59,6.54.72,1.16-.43,1.9-1.81,3.27-1.78,2.6.36,4.76,2.35,7.36,2.82,2.39.58,4.95.46,7.36.12,3.5-.43,7.21-1.71,10.63-.26,1.74,1.26,3.7,2.46,5.72,3.23,4.48,1.8,7,.51,10.63-2.22,3.3-2.57,6.43-5.79,10.63-6.83,1.83-.55,3.84-.54,5.72-.69,3.07-.42,6.32-.03,8.99,1.62"/><path class="b" d="M13.84,185.1c5.17.75,10.37-.83,15.53-.28,1.49.37,2.84-.46,4.09-1.14,1.26-.61,2.71-1.21,4.09-1.48,3.3-.83,6.55.67,9.81.97,3.24.28,6.58-.2,9.81.3,8.4,1.09,16.76,5.89,25.34,3.44,3.98-1.15,8.2-.64,12.26-1.08,1.64-.17,3.36-.63,4.91-1.19,1.29-.31,2.77-.45,4.09-.52.73-.04,1.73-.02,2.45.1.74.13,1.69.57,2.45.37.95-.49,2.19-.96,3.27-.97,1.67.12,3.33.92,4.91,1.43,1.55.53,3.28.94,4.91,1.11,2.7.29,5.5-.04,8.18-.42,1.31-.09,2.81-.65,4.09-.24.39.29,1.24.88,1.63,1.17,3.05,2.17,6.85,3.55,10.63,3.13,5.34-1.27,8.89-6.23,13.9-8.28,2.8-1.2,5.97-1.59,8.99-1.37,3.07-.36,6.34.02,8.99,1.7"/><path class="b" d="M13.84,183.4c5.44.64,10.91-.32,16.35-.35,1.11-.08,2.23-.81,3.27-1.15,1.54-.59,3.26-1.02,4.91-1.16,3.35-.41,6.51,1.38,9.81,1.6,4.61.24,9.3-.72,13.9.13,5.49.82,10.72,3.41,16.35,3.25,2.79.04,5.44-1.17,8.18-1.54,3.79-.46,7.7-.3,11.45-1.18,3.23-.34,6.59-.64,9.81-.13.76.06,1.71-.32,2.45-.43,1.02-.14,2.25-.22,3.27-.12,3.01.46,5.96,1.61,8.99,1.99,2.69.5,5.48,0,8.18.02,1.95.58,4,1.18,5.72,2.29,2.76,1.36,6,1.62,8.99.99,5.32-.8,8.99-5.31,13.9-7.15,2.83-1.13,5.97-1.46,8.99-1.35,3.32-.37,6.87-.07,9.81,1.64"/><path class="b" d="M13.84,181.79c2.69.24,5.47.4,8.18.2,2.7-.26,5.47-.44,8.18-.63,3.41-1.03,7.01-2.29,10.63-1.86,2.2.37,4.36,1.27,6.54,1.7,4.32.77,8.74-.31,13.08-.36,2.44-.03,4.97.27,7.36.78,2.43.59,4.88,1.46,7.36,1.89,2.4.46,4.98.43,7.36-.15,1.59-.44,3.27-1.02,4.91-1.26,5.41-.66,10.89-1.18,16.35-1.06,1.59-.04,3.32.23,4.91.07,2.13-.34,4.39-.11,6.54-.08,3.29.26,6.52,1.44,9.81,1.76,1.08.01,2.28.42,3.27.8,1.57.52,3.3.98,4.91,1.35,1.61.28,3.29.86,4.91,1.08,1.6.18,3.34-.06,4.91-.42,5.75-1.29,10.81-4.56,16.35-6.44,2.08-.68,4.38-.84,6.54-1.06,4.1-.54,8.47-.48,12.26,1.34"/><path class="b" d="M13.84,180.24c2.69.31,5.47.5,8.18.31,2.71-.22,5.47-.6,8.18-.8,3.69-.93,7.62-2.08,11.45-1.48,2.19.45,4.34,1.41,6.54,1.82,4.88.83,9.83-.46,14.72-.62,2.44-.05,4.96.17,7.36.61,2.4.67,4.87,1.46,7.36,1.71,1.88.2,3.89.04,5.72-.42,2.12-.64,4.33-1.35,6.54-1.58,5.14-.69,10.37-.38,15.53-.32,1.31.07,2.78-.08,4.09-.09,1.59.04,3.31.23,4.91.32,2.16.14,4.43-.08,6.54.48,2.28.49,4.3,2.06,6.54,2.74,3.89,1.22,8.25,1.94,12.26.93,5.25-1.62,10.18-4.27,15.53-5.57,3.19-.83,6.53-1.29,9.81-1.58,4.38-.46,8.91-.25,13.08,1.25"/><path class="b" d="M13.84,178.79c2.96.39,6.02.61,8.99.33,2.7-.32,5.49-.7,8.18-1.11,3.47-.64,7.08-1.56,10.63-1.25,1.93.3,3.85,1.09,5.72,1.63,1.83.5,3.83.68,5.72.63,5.18-.08,10.34-1.3,15.53-.93,3.9,0,7.55,1.82,11.45,1.79,3.94.17,7.55-1.89,11.45-2.1,5.16-.44,10.38.47,15.53-.12,2.16-.02,4.39.43,6.54.64,2.43.2,4.96.25,7.36.76,2.41,1.09,4.71,2.71,7.36,3.21,2.12.44,4.4.36,6.54.13,1.03-.13,2.31-.06,3.27-.52,3.29-1.41,6.4-3.39,9.81-4.52,2.87-1,5.99-1.26,8.99-1.6,4.33-.39,8.73-.77,13.08-.63,2.74.13,5.51.72,8.18,1.31"/><path class="b" d="M13.84,177.43c2.95.4,6.01.68,8.99.4,3.27-.35,6.55-1.13,9.81-1.56,1.87-.31,3.84-.65,5.72-.86,1.88-.34,3.88-.36,5.72.21,2.13.62,4.31,1.48,6.54,1.68,5.45.52,10.92-.44,16.35-.76,2.43-.07,4.94,0,7.36.25,2.38.6,4.89,1.12,7.36,1.05,2.79.04,5.49-.91,8.18-1.49,2.67-.53,5.48-.46,8.18-.18,1.02.08,2.24.26,3.27.24,1.28-.39,2.75-.67,4.09-.66,2.18.02,4.4.56,6.54.92,2.19.26,4.42.72,6.54,1.34,1.3.33,2.78.68,4.09.99,1.07.32,2.2,1.05,3.27,1.37,3.81,1.24,7.66-.73,11.45-1.13,1.81-.43,3.28-1.99,4.91-2.85,2.24-1.29,4.79-2.28,7.36-2.61,1.86-.24,3.85-.04,5.72-.07,4.62.04,9.28-.29,13.9-.1,3.01.14,6.01.95,8.99,1.31"/><path class="b" d="M13.84,176.11c3.23.45,6.56.81,9.81.42,3.55-.48,7.07-1.48,10.63-1.93,2.43-.33,4.92-.86,7.36-1.09,1.64-.02,3.36.42,4.91.92,7.12,2.24,14.78.87,22.07.49,2.42-.08,4.94-.07,7.36.07,2.15.22,4.36.77,6.54.72,3.32.14,6.55-.93,9.81-1.35,1.31-.14,2.78-.03,4.09.06,1.6-.16,3.26-.84,4.91-.77,3.03-.16,6.07.46,8.99,1.18,1.3.33,2.81.48,4.09.87,1.3.49,2.76,1.01,4.09,1.42,1.84.56,3.83,1.05,5.72,1.44,1.86.57,3.92.63,5.72-.19,2.09-.96,4.27-2.01,6.54-2.48.39-.09,1.24-.26,1.64-.33,1.14-.51,2.21-1.58,3.27-2.24,3.59-2.36,8.14-2.77,12.26-1.87,4.87.65,9.83.27,14.72.5,3.3.11,6.51,1.29,9.81,1.45"/><path class="b" d="M13.84,174.79c3.76.56,7.66,1.04,11.45.36,2.99-.57,5.98-1.44,8.99-1.9,1.86-.41,3.87-.62,5.72-1.04,2.12-.65,4.44-.46,6.54.16,2.9.88,5.98,1.21,8.99,1.26,4.08.27,8.2-.02,12.26-.35,5.17-.33,10.38-.29,15.53.23,3.54.12,7.13-.48,10.63-.91,1.21-.67,2.71-1.08,4.09-1.14,3.87-.18,7.73.56,11.45,1.61,1.3.32,2.77.65,4.09.89.72.33,1.72.76,2.45,1.05,3.37,1.3,7.03,2.01,10.63,2.22,2.22-.39,3.91-2.17,5.72-3.36,1.21-.79,2.7-1.48,4.09-1.88,1.05-.37,2.45-.26,3.27-1.1,3.89-3.11,9.37-2.96,13.9-1.51,4.82,1.09,9.83.56,14.72.83,3.33.1,6.47,1.64,9.81,1.62"/><path class="b" d="M13.84,173.42c4.03.66,8.21,1.26,12.26.46,1.9-.35,3.86-.92,5.72-1.45,2.17-.33,4.38-.98,6.54-1.35,1.9-.29,3.78-1.22,5.72-1.16,2.19.04,4.38.78,6.54,1.05,3.23.4,6.56.53,9.81.66,6.26,0,12.54-.7,18.8-.61,4.9-.04,10.18,1.16,14.72-1.23,1.8-.64,3.85-.44,5.72-.27,4.46.21,8.72,1.81,13.08,2.63,1.39.23,2.72,1.19,4.09,1.55,1.81.6,3.82.9,5.72.99,1.59.08,3.32.05,4.91-.15.93-.25,1.81-1.21,2.45-1.88,2.44-2.96,5.92-5.12,9.81-5.29,1.67-1.09,3.75-1.52,5.72-1.51,1.6-.05,3.35.09,4.91.5,2.11.71,4.3,1.58,6.54,1.79,4.05.55,8.2-.06,12.26.26,3.06.16,5.89,1.91,8.99,1.67"/><path class="b" d="M13.84,171.93c4.56.85,9.31,1.58,13.9.48,1.9-.41,3.86-1.02,5.72-1.57,3.29-.72,6.65-1.5,9.81-2.67,3.52-.73,7.09.74,10.63.77,6.25.59,12.54.62,18.8.24,2.42-.1,4.93-.25,7.36-.29,2.96.31,6.05.39,8.99-.14,1.63-.27,3.25-1.14,4.91-1.28,5.26-.26,10.44,1.17,15.53,2.28,1.31.28,2.77.58,4.09.83,1,.46,2.21,1.01,3.27,1.32,3.74,1.05,7.81.41,11.45-.78,1.29-.9,2.14-2.64,3.27-3.72,1.52-1.6,3.55-2.92,5.72-3.39,1-.22,2.25-.28,3.27-.13.99-.3,2.23-.52,3.27-.46,2.18.1,4.48.35,6.54,1.11,2.07.93,4.26,1.89,6.54,2.14,6.03.91,12.22-1.35,17.99,1.32,1-.28,2.23-.45,3.27-.39"/><path class="b" d="M13.84,170.21c4.55.9,9.28,1.7,13.9.88,2.75-.48,5.5-1.35,8.18-2.13,2.44-.69,5.05-1.24,7.36-2.33,2.81-1.42,6.03-.36,8.99-.16,4.61.34,9.27.85,13.9.89,3.8.06,7.65-.09,11.45-.33,2.69.06,5.47.5,8.18.16,2.23-.09,4.37-1.06,6.54-1.42,4.93-.1,9.89.78,14.72,1.75,2.41.57,5.01.8,7.36,1.57,3.03,1.51,6.63,1.54,9.81.5,1.36-.43,2.83-1.05,4.09-1.73,1.59-1.77,2.87-4.11,4.91-5.46,2.54-1.83,6.04-2.63,8.99-1.36,1.6.22,3.33.53,4.91.93,1.99.45,3.91,1.45,5.72,2.35,1.89.2,3.88.53,5.72.98,3.46.93,7.11-.28,10.63-.26,1.32-.03,2.82.12,4.09.52.79-.02,1.71-.62,2.45-.83.69-.19,1.73-.28,2.45-.22"/><path class="b" d="M13.84,168.16c5.34,1.12,10.93,1.75,16.35.8,2.75-.5,5.5-1.3,8.18-2.1,1.92-.55,3.98-1.07,5.72-2.08,2.21-1.39,4.91-.96,7.36-.67,2.14.24,4.39.35,6.54.57,6.5.64,13.09,1.1,19.62.58,2.7.15,5.48.47,8.18.11,1.93-.13,3.82-.97,5.72-1.24,6.02.09,12.07.89,17.99,2.03,1.59.32,3.34.56,4.91.99.98.44,2.21.82,3.27.98,3.4.43,7.02-.65,9.81-2.58,1.98-3.18,4.43-6.51,8.18-7.68,5.88-2.05,8.07,1.69,13.08,3.29,1.82.57,3.87.39,5.72.78,2.72.49,5.46,1.29,8.18,1.82,2.68.69,5.46-.47,8.18-.34,1.16.2,2.29-.78,3.27-1.28,1.15-.75,2.71-1.13,4.09-1"/><path class="b" d="M13.84,165.96c7.52,1.67,15.42,1.46,22.89-.36,3.12-.64,6.35-1.32,8.99-3.2,2.01-1.07,4.39-.58,6.54-.33,1.87.22,3.85.35,5.72.55,2.12.46,4.39.48,6.54.66,3.51.34,7.1.66,10.63.59,1.32-.02,2.78-.15,4.09-.28,2.42.1,4.94.25,7.36-.08,1.34-.13,2.77-.65,4.09-.89,1.59-.2,3.31.18,4.91.22,5.48.15,10.97.83,16.35,1.88,1.65.21,3.31.84,4.91,1.24,1.58.31,3.33.24,4.91-.09,1.87-.38,3.95-.98,4.9-2.8,2.29-3.87,5.18-7.3,9.81-8.22,6.21-1.67,8.97,3.78,14.72,4.28,6.46.78,13.19,4.31,19.62,1.63,2.36-1.08,4.58-3.13,7.36-2.72"/><path class="b" d="M13.84,163.74c7.26,1.56,14.81.88,22.07-.33,2.68-.54,5.71-.13,8.18-1.5,1.25-.84,2.54-2.02,4.09-2.23,1.89-.16,3.85.43,5.72.61,2.22.08,4.35.97,6.54,1.24,2.69.39,5.49-.03,8.18.45,4.37.64,8.7.62,13.08.1,2.15-.17,4.4-.31,6.54-.59,1.03-.17,2.22-.56,3.27-.56,2.97.27,6.01.38,8.99.47,4.64.42,9.34.85,13.9,1.84,2.87,1.02,6.07,1.09,8.99.24,1.84-1.06,2.92-3.35,4.09-5.05,2.12-3.39,5.88-5.56,9.81-6.04,4.34-.82,7.02,2.02,10.63,3.73,1.76.87,3.86,1.05,5.72,1.6,2.67.72,5.42,1.52,8.18,1.82,9.35,1.18,10.5-4.83,16.35-4.21"/><path class="b" d="M13.84,161.56c5.11,1.04,10.39.79,15.53.11,4.06-.47,8.16-1.4,12.26-.86,3.5.38,4.38-4.1,8.18-3.09,2.13.51,4.35,1.03,6.54,1.24,1.83.58,3.79,1.13,5.72,1.19,1.31.08,2.77-.04,4.09-.05,3.24.45,6.53,1.09,9.81,1.19,3.53-.05,7.12-.43,10.63-.86,1.89-.22,3.79-1.07,5.72-1.02,4.63.11,9.3.27,13.9.83,3.27.32,6.64.54,9.81,1.43,2.11.49,4.41.48,6.54.09.93-.48,1.83-1.58,2.45-2.39,1.28-1.77,2.43-3.99,4.09-5.45,2.67-2.31,6.32-3.39,9.81-3.44,3.46-.1,6.05,2.67,8.99,4.08,2.04.99,4.4,1.41,6.54,2.15,3.67,1.11,7.63,1.98,11.45,1.14,1.72-.38,3.47-1.18,4.91-2.19,2.1-1.58,4.61-3.16,7.36-2.58"/><path class="b" d="M13.84,159.47c5.13.95,10.41.5,15.53-.31,4.04-.54,8.25-1.68,12.26-.41,3.56.99,3.82-4.84,8.18-2.76,2.81,1.34,5.93,1.76,8.99,2.02,2.38.71,4.95.25,7.36.68,4.33.58,8.69,1.8,13.08,1.32,3.27-.25,6.65-.48,9.81-1.43,1.54-.54,3.29-.58,4.91-.62,1.02-.06,2.25-.23,3.27-.12,5.18.16,10.37.85,15.53,1.27,3.23.48,6.54,1.42,9.81.68,2.71-2.04,3.9-5.62,6.54-7.71,3.19-2.35,7.52-3.53,11.45-2.86,3.01.93,5.27,3.51,8.18,4.7,4.96,1.67,10.21,3.94,15.53,2.94,6.35-.46,7.93-6.85,13.9-5.71"/><path class="b" d="M13.84,157.53c5.17.83,10.43.21,15.53-.72,4.05-.65,8.39-1.78,12.26.16,3.21.06,3.24-5.52,7.36-2.62,4.46,3.62,9.44,2.49,14.72,2.85,5.2.2,10.3,2.14,15.53,1.67,3.29-.22,6.67-.56,9.81-1.62,2.08-.71,4.39-.59,6.54-.89,3.24-.5,6.58.05,9.81.4,2.97.35,6.03.34,8.99.72,1.86.3,3.83.67,5.72.59,1.07-.07,2.44.07,3.27-.75,1.91-1.63,3.15-4.11,4.91-5.88,2.82-2.58,6.84-3.78,10.63-3.65,3.22.33,5.42,3.21,8.18,4.62,2.57,1.27,5.43,2.13,8.18,2.95,4.08-.26,8.2-.65,12.26-1.15.38-.03,1.25-.13,1.64-.21.4-.3,1.26-.95,1.63-1.29,2.08-2.08,4.16-3.95,7.36-3.29"/><path class="b" d="M13.84,155.78c4.63.55,9.35.09,13.9-.82,2.95-.49,5.99-1.26,8.99-1.08,1.4.14,2.83.8,4.09,1.39l.82-.22c1.03-1.09,1.96-2.68,3.27-3.46,3.2-.77,4.23,5.54,10.63,5.12,3.8-.18,7.64-.9,11.45-.43,3,.27,6,1.05,8.99,1.34,1.87.18,3.86-.01,5.72-.17,3.07-.17,6.04-1.16,8.99-1.93,2.42-.36,4.94-.55,7.36-.92,2.43-.37,4.94.2,7.36.48,2.41.32,4.93.39,7.36.51,3.25.24,6.55.86,9.81.35,4.04-.77,4.5-7.57,13.08-8.96,1.6-.28,3.44-.29,4.91.51,1.95,1.21,3.81,2.8,5.72,4.06,1.44,1.01,3.13,2.12,4.91,2.34,1.85-.42,3.83-.81,5.72-.96,4.62-.32,9.27-.72,13.9-.9,2.24-2.06,3.92-4.51,7.36-4.05"/><path class="b" d="M13.84,153.72c1.87.15,3.85.32,5.72.46,1.6-.03,3.32-.31,4.91-.56,4.81-.66,10.2-2.93,14.72-.12,1.94-.79,2.65-3.85,4.91-4.02,1.9.62,2.88,2.85,4.09,4.29,3.33,4.71,8.48,2.32,13.08,1.52,3.22-.6,6.59-.48,9.81.07,1.87.3,3.83.7,5.72.84,2.98.11,6.07-.15,8.99-.73,1.62-.34,3.29-1,4.91-1.34,1.29-.29,2.78-.33,4.09-.54,2.95-.41,6.03-1.13,8.99-.51,3.22.58,6.55.77,9.81.83,3.25.26,6.58.5,9.81-.1,1.31-.01,2.4-1.03,3.27-1.9,1.28-1.26,2.58-2.85,4.09-3.85,2.8-1.8,6.82-3.01,9.81-1.01,1.06.76,2.34,1.68,3.27,2.59,1.01.98,2.06,2.35,3.27,3.09,2.76-.37,5.43-1.45,8.18-1.84,5.14-.54,10.37-.59,15.53-.47,1.38.3,2.38-1.06,3.27-1.88,1.08-.98,2.62-1.63,4.09-1.63"/><path class="b" d="M13.84,151.67c1.87.11,3.85.21,5.72.32,1.6.1,3.33.28,4.91-.12,3.99-.61,8.36-2.15,12.26-.4,2.4-.22,3.18-3.97,5.72-3.91,3.02,1.62,3.75,5.79,6.54,7.74,2.75,1.84,6.16.36,8.99-.53,2.36-.79,4.87-1.45,7.36-1.57,3.29-.2,6.59.48,9.81,1.01,4.91.69,10.01.16,14.72-1.37,2.93-.66,6.02-.86,8.99-1.35,1.31-.11,2.77-.29,4.09-.33,1.86.32,3.84.71,5.72.88,1.86.18,3.85.2,5.72.23,2.43.13,4.95.22,7.36-.16,5.58-.75,4.94-.9,8.99-4.5,2.48-1.87,6.1-3.05,8.99-1.45,2.11,1.18,3.48,3.5,4.91,5.38,1.21-.6,1.97-2.15,3.27-2.66,2.02-.89,4.37-1.08,6.54-.75,1.04.1,2.22.62,3.27.57,5.17-.31,10.37.36,15.53.33,1.45-1.13,3.01-2.53,4.91-2.78"/><path class="b" d="M13.84,149.77c2.15.08,4.39.14,6.54.23,1.59.02,3.33.34,4.91,0,1.86-.3,3.83-.64,5.72-.68,1.04-.08,2.3.35,3.27-.16.75-.25,1.8-.5,2.45-.98,1.13-1.01,2.41-2.66,4.09-2.51,2.69,1.6,3.69,5.18,5.72,7.46,5.05,5.95,11.33-3.25,22.07-2.03,2.73.19,5.47.86,8.18,1.21,2.69.27,5.49.19,8.18-.03,2.21-.18,4.38-1.03,6.54-1.44,2.14-.31,4.4-.53,6.54-.86,1.87-.16,3.86-.48,5.72-.46,1.59.3,3.3.64,4.91.83,3.23.35,6.56.29,9.81.29,3.31-.18,6.62-.9,9.81-1.76,1.78-.73,3.09-2.53,4.91-3.25,4.34-1.8,6.7-.67,8.99,3.32l.82.09c.84-.7,1.61-1.99,2.45-2.68,1.57-1.27,3.78-1.43,5.72-1.47,2.18-.02,4.45.28,6.54.91,1.36.27,2.72,1.35,4.09,1.32,4.08.09,8.18.98,12.26.72,1.28-.73,2.66-1.7,4.09-2.14"/><path class="b" d="M13.84,147.99c2.43.05,4.93.07,7.36.17,2.16.15,4.39.24,6.54-.09,2.62.09,4.93-1.51,7.36-2.3,1.36-.95,3.2-2.73,4.91-1.56,2.31,2.19,3.53,5.49,5.72,7.8,5.31,5.45,10.7-4.44,22.07-3.39,4.12.18,8.14,1.59,12.26,1.61,2.98.1,6.08.2,8.99-.54,2.89-.92,6.01-1,8.99-1.4,1.87-.2,3.86-.28,5.72-.5,2.95.58,5.98,1.18,8.99,1.22,2.15,0,4.4.09,6.54-.07,2.17-.2,4.41-.65,6.54-1.12,1.57-.46,3.36-.6,4.91-1.12,3.18-2.5,7.47-3.96,9.81.43.99-.24,1.97-1.1,2.45-1.98.61-.73,1.57-1.56,2.45-1.92,3.93-1.14,8.31-.91,12.26.03,1.35.36,2.82.88,4.09,1.45.75.35,1.72.92,2.45,1.3.4.04,1.23.12,1.63.17,2.69.29,5.46.78,8.18.65,1.38-.38,2.75-1.25,4.09-1.74"/><path class="b" d="M13.84,146.27c3.8.04,7.66,0,11.45.31,1.69-.16,3.35-1.1,4.91-1.73,2.16-.91,4.33-2.09,6.54-2.84,2.99-.51,4.83,4.55,6.54,6.47,3.03,4.21,5.7,3.9,9.81,1.38,1.53-.84,3.06-2.16,4.91-2,4.09-.32,8.2-1.02,12.26-1.57,2.99.42,5.98,1.26,8.99,1.47,2.44-.02,4.93.56,7.36.45,1.91-.15,3.85-.82,5.72-1.17,3.78-.52,7.66-.59,11.45-.97,2.42.41,4.91.98,7.36,1.2,2.14.21,4.39.12,6.54.16,4.99-.07,9.75-2.04,14.72-2.28,1.71-.93,3.94-1.71,5.72-.54,0,0,.82.68.82.68l.82.17c1.66-1.72,3.18-4.08,5.72-4.48,4.86-.84,9.99-.65,14.72.81,1.35.42,2.84.97,4.09,1.63,1.05.5,2.14,1.44,3.27,1.74,2.41.26,4.94.71,7.36.43,1.02-.39,2.24-.87,3.27-1.24"/><path class="b" d="M13.84,144.6c1.87.01,3.85-.01,5.72,0,1.6,0,3.34.18,4.91-.25,3.71-.82,6.89-3.32,10.63-4.07,3.71-.93,5.76,5.04,8.18,7.17,3.19,3.43,5.62,1.74,8.99-.2,5.76.34,11.47-1.13,17.17-1.78,2.42-.2,4.95-1.09,7.36-.53,1.3.24,2.77.36,4.09.42,2.09.62,4.36,1.06,6.54.83,1.92-.18,3.83-.94,5.72-1.22,3.51-.41,7.1-.43,10.63-.59,2.7.39,5.45,1.04,8.18,1.27,2.97.16,6.04.36,8.99-.03,4.35-.57,8.64-2.41,13.08-1.86,1.36-.04,2.93-.12,4.09.76,2.12-2.1,3.25-4.71,6.54-5.22,5.67-.98,11.64-.57,17.17,1.01,2.94.72,5.55,2.4,8.18,3.83,1.31.13,2.78.23,4.09.28,1.35-.18,2.78-.77,4.09-1.15"/><path class="b" d="M13.84,142.96c3.55-.06,7.2.23,10.63-.88,4.18-1.34,8.66-5.07,13.08-2.44,1.63,1.12,2.73,3.15,4.09,4.57,1.66,1.92,4.02,3.48,6.54,2.16,3.79.5,7.68.04,11.45-.44,6.26-.82,12.52-1.92,18.8-2.5,1.05-.15,2.24.32,3.27.44,1.58.19,3.31.26,4.91.31,2.77.02,5.43-1.18,8.18-1.36,2.96-.19,6.03-.29,8.99-.11,2.16.24,4.39.7,6.54,1.01,4.04.45,8.23.91,12.26.16,3.52-.62,7.02-1.87,10.63-1.78.73.02,1.74.16,2.45.34.34.18,1.24.3,1.64.22,3.56-4.3,4.99-5.05,10.63-5.36,5.21-.27,10.49.32,15.53,1.62,3.18.83,6.08,2.56,8.99,4,1.9.27,3.88-.6,5.72-.99"/><path class="b" d="M13.84,141.33c5.85.08,8.59-.27,13.9-2.8,1.76-.74,3.81-1.64,5.72-.96,3.76,1.58,6.1,5.45,9.81,7.17,2.51,1.34,5.46.88,8.18.67,5.74-.3,11.48-.93,17.17-1.77,2.7-.37,5.47-.8,8.18-1.11,1.34-.26,2.78.24,4.09.43,3.86.58,7.77-.39,11.45-1.51,2.12-.44,4.38-.44,6.54-.46,3.83-.18,7.68.33,11.45.96,2.41.39,4.94.45,7.36.75,3.3.27,6.62-.54,9.81-1.27,1.84-.42,3.82-.82,5.72-.84,1.05-.1,2.29.47,3.27-.02,3.61-3.16,4.81-4.16,9.81-4.68,6.27-.48,12.7.29,18.8,1.75,3.07.78,5.84,2.64,8.99,3.12,1.3.38,2.8-.12,4.09-.37"/><path class="b" d="M13.84,139.72c1.87-.05,3.86-.02,5.72-.25,2.23-.44,4.45-1.31,6.54-2.19,3.19-1.36,5.46-2.22,8.18.53,4.68,4.87,7.5,7.97,14.72,6.15,5.12-.83,10.39-.2,15.53-.96,3.81-.43,7.65-1.09,11.45-1.6,1.59-.18,3.3.45,4.91.49,3.9.28,7.77-.85,11.45-2.03,1.84-.41,3.85-.38,5.72-.45,2.42-.06,4.94-.16,7.36.09,3.26.31,6.54.93,9.81,1.15,3.79.76,7.71.5,11.45-.47,1.86-.41,3.83-.88,5.72-1.09,1.03-.18,2.31.14,3.27-.32,2.12-1.28,4.09-3.06,6.54-3.74,3.43-.96,7.09-.99,10.63-.8,3.82.24,7.69.7,11.45,1.45,4.6,1.01,9.14,2.84,13.9,2.96"/><path class="b" d="M13.84,138.14c1.88-.03,3.86-.18,5.72-.41,1.93-.43,3.89-1.15,5.72-1.88,4.3-1.78,5.94-1.9,8.99,1.82,4.37,5.26,7.44,6.26,13.9,4.04,4.01-1.15,8.19.06,12.26.03,4.66.05,9.31-.86,13.9-1.56,1.31-.29,2.77.15,4.09.2,2.15.19,4.42.1,6.54-.33,2.47-.46,4.94-1.28,7.36-1.95,1.3-.24,2.77-.27,4.09-.32,2.7-.07,5.48-.24,8.18-.11,2.71.13,5.48.52,8.18.83,2.17.13,4.38.67,6.54.88,2.44.19,4.97-.18,7.36-.69,1.59-.33,3.3-.73,4.91-1.01,1.01-.21,2.28-.18,3.27-.49,2.48-1.11,4.68-3.05,7.36-3.71,3.44-.92,7.1-.85,10.63-.65,3.53.21,7.12.6,10.63,1.05,4.95.47,9.75,2.22,14.72,2.53"/><path class="b" d="M13.84,136.62c2.72-.18,5.57-.32,8.18-1.19,3.07-.78,6.92-3.63,9.81-1.1,2.77,2.69,5.38,6.86,9.81,6.31,1.69-.17,3.34-1,4.91-1.61,4.08-1.88,8.17-.13,12.26.62,4.9.86,9.88-.15,14.72-.97,2.42.04,4.93.4,7.36.15,3.91-.27,7.64-1.77,11.45-2.57,1.58-.21,3.31-.19,4.91-.25,5.45-.32,10.94-.07,16.35.64,1.9.09,3.84.69,5.72.91,2.43.29,4.97.05,7.36-.42,1.59-.3,3.31-.68,4.91-.99,1.03-.22,2.3-.27,3.27-.71,2.72-1.17,5.19-3.15,8.18-3.63,5.11-1.03,10.4-.19,15.53.22,3.52.37,7.11.68,10.63,1.12,2.98.4,5.99,1.13,8.99,1.37"/><path class="b" d="M13.84,135.19c2.45-.12,4.95-.56,7.36-1.02,2.18-.61,4.33-1.63,6.54-2.11,3.23-.93,5.23,2.21,7.36,4.02,1.76,1.56,4.28,2.21,6.54,1.48,1.96-.6,3.75-1.92,5.72-2.49,5.41-1.47,10.19,2.89,15.53,2.97,3,.19,6.05-.34,8.99-.87,2.97.04,6.03.34,8.99-.16,4.96-.64,9.64-3.08,14.72-2.82,5.72-.21,11.48-.31,17.17.4,2.19.1,4.39.67,6.54,1.07,2.13.33,4.41.29,6.54-.04,2.98-.54,6.09-.96,8.99-1.85,2.96-1.24,5.72-3.21,8.99-3.58,5.43-.79,10.94.32,16.35.8,3.51.4,7.11.62,10.63.93,2.43.25,4.93.74,7.36,1.01"/><path class="b" d="M13.84,133.89c2.74-.21,5.5-.82,8.18-1.41,2.14-.65,4.3-1.69,6.54-1.96,3.31-.49,5.28,2.98,8.18,3.89.71.23,1.71.33,2.45.26.43-.15,1.23-.09,1.63.1,3.36,1.68,6.23-2.01,8.99-3.42,2.93.27,5.53,1.92,8.18,3.05,2.29,1.01,4.85,1.62,7.36,1.59,1.61-.01,3.32-.24,4.91-.51,2.97.15,6.03.34,8.99-.15,4.99-.55,9.67-3.06,14.72-3.13,6.54-.2,13.11-.26,19.62.49,1.63.08,3.33.44,4.91.85,1.84.39,3.84.58,5.72.47,3.56-.33,7.18-.96,10.63-1.92,3.21-1.29,6.27-3.27,9.81-3.54,5.74-.55,11.47.86,17.17,1.39,5.44.58,10.96.6,16.35,1.6"/><path class="b" d="M13.84,132.72c3.02-.38,6.04-1.15,8.99-1.9,2.38-.73,4.8-1.98,7.36-1.8,1.75.12,3.3,1.31,4.91,1.9.99.45,2.3.39,3.27.84,1.81,1.95,4.09,3.06,6.54,1.45,2.44-1.38,4.71-3.36,7.36-4.35,6.03,2.77,9.14,5.71,16.35,4.72,8.19,1.62,15.15-1.61,22.89-3.34,2.96-.26,6.02-.22,8.99-.2,2.95.48,6.01.7,8.99.68,2.16-.08,4.4-.05,6.54.28,2.4.54,4.87,1.27,7.36,1.23,3.85-.09,7.72-.88,11.45-1.82,1.94-.63,3.8-1.76,5.72-2.45,2.84-1.07,5.99-1.34,8.99-.98,6.52.83,13.03,2.1,19.62,2.27,1.59.08,3.32.22,4.91.42,1.31.18,2.76.49,4.09.31"/><path class="b" d="M13.84,131.62c3.32-.51,6.59-1.53,9.81-2.45,2.12-.65,4.28-1.7,6.54-1.71,1.93-.02,3.82.86,5.72,1.02,2.45,1.29,4.05,4.95,7.36,4.11,1.74-.56,3.34-1.76,4.91-2.66,1.79-1.05,3.76-2.06,5.72-2.76,1.16.18,2.25,1.1,3.27,1.62,1.52.86,3.22,1.68,4.91,2.13,2.12.61,4.44.32,6.54.99,7.56,1.41,14.88-1.82,22.07-3.67,2.39-.44,4.94-.24,7.36-.25,2.94.6,5.98,1.12,8.99,1.2,2.98.14,6.02-.15,8.99-.16,1.35.12,2.76.71,4.09.95,1.57.33,3.3.48,4.91.39,3.57-.3,7.19-.9,10.63-1.9,2.41-.97,4.8-2.31,7.36-2.88,5.16-1.19,10.39.92,15.53,1.41,3.78.57,7.64.8,11.45,1.02,2.7.19,5.45.93,8.18.57"/><path class="b" d="M13.84,130.5c3.63-.55,7.17-1.76,10.63-2.95,1.59-.5,3.26-1.22,4.91-1.51,1.85-.27,3.91-.13,5.72.33,2.16,1.17,3.49,3.62,5.72,4.67,2.64,1.13,5.07-1.21,7.36-2.22,2.57-1.22,5.32-2.55,8.18-2.88,1.77,1.06,3.71,2.1,5.72,2.63,1.43.32,2.73.42,4.09,1.06,8.25,2.59,16.61-1.46,24.53-3.54,2.12-.31,4.44-.34,6.54.07,2.94.69,5.97,1.3,8.99,1.46,3.8.24,7.65-.1,11.45-.3,2.64.73,5.41,1.44,8.18,1.17,3.29-.26,6.63-.85,9.81-1.71,2.7-1.02,5.3-2.62,8.18-3.14,2.44-.37,4.97.24,7.36.73,2.68.58,5.45,1.12,8.18,1.44,3.23.44,6.57.45,9.81.77,2.97.29,5.99,1.19,8.99.72"/><path class="b" d="M13.84,129.26c3.35-.45,6.66-1.44,9.81-2.64,4.05-1.52,9.36-4.02,13.08-.52,1.83,1.66,3.74,4.33,6.54,3.82,1.41-.33,2.77-1.25,4.09-1.83,1.82-.82,3.81-1.52,5.72-2.09,1.02-.29,2.23-.58,3.27-.79,1.06-.25,2.31-.4,3.27.23.72.31,1.7.65,2.45.84.75.31,1.71.86,2.45,1.18,2.03.88,4.33,1.32,6.54,1.29,1.31-.08,2.78.17,4.09-.02,3.66-.54,7.09-2.22,10.63-3.21,1.62-.41,3.26-1.23,4.91-1.55,1.58-.2,3.35-.18,4.91.15,3.48.86,7.04,1.67,10.63,1.88,3.8.28,7.66-.02,11.45-.29,2.19-.17,4.34.96,6.54.94,3.29.11,6.6-.55,9.81-1.18,2-.36,3.89-1.43,5.72-2.26,2.88-1.66,5.84-1.65,8.99-.8,3.49.85,7.05,1.73,10.63,2.09,2.69.33,5.49.19,8.18.49,3.55.22,7.06,1.82,10.63,1.12"/><path class="b" d="M13.84,127.96c3.35-.35,6.66-1.34,9.81-2.5,3.77-1.42,8.41-4.04,12.26-1.5,2.8,1.9,5.07,5.97,8.99,4.14,3.59-1.79,7.52-2.86,11.45-3.6,4.2-.72,3.76-.85,7.36,1.2,1.25.59,2.72,1.06,4.09,1.26,1,.34,2.21.65,3.27.73,2.52.21,5.04-.67,7.36-1.56,2.13-.83,4.37-1.64,6.54-2.34,1.62-.49,3.28-1.29,4.91-1.75,1.57-.32,3.35-.16,4.91.2,6.88,2.04,14.13,2.5,21.26,1.9,1.31-.06,2.78-.33,4.09-.17,1.58.32,3.28.78,4.91.78,3.29.02,6.61-.56,9.81-1.29,1.68-.51,3.36-1.42,4.91-2.24,2.45-1.59,5.5-1.33,8.18-.5,3.47.98,7.03,1.96,10.63,2.32,2.96.36,6.03,0,8.99.43,3.58.27,6.98,2.31,10.63,1.54"/><path class="b" d="M13.84,126.73c3.66-.18,7.26-1.29,10.63-2.69,3.31-1.3,7.02-3.61,10.63-2.07,3.33,1.47,5.62,6.27,9.81,4.91,4.2-1.66,8.62-2.82,13.08-3.54,2.23.32,4.42,1.26,6.54,1.99,2.57.97,5.45,1.62,8.18.92,3.9-1.06,7.56-3.02,11.45-4.14,4.31-1.57,5.02-2.67,9.81-1.58,2.7.52,5.42,1.41,8.18,1.69,4.32.56,8.74.44,13.08.2,1.87-.05,3.85-.41,5.72-.3,1.28.38,2.75.66,4.09.72,3.28.05,6.65-.39,9.81-1.27,1.38-.47,2.76-1.35,4.09-1.95,2.27-1.56,4.79-1.65,7.36-.78,3.74,1.15,7.53,2.43,11.45,2.81,2.96.38,6.03-.09,8.99.22,3.95.14,7.4,3.04,11.45,2.37"/><path class="b" d="M13.84,125.5c3.97.12,7.88-1.09,11.45-2.75,2.62-1.09,5.2-3,8.18-2.74,4.26.26,6.34,5.49,10.63,5.5,1.37-.03,2.78-.6,4.09-.95,2.71-.6,5.43-1.53,8.18-1.97,2.18.39,4.42.98,6.54,1.63,2.61.81,5.47,1.43,8.18.73,4.17-1.19,8.07-3.34,12.26-4.51,3.23-1.04,5.46-3,8.99-1.56,1.28.36,2.76.55,4.09.52,1.58.38,3.3.72,4.91.95,4.31.66,8.74.6,13.08.27,1.87-.13,3.85-.32,5.72-.42,1.59.19,3.31.51,4.91.63,2.99.05,6.13-.2,8.99-1.1,1.67-.58,3.27-1.68,4.91-2.35,2.64-1.71,5.48-.7,8.18.3,3.68,1.32,7.52,2.47,11.45,2.71,2.97.16,6.02-.37,8.99.03,1.43.07,2.8,1,4.09,1.55,2.01.98,4.27,1.81,6.54,1.65"/><path class="b" d="M13.84,124.23c6.54.84,12.33-2.82,17.99-5.51,3.91-1.2,6.86,2.24,9.81,4.16,1.99,1.24,4.4.9,6.54.32,1.89-.33,3.87-.81,5.72-1.3,2.17-.06,4.41.59,6.54.98,2.65.58,5.45,1.28,8.18.81,4.25-.88,8.08-3.25,12.26-4.41,1.32-.44,2.83-.8,4.09-1.4,1.78-.77,3.8-1.75,5.72-.87,2.58,1.18,5.41,1.23,8.18.94,5.1.99,10.36,1.24,15.53.76,1.59-.1,3.31-.35,4.91-.38,1.86.29,3.84.53,5.72.54,3.03,0,6.2-.23,8.99-1.48,1.59-.74,3.22-1.75,4.91-2.28,3.31-1.52,6.66.88,9.81,1.79,3.15,1.1,6.47,1.97,9.81,2.15,2.7.12,5.47-.42,8.18-.23,1.48-.04,2.82,1.08,4.09,1.7,2.25,1.26,4.7,2.57,7.36,2.49"/><path class="b" d="M13.84,122.89c6.14,1.32,11.88-1.85,17.17-4.55,2.67-1.31,3.73-1.97,6.54-.46,2.66,1.42,4.93,4.18,8.18,4.11,2.18-.07,4.4-.59,6.54-.95,2.15.22,4.4.4,6.54.71,10.64,2.03,11.8-1.48,21.26-4.12,1.3-.43,2.81-.73,4.09-1.24,1.78-.73,3.8-1.93,5.72-1.01,4.34,2.19,6.96,1.33,11.45.93,4.3.75,8.73.9,13.08.49,1.02-.09,2.25-.21,3.27-.31,2.15.15,4.37.62,6.54.55,2.46-.04,5.03-.33,7.36-1.16,2.21-.76,4.26-2.18,6.54-2.76,1-.26,2.24-.5,3.27-.29,1.06.23,2.27.73,3.27,1.14,2.39.93,4.88,1.86,7.36,2.55,2.37.66,4.89,1.16,7.36,1.19,2.43-.03,4.92-.48,7.36-.4,3.85,1.5,7.05,5.07,11.45,5.02"/><path class="b" d="M13.84,121.83c2.42.17,4.96.4,7.36-.15,3.98-.99,7.84-2.69,11.45-4.62,1.2-.72,2.71-1.15,4.09-1.34.81.08,1.76.58,2.45.98,2.1,1.2,4.05,3.07,6.54,3.38,1.32.19,2.77-.03,4.09-.07,2.68.43,5.47.46,8.18.65,10.27,1.19,12.12-2.46,21.26-4.7,1.58-.49,3.38-.74,4.91-1.38,1.52-.62,3.25-1.63,4.91-.88,4.68,2.54,8.1,1.83,13.08.92,1.59-.21,3.31.36,4.91.38,2.42.18,4.94.1,7.36-.11,1.02-.05,2.25-.34,3.27-.15,2.13.31,4.38.55,6.54.4,2.2-.15,4.48-.62,6.54-1.43,2.15-.84,4.25-2.1,6.54-2.53,1.01-.19,2.25-.37,3.27-.17,1.36.32,2.79,1,4.09,1.49,2.4.9,4.9,1.79,7.36,2.5,2.63.75,5.42,1.38,8.18,1.34,2.15-.02,4.4-.64,6.54-.35,3.6,2.16,7.03,5.47,11.45,5.53"/><path class="b" d="M13.84,120.71c2.14.16,4.4.27,6.54.08,3.63-.58,7.25-1.69,10.63-3.14,1.36-.6,2.81-1.39,4.09-2.15,3.33-.94,6.23-.06,8.99,1.83,3.81,1.82,8.1,2.14,12.26,2.09,2.99,0,6.09.02,8.99-.79,4.38-1.36,8.54-3.51,13.08-4.35,1.59-.38,3.31-.76,4.91-1.12,1.54-.59,3.2-1.74,4.91-1.15,1.33.48,2.71,1.29,4.09,1.62,3.51.78,7.15-.18,10.63-.69,1.3-.29,2.78.16,4.09.21,1.87.15,3.85.16,5.72.04,1.02-.06,2.25-.18,3.27-.29,1.31.13,2.77.35,4.09.43,2.74.2,5.58-.22,8.18-1.09,1.92-.62,3.81-1.64,5.72-2.27,1.81-.59,3.83-.74,5.72-.71,1.06.2,2.27.69,3.27,1.08,5.08,1.74,10.2,3.71,15.53,4.54,2.42.35,4.94-.11,7.36-.31,3.92,2.23,7.44,6.1,12.26,6.02"/><path class="b" d="M13.84,119.48c3.53.36,7.15.31,10.63-.47,3.66-.71,7.35-1.78,10.63-3.59,1.89-1.44,4.45-.96,6.54-.26,1.63.61,3.22,1.62,4.91,2.1,3.71,1,7.65.88,11.45.56,5.18-.23,9.85-2.64,14.72-4.14,3.2-.89,6.56-1.42,9.81-2.08,1.1-.19,2.19-.99,3.27-1.26,1.69-.42,3.36.58,4.91,1.12,2.07.73,4.39.69,6.54.46,2.15-.23,4.39-.56,6.54-.86,1.31.14,2.77.33,4.09.39,1.87.11,3.86.06,5.72-.09,1.02-.07,2.25-.32,3.27-.12,3.55.52,7.25.31,10.63-.97,1.88-.66,3.78-1.64,5.72-2.12,2.38-.59,4.93-.41,7.36-.35,1.58.53,3.29,1.13,4.91,1.58,4.61,1.33,9.16,3.1,13.9,3.92,2.13.41,4.4.02,6.54.06,3.65,2.65,7.46,6.19,12.26,6"/><path class="b" d="M13.84,118.09c3.8.45,7.68.32,11.45-.32,3.62-.59,7.31-1.43,10.63-3.01.74-.35,1.62-.99,2.45-1.09,1.35.01,2.83.33,4.09.83,5.56,2.82,12.11,2.15,17.99.77,3.86-.98,7.54-2.76,11.45-3.62,3.49-.8,7.15-1,10.63-1.85,4.17-2.09,4.91-.9,8.99.02,4.07.72,8.21-.64,12.26-.35,3.78.49,7.66.55,11.45.06,1.86-.25,3.85.3,5.72.14,3.75-.03,7.11-1.97,10.63-2.96,3.2-.72,6.56-.23,9.81-.24,4.96,1.11,9.85,2.68,14.72,4.14,1.84.53,3.81,1.06,5.72,1.25,1.3.21,2.83-.08,4.09.32,3.48,2.89,7.47,6.11,12.26,5.75"/><path class="b" d="M13.84,116.54c3.8.48,7.66.38,11.45-.14,4.74-.57,9.65-1.36,13.9-3.68,2.27-.21,4.36,1.18,6.54,1.58,2.39.47,4.95.41,7.36.05,5.36-.74,10.3-3.16,15.53-4.4,4.84-1.05,10.02-.74,14.72-2.45,2.08-.93,4.42-.44,6.54.06,1.57.32,3.31.34,4.91.27,1.31-.05,2.78-.16,4.09-.25,3.53.16,7.09.72,10.63.69,2.44,0,4.95-.26,7.36-.6,2.15.18,4.42.29,6.54-.2,2.78-.54,5.33-2.17,8.18-2.4,2.42-.21,4.94-.04,7.36-.04,1.87.05,3.88-.1,5.72.31,5.26,1.04,10.35,2.9,15.53,4.26,1,.25,2.24.48,3.27.62.74.09,1.78.11,2.45.46,3.31,3.14,7.48,6,12.26,5.51"/><path class="b" d="M13.84,114.91c4.34.53,8.75.14,13.08-.3,4.74-.4,9.53-1.18,13.9-3.17,2.15.43,4.31,1.33,6.54,1.28,5.75.12,10.97-2.78,16.35-4.38,2.89-.9,5.99-1.02,8.99-1.12,3.51-.58,7.21-.56,10.63-1.64,2.4-.65,4.94-.05,7.36.13,1.03.07,2.24.04,3.27,0,1.03.04,2.24.28,3.27.38,2.69.31,5.47.38,8.18.55,3.81.24,7.68.04,11.45-.54,1.58-.26,3.32.08,4.91-.18,2.54-.25,4.92-1.48,7.36-2.11,1.86-.28,3.85-.12,5.72-.16,2.42-.03,4.93-.15,7.36-.1,7.08-.1,13.68,2.84,20.44,4.53,1.01.27,2.29.4,3.27.78.36.39,1.24,1.16,1.63,1.53,2.83,2.67,6.72,4.22,10.63,3.79"/><path class="b" d="M13.84,113.17c4.35.45,8.75-.09,13.08-.44,2.7-.24,5.49-.34,8.18-.78,2.2-.37,4.41-1.11,6.54-1.77,1.33-.07,2.75.51,4.09.48,2.49.09,5.07-.39,7.36-1.38,3.74-1.49,7.43-3.49,11.45-4.11,2.42-.45,4.95.1,7.36-.13,3.51-.54,7.18-.36,10.63-1.21,2.67-.54,5.48-.13,8.18-.13,2.38.61,4.91,1,7.36,1.21,4.33.25,8.74.35,13.08.2,3-.06,6-.86,8.99-.88,1.63-.03,3.36-.37,4.91-.87,1.82-.64,3.76-1.42,5.72-1.1,4.89.27,9.82-.75,14.72-.23,1.59.11,3.32.26,4.91.39,3.58.74,7.14,1.84,10.63,2.92,1.58.49,3.3,1,4.91,1.39,3.5,3.67,7.01,5.73,12.26,5.18"/><path class="b" d="M13.84,111.31c4.08.33,8.2-.3,12.26-.6,2.42-.21,4.94-.17,7.36-.41,2.46-.29,4.95-.91,7.36-1.45.74-.15,1.7-.38,2.45-.42.74.08,1.72.12,2.45.09,1.92-.1,3.95-.49,5.72-1.26,4.41-2.04,8.85-4.97,13.9-4.79,1.61.04,3.32.32,4.91.54,3.24-.24,6.56-.51,9.81-.69,2.64-.71,5.47-.49,8.18-.52,2.42.56,4.87,1.39,7.36,1.62,3.51.47,7.1.27,10.63.24,1.87.08,3.85.29,5.72.07,1.89-.17,3.84-.69,5.72-.91,2.14-.43,4.44-.34,6.54-.99,1.84-.49,3.78-1.52,5.72-1.06,3.8.64,7.64-.62,11.45-.63,3.54-.15,7.12.24,10.63.66,3.07.19,6.07,1.18,8.99,2.08,1.85.7,4.03,1.03,5.72,2.08,3.06,3.51,6.77,5.06,11.45,4.52"/><path class="b" d="M13.84,109.35c4.37.22,8.73-.71,13.08-.84,1.59-.08,3.32.01,4.91-.18,3.26-.51,6.54-1.31,9.81-1.78,2.43-.34,5-.25,7.36-1.02,3.16-.97,5.88-3.14,8.99-4.24,4.24-1.91,7.93-1.1,12.26-.25,2.43-.09,4.93-.41,7.36-.49,1.86-.34,3.82-.67,5.72-.58,1.31.04,2.8-.08,4.09.24,2.42.63,4.85,1.61,7.36,1.85,2.41.43,4.97.09,7.36.53,4.88.9,10,.74,14.72-.9,1.79-.73,3.82-.94,5.72-1.21,1.63-.28,3.3-.95,4.91-1.31,1.04-.25,2.25.13,3.27.34,1.02.16,2.26.08,3.27-.08,4.56-.87,9.25-1.45,13.9-1.05,2.44.18,4.94.6,7.36.98,1.59.29,3.36.27,4.91.77,2.17.61,4.41,1.38,6.54,2.11,3.74,3.7,5.87,5.28,11.45,4.86"/><path class="b" d="M13.84,107.32c2.99.06,6.02-.44,8.99-.72,2.42-.27,4.93-.12,7.36-.21,3.82-.61,7.57-1.95,11.45-2.29,9.51-.44,9.44-3.04,17.17-5.54,2.36-.81,4.95-.69,7.36-.19,1.86.26,3.84.97,5.72.77,1.03-.1,2.24-.2,3.27-.28,1.28-.44,2.74-.81,4.09-.88,2.14-.02,4.43-.06,6.54.38,2.19.52,4.34,1.52,6.54,2,1.57.34,3.3.51,4.91.58,1.31.35,2.74.88,4.09,1.12,4.89.88,10.03.42,14.72-1.21,1.63-.46,3.25-1.42,4.91-1.74,2.19-.32,4.38-1.07,6.54-1.55,1.07-.2,2.25.3,3.27.55.72.13,1.73.11,2.45,0,8.47-1.91,15.13-2.55,23.71-.49,2.12.45,4.37.86,6.54.93,1.33.36,2.79.87,4.09,1.33,3.39,3.47,5.48,5.18,10.63,4.97"/><path class="b" d="M13.84,105.24c2.72-.02,5.47-.5,8.18-.74,2.15-.2,4.39-.11,6.54-.03,3.39-.04,6.52-1.8,9.81-2.41,3.22-.72,6.63-.57,9.81-1.5,3.37-.94,6.36-3.08,9.81-3.81,4.3-1.38,8.75.18,13.08.58,1.11.02,2.23-.71,3.27-1.01,1.27-.41,2.75-.61,4.09-.59,2.17.1,4.46.23,6.54.89,2.96.93,5.88,2.31,8.99,2.65,1.99.14,3.78,1.47,5.72,1.86,3.44.92,7.14.75,10.63.15,3.68-.67,7.26-2.05,10.63-3.65,2.08-.57,4.44-1.23,6.54-1.66,1.09-.16,2.26.4,3.27.71,1.61.33,3.35-.2,4.91-.57,6.39-1.55,13.11-2.52,19.62-1.13,4.34.88,8.6,2.45,13.08,2.43,3.51,3.07,4.68,5.05,9.81,5.28"/><path class="b" d="M13.84,103.17c3.26-.12,6.54-.79,9.81-.82,1.87-.07,3.85.11,5.72-.01,2.25-.27,4.45-1.19,6.54-2.02,3.61-1.58,7.65-1.3,11.45-2.1,1.96-.32,3.87-1.18,5.72-1.87,1.83-.65,3.82-1.11,5.72-1.49,2.68-.51,5.49-.14,8.18.19,2.4-.62,4.83-1.57,7.36-1.64,3.01-.31,6.13.24,8.99,1.15,3.23,1.08,6.41,2.64,9.81,3.14.82.12,1.73.75,2.45,1.1,1.26.63,2.73,1.2,4.09,1.54,5.15,1.25,10.62.19,15.53-1.53,2.51-.85,4.93-2.15,7.36-3.2,1.88-.35,3.78-1.29,5.72-1.21.77.09,1.73.56,2.45.81,2.19.45,4.42-.56,6.54-.98,6.91-1.8,14.24-2.87,21.26-.97,3.55.82,6.98,2.4,10.63,2.81.45-.01,1.29.34,1.63.65,1.08.61,2.29,1.46,3.27,2.23,1.14.84,2.71,1.27,4.09,1.51"/><path class="b" d="M13.84,101.12c3.26-.17,6.54-.82,9.81-.95,4.92-.1,7.8.09,12.26-2.43,1.56-.91,3.15-1.1,4.91-1.24,2.15-.28,4.4-.43,6.54-.75,4.87-.95,9.68-2.78,14.72-2.67,1.15.2,2.25-.77,3.27-1.17,1.26-.58,2.72-1.08,4.09-1.3,6.25-.92,12.29,1.73,17.99,3.95,1.81.79,3.9,1.07,5.72,1.76,6.97,4.96,15.34,3.9,22.89.97,2.21-.85,4.43-1.95,6.54-3.02,1.79-.67,3.79-1.41,5.72-1.38,1.08.11,2.19.88,3.27.98,1.93.06,3.87-.69,5.72-1.13,6.63-1.77,13.57-3.53,20.44-2.15,4.52.69,8.68,2.8,13.08,3.91,2.53.87,4.83,2.6,7.36,3.49"/><path class="b" d="M13.84,99.1c3.55-.23,7.08-1.08,10.63-1.28,3.66-.18,7.55-.35,10.63-2.59.89-.73,2.2-.63,3.27-.83,2.13-.41,4.37-.74,6.54-.87,3.02-.15,6.01-.91,8.99-1.35,1.59-.21,3.31-.47,4.91-.65,2.97-1.95,6.1-4.26,9.81-4.31,5.44.01,10.55,2.4,15.53,4.33,1.84.74,3.81,1.49,5.72,2.04,1.07.3,2.42.5,3.27,1.29,6.69,5.04,15.5,3.99,22.89,1.16,2.22-.85,4.45-1.95,6.54-3.07,1.71-.94,3.76-1.65,5.72-1.69,1.09.03,2.22.7,3.27.91,2.21.19,4.43-.74,6.54-1.26,5.61-1.45,11.29-3.44,17.17-3.06,5.09.29,10.03,1.9,14.72,3.83.99.39,2.23.79,3.27,1.05,1.57.78,3.29,1.61,4.91,2.31"/><path class="b" d="M13.84,97.11c2.73-.21,5.47-.9,8.18-1.32,2.69-.46,5.53-.54,8.18-1.24,1.09-.3,2.3-.86,3.27-1.43,1.27-.47,2.77-.65,4.09-.92,3.97-1.22,8.18-1.16,12.26-1.71,1.31-.19,2.77-.37,4.09-.5,1.48-.39,2.86-1.44,4.09-2.32,5.04-4.15,9.58-3.97,15.53-2.09,6.06,1.91,11.73,5.11,17.99,6.43,4.18,3.05,7.71,5,13.08,4.9,5.39-.05,10.67-1.77,15.53-3.99,2.87-1.32,5.67-3.52,8.99-3.27,1.06.1,2.21.7,3.27.8,1.93.07,3.88-.67,5.72-1.15,3.83-.95,7.6-2.29,11.45-3.17,5.74-1.38,11.67-.03,17.17,1.72,2.19.63,4.4,1.54,6.54,2.31,1.65.45,3.37,1.1,4.91,1.87"/><path class="b" d="M13.84,95.15c2.75-.24,5.47-1.05,8.18-1.56,2.7-.59,5.56-.82,8.18-1.75,3.51-1.03,7.12-1.92,10.63-2.95,2.12-.54,4.4-.44,6.54-.77,2.89-.36,5.77-1.31,8.18-2.98,5.48-3.9,10.92-4.49,17.17-2.1,6.25,2.29,12.16,5.71,18.8,6.83,3.78,3.22,8,5.43,13.08,5.35,2.77.12,5.53-.62,8.18-1.36,2.46-.65,5.02-1.32,7.36-2.35,3.21-1.3,6.16-3.91,9.81-3.61,1.04.08,2.23.54,3.27.61,1.04.03,2.27-.21,3.27-.5,2.71-.72,5.54-1.31,8.18-2.29,3.16-1.13,6.41-2.43,9.81-2.49,8.23,0,15.82,3.84,23.71,5.64"/><path class="b" d="M13.84,93.22c2.49-.23,4.92-1.17,7.36-1.65,3.53-.75,7.17-1.28,10.63-2.33,3.03-.83,5.98-2.14,8.99-3,.74-.24,1.71-.2,2.45-.04.75.04,1.73-.08,2.45-.26,3.45-.82,6.77-2.27,9.81-4.08,5.55-3.59,10.2-3.73,16.35-1.59,3.97,1.32,7.63,3.49,11.45,5.17,2.59,1.08,5.41,1.75,8.18,2.18,3.45,3.01,7.56,5.57,12.26,5.72,3.68.12,7.02-1.98,10.63-2.42,2.16-.34,4.51-.38,6.54-1.27,2.24-.84,4.26-2.41,6.54-3.15,2.1-.79,4.4-.47,6.54-.12,2.46-.08,4.96-.81,7.36-1.34,3.89-1.06,7.41-3.46,11.45-4,3.57-.44,7.18.54,10.63,1.36,4.94,1.11,9.76,2.84,14.72,3.88"/><path class="b" d="M13.84,91.32c2.75-.52,5.42-1.64,8.18-2.16,3.25-.68,6.65-1.05,9.81-2.12,1.91-.64,3.85-1.53,5.72-2.26,1.01-.33,2.18-.92,3.27-.75,1.28.53,2.78.5,4.09.08,2.83-.9,5.64-2.17,8.18-3.72,2.05-1.27,4.16-2.76,6.54-3.32,4.04-.87,8.34-.28,12.26.87,4.36,1.23,8.2,3.77,12.26,5.69,2.29,1.02,4.88,1.46,7.36,1.73,3.56,2.64,7.45,6.4,12.26,5.52,3.08-.59,5.88-2.38,8.99-2.88,2.68-.55,5.48.18,8.18-.15,3.71-.64,6.66-4.14,10.63-3.62.73.1,1.73.33,2.45.44,1.04.06,2.27-.18,3.27-.47,1.58-.44,3.36-.63,4.91-1.19,3.34-1.12,6.31-3.39,9.81-4.05,3.86-.63,7.71.83,11.45,1.61,2.96.71,6.03,1.25,8.99,1.93,1.88.43,3.81,1.16,5.72,1.46"/><path class="b" d="M13.84,89.36c1.91-.48,3.83-1.31,5.72-1.84,2.38-.7,4.91-1.08,7.36-1.47,3.46-.41,6.6-2.06,9.81-3.28,4.88-2.04,3.44,1.74,9.81-1.39,7.77-3.62,8.34-6.82,17.99-6.37,5.08.02,10.24,1.11,14.72,3.57,2.15,1.14,4.27,2.58,6.54,3.48,1.54.61,3.33.81,4.91,1.31.9.1,1.86.81,2.45,1.45.94.84,2.15,1.76,3.27,2.35,8.27,3.98,11.83-5.39,22.89-1.93,4.75,1.17,5.89-1.3,9.81-2.34,1.87-.47,3.85.18,5.72,0,3.03-.55,6.2-1.18,8.99-2.52,3.6-1.82,7.17-4.51,11.45-3.47,3.54.76,7.03,1.97,10.63,2.48,4.1.6,8.29.94,12.26,2.19"/><path class="b" d="M13.84,87.37c2.69-.93,5.36-2.17,8.18-2.72,2.96-.65,6.13-.72,8.99-1.79,1.86-.73,3.8-1.56,5.72-2.09.74-.25,1.66-.65,2.45-.59.77.11,1.68.59,2.45.66.77.04,1.74-.19,2.45-.47,3.2-1.21,6.05-3.25,8.99-4.94,1.97-1.1,4.29-1.64,6.54-1.7,6.85-.17,14.21-.57,20.44,2.78,1.63.86,3.28,1.97,4.91,2.85,1.53.8,3.32,1.37,4.91,2.04.72.28,1.72.62,2.45.88,1.14,1.07,2.59,2.08,4.09,2.56,3.03.99,6.21-.24,8.99-1.43,5.47-2.48,9.03-2.92,14.72-.73,4.51,1.55,5.86-.48,9.81-1.54,1.29-.37,2.78-.1,4.09-.19,2.45-.38,4.98-.86,7.36-1.57,2.65-.76,4.89-2.66,7.36-3.82,2.29-1.19,5.03-.88,7.36.03,3.4,1.32,6.96,2.47,10.63,2.67,3.8.21,7.77-.22,11.45,1"/><path class="b" d="M13.84,85.39c2.66-1.07,5.33-2.38,8.18-2.91,3.26-.63,6.7-.69,9.81-1.96,1.31-.41,2.75-.91,4.09-1.18.77-.24,1.66-.86,2.45-1.02.78-.13,1.75.1,2.45.42,1.36.41,2.85-.1,4.09-.64,2.29-.92,4.42-2.37,6.54-3.61,4.4-2.78,9.77-1.97,14.72-2.08,5.22.02,10.84-.2,15.53,2.45,2.4,1.4,4.77,3.01,7.36,4.06,1.02.47,2.23,1.01,3.27,1.42,1.27.7,2.61,1.66,4.09,1.84,2.52.37,5.04-.61,7.36-1.48,5.9-2.42,10.29-3.44,16.35-.72,1.77.65,3.85,1.43,5.72.75,1.94-.43,3.75-1.63,5.72-1.89,1.63.06,3.32-.47,4.91-.76,1.9-.24,3.89-.64,5.72-1.21,2.05-.65,3.77-2.31,5.72-3.21,2.65-1.54,5.69-.57,8.18.83,4.42,2.53,8.82,3.55,13.9,2.75,2.67-.28,5.55-.91,8.18-.08"/><path class="b" d="M13.84,83.46c2.64-1.17,5.31-2.54,8.18-3.05,1.86-.37,3.85-.46,5.72-.72,1.9-.31,3.86-.86,5.72-1.34.73-.19,1.71-.36,2.45-.46.9-.75,2.07-1.51,3.27-1.56.77,0,1.72.36,2.45.56,1.39.15,2.83-.45,4.09-.97,1.97-.82,3.84-2.09,5.72-3.08,4.75-2.72,10.34-1.47,15.53-1.54,5.16.12,10.73-.9,15.53,1.46,2.22,1.11,4.26,2.77,6.54,3.77,5.67,2.57,6.72,4.23,13.08,1.83,4.67-1.65,9.76-3.39,14.72-2.01,2.2.57,4.35,1.65,6.54,2.25,1.02.29,2.25-.14,3.27-.31,1.43-.19,2.77-1.07,4.09-1.57,1.03-.23,2.28-.33,3.27-.73,1.53-.57,3.3-.69,4.91-.85,1.33-.22,2.8-.56,4.09-.94,1.38-.64,2.71-1.75,4.09-2.41,2.86-1.66,5.75-.28,8.18,1.48,5.04,3.76,9.34,4.98,15.53,3.2,2.37-.51,4.92-1.67,7.36-1.09"/><path class="b" d="M13.84,81.6c8.79-4.64,10.32-2.59,18.8-4.59,1.02-.37,2.3-.6,3.27-1.1.92-.67,2.13-1.16,3.27-1.25.43-.03,1.21-.05,1.63-.04.43.16,1.18.35,1.64.37,1.38-.04,2.82-.61,4.09-1.12,1.93-.84,3.8-2.06,5.72-2.9,3.06-1.44,6.52-1.42,9.81-1.1,2.42.18,4.93.28,7.36.22,5.46-.08,11.53-1.41,16.35,1.88,2.29,1.57,4.82,2.89,7.36,4.02,2.72,1.61,5.3,1.28,8.18.32,2.66-.84,5.42-1.69,8.18-2.16,4.17-.84,8.4.12,12.26,1.72,1.77.93,3.86.3,5.72,0,1.18-.13,2.12-1.32,3.27-1.59,1.66-.27,3.26-1.22,4.91-1.55,1.29-.26,2.79-.16,4.09-.38,1.33-.21,2.81-.52,4.09-.95,4.23-3.03,6.74-2.79,10.63.67,5.1,4.72,9.52,6.6,16.35,4,1.59-.59,3.29-1.33,4.91-1.87.69-.23,1.71-.58,2.45-.35"/><path class="b" d="M13.84,79.79c3.33-1.68,6.82-3.33,10.63-3.37,2.45-.13,5.02-.09,7.36-.93,1.04-.31,2.24-.72,3.27-1.06,1.26-.59,2.68-1.17,4.09-1.21,1.31-.05,2.77-.08,4.09-.08,2.29-.32,4.5-1.37,6.54-2.42,2.75-1.47,5.84-2.55,8.99-2.43,4.62.17,9.28.68,13.9.32,4.62-.23,9.67-1.22,13.9,1.19,2.15,1.21,4.24,2.74,6.54,3.67,1.28.57,2.66,1.42,4.09,1.54,2.77.13,5.5-.89,8.18-1.46,4.79-1.29,9.94-1.83,14.72-.17.73.21,1.73.58,2.45.81,1.31-.02,2.79-.13,4.09-.34,1.25-.05,2.15-1.4,3.27-1.84,1.92-.55,3.75-1.67,5.72-2.04,2.72-.28,5.55-.32,8.18-1.17,1.79-.72,3.76-1.83,5.72-1.04,6.18,3.11,7.72,9.77,16.35,9.14,4.43-.32,8.12-3.24,12.26-4.51"/><path class="b" d="M13.84,78.01c3.09-1.49,6.29-3.14,9.81-3.2,1.6-.11,3.35.08,4.91-.37,1.88-.41,3.89-.79,5.72-1.39,1.82-.67,3.75-1.4,5.72-1.42,8.73.14,11.14-5.06,19.62-4.79,4.62.05,9.28.51,13.9.23,4.32-.18,8.88-1.19,13.08.27,2.32.83,4.41,2.36,6.54,3.56,1.59.68,3.21,1.74,4.91,2.12,4.13.47,8.22-1.05,12.26-1.65,2.67-.46,5.5-.55,8.18-.08,1.04.18,2.27.53,3.27.88,1.59.04,3.35.05,4.91-.33,1.11-1.15,2.51-2.29,4.09-2.68,1.31-.53,2.7-1.29,4.09-1.6,2.4-.49,4.96-.35,7.36-.89,1.6-.25,3.28-.87,4.91-.91,3.59.35,5.73,3.92,8.18,6.17,3.64,4.05,8.77,5.26,13.9,3.52,3.14-1.01,5.99-2.88,8.99-4.2"/><path class="b" d="M13.84,75.96c2.25-.46,4.26-1.96,6.54-2.36,1.57-.4,3.31-.34,4.91-.51,1.31-.28,2.77-.53,4.09-.73,2.78-.32,5.53-1.01,8.18-1.88,1.84-.44,3.86-.46,5.72-.74,3.19-.14,6.07-1.87,8.99-2.98,2.84-1.13,5.97-1.4,8.99-1.39,4.62-.13,9.28.33,13.9.06,4.33-.21,8.85-1.14,13.08.2,2.61.84,5,2.4,7.36,3.75,1.98,1.13,4.18,2.35,6.54,1.97,2.18-.3,4.36-1.09,6.54-1.39,2.68-.35,5.48-.34,8.18-.37,1.63.07,3.36.43,4.91.94,1.01.19,2.25.12,3.27.04,1.05-.86,2.13-2.07,3.27-2.81,1.8-.91,3.81-1.71,5.72-2.36,2.65-.64,5.49-.5,8.18-.95,1.86-.19,3.95-.71,5.72.13,3.86,2.12,6.1,6.38,9.81,8.73,3.34,2.18,7.74,2.09,11.45.98,3.15-.95,6.04-2.74,8.99-4.16"/><path class="b" d="M13.84,73.52c2.19-.4,4.4-1.06,6.54-1.63,4.04-.8,8.14-1.55,12.26-1.8,1.65-.09,3.34-.58,4.91-1.05,2.12-.49,4.37-.83,6.54-.96,2.87-.22,5.5-1.72,8.18-2.66,2.59-.97,5.43-1.33,8.18-1.48,1.02-.06,2.24-.13,3.27-.17,2.15.3,4.35.95,6.54.86,2.46-.01,4.91-.82,7.36-.93,4.06-.26,8.27-.92,12.26.16,4.06,1.08,7.61,3.55,11.45,5.18,1.89-.03,3.85-.57,5.72-.79,2.14-.29,4.4-.28,6.54,0,1.87-.13,3.86-.34,5.72-.02,1.34.14,2.75.79,4.09.85,1.99-1.18,3.46-3.39,5.72-4.16,1.6-.52,3.24-1.37,4.91-1.7,2.95-.46,6.02-.46,8.99-.66,2.7-.2,4.61.48,6.54,2.38,3.6,3.37,6.97,8.01,12.26,8.49,5.87.82,11.29-2.04,16.35-4.61"/><path class="b" d="M13.84,71.06c4.35-.83,8.68-2.03,13.08-2.55,3.5-.52,7.22.24,10.63-.87,1.85-.49,3.84-.83,5.72-1.14,1.05.11,2.26-.05,3.27-.34,3.78-1.16,7.44-3.01,11.45-3.33,1.31-.16,2.77-.3,4.09-.42,2.75.21,5.38,1.57,8.18,1.47,3.06-.04,6.03-1.13,8.99-1.75,2.39-.4,4.93-.47,7.36-.54,6.41-.18,12.16,3.02,17.99,5.23,2.15-.16,4.4-.18,6.54.1,1.03.27,2.25-.08,3.27-.27,1.58-.27,3.32-.36,4.91-.17.79.3,1.74-.25,2.45-.57,1.27-.56,2.75-1.07,4.09-1.46,1.15-.94,2.66-1.62,4.09-2,1.28-.46,2.73-.99,4.09-1.16,3.5-.25,7.13-.42,10.63-.01,1.56.2,2.93,1.41,4.09,2.39,1.86,1.67,3.71,3.57,5.72,5.06,7.63,5.83,16.09,2.39,23.71-1.44"/><path class="b" d="M13.84,68.63c4.34-.79,8.68-1.9,13.08-2.34,2.98-.34,6.01.23,8.99.25,2.19-.18,4.37-1.05,6.54-1.41,1.02-.25,2.25.06,3.27-.18,3.34-.68,6.46-2.32,9.81-2.96,1.86-.37,3.84-.59,5.72-.81,1.66-.05,3.36.52,4.91,1.04,2.89,1.1,6.08.91,8.99.03,8.07-2.82,16.35-3.13,24.53-.53,3.66.88,7.02,2.84,10.63,3.81,2.83-.25,5.52-1.47,8.18-2.41,2.08-.75,4.35-1.28,6.54-1.59,2.79-.16,5.42-1.48,8.18-1.88,2.14-.22,4.39-.1,6.54-.06,1.59.1,3.39.03,4.91.58,3.26,1.83,5.79,4.83,8.99,6.76,8.62,5.35,16.12,2.7,24.53-1.34"/><path class="b" d="M13.84,66.29c5.92-.94,11.94-2.89,17.99-2.02,3.46.6,5.59,1.15,8.99-.17.74-.18,1.69-.48,2.45-.47,1.33.09,2.8,0,4.09-.39,3.51-.99,6.97-2.42,10.63-2.84,1.86-.24,3.87-.69,5.72-.19,2.91.86,5.89,2.22,8.99,1.58,3.61-.61,7.03-2.18,10.63-2.83,6.21-1.22,12.67-.67,18.8.72,1.63.4,3.34,1.04,4.91,1.66,4.41.15,8.68-1.69,13.08-1.83,2.7-.21,5.48-.34,8.18-.51,1.32-.22,2.76-.68,4.09-.86,1.3-.17,2.78-.13,4.09-.08,2.15.11,4.42.11,6.54.49.77.38,1.76,1.01,2.45,1.52,2.36,1.76,4.7,3.75,7.36,5.06,4.26,2.06,9.17,3.08,13.9,2.59,4.03-.51,7.73-2.43,11.45-3.95"/><path class="b" d="M13.84,64.07c5.13-.82,10.3-2.27,15.53-2.08,5.08.35,7.96,2.76,13.08.37,1.31-.05,2.79.05,4.09-.19,1.91-.39,3.86-1.04,5.72-1.58,2.91-.91,5.99-1.33,8.99-1.74,3.12-.44,5.94,1.53,8.99,1.77,4.53.32,8.73-2,13.08-2.87,5.07-1.16,10.37-1.37,15.53-.76,1.88.15,3.84.59,5.72.65,2.43.11,4.93-.1,7.36-.15,4.34-.09,8.74.11,13.08-.1,1.31-.05,2.78-.13,4.09-.23,1.58-.29,3.29-.62,4.91-.58,1.59.02,3.32.12,4.91.21,1.04.11,2.34-.02,3.27.52,2,1.05,3.83,2.64,5.72,3.86,3.37,2.3,7.44,3.39,11.45,3.89,8.45,1.37,11.16-.04,18.8-3.21"/><path class="b" d="M13.84,61.97c5.39-.84,10.86-2.37,16.35-1.81,3.29.33,6.46,2.07,9.81,1.8,2.68-.6,5.5-.8,8.18-1.36,4.82-1.32,9.73-2.54,14.72-2.99,1.94-.02,3.86.74,5.72,1.18,1.84.45,3.86.45,5.72.1,3.31-.6,6.52-1.89,9.81-2.59,4.01-.89,8.16-1.26,12.26-1.34,4.35-.03,8.74.19,13.08.44,3.79.28,7.64.67,11.45.63,3.81,0,7.66-.34,11.45-.77,2.42-.1,4.94.11,7.36.21,2.46.49,4.45,2.39,6.54,3.66,2.21,1.42,4.77,2.47,7.36,2.95,2.67.51,5.47.59,8.18.8,2.14.12,4.4.55,6.54.23,1.93-.28,3.91-.94,5.72-1.63,1.29-.42,2.69-1.34,4.09-1.21"/><path class="b" d="M13.84,59.97c5.38-.85,10.87-2.21,16.35-1.55,2.76.37,5.46,1.39,8.18,1.96,2.73.59,5.49-.52,8.18-.9,1.59-.31,3.31-.55,4.91-.78,2.41-.58,4.91-1.15,7.36-1.49,1.61-.15,3.29-.68,4.91-.75,3.28.02,6.5,1.44,9.81.96,3.32-.35,6.58-1.38,9.81-2.19,3.2-.78,6.53-1.27,9.81-1.5,3.79-.24,7.66-.33,11.45-.04,4.07.35,8.17,1.05,12.26,1.17,3.53.12,7.12-.03,10.63-.37,3.24-.42,6.55-.62,9.81-.42,2.75-.23,5.16,1.45,7.36,2.87,1.98,1.27,4.25,2.3,6.54,2.82,3.19.77,6.56.61,9.81.67,2.43-.03,4.93.55,7.36.43,1.93-.15,3.91-.73,5.72-1.38.71-.26,1.72-.65,2.45-.87.37,0,1.25.02,1.64.02"/><path class="b" d="M13.84,57.23c1.04.06,2.25.14,3.27.32.74-.13,1.71-.29,2.45-.4,2.95-.42,6.01-.67,8.99-.47,2.77.17,5.5,1,8.18,1.65,1.02.24,2.21.63,3.27.64.43-.09,1.21-.29,1.64-.4,2.38-.72,4.88-1.33,7.36-1.49,2.14-.21,4.4.02,6.54-.19,1.59-.31,3.31-.58,4.91-.81,1.31-.27,2.75-.63,4.09-.71,2.44-.13,4.92.48,7.36.46,7.21-.13,14.07-3.06,21.26-3.41,3.24-.15,6.57-.1,9.81.16,4.34.49,8.7,1.33,13.08,1.36,4.36.08,8.76-.2,13.08-.76,2.95-.44,6.02-.32,8.99-.32,2.7.08,5.01,1.99,7.36,3.14,2.27,1.15,4.83,1.89,7.36,2.17,2.96.39,6.02-.06,8.99.07,2.44-.14,4.93.49,7.36.37,1.63-.12,3.36-.54,4.91-1.05.38-.14,1.25-.42,1.63-.57.7-.19,1.73-.1,2.45-.08"/><path class="b" d="M13.84,54.63c1.62.16,3.29.73,4.91.86,3.5-.47,7.11-.6,10.63-.21,1.9.21,3.86.65,5.72,1.07,1.67.35,3.27.89,4.91.13,2.09-.78,4.3-1.56,6.54-1.72,3.55-.37,7.09.68,10.63.7,2.75.03,5.45-.91,8.18-1.15,4.07-.18,8.22.19,12.26-.52,2.43-.32,4.95-.71,7.36-1.18,2.42-.51,4.89-1.19,7.36-1.45,7.43-.75,14.69,1.69,22.07,1.87,5.19.19,10.39-.48,15.53-1.06,2.97-.28,6.02-.23,8.99-.35,2.62.43,4.91,2.13,7.36,3.06,4.39,1.79,9.25,1.84,13.9,1.38,1.59-.12,3.32-.13,4.91-.05,1.59.15,3.3.5,4.91.37,1.62-.1,3.35-.46,4.91-.93.98-.37,2.21-.7,3.27-.52"/><path class="b" d="M13.84,52.31c2.14.31,4.38,1.43,6.54,1.28,4.36-.3,8.79.07,13.08.9,4.26.69,8.02-2.58,12.26-2.51,5-.24,9.72,2.55,14.72,2.03,4.58-.77,9.27-.89,13.9-1.12,5.19-.49,10.52-.76,15.53-2.28,7.55-2.57,15.26,1.21,22.89,1.4,5.18.29,10.42-.31,15.53-1.16,2.97.16,6.02-.27,8.99-.37,2.93-.61,5.55,1.18,8.18,2.19,2.58.99,5.41,1.56,8.18,1.66,3.54.18,7.1-.58,10.63-.59,1.89-.04,3.84.48,5.72.51,2.77.05,5.55-.65,8.18-1.46"/><path class="b" d="M13.84,50.38c1.87.47,3.84,1.01,5.72,1.4,2.43.07,4.94.02,7.36.28,1.32.09,2.77.36,4.09.4,3.38-.42,6.59-1.77,9.81-2.77,2.65-.77,5.53-.62,8.18.07,3.28.75,6.43,2.48,9.81,2.74,1.59-.11,3.31-.23,4.91-.27,5.45,0,10.93-.24,16.35-.8,4.43-.35,8.95-.76,13.08-2.51,2.91-1.09,6.05-.21,8.99.3,9.45,2.26,15.02,2.12,24.53.55,1.3-.19,2.77.2,4.09.1,2.98-.19,6.03-.51,8.99-.85,1.94.44,3.85,1.39,5.72,2.04,1.82.61,3.82,1.05,5.72,1.26,4.36.57,8.74-.44,13.08-.69,2.17-.15,4.38.46,6.54.55,2.45.1,4.99-.29,7.36-.92"/><path class="b" d="M13.84,49.03c1.03.26,2.23.55,3.27.76,1.03.09,2.24.02,3.27.06,2.43.06,4.94.27,7.36.53,2.81.2,5.64-1.08,8.18-2.18,6.88-3.47,12.21-1.46,18.8,1.33.73.28,1.69.66,2.45.83,1.87.02,3.85.16,5.72.27,4.88.42,9.83.66,14.72.21,4.36-.35,8.78-.74,13.08-1.57,2.23-.42,4.2-2.09,6.54-2.13,5.49.34,10.81,2.42,16.35,2.44,4.65.34,9.27-1.4,13.9-1.01,2.98.48,6.03.09,8.99-.32,1.87-.22,3.89-.74,5.72,0,8.32,3.44,13.58,2.39,22.07,1.3,2.17-.22,4.4.24,6.54.52,2.42.25,4.97.09,7.36-.37"/><path class="b" d="M13.84,47.57c4.35-.1,8.75.17,13.08.65,2.03.49,3.93-.31,5.72-1.19,1.65-.76,3.23-1.93,4.91-2.62,4.58-1.88,9.54-.26,13.9,1.49,1.61.62,3.24,1.56,4.91,2.04,1.89.15,3.86.52,5.72.82,6.72,1.27,13.65,1.72,20.44.69,2.15-.3,4.38-.77,6.54-1.01,1.31-.2,2.8-.02,4.09-.32,2.03-1.03,4.16-2.42,6.54-2.14,4.1.42,8.14,1.65,12.26,1.87,3.27.29,6.56-.33,9.81-.59,3-.41,6,.35,8.99.47,2.72.11,5.48-.47,8.18-.8,2.19-.45,4.48.1,6.54.83,1.82.54,3.83.82,5.72.96,4.67.47,9.27-.93,13.9-1.18,2.16-.15,4.4.27,6.54.53,2.14.23,4.4.22,6.54-.04"/><path class="b" d="M13.84,45.22c4.35,0,8.75.18,13.08.61,3.03.3,3.11.6,5.72-1.1,1.35-.82,2.75-1.89,4.09-2.72,3.9-2.14,8.37-.61,12.26.73,2.21.69,4.4,1.71,6.54,2.59,1.89.3,3.86.81,5.72,1.26,5.85,1.4,11.95,2.59,17.99,1.97,3.3-.32,6.53-1.39,9.81-1.82,1.02-.14,2.24-.23,3.27-.19.74.06,1.74.13,2.45-.15,1.39-.21,2.76-.95,4.09-1.38,1.29-.31,2.78-.24,4.09-.13,2.71.28,5.46.83,8.18.98,2.7.18,5.48.02,8.18-.11,3.83-.33,7.64.58,11.45.8,3.83.33,7.64-.75,11.45-.83,3.55.17,7.05,1.35,10.63,1.2,4.38,0,8.7-1.21,13.08-1.26,4.09-.1,8.17.97,12.26.64"/><path class="b" d="M13.84,43.04c4.89.01,9.83-.02,14.72.3,1.03.02,2.27.24,3.27-.07,1.06-.72,2.26-1.65,3.27-2.43,4.57-4.32,9.66-1.48,14.72.07,1.62.5,3.34,1.14,4.91,1.81,3.52.97,7.07,2.1,10.63,2.94,4.53.92,9.29,1.88,13.9,1.03,3.24-.69,6.47-1.79,9.81-1.94,1.88-.21,3.85.05,5.72.15.72-.18,1.72-.39,2.45-.53,2.13-.32,4.38-.7,6.54-.71,2.98.05,6.01.43,8.99.52,3.25.16,6.58-.1,9.81.37,1.59.2,3.31.36,4.91.53,1.86.31,3.82.77,5.72.79,3.29.05,6.53-1.04,9.81-1.11,3.52-.04,7.1.49,10.63.3,4.36-.2,8.71-1.05,13.08-1.09,3.82-.14,7.64.71,11.45.74"/><path class="b" d="M13.84,41.18c3.25,0,6.56-.27,9.81-.4,2.97-.14,6.02-.07,8.99-.2,1.23-.39,2.25-1.62,3.27-2.37,1.52-1.41,3.66-2.18,5.72-1.84,2.24.34,4.4,1.33,6.54,2,4.11,1.19,8.16,2.72,12.26,3.94,5.25,1.59,10.82,3.03,16.35,2.58,3.01-.4,5.94-1.55,8.99-1.69,3.25-.41,6.56-.64,9.81-.18,3.22-.56,6.56-.48,9.81-.42,4.62.09,9.3.14,13.9.51,2.46.34,4.93,1.09,7.36,1.61,1.84.42,3.82.81,5.72.79,2.44-.09,4.95-.58,7.36-.95,2.39-.52,4.93-.52,7.36-.72,3.25-.18,6.56-.45,9.81-.69,4.33-.38,8.72-.86,13.08-.8,2.72.06,5.47.62,8.18.85"/><path class="b" d="M13.84,39.66c3.55-.09,7.11-.67,10.63-1.12,2.96-.4,6.02-.52,8.99-.83,1.32.04,2.34-1.08,3.27-1.85,1.32-1.17,3.15-1.82,4.91-1.55,2.24.33,4.39,1.36,6.54,2.01,4.4,1.2,8.7,2.86,13.08,4.14,4.48,1.37,9.18,2.53,13.9,2.36,2.47-.07,4.89-1.04,7.36-1.04,3.27,0,6.57-.37,9.81-.75,4.89-.08,9.83.1,14.72.41,3.52.28,7.16.17,10.63.9,4.32.91,8.62,2.46,13.08,2.37,2.17-.09,4.39-.62,6.54-.87,2.98-.36,6.02-.74,8.99-1.14,3.24-.35,6.58-.34,9.81-.8,4.87-.6,9.81-1.06,14.72-1.15,2.46.02,4.94.69,7.36,1.08"/><path class="b" d="M13.84,37.87c1.32-.06,2.77.15,4.09.18,3.56-.51,7.08-1.55,10.63-2.12,2.42-.41,4.95-.6,7.36-1.1.9-.17,1.73-1.08,2.45-1.57.69-.42,1.65-.78,2.45-.83,2.25-.11,4.43.9,6.54,1.54,4.67,1.31,9.25,3.05,13.9,4.42,4.23,1.24,8.64,2.37,13.08,2.28,1.9.01,3.84-.51,5.72-.64,2.16-.06,4.38.39,6.54.32,2.17-.04,4.4-.51,6.54-.84,4.06-.52,8.19.46,12.26.56,2.7.24,5.5.34,8.18.79,3.01.57,5.99,1.57,8.99,2.16,2.39.47,4.93.71,7.36.47,1.89-.23,3.84-.75,5.72-1.05,2.13-.36,4.38-.58,6.54-.69,1.87-.28,3.83-.69,5.72-.82,2.14-.19,4.4-.11,6.54-.28,4.06-.47,8.17-1,12.26-1.2,1.86-.17,3.85-.44,5.72-.24,1.91.19,3.85.84,5.72,1.22"/><path class="b" d="M13.84,35.27c1.87-.2,3.86-.24,5.72.05,1.05.14,2.22.56,3.27.71.44-.1,1.21-.33,1.64-.44,4.25-1.36,8.71-1.98,13.08-2.83.49-.13,1.27-.64,1.63-.98.69-.45,1.64-.85,2.45-.93,3.09-.13,6.07,1.27,8.99,2.08,4.04,1.39,8.15,2.71,12.26,3.86,3.45.95,7.04,1.71,10.63,1.72,2.17.09,4.38-.47,6.54-.48,1.9.06,3.84.64,5.72.82,3.02.32,6.04-.53,8.99-.99,2.15-.21,4.39.43,6.54.58,2.97.33,6.03.46,8.99.82,4.37.85,8.6,2.61,13.08,2.86,4.18.47,8.23-.84,12.26-1.71,2.39-.52,4.93-.5,7.36-.66,3.75-.84,7.63-.85,11.45-.77,2.16-.06,4.39-.47,6.54-.65,2.97-.29,6.03-.41,8.99-.72,2.79-.34,5.52.76,8.18,1.41"/><path class="b" d="M13.84,32.31c1.61.26,3.3-.33,4.91-.36,1.91-.1,3.93.2,5.72.88.76.28,1.74.75,2.45,1.14.78.17,1.71-.19,2.45-.36,1.03-.26,2.23-.53,3.27-.72,1.59-.29,3.31-.53,4.91-.78.89,0,1.81-.68,2.45-1.23,1.56-1.35,3.76-1.6,5.72-1.16,2.5.47,4.93,1.5,7.36,2.24,4.6,1.3,9.21,2.76,13.9,3.72,4.03.83,8.21.81,12.26.2,2.21-.18,4.4.66,6.54,1.04,2.99.54,6.05-.15,8.99-.66,1.6-.09,3.31.36,4.91.5,3.23.49,6.59.55,9.81,1.08,2.44.62,4.89,1.53,7.36,2.03,2.66.54,5.47.64,8.18.45,4.19-.2,8.15-1.88,12.26-2.53,1.85-.32,3.85-.32,5.72-.31,1.58-.27,3.3-.49,4.91-.57,2.98-.19,6.02.34,8.99.07,4.6-.51,9.28-.72,13.9-1.07,2.52-.09,4.94,1.04,7.36,1.58"/><path class="b" d="M13.84,27.48c1.64-.1,3.39.34,4.91.94,3.35-.79,6.93.02,9.81,1.85,1.39.76,2.65,2.08,4.09,2.72,1.59-.2,3.31-.33,4.91-.47,2.46-1.21,4.45-3.8,7.36-3.92,2.56-.15,4.93,1.15,7.36,1.73,3.8.85,7.68,1.58,11.45,2.61,3.72.94,7.6,1.44,11.45,1.14,2.99-.1,6.08-.97,8.99.1,1.82.53,3.82.88,5.72.81,1.6-.02,3.31-.38,4.91-.45,3.24.42,6.56.81,9.81,1.19,1.31.17,2.81.2,4.09.57,1.87.56,3.81,1.26,5.72,1.66,3.75.8,7.67.48,11.45.02,4.16-.5,8.13-2.12,12.26-2.76,1.58-.24,3.31-.32,4.91-.22,1.59-.14,3.31-.29,4.91-.31,2.71-.09,5.47.36,8.18.31,5.16-.23,10.37-.73,15.53-.76,2.21.23,4.36,1.22,6.54,1.6"/><path class="b" d="M13.84,23.36c2.17-.35,4.46,0,6.54.65,3.07-.54,6.32.21,8.99,1.75,2.09,1.2,3.96,2.95,5.72,4.58.83.82,2.21,1.05,3.27,1.41,4.15-2,6.63-4.7,11.45-2.5,3.17.95,6.58.53,9.81,1.08,4.32.79,8.65,2.15,13.08,1.69,3.53-.12,7.1-.57,10.63-.49,1.6.32,3.29.83,4.91,1.04,1.58.22,3.31.21,4.91.11,3.81.39,7.66.85,11.45,1.4,3.1.16,5.96,1.65,8.99,2.17,4.89.74,9.89-.32,14.72-1.08,3.56-.68,7.03-2.05,10.63-2.57,2.14-.38,4.39-.08,6.54-.12,3.53-.18,7.1.3,10.63.38,4.89-.08,9.83-.3,14.72-.39,2.49.19,4.88,1.32,7.36,1.63"/><path class="b" d="M13.84,20.38c2.42-.49,4.93-.11,7.36-.04,4.88.23,10.11,1.15,13.9,4.45,3.44,1.04,6.98,2.4,10.63,2.23,1.32-.01,2.77-.37,4.09-.32,2.26.18,4.47,1.08,6.54,1.94.97.56,2.19.56,3.27.56,1.03.06,2.25.22,3.27.38,1.31.2,2.77.45,4.09.64,1.87.04,3.85-.16,5.72-.28,4.06-.33,8.19-.58,12.26-.29,1.33.06,2.77.47,4.09.65,1.31.18,2.79.22,4.09.46,4.1.41,8.21,1.03,12.26,1.74,1.95.18,3.84,1.08,5.72,1.56,4.85,1.42,9.88-.17,14.72-.87,4.73-.6,9.18-2.63,13.9-3.26,2.15-.25,4.41-.05,6.54.26,2.43.05,4.94.11,7.36.32,3.52.13,7.11.19,10.63.21,2.15.03,4.4-.25,6.54-.06,2.47.31,4.88,1.35,7.36,1.57"/><path class="b" d="M13.84,18.24c1.87-.18,3.86-.14,5.72,0,2.18.47,4.34,1.39,6.54,1.76,3.52.6,7.26-.06,10.63,1.38,4.31,1.01,8.74,1.67,13.08,2.5,3.7.97,7.4,2.38,10.63,4.45,1.6-.07,3.31.26,4.91.21,5.17-.28,10.35-1.13,15.53-1.13,3.83,0,7.67.59,11.45,1.18,3.55.42,7.14.88,10.63,1.7,1.86.44,3.91.62,5.72,1.25,5.68,2.25,9.89.94,15.53-.29,2.44-.51,4.98-.96,7.36-1.71,3.43-1.1,6.97-2.39,10.63-2.24,2.73.04,5.44.88,8.18.75,5.71.11,11.46,1.12,17.17.61,3.63-.37,7.06,1.34,10.63,1.65"/><path class="b" d="M13.84,16.58c1.32.05,2.8.14,4.09.46,3.31,1.91,6.54,4.77,10.63,4.41,3.82-.29,7.55-2.16,11.45-1.44,5.24.88,10.53,2.01,15.53,3.82,2.3.76,4.39,2.19,6.54,3.25,2.69-.42,5.47-.47,8.18-.74,3.78-.49,7.62-1.06,11.45-1.02,4.93.06,9.83,1.07,14.72,1.7,3.84.66,7.62,1.85,11.45,2.59,1.62.27,3.28.93,4.91,1.2,3.58.64,7.18-.5,10.63-1.37,2.42-.66,4.99-1.14,7.36-1.99,3.92-1.39,8.03-2.89,12.26-2.49,1.9.1,3.85.59,5.72.88,1.02-.02,2.25-.02,3.27.05,3.27.19,6.55.87,9.81,1.11,1.59-.07,3.3-.41,4.91-.42,3.91-.31,7.61,1.42,11.45,1.78"/><path class="b" d="M13.84,15.19c1.7.11,2.97,1.1,4.09,2.29,1.71,1.71,3.48,3.66,5.72,4.66,6.75,2.96,12.91-2.67,19.62-2.44,3.58.23,7.1,1.34,10.63,1.93,3.09.66,6.09,1.9,8.99,3.13,1,.32,2.24.06,3.27.08,3.56,0,7.11-.74,10.63-1.2,4.06-.51,8.22-.48,12.26.13,3.27.46,6.61.93,9.81,1.76,4.85,1.35,9.71,2.84,14.72,3.52,3.32.48,6.66-.52,9.81-1.46,2.16-.69,4.48-1.22,6.54-2.19,1.56-.63,3.34-1.03,4.91-1.65,3.12-1.1,6.55-1.38,9.81-.84,1.03.17,2.26.46,3.27.75,1.59.1,3.33.01,4.91.3,1.89.24,3.83.87,5.72,1.06.71-.17,1.73-.34,2.45-.42,3.23-.42,6.6-.35,9.81.25,2.42.52,4.88,1.35,7.36,1.58"/><path class="b" d="M13.84,14.02c3.93,3.12,5.85,8.84,11.45,9.58,3.56.51,7.22-.42,10.63-1.39,2.67-.83,5.36-2.02,8.18-2.27,2.98-.16,6.01.48,8.99.56,3.64.14,7.24,1.12,10.63,2.41,4.91.72,9.86-.65,14.72-1.24,9.76-1.34,19.42,1.44,28.61,4.44,5.32,1.55,11.14,1.7,16.35-.34,2.76-.85,5.37-2.35,8.18-3.08,3.35-1.38,6.96-2.5,10.63-2.2,1.64.12,3.4.52,4.91,1.19,2.17-.15,4.45.06,6.54.71,1.01.51,2.25-.11,3.27-.3,1.01-.19,2.25-.28,3.27-.29,3.01-.37,6,.68,8.99.82,3.05.14,5.95,1.59,8.99,1.86"/><path class="b" d="M13.84,13.7c3.32,3.84,5.55,10.16,11.45,10.36,2.75.13,5.51-.63,8.18-1.18,3.59-.68,7.07-2,10.63-2.79,2.95-.46,6.02-.26,8.99-.42,2.72-.09,5.53.08,8.18.76,1.04.24,2.24.62,3.27.9,1.59.1,3.31.13,4.91.02,4.91-.41,9.77-1.71,14.72-1.69,3.28-.08,6.6.43,9.81,1.06,2.44.49,4.99.94,7.36,1.74,2.69.89,5.39,2.08,8.18,2.66,7.07,1.57,13.88-1.67,20.44-3.86,3.61-1.53,7.44-3.09,11.45-2.77,1.38.11,2.91.52,4.09,1.26,1.88.05,3.9-.2,5.72.41.79-.08,1.7-.68,2.45-.89,1.27-.37,2.77-.41,4.09-.34,3.1-.06,6.01,1.24,8.99,1.87,1.57.3,3.31.25,4.91.22,2.13.61,4.34,1.33,6.54,1.65"/><path class="b" d="M13.84,13.32c2.97,4.18,5.18,11.06,11.45,10.52,2.47-.13,4.95-.83,7.36-1.33,3.26-.73,6.59-1.48,9.81-2.37,3.17-.9,6.55-1.04,9.81-1.35,2.7-.22,5.49-.33,8.18.11,1.33.18,2.77.59,4.09.81,1.31.11,2.78.16,4.09.11,4.1-.17,8.18-1.09,12.26-1.42,3.25-.32,6.58-.08,9.81.34,3.53.59,7.21.82,10.63,1.9,3.49,1.15,6.87,3.1,10.63,3.2,5.67.09,10.96-2.45,16.35-3.87,3.39-1.47,6.87-3.17,10.63-3.35,1.68-.1,3.56.26,4.91,1.32,1.58.23,3.31-.32,4.91-.01,2.43-3.02,6.54-1.73,9.81-1.31,2.57.36,4.79,2.2,7.36,2.66,2.13.57,4.4-.04,6.54.07,1.85.58,3.81,1.2,5.72,1.52"/><path class="b" d="M13.84,12.44c4.88,8.26,5.36,12.94,16.35,9.69,8.64-1.92,17.25-4.54,26.16-4.73,3.29-.13,6.54.82,9.81.93,4.1.14,8.2-.67,12.26-1.05,2.97-.36,6.02-.46,8.99-.07,1.88.09,3.87.15,5.72.51,2.97.55,6.15.26,8.99,1.44,2.45.87,4.81,2.25,7.36,2.84,5.9,1.2,11.52-2.06,17.17-3.27,3.98-1.45,7.87-3.89,12.26-3.77.76.04,1.79.29,2.45.67.31.31,1.23.8,1.64.97,1.02-.23,2.25-.37,3.27-.57,2.27-4.07,5.43-2.23,8.99-1.43,1.57.41,3.32.55,4.91.9,1.51.87,3.21,1.75,4.91,2.19,2.13.62,4.41.22,6.54-.18,2.15.56,4.34,1.37,6.54,1.7"/><path class="b" d="M13.84,11.72c4.79,6.64,4.17,12.98,14.72,9.78,8.88-2.18,17.77-5.15,26.98-5.4,3-.06,6.02.54,8.99.82,2.43.16,4.95-.06,7.36-.36,4.87-.63,9.81-1.21,14.72-.84,2.15-.05,4.41.08,6.54.36,1.59.23,3.29.56,4.91.53,5.84.15,10.31,5.41,16.35,4.01,2.49-.45,4.95-1.34,7.36-2.09,1.84-.67,3.95-.96,5.72-1.82,2.37-1.07,4.84-2.18,7.36-2.85,2.29-.7,4.9-.64,6.54,1.35.76.1,1.72-.22,2.45-.38,4.07-7.32,5.33-1.14,13.9-.38,1.02.12,2.24.19,3.27.24,1.83.64,3.74,1.5,5.72,1.49,1.04.03,2.26-.15,3.27-.39,2.7.61,5.42,1.52,8.18,1.82"/><path class="b" d="M13.84,11.99c.68.88,1.72,1.91,2.45,2.73,1.42,3.09,3.35,7.01,7.36,6.62,3.07-.21,6.03-1.43,8.99-2.19,6.2-1.66,12.39-3.78,18.8-4.45,2.43-.17,4.95.01,7.36.29,2.4.46,4.9.93,7.36.77,4.64-.27,9.25-1.32,13.9-1.58,1.59-.16,3.32-.16,4.91.03,2.42-.08,4.94-.08,7.36.12,3.53.45,7.29.44,10.63,1.78,5.25,2.38,7.81,4.55,13.9,2.65,3.76-1.22,7.84-2.4,11.45-3.96,2.12-.88,4.33-1.83,6.54-2.45,2.29-.72,4.2-.13,5.72,1.78,1.37.11,1.99-1.26,2.45-2.29,1.73-3.24,3.11-2.77,5.72-.77,2.65,1.77,5.82,2.8,8.99,3.02,1.59.12,3.31-.02,4.91-.1,1.81.59,3.85.75,5.72.39,3.28.3,6.5,1.48,9.81,1.63"/><path class="b" d="M13.84,12.06c.65.72,1.55,1.59,2.45,1.98,1.67,2.54,2.88,6.22,6.54,6.14,3.96-.11,7.67-1.92,11.45-2.95,2.69-.83,5.47-1.67,8.18-2.48,2.65-.81,5.38-1.71,8.18-1.78,2.15-.04,4.44.09,6.54.57,2.6.89,5.42,1.4,8.18,1.21,4.67-.32,9.24-1.67,13.9-2.07,2.15-.31,4.39-.19,6.54-.05,2.97-.15,6.03-.16,8.99.15,2.74.31,5.6.71,8.18,1.74,2.99,1.19,5.72,3.35,8.99,3.68,2.22.24,4.45-.61,6.54-1.26,3.31-.96,6.6-2.2,9.81-3.45,2.42-.89,4.82-2.2,7.36-2.72,1.63-.32,3.11.93,4.09,2.09,1.8-1.09,1.89-4.29,4.09-4.97.86-.02,1.76.65,2.45,1.07.99.59,2.21,1.24,3.27,1.71,2.82,1.23,5.93,1.95,8.99,2.16,1.31.1,2.78.01,4.09-.01,2.1.65,4.43.59,6.54.01,2.99.26,5.99,1.03,8.99,1.2"/></svg>