<?xml version="1.0" encoding="UTF-8"?><svg id="a" xmlns="http://www.w3.org/2000/svg" width="1920" height="2400" viewBox="0 0 192 240"><defs><style>.b{fill:none;stroke:#fff;stroke-miterlimit:10;stroke-width:.3px;}.c{stroke-width:0px;}</style></defs><rect class="c" width="192" height="240"/><path class="b" d="M12.36,225.87c2.47.22,5.02.08,7.49,0,3.91.14,7.9-.19,11.65-1.35,3.54-1.09,7.21-1.97,10.82-2.82,4.87-1.27,6.61-1.97,9.15,3.06,5.98-12.16,6,1.46,19.14,2.69,2.74.37,5.58.4,8.32.76,3.3.38,6.65,1.1,9.99.96,1.94-.05,3.94-.5,5.83-.89,1.36-.04,2.85-.33,4.16-.66,1.01-.38,2.29-.14,3.33-.35,1.71-.38,3.58-.9,4.99-1.97,2.83-2.12,5.33-4.81,8.32-6.72,1.08-.55,1.99-1.92,3.33-1.8,1.28.25,2.41,1.33,3.33,2.19,1.71,1.66,3.3,3.72,4.99,5.4,4.64,4.71,8.68,5.21,14.98,4.19,4.96-.53,9.98-1.33,14.98-1.2,8.45,6.35,12.91,5.18,22.47,2.85"/><path class="b" d="M12.36,223.07c.76.37,1.7,1.02,2.5,1.32,1.92.06,3.92-.21,5.83-.32,3.6-.12,7.29-.17,10.82-1.02,3.07-.7,6.1-1.81,9.15-2.55,3.14-.84,6.36-1.35,8.32,1.86l.83.23c4.58-8.15,6.59-3.21,12.48-.18,2.31,1.22,4.93,1.99,7.49,2.48,3.01.59,6.14.83,9.15,1.36,3.29.55,6.63,1.39,9.99,1.35,1.05-.01,2.29-.13,3.33-.31,2.22.17,4.52-.18,6.66-.76,1.63-.42,3.45-.54,4.99-1.27,1.34-.59,3.03-.9,4.16-1.88,3.05-2.4,5.59-5.67,9.15-7.36,3.05-1.95,7.04,3.86,9.15,5.66,5.83,5.67,9.18,5.15,16.64,3.93,4.68-.47,9.45-.38,14.15-.23,3.96,3.11,9,5.54,14.15,4.59,2.77-.56,5.5-1.66,8.32-1.99"/><path class="b" d="M12.36,220.73c1.41.4,2.9,1.09,4.16,1.82.73.36,1.73.13,2.5.05,4.42-.47,8.94-.45,13.32-1.28,2.21-.4,4.47-1.06,6.66-1.57,1.59-.35,3.39-.66,4.99-.2.45.14,1.28.58,1.66.86.32.39,1.14.93,1.66.95,1.69-1.98,3.55-5.59,6.66-4.71,1.76.46,3.39,1.54,4.99,2.35,1.55.8,3.35,1.32,4.99,1.9,4.58,1.53,9.42,2.21,14.15,3.15,4.1.85,8.25,2.12,12.48,1.85,2.47.54,5.06.1,7.49-.46,1.97-.41,4.02-.97,5.83-1.89.73-.32,1.74-.73,2.5-.99.81-.23,1.9-.42,2.5-1.08,3.16-2.44,6.31-7.73,10.82-6.94,2.99,1.2,5.14,3.86,7.49,5.94,5.97,5.47,11.84,5.66,19.14,2.79,1.29-.51,2.77-.9,4.16-.58,1.9.19,3.92.39,5.83.51,1.51.44,2.75,1.85,4.16,2.55,2.78,1.46,5.92,3.11,9.15,2.45,3.34-.7,6.55-2.19,9.99-2.45"/><path class="b" d="M12.36,218.71c2.55.42,5.1,1.24,7.49,2.19,3.31-.25,6.69-.41,9.99-.77,4.66-.26,9.89-2.73,14.15.16,1.7-1.42,3.27-3.25,4.99-4.63,3.57-1.85,8.11,1.63,11.65,2.43,1.59.46,3.36.74,4.99.99,3.29.83,6.67,1.59,9.99,2.33,3.6.79,7.18,1.93,10.82,2.51.74.12,1.75.23,2.5.28.75.15,1.73.47,2.5.55,3.08.17,6.16-.77,9.15-1.36,2.69-1.19,5.32-2.9,8.32-3.19,2.7-1.8,4.46-5.02,7.49-6.38,3.21-1.44,6.13,1.35,8.32,3.38,1.53,1.4,3.24,2.86,4.99,3.98,4.11,2.82,9.39,3.36,14.15,2.08,4.04-1.22,8.19-2.76,12.48-2.14,11.71,9.51,10.99,4.09,23.3,2.4"/><path class="b" d="M12.36,216.92c2.49.2,5.05.51,7.49,1.06,1.63.28,3.32,1.12,4.99.95,2.47-.11,5.03-.28,7.49-.54,2.46-.35,5.04-.5,7.49.07,1.39-.6,2.87-1.4,4.16-2.19.73-.59,1.66-1.38,2.5-1.81,1.8-.91,3.93-.59,5.83-.23,2.25.27,4.47,1.01,6.66,1.55,2.71.68,5.57.95,8.32,1.42,3.32.78,6.69,1.63,9.99,2.52,2.45.69,5,1.37,7.49,1.93,1.04.23,2.28.46,3.33.6.41.22,1.22.58,1.66.71,2.18.6,4.51,0,6.66-.45,1.6-.46,3.55-.35,4.99-1.22,1.77-1.14,3.76-2.19,5.83-2.67,1.06-.32,2.45-.1,3.33-.86,2.32-2.21,4.65-5.89,8.32-5.23,3.58.91,6.13,3.99,9.15,5.94,5.95,4.4,13.1,4.82,19.97,2.51,1.59-.44,3.35-.81,4.99-.97,1.1-.11,2.5-.32,3.33.6,3.67,2.75,7.73,5.57,12.48,3.71,3.5-1.31,7.1-2.56,10.82-3.09"/><path class="b" d="M12.36,215.42c3.03.11,6.13.21,9.15.46,2.75.22,5.56.6,8.32.6,4.51-.19,9.11-1.09,13.32-2.75,3.34-1.73,7.24-.67,10.82-.68,4.71.57,9.48,1.21,14.15,2.07,5.57,1.32,11.05,3.16,16.64,4.38.74.17,1.77.36,2.5.58,1.42.99,3.26,1.54,4.99,1.33,2.78-.37,5.52-1.33,8.32-1.58,1.3-.84,2.7-1.9,4.16-2.47,1.28-.52,2.78-.92,4.16-1.06.79-.06,1.85.02,2.5-.54,1.25-1.3,2.57-2.9,4.16-3.8,4.21-2,8.24,2.09,11.65,4.1,2.54,1.66,5.35,3.13,8.32,3.83,2.97.63,6.14.73,9.15.38,3.04-.46,6.08-1.33,9.15-1.55,2.72,1.45,5.23,3.63,8.32,4.32,3.16.78,6.27-.73,9.15-1.85,2.66-1.05,5.52-1.8,8.32-2.37"/><path class="b" d="M12.36,214.04c7.2.17,14.46.36,21.64-.28,3.38-.29,6.68-1.32,9.99-1.96,1.62-.19,3.37-.11,4.99-.16,1.91-.04,3.92-.29,5.83-.29,5.03.02,10.11.67,14.98,1.9,2.5.62,5.02,1.5,7.49,2.23,2.72.76,5.56,1.37,8.32,1.96.89.07,1.74.9,2.5,1.29,2.3,1.36,5.08.76,7.49.01,1.59-.52,3.39-.68,4.99-1.11,1.26-.92,2.68-1.98,4.16-2.51,2.1-.76,4.43-1.13,6.66-1.02.97-.28,1.76-1.41,2.5-2.05,3.98-4.01,9.44-.04,13.32,2.15,2.83,1.65,5.9,3.17,9.15,3.74,5.24.84,10.59.31,15.81-.39,2.92,1.57,5.76,3.71,9.15,4.12,2.89.39,5.71-.87,8.32-1.94,3.21-1.29,6.54-2.63,9.99-3.12"/><path class="b" d="M12.36,212.59c4.69.33,9.44.46,14.15.41,2.75-.06,5.59.06,8.32-.32,3.07-.45,6.11-1.43,9.15-2.01,1.34-.1,2.83-.06,4.16-.22,4.39-.62,8.86-1.54,13.32-1.01,4.24.44,8.46,1.45,12.48,2.82,3.24,1.11,6.64,1.91,9.99,2.62.42.08,1.25.25,1.66.32.43.24,1.26.79,1.66,1.08,1.2.78,2.71,1.39,4.16,1.35,1.98-.07,3.93-.89,5.83-1.37,1.07-.34,2.49-.22,3.33-1.07,3.18-2.72,7.57-3.54,11.65-3.2.96-.09,1.74-1.15,2.5-1.66,2.45-1.88,5.75-1.01,8.32.13,3.61,1.55,7.03,3.72,10.82,4.84,2.39.74,5,.83,7.49.86,2.19.02,4.47.16,6.66.12.74-.02,1.77-.12,2.5.08.7.52,1.74,1.18,2.5,1.63,2.02,1.17,4.32,2.16,6.66,2.41,3.19.34,6.28-1.06,9.15-2.27,2.43-1.02,4.95-2.12,7.49-2.84,1.02-.3,2.33-.35,3.33-.71"/><path class="b" d="M12.36,210.93c6.91.54,13.86,1.46,20.8,1.31,3.4-.31,6.68-1.55,9.99-2.31,1.59-.44,3.37-.51,4.99-.8,2.19-.46,4.46-1.08,6.66-1.51,7.53-1.62,14.58.9,21.64,3.19,3,.81,6.13,1.38,9.15,2.08.94.82,2.17,1.7,3.33,2.19,2.43,1.09,5.12.1,7.49-.66.74-.23,1.79-.43,2.5-.76,1.01-.77,2.23-1.69,3.33-2.34,3.52-2.02,7.78-1.59,11.65-1.38,3.21-2.96,7.24-1.88,10.82-.27,3.26,1.37,6.52,3.01,9.99,3.81,2.15.51,4.47.38,6.66.45,2.18.18,4.52.1,6.66.58,2.63,2.17,5.74,4.08,9.15,4.61,4.4.68,8.55-1.57,12.48-3.23,3.18-1.56,6.69-2.4,9.99-3.64"/><path class="b" d="M12.36,209.07c6.69.42,13.28,2.16,19.97,2.39,3.42-.11,6.72-1.35,9.99-2.22,2.18-.59,4.48-1.06,6.66-1.67,2.2-.59,4.44-1.43,6.66-1.96,5.22-1.23,10.77-.6,15.81,1.11,3.04,1.03,5.97,2.62,9.15,3.19,1.6.38,3.4.22,4.99.56.38.37,1.24,1.06,1.66,1.38,3.24,2.55,6.54,1.5,9.99.02,1.59-1.1,3.23-2.42,4.99-3.23,3.92-1.6,8.41-.98,12.48-.35,4.56-3.22,9.6-.22,14.15,1.4,1.87.67,3.87,1.36,5.83,1.73,1.89.32,3.92.33,5.83.42,1.34.07,2.83.17,4.16.28.83.42,1.77,1.28,2.5,1.85,2.82,2.27,6.28,4.12,9.99,4.13,4.12-.04,7.97-1.94,11.65-3.59,3.54-1.58,7.17-3.15,10.82-4.44"/><path class="b" d="M12.36,207.8c1.91.09,3.92-.09,5.83-.13,3.63.52,7.22,1.54,10.82,2.22,4.2.87,8.46-.24,12.48-1.4,2.47-.7,5.06-1.34,7.49-2.19,2.2-.75,4.42-1.76,6.66-2.41,2.69-.69,5.53-1.3,8.32-1.25,3.99.28,8.02,1.27,11.65,2.97,3.14,1.55,6.43,3.17,9.99,3.41,2.19,1.38,4.86,2.63,7.49,1.92,4.07-1.23,7.22-4.91,11.65-5.12,3.61-.34,7.27.21,10.82.8,1.09-.08,2.23-.8,3.33-.92,3.17-.5,6.22.98,9.15,1.95,2.68.92,5.52,1.62,8.32,2,1.03.14,2.29.26,3.33.33.76.05,1.82.04,2.5.45,3.95,2.94,8.13,6.46,13.32,6.47,3.17.04,6.26-1.16,9.15-2.33,5.09-1.93,9.85-4.74,14.98-6.55"/><path class="b" d="M12.36,206.7c3.33.44,6.69-.03,9.99-.45,3.57.84,7.1,2.35,10.82,2.29,3.08,0,6.19-.63,9.15-1.41,3.11-.77,6.23-1.79,9.15-3.11,2.12-.97,4.38-1.9,6.66-2.45,1.84-.7,3.84-1.35,5.83-1.47,2.52-.19,5.02.64,7.49,1.01,3.94.73,7.32,3.02,10.82,4.83,1.28.65,2.8,1.1,4.16,1.52.99.46,2.24.84,3.33.94,4.52.27,8.14-3.33,12.48-4.03,4.68-.83,9.5-.09,14.15.62,1.07.29,2.28-.33,3.33-.47,2.82-.46,5.66.5,8.32,1.31,3.25.98,6.64,1.77,9.99,2.34,2.25,1.26,4.45,2.84,6.66,4.17,5.68,3.63,10.39,3.83,16.64,1.46,3.07-1.14,6.29-2.13,9.15-3.73,3-1.39,6.13-2.68,9.15-4.02"/><path class="b" d="M12.36,205.51c2.72.51,5.59.65,8.32.21,1.65-.16,3.34-.95,4.99-.93,5.29,2.02,11.13,2.24,16.64,1.08,5.62-.95,10.52-4.04,15.81-5.94,2.99-1.75,6.47-3.14,9.99-2.45,1.61.42,3.35.68,4.99.89,3.38.56,6.4,2.37,9.15,4.32,3.3,2.32,6.78,3.89,10.82,2.5,8.24-3.04,13.86-3.07,22.47-1.98,1.33.13,2.82.37,4.16.33,1.89-.39,3.95-.25,5.83.13,2.76.67,5.68,1.22,8.32,2.28,3.18,1.42,6.08,3.53,9.15,5.16,7.97,4.57,14.48,1.62,22.47-.88,2.38-1.31,4.94-2.49,7.49-3.42,2.24-.71,4.53-1.57,6.66-2.56"/><path class="b" d="M12.36,204.2c5.29,1.51,9.9.8,14.98-1.02.52-.2,1.17-.15,1.66.08.75.22,1.73.47,2.5.58,2.46.33,5.01.69,7.49.72,3.69.05,7.44-.72,10.82-2.21,2.75-1.3,5.56-2.67,8.32-3.94,2.27-1.62,4.67-3.45,7.49-3.92,1.92-.33,4-.07,5.83.56,1.63.15,3.41.18,4.99.67,3.52.94,6.28,3.52,9.15,5.61,2.93,2.35,4.82,2.15,8.32,1.42,1.33-.28,2.82-.54,4.16-.71,1.02-.32,2.26-.6,3.33-.67,2.47.1,5.01-.1,7.49-.02,3.87.17,7.78.52,11.65.65,8.03-.02,11.64,2.78,18.31,6.41,5.79,3.07,12.04,3.45,18.31,1.7,1.91-.45,3.92-.98,5.83-1.45,1.87-.9,3.87-1.86,5.83-2.58,1.61-.6,3.35-1.27,4.99-1.76,1.97-.42,4.06-.95,5.83-1.97"/><path class="b" d="M12.36,202.82c6.33,2.09,10.63,1.19,16.64-1.1,1.05-.42,2.23-.58,3.33-.28,1.35.2,2.83.5,4.16.76,9.14,1.93,13.05-.88,20.8-4.64,2.38-1.39,4.15-3.85,6.66-5.09,2.79-1.51,6.22-1.42,9.15-.38,1.64-.06,3.42.09,4.99.59,4.66,1.31,7.73,5.37,11.65,7.92,1.39,1.04,3.37.56,4.99.56,1.67-.35,3.29-1.32,4.99-1.57,3.35-.71,6.65.89,9.99.83,2.75.07,5.57.17,8.32.17,3.66-.03,7.5.17,10.82,1.89,2.73,1.37,5.44,3.02,8.32,4.05,7.77,2.81,16.27,1.85,24.13-.03,2.68-1.15,5.57-2.01,8.32-2.96,1.32-.47,2.79-1.07,4.16-1.4,1.97-.3,4.15-.46,5.83-1.68"/><path class="b" d="M12.36,201.37c6.72,2.39,11.04,1.78,17.48-.83,1.3-.48,2.81-.72,4.16-1,.78-.07,1.75.25,2.5.45,6.2,1.98,10.92,1.64,16.64-1.51,1.6-.88,3.34-1.8,4.99-2.57,1.42-1.3,2.78-2.98,4.16-4.31,3.04-3.19,7.53-3.83,11.65-2.73,1.01.35,2.29.14,3.33.35,2.66.41,5.3,1.49,7.49,3.07,2.91,1.87,7.23,7.71,10.82,6.89,1.87-.53,3.86-1.19,5.83-1.18,3.32.23,6.66.93,9.99,1.14,5.24.81,10.86-.85,15.81,1.6,5.77,3.16,8.33,3.95,14.98,4.17,4.98.26,10.03.45,14.98-.3,2.24-.2,4.47-1.02,6.66-1.5,3.15-.62,6.16-1.92,9.15-3.01,2.21-.54,4.83.08,6.66-1.58"/><path class="b" d="M12.36,199.77c4.21,1.5,8.92,2.43,13.32,1.2,1.95-.52,3.9-1.39,5.83-1.98,1.04-.3,2.29-.49,3.33-.79.44-.15,1.21-.33,1.66-.36.75.25,1.75.6,2.5.84,2.91,1.05,6.14,1.5,9.15.63,3.58-.89,6.71-3.02,9.99-4.62,1.67-1.15,2.82-3.2,4.16-4.69,3.06-3.91,6.93-4.66,11.65-4.03,4.58.62,9.39,1.29,13.32,3.91,1.09.71,2.23,1.77,3.33,2.47,1.81.9,3.85,1.61,5.83,2.04,2.78.53,5.58,1.27,8.32,1.93,3,.52,6.13.76,9.15,1.09,2.19.07,4.48.24,6.66.52,1.36.05,2.87.3,4.16.73,2.3.71,4.34,2.3,6.66,2.95,3.8.96,7.79-.09,11.65.23,3.03.14,6.12.51,9.15.5,2.77.03,5.59-.35,8.32-.73,2.22-.26,4.54-.63,6.66-1.36,1.68-.54,3.36-1.46,4.99-2.13,1.84-.65,3.93.04,5.83-.37.41-.3,1.28-.97,1.66-1.31"/><path class="b" d="M12.36,197.97c4.23,1.42,8.85,2.59,13.32,1.69,1.66-.29,3.33-1.13,4.99-1.37,2.21-.37,4.57-.44,6.66-1.35,1.57.65,3.3,1.3,4.99,1.5,2.19.12,4.53-.02,6.66-.6,3.27-.88,6.19-2.77,9.15-4.34.99-.36,1.91-1.48,2.5-2.33,1.01-1.42,2.16-3.15,3.33-4.45,2.32-2.77,5.75-3.24,9.15-2.88,2.49.2,5.07.51,7.49,1.17,3.94.9,7.89,2,11.65,3.5,3.85,1.42,7.79,2.74,11.65,4.14,3.8,1.23,7.78,1.99,11.65,2.95,1.93.17,3.95.51,5.83.98,1.67.39,3.46.9,4.99,1.7,2.05,1.09,4.26,2.2,6.66,1.69,1.64-.25,3.35-.8,4.99-1.04,3.89-.56,7.78.67,11.65.94,2.47.24,5.02.02,7.49-.06,2.48.01,5.09,0,7.49-.7,1.38-.38,2.89-.93,4.16-1.58,1.02-.53,2.21-1.28,3.33-1.59,1.62-.24,3.4.6,4.99.01.82-.49,1.71-1.47,2.5-2"/><path class="b" d="M12.36,195.99c4.01,1.24,8.25,2.45,12.48,2.11,1.62-.3,3.36-.3,4.99-.35,2.19-.27,4.52-.2,6.66-.78,2.78-1.28,4.74,3.14,11.65.19,1.58-.78,3.39-1.34,4.99-2.09,1.97-.92,3.91-2.15,5.83-3.16,1.53-.66,2.41-2.62,3.33-3.91,3.92-6.55,7.16-6.6,14.15-5.07,9.14,2.53,18.39,4.75,27.46,7.51,3.56,1.15,7.21,2.22,10.82,3.2,2.21.54,4.54,1.01,6.66,1.87,1.61.59,3.35,1.23,4.99,1.74,1.01.45,2.22,1.02,3.33,1.19,2.36.08,4.48-1.41,6.66-2.11,3.31-1.16,6.75.33,9.99,1.04,2.98.77,6.12.53,9.15.43,1.61.19,3.37.44,4.99.34,3.23-.3,6.45-1.5,9.15-3.3.64-.44,1.7-.91,2.5-.86.38.09,1.27.25,1.66.33.73-.04,1.77-.22,2.5-.34,1.22-.48,2.09-1.89,3.33-2.38"/><path class="b" d="M12.36,193.95c4.31,1.21,8.79,2.55,13.32,2.18,3.46.72,7.32.52,10.82.15,1.18-.49,2.27.12,3.33.59,2.71,1.17,5.73.65,8.32-.59,3.98-1.74,7.89-3.78,11.65-5.96,1.54-.76,2.38-2.84,3.33-4.19,3.08-5.17,5.79-6.56,11.65-4.7,2.29.74,4.48,1.98,6.66,2.97,2.37,1.1,4.94,1.96,7.49,2.5,3,.63,6.1,1.09,9.15,1.34,2.52.08,5.06.52,7.49,1.15,2.49.62,5.02,1.43,7.49,2.14,1.92.58,4,1.07,5.83,1.92,3.41,1.53,7,3.42,10.82,3.37,1.48-.36,2.9-1.35,4.16-2.17,3.21-2.31,5.8-1.68,9.15-.11,3.93,1.85,7.42,2.01,11.65,1.32,4.06,1.28,7.88.62,11.65-1.24,1.39-.69,2.69-1.95,4.16-2.48.38-.09,1.29-.02,1.66.14,1.04-.01,2.29-.15,3.33-.22.55-.08,1.34-.74,1.66-1.17.61-.6,1.68-1.26,2.5-1.54"/><path class="b" d="M12.36,191.87c4.08,1.01,8.24,2.27,12.48,2.28,3.96,1.34,8.34,1.54,12.48,1.17.83-.09,1.74.48,2.5.72,2.5.95,5.2.32,7.49-.87,3.79-1.99,8.01-3.16,11.65-5.42.76-.43,1.78-1.03,2.5-1.52.46-.57,1.29-1.79,1.66-2.42,2.94-5.03,5.49-8.18,11.65-5.52,2.38,1.08,4.46,2.88,6.66,4.26,2.02,1.3,4.32,2.37,6.66,2.94,2.14.53,4.45.74,6.66.71,1.34.03,2.83-.29,4.16-.14,3.83.84,7.9.01,11.65,1.25,1.9.58,4.01,1,5.83,1.82,1.93.95,3.83,2.24,5.83,3.06,2.33.96,5.02,1.2,7.49.75,1.48-.8,2.84-2.11,4.16-3.14,2.57-2.14,4.91-1.5,7.49.24,4.15,2.84,7.55,3.64,12.48,2.28,1.07-.28,2.26.42,3.33.51,1.93.33,4-.09,5.83-.74,1.45-.49,2.95-1.33,4.16-2.27.92-.7,2.1-1.67,3.33-1.64,1.01.3,2.29.12,3.33.15.4.08,1.3-.09,1.66-.32,0,0,.83-.88.83-.88.85-.85,2.16-1.6,3.33-1.89"/><path class="b" d="M12.36,189.78c3.84.85,7.72,1.89,11.65,2.19,1.65.42,3.31,1.23,4.99,1.55,2.16.5,4.46.68,6.66.86,1.06.13,2.34-.26,3.33.21,2.52,1.02,5.22.5,7.49-.88,2.85-1.68,5.86-3.28,9.15-3.88,2.46-.4,4.67-1.76,6.66-3.2,2.81-3.52,5.14-10.07,10.82-8.26,2.29.53,4.12,2.2,5.83,3.71,3.7,3.46,8.12,5.96,13.32,5.95,1.34.07,2.82-.23,4.16-.18,1.9.18,3.91.48,5.83.32,2.19-.14,4.45-.64,6.66-.62,1.37.1,2.83.64,4.16.96,1.5.28,2.96,1.08,4.16,2,5.43,4.04,7.28,3.16,13.32,1.43,1.75-1.14,2.97-3.27,4.99-4.01,4.09-1.07,6.85,5.83,12.48,6.08,2.26.16,4.53-.64,6.66-1.3,1.06-.22,2.26.37,3.33.37,1.36.07,2.88-.22,4.16-.69,1.46-.53,2.94-1.47,4.16-2.43.92-.72,2.11-1.65,3.33-1.7,1.33.19,2.82.45,4.16.53.93-.36,1.72-1.48,2.5-2.07.92-.71,2.19-1.25,3.33-1.46"/><path class="b" d="M12.36,187.7c3.85.73,7.75,1.6,11.65,2,4.4,2.12,9.26,3.34,14.15,3.47,1.06-.07,2.26.42,3.33.35,3.52-.15,6.16-3.04,9.15-4.57,2.76-1.66,6.06-1.59,9.15-1.81,1.99-.83,3.89-2.38,4.99-4.24,3.54-5.68,7.13-8.57,12.48-2.73,1.46,1.4,3.19,2.76,4.99,3.68,2.79,2.24,6.42,3.39,9.99,3.4,2.48-.25,5.01.24,7.49.35,2.22.04,4.5-.45,6.66-.94,1.31-.25,2.83-.64,4.16-.31,1.34.38,2.92.63,4.16,1.29,2.91,2.26,6.03,5.62,9.99,3.55,1.38-.63,2.79-1.58,4.16-2.23.98-.49,2.29-.74,3.33-1.07,6.07-7.79,8.06,4.47,14.98,5.29,3.2.33,6.32-1.24,9.15-2.53,2.57.62,5.32-.1,7.49-1.54,1.33-.84,2.67-2.06,4.16-2.61,1.61-.37,3.37.24,4.99.3,1.79-1.74,4.07-3.27,6.66-3.25"/><path class="b" d="M12.36,185.63c3.86.59,7.77,1.22,11.65,1.69,3.57,2.07,7.56,3.42,11.65,3.98,6.26.84,7.5.71,12.48-3.2,2.59-2.04,5.74-3.81,9.15-3.43,1.35.1,2.8.59,4.16.5,6.54-3.41,7.19-14.8,15.81-5.67,1.89,1.8,4.23,3.21,6.66,4.14,2.92,1.94,6.54,2.54,9.99,2.36,2.18.25,4.46.63,6.66.55,2.53-.1,5.04-.94,7.49-1.5,1.94-.57,4.03-.05,5.83.76,1.59,1.36,3.12,3.11,4.99,4.08,5.11,2.26,7.72-5.86,14.15-5.73,1.86-1.63,3.22-1.89,4.99.01,2.56,2.79,4.38,6.99,8.32,8.05,2.95.7,5.79-.96,8.32-2.26,1.09-.48,2.09-1.75,3.33-1.74,1.73.02,3.51-.63,4.99-1.49,1.55-.87,3.15-2.18,4.99-2.29,1.34-.1,2.85.35,4.16.04,1.87-1.92,4.89-2.58,7.49-2.27"/><path class="b" d="M12.36,183.6c3.58.41,7.24.71,10.82,1.16,1.52.09,2.79,1.45,4.16,2.02,3.07,1.6,6.56,2.36,9.99,2.64,1.9.08,4.03.61,5.83-.24,4.71-2.34,8.32-7.89,14.15-7.24,1.96.17,3.84,1.28,5.83,1.28,3.48-2.41,5.44-10.51,10.82-7.29,2.59,1.58,4.62,4.15,7.49,5.32,1.02.48,2.26.95,3.33,1.29,1.31.6,2.75,1.29,4.16,1.6,1.6.46,3.38.26,4.99.48,3.29.47,6.71.98,9.99.13,2.19-.49,4.41-1.33,6.66-1.5.78.02,1.79.33,2.5.67,1.34,1.28,2.68,2.88,4.16,4,5.45,3.96,8.1-6.51,14.15-7.04.73-.11,1.76-.14,2.5-.1.38-.17,1.24-.35,1.66-.36,1.98.56,3.06,2.86,4.16,4.43,5.66,9.91,11.26,6.59,18.31.35,5.58-.83,5.94-3.36,12.48-2.62,1.4-1.12,3.22-1.59,4.99-1.62,1.33-.14,2.83-.26,4.16-.02"/><path class="b" d="M12.36,181.6c3.58.26,7.24.27,10.82.65.89-.05,1.82.64,2.5,1.13.72.49,1.73,1.12,2.5,1.54,3.02,1.71,6.58,2.09,9.99,2,1.62,0,3.37.07,4.99-.03,4.51-2.31,7.85-7.41,13.32-7.53,1.69-.05,3.42.56,4.99,1.12,1.02.29,2.3.91,3.33.39,1.85-2.1,3.04-5.37,5.83-6.42,2.91-.51,5.3,1.88,7.49,3.42,1.99,1.38,4.35,2.34,6.66,3.04,1.39.34,2.79,1.11,4.16,1.49,1.31.4,2.81.4,4.16.47,3.01.38,6.11,1.08,9.15.66,3.08-.36,6.04-1.69,9.15-1.84,1.04.19,1.81,1.43,2.5,2.13,1.36,1.44,2.85,3.46,4.99,3.6,5.06-.93,6.12-9.22,12.48-9.43,1.04-.06,2.29.02,3.33.12.48-.04,1.29.27,1.66.57,2.38,2.36,3.58,5.85,5.83,8.33,2.44,2.89,6.18,3.14,9.15.89,1.43-1.02,2.92-2.31,4.16-3.55,1.19-1.08,2.43-2.71,4.16-2.79,1.34-.26,2.81-.69,4.16-.89,1.61-.2,3.38-.14,4.99-.09.72-.31,1.71-.82,2.5-.92,1.04-.09,2.29.04,3.33.07,1.62-.07,3.37-.34,4.99-.18"/><path class="b" d="M12.36,179.64c3.6.09,7.25-.2,10.82.34,1.59-.09,2.92,1.23,4.16,2.04,1.93,1.35,4.26,2.4,6.66,2.4,2.48-.04,5.03-.53,7.49-.81,1.04-.16,2.29-.37,3.33-.56.52.01,1.3-.42,1.66-.77,3.5-2.83,7.69-6.11,12.48-4.94,2.2.49,4.42,1.34,6.66,1.63,1.61-1.71,2.62-4.45,4.99-5.28,2.71-.53,5.28,1.25,7.49,2.59,1.79,1.08,3.84,1.92,5.83,2.55,1.95.51,3.91,1.29,5.83,1.89,1.89.34,3.93.28,5.83.66,1.9.26,3.9.65,5.83.54,2.52-.09,5.04-.85,7.49-1.38,2.56-.85,3.51.74,4.99,2.47,7.64,9.68,9.15-7.64,16.64-7.31,1.05-.02,2.29.12,3.33.21.86-.01,1.92.27,2.5.94,1.9,2.24,3.14,5.24,4.99,7.52,2.96,3.76,6.74,3.52,9.99.24,1.37-1.27,2.82-2.79,4.16-4.09,1.1-1.05,2.56-2.12,4.16-1.98,2.47-.13,5.03.02,7.49.13.67-.38,1.71-.73,2.5-.73,1.36.02,2.81.57,4.16.63,1.92-.02,3.9-.63,5.83-.59"/><path class="b" d="M12.36,177.73c1.62.03,3.38-.24,4.99-.12,2.16.53,4.44,1.02,6.66,1.23,1.14.2,2.26,1.08,3.33,1.49,1.3.59,2.81,1.08,4.16,1.53,1.91.56,3.98.05,5.83-.52,1.62-.46,3.38-.95,4.99-1.45,2.16-.7,4.5-1.1,6.66-1.76,1.5-1.03,3.23-2.02,4.99-2.51,4.14-1.25,8.34.67,12.48,1.03l.83-.37c1.63-2.57,3.46-4.22,6.66-3.21,3.73.96,7.06,3.16,10.82,4.06,1.95.43,3.89,1.31,5.83,1.77,1.62.14,3.38.19,4.99.48,1.9.25,3.9.73,5.83.74,2.8.04,5.59-.74,8.32-1.21,1.08.71,2.26,1.71,3.33,2.44,1.3,1.4,2.84,3.54,4.99,3.25,3.98-1.64,5.12-6.96,8.32-9.62,1.59-1.42,3.86-1.29,5.83-.94,1.04.17,2.32.06,3.33.42,3.02,2.91,4.15,8.01,8.32,9.67,6.31,1.65,8.59-9.4,14.98-7.84,1.9.2,3.92.44,5.83.61,1.04-.3,2.2-.92,3.33-.74,1.39.17,2.81.83,4.16,1.14,2.53.48,4.99-.89,7.49-1.03"/><path class="b" d="M12.36,175.86c1.05-.06,2.29-.15,3.33-.26,1.63.33,3.36.83,4.99,1.15,1.33.28,2.82.54,4.16.73,1.81.9,3.86,1.49,5.83,1.92,2.71.77,4.15.43,6.66-.74,2.45-1.01,4.94-2.18,7.49-2.93,2.14-.62,4.44-1.05,6.66-1.27,1.62-.32,3.31-.99,4.99-1.02,1.64-.12,3.38.23,4.99.45,2.18.28,4.47.42,6.66.62,2.39-2.77,4.03-2.97,7.49-2.16,3.67.74,7.17,2.32,10.82,3.17,1.38.26,2.8.94,4.16,1.27,1.62.2,3.38.21,4.99.5,1.92.25,3.9.8,5.83.96,1.63.11,3.39-.04,4.99-.29.41-.07,1.25-.2,1.66-.28,1.27.24,2.26,1.54,3.33,2.19,3.87,2.31,5.37,5.81,9.15.8,2.41-2.87,4.02-8.39,8.32-8.6,1.91.05,3.9.61,5.83.43,3.06,2.01,4.04,6.49,7.49,8.14,4.5,1.73,6.76-4.1,9.99-6.06,1.85-1.37,3.94-1.02,5.83.08,1.33.25,2.82.51,4.16.69,4.42-3.47,7.72,1.87,12.48.42,1.64-.35,3.3-1.27,4.99-1.26"/><path class="b" d="M12.36,174.11c1.05-.08,2.28-.24,3.33-.33,1.32.37,2.82.72,4.16.99,1.62.33,3.37.66,4.99.94,2.13.71,4.44,1.08,6.66,1.31,1.33.08,2.86.5,4.16.1,2.47-1.18,4.91-2.65,7.49-3.58,4.78-1.75,9.97-1.62,14.98-1.73,3.84.42,7.78.85,11.65.72,2.44-2.45,6.16-1.18,9.15-.75,1.93.3,3.93.85,5.83,1.3,1.63.41,3.42.72,4.99,1.33,2.37.69,5.05.48,7.49,1.04,1.91.34,3.88.94,5.83,1.05,1.34.16,2.84-.21,4.16,0,2.44,2.2,5.32,3.95,8.32,5.27,2.22.62,3.85-1.68,4.99-3.23,1.82-2.47,3.17-5.74,5.83-7.45,2.33-1.22,5.02.06,7.49-.29,1.05.11,1.86,1.34,2.5,2.07.71.91,1.69,2.15,2.5,2.98,5.98,5.82,8.07-4.49,13.32-4.69,1.49.06,2.96.91,4.16,1.73.72.47,1.59,1.36,2.5,1.39,1.2-.97,2.5-2.28,4.16-2.29,3.7.16,6.99,3.22,10.82,2.23,1.92-.32,3.85-1.47,5.83-.92"/><path class="b" d="M12.36,172.48c1.34-.09,2.82-.44,4.16-.37,2.16.58,4.46.96,6.66,1.33,3.81.91,7.75.94,11.65.92.75-.01,1.75-.05,2.5-.08,1.57-.92,3.3-1.87,4.99-2.53,2.63-1.01,5.53-1.26,8.32-1.44,2.75-.18,5.58-.11,8.32-.04,3.29.4,6.67.65,9.99.75.75.03,1.76.14,2.5-.01.4-.23,1.21-.59,1.66-.69,1.61-.34,3.38-.12,4.99.08,4.47.56,8.99,1.03,13.32,2.33,2.2.14,4.5.28,6.66.76,1.91.38,3.88,1.05,5.83,1.25.9-.05,1.94.39,2.5,1.11.7.63,1.72,1.45,2.5,1.98,2.06,1.3,5.98,3.55,8.32,2.28,3.85-2.68,5.04-8.15,9.15-10.51,2.08-.93,4.48-.16,6.66-.47,1.75.47,2.86,2.39,4.16,3.53,1.55,1.62,3.82,2.61,5.83,1.1,1.79-1.27,3.14-3.31,4.99-4.5,2.71-1.45,5.29,1.22,7.49,2.51,7-4.62,9.01.5,15.81.82,1.36,0,2.85-.35,4.16-.68,1.33.23,2.83-.07,4.16.12"/><path class="b" d="M12.36,170.94c1.63-.17,3.36-.46,4.99-.59,2.43.64,5.01.96,7.49,1.36,3.28.72,6.69.1,9.99-.14,1.62-.18,3.37-.25,4.99-.37,1.79-.92,3.82-1.63,5.83-1.83,5.24-.34,10.56-.51,15.81-.36,3.87.2,7.77.8,11.65.85,2.88-1.25,6.14-.55,9.15-.35,1.9.18,3.93.25,5.83.45,1.04.26,2.28.58,3.33.77,1.32.28,2.83.03,4.16.24,2.52.27,5.05,1.01,7.49,1.66,1.44,1.06,2.69,2.67,4.16,3.72,1.9,1.46,4.24,2.6,6.66,2.8,2.57.49,4.46-1.69,5.83-3.56,1.79-2.33,3.39-5.16,5.83-6.89,1.96-1.24,4.46-.85,6.66-1.1,2.45.99,3.99,3.76,6.66,4.31,3.65.34,5.15-4.2,8.32-5.12,1.88-.33,3.33,1.36,4.99,1.83,2.44-1.7,5.59-1.3,8.32-.68,2.18.82,4.36,1.97,6.66,2.43,1.88.39,3.94.52,5.83.1,1.04.16,2.28.39,3.33.41,1.05.01,2.28-.22,3.33-.15"/><path class="b" d="M12.36,169.47c1.9-.28,3.92-.52,5.83-.78,3.03.35,6.11,1.06,9.15,1.36,3.05.13,6.13-.59,9.15-.9,2.48-.23,5.07-.16,7.49-.87,2.17-.36,4.47-.24,6.66-.24,2.47,0,5.02-.09,7.49-.1,3.03-.06,6.13-.08,9.15.14,2.19.21,4.46.55,6.66.54,1.66.17,3.34-.55,4.99-.57,4.16-.06,8.38.11,12.48.85,1.61.32,3.37.16,4.99.16,1.35.17,2.84.46,4.16.8,1.67.77,2.76,2.73,4.16,3.9,2.61,2.54,6.24,4.58,9.99,3.89,5-1.02,7.07-9.56,12.48-10.87,1.31-.25,2.83-.52,4.16-.39.81.24,1.81.81,2.5,1.29,2.51,1.88,4.88,2.75,7.49.38,2.34-2.1,4.32-4.57,7.49-2.01,2.47-1.49,4.92-.88,7.49-.08,1.33.39,2.82.81,4.16,1.13,1.04.42,2.25,1.01,3.33,1.32,2.41.82,5.03.41,7.49.6,1.61.27,3.35.63,4.99.65,1.05,0,2.28-.26,3.33-.26"/><path class="b" d="M12.36,168.11c2.73-.46,5.56-.97,8.32-1.07,2.45.48,5.02.85,7.49,1.17,1.63.09,3.38-.13,4.99-.35,4.11-.71,8.33-.71,12.48-1.03,3.31-.04,6.68.2,9.99.26,5.26.05,10.56-.28,15.81.09,2.18.25,4.47.35,6.66.17,1.62-.18,3.35-.54,4.99-.54,3.04-.21,6.13.31,9.15.53,1.9.21,3.92.2,5.83.12,1.99.7,3.41,2.77,4.99,4.11,2.62,2.64,6.08,5.1,9.99,4.66,3.39-.13,5.47-3.19,7.49-5.53,1.62-1.87,3.42-4.02,5.83-4.85,1.57-.39,3.39-.85,4.99-.49,1.93.55,3.74,1.97,5.83,1.87,3.43-.13,5.53-5.4,9.15-3.45.77-.1,1.72-.54,2.5-.55,2.01.09,3.93,1.14,5.83,1.7,1.31.42,2.81.76,4.16.99,1.02.5,2.23,1.12,3.33,1.41,2.44.77,5.03.08,7.49.09,1.92.19,3.91.71,5.83.9,1.34.17,2.83-.08,4.16-.2"/><path class="b" d="M12.36,166.86c3.54-.69,7.21-1.48,10.82-1.4,3.02.44,6.08,1.33,9.15.94,4.68-.57,9.43-.96,14.15-.81,3.59.16,7.22.71,10.82.69,7.2-.1,14.44-.16,21.64-.08,3.87-.3,7.77-.87,11.65-.46,1.04.06,2.29.13,3.33.18,3.06.73,5.65,2.81,8.32,4.37,2.86,2.27,6.11,4.8,9.99,4.41,2.8-.08,4.87-2.35,6.66-4.25,2.83-3.14,5.46-5.98,9.99-6.13,1.95-.53,3.94.29,5.83.7,4.3,1.01,6.32-4.22,9.99-2.81,2.85-1.43,5.6.73,8.32,1.43,1.03.29,2.28.48,3.33.65,1.67,1.27,3.69,2.37,5.83,2.53,2.53.22,5.03-.69,7.49-1.12,3.3.48,6.61,1.83,9.99,1.17"/><path class="b" d="M12.36,165.65c4.37-.94,8.84-1.77,13.32-1.83,2.16.53,4.4,1.14,6.66,1.01,4.14-.22,8.32-.72,12.48-.55,3.33.1,6.67.8,9.99,1,6.64.24,13.33.08,19.97-.14,3.87-.01,7.78-.25,11.65-.22,3.71,0,7.6.43,10.82,2.42,3.21,1.88,6.41,4,9.99,5.13,7.95,3.23,11.08-6.14,17.48-8.42,1.29-.41,2.82-.49,4.16-.67,1.04-.15,2.27-.55,3.33-.34,4.67.8,5.31-.68,9.15-2.26.73-.18,1.76.03,2.5-.04.68-.35,1.74-.51,2.5-.41,1.39.18,2.82.87,4.16,1.24,1.02.33,2.34.35,3.33.8,5.9,5.53,9.81,3.63,16.64,1.42,3,.71,6,2.22,9.15,1.79"/><path class="b" d="M12.36,164.38c4.39-.87,8.84-1.76,13.32-2,2.49.15,4.99.88,7.49.87,3.87-.08,7.78-.44,11.65-.23,3.06.14,6.11.86,9.15,1.16,6.63.53,13.33.1,19.97.33,6.9.46,14.26-1.52,20.8,1.39,3.09,1.39,5.92,3.5,9.15,4.57,10.27,3.62,11.98-4.58,19.97-7.32,2.45-.58,5.15-.27,7.49-1.32,1.32-.23,2.84-.03,4.16-.33,1.72-.34,3.31-1.46,4.99-1.91.73-.16,1.76.04,2.5-.05.67-.38,1.73-.62,2.5-.61,1.06,0,2.3.27,3.33.52.74.16,1.8.25,2.5.6.74.62,1.76,1.51,2.5,2.14,2.24,2,5.28,3.33,8.32,2.75,2.86-.48,5.59-1.75,8.32-2.67,1.33-.78,2.87.39,4.16.8,1.55.62,3.31,1.17,4.99,1.14"/><path class="b" d="M12.36,162.95c3.86-.62,7.76-1.39,11.65-1.76,3.32-.05,6.68.35,9.99.5,3.87-.03,7.79-.21,11.65.11,2.77.24,5.56.92,8.32,1.25,6.07.63,12.23.2,18.31.65,3.58.19,7.23.4,10.82.18,3.03-.12,6.19-.07,9.15.64,1.69.5,3.41,1.32,4.99,2.09,4.25,2.31,9.48,3.73,14.15,1.83,6.2-2.92,8-6.76,15.81-6.54,1.71-.09,3.49-.65,4.99-1.47,1.04-.07,2.31-.18,3.33-.43,2.18-.52,4.33-2.19,6.66-1.48,1.52-.76,3.3-1.13,4.99-1,1.62-.11,3.01,1,4.16,2.01,1.27,1.1,2.69,2.34,4.16,3.16,2.24,1.29,5.01,1.49,7.49.83,2.25-.56,4.49-1.52,6.66-2.34,1.33-.35,2.84-1.59,4.16-.65,1.83.86,3.79,1.86,5.83,2.1"/><path class="b" d="M12.36,161.33c6.33-.83,12.75-1.5,19.14-1.29,4.42.19,8.9,0,13.32.4,5,.46,9.93,1.89,14.98,1.84,6.65.07,13.34.36,19.97.83,2.46.2,5.03,0,7.49.28,3.99.32,7.95,1.32,11.65,2.83,3.99,1.45,8.57,1.14,12.48-.43,3.55-1.59,6.83-4.15,10.82-4.54,1.9-.23,3.93,0,5.83-.29,1.43-.21,2.92-.84,4.16-1.57,1-.36,2.3-.39,3.33-.7,2.16-.58,4.35-2.05,6.66-1.34,2.02-1.02,4.61-1.86,6.66-.47,4,2.79,7.08,6.3,12.48,5.56,4.34-.65,8.4-2.65,12.48-4.17,1.87.92,3.79,2.09,5.83,2.6"/><path class="b" d="M12.36,160.25c4.99-.39,9.98-1.16,14.98-1.49,4.14-.26,8.34-.14,12.48-.04,2.76.17,5.59.38,8.32.82,3.57.63,7.19,1.37,10.82,1.52,2.75.07,5.57.11,8.32.22,3.03,0,6.13-.19,9.15.05,3.59.34,7.21.96,10.82,1.07,3.63.39,7.26,1.26,10.82,2.06,4.12,1.15,8.48.22,12.48-1,2.49-.88,4.91-2.25,7.49-2.87,3.25-.88,6.7-.12,9.99-.64,1.77-.24,3.37-1.36,4.99-2.01,2-.19,3.97-.98,5.83-1.68.71-.24,1.75-.42,2.5-.37.4.14,1.28.08,1.66-.11,1.28-.5,2.78-1.27,4.16-.71,3.02,1.12,5.31,3.74,8.32,4.89,4.02,1.73,8.54.66,12.48-.78,2.2-.81,4.56-1.49,6.66-2.55,1.72.51,3.28,1.76,4.99,2.31"/><path class="b" d="M12.36,159.21c8.02-.83,16.04-2.37,24.13-2.03,3.88.07,7.81.44,11.65,1.04,3.58.59,7.19,1.36,10.82,1.61,2.46.08,5.03.18,7.49.08,3.03-.21,6.11-.82,9.15-.71,2.81.06,5.6.81,8.32,1.41,1.32.23,2.83.04,4.16.2,2.49.2,5.05.67,7.49,1.19,1.34.26,2.8.72,4.16.85,1.93.07,3.96-.29,5.83-.76,1.61-.43,3.38-.79,4.99-1.21,1.91-.55,3.87-1.33,5.83-1.71,3.56-.72,7.24.26,10.82-.19,1.75-.23,3.5-1.01,4.99-1.91,1.01-.34,2.31-.42,3.33-.75,1.36-.4,2.8-1.12,4.16-1.51,1.02-.29,2.29-.23,3.33-.17.42-.17,1.28-.6,1.66-.84.72-.26,1.78-.17,2.5.1,3.46,1.27,6.31,4.03,9.99,4.78,3.88.94,7.93-.03,11.65-1.22,2.21-.71,4.58-1.31,6.66-2.37l.83.12c1,.82,2.21,1.78,3.33,2.42"/><path class="b" d="M12.36,158.01c6.36-.84,12.73-1.95,19.14-2.3,7.53-.19,15.12.59,22.47,2.26,4.09.65,8.38.91,12.48.24,4.36-.91,8.86-2.37,13.32-1.17,1.66.35,3.35,1.09,4.99,1.52.42-.06,1.25-.16,1.66-.19,3.05-.25,6.18.11,9.15.76,2.18.34,4.44,1.63,6.66,1.03,2.74-.67,5.51-1.61,8.32-1.96,1.89-.38,3.89-.87,5.83-.91,3.59-.04,7.23,1.07,10.82.41,1.74-.26,3.4-1.2,4.99-1.86,1.36-.11,2.88-.4,4.16-.89,1.33-.5,2.77-1.25,4.16-1.58.72-.16,1.76-.23,2.5-.18.41-.15,1.27-.5,1.66-.7,3.27-.53,6.24,2.08,9.15,3.21,2.84,1.27,6.06,1.78,9.15,1.45,3.11-.3,6.16-1.3,9.15-2.12,1.03-.14,2.3-.04,3.33-.24,1.63-.6,2.84,1.2,4.16,1.85"/><path class="b" d="M12.36,156.66c6.06-1.03,12.18-1.93,18.31-2.42,7.81,0,15.71.43,23.3,2.37,4.1.67,8.47.82,12.48-.37,7.3-2.64,10.81-4.22,18.31-.48,7.01-1.78,10.85-.22,17.48,1.44,1.64-.37,3.34-1.05,4.99-1.36,2.72-.39,5.57-.65,8.32-.52,3.58.38,7.19,1.63,10.82,1,1.39-.21,2.89-.72,4.16-1.33,1.61-.32,3.43-.28,4.99-.85,2.46-.92,4.81-2.35,7.49-2.55,1.31-.4,2.82-.75,4.16-.31,2.57.65,5,1.97,7.49,2.86,2.64.94,5.53,1.36,8.32,1.19,2.22-.13,4.51-.59,6.66-1.13,1.33.11,2.83.3,4.16.38,1.35.13,2.84-.47,4.16-.22.37.3,1.26.86,1.66,1.12"/><path class="b" d="M12.36,155.12c8.22-1.5,16.59-2.85,24.97-2.18,3.88.14,7.81.41,11.65,1,1.62.39,3.35.92,4.99,1.22,4.13.62,8.6.52,12.48-1.15,4.18-1.91,8.51-4.68,13.32-3.64,2.04.29,3.92,1.43,5.83,2.08,5.65-2.51,11.03-.76,16.64.69.43.09,1.24.24,1.66.3.75-.16,1.74-.42,2.5-.54,1.61-.28,3.37-.15,4.99-.08,3.7-.02,7.18,1.56,10.82,1.94,2.22.21,4.56-.13,6.66-.89,1.63-.09,3.4-.11,4.99-.47,3.16-.73,5.89-2.85,9.15-3.24,1.93-.48,3.92-.55,5.83.09,3.33.87,6.54,2.44,9.99,2.88,2.74.47,5.58.22,8.32-.03,1.89.3,3.92.5,5.83.69,1.03.14,2.29.16,3.33.05,1.08-.13,2.43-.55,3.33.3"/><path class="b" d="M12.36,152.83c7.76-.56,15.5-2.16,23.3-1.5,3.87.18,7.8.21,11.65.67,2.23.32,4.43,1.25,6.66,1.6,3.9.49,8.1-.02,11.65-1.74,7.22-4.02,11.63-7.49,19.97-3.09,6.49-2.97,11.03-1.01,17.48.45,2.44.55,5.03.53,7.49.89,3.37.61,6.65,1.82,9.99,2.56,1.61.32,3.37.25,4.99.1,2.19,0,4.49-.06,6.66-.38,2.95-.38,5.56-2.03,8.32-3,2.65-.73,5.58-.97,8.32-.74,2.8.44,5.54,1.5,8.32,2.06,2.74.71,5.61.42,8.32.95,3.28.54,6.66,1.01,9.99,1.22,1.34.08,2.83-.34,4.16-.21"/><path class="b" d="M12.36,150c3.59-.03,7.24.13,10.82-.16,4.7-.44,9.45-.42,14.15-.09,3.31.07,6.69.07,9.99.42,1.9.52,3.9,1.16,5.83,1.58,3.88.69,8.2-.36,11.65-2.18,2.53-1.39,4.9-3.26,7.49-4.56,4.12-2.16,9.16-2.08,13.32-.06,4.94-3,10.67-1.27,15.81.2,2.46.7,5.06,1.23,7.49,2.06,2.76,1.07,5.47,2.48,8.32,3.3,5.1,1.48,10.65,1.2,15.81.12,2.57-.6,4.98-1.93,7.49-2.69,2.68-.66,5.58-.53,8.32-.58,2.23-.13,4.5.29,6.66.81,1.89.42,3.94.66,5.83,1.11,3.28.7,6.66,1.21,9.99,1.62,2.73.38,5.57.74,8.32.35"/><path class="b" d="M12.36,147.37c3.86.23,7.78.41,11.65.41,3.87-.11,7.79-.25,11.65.08,3.85.33,7.84-.21,11.65.44,5.33,1.6,7.84,2.66,13.32.62,5.9-2.14,10.15-7.87,16.64-8.56,1.62-.23,3.39-.18,4.99.1,1.06.12,2.25.75,3.33.57.97-.56,2.22-1.05,3.33-1.21,2.21-.32,4.53.17,6.66.74,2.49.69,5.04,1.5,7.49,2.33,4.48,1.25,8.17,4.24,12.48,5.84,6.41,2.32,14.49,1.19,20.81-1.02,1.59-.54,3.31-1.24,4.99-1.43,3.3-.3,6.68-.38,9.99-.35,5.87.39,11.64,1.93,17.48,2.63,3.57.44,7.2,1.22,10.82,1.01"/><path class="b" d="M12.36,145.08c4.41.36,8.89.41,13.32.6,4.15-.12,8.34.08,12.48.32,3.3.19,6.81-.54,9.99.54,4.19,1.33,7.41,2.39,11.65.51,6-2.3,10.06-8.38,16.64-9.43,2.74-.65,5.58-.21,8.32.1.97-.55,2.21-1,3.33-1.08,4.07-.06,7.82,2.11,11.65,3.24,2.82.98,5.73,2,8.32,3.5,5.12,3.46,10.41,5.31,16.64,4.64,4.83-.29,9.5-1.69,14.15-2.92,2.98-.59,6.13-.57,9.15-.77,5.29-.41,10.59.48,15.81,1.2,5.26.63,10.51,1.81,15.81,2.01"/><path class="b" d="M12.36,142.92c2.46.26,5.02.19,7.49.23,1.91.03,3.92.28,5.83.34,2.19.06,4.47-.03,6.66.04,2.47.09,5.02.4,7.49.38,2.19.01,4.48-.2,6.66-.02,2.75.69,5.48,1.87,8.32,2.15,6.16.39,10.42-4.82,14.98-8.1,4.03-2.98,9.27-3.74,14.15-3.14,2.66-1.65,5.79-.41,8.32.88,2.13,1.05,4.39,2.08,6.66,2.78,2.77.88,5.69,1.6,8.32,2.86,4.09,2.32,8.52,4.4,13.32,4.46,5.62.18,11.16-1.25,16.64-2.27,3.84-.58,7.79-.71,11.65-1.06,10.34-.81,20.57,1.59,30.79,2.72"/><path class="b" d="M12.36,140.62c2.75.24,5.57,0,8.32.12,3.02.29,6.11.57,9.15.44,3.04-.09,6.12.33,9.15.45,2.47.11,5.02-.11,7.49-.07,4.35.94,8.82,3.61,13.32,1.79,5.68-2.26,8.95-8.47,14.98-10.14,2.66-.85,5.55-1.08,8.32-.97.73-.24,1.72-.55,2.5-.52,3.48.39,6.08,3.24,9.15,4.67,3.58,1.96,7.8,1.81,11.65,2.82,2.23.71,4.41,1.84,6.66,2.51,2.66.85,5.53,1.22,8.32,1.23,4.72-.1,9.44-.96,14.15-1.33,6.94-.29,13.86-1.37,20.81-1.48,7.82-.04,15.6,1.24,23.3,2.5"/><path class="b" d="M12.36,138.04c2.47.14,5.02-.09,7.49.04,2.19.18,4.45.7,6.66.67,2.19.03,4.47-.09,6.66.02,3.58.27,7.22.72,10.82.48,1.05-.05,2.28-.06,3.33-.06,3.37.68,6.49,2.64,9.99,2.69,6.89.21,10.12-7.32,15.81-9.91,2.83-1.35,6.04-1.84,9.15-1.92.76-.03,1.73-.38,2.5-.3,1.91.28,3.54,1.68,4.99,2.84,6.3,5.36,8.09,4.81,15.81,4.29,1.96.05,3.94.74,5.83,1.19,5.14,1.44,10.53,1.27,15.81,1.11,4.15-.05,8.33.61,12.48.23,6.66-.39,13.31-1.42,19.97-1.65,4.16-.05,8.37.35,12.48.92,2.47.42,5.1.61,7.49,1.4"/><path class="b" d="M12.36,135.19c2.19.06,4.48-.13,6.66.09,1.91.25,3.89.82,5.83.89,2.75.17,5.58-.1,8.32.06,3.31.25,6.66.76,9.99.65,1.62-.06,3.37-.16,4.99-.16,3.17.5,5.97,2.49,9.15,2.95,7.03,1.38,10.43-6.39,15.81-9.26,2.52-1.4,5.47-2.02,8.32-2.24,3.22-.52,4.26.03,6.66,2.17,3.91,3.75,7.53,7.36,13.32,5,2.36-.94,4.91-1.79,7.49-1.39,2.75.29,5.57.69,8.32.91,3.32.26,6.72.47,9.99,1.18,5.7,1.63,11.63,1.53,17.48.99,2.74-.29,5.58-.54,8.32-.78,2.18-.31,4.46-.69,6.66-.85,4.15-.31,8.37.04,12.48.58,2.48.37,5.09.61,7.49,1.36"/><path class="b" d="M12.36,132.19c1.91,0,3.94-.11,5.83.24,2.17.53,4.42,1.14,6.66,1.21,2.47.15,5.02-.13,7.49.01,4.14.34,8.33.96,12.48.69,1.34-.09,2.82-.19,4.16-.2,3.48.56,6.47,2.95,9.99,3.46,7,1.19,10.11-7.07,15.81-9.45,2.06-.98,4.4-1.48,6.66-1.69,1.39-.19,2.97-.27,4.16.62,3.57,2.41,6.1,7.21,10.82,7.43,2.82,0,5.11-2.01,7.49-3.26,3.3-1.74,7.26-1.09,10.82-.7,3.12.39,6.19,1.35,9.15,2.38,1.92.32,3.94.66,5.83,1.16,4.86,1.26,10.01,1.45,14.98.83,1.9-.27,3.91-.61,5.83-.77,1.33-.15,2.84.03,4.16-.14,2.44-.5,4.99-.98,7.49-1.1,5.85-.22,11.72.74,17.48,1.65"/><path class="b" d="M12.36,129.16c1.35-.06,2.85-.04,4.16.29,2.15.68,4.39,1.45,6.66,1.64,4.47-.35,8.9.45,13.32,1,3.31.35,6.69.06,9.99-.22,1.34-.07,2.82-.12,4.16-.19,1.14.01,2.32.71,3.33,1.15,1.86.9,3.82,1.91,5.83,2.47,6.89,1.78,10.18-6.71,15.81-8.95,1.79-.85,3.86-1.3,5.83-1.47,1.05-.07,2.33-.27,3.33.15,4.61,2.4,8.09,9.97,14.15,6.22,2.67-1.66,5-4.34,8.32-4.59,5.17-.73,9.63,2.26,14.15,4.22.97.54,2.27.35,3.33.26,1.04-.06,2.29-.01,3.33.13,3.32.5,6.62,1.52,9.99,1.72,3.92.46,7.79-.69,11.65-1.15,1.61-.19,3.38-.16,4.99.04,2.2-.3,4.43-1.01,6.66-1.16,4.43-.38,8.94.2,13.32.9,1.61.16,3.38-.04,4.99.25"/><path class="b" d="M12.36,126.15c2.3.37,4.41,1.72,6.66,2.32,3.53-1.07,7.29-.05,10.82.52,4.09.85,8.31,1.35,12.48.94,4.13-.25,8.35-.15,12.48,0,3.17,1.33,6.34,4.28,9.99,3.32,4.06-1.44,6.32-5.68,9.99-7.79,2.95-1.87,6.58-2.17,9.99-2.04,1.97.46,3.47,2.22,4.99,3.44,8.79,7.84,10.44-4.66,18.31-2.98,2.9.69,5.09,3.04,7.49,4.66,1.09.18,2.22-.66,3.33-.65,1.62.02,3.37-.11,4.99,0,3.92.51,7.73,1.87,11.65,2.44,1.61.29,3.35.63,4.99.56,2.79-.13,5.56-.96,8.32-1.3,2.19-.37,4.48-.03,6.66.23,1.88-.47,3.89-.9,5.83-1.05,1.04-.22,2.27-.56,3.33-.67,2.75-.31,5.6-.02,8.32.36,2.2.12,4.5.28,6.66.74"/><path class="b" d="M12.36,124.82c.74.41,1.75.98,2.5,1.39.54.05,1.27-.29,1.66-.64.43-.21,1.2-.51,1.66-.59,3.93-.47,7.8,1.18,11.65,1.77,3.26.65,6.66.99,9.99.82,3.87-.32,7.79.15,11.65.39,1.91.12,3.92.3,5.83.5,1.32.66,2.79,1.38,4.16,1.93,8.45,4.34,10.05-7.66,19.14-8.19,2.19-.17,4.48.06,6.66.27,1.4.74,2.78,1.87,4.16,2.65,5.18,3.02,7.49-1.68,11.65-3.53,3.81-1.08,6.17,3.18,8.32,5.58,3.03-4.7,6.99-3.81,11.65-2.46,3.57,1.04,7.23,1.94,10.82,2.9,2.15.49,4.44,1.05,6.66.99,3.61-.22,7.17-1.53,10.82-1.28,1.36.04,2.81.59,4.16.62.73-.17,1.75-.38,2.5-.51,1.56-.78,3.26-1.62,4.99-1.9,5.55-.8,11.22.11,16.64,1.3"/><path class="b" d="M12.36,125.01c2.5-4.07,6.06-3.3,9.99-2.08,2.69.81,5.53,1.41,8.32,1.72,3.85.53,7.78.13,11.65.23,5.01.31,10.01,1.17,14.98,1.83.75.1,1.78.19,2.5.44.73.36,1.74.82,2.5,1.12,3.81,1.45,6.02,1.75,9.15-1.25,4.28-4.22,6.81-7.02,13.32-5.99,1.04.11,2.29.23,3.33.28.75.03,1.79-.05,2.5.29,1.78.84,3.92,1.38,5.83.64,1.44-.53,2.81-1.6,4.16-2.31,3.64-1.95,5.97,2.71,7.49,5.29l.83-.25c2.76-4.61,4.06-5.55,9.15-3.31,2.38.9,4.97,1.45,7.49,1.81,4.48.56,8.87,1.96,13.32,2.74,2.77.33,5.57-.51,8.32-.73,2.57-.37,5.01.24,7.49.81,4.51-2.84,6.17-3.67,11.65-3.46,4.57-.19,8.87,1.66,13.32,2.37"/><path class="b" d="M12.36,119.82c2.73-1.17,5.7-.04,8.32.9,2.39.81,4.97,1.27,7.49,1.46,4.7.49,9.45-.19,14.15.08,5.87.55,11.67,1.91,17.48,2.85,1.74.1,3.32,1.13,4.99,1.53,1.58.42,3.36.62,4.99.56,1.21-.34,2.41-1.26,3.33-2.09,6.42-6.19,6.33-5.87,14.98-5.4,1.35.03,2.82-.41,4.16-.4,1.33.24,2.87.19,4.16-.23,1.34-.42,2.74-1.27,4.16-1.39,3.21.14,4.08,4.09,5.83,6.15,1.32-2.12,2.42-7.09,5.83-5.48,1.91,1.02,3.7,2.55,5.83,3.13,3.28.65,6.64,1.27,9.99,1.47,4.71.2,9.47.26,14.15.92,2.47-.07,5.03-.43,7.49-.07,1.03.26,2.29.03,3.33-.02,1.61-.9,3.2-2.15,4.99-2.67,3.22-.89,6.69-.49,9.99-.5,3.89.75,7.73,2.05,11.65,2.67"/><path class="b" d="M12.36,117.27c1.89.45,3.89.93,5.83,1.1,1.89.49,3.87,1.08,5.83,1.21,5.25.54,10.56.02,15.81,0,7.03.4,13.92,2.27,20.81,3.6,1.37.23,2.88.54,4.16,1.09,1.3.41,2.8.65,4.16.69,1.34.03,2.85-.06,4.16-.36.44-.28,1.28-.92,1.66-1.27,7.75-7.59,6.75-4.32,15.81-5.83,1.86-.62,3.94-.35,5.83-.85,5.09-1.77,6.2,1.68,8.32,5.44,1.34-1.84,1.67-5.36,4.16-6.04,1.33.14,2.41,1.38,3.33,2.24,1.92,2.06,4.59,3.6,7.49,3.15,5.31,2.19,11.16,1.22,16.64.27,3.84-.61,7.78-.29,11.65-.4,1.04-.06,2.3-.09,3.33-.28,1.81-.95,3.78-1.92,5.83-2.18,3.29-.32,6.68-.32,9.99-.34,4.14.89,8.28,2.1,12.48,2.68"/><path class="b" d="M12.36,116.47c2.17.39,4.47.34,6.66.35,2.44.48,5.02.45,7.49.47,4.71.17,9.45-.46,14.15-.17,7.29.89,14.48,2.68,21.64,4.29,2.22.34,4.39,1.33,6.66,1.42,1.63.09,3.39-.07,4.99-.35.8-.13,1.86-.34,2.5-.87,5.91-5.57,5.64-4.75,13.32-5.78,2.16-.52,4.47-.65,6.66-.96,3.44-.75,5.28,1.6,6.66,4.4l.83.44c1.11-1.6,1.56-4.26,3.33-5.32h.83c1.74.89,2.82,2.91,4.16,4.27,2.58,2.71,4.09,2.48,7.49,2.16,2.44,1.49,5.54,1.57,8.32,1.47,4.54-.35,8.82-2.29,13.32-2.88,2.45-.36,5.03-.35,7.49-.61,1.33-.4,2.8-.94,4.16-1.26,3.81-.71,7.79-.6,11.65-.94,1.96-.29,3.93.52,5.83.93,2.99.76,6.08,1.41,9.15,1.7"/><path class="b" d="M12.36,115.11c5.81-.2,11.66-.25,17.48-.32,3.31,0,6.68-.42,9.99-.14,2.79.2,5.58.95,8.32,1.46,4.75.83,9.46,2.07,14.15,3.22,1.91.41,3.92.92,5.83,1.37,3.33.49,6.77-.17,9.99-1.01,1.48-.86,2.72-2.37,4.16-3.3,2.94-1.86,6.65-1.87,9.99-2.45,2.78-.34,6.22-1.33,8.32,1.12.85.82,1.34,2.47,2.5,2.87,1.21-1.5,1.57-4.15,3.33-5.16l.83.05c3.02,2.11,4.16,7.08,8.32,7.52.76.05,1.77-.1,2.5-.32.44-.21,1.2-.31,1.66-.19,2.96,1.65,6.7,1.66,9.99,1.19,4.53-.79,8.76-2.93,13.32-3.61,1.33-.23,2.83-.32,4.16-.54,1.62-.32,3.35-.77,4.99-.97,4.42-.37,8.9-.64,13.32-1.11,2.23.32,4.45,1.24,6.66,1.69,2.43.58,5,.88,7.49.98"/><path class="b" d="M12.36,113.36c6.08-.5,12.2-.93,18.31-.97,2.75-.05,5.57-.35,8.32-.13,3.09.2,6.13,1.13,9.15,1.69,5.07.81,10.02,2.28,14.98,3.56,1.9.45,3.92.92,5.83,1.35,3.33.45,6.75-.33,9.99-1.08.41-.11,1.26-.33,1.66-.45.76-.55,1.74-1.41,2.5-1.97,1.91-1.38,4.36-1.96,6.66-2.29,6.03-.83,8.68-2.64,12.48,3.5,1.28-1.48,1.73-4.01,3.33-5.23l.83-.11c1.88,1.04,2.83,3.46,4.16,5.06,3,3.86,4.99,3.28,9.15,1.97,1.22.74,2.77.99,4.16,1.19,2.18.34,4.49.28,6.66-.13,5.07-1,9.8-3.47,14.98-4.03,3.56-.61,7.2-1,10.82-1.12,3.04-.18,6.13-.63,9.15-.97,2.2.59,4.42,1.51,6.66,1.97,2.43.55,5.01.68,7.49.61"/><path class="b" d="M12.36,111.61c5.81-.57,11.63-1.39,17.48-1.43,2.75-.03,5.57-.5,8.32-.22,3.67.3,7.22,1.55,10.82,2.25,2.18.47,4.46.88,6.66,1.24,2.48.65,5.01,1.42,7.49,2.08,2.17.57,4.47,1.1,6.66,1.59,3.34.42,6.74-.47,9.99-1.19,1.06-.27,2.34-.57,3.33-1.05,1.19-.96,2.7-1.81,4.16-2.26,2.73-.64,5.5-1.58,8.32-1.7,2.49-.23,4.59,1.57,5.83,3.57l.83-.14c1.01-1.44,1.56-3.93,3.33-4.62,1.58.19,2.47,2.13,3.33,3.27,3.21,4.92,5.35,5.87,10.82,3.46,1.23.69,2.79.89,4.16,1.09,2.17.34,4.49.33,6.66-.02,4.82-.79,9.33-2.96,14.15-3.78,3.85-.56,7.76-.87,11.65-.96,3.04-.14,6.13-.6,9.15-.91,1.11.06,2.28.7,3.33,1.02,1.31.45,2.8.87,4.16,1.12,2.19.48,4.58.04,6.66.96"/><path class="b" d="M12.36,109.98c5.27-.51,10.51-1.61,15.81-1.74,3.03-.12,6.11-.83,9.15-.5,4.26.34,8.32,1.95,12.48,2.78,2.17.5,4.45.94,6.66,1.24,1.93.43,3.92,1.09,5.83,1.62,3,.81,6.09,1.7,9.15,2.2,2.5.13,5.06-.47,7.49-1,1.64-.38,3.42-.82,4.99-1.42,2.72-1.09,5.42-2.52,8.32-3.1,3.97-.96,6.77-.35,9.15,3.17,1.7-1.23,1.86-4.46,4.16-4.94,1.95.62,2.89,3.02,4.16,4.47,3.31,4.23,5.53,3.32,9.99,1.81,1.25.65,2.79.8,4.16.99,2.45.37,5.04.39,7.49,0,4.52-.72,8.83-2.5,13.32-3.37,4.12-.62,8.32-.81,12.48-.81,3.04-.07,6.12-.48,9.15-.63.8-.03,1.76.45,2.5.71,1.02.37,2.27.76,3.33,1.01,1.31.3,2.81.5,4.16.54,1.04.34,2.28.8,3.33,1.12"/><path class="b" d="M12.36,108.45c5.01-.4,9.95-1.68,14.98-1.91,3.29-.43,6.65-1.22,9.99-.84,4.26.4,8.32,2.07,12.48,2.95,2.44.6,5,1.11,7.49,1.46,1.93.45,3.92,1.09,5.83,1.64,2.73.79,5.57,1.48,8.32,2.15,2.49.32,5.07-.23,7.49-.76,4.36-.75,8.26-3.06,12.48-4.24,4.04-1.1,7.28-.94,9.99,2.64,1.5-1.33,1.98-4.26,4.16-4.69,1.47.33,2.43,1.99,3.33,3.07,2.93,3.95,5.49,4.62,9.99,2.69,8.26,1.74,12.58,1.65,20.81-.7,3.79-1.09,7.72-1.78,11.65-2.02,2.75-.1,5.57.15,8.32.11,2.75,0,5.58-.28,8.32-.11,1.39.07,2.81.83,4.16,1.13,1.02.28,2.29.46,3.33.65,1.32.43,2.82.91,4.16,1.28"/><path class="b" d="M12.36,107.02c2.5-.07,5.04-.51,7.49-1.01,2.17-.43,4.47-.65,6.66-.92,3.54-.69,7.19-1.64,10.82-1.27,4.27.39,8.32,2.05,12.48,2.98,4.11,1.14,8.43,1.52,12.48,2.87,2.17.65,4.45,1.32,6.66,1.83,1.05.26,2.24.78,3.33.86,2.21.19,4.51-.29,6.66-.78,4.63-.83,8.75-3.36,13.32-4.38,3.62-.89,6.6-.55,9.15,2.42,1.55-1.14,2.18-3.69,4.16-4.21,1.42.11,2.43,1.62,3.33,2.57,3.04,3.69,5.63,4.04,9.99,2.38.77.15,1.73.59,2.5.74,1.04.14,2.28.26,3.33.39,3.01.38,6.14.45,9.15.03,5.04-.66,9.92-2.42,14.98-2.98,4.13-.77,8.34.11,12.48.27,2.75.14,5.59.01,8.32.39,3.36.47,6.67,1.52,9.99,2.21"/><path class="b" d="M12.36,105.76c4.2-.05,8.31-1.33,12.48-1.74,3.31-.61,6.61-1.67,9.99-1.93,4.58-.31,8.99,1.31,13.32,2.56,4.66,1.27,9.52,1.85,14.15,3.19,3.02.93,6.17,1.69,9.15,2.73,2.18.48,4.52.02,6.66-.48,5.14-1.06,9.79-3.85,14.98-4.67,3.27-.71,5.91-.29,8.32,2.19,1.8-.65,2.36-3.04,4.16-3.63,1.35-.17,2.44,1.13,3.33,1.96,3.28,3.47,5.63,3.43,9.99,2.2,1.75.99,3.88,1.04,5.83,1.25,2.46.28,5.01.52,7.49.43,6.21-.2,12.18-2.28,18.31-3.1,3.9-.68,7.79.6,11.65.97,2.74.31,5.58.29,8.32.58,3.05.31,6.12.92,9.15,1.31"/><path class="b" d="M12.36,104.6c4.47-.15,8.91-1.2,13.32-1.87,3.53-.91,7.15-2.02,10.82-2.12,4.3-.1,8.41,1.45,12.48,2.6,4.1,1.05,8.37,1.63,12.48,2.61,3.04.91,6.27,1.56,9.15,2.88,2.4.92,5.09.35,7.49-.3,5.29-1.48,10.28-4.16,15.81-4.72,2.93-.61,5.23-.12,7.49,1.94l.83-.06c1.23-.74,1.97-2.42,3.33-2.99,2.77-.68,4.77,4.22,9.15,3.98,1.06-.02,2.3-.26,3.33-.49,1.39.08,2.73,1.04,4.16,1.06,5.24.47,10.56,1.36,15.81.46,3.32-.52,6.68-1.23,9.99-1.84,2.16-.45,4.43-1.05,6.66-.84,3.08.35,6.07,1.53,9.15,1.86,2.45.32,5.02.29,7.49.4,2.75.1,5.57.35,8.32.46"/><path class="b" d="M12.36,103.4c2.78.07,5.59-.44,8.32-.88,1.91-.33,3.96-.51,5.83-1.03,4.58-1.27,9.36-2.66,14.15-1.96,3.13.29,6.13,1.51,9.15,2.26,3.56.8,7.21,1.54,10.82,2.07,2.79.58,5.64,1.36,8.32,2.33,2.41,1.77,5.59,1.59,8.32.73,3.37-.99,6.63-2.54,9.99-3.58,2.13-.66,4.45-.96,6.66-1.28,4.59-.83,4.59-.06,8.32,1.99.89-.53,1.82-1.58,2.5-2.35,2.59-2.25,5.01,1.42,7.49,2.09,1.85.66,3.94.4,5.83.07,1.06.31,2.24.91,3.33,1.12,1.04.19,2.29.23,3.33.36,2.74.3,5.56.74,8.32.82,2.77.09,5.6-.24,8.32-.69,2.75-.46,5.59-.91,8.32-1.46,2.42-.67,5.03-1.22,7.49-.4,2.72.84,5.46,1.94,8.32,2.16,4.69.28,9.45-.11,14.15-.21"/><path class="b" d="M12.36,102.15c4.74.19,9.49-.77,14.15-1.57,5.14-1.37,10.45-2.85,15.81-2.16,2.82.35,5.57,1.37,8.32,2.02,3.29.7,6.67,1.3,9.99,1.89,2.25.14,4.51.69,6.66,1.36.84.23,1.73,1.02,2.5,1.43,2.29,1.32,5.1.92,7.49.1,3.07-1.05,6.04-2.57,9.15-3.51,2.13-.68,4.45-.95,6.66-1.21,4.32-.69,5.55-.98,9.15,1.98.98-.3,1.85-1.39,2.5-2.14,2.41-2.39,5.02.56,7.49,1.26,1.86.6,3.92.42,5.83.19,2.55,1.39,5.51,1.48,8.32,1.83,3.29.46,6.66.92,9.99.77,4.18-.2,8.36-.95,12.48-1.59,1.65-.28,3.38-.78,4.99-1.19,3.85-.51,7.12,2.27,10.82,2.77,4.92.66,10.05-.46,14.98-.83"/><path class="b" d="M12.36,100.84c3.61.26,7.26-.14,10.82-.75,1.62-.31,3.4-.35,4.99-.77,5.14-1.26,10.49-2.57,15.81-1.92,2.51.37,5.01,1.18,7.49,1.7,1.61.37,3.37.57,4.99.86,1.61.37,3.36.74,4.99.97,1.61.3,3.41.06,4.99.51,4.1,2.76,5.8,3.9,10.82,2.03,2.79-1.06,5.47-2.59,8.32-3.5,2.38-.85,4.99-1.12,7.49-1.35,4.48-.58,5.38-.99,9.15,2.02l.83.08c3.71-4.59,4.44-2.93,9.15-1.28,1.86.54,3.91.44,5.83.32,2.82,1.48,6.07,1.58,9.15,2.05,3.28.48,6.66.93,9.99.8,4.44-.23,8.93-.8,13.32-1.55,1.35-.29,2.84-.69,4.16-1.09,2.35-.38,4.6.85,6.66,1.81,2.05.96,4.39,1.49,6.66,1.38,3.89-.25,7.78-1.09,11.65-1.55"/><path class="b" d="M12.36,99.51c2.47.11,5.03.22,7.49-.08,2.48-.27,4.99-.88,7.49-.87,4.7-.72,9.38-2,14.15-2.26,3.37-.3,6.71.73,9.99,1.35,1.61.35,3.38.49,4.99.81,2.72.61,5.53,1.24,8.32,1.35.47-.05,1.28.23,1.66.51.76.36,1.79.89,2.5,1.35,2.89,1.82,6.26,1.1,9.15-.3,5.71-2.96,9.18-4.67,15.81-4.85,5.08-.71,5.19.31,9.15,2.93,3.05-4.67,4.59-3.61,9.15-2.06,1.86.5,3.91.48,5.83.46,1.33.45,2.78,1.06,4.16,1.32,1.62.27,3.37.49,4.99.75,3.01.46,6.1.93,9.15.96,4.16.02,8.36-.47,12.48-.97,1.65-.2,3.4-.6,4.99-1.05,1.3-.46,2.81-.76,4.16-.31,2.27.69,4.33,2.21,6.66,2.74,2.44.61,5.06.2,7.49-.27,2.46-.49,5.02-.9,7.49-1.28"/><path class="b" d="M12.36,98.53c2.75-.25,5.58-.17,8.32-.43,1.64-.17,3.38-.52,4.99-.81,1.04.12,2.28.15,3.33.07,4.99-.61,9.95-1.8,14.98-2.07,2.5,0,5.03.56,7.49.95,1.91.32,3.95.48,5.83.95,2.17.51,4.47.86,6.66,1.26.72.39,1.74.87,2.5,1.18,4.53,1.75,7.19,2.28,11.65-.08,7.3-4.14,10.47-5.64,19.14-5.23,1.59.17,2.95,1.39,4.16,2.32,0,0,.83.65.83.65s.83.16.83.16c3.88-4.81,4.85-3.16,9.99-1.92,1.88.41,3.93.26,5.83.54,2.63,1.09,5.53,1.44,8.32,1.89,4.38.76,8.86,1.35,13.32,1.07,3.05.05,6.17.03,9.15-.71,1.34-.23,2.84-.52,4.16-.88,1.05-.23,2.24-.79,3.33-.75,3.25.29,5.86,2.89,9.15,3.1,2.22.23,4.51-.36,6.66-.85,2.17-.52,4.46-.94,6.66-1.33"/><path class="b" d="M12.36,97.67c2.47.05,5.04-.04,7.49-.42,1.93-.3,3.91-.88,5.83-1.24,1.04-.28,2.27.15,3.33.15,1.34.06,2.83-.09,4.16-.28,4.41-.5,8.86-1.56,13.32-1.51,5.04.31,10.04,1.24,14.98,2.23,1.3.64,2.77,1.32,4.16,1.73,2.66.78,5.55,1.19,8.32,1.05,1.41-.32,2.89-1.01,4.16-1.68,6.33-3.78,10.54-6.55,18.31-5.57,1.18.13,2.45.75,3.33,1.54.7.56,1.61,1.5,2.5,1.76,1.03.04,1.92-.96,2.5-1.7,2.28-2.43,4.79-1.18,7.49-.44,2.15.55,4.46.67,6.66.86,1.09.07,2.27.62,3.33.85,2.17.48,4.47.82,6.66,1.24,3.55.67,7.2,1.12,10.82,1.05,3.31.39,6.71.37,9.99-.31,2.47-.6,5.04-1.21,7.49-1.9,2.06-.05,3.99,1.04,5.83,1.84,1.53.66,3.32,1.06,4.99.95,3.9-.44,7.71-1.97,11.65-2.56"/><path class="b" d="M12.36,96.62c5,.13,10.16-.01,14.98-1.46,5.82.13,11.66-1.28,17.48-1.68,4.45-.43,8.95.35,13.32,1.11,2.17.76,4.35,1.84,6.66,2.18,3,.53,6.14.38,9.15.02,1.35-.23,2.98-.23,4.16-1.01,5.53-3.36,10.59-7.2,17.48-5.98,1.15.18,2.44.72,3.33,1.48.71.61,1.61,1.59,2.5,1.96.78-.09,1.82-.15,2.5-.6,1.14-1.53,2.98-2.96,4.99-2.42,1.63.38,3.34.99,4.99,1.31,1.89.38,3.92.57,5.83.84,3.34.44,6.69,1.23,9.99,1.88,2.99.64,6.09,1.12,9.15,1.18,2.73.35,5.56.68,8.32.37,3.71-.16,7.19-1.75,10.82-2.33,1.71.03,3.42.75,4.99,1.36,3.68,1.61,7.2.74,10.82-.51.7-.35,1.74-.15,2.5-.17,1.07-.04,2.33-.34,3.33-.73"/><path class="b" d="M12.36,95.26c4.14.03,8.34-.27,12.48-.31,6.11-.5,12.25-1.23,18.31-2.2,3.83-.49,7.88-.87,11.65.15,6.51,2.24,10.72,2.59,17.48,1.14,3.07-.63,6.18-1.44,9.15-2.44,1.6-.93,3.34-1.91,4.99-2.74,4.28-2.15,10.09-2.44,13.32,1.64.4.24,1.21.4,1.66.29.77-.04,1.81-.03,2.5-.43,2.64-3.56,4.65-2.73,8.32-1.49,3.81.99,7.81,1.39,11.65,2.27,1.32.28,2.83.29,4.16.47,1.04.24,2.29.53,3.33.77,2.43.57,4.99.99,7.49,1.13,4.91.88,10.2,1.06,14.98-.55,1.3-.45,2.84-.71,4.16-1.1,2.85-.28,5.52,1.34,8.32,1.56,2.25.23,4.55-.45,6.66-1.18,2.16.54,4.55.62,6.66-.2"/><path class="b" d="M12.36,93.52c3.04-.04,6.11-.61,9.15-.53,3.3,0,6.7.74,9.99.17,2.72-.52,5.57-.61,8.32-.84,2.47-.21,5.01-.64,7.49-.68,3.91-.25,7.78.74,11.65,1.14,5.11.46,10.18-1.1,14.98-2.69,3.58-1.2,7.14-2.71,10.82-3.6,1.04-.24,2.36.04,3.33-.46,2.35-.88,5.09-1.14,7.49-.33,1.25.42,2.35,1.54,3.33,2.37,1.33.14,2.82.21,4.16.23.99-.36,1.69-1.65,2.5-2.28,2.32-1.99,5.06.64,7.49,1.11,2.69.75,5.6.65,8.32,1.24,1.63.35,3.35.9,4.99,1.19,1.32.26,2.82.25,4.16.36,2.71.71,5.53,1.34,8.32,1.59,3.27.6,6.66.85,9.99.71,1.94-.04,3.99-.39,5.83-1.03,1.01-.39,2.29-.58,3.33-.86,1.01-.36,2.29-.19,3.33-.03,2.17.39,4.43,1.02,6.66.83,1.37-.03,2.81-.65,4.16-.72,2.36.9,5.07,1.11,7.49.34"/><path class="b" d="M12.36,91.31c1.05.25,2.29-.09,3.33-.23,1.89-.31,3.9-.64,5.83-.69,3.62-.14,7.21.83,10.82.94,1.61-.27,3.35-.5,4.99-.52,2.17-.37,4.44-.86,6.66-.88,3.88.04,7.76.83,11.65.82,5.16.34,10.32-.93,14.98-3.11,5-2.33,10.1-5.45,15.81-5.12,1.64.12,3.39.45,4.99.82.74-.03,1.77,0,2.5.13,1.14.16,2.26.95,3.33,1.32,1.87.53,3.89.94,5.83,1.16,1.06-.98,1.86-2.71,3.33-3.14,1.17-.13,2.35.6,3.33,1.14,1.26.73,2.74,1.42,4.16,1.75,2.7.64,5.58.42,8.32.77,2.79.26,5.54,1.21,8.32,1.5,1.96,0,3.9.78,5.83,1.06,4.66.72,9.42,1.29,14.15,1.15,3.12-.08,6.1-1.33,9.15-1.82,2.2-.02,4.46.5,6.66.54,1.35.02,2.85-.17,4.16-.48,1.08.11,2.27.68,3.33.9,1.87.43,3.94.46,5.83.06"/><path class="b" d="M12.36,88.66c1.31.67,2.81.26,4.16-.02,1.62-.32,3.36-.7,4.99-.89,3.6-.49,7.23.26,10.82.49,3.65.28,7.16-1.44,10.82-1.22,3.66-.06,7.17,1.52,10.82,1.4,5.06.06,9.67-.43,14.15-2.99,3.39-1.75,6.35-4.46,9.99-5.7,8.17-2.39,16.39,1.55,24.13,3.83l.83-.28c1.22-2.09,2.55-3.88,4.99-2.09,1.77,1.24,3.68,2.58,5.83,3.09,2.7.67,5.57.47,8.32.6,1.9.16,3.93.11,5.83.33,2.76.44,5.58.97,8.32,1.53,4.66.73,9.43,1.15,14.15,1.27,3.09.1,6.14-.81,9.15-1.33,3.02-.21,6.14.42,9.15-.12,1.37-.28,2.82.59,4.16.83,2.14.54,4.47.71,6.66.42"/><path class="b" d="M12.36,86.05c.74.24,1.73.57,2.5.72,1.35-.23,2.83-.57,4.16-.9,2.43-.61,4.98-1.13,7.49-1.18,2.75-.09,5.58.32,8.32.07,1.91-.25,3.88-.88,5.83-.85,4.25-.13,8.34,1.34,12.48,1.99,4.9.11,10.01-.3,14.15-3.19,3.61-2.16,6.52-5.9,10.82-6.71,2.46-.42,5.05-.03,7.49.35,2.49.39,5.08.85,7.49,1.6,1.65.52,3.43,1.11,4.99,1.85,1.31.56,2.73,1.45,4.16,1.65.57-1.07,1.41-2.61,2.5-3.23,1.25-.38,2.42.67,3.33,1.4.98.83,2.18,1.77,3.33,2.36,2.8,1.42,6.09,1.42,9.15,1.43,3.87.17,7.8-.49,11.65.12,6.6,1.03,13.27,2.15,19.97,2.17,3.06.01,6.11-.81,9.15-.89,2.47.08,5.03-.11,7.49-.21,3.55.75,7.16,1.74,10.82,1.42"/><path class="b" d="M12.36,83.68c1.33.25,2.8,1.06,4.16.74,3.34-.67,6.61-1.92,9.99-2.38,2.45-.36,5.02-.34,7.49-.53,1.91-.16,3.9-.65,5.83-.57,4.24.09,8.36,1.41,12.48,2.23,1.88.39,3.93.18,5.83.02,2.63-.16,5.27-.93,7.49-2.37,2.07-1.29,3.98-3.04,5.83-4.62,1.63-1.45,3.59-2.84,5.83-3.05,2.49-.25,5.04.42,7.49.78,2.49.38,5.09.7,7.49,1.47,1.67.54,3.45,1.22,4.99,2.05,1.34.63,2.66,1.89,4.16,2.06.56-1.14,1.39-2.79,2.5-3.49,1.3-.44,2.45.78,3.33,1.57.97.93,2.15,2,3.33,2.65,2.52,1.35,5.53,1.41,8.32,1.49,2.19.02,4.47.05,6.66-.11,1.9-.12,3.92-.38,5.83-.27,8.03.63,16.03,2.48,24.13,1.96,2.47-.16,5.01-.44,7.49-.4,1.62.02,3.37-.25,4.99-.22,3.86.54,7.73,1.53,11.65,1.37"/><path class="b" d="M12.36,81.62c1.33.3,2.82.62,4.16.88,3.41-.38,6.66-1.81,9.99-2.58,4.07-.87,8.32-1.44,12.48-1.49,4.22.23,8.35,1.42,12.48,2.22,4.16.71,9.67.31,13.32-1.92,2.1-1.28,4-3.06,5.83-4.69,1.63-1.48,3.55-3.04,5.83-3.23,3.07-.19,6.12.85,9.15,1.12,5.22.46,10.09,2.81,14.15,6.05.74-.26,1.38-1.61,1.66-2.26.32-.55,1.1-1.55,1.66-1.86l.83-.08c2.52,1.15,3.95,4.11,6.66,5.03,2.63.96,5.56.9,8.32,1,4.43.2,8.89-.46,13.32-.43,8.03.64,16.05,2.07,24.13,1.71,2.18-.12,4.47-.06,6.66-.13,1.62,0,3.38-.34,4.99-.14,3.86.42,7.75,1.18,11.65,1.12"/><path class="b" d="M12.36,79.7c2.17.35,4.45,1.21,6.66.76,5.05-.95,9.85-3.12,14.98-3.75,5.6-.95,11.15.85,16.64,1.74,2.73.51,5.64.45,8.32-.29,1.9-.6,3.88-1.37,5.83-1.82,3.96-1.85,6.39-6.47,10.82-7.44,2.19-.37,4.49.21,6.66.51,2.21.32,4.55.58,6.66,1.34,2.39.85,4.6,2.32,6.66,3.77,1.07.72,2.12,1.93,3.33,2.42.79-1.71,1.53-4.29,3.33-5.21,1.38-.16,2.45,1.22,3.33,2.09.94.99,2.11,2.1,3.33,2.72,2.56,1.21,5.55,1.12,8.32,1.29,4.71.24,9.45-.26,14.15-.39,8.32.39,16.62,1.53,24.97,1.47,3.59.18,7.24-.13,10.82-.14,4.14.3,8.32.92,12.48.9"/><path class="b" d="M12.36,77.58c2.14.56,4.45,1.08,6.66,1.18,6.54-.3,12.57-3.84,19.14-3.86,4.19.18,8.31,1.42,12.48,1.78,6.95.78,8.19-1.07,14.15-3.21.73-.23,1.75-.5,2.5-.65,2.56-1.6,4.6-4.23,7.49-5.3,1.84-.65,3.93-.49,5.83-.24,2.24.29,4.59.7,6.66,1.63,3.79,1.7,6.63,4.98,9.99,7.34,1.06-2.12,1.67-5.71,4.16-6.57,1.37.14,2.42,1.49,3.33,2.39.93.96,2.11,2.02,3.33,2.59,2.59,1.09,5.56,1.04,8.32,1.23,5.26.23,10.55-.32,15.81-.23,8.05.07,16.09.91,24.13,1.03,3.59.16,7.24-.14,10.82-.05,4.14.25,8.33.65,12.48.65"/><path class="b" d="M12.36,74.57c5.95,3.29,11.19,2.55,17.48.85,2.73-.66,5.48-1.77,8.32-1.79,3.89.15,7.74,1.24,11.65,1.17,6.96.53,7.36.1,13.31-3.17,2.06-1.06,4.4-1.64,6.66-2.05,1.53-1.18,3.2-2.49,4.99-3.25,3.81-1.4,8.27-.47,11.65,1.63,3.12,1.97,5.48,5.04,8.32,7.34l.83-.18c1.17-2.36,1.85-5.78,4.16-7.3,1.77-.3,3,1.63,4.16,2.67.92.91,2.12,1.86,3.33,2.34,3.71,1.21,7.78,1.15,11.65,1.18,4.42.08,8.9.06,13.32-.15,6.93-.26,13.88.33,20.81.4,4.42.07,8.89.07,13.32.07,4.42.19,8.89.5,13.32.55"/><path class="b" d="M12.36,71.79c2.2.87,4.41,2.01,6.66,2.76,5.51,1.51,10.51-.86,15.81-1.96,4.41-.51,8.89.52,13.32.48,2.75.06,5.58.26,8.32.03,1.14-.19,2.34-.9,3.33-1.48,3.46-2.35,7.35-4.52,11.65-4.56,1.88-.82,3.72-2.1,5.83-2.27,3.38-.48,6.67,1.12,9.15,3.31,2.88.97,5,3.34,6.66,5.8,2.49-1.96,2.57-7.22,5.83-8,1.69.37,2.89,2.06,4.16,3.12,1.15,1.03,2.65,1.9,4.16,2.26,2.97.67,6.11.87,9.15.93,6.07.64,12.23.11,18.31-.18,3.58-.18,7.23-.14,10.82-.07,3.31-.05,6.68-.22,9.99-.22,8.04.04,16.1.48,24.13.79"/><path class="b" d="M12.36,69.28c10.94,3.83,8.86,5.15,20.81,1.73,4.67-1.12,9.44.67,14.15.53,2.47-.01,5.02.11,7.49-.03,1.36-.13,3,0,4.16-.84,3.99-2.74,8.23-5.83,13.32-5.72,2.02.18,3.75-1.09,5.83-.98,1.4,0,2.94.36,4.16,1.05.74.39,1.62,1.21,2.5,1.28,1.53.27,3.07,1.13,4.16,2.22.76.73,1.54,2.03,2.5,2.54.69-1,1.65-2.31,2.5-3.17.7-1.07,1.47-2.66,2.5-3.46,3.12-1.61,4.43,4.83,12.48,5.45,6.89.83,13.87,1.27,20.81.82,4.69-.43,9.44-.67,14.15-.8,3.58-.32,7.22-.82,10.82-.87,8.32.07,16.65.86,24.97,1.15"/><path class="b" d="M12.36,67c2.54.54,5.07,1.45,7.49,2.38,1.89.73,3.72,1.76,5.83,1.35,3.07-.38,6.06-1.6,9.15-1.85,3.91-.12,7.74,1.33,11.65,1.29,4.16.02,8.37-.11,12.48-.78,1.81-.68,3.31-2.28,4.99-3.22,3.72-2.46,7.28-3,11.65-2.79,1.03-.17,2.3-.17,3.33.03,1.04.26,2.23.79,3.33.73,3.94.21,4.99,1.69,7.49,4.35,1.05-1.73,2.56-3.38,4.16-4.6,1.6-2.27,3.29-1.34,4.99.2,3.2,3.09,7.38,3.91,11.65,4.33,3.86.38,7.76.88,11.65.83,3.31.07,6.69.17,9.99-.24,3.58-.42,7.25-.58,10.82-1,3.57-.63,7.18-1.47,10.82-1.61,8.61-.06,17.19,1.29,25.8,1.55"/><path class="b" d="M12.36,64.97c3.11.34,6.2,1.22,9.15,2.22,1.35.4,2.76,1.18,4.16,1.37.75-.06,1.76-.23,2.5-.39,10.17-2.81,10.92,1,19.97.66,4.48-.09,8.96-.8,13.32-1.81,5.46-3.44,8.05-5.47,14.98-5.15,4.19.35,9.07-.47,11.65,3.64l.83-.27c1.35-2.03,3.5-3.65,5.83-4.34,2.27.27,3.8,2.52,5.83,3.42,3.84,1.91,8.29,2.18,12.48,2.7,3.29.47,6.68.46,9.99.56,4.15.3,8.36.28,12.48-.39,2.18-.33,4.5-.46,6.66-.89,3.83-.94,7.67-2.3,11.65-2.44,5-.14,10.02.61,14.98,1.11,3.57.47,7.24.52,10.82.96"/><path class="b" d="M12.36,63.16c3.36.05,6.75.73,9.99,1.59,1.05.29,2.29.67,3.33,1.02.74.28,1.71.65,2.5.38,10.12-2.22,9.91,1.05,18.31,1.46,5.1.05,10.11-1.18,14.98-2.59,1.64-.5,3.4-1.09,4.99-1.72,2.49-1.57,5.39-2.62,8.32-2.91,1.9-.2,3.92-.21,5.83-.14,2.45.02,5.19.66,6.66,2.79l.83-.23c1.36-1.92,3.51-3.1,5.83-3.36,1.21.1,2.36,1,3.33,1.67,1.23.89,2.72,1.66,4.16,2.12,4.57,1.4,9.41,1.93,14.15,2.4,3.3.31,6.68.38,9.99.38,3.88.49,7.82.19,11.65-.53,1.62-.29,3.41-.46,4.99-.93,3.29-1,6.54-2.51,9.99-2.91,5.27-.52,10.6.45,15.81,1.16,3.85.57,7.81.69,11.65,1.38"/><path class="b" d="M12.36,61.47c5.63-.25,11.33.83,16.64,2.68,2.73-.27,5.61-.62,8.32.04,2.21.59,4.4,1.62,6.66,2.05,4.76.84,9.67-.32,14.15-1.93,4.13-1.33,8.19-3.14,12.48-3.88,3.09-1.42,6.6-1.91,9.99-1.77,1.69.04,3.51.41,4.99,1.24.38.35,1.25,1,1.66,1.31,1.5-2.05,4.1-3.39,6.66-2.97,2.27.89,4.25,2.62,6.66,3.2,5.41,1.53,11.07,2.28,16.64,2.94,3.57.37,7.24.49,10.82.13,3.61.51,7.28,0,10.82-.75,4.94-.65,9.16-3.92,14.15-4.33,5.03-.36,10.07.75,14.98,1.7,3.88.46,7.83.83,11.65,1.67"/><path class="b" d="M12.36,59.84c6.17-.54,12.47.3,18.31,2.36,2.46.2,5.08-.08,7.49.64,1.94.61,3.86,1.61,5.83,2.16,4.14,1.17,8.6.25,12.48-1.41,3.56-1.45,7.1-3.16,10.82-4.18,1.02-.27,2.27-.5,3.33-.58.77-.03,1.81.03,2.5-.4,3.4-1.28,7.3-1.66,10.82-.66.42.13,1.27.46,1.66.67.3.37,1.19.83,1.66.86,1.42-1.67,3.65-2.54,5.83-2.39,2.56.66,4.79,2.43,7.49,2.94,6.01,1.51,12.16,2.56,18.31,3.33,3.58.43,7.25.32,10.82-.15,1.33-.11,2.82.19,4.16.07,1.93-.11,3.94-.55,5.83-.96,5.5-.98,9.99-5.28,15.81-4.8,1.92.1,3.96.33,5.83.78,1.9.53,3.88,1.23,5.83,1.58,1.6.36,3.39.18,4.99.43,2.5.29,5.03.94,7.49,1.42"/><path class="b" d="M12.36,58.29c6.71-.88,13.62-.1,19.97,2.24,1.56.51,3.39.19,4.99.55,2.36.31,4.49,1.65,6.66,2.53,4.04,1.81,8.69,1.03,12.48-1.02,5.2-2.5,10.62-6.13,16.64-5.24,4.53-1.84,9.95-2.04,14.15.71,2.1-2.43,5.54-2.94,8.32-1.42,1.83.81,3.87,1.41,5.83,1.82,3.01.71,6.04,1.72,9.15,1.9,3.03.5,6.09,1.27,9.15,1.58,3.87.55,7.81.14,11.65-.42,1.04-.19,2.28.06,3.33,0,1.65-.04,3.4-.4,4.99-.78,2.57-.65,5.19-1.56,7.49-2.89,3.69-2.29,8.37-3.24,12.48-1.54,2.93,1.19,5.92,2.68,9.15,2.66,1.04.02,2.29-.15,3.33-.18,2.5.36,5.02,1.06,7.49,1.56"/><path class="b" d="M12.36,56.77c7.26-1.22,14.75-.35,21.64,2.21,1.53.64,3.39.34,4.99.75,2.39.46,4.47,2.02,6.66,2.99,4.03,1.96,8.02.99,11.65-1.31,5.03-2.82,10.57-6.94,16.64-5.55,1.08-.07,2.26-.67,3.33-.82,1.32-.24,2.83-.27,4.16-.14,1.98.34,4.35.59,5.83,2.08,2.51-1.87,4.28-3.04,7.49-1.89,2.69,1,5.6,1.51,8.32,2.39,2.69.76,5.52,1.3,8.32,1.41,3,.71,6.08,1.45,9.15,1.81,4.17.62,8.37-.1,12.48-.76,1.04-.18,2.28.08,3.33-.02,1.96-.14,4-.66,5.83-1.37,4.49-1.58,9.19-5.98,14.15-4.67,3.45,1.09,6.29,3.9,9.99,4.32,2.22.38,4.48-.34,6.66-.57,2.2.39,4.47.97,6.66,1.41"/><path class="b" d="M12.36,55.26c7.92-1.55,15.75-.51,23.3,2.16,1.28.57,2.81.55,4.16.75,2.48.31,4.56,1.93,6.66,3.14,4.31,2.58,7.68,1.81,11.65-.91,5.14-3.09,11.16-7.65,17.48-6.02,2.65-.92,5.64-.89,8.32-.13,1.45.32,3.05.71,4.16,1.76,2.46-2.84,4.98-2.84,8.32-1.74,2.5.54,5.01,1.4,7.49,2.01,1.61.39,3.35.76,4.99.94,1.04.14,2.3.02,3.33.23,3.53.96,7.15,1.9,10.82,2.12,2.48.18,5.05-.09,7.49-.56,1.9-.32,3.89-.93,5.83-.64,4.74.26,8.55-2.94,12.48-5.08,9.53-5.48,10.92,7.35,21.64,3.99,1.04-.27,2.26-.7,3.33-.82,1.91.32,3.92.75,5.83,1.11"/><path class="b" d="M12.36,53.75c8.04-1.73,16.38-.79,24.13,1.8,1.58.58,3.32.96,4.99,1.14,2.53.4,4.57,2.21,6.66,3.56,4.56,3.06,7.51,1.64,11.65-1.17,4.3-2.87,8.87-5.84,14.15-6.37,1.05-.15,2.29.08,3.33.15,1.02-.23,2.28-.36,3.33-.31,1.37.05,2.85.41,4.16.78.73.19,1.78.31,2.5.59.41.23,1.27.74,1.66,1.01,2.29-2.83,5.1-2.74,8.32-1.81,2.46.67,4.99,1.43,7.49,1.95,1.6.35,3.35.68,4.99.77,1.05.11,2.31-.2,3.33.13,3.78,1.13,7.68,2.22,11.65,2.3,3.37.12,6.72-.75,9.99-1.45.74-.24,1.74-.02,2.5.04,1.06.07,2.32-.09,3.33-.41,3.68-1.22,6.35-4.45,9.99-5.79,6.86-2.53,8.87,7.82,17.48,6.45,2.26-.34,4.45-1.35,6.66-1.91,1.63.15,3.38.43,4.99.68"/><path class="b" d="M12.36,52.23c8.56-1.93,17.47-.92,25.8,1.58,1.58.6,3.33,1.04,4.99,1.33,2.56.6,4.54,2.61,6.66,4.05,4.44,3.35,7.59,1.39,11.65-1.3,2.39-1.63,4.8-3.44,7.49-4.55,2.88-1.1,6.05-1.97,9.15-1.79,1.04.18,2.28-.15,3.33-.1,1.07-.01,2.31.32,3.33.65,1.65.47,3.58.43,4.99,1.53,2.55-2.27,4.21-2.53,7.49-1.72,2.74.64,5.55,1.36,8.32,1.9,1.6.32,3.35.58,4.99.58,1.06.06,2.31-.34,3.33.02,2.71.83,5.51,1.72,8.32,2.13,2.17.37,4.47.22,6.66.25,2.21-.01,4.5-.31,6.66-.74,2.56-.21,5.3-.72,7.49-2.14,2.68-1.81,5.04-4.52,8.32-5.22,1.89-.34,3.65.88,4.99,2.07,1.56,1.37,3.19,2.95,4.99,4,3.28,2,7.36,1.46,10.82.22,1.31-.45,2.8-.92,4.16-1.21,1.04-.07,2.29.07,3.33.17"/><path class="b" d="M12.36,50.68c8.19-1.89,15.22-1.05,23.3.68,3.36.59,6.79,1.36,9.99,2.56,2.1,1.11,3.89,2.94,5.83,4.3,3.76,2.98,7.27,1.47,10.82-.95,2.4-1.67,4.76-3.67,7.49-4.79,2.63-1.05,5.54-1.48,8.32-1.92,1.33-.18,2.83.04,4.16-.13,1.68-.18,3.37.56,4.99.84.75.04,1.78.18,2.5.38.37.2,1.25.33,1.66.25,1.99-2.03,5-1.47,7.49-.92,2.46.52,5.01,1.06,7.49,1.5,1.61.27,3.36.46,4.99.41,1.05.02,2.29-.37,3.33-.09,3.52,1.16,7.18,2.05,10.82,2.72,2.46.28,5.04.09,7.49-.2,1.34-.18,2.85-.41,4.16-.75,1.63-.54,3.32-1.31,4.99-1.72,1.27-.37,2.35-1.59,3.33-2.42,1.82-1.6,4.05-3.66,6.66-3.31,3.32.94,5.41,4.17,8.32,5.85,6,3.92,12.8-.38,19.14-.67"/><path class="b" d="M12.36,49.1c7.37-1.72,14.33-1.16,21.64.49,3.84.82,7.93.8,11.65,2.16,4.37,1.84,7.19,7.61,12.48,6.98,4.62-.67,7.65-4.73,11.65-6.71,1.78-.9,3.87-1.25,5.83-1.57,1.62-.27,3.36-.66,4.99-.85,1.62-.04,3.37-.21,4.99-.11,1.62.21,3.34.62,4.99.67.75.08,1.77.31,2.5,0,.67-.41,1.71-.71,2.5-.74,3.35-.02,6.69.93,9.99,1.42,2.16.37,4.46.66,6.66.55,1.04-.02,2.28-.31,3.33-.2.73.21,1.76.51,2.5.73,1.97.5,3.76,1.83,5.83,2.04,3.86.34,7.81-.36,11.65-.71,1.47-.1,2.82-1.21,4.16-1.75,1.25-.58,2.79-.92,4.16-1.07,1.86-1.57,3.49-3.74,5.83-4.66,5.68-1.84,8.24,7.73,17.48,7.06,4.18-.16,8.3-1.42,12.48-1.58"/><path class="b" d="M12.36,47.48c5.72-1.1,11.74-1.65,17.48-.38,2.47.52,4.98,1.28,7.49,1.63,2.74.39,5.63.28,8.32.94,4.69,1.68,7.2,7.48,12.48,7.91,5.08.32,8.35-4.33,12.48-6.45,2.04-1.02,4.44-1.2,6.66-1.56,4.09-.84,8.31-1.29,12.48-1.01,1.33.11,2.82.2,4.16.18,1.34-.14,2.79-.58,4.16-.41,3.62.22,7.22,1.06,10.82,1.42,1.33.13,2.83.18,4.16.11,1.05-.01,2.29-.35,3.33-.13,2.05,1.15,4.27,2.38,6.66,2.54,2.22.15,4.48-.5,6.66-.82,2.17-.33,4.47-.46,6.66-.57,2.74-1.78,4.88-3.03,8.32-2.68,9.26-11.01,10.29,2.08,20.81,2.5,4.71.15,9.44-.63,14.15-.64"/><path class="b" d="M12.36,45.84c4.64-.74,9.44-1.6,14.15-1.12,3.95.45,7.75,1.88,11.65,2.59,2.45.36,5.03.24,7.49.48,4.13,1.11,6.31,5.45,9.99,7.38,2.39,1.44,5.05,1.54,7.49.16,2.34-1.14,4.63-2.57,6.66-4.21,2.14-1.61,4.9-2.03,7.49-2.31,1.92-.23,3.91-.71,5.83-.94,3.58-.24,7.23-.59,10.82-.67,1.91.14,3.92-.11,5.83-.04,2.48.11,5.03.51,7.49.82,1.89.3,3.94.23,5.83.56,1.33.23,2.83.49,4.16.7.72.28,1.74.65,2.5.84,3.09.87,6.22-.38,9.15-1.23,2.4-.66,5-.9,7.49-.73,2.76-2.09,4.88-2.85,8.32-2.01,1.02-.25,1.76-1.5,2.5-2.16.9-.85,2.1-1.74,3.33-2.01,4.14-.58,7.17,5.84,14.15,6.38,2.18.26,4.47.07,6.66.09,2.75,0,5.57.23,8.32.29"/><path class="b" d="M12.36,44.19c13.62-2.29,12.7-1.98,25.8,1.35,2.44.52,5.01.44,7.49.53,3.74.52,6.68,5.44,9.99,7.31,2.74,1.86,5.32,2.3,8.32.71,1.36-.66,2.83-1.51,4.16-2.23,1.32-.93,2.68-2.16,4.16-2.84,2.06-.94,4.45-1.06,6.66-1.36,4.1-.78,8.32-.99,12.48-1.27,3.02-.25,6.11-.68,9.15-.5,5.03.15,10.03,1.05,14.98,1.85,1.61.23,3.36.62,4.99.61,1.67-.02,3.44-.48,4.99-1.08,2.14-.84,4.37-1.81,6.66-2.17,1.32-.27,2.83-.14,4.16-.21,1.9-1.39,4.4-2.09,6.66-1.17.73.23,1.73.71,2.5.39,7.62-9.99,8.97.89,19.14,1.75,2.18.26,4.47.13,6.66.29,2.77.17,5.57.67,8.32.99"/><path class="b" d="M12.36,42.54c2.78-.36,5.57-1.01,8.32-1.54,5.66-.96,11.21,1.13,16.64,2.41,11.23,2.29,7.06-1.85,16.64,6.89,5.62,4.61,8.04,4.48,14.15.85,2.16-1.37,4.04-3.47,6.66-4,1.87-.47,3.92-.54,5.83-.84,1.33-.2,2.81-.48,4.16-.55.74-.03,1.76.04,2.5-.11,3.29-.4,6.69-.33,9.99-.67,4.42-.46,8.91-.13,13.32.36,3.02.31,6.11.78,9.15.89,1.67-.11,3.44-.6,4.99-1.22,2.44-.98,4.91-2.21,7.49-2.81,1.3-.43,2.9-.1,4.16-.61,3.17-1.54,5.47-.14,8.32,1.27,1.33-.78,2.17-2.52,3.33-3.52,3.27-3.34,6.1-.46,9.15,1.42,2.24,1.41,4.86,2.37,7.49,2.7,2.45.34,5.03.24,7.49.5,2.5.24,5.04.85,7.49,1.37"/><path class="b" d="M12.36,40.92c2.52-.32,5.02-1.2,7.49-1.75,5.61-1.22,11.22.78,16.64,2.03,2.99.68,6.1,1.09,9.15,1.26,2.22.55,4.09,2.4,5.83,3.83,2.72,2.43,5.6,5.09,9.15,6.18,1.98.52,4.08-.21,5.83-1.13,1.88-.81,3.45-2.33,4.99-3.63,1.41-1.12,3.22-1.93,4.99-2.22,2.46-.33,5.03-.55,7.49-.93.74-.09,1.76-.13,2.5-.08,1.33-.16,2.82-.39,4.16-.48,2.18-.16,4.47-.09,6.66-.17,2.47-.09,5.02-.3,7.49-.3,6.07-.16,12.35,1.17,18.31-.34,4.69-1.45,9.21-4,14.15-4.46,2.53-.08,4.58,1.72,6.66,2.9,1.47-.6,2.23-2.64,3.33-3.73,3.22-3.94,5.63-2.22,9.15.1,2.5,1.61,5.38,2.76,8.32,3.2,2.45.43,5.02.38,7.49.62,2.52.26,5.05.92,7.49,1.56"/><path class="b" d="M12.36,39.26c2.52-.54,4.97-1.63,7.49-2.18,4.74-.94,9.56.41,14.15,1.5,2.72.65,5.55,1.2,8.32,1.57,1.04.14,2.28.28,3.33.37.83.24,1.8.9,2.5,1.39,5.12,3.59,11.35,12.08,18.31,8.64,1.92-.84,3.42-2.61,4.99-3.95,1.39-1.22,3.17-2.22,4.99-2.59,2.73-.42,5.58-.53,8.32-.93,2.21.02,4.46-.53,6.66-.72,3.58-.29,7.23.12,10.82-.07,6.08-.47,12.35.34,18.31-1.21,5.25-1.32,10.14-5.58,15.81-4.09,1.04.37,2.31.76,3.33,1.19,1.09.45,2.11,1.66,3.33,1.69,8.2-12.91,9.72-3.61,19.97-1.22,1.32.33,2.81.59,4.16.74,1.32.35,2.8.76,4.16.9,1.33.15,2.83.05,4.16-.05,1.35.28,2.84.69,4.16,1.08"/><path class="b" d="M12.36,37.43c2.22-.67,4.4-1.78,6.66-2.34,5.57-1.25,11.21.71,16.64,1.79,3.27.82,6.62,1.65,9.99,1.97,2.25.67,4.07,2.58,5.83,4.06,4.12,3.63,10.02,9.67,15.81,6.04,2.64-1.76,4.55-4.66,7.49-5.99,2.58-1.2,5.57-.84,8.32-1.22,1.33-.2,2.83-.22,4.16-.4,1.9-.33,3.91-.69,5.83-.86,3.03-.27,6.13.11,9.15.19,2.47.04,5.02-.13,7.49-.23,3.06-.15,6.22-.35,9.15-1.29,5.87-1.79,10.25-7.05,16.64-3.28.64.5,1.74.35,2.5.47.79.14,1.81.55,2.5.97.61-.36,1.38-1.59,1.66-2.21.86-1.46,1.95-3.23,3.33-4.25,4.49-2.66,9.27,2.6,13.32,4.15,2.09.96,4.42,1.55,6.66,2.06,2.13.78,4.4,1.55,6.66,1.85,1.33.16,2.83.16,4.16.03,1.06-.16,2.31-.3,3.33.12"/><path class="b" d="M12.36,35.43c2.43-.99,4.85-2.38,7.49-2.71,5.62-.56,11.24,1.02,16.64,2.4,3.25.95,6.61,1.77,9.99,2.05,2.52,1.31,4.61,3.45,6.66,5.39,3.6,3.43,9.05,8.35,14.15,4.94,3.13-2.15,5.3-5.89,9.15-6.89,2.42-.58,5.03-.27,7.49-.58,3.63-.21,7.22-1.11,10.82-1.53,2.47-.27,5.03-.04,7.49.22,4.99.41,10.13.05,14.98-1.2,2.32-.7,4.55-1.93,6.66-3.1,1.99-1.1,4.34-2.2,6.66-1.54,1.85.44,3.38,1.86,4.99,2.76.74-.1,1.76-.09,2.5.04,2.04-2.58,2.85-6.51,5.83-8.28,2.24-.99,4.63.47,6.66,1.35,1.93.92,3.98,1.87,5.83,2.97,2.33,1.26,4.93,2.15,7.49,2.82,2.71,1.01,5.49,2.14,8.32,2.75,1.32.26,2.82.39,4.16.36.41-.02,1.26-.04,1.66-.06.4.19,1.25.57,1.66.73"/><path class="b" d="M12.36,33.3c2.36-1.18,4.81-2.55,7.49-2.75,5.93-.33,11.85,1.09,17.48,2.82,2.96.89,6.06,1.63,9.15,1.88,2.71.75,4.63,3.37,6.66,5.2,3.51,3.62,8.93,9.19,14.15,5.34,4.15-3.21,6.44-7.85,12.48-7.44,3.6.1,7.26-.22,10.82-.77,2.74-.45,5.53-1.23,8.32-1.24,3.59.07,7.21.9,10.82.55,1.9-.43,3.88-1.09,5.83-1.33,4.78.04,8.5-4.85,13.32-3.99,2.25.49,3.82,2.53,5.83,3.46,3.09-3.39,4.69-12.71,10.82-9.94,4.4,2,8.71,4.33,13.32,5.85,4.16,1.42,8.29,3.09,12.48,4.4,1.85.64,3.97.59,5.83,1.14.71.46,1.73,1.03,2.5,1.38"/><path class="b" d="M12.36,31.08c3.96-2.4,7.07-3.04,11.65-2.54,2.2.18,4.49.49,6.66.94,2.78.67,5.56,1.65,8.32,2.39,11.17,2.89,6.16-1.06,14.98,7.59,3.8,3.15,8.19,8.64,13.32,4.48,2.37-1.84,4.14-4.54,6.66-6.19,2.42-1.73,5.51-1.48,8.32-1.31,2.75.01,5.59-.06,8.32-.34,3.35-.37,6.6-1.72,9.99-1.79,3.03-.11,6.15.88,9.15.35,1.85-.67,3.87-1.25,5.83-1.49,1.33-.22,2.91.08,4.16-.51,2.63-.92,5.49-2.47,8.32-1.62,1.12.32,2.2,1.28,3.33,1.54,1.73-.38,2.51-2.18,3.33-3.55,1.68-2.71,3.64-7.07,7.49-6.45,2.36.49,4.51,1.85,6.66,2.88,2.38,1.21,4.94,2.3,7.49,3.1,5.04,1.44,10.05,3.12,14.98,4.91,1.58.55,3.37.81,4.99,1.19.98.73,2.23,1.52,3.33,2.05"/><path class="b" d="M12.36,28.82c4.11-2.61,7.79-2.79,12.48-2.22,4.88.27,9.45,2.18,14.15,3.33,12.28,2.81,6.91-.37,15.81,8.7,1.69,1.67,3.84,2.95,5.83,4.21,2.19,1.45,4.78.94,6.66-.77,2.58-2.19,4.44-5.4,7.49-7.02,2.01-1.11,4.45-.96,6.66-.71,1.62.18,3.38.15,4.99.3,2.19.12,4.5.14,6.66-.27,1.94-.36,3.92-1.05,5.83-1.53,3.52-1.08,7.25-.14,10.82-.45,3.41-1.33,7.17-2.09,10.82-1.48,2.43-.55,5.14-.97,7.49.12.77-.4,1.77-1.01,2.5-1.49.44-.59,1.26-1.81,1.66-2.42,1.99-3.14,4.9-7.16,9.15-6.09,4.98,1.24,9.1,4.81,14.15,5.94,2.45.65,5.04,1.08,7.49,1.74,2.81.74,5.6,1.8,8.32,2.79,1.31.46,2.8.91,4.16,1.19,1.41.63,2.71,1.85,4.16,2.43"/><path class="b" d="M12.36,26.58c3.88-2.44,8.07-2.62,12.48-1.94,4.57.43,8.85,2.27,13.32,3.22,3.57.91,7.33,1.2,10.82,2.39,2.03,2.04,3.81,4.53,5.83,6.59,2.26,2.34,5.11,4.35,8.32,5.07,4.42.44,6.92-5.61,9.99-8.01,2.34-2.14,5.35-2.29,8.32-1.71,4.95.6,10.1,1.8,14.98.13,3.23-1.05,6.54-2.21,9.99-2.12,1.04-.03,2.29,0,3.33.03,2.65-.97,5.48-1.79,8.32-1.81,1.93-.02,3.95.36,5.83.79,2.32.75,2.68.07,4.16-1.63,4.26-5.85,8.03-10.02,15.81-7.04,3.39,1.43,6.4,3.85,9.99,4.84,3.8,1.05,7.86.94,11.65,2.05,3.38.89,6.62,2.43,9.99,3.36,1.39.66,2.69,1.87,4.16,2.41"/><path class="b" d="M12.36,24.38c3.25-1.88,7.12-2.52,10.82-1.88,4.77.79,9.41,2.42,14.15,3.4,2.18.45,4.46.89,6.66,1.26,1.06.14,2.3.41,3.33.71.78.19,1.84.41,2.5.91,1.98,2.21,3.76,4.8,5.83,6.93,2.36,2.5,5.62,4.45,9.15,4.33,1.32-.13,2.47-1.27,3.33-2.19,8-10.62,7.59-8.85,19.97-6.56,3.01.56,6.21.59,9.15-.36,2.21-.66,4.42-1.64,6.66-2.19,2.14-.58,4.47-.53,6.66-.76,2.93-.97,6.04-1.8,9.15-1.66,1.65-.02,3.36.66,4.99.61,2.23-2.06,3.88-5.02,6.66-6.41,3.29-1.62,7.17-2.63,10.82-1.85,2.45.54,4.58,2.11,6.66,3.43,2.45,1.65,5.34,2.8,8.32,2.85,3.61.06,7.34-.01,10.82,1.11,2.8.86,5.59,2.01,8.32,3.03.96.74,2.2,1.53,3.33,1.97"/><path class="b" d="M12.36,22.23c8.12-4.03,11.55-1.1,19.14,1.23,2.15.52,4.46.68,6.66.87,3.86.75,7.82,1.24,11.65,2.13,4.95,5.14,8.74,14.11,17.48,10.55,2.88-2.57,4.33-6.62,7.49-8.91,2.23-1.63,5.08-.89,7.49-.14,3.31.75,6.59,1.97,9.99,2.25,5.89.53,10.91-3.46,16.64-3.96,1.98,0,3.92-.8,5.83-1.23,2.69-.66,5.58-.91,8.32-.38,1.05-.13,1.79-1.38,2.5-2.05.91-.98,2.1-2.09,3.33-2.65.72-.29,1.75-.55,2.5-.76,3.73-.92,7.87-3.15,11.65-1.39,2.61,1.19,5.19,2.65,7.49,4.37,2.17,1.46,4.89,2.08,7.49,1.81,3.02-.28,6.14-.81,9.15-.23,3.17.54,6.17,1.98,9.15,3.12,1,.65,2.21,1.49,3.33,1.93"/><path class="b" d="M12.36,20.13c3.09-1.44,6.69-2.58,9.99-1.16,1.05.37,2.33.68,3.33,1.17,1.31.72,2.76,1.55,4.16,2.09,2.63,1.01,5.55.99,8.32.89,2.8-.26,5.57.62,8.32,1.01,1.33.29,2.91.06,4.16.64,2.54,2.89,4.55,6.44,7.49,8.97,3.58,3.3,8.54,1.58,11.65-1.48,2.08-2.76,3.76-6.84,7.49-7.57,1.68-.2,3.42.46,4.99.97,2.51.7,4.96,1.86,7.49,2.5,3.26.94,6.8.64,9.99-.42,2.22-.71,4.41-1.82,6.66-2.47,1.85-.64,3.94-.74,5.83-1.22,2.16-.57,4.43-1.16,6.66-1.39,1.33-.22,2.86.12,4.16-.21,2.63-2.83,3.66-3.48,7.49-3.88,2.53-.59,4.97-1.78,7.49-2.41,2.71-.9,5.25.92,7.49,2.22,1.56,1.04,3.54,1.66,4.99,2.84,2.1,1.62,4.86,2.45,7.49,1.95,2.75-.45,5.51-1.42,8.32-1.41,4.81.03,9.24,2.42,13.32,4.72"/><path class="b" d="M12.36,18.03c3.49-1.49,4.58-2.35,8.32-.68,1.3.53,2.78,1.05,4.16,1.33,1.09.58,2.24,1.5,3.33,2.09,1.99,1.12,4.38,1.61,6.66,1.54,2.21,0,4.46-.72,6.66-.67,3.01.58,6.08,1.3,9.15,1.4,2.79,2.49,4.86,5.79,7.49,8.42,5.41,5.37,11.42-2.22,14.98-6.15,2.6-3.6,5.27-3.65,9.15-2.1,7.12,3.47,11.19,5.37,19.14,2.61,2.18-.81,4.41-1.79,6.66-2.39,1.59-.5,3.39-.66,4.99-1.09,2.98-.71,6.07-1.47,9.15-1.38,2.98-2.75,3.57-2.8,7.49-2.88,2.31-.43,4.48-1.64,6.66-2.45,2.91-1.33,4.89-.93,7.49.8,2.14,1.33,4.46,2.55,6.66,3.78,2.49,2.19,6,2.96,9.15,1.9,8.84-3.34,11.88-2.66,19.97,2.08"/><path class="b" d="M12.36,15.86c2.96-2.4,5.39-.66,8.32.63,1.28.56,2.81.86,4.16,1.17.99.81,2.2,1.72,3.33,2.31,2.27,1.17,4.97,1.59,7.49,1.25,1.65-.21,3.38-.7,4.99-1.1,1.36-.06,2.83.46,4.16.69,1.88.44,3.9.71,5.83.85,1.25.82,2.27,2.33,3.33,3.37,1.25,1.4,2.9,2.69,4.16,4.06,3.29,3.52,6.25,1.99,9.15-.98,2.97-2.75,5.12-6.99,9.15-8.3,3-.81,5.81,1.1,8.32,2.49,2.33,1.28,4.84,2.54,7.49,2.96,5.5.75,10.68-1.75,15.81-3.29,1.86-.6,3.92-.86,5.83-1.29,2.45-.52,4.99-1.08,7.49-1.24.51-.08,1.31-.6,1.66-.97.66-.5,1.67-1.03,2.5-1.14,1.04-.12,2.29.08,3.33.11,2.36-.19,4.52-1.55,6.66-2.48,3.22-1.57,5.09-2.03,8.32-.07,1.95,1.04,3.97,2.26,5.83,3.46.68.65,1.7,1.47,2.5,1.97,2.45,1.61,5.62,1.63,8.32.68,8.64-3.58,10.75-4.24,19.14.85"/><path class="b" d="M12.36,13.35c1.97-1.11,4.08.09,5.83,1.06,1.53.83,3.27,1.53,4.99,1.82,1.61.05,2.77,1.61,4.16,2.25,4.27,2.38,8.93,1.71,13.32.07,3.33.45,6.62,1.51,9.99,1.72,1.35.64,2.26,2.3,3.33,3.3,1.45,1.54,3.17,3.08,4.99,4.16.99.56,2.13,1.37,3.33,1.25,2.57-.51,4.24-3.02,5.83-4.9,4.02-5.2,7.3-10.13,14.15-5.44,3.11,1.89,6.3,4.11,9.99,4.63,3.92.38,7.92-.62,11.65-1.72,4.04-1.35,8.3-2.02,12.48-2.78,1.61-.3,3.36-.58,4.99-.75.76-.38,1.71-1.08,2.5-1.42,1.56-.66,3.37-.09,4.99-.02,2.07-.11,4-1.27,5.83-2.14,1.84-.85,3.77-2.03,5.83-2.24,3.49.11,6.49,2.56,9.15,4.59,2.57,2.62,6.32,4.1,9.99,3.61,2.1-.26,3.95-1.6,5.83-2.45,5.92-2.69,8.82-1.68,14.15,1.62"/><path class="b" d="M12.36,11.27c1.12-.25,2.35.19,3.33.71,1.32.67,2.78,1.39,4.16,1.93,1.3.5,2.78.97,4.16,1.21,2.3,1.42,4.83,2.67,7.49,3.23,2.2.47,4.55.02,6.66-.64.75-.23,1.71-.64,2.5-.69.44.07,1.23.2,1.66.27,1.92.32,3.9.85,5.83,1.12,3.22.38,2.98.24,4.99,2.72,2.02,2.3,4.49,4.53,7.49,5.41,3.04,1.13,5.08-2.28,6.66-4.33,1.79-2.45,3.49-5.27,5.83-7.25,2.97-2.49,6.45-.52,9.15,1.33,2.11,1.37,4.32,2.82,6.66,3.77,3.72,1.54,7.83.61,11.65.04,2.48-.43,5-1.12,7.49-1.51,4.14-.67,8.34-1.25,12.48-1.9.86.03,1.76-.68,2.5-1.04.69-.34,1.72-.6,2.5-.58,1.34.07,2.81.46,4.16.38,2.68-.42,5.06-2.09,7.49-3.2,1.28-.61,2.73-1.36,4.16-1.48,5.18.19,8.35,5.22,12.48,7.69,2.65,1.8,6.16,2.51,9.15,1.17,2.48-.99,4.47-3.02,6.66-4.48,3.7-1.38,6.88.13,9.99,2.14"/><path class="b" d="M12.36,9.57c1.71.25,3.39,1.1,4.99,1.69,2.16.81,4.42,1.66,6.66,2.24,3.13,1.5,6.46,3.19,9.99,3.35,1.98-.07,3.98-.76,5.83-1.41,1.06,0,2.29.2,3.33.35,2.46.44,5.01.9,7.49,1.23,1.39.59,2.23,2.37,3.33,3.37,1.95,2.11,4.54,3.96,7.49,4.13,4.38.48,7.81-10.39,11.65-12.82,2.71-1.99,5.92,0,8.32,1.55,2.38,1.48,4.83,3.12,7.49,4.08,2.66.91,5.58.62,8.32.37,3.04-.18,6.13-.57,9.15-.87,4.72-.32,9.47-.82,14.15-1.57.82,0,1.75-.62,2.5-.92.99-.41,2.26-.61,3.33-.49,1.33.15,2.82.5,4.16.35,3.86-.82,7.06-3.59,10.82-4.72,2.49-.53,4.87,1.07,6.66,2.64,3.66,3.21,7.23,7.68,12.48,7.87,4.8.22,8.07-3.82,11.65-6.34,2.47-1.52,5.32.04,7.49,1.39"/><path class="b" d="M12.36,8.08c4.26.8,8.41,2.39,12.48,3.85,3.18,1.29,6.48,3.01,9.99,3,1.69-.08,3.39-.74,4.99-1.23,1.05.06,2.29.14,3.33.27,2.47.34,5.02.73,7.49,1.05.99.47,1.78,1.77,2.5,2.55,2.06,2.46,4.89,4.94,8.32,4.67,2.44.05,3.81-2.44,4.99-4.22,1.81-2.93,3.31-6.39,5.83-8.81,2.5-2.39,5.82-.73,8.32.75,2.15,1.21,4.39,2.48,6.66,3.45,2.61,1.1,5.55,1.01,8.32,1.01,2.19,0,4.47.19,6.66.23,6.11.29,12.27.09,18.31-.96,1.38-.18,2.76-1.01,4.16-1.13,1.92-.23,3.91.38,5.83.34,3.88-.46,7.27-3.15,10.82-4.65,5.1-1.85,8.88,4.92,12.48,7.54,3.33,2.97,8.29,4.5,12.48,2.48,2.5-1.19,4.52-3.33,6.66-5.04,1.96-1.86,4.4-1.78,6.66-.44"/></svg>