<?xml version="1.0" encoding="UTF-8"?><svg id="a" xmlns="http://www.w3.org/2000/svg" width="1920" height="2400" viewBox="0 0 192 240"><defs><style>.b{fill:none;stroke:#fff;stroke-miterlimit:10;stroke-width:.3px;}.c{stroke-width:0px;}</style></defs><rect class="c" width="192" height="240"/><path class="b" d="M7.85,220.4c5.88-1.22,12.1.66,16.66,4.48.86.71,1.93,1.8,2.63,2.67.31.54,1.14,1.53,1.75,1.74,1.71-.03,3.56.08,5.26-.08,1.28-.74,2.91-1.13,4.39-1.08,1.16.04,2.5.4,3.51.98,1.38.33,2.98.12,4.39.17,3.62-5.33,10.39-7.82,16.66-7.61,3.59.09,6.99,1.64,10.52,2.14,4.03.7,8.2.77,12.28.5,8.74-.61,17.54-2.12,26.31-1.05,6.06.64,10.78,2.59,15.79,5.99,6.12,0,12.31.18,18.42-.08,10.57-7.14,24.85-13.23,37.71-9.87"/><path class="b" d="M7.85,217.82c7.97-1.56,16.95,2.12,21.05,9.22,1.09.17,2.41.08,3.51.1,1.21-.44,2.26-1.64,3.51-2.05,3.46-1.35,7.99-.93,10.52,1.99.78.07,1.85.06,2.63.06,2.91-5.18,9.2-7.57,14.91-7.62,3.82.07,7.57,1.33,11.4,1.35,4.67.23,9.38-.17,14.03-.54,13.08-1.11,27.69-1.73,38.59,6.81h19.3c9.27-7.92,24.72-13.6,36.84-10.5"/><path class="b" d="M7.85,215.48c6.14-1.17,12.76.56,17.54,4.58.88.74,1.95,1.89,2.63,2.81.31.6,1.16,1.77,1.75,2.13.79,0,1.87.06,2.63-.22,4.06-5.38,13.68-5.4,17.54.22.44.03,1.32-.04,1.75-.13,2.37-4.84,8.01-7.16,13.16-7.41,2.02-.11,4.13.32,6.14.41,2.9.16,5.88.06,8.77-.12,10.49-.78,21.15-2.05,31.57,0,3.61.7,7.24,1.79,10.52,3.47,1.16.59,2.47,1.42,3.51,2.2.76.51,1.64,1.56,2.63,1.57,2.3,0,4.71,0,7.02,0,1.71-.28,3.5-.91,5.26-.82,1.46-.05,2.99.5,4.39.82,1.4-.02,2.98.04,4.39-.04,7.36-8.42,24.23-13.61,35.08-10.74"/><path class="b" d="M7.85,213.35c6.09-1.11,12.71.38,17.54,4.31,1.8,1.32,2.96,3.54,4.39,5.19h1.75c2.28-3.53,6.37-5.45,10.53-5.42,4.03-.04,8.65,1.48,10.52,5.33l.88.1c.67-.25,1.46-1.47,1.75-2.08.44-.51,1.23-1.45,1.75-1.86,3.64-3.07,8.56-3.72,13.16-3.41,5.57-.05,11.13-.89,16.66-1.35,11.19-.97,23-.66,33.33,4.19,1.49.72,3.08,1.66,4.39,2.68.78.56,1.62,1.68,2.63,1.82,1.4,0,2.98,0,4.39,0,.9-.04,1.84-.81,2.63-1.15,1.62-.73,3.5-1.2,5.26-1.39,2.66-.26,5.59-.03,7.89,1.42.33.36,1.29.95,1.75,1.12.42,0,1.33,0,1.75,0,6.94-8.94,22.46-13.43,33.33-10.83"/><path class="b" d="M7.85,211.46c6.05-1.07,12.69.2,17.54,4.08.9.72,1.96,1.89,2.63,2.83.3.65,1.15,1.93,1.75,2.33h.88c1.02-.67,1.73-2.2,2.63-3,1.21-1.12,2.83-2.04,4.39-2.58,6.15-2.06,14.37-.59,17.54,5.58h.88c2.55-5.07,7.69-7.22,13.16-7.22,3.21-.23,6.46-.72,9.65-1.16,13.43-2.02,27.86-2.4,40.35,3.69,2.21,1.11,4.45,2.55,6.14,4.38.73.39,1.83.31,2.63.31.82,0,1.92.1,2.63-.39,5.02-4.1,17.17-5.98,21.05.38.47.08,1.33-.08,1.75-.3,2.13-4.06,6.46-6.46,10.52-8.22,6.32-2.6,13.46-3.63,20.17-2.12"/><path class="b" d="M7.85,209.79c7.72-1.33,17.76.87,21.05,8.77.48.08,1.33-.1,1.75-.33,4.29-9.43,21.94-9.22,26.31,0l.88.32c.59-.39,1.44-1.61,1.75-2.25,1.5-1.94,3.8-3.3,6.14-3.97,4.64-.92,9.38-1.65,14.03-2.55,9.25-1.64,18.88-2.02,28.07.19,4.26,1.02,8.5,2.52,12.28,4.76,1.55.93,3.18,2.15,4.39,3.51,1.32.57,2.98.21,4.39.31,5.34-5.63,21.3-8.37,25.44-.23l.88.23c.9-.96,1.71-2.57,2.63-3.51.98-1.02,2.31-2.05,3.51-2.79,6.74-4.06,15.1-5.57,22.8-3.91"/><path class="b" d="M7.85,208.35c5.64-.95,11.94-.25,16.66,3.17.91.67,1.98,1.79,2.63,2.72.31.65.97,1.93,1.75,2.17l.88-.14c4.4-10.68,24.03-10.22,28.94-.23l.88.37.88-.4c2.48-5.44,8.98-5.76,14.03-7.21,8.27-2.11,16.9-3.37,25.43-2.4,6.07.68,12.11,2.33,17.54,5.15,2.21,1.17,4.46,2.65,6.14,4.52,1.31.61,2.98.24,4.39.33,5.95-6.61,24.84-10,28.94,0h.88c3.9-8.96,17.63-11.51,26.31-9.55"/><path class="b" d="M7.85,207.14c6.79-1.13,16-.15,19.3,6.8l.88.32.88-.47c5.27-11.36,26.16-10.29,31.57.47.45.05,1.32-.06,1.75-.2,1.34-2.77,4.16-4.42,7.02-5.25,1.99-.7,4.11-1.41,6.14-2.02,8.47-2.58,17.52-3.72,26.31-2.29,5.49.88,10.92,2.63,15.79,5.36,1.87,1.06,3.79,2.4,5.26,3.97,1.25.78,2.98.31,4.39.43,1.47-.91,2.82-2.36,4.39-3.15,4-2.25,8.58-3.59,13.16-3.85,5.86-.33,12.2,1.31,14.91,7l.88-.41c3.54-8.14,15.88-10,23.68-8.23"/><path class="b" d="M7.85,206.18c4.64-.82,9.8-.59,14.03,1.65,1.85.9,3.07,2.8,4.39,4.28h.88c4.53-8.68,15.92-10.58,24.56-7.62,2.89.97,5.73,2.52,7.89,4.7.86.81,1.56,2.36,2.63,2.93.44.01,1.32-.02,1.75-.06,1.29-2.34,3.77-3.68,6.14-4.69,2.82-1.28,5.8-2.4,8.77-3.27,14.73-4.52,32.02-2.2,43.85,8.03h4.39c5.97-5.17,14.01-8.04,21.93-7.52,4.79.36,10.24,2.29,12.28,7l.88.52c1.21-1.23,2.06-3.17,3.51-4.2,5.14-3.98,12.22-4.63,18.42-3.26"/><path class="b" d="M7.85,205.47c4.33-.82,9.23-.66,13.16,1.5.48.28,1.36.99,1.75,1.38.54.84,1.52,1.86,2.63,1.6.99-.83,1.74-2.43,2.63-3.35,2.33-2.47,5.52-4.12,8.77-5.01,7.07-1.9,14.93-.53,21.05,3.45,1.21.8,2.54,1.92,3.51,3,.35.53,1.25,1.52,1.75,1.9h2.63c3.68-4.05,9.8-6.29,14.91-7.98,9.1-2.8,19.08-2.67,28.07.52,4.73,1.7,9.47,3.97,13.16,7.46,1.1,0,2.41,0,3.51,0,.81,0,1.89.09,2.63-.31,2.5-2.33,5.62-4.04,8.77-5.31,8.98-3.7,21.77-3.74,27.19,5.63h.88c3.78-6.62,12.48-7.7,19.3-5.98"/><path class="b" d="M7.85,205.03c4.15-.89,10.08-.69,13.16,2.59.77.24,1.84.19,2.63.19,7.74-11.84,25.38-11.71,35.96-3.83.84.62,1.91,1.56,2.63,2.31.41.48,1.13,1.33,1.75,1.52,1.1,0,2.41,0,3.51,0,.95-.3,1.84-1.33,2.63-1.89,6.11-4.4,13.57-6.93,21.05-7.57,8.51-.7,17.13,1.5,24.56,5.62,1.13.63,2.45,1.44,3.51,2.19.77.52,1.69,1.48,2.63,1.66,2.01,0,4.13,0,6.14,0,1.27-.47,2.35-1.75,3.51-2.43,9.96-6.86,26.8-9.09,34.21,2.43h1.75c3.51-5.41,10.99-5.84,16.66-4.18"/><path class="b" d="M7.85,204.87c2.83-.79,6.09-.49,8.77.67,1.68.18,3.59.26,5.26-.06,3.47-5.27,9.68-8.24,15.79-9.11,9.57-1.27,19.55,2.49,26.31,9.29h6.14c6.67-5.9,15.7-9,24.56-9.09,9.49-.07,18.64,3.68,26.31,9.09,2.89-.05,5.88.11,8.77-.08,8.59-7.55,22.24-11.01,32.45-4.75,1.23.77,2.56,1.9,3.51,3,.31.54,1.2,1.53,1.75,1.83h2.63c3.64-3.72,9.44-3.75,14.03-1.94"/><path class="b" d="M7.85,203.51h11.4c1.29-.82,2.3-2.4,3.51-3.34,2.3-1.98,5.05-3.57,7.89-4.62,11.76-4.42,24.12.29,33.33,7.96,12.84.12,5.48.34,15.79-4.87,10.9-5.45,23.58-4.45,34.21,1.17,1.44.73,3.01,1.61,4.39,2.45.77.44,1.69,1.28,2.63,1.25,2.01,0,4.13,0,6.14,0,1.4-.06,3.02.18,4.39-.2,10.22-9.06,27.52-11.22,36.84.2,1.71,0,3.55,0,5.26,0,1.07-.41,2.36-.85,3.51-.92,1.11-.08,2.43.06,3.51.35.44.13,1.32.42,1.75.57.43,0,1.32,0,1.75,0"/><path class="b" d="M7.85,201.37h9.65c1.55-1.06,2.83-2.8,4.39-3.88,4.03-3.12,8.96-5.15,14.03-5.7,10.02-1.21,19.46,3.65,27.19,9.58h11.4c10.24-8.48,23.85-10.14,35.96-4.77,3.02,1.27,5.97,2.91,8.77,4.59,1.67.38,3.56.11,5.26.18,2.9-.02,5.88.04,8.77-.03,8.39-7.58,21.89-10.12,31.57-3.51.83.56,1.9,1.43,2.63,2.13.6.73,1.6,1.64,2.63,1.41,4.66,0,9.37,0,14.03,0"/><path class="b" d="M7.85,199.22c2.89-.1,5.91.23,8.77-.16,6.49-7.24,16.69-11.08,26.31-9.21,6.88,1.22,13.03,4.96,18.42,9.25,2.88.28,5.88.04,8.77.12,1.41,0,2.98,0,4.39,0,.81,0,1.88.08,2.63-.3,8.18-6.79,19.81-8.74,29.82-5.26,3.68,1.2,7.2,3.03,10.52,4.99.68.6,1.78.61,2.63.57,1.1,0,2.41,0,3.51,0,3.78,0,7.62,0,11.4,0,1.27-.42,2.36-1.66,3.51-2.32,1.88-1.23,4.02-2.28,6.14-3.01,7.99-2.84,17.57-1.19,23.68,4.83.65.6,1.81.51,2.63.49,1.09,0,2.41,0,3.51,0,3.19,0,6.46,0,9.65,0"/><path class="b" d="M7.85,197.07c1.41,0,2.98,0,4.39,0,1.1-.04,2.45.15,3.51-.24,7.47-8.08,19.26-11.8,29.82-8.16,3.1,1,6.09,2.56,8.77,4.4,1.82,1.16,3.46,2.84,5.26,4,6.42-.02,12.88.05,19.3-.03,11.36-9.34,26-8.13,37.71-.14,2.27.38,4.72.07,7.02.17,4.07,0,8.21,0,12.28,0,.43,0,1.32,0,1.75,0,.91-.26,1.85-1.14,2.63-1.65,1.6-1.06,3.46-2.01,5.26-2.67,7.65-2.89,16.79-1.27,22.8,4.31h15.79"/><path class="b" d="M7.85,194.92h7.02c4.6-4.47,10.23-8.15,16.66-9.15,9-1.57,18.63,2.05,24.56,8.96,1.08.32,2.4.16,3.51.19,1.71,0,3.55,0,5.26,0,4.95,0,9.96,0,14.91,0,1.7.2,2.97-1.53,4.39-2.22,1.89-1.13,4.03-2.07,6.14-2.68,4.83-1.41,10.09-1.35,14.91.08,2.1.62,4.24,1.55,6.14,2.65,1.14.61,2.31,1.66,3.51,2.17,8.76,0,17.55,0,26.31,0,5.74-4.18,13.42-5.72,20.17-3.21,1.48.53,3.06,1.31,4.39,2.17.71.51,1.7,1.23,2.63,1.04,5.25,0,10.54,0,15.79,0"/><path class="b" d="M7.85,192.77h7.02c8.06-8.32,20-11.89,30.7-6.44,1.89.96,3.77,2.3,5.26,3.81,1.03.95,1.8,2.98,3.51,2.63.78,0,1.85,0,2.63,0,.77-.18,1.83-.44,2.63-.45,1.12-.05,2.4.39,3.51.45,6.71-.06,13.47.13,20.17-.08,6.01-4.91,14.6-6.41,21.93-3.84,1.49.52,3.07,1.29,4.39,2.16,1.06.68,2.11,2.02,3.51,1.76,7.3,0,14.63,0,21.93,0,3.48-.11,7.07.23,10.52-.15,1.6-.92,3.47-1.67,5.26-2.09,2.85-.67,5.92-.66,8.77.02,1.13.27,2.45.72,3.51,1.2.77.34,1.74,1.05,2.63,1.02,6.13,0,12.29,0,18.42,0"/><path class="b" d="M7.85,190.62c2.3,0,4.71,0,7.02,0,.67-.06,1.37-.71,1.75-1.2.43-.42,1.29-1.22,1.75-1.59,1.57-1.29,3.43-2.47,5.26-3.33,8.98-4.31,20.65-2.53,26.31,6.12h1.75c2.5-3.09,7.03-3.24,10.52-1.96.82.29,1.88.8,2.63,1.24.43.33,1.2.72,1.75.72,3.19,0,6.46,0,9.65,0,2.9,0,5.87,0,8.77,0,4.41-3.05,9.49-4.87,14.91-4.18,3.2.39,6.5,1.59,8.77,3.95,1.35.38,3.01.29,4.39.07.68-.64,1.77-1.33,2.63-1.7,4.33-1.91,9.4-.83,13.16,1.86,7.01,0,14.04,0,21.05,0,2.03.1,4.09-.72,6.14-.6,1.43,0,3,.27,4.39.6,1.1,0,2.41,0,3.51,0,6.71,0,13.46,0,20.17,0"/><path class="b" d="M7.85,188.48c1.71,0,3.55,0,5.26,0,1.11-.05,2.47.18,3.51-.29,4.8-5.71,12.89-8.45,20.17-6.83,3.91.87,7.86,3.11,9.65,6.84.43.2,1.29.35,1.75.28,2.41-4.19,7.96-4.98,12.28-3.76,2.61.63,4.87,2.25,7.02,3.76,6.13,0,12.29,0,18.42,0,.89.14,1.95-.33,2.63-.88,1.04-.64,2.35-1.25,3.51-1.63,4.61-1.5,10.48-1.28,14.03,2.38,1.09.2,2.42.2,3.51,0,2.86-3.61,7.81-5.06,12.28-4.71,3.15.27,6.17,1.66,8.77,3.39.45.3,1.33.95,1.75,1.29,1.08.28,2.41.14,3.51.17,2.6,0,5.29,0,7.89,0,13.44,0,26.9,0,40.35,0"/><path class="b" d="M7.85,185.02c1.12.3,2.44.75,3.51,1.21,2,.21,4.13.05,6.14.09,5.96-8.05,21.16-9.66,26.31,0,.48.08,1.33-.11,1.75-.35,4.69-7.61,16.52-5.8,21.93.11,1.65.49,3.56.14,5.26.24,2.9,0,5.87,0,8.77,0,2.3,0,4.71,0,7.02,0,1.21-.15,2.34-1.16,3.51-1.51,2.48-.93,5.32-1.2,7.89-.54,1.22.31,2.57,1,3.51,1.85,1.06.34,2.41.17,3.51.21,3.25-4.68,9.37-6.8,14.91-6.45,5.22.46,10,3.24,14.03,6.44,16.07.04,32.16,0,48.24.01"/><path class="b" d="M7.85,181.19c2.11.56,4.49,1.06,6.14,2.6,1.27.72,2.98.28,4.39.39.95-.49,1.8-1.67,2.63-2.31,1.26-1.01,2.86-1.88,4.39-2.4,5.5-1.94,12.78-.73,15.79,4.71h1.75c4.89-8.82,18.89-7.52,24.56-.14,1.69.28,3.56.08,5.26.14,1.07-.38,2.36-.8,3.51-.79,1.48-.1,2.96.65,4.39.79,2.9,0,5.87,0,8.77,0,1.91.23,3.39-1.07,5.26-1.29,2.05-.34,4.35-.12,6.14.99.41.21,1.29.37,1.75.3.79,0,1.87.06,2.63-.2,3.5-4.97,9.83-7.52,15.79-7.52,6.1.19,11.73,3.3,16.66,6.65.41.33,1.27.88,1.75,1.08.78,0,1.85,0,2.63,0,2.3,0,4.71,0,7.02,0,11.69,0,23.4,0,35.08,0"/><path class="b" d="M7.85,177.71c2.86.66,5.96,1.47,7.89,3.85,1.17.84,2.98.35,4.39.47,4.34-5.52,14.39-6.21,18.42,0h1.75c1.04-.56,1.76-2.02,2.63-2.78,1.93-1.77,4.47-2.95,7.02-3.49,4.45-.94,9.32-.13,13.16,2.35,1.74.98,2.86,2.77,4.39,3.91,1.11-.05,2.48.2,3.51-.31.41-.33,1.26-.89,1.75-1.08,3.21-1.35,6.78-.27,9.65,1.4,3.19,0,6.46,0,9.65,0,1.12.09,2.39-.42,3.51-.47,1.13-.1,2.42.24,3.51.47,1.4,0,2.98,0,4.39,0,4.03-5.06,10.16-8.38,16.66-8.62,6.95-.14,13.42,3.34,19.3,6.72,1.11.59,2.26,1.64,3.51,1.91,2.6,0,5.29,0,7.89,0,11.1,0,22.23,0,33.33,0"/><path class="b" d="M7.85,174.52c4.03.89,7.02,1.99,9.65,5.36,1.41-.09,3.05.25,4.39-.28.69-.68,1.75-1.44,2.63-1.84,3.71-1.73,8.74-1.2,11.4,2.12.78,0,1.85,0,2.63,0,.96-.64,1.78-1.99,2.63-2.74,1.72-1.56,3.92-2.74,6.14-3.41,4.92-1.49,10.56-.9,14.91,1.92,1.74,1.01,2.99,2.86,4.39,4.23.44,0,1.31,0,1.75,0,1.23-.57,2.19-1.95,3.51-2.39,3.8-1.54,8.27-.32,11.4,2.13.75.34,1.83.27,2.63.27,1.41,0,2.98,0,4.39,0,4.07,0,8.21,0,12.28,0,4.22-5.36,10.69-8.92,17.54-9.24,7.93-.18,16.72,4.51,23.68,8.06.77.4,1.76,1.05,2.63,1.18,1.41,0,2.98,0,4.39,0,3.49,0,7.04,0,10.52,0,7.59,0,15.21,0,22.8,0"/><path class="b" d="M7.85,171.6c4.43,1,7.71,2.41,10.52,6.13,1.7-.11,3.63.28,5.26-.27,2.88-2.03,6.84-1.74,9.65.27,1.41-.12,3.17.37,4.39-.45,4.67-6.31,13.94-8.2,21.05-5.29,1.55.64,3.16,1.64,4.39,2.8.87.8,1.64,2.27,2.63,2.94.47.06,1.33-.08,1.75-.27,2.53-4.1,8.16-4.44,12.28-2.78,1.18.46,2.49,1.19,3.51,1.93.7.61,1.66,1.31,2.63,1.12,4.95,0,9.96,0,14.91,0,1.15.23,2.06-.71,2.63-1.57.99-1.12,2.3-2.32,3.51-3.21,5.46-3.98,12.67-5.95,19.3-4.16,7.9,1.93,15.41,5.27,22.8,8.59,1.3.63,2.98.24,4.39.34,2.6,0,5.29,0,7.89,0,7.59,0,15.21,0,22.8,0"/><path class="b" d="M7.85,168.93c3.13.81,6.38,1.88,8.77,4.16.82.71,1.65,1.98,2.63,2.49,2.9,0,5.88.04,8.77-.14,2.58.31,5.3.06,7.89.14,6.19-8.57,22.38-10.19,28.07-.34.42.23,1.27.42,1.75.34,3.14-5.33,9.74-5.77,14.91-3.31,1.18.55,2.5,1.37,3.51,2.19.62.69,1.67,1.29,2.63,1.12,4.95,0,9.96,0,14.91,0,1.52-1.23,2.77-3.07,4.39-4.22,3.99-3.13,8.95-5.17,14.03-5.46,4.18-.22,8.29,1.15,12.28,2.24,5,1.49,9.99,3.2,14.91,4.94,1.41.51,2.99,1.09,4.39,1.64,1.06.47,2.32,1,3.51.86,9.64,0,19.3,0,28.94,0"/><path class="b" d="M7.85,166.49c5.25,1.41,7.74,2.97,11.4,6.95,3.19,0,6.46,0,9.65,0,1.1,0,2.41,0,3.51,0,.83.01,1.93.1,2.63-.44,6.74-8.11,22.41-9.57,28.07.44.51.1,1.34-.14,1.75-.44,4.41-7.79,15.83-5.24,21.05.36,5.24.19,10.54.01,15.79.07,1.54-.98,2.77-2.94,4.39-4.05,3.53-2.77,7.83-4.67,12.28-5.29,4.14-.67,8.28.53,12.28,1.47,8.81,2.33,17.79,4.33,26.31,7.6,1.05.44,2.4.22,3.51.27,2.01,0,4.13,0,6.14,0,5.83,0,11.71,0,17.54,0"/><path class="b" d="M7.85,164.27c2.77.88,5.64,1.93,7.89,3.82,1.22.88,2.24,2.4,3.51,3.2h14.03c4.68-4.75,10.79-7.52,17.54-6.76,3.17.35,6.4,1.52,8.77,3.7.9.81,1.69,2.29,2.63,3.06h.88c1.1-1.18,2.11-2.86,3.51-3.75,3.55-2.48,8.31-2.43,12.28-1.06,1.84.63,3.7,1.63,5.26,2.79.79.58,1.73,1.59,2.63,2.01,5.24-.08,10.55.15,15.79-.09,4.23-5.24,10.83-8.56,17.54-8.97,3.56-.21,7.07.91,10.52,1.58,7.58,1.7,15.29,2.95,22.8,4.91,1.73.47,3.58,1.03,5.26,1.65,1.07.4,2.32,1.06,3.51.92,7.3,0,14.63,0,21.93,0"/><path class="b" d="M7.85,162.26c4.03,1.28,7.9,3.46,10.52,6.85,4.66.04,9.37.03,14.03,0,4.52-5.07,11.72-7.59,18.42-6.45,3.82.65,7.78,2.59,9.65,6.14.42.22,1.28.4,1.75.32,5.41-9.13,18.12-6.63,24.56,0,3.49,0,7.04,0,10.52,0,1.1,0,2.41,0,3.51,0,.82,0,1.9.09,2.63-.35,4.77-5.32,12.13-8.52,19.3-7.94,4.38.68,8.75,1.8,13.16,2.38,6.13.93,12.36,1.51,18.42,2.85,3.3.67,6.53,1.83,9.65,3.06,6.71,0,13.46,0,20.17,0"/><path class="b" d="M7.85,160.48c3.65,1.32,7.16,3.37,9.65,6.41,2.88.25,5.88.04,8.77.1,1.1,0,2.41,0,3.51,0,1.02.16,2.02-.37,2.63-1.16,4.64-4.28,11.32-6.29,17.54-5.14,3.85.69,7.78,2.72,9.65,6.3h1.75c5.72-8.99,18.74-6.8,25.44-.12,3.17.29,6.46.04,9.65.12,1.41,0,2.98,0,4.39,0,1.1-.04,2.44.14,3.51-.21,4.28-4.45,10.48-7.15,16.66-7.15,2.36-.02,4.72.72,7.02,1.15,3.16.62,6.44,1.01,9.65,1.24,9.45.66,19.35.72,28.07,4.87,6.11.28,12.3.02,18.42.11"/><path class="b" d="M7.85,158.91c3.31,1.3,6.3,3.38,8.77,5.94h13.16c1.16-.8,2.32-2.03,3.51-2.81,2.09-1.45,4.54-2.56,7.02-3.17,6.51-1.59,14.7-.08,18.42,5.98h1.75c.95-.6,1.76-1.92,2.63-2.61.99-.82,2.32-1.59,3.51-2.07,6.82-2.75,14.87-.18,20.17,4.55,2.28.31,4.72.06,7.02.14,3.78,0,7.62,0,11.4,0,1.49-.84,2.85-2.23,4.39-3.01,3.69-2.1,8.02-3.29,12.28-2.98,2.94.3,5.82,1.42,8.77,1.69,6.69.82,13.47-.12,20.17.32,3.83.22,7.72.76,11.4,1.83,1.12.33,2.43.78,3.51,1.23.77.31,1.76.95,2.63.91,5.25,0,10.54,0,15.79,0"/><path class="b" d="M7.85,157.56c1.81.88,3.71,1.95,5.26,3.24.79.59,1.57,1.81,2.63,1.9,2.6,0,5.29,0,7.89,0,1.7-.09,3.61.23,5.26-.22,4.68-4.84,11.77-7.24,18.42-6.13,4.08.68,8.31,2.64,10.52,6.28.78.1,1.85.08,2.63.08,6.38-8.23,19.16-6.08,26.31,0,4.37,0,8.79,0,13.16,0,1.41,0,2.98,0,4.39,0,1.11-.04,2.44.15,3.51-.22,2.56-1.9,5.64-3.22,8.77-3.81,2.28-.42,4.75-.46,7.02.08,2.55.79,5.21,1.62,7.89,1.73,6.46.21,12.83-1.59,19.3-1.5,6.33-.13,12.66,1.1,18.42,3.72,4.95,0,9.96,0,14.91,0"/><path class="b" d="M7.85,156.44c1.15.62,2.46,1.46,3.51,2.24.79.56,1.64,1.64,2.63,1.86,4.37,0,8.79,0,13.16,0,6.19-6.47,16.41-8.78,24.56-4.78,1.19.58,2.51,1.43,3.51,2.3.83.69,1.62,2.01,2.63,2.48h2.63c4.79-5.33,12.9-5.74,19.3-3.43,2.14.75,4.29,1.83,6.14,3.13,1.04.49,2.4.25,3.51.3,7.01,0,14.04,0,21.05,0,4.06-1.84,8.78-3.11,13.16-1.6,1.69.65,3.37,1.84,5.26,1.6,2.3,0,4.71.01,7.02,0,4.31-1.26,8.68-2.58,13.16-3.07,4.06-.48,8.25-.42,12.28.3,3.03.47,5.96,1.62,8.77,2.78,4.66,0,9.37,0,14.03,0"/><path class="b" d="M7.85,155.58c1.17.73,2.49,1.72,3.51,2.65,1.68.34,3.56.1,5.26.17,2.9,0,5.87,0,8.77,0,1.49-.99,2.83-2.52,4.39-3.44,2.11-1.38,4.56-2.43,7.02-3,7.12-1.64,15.67.33,20.17,6.38,1.4.03,3.04.26,4.39-.2.45-.38,1.24-1.06,1.75-1.34,2.11-1.24,4.6-1.97,7.02-2.22,3.86-.36,7.82.41,11.4,1.84,1.14.46,2.45,1.11,3.51,1.73,1.94.53,4.14.13,6.14.24,13.73,0,27.49,0,41.22,0,3.19,0,6.46.02,9.65-.01,3.03-1.37,6.35-2.25,9.65-2.69,3.47-.45,7.07-.42,10.52.14,1.74.29,3.6.75,5.26,1.33,1.12.33,2.33,1.12,3.51,1.23,4.37,0,8.79,0,13.16,0"/><path class="b" d="M7.85,155.03c.4.35,1.28.97,1.75,1.21,3.19,0,6.46,0,9.65,0,1.41,0,2.98,0,4.39,0,1-.29,1.84-1.43,2.63-2.05,8.65-7.57,23.28-6.95,30.7,2.05h5.26c6.22-4.15,14.52-3.12,21.05-.23,1.36.43,2.98.16,4.39.23,2.01,0,4.13,0,6.14,0,14.61,0,29.24,0,43.85,0,2.6,0,5.29,0,7.89,0,4.17-1.66,8.64-2.71,13.16-2.59,2.63.04,5.36.41,7.89,1.12,1.45.35,2.94,1.13,4.39,1.47,4.37,0,8.79,0,13.16,0"/><path class="b" d="M7.85,154.1c4.95-.07,9.97.15,14.91-.09,8.82-10.12,25.44-10.05,34.21.09,2.6-.02,5.29.05,7.89-.04,1.64-.64,3.51-1.07,5.26-1.22,2.31-.19,4.74,0,7.02.44,1.42.21,2.93.9,4.39.82,17.54,0,35.09,0,52.62,0,4.66,0,9.37,0,14.03,0,1.47-.04,2.94-.97,4.39-1.23,2.26-.57,4.69-.87,7.02-.88,2.33,0,4.76.28,7.02.84,1.44.28,2.93,1.1,4.39,1.27,4.37,0,8.79,0,13.16,0"/><path class="b" d="M7.85,151.95h13.16c1.3-.66,2.32-2.16,3.51-2.99,2.07-1.64,4.52-2.98,7.02-3.83,8.81-3.07,19.18-.19,25.44,6.65,1.38.32,2.98.12,4.39.17,2.31,0,4.71,0,7.02,0,7.01,0,14.04,0,21.05,0,20.17,0,40.35,0,60.52,0,2.09.22,4.09-.86,6.14-1.14,2.87-.5,5.89-.54,8.77-.11,1.75.21,3.55.87,5.26,1.25,4.66,0,9.37,0,14.03,0"/><path class="b" d="M7.85,149.8h12.28c.97-.47,1.83-1.67,2.63-2.36,1.54-1.39,3.4-2.66,5.26-3.58,8.78-4.48,19.82-2.47,27.19,3.83,2.39,2.16,2,2.21,5.26,2.1,2.6,0,5.29,0,7.89,0,6.71,0,13.46,0,20.17,0,14.61,0,29.24,0,43.85,0,5.25,0,10.54,0,15.79,0,2.01,0,4.13,0,6.14,0,1.42-.14,2.96-.63,4.39-.75,2.3-.26,4.73-.21,7.02.16,1.11.13,2.39.65,3.51.59,4.95,0,9.96,0,14.91,0"/><path class="b" d="M7.85,147.65c2.6,0,5.29,0,7.89,0,1.41-.06,3.01.17,4.39-.19,8.87-10.8,24.91-10.52,35.08-1.7,2.31,2.21,2.17,1.92,5.26,1.9,2.31,0,4.71,0,7.02,0,6.71,0,13.46,0,20.17,0,32.16.01,64.32-.03,96.48,0"/><path class="b" d="M7.85,145.5h11.4c9.7-10.46,24.2-10.86,35.08-1.91,2.32,2.16,2.17,1.95,5.26,1.91,2.31,0,4.71,0,7.02,0,6.71,0,13.46,0,20.17,0,32.45,0,64.91,0,97.35,0"/><path class="b" d="M7.85,143.36h11.4c9.75-11,25.84-9.9,35.96,0,42.99,0,85.94-.02,128.93,0"/><path class="b" d="M7.85,141.21c3.78-.03,7.63.07,11.4-.05,9.05-9.95,24.93-9.24,34.21.05,8.76-.09,17.56.21,26.31-.16,4.95.24,9.95.15,14.91.16,5.54,0,11.12,0,16.66,0,4.97-.64,9.91-1.93,14.91-2.34,2.68-.06,5.42.6,7.89,1.6.43.19,1.32.56,1.75.74,1.1,0,2.41,0,3.51,0,14.9,0,29.83,0,44.73,0"/><path class="b" d="M7.85,139.06c3.78-.03,7.62.06,11.4-.04,5.58-5.63,14.31-7.72,21.93-5.73,2.46.64,4.9,1.73,7.02,3.13,1.17.73,2.34,1.91,3.51,2.64,6.13,0,12.29,0,18.42,0,1.16-.09,2.38-.76,3.51-1,1.97-.51,4.11-.75,6.14-.75,2.03,0,4.17.25,6.14.72,1.72.4,3.45,1.26,5.26,1.03,3.19,0,6.46,0,9.65,0,2.06.02,4.2.15,6.14-.68,4-1.14,8.18-1.79,12.28-2.43,3.46-.49,7.04-1.28,10.52-.59,2.4.42,4.82,1.27,7.02,2.33,1.1.43,2.26,1.55,3.51,1.38,2.9,0,5.87,0,8.77,0,11.69,0,23.4,0,35.08,0"/><path class="b" d="M7.85,136.91h11.4c6.46-5.4,15.81-7.24,23.68-4.02,1.49.6,3.07,1.46,4.39,2.39.81.51,1.61,1.58,2.63,1.62,2.01,0,4.13,0,6.14,0,3.78,0,7.62,0,11.4,0,2.22-1.08,4.56-2.22,7.02-2.66,3.44-.7,7.09-.67,10.52.04,2.44.46,4.82,1.47,7.02,2.62,2.01,0,4.13,0,6.14,0,1.41-.1,3.08.29,4.39-.34,5.15-2.6,11.01-3.41,16.66-4.22,2.3-.28,4.7-.67,7.02-.72,4.62.02,9.15,1.62,13.16,3.82,1.07.52,2.23,1.66,3.51,1.47,2.3,0,4.71,0,7.02,0,11.39,0,22.81,0,34.21,0"/><path class="b" d="M7.85,134.76c2.6,0,5.29,0,7.89,0,1.41-.07,3.03.2,4.39-.23,2.35-1.67,5.11-2.9,7.89-3.61,3.7-.94,7.7-.99,11.4-.01,1.8.47,3.67,1.25,5.26,2.22.79.47,1.76,1.31,2.63,1.64,6.13,0,12.29,0,18.42,0,7.87-6.1,20.11-5.77,28.07,0,2.01,0,4.13,0,6.14,0,.93-.11,1.84-.97,2.63-1.4,1.62-.91,3.49-1.65,5.26-2.19,5.96-1.7,12.24-2.42,18.42-2.71,6.33.13,12.33,2.88,17.54,6.3h40.35"/><path class="b" d="M7.85,132.61c2.6,0,5.29,0,7.89,0,1.7-.09,3.6.22,5.26-.21,2.16-1.21,4.6-2.13,7.02-2.66,3.14-.68,6.5-.74,9.65-.05,2.51.44,4.78,1.8,7.02,2.91,6.42,0,12.88,0,19.3,0,4.41-3.65,10.06-5.61,15.79-5.53,5.33.07,11.13,1.5,14.91,5.48,1.7.04,3.58.2,5.26-.11,5.11-4.82,12.6-5.72,19.3-6.47,2.59-.21,5.29-.52,7.89-.36,5.62.42,11,2.64,15.79,5.53.77.46,1.76,1.21,2.63,1.47.43,0,1.32,0,1.75,0,2.01,0,4.13,0,6.14,0,10.22,0,20.47,0,30.7,0"/><path class="b" d="M7.85,130.46c4.66,0,9.37,0,14.03,0,3.39-1.12,6.91-2.23,10.52-2.11,2.04.02,4.2.33,6.14.96,1.14.28,2.31,1.21,3.51,1.15,4.37,0,8.79,0,13.16,0,2.59-.09,5.32.2,7.89-.15,7.86-7.95,25.07-8.97,32.45.07,1.09.13,2.41.06,3.51.08,1.47-1,2.75-2.59,4.39-3.39,4.79-2.68,10.39-3.48,15.79-3.9,9.4-1.02,16.49.9,24.56,5.74,1.06.57,2.21,1.76,3.51,1.56,2.3,0,4.71,0,7.02,0,9.93,0,19.89,0,29.82,0"/><path class="b" d="M7.85,128.32c5.83,0,11.71,0,17.54,0,1.99-.38,4.11-.73,6.14-.7,1.73,0,3.59.24,5.26.69,3.78.02,7.62,0,11.4,0,2.9,0,5.87,0,8.77,0,1.1,0,2.41,0,3.51,0,.48.08,1.34-.11,1.75-.35,8.39-8.5,26.77-10.05,34.21.35h2.63c5.1-6.17,13.47-7.48,21.05-7.77,8.84-.76,17.07,1.78,24.56,6.41.44.27,1.32.84,1.75,1.13.75.3,1.84.24,2.63.24,2.01,0,4.13,0,6.14,0,9.64,0,19.3,0,28.94,0"/><path class="b" d="M7.85,126.17c13.73,0,27.49,0,41.22,0,2.6,0,5.29,0,7.89,0,1.1,0,2.41,0,3.51,0,.55-.11,1.39-.74,1.75-1.16,6.6-5.74,16.06-8.12,24.56-5.94,2.86.74,5.71,2.06,7.89,4.07.87.81,1.79,2.19,2.63,3.03h1.75c.53-.35,1.4-1.33,1.75-1.87.71-.76,1.75-1.67,2.63-2.22,4.67-2.94,10.37-3.68,15.79-3.85,9.18-.55,17.6,1.76,25.44,6.52.77.45,1.74,1.22,2.63,1.42.43,0,1.32,0,1.75,0,2.01,0,4.13,0,6.14,0,9.64,0,19.3,0,28.94,0"/><path class="b" d="M7.85,124.02c11.39,0,22.81,0,34.21,0,3.78,0,7.62,0,11.4,0,2.3-.08,4.74.18,7.02-.14,8.19-7.72,21.34-11.02,31.57-5.51,1.21.67,2.54,1.67,3.51,2.66.88.82,1.5,2.47,2.63,2.99.48.07,1.33-.1,1.75-.32,4.75-7.72,15.6-7.84,23.68-7.51,8.12.36,16.08,3.29,22.8,7.8,12.56.09,25.15,0,37.71.03"/><path class="b" d="M7.85,121.87c13.44,0,26.9,0,40.35,0,2.6,0,5.29,0,7.89,0,1.1,0,2.41,0,3.51,0,.5-.2,1.36-.82,1.75-1.19,6.59-5.27,15.18-8.55,23.68-7.25,5.24.78,10.87,3.32,13.16,8.39.44.04,1.32.06,1.75.05,4.31-7.11,13.46-8.11,21.05-7.66,8.65.32,17.35,2.8,24.56,7.66,12.86,0,25.73,0,38.59,0"/><path class="b" d="M7.85,119.72c13.44,0,26.9,0,40.35,0,2.6,0,5.29,0,7.89,0,1.1,0,2.41,0,3.51,0,.49-.2,1.36-.78,1.75-1.14,4.91-3.65,10.53-6.68,16.66-7.5,7.82-1.12,17.12,1.2,21.05,8.63.45.04,1.32-.04,1.75-.16,6.25-12.03,31.68-6.63,41.22-1.12.45.25,1.33.79,1.75,1.07,1.07.35,2.41.17,3.51.21,2.01,0,4.13,0,6.14,0,10.22,0,20.47,0,30.7,0"/><path class="b" d="M7.85,117.57c13.73,0,27.49,0,41.22,0,2.6,0,5.29,0,7.89,0,1.1-.02,2.42.07,3.51-.11.43-.33,1.31-.97,1.75-1.28,4.74-3.33,9.99-6.28,15.79-7.18,5.99-.98,12.57-.05,17.54,3.6,1.83,1.21,2.99,3.37,4.39,4.97,1.36.23,2.05-.79,2.63-1.81,1.75-2.14,4.38-3.5,7.02-4.21,8.23-2.21,21.18.77,28.94,4.12,1.14.51,2.45,1.2,3.51,1.86,3.19.09,6.46.01,9.65.04,1.4-.07,3.02.19,4.39-.22,2.24-.64,4.69-.86,7.02-.7,1.74.08,3.56.59,5.26.92,5.25,0,10.54,0,15.79,0"/><path class="b" d="M7.85,115.43c17.83-.04,35.68.08,53.5-.04,5.49-4,11.53-7.79,18.42-8.59,5.74-.74,11.97.32,16.66,3.85.89.67,1.96,1.76,2.63,2.65.29.61,1.16,1.79,1.75,2.14.49.09,1.33-.12,1.75-.39,4.67-7.13,14.66-6.1,21.93-4.45,4.45,1,8.97,2.15,13.16,3.99.44.2,1.32.63,1.75.85,1.1,0,2.41,0,3.51,0,2.6,0,5.29,0,7.89,0,1.83.13,3.5-1.15,5.26-1.47,3.41-.86,7.1-.89,10.52-.09,1.46.34,3.03.92,4.39,1.56,4.37,0,8.79,0,13.16,0"/><path class="b" d="M7.85,113.28c14.32,0,28.66,0,42.98,0,2.6,0,5.29,0,7.89,0,1.4-.07,3.03.21,4.39-.23.43-.32,1.32-.95,1.75-1.25,8.17-6.28,19.15-9.57,28.94-5.16,1.91.86,3.81,2.13,5.26,3.64.85.83,1.53,2.45,2.63,3.01h1.75c6.7-9.2,20.11-3.67,28.94-1.08,1.11.32,2.35.95,3.51,1.08,1.1,0,2.41,0,3.51,0,2.9,0,5.87,0,8.77,0,.85.04,1.95.02,2.63-.56,1.05-.56,2.37-1.12,3.51-1.48,4.51-1.45,9.52-1.51,14.03-.04,1.48.48,3.07,1.22,4.39,2.04,3.78.1,7.62.01,11.4.04"/><path class="b" d="M7.85,111.13c14.61,0,29.24,0,43.85,0,2.9,0,5.87,0,8.77,0,.78,0,1.85,0,2.63,0,.9.09,2.01-.08,2.63-.8,8.11-6.84,19.96-10.13,29.82-5.16,1.55.78,3.15,1.9,4.39,3.12.84.79,1.59,2.28,2.63,2.84.81,0,1.88.08,2.63-.29,1.11-1.33,2.75-2.37,4.39-2.9,4.29-1.42,8.98-.61,13.16.85,1.42.49,2.98,1.08,4.39,1.59,1.07.42,2.34.87,3.51.75,3.78,0,7.62,0,11.4,0,1.41,0,2.98,0,4.39,0,.86.05,1.97,0,2.63-.63,6.53-3.88,15.03-4.6,21.93-1.27,1.15.5,2.32,1.48,3.51,1.9,3.19,0,6.46,0,9.65,0"/><path class="b" d="M7.85,108.98h58.76c4.69-3.75,9.71-6.83,15.79-7.65,5.72-.85,11.87.24,16.66,3.56,1.68,1.02,2.88,2.89,4.39,4.1h3.51c4.63-4.12,11.63-2.58,16.66-.03,3.48.07,7.04,0,10.52.03,4.07,0,8.21,0,12.28,0,1.17-.46,2.37-1.39,3.51-1.93,2.18-1.11,4.61-1.94,7.02-2.39,6.03-1.15,12.64.04,17.54,3.83.94.77,2.38.42,3.51.49,2.01,0,4.13,0,6.14,0"/><path class="b" d="M7.85,106.83c15.78,0,31.58,0,47.36,0,2.9,0,5.87,0,8.77,0,1.1,0,2.41,0,3.51,0,.94.15,2.02-.31,2.63-1.02,9.86-8.36,25.27-9.01,34.21,1.02,1.71,0,3.55,0,5.26,0,1.96-.58,4.07-1.15,6.14-.83,1.13.13,2.43.49,3.51.83,2.6,0,5.29,0,7.89,0,5.25,0,10.54,0,15.79,0,.78,0,1.85,0,2.63,0,1.76-.83,3.44-2.17,5.26-2.91,3.28-1.5,6.92-2.37,10.52-2.39,3.62-.03,7.32.81,10.52,2.51,1.53.7,2.87,2.1,4.39,2.8,2.6,0,5.29,0,7.89,0"/><path class="b" d="M7.85,104.68h63.15c3.41-2.65,7.14-5.09,11.4-6.08,8.03-2.14,16.93.19,22.8,6.08,13.44-.09,26.92.17,40.35-.09,8.66-6.88,22.33-7.97,30.7-.06,2.57.35,5.3.06,7.89.15"/><path class="b" d="M7.85,102.41c2.87.3,5.88.05,8.77.13,5.25,0,10.54,0,15.79,0,13.73-.02,27.49.04,41.22-.02,6.76-6.14,17.04-7.89,25.44-4.27,1.49.62,3.07,1.5,4.39,2.43.8.55,1.73,1.49,2.63,1.87,1.41,0,2.98,0,4.39,0,9.93,0,19.89,0,29.82,0,1.7-.06,3.58.16,5.26-.15,1.83-1.47,3.98-2.76,6.14-3.7,6.05-2.65,13.25-2.91,19.3-.13,2.25.91,4.14,2.67,6.14,3.98h7.02"/><path class="b" d="M7.85,99.44c.75.48,1.71,1.11,2.63.94,1.41,0,2.98,0,4.39,0,4.07,0,8.21,0,12.28,0,11.39,0,22.81,0,34.21,0,3.19,0,6.46,0,9.65,0,1.1,0,2.41,0,3.51,0,.91.1,2.02-.14,2.63-.86,8.35-6.47,20.87-5.88,28.94.77,5.82.25,11.71.02,17.54.09,7.3-.05,14.63.09,21.93-.05,8.74-7.61,23.11-8.35,31.57.05h7.02"/><path class="b" d="M7.85,96.82c.8.42,1.74,1.19,2.63,1.41,1.71,0,3.55,0,5.26,0,3.78,0,7.62,0,11.4,0,5.54,0,11.12,0,16.66,0,2.02,0,4.11-.65,6.14-.65,2.33-.14,4.74.2,7.02.65,1.71,0,3.55,0,5.26,0,3.49,0,7.04,0,10.52,0,1.1,0,2.41,0,3.51,0,.8,0,1.9.09,2.63-.33,8.14-6.34,19.86-5.42,28.07.33,12.86-.03,25.73.05,38.59-.03,6.79-5.99,17.07-7.86,25.44-4.28,1.49.63,3.07,1.53,4.39,2.48.78.55,1.7,1.53,2.63,1.83,2.01,0,4.13,0,6.14,0"/><path class="b" d="M7.85,94.48c.82.42,1.88,1.09,2.63,1.61,9.64,0,19.3,0,28.94,0,4.01-1,8.09-2.2,12.28-2.08,2.03.01,4.18.26,6.14.79,1.45.27,2.89,1.39,4.39,1.29,6.13,0,12.29,0,18.42,0,7.46-5.31,17.5-5.22,25.44-.98.45.23,1.32.72,1.75.98.78,0,1.85,0,2.63,0,1.71,0,3.55,0,5.26,0,9.93-.01,19.89.02,29.82-.01,8.85-7.93,23.66-8.23,32.45-.05,2,.14,4.13.03,6.14.06"/><path class="b" d="M7.85,92.35c.82.38,1.89,1,2.63,1.51,2.59.18,5.29.03,7.89.08,5.54,0,11.12,0,16.66,0,1.5.15,2.99-.65,4.39-1.07,1.68-.55,3.53-1.04,5.26-1.39,6.42-1.28,13.64-1.21,19.3,2.46,6.13.02,12.29,0,18.42,0,.91-.03,1.85-.79,2.63-1.17,1.62-.82,3.48-1.47,5.26-1.86,3.44-.74,7.09-.68,10.52.02,3.04.54,5.93,1.88,8.77,3.01,2.3,0,4.71,0,7.02,0,9.64,0,19.3,0,28.94,0,6.43-5.42,15.61-7.27,23.68-5.02,3.56.89,6.69,2.94,9.65,5.02h5.26"/><path class="b" d="M7.85,90.41c.83.34,1.88.89,2.63,1.36,1.41.03,2.98.01,4.39.02,3.19,0,6.46,0,9.65,0,2.9,0,5.87,0,8.77,0,4.3-1.45,8.63-3.09,13.16-3.69,5.87-.88,12.24-.58,17.54,2.32.46.25,1.33.81,1.75,1.11,1.06.42,2.4.21,3.51.26,2.3,0,4.71,0,7.02,0,2.9,0,5.87,0,8.77,0,2.76-1.32,5.69-2.55,8.77-2.89,3.18-.43,6.5-.25,9.65.37,1.74.34,3.59.86,5.26,1.44,1.39.48,2.87,1.28,4.39,1.09,8.18,0,16.38,0,24.56,0,2.6,0,5.29,0,7.89,0,1.51-.66,2.87-1.98,4.39-2.65,2.18-1.11,4.62-1.94,7.02-2.43,6.18-1.27,12.84-.42,18.42,2.56,4.94,2.86,2.59,2.57,8.77,2.52"/><path class="b" d="M7.85,88.65c.81.28,1.8.81,2.63.99.8,0,1.84,0,2.63,0,2.31,0,4.71,0,7.02,0,2.31,0,4.71,0,7.02,0,1.11,0,2.4,0,3.51,0,.83-.11,1.85-.57,2.63-.85,8.84-3.33,18.82-5.57,28.07-2.59,1.47.49,3.06,1.21,4.39,2.01,1.06.7,2.13,1.67,3.51,1.43,6.13,0,12.29,0,18.42,0,2.17-1.13,4.61-1.93,7.02-2.36,3.74-.68,7.66-.57,11.4.06,2.96.49,5.94,1.33,8.77,2.31,7.01,0,14.04,0,21.05,0,2.3,0,4.71,0,7.02,0,1.41-.12,3.14.36,4.39-.43,1.83-1.32,4.01-2.36,6.14-3.09,8.67-2.99,18.77-1.83,26.31,3.47,1.4.11,2.98.04,4.39.06"/><path class="b" d="M7.85,87.06c1.06.45,2.38.47,3.51.43,1.41,0,2.98,0,4.39,0,4.37,0,8.79,0,13.16,0,12.61-4.98,28.59-9.02,40.35,0,6.71,0,13.46,0,20.17,0,.87.15,1.85-.43,2.63-.72.78-.29,1.83-.64,2.63-.86,2.54-.69,5.26-1.04,7.89-1.11,4.42-.1,8.89.54,13.16,1.65,1.11.29,2.42.69,3.51,1.04,2.01,0,4.13,0,6.14,0,7.59,0,15.21,0,22.8,0,.86-.22,1.85-.93,2.63-1.33,1.06-.54,2.38-1.08,3.51-1.46,6.19-2.06,13.05-2.14,19.3-.25,2.43.69,4.78,1.88,7.02,3.03,1.09,0,2.41,0,3.51,0"/><path class="b" d="M7.85,85.35c6.42,0,12.88,0,19.3,0,10.54-3.98,22.05-7.5,33.33-4.7,3.45.84,6.81,2.36,9.65,4.51,2.55.45,5.3.08,7.89.19,4.37,0,8.79,0,13.16,0,.79,0,1.86.04,2.63-.14.43-.19,1.31-.54,1.75-.7,1.67-.6,3.52-1.08,5.26-1.4,7.92-1.44,16.09-.2,23.68,2.24,6.42,0,12.88,0,19.3,0,2.01,0,4.13,0,6.14,0,.77,0,1.86,0,2.63,0,.42-.2,1.34-.63,1.75-.86,6.25-2.85,13.54-3.11,20.17-1.52,2.06.5,4.2,1.24,6.14,2.12,1.03.44,2.41.22,3.51.27"/><path class="b" d="M7.85,83.2c6.12-.06,12.3.12,18.42-.07,9.98-3.92,20.78-7.08,31.57-5.33,3,.47,6.02,1.33,8.77,2.61,1.15.54,2.46,1.28,3.51,1.98.43.35,1.19.8,1.75.81,7.59,0,15.21,0,22.8,0,.44,0,1.32,0,1.75,0,.83-.16,1.85-.7,2.63-1,1.66-.65,3.52-1.17,5.26-1.52,8.19-1.7,16.63-.19,24.56,2.05,1.34.59,2.96.49,4.39.48,2.01,0,4.13,0,6.14,0,1.45-.15,2.92-.98,4.39-1.14,3.2-.53,6.69-.32,9.65,1.11,2,.06,4.13.01,6.14.03,1.95-.76,4.04-1.54,6.14-1.8,3.76-.56,7.68-.33,11.4.43,2.33.37,4.62,1.59,7.02,1.37"/><path class="b" d="M7.85,81.05c4.07,0,8.21,0,12.28,0,1.71,0,3.55,0,5.26,0,.79-.29,1.85-.71,2.63-1.01,13.8-5.59,30.91-7.83,43.85,1.01,9.05,0,18.13,0,27.19,0,.57.09,1.32-.2,1.75-.54.76-.41,1.82-.91,2.63-1.22,2.78-1.07,5.81-1.68,8.77-1.91,5.29-.4,10.64.41,15.79,1.56,1.78.44,3.67,1.07,5.26,2,1.39.22,2.98.08,4.39.12.88.11,1.97-.22,2.63-.81,1.03-.61,2.36-1.15,3.51-1.48,4.88-1.34,10.32-.98,14.91,1.19.45.22,1.34.74,1.75,1.03,2,.15,4.13.03,6.14.07,1.13.1,2.42-.28,3.51-.54,1.39-.27,2.97-.41,4.39-.43,3.22-.15,6.45.68,9.65.72"/><path class="b" d="M7.85,78.9c5.83-.06,11.72.12,17.54-.07,2.56-1.08,5.25-2.13,7.89-2.98,12.1-4,27.68-4.28,38.59,3.02,3.78.08,7.62,0,11.4.03.82.06,1.84-.36,2.63-.54,1.08-.24,2.4-.4,3.51-.42,1.11-.02,2.43.11,3.51.35.79.17,1.81.63,2.63.6,2.3-.02,4.71.06,7.02-.04,7.26-5.27,17.04-4.74,25.44-3.06,2.14.52,4.38,1.33,6.14,2.68.4.29,1.26.53,1.75.43.78,0,1.85.02,2.63-.05,4.95-4.87,12.91-5.08,19.3-3.49,1.78.48,3.65,1.2,5.26,2.09,1.06.58,2.2,1.67,3.51,1.44,3.19-.07,6.47.16,9.65-.11,2.58-.45,5.31-.22,7.89-.6"/><path class="b" d="M7.85,76.75c5.83-.02,11.71.04,17.54-.02,6.35-2.93,13.18-5.02,20.17-5.51,6.49-.48,13.11.31,19.3,2.32,1.44.47,3.03,1.06,4.39,1.73,1.11.46,2.23,1.67,3.51,1.48,1.71,0,3.56,0,5.26,0,1.1-.04,2.45.15,3.51-.24,5.57-3.19,13.05-3.54,18.42.24,1.1,0,2.41,0,3.51,0,.51.09,1.33-.13,1.75-.4,1.97-1.7,4.52-2.77,7.02-3.41,3.7-.94,7.62-.97,11.4-.62,4.08.32,8.51,1.32,11.4,4.43h2.63c7.61-8.2,22.47-6.42,30.7,0,2.9,0,5.87,0,8.77,0,2.36.15,4.75-.38,7.02-.99"/><path class="b" d="M7.85,74.6c5.83,0,11.71,0,17.54,0,2.89-1.11,5.76-2.55,8.77-3.36,4.53-1.35,9.31-2.05,14.03-2.04,5.64,0,11.3.97,16.66,2.66,2.09.68,4.31,1.46,6.14,2.7,1.4.08,2.98.03,4.39.04,1.4-.09,3.06.26,4.39-.3.73-.56,1.81-1.23,2.63-1.65,4.01-2.02,8.73-2.76,13.16-1.93,2.17.42,4.41,1.3,6.14,2.7.56.72,1.68,1.37,2.63,1.19.78,0,1.87.05,2.63-.16,4.25-4.35,10.9-4.93,16.66-4.6,4.23.11,8.55,1.52,11.4,4.76h1.75c.59-.2,1.42-1.07,1.75-1.58.96-.98,2.28-1.92,3.51-2.53,6.54-3.17,14.4-2.59,21.05-.02,1.79.7,3.65,1.63,5.26,2.67.78.47,1.67,1.41,2.63,1.46,2.3,0,4.71,0,7.02,0,1.1-.02,2.42.07,3.51-.1.78-.29,1.86-.7,2.63-1.01"/><path class="b" d="M7.85,72.45c5.83,0,11.71,0,17.54,0,.89.05,1.85-.61,2.63-.95,1.66-.77,3.51-1.49,5.26-2.05,4.23-1.34,8.72-2.03,13.16-2.07,5.93-.06,11.87,1,17.54,2.7,2.06.62,4.23,1.37,6.14,2.37,2.6,0,5.29,0,7.89,0,7-6.44,20.69-8.18,27.19-.24,1.06.39,2.4.19,3.51.24,4.27-5.2,14.11-5.77,20.17-3.99,1.57.53,3.2,1.44,4.39,2.61.88,1.41,1.95,1.56,3.51,1.27,5.18-7.97,17.37-7.78,25.43-4.96,3.47,1.11,6.63,3.08,9.65,5.06,2.3,0,4.71,0,7.02,0,1.1-.02,2.42.09,3.51-.13.42-.24,1.32-.7,1.75-.93"/><path class="b" d="M7.85,70.31c4.07,0,8.21,0,12.28,0,1.41,0,2.98,0,4.39,0,1.26.11,2.43-.08,3.51-.78,11.19-5.61,24.35-4.51,35.96-.8,1.42.44,3.01.98,4.39,1.56,1.4.04,2.98.01,4.39.02,1.1,0,2.41,0,3.51,0,.63-.01,1.36-.56,1.75-1.03,8.37-7.16,22.53-8.07,29.82,1.03h2.63c3.23-3.74,8.43-4.74,13.16-4.65,2.75-.04,5.65.64,7.89,2.28.86.62,1.71,1.83,2.63,2.37h1.75c5.87-8.69,18.33-8.43,27.19-5.05,2.09.79,4.22,1.82,6.14,2.96,1.13.6,2.27,1.7,3.51,2.09,2.3,0,4.71,0,7.02,0,1.46-.02,3.21.26,4.39-.82"/><path class="b" d="M7.85,68.16c4.07,0,8.21,0,12.28,0,1.41,0,2.98,0,4.39,0,1.15.02,2.54.1,3.51-.62,10.62-5.52,23.18-4.1,34.21-.59,1.42.34,2.92,1.15,4.39,1.21,2.9,0,5.87,0,8.77,0,1.34-.26,2.28-1.83,3.51-2.57,2.1-1.55,4.55-2.81,7.02-3.65,8.35-2.9,18.3-1.22,23.68,6.22h2.63c3.49-3.54,8.35-4.46,13.16-4.16,1.83.15,3.75.8,5.26,1.86.86.6,1.72,1.77,2.63,2.3h1.75c6.43-8.83,18.73-8.81,28.07-5.06,2.08.81,4.21,1.85,6.14,2.98,1.4.66,2.73,2.26,4.39,2.08,2.3,0,4.71,0,7.02,0,1.12-.06,2.51.24,3.51-.4"/><path class="b" d="M7.85,66.01c6.42-.05,12.88.1,19.3-.06,2.7-1.54,5.73-2.63,8.77-3.25,4.6-.95,9.41-.88,14.03-.12,4.47.7,8.83,2.13,13.16,3.43,4.07-.1,8.23.21,12.28-.14,9.71-10.15,26.99-11.74,35.96.14,1.73,0,3.12.29,4.39-1.17,2.25-1.64,5.16-2.21,7.89-2.3,2.49-.18,5.15.54,7.02,2.24.95,1.38,2,1.27,3.51,1.23,1.04-.53,1.78-1.96,2.63-2.71.99-.93,2.31-1.85,3.51-2.47,10.36-5.2,22.56-.9,31.57,5.17,4.07.02,8.21,0,12.28,0"/><path class="b" d="M7.85,63.86c6.13,0,12.29,0,18.42,0,1.22-.05,2.38-1.03,3.51-1.42,1.65-.7,3.51-1.27,5.26-1.64,4.3-.91,8.83-.87,13.16-.15,2.64.44,5.34,1.14,7.89,1.93,1.41.38,2.93,1.1,4.39,1.28,4.66,0,9.37,0,14.03,0,4.6-4.38,10.27-7.87,16.66-8.72,7.77-1.15,16.63,1.62,21.05,8.4,1.32.59,2.98.22,4.39.32,2.66-2.1,6.34-2.78,9.65-2.3,1.65.25,3.02,1.46,4.39,2.3,3.79.08,2.88.11,5.26-2.48,3.72-3.51,9.01-4.98,14.03-4.91,4.88.06,9.69,1.55,14.03,3.71,1.44.72,3.01,1.6,4.39,2.43,1.04.7,2.18,1.45,3.51,1.25,4.07,0,8.21,0,12.28,0"/><path class="b" d="M7.85,61.71c6.13,0,12.29,0,18.42,0,2.77-1.36,5.71-2.59,8.77-3.1,4.04-.74,8.25-.62,12.28.12,3.6.58,7.05,1.99,10.52,2.98,5.54-.07,11.13.13,16.66-.08,10.85-11.69,29.25-13.19,39.47.08,1.71,0,3.55,0,5.26,0,1.68-.49,3.48-1.11,5.26-1.07,1.17-.04,2.52.34,3.51.97,1.62.12,3.7.29,5.26-.13,4.13-5.63,11.74-7.61,18.42-6.73,5.78.73,11.14,3.47,15.79,6.89,5.54.16,11.13.01,16.66.06"/><path class="b" d="M7.85,59.56c5.83,0,11.71,0,17.54,0,2.49-1.25,5.15-2.39,7.89-2.94,4.01-.86,8.24-.84,12.28-.12,3.62.54,7.05,2.03,10.52,3.06,6.12-.09,12.31.18,18.42-.11,11.13-12.14,29.78-13.44,40.35.11,5.83-.08,11.72.17,17.54-.1,7.9-9.66,23.2-8.13,31.57.1h20.17"/><path class="b" d="M7.85,57.42c5.25,0,10.54,0,15.79,0,1.19-.21,2.38-1.07,3.51-1.48,1.65-.69,3.51-1.27,5.26-1.64,4.02-.84,8.25-.81,12.28-.05,2.05.38,4.18.98,6.14,1.68,1.43.42,2.9,1.35,4.39,1.5,6.42,0,12.88,0,19.3,0,8.53-8.93,21.03-12.99,32.45-7.01,1.85.96,3.71,2.25,5.26,3.63,1.2.96,2.21,2.55,3.51,3.38h15.79c7.5-8.45,21.49-8.52,28.94,0,1.1,0,2.41.03,3.51-.05,1.25-.81,2.91-1.14,4.39-1.05,1.48.04,2.98.71,4.39,1.09,3.78,0,7.62,0,11.4,0"/><path class="b" d="M7.85,55.27c4.66,0,9.37,0,14.03,0,1.18-.26,2.38-1.1,3.51-1.54,1.94-.84,4.07-1.51,6.14-1.93,4.32-.88,8.86-.78,13.16.16,2.05.44,4.18,1.11,6.14,1.87,1.41.43,2.87,1.56,4.39,1.45,4.37,0,8.79,0,13.16,0,2.3-.1,4.75.22,7.02-.17,11.58-12.64,28.96-12.8,40.35.17h14.91c3.17-2.91,7.09-5.16,11.4-5.74,5.43-.78,11.92.78,14.91,5.74h1.75c4.16-5.12,12.1-4.05,16.66-.03,2.89.08,5.87.01,8.77.03"/><path class="b" d="M7.85,53.12c4.07,0,8.21,0,12.28,0,3.31-1.74,6.83-3.28,10.52-3.95,4.32-.86,8.85-.79,13.16.12,2.37.49,4.78,1.26,7.02,2.18,1.43.46,2.87,1.58,4.39,1.66,6.9-.11,14.22.22,21.05-.13,8.1-9.34,21.82-12.28,32.45-5.44,2.25,1.4,4.4,3.26,6.14,5.26,1.61.63,3.56.19,5.26.31,3.19,0,6.46,0,9.65,0,3.14-2.36,6.56-4.62,10.53-5.25,5.07-.94,11.51.27,14.03,5.25h.88c.62-.23,1.43-1.21,1.75-1.76.68-.72,1.74-1.53,2.63-1.96,5.89-2.92,13.05-.73,17.54,3.72h7.02"/><path class="b" d="M7.85,50.97c3.19,0,6.46,0,9.65,0,.45.01,1.31-.01,1.75-.05,1.06-.66,2.37-1.35,3.51-1.87,2.49-1.12,5.2-1.96,7.89-2.44,4.33-.77,8.86-.64,13.16.32,2.37.52,4.78,1.32,7.02,2.26,1.43.51,2.87,1.56,4.39,1.78,7.3,0,14.63,0,21.93,0,10.13-11.28,26.73-11.83,36.84-.24,1.65.48,3.56.14,5.26.24,3.19,0,6.46,0,9.65,0,1,.05,1.85-.98,2.63-1.47,1.58-1.09,3.44-2.04,5.26-2.66,3.95-1.33,8.58-1.45,12.28.66,1.41.75,2.45,2.32,3.51,3.46h.88c1.51-3.44,5.2-5.34,8.77-5.91,5.78-.97,11.91,1.33,15.79,5.69,1.95.47,4.14.11,6.14.22"/><path class="b" d="M7.85,48.82c3.49,0,7.04,0,10.52,0,.56.11,1.31-.16,1.75-.49.76-.46,1.82-1.03,2.63-1.4,2.21-1.02,4.63-1.8,7.02-2.27,4.61-.92,9.45-.81,14.03.24,3.67.77,7.14,2.38,10.52,3.93,7.88,0,15.8,0,23.68,0,1.53-.97,2.83-2.6,4.39-3.57,2.61-1.82,5.65-3.18,8.77-3.84,5.67-1.23,11.8-.09,16.66,3.07,1.95,1.12,3.49,3.02,5.26,4.34h16.66c4.67-3.46,10.99-5.79,16.66-3.51.88.36,1.96,1.09,2.63,1.77.31.54,1.15,1.52,1.75,1.74.68-.22,1.45-1.36,1.75-1.96.4-.48,1.26-1.35,1.75-1.72,3.46-2.6,8.02-3.52,12.28-3.08,3.46.37,6.87,1.74,9.65,3.85,1.2.81,2.22,2.26,3.51,2.92h4.39"/><path class="b" d="M7.85,45.36c.8.39,1.73,1.16,2.63,1.31.79,0,1.85,0,2.63,0,2.01,0,4.13,0,6.14,0,1.62.21,2.97-1.16,4.39-1.72,1.92-.9,4.07-1.59,6.14-2.03,4.31-.91,8.85-.87,13.16.01,2.37.49,4.79,1.26,7.02,2.2,1.4.49,2.84,1.68,4.39,1.53,5.54,0,11.12,0,16.66,0,2.89-.1,5.91.22,8.77-.16,8.1-8.34,22.71-9.21,30.7-.27.42.29,1.25.53,1.75.43,1.1,0,2.41,0,3.51,0,3.19,0,6.46,0,9.65,0,1.1,0,2.41,0,3.51,0,.8,0,1.9.09,2.63-.32,1.03-.71,2.35-1.42,3.51-1.89,4.26-1.72,10.29-2.04,13.16,2.21h.88c1.15-1.14,2.14-2.82,3.51-3.74,3.5-2.57,7.97-3.71,12.28-3.62,6.05.06,11.67,3.04,15.79,7.35h3.51"/><path class="b" d="M7.85,42.09c1.5.59,3.05,1.53,4.39,2.43,3.49-.02,7.04.05,10.52-.03,2.37-1.53,5.14-2.55,7.89-3.12,3.73-.77,7.66-.78,11.4-.13,3.33.58,6.63,1.71,9.65,3.23,3.78.11,7.62.01,11.4.04,5.83,0,11.71,0,17.54,0,1.57-.58,2.86-2.07,4.39-2.77,3.19-1.76,6.88-2.74,10.52-2.69,3.36.04,6.8.97,9.65,2.79,1.22.69,2.26,2.05,3.51,2.67,2.01,0,4.13,0,6.14,0,1.09-.17,2.39-.49,3.51-.46,1.11,0,2.41.3,3.51.46,2.9,0,5.88,0,8.77,0,1.46.02,3.11.15,4.39-.71,1.89-.82,4.08-1.27,6.14-1.08.81.08,1.9.38,2.63.75.36.3,1.32.83,1.75,1.04.41.03,1.34-.03,1.75-.12,2.49-3.85,7.08-5.86,11.4-6.88,8.14-1.9,17.11.76,22.8,6.9.78.14,1.85.11,2.63.11"/><path class="b" d="M7.85,39.09c2.12.64,4.2,1.73,6.14,2.78,1.14.89,3,.39,4.39.51,2.01,0,4.13,0,6.14,0,.87.13,1.89-.33,2.63-.74.77-.35,1.82-.76,2.63-1,3.09-.94,6.43-1.23,9.65-1,2.35.18,4.77.66,7.02,1.37,1.44.33,2.97,1.45,4.39,1.37,6.71,0,13.46,0,20.17,0,4.07-.05,8.21.11,12.28-.07,3.06-2.16,6.79-3.47,10.52-3.64,3.34-.15,6.87.61,9.65,2.53.37.36,1.29.96,1.75,1.18.77,0,1.85,0,2.63,0,.78,0,1.86.02,2.63-.07.72-.47,1.81-.97,2.63-1.24,1.65-.53,3.53-.75,5.26-.68,2.74,0,5.35,1.12,7.89,1.99,5.83,0,11.71,0,17.54,0,8.19-6.83,19.63-9.81,29.82-5.85,2.15.83,4.29,2.01,6.14,3.38.82.61,1.89,1.52,2.63,2.23.41.16,1.31.29,1.75.23"/><path class="b" d="M7.85,36.33c3.64.83,7.08,2.52,10.52,3.89,3.78,0,7.62,0,11.4,0,1.66-.64,3.5-1.19,5.26-1.41,4.11-.55,8.38,0,12.28,1.36,3.19.13,6.46.02,9.65.05,6.71,0,13.46,0,20.17,0,3.19-.02,6.46.05,9.65-.03,1.35-.58,2.94-1.03,4.39-1.25,1.7-.25,3.58-.23,5.26.12,1.15.2,2.39.85,3.51,1.16,2.01,0,4.13,0,6.14,0,4.34-2.88,9.82-3.68,14.91-2.88,3.23.56,6.38,1.79,9.65,2.16,4.54.82,8.95.34,13.16-1.57,4.8-2.01,9.73-4,14.91-4.72,8.67-1.38,18.02.89,24.56,6.88l.88.13"/><path class="b" d="M7.85,33.83c3.27.51,6.5,1.58,9.65,2.55.8.26,1.85.66,2.63.97.79.32,1.75.86,2.63.72,4.37,0,8.79,0,13.16,0,1.11.04,2.4-.19,3.51-.18,1.41-.03,2.97.22,4.39.18,17.83,0,35.67,0,53.5,0,1.41,0,2.98,0,4.39,0,2.69-1.58,5.72-2.73,8.77-3.37,3.43-.73,7.05-.88,10.52-.43,2.33.27,4.68,1,7.02,1.26,4.95.6,10.04.34,14.91-.75,5.8-1.31,11.57-3.13,17.54-3.51,5.96-.45,12.13.43,17.54,3.05,2.18.93,4.1,2.61,6.14,3.76"/><path class="b" d="M7.85,31.59c4.14.37,8.27,1.36,12.28,2.43,1.75.51,3.6,1.15,5.26,1.89,1.41.03,2.98.01,4.39.02,21.05,0,42.1,0,63.15,0,1.41-.02,2.98.05,4.39-.06,1.67-.76,3.52-1.51,5.26-2.11,3.66-1.26,7.54-2.11,11.4-2.4,2.6-.19,5.31-.12,7.89.2,2.01.25,4.11.74,6.14.88,4.36.34,8.81.11,13.16-.34,11.02-1.25,22.41-4.09,33.33-.71,2.08.62,4.23,1.5,6.14,2.55,1.13.55,2.28,1.65,3.51,2"/><path class="b" d="M7.85,29.61c5.01.05,10.06.93,14.91,2.16,1.12.3,2.42.71,3.51,1.1,1.09.37,2.32,1.05,3.51.91,19,0,38.01,0,57.01,0,2.3-.01,4.71.02,7.02-.02,4.25-1.68,8.67-3.14,13.16-4.03,4.31-.86,8.77-1.21,13.16-.93,3.5.22,7.01.99,10.52.95,7.01.06,14.05-.47,21.05-.8,6.42-.32,12.94-.52,19.3.62,2.67.48,5.39,1.22,7.89,2.26.79.33,1.88.85,2.63,1.26.62.54,1.82.78,2.63.69"/><path class="b" d="M7.85,27.92c5.26-.49,10.65.19,15.79,1.36,1.74.42,3.58.98,5.26,1.58,1.08.45,2.32.91,3.51.77,14.9,0,29.83,0,44.73,0,4.95,0,9.96,0,14.91,0,5.41-1.97,10.95-3.78,16.66-4.6,3.75-.57,7.61-.79,11.4-.62,2.91.11,5.86.66,8.77.74,7,.19,14.05-.14,21.05.22,7.03.34,14.12.76,21.05,2.02,2.65.5,5.38,1.19,7.89,2.16,1.7.15,3.56.04,5.26.07"/><path class="b" d="M7.85,26.57c5.45-1.24,11.25-.71,16.66.48,2.05.47,4.17,1.12,6.14,1.86,1.34.7,2.93.59,4.39.57,15.49,0,30.99,0,46.48,0,3.49,0,7.04,0,10.52,0,2.88-1.02,5.81-2.14,8.77-2.9,7.39-2,15.16-2.85,22.8-2.14,9.32.99,18.81.08,28.07,1.8,4.19.62,8.27,1.94,12.28,3.24,6.71,0,13.46,0,20.17,0"/><path class="b" d="M7.85,25.7c6.9-2.96,15.01-1.65,21.93.64,1.12.31,2.32,1.14,3.51,1,2.31,0,4.71,0,7.02,0,11.39,0,22.81,0,34.21,0,6.13,0,12.29,0,18.42,0,1.17-.1,2.4-.78,3.51-1.12,1.98-.7,4.11-1.35,6.14-1.87,5.99-1.53,12.23-2.3,18.42-2.11,5.54.39,11.12.72,16.66.89,5.94.39,12.21.88,17.54,3.75.95.73,2.39.4,3.51.46,1.14.03,2.55.09,3.51-.65,4.62-2.11,9.97-2.13,14.91-1.44,2.34.31,4.69,1.1,7.02,1.49"/><path class="b" d="M7.85,25.19c.53-.09,1.35-.58,1.75-.92.76-.45,1.79-.92,2.63-1.17,5.44-1.6,11.35-.74,16.66.95,1.12.32,2.35.97,3.51,1.14,2.6,0,5.29,0,7.89,0,10.81,0,21.64,0,32.45,0,7.59,0,15.21,0,22.8,0,1.17-.07,2.4-.77,3.51-1.11,1.98-.7,4.1-1.34,6.14-1.85,5.71-1.41,11.66-2.08,17.54-1.79,4.66.37,9.37.63,14.03.93,4.75.4,9.69.9,14.03,2.98.37.26,1.32.68,1.75.83.77,0,1.86,0,2.63,0,.41,0,1.34,0,1.75,0,.49-.12,1.37-.62,1.75-.95,4.94-2.96,11.02-3.58,16.66-3.07,2.98.24,5.9,1.23,8.77,2.01"/><path class="b" d="M7.85,23.04c.8,0,1.84,0,2.63,0,.88-.22,1.81-.97,2.63-1.31,1.63-.68,3.51-1.02,5.26-1.1,2.93-.13,5.95.32,8.77,1.1,1.12.31,2.43.76,3.51,1.19,1.4.22,2.98.08,4.39.11,17.24,0,34.5,0,51.75,0,4.37,0,8.79,0,13.16,0,1.76-.44,3.51-1.38,5.26-1.87,2.83-.91,5.82-1.6,8.77-2.01,5.23-.81,10.55-.4,15.79.1,4.98.44,10.06.72,14.91,1.97,1.46.39,3.06.95,4.39,1.67,1.38.27,2.98.1,4.39.14.79,0,1.89.08,2.63-.28,1-.82,2.34-1.62,3.51-2.17,7.69-3.57,16.72-3.52,24.56-.46"/><path class="b" d="M7.85,20.21l.88.68c1.41,0,2.98,0,4.39,0,1.81-1.15,4.01-1.71,6.14-1.81,3.6-.24,7.12.81,10.52,1.81,2.01,0,4.13,0,6.14,0,22.51,0,45.03,0,67.53,0,.43,0,1.32,0,1.75-.03.42-.23,1.31-.66,1.75-.85,1.37-.6,2.95-1.14,4.39-1.54,4.54-1.24,9.35-1.58,14.03-1.15,4.97.48,10,1,14.91,1.89,2.06.36,4.16,1.03,6.14,1.68,1.4,0,2.98,0,4.39,0,1.4-.05,3.01.14,4.39-.16,1.8-1.44,4-2.57,6.14-3.4,7.35-2.85,15.52-2.99,22.8.12"/><path class="b" d="M7.85,17.15c.48.33,1.35,1.11,1.75,1.53,1.71.13,3.55.04,5.26.06,1.97-.59,4.04-1.27,6.14-1.14,2.38-.06,4.71.79,7.02,1.14,2.9,0,5.87,0,8.77,0,11.39,0,22.81,0,34.21,0,5.25,0,10.54,0,15.79,0,1.98-.53,4.09-1.03,6.14-1.15,1.71-.11,3.58-.01,5.26.33,1.13.16,2.35.9,3.51.82,2.6-.02,5.3.06,7.89-.04,4.19-2.44,9.25-3.13,14.03-2.93,6.19.45,12.36,1.63,18.42,2.97,2.6,0,5.29,0,7.89,0,1.7-.08,3.59.19,5.26-.18,5.56-3.93,12.51-5.93,19.3-5.78,3.33.03,6.59,1.09,9.65,2.33"/><path class="b" d="M7.85,14.69c.83.5,1.83,1.36,2.63,1.91,3.21-.03,6.48.17,9.65-.37,2.04-.18,4.11.48,6.14.37,16.66,0,33.33,0,49.99,0,2.3,0,4.71,0,7.02,0,1.48-.33,2.93-1.28,4.39-1.7,2.51-.86,5.24-1.36,7.89-1.39,3.65-.03,7.51.76,10.52,2.91,1.38.34,2.98.12,4.39.18.78,0,1.85,0,2.63,0,.43-.21,1.32-.62,1.75-.81,6.5-2.61,13.63-.87,20.17.67,2.28.31,4.72.06,7.02.14,3.78,0,7.62,0,11.4,0,.41,0,1.34,0,1.75,0,.87-.23,1.86-.97,2.63-1.4,1.35-.77,2.94-1.52,4.39-2.09,7.13-2.86,14.88-3.46,21.93-.01"/></svg>