<?xml version="1.0" encoding="UTF-8"?><svg id="a" xmlns="http://www.w3.org/2000/svg" width="1920" height="2400" viewBox="0 0 192 240"><defs><style>.b{fill:none;stroke:#fff;stroke-miterlimit:10;stroke-width:.3px;}.c{stroke-width:0px;}</style></defs><rect class="c" width="192" height="240"/><path class="b" d="M8.77,228.52h6.08c10.41-9.46,22.77-13.18,36.46-8.97,4.53,1.35,8.82,3.5,13.02,5.64,2.23,1.21,4.81,1.94,6.94,3.34,2.28-.06,4.68.14,6.94-.11,9.67-7.73,24.98-7.21,35.59-1.65.8.42,1.85,1.04,2.6,1.53,1.63.48,3.52.14,5.21.24,3.16,0,6.39,0,9.55,0,17.36,0,34.72,0,52.08,0"/><path class="b" d="M8.77,226.39c1.98-.11,4.15.26,6.08-.23,2.84-2.58,6.1-4.84,9.55-6.52,12.36-6.15,25.42-3.87,37.32,2.14,1.68.8,3.49,1.7,5.21,2.44,1.45.57,3.09,1.2,4.34,2.16h6.08c9.7-8.28,24.74-7.84,35.59-2.06,1.13.59,2.36,1.46,3.47,2.06,1.39,0,2.95,0,4.34,0,3.45,0,6.97,0,10.42,0,17.36,0,34.72,0,52.08,0"/><path class="b" d="M8.77,224.26h5.21c12.8-10.3,26.18-12.74,41.66-6.91,4.43,1.61,8.63,3.92,13.02,5.64.79.34,1.78,1.01,2.6,1.28,1.69,0,3.52,0,5.21,0,9.99-8.64,25.4-8.43,36.46-1.86.8.48,1.86,1.19,2.6,1.76,1.38.19,2.95.07,4.34.1,3.45,0,6.97,0,10.42,0,17.64,0,35.3,0,52.95,0"/><path class="b" d="M8.77,222.14h5.21c15.12-12.29,31.7-11.61,48.61-3.51,2.56,1.18,5.24,2.35,7.81,3.51,1.09,0,2.38,0,3.47,0,.82,0,1.89.1,2.6-.38,1.92-1.95,4.42-3.42,6.94-4.44,9.25-3.7,20.17-2.47,28.64,2.66,3.61,2.39,2.47,2.22,6.94,2.16,3.16,0,6.39,0,9.55,0,18.22,0,36.46,0,54.68,0"/><path class="b" d="M8.77,220.01h5.21c12.49-9.73,27.01-11,41.66-5.63,4.44,1.56,8.75,3.61,13.02,5.58,1.39.1,2.95.04,4.34.05.78,0,1.85.06,2.6-.19,10.37-10.14,28.35-8.74,39.06.19h68.57"/><path class="b" d="M8.77,217.88c1.69,0,3.52,0,5.21,0,.9-.24,1.84-1.07,2.6-1.56,1.34-.89,2.9-1.8,4.34-2.51,4.83-2.4,10.23-3.71,15.62-3.88,7.43-.25,14.8,1.59,21.7,4.23,2.94,1.06,5.8,2.53,8.68,3.72,2.57,0,5.24,0,7.81,0,9.94-10.08,27.41-9.54,38.19-1.05.4.38,1.18.95,1.74,1.05.44,0,1.3,0,1.74,0,1.09,0,2.38,0,3.47,0,1.99,0,4.09,0,6.08,0,1.38-.25,2.94-.39,4.34-.21,2.26.38,4.66.14,6.94.21,4.03,0,8.12,0,12.15,0,11.28,0,22.57,0,33.85,0"/><path class="b" d="M8.77,215.76h6.08c11.6-8.31,24.98-8.47,38.19-4.27,2.61.8,5.28,1.74,7.81,2.76.78.31,1.84.76,2.6,1.11.39.27,1.26.5,1.74.4,2.87,0,5.81,0,8.68,0,1.48-.93,2.81-2.43,4.34-3.31,2.38-1.52,5.09-2.69,7.81-3.42,9.57-2.55,20.49-.04,27.78,6.71,3.45.04,6.97,0,10.42.02,2.21-.73,4.62-1.16,6.94-.74,1.11.13,2.36.65,3.47.74,1.39,0,2.95,0,4.34,0,3.74,0,7.54,0,11.28,0,10.99,0,22,0,32.98,0"/><path class="b" d="M8.77,213.63c1.69,0,3.52,0,5.21,0,.84.01,1.91.11,2.6-.47,4.13-2.76,8.96-4.5,13.89-5.12,10.11-1.28,20.08,1.94,29.51,5.23.72.39,1.81.38,2.6.36,1.08,0,2.39,0,3.47,0,2.57-.07,5.26.15,7.81-.11,10.94-10.78,28.8-9.94,39.93.11,3.16,0,6.39,0,9.55,0,3.17-1.31,6.17-1.79,9.55-.93.79.19,1.85.52,2.6.82,1.68.22,3.52.06,5.21.11,3.74,0,7.54,0,11.28,0,10.41,0,20.84,0,31.25,0"/><path class="b" d="M8.77,211.51c2.86-.11,5.86.25,8.68-.18,1.6-1.01,3.43-1.93,5.21-2.59,6.65-2.5,14.03-2.22,20.83-.5,3.8.87,7.5,2.36,11.28,3.27,4.03,0,8.12,0,12.15,0,1.39,0,2.95,0,4.34,0,.8,0,1.88.09,2.6-.35,7.44-7.17,18.9-9.51,28.64-6.19,2.41.79,4.82,1.94,6.94,3.31,1.51.88,2.84,2.36,4.34,3.23,2.87,0,5.81,0,8.68,0,1.19.02,2.33-.94,3.47-1.2,2.52-.73,5.29-.58,7.81.07,1.12.27,2.36.83,3.47,1.13,1.39,0,2.95,0,4.34,0,3.45,0,6.97,0,10.42,0,10.41,0,20.84,0,31.25,0"/><path class="b" d="M8.77,209.38c3.16,0,6.39,0,9.55,0,.87-.05,1.83-.7,2.6-1.04,1.63-.73,3.46-1.31,5.21-1.66,3.12-.62,6.41-.64,9.55-.15,2.03.32,4.14.88,6.08,1.58,1.11.36,2.33,1.05,3.47,1.27,2.57,0,5.24,0,7.81,0,4.32,0,8.7,0,13.02,0,1.69,0,3.52,0,5.21,0,.81,0,1.89.09,2.6-.36,7.91-7.62,20.26-9.87,30.38-5.62,2.1.85,4.23,2,6.08,3.32,1.15.75,2.25,2.03,3.47,2.66,2.87,0,5.81,0,8.68,0,1.18-.14,2.33-1.04,3.47-1.33,2.51-.77,5.28-.67,7.81-.07,1.44.3,2.92,1.04,4.34,1.4.44,0,1.3,0,1.74,0,4.32,0,8.7,0,13.02,0,10.12,0,20.26,0,30.38,0"/><path class="b" d="M8.77,207.25c4.03,0,8.12,0,12.15,0,2.81-.82,5.69-1.77,8.68-1.62,1.72.03,3.56.3,5.21.79.78.23,1.79.71,2.6.82,2.57,0,5.24,0,7.81,0,6.06,0,12.16,0,18.23,0,1.99,0,4.09,0,6.08,0,1.39-.05,2.98.15,4.34-.17,11.44-11.02,28.42-10.34,39.93.17,2.87,0,5.81,0,8.68,0,1.2-.06,2.32-1.04,3.47-1.34,2.49-.81,5.27-.76,7.81-.19,1.12.25,2.41.67,3.47,1.11.43.25,1.24.48,1.74.42,4.61,0,9.28,0,13.89,0,10.12,0,20.26,0,30.38,0"/><path class="b" d="M8.77,205.13c10.12,0,20.26,0,30.38,0,1.19.15,2.34-.83,3.47-1.08,1.64-.51,3.49-.76,5.21-.74,1.72.02,3.57.31,5.21.82,1.11.27,2.3,1.14,3.47,1,5.77,0,11.59,0,17.36,0,4.28-3.72,9.07-6.76,14.76-7.74,8.96-1.71,18.68,1.36,25.17,7.74,3.16,0,6.39,0,9.55,0,3.1-1.88,6.9-2.35,10.42-1.54,1.12.24,2.41.65,3.47,1.08.42.24,1.25.48,1.74.47,4.61,0,9.28,0,13.89,0,10.12,0,20.26,0,30.38,0"/><path class="b" d="M8.77,203c8.38,0,16.79,0,25.17,0,.44,0,1.3,0,1.74,0,.81-.31,1.82-.94,2.6-1.31,1.33-.62,2.9-1.13,4.34-1.43,3.13-.65,6.47-.56,9.55.27,1.12.31,2.42.79,3.47,1.3,1.04.55,2.23,1.36,3.47,1.16,3.16,0,6.39,0,9.55,0,1.98-.08,4.12.18,6.08-.15,10.4-10.59,27.1-10.49,38.19-1.02.63.68,1.63,1.35,2.6,1.17,1.09,0,2.38,0,3.47,0,1.69-.05,3.53.13,5.21-.12.42-.25,1.28-.67,1.74-.84,3.04-1.14,6.48-.93,9.55,0,.79.24,1.85.64,2.6.97.77,0,1.83,0,2.6,0,14.17,0,28.36,0,42.53,0"/><path class="b" d="M8.77,200.87h24.3c5.77-3.87,13.31-5.19,19.96-3.01,1.46.47,3.03,1.19,4.34,1.99.42.29,1.28.81,1.74,1.03.44,0,1.3,0,1.74,0,3.16,0,6.39,0,9.55,0,1.09,0,2.38,0,3.47,0,.56.11,1.3-.16,1.74-.5,10.83-10.84,28.18-9.84,39.06.39,3.14.25,6.39.03,9.55.1,1.16-.1,2.33-.91,3.47-1.11,1.66-.39,3.52-.42,5.21-.18,1.76.15,3.48,1.06,5.21,1.29,4.9,0,9.85,0,14.76,0,10.12,0,20.26-.01,30.38,0"/><path class="b" d="M8.77,198.75c7.22,0,14.48,0,21.7,0,1.19-.32,2.35-1.26,3.47-1.76,1.9-.95,4.01-1.74,6.08-2.23,3.96-.95,8.22-.95,12.15.15,2.84.69,5.35,2.35,7.81,3.84,5.19-.01,10.43.03,15.62-.02,10.87-11.55,28.67-10.38,39.93-.04,3.45.13,6.97.02,10.42.05,2.73-1.11,5.83-1.25,8.68-.54,2.48.9,5.23.43,7.81.54,3.74,0,7.54,0,11.28,0,5.2-.05,10.45.19,15.62-.28,4.6.39,9.27.28,13.89.28"/><path class="b" d="M8.77,196.62c6.35,0,12.74,0,19.1,0,1.26.19,2.43-.76,3.47-1.31,1.9-1.03,4.01-1.93,6.08-2.56,5.62-1.74,11.9-1.73,17.36.56,1.14.47,2.44,1.16,3.47,1.82.78.47,1.66,1.38,2.6,1.49,4.9,0,9.85,0,14.76,0,1.59-.79,2.82-2.47,4.34-3.4,2.1-1.49,4.51-2.72,6.94-3.53,10.13-3.45,21.6-.04,29.51,6.81,3.43.31,6.97.04,10.42.12,1.71.11,3.5-.45,5.21-.3,2.85.42,5.8.29,8.68.3,4.03,0,8.12,0,12.15,0,5.48-.06,11.02.16,16.49-.18,4.6.32,9.27.14,13.89.18"/><path class="b" d="M8.77,194.5c6.06,0,12.16,0,18.23,0,1.25.09,2.37-1.07,3.47-1.53,1.91-.99,4.02-1.88,6.08-2.52,8.37-2.68,17.33-1.4,24.3,4.04h15.62c11.75-11.58,28.54-9.92,40.8-.05,21.98.15,43.98,0,65.97.05"/><path class="b" d="M8.77,192.37c5.77,0,11.59,0,17.36,0,1.23-.05,2.37-1.08,3.47-1.55,2.19-1.11,4.58-2.08,6.94-2.76,8.17-2.43,17.66-1.29,24.3,4.31h16.49c11.07-10.86,26.95-9.33,39.06-1.08.73.49,1.67,1.27,2.6,1.08,1.39,0,2.95,0,4.34,0,3.16,0,6.39,0,9.55,0,16.78,0,33.57,0,50.34,0"/><path class="b" d="M8.77,190.24c5.77-.04,11.59.08,17.36-.05,10.64-6.26,24.56-8.18,34.72.05h17.36c11.32-10.13,25.86-8.59,38.19-1.18.44.25,1.3.79,1.74,1.06,1.67.26,3.52.07,5.21.13,3.16,0,6.39,0,9.55,0,16.78,0,33.57,0,50.34,0"/><path class="b" d="M8.77,188.12c5.19,0,10.43,0,15.62,0,1.23.17,2.41-.67,3.47-1.16,1.66-.79,3.47-1.57,5.21-2.17,5.25-1.84,10.99-2.58,16.49-1.57,3.04.56,6.06,1.67,8.68,3.31.79.48,1.71,1.31,2.6,1.59,1.39,0,2.95,0,4.34,0,4.32,0,8.7,0,13.02,0,1.43.26,2.45-.88,3.47-1.66,1.03-.74,2.33-1.52,3.47-2.08,3.75-1.85,7.98-2.75,12.15-2.73,4.76,0,9.5,1.2,13.89,2.99,1.72.7,3.55,1.56,5.21,2.42,1.02.59,2.25,1.24,3.47,1.06,21.12,0,42.25,0,63.36,0"/><path class="b" d="M8.77,185.99c5.48,0,11.01,0,16.49,0,11.36-5.51,23.78-7.88,34.72,0,4.61,0,9.28,0,13.89,0,1.69,0,3.52,0,5.21,0,.82,0,1.88.1,2.6-.38,3.24-2.55,7.23-4.14,11.28-4.8,5.82-.96,11.84.02,17.36,1.98,1.72.61,3.54,1.35,5.21,2.09,1.07.41,2.28,1.26,3.47,1.11,6.64,0,13.32,0,19.96,0,14.75,0,29.52,0,44.27,0"/><path class="b" d="M8.77,183.86c5.77-.1,11.61.21,17.36-.12,7.97-3.91,17.37-5.97,26.04-3.24,1.45.45,3.01,1.11,4.34,1.84,1.09.51,2.18,1.73,3.47,1.53,7.51,0,15.06,0,22.57,0,1.25-.08,2.33-1.26,3.47-1.72,2.15-1.09,4.57-1.86,6.94-2.29,5.19-.93,10.59-.33,15.62,1.11,1.71.49,3.54,1.11,5.21,1.73.77.29,1.84.7,2.6,1,.76.21,1.83.16,2.6.16,21.41,0,42.82,0,64.23,0"/><path class="b" d="M8.77,181.74c5.77,0,11.59,0,17.36,0,.88.07,1.83-.53,2.6-.85,1.37-.59,2.92-1.16,4.34-1.6,5.58-1.71,11.67-2.16,17.36-.7,1.76.45,3.6,1.15,5.21,2,.46.24,1.31.77,1.74,1.05.45.06,1.29.11,1.74.09,8.38,0,16.79,0,25.17,0,.44.02,1.3-.02,1.74-.08.43-.24,1.29-.68,1.74-.88,1.06-.47,2.36-.93,3.47-1.23,6.57-1.78,13.56-.82,19.96,1.16,1.09.31,2.36.81,3.47,1.02,1.39,0,2.95,0,4.34,0,3.45,0,6.97,0,10.42,0,17.93,0,35.88,0,53.81,0"/><path class="b" d="M8.77,179.61c6.35,0,12.74,0,19.1,0,.86-.04,1.83-.59,2.6-.89,1.08-.42,2.36-.86,3.47-1.17,3.64-1.01,7.51-1.43,11.28-1.12,2.33.2,4.75.7,6.94,1.51.8.3,1.85.77,2.6,1.18.45.35,1.18.59,1.74.49,6.64,0,13.32,0,19.96,0,4.32,0,8.7,0,13.02,0,1.71-.28,3.47-1,5.21-1.19,4.02-.61,8.18-.31,12.15.51,1.09.2,2.36.62,3.47.68,2.57,0,5.24,0,7.81,0,5.48,0,11.01,0,16.49,0,16.2,0,32.41,0,48.61,0"/><path class="b" d="M8.77,177.49c7.22,0,14.48,0,21.7,0,5.43-2.29,11.58-3.01,17.36-1.79,1.11.24,2.41.61,3.47,1.02.79.28,1.73.92,2.6.78,43.11,0,86.22,0,129.33,0"/><path class="b" d="M8.77,175.36c8.09,0,16.21,0,24.3,0,3.93-1.1,8.09-1.68,12.15-1.02,2.03.22,4.01,1.23,6.08,1.02,34.72,0,69.44,0,104.16,0,5.77,0,11.59,0,17.36,0,3.45-.12,6.98-.56,10.42,0"/><path class="b" d="M8.77,173.23c1.15.11,2.38-.43,3.47-.71,1.66-.41,3.51-.52,5.21-.36,1.43.13,2.99.49,4.34.98.78.12,1.82.09,2.6.09,8.96,0,17.95,0,26.91,0,35.59,0,71.18,0,106.76,0,4.9,0,9.85,0,14.76,0,3.44-.23,6.98-1.09,10.42-.48"/><path class="b" d="M8.77,169.96c3.92-1.25,8.2-1.51,12.15-.25,1.13.34,2.42.86,3.47,1.4.46,0,1.28,0,1.74,0,7.51,0,15.06,0,22.57,0,28.35,0,56.71,0,85.06,0,13.3,0,26.62,0,39.93,0,3.17-.03,6.36-1.3,9.55-.84"/><path class="b" d="M8.77,166.72c4.28-1.06,8.85-1.06,13.02.48,1.46.43,2.88,1.38,4.34,1.79.79,0,1.82,0,2.6,0,13.59,0,27.2,0,40.8,0,24.01,0,48.03,0,72.04,0,10.7,0,21.42,0,32.12,0,1.08,0,2.39.03,3.47-.04,1.96-.44,4.05-1.09,6.08-.9"/><path class="b" d="M8.77,163.86c4.33-.84,8.87-.73,13.02.85,1.45.51,3,1.23,4.34,1.99.78.21,1.81.16,2.6.16,14.75,0,29.52,0,44.27,0,23.43,0,46.87,0,70.31,0,8.38,0,16.79,0,25.17,0,3.45,0,6.97,0,10.42,0,1.38-.29,2.9-.87,4.34-.78"/><path class="b" d="M8.77,161.34c4.36-.66,8.88-.46,13.02,1.17,1.12.41,2.41.99,3.47,1.54.74.48,1.73.78,2.6.68,11.86,0,23.73,0,35.59,0,25.75,0,51.5,0,77.25,0,8.96,0,17.95,0,26.91,0,3.16,0,6.39,0,9.55,0,2,.03,4.11.03,6.08-.31"/><path class="b" d="M8.77,159.15c4.08-.45,8.28-.32,12.15,1.15,1.12.39,2.41.94,3.47,1.46.46.23,1.26.65,1.74.84.46,0,1.28,0,1.74,0,11.86,0,23.73,0,35.59,0,39.93,0,79.86,0,119.78,0"/><path class="b" d="M8.77,157.31c3.78-.27,7.68-.21,11.28,1.11,1.12.37,2.41.91,3.47,1.42.74.45,1.74.73,2.6.64,14.46,0,28.94,0,43.4,0,37.9,0,75.81,0,113.71,0"/><path class="b" d="M8.77,155.85c2.88-.03,5.87-.2,8.68.57,1.12.28,2.4.7,3.47,1.13.47.18,1.29.56,1.74.77.46.02,1.28.04,1.74.03,15.91,0,31.83,0,47.74,0,28.06,0,56.13,0,84.19,0,1.39,0,2.95.01,4.34-.01,1.96-.36,4.08-.53,6.08-.49,1.7,0,3.52.33,5.21.5,3.74,0,7.54,0,11.28,0"/><path class="b" d="M8.77,154.86c2.29.1,4.69-.1,6.94.37,1.12.21,2.4.58,3.47.96,1.4.06,2.94.02,4.34.03,19.67,0,39.35,0,59.02,0,24.59,0,49.19,0,73.78,0,1.71.09,3.53-.09,5.21-.44,1.68-.24,3.52-.34,5.21-.3,2,.04,4.12.31,6.08.74,3.45,0,6.97,0,10.42,0"/><path class="b" d="M8.77,154.1c45.42,0,90.85,0,136.27,0,4.61,0,9.28,0,13.89,0,2.26-.37,4.65-.66,6.94-.61,2,.02,4.11.26,6.08.61,3.74,0,7.54,0,11.28,0"/><path class="b" d="M8.77,151.97c58.18-.04,116.27,0,174.46,0"/><path class="b" d="M8.77,149.84c15.04,0,30.1,0,45.14,0,5.48,0,11.01,0,16.49,0,3.12-.95,6.23-1.95,9.55-1.89,2.31-.03,4.72.27,6.94.87,1.11.26,2.34.88,3.47,1.02,9.54,0,19.1,0,28.64,0,21.41,0,42.82,0,64.23,0"/><path class="b" d="M8.77,147.72c18.51,0,37.04,0,55.55,0,1.09,0,2.38,0,3.47,0,1.14-.27,2.35-.99,3.47-1.34,2.76-.97,5.76-1.45,8.68-1.45,2.92,0,5.91.47,8.68,1.37.79.26,1.85.66,2.6,1,.42.28,1.24.5,1.74.41,8.38,0,16.79,0,25.17,0,21.7,0,43.4,0,65.1,0"/><path class="b" d="M8.77,145.59c18.51,0,37.04,0,55.55,0,.78,0,1.83.02,2.6-.05,1.06-.55,2.35-1.12,3.47-1.52,3.04-1.07,6.33-1.57,9.55-1.52,2.92.04,5.9.53,8.68,1.41,1.74.39,3.41,1.75,5.21,1.68,7.8,0,15.63,0,23.44,0,16.49,0,32.99,0,49.47,0,2.59.13,5.23-.25,7.81-.32,1.09,0,2.4.12,3.47.31,1.69.01,3.52,0,5.21,0"/><path class="b" d="M8.77,143.47c18.8,0,37.62,0,56.42,0,.85.12,1.86-.31,2.6-.68,1.06-.46,2.36-.91,3.47-1.22,3.36-.93,6.95-1.22,10.42-.93,2.32.2,4.72.68,6.94,1.4,1.11.36,2.41.88,3.47,1.38.77.06,1.83.05,2.6.05,13.01,0,26.05,0,39.06,0,8.96,0,17.95,0,26.91,0,1.14.12,2.42-.3,3.47-.68,1.06-.33,2.38-.67,3.47-.89,3.11-.62,6.4-.82,9.55-.38,2.03.24,4.07,1.04,6.08,1.41"/><path class="b" d="M8.77,140.61c1.97-.33,4.08-.22,6.08-.24,2.58,0,5.24,0,7.81.14,2.89.05,5.79.9,8.68.83,9.25,0,18.53,0,27.78,0,1.69,0,3.52,0,5.21,0,.78,0,1.83.03,2.6-.1.44-.18,1.29-.52,1.74-.67,4.7-1.62,9.85-1.97,14.76-1.21,2.34.37,4.75,1.02,6.94,1.93,6.06.11,12.17,0,18.23.04,12.72,0,25.47,0,38.19,0,2.28,0,4.66,0,6.94,0,.76,0,1.84,0,2.6,0,.78-.22,1.84-.65,2.6-.92,5.52-1.96,11.5-3.05,17.36-2.4,2.34.22,4.66,1.03,6.94,1.51"/><path class="b" d="M8.77,136.69c2.85-.35,5.82-.14,8.68-.08,5.28.18,10.62.88,15.62,2.61,4.61,0,9.28,0,13.89,0,6.93,0,13.9,0,20.83,0,3.12-.66,6.32-1.45,9.55-1.38,2-.01,4.11.17,6.08.52,1.42.17,2.91.87,4.34.85,5.19,0,10.43,0,15.62,0,15.62,0,31.25,0,46.87,0,1.16.13,2.39-.64,3.47-.96,1.67-.6,3.5-1.19,5.21-1.65,8.18-2.3,16.13-2.57,24.3-.05"/><path class="b" d="M8.77,133.26c6.07-.42,12.29.1,18.23,1.41,2.34.55,4.74,1.31,6.94,2.27,1.08.24,2.38.12,3.47.15,26.62,0,53.24,0,79.85,0,6.35,0,12.74,0,19.1,0,2.87,0,5.81,0,8.68,0,1.46-.1,2.94-.96,4.34-1.35,10.82-3.7,22.76-5.43,33.85-1.86"/><path class="b" d="M8.77,130.23c6.1-.39,12.33.28,18.23,1.86,2.04.56,4.15,1.31,6.08,2.17,1.3.82,2.87.73,4.34.7,25.46,0,50.92,0,76.38,0,6.06,0,12.16,0,18.23,0,2.57,0,5.24,0,7.81,0,1.43-.35,2.93-1.06,4.34-1.49,12.49-4.15,26.31-6.04,39.06-1.98"/><path class="b" d="M8.77,127.52c5.83-.35,11.76.37,17.36,2.03,1.73.52,3.56,1.19,5.21,1.91.8.35,1.84.87,2.6,1.27.78.12,1.82.1,2.6.1,24.59,0,49.19,0,73.78,0,5.48,0,11.01,0,16.49,0,2.57,0,5.24,0,7.81,0,1.73-.47,3.49-1.35,5.21-1.88,13.86-4.65,29.31-6.08,43.4-1.6"/><path class="b" d="M8.77,125.11c5.56-.3,11.2.43,16.49,2.15,2.05.66,4.16,1.52,6.08,2.49.46.22,1.29.7,1.74.94.78.02,1.82.02,2.6.02,24.01,0,48.03,0,72.04,0,5.48,0,11.01,0,16.49,0,1.98-.04,4.1.1,6.08-.08,1.97-.8,4.07-1.64,6.08-2.34,14.96-5.24,31.76-5.75,46.87-.84"/><path class="b" d="M8.77,122.98c5.28-.25,10.64.46,15.62,2.24,1.74.61,3.57,1.4,5.21,2.25.46.23,1.29.72,1.74.97.78.17,1.81.13,2.6.13,23.72,0,47.45,0,71.17,0,5.19,0,10.43,0,15.62,0,1.39,0,2.95,0,4.34,0,2.35-.57,4.67-1.61,6.94-2.42,16.26-6.46,34.78-6.04,51.21-.39"/><path class="b" d="M8.77,121.1c7.29-.37,14.65,1.47,20.83,5.36,24.88,0,49.77,0,74.65,0,5.48,0,11.01,0,16.49,0,2.63-.61,5.29-1.51,7.81-2.45,7.47-2.97,15.36-5.14,23.44-5.26,6.41-.17,12.84.66,19.1,2.03,4.08.97,8.28,1.91,12.15,3.54"/><path class="b" d="M8.77,119.47c4.41-.11,8.91.36,13.02,2.06,1.12.44,2.41,1.05,3.47,1.63.47.24,1.3.77,1.74,1.05.47.08,1.27.14,1.74.12,24.01,0,48.03,0,72.04,0,6.06,0,12.16,0,18.23,0,2.57-.94,5.25-1.86,7.81-2.81,8.24-3.41,17.04-5.87,26.04-5.45,6.46.2,12.88,1.51,19.1,3.23,3.77,1.15,7.74,2.06,11.28,3.82"/><path class="b" d="M8.77,118.1c4.46-.07,9.01.47,13.02,2.55.81.39,1.85,1,2.6,1.5,1.09.1,2.38.05,3.47.06,24.01,0,48.03,0,72.04,0,5.77,0,11.59,0,17.36,0,1.19.15,2.42-.61,3.47-1.05,1.37-.6,2.94-1.23,4.34-1.78,9.27-4.05,18.4-6.8,28.64-5.76,6.22.54,12.31,2.21,18.23,4.16,1.99.66,4.1,1.39,6.08,2.1,1.74.64,3.68,1.25,5.21,2.32"/><path class="b" d="M8.77,116.99c2.9.11,5.93.1,8.68,1.14.81.28,1.85.73,2.6,1.12.76.43,1.71.97,2.6.82,15.91,0,31.83,0,47.74,0,1.99,0,4.09,0,6.08,0,3.62-1.21,7.46-1.95,11.28-1.93,3.8,0,7.66.58,11.28,1.72,1.94.45,4.1.11,6.08.21,4.32,0,8.7,0,13.02,0,1.47-.47,2.92-1.45,4.34-2.06,2.26-1.04,4.65-2.09,6.94-3.07,12.42-5.49,24.7-5.07,37.32-.48,3.19,1.11,6.41,2.37,9.55,3.62,2.36.83,4.3,2.26,6.94,1.98"/><path class="b" d="M8.77,116.14c1.99.2,4.13.09,6.08.61,1.14.26,2.36.89,3.47,1.2.79,0,1.82,0,2.6,0,14.46,0,28.94,0,43.4,0,2.87,0,5.81,0,8.68,0,3.29-1.53,6.79-2.76,10.42-3.16,4.63-.57,9.4-.12,13.89,1.11,2.06.47,4.05,1.54,6.08,2.04,1.39,0,2.95,0,4.34,0,3.45,0,6.97,0,10.42,0,0,0,.87-.04.87-.04l.87-.54c1.06-.64,2.37-1.37,3.47-1.94,4.19-2.11,8.49-4.19,13.02-5.45,10.07-2.99,20.88-1.17,30.38,2.9,3.78,1.56,7.57,3.28,11.28,5,1.68.13,3.52.04,5.21.06"/><path class="b" d="M8.77,115.57c4.01.49,8.12.17,12.15.26,2.87,0,5.81,0,8.68,0,1.4-.08,2.93-.38,4.34-.33,1.1,0,2.39.12,3.47.29,1.69.07,3.52.02,5.21.04,5.48,0,11.01,0,16.49,0,4.03,0,8.12,0,12.15,0,1.65-.91,3.43-1.92,5.21-2.58,6.62-2.56,14.07-2.45,20.83-.48,2.04.59,4.15,1.39,6.08,2.3,1.3.88,2.85.78,4.34.75,3.74,0,7.54,0,11.28,0,.95.08,1.84-.81,2.6-1.25,1.06-.68,2.37-1.43,3.47-2.02,4.1-2.26,8.44-4.28,13.02-5.35,9.67-2.44,19.85-.15,28.64,4.19,2,.95,4.1,2.02,6.08,3.03,1.07.46,2.26,1.44,3.47,1.41,2.28,0,4.67,0,6.94,0"/><path class="b" d="M8.77,113.7c5.77,0,11.59,0,17.36,0,1.98-.25,4.05-.82,6.08-.71,1.71.02,3.55.27,5.21.68,2.87.06,5.81,0,8.68.03,8.09,0,16.21,0,24.3,0,10.37-7.5,23.87-6.45,34.72-.54.67.56,1.78.58,2.6.54,1.09,0,2.39,0,3.47,0,3.16,0,6.39,0,9.55,0,13.03-9.59,26.52-12.89,41.66-5.92,2.34,1.05,4.71,2.33,6.94,3.6,1.4.73,2.84,1.82,4.34,2.31,3.16,0,6.39,0,9.55,0"/><path class="b" d="M8.77,111.57c4.9,0,9.85,0,14.76,0,1.98-.4,4.03-1.04,6.08-1.03,2.32-.06,4.74.31,6.94,1.03,1.09,0,2.38,0,3.47,0,10.12-.08,20.27.17,30.38-.09,7.44-6.1,17.95-7.11,26.91-4.13,2.67.84,5.34,2.01,7.81,3.33.43.24,1.28.7,1.74.9,1.09,0,2.38,0,3.47,0,3.74,0,7.54,0,11.28,0,.93-.2,1.84-1.11,2.6-1.62,1.36-.96,2.91-1.98,4.34-2.83,3.48-2.05,7.32-3.66,11.28-4.46,10.41-2.28,20.94,1.67,29.51,7.45.74.47,1.75,1.21,2.6,1.46,1.08,0,2.39,0,3.47,0,2.57,0,5.24,0,7.81,0"/><path class="b" d="M8.77,109.44c4.03,0,8.12,0,12.15,0,1.14-.07,2.36-.71,3.47-.91,1.37-.31,2.94-.47,4.34-.45,2.37-.04,4.71.7,6.94,1.36,1.09,0,2.38,0,3.47,0,10.41,0,20.84,0,31.25,0,11.43-9.18,24.56-6.91,36.46,0,5.48,0,11.01,0,16.49,0,3.36-2.31,6.6-5.01,10.42-6.59,8.79-4.1,19.26-3.34,27.78,1.1,3.02,1.51,5.93,3.44,8.68,5.39,4.31.24,8.7.02,13.02.1"/><path class="b" d="M8.77,107.32c3.45,0,6.97,0,10.42,0,3.75-1.73,8.13-2.32,12.15-1.24,1.14.26,2.34.99,3.47,1.24,1.99,0,4.09,0,6.08,0,1.68-.4,3.44-1.12,5.21-1.08,2.04-.06,4.18.36,6.08,1.09,6.35,0,12.74,0,19.1,0,6.82-6.05,16.67-7.41,25.17-4.49,2.06.67,4.16,1.58,6.08,2.58,1.37.56,2.84,2.06,4.34,1.91,6.06,0,12.16,0,18.23,0,1.2-.68,2.35-1.87,3.47-2.66,1.86-1.39,3.97-2.67,6.08-3.64,8.5-4.05,18.69-3.24,26.91,1.15,2.72,1.39,5.35,3.15,7.81,4.95,1.65.41,3.52.12,5.21.2,2.87,0,5.81,0,8.68,0"/><path class="b" d="M8.77,105.19c1.69,0,3.52,0,5.21,0,1.09-.04,2.43.16,3.47-.24,5.02-2.56,11.75-3.25,16.49.24h4.34c3.64-2.84,8.7-3.2,13.02-1.89,1.47.42,2.97,1.22,4.34,1.89,1.4,0,2.95,0,4.34,0,2.57,0,5.24,0,7.81,0,1.67-.13,3.65.33,5.21-.33,6.13-5.26,15.01-6.43,22.57-3.89,2.08.67,4.19,1.64,6.08,2.75,1.05.57,2.19,1.67,3.47,1.47,4.9,0,9.85,0,14.76,0,1.69,0,3.52,0,5.21,0,.81,0,1.9.1,2.6-.4,2.97-2.81,6.56-5.11,10.42-6.5,10.97-4.06,22.31.04,31.25,6.78,4.59.31,9.28.03,13.89.12"/><path class="b" d="M8.77,103.07c1.99-.01,4.09.03,6.08-.03,1.32-.81,2.88-1.57,4.34-2.07,4.77-1.62,10.91-1.75,14.76,1.94,1.08.2,2.48.35,3.47-.21.92-.98,2.24-1.85,3.47-2.36,5.75-2.38,12.46-.87,17.36,2.73,5.19,0,10.43,0,15.62,0,.97.03,1.83-.93,2.6-1.39,1.57-1,3.42-1.84,5.21-2.37,6.44-1.87,13.86-.55,19.1,3.69,9.53.11,19.11.14,28.64-.01,6.41-6.58,16.25-9.34,25.17-7.22,5.67,1.23,10.83,4.12,15.62,7.3h13.02"/><path class="b" d="M8.77,100.94c1.09,0,2.38,0,3.47,0,.91-.05,1.83-.83,2.6-1.23,1.05-.58,2.35-1.17,3.47-1.58,5.45-1.98,12.44-1.84,16.49,2.81h1.74c4-5.18,11.51-5.87,17.36-3.84,1.47.5,3.03,1.27,4.34,2.1,1.07.59,2.14,1.96,3.47,1.74,5.19-.03,10.43.06,15.62-.04,5.53-3.75,13.68-4.35,19.1-.11,1.67.29,3.52.08,5.21.14,3.43-1.93,7.76-1.62,11.28-.1,2.27.22,4.67.04,6.94.1,3.45,0,6.97,0,10.42,0,.98.2,1.98-.57,2.6-1.23,1.02-.88,2.32-1.83,3.47-2.53,3.14-1.9,6.77-3.11,10.42-3.51,8.66-1.02,17.02,2.57,24.3,6.93,1.28.64,2.95.24,4.34.35,2.57,0,5.24,0,7.81,0"/><path class="b" d="M8.77,98.81c.78,0,1.83,0,2.6,0,.45-.23,1.32-.74,1.74-1.02,1.6-.97,3.43-1.84,5.21-2.44,5.42-1.79,13.03-1.83,16.49,3.45.43,0,1.3,0,1.74-.03,2.01-3.68,6.43-5.27,10.42-5.55,5.74-.45,11.27,1.97,15.62,5.58,6.06,0,12.16,0,18.23,0,1.94-.56,4.03-1.14,6.08-.96,1.13.07,2.44.38,3.47.85,1.68.23,3.52.06,5.21.11,1.89-1.17,3.86-2.49,6.08-2.96,3.1-.79,6.46-.74,9.55.09,2.13.57,4.26,1.57,6.08,2.82,5.48.14,11.01.01,16.49.05,8.51-7.79,20-8.38,30.38-4.22,12.46,5.08,4.67,4.19,19.1,4.22"/><path class="b" d="M8.77,96.69c.44,0,1.3,0,1.74,0,.83-.32,1.83-1.01,2.6-1.45,1.61-.92,3.44-1.75,5.21-2.32,5.46-1.72,13.19-1.7,16.49,3.77.49.09,1.32-.13,1.74-.39,4.07-6.49,13.46-6.73,19.96-4.17,2.15.85,4.27,2.09,6.08,3.53,1.1,1.32,2.82,1.03,4.34,1.04,7.51,0,15.06,0,22.57,0,1.33.24,2.44-.9,3.47-1.55,1.58-1,3.43-1.85,5.21-2.43,7.25-2.45,15.66-1.15,21.7,3.6.69.48,1.81.4,2.6.39,1.08,0,2.39,0,3.47,0,3.45,0,6.97,0,10.42,0,7.9-6.96,19.06-7.43,28.64-4.03,2.03.68,4.13,1.52,6.08,2.41,1.39.51,2.8,1.75,4.34,1.62,2.57,0,5.24,0,7.81,0"/><path class="b" d="M8.77,94.56c.44,0,1.3,0,1.74-.03.44-.26,1.3-.79,1.74-1.04,1.61-.95,3.44-1.83,5.21-2.45,5.75-2.03,13.61-2.04,17.36,3.53h.87c.52-.37,1.41-1.4,1.74-1.96.71-.75,1.71-1.62,2.6-2.13,5.53-3.18,12.55-2.75,18.23-.17,2.16.98,4.28,2.36,6.08,3.91,1.28.66,2.95.25,4.34.36,1.99,0,4.09,0,6.08,0,3.74,0,7.54,0,11.28,0,5.74-3.6,12.2-6.49,19.1-6.51,5.19-.09,10.42,1.43,14.76,4.28,3.58,2.56,2.44,2.26,6.94,2.22,2.87,0,5.81,0,8.68,0,1.77-.07,3.85.41,5.21-1.02,8.6-6.17,20.13-5.07,29.51-1.36,1.73.66,3.57,1.47,5.21,2.33,2.57.13,5.24.02,7.81.06"/><path class="b" d="M8.77,92.43c.44,0,1.3,0,1.74,0,.82-.34,1.83-.98,2.6-1.4,1.34-.73,2.9-1.43,4.34-1.93,4.44-1.52,9.66-1.85,13.89.44,1.41.66,2.18,2.2,3.47,2.89h.87c2.43-3.86,6.83-5.94,11.28-6.3,6.61-.64,13.3,1.94,18.23,6.3,3.74,0,7.54,0,11.28,0,1.09,0,2.38,0,3.47,0,1.16.08,2.49-.03,3.47-.72,14.35-8.04,28.12-10.27,41.66.72,5.77,0,11.59,0,17.36,0,6.67-4.61,13.79-5.69,21.7-4.22,4.19.78,8.33,2.15,12.15,4.04,2.24.41,4.67.08,6.94.18"/><path class="b" d="M8.77,90.31c.78,0,1.83,0,2.6,0,1.92-1.09,3.98-2.21,6.08-2.91,5.47-1.91,12.53-1.89,16.49,2.91.44.03,1.31-.04,1.74-.14,2.09-3.67,6.4-5.42,10.42-5.97,6.88-.92,13.87,1.67,19.1,6.11,4.61-.07,9.29.15,13.89-.09,8.89-4.45,18.44-9.01,28.64-8.07,4.9.39,9.7,2.04,13.89,4.59,1.12.68,2.43,1.56,3.47,2.36.38.38,1.23,1.02,1.74,1.21,3.45,0,6.97,0,10.42,0,2.57,0,5.24,0,7.81,0,1.63.17,2.89-1.49,4.34-2.03,1.88-.93,4.02-1.57,6.08-1.92,5.2-.87,10.6-.15,15.62,1.35,2.36.64,4.65,1.78,6.94,2.6,1.69,0,3.52,0,5.21,0"/><path class="b" d="M8.77,88.18c1.09,0,2.38,0,3.47,0,1.76-.55,3.42-1.74,5.21-2.27,5.14-1.84,11.57-1.84,15.62,2.27h1.74c1.42-1.17,2.64-2.88,4.34-3.72,4.97-2.78,11.13-2.88,16.49-1.22,2.1.65,4.22,1.64,6.08,2.83,1.15.58,2.15,2,3.47,2.11,3.74,0,7.54,0,11.28,0,1.38-.69,2.94-1.43,4.34-2.08,16.56-8.07,31.78-10.5,46.87,2.08,7.22-.02,14.48.04,21.7-.02,6.03-4.82,14.57-4.54,21.7-2.73,2.66.66,5.29,1.71,7.81,2.76,1.39,0,2.95,0,4.34,0"/><path class="b" d="M8.77,86.06c1.98-.12,4.17.3,6.08-.26,3.42-1.79,7.43-2.75,11.28-2.18,1.85.28,3.8.99,5.21,2.26,1.06.27,2.39.22,3.47.07,6.81-8.35,21.18-6.43,28.64.11,3.45,0,6.97,0,10.42,0,1.8-.31,3.49-1.54,5.21-2.17,3.4-1.5,6.9-2.99,10.42-4.2,7.74-2.71,16.32-3.79,24.3-1.49,3.02.84,5.97,2.17,8.68,3.74,1.88,1.05,3.85,2.35,5.21,4.05,1.98.16,4.09.04,6.08.07.83-.02,1.82-.55,2.6-.76,1.07-.29,2.37-.45,3.47-.45,1.1,0,2.41.17,3.47.46.79.21,1.78.72,2.6.75,1.98-.05,4.1.13,6.08-.11,5.56-4.41,13.4-4.1,19.96-2.54,2.64.65,5.3,1.59,7.81,2.62,1.09.04,2.39.02,3.47.03"/><path class="b" d="M8.77,83.93c2.57,0,5.24,0,7.81,0,2.18-.88,4.58-1.55,6.94-1.54,2.08-.02,4.27.47,6.08,1.54,1.39,0,2.95,0,4.34,0,7.37-7.28,20.07-6.49,27.78-.12,3.43.3,6.97.04,10.42.12,5.78-2.17,11.42-4.95,17.36-6.76,8.64-2.84,18.29-3.61,26.91-.29,4.05,1.69,8.43,3.6,11.28,7.05,1.39,0,2.95,0,4.34,0,.9-.04,1.8-.82,2.6-1.15,1.6-.68,3.47-1.03,5.21-1.06,1.72-.03,3.57.23,5.21.76,1.15.31,2.31,1.19,3.47,1.44,1.69,0,3.52,0,5.21,0,5.28-4.29,12.81-3.96,19.1-2.52,2.02.48,4.12,1.14,6.08,1.83.43.15,1.31.47,1.74.62.77.09,1.83.07,2.6.07"/><path class="b" d="M8.77,81.8c4.91-.03,9.87.14,14.76-.24,2.86.33,5.81.23,8.68.24,1.38.26,2.43-1,3.47-1.68,1.29-.84,2.87-1.56,4.34-2.02,6.71-2.07,14.47-.71,19.96,3.7,3.45,0,6.97,0,10.42,0,7.74-2.84,15.36-6.28,23.44-8.08,8.67-2,18.11-1.41,26.04,2.83,2.44,1.36,5.14,2.74,6.94,4.93,1.29.61,2.95.23,4.34.33,4.9-4.17,13.09-3.74,18.23-.19,1.06.31,2.38.15,3.47.19,1.27.08,2.5,0,3.47-.93,5.18-3.11,11.67-2.73,17.36-1.43,1.71.4,3.54.94,5.21,1.47.77.25,1.85.58,2.6.89.42,0,1.31,0,1.74,0"/><path class="b" d="M8.77,79.68c8.09-.02,16.21.05,24.3-.03,5.02-4.05,12.12-4.95,18.23-3.24,1.45.41,3.02,1.05,4.34,1.78,1.06.57,2.17,1.7,3.47,1.49,3.16-.04,6.39.09,9.55-.06,2.58-.84,5.25-1.73,7.81-2.62,7.62-2.65,15.32-5.61,23.44-6.18,9.33-.73,19.4,2.03,26.04,8.86h3.47c5.38-4.75,14.03-4.45,19.96-.87.89.92,2.29.93,3.47.87,1.45-.02,3.2.27,4.34-.86,5.2-3.07,11.68-2.6,17.36-1.31,1.71.4,3.53.92,5.21,1.43,1.07.31,2.32.87,3.47.75"/><path class="b" d="M8.77,77.55c7.8,0,15.63,0,23.44,0,1.75-.64,3.38-1.91,5.21-2.42,4.16-1.41,8.81-1.49,13.02-.21,1.13.35,2.43.88,3.47,1.45.45.24,1.32.8,1.74,1.1.44.05,1.3.09,1.74.08,2.87,0,5.81,0,8.68,0,2.91-.51,5.84-1.43,8.68-2.26,7.15-2.19,14.24-4.95,21.7-5.91,10.09-1.41,20.46.75,27.78,8.18,1.09-.02,2.39.08,3.47-.11,5.99-5.66,17.19-4.7,23.44.11,1.69,0,3.52,0,5.21,0,1.37-.73,2.82-1.69,4.34-2.11,4.78-1.48,9.96-.96,14.76.17,1.7.4,3.53.92,5.21,1.41.75.27,1.79.64,2.6.54"/><path class="b" d="M8.77,75.42c7.8,0,15.63,0,23.44,0,5.37-2.85,11.48-3.95,17.36-2,1.48.45,2.98,1.29,4.34,2,.44,0,1.3,0,1.74,0,3.16,0,6.39,0,9.55,0,2.87-.61,5.85-1.16,8.68-1.95,10.19-2.85,20.47-7,31.25-5.88,6.08.65,12.72,2.71,16.49,7.82,1.09.01,2.39.04,3.47-.04,6.85-6.06,18.99-5.36,26.04.05,1.98-.11,4.15.27,6.08-.23,1.26-.89,2.85-1.57,4.34-1.96,4.54-1.18,9.37-.71,13.89.31,1.4.32,2.96.73,4.34,1.13,1.08.27,2.33.88,3.47.75"/><path class="b" d="M8.77,73.14c1.96.35,4.09.08,6.08.16,3.45,0,6.97,0,10.42,0,2.28,0,4.66,0,6.94,0,.85-.09,1.82-.67,2.6-.96,1.06-.41,2.36-.8,3.47-1.02,3.43-.69,7.09-.52,10.42.58,1.13.34,2.34,1.07,3.47,1.41,1.09,0,2.38,0,3.47,0,3.16,0,6.39,0,9.55,0,3.19-.33,6.43-1.03,9.55-1.81,7.46-1.97,14.82-4.73,22.57-5.32,6.2-.49,12.82.22,18.23,3.51.84.52,1.91,1.37,2.6,2.07.25.49,1.24,1.32,1.74,1.54,1.36.04,2.55.13,3.47-1.05,1.27-.9,2.88-1.57,4.34-2.09,6.74-2.29,14.59-1.87,20.83,1.66.45.27,1.32.88,1.74,1.21.74.35,1.81.28,2.6.27,1.39-.07,2.99.18,4.34-.21,5.11-3.25,11.64-2.88,17.36-1.76,1.71.35,3.53.82,5.21,1.31,1.07.34,2.33.78,3.47.66"/><path class="b" d="M8.77,70.5c1.91,1.02,4,.6,6.08.67,3.16,0,6.39,0,9.55,0,2.87,0,5.81,0,8.68,0,2.52-.8,5.13-1.73,7.81-1.76,2.01-.09,4.14.15,6.08.67,1.12.25,2.32.96,3.47,1.08,1.99,0,4.09,0,6.08,0,4.03,0,8.12,0,12.15,0,2.32-.02,4.69-.77,6.94-1.28,8.79-2.41,17.65-5.67,26.91-5.01,5.39.37,11.23,1.92,14.76,6.29h2.6c.84-.54,1.75-1.54,2.6-2.06,1.29-.78,2.9-1.25,4.34-1.65,7.17-1.87,15.34-1.31,21.7,2.7.39.33,1.25.85,1.74,1.01.77,0,1.83,0,2.6,0,1.39-.11,3.06.3,4.34-.36,5.23-2.96,11.65-2.6,17.36-1.49,1.71.35,3.54.82,5.21,1.32,1.05.42,2.34.62,3.47.52"/><path class="b" d="M8.77,67.97c.8.29,1.8.8,2.6,1.07,1.4,0,2.94,0,4.34,0,3.16,0,6.39,0,9.55,0,3.16,0,6.39,0,9.55,0,3.04-1.03,6.38-1.34,9.55-.82,1.11.16,2.38.57,3.47.82,2.87,0,5.81,0,8.68,0,5.77,0,11.59,0,17.36,0,2.68.14,5.26-1.19,7.81-1.86,3.96-1.25,8.03-2.4,12.15-2.98,5.48-.76,11.33-.67,16.49,1.53,1.56.68,3.18,1.72,4.34,2.98,1.01.53,2.37.27,3.47.33.94-.35,1.78-1.44,2.6-1.98,2.01-1.41,4.56-1.98,6.94-2.39,7.07-1.11,14.94-.16,20.83,4.15,1.04.37,2.38.18,3.47.22,1.39-.05,2.97.13,4.34-.14,5.2-2.99,11.63-2.75,17.36-1.74,1.71.32,3.54.76,5.21,1.25,1.33.54,2.91.73,4.34.63"/><path class="b" d="M8.77,65.53c.81.32,1.85.83,2.6,1.26,2.26.3,4.67.06,6.94.13,4.32,0,8.7,0,13.02,0,1.99,0,4.09,0,6.08,0,1.39-.11,2.94-.31,4.34-.22,3.15.35,6.39.18,9.55.22,4.9,0,9.85,0,14.76,0,3.45,0,6.97,0,10.42,0,1.69-.03,3.53.08,5.21-.08,1.08-.41,2.38-.89,3.47-1.26,6.91-2.32,14.54-3.64,21.7-1.69,2.2.53,4.19,1.83,6.08,3.03,1.39,0,2.95,0,4.34,0,2.01-1.72,4.3-3.33,6.94-3.89,7.53-1.73,16.05-.92,22.57,3.44.95.72,2.36.39,3.47.46,1.69-.05,3.53.12,5.21-.12,5.52-3,12.21-2.71,18.23-1.65,2.02.38,4.13.91,6.08,1.55,1.05.35,2.38.18,3.47.21"/><path class="b" d="M8.77,63.15c1.14.43,2.31,1.28,3.47,1.64.79,0,1.82,0,2.6,0,3.16,0,6.39,0,9.55,0,8.67,0,17.37,0,26.04,0,11.57,0,23.15,0,34.72,0,.77,0,1.83,0,2.6-.03,1.93-.77,4.04-1.39,6.08-1.79,5.16-.95,10.89-.97,15.62,1.55.74.34,1.82.27,2.6.27,1.39,0,2.95,0,4.34,0,1.26-.36,2.29-1.62,3.47-2.17,5.26-2.79,11.66-2.75,17.36-1.51,3.1.63,5.96,2.14,8.68,3.68,2.57,0,5.24,0,7.81,0,2.24-.82,4.53-1.86,6.94-2.13,4.6-.69,9.35-.3,13.89.63,1.71.36,3.55.84,5.21,1.4,1.07.15,2.39.07,3.47.09"/><path class="b" d="M8.77,60.84c1.44.48,2.79,1.97,4.34,1.83,3.16,0,6.39,0,9.55,0,7.51,0,15.06,0,22.57,0,15.91,0,31.83,0,47.74,0,1.71.08,3.52-.09,5.21-.39,1.98-.22,4.11-.18,6.08.15,1.66.39,3.52.18,5.21.23,2.28,0,4.66,0,6.94,0,.52,0,1.36-.46,1.74-.81,1.02-.68,2.33-1.35,3.47-1.8,4.68-1.75,9.95-1.67,14.76-.49,2.42.62,4.87,1.6,6.94,3,1.68.19,3.52.05,5.21.09,1.39-.04,2.97.11,4.34-.12.39-.22,1.32-.6,1.74-.77,2.47-.93,5.19-1.38,7.81-1.54,4.05-.23,8.18.19,12.15,1.01,1.71.36,3.55.83,5.21,1.4,1.08.04,2.39.02,3.47.02"/><path class="b" d="M8.77,58.57c1.14.53,2.41,1.31,3.47,1.97,13.59,0,27.2,0,40.79,0,8.38-.1,16.81.29,25.17-.32,2.29-.1,4.65.41,6.94.32,8.09,0,16.21,0,24.3,0,2.86-.03,5.82.07,8.68-.05,2.33-1.48,5.07-2.49,7.81-2.86,3.46-.47,7.09-.11,10.42.93,1.46.46,3.03,1.15,4.34,1.95.76.05,1.84.04,2.6.04,2.28,0,4.66,0,6.94,0,1.46-.19,2.89-1.14,4.34-1.44,2.23-.62,4.64-.95,6.94-1.06,4.35-.21,8.76.25,13.02,1.1,1.71.35,3.55.81,5.21,1.37,1.08.05,2.39.03,3.47.03"/><path class="b" d="M8.77,56.37c1.14.55,2.42,1.34,3.47,2.04,13.3,0,26.62,0,39.93,0,6.35,0,12.74,0,19.1,0,2.58-.2,5.2-.94,7.81-.96,1.99-.09,4.1-.01,6.08.25,1.41.12,2.92.7,4.34.71,6.06,0,12.16,0,18.23,0,4.03,0,8.12,0,12.15,0,1.15-.14,2.36-.86,3.47-1.15,1.64-.5,3.49-.76,5.21-.77,2.96,0,6,.61,8.68,1.88,3.16.08,6.39.01,9.55.03.78,0,1.87.07,2.6-.26,1.34-.6,2.91-1.11,4.34-1.44,3.95-.92,8.11-1.09,12.15-.85,3.48.22,7.01.71,10.42,1.48,1.41.27,2.92.87,4.34,1.07.76,0,1.84,0,2.6,0"/><path class="b" d="M8.77,54.27c1.13.56,2.39,1.38,3.47,2.02,13.88,0,27.78,0,41.66,0,6.35,0,12.74,0,19.1,0,2.85-.49,5.77-1.13,8.68-1.18,2.29-.08,4.68.05,6.94.4,1.41.15,2.92.77,4.34.77,6.35,0,12.74,0,19.1,0,5.49-.05,11.02.18,16.49-.25,6.04.48,12.16.17,18.23.25,7.87-3.45,16.83-3.14,25.17-1.98,2,.3,4.11.68,6.08,1.16.77.19,1.85.49,2.6.74.75.1,1.84.08,2.6.08"/><path class="b" d="M8.77,52.31c1.13.53,2.27,1.5,3.47,1.85,2.87,0,5.81,0,8.68,0,6.35,0,12.74,0,19.1,0,11.86,0,23.73,0,35.59,0,1.43.1,2.95-.37,4.34-.59,1.97-.32,4.08-.48,6.08-.48,2.3,0,4.69.24,6.94.69,1.66.5,3.5.37,5.21.38,13.01,0,26.05,0,39.06,0,2.57,0,5.24,0,7.81,0,3.56-1.51,7.45-2.32,11.28-2.68,6.36-.57,12.82,0,19.1,1.08,1.4.25,2.97.57,4.34.93,1.07.29,2.34.79,3.47.67"/><path class="b" d="M8.77,50.31c.81.43,1.84,1.08,2.6,1.58.78.19,1.81.14,2.6.14,2.58,0,5.24,0,7.81,0,6.64,0,13.32,0,19.96,0,12.44-.02,24.89,0,37.32,0,1.43.1,2.94-.43,4.34-.63,2.26-.36,4.66-.51,6.94-.43,2.61.05,5.26.55,7.81,1.06,2.57,0,5.24,0,7.81,0,10.41,0,20.84,0,31.25,0,1.98,0,4.09,0,6.08,0,3.61-1.34,7.45-2.21,11.28-2.6,5.47-.57,11.04-.3,16.49.33,4.08.47,8.21,1.09,12.15,2.27"/><path class="b" d="M8.77,48.15c.81.44,1.84,1.1,2.6,1.62,1.67.3,3.52.09,5.21.15,3.74,0,7.54,0,11.28,0,5.19,0,10.43,0,15.62,0,2.28,0,4.66,0,6.94,0,1.07-.34,2.36-.63,3.47-.78,2.27-.32,4.68-.28,6.94.09,1.4.21,2.9.8,4.34.69,5.48,0,11.01,0,16.49,0,.81.03,1.83-.35,2.6-.53,1.37-.33,2.93-.59,4.34-.73,3.16-.31,6.42-.19,9.55.34,1.71.22,3.47,1,5.21.91,9.83,0,19.68,0,29.51,0,2.86-.05,5.82.11,8.68-.08,3.92-1.25,8.05-2.03,12.15-2.35,5.77-.47,11.61-.06,17.36.53,4.03.53,8.24.65,12.15,1.83"/><path class="b" d="M8.77,45.86c1.13.55,2.23,1.62,3.47,1.92,1.99,0,4.09,0,6.08,0,4.61,0,9.28,0,13.89,0,5.48,0,11.01,0,16.49,0,.51.08,1.3-.11,1.74-.35,1.07-.41,2.36-.78,3.47-1.01,2.83-.58,5.83-.63,8.68-.21,2.03.3,4.14.86,6.08,1.53,2.57.11,5.24.02,7.81.05,2.28,0,4.66,0,6.94,0,1.97-.55,4.03-1.26,6.08-1.52,3.13-.48,6.41-.49,9.55-.08,2.34.26,4.68,1,6.94,1.6,4.9,0,9.85,0,14.76,0,5.77,0,11.59,0,17.36,0,4.86-.93,9.77-2.02,14.76-2.08,6.09-.23,12.18.54,18.23,1.12,4.02.44,8.14.41,12.15.96"/><path class="b" d="M8.77,43.48c1.13.62,2.36,1.53,3.47,2.17,11.57,0,23.15,0,34.72,0,.79,0,1.83.03,2.6-.11,1.61-.81,3.45-1.45,5.21-1.85,4.56-1.05,9.39-.72,13.89.49,1.43.37,2.98.9,4.34,1.48,3.74,0,7.54,0,11.28,0,1.16-.07,2.36-.82,3.47-1.11,2.22-.68,4.63-1.06,6.94-1.18,3.79-.18,7.68.31,11.28,1.5.77.25,1.78.73,2.6.79,1.69,0,3.52,0,5.21,0,6.64,0,13.32,0,19.96,0,5.16-.8,10.38-1.63,15.62-1.56,3.17.01,6.42.29,9.55.78,1.7.19,3.5.8,5.21.78,6.35,0,12.74,0,19.1,0"/><path class="b" d="M8.77,41.04c1.14.63,2.44,1.48,3.47,2.29,1.94.43,4.1.1,6.08.2,4.32,0,8.7,0,13.02,0,6.06-.03,12.17.05,18.23-.03,2.39-1.37,5.11-2.29,7.81-2.78,6.41-1.08,13.21.06,19.1,2.76,3.15.12,6.39.02,9.55.05,3.22-1.6,6.83-2.47,10.42-2.56,2.9-.1,5.89.24,8.68,1.02,1.44.35,2.92,1.14,4.34,1.54.43,0,1.31,0,1.74,0,4.03,0,8.12,0,12.15,0,4.9-.45,9.84-1.09,14.76-1.31,3.45-.17,6.98-.14,10.42.27,2.32.16,4.62,1.15,6.94,1.03,9.25,0,18.53,0,27.78,0"/><path class="b" d="M8.77,38.57c1.48.77,2.98,1.87,4.34,2.84,9.83,0,19.68,0,29.51,0,2.28,0,4.66,0,6.94,0,.85-.18,1.82-.83,2.6-1.2,5.91-2.86,12.76-3.09,19.1-1.7,2.03.4,4.15.96,6.08,1.71,1.11.35,2.26,1.35,3.47,1.19,2.28-.05,4.67.11,6.94-.09,1.57-.93,3.43-1.59,5.21-1.97,3.11-.66,6.42-.7,9.55-.17,1.43.25,2.99.67,4.34,1.21.78.3,1.76.91,2.6,1.02,1.99,0,4.09,0,6.08,0,.77,0,1.83,0,2.6,0,.42-.16,1.31-.45,1.74-.59,3.92-1.14,8.1-1.22,12.15-1.32,5.51-.03,11.21.08,16.49,1.84,1.98.16,4.09.04,6.08.08,1.39-.11,3.08.33,4.34-.4,5.09-2.34,11.01-2.91,16.49-1.83,1.44.3,3.02.81,4.34,1.46.94.7,2.33.87,3.47.77"/><path class="b" d="M8.77,36.09c6.43,3.48,2.48,3.27,10.42,3.19,5.48,0,11.01,0,16.49,0,4.9,0,9.85,0,14.76,0,4.86-2.68,10-4.37,15.62-4.12,4.38.25,8.84.91,13.02,2.31,1.47.42,2.88,1.41,4.34,1.82.78,0,1.83,0,2.6,0,1.09,0,2.39.03,3.47-.04,1.01-.64,2.32-1.19,3.47-1.52,3.65-1.02,7.65-.99,11.28.06,1.14.33,2.44.92,3.47,1.5.77,0,1.83,0,2.6,0,1.39-.06,2.99.18,4.34-.2,1.86-.99,4.02-1.63,6.08-2.03,5.42-1.03,11.05-.77,16.49-.1,2.94.41,5.98,1.02,8.68,2.3,2.28.06,4.66.01,6.94.03.9-.07,1.83-.86,2.6-1.25,1.33-.7,2.91-1.33,4.34-1.78,7.61-2.32,16.35-2.46,23.44,1.51"/><path class="b" d="M8.77,33.63c1.84.88,3.75,2.03,5.21,3.46,10.11.15,20.26,0,30.38.05,2.28,0,4.66,0,6.94,0,.86-.23,1.83-.92,2.6-1.32,4.76-2.51,10.29-3.48,15.62-2.91,3.78.3,7.64.79,11.28,1.87,1.77.53,3.64,1.27,5.21,2.27,1.97.19,4.1.13,6.08.03,2.88-1.52,6.38-1.78,9.55-1.16.8.17,1.86.51,2.6.85.41.26,1.26.47,1.74.38,1.39,0,2.95,0,4.34,0,2.62-1.63,5.66-2.6,8.68-3.17,7.61-1.48,18.35-.74,25.17,3.09,1.98.17,4.09.04,6.08.08,2.17-1.4,4.47-2.83,6.94-3.65,8.31-2.91,17.91-3.58,26.04.22"/><path class="b" d="M8.77,31.24c2.3.89,4.11,2.41,6.08,3.79,10.12-.06,20.25.02,30.38,0,1.69,0,3.52,0,5.21,0,.78,0,1.83.04,2.6-.12.44-.28,1.28-.82,1.74-1.07,4.97-2.87,10.83-3.72,16.49-3.19,4.67.24,9.42.81,13.89,2.24,1.77.51,3.51,1.45,5.21,2.14,4.61,0,9.28,0,13.89,0,1.58.21,2.94-1.03,4.34-1.56,2.2-.94,4.61-1.64,6.94-2.13,9.25-1.91,19.61-1.47,27.78,3.69h5.21c3.85-3.39,8.96-5.02,13.89-6.12,6.87-1.43,14.28-1.46,20.83,1.31"/><path class="b" d="M8.77,28.92c2.21.87,4.47,2.11,6.08,3.9,1.69.17,3.52.05,5.21.08,1.65-.51,3.46-.99,5.21-.87,1.75-.02,3.5.7,5.21.87,4.9,0,9.85,0,14.76,0,1.99,0,4.09,0,6.08,0,.78,0,1.83,0,2.6,0,.47-.16,1.33-.63,1.74-.92,3.15-1.88,6.76-3.12,10.42-3.48,4.02-.24,8.13-.09,12.15.22,4.09.35,8.18,1.17,12.15,2.18,4.79,1.34,8.22,1.61,13.02.05,12.58-3.75,27.67-6.19,39.06,1.95,1.09,0,2.38,0,3.47,0,.51.09,1.31-.13,1.74-.41,2.22-1.98,5.05-3.31,7.81-4.36,8.8-3.16,18.86-4.45,27.78-1.03"/><path class="b" d="M8.77,26.72c1.47.52,3.06,1.26,4.34,2.16,1.05.72,2.02,2.18,3.47,1.9,1.09-.04,2.42.14,3.47-.22,1.53-.91,3.44-1.32,5.21-1.37,1.71-.05,3.56.21,5.21.68,1.1.26,2.31,1.04,3.47.91,7.22,0,14.48,0,21.7,0,5.3-3.59,10.2-4.53,16.49-4.47,6.09-.24,12.2.37,18.23,1.16,4.61.65,9.33.36,13.89-.57,6.85-1.35,13.84-2.23,20.83-2.06,5.89.32,11.85,2.22,16.49,5.93,1.09,0,2.38,0,3.47,0,.51.09,1.31-.14,1.74-.43,2.23-1.99,5.05-3.33,7.81-4.41,9.04-3.33,19.37-5,28.64-1.66"/><path class="b" d="M8.77,24.65c1.47.47,3.06,1.16,4.34,2.02.82.54,1.7,1.57,2.6,1.98h3.47c3.44-2.59,8.11-2.73,12.15-1.71,1.12.29,2.42.75,3.47,1.22.41.27,1.24.53,1.74.48,6.93-.02,13.9.04,20.83-.02,4.58-3.28,9.27-4.08,14.76-4.28,6.06-.49,12.17-.2,18.23.11,4.63.24,9.31-.15,13.89-.8,5.74-.81,11.56-1.37,17.36-1.29,6.83-.23,13.83,1.83,19.1,6.27,1.69-.04,3.53.1,5.21-.09,4.11-3.61,9.57-5.32,14.76-6.77,7.34-1.88,15.31-2.63,22.57-.05"/><path class="b" d="M8.77,22.73c1.82.52,3.74,1.34,5.21,2.56.62.71,1.61,1.43,2.6,1.23.79,0,1.86.07,2.6-.24,1.19-1.05,2.81-1.82,4.34-2.22,2.81-.73,5.86-.64,8.68,0,1.44.33,3,.86,4.34,1.48.77.34,1.72,1.05,2.6.99,6.64-.02,13.32.04,19.96-.03,4.01-2.87,8.25-3.56,13.02-3.96,8.06-1.06,16.22-.53,24.3-1.03,8.08-.64,16.18-1.8,24.3-1.41,7.2-.13,13.48,1.88,19.1,6.43,1.98-.12,4.16.28,6.08-.24,2.55-2.03,5.66-3.37,8.68-4.52,9.06-3.24,19.26-5.49,28.64-2.31"/><path class="b" d="M8.77,20.99c2.24.55,4.55,1.61,6.08,3.39,1.09.02,2.38,0,3.47.01,4.48-3.93,10.95-4.38,16.49-2.77,1.44.41,3.01,1.04,4.34,1.74.78.37,1.68,1.2,2.6,1.04,6.35,0,12.74,0,19.1,0,1.59-1,3.4-1.92,5.21-2.44,2.24-.61,4.66-.83,6.94-1.23,8.03-1.3,16.21-1.26,24.3-1.93,9.51-.93,19.12-1.42,28.64-.32,4.41.76,8.74,2.68,12.15,5.59,1,.54,2.38.28,3.47.34,1.39,0,2.95.02,4.34-.02,4.44-3,9.67-4.69,14.76-6.24,7.28-2.1,15.24-3.23,22.57-.71"/><path class="b" d="M8.77,19.46c1.86.41,3.81,1.23,5.21,2.56,1.3.42,3.01.33,4.34.08,4.7-4.61,12.22-4.83,18.23-3.06,1.45.44,3.01,1.09,4.34,1.8.79.42,1.78,1.1,2.6,1.44.45,0,1.29,0,1.74,0,5.77,0,11.59,0,17.36,0,1.1-.48,2.33-1.2,3.47-1.59,1.64-.58,3.51-.84,5.21-1.22,9.98-2.16,20.24-2.54,30.38-3.4,6.05-.46,12.18-.46,18.23.12,7.2.38,11.55,1.63,17.36,6.09,13.53-.02,6.27.77,18.23-3.73,8.77-3.22,18.58-6.07,27.78-2.91"/><path class="b" d="M8.77,18.17c1.51.3,3.13.94,4.34,1.92,1.39.11,2.95.04,4.34.06,5.55-5.1,13.85-5.93,20.83-3.63,1.77.58,3.61,1.42,5.21,2.38.79.43,1.64,1.35,2.6,1.25,5.77,0,11.59,0,17.36,0,1.2.16,2.4-.57,3.47-.97,1.07-.37,2.38-.66,3.47-.95,7.64-2.09,15.55-3.09,23.44-3.73,7.2-.64,14.49-1.04,21.7-.34,3.74.44,7.61.69,11.28,1.52,3.17.82,5.99,2.67,8.68,4.47,4.61,0,9.28,0,13.89,0,10.7-3.96,22.26-10.15,33.85-6.05"/><path class="b" d="M8.77,17.18c.81.16,1.84.53,2.6.84,1.69,0,3.51,0,5.21,0,.6-.04,1.36-.63,1.74-1.05.75-.59,1.76-1.3,2.6-1.75,3.43-1.84,7.41-2.64,11.28-2.55,3.58.09,7.19.97,10.42,2.51,1.14.54,2.43,1.3,3.47,2.02.4.4,1.17.79,1.74.82,5.77,0,11.59,0,17.36,0,.81.01,1.88.07,2.6-.35,1.09-.35,2.38-.75,3.47-1.09,2.83-.87,5.78-1.66,8.68-2.24,13.7-2.52,27.92-3.33,41.66-.69,2.65.38,5.42.82,7.81,2.11,1.14.57,2.44,1.38,3.47,2.15.76.14,1.83.11,2.6.11,3.16,0,6.39,0,9.55,0,2.28,0,4.66,0,6.94,0,1.41-.06,3.1.27,4.34-.56,8.14-4.29,17.8-8.04,26.91-4.62"/></svg>