<?xml version="1.0" encoding="UTF-8"?><svg id="a" xmlns="http://www.w3.org/2000/svg" width="1920" height="2400" viewBox="0 0 192 240"><defs><style>.b{fill:none;stroke:#fff;stroke-miterlimit:10;stroke-width:.3px;}.c{stroke-width:0px;}</style></defs><rect class="c" width="192" height="240"/><path class="b" d="M9.02,228.94c4.89,0,9.83,0,14.71,0,1.97-.39,4.04-.88,6.06-.87,2.02-.05,4.12.32,6.06.87,1.69,0,3.51,0,5.19,0,2.86,0,5.8,0,8.66,0,1.08,0,2.38,0,3.46,0,.49.09,1.32-.12,1.73-.39,4.34-4.81,10.08-8.44,16.45-9.82,5.35-1.34,11.09-1.68,16.44-.21,3.88,1.06,7.62,3.09,10.39,6.03.48.51,1.34,1.62,1.73,2.2.22.59,1.13,1.91,1.73,2.19.78,0,1.85.06,2.6-.21,1.09-1.15,2.74-1.88,4.33-1.9,1.56-.03,3.22.63,4.33,1.73.71.47,1.79.38,2.6.37,1.18-.54,1.74-2.35,2.6-3.25,1.38-1.65,3.23-3.11,5.19-3.99,10.69-4.27,22.54.66,31.16,7.24h28.56"/><path class="b" d="M9.02,226.82c9.51,0,19.05,0,28.56,0,3.15,0,6.37,0,9.52,0,1.97-.1,4.13.23,6.06-.2,3.85-4.04,8.58-7.4,13.85-9.3,12.22-4.26,26.86-2.63,33.76,9.5h2.6c2.55-2.26,6.23-2.67,8.66,0h2.6c1.91-3.16,4.33-6.26,7.79-7.8,6.59-2.86,14.28-1.85,20.77.81,2.74,1.14,5.43,2.65,7.79,4.45.82.63,1.88,1.56,2.6,2.29.42.17,1.28.31,1.73.25,9.22,0,18.47,0,27.7,0"/><path class="b" d="M9.02,224.7h42.41c5.23-4.72,11.21-8.97,18.18-10.59,10.83-2.98,25.04-.4,30.29,10.57,1.09.02,2.39.1,3.46-.09,2.31-2.16,5.47-1.83,7.79.12h2.6c3.53-6.97,9.61-10.16,17.31-9.98,8.01.23,16.48,3.45,21.64,9.76,1.34.42,2.94.15,4.33.23,1.11.09,2.35-.49,3.46-.49,1.72-.16,3.49.54,5.19.49,5.76,0,11.55,0,17.31,0"/><path class="b" d="M9.02,222.58c13.84-.09,27.72.17,41.55-.1,9.35-8.61,22.84-14.1,35.49-10.47,3.89,1.13,7.6,3.23,10.39,6.19,1.31,1.2,2.07,3.3,3.46,4.38.77,0,1.83,0,2.6,0,.49-.09,1.34-.52,1.73-.82.73-.35,1.79-.58,2.6-.54,1.22.03,2.43.78,3.46,1.36.77,0,1.83,0,2.6,0,2.78-4.68,6.56-8.62,12.12-9.68,9.73-1.96,20.94,1.46,26.83,9.68.44,0,1.3,0,1.73,0,.89-.3,1.75-1.25,2.6-1.65,2.68-1.25,5.87-1.03,8.66-.24,1.12.32,2.42.83,3.46,1.35.4.28,1.24.58,1.73.55,4.31,0,8.67,0,12.98,0"/><path class="b" d="M9.02,220.46c13.55-.08,27.14.15,40.68-.08,6.49-5.3,14.16-9.56,22.5-10.93,10.01-1.78,21.8,1.59,26.83,11.01,1.08,0,2.38,0,3.46,0,1.1-.33,2.27-1.1,3.46-1.08,1.19-.06,2.44.54,3.46,1.08.77,0,1.83,0,2.6,0l.87-.51c3.87-7.66,11.7-10.52,19.91-9.63,6.71.77,14.25,3.71,17.31,10.15h.87c.61-.21,1.41-1.14,1.73-1.68.67-.67,1.72-1.4,2.6-1.75,5.89-2.31,12.25.32,17.31,3.43,3.44,0,6.95,0,10.39,0"/><path class="b" d="M9.02,218.34c8.36,0,16.74,0,25.1,0,3.15,0,6.37,0,9.52,0,1.39,0,2.94,0,4.33,0,.93.18,1.91-.53,2.6-1.07,11.68-8.36,28.41-14.32,41.54-5.81,1.55,1.02,3.12,2.39,4.33,3.8.81.87,1.48,2.53,2.6,3.07,1.08,0,2.38,0,3.46,0,1.11-.2,2.3-.89,3.46-.8.83.03,1.88.4,2.6.8,1.08,0,2.38,0,3.46,0,4.73-7.05,9.48-10.19,18.18-10.09,6.99.2,15.51,2.91,18.18,10.01l.87.08c3.29-7.23,12.84-6.69,19.04-3.9,9.62,4.63,2.81,3.88,14.71,3.9"/><path class="b" d="M9.02,216.22c10.09,0,20.2,0,30.29,0,2.27,0,4.65,0,6.92,0,.77,0,1.83,0,2.6,0,.83-.34,1.83-1.04,2.6-1.51,7.14-4.28,14.99-7.99,23.37-8.77,8.83-.83,18.59,2.43,23.37,10.28,1.69,0,3.51.02,5.19-.02.73-.33,1.79-.54,2.6-.49.45.03,1.32.26,1.73.44,1.38.13,2.94.05,4.33.07,4.75-6.85,9.68-9.86,18.18-9.68,6.47.19,14.38,2.83,16.44,9.62l.87-.08c1.37-4.81,6.6-6.99,11.25-7.02,6.74-.16,12.97,3.14,18.18,7.15h6.06"/><path class="b" d="M9.02,214.1c9.22,0,18.47,0,27.7,0,2.86,0,5.8,0,8.66,0,1.39,0,2.94,0,4.33,0,.76-.45,1.82-1.04,2.6-1.47,11.4-6.13,25.7-11.69,38.08-5.11,1.87.99,3.73,2.35,5.19,3.88.79.78,1.55,2.22,2.6,2.71,2.58.04,5.23.01,7.79-.24,1.96.38,4.08.19,6.06.24,1.15-.42,1.77-2.05,2.6-2.87,1.21-1.36,2.77-2.67,4.33-3.61,7.66-4.63,23.05-3.35,25.97,6.48,1.27-.82,1.54-2.8,2.6-3.89,2.16-2.48,5.45-3.81,8.65-4.24,8.55-1.12,15.96,3.15,22.5,8.13h4.33"/><path class="b" d="M9.02,211.98c11.24,0,22.51,0,33.76,0,2.85-.07,5.81.14,8.66-.1,1.08-.54,2.37-1.17,3.46-1.68,6.36-2.84,12.94-5.72,19.91-6.55,8.19-.94,17.47,1.41,22.5,8.34h15.58c1.19-1.06,2.22-2.69,3.46-3.71,2.19-1.91,4.92-3.38,7.79-3.93,7.05-1.45,16.32.02,19.04,7.64.97-1.12,1.62-3.08,2.6-4.2,2.57-2.99,6.53-4.54,10.39-4.95,8.69-.9,16.97,3.48,23.37,9.01,1.07.22,2.38.11,3.46.13"/><path class="b" d="M9.02,209.86c12.11,0,24.24,0,36.35,0,2.86,0,5.8,0,8.66,0,1.4-.55,2.93-1.24,4.33-1.8,6.13-2.42,12.38-5.11,19.04-5.46,5.39-.32,11.02.77,15.58,3.75,1.58.89,2.8,2.59,4.33,3.52,5.47,0,10.98,0,16.44,0,1.34-.65,2.23-2.31,3.46-3.15,1.75-1.41,3.88-2.54,6.06-3.11,4.87-1.1,10.54-1.14,14.71,1.95,1.51,1,2.23,3.08,3.46,4.32,4.5-10.57,17.22-12.01,26.83-7.94,3.06,1.25,6,3.02,8.65,4.99,1.12.83,2.41,1.88,3.46,2.79.75.21,1.82.17,2.6.17"/><path class="b" d="M9.02,207.74c13.27,0,26.55,0,39.81,0,2.57,0,5.22,0,7.79,0,.78,0,1.84.05,2.6-.17.77-.31,1.83-.73,2.6-1.03,4.5-1.74,9.04-3.68,13.85-4.37,7.22-1.12,15.44.13,20.77,5.47,6.32.27,12.71.02,19.04.1.92-.44,1.8-1.51,2.6-2.12,1.51-1.17,3.35-2.13,5.19-2.64,5.46-1.42,12.95-1.12,15.58,4.76h.87c3.82-8.88,14.45-12.11,23.37-10.07,6.95,1.4,12.79,5.69,18.18,10.07h1.73"/><path class="b" d="M9.02,205.62c14.71,0,29.43,0,44.14,0,3.44,0,6.95,0,10.39,0,1.83.16,3.53-1.01,5.19-1.61,8.82-3.7,19.75-4.49,27.7,1.61h21.64c1.87-1.22,3.81-2.63,6.06-3.07,4.15-.99,9.62-.99,12.12,3.07h1.73c4.36-8.72,14.99-12.5,24.23-10.58,7.32,1.35,13.53,5.8,19.04,10.58h1.73"/><path class="b" d="M9.02,203.5c14.71,0,29.43,0,44.14,0,5.76,0,11.55,0,17.31,0,1.48.03,2.91-1.02,4.33-1.38,2.21-.76,4.6-1.33,6.92-1.58,3.46-.38,7.08-.1,10.39,1.04,1.47.43,2.88,1.45,4.33,1.92,1.08,0,2.38,0,3.46,0,7.49,0,15.01.01,22.5,0,2.64-1.19,5.83-1.78,8.66-.94.46.15,1.34.61,1.73.89,1.08.08,2.38.04,3.46.05,7.26-10.89,20.21-14.05,32.02-8.71,3.08,1.38,6.02,3.28,8.65,5.38,1.12.9,2.41,2.02,3.46,3,.71.42,1.8.34,2.6.34"/><path class="b" d="M9.02,201.38c17.31,0,34.63,0,51.93,0,5.47,0,10.98,0,16.44,0,3.3-1.22,6.84-2.09,10.39-1.96,2.98,0,5.9.91,8.66,1.96,1.39,0,2.94,0,4.33,0,7.49,0,15.01,0,22.5,0,4.01-.11,8.13.22,12.12-.14,6.84-10.36,20.87-13.87,32.02-8.69,3.1,1.35,6.04,3.25,8.66,5.39,1.13.92,2.42,2.09,3.46,3.11,1,.54,2.37.28,3.46.34"/><path class="b" d="M9.02,199.26c17.02,0,34.05,0,51.07,0,7.2,0,14.44,0,21.64,0,1.13.05,2.36-.59,3.46-.77,1.66-.36,3.5-.54,5.19-.49,2.34,0,4.68.67,6.92,1.26,3.44,0,6.95,0,10.39,0,8.93-.1,17.92.2,26.83-.11,6.09-8.08,16.86-12.59,26.83-10.23,6.76,1.41,12.44,5.64,17.31,10.34h4.33"/><path class="b" d="M9.02,197.14c23.94,0,47.9,0,71.84,0,1.39,0,2.94,0,4.33,0,2.25-.51,4.59-1.13,6.92-1.07,2.32-.04,4.7.46,6.92,1.07,2.57,0,5.22,0,7.79,0,6.05,0,12.13,0,18.18,0,2.27,0,4.65,0,6.92,0,2.57.25,2.67-.66,4.33-2.3,12.52-12.18,29.17-10.08,40.68,2.3h6.06"/><path class="b" d="M9.02,195.02c17.88,0,35.78,0,53.66,0,7.78,0,15.59,0,23.37,0,1.13.11,2.37-.46,3.46-.67,1.66-.35,3.5-.51,5.19-.45,2.34-.03,4.65.77,6.92,1.13,3.73,0,7.52,0,11.25,0,4.6,0,9.25,0,13.85,0,2.56-.11,5.27.25,7.79-.19,11.45-13,29.25-12.6,40.68.19h7.79"/><path class="b" d="M9.02,192.9c23.94,0,47.9,0,71.84,0,2.27,0,4.65,0,6.92,0,2.19-.78,4.6-1.24,6.92-1.28,2.92-.12,5.86.52,8.66,1.28,1.39,0,2.94,0,4.33,0,6.05,0,12.13,0,18.18,0,2.86,0,5.8,0,8.66,0,1.31-.61,2.31-2.09,3.46-2.93,10.89-9.19,26.07-7.6,35.49,2.88,3.14.13,6.37.02,9.52.05"/><path class="b" d="M9.02,190.78c23.94,0,47.9,0,71.84,0,2.27,0,4.65,0,6.92,0,2.51-.73,5.14-1.44,7.79-1.42,2.9-.05,5.89.41,8.66,1.29,1.66.28,3.51.08,5.19.14,6.05,0,12.13,0,18.18,0,2.57,0,5.22,0,7.79,0,1.33-.49,2.3-1.97,3.46-2.75,10.07-8.03,24.19-6.6,32.89,2.75h11.25"/><path class="b" d="M9.02,188.66c17.59,0,35.2,0,52.8,0,8.65,0,17.32,0,25.97,0,2.51-.76,5.14-1.47,7.79-1.48,1.99-.06,4.1.13,6.06.5,1.41.21,2.91.85,4.33.98,10.38,0,20.78,0,31.16,0,7.4-7.59,19.7-9.06,28.56-3.16,1.52.85,2.79,2.4,4.33,3.16,4.31,0,8.67,0,12.98,0"/><path class="b" d="M9.02,186.54c1.98,0,4.08,0,6.06,0,3.42-.43,6.94-.68,10.39-.43,4.59.55,9.24.43,13.85.43,6.91,0,13.86,0,20.77,0,6.33,0,12.71,0,19.04,0,2.86,0,5.8,0,8.66,0,1.06-.38,2.35-.77,3.46-.99,3.11-.62,6.4-.6,9.52-.09,2.3.35,4.56,1.33,6.92,1.08,10.38,0,20.78,0,31.16,0,5.56-4.93,13.73-6.65,20.77-4.23,1.79.6,3.63,1.52,5.19,2.59.77.5,1.65,1.46,2.6,1.64,5.18,0,10.4,0,15.58,0"/><path class="b" d="M9.02,184.42c3.85.22,7.41-.79,11.25-.76,2.28-.04,4.66.08,6.92.33,1.69.2,3.49.53,5.19.43,13.84,0,27.7,0,41.54,0,4.31,0,8.67,0,12.98,0,2.82-.67,5.72-1.47,8.66-1.36,2,0,4.11.25,6.06.66,1.1.19,2.34.74,3.46.7,8.93,0,17.9,0,26.83,0,3.15,0,6.37,0,9.52,0,2.14-1.25,4.46-2.44,6.92-2.91,2.82-.6,5.86-.55,8.66.17,1.45.38,3.02,1.01,4.33,1.75.69.45,1.71,1.17,2.6.99,6.33,0,12.71,0,19.04,0"/><path class="b" d="M9.02,182.3c1.72.09,3.51-.11,5.19-.39,1.97-.23,4.07-.34,6.06-.33,4.05-.11,8.08.87,12.12.72,13.55,0,27.13,0,40.68,0,4.6-.07,9.26.14,13.85-.09,3.6-1.15,7.52-1.34,11.25-.86,1.72.15,3.49.81,5.19.95,26.55,0,53.08-.02,79.63,0"/><path class="b" d="M9.02,180.18c3.45.14,6.94-.38,10.39-.38,4.03.03,8.08.54,12.12.38,17.88,0,35.78,0,53.66,0,3.37-.86,6.92-1.27,10.39-.9,2.31.12,4.61,1.05,6.92.9,8.65,0,17.32,0,25.97,0,8.07,0,16.17,0,24.23,0,3.73-.4,7.46-1.52,11.25-1.49,1.99-.04,4.11.13,6.06.58,1.1.2,2.33.88,3.46.91,3.15,0,6.37,0,9.52,0"/><path class="b" d="M9.02,178.06c16.44,0,32.89,0,49.33,0,5.47,0,10.98,0,16.44,0,2.57,0,5.22,0,7.79,0,1.11.03,2.36-.44,3.46-.57,2.54-.4,5.23-.45,7.79-.19,1.71.09,3.49.72,5.19.76,4.89,0,9.83,0,14.71,0,8.36,0,16.74,0,25.1,0,3.98-1.04,8.05-1.98,12.12-2.61,5.7-.88,11.65-1.31,17.31.04,2.09.51,4.25,1.33,6.06,2.52,2.85.12,5.8.02,8.66.05"/><path class="b" d="M9.02,175.94c15.57,0,31.16,0,46.74,0,5.47,0,10.98,0,16.44,0,2.57-.03,5.23.07,7.79-.05,1.07-.27,2.37-.52,3.46-.66,4.33-.65,8.72-.06,12.98.71,4.6,0,9.25,0,13.85,0,8.07,0,16.17,0,24.23,0,.76,0,1.83,0,2.6,0,.42-.17,1.32-.54,1.73-.73,1.93-.82,4.04-1.57,6.06-2.16,9.74-2.74,21.79-3.56,30.29,2.83,2.56.14,5.22.02,7.79.06"/><path class="b" d="M9.02,173.82c14.71,0,29.43,0,44.14,0,6.33,0,12.71,0,19.04,0,2.64.24,5.18-.86,7.79-1.09,3.14-.37,6.39-.3,9.52.15,1.71.17,3.48.84,5.19.93,4.89,0,9.83,0,14.71,0,6.05,0,12.13,0,18.18,0,2.86,0,5.8,0,8.66,0,1.51-.35,2.89-1.51,4.33-2.08,11.08-5.28,25.55-5.94,35.49,2.08h6.92"/><path class="b" d="M9.02,171.7c13.55,0,27.13,0,40.68,0,6.62,0,13.28,0,19.91,0,2.52-.76,5.14-1.58,7.79-1.77,5.26-.59,10.52.43,15.58,1.77,4.89,0,9.83,0,14.71,0,6.62,0,13.28,0,19.91,0,2.27,0,4.65,0,6.92,0,.41,0,1.31,0,1.73,0,.87-.26,1.83-1.04,2.6-1.51,11.01-6.98,27.22-7.84,37.22,1.38,2.25.3,4.65.06,6.92.13"/><path class="b" d="M9.02,168.49c1.09.37,2.32.92,3.46,1.09.79,0,1.81,0,2.6,0,2.28,0,4.65,0,6.92,0,6.62,0,13.28,0,19.91,0,8.07,0,16.17,0,24.23,0,1.19,0,2.35-.9,3.46-1.22,2.19-.79,4.6-1.22,6.92-1.35,3.47-.19,7.02.24,10.39,1.1,1.73.34,3.45,1.27,5.19,1.48,4.89,0,9.83,0,14.71,0,6.62,0,13.28,0,19.91,0,2.27,0,4.65,0,6.92,0,.76,0,1.83,0,2.6,0,.5-.15,1.35-.7,1.73-1.06,8.46-6.52,20.36-8.44,30.29-4.33,1.78.73,3.62,1.71,5.19,2.82,1.16.7,2.16,2.15,3.46,2.57,1.98,0,4.08,0,6.06,0"/><path class="b" d="M9.02,165.24c1.98.74,4.07,1.51,6.06,2.22,4.89,0,9.82,0,14.71,0,10.67,0,21.36,0,32.02,0,.78,0,1.82,0,2.6,0,1.77-.44,3.41-1.7,5.19-2.18,3.04-.99,6.35-1.23,9.52-.95,2.62.23,5.3.82,7.79,1.65,1.42.38,2.86,1.32,4.33,1.48,4.02,0,8.1,0,12.12,0,10.96,0,21.93,0,32.89,0,1.3-.41,2.32-1.76,3.46-2.47,1.58-1.14,3.42-2.21,5.19-3.01,7.59-3.5,16.7-3.46,24.23.17,1.8.86,3.65,2,5.19,3.27.75.61,1.65,1.71,2.6,2.04,1.98,0,4.08,0,6.06,0"/><path class="b" d="M9.02,162.35c2.29.96,4.75,1.79,6.92,2.99,4.6,0,9.25,0,13.85,0,9.51,0,19.05,0,28.56,0,1.69,0,3.51,0,5.19,0,.81-.34,1.82-.97,2.6-1.37,3.42-1.84,7.4-2.55,11.25-2.26,2.93.2,5.9.9,8.66,1.93,1.43.45,2.85,1.43,4.33,1.71,3.15,0,6.37,0,9.52,0,11.82,0,23.66,0,35.49,0,1.44.29,2.49-1.1,3.46-1.93,1.55-1.31,3.39-2.53,5.19-3.47,7.43-3.93,16.65-4.11,24.23-.51,1.79.84,3.63,1.95,5.19,3.17,1.16.75,2.11,2.34,3.46,2.73,1.98,0,4.08,0,6.06,0"/><path class="b" d="M9.02,159.74c2.29,1.07,4.8,1.98,6.92,3.37,4.29.28,8.68.03,12.98.11,9.22,0,18.47,0,27.7,0,2.27-.1,4.69.24,6.92-.19,3.53-2.44,7.79-3.93,12.12-3.74,2.93.08,5.91.71,8.66,1.71,1.76.55,3.44,1.68,5.19,2.21,2.86,0,5.8,0,8.66,0,11.82,0,23.66,0,35.49,0,4.07.22,3.15-.47,6.06-2.8,2.06-1.67,4.47-3.1,6.92-4.1,9.96-4.18,22.32-1.26,29.43,6.86,2.27.09,4.65.02,6.92.04"/><path class="b" d="M9.02,157.37c2.31,1.16,4.77,2.29,6.92,3.72,10.67,0,21.36,0,32.02,0,3.15,0,6.37,0,9.52,0,1.98-.07,4.1.17,6.06-.15,1.82-1.29,3.92-2.42,6.06-3.07,3.64-1.07,7.61-.85,11.25.11,2.76.61,5.22,2.09,7.79,3.11,4.89,0,9.83,0,14.71,0,10.96,0,21.93,0,32.89,0,1.57-.95,2.79-2.69,4.33-3.72,2.8-2.14,6.1-3.75,9.52-4.6,6.73-1.71,14.08-.32,19.91,3.41,1.15.73,2.45,1.71,3.46,2.62.78.68,1.67,1.82,2.6,2.29h6.92"/><path class="b" d="M9.02,155.24c2,1.16,4.23,2.2,6.06,3.63,1.67.24,3.51.07,5.19.12,6.05,0,12.13,0,18.18,0,5.76,0,11.55,0,17.31,0,2.57,0,5.22,0,7.79,0,1.47-.56,2.84-1.74,4.33-2.31,4.63-2.06,10.04-1.57,14.71.11,1.11.4,2.41.97,3.46,1.52.68.48,1.76.77,2.6.68,4.89,0,9.83,0,14.71,0,10.96,0,21.93,0,32.89,0,10.59-12.29,28.34-12.21,38.95,0h7.79"/><path class="b" d="M9.02,153.31c1.7,1.09,3.61,2.14,5.19,3.39,2.53.37,5.23.06,7.79.16,6.05,0,12.13,0,18.18,0,8.07,0,16.17,0,24.23,0,1.24-.05,2.32-1.21,3.46-1.64,2.12-1.01,4.58-1.47,6.92-1.44,3.93.02,7.78,1.3,11.25,3.08,4.02,0,8.1,0,12.12,0,11.82,0,23.66,0,35.49,0,.41,0,1.31,0,1.73,0,1.33-.64,2.29-2.22,3.46-3.1,2.03-1.77,4.44-3.29,6.92-4.34,9.79-4.35,21.94-.95,28.56,7.34,2.84.25,5.8.04,8.66.1"/><path class="b" d="M9.02,151.59c1.39.97,2.99,2.02,4.33,3.07,12.97.2,25.97,0,38.95.07,4.6,0,9.25,0,13.85,0,1.21.16,2.32-.96,3.46-1.25,1.62-.58,3.47-.86,5.19-.87,3.29-.08,6.47,1.02,9.52,2.12,6.62,0,13.28,0,19.91,0,6.62,0,13.28,0,19.91,0,2.27,0,4.65,0,6.92,0,1.39-.12,3.09.34,4.33-.41,10.22-11.99,28.14-12.17,38.08.26,3.11.38,6.38.05,9.52.16"/><path class="b" d="M9.02,150.08c1.09.79,2.3,1.85,3.46,2.54,12.98,0,25.97,0,38.95,0,6.33,0,12.71,0,19.04,0,1.67-.31,3.48-.72,5.19-.64,1.72-.04,3.5.52,5.19.64,5.76,0,11.55,0,17.31,0,11.82,0,23.66,0,35.49,0,4.25-4.41,9.43-8.12,15.58-9.2,8.69-1.73,18.12,2.03,23.37,9.14,3.43.14,6.95.02,10.39.06"/><path class="b" d="M9.02,148.78c2.19,2.02,2.37,1.73,5.19,1.71,2.57,0,5.22,0,7.79,0,3.73,0,7.52,0,11.25,0,2.1-1.14,4.54-1.83,6.92-1.98,2.31-.15,4.73.18,6.92.9,1.12.27,2.28,1.2,3.46,1.08,7.49,0,15.01,0,22.5,0,19.61,0,39.24,0,58.86,0,1.47-1.13,2.83-2.72,4.33-3.82,2.82-2.2,6.08-3.97,9.52-4.98,9.54-2.95,20.07.83,25.97,8.79h11.25"/><path class="b" d="M9.02,148.05c.75.42,1.78.34,2.6.33,1.39,0,2.94,0,4.33,0,4.31,0,8.67,0,12.98,0,1.26-.05,2.32-1.26,3.46-1.71,1.87-.93,3.99-1.59,6.06-1.89,5.38-.81,11.01.57,15.58,3.49,8.92.31,17.9.01,26.83.11,16.44,0,32.89,0,49.33,0,6.37-6.24,15.07-10.97,24.23-9.71,4.41.55,8.7,2.42,12.12,5.27,1.61,1.21,2.84,3.12,4.33,4.45h12.12"/><path class="b" d="M9.02,146.26h17.31c9.42-7.18,21.65-6.9,31.16-.02,23.65.07,47.32,0,70.97.02,9.18-8.6,22.05-13.49,33.76-6.79,1.87,1.07,3.71,2.51,5.19,4.08.79.79,1.58,2.19,2.6,2.72h12.98"/><path class="b" d="M9.02,144.14c4.89-.05,9.83.09,14.71-.06,10.59-8.92,25.6-8.18,36.35.06,22.21,0,44.43.01,66.64,0,9.71-8.28,22.62-13.57,34.62-6.7,1.87,1.07,3.71,2.52,5.19,4.09.79.77,1.53,2.2,2.6,2.62h13.85"/><path class="b" d="M9.02,142.02c17.9-.19,6.6,1.39,19.91-4.94,10.84-4.79,23.74-2.39,32.89,4.89,21.05.13,42.13.07,63.18.02,4.35-3.02,8.82-6.11,13.85-7.91,7.61-2.89,16.63-2.33,23.37,2.44,1.17.81,2.47,1.92,3.46,2.95.78.75,1.53,2.15,2.6,2.55,2.86,0,5.8,0,8.66,0,1.68-.11,3.58.27,5.19-.26l.87-.95"/><path class="b" d="M9.02,139.9c12.12-.03,5.66.86,15.58-4.31,8.5-4.32,18.73-5.14,27.7-1.78,2.7.98,5.38,2.33,7.79,3.9,1.37.74,2.64,2.4,4.33,2.19,10.38,0,20.78,0,31.16,0,9.22,0,18.47.02,27.7,0,3.72-2.13,7.34-4.61,11.25-6.38,8.09-3.91,18.18-4.5,25.97.45,1.51.93,3.08,2.18,4.33,3.45.75.74,1.59,2.07,2.6,2.5,3.15,0,6.37,0,9.52,0,4.05.19,3.21-.31,6.06-2.73"/><path class="b" d="M9.02,137.77c1.68-.1,3.57.26,5.19-.25,2.78-1.66,5.69-3.29,8.66-4.61,8.87-4.1,19.25-5.17,28.56-1.94,3.01,1.01,5.97,2.44,8.66,4.14.79.5,1.84,1.23,2.6,1.78.42.36,1.16.85,1.73.87,9.51,0,19.05,0,28.56,0,9.51,0,19.05,0,28.56,0,4.18-1.66,7.94-4.46,12.12-6.18,8.12-3.77,18.13-4.45,25.97.38,1.51.9,3.07,2.11,4.33,3.34.75.73,1.64,1.97,2.6,2.46,4.01-.1,8.12.2,12.12-.13,1.24-1.35,2.88-2.61,4.33-3.73"/><path class="b" d="M9.02,135.65h.87c1.27-.99,2.88-1.7,4.33-2.35,2.25-1.04,4.61-2.1,6.92-3.01,9.26-3.79,19.81-5.03,29.43-1.87,4.69,1.48,9.12,3.9,12.98,6.94,1.03.48,2.36.24,3.46.29,1.98,0,4.08,0,6.06,0,5.76,0,11.55,0,17.31,0,9.8,0,19.63,0,29.43,0,1.57.19,2.97-.98,4.33-1.57,2.86-1.41,5.72-3.03,8.66-4.28,8.43-3.83,18.83-4.49,26.83.74,1.16.74,2.46,1.74,3.46,2.68.76.71,1.69,1.88,2.6,2.43,3.73,0,7.52,0,11.25,0,.96-.38,1.81-1.51,2.6-2.14,1.05-.85,2.35-1.78,3.46-2.55"/><path class="b" d="M9.02,132.04c1.76-1.36,4-2.05,6.06-2.81,2.83-1.03,5.75-2.06,8.66-2.87,13.94-4.15,28.39-2.08,39.81,7.17,15.29,0,30.59,0,45.87,0,2.86,0,5.8,0,8.66,0,.77,0,1.83,0,2.6,0,1.14-.4,2.36-1.18,3.46-1.66,5.27-2.58,10.59-5.39,16.44-6.36,6.5-1.2,13.52-.09,19.04,3.64,1.91,1.16,3.46,3.03,5.19,4.39,2.57,0,5.22,0,7.79,0,1.39-.12,3.09.35,4.33-.42,1.68-1.92,3.92-3.45,6.06-4.81"/><path class="b" d="M9.02,128.23c3.43-1.96,7.5-2.61,11.25-3.75,9.56-2.6,19.92-3.39,29.43-.17,4.37,1.45,8.58,3.67,12.12,6.63.95.75,2.34.41,3.46.48,1.98,0,4.08,0,6.06,0,5.76,0,11.55,0,17.31,0,10.38,0,20.78,0,31.16,0,1.58.24,2.96-.91,4.33-1.5,2.85-1.32,5.72-2.83,8.66-3.95,11.26-4.44,22.41-3.37,31.16,5.45h12.12c1.93-2.22,4.4-4.04,6.92-5.52"/><path class="b" d="M9.02,124.85c1.85-1,4.03-1.44,6.06-1.92,2.26-.53,4.64-1.06,6.92-1.48,13.28-2.7,28.42-1.45,38.95,7.85,13.27,0,26.55,0,39.81,0,2.86.05,5.79-.62,8.66-.17,2.84.37,5.8.09,8.66.17,1.39-.06,2.98.17,4.33-.19.74-.44,1.81-.95,2.6-1.31,7.18-3.68,15.16-6.8,23.37-5.72,3.66.45,7.3,1.72,10.39,3.77,1.53.93,2.87,2.45,4.33,3.46,4.31-.01,8.67.03,12.98-.02,1.87-2.28,4.4-4.06,6.92-5.54"/><path class="b" d="M9.02,121.82c2.15-.99,4.62-1.33,6.92-1.77,3.13-.57,6.35-1.06,9.52-1.38,11.77-1.28,24.54.58,33.76,8.5,11.53,0,23.09,0,34.62,0,1.09,0,2.38,0,3.46,0,1.36-.47,2.91-.89,4.33-1.13,4.34-.8,8.84-.32,12.98,1.13,2.86,0,5.8,0,8.66,0,1.37-.73,2.94-1.49,4.33-2.19,11.75-5.92,24.28-7.05,34.62,2.19h13.85c.88-.57,1.8-1.66,2.6-2.34,1.29-1.1,2.88-2.14,4.33-3.01"/><path class="b" d="M9.02,119.12c4.13-1.46,8.66-1.66,12.98-2.17,11.7-.99,25.52-.31,34.62,8.01,8.92.27,17.9.01,26.83.1,3.44,0,6.95,0,10.39,0,2.46-1.08,5.11-1.95,7.79-2.29,4.65-.6,9.6-.12,13.85,1.94,1,.56,2.36.29,3.46.35,1.69,0,3.51,0,5.19,0,.89.11,1.84-.61,2.6-.98,1.64-.87,3.46-1.74,5.19-2.43,4.91-1.96,10.29-3.03,15.58-2.51,3.65.36,7.3,1.51,10.39,3.51,1.16.65,2.19,1.98,3.46,2.41.76,0,1.83,0,2.6,0,4.31,0,8.67,0,12.98,0,1.79-1.82,3.85-3.58,6.06-4.88"/><path class="b" d="M9.02,116.7c4.44-1.37,9.24-1.4,13.85-1.69,10.54-.28,22.82.51,31.16,7.68,1.33.46,2.94.17,4.33.25,1.08,0,2.38.01,3.46-.02.75-.22,1.81-.38,2.6-.38,1.11-.05,2.36.44,3.46.39,4.02,0,8.1,0,12.12,0,2.57,0,5.22,0,7.79,0,1.08,0,2.38,0,3.46,0,.41-.24,1.3-.7,1.73-.91,7.55-3.56,17.02-3.42,24.23.9,13.97.01,5.66.71,17.31-3.52,8.21-2.7,18.34-2.6,25.1,3.39,2.25.32,4.65.06,6.92.14,3.73,0,7.52,0,11.25,0,.52-.25,1.36-.99,1.73-1.43,1.01-.93,2.32-1.93,3.46-2.69"/><path class="b" d="M9.02,114.56c4.19-1.17,8.67-1.09,12.98-1.19,6.09,0,12.26.42,18.18,1.95,3.31.87,6.65,2.12,9.52,4.02.46.3,1.31.97,1.73,1.32,1.66.31,3.51.09,5.19.15.78,0,1.82,0,2.6,0,.77-.2,1.81-.5,2.6-.61,1.71-.22,3.58-.03,5.19.58,6.62.07,13.28,0,19.91.03.43,0,1.3,0,1.73,0,1.42-.63,2.87-1.63,4.33-2.19,3.26-1.36,6.86-2.02,10.39-1.99,3.22.03,6.5.62,9.52,1.72,1.12.41,2.42,1,3.46,1.58.69.45,1.73,1.04,2.6.88,3.15,0,6.37.01,9.52,0,1.9-1.02,4.01-1.92,6.06-2.59,7.94-2.64,17.32-2.57,24.23,2.6h20.77c1.08-.96,2.29-2.19,3.46-3.03"/><path class="b" d="M9.02,112.69c4.21-1.06,8.67-.86,12.98-.76,5.52.24,11.09.8,16.44,2.2,2.35.62,4.75,1.46,6.92,2.55,1.43.54,2.77,2.17,4.33,2,2.57,0,5.22,0,7.79,0,2.25-.48,4.62-1.01,6.92-.49,1.08.3,2.33.6,3.46.49,5.76,0,11.55,0,17.31,0,.87.08,1.96-.1,2.6-.74,1.03-.68,2.33-1.39,3.46-1.9,3.51-1.56,7.42-2.3,11.25-2.22,5.16.12,10.35,1.65,14.71,4.42.67.53,1.79.44,2.6.43,1.08,0,2.38,0,3.46,0,1.38,0,2.94,0,4.33,0,1.09-.04,2.42.15,3.46-.24,8.06-3.42,18.28-4.8,25.97.22,4.6.05,9.26.08,13.85-.19,3.42.39,6.95.14,10.39.21.47-.33,1.33-1.1,1.73-1.52"/><path class="b" d="M9.02,111.11c3.66-.86,7.52-.69,11.25-.47,4.63.32,9.31.9,13.85,1.89,2.63.58,5.31,1.36,7.79,2.41,1.41.47,2.78,1.78,4.33,1.64,3.44,0,6.95,0,10.39,0,1.1.07,2.36-.32,3.46-.36,1.4-.1,2.95.13,4.33.36,6.62,0,13.28,0,19.91,0,1.74-.87,3.37-2.27,5.19-3.03,4.01-1.89,8.56-2.68,12.98-2.37,5.24.37,10.4,2.22,14.71,5.2,1.05.32,2.38.16,3.46.19,1.68,0,3.51,0,5.19,0,2.56-.05,5.23.1,7.79-.08,4.15-1.38,8.6-2.14,12.98-1.94,2.98.07,5.91.93,8.66,2.02,2.57,0,5.22,0,7.79,0,.76,0,1.84,0,2.6,0,1.66-.38,3.48-.73,5.19-.7,1.72-.07,3.51.5,5.19.7,2.27,0,4.65,0,6.92,0"/><path class="b" d="M9.02,109.81c3.68-.8,7.54-.55,11.25-.16,4.05.46,8.14,1.15,12.12,2.08,2.01.48,4.12,1.08,6.06,1.8.77.28,1.78.77,2.6.92.43,0,1.3,0,1.73,0,13.27,0,26.55,0,39.81,0,9-7.66,22.25-7.73,32.02-1.46.77.46,1.69,1.27,2.6,1.46,1.39,0,2.94,0,4.33,0,3.15,0,6.37,0,9.52,0,2.57,0,5.22,0,7.79,0,2.27-.18,4.63-.58,6.92-.51,1.7,0,3.52.24,5.19.51,3.44,0,6.95,0,10.39,0,1.08,0,2.38,0,3.46,0,2.24-.51,4.62-.93,6.92-.86,2.02-.04,4.09.52,6.06.86,1.68,0,3.51,0,5.19,0"/><path class="b" d="M9.02,108.85c6.35-1.26,12.84.35,19.04,1.72,1.7.41,3.52.89,5.19,1.4,1.05.43,2.35.38,3.46.37,8.65,0,17.32,0,25.97,0,5.76,0,11.55,0,17.31,0,.99,0,1.83-1.04,2.6-1.55,1.03-.75,2.33-1.54,3.46-2.12,5.81-3,12.77-3.61,19.04-1.82,3.74,1.05,7.33,2.89,10.39,5.29,2.22.46,4.66.09,6.92.2,4.02,0,8.1,0,12.12,0,10.38-.01,20.78.02,31.16-.01,2.82-.55,5.79-.77,8.66-.58,1.4.07,2.94.4,4.33.59,1.38,0,2.94,0,4.33,0"/><path class="b" d="M9.02,108.28c4-.92,8.18-.36,12.12.59,2.29.44,4.56,1.54,6.92,1.35,11.82,0,23.66,0,35.49,0,3.44,0,6.95,0,10.39,0,1.08,0,2.38,0,3.46,0,.47.08,1.32-.11,1.73-.36.73-.64,1.79-1.46,2.6-2.02,10.19-7.07,23.64-5.58,32.89,2.37,22.79,0,45.59,0,68.38,0"/><path class="b" d="M9.02,108.09c1.1-.02,2.36-.39,3.46-.46,1.4-.1,2.95.04,4.33.3,2.53.38,5.23.06,7.79.16,17.31,0,34.63,0,51.93,0,1.18-.67,2.32-1.84,3.46-2.57,1.85-1.27,3.95-2.38,6.06-3.16,8.68-3.33,18.89-1.31,25.97,4.62,1.03,1.12,2.04,1.19,3.46,1.11,1.09,0,2.38,0,3.46,0,3.44,0,6.95,0,10.39,0,17.88,0,35.78,0,53.66,0"/><path class="b" d="M9.02,105.97h65.78c10.69-10.04,26.63-10.38,37.22,0,7.78,0,15.59,0,23.37,0,2.8-.77,5.72-1.51,8.66-1.47,2-.02,4.12.22,6.06.7,1.09.23,2.32.89,3.46.77,9.8,0,19.63,0,29.43,0"/><path class="b" d="M9.02,103.85c15.29,0,30.59,0,45.87,0,4.31,0,8.67,0,12.98,0,6.22.02,3.87.48,8.65-2.97,2.37-1.61,5.05-2.93,7.79-3.79,5.91-1.89,12.52-1.59,18.18.98,2.15.96,4.27,2.31,6.06,3.83,2.28,2.22,2.04,1.97,5.19,1.94,4.31,0,8.67,0,12.98,0,1.38,0,2.94,0,4.33,0,1.36-.56,2.9-1.17,4.33-1.56,3.63-1.01,7.54-1.29,11.25-.61,1.43.26,3,.73,4.33,1.34.72.38,1.74.98,2.6.83,1.98-.01,4.08.03,6.06-.03,1.59-.69,3.47-1.01,5.19-1.03,2.03-.03,4.15.4,6.06,1.06,4.02,0,8.1,0,12.12,0"/><path class="b" d="M9.02,101.73h61.45c1.48-.86,2.86-2.23,4.33-3.12,2.39-1.57,5.07-2.89,7.79-3.77,9.65-3.21,19.9-.5,26.83,6.89,5.76,0,11.55,0,17.31,0,1.2.05,2.36-.9,3.46-1.25,1.64-.66,3.46-1.23,5.19-1.59,5.49-1.08,11.93-.85,16.44,2.81,1.39.05,2.94.02,4.33.03.82-.32,1.79-1.02,2.6-1.37,1.32-.58,2.89-.97,4.33-1.14,4.21-.57,8.37.69,12.12,2.51,2.57,0,5.22,0,7.79,0"/><path class="b" d="M9.02,99.61h59.72c6.18-4.7,12.77-8.38,20.77-8.42,5.22-.06,10.5,1.58,14.71,4.67,1.55,1.02,2.82,2.7,4.33,3.75,5.18,0,10.4,0,15.58,0,1.75-.58,3.43-1.73,5.19-2.3,3.02-1.14,6.29-1.86,9.52-1.98,3.86-.12,7.93.52,11.25,2.59.47.3,1.34,1.01,1.73,1.4,1.02.48,2.37.24,3.46.29,4.94-3.94,11.46-4.4,17.31-2.34,1.46.52,3.03,1.28,4.33,2.13,1.93.46,4.09.11,6.06.21"/><path class="b" d="M9.02,97.49c15.29,0,30.59,0,45.87,0,2.86,0,5.8,0,8.66,0,1.77-.15,3.91.54,5.19-.89,12.01-9.62,27.99-11.09,38.95.89h14.71c7.94-5.49,23.13-8.05,30.29-.18.76.24,1.81.18,2.6.18.53-.17,1.37-.83,1.73-1.25,2.19-1.72,5.05-2.52,7.79-2.75,3.52-.28,7.16.39,10.39,1.81,1.48.54,2.83,1.77,4.33,2.19,1.08,0,2.38,0,3.46,0"/><path class="b" d="M9.02,95.37c15,0,30.01,0,45.01,0,2.86,0,5.8,0,8.66,0,.77,0,1.83,0,2.6,0,.9.1,1.99-.14,2.6-.86,11.41-9.43,28.8-11.49,38.95.83,4.6.07,9.25,0,13.85.03.94-.18,1.8-1.14,2.6-1.62,1.31-.8,2.9-1.47,4.33-2.01,6.85-2.54,14.85-3.28,21.64-.16,1.19.56,2.51,1.43,3.46,2.35,1.01,1.41,1.79,1.54,3.46,1.44,4.8-4.78,11.98-5.23,18.18-3.21,1.45.47,3.01,1.17,4.33,1.93.44.26,1.31.82,1.73,1.12.76.21,1.82.16,2.6.16"/><path class="b" d="M9.02,93.25c8.65,0,17.32,0,25.97,0,3.43-.25,6.94-.53,10.39-.41,2.87.06,5.78.53,8.66.41,2.86,0,5.8,0,8.66,0,1.78-.09,3.89.47,5.19-1.08,8.25-6.79,20.28-10.01,30.29-5.35,1.82.83,3.66,1.99,5.19,3.26,1.18.89,2.2,2.39,3.46,3.16,2.86,0,5.8,0,8.66,0,1.68-.12,3.6.31,5.19-.3,1.66-1.67,3.88-2.8,6.06-3.61,8.89-3.48,22.04-4.32,28.56,3.91,1.51.06,2.52.1,3.46-1.25.95-.85,2.27-1.61,3.46-2.06,4.72-1.74,10.08-1.27,14.71.51,1.13.44,2.42,1.07,3.46,1.69.75.42,1.69,1.18,2.6,1.11"/><path class="b" d="M9.02,91.13c4.6-.09,9.26.18,13.85-.13,6.32-.75,12.66-1.75,19.04-1.79,5.22-.02,10.57.31,15.58,1.88,3.15.08,6.37.01,9.52.03,8.25-7.93,21.58-11.3,32.02-5.83,2.6,1.34,5.05,3.27,6.92,5.52,1.59.62,3.52.18,5.19.31,2.86,0,5.8,0,8.66,0,3.88-3.88,9.47-5.42,14.71-6.42,6.1-.98,12.76-.47,18.18,2.7,1.68.86,2.89,2.59,4.33,3.73h1.73c.87-.51,1.75-1.56,2.6-2.1,2.29-1.47,5.1-2.1,7.79-2.21,4.89-.27,9.59,1.46,13.85,3.72"/><path class="b" d="M9.02,89.01c4.05.15,8.11-.59,12.12-1.06,7.45-1.05,14.95-2.32,22.5-2.16,4.34.07,8.75.46,12.98,1.48,1.76.36,3.5,1.22,5.19,1.74,1.98,0,4.08,0,6.06,0,10.11-10.25,28.35-11.75,38.08-.22,1.93.47,4.09.11,6.06.22,2.56-.05,5.23.11,7.79-.09,3.85-4.05,10.23-5.72,15.58-6.7,6.42-.97,13.41-.33,19.04,3.11.84.53,1.9,1.38,2.6,2.1.31.49,1.18,1.37,1.73,1.58h1.73c.9-.42,1.76-1.46,2.6-1.98,1.01-.64,2.31-1.18,3.46-1.5,5.53-1.55,11.32-.13,16.44,2.12"/><path class="b" d="M9.02,86.89c4.56-.82,9.26-1.38,13.85-2.18,9.68-1.81,19.62-2.93,29.43-1.57,2.9.39,5.89.96,8.66,1.94,1.14.41,2.46,1.03,3.46,1.72,1.67.09,3.56.26,5.19-.12,7.19-7.87,19.91-10.09,29.43-5.38,2.58,1.27,5.01,3.1,6.92,5.25,1.56.66,3.53.2,5.19.33,2.86,0,5.8,0,8.66,0,4.13-4.03,10.06-5.72,15.58-6.86,6.67-1.16,13.9-.6,19.91,2.69,1.19.66,2.5,1.63,3.46,2.6.32.48,1.2,1.33,1.73,1.57.77,0,1.83.03,2.6-.11,2.77-3.09,7.29-3.83,11.25-3.7,2.96.06,5.85,1.04,8.66,1.89"/><path class="b" d="M9.02,84.73c1.89-.79,4.05-.98,6.06-1.3,2.29-.37,4.66-.84,6.92-1.31,11.04-2.51,22.54-3.63,33.76-1.6,2.92.52,5.93,1.21,8.66,2.42.82.37,1.89,1,2.6,1.55,1.31.47,2.96.3,4.33.15,5.06-6.18,13.94-8.45,21.64-7.26,3.38.56,6.7,1.89,9.52,3.83,1.53.96,2.86,2.52,4.33,3.56,21.88-.09,6.9,1.13,22.5-5.05,10.74-3.96,24.61-3.78,32.89,5.05.77,0,1.82,0,2.6,0,1.2-.46,2.24-1.65,3.46-2.1,4.66-2.12,9.92-1.39,14.71-.17"/><path class="b" d="M9.02,82.65c2.74-1.11,5.81-1.26,8.66-2.01,4.87-1.14,9.76-2.47,14.71-3.21,9.47-1.46,19.24-1.05,28.56,1.14,2.35.58,4.79,1.31,6.92,2.46.81.43,1.72,1.32,2.6,1.62.76,0,1.83,0,2.6,0,8.28-9.98,25.11-9.49,33.76-.21,1.64.44,3.51.12,5.19.21,2.86,0,5.8,0,8.66,0,1.26-.34,2.29-1.59,3.46-2.14,2.19-1.19,4.57-2.27,6.92-3.1,10.43-3.74,24.98-3.47,32.89,5.23,1.09,0,2.38,0,3.46,0,.85-.31,1.79-1.12,2.6-1.52,4.03-2.06,8.68-1.6,12.98-.92"/><path class="b" d="M9.02,80.53c9.27-1.61,18.21-5.53,27.7-6.31,9.85-.98,19.92.07,29.43,2.79,1.44.44,3.04,1,4.33,1.8.48.29,1.34,1.02,1.73,1.43.72.38,1.81.3,2.6.3.58-.21,1.39-1.07,1.73-1.57.96-.99,2.26-1.98,3.46-2.65,8.82-4.96,20.68-3.05,27.7,4.18,4.89.12,9.83,0,14.71.05,8.43-5.9,19.23-8.71,29.43-6.91,5.04.95,10.3,2.84,13.85,6.69,1.35.4,2.94.14,4.33.21.87-.17,1.8-.94,2.6-1.29,3.23-1.57,6.91-1.3,10.39-1.12"/><path class="b" d="M9.02,78.41c.78,0,1.82,0,2.6,0,.78-.21,1.83-.48,2.6-.71,2.3-.7,4.65-1.56,6.92-2.33,5.31-1.84,10.84-3.22,16.44-3.75,8.09-.8,16.29.03,24.23,1.61,2.88.62,5.9,1.17,8.66,2.24,1.61.6,3.05,1.84,4.33,2.95.78,0,1.85.06,2.6-.22,2.34-3.42,6.44-5.25,10.39-6.06,7.38-1.48,15.37.94,20.77,6.17,4.29.27,8.68.03,12.98.11.78,0,1.82,0,2.6,0,1.42-.76,2.89-1.8,4.33-2.53,3.25-1.73,6.79-3.07,10.39-3.86,5.67-1.25,11.67-1.22,17.31.21,3.35.86,6.7,2.22,9.52,4.24.79.56,1.69,1.55,2.6,1.93,1.68-.04,3.52.1,5.19-.09,2.77-1.95,6.28-1.93,9.52-2.12"/><path class="b" d="M9.02,76.29c1.69-.03,3.51.09,5.19-.08,2.29-.9,4.63-1.94,6.92-2.84,4.99-1.98,10.25-3.41,15.58-4.02,8.66-1.05,17.44,0,25.97,1.63,3.47.75,7.19,1.1,10.39,2.74,1.24.59,2.36,1.78,3.46,2.57.79,0,1.86.08,2.6-.27,4.44-5.95,13.05-7.17,19.91-5.56,2.41.58,4.81,1.59,6.92,2.89,1.51.78,2.78,2.36,4.33,2.94,3.73,0,7.52,0,11.25,0,1.08,0,2.38,0,3.46,0,.86.07,1.95-.06,2.6-.7,12.42-8.3,30.54-8.91,42.41.7,1.98,0,4.08,0,6.06,0,2.12-1.14,4.6-1.37,6.92-1.82"/><path class="b" d="M9.02,74.17c2.27-.06,4.67.14,6.92-.11,4.39-2.33,9.02-4.38,13.85-5.6,7.32-1.91,15.02-2.09,22.5-1.23,4.34.48,8.69,1.29,12.98,2.05,4.28.71,9.19,1.31,12.12,4.89h2.6c7.86-9.15,22.82-7.86,31.16,0,5.47,0,10.98,0,16.44,0,1.3.22,2.45-.73,3.46-1.39,1.05-.65,2.34-1.35,3.46-1.87,11.66-5.41,26.87-4.67,37.22,3.26,2.56-.06,5.24.14,7.79-.1,1.09-.36,2.39-.76,3.46-1.16"/><path class="b" d="M9.02,72.05c2.57,0,5.22,0,7.79,0,4.13-2.24,8.38-4.46,12.98-5.6,5.05-1.37,10.36-1.87,15.58-1.71,6.11.17,12.17,1.29,18.18,2.34,5.2.88,10.71,1.05,14.71,4.97,1.12-.07,2.53.28,3.46-.49,1.33-1.7,3.25-3.06,5.19-3.97,5.96-2.75,13.09-2.52,19.04.12,2.53,1.01,4.71,2.83,6.92,4.33,4.02,0,8.1,0,12.12,0,1.98,0,4.08,0,6.06,0,.89-.19,1.83-.98,2.6-1.43,12.03-7.1,28.29-6.38,39.81,1.43,1.98,0,4.08,0,6.06,0,1.12-.04,2.52.22,3.46-.53"/><path class="b" d="M9.02,69.93c2.86,0,5.8,0,8.66,0,1.51-.46,2.88-1.69,4.33-2.33,2.45-1.27,5.13-2.3,7.79-3.04,4.76-1.33,9.78-1.82,14.71-1.67,6.41.17,12.75,1.49,19.04,2.6,5.03.89,10.72.78,14.71,4.44h3.46c1.45-1.06,2.71-2.68,4.33-3.54,5.94-3.53,13.49-3.82,19.91-1.46,2.11.77,4.23,1.89,6.06,3.2,1.03.69,2.09,2.04,3.46,1.8,4.02,0,8.1,0,12.12,0,1.39,0,2.94,0,4.33,0,.79,0,1.86.07,2.6-.26,9.02-6.12,20.89-6.77,31.16-3.82,2.04.59,4.15,1.39,6.06,2.33,1.12.49,2.27,1.47,3.46,1.75,2.57,0,5.22,0,7.79,0"/><path class="b" d="M9.02,67.81c3.15,0,6.37,0,9.52,0,.51-.08,1.34-.52,1.73-.84,1.05-.67,2.34-1.39,3.46-1.92,2.73-1.31,5.7-2.28,8.66-2.9,9.48-2.08,19.22-.38,28.56,1.59,3.69.86,7.54,1.03,11.25,1.74,1.12.25,2.43.67,3.46,1.16.79.35,1.68,1.2,2.6,1.17,1.38-.02,2.95.07,4.33-.07,5.58-6.52,15.44-7.93,23.37-5.55,2.42.73,4.82,1.86,6.92,3.25,1.4.75,2.59,2.6,4.33,2.37,6.33,0,12.71,0,19.04,0,.92.06,1.83-.77,2.6-1.17,1.61-.9,3.44-1.67,5.19-2.24,7.54-2.39,15.79-2.15,23.37-.07,1.72.48,3.56,1.13,5.19,1.86,1.11.45,2.31,1.28,3.46,1.62,2.27,0,4.65,0,6.92,0"/><path class="b" d="M9.02,65.69c3.15,0,6.37,0,9.52,0,.89.13,1.92-.33,2.6-.86.76-.47,1.8-1.05,2.6-1.44,2.72-1.33,5.69-2.31,8.66-2.9,6.27-1.27,12.79-.92,19.04.26,5.77,1.02,11.44,2.92,17.31,3.33,2.33.19,4.79.56,6.92,1.54,2.27.16,4.65.03,6.92.07,6.34-6.6,16.52-8.49,25.1-5.71,2.42.77,4.82,1.93,6.92,3.34,1.14.67,2.19,1.94,3.46,2.37,6.33,0,12.71,0,19.04,0,1.45.01,3.11.17,4.33-.78,1.88-1,4-1.78,6.06-2.32,6.2-1.59,12.79-1.5,19.04-.22,3.27.69,6.57,1.74,9.52,3.32,2.27,0,4.65,0,6.92,0"/><path class="b" d="M9.02,63.57c2.57,0,5.22,0,7.79,0,1.75-.05,3.74.34,5.19-.88,6.74-3.9,14.84-4.97,22.5-4.08,6.81.69,13.26,3.2,19.91,4.64,2.24.52,4.65.26,6.92.32,3.73,0,7.52,0,11.25,0,9.98-9.6,26.13-9.42,36.35-.27.74.35,1.8.28,2.6.27,1.39,0,2.94,0,4.33,0,4.31,0,8.67,0,12.98,0,1.39,0,2.94,0,4.33,0,.86.01,1.83-.6,2.6-.91,1.06-.43,2.36-.86,3.46-1.15,3.93-1.02,8.07-1.33,12.12-1.13,4.71.25,9.5,1.12,13.85,3,2.52.44,5.23.08,7.79.19"/><path class="b" d="M9.02,61.45c4.02,0,8.1,0,12.12,0,3.24-1.75,6.73-3.2,10.39-3.81,4.56-.84,9.31-.7,13.85.17,4.16.72,8.14,2.31,12.12,3.64,8.36,0,16.74,0,25.1,0,10.78-9.91,27.27-9.84,38.08,0,9.22.02,18.47,0,27.7,0,1.43-.14,2.91-.84,4.33-1.08,2.53-.54,5.2-.81,7.79-.85,4.69-.16,9.35.7,13.85,1.93,2.86,0,5.8,0,8.66,0"/><path class="b" d="M9.02,59.33c4.31,0,8.67,0,12.98,0,2.67-1.44,5.67-2.43,8.66-2.95,3.7-.64,7.56-.6,11.25.05,2.02.36,4.13.93,6.06,1.62,1.39.43,2.83,1.43,4.33,1.28,10.09,0,20.2,0,30.29,0,10.79-9.75,26.82-10.17,38.08-.96.62.71,1.67,1.09,2.6.96,1.09,0,2.38,0,3.46,0,3.15,0,6.37,0,9.52,0,9.22-.07,18.49.22,27.7-.25,6.33.34,12.7.25,19.04.25"/><path class="b" d="M9.02,57.21c4.31,0,8.67,0,12.98,0,1.46-.12,2.9-1.06,4.33-1.37,2.78-.81,5.76-1.18,8.66-1.09,2.31.07,4.7.43,6.92,1.06,1.43.33,2.88,1.17,4.33,1.4,12.11,0,24.24,0,36.35,0,11.44-10.32,28.34-10.24,39.81-.03,20.19.07,40.39,0,60.59.03"/><path class="b" d="M9.02,55.09c4.6,0,9.25,0,13.85,0,3.34-1.06,6.86-1.85,10.39-1.64,2.63.11,5.34.66,7.79,1.64,2.57,0,5.22,0,7.79,0,11.24,0,22.51,0,33.76,0,11.37-10.47,28.33-10.14,39.81-.04,20.19.1,40.4,0,60.59.04"/><path class="b" d="M9.02,52.97c4.89,0,9.83,0,14.71,0,1.11.03,2.36-.44,3.46-.56,1.38-.2,2.94-.28,4.33-.23,1.72.05,3.52.44,5.19.79,4.89,0,9.83,0,14.71,0,10.38,0,20.78,0,31.16,0,10.53-10.08,26.85-9.97,38.08-1.09.4.36,1.22.93,1.73,1.09,1.39,0,2.94,0,4.33,0,3.15,0,6.37,0,9.52,0,15.57,0,31.16,0,46.74,0"/><path class="b" d="M9.02,50.85h73.57c9.84-10.07,26.5-9.6,37.22-1.16.41.35,1.24.94,1.73,1.16,1.39,0,2.94,0,4.33,0,3.15,0,6.37,0,9.52,0,15.86,0,31.74,0,47.6,0"/><path class="b" d="M9.02,48.73c12.11,0,24.24,0,36.35,0,4.02,0,8.1,0,12.12,0,1.68,0,3.51,0,5.19,0,1.11-.2,2.35-.74,3.46-.92,3.18-.61,6.48-.05,9.52.92,2.26-.12,4.71.27,6.92-.22,9.47-9.77,26.17-8.97,36.35-.7.62.7,1.68,1.03,2.6.91,1.09,0,2.38,0,3.46,0,3.15,0,6.37,0,9.52,0,16.15,0,32.32,0,48.47,0"/><path class="b" d="M9.02,45.58c2.57-.38,5.26.04,7.79.49,1.09.18,2.35.62,3.46.53,12.98,0,25.97,0,38.95,0,.49.09,1.33-.15,1.73-.43.75-.34,1.81-.74,2.6-.98,3.06-.95,6.44-.96,9.52-.1,1.15.31,2.41.97,3.46,1.52,1.68,0,3.51,0,5.19,0,9.3-9.37,25.49-9.15,35.49-.97.62.71,1.66,1.11,2.6.97,1.09,0,2.38,0,3.46,0,3.44,0,6.95,0,10.39,0,16.44,0,32.89,0,49.33,0"/><path class="b" d="M9.02,41.44c5.88-.49,11.76,1.19,17.31,2.99,4.01.16,8.1.02,12.12.06,4.6,0,9.25,0,13.85,0,1.98-.03,4.08.07,6.06-.06,1.33-.69,2.89-1.33,4.33-1.76,3.64-1.1,7.73-1.16,11.25.37.81.36,1.82,1.03,2.6,1.45,1.39,0,2.94,0,4.33,0,.92-.43,1.8-1.49,2.6-2.08,1.54-1.17,3.39-2.16,5.19-2.86,9.24-3.6,20.33-1.75,27.7,4.94,16.73,0,33.47,0,50.2,0,1.98,0,4.08,0,6.06,0,1.36-.41,2.89-.87,4.33-.87,1.12-.02,2.44.23,3.46.7.75.22,1.82.17,2.6.17"/><path class="b" d="M9.02,37.66c4.99-.35,10,.87,14.71,2.41,2.02.65,4.06,1.59,6.06,2.29,1.09,0,2.38,0,3.46,0,7.49,0,15.01,0,22.5,0,.81.03,1.9.03,2.6-.45,1.06-.47,2.35-.96,3.46-1.29,4.57-1.42,9.98-1.4,13.85,1.74h4.33c1.19-.69,2.27-1.95,3.46-2.63,1.57-1,3.42-1.83,5.19-2.4,8.47-2.7,18.58-1.28,25.1,5.03,2.27,0,4.65,0,6.92,0,1.39-.05,2.92-.45,4.33-.22,1.66.36,3.51.18,5.19.22,2.86,0,5.8,0,8.66,0,8.36,0,16.74,0,25.1,0,1.08,0,2.38,0,3.46,0,.84.09,1.92-.17,2.6-.69,4.02-2.26,8.89-2.67,12.98-.36"/><path class="b" d="M9.02,34.2c7.64-.36,14.97,2.62,21.64,6.04,7.49,0,15.01,0,22.5,0,1.68-.08,3.55.21,5.19-.2,3.26-1.32,6.85-2.21,10.39-1.96,1.12.1,2.43.45,3.46.91.79.35,1.71,1.16,2.6,1.25,1.39,0,2.94,0,4.33,0,6.28-5.94,16.18-7.11,24.23-4.6,2.54.84,5.07,2.2,6.92,4.15.39.3,1.24.56,1.73.45,1.08,0,2.38,0,3.46,0,4.36-3.09,10.24-2.55,14.71,0,3.15,0,6.37,0,9.52,0,8.36,0,16.74,0,25.1,0,.9.17,1.89-.5,2.6-.99.74-.46,1.8-1.02,2.6-1.38,4.06-1.91,8.88-2.23,12.98-.26"/><path class="b" d="M9.02,31.03c6.38-.18,12.65,2.03,18.18,5.09,1.11.59,2.31,1.49,3.46,2,2.86,0,5.8,0,8.66,0,5.18,0,10.4,0,15.58,0,1.98,0,4.08.01,6.06,0,1.36-.43,2.91-.8,4.33-.98,1.38-.16,2.96-.24,4.33.06.8.19,1.82.67,2.6.93,1.68,0,3.51,0,5.19,0,4.05-3.05,8.77-4.89,13.85-5.22,5.84-.43,12.27.83,16.44,5.22h3.46c4.52-3.73,10.99-4.59,16.44-2.52,1.47.56,3.03,1.4,4.33,2.29,1.05.39,2.37.2,3.46.24,8.07,0,16.17,0,24.23,0,1.08,0,2.38,0,3.46,0,1.52-.52,2.86-1.81,4.33-2.46,4.74-2.53,10.56-3.52,15.58-1.23"/><path class="b" d="M9.02,28.13c7.57-.04,14.87,3.25,20.77,7.83,15.28.12,30.59,0,45.87.04,7.53-5.45,21.6-7.11,28.56,0h3.46c2.81-3.15,7.15-4.47,11.25-4.74,4.89-.39,9.8,1.1,13.85,3.82.39.31,1.24.79,1.73.92.43,0,1.3,0,1.73,0,1.39,0,2.94,0,4.33,0,6.91,0,13.86,0,20.77,0,6.12-4.38,14.3-7.69,21.64-4.4"/><path class="b" d="M9.02,25.49c7.38.1,14.44,3.54,19.91,8.36,7.49.11,15.01,0,22.5.04,2.28-.08,4.62-.76,6.92-.6,2.3-.04,4.63.64,6.92.6,2.27,0,4.65,0,6.92,0,1.46-.34,2.92-1.2,4.33-1.7,7.68-2.94,17.57-4,24.23,1.7,1.08-.01,2.38.05,3.46-.07,5.06-5.78,14.57-6.58,21.64-4.82,2.4.66,4.77,1.76,6.92,3.01,1.36.7,2.68,2.12,4.33,1.88,7.49,0,15.01,0,22.5,0,6.65-4.61,15.44-8.39,23.37-4.79"/><path class="b" d="M9.02,23.09c7.25.18,13.76,3.96,19.04,8.68,4.02,0,8.1,0,12.12,0,1.39,0,2.94,0,4.33,0,.8,0,1.86.08,2.6-.3,4.8-2.34,10.34-2.78,15.58-2.12,2.59.23,5.19,1.1,7.79,1.1,3.2-.18,6.35-1.24,9.52-1.68,4-.61,8.22-.69,12.12.49,1.51.46,3.13,1.25,4.33,2.3,1.34.35,2.96.26,4.33.08,4.01-4.63,10.56-6.1,16.44-6.32,7.33-.33,13.88,2.52,19.91,6.44,6.33,0,12.71,0,19.04,0,.78,0,1.85.07,2.6-.22.42-.3,1.29-.89,1.73-1.18,1.34-.85,2.89-1.71,4.33-2.38,5.6-2.63,12.4-3.88,18.18-1.12"/><path class="b" d="M9.02,20.93c5.4.32,10.56,2.62,14.71,6.04.82.66,1.87,1.64,2.6,2.39,1.6.58,3.52.17,5.19.28,3.15,0,6.37,0,9.52,0,.44,0,1.3,0,1.73,0,1.13-.48,2.33-1.33,3.46-1.82,2.43-1.12,5.13-1.83,7.79-2.14,3.14-.36,6.4-.18,9.52.31,2.29.31,4.62,1.03,6.92,1.24,3.45.21,6.94-.43,10.39-.46,2.89-.04,5.92.21,8.66,1.2,1.16.37,2.33,1.26,3.46,1.67,1.38-.03,2.95.08,4.33-.09,6.63-7.31,19.53-8.1,28.56-5.67,3,.87,5.92,2.25,8.66,3.73,1.1.6,2.39,1.34,3.46,1.98.77.06,1.83.05,2.6.04,5.47,0,10.98,0,16.44,0,.89-.21,1.84-1,2.6-1.46,1.61-1.01,3.44-1.97,5.19-2.71,5.67-2.42,12.49-3.46,18.18-.56"/><path class="b" d="M9.02,19.02c4.38.41,8.63,2.12,12.12,4.8,1.52,1.04,2.82,2.68,4.33,3.7h14.71c6.06-4.79,14.15-6.04,21.64-4.8,3.48.45,6.88,1.74,10.39,2.03,3.73.3,7.57.13,11.25.91,1.79.31,3.54,1.16,5.19,1.87,1.68,0,3.51,0,5.19,0,6.96-7.18,18.26-8.26,27.7-6.83,3.92.59,7.72,2.01,11.25,3.76,2.03.91,3.99,2.27,6.06,3.07,4.02,0,8.1,0,12.12,0,1.97-.09,4.12.22,6.06-.19,1.04-.73,2.34-1.53,3.46-2.14,6.73-3.63,15.41-5.8,22.5-1.97"/><path class="b" d="M9.02,17.36c6.13.76,10.47,3.77,14.71,8.05h13.85c6.63-5.38,14.12-7.01,22.5-5.68,4.11.55,8.05,2.14,12.12,2.87,3.16.56,6.46.83,9.52,1.81.78.25,1.82.73,2.6,1,1.98,0,4.08,0,6.06,0,.51-.22,1.36-.92,1.73-1.33,1.01-.87,2.3-1.76,3.46-2.4,4.74-2.59,10.21-3.74,15.58-3.92,9.08-.33,17.22,2.06,25.1,6.45.76.39,1.75,1.01,2.6,1.2,1.69,0,3.51,0,5.19,0,3.73,0,7.52,0,11.25,0,1.27.19,2.38-1.04,3.46-1.55,1.34-.77,2.9-1.53,4.33-2.11,6.24-2.54,13.88-3.57,19.91.05"/><path class="b" d="M9.02,15.95c5.88,1.06,8.79,3.39,12.98,7.33,2.86,0,5.8,0,8.66,0,1.68-.11,3.59.29,5.19-.28,6.73-6.68,17.13-7.74,25.97-5.39,2.92.69,5.79,1.82,8.66,2.7,2.85.86,5.89,1.44,8.66,2.56.98.62,2.36.38,3.46.42,1.68,0,3.51,0,5.19,0,7.87-7.63,19.9-8.8,30.29-7.23,6.1.83,11.9,3.07,17.31,5.95.76.39,1.79.96,2.6,1.28,1.69,0,3.51,0,5.19,0,3.73,0,7.52,0,11.25,0,.42.01,1.31-.01,1.73-.06.41-.27,1.3-.79,1.73-1.04,1.62-.91,3.45-1.76,5.19-2.4,6.33-2.32,14.06-3.05,19.91.88"/><path class="b" d="M9.02,14.82c2.4.61,4.88,1.48,6.92,2.92.83.57,1.88,1.45,2.6,2.15.57.77,1.59,1.47,2.6,1.27,4.02,0,8.1,0,12.12,0,8-8.36,19.91-8.99,30.29-5.15,4.33,1.65,8.73,3.3,12.98,5.15,2.86-.02,5.8.05,8.65-.03,12.6-11.71,34.32-8.92,48.47-1.47.77.39,1.83.94,2.6,1.34,1.95.34,4.08.08,6.06.16,3.73,0,7.52,0,11.25,0,.77,0,1.83.01,2.6-.04.41-.25,1.3-.73,1.73-.95,1.63-.84,3.46-1.6,5.19-2.17,6.44-2.1,14.29-2.48,19.91,1.85"/><path class="b" d="M9.02,13.99c1.75.58,3.63,1.29,5.19,2.29,1.19.73,2.36,1.93,3.46,2.77,2.86,0,5.8,0,8.66,0,1.09,0,2.38,0,3.46,0,1.04.18,2-.46,2.6-1.26,9.34-9.12,22.86-7.89,33.76-2.42,2.29,1.11,4.69,2.24,6.92,3.45,1.05.36,2.37.18,3.46.22,1.98,0,4.08,0,6.06,0,13.73-11.76,34.21-8.97,49.33-1.45.78.39,1.83.94,2.6,1.36,1.97.2,4.08.05,6.06.09,3.73,0,7.52,0,11.25,0,1.39,0,2.94,0,4.33,0,2-.73,4-1.82,6.06-2.39,5-1.56,10.56-2.05,15.58-.32,1.14.4,2.45,1.01,3.46,1.68.34.33,1.28.87,1.73,1.03"/></svg>