<?xml version="1.0" encoding="UTF-8"?><svg id="a" xmlns="http://www.w3.org/2000/svg" width="1920" height="2400" viewBox="0 0 192 240"><defs><style>.b{fill:none;stroke:#fff;stroke-miterlimit:10;stroke-width:.3px;}.c{stroke-width:0px;}</style></defs><rect class="c" x="0" width="192" height="240"/><path class="b" d="M8.62,225.28c1.83.68,3.45,2.04,5.22,2.81,3.46,0,6.98,0,10.43,0,7.81,0,15.66,0,23.47,0,6.36,0,12.76,0,19.13,0,2.28,0,4.67,0,6.96,0,1.39-.08,3.01.22,4.35-.25,7.71-2.79,16.23-4.61,24.34-2.6,1.82.48,3.75,1.25,5.22,2.46.98.63,2.38.33,3.48.39,4.43-3.52,10.28-3.76,15.65-4.53,7.11-1.62,14.5-2.62,21.74-1.21,3.56.63,7.1,1.68,10.43,3.08,1.11.47,2.41,1.08,3.48,1.63.76.37,1.71,1.13,2.61,1.03,6.07,0,12.19,0,18.26,0"/><path class="b" d="M8.62,222.47c2.16.82,4.22,2.15,6.09,3.48,16.22,0,32.46,0,48.69,0,4.03-.08,8.15.17,12.17-.11,1.68-.55,3.51-1.12,5.22-1.59,6.74-1.81,14.04-2.74,20.87-.86,1.87.45,3.58,1.6,5.22,2.56.77,0,1.84,0,2.61,0,5.33-4.26,11.88-4.07,18.26-4.91,4.57-.86,9.24-1.7,13.91-1.49,7.03.3,14.23,2.23,20,6.37,7.23.06,14.5,0,21.74.02"/><path class="b" d="M8.62,219.91c2.58.82,4.69,2.56,6.96,3.92,2.58,0,5.25,0,7.83,0,2.88.11,5.82-.18,8.69-.24,4.04.26,8.13.28,12.17.24,6.36,0,12.76,0,19.13,0,1.99,0,4.1,0,6.09,0,1.4-.05,3.01.19,4.35-.32,9.16-2.75,23-5.74,31.3.32,4.14.18,2.87-.31,6.09-2.02,2.16-1.06,4.59-1.72,6.96-2.13,3.13-.62,6.41-.37,9.56-.81,6.3-1.07,12.8-1.93,19.13-.59,4.33.88,8.7,2.45,12.17,5.24,1.02.51,2.38.26,3.48.31,1.69,0,3.52,0,5.22,0,5.2,0,10.45,0,15.65,0"/><path class="b" d="M8.62,217.54c2.56.84,4.94,2.38,6.96,4.16,2.58,0,5.25,0,7.82,0,3.23-1.48,6.92-1.74,10.43-1.57,3.51.13,6.99,1,10.43,1.57,4.33,0,8.71,0,13.04,0,4.33-.01,8.71.02,13.04-.02,1.69-.48,3.51-.97,5.22-1.39,8.25-1.98,20.39-3.82,27.82,1.15.74.33,1.82.26,2.61.25.47.08,1.33-.11,1.74-.36,1.47-1.27,3.39-2.17,5.22-2.8,2.78-.93,5.77-1.43,8.69-1.56,2.29-.07,4.68.11,6.96-.24,4.3-.58,8.69-1.21,13.04-.87,5.55.46,11.4,1.98,15.65,5.75,1.98.15,4.1.03,6.09.07,1.65-.53,3.47-.99,5.22-.92,1.73.03,3.58.37,5.22.9,3.16.04,6.4,0,9.56.02"/><path class="b" d="M8.62,215.35c2.6.79,4.98,2.38,6.96,4.21,1.7,0,3.52,0,5.22,0,.92.07,1.81-.74,2.61-1.08,1.05-.47,2.35-.88,3.48-1.11,4.58-.92,9.37-.42,13.91.5,1.71.35,3.53.8,5.22,1.24,1.07.36,2.35.53,3.48.45,6.36-.08,12.78.17,19.13-.1,9.54-2.76,25.17-5.7,33.91.06,1.39.06,2.96.06,4.35,0,3.78-3.26,9.05-4.31,13.91-4.62,2.87-.1,5.83.36,8.69-.05,8.83-1.2,18.88-1.34,26.08,4.71,1.69,0,3.52,0,5.22,0,.82-.21,1.81-.79,2.61-1.06,1.35-.45,2.93-.67,4.35-.68,2.67-.02,5.38.69,7.82,1.73,2.58,0,5.25,0,7.82,0"/><path class="b" d="M8.62,213.33c1.49.45,3.07,1.19,4.35,2.08.81.56,1.73,1.55,2.61,2.02,1.4,0,2.95,0,4.35,0,.88-.26,1.8-1.08,2.61-1.49,1.32-.68,2.89-1.2,4.35-1.49,7.63-1.5,15.31.77,22.61,2.87,4.02.28,8.14.03,12.17.11,1.69,0,3.52,0,5.22,0,1.97-.6,4.06-1.23,6.09-1.64,4.84-1.02,9.83-1.59,14.78-1.51,3.2.06,6.48.4,9.56,1.28,1.47.41,3.03,1.11,4.35,1.87.77,0,1.83,0,2.61,0,.78,0,1.84.04,2.61-.12,1.24-1.03,2.85-1.88,4.35-2.47,3.57-1.38,7.48-2.01,11.3-1.84,1.69.11,3.51.43,5.22.36,2.58-.06,5.24-.43,7.82-.56,5.65-.29,11.69.4,16.52,3.55.34.33,1.3.88,1.74,1.07.76,0,1.84,0,2.61,0,1.1-.06,2.49.23,3.48-.38,4.68-2.89,10.84-2.37,15.65-.05.95.68,2.38.36,3.48.43,1.39,0,2.96,0,4.35,0"/><path class="b" d="M8.62,211.46c2.27.63,4.5,1.89,6.09,3.65.78.26,1.81.2,2.61.2.82,0,1.87.09,2.61-.32,2.14-1.93,5.02-2.93,7.82-3.38,5.53-.86,11.2.17,16.52,1.71,2,.58,4.09,1.27,6.09,1.86,2.26.29,4.67.06,6.96.13,2.87,0,5.82,0,8.69,0,4.77-1.57,9.76-2.56,14.78-2.8,4.63-.26,9.36-.14,13.91.8,2.08.37,4.12,1.26,6.09,2,1.09,0,2.39,0,3.48,0,.77,0,1.84,0,2.61,0,1.09-.59,2.33-1.42,3.48-1.91,2.18-.96,4.6-1.6,6.96-1.93,1.98-.27,4.11-.32,6.09-.05,2.26.45,4.65.68,6.96.5,5.8-.45,11.88-.92,17.39,1.35.8.33,1.87.87,2.61,1.33,0,0,.87.61.87.61l.87.1c1.69,0,3.53,0,5.22,0,.9-.07,1.82-.9,2.61-1.27,1.03-.51,2.35-.96,3.48-1.2,4.4-.92,9.16-.08,13.04,2.16.7.39,1.83.31,2.61.31,1.39,0,2.96,0,4.35,0"/><path class="b" d="M8.62,209.74c2.31.51,4.29,1.99,6.09,3.44h4.35c5.74-5.42,14.58-4.84,21.74-3.12,2.32.57,4.7,1.35,6.96,2.14.78.27,1.82.63,2.61.89,1.09.16,2.38.08,3.48.1,4.04-.03,8.14.06,12.17-.04,4.99-1.85,10.34-2.55,15.65-2.56,5.54,0,11.25.36,16.52,2.22,1.01.56,2.37.34,3.48.38,1.99,0,4.1,0,6.09,0,4.2-2.37,9.06-3.77,13.91-3.4,2.32.18,4.62,1.11,6.96,1.14,5.2.07,10.53-1,15.65.39,1.12.28,2.44.74,3.48,1.25.66.5,1.8.69,2.61.62,1.39,0,2.96,0,4.35,0,.82.02,1.93.11,2.61-.47,5.9-3.98,14.21-3.49,20,.47,1.99,0,4.1,0,6.09,0"/><path class="b" d="M8.62,208.16c1.91.44,3.83,1.42,5.22,2.82,1.68.09,3.55.21,5.22-.09,7.98-7.22,20.64-3.85,29.56-.22,1.3.64,2.95.3,4.35.38,1.99,0,4.1,0,6.09,0,2.28,0,4.67,0,6.96,0,1.72-.37,3.47-1.2,5.22-1.48,7.74-1.32,15.81-.75,23.47.85.77.18,1.82.5,2.61.63,1.09,0,2.39,0,3.48,0,2.58,0,5.25,0,7.82,0,1.2.12,2.35-.88,3.48-1.19,1.92-.71,4.05-1.2,6.09-1.37,2.66-.3,5.36.27,7.82,1.24,1.93.61,4.08.74,6.09.58,4.33-.39,8.86-.84,13.04.64,3.44.24,6.98.03,10.43.09,4.92-3.62,11.66-4.45,17.39-2.43,1.49.52,3.06,1.34,4.35,2.25,1.95.39,4.1.09,6.09.18"/><path class="b" d="M8.62,206.72c1.16.23,2.47.73,3.48,1.35.38.35,1.22.81,1.74.85,1.69-.04,3.53.09,5.22-.09,7.16-6.29,17.97-4.4,26.08-1.08.79.32,1.83.79,2.61,1.14,2.28.05,4.67.01,6.96.02,2.58,0,5.25,0,7.82,0,1.69-.09,3.57.22,5.22-.21,6.37-2.35,13.41-1.45,20-.7,1.7.23,3.53.53,5.22.86,2.28.1,4.67.02,6.96.04,3.75,0,7.56,0,11.3,0,.83.06,1.83-.43,2.61-.65,1.65-.49,3.5-.82,5.22-.86,1.42-.03,3.01.17,4.35.66.44.18,1.33.61,1.74.85.42,0,1.32,0,1.74,0,9.27,0,18.56,0,27.82,0,5.21-3.7,12.22-4.8,18.26-2.62,6.6,2.75,2.25,2.72,10.43,2.62"/><path class="b" d="M8.62,205.44c1.16.18,2.47.63,3.48,1.23,2.27.26,4.67.05,6.96.12,1.93-1.1,3.87-2.49,6.09-2.99,3.37-.93,7-.95,10.43-.36,3.31.57,6.59,1.71,9.56,3.26,3.15.23,6.4.03,9.56.09,4.33,0,8.71,0,13.04,0,1.42-.04,2.91-.76,4.35-.85,2.57-.32,5.25-.23,7.82,0,2.3.17,4.66.67,6.96.84,5.78,0,11.61,0,17.39,0,12.17-.01,24.35,0,36.52,0,4.04,0,8.13,0,12.17,0,.88.17,1.91-.47,2.61-.95.73-.44,1.82-.97,2.61-1.3,4.08-1.69,8.75-2.15,13.04-1.06,2.53.54,4.76,2.04,6.96,3.31,1.69,0,3.53,0,5.22,0"/><path class="b" d="M8.62,204.38c3.7.58,7.56.16,11.3.28,1.17-.36,2.32-1.27,3.48-1.67,1.63-.64,3.47-1.05,5.22-1.21,3.2-.28,6.52.17,9.56,1.17,1.46.4,2.89,1.34,4.35,1.71,6.36,0,12.76,0,19.13,0,4.04-.03,8.15.14,12.17-.25,1.7-.08,3.52.2,5.22.25,3.16,0,6.4,0,9.56,0,19.99,0,40,0,59.99,0,1.39,0,2.96,0,4.35,0,.92.04,1.84-.79,2.61-1.19,1.04-.58,2.36-1.17,3.48-1.56,6.38-2.35,13.74-1.48,19.13,2.76h5.22"/><path class="b" d="M8.62,202.53c4.33,0,8.71,0,13.04,0,1.45-.23,2.88-1.11,4.35-1.34,3.14-.67,6.5-.48,9.56.47.8.24,1.79.73,2.61.86.46,0,1.29,0,1.74,0,1.99,0,4.1,0,6.09,0,5.49,0,11.03,0,16.52,0,15.64,0,31.3,0,46.95,0,9.85,0,19.72,0,29.56,0,3.45,0,6.98,0,10.43,0,1.08,0,2.39,0,3.48,0,1.19-.34,2.35-1.3,3.48-1.79,6.83-3.42,15.77-3.36,21.74,1.79h5.22"/><path class="b" d="M8.62,200.4c9.85,0,19.72,0,29.56,0,1.4,0,2.95,0,4.35,0,1.94-.62,4.04-1.1,6.09-1.08,2.35-.09,4.69.58,6.96,1.08,5.78,0,11.61,0,17.39,0,13.33,0,26.67,0,39.99,0,8.98,0,17.98,0,26.95,0,3.16,0,6.4,0,9.56,0,1.08,0,2.39,0,3.48,0,1.14-.48,2.35-1.37,3.48-1.88,6.82-3.42,15.82-3.44,21.74,1.79,1.68.19,3.52.05,5.22.09"/><path class="b" d="M8.62,198.27c9.27,0,18.56,0,27.82,0,1.49.11,2.91-.99,4.35-1.29,1.94-.56,4.07-.86,6.09-.89,2.32-.02,4.73.32,6.96.97,1.12.31,2.36.89,3.48,1.21.78,0,1.83,0,2.61,0,14.78,0,29.57,0,44.34,0,16.22,0,32.46,0,48.69,0,6.06-3.98,13.97-5.94,20.87-2.94,5.78,2.66,2.11,3.15,9.56,2.94"/><path class="b" d="M8.62,196.14c7.52,0,15.08,0,22.61,0,1.21.16,2.42-.41,3.48-.9,1.65-.67,3.48-1.23,5.22-1.59,3.7-.76,7.61-.78,11.3,0,2.38.5,4.8,1.36,6.96,2.48,2.58.05,5.25,0,7.82.02,7.81,0,15.66,0,23.47,0,19.12,0,38.26,0,57.38,0,1.39,0,2.96,0,4.35,0,.41,0,1.32,0,1.74,0,.45-.19,1.34-.7,1.74-1,3.86-2.39,8.49-3.68,13.04-3.42,3.41.2,6.84,1.36,9.56,3.45.53.69,1.75,1.1,2.61.96,1.08,0,2.4,0,3.48,0"/><path class="b" d="M8.62,192.31c.81.41,1.85,1.04,2.61,1.55,1.67.31,3.52.09,5.22.15,3.75,0,7.56,0,11.3,0,1.21.16,2.41-.61,3.48-1.05,1.37-.57,2.92-1.11,4.35-1.5,5.64-1.57,11.76-1.64,17.39.03,2.08.6,4.17,1.52,6.09,2.52,2.29,0,4.67,0,6.96,0,6.36,0,12.76,0,19.13,0,17.67,0,35.36,0,53.04,0,4.91,0,9.87,0,14.78,0,.92-.04,1.84-.89,2.61-1.32,1.32-.77,2.9-1.47,4.35-1.94,6.09-2.02,13.41-1.25,18.26,3.2,1.69.12,3.52.03,5.22.06"/><path class="b" d="M8.62,187.97c2.45.95,4.8,2.41,6.96,3.91,3.75,0,7.56,0,11.3,0,1.74-.62,3.44-1.7,5.22-2.25,3.6-1.27,7.48-1.92,11.3-1.92,4.45,0,8.95.92,13.04,2.67,1.12.43,2.3,1.24,3.48,1.5,1.99,0,4.1,0,6.09,0,21.15,0,42.32,0,63.47,0,5.49,0,11.03,0,16.52,0,1.69,0,3.53,0,5.22,0,1.1-.06,2.49.23,3.48-.38,4.02-2.74,9.07-4.05,13.91-3.52,2.08.23,4.23.86,6.09,1.83,1.16.52,2.24,1.73,3.48,2.07,1.69,0,3.53,0,5.22,0"/><path class="b" d="M8.62,184.02c2.73.82,5.37,2.18,7.82,3.62,1.15.59,2.21,1.78,3.48,2.11,1.7,0,3.52,0,5.22,0,1.19.08,2.53,0,3.48-.82,4.19-2.4,9.12-3.37,13.91-3.45,4.12-.05,8.29.66,12.17,2.04,1.12.4,2.41.94,3.48,1.44.44.22,1.28.62,1.74.79.45,0,1.29,0,1.74,0,22.6,0,45.21,0,67.82,0,5.78,0,11.61,0,17.39,0,1.69,0,3.53,0,5.22,0,.76,0,1.84,0,2.61,0,.45-.16,1.34-.62,1.74-.9,3.65-2.06,8.01-2.96,12.17-2.45,1.76.22,3.62.75,5.22,1.53.43.22,1.34.74,1.74,1.03,0,0,.87.66.87.66,0,0,.87.13.87.13,1.99,0,4.1,0,6.09,0"/><path class="b" d="M8.62,180.38c3.64.88,7.17,2.44,10.43,4.25,1.52.79,2.89,2.12,4.35,2.99,8.21.18,3.81-.14,10.43-2.62,6.74-2.21,14.2-1.68,20.87.53,1.74.56,3.53,1.4,5.22,2.09,3.75,0,7.56,0,11.3,0,8.11,0,16.24,0,24.34,0,4.07.22,8.12-.6,12.17-.79,5.49-.3,11.04-.08,16.52.27,4.04.35,8.13-.15,12.17-.18,1.4,0,2.97.1,4.35.32,1.08.23,2.37.47,3.48.39,3.75,0,7.56,0,11.3,0,.87-.05,1.83-.74,2.61-1.08,1.33-.6,2.91-1.08,4.35-1.35,3.16-.57,6.57-.38,9.56.85,1.16.36,2.24,1.54,3.48,1.57,2.58,0,5.25,0,7.83,0"/><path class="b" d="M8.62,177.02c5.96,1.22,13.94,4.01,18.26,8.38.79.12,1.82.09,2.61.09.81,0,1.85.07,2.61-.26,2.24-1.68,5.09-2.48,7.82-2.87,4.34-.58,8.81-.16,13.04.91,2.36.5,4.64,1.63,6.96,2.22,3.46,0,6.98,0,10.43,0,9.27,0,18.56,0,27.82,0,2.31-.3,4.64-1.12,6.96-1.43,4-.69,8.12-1.04,12.17-1.18,6.94-.11,13.97-.22,20.87.63,2.36.35,4.78.99,6.96,1.98,3.45,0,6.98,0,10.43,0,.77,0,1.85.05,2.61-.16.39-.19,1.32-.53,1.74-.67,1.92-.62,4.07-.92,6.09-.83,2.08.09,4.27.62,6.09,1.66,2.58.03,5.25,0,7.82.01,1.11-.18,2.34-.76,3.48-.82"/><path class="b" d="M8.62,173.92c5.7.8,11.31,2.65,16.52,5.07,2.15,1.06,4.37,2.37,6.09,4.06,1.55.64,3.55.2,5.22.31,4.62-2.84,10.49-2.49,15.65-1.67,1.41.25,2.97.61,4.35,1,1.08.3,2.33.78,3.48.68,10.14,0,20.29,0,30.43,0,2.58,0,5.25,0,7.82,0,1.14-.1,2.38-.72,3.48-1.03,1.96-.62,4.07-1.16,6.09-1.58,6.84-1.4,13.9-1.88,20.87-1.58,4.08.21,8.24.68,12.17,1.85,1.76.53,3.62,1.27,5.22,2.18,1.07.26,2.39.13,3.48.16,4.92-.04,9.89.17,14.78-.3,3.15.33,6.39.33,9.56.3,1.09-.04,2.43.15,3.48-.23,1.8-1.1,3.98-1.79,6.09-1.89"/><path class="b" d="M8.62,171.07c8.97.91,21.65,4.46,28.69,10.17,2.29,0,4.67,0,6.96,0,2.56-.36,5.22-.75,7.82-.47,4.6.66,9.28.45,13.91.47,6.65,0,13.34,0,20,0,4.04,0,8.13,0,12.17,0,.86.15,1.85-.42,2.61-.74.76-.33,1.83-.74,2.61-1.02,13.35-4.64,31.02-5.9,43.47,1.74,8.68.08,17.4,0,26.08.03,1.25.04,2.33-1.14,3.48-1.53,2.15-.97,4.59-1.54,6.96-1.6"/><path class="b" d="M8.62,168.46c11.07.63,24.31,4.15,33.91,9.77.99.84,2.24.96,3.48.87,1.4,0,2.95,0,4.35,0,4.04,0,8.13,0,12.17,0,8.4,0,16.82,0,25.21,0,3.46,0,6.98,0,10.43,0,.43.01,1.31-.02,1.74-.06,1.07-.58,2.37-1.22,3.48-1.71,8.95-3.84,19.03-5.59,28.69-4.01,3.57.59,7.14,1.61,10.43,3.12,1.12.52,2.43,1.21,3.48,1.87.32.32,1.28.75,1.74.8,1.08,0,2.39,0,3.48,0,6.36,0,12.76,0,19.13,0,1.48-.45,2.87-1.58,4.35-2.1,2.72-1.15,5.74-1.76,8.69-1.78"/><path class="b" d="M8.62,166.1c12.78.17,26.92,3.45,38.26,9.4.79.43,1.8,1.08,2.61,1.47,2.29,0,4.67,0,6.96,0,8.98,0,17.98,0,26.95,0,5.49,0,11.03,0,16.52,0,1.25.04,2.37-1.09,3.48-1.55,1.65-.85,3.48-1.67,5.22-2.32,6.61-2.46,13.83-3.7,20.87-2.83,4.18.51,8.35,1.67,12.17,3.44,1.77.82,3.62,1.87,5.22,3.01,1.04.42,2.39.21,3.48.25,5.78,0,11.61,0,17.39,0,.48.05,1.38-.31,1.74-.64,1.04-.62,2.36-1.27,3.48-1.74,3.27-1.37,6.89-2.03,10.43-2"/><path class="b" d="M8.62,163.98c13.89-.44,28.55,2.27,40.86,8.84,1.12.59,2.32,1.51,3.48,2.02,2.87,0,5.82,0,8.69,0,13.33,0,26.67,0,39.99,0,13.94-9.25,31.44-10.14,45.21-.08,6.64.22,13.35.01,20,.08,4.88-3.17,10.7-4.81,16.52-4.64"/><path class="b" d="M8.62,162.12c15.53-1.29,33.21,1.34,46.08,10.6,15.36,0,30.73,0,46.08,0,.44,0,1.3,0,1.74,0,1.49-.63,2.9-1.83,4.35-2.55,2.99-1.65,6.26-2.97,9.56-3.82,6.26-1.7,12.99-1.32,19.13.68,3.7,1.2,7.31,2.98,10.43,5.31.7.48,1.81.39,2.61.38,1.39,0,2.96,0,4.35,0,3.75,0,7.56,0,11.3,0,.41,0,1.32,0,1.74,0,.42-.23,1.33-.73,1.74-.99,1.05-.59,2.36-1.21,3.48-1.66,3.83-1.58,8.05-2.12,12.17-2.02"/><path class="b" d="M8.62,160.51c15.06-2.15,31.29-.3,44.34,7.93,1.13.62,2.19,1.89,3.48,2.15,2.87,0,5.82,0,8.69,0,1.09-.02,2.4.06,3.48-.09,1.07-.28,2.38-.47,3.48-.55,2.3-.16,4.71.15,6.96.64,8.39-.06,16.83.12,25.21-.07,13.14-9.88,28.55-9.44,41.73.07h20c5.13-3.36,11.31-4.71,17.39-4.44"/><path class="b" d="M8.62,159.17c13.32-2.76,27.69-2.05,39.99,4.11,11.56,5.89,3.19,5.2,17.39,5.16.81.01,1.87.06,2.61-.33,1.07-.35,2.36-.64,3.48-.79,2.28-.3,4.7-.22,6.96.19,1.43.16,2.91.96,4.35.93,6.94,0,13.92,0,20.87,0,.9.14,1.96-.32,2.61-.93,1.05-.75,2.35-1.57,3.48-2.19,3.22-1.77,6.79-3.08,10.43-3.64,6.84-.94,13.96.77,20,4.02,1.47.75,2.91,1.94,4.35,2.74,1.99,0,4.1,0,6.09,0,4.91,0,9.87,0,14.78,0,.47,0,1.37-.35,1.74-.66,1.04-.59,2.36-1.19,3.48-1.61,3.85-1.53,8.07-1.81,12.17-1.69"/><path class="b" d="M8.62,158.14c17.07-4.74,34.48-2.92,48.69,8.18,3.45-.04,6.98.08,10.43-.05,3.23-1.49,6.91-2.01,10.43-1.73,1.42.11,2.98.38,4.35.75,1.12.26,2.34.89,3.48,1.03,6.07,0,12.18,0,18.26,0,.78,0,1.83,0,2.61,0,.89-.29,1.84-1.13,2.61-1.62,2.13-1.42,4.54-2.63,6.96-3.47,5.58-2.06,11.77-1.61,17.39.07,3.39,1.03,6.73,2.58,9.56,4.72,1.02.5,2.38.25,3.48.31,1.39,0,2.96,0,4.35,0,4.33,0,8.71,0,13.04,0,1.08,0,2.39,0,3.48,0,1.7-.66,3.44-1.67,5.22-2.14,3.35-1.1,6.95-1.13,10.43-1.06"/><path class="b" d="M8.62,157.44c6.96-2.37,14.35-3.97,21.74-3.58,9.72.54,19.45,4.08,26.95,10.33,3.46,0,6.98,0,10.43,0,2.95-1.46,6.27-2.3,9.56-2.33,3.56-.06,7.2.69,10.43,2.19,1.97.31,4.1.07,6.09.14,3.16,0,6.4,0,9.56,0,1.09,0,2.39,0,3.48,0,.8,0,1.88.09,2.61-.33,3.77-2.84,8.31-4.89,13.04-5.32,7.01-.35,14.23,1.63,20,5.66,8.98,0,17.98,0,26.95,0,.85.14,1.84-.41,2.61-.72,1.06-.41,2.36-.79,3.48-1.01,2.54-.58,5.24-.39,7.82-.41"/><path class="b" d="M8.62,157.15c6.56-2.9,13.64-5.06,20.87-5.06,10.02,0,20.05,3.64,27.82,9.94,3.45.07,6.98,0,10.43.03,1.47-.3,2.88-1.31,4.35-1.68,3.34-1.06,6.97-1.31,10.43-.82,2.7.37,5.39,1.27,7.82,2.49,1.39,0,2.95,0,4.35,0,5.49-.1,11.05.2,16.52-.12,3.51-2.59,7.78-4.42,12.17-4.6,6.03.01,12.28,1.41,17.39,4.71,11.01.04,22.03,0,33.04.01,1.42.05,2.92-.62,4.35-.67,1.69-.17,3.52.02,5.22-.04"/><path class="b" d="M8.62,157.41c16.28-10.09,33.45-8.85,48.69,2.52,3.75,0,7.56,0,11.3,0,4.52-2.37,9.68-3.57,14.78-2.88,3.01.36,6.03,1.29,8.69,2.73,1.37.29,2.95.1,4.35.15,5.49,0,11.03,0,16.52,0,1.18-.35,2.35-1.28,3.48-1.76,1.61-.75,3.46-1.34,5.22-1.6,4.06-.46,8.26.31,12.17,1.38,1.44.43,3.01,1.03,4.35,1.71.74.34,1.82.27,2.61.27,4.04,0,8.13,0,12.17,0,1.38-.24,2.94-.44,4.35-.41,1.41-.02,2.95.31,4.35.41,1.69,0,3.53,0,5.22,0,5.49,0,11.03,0,16.52,0"/><path class="b" d="M8.62,157.8h.87c13.16-11.32,29.99-11.06,44.34-2.11,1.12.63,2.26,1.67,3.48,2.11,1.99,0,4.1,0,6.09,0,1.99,0,4.1,0,6.09,0,1.08-.54,2.34-1.24,3.48-1.67,4.94-1.94,10.55-2.11,15.65-.69,2.11.48,4.07,1.69,6.09,2.36,6.65,0,13.34,0,20,0,1.85.2,3.46-1.16,5.22-1.53,3.68-1.04,7.62-.28,11.3.35,1.42.28,2.98.72,4.35,1.18,4.04,0,8.13,0,12.17,0,1.41,0,3.01.13,4.35-.42,1.94-.55,4.07-.84,6.09-.84,2.64-.08,5.29.63,7.82,1.26,5.78,0,11.61,0,17.39,0"/><path class="b" d="M8.62,155.67h4.35c13.21-11.58,29.67-9.38,43.47-.04,4.62.11,9.29,0,13.91.04,5.47-3.18,12.07-4.25,18.26-2.86,2.39.51,4.81,1.4,6.96,2.57,1.32.54,2.95.2,4.35.29,6.65,0,13.34,0,20,0,1.4-.06,2.93-.5,4.35-.34,3.44.45,6.97.34,10.43.34,4.62,0,9.29,0,13.91,0,1.47.1,2.92-.88,4.35-1.14,1.95-.5,4.08-.77,6.09-.78,2.01,0,4.14.25,6.09.75,1.43.24,2.88,1.26,4.35,1.18,4.62,0,9.29,0,13.91,0"/><path class="b" d="M8.62,153.54c2.57-.08,5.27.18,7.82-.14,9.95-9.71,25.26-8,36.52-1.57,1.11.52,2.25,1.52,3.48,1.71,2.58,0,5.25,0,7.82,0,1.69,0,3.52,0,5.22,0,.81,0,1.87.09,2.61-.32,1.6-.93,3.44-1.7,5.22-2.21,4.79-1.37,10.01-1.26,14.78.15,1.12.33,2.42.82,3.48,1.3,1.05.5,2.26,1.26,3.48,1.08,11.88,0,23.77,0,35.65,0,4.62,0,9.29,0,13.91,0,1.14-.2,2.37-.88,3.48-1.19,1.65-.52,3.5-.89,5.22-1.06,4.45-.47,8.99.4,13.04,2.25,4.33,0,8.71,0,13.04,0"/><path class="b" d="M8.62,151.41c3.45-.1,7.01.21,10.43-.14,9.69-8.95,24.15-6.59,34.78-.63,1.76,1.23,4.07.64,6.09.77,3.16,0,6.4,0,9.56,0,1.09-.02,2.4.07,3.48-.11.44-.25,1.28-.72,1.74-.93,1.89-.9,4.02-1.58,6.09-1.96,4.31-.79,8.86-.47,13.04.82,1.76.54,3.59,1.33,5.22,2.18.77,0,1.83,0,2.61,0,11.3,0,22.61,0,33.91,0,4.33,0,8.71,0,13.04,0,2.8-1.03,5.68-2.17,8.69-2.41,2.88-.32,5.89-.14,8.69.58,1.77.36,3.48,1.39,5.22,1.83,4.04,0,8.13,0,12.17,0"/><path class="b" d="M8.62,149.28c3.16,0,6.4,0,9.56,0,3.81.23,3.14-.48,6.09-2.21,8.91-5.15,19.92-3,28.69,1.37.45.21,1.29.63,1.74.84,1.69,0,3.52,0,5.22,0,3.75,0,7.56,0,11.3,0,.78,0,1.83,0,2.61,0,1.16-.28,2.35-1.08,3.48-1.47,1.92-.75,4.04-1.27,6.09-1.52,3.76-.46,7.67-.1,11.3.95,1.75.5,3.57,1.27,5.22,2.04.77,0,1.83,0,2.61,0,11.01,0,22.03,0,33.04,0,4.33,0,8.71,0,13.04,0,1.17-.07,2.37-.85,3.48-1.16,1.64-.56,3.49-.97,5.22-1.17,2.87-.33,5.9-.15,8.69.6,1.12.3,2.43.78,3.48,1.28,0,0,.87.45.87.45h.87c4.04,0,8.13,0,12.17,0"/><path class="b" d="M8.62,147.15h14.78c6.18-4.6,14.5-5.1,21.74-3.04,2.35.64,4.73,1.55,6.96,2.53,1.28.75,2.93.46,4.35.51,6.36,0,12.76,0,19.13,0,.52.09,1.31-.15,1.74-.44.76-.35,1.81-.76,2.61-1.01,2.22-.71,4.63-1.12,6.96-1.21,3.82-.15,7.71.48,11.3,1.77.77.28,1.79.76,2.61.9,1.69,0,3.52,0,5.22,0,11.59,0,23.19,0,34.78,0,2.87,0,5.82,0,8.69,0,2.73-1.21,5.71-2.09,8.69-2.32,2.59-.21,5.32.01,7.82.73,1.46.32,2.89,1.31,4.35,1.58,4.33,0,8.71,0,13.04,0"/><path class="b" d="M8.62,145.02c5.78,0,11.61,0,17.39,0,2.21-1.01,4.53-2.06,6.96-2.43,2.85-.51,5.85-.46,8.69,0,1.73.29,3.56.77,5.22,1.33,1.11.32,2.31,1.03,3.48,1.09,3.46,0,6.98,0,10.43,0,6.07,0,12.19,0,18.26,0,1.44-.15,2.91-.95,4.35-1.21,2.24-.53,4.65-.77,6.96-.73,2.31.04,4.71.36,6.96.91,1.42.24,2.9,1.11,4.35,1.03,6.07,0,12.19,0,18.26,0,9.85,0,19.72,0,29.56,0,3.33-1.25,6.82-2.43,10.43-2.38,2.32-.02,4.76.34,6.96,1.11,1.13.31,2.28,1.3,3.48,1.26,4.33,0,8.71,0,13.04,0"/><path class="b" d="M8.62,142.89c6.94,0,13.92,0,20.87,0,2.32.15,4.64-.71,6.96-.66,2.03-.09,4.1.4,6.09.66,3.75,0,7.56,0,11.3,0,10.14,0,20.29,0,30.43,0,3.68-.88,7.53-1.27,11.3-.86,2.6.24,5.19,1.08,7.82.86,10.14,0,20.29,0,30.43,0,5.2,0,10.45,0,15.65,0,.85.04,1.84-.56,2.61-.85,1.35-.53,2.92-.97,4.35-1.23,2.55-.46,5.28-.48,7.82,0,1.11.22,2.43.6,3.48,1.04.76.32,1.76.97,2.61,1.03,4.33,0,8.71,0,13.04,0"/><path class="b" d="M8.62,139.8c.47.23,1.28.72,1.74.97,1.4,0,2.95,0,4.35,0,3.16,0,6.4,0,9.56,0,9.27,0,18.56,0,27.82,0,26.66,0,53.33,0,79.99,0,6.07,0,12.19,0,18.26,0,.83-.1,1.84-.69,2.61-1,1.05-.42,2.37-.82,3.48-1.06,2.83-.6,5.87-.63,8.69,0,1.79.38,3.62,1.16,5.22,2.06,4.33,0,8.71,0,13.04,0"/><path class="b" d="M8.62,136.82c.82.34,1.86.9,2.61,1.36.56.34,1.1.55,1.74.46,3.75,0,7.56,0,11.3,0,3.46,0,6.98,0,10.43,0,4.51-1.27,9.21-2.22,13.91-2.18,2.61.01,5.3.33,7.82.97,1.43.28,2.9,1.09,4.35,1.21,5.78,0,11.61,0,17.39,0,18.54,0,37.1,0,55.64,0,5.78,0,11.61,0,17.39,0,.87,0,1.83-.69,2.61-1.02,1.04-.46,2.36-.87,3.48-1.12,2.83-.61,5.88-.6,8.69.08,1.8.37,3.55,1.34,5.22,2.06,4.04,0,8.13,0,12.17,0"/><path class="b" d="M8.62,134.24c1.48.54,3.04,1.38,4.35,2.27,3.46,0,6.98,0,10.43,0,1.4,0,2.95,0,4.35,0,1.12-.28,2.37-.85,3.48-1.18,10.09-3.25,21.41-3.68,31.3.5.76.33,1.75.81,2.61.68,1.4,0,2.95,0,4.35,0,3.46,0,6.98,0,10.43,0,10.14,0,20.29,0,30.43,0,3.45,0,6.98,0,10.43,0,1.99-.09,4.16.27,6.09-.34,4.19-1.23,8.71-2.01,13.04-1.09,1.76.2,3.49,1.51,5.22,1.43,2.58,0,5.25,0,7.83,0,2.4-1.31,5.06-2.37,7.83-2.53,2.3-.19,4.74.07,6.96.75,1.47.37,2.91,1.36,4.35,1.78,3.75,0,7.56,0,11.3,0"/><path class="b" d="M8.62,132.02c1.48.48,3.05,1.24,4.35,2.1,1.89.55,4.12.13,6.09.26,1.7,0,3.52,0,5.22,0,.87-.07,1.83-.71,2.61-1.05,1.07-.48,2.36-.98,3.48-1.35,6.41-2.1,13.28-2.86,20-2.28,3.82.34,7.66,1.16,11.3,2.35,1.41.46,2.97,1.04,4.35,1.59.77.29,1.75.86,2.61.73,9.85,0,19.72,0,29.56,0,3.75,0,7.56,0,11.3,0,2.89,0,5.87.16,8.69-.56,4.66-.78,9.22-2.33,13.91-2.96,5.36-.66,11.29.03,15.65,3.44,2.28.19,4.67.04,6.96.08,3.73-2.63,8.7-3.05,13.04-1.93,1.13.3,2.43.79,3.48,1.31.4.28,1.25.61,1.74.62,3.45,0,6.98,0,10.43,0"/><path class="b" d="M8.62,130.13c1.49.44,3.06,1.18,4.35,2.04,2.87.17,5.82.03,8.69.07,1.26.19,2.38-.98,3.48-1.44,1.35-.69,2.91-1.33,4.35-1.81,8.07-2.7,16.85-3.09,25.21-1.65,4.42.74,8.77,2.08,13.04,3.41,1.1.33,2.4.76,3.48,1.15.43.22,1.26.41,1.74.34,10.14,0,20.29,0,30.43,0,3.16-.1,6.43.21,9.56-.15,3.97-1.4,8.09-2.54,12.17-3.57,5.35-1.43,11.06-2.23,16.52-.97,3.14.71,6.31,2.05,8.69,4.27.66.53,1.82.44,2.61.43,1.08,0,2.39,0,3.48,0,4.84-3.48,11.49-2.64,16.52,0,3.45,0,6.98,0,10.43,0"/><path class="b" d="M8.62,128.6c1.15.32,2.45.9,3.48,1.51,2.87,0,5.82,0,8.69,0,9.08-6.1,20.67-7.14,31.3-5.87,6.46.83,12.78,2.62,19.13,4.04,1.1.28,2.4.66,3.48,1.01,1.08.33,2.32.94,3.48.82,11.3,0,22.61,0,33.91,0,11.58-5.62,26.52-10.16,38.26-2.62,3.71,2.72,1.86,2.73,6.96,2.62.46.09,1.36-.13,1.74-.42.71-.44,1.8-.88,2.61-1.1,3.13-.82,6.56-.41,9.56.74.42.17,1.33.56,1.74.77,1.08,0,2.39,0,3.48,0,2.28,0,4.67,0,6.96,0"/><path class="b" d="M8.62,127.47c1.33.61,2.92.54,4.35.52,1.99,0,4.1,0,6.09,0,7.77-5.47,17.62-7.08,26.95-6.76,6.45.21,12.81,1.62,19.13,2.83,3.46.6,7.03.98,10.43,1.85,2.35.46,4.64,1.55,6.96,2.08,4.33,0,8.71,0,13.04,0,4.91,0,9.87,0,14.78,0,.78,0,1.86.07,2.61-.22,1.31-.98,2.89-1.93,4.35-2.67,3.27-1.68,6.86-2.82,10.43-3.66,9.45-2.29,21-1.12,27.82,6.44,1.68.22,3.53.1,5.22.08,1.53-.93,3.44-1.34,5.22-1.36,2.39-.11,4.7.81,6.96,1.39,3.45,0,6.98,0,10.43,0"/><path class="b" d="M8.62,125.86h8.69c10.01-7.03,22.97-7.98,34.78-6.43,4.35.55,8.7,1.46,13.04,2.04,3.45.42,7,.51,10.43,1.1,2.32.37,4.72.91,6.96,1.66,1.44.41,2.89,1.3,4.35,1.64,8.69,0,17.4,0,26.08,0,1.47-.87,2.84-2.26,4.35-3.1,2.67-1.64,5.68-2.84,8.69-3.66,10.92-3.38,23.98-1.69,32.17,6.76,1.69,0,3.52,0,5.22,0,1.1-.13,2.36-.55,3.48-.54,1.42-.06,2.96.3,4.35.54,4.04,0,8.13,0,12.17,0"/><path class="b" d="M8.62,123.73h6.96c9.3-6.43,21.12-7.92,32.17-6.92,6.97.53,13.85,2.38,20.87,2.42,4.95.03,9.99.29,14.78,1.63,1.43.4,3,.97,4.35,1.62,1.06.49,2.24,1.45,3.48,1.26,7.52,0,15.08,0,22.61,0,3.79-3.87,8.66-6.38,13.91-7.64,10.61-2.98,22.9-.97,31.3,6.39.34.43,1.19,1.12,1.74,1.25.43,0,1.31,0,1.74,0,1.69,0,3.52,0,5.22,0,5.2,0,10.45,0,15.65,0"/><path class="b" d="M8.62,121.6c1.7,0,3.52,0,5.22,0,2.25-1.26,4.53-2.73,6.96-3.65,4.68-1.93,9.74-3.01,14.78-3.39,9.35-.84,18.57,1.34,27.82,2.25,3.74.33,7.55-.19,11.3-.13,6.34,0,13.07,1.03,18.26,4.93h21.74c3.6-4.25,8.57-6.75,13.91-8.06,8.95-2.51,18.76-1.26,26.95,3.06,1.78.93,3.62,2.08,5.22,3.29.76.54,1.63,1.58,2.61,1.71,6.65,0,13.34,0,20,0"/><path class="b" d="M8.62,119.47c1.4-.03,2.96.1,4.35-.11,2.66-1.81,5.66-3.25,8.69-4.31,6.66-2.34,13.85-3,20.87-2.57,7.86.35,15.59,2.56,23.47,2.42,10.18-.99,21.07-2.52,29.56,4.58h20c3.59-4.3,7.69-6.55,13.04-8.03,8.55-2.61,17.92-1.68,26.08,1.84,3.64,1.53,7.12,3.58,10.43,5.72.67.58,1.78.49,2.61.47,1.39,0,2.95,0,4.35,0,3.75,0,7.56,0,11.3,0"/><path class="b" d="M8.62,117.34h3.48c8.09-5.53,18.16-7.36,27.82-6.85,5.83.26,11.61,1.39,17.39,2.18,2.85.37,5.82.61,8.69.38,5.48-.67,10.96-2.04,16.52-1.69,3.9.19,7.88,1.08,11.3,3.01.82.46,1.89,1.2,2.61,1.81.31.41,1.23,1.05,1.74,1.17,6.08,0,12.18-.02,18.26,0,1.21-.95,2.25-2.49,3.48-3.42,2.01-1.69,4.5-2.86,6.96-3.75,8.32-3.22,17.69-2.99,26.08-.14,3.57,1.17,7.06,2.78,10.43,4.42,1.38.66,2.93,1.4,4.35,1.98,1.06.38,2.32,1.01,3.48.91,4.04-.05,8.14.13,12.17-.11"/><path class="b" d="M8.62,115.21h3.48c12.26-8.8,27.74-7.16,41.73-4.49,4.28.7,8.73,1.27,13.04.54,4.32-.87,8.63-2.13,13.04-2.47,7.13-.66,15.01.94,20,6.42,4.04,0,8.13,0,12.17,0,1.4,0,2.95,0,4.35,0,1.13.22,2.04-.62,2.61-1.49,3.34-3.75,8.31-5.57,13.04-6.84,9.31-2.38,19.08-.32,27.82,3.22,5.56,2.21,11.28,4.71,17.39,4.49,2,0,4.08-.5,6.09-.47"/><path class="b" d="M8.62,113.08c1.4-.07,2.99.19,4.35-.21,2.08-1.59,4.51-2.88,6.96-3.79,7.19-2.68,15.09-2.71,22.61-1.64,4.94.67,9.84,1.9,14.78,2.55,3.75.5,7.67.43,11.3-.7,5.36-1.62,10.86-3.31,16.52-3.24,4.21.02,8.51.97,12.17,3.08,1.18.69,2.49,1.67,3.48,2.62.28.46,1.21,1.2,1.74,1.33.42,0,1.32,0,1.74,0,4.91,0,9.87,0,14.78,0,2.57-3.42,6.48-5.48,10.43-6.9,7.21-2.66,15.2-2.58,22.61-.79,8.16,1.84,15.86,5.96,24.34,6.21,2.29.16,4.67-.37,6.96-.28"/><path class="b" d="M8.62,110.95c1.69-.07,3.55.18,5.22-.17,2.03-1.67,4.48-2.96,6.96-3.83,9.58-3.37,19.94-1.55,29.56.67,5.1,1.12,10.47,2.25,15.65,1,4.95-1.38,9.68-3.72,14.78-4.58,8.31-1.68,17.84.18,23.47,6.9,3.46,0,6.98,0,10.43,0,1.4,0,2.95,0,4.35,0,1.1.16,1.99-.39,2.61-1.25,8.16-7.21,20.12-8.35,30.43-6.16,7.02,1.39,13.75,4.17,20.87,5.12,1.98.27,4.09.42,6.09.34,1.39-.08,2.95-.3,4.35-.16"/><path class="b" d="M8.62,108.82h6.09c8.3-6.64,19.76-6.01,29.56-3.73,7.63,1.67,15.8,5.01,23.47,1.82,4.28-1.79,8.51-3.89,13.04-4.98,6.94-1.79,14.73-1.24,20.87,2.67,1.18.75,2.49,1.79,3.48,2.78.34.46,1.19,1.24,1.74,1.43,3.75,0,7.56,0,11.3,0,1.39-.1,3.04.27,4.35-.32.39-.41,1.29-1.15,1.74-1.49,2.37-1.69,5.07-3.08,7.82-4.02,12.38-4.36,24.37.06,36.52,2.7,2.84.56,5.8.99,8.69,1.09,1.99.12,4.1-.31,6.09-.08"/><path class="b" d="M8.62,106.69c12.25.13,4.45.11,13.91-3.41,9.82-3.09,20.06.12,29.56,2.9,2.49.85,5.24.42,7.82.51,2.6-.13,5.45.49,7.82-.84,5.31-2.65,10.62-5.67,16.52-6.79,8.67-1.86,18.54.61,24.34,7.56,5.2.16,10.45.01,15.65.06,12.81-10.09,27.23-6.49,41.73-3.29,3.71.73,7.52,1.36,11.3,1.54,1.99.14,4.1-.28,6.09.02"/><path class="b" d="M8.62,104.56c1.99,0,4.1,0,6.09,0,1.1-.05,2.45.2,3.48-.31,1.28-.94,2.85-1.75,4.35-2.27,5.87-2.02,12.32-1.45,18.26-.01,2.01.49,4.12,1.13,6.09,1.77,1.37.5,2.87.99,4.35.82,3.75,0,7.56,0,11.3,0,1.39,0,2.95,0,4.35,0,.84.06,1.94-.04,2.61-.61,6.81-4.24,14.38-8.09,22.61-7.88,5.25.07,10.52,1.76,14.78,4.84,1.54,1,2.84,2.64,4.35,3.65,3.46,0,6.98,0,10.43,0,1.09,0,2.39,0,3.48,0,.84.02,1.92.11,2.61-.47,2.36-1.62,5.08-2.85,7.83-3.63,4.78-1.36,9.86-1.5,14.78-.99,7.58.84,15.02,2.8,22.61,3.68,1.98.24,4.09.46,6.09.46,1.4-.03,2.97-.2,4.35.1"/><path class="b" d="M8.62,102.43c3.46,0,6.98,0,10.43,0,.85-.21,1.82-.89,2.61-1.24,1.34-.61,2.91-1.08,4.35-1.35,3.42-.64,7.01-.5,10.43.07,3.25.49,6.42,1.63,9.56,2.52,8.11,0,16.24,0,24.34,0,5.06-3.45,10.46-6.71,16.52-8,9.32-2.2,19.61.88,26.08,7.96,5.78.09,11.61,0,17.39.03,2.46-1.26,5.1-2.39,7.83-2.93,4.26-.92,8.73-.87,13.04-.37,7.54.98,15.04,2.51,22.61,3.3,3.16,0,6.4,0,9.56,0"/><path class="b" d="M8.62,100.3c4.04,0,8.13,0,12.17,0,1.18.07,2.35-.84,3.48-1.09,2.22-.67,4.64-.93,6.96-.89,2.31.04,4.71.39,6.96.91,1.41.27,2.92.92,4.35,1.07,9.85,0,19.72,0,29.56,0,4.76-3.41,9.86-6.64,15.65-7.95,9.56-2.45,20.09.71,26.95,7.75,2.23.46,4.68.09,6.96.21,4.33,0,8.71,0,13.04,0,1.45.12,2.94-.54,4.35-.79,1.97-.39,4.08-.55,6.09-.54,3.78.02,7.58.71,11.3,1.32,8.98,0,17.98,0,26.95,0"/><path class="b" d="M8.62,98.17c5.49,0,11.03,0,16.52,0,1.7-.12,3.5-.57,5.22-.51,2.02-.09,4.09.43,6.09.51,6.07,0,12.18,0,18.26,0,4.33,0,8.71,0,13.04,0,1.4,0,2.95,0,4.35,0,.8,0,1.86.07,2.61-.27,3.36-2.79,7.19-5.17,11.3-6.66,6.09-2.26,12.97-2.43,19.13-.29,3.1,1.06,6.09,2.69,8.69,4.68.81.62,1.87,1.53,2.61,2.23.72.4,1.81.32,2.61.32,1.09,0,2.39,0,3.48,0,4.33,0,8.71,0,13.04,0,15.93,0,31.88,0,47.82,0"/><path class="b" d="M8.62,96.04h67.82c12.52-10.75,27.88-11.83,40.86-1.17.39.39,1.21,1,1.74,1.17,1.39,0,2.95,0,4.35,0,3.16,0,6.4,0,9.56,0,16.8,0,33.62,0,50.43,0"/><path class="b" d="M8.62,93.91c15.07,0,30.15,0,45.21,0,5.49,0,11.03,0,16.52,0,2.87-.08,5.84.17,8.69-.12,7.18-7.07,18.08-10.13,27.82-7.34,3.04.82,6.01,2.16,8.69,3.81,1.8,1.03,3.47,2.56,5.22,3.65h62.6"/><path class="b" d="M8.62,91.78h72.16c12.73-11.63,28.65-10.41,41.73-.02,20.28.06,40.58,0,60.86.02"/><path class="b" d="M8.62,89.65c17.09,0,34.2,0,51.3,0,4.91,0,9.87,0,14.78,0,1.69,0,3.52,0,5.22,0,1.1-.06,2.46.21,3.48-.33,2.91-2.87,6.56-5.06,10.43-6.33,6.18-2.07,13.03-1.72,19.13.45,3.68,1.29,7.19,3.21,10.43,5.36.9.86,2.31.93,3.48.85,1.09,0,2.39,0,3.48,0,3.75,0,7.56,0,11.3,0,13.91,0,27.83,0,41.73,0"/><path class="b" d="M8.62,87.52c12.75,0,25.51,0,38.26,0,1.44.1,2.95-.48,4.35-.74,2.26-.46,4.65-.76,6.96-.78,2.01-.02,4.13.18,6.09.64,1.11.2,2.33.89,3.48.88,3.75,0,7.56,0,11.3,0,1.98-.07,4.12.18,6.09-.15,11.32-10.88,26.59-8.94,39.12-1.33.78.44,1.78,1.13,2.61,1.48,1.09,0,2.39,0,3.48,0,2.87,0,5.82,0,8.69,0,14.78,0,29.57,0,44.34,0"/><path class="b" d="M8.62,85.39c10.43,0,20.87,0,31.3,0,1.45-.1,2.94-.85,4.35-1.18,2.25-.64,4.64-1.17,6.96-1.52,4-.6,8.17-.75,12.17-.07,2.75.39,5.4,1.47,7.82,2.77,5.2,0,10.45,0,15.65,0,11.27-10.72,26.58-8.56,39.12-1.4.77.43,1.76,1.14,2.61,1.4,1.09,0,2.39,0,3.48,0,2.58,0,5.25,0,7.82,0,14.49,0,28.99,0,43.47,0"/><path class="b" d="M8.62,83.26c8.4,0,16.82,0,25.21,0,4.84-1.55,9.72-3.23,14.78-3.93,5.16-.8,10.5-.97,15.65-.04,2.05.39,4.22.91,6.09,1.86,1.16.55,2.33,1.55,3.48,2.12,4.91,0,9.87,0,14.78,0,12.39-10.59,27.86-8.06,40.86,0h53.91"/><path class="b" d="M8.62,81.13c4.33,0,8.71,0,13.04,0,1.39,0,2.95,0,4.35,0,1.1-.04,2.42.14,3.48-.21,9.57-3.96,20.05-6.15,30.43-5.36,5.57.45,11.48,1.54,15.65,5.56,3.16,0,6.4,0,9.56,0,1.98-.08,4.13.19,6.09-.16,10.11-9.07,25.37-7.53,36.52-1.22.77.43,1.72,1.19,2.61,1.38,1.09,0,2.39,0,3.48,0,2.58,0,5.25,0,7.82,0,13.91,0,27.83,0,41.73,0"/><path class="b" d="M8.62,79c5.49,0,11.03,0,16.52,0,4.16-1.98,8.57-3.55,13.04-4.66,8.21-2.05,16.84-2.54,25.21-1.3,5.88.77,9.37,2.06,13.91,5.96,4.91,0,9.87,0,14.78,0,.93.14,1.97-.32,2.61-.99.75-.56,1.79-1.27,2.61-1.72,2.66-1.5,5.68-2.51,8.69-2.98,5.85-.93,11.91.09,17.39,2.25,1.45.55,3.02,1.28,4.35,2.09.77.44,1.68,1.3,2.61,1.36,5.49,0,11.03,0,16.52,0,12.17,0,24.35,0,36.52,0"/><path class="b" d="M8.62,76.87c4.33,0,8.71,0,13.04,0,.91.18,1.83-.56,2.61-.92,1.07-.54,2.37-1.13,3.48-1.59,3.35-1.4,6.89-2.51,10.43-3.31,7.96-1.81,16.27-1.96,24.34-.81,6.03.75,11.26,1.98,15.65,6.53,2.86.26,5.83.04,8.69.11,3.16-.07,6.42.15,9.56-.1,8.41-7.1,21.17-6.53,30.43-1.4.79.45,1.71,1.28,2.61,1.51,1.09,0,2.39,0,3.48,0,2.58,0,5.25,0,7.82,0,14.2,0,28.41,0,42.6,0"/><path class="b" d="M8.62,74.74h12.17c11.07-6.85,24.57-8.96,37.39-7.52,3.77.43,7.6.98,11.3,1.78,3.62.95,7.03,2.99,9.56,5.74,6.36,0,12.76,0,19.13,0,1.34.23,2.42-1.04,3.48-1.64,1.58-.96,3.44-1.72,5.22-2.2,6.95-1.79,15.06-.58,20.87,3.74,2.56.24,5.25.04,7.82.1,3.22-1.58,6.86-2.23,10.43-2.02,3.26.11,6.49,1,9.56,2.02,9.27,0,18.56,0,27.82,0"/><path class="b" d="M8.62,72.61c3.74-.06,7.57.13,11.3-.09,1.86-1.37,4-2.56,6.09-3.54,10.52-4.97,22.54-5.63,33.91-3.87,4.04.72,8.3.98,12.17,2.4,1.83.72,3.69,1.79,5.22,3.02,1.72,1.45,1.79,2.3,4.35,2.07,1.69,0,3.52,0,5.22,0,1.4-.14,2.91-.72,4.35-.62,1.11.01,2.42.28,3.48.62,2.58,0,5.25,0,7.82,0,5.39-4.12,12.84-4.74,19.13-2.45,1.47.54,3.08,1.26,4.35,2.2,1.04.41,2.38.21,3.48.25,1.09-.02,2.4.06,3.48-.09,5.59-4.3,13.39-4.42,20-2.79,1.74.45,3.58,1.1,5.22,1.85,1.04.53,2.26,1.21,3.48,1.03,7.23,0,14.5,0,21.74,0"/><path class="b" d="M8.62,70.48h10.43c8.36-6.41,19.14-9.04,29.56-8.67,7.02.22,13.95,1.69,20.87,2.82,2.81.63,5.58,1.9,7.82,3.71,1.72,1.43,1.79,2.4,4.35,2.15,1.09,0,2.39,0,3.48,0,1.33-.72,2.84-1.53,4.35-1.81,2.27-.47,4.75-.33,6.96.4,1.16.29,2.28,1.32,3.48,1.41,1.99,0,4.1,0,6.09,0,5.25-3.85,12.9-3.46,18.26-.02,1.99.03,4.1,0,6.09.02.91-.31,1.81-1.26,2.61-1.77,1.3-.86,2.88-1.62,4.35-2.14,8.65-2.99,18.58-1.17,26.08,3.91h20"/><path class="b" d="M8.62,68.35c3.16,0,6.4,0,9.56,0,.58,0,1.36-.54,1.74-.94.75-.6,1.8-1.35,2.61-1.86,2.16-1.36,4.57-2.51,6.96-3.39,4.98-1.84,10.35-2.7,15.65-2.7,6.15-.03,12.24,1.14,18.26,2.29,5.93.99,11.5,1.47,15.65,6.45,1.37.28,2.95.1,4.35.15.56-.01,1.37-.54,1.74-.94.72-.52,1.78-1.1,2.61-1.42,4.86-1.84,10.77-1.01,14.78,2.35,2.29,0,4.67,0,6.96,0,1.81-1.05,4.01-1.54,6.09-1.52,1.43.01,3,.28,4.35.75.45.16,1.31.54,1.74.76.44.02,1.3.03,1.74.02,1.09,0,2.39,0,3.48,0,.81,0,1.88.09,2.61-.33,2.61-2.58,6.06-4.29,9.56-5.27,5.08-1.41,10.57-1.32,15.65.07,3.73,1.03,7.36,2.77,10.43,5.13.69.5,1.8.41,2.61.4,1.39,0,2.95,0,4.35,0,3.75,0,7.56,0,11.3,0"/><path class="b" d="M8.62,66.22c3.16,0,6.4,0,9.56,0,.53-.15,1.37-.77,1.74-1.17,1.03-.86,2.33-1.77,3.48-2.47,5.74-3.45,12.46-5.15,19.13-5.32,7.06-.23,14.01,1.37,20.87,2.82,4.12.85,8.58.99,12.17,3.44,1.23.68,2.21,2.11,3.48,2.69,1.09,0,2.39,0,3.48,0,.51-.22,1.36-.89,1.74-1.29.98-.79,2.3-1.53,3.48-1.99,5.83-2.23,12.73-.84,17.39,3.28,7.53-.04,15.07-.02,22.61,0,7.19-7.06,18.25-9.34,27.82-6.5,2.72.78,5.42,1.98,7.82,3.47,1.48.85,2.88,2.17,4.35,3.04h15.65"/><path class="b" d="M8.62,64.09c2.29,0,4.67,0,6.96,0,3.24.12,2.85,0,5.22-2.01,5.67-4.4,12.87-6.61,20-6.9,7.38-.35,14.62,1.53,21.74,3.24,3.13.85,6.5.92,9.56,1.98,1.91.67,3.82,1.8,5.22,3.28,1.24.77,2.95.3,4.35.42,6.51-7.03,18.53-6.75,25.21-.09,6.64.25,13.35.01,20,.09,8.69-8.77,22.85-11.04,33.91-5.62,2.81,1.32,5.51,3.11,7.82,5.18.39.29,1.25.55,1.74.44,1.09,0,2.39,0,3.48,0,3.16,0,6.4,0,9.56,0"/><path class="b" d="M8.62,61.96h9.56c12.33-10.86,25.94-10.25,40.86-5.78,2.27.62,4.64,1.27,6.96,1.72,3.7.5,7.74,1.17,10.43,4.02,1.39.09,2.95.03,4.35.05,7.01-8.19,20.55-7.49,27.82,0h17.39c1.22-.68,2.34-1.92,3.48-2.72,1.6-1.2,3.43-2.35,5.22-3.25,8.32-4.29,18.56-4.37,26.95-.22,14.6,7.8,1.77,5.99,21.74,6.19"/><path class="b" d="M8.62,59.83h9.56c9.14-8.12,19.44-10.17,31.3-7.59,6.73,1.42,13.13,4.36,20,5.15,1.13.22,2.44.64,3.48,1.15.79.37,1.69,1.24,2.61,1.29,1.39,0,2.96,0,4.35,0,7.42-8.74,21.76-8.39,29.56-.33.72.42,1.81.34,2.61.33,1.09,0,2.39,0,3.48,0,3.45,0,6.98,0,10.43,0,14.03-12.99,32.06-13.09,46.08-.04,3.74.1,7.56.01,11.3.04"/><path class="b" d="M8.62,57.7h9.56c9.96-8.93,21.39-10.2,33.91-6.24,5.76,1.78,11.34,4.43,17.39,5.07,1.14.21,2.41.73,3.48,1.17,1.99,0,4.1,0,6.09,0,6-6.2,14.31-8.58,22.61-5.87,2.13.7,4.27,1.8,6.09,3.12,1.17.77,2.24,2.09,3.48,2.74,3.16,0,6.4,0,9.56,0,1.09,0,2.39,0,3.48,0,.84.01,1.92.11,2.61-.47,2.35-2.17,5.02-4.16,7.83-5.71,8.41-4.83,19.02-5.33,27.82-1.22,4.17,1.76,7.75,4.66,11.3,7.39h9.56"/><path class="b" d="M8.62,55.57h9.56c10.21-9.22,22.28-9.96,34.78-5.08,4.6,1.69,9.06,4.06,13.91,4.96,2.27.27,4.67.05,6.96.12,1.69-.1,3.58.24,5.22-.23,5.49-6.2,14.75-8.55,22.61-6.1,2.46.75,4.89,1.98,6.96,3.51,1.16.8,2.27,2.1,3.48,2.82h14.78c10.47-9.95,23.97-13.67,37.39-7.24,2.41,1.14,4.8,2.6,6.96,4.18.79.58,1.85,1.41,2.61,2.04.34.38,1.22.96,1.74,1.03,2.58,0,5.25,0,7.82,0"/><path class="b" d="M8.62,53.44h9.56c7.38-6.85,17.2-9.26,26.95-6.82,5.52,1.27,10.54,4.06,15.65,6.4.72.44,1.8.44,2.61.41,1.09,0,2.39,0,3.48,0,3.46,0,6.98,0,10.43,0,1.48.29,2.47-1.25,3.48-2.05,1.54-1.29,3.39-2.45,5.22-3.29,6.26-2.94,13.85-2.83,20,.36,1.49.76,3.05,1.79,4.35,2.84.77.63,1.73,1.66,2.61,2.14h14.78c9.21-8.69,20.56-12.99,33.04-9.06,3.7,1.15,7.24,2.97,10.43,5.15,1.79,1.13,3.44,2.77,5.22,3.91h6.96"/><path class="b" d="M8.62,51.31h9.56c2.01-1.33,3.88-3.14,6.09-4.19,6.34-3.4,14.01-3.9,20.87-1.89,2.69.77,5.36,1.91,7.82,3.22,1.74.84,3.42,2.15,5.22,2.85,6.94,0,13.92,0,20.87,0,8.83-9.31,23.57-9.91,33.04-1.2.35.42,1.2,1.07,1.74,1.2.43,0,1.31,0,1.74,0,1.09,0,2.39,0,3.48,0,3.16,0,6.4,0,9.56,0,1.52-.99,2.86-2.56,4.35-3.61,2.62-2.02,5.6-3.73,8.69-4.91,12.6-4.96,26.03-.29,35.65,8.52h6.09"/><path class="b" d="M8.62,49.18c3.45-.03,6.98.06,10.43-.04,6.91-6.37,17.31-8.13,26.08-4.99,2.09.72,4.21,1.73,6.09,2.88,1.39.71,2.65,2.37,4.35,2.14,8.11,0,16.24,0,24.34,0,9.93-9.37,23.99-9.38,33.91,0h15.65c1.83-1.18,3.38-3.04,5.22-4.24,3.13-2.28,6.71-4.09,10.43-5.16,11.72-3.52,24.52,1.01,33.04,9.39h5.22"/><path class="b" d="M8.62,47.05h11.3c8.16-6.92,20.93-7.56,29.56-1.15.39.36,1.24.95,1.74,1.15.43,0,1.31,0,1.74,0,1.39,0,2.95,0,4.35,0,8.1-.08,16.25.16,24.34-.09,9.23-8.56,22.91-8.26,32.17.09,3.75,0,7.56,0,11.3,0,1.09,0,2.39,0,3.48,0,.82,0,1.9.1,2.61-.42,2.29-2.32,4.99-4.41,7.83-6.02,13.56-7.73,29.29-4.39,39.99,6.44h4.35"/><path class="b" d="M8.62,44.92c2.58,0,5.25,0,7.82,0,1.69-.07,3.55.17,5.22-.16,7.53-5.58,18.72-5.86,26.08.16,2.28-.02,4.67.05,6.96-.04,1.34-.48,2.93-.69,4.35-.65,2.03-.01,4.05.87,6.09.69,6.07,0,12.19,0,18.26,0,6.28-5.15,14.89-7.08,22.61-4.2,1.8.65,3.64,1.59,5.22,2.67.77.49,1.64,1.47,2.61,1.53,6.07-.06,12.19.11,18.26-.07,6.33-6.97,15.78-11.11,25.21-10.63,8.12.49,16.7,3.83,21.74,10.44,1.33.42,2.98.31,4.35.1"/><path class="b" d="M8.62,42.79c4.91,0,9.87,0,14.78,0,6.43-3.61,14.6-4.38,20.87,0,1.99,0,4.1,0,6.09,0,2.69-1.33,5.67-2.22,8.69-2.05,1.72.05,3.57.37,5.22.88,1.12.29,2.32,1.03,3.48,1.17,6.07,0,12.19,0,18.26,0,7.49-5.78,18.6-5.82,26.08,0,4.91,0,9.87,0,14.78,0,1.99,0,4.1,0,6.09,0,1.38-.54,2.3-2.2,3.48-3.07,5.92-5.18,13.87-8.02,21.74-7.7,8.24.39,16.88,3.86,21.74,10.77h2.61l.87-.58"/><path class="b" d="M8.62,40.66c4.62,0,9.29,0,13.91,0,1.4,0,2.95,0,4.35,0,1.4-.35,2.91-.92,4.35-1.1,1.98-.29,4.13-.25,6.09.19.81.18,1.86.54,2.61.89,1.09.04,2.39.02,3.48.02,1.69-.11,3.6.27,5.22-.26.74-.48,1.79-1.03,2.61-1.35,3-1.2,6.35-1.62,9.56-1.35,2.04.17,4.17.65,6.09,1.38,1.14.4,2.35,1.17,3.48,1.58.43,0,1.31,0,1.74,0,3.75,0,7.56,0,11.3,0,1.39,0,2.95,0,4.35,0,.83.06,1.93-.07,2.61-.6,4.48-2.36,9.91-2.94,14.78-1.53,1.13.33,2.44.85,3.48,1.4.67.5,1.77.84,2.61.73,7.81,0,15.66,0,23.47,0,1.54-1.05,2.72-3.02,4.35-4.18,3.98-3.23,8.87-5.37,13.91-6.23,7.8-1.32,16.19.47,22.61,5.15,1.21.89,2.53,2.12,3.48,3.3.3.56,1.19,1.62,1.74,1.96h1.74l.87-.68"/><path class="b" d="M8.62,38.53c12.17,0,24.35,0,36.52,0,.45.02,1.3-.02,1.74-.09.75-.5,1.8-1.09,2.61-1.47,2.17-1,4.59-1.68,6.96-2,4.38-.58,9.02-.07,13.04,1.82.81.39,1.87,1.01,2.61,1.52,1.64.47,3.53.13,5.22.23,5.49,0,11.03,0,16.52,0,1.99-.25,4.04-.99,6.09-.91,2.04-.1,4.11.54,6.09.91,2.87,0,5.82,0,8.69,0,1.69,0,3.53,0,5.22,0,2.51-.72,5.21-1.16,7.82-1.22,1.76-.03,3.68.33,5.22,1.22,1.08,0,2.39,0,3.48,0,.55-.34,1.4-1.35,1.74-1.9.97-1.16,2.27-2.39,3.48-3.29,5.91-4.39,13.57-6.29,20.87-5.44,7.01.91,14.61,4.07,18.26,10.44.81.27,1.9.29,2.61-.25"/><path class="b" d="M8.62,36.4c9.85,0,19.72,0,29.56,0,1.69,0,3.52,0,5.22,0,.77,0,1.83,0,2.61,0,.44-.23,1.31-.71,1.74-.96,8.29-4.49,19.22-4.9,26.95.96,10.72,0,21.45,0,32.17,0,2.58,0,5.25,0,7.82,0,1.16.12,2.37-.67,3.48-.92,3.09-.91,6.35-1.5,9.56-1.72,3.32-.23,6.14.44,8.69,2.65h1.74c1.27-1.11,2.17-2.96,3.48-4.04,3.81-3.5,8.83-5.59,13.91-6.39,9.61-1.45,20.75,1.88,26.08,10.43h1.74"/><path class="b" d="M8.62,34.27c10.43,0,20.87,0,31.3,0,1.99,0,4.1,0,6.09,0,.86-.19,1.84-.87,2.61-1.26,6.06-3.1,13.32-4.66,20-2.82,1.77.51,3.6,1.28,5.22,2.16,1.12.55,2.28,1.54,3.48,1.92,8.4,0,16.82,0,25.21,0,2.87,0,5.82,0,8.69,0,1.1-.3,2.38-.8,3.48-1.13,4.51-1.34,9.21-2.34,13.91-2.68,2.65-.12,5.54.16,7.82,1.61.87.54,1.66,1.77,2.61,2.19h.87c5.45-8.94,17.08-12.11,26.95-10.02,4.46.95,8.81,2.97,12.17,6.08,1.31,1.05,2.15,2.95,3.48,3.94h.87"/><path class="b" d="M8.62,32.14c10.43,0,20.87,0,31.3,0,2.57-.08,5.27.17,7.82-.13.76-.48,1.81-1.09,2.61-1.5,9.23-4.76,17.96-4.97,26.95.43.44.26,1.31.81,1.74,1.09.77.14,1.83.1,2.61.1,1.99,0,4.1,0,6.09,0,5.49,0,11.03,0,16.52,0,1.75.15,3.56-.24,5.22-.78,2.27-.62,4.66-1.23,6.96-1.75,4.58-.94,9.22-2.08,13.91-2.2,4.27-.06,7.92,1.05,10.43,4.73h.87c2.84-5.61,8.78-8.79,14.78-9.92,9.38-1.77,20.86,1.29,26.08,9.75l.87.16"/><path class="b" d="M8.62,29.82c1.36.36,2.95.13,4.35.19,2.29,0,4.67,0,6.96,0,6.94,0,13.92,0,20.87,0,1.99,0,4.1,0,6.09,0,.78,0,1.84.04,2.61-.12.44-.3,1.29-.88,1.74-1.15,10.4-6.29,19.38-5.19,29.56.82,1.23.81,2.95.32,4.35.44,2.28,0,4.67,0,6.96,0,2.28,0,4.67,0,6.96,0,1.72.05,3.56.02,5.22-.49,5.76-1.31,11.58-2.51,17.39-3.61,6.99-1.43,16.54-3.16,20.87,4.1h.87c2.26-5.59,8.3-8.48,13.91-9.61,9.58-1.9,20.27,1.58,26.08,9.61"/><path class="b" d="M8.62,27.42c1.53.86,3.53.32,5.22.46,3.16,0,6.4,0,9.56,0,9.27,0,18.56,0,27.82,0,8.31-6.35,15.53-7.12,25.21-3.48,1.74.63,3.58,1.43,5.22,2.29.77.39,1.73,1.09,2.61,1.19,4.91,0,9.87,0,14.78,0,2.03-.01,4.08-.89,6.09-1.2,5.77-1.19,11.62-2.15,17.39-3.31,5.94-1.26,12.76-2.51,18.26.81,1.43.82,2.36,2.56,3.48,3.7l.87-.39c2.03-4.88,7.29-7.45,12.17-8.61,9.33-2.15,20.22.9,26.08,8.71"/><path class="b" d="M8.62,25.15c1.6.83,3.48.57,5.22.6,2.58,0,5.25,0,7.82,0,7.52,0,15.08,0,22.61,0,1.99,0,4.1,0,6.09,0,1.88,0,2.96.3,4.35-1.24,3.41-2.74,7.77-4.52,12.17-4.51,5.7.33,11.35,2,16.52,4.39.79.38,1.84.95,2.61,1.36,2.28,0,4.67,0,6.96,0,2.28,0,4.67,0,6.96,0,1.99-.44,4.07-1.05,6.09-1.41,5.77-1.13,11.65-1.96,17.39-3.27,6.21-1.45,13.47-2.6,19.13,1.09.5.34,1.35,1.17,1.74,1.64,0,0,.87,1.42.87,1.42,0,0,.87.53.87.53.61-.4,1.43-1.68,1.74-2.33.89-1.22,2.21-2.43,3.48-3.25,10.03-6.31,24.47-3.95,32.17,5"/><path class="b" d="M8.62,23.03c.47.11,1.29.4,1.74.56.79.05,1.82.04,2.61.04,1.7,0,3.52,0,5.22,0,5.2,0,10.45,0,15.65,0,1.09,0,2.39,0,3.48,0,.77-.25,1.81-.52,2.61-.66,2.9-.61,5.9-.21,8.69.67,1.99,0,4.1,0,6.09,0,.97-.33,1.81-1.44,2.61-2.03,4.42-3.46,9.38-4.13,14.78-3.09,4.76.75,9.51,2.07,13.91,4.04.77.34,1.76.95,2.61,1.08,1.99,0,4.1,0,6.09,0,2.28,0,4.67,0,6.96,0,2-.38,4.07-1,6.09-1.34,4.62-.88,9.33-1.58,13.91-2.64,5.09-1.3,10.36-2.62,15.65-1.92,3.8.47,7.99,2.14,9.56,5.89h.87c.92-.86,1.7-2.43,2.61-3.31,2.35-2.3,5.53-3.7,8.69-4.45,8.65-2.06,18.26.77,24.34,7.27"/><path class="b" d="M8.62,21.04c2.23.66,4.65.42,6.96.45,3.16,0,6.4,0,9.56,0,2.87,0,5.82,0,8.69,0,.83-.1,1.83-.65,2.61-.94,1.35-.51,2.92-.93,4.35-1.16,3.18-.49,6.66-.31,9.56,1.19.39.28,1.29.74,1.74.91,1.39,0,2.95,0,4.35,0,1.25-.68,2.25-2.11,3.48-2.84,3.72-2.6,7.83-2.76,12.17-2.14,4.41.51,8.82,1.46,13.04,2.82,1.1.36,2.4.83,3.48,1.27.77.31,1.75.89,2.61.88,4.91-.01,9.87.02,14.78-.02,1.97-.49,4.09-.9,6.09-1.29,3.18-.61,6.43-1.24,9.56-2.07,3.42-.95,6.89-2.04,10.43-2.4,5.9-.66,13.27.11,16.52,5.77h.87c.99-.7,1.72-2.2,2.61-3,1.22-1.14,2.82-2.12,4.35-2.78,9.05-3.86,20.15-1.33,26.95,5.68"/><path class="b" d="M8.62,19.21c2.86.32,5.83.09,8.69.16,4.62,0,9.29,0,13.91,0,1.24.19,2.44-.52,3.48-1.09,1.05-.5,2.36-1.01,3.48-1.34,5.13-1.5,11.5-1.56,15.65,2.27,1.37.3,2.95.11,4.35.16,5.4-5.54,9.34-5.13,16.52-4.38,4.38.49,8.78,1.33,13.04,2.48,1.41.38,2.97.86,4.35,1.34.76.29,1.78.66,2.61.56,4.04,0,8.13,0,12.17,0,2.92,0,5.88.22,8.69-.74,5.87-1.27,11.41-3.93,17.39-4.69,6.14-.81,13.6-.1,17.39,5.42.44.03,1.31-.04,1.74-.13,2.26-3.95,7.01-5.66,11.3-6.23,6.88-.88,14.06,1.47,19.13,6.2l.87.16"/><path class="b" d="M8.62,17.23c7.23,0,14.5,0,21.74,0,.44.03,1.31-.04,1.74-.14.42-.28,1.29-.82,1.74-1.06,1.33-.73,2.9-1.39,4.35-1.85,5.72-1.78,13.01-1.71,17.39,2.91,1.38.26,2.95.09,4.35.14,4.36-5.2,9.61-4.21,15.65-3.86,7.61.64,15.23,1.87,22.61,3.86,6.94-.02,13.92.04,20.87-.02,2.61-.92,5.22-2.13,7.82-3.08,3.34-1.17,6.89-1.98,10.43-2.18,5.29-.25,11.44.76,14.78,5.28,1.61.06,2.51.09,3.48-1.36.95-.92,2.27-1.77,3.48-2.31,7.55-3.3,16.29-1.32,22.61,3.67h1.74"/></svg>