<?xml version="1.0" encoding="UTF-8"?><svg id="a" xmlns="http://www.w3.org/2000/svg" width="1920" height="2400" viewBox="0 0 192 240"><defs><style>.b{fill:none;stroke:#fff;stroke-miterlimit:10;stroke-width:.3px;}.c{stroke-width:0px;}</style></defs><rect class="c" x="0" width="192" height="240"/><path class="b" d="M8.09,227.89c1.76.58,3.57,1.44,5.25,2.22,1.71,0,3.54,0,5.25,0,5.23,0,10.51,0,15.75,0,6.99,0,14.01,0,20.99,0,2.8-1.19,5.71-2.38,8.75-2.77,3.2-.5,6.58-.2,9.62.94,1.48.43,2.87,1.56,4.37,1.83,3.77,0,7.6,0,11.37,0,2.89-.05,5.87.1,8.75-.07,1.33-.92,2.91-1.81,4.37-2.49,7.34-3.46,15.72-3.7,23.62-2.48,5.25.65,10.59,1.08,15.75,2.32,1.73.42,3.58.96,5.25,1.58.78.3,1.87.74,2.62,1.1.41.02,1.33.04,1.75.03,10.78,0,21.58,0,32.37,0"/><path class="b" d="M8.09,224.98c1.76.46,3.57,1.21,5.25,1.9,1.1.37,2.3,1.19,3.5,1.09,2,0,4.12,0,6.12,0,7.57,0,15.17,0,22.74,0,2,0,4.12,0,6.12,0,.79,0,1.84,0,2.62-.02.45-.19,1.3-.56,1.75-.73,7.12-2.87,15.07-3.45,21.87.58,2.55.42,5.29.07,7.87.18,4.36,0,8.77,0,13.12,0,1.27.19,2.43-.88,3.5-1.39,1.35-.71,2.93-1.4,4.37-1.9,5.86-2.07,12.25-2.43,18.37-1.51,5.53.77,11.16,1.31,16.62,2.51,1.72.38,3.57.87,5.25,1.43,1.08.33,2.34,1,3.5.87,11.07,0,22.17,0,33.24,0"/><path class="b" d="M8.09,222.26c3.6.77,7,2.46,10.5,3.57,5.53,0,11.09,0,16.62,0,6.11,0,12.26,0,18.37,0,2.89-.79,5.77-1.96,8.75-2.42,4.97-1,10.28-.55,14.87,1.69,1.26.88,2.92.75,4.37.73,1.7,0,3.55,0,5.25,0,5.53,0,11.09.01,16.62,0,5.16-3.28,11.41-4.77,17.49-4.62,4.99.26,9.94,1.41,14.87,2.2,3.5.63,7.07,1.34,10.5,2.31,1.69.25,3.55.07,5.25.12,10.78,0,21.58,0,32.37,0"/><path class="b" d="M8.09,219.72c4.21.77,8.2,2.61,12.25,3.96,5.23,0,10.51,0,15.75,0,6.11,0,12.26,0,18.37,0,3.95-1.27,8.08-2.32,12.25-2.5,2.63-.12,5.36.25,7.87,1.05.8.26,1.86.67,2.62,1.03.44.29,1.23.53,1.75.43,8.74,0,17.5,0,26.24,0,.78,0,1.85.04,2.62-.13,1.31-.85,2.9-1.6,4.37-2.13,3.61-1.27,7.57-1.81,11.37-1.34,3.24.49,6.49,1.37,9.62,2.32,1.4.39,2.94,1.02,4.37,1.29.77,0,1.85,0,2.62,0,14.57,0,29.16,0,43.74,0"/><path class="b" d="M8.09,217.37c3.3.43,6.49,1.75,9.62,2.82,1.1.4,2.4.88,3.5,1.29,1.1.1,2.4.05,3.5.06,6.99,0,14.01,0,20.99,0,2.3,0,4.7,0,7,0,1.72-.02,3.6.17,5.25-.42,4.53-1.13,9.35-1.93,14-1.01,1.12.22,2.43.59,3.5.99.72.41,1.82.48,2.62.44,4.94,0,9.93,0,14.87,0,2.59-.07,5.27-.59,7.87-.27,3.74.51,7.6.21,11.37.26,4.9-3.18,11.5-3.5,16.62-.65,1.46,1.11,3.54.53,5.25.66,1.43.11,2.96-.41,4.37-.5,1.71-.13,3.56-.04,5.25.2,1.98.44,4.11.29,6.12.31,2.89,0,5.86,0,8.75,0,8.45,0,16.92,0,25.37,0"/><path class="b" d="M8.09,215.19c4.88.48,9.33,2.93,14,4.21,1.71,0,3.54,0,5.25,0,10.49,0,21,0,31.49,0,2.9-.05,5.82-.99,8.75-.84,2.04-.04,4.13.52,6.12.84,4.94,0,9.93,0,14.87,0,4.24-1.24,8.7-1.92,13.12-1.61,2.66.15,5.38.68,7.87,1.61,2.3,0,4.7,0,7,0,2.68-1.26,6.05-1.82,8.75-.31,1.31.58,2.97.22,4.37.31,5.11-3.29,11.74-3.06,17.49-1.94,1.43.31,3,.75,4.37,1.24.44.16,1.32.5,1.75.68.44.01,1.31.02,1.75.02,9.61,0,19.25,0,28.87,0"/><path class="b" d="M8.09,213.19c4.57.42,8.88,2.43,13.12,4.05,9.61.04,19.25,0,28.87.02,11.36,0,22.75,0,34.11,0,1.47.04,2.94-.9,4.37-1.16,2.26-.59,4.67-.98,7-1.17,4.07-.32,8.25-.11,12.25.77,1.76.32,3.52,1.15,5.25,1.57,3.48,0,7.02,0,10.5,0,1.4-.09,3.05.25,4.37-.29.72-.52,1.81-1.12,2.62-1.48,2.46-1.08,5.2-1.69,7.87-1.95,4.09-.39,8.3.03,12.25,1.16,1.43.41,3.01.99,4.37,1.61.76.34,1.75,1.02,2.62.94,8.74,0,17.5,0,26.24,0"/><path class="b" d="M8.09,211.37c4.3.25,8.27,2.29,12.25,3.74,9.91,0,19.84,0,29.74,0,9.91,0,19.84,0,29.74,0,1.17.13,2.42-.5,3.5-.85,1.08-.35,2.39-.7,3.5-.95,3.71-.83,7.58-1.19,11.37-1.15,5.35.08,10.78.91,15.75,2.95,3.77,0,7.6,0,11.37,0,.86.1,1.97-.16,2.62-.76.74-.46,1.83-1.01,2.62-1.37,3.02-1.32,6.34-2.1,9.62-2.36,4.41-.34,8.94.22,13.12,1.67,1.45.5,3.03,1.2,4.37,1.93.69.44,1.76,1.04,2.62.88,7.86,0,15.76,0,23.62,0"/><path class="b" d="M8.09,209.74c2.72.07,5.37,1.14,7.87,2.11,1.11.37,2.29,1.26,3.5,1.11,11.07,0,22.17,0,33.24,0,7.86,0,15.76,0,23.62,0,.84-.04,1.84-.54,2.62-.81,1.38-.48,2.95-.92,4.37-1.24,4.57-1,9.33-1.32,14-1.12,3.51.16,7.08.62,10.5,1.43,2.05.39,4.09,1.34,6.12,1.75,4.06,0,8.18,0,12.25,0,.92.19,1.88-.59,2.62-1.03.75-.44,1.83-.98,2.62-1.33,2.75-1.21,5.76-2.03,8.75-2.39,4.99-.61,10.17-.03,14.87,1.78,1.13.44,2.44,1.05,3.5,1.64.76.42,1.74,1.2,2.62,1.34,7.57,0,15.17,0,22.74,0"/><path class="b" d="M8.09,208.31c3.11-.04,5.85,1.72,8.75,2.51,4.06,0,8.18,0,12.25,0,11.95,0,23.92,0,35.86,0,2.89-.03,5.86.08,8.75-.05,1.91-.95,4.05-1.69,6.12-2.2,5.41-1.31,11.09-1.46,16.62-.97,3.52.32,7.08.92,10.5,1.81,1.73.34,3.49,1.27,5.25,1.42,4.65,0,9.35,0,14,0,.79,0,1.88.07,2.62-.26.74-.5,1.83-1.13,2.62-1.54,2.45-1.26,5.17-2.2,7.87-2.74,5.51-1.11,11.38-.69,16.62,1.36,1.46.57,3.05,1.37,4.37,2.21.65.52,1.75,1.13,2.62.97,6.99,0,14.01,0,20.99,0"/><path class="b" d="M8.09,207.1c2.17-.07,4.09,1.13,6.12,1.59,5.53,0,11.09,0,16.62,0,11.66,0,23.33,0,34.99,0,1.7,0,3.54,0,5.25,0,.87-.12,1.84-.77,2.62-1.12,1.36-.62,2.93-1.17,4.37-1.54,5.4-1.39,11.12-1.34,16.62-.61,4.76.57,9.41,1.94,14,3.27,3.48,0,7.02,0,10.5,0,2.3,0,4.7,0,7,0,1.4-.07,3.02.2,4.37-.22,2.12-1.44,4.56-2.61,7-3.4,6.21-2.02,13.16-1.94,19.24.48,1.13.45,2.45,1.1,3.5,1.73.76.44,1.72,1.29,2.62,1.41,6.99,0,14.01,0,20.99,0"/><path class="b" d="M8.09,206.12c.8.04,1.84.27,2.62.42,1.1,0,2.4,0,3.5,0,3.18,0,6.44,0,9.62,0,8.45,0,16.92,0,25.37,0,6.99,0,14.01,0,20.99,0,1.15-.44,2.36-1.31,3.5-1.78,1.91-.85,4.06-1.47,6.12-1.81,4.62-.77,9.42-.44,14,.46,2.33.46,4.73,1.1,7,1.82,1.41.37,2.91,1.18,4.37,1.31,9.03,0,18.09,0,27.12,0,9.13-6.19,21.55-6.44,30.62,0h20.99"/><path class="b" d="M8.09,204.4c13.99,0,28,0,41.99,0,6.69-.08,13.44.16,20.12-.09,2.31-1.69,5.08-2.85,7.87-3.45,4.3-.92,8.84-.69,13.12.24,2.35.51,4.75,1.25,7,2.11.78.3,1.86.74,2.62,1.08.77.15,1.85.11,2.62.11,10.49,0,21,0,31.49,0,8.23-5.66,19.76-5.64,27.99,0h20.99"/><path class="b" d="M8.09,202.26c19.82,0,39.66,0,59.48,0,.79,0,1.85.04,2.62-.12,1.29-.98,2.87-1.86,4.37-2.45,3.86-1.51,8.17-1.77,12.25-1.18,2.67.39,5.37,1.15,7.87,2.17,1.41.42,2.92,1.71,4.37,1.59,10.2,0,20.42,0,30.62,0,2.3,0,4.7,0,7,0,1.24.18,2.4-.9,3.5-1.34,1.9-.89,4.05-1.54,6.12-1.88,3.17-.52,6.51-.38,9.62.42,1.45.37,3.03.95,4.37,1.61.76.37,1.76,1.07,2.62,1.19,6.99,0,14.01,0,20.99,0"/><path class="b" d="M8.09,200.11h62.11c5.51-4.03,12.84-4.6,19.24-2.62,2.09.62,4.22,1.54,6.12,2.61.78,0,1.84,0,2.62,0,9.91,0,19.84,0,29.74,0,4.36,0,8.77,0,13.12,0,1.87-1.03,4.03-1.78,6.12-2.17,2.57-.48,5.3-.48,7.87-.02,1.44.26,3.02.72,4.37,1.27,1.05.52,2.29,1.09,3.5.91,6.99,0,14.01,0,20.99,0"/><path class="b" d="M8.09,197.97c20.41,0,40.83,0,61.23,0,.89.13,1.94-.32,2.62-.86.75-.44,1.81-.96,2.62-1.27,3.03-1.15,6.42-1.43,9.62-1.02,2.38.31,4.81,1.02,7,2.01.78.35,1.77.97,2.62,1.14.78,0,1.85,0,2.62,0,11.66,0,23.33,0,34.99,0,4.65,0,9.35,0,14,0,2.25-.65,4.64-1.23,7-1.17,2.36-.06,4.73.65,7,1.17,8.15,0,16.34,0,24.49,0"/><path class="b" d="M8.09,195.83c18.07,0,36.16,0,54.23,0,2.3,0,4.7,0,7,0,1.61.18,2.92-1.34,4.37-1.82,2.18-.93,4.64-1.39,7-1.4,2.66,0,5.4.54,7.87,1.51.8.31,1.87.81,2.62,1.23.43.33,1.21.59,1.75.48,8.74,0,17.5,0,26.24,0,21.57,0,43.16,0,64.73,0"/><path class="b" d="M8.09,193.68c20.11,0,40.24,0,60.36,0,.89.09,1.97-.11,2.62-.76.75-.48,1.8-1.03,2.62-1.36,3.01-1.22,6.42-1.51,9.62-1,1.76.28,3.62.84,5.25,1.57,1.41.6,2.74,1.82,4.37,1.55,2.3,0,4.7,0,7,0,4.36,0,8.77,0,13.12,0,1.84-1.06,4-1.81,6.12-1.99,1.42-.11,3.02.06,4.37.53,1.16.33,2.28,1.39,3.5,1.46,4.65,0,9.35,0,14,0,14.28,0,28.58,0,42.86,0"/><path class="b" d="M8.09,191.54c1.4-.02,2.97.06,4.37-.06,1.35-.52,2.93-.81,4.37-.83,1.74-.02,3.6.3,5.25.85,1.1.07,2.4.03,3.5.04,14.57-.06,29.17.13,43.74-.07,4.56-3.78,11.1-4.51,16.62-2.66,1.14.37,2.45.95,3.5,1.53.78.4,1.68,1.28,2.62,1.2,6.11,0,12.26,0,18.37,0,6.2-4.85,12.68-5.45,19.24-.92,1.41,1.34,3.49.84,5.25.92,2.59,0,5.28,0,7.87,0,13.7,0,27.41,0,41.11,0"/><path class="b" d="M8.09,189.4c.45,0,1.3,0,1.75,0,.82-.2,1.83-.75,2.62-1.03,1.36-.46,2.94-.7,4.37-.7,2.37,0,4.81.56,7,1.46,1.34.49,2.97.18,4.37.26,13.4-.09,26.84.17,40.24-.09,4.68-4.19,11.66-5.1,17.49-3.04,1.48.51,3.06,1.29,4.37,2.15.68.55,1.71,1.14,2.62.98,5.23,0,10.51,0,15.75,0,9.01-7.42,15.77-7.4,25.37-.91,1.37,1.37,3.5.81,5.25.91,2.3,0,4.7,0,7,0,12.53,0,25.08,0,37.61,0"/><path class="b" d="M8.09,187.26c5.71-3.1,10.62-3.23,16.62-.78.44.19,1.31.58,1.75.78.78,0,1.84,0,2.62,0,2,0,4.12,0,6.12,0,6.99,0,14.01,0,20.99,0,2.3,0,4.7,0,7,0,1.4-.05,3,.15,4.37-.16,4.82-4.56,12.2-5.73,18.37-3.52,1.48.52,3.06,1.3,4.37,2.16.78.48,1.65,1.47,2.62,1.52,4.94,0,9.93,0,14.87,0,1.5-1.02,2.82-2.61,4.37-3.57,3.06-2.09,6.75-3.56,10.5-3.5,5.36.34,10.44,2.82,14.87,5.72.45.3,1.32.93,1.75,1.25,1.09.18,2.4.09,3.5.11,2,0,4.12,0,6.12,0,11.66,0,23.33,0,34.99,0"/><path class="b" d="M8.09,184.23c5.38-2.71,10.06-2.93,15.75-1,1.13.38,2.43.91,3.5,1.43.46.29,1.21.55,1.75.46,5.82,0,11.68,0,17.49,0,4.36,0,8.77,0,13.12,0,1.4,0,2.97,0,4.37,0,.8,0,1.89.08,2.62-.3,2.69-2.42,6.03-4.25,9.62-4.82,4.46-.77,9.2.11,13.12,2.36.82.47,1.89,1.21,2.62,1.8.56.75,1.72,1.09,2.62.96,4.35-.07,8.78.15,13.12-.1,3.69-4.37,9.04-7.8,14.87-8.08,6.6.1,12.86,3.11,18.37,6.54,1.06.6,2.19,1.83,3.5,1.63,2.3,0,4.7,0,7,0,10.78,0,21.58,0,32.37,0"/><path class="b" d="M8.09,181.35c7.66-3.71,14.56-1.95,21.87,1.62,5.82,0,11.68,0,17.49,0,3.77,0,7.6,0,11.37,0,1.4,0,2.97,0,4.37,0,.83.01,1.93.11,2.62-.46,3.02-2.53,6.55-4.67,10.5-5.28,4.77-.84,9.86.14,14,2.67.82.5,1.89,1.28,2.62,1.91.57.71,1.68,1.33,2.62,1.15,4.06-.09,8.2.19,12.25-.12,3.96-5,10.04-9.07,16.62-8.89,8.29.53,15.91,4.54,22.74,9.01h36.74"/><path class="b" d="M8.09,178.64c7.16-3.16,13.1-2.07,20.12.82.79.33,1.85.81,2.62,1.18,1.96.4,4.13.09,6.12.19,9.03,0,18.09,0,27.12,0,3.05-2.09,6-4.6,9.62-5.65,8.14-2.58,15.82-.11,21.87,5.65h12.25c4.19-4.94,9.82-9.55,16.62-9.63,5.79.04,11.43,1.94,16.62,4.38,2.37,1.12,4.76,2.45,7,3.81.76.46,1.76,1.18,2.62,1.43.78,0,1.85,0,2.62,0,10.2,0,20.42,0,30.62,0"/><path class="b" d="M8.09,176.11c1.98-.63,4.04-1.48,6.12-1.7,5.11-.53,10.2,1.04,14.87,2.98.79.33,1.85.81,2.62,1.17,1.98.28,4.12.06,6.12.13,8.45-.03,16.92.06,25.37-.04,3.33-2.25,6.6-4.9,10.5-6.1,7.89-2.69,17.26-.39,22.74,5.97,1.97.37,4.13.09,6.12.17,2-.06,4.14.15,6.12-.13,3.35-4.65,8.28-8.54,14-9.64,6.59-.91,13.25,1.16,19.24,3.76,2.67,1.19,5.35,2.61,7.87,4.1,1.1.6,2.29,1.56,3.5,1.92.43,0,1.32,0,1.75,0,9.61,0,19.25,0,28.87,0"/><path class="b" d="M8.09,173.77c1.99-.59,4.05-1.42,6.12-1.61,5.12-.48,10.2,1.13,14.87,3.08.79.33,1.85.81,2.62,1.17,1.98.29,4.12.07,6.12.13,8.15,0,16.34,0,24.49,0,3.66-2.35,7.19-5.18,11.37-6.55,9-3.09,18.17-.47,24.49,6.55,2.3,0,4.7,0,7,0,1.4-.06,3.01.18,4.37-.2,3.32-4.69,8.24-8.69,14-9.74,6.89-.92,13.85,1.08,20.12,3.81,2.67,1.18,5.36,2.6,7.87,4.09,1.1.63,2.35,1.51,3.5,2.04.43,0,1.32,0,1.75,0,9.03,0,18.09,0,27.12,0"/><path class="b" d="M8.09,171.62c5.81-2.07,9.86-2.07,15.75-.22,1.43.45,3,1.05,4.37,1.64,1.11.41,2.3,1.24,3.5,1.35,2,0,4.12,0,6.12,0,7.28,0,14.59,0,21.87,0,.43,0,1.32,0,1.75,0,1.22-.42,2.41-1.42,3.5-2.08,2.23-1.45,4.54-3.02,7-4.08,6.61-2.96,14.61-3.03,20.99.55,1.52.84,3.1,2,4.37,3.19.78.71,1.65,1.94,2.62,2.42h10.5c3.34-4.7,8.15-8.91,14-9.88,7.18-1.01,14.46.98,20.99,3.88,2.37,1.06,4.77,2.33,7,3.64,1.69.82,3.23,2.61,5.25,2.36,8.74,0,17.5,0,26.24,0"/><path class="b" d="M8.09,169.69c1.7-.45,3.5-1.12,5.25-1.37,4.49-.57,9.03.73,13.12,2.5.79.35,1.86.86,2.62,1.25,1.96.43,4.13.1,6.12.2,8.74,0,17.5,0,26.24,0,3.74-2.26,7.29-5.05,11.37-6.71,6.93-2.99,15.3-3.01,21.87.93,10.72,7.15.94,5.63,16.62,5.78,1.4-.82,2.29-2.68,3.5-3.75,1.75-1.78,3.87-3.4,6.12-4.48,7.2-3.2,15.61-1.49,22.74,1.13,3,1.15,5.97,2.6,8.75,4.21,1.11.65,2.42,1.46,3.5,2.17.65.62,1.76.81,2.62.72,8.45,0,16.92,0,25.37,0"/><path class="b" d="M8.09,167.98c5.59-1.87,9.31-1.95,14.87.16.8.31,1.86.78,2.62,1.16.75.41,1.74.96,2.62.81,7.86,0,15.76,0,23.62,0,2.3,0,4.7,0,7,0,.78,0,1.85,0,2.62,0,.85-.37,1.86-1.14,2.62-1.66,7.53-5.41,16.87-9.5,26.24-6.96,3.17.82,6.23,2.4,8.75,4.5.84.7,1.91,1.75,2.62,2.58.25.47,1.21,1.39,1.75,1.54,3.18,0,6.44,0,9.62,0,2.7-3.21,5.61-6.54,9.62-8.12,7.05-2.64,14.98-1.31,21.87,1.23,3.01,1.13,5.98,2.6,8.75,4.24.79.47,1.86,1.14,2.62,1.65.7.52,1.71,1.17,2.62,1,8.45,0,16.92,0,25.37,0"/><path class="b" d="M8.09,166.53c5.25-1.75,8.83-1.94,14,.33.79.34,1.76.99,2.62,1.12,1.7,0,3.54,0,5.25,0,10.49,0,21,0,31.49,0,.55.02,1.37-.43,1.75-.81,1.07-.78,2.38-1.68,3.5-2.41,3-1.96,6.23-3.76,9.62-4.96,7.42-2.76,16.21-2.21,22.74,2.47,1.19.83,2.5,1.96,3.5,3.01.78.79,1.64,2.13,2.62,2.69h9.62c2.27-2.64,4.66-5.45,7.87-6.97,7.15-3.27,15.57-2.13,22.74.52,2.7,1.01,5.39,2.32,7.87,3.79.79.47,1.86,1.14,2.62,1.65.7.52,1.71,1.19,2.62,1.01,8.45,0,16.92,0,25.37,0"/><path class="b" d="M8.09,165.37c3.68-1.2,6.71-1.94,10.5-.56.8.27,1.81.79,2.62,1.02.79,0,1.84,0,2.62,0,3.48,0,7.02,0,10.5,0,1.4-.17,2.96-.43,4.37-.42,1.72-.04,3.55.23,5.25.42,1.7,0,3.54,0,5.25,0,3.18,0,6.44,0,9.62,0,1.4-.1,3.06.27,4.37-.32.43-.34,1.31-1,1.75-1.33,5.73-4.08,12.14-7.74,19.24-8.55,9.3-1.09,17.11,2.93,22.74,10.19h9.62c.99-.57,1.83-1.89,2.62-2.67,1.24-1.26,2.8-2.49,4.37-3.3,6.81-3.3,14.9-2.61,21.87-.16,2.71.95,5.4,2.23,7.87,3.69.79.47,1.86,1.15,2.62,1.66.64.63,1.75.88,2.62.78,8.45,0,16.92,0,25.37,0"/><path class="b" d="M8.09,163.69c.79,0,1.84,0,2.62,0,.78-.17,1.82-.4,2.62-.43,1.12-.05,2.4.24,3.5.43,1.1,0,2.4,0,3.5,0,2,0,4.12,0,6.12,0,.79,0,1.85.05,2.62-.15.44-.21,1.29-.56,1.75-.72,3.91-1.32,8.21-1.3,12.25-.59,1.74.31,3.58.79,5.25,1.36,1.09.15,2.4.08,3.5.09,2.59,0,5.28,0,7.87,0,1.4-.09,3.05.26,4.37-.3.42-.35,1.31-1.04,1.75-1.37,5.52-3.96,11.58-7.64,18.37-8.79,9.32-1.79,19.27,2.48,24.49,10.38,3.46.2,7.03.09,10.5.05,5.91-8.06,17.47-8.5,26.24-5.54,2.72.89,5.41,2.15,7.87,3.61,1.38.71,2.7,2.2,4.37,1.97,8.74,0,17.5,0,26.24,0"/><path class="b" d="M8.09,161.54c5.53,0,11.09,0,16.62,0,.88-.09,1.84-.81,2.62-1.16,1.34-.63,2.92-1.14,4.37-1.44,3.43-.72,7.05-.64,10.5-.05,2.04.35,4.17.9,6.12,1.57,1.11.32,2.33,1.09,3.5,1.09,4.35-.08,8.78.17,13.12-.11,10.7-8.84,24.37-15.64,37.61-7.78,1.87,1.12,3.73,2.6,5.25,4.17,1.21,1.06,2.07,2.96,3.5,3.72,2,0,4.12,0,6.12,0,1.4-.07,3.01.19,4.37-.21,5.83-6.45,15.74-7.06,23.62-4.58,2.4.74,4.82,1.8,7,3.05.8.46,1.87,1.13,2.62,1.65.43.07,1.31.11,1.75.09,9.03,0,18.09,0,27.12,0"/><path class="b" d="M8.09,159.4c3.18,0,6.44,0,9.62,0,1.7-.07,3.58.18,5.25-.17,8.8-6.08,20.58-4.11,29.74.15,2.89.06,5.86,0,8.75.02,1.4,0,2.97,0,4.37,0,.88-.41,1.85-1.31,2.62-1.88,5.44-4.25,11.46-8.23,18.37-9.49,10.61-2.04,20.04,2.87,26.24,11.36h11.37c7.49-6.58,18.83-5.92,27.12-1.2.77.41,1.7,1.2,2.62,1.2,2,0,4.12,0,6.12,0,7.86,0,15.76,0,23.62,0"/><path class="b" d="M8.09,157.26c2.59,0,5.28,0,7.87,0,1.7-.08,3.59.21,5.25-.2,2.32-1.7,5.08-2.94,7.87-3.63,4.27-1.06,8.82-.95,13.12-.09,3.91.79,7.76,2.16,11.37,3.86,4.64.18,9.35.02,14,.07,5.5-4.63,11.29-9.37,18.37-11.26,10.93-3.26,22.66,1.79,28.87,11.13,4.33.33,8.77.03,13.12.13,2.13-1.34,4.51-2.51,7-2.97,3.15-.64,6.51-.5,9.62.27,2.1.52,4.24,1.36,6.12,2.42,1.04.45,2.4.23,3.5.27,2,0,4.12,0,6.12,0,7.86,0,15.76,0,23.62,0"/><path class="b" d="M8.09,155.11c3.77,0,7.6,0,11.37,0,1.22-.38,2.35-1.43,3.5-1.98,1.89-1.01,4.03-1.79,6.12-2.26,4.29-.97,8.84-.79,13.12.14,2.66.57,5.34,1.45,7.87,2.44,1.42.49,2.89,1.38,4.37,1.67,4.94,0,9.93,0,14.87,0,5.55-5.58,12.23-10.61,20.12-12.11,10.41-2.19,21.18,3.21,27.12,11.75.46.25,1.23.45,1.75.36,1.1,0,2.4,0,3.5,0,2.89,0,5.86,0,8.75,0,.44,0,1.31,0,1.75,0,.44-.19,1.3-.55,1.75-.71,1.64-.57,3.51-.91,5.25-.96,2.03-.06,4.18.24,6.12.83,1.08.34,2.33.98,3.5.84,11.66,0,23.33,0,34.99,0"/><path class="b" d="M8.09,152.97h11.37c6.62-4.74,14.92-5.88,22.74-3.92,3.92.83,7.61,2.62,11.37,3.92,3.77,0,7.6,0,11.37,0,1.99-.1,4.17.23,6.12-.2,13.92-15.87,33.86-17.64,47.24-.12,1.03.52,2.39.27,3.5.32,1.4,0,2.97,0,4.37,0,4.94,0,9.93,0,14.87,0,14.28,0,28.58,0,42.86,0"/><path class="b" d="M8.09,150.83c4.06-.03,8.19.05,12.25-.03,9.48-6.81,20.74-4.56,30.62.03,6.99,0,14.01,0,20.99,0,1.66-.97,2.86-3,4.37-4.22,2.58-2.39,5.56-4.51,8.75-6.02,13.12-6.31,26.48-.69,34.99,10.24h63.86"/><path class="b" d="M8.09,148.69c4.65-.04,9.35.09,14-.05,2.07-1.43,4.54-2.42,7-2.94,3.14-.66,6.48-.63,9.62-.01,1.75.34,3.6.9,5.25,1.57,1.4.49,2.82,1.62,4.37,1.44,8.45,0,16.92,0,25.37,0,13.47-16.88,33.72-16.79,47.24-.04,9.61.12,19.25,0,28.87.04,1.46.13,2.97-.48,4.37-.74,1.68-.33,3.54-.48,5.25-.44,2.36,0,4.72.67,7,1.18,5.82,0,11.68,0,17.49,0"/><path class="b" d="M8.09,146.54c5.53,0,11.09,0,16.62,0,1.21.11,2.35-.94,3.5-1.21,1.65-.55,3.51-.84,5.25-.86,2.04-.03,4.19.29,6.12.93,1.15.27,2.29,1.29,3.5,1.14,4.94,0,9.93,0,14.87,0,3.77,0,7.6,0,11.37,0,1.4,0,2.97,0,4.37,0,1.17.19,2.03-.51,2.62-1.44,7.35-8.88,19.57-13.37,30.62-9.12,3.49,1.27,6.77,3.27,9.62,5.63,1.86,1.44,3.47,3.42,5.25,4.93,8.45,0,16.92,0,25.37,0,1.48.1,2.95-.84,4.37-1.15,2.53-.72,5.24-1.11,7.87-1.1,3.6-.03,7.19.87,10.5,2.25,4.65,0,9.35,0,14,0"/><path class="b" d="M8.09,142.68c1.96-.6,4.12-.32,6.12-.19,3.54.23,7.11.84,10.5,1.9,2.59,0,5.28,0,7.87,0,2.89,0,5.86,0,8.75,0,2.28-.45,4.63-1.18,7-1.1,2.35-.04,4.75.44,7,1.1,6.99,0,14.01,0,20.99,0,13.43-15.66,31.75-14.73,45.49,0,7.86,0,15.76,0,23.62,0,1.19.14,2.39-.74,3.5-1.08,1.66-.62,3.51-1.16,5.25-1.5,3.43-.68,7.04-.78,10.5-.21,3.04.41,5.92,1.69,8.75,2.79,3.48,0,7.02,0,10.5,0"/><path class="b" d="M8.09,138.64c2.26-.58,4.7-.25,7-.21,5.86.14,11.67,1.3,17.49,1.81,4.07.31,8.18-.29,12.25-.39,2.91-.07,5.92.15,8.75.86,1.12.28,2.43.71,3.5,1.15.4.26,1.27.48,1.75.39,6.4,0,12.84,0,19.24,0,7.11-8.75,18.97-12.76,29.74-8.89,3.11,1.06,6.09,2.7,8.75,4.62,1.83,1.23,3.45,3.01,5.25,4.26,7.57,0,15.17,0,22.74,0,1.21.03,2.39-.91,3.5-1.29,1.94-.81,4.07-1.49,6.12-1.94,3.71-.8,7.62-.95,11.37-.38,2.36.36,4.77,1.02,7,1.88,1.43.47,2.88,1.45,4.37,1.72,2.3,0,4.7,0,7,0"/><path class="b" d="M8.09,134.93c2.55-.58,5.28-.24,7.87-.22,5.56.13,11.1.92,16.62,1.52,5.51.64,11.11.35,16.62.97,2.34.28,4.76.77,7,1.53,1.44.35,2.87,1.5,4.37,1.4,6.4,0,12.84,0,19.24,0,12.03-12.85,28.59-11.15,41.11,0,7.86,0,15.76,0,23.62,0,4.11-2.09,8.5-3.83,13.12-4.36,4.97-.65,10.11-.07,14.87,1.49,2.36.76,4.73,1.79,7,2.78,1.39.17,2.97.06,4.37.09"/><path class="b" d="M8.09,131.49c2.56-.55,5.28-.27,7.87-.25,6.16.14,12.29,1.09,18.37,1.96,5.79.87,11.72.97,17.49,1.99,2.98.55,6,1.44,8.75,2.72,4.35.13,8.77.01,13.12.05,2.59,0,5.28,0,7.87,0,.95-.31,1.84-1.33,2.62-1.91,1.58-1.22,3.43-2.34,5.25-3.15,8.1-3.74,17.81-2.63,25.37,1.88,1.47.85,3.04,1.93,4.37,2.98,1.37.37,2.97.13,4.37.19,2,0,4.12,0,6.12,0,4.94-.03,9.93.07,14.87-.04,1.91-1.15,4.04-2.18,6.12-2.95,7.24-2.74,15.37-2.83,22.74-.53,2.04.61,4.15,1.42,6.12,2.22,1.38.48,2.87,1.44,4.37,1.31"/><path class="b" d="M8.09,128.32c2.56-.54,5.28-.3,7.87-.26,7.08.17,14.06,1.6,20.99,2.91,5.49,1.05,11.14,1.41,16.62,2.52,2.67.51,5.31,1.46,7.87,2.35,6.99,0,14.01,0,20.99,0,.79,0,1.85.04,2.62-.14.43-.32,1.3-.93,1.75-1.22,1.33-.84,2.91-1.63,4.37-2.19,6.73-2.62,14.45-2.12,20.99.83,1.46.65,3.03,1.5,4.37,2.36.71.45,1.82.36,2.62.35,5.23,0,10.51,0,15.75,0,3.18-.05,6.45.1,9.62-.07,1.9-1.2,4.03-2.28,6.12-3.1,11.68-4.58,22.16-2.14,33.24,2.69"/><path class="b" d="M8.09,125.38c3.14-.61,6.45-.3,9.62-.17,7.44.41,14.65,2.46,21.87,4.16,5.47,1.29,11.14,1.66,16.62,2.89,1.73.36,3.53,1.01,5.25,1.42,2,0,4.12,0,6.12,0,4.94,0,9.93,0,14.87,0,1.7,0,3.55,0,5.25,0,.81,0,1.91.1,2.62-.37,4.34-1.98,9.27-2.65,14-2.07,2.05.25,4.18.76,6.12,1.45.78.28,1.84.73,2.62,1,.42,0,1.33,0,1.75,0,9.91,0,19.84,0,29.74,0,12.68-8.23,26.08-7.16,39.36-1.1"/><path class="b" d="M8.09,122.68c2.27-.48,4.7-.37,7-.31,4.11.16,8.25.75,12.25,1.72,5.61,1.3,11,3.53,16.62,4.8,3.44.77,7.02,1.06,10.5,1.57,2.03.23,4.1.87,6.12,1.08,6.69,0,13.42,0,20.12,0,20.99,0,41.99,0,62.98,0,1.28.19,2.43-.96,3.5-1.49,1.91-1.08,4.05-2.02,6.12-2.73,10.22-3.57,21.03-1.83,30.62,2.77"/><path class="b" d="M8.09,120.2c7.62-1.15,15.52.4,22.74,2.86,5.58,1.82,10.75,5.09,16.62,5.95,6.96.73,14.01.26,20.99.39,25.07,0,50.15,0,75.23,0,1.64.24,3-1.13,4.37-1.8,1.64-.89,3.49-1.71,5.25-2.33,10.03-3.65,21.24-2.29,30.62,2.58"/><path class="b" d="M8.09,117.94c7.98-1.26,16.31.62,23.62,3.87,14.49,7.13,2.46,5.18,21.87,5.45,30.61,0,61.23,0,91.85,0,11.45-7.6,26.53-8.27,38.49-1.41"/><path class="b" d="M8.09,115.89c9.17-1.65,22.76,1.86,28.87,9.16,1.1.11,2.4.05,3.5.06,1.05-.49,2.35-.75,3.5-.73,1.45-.03,2.96.53,4.37.73,1.71,0,3.54,0,5.25,0,22.45,0,44.91,0,67.35,0,5.53,0,11.09,0,16.62,0,2.88-.12,5.9.26,8.75-.18,1.06-.68,2.37-1.41,3.5-1.97,10.63-5.32,23.97-5.34,34.11,1.12"/><path class="b" d="M8.09,114.06c8.58-1.65,21.02,1.54,26.24,8.91.84.01,1.91.1,2.62-.43.95-.83,2.27-1.41,3.5-1.63,3.6-.64,7.28.47,10.5,2.06,2.3,0,4.7,0,7,0,19.82,0,39.66-.02,59.48,0,6.69,0,13.42,0,20.12,0,2.89,0,5.86,0,8.75,0,1.49-.5,2.92-1.58,4.37-2.18,10.43-4.95,23.64-5.19,33.24,1.74"/><path class="b" d="M8.09,112.45c7.76-1.64,19.21,1.17,23.62,8.19.43.14,1.3.24,1.75.2,1.16-.69,2.19-1.95,3.5-2.39,3.34-1.31,7.16-.88,10.5.22,1.47.49,3.04,1.22,4.37,1.99,1.67.37,3.55.1,5.25.18,7.86,0,15.76,0,23.62,0,1.47.12,2.98-.56,4.37-.9,2.27-.6,4.67-1.11,7-1.44,8.19-1.21,16.69-.45,24.49,2.34,10.2,0,20.42,0,30.62,0,2.6-1.12,5.14-2.66,7.87-3.48,6.43-2.17,13.56-2.69,20.12-.8,1.78.52,3.65,1.29,5.25,2.23,1.12.6,2.24,1.76,3.5,2.05"/><path class="b" d="M8.09,111.05c5.93-1.33,12.45.01,17.49,3.36,1.73,1.03,2.95,2.92,4.37,4.27.44,0,1.31,0,1.75-.02,3.27-4.66,9.99-4.35,14.87-2.82,2.13.65,4.18,1.78,6.12,2.84.79,0,1.84,0,2.62,0,8.15,0,16.34,0,24.49,0,3.86-1.91,8.01-3.41,12.25-4.23,6.94-1.38,14.25-.95,20.99,1.19,2.7.73,5.24,2.17,7.87,3.05,6.11,0,12.26,0,18.37,0,13.91.08,5.77.38,17.49-3.52,8.34-2.43,18.38-2.29,25.37,3.43.43.06,1.31.11,1.75.09"/><path class="b" d="M8.09,109.89c6.77-1.64,15.39.44,19.24,6.59.8.09,1.89.15,2.62-.25,3.63-4.69,10.56-4.55,15.75-2.93,1.46.46,3.03,1.14,4.37,1.86.8.41,1.77,1.11,2.62,1.38.46,0,1.3,0,1.75,0,5.53,0,11.09,0,16.62,0,2.3,0,4.7,0,7,0,1.28.19,2.42-.98,3.5-1.51,9.69-5.7,21.87-6.75,32.37-2.69,12.21,4.91,3.94,4.21,18.37,4.19,5.82,0,11.68,0,17.49,0,9.51-5.1,22.43-6.93,31.49,0h2.62"/><path class="b" d="M8.09,108.96c4.68-1.32,9.97-.5,14,2.25,1.29.8,2.29,2.32,3.5,3.19.81,0,1.88.08,2.62-.3.66-.84,1.7-1.8,2.62-2.33,3.66-2.12,8.21-2.24,12.25-1.29,2.77.66,5.49,1.87,7.87,3.42.44.34,1.18.61,1.75.5.78,0,1.85,0,2.62,0,7.86,0,15.76,0,23.62,0,13.79-11.15,30.54-9.86,44.61,0,6.4,0,12.84,0,19.24,0,2.89-.06,5.87.12,8.75-.09,1.07-.55,2.38-1.15,3.5-1.59,6.34-2.48,13.61-3.21,20.12-.97,1.84.57,3.57,1.73,5.25,2.65,1.09,0,2.41,0,3.5,0"/><path class="b" d="M8.09,108.28c5.16-1.69,11.39-.33,14.87,3.98,1.1,0,2.4.03,3.5-.05,5.59-6.61,16.12-5.16,22.74-.92.4.31,1.27.8,1.75.97.44,0,1.31,0,1.75,0,1.4,0,2.97,0,4.37,0,7.28,0,14.59,0,21.87,0,12.97-12.01,30.03-11.13,43.74-.84.89.94,2.31.88,3.5.84,1.4,0,2.97,0,4.37,0,4.36,0,8.77,0,13.12,0,3.18-.07,6.46.16,9.62-.11,4.82-2.46,10.34-3.69,15.75-3.24,3.35.29,6.77,1.25,9.62,3.08,1.62.57,3.55.17,5.25.28"/><path class="b" d="M8.09,107.86c4.07-1.58,9.1-.95,12.25,2.2,1.4.1,2.97.03,4.37.05,6.79-6.43,17.4-5.54,24.49-.04,9.9.11,19.84,0,29.74.04,13.63-13.17,30.55-11.85,44.61-.05,8.15.15,16.34,0,24.49.05,2,0,4.12,0,6.12,0,.86-.05,1.85-.65,2.62-.96,1.65-.68,3.5-1.22,5.25-1.55,4.04-.75,8.34-.56,12.25.78,1.14.39,2.46.99,3.5,1.61,1.98.27,4.12.06,6.12.13"/><path class="b" d="M8.09,107.74c3.56-1.65,6.15-1.22,9.62.23,2,0,4.12,0,6.12,0,4.55-4.41,11.61-5.28,17.49-3.43,1.47.46,3.05,1.17,4.37,1.96,1.05.66,2.15,1.71,3.5,1.47,8.45,0,16.92,0,25.37,0,1.4,0,2.97,0,4.37,0,.68-.08,1.37-.79,1.75-1.3,1.01-1.06,2.31-2.22,3.5-3.09,6.67-4.96,15.63-6.56,23.62-4.28,5.17,1.41,9.92,4.24,14,7.67,1.04,1.32,2.9.95,4.37.99,2,0,4.12,0,6.12,0,6.4,0,12.84,0,19.24,0,1.4,0,2.97,0,4.37,0,.79-.28,1.84-.79,2.62-1.08,2.76-1.03,5.8-1.52,8.75-1.44,3.32.09,6.7.91,9.62,2.49,2.29.08,4.7.01,7,.03"/><path class="b" d="M8.09,105.83h14.87c6.59-5.71,16.9-5.24,23.62,0h33.24c5.31-6.77,14.2-10.45,22.74-9.55,7.29.71,14,4.51,19.24,9.51,8.44.1,16.92,0,25.37.04,3.18,0,6.44,0,9.62,0,2.23-.9,4.57-1.85,7-2.09,4.15-.53,8.5.16,12.25,2.04,2.59.12,5.28.02,7.87.05"/><path class="b" d="M8.09,103.69c4.65,0,9.35,0,14,0,.86-.33,1.83-1.1,2.62-1.54,1.33-.74,2.9-1.37,4.37-1.75,3.41-.88,7.12-.81,10.5.22,1.83.56,3.71,1.48,5.25,2.64,1.24.8,2.97.31,4.37.44,2.3,0,4.7,0,7,0,7.86,0,15.76,0,23.62,0,11.33-12.88,28.43-11.91,40.24-.2,1.07.33,2.4.16,3.5.2,1.7,0,3.54,0,5.25,0,5.23,0,10.51,0,15.75,0,4.06,0,8.18,0,12.25,0,.87,0,1.84-.64,2.62-.94,1.35-.53,2.94-.91,4.37-1.1,2.6-.33,5.34-.13,7.87.53,1.46.32,2.94,1.14,4.37,1.5,2.59,0,5.28,0,7.87,0"/><path class="b" d="M8.09,101.54c4.65-.05,9.35.09,14-.06,6.56-4.82,16.25-4.96,22.74.06,10.78,0,21.58,0,32.37,0,3.48.07,2.92.15,5.25-2.3,1.77-1.67,3.92-3.11,6.12-4.13,10.55-4.91,21.68-1.34,29.74,6.43,6.4,0,12.84,0,19.24,0,.82-.03,1.84-.45,2.62-.65,1.38-.34,2.96-.53,4.37-.5,1.11.02,2.43.2,3.5.5.45.12,1.32.44,1.75.63.44.01,1.31.02,1.75.02,2,0,4.12,0,6.12,0,1.03-.6,2.35-1.17,3.5-1.5,4.62-1.3,9.72-.66,14,1.47,2.89.06,5.86,0,8.75.02"/><path class="b" d="M8.09,99.4c4.36,0,8.77,0,13.12,0,2.52-1.21,5.06-2.68,7.87-3.12,3.16-.62,6.53-.5,9.62.42,1.83.54,3.71,1.44,5.25,2.58,3.75.3,7.61.03,11.37.12,8.45,0,16.92,0,25.37,0,5.76-6.57,15.25-9.33,23.62-6.76,4.34,1.16,8.04,3.86,11.37,6.76,5.82,0,11.68,0,17.49,0,.51.09,1.32-.13,1.75-.41.76-.37,1.82-.79,2.62-1.05,3.07-.98,6.46-1.2,9.62-.53,1.87.29,3.51,1.4,5.25,1.98,1.7,0,3.55,0,5.25,0,1.2.17,2.42-.45,3.5-.87,1.36-.44,2.95-.69,4.37-.73,2.67-.07,5.43.5,7.87,1.58,3.47.06,7.02,0,10.5.03"/><path class="b" d="M8.09,97.26c4.35-.05,8.77.11,13.12-.07,2.38-1.44,5.12-2.47,7.87-2.92,3.18-.52,6.55-.32,9.62.66,1.14.37,2.46.94,3.5,1.54.4.31,1.25.72,1.75.79,4.06,0,8.18,0,12.25,0,8.45,0,16.92,0,25.37,0,8.4-8.69,22.07-8.27,30.62,0,6.11-.01,12.26.03,18.37-.02,6.39-4.14,15.21-4.87,21.87-.94.4.31,1.27.8,1.75.96.44,0,1.31,0,1.75,0,1.4,0,2.97,0,4.37,0,1.43.12,2.97-.23,4.37-.43,1.72-.17,3.57.06,5.25.43,4.65,0,9.35,0,14,0"/><path class="b" d="M8.09,95.12c4.06,0,8.18,0,12.25,0,1.17-.27,2.37-1.08,3.5-1.47,1.93-.75,4.07-1.26,6.12-1.45,2.92-.27,5.97.06,8.75,1,1.49.43,2.92,1.42,4.37,1.92,5.82,0,11.68,0,17.49,0,3.78-.03,7.62.17,11.37-.37,1.73-.2,3.55.27,5.25.37,2,0,4.12,0,6.12,0,4.91-4.43,12.18-5.73,18.37-3.46,1.5.54,3.08,1.37,4.37,2.31.67.59,1.67,1.34,2.62,1.14,6.11,0,12.26,0,18.37,0,7.83-5.54,19.02-6.35,27.12-.92.94.95,2.25.99,3.5.92,1.1,0,2.4,0,3.5,0,7.57,0,15.17,0,22.74,0"/><path class="b" d="M8.09,92.97c4.06,0,8.18,0,12.25,0,4.86-2.33,10.41-3.49,15.75-2.25,2.13.39,4.15,1.43,6.12,2.25,6.11,0,12.26,0,18.37,0,1.7-.07,3.57.17,5.25-.16,2.48-.87,5.26-1.04,7.87-1.13,2.34-.01,4.81.29,7,1.16,1.68.27,3.55.08,5.25.13.43,0,1.32,0,1.75,0,1.35-.61,2.89-1.23,4.37-1.39,1.71-.22,3.6-.07,5.25.44,1.09.36,2.3,1.12,3.5.95,3.48.02,7.03.05,10.5-.2,4.34.39,8.77.15,13.12.2,8.96-7.7,23.22-7.06,32.37,0h27.12"/><path class="b" d="M8.09,90.83c4.06,0,8.18,0,12.25,0,4.97-2.22,10.38-3.22,15.75-1.87,1.46.35,3.03.91,4.37,1.57.76.38,1.8.3,2.62.3,5.53,0,11.09,0,16.62,0,1.1,0,2.4,0,3.5,0,1.09-.44,2.35-1.05,3.5-1.33,3.14-.62,6.43-.87,9.62-.9,4.38-.06,8.76.77,13.12.99,2.61.11,5.3-.21,7.87-.62,6.06-.93,12.93-1.81,18.37,1.66,1.06.34,2.4.17,3.5.2,1.12-.07,2.54.27,3.5-.47,4.5-4.5,11.3-6.01,17.49-5.85,4.22.16,8.46,1.24,12.25,3.12,1.14.57,2.45,1.34,3.5,2.07.67.53,1.7,1.33,2.62,1.13,8.45,0,16.92,0,25.37,0"/><path class="b" d="M8.09,88.66c4.06.07,8.18,0,12.25.03,1.17-.12,2.37-.91,3.5-1.21,1.94-.61,4.09-.94,6.12-.98,3.28-.06,6.64.62,9.62,1.98,1.95.46,4.13.11,6.12.21,5.23,0,10.51,0,15.75,0,1.16-.32,2.35-1.14,3.5-1.52,1.64-.63,3.52-.82,5.25-1.03,6.95-.92,14.01-1.09,20.99-1.68,8.53-.63,18.43-1.85,25.37,4.23,1.4-.12,3.11.34,4.37-.4,1.72-2.29,4.35-3.86,7-4.85,9.95-3.71,21.51-1.23,29.74,5.26h26.24"/><path class="b" d="M8.09,85.15c1.15.33,2.37,1.04,3.5,1.4,3.18,0,6.44,0,9.62,0,5.17-2.44,11.32-2.47,16.62-.42,1.58.76,3.55.3,5.25.42,2.89,0,5.86,0,8.75,0,2.59,0,5.28,0,7.87,0,1.26.18,2.39-.96,3.5-1.39,2.69-1.38,5.81-1.55,8.75-2,4.06-.61,8.18-1.24,12.25-1.79,7.51-.95,15.27-1.93,22.74-.24,2.11.5,4.29,1.3,6.12,2.46,1.26.73,2.34,2.1,3.5,2.96h2.62c5.74-7.95,17.48-8.67,26.24-6.2,2.73.79,5.45,1.98,7.87,3.47.81.5,1.88,1.24,2.62,1.83.61.71,1.71,1.03,2.62.91,8.45,0,16.92,0,25.37,0"/><path class="b" d="M8.09,81.95c1.48.48,3.05,1.22,4.37,2.04.99.66,2.37.35,3.5.41,1.41,0,2.97,0,4.37,0,1.82.18,3.48-.99,5.25-1.23,3.46-.67,7.15-.37,10.5.72,1.89.84,4.11.41,6.12.51,2.89,0,5.86,0,8.75,0,2.3,0,4.7,0,7,0,.44,0,1.31,0,1.75,0,.84-.31,1.84-1,2.62-1.4,2.66-1.5,5.78-1.9,8.75-2.36,3.49-.62,7.02-1.4,10.5-2.05,9.46-1.72,19.82-3.12,28.87.96,1.19.57,2.51,1.42,3.5,2.3.84.7,1.57,2.14,2.62,2.56h1.75c2.88-4.91,8.57-7.05,14-7.61,8.46-.88,17.34,1.83,23.62,7.61h27.99"/><path class="b" d="M8.09,79c2.14.73,4.32,1.79,6.12,3.17,2.58.21,5.28.04,7.87.09,2.25-.68,4.62-1.36,7-1.26,1.42.02,2.99.21,4.37.54,1.1.24,2.35.83,3.5.72,7.57-.02,15.17.05,22.74-.03,2.08-1.49,4.51-2.69,7-3.3,3.2-.58,6.47-1.25,9.62-2.06,8.81-2.21,18.07-4.08,27.12-2.27,4.71.98,9.88,3,12.25,7.47.43.14,1.3.24,1.75.19.87-.88,1.73-2.34,2.62-3.19,1.22-1.16,2.82-2.17,4.37-2.81,9.84-3.88,22.35-1.74,29.74,6h29.74"/><path class="b" d="M8.09,76.26c2.48.86,4.99,2.08,7,3.79,2.59.14,5.28.02,7.87.06,1.95-.59,4.08-.99,6.12-.87,1.75.02,3.55.56,5.25.87,2,0,4.12,0,6.12,0,6.4,0,12.84,0,19.24,0,2.05-1.57,4.5-2.81,7-3.47,2.92-.59,5.89-1.3,8.75-2.14,8.47-2.47,17.42-4.43,26.24-2.89,5.43.97,11.45,3.24,14,8.5.45.04,1.32-.05,1.75-.16,2.74-5.8,9.85-7.48,15.74-7.64,7.47-.06,14.03,2.46,19.24,7.81,1.7-.04,3.55.09,5.25-.08,2.27-1.54,5.17-2.05,7.87-1.97,1.73.06,3.59.38,5.25.88,1.12.3,2.35.97,3.5,1.17,3.18,0,6.44,0,9.62,0"/><path class="b" d="M8.09,73.72c1.78.64,3.65,1.47,5.25,2.47.8.5,1.78,1.36,2.62,1.79,2.59,0,5.28,0,7.87,0,1.4-.23,2.95-.52,4.37-.45,1.11.03,2.41.23,3.5.45,1.4,0,2.97,0,4.37,0,4.65,0,9.35,0,14,0,3.18,0,6.44,0,9.62,0,1.47-.68,2.86-1.9,4.37-2.51,2.75-1.28,5.89-1.61,8.75-2.6,7.89-2.56,16.11-4.94,24.49-4.32,6.93.54,15,2.76,18.37,9.43h.87c1.14-.51,1.72-2.21,2.62-3,1.44-1.41,3.35-2.49,5.25-3.14,8.44-2.83,19.82-1.42,25.37,6.14,1.1,0,2.4,0,3.5,0,4.92-4.57,12.31-4.61,18.37-2.54,1.77.59,3.6,1.43,5.25,2.31,2.13.52,4.77.11,7,.23"/><path class="b" d="M8.09,71.34c2.83,1.02,5.65,2.44,7.87,4.49h44.61c2.27-1.84,5.01-3.22,7.87-3.84,2.34-.62,4.71-1.49,7-2.27,8.35-2.96,17.44-4.83,26.24-2.98,5.5,1.17,11.46,3.73,14,9.09.51.1,1.34-.14,1.75-.44,1.99-3.86,6.44-5.52,10.5-6.19,6.8-1.08,15.08.42,19.24,6.38.76.32,1.82.25,2.62.25.57-.2,1.4-1.01,1.75-1.5,2.32-2.24,5.59-3.35,8.75-3.72,4.77-.54,9.65.53,14,2.48,1.75.78,3.57,1.79,5.25,2.72,1.4.03,2.97.01,4.37.02"/><path class="b" d="M8.09,69.11c2.82,1.06,5.68,2.46,7.87,4.58,6.4,0,12.84,0,19.24,0,3.18,0,6.44,0,9.62,0,1.08-.27,2.39-.51,3.5-.58,1.73-.13,3.58.15,5.25.58,2.59-.01,5.28.02,7.87-.02,2.18-2.02,5.05-3.14,7.87-3.91,2.62-.87,5.26-1.95,7.87-2.85,8.06-2.88,16.95-4.29,25.37-2.2,5.11,1.31,10.67,3.8,13.12,8.77.43.15,1.3.27,1.75.22,4.82-8.17,22.02-8.25,27.12-.29.74.37,1.82.29,2.62.29,5.28-7.36,15.69-7.82,23.62-5.02,2.41.83,4.81,2,7,3.3.78.46,1.85,1.12,2.62,1.59,1.08.23,2.4.11,3.5.14"/><path class="b" d="M8.09,67.01c2.84,1.05,5.55,2.59,7.87,4.53,6.69,0,13.42,0,20.12,0,1.7-.03,3.55.07,5.25-.07,1.62-.73,3.49-1.23,5.25-1.45,2-.24,4.16-.15,6.12.32,1.14.24,2.38.89,3.5,1.2,2,0,4.12,0,6.12,0,1.93-1.82,4.51-2.85,7-3.64,2.02-.75,4.12-1.64,6.12-2.42,9.07-3.66,19.36-5.4,28.87-2.41,3.51,1.1,7,2.83,9.62,5.45.86.83,1.64,2.33,2.62,3.02.44,0,1.31,0,1.75-.01,1.85-2.98,5.45-4.21,8.75-4.79,5.24-.92,11.68.03,14.87,4.72.78.11,1.84.08,2.62.08,5.58-8.49,17.5-9.15,26.24-5.71,2.42.92,4.83,2.19,7,3.6,1.11.64,2.24,1.78,3.5,2.11.78,0,1.85,0,2.62,0"/><path class="b" d="M8.09,65.04c12.07,5.29,1.83,4.3,17.49,4.36,4.06,0,8.18,0,12.25,0,.87-.04,1.84-.68,2.62-1,1.63-.67,3.49-1.15,5.25-1.36,3.86-.43,8.06.09,11.37,2.23,1.98.27,4.12.06,6.12.12,2.53-2.1,5.8-3.01,8.75-4.34,5.56-2.48,11.4-4.63,17.49-5.29,9.39-1.05,21.56,1.28,27.12,9.63h2.62c.85-.44,1.78-1.36,2.62-1.82,2.12-1.13,4.62-1.68,7-1.89,4.18-.32,7.46.86,10.5,3.71h2.62c3.59-4.63,7.29-7.08,13.12-8.16,9.14-1.64,18.52,2.09,25.37,8.07,1.09.14,2.4.07,3.5.09"/><path class="b" d="M8.09,63.18c2.46,1.05,4.97,2.31,7,4.08h20.99c6.17-3.85,14.6-4.39,20.99-.76.92.87,2.33.79,3.5.76,1.1,0,2.4,0,3.5,0,1.69-.9,3.43-2.01,5.25-2.66,6.65-3.16,13.58-6.16,20.99-6.79,7.54-.72,15.47.79,21.87,4.95,1.19.78,2.51,1.85,3.5,2.86.31.48,1.26,1.34,1.75,1.65,1.4,0,2.97,0,4.37,0,1.3-.79,2.89-1.34,4.37-1.66,2.28-.49,4.79-.52,7,.31,1.14.37,2.23,1.56,3.5,1.35,2.08-.05,3.23.48,4.37-1.66,2.44-3.04,5.95-5.19,9.62-6.39,7.89-2.61,16.71-.79,23.62,3.6,1.83,1.15,3.69,2.59,5.25,4.1,1.29.65,2.97.25,4.37.35"/><path class="b" d="M8.09,61.4c1.43.66,3.03,1.43,4.37,2.25.79.46,1.65,1.42,2.62,1.46,5.82,0,11.68,0,17.49,0,.44.03,1.32-.04,1.75-.15.42-.28,1.3-.81,1.75-1.05,1.34-.71,2.92-1.33,4.37-1.73,6.14-1.64,13.15-.83,18.37,2.93,2.3-.06,4.72.15,7-.11,4.74-2.64,9.74-5.03,14.87-6.83,12.2-4.28,27.5-2.88,36.74,6.85,6.68.24,13.43.01,20.12.09,7.55-9.8,20.4-12.35,31.49-7.22,3.18,1.45,6.22,3.46,8.75,5.88.33.44,1.22,1.17,1.75,1.34,1.4,0,2.97,0,4.37,0"/><path class="b" d="M8.09,59.69c1.76.86,3.67,1.8,5.25,2.98,1.32.57,2.97.21,4.37.31,2,0,4.12,0,6.12,0,2.59,0,5.28,0,7.87,0,.94.02,1.84-.84,2.62-1.25,1.61-.9,3.46-1.65,5.25-2.12,4.87-1.27,10.18-.96,14.87.87,1.5.59,3.09,1.44,4.37,2.41.78.12,1.84.09,2.62.09,2-.09,4.17.23,6.12-.19,3.16-1.62,6.35-3.38,9.62-4.76,6.31-2.7,13.24-4.26,20.12-3.73,4.86.36,9.7,1.74,14,4.05,1.47.79,3.05,1.81,4.37,2.84.44.35,1.34,1.1,1.75,1.49.72.38,1.84.31,2.62.3,5.23,0,10.51,0,15.75,0,8.17-10.17,21.63-13.13,33.24-7.1,3.26,1.67,6.34,3.96,8.75,6.72.71.47,1.82.38,2.62.37,1.09,0,2.4,0,3.5,0"/><path class="b" d="M8.09,58.03c1.77.78,3.44,2.14,5.25,2.8,1.1,0,2.4,0,3.5,0,4.65,0,9.35,0,14,0,8.13-5.87,19.84-5.81,27.99,0,3.18,0,6.44,0,9.62,0,.53.07,1.33-.22,1.75-.54.78-.43,1.84-1.01,2.62-1.42,2.52-1.32,5.2-2.56,7.87-3.53,12.24-4.73,26.62-3.37,36.74,5.36,5.5.34,11.1.03,16.62.13,1.02-.41,1.84-1.68,2.62-2.41,1.29-1.28,2.86-2.57,4.37-3.57,11.55-7.92,27.2-4.82,35.86,5.88,2.28.23,4.7.05,7,.1"/><path class="b" d="M8.09,56.4c1.12.61,2.42,1.38,3.5,2.06,1.94.49,4.13.12,6.12.23,4.06-.08,8.2.17,12.25-.11,7.79-5.79,18.96-5.67,27.12-.66,1.43,1.21,3.53.66,5.25.77,2.89,0,5.86,0,8.75,0,2.67-1.02,5.18-2.73,7.87-3.76,4.43-1.91,9.18-3.27,14-3.66,5.97-.5,12.11.58,17.49,3.22,1.46.71,3.04,1.64,4.37,2.57,1,.71,2.14,1.87,3.5,1.63,4.94,0,9.93,0,14.87,0,1.53-1.15,2.84-2.91,4.37-4.07,2.58-2.14,5.59-3.91,8.75-5.02,11.22-3.97,22.2.43,29.74,9.1h7.87"/><path class="b" d="M8.09,54.76c.79.47,1.86,1.14,2.62,1.64,1.98.3,4.12.07,6.12.14,4.06-.01,8.18.02,12.25-.02,5.93-4.43,13.97-5.5,20.99-3.36,1.77.53,3.62,1.3,5.25,2.18.79.4,1.7,1.19,2.62,1.2,3.48,0,7.02,0,10.5,0,1.1,0,2.4,0,3.5,0,1.17.07,2.52,0,3.5-.72,10.01-5.58,22.36-8.41,33.24-3.67,1.79.76,3.65,1.77,5.25,2.88.77.49,1.65,1.47,2.62,1.51,2,0,4.12,0,6.12,0,3.18,0,6.44,0,9.62,0,.59-.15,1.4-.92,1.75-1.39,1.02-1.08,2.33-2.28,3.5-3.2,2.84-2.22,6.15-3.98,9.62-4.96,9.84-2.93,21.07,1.19,27.12,9.39,3.15.4,6.45.05,9.62.16"/><path class="b" d="M8.09,53.1c.79.45,1.66,1.34,2.62,1.3,1.71,0,3.54,0,5.25,0,4.06,0,8.18,0,12.25,0,.92-.1,1.84-.9,2.62-1.32,1.34-.75,2.91-1.43,4.37-1.87,6.7-2.08,14.17-.78,20.12,2.82,1,.6,2.39.31,3.5.37,1.4,0,2.97,0,4.37,0,4.65,0,9.35,0,14,0,12.09-6.9,25.98-9.12,37.61,0h17.49c8.15-9.46,20.99-13.51,32.37-7.27,1.85,1.01,3.71,2.35,5.25,3.79,1.21.98,2.11,2.75,3.5,3.48h10.5"/><path class="b" d="M8.09,51.29c.4.33,1.24.84,1.75.97.44,0,1.31,0,1.75,0,1.4,0,2.97,0,4.37,0,4.36,0,8.77,0,13.12,0,6.06-4.22,14.22-4.71,20.99-1.98,1.47.5,2.9,1.52,4.37,1.98,2.89,0,5.86,0,8.75,0,3.77,0,7.6,0,11.37,0,2.29-.11,4.75.26,7-.21,3.46-2.15,7.35-3.78,11.37-4.52,5.26-.99,10.88-.46,15.75,1.81,1.15.54,2.47,1.3,3.5,2.05.32.37,1.24.86,1.75.87,6.11,0,12.26,0,18.37,0,10.2-12.88,29.5-13.66,39.36,0h12.25"/><path class="b" d="M8.09,49.28c.68.71,1.68.92,2.62.83,1.41,0,2.97,0,4.37,0,3.77,0,7.6,0,11.37,0,1.1,0,2.4,0,3.5,0,.45-.25,1.29-.73,1.75-.95,2.16-1.05,4.61-1.71,7-1.91,3.23-.28,6.59.21,9.62,1.36,1.13.4,2.36,1.13,3.5,1.51,1.4,0,2.97,0,4.37,0,9.32,0,18.67,0,27.99,0,.53.11,1.33-.16,1.75-.49.75-.49,1.82-1.09,2.62-1.47,1.9-.91,4.05-1.6,6.12-1.97,4.38-.79,9.06-.33,13.12,1.54.81.38,1.89.98,2.62,1.49.32.36,1.27.84,1.75.9,6.69,0,13.42,0,20.12,0,1.23-.98,2.28-2.57,3.5-3.57,2.04-1.81,4.48-3.33,7-4.38,9.85-4.28,21.81-.79,27.99,7.95h13.12"/><path class="b" d="M8.09,47.1c.67.72,1.67.97,2.62.87,1.1,0,2.4,0,3.5,0,2.89,0,5.86,0,8.75,0,2.89-.03,5.86.07,8.75-.05,2.41-1.19,5.18-1.83,7.87-1.86,2.04-.02,4.19.31,6.12.94.79.26,1.83.73,2.62.96.44,0,1.31,0,1.75,0,12.82,0,25.67,0,38.49,0,6.1-4.2,14.98-4.69,20.99-.08,2.88.2,5.86.03,8.75.08,1.64-.7,3.44-1.41,5.25-1.47,2.1-.12,4.33.35,6.12,1.47,1.09,0,2.4,0,3.5,0,8.69-12.66,27.85-12.66,36.74-.23,1.65.47,3.55.14,5.25.23,2.89,0,5.86,0,8.75,0"/><path class="b" d="M8.09,44.76c1.37,1.52,3.43,1,5.25,1.07,2.3,0,4.7,0,7,0,3.18,0,6.44,0,9.62,0,2.32.02,4.72.09,7-.43,1.4-.16,2.98-.13,4.37.09.78.15,1.82.4,2.62.33,11.95,0,23.92,0,35.86,0,3.77,0,7.6,0,11.37,0,2.45-1.21,5.09-2.32,7.87-2.34,1.73-.06,3.61.19,5.25.75,1.16.35,2.35,1.21,3.5,1.59,2.3,0,4.7,0,7,0,2.76-2.07,6.12-3.51,9.62-3.42,2.86.04,6.08.8,7.87,3.2.43.15,1.3.26,1.75.22,1.01-.76,1.75-2.36,2.62-3.26,1.68-1.81,3.87-3.28,6.12-4.27,9.73-4.3,20.73-.72,27.12,7.52h14"/><path class="b" d="M8.09,42.29c.45.33,1.32,1.03,1.75,1.39,10.2.02,20.42,0,30.62,0,4.06,0,8.18,0,12.25,0,1.98-.47,4.07-1.05,6.12-.98,1.11,0,2.42.16,3.5.41.79.18,1.8.64,2.62.57,5.23.02,10.52,0,15.75-.11,4.34.27,8.77.03,13.12.11,1.91-.79,4.04-1.39,6.12-1.29,1.8-.02,3.58.74,5.25,1.29,2.3,0,4.7,0,7,0,3.65-3.58,8.89-5.53,14-4.99,3.68.28,6.79,1.79,8.75,4.99h.87c3.16-7.55,12.61-10.22,20.12-8.69,3.85.77,7.54,2.61,10.5,5.19,1.22.98,2.26,2.56,3.5,3.5h14"/><path class="b" d="M8.09,39.74c.79.54,1.76,1.38,2.62,1.8,2,0,4.12,0,6.12,0,4.06,0,8.18,0,12.25,0,6.11,0,12.26,0,18.37,0,.84-.17,1.84-.74,2.62-1.05,1.64-.67,3.49-1.17,5.25-1.43,3.19-.47,6.58-.23,9.62.9,1.15.38,2.35,1.21,3.5,1.59,3.18,0,6.44,0,9.62,0,1.39-.28,2.98-.29,4.37-.02,2,.04,4.12,0,6.12.02,3.48-.05,7.04.15,10.5-.2,2.59.24,5.27.21,7.87.2,3.28.09,2.81.11,5.25-2.07,1.54-1.22,3.42-2.28,5.25-3,6.21-2.46,16.5-2.16,19.24,5.07.8-.29,1.46-1.82,1.75-2.53,1.05-1.64,2.68-3.09,4.37-4.03,6.18-3.46,14.08-2.83,20.12.63,2.72,1.43,4.9,3.75,7,5.93h14"/><path class="b" d="M8.09,37.17c1.11.69,2.3,1.71,3.5,2.24,1.71,0,3.54,0,5.25,0,3.77,0,7.6,0,11.37,0,5.23,0,10.51,0,15.75,0,2.53-1.22,5.12-2.58,7.87-3.22,4.26-1.1,8.9-1.2,13.12.13,1.85.59,3.78,1.5,5.25,2.78,1.32.57,2.97.21,4.37.3,2.59,0,5.28,0,7.87,0,8.45,0,16.92,0,25.37,0,1.48-1.05,2.81-2.63,4.37-3.59,3.84-2.57,8.48-4.11,13.12-3.99,5.27.04,11.44,2.04,13.12,7.58,2.1-5.15,5.94-7.68,11.37-8.46,7.53-1.01,15.41,2.4,20.12,8.31,4.62.37,9.36.03,14,.14"/><path class="b" d="M8.09,34.61c1.4.85,2.96,1.82,4.37,2.65,6.4,0,12.84,0,19.24,0,2.3,0,4.7,0,7,0,1.13-.07,2.55.28,3.5-.48,5.49-3.25,11.97-5.09,18.37-4.55,4.1.39,8.39,1.69,11.37,4.65.72.48,1.81.39,2.62.38,1.4,0,2.97,0,4.37,0,8.74,0,17.5,0,26.24,0,1,.21,2.05-.56,2.62-1.32.4-.4,1.31-1.18,1.75-1.54,2.33-1.84,5.07-3.33,7.87-4.29,5.92-2,12.96-1.86,18.37,1.49.92.59,1.98,1.63,2.62,2.52.22.67,1.17,2.2,1.75,2.63,1.32-5.37,7.16-7.79,12.25-7.91,7.06-.27,13.69,3.32,18.37,8.42h13.12"/><path class="b" d="M8.09,32.1c1.68.95,3.55,1.87,5.25,2.8,1.06.36,2.4.18,3.5.22,1.4,0,2.97,0,4.37,0,5.53,0,11.09,0,16.62,0,.44.02,1.31-.02,1.75-.09.76-.49,1.83-1.13,2.62-1.56,2.19-1.18,4.61-2.18,7-2.89,8.14-2.4,18.38-2.05,24.49,4.54h31.49c5.67-5.79,13.64-9.65,21.87-9.02,5.83.34,12.4,2.82,14,9.02,1.41-6.98,9.55-9.07,15.75-8.04,5.84.82,10.7,4.03,14.87,8.04h12.25"/><path class="b" d="M8.09,29.68c2.25,1.16,4.72,2.11,7,3.21,1.4.15,2.97.05,4.37.08,5.82,0,11.68,0,17.49,0,1.62.16,2.96-1.39,4.37-1.99,2.47-1.33,5.17-2.43,7.87-3.18,8.52-2.36,19.07-1.77,25.37,5.11,9.9.17,19.84,0,29.74.06,5.97-5.93,14.19-9.96,22.74-9.41,6.15.3,13.17,2.86,14.87,9.41.98-5.5,6.24-7.92,11.37-8.15,7.23-.35,14.2,3.13,19.24,8.15h11.37"/><path class="b" d="M8.09,27.37c1.66.78,3.52,1.44,5.25,2.07,1.41.43,2.88,1.35,4.37,1.39,6.4,0,12.84,0,19.24,0,8.14-5.34,18.34-8.29,27.99-5.88,2.11.53,4.28,1.36,6.12,2.52,1.55.88,2.9,2.37,4.37,3.36,7.57,0,15.17,0,22.74,0,1.7,0,3.54,0,5.25,0,1.05-.15,1.85-1.36,2.62-1.98,6.4-5.53,15.17-8.57,23.62-7.33,4.93.74,10.63,2.97,12.25,8.13l.87-.26c3.38-8.6,15.86-7.59,22.74-4.16,12.32,6.44,2.43,5.62,18.37,5.61"/><path class="b" d="M8.09,25.2c3.39,1.38,7.02,2.28,10.5,3.41,5.81.21,11.68.01,17.49.08,1.5-.32,2.92-1.79,4.37-2.43,2.19-1.18,4.61-2.16,7-2.86,7.1-2.07,15.08-2.18,21.87.99,2.27,1.02,4.17,2.82,6.12,4.3,7.28,0,14.59,0,21.87,0,1.4,0,2.97,0,4.37,0,1.51.07,2.49.05,3.5-1.22,7.16-6.52,17.59-9.82,27.12-7.52,2.88.72,5.8,2.03,7.87,4.2.99,1.02,1.63,2.92,2.62,3.93,1.27-5.38,7.24-7.5,12.25-7.53,7.49-.14,14.46,3.5,20.12,8.14h8.75"/><path class="b" d="M8.09,23.17c3.96,1.44,8.2,2.2,12.25,3.36,5.23.03,10.51,0,15.75.01,5.23-3.46,11.2-5.89,17.49-6.43,7.41-.72,15.57.83,20.99,6.26,1.37.33,2.97.12,4.37.17,2,0,4.12,0,6.12,0,6.4,0,12.84,0,19.24,0,6.34-6.32,15.56-9.74,24.49-8.99,5.13.52,11.24,2.54,13.12,7.84l.87.24c3.16-9.01,16.41-8.2,23.62-5.06,2.42.98,4.82,2.3,7,3.74,1.11.67,2.27,1.78,3.5,2.24,2.3,0,4.7,0,7,0"/><path class="b" d="M8.09,21.32c4.25,1.41,8.79,1.95,13.12,3.08,4.94,0,9.93,0,14.87,0,10.43-7.3,27.71-9.21,37.61-.09,10.48.26,21,0,31.49.09,5.81-5.55,13.86-8.54,21.87-8.47,5.91.08,12.91,2.27,14.87,8.47,3.57-9.68,16.35-9.36,24.49-6.28,4.03,1.47,7.81,3.7,11.37,6.07,1.95.47,4.13.11,6.12.22"/><path class="b" d="M8.09,19.66c1.94.69,4.1.97,6.12,1.32,2.31.37,4.69.89,7,1.27,4.94,0,9.93,0,14.87,0,3.23-2.02,6.77-3.67,10.5-4.53,5.42-1.32,11.2-1.44,16.62-.06,2.09.54,4.25,1.34,6.12,2.42.82.48,1.89,1.24,2.62,1.85.73.4,1.82.32,2.62.32,10.78-.03,21.59.06,32.37-.04,7.26-7.87,29.11-12.02,34.11.04,1.15-1.42,1.97-3.51,3.5-4.61,6.45-4.9,15.49-4.18,22.74-1.59,3.01,1.08,5.96,2.56,8.75,4.12,1.1.61,2.4,1.36,3.5,1.97,1.39.21,2.97.08,4.37.11"/><path class="b" d="M8.09,18.23c3.38,1.05,7.03,1.14,10.5,1.8,5.51.23,11.1.02,16.62.09,1.59.18,2.96-1.17,4.37-1.71,1.93-.88,4.06-1.59,6.12-2.08,8.17-1.86,17.52-1.2,24.49,3.78,6.4.03,12.84,0,19.24.01,1.49.17,2.95-.66,4.37-.95,1.68-.36,3.56-.43,5.25-.12,1.15.17,2.37.82,3.5,1.07,1.4,0,2.97,0,4.37,0,.43,0,1.31,0,1.75,0,.51-.18,1.37-.79,1.75-1.18,4.94-3.73,11.39-5.18,17.49-5.14,3.4.14,7.01,1.01,9.62,3.3.93.77,1.53,2.43,2.62,3.02,1.12-1.34,2.05-3.25,3.5-4.3,6.69-5.05,16.01-4.56,23.62-2.05,3.31,1.09,6.52,2.64,9.62,4.21,1.39.7,2.95,1.48,4.37,2.1.77.05,1.85.04,2.62.04"/><path class="b" d="M8.09,17.06c3.65,1.18,7.59.88,11.37.91,5.23,0,10.51,0,15.75,0,.84.03,1.92.06,2.62-.49,1.07-.52,2.37-1.06,3.5-1.44,2.8-.94,5.8-1.52,8.75-1.72,4.73-.31,9.6.34,14,2.13,1.13.41,2.33,1.24,3.5,1.51,2.3,0,4.7,0,7,0,2.59,0,5.28,0,7.87,0,1.7-.07,3.58.18,5.25-.17,1.59-.93,3.45-1.68,5.25-2.09,2.26-.51,4.72-.58,7-.13,1.14.23,2.46.67,3.5,1.19.45.23,1.34.78,1.75,1.09.41.08,1.33.13,1.75.11,1.7-.04,3.56.11,5.25-.1,5.73-4.71,20.66-7.42,25.37-.24.42.24,1.27.42,1.75.34,5.02-8.7,17.52-9.22,26.24-6.86,3.92,1.03,7.7,2.71,11.37,4.42,1.39.64,2.95,1.34,4.37,1.88.74.33,1.8.66,2.62.56"/></svg>