<?xml version="1.0" encoding="UTF-8"?><svg id="a" xmlns="http://www.w3.org/2000/svg" width="1920" height="2400" viewBox="0 0 192 240"><defs><style>.b{fill:none;stroke:#fff;stroke-miterlimit:10;stroke-width:.3px;}.c{stroke-width:0px;}</style></defs><rect class="c" x="0" width="192" height="240"/><path class="b" d="M8.58,227.05c1.14.52,2.42,1.31,3.48,1.97h33.92c6.25-4.76,13.62-9.02,21.75-8.74,7.6.54,16.29,3.08,21.75,8.62,1.68.24,3.53.07,5.22.12,1.15-.37,2.33-1.21,3.48-1.6,3.05-1.14,6.36-1.67,9.57-2.16,3.75-.54,7.58-1.02,11.31-1.75,2.89-.5,5.78-1.43,8.7-1.81,7.49-.9,16.2.94,20.88,7.31h2.61c6.8-6.8,17.84-4.87,25.23,0h6.96"/><path class="b" d="M8.58,225.62c1.11.39,2.25,1.44,3.48,1.27,2.29,0,4.67,0,6.96,0,5.49,0,11.03,0,16.53,0,1.98-.12,4.17.29,6.09-.25,1.08-.7,2.37-1.52,3.48-2.18,6.57-3.88,13.98-7.15,21.75-7,7.66.49,16.69,3.4,21.75,9.42,1.4-.06,2.99.17,4.35-.19,1.94-1.7,4.51-2.64,6.96-3.3,6.84-1.73,13.96-2.14,20.88-3.44,7.96-1.83,16.27-2.09,23.49,2.31,1.22.76,2.55,1.86,3.48,2.96.97,1.65,1.64,1.75,3.48,1.65,4.86-5.76,13.4-5.67,20.01-3.35,2.41.82,4.76,2.07,6.96,3.35,1.69,0,3.53,0,5.22,0"/><path class="b" d="M8.58,224.59c1.95.38,4.1.09,6.09.17,3.17,0,6.4,0,9.57,0,2.58,0,5.25,0,7.83,0,1.39-.09,3.04.27,4.35-.31,8.79-4.33,17.82-9.25,27.84-9.59,8.37-.14,18.09,3.33,23.49,9.91,1.09-.03,2.41.1,3.48-.16,5.23-5.37,17.93-5.73,25.23-6.96,4.62-.53,9.25-1.67,13.92-1.57,5.16.12,10.49,1.36,14.79,4.32,1.73,1.06,2.92,2.99,4.35,4.36h1.74c4.49-6.17,13.4-5.9,20.01-3.86,2.7.84,5.36,2.1,7.83,3.48,1.27.71,2.95.27,4.35.38"/><path class="b" d="M8.58,222.63c4.91,0,9.87,0,14.79,0,1.69,0,3.52,0,5.22,0,1.11-.04,2.48.18,3.48-.41,10-4.38,20.16-9.63,31.32-9.82,6.78-.1,13.64,2.11,19.14,6.06,1.65,1.07,2.86,2.94,4.35,4.16h2.61c3.3-3.19,7.75-4.66,12.18-5.53,4.87-1,9.86-1.58,14.79-2.2,4.61-.49,9.27-1.38,13.92-1.19,5.51.25,11.25,1.65,15.66,5.1,1.32.98,2.34,2.66,3.48,3.82.44.02,1.31-.02,1.74-.07,4.13-6.38,13.51-5.94,20.01-4.13,2.36.68,4.75,1.65,6.96,2.72.78.38,1.84.91,2.61,1.31.76.21,1.83.17,2.61.17"/><path class="b" d="M8.58,220.5c4.62,0,9.3,0,13.92,0,1.99-.05,4.11.12,6.09-.1,1.09-.51,2.39-1.12,3.48-1.63,9.56-4.48,19.72-8.67,30.45-8.65,8.11.03,17.73,3.24,22.62,10.02,1,.58,2.37.3,3.48.36,5.04-6.04,19.34-6.9,26.97-7.99,7.5-.82,15.27-1.87,22.62.4,3.14.94,6.31,2.4,8.7,4.69.86.79,1.59,2.29,2.61,2.89h.87c.6-.22,1.41-1.13,1.74-1.65.69-.7,1.74-1.49,2.61-1.94,5.37-2.68,11.79-2.14,17.4-.52,2.35.69,4.73,1.65,6.96,2.67,1.36.56,2.81,1.6,4.35,1.44"/><path class="b" d="M8.58,218.37c4.04,0,8.14,0,12.18,0,1.4,0,2.95,0,4.35,0,.81,0,1.89.09,2.61-.35,3.64-2.01,7.45-3.88,11.31-5.44,10.34-4.16,22.25-6.45,33.05-2.76,4.7,1.68,9.26,4.41,12.18,8.55,1.09,0,2.39.02,3.48-.03,4.92-5.81,19.51-6.97,26.97-7.98,7.79-.77,15.88-1.59,23.49.76,4.06,1.26,8.34,3.37,10.44,7.25h1.74c4.4-6.25,13.29-6.04,20.01-4.53,2.65.62,5.32,1.57,7.83,2.61,1.7.59,3.41,1.8,5.22,1.91"/><path class="b" d="M8.58,216.24c5.5,0,11.03,0,16.53,0,1.29.21,2.46-.6,3.48-1.27,1.07-.65,2.37-1.39,3.48-1.98,3.86-2.05,7.98-3.76,12.18-4.98,10.17-2.89,21.82-3.24,31.31,1.95,2.62,1.46,5.19,3.39,6.96,5.84,1.23.8,2.95.32,4.35.44,5.2-5.25,17.94-6.53,25.23-7.6,10.53-1.18,28.96-2.53,35.66,7.39.43.15,1.29.27,1.74.22,1.43-1.15,2.57-2.73,4.35-3.46,5.42-2.51,11.75-2.02,17.4-.58,2.34.61,4.72,1.45,6.96,2.35,1.68.54,3.41,1.76,5.22,1.7"/><path class="b" d="M8.58,214.11c3.75,0,7.56,0,11.31,0,1.4,0,2.95,0,4.35,0,.8,0,1.86.08,2.61-.27,3.72-2.72,7.88-4.95,12.18-6.6,9.64-3.73,20.56-4.36,30.45-1.22,3.12,1.05,6.15,2.68,8.7,4.76,1.21.92,2.28,2.41,3.48,3.32,6.51.14,3.45-.01,8.7-2.46,3.87-1.62,8.08-2.47,12.18-3.29,12.12-2.35,35.85-5.04,44.36,5.75h1.74c5.71-6.18,15.12-5.55,22.62-3.54,2.33.64,4.71,1.49,6.96,2.37.77.3,1.84.73,2.61,1.04.76.17,1.83.13,2.61.13"/><path class="b" d="M8.58,211.98c4.04,0,8.14,0,12.18,0,1.4,0,2.95,0,4.35,0,.91.1,1.99-.15,2.61-.85,3.17-2.41,6.74-4.41,10.44-5.88,9.07-3.67,19.35-4.02,28.71-1.23,3.09.85,6.1,2.27,8.7,4.15,1.56,1.03,2.88,2.67,4.35,3.81,1.99,0,4.1,0,6.09,0,1.33-.79,2.88-1.56,4.35-2.06,3.94-1.36,8.1-2.18,12.18-3.03,8.56-1.81,17.39-2.6,26.1-1.49,4.49.54,9.12,1.49,13.05,3.83,1.24.68,2.32,1.98,3.48,2.75.8,0,1.86.07,2.61-.26.9-1.05,2.23-2,3.48-2.57,4.88-2.17,10.51-2.02,15.66-1.02,3.87.77,7.65,2.15,11.31,3.63,1.64.44,3.53.13,5.22.21"/><path class="b" d="M8.58,209.85h18.27c8.81-7.44,20.79-10.91,32.18-8.88,6.25,1.12,12.73,3.11,17.4,7.61.59.75,1.6,1.46,2.61,1.26,1.09,0,2.39,0,3.48,0,1.39-.02,2.96.05,4.35-.06,1.64-.69,3.5-1.22,5.22-1.65,11.09-2.59,22.46-5.71,33.92-3.88,5.43.78,11.49,1.59,15.66,5.49,1.08.16,2.39.08,3.48.1,6.19-5.31,15.21-4.79,22.62-2.7,2.34.67,4.72,1.57,6.96,2.53,2.83.41,5.83.06,8.7.17"/><path class="b" d="M8.58,207.72c4.04,0,8.14,0,12.18,0,1.4,0,2.95,0,4.35,0,.8,0,1.87.08,2.61-.28,2.57-2.27,5.57-4.19,8.7-5.59,8.14-3.72,17.62-3.95,26.1-1.24,2.65.85,5.39,1.85,7.83,3.2,1.87,1.02,3.59,2.55,5.22,3.92,4.91,0,9.87,0,14.79,0,2.63-.04,5.28-.9,7.83-1.47,6.53-1.76,13.18-3.7,20.01-3.42,2.9.07,5.86.54,8.7,1.11,3.62.7,7.35,1.68,10.44,3.79,1.69-.06,3.55.15,5.22-.15,2.18-1.86,5.05-2.87,7.83-3.39,4.91-.89,10.05-.31,14.79,1.2,2.07.57,4.05,1.73,6.09,2.33,4.04,0,8.14,0,12.18,0"/><path class="b" d="M8.58,205.58h19.14c7.86-6.69,17.59-9.76,27.84-7.84,6.16,1.25,12.62,3.66,17.4,7.84,9.27,0,18.57,0,27.84,0,.87.15,1.83-.44,2.61-.74,1.37-.55,2.93-1.09,4.35-1.48,3.93-1.09,8.13-1.46,12.18-.94,3.89.47,7.65,1.83,11.31,3.16,2.29,0,4.67,0,6.96,0,1.48-.36,2.81-1.65,4.35-2.15,2.19-.89,4.61-1.45,6.96-1.68,4.08-.4,8.29.1,12.18,1.39,1.11.37,2.42.9,3.48,1.42.76.36,1.72,1.08,2.61,1.02,5.2,0,10.45,0,15.66,0"/><path class="b" d="M8.58,203.45c6.66-.03,13.35.06,20.01-.04,12.42-11.23,28.85-9.22,41.75.04,11.59,0,23.2,0,34.79,0,1.1-.04,2.42.14,3.48-.22,1.63-.65,3.48-1.07,5.22-1.23,2.3-.21,4.73-.01,6.96.56,1.4.38,2.86,1.09,4.35.89,3.16,0,6.4,0,9.57,0,1.19-.27,2.35-1.22,3.48-1.67,8.24-3.67,18.48-3.34,26.1,1.67h19.14"/><path class="b" d="M8.58,201.32c6.37,0,12.77,0,19.14,0,.48.04,1.29-.06,1.74-.2.46-.38,1.26-1.1,1.74-1.44,1.32-.98,2.87-1.95,4.35-2.66,6.16-3.03,13.44-3.51,20.01-1.58,2.71.78,5.39,1.97,7.83,3.39.8.46,1.85,1.14,2.61,1.65.67.6,1.71.95,2.61.84,4.33,0,8.72,0,13.05,0,1.99-.02,4.1.05,6.09-.04,1.05-.51,2.35-.99,3.48-1.27,3.74-.92,7.9-.57,11.31,1.29,2.58.05,5.25,0,7.83.02,7.24,0,14.51,0,21.75,0,3.07-1.43,6.2-2.97,9.57-3.59,4.27-.91,8.8-.93,13.05.12,2.78.63,5.43,1.95,7.83,3.47,6.95,0,13.93,0,20.88,0"/><path class="b" d="M8.58,199.19c6.37,0,12.77,0,19.14,0,1.33.07,2.53.05,3.48-1.01,1.31-1.02,2.86-2,4.35-2.73,6.45-3.19,14.2-3.32,20.88-.76,1.77.67,3.6,1.57,5.22,2.56,1.13.56,2.19,1.81,3.48,1.94,2.29,0,4.67,0,6.96,0,4.04-.02,8.14.03,12.18-.02,1.83-1.17,3.97-2.08,6.09-2.59,3.11-.74,6.47-.71,9.57.11,1.8.48,3.65,1.29,5.22,2.29,1.06.34,2.39.17,3.48.21,1.99,0,4.1,0,6.09,0,5.2,0,10.45,0,15.66,0,3.38-1.42,6.78-3.06,10.44-3.68,3.99-.79,8.2-.82,12.18.09,1.75.4,3.61,1.04,5.22,1.85,1.14.46,2.23,1.64,3.48,1.75,7.24,0,14.51,0,21.75,0"/><path class="b" d="M8.58,197.06c6.95,0,13.93,0,20.88,0,.95.18,1.94-.5,2.61-1.1,1.03-.76,2.33-1.55,3.48-2.11,4.27-2.08,9.22-2.8,13.92-2.14,3.01.42,6.01,1.41,8.7,2.81,1.14.59,2.44,1.4,3.48,2.15.71.49,1.8.4,2.61.39,3.46,0,6.98,0,10.44,0,1.69,0,3.53,0,5.22,0,.8,0,1.89.09,2.61-.35,1.31-.86,2.88-1.66,4.35-2.21,6.57-2.52,14.25-1.46,20.01,2.56,7.53,0,15.09,0,22.62,0,1.18-.14,2.38-.95,3.48-1.35,1.93-.8,4.05-1.49,6.09-1.96,7.02-1.62,14.84-.82,20.88,3.31h23.49"/><path class="b" d="M8.58,194.93h22.62c8.02-6.88,20.52-6.27,28.71,0,6.66,0,13.35,0,20.01,0,1.75-.75,3.4-2.03,5.22-2.66,4.66-1.87,9.96-2.16,14.79-.77,2.45.7,4.87,1.85,6.96,3.3,1.68.27,3.53.07,5.22.13,4.04,0,8.14,0,12.18,0,1.39,0,2.96,0,4.35,0,.82,0,1.9.1,2.61-.4,6.72-3.11,14.56-4.37,21.75-2.18,1.12.34,2.43.85,3.48,1.37,1.04.55,2.23,1.4,3.48,1.2,7.82,0,15.67,0,23.49,0"/><path class="b" d="M8.58,192.8c7.24,0,14.51,0,21.75,0,.95.18,1.92-.52,2.61-1.08.76-.51,1.78-1.11,2.61-1.49,2.7-1.24,5.74-1.86,8.7-1.86,4.62,0,9.26,1.48,13.05,4.12.75.39,1.8.32,2.61.31,1.4,0,2.95,0,4.35,0,3.17,0,6.4,0,9.57,0,1.69-.08,3.56.2,5.22-.19,1.84-1.26,3.97-2.31,6.09-3.01,5.34-1.78,11.33-1.59,16.53.59,1.47.61,3.04,1.47,4.35,2.39.75.29,1.82.22,2.61.22,7.53,0,15.09,0,22.62,0,1.19.13,2.37-.78,3.48-1.1,1.36-.5,2.93-.96,4.35-1.26,3.69-.78,7.61-.85,11.31-.07,2.08.44,4.21,1.18,6.09,2.18,1.04.41,2.39.2,3.48.25,7.82,0,15.67,0,23.49,0"/><path class="b" d="M8.58,190.67c1.99,0,4.1,0,6.09,0,1.66-.46,3.49-.78,5.22-.7,1.12.04,2.42.27,3.48.63,1.39.13,2.95.05,4.35.07,1.76-.07,3.87.43,5.22-1.02,3.77-2.57,8.57-3.41,13.05-2.83,2.39.31,4.81,1.07,6.96,2.16,1.15.45,2.2,1.69,3.48,1.69,1.99,0,4.1,0,6.09,0,4.91,0,9.87,0,14.79,0,5.39-3.39,11.93-5.12,18.27-3.91,2.07.37,4.2,1.06,6.09,2,1.42.56,2.73,2.1,4.35,1.91,3.16,0,6.4,0,9.57,0,4.62,0,9.3,0,13.92,0,1.99,0,4.1,0,6.09,0,.75-.32,1.83-.69,2.61-.92,3.93-1.12,8.19-1.25,12.18-.38,1.43.28,2.95.91,4.35,1.3,3.16,0,6.4,0,9.57,0,6.37,0,12.77,0,19.14,0"/><path class="b" d="M8.58,188.54c1.79.08,3.47-1.16,5.22-1.45,3.73-.91,7.97-.73,11.31,1.31,1.08.23,2.39.11,3.48.14,1.12-.07,2.54.28,3.48-.49,6.22-4.79,15.57-4.05,21.75.46,7.53.09,15.09.02,22.62.03,7.64-5.06,18.54-5.53,26.1-.06,26.96.2,53.93,0,80.9.07"/><path class="b" d="M8.58,185.19c5.49-2.34,12.55-2.86,17.4,1.15,1.69.11,3.53.11,5.22,0,4.13-3.8,10.47-4.29,15.66-2.7,1.14.35,2.44.92,3.48,1.5.45.25,1.32.82,1.74,1.13.43.1,1.3.17,1.74.14,7.24,0,14.51,0,21.75,0,7.18-4.52,17.27-5.01,24.36-.06,2.28.13,4.67.02,6.96.06,1.72-.02,3.6.19,5.22-.51,3.09-.88,6.38-.97,9.57-1.12,2.29-.12,4.67-.49,6.96-.23,2.73.14,5.24,1.2,7.83,1.86,4.62,0,9.3,0,13.92,0,11.01,0,22.04,0,33.05,0"/><path class="b" d="M8.58,181.84c4.71-1.79,10.22-2.13,14.79.25.85.44,1.92,1.2,2.61,1.87,1.3.59,2.96.22,4.35.32,4.01-3.51,9.73-4.39,14.79-2.92,2.2.52,4.14,1.87,6.09,2.92,4.04,0,8.14,0,12.18,0,3.75,0,7.56,0,11.31,0,2.25-.96,4.5-2.21,6.96-2.61,3.13-.64,6.46-.63,9.57.1,2.15.43,4.16,1.54,6.09,2.51,1.99,0,4.1,0,6.09,0,1.11-.06,2.49.23,3.48-.38,4.03-1.98,8.64-2.33,13.05-2.57,3.46-.17,6.97-.79,10.44-.38,2.93.29,5.9.97,8.7,1.9,1.1.37,2.41.86,3.48,1.32.76.15,1.84.12,2.61.12,12.75,0,25.52,0,38.27,0"/><path class="b" d="M8.58,178.84c5.75-2.07,13.09-1.73,17.4,3.06,1.05.4,2.38.2,3.48.25,1.16-.63,2.24-1.79,3.48-2.31,3.77-1.78,8.29-1.74,12.18-.34,1.16.42,2.46,1.08,3.48,1.77.69.64,1.68,1,2.61.88,3.76,0,7.57.08,11.31-.21,1.98.29,4.09.21,6.09.21,1.4,0,2.95,0,4.35,0,.83.01,1.91.1,2.61-.44,3.69-1.95,8.09-2.47,12.18-1.81,2.1.35,4.28,1.08,6.09,2.22,2.58.08,5.25.01,7.83.04.9.18,1.86-.53,2.61-.92,1.33-.67,2.91-1.24,4.35-1.63,4.52-1.22,9.28-1.24,13.92-1.63,5.81-.83,11.77-.28,17.4,1.33,1.72.48,3.55,1.09,5.22,1.74.78.3,1.85.75,2.61,1.09.41.02,1.32.03,1.74.03,11.3,0,22.62,0,33.92,0"/><path class="b" d="M8.58,176.13c5.94-2.09,13.25-1.22,17.4,3.89h2.61c1.44-.86,2.71-2.29,4.35-2.82,5.16-2,11.45-.95,15.66,2.65,2.25.38,4.68.08,6.96.17,1.18.15,2.37-.6,3.48-.87,1.37-.34,2.96-.4,4.35-.16,1.16.15,2.33.9,3.48,1.03,2.58,0,5.25,0,7.83,0,3.72-1.9,8.11-2.44,12.18-1.45,1.48.25,2.89,1.21,4.35,1.45,2.87-.09,5.85.2,8.7-.14,7.16-4.76,16.17-4.01,24.36-4.96,6.12-.73,12.39.12,18.27,1.9,1.72.53,3.56,1.2,5.22,1.91,1.1.39,2.28,1.33,3.48,1.29,10.72,0,21.46,0,32.18,0"/><path class="b" d="M8.58,173.65c5.64-1.87,12.82-1.14,16.53,3.95.74.36,1.81.28,2.61.28,1.15-.74,2.21-2.01,3.48-2.59,4.03-2.01,9-1.81,13.05.04,1.2.55,2.51,1.42,3.48,2.32.75.3,1.82.23,2.61.23,1.39,0,2.96,0,4.35,0,2.74-1.91,6.37-2.53,9.57-1.55,1.48.32,2.78,1.74,4.35,1.55,1.99,0,4.1,0,6.09,0,.48-.02,1.32-.28,1.74-.5,1.06-.38,2.36-.65,3.48-.75,2.33-.19,4.79.15,6.96,1.03,1.35.41,2.95.15,4.35.22,1.7,0,3.52,0,5.22,0,.94.06,1.82-.81,2.61-1.21,5.83-3.17,12.65-3.51,19.14-3.85,5.21-.27,10.44-1.25,15.66-.56,4.14.44,8.29,1.43,12.18,2.93,1.11.43,2.41,1,3.48,1.54,1.03.55,2.25,1.33,3.48,1.15,10.14,0,20.3,0,30.45,0"/><path class="b" d="M8.58,171.39c4.3-1.3,9.22-1.31,13.05,1.3,1.31.73,2.2,2.34,3.48,3.06h1.74c4.02-4.4,10.22-5.24,15.66-3.13,6.65,3,1.74,3.31,10.44,3.13,4.26-3.28,10.52-3.79,14.79-.24,1.92.52,4.11.12,6.09.24,2.38.22,4.59-.81,6.96-.58,1.12.05,2.38.41,3.48.58,3.17,0,6.4,0,9.57,0,.92.17,1.89-.51,2.61-.98,1.32-.79,2.89-1.48,4.35-1.98,4.18-1.43,8.66-1.88,13.05-2.1,2.58-.13,5.25-.22,7.83-.44,3.73-.41,7.55-.82,11.31-.47,4.45.35,8.91,1.36,13.05,3.04,1.11.45,2.42,1.06,3.48,1.63,1.04.55,2.22,1.51,3.48,1.31,10.14,0,20.3,0,30.45,0"/><path class="b" d="M8.58,169.33c4.05-1.14,8.55-1.28,12.18,1.15,1.31.74,2.27,2.29,3.48,3.14h1.74c3.29-4.08,9-5.21,13.92-3.92,2.64.59,4.94,2.19,6.96,3.92,1.69-.07,3.55.17,5.22-.16,4.5-4.29,12.03-3.97,16.53.16h24.36c7.36-5.1,16.64-4.97,25.23-5.27,3.47-.09,6.97-.74,10.44-.84,4.39-.12,8.84.45,13.05,1.71,2.06.62,4.18,1.45,6.09,2.43,1.13.55,2.34,1.44,3.48,1.96.43,0,1.31,0,1.74,0,10.14,0,20.3,0,30.45,0"/><path class="b" d="M8.58,167.45c3.81-.98,7.86-1.27,11.31.97,1.32.71,2.24,2.28,3.48,3.07h1.74c4.92-6.37,15.71-5.87,20.88-.06,6.9.35,3.58-.1,8.7-2.61,4.6-1.97,10.39-1.03,13.92,2.59,7.23.2,14.51.01,21.75.07.92.18,1.88-.54,2.61-1,.75-.44,1.81-.97,2.61-1.31,2.74-1.15,5.75-1.83,8.7-2.18,5.18-.63,10.46-.32,15.66-.65,3.46-.2,6.96-.87,10.44-.76,6.73.13,13.66,1.86,19.14,5.9h33.92"/><path class="b" d="M8.58,165.75c3.96-.93,7.89-1.28,11.31,1.37,1.87,1.56,1.5,2.48,4.35,2.24,4.63-6.04,14.45-6,20.01-1.28,1.05,1.27,1.92,1.38,3.48,1.28.81,0,1.89.09,2.61-.36,4.78-4.96,13.58-4.69,18.27.26,6.93.27,13.93.02,20.88.1.51-.08,1.34-.51,1.74-.82,1.05-.62,2.34-1.25,3.48-1.68,4.14-1.58,8.65-2.05,13.05-2.12,4.33-.06,8.72.18,13.05-.14,5.19-.55,10.5-1.19,15.66,0,2.69.56,5.42,1.49,7.83,2.82.82.45,1.88,1.17,2.61,1.76,1.06.31,2.39.15,3.48.19,1.69,0,3.53,0,5.22,0,1.68-.28,3.5-.65,5.22-.54,2.01.05,4.07.68,6.09.54,5.49,0,11.03,0,16.53,0"/><path class="b" d="M8.58,164.21c4.66-1.01,8.97-1.29,12.18,2.91.77.14,1.83.11,2.61.11,5.34-6.52,16.21-6.01,21.75,0,1.39-.07,3,.19,4.35-.22,4.93-5.45,14.17-4.93,19.14.22h20.01c8.42-5.82,19.08-4.02,28.71-4,3.48.04,6.98-.58,10.44-.76,5.86-.28,11.81,1.22,16.53,4.76,1.69,0,3.52,0,5.22,0,1.15-.25,2.32-1.09,3.48-1.36,1.65-.48,3.51-.67,5.22-.62,2.99.05,5.92.95,8.7,1.98,5.49,0,11.03,0,16.53,0"/><path class="b" d="M8.58,162.84c4.74-.87,7.52-1.31,11.31,2.26h2.61c.85-.57,1.77-1.61,2.61-2.19,1.01-.69,2.32-1.31,3.48-1.68,5.32-1.65,11.88-.58,15.66,3.73,1.38.25,2.96.09,4.35.13,3.62-4.06,9.82-5.11,14.79-3.14,1.18.46,2.49,1.22,3.48,2.01.65.67,1.64,1.31,2.61,1.13,5.79,0,11.61,0,17.4,0,11.41-6.35,19.27-3.21,31.31-3.22,2.89,0,5.82-.46,8.7-.63,3.22-.14,6.57.26,9.57,1.47,1.56.5,2.9,1.84,4.35,2.39,1.39,0,2.96,0,4.35,0,4.15-3.81,10.42-4.09,15.66-2.81,1.44.36,3,.91,4.35,1.52,1.1.41,2.25,1.47,3.48,1.29,4.91,0,9.87,0,14.79,0"/><path class="b" d="M8.58,161.6c2.58-.31,5.36-1.18,7.83.05.48.21,1.34.79,1.74,1.13,1.36.28,3.01.32,4.35-.04,5.28-5.57,15.47-5.61,20.88-.19.71.51,1.79.42,2.61.41.84.02,1.93.11,2.61-.48,3.34-3.33,8.61-4.21,13.05-2.93,2.28.57,4.21,2.09,6.09,3.41,6.08-.03,12.19.05,18.27-.03,8.75-5.91,19.01-3.18,28.71-2.34,2.87.19,5.83.09,8.7-.16,4.46-.56,9.31-.2,13.05,2.54h4.35c4.94-4.98,12.59-5.98,19.14-4.06,1.76.5,3.6,1.24,5.22,2.1,1.13.55,2.29,1.53,3.48,1.96,4.91,0,9.87,0,14.79,0"/><path class="b" d="M8.58,160.5c1.71-.11,3.5-.7,5.22-.6.82.07,1.88.39,2.61.77,1.07.28,2.39.14,3.48.17.44,0,1.31,0,1.74,0,.5-.19,1.36-.8,1.74-1.18,1-.75,2.31-1.45,3.48-1.88,5.93-2.12,11.76-.98,16.53,3.06h4.35c3.27-3.45,8.56-4.43,13.05-3.21,2.26.51,4.19,1.99,6.09,3.21,5.79,0,11.61,0,17.4,0,1.94-1.02,3.94-2.2,6.09-2.75,3.65-1.05,7.56-1.14,11.31-.7,4.07.46,8.1,1.57,12.18,2.01,3.74.42,7.56.18,11.31,0,2.37-.11,4.82.41,6.96,1.45,1.69,0,3.53,0,5.22,0,7.8-8.77,21.73-7.71,30.45-.86.61.7,1.71.96,2.61.86,1.09,0,2.39,0,3.48,0,3.16,0,6.4,0,9.57,0"/><path class="b" d="M8.58,158.71c4.33,0,8.72,0,13.05,0,.52-.09,1.36-.6,1.74-.96,1.01-.69,2.32-1.33,3.48-1.73,5.3-1.87,11.31-.87,15.66,2.69,1.69-.11,3.6.28,5.22-.27,2.12-1.9,5.01-2.89,7.83-3.03,2.36-.11,4.83.38,6.96,1.41,1.18.46,2.22,1.68,3.48,1.89,1.69,0,3.52,0,5.22,0,3.75,0,7.56,0,11.31,0,1.18-.38,2.33-1.34,3.48-1.81,2.16-1,4.59-1.63,6.96-1.86,6.86-.81,13.39,1.91,20.01,3.16,3.71.63,7.56.44,11.31.52,3.45-.08,7.01.19,10.44-.13,4.67-5.85,12.76-8.23,20.01-7.12,5.55.78,10.61,3.61,14.79,7.25h13.92"/><path class="b" d="M8.58,156.57c4.62,0,9.3,0,13.92,0,2.39-1.41,5.02-2.64,7.83-2.88,2.61-.29,5.39.04,7.83,1.03,1.47.45,2.73,2.04,4.35,1.85,1.09,0,2.39,0,3.48,0,.91.15,1.92-.4,2.61-.94,3.09-1.85,6.97-2.27,10.44-1.4,1.86.39,3.53,1.56,5.22,2.34,4.91,0,9.87,0,14.79,0,.8,0,1.88.08,2.61-.3.73-.54,1.8-1.2,2.61-1.61,1.87-.95,4.02-1.61,6.09-1.93,7.22-1.26,14.14,1.67,20.88,3.82,6.95.06,13.93,0,20.88.02,7.84-9.24,20.93-11.08,31.32-5.04,1.48.83,3.04,1.92,4.35,3,.77.62,1.69,1.65,2.61,2.04,4.33,0,8.72,0,13.05,0"/><path class="b" d="M8.58,154.44c4.91,0,9.87,0,14.79,0,1.18-.15,2.34-1.01,3.48-1.33,2.2-.73,4.65-1.01,6.96-.77,2.11.22,4.3.9,6.09,2.07,2.29.06,4.67.01,6.96.03,1.17-.24,2.32-1.14,3.48-1.45,3.08-1,6.57-.87,9.57.34.79.31,1.76.95,2.61,1.11,1.69,0,3.53,0,5.22,0,3.46,0,6.98,0,10.44,0,.9.13,1.98-.29,2.61-.93.73-.53,1.8-1.16,2.61-1.56,2.94-1.45,6.3-2.13,9.57-2.12,3.55,0,7.11.82,10.44,2.02,2.33.73,4.58,2.1,6.96,2.59,6.66,0,13.35,0,20.01,0,7.79-9.58,21.38-12.2,32.18-6.24,13.53,7.95,1.23,6,20.88,6.24"/><path class="b" d="M8.58,152.31c5.79,0,11.61,0,17.4,0,1.91-.72,4.04-1.21,6.09-1.2,2.06-.04,4.18.46,6.09,1.2,2.29,0,4.67,0,6.96,0,.77,0,1.84,0,2.61,0,.77-.29,1.81-.71,2.61-.91,2.24-.57,4.72-.56,6.96.04.79.21,1.82.65,2.61.87,2.28,0,4.67,0,6.96,0,3.74-.11,7.59.23,11.31-.15,5.55-5.1,13.79-6.09,20.88-4.17,3.95.89,7.52,3.02,11.31,4.32,6.08,0,12.19,0,18.27,0,.96-.51,1.83-1.71,2.61-2.44,1.54-1.48,3.38-2.89,5.22-3.98,7.84-4.82,18.05-4.92,26.1-.54,14.09,8.1,2.18,6.93,20.88,6.96"/><path class="b" d="M8.58,150.18c8.98.01,17.99-.02,26.97,0,4.62,0,9.3,0,13.92,0,1.07-.27,2.38-.42,3.48-.41,1.1,0,2.39.26,3.48.41,1.69,0,3.53,0,5.22,0,4.91,0,9.87,0,14.79,0,6.15-5.78,14.63-7.16,22.62-4.91,4.25,1.07,8.16,3.23,12.18,4.91,5.49,0,11.03,0,16.53,0,13.58-14.89,31.33-13.79,45.23,0h10.44"/><path class="b" d="M8.58,148.05h66.98c5.26-5.61,13.49-7.47,20.88-5.94,4.92.92,9.5,3.17,13.92,5.44.69.51,1.79.53,2.61.49,1.09,0,2.39,0,3.48,0,3.46,0,6.98,0,10.44,0,1.28-.78,2.32-2.29,3.48-3.24,1.82-1.64,3.94-3.16,6.09-4.35,13.03-7.3,27.37-2.7,37.4,7.38,1.06.34,2.38.17,3.48.2,1.99,0,4.1,0,6.09,0"/><path class="b" d="M8.58,145.92c21.74,0,43.5,0,65.24,0,1.01.21,2.02-.61,2.61-1.34.72-.68,1.78-1.52,2.61-2.05,4.58-2.97,10.31-3.85,15.66-3.04,3.62.53,7.16,1.8,10.44,3.41,1.1.54,2.41,1.23,3.48,1.83,1.01.6,2.24,1.38,3.48,1.19,4.91-.05,9.88.09,14.79-.06,9.2-10.7,23.65-14.63,36.53-8.26,2.75,1.31,5.42,3.03,7.83,4.9,1.46,1.01,2.77,2.6,4.35,3.41,2.58,0,5.25,0,7.83,0"/><path class="b" d="M8.58,143.49c1.03.48,2.38.25,3.48.3,1.7,0,3.52,0,5.22,0,4.91,0,9.87,0,14.79,0,14.2,0,28.42,0,42.62,0,.97-.42,1.81-1.6,2.61-2.25,1.01-.85,2.31-1.71,3.48-2.31,9.41-4.81,20.48-1.2,28.71,4.41,2.84.34,5.83.05,8.7.14,2.86-.11,5.87.25,8.7-.18,7.94-9.04,20.44-13.76,32.18-10.08,6.6,1.84,12.14,6.06,17.4,10.26h6.96"/><path class="b" d="M8.58,139.36c1.43.67,2.99,1.5,4.35,2.3,1.99,0,4.1,0,6.09,0,4.62,0,9.3,0,13.92,0,6.95,0,13.93,0,20.88,0,2.58,0,5.25,0,7.83,0,1.71.05,3.54-.01,5.22-.34.79-.06,1.86.04,2.61.31,1.99.01,4.1.09,6.09-.04,4.34-5.76,12.31-7.52,19.14-6.24,5.09.87,9.71,3.41,13.92,6.3h18.27c9.99-11.12,24.68-14.81,38.27-8.03,4.07,1.97,7.85,4.64,11.31,7.55.67.58,1.78.5,2.61.48,1.39,0,2.96,0,4.35,0"/><path class="b" d="M8.58,135.56c1.73.69,3.57,1.5,5.22,2.37,1.11.48,2.23,1.57,3.48,1.59,7.24,0,14.51,0,21.75,0,5.2,0,10.45,0,15.66,0,2.29,0,4.67,0,6.96,0,1.41-.36,2.89-1.1,4.35-1.28,1.08-.17,2.41-.2,3.48.09.83.23,1.83.86,2.61,1.2,1.39-.09,3.04.26,4.35-.31,4.97-6.5,14.46-7.35,21.75-4.76,2.43.84,4.83,2.07,6.96,3.5.77.49,1.69,1.37,2.61,1.57,1.09,0,2.39,0,3.48,0,2.87,0,5.83,0,8.7,0,2.29,0,4.67,0,6.96,0,1-.33,1.85-1.5,2.61-2.17,1.57-1.47,3.41-2.92,5.22-4.08,14.55-9.4,30.38-4.54,42.62,6.18,1.98.17,4.1.04,6.09.08"/><path class="b" d="M8.58,132.04c2.65.92,5.34,2.03,7.83,3.33,1.68.73,3.28,2.26,5.22,2.02,11.3,0,22.62,0,33.92,0,1.39,0,2.96,0,4.35,0,2.91-1.48,6.25-2.79,9.57-2.24,1.63.23,2.98,1.45,4.35,2.24,1.09-.03,2.41.1,3.48-.15,6.89-9.04,21-6.59,28.71.12,7.24.07,14.51,0,21.75.03,15.32-15.34,33.8-13.81,49.58-.01,1.99.03,4.1,0,6.09.01"/><path class="b" d="M8.58,128.78c4.85,1.45,9.46,3.68,13.92,6.03.96.73,2.36.39,3.48.46,1.69,0,3.52,0,5.22,0,5.49,0,11.03,0,16.53,0,3.46,0,6.98,0,10.44,0,1.99-.84,3.97-2.03,6.09-2.55,3.18-.98,6.95-.95,9.57,1.35.3.44,1.2,1.11,1.74,1.2.77,0,1.84,0,2.61,0,4.56-5.67,12.56-6.65,19.14-4.3,1.79.62,3.63,1.53,5.22,2.57,1.06.62,2.13,1.96,3.48,1.73,7.53,0,15.09,0,22.62,0,1.25-.75,2.33-2.16,3.48-3.06,1.58-1.33,3.41-2.6,5.22-3.6,8.73-5,19.73-4.9,28.71-.56,3.77,1.77,7.38,4.11,10.44,6.94.73.35,1.82.28,2.61.28,1.39,0,2.96,0,4.35,0"/><path class="b" d="M8.58,125.75c5.77,1.57,11.2,4.23,16.53,6.9.97.69,2.36.46,3.48.49,1.99,0,4.1,0,6.09,0,5.49,0,11.03,0,16.53,0,1.39,0,2.96,0,4.35,0,.43,0,1.31,0,1.74,0,.43-.24,1.31-.73,1.74-.97,5.56-2.98,12.97-4.85,17.4.97,1.09-.03,2.41.11,3.48-.17,4.23-5.42,12.35-5.59,18.27-3.13,1.83.75,3.69,1.85,5.22,3.11,2.53.44,5.26.08,7.83.19,4.04,0,8.14,0,12.18,0,1.39,0,2.95,0,4.35,0,.81,0,1.89.09,2.61-.36,12.35-13.26,32.72-12.04,45.23.32,2.58.1,5.25.02,7.83.04"/><path class="b" d="M8.58,122.94c4.5,1.15,8.85,2.96,13.05,4.93,1.4.65,2.96,1.39,4.35,2.07,1.04.52,2.27,1.24,3.48,1.07,5.49,0,11.03,0,16.53,0,3.46,0,6.98,0,10.44,0,4.56-2.21,9.51-5.08,14.79-4.11,1.51.31,3.1,1.02,4.35,1.93.82.59,1.68,1.73,2.61,2.18.78,0,1.83,0,2.61,0,.56-.13,1.38-.81,1.74-1.25.71-.6,1.76-1.26,2.61-1.64,5.76-2.5,12.53-.76,17.4,2.89h28.71c6.89-7.55,17.94-10.7,27.84-8.3,5.49,1.33,10.93,3.94,14.79,8.14,1.96.35,4.1.08,6.09.16,1.11-.18,2.35-.71,3.48-.79"/><path class="b" d="M8.58,120.34c7.32,1.8,14.12,5.25,20.88,8.5,3.46.08,6.98,0,10.44.03,5.2,0,10.45,0,15.66,0,.88.16,1.9-.43,2.61-.89,1.34-.77,2.91-1.53,4.35-2.1,6.08-2.57,12.02-2.26,16.53,2.99,1.4-.11,3.08.31,4.35-.37,1.64-1.53,3.89-2.42,6.09-2.7,2.93-.37,6.01.17,8.7,1.36,1.15.44,2.27,1.45,3.48,1.71,4.33,0,8.72,0,13.05,0,3.75,0,7.56,0,11.31,0,1.39,0,2.96,0,4.35,0,.81,0,1.89.09,2.61-.35,10.33-10.64,28.92-10.17,39.14.35,1.39,0,2.95,0,4.35,0,2.07-1.22,4.54-1.97,6.96-1.98"/><path class="b" d="M8.58,117.95c7.33,1.74,14.14,5.18,20.88,8.46,1.29.62,2.95.24,4.35.34,1.99,0,4.1,0,6.09,0,5.78-.03,11.61.07,17.4-.04,7.23-4.7,16.1-7.43,22.62-.03,1.68.06,3.57.24,5.22-.12.72-.54,1.76-1.12,2.61-1.41,3.7-1.27,7.9-.63,11.31,1.18,1.25.76,2.95.3,4.35.41,2.58,0,5.25,0,7.83,0,7.53,0,15.09,0,22.62,0,1.5-.87,2.82-2.35,4.35-3.19,2.64-1.63,5.66-2.77,8.7-3.34,7.54-1.34,16.37.26,21.75,6.04.42.33,1.19.61,1.74.5.78,0,1.85.05,2.61-.16.7-.56,1.78-1.16,2.61-1.49,2.46-.92,5.2-1.43,7.83-1.3"/><path class="b" d="M8.58,115.76c7.7,1.69,14.62,5.7,21.75,8.85,3.75,0,7.56,0,11.31,0,5.2,0,10.45,0,15.66,0,1.28.19,2.4-1.01,3.48-1.53,1.34-.75,2.9-1.47,4.35-1.99,5.33-2.26,11.79-.77,15.66,3.52,1.99,0,4.1,0,6.09,0,2.15-.99,4.59-1.52,6.96-1.2,1.45.16,3.01.65,4.35,1.2,2.58,0,5.25,0,7.83,0,5.79,0,11.61,0,17.4,0,4.04,0,8.14,0,12.18,0,1.48-.77,2.83-2.12,4.35-2.84,6.34-3.37,14.32-3.77,20.88-.77,1.57.73,3.2,1.84,4.35,3.15.94.73,2.37.39,3.48.46,3.95-3.33,9.79-4.01,14.79-3.7"/><path class="b" d="M8.58,113.78c6.75,1.57,13.02,4.73,19.14,7.9,1.51,1.12,3.47.77,5.22.81,2.29,0,4.67,0,6.96,0,6.66,0,13.35,0,20.01,0,6.79-4.87,14.11-6.21,20.88-.5.94.78,2.35.43,3.48.5,1.99-.02,4.1.05,6.09-.04,1.67-.38,3.55-.32,5.22.04,1.09,0,2.39,0,3.48,0,10.14,0,20.3,0,30.45,0,2.58,0,5.25,0,7.83,0,.53.03,1.37-.39,1.74-.75.73-.48,1.81-1.06,2.61-1.42,3.24-1.43,6.91-2.02,10.44-1.7,2.75.26,5.61,1.07,7.83,2.77.99,1.37,2.86,1.15,4.35,1.06,4.34-4.22,13.36-4.8,19.14-4.2"/><path class="b" d="M8.58,111.99c4.54,1.07,8.9,2.93,13.05,5.02,1.41.71,2.97,1.52,4.35,2.28.44.24,1.3.73,1.74.97.44.07,1.3.11,1.74.09,4.33,0,8.72,0,13.05,0,4.33,0,8.72,0,13.05,0,1.39,0,2.96,0,4.35,0,.82.01,1.91.1,2.61-.41,6.36-4.66,12.93-4.27,19.14.41,17.97,0,35.96,0,53.93,0,1.69,0,3.53,0,5.22,0,2.67-1.32,5.72-2.04,8.7-1.85,2.18.04,4.16.95,6.09,1.85,1.09,0,2.39,0,3.48,0,6.11-5.03,16.77-5.57,24.36-4.59"/><path class="b" d="M8.58,110.4c6.2,1.52,11.94,4.54,17.4,7.77,12.75.13,25.52,0,38.27.05,4.44-3.5,9.8-3.84,14.79-1.3.79.38,1.74,1.11,2.61,1.3,1.7,0,3.52,0,5.22,0,4.04,0,8.14,0,12.18,0,18.26-.04,36.54.08,54.8-.04,8.3-5.53,19.95-6.17,29.58-4.67"/><path class="b" d="M8.58,109.01c3.3.87,6.55,2.19,9.57,3.79,2.06.95,3.97,2.52,6.09,3.29,5.79,0,11.61,0,17.4,0,1.7-.01,3.52.03,5.22-.03,1.95-.48,4.07-.77,6.09-.73,1.75-.05,3.52.56,5.22.76,1.4,0,2.95,0,4.35,0,1.4,0,2.95,0,4.35,0,.77-.43,1.78-1.04,2.61-1.34,2.5-.88,5.33-.7,7.83.08.8.25,1.86.69,2.61,1.08.76.24,1.82.19,2.61.19,16.81,0,33.64,0,50.45,0,3.75,0,7.56,0,11.31,0,1.69-.07,3.56.19,5.22-.18,1.06-.56,2.37-1.18,3.48-1.66,9.5-4.11,20.34-4.72,30.45-2.79"/><path class="b" d="M8.58,107.83c3.33.95,6.59,2.39,9.57,4.16,1.12.6,2.28,1.56,3.48,1.97,1.4,0,2.95,0,4.35,0,4.62,0,9.3,0,13.92,0,1.99,0,4.1,0,6.09,0,1.38-.42,2.93-.82,4.35-1.04,2.27-.36,4.69-.42,6.96-.02,1.13.2,2.42.63,3.48,1.06,1.09,0,2.39,0,3.48,0,1.99,0,4.1,0,6.09,0,1.07-.3,2.36-.6,3.48-.61,1.42-.04,2.97.29,4.35.61,1.09,0,2.39,0,3.48,0,17.97,0,35.96,0,53.93,0,17-.03,6.48.81,20.88-3.86,8.72-2.5,18.15-2.4,26.97-.46"/><path class="b" d="M8.58,106.84c2.06.67,4.19,1.53,6.09,2.57,1.46.67,2.8,1.98,4.35,2.41,7.82,0,15.67,0,23.49,0,1.1,0,2.39,0,3.48,0,1.43-.22,2.92-.88,4.35-1.13,4-.86,8.4-.86,12.18.87,1.04.44,2.38.22,3.48.27,1.99,0,4.1,0,6.09,0,5.49,0,11.03,0,16.53,0,15.94,0,31.9,0,47.84,0,15.7.04,6.01.55,19.14-3.79,9.01-2.65,18.79-2.23,27.84.03"/><path class="b" d="M8.58,106.05c2.42.88,4.85,2.07,6.96,3.55,1.09.15,2.38.07,3.48.09,8.11,0,16.25,0,24.36,0,1.4,0,2.95,0,4.35,0,1.09-.37,2.36-.82,3.48-1.1,4.88-1.26,9.3-.79,13.92,1.1,24.93,0,49.88,0,74.81,0,2.28,0,4.67,0,6.96,0,1.26.19,2.39-.98,3.48-1.45,1.62-.83,3.47-1.56,5.22-2.1,9.02-2.73,18.87-1.92,27.84.62"/><path class="b" d="M8.58,105.44c1.46.57,2.92,1.5,4.35,2.13,1.4,0,2.95,0,4.35,0,4.04,0,8.14,0,12.18,0,5.2,0,10.45,0,15.66,0,1.7-.04,3.53.1,5.22-.09,1.35-.54,2.91-.98,4.35-1.22,2.27-.38,4.7-.39,6.96.04,1.45.22,2.93.93,4.35,1.27,4.62,0,9.3,0,13.92,0,21.74,0,43.5,0,65.24,0,1.69-.09,3.57.22,5.22-.21,2.31-1.64,5.09-2.7,7.83-3.39,5.68-1.41,11.68-1.18,17.4-.11,2.6.53,5.36.95,7.83,1.95"/><path class="b" d="M8.58,104.96c.98.72,2.35.41,3.48.47,1.7,0,3.52,0,5.22,0,5.5,0,11.03,0,16.53,0,6.37,0,12.77,0,19.14,0,2.27-.45,4.61-1.18,6.96-1,1.73.06,3.58.4,5.22.98,4.33.07,8.72,0,13.05.03,9.85,0,19.72,0,29.58,0,7.24,0,14.51,0,21.75,0,1.12.05,2.44,0,3.48-.48,1.36-.44,2.93-.79,4.35-.96,3.21-.37,6.66-.06,9.57,1.44,1.69,0,3.53,0,5.22,0,1.26.19,2.37-1,3.48-1.43,1.89-.88,4.04-1.46,6.09-1.78,4.61-.72,9.38-.26,13.92.74,2.61.64,5.39,1.15,7.83,2.3"/><path class="b" d="M8.58,103.3c7.82,0,15.67,0,23.49,0,2.52-.76,5.17-1.43,7.83-1.3,1.42.04,2.98.27,4.35.66.8.22,1.76.75,2.61.64,5.79,0,11.61,0,17.4,0,12.75,0,25.52,0,38.27,0,8.11,0,16.25,0,24.36,0,.86.15,1.87-.42,2.61-.78.75-.34,1.83-.76,2.61-1.02,2.49-.83,5.2-1.29,7.83-1.33,2.62-.03,5.35.35,7.83,1.24,1.16.42,2.48,1.08,3.48,1.8.76.12,1.84.09,2.61.09,1.73-.05,3.68.3,5.22-.69,2.16-.91,4.62-1.3,6.96-1.36,3.82-.1,7.66.66,11.31,1.73,1.91.62,4.11.21,6.09.32"/><path class="b" d="M8.58,101.17c6.66,0,13.35,0,20.01,0,1.49-.11,2.89-1.22,4.35-1.56,2.22-.72,4.63-1.11,6.96-1.13,2.63-.02,5.35.42,7.83,1.31,1.41.44,2.8,1.57,4.35,1.38,12.17,0,24.36,0,36.53,0,11.88,0,23.78,0,35.66,0,1.53-.24,2.89-1.5,4.35-2.01,2.46-1.1,5.16-1.88,7.83-2.26,4.64-.67,9.5-.25,13.92,1.33,1.13.41,2.44,1,3.48,1.6,1.04.66,2.11,1.57,3.48,1.34,8.69,0,17.41,0,26.1,0"/><path class="b" d="M8.58,99.04c6.08,0,12.19,0,18.27,0,2.54-1.1,5.07-2.52,7.83-3.04,3.69-.85,7.6-.88,11.31-.13,3.06.51,5.89,1.95,8.7,3.17,8.11,0,16.25,0,24.36,0,13.62,0,27.26,0,40.88,0,.42,0,1.32,0,1.74,0,1.18-.38,2.38-1.29,3.48-1.84,2.17-1.17,4.58-2.14,6.96-2.8,9.33-2.58,19.89-1,27.84,4.6,7.82.12,15.67,0,23.49.04"/><path class="b" d="M8.58,96.91c3.75,0,7.56,0,11.31,0,1.98-.12,4.17.29,6.09-.25,2.65-1.65,5.65-2.86,8.7-3.53,4.27-.94,8.79-.87,13.05.09,3.33.74,6.58,2.06,9.57,3.69,7.82,0,15.67,0,23.49,0,12.46,0,24.94,0,37.4,0,.91.19,1.86-.58,2.61-1,.76-.44,1.83-1.02,2.61-1.42,2.47-1.3,5.14-2.42,7.83-3.17,7.97-2.29,16.66-1.68,24.36,1.35,1.74.68,3.58,1.54,5.22,2.45,1.36.67,2.72,2.03,4.35,1.8,6.08,0,12.19,0,18.27,0"/><path class="b" d="M8.58,94.78h15.66c9.63-6.36,21.92-6.27,32.18-1.47,1.1.45,2.31,1.21,3.48,1.47.78,0,1.83,0,2.61,0,2.87,0,5.83,0,8.7,0,15.07,0,30.16,0,45.23,0,13.4-8.46,27.88-10.77,42.62-4.22,2.68,1.17,5.35,2.64,7.83,4.2,5.49.08,11.03,0,16.53.03"/><path class="b" d="M8.58,92.65c4.91-.03,9.88.06,14.79-.04,11.69-7.71,25.4-6.18,37.4-.1,2.26.31,4.68.06,6.96.14,4.04,0,8.14,0,12.18,0,11.01,0,22.04,0,33.05,0,.88.16,1.9-.43,2.61-.89.76-.44,1.83-1.02,2.61-1.43,2.8-1.44,5.75-2.78,8.7-3.86,11.54-4.4,24.73-3.37,35.66,2.27,2.37,1.12,4.66,2.65,6.96,3.91,4.62,0,9.3,0,13.92,0"/><path class="b" d="M8.58,90.52h13.92c9.54-6.24,21.63-6.91,32.18-2.99,2.33.82,4.7,1.84,6.96,2.86,3.73.32,7.57.04,11.31.13,8.4,0,16.83,0,25.23,0,4.33,0,8.72,0,13.05,0,.89.16,1.89-.46,2.61-.91,1.37-.79,2.93-1.62,4.35-2.32,4.44-2.17,9.1-4.07,13.92-5.24,14.1-3.54,27.42.37,39.14,8.47h12.18"/><path class="b" d="M8.58,88.39c4.04,0,8.14,0,12.18,0,.89.12,1.9-.29,2.61-.79.78-.44,1.81-.99,2.61-1.37,2.47-1.16,5.16-2.05,7.83-2.6,4.85-1,9.94-.91,14.79.07,2.95.59,5.9,1.53,8.7,2.63,1.72.61,3.45,1.61,5.22,2.05,5.79,0,11.61,0,17.4,0,7.24,0,14.51,0,21.75,0,3.16,0,6.4,0,9.57,0,2.27-1.26,4.61-2.66,6.96-3.78,14.34-7.15,29.51-9.5,44.36-2.31,13.95,6.86,3.94,6.14,20.88,6.09"/><path class="b" d="M8.58,86.26c2.87,0,5.83,0,8.7,0,1.1,0,2.38,0,3.48,0,.51.09,1.32-.13,1.74-.42,2.43-1.43,5.12-2.61,7.83-3.42,7.35-2.23,15.33-1.84,22.62.44,2.03.62,4.13,1.41,6.09,2.22.78.32,1.83.78,2.61,1.11.78.09,1.83.07,2.61.07,12.17,0,24.36,0,36.53,0,3.46,0,6.98,0,10.44,0,1.99-1.17,4.03-2.51,6.09-3.56,6.79-3.51,14.14-6.22,21.75-7.22,9.97-1.32,20.25,1.25,28.71,6.61,1.11.7,2.43,1.59,3.48,2.39.74.56,1.72,1.47,2.61,1.79,3.16,0,6.4,0,9.57,0"/><path class="b" d="M8.58,84.12c3.75,0,7.56,0,11.31,0,.45,0,1.29,0,1.74,0,1.4-.68,2.91-1.56,4.35-2.16,3.3-1.42,6.87-2.34,10.44-2.72,7.74-.86,15.53,1.03,22.62,4.07.77.31,1.75.87,2.61.8,1.69,0,3.53,0,5.22,0,3.75,0,7.56,0,11.31,0,11.3,0,22.62,0,33.92,0,2.29-1.43,4.53-3.15,6.96-4.37,3.86-2.06,8.03-3.63,12.18-4.98,9.87-3.25,20.9-3.15,30.45,1.13,3.04,1.32,6.01,3.02,8.7,4.96,1.47.95,2.8,2.46,4.35,3.26,2.87,0,5.83,0,8.7,0"/><path class="b" d="M8.58,81.99c4.33,0,8.72,0,13.05,0,1.75-.61,3.45-1.72,5.22-2.32,3.32-1.27,6.89-2.05,10.44-2.29,7.48-.55,14.93,1.42,21.75,4.4,2.23.48,4.68.1,6.96.21,4.04,0,8.14,0,12.18,0,11.88,0,23.78,0,35.66,0,4.23-3.88,9.46-6.41,14.79-8.41,7.94-3.19,16.76-4.72,25.23-2.96,5.26,1.04,10.31,3.21,14.79,6.14,9.07,6.08,3.05,5.23,14.79,5.23"/><path class="b" d="M8.58,79.86c4.62-.04,9.3.08,13.92-.05,5.81-3.14,12.56-4.5,19.14-4.07,3.53.22,7.08.96,10.44,2.03,2.04.54,4.03,1.69,6.09,2.09,3.75,0,7.56,0,11.31,0,7.24,0,14.51,0,21.75,0,2.87-.45,5.77-1.37,8.7-1.51,2.88-.22,5.92-.15,8.7.71.43.14,1.33.51,1.74.73,1.69.14,3.53.04,5.22.07,1.51-1.03,2.77-2.7,4.35-3.66,2.39-1.69,5.17-2.91,7.83-4.11,8.09-3.73,17.22-5.82,26.1-4.13,5.26.95,10.32,3.07,14.79,5.98,2.46,1.6,4.88,3.52,6.96,5.59,1.01.53,2.38.28,3.48.33,1.39,0,2.96,0,4.35,0"/><path class="b" d="M8.58,77.73c3.17,0,6.4,0,9.57,0,1.69-.06,3.55.15,5.22-.14.45-.21,1.29-.61,1.74-.79,6.82-2.89,14.55-3.33,21.75-1.73,2.03.44,4.14,1.07,6.09,1.78,1.07.38,2.31,1.02,3.48.89,8.4,0,16.83,0,25.23,0,1.39-.02,2.96.06,4.35-.07,2.5-1.03,5.19-1.88,7.83-2.47,6.56-1.34,15.52-2.24,20.88,2.54,1.1-.05,2.44.18,3.48-.28,2.08-3.06,5.48-4.91,8.7-6.54,3.06-1.59,6.28-3.05,9.57-4.09,14.45-4.85,29.6-.01,40.01,10.76,2.26.32,4.68.06,6.96.14"/><path class="b" d="M8.58,75.6c4.91,0,9.87,0,14.79,0,1.17-.02,2.37-.81,3.48-1.12,1.66-.57,3.49-1.03,5.22-1.31,3.14-.52,6.41-.58,9.57-.23,3.55.4,7.1,1.33,10.44,2.61,2.28.13,4.67.02,6.96.06,4.91,0,9.87,0,14.79,0,2.87-.09,5.86.2,8.7-.15,6.93-3.53,14.83-5.4,22.62-4.93,4.35.36,9.29,1.3,12.18,4.86.75.28,1.82.22,2.61.22,1.65-2.64,4.31-4.48,6.96-6.02,3.8-2.32,7.89-4.31,12.18-5.55,1.95-.57,4.07-1,6.09-1.23,1.69-.07,3.53-.02,5.22-.03,10.36-.14,19.8,5.77,26.97,12.83h6.09"/><path class="b" d="M8.58,73.47c5.5,0,11.03,0,16.53,0,3.63-1.24,7.45-2.13,11.31-2.1,2.6-.02,5.29.29,7.83.87,1.72.27,3.47,1.26,5.22,1.23,10.14,0,20.3,0,30.45,0,7.5-4.59,16.44-6.91,25.23-6.32,5.41.4,11.3,1.85,14.79,6.32h1.74c5.59-6.68,14.88-11.56,23.49-12.83,3.16,0,6.4,0,9.57,0,2.97.43,5.95,1.33,8.7,2.53,3.77,1.65,7.31,3.97,10.44,6.63,5.08,4.52,2.59,3.61,9.57,3.67"/><path class="b" d="M8.58,71.34c6.08,0,12.19,0,18.27,0,2.83-.68,5.77-1.28,8.7-1.23,2.92-.03,5.87.55,8.7,1.23,5.2,0,10.45,0,15.66,0,4.04,0,8.14,0,12.18,0,1.39,0,2.96,0,4.35,0,.81,0,1.9.1,2.61-.4,8.04-5.52,18.17-7.89,27.84-6.7,5.42.77,11.47,2.41,14.79,7.1h1.74c.59-.25,1.41-1.21,1.74-1.75.72-.85,1.77-1.92,2.61-2.65,4.02-3.47,8.83-6.1,13.92-7.6,3.35-1.19,6.96-.78,10.44-.84,1.39.02,2.96-.06,4.35.06,2.04.38,4.16,1.01,6.09,1.77,6.01,2.34,11.16,6.46,15.66,11h5.22"/><path class="b" d="M8.58,69.21c5.2,0,10.45,0,15.66,0,3.29.07,6.31-.04,9.57-.29,9.25.54,18.56.21,27.84.29,3.46,0,6.98,0,10.44,0,1.39,0,2.96,0,4.35,0,.94.19,1.92-.58,2.61-1.13,8.18-5.91,18.79-8.11,28.71-6.51,5.8.94,11.74,3.07,15.66,7.64h1.74c1.13-.49,1.78-2.1,2.61-2.94,1.73-1.95,3.9-3.68,6.09-5.08,3.69-2.32,7.86-4.12,12.18-4.81,1.99,0,4.1,0,6.09,0,1.99.08,4.14-.21,6.09.25,7.8,1.79,14.62,6.61,20.01,12.41,1.66.35,3.53.1,5.22.17"/><path class="b" d="M8.58,67.08c17.68,0,35.38,0,53.06,0,3.46,0,6.98,0,10.44,0,1.09,0,2.39,0,3.48,0,.92.13,2.01-.23,2.61-.95,8.62-7.05,20.57-9.17,31.32-6.75,5.36,1.28,11.06,3.28,14.79,7.53.76.22,1.83.17,2.61.17,2.92-4.57,7.29-8.09,12.18-10.36,2.19-1.03,4.59-1.86,6.96-2.36,1.38-.22,2.95-.08,4.35-.12,2.29,0,4.67,0,6.96,0,2.37.34,4.76,1.18,6.96,2.13,3.82,1.69,7.35,4.14,10.44,6.93,4.53,4.11,2.23,3.86,8.7,3.77"/><path class="b" d="M8.58,64.95c17.68,0,35.38,0,53.06,0,3.46,0,6.98,0,10.44,0,1.39,0,2.96,0,4.35,0,.53-.16,1.37-.79,1.74-1.19,8.71-7.56,21.25-9.35,32.18-6.39,5.31,1.49,10.83,3.59,14.79,7.57.77.03,1.83.02,2.61.02.99-.77,1.78-2.31,2.61-3.23,1.49-1.71,3.35-3.31,5.22-4.59,4.35-2.85,9.47-5.31,14.79-5.02,2.58.05,5.26-.1,7.83.08,2.37.48,4.77,1.29,6.96,2.32,3.49,1.65,6.74,3.96,9.57,6.57,4.54,4.19,2.14,3.95,8.7,3.87"/><path class="b" d="M8.58,62.82c13.33,0,26.68,0,40.01,0,1.99-.13,4.1-.35,6.09-.02,2.29.04,4.67,0,6.96.02,3.46,0,6.98,0,10.44,0,1.39,0,2.96,0,4.35,0,.55-.14,1.38-.79,1.74-1.22,8.32-7.65,20.66-9.37,31.32-6.41,5.56,1.55,11.14,3.83,15.66,7.48,1.07.24,2.39.12,3.48.14,1.52-1.48,2.7-3.6,4.35-4.98,3.67-3.4,8.21-5.96,13.05-7.28,2.79-.9,5.81-.5,8.7-.58,9.2-.36,17.75,5.94,23.49,12.66,1.66.36,3.53.1,5.22.18"/><path class="b" d="M8.58,60.69c11.3,0,22.62,0,33.92,0,1.46.16,2.96-.33,4.35-.7,1.67-.38,3.51-.58,5.22-.55,1.41.02,2.98.21,4.35.55,1.08.27,2.34.83,3.48.71,5.78-.09,11.63.19,17.4-.11,8.92-9.49,23.08-10.59,34.79-6.18,3.29,1.17,6.55,2.68,9.57,4.43.79.46,1.86,1.13,2.61,1.65,1.64.45,3.53.13,5.22.22,4.46-6.42,11.45-11.11,19.14-12.61,2.84-.46,5.83-.12,8.7-.22,8.37,1.14,15.66,6.38,20.88,12.83h5.22"/><path class="b" d="M8.58,58.55c10.43,0,20.88,0,31.32,0,.45,0,1.3,0,1.74,0,.8-.21,1.83-.66,2.61-.92,1.93-.64,4.06-1.07,6.09-1.2,3.56-.24,7.28.38,10.44,2.08,3.45.11,6.98.01,10.44.05,1.99,0,4.1,0,6.09,0,.94-.39,1.83-1.46,2.61-2.09,4.37-3.67,9.98-5.81,15.66-6.19,6.92-.5,13.79,1.5,20.01,4.41,1.73.81,3.57,1.76,5.22,2.72.74.41,1.7,1.21,2.61,1.15,1.39,0,2.96,0,4.35,0,.8,0,1.9.09,2.61-.37,6.42-8.85,17.81-14.22,28.71-12.08,7.92,1.52,13.97,6.54,19.14,12.45h5.22"/><path class="b" d="M8.58,56.31c10.12.31,20.31.01,30.45.11,1.55.19,2.95-.87,4.35-1.34,2.2-.82,4.61-1.38,6.96-1.56,2.91-.23,5.94.09,8.7,1.06.8.29,1.86.76,2.61,1.17.41.3,1.23.67,1.74.67,2.87,0,5.83,0,8.7,0,1.99,0,4.1,0,6.09,0,.92-.41,1.83-1.44,2.61-2.05,4.39-3.54,10.04-5.44,15.66-5.52,8.09-.16,15.76,3.21,22.62,7.23,1.29.64,2.96.24,4.35.35,2.28,0,4.67,0,6.96,0,8.37-10.53,21.96-16.36,34.79-10.36,3.18,1.45,6.16,3.54,8.7,5.94,1.53,1.28,2.72,3.28,4.35,4.42h5.22"/><path class="b" d="M8.58,54.09c1.06.34,2.38.17,3.48.21,1.99,0,4.1,0,6.09,0,5.49,0,11.03,0,16.53,0,1.69-.04,3.53.09,5.22-.08,2.38-1.45,5.11-2.49,7.83-3.07,3.41-.72,7.05-.74,10.44.12,1.46.37,3.03.99,4.35,1.71.77.41,1.7,1.23,2.61,1.32,4.91-.02,9.88.04,14.79-.03,8.62-8.25,21.32-7.76,31.32-2.35,1.43.7,2.92,1.67,4.35,2.37,3.75,0,7.56,0,11.31,0,1.09,0,2.39,0,3.48,0,.57-.2,1.39-1.02,1.74-1.51.74-.82,1.8-1.9,2.61-2.65,4.35-4.02,9.77-7.11,15.66-8.09,8.15-1.46,16.58,1.68,22.62,7.16,1.16,1.04,2.47,2.38,3.48,3.57,0,0,.87,1.06.87,1.06l.87.45c1.69,0,3.53,0,5.22,0"/><path class="b" d="M8.58,51.92c1.34.45,2.96.17,4.35.24,2.29,0,4.67,0,6.96,0,6.66,0,13.35,0,20.01,0,7.77-5.14,18.46-5.64,26.1,0,5.2,0,10.45,0,15.66,0,5.79-4.67,13.86-5.9,20.88-3.55,1.77.56,3.6,1.38,5.22,2.28.77.41,1.71,1.18,2.61,1.27,6.95,0,13.93,0,20.88,0,9.59-11.08,22.97-16.51,36.53-8.77,3.67,2.12,6.93,5.07,9.57,8.38.7.48,1.8.4,2.61.39,1.09,0,2.39,0,3.48,0"/><path class="b" d="M8.58,49.75c1.32.53,2.95.2,4.35.28,2.29,0,4.67,0,6.96,0,6.37,0,12.77,0,19.14,0,.45,0,1.3,0,1.74,0,1.12-.53,2.33-1.39,3.48-1.88,2.17-.98,4.59-1.64,6.96-1.93,5.13-.63,10.64.47,14.79,3.66,2.84.36,5.83.05,8.7.15,3.16,0,6.4,0,9.57,0,3.24-1.55,6.79-2.71,10.44-2.37,1.74.12,3.6.53,5.22,1.18,1.09.38,2.26,1.37,3.48,1.2,9.56,0,19.15,0,28.71,0,1.37-.77,2.31-2.5,3.48-3.53,1.55-1.55,3.38-3.06,5.22-4.25,8.04-5.41,18.6-5.84,26.97-.91,3.66,2.07,6.92,4.96,9.57,8.22.67.57,1.79.49,2.61.47,1.09,0,2.39,0,3.48,0"/><path class="b" d="M8.58,47.6c1.03.48,2.38.24,3.48.3,1.4,0,2.95,0,4.35,0,1.99,0,4.1,0,6.09,0,1.1-.18,2.37-.55,3.48-.69,1.98-.27,4.12-.27,6.09.1,1.38.37,2.91.72,4.35.59,1.39,0,2.96,0,4.35,0,.43,0,1.31,0,1.74,0,.47-.15,1.34-.59,1.74-.88,6.7-3.66,15.41-3.45,21.75.88,8.4,0,16.83,0,25.23,0,3.46,0,6.98,0,10.44,0,1.67-.43,3.49-.82,5.22-.81,1.1,0,2.4.11,3.48.34.78.16,1.8.58,2.61.48,6.95,0,13.93,0,20.88,0,.94-.78,1.8-2.22,2.61-3.13,1-1.13,2.29-2.36,3.48-3.29,6.5-5.21,15.61-6.97,23.49-4.13,3.48,1.19,6.76,3.16,9.57,5.54,1.16.98,2.46,2.26,3.48,3.39.33.48,1.22,1.35,1.74,1.61h5.22"/><path class="b" d="M8.58,45.51c1.34.49,2.95.18,4.35.26,2.29,0,4.67,0,6.96,0,1.16.04,2.36-.69,3.48-.91,1.66-.44,3.5-.72,5.22-.79,2.01-.08,4.14.09,6.09.58,1.13.24,2.35.88,3.48,1.13.78,0,1.83,0,2.61,0,1.69-.04,3.54.11,5.22-.1.44-.25,1.28-.69,1.74-.88,2.98-1.25,6.36-1.68,9.57-1.37,1.74.18,3.6.62,5.22,1.29,1.06.47,2.26,1.24,3.48,1.06,8.4,0,16.83,0,25.23,0,6.93-2.22,15.08-4.13,21.75-.15,2.84.37,5.83.06,8.7.15,1.19.1,2.32-.91,3.48-1.1,1.94-.55,4.15-.79,6.09-.12.47.17,1.35.69,1.74,1.01.74.27,1.84.21,2.61.21.61-.37,1.43-1.61,1.74-2.25.69-.99,1.73-2.24,2.61-3.06,3.97-3.74,9.34-6.01,14.79-6.27,6.27-.33,12.48,2.04,17.4,5.85,2.25,1.6,4.07,3.89,6.09,5.72h5.22"/><path class="b" d="M8.58,43.47c1.37.32,2.95.12,4.35.17,1.99,0,4.1,0,6.09,0,2.76-1.14,5.71-2.06,8.7-2.32,4.75-.53,9.6.28,13.92,2.32,2.87,0,5.83,0,8.7,0,2.02-.25,3.96-.97,6.09-.84,1.73,0,3.56.4,5.22.84,1.39,0,2.95,0,4.35,0,3.75,0,7.56,0,11.31,0,2.28-.11,4.73.26,6.96-.2,7.31-1.94,15.03-4.48,22.62-2.64,1.47.37,3.06,1,4.35,1.8.67.52,1.71,1.22,2.61,1.04,1.39,0,2.96,0,4.35,0,.56-.02,1.39-.59,1.74-1,.98-.77,2.3-1.51,3.48-1.92,4.32-1.4,10.5-1.89,13.05,2.69l.87.23.87-.47c3.28-7.9,12.76-11.6,20.88-10.62,7.62.83,14.19,5.47,19.14,11.09h5.22"/><path class="b" d="M8.58,41.48c3.16.07,6.4,0,9.57.03,2.71-1.36,5.7-2.3,8.7-2.73,3.73-.56,7.61-.49,11.31.21,2.71.41,5.28,1.61,7.83,2.52,4.91,0,9.87,0,14.79,0,4.04,0,8.14,0,12.18,0,2.28-.09,4.71.21,6.96-.17,9.5-2.65,22.88-7.35,31.32-.08,1.34.46,2.96.17,4.35.24,1.03-.24,1.8-1.48,2.61-2.08.99-.8,2.31-1.58,3.48-2.08,5.73-2.17,14.83-2.73,17.4,4.16l.87-.23c2.39-7.82,11.55-11.3,19.14-10.53,7.54.7,14.3,5.09,19.14,10.76h5.22"/><path class="b" d="M8.58,39.38c2.87,0,5.83,0,8.7,0,2.27-.88,4.54-2.08,6.96-2.57,5.96-1.46,12.29-1.38,18.27-.06,1.72.38,3.55.91,5.22,1.49.78.27,1.84.67,2.61.99.76.21,1.83.16,2.61.16,7.82,0,15.67,0,23.49,0,10.59-2.94,24.56-8.33,33.92,0h3.48c2.77-3.93,7.48-6.15,12.18-6.62,5.44-.8,12.89.04,14.79,6.12l.87-.08c2.17-7.55,11.09-10.58,18.27-9.72,7.14.81,13.67,4.87,18.27,10.3h5.22"/><path class="b" d="M8.58,37.25c2.58,0,5.25,0,7.83,0,1.23.17,2.36-.93,3.48-1.31,1.64-.7,3.48-1.28,5.22-1.69,9.84-2.36,20.06-.55,29.58,2.39,3.02,1.05,6.41.45,9.57.6,1.99,0,4.1,0,6.09,0,1.39-.05,3,.17,4.35-.24,10.23-2.55,25.26-8.43,33.92.24,3.71.1,2.86.05,5.22-2.47,1.72-1.61,3.89-2.89,6.09-3.74,7.15-2.52,20.41-3.08,22.62,6.21.79-1.41,1.57-3.51,2.61-4.76,2.58-3.03,6.55-4.66,10.44-5.11,8.58-.94,17.13,3.43,22.62,9.87h5.22"/><path class="b" d="M8.58,35.11c2.58,0,5.25,0,7.83,0,1.23.17,2.37-.94,3.48-1.32,2.2-.96,4.61-1.66,6.96-2.14,9.85-2.06,19.95-.34,29.58,2.05,5.66,1.42,11.65,2.05,17.4.78,9.68-2.11,25.13-7.88,33.05.63h2.61c1.26-.88,2.21-2.52,3.48-3.41,4.39-3.53,10.12-4.85,15.66-4.93,4.57-.1,9.7.68,13.05,4.07.62.59,1.41,2.15,1.74,2.93,0,0,.87.66.87.66,1.31-5.44,6.95-8.34,12.18-8.78,8.22-.73,16.4,3.36,21.75,9.46h5.22"/><path class="b" d="M8.58,32.98c2.58,0,5.25,0,7.83,0,1.56.17,2.94-1.08,4.35-1.56,2.21-.91,4.62-1.59,6.96-2.05,9.22-1.86,18.73-.67,27.84,1.3,5.97,1.27,12.18,2.59,18.27,1.26,9.3-1.84,23.71-6.88,31.32,1.05h2.61c1.23-.91,2.22-2.49,3.48-3.37,4.91-3.84,11.27-5.2,17.4-5.24,4.52-.06,9.42.64,13.05,3.52.51.41,1.36,1.39,1.74,1.92.26.67,1.01,2.18,1.74,2.48,1.23-5.07,6.43-7.8,11.31-8.29,8.14-.87,16.31,3.05,21.75,8.98h5.22"/><path class="b" d="M8.58,30.85c2.87,0,5.83,0,8.7,0,.53.1,1.31-.14,1.74-.43.76-.4,1.81-.89,2.61-1.2,1.94-.77,4.05-1.38,6.09-1.81,7.72-1.64,15.75-1.25,23.49.06,7.18,1.09,14.44,3.48,21.75,2.24,9.43-1.56,22.44-6.19,30.45,1.15h2.61c1.3-.73,2.22-2.34,3.48-3.16,3.53-2.65,7.85-4.19,12.18-4.92,7.82-1.01,20.98-1.42,23.49,8.08,2.13-5.38,5.64-7.75,11.31-8.53,8.07-.95,16.2,2.8,21.75,8.53h5.22"/><path class="b" d="M8.58,28.72c3.46,0,6.98,0,10.44,0,3.01-1.51,6.26-2.68,9.57-3.33,4.84-.99,9.86-1.19,14.79-.87,4.66.3,9.33,1.1,13.92,1.94,4.29.75,8.68,1.63,13.05,1.33,8.63-.91,17.43-4.24,26.1-1.77,1.91.44,3.58,1.72,5.22,2.71,1.1-.05,2.46.2,3.48-.32,4.84-5.57,12.9-7.46,20.01-7.83,7.02-.33,17.71,0,20.01,8.15.53-.68,1.39-2.23,1.74-3.02,1.78-2.6,4.82-4.14,7.83-4.81,8.5-1.82,17.39,1.96,23.49,7.84h5.22"/><path class="b" d="M8.58,26.59c2.58,0,5.25,0,7.83,0,1.71-.08,3.69.33,5.22-.62,6.78-3.02,14.41-3.64,21.75-3.19,8.76.4,17.31,3.24,26.1,3.03,6.39-.53,12.67-2.52,19.14-2.27,3.61.13,7.54.68,10.44,3.01,1.39.09,2.96.07,4.35.02,6.15-6.49,16.72-7.61,25.23-7.55,4.83.08,10.17.73,13.92,4.05.97.89,1.71,2.57,2.61,3.54,1.75-5.08,7.1-7.6,12.18-7.9,7.68-.55,15.2,2.89,20.88,7.9h5.22"/><path class="b" d="M8.58,24.46c4.33,0,8.72,0,13.05,0,6.03-2.52,12.6-3.59,19.14-3.3,9.06.18,17.9,2.91,26.97,2.85,6.69-.29,13.26-2.45,20.01-1.93,2.98.19,6.14.73,8.7,2.35,1.69.05,3.53.02,5.22.03,6.02-4.97,14.15-6.3,21.75-6.56,6.63-.03,16.5-.65,20.01,6.25l.87.31c2.3-5.05,7.75-7.39,13.05-7.64,7.66-.46,14.98,2.97,20.88,7.64h5.22"/><path class="b" d="M8.58,22.33c4.91,0,9.87,0,14.79,0,1.74-.26,3.47-1.16,5.22-1.46,2.83-.65,5.8-.96,8.7-1.01,7.02-.16,13.94,1.41,20.88,2.2,3.44.38,6.99.32,10.44.22,5.77-.64,11.55-2.04,17.4-1.54,1.72.13,3.57.42,5.22.92.78.23,1.77.8,2.61.67,1.39,0,2.96,0,4.35,0,.82.01,1.92.1,2.61-.44,6.91-4.37,15.52-4.84,23.49-4.83,5.98.12,13.66-.32,17.4,5.27h.87c.71-.19,1.42-1.29,1.74-1.89.67-.83,1.72-1.83,2.61-2.42,6.4-4.21,14.85-3.78,21.75-1.03,3.44,1.26,6.49,3.43,9.57,5.34,1.69,0,3.53,0,5.22,0"/><path class="b" d="M8.58,20.2c5.79,0,11.61,0,17.4,0,1.43.03,2.93-.66,4.35-.82,2.26-.39,4.66-.56,6.96-.53,4.08.01,8.16.72,12.18,1.36,6.95,0,13.93,0,20.88,0,1.71.08,3.52-.36,5.22-.52,2.27-.26,4.67-.38,6.96-.26,1.71.09,3.56.33,5.22.77,1.69.03,3.53,0,5.22.02,1.09,0,2.39,0,3.48,0,.82.01,1.92.1,2.61-.44,9.47-4.4,20.31-3.21,30.45-2.86,2.03.16,4.2.52,6.09,1.32.86.36,1.93,1.05,2.61,1.69.71.38,1.83.3,2.61.3.6-.2,1.41-1.11,1.74-1.63.95-1.04,2.26-2.07,3.48-2.77,6.86-3.91,15.46-3.5,22.62-.6,3.05,1.21,5.99,2.9,8.7,4.75,1.92.53,4.11.13,6.09.25"/><path class="b" d="M8.58,18.07c27.25,0,54.51,0,81.77,0,1.69,0,3.53.02,5.22-.02.75-.33,1.82-.7,2.61-.93,3.08-.88,6.37-1.23,9.57-1.31,6.97-.13,13.93.95,20.88,1.36,1.42.12,2.97.53,4.35.89,1.99,0,4.1,0,6.09,0,7.21-7.74,19.23-8.7,28.71-4.96,3.37,1.22,6.49,3.15,9.57,4.96,1.99,0,4.1,0,6.09,0"/></svg>