<?xml version="1.0" encoding="UTF-8"?><svg id="a" xmlns="http://www.w3.org/2000/svg" width="1920" height="2400" viewBox="0 0 192 240"><defs><style>.b{fill:none;stroke:#fff;stroke-miterlimit:10;stroke-width:.3px;}.c{stroke-width:0px;}</style></defs><rect class="c" x="0" width="192" height="240"/><path class="b" d="M8.88,222.99c15.12-8.88,33.64-7.67,45.08,6.38,1.98,0,4.08,0,6.07,0,1.68-.2,3.49-.54,5.2-.37,3.43.43,6.94.4,10.4.37,4.9,0,9.84,0,14.74,0,8.06-7.98,24.93-10.18,32.07,0h2.6c3.67-4.03,9.84-4.06,14.74-2.65,1.13.34,2.43.87,3.47,1.42.45.24,1.32.78,1.73,1.07.43.11,1.29.2,1.73.16,6.06,0,12.15,0,18.2,0,1.54-1.07,2.76-2.86,4.33-3.93,3.96-3.11,8.86-4.92,13.87-5.29"/><path class="b" d="M8.88,220.51c14.94-8.83,33.89-7.13,45.08,6.74,1.98,0,4.08,0,6.07,0,2.28-.4,4.59-.83,6.93-.67,1.1.01,2.4.09,3.47.38.74.33,1.81.3,2.6.29,6.63,0,13.3,0,19.94,0,5.07-4.1,11.65-6.46,18.2-5.8,4.74.45,8.19,2.2,11.27,5.8.81,0,1.88.1,2.6-.38.87-1.07,2.19-2.02,3.47-2.53,5.39-2.03,11.91-.94,16.47,2.54,1.28.66,2.94.25,4.33.36,1.98,0,4.08,0,6.07,0,1.39-.22,2.94-.12,4.33,0,1.98,0,4.08,0,6.07,0,4.5-5.49,10.16-8.84,17.34-9.27"/><path class="b" d="M8.88,218.3c14.83-8.89,33.9-6.76,45.08,6.82,2.28,0,4.66,0,6.93,0,2.23-.64,4.63-.91,6.94-.98,2.06-.22,4.11.51,6.07.98,4.03,0,8.11,0,12.14,0,2.86,0,5.81,0,8.67,0,.43.03,1.31-.03,1.73-.12.73-.56,1.8-1.26,2.6-1.71,5.44-3.01,12.32-4.15,18.2-1.78,1.21.5,2.53,1.35,3.47,2.27,0,0,.87,1.02.87,1.02l.87.33c.42,0,1.31,0,1.73,0,1.49-1.43,3.15-2.93,5.2-3.48,5.23-1.57,11.4-.56,15.6,3,.68.58,1.77.5,2.6.48,1.39,0,2.94,0,4.33,0,2.91-1.43,6.46-2.05,9.54-.78,1.51,1.07,3.46.74,5.2.78,1.22-1.07,2.21-2.76,3.47-3.8,3.54-3.23,8.24-5.02,13-5.27"/><path class="b" d="M8.88,216.37c14.81-9.08,33.66-6.56,45.08,6.63,2.57,0,5.23,0,7.8,0,2.8-.7,5.76-1.35,8.67-1.27,1.75.1,3.59.59,5.2,1.27.77,0,1.83,0,2.6,0,7.21,0,14.46,0,21.67,0,6.26-4.12,15.94-5.87,21.67,0h2.6c3.45-4.31,9.65-5.07,14.74-3.78,1.47.38,3.05,1.04,4.33,1.85.81.52,1.76,1.45,2.6,1.93,1.39,0,2.94,0,4.33,0,1.13-.46,2.3-1.34,3.47-1.7,3.71-1.31,8.3-1.11,11.27,1.7,3.9.14,2.93-.08,5.2-2.8,3.31-3.63,8.14-5.61,13-5.8"/><path class="b" d="M8.88,214.71c9.33-6.16,21.77-7.17,32.07-2.93,3.09,1.26,6.08,2.99,8.67,5.09,1.55,1.11,2.78,2.93,4.33,4.01,3.15-.06,6.39.14,9.54-.1,2.51-.72,5.17-1.45,7.8-1.42,2.38-.02,4.71.8,6.93,1.51,2.57,0,5.23,0,7.8,0,5.77,0,11.57,0,17.34,0,.48.02,1.34-.27,1.73-.55,1.04-.51,2.35-1,3.47-1.32,3.99-1.07,8.92-1.16,12.14,1.8,1.08.12,2.38.06,3.47.07,3-3.41,7.71-4.71,12.14-4.3,3.68.25,6.85,1.83,9.54,4.3,1.09,0,2.38,0,3.47,0,1.41-.73,2.77-1.92,4.33-2.38,4.37-1.59,9.66-1.05,13,2.38h2.6c2.99-4.86,8.18-7.76,13.87-7.87"/><path class="b" d="M8.88,213.35c12.62-8.98,31.18-7.12,42.48,3.21.79.66,1.59,1.85,2.6,2.19,1.69,0,3.51,0,5.2,0,1.69,0,3.51,0,5.2,0,2.27-.57,4.57-1.53,6.94-1.66,2.3-.17,4.72.12,6.93.78.78.23,1.82.66,2.6.88.77,0,1.83,0,2.6,0,7.79,0,15.61,0,23.41,0,.42,0,1.31,0,1.73,0,.76-.25,1.82-.63,2.6-.83,2.53-.63,5.37-.73,7.8.33.94.73,2.36.45,3.47.5.41,0,1.32,0,1.73,0,.54-.17,1.37-.84,1.73-1.26,5.71-4.35,14.93-4.04,19.94,1.26,1.09,0,2.38.02,3.47-.03,3.71-3.75,9.89-4.62,14.74-2.8,1.25.5,2.58,1.42,3.47,2.44.98.59,2.4.47,3.47.18,2.44-4.26,7.33-6.57,12.14-6.64"/><path class="b" d="M8.88,212.31c12.95-10.08,32.95-7.25,44.21,4.12,1.65.4,3.52.11,5.2.2,2.57-.01,5.23.02,7.8-.02,2.98-1.31,6.27-2.07,9.54-1.89,2.65.11,5.37.73,7.8,1.8,1.67.23,3.51.06,5.2.11,12.13,0,24.28,0,36.41,0,2.24-1.85,4.9-3.29,7.8-3.73,4.52-.76,9.9.03,13,3.7,1.09.03,2.39.11,3.47-.1,5.04-5.17,15.05-5.36,19.94.13,1.09-.05,2.44.18,3.47-.28,2.26-3.44,6.37-5.21,10.4-5.23"/><path class="b" d="M8.88,211.66c6.17-5.69,15.24-7.52,23.41-6.62,7.73.87,14.9,4.5,20.8,9.46,4.61,0,9.26,0,13.87,0,1.14-.2,2.35-.91,3.47-1.21,2.21-.69,4.62-1.02,6.94-1,2.32.02,4.73.41,6.93,1.12,1.12.28,2.29,1.13,3.47,1.09,3.74,0,7.53,0,11.27,0,8.37,0,16.77,0,25.14,0,.81.01,1.9.1,2.6-.41.99-.77,2.3-1.51,3.47-1.97,3.54-1.4,7.62-1.69,11.27-.55,1.57.49,3.19,1.41,4.33,2.6,1,.55,2.37.28,3.47.34,5.32-5.31,15.55-5.66,20.8-.09,1.38.18,2.95.06,4.33.09,2.18-2.47,5.38-3.85,8.67-3.8"/><path class="b" d="M8.88,211.52c3.41-4.13,8.74-6.28,13.87-7.32,10.4-1.99,21.3,1.61,29.47,8.1,5.18.2,10.42.02,15.6.08.52.1,1.3-.13,1.73-.42.76-.34,1.81-.75,2.6-1,2.21-.7,4.62-1.1,6.94-1.15,3.88-.09,7.83.78,11.27,2.57,1.98,0,4.08,0,6.07,0,8.95,0,17.92,0,26.87,0,1.39,0,2.95,0,4.33,0,1.35-.77,2.85-1.68,4.33-2.17,4.86-1.71,10.77-1.4,14.74,2.17,1.09-.04,2.42.16,3.47-.24,1.17-1.18,2.78-2.1,4.33-2.65,5.44-1.91,12.17-1.19,16.47,2.86,1.98.09,4.08.02,6.07.04.81-.25,1.79-.88,2.6-1.14,1.06-.33,2.37-.48,3.47-.48"/><path class="b" d="M8.88,210.26h.87c12.01-11.3,28.9-8.91,41.61,0,6.06,0,12.15,0,18.2,0,.85-.09,1.82-.68,2.6-1,1.63-.68,3.46-1.24,5.2-1.56,2.83-.53,5.83-.56,8.67-.07,1.74.31,3.58.85,5.2,1.58.78.34,1.72,1.02,2.6,1.05,2.57,0,5.23,0,7.8,0,9.24,0,18.5,0,27.74,0,1.18-.18,2.33-1.09,3.47-1.45,1.9-.72,4.04-1.14,6.07-1.17,2.04-.02,4.22.35,6.07,1.24.8.37,1.7,1.23,2.6,1.38,1.09-.03,2.41.12,3.47-.18,1.42-1.31,3.35-2.19,5.2-2.69,2.8-.73,5.85-.77,8.67-.14,2.14.48,4.3,1.42,6.07,2.71,1.31.54,2.95.2,4.33.29,2.57,0,5.23,0,7.8,0"/><path class="b" d="M8.88,208.14h3.47c10.54-9.53,26.11-7.26,37.27-.05,6.92.13,13.88,0,20.8.05,1.53.12,2.91-1.18,4.33-1.6,2.19-.87,4.59-1.46,6.93-1.67,3.5-.31,7.14.15,10.4,1.47,1.14.45,2.4,1.2,3.47,1.8,1.69,0,3.51,0,5.2,0,7.21,0,14.46,0,21.67,0,3.15,0,6.38,0,9.54,0,.46-.02,1.34-.31,1.73-.55,1.04-.45,2.35-.87,3.47-1.1,2.54-.52,5.31-.5,7.8.29.43.14,1.33.52,1.73.74,0,0,.87.54.87.54,0,0,.87.08.87.08,1.39-.1,3.04.28,4.33-.33,5.44-3.58,12.72-2.71,18.2.33,4.03,0,8.11,0,12.14,0"/><path class="b" d="M8.88,206.01c1.69,0,3.51,0,5.2,0,1.34.22,2.4-1.09,3.47-1.67,1.32-.8,2.87-1.52,4.33-2.02,6.17-2.09,13.02-1.55,19.07.69,1.43.53,2.98,1.22,4.33,1.91.46.22,1.29.69,1.73.93.77.2,1.81.16,2.6.15,7.5,0,15.04,0,22.54,0,.51,0,1.33-.34,1.73-.64,1.05-.58,2.34-1.17,3.47-1.59,3.29-1.21,6.92-1.69,10.4-1.3,2.05.23,4.19.8,6.07,1.67,1.16.46,2.27,1.51,3.47,1.86,4.9,0,9.84,0,14.74,0,6.06,0,12.15,0,18.2,0,1.69,0,3.51,0,5.2,0,1.68-.44,3.45-1.13,5.2-1.26,1.69-.19,3.54-.11,5.2.26,1.13.18,2.32.99,3.47,1,1.69,0,3.52,0,5.2,0,.81-.1,1.82-.61,2.6-.83,1.05-.3,2.37-.51,3.47-.56,1.7-.08,3.55.1,5.2.51,1.1.2,2.33.94,3.47.88,4.61,0,9.26,0,13.87,0"/><path class="b" d="M8.88,203.89c3.15-.08,6.4.16,9.54-.11,1.81-1.23,3.95-2.17,6.07-2.73,4.52-1.2,9.4-.95,13.87.39,1.43.43,2.99,1.04,4.33,1.68.42.23,1.28.62,1.73.77.43,0,1.3,0,1.73,0,7.79,0,15.61,0,23.41,0,1.39,0,2.95,0,4.33,0,1.96-.98,3.94-2.21,6.07-2.81,5.72-1.78,12.67-1.33,17.34,2.71,1.68.21,3.51.06,5.2.1.84-.05,1.8-.62,2.6-.85,1.07-.3,2.36-.47,3.47-.46,2.07-.03,4.13.66,6.07,1.31,2.57,0,5.23,0,7.8,0,5.77,0,11.57,0,17.34,0,1.65-.47,3.49-.75,5.2-.75,1.72-.02,3.54.34,5.2.75,2.86,0,5.81,0,8.67,0,8.08,0,16.19,0,24.27,0"/><path class="b" d="M8.88,201.77c4.03,0,8.11,0,12.14,0,1.13-.29,2.34-1,3.47-1.32,1.92-.62,4.05-.96,6.07-.99,3.56-.06,7.21.72,10.4,2.3,3.15.04,6.38,0,9.54.02,7.79,0,15.61,0,23.41,0,.43.02,1.31-.03,1.73-.1.41-.29,1.3-.84,1.73-1.09,1.04-.58,2.34-1.15,3.47-1.53,5.44-1.8,12.16-1.38,16.47,2.72,1.39-.04,2.96.1,4.33-.11,1.67-1.41,3.91-2.16,6.07-2.38,3.66-.45,7.22.82,10.4,2.5,1.69,0,3.51,0,5.2,0,5.19,0,10.42,0,15.6,0,3.16.05,6.39-.01,9.54-.28,1.39-.02,2.95.1,4.33.28,2.57,0,5.23,0,7.8,0,7.5,0,15.04,0,22.54,0"/><path class="b" d="M8.88,199.64c4.9,0,9.84,0,14.74,0,1.13-.09,2.35-.71,3.47-.91,1.37-.31,2.93-.48,4.33-.48,2.66-.1,5.27.73,7.8,1.39,5.48,0,10.99,0,16.47,0,6.92,0,13.88,0,20.8,0,.85-.24,1.82-.97,2.6-1.37,1.04-.54,2.34-1.06,3.47-1.38,4.65-1.29,10.34-.84,13.87,2.76h3.47c5.35-5.14,14.15-4.61,19.94-.47.7.57,1.76.48,2.6.47,1.09,0,2.38,0,3.47,0,3.44,0,6.96,0,10.4,0,4.61,0,9.26,0,13.87,0,2.56-.25,5.22-.48,7.8-.42,3.16,0,6.38.28,9.54.42,5.19,0,10.42,0,15.6,0"/><path class="b" d="M8.88,197.52c5.48,0,10.99,0,16.47,0,2.24-.59,4.6-1.19,6.93-1.14,2.33-.04,4.7.51,6.94,1.14,5.77,0,11.57,0,17.34,0,6.92,0,13.88,0,20.8,0,.89.17,1.88-.48,2.6-.94.73-.41,1.8-.88,2.6-1.15,4.33-1.49,9.48-1.01,13,2.09,1.09,0,2.38.03,3.47-.04,5.9-6.66,17.07-5.51,23.41-.04,9.81.22,19.66,0,29.47.08,1.72.12,3.52-.21,5.2-.52,1.97-.28,4.08-.42,6.07-.44,3.46-.03,7.01.24,10.4.94,3.15.03,6.38,0,9.54.01"/><path class="b" d="M8.88,195.39c5.48,0,10.99,0,16.47,0,2.8-.82,5.72-1.59,8.67-1.44,2.63.04,5.31.6,7.8,1.44,3.74,0,7.53,0,11.27,0,8.08,0,16.19,0,24.27,0,.77,0,1.83,0,2.6,0,1.16-.31,2.32-1.19,3.47-1.54,3.66-1.29,8.21-1.15,11.27,1.47,5.61.56,3.62-.8,7.8-3.05,4.76-2.52,10.63-2.62,15.6-.68,2.17.84,4.3,2.14,6.07,3.66,1.66.32,3.52.09,5.2.16,2.86,0,5.81,0,8.67,0,6.63,0,13.3,0,19.94,0,2.53-.6,5.2-.96,7.8-.99,3.19-.1,6.41.42,9.54.99,2.57,0,5.23,0,7.8,0"/><path class="b" d="M8.88,193.27c5.19,0,10.42,0,15.6,0,1.73-.35,3.44-1.29,5.2-1.57,2.82-.6,5.81-.69,8.67-.36,2.94.28,5.83,1.21,8.67,1.94,6.34,0,12.73,0,19.07,0,1.4-.11,2.91-.7,4.33-.53,1.1.11,2.34.64,3.47.53,2.57,0,5.23,0,7.8,0,1.2.16,2.32-.92,3.47-1.17,2.81-.88,6.09-.79,8.67.73.67.55,1.8.46,2.6.44.77,0,1.84.03,2.6-.09,6.77-7.7,19.72-6.62,26.87.02,4.6.17,9.26.01,13.87.06,1.99.07,4.07-.36,6.07-.24,3.43.35,6.95.23,10.4.24,2.87-.05,5.84.21,8.67-.37,3.15-.43,6.41-.17,9.54.37,2.86,0,5.81,0,8.67,0"/><path class="b" d="M8.88,191.15c4.9,0,9.84,0,14.74,0,1.16-.22,2.35-.99,3.47-1.35,1.64-.6,3.47-1.04,5.2-1.29,3.72-.54,7.57-.3,11.27.34,5.43.98,10.89,2.66,16.47,1.98,2-.19,4.1-.52,6.07-.93,1.96-.46,4.06-1.02,6.07-.51,1.53.24,2.89,1.32,4.33,1.75,1.08,0,2.38,0,3.47,0,1.69,0,3.51,0,5.2,0,1.3-.64,2.89-1.04,4.33-1.09,1.78-.14,3.55.56,5.2,1.09,1.39,0,2.95,0,4.33,0,1.04-.13,1.79-1.35,2.6-1.91,1-.77,2.31-1.53,3.47-2.04,7.73-3.36,16.21-1.35,22.54,3.95,4.03,0,8.11,0,12.14,0,1.12,0,2.37-.5,3.47-.64,1.38-.23,2.94-.36,4.33-.35,1.4,0,2.96.14,4.33.4,1.09.19,2.34.69,3.47.59,9.24,0,18.5,0,27.74,0"/><path class="b" d="M8.88,189.02c4.61,0,9.26,0,13.87,0,1.47-.39,2.88-1.4,4.33-1.86,2.48-.93,5.17-1.5,7.8-1.73,12.86-.97,19.94,4.51,33.81.64,2.64-.51,5.48.14,7.8,1.46,1.04.62,2.14,1.74,3.47,1.5,2.57,0,5.23,0,7.8,0,1.09-.12,2.36-.48,3.47-.44.78,0,1.85.17,2.6.41,2.27.04,4.66.08,6.93-.02,7.19-7.62,20.16-6.91,27.74-.22,1.32.51,2.94.19,4.33.27,1.98,0,4.08,0,6.07,0,2.08.23,4.04-.93,6.07-1.2,3.12-.57,6.42-.58,9.54.07,1.44.19,2.89,1.08,4.33,1.14,8.08,0,16.19,0,24.27,0"/><path class="b" d="M8.88,186.9c4.32,0,8.69,0,13,0,1.73-.45,3.42-1.78,5.2-2.33,3.3-1.26,6.88-1.9,10.4-2.06,7.28-.42,14.42,1.73,21.67,1.81,2.29,0,4.69-.25,6.93-.7,1.39-.27,2.91-.75,4.33-.8,3.81-.15,7.64,1.45,10.4,4.04,6.63.09,13.3,0,19.94.03,1.41.27,2.43-1.14,3.47-1.85,1.02-.72,2.32-1.44,3.47-1.92,7.79-3.3,16.05-1.35,22.54,3.77,3.45,0,6.96,0,10.4,0,1.17.04,2.35-.8,3.47-1.07,2.21-.69,4.62-1.06,6.93-1.09,2.31-.03,4.72.27,6.93.93,1.41.34,2.84,1.37,4.33,1.23,6.92,0,13.88,0,20.8,0"/><path class="b" d="M8.88,184.78c3.74,0,7.53,0,11.27,0,.87.07,1.92-.08,2.6-.65,1.06-.61,2.34-1.24,3.47-1.71,3.29-1.36,6.86-2.15,10.4-2.45,7.55-.75,15.02,1.2,22.54,1.43,2.29.04,4.68-.17,6.93-.61,1.39-.26,2.91-.73,4.33-.82,3.31-.22,6.7.76,9.54,2.46,1.17.62,2.23,1.86,3.47,2.33,4.32,0,8.69,0,13,0,1.69,0,3.51,0,5.2,0,.82.01,1.9.1,2.6-.41,2.63-2.36,6.07-3.82,9.54-4.42,4.41-.79,9.02.02,13,2.03,1.46.69,3.03,1.6,4.33,2.56.73.3,1.82.24,2.6.23,2.86-.07,5.82.14,8.67-.1,2.64-1.42,5.69-2.2,8.67-2.42,2.89-.21,5.9.11,8.67.98,1.42.32,2.9,1.46,4.33,1.55,6.34,0,12.73,0,19.07,0"/><path class="b" d="M8.88,182.65h12.14c9.56-6.1,21.23-5.92,32.07-4.41,3.43.39,6.96.69,10.4.32,2.32-.17,4.63-.95,6.93-1.22,5.41-.5,10.71,1.81,14.74,5.3,6.63,0,13.3,0,19.94,0,.6.02,1.34-.46,1.73-.87.74-.55,1.78-1.22,2.6-1.63,2.4-1.23,5.12-1.98,7.8-2.19,5.2-.43,10.34,1.57,14.74,4.19.68.61,1.76.52,2.6.5,1.39,0,2.94,0,4.33,0,1.39-.04,2.96.1,4.33-.12,1.03-.62,2.33-1.22,3.47-1.61,3.03-1.04,6.35-1.39,9.54-1.08,2.04.2,4.16.72,6.07,1.48,1.12.35,2.26,1.36,3.47,1.33,5.77,0,11.57,0,17.34,0"/><path class="b" d="M8.88,180.53c3.74,0,7.53,0,11.27,0,2.02-.82,3.99-2.08,6.07-2.78,3.59-1.36,7.45-2.17,11.27-2.51,7.82-.83,15.6.98,23.41,1.05,1.7-.02,3.53-.19,5.2-.5,1.69-.32,3.48-.86,5.2-.94,5.64-.31,11.43,1.79,15.6,5.59,6.91.24,13.88.01,20.8.09,1.19-.46,2.31-1.51,3.47-2.05,2.65-1.37,5.69-2.15,8.67-2.21,3.57-.07,7.1,1.09,10.4,2.33,1.46.48,2.85,1.58,4.33,1.93,2.57,0,5.23,0,7.8,0,.85.06,1.94-.05,2.6-.64,1.03-.59,2.34-1.15,3.47-1.52,5.38-1.71,11.45-1.16,16.47,1.42.96.71,2.32.82,3.47.74,1.08,0,2.38,0,3.47,0,3.74,0,7.53,0,11.27,0"/><path class="b" d="M8.88,178.41c3.45,0,6.96,0,10.4,0,.88-.02,1.83-.67,2.6-1.02,1.08-.51,2.35-1.05,3.47-1.46,3.33-1.23,6.88-2.07,10.4-2.52,8.08-1.17,16.2.32,24.27.67,3.52.19,6.98-.68,10.4-1.35,5.05-.66,10.31.5,14.74,2.97,1.16.65,2.46,1.56,3.47,2.42.74.36,1.81.29,2.6.28,1.39,0,2.94,0,4.33,0,4.9,0,9.84,0,14.74,0,1.16-.44,2.32-1.41,3.47-1.9,2.41-1.13,5.14-1.78,7.8-1.79,2.01,0,4.11.45,6.07.86,2.67.59,5.42,1.41,7.8,2.78,1.98.1,4.09.02,6.07.05,1.08-.02,2.39.05,3.47-.08.38-.3,1.31-.84,1.73-1.08,4.48-2.34,9.9-2.69,14.74-1.32,1.11.32,2.42.81,3.47,1.32.75.36,1.75,1.05,2.6,1.16,5.19,0,10.42,0,15.6,0"/><path class="b" d="M8.88,176.28c3.15,0,6.38,0,9.54,0,.53.09,1.29-.13,1.73-.39,1.08-.47,2.36-.99,3.47-1.38,2.52-.9,5.18-1.64,7.8-2.17,4.54-.92,9.24-1.28,13.87-1.19,5.78.04,11.55,1.13,17.34.93,4.37-.18,8.58-2.02,13-1.6,3.57.18,7.18,1.08,10.4,2.63,1.14.55,2.44,1.31,3.47,2.05.68.55,1.66,1.32,2.6,1.13,3.74,0,7.53,0,11.27,0,1.98,0,4.09,0,6.07,0,1.39-.05,2.97.15,4.33-.17,1.54-1.04,3.4-1.86,5.2-2.33,3.1-.87,6.4-.42,9.54-.03,2.98.37,5.98,1.17,8.67,2.52,2.86-.04,5.81.09,8.67-.06,4.38-3.3,10.38-3.98,15.6-2.61,1.45.38,3.01,1,4.33,1.7.76.39,1.69,1.17,2.6.98,4.9,0,9.84,0,14.74,0"/><path class="b" d="M8.88,174.16c3.15,0,6.38,0,9.54,0,1.4-.41,2.93-.96,4.33-1.35,6.47-1.86,13.2-2.98,19.94-3.19,7.23-.42,14.46,1.18,21.67.63,3.19-.35,6.31-1.56,9.54-1.68,6.72-.44,13.76,1.35,19.07,5.59,7.5,0,15.04,0,22.54,0,1.53.14,2.89-1.15,4.33-1.5,1.91-.67,4.06-.82,6.07-.78,4.09-.05,8.4.14,12.14,1.98,1.02.49,2.37.25,3.47.3,1.69-.03,3.52.07,5.2-.07,5.92-4.61,14.77-4.13,20.8.02,5.18.11,10.42,0,15.6.04"/><path class="b" d="M8.88,172.04c2.86,0,5.81,0,8.67,0,4.55-1.11,9.24-1.74,13.87-2.4,4.87-.67,9.82-1.21,14.74-1.28,4.32-.1,8.69.27,13,.53,2.28.12,4.68.11,6.93-.3,2-.39,4.05-1.09,6.07-1.41,5.17-.9,10.61-.63,15.6,1.03,1.77.59,3.61,1.43,5.2,2.4.77.45,1.68,1.32,2.6,1.43,6.92,0,13.88,0,20.8,0,1.08,0,2.38,0,3.47,0,1.34-.57,2.88-1.17,4.33-1.35,5.16-.76,10.81-1.38,15.6,1.16,1.05.32,2.38.16,3.47.19,1.39-.04,2.96.11,4.33-.12,5.64-4.49,14.22-4,19.94.11,5.19.05,10.42,0,15.6.02"/><path class="b" d="M8.88,169.91c2.28,0,4.66,0,6.94,0,1.68-.29,3.5-.47,5.2-.53,4.9-.12,9.86.05,14.74-.59,4.88-.58,9.81-1.3,14.74-1.34,4.32-.12,8.68.48,13,.33,3.85-.16,7.47-1.9,11.27-2.41,7.75-1.36,16.06-.05,22.54,4.54,8.37,0,16.77,0,25.14,0,2.04,0,4.06-1.07,6.07-1.4,4.3-.97,9.11-.86,13,1.4,1.39,0,2.95,0,4.33,0,1.23.07,2.54.03,3.47-.92,5.49-3.57,12.99-2.81,18.2.92h15.6"/><path class="b" d="M8.88,167.79c1.39,0,2.94,0,4.33,0,1.98-.23,4.07-.55,6.07-.32,2.84.46,5.8.3,8.67.32,4.61,0,9.26,0,13.87,0,1.39,0,2.94,0,4.33,0,1.1-.07,2.37-.42,3.47-.55,2.84-.41,5.8-.46,8.67-.34,2.57.09,5.26.32,7.8-.15,4.6-1.2,9.09-3.1,13.87-3.51,5.26-.59,10.79.03,15.6,2.31,1.15.55,2.45,1.32,3.47,2.09,1.66.29,3.52.08,5.2.14,7.21,0,14.46,0,21.67,0,1.15-.08,2.36-.83,3.47-1.12,1.35-.42,2.92-.73,4.33-.83,2.95-.21,6.1.29,8.67,1.83,1.96.26,4.09.06,6.07.12,4.11-3.27,9.83-4.06,14.74-2.25.81.29,1.86.79,2.6,1.22.72.47,1.68,1.21,2.6,1.03,4.9,0,9.84,0,14.74,0"/><path class="b" d="M8.88,165.67c1.1-.01,2.38.04,3.47-.05,1.08-.28,2.36-.44,3.47-.44,1.11,0,2.4.18,3.47.48,2.28.03,4.66,0,6.93.02.79,0,1.82,0,2.6,0,1.07-.43,2.33-.93,3.47-1.14,2.26-.45,4.7-.36,6.94.21.8.21,1.85.59,2.6.93,2.57,0,5.23,0,7.8,0,5.77,0,11.57,0,17.34,0,2.47.28,4.66-1.29,6.93-2.02,3.32-1.25,6.86-2.16,10.4-2.43,4.4-.34,8.96.27,13,2.07,1.49.59,2.88,1.74,4.33,2.38,5.48,0,10.99,0,16.47,0,3.15,0,6.38,0,9.54,0,1.14-.21,2.34-.96,3.47-1.26,1.92-.59,4.06-.85,6.07-.71,2.09.15,4.29.75,6.07,1.9,1.08.11,2.39.05,3.47.07.41,0,1.32,0,1.73,0,.89-.23,1.8-1.11,2.6-1.54,2.6-1.43,5.74-1.91,8.67-1.56,2.84.24,5.42,1.66,7.8,3.1,5.19,0,10.42,0,15.6,0"/><path class="b" d="M8.88,163.54c2.03.21,4.06-.56,6.07-.54,1.11,0,2.38.34,3.47.54,2.28-.02,4.66.03,6.94-.03,6.27-5.47,16.01-4.49,22.54.03,8.08,0,16.19,0,24.27,0,1.57.21,2.96-.91,4.33-1.48,1.64-.74,3.47-1.42,5.2-1.89,7.27-2.04,15.51-1.18,21.67,3.37,8.08,0,16.19,0,24.27,0,1.85.23,3.44-1.14,5.2-1.48,3.43-.86,7.31-.64,10.4,1.16,1.01.52,2.37.27,3.47.32.43,0,1.31,0,1.73,0,.51-.12,1.36-.67,1.73-1.04,5.22-3.59,12.44-2.69,17.34,1.04,3.15,0,6.38,0,9.54,0,1.98-.11,4.11-.65,6.07,0"/><path class="b" d="M8.88,161.42c1.72.16,3.5-.37,5.2-.45,1.12-.05,2.36.43,3.47.45,1.98-.08,4.12.2,6.07-.17,4.97-5.32,13.27-6.29,19.94-4.02,1.78.6,3.62,1.5,5.2,2.52.78.5,1.73,1.33,2.6,1.67.44,0,1.3,0,1.73,0,6.92,0,13.88,0,20.8,0,1.09-.02,2.39.08,3.47-.12,1.86-1.18,3.98-2.18,6.07-2.87,7.17-2.42,15.55-1.64,21.67,2.99,5.48,0,10.99,0,16.47,0,2.85-.11,5.84.23,8.67-.17,1.03-.55,2.33-1.04,3.47-1.31,3.15-.73,6.7-.48,9.54,1.17,1.59.62,3.52.18,5.2.3,5.23-4.7,13.78-4.64,19.07-.07,3.15.18,6.38.02,9.54.07,1.98-.22,4.11-.72,6.07-.14"/><path class="b" d="M8.88,159.29c1.69.05,3.51-.07,5.2-.13,2.56.27,5.23.07,7.8.13,8.88-9.23,21.96-8.07,31.21,0h26.87c7.31-4.97,17.55-5.89,25.14-1.01.4.31,1.26.83,1.73,1.01,1.09,0,2.38,0,3.47,0,2.57,0,5.23,0,7.8,0,4.03,0,8.11,0,12.14,0,4.04-1.88,9.09-2.58,13-.01,1.39.02,2.94,0,4.33.01.91-.31,1.79-1.28,2.6-1.76,1.54-.95,3.41-1.6,5.2-1.88,4.99-.77,9.01.78,13,3.64,3.15,0,6.38,0,9.54,0,1.7-.03,3.51-.38,5.2,0"/><path class="b" d="M8.88,157.17h12.14c8.6-10.2,23.99-9.24,32.94-.02,9.53.01,19.08.06,28.61-.02,7.24-5.33,17.96-5.47,25.14.03,7.5,0,15.04,0,22.54,0,.85.01,1.82-.56,2.6-.8,1.35-.43,2.92-.68,4.33-.65,1.77.03,3.68.48,5.2,1.43,1.39.05,2.94.02,4.33.03.53-.17,1.37-.81,1.73-1.21.98-.78,2.29-1.52,3.47-1.97,3.29-1.25,7.03-1.34,10.4-.38,2.19.62,4.36,1.76,6.07,3.27,1.6.58,3.52.17,5.2.29,3.15,0,6.38,0,9.54,0"/><path class="b" d="M8.88,155.05h11.27c8.9-10.54,24.58-10.34,33.81-.35,1.01.57,2.36.3,3.47.35,1.39,0,2.94,0,4.33,0,4.9,0,9.84,0,14.74,0,2.57,0,5.23,0,7.8,0,1.47-.55,2.84-1.71,4.33-2.24,2.71-1.13,5.74-1.67,8.67-1.56,4.05.07,7.9,1.63,11.27,3.8,1.98,0,4.09,0,6.07,0,5.19,0,10.42,0,15.6,0,.45.08,1.34-.12,1.73-.36,1.04-.39,2.36-.69,3.47-.79,2.06-.22,4.2.31,6.07,1.15,1.39,0,2.95,0,4.33,0,6.45-6.17,16.85-6.12,23.41-.12,4.59.3,9.27.03,13.87.12"/><path class="b" d="M8.88,152.92h10.4c1.21-.86,2.28-2.31,3.47-3.2,2.27-1.85,4.99-3.28,7.8-4.11,8.3-2.53,18.02.36,23.41,7.21,8.35.3,16.77.01,25.14.11,2.28,0,4.66,0,6.93,0,.93.09,1.82-.77,2.6-1.16,1.59-.84,3.44-1.49,5.2-1.83,4.06-.78,8.4-.23,12.14,1.55.79.38,1.83,1,2.6,1.43,1.98,0,4.08,0,6.07,0,4.03,0,8.11,0,12.14,0,1.39-.02,2.95.05,4.33-.05,1.33-.53,2.91-.88,4.33-.92,1.1-.03,2.42.14,3.47.49.37.22,1.29.47,1.73.48,1.39,0,2.95,0,4.33,0,6.47-7.15,18.36-6.27,25.14,0h13"/><path class="b" d="M8.88,150.8c15.83,0,5.77.88,17.34-5.8,6.71-3.51,15.2-3.37,21.67.62,1.17.71,2.48,1.71,3.47,2.67.8.72,1.57,2.07,2.6,2.51,11.26,0,22.55,0,33.81,0,1.54.16,2.9-1.14,4.33-1.54,2.46-.88,5.2-1.21,7.8-.97,2.72.24,5.43,1.16,7.8,2.5,6.92,0,13.88,0,20.8,0,.42,0,1.31,0,1.73,0,.41-.15,1.31-.42,1.73-.53,1.06-.26,2.37-.4,3.47-.34,1.13.06,2.45.38,3.47.88,1.68-.08,3.55.2,5.2-.19,6.6-7.37,19.02-6.55,26.01-.13,1.58.64,3.52.19,5.2.32,2.57,0,5.23,0,7.8,0"/><path class="b" d="M8.88,148.68c3.15-.03,6.38.07,9.54-.05,9.1-10.32,26.16-11.67,34.67.05,1.39-.02,2.95.07,4.33-.07,1-.6,2.31-.96,3.47-1.01,1.11-.05,2.41.14,3.47.46.78.25,1.76.75,2.6.62,7.79,0,15.61,0,23.41,0,.85.04,1.82-.55,2.6-.81,1.35-.47,2.91-.78,4.33-.87,2-.13,4.14.1,6.07.65,1.12.25,2.31,1.05,3.47,1.03,4.61,0,9.26,0,13.87,0,2.57,0,5.23,0,7.8,0,1.7-.16,3.44-.99,5.2-.89,1.44-.05,2.98.43,4.33.89,1.39,0,2.95,0,4.33,0,.51-.26,1.36-1.02,1.73-1.45.98-.89,2.28-1.77,3.47-2.36,6.93-3.5,15.7-2.21,21.67,2.62.38.37,1.24.99,1.73,1.18,1.08,0,2.38,0,3.47,0,2.86,0,5.81,0,8.67,0"/><path class="b" d="M8.88,146.55c2.86,0,5.81,0,8.67,0,1.37-.34,2.32-1.9,3.47-2.66,1.56-1.25,3.4-2.41,5.2-3.27,6.78-3.31,15.32-3.19,21.67,1.06,1.22.81,2.53,1.97,3.47,3.09.29.54,1.16,1.53,1.73,1.78,1.12-.07,2.53.28,3.47-.48,1.73-1.22,4-1.56,6.07-1.31,1.79.21,3.63.88,5.2,1.76,4.02.1,8.11,0,12.14.04,4.32,0,8.69,0,13,0,1.67-.4,3.47-.86,5.2-.85,2.04-.12,4.09.55,6.07.85,3.44,0,6.96,0,10.4,0,4.32,0,8.69,0,13,0,1.37-.39,2.9-.86,4.33-.91,1.1-.06,2.42.09,3.47.43.38.21,1.3.46,1.73.49,1.39-.01,2.95.03,4.33-.03,6.49-7.84,19.21-7.74,26.87-1.68.45.34,1.32,1.09,1.73,1.47,1.33.46,2.95.17,4.33.24,2.86,0,5.81,0,8.67,0"/><path class="b" d="M8.88,144.43c1.98,0,4.08,0,6.07,0,1.09-.04,2.41.13,3.47-.21,4.34-4.43,10.24-7.49,16.47-7.89,6.5-.42,13.8,2.05,17.34,7.8.75.38,1.79.3,2.6.3,1.16-.48,2.22-1.56,3.47-1.87,2.53-.78,5.35-.45,7.8.45,1.13.35,2.29,1.22,3.47,1.42,2.28,0,4.66,0,6.93,0,15.31,0,30.63,0,45.94,0,1.39-.04,2.96.11,4.33-.12,1.33-.51,2.91-.84,4.33-.87,1.45-.03,3.05.31,4.33.99,1.39,0,2.95,0,4.33,0,7.75-8.05,20.14-8.56,28.61-1.27.36.41,1.22,1.08,1.73,1.27,1.39,0,2.95,0,4.33,0,2.86,0,5.81,0,8.67,0"/><path class="b" d="M8.88,142.31h9.54c4.1-3.63,8.35-6.57,13.87-7.56,7.19-1.38,15.9.77,19.94,7.28.74.35,1.81.28,2.6.27,3.51-3.34,8.9-2.88,13-.93.8.33,1.69,1.12,2.6.93,1.69,0,3.51,0,5.2,0,4.61,0,9.26,0,13.87,0,7.79,0,15.61,0,23.41,0,2.86,0,5.81,0,8.67,0,1.73,0,3.6.19,5.2-.57,1.93-.57,4.13-.69,6.07-.08,1.06.54,2.27.76,3.47.65.77,0,1.85.05,2.6-.16,6.88-8.37,20.96-8.5,28.61-1.1.57.76,1.61,1.46,2.6,1.26,1.08,0,2.38,0,3.47,0,3.15,0,6.38,0,9.54,0"/><path class="b" d="M8.88,140.18h10.4c7.06-7.31,18.57-10.24,27.74-5.21,1.18.65,2.49,1.59,3.47,2.53.84.74,1.54,2.21,2.6,2.68h1.73c3.82-3.12,8.71-2.8,13-.84.44.21,1.29.63,1.73.84.44,0,1.29,0,1.73,0,1.69,0,3.51,0,5.2,0,4.61,0,9.26,0,13.87,0,10.68,0,21.39,0,32.07,0,.8.01,1.89.09,2.6-.38,1.04-.4,2.35-.69,3.47-.74,1.11-.05,2.43.12,3.47.51.38.23,1.29.55,1.73.61,1.08,0,2.38,0,3.47,0,7.62-8.78,22.98-9.45,30.34,0,2.28,0,4.66,0,6.94,0,.76-.22,1.81-.39,2.6-.34,1.96.45,4.06.35,6.07.34"/><path class="b" d="M8.88,138.06h11.27c1.19-.77,2.29-2.09,3.47-2.89,2.55-1.88,5.58-3.26,8.67-3.96,7.44-1.71,16.25.41,20.8,6.86h2.6c3.67-3.1,9.05-1.95,13,0,3.45,0,6.96,0,10.4,0,14.44,0,28.9,0,43.34,0,.47.09,1.33-.12,1.73-.39.74-.31,1.81-.6,2.6-.71,1.74-.23,3.7.05,5.2,1,1.38.13,2.98.23,4.33-.08,4.76-6.04,13.55-8.09,20.8-6.11,2.51.7,4.99,1.97,6.93,3.72.82.72,1.68,1.97,2.6,2.57,1.39-.07,2.99.2,4.33-.23.69-.59,1.74-1.22,2.6-1.52,2.23-.79,4.85-.6,6.94.54.79.39,1.65,1.31,2.6,1.21"/><path class="b" d="M8.88,135.94c2.86-.05,5.8.03,8.67,0,1.39-.06,2.98.18,4.33-.2,8.26-9.21,23.98-9.19,32.07.2.78,0,1.82,0,2.6,0,.84-.09,1.79-.69,2.6-.88,1.67-.4,3.54-.3,5.2.09,1.1.22,2.32.91,3.47.79,8.37,0,16.77,0,25.14,0,8.95,0,17.92,0,26.87,0,.77,0,1.83,0,2.6,0,.43-.15,1.32-.48,1.73-.66,2.23-.8,4.95-.74,6.93.65,1.09,0,2.38,0,3.47,0,1.23-.82,2.23-2.31,3.47-3.13,1.79-1.33,3.94-2.39,6.07-3.06,7.2-2.29,16.49-.72,20.8,5.97,1.05.36,2.38.18,3.47.22,3.67-4.58,10.16-4.66,14.74-1.4"/><path class="b" d="M8.88,132.99c2.27-.67,4.73.09,6.94.69,2.26.3,4.66.06,6.93.13,1.22-.73,2.26-2.12,3.47-2.89,1.55-1.1,3.4-2.02,5.2-2.63,8-2.73,17.58-.7,23.41,5.53,19.93,0,39.88,0,59.81,0,2.28,0,4.66,0,6.93,0,1.42-.25,2.85-1.12,4.33-1.14,1.48-.11,3.09.34,4.33,1.14,1.08,0,2.38,0,3.47,0,7.14-9.09,23.8-10.4,30.34,0h2.6c3.61-5.51,11.12-5.99,16.47-2.81"/><path class="b" d="M8.88,130.12c1.67-.51,3.52-.2,5.2.06,1.74.26,3.62.66,5.2,1.44,1.68.14,3.51.04,5.2.07,5.09-5.77,13.52-7.43,20.8-5.67,4.16.91,7.93,3.09,11.27,5.67,19.36,0,38.72,0,58.08,0,2.28,0,4.66,0,6.93,0,1.3-.62,2.88-1.12,4.33-1.09,1.17.02,2.47.5,3.47,1.09,1.08,0,2.38,0,3.47,0,7.01-9.32,23.81-10.41,30.34,0h1.73c1.17-.99,2.14-2.6,3.47-3.42,4.35-3.04,10.16-2.7,14.74-.35"/><path class="b" d="M8.88,127.49c1.66-.5,3.51-.25,5.2-.07,1.71.17,3.55.43,5.2.93.82.25,1.88.72,2.6,1.18,1.39.05,2.95.04,4.33,0,2.48-3.21,6.49-4.92,10.4-5.61,6.56-1.14,13.28.72,19.07,3.79,1.1.56,2.36,1.3,3.47,1.84,1.69,0,3.51,0,5.2,0,3.74,0,7.53,0,11.27,0,13.86,0,27.75,0,41.61,0,1.08,0,2.38,0,3.47,0,1.4-.29,2.87-1.02,4.33-1,1.16-.03,2.48.41,3.47,1,1.08,0,2.39,0,3.47,0,7.01-9.31,23.9-10.55,30.34,0h1.73c3.91-6.7,12.55-7.58,19.07-4.38"/><path class="b" d="M8.88,125.1c1.66-.5,3.5-.3,5.2-.18,2.3.15,4.72.36,6.93,1.05,1.17.3,2.32,1.16,3.47,1.48.78,0,1.82,0,2.6,0,.65-.07,1.37-.76,1.73-1.25.44-.38,1.25-1.07,1.73-1.37,2.57-1.66,5.65-2.56,8.67-2.87,8.31-.98,15.7,2.79,23.41,5.13,2.21.66,4.66.27,6.94.37,3.44,0,6.96,0,10.4,0,10.39,0,20.81,0,31.21,0,3.15,0,6.38,0,9.54,0,1.04-.41,2.34-.81,3.47-.88,1.15-.08,2.49.26,3.47.88,1.08,0,2.39,0,3.47,0,3.29-3.89,7.94-6.51,13-7.2,6.5-1.03,14.05,1.12,17.34,7.2h1.73c3.92-7.06,13.18-7.9,19.94-4.68"/><path class="b" d="M8.88,122.92c1.65-.52,3.51-.35,5.2-.29,2.59.08,5.29.21,7.8.87,1.52.29,2.91,1.32,4.33,1.81.77,0,1.83,0,2.6,0,4.84-4.82,11.63-5.88,18.2-5.11,5.61.62,10.98,2.58,16.47,3.75,3.12.63,6.38.99,9.54,1.36,3.15,0,6.38,0,9.54,0,6.92,0,13.88,0,20.8,0,5.76-.07,11.58.14,17.34-.08,1.61-.61,3.54-.94,5.2-.37.97.64,2.36.42,3.47.46,1.58.33,2.45-1.44,3.47-2.31,1.73-1.55,3.9-2.8,6.07-3.63,7.29-2.81,17.72-1.81,21.67,5.76.43.13,1.29.22,1.73.18,1.31-1.5,2.54-3.4,4.33-4.39,4.96-3.08,11.3-2.65,16.47-.3"/><path class="b" d="M8.88,120.94c2.22-.68,4.66-.32,6.94-.37,3.82.1,8.07.26,11.27,2.61,1.09,0,2.4.12,3.47-.13,7.87-8.17,22.33-4.15,32.07-2.15,3.71.86,7.62,1.02,11.27,2.15,2.83.36,5.81.06,8.67.15,11.84,0,23.7,0,35.54,0,.77,0,1.84.03,2.6-.11.74-.25,1.82-.46,2.6-.49.79-.03,1.87.16,2.6.49,1.37.21,2.95.07,4.33.11,5.7-6.88,16.17-9.28,24.27-5.47,1.19.58,2.5,1.46,3.47,2.38.88.83,1.71,2.28,2.6,3.09.45.04,1.31-.06,1.73-.19,4-7.23,14.07-7.44,20.8-4.22"/><path class="b" d="M8.88,119.16c1.92-.65,4.08-.44,6.07-.51,2.87-.07,5.85-.04,8.67.56,1.48.32,3.09.88,4.33,1.76,1.08.17,2.38.09,3.47.1,8.49-8.08,23.48-4.05,33.81-2.27,1.98.38,4.1.65,6.07,1.1,1.43.25,2.9,1.02,4.33,1.17,2.57,0,5.23,0,7.8,0,1.39,0,2.95,0,4.33,0,1.39-.08,2.93-.36,4.33-.22,2.55.36,5.23.19,7.8.22,4.03,0,8.11,0,12.14,0,2.86-.02,5.81.05,8.67-.04.74-.22,1.82-.38,2.6-.37.78.01,1.82.36,2.6.41,1.39-.02,2.95.06,4.33-.06,6.52-8.54,23.54-10.13,29.47-.21.42.19,1.27.34,1.73.28.61-.24,1.41-1.23,1.73-1.78.68-.76,1.72-1.66,2.6-2.17,5.28-3.14,11.96-2.45,17.34.1"/><path class="b" d="M8.88,117.57c1.91-.7,4.08-.52,6.07-.65,2.86-.14,5.83-.2,8.67.26,1.78.26,3.61.92,5.2,1.77,1.08,0,2.38,0,3.47,0,8.56-7.37,23.6-4.15,33.81-2.33,1.99.38,4.12.72,6.07,1.29,1.11.27,2.32.97,3.47,1.04,2.28,0,4.66,0,6.94,0,1.09,0,2.38,0,3.47,0,1.38-.26,2.92-.65,4.33-.63,2.32-.1,4.62.82,6.93.63,8.37-.11,16.79.22,25.14-.13,1.39.05,2.94.19,4.33.13,1.08-.03,2.41.11,3.47-.17,6.84-8.3,23.4-9.62,29.47.17.83.01,1.91.11,2.6-.46.84-1.24,2.15-2.44,3.47-3.16,5.38-2.95,12.03-2.03,17.34.63"/><path class="b" d="M8.88,116.17c1.89-.77,4.07-.62,6.07-.81,2.86-.21,5.82-.35,8.67.02,1.75.2,3.59.72,5.2,1.45,1.39,0,2.95,0,4.33,0,8.26-6.69,24.04-4.09,33.81-2.17,2.65.44,5.29,1.24,7.8,2.17,2.28,0,4.66,0,6.93,0,.77,0,1.83,0,2.6,0,1.68-.41,3.45-1.02,5.2-1.02,1.4-.05,2.97.11,4.33.42,1.36.46,2.9.7,4.33.6,10.68-.07,21.4.14,32.07-.08,7-8.11,23.03-9.24,29.47.08h2.6c4.92-6.34,14.47-5.32,20.8-1.79"/><path class="b" d="M8.88,114.7c.8-.02,1.81-.36,2.6-.45.78-.06,1.82-.13,2.6-.2,2.85-.28,5.8-.54,8.67-.34,1.72.12,3.57.4,5.2.99,1.09,0,2.38,0,3.47,0,.78,0,1.83.03,2.6-.11,1-.74,2.3-1.41,3.47-1.85,2.47-.93,5.18-1.42,7.8-1.68,6.35-.58,12.81-.05,19.07,1.13,1.99.4,4.11.82,6.07,1.36,1.41.31,2.86,1.27,4.33,1.15,2.57,0,5.23,0,7.8,0,.84,0,1.82-.55,2.6-.79,1.06-.32,2.36-.55,3.47-.61,1.7-.1,3.55.09,5.2.52,1.11.21,2.32,1.01,3.47.88,10.97,0,21.97,0,32.94,0,4.49-4.51,11.02-6.71,17.34-6.13,4.52.42,9.33,2.16,12.14,5.91,1.05.37,2.38.18,3.47.22,5.23-5.43,14.12-3.82,19.94-.17"/><path class="b" d="M8.88,112.58c2.28,0,4.66,0,6.94,0,1.69-.1,3.51-.3,5.2-.29,1.4,0,2.95.09,4.33.29,2.57,0,5.23,0,7.8,0,1.55.2,2.92-.94,4.33-1.37,2.21-.78,4.62-1.24,6.94-1.52,5.16-.6,10.44-.52,15.6.08,4.09.54,8.27,1.26,12.14,2.74,2.56.2,5.23.03,7.8.08.43,0,1.3,0,1.73,0,.79-.26,1.81-.77,2.6-1.03,1.63-.53,3.49-.78,5.2-.75,1.72.04,3.57.36,5.2.9,1.07.37,2.29,1.03,3.47.89,9.82,0,19.66,0,29.47,0,1.1-.06,2.47.22,3.47-.35.38-.39,1.3-1.12,1.73-1.45,1.54-1.12,3.4-2.07,5.2-2.71,7.58-2.68,16.8-1.36,22.54,4.51,1.39,0,2.95.02,4.33-.02,3.17-2.39,7.57-2.42,11.27-1.43,1.12.31,2.42.8,3.47,1.32,1.07.23,2.38.11,3.47.14"/><path class="b" d="M8.88,110.45c8.37,0,16.77,0,25.14,0,2.07.13,4.03-1.07,6.07-1.34,3.4-.68,6.94-.98,10.4-1.12,4.62-.16,9.32.02,13.87.84,2.32.33,4.64,1.19,6.94,1.61,1.98,0,4.08,0,6.07,0,1.09,0,2.38,0,3.47,0,1.08-.47,2.33-1.12,3.47-1.43,3.08-.89,6.46-.82,9.54.06.79.23,1.85.63,2.6.98.38.27,1.27.48,1.73.39,10.97,0,21.97,0,32.94,0,8.45-7.23,21.9-7.24,30.34,0,3.45,0,6.96.05,10.4-.17,3.72.34,7.53.11,11.27.17"/><path class="b" d="M8.88,108.33c9.82,0,19.66,0,29.47,0,5.75-.57,11.55-1.25,17.34-1.39,4.36-.13,8.76.39,13,1.39,3.74,0,7.53,0,11.27,0,1.17-.18,2.33-1.06,3.47-1.38,3.32-1.12,7.04-1.13,10.4-.15,1.13.33,2.44.87,3.47,1.45.76.11,1.83.08,2.6.08,10.68-.02,21.39.03,32.07-.02,6.18-5.09,14.99-6.15,22.54-3.96,1.75.51,3.59,1.25,5.2,2.1,1.13.52,2.23,1.62,3.47,1.87,6.63,0,13.3,0,19.94,0"/><path class="b" d="M8.88,106.21c17.04,0,34.1,0,51.15,0,6.63,0,13.3,0,19.94,0,1.17-.18,2.33-1.05,3.47-1.37,1.91-.65,4.05-.95,6.07-.89,1.72.05,3.57.38,5.2.94.8.27,1.86.75,2.6,1.16.75.21,1.83.16,2.6.16,10.97-.06,21.97.12,32.94-.07,9.43-7.02,22.3-5.37,32.07.07,6.06,0,12.15,0,18.2,0"/><path class="b" d="M8.88,104.08c9.53,0,19.08,0,28.61,0,.46,0,1.28,0,1.73,0,.45-.16,1.27-.45,1.73-.57,1.65-.46,3.49-.7,5.2-.71,2.36-.07,4.7.61,6.93,1.28,6.92,0,13.88,0,20.8,0,2.28,0,4.66,0,6.94,0,2.73-1.16,5.64-2.2,8.67-2.09,1.72.02,3.56.31,5.2.83,1.13.29,2.29,1.15,3.47,1.25,3.44,0,6.96,0,10.4,0,8.08,0,16.19,0,24.27,0,0,0,.87-.08.87-.08,0,0,.87-.57.87-.57.74-.47,1.81-1.04,2.6-1.41,2.17-1,4.58-1.72,6.94-2.1,8.02-1.36,16.08,1.01,23.41,4.14,5.18.08,10.42,0,15.6.03"/><path class="b" d="M8.88,101.96c8.95,0,17.92,0,26.87,0,1.14-.37,2.34-1.14,3.47-1.53,2.19-.83,4.6-1.33,6.93-1.45,2.91-.15,5.94.27,8.67,1.3.81.3,1.85.8,2.6,1.22.45.33,1.19.55,1.73.46,2.57,0,5.23,0,7.8,0,4.9,0,9.84,0,14.74,0,1.47.09,2.89-.98,4.33-1.2,3.42-.81,7.15-.57,10.4.78.98.64,2.36.37,3.47.42,1.69,0,3.51,0,5.2,0,5.19,0,10.42,0,15.6,0,4.32,0,8.69,0,13,0,.5.03,1.36-.33,1.73-.65,1.04-.61,2.35-1.25,3.47-1.7,9.84-4.03,20.73-1.51,30.34,1.99,1.6.64,3.52.27,5.2.36,2.86,0,5.81,0,8.67,0"/><path class="b" d="M8.88,99.84c8.37,0,16.77,0,25.14,0,1.2-.27,2.33-1.25,3.47-1.71,1.62-.75,3.45-1.37,5.2-1.75,3.39-.74,7-.79,10.4-.08,2.75.58,5.48,1.7,7.8,3.3,1.63.49,3.52.14,5.2.24,2.57,0,5.23,0,7.8,0,3.74,0,7.53,0,11.27,0,2.22-.67,4.61-1.16,6.94-.99,1.75.02,3.51.69,5.2.99,3.15,0,6.38,0,9.54,0,7.79,0,15.61,0,23.41,0,1.69-.02,3.52.05,5.2-.05.4-.26,1.31-.74,1.73-.97,3.22-1.64,6.82-2.63,10.4-3.01,8.28-.91,16.47,1.41,24.27,3.92,3.72.25,7.54.03,11.27.1"/><path class="b" d="M8.88,97.71c7.79,0,15.61,0,23.41,0,1.27.19,2.39-.95,3.47-1.45,1.61-.86,3.45-1.6,5.2-2.11,7.53-2.25,16.16-1.17,22.54,3.56,21.39-.03,42.76-.01,64.15,0,2.86,0,5.81,0,8.67,0,1.72-.61,3.44-1.65,5.2-2.17,3.05-1.03,6.32-1.57,9.54-1.69,7.38-.28,14.66,1.59,21.67,3.7,3.39.4,6.97.05,10.4.16"/><path class="b" d="M8.88,95.59c7.5,0,15.04,0,22.54,0,1.25.18,2.39-.93,3.47-1.41,1.35-.7,2.9-1.37,4.33-1.87,6.96-2.45,14.91-2.42,21.67.67,1.47.67,3.03,1.57,4.33,2.53.77.11,1.82.09,2.6.09,4.9,0,9.84,0,14.74,0,11.84,0,23.7,0,35.54,0,6.63,0,13.3,0,19.94,0,2.79-1.16,5.67-2.35,8.67-2.83,3.98-.74,8.12-.76,12.14-.32,4.98.55,9.92,1.74,14.74,3.09,3.15.16,6.38.02,9.54.07"/><path class="b" d="M8.88,93.47c7.5,0,15.04,0,22.54,0,8.45-4.33,17.47-6.65,26.87-4.08,3.06.83,6.07,2.18,8.67,4,4.31.21,8.69.02,13,.08,10.68,0,21.39,0,32.07,0,9.24,0,18.5,0,27.74,0,1.74-.21,3.41-1.29,5.2-1.65,2.8-.76,5.77-1.14,8.67-1.21,6.73-.16,13.42,1.21,19.94,2.78,3.14.2,6.38.03,9.54.08"/><path class="b" d="M8.88,91.34c7.21,0,14.46,0,21.67,0,1.77-.35,3.48-1.42,5.2-1.98,2.51-.95,5.17-1.76,7.8-2.28,8.49-1.71,17.82-.61,25.14,4.22,24.56.09,49.13,0,73.68.03.82.05,1.83-.43,2.6-.66,1.36-.42,2.93-.78,4.33-1,5.15-.83,10.46-.51,15.6.21,2.88.37,5.8,1.02,8.67,1.46,3.15,0,6.38,0,9.54,0"/><path class="b" d="M8.88,89.22c7.21,0,14.46,0,21.67,0,7.79-2.71,15.92-5.19,24.27-4.59,3.52.21,7.09.9,10.4,2.11,1.12.41,2.41.97,3.47,1.52.75.43,1.69,1.15,2.6.97,6.63,0,13.3,0,19.94,0,6.06-.02,12.15.09,18.2-.15,6.05.26,12.15.12,18.2.15,6.06,0,12.15,0,18.2,0,.79.06,1.83-.29,2.6-.46,1.37-.3,2.94-.53,4.33-.66,6.07-.54,12.19.27,18.2,1.09,4.02.05,8.11,0,12.14.02"/><path class="b" d="M8.88,87.1c4.9,0,9.84,0,14.74,0,2.56-.09,5.26.2,7.8-.15,7.39-1.87,14.86-3.96,22.54-3.94,4.38-.02,8.83.55,13,1.89,1.14.35,2.45.88,3.47,1.5.43.34,1.18.73,1.73.7,3.74,0,7.53,0,11.27,0,6.06,0,12.15,0,18.2,0,1.74.06,3.47-.92,5.2-1.09,2.83-.47,5.81-.49,8.67-.26,3.19.15,6.38,1.06,9.54,1.36,7.5,0,15.04,0,22.54,0,3.74.12,7.53-.23,11.27-.22,8.07.38,16.19.17,24.27.22"/><path class="b" d="M8.88,84.75c3.4.51,6.97.1,10.4.23,4.6-.06,9.27.11,13.87-.07,8.32-1.39,16.64-3.48,25.14-3.24,3.48.08,7.04.47,10.4,1.4,1.17.36,2.47,1.01,3.47,1.71.76.26,1.81.21,2.6.2,2.86-.02,5.81.04,8.67-.03,1.37-.34,2.93-.51,4.33-.49,1.41,0,2.96.25,4.33.52,1.69,0,3.51,0,5.2,0,1.39,0,2.95,0,4.33,0,.83-.16,1.82-.76,2.6-1.06,1.34-.53,2.91-.94,4.33-1.18,4.29-.71,8.76-.39,13,.49,2.88.48,5.72,1.86,8.67,1.75,17.62,0,35.26,0,52.88,0"/><path class="b" d="M8.88,81.97c1.68.32,3.49.72,5.2.88,3.74,0,7.53,0,11.27,0,3.44,0,6.96,0,10.4,0,2.28-.01,4.68.12,6.94-.33,7.54-1.09,24.16-4.43,30.34.29,3.15.07,6.39.09,9.54,0,1.63-.58,3.48-.88,5.2-.92,2.03-.05,4.15.31,6.07.97,2.57,0,5.23,0,7.8,0,7.44-4.97,17.08-3.99,25.14-1.15,1.67.44,3.43,1.28,5.2,1.15,3.15,0,6.38,0,9.54,0,13.86,0,27.75,0,41.61,0"/><path class="b" d="M8.88,79.3c2.56.54,5.22,1.01,7.8,1.4,1.69.06,3.51.02,5.2.03,5.48,0,10.99,0,16.47,0,4.9,0,9.84,0,14.74,0,5.15-.77,10.35-1.93,15.6-1.7,1.49.11,3.07.68,4.33,1.47.74.3,1.82.23,2.6.23,1.98,0,4.09,0,6.07,0,1.93-.66,4.01-1.27,6.07-1.3,2.33-.08,4.81.28,6.93,1.27,2.28.07,4.66.01,6.94.03,4.77-3.9,11.4-4.74,17.34-3.85,2.98.41,5.85,1.57,8.67,2.58,1.39.4,2.87,1.24,4.33,1.27,3.15,0,6.38,0,9.54,0,13.86,0,27.75,0,41.61,0"/><path class="b" d="M8.88,76.75c2.86.61,5.81,1.17,8.67,1.79,2.27.13,4.66.02,6.93.06,6.92,0,13.88,0,20.8,0,5.77,0,11.57,0,17.34,0,3.14-.25,6.43-1.93,9.54-.49.97.66,2.36.46,3.47.49,1.69,0,3.51,0,5.2,0,.85.09,1.82-.5,2.6-.74,1.63-.53,3.49-.8,5.2-.81,2.37-.03,4.79.56,6.93,1.55,1.98,0,4.09,0,6.07,0,4.64-4.14,11.33-5.28,17.34-4.32,3.02.44,5.88,1.75,8.67,2.91,1.38.45,2.85,1.49,4.33,1.4,3.15,0,6.38,0,9.54,0,13.86,0,27.75,0,41.61,0"/><path class="b" d="M8.88,74.33c2.88.62,5.85,1.26,8.67,2.12,6.05.07,12.15,0,18.2.03,7.21,0,14.46,0,21.67,0,4.02-.09,8.13.19,12.14-.12,3.73.14,7.53.14,11.27.12.82-.11,1.82-.63,2.6-.87,1.63-.52,3.49-.81,5.2-.82,2.35-.01,4.85.44,6.93,1.56,1.96.29,4.09.07,6.07.13,4.66-4.16,11.24-5.67,17.34-4.57,3.07.48,5.91,1.95,8.67,3.29.77.37,1.83.87,2.6,1.24,1.09.08,2.38.04,3.47.05,2.57,0,5.23,0,7.8,0,13.86,0,27.75,0,41.61,0"/><path class="b" d="M8.88,72.04c1.7.39,3.53.79,5.2,1.29,1.11.29,2.32.92,3.47,1.02,3.15,0,6.38,0,9.54,0,8.37,0,16.77,0,25.14,0,9.24,0,18.5,0,27.74,0,1.17.14,2.36-.69,3.47-.96,1.64-.5,3.49-.78,5.2-.8,1.72-.02,3.57.23,5.2.76.79.26,1.78.82,2.6.99,1.69,0,3.51,0,5.2,0,.9-.37,1.8-1.34,2.6-1.87,1.29-.87,2.86-1.61,4.33-2.1,7.03-2.24,12.96-.74,19.07,3.06.4.25,1.3.7,1.73.9.42,0,1.31,0,1.73,0,1.39,0,2.95,0,4.33,0,4.03,0,8.11,0,12.14,0,11.84,0,23.7,0,35.54,0"/><path class="b" d="M8.88,69.89c1.4.33,2.96.72,4.33,1.15,1.11.32,2.32,1.03,3.47,1.19,6.06,0,12.15,0,18.2,0,6.34,0,12.73,0,19.07,0,2.01.08,4.06-.65,6.07-.62,2.03-.19,4.07.6,6.07.62,4.61,0,9.26,0,13.87,0,1.15-.05,2.36-.76,3.47-1.01,1.65-.45,3.49-.71,5.2-.73,2.7-.11,5.35.71,7.8,1.74,1.98-.09,4.13.22,6.07-.19,6.18-5.94,16.59-6.17,23.41-1.17.76.46,1.7,1.22,2.6,1.36,1.09,0,2.38,0,3.47,0,2.57,0,5.23,0,7.8,0,14.44,0,28.9,0,43.34,0"/><path class="b" d="M8.88,67.89c1.41.35,2.97.78,4.33,1.29.79.29,1.74.89,2.6.93,6.34,0,12.73,0,19.07,0,6.63,0,13.3,0,19.94,0,1.14.09,2.36-.62,3.47-.82,1.94-.46,4.08-.64,6.07-.38,1.49.09,2.9,1.01,4.33,1.2,3.44,0,6.96,0,10.4,0,1.14.12,2.38-.51,3.47-.78,1.94-.53,4.06-.86,6.07-.87,1.71,0,3.56.22,5.2.72.78.24,1.8.75,2.6.92,1.98,0,4.09,0,6.07,0,4.65-4.11,11.37-5.72,17.34-3.91,2.57.7,4.79,2.39,6.94,3.91h56.35"/><path class="b" d="M8.88,66.04c1.74.46,3.61,1.04,5.2,1.91.79.05,1.82.04,2.6.04,6.06,0,12.15,0,18.2,0,5.77,0,11.57,0,17.34,0,1.39,0,2.94,0,4.33,0,1.69-.53,3.42-1.38,5.2-1.58,1.99-.3,4.18-.17,6.07.55.77.33,1.79.81,2.6,1.02.78,0,1.83,0,2.6,0,2.28-.04,4.66.09,6.93-.07,2.8-.78,5.75-1.4,8.67-1.39,2.33,0,4.8.38,6.93,1.35,1.67.24,3.51.07,5.2.11.78,0,1.84.05,2.6-.17.97-.88,2.29-1.74,3.47-2.3,4-1.9,8.79-2.31,13-.87,1.15.4,2.46,1.05,3.47,1.73.76.5,1.65,1.48,2.6,1.61,6.06,0,12.15,0,18.2,0,13,0,26.01,0,39.01,0"/><path class="b" d="M8.88,64.36c1.44.35,2.91,1.11,4.33,1.5,2.28,0,4.66,0,6.93,0,4.9,0,9.84,0,14.74,0,.78,0,1.83.04,2.6-.13.44-.18,1.28-.49,1.73-.62,1.36-.39,2.92-.59,4.33-.55,1.75.05,3.62.48,5.2,1.25.77.07,1.83.06,2.6.06,2.28,0,4.66,0,6.94,0,1.88-.93,3.94-1.8,6.07-1.86,3.04-.34,5.73,1.66,8.67,1.86,2.27-.06,4.67.13,6.93-.1,2.83-.56,5.77-1.12,8.67-1.09,2.34-.03,4.73.46,6.93,1.2,1.69,0,3.51,0,5.2,0,.76,0,1.83,0,2.6,0,1.49-.52,2.81-1.81,4.33-2.31,5.49-2.32,11.85-1.48,16.47,2.31,19.65.04,39.33-.07,58.95,0"/><path class="b" d="M8.88,62.87c.78.23,1.8.68,2.6.87,2.28,0,4.66,0,6.93,0,5.19-.01,10.42.02,15.6-.01,5.33-4.28,13.83-4.65,19.07-.03,2.28.1,4.66.02,6.94.04,1.85-.99,3.93-1.85,6.07-1.75,2.35.12,4.63,1.19,6.94,1.62,2.26.29,4.66.06,6.93.13,2.28-.24,4.64-.69,6.94-.79,1.69-.09,3.53-.03,5.2.23,1.1.14,2.35.65,3.47.56,1.98,0,4.08,0,6.07,0,1.09-.04,2.43.16,3.47-.25,5.11-3.39,12.41-3.59,17.34.25,15.6,0,31.21,0,46.81,0,1.69,0,3.51,0,5.2,0,1.09-.09,2.37-.37,3.47-.3,1.68.26,3.5.35,5.2.3"/><path class="b" d="M8.88,61.59c4.9.06,9.84,0,14.74.02,1.69,0,3.51,0,5.2,0,1.09-.04,2.41.13,3.47-.19,6.09-6.18,17.41-6.56,23.41-.06,1.91.54,4.09.13,6.07.25.82-.21,1.79-.79,2.6-1.02,1.07-.3,2.37-.39,3.47-.22,1.7.33,3.5.85,5.2,1.21,1.69.08,3.51.02,5.2.04,1.69,0,3.51.01,5.2-.01,2.56-.29,5.23-.47,7.8-.21,4.58.5,9.27.1,13.87.22,1.19.15,2.34-.84,3.47-1.12,2.19-.73,4.65-.98,6.94-.65,1.12.17,2.43.54,3.47,1.01,1.04.67,2.25.87,3.47.76,6.34,0,12.73,0,19.07,0,13.87.05,27.77-.09,41.61,0"/><path class="b" d="M8.88,59.49h21.67c5.03-5.8,13.71-7.84,20.8-4.93,2.75.99,4.85,3,6.94,4.93,1.99,0,4.08,0,6.07,0,2.26-1.01,4.63-.43,6.94,0,11.55,0,23.12,0,34.67,0,1.1.02,2.42.03,3.47-.37,1.36-.34,2.93-.5,4.33-.42,1.44,0,2.92.67,4.33.79,2.28,0,4.66,0,6.94,0,19.36,0,38.72,0,58.08,0"/><path class="b" d="M8.88,57.37c4.32,0,8.69,0,13,0,1.69,0,3.51,0,5.2,0,.79,0,1.87.08,2.6-.29,4.79-6.06,13.54-8.27,20.8-6,2.15.66,4.29,1.76,6.07,3.13,1.21.85,2.25,2.33,3.47,3.16,17.33,0,34.68,0,52.01,0,6.34,0,12.73,0,19.07,0,2.28,0,4.66,0,6.94,0,1.39-.13,2.92-.54,4.33-.49,1.41-.05,2.94.4,4.33.49,3.74,0,7.53,0,11.27,0,8.37,0,16.77,0,25.14,0"/><path class="b" d="M8.88,55.24h19.07c1.25-.82,2.25-2.35,3.47-3.23,1.53-1.22,3.38-2.28,5.2-3.01,8.31-3.42,18.7-.94,24.27,6.18,16.46.15,32.95,0,49.41.05,8.08,0,16.19,0,24.27,0,.84-.04,1.82-.59,2.6-.85,1.63-.55,3.48-.86,5.2-.87,1.72,0,3.57.28,5.2.81,1.07.37,2.29,1.06,3.47.91,10.68,0,21.39,0,32.07,0"/><path class="b" d="M8.88,53.12h18.2c9.12-10.74,25.55-10.86,34.67-.07,16.75.19,33.52,0,50.28.07,6.63,0,13.3,0,19.94,0,1.22-.12,2.33-1.16,3.47-1.55,2.16-.91,4.6-1.38,6.93-1.39,2.33-.01,4.76.43,6.94,1.27,1.45.4,2.79,1.81,4.33,1.68,9.82,0,19.66,0,29.47,0"/><path class="b" d="M8.88,51h17.34c1.27-.79,2.25-2.35,3.47-3.23,2.51-2.05,5.54-3.55,8.67-4.37,9.38-2.4,17.64.94,24.27,7.61,15.02,0,30.06,0,45.08,0,7.21,0,14.46,0,21.67,0,.94-.1,1.82-1.02,2.6-1.47,1.3-.8,2.87-1.49,4.33-1.93,3.63-1.09,7.6-1.11,11.27-.19,1.76.44,3.61,1.16,5.2,2.03,1.09.5,2.18,1.77,3.47,1.57,8.95,0,17.92,0,26.87,0"/><path class="b" d="M8.88,48.87c5.76-.08,11.59.17,17.34-.1,3.99-5.33,10.78-8.21,17.34-8.39,7.2-.2,14.31,3.11,19.07,8.46,14.44.09,28.9,0,43.34.03,6.92,0,13.88,0,20.8,0,.99-.15,1.81-1.22,2.6-1.75,1.54-1.12,3.4-2.05,5.2-2.66,4.16-1.39,8.75-1.47,13-.45,2.39.57,4.8,1.53,6.93,2.76,1.13.58,2.25,1.69,3.47,2.1,8.37,0,16.77,0,25.14,0"/><path class="b" d="M8.88,46.75c3.74,0,7.53,0,11.27,0,1.39,0,2.94,0,4.33,0,1.12.22,2.04-.62,2.6-1.48,9.7-10.2,26.38-8.85,35.54,1.38,12.11.29,24.28,0,36.41.1,5.48,0,10.99,0,16.47,0,1.98,0,4.08,0,6.07,0,1.09-.04,2.42.15,3.47-.23,8.96-9.77,25.15-7.64,34.67.23h23.41"/><path class="b" d="M8.88,44.62c3.74.03,7.54,0,11.27-.16,1.07.25,2.38.14,3.47.16,1.71.07,2.49.07,3.47-1.48,9.73-10.25,26.33-8.66,35.54,1.48,13,0,26.01,0,39.01,0,4.32,0,8.69,0,13,0,1.39,0,2.95,0,4.33,0,1.09-.04,2.42.14,3.47-.21,10.01-11.59,28.12-8.71,39.01.12,7.2.24,14.46.01,21.67.09"/><path class="b" d="M8.88,42.5c2.28,0,4.66.01,6.94-.01,1.04-.41,2.35-.71,3.47-.75,1.13-.04,2.45.25,3.47.76,1.09,0,2.38,0,3.47,0,4.65-6.77,13.84-9.3,21.67-7.94,3.72.65,7.33,2.21,10.4,4.39,1.51.99,2.86,2.52,4.33,3.55,14.73,0,29.48,0,44.21,0,2.57,0,5.23,0,7.8,0,1.39-.06,2.97.16,4.33-.18.43-.34,1.3-1.02,1.73-1.35,2.93-2.28,5.95-4.69,9.54-5.83,11.35-3.96,23.7.42,32.94,7.36h19.94"/><path class="b" d="M8.88,40.38c1.69,0,3.51,0,5.2,0,2.22-.71,4.54-1.71,6.93-1.26.84.12,1.9.54,2.6,1.02.74.31,1.82.24,2.6.24.56-.26,1.41-1.2,1.73-1.73.97-1.07,2.25-2.16,3.47-2.92,5.86-3.7,13.41-4.39,19.94-2.17,2.44.82,4.85,2.07,6.94,3.59.82.59,1.86,1.47,2.6,2.15.39.5,1.09,1.05,1.73,1.09,10.97,0,21.97,0,32.94,0,3.74,0,7.53,0,11.27,0,2.27-.08,4.69.19,6.93-.15,3.89-1.78,7.61-4.06,11.27-6.26,2.65-1.48,5.67-2.45,8.67-2.91,7.4-1.15,15.03.6,21.67,3.89,2.05,1.01,4.15,2.23,6.07,3.48,1.33.79,2.65,2.22,4.33,1.95,5.77,0,11.57,0,17.34,0"/><path class="b" d="M8.88,38.25c1.66-.13,3.65.33,5.2-.33,3.51-1.96,8.02-2.36,11.27.33h1.73c4.82-6.68,13.85-9.03,21.67-7.25,3.07.68,6.07,2.01,8.67,3.78,1.51.96,2.88,2.44,4.33,3.47,9.24,0,18.5,0,27.74,0,3.45,0,6.96,0,10.4,0,2.91.15,5.85-.39,8.67-1.06,4.19-.99,8.26-2.61,12.14-4.47,3.58-1.82,7.23-3.78,11.27-4.36,10.72-1.9,21.47,2.23,30.34,8.03.77.5,1.84,1.19,2.6,1.71,1.95.35,4.09.08,6.07.16,4.03,0,8.11,0,12.14,0"/><path class="b" d="M8.88,36.13c1.09,0,2.38,0,3.47,0,1.16-.32,2.32-1.21,3.47-1.59,3.4-1.31,7.83-1.34,10.4,1.59h1.73c3.31-5.16,9.67-7.47,15.6-7.5,6.47-.03,12.87,2.78,17.34,7.43,9.52.18,19.08,0,28.61.06,2.01.04,4.08-.52,6.07-.74,3.45-.49,6.98-.97,10.4-1.64,4.73-.91,9.41-2.31,13.87-4.11,2.31-.88,4.6-2.09,6.94-2.89,3.32-1.11,6.91-1.58,10.4-1.49,9.77.19,18.84,4.65,26.87,9.89.69.48,1.71,1.16,2.6.98,1.39,0,2.95,0,4.33,0,4.03,0,8.11,0,12.14,0"/><path class="b" d="M8.88,34.01c1.09-.01,2.38.04,3.47-.07,1.01-.73,2.31-1.44,3.47-1.89,3.65-1.4,8.75-1.52,11.27,1.95h1.73c4.59-7.3,14.94-8.5,22.54-5.79,2.13.76,4.25,1.89,6.07,3.23,2.99,2.22,2.02,2.75,6.07,2.56,5.19,0,10.42,0,15.6,0,2.57,0,5.23,0,7.8,0,1.39-.34,2.94-.72,4.33-1,8.09-1.62,16.36-2.65,24.27-5.08,3.82-1.07,7.51-2.72,11.27-3.96,2.79-.81,5.77-1.2,8.67-1.19,6.96,0,13.78,2.16,19.94,5.29,2.34,1.18,4.7,2.56,6.93,3.93,1.36.68,2.72,2.18,4.33,2.02,5.47-.09,11.01.19,16.47-.12"/><path class="b" d="M8.88,31.88c.77,0,1.83,0,2.6,0,.5-.1,1.35-.56,1.73-.89,1.02-.64,2.32-1.26,3.47-1.63,3.76-1.21,8.84-1.06,11.27,2.5.43.01,1.3.02,1.73.02,3.59-6.04,11.74-7.54,18.2-6.34,2.73.53,5.45,1.61,7.8,3.09,1.53.86,2.84,2.36,4.33,3.24,8.08,0,16.19,0,24.27,0,1.14.06,2.37-.57,3.47-.82,1.38-.38,2.94-.76,4.33-1.08,4.59-1.02,9.27-1.83,13.87-2.78,4.66-.95,9.34-2.09,13.87-3.53,2.3-.69,4.62-1.67,6.94-2.28,3.08-.79,6.36-1.07,9.54-.9,10.15.48,19.33,5.45,27.74,10.76.9.81,2.35.61,3.47.62,1.69,0,3.52,0,5.2,0,1.98,0,4.09,0,6.07,0,1.39-.09,3.07.29,4.33-.43"/><path class="b" d="M8.88,29.76c.77,0,1.83,0,2.6,0,1.73-.78,3.34-2.13,5.2-2.65,4.07-1.39,9.41-1.09,12.14,2.65.43.01,1.3-.02,1.73-.06,2.22-3.95,6.96-5.72,11.27-6.17,6.37-.67,12.73,1.87,17.34,6.23,5.48,0,10.99,0,16.47,0,2.57,0,5.23,0,7.8,0,1.14-.08,2.37-.7,3.47-.99,8.8-2.62,17.97-3.82,26.87-6.02,3.78-.9,7.58-2.01,11.27-3.22,3.06-.91,6.35-1.28,9.54-1.19,10.5.22,19.96,5.45,28.61,10.95,0,0,.87.48.87.48h.87c.76,0,1.84,0,2.6,0,1.98,0,4.09,0,6.07,0,1.69,0,3.52,0,5.2,0,1.41-.03,3.07.2,4.33-.57"/><path class="b" d="M8.88,27.64c.77,0,1.83,0,2.6,0,1.51-.46,2.82-1.79,4.33-2.31,4.94-2.02,10.06-1.67,13.87,2.31.47.07,1.31-.09,1.73-.31,2.04-3.21,5.9-4.81,9.54-5.38,6.22-.92,12.87,1.18,17.34,5.62,5.47.16,11,.01,16.47.06,1.99,0,4.08,0,6.07,0,.78,0,1.82,0,2.6-.02.45-.17,1.29-.5,1.73-.65,9.01-3.02,18.5-4.28,27.74-6.41,2.88-.64,5.83-1.36,8.67-2.16,3.64-1.14,7.43-2.1,11.27-2.03,10.53-.07,20.12,5.09,28.61,10.87,1.25.73,2.94.28,4.33.4,2.28,0,4.66,0,6.94,0,1.98,0,4.09,0,6.07,0,1.4-.06,3.08.26,4.33-.54"/><path class="b" d="M8.88,25.51c1.09,0,2.38.02,3.47-.02,4.7-3.84,13.1-5.29,17.34-.08.43.08,1.3.13,1.73.11.52-.29,1.39-1.15,1.73-1.64.72-.67,1.73-1.45,2.6-1.9,4.77-2.5,10.64-2.47,15.6-.54,1.48.58,3.04,1.43,4.33,2.36,1.04.77,2.02,1.98,3.47,1.72,6.06,0,12.15,0,18.2,0,1.98-.06,4.1.14,6.07-.12,1.07-.43,2.37-.88,3.47-1.22,3.68-1.14,7.5-1.97,11.27-2.76,6.63-1.38,13.34-2.57,19.94-4.12,4.58-1.04,9.11-2.77,13.87-2.67,6.68-.04,13.28,2.06,19.07,5.3,2.07,1.16,4.17,2.54,6.07,3.95.73.53,1.69,1.43,2.6,1.64.41,0,1.32,0,1.73,0,4.61,0,9.26,0,13.87,0,1.68,0,3.52,0,5.2,0,.78,0,1.88.08,2.6-.3"/><path class="b" d="M8.88,23.39c1.39-.08,3,.22,4.33-.25,1.77-1.31,3.91-2.29,6.07-2.74,2.88-.59,6.1-.34,8.67,1.16.84.47,1.64,1.57,2.6,1.82.43,0,1.31,0,1.73,0,3.77-4.89,10.76-5.9,16.47-4.52,1.78.44,3.62,1.18,5.2,2.11,1.17.64,2.32,1.74,3.47,2.41,8.66-.07,17.36.13,26.01-.08,5.29-2.02,10.93-3.07,16.47-4.19,7.51-1.49,15.11-2.76,22.54-4.63,7.38-2.35,15.49-1.65,22.54,1.47,2.41,1.05,4.81,2.41,6.93,3.95,1.51.97,2.78,2.61,4.33,3.48,8.95,0,17.92,0,26.87,0"/><path class="b" d="M8.88,21.27c1.68-.11,3.59.28,5.2-.27.74-.51,1.78-1.1,2.6-1.46,3.52-1.53,7.83-1.78,11.27.08.48.26,1.34.94,1.73,1.33.42.22,1.26.4,1.73.33.53.11,1.31-.15,1.73-.47,6.04-6.34,17.2-5.19,23.41.37,8.64.29,17.35.01,26.01.11,1.15.12,2.39-.42,3.47-.74,1.38-.41,2.93-.81,4.33-1.14,4.86-1.11,9.83-1.97,14.74-2.88,4.61-.85,9.28-1.68,13.87-2.67,3.16-.62,6.31-1.71,9.54-1.99,6.65-.58,13.51,1.2,19.07,4.89,1.18.79,2.49,1.88,3.47,2.91.27.49,1.24,1.36,1.73,1.62,1.39-.05,2.97.14,4.33-.16,1.66-.5,3.56-.33,5.2.15,6.92.01,13.88,0,20.8,0"/><path class="b" d="M8.88,19.14c1.39,0,2.94,0,4.33,0,.85.06,1.94-.05,2.6-.64,4.18-2.37,10.16-2.83,13.87.64,1.09-.03,2.41.12,3.47-.18,3.4-3.77,9.03-4.74,13.87-4.05,3.52.45,6.71,2.18,9.54,4.23,9.24,0,18.5,0,27.74,0,2.02-.15,4.06-1.01,6.07-1.31,3.72-.76,7.53-1.37,11.27-2.02,6.65-1.17,13.35-2.26,19.94-3.74,4.21-1.16,8.65-1.89,13-1.14,4.03.62,8.04,2.13,11.27,4.66,1.28.93,2.3,2.52,3.47,3.56h1.73c3.25-2.81,7.31-3.04,11.27-1.7.8.27,1.85.73,2.6,1.12.4.31,1.22.62,1.73.57,5.48,0,10.99,0,16.47,0"/></svg>