<?xml version="1.0" encoding="UTF-8"?><svg id="a" xmlns="http://www.w3.org/2000/svg" width="1920" height="2400" viewBox="0 0 192 240"><defs><style>.b{fill:none;stroke:#fff;stroke-miterlimit:10;stroke-width:.3px;}.c{stroke-width:0px;}</style></defs><rect class="c" width="192" height="240"/><path class="b" d="M8.54,227.55c7.85-.07,16.07-.32,23.5,2.63,1.85.95,4.09.46,6.09.57,3.46,0,6.98,0,10.44,0,7.82,0,15.67,0,23.5,0,1.24-.3,2.34-1.44,3.48-1.99,2.15-1.2,4.57-2.12,6.96-2.7,6.59-1.59,13.67-1.09,20.02,1.26,1.45.54,3.02,1.27,4.35,2.06.78.43,1.68,1.32,2.61,1.37,2.58,0,5.25,0,7.83,0,1.66-.49,3.47-1.03,5.22-1.01,1.74-.02,3.59.42,5.22,1.01,6.08.02,12.2,0,18.27,0,2.87,0,5.83,0,8.7,0,1.08,0,2.4,0,3.48,0,.39-.22,1.32-.63,1.74-.81,4.91-2.08,10.35-2.83,15.66-2.72,2.59.12,5.36.11,7.83,1"/><path class="b" d="M8.54,226.37c2.87-.26,5.83-.15,8.7-.43,5.26-.39,10.67.02,15.66,1.81.78.27,1.79.74,2.61.87,1.7,0,3.53,0,5.22,0,4.04,0,8.14,0,12.18,0,4.62,0,9.3,0,13.92,0,1.69,0,3.53,0,5.22,0,.8,0,1.88.09,2.61-.32,10.24-7.58,26.15-6.43,36.55.29,15.08.1,30.17,0,45.25.04.77,0,1.84.01,2.61-.05.42-.2,1.31-.58,1.74-.76,1.65-.65,3.49-1.2,5.22-1.59,3.4-.77,6.96-1.11,10.44-1.19,2.29,0,4.73-.17,6.96.46"/><path class="b" d="M8.54,226.09c1.99-.34,4.12-.37,6.09-.82,4.26-.97,8.69-1.61,13.05-1.02,2.03.25,4.15.73,6.09,1.38,1.08.35,2.31,1,3.48.86,11.6,0,23.21,0,34.81,0,1.4-.05,2.98.14,4.35-.15,1.77-1.46,3.94-2.6,6.09-3.38,5.82-2.1,12.23-2.26,18.27-1.18,2.95.53,5.92,1.39,8.7,2.5,1.75.58,3.43,1.81,5.22,2.21,6.37-.12,12.8.31,19.15-.32,1.7-.09,3.54.12,5.22.32,1.39,0,2.96,0,4.35,0,5.5,0,11.04,0,16.53,0,1.45-.17,2.93-.97,4.35-1.3,2.82-.8,5.8-1.32,8.7-1.68,3.43-.3,7.01-1,10.44-.44"/><path class="b" d="M8.54,224.36c2.87-.07,5.84.15,8.7-.11,4.01-1.96,8.7-2.28,13.05-1.54,2.06.29,4.11,1.09,6.09,1.65,4.33,0,8.72,0,13.05,0,9.56,0,19.15,0,28.72,0,8.94-6.67,21.12-5.96,31.33-2.94,3.19.89,6.33,2.25,9.57,2.94,1.4-.03,2.96.08,4.35-.09,4.38-1.8,9.28-2.2,13.92-1.3,2.04.23,4.03,1.42,6.09,1.39,5.79,0,11.62,0,17.4,0,.77,0,1.84,0,2.61,0,1.97-.56,4.08-1.08,6.09-1.48,2.57-.52,5.25-.99,7.83-1.42,1.98-.29,4.09-.79,6.09-.51"/><path class="b" d="M8.54,220.91c1.42.03,3.01.19,4.35.68,1.03.64,2.31.69,3.48.63,1.4,0,2.95,0,4.35,0,1.86-.92,4.03-1.35,6.09-1.41,2.97-.18,5.87.7,8.7,1.41,5.21,0,10.46,0,15.66,0,4.33,0,8.72.02,13.05-.01,1.38-.3,2.94-.49,4.35-.5,1.11,0,2.41.18,3.48.48,1.99.08,4.1.02,6.09.04.79,0,1.85.05,2.61-.18.73-.59,1.78-1.28,2.61-1.71,2.15-1.12,4.59-1.88,6.96-2.33,6.63-1.26,13.49-.47,20.02,1.03,3.98.83,8.07,2.27,12.18,1.64,1.71-.33,3.48-1.03,5.22-1.23,3.76-.52,7.68-.1,11.31.97,1.43.43,3,1.03,4.35,1.68.75.18,1.84.14,2.61.14,7.82,0,15.67,0,23.5,0,2.92-.5,5.83-1.52,8.7-2.25,1.66-.45,3.48-1.01,5.22-.88"/><path class="b" d="M8.54,217.5c2.76-.12,5.68.52,7.83,2.33,1.05.44,2.37.22,3.48.27,1.4-.01,2.95.03,4.35-.03,2.22-.7,4.69-.72,6.96-.33,3.1.71,6.41.22,9.57.36,5.21,0,10.46,0,15.66,0,2.58-.03,5.25.06,7.83-.05,1.65-.51,3.49-.86,5.22-.92,2.06-.13,4.12.51,6.09.97,1.4,0,2.96,0,4.35,0,.78,0,1.83,0,2.61,0,1.13-.55,2.32-1.47,3.48-1.97,2.71-1.26,5.74-1.95,8.7-2.29,4.33-.48,8.75-.2,13.05.41,3.75.5,7.52,1.4,11.31,1.54,2.35.14,4.72-.49,6.96-1.08,2.25-.46,4.68-.53,6.96-.31,2.65.27,5.35.94,7.83,1.91,1.44.46,2.85,1.56,4.35,1.8,4.04,0,8.14,0,12.18,0,6.08,0,12.2,0,18.27,0,2.6-.79,5.03-2.58,7.83-2.6"/><path class="b" d="M8.54,214.77c3.52-.32,6.88.97,9.57,3.2,6.37,0,12.78,0,19.15,0,2.58-.01,5.25.03,7.83-.02,1.07-.3,2.37-.49,3.48-.49,1.43-.08,2.94.46,4.35.52,3.75,0,7.56,0,11.31,0,1.14,0,2.37-.64,3.48-.82,1.96-.43,4.11-.48,6.09-.17,1.12.18,2.44.54,3.48.99,2.58,0,5.25.05,7.83-.03,9.21-6.14,21-3.71,31.33-2.82,1.99.13,4.12.11,6.09-.26,1.41-.27,2.93-.8,4.35-1,3.16-.48,6.47-.22,9.57.53,2.06.5,4.18,1.27,6.09,2.2.79.38,1.84.97,2.61,1.39.77,0,1.84,0,2.61,0,10.44,0,20.89,0,31.33,0,1.3-.81,2.8-1.67,4.35-1.81"/><path class="b" d="M8.54,212.53c3.05-.28,6.21.55,8.7,2.34.94.99,2.22,1.05,3.48.97,4.62,0,9.3,0,13.92,0,1.99,0,4.1,0,6.09,0,.84-.14,1.82-.7,2.61-.98,3.04-1.08,6.47-1.2,9.57-.29,1.15.27,2.31,1.09,3.48,1.27,1.99,0,4.1,0,6.09,0,1.4-.07,2.99.18,4.35-.21,3.88-1.45,8.33-1.27,12.18.21,2.58,0,5.25,0,7.83,0,1.19-.19,2.34-1.13,3.48-1.51,1.64-.65,3.49-1.13,5.22-1.44,7.49-1.41,15.1.03,22.63.06,2.96.07,5.84-.91,8.7-1.48,2.57-.4,5.28-.29,7.83.18,2.37.44,4.78,1.22,6.96,2.23,1.12.52,2.43,1.23,3.48,1.89.41.05,1.32.09,1.74.07,3.17,0,6.41,0,9.57,0,5.5,0,11.04,0,16.53,0,2.28,0,4.68,0,6.96,0,1.16.17,2.4-.46,3.48-.77"/><path class="b" d="M8.54,210.72c2.35-.25,4.84.16,6.96,1.22,1.23.47,2.2,1.75,3.48,1.77,5.79,0,11.62,0,17.4,0,.45,0,1.29,0,1.74,0,1.42-.62,2.86-1.58,4.35-2.05,3.9-1.35,8.31-1.38,12.18.07,1.17.44,2.47,1.13,3.48,1.87,1.68.23,3.53.06,5.22.11,1.4,0,2.96,0,4.35,0,1.97-.49,4.04-1.07,6.09-1,2.03,0,4.17.31,6.09.96,1.69.09,3.53.03,5.22.04,1.39,0,2.96,0,4.35,0,1.72-.51,3.44-1.46,5.22-1.81,7.69-1.98,15.68-.65,23.5-.87,3.27,0,6.38-1.32,9.57-1.77,6.09-.7,12.29,1.2,17.4,4.46h38.29"/><path class="b" d="M8.54,209.37c3.04-.43,6.2.47,8.7,2.2,6.08,0,12.2,0,18.27,0,1.51-.46,2.86-1.73,4.35-2.28,3.51-1.57,7.51-2.14,11.31-1.6,2.08.29,4.23.96,6.09,1.93,1.18.5,2.21,1.73,3.48,1.96,1.99,0,4.1,0,6.09,0,1.09,0,2.39,0,3.48,0,1.38-.28,2.93-.57,4.35-.58,2.32-.17,4.66.63,6.96.58,3.46,0,6.98,0,10.44,0,.82-.03,1.83-.49,2.61-.71,1.66-.49,3.5-.84,5.22-1.05,8.36-1.19,17.12,1.01,25.24-1.88,5.8-1.61,12.16-.41,17.4,2.4.76.4,1.72,1.17,2.61,1.23,1.99,0,4.1,0,6.09,0,10.73,0,21.47,0,32.2,0"/><path class="b" d="M8.54,208.58c1.39-.22,2.98-.19,4.35.16.79.2,1.78.7,2.61.71,6.08,0,12.2,0,18.27,0,7.85-6.23,20.18-6.85,27.85,0,11.31,0,22.63,0,33.94,0,1.42.01,2.94-.55,4.35-.68,1.98-.27,4.09-.41,6.09-.47,4.33-.15,8.74.16,13.05-.35,2.68-.23,5.24-1.36,7.83-1.97,4.04-.81,8.34-.31,12.18,1.13,1.13.43,2.44,1.05,3.48,1.66.36.33,1.24.7,1.74.67,4.04,0,8.14,0,12.18,0,8.98,0,17.99,0,26.98,0"/><path class="b" d="M8.54,207.31c7.53,0,15.09,0,22.63,0,.59.03,1.34-.41,1.74-.8,1.05-.75,2.33-1.55,3.48-2.13,4.52-2.29,9.78-3.17,14.79-2.39,4.12.64,8.19,2.37,11.31,5.17,3.42.4,6.99.05,10.44.16,6.08,0,12.2,0,18.27,0,6.37,0,12.78,0,19.15,0,3.47,0,7.04.09,10.44-.66,2.06-.4,4.06-1.42,6.09-1.9,3.12-.72,6.47-.61,9.57.17,1.12.29,2.43.74,3.48,1.23.77.35,1.76,1.02,2.61,1.16,4.33,0,8.72,0,13.05,0,9.27,0,18.57,0,27.85,0"/><path class="b" d="M8.54,205.18c6.66,0,13.36,0,20.02,0,1.74.29,2.97-1.33,4.35-2.09,1.6-1,3.44-1.89,5.22-2.52,8.47-3.1,18.42-1.31,25.24,4.61,18.27,0,36.55,0,54.82,0,1.69,0,3.53,0,5.22,0,2.99-1.31,6.28-2.15,9.57-1.83,1.42.11,3,.42,4.35.87,1.08.35,2.3,1.11,3.48.96,3.17-.02,6.41.04,9.57-.02,1.63-.56,3.5-.86,5.22-.91,1.4-.04,2.97.08,4.35.31,1.1.14,2.36.69,3.48.62,6.66,0,13.36,0,20.02,0"/><path class="b" d="M8.54,203.05c6.37,0,12.78,0,19.15,0,1.27-.34,2.34-1.56,3.48-2.18,1.87-1.18,4-2.18,6.09-2.88,8.83-3.04,19.04-1.03,26.11,5.06,18.85,0,37.71,0,56.56,0,3.75-.05,7.57.15,11.31-.17,1.7,0,3.52.25,5.22.17,3.17,0,6.41,0,9.57,0,1.47-.11,2.89-1.11,4.35-1.38,3.96-1.03,8.21-.97,12.18-.07,1.75.29,3.48,1.25,5.22,1.45,5.21,0,10.46,0,15.66,0"/><path class="b" d="M8.54,200.91h17.4c7.97-6.07,18.23-8.54,27.85-5.1,2.1.74,4.23,1.79,6.09,3.01,1.15.6,2.17,2.04,3.48,2.09,13.05,0,26.11,0,39.16,0,9.27,0,18.57,0,27.85,0,4.33-.05,8.73.11,13.05-.07,1.61-.84,3.47-1.53,5.22-1.99,3.66-.96,7.56-1.19,11.31-.74,2.34.28,4.74.84,6.96,1.62,1.1.33,2.32,1.09,3.48,1.18,4.33,0,8.72,0,13.05,0"/><path class="b" d="M8.54,198.78c3.46,0,6.98,0,10.44,0,1.69-.08,3.57.21,5.22-.2.43-.32,1.29-.94,1.74-1.23,11.1-7.39,25.32-7.19,35.68,1.43,22.91,0,45.84,0,68.75,0,2.87,0,5.83,0,8.7,0,1.74-.44,3.48-1.39,5.22-1.86,3.08-.97,6.35-1.57,9.57-1.7,3.79-.16,7.67.3,11.31,1.36,1.11.33,2.42.79,3.48,1.23.76.32,1.77.9,2.61.97,4.04,0,8.14,0,12.18,0"/><path class="b" d="M8.54,196.65c4.33,0,8.72,0,13.05,0,2.08-.94,3.98-2.52,6.09-3.42,9.85-4.98,22.55-4.66,31.33,2.4.96,1.07,2.15,1.09,3.48,1.02,1.09,0,2.39,0,3.48,0,3.46,0,6.98,0,10.44,0,10.73,0,21.47,0,32.2,0,8.98,0,17.99,0,26.98,0,3.69-1.28,7.45-2.6,11.31-3.26,4.57-.83,9.34-.91,13.92-.1,2.35.42,4.76,1.1,6.96,2,1.11.38,2.29,1.31,3.48,1.35,4.04,0,8.14,0,12.18,0"/><path class="b" d="M8.54,194.52c2.58,0,5.25,0,7.83,0,1.4-.09,3.03.25,4.35-.29,2.44-1.59,5.12-3.01,7.83-4.09,10.22-4.2,22.07-3.15,30.46,4.38,23.78,0,47.58,0,71.36,0,1.46.15,2.98-.39,4.35-.82,1.69-.5,3.52-1.03,5.22-1.47,5.09-1.32,10.41-2.05,15.66-1.68,3.23.22,6.51.84,9.57,1.9,1.11.39,2.43.93,3.48,1.47.34.28,1.29.6,1.74.6,2.58,0,5.25,0,7.83,0,1.72-.07,3.69.32,5.22-.66"/><path class="b" d="M8.54,192.39h10.44c5.31-3.24,11.17-5.87,17.4-6.58,7.4-.87,15.63.97,20.89,6.52,15.94.17,31.91,0,47.86.06,7.82-.03,15.68.07,23.5-.04,4.04-1,8.1-2.16,12.18-2.95,5.42-1.06,11.06-1.42,16.53-.6,2.64.39,5.34,1.08,7.83,2.06,1.41.45,2.81,1.67,4.35,1.53,2.58,0,5.25,0,7.83,0,1.09-.03,2.41.09,3.48-.13.74-.4,1.83-.89,2.61-1.22"/><path class="b" d="M8.54,190.26c3.17,0,6.41,0,9.57,0,4.67-2.54,9.53-4.99,14.79-6.01,6.41-1.32,13.48-.74,19.15,2.71,4.45,2.76,1.95,3.53,7.83,3.29.81,0,1.88.08,2.61-.35,1.06-.35,2.37-.53,3.48-.53,1.75-.05,3.54.52,5.22.88,1.4,0,2.95,0,4.35,0,13.05,0,26.11,0,39.16,0,3.75-.08,7.58.16,11.31-.11,5.75-1.35,11.52-2.87,17.4-3.49,4.91-.52,9.96-.41,14.79.63,2.04.44,4.17,1.08,6.09,1.9.76.33,1.79.91,2.61,1.07.4,0,1.33,0,1.74,0,3.46,0,6.99,0,10.44,0,1.44-.43,2.93-1.26,4.35-1.74"/><path class="b" d="M8.54,188.12c2.87,0,5.83,0,8.7,0,1.24.05,2.38-1.02,3.48-1.49,2.22-1.15,4.6-2.22,6.96-3.03,8.86-3.11,20.38-3.06,26.98,4.52,1.1,0,2.39,0,3.48,0,.8-.4,1.78-1.08,2.61-1.42,4.84-1.96,10.21-.63,14.79,1.42,10.73,0,21.47,0,32.2,0,5.21,0,10.46,0,15.66,0,7.71-1.81,15.53-3.73,23.5-3.68,4.09.01,8.25.52,12.18,1.68,1.11.33,2.42.79,3.48,1.25.74.34,1.76.9,2.61.75,4.33,0,8.72,0,13.05,0,1.74-.46,3.5-1.33,5.22-1.86"/><path class="b" d="M8.54,185.99c2.87,0,5.83,0,8.7,0,.9.17,1.86-.5,2.61-.9.77-.41,1.83-.95,2.61-1.32,2.76-1.32,5.72-2.43,8.7-3.13,6.03-1.4,12.79-1.26,18.27,1.87.85.49,1.91,1.3,2.61,1.99.31.48,1.19,1.29,1.74,1.49.77,0,1.84,0,2.61,0,3.75-3.85,9.83-4.05,14.79-2.99,1.74.39,3.57,1,5.22,1.67,1.11.39,2.29,1.21,3.48,1.32,4.62,0,9.3,0,13.92,0,9.27,0,18.57,0,27.85,0,1.95-.03,4.12-1.01,6.09-1.33,3.71-.83,7.52-1.5,11.31-1.84,7.69-.76,15.48.22,22.63,3.16,4.92,0,9.88,0,14.79,0,2.41.17,4.67-1.16,6.96-1.75"/><path class="b" d="M8.54,183.86c3.46-.05,6.99.1,10.44-.07,2.48-1.41,5.15-2.71,7.83-3.69,7.87-2.9,19.43-3.73,25.24,3.46.74.38,1.81.31,2.61.3,5.54-5.29,13.98-5.27,20.89-2.95,1.42.45,2.98,1.04,4.35,1.62,1.1.41,2.3,1.2,3.48,1.32,1.7,0,3.53,0,5.22,0,7.53,0,15.09,0,22.63,0,2.58,0,5.25,0,7.83,0,1.73.03,3.59.1,5.22-.57,10.15-2.74,21.2-3.67,31.33-.37.77.26,1.83.69,2.61.94,1.09,0,2.39,0,3.48,0,2.29,0,4.68,0,6.96,0,3.17,0,6.41,0,9.57,0,1.73-.28,3.53-.94,5.22-1.4"/><path class="b" d="M8.54,181.73c3.46,0,6.98,0,10.44,0,.53.09,1.33-.21,1.74-.52.77-.42,1.82-.97,2.61-1.35,2.2-1.06,4.6-1.97,6.96-2.6,5.68-1.48,12.1-1.63,17.4,1.16,1.28.68,2.61,1.78,3.48,2.94.7.47,1.81.38,2.61.38,5.31-5.5,13.85-5.97,20.89-4.12,2.34.61,4.73,1.45,6.96,2.37,1.69.57,3.38,1.87,5.22,1.75,9.27,0,18.57,0,27.85,0,2.87-.1,5.86.21,8.7-.15,5.32-1.69,10.96-2.51,16.53-2.44,3.19.04,6.46.4,9.57,1.13,1.42.33,2.99.8,4.35,1.31,1.07.25,2.39.12,3.48.15,5.21,0,10.46,0,15.66,0,2.28,0,4.68,0,6.96,0,1.11-.13,2.4-.55,3.48-.82"/><path class="b" d="M8.54,179.6c2.58,0,5.25,0,7.83,0,1.09,0,2.39,0,3.48,0,.49.09,1.32-.12,1.74-.38,8.8-5.01,21.81-7.74,29.59.38,1.59.07,2.5.07,3.48-1.29.98-.88,2.28-1.71,3.48-2.24,9.23-4.08,19.16-1.21,27.85,2.86,1.29.81,2.9.69,4.35.67,1.7,0,3.53,0,5.22,0,5.5,0,11.04,0,16.53,0,4.04,0,8.14,0,12.18,0,4.46-1.47,9.23-2.12,13.92-2.02,2.6.06,5.29.36,7.83.92,1.42.26,2.93.89,4.35,1.1,11.02-.01,22.05.03,33.07-.01"/><path class="b" d="M8.54,177.46c2.87,0,5.83,0,8.7,0,1.69-.07,3.55.17,5.22-.16,5.49-3.15,11.91-5.07,18.27-4.43,3.5.38,7.27,1.57,9.57,4.39.76.26,1.83.2,2.61.2,1.22-.67,2.23-2.03,3.48-2.68,2.88-1.71,6.27-2.55,9.57-2.91,6.95-.84,13.79,1.62,20.02,4.46,1.06.46,2.27,1.28,3.48,1.12,1.99,0,4.1,0,6.09,0,5.21,0,10.46,0,15.66,0,4.92,0,9.88,0,14.79,0,3.46-.64,6.87-1.43,10.44-1.25,2.01.04,4.13.27,6.09.67,1.67.49,3.49.67,5.22.57,11.89,0,23.79,0,35.68,0"/><path class="b" d="M8.54,175.33c4.92,0,9.88,0,14.79,0,4.81-2.57,10.15-4.44,15.66-4.3,4.05.1,8.57,1.1,11.31,4.3,1.1-.04,2.43.16,3.48-.26,1.16-1.31,2.77-2.39,4.35-3.11,8.48-3.77,16.96-2.73,25.24.93,1.73.71,3.52,1.67,5.22,2.44,1.99,0,4.1,0,6.09,0,4.92,0,9.88,0,14.79,0,24.66-.05,49.31.01,73.97,0"/><path class="b" d="M8.54,173.2c5.21,0,10.46,0,15.66,0,1.2-.14,2.37-1.04,3.48-1.46,1.92-.84,4.04-1.52,6.09-1.93,5.55-1.04,12.25-.83,16.53,3.32,1.09.13,2.38.06,3.48.08.51-.21,1.36-.86,1.74-1.25,1.01-.78,2.31-1.53,3.48-2.03,6.75-2.87,14.03-3,20.89-.41,1.74.61,3.57,1.38,5.22,2.18,1.11.46,2.27,1.39,3.48,1.51,6.66,0,13.36,0,20.02,0,24.94,0,49.9,0,74.84,0"/><path class="b" d="M8.54,171.07c5.79,0,11.62,0,17.4,0,2.44-1.31,5.13-2.35,7.83-2.94,3.4-.74,7.03-.88,10.44-.15,1.46.32,3.04.86,4.35,1.58.47.25,1.33.86,1.74,1.2.75.39,1.8.31,2.61.31.8,0,1.86.07,2.61-.25,1.23-1.11,2.83-2.04,4.35-2.68,7.05-2.9,13.82-2.96,20.89-.1,1.43.55,2.99,1.26,4.35,1.96.77.38,1.72,1.07,2.61,1.08,31.91,0,63.82,0,95.73,0"/><path class="b" d="M8.54,168.94c6.08,0,12.2,0,18.27,0,7.48-3.62,17.19-5.05,24.37,0,1.1,0,2.39,0,3.48,0,.83,0,1.89.1,2.61-.38,1.02-.75,2.32-1.47,3.48-1.97,5.61-2.34,11.59-3.04,17.4-1.04,2.72.78,5.28,2.21,7.83,3.38,7.24,0,14.51,0,21.76,0,8.4,0,16.83,0,25.24,0,3.46,0,6.98,0,10.44,0,1.69-.15,3.52-.32,5.22-.32,2.88,0,5.82.46,8.7.32,8.69,0,17.41,0,26.11,0"/><path class="b" d="M8.54,166.81c6.37,0,12.78,0,19.15,0,3.58-1.54,7.38-2.8,11.31-2.95,3.53-.18,7.2.31,10.44,1.76.8.35,1.74,1.05,2.61,1.19,1.7,0,3.53,0,5.22,0,.45.02,1.3-.02,1.74-.09,1.03-.68,2.33-1.33,3.48-1.78,5.63-2.24,10.82-2.58,16.53-.41,1.77.58,3.5,1.61,5.22,2.28,1.7,0,3.53,0,5.22,0,12.76,0,25.53,0,38.29,0,2.87,0,5.83,0,8.7,0,3.16-.33,6.39-.81,9.57-.81,2.9-.08,5.85.35,8.7.81,9.56,0,19.15,0,28.72,0"/><path class="b" d="M8.54,164.67c6.66,0,13.36,0,20.02,0,2.72-1.28,5.72-2.15,8.7-2.51,3.46-.42,7.08-.21,10.44.74,1.46.4,3,1.1,4.35,1.78,1.09,0,2.39,0,3.48,0,1.99,0,4.1,0,6.09,0,3.21-1.57,6.82-2.85,10.44-2.74,3.32.14,6.62,1.2,9.57,2.69,3.75.11,7.56.01,11.31.04,12.47-.02,24.95.03,37.42-.02,4.63-.32,9.28-1.05,13.92-1.08,2-.02,4.11.1,6.09.38,1.41.13,2.94.71,4.35.72,9.56,0,19.15,0,28.72,0"/><path class="b" d="M8.54,162.54c6.66,0,13.36,0,20.02,0,2.28-.7,4.58-1.68,6.96-2.03,3.43-.61,7.02-.61,10.44.04,2.07.39,4.2,1.06,6.09,1.99,1.99.01,4.1,0,6.09,0,2.29,0,4.67,0,6.96,0,1.96-.61,4-1.46,6.09-1.48,2.68-.15,5.31.73,7.83,1.48,7.53,0,15.09,0,22.63,0,8.69,0,17.41,0,26.11,0,4.63-.33,9.29-.91,13.92-1.12,2.58-.09,5.27,0,7.83.37,1.71.21,3.48.88,5.22.75,9.56,0,19.15,0,28.72,0"/><path class="b" d="M8.54,160.41c6.37,0,12.78,0,19.15,0,1.48.11,2.94-.82,4.35-1.14,2.52-.72,5.21-1.1,7.83-1.13,4.22-.14,8.23.96,12.18,2.27,4.33,0,8.72,0,13.05,0,15.66,0,31.33,0,46.99,0,6.08,0,12.2,0,18.27,0,4.04-.27,8.12-.87,12.18-.93,1.99-.03,4.11.06,6.09.33,1.4.15,2.93.67,4.35.6,10.14,0,20.31,0,30.46,0"/><path class="b" d="M8.54,158.28c6.37,0,12.78,0,19.15,0,3.4-.99,6.85-2.07,10.44-2.09,4.12-.14,8.32.54,12.18,1.97,1.98.26,4.1.06,6.09.12,17.98,0,35.97,0,53.95,0,8.4,0,16.83,0,25.24,0,2.59.04,5.24-.44,7.83-.41,2.89-.11,5.82.53,8.7.41,10.44,0,20.89,0,31.33,0"/><path class="b" d="M8.54,156.15c5.79,0,11.62,0,17.4,0,1.45-.18,2.92-.94,4.35-1.22,1.96-.48,4.08-.78,6.09-.86,3.2-.13,6.48.26,9.57,1.08,1.11.27,2.36.79,3.48,1,1.4,0,2.95,0,4.35,0,43.23-.03,86.42,0,129.66,0"/><path class="b" d="M8.54,154.02c4.92,0,9.88,0,14.79,0,2.56-.75,5.15-1.77,7.83-2.07,2.86-.41,5.84-.41,8.7-.01,2.66.35,5.32,1.16,7.83,2.08,3.75,0,7.56,0,11.31,0,10.44,0,20.89,0,31.33,0,3.17-.02,6.41.04,9.57-.03,2.23-.66,4.64-1.04,6.96-1.07,1.71-.02,3.55.16,5.22.54.77.17,1.8.56,2.61.56,6.95,0,13.94,0,20.89,0,15.95,0,31.91,0,47.86,0"/><path class="b" d="M8.54,151.88c3.75-.05,7.57.1,11.31-.06,6.47-2.98,13.97-3.79,20.89-2.04,2.07.46,4.1,1.41,6.09,2.11,3.17,0,6.41,0,9.57,0,7.53,0,15.09,0,22.63,0,6.08,0,12.2,0,18.27,0,3.95-1.02,8.07-1.89,12.18-1.32,1.73.2,3.58.63,5.22,1.24.77.11,1.84.08,2.61.08,6.95,0,13.94,0,20.89,0,15.08,0,30.17,0,45.25,0"/><path class="b" d="M8.54,149.75c2.58-.02,5.25.04,7.83-.03,1.65-.8,3.47-1.54,5.22-2.08,6.17-1.93,12.98-2.06,19.15-.03,1.78.51,3.5,1.52,5.22,2.14,3.46,0,6.98,0,10.44,0,7.53,0,15.09,0,22.63,0,5.5,0,11.04,0,16.53,0,1.75.07,3.5-.87,5.22-1.09,2.84-.54,5.84-.66,8.7-.28,1.74.23,3.59.7,5.22,1.34.77.05,1.84.04,2.61.04,6.66,0,13.36,0,20.02,0,15.37,0,30.75,0,46.12,0"/><path class="b" d="M8.54,147.62c1.7,0,3.52,0,5.22,0,2.03-.66,4.02-1.78,6.09-2.36,6.74-2.16,14.27-2.22,20.89.41,1.46.49,2.87,1.53,4.35,1.95,3.46,0,6.98,0,10.44,0,7.53,0,15.09,0,22.63,0,5.79,0,11.62,0,17.4,0,1.75.05,3.49-.9,5.22-1.11,2.55-.47,5.25-.6,7.83-.32,1.42.16,2.99.48,4.35.9,1.04.47,2.35.6,3.48.52,7.24,0,14.51,0,21.76,0,15.08-.03,30.17.05,45.25-.03"/><path class="b" d="M8.54,145.49c1.4,0,2.95,0,4.35,0,2.23-1.05,4.59-2.07,6.96-2.74,6.21-1.81,13.05-1.83,19.15.45,1.13.42,2.43,1.02,3.48,1.6.46.3,1.19.66,1.74.69,3.46,0,6.98,0,10.44,0,7.53,0,15.09,0,22.63,0,6.37,0,12.78,0,19.15,0,1.44.07,2.93-.73,4.35-.92,2.25-.45,4.67-.62,6.96-.45,1.41.1,2.98.36,4.35.73.77.21,1.79.66,2.61.64,7.53,0,15.09,0,22.63,0,15.37,0,30.75,0,46.12,0"/><path class="b" d="M8.54,143.36c1.4-.02,2.95.04,4.35-.05,1.92-.97,4.03-1.83,6.09-2.45,5.9-1.81,12.4-1.98,18.27,0,1.78.6,3.63,1.46,5.22,2.45,3.16.11,6.41.01,9.57.04,4.62,0,9.3,0,13.92,0,1.71.04,3.51-.42,5.22-.38,2-.07,4.1.26,6.09.38,6.95,0,13.93,0,20.89,0,1.43-.06,2.93-.72,4.35-.87,1.97-.32,4.1-.4,6.09-.23,1.74.14,3.57.58,5.22,1.1,1.09,0,2.39,0,3.48,0,6.66,0,13.36,0,20.02,0,15.37,0,30.75,0,46.12,0"/><path class="b" d="M8.54,141.22c1.4,0,2.95,0,4.35,0,.87-.02,1.83-.61,2.61-.92,1.08-.45,2.36-.93,3.48-1.27,5.32-1.64,11.16-1.89,16.53-.34,1.45.42,3.01,1.03,4.35,1.71.76.42,1.72.97,2.61.82,5.79,0,11.62,0,17.4,0,1.4,0,2.95.02,4.35-.02,1.33-.6,2.9-1.05,4.35-1.17,3.76-.34,7.64.02,11.31.88,1.64.51,3.53.25,5.22.31,2.29,0,4.68,0,6.96,0,2.87,0,5.83,0,8.7,0,1.68-.35,3.5-.76,5.22-.84,1.7-.1,3.54-.02,5.22.28,1.09.18,2.36.65,3.48.56,5.79,0,11.62,0,17.4,0,17.11,0,34.23,0,51.34,0"/><path class="b" d="M8.54,139.09c1.4,0,2.95,0,4.35,0,.81,0,1.85.07,2.61-.23,1.36-.62,2.92-1.2,4.35-1.62,5.06-1.48,10.6-1.6,15.66-.04,1.13.35,2.42.86,3.48,1.38.42.32,1.22.56,1.74.51,6.95,0,13.94,0,20.89,0,.52.06,1.32-.21,1.74-.5.76-.36,1.8-.76,2.61-.98,2.81-.72,5.84-.59,8.7-.37,2.01.18,4.13.52,6.09,1,1.4.33,2.89.99,4.35.85,5.79,0,11.62,0,17.4,0,1.11.07,2.39-.21,3.48-.36,1.69-.2,3.53-.22,5.22-.03,3.42.67,6.98.31,10.44.39,5.21,0,10.46,0,15.66,0,15.37,0,30.75,0,46.12,0"/><path class="b" d="M8.54,136.96c2.88,0,5.83,0,8.7,0,3.55-1.49,7.45-2.35,11.31-2.26,3.27.07,6.6.79,9.57,2.18,3.16.2,6.41.03,9.57.08,3.17,0,6.41,0,9.57,0,1.09,0,2.39,0,3.48,0,1.17-.27,2.34-1.11,3.48-1.48,5-1.73,10.55-.93,15.66-.08,2.04.32,4.08,1.15,6.09,1.56,1.4,0,2.96,0,4.35,0,31.03-.06,62.07.03,93.11,0"/><path class="b" d="M8.54,134.83c3.75,0,7.56,0,11.31,0,1.43-.12,2.92-.79,4.35-.98,2.56-.45,5.27-.48,7.83-.07,1.43.2,2.95.73,4.35,1.05,2.29,0,4.67,0,6.96,0,4.92,0,9.88,0,14.79,0,.8,0,1.85.07,2.61-.22.76-.44,1.8-.96,2.61-1.28,2.17-.91,4.62-1.22,6.96-1.18,3.78,0,7.62.42,11.31,1.19,1.1.23,2.4.56,3.48.88.78.22,1.78.67,2.61.62,4.04,0,8.14,0,12.18,0,27.84,0,55.7,0,83.54,0"/><path class="b" d="M8.54,132.7c6.66-.09,13.37.24,20.02-.25,9.83.51,19.73.14,29.59.25.45,0,1.3,0,1.74,0,1.34-.74,2.88-1.5,4.35-1.95,2.5-.83,5.23-.8,7.83-.7,3.78.17,7.61.63,11.31,1.41,1.72.29,3.49,1.03,5.22,1.24,8.69,0,17.41,0,26.11,0,22.91,0,45.84,0,68.75,0"/><path class="b" d="M8.54,130.57c16.53,0,33.07,0,49.6,0,.45,0,1.3,0,1.74,0,1.05-.59,2.34-1.19,3.48-1.58,2.48-.92,5.22-1,7.83-.87,4.07.17,8.18.64,12.18,1.34,2.01.24,4.07,1.09,6.09,1.11,7.82,0,15.67,0,23.5,0,23.49,0,47,0,70.49,0"/><path class="b" d="M8.54,128.43c16.53,0,33.07,0,49.6,0,.45,0,1.3,0,1.74,0,1.13-.29,2.36-.97,3.48-1.3,2.21-.75,4.65-.88,6.96-.73,4.06.19,8.16.68,12.18,1.22,2,.2,4.08.8,6.09.81,9.27,0,18.57,0,27.85,0,22.33,0,44.68,0,67.01,0"/><path class="b" d="M8.54,126.3c16.24,0,32.49,0,48.73,0,1.4-.07,3,.19,4.35-.21,2.45-1.01,5.19-1.46,7.83-1.2,4.36.23,8.71,1.02,13.05,1.42,11.02,0,22.05,0,33.07,0,22.62,0,45.26,0,67.88,0"/><path class="b" d="M8.54,124.17c13.92,0,27.85,0,41.77,0,4.04,0,8.14,0,12.18,0,1.97-.38,4.06-.89,6.09-.62,1.71.12,3.52.49,5.22.62,3.75,0,7.56,0,11.31,0,8.4,0,16.83,0,25.24,0,24.37,0,48.73-.02,73.1,0"/><path class="b" d="M8.54,122.04c44.38,0,88.77,0,133.15,0,1.39-.04,2.97.1,4.35-.11.75-.24,1.83-.51,2.61-.67,2.54-.51,5.25-.64,7.83-.4,1.41.13,2.98.4,4.35.75.74.22,1.82.52,2.61.44,6.66,0,13.36,0,20.02,0"/><path class="b" d="M8.54,119.91c43.22,0,86.44,0,129.66,0,1.99-.05,4.11.12,6.09-.11,3.5-1.65,7.46-2.39,11.31-2.33,2.32.04,4.73.4,6.96,1.03,1.43.32,2.89,1.23,4.35,1.4,5.5,0,11.04,0,16.53,0"/><path class="b" d="M8.54,116.96c1.15.55,2.19.95,3.48.81,1.7,0,3.52,0,5.22,0,4.92,0,9.88,0,14.79,0,13.63,0,27.27,0,40.9,0,2.29-.04,4.68.09,6.96-.07,2.22-.69,4.64-1.01,6.96-.98,2.35-.06,4.68.66,6.96,1.06,5.79,0,11.62,0,17.4,0,7.82,0,15.67,0,23.5,0,1.69,0,3.53,0,5.22,0,1.09-.05,2.45.17,3.48-.27,1.86-1.07,4.01-1.91,6.09-2.43,6.98-1.77,13.68-.48,20.02,2.7,4.62,0,9.3,0,13.92,0"/><path class="b" d="M8.54,114.18c1.12.41,2.39,1,3.48,1.47,1.99,0,4.1,0,6.09,0,4.33,0,8.72,0,13.05,0,12.76,0,25.53,0,38.29,0,2.87,0,5.83,0,8.7,0,3.02-1.23,6.31-1.98,9.57-2,3.25-.04,6.61.56,9.57,1.92,2.57.2,5.25.03,7.83.09,12.18,0,24.37,0,36.55,0,.85-.24,1.84-.96,2.61-1.38,1.61-.87,3.46-1.6,5.22-2.09,6.95-1.93,14.7-.94,20.89,2.79,1.41,1.16,3.53.53,5.22.68,2.58,0,5.25,0,7.83,0"/><path class="b" d="M8.54,111.74c1.44.48,2.93,1.27,4.35,1.77,3.75,0,7.56,0,11.31,0,8.7.01,17.41-.09,26.11,0,9.27,0,18.57,0,27.85,0,5.61-2.73,12.24-3.49,18.27-1.79,1.45.41,3.03,1.04,4.35,1.78,1.69.02,3.53,0,5.22.01,11.31,0,22.63,0,33.94,0,1.3.22,2.46-.85,3.48-1.48,1.04-.63,2.36-1.29,3.48-1.76,6.31-2.63,13.64-2.69,20.02-.25,2.12.81,4.27,1.95,6.09,3.3,1.36.35,2.96.13,4.35.19,1.99,0,4.1,0,6.09,0"/><path class="b" d="M8.54,109.67c1.72.48,3.38,1.84,5.22,1.71,3.75,0,7.56,0,11.31,0,3.22-.04,6.45.28,9.57-.64,4.28-.8,8.78-.85,13.05.06,1.68.52,3.47.68,5.22.59,1.99,0,4.1,0,6.09,0,6.37,0,12.78,0,19.15,0,.89.13,1.83-.56,2.61-.89,1.06-.47,2.36-.95,3.48-1.27,4.79-1.38,10.02-1.43,14.79.02,1.79.46,3.49,1.54,5.22,2.14,1.39,0,2.96,0,4.35,0,9.85,0,19.73,0,29.59,0,.78,0,1.87.07,2.61-.25.39-.33,1.32-.96,1.74-1.26,1.86-1.23,3.99-2.27,6.09-3,8.72-3.07,18.92-1.29,26.11,4.51h8.7"/><path class="b" d="M8.54,108.05c.8.3,1.84.76,2.61,1.13,1.69.16,3.52.04,5.22.08,3.75,0,7.56,0,11.31,0,1.16.12,2.4-.45,3.48-.77,1.38-.41,2.93-.77,4.35-1.01,6.08-1.04,12.54-.67,18.27,1.72,7.82.17,15.68,0,23.5.06,1.1-.05,2.44.17,3.48-.26,1.88-1.05,4.01-1.9,6.09-2.45,6.65-1.77,14.06-.92,20.02,2.59,3.73.32,7.57.04,11.31.13,6.95,0,13.94,0,20.89,0,.98.02,1.84-.99,2.61-1.48,1.59-1.12,3.44-2.14,5.22-2.9,6.86-2.96,14.89-2.9,21.76,0,1.78.74,3.63,1.74,5.22,2.84.74.49,1.66,1.48,2.61,1.53,2.28,0,4.68,0,6.96,0"/><path class="b" d="M8.54,106.98c4.02.34,8.15.04,12.18.13,1.99,0,4.1,0,6.09,0,.78-.32,1.82-.73,2.61-1.01,6.93-2.4,14.59-3.14,21.76-1.37,1.43.35,2.99.87,4.35,1.43,1.05.49,2.27,1.11,3.48.95,7.53,0,15.09,0,22.63,0,1.18-.28,2.36-1.17,3.48-1.62,2.18-.98,4.6-1.67,6.96-2.02,4.35-.65,8.88-.21,13.05,1.17,1.11.37,2.42.89,3.48,1.39,1.03.53,2.26,1.27,3.48,1.09,8.98-.04,18,.08,26.98-.05,7.97-7.01,19.82-8.96,29.59-4.8,1.77.72,3.62,1.69,5.22,2.73,1.14.6,2.16,1.99,3.48,2.12,1.99,0,4.1,0,6.09,0"/><path class="b" d="M8.54,104.98c3.75,0,7.56,0,11.31,0,1.99-.09,4.14.22,6.09-.19,10.29-4.6,22.68-6.02,33.07-.99.78.37,1.76,1,2.61,1.18,1.09,0,2.39,0,3.48,0,2.58,0,5.25,0,7.83,0,2.58,0,5.25,0,7.83,0,1.09,0,2.39.03,3.48-.04.42-.28,1.3-.81,1.74-1.05,6.32-3.46,14-3.92,20.89-2.03,1.73.47,3.57,1.11,5.22,1.82,1.1.39,2.28,1.31,3.48,1.3,7.53,0,15.09,0,22.63,0,11.84-10.21,27.1-9.28,39.16,0h6.09"/><path class="b" d="M8.54,102.85c5.5,0,11.04,0,16.53,0,9.42-4.14,19.32-6.86,29.59-4.32,3.71.79,7.12,2.59,10.44,4.32,6.66,0,13.36,0,20.02,0,1.28.2,2.42-.92,3.48-1.45,1.33-.73,2.9-1.39,4.35-1.85,8.69-2.81,18.07-.61,26.11,3.18,2.56.27,5.26.05,7.83.12,3.46-.04,6.99.09,10.44-.06,8.1-7.37,20.35-9.46,30.46-5.28,2.09.82,4.2,1.93,6.09,3.14,1.12.65,2.24,1.79,3.48,2.2,1.99,0,4.1,0,6.09,0"/><path class="b" d="M8.54,100.72c6.08-.02,12.2.03,18.27-.02,4.4-2.24,9.07-4.13,13.92-5.09,5.14-1.03,10.55-1.04,15.66.15,3.98.92,7.83,2.58,11.31,4.71,1.04.4,2.39.2,3.48.24,1.39,0,2.96,0,4.35,0,4.04-.01,8.14.03,12.18-.02,6.86-5.24,16.18-6.04,24.37-4.03,2.65.63,5.31,1.55,7.83,2.57,1.4.44,2.85,1.53,4.35,1.49,2.58,0,5.25,0,7.83,0,1.39-.08,3.02.24,4.35-.27,1.53-1.41,3.39-2.71,5.22-3.71,8.21-4.58,18.53-4.79,26.98-.72,1.77.83,3.61,1.89,5.22,3,.76.52,1.74,1.36,2.61,1.7,2.29,0,4.68,0,6.96,0"/><path class="b" d="M8.54,98.59c4.62,0,9.3,0,13.92,0,1.7,0,3.53,0,5.22,0,.81,0,1.88.09,2.61-.34,3.75-2.27,7.9-3.99,12.18-4.94,5.12-1.15,10.54-1.19,15.66-.05,4.27.99,8.54,2.59,12.18,5.07.73.35,1.82.28,2.61.27,1.39,0,2.96,0,4.35,0,3.75,0,7.56,0,11.31,0,8.07-6.34,19.25-6.8,28.72-3.66,3.26.97,6.39,2.52,9.57,3.66,2.58,0,5.25,0,7.83,0,8.6-7.64,20.63-9.97,31.33-5.5,2.1.86,4.22,2.02,6.09,3.3,1.13.64,2.16,2,3.48,2.2,2.58,0,5.25,0,7.83,0"/><path class="b" d="M8.54,96.46c8.4-.09,16.85.18,25.24-.1,10.53-8.13,26.36-7.93,37.42-.93.38.34,1.25.88,1.74,1.03.43,0,1.31,0,1.74,0,1.09,0,2.39,0,3.48,0,3.75,0,7.56,0,11.31,0,7.92-6.54,19.2-7.27,28.72-4.23,3.25,1.08,6.63,2.23,9.57,4.01,1.94.47,4.11.12,6.09.21,5.42-5.87,13.93-8.32,21.76-7.85,6.79.41,13.16,3.47,18.27,7.85h9.57"/><path class="b" d="M8.54,94.33c4.04,0,8.14,0,12.18,0,.81.03,1.83-.37,2.61-.56,1.37-.34,2.94-.58,4.35-.62,2.07-.11,4.19.38,6.09,1.18,1.39-.05,2.98.13,4.35-.15,8.66-8.42,26.73-7.52,35.68.08,5.49.11,11.05.13,16.53,0,8.13-6.78,19.84-7.56,29.59-4.16,3.01,1.07,6.21,2.16,8.7,4.23,1.4-.11,3.09.33,4.35-.39,1.4-1.68,3.32-3.09,5.22-4.14,7.36-4.04,16.5-4.71,24.37-1.75,2.44.91,4.85,2.2,6.96,3.73,1.4.82,2.55,2.8,4.35,2.56,3.17,0,6.41,0,9.57,0"/><path class="b" d="M8.54,92.19c3.17,0,6.41,0,9.57,0,6.49-2.9,15.87-5.26,21.76,0,.78,0,1.84,0,2.61-.03,6.88-8.35,24.65-7.03,32.2-.07,2.86.24,5.83.04,8.7.1,2.58-.06,5.27.14,7.83-.11,7.64-6.32,18.54-7.58,27.85-4.68,3.39,1.08,6.92,2.33,9.57,4.78h2.61c7.6-8.58,21.01-10.41,31.33-6.07,2.83,1.19,5.56,2.9,7.83,4.97.34.43,1.16,1.07,1.74,1.1,1.09,0,2.39,0,3.48,0,2.58,0,5.25,0,7.83,0"/><path class="b" d="M8.54,90.06c1.7,0,3.53,0,5.22,0,1.1-.05,2.46.2,3.48-.31,1.93-.98,4.04-1.9,6.09-2.59,7.11-2.34,16.17-2.89,21.76,2.9h1.74c3.07-4.31,8.94-5.39,13.92-5.36,5.81.12,10.17,1.99,14.79,5.36,5.5-.05,11.04.09,16.53-.06,7.18-5.86,17.28-7.42,26.11-4.98,3.35,1.07,7.16,2.1,9.57,4.81.75.28,1.82.23,2.61.2,2.31-3.64,6.48-5.7,10.44-7.05,6.46-2.11,13.67-2.01,20.02.47,2.46.95,4.88,2.31,6.96,3.93,1.17.75,2.11,2.32,3.48,2.68,4.04,0,8.14,0,12.18,0"/><path class="b" d="M8.54,87.93c2.29,0,4.68,0,6.96,0,3.17-1.32,6.24-3.13,9.57-4.09,8.01-2.53,18.47-2.85,24.37,4.09.44.04,1.31-.05,1.74-.16,2.3-3.3,6.63-4.4,10.44-4.56,5.05-.24,9.94,1.71,13.92,4.72h17.4c7.83-5.97,18.66-7.47,27.85-3.93,1.44.55,3.03,1.26,4.35,2.05.5.31,1.36,1.12,1.74,1.57.4.21,1.28.38,1.74.31.6-.23,1.41-1.16,1.74-1.7.7-.77,1.75-1.69,2.61-2.28,5.8-3.9,13.11-5.43,20.02-4.61,4.65.57,9.23,2.29,13.05,5.01,1.54.98,2.83,2.6,4.35,3.58h13.05"/><path class="b" d="M8.54,85.8c2.29,0,4.68,0,6.96,0,3.66-1.87,7.36-3.85,11.31-5.04,8.03-2.61,20.69-2.75,26.11,4.79.43.18,1.28.31,1.74.26,1.2-.67,2.18-2.04,3.48-2.57,3.78-1.82,8.34-1.6,12.18-.06,1.9.62,3.46,2.03,5.22,2.63.78,0,1.83,0,2.61,0,3.46,0,6.98,0,10.44,0,1.09,0,2.39,0,3.48,0,.8,0,1.87.08,2.61-.3,6.44-4.59,14.96-6.12,22.63-4.21,3.1.88,6.51,2.04,8.7,4.51h1.74c3.08-4.26,8.08-6.68,13.05-7.99,10.05-2.69,21.68.05,28.72,7.91,4.61.22,9.3.02,13.92.08"/><path class="b" d="M8.54,83.67c2.29,0,4.68,0,6.96,0,1.52-.37,2.94-1.47,4.35-2.12,2.22-1.16,4.6-2.26,6.96-3.11,7.78-2.82,16.83-3.24,24.37.52,1.55.78,3.16,1.9,4.35,3.18.98,1.54,1.74,1.63,3.48,1.53,2.63-2.82,6.92-3.23,10.44-2.08,1.13.34,2.43.87,3.48,1.42.42.28,1.23.64,1.74.67,2.29,0,4.68,0,6.96,0,3.17,0,6.41,0,9.57,0,1.09,0,2.39,0,3.48,0,.55.11,1.31-.16,1.74-.49,8.01-5.03,20.41-6.14,27.85.45.82.06,1.89.13,2.61-.34.67-.91,1.72-2,2.61-2.69,1.82-1.42,3.97-2.61,6.09-3.52,11.83-5.02,24.92-2.64,33.94,6.58h13.92"/><path class="b" d="M8.54,81.53c2.58,0,5.25,0,7.83,0,1.83-.54,3.5-1.88,5.22-2.69,2.49-1.33,5.15-2.54,7.83-3.43,9.83-3.39,23.49-2.59,30.46,5.97,1.08.25,2.39.12,3.48.15,1.57-.83,3.46-1.26,5.22-.87,1.12.17,2.38.65,3.48.87,1.7,0,3.53,0,5.22,0,4.33,0,8.72,0,13.05,0,1.99,0,4.1,0,6.09,0,1.23.17,2.37-.96,3.48-1.35,1.63-.74,3.47-1.35,5.22-1.73,4.28-.93,8.92-.89,13.05.67,1.62.5,2.89,1.79,4.35,2.41.77,0,1.84.02,2.61-.05,8.78-8.89,23.39-11.78,34.81-6.59,2.49,1.12,4.91,2.67,6.96,4.48.77.65,1.64,1.79,2.61,2.16,1.39,0,2.96,0,4.35,0,3.17,0,6.41,0,9.57,0"/><path class="b" d="M8.54,79.4c3.17,0,6.41,0,9.57,0,5.38-3.38,11.11-6.51,17.4-7.74,9.93-2.12,20.55.61,27.85,7.74,8.4,0,16.83,0,25.24,0,3.46,0,6.98,0,10.44,0,2.27-.76,4.56-1.83,6.96-2.2,3.73-.68,7.77-.63,11.31.85.81.34,1.78,1.06,2.61,1.35,1.1-.05,2.46.2,3.48-.32,2.87-1.68,5.72-3.6,8.7-5.09,6.65-3.34,14.42-4.77,21.76-3.18,3.71.79,7.33,2.34,10.44,4.5,1.16.81,2.47,1.89,3.48,2.88.54.78,1.61,1.38,2.61,1.21,4.33,0,8.72,0,13.05,0"/><path class="b" d="M8.54,77.27c3.75-.01,7.56.03,11.31-.02,14.85-10.78,31.56-12.24,46.12-.09,11.29.28,22.64,0,33.94.1,2.08.23,4.08-.66,6.09-1.02,2.85-.51,5.91-.55,8.7.28.45.14,1.32.5,1.74.71,1.39.05,2.96.02,4.35.03.87-.15,1.8-.91,2.61-1.24,1.11-.38,2.44-.83,3.48-1.4,4.91-2.7,10.07-5.25,15.66-6.1,9.41-1.64,19.61,1.46,26.11,8.55,1.66.38,3.53.11,5.22.19,3.17,0,6.41,0,9.57,0"/><path class="b" d="M8.54,75.14c2.87,0,5.83,0,8.7,0,1.4,0,2.95,0,4.35,0,.49-.19,1.34-.75,1.74-1.09,8.55-6.49,19.99-9.6,30.46-6.47,5.05,1.34,9.48,4.27,13.92,6.9,1.25.88,2.92.65,4.35.67,1.99,0,4.1,0,6.09,0,5.79,0,11.62,0,17.4,0,7.24,0,14.51-.02,21.76,0,.77,0,1.84,0,2.61,0,.81-.26,1.81-.86,2.61-1.15,1.06-.39,2.42-.54,3.48-.95,1.12-.44,2.41-1.09,3.48-1.64,12.94-7.28,28.42-7.68,39.16,3.67,4.91.18,9.88.01,14.79.07"/><path class="b" d="M8.54,73.01h15.66c9.05-8.29,22.5-11.17,33.94-6.4,4.23,1.69,8.14,4.2,12.18,6.27,3.14.31,6.41.04,9.57.13,5.5,0,11.04,0,16.53,0,5.21,0,10.46,0,15.66,0,1.69,0,3.53,0,5.22,0,1.1-.05,2.46.19,3.48-.3,1.88-.95,4.18-.77,6.09-1.59,2.92-1.29,5.73-3.02,8.7-4.19,11.2-4.83,24.6-3.05,33.07,6.08h14.79"/><path class="b" d="M8.54,70.88c6.08-.04,12.2.09,18.27-.05,8.11-8.47,21.51-10.62,32.2-6.15,4.23,1.66,8.12,4.19,12.18,6.2,8.69,0,17.41,0,26.11,0,5.79,0,11.62,0,17.4,0,2.29,0,4.68,0,6.96,0,1.07-.26,2.38-.36,3.48-.39,1.86-.3,3.6-1.41,5.22-2.31,1.94-1.1,4.03-2.21,6.09-3.07,11.14-4.8,23.58-2.98,32.2,5.77h14.79"/><path class="b" d="M8.54,68.74c6.95-.01,13.94.02,20.89-.01,7.25-8.62,20.48-10.02,30.46-5.75,2.69,1.09,5.31,2.57,7.83,3.99,1.12.52,2.25,1.55,3.48,1.78,9.27,0,18.57,0,27.85,0,9.56,0,19.15,0,28.72,0,1.58-.38,2.94-1.75,4.35-2.51,1.9-1.19,4.01-2.3,6.09-3.14,10.97-4.41,21.85-2.47,30.46,5.65h14.79"/><path class="b" d="M8.54,66.61c3.75,0,7.56,0,11.31,0,1.36-.48,2.89-1.04,4.35-1.11,1.46-.09,3.11.2,4.35,1.01,1.08.17,2.39.08,3.48.1,2.24-3.23,5.89-5.29,9.57-6.45,6.26-1.98,13.18-1.26,19.15,1.38,2.07.89,4.16,2.04,6.09,3.19,1.11.57,2.26,1.58,3.48,1.88.45,0,1.3,0,1.74,0,9.27,0,18.57,0,27.85,0,9.56,0,19.15,0,28.72,0,.79,0,1.87.07,2.61-.26.41-.35,1.31-1.02,1.74-1.35,1.86-1.34,3.98-2.55,6.09-3.46,7.12-3.12,15.61-3.31,22.63.19,1.49.73,3.06,1.73,4.35,2.77.76.62,1.72,1.65,2.61,2.1h14.79"/><path class="b" d="M8.54,64.48c3.46,0,6.98,0,10.44,0,.85-.18,1.82-.83,2.61-1.16,1.05-.45,2.35-.82,3.48-.96,2.05-.27,4.34,0,6.09,1.16.82,1.02,2.29,1.11,3.48.85,3.7-5.51,11.13-7.19,17.4-6.7,6.05.5,11.62,3.38,16.53,6.79,16.53.08,33.07,0,49.6.03,3.17,0,6.41,0,9.57,0,1.09,0,2.39,0,3.48,0,.84.02,1.93.11,2.61-.49,6.82-5.79,16.68-8.06,25.24-5.24,2.12.69,4.26,1.74,6.09,3.02,1.16.75,2.29,2.01,3.48,2.71h14.79"/><path class="b" d="M8.54,62.35c2.29,0,4.68,0,6.96,0,1.39-.08,3.01.22,4.35-.25,3.47-2.38,8.17-3.51,12.18-1.92.92.36,1.98,1.16,2.61,1.92.41.18,1.29.31,1.74.25.51-.35,1.38-1.26,1.74-1.76.96-.95,2.26-1.86,3.48-2.44,7.59-3.67,16.71-1.67,23.5,2.86.45.28,1.31.88,1.74,1.19,1.67.34,3.53.1,5.22.17,3.46,0,6.98,0,10.44,0,17.69-.03,35.4.07,53.08-.04,8.99-8.24,24.24-8.69,33.07.04h14.79"/><path class="b" d="M8.54,60.22c3.75,0,7.56,0,11.31,0,1.9-1.1,3.91-2.33,6.09-2.78,3.56-.82,7.97-.45,10.44,2.53.43.17,1.28.3,1.74.25,1.17-.86,2.18-2.29,3.48-2.99,4.41-2.6,9.94-2.8,14.79-1.47,2.09.58,4.21,1.5,6.09,2.58,1.13.54,2.2,1.74,3.48,1.87,4.92,0,9.88,0,14.79,0,2.58,0,5.25,0,7.83,0,2.56-.39,5.21-1.03,7.83-.77,1.72.05,3.52.53,5.22.77,3.17,0,6.41,0,9.57,0,7.24,0,14.51,0,21.76,0,1.39,0,2.96,0,4.35,0,.88-.35,1.83-1.24,2.61-1.76,2.6-1.76,5.63-3.02,8.7-3.67,5.24-1.12,10.9-.44,15.66,2.03,1.15.6,2.46,1.44,3.48,2.25.6.63,1.69,1.34,2.61,1.15,4.33,0,8.72,0,13.05,0"/><path class="b" d="M8.54,58.09c4.04,0,8.14,0,12.18,0,.5-.05,1.35-.46,1.74-.77,1.03-.6,2.34-1.16,3.48-1.49,3.84-1.14,8.39-.68,11.31,2.26h1.74c4.56-4.64,11.36-5.41,17.4-3.56,1.78.54,3.62,1.37,5.22,2.31.79.42,1.66,1.29,2.61,1.25,5.5,0,11.04,0,16.53,0,1.4-.03,2.96.07,4.35-.08,1.34-.66,2.91-1.23,4.35-1.6,5.45-1.39,11.32-.74,16.53,1.28,1.29.66,2.95.32,4.35.4,2.29,0,4.68,0,6.96,0,6.95,0,13.94,0,20.89,0,.44.05,1.32-.06,1.74-.21.4-.35,1.3-1.02,1.74-1.32,1.31-.89,2.88-1.72,4.35-2.31,6.39-2.61,13.95-2.29,20.02,1.05,1.5.73,2.87,2.06,4.35,2.8,4.33,0,8.72,0,13.05,0"/><path class="b" d="M8.54,55.95c4.62,0,9.3,0,13.92,0,1.81.16,3.45-1.14,5.22-1.36,1.99-.37,4.21-.29,6.09.51.42.24,1.3.66,1.74.85.77,0,1.84,0,2.61,0,5.04-4.08,11.25-4.92,17.4-3.05,1.46.45,3.02,1.13,4.35,1.87.79.4,1.67,1.24,2.61,1.18,4.33,0,8.72,0,13.05,0,1.4,0,2.95,0,4.35,0,1.14,0,2.54.15,3.48-.62,6.04-3.36,13.37-3.85,20.02-2.22,1.73.41,3.56,1.01,5.22,1.66,1.1.36,2.29,1.22,3.48,1.19,8.4,0,16.83,0,25.24,0,1.39-.06,2.99.17,4.35-.19.72-.61,1.8-1.37,2.61-1.87,2.38-1.44,5.1-2.46,7.83-2.97,4.97-.93,10.27-.18,14.79,2.08,1.14.57,2.45,1.36,3.48,2.12,0,0,.87.67.87.67l.87.16c3.75,0,7.56,0,11.31,0"/><path class="b" d="M8.54,53.82c8.69,0,17.41,0,26.11,0,.91.15,1.92-.38,2.61-.92.75-.46,1.8-.99,2.61-1.32,2.46-.99,5.18-1.52,7.83-1.55,2.95-.03,5.98.56,8.7,1.7,1.48.51,2.85,1.67,4.35,2.09,1.09,0,2.39,0,3.48,0,5.21,0,10.46,0,15.66,0,.5-.07,1.35-.5,1.74-.81,1.05-.64,2.35-1.31,3.48-1.79,3.28-1.38,6.89-2.11,10.44-2.19,4.42-.11,8.88.76,13.05,2.2,1.41.48,2.98,1.1,4.35,1.69.75.32,1.77.88,2.61.91,8.98,0,17.99,0,26.98,0,7.18-5.68,16.85-7.12,25.24-3.27,1.81.81,3.65,1.92,5.22,3.13,3.43.37,6.99.05,10.44.15"/><path class="b" d="M8.54,51.69c7.53,0,15.09,0,22.63,0,3.15-1.12,6.25-2.67,9.57-3.27,3.7-.77,7.64-.78,11.31.14,1.77.44,3.61,1.16,5.22,2.02.77.38,1.69,1.21,2.61,1.1,6.37-.01,12.78.03,19.15-.02,6.86-5.21,16.04-6.59,24.37-4.9,5.14.92,9.94,3.12,14.79,4.92,8.4,0,16.83,0,25.24,0,7.09-5.72,16.81-7.26,25.24-3.67,9.89,4.67,2.04,3.56,14.79,3.67"/><path class="b" d="M8.54,49.56c5.21-.02,10.46.03,15.66-.02,4.67-1.01,9.23-2.66,13.92-3.53,4.29-.79,8.82-.84,13.05.32,2.43.66,4.86,1.75,6.96,3.14,3.74.21,7.57.02,11.31.08,2.58,0,5.25,0,7.83,0,1.31-.03,2.35-1.39,3.48-1.94,1.61-.98,3.45-1.86,5.22-2.49,11.66-4.19,22.18-.33,33.07,3.96,1.6.71,3.52.41,5.22.47,2.87,0,5.83,0,8.7,0,2.29,0,4.68,0,6.96,0,1.39-.06,2.99.16,4.35-.18,1.54-1.29,3.4-2.47,5.22-3.33,7.7-3.69,17.26-2.96,24.37,1.76.76.51,1.76,1.36,2.61,1.75,2.28,0,4.68,0,6.96,0"/><path class="b" d="M8.54,47.43c3.75,0,7.56,0,11.31,0,5.44-1.56,10.94-3.21,16.53-4.13,4.31-.68,8.81-.71,13.05.36,1.76.44,3.6,1.12,5.22,1.93,1.13.51,2.29,1.49,3.48,1.83,6.37,0,12.78,0,19.15,0,7.67-6.34,18.32-8.01,27.85-5.63,5.39,1.19,10.41,3.68,15.66,5.3,1.05.38,2.38.33,3.48.32,1.69,0,3.53,0,5.22,0,4.92,0,9.88,0,14.79,0,7.05-6.12,17.49-7.93,26.11-4.25,1.48.62,3.05,1.48,4.35,2.41.78.54,1.69,1.53,2.61,1.84,1.99,0,4.1,0,6.09,0"/><path class="b" d="M8.54,45.29c2.29,0,4.67,0,6.96,0,.79,0,1.83,0,2.61,0,.46-.16,1.29-.5,1.74-.67,8.05-2.81,16.63-5.39,25.24-4.28,4,.53,7.96,1.93,11.31,4.19.66.65,1.72.84,2.61.75,1.4,0,2.96,0,4.35,0,4.04,0,8.14,0,12.18,0,.45.05,1.31-.06,1.74-.21.42-.36,1.29-1.04,1.74-1.36,1.04-.74,2.34-1.54,3.48-2.12,3.49-1.79,7.4-2.86,11.31-3.17,4.99-.41,10.06.42,14.79,1.98,4.13,1.3,8.06,3.31,12.18,4.6,1.04.39,2.39.27,3.48.29,1.69,0,3.53,0,5.22,0,4.91,0,9.88,0,14.79,0,9.27-8.05,24.11-9.03,33.07,0,1.98-.11,4.16.26,6.09-.22"/><path class="b" d="M8.54,43.16c2.87-.02,5.83.04,8.7-.03,1.94-.93,4.06-1.76,6.09-2.48,6.38-2.26,13.21-3.91,20.02-3.18,3.62.38,7.25,1.46,10.44,3.22,1.15.64,2.45,1.51,3.48,2.34,1.68.25,3.53.07,5.22.12,4.33,0,8.72,0,13.05,0,.93.14,2-.27,2.61-.98,1.03-.83,2.33-1.72,3.48-2.37,3.45-1.96,7.37-3.19,11.31-3.61,10.19-1.13,18.05,2.88,26.98,6.9,8.11.18,16.26,0,24.37.06,9.11-8.21,24.39-9.46,33.07,0h4.35c.41-.41,1.28-1.17,1.74-1.53"/><path class="b" d="M8.54,41.03c2.58,0,5.25,0,7.83,0,4.8-2.11,9.65-4.32,14.79-5.47,6.9-1.66,14.45-1.4,20.89,1.78,1.14.56,2.44,1.33,3.48,2.06,1,.75,2.1,1.9,3.48,1.63,6.08-.02,12.2.03,18.27-.02,7.27-6.95,18.37-8.66,27.85-5.94,3,.83,5.96,2.08,8.7,3.53.78.41,1.84,1,2.61,1.45.75.42,1.7,1.16,2.61.98,8.4,0,16.83,0,25.24,0,6.79-6.45,17.42-8.75,26.11-5.01,1.52.66,3.1,1.62,4.35,2.71,1.05.88,1.85,2.63,3.48,2.3.43,0,1.31,0,1.74,0,1.26-.56,2.27-1.93,3.48-2.6"/><path class="b" d="M8.54,38.9c2.58,0,5.25,0,7.83,0,3.35-1.79,6.87-3.44,10.44-4.72,11-4.04,22.29-3.12,31.33,4.73,4.33,0,8.72,0,13.05,0,1.4,0,2.96,0,4.35,0,.82.01,1.91.1,2.61-.42,10.52-9.84,27.5-8.11,38.29.42,9.27-.04,18.58.08,27.85-.05,8.28-8.45,24.51-9.88,32.2.05h2.61c1.23-1.31,2.76-2.6,4.35-3.44"/><path class="b" d="M8.54,36.77c2.58,0,5.25,0,7.83,0,3.65-2,7.38-4.04,11.31-5.44,10.09-3.91,22.7-2.76,30.46,5.29,2.26.36,4.68.07,6.96.16,4.33,0,8.72,0,13.05,0,7.34-7,18.43-8.75,27.85-5.28,2.1.75,4.23,1.79,6.09,3.02.82.54,1.88,1.37,2.61,2.03.75.29,1.82.23,2.61.23,5.79,0,11.62,0,17.4,0,3.16-.1,6.44.22,9.57-.15,5.25-5.49,13.48-7.79,20.89-6.4,4.08.8,8.29,2.84,10.44,6.55.78,0,1.84.02,2.61-.05,1.22-1.84,3.27-3.1,5.22-4.03"/><path class="b" d="M8.54,34.64c2.58,0,5.25,0,7.83,0,1.51-.51,2.94-1.66,4.35-2.39,2.21-1.26,4.59-2.46,6.96-3.39,10.9-4.43,22.96-2.76,31.33,5.78h20.02c9.13-9.21,25.56-8.86,34.81,0,2.29,0,4.68,0,6.96,0,1.9-.8,4.08-.75,6.09-.89,3.21-.29,6.5-.14,9.57.89,1.69,0,3.53,0,5.22,0,1.45.03,2.55.16,3.48-1.16,7.46-7.21,23.36-8.51,29.59.85.74.39,1.82.36,2.61.15,1.37-2.15,3.8-3.42,6.09-4.34"/><path class="b" d="M8.54,32.5c2.87-.03,5.83.06,8.7-.04,5.49-3.84,11.56-7.28,18.27-8.28,8.46-1.36,17.77,1.4,23.5,7.92.98.64,2.37.34,3.48.4,1.39,0,2.96,0,4.35,0,4.33,0,8.72,0,13.05,0,8.68-8.83,24.25-8.4,33.07,0,1.98-.12,4.18.3,6.09-.26,1.02-.61,2.32-1.11,3.48-1.36,4.87-.65,10.31-1.17,14.79,1.24,1.27.69,2.96.27,4.35.37,1.53.07,2.51.08,3.48-1.28,6.11-5.73,15.9-7.23,23.5-3.74,1.19.56,2.51,1.42,3.48,2.31.85.74,1.59,2.17,2.61,2.71.43,0,1.31,0,1.74-.02,1.47-2.52,4.3-3.8,6.96-4.68"/><path class="b" d="M8.54,30.37c2.87,0,5.83,0,8.7,0,1.6-.49,2.91-2,4.35-2.83,2.17-1.46,4.55-2.81,6.96-3.82,10.42-4.68,24.02-2.59,31.33,6.57,6.94.21,13.94.01,20.89.08,8.3-8.23,22.94-7.97,31.33,0,1.09,0,2.39,0,3.48,0,.82.01,1.9.1,2.61-.41,1-.69,2.32-1.3,3.48-1.65,2.51-.72,5.24-.84,7.83-.86,3.39,0,6.82.9,9.57,2.92,1.4,0,2.96,0,4.35,0,1.02-.3,1.8-1.54,2.61-2.16,1.27-1.06,2.85-2.02,4.35-2.69,7.78-3.47,18.28-2.45,23.5,4.85h1.74c2.2-2.7,4.52-3.83,7.83-4.7"/><path class="b" d="M8.54,28.24h9.57c4.86-3.97,10.28-7.58,16.53-8.85,9.51-2.21,19.9,1.32,26.11,8.85,3.75-.02,7.57.1,11.31-.15,3.15.29,6.41.11,9.57.15,7.94-7.48,21.65-7.52,29.59,0,1.99-.06,4.12.13,6.09-.11,1.24-1,2.84-1.81,4.35-2.3,5.35-1.44,11.71-1.76,16.53,1.34.39.36,1.23.92,1.74,1.07.43,0,1.31,0,1.74,0,.83.01,1.91.1,2.61-.44,6.72-7.9,22.73-8.69,28.72.44.79,0,1.87.08,2.61-.27,1.77-2.58,4.92-3.57,7.83-4.2"/><path class="b" d="M8.54,26.11c1.99,0,4.1,0,6.09,0,1.39-.06,2.99.18,4.35-.2,12.78-12.41,30.37-13.32,42.64.2,3.76.02,7.57.05,11.31-.26,3.15.43,6.4.22,9.57.26.87-.44,1.81-1.38,2.61-1.91,1.56-1.04,3.42-1.87,5.22-2.38,6.76-1.85,14.73-.6,20.02,4.19,1.69.19,3.53.05,5.22.09.44.03,1.31-.04,1.74-.13.42-.33,1.28-.92,1.74-1.18,1.04-.58,2.34-1.12,3.48-1.46,5.75-1.53,12.85-1.61,17.4,2.77,1.09,0,2.39,0,3.48,0,.59-.15,1.4-.92,1.74-1.39.97-.95,2.28-1.9,3.48-2.54,5.56-2.93,12.53-3.25,18.27-.66,1.57.72,3.17,1.81,4.35,3.08.98,1.54,1.76,1.61,3.48,1.52.95-.36,1.77-1.49,2.61-2.02,1.77-1.2,4.03-1.61,6.09-1.99"/><path class="b" d="M8.54,23.98h10.44c5.1-4.72,10.39-8.45,17.4-9.68,9.26-1.74,19.47,1.89,25.24,9.41,1.33.51,2.96.19,4.35.27,2.29-.01,4.68.09,6.96-.19,3.16.22,6.4.2,9.57.19.97.2,1.93-.6,2.61-1.18.74-.53,1.79-1.16,2.61-1.54,3.22-1.5,6.91-2.05,10.44-1.78,4.04.33,8.14,1.67,11.31,4.24,1.89.56,4.13.13,6.09.26.43,0,1.31,0,1.74,0,.44-.24,1.32-.77,1.74-1.05,1.31-.77,2.89-1.42,4.35-1.83,5.46-1.45,12.27-1.49,16.53,2.74,1.08.24,2.39.12,3.48.14.62-.08,1.4-.83,1.74-1.31,1.45-1.41,3.34-2.54,5.22-3.28,7.3-2.86,16.54-1.59,21.76,4.59,1.1-.05,2.44.17,3.48-.26,1.99-2.17,5.04-2.73,7.83-3.04"/><path class="b" d="M8.54,21.85c3.46,0,6.98,0,10.44,0,.67-.06,1.36-.72,1.74-1.22.43-.43,1.29-1.26,1.74-1.65,2.08-1.81,4.48-3.43,6.96-4.63,11.21-5.71,25.39-2.44,33.07,7.5h21.76c5.88-4.56,14.12-5.13,20.89-2.28,1.5.54,2.89,1.68,4.35,2.28,2.87,0,5.83,0,8.7,0,5.27-3.47,12.29-4.79,18.27-2.5.83.33,1.9.94,2.61,1.48.35.41,1.19.99,1.74,1.02,1.09-.03,2.41.1,3.48-.15,6.4-7.36,20.55-7.33,26.98-.01,1.07.28,2.39.14,3.48.17.91.18,1.89-.51,2.61-.99,1.82-1.02,4.05-1.15,6.09-1.31"/><path class="b" d="M8.54,19.71h11.31c8.1-9.48,21.57-13.48,33.07-7.94,2.5,1.17,4.92,2.77,6.96,4.62,1.19.94,2.14,2.59,3.48,3.32,6.95,0,13.93,0,20.89,0,.55.03,1.35-.39,1.74-.75.74-.47,1.8-1.02,2.61-1.35,3.27-1.32,6.95-1.67,10.44-1.24,2.05.25,4.18.81,6.09,1.61,1.44.45,2.79,1.87,4.35,1.73,2.58,0,5.25,0,7.83,0,.43,0,1.31,0,1.74,0,1.45-.5,2.88-1.5,4.35-1.97,3.84-1.44,8.22-1.85,12.18-.67,1.16.35,2.49.97,3.48,1.67.31.38,1.24.92,1.74.98,1.09,0,2.39,0,3.48,0,6.67-6.84,19.11-6.82,26.11-.47.68.58,1.78.49,2.61.47,1.09,0,2.39,0,3.48,0,.85.15,1.81-.45,2.61-.64,1.37-.31,2.95-.3,4.35-.32"/></svg>