<?xml version="1.0" encoding="UTF-8"?><svg id="a" xmlns="http://www.w3.org/2000/svg" width="1920" height="2400" viewBox="0 0 192 240"><defs><style>.b{fill:none;stroke:#fff;stroke-miterlimit:10;stroke-width:.3px;}.c{stroke-width:0px;}</style></defs><rect class="c" x="0" width="192" height="240"/><path class="b" d="M7.81,222.27c7.11-1.79,11.66.43,18.43,1.63,1.4.22,2.97.33,4.39.26,2.01-.24,4.13-.44,6.14-.14,4.05.63,8.18,1.12,12.29.93,2.33-.06,4.7-.67,7.02-.81,5.57-.51,11.11,1.24,16.67.72,3.79-.01,7.62,1.13,11.41.51,3.3-.47,6.46-1.8,9.65-2.69,2.26-.56,4.7-.76,7.02-.66,2.92.12,5.89.66,8.78,1.1,2.04.28,4.23.45,6.14,1.27,5,2,9.46,5.67,14.92,6.41,3.68.35,7.19-1.37,10.53-2.68,3.96-1.64,8.09-3.06,12.29-3.95,4.65-.79,9.43-1.09,14.04-2.18,2.63-.5,5.26-1.4,7.9-1.87,2.87-.51,5.9-.46,8.78-.02"/><path class="b" d="M7.81,219.92c2.01-.29,4.13-.21,6.14-.08,2.01.07,4.14.1,6.14.23,2.91.17,5.88.63,8.78.94,1.71.22,3.57.1,5.27.37,2.32.41,4.67,1.16,7.02,1.4,4.44.41,8.87-.84,13.16-1.78,4.32-1.07,8.84-.74,13.16.14,2.28.49,4.72.41,7.02.73,4.09.82,8.32,1.43,12.29-.28,3.99-1.61,7.88-3.86,12.29-4.04,3.2-.26,6.48.12,9.65.49,2.01.28,4.21.25,6.14.93,4.79,1.72,8.62,5.36,13.16,7.58,6.35,3.49,13.18-1.01,19.31-2.94,1.98-.67,4.09-1.39,6.14-1.78,2.58-.43,5.3-.43,7.9-.67,3.27-.28,6.59-.97,9.65-2.15,4.11-1.82,8.66-3.05,13.16-2.23"/><path class="b" d="M7.81,217.8c2.35,0,4.69.77,7.02.83,2.61.01,5.29-.35,7.9-.28,2.33.04,4.73.42,7.02.82,2.66.31,5.31,1.02,7.9,1.69,5.87,1.48,11.16-2.28,16.67-3.68,3.94-1.39,8.23-1.64,12.29-.62,2.57.68,5.29.92,7.9,1.33,3.75.89,7.86,1.31,11.41-.52,3.25-1.48,6.14-3.95,9.65-4.82,4.32-1.13,8.84-.23,13.16.39,1.7.28,3.58.28,5.27.63,2.52.57,4.89,1.94,7.02,3.37,3.42,2.21,6.65,5.07,10.53,6.45,5.5,1.45,11.28.04,16.67-1.27,2.58-.66,5.22-1.52,7.9-1.74,4.48-.42,9.06-1.05,13.16-3.01,4.7-2.29,9.44-5.46,14.92-4.88"/><path class="b" d="M7.81,215.34c2.36.43,4.64,1.56,7.02,1.83,2.89.26,5.89.01,8.78.39,4.98.63,9.88,2.37,14.92,2.47,3.97-.13,7.23-2.75,10.53-4.65,3.24-1.77,6.9-3.21,10.53-3.93,3.22-.56,6.52.19,9.65.91,1.69.4,3.56.45,5.27.77,14.76,3.52,14.5-10.05,28.96-6.72,2.01.41,4.12.97,6.14,1.33,1.7.32,3.59.3,5.27.75,5.61,1.55,10.01,5.74,14.92,8.66,2.69,1.51,5.81,2.33,8.78,3.09,3.13.73,6.45,1.07,9.65.72,2.05-.18,4.13-.87,6.14-1.27,4.18-.76,8.44-1.69,12.29-3.56,5.83-2.72,10.82-7.92,17.55-8.22"/><path class="b" d="M7.81,212.27c2.08.73,4.12,1.85,6.14,2.7,1.97.75,4.12,1.3,6.14,1.88,3.79,1.01,7.5,2.67,11.41,3.15,8.35,1.07,11.73-3.86,17.55-8.52,1.53-1.26,3.46-2.11,5.27-2.88,2.47-1.11,5.17-2.03,7.9-2.1,2.64-.1,5.31.53,7.9.93,1.4.2,2.98.17,4.39.35,3.53.52,7.33.49,10.53-1.28,5.5-3.01,8.72-8,15.8-6.98,2.98.35,5.88,1.45,8.78,2.17,2.63.57,5.44.81,7.9,2.01,4.34,2.01,8.27,4.92,12.29,7.5,3.39,1.92,7.01,3.59,10.53,5.27,4.08,1.92,8.75,2.98,13.16,1.59,4.86-1,9.7-2.55,14.04-5,5.59-2.96,10.37-7.77,16.67-9.18"/><path class="b" d="M7.81,209.54c2.12,1.1,4.15,2.6,6.14,3.9,2.23,1.41,4.65,2.72,7.02,3.87,3.54,1.67,7.4,3.41,11.41,3.13,6.22-.28,10.2-5.71,14.04-9.94,2.18-2.53,4.78-4.79,7.9-6.07,2.97-1.5,6.29-2.57,9.65-2.47,2.02.03,4.13.37,6.14.54,1.41.11,2.98-.05,4.39,0,3.92.21,8.02-.29,11.41-2.41,4.26-2.58,7.88-6.89,13.16-7.21,3.63-.32,7.15,1.05,10.53,2.18,2.66.79,5.47,1.46,7.9,2.86,4.46,2.48,8.81,5.28,13.16,7.93,3.58,1.91,7.08,4.12,10.53,6.25,2.93,1.73,6.16,3.52,9.65,3.49,3.6-.29,7.17-1.36,10.53-2.65,4.61-1.71,9.02-4.07,13.16-6.7,3.08-2.08,6.16-4.42,9.65-5.76"/><path class="b" d="M7.81,207.82c2.74,1.9,5.17,4.38,7.9,6.29,4.99,3.63,11.38,5.95,17.55,4.46,6.27-1.41,9.95-7.27,14.04-11.72,1.93-2.27,4.32-4.23,7.02-5.51,2.69-1.46,5.7-2.57,8.78-2.76,2.6-.2,5.29.21,7.9.15,5.07-.45,10.46-.55,14.92-3.33,4.13-2.45,7.59-6.23,12.29-7.64,4.1-1.35,8.44-.05,12.29,1.51,4.91,1.49,8.84,4.98,13.16,7.6,5.83,3.43,11.88,6.57,17.55,10.26,8.08,5.34,11.09,5.42,20.18,2.2,4.47-1.54,8.98-3.24,13.16-5.46,3.22-1.9,6.27-4.26,9.65-5.88"/><path class="b" d="M7.81,207.06c4.41,3.92,8.53,9.09,14.92,9.35,2.65.17,5.34-.44,7.9-1.07,2.35-.57,4.86-1.04,7.02-2.18,6.17-3.23,9.76-9.83,15.8-13.25,4.64-3.02,9.44-4.03,14.92-3.68,1.73.09,3.57-.12,5.27-.43,2.32-.32,4.76-.65,7.02-1.31,7.37-1.86,12.25-8.49,19.31-11,4.71-1.67,9.83.12,14.04,2.36,3.06,1.88,5.78,4.42,8.78,6.4,6.18,3.88,12.94,6.77,19.31,10.32,8.3,4.94,10.91,5.25,20.18,2.35,4.09-1.17,8.31-2.22,12.29-3.75,3.29-1.49,6.37-3.56,9.65-5.05"/><path class="b" d="M7.81,206.35c3.95,3.91,7.77,9.02,14.04,7.82,3.37-.55,6.42-2.37,9.65-3.36,2.28-.65,4.79-.84,7.02-1.67,4.06-1.46,7.3-4.55,10.53-7.28,2.39-2.06,5.09-3.95,7.9-5.4,4.03-2.19,8.7-2.28,13.16-2.27,3.52-.41,7.11-1.05,10.53-1.98,4.24-1.16,7.94-3.68,11.41-6.29,3.25-2.34,6.57-5,10.53-6,3.81-.92,7.94.07,11.41,1.74,3.08,1.73,5.79,4.19,8.78,6.08,3.38,2.02,7.01,3.79,10.53,5.56,3.22,1.41,6.57,2.73,9.65,4.43,8.54,4.83,10.61,5.26,20.18,2.64,3.77-.92,7.65-1.7,11.41-2.68,3.27-1.07,6.41-2.69,9.65-3.84"/><path class="b" d="M7.81,204.84c2.24,2.02,4.3,4.55,7.02,5.93,5.08,2.49,10.27-.92,14.92-2.85,2.47-1.12,5.27-1.16,7.9-1.55,6.37-.98,10.77-6.16,15.8-9.69,3.35-2.46,7.24-4.37,11.41-4.85,2-.28,4.14-.28,6.14-.54,2.3-.47,4.71-.91,7.02-1.3,4.34-.73,8.66-2.08,12.29-4.62,7.06-4.67,12.62-10.94,21.94-8.73,3.19.73,5.99,2.73,8.78,4.36,2.24,1.38,4.71,2.59,7.02,3.83,3.95,2.26,8.12,4.22,12.29,6.04,3.51,1.61,6.89,3.69,10.53,5.01,4.83,1.8,10.02.16,14.92-.52,2.88-.6,5.89-.99,8.78-1.52,3.22-.7,6.44-1.75,9.65-2.48"/><path class="b" d="M7.81,202.47c2.27,1.69,4.36,3.92,7.02,4.99,5.73,2.07,11.23-1.75,16.67-3.06,2.27-.57,4.73-.37,7.02-.78,6.79-1.17,11.13-7.14,16.67-10.66,4.39-3.08,9.68-4.34,14.92-5,1.73-.32,3.53-.96,5.27-1.24,2.29-.42,4.71-.67,7.02-.99,4.13-.39,8.11-2.02,11.41-4.53,5.44-4.1,11.05-9.75,18.43-9.01,3.38.29,6.61,1.73,9.65,3.15,4.29,1.92,8.3,4.49,12.29,6.94,5.33,2.87,10.98,5.29,16.67,7.34,4.45,1.75,9.35,1.45,14.04,1.33,6.46-.31,12.9-1.18,19.31-2.02"/><path class="b" d="M7.81,199.22c2.03,1.19,3.98,2.79,6.14,3.73,6.07,2.18,12.35-.95,18.43-1.61,2.31-.23,4.76-.09,7.02-.71,6.73-1.85,10.75-8.24,16.67-11.52,4.27-2.61,9.21-3.81,14.04-4.91,2.3-.67,4.63-1.62,7.02-1.95,2.87-.5,5.88-.47,8.78-.68,3.18-.28,6.26-1.62,8.78-3.56,5.33-3.96,10.46-9.54,17.55-9.71,10.6-.45,15.5,3.66,23.69,9.19,4.03,2.51,8.6,4.11,13.16,5.37,2.02.56,4.1,1.38,6.14,1.87,3.72.88,7.6,1.41,11.41,1.7,5.83.19,11.73-.12,17.55-.44"/><path class="b" d="M7.81,195.1c2.79,1.44,5.52,3.52,8.78,3.67,6.44.21,12.85-1.33,19.31-1.11,3.57-.03,6.93-1.7,9.65-3.91,2.1-1.68,4.08-3.75,6.14-5.48,4.48-3.79,10.21-5.55,15.8-6.98,3-.65,5.82-2.1,8.78-2.9,3.41-.99,7.03-.86,10.53-.97,3.56-.13,6.84-1.8,9.65-3.89,3.61-2.56,7.19-5.45,11.41-6.96,1.93-.73,4.11-.97,6.14-1.27,2.87-.47,5.88-.97,8.78-.48,5.82.96,10.06,5.43,14.92,8.37,4.25,2.76,9.27,3.46,14.04,4.78,5.12,1.75,10.44,3.16,15.8,3.93,5.52.52,11.14.69,16.67.45"/><path class="b" d="M7.81,190.16c2.2,1.3,4.45,2.96,7.02,3.38,2.61.37,5.31-.18,7.9-.53,2.88-.43,5.86-.71,8.78-.62,5.18.36,8.52,1.12,13.16-1.99,2.53-1.64,4.7-3.94,7.02-5.84,3.96-3.33,9.09-4.73,14.04-5.82,1.72-.41,3.59-.82,5.27-1.39,2.29-.9,4.63-1.99,7.02-2.62,3.4-1.04,7.04-.85,10.53-1.29,4.17-.52,7.77-2.97,11.41-4.88,4.07-2.3,8.58-3.72,13.16-4.53,2.9-.74,5.77-2,8.78-2.28,6.11-.6,10.91,3.79,15.8,6.72,3.97,2.49,8.66,3.33,13.16,4.33,10.72,3.53,22.06,5.45,33.35,5.48"/><path class="b" d="M7.81,184.54c1.84,1.45,3.85,3.08,6.14,3.69,5.03.87,9.89-2.07,14.92-2.12,5.18-.37,9.78,2.93,14.92.67,3-1.17,5.41-3.54,7.9-5.5,4.21-3.48,9.64-4.84,14.92-5.72,4.57-.57,8.71-2.85,13.16-3.87,2.85-.73,5.89-.86,8.78-1.41,2.72-.48,5.36-1.59,7.9-2.63,3.11-1.28,6.37-2.4,9.65-3.12,3.58-.75,7.28-1.39,10.53-3.17,4.67-2.47,8.95-3.58,14.04-1.48,3.64,1.61,6.86,4.18,10.53,5.74,2.76,1.25,5.82,1.9,8.78,2.46,2.9.69,5.84,1.57,8.78,2.11,8.4,1.58,16.88,3.23,25.45,3.37"/><path class="b" d="M7.81,178.2c8.28,8.22,11.69,2.6,21.06,1.98,5.13-.32,9.73,3.89,14.92,2.34,3.38-.85,5.99-3.46,8.78-5.4,4.33-3.19,9.62-4.73,14.92-5.28,3.29-.26,6.45-1.44,9.65-2.12,3.75-.88,7.67-1.23,11.41-2.17,2.98-.75,5.85-2.08,8.78-3,2.83-.93,5.84-1.52,8.78-1.94,3.71-.43,7.4-1.47,10.53-3.56,4.5-2.88,8.65-4.56,14.04-3.04,3.14.91,5.89,2.93,8.78,4.42,2.44,1.3,5.16,2.29,7.9,2.73,3.21.43,6.48.97,9.65,1.66,5.24,1.08,10.51,2.31,15.8,3.16,3.76.46,7.64.32,11.41.77"/><path class="b" d="M7.81,171.42c1.89,1.56,3.87,3.36,6.14,4.34,4.91,1.72,9.94-1.1,14.92-.96,5.19-.07,9.61,4.4,14.92,3.15,3.71-.74,6.53-3.61,9.65-5.53,3.66-2.46,7.87-4.25,12.29-4.63,1.71-.19,3.56-.22,5.27-.41,1.4-.24,2.96-.53,4.39-.63,3.79-.29,7.7-.39,11.41-1.32,3.33-.82,6.44-2.48,9.65-3.62,3.09-1.14,6.4-1.74,9.65-2.18,2.04-.29,4.22-.66,6.14-1.44,1.8-.77,3.59-1.91,5.27-2.92,1.89-1.14,3.97-2.29,6.14-2.76,3.19-.56,6.62-.25,9.65.91,4.53,2.05,8.89,5.04,14.04,5.16,2.91.1,5.92.04,8.78.72,5.02,1.09,9.85,3.09,14.92,3.98,4.34.73,8.87-.14,13.16,1.02"/><path class="b" d="M7.81,164.16c2.06,1.27,4.01,2.97,6.14,4.12,4.96,2.37,10.58.28,15.8,1.13,5.2.85,9.3,5.01,14.92,3.28,2.57-.74,4.79-2.5,7.02-3.9,3.77-2.34,7.78-4.75,12.29-5.2,3.19-.34,6.46.03,9.65-.29,2.9.04,5.87.58,8.78.41,4.74-.09,8.96-2.47,13.16-4.38,2.5-1.09,5.21-1.93,7.9-2.44,2.61-.51,5.38-.81,7.9-1.72,5.36-2.2,9.55-6.24,15.8-5.45,9.91.46,11.89,5.88,22.82,3.91,3.26-.55,6.62.16,9.65,1.36,4.02,1.51,7.98,3.61,12.29,4.16,4.1.26,8.41-.36,12.29,1.37"/><path class="b" d="M7.81,156.88c2.19.89,4.11,2.46,6.14,3.62,5.17,2.61,11.27,1.04,16.67,2.77,4.34,1.41,8.32,4.98,13.16,4.07,2.55-.38,4.83-1.87,7.02-3.13,3.56-1.9,7.32-3.89,11.41-4.26,2.61-.26,5.31.14,7.9.42,1.41.12,2.98-.07,4.39.11,4.35.63,8.93,1.24,13.16-.32,3.59-1.23,6.92-3.3,10.53-4.48,3.38-1.21,7.03-1.58,10.53-2.27,4.69-.89,8.51-4.25,13.16-5.26,1.98-.44,4.14-.26,6.14-.08,2.01.23,4.17.42,6.14.9,3.97,1.16,8.19,2.04,12.29.97,4.59-1.2,7.64-1.89,12.29-.06,4.1,1.51,7.97,3.89,12.29,4.77,2.28.41,4.73.24,7.02.55,2.11.27,4.27,1.01,6.14,2.02"/><path class="b" d="M7.81,150.02c2.8.56,5.13,2.51,7.9,3.14,3.44.82,7.09.81,10.53,1.67,3.48.79,6.73,2.49,9.65,4.49,8.5,5.72,12.02,1.18,20.18-1.61,5.34-2.09,9.59-.94,14.92.08,3.2.13,6.45.71,9.65.59,5.25-.15,10-2.71,14.92-4.26,4.82-1.63,10.03-1.52,14.92-2.77,4.71-1.47,8.95-4.76,14.04-4.9,2.9-.08,5.88.07,8.78.26,2.3.21,4.71.49,7.02.34,4.18-.13,8.12-2.11,12.29-2.2,5.86.1,11.15,3.14,16.67,4.73,2.54.81,5.31.99,7.9,1.6,2.47.58,4.89,1.7,7.02,3.07"/><path class="b" d="M7.81,144.05c2.37.15,4.67,1.16,7.02,1.41,4.51.24,9.11.43,13.16,2.68,2.09,1.09,4.27,2.33,6.14,3.76,2.68,2.05,5.4,4.49,8.78,5.25,2.35.54,4.81-.09,7.02-.88,2.91-.87,5.82-2.04,8.78-2.76,3.85-.93,7.76.22,11.41,1.44,3.68.96,7.66,1.13,11.41.47,3.56-.64,7.01-1.99,10.53-2.79,6.05-1.45,12.42-1.31,18.43-2.98,3.61-1.09,6.94-3.1,10.53-4.27,2.23-.77,4.69-.96,7.02-1.18,3.78-.31,7.66-.25,11.41-.91,4.07-.59,8.13-2.05,12.29-1.81,5.96.66,11.78,2.4,17.55,3.94,5.15,1.45,10.45,2.84,14.92,5.9"/><path class="b" d="M7.81,139.17c1.71.1,3.55.23,5.27.18,1.42-.1,2.97-.41,4.39-.58,5.51-.92,9.9,2.19,14.04,5.35,4.12,2.74,7.27,7.34,12.29,8.53,2.94.66,5.9-.48,8.78-.99,2.89-.69,5.75-2.02,8.78-2.02,4.99-.16,9.1,3.59,14.04,3.67,5.13.24,9.92-2.1,14.92-2.8,3.48-.35,7.07-.34,10.53-.94,5.12-.83,10.18-2.4,14.92-4.5,2.28-1.01,4.64-2.12,7.02-2.87,3.7-1.08,7.6-1.61,11.41-2.14,4.07-.74,8.12-2.06,12.29-2.22,4.21-.24,8.2,1.54,12.29,2.23,3.47.74,7.1,1.07,10.53,2.02,5.06,1.71,10.15,3.61,14.92,6.03"/><path class="b" d="M7.81,135.16c8.55.66,11.27-6.45,20.18.67,2.01,1.67,4.2,3.36,6.14,5.12,2.19,2.05,4.39,4.36,7.02,5.86,3.22,2,7.04,1.16,10.53.58,6.61-.95,9-3.24,15.8.31,9.13,5.69,12.66,1.65,21.94.65,1.71-.16,3.55.11,5.27.05,2.04-.05,4.18-.42,6.14-1,3-.88,5.91-2.28,8.78-3.52,2.6-1.06,5.35-2.02,7.9-3.22,4.44-2.11,9.21-3.61,14.04-4.49,2.96-.39,5.86-1.45,8.78-2.03,7.54-1.62,10.83,1.44,17.55,3.2,3.72,1.02,7.7,1.08,11.41,2.13,2.08.6,4.09,1.73,6.14,2.4,2.86.99,5.88,1.77,8.78,2.65"/><path class="b" d="M7.81,131.51c8.26.24,11.02-8.3,20.18-.96,2.03,1.7,4.19,3.5,6.14,5.29,2.16,2.03,4.37,4.28,7.02,5.67,2.98,1.67,6.45,1.01,9.65.57,4.08-.01,8.3-1.56,12.29-.04,6.57,2.53,8.63,6.75,16.67,5.4,2.9-.42,5.84-1.19,8.78-1.38,2.31-.21,4.72.33,7.02-.04,4.49-.65,8.41-3.24,12.29-5.44,2.45-1.49,5.27-2.43,7.9-3.56,5.29-2.44,10.89-4.35,16.67-5.21,2.92-.5,5.82-1.52,8.78-1.86,6.19-.9,10.34,2.2,15.8,4.21,3.65,1.41,7.63,1.8,11.41,2.73,2.39.59,4.64,1.9,7.02,2.51,2.84.77,5.87,1.07,8.78,1.46"/><path class="b" d="M7.81,128.08c2.88-.11,5.47-1.59,7.9-3.01,5.37-3.2,9.31-2.42,14.04,1.36,5.19,3.62,9.82,9.52,16.67,9.46,1.41.03,2.98-.06,4.39,0,1.11.08,2.4.3,3.51.33,3.62.01,7.33.55,10.53,2.33,2.06,1.05,4.08,2.44,6.14,3.49,4.93,2.48,10.56.9,15.8.79,2.31-.14,4.71.22,7.02.27,4.19-.11,7.97-2.35,11.41-4.55,1.68-1.08,3.49-2.27,5.27-3.19,1.98-.95,4.16-1.77,6.14-2.73,5.77-2.9,12-4.93,18.43-5.66,8.34-1.51,12.75.14,20.18,3.6,4.18,1.91,8.73,2.84,13.16,3.91,2.34.6,4.64,1.7,7.02,2.16,2.86.58,5.87.73,8.78.97"/><path class="b" d="M7.81,124.74c5.33-.92,9.39-5.61,14.92-5.8,2.84-.09,5.53,1.23,7.9,2.67,2.91,1.74,5.76,3.77,8.78,5.34,2.97,1.63,6.36,2.38,9.65,3.02,1.75.34,3.54,1.04,5.27,1.48,3.56.82,7.2,1.69,10.53,3.22,3.92,1.76,7.83,4.13,12.29,3.95,3.78-.01,7.64-.28,11.41.19,8.96,1.64,11.94-.52,19.31-5.15,2.44-1.63,5.29-2.69,7.9-3.99,3.43-1.72,6.87-3.64,10.53-4.85,11.28-4.35,21.08-.13,31.59,3.96,3.67,1.47,7.61,2.25,11.41,3.26,4.82,1.54,9.91,2,14.92,2.46"/><path class="b" d="M7.81,121.35c4.3-1.29,7.94-4.28,12.29-5.47,4.48-1.43,9.11.12,13.16,2.1,4.12,1.8,8.2,3.82,12.29,5.68,3.83,1.65,7.46,3.89,11.41,5.24,3.16,1.1,6.45,2.02,9.65,3,2.3.65,4.65,1.54,7.02,1.9,4.36.38,8.82-.54,13.16.27,8.08,1.56,10.83,2.37,18.43-1.95,1.71-.97,3.52-2.08,5.27-2.99,1.69-.83,3.59-1.58,5.27-2.45,2.9-1.44,5.78-3.12,8.78-4.37,3.32-1.36,6.88-2.71,10.53-2.47,6.63.53,12.91,3.12,19.31,4.76,2.62.8,5.28,1.8,7.9,2.59,2.88.78,5.86,1.5,8.78,2.13,4.35.77,8.81,1.16,13.16,1.9"/><path class="b" d="M7.81,118.1c4.7-1.85,8.91-5.13,14.04-5.81,3.84-.67,7.76.18,11.41,1.35,3.35.92,6.67,2.21,9.65,3.99,5.3,3,9.95,7.31,15.8,9.28,4.81,1.61,9.95,2.23,14.92,3.12,2.92.12,5.86-.61,8.78-.64,5.06-.3,9.87,2.35,14.92,1.83,4.49-.49,8.38-3.1,12.29-5.15,1.65-.88,3.56-1.54,5.27-2.29,2.62-1.12,5.27-2.43,7.9-3.54,3.36-1.31,6.89-2.72,10.53-2.87,5.71.16,11.11,2.54,16.67,3.6,5.98.97,11.62,3.42,17.55,4.61,2.55.67,5.28.82,7.9.98,2.91.21,5.89.59,8.78,1.06"/><path class="b" d="M7.81,115.38c2.17-.72,4.19-2.02,6.14-3.16,2.17-1.19,4.59-2.14,7.02-2.6,3.77-.76,7.7-.23,11.41.61,3.66.67,7.33,1.75,10.53,3.7,5.09,2.91,9.41,7.22,14.92,9.4,3.61,1.51,7.57,2.05,11.41,2.66,1.42.2,2.96.66,4.39.75,2.03.07,4.14-.39,6.14-.69,3.78-.69,7.7-.27,11.41.65,6.57,2.03,12.07-1.5,17.55-4.64,3.56-1.93,7.6-2.89,11.41-4.2,4.26-1.28,8.69-2.52,13.16-2.66,2.34.05,4.75.6,7.02,1.14,6.39,1.74,13.07,2.43,19.31,4.69,3.68,1.24,7.54,2.25,11.41,2.64,4.37.08,8.8-.23,13.16.06"/><path class="b" d="M7.81,113.33c2.24-.49,4.22-1.85,6.14-3.01,2.16-1.21,4.59-2.13,7.02-2.6,3.45-.69,7.06-.45,10.53,0,2.32.3,4.77.53,7.02,1.24,4.24,1.31,7.89,4.05,11.41,6.66,5.38,4.37,10.83,5.68,17.55,6.46,2.04.23,4.12.89,6.14,1.17,2.03.14,4.16-.32,6.14-.7,4.62-1.12,9.41-.76,14.04.11,5.79.76,10.9-2.56,15.8-5.13,4.12-1.96,8.7-2.96,13.16-3.81,3.75-.54,7.62-1.09,11.41-.9,2.97.28,5.92,1.18,8.78,2.02,3.75,1.16,7.6,2.18,11.41,3.13,3.2.94,6.37,2.27,9.65,2.92,2.28.4,4.7.78,7.02.74,4.38-.26,8.77-1.15,13.16-1.3"/><path class="b" d="M7.81,111.24c2.93-.52,5.24-2.65,7.9-3.82,4.9-2.3,10.45-2.8,15.8-2.58,10.77-.18,13.76,4.03,21.94,9.46,4.23,2.52,9.29,2.74,14.04,3.43,2.06.25,4.13,1,6.14,1.43,2.32.34,4.75-.1,7.02-.54,2.86-.57,5.85-1,8.78-1.01,2.32,0,4.7.52,7.02.54,2.68.06,5.42-.54,7.9-1.56,2.66-1.06,5.23-2.57,7.9-3.6,3.91-1.48,8.11-2.34,12.28-2.57,4.37-.07,8.89-.54,13.16.59,4.52,1.16,8.77,3.28,13.16,4.81,4.11,1.07,8.06,2.95,12.29,3.57,7.13,1.04,14.02-1.71,21.06-2.29"/><path class="b" d="M7.81,108.66c3.74-1.14,6.79-3.91,10.53-5.08,4.48-1.63,9.28-2.5,14.04-2.65,2.31-.11,4.75-.21,7.02.32,6.14,1.26,10.27,6.5,15.8,9,4.16,1.73,8.81,1.71,13.16,2.69,1.76.35,3.55,1.11,5.27,1.6,2.56.63,5.32.39,7.9,0,3.18-.44,6.43-1.07,9.65-1.13,2.32,0,4.71.47,7.02.53,2.99.11,6.03-.6,8.78-1.75,6.2-2.9,11.41-4.95,18.43-4.57,4.68.39,9.53.02,14.04,1.54,5.13,1.63,9.73,4.66,14.92,6.12,3.35,1.22,6.92,2.38,10.53,2.02,6.54-.59,12.72-3.33,19.31-3.72"/><path class="b" d="M7.81,105.63c4.07-2.04,7.89-4.72,12.29-6.07,4.23-1.48,8.68-2.6,13.16-2.92,2.3-.25,4.74-.4,7.02.11,5.73,1.12,9.73,5.85,14.92,8.12,4.19,1.73,8.83,2.04,13.16,3.29,2.06.53,4.09,1.55,6.14,2.09,2.26.58,4.71.66,7.02.5,3.51-.17,7.02-.95,10.53-1.08,3.78.08,7.65,1,11.41.13,7.85-1.95,10.93-5.73,20.18-4.85,2.32.18,4.71.67,7.02.92,3.84.18,7.77.48,11.41,1.83,4.15,1.46,8.03,3.73,12.29,4.89,3.34,1.18,6.99,2.07,10.53,1.36,3.28-.57,6.46-1.85,9.65-2.78,3.11-.94,6.41-1.49,9.65-1.69"/><path class="b" d="M7.81,102.67c2.27-1.41,4.6-2.94,7.02-4.07,3.36-1.55,6.96-2.68,10.53-3.63,2.56-.69,5.26-1.21,7.9-1.5,2.29-.34,4.71-.65,7.02-.33,5.34.61,9.41,4.44,14.04,6.76,4.15,1.98,8.77,2.81,13.16,4.08,2.35.62,4.69,1.65,7.02,2.33,1.96.54,4.11.82,6.14.89,3.8.19,7.63-.36,11.41-.63,3.19-.06,6.5.31,9.65-.36,5.68-1.06,10.7-5.04,16.67-4.57,4.82.12,9.29,2.43,14.04,2.89,3.8.25,7.7.37,11.41,1.29,3.53.86,6.99,2.24,10.53,3.07,3.38,1.01,7.06,1.56,10.53.69,3.29-.74,6.44-2.21,9.65-3.2,3.1-1,6.41-1.51,9.65-1.66"/><path class="b" d="M7.81,100.4c4.86-3.71,10.87-5.27,16.67-6.82,3.15-.91,6.42-1.59,9.65-2.08,2.57-.51,5.29-.9,7.9-.48,4.54.61,8.26,3.55,12.29,5.47,3.86,1.85,8.1,2.88,12.29,3.72,4.98.98,9.85,2.7,14.92,3.19,3.18.45,6.45.59,9.65.34,2.61-.14,5.34-.25,7.9-.84,3.66-.79,7.07-2.58,10.53-3.95,7.17-3.11,13.65.96,20.18,3.58,5.07,1.7,10.58.63,15.8,1.43,5.25.61,10.45,2.87,15.8,2.03,3.7-.59,7.09-2.48,10.53-3.86,3.86-1.6,8.13-2.11,12.29-1.92"/><path class="b" d="M7.81,98.47c4.66-3.31,10.43-4.13,15.8-5.69,3.45-1.06,6.97-2.09,10.53-2.68,2.84-.67,5.85-1.25,8.78-.82,4.45.56,8.22,3.27,12.29,4.94,4.12,1.86,8.68,2.54,13.16,2.72,5.91.39,11.74,1.75,17.55,2.79,4.06.58,8.31.37,12.29-.66,3.92-1,7.56-2.98,11.41-4.19,8.27-2.61,14.73,3.05,21.94,5.85,5.11,1.55,10.56.51,15.8,1.03,5.31.57,10.59,2.46,15.8.19,8.4-3.7,10.9-6.8,21.06-5.59"/><path class="b" d="M7.81,96.44c4.07-2.24,8.72-2.99,13.16-4.16,4.13-1.11,8.05-3.1,12.29-3.79,12.36-3.61,14.68,1.15,25.45,4.34,4.02,1.12,8.21.4,12.29.11,3.2-.05,6.49.1,9.65.57,2.62.37,5.26,1.18,7.9,1.45,3.5.39,7.11.02,10.53-.73,6.45-1.52,11.57-3.92,18.43-2.62,3.03.51,6,1.66,8.78,2.96,2.54,1.21,5.13,2.65,7.9,3.29,4,.96,8.21.7,12.29.93,2.93.13,5.88.82,8.78,1.2,4.01.6,7.98-.83,11.41-2.82,5.97-3.64,10.48-5.01,17.55-4.04"/><path class="b" d="M7.81,93.44c4.83-1.89,10.06-2.54,14.92-4.32,3.75-1.45,7.4-3.33,11.41-3.97,4.29-1.24,8.94-1.53,13.16.13,5.9,2.19,11.93,5.6,18.43,4.32,4.89-.97,9.92-1.71,14.92-1.52,4.39.33,8.73,1.57,13.16,1.38,5.26.12,10.55-.5,15.8-.73,4.37.06,8.85-.12,13.16.74,4.89.83,9.16,3.78,14.04,4.61,3.45.65,7.04.64,10.53.92,3.22.22,6.45,1.02,9.65,1.36,3.36.35,6.71-.77,9.65-2.3,5.83-3.27,10.73-5.05,17.55-4.38"/><path class="b" d="M7.81,89.28c4.58-1.64,9.46-2.47,14.04-4.09,2.95-1.06,5.8-2.62,8.78-3.62,3.43-.85,6.97-1.9,10.53-1.87,6.45.22,12.16,3.95,18.43,5.11,3.49.69,7.09.07,10.53-.6,4.05-.52,8.18-1.3,12.29-1.11,2.32.16,4.71.65,7.02.86,2.6.25,5.31.42,7.9.81,7.26.98,14.6,2.05,21.94,1.53,2.92-.07,5.96.05,8.78.85,2.91.82,5.73,2.24,8.78,2.55,3.47.46,7.04.19,10.53.29,2.93.08,5.92.52,8.78,1.2,3.5.85,7.24.45,10.53-.99,5.68-2.57,11.12-5.08,17.55-4.66"/><path class="b" d="M7.81,84.72c4.51-1.88,9.4-2.66,14.04-4.11,2.65-.86,5.28-2.07,7.9-3.01,2.54-.82,5.27-1.34,7.9-1.83,7.51-1.35,14.64,2.21,21.94,3.34,8.16,1.36,16.4-1.44,24.57-.35,4.65.82,9.45,1.03,14.04,2.18,5.52,1.23,10.98,3.31,16.67,3.59,4.08.11,8.21-.69,12.28-.37,2.68.15,5.24,1.39,7.9,1.64,4.98.4,9.94-1.18,14.92-.78,5.69.24,9.89,3.25,15.8,1.2,6.02-2.02,11.84-5.62,18.43-4.96"/><path class="b" d="M7.81,80.76c4.41-2.19,9.35-2.9,14.04-4.22,2.94-.84,5.84-2.09,8.78-2.98,2.56-.67,5.27-1.16,7.9-1.44,7.08-.72,14.04,1.37,21.06,1.93,7.27.97,14.64.51,21.94.96,2.33.2,4.71.74,7.02,1.04,3.8.53,7.68,1.03,11.41,1.98,5.02,1.16,9.82,3.38,14.92,4.17,4.08.61,8.21-.15,12.28-.35,2.95-.19,5.84,1.08,8.78.78,4.11-.36,8.14-1.74,12.29-1.75,3.59-.16,7.05.98,10.53,1.64,2.65.44,5.43-.07,7.9-1.06,5.61-2.23,11.28-5.77,17.55-4.7"/><path class="b" d="M7.81,77.67c4.36-2.36,9.35-3.07,14.04-4.5,4.36-1.31,8.58-3.4,13.16-3.83,7.9-.95,15.79,1.02,23.69.95,4.41.12,8.79.99,13.16,1.43,3.49.32,7.05.53,10.53.94,3.19.49,6.46.98,9.65,1.45,3.18.5,6.48.6,9.65,1.18,3.28.56,6.52,1.63,9.65,2.73,3.35,1.21,6.95,2.03,10.53,1.86,2.31-.09,4.7-.57,7.02-.57,2.02-.07,4.12.54,6.14.32,3.81-.37,7.57-1.58,11.41-1.65,2.31-.06,4.73.19,7.02.52,1.99.36,4.11.8,6.14.7,3.5-.13,6.66-1.99,9.65-3.63,4.55-2.35,9.68-4.93,14.92-3.59"/><path class="b" d="M7.81,74.97c4.44-2.25,9.43-3.1,14.04-4.9,4.3-1.57,8.49-4.02,13.16-4.2,5.91-.27,11.7,1.44,17.55,1.91,3.49.18,7.06-.05,10.53.46,3.51.48,7,1.47,10.53,1.86,3.77.51,7.64.55,11.41,1.01,3.51.24,7.02,1.03,10.53,1.17,3.79.02,7.7-.11,11.41.83,2.98.67,5.85,1.97,8.78,2.83,2.24.65,4.69,1,7.02.86,2.01-.14,4.12-.54,6.14-.64,2.01-.16,4.13.29,6.14.1,3.77-.33,7.61-1.02,11.41-.7,4.65.24,9.43,1.76,14.04.58,3.58-1.01,6.54-3.54,9.65-5.47,4.22-2.36,9.08-4.96,14.04-3.59"/><path class="b" d="M7.81,71.57c3.68-1.66,7.66-2.66,11.41-4.13,3.85-1.45,7.5-3.55,11.41-4.83,6.15-1.86,12.45.7,18.43,2.11,4.87,1.27,10,1.06,14.92,2.07,3.48.66,7,1.55,10.53,1.88,3.77.4,7.64.28,11.41.66,2.92.1,5.87.73,8.78.89,3.19.04,6.47-.35,9.65,0,5.43.41,10.34,3.41,15.8,3.59,3.23.17,6.44-.86,9.65-.97,1.71-.07,3.55.22,5.27.09,2.89-.15,5.87-.46,8.78-.29,4.96.24,9.94,1.72,14.92,1.07,4.43-.73,7.84-4.01,11.41-6.47,4.25-2.52,8.85-5.8,14.04-5.04"/><path class="b" d="M7.81,67.35c4.88-2.09,10.02-3.65,14.92-5.69,7.2-3,11.58-4.29,19.31-2.1,2.94.75,5.88,1.78,8.78,2.65,3.15.9,6.44,1.59,9.65,2.24,6.05,1.35,12.28,1.77,18.43,2.42,4.69.48,9.35,1.52,14.04,1.93,2.9.14,5.87-.39,8.78-.38,2.95-.03,5.95.54,8.78,1.37,7.39,2.3,10.04,2.25,17.55.96,2-.29,4.13-.02,6.14-.08,3.2-.19,6.44-.8,9.65-.8,3.21-.03,6.46.51,9.65.73,2.93.38,6.07.36,8.78-.95,4.14-2,7.42-5.47,11.41-7.73,3.15-2.08,6.62-4.28,10.53-4.26"/><path class="b" d="M7.81,63c7.41-2.96,14.88-6.24,22.82-7.46,4.4-.64,8.9.08,13.16,1.16,5.4,1.35,10.52,3.68,15.8,5.41,2.81.89,5.82,1.43,8.78,1.48,3.2-.02,6.5-.13,9.65.55,8.28,1.64,11.12,4.15,20.18,2.69,2.6-.28,5.33-.23,7.9.28,3.78.79,7.53,2.11,11.41,2.42,3.83.46,7.62-.64,11.41-.96,1.71-.17,3.56.1,5.27-.05,2.93-.28,5.86-1.11,8.78-1.47,3.18-.46,6.47-.22,9.65.01,3.52.46,7.31.74,10.53-1.06,3.8-2.02,6.89-5.23,10.53-7.5,3.15-2.21,6.59-4.5,10.53-4.8"/><path class="b" d="M7.81,59.1c6.35-2.33,12.52-5.54,19.31-6.39,7.33-.89,14.95-.12,21.94,2.25,3.97,1.27,7.54,3.6,11.41,5.1,2.49.95,5.24,1.37,7.9,1.18,3.19-.35,6.49-.81,9.65.02,4.49.86,8.56,3.48,13.16,3.8,2.62.11,5.29-.54,7.9-.68,3.57-.29,7.14.59,10.53,1.62,3.67,1.03,7.6,1.52,11.41,1.17,2.33-.2,4.7-.85,7.02-1.1,2.3-.34,4.73.07,7.02-.35,3.79-.69,7.54-2,11.41-2.23,2.3-.15,4.72-.04,7.02.15,3.24.45,6.72.44,9.65-1.18,2.89-1.5,5.35-3.86,7.9-5.85,3.92-2.85,8.15-5.99,13.16-6.25"/><path class="b" d="M7.81,55.94c6.28-1.71,11.93-5.48,18.43-6.46,3.46-.58,7.05-.37,10.53-.06,3.83.39,7.75.98,11.41,2.21,4.42,1.3,8.17,4.1,12.29,6.04,9.28,3.99,11.17-2.11,23.69,2.66,7.63,3.04,9.43,1.06,16.67,1.21,4.53.17,8.67,2.49,13.16,2.88,2.6.29,5.33.17,7.9-.32,2.32-.45,4.67-1.21,7.02-1.49,1.7-.27,3.56-.11,5.27-.32,2.63-.34,5.28-1.08,7.9-1.5,4.04-.71,8.22-.46,12.29-.18,3.72.45,7.55-.55,10.53-2.85,5.77-4.48,11.38-10.85,19.31-10.63"/><path class="b" d="M7.81,52.84c6.83-1.03,12.48-5.78,19.31-6.87,3.18-.59,6.49-.14,9.65.35,3.52.59,7.1,1.27,10.53,2.27,2.06.64,4.22,1.39,6.14,2.37,2.65,1.41,5.18,3.24,7.9,4.54,2.42,1.18,5.19,1.89,7.9,1.74,3.48-.33,7.03-.74,10.53-.36,3.23.24,6.44,1.08,9.65,1.4,2.6.31,5.3,0,7.9-.09,4.88-.32,9.41,1.76,14.04,2.91,3.18.6,6.54.28,9.65-.57,2.33-.61,4.66-1.62,7.02-2.14,2.56-.64,5.3-.45,7.9-.8,4.94-.7,9.97-.6,14.92-.03,4.27.29,8.54.67,12.29-1.87,6.86-4.67,11.59-12.34,21.06-11.49"/><path class="b" d="M7.81,48.72c7.22-.39,13.04-5.75,20.18-6.46,3.26-.38,6.51.6,9.65,1.34,3.17.81,6.45,1.42,9.65,2.09,2.05.46,4.22,1,6.14,1.87,3.62,1.72,6.87,4.28,10.53,5.93,4.28,2.18,8.58,1.46,13.16,1.38,4.96-.16,9.96,0,14.92.02,3.51-.04,7.13-.08,10.53.93,3.49.9,6.85,2.83,10.53,2.83,5.32-.02,9.93-3.16,14.92-4.53,2.83-.75,5.88-.53,8.78-.78,4.98-.42,9.98.34,14.92.86,4.5.45,8.4.68,12.29-2.15,6.34-4.72,11.24-11.65,20.18-10.45"/><path class="b" d="M7.81,43.77c7.69-.03,14.19-5.85,21.94-5.2,3.95.43,7.57,2.42,11.41,3.33,3.43.92,7.08,1,10.53,1.82,5.69,1.49,10.29,5.56,15.8,7.51,2.79,1.03,5.87.79,8.78,1.04,6.71.53,13.48-.35,20.18.15,3,.25,5.98,1.18,8.78,2.26,3.03,1.2,6.38,2.44,9.65,1.46,5.15-1.31,9.58-4.89,14.92-5.54,5.25-.18,10.53-1.03,15.8-.87,2.61.11,5.3.41,7.9.68,1.99.28,4.15.53,6.14.14,5.72-1.18,9.22-6.5,14.04-9.35,3.09-2.01,6.83-3.19,10.53-2.78"/><path class="b" d="M7.81,38.54c11.3-.46,16.8-7.52,28.08-1.35,2.76,1.36,5.71,2.62,8.78,3.04,3.2.44,6.55.4,9.65,1.4,6.59,1.77,12.33,6.32,19.31,6.64,3.78.71,7.56,1.77,11.41,2.05,3.77.35,7.64-.01,11.41.44,2.69.3,5.37,1.12,7.9,2.06,2.25.8,4.61,1.78,7.02,1.87,6.01-.25,10.8-4.96,16.67-5.89,2.28-.44,4.74-.18,7.02-.62,2.92-.52,5.85-1.44,8.78-1.95,2.28-.41,4.71-.55,7.02-.34,2.02.13,4.12.66,6.14.82,3.18.32,6.32-1.01,8.78-2.96,5.34-4.32,11.11-9.53,18.43-9.28"/><path class="b" d="M7.81,33.82c2.61-.33,5.35-.44,7.9-1.14,4.26-1.1,8.72-2.59,13.16-1.74,5.16.94,9.07,4.99,14.04,6.46,3.98,1.17,8.27,1,12.29,2.05,4.79.86,9.34,2.81,14.04,4.01,1.7.4,3.6.47,5.27,1,4.08,1.35,8.02,3.36,12.29,4.1,3.75.7,7.66.28,11.41.94,3.88.56,7.55,2.29,11.41,2.91,6.67.86,12.45-5.9,21.06-5.83,3.7.13,7.17-1.43,10.53-2.78,5.78-2.36,8.88-2.33,14.92-1.17,3.11.46,6.31-.56,8.78-2.47,5.65-4.49,11.68-9.85,19.31-9.94"/><path class="b" d="M7.81,29.25c2.91-.31,5.93-.37,8.78-1.14,5.48-1.47,11.55-2.63,16.67.57,4.28,2.65,8.13,6.36,13.16,7.54,2.87.66,5.85,1.22,8.78,1.58,4.1.33,8.25.76,12.29,1.6,2.95.57,6.11.7,8.78,2.23,4.72,2.47,9.44,5.62,14.92,5.92,2.9.16,5.89.16,8.78.53,12.32,1.95,10.37,1.81,21.94-2.35,1.96-.63,4.09-1.13,6.14-1.37,2.33-.29,4.83-.33,7.02-1.26,7.97-3.44,10.79-6.67,20.18-5.18,3.1.27,6.27-.69,8.78-2.51,2.35-1.67,4.59-3.72,7.02-5.28,3.98-2.28,8.49-4.17,13.16-3.86"/><path class="b" d="M7.81,24.46c2.6-.22,5.32-.15,7.9-.65,5.48-1.08,11.55-2.27,16.67.67,4.08,2.41,7.24,6.24,11.41,8.54,3.22,1.72,6.91,2.72,10.53,3.05,3.49.09,7.04-.5,10.53-.17,3.89.44,8.06.82,11.41,3.04,11.22,7.54,12.12,7.27,25.45,7.44,2.91.02,5.93-.03,8.78-.72,3.77-1.14,7.51-2.64,11.41-3.31,3.47-.73,7.14-.8,10.53-1.89,4.59-1.71,8.49-5.01,13.16-6.55,2.78-1.05,5.85-.98,8.78-1.03,2.73-.12,5.51-.9,7.9-2.24,2.68-1.52,5.15-3.61,7.9-5.02,4.33-2.02,9.26-3.24,14.04-2.58"/><path class="b" d="M7.81,20.09c2.9-.08,5.89.03,8.78-.37,5.6-.77,11.81-1.08,16.67,2.3,3.66,2.59,6.67,6.14,10.53,8.45,3.18,1.8,6.87,3.02,10.53,3.29,2.9.02,5.87-.56,8.78-.36,4.19.4,8.64,1.48,12.29,3.63,4.39,2.74,8.78,6.04,14.04,6.76,7,.69,14.46,1.44,21.06-1.52,3.03-1.55,6.27-2.86,9.65-3.41,3.79-.74,7.83-.86,11.41-2.46,2.98-1.43,5.8-3.37,8.78-4.8,2.99-1.49,6.32-2.45,9.65-2.73,3.61-.23,7.24-1.03,10.53-2.54,2.97-1.28,5.71-3.25,8.78-4.31,4.77-1.47,9.96-2.19,14.92-1.44"/><path class="b" d="M7.81,16.53c2.6.04,5.29.24,7.9.08,4.99-.26,10.28-.5,14.92,1.67,2.97,1.31,5.41,3.67,7.9,5.69,2.11,1.74,4.45,3.45,7.02,4.43,2.79,1.03,5.81,1.84,8.78,2.12,2.31.1,4.73-.07,7.02.26,2.09.28,4.21,1,6.14,1.83,2.31,1.06,4.79,2.01,7.02,3.22,3.57,2.04,7.29,4.15,11.41,4.82,1.99.35,4.13.34,6.14.45,1.72.12,3.56.41,5.27.62,4.48.67,9.22.11,13.16-2.21,1.94-1.18,3.98-2.47,6.14-3.2,5.56-1.97,11.81-2.34,16.67-5.97,3.68-2.39,7.87-4.19,12.29-4.55,2.91-.28,5.97-.25,8.78-1.19,4.5-1.29,8.69-3.63,13.16-4.98,2.26-.61,4.71-.69,7.02-.94,3.18-.35,6.46-.66,9.65-.33"/><path class="b" d="M7.81,13.87c2.31.1,4.71.35,7.02.32,3.49,0,7.08-.17,10.53.47,11.3,2.2,11.85,10.23,25.45,11.64,3.15.77,6.51.63,9.65,1.42,3.15.78,6,2.55,8.78,4.16,2.54,1.39,5.28,2.64,7.9,3.88,2.46,1.11,5.2,1.79,7.9,1.89,2.31.13,4.71-.21,7.02-.1,3.54.28,6.97,1.68,10.53,1.82,5.71.34,8.56-2.68,13.16-5.11,5.16-2.6,10.98-3.96,15.8-7.23,5.44-4.07,10.04-4.78,16.67-4.35,3.02.2,5.99-.81,8.78-1.86,4.02-1.38,8-3.35,12.29-3.74,1.7-.16,3.57-.15,5.27-.38,3.19-.42,6.43-1.12,9.65-1.16"/><path class="b" d="M7.81,11.88c4.08.22,8.21.05,12.29,0,3.95.03,7.97.94,11.41,2.92,3.55,2.05,6.71,4.92,10.53,6.47,2.48,1.03,5.26,1.23,7.9,1.57,3.5.64,7.15,1.12,10.53,2.26,3.4,1.17,6.44,3.27,9.65,4.82,3.67,1.52,7.48,3.06,11.41,3.76,3.75.7,7.65.3,11.41.81,3.78.67,7.52,2.15,11.41,2.01,4.61.03,8.28-3.07,12.29-4.87,5.75-2.57,11.58-5.17,16.67-8.93,3.34-2.25,7.38-3.43,11.41-3.35,2.3-.02,4.74.22,7.02-.2,5.26-1.21,10.42-3.2,15.8-3.87,2.3-.24,4.74-.09,7.02-.5,3.22-.55,6.41-1.62,9.65-2.04"/><path class="b" d="M7.81,10c13.37-.55,16.06-3.13,28.08,5.23,2.67,1.74,5.6,3.38,8.78,3.93,2,.36,4.14.49,6.14.82,1.74.33,3.57.86,5.27,1.35,4.22,1.21,8.18,3.26,12.29,4.76,2.23.81,4.7,1.08,7.02,1.52,3.5.66,7.07,1.34,10.53,2.16,2.59.63,5.3,1.21,7.9,1.82,3.14.76,6.4,1.5,9.65,1.41,5.29-.03,9.99-2.85,14.92-4.39,3.36-1.23,6.64-2.89,9.65-4.81,2.91-1.83,5.67-4.09,8.78-5.6,4.04-2.13,8.7-2.38,13.16-2.67,3.23-.41,6.42-1.47,9.65-1.92,2.29-.33,4.7-.69,7.02-.81,2.3-.1,4.73.09,7.02-.23,3.56-.53,7-1.89,10.53-2.57"/></svg>