<?xml version="1.0" encoding="UTF-8"?><svg id="a" xmlns="http://www.w3.org/2000/svg" width="1920" height="2400" viewBox="0 0 192 240"><defs><style>.b{fill:none;stroke:#fff;stroke-miterlimit:10;stroke-width:.3px;}.c{stroke-width:0px;}</style></defs><rect class="c" width="192" height="240"/><path class="b" d="M8.44,222.88c1.99-.57,4.01-1.56,6.1-1.69,2.57.73,5.25,1.45,7.84,2.1,5.39,1.42,10.97,2.28,16.55,2.27,7.26-.07,14.55-.59,21.78-1.19,4.35-.32,8.71-1.11,13.07-1.36,7.85-.25,15.73-.51,23.52-1.53.77-.09,1.84-.23,2.61-.33,1.71.17,3.55.55,5.23.92,3.64.81,7.22,2.16,10.46,4.02,2.58-.66,5.48-.6,7.84.73,2.29-.02,4.68.05,6.97-.04,1.71-2.43,4.29-4.35,6.97-5.6,6.29,2.15,3.19,2.29,9.58.1,1.11-.3,2.4.28,3.49.49,2,.48,4.2.23,6.1-.52,2.77.62,4.75,3.23,6.1,5.57,1.11-.06,2.48.22,3.49-.36,3.42-7.03,10.64-6.92,17.43-6.63"/><path class="b" d="M8.44,220.6c2.02-.51,4.05-1.38,6.1-1.74,2.92.57,5.83,1.57,8.71,2.31,6.22,1.85,12.66,3.13,19.17,3.18,10.5.19,20.96-1.13,31.37-2.38,8.13-.56,16.33-.58,24.4-1.87,2.59-.25,5.24-1.1,7.84-1.14,1.72.35,3.56.83,5.23,1.37,1.75.57,3.6,1.32,5.23,2.2.36.27,1.3.68,1.74.8.41-.04,1.32-.04,1.74,0,.8.07,1.88.34,2.61.67,0,0,.87.47.87.47l.87.05c1.09,0,2.4,0,3.49,0,.79,0,1.9.09,2.61-.34,1.49-2.18,3.78-3.92,6.1-5.15,1.52.01,2.95,1.17,4.36,1.66,1.68-.55,3.42-1.81,5.23-1.69,4.78,1.61,7.52,2.65,12.2-.09,2.36,1,4.13,3.33,5.23,5.58,2.35.06,3.24.47,4.36-1.95,3.38-5.2,10.1-5.41,15.68-5.28"/><path class="b" d="M8.44,218.1c2.03-.4,4.07-1.23,6.1-1.61,4.68,1.14,9.34,2.59,13.94,4.01,1.98.59,4.08,1.17,6.1,1.62,3.75.14,7.57.02,11.33.06,6.96,0,13.95,0,20.91,0,3.17-.35,6.39-1.04,9.58-1.22,7.85-.57,15.79-.66,23.52-2.24,3.19-.59,6.44-1.35,9.58-2.15,3.7.45,7.24,2.13,10.46,3.98,1.05.54,2.48.69,3.49,1.35,1.03.46,2.39.23,3.49.28,1.11-.06,2.49.23,3.49-.38,1.47-2.24,3.75-4.03,6.1-5.27,1.11.51,2.37,1.24,3.49,1.72,1.34-.64,2.85-1.58,4.36-1.63,1.7.67,3.49,1.52,5.23,2.1,4.7,1.99,6.54-.31,10.46-2.1,1.86,1.17,3.42,3.14,4.36,5.11.41.3,1.23.54,1.74.44.48.08,1.32-.11,1.74-.34,2.87-6.22,9.53-7.16,15.68-7.1"/><path class="b" d="M8.44,215.42c1.72-.33,3.55-.79,5.23-1.28.82.03,1.84.38,2.61.6,4.99,1.35,9.95,2.96,14.81,4.74,2.51.72,5.26.26,7.84.38,4.63,0,9.31,0,13.94,0,8.99,0,18.02,0,27.01,0,2.35,0,4.66-1.09,6.97-1.46,3.69-.8,7.57-1.19,11.33-.63,2.02.44,4.13-.58,6.1-.97,2.9-.77,5.86-1.7,8.71-2.63,3.01.44,5.97,2.14,8.71,3.42,1.38.72,2.94,1.49,4.36,2.13,1.37.21,2.99.23,4.36-.02,1.44-2.29,3.64-4.32,6.1-5.45.78.42,1.85,1.01,2.61,1.45,1.12-.41,2.38-1.06,3.49-1.48,3.64,1.01,6.63,4.11,10.46,4.53,3.1-.06,5.44-2.65,7.84-4.29h.87c1.9,1.3,2.98,3.65,4.36,5.4h2.61c3.03-6,8.56-7.38,14.81-7.49"/><path class="b" d="M8.44,212.6c2-.25,4.12-1.21,6.1-.38,3.48,1,7.04,2.01,10.46,3.23,1.1.37,2.34.98,3.49,1.21.78.07,1.84.2,2.61.3,2.91.53,5.76.66,8.71.57,11.32-.05,22.68.23,33.98-.46,10.18-1.63,20.47-5.74,30.49-1.03,4.09-1.26,8.06-3.07,12.2-4.18,2.66.87,5.28,2.08,7.84,3.19,2.17.83,4.6,2.15,6.97,1.45,1.29-1.89,3.25-3.47,5.23-4.59.79.35,1.73,1.07,2.61,1.12.76-.38,1.83-.85,2.61-1.18,3.23,1.25,5.91,3.63,8.71,5.59,1.98.16,4.12.15,6.1,0,2.06-1.71,3.98-3.81,6.1-5.45,2.13.57,3.37,3.32,4.36,5.12.42.28,1.24.51,1.74.42.48.08,1.32-.11,1.74-.36,2.33-4.94,7.95-6.81,13.07-7"/><path class="b" d="M8.44,209.69c2.62-.45,5.33.52,7.84,1.19,3.21.95,6.49,1.99,9.58,3.28.75.35,1.81.27,2.61.28,1.4.03,2.96.13,4.36.23,5.2.58,10.46.56,15.68.52,4.96.03,9.88-1.13,14.81-1.48,4.33-.54,8.77-.25,13.07-1.07,9.96-1.8,21.59-4.76,30.49,1.71,1.51-.13,2.97-1.15,4.36-1.7,2.57-1.04,5.22-2.15,7.84-3.08,4.34,1.06,8.44,4.12,13.07,3.57,1.45-1.01,2.78-2.53,4.36-3.38.52-.07,1.34.26,1.74.58.86.11,1.85-.47,2.61-.79,3.11.96,5.55,3.43,7.84,5.63h10.46c1.56-1.94,3.31-3.99,5.23-5.58,2.13.73,3.34,3.41,4.36,5.27,1.02.49,2.4.34,3.49.2,2.08-4.28,6.79-6.37,11.33-6.81"/><path class="b" d="M8.44,207.54c5.72.71,11.28,2.65,16.55,4.93,6.95-.6,13.95.27,20.91-.16,7.86-.54,15.65-2.16,23.52-2.58,8.47-.27,16.75-3.07,25.27-2.5,3.93.23,7.94,1.18,11.33,3.25,1.19.62,2.21,1.98,3.49,2.4,1.53-.23,2.94-1.43,4.36-2.03,2.53-1.3,5.17-2.62,7.84-3.59,3.96,1.09,7.97,3.54,12.2,2.51,1.07-.82,2.3-1.86,3.49-2.52.79.6,1.76.66,2.61.14.9-.19,1.87.52,2.61.93,2.02,1.09,3.55,3.06,5.23,4.56,2.88,0,5.84,0,8.71,0,1.69-.1,3.6.26,5.23-.25,1.18-1.82,2.72-3.71,4.36-5.13l.87-.07c1.79,1.43,2.91,3.75,4.36,5.46,1.1-.05,2.47.2,3.49-.32,1.85-3.08,5.26-4.92,8.71-5.58"/><path class="b" d="M8.44,205.92c3.55.59,7.09,1.61,10.46,2.87,1.99.61,3.93,2.19,6.1,1.65,7.2-1.06,14.56-.3,21.78-1.15,8.99-1.14,17.96-2.61,27.01-3.18,2.3-.27,4.68-.65,6.97-.98,1.4-.24,2.95-.45,4.36-.17,3.16.33,6.41.55,9.58.37,1.4-.08,2.97-.27,4.36-.5,1.11.18,2.42.56,3.49.94,2.56.91,5.09,2.34,6.97,4.32,0,0,.87.47.87.47h.87c.77,0,1.85,0,2.61,0,3.25-2.2,6.68-4.47,10.46-5.62,3.61,1.18,7.53,2.85,11.33,1.54.79-.42,1.75-1.2,2.61-1.49l.87.31.87-.35c2.84.96,5.3,3.14,6.97,5.6,1.99.06,4.11.01,6.1.03.78-.22,1.79-.65,2.61-.64,1.39.18,2.97.11,4.36.29,1.09.19,2.37.43,3.49.35.68-.19,1.43-1.28,1.74-1.86.93-1.3,2.23-2.71,3.49-3.7,2.37.89,3.71,3.67,5.23,5.56,1.09-.03,2.41.1,3.49-.15.86-.39,1.96-1.03,2.61-1.73.99-.77,2.3-1.47,3.49-1.88"/><path class="b" d="M8.44,204.58c3.57.73,7.13,1.83,10.46,3.32.76.4,1.79.32,2.61.32,1.1,0,2.39.03,3.48-.05,6.61-1.08,13.39-.69,20.04-1.48,9.57-1.23,19.11-2.94,28.75-3.59,1.7-.16,3.52-.55,5.23-.61,2.88.35,5.83.78,8.71,1.02,2.87.25,5.85.28,8.71-.07,1.72-.14,3.51-.77,5.23-.83,2.47.73,4.95,1.89,6.97,3.5.46.38,1.34,1.22,1.74,1.66,1.23.82,2.95.32,4.36.45.81,0,1.91.1,2.61-.39,1.32-1.07,2.89-2.18,4.36-3.05,5.5-3.03,3.91-2.15,9.58-.95,1.99.36,4.17.21,6.1-.37,1.04-.54,2.33-1.34,3.48-.5,2.48,1.08,4.45,3.17,6.1,5.26,1.7-.02,3.53.04,5.23-.04,2.51-2.57,5.7-2.7,8.71-.91,2,.23,4.13,1.58,6.1.62,1.3-1.94,2.92-4.43,5.23-5.18,1.93,1.37,3.79,3.16,5.23,5.05l.87.32c1.61-.92,3.45-1.76,5.23-2.31"/><path class="b" d="M8.44,203.49c2.35.6,4.76,1.4,6.97,2.39,2.88-.01,5.84.04,8.71-.02,1.98-.37,4.09-.59,6.1-.73,4.63-.31,9.33-.44,13.94-.99,5.81-.74,11.63-1.74,17.43-2.55,4.61-.65,9.3-1.11,13.94-1.41,5.22.53,10.43,1.66,15.68,1.77,3.51.09,7.08-.47,10.46-1.43,1.11-.54,2.45.17,3.49.6,2.28,1,4.5,2.52,6.1,4.45.71.41,1.83.33,2.61.32,1.09,0,2.4,0,3.49,0,1.44-1.3,3.28-2.4,5.23-2.67,1.91-1.12,3.92-2.45,6.1-2.99,3.8,1.32,7.55,1.65,11.33.05,2.9.86,5.25,3.1,6.97,5.51,1.39.2,2.96.07,4.36.11.95-.32,1.78-1.39,2.61-1.9,1-.63,2.32-1.14,3.49-1.36,2.51-.21,4.94.86,6.97,2.25.79.25,1.85.68,2.61,1,.77,0,1.84,0,2.61,0,1-.6,1.79-1.99,2.61-2.78.98-.98,2.29-1.98,3.49-2.66.91-.13,1.86.61,2.61,1.02,1.41.82,2.96,1.78,4.36,2.62l.87-.2"/><path class="b" d="M8.44,202.8c.79.26,1.77.75,2.61.76,1.7,0,3.53,0,5.23,0,2,0,4.1,0,6.1,0,1.98-.36,4.08-.7,6.1-.81,6.09-.4,12.26-.54,18.3-1.51,8.12-1.13,16.21-2.73,24.4-3.34,3.48-.19,7.02.64,10.46,1.09,4.3.69,8.71,1.39,13.07.98,2.03-.18,4.14-.62,6.1-1.17,1.09-.23,2.35-.94,3.49-.72,2.98,1.05,5.88,2.83,7.84,5.35,1.08.21,2.39.1,3.49.13.79,0,1.86.06,2.61-.21.69-.68,1.74-1.45,2.61-1.86,1.31-.65,2.91-.89,4.36-.98,1.57-1.08,3.41-2.04,5.23-2.63,11.7,3.54,7.48-4.82,18.3,5.68,1.1-.03,2.42.12,3.49-.19,3.08-4.01,8.72-4.87,13.07-2.45.85.44,1.91,1.2,2.61,1.85,1.78,1.22,4.07.68,6.1.79,1.73-1.86,3.69-3.77,6.1-4.71,1.06-.39,2.33-1.03,3.49-.86"/><path class="b" d="M8.44,201.23c3.76,0,7.57,0,11.33,0,2.87-.39,5.81-.96,8.71-1.04,2.59-.2,5.24-.79,7.84-.94,3.74-.38,7.57-.34,11.33-.53,6.1-.83,12.19-2.05,18.3-2.81,6.41-1.12,12.85.53,19.17,1.52,6.78,1.26,12.72.62,19.17-1.77,2.97.59,5.76,2.46,7.84,4.63,1.79,1.14,4.06.96,6.1.95.9-.34,1.8-1.3,2.61-1.78,1.78-1.13,4.02-1.46,6.1-1.27,1.55-1.12,3.39-2.08,5.23-2.62,2.22.68,4.67,1.1,6.97.59.44-.09,1.31-.32,1.74-.45.78,0,1.84.1,2.61.12,1.52.79,3.09,1.9,4.36,3.05.79.69,1.67,1.87,2.61,2.36,1.66.08,2.47.03,3.48-1.41,1.39-1.39,3.32-2.35,5.23-2.76,3.56-.92,7.33.01,10.46,1.82,1.46.66,2.62,2.57,4.36,2.35,1.99-.06,4.12.14,6.1-.12.98-.82,2.31-1.59,3.49-2.09"/><path class="b" d="M8.44,198.9c2.88-.03,5.84.06,8.71-.04,5.48-.94,11-2.04,16.55-2.45,5.78-.54,11.64-.32,17.43-.41,4.63-.77,9.29-1.69,13.94-2.33,1.99-.26,4.1-.52,6.1-.6,4.09.21,8.18.99,12.2,1.75,8.82,1.8,13.32,1.28,21.78-1.54,2.53.82,5.03,2.16,6.97,3.99,1.04.45,2.41.45,3.49.8,1.08.36,2.3,1,3.49.84.85-.44,1.79-1.35,2.61-1.83,1.8-1.06,4.03-1.52,6.1-1.23.54.03,1.36-.38,1.74-.74.74-.48,1.8-1.04,2.61-1.37.42-.2,1.28-.42,1.74-.42.43.14,1.3.38,1.74.47,2.3.52,4.76.18,6.97-.56.74.47,1.8.22,2.61.19,2.66,1.29,4.92,3.39,6.97,5.49h1.74c3.84-5.43,11.67-5.67,17.43-3.54,1.45.53,3.03,1.25,4.36,2.03.77.46,1.72,1.29,2.61,1.51,1.7,0,3.53,0,5.23,0"/><path class="b" d="M8.44,196.57c1.4,0,2.96.02,4.36-.02,2.01-.38,4.1-.93,6.1-1.37,4.01-.79,8.13-1.26,12.2-1.56,5.2-.37,10.47-.44,15.68-.33,2.29.01,4.68.22,6.97.2,1.09-.21,2.39-.46,3.49-.67,5.72-1.05,11.6-2.14,17.43-2.06,6.4.69,12.68,2.9,19.17,2.7,2.94-.1,5.91-.81,8.71-1.68.77-.24,1.85-.59,2.61-.85,1.5.12,3.03.96,4.36,1.62,1.16.57,2.28,1.7,3.48,2.19,2.4.03,4.91.56,6.97,1.83.85-.42,1.79-1.31,2.61-1.78,2.06-1.2,4.63-1.66,6.97-1.2,1.64-.98,3.35-2.19,5.23-2.69,3.04,1.27,6.54,1.24,9.58,0,.77.45,1.86.47,2.61-.02,1.85.87,3.7,2.12,5.23,3.48,1.02.82,1.98,2.5,3.49,2.22,2.65-3.56,7.04-4.89,11.33-4.8,5.75-.07,11.28,1.89,16.55,3.97"/><path class="b" d="M8.44,194.04c14.46-3.8,29.59-3.85,44.44-3.14,1.09.06,2.39.14,3.49.21,2.59-.4,5.24-1.04,7.84-1.4,4.02-.67,8.18-.64,12.2-1.32,4.97.26,9.82,2.12,14.81,2.42,4.12.37,8.28-.46,12.2-1.69.76-.23,1.8-.65,2.61-.54.42.15,1.33.46,1.74.64,1.82.72,3.66,1.79,5.23,2.97,1.71-.08,3.57.03,5.23.45,1.16.23,2.33,1.04,3.49,1.23,1.66-1.48,3.88-2.47,6.1-2.7,1.1-.17,2.4.15,3.49-.08,1.26-1.04,2.8-2.05,4.36-2.55,7.83,3.45,9.58-.96,12.2.59.4-.3,1.24-.59,1.74-.54,2.99,1.27,5.35,3.66,7.84,5.64l.87-.02c5.63-7.03,17.55-4.24,25.27-2.91"/><path class="b" d="M8.44,190.57c5.97-1.49,12.17-1.94,18.3-2.34,9.28-.51,18.61-.34,27.88.21,2,.12,4.11.27,6.1.42,1.1-.17,2.39-.43,3.49-.6,3.14-.58,6.42-.54,9.58-.98,2.3-.32,4.67-.89,6.97-1.21,2.29.44,4.67.99,6.97,1.42,3.13.6,6.41.86,9.58.45,2.92-.26,5.8-1.45,8.71-1.63,1.76.51,3.62,1.24,5.23,2.11.77.42,1.75,1.17,2.61,1.39,2.95-.19,6.15.08,8.71,1.68,1.16-.41,2.31-1.38,3.49-1.78,1.9-.73,4.09-.98,6.1-.64,1.27-1.12,2.84-2.19,4.36-2.94,8.88,4.92,10.48-.59,13.94.53.81-.58,1.78-.61,2.61-.06,1.48.74,3.03,1.75,4.36,2.75,1.38.83,2.59,2.78,4.36,2.58,5.34-5.48,14.84-3.85,21.78-3.4"/><path class="b" d="M8.44,187.31c16.39-2.63,33.15-2.17,49.66-1.21,3.46.23,6.99.48,10.46.53,2.31.04,4.73.11,6.97-.57,2.88-.7,5.8-1.57,8.71-2.12,1.72-.05,3.52.63,5.23.83,2.85.49,5.84.66,8.71.33,2.3-.31,4.71-.61,6.97-1.11,3.07.42,6.1,1.76,8.71,3.4,1.34.48,2.96.01,4.36.21,1.11.07,2.43.3,3.49.65.79.26,1.8.85,2.61,1.04,2.45-1.84,5.67-2.7,8.71-2.38,1.34-1.02,2.77-2.32,4.36-2.96,6.93,3.67,7.77,3.89,14.81.16.83.23,1.81-.31,2.61-.42,2.12.82,4.2,2.04,6.1,3.28,1.1.71,2.4,1.59,3.49,2.33.73.41,1.81.33,2.61.32,1.33-.75,2.86-1.51,4.36-1.85,3.97-.93,8.15-.81,12.2-.67"/><path class="b" d="M8.44,184.34c17.33-2.15,34.87-1.56,52.28-.77,4.34.18,8.73.16,13.07.13,1.4.02,2.96.08,4.36.17,1.11.09,2.45.3,3.49-.24,2.52-.89,5.2-1.61,7.84-2.03,2.56.43,5.24.78,7.84.67,2.59-.06,5.26-.43,7.84-.6,3.68.65,7.26,2.03,10.46,3.95,3.22-.27,6.79-.2,9.58,1.63,1.17-.32,2.32-1.24,3.49-1.61,1.63-.59,3.5-.87,5.23-.78,1.25-1.18,2.69-2.62,4.36-3.17,8.63,5.02,7.64,5.67,16.55.6.74-.39,1.79-.85,2.61-1,1.49.17,3,1.02,4.36,1.61,2.87,1.39,5.75,2.99,8.71,4.2,1.67.33,3.53.09,5.23.16,2.58,0,5.26,0,7.84,0"/><path class="b" d="M8.44,181.59c18.53-1.84,37.18-1.05,55.76-.79,4.63.05,9.31-.53,13.94-.12,1.7.12,3.54.31,5.23.54.77.1,1.84.26,2.61.37.42-.17,1.31-.5,1.74-.65,3.91-1.34,8.08-1.91,12.2-1.6,6.09-.35,12.21,1.38,17.43,4.49,1.7-.12,3.55-.12,5.23.17.81.14,1.87.47,2.61.81.77.15,1.83.12,2.61.12,1.82-1.06,3.99-1.72,6.1-1.84,1.9-.85,3.11-3.18,5.23-3.68,2.45,1.5,4.66,3.55,6.97,5.24,1.04.45,2.39.23,3.49.27,1.56-1.24,3.48-2.18,5.23-3.12,1.94-1.03,4.02-2.1,6.1-2.83,3.57.86,6.96,2.52,10.46,3.63,3.91,1.3,8.07,2.07,12.2,2.13"/><path class="b" d="M8.44,179.04c15.93-1.31,31.95-1.06,47.92-1.08,5.8.13,11.63-.43,17.43-.54,5.55.02,11.1.86,16.55,1.86,3.85-1.55,8.05-2.31,12.2-2.02,5.76.24,11.68,1.54,16.55,4.73.69.57,1.78.46,2.61.47,1.39.14,2.95.18,4.36.15,1.4,0,2.96,0,4.36,0,.8-.11,1.83-.53,2.61-.71.99-.05,2.06-.71,2.61-1.53,1.27-1.16,2.64-2.82,4.36-3.26,2.33,1.42,4.08,3.73,6.1,5.49,1.09,0,2.39,0,3.49,0,.81,0,1.89.09,2.61-.35,3.22-2.09,6.87-3.53,10.46-4.85.43-.15,1.31-.43,1.74-.56.44.05,1.32.23,1.74.36.81.35,1.81-.14,2.61-.3,4.84,1.23,9.78,2.47,14.81,2.5"/><path class="b" d="M8.44,176.63c15.36-1.13,30.79-.97,46.18-1.3,6.67-.07,13.36-.85,20.04-.79,6.16.1,12.28,1.23,18.3,2.46,8.43-3.61,21.15-1.68,28.75,3.25,4.05.03,8.15,0,12.2.01,1.62-.97,2.81-2.84,4.36-3.95.73-.55,1.64-1.49,2.61-1.49,2.04,1.4,3.81,3.42,5.23,5.44,1.99,0,4.1,0,6.1,0,1.21.15,2.4-.83,3.49-1.25,1.97-.92,4-2,6.1-2.6,1.39-.45,2.95-.92,4.36-1.3.77-.2,1.81-.54,2.61-.39,1.99.4,4.08.99,6.1,1.27,2.83-.64,5.81-.93,8.71-1.03"/><path class="b" d="M8.44,174.38c8.98-.65,18.01-.86,27.01-1.05,3.18-.07,6.41-.29,9.58-.47,1.7-.03,3.53.12,5.23.04,8.41-.25,16.84-1.23,25.27-1.03,6.17.25,12.34,1.25,18.3,2.87,6.13-2.09,12.83-2.29,19.17-.87,3.61.83,7.32,1.89,10.46,3.92,1.96.34,4.11.08,6.1.16,1.09,0,2.4,0,3.49,0,.45.08,1.36-.12,1.74-.38,1.85-1.8,3.95-3.6,6.1-5.04l.87.05c1.25.89,2.55,2.18,3.49,3.4.33.58,1.15,1.64,1.74,1.97,1.4,0,2.96,0,4.36,0,1.08-.52,2.26-1.33,3.49-1.46.77-.12,1.83-.14,2.61-.07.79-.23,1.84-.62,2.61-.9,2.85-.99,5.77-2.08,8.71-2.75.77-.16,1.84-.38,2.61-.52,1.41.13,2.96.54,4.36.78,2.58.5,5.26.98,7.84,1.43"/><path class="b" d="M8.44,172.23c4.92-.3,9.89-.66,14.81-.81,4.94-.11,9.92-.2,14.81-.94,5.78-.74,11.64.16,17.43-.44,6.66-.41,13.37-.91,20.04-.74,6.48.28,12.98,1.35,19.17,3.31,8.3-3.45,18.77-2.13,27.01.97,1.42.59,2.98,1.3,4.36,2,2.29.07,4.68.01,6.97.03,3.15-1.38,5.73-3.97,8.71-5.66,2.27,1.01,3.99,3.31,5.23,5.4,1.33.5,2.96.18,4.36.27,2.24-2.94,6.08-3.69,9.58-3.49.78.03,1.84.13,2.61.23.44-.09,1.31-.31,1.74-.43,2.85-.74,5.81-1.42,8.71-1.95,3.19.46,6.42,1.16,9.58,1.78"/><path class="b" d="M8.44,170.16c6.66-.51,13.36-.86,20.04-1.08,2.88-.31,5.81-1.02,8.71-1.2,6.08-.62,12.23.25,18.3-.37,6.66-.38,13.37-.85,20.04-.67,6.49.31,13.04,1.38,19.17,3.57,5.17-2.31,10.99-2.62,16.55-2,4.47.42,8.87,1.51,13.07,3.08,3.55,1.44,7.82.89,11.33-.44,1.45-.58,3-1.41,4.36-2.18.75-.41,1.72-1.14,2.61-1.16,2.24,1.21,3.97,3.4,5.23,5.57.84.13,1.84-.36,2.61-.63,1.17-.42,2.64-.81,3.48-1.8,1.71-1.35,3.97-1.95,6.1-2.23,1.98-.26,4.1-.28,6.1-.2,1.4,0,2.98.4,4.36.03,1.39-.27,2.96-.56,4.36-.79,2.91.19,5.85,1.02,8.71,1.57"/><path class="b" d="M8.44,168.16c5.79-.49,11.62-.84,17.43-1.1,3.73-.72,7.52-1.47,11.33-1.65,4.63-.23,9.31-.19,13.94,0,7.53-.57,15.11-.99,22.65-1.01,6.78.2,13.69,1.19,20.04,3.64.48.09,1.34-.14,1.74-.42,1.05-.46,2.37-.89,3.49-1.16,3.39-.81,6.98-.96,10.46-.75,2.59.19,5.3.41,7.84.95,1.7.34,3.49,1.07,5.23,1.18,4.92-.02,10.02.92,14.81-.6,1.76-.42,3.46-1.54,5.23-1.84,2.05.84,3.6,2.64,5.23,4.06,2.29-.49,4.68-1.01,6.97-1.47,1.83-1.17,3.95-2.02,6.1-2.36,7.49-1.16,15.15-.25,22.65.35"/><path class="b" d="M8.44,166.24c4.91-.47,9.89-.78,14.81-1.07,3.16-.55,6.36-1.46,9.58-1.71,4.03-.45,8.15-.51,12.2-.48,2.59-.02,5.26.3,7.84.01,6.37-.45,12.79-.71,19.17-.87,5.87-.03,11.78.81,17.43,2.43,5.41,1.88,2.52,1.65,7.84-.18,3.08-.93,6.38-1.27,9.58-1.27,3.78.05,7.64.29,11.33,1.2,2.28.03,4.68-.29,6.97-.15,3.17.07,6.41.41,9.58.21,2.34-.12,4.73-.71,6.97-1.36,1.89.56,3.62,1.78,5.23,2.88,3.44-.69,6.97-1.28,10.46-1.64,2.26-.67,4.59-1.53,6.97-1.74,6.35-.75,12.81-.51,19.17.05"/><path class="b" d="M8.44,164.42c4.33-.45,8.73-.71,13.07-1.06,3.72-.85,7.5-1.8,11.33-2.09,4.03-.41,8.15-.51,12.2-.46,3.18.09,6.42.26,9.58-.09,6.37-.34,12.79-.76,19.17-.74,6.22.28,12.61,1.21,18.3,3.85,4.44-2.6,9.74-3.37,14.81-3.08,2.89-.19,5.87-.11,8.71.51,1.4.16,2.95-.32,4.36-.36,1.99-.16,4.1-.19,6.1-.14,2.88.07,5.83.31,8.71.27,1.71.06,3.53-.39,5.23-.28,7.63,1.68,2.47,2.7,11.33.94,3.43-.61,6.98-.94,10.46-1.13,1.41-.08,2.94-.58,4.36-.72,5.76-.73,11.65-.39,17.43-.06"/><path class="b" d="M8.44,162.77c4.04-.39,8.15-.73,12.2-1.1,3.38-1.07,6.93-1.81,10.46-2.2,4.32-.5,8.72-.72,13.07-.67,3.17.01,6.42.4,9.58.04,5.21-.35,10.47-.55,15.68-.78,7.07-.29,14.45.53,20.91,3.56,2.88-1.77,6.27-2.7,9.58-3.21,1.99-.06,4.09.38,6.1.27,2.6.07,5.27-.79,7.84-.16.45.01,1.31-.08,1.74-.19.78.05,1.83.2,2.61.29,1.99.22,4.1.31,6.1.32,4.63.02,9.32-.42,13.94-.01,1.73.16,3.58.49,5.23,1.06,1.72-.13,3.53-.62,5.23-.92,1.39-.24,2.94-.65,4.36-.68,2.28.37,4.67.72,6.97.9,7.57-2.38,15.68-2.28,23.52-1.65"/><path class="b" d="M8.44,161.41c3.75-.41,7.57-.79,11.33-1.18,3.4-1.03,6.9-2,10.46-2.4,4.6-.61,9.3-.84,13.94-.81,2.88-.03,5.84.48,8.71.21,4.63-.33,9.31-.54,13.94-.77,7.03-.51,14.41-.18,20.91,2.78,1.21-.08,2.36-1.03,3.49-1.41,2.21-.79,4.61-1.7,6.97-1.75,1.98.33,4.09.56,6.1.58,2.9.06,5.84-.54,8.71-.63,3.77.36,7.56,1.05,11.33,1.46,3.46.04,6.99-.19,10.46-.17,2-.09,4.11.36,6.1.25,2.01-.28,4.11-.69,6.1-1.08.77-.15,1.82-.41,2.61-.4.43.09,1.31.26,1.74.35,12,2.44,4.62,1.62,14.81-.48,5.74-.87,11.65-.94,17.43-.37"/><path class="b" d="M8.44,159.32c3.75-.1,7.6.23,11.33-.2,2.29-.63,4.6-1.63,6.97-2.04,7.13-1.45,14.53-1.82,21.78-1.27,4.04.49,8.15-.28,12.2-.39,8.14-.44,16.7-1.68,24.4,1.77,2.93-1.73,6.28-2.8,9.58-3.51,2.57.43,5.23.93,7.84.96,2.04.06,4.18-.07,6.1-.8.48-.14,1.29-.09,1.74.1.79.17,1.83,0,2.61-.1,1.7-.33,3.53.14,5.23.3,2.58.31,5.25.63,7.84.87,6.69.71,13.48.18,20.04-1.24,1.42-.13,2.97.47,4.36.73,2,.48,4.11,1.04,6.1,1.58.77.2,1.81.6,2.61.36.41-.24,1.31-.67,1.74-.87,1.34-.58,2.92-1.04,4.36-1.33,6-1.09,12.24-1.23,18.3-.57"/><path class="b" d="M8.44,156.99c5.5,0,11.05,0,16.55,0,8.42-2.51,17.47-2.88,26.14-1.55,4.92-.45,9.89-.78,14.81-1.16,4.94-.49,10.05-.88,14.81.83,3.32-1.6,6.84-2.94,10.46-3.74,2.58.43,5.22,1.09,7.84,1.27,1.4.04,3.06.36,4.36-.28,1.07-.36,2.34-.88,3.49-.95,1.09.24,2.36.87,3.49.61,1.7-.18,3.52-.55,5.23-.67,1.09.12,2.39.27,3.49.39,4.32.47,8.71.94,13.07.89,3.78-.03,7.61-.47,11.33-1.16,1.11-.17,2.4.28,3.49.47,2.01.45,4.13,1.02,6.1,1.63,1.68.38,3.53,1.54,5.23,1.52,6.43-4.1,17.83-3.93,25.27-3.03"/><path class="b" d="M8.44,153.16c1.42.39,2.98.89,4.36,1.41,2.28.2,4.68.04,6.97.09,4.92,0,9.89,0,14.81,0,6.67,0,13.37,0,20.04,0,4.93-.02,9.92.21,14.81-.58.78-.1,1.83-.22,2.61-.24.8-.2,1.85-.59,2.61-.88,2.56-.97,5.21-1.97,7.84-2.72,1.39-.4,2.95-.83,4.36-1.17.8,0,1.84.29,2.61.47,2.84.65,5.8,1.22,8.71,1.35,1.94-.69,4.01-1.78,6.1-1.8,1.09.31,2.39.68,3.49.99,2.9-.08,5.83-.82,8.71-1.15,4.91.49,9.87,1.03,14.81.96,3.18-.04,6.44-.34,9.58-.85,3.54.3,7.11,1.22,10.46,2.42,1.09.4,2.41.9,3.49,1.35.74.31,1.77.9,2.61.79,4.41-2.76,9.67-3.73,14.81-3.72,3.77-.06,7.61.1,11.33.77"/><path class="b" d="M8.44,149.2c4.71.68,9.37,1.84,13.94,3.13,8.99,0,18.01,0,27.01,0,2.29-.01,4.68.03,6.97-.02,2.55-.83,5.23-1.57,7.84-2.18,4.89-1.13,9.92-1.77,14.81-2.9.78-.17,1.84-.39,2.61-.56,1.4.28,2.96.67,4.36.99,1.69.39,3.52.8,5.23,1.09.79.13,1.85.37,2.61.04,2.23-.86,4.6-1.76,6.97-2.12,2,.47,4.05,1.34,6.1,1.55,1.09-.15,2.4-.35,3.49-.53,2.58-.37,5.24-.94,7.84-1.07,3.45.31,6.99.58,10.46.59,2.88.01,5.85-.16,8.71-.52,6.37.57,12.63,2.46,18.3,5.42,1.2-.14,2.36-1.07,3.49-1.48,2.2-.94,4.61-1.65,6.97-2.07,5.75-.88,11.76-.28,17.43.93"/><path class="b" d="M8.44,145.35c7.32.4,14.52,1.88,21.78,2.81,3.45.32,7-.08,10.46,0,2.29-.04,4.68.09,6.97,0,2.3-.32,4.68-.76,6.97-1.17,5.47-1,11.02-1.85,16.55-2.46.78-.1,1.82-.3,2.61-.28,1.1.19,2.4.45,3.49.68,3.18.62,6.36,1.72,9.58,2.08,3.11-1.11,6.35-2.09,9.58-2.77,2.61.58,5.25,1.41,7.84,2.07,1.41.18,2.96-.34,4.36-.51,2.57-.44,5.25-.87,7.84-1.17,3.45-.56,6.98-.14,10.46-.13,1.7.01,3.53-.09,5.23-.14,2.3.18,4.69.44,6.97.78,3.58.52,7.1,1.71,10.46,3.02,1.43.5,2.88,1.49,4.36,1.83.41,0,1.33,0,1.74,0,.77-.32,1.84-.82,2.61-1.13,1.36-.54,2.94-1.03,4.36-1.38,6.87-1.77,14.2-1.12,20.91,1.04"/><path class="b" d="M8.44,142.38c2.3-.08,4.68-.24,6.97-.46,1.41,0,2.96.25,4.36.36,6.94.63,13.94,1.13,20.91,1.09,6.11.02,12.22-.82,18.3-1.32,4.93.56,9.93,1.03,14.81,1.91.78.18,1.84.44,2.61.63,1.41-.1,2.97-.43,4.36-.69,3.17-.65,6.4-1.43,9.58-2,3.23.25,6.42,1.48,9.58,2.17.77.2,1.84.46,2.61.65,1.41-.15,2.96-.52,4.36-.76,3.15-.58,6.39-1.09,9.58-1.38,10.23-.8,20.87-.38,30.49,3.48,1.39.41,2.92,1.62,4.36,1.63,1.09,0,2.4,0,3.49,0,.44.08,1.35-.11,1.74-.35,3.86-1.5,8.05-2.36,12.2-2.45,2.59-.02,5.31.06,7.84.62,1.42.31,2.99.78,4.36,1.25.76.02,1.85.07,2.61.11"/><path class="b" d="M8.44,141.73c4.95.07,9.89-.59,14.81-.99,7.53-.58,15.1-1.02,22.65-1,7.84-.05,15.69.74,23.52.69,4.07.06,8.16-.6,12.2-.97,4.4.5,8.77,1.53,13.07,2.56,1.69.4,3.53.83,5.23,1.19,1.4-.31,2.96-.67,4.36-.95,6.85-1.45,13.91-2.11,20.91-1.83,3.78.17,7.65.39,11.33,1.33,3.56.84,7.16,1.93,10.46,3.54,2.87.1,5.84.02,8.71.04,1.38-.44,2.94-.92,4.36-1.23,4.55-1.06,9.35-1.17,13.94-.32,3.17.06,6.42.04,9.58.34"/><path class="b" d="M8.44,139.91c5.76-1.06,11.59-1.98,17.43-2.47,2.58-.08,5.25.4,7.84.46,4.92.27,9.89.4,14.81.42,8.7.12,17.44-.57,26.14-.06,7.08.42,13.98,2.3,20.91,3.68.48.15,1.31.03,1.74-.22.77-.24,1.83-.53,2.61-.73,2.55-.66,5.23-1.21,7.84-1.61,6.61-1.01,13.38-1.1,20.04-.48,3.53.36,7.07,1.27,10.46,2.29,1.1.35,2.42.83,3.49,1.28.69.41,1.81.6,2.61.53,2.58,0,5.26,0,7.84,0,1.69-.07,3.59.22,5.23-.31,3.1-.82,6.38-1.14,9.58-1.19,5.48-.75,11.07-.62,16.55,0"/><path class="b" d="M8.44,138.06c5.18-1.14,10.42-2.29,15.68-2.98,6.94.81,13.92,1.62,20.91,1.94,7.82.51,15.7.23,23.52.61,4.99.31,9.96,1.25,14.81,2.39,1.67.45,3.49.81,5.23.68,1.7-.05,3.55.13,5.23-.12,2.19-1.01,4.63-1.65,6.97-2.21,5.98-1.37,12.17-1.85,18.3-1.67,4.4.06,8.83.69,13.07,1.87,1.41.38,2.99.87,4.36,1.39.76.28,1.77.86,2.61.74,5.5,0,11.05,0,16.55,0,.81.06,1.85-.36,2.61-.58,1.37-.4,2.94-.78,4.36-1,6.9-1.05,14-1.09,20.91-.12"/><path class="b" d="M8.44,137.39c5.62-2.04,11.49-3.89,17.43-4.65,3.17.55,6.41,1.11,9.58,1.6,9.79,1.71,19.74,2.22,29.62,3.08,2.86.5,5.87.35,8.71.94,5.79.01,11.63,0,17.43,0,.86.14,1.83-.47,2.61-.73,1.08-.38,2.38-.77,3.49-1.06,3.4-.87,6.96-1.38,10.46-1.64,5.2-.32,10.54-.33,15.68.58,2.02.38,4.13.87,6.1,1.46,1.65.63,3.48.99,5.23,1.22,1.96.35,4.11.08,6.1.16,3.17,0,6.41,0,9.58,0,1.14.09,2.39-.53,3.49-.76,1.97-.51,4.08-1.01,6.1-1.25,7.78-1.02,15.77-1.01,23.52.18"/><path class="b" d="M8.44,136.03c1.1,0,2.39,0,3.49,0,.66.08,1.22-.15,1.74-.48,2.99-1.73,6.29-3.03,9.58-4.04,1.39-.42,2.94-.83,4.36-1.15,1.12.11,2.39.46,3.49.69,3.47.77,6.99,1.6,10.46,2.38,1.7.34,3.51.81,5.23,1.06,4.05.01,8.15-.42,12.2-.35,4.96.02,10.11.02,14.81,1.81,3.16.21,6.42.03,9.58.08,1.99-.02,4.11.06,6.1-.05,1.34-.63,2.93-1.13,4.36-1.52,3.68-.97,7.53-1.47,11.33-1.68,6.72-.36,13.58.06,20.04,2.08,3.17.03,6.44-.07,9.58.53.77.13,1.85.35,2.61.54,1.39.16,2.96.06,4.36.09,1.71-.05,3.61.23,5.23-.46,8.16-2.4,16.8-2.9,25.27-2.58,2.29.1,4.69.27,6.97.51,1.4.04,2.97.6,4.36.33"/><path class="b" d="M8.44,133.7c1.7,0,3.53,0,5.23,0,1.99-.55,4.07-1.16,6.1-1.53,2.28-1.05,4.55-2.39,6.97-3.15,1.09-.36,2.35-.83,3.49-.99,1.71.45,3.54.96,5.23,1.45,1.4.37,2.92.98,4.36,1.19,2.58-.02,5.26-.02,7.84-.05,3.46-.04,6.99.17,10.46.31,3.79.21,7.7.51,11.33,1.72,1.1.32,2.3,1.18,3.49,1.03,2.61.09,5.21-.86,7.84-.89,2.29-.2,4.68,0,6.97-.07,1.66-.57,3.5-1.03,5.23-1.36,4.86-.91,9.88-1.13,14.81-.92,4.74.05,9.38,1.2,13.94,2.31,3.13-.57,6.41-.78,9.58-.6,2.61.16,5.31.57,7.84,1.22.76.37,1.88.25,2.61-.14.76-.28,1.84-.61,2.61-.84,2.54-.73,5.23-1.2,7.84-1.58,6.35-.66,12.79-.89,19.17-.48,2.29.14,4.69.36,6.97.63.76.09,1.85.23,2.61.34.78-.24,1.85-.72,2.61-1.02"/><path class="b" d="M8.44,128.35c1.83.69,3.71,1.7,5.23,2.95,1.69.17,3.53.05,5.23.08,1.13-.21,2.38-.77,3.49-1.07,1.22-.38,2.34-1.47,3.49-2.03,1.9-1.05,4.03-1.92,6.1-2.58,1.42.39,2.97.92,4.36,1.4,1.08.36,2.32.98,3.49.81,5.8-.12,11.65-.01,17.43.45,2.61.23,5.31.59,7.84,1.3.8.22,1.85.59,2.61.92.77.51,1.8.53,2.61.12,5.02-1.66,10.45-1.76,15.68-1.45,2.27-.48,4.65-.97,6.97-1.18,5.78-.52,11.71-.46,17.43.55,2.02.39,4.14.89,6.1,1.5,1.08.32,2.37,1.01,3.49.47,6.24-1.79,12.84-1.45,19.17-.37,5.33-1.79,10.95-2.53,16.55-2.71,5.21-.26,10.48-.16,15.68.29,2.59.16,5.25.66,7.84.82,1.37-.58,2.95-1.18,4.36-1.66"/><path class="b" d="M8.44,124.21c2.09.58,4.24,1.43,6.1,2.56,1.19.59,2.18,1.98,3.48,2.28,1.99,0,4.11,0,6.1,0,2.71-2.5,5.98-4.72,9.58-5.62,1.41.49,2.97,1.08,4.36,1.65.77.31,1.77.84,2.61.89,1.99-.14,4.1-.22,6.1-.23,6.48-.02,13.1.41,19.17,2.83,3.12-.94,6.32-1.99,9.58-2.31,1.4-.08,2.96-.1,4.36-.07,1.1-.02,2.41.23,3.49-.08,7.4-1.75,15.17-1.46,22.65-.41,2.32.47,4.72,1.09,6.97,1.83,1.43.38,2.89,1.28,4.36,1.48,6.28-2.67,13.34-2.95,20.04-2.05,2.6-.38,5.21-1.32,7.84-1.63,3.45-.43,6.99-.61,10.46-.7,5.51-.12,11.08.15,16.55.78,1.4.16,2.96.36,4.36.57.83-.01,1.85-.49,2.61-.76,1.38-.5,2.95-1.02,4.36-1.43"/><path class="b" d="M8.44,120.81c4.15.92,8.35,2.62,11.33,5.74,1.96.35,4.11.08,6.1.16,1.15-.84,2.29-2.11,3.49-2.89,1.58-1.1,3.44-2.04,5.23-2.75,2.39.73,4.74,1.91,6.97,3.03.44.22,1.27.29,1.74.16,1.1-.11,2.39-.19,3.49-.23,2.88-.1,5.85,0,8.71.37,1.72.22,3.57.58,5.23,1.1.79.24,1.78.72,2.61.77,1.98-.59,4.1-1.15,6.1-1.67,2.8-.79,5.82-.97,8.71-.94,1.72-.28,3.49-.95,5.23-1.18,7.48-1.16,15.29-.75,22.65.99,2.65.75,5.36,1.65,7.84,2.84.98.62,2.39.42,3.49.28,1.06-.51,2.37-1.01,3.49-1.37,2.79-.88,5.79-1.35,8.71-1.49,1.39-.07,2.96-.07,4.36-.01,1.09,0,2.41.28,3.49.02,5.38-1.43,11.01-1.77,16.55-1.88,6.98-.09,14.01.43,20.91,1.5,1.72-.44,3.52-1.17,5.23-1.66,1.07-.29,2.4-.93,3.49-.4"/><path class="b" d="M8.44,117.98c1.98.49,4.12.71,6.1,1.17,4.22,1.16,8.5,2.61,12.2,5l.87.02c2.06-2.44,4.92-4.21,7.84-5.43,3.03,1.14,5.94,2.76,8.71,4.4,5.47-.89,11.34-.81,16.55,1.2,4.54-1.33,9.2-2.57,13.94-2.87,2.25-.77,4.59-1.63,6.97-1.97,5.17-.85,10.5-.75,15.68-.08,4.51.49,8.95,1.69,13.07,3.59,1.12.39,2.25,1.47,3.49,1.39,1.42-.05,3.11.25,4.36-.58,2.72-1.28,5.74-2.08,8.71-2.49,2.86-.39,5.83-.47,8.71-.35,6.56-1.37,13.33-1.91,20.04-1.74,5.53.12,11.09.61,16.55,1.44,1.14.24,2.4-.48,3.49-.74,1.39-.43,2.95-.9,4.36-1.26,1.1.3,2.41.71,3.49,1.1"/><path class="b" d="M8.44,115.52c2.34.36,4.76.95,6.97,1.82,1.43-.1,2.96-.63,4.36-.92,2.36.47,4.73,1.41,6.97,2.29,1.11.36,2.27,1.38,3.49,1.24,1.01-.88,2.32-1.79,3.49-2.44.75-.4,1.73-1.02,2.61-.98,3.39,1.41,6.6,3.37,9.58,5.51,2.81-.75,5.83-.92,8.71-.63,1.43.06,2.93.7,4.36.66,2.34,0,4.65-1.09,6.97-1.4,1.99-.36,4.09-.77,6.1-1.03,2.45-1.28,5.1-2.37,7.84-2.82,2-.53,4.07-.28,6.1-.13,2.59.12,5.27,0,7.84-.27,4.13.45,8.35,1.11,12.2,2.74,2.08.76,4.13,1.9,6.1,2.9,1.09,0,2.39,0,3.49,0,.83.05,1.93-.04,2.61-.56,5.36-2.75,11.5-3.25,17.43-3.38,10.59-2.15,21.57-1.72,32.24-.36,1.09.11,2.39.47,3.49.32,1.99-.55,4.1-1.16,6.1-1.69,2.08.2,4.16,1.15,6.1,1.89"/><path class="b" d="M8.44,113.38c2.33.28,4.75.79,6.97,1.58,1.12.32,2.3,1.18,3.49,1.23,1.99-.69,4.1-1.38,6.1-2.04,2.42.35,4.65,1.72,6.97,2.38,1.31-.92,2.82-1.94,4.36-2.43,3.43,1.41,6.56,3.54,9.58,5.64,2.59.04,5.26-.03,7.84-.14,2.29.16,4.68.15,6.97.14,2.01-.21,4.09-.8,6.1-1.05,1.4-.3,3.07-.28,4.36-.96,2.73-2.11,6.2-3.18,9.58-3.63,4.01.68,8.16.69,12.2.21,1.72-.39,3.53.04,5.23.36,2.69.42,5.35,1.33,7.84,2.42,1.78.7,3.54,1.77,5.23,2.65,1.4,0,2.96,0,4.36,0,.82,0,1.91.1,2.61-.41,3.48-1.88,7.43-2.88,11.33-3.38,1.98-.35,4.14-.15,6.1-.55,9.76-1.8,19.81-1.45,29.62-.2,1.09.14,2.4.33,3.49.5,2.31-.46,4.66-1.23,6.97-1.69,2.68.65,5.38,1.61,7.84,2.86"/><path class="b" d="M8.44,111.47c4.29.28,8.48,1.57,12.2,3.72,2.53-1.26,5.23-2.39,7.84-3.46,1.46.37,3.01,1.05,4.36,1.71,1.13-.44,2.29-1.37,3.49-1.66,2.08.94,4.21,2.09,6.1,3.36,2.92,2.04,2.33,2.43,6.1,2.26,2.89.15,5.83-.66,8.71-.17,2.26.36,4.69.1,6.97.17,2-.02,4.22.17,6.1-.67,2.9-3.1,7.22-4.43,11.33-4.99,1.98.29,4.1.43,6.1.42,2.29.1,4.69-.54,6.97-.27,5.53.66,10.98,2.49,15.68,5.5,2.58-.03,5.26.06,7.84-.05,1.88-1.09,4.02-1.95,6.1-2.57,2.24-.66,4.64-1.16,6.97-1.35,2.03-.05,4.11-.5,6.1-.9,8.96-1.25,18.07-.86,27.01.37.77.1,1.83.29,2.61.27,2-.4,4.11-.92,6.1-1.4,1.12-.31,2.4.33,3.49.59,2.4.72,4.83,1.71,6.97,3.03"/><path class="b" d="M8.44,109.68c4.59.26,9.45,1.27,13.07,4.27,1.25-.17,2.38-1.25,3.49-1.78,1.66-.94,3.5-1.9,5.23-2.7,1.2-.01,2.34.9,3.49,1.12,1.95-1.26,2.33-1.33,4.36-.16,2.46,1.25,4.83,2.91,6.97,4.65,1.4-.05,2.98.14,4.36-.15,2.18-.85,4.64-1.19,6.97-1.15,1.41.03,2.99.23,4.36.6.79.21,1.78.71,2.61.71,2.58,0,5.26,0,7.84,0,5.25-5.61,13.73-5.9,20.91-5.45,4.8.31,9.54,1.41,13.94,3.37,1.46.54,2.89,1.57,4.36,2.08,1.4,0,2.96,0,4.36,0,1.69-.1,3.59.25,5.23-.24,1.06-.56,2.36-1.13,3.49-1.54,2.77-1.06,5.78-1.59,8.71-1.93,1.98-.44,4.1-.87,6.1-1.22,8.1-1.12,16.32-.58,24.4.5,1.4.32,2.97.24,4.36-.14,1.69-.36,3.53-.77,5.23-1.11,1.44.03,2.98.65,4.36,1.05,2.42.81,4.9,1.86,6.97,3.38"/><path class="b" d="M8.44,107.9c4.97.15,10.27,1.26,13.94,4.85l.87-.12c1.55-1.42,3.45-2.68,5.23-3.78,1.06-.6,2.27-1.48,3.49-1.74.44.2,1.32.63,1.74.86.45-.17,1.32-.59,1.74-.83,3.55,1.05,6.53,3.87,9.58,5.61.78,0,1.85.05,2.61-.15,1.29-.78,2.89-1.36,4.36-1.69,4.61-.94,9.9-.82,13.94,1.84h6.97c4.45-4.1,10.69-5.19,16.55-5.17,6.28-.08,12.53,1.2,18.3,3.7.8.35,1.86.88,2.61,1.32,1.97.32,4.11.08,6.1.15,1.99,0,4.11.01,6.1-.01.75-.41,1.82-.91,2.61-1.23,3.06-1.2,6.37-1.93,9.58-2.58,3.14-.6,6.38-1.21,9.58-1.34,5.81-.3,11.67.38,17.43,1.11,1.41.34,2.97-.08,4.36-.37,2.01-.35,4.12-.8,6.1-1.26,4.01.83,8.07,2.37,11.33,4.91"/><path class="b" d="M8.44,106.07c3.88.13,7.97.69,11.33,2.76.46.29,1.34.95,1.74,1.31,1.04.42,2.4.32,3.49.13,1.28-1.29,2.87-2.56,4.36-3.59,1.05-.65,2.22-1.69,3.49-1.85l.87.47c.45-.09,1.32-.34,1.74-.51,2.09.97,4.21,2.16,6.1,3.48,1.34.78,2.67,2.35,4.36,2.14,3.06-2.13,6.74-3.22,10.46-3.35,4.29-.27,8.72.74,12.2,3.35,2,0,4.1,0,6.1,0,.96-.12,1.81-1.11,2.61-1.58,1.31-.82,2.88-1.5,4.36-1.95,8.27-2.33,17.17-1.44,25.27,1.15,2.09.54,4.06,1.74,6.1,2.38,1.4,0,2.96,0,4.36,0,1.7,0,3.53,0,5.23,0,1.43,0,3.07.18,4.36-.61,6.07-2.4,12.68-3.38,19.17-3.8,5.23-.23,10.5.44,15.68,1.08,2.63-.02,5.29-.92,7.84-1.47,1.09-.27,2.39-.63,3.49-.89.77.21,1.85.52,2.61.78,2.79.95,5.61,2.27,7.84,4.22"/><path class="b" d="M8.44,104.17c3.24.12,6.61.53,9.58,1.88,1.18.49,2.34,1.49,3.49,2.04,1.4,0,2.96,0,4.36,0,2.2-1.93,4.4-4.09,6.97-5.55.77.36,1.81,0,2.61.09,3.38,1.43,6.3,3.88,9.58,5.46,3.89-3.66,9.66-4.56,14.81-4.07,3.72.37,7.79,1.25,10.46,4.06,2.29,0,4.68,0,6.97,0,9.3-7.31,26.18-5.03,36.59-1.09.78.31,1.82.81,2.61,1.09,2.29,0,4.68,0,6.97,0,1.7,0,3.53,0,5.23,0,.78,0,1.84.02,2.61-.08.43-.17,1.3-.49,1.74-.64,8.14-2.71,16.82-2.42,25.27-1.91,1.4.07,2.96.25,4.36.38,1.11-.18,2.4-.59,3.49-.89,1.7-.5,3.54-1.08,5.23-1.62,1.08-.29,2.34-.92,3.49-.84,3.12.96,6.28,2.35,8.71,4.58"/><path class="b" d="M8.44,102.2c4.28.14,8.66,1.04,12.2,3.56h6.1c1.46-1.22,2.81-2.9,4.36-4.02,1.21-1.01,2.75-2.04,4.36-1.3,2.99,1.34,5.77,3.28,8.71,4.71.99-.08,1.81-1.13,2.61-1.6,1.03-.65,2.33-1.25,3.49-1.62,5-1.54,10.66-1.05,15.68.22,1.15.34,2.46.88,3.49,1.51.47.29,1.33.96,1.74,1.32.45.18,1.3.56,1.74.75,1.4.08,2.96.03,4.36.04.85.02,1.93.11,2.61-.5,8.56-6.13,21.55-4.85,31.37-2.94,2.02.4,4.11,1.01,6.1,1.52,2.01.17,4.12.45,6.1.82,1.43.23,2.96.73,4.36,1.1,2.58,0,5.26,0,7.84,0,1.7,0,3.53,0,5.23,0,1.68-.34,3.52-.64,5.23-.77,4.33-.26,8.74,0,13.07-.36,1.69-.06,3.53-.02,5.23-.03.78-.29,1.85-.73,2.61-1.05,2.86-1.18,5.8-2.38,8.71-3.42,1.18-.12,2.44.63,3.49,1.09,1.5.73,3.08,1.73,4.36,2.81"/><path class="b" d="M8.44,100.19c2.32.15,4.74.49,6.97,1.19,1.49.4,2.93,1.36,4.36,1.9,2.26.37,4.69.07,6.97.16,2.08-2.09,4.47-4.05,6.97-5.61,1.21-.14,2.41.8,3.49,1.24,2.29,1.11,4.56,2.52,6.97,3.38,3.27-2.68,6.19-3.96,10.46-4.12,4.06-.2,8.26.06,12.2,1.14,1.5.41,3.03,1.2,4.36,1.99,1.42.54,2.99,1.2,4.36,1.88,1.68.17,3.55.2,5.23-.02,6.19-5.24,15.75-5.72,23.52-5.36,5.27.27,10.52,1.16,15.68,2.2,2.59.08,5.27.26,7.84.54,4.38.66,8.77,1.65,13.07,2.73,4.92.05,9.89,0,14.81.02,1.69-.03,3.54.08,5.23-.07,1.09-.2,2.39-.44,3.49-.6,1.39-.3,3.07-.12,4.36-.75,2.78-1.56,5.72-3.03,8.71-4.15.86-.19,1.87.4,2.61.76,1.15.57,2.46,1.37,3.49,2.15"/><path class="b" d="M8.44,98.2c2.03.04,4.15.5,6.1,1.05.44.13,1.31.45,1.74.62.78.11,1.84.2,2.61.36.8.17,1.84.6,2.61.87,1.4,0,2.96,0,4.36,0,1.37-.42,2.29-2.01,3.49-2.76,1.3-1.04,2.97-1.87,4.36-2.78,1.2-.09,2.41.79,3.49,1.2,2.25,1.02,4.54,2.3,6.97,2.82,3.2-2.99,7.06-3.86,11.33-3.94,4.07-.07,8.27.19,12.2,1.32,2.31.83,4.73,1.71,6.97,2.71.8.36,1.85.9,2.61,1.33,1.09.17,2.39.08,3.49.1.55-.09,1.37-.68,1.74-1.09.74-.58,1.79-1.28,2.61-1.72,2.95-1.57,6.3-2.42,9.58-2.92,2.86.4,5.82.72,8.71.73,4.06.08,8.16-.5,12.2-.68,3.19.3,6.38,1.31,9.58,1.41,7.91.08,15.74,1.49,23.52,2.78,2.33.32,4.7.93,6.97,1.5,1.09,0,2.4,0,3.49,0,.77,0,1.85,0,2.61,0,.76-.22,1.84-.51,2.61-.7,1.96-.48,4.08-.84,6.1-.99,1.25.09,2.42-.92,3.49-1.44,1.65-.89,3.5-1.74,5.23-2.46,1.56.13,3.04,1.25,4.36,2.02"/><path class="b" d="M8.44,96.24c2.05.06,4.17.5,6.1,1.19,1.02.58,2.38.16,3.49.23,1.47,0,3.04.47,4.36,1.12,1.09,0,2.39,0,3.49,0,1.97-2.07,4.39-3.85,6.97-5.08,1.39-1.01,3,.24,4.36.72,2.22.93,4.54,2.02,6.97,2.23,1.14-.59,2.26-1.64,3.49-2.09,2.44-1.04,5.21-1.35,7.84-1.42,4.68-.1,9.41.45,13.94,1.6,2.06.62,4.17,1.48,6.1,2.43.8.4,1.86,1,2.61,1.47,1.08.18,2.43.25,3.49-.09,2.74-2.93,6.62-4.58,10.46-5.51,4.82,1.22,9.81,2.37,14.81,2.12,3.74-.53,7.56-.84,11.33-1.12,2-.29,4.09-.82,6.1-1.03,1.4.27,2.96.61,4.36.9,3.17.07,6.42.25,9.58.55,4.95.52,9.96,1.19,14.81,2.31,1.42.35,2.99.82,4.36,1.35,1.02.55,2.34.74,3.49.64,1.46.04,2.93-.89,4.36-1.17,2.53-.7,5.22-1.21,7.84-1.31,1.23.14,2.44-.74,3.49-1.26,1.37-.65,2.87-1.53,4.36-1.86.8.34,1.86.87,2.61,1.31"/><path class="b" d="M8.44,94.25c1.41.13,2.98.39,4.36.75,1.09.3,2.34,1.16,3.49.66,1.68-.36,3.57-.47,5.23.05.44.17,1.32.54,1.74.73.43,0,1.31,0,1.74,0,.9-.44,1.83-1.45,2.61-2.05,1.03-.8,2.33-1.65,3.49-2.26,1.06-.46,2.28-1.41,3.49-1.18,3.31,1.32,6.81,2.97,10.46,2.65,4.23-3.12,9.8-3.03,14.81-2.75,2.88.24,5.89.19,8.71.92,2.39.6,4.78,1.6,6.97,2.72,1.13.54,2.31,1.49,3.49,1.94.43,0,1.31,0,1.74,0,1.24-.69,2.28-2.09,3.49-2.85,1.82-1.23,3.92-2.44,6.1-2.83,3.15,1.01,6.3,2.47,9.58,2.96,1.39-.24,2.95-.48,4.36-.66,6.64-.85,13.35-1.36,20.04-1.49,1.74.1,3.52-.58,5.23-.75.78.15,1.84.37,2.61.54,1.66.45,3.53.37,5.23.53,2.3.17,4.69.42,6.97.75,3.21.46,6.47,1.1,9.58,2.03,1.42.43,3,.98,4.36,1.59.75.23,1.83.18,2.61.18,3.9-1.53,7.99-2.84,12.2-3.15,1.09-.1,2.4-.05,3.49-.15,1.66-.83,3.48-1.71,5.23-2.33.44.18,1.32.57,1.74.79"/><path class="b" d="M8.44,92.25c2.06.31,4.21.86,6.1,1.74.83.3,1.83-.2,2.61-.46,2.45-.81,4.67-.49,6.97.59,1.33-.31,2.33-1.74,3.49-2.41,2.1-1.33,4.47-2.89,6.97-3.22,1.27.8,2.94,1.15,4.36,1.61,2.23.62,4.69.94,6.97.38,1.15-.23,2.34-1,3.49-1.26,2.23-.61,4.66-.75,6.97-.73,4.35-.1,8.85-.3,13.07.99,2.08.64,4.2,1.56,6.1,2.61,1.63.81,3.28,2.83,5.23,1.72,2.04-2.37,4.79-4.56,7.84-5.38,2.63.99,5.14,2.65,7.84,3.38,2.85-.55,5.82-.88,8.71-1.12,6.66-.46,13.37-.44,20.04-.53,2.3-.51,4.66-1.18,6.97-1.66,3.26.37,6.32,2.07,9.58,2.34,3.22.37,6.49.98,9.58,1.95,1.1.34,2.41.79,3.49,1.22,1.68.24,3.53.07,5.23.12,1.45-.41,2.91-1.29,4.36-1.73,2.51-.87,5.21-1.51,7.84-1.88,1.98-.36,4.11-.19,6.1-.34,1.38-.56,2.9-1.32,4.36-1.64l.87.35"/><path class="b" d="M8.44,90.22c1.44.28,3.02.77,4.36,1.38,1.36.38,2.96.14,4.36.2,2.12-1.06,4.84-1.46,6.97-.21,2.55-2.17,5.54-3.94,8.71-5.03.75-.43,1.8-.2,2.61-.21.42.28,1.25.66,1.74.74,2.24.58,4.65,1.09,6.97.79,3.44-.7,6.94-1.54,10.46-1.8,1.7-.1,3.53.22,5.23.2,2,.14,4.12-.32,6.1.02,4.42.7,8.74,2.63,12.2,5.49,1.59.36,2.47-1.44,3.49-2.32,1.52-1.35,3.32-2.68,5.23-3.41,1.43.7,2.99,1.56,4.36,2.38.77.44,1.72,1.16,2.61,1.32,3.69-.82,7.55-1.06,11.33-.84,3.47.17,6.99.56,10.46.82,1.99.07,4.13.49,6.1.18,2.81-1.15,5.78-2.14,8.71-2.93,1.09-.28,2.37-.66,3.49-.82,1.1.3,2.4.68,3.49,1.02,2.96.94,5.98,2.06,8.71,3.55.44.24,1.32.77,1.74,1.05.77.05,1.84.04,2.61.04,1.99,0,4.11,0,6.1,0,.77,0,1.84,0,2.61,0,.85-.1,1.84-.72,2.61-1.06,1.93-.85,4.06-1.55,6.1-2.06,3.67-.91,7.54-1.53,11.33-1.21,1.4-.33,2.89-1.3,4.36-1.17"/><path class="b" d="M8.44,88.15c1.13.27,2.44.73,3.49,1.24,1.99.17,4.11.04,6.1.08,1.14-.12,2.32-.85,3.49-.91.78-.07,1.83.18,2.61.04,2.6-1.96,5.6-3.47,8.71-4.41.75-.36,1.82-.2,2.61-.31.44.19,1.3.55,1.74.71,2.26.44,4.67.86,6.97.47,2.56-.55,5.22-1.11,7.84-1.33,2.87.2,5.83.35,8.71.33,1.4,0,2.96-.22,4.36-.23,2.71.38,5.42,1.24,7.84,2.51,1.15.59,2.46,1.4,3.49,2.19.33.39,1.22.92,1.74.93,1.97-2.24,4.23-4.46,6.97-5.74,2.15,1.02,4.2,2.49,6.1,3.91,1.71-.09,3.5-.64,5.23-.6,2.62-.04,5.31.37,7.84,1,1.73.35,3.49,1.17,5.23,1.43,1.7,0,3.53,0,5.23,0,1.69-.12,3.62.29,5.23-.28,2.73-1.56,5.74-2.75,8.71-3.76,1.68-.57,3.52-1.12,5.23-1.59,2.65.59,5.32,1.51,7.84,2.52,8.45,3.74,3.04,3.1,13.07,3.11,1.4-.01,2.96.03,4.36-.04,2.43-1.36,5.17-2.32,7.84-3.06,3.11-.83,6.37-1.47,9.58-1.68,1.09-.06,2.4-.04,3.49.05,1.1-.26,2.39-.69,3.49-.95"/><path class="b" d="M8.44,85.93c1.08.42,2.32,1.12,3.49,1.21,2.58,0,5.26,0,7.84,0,1.07-.4,2.36-.77,3.49-.96,1.07-.69,2.36-1.47,3.49-2.06,1.61-.86,3.47-1.56,5.23-2.05,1.07-.35,2.38-.68,3.49-.27l.87-.37c1.15,1.02,2.92.91,4.36,1.12,2.94.28,5.8-.98,8.71-1.04,4.91.4,9.91.43,14.81-.02,4.45.59,8.82,2.43,12.2,5.42,1.09-.26,1.81-1.64,2.61-2.32,1.26-1.18,2.81-2.36,4.36-3.15,2.2,1.06,4.21,2.68,6.1,4.21,2.82-.82,5.92-.59,8.71.26,1.13.3,2.34,1.01,3.49,1.24.45,0,1.3,0,1.74,0,2.58,0,5.26,0,7.84,0,1.4-.08,3.02.23,4.36-.26,2.21-.79,4.64-1.25,6.97-1.49,1.45-.46,2.93-1.29,4.36-1.82,1.96-.79,4.07-1.53,6.1-2.14,1.46.07,2.97.78,4.36,1.2,11.45,4.24,4.39,3.64,17.43,2.54,3.17-.25,6.41-.36,9.58-.53,2.6-.52,5.21-1.42,7.84-1.83,1.97-.36,4.09-.68,6.1-.72.77-.02,1.84.04,2.61,0,.77-.19,1.84-.44,2.61-.62"/><path class="b" d="M8.44,82.29c1.53.59,2.96,1.72,4.36,2.52,2.58,0,5.26,0,7.84,0,2.86-2.08,6.23-3.64,9.58-4.75,1.08-.31,2.39-.6,3.49-.83.79,0,1.84.24,2.61.35l.87-.44c2.9,1.63,6.51.58,9.58.04,1.4.11,2.95.32,4.36.36,2.88.12,5.84-.07,8.71-.17,1.09-.03,2.39-.27,3.49-.18,1.1.17,2.41.43,3.49.72,1.79.48,3.63,1.26,5.23,2.2,1.15.55,2.2,1.82,3.49,2.05,1.64-1.98,3.71-3.95,6.1-4.98,2.22,1.08,4.14,2.84,6.1,4.29,1.98-.47,4.17-.32,6.1.28,1.11.3,2.29,1.21,3.49,1.05,1.13,0,2.35-.64,3.49-.72,1.71-.21,3.59-.02,5.23.5,5.09-3.18,10.59-4.54,16.55-4.79,1.7-.09,3.53-.11,5.23-.08,1.12.09,2.42.03,3.49-.36,1.42-.44,2.95.58,4.36.8,2.29.22,4.68.47,6.97.65,4.04.38,8.15.21,12.2.21,4.34-.01,8.73.21,13.07.11,2.93,0,5.81-1.02,8.71-1.29,2.3-.29,4.71-.05,6.97-.68"/><path class="b" d="M8.44,78.86c2.24.75,4.25,2.21,6.1,3.62,1.09,0,2.39,0,3.49,0,.83.01,1.91.1,2.61-.42,2.91-2.51,6.79-3.83,10.46-4.78.77-.16,1.83-.36,2.61-.45,1.08.23,2.38.42,3.49.52.43-.23,1.26-.39,1.74-.31.42.28,1.24.54,1.74.47,1.73.05,3.54-.37,5.23-.66,1.38.25,2.95.43,4.36.49,3.77.22,7.57-.41,11.33-.54,2.66.39,5.4,1.03,7.84,2.18,1.5.61,2.86,1.89,4.36,2.47.98-1.12,2.28-2.31,3.49-3.19.73-.5,1.68-1.31,2.61-1.28,2.23,1.14,4.18,2.89,6.1,4.45,1.41-.24,3-.11,4.36.32.46.15,1.31.51,1.74.72.79,0,1.84.05,2.61-.16,1.29-.73,2.88-1.21,4.36-1.34,1.1-.14,2.4.13,3.49-.06,1.56-1.16,3.42-2.14,5.23-2.85,1.36-.51,2.91-1.06,4.36-1.27,3.13.7,6.38,1.25,9.58,1.4,1.09.05,2.39.07,3.49.05,1.71-.4,3.49-1.09,5.23-1.4.78.2,1.84.48,2.61.7,1.71,0,3.53-.38,5.23-.54,3.17-.57,6.41.11,9.58.25,6.38.21,12.79.61,19.17.84,2.89-.02,5.88.3,8.71-.4,2.57-.48,5.28-.37,7.84-.87"/><path class="b" d="M8.44,75.57c1.81.58,3.68,1.47,5.23,2.57.8.57,1.76,1.52,2.61,2.01h3.49c1.14-.75,2.33-1.87,3.49-2.61,2.72-1.38,5.67-2.57,8.71-3,.79-.14,1.84.15,2.61.27,1.38.22,2.95.37,4.36.31l.87-.67c1.5,1.15,3.55.44,5.23.14,2,.03,4.08.56,6.1.49,2.9.07,5.84-.42,8.71-.68,3.94.64,8.06,1.62,11.33,4.02l.87.05c1.52-1.49,3.37-2.86,5.23-3.88,2.71.92,4.91,3.1,6.97,5,1.12-.1,2.44.1,3.49.5,1.09.1,2.39.05,3.49.06,1.12-.43,2.31-1.23,3.49-1.53,1.07-.31,2.38-.48,3.49-.46.9-.21,1.84-1.05,2.61-1.51,1.33-.81,2.9-1.56,4.36-2.11,2.95.64,5.78,2.05,8.71,2.8,1.37.29,2.96,1.1,4.36.65,2.42-1.35,5.19-2.18,7.84-2.94.44-.12,1.3-.35,1.74-.46.81-.08,1.84.24,2.61.43,1.71.43,3.54.93,5.23,1.44,1.72,0,3.52-.61,5.23-.83,3.15-.54,6.39-.97,9.58-1.13,2.88-.26,5.84.11,8.71.29,3.75.3,7.57.49,11.33.62,4.37.34,8.74-.45,13.07-.9"/><path class="b" d="M8.44,72.4c2.12.59,4.28,1.54,6.1,2.78,1.2.7,2.19,2.13,3.49,2.64.43,0,1.31,0,1.74,0,1.49-.88,2.88-2.26,4.36-3.17,2.18-1.05,4.56-2.16,6.97-2.51,2.6.41,8.42,1.83,10.46,0,1.28.97,2.96.3,4.36,0,1.68.32,3.52.48,5.23.49,2.3.08,4.68-.37,6.97-.46,3.95.45,8.02,1.44,11.33,3.74,1.09-.78,2.34-1.78,3.49-2.49.74-.44,1.7-1.18,2.61-1.07,2.66,1.29,4.93,3.35,6.97,5.45,1.99,0,4.11,0,6.1,0,1.11-.5,2.3-1.35,3.49-1.7.76-.25,1.82-.46,2.61-.53,2.04-.99,3.84-2.8,6.1-3.39,3.89,1.59,7.54,3.83,11.33,5.62.54-.04,1.36-.54,1.74-.91.74-.54,1.79-1.21,2.61-1.62,2.74-1.33,5.76-2.24,8.71-2.95,1.41-.29,2.96.47,4.36.7,2.6.63,5.29,1.33,7.84,2.14,6.8-1.89,13.88-2.74,20.91-3.1,5.2.41,10.46.89,15.68.93,3.18-.03,6.41-.55,9.58-.72"/><path class="b" d="M8.44,70.42c.43-.13,1.31-.41,1.74-.55,3.31.9,6.42,2.88,8.71,5.43.45.18,1.29.2,1.74.04,2.69-2.57,6-4.48,9.58-5.47,1.99.39,4.06,1.04,6.1,1.18,2,.18,4.12-.04,6.1-.34,0,0,.87-.59.87-.59.47-.13,1.32,0,1.74.24,2.24-.81,4.65-.22,6.97-.31,5.08-.52,10.23.78,14.81,2.94,1.09-.61,2.39-1.35,3.49-1.96.75-.4,1.74-1.03,2.61-1.04,2.65,1.27,5.17,3.14,6.97,5.48,1.4.07,2.96.02,4.36.03.82,0,1.9.1,2.61-.39,1.25-.9,2.85-1.58,4.36-1.87,1.72-1.04,3.39-2.46,5.23-3.31,1.21.17,2.42,1.02,3.49,1.58,1.78,1.03,3.62,2.29,5.23,3.57.7.52,1.79.43,2.61.42.78,0,1.84.03,2.61-.08,3.62-3.18,8.46-4.55,13.07-5.56,2.88.64,5.84,1.29,8.71,1.98,2.01.41,4.07,1.2,6.1,1.47,1.38-.47,2.94-.93,4.36-1.28,3.41-.87,6.96-1.33,10.46-1.69,2.58-.22,5.25-.74,7.84-.44,4.33.31,8.72.73,13.07.7,3.18-.04,6.41-.5,9.58-.55"/><path class="b" d="M8.44,69.05c1.41-.43,2.88-1.28,4.36-1.43,2.98,1.16,5.76,3.11,7.84,5.54,1.31-.36,2.32-1.76,3.49-2.42,2.08-1.32,4.41-3.13,6.97-3.06,2.24.71,4.62,1.44,6.97,1.65,1.41.13,2.99,0,4.36-.33.44-.05,1.31-.16,1.74-.23.43-.25,1.31-.75,1.74-1,.48-.12,1.31,0,1.74.23,1.38-.25,2.95-.35,4.36-.32,3.54.12,7.13.79,10.46,2.01,1.13.42,2.4-.42,3.49-.72.77-.29,1.84-.7,2.61-1,.4-.26,1.28-.4,1.74-.25,2.64,1.19,5.15,3.01,6.97,5.28,1.07.27,2.39.13,3.49.16,1.11-.06,2.49.23,3.49-.37.98-.74,2.3-1.4,3.49-1.75,1.57-1.33,3.4-2.6,5.23-3.55,1.82.8,3.65,1.96,5.23,3.16,1.13.72,2.17,2.35,3.48,2.5,1.99,0,4.11,0,6.1,0,3.63-3.19,8.42-4.66,13.07-5.64,3.48.64,6.99,1.45,10.46,2.15,2.3.38,4.65,1.28,6.97,1.44,1.08-.4,2.38-.83,3.49-1.14,5.09-1.47,10.43-1.94,15.68-2.44,2.88-.02,5.83.41,8.71.53,2.87.17,5.83.3,8.71.21,2.88-.14,5.83-.44,8.71-.41"/><path class="b" d="M8.44,67.93c2.01-.86,4.09-1.86,6.1-2.72,1.86.7,3.69,1.88,5.23,3.15.8.66,1.73,1.76,2.61,2.32,2.47-2.31,5.5-4.33,8.71-5.42.83.01,1.84.47,2.61.73,1.66.57,3.49,1.12,5.23,1.4,1.69.28,3.56.24,5.23-.14.82-.07,1.91-.21,2.61-.68,2.88-1.63,3.05-1.41,6.1-.61,4.33.98,8.83.3,13.07-.79,3.38.88,6.51,2.9,8.71,5.61,1.99.14,4.11.03,6.1.06,3.13-1.44,5.54-4.26,8.71-5.68,1.47.74,3.07,1.67,4.36,2.7,1.16.86,2.27,2.2,3.49,2.97h7.84c1.14-.68,2.32-1.74,3.49-2.38,1.62-.88,3.47-1.6,5.23-2.14,1.95-.48,4.08-1.45,6.1-.86,5.78,1.19,11.66,2.1,17.43,3.39,5.81-2.33,12.1-3.16,18.3-3.66,3.46.29,6.99.56,10.46.74,2.87.14,5.84.22,8.71.1,2.87-.18,5.83-.41,8.71-.3"/><path class="b" d="M8.44,66.46l.87.13c2.35-1.04,4.62-2.54,6.97-3.6.89-.01,1.88.66,2.61,1.09,1.56.97,3.14,2.29,4.36,3.66l.87.23c1.5-1.44,3.41-2.65,5.23-3.64,1.07-.53,2.28-1.36,3.49-1.53,5.64,2.36,10.5,3.76,16.55,1.86,3.77-1.73,8.14-1.9,12.2-1.37,4.29.56,7.37,2.25,10.46,5.2h5.23c2.87-1.86,5.53-4.31,8.71-5.65,1.86.88,3.72,2.12,5.23,3.52,1.06.7,2.48,1.27,3.49,2.06,1.69.14,3.53.04,5.23.07,1.11-.06,2.5.24,3.49-.4,3.38-2.96,7.88-4.28,12.2-5.17,1.11-.19,2.39.27,3.49.42,1.39.26,2.96.53,4.36.76,4.34.72,8.75,1.33,13.07,2.18,5.01-1.94,10.35-2.99,15.68-3.43,3.75.27,7.56.67,11.33.85,3.17.17,6.41.27,9.58.18,3.46-.16,6.99-.5,10.46-.26"/><path class="b" d="M8.44,63.66c1.1.11,2.41.31,3.49.56,1.24-.28,2.38-1.36,3.49-1.96,1.06-.57,2.25-1.54,3.49-1.64,1.51.76,3.09,1.83,4.36,2.96.79.62,1.54,1.91,2.61,2.05,2.45-2.33,5.62-3.93,8.71-5.22,3.85,1.59,7.96,3.15,12.2,2.92,1.1-.05,2.39-.32,3.49-.37,1.09-.09,2.41.12,3.49-.12,5.07-1.14,10.85-.15,14.81,3.35.78,0,1.84,0,2.61,0,.84-.08,1.87-.57,2.61-.95,1.74-.9,3.53-2.02,5.23-3,1.07-.56,2.27-1.46,3.49-1.63,1.88.77,3.53,2.2,5.23,3.26,1.15.32,2.46.89,3.49,1.5.44.32,1.19.77,1.74.82,1.7,0,3.53,0,5.23,0,1.12-.21,2.36-.78,3.49-.98,1.32-.94,2.85-1.89,4.36-2.49,2.49-1.02,5.2-1.71,7.84-2.19,2.6.28,5.25.88,7.84,1.2,4.63.63,9.32,1.26,13.94,1.95,3.89-1.53,8.06-2.49,12.2-3.04,2.28-.25,4.68.43,6.97.52,4.04.36,8.14.61,12.2.68,5.51.21,11.05-.74,16.55-.22"/><path class="b" d="M8.44,60.84c2.02.13,4.15.45,6.1.98.92-.21,1.85-1.09,2.61-1.6,1.05-.73,2.35-1.55,3.49-2.14,2.66,1.32,4.96,3.43,6.97,5.59,1.92-2.01,4.48-3.42,6.97-4.58,2.51-1.33,2.76-.83,5.23.06,1.94.67,4.05,1.25,6.1,1.51,2.29.34,4.68-.01,6.97-.05,2.31.09,4.7.5,6.97.91,8.7,1.94,10.65.44,18.3-3.23,1.94.22,3.71,1.65,5.23,2.79,1.45.28,3.03.74,4.36,1.4.8.39,1.74,1.14,2.61,1.38.45,0,1.3,0,1.74,0,1.43.02,3.03.11,4.36-.54,1.07-.37,2.42-.48,3.49-.87,1.31-.89,2.88-1.73,4.36-2.3,2.5-.94,5.21-1.56,7.84-2,3.16.5,6.4.98,9.58,1.33,2.58.3,5.26.58,7.84.9,1.7.14,3.52.63,5.23.58,3.36-1.25,6.92-2.13,10.46-2.71.79-.13,1.84.13,2.61.25,1.39.23,2.96.42,4.36.57,4.9.51,9.88.77,14.81.75,5.51.01,11.06-.87,16.55-.15"/><path class="b" d="M8.44,58.03c2.92.09,5.91.52,8.71,1.35,1.77-.96,3.4-2.47,5.23-3.35.94-.1,1.88.71,2.61,1.18,1.57,1.1,3.16,2.56,4.36,4.07l.87-.09c2.63-2.58,6.16-4.16,9.58-5.41,2.85.8,5.74,1.81,8.71,2.04,2.87.25,5.84-.07,8.71.19,4.04.31,8.25.88,12.2-.36,1.74-.45,3.46-1.47,5.23-1.76,1.84.63,3.57,1.79,5.23,2.76,1.77.18,3.63.7,5.23,1.48.81.38,1.76,1.11,2.61,1.38,1.4-.04,2.97.1,4.36-.11,1.63-.68,3.5-.87,5.23-1.1,1.58-1.08,3.43-2,5.23-2.66,2.52-.85,5.22-1.43,7.84-1.83,3.75.47,7.56.98,11.33,1.29,3.76.35,7.59.69,11.33,1.24,1.45-.17,2.94-.9,4.36-1.23,1.97-.48,4.06-1.19,6.1-1.25,7.11,1.72,14.49,2.1,21.78,1.98,6.09-.17,12.23-.85,18.3.02"/><path class="b" d="M8.44,55.45c3.8.06,7.69.25,11.33,1.44,1.8-.9,3.34-2.54,5.23-3.32,1.51.84,3.08,1.98,4.36,3.15.8.72,1.69,1.91,2.61,2.48l.87-.06c2.84-2.8,6.69-4.45,10.46-5.59,2.02.02,4.07.87,6.1,1.01,2.28.3,4.68.18,6.97.19,3.17.01,6.44.07,9.58-.37.79-.12,1.84-.33,2.61-.52.8-.27,1.84-.44,2.61-.02,1.13.41,2.45.97,3.49,1.6.44.29,1.27.79,1.74,1.01.45,0,1.3.06,1.74.11,2.14.24,4.3,1.12,6.1,2.3.74.42,1.8.34,2.61.33.79,0,1.86.06,2.61-.21,1.65-.56,3.52-.58,5.23-.77,4.33-2.96,9.66-4.2,14.81-4.72,3.74.5,7.56.82,11.33,1.1,3.76.28,7.59.6,11.33,1.15,2.02-.47,4.07-1.27,6.1-1.71.76-.19,1.83-.46,2.61-.51,1.69.45,3.52.93,5.23,1.31,3.41.77,6.97,1.12,10.46,1.21,9,.36,18.07-1.22,27.01.24"/><path class="b" d="M8.44,52.95c4.65.1,9.45.02,13.94,1.42,1.53-.7,2.85-2.13,4.36-2.9h.87c2.29,1.34,4.46,3.18,6.1,5.27.79.16,1.85.19,2.61-.12,1-.89,2.31-1.79,3.49-2.42,2.43-1.31,5.14-2.25,7.84-2.8,1.39-.41,2.95-.21,4.36-.06,1.69.13,3.53.08,5.23.03,2,0,4.11-.26,6.1-.24,3.39.27,6.74,1.31,9.58,3.19,2.03-.06,4.21.18,6.1.95,1.43.48,2.76,1.81,4.36,1.59,1.73.1,3.53-.12,5.23-.45,1.1-.16,2.41.05,3.49-.25,2.85-1.95,6.21-3.22,9.58-3.92,2.27-.49,4.66-.87,6.97-1.11,1.99.22,4.1.41,6.1.56,4.34.31,8.75.49,13.07,1,1.09.13,2.4.3,3.49.46,2.3-.61,4.65-1.43,6.97-1.95,4.89,1.2,9.71,3.06,14.81,3.16,5.5.55,11.06-.05,16.55-.36,4.64-.18,9.37-.01,13.94.86"/><path class="b" d="M8.44,50.57c5.51.12,11.19-.21,16.55,1.28,1.51-.75,2.84-2.15,4.36-2.91,2.75,1.19,4.83,3.6,6.97,5.6,1.09-.01,2.4.05,3.49-.08,5.06-4.13,11.93-5.32,18.3-4.83,3.85.22,7.91.6,11.33,2.53,2.62.15,5.42.11,7.84,1.32,1.11.57,2.17,1.24,3.49,1.05,2.59.14,5.26-.33,7.84-.06,1.51-.44,2.87-1.68,4.36-2.23,2.46-1.14,5.18-1.88,7.84-2.35,2.56-.48,5.25-.82,7.84-1.07,1.99.14,4.1.31,6.1.41,4.93.25,9.92.48,14.81,1.22.8.27,1.85-.11,2.61-.37,1.08-.34,2.39-.73,3.49-1.04.81-.33,1.84.16,2.61.41,1.09.37,2.4.82,3.49,1.19,3.09,1.08,6.33,2.02,9.58,2.47,4.92.66,9.9-.17,14.81-.49,5.8-.34,11.74-.24,17.43,1.06"/><path class="b" d="M8.44,47.98c6.34.97,12.91-.28,19.17,1.38,1.43-.78,2.68-2.41,4.36-2.65,1.51.88,3.08,2.06,4.36,3.25,1.01.89,1.9,2.56,3.49,2.24,1.1,0,2.39,0,3.49,0,.88-.18,1.82-.93,2.61-1.32,1.06-.54,2.35-1.05,3.49-1.38,3.36-1,6.99-1.16,10.46-.69,2.04.25,4.18.67,6.1,1.43,2,.04,4.12-.07,6.1.31,1.48.27,3.05.92,4.36,1.64,2.88.01,5.84,0,8.71,0,.44,0,1.3,0,1.74,0,.8-.38,1.82-1.03,2.61-1.42,1.63-.82,3.48-1.51,5.23-2.04,4.83-1.22,9.85-1.8,14.81-2.21,4.92.08,9.9.41,14.81.81,1.7.19,3.54.45,5.23.71,1.72-.35,3.46-1.31,5.23-1.41,2.63.89,5.27,2,7.84,3.03,1.98.3,4.11.35,6.1.51,2.59.2,5.29.45,7.84.96,1.99.36,4.07,1.01,6.1.64,4.04-.32,8.15-.49,12.2-.23,2.89.16,5.81.84,8.71.66"/><path class="b" d="M8.44,45.1c1.71.06,3.55.24,5.23.57,1.11.16,2.35.75,3.49.7,2.29-.06,4.68-.14,6.97-.2,2.01.06,4.11.47,6.1.71,1.01-.91,2.31-1.87,3.49-2.56,2.73,1.12,5,3.42,6.97,5.57,2.58-.04,5.26.08,7.84-.06,3.18-1.64,6.91-2.19,10.46-1.83,3.72.67,7.61.01,11.33.76,1.44.25,2.87,1.25,4.36,1.13,3.46,0,6.99,0,10.46,0,2.24-1.08,4.56-2.26,6.97-2.94,3.4-.9,6.96-1.44,10.46-1.87,5.19-.57,10.46-1.23,15.68-.65,3.48.2,7.01.56,10.46,1.13,1.43-.29,2.89-1.15,4.36-1.21,1.73.59,3.52,1.44,5.23,2.09,4.04.33,8.15-.18,12.2-.04,11.07.51,21.97,4.24,33.11,2.97"/><path class="b" d="M8.44,42.41c2.6,0,5.3.2,7.84.76,1.45.23,2.91,1.05,4.36,1.23,3.75-.47,7.59-.56,11.33.04,1.21-.53,2.33-1.68,3.49-2.3,1.88-.12,5.65,3.61,6.97,5.03,1,.62,2.37.33,3.49.39,1.4,0,2.96,0,4.36,0,1.46.16,2.96-.31,4.36-.65,1.38-.26,2.95-.39,4.36-.43,3.17,0,6.46-.03,9.58.57,2.49.86,5.25.4,7.84.5,1.7,0,3.53,0,5.23,0,1.14.03,2.51.06,3.49-.62,4.6-2.27,9.79-2.96,14.81-3.66,5.48-.61,11.04-1.3,16.55-1.44,3.18.26,6.44.47,9.58,1.01.41.06,1.32.17,1.74.21,1.11-.26,2.34-.93,3.49-1.06,1.11.4,2.41.94,3.49,1.45,2.29.12,4.69-.03,6.97-.29,3.73-.54,7.56-.7,11.33-.49,10.2.52,20.24,3.31,30.49,2.83"/><path class="b" d="M8.44,39.87c3.48-.04,7.07.14,10.46,1.02,1.48.29,2.9,1.24,4.36,1.53,3.42-.63,7-.65,10.46-.33,1.2-.52,2.33-1.65,3.49-2.26h.87c2.57,1.4,4.76,3.52,6.97,5.4,3.75,0,7.57,0,11.33,0,1.99-.08,4.09-.4,6.1-.25,4.03.4,8.15.21,12.2.25,1.7,0,3.53,0,5.23,0,1.11-.05,2.5.23,3.49-.42,4.38-1.97,9.24-2.56,13.94-3.28,6.36-.84,12.78-1.48,19.17-1.98,3.19-.15,6.41.67,9.58.92,1.18.27,2.34-.7,3.49-.84,1.09.35,2.3,1.19,3.49,1.01,2.91-.05,5.86-.64,8.71-1.16,2.29.25,4.66.72,6.97.8,3.18.14,6.43-.12,9.58-.43,3.48-.61,7,.38,10.46.77,4.89.69,9.87,1.24,14.81,1.33"/><path class="b" d="M8.44,37.39c5.87-.13,11.33.19,16.55,3.13,3.42-.6,6.98-.99,10.46-.7,1.01-.87,2.31-1.79,3.49-2.44,1.26.13,2.44,1.18,3.49,1.82,1.49,1.04,3.07,2.32,4.36,3.6,7.24.22,14.53.01,21.78.08,2.88,0,5.84,0,8.71,0,1.72-.04,3.63.24,5.23-.56,4.77-1.56,9.87-2.1,14.81-2.86,6.37-.81,12.78-1.58,19.17-2.22,2.88-.33,5.82.72,8.71.69.85.09,1.82-.54,2.61-.76.79.29,1.74.93,2.61.71,2.01,0,4.11-.9,6.1-.47,4.6.97,9.15,2.77,13.94,2.43,6.43-.35,12.78-1.76,19.17-2.51,1.7-.18,3.53.38,5.23.49,2.87.34,5.83.62,8.71.79"/><path class="b" d="M8.44,35.05c3.75-.22,7.65-.12,11.33.75,2.46.52,4.78,1.71,6.97,2.9,3.1-.78,6.38-1.24,9.58-1.11,1.43-.81,2.83-2.04,4.36-2.7,1.77.92,3.6,2.06,5.23,3.23,1.13.73,2.23,1.95,3.49,2.45,6.38,0,12.79,0,19.17,0,3.75-.03,7.57.06,11.33-.04,1.96-.55,4.09-.96,6.1-1.3,2.25-.69,4.62-1.36,6.97-1.6,1.98-.29,4.11-.18,6.1-.37,5.51-.71,11.04-1.59,16.55-2.27,2.3-.42,4.67.36,6.97.39,1.13.1,2.47.06,3.49-.52,1.31.74,2.96.25,4.36.04,4.62.53,8.61,3.22,13.07,4.31,4.92,1.15,9.94-.44,14.81-1.16,6.07-1.07,12.17-2.22,18.3-2.99,2.28-.32,4.68.34,6.97.42"/><path class="b" d="M8.44,32.74c6.5-.45,13.7.04,19.17,3.94,1.13.25,2.38-.42,3.49-.58,1.97-.42,4.09-.64,6.1-.62,1.11-.71,2.32-1.69,3.49-2.31.51-.36,1.14-.54,1.74-.43,2.38,1.2,4.76,2.65,6.97,4.15.46.3,1.3.91,1.74,1.22,1.68.26,3.53.07,5.23.13,5.21,0,10.47,0,15.68,0,1.7,0,3.53,0,5.23,0,1.15.02,2.54.1,3.49-.66,6.63-3.62,14.47-3.51,21.78-2.79,4.34-.67,8.69-1.7,13.07-2.12,1.1-.19,2.4,0,3.49.14,1.39.14,2.96.18,4.36.12,5.82-1.15,10.07,1.9,14.81,4.74.95.73,2.36.57,3.49.58,2.01.1,4.11-.34,6.1-.56,5.58-.64,10.96-2.59,16.55-3.15,2.86-.37,5.83-.33,8.71-.31,3.46-.57,6.99-1.1,10.46-1.63"/><path class="b" d="M8.44,30.41c5.26-.41,10.71,0,15.68,1.83,1.9.6,3.49,1.97,5.23,2.81,2.76-1.09,5.79-1.4,8.71-1.69,1.52-1.25,3.29-2.65,5.23-3.16,14.65,7.07,5.62,5.59,22.65,5.71,2.88,0,5.84,0,8.71,0,.86.08,1.95-.1,2.61-.7.75-.45,1.81-1,2.61-1.36,2.19-.97,4.61-1.66,6.97-2.04,3.72-.59,7.58-.57,11.33-.22,1.4.14,2.97.35,4.36.6,1.1.34,2.4.14,3.49-.18,3.14-.75,6.37-1.43,9.58-1.72,1.99-.01,4.1.39,6.1.2,5-.88,9.51,2.23,13.07,5.4,4.34.1,8.73-.11,13.07-.08,3.06-1.17,6.32-1.92,9.58-2.22,2.83-.88,5.74-1.9,8.71-2.2,2.86-.35,5.84-.45,8.71-.22,1.4.11,2.96.31,4.36.5,1.42-.02,2.96-.49,4.36-.73"/><path class="b" d="M8.44,28.07c5.56-.38,11.33.13,16.55,2.17,1.9.66,3.53,2.1,5.23,3.11,2.46-1.03,5.19-1.6,7.84-1.74,1.81-1.51,3.9-2.9,6.1-3.77,4.13,1.68,8.08,3.89,12.2,5.59,1.96.35,4.11.08,6.1.16,3.46,0,6.99,0,10.46,0,8.04-5.72,18.47-6.05,27.88-4.39,1.41.21,2.94.73,4.36.86,1.09-.31,2.39-.69,3.49-.97,1.96-.51,4.08-.87,6.1-1.1,1.09-.06,2.39.19,3.49.19,1.71.14,3.57-.49,5.23.06,1.88.37,3.72,1.3,5.23,2.48,1.17.81,2.25,2.17,3.49,2.88,4.05,0,8.15,0,12.2,0,1.2-.11,2.36-1.05,3.49-1.44,1.64-.68,3.48-1.23,5.23-1.56,1.68-.33,3.52-.46,5.23-.45,1.43.02,3.02.24,4.36-.42,6.27-2.2,13.69-1.98,20.04-.19l.87-.21"/><path class="b" d="M8.44,25.71c7.24-.29,16.19.48,21.78,5.55,1.52.19,2.93-.4,4.36-.79,1.08-.29,2.42-.37,3.49-.71,1.98-1.82,4.44-3.29,6.97-4.22,5.21,1.85,10.2,4.79,15.68,5.72,3.17-.06,6.42.12,9.58-.08,4.2-3.33,9.51-5.09,14.81-5.59,1.7-.04,3.53.22,5.23.19,1.4,0,2.96-.05,4.36-.16,2.01.13,4.13.48,6.1.88,1.41.3,2.98.72,4.36,1.15.82.02,1.84-.43,2.61-.67,1.95-.63,4.07-1.07,6.1-1.34,1.7.06,3.53.35,5.23.16,4.17-.82,7.91,2.31,10.46,5.28,1.67.34,3.53.1,5.23.17,2.58,0,5.26,0,7.84,0,1.19-.28,2.36-1.2,3.49-1.66,2.19-1.01,4.61-1.81,6.97-2.31,3.42-.79,7.01-.73,10.46-.11,6.15-2.48,13.86-2.33,20.04-.03"/><path class="b" d="M8.44,23.34c4.07-.19,8.22.23,12.2,1.12,3.49.71,6.78,2.29,9.58,4.46,2.3-.01,4.72.16,6.97-.44,2.36-2.35,5.43-4.49,8.71-5.2,3.76,1.34,7.52,2.91,11.33,4.11,2.53.73,5.17,1.7,7.84,1.52,1.22.07,2.57.03,3.49-.9,3.43-2.27,7.25-4.11,11.33-4.82,2.87.34,5.81.86,8.71.89,2,.05,4.11-.05,6.1-.28,1.4-.06,2.97-.69,4.36-.38,2.35.41,4.69,1.24,6.97,1.9,2.72-1.05,5.75-2.35,8.71-1.84,1.7.22,3.55.09,5.23-.22.43.15,1.3.22,1.74.13,2.19,1.42,4.52,2.94,6.1,5.07.42.3,1.23.56,1.74.45,1.09,0,2.39,0,3.49,0,2.87-.07,5.83.04,8.71,0,5.13-3.35,11.28-5.35,17.43-5.43,2.04-.11,4.1.57,6.1.77,5.59-2.2,12.8-1.98,18.3.41"/><path class="b" d="M8.44,21.03c5.29-.16,10.69.59,15.68,2.37,8.05,3.43,1.9,3.31,12.2,3.21,1.24-.63,2.3-1.94,3.49-2.67,1.85-1.26,3.99-2.28,6.1-3.02,5.56,1.63,10.97,3.91,16.55,5.48,1.38.58,2.38-.24,3.48-.96,1.07-.63,2.39-1.28,3.49-1.85,2.18-1.12,4.53-2.29,6.97-2.71.77.17,1.84.4,2.61.56,4.56.93,9.3,1.39,13.94.87,2.32-.25,4.71-.75,6.97-1.33,2.06.36,4.16,1.14,6.1,1.92,2.01-.54,4-1.59,6.1-1.9,1.4.12,2.94.46,4.36.39.79-.02,1.85-.18,2.61-.38.79-.06,1.83.22,2.61.32,1.9,1.4,3.82,3.13,5.23,5.04,1.63.5,3.54.14,5.23.25,2.58-.07,5.25.03,7.84,0,.94,0,1.84-.86,2.61-1.3,1.62-.97,3.46-1.85,5.23-2.53,2.22-.83,4.63-1.47,6.97-1.86,1.39.18,2.95.48,4.36.51,1.41.05,2.99-.16,4.36-.51.78.17,1.83.54,2.61.71,5.34-2.09,12.31-1.86,17.43.76"/><path class="b" d="M8.44,18.73c5.3-.1,10.73.75,15.68,2.65,1.5.61,3.09,1.48,4.36,2.48.98.65,2.37.35,3.49.41,1.4,0,2.96,0,4.36,0,2.68-2.6,6.05-4.48,9.58-5.65,3.55.77,7.01,2.29,10.46,3.44,6.42,2.35,3.62,2.04,9.58-.55,2.29-.96,4.62-2.11,6.97-2.9,3.19.45,6.35,1.65,9.58,1.99,3.15.46,6.42.58,9.58.2,2.03-.23,4.14-.69,6.1-1.26,1.09-.27,2.34-.87,3.49-.86,1.75.41,3.46,1.5,5.23,1.79,6-3.43,5.87-.36,11.33-1.59,1.4-.52,3.27-.17,4.36.87.74.88,1.84,1.99,2.61,2.84.33.51,1.18,1.42,1.74,1.68,2.59.02,5.26-.04,7.84,0,1.69-.09,3.58.23,5.23-.22,1.84-1.4,3.97-2.63,6.1-3.52,2.21-.8,4.6-1.8,6.97-1.9,4.29,1.18,7.97,1.72,12.2-.08,1.19.71,2.31.21,3.49-.22.77-.14,1.83-.3,2.61-.38,4.14-.45,8.63.1,12.2,2.36"/><path class="b" d="M8.44,16.44c5.01-.02,10.13.85,14.81,2.63,1.49.6,3.08,1.46,4.36,2.43.96.71,2.37.38,3.49.45,1.4,0,2.96,0,4.36,0,1.24-.53,2.31-1.8,3.49-2.48,2.13-1.38,4.56-2.47,6.97-3.24,2.91.9,5.86,1.93,8.71,3,1.41.45,2.87,1.4,4.36,1.56,3.62-1.79,7.57-2.99,11.33-4.46,2.35.2,4.66,1.36,6.97,1.85,1.38.37,2.95.71,4.36.93.78-.05,1.84-.15,2.61-.16,2.02-.06,4.11.39,6.1.58,2.34-.2,4.74-.74,6.97-1.47,1.72-.5,3.47-1.42,5.23-1.76,1.45.49,3.01,1.18,4.36,1.91,1.38-.65,2.86-1.51,4.36-1.9,1.95.5,4.09.98,6.1.54.44-.1,1.32-.36,1.74-.52.8-.06,1.85.15,2.61.37,1.53,1.46,3.06,3.3,4.36,4.98,1.62.54,3.54.16,5.23.26,2.28-.09,4.68.06,6.97,0,.97-.04,1.84-1.01,2.61-1.51,1.32-.91,2.88-1.8,4.36-2.42,1.07-.45,2.37-.89,3.49-1.2,1.08-.33,2.39-.73,3.49-.24,3.35.94,7,2.1,10.46.97,1.41-.33,2.88-1.7,4.36-.98,5.26-1.92,12-1.49,16.55,1.94"/><path class="b" d="M8.44,14.15c5.02.14,10.18,1.01,14.81,3.01,1.16.53,2.47,1.29,3.49,2.06.99.62,2.37.33,3.49.39,1.4,0,2.96,0,4.36,0,1.3-.33,2.32-1.7,3.49-2.33,1.87-1.21,4.01-2.21,6.1-2.96,1.39-.74,2.99.24,4.36.62,2.64.82,5.22,2.1,7.84,2.96,2.8-1.21,5.83-2.03,8.71-2.99,3.58-1.34,3.48-.97,6.97.23,1.39.49,2.95,1.03,4.36,1.45.81.08,1.84-.29,2.61-.45,5.21-1.26,10.65-.42,15.68,1.16,3-.77,5.75-2.53,8.71-3.37,1.46.43,2.83,1.68,4.36,1.79,1.01-.7,2.3-1.41,3.49-1.75,3.13,1.22,5.62,1.13,8.71-.11l.87.43.87-.14c1.14,1.19,2.39,2.71,3.49,3.94.34.51,1.11,1.37,1.74,1.52,1.7,0,3.54.05,5.23-.16,1.96.34,4.11.14,6.1.12,3.18-2.79,7.12-4.94,11.33-5.62,1.99.6,4.08,1.29,6.1,1.78,1.96.48,4.15.63,6.1.02.81-.25,1.87-.71,2.61-1.11.7-.5,1.78-.78,2.61-.5,3-1.1,6.45-1.21,9.58-.63,2.6.42,4.99,1.76,6.97,3.47"/></svg>