<?xml version="1.0" encoding="UTF-8"?><svg id="a" xmlns="http://www.w3.org/2000/svg" width="1920" height="2400" viewBox="0 0 192 240"><defs><style>.b{fill:none;stroke:#fff;stroke-miterlimit:10;stroke-width:.3px;}.c{stroke-width:0px;}</style></defs><rect class="c" width="192" height="240"/><path class="b" d="M9.18,222.44c8.49-1.79,17.29-1.65,25.92-1.59,2.86.01,5.81-.11,8.64-.53,2.01-.09,4.11.45,6.05.91,8.23-3.76,18-1.82,25.92,1.86,1.45.57,2.79,1.84,4.32,2.16,2.27-.35,4.65-.73,6.91-1.15,3.87-.75,7.54-2.43,11.23-3.78.85-.16,1.84.38,2.59.7,1.41.09,2.92-.5,4.32-.64,2.85.03,5.77.69,8.64.6,5.46-.05,10.95-.72,16.41-.59,1.39.06,2.95.22,4.32.51.76.16,1.8.53,2.59.48l.86-.78.86-.17c.82.67,1.81,1.72,2.59,2.44,6.18,1,12.03-2.25,18.14-2.44,4.03-.24,8.09-.09,12.09.32,3.72.27,7.51.35,11.23.27"/><path class="b" d="M9.18,219.89c6.51-1.36,13.25-1.15,19.87-1.18,4.88.13,9.83.35,14.69-.29,1.09-.13,2.37-.39,3.46-.51,1.1.1,2.36.47,3.46.55,1.87-.84,4.02-1.21,6.05-1.41,4.93-.51,9.96.23,14.69,1.67,1.73.53,3.56,1.23,5.18,2.03,1.11.46,2.24,1.48,3.46,1.65,3.43-.53,6.97-.82,10.37-1.55,2.93-.74,5.82-1.91,8.64-2.98.45.13,1.31.47,1.73.67,1.11-.01,2.34-.55,3.46-.55,3.39.7,6.9,1.2,10.37,1.16,5.17-.18,10.36-1.08,15.55-1.02,1.4.04,2.96.21,4.32.52.78.17,1.79.65,2.59.34l.86-.78.86.06c1.55,1.33,2.01,2.56,4.32,2.34,3.2-.02,6.4-.86,9.5-1.56,3.09-.75,6.31-1.32,9.5-1.01,2.27.09,4.64-.19,6.91-.06,4.58.34,9.22.64,13.82.61"/><path class="b" d="M9.18,217.38c8.54-1.5,17.3-.66,25.92-.53,4.62.12,9.29-.26,13.82-1.19.44-.09,1.3-.04,1.73.09.81.07,1.82-.35,2.59-.55,1.94-.45,4.06-.59,6.05-.65,7.14-.02,14.56,1.45,20.73,5.16,3.74-.14,7.54-.67,11.23-1.29,2.94-.64,5.84-1.76,8.64-2.84.43.16,1.28.41,1.73.49.43-.15,1.28-.34,1.73-.39,3.95.93,8.02,1.78,12.09,1.64,4.89-.29,9.78-1.31,14.69-1.36,1.4,0,2.96.17,4.32.49.78.18,1.78.67,2.59.42.39-.45,1.1-1,1.73-1,.79.66,1.75,1.7,2.59,2.31,5.27.23,10.38-1.67,15.55-2.42,1.38-.34,2.93,0,4.32.09,1.68.11,3.5.11,5.18.04,5.46-.59,10.95.15,16.41.23"/><path class="b" d="M9.18,214.92c10.31-1.56,20.75.29,31.1-.12,4.66-.23,9.32-1.04,13.82-2.2,3.41-.49,6.94-.51,10.37-.19,4.09.43,8.23,1.21,12.09,2.64,1.44.53,2.97,1.3,4.32,2.03,2.27-.04,4.65-.19,6.91-.43,2.9-.28,5.88-.73,8.64-1.69,1.4-.46,2.95-1.04,4.32-1.59.76.15,1.82.15,2.59.1.76.21,1.83.49,2.59.68,3.92,1.02,8.05,1.68,12.09,1.19,3.99-.58,8.06-1.27,12.09-1.45,2.34-.17,4.68.54,6.91,1.1.4-.43,1.26-1.23,1.73-1.58,1.52.63,2.44,2.85,4.32,2.42,4.07-.33,8.08-1.48,12.09-2.17,2.26-.61,4.63-.15,6.91.03,2.25.04,4.73.41,6.91-.29.75.34,1.8.19,2.59.14,1.08-.07,2.37-.15,3.46-.22,2.56-.13,5.21.2,7.78.26"/><path class="b" d="M9.18,212.51c10.62-1.29,21.32.82,31.96.24,1.99-.14,4.1-.3,6.05-.72,1.65-.6,3.47-1.13,5.18-1.51,3.09-.68,6.36-.69,9.5-.61,4.64.22,9.34.89,13.82,2.14,2.07.52,4.06,1.59,6.05,2.31,2.27.07,4.65.04,6.91-.11,3.2-.19,6.47-.67,9.5-1.74,4.82-1.69,3.65-1.95,8.64-.28,3.61,1.08,7.46,1.76,11.23,1.38,2.56-.38,5.2-.84,7.78-1.18,3.72-.62,7.67-.77,11.23.67.85-.51,1.77-1.49,2.59-2.03.81.61,1.86,1.52,2.59,2.22.74.46,1.79.24,2.59.11,3.45-.56,6.92-1.43,10.37-2.03,1.38-.36,2.92-.31,4.32-.09,1.68.14,3.5.29,5.18.38,1.7,0,3.65.36,5.18-.55.45.05,1.31.3,1.73.49,1.08-.05,2.37-.12,3.46-.18,2.56-.14,5.21-.28,7.78-.39"/><path class="b" d="M9.18,210.13c10.64-.95,21.31,1.14,31.96.56,1.78.05,3.53-.62,5.18-1.2,2.51-.77,5.16-1.48,7.78-1.71,5.75-.53,11.59-.09,17.28.82,3.53.56,7.12,1.44,10.37,2.97,7.3.66,14.9.39,21.6-2.88,2.04.47,4.01,1.58,6.05,2.1,3.04.92,6.33,1.34,9.5.97,1.43-.29,2.82-1.3,4.32-1.3,1.39-.09,2.94.26,4.32-.07,1.96-.27,4.08-.39,6.05-.1,1.43.08,2.89,1.07,4.32.81.69-.77,1.74-1.71,2.59-2.29,1.22.58,2.41,1.68,3.46,2.52,4.06-.51,8.06-1.74,12.09-2.37,1.68-.45,3.49.08,5.18.21,1.97.21,4.07.33,6.05.37.43.02,1.3.04,1.73.05.81-.1,1.82-.56,2.59-.81.84-.12,1.83.41,2.59.71,2.85,0,5.79-.23,8.64-.33"/><path class="b" d="M9.18,207.79c9.79-.62,19.58,1.06,29.37.88,1.77.05,3.5-.91,5.18-1.33,2.8-.81,5.73-1.57,8.64-1.84,6.03-.57,12.15-.19,18.14.62,2.59.33,5.26.8,7.78,1.5,1.4.33,2.87,1.13,4.32,1.21,5.43.57,11.07,1.01,16.41-.4,2.08-.43,3.89-1.94,6.05-2.06,1.15.43,2.35,1.26,3.46,1.79,3.23,1.41,6.84,2.16,10.37,1.86,1.4-.58,2.82-1.57,4.32-1.92,1.08-.15,2.38-.15,3.46.01.78.12,1.79.56,2.59.4,1.68-.16,3.53-.12,5.18.23,1.1.24,2.35.78,3.46,1,1.35-1.02,2.54-2.91,4.32-3.12.78.49,1.83,1.17,2.59,1.68.42.34,1.18.72,1.73.68,3.71-.87,7.47-1.81,11.23-2.44,1.08-.27,2.37.16,3.46.26,1.68.23,3.5.44,5.18.58,1.08.09,2.37.16,3.46.2,1.11-.14,2.36-.66,3.46-.91,1.72-.68,3.51.37,5.18.74,1.36.31,2.94.05,4.32.06"/><path class="b" d="M9.18,205.41c8.65-.34,17.28.93,25.92,1.08,1.74.05,3.49-.9,5.18-1.26,3.1-.83,6.3-1.66,9.5-1.97,6.6-.66,13.29-.32,19.87.48,3.78.33,7.55,1.15,11.23,2.05,2.85.32,5.78.72,8.64.95,3.73.28,7.6.21,11.23-.78,1.04-.61,2.34-1.25,3.46-1.7.46.13,1.29.07,1.73-.11,1.59,0,3.05,1.29,4.32,2.13,2.8,1.64,6.3,2.13,9.5,1.83,3.2-2.91,7.43-3.17,11.23-1.3,1.41-.02,2.98.18,4.32.61,1.08.31,2.3,1.22,3.46.83.85-1.26,2.17-2.51,3.46-3.32.39-.31,1.22-.66,1.73-.62,1.66.81,3.4,1.86,5.18,2.35,3.69-.99,7.46-1.95,11.23-2.53,3.14.45,6.34,1,9.5,1.26,1.12.21,2.39-.06,3.46-.36,1.07-.25,2.37-.5,3.46-.67,1.99-.55,4.07.1,6.05.37"/><path class="b" d="M9.18,203.01c7.5-.12,14.98.84,22.46,1.15,5.17-1.02,10.27-2.76,15.55-3.16,6.89-.67,13.86-.38,20.73.38,3.16.31,6.39.67,9.5,1.27,3.44.3,6.94.76,10.37,1.18,4.28.55,8.69.88,12.96.07,1.41-.61,2.86-1.56,4.32-2.06l.86.37c.46-.02,1.31-.24,1.73-.43,1.92.6,3.73,1.89,5.18,3.26,2.38,1.09,5.19,1.45,7.78,1.14,3.08-3.3,8.42-3.71,12.09-1.15.68.53,1.8.71,2.59.99,1.12.37,2.23,1.4,3.46,1.42,1.03-.57,1.75-2.03,2.59-2.81,1.21-1.13,2.79-2.1,4.32-2.72,2.57.67,5.13,1.81,7.78,2.18,3.09-.94,6.32-1.68,9.5-2.21,3.44.23,6.91,1.14,10.37,1.42,3.11-.6,6.34-1,9.5-1.21"/><path class="b" d="M9.18,200.59c6.34,0,12.68.86,19.01,1.08,5.44-1.09,10.86-2.58,16.41-2.97,7.76-.72,15.59-.28,23.33.58,5.16.56,10.4.59,15.55,1.24,4.59.46,9.18,1.63,13.82,1.47,1.39-.05,2.97-.09,4.32-.46,1.03-.66,2.33-1.35,3.46-1.84.45-.12,1.34.07,1.73.35.81.07,1.81-.42,2.59-.55,6.15,2.62,3.91,5.19,12.09,4.73,1.08-.76,2.22-1.86,3.46-2.36,3.91-1.53,8.78-.33,11.23,3.16,1.37.2,2.94.07,4.32.1.9-.66,1.75-1.93,2.59-2.65,1.71-1.42,3.9-2.39,6.05-2.92,2.85.58,5.75,1.36,8.64,1.74,1.12.3,2.38-.2,3.46-.48,2.25-.5,4.6-1.21,6.91-1.29,2.84.5,5.78.99,8.64,1.37,1.98-.14,4.07-.39,6.05-.49"/><path class="b" d="M9.18,198.21c5.18.02,10.38.74,15.55.95,6.29-1.18,12.59-2.62,19.01-2.89,5.45-.35,10.97-.23,16.41.26,4.3.4,8.63,1.04,12.96.65,5.79.09,11.58.71,17.28,1.68,3.69.58,7.5.85,11.23.55,1.37-.73,2.87-1.66,4.32-2.23.45.13,1.31.49,1.73.7,1.16.18,2.3-.76,3.46-.66,2.33.95,4.41,2.64,6.05,4.52,1.94.46,4.07.46,6.05.31,2.54-2.81,6.9-3.61,10.37-2.19,1.65.55,2.9,2.03,4.32,2.94,1.39,0,2.93,0,4.32,0,.98-.37,1.78-1.57,2.59-2.2,1.49-1.14,3.37-1.94,5.18-2.42,1.37-.38,2.92-.73,4.32-.99,2.83.52,5.77.96,8.64,1.21,1.38.12,2.93.21,4.32.24,2.26-.49,4.62-1.04,6.91-1.38,1.08-.28,2.37.14,3.46.26,1.68.25,3.5.52,5.18.73"/><path class="b" d="M9.18,195.85c4.02.17,8.09.52,12.09.88,2.88-.3,5.79-1.02,8.64-1.51,9.11-1.49,18.46-1.76,27.64-.81,2.56.25,5.21.58,7.78.85,4.01-.13,8.08-.4,12.09-.42,5.5.18,10.96,1.21,16.41,1.84,2.55.26,5.21.41,7.78.4,1.51-.3,2.87-1.52,4.32-2.04.85-.24,1.84.39,2.59.73,1.76.36,3.5-1.6,5.18-.39,1.18.56,2.48,1.42,3.46,2.28.79.63,1.52,2,2.59,2.19,1.68.16,3.51.06,5.18-.05.8-.41,1.78-1.2,2.59-1.59,3.74-1.85,8.43-.69,11.23,2.3h6.05c4.06-4.01,10.16-4.7,15.55-5.58,4.3.33,8.64.95,12.96,1.02,1.38.12,2.93.25,4.32.34,1.69-.13,3.49-.56,5.18-.74"/><path class="b" d="M9.18,193.51c3.44.16,6.93.72,10.37.81,6.83-1.36,13.76-2.4,20.73-2.6,6.94-.27,13.88.53,20.73,1.52,3.72-.15,7.5-.5,11.23-.55,2.27-.03,4.64-.32,6.91-.15,5.48.32,10.95,1.15,16.41,1.67,2.27.15,4.64.39,6.91.44,1.36-.71,2.86-1.59,4.32-2.11,3.65,1.68,3.15,1.44,6.91.15,2.57.18,5.24,2.53,6.91,4.39.68.59,1.76.53,2.59.48,1.08-.04,2.37-.12,3.46-.18,1.55.11,2.84-1.22,4.32-1.5,3.01-.78,6.33.19,8.64,2.22,1.67.12,3.51.13,5.18,0,1.06-.33,2.36-.45,3.46-.59,2.1-1.3,4.55-2.19,6.91-2.88,3.93-1.08,8.03-1.85,12.09-2.15,5.17.59,10.38,1.19,15.55,1.77"/><path class="b" d="M9.18,191.19c2.86.2,5.78.71,8.64.81,5.4-1.13,10.91-1.9,16.41-2.29,4.88-.33,9.83-.19,14.69.42,1.99.24,4.08.57,6.05.92,1.38.38,2.92.28,4.32.1,9.18-.85,18.45-1.32,27.64-.37,3.72.35,7.5.72,11.23,1,1.67.05,3.54.61,5.18.17,1.05-.57,2.35-1.18,3.46-1.63,1.48.19,2.83,1.34,4.32,1.43,1.73-.26,3.45-1.22,5.18-1.34,2.65.94,4.92,2.81,6.91,4.74,2.85-.19,5.78-.33,8.64-.29,1.32-.53,2.91-.71,4.32-.51,1.5.15,2.94,1.01,4.32,1.54,1.68-.1,3.66.35,5.18-.55,2.16-.85,4.61-1,6.91-1.07,1.72-.37,3.46-1.19,5.18-1.58,3.1-.83,6.33-1.42,9.5-1.9,1.08-.16,2.37-.34,3.46-.48,1.09.05,2.38.27,3.46.4,2.86.38,5.79.78,8.64,1.21"/><path class="b" d="M9.18,188.89c2.27.26,4.64.56,6.91.85,4.57-.76,9.2-1.63,13.82-2.04,4-.37,8.09-.41,12.09,0,3.47.34,6.98.99,10.37,1.82,4.31-.34,8.65-.89,12.96-1.21,9.19-.83,18.46-.15,27.65.49,3.44.12,6.93.69,10.37.8.75-.38,1.82-.86,2.59-1.18,0,0,.86-.34.86-.34l.86.11c1.09.42,2.39.96,3.46,1.43,2.34.17,4.71-.96,6.91-1.64,1.82.61,3.65,1.6,5.18,2.76,1.86,1.52,1.76,1.99,4.32,1.6,1.97-.17,4.08-.21,6.05.04,1.13.21,2.34.83,3.46,1.08,2.84.27,5.79.08,8.64.13,1.17.14,2.31-.83,3.46-.99,1.66-.39,3.49-.6,5.18-.7,1.15.03,2.36-.71,3.46-1,1.96-.56,4.06-1.04,6.05-1.45,2.84-.57,5.77-1.07,8.64-1.47,3.44.49,6.94,1.04,10.37,1.63"/><path class="b" d="M9.18,186.59c1.98.27,4.07.58,6.05.87,1.11.1,2.37-.33,3.46-.5,1.97-.38,4.06-.76,6.05-1.05,6-.92,12.19-.97,18.14.28,1.4.28,2.95.67,4.32,1.06.76.26,1.79.55,2.59.34,5.46-.6,10.95-1.3,16.41-1.78,4.01-.33,8.08-.13,12.09-.03,6.04.11,12.11.3,18.14.66,2.27.16,4.64.43,6.91.65,1.07-.45,2.36-.98,3.46-1.36,2.04.18,4.05,1.88,6.05,1.84,1.72-.2,3.54-.66,5.18-1.18,1.07-.32,2.38-1.02,3.46-.37,2.15.84,4.27,2.11,6.05,3.6,2.85-.06,5.82-.56,8.64.09,1.13.33,2.43.84,3.46,1.41,1.07.22,2.37.11,3.46.13,2.56,0,5.21,0,7.78,0,2.84-1.05,5.69-2.36,8.64-3.12,4.2-1.21,8.61-2.06,12.96-2.43,3.44.53,6.94,1.11,10.37,1.74"/><path class="b" d="M9.18,184.33c2.27.27,4.62,1,6.91.98,1.08-.27,2.37-.58,3.46-.82,5.07-1.14,10.35-1.87,15.55-1.31,3.53.38,7.08,1.28,10.37,2.65,5.47-.48,10.93-1.45,16.41-1.83,2.56-.24,5.21-.48,7.78-.63,2.27-.03,4.64.19,6.91.2,5.46.1,10.96.08,16.41.21,3.15.08,6.37.33,9.5.65,1.45.27,2.92-.79,4.32-1.07,2.01.62,4.05,1.51,6.05,2.14,2.62-.05,5.28-.65,7.78-1.43,2.54-.94,2.76-.77,5.18.27,1.45.63,2.99,1.49,4.32,2.33,3.45-.06,7.08-.64,10.37.78,1.43.38,2.8,1.64,4.32,1.51,1.08,0,2.37,0,3.46,0,1.14-.22,2.36-.92,3.46-1.28,5.86-2.1,12.03-3.35,18.14-4.43,4.32.63,8.66,1.48,12.96,2.24"/><path class="b" d="M9.18,182.12c2.27.32,4.62,1.11,6.91,1.14,3.91-1.24,7.99-2.25,12.09-2.51,5.04-.33,10.2.73,14.69,3.04,1.97.26,4.08-.41,6.05-.59,2.55-.33,5.22-.5,7.78-.81,2.85-.31,5.78-.64,8.64-.92,2.27-.22,4.63-.54,6.91-.29,6.89.42,13.83.1,20.73.17,3.44.05,6.95.22,10.37.57,1.07-.29,2.32-.97,3.46-.76,2,.6,4.08,1.34,6.05,2.02,1.38.2,2.94.09,4.32-.04,2.93-.32,5.84-1.22,8.64-2.11,1.45.12,2.96.83,4.32,1.32,1.08.41,2.32,1.09,3.46,1.35.41-.05,1.31-.12,1.73-.15,2.59-.19,5.28-.04,7.77.74,1.09.3,2.39.72,3.46,1.11,1.73-.21,3.49-1.01,5.18-1.41,3.68-1,7.48-1.77,11.23-2.42,1.07-.18,2.37-.41,3.46-.55,1.68.24,3.5.5,5.18.74,3.74.53,7.52,1.16,11.23,1.84"/><path class="b" d="M9.18,180.01c2.27.44,4.62,1.06,6.91,1.42,6.73-2.86,14.62-4.43,21.6-1.49,5.33,2.41,2.65,2.26,8.64,1.38,4.9-.48,9.87-.86,14.69-1.9,2.55-.41,5.22-.15,7.78-.52,2.84-.34,5.78.26,8.64.23,4.59.12,9.23-.08,13.82-.14,2.56-.02,5.22-.06,7.78.1,1.7.11,3.54.63,5.18-.07,1.09-.48,2.39-.07,3.46.26,1.69.5,3.51,1.05,5.18,1.61,3.13.41,6.4.34,9.5-.3,1.4-.28,2.95-.69,4.32-1.08,1.08-.26,2.33-.83,3.46-.74,2.29.53,4.6,1.44,6.91,1.86,2.86-.28,5.82-.19,8.64.4,1.99.53,4.08-.32,6.05-.64,2.84-.57,5.78-1.08,8.64-1.52,1.07-.27,2.38.1,3.46.23,1.38.21,2.94.44,4.32.65,4.88.74,9.8,1.53,14.69,2.26"/><path class="b" d="M9.18,177.99c1.69.39,3.5.84,5.18,1.25.82.19,1.79.59,2.59.17,5.2-2.76,11.48-4.45,17.28-2.77,2.15.63,4.29,1.73,6.05,3.12,1.4.29,2.92-.41,4.32-.44,2.27-.22,4.64-.5,6.91-.78,1.62-.85,3.41-1.69,5.18-2.14,1.69.31,3.46.96,5.18,1.03,2.56-.27,5.21-.53,7.78-.8,3.43-.49,6.92.29,10.37.21,4.88.1,9.81-.38,14.69-.22,2.27.05,4.64.17,6.91.35,1.08-.18,2.36-.8,3.46-.43,2,.45,4.11.97,6.05,1.64,1.67.29,3.49.55,5.18.72,6.17.81,12.19-1.18,18.14-2.47,1.99.15,4.05.72,6.05.9,1.38.22,2.94.06,4.32.1,2.58.23,5.23-.33,7.77-.66,1.38-.27,2.94-.38,4.32-.06,4.89.7,9.81,1.5,14.69,2.26,3.72.27,7.52.41,11.23.87"/><path class="b" d="M9.18,175.98c1.69.45,3.5.98,5.18,1.46.77.21,1.78.6,2.59.46,6.6-4.85,16.24-6.4,22.46-.13.79.06,1.82-.23,2.59-.37,1.98-.24,4.07-.49,6.05-.75,1.36-.85,2.81-1.93,4.32-2.54,1.43.43,2.85,1.39,4.32,1.68,1.39-.11,2.93-.24,4.32-.32,3.74-.2,7.52-.56,11.23-1.05,1.09-.11,2.36-.3,3.46-.25,1.68.1,3.53.43,5.18,0,1.69.18,3.48.44,5.18.26,2.56.01,5.21.05,7.78.02,2.87-.06,5.82.3,8.64-.36,3.73.64,7.48,1.46,11.23,2,3.4.59,6.9,1.15,10.37,1.01,6.69-.2,13.16-2.53,19.87-2.6,5.74-.44,11.53.03,17.28.2,7.19.25,14.43.43,21.6,1.18"/><path class="b" d="M9.18,173.89c2.59.81,5.2,1.83,7.78,2.67,5.82-5.75,15.8-7.83,21.6-.93.8.07,1.81-.31,2.59-.4,1.38-.21,2.94-.43,4.32-.64,1.52-.63,2.6-2.47,4.32-2.67,3.57,2.2,2.77,1.96,6.91,1.75,2.85-.09,5.79-.02,8.64-.16,4.63-.2,9.21-1.28,13.82-1.62,3.32-.14,7.05.47,10.37-.02,2.85-.06,5.79.29,8.64,0,2.57-.03,5.21.49,7.78.59,6.39.51,12.65,2.12,19.01,2.86,1.67.18,3.51.28,5.18.09,1.39-.37,2.92-.9,4.32-1.26,3.39-.9,6.87-1.86,10.37-2.26,2.26-.33,4.64.19,6.91.22,3.14.19,6.36.18,9.5.12,4.01-.08,8.09-.23,12.09-.45,3.15.07,6.37.35,9.5.61"/><path class="b" d="M9.18,171.73c2.65.86,5.23,2.19,7.78,3.33,5.57-6.06,14.84-9.26,20.73-1.8l.86.22c1.9-.78,4.27-.51,6.05-1.57.69-.77,1.74-1.72,2.59-2.31,1.27.33,2.21,1.67,3.46,2.04,3.15-.1,6.36-.03,9.5.21,3.72.29,7.55.43,11.23-.29,3.14-.56,6.34-1.19,9.5-1.62,1.98-.23,4.06-.76,6.05-.37,5.16.49,10.38-.02,15.55.2,6.97.25,13.98,1.13,20.73,2.87,2.24.49,4.6,1.39,6.91,1.32,3.46-.89,6.89-2.16,10.37-3.02,2.24-.6,4.61-1.15,6.91-1.51,1.08.07,2.37.27,3.46.38,10.61,1.25,21.35.45,31.96-.31"/><path class="b" d="M9.18,169.61c1.44.46,3.02,1.07,4.32,1.86.76.42,1.74,1.1,2.59,1.33.43,0,1.3,0,1.73,0,3-3.91,7.92-6.74,12.96-6.1,1.55.25,3.13,1.07,4.32,2.08.84.71,1.73,1.92,2.59,2.61,1.6-.72,3.49-.98,5.18-1.39.77-.77,1.75-1.89,2.59-2.57,1.03.02,1.88,1.12,2.59,1.75,2.84.24,5.8.06,8.64.53,3.68.75,7.45,1.74,11.23,1.48,8.38-1.04,16.49-4.58,25.05-3.87,8.64-.11,17.36-.06,25.92,1.34,3.48.78,6.95,1.85,10.37,2.87,1.08.3,2.33.81,3.46.92,1.41-.38,2.95-.93,4.32-1.44,2.51-.96,5.19-1.74,7.78-2.47,2.24-.59,4.6-1.19,6.91-1.42.76.1,1.83.24,2.59.33,9.43,1.43,19.03.93,28.51.24"/><path class="b" d="M9.18,166.46c2.21.94,3.98,2.84,6.05,4.03,1.08-.03,2.39.1,3.46-.15,2.34-3.76,6.81-6.14,11.23-6.05,2.92.13,5.42,2.23,6.91,4.62.48.1,1.31-.08,1.73-.34,1.07-.35,2.37-.71,3.46-.99.78-.8,1.74-1.99,2.59-2.71.81.59,1.53,1.81,2.59,1.92,1.98,0,4.08.07,6.05.35,2.05.24,4.06,1.12,6.05,1.62,3.98-.67,8.19-.41,12.09.57.45.14,1.27.35,1.73.41.45-.11,1.29-.35,1.73-.47,1.4-.41,2.94-.91,4.32-1.35,4.21-1.39,8.53-2.55,12.96-2.85,4.56-.48,9.24-.18,13.82-.18,4.9.13,9.91.15,14.69,1.37,3.2.76,6.43,1.7,9.5,2.87,1.09.4,2.35,1.01,3.46,1.36,1.38,0,2.94,0,4.32,0,2.62-.74,5.15-2.11,7.78-2.88,3.9-1.32,7.99-2.4,12.09-2.82,8.28,1.31,16.72,1.05,25.05.57"/><path class="b" d="M9.18,163.44c2.52.84,4.29,2.88,6.05,4.74h3.46c.54-.37,1.38-1.38,1.73-1.93.68-.78,1.72-1.72,2.59-2.27,5.4-3.19,10.62-2.78,13.82,3.04,1.5-1.18,3.69-1.27,5.18-2.41.38-.54,1.25-1.55,1.73-2,.45.39,1.32,1.23,1.73,1.67,2.58-.15,5.26.1,7.78.66,1.1.33,2.34.92,3.46,1.17,3.07-.83,6.37-.39,9.5-.23,2.28.16,4.68.36,6.91.88,1.44.27,2.91,1,4.32,1.35,3.66-1.6,7.41-3.15,11.23-4.32,5.96-1.18,12.08-1.8,18.14-1.09,2.57.26,5.21-.2,7.77-.08,6.22.62,12.51,2.15,18.14,4.89.96.7,2.32.73,3.46.68,1.08,0,2.37,0,3.46,0,1.68,0,3.5,0,5.18,0,.82-.15,1.83-.67,2.59-.99,6.26-2.76,13.05-4.18,19.87-4.5,5.16-.19,10.38.18,15.55-.06"/><path class="b" d="M9.18,160.62c1.54.54,3.12,1.48,4.32,2.6.84.74,1.57,2.14,2.59,2.65h3.46c2.15-4.1,6.6-6.6,11.23-6.12,2.75.37,4.58,2.78,6.05,4.91,1.21-1,2.87-1.58,4.32-2.11.47-.44,1.34-1.41,1.73-1.93l.86.14.86.91c3.5-.35,7.17.27,10.37,1.75,1.39.09,2.92-.3,4.32-.17,2.28.08,4.64.43,6.91.62,3.14.3,6.43.08,9.5.9,1.41.3,2.84,1.24,4.32,1.09,1.58.21,2.96-.95,4.32-1.56,1.93-.95,4.03-1.82,6.05-2.56,3.1-.69,6.32-1.3,9.5-1.45,2.86-.15,5.78.42,8.64.4,2.58.1,5.21-.51,7.78-.49,6.53.93,13.34,2.08,19.01,5.66,4.3-.06,8.67.12,12.96-.08,3.84-1.62,8.1-1.78,12.09-2.76,7.28-2.05,14.96-1.95,22.46-2.18"/><path class="b" d="M9.18,157.91c2.86.86,5.42,2.87,6.91,5.46,1.05.32,2.37.16,3.46.2.57-.34,1.4-1.41,1.73-1.98.91-1.13,2.17-2.34,3.46-3.04,5.41-2.29,9.15-1.34,12.09,3.86,1.16-1.14,2.83-1.89,4.32-2.48.47-.44,1.33-1.41,1.73-1.93.46.47,1.05.96,1.73.98.46-.05,1.27-.1,1.73-.09,1.1,0,2.38.18,3.46.42,1.75.37,3.57,1,5.18,1.78,1.69-.09,3.51-.11,5.18.18,2.56.4,5.18,1.08,7.78,1.22,2.27.13,4.64-.17,6.91-.04,1.43.07,3,.41,4.32.98.77.17,1.81.13,2.59.13.78,0,1.82.03,2.59-.08,1.34-.86,2.89-1.72,4.32-2.41,2.66-1.43,5.67-2.13,8.64-2.52,3.72-.66,7.5.16,11.23.05,3.15-.08,6.35-.58,9.5-.67,1.39.16,2.94.36,4.32.58,3.5.54,7.05,1.29,10.37,2.55,1.79.6,3.47,1.76,5.18,2.5.76,0,1.83,0,2.59,0,2.56-.07,5.23.15,7.78-.11,2.36-1.39,5.11-2.21,7.78-2.77,4.52-.96,9.2-1.29,13.82-1.16,2.27.04,4.64.18,6.91.29,1.97-.13,4.07-.3,6.05-.41"/><path class="b" d="M9.18,155.76l.86-.22c2.93.92,5.26,3.2,6.91,5.72h3.46c1.64-2.9,4.3-5.7,7.78-6.03,3.98-.86,6.97,1.3,8.64,4.8.8-.5,1.76-1.37,2.59-1.82,1.27-.58,2.72-1.35,3.46-2.6l.86.87c3.82-.88,7.76.58,11.23,2.08,1.23.58,2.92.26,4.32.68,2.01.43,4.06,1.19,6.05,1.73,1.35.42,2.93.27,4.32.3,2,.12,4.06-.32,6.05-.43,1.41-.12,2.93.27,4.32.43,1.98,0,4.07,0,6.05,0,4.57-2.91,8.3-4.72,13.82-4.92,2.56-.06,5.21.31,7.78.15,3.15-.14,6.35-.55,9.5-.66,1.39-.1,2.93-.27,4.32-.05,6.18.69,12.73,1.37,18.14,4.69.64.6,1.72.9,2.59.8,1.08,0,2.37,0,3.46,0,1.38-.08,3,.23,4.32-.27.72-.52,1.79-1.12,2.59-1.5,9.5-4.14,20.15-3.24,30.24-2.68"/><path class="b" d="M9.18,153.76c.43-.14,1.29-.39,1.73-.51,1.58.51,3.13,1.58,4.32,2.73.85.82,1.64,2.26,2.59,2.97h2.59c.66-.23,1.42-1.35,1.73-1.94.88-1.19,2.18-2.38,3.46-3.13,1.47-1.01,3.45-1.14,5.18-1.13,2.67.06,4.84,2.1,6.05,4.33l.86.34c.64-.78,1.71-1.62,2.59-2.1.42-.23,1.29-.66,1.73-.84,0,0,.86-1.01.86-1.01l.86.41c4.48-1.24,8.95,1.12,12.96,2.88,2.04.48,4.17,1.07,6.05,2.02,1.36.33,2.93.12,4.32.17,4.59,0,9.23,0,13.82,0,1.39,0,2.93,0,4.32,0,1.15.02,2.56.12,3.46-.75,8.24-5.48,11.87-3.06,20.73-4.06,3.13-.35,6.36-.47,9.5-.61,3.44-.32,6.94-.17,10.37.22,5.13.69,10.6,1.78,14.69,5.16,2.56.12,5.21.02,7.78.05,3.09-2.75,7.24-3.95,11.23-4.69,6.54-1.31,13.26-.76,19.87-.51"/><path class="b" d="M9.18,151.72c.77-.2,1.79-.59,2.59-.68,2.57.82,4.71,2.9,6.05,5.2.97.61,2.39.48,3.46.2.94-.78,1.73-2.28,2.59-3.13.94-.93,2.26-1.79,3.46-2.35,1.28-.63,2.93-.55,4.32-.48,2.83.25,4.93,2.68,6.05,5.11,1.73-2.15,4.18-3.92,6.91-4.48.47-.1,1.27-.13,1.73-.04.78.06,1.82-.06,2.59.02,5.1,1.21,9.56,4.34,14.69,5.5,8.05.13,16.14,0,24.19.05,1.25-.1,2.36-1.25,3.46-1.79,1.54-1.03,3.38-1.83,5.18-2.24,2.23-.56,4.64-.41,6.91-.49,3.44-.11,6.94-.41,10.37-.67,5.45-.23,10.96-.26,16.41-.46,6.59.51,12,1.38,17.28,5.65,1.98,0,4.07,0,6.05,0,1.21-.51,2.28-1.71,3.46-2.32,1.58-.92,3.42-1.7,5.18-2.18,6.74-1.93,13.82-1.44,20.73-1.25"/><path class="b" d="M9.18,149.61c1.1-.19,2.32-.86,3.46-.77,2.63.86,4.76,2.98,6.05,5.38,1.31.3,2.57.07,3.46-1,1.8-1.24,3.1-3.35,5.18-4.21,2.06-1.2,4.75-1.16,6.91-.25,1.92.86,3.11,2.91,4.32,4.52,1.33-2.16,3.51-4.01,6.05-4.51,1.66.48,3.51.51,5.18.09,1.47-.2,2.97.77,4.32,1.25,2.27,1,4.57,2.2,6.91,3.02,1.65.49,3.44,1.25,5.18,1.21,3.14,0,6.36,0,9.5,0,2.56,0,5.21,0,7.78,0,1.67-.13,3.61.33,5.18-.32,1.94-1.79,4.38-3.18,6.91-3.92,2.51-.65,5.21-.43,7.78-.62,6.31-.58,12.68-.42,19.01-.36,4.59.2,9.25.24,13.82-.23,1.7-.3,3.53.23,5.18.61,2.9.75,5.78,2.17,7.78,4.45.97.63,2.36.33,3.46.4,1.11-.07,2.53.28,3.46-.49,7.14-6.65,17.72-5.76,26.78-5.65"/><path class="b" d="M9.18,147.44c1.1-.21,2.39-.58,3.46-.94,3.03.46,5.51,2.9,6.91,5.52.46.06,1.3-.08,1.73-.26.41-.41,1.26-1.15,1.73-1.48.41-.29,1.27-.79,1.73-1.01.72-.68,1.73-1.59,2.59-2.09,2.63-1.67,6.02-1.87,8.64-.07,1.41.95,2.33,2.76,3.46,3.99,1.14-2,2.9-4,5.18-4.65,1.6.71,3.48.98,5.18.55.79-.17,1.78-.56,2.59-.45,1.73.62,3.53,1.47,5.18,2.27,2.74,1.35,5.68,2.46,8.64,3.2,4.01,0,8.08,0,12.09,0,1.98,0,4.07,0,6.05,0,1.1-.06,2.47.23,3.46-.37,2.38-2.23,5.45-3.81,8.64-4.46,2.26-.25,4.65-.19,6.91-.4,2.27-.18,4.64-.41,6.91-.45,2.27.08,4.64.31,6.91.25,5.47-.25,11-.23,16.41.71,1.97.26,4.09-.17,6.05-.44.76-.13,1.81-.38,2.59-.4.42.1,1.31.34,1.73.47,2.67.82,5.17,2.47,6.91,4.66.66.52,1.8.43,2.59.42,1.08-.03,2.4.12,3.46-.18,6.49-7.12,17.1-6.29,25.92-6.25"/><path class="b" d="M9.18,145.21c1.41-.23,2.96-.63,4.32-1.07,2.89.77,5.54,2.79,6.91,5.46l.86.11c1.42-1.46,3.24-2.76,5.18-3.41,5.26-4.53,11.01-3.15,13.82,3.15,1.09-2.04,2.65-4.95,5.18-5.22,2.3,1.27,4.51,1.14,6.91.26,1.12-.62,2.41.1,3.46.55,2.56,1.16,5.14,2.54,7.78,3.53,1.07.4,2.35.86,3.46,1.15,1.98,0,4.07,0,6.05,0,4.3,0,8.66,0,12.96,0,2.95-2.55,6.44-4.64,10.37-5.18,3.43-.23,6.93-.54,10.37-.25,2.27.23,4.63.14,6.91.09,2.57,0,5.22.17,7.78.39,3.72.24,7.53-.31,11.23-.65,2.29.26,4.67.62,6.91,1.13,1.71-.19,3.47-.91,5.18-1.07,1.87.59,3.73,1.64,5.18,2.96.81.72,1.72,1.93,2.59,2.59h4.32c.96-.42,1.78-1.59,2.59-2.23,1-.81,2.29-1.61,3.46-2.15,6.2-2.78,13.24-2.33,19.87-2.28"/><path class="b" d="M9.18,142.92c1.71-.22,3.53-.65,5.18-1.15,2.73.86,5.43,2.59,6.91,5.08l.86.21c1.21-1.17,2.76-2.24,4.32-2.89.78-.32,1.9-.6,2.59-1.1,4.95-3.3,9.95-1.21,12.09,4.12.7-.27,1.43-1.56,1.73-2.2.86-1.22,2.03-2.69,3.46-3.26l.86.15c2.06,2.18,5.37.79,7.78-.03,2.1.49,4.09,1.71,6.05,2.59,2.21,1.08,4.58,2.1,6.91,2.9,2.27.14,4.64.03,6.91.06,2.27,0,4.64,0,6.91,0,1.11-.07,2.51.27,3.46-.45,1.54-1.31,3.34-2.55,5.18-3.39,2.41-1.09,5.14-1.69,7.78-1.8,2.55.31,5.21.52,7.78.69,1.4.2,2.93-.29,4.32-.44,2.56-.13,5.22-.05,7.78.14,4.03.22,8.07,1.3,12.09.59,2.57-.18,5.21-.9,7.78-.91,1.7.18,3.48.88,5.18.88.77-.23,1.84-.58,2.59-.86,2.4.52,4.46,2.35,6.05,4.15.88.83,2.22,1.55,3.46,1.41.82.01,1.9.1,2.59-.44,1.52-2,3.73-3.57,6.05-4.52,6-2.36,12.68-1.95,19.01-1.83"/><path class="b" d="M9.18,140.59c2.01-.19,4.1-.63,6.05-1.16,3.15.66,5.67,2.97,7.78,5.28,1.46-1.34,3.31-2.47,5.18-3.12,1.09-.39,2.47-.62,3.46-1.26,2.89-1.59,6.4-1.03,8.64,1.4.9.9,1.48,2.67,2.59,3.36.62-.42,1.42-1.73,1.73-2.4.84-1.22,1.99-2.77,3.46-3.25,3.29,1.98,5.24,1.26,8.64.07,3.28,1.01,6.33,2.84,9.5,4.12,1.9.81,3.93,1.69,6.05,1.45,1.98,0,4.07,0,6.05,0,1.39-.06,2.96.16,4.32-.18,1.96-1.22,3.94-2.69,6.05-3.65,2.15-.98,4.57-1.62,6.91-1.84,2.27.33,4.62.8,6.91.99,1.48.28,2.89.11,4.32-.32,7.42-1.59,15.06.21,22.46,1.09,3.74-.43,7.52-1.07,11.23-1.72,1.42-.05,2.91.78,4.32.6.38-.2,1.3-.45,1.73-.5,1.57.64,2.99,1.88,4.32,2.9,1.97.79,4.04,1.68,6.05,2.39.87-.66,1.76-1.86,2.59-2.56,1.48-1.26,3.34-2.25,5.18-2.86,5.83-1.78,12.12-1.43,18.14-1.17"/><path class="b" d="M9.18,138.24c2.66-.05,5.25-.92,7.78-1.11,2.63.87,5.16,2.47,6.91,4.63l.86.21c2.45-2.06,5.63-2.88,8.64-3.68,4.49-2.32,8.38.35,10.37,4.49h.86c.68-.25,1.42-1.44,1.73-2.05.89-1.26,2.14-2.65,3.46-3.47.84-.09,1.8.5,2.59.69,2.01.49,4.12-.22,6.05-.76,6.87,2.15,14.19,7.45,21.6,5.08,2.89-1.28,5.63-3.1,8.64-4.1,1.35-.44,2.91-.82,4.32-1.01,2.88.34,5.76,1.12,8.64,1.47,1.13.31,2.36-.49,3.46-.69,1.66-.36,3.48-.95,5.18-.83,3.14.47,6.37-.19,9.5.36,2.57.31,5.22.75,7.78,1.15,1.67.18,3.51.76,5.18.44,3.44-.55,6.95-1.19,10.37-1.86.43-.01,1.32.12,1.73.25.41-.11,1.31-.14,1.73-.05,1.32.83,2.82,1.49,4.32,1.93,1.97.7,4.05,1.47,6.05,2.07.88-.53,1.78-1.59,2.59-2.19,1.51-1.14,3.37-2.01,5.18-2.51,5.9-1.47,12.13-1.1,18.14-.65"/><path class="b" d="M9.18,135.87c1.99-.06,4.09-.27,6.05-.61.77-.13,1.83-.34,2.59-.5.83-.05,1.85.41,2.59.73,1.16.53,2.45,1.31,3.46,2.09.8.6,1.65,1.74,2.59,2.14,1.78-1.3,3.93-2.22,6.05-2.79,1.07-.41,2.46-.27,3.46-.84,2.29-1.06,5.07-.41,6.91,1.23.91.82,1.72,2.3,2.59,3.16.45.06,1.31-.07,1.73-.25,1.07-1.85,2.77-3.56,4.32-5.02.47.02,1.32-.19,1.73-.41,1.96.51,4.07.65,6.05.12,1.13.07,2.39.54,3.46.88,4.49,1.44,9.03,3.72,13.82,3.77,2.63-.8,5.24-1.92,7.78-2.96,1.91-.77,4.04-1.28,6.05-1.72,3.19.39,6.35,1.31,9.5,1.91.83.04,1.82-.45,2.59-.7,1.36-.45,2.91-.85,4.32-1.13,1.37-.37,2.93.11,4.32.18,2.27.16,4.65-.02,6.91-.25,3.75.26,7.51,1.05,11.23,1.58,2.25.25,4.66.81,6.91.34,2.86-.56,5.81-1.1,8.64-1.82,1.42-.22,2.95.54,4.32.86,2.56.72,5.15,1.81,7.78,2.26,3.28-3.56,8.31-4.57,12.96-4.72,4.31-.21,8.69.07,12.96.63"/><path class="b" d="M9.18,133.5c3.76.06,7.55-.44,11.23-1.14,2.89.92,5.77,2.5,7.78,4.82l.86.22c1.82-1.15,3.97-1.95,6.05-2.47.43-.12,1.28-.21,1.73-.17.79-.21,1.8-.67,2.59-.85,1.79-.36,3.78.31,5.18,1.44.89.73,1.69,2.12,2.59,2.83h1.73c.67-.96,1.71-2.18,2.59-2.96.64-.91,1.64-2.06,2.59-2.64.43.22,1.26.54,1.73.61.44-.11,1.28-.25,1.73-.27,1.08-.1,2.38-.06,3.46.08,3.52.5,6.95,1.71,10.37,2.65.76.22,1.82.5,2.59.67,1.4-.29,2.95-.68,4.32-1.08,3.12-.96,6.31-1.91,9.5-2.61,3.5.41,6.93,1.59,10.37,2.35,2.46-1.1,5.13-1.93,7.78-2.44,1.39.1,2.93.34,4.32.49,1.97.18,4.08.08,6.05-.09,1.39-.06,2.94-.48,4.32-.25,5.16.6,10.33,1.87,15.55,1.59,1.71-.11,3.54-.47,5.18-.98.43-.13,1.31-.43,1.73-.59.47-.06,1.33.18,1.73.43.77-.18,1.8-.49,2.59-.5.77.19,1.83.48,2.59.69,1.97.56,4.05,1.19,6.05,1.68,3.72-3.11,8.23-3.92,12.96-3.96,4.61-.07,9.34.22,13.82,1.36"/><path class="b" d="M9.18,131.16c4.32.21,8.71-.06,12.96-.9,1.14-.42,2.42.35,3.46.76,2.3,1.04,4.57,2.59,6.05,4.67,2.37-1.36,5.03-2.37,7.78-2.45,3.81-2.29,7-.55,9.5,2.62h1.73c1.02-1.03,2.24-2.26,3.46-3.07.91-.93,2.03-2.47,3.46-2.42.75.39,1.75.95,2.59,1.1,1.69.05,3.51.28,5.18.55,1.7.25,3.51.7,5.18,1.07,1.39-.11,2.94-.33,4.32-.57,3.47-.57,6.91-1.6,10.37-2.24,3.47.75,6.97,1.68,10.37,2.73,2.75-1.22,5.69-2.21,8.64-2.81,3.7.54,7.49,1.07,11.23.67,1.98-.13,4.07-.46,6.05-.6,3.72.44,7.48,1.08,11.23,1.15,1.99.03,4.1-.16,6.05-.6.77-.17,1.79-.53,2.59-.49.8.25,1.86.69,2.59,1.1,1.39-.37,2.93-.83,4.32-1.19,2.3.43,4.63,1.22,6.91,1.72,1.93-.99,3.88-2.24,6.05-2.67,3.96-.73,8.1-.66,12.09-.26,1.69.2,3.53.43,5.18.86,1.4.26,2.88,1.14,4.32.99"/><path class="b" d="M9.18,128.85c4.29.36,8.69.46,12.96-.19,1.39-.21,2.95-.5,4.32-.82,3.34.96,6.55,2.89,8.64,5.71,1.17.15,2.4-.36,3.46-.79.76-.18,1.81-.28,2.59-.26,3.07-2.55,7.08-2.36,9.5.94.43.09,1.29.12,1.73.06,1.35-1.57,3.3-2.62,5.18-3.4.96-.85,2.26-1.66,3.46-2.13,7.14,2.53,12.68,1.49,19.87,0,2.61.3,5.24,1.14,7.78,1.81,1.09.31,2.39.7,3.46,1.09.46-.04,1.31-.28,1.73-.48,2.78-1.02,5.69-2.09,8.64-2.48,4.55.81,9.21,1.31,13.82.79,2.27-.2,4.64-.48,6.91-.72,2.56.09,5.2.5,7.78.48,1.39.01,2.94-.07,4.32-.24,1.09-.22,2.38-.37,3.46.02,1.46.26,2.87,1.25,4.32,1.49,1.96-.63,4.05-1.28,6.05-1.78,1.72.14,3.49.81,5.18,1.15,1.92-.9,3.94-1.89,6.05-2.28,3.99-.53,8.13-.39,12.09.29,2.03.29,4.08,1,6.05,1.52,1.39-.09,2.94-.22,4.32-.37"/><path class="b" d="M9.18,126.61c4.85.57,9.82,1.01,14.69.36,2.31-.21,4.62-1.02,6.91-1.29,2.97,1,5.85,2.76,7.78,5.27.73.38,1.8.31,2.59.3,1.08-.02,2.39.09,3.46-.13,2.99-2.58,5.65-2.09,8.64.12,2.3-2.27,5.45-3.42,8.64-3.57,6.34-3.5,14.88-1.92,21.6-.26,1.4.37,2.95.84,4.32,1.3,1.72-.32,3.5-1,5.18-1.45,2.25-.66,4.61-1.27,6.91-1.72,1.98.3,4.06.74,6.05.97,8.35,1.1,16.7-1.03,25.05-.74,2.3.08,4.71.37,6.91,1.09,1.15.31,2.32,1.16,3.46,1.47,2.81-1.02,5.73-2.01,8.64-2.69,1.1.11,2.37.51,3.46.73,2.93-1.48,6.23-2.17,9.5-2.04,3.49,0,7.05.55,10.37,1.66,1.02.51,2.36.27,3.46.23,1.98-.12,4.07-.33,6.05-.55"/><path class="b" d="M9.18,124.41c5.69.83,11.53,1.64,17.28.94,1.71-.22,3.53-.6,5.18-1.05,1.38-.25,2.97-1.35,4.32-.57,2.67,1.09,5.13,2.94,6.91,5.21,1.98,0,4.07,0,6.05,0,.81-.11,1.79-.65,2.59-.77.77-.11,1.82.07,2.59.02,4.21-2.99,8.83-3.44,13.82-2.79,1.38.21,2.92-.27,4.32-.2,2.59-.02,5.26.36,7.78.94,5.55.04,10.95-1.99,16.41-2.8,1.7-.07,3.5.5,5.18.68,2.55.37,5.2.62,7.78.68,8.05.26,16.2-1.61,24.19-.06,1.13.22,2.43.66,3.46,1.17.77.36,1.7,1.16,2.59,1.16,2.52-1.05,5.16-2.05,7.78-2.82,1.07-.31,2.35-.65,3.46-.8.43.11,1.29.27,1.73.32,3.24-1.44,6.87-1.71,10.37-1.38,1.71.15,3.54.48,5.18.95,1.09.25,2.32,1.01,3.46.74,1.98-.02,4.08-.15,6.05-.34,1.68-.19,3.5-.41,5.18-.1"/><path class="b" d="M9.18,122.26c6.54,1.04,13.23,2.22,19.87,1.6,3.57-.36,7.01-1.63,10.37-2.84,3.01,1.13,5.69,3.18,7.78,5.6,5,.5,9.08-3.13,13.82-4,5.99-.95,12.11.27,18.14-.07,4.63-.13,9.24-.98,13.82-1.52,5.71.81,11.49,1.6,17.28,1.54,8.39.23,19.82-2.28,26.78,3.22,1.2.1,2.36-.88,3.46-1.27,1.65-.74,3.47-1.47,5.18-2.05,1.65-.56,3.48-1.02,5.18-1.42.47.09,1.3-.04,1.73-.24,2.76-.91,5.78-.86,8.64-.53,1.41.18,2.97.52,4.32.96.76.27,1.77.7,2.59.49,2.27-.14,4.65-.11,6.91-.36,1.08-.1,2.38-.23,3.46-.35,1.39.11,2.94.32,4.32.52"/><path class="b" d="M9.18,120.13c3.99.73,8.07,1.29,12.09,1.8,1.68.17,3.49.53,5.18.44,1.38-.29,2.93-.61,4.32-.87,2.53-.47,5.19-.8,7.78-.76,1.76-.41,3.5-1.35,5.18-2,1.86.62,3.6,1.86,5.18,2.99,5.04.69,9.77-1.73,14.69-2.28,6.6-.41,13.27-.03,19.87-.56,2.57-.34,5.21.02,7.78.3,3.14.34,6.35.7,9.5.93,6.6.53,13.26.12,19.87.2,3.19.06,6.48.32,9.5,1.4,1.14.4,2.45,1.03,3.46,1.7.62.62,1.71,1.02,2.59.89.5.03,1.34-.31,1.73-.62,1.05-.61,2.35-1.28,3.46-1.79,2.47-1.17,5.16-2.06,7.78-2.82,2.77-.87,5.74-1.26,8.64-.95,1.41.12,2.97.42,4.32.83.41.14,1.32.44,1.73.6.41-.02,1.31-.07,1.73-.11,3.44-.05,6.95-.21,10.37-.65,2.28-.18,4.66.5,6.91.82"/><path class="b" d="M9.18,117.99c4.59.78,9.25,1.42,13.82,2.3,1.1.21,2.38-.28,3.46-.47,1.39-.32,2.93-.69,4.32-1.01,3.1-.72,6.32-1.32,9.5-1.46,1.68-.08,3.5-.04,5.18.05.82-.14,1.82-.68,2.59-.98.79.35,1.79.92,2.59,1.25.45.04,1.28.1,1.73.11,3.18.15,6.38-.46,9.5-.98,3.69-.75,7.5-.15,11.23-.18,9.81-.09,19.58,1.27,29.37,1.52,4.59.12,9.23-.02,13.82.05,5.37.03,11.03.68,15.55,3.81h5.18c2.66-1.78,5.63-3.23,8.64-4.32,2.45-.96,5.11-1.75,7.78-1.66,1.7,0,3.54.2,5.18.63,1.07.35,2.31.74,3.46.58,4.32-.04,8.68-.19,12.96-.83,1.69.19,3.51.5,5.18.82.82.14,1.82-.32,2.59-.54"/><path class="b" d="M9.18,115.83c3.75.56,7.52,1.37,11.23,2.16,2.26.52,4.68-.47,6.91-.85,4-.94,8.02-2.07,12.09-2.62,5.14-.72,10.39-.45,15.55-.23,1.69.02,3.51-.08,5.18-.25,1.39.01,2.94.25,4.32.41,4.85.66,9.8.62,14.69.79,5.46.15,10.95.51,16.41.65,7.76.3,15.58-.33,23.33.38,3.62.44,7.27,1.45,10.37,3.42,2.56-.02,5.22.05,7.78-.04,4.35-3.5,9.89-5.91,15.55-5.58,1.73.03,3.51.57,5.18.9,1.08.04,2.37,0,3.46-.02,2.86.14,5.8-.05,8.64-.38,1.08-.12,2.38-.29,3.46-.44,1.1,0,2.38.29,3.46.47,1.12.41,2.36-.36,3.46-.55.76.19,1.82.45,2.59.63"/><path class="b" d="M9.18,113.67c3.16.61,6.37,1.41,9.5,2.16,6.17-.24,12.13-2.19,18.14-3.42,1.08-.22,2.37-.48,3.46-.63,1.97.3,4.06.56,6.05.64,1.68.07,3.5.02,5.18.03,1.11-.05,2.51.15,3.46-.56.49,0,1.3.26,1.73.48,2.27,0,4.65.11,6.91.31,4.57.62,9.22.79,13.82.89,6.32.17,12.68.29,19.01.22,4.59-.04,9.23-.21,13.82-.17,5.28.03,10.8.46,15.55,2.96,1.71,1.29,4.05.66,6.05.8,1.08,0,2.37,0,3.46,0,.49-.17,1.35-.75,1.73-1.11,3.27-2.37,7.33-3.54,11.23-4.41,2.28.01,4.64.63,6.91.81,1.68.13,3.5.06,5.18.17,2.86.09,5.8-.19,8.64-.57,1.08-.14,2.38-.35,3.46-.49.76.12,1.83.31,2.59.46.43-.05,1.33-.28,1.73-.45,2.04.2,4.08,1.06,6.05,1.61"/><path class="b" d="M9.18,111.67c1.99.46,4.05,1.11,6.05,1.5,5.83.05,11.6-1.2,17.28-2.37,2.27-.45,4.62-1.02,6.91-1.35.77.13,1.82.32,2.59.45,3.41.54,6.91,1,10.37,1.04,1.08-.02,2.39.09,3.46-.17.74-.43,1.75-1.07,2.59-1.29.84.32,1.84,1.01,2.59,1.49,1.69.07,3.5.19,5.18.34,4.27.68,8.64.75,12.96.63,9.5-.06,19.01-.53,28.51-.67,2.56,0,5.22.09,7.78.36,2.3.34,4.65.97,6.91,1.48,1.79.37,3.46,1.47,5.18,1.97,2.27-.02,4.64.05,6.91-.04,1.97-1.69,4.45-2.86,6.91-3.64,1.62-.74,3.44-1.36,5.18-1.74.78-.32,1.81,0,2.59.15.77.15,1.82.32,2.59.43,2.55.36,5.21.4,7.78.52,3.75.03,7.54-.56,11.23-1.18,1.11-.21,2.41.53,3.46-.08,2.94.43,5.77,1.75,8.64,2.51"/><path class="b" d="M9.18,109.73c1.34.52,2.9.56,4.32.56,1.69.03,3.51-.03,5.18-.22,4.62-.54,9.23-1.46,13.82-2.18,1.68-.27,3.5-.56,5.18-.8,1.69.14,3.5.47,5.18.71,3.98.7,8.03,1.45,12.09,1.46.77.02,1.83.05,2.59-.04,1.05-.68,2.35-1.43,3.46-2.02,1.59.26,2.98,1.56,4.32,2.38,2.57.14,5.21.51,7.78.69,2.27.14,4.64.04,6.91-.05,8.63-.42,17.27-1.32,25.92-1.34,5.18.15,10.49.03,15.55,1.29,1.44.38,3.01.97,4.32,1.69.71.46,1.71,1.08,2.59.91,1.38,0,2.94,0,4.32,0,.87-.22,1.81-1,2.59-1.42,1.04-.57,2.34-1.12,3.46-1.5,2.15-1.18,4.49-2.21,6.91-2.68,2.55.44,5.17,1.1,7.78,1.23,2.85.27,5.79.42,8.64.06,2.58-.27,5.23-.75,7.78-1.23,2.1-.2,4.09.44,6.05,1.14,2.25.79,4.62,1.54,6.91,2.21"/><path class="b" d="M9.18,107.42c6.99.53,13.84-1.42,20.73-2.27,1.38-.15,2.93-.55,4.32-.29,2.56.33,5.21.68,7.78.97,5.74.57,11.5,1.42,17.28,1.52,1.82-.46,3.29-2.2,5.18-2.43,1.8.73,3.53,1.97,5.18,2.98,4.28.48,8.67.49,12.96.08,7.75-.74,15.53-1.71,23.33-1.54,4.89.09,9.91-.41,14.69.91,1.45.38,3.02.99,4.32,1.73.79.42,1.66,1.31,2.59,1.39,1.38,0,2.93,0,4.32,0,.81-.31,1.81-.96,2.59-1.32.78-.36,1.89-.74,2.59-1.23,2.03-1.5,4.46-2.54,6.91-3.09,2.53.64,5.17,1.25,7.78,1.48,2.83.47,5.8.47,8.64.12,2.87-.37,5.83-.87,8.64-1.58,4.78.74,9.36,2.54,13.82,4.32"/><path class="b" d="M9.18,104.7c4.94.28,9.83-.97,14.69-1.72,1.08-.17,2.37-.38,3.46-.52,1.39.19,2.93.41,4.32.6,7.42,1.21,14.95,1.66,22.46,1.62,2.85-.06,5.81.55,8.64.23,1.33-.84,2.89-1.67,4.32-2.33,2.48.52,4.61,2.21,6.91,3.17,4.61.04,9.26-.31,13.82-.88,4.57-.6,9.22-.9,13.82-.98,2.86-.01,5.79.21,8.64-.09,4.38-.18,8.99.12,12.96,2.14,1.18.55,2.31,1.62,3.46,2.21,1.38,0,2.94,0,4.32,0,.84-.09,1.82-.7,2.59-1.01,2.54-1.98,5.32-4.27,8.64-4.6,2.8.84,5.75,1.45,8.64,1.9,2.84.42,5.81.29,8.64-.15,1.39-.22,2.96-.48,4.32-.84,1.05-.38,2.32-1.13,3.46-.72.76-.31,1.83-.04,2.59.15,1.09.26,2.39.6,3.46.92,3.25.97,6.51,2.24,9.5,3.85"/><path class="b" d="M9.18,101.97c4.66.17,9.22-1.42,13.82-1.7,5.46.87,10.92,2,16.41,2.59,6.04.74,12.12-.09,18.14-.52,1.68-.1,3.5-.14,5.18-.11,1.08-.02,2.39.22,3.46-.05,1.33-.71,2.85-1.54,4.32-1.92,1.09.38,2.39.83,3.46,1.29,1.07.43,2.25,1.38,3.46,1.21,6.06-.1,12.09-1.11,18.14-1.38,2.56-.14,5.21-.2,7.78-.09,1.39,0,2.94.34,4.32.17,6.35-.84,13.3-.24,18.14,4.38,1.68,0,3.5,0,5.18,0,1.33-.55,2.25-2.13,3.46-2.91,1.01-.76,2.3-1.54,3.46-2.07.76-.33,1.75-.83,2.59-.56,4.73,1.46,9.69,2.92,14.69,2.35,1.4-.17,2.99-.3,4.32-.79,1.34-.6,2.86-1.34,4.32-1.6,1.08.49,2.37.21,3.46-.1,5.42,1.1,10.66,3.12,15.55,5.68"/><path class="b" d="M9.18,99.21c3.18-.1,6.38-.73,9.5-1.28,4.04.68,8.09,1.63,12.09,2.48,1.97.4,4.03,1.03,6.05.64,3.13-.27,6.36-.41,9.5-.15,1.4.12,2.95.36,4.32.65,3.15-.53,6.34-1.26,9.5-1.68,2.26-.31,4.63-.47,6.91-.53,1.08-.05,2.38.03,3.46-.16.42-.19,1.29-.56,1.73-.73,1.68-.98,3.53.28,5.18.74,2.83.31,5.8,0,8.64-.12,6.88-.48,13.87-1.07,20.73-.03,6.5-.95,13.39-.66,18.14,4.49h5.18c1.96-2.58,4.71-4.66,7.78-5.71,5.52,1.84,11.4,4.1,17.28,2.64,1.88-1.04,3.98-1.96,6.05-2.54.77.21,1.79.56,2.59.53,1.08-.21,2.37-.87,3.46-.44,3.51.89,7.03,2.04,10.37,3.45.78.33,1.83.84,2.59,1.22.75.37,1.71,1.03,2.59.86"/><path class="b" d="M9.18,96.45c1.99-.14,4.08-.45,6.05-.78,4.68.58,9.27,2.06,13.82,3.27,7.98-.84,16.25-2.25,24.19-.33.44.12,1.3.38,1.73.53,1.43-.13,2.93-.77,4.32-1.09,2.24-.6,4.61-1.06,6.91-1.33,3.71-.54,7.56-.36,11.23-1.04,1.33.45,2.94.1,4.32.15,2.56-.04,5.21-.09,7.78-.19,2.85,0,5.79.14,8.64,0,2.87-.09,5.82.34,8.64.86,1.69.02,3.48-.5,5.18-.44,4.52-.1,9.22,1.55,12.09,5.15,1.08,0,2.37,0,3.46,0,.56.11,1.29-.15,1.73-.49,1.71-2.26,4.14-4.37,6.91-5.14,4.82,1.61,12.68,5.58,17.28,2.21,1.62-.83,3.46-1.54,5.18-2.13,1.12.03,2.36.55,3.46.75,1.08-.27,2.37-.59,3.46-.84,2.32.42,4.67,1.22,6.91,1.95,2.01.68,4.1,1.49,6.05,2.34,1.36.56,2.77,1.57,4.32,1.35"/><path class="b" d="M9.18,93.73c1.09-.11,2.37-.29,3.46-.45,2.6.41,5.25,1.1,7.78,1.84,1.09.32,2.38.73,3.46,1.09.78.24,1.76.75,2.59.49,4.8-1.12,9.78-1.49,14.69-1.84,5.78-.14,11.77-.15,17.28,1.85,3.58-1.45,7.39-2.51,11.23-2.96,2.32-.39,4.58-.44,6.91-.15.77.05,1.82.11,2.59.15.43-.12,1.29-.33,1.73-.41,1.61.68,3.47.6,5.18.65,1.98.07,4.07.18,6.05.19,3.45.04,6.96-.23,10.37-.74,1.71-.4,3.49.47,5.18.63,5.5-1.3,12.17-.08,15.55,4.8,1.38.1,2.93.04,4.32.05,1.94-2.19,3.99-4.74,6.91-5.61,4.45,1.71,8.92,4.19,13.82,4.05,2.63-1.76,5.62-3.12,8.64-4.05,1.09.31,2.41.65,3.46,1.1,2-.14,4.05-1.53,6.05-.75,3.5.93,7,2.1,10.37,3.44,1.09.43,2.38.96,3.46,1.42.7.47,1.79.45,2.59.43"/><path class="b" d="M9.18,91.08c1.7-.32,3.53.3,5.18.64,2.92.75,5.85,1.78,8.64,2.93,2-.22,4.03-1.06,6.05-1.29,4.84-.81,9.78-1.19,14.69-1.22,5.78-.08,11.76-.04,17.28,1.87,3.34-1.28,6.83-2.47,10.37-3.06,2.57.31,5.19.99,7.78,1.21,1.17.29,2.4-.32,3.46-.73,1.09-.59,2.37-.22,3.46.16,1.12.27,2.3,1.03,3.46,1.13,4.63.25,9.31-.3,13.82-1.33.77-.16,1.8-.49,2.59-.28.78.21,1.79.69,2.59.32,4.16-.81,8.86-.03,12.09,2.84.49.43,1.35,1.44,1.73,1.97,1.27.67,2.94.26,4.32.36,1.56-2.24,3.54-4.42,6.05-5.59,4.31,1.45,8.3,4.34,12.96,4.59,2.84-2.05,6.14-3.63,9.5-4.6,1.41.36,2.94.92,4.32,1.38,1.67-.47,3.46-1.11,5.18-1.35,1.39.35,2.94.78,4.32,1.2,2.89.87,5.81,1.89,8.64,2.93,1.67.51,3.4,1.55,5.18,1.44"/><path class="b" d="M9.18,88.72c4.21.54,8.29,2.04,12.09,3.87,7.22-2.45,14.88-3,22.46-3.05,6.64-.15,13.46-.24,19.87,1.75,2.48-1.08,5.15-1.96,7.78-2.62,2.9.41,5.75,1.43,8.64,1.92,1.21.42,2.39-.19,3.46-.71,1.06-.45,2.35-.9,3.46-1.2,1.13.35,2.42.9,3.46,1.48.79.41,1.65,1.29,2.59,1.28,2.3-.07,4.68-.44,6.91-.99,1.99-.49,4.07-1.1,6.05-1.64.47-.11,1.3.02,1.73.24.44,0,1.3-.09,1.73-.19,3.25-.44,6.78.15,9.5,2.03,1.3.84,2.34,2.38,3.46,3.42h3.46c1.6-2.11,3.35-4.81,6.05-5.54,3.7,1.69,7.24,4.06,11.23,5.01,3.28-1.97,6.69-3.9,10.37-5.04,1.75.29,3.5,1.06,5.18,1.58,1.67-.55,3.48-1.1,5.18-1.54,1.73.09,3.51.83,5.18,1.25,4.61,1.31,9.15,3.06,13.82,4.13"/><path class="b" d="M9.18,86.59c2.34.39,4.73,1.09,6.91,2.01,1.11.47,2.4,1.09,3.46,1.66.85.21,1.81-.36,2.59-.61,2.5-.85,5.17-1.41,7.78-1.82,5.69-.88,11.53-.68,17.28-.92,6.05,0,12.34-.31,18.14,1.69,1.41-.43,2.9-1.16,4.32-1.6.77-.24,1.77-.67,2.59-.45,2.28.63,4.68,1.2,6.91,1.99,1.37.36,3.06,1.21,4.32.16,1.61-.88,3.49-1.5,5.18-2.18,2.37.22,4.16,2.3,6.05,3.55,3.88-.45,7.55-2.05,11.23-3.25.42-.17,1.28-.37,1.73-.38.44.15,1.28.16,1.73.01,4.62-.71,9.76,1.11,12.09,5.34,1.05.36,2.37.18,3.46.22,1.25-1.12,2.14-2.97,3.46-4.04.7-.57,1.62-1.47,2.59-1.45,2.01,1.04,4.08,2.23,6.05,3.34,1.34.65,2.79,1.75,4.32,1.81,3.54-2.07,7.23-4.21,11.23-5.22,1.69.53,3.56,1.02,5.18,1.74,1.42-.25,2.92-.91,4.32-1.27.77-.21,1.79-.6,2.59-.36,6.04,1.44,11.96,3.72,18.14,4.52"/><path class="b" d="M9.18,84.41c3.33.67,6.61,1.96,9.5,3.73,4.16-1.55,8.54-2.62,12.96-3.17,4.01-.25,8.08-.35,12.09-.48,7.77-.09,15.8-.89,23.33,1.46,1.63-.65,3.4-1.71,5.18-1.74,3.47,1.07,6.93,2.38,10.37,3.56.88-.14,1.82-.87,2.59-1.26,1.67-.8,3.49-1.65,5.18-2.41,1.17.57,2.47,1.42,3.46,2.28.81.63,1.53,1.95,2.59,2.17,3.87-1.02,7.44-3.05,11.23-4.3,5.82-1.03,10.61.17,13.82,5.43,1.08-.02,2.39.08,3.46-.13,1.15-2.14,2.84-4.56,5.18-5.46,2.02,1.12,4.12,2.38,6.05,3.65,1.05.57,2.19,1.71,3.46,1.65,3.96-1.87,7.83-4.16,12.09-5.29,1.97.65,4.12,1.19,6.05,1.98,1.37-.52,2.92-1.04,4.32-1.44,1.07-.34,2.36-.7,3.46-.26,5.7,1.33,11.4,3.23,17.28,3.49"/><path class="b" d="M9.18,82.17c3.03.71,6.01,1.94,8.64,3.61,4.09-1.76,8.58-2.58,12.96-3.25,4.59-.29,9.23-.41,13.82-.54,3.72-.09,7.51-.17,11.23-.18,4.05,0,8.24.2,12.09,1.58,1.63-.48,3.47-2.06,5.18-1.21,3.5,1.21,6.9,2.87,10.37,4.16,2.36-1.81,5.22-3.05,7.78-4.55,1.2.61,2.49,1.58,3.46,2.52.83.8,1.66,2.17,2.59,2.85,2.36-.9,4.65-2.21,6.91-3.33.99-.72,2.29-1.38,3.46-1.73,4.66-1.44,10.38-.19,12.96,4.23,1.03.46,2.35.69,3.46.88.78-.21,1.39-1.29,1.73-1.93.88-1.26,2.16-2.58,3.46-3.42,1.24.12,2.4,1.15,3.46,1.75,1.71,1.14,3.49,2.47,5.18,3.62,2.23-1.08,4.68-1.96,6.91-3.05,1.36-.62,2.9-1.26,4.32-1.74.76-.25,1.77-.67,2.59-.51,1.38.44,2.93.92,4.32,1.34.77.22,1.78.67,2.59.4,1.36-.51,2.91-1.01,4.32-1.39,1.07-.36,2.36-.59,3.46-.19,5.39,1.17,10.87,2.64,16.41,2.56"/><path class="b" d="M9.18,79.88c2.71.71,5.39,1.87,7.78,3.36,4.13-1.65,8.6-2.37,12.96-3.13,4.87-.31,9.8-.44,14.69-.55,8.07-.03,16.32-.89,24.19,1.26,3.01-1.4,2.97-1.64,6.05-.21,2.92,1.23,5.82,2.71,8.64,4.14,1.73-.97,3.47-2.28,5.18-3.3,1.06-.61,2.22-1.64,3.46-1.84,2.12,1.25,4,3.22,5.18,5.37,1.18.24,2.5,0,3.46-.75,1.26-.61,2.43-1.72,3.46-2.65,2.18-1.7,5.04-2.46,7.78-2.44,2.15-.05,4.35.63,6.05,1.96.82.6,1.66,1.74,2.59,2.18,1.36.35,2.92.62,4.32.8,1.14-1.7,2.56-3.54,4.32-4.63,2.89,1.11,5.17,3.54,7.78,5.15,1.96-.77,4.08-1.45,6.05-2.22,2.52-1.04,5.13-2.15,7.78-2.84,2.51.3,5.25,1.52,7.78,2.1,2.53-.85,5.15-1.72,7.78-2.22,5.39,1.04,10.9,2.24,16.41,1.97"/><path class="b" d="M9.18,77.57c2.39.69,4.8,1.71,6.91,3.04,4.45-1.53,9.18-2.28,13.82-2.98,5.16-.27,10.38-.42,15.55-.47,7.75.12,15.79-.94,23.33,1.33.77-.34,1.81-.82,2.59-1.14,1.5-.12,2.96,1,4.32,1.53,1.7.85,3.54,1.78,5.18,2.75.42.27,1.3.8,1.73,1.05.43.07,1.3.12,1.73.09,2.49-1.92,5.12-3.85,7.78-5.53,2.2.98,3.96,3.08,5.18,5.1.7.52,1.77.44,2.59.42.51.1,1.31-.14,1.73-.44,1.2-1.93,3.07-3.63,5.18-4.51,3.97-1.67,8.79-1.51,12.09,1.49.88.83,2.33.93,3.46,1.21,1.07.18,2.36.56,3.46.35.85-1.33,2.14-2.73,3.46-3.6.94-.13,1.85.7,2.59,1.17,1.44.99,2.98,2.19,4.32,3.3,1.45.09,2.93-.72,4.32-1.04,3.79-.93,7.37-2.87,11.23-3.53,2.26.64,4.63,1.32,6.91,1.89,1.44.61,2.94-.26,4.32-.63,1.66-.49,3.48-.91,5.18-1.22,1.68-.21,3.5.43,5.18.53,3.13.39,6.35.72,9.5.47"/><path class="b" d="M9.18,75.27c2.07.63,4.19,1.53,6.05,2.63,4.5-1.31,9.2-1.94,13.82-2.66,5.45-.32,10.96-.42,16.41-.45,7.76.12,15.74-.71,23.33,1.32.76-.39,1.81-.88,2.59-1.21,3.7,1.22,7.1,3.46,10.37,5.55,1.08-.02,2.38.07,3.46-.1,2.19-1.84,4.49-3.78,6.91-5.31,1.39.15,2.5,1.55,3.46,2.46.84.83,1.49,2.43,2.59,2.96,1.09-.05,2.43.17,3.46-.27,2.53-4.31,8.11-6.65,12.96-5.54,1.5.34,3.07,1.06,4.32,1.96,2.51.71,5.17,1.33,7.78,1.5.88-1.23,2.16-2.52,3.46-3.3,2.23.89,4.17,2.68,6.05,4.15,1.73,0,3.5-.7,5.18-1.06,3.5-.73,6.88-2.15,10.37-2.94,1.11-.27,2.37.33,3.46.53,1.38.34,2.93.7,4.32,1,.77.16,1.82.37,2.59.51.78-.16,1.82-.5,2.59-.71,1.95-.53,4.05-.95,6.05-1.25,1.97-.46,4.06-.14,6.05.03,1.97.14,4.07.12,6.05.02"/><path class="b" d="M9.18,73.03c1.75.53,3.54,1.35,5.18,2.15,5.1-1.15,10.35-1.94,15.55-2.44,9.2-.34,18.44-.34,27.64-.21,3.16.08,6.41.27,9.5.97,1.52.73,2.85-.82,4.32-.83,3.02,1.33,5.95,3.07,8.64,4.99.43.33,1.18.6,1.73.49,1.08,0,2.37,0,3.46,0,2.34-1.67,4.41-3.93,6.91-5.41,1.39.12,2.5,1.55,3.46,2.45.83.84,1.5,2.42,2.59,2.96,1.08-.03,2.39.09,3.46-.13,2.39-4.06,7.43-6.48,12.09-5.9,1.77.14,3.5.95,5.18,1.44,2.81.78,5.76,1.32,8.64,1.73,1.26-.57,2.22-2,3.46-2.65.55-.08,1.32.24,1.73.59,1.44.84,2.81,2.18,4.32,2.89,5.56-.65,10.96-2.38,16.41-3.55,2.59.22,5.2,1.01,7.78,1.34,1.38.22,2.93.43,4.32.57,2-.17,4.04-.88,6.05-1.08,3.7-.56,7.5-.59,11.23-.54"/><path class="b" d="M9.18,70.9c4.58,1.53,2.81,1.9,7.78.93,4.01-.52,8.07-1.16,12.09-1.48,7.19-.22,14.41-.27,21.6-.16,5.78,0,11.6.17,17.28,1.28.75-.4,1.79-.94,2.59-1.23,3.06,1.37,6,3.19,8.64,5.25.72.44,1.79.35,2.59.35,1.08,0,2.37,0,3.46,0,.91-.49,1.83-1.55,2.59-2.22,1.3-1.16,2.85-2.35,4.32-3.27,1.76.58,3.17,2.29,4.32,3.68.31.57,1.07,1.63,1.73,1.82,1.08,0,2.37.02,3.46-.03,2.13-3.58,6.25-5.86,10.37-6.11,4.1.01,8.08,1.18,12.09,1.91,1.08.19,2.37.4,3.46.57.79.13,1.82.44,2.59.08.68-.68,1.75-1.46,2.59-1.93,1.96.16,3.43,2.12,5.18,2.9,6.12-.4,12.08-2.2,18.14-2.97,5.13.82,10.35,1.44,15.55,1.53,1.39.1,2.93-.17,4.32-.28,2.27-.16,4.64-.29,6.91-.26"/><path class="b" d="M9.18,68.92c.78.26,1.84.65,2.59.98,5.14-.86,10.38-1.31,15.55-1.87,5.46-.12,10.96-.26,16.41-.18,7.78.16,15.65-.04,23.33,1.41.75-.42,1.81-.96,2.59-1.32,3.15,1.26,6.04,3.32,8.64,5.48,2.25.28,4.64.05,6.91.12,2.08-2.05,4.32-4.21,6.91-5.61,2.06,1.28,3.94,3.17,5.18,5.26,1.27.65,2.93.25,4.32.35,3.48-5.46,10.38-7.18,16.41-5.59,1.07.52,2.35.02,3.46.07,1.08.21,2.37.44,3.46.6,2.28.35,4.67.66,6.91,1.21,1.25-.17,2.32-1.36,3.46-1.86,1.54.51,2.94,1.7,4.32,2.52,6.36-.6,12.67-1.82,19.01-2.56,8.02.86,16.13,1.21,24.19.76"/><path class="b" d="M9.18,67.16c.77.44,1.78.12,2.59,0,1.08-.17,2.37-.34,3.46-.46,3.14-.33,6.37-.54,9.5-.89,7.17-.37,14.41-.3,21.6-.18,4.59.12,9.24.19,13.82.6,1.99.09,4.06.7,6.05.73.75-.43,1.81-.98,2.59-1.35,3.23,1.2,5.88,3.64,8.64,5.62,2.27,0,4.64,0,6.91,0,1.39-.41,2.29-2.08,3.46-2.88.74-.62,1.79-1.41,2.59-1.94.41-.35,1.17-.69,1.73-.6,2.05,1.3,3.93,3.19,5.18,5.28,1.37.27,2.94.1,4.32.14,4.46-6.33,12.94-7.45,19.87-4.98,1.1-.08,2.37-.45,3.46-.64.77.01,1.82.17,2.59.27,2.59.28,5.23.86,7.78,1.4,1.22-.16,2.24-1.34,3.46-1.57,1.11.58,2.4,1.34,3.46,2.02,6.63-.53,13.24-1.65,19.87-2.15,6.89-.02,13.85,1.02,20.73.26"/><path class="b" d="M9.18,64.91c5.12-.94,10.39-1.01,15.55-1.58,8.05-.06,16.14-.2,24.19.16,3.73.14,7.52.28,11.23.68,1.39.15,2.95.38,4.32.64,1.18-.24,2.35-1.13,3.46-1.58,2.85,1.34,5.5,3.32,7.78,5.48,1.06.32,2.37.16,3.46.19,1.68,0,3.5,0,5.18,0,1.96-2.21,4.32-4.25,6.91-5.68,2.43,1.17,4.18,3.43,6.05,5.27,1.37.35,2.9.48,4.32.41,4.49-5.64,11.32-6.83,18.14-5.93,1.42.2,2.99.59,4.32,1.13,2.01.07,4.03-1.01,6.05-.95,2.29.25,4.65.75,6.91,1.17.76.14,1.82.3,2.59.4.85-.21,1.82-.9,2.59-1.29,1.22.08,2.38,1.03,3.46,1.54,9.48-.7,18.99-1.88,28.51-1.6,2.86-.08,5.8-.08,8.64.39"/><path class="b" d="M9.18,62.36c4.56-.75,9.23-.84,13.82-1.29,4.59-.09,9.23-.08,13.82-.08,8.93.17,17.93.34,26.78,1.66,1.05-.58,2.26-1.42,3.46-1.67,2.95,1.28,5.28,3.68,7.78,5.61h8.64c2.14-1.96,4.34-4.08,6.91-5.51.94-.15,1.87.68,2.59,1.18,1.2.84,2.36,2.16,3.46,3.12,1.72.06,3.55.42,5.18.95.58-.13,1.38-.86,1.73-1.32.71-.67,1.75-1.46,2.59-1.95,4.66-2.66,10.31-3,15.55-2.49,2.03.22,4.15.7,6.05,1.45,1.41-.15,2.93-.63,4.32-.85,1.38-.34,2.93-.44,4.32-.08,1.68.28,3.5.57,5.18.8,1.08.13,2.37.36,3.46.28.41-.27,1.3-.77,1.73-1,1.24-.17,2.26,1.06,3.46,1.16,3.43-.29,6.93-.31,10.37-.54,7.47-.38,15.05-.73,22.46.51"/><path class="b" d="M9.18,59.97c4.27-.65,8.66-.79,12.96-1.2,2.56.02,5.21.04,7.78,0,8.64-.08,17.31.26,25.92.97,1.98.18,4.08.43,6.05.76,1.48-.34,2.75-1.86,4.32-1.73,2.61,1.28,4.97,3.23,6.91,5.38,3.11.36,6.37.05,9.5.15,2.46-1.93,4.73-4.57,7.78-5.58,1.88.92,3.55,2.44,5.18,3.71,1.39.02,2.95.09,4.32.31,1.1.11,2.37.74,3.46.38,5.54-4.98,13.64-5.46,20.73-4.92,2.63.17,5.24.92,7.78,1.54,1.37-.31,2.93-.61,4.32-.82,1.69-.39,3.5-.2,5.18.1,1.97.27,4.07.53,6.05.72.42.04,1.3.11,1.73.14.79-.29,1.75-.95,2.59-1.09.77.36,1.81.87,2.59,1.2.77-.02,1.82-.07,2.59-.11,1.98-.02,4.07.03,6.05,0,6.62-.09,13.34-.11,19.87,1.17"/><path class="b" d="M9.18,57.75c5.71-.81,11.51-1.25,17.28-1.13,6.04-.09,12.11.02,18.14.36,3.73.2,7.52.43,11.23.82,1.69.09,3.5.64,5.18.48,1.05-.66,2.34-1.37,3.46-1.91,1.24.15,2.43,1.1,3.46,1.76,1.57,1.04,2.89,2.67,4.32,3.86h9.5c2.44-2.01,4.86-4.25,7.78-5.6,1.88.68,3.49,2.17,5.18,3.18,3.17-.09,6.41.21,9.5.92,6.69-4.75,15.4-5.22,23.33-4.69,2.59.21,5.26.62,7.78,1.3,1.37.38,2.93-.32,4.32-.38.77-.1,1.82-.25,2.59-.31,1.08.14,2.37.32,3.46.46,2.55.34,5.21.63,7.78.84,1.13-.29,2.23-1.43,3.46-1.15,1.08.44,2.37.98,3.46,1.41,2.27.12,4.64.1,6.91.28,5.19.26,10.46.58,15.55,1.69"/><path class="b" d="M9.18,55.67c6.85-1.24,13.8-1.14,20.73-1.16,9.8.1,19.66.53,29.37,1.87,1.39-.75,2.89-1.7,4.32-2.38,1.92.61,3.68,2,5.18,3.31.79.69,1.61,1.92,2.59,2.35,14.68.07,6.14.54,17.28-5.45,1.93.11,3.45,1.86,5.18,2.55,4.04-.25,8.1.31,12.09.86,8.48-4.7,19.07-4.84,28.51-3.94,2,.13,4.06.83,6.05.91,1.97-.28,4.07-.79,6.05-.3,3.42.55,6.92,1.04,10.37,1.43.5.06,1.34-.26,1.73-.58.73-.4,1.78-.91,2.59-1.13,2.26.87,4.62,1.82,6.91,2.6,4.88.67,9.89,1.13,14.69,2.36"/><path class="b" d="M9.18,53.66c4.55-.85,9.21-.98,13.82-1.05,6.61-.17,13.27.01,19.87.42,4.6.28,9.25.61,13.82,1.22.84.23,1.94.08,2.59-.55,1.05-.67,2.34-1.4,3.46-1.96,1.95.48,3.69,1.97,5.18,3.25.79.69,1.6,1.94,2.59,2.37,1.68,0,3.5,0,5.18,0,1.09-.04,2.41.14,3.46-.22.75-.4,1.82-.85,2.59-1.21,2.05-1.61,4.35-3.42,6.91-4.07,1.44.6,2.88,1.61,4.32,2.2,1.38-.07,2.93-.09,4.32-.06,3.46.07,6.96.55,10.37,1.09,9.96-4.5,23.85-4.8,34.56-3.12,1.4.22,2.92-.45,4.32-.25,3.16.43,6.35,1.16,9.5,1.68,1.08.18,2.37.38,3.46.55.45.16,1.3.08,1.73-.15.73-.49,1.79-1.08,2.59-1.45.39-.24,1.27-.49,1.73-.46.42.16,1.3.5,1.73.66,1.08.42,2.37.91,3.46,1.32,2.53.95,5.18,1.85,7.78,2.6,1.37.33,2.89.97,4.32.9"/><path class="b" d="M9.18,49.56c6.03.14,12.12-.06,18.14.34,2.87.19,5.81.51,8.64,1.05,2.27.1,4.64.22,6.91.36,4.6.29,9.26.63,13.82,1.29.91-.16,1.83-1,2.59-1.47,1.04-.59,2.22-1.57,3.46-1.64,2.69,1.28,4.9,3.43,6.91,5.56,2.56,0,5.21,0,7.78,0,1.32-.8,2.94-1.39,4.32-2.06,1.83-1.38,3.95-2.57,6.05-3.48,1.5.32,2.93,1.3,4.32,1.91.44-.02,1.29-.06,1.73-.07,4.32-.1,8.69.28,12.96.9.78.12,1.82.3,2.59.45,1.39-.42,2.91-1,4.32-1.35,3.38-.89,6.9-1.44,10.37-1.82,6.58-.66,13.29-.72,19.87.04,1.39-.19,2.93-.24,4.32.05,4.95.6,9.79,2.03,14.69,2.96,1.53-1.23,3.36-2.33,5.18-3.06,3.25.89,6.34,2.57,9.5,3.73,1.68.56,3.36,1.87,5.18,1.78"/><path class="b" d="M9.18,46.04c7.77.25,15.61.28,23.33,1.41,2.29.34,4.68.81,6.91,1.44,1.38.41,2.85,1.03,4.32.97,2.56.16,5.22.36,7.78.63,1.08.11,2.38.27,3.46.41.44.14,1.3.08,1.73-.11,1.29-1.1,2.85-2.18,4.32-3.03.37-.29,1.17-.59,1.73-.47,0,0,.86.49.86.49,1.17.7,2.46,1.67,3.46,2.6.78.7,1.59,1.97,2.59,2.38,2.27,0,4.64,0,6.91,0,1.37-.69,2.85-1.57,4.32-2.04,2.18-1.3,4.42-2.92,6.91-3.53,1.42.45,2.83,1.52,4.32,1.67,3.44-.08,6.94.06,10.37.39,2.58.25,5.24.62,7.78,1.14,1.41.45,2.93-.56,4.32-.77,2.53-.63,5.19-1.08,7.78-1.42,6.85-.86,13.84-1.14,20.73-.73.78.16,1.83-.12,2.59-.28,1.09-.06,2.37.24,3.46.34,2.9.35,5.84.94,8.64,1.76,2.27.51,4.6,1.43,6.91,1.69,1.7-1.57,3.78-3.15,6.05-3.73,2.29.99,4.7,2.03,6.91,3.19.77.43,1.83,1.01,2.59,1.45.72.43,1.71,1.04,2.59.88"/><path class="b" d="M9.18,42.96c9.23.29,18.57.45,27.64,2.34,3.27.72,6.6,1.7,9.5,3.4,3.13.42,6.38.57,9.5,1.14,2.01-1.95,4.29-3.97,6.91-5.02,1.5.81,3.07,1.91,4.32,3.07.8.73,1.69,1.93,2.59,2.55h6.91c1.63-1.07,3.58-1.84,5.18-2.95,1.05-.63,2.34-1.31,3.46-1.82.76-.33,1.73-.86,2.59-.78,1.1.41,2.39.94,3.46,1.44,1.36.3,2.93.07,4.32.16,3.15.07,6.38.32,9.5.75,2.29.31,4.67.74,6.91,1.3,1.13.19,2.36-.47,3.46-.66,1.96-.47,4.06-.83,6.05-1.1,4.85-.64,9.79-.94,14.69-.99,1.98-.03,4.07-.05,6.05.08,1.09-.23,2.37-.64,3.46-.89,1.39-.27,2.92.38,4.32.45,5.34.6,10.45,2.47,15.55,4.07,1.63-1.88,3.81-3.42,6.05-4.49.86-.08,1.84.52,2.59.86,1.45.67,3,1.54,4.32,2.43,1.36.72,2.66,2.33,4.32,2.15"/><path class="b" d="M9.18,40.25c10.1.26,20.36.46,30.24,2.75,3.66.93,7.46,2.18,10.37,4.68.95.71,2.35.38,3.46.45,1.08-.03,2.39.11,3.46-.16,1.87-2.19,4.23-4.33,6.91-5.44,1.51.84,3.07,1.98,4.32,3.17.79.71,1.6,1.97,2.59,2.43h6.05c2.44-1.71,5.05-3.36,7.78-4.56,2.27-.98,2.8-1.52,5.18-.42.78.3,1.83.73,2.59,1.07,1.68.14,3.5.03,5.18.15,3.16.16,6.39.51,9.5,1.06,1.4.25,2.95.58,4.32.93.77.19,1.78.57,2.59.48,4.18-1.28,8.61-1.82,12.96-2.13,4.29-.31,8.66-.32,12.96-.26,2.02-.35,4.04-1.25,6.05-1.69,1.36-.49,2.93.35,4.32.45,5.36.63,10.54,2.5,15.55,4.43,1.05-.19,1.8-1.46,2.59-2.08,1.26-1.1,2.83-2.14,4.32-2.9,2.23.31,4.21,1.97,6.05,3.2,1.35.84,2.55,2.56,4.32,2.27"/><path class="b" d="M9.18,37.93c7.2-.09,14.43.32,21.6,1,5.25.57,10.59,1.42,15.55,3.3,2.22.76,4.19,2.22,6.05,3.6,1.92-.12,4.24.3,6.05-.27,1.63-2.05,3.8-3.82,6.05-5.14h.86c2.27,1.32,4.38,3.18,6.05,5.21,1.06.33,2.37.18,3.46.18,1.1-.54,2.37-1.24,3.46-1.82,2.21-1.19,4.57-2.34,6.91-3.25.77-.28,1.75-.78,2.59-.57,2.03.58,4.04,1.56,6.05,2.2,4.62-.03,9.3.46,13.82,1.42,1.4.3,2.95.7,4.32,1.11.42.16,1.28.38,1.73.42.43-.15,1.29-.41,1.73-.53,4.48-1.2,9.19-1.62,13.82-1.75,2.56-.06,5.22-.02,7.78.09,2.86-.82,5.73-1.95,8.64-2.65,1.62-.55,3.5.52,5.18.65,5.07.75,10.01,2.59,14.69,4.65l.86-.21c1.86-2.2,4.25-4.22,6.91-5.36,2.88,1.32,5.49,3.37,7.77,5.54.43.04,1.3.08,1.73.06"/><path class="b" d="M9.18,35.76c8.06-.12,16.17.33,24.19,1.15,3.75.43,7.56,1.02,11.23,1.92,3.49.75,6.81,2.35,9.5,4.69h6.05c1.21-1.51,2.75-3.02,4.32-4.15.72-.5,1.68-1.27,2.59-1.37,2.2,1.19,4.11,3.04,6.05,4.58,4.78-1.02,9.12-3.59,13.82-4.88,2.02.55,4.11,1.27,6.05,2.06,1.06.42,2.27,1.13,3.46,1.01,3.46.08,6.98.52,10.37,1.25,2.01.32,4.1,1.33,6.05,1.5,1.13.11,2.39-.29,3.46-.61,1.37-.35,2.92-.65,4.32-.85,4.27-.61,8.66-.69,12.96-.45,1.77.19,3.5-.98,5.18-1.41,2.53-.85,5.19-1.61,7.78-2.27,4.01,1.05,8.2,1.63,12.09,3.12,1.4.49,2.96,1.09,4.32,1.69.41.2,1.31.59,1.73.78.42.04,1.32-.05,1.73-.16,1.9-2.21,4.36-4.06,6.91-5.46,3.01,1.07,5.42,3.55,7.77,5.62.44.02,1.3-.03,1.73-.11"/><path class="b" d="M9.18,33.83c8.93-.02,17.9.33,26.78,1.34,6.83.89,14.37,1.43,19.87,6.03,2.3,0,4.69.15,6.91-.55,1.71-1.92,3.81-3.69,6.05-4.96.91,0,1.86.75,2.59,1.21.77.5,1.82,1.2,2.59,1.7,2.95-.17,5.82-1.35,8.64-2.15,1.08-.33,2.36-.73,3.46-.99.45.11,1.29.33,1.73.45,2.02.56,4.11,1.27,6.05,2.06,1.41.43,2.82,1.62,4.32,1.55,2.58.08,5.25.42,7.78.95.78.17,1.83.42,2.59.64,1.08.15,2.37.07,3.46.09,1.39-.03,2.94.08,4.32-.09,1.37-.36,2.92-.65,4.32-.84,3.7-.5,7.51-.56,11.23-.29,3.16-.97,6.31-2.23,9.5-3.09,1.67-.4,3.45-1.16,5.18-1.18,2.53.76,5.24,1.17,7.78,1.92,3.25.88,6.43,2.23,9.5,3.59.41,0,1.31,0,1.73,0,1-.27,1.8-1.44,2.59-2.04,1.56-1.32,3.4-2.57,5.18-3.56,1.95.47,3.61,2.12,5.18,3.3.77.6,1.59,1.75,2.59,1.97.43-.12,1.3-.36,1.73-.48"/><path class="b" d="M9.18,32.28c8.93-.15,17.9.31,26.78,1.23,7.03.78,14.5,1.16,20.73,4.85,3.44-.68,6.93-1.5,10.37-2.19,1.4-.89,2.83-2.1,4.32-2.85,1.2.01,2.38.92,3.46,1.37.77.42,1.78.16,2.59.02,1.7-.29,3.51-.7,5.18-1.08,1.17-.4,2.3-.32,3.46.05,1.4.33,2.95.76,4.32,1.19,2.95.94,5.92,2.14,8.64,3.61,1.58.66,3.51.34,5.18.42,4.3,0,8.66,0,12.96,0,3.98-.6,8.06-1.01,12.09-.69,3.72-1.2,7.45-2.6,11.23-3.63,1.67-.43,3.47-1.03,5.18-1.25,1.08.3,2.37.66,3.46.94,3.21.7,6.45,1.61,9.5,2.82,1.42.49,2.87,1.43,4.32,1.81.76,0,1.83,0,2.59,0,2.37-2.09,4.9-4.22,7.78-5.61,2.67.85,4.88,3.07,6.91,4.92.77-.22,1.82-.49,2.59-.68"/><path class="b" d="M9.18,30.98c12.13-.24,24.24,1.01,36.28,2.32,2.6.22,5.25.81,7.78,1.45,1.1.21,2.32.97,3.46.75,3.45-.69,6.93-1.58,10.37-2.32,1.67-.38,3.5-.69,5.18-1.03.74-.4,1.8-.88,2.59-1.18.8.15,1.77.62,2.59.54,1.39-.1,2.93-.63,4.32-.42,3.79.69,7.6,1.66,11.23,2.98,2.04.66,4.03,1.8,6.05,2.51,7.19-.06,14.42.12,21.6-.07,1.38-.13,2.93-.19,4.32-.17.79.01,1.86.15,2.59-.24,3.97-1.42,8.03-2.76,12.09-3.89,1.67-.4,3.46-1.06,5.18-1.17.77.21,1.83.51,2.59.73,3.17.82,6.45,1.56,9.5,2.77,1.42.53,2.98,1.22,4.32,1.95,1.07.18,2.38.09,3.46.11,2.87-1.81,5.5-4.2,8.64-5.6,1.57.43,3.02,1.63,4.32,2.57.77.57,1.63,1.61,2.59,1.86.77-.2,1.82-.45,2.59-.62"/><path class="b" d="M9.18,29.94c12.73-.08,25.39,1.52,38.01,2.98,1.69.17,3.5.45,5.18.61,2.59-.09,5.25-.52,7.78-1.12,5.7-1.34,11.4-3.37,17.28-3.69.45.12,1.29.11,1.73-.01,1.35.48,2.91.81,4.32,1.09,4.75.97,9.34,2.68,13.82,4.48,7.48,0,14.98,0,22.46,0,1.68-.03,3.51.08,5.18-.07,1.97-.7,4.06-1.41,6.05-2.06,2.54-.83,5.19-1.65,7.78-2.36,1.07-.29,2.37-.62,3.46-.88.38-.17,1.32-.22,1.73-.07,3.71,1.13,7.6,1.85,11.23,3.22,1.73.59,3.51,1.49,5.18,2.23,1.07,0,2.38,0,3.46,0,3.14-1.87,6.18-4.08,9.5-5.61,2.24.81,4.28,2.42,6.05,3.98,1.1.23,2.37-.32,3.46-.47"/><path class="b" d="M9.18,29.2c6.55-1.08,13.23-1.72,19.87-1.4,6.68.32,13.28,1.62,19.87,2.69,3.99.64,8.15.69,12.09-.26,4.07-.94,8.02-2.51,12.09-3.43,2.06-.73,4.01-.04,6.05.33,1.13.18,2.38-.47,3.46-.73,4.93.93,9.21,3.82,13.82,5.57,8.92,0,17.86,0,26.78,0,4.28-1.45,8.61-2.95,12.96-4.19,1.96-.45,4.02-1.35,6.05-1.32,1.39.37,2.94.82,4.32,1.21,2.58.7,5.29,1.24,7.78,2.26,1.1.41,2.4.96,3.46,1.48.32.27,1.3.58,1.73.57.76,0,1.83,0,2.59,0,1.11-.42,2.4-1.03,3.46-1.58,2.56-1.33,5.13-2.87,7.78-4.04,2.2.83,4.27,2.29,6.05,3.8,1.1.11,2.37-.34,3.46-.48"/><path class="b" d="M9.18,25.32c8.87-1.04,17.9-1.71,26.78-.47,3.76.54,7.54,1.33,11.23,2.19,3.67.83,7.44,1.8,11.23,1.69,4.2-.1,8.2-1.68,12.09-3.07,1.66-.58,3.48-1.14,5.18-1.56.8-.05,1.83.29,2.59.49.77.21,1.82.5,2.59.72,1.42-.21,2.94-.74,4.32-1.12,1.44-.07,2.95.69,4.32,1.06,3.24,1.12,6.37,2.76,9.5,4.13,1.02.47,2.36.24,3.46.29,1.38,0,2.94,0,4.32,0,4.59,0,9.23,0,13.82,0,1.77.08,3.51-.92,5.18-1.39,2.83-.97,5.76-1.94,8.64-2.77,6.24-1.78,4.98-1.71,11.23.09,3.83.95,7.73,1.92,11.23,3.8,4.4,1.26,12.17-3.73,16.41-5.35,2.17.75,4.24,2.1,6.05,3.5,1.07.42,2.36-.21,3.46-.28"/><path class="b" d="M9.18,21.77c5.75.35,11.51,1.31,17.28.98,2.57-.11,5.23-.39,7.78-.76.78-.11,1.81-.28,2.59-.36,1.09.17,2.37.4,3.46.62,3.47.7,6.97,1.62,10.37,2.64,3.06.83,6.29,2.1,9.5,1.75,3.21-.37,6.54-.57,9.5-1.99,2.53-1.03,5.15-2.09,7.78-2.85,1.14-.21,2.38.45,3.46.75,1.94.85,4.11-.33,6.05-.68,4.86.6,9.35,3.13,13.82,5.01.99.59,2.35.5,3.46.49,1.08,0,2.37,0,3.46,0,3.72,0,7.51,0,11.23,0,1.78.15,3.52-.8,5.18-1.32,2.55-.89,5.19-1.79,7.78-2.59,1.37-.42,2.93-.86,4.32-1.22,1.07-.37,2.37-.56,3.46-.11,2.28.6,4.63,1.33,6.91,1.93,1.7.39,3.56.76,5.18,1.44,1.09.39,2.35,1.03,3.46,1.37.76-.03,1.83-.09,2.59-.15,5.5-.38,10.52-2.92,15.55-4.94,2.5.64,4.83,2.19,6.91,3.68.77-.15,1.82-.33,2.59-.45"/><path class="b" d="M9.18,20.7c4.9.23,9.77,1.28,14.69,1.22,5.84,0,11.58-1.44,17.28-2.55,3.21.61,6.41,1.6,9.5,2.62,1.4.4,2.87,1.19,4.32,1.39.78-.12,1.82-.29,2.59-.4,3.99-.59,8.07-.94,12.09-1.29,2.26-.33,4.78-.15,6.91-1.02,1.35-.42,2.88-1.49,4.32-1.16.77.25,1.77.69,2.59.71,1.4-.16,2.94-.5,4.32-.76.43.1,1.3.3,1.73.42,2.61.71,5.3,1.58,7.78,2.67,1.98.79,3.96,2.01,6.05,2.5,3.72,0,7.51,0,11.23,0,1.38,0,2.94,0,4.32,0,1.39-.48,2.94-1.05,4.32-1.55,2.83-1.02,5.75-2.04,8.64-2.89,1.07-.32,2.37-.68,3.46-.95,0,0,.86-.21.86-.21l.86.22c2.58.65,5.21,1.48,7.78,2.18,1.67.48,3.56.71,5.18,1.33.76.27,1.8.73,2.59.9.76-.02,1.83-.06,2.59-.09,1.98-.09,4.09-.27,6.05-.61,4.17-.72,8.14-2.4,12.09-3.84,1.17-.06,2.41.67,3.46,1.1,1.44.68,3.01,1.57,4.32,2.48.43-.04,1.3-.13,1.73-.19"/><path class="b" d="M9.18,19.81c3.75.19,7.51.86,11.23,1.25,6.16.59,12.26-.99,18.14-2.66,1.68-.47,3.5-.94,5.18-1.36,1.11.18,2.38.6,3.46.92,2.32.68,4.63,1.71,6.91,2.48,3.13-.62,6.34-1.23,9.5-1.67,3.99-.54,8.08-.74,12.09-1.02,2.26-.25,4.73,0,6.91-.73,1.6.72,3.51-.19,5.18.33,5.13.88,9.99,2.95,14.69,5.12,1.04.44,2.36.22,3.46.27,1.98,0,4.07,0,6.05,0,1.98-.06,4.09.13,6.05-.11,1.07-.45,2.37-.94,3.46-1.35,3.11-1.18,6.31-2.33,9.5-3.27,1.07-.29,2.34-.74,3.46-.81,1.09.28,2.38.63,3.46.94,2.27.65,4.62,1.4,6.91,1.96,1.71.33,3.52.82,5.18,1.33,4.31-.22,8.71-.26,12.96-1.1,3.83-.69,7.51-2.15,11.23-3.23,3.01.88,5.96,2.23,8.64,3.85"/><path class="b" d="M9.18,19.11c3.16.23,6.38.63,9.5,1.15,1.97.14,4.07,0,6.05,0,3.26.15,6.43-.99,9.5-1.94,3.72-1.21,7.47-2.53,11.23-3.58,2.95.77,5.82,2.02,8.64,3.16,5.42-1.22,10.87-2.59,16.41-3.04,2.85-.13,5.78.45,8.64.42,1.69-.02,3.63.37,5.18-.48.83.05,1.76.64,2.59.62,2.32.21,4.7.77,6.91,1.48,2.02.65,4.1,1.48,6.05,2.32,1.08.41,2.26,1.27,3.46,1.21,2.85,0,5.79,0,8.64,0,1.68-.07,3.53.18,5.18-.17,3.36-1.51,6.85-2.91,10.37-4.04,1.67-.44,3.44-1.3,5.18-1.28,1.09.29,2.38.65,3.46.97,2.84.83,5.73,1.82,8.64,2.4.77.16,1.82.43,2.59.59.77-.05,1.82-.11,2.59-.15,5.48-.29,11.05-.43,16.41-1.7,2.89-.58,5.75-1.72,8.64-2.25,2.63.66,5.29,1.61,7.78,2.7"/></svg>