<?xml version="1.0" encoding="UTF-8"?><svg id="a" xmlns="http://www.w3.org/2000/svg" width="1920" height="2400" viewBox="0 0 192 240"><defs><style>.b{fill:none;stroke:#fff;stroke-miterlimit:10;stroke-width:.3px;}.c{stroke-width:0px;}</style></defs><rect class="c" width="192" height="240"/><path class="b" d="M10,221.31c1.05-.49,2.2-1.55,3.42-1.39,1.49.77,3.04,1.84,4.28,2.97.79.68,1.57,1.95,2.57,2.36,1.66-.07,3.5.16,5.13-.16,7.36-7.52,19.18-4.13,27.38.16,6.4-2.04,12.95-3.9,19.68-4.34,4.25-.39,8.62-.53,12.84.27,1.94-.46,3.98-1.42,5.99-1.37,3.95.94,7.93,2.07,11.98,2.47,5.17.58,10.33-.53,15.4-1.37,2.52-.4,5.15-.71,7.7-.8,2.22-.61,4.56-1.15,6.85-1.45,3.38-.51,6.92-.55,10.27.22,1.73.37,3.49,1.1,5.13,1.73,1.37.1,2.91.2,4.28.23,4.86.14,9.69-1.52,14.55-.67,3.29.29,6.35,1.7,9.41,2.81,1.69.74,3.52-.33,5.13-.8"/><path class="b" d="M10,219.57c1.04-.7,2.32-1.47,3.42-2.06,2.75.96,5.01,3.26,6.85,5.46,1.07,0,2.35,0,3.42,0,.8,0,1.85.09,2.57-.34.95-.88,2.24-1.74,3.42-2.27,6.66-2.99,14.2-.72,20.54,2.05,9.95-2.91,20.44-4.44,30.81-3.8,2.01.04,3.98-1.16,5.99-1.1,4.28,1.02,8.52,2.46,12.84,3.33,6.6,1.56,13.24-.35,19.68-1.75,2.51-.52,5.15-.89,7.7-1.12,1.92-.57,4.01-.99,5.99-1.29,3.67-.59,7.5-.53,11.12.31,1.72.33,3.43,1.22,5.13,1.57,2.52.33,5.16.58,7.7.32,2.55-.24,5.14-.91,7.7-1.11,2.84-.18,5.81.01,8.56.8,1.67.53,3.44,1.24,5.13,1.69,1.1-.06,2.37-.47,3.42-.77"/><path class="b" d="M10,217.88c1.3-.97,2.75-2.12,4.28-2.69,1.48.81,3.03,1.91,4.28,3.05.81.68,1.56,2,2.57,2.43,1.07,0,2.35,0,3.42,0,.8,0,1.85.09,2.57-.34.96-.79,2.26-1.53,3.42-1.96,5.58-2.03,11.85-.65,17.11,1.71,6.71-1.82,13.61-3.04,20.54-3.62,2.25-.17,4.59-.28,6.85-.27,1.72.16,3.48-.25,5.13-.67.77-.17,1.77-.48,2.57-.31,1.38.32,2.91.73,4.28,1.12,3.42.98,6.84,2.21,10.27,3.18,6.02,1.88,11.22,1.19,17.11-.7,4.74-1.47,9.62-2.63,14.55-3.25,3.33-.81,6.83-1.42,10.27-1.19,2.88.13,5.84.59,8.56,1.56,2.55.26,5.14.91,7.7,1.08,4.91.33,9.63-1.86,14.55-1.68,1.99,0,4.1.29,5.99.92,1.06.32,2.35.72,3.42,1.01.76-.06,1.82-.29,2.57-.47"/><path class="b" d="M10,216.24c1.26-1.16,2.8-2.3,4.28-3.18h.86c2.29,1.29,4.44,3.09,5.99,5.22,2.23.24,4.6.05,6.85.1,4.69-3.44,11.12-2.68,16.26-.7,1.59.94,3.48-.3,5.13-.56,2.52-.64,5.15-1.22,7.7-1.69,4.78-.88,9.68-1.43,14.55-1.49,1.97-.31,3.99-1.02,5.99-1.15,4.96,1.07,9.83,2.68,14.55,4.52,1.07.36,2.28,1.02,3.42,1.07,2.54,0,5.16,0,7.7,0,1.96,0,4.03,0,5.99,0,.76,0,1.81,0,2.57,0,.42-.16,1.29-.47,1.71-.64,5.51-2.12,11.21-4.04,17.11-4.61,2.53-.37,5.13-.89,7.7-.7,1.97.02,4.04.3,5.99.59,1.67.08,3.48.23,5.13.46,2.83.47,5.68,1.39,8.56,1.52,4.93.09,9.59-2.36,14.55-2.17,1.69,0,3.51.3,5.13.75,1.35.34,2.88.94,4.28.5"/><path class="b" d="M10,214.09c.54-.1,1.35-.7,1.71-1.1,1-.86,2.29-1.77,3.42-2.44,2.7,1.19,4.87,3.44,6.85,5.57,2.54,0,5.16,0,7.7,0,2-.49,3.86-1.22,5.99-1.07,1.71.04,3.52.39,5.13.93,1.69.36,3.53.11,5.13-.49,4.47-1.32,9.08-2.34,13.69-3,2.24-.36,4.6-.46,6.85-.75,1.66-.43,3.46-.84,5.13-1.18,2.89.08,5.78,1.14,8.56,1.88,2.91.57,5.85,1.41,8.56,2.62,1.04.47,2.23,1.23,3.42,1.07,1.96,0,4.03,0,5.99,0,5.12,0,10.28,0,15.4,0,1.18,0,2.35-.87,3.42-1.26,1.64-.71,3.44-1.42,5.13-2,3.57-1.24,7.35-2.11,11.12-2.34,1.37-.01,2.9.14,4.28.08,1.37,0,2.91.18,4.28.08,2.25-.17,4.6-.32,6.85-.02,3.77.33,7.34,2.04,11.12,2.28,3.53.19,6.87-1.4,10.27-2.09,1.65-.52,3.45.08,5.13-.02.75-.02,1.82-.16,2.57-.24,1.37.25,2.9.65,4.28.88"/><path class="b" d="M10,211.64l.86.37c.98-1.03,2.25-2.15,3.42-2.96.38-.33,1.2-.73,1.71-.73,2.52,1.45,4.76,3.5,6.85,5.5,4.55,0,9.14,0,13.69,0,1.96,0,4.03,0,5.99,0,1.08-.31,2.34-.73,3.42-1.04,4.46-1.3,9.08-2.28,13.69-2.82,2.22-.66,4.56-1.33,6.85-1.72,1.96.39,4.04.82,5.99,1.27,2.55.2,5.2.45,7.7,1,3.24.69,6.45,1.83,9.41,3.31,8.26,0,16.55,0,24.82,0,1.2.17,2.39-.64,3.42-1.14,1.63-.79,3.44-1.57,5.13-2.22,2.99-1.17,6.24-1.8,9.41-2.22,1.96.09,4.02.45,5.99.49,2.83.12,5.74-.08,8.56-.32,1.37-.04,2.92-.46,4.28-.17,2.59.52,5.14,1.53,7.7,2.15,4.09,1.22,8.12-.63,11.98-1.8,1.64-.61,3.45.32,5.13.28,1.07.05,2.37-.07,3.42-.28.75-.14,1.81-.46,2.57-.19"/><path class="b" d="M10,209.23l.86.37c.58-.07,1.36-.72,1.71-1.16.97-.91,2.23-1.86,3.42-2.46,2.85,1.24,5.34,3.44,7.7,5.43,5.67.34,11.43.02,17.11.13,2.58-.52,5.12-1.59,7.7-2.14,3.19-.61,6.3-1.75,9.41-2.64,1.07-.26,2.31-.7,3.42-.72,1.68.36,3.46.84,5.13,1.19,4.58.04,9.23.35,13.69,1.43,1.7.41,3.51.98,5.13,1.62,1.36.5,2.76,1.46,4.28,1.26,8.26,0,16.55,0,24.82,0,1.2.1,2.43-.07,3.42-.8,1.34-.73,2.88-1.47,4.28-2.08,1.87-.87,4-1.39,5.99-1.9,1.94-.48,4.01-1,5.99-.49,4.23.64,8.58.72,12.84.33,1.98-.09,4.03-.51,5.99-.73,1.08.27,2.37.66,3.42,1.02,6.79,2.58,8.77,2.1,15.4-.52,1.34-.7,2.9.22,4.28.31,1.95-.14,4.04-.19,5.99-.33"/><path class="b" d="M10,206.9c.41.21,1.25.47,1.71.5,1.39-1.44,3.12-3.16,5.13-3.6,2.93,1.61,5.77,3.57,8.56,5.41,4.83.1,9.71,0,14.55.04,2.03-.58,4.03-1.58,5.99-2.34,2.49-.98,5.12-1.85,7.7-2.56.77-.21,1.79-.49,2.57-.63,1.08.26,2.35.58,3.42.87.77.2,1.76.57,2.57.45,7.49-.02,15.21.44,22.25,3.23.77.3,1.77.79,2.57.99.76,0,1.8,0,2.57,0,1.96,0,4.03,0,5.99,0,6.26,0,12.56,0,18.83,0,.76,0,1.82.04,2.57-.13.41-.26,1.28-.75,1.71-.99,1.89-1.01,3.92-2.07,5.99-2.67,2.21-.7,4.56-1.33,6.85-1.75,1.95.33,4.02.7,5.99.91,5.1.52,10.39.5,15.4-.64.39-.13,1.3-.31,1.71-.36.76.21,1.82.55,2.57.81,2.47.86,5.04,1.99,7.7,2,1.36-.31,2.89-.7,4.28-.91,1.4-.46,2.9-1.15,4.28-1.66,1.12-.24,2.32.54,3.42.61,1.66-.17,3.47-.35,5.13-.5"/><path class="b" d="M10,204.64c.43.18,1.29.54,1.71.72,1.55-1.41,3.23-2.93,5.13-3.84,1.19.17,2.36,1.04,3.42,1.55,1.93,1.04,3.96,2.17,5.99,2.99,2.39,1.07,5.15,1.04,7.7.78,2.61-.54,5.19-1.54,7.7-2.4,3.08-1.08,6.25-2.09,9.41-2.89,1.41-.2,2.92.56,4.28.86,1.08.41,2.28.63,3.42.47,1.37-.05,2.91-.05,4.28,0,4.85.22,9.79.53,14.55,1.57,2.61.57,5.25,1.44,7.7,2.51,5.98,0,11.99,0,17.97,0,2.83,0,5.73,0,8.56,0,1.66-.07,3.5.18,5.13-.17,2.41-1.45,5-2.86,7.7-3.67,2.21-.61,4.54-1.58,6.85-1.62,3.65.75,7.4,1.38,11.12,1.5,2.83.07,5.76.02,8.56-.44,1.7-.19,3.43-1.11,5.13-1.11,2.56.76,5.08,1.98,7.7,2.51,2.47-.79,5.15-.93,7.7-1.25,1.06-.44,2.33-1.03,3.42-1.37.76.27,1.8.64,2.57.9,1.38.21,2.91-.3,4.28-.44"/><path class="b" d="M10,202.43c.43.18,1.29.55,1.71.73.94-.35,1.78-1.44,2.57-2.02.99-.75,2.23-1.59,3.42-1.97,12.82,6.58,15.37,3.74,28.24.36.44-.12,1.26-.31,1.71-.38.77.2,1.8.48,2.57.7,1.38.28,2.85,1.23,4.28,1,6.56-.5,13.18.29,19.68,1.16,2.28.37,4.64.92,6.85,1.64,1.09.29,2.28,1.01,3.42,1.02,3.65-.64,7.44-.68,11.12-.4,2.81.41,5.72.44,8.56.4,2.54,0,5.16,0,7.7,0,1.07,0,2.35,0,3.42,0,.47.09,1.32-.13,1.71-.42,2.16-1.24,4.47-2.51,6.85-3.28,2.22-.7,4.55-1.46,6.85-1.83.75.16,1.81.38,2.57.54,7.89,1.71,16.26,2.21,23.96-.57,1.39.42,2.91.99,4.28,1.49,1.05.44,2.31.82,3.42.35,1.64-.37,3.45-.59,5.13-.65,1.38-.1,3.01.23,4.28-.47.42-.18,1.28-.52,1.71-.68.46-.04,1.31.17,1.71.39.42.17,1.29.52,1.71.68.77.06,1.81-.11,2.57-.24"/><path class="b" d="M10,200.26c.43.18,1.29.56,1.71.75l.86-.23c1.4-1.56,3.23-2.88,5.13-3.73.86-.24,1.79.33,2.57.62,1.63.64,3.42,1.26,5.13,1.62,3.98.88,8.1.1,11.98-.88,1.38-.34,2.9-.73,4.28-1.08.77-.19,1.77-.52,2.57-.39,1.39.35,2.92.8,4.28,1.26.77.25,1.74.7,2.57.67,5.39-.69,10.89-.25,16.26.44,4.6.53,9.29,1.07,13.69,2.61,5.92-1.01,12.1-.78,17.97.43,3.11.08,6.3.01,9.41.03,2.25,0,4.6,0,6.85,0,2-.88,3.96-2.13,5.99-2.96,2.7-1.19,5.69-1.88,8.56-2.57,2.54.49,5.15,1.13,7.7,1.53,4.5.74,9.17.95,13.69.3,2.31-.35,4.62-1.17,6.85-1.84,1.69.52,3.47,1.21,5.13,1.78,2.49-.62,5.13-.97,7.7-.94,1.38,0,2.91.17,4.28.2.76-.32,1.8-.74,2.57-1.02,1.42.25,2.81,1.37,4.28,1.25"/><path class="b" d="M10,198.14c.76.31,1.71.95,2.57.7,1.16-1.34,2.7-2.57,4.28-3.38,1.07-.6,2.25-1.09,3.42-.45,3,1.04,6.23,1.65,9.41,1.42,3.46-.23,6.9-1.1,10.27-1.84,2.62.4,5.22,1.36,7.7,2.28,2.25.03,4.58-.55,6.85-.49,3.41-.08,6.89.24,10.27.7,4.26.66,8.65.99,12.84,2.07,3.68-.37,7.42-.72,11.12-.45,3.45.1,6.89.82,10.27,1.42,5.12,0,10.28,0,15.4,0,4.48-2.67,9.44-4.52,14.55-5.53,3.4.66,6.83,1.54,10.27,1.98,3.66.5,7.45.56,11.12.11,2.92-.27,5.7-1.54,8.56-2.06,1.38.38,2.85,1.13,4.28,1.3,3.04-.78,6.29-.98,9.41-.79,1.37.09,2.91.29,4.28.43.75-.31,1.8-.71,2.57-.98.78.22,1.81.62,2.57.9"/><path class="b" d="M10,196.05c.75.33,1.71.93,2.57.84,1.75-2.12,4.24-3.67,6.85-4.5,1.11-.18,2.34.41,3.42.57,1.36.27,2.89.43,4.28.44,3.15.03,6.33-.56,9.41-1.16,1.99.38,4.07.96,5.99,1.6,1.09.34,2.31.92,3.42,1.17,2.22-.45,4.58-.74,6.85-.83,4.87-.21,9.76.5,14.55,1.3,2.24.37,4.6.66,6.85,1,4.25-.43,8.57-.71,12.84-.38,2.26.16,4.62.45,6.85.88,1.39.18,2.87.88,4.28.82,4.83,0,9.71,0,14.55,0,3.33-1.62,6.75-3.22,10.27-4.39,1.06-.28,2.35-.59,3.42-.83.75-.19,1.81-.43,2.57-.13,10.9,2.62,19.12,3.56,29.95-.26,1.1.25,2.36.73,3.42,1.09,2.52-.47,5.13-.89,7.7-.86,2.85-.04,5.74.39,8.56.76,1.08-.25,2.29-1.07,3.42-.76"/><path class="b" d="M10,194.02c.75.34,1.73.92,2.57.98,2.09-2.65,5.29-4.3,8.56-4.98,1.67.1,3.45.49,5.13.46,2.27.1,4.59-.4,6.85-.47,3.2.54,6.41,1.43,9.41,2.64,1.04.66,2.32.32,3.42.06,1.07-.2,2.34-.4,3.42-.52,3.68-.4,7.46-.27,11.12.19,3.14.36,6.28,1.12,9.41,1.51,4.82-.34,9.71-.71,14.55-.36,2.56.18,5.19.53,7.7,1.06,1.39.21,2.87.92,4.28.92,4.26,0,8.58,0,12.84,0,.42,0,1.29,0,1.71,0,1.36-.68,2.87-1.47,4.28-2.05,3.05-1.21,6.2-2.45,9.41-3.16,1.97-.71,4.04.12,5.99.5,2.52.54,5.14,1.06,7.7,1.38,6.91.87,13.99.03,20.54-2.33,1.1.18,2.3.81,3.42.88,2.19-.61,4.58-.95,6.85-.68,2.26.09,4.61-.22,6.85.2,1.95.13,4.1.97,5.99.18"/><path class="b" d="M10,192.04c.75.36,1.76.91,2.57,1.15,6.21-7.73,18.23-5.95,26.53-3.04.78.29,1.81.72,2.57,1.06,1.4.14,2.89-.58,4.28-.75,4.49-.86,9.16-.9,13.69-.33,1.68.21,3.47.51,5.13.83,1.36.38,2.88.36,4.28.2,7.71-.47,15.61-.57,23.1,1.59,1.88.77,4.01.44,5.99.5,3.11,0,6.3,0,9.41,0,.83.1,1.88-.21,2.57-.67,1.05-.53,2.33-1.1,3.42-1.53,3.61-1.36,7.35-2.6,11.12-3.41,3.42.54,6.83,1.53,10.27,2.01,4.51.78,9.15.75,13.69.28,3.19-.29,6.36-1.19,9.41-2.13,1.11-.33,2.31.51,3.42.45,1.06-.24,2.35-.5,3.42-.66,3.38.55,6.87.65,10.27.2,1.07-.18,2.36.14,3.42.25,1.06.16,2.37.27,3.42.5"/><path class="b" d="M10,190.11c.74.36,1.7,1,2.57.84.9-.44,1.76-1.5,2.57-2.08,1-.72,2.26-1.39,3.42-1.81,6.11-2.08,12.89-.94,18.83,1.21,4.08,1.75,2.72,1.34,6.85.34,5.02-1.2,10.29-1.37,15.4-.69,1.68.22,3.48.53,5.13.86,2.24-.22,4.59-.31,6.85-.35,3.98-.1,8.04-.12,11.98.56,1.68.26,3.49.63,5.13,1.07,1.09.25,2.3.82,3.42.89,4.55,0,9.14,0,13.69,0,.85-.07,1.81-.72,2.57-1.07,1.05-.5,2.33-1.03,3.42-1.43,3.61-1.26,7.36-2.4,11.12-3.11,3.7.65,7.4,1.64,11.12,2.15,4.51.68,9.16.63,13.69.11,3.48-.34,6.9-1.35,10.27-2.22.39.12,1.3.33,1.71.43.75-.15,1.81-.34,2.57-.46,1.94.33,4.03.46,5.99.64,3.12.21,6.33-.13,9.41-.61,1.37.18,2.92.32,4.28.59"/><path class="b" d="M10,188.24c.95.67,2.33.36,3.42.42,6.73-6.78,17.98-4.64,25.67-.69,9.35-3.17,15.24-3.14,24.82-1.76,4.82-.32,9.73-.41,14.55-.05,3.79.34,7.49,1.49,11.12,2.5,4.55,0,9.14,0,13.69,0,3.31-1.54,6.71-3.06,10.27-3.95,2.23-.59,4.57-1.23,6.85-1.6,4.56.74,9.1,1.86,13.69,2.38,3.96.42,8.03.35,11.98-.15,2.56-.32,5.2-.8,7.7-1.44,1.07-.25,2.33-.68,3.42-.77.41.08,1.3.04,1.71-.07,2.25.19,4.58.74,6.85.81,2.83.16,5.74.24,8.56-.13,2.55-.27,5.16-1.04,7.7-.33"/><path class="b" d="M10,186.38h4.28c4.47-4.38,11.46-4.23,17.11-2.67,1.41.39,2.95.95,4.28,1.57.76.34,1.73.98,2.57,1.1,5.43-2.14,11.25-3.48,17.11-3.3,2.86-.08,5.74.76,8.56.59,4.83-.2,9.75-.25,14.55.43,1.69.31,3.49.75,5.13,1.26,1.09.28,2.29.95,3.42,1.02,2.83,0,5.73,0,8.56,0,1.66-.06,3.49.15,5.13-.14,2.92-1.68,6.18-2.85,9.41-3.75,1.36-.38,2.9-.75,4.28-1.05,1.07-.19,2.33-.64,3.42-.49,4.82.88,9.67,1.89,14.55,2.43,2.82.27,5.74.34,8.56.12,1.68-.24,3.46-.75,5.13-1.04,1.66-.32,3.48-.59,5.13-.94,1.37-.24,2.88-.74,4.28-.72,3.1.48,6.27,1.13,9.41,1.25,3.41.14,6.89.03,10.27-.47,2.25-.18,4.6-1.13,6.85-.64"/><path class="b" d="M10,184.09h5.13c4.88-3.77,11.59-3.42,17.11-1.35,1.11.36,2.27,1.14,3.42,1.35,1.08,0,2.35,0,3.42,0,.81-.11,1.8-.56,2.57-.83,6.55-2.41,13.66-2.83,20.54-1.95,6.58-.29,13.44-.24,19.68,2.13,1.82.99,4,.57,5.99.65,2.83,0,5.73,0,8.56,0,.5.02,1.32-.3,1.71-.6,1.04-.56,2.33-1.16,3.42-1.61,3.29-1.33,6.8-2.26,10.27-2.97.42-.09,1.29-.26,1.71-.34.77.03,1.81.27,2.57.42,1.37.27,2.91.57,4.28.84,3.66.69,7.4,1.36,11.12,1.62,2.02.32,4.05-.28,5.99-.76,3.65-.85,7.41-1.57,11.12-2.08,1.68-.22,3.48.63,5.13-.03,2.31.12,4.55,1.29,6.85,1.51,4.25.45,8.61.19,12.84-.37,2.84-.32,5.71-1.1,8.56-1.26"/><path class="b" d="M10,181.8h6.85c4.6-2.93,10.64-2.21,15.4-.06,1.96.14,4.03.03,5.99.06.77,0,1.8,0,2.57,0,.45-.17,1.26-.49,1.71-.65,4.37-1.56,9.05-2.4,13.69-2.43,1.67-.01,3.47.08,5.13.23,2.25-.08,4.6-.11,6.85.03,2.57.16,5.21.61,7.7,1.25,2.22.61,4.53,1.47,6.85,1.56,3.4,0,6.87,0,10.27,0,1.48-.28,2.86-1.41,4.28-1.91,2.18-.95,4.55-1.74,6.85-2.36,1.94-.5,4-1.02,5.99-1.28,1.07.22,2.35.5,3.42.72,3.1.65,6.28,1.32,9.41,1.83,1.65.18,3.48.73,5.13.44,3.68-.85,7.41-1.74,11.12-2.45,1.06-.18,2.34-.52,3.42-.47,1.66.28,3.47.57,5.13.81,1.99-.05,4.01-1.29,5.99-.58,2.56.61,5.18,1.38,7.7,2.15,6.92.27,13.73-1.51,20.54-2.47"/><path class="b" d="M10,179.52c3.11,0,6.3,0,9.41,0,.81.09,1.78-.3,2.57-.42,1.07-.17,2.34-.2,3.42-.1.78.07,1.81.26,2.57.45,2.53.15,5.16.03,7.7.06,1.96,0,4.03,0,5.99,0,1.36-.48,2.88-.99,4.28-1.36,4.44-1.23,9.1-1.62,13.69-1.47,2.83-.1,5.75-.04,8.56.33,2.87.37,5.69,1.33,8.56,1.69,1.08.2,2.36.47,3.42.73,1.07.15,2.35.07,3.42.09,2.24-.1,4.64.24,6.85-.19.74-.43,1.79-.97,2.57-1.34,4.06-1.88,8.45-3.13,12.84-3.99,1.4-.09,2.91.49,4.28.73,2.25.5,4.59,1.03,6.85,1.49,1.66.31,3.45.74,5.13.87,1.07-.24,2.35-.52,3.42-.76,3.68-.81,7.42-1.66,11.12-2.35,2.27.33,4.6.91,6.85,1.35.78.13,1.82-.2,2.57-.37,1.36-.33,2.91-.67,4.28-.97,1.4.07,2.92.57,4.28.89,2.84.67,5.69,1.74,8.56,2.29,6.33-.57,12.54-2.23,18.83-3.11"/><path class="b" d="M10,176.34c1.48,1.23,3.37.84,5.13.89,2.54,0,5.16,0,7.7,0,4.26,0,8.57,0,12.84,0,1.38,0,2.9,0,4.28,0,.79,0,1.83.07,2.57-.25,6.8-2.43,14.24-2.87,21.39-2.33,2.29.17,4.62.7,6.85,1.22,2.57.27,5.16.95,7.7,1.36,2.54,0,5.16,0,7.7,0,1.5-.17,2.86-1.37,4.28-1.86,2.19-.95,4.55-1.77,6.85-2.43,1.65-.47,3.45-.91,5.13-1.25,1.1-.06,2.35.36,3.42.57,3.69.83,7.42,1.77,11.12,2.52,3.43-.47,6.87-1.4,10.27-2.06,1.66-.35,3.46-.73,5.13-1.04,2.86.48,5.71,1.45,8.56,1.92,2.53-.64,5.15-1.33,7.7-1.87,1.1-.03,2.36.38,3.42.6,3.71.87,7.41,2.03,11.12,2.88,1.06.35,2.36-.16,3.42-.32,1.37-.29,2.91-.64,4.28-.95,3.66-.79,7.41-1.53,11.12-2.04"/><path class="b" d="M10,173.2c1.48.35,2.82,1.44,4.28,1.74,3.69,0,7.44,0,11.12,0,3.11,0,6.3,0,9.41,0,2.28-.04,4.7.28,6.85-.67,6.33-1.93,13.11-2.32,19.68-1.73,1.98.19,4.06.55,5.99,1.03,2.56.36,5.18.84,7.7,1.38,2.54,0,5.16,0,7.7,0,.52.09,1.31-.21,1.71-.52.75-.41,1.79-.91,2.57-1.25,2.19-.95,4.55-1.76,6.85-2.43,1.94-.49,3.99-1.22,5.99-1.34,1.07.22,2.35.5,3.42.74,3.12.71,6.3,1.54,9.41,2.27,1.69.03,3.47-.56,5.13-.81,2.54-.49,5.17-1.02,7.7-1.54,1.07-.21,2.35-.49,3.42-.67,1.98.39,4.05.89,5.99,1.45,1.07.27,2.31.82,3.42.86,2.53-.69,5.15-1.42,7.7-2.02,1.67-.6,3.48.15,5.13.48,2.55.6,5.16,1.31,7.7,1.95,1.94.46,4,.99,5.99,1.18,1.66-.42,3.47-.91,5.13-1.33,3.92-1,7.97-1.75,11.98-2.27"/><path class="b" d="M10,170.27c1.4.31,2.93.78,4.28,1.26,1.09.34,2.27,1.05,3.42,1.13,4.55,0,9.14,0,13.69,0,2.24-.12,4.67.31,6.85-.31,4.17-1.12,8.51-1.94,12.84-2.13,4.59-.23,9.21.31,13.69,1.26,1.97.29,4.04.68,5.99,1.1,1.37.17,2.91.06,4.28.09,1.67,0,3.47,0,5.13,0,2.45-1.29,5.06-2.48,7.7-3.31,2.78-.91,5.69-1.68,8.56-2.27,2.84.56,5.75,1.23,8.56,1.94,1.67.3,3.43,1.17,5.13,1.04,4.85-.8,9.73-1.66,14.55-2.63.41-.09,1.29-.25,1.71-.32.41.08,1.3.26,1.71.36,1.38.31,2.92.71,4.28,1.12,1.34.28,2.94,1.31,4.28,1.08,2.52-.75,5.14-1.52,7.7-2.15.4-.1,1.3-.31,1.71-.4.77.04,1.82.29,2.57.46,1.96.43,4.04.94,5.99,1.42,3.37.83,6.81,1.68,10.27,2.02,2.29-.38,4.57-1.32,6.85-1.8,3.36-.78,6.84-1.37,10.27-1.77"/><path class="b" d="M10,167.74c4.37.2,8.58,1.64,12.84,2.51,3.38.26,6.88.11,10.27.07,3.4-.53,6.85-1.21,10.27-1.62,4.24-.54,8.58-.84,12.84-.26,3.71.53,7.43,1.31,11.12,1.93,1.67,0,3.47,0,5.13,0,1.67-.05,3.48.13,5.13-.12.43-.26,1.27-.76,1.71-.99,4.25-2.22,9.05-3.29,13.69-4.34,1.4-.1,2.91.46,4.28.69,2.55.56,5.18,1.2,7.7,1.86,1.05.41,2.35.18,3.42,0,1.07-.15,2.35-.33,3.42-.49,4.28-.61,8.59-1.35,12.84-2.17,2.28.42,4.64,1.02,6.85,1.74,1.36.32,2.88,1.51,4.28.84,2.52-.79,5.14-1.58,7.7-2.21.4-.1,1.3-.31,1.71-.41.75.16,1.81.39,2.57.56,1.67.37,3.47.79,5.13,1.18,3.93.93,7.94,1.86,11.98,2.14,2-.33,4.01-1.2,5.99-1.63,3.64-.87,7.4-1.46,11.12-1.83"/><path class="b" d="M10,165.52c5.76-.69,11.42,1.04,17.11,1.5,5.7.46,11.43-.4,17.11-.69,3.98-.26,8.05-.33,11.98.51,2.23.51,4.57.96,6.85,1.24,3.69,0,7.44,0,11.12,0,1.43-.54,2.85-1.52,4.28-2.09,2.16-.99,4.53-1.74,6.85-2.28,1.94-.36,4.01-1.19,5.99-1.06,4,.74,8.01,1.78,11.98,2.65,4.55-.53,9.16-.99,13.69-1.64,1.67-.24,3.47-.54,5.13-.84,1.12-.32,2.3-.31,3.42.03,12.65,3.01,3.83,3.47,17.11.02.4-.11,1.3-.3,1.71-.38.75.16,1.81.39,2.57.56,1.96.43,4.03.9,5.99,1.34,3.93.88,7.95,1.7,11.98,1.85,5.5-1.93,11.32-2.88,17.11-3.37"/><path class="b" d="M10,163.7c7.87-2.21,15.98.44,23.96.45,5.97.24,12.03-.29,17.97.43,2,.2,4,1.06,5.99,1.22,4.55,0,9.14,0,13.69,0,4.92-3,10.61-4.62,16.26-5.54,3.14.44,6.31,1.23,9.41,1.87.76.17,1.81.41,2.57.58.77,0,1.81-.11,2.57-.18,2.25-.19,4.6-.38,6.85-.56,4.86-.32,9.74-.97,14.55-1.74,3.2.53,6.46,1.36,9.41,2.74,3.39-.96,6.8-2.12,10.27-2.8,3.98.83,7.98,1.83,11.98,2.57,1.94.37,4.02.7,5.99.9,1.08.07,2.4.36,3.42-.12,5.51-1.84,11.34-2.6,17.11-3"/><path class="b" d="M10,162.46c6.91-3.47,14.88-2.01,22.25-1.25,6.53.83,13.22.69,19.68,1.93,1.34.45,2.89.37,4.28.37,1.96,0,4.03,0,5.99,0,1.96,0,4.03,0,5.99,0,.88-.03,1.81-.73,2.57-1.11,4.54-2.26,9.56-3.66,14.55-4.49,3.14.41,6.3,1.19,9.41,1.74,1.93.58,4.02.25,5.99.14,2.54-.15,5.16-.27,7.7-.39,5.14-.22,10.34-.47,15.4-1.45,3.24.1,6.46,1.27,9.41,2.53,3.06-1.04,6.24-2.01,9.41-2.64,3.7.76,7.41,1.74,11.12,2.41,1.95.33,4.02.69,5.99.91,1.07.08,2.37.39,3.42.05,6.06-2.02,12.47-2.77,18.83-3.08"/><path class="b" d="M10,161.22c1.26.2,2.36-.8,3.42-1.29,1.86-.88,3.97-1.44,5.99-1.75,4.54-.7,9.18-.17,13.69.49,4.26.64,8.58,1.29,12.84,1.97,2.83.68,5.67.62,8.56.58,3.69,0,7.44,0,11.12,0,3.3-1.58,6.69-3.19,10.27-4.06,2.51-.59,5.12-1.4,7.7-1.54,2.83.45,5.72,1.04,8.56,1.49,1.94.35,4.03-.12,5.99-.11,3.11-.13,6.3-.18,9.41-.21,4.26-.06,8.59-.02,12.84-.48,1.67-.17,3.47-.5,5.13-.76,2.6.44,5.26,1.16,7.7,2.17,2.83-.65,5.67-1.68,8.56-2.12,3.69.74,7.41,1.68,11.12,2.32,1.66.28,3.47.52,5.13.77.76.1,1.8.22,2.57.29.43-.11,1.29-.35,1.71-.48,6.36-1.96,13.05-2.6,19.68-2.8"/><path class="b" d="M10,158.88c2.13-.9,4.54-1.31,6.85-1.35,4.09-1.48,8.5-2.1,12.84-1.67,5.2.49,10.35,1.75,15.4,3.03,3.4.13,6.87.02,10.27.05,2.54-.03,5.17.07,7.7-.05,4.24-2.33,8.96-3.86,13.69-4.81,1.37-.26,2.89-.58,4.28-.73,2.55.26,5.17.66,7.7,1.04,3.11.03,6.29-.42,9.41-.37,6.84-.12,13.7.31,20.54.17,2.85-.06,5.74-.52,8.56-.89,2.01.25,4.08.84,5.99,1.5.79.07,1.81-.28,2.57-.46,1.36-.34,2.9-.66,4.28-.92,4.01.42,7.98,1.62,11.98,2.21,1.95.33,4.03.55,5.99.83,2.85-.43,5.69-1.47,8.56-1.93,5.05-.98,10.27-1.31,15.4-1.13"/><path class="b" d="M10,156.29c4.16-2.16,9.11-2.39,13.69-1.85,2.82-.29,5.72-.69,8.56-.3,2.28.24,4.63.75,6.85,1.36,1.39.32,2.86,1.01,4.28,1.16,3.69,0,7.44,0,11.12,0,1.96-.07,4.05.16,5.99-.13.75-.41,1.78-.92,2.57-1.26,3.54-1.55,7.33-2.68,11.12-3.43,1.37-.26,2.9-.51,4.28-.7,2.25.07,4.6.37,6.85.55,3.68-.28,7.42-.66,11.12-.62,9.98-.14,19.98,1.19,29.95.42,1.08-.08,2.36-.27,3.42-.44.76.14,1.82.37,2.57.57,1.65.69,3.46-.17,5.13-.38,1.97-.17,4.04.55,5.99.79,3.39.61,6.85,1.32,10.27,1.75,2,.48,4.04-.35,5.99-.73,2.8-.63,5.71-1.19,8.56-1.59,4.55-.83,9.09.06,13.69-.1"/><path class="b" d="M10,152.2c.44.23,1.3.73,1.71.99,7.5-3.52,16.16-2.3,23.96-.51,2.53.57,5.14,1.22,7.7,1.63,2.53.13,5.16.02,7.7.06,3.09.13,6.41-.62,9.41-1.35,3.27-1.44,6.78-2.48,10.27-3.22,1.94-.42,4.02-.73,5.99-.96,1.38,0,2.9.21,4.28.27,1.38-.01,2.9-.36,4.28-.32,2.24.2,4.59.34,6.85.39,5.98.11,12-.24,17.97-.48,5.12.22,10.28.51,15.4.62,2.26.07,4.62-.1,6.85-.49.76.09,1.82.25,2.57,0,5.4.86,10.85,1.71,16.26,2.53,5.43-.61,10.81-2.01,16.26-2.58,4.83.32,9.7.71,14.55.55"/><path class="b" d="M10,148.41c1.42.41,2.9,1.12,4.28,1.64,6.14-2.71,13.14-2.53,19.68-1.81,5.68.69,11.36,2.02,17.11,1.8,4.29-.16,8.6-.79,12.84-1.42,3.1-.64,6.25-1.51,9.41-1.83,3.11-.51,6.29-.06,9.41-.1,4.26-.06,8.57-.28,12.84-.07,4.26.2,8.58-.23,12.84.04,3.69-.01,7.44-.27,11.12-.23,3.4,0,6.88.73,10.27.47.76-.14,1.79-.43,2.57-.26.75.29,1.81.07,2.57-.06,1.72-.13,3.48.73,5.13,1.1,2.2.59,4.56,1,6.85.88,2.27-.08,4.62-.48,6.85-.87,2.83-.31,5.73-.78,8.56-1.13,6.53.61,13.12,1.12,19.68.8"/><path class="b" d="M10,145.22c1.39.29,2.92.69,4.28,1.13.46.14,1.27.45,1.71.61.48-.03,1.28-.25,1.71-.44,4.91-1.67,10.25-1.89,15.4-1.81,6.85.16,13.67,1.55,20.54,1.2,3.99-.14,8.02-.53,11.98-1.01,2.83-.28,5.72-.97,8.56-.5,6.28-.4,12.57.64,18.83.73,3.68-.33,7.43-.73,11.12-.88,3.97.02,8.01-.07,11.98.04,2.25-.04,4.59.05,6.85-.04,1.37-.09,2.91-.14,4.28.06,1.08-.1,2.36-.03,3.42.23,1.65.27,3.48.18,5.13.03.76-.08,1.82-.26,2.57-.42.41.08,1.3.25,1.71.35,2.5.53,5.14.87,7.7.68,2.85-.1,5.72-.73,8.56-.95,1.38-.14,2.91.29,4.28.41,2.24.29,4.59.57,6.85.76,4.82.41,9.72.38,14.55.1"/><path class="b" d="M10,142.38c2.57.41,5.21.97,7.7,1.75,3.6-1.15,7.33-2.01,11.12-2.21,1.67.15,3.46.22,5.13.21,2.25,0,4.6-.18,6.85-.27,1.96-.02,4.03.19,5.99.27,5.41.33,10.86.19,16.26-.25,2.26.07,4.6.39,6.85.61,1.96-.05,4.03-.2,5.99-.1,3.42.1,6.88.59,10.27.99,3.71-.33,7.43-1.02,11.12-1.48,5.96.65,12,1.14,17.97.33,3.67-.62,7.43.23,11.12-.07,1.07-.05,2.36-.15,3.42-.26,2.24.23,4.58.59,6.85.53,1.98.07,4.03-.8,5.99-.51,2.82.39,5.74-.14,8.56.17,4.87.26,9.7,1.27,14.55,1.71,5.39.56,10.86.42,16.26,0"/><path class="b" d="M10,140.02c1.68.13,3.49.25,5.13.58,1.39.15,2.89.94,4.28.63,1.66-.49,3.45-.97,5.13-1.35,1.1-.36,2.32-.31,3.42-.03,8.2,1.49,16.56.37,24.82.29,3.69-.04,7.44.14,11.12.41,2.26.33,4.59.05,6.85-.06,2.25-.07,4.61.08,6.85.37,1.67.14,3.45.78,5.13.5,3.44-.35,6.84-1.39,10.27-1.77,2.83.5,5.72,1.13,8.56,1.55,3.37.51,6.87.72,10.27.33,3.16-.37,6.3-1.24,9.41-1.83,1.67.08,3.46.46,5.13.49,2.26.1,4.62-.13,6.85-.47,2.82.39,5.72.7,8.56.33,2.54.02,5.17.27,7.7.52,5.72.5,11.4,1.64,17.11,2.15,5.12.45,10.3.11,15.4-.37"/><path class="b" d="M10,137.83c3.14.08,6.31.53,9.41.95,1.95-.54,4.01-1.07,5.99-1.49.78.13,1.8.29,2.57.46,7.85,1.88,15.97,1.47,23.96,1.18,2.54-.06,5.16-.06,7.7.04,1.97.05,4.04.34,5.99-.03,3.97-.46,8.07-.31,11.98.58,3.16-.27,6.32-1.09,9.41-1.78.77-.17,1.78-.5,2.57-.3,1.38.33,2.91.73,4.28,1.11,3.68.99,7.37,2.21,11.12,2.87,6.52,1.43,12-1.91,17.97-3.82,1.65-.65,3.45.39,5.13.45,2.55.24,5.2-.12,7.7-.61,1.08-.13,2.35.26,3.42.33,1.67.13,3.48.08,5.13.37,5.99.96,11.99,2.07,17.97,3.05,6.55-.24,13.15-1,19.68-1.61"/><path class="b" d="M10,135.79c1.96.07,4.03.17,5.99.34,1.09.03,2.35.42,3.42.17,1.07-.28,2.34-.59,3.42-.84,1.07-.3,2.33-.54,3.42-.21,4.24.88,8.51,1.95,12.84,2.27,5.68.43,11.42.07,17.11.03,1.96-.01,4.03.03,5.99.08,1.94-.32,4.02-.54,5.99-.57,1.38-.02,2.92.06,4.28.26,1.07.26,2.34.31,3.42.08,2.28-.33,4.62-.91,6.85-1.52,1.07-.25,2.31-.78,3.42-.72.76.21,1.81.52,2.57.77,4.06,1.3,8.08,2.93,11.98,4.65,5.4.2,10.86.01,16.26.08,2.99-2.03,5.96-4.34,9.41-5.53,1.67.32,3.4,1.05,5.13,1.08,2.59.1,5.16-.77,7.7-1.11,4.66.54,9.22,1.83,13.69,3.2,8.79,2.52,4.82,1.38,12.84.32,5.4-.72,10.86-1.28,16.26-1.99"/><path class="b" d="M10,133.85c2.54,0,5.17.27,7.7.33,2.23-.56,4.57-1.14,6.85-1.48,3.7.75,7.42,1.68,11.12,2.36,6.75,1.33,13.7,1.04,20.54.91,3.41-.03,6.87,0,10.27-.35,2.27-.01,4.6.23,6.85-.28,3.19-.53,6.33-1.57,9.41-2.51,1.74.24,3.5,1.08,5.13,1.69,1.39.57,2.93,1.25,4.28,1.9,1.07.48,2.23,1.41,3.42,1.52,4.82-.48,9.72-.23,14.55-.19,2.85,0,5.7.76,8.56.58.75,0,1.81,0,2.57,0,.58-.14,1.37-.9,1.71-1.37,1.68-1.62,3.64-3.58,5.99-4.08,4.06,2.02,6.98,1.4,11.12.15,1.66-.67,3.51.12,5.13.55,2.59.84,5.21,1.92,7.7,3.03,1.94.83,3.79,2,5.99,1.72,2.01-.43,3.95-1.59,5.99-1.98,5.64-1.21,11.42-1.9,17.11-2.77"/><path class="b" d="M10,131.95c1.67.05,3.47.36,5.13.19,3.09-.57,6.27-1.5,9.41-1.56,6.54,1.18,13.03,3.02,19.68,3.47,6.83.36,13.71.05,20.54-.13,5.29-.14,10.44-1.58,15.4-3.33,1.46.14,2.94.93,4.28,1.47,1.7.77,3.53,1.64,5.13,2.6,6.49-1.34,13.13.1,19.68-.15,2.82-.05,5.75-.27,8.56.16,1.45.19,2.95.81,4.28,1.4.76,0,1.81,0,2.57,0,.97-.66,1.76-2.06,2.57-2.88.94-.99,2.21-2.02,3.42-2.67,3.91,2.28,6.1,2.2,10.27.71,1.99-.73,3.14-1.02,5.13-.08,2.34.92,4.69,2.11,6.85,3.4.76.45,1.78,1.12,2.57,1.52,1.07,0,2.35,0,3.42,0,1.2.17,2.39-.54,3.42-1.03,1.34-.58,2.86-1.19,4.28-1.54,5.06-1.27,10.26-2.06,15.4-2.91"/><path class="b" d="M10,130.17c4.28-.48,8.56-1.36,12.84-1.88,6.6.59,13.07,2.63,19.68,3.31,6.52.71,13.14.45,19.68.14,4.97-.2,9.89-1.3,14.55-3.04.39-.19,1.28-.38,1.71-.36.42.15,1.3.48,1.71.66,1.72.72,3.52,1.66,5.13,2.6,1.1-.03,2.33-.48,3.42-.61,1.94-.29,4.03-.32,5.99-.2,4.28.24,8.54,1.31,12.84,1.37,3.71.06,7.43-.69,11.12-.82,2.41.19,4.91.97,6.85,2.45h1.71c.61-.33,1.4-1.49,1.71-2.09.88-1.24,2.14-2.57,3.42-3.4,6.45,3.97,7.27,1.34,13.69-.06,3.42,1.28,6.48,3.42,9.41,5.55,1.67-.02,3.47.06,5.13-.05,1.57-1,3.4-1.85,5.13-2.51,2.74-1.02,5.7-1.62,8.56-2.22,1.37-.27,2.9-.56,4.28-.8,1.07.18,2.35.42,3.42.63"/><path class="b" d="M10,127.28c2.54-.22,5.17-.5,7.7-.79,1.67-.12,3.46-.59,5.13-.46,5.71.8,11.41,1.91,17.11,2.76,5.65.84,11.42.89,17.11.7,6.42-.11,12.83-1.13,18.83-3.5,1.46.33,2.95,1.12,4.28,1.79,1.12.63,2.11,1.45,3.42.76,5-1.53,10.4-.97,15.4.26,4.18,1.06,8.48,2.45,12.84,1.64,2.07-.27,4.12-.96,5.99-1.87,1.89-.7,4.15-.82,5.99.08,1.39.88,3.04,1.74,4.28,2.84h1.71c1.13-1.94,2.41-4.18,4.28-5.51,1.61.92,3.2,2.36,5.13,2.53,1.44.09,2.96-.48,4.28-1,1.37-.52,2.91-1.06,4.28-1.58,2.1.93,4.17,2.23,5.99,3.64,1.63,1.29,1.99,2.16,4.28,1.92.77,0,1.81.04,2.57-.12,1.55-1.1,3.39-2.02,5.13-2.75,3.26-1.19,6.81-2.38,10.27-2.68,1.97.41,4.05.89,5.99,1.4"/><path class="b" d="M10,124.64c3.41-.22,6.87-.59,10.27-.97,6.29.62,12.56,1.71,18.83,2.48,5.94.8,11.99.89,17.97.65,3.42-.15,6.92-.45,10.27-1.17,2.3-.45,4.59-1.34,6.85-1.94,1.75.61,3.56,1.51,5.13,2.49.82.1,1.8-.38,2.57-.6,1.06-.31,2.33-.59,3.42-.73,6.57-.92,13,1.4,18.83,4.22,3.38.32,6.87.04,10.27.13,1.97-.57,3.27-2.55,5.13-3.37,2.09-1.12,4.81-1.27,6.85.06,1.14.9,2.31,2.18,3.42,3.11.42.14,1.27.24,1.71.2,1.47-1.68,2.24-4.32,4.28-5.5,1.52,1.16,3.15,2.69,5.13,2.91,3.03-.06,5.77-1.94,8.56-2.94,2.87,1.34,5.31,3.5,7.7,5.53,1.08-.05,2.4.17,3.42-.27,1.57-1.1,3.38-2.1,5.13-2.86,2.45-1.07,5.11-1.87,7.7-2.5,2.88.55,5.77,1.44,8.56,2.34"/><path class="b" d="M10,121.98c3.12-.03,6.31-.78,9.41-.45,7.4.8,14.83,1.73,22.25,2.35,5.68.44,11.43.39,17.11.06,4.04-.25,8.12-.88,11.98-2.09.75-.29,1.82-.56,2.57-.09,1.44.51,2.89,1.45,4.28,2.07,7.15-3.23,15.82-2.36,22.25,2.1,3.91-1.17,8.54-1.69,11.98.99,1.67,0,3.47,0,5.13,0,1.07-.3,1.76-1.68,2.57-2.35,2.52-2.55,6.6-3.63,9.41-.91.91.85,1.62,2.43,2.57,3.25.43.01,1.29.02,1.71.02,1.21-1.51,1.99-3.76,3.42-5.11l.86-.14c1.87,1.62,4.18,3.78,6.85,2.78,1.41-.49,2.95-1.17,4.28-1.86.74-.38,1.73-.99,2.57-1.12,2.51,1.36,4.89,3.19,6.85,5.27,1.25.54,2.42-.42,3.42-1.04,1.33-.79,2.87-1.58,4.28-2.2,1.34-.59,2.88-1.17,4.28-1.62.75-.23,1.76-.63,2.57-.49,3.18.83,6.39,1.88,9.41,3.17"/><path class="b" d="M10,119.31c4.85-.49,9.72.33,14.55.8,5.68.57,11.42.92,17.11,1.23,5.69.25,11.43.15,17.11-.19,3.74-.24,7.52-.81,11.12-1.87.44-.17,1.3-.1,1.71.14,1.45.46,2.88,1.41,4.28,1.97,6.78-3.15,15.35-3.14,21.39,1.61.87.07,1.8-.61,2.57-.91,1.04-.43,2.32-.83,3.42-1.03,4.26-.76,9.09.14,11.98,3.58,1.37-.07,2.96.2,4.28-.23,1.9-3.48,6.48-6.86,10.27-4.06,1.5,1,2.17,3.09,3.42,4.29h1.71c.87-1.83,1.92-4.09,3.42-5.49,1.41.99,2.7,2.49,4.28,3.24,3.4,1.21,6.52-1.7,9.41-3.09.92-.14,1.84.66,2.57,1.11,1.48,1,3.02,2.28,4.28,3.54,1.46-.39,2.89-1.36,4.28-1.94,2.46-1.15,5.09-2.18,7.7-2.96,3.83.94,7.6,2.35,11.12,4.12"/><path class="b" d="M10,116.94c5.71.21,11.42,1.01,17.11,1.46,7.97.42,15.99.58,23.96.34,4.27-.13,8.61-.23,12.84-.85,1.68-.25,3.49-.63,5.13-1.07,1.78.4,3.59,1.22,5.13,2.18,1.73-.27,3.41-1.29,5.13-1.66,3.32-.88,6.93-1.02,10.27-.15,1.45.38,3,1.05,4.28,1.84.77.45,1.64,1.39,2.57,1.5,5.38-4.16,16.52-4.57,20.54,1.63,1.04.32,2.35.16,3.42.19.61-.31,1.4-1.4,1.71-1.99.65-.87,1.67-1.95,2.57-2.56,4.27-2.8,7.97.13,9.41,4.37.42.13,1.27.22,1.71.18.73-.39,1.44-2.01,1.71-2.74.36-.65,1.2-1.9,1.71-2.44l.86.08c.74.7,1.77,1.65,2.57,2.29,1.38.17,2.95.17,4.28.66.86.13,1.85-.44,2.57-.85,1.37-.82,2.86-1.8,4.28-2.54,1.8.95,3.59,2.26,5.13,3.58,1.42.24,2.93-.87,4.28-1.25,2.23-.8,4.52-1.83,6.85-2.3,4.13,1.16,8.26,2.65,11.98,4.82"/><path class="b" d="M10,115.05c6,.22,11.98,1.2,17.97,1.51,7.69.09,15.42-.17,23.1-.46,3.98-.15,8.03-.21,11.98-.7,1.68-.16,3.46-.66,5.13-.82,1.76.43,3.6,1.18,5.13,2.16,1.74-.25,3.41-1.33,5.13-1.74,3.3-.97,6.92-1.23,10.27-.37,1.46.38,3.02,1.07,4.28,1.92.78.49,1.6,1.53,2.57,1.65,4.93-4.01,12.14-4.38,17.97-2.3,2.02.73,3.51,2.52,5.13,3.83.4.24,1.25.44,1.71.35.48.09,1.31-.13,1.71-.41,1.75-3.62,6.44-7.4,10.27-4.31,1.54,1.13,2.08,3.46,3.42,4.72.44.05,1.29-.06,1.71-.21.51-1.54,1.47-3.61,2.57-4.81l.86-.19c.72.66,1.61,1.71,2.57,2.03,2.27-.62,4.6.54,6.85.41,1.36-.86,2.86-1.87,4.28-2.63,1.26.04,2.4,1.15,3.42,1.78.71.69,1.64.95,2.57.53,1.08-.31,2.35-.71,3.42-1.04,1.07-.33,2.35-.73,3.42-1.05.76-.35,1.81-.26,2.57.05,2.59.77,5.23,1.71,7.7,2.82,1.42.56,2.82,1.61,4.28,2.07"/><path class="b" d="M10,113.21c6,.24,11.97,1.32,17.97,1.49,3.12.05,6.3-.3,9.41-.48,4.55-.22,9.14-.47,13.69-.68,3.69-.13,7.45-.14,11.12-.5,1.68-.16,3.49-.44,5.13-.81,2.1.41,4.19,1.34,5.99,2.48,6.69-3.49,15.89-4.98,21.39,1.37.92-.14,1.79-1.04,2.57-1.48,1.01-.6,2.3-1.16,3.42-1.51,4.42-1.28,9.4-1.13,13.69.56,1.92.87,3.48,2.56,5.13,3.81.71.39,1.78.32,2.57.31,1.16-1.22,2.09-3.06,3.42-4.14,1.82-1.58,4.6-2.53,6.85-1.27.99.54,1.98,1.73,2.57,2.68.28.73,1.07,2.25,1.71,2.72.47.07,1.3-.1,1.71-.32.5-1.53,1.46-3.59,2.57-4.77l.86-.06c.42.41,1.28,1.21,1.71,1.59,2.75-.89,5.76-.17,8.56.17,1.1-.58,2.32-1.43,3.42-2,1.26-.13,2.39,1.03,3.42,1.61,2.52,0,5.22-1.12,7.7-1.63,1.12-.2,2.36.41,3.42.68,1.99.61,4.07,1.35,5.99,2.16,1.09.46,2.37,1.07,3.42,1.62.75.38,1.67,1.13,2.57.95"/><path class="b" d="M10,111.44c5.99.26,11.96,1.45,17.97,1.42,3.13-.06,6.3-.61,9.41-.89,5.4-.42,10.84-.92,16.26-.98,3.4-.06,6.88-.04,10.27-.45,1.08-.13,2.36-.36,3.42-.6,2.11.45,4.25,1.34,5.99,2.62,1.73-.51,3.4-1.59,5.13-2.11,3.83-1.3,8.24-1.68,11.98.08,1.2.56,2.46,1.51,3.42,2.41.33.44,1.14,1.1,1.71,1.13,5.04-4.38,12.74-4.8,18.83-2.56,1.92.83,3.45,2.52,5.13,3.71.73.32,1.79.26,2.57.25.57-.38,1.38-1.5,1.71-2.1.65-.87,1.67-1.95,2.57-2.57,4.84-3.29,8.74-.35,10.27,4.64.43.03,1.28.05,1.71.04,1.23-1.59,1.88-4.02,3.42-5.39.5.22,1.34.9,1.71,1.3,2.22-.47,4.58-.65,6.85-.4,1.07.09,2.35.24,3.42.31.8-.33,1.8-.95,2.57-1.33.85.11,1.8.78,2.57,1.12,1.97-.28,4.04-.7,5.99-1.11,2.61.31,5.21,1.32,7.7,2.14,1.7.61,3.51,1.36,5.13,2.15.76.37,1.77.94,2.57,1.22.42,0,1.29,0,1.71,0"/><path class="b" d="M10,109.15c2.87.18,5.78.64,8.56,1.39,2.82.29,5.72.58,8.56.49,3.15-.1,6.3-.82,9.41-1.25,6.52-.83,13.11-1.45,19.68-1.32,3.41,0,6.91,0,10.27-.68.79-.21,1.82.14,2.57.38,1.48.48,3.04,1.27,4.28,2.22.51.09,1.3-.18,1.71-.48,1.04-.54,2.32-1.13,3.42-1.54,6.71-2.45,12.37-1.52,17.11,4.02.87-.31,1.78-1.17,2.57-1.63,1.01-.6,2.3-1.17,3.42-1.51,4.14-1.16,8.85-1.16,12.84.54,1.9.77,3.16,2.84,5.13,3.42.76,0,1.81,0,2.57,0,2.4-4.05,7.39-8.35,11.98-4.77.52.44,1.36,1.54,1.71,2.13.27.71,1.03,2.24,1.71,2.64.55.11,1.28-.16,1.71-.49.54-1.45,1.48-3.41,2.57-4.53l.86-.21.86.79c.79-.03,1.79-.41,2.57-.53,1.66-.22,3.47-.26,5.13-.16,1.37.08,2.9.21,4.28.22.39-.26,1.24-.58,1.71-.62,1.49.97,3.49.09,5.13-.02,2.59.37,5.21,1.11,7.7,1.89,2,.64,4.07,1.42,5.99,2.27.77.34,1.82.84,2.57,1.23,1.05.29,2.35.14,3.42.18"/><path class="b" d="M10,106.55c3.78.29,7.65.91,11.12,2.48,6.07.92,12.01-1.19,17.97-2.01,3.39-.44,6.85-.93,10.27-1.1,3.4-.14,6.87-.02,10.27-.01,1.37,0,2.91-.05,4.28-.19,1.08-.05,2.36-.53,3.42-.21,1.43.32,2.99.87,4.28,1.58.77.41,1.66,1.28,2.57,1.34,8.28-4.77,15.59-5.23,22.25,2.39,1.84-1.26,3.78-2.63,5.99-3.17,3.6-.93,7.65-1.02,11.12.42,4.43,2.21,1.79,3.12,7.7,2.86,1.18-1.1,2.15-2.79,3.42-3.8,2.27-2.01,5.78-3.14,8.56-1.48.98.56,1.98,1.72,2.57,2.66.28.71,1.06,2.18,1.71,2.62h.86c1.67-1.5,2.26-4.3,4.28-5.41l.86.76c1.35-.4,2.86-.88,4.28-.96,1.66-.08,3.47.07,5.13,0,4.59-.08,9.24.33,13.69,1.55,2.89.76,5.81,1.75,8.56,2.92.77.32,1.81.8,2.57,1.14,1.37,0,2.91,0,4.28,0"/><path class="b" d="M10,104c4.12.3,8.29,1.19,11.98,3.09.73.43,1.77.32,2.57.27,1.68-.09,3.49-.35,5.13-.71,5.89-1.54,11.91-2.72,17.97-3.3,3.68-.3,7.44-.16,11.12-.08,2.25.13,4.6-.14,6.85-.19,1.72.25,3.55.73,5.13,1.46,1.16.48,2.26,1.53,3.42,1.96,7.17-4.21,13.7-5.42,20.54.15,1.8,1.55,2.78,2.94,5.13,1.16,4.63-2.56,11.35-3.07,15.4.82h5.13c4.5-6.57,12.71-9.33,16.26-.35l.86.35.86-.37c.37-.59,1.21-1.68,1.71-2.16.62-.98,1.51-2.35,2.57-2.91l.86.58c.74-.32,1.77-.68,2.57-.78,1.06.21,2.34.42,3.42.5,1.37.1,2.91.03,4.28.01.42,0,1.29.03,1.71.05.42-.15,1.28-.41,1.71-.52,1.53.92,3.42.91,5.13,1.22,2.28.4,4.63.99,6.85,1.68,1.39.43,2.92.97,4.28,1.49,1.08.37,2.28,1.07,3.42,1.21,1.67,0,3.47,0,5.13,0"/><path class="b" d="M10,101.5c4.12.34,8.29,1.35,11.98,3.24,1.06.78,2.19.8,3.42.54,1.39-.2,2.92-.53,4.28-.88,5.59-1.68,11.32-2.95,17.11-3.67,2.54,0,5.16.25,7.7.17,7.1-.16,13.66-.89,19.68,3.69,8.77-5.18,15.3-5.01,23.1,1.76,1.37,0,2.91,0,4.28,0,1.94-.46,3.94-1.28,5.99-1.11,1.43.05,3.01.44,4.28,1.11,2.25,0,4.6,0,6.85,0,2.47-2.39,5.03-5.12,8.56-5.85,4.81-1.06,7.31,2.07,9.41,5.85h.86c.67-.98,1.66-2.27,2.57-3.04.69-.77,1.51-2.04,2.57-2.33l.86.18c1.05-.64,2.34-.15,3.42.12,1.64.42,3.45.59,5.13.57.77,0,1.81.01,2.57-.15,1.09-.6,2.24-1.25,3.42-.46,1.61.91,3.33,1.22,5.13,1.5,1.68.34,3.49.79,5.13,1.28,2.29.65,4.6,1.56,6.85,2.33,2.25,0,4.6,0,6.85,0"/><path class="b" d="M10,99.06c4.76.5,9.64,1.73,13.69,4.35,3.5-.44,6.9-1.67,10.27-2.66,3.34-.96,6.82-1.79,10.27-2.26,2.82.27,5.71.71,8.56.72,7.49.09,15.04-1.62,21.39,3.47,6.47-3.62,11.94-5.14,18.83-1.52,1.45.72,2.99,1.68,4.28,2.65.73.31,1.79.24,2.57.24,3.69,0,7.44,0,11.12,0,1.95-.09,4.07.22,5.99-.19,5.61-5.85,14.91-9.41,18.83.14l.86.04c.47-.45,1.33-1.44,1.71-1.97,1.05-1.03,2.39-2.16,3.42-3.22.45.03,1.29-.13,1.71-.3,1.43.03,2.89.81,4.28,1.1,1.63.37,3.47.58,5.13.36,1.06-.54,2.33-1.17,3.42-1.62,1.7.66,3.49,1.46,5.13,2.25,2.55.58,5.2,1.13,7.7,1.92,1.38.42,2.92.92,4.28,1.39,2.81.21,5.73.03,8.56.09"/><path class="b" d="M10,96.67c3.49.37,7.01,1.24,10.27,2.54,4.39,1.92,2.73,2.44,7.7.94,3.4-1.02,6.81-2.26,10.27-3.08,1.07-.26,2.35-.55,3.42-.78.78-.07,1.81.15,2.57.26,4.22.74,8.53,1.34,12.84,1.06,6.4-.39,11.62-.69,17.11,3.18,6.67-3.5,11.71-4.85,18.83-1.63,1.1.48,2.38,1.12,3.42,1.72.7.45,1.7,1.02,2.57.87,4.83,0,9.71,0,14.55,0,6.48-4.69,16.7-10.31,21.39-.42l.86.42c.92-.61,1.74-1.89,2.57-2.61,1.05-.9,2.38-1.9,3.42-2.81.43,0,1.28,0,1.71-.02.43.17,1.28.49,1.71.66,1.87.68,3.97,1.57,5.99,1.21,1.08-.46,2.35-1.08,3.42-1.56.43-.26,1.22-.44,1.71-.3,2.29.84,4.61,1.92,6.85,2.9,2.83.75,5.76,1.43,8.56,2.31,1.33.41,2.91.15,4.28.22,1.96,0,4.03,0,5.99,0"/><path class="b" d="M10,94.33c3.18.35,6.39,1.1,9.41,2.15,1.76.5,3.39,1.73,5.13,2.23,3.73-1,7.42-2.38,11.12-3.47,1.07-.31,2.34-.65,3.42-.92.77-.2,1.79-.5,2.57-.18,1.96.38,4.03.86,5.99,1.23,1.68.03,3.49.22,5.13.54,3.05.82,6.3.14,9.41.11,2.87-.07,5.88.17,8.56,1.26,1.16.39,2.22,1.48,3.42,1.72,5.69-2.76,10.91-4.42,17.11-2.21,1.4.42,2.9,1.08,4.28,1.57,1.08.2,2.35.47,3.42.69,1.64.41,3.45.51,5.13.45,2.01.08,4.12-.01,5.99-.84,6.46-2.1,13.78-7.49,20.54-3.62.91.57,1.94,1.62,2.57,2.49.29.6.99,1.75,1.71,1.97.94-.52,1.75-1.75,2.57-2.43,1.29-1.07,2.77-2.28,4.28-3.02.5-.12,1.29.05,1.71.31.77.33,1.81.78,2.57,1.12.74.33,1.77.69,2.57.84.44-.08,1.29-.31,1.71-.46,1.7-.51,3.36-1.68,5.13-1.86,3.46,1.17,6.81,2.82,10.27,3.99,1.92.61,4.01,1.14,5.99,1.51,3.4,0,6.87,0,10.27,0"/><path class="b" d="M10,92.02c5.03.56,10.07,1.85,14.55,4.24,3.43-.99,6.86-2.19,10.27-3.24,1.65-.47,3.43-1.08,5.13-1.33.43.11,1.28.32,1.71.43,1.37.37,2.93.67,4.28,1.09,2.55-.07,5.19-.02,7.7.46,1.72.26,3.46.97,5.13,1.39,4.89-.38,10.3-.79,14.55,2.13,1.47.12,2.91-.87,4.28-1.28,2.18-.78,4.53-1.39,6.85-1.58,2.28-.21,4.65.34,6.85.9,2.25.04,4.6.07,6.85.21,3.7.22,7.5.16,11.12-.68,7.79-1.71,18.91-7.35,23.96,1.98l.86.44c.91-.51,1.76-1.66,2.57-2.29,1.56-1.2,3.28-2.64,5.13-3.3,1.4.59,2.92,1.36,4.28,2.04,3,.63,5.74-1.34,8.56-1.97,5.92,2.01,11.7,4.72,17.97,5.51,3.11.03,6.3,0,9.41.01"/><path class="b" d="M10,89.72c4.97.5,10.04,1.57,14.55,3.79,1.13.08,2.35-.51,3.42-.79,1.96-.6,4.03-1.27,5.99-1.87,1.66-.51,3.45-1.03,5.13-1.46,1.7.32,3.47.94,5.13,1.4.76.22,1.76.58,2.57.39,3.42-.24,6.96-.04,10.27.9,1.11.32,2.39.8,3.42,1.3.69.49,1.75.62,2.57.47,2.55-.17,5.25-.08,7.7.72,1.56.66,3.48.21,5.13.33,1.12,0,2.34-.61,3.42-.85,1.63-.44,3.44-.78,5.13-.86,1.38-.06,2.92-.02,4.28.24,1.66-.29,3.46-.56,5.13-.69,5.42-.39,10.92-.43,16.26-1.52,7.37-1.4,17.7-4.74,22.25,3.48l.86.21c2.34-2.08,4.9-4.06,7.7-5.5,1.19.07,2.34.96,3.42,1.39,3.19,1.1,6.38-.57,9.41-1.41,4.85,1.47,9.55,3.61,14.55,4.56,1.94.4,4.02.71,5.99.97,2.54,0,5.16,0,7.7,0"/><path class="b" d="M10,87.39c5.24.4,10.57,1.41,15.4,3.51,4.6-1.05,9.11-2.7,13.69-3.83,2.28.61,4.62,1.39,6.85,2.17,1.36.24,2.9-.17,4.28-.12,2.56-.05,5.23.18,7.7.86,2.11.51,4.05,1.72,5.99,2.64.76,0,1.8,0,2.57,0,4.26,0,8.58,0,12.84,0,2.26.09,4.59-.26,6.85-.19,1.05-.4,2.34-.81,3.42-1.1,6.42-1.68,13.15-1.8,19.68-2.89,7.45-1.1,17.48-3.48,22.25,4.17h.86c2.47-2.3,5.45-4.26,8.56-5.58,2.86,1.64,6.32,1.86,9.41.78,1.07-.25,2.35-1.01,3.42-.46,4,1.15,7.91,2.77,11.98,3.66,2.8.64,5.72,1.05,8.56,1.46,2.54.07,5.17-.02,7.7-.11"/><path class="b" d="M10,85.02c3.73.11,7.49.7,11.12,1.5,1.09.25,2.36.6,3.42.94.78.24,1.73.75,2.57.56,3.41-.87,6.87-1.81,10.27-2.7.77-.19,1.77-.54,2.57-.42,1.69.45,3.49,1.03,5.13,1.64,1.35.46,2.8,1.37,4.28.98,3.41-.35,6.99-.24,10.27.84,1.47.43,2.89,1.38,4.28,1.97.76,0,1.8,0,2.57,0,4.55,0,9.14,0,13.69,0,1.96,0,4.03,0,5.99,0,1.15.13,2.37-.48,3.42-.85,6.34-2.13,13.09-2.7,19.68-3.62,5.64-.62,11.81-1.65,17.11.96,1.67.75,2.89,2.4,4.28,3.51,1.28-.23,2.29-1.54,3.42-2.13,1.62-1.03,3.42-2.03,5.13-2.89,1.35-1.01,2.86.03,4.28.3,2.55.6,5.23.04,7.7-.66,1.41-.28,2.91.62,4.28.9,3.4.96,6.78,2.23,10.27,2.86,1.95.36,4.01.8,5.99.97,3.4-.02,6.87-.23,10.27-.41"/><path class="b" d="M10,82.58c4.01-.02,8.06.45,11.98,1.29,1.09.23,2.36.54,3.42.85.77.21,1.75.63,2.57.54,3.69-.84,7.44-1.73,11.12-2.59,1.1-.32,2.36.29,3.42.52,1.39.39,2.92.9,4.28,1.41,1.66.47,3.34,1.86,5.13,1.46,2.54-.26,5.23-.18,7.7.52,1.13.32,2.4.9,3.42,1.47,1.07,0,2.35,0,3.42,0,4.83,0,9.71,0,14.55,0,1.67,0,3.47,0,5.13,0,1.08-.05,2.42.2,3.42-.32,5.98-2.39,12.47-3.3,18.83-4.07,6.89-.63,15.56-1.67,20.54,4.21l.86.17c3.24-2.14,6.73-4.01,10.27-5.6,2.25.26,4.55,1.01,6.85.7,1.09-.1,2.36-.34,3.42-.58,1.42.07,2.91.69,4.28,1.01,4.79,1.29,9.58,2.9,14.55,3.38,4.27-.13,8.58-.47,12.84-.77"/><path class="b" d="M10,80.3c1.67.01,3.47-.21,5.13-.18,2.26.22,4.61.55,6.85.96,1.38.26,2.91.59,4.28.94,1.08.34,2.31.63,3.42.26,2.25-.45,4.6-.92,6.85-1.38,1.07-.21,2.34-.52,3.42-.65.77.16,1.81.4,2.57.6,3.83.98,7.61,2.42,11.12,4.23,2.26.06,4.67-.12,6.85.66,9.4.11,18.83,0,28.24.04,1.79.19,3.46-.89,5.13-1.35,2.77-.88,5.69-1.53,8.56-2.01,5.07-.81,10.28-1.38,15.4-.9,2.33.24,4.76.79,6.85,1.87,1.19.57,2.32,1.69,3.42,2.39,3.98-1.83,7.85-4.12,11.98-5.62l.86.35c1.04-.48,2.34-.05,3.42-.02,1.38.07,2.92-.03,4.28-.23,5.49.75,10.77,2.91,16.26,3.8,2.22.53,4.6.02,6.85-.06,3.4-.26,6.87-.56,10.27-.83"/><path class="b" d="M10,78.42c2.84,0,5.74-.34,8.56-.58,1.38.19,2.91.43,4.28.68,1.98.32,4.01.94,5.99,1.23,2.83-.48,5.74-.97,8.56-1.48.77-.13,1.78-.38,2.57-.29.77.15,1.81.37,2.57.55,2.6.61,5.24,1.45,7.7,2.48,1.72.69,3.47,1.65,5.13,2.45.76,0,1.8,0,2.57,0,4.83,0,9.71,0,14.55,0,4.81-.46,9.7-.65,14.55-.55,1.96-.02,4.04.15,5.99.04,2.75-.99,5.68-1.74,8.56-2.27,7.7-1.25,18.41-2.58,24.82,2.72,2.86-1.08,5.74-2.35,8.56-3.52,1.67-.57,3.36-1.73,5.13-1.9,1,.76,2.32.15,3.42.02,1.07-.13,2.35-.13,3.42-.02,5.21.69,10.27,2.35,15.4,3.41,2.5.65,5.17-.05,7.7-.17,3.97-.34,8-.82,11.98-1.03"/><path class="b" d="M10,76.63c3.72.05,7.43-.9,11.12-.99,1.68.28,3.47.63,5.13.99,1.07.27,2.33.57,3.42.29,3.12-.37,6.29-1.03,9.41-1.31,4.72.73,9.42,2.05,13.69,4.2.78.39,1.8.97,2.57,1.38,1.96,0,4.03,0,5.99,0,1.37,0,2.91,0,4.28,0,1.23.1,2.34-.09,3.42-.71,3.24-1.26,6.83-1.41,10.27-1.51,4.26-.08,8.58.05,12.84.25,1.96.1,4.04.24,5.99.41,1.39-.13,2.9-.58,4.28-.78,7.37-1.17,15.45-1.66,22.25,1.94,3.49-.82,6.93-2.07,10.27-3.34,1.38-.53,2.91-1.15,4.28-1.72.85-.02,1.81.59,2.57.92,3.08-.8,6.35-.34,9.41.31,3.44.59,6.85,1.57,10.27,2.28,6.83-.52,13.67-1.73,20.54-1.72"/><path class="b" d="M10,74.86c3.73-.16,7.45-.98,11.12-1.57,2.58.05,5.12,1.47,7.7,1.04,3.12-.27,6.29-.86,9.41-1.06,5.95.86,12.03,2.28,17.11,5.63,2.82-.1,5.77.23,8.56-.16,1.99-.7,3.96-1.81,5.99-2.4,2.48-.69,5.14-.9,7.7-.99,6.56-.16,13.15.22,19.68.78,2.54.19,5.16.61,7.7.78,1.95-.24,4.03-.39,5.99-.41,3.75-.06,7.58.39,11.12,1.63,5.92-.55,11.63-2.54,17.11-4.74,1.14.29,2.34,1.02,3.42,1.48,1.37-.02,2.9-.26,4.28-.14,3.73.33,7.49,1.05,11.12,1.96,2.23.59,4.59-.53,6.85-.58,5.67-.65,11.4-1.39,17.11-1.06"/><path class="b" d="M10,73.04c3.74-.37,7.44-1.4,11.12-2.08,1.67.23,3.44,1.07,5.13.87,3.12-.24,6.3-.57,9.41-.81,1.68-.12,3.47.32,5.13.52,3.48.55,7,1.37,10.27,2.72,1.43.51,2.83,1.52,4.28,1.96,1.68-.16,3.48-.41,5.13-.72,4.09-.62,7.91-2.52,11.98-3.16,6.23-.82,12.58-.33,18.83.05,5.14.36,10.3.94,15.4,1.62,4.81.61,9.69,1.33,14.55,1.22,6.2-.11,12.23-1.93,17.97-4.15,1.95.81,3.95,1.85,5.99,2.41,3.43-.22,6.9.51,10.27,1.06,2.86,0,5.72-.89,8.56-1.16,5.95-.72,11.99-1.13,17.97-.65"/><path class="b" d="M10,71.06c3.15-.58,6.3-1.52,9.41-2.26.8-.08,1.81.25,2.57.45,1.07.11,2.35-.08,3.42-.13,5.12-.41,10.3-.58,15.4.2,2.87.37,5.81.94,8.56,1.87,1.74.53,3.44,1.52,5.13,2.16,3.7-.79,7.46-1.59,11.12-2.54,2.53-.64,5.09-1.56,7.7-1.83,6.82-.72,13.73-.11,20.54.46,5.14.47,10.29,1.17,15.4,1.85,4.81.62,9.69,1.27,14.55,1,5.31-.18,10.41-1.86,15.4-3.49,8.92,4.06,12.82,3.84,22.25,2.17,6.8-.78,13.71-1.09,20.54-.42"/><path class="b" d="M10,68.04c1.64-.43,3.46-.67,5.13-.9,1.1-.08,2.31-.8,3.42-.56,1.94.24,4.03-.2,5.99-.21,2.54.02,5.16.19,7.7.22,7.55.21,15.56.47,22.25,4.39,2-.42,4.01-1.32,5.99-1.83,3.38-.93,6.83-1.97,10.27-2.64,2.22.47,4.58.71,6.85.77,3.41.08,6.88-.2,10.27-.51,1.37-.13,2.91-.28,4.28-.42,1.38.07,2.91.27,4.28.41,9.4.9,18.76,3.14,28.24,2.84,2.86-.13,5.78-.58,8.56-1.29,1.99-.44,4-1.32,5.99-1.75,9.32,4.07,12.58,3.42,22.25,2.03,6.82-.66,13.72-.76,20.54-.01"/><path class="b" d="M10,64.81c2.53-.38,5.15-.82,7.7-.49,3.69.13,7.43.33,11.12.25,8.93-.08,18.66-.64,26.53,4.3,1.44-.41,2.87-1.34,4.28-1.87,2.47-1.03,5.12-1.86,7.7-2.54,1.63-.56,3.49.64,5.13.87,2.49.57,5.15.76,7.7.68,4-.13,8.02-.73,11.98-1.26,1.67-.23,3.47-.47,5.13-.67,1.08,0,2.35.22,3.42.35,14.21,1.78,24.36,4.72,38.51-.18,9.37,3.82,11.62,3.48,21.39,2.26,7.11-.69,14.3-.6,21.39.18"/><path class="b" d="M10,61.97c1.08.2,2.38.32,3.42-.12,1.66.82,3.35.69,5.13.83,2.82.16,5.73.09,8.56-.03,9.73-.33,20.57-1.6,29.09,4.09,1.25-.05,2.32-1.27,3.42-1.77,1.87-1.05,3.96-1.95,5.99-2.63,1.11-.57,2.35-.12,3.42.27,1.08.36,2.34.85,3.42,1.2,2.73.88,5.7,1.21,8.56,1.05,6.9-.48,13.67-2.32,20.54-3.1,7.96.98,15.91,2.67,23.96,2.59,3.14-.05,6.35-.44,9.41-1.17,1.39-.33,2.92-.77,4.28-1.2,1.12.18,2.36.74,3.42,1.1,2.47.89,5.06,1.82,7.7,1.99,4.85.25,9.71-.7,14.55-.81,5.7-.29,11.44.07,17.11.59"/><path class="b" d="M10,59.75l.86-.19c1.1.37,2.3,1.06,3.42,1.34.76.07,1.8.13,2.57.16,3.4.13,6.87-.09,10.27-.34,7.95-.51,16.22-1.45,23.96.91,1.43.46,2.98,1.13,4.28,1.88.76.4,1.63,1.31,2.57,1.21,2.42-2.22,5.39-4.14,8.56-5.03,2.6.92,5.12,2.28,7.7,3.23,7.05,2.6,14.4-.46,21.39-1.8,3.09-.62,6.27-1.33,9.41-1.61,1.37.19,2.91.41,4.28.61,10.75,1.67,20.18,2.84,30.81-.45,11.31,4.12,11.3,3.55,23.1,2.87,3.4-.16,6.87-.17,10.27-.02,2.83.14,5.73.4,8.56.09"/><path class="b" d="M10,58.19c.77.36,1.77.95,2.57,1.25,1.37.1,2.9.14,4.28.13,3.99-.04,8.02-.49,11.98-.9,7.65-.76,15.64-1.53,23.1.76,1.44.47,2.99,1.17,4.28,1.95.76.44,1.64,1.36,2.57,1.41,1.18-1.41,2.74-2.76,4.28-3.76,1.02-.59,2.21-1.49,3.42-1.58,1.4.63,2.93,1.42,4.28,2.17,1.07.51,2.19,1.55,3.42,1.55,2.26-.13,4.6,0,6.85.27,1.96.19,4.03.41,5.99.6,3.74-.75,7.38-2.27,11.12-3.05,2.8-.67,5.71-1.25,8.56-1.66,1.37-.28,2.91.19,4.28.33,3.96.56,7.98,1.2,11.98,1.44,1.95-.22,4.03-.38,5.99-.47,2.25-.1,4.6-.12,6.85-.07,1.7-.22,3.49-.74,5.13-1.22,3.39,1.01,6.72,2.44,10.27,2.84,10.22,1.28,20.55-.24,30.81-.28"/><path class="b" d="M10,57.7c.69.56,1.74.54,2.57.54,1.07.03,2.35.02,3.42-.02,4-.15,8.02-.7,11.98-1.27,10.09-1.31,22.24-3.13,30.81,3.65h.86c1.83-2.17,4.06-4.6,6.85-5.44,1.74.91,3.53,2.03,5.13,3.15.97.67,2.32.22,3.42.23,1.96-.16,4.03-.1,5.99.1,2.54.19,5.16.43,7.7.62,1.37.03,2.94.38,4.28-.02,2.77-1.05,5.68-1.95,8.56-2.65,1.94-.47,4.02-.89,5.99-1.21,1.67-.33,3.46-.52,5.13-.12,2.53.34,5.15.83,7.7,1,2.81-.39,5.72-.71,8.56-.87,2.82-.16,5.73-.2,8.56-.15,1.67-.03,3.51.31,5.13-.18,1.6.6,3.46.5,5.13.72,1.67.22,3.45.63,5.13.79,9.66.95,19.41.41,29.1.69"/><path class="b" d="M10,57.21c3.99.14,8.04-.21,11.98-.81,1.65-.45,3.44-.92,5.13-1.17,2.23-.36,4.59-.59,6.85-.76,3.1-.4,6.28-.85,9.41-.9,3.76.07,7.63.53,11.12,1.97,1.13.47,2.42,1.17,3.42,1.88.6.65,1.69,1.03,2.57.87,1.5-2.2,3.55-4.36,5.99-5.48,1.77,1.01,3.51,2.35,5.13,3.57,8.52-1.35,17.11.62,25.67,0,2.79-.93,5.67-1.85,8.56-2.44,2.23-.48,4.58-.87,6.85-1.17,1.98,0,4.01.66,5.99.68,5.65-.86,11.4-1.31,17.11-1.31,7.73-.15,15.42.77,23.1,1.45,7.69.45,15.42.53,23.1,1.02"/><path class="b" d="M10,56.03c1.67,0,3.47,0,5.13,0,1.1-.42,2.3-1.13,3.42-1.49,3.01-1.02,6.26-1.36,9.41-1.63,3.4-.29,6.87-.51,10.27-.8,4.8-.79,9.84-.86,14.55.51,1.44.42,2.99,1.07,4.28,1.83,1.04.58,2.12,1.81,3.42,1.58,1.09-.44,1.76-1.94,2.57-2.72.95-1.02,2.22-2.11,3.42-2.82,1.13.71,2.4,1.67,3.42,2.53.37.45,1.14.93,1.71,1.02,3.37-.52,6.85-.91,10.27-.69,6.55.27,13.16.48,19.68-.32,3.46-.31,6.82-1.57,10.27-2.04,1.07-.18,2.34-.42,3.42-.49.77.12,1.79.37,2.57.16,6.22-.91,12.54-1.29,18.83-1.31,8-.15,16,.61,23.96,1.29,7.12.43,14.29.72,21.39,1.4"/><path class="b" d="M10,53.74c1.08-.01,2.35.03,3.42-.05,1.84-.92,3.96-1.43,5.99-1.71,5.39-.64,10.88-.49,16.26-1.25,6.19-1.13,12.78-2.06,18.83.23,1.13.42,2.42,1.06,3.42,1.73.37.32,1.26.86,1.71,1.06.42,0,1.29,0,1.71,0,1.26-2.12,3.03-4.22,5.13-5.54,1.49,1.01,3.02,2.34,4.28,3.62,2.82-.37,5.71-.87,8.56-1.05,5.12.02,10.29.19,15.4-.08,8.9-.43,17.67-2.3,26.53-3.14,13.09-1.11,26.29-.96,39.36.2,7.13.51,14.29.91,21.39,1.75"/><path class="b" d="M10,51.46c2.96.21,5.61-.78,8.56-.74,5.12-.08,10.38.52,15.4-.75,6.21-2.24,13.25-3.39,19.68-1.45,1.45.44,3.01,1.14,4.28,1.97.36.32,1.25.83,1.71.97.42,0,1.29,0,1.71,0,1.41-1.94,2.86-4.44,5.13-5.44,1.51,1.03,2.83,2.6,4.28,3.69,5.29-1.41,10.82-1.45,16.26-1.49,5.13-.08,10.3-.42,15.4-1.02,5.69-.65,11.4-1.54,17.11-1.99,5.68-.47,11.42-.53,17.11-.63,7.7-.19,15.43-.24,23.1.4,7.42.53,14.87,1.04,22.25,2.01"/><path class="b" d="M10,49.12c5.12.09,10.28.03,15.4.05,1.67,0,3.47,0,5.13,0,1.11.02,2.46.09,3.42-.59,4.23-2.05,8.99-3.14,13.69-3.05,1.68-.03,3.52-.02,5.13.54,1.38.53,2.98,1.02,4.28,1.75.44.24,1.31.8,1.71,1.11.73.31,1.8.24,2.57.24,1.15-1.83,2.57-3.83,4.28-5.18l.86-.09c.81.64,1.85,1.59,2.57,2.34.34.46,1.11,1.19,1.71,1.26,5.28-1.47,10.81-1.68,16.26-1.84,4.84-.2,9.73-.56,14.55-1.06,5.69-.59,11.4-1.31,17.11-1.63,6.26-.37,12.56-.31,18.83-.42,4.84-.03,9.71-.4,14.55-.35,10.01.28,20.03,1.07,29.95,2.38"/><path class="b" d="M10,44.99c2.27.06,4.63.29,6.85.78,1.39.28,2.88.88,4.28,1.12,3.11,0,6.3,0,9.41,0,1.66-.07,3.5.19,5.13-.18,5.32-3.11,12.01-4.25,17.97-2.55,1.42.49,2.99,1.08,4.28,1.87.9.83,2.26.94,3.42.85,1.29-1.72,2.57-3.79,4.28-5.14l.86-.16c1.53,1.05,2.68,2.9,4.28,3.82,8.31-2.48,17.11-2.15,25.67-2.98,6.26-.49,12.55-1.17,18.83-1.49,5.69-.3,11.42-.25,17.11-.24,3.98,0,8.01-.05,11.98-.23,3.4-.15,6.86-.5,10.27-.41,9.15.17,18.29,1.05,27.38,1.97"/><path class="b" d="M10,41.55c3.13.27,6.32.61,9.41,1.17,4.35-.43,8.88-.16,12.84,1.88,1.07,0,2.35,0,3.42,0,1.15.07,2.49,0,3.42-.76,6.31-3.73,14.5-3.34,20.54.76h1.71c.59-.35,1.39-1.47,1.71-2.07.91-1.22,2.12-2.63,3.42-3.44,1.51,1.15,3.03,2.65,4.28,4.07,1.12.1,2.34-.51,3.42-.72,1.94-.47,4.02-.84,5.99-1.11,5.95-.76,11.99-1.09,17.97-1.58,6.83-.49,13.69-.97,20.54-.99,6.84-.05,13.7.31,20.54.15,6.85-.05,13.68-1.14,20.54-.77,4.55.16,9.15.48,13.69.82,2.83.17,5.73.96,8.56.38"/><path class="b" d="M10,38.46c1.37.03,2.91.21,4.28.15,1.95-.27,4.02-.47,5.99-.51,5.37-.11,10.98,1.05,15.4,4.21h4.28c4.47-3.01,10.25-4.24,15.4-2.36,1.11.37,2.4.93,3.42,1.5.95.73,2.26,1.08,3.42.7,1.04-1.88,2.58-3.76,4.28-5.08h.86c1.47,1.13,2.98,2.55,4.28,3.85,1.12.33,2.33-.46,3.42-.65,1.65-.44,3.45-.8,5.13-1.08,4.8-.78,9.71-1.07,14.55-1.5,7.67-.7,15.41-.99,23.1-.87,6.56.09,13.13.6,19.68.78,6.02.21,11.97-1.07,17.97-1.25,8.85-.17,17.73.45,26.53,1.34"/><path class="b" d="M10,34.76c8.97-1.01,18.73-.74,26.53,4.34.96.91,2.17,1.01,3.42.92.42,0,1.29,0,1.71,0,.46-.16,1.31-.63,1.71-.91,3.82-2.22,8.62-2.94,12.84-1.47,1.11.38,2.4.94,3.42,1.51.69.45,1.7,1.03,2.57.87,1.6-1.82,3.05-4.05,5.13-5.4.92.15,1.85,1.01,2.57,1.55,1.08.86,2.37,1.88,3.42,2.77,1.98-.37,3.99-1.2,5.99-1.53,3.65-.76,7.42-1.17,11.12-1.49,6.25-.53,12.55-.96,18.83-1.03.81.11,1.76-.41,2.57-.35,1.02.47,2.33.39,3.42.43,7.43.16,14.83,1.28,22.25,1.54,2.84.15,5.71-.6,8.56-.46,3.4-.34,6.83-1.1,10.27-1.17,8.55-.36,17.14.2,25.67.68"/><path class="b" d="M10,32.41c2.83.02,5.73.28,8.56.36,1.96-.19,4.04-.46,5.99-.72,1.4-.32,2.93.32,4.28.65,2.96.86,5.94,2.04,8.56,3.67.44.28,1.3.89,1.71,1.21.42.11,1.28.19,1.71.15,1.09-.06,2.46.24,3.42-.4,5.54-3.77,12.51-3.41,17.97.33l.86-.21c1.3-1.99,3.12-3.87,5.13-5.15.89.09,1.83.85,2.57,1.31,1.66,1.02,3.38,2.28,5.13,3.11,9.06-2.98,18.79-3.16,28.24-3.51,1.08-.07,2.41.16,3.42-.32,1.85-.77,2.45-.81,4.28,0,1,.53,2.33.47,3.42.54,1.07.06,2.35.16,3.42.24,3.7.3,7.44.79,11.12,1.22,1.07.12,2.35.26,3.42.36,1.06-.35,2.34-.72,3.42-.97,2.5-.57,5.14-.91,7.7-1.07,3.69-.23,7.45.13,11.12.47,8.81-.7,17.7-.44,26.53-.2"/><path class="b" d="M10,29.63c4.27.11,8.6.29,12.84.83,1.69.15,3.44-.68,5.13-.66.43.12,1.29.37,1.71.5,2.94.91,5.91,2.09,8.56,3.66.76.45,1.7,1.24,2.57,1.49,1.37,0,2.91,0,4.28,0,5.33-3.91,12.39-3.95,17.97-.54,1.06-.25,1.79-1.58,2.57-2.24,1.23-.99,2.61-2.61,4.28-2.66,3.05,1.53,6.17,3.21,9.41,4.3,5.26-1.58,10.8-2.13,16.26-2.47,2.25-.13,4.6-.21,6.85-.23,1.09-.29,2.35-.79,3.42-1.13.78-.24,1.75-.72,2.57-.38,1.4.46,2.94,1.05,4.28,1.68,2.23.39,4.61.42,6.85.75,2.25.27,4.6.6,6.85.92,1.07.12,2.34.45,3.42.3.42-.19,1.28-.53,1.71-.69,10.73-3.49,22.37-2.77,33.37-1.15,5.68-.33,11.42-.48,17.11-.49"/><path class="b" d="M10,26.97c3.4.08,6.87.21,10.27.5,1.97.05,4.04.69,5.99.53.76-.17,1.78-.47,2.57-.38,1.08.32,2.36.73,3.42,1.1,2.64.94,5.33,2.08,7.7,3.57.93.85,2.23.95,3.42.86,1.08-.05,2.41.19,3.42-.29,5.01-3.5,11.73-3.48,17.11-.83.98-.19,1.8-1.29,2.57-1.86,1.26-1.02,2.79-2.01,4.28-2.67,4.64,1.9,9.52,3.51,14.55,3.97,3.4-.31,6.84-1.01,10.27-1.11,2.85-.72,5.73-1.61,8.56-2.41,1.4-.62,2.94.15,4.28.58,1.1.39,2.37.92,3.42,1.42.73.39,1.72.89,2.57.87,2.55.26,5.17.62,7.7,1,1.37.2,2.91.44,4.28.64.45-.12,1.31-.47,1.71-.71,4.81-2.17,10.2-2.7,15.4-3.11,5.69-.44,11.45-.42,17.11.24,2.57.21,5.16.94,7.7,1.29,4.54-.37,9.14-.73,13.69-.94"/><path class="b" d="M10,24.42c3.69.08,7.44.21,11.12.52,1.08.08,2.36.26,3.42.45,1.13.29,2.31.38,3.42-.03,1.74.03,3.49.93,5.13,1.42,2.63.94,5.31,2.06,7.7,3.5.89.83,2.31.56,3.42.59,1.4-.06,3.13.32,4.28-.71,4.87-2.99,11.01-2.94,16.26-1,.91-.16,1.81-1.02,2.57-1.5,1.54-1.01,3.32-2,5.13-2.39,6.57,2.18,13.68,2.85,20.54,1.95,3.15-.43,6.32-1.15,9.41-1.86,2.03.18,4.08.99,5.99,1.65,1.1.42,2.38.99,3.42,1.54.77.39,1.71,1.09,2.57,1.27,3.12.26,6.27,1.1,9.41,1.05,1.51.13,2.86-1.17,4.28-1.56,2.17-.81,4.55-1.34,6.85-1.68,3.38-.5,6.86-.69,10.27-.87,5.12-.35,10.31-.34,15.4.37,1.38.18,2.92.44,4.28.74.75.18,1.78.54,2.57.53,4.83-.52,9.71-1.05,14.55-1.42"/><path class="b" d="M10,21.94c3.4.08,6.88.12,10.27.44,1.38.16,2.91.37,4.28.59.43.07,1.28.22,1.71.31.43-.07,1.28-.17,1.71-.2,4.37,1.29,8.79,2.75,12.84,4.88.94.71,2.3.67,3.42.64,1.37-.05,2.93.13,4.28-.15,4.98-3.39,11.43-3.61,17.11-2.11,2.79-1.14,5.44-3.09,8.56-3.28,4.18.95,8.55,1.3,12.84,1.23,2.84-.08,5.74-.38,8.56-.73,1.38-.13,2.89-.57,4.28-.5,4.78.92,9.63,2.36,13.69,5.11.7.52,1.75.43,2.57.42,1.07,0,2.35,0,3.42,0,1.67,0,3.47,0,5.13,0,.42-.19,1.29-.57,1.71-.76,5.68-2.27,11.94-2.33,17.97-2.51,3.69-.11,7.44-.37,11.12.02,2.6.13,5.18.89,7.7,1.45,6.25-.85,12.55-1.57,18.83-2.19"/><path class="b" d="M10,19.5c4.57.03,9.18.25,13.69.99,1.07.23,2.34.29,3.42.41,1.38.4,2.91.87,4.28,1.32,3.48,1.12,6.97,2.46,10.27,4.04,1.37.08,2.91.03,4.28.04,1.08-.05,2.41.18,3.42-.27,5.07-3.19,11.35-3.39,17.11-2.51,2.71-1.24,5.57-2.44,8.56-2.8,3.36.61,6.86.73,10.27.71,3.42-.02,6.88-.4,10.27-.78,5.61.66,11.29,2.04,16.26,4.77,1.44,1.2,3.4.83,5.13.87,2.54,0,5.16,0,7.7,0,.82.05,1.8-.46,2.57-.7,1.63-.52,3.44-.9,5.13-1.13,4.24-.58,8.57-.41,12.84-.32,2.83.05,5.75-.1,8.56.34.77.1,1.82.33,2.57.55.75.23,1.79.63,2.57.29,7.6-1.65,15.39-2.34,23.1-3.17"/><path class="b" d="M10,17.1c7.19.06,14.5.81,21.39,2.95,3.25.97,6.22,2.82,9.41,3.94,2.82.06,5.73,0,8.56.02,4.82-2.99,10.71-3.61,16.26-3.31,1.14.21,2.35-.52,3.42-.79,1.36-.43,2.89-.87,4.28-1.23,1.66-.62,3.44.12,5.13.18,2.53.18,5.16.17,7.7.07,2.26-.04,4.59-.4,6.85-.44,5.83.55,11.76,1.58,17.11,4.06.79.36,1.83.92,2.57,1.37,1.36.19,2.91.07,4.28.1,2.83,0,5.73,0,8.56,0,1.42.11,2.9-.54,4.28-.77,1.94-.37,4.02-.54,5.99-.56,5.73-.11,11.42,1.19,17.11,1.33.75,0,1.81,0,2.57,0,.76-.19,1.81-.49,2.57-.68,2.23-.58,4.58-1.1,6.85-1.51,5.64-1.03,11.42-1.41,17.11-2.02"/><path class="b" d="M10,14.75c6.91.15,13.92.99,20.54,3.05,2.02.65,4.11,1.47,5.99,2.46,1.08.48,2.15,1.68,3.42,1.48,3.11,0,6.3,0,9.41,0,1.09-.46,2.31-1.12,3.42-1.51,4.08-1.5,8.51-1.99,12.84-2.07,1.95-.55,4.01-1.12,5.99-1.54,1.94-.62,4.03-.32,5.99.02,1.95.28,4.03.29,5.99.23,2.83-.09,5.74-.34,8.56-.66,2.85.16,5.76.69,8.56,1.22,2.89.59,5.82,1.4,8.56,2.52,1.1.45,2.39,1.07,3.42,1.65,1.36.23,2.91.08,4.28.12,3.97,0,8.01,0,11.98,0,1.95-.28,4.02-.56,5.99-.5,1.67.02,3.48.2,5.13.49,3.97.02,8.01,0,11.98,0,1.97-.07,4.11.27,5.99-.44,1.36-.41,2.92-.77,4.28-1.16,1.61-.77,3.43-1.45,5.13-1.96,4.69-1.41,9.67-1.87,14.55-1.59"/></svg>