<?xml version="1.0" encoding="UTF-8"?><svg id="a" xmlns="http://www.w3.org/2000/svg" width="1920" height="2400" viewBox="0 0 192 240"><defs><style>.b{fill:none;stroke:#fff;stroke-miterlimit:10;stroke-width:.3px;}.c{stroke-width:0px;}</style></defs><rect class="c" x="0" width="192" height="240"/><path class="b" d="M10.74,222.02c2.23.66,4.6,1.17,6.79,1.93,3.24,1.2,6.67,2.34,10.18,2.17,1.95-.06,3.99-.42,5.94-.47,1.95.01,4.01.19,5.94.53,3.72.64,7.3,2.12,11.03,2.73,4.26.75,8.49-.81,12.73-1.02,3.99-.26,8.03.58,11.88,1.55,2.51.77,5.05,1.76,7.64,2.23,4.86,1.2,9.37-1.02,13.57-3.2,3.57-1.82,7.32-3.41,11.03-4.92,3.78-1.46,7.2-3.87,11.03-5.2,3.24-1.22,6.79-.86,10.18-.82,3.7,0,7.52-.31,11.03-1.56,6.26-2.3,8.26-4.19,15.27-2.15,3.86.99,7.37,3.06,11.03,4.57,4.86,1.79,10.08,2.95,15.27,3.13"/><path class="b" d="M10.74,219.52c2.19.93,4.56,1.61,6.79,2.42,2.97,1.15,6.11,2.21,9.33,2.2,2.24.03,4.55-.41,6.79-.5,4.67-.11,9.11,1.63,13.57,2.73,3.05.72,6.36.88,9.33-.24,3.76-1.44,7.97-2.53,11.88-.99,1.98.75,4.02,1.69,5.94,2.58,2.19,1.15,4.4,2.53,6.79,3.23,3.97,1.31,7.67-.21,11.03-2.31,3.68-2.23,7.13-4.98,11.03-6.83,2.46-1.22,5.16-2.15,7.63-3.34,3.19-1.67,6.58-3.24,10.18-3.74,3.36-.39,6.83-.07,10.18-.62,4.86-.62,9.13-3.27,13.57-5.13,3.36-1.54,6.88-.86,10.18.49,3.5,1.34,6.76,3.36,10.18,4.88,5.05,2.18,10.67,2.72,16.12,2.81"/><path class="b" d="M10.74,216.1c1.89.93,3.96,1.72,5.94,2.45,2.46,1,5.01,2.11,7.64,2.58,3.36.7,6.8-.06,10.18-.11,3.5.07,6.86,1.36,10.18,2.33,2.71.82,5.66,1.28,8.48.79,5.93-1.46,8.77-5.37,15.27-1.6,2.27,1.43,4.59,3.01,6.79,4.55,3.08,2.38,7.1,4.64,11.03,2.97,2.77-1.22,5.2-3.27,7.64-5.04,2.47-1.99,4.94-4.19,7.63-5.88,2.09-1.33,4.48-2.35,6.79-3.23,3.94-1.57,7.7-3.79,11.88-4.73,4.19-.93,8.59-1.13,12.72-2.36,3.5-1.05,6.79-2.87,10.18-4.2,3.66-1.57,7.42-1.54,11.03.18,3.19,1.39,6.24,3.25,9.33,4.85,5.47,2.88,11.76,3.36,17.81,3.78"/><path class="b" d="M10.74,212.25c2.47,1.24,5.14,2.25,7.64,3.43,3.92,1.97,8.31,3.19,12.73,2.64,3.41-.48,6.88-.14,10.18.82,15.26,4.6,14.49-3.11,22.91-1.73,2.61.7,4.78,2.59,6.79,4.31,1.32,1.13,2.91,2.26,4.24,3.37,3.94,3.41,8.12,5.22,12.73,1.75,2.27-1.74,4.63-3.58,6.79-5.46,2.88-2.61,5.84-5.37,9.33-7.15,2.15-1.12,4.58-1.87,6.79-2.86,3.05-1.5,6.16-3.07,9.33-4.29,4.15-1.45,8.49-2.55,12.72-3.71,3.1-.87,6.21-2.01,9.33-2.8,4.18-1.14,8.72-1.02,12.72.72,4.01,1.54,7.81,3.72,11.88,5.12,4.67,1.65,9.59,2.56,14.42,3.59"/><path class="b" d="M10.74,208.34c2.24.95,4.61,1.86,6.79,2.94,3.96,2.06,8.15,4.19,12.73,4.19,2.52.04,5.12-.29,7.64-.02,5.34.53,10.84,1.73,16.12.14,2.76-.88,5.48-2.58,8.48-2.28,4.16.44,7.06,3.89,10.18,6.31,3.44,2.58,7.16,6.51,11.88,5.37,2.23-.53,4.16-2.08,5.94-3.45,3.88-2.67,7.16-6.22,11.03-8.9,2.56-1.79,5.58-2.93,8.48-4.02,2.01-.81,4.03-1.9,5.94-2.93,4.6-2.61,9.44-4.91,14.42-6.68,7.13-2.13,14.72-2.17,22.06-1.31,10.06,1.53,19.32,6,28.84,9.33"/><path class="b" d="M10.74,204.27c2.28.64,4.65,1.37,6.79,2.39,4.13,1.99,8.16,4.53,12.73,5.38,2.77.53,5.68.27,8.48.41,3.94.09,7.96.35,11.88-.18,1.68-.23,3.49-.49,5.09-1.06,2.42-.85,5.04-1.78,7.64-1.32,8.2,1.61,13.67,13.14,22.91,9.82,2.96-1.35,5.83-3.19,8.48-5.07,3-2.35,5.93-4.99,9.33-6.75,3.5-1.84,7.52-2.61,11.03-4.44,3.46-1.74,6.77-3.92,10.18-5.76,1.88-1.09,3.85-2.35,5.94-3.02,5.2-1.85,10.8-1.14,16.12-.28,2.5.33,5.13.19,7.63.46,4.64.33,9.31,1.29,13.57,3.19,4.28,2.03,8.25,4.82,12.72,6.44"/><path class="b" d="M10.74,200.24c7.1.68,12.94,5.14,19.51,7.43,3.25,1.11,6.8.91,10.18.92,3.95-.06,7.96-.18,11.88-.67,4-.27,7.81-2.5,11.88-1.83,3.16.45,5.9,2.37,8.48,4.12,4.97,3.5,10.18,5.76,16.12,3.07,1.95-.86,4.14-1.52,5.94-2.68,3.62-2.35,6.98-5.3,11.03-6.91,3.83-1.56,8.12-1.86,11.88-3.63,2.6-1.18,5.19-2.64,7.64-4.11,1.9-1.2,3.84-2.65,5.94-3.5,5.97-2.67,10.65-2.5,16.97-1.71,4.51.12,9.13-.25,13.57.76,2.64.63,5.31,1.64,7.63,3.06,3.91,2.45,7.48,5.68,11.88,7.26"/><path class="b" d="M10.74,196.17c7.33.14,13.74,3.99,20.36,6.63,3.22,1.2,6.79,1.18,10.18,1.19,4.23-.03,8.51-.25,12.73-.61,3.93-.56,7.83-2.36,11.88-1.64,4.36.65,7.78,3.82,11.88,5.21,3.78,1.41,7.99,1.47,11.88.45,2-.42,4.16-.74,5.94-1.83,4.79-2.84,9.49-6.48,15.27-6.77,2.82-.2,5.76-.24,8.48-1.09,3.69-1.03,7.01-3.09,10.18-5.17,4.1-2.1,8.16-4.66,12.72-5.6,3.05-.63,6.25-.45,9.33-.7,6.26-.41,12.6.51,17.81,4.23,3.91,2.77,7.28,6.58,11.88,8.27"/><path class="b" d="M10.74,191.95c4.62.04,9.23,1.22,13.57,2.73,3.11,1.1,6.14,2.63,9.33,3.48,4.98,1.13,10.2.96,15.27.72,2.82-.2,5.75-.26,8.48-1.04,4.41-1.3,9.29-1.94,13.57.14,3.98,1.97,8.23,3.66,12.73,3.86,2.23.2,4.57-.05,6.79-.29,1.38-.1,2.94-.17,4.24-.72,4.02-1.66,7.56-4.58,11.88-5.5,3.06-.75,6.26-.2,9.33.16,2.24.23,4.62.02,6.79-.61,2.75-.7,5.16-2.42,7.63-3.74,3.84-1.85,7.15-4.78,11.03-6.57,3.93-1.9,8.43-2.23,12.72-2.5,6.62-.54,12.97,1.28,17.81,5.96,2.9,2.61,5.74,5.59,9.33,7.24"/><path class="b" d="M10.74,188.02c2.26,0,4.57.42,6.79.82,2.84.45,5.74,1,8.48,1.86,3.94,1.17,7.75,3.11,11.88,3.56,3.95.48,7.97-.04,11.88-.61,1.65-.25,3.44-.39,5.09-.6,1.95-.29,3.98-.77,5.94-1.04,5.58-.92,9.36.72,14.42,2.55,3.82,1.18,7.89,1.67,11.88,1.68,1.94-.07,4-.13,5.94-.16,3.62-.46,6.78-2.63,10.18-3.82,2.67-1.01,5.64-1.44,8.48-1.06,5.32,1.03,9.94,2.65,15.27.3,1.96-.88,4.08-1.76,5.94-2.84,3.13-1.91,6.08-4.28,9.33-6.01,4.4-2.44,9.52-3.09,14.42-3.86,12.85-2.02,15.69,6.17,24.6,12.43"/><path class="b" d="M10.74,184.46c2.26.06,4.55.6,6.79.89,2.52.29,5.15.5,7.64,1.03,3.82.71,7.34,2.54,11.03,3.68,3.92,1.04,8.04.31,11.88-.74,2.74-.8,5.65-1.02,8.48-1.27,3.35-.38,6.81-.7,10.18-.29,2.87.29,5.67,1.29,8.48,1.84,2.77.54,5.67.73,8.48.92,2.22.21,4.56.22,6.79.29,1.65.11,3.45.28,5.09-.04,4.3-.74,8.37-2.71,12.72-3.21,4.67-.76,9.02,1.69,13.57,2.18,6.93.9,13.01-3.36,18.66-6.75,4.18-2.59,8.85-4.32,13.57-5.63,13.69-4.61,17.61,1.05,27.15,9.53"/><path class="b" d="M10.74,180.9c2.26.1,4.54.69,6.79.87,3.39.21,6.89.21,10.18,1.13,5.12,1.31,8.81,4.69,14.42,3.9,3.19-.31,6.2-1.73,9.33-2.29,1.92-.32,4-.2,5.94-.35,3.08-.18,6.24-.42,9.33-.35,3.12,0,6.23.77,9.33.94,3.66.14,7.38.06,11.03.41,3.11.07,6.23.77,9.33.84,3.43.08,6.85-.69,10.18-1.42,4.88-1.23,8.04-.54,12.72.88,8.07,2.5,12.96.25,20.36-2.81,16.26-6.99,26.41-14.25,41.57.21"/><path class="b" d="M10.74,177.49c3.09.16,6.22.78,9.33.55,4.69-.28,9.41.66,13.57,2.86,3.86,2.16,8.52,2.52,12.73,1.23,1.92-.53,3.95-1.13,5.94-1.28,2.23-.02,4.56.09,6.79-.16,4.5-.4,9.03-1.48,13.57-1.1,4.51.37,9.07-.62,13.57-.09,1.95.14,4.02.31,5.94.68,2.51.52,5.07,1.31,7.64,1.52,5.15.61,10.13-2.01,15.27-1.2,4.24.63,8.41,2.07,12.72,2.1,1.67.06,3.44-.35,5.09-.58,1.94-.25,4-.44,5.94-.73,2.88-.42,5.8-1.17,8.48-2.3,3.29-1.49,6.59-3.18,10.18-3.82,3.9-.89,7.96-.56,11.88.05,4.63.28,8.23,1.03,11.88,4.17"/><path class="b" d="M10.74,174.68c1.95-.12,4,.05,5.94-.02,1.66-.11,3.43-.4,5.09-.57,5.53-.73,9.48.83,14.42,2.89,3.52,1.25,7.39,1.36,11.03.58,1.64-.29,3.42-.57,5.09-.57,2.52.18,5.14.26,7.64-.21,3.4-.54,6.75-1.69,10.18-2.04,2.51-.18,5.13.09,7.64-.26,4.78-.63,9.69-.52,14.42.41,3.39.81,6.66,2.39,10.18,2.62,3.97.36,7.91-1.05,11.88-.69,3.12.21,6.23,1.01,9.33,1.36,1.65.18,3.43.42,5.09.48,1.36.06,2.88-.16,4.24-.11,5.4.37,11.01,1.35,16.12-1.08,2.63-1.33,5.53-2.28,8.48-2.49,3.95-.43,7.93.35,11.88.4,4.36-.38,7.78-1.54,11.88,1.06"/><path class="b" d="M10.74,172.55c2.22-.46,4.58-.59,6.79-1.1,4.12-1.08,8.47-2.13,12.73-1.13,3.95.91,7.79,2.56,11.88,2.82,2.52.26,5.12-.09,7.64-.15,1.96-.11,3.99.29,5.94.34,4.7.04,9.05-2.1,13.57-3.03,2.49-.52,5.12-.1,7.64-.24,5.37-.31,10.82-.14,16.12.83,3.08.7,6.17,1.74,9.33,2.06,3.08.37,6.25.03,9.33.24,3.1.22,6.24.73,9.33,1.04,3.38.18,6.81.5,10.18.74,3.7.33,7.3,1.71,11.03,1.87,1.96.11,4.06-.13,5.94-.72,1.65-.54,3.36-1.38,5.09-1.64,3.91-.62,7.94-.05,11.88.07,5.99.61,10.24-3.47,16.12-.74"/><path class="b" d="M10.74,170.93c2.21-.76,4.59-1.33,6.79-2.15,3.76-1.49,7.78-2.83,11.88-2.33,4.24.53,8.45,1.71,12.73,2.01,2.51.24,5.12.03,7.64.13,1.96.02,3.99.5,5.94.58,5.3.18,10.08-2.75,15.27-3.28,1.95-.13,4,.2,5.94.33,2.8.24,5.69.39,8.48.72,5.66.37,11.34.88,16.97,1.56,2.53.29,5.15.61,7.63,1.14,2.77.69,5.64,1.34,8.48,1.6,3.08.39,6.27-.04,9.33.45,3.47.43,6.82,1.67,10.18,2.58,3.87,1.08,8.07,1.11,11.88-.25,2.69-.98,5.68-.76,8.48-.63,2.52.13,5.14.06,7.63-.28,5.58-.93,9.26-4.17,15.27-1.84"/><path class="b" d="M10.74,169.34c2.25-.92,4.61-1.86,6.79-2.94,3.66-1.92,7.66-3.63,11.88-3.41,2.52.11,5.11.45,7.64.53,4.23.33,8.5-.13,12.73-.14,2.54.02,5.09.8,7.64.67,4.89-.09,9.53-2.34,14.42-2.3,5.11.41,10.13,1.99,15.27,2.2,5.64.29,11.42-.75,16.97.6,4.7,1.11,8.77,4.14,13.57,4.93,3.05.71,6.27.29,9.33.78,2.92.48,5.68,1.78,8.48,2.67,6.06,2.04,10.14,1.3,16.12-.24,3.94-.42,8.04.17,11.88-1.05,6.9-1.88,9.96-5.94,17.81-3.29"/><path class="b" d="M10.74,167.62c3.59-1.38,6.88-3.51,10.18-5.46,2.83-1.63,6.06-2.69,9.33-2.78,3.38-.05,6.83-.19,10.18-.7,3.1-.38,6.21-1.21,9.33-1.34,1.97-.12,4,.32,5.94.55,1.65.17,3.44.18,5.09.09,3.94-.19,7.93-1.08,11.88-.56,3.14.47,6.2,1.62,9.33,2.12,5.61,1.14,11.33-.21,16.97-.08,6.67.29,11.13,6.01,16.97,8.43,1.86.8,3.94,1.4,5.94,1.71,1.66.23,3.47.34,5.09.79,3.74.99,7.15,3.18,11.03,3.67,4.3.73,8.6-.47,12.73-1.55,3.67-.59,7.57-.35,11.03-1.92,7.63-3.24,10.17-8.04,19.51-5.82"/><path class="b" d="M10.74,165.33c6.23-2.01,10.68-7.49,16.97-9.37,3.87-1.1,8.01-1.14,11.88-2.27,4.18-.98,8.36-2.75,12.73-2.48,3.36.43,6.79.87,10.18.83,3.95.03,8.02-.24,11.88.78,3.6.99,7.26,2.13,11.03,2.18,4.22,0,8.52-.74,12.73-.13,7.02,1.2,11.09,7.87,16.97,11.24,3.32,2.21,7.21,3.3,11.03,4.26,2.61.77,5.08,2.14,7.64,3.05,5.27,2.02,10.96.72,16.12-1,3.64-.96,7.61-.88,11.03-2.63,7.72-3.82,10.66-9.18,20.36-9.08"/><path class="b" d="M10.74,162.62c6.18-1.13,10.6-6.18,16.12-8.81,3.45-1.83,7.36-2.62,11.03-3.87,3.89-1.26,7.78-2.9,11.88-3.36,3.39-.35,6.8.48,10.18.63,3.93.31,7.95,0,11.88.39,3.44.38,6.76,1.68,10.18,2.15,3.35.57,6.81.14,10.18.13,8.56-.31,13.02,6.32,18.66,11.5,3.16,2.58,6.6,4.96,10.18,6.91,2.18,1.15,4.59,2.1,6.79,3.21,7.61,4,12.39,4.34,20.36.91,2.99-1.29,6.29-1.92,9.33-3.07,4.96-1.84,9.13-5.26,13.57-8.03,3.12-1.89,6.65-3.15,10.18-4.01"/><path class="b" d="M10.74,159.32c4.68.15,8.81-2.67,12.73-4.9,3.84-2.34,7.69-4.83,11.88-6.52,5.59-2.59,11.53-5.06,17.82-4.7,3.38.1,6.8.65,10.18.61,3.37.04,6.81-.53,10.18-.27,3.99.46,7.86,1.93,11.88,2.31,3.64.51,7.54-.3,11.03,1.08,5.69,2.34,9.15,7.84,13.57,11.83,2.64,2.19,5.72,3.95,8.48,5.97,3.85,2.63,7.7,5.45,11.88,7.54,7.67,3.59,12.58,1.15,19.51-2.47,7-3.08,13.69-6.88,20.36-10.6,3.53-1.88,7.34-3.33,11.03-4.85"/><path class="b" d="M10.74,155.17c4,.73,8.17-.53,11.88-1.99,3.95-1.68,7.35-4.47,11.03-6.63,8.16-4.66,11.79-5.86,21.21-5.91,3.37.08,6.81.54,10.18.14,3.38-.28,6.76-1.51,10.18-1.15,4.06.52,7.87,2.34,11.88,3.09,3.06.76,6.44.1,9.33,1.54,5.16,2.52,8.49,7.52,12.73,11.21,2.22,1.96,5.16,3.01,7.63,4.59,4.17,2.48,7.83,5.8,11.88,8.45,2.29,1.36,4.99,2.26,7.63,2.59,4.33.48,8.33-1.77,11.88-3.97,3.45-1.9,6.8-4.1,10.18-6.11,7.24-4.1,15.51-5.98,22.9-9.75"/><path class="b" d="M10.74,150.3c1.91.5,3.97.63,5.94.6,2.85.12,5.84-.12,8.48-1.28,3.36-1.41,6.19-3.89,9.33-5.68,4.73-2.91,9.63-5.14,15.27-5.28,1.96-.06,3.99-.47,5.94-.55,2.8-.03,5.7.22,8.48-.19,3.74-.36,7.25-2.39,11.03-2.34,4.53.35,8.44,3.11,12.73,4.35,1.61.52,3.41.72,5.09.75,2.5.25,4.83,1.6,6.79,3.1,3.83,2.87,6.84,6.92,11.03,9.31,2.78,1.24,5.86,2.03,8.48,3.62,3.6,2.02,6.62,5.04,10.18,7.12,1.57.79,3.4,1.39,5.09,1.89,4.09,1.27,8.41-.12,11.88-2.4,2.22-1.43,4.63-2.81,6.79-4.35,2.87-2.03,5.92-4.1,9.33-5.09,6.32-1.68,12.97-2.85,18.66-6.23"/><path class="b" d="M10.74,145.13c1.92.44,3.98.71,5.94.93,3.07.51,6.35.78,9.33-.3,3.87-1.43,7.29-3.96,11.03-5.68,3.93-2.15,8.27-3.52,12.73-4,2.26-.22,4.52-1,6.79-1.11,3.69-.12,7.49-.15,11.03-1.33,1.96-.58,3.95-1.44,5.94-1.93,4.25-.78,8.14,1.79,11.88,3.43,1.59.72,3.36,1.41,5.09,1.72,1.06.19,2.34.14,3.39.35,1.12.23,2.39.74,3.39,1.28,5.3,2.79,8.83,8.33,14.42,10.59,2.82.87,5.86,1.41,8.48,2.83,2.99,1.52,5.62,3.8,8.48,5.54,2.35,1.29,5.04,2.18,7.63,2.82,2.85.63,5.9.06,8.48-1.25,2.6-1.35,5.17-2.99,7.64-4.57,2.39-1.61,4.9-3.29,7.63-4.25,2.7-.97,5.69-1.08,8.48-1.67,4.46-1.03,8.9-2.54,12.72-5.12"/><path class="b" d="M10.74,140.21c3.69.32,7.37,1.05,11.03,1.56,3.49.41,6.99-.51,10.18-1.85,2.26-.87,4.61-1.81,6.79-2.87,5.07-2.58,10.7-3.62,16.12-5.18,3.05-.66,6.26-.58,9.33-1.07,3.75-.4,7.32-2.21,11.03-2.42,4.48.07,8.51,2.49,12.73,3.72,1.61.52,3.42.81,5.09,1.04,2.83.61,5.35,2.34,7.63,4.05,3.5,2.57,6.78,5.88,11.03,7.17,2.25.6,4.64,1.07,6.79,2,5.04,2.09,8.9,6.6,14.42,7.56,3.01.87,6.32,1.19,9.33.19,5.5-1.88,9.97-5.94,15.27-8.24,3.18-1.44,6.78-1.33,10.18-1.7,4.78-.81,9.52-2.39,13.57-5.1"/><path class="b" d="M10.74,136.17c1.95,0,4.01,0,5.94.26,1.96.28,3.99.78,5.94,1.11,7.09,1.37,13.17-.62,19.51-3.56,3.29-1.38,6.77-2.42,10.18-3.46,3.53-1.36,7.31-2.02,11.03-2.64,3.94-.58,7.88-1.81,11.88-1.89,3.73.09,7.4,1.17,11.03,1.96,3.13.76,6.54,1.08,9.33,2.81,4.79,2.87,8.96,7.04,14.42,8.66,3.51.81,7.12,1.68,10.18,3.68,2.57,1.54,4.95,3.58,7.64,4.93,1.53.83,3.39,1.05,5.09,1.22,2.8.35,5.76.34,8.48-.48,5.84-1.74,10.46-6.16,16.12-8.31,3.23-1.26,6.8-.86,10.18-1.09,4.68-.69,9.48-1.71,13.57-4.18"/><path class="b" d="M10.74,133.24c1.94-.18,3.99-.42,5.94-.27,3.44.28,6.8,1.34,10.18,1.97,6.51,1.39,10.2-.2,16.12-2.41,3.88-1.44,8-2.32,11.88-3.78,14.31-5.55,15.48-5.49,30.54-4.02,7.66.37,9.47,2.74,15.27,6.95,2.28,1.61,4.89,2.95,7.64,3.54,1.64.38,3.46.48,5.09.9,1.75.46,3.54,1.3,5.09,2.22,3.17,1.83,5.93,4.51,9.33,5.93,1.57.7,3.42.6,5.09.56,2.53-.02,5.16-.14,7.63-.72,4.67-1.05,8.73-3.82,12.73-6.34,2.78-1.76,6-3.07,9.33-3.1,1.65-.05,3.44.05,5.09-.05,1.37-.09,2.88-.44,4.24-.56,3.19-.29,6.44-.94,9.33-2.34"/><path class="b" d="M10.74,130.89c9.84-2.03,13.29,1.61,22.06,2.49,4.34.04,8.49-1.77,12.73-2.52,2.8-.64,5.76-1.01,8.48-1.94,2.37-.87,4.62-2.26,6.79-3.52,3.38-1.97,7.02-4.09,11.03-4.21,4.5.28,9.05.61,13.57.54,7.64-.3,9.6,3.3,15.27,7.18,2.24,1.52,4.92,2.53,7.64,2.67,5.45-.04,8.2,1,12.72,4,2.38,1.52,4.81,3.36,7.64,3.91,1.36.27,2.88-.08,4.24-.15,2.23-.13,4.56-.1,6.79-.3,5.67-.34,9.87-3.15,14.42-6.22,2.53-1.6,5.47-2.78,8.48-2.89,1.65-.09,3.44.02,5.09,0,1.36-.04,2.88-.29,4.24-.27,3.12.03,6.37-.1,9.33-1.18"/><path class="b" d="M10.74,128.21c8.99-1.93,12.96,1.05,21.21,2.45,3.98.42,7.93-.87,11.88-1.17,3.95-.52,8.25-.27,11.88-2.15,5.67-2.89,10.21-8.96,16.97-9.19,3.37.17,6.81.34,10.18.27,9.43-.31,9.79.95,16.97,6.26,2.23,1.56,4.89,2.72,7.64,2.84,2.81.1,5.73-.33,8.48.41,3.84.82,7.25,3.06,11.03,4.07,2.8.75,5.63-.33,8.48.14,4.21.48,8.72,1.26,12.73-.6,4.49-2.18,8.39-5.97,13.57-6.44,3.08-.29,6.24.14,9.33.05,3.37.26,6.86.6,10.18-.26"/><path class="b" d="M10.74,125.47c8.67-1.92,13.19,1.28,21.21,2.56,3.95.36,7.93-.64,11.88-.79,4.65-.31,9.68-.4,13.57-3.31,4.58-3.02,8.77-7.42,14.42-8.24,3.94-.18,7.95-.24,11.88-.71,2.51-.2,5.16-.5,7.64.08,5.36,1.66,8.92,6.92,14.42,8.42,3.85,1.14,7.94.36,11.88.3,4.81-.15,9.61,1.18,14.42.56,4-.04,7.9,1.35,11.88,1.5,4.67.38,8.64-2.47,12.72-4.25,3.97-1.85,8.44-2.01,12.72-1.48,3.93.41,7.9,1.39,11.88.94"/><path class="b" d="M10.74,122.71c8.05-1.76,12.81,1.13,20.36,2.38,3.65.45,7.38-.31,11.03-.44,3.69-.23,7.53-.42,11.03-1.73,6.15-2.64,10.95-8.26,17.82-9.31,4.53-.52,9.1-1.04,13.57-1.98,6-1.13,8.65-.56,13.57,3.05,4.62,3.39,10.15,6.84,16.12,5.51,3.1-.65,6.16-1.8,9.33-2.08,7.34-.77,14.72.17,22.06.45,6.81.35,12.8-3.87,19.51-4.18,2.56-.11,5.15.55,7.64,1.09,2.77.6,5.65,1.04,8.48,1.2"/><path class="b" d="M10.74,119.93c7.42-1.45,11.63.52,18.66,1.72,3.08.56,6.24.02,9.33-.05,3.66-.14,7.44.02,11.03-.86,8.56-2.3,11.28-8.53,22.06-9.6,3.68-.53,7.4-1.18,11.03-2.01,3.31-.64,6.85-1.52,10.18-.56,3.91,1.18,7.35,3.62,11.03,5.33,9.43,4.45,10.84.88,19.51-.73,1.64-.22,3.44-.33,5.09-.28,1.65.07,3.44.31,5.09.11,2.82-.29,5.67-.95,8.48-1.25,2.79-.31,5.69-.3,8.48-.05,4.96.28,9.57-2.14,14.42-2.66,2.6-.3,5.14.75,7.64,1.31,2.77.63,5.67,1.06,8.48,1.51"/><path class="b" d="M10.74,117.36c2.51-.28,5.1-.76,7.64-.54,4.25.28,8.46,1.36,12.73,1.43,2.81.01,5.67-.53,8.48-.27,3.94.21,8.07.79,11.88-.57,2.78-.96,5.2-2.86,7.64-4.46,3.52-2.47,7.6-4.11,11.88-4.6,3.36-.61,6.8-1.18,10.18-1.69,3.34-.5,6.8-1.04,10.18-.73,4.93.77,9.62,2.7,14.42,3.98,8.97,2.63,9.86-.27,17.81-.85,2.53-.08,5.13.17,7.64.49,4.49.09,8.38-2.89,12.72-3.65,2.51-.59,5.16-.24,7.63.36,4.03.65,8.02-.73,11.88-1.69,1.33-.29,2.88-.42,4.24-.24,1.4.21,2.86.87,4.24,1.16,3.05.71,6.26.94,9.33,1.49"/><path class="b" d="M10.74,115.16c2.24-.17,4.54-.67,6.79-.75,3.09-.14,6.24.05,9.33.08,1.95.02,4-.02,5.94-.22,1.36-.16,2.87-.38,4.24-.31,4.54.12,9.01,2.17,13.57,1.36,3.23-.57,5.89-2.78,8.48-4.64,3.06-2.27,6.43-4.36,10.18-5.25,6.62-1.75,13.57-1.82,20.36-1.38,4.5.6,9.03,1.37,13.57,1.59,3.37.16,6.81.62,10.18.47,3.37-.36,6.76-1.32,10.18-1.07,2.52.14,5.12.49,7.64.67,4.53-.15,8.35-3.27,12.72-4.14,7.75-1.45,6.88,2.62,18.66-.72,1.61-.39,3.43-.64,5.09-.43,1.39.2,2.86.84,4.24,1.08,3.05.59,6.26.6,9.33,1.06"/><path class="b" d="M10.74,112.92c3.4.07,6.82-.71,10.18-1.12,5.07-.64,10.16-1.7,15.27-1.95,5.15,0,10.09,2.89,15.27,1.96,2.84-.55,5.28-2.38,7.64-3.95,2.87-1.98,5.95-3.89,9.33-4.86,2.74-.73,5.63-1.41,8.48-1.33,4.8.15,9.64.64,14.42,1.02,5.33.85,10.76-.09,16.12-.11,2.52-.06,5.15.17,7.63-.33,3.9-.82,7.89-1.33,11.88-1.12,1.65,0,3.45.12,5.09-.04,4.35-.68,8.33-3.02,12.72-3.52,2.54-.41,5.14.11,7.63.57,2.21.32,4.57.31,6.79-.02,3.08-.44,6.19-1.57,9.33-1.18,4.17.93,8.54.76,12.72,1.59"/><path class="b" d="M10.74,109.98c3.11.51,6.3-.19,9.33-.83,4.21-.93,8.43-2.13,12.73-2.57,5.17-.69,10.19,1.15,15.27,1.66,3.64.38,7.14-1.05,10.18-2.93,2.96-1.73,6.02-3.53,9.33-4.5,2.46-.66,5.08-1.25,7.64-1.31,4.23.13,8.49.78,12.73.75,2.52-.08,5.12.22,7.64.09,4.79-.36,9.62-.62,14.42-.43,3.76.22,7.4-1.05,11.03-1.83,3.89-.83,7.95-.97,11.88-1.57,7.24-1.68,12.73-3.72,20.36-2.09,2.21.34,4.55.54,6.79.33,2.25-.2,4.55-.8,6.79-1.07,1.64-.23,3.44-.06,5.09-.05,3.12,0,6.33.23,9.33,1.12"/><path class="b" d="M10.74,105.99c3.35.8,6.85.1,10.18-.48,4.19-.77,8.45-1.67,12.73-1.63,5.94-.06,11.89,1.68,17.82.84,3.68-.49,6.92-2.56,10.18-4.19,2.91-1.5,6.09-2.67,9.33-3.17,3.63-.83,7.36-.08,11.03-.06,3.68.11,7.36-.7,11.03-.68,3.37-.1,6.82-.32,10.18.04,3.36.29,6.8,1.11,10.18.61,4.02-.65,7.88-2.23,11.88-3.04,4.49-1.05,9.1-1.7,13.57-2.81,3.88-.81,7.9-1.46,11.88-1.24,2.82.28,5.64,1.18,8.48,1.32,2.84.18,5.71-.5,8.48-1.02,4.49-.76,9.24-1.11,13.57.56"/><path class="b" d="M10.74,101.26c2.77.6,5.68.34,8.48.22,3.37-.16,6.81-.31,10.18-.25,7.33.09,14.75,1.53,22.06.41,4.07-.5,7.53-2.93,11.03-4.88,3.12-1.78,6.58-3.14,10.18-3.49,3.37-.34,6.81.42,10.18.06,3.68-.24,7.32-1.42,11.03-1.22,2.82-.03,5.73.21,8.48.85,3.07.66,6.15,1.85,9.33,1.85,4.34-.09,8.53-1.63,12.72-2.57,3.07-.83,6.25-1.51,9.33-2.29,3.64-.98,7.31-2.13,11.03-2.82,2.2-.38,4.55-.77,6.79-.52,3.11.46,6.16,1.71,9.33,1.82,7.09.13,13.15-3.77,20.36-.96"/><path class="b" d="M10.74,96.51c3.36.39,6.82.23,10.18.67,6.19.77,12.43,1.32,18.66,1.65,4.78.35,9.73,1.12,14.42-.25,6.13-2.28,10.43-8.22,16.97-9.67,2.48-.6,5.12-.3,7.64-.23,2.24.07,4.58-.16,6.79-.52,3.06-.58,6.22-.99,9.33-.57,4.37.23,8.58,1.62,12.73,2.91,4.39,1.38,9.1.69,13.57.17,3.99-.47,8.03-1.18,11.88-2.37,3.15-1.03,6.23-2.46,9.33-3.6,3.75-1.4,7.93-2.56,11.88-1.27,3.3.94,6.71,2.02,10.18,1.79,5.65-.32,11.31-2.52,16.97-1.07"/><path class="b" d="M10.74,92.25c2.24.17,4.59.27,6.79.75,3.35.76,6.73,1.76,10.18,1.99,3.66.29,7.37-.19,11.03-.15,3.4-.01,6.8.74,10.18,1.02,3.32.36,6.67-.57,9.33-2.6,4.81-3.25,9.12-8.36,15.27-8.79,2.52-.19,5.14-.33,7.64-.8,2.52-.45,5.08-1.17,7.64-1.41,1.67-.2,3.46.08,5.09.42,2.26.4,4.6.91,6.79,1.61,3.67,1.1,7.2,2.97,11.03,3.51,6.77.68,13.78.41,20.36-1.42,4.18-1.29,7.95-3.69,11.88-5.56,3.57-1.82,7.11-2.55,11.03-1.32,3.89,1.1,7.8,2.5,11.88,2.63,4.79.18,9.63-.5,14.42-.02"/><path class="b" d="M10.74,88.04c1.97.17,4.06.44,5.94,1.05,2.5.86,5.01,2.02,7.64,2.41,6.58.95,12.9-2.95,19.51-1.84,4.91.77,8.91,2.34,13.57-.42,4.94-2.57,8.92-7.11,14.42-8.56,2.23-.38,4.58-.61,6.79-1.12,4.7-1.01,9.7-2.9,14.42-.99,3.41,1.01,6.89,2.01,10.18,3.37,2.5.99,5.04,2.16,7.63,2.85,2.18.56,4.54.73,6.79.68,6.01-.26,12.2-1.03,17.81-3.28,10.88-5,12.4-9.91,25.45-5.21,6.52,2.3,13.44,3.63,20.36,3.72"/><path class="b" d="M10.74,83.43c3.32.34,6.39,1.73,9.33,3.2,3.65,1.78,7.45,1.4,11.03-.32,2.18-.98,4.53-1.81,6.79-2.6,7.05-2.52,10.21,1.1,16.12.3,5.59-1.01,10.16-4.7,15.27-6.92,1.84-.83,3.96-1.02,5.94-1.29,2.52-.38,5.11-.91,7.64-1.22,3.45-.55,7.04,0,10.18,1.54,2.48,1,5.13,1.79,7.63,2.69,8.62,2.99,11.64,6.06,21.21,3.47,2.53-.57,5.11-1.34,7.63-1.96,2.87-.59,5.82-1.3,8.48-2.57,3.47-1.54,6.64-3.86,10.18-5.26,4.09-1.33,8.66-1.05,12.72.23,3.71,1.24,7.35,2.88,11.03,4.2,2.95,1.22,6.1,2.33,9.33,2.31"/><path class="b" d="M10.74,78.04c1.7.32,3.5.85,5.09,1.53,1.96.94,3.87,2.26,5.94,2.97,4.65,1.8,8.72-1.5,12.73-3.37,3.2-1.53,6.51-3.48,10.18-3.29,2.55.09,5.09.98,7.64,1.08,6.33-.18,11.92-3.55,17.82-5.41,2.73-.71,5.68-.61,8.48-.62,4.05.09,8.2.67,11.88,2.47,5.61,2.92,11.93,4.09,17.82,6.33,1.89.63,3.91,1.44,5.94,1.39,5.07-.25,9.64-2.94,14.42-4.37,3.97-1.06,8.16-1.63,11.88-3.51,2.54-1.16,5.02-2.67,7.64-3.66,4.07-1.17,8.54-1.84,12.72-.89,3.56.85,6.91,2.6,10.18,4.19,3.17,1.76,6.46,3.78,10.18,3.97"/><path class="b" d="M10.74,72.3c2,.45,4.11,1.08,5.94,2.03,2.14,1.14,4.34,2.55,6.79,2.89,4.12.6,7.49-2.34,11.03-3.91,3.2-1.53,6.52-3.39,10.18-3.26,2.25.05,4.54.66,6.79.82,5.62,0,10.87-2.61,16.12-4.33,4.45-1.69,9.31-.78,13.57,1.03,4.11,1.53,7.92,3.84,11.88,5.71,4.06,1.6,8.53,1.9,12.72,2.99,2.52.53,5.06,1.53,7.63,1.72,5.09-.06,9.7-2.82,14.42-4.42,4.15-1.47,8.67-1.87,12.72-3.66,2.53-1.01,5.05-2.33,7.64-3.2,1.32-.44,2.89-.61,4.24-.91,4.16-1,8.64-1.42,12.72.11,5.68,1.73,10.16,6.42,16.12,7.28"/><path class="b" d="M10.74,67.4c1.97.58,4.05,1.24,5.94,2.05,2.87,1.37,6.14,2.64,9.33,1.68,2.72-.74,5.1-2.5,7.64-3.66,2.95-1.2,6.11-2.3,9.33-2.23,2.54.02,5.1.74,7.64.86,2.31.15,4.6-.74,6.79-1.36,3.66-1.11,7.28-2.58,11.03-3.38,4.61-1.07,8.06.05,11.88,2.64,3.91,2.48,7.62,5.52,11.88,7.4,3.49,1.34,7.37,1.01,11.03,1.3,3.12.15,6.24.83,9.33,1.2,5.01.11,9.72-2.19,14.42-3.64,3.29-1.23,6.8-1.91,10.18-2.83,3.44-.92,6.78-2.37,10.18-3.41,1.9-.58,4.03-.67,5.94-1.2,3.56-.93,7.34-1.91,11.03-1.18,6.19,1.19,10.79,6.35,16.97,7.59"/><path class="b" d="M10.74,62.96c10.93,3.64,11.4,5.26,22.06-.3,2.65-1.09,5.65-1.35,8.48-1.07,3.1.27,6.2,1.3,9.33,1.11,2.66-.18,5.11-1.57,7.64-2.31,3.56-1.18,7.28-2.15,11.03-2.4,2.58-.18,5.35-.15,7.64,1.23,4.71,2.69,8.64,6.72,13.57,9.05,3.7,1.73,7.93.97,11.88.99,3.67-.12,7.37.62,11.03.49,2.58-.21,5.16-.97,7.63-1.67,2.23-.62,4.58-1.22,6.79-1.95,4.48-1.46,9.11-2.6,13.57-4.11,2.2-.71,4.51-1.49,6.79-1.92,1.65-.27,3.46-.3,5.09-.7,3.86-.87,7.92-2,11.88-1.08,2.73.6,5.2,2.15,7.64,3.46,2.66,1.45,5.53,2.77,8.48,3.5"/><path class="b" d="M10.74,58.7c4.9,1.51,10.06,4.01,15.27,2.68,2.59-.61,5.06-1.91,7.64-2.55,4.56-1.02,9.06.99,13.57,1.36,1.68.12,3.5-.09,5.09-.64,1.94-.78,3.92-1.78,5.94-2.34,3.82-1.18,7.91-1.31,11.88-1.1,1.96.1,4.1-.02,5.94.8,5.29,2.28,9.64,6.61,15.27,8.19,4.16.91,8.51.2,12.72.65,3.08.21,6.26.75,9.33.26,2.57-.42,5.14-1.28,7.63-2,2.52-.7,5.15-1.34,7.64-2.15,6.28-1.74,12.32-4.61,18.66-6.02,1.92-.37,4.01-.21,5.94-.48,3.63-.44,7.42-.91,11.03-.07,2.7.58,5.17,2.04,7.63,3.21,2.95,1.38,6.14,2.41,9.33,3.04"/><path class="b" d="M10.74,54.54c1.94.54,4,1.07,5.94,1.62,2.19.71,4.48,1.51,6.79,1.7,3.16.31,6.29-.66,9.33-1.36,5.35-1.26,10.75,1.46,16.12.51,2.4-.35,4.58-1.63,6.79-2.53,4.32-1.74,9.08-1.27,13.57-.59,1.93.34,4.03.15,5.94.58,4.75,1.29,8.88,4.31,13.57,5.79,4.08,1.37,8.53.87,12.72,1.65,7.34,1.29,9.74,2.15,16.97-.87,6.37-2.54,13.19-3.92,19.51-6.59,3.29-1.3,6.64-2.83,10.18-3.29,5.08-.16,10.34-.29,15.27,1.14,2.95.82,5.66,2.47,8.48,3.62,2.96,1.15,6.19,1.72,9.33,2.1"/><path class="b" d="M10.74,51.15c1.95.16,4.03.37,5.94.8,1.96.5,3.97,1.22,5.94,1.65,3.05.72,6.26.57,9.33.12,5.32-.91,10.83.24,16.12-.94,3.23-.66,6.11-2.58,9.33-3.22,3.97-.84,8.02.22,11.88,1.13,2.2.58,4.62.46,6.79,1.2,5.09,1.75,9.84,4.75,15.27,5.45,2.52.27,5.15.48,7.64,1.02,2.82.58,5.64,1.54,8.48,2.04,3.86.84,7.63-.87,11.03-2.52,5.96-3.1,12.45-4.63,18.66-7.02,3.29-1.26,6.66-2.67,10.18-3.16,1.64-.24,3.44-.08,5.09-.02,3.12.11,6.32.46,9.33,1.3,3.56.88,6.79,2.81,10.18,4.15,2.97,1.11,6.19,1.61,9.33,1.9"/><path class="b" d="M10.74,49.57c4.44-1.24,9.07-.66,13.57-.19,3.93.39,7.93.37,11.88.35,3.98,0,8.05-.32,11.88-1.46,3.1-.95,6.11-2.48,9.33-3.01,5.87-1.12,11.37,1.87,16.97,3.09,4.55,1.69,8.72,4.55,13.57,5.39,2.78.55,5.72.44,8.48,1.1,3.43.72,6.74,2.14,10.18,2.83,5.16,1.18,9.89-2.05,14.42-4.04,5.8-2.61,11.84-4.8,17.82-6.96,4.35-1.54,9.02-1.68,13.57-1.26,3.69.15,7.46.45,11.03,1.46,2.92.79,5.7,2.22,8.48,3.39,2.96,1.22,6.15,2.06,9.33,2.45"/><path class="b" d="M10.74,48.5c4.39-2.36,9.43-3.78,14.42-3.87,3.69-.03,7.36.84,11.03,1.09,3.97.3,8.04-.09,11.88-1.14,4.95-1.44,10.03-3.48,15.27-3.06,3.25.28,6.31,1.66,9.33,2.79,4.41,1.72,8.04,5.23,12.73,6.34,3.02.84,6.27.39,9.33.92,3.45.58,6.77,1.94,10.18,2.67,1.63.34,3.44.5,5.09.23,2.87-.68,5.69-1.9,8.48-2.85,3.37-1.26,6.87-2.35,10.18-3.76,3.38-1.34,6.65-3.17,10.18-4.09,3.88-1.1,7.95-.34,11.88.07,4.22.27,8.54-.08,12.72.67,6.24,1.08,11.51,5.23,17.81,6.1"/><path class="b" d="M10.74,46.87c2.08-1.61,4.46-2.94,6.79-4.15,2.83-1.57,6.04-2.84,9.33-2.62,3.73.27,7.31,1.73,11.03,2.11,3.93.52,8.02.42,11.88-.51,1.93-.51,4.02-.79,5.94-1.32,2.21-.65,4.49-1.49,6.79-1.8,5.23-.71,10.38,1.78,14.42,4.91,4.69,3.67,8.37,5.35,14.42,4.86,4.04-.07,7.95,1.37,11.88,2.11,2.49.47,5.19.6,7.63-.19,2.7-1.07,5.63-1.64,8.48-2.12,3.44-.59,6.98-1.18,10.18-2.63,3.32-1.47,6.51-3.61,10.18-4.12,3.72-.64,7.37.89,11.03,1.23,4.22.28,8.5-.52,12.72-.16,6.41.38,11.54,5.04,17.81,6.01"/><path class="b" d="M10.74,43.71c1.84-1.5,3.88-2.93,5.94-4.09,2.78-1.74,5.96-3.34,9.33-3.09,3.79.33,7.29,2.21,11.03,2.85,4.42,1.01,9.09,1.49,13.57.6,1.65-.33,3.49-.45,5.09-1,5.14-1.97,9.69-4.67,15.27-2.26,3.5,1.3,6.19,4.12,9.33,6.05,4.1,2.62,7.28,2.39,11.88,2.22,3.44.13,6.81,1.18,10.18,1.77,2.49.45,5.16.62,7.63,0,1.07-.28,2.3-.8,3.39-1.02,1.91-.41,3.99-.48,5.94-.53,4.36,0,8.87-.43,12.72-2.65,2.4-1.24,4.93-2.55,7.64-2.93,3.74-.64,7.36,1.02,11.03,1.34,4.23.27,8.5-.53,12.72-.22,6.34.27,11.54,4.77,17.81,5.37"/><path class="b" d="M10.74,38.9c3.78-2.63,7.95-5.58,12.73-5.71,2.95-.05,5.76,1.17,8.48,2.16,3.03.97,6.24,1.58,9.33,2.33,2.2.45,4.53.86,6.79.85,1.96-.04,4.01-.37,5.94-.69,3.82-.9,7.14-3.45,11.03-4.15,7.01-1.39,11.24,3.86,16.97,6.51,3.17,1.56,6.75,1.39,10.18,1.43,3.43.23,6.82,1.17,10.18,1.86,2.76.56,5.7.95,8.48.33,3-.91,6.23-.78,9.33-.68,4,.16,8.16,0,11.88-1.63,2.74-1.14,5.53-2.48,8.48-2.97,3.36-.64,6.81.09,10.18.24,4.22.14,8.53-.05,12.72.55,6.05.81,11.64,3.88,17.81,4"/><path class="b" d="M10.74,33.82c7.04-4.13,10.72-5.55,18.66-2.55,3.26,1.31,6.86,1.44,10.18,2.54,4.37,1.35,8.95,3.02,13.57,1.97,7.2-1.74,11.3-6.38,19.51-3.76,3.58,1.2,6.65,3.66,10.18,4.99,3.73,1.65,7.91,1.51,11.88,2.06,4.57.48,9.02,1.92,13.57,2.46,1.65.21,3.44-.05,5.09-.15,2.23-.1,4.56-.02,6.79.02,3.66.06,7.41.07,11.03-.58,4.01-.79,7.87-2.39,11.88-3.19,4.44-.92,9.06-1.1,13.57-.71,4.57.37,9.08,1.49,13.57,2.34,3.62.64,7.36.8,11.03,1.03"/><path class="b" d="M10.74,28.96c1.99-.66,3.95-1.72,5.94-2.36,4.23-1.27,8.63.11,12.73,1.25,2.46.81,5.12.74,7.64,1.2,2.9.62,5.69,1.86,8.48,2.81,5.85,2.25,9.85-.14,15.27-1.97,3.52-1.2,7.36-1.54,11.03-.91,3.35.41,6.34,2.25,9.33,3.67,3.19,1.61,6.62,2.9,10.18,3.35,4.22.64,8.59.62,12.72,1.78,2.22.54,4.51,1.24,6.79,1.48,3.08.21,6.25.14,9.33,0,2.8-.14,5.68-.25,8.48-.25,2.23.02,4.57.12,6.79-.15,4.07-.43,7.97-1.92,11.88-3.03,3.28-.97,6.81-.98,10.18-.53,3.96.49,7.89,1.59,11.88,1.88,3.94.18,7.96-.43,11.88.27"/><path class="b" d="M10.74,24.09c1.7-.34,3.45-.95,5.09-1.49,4.55-1.19,9.14.68,13.57,1.57,2.48.64,5.13.39,7.64.79,2.62.47,5.16,1.54,7.64,2.46,3.22,1.33,6.89,1.79,10.18.42,6.43-2.31,11.92-2.71,18.66-1.85,3.33.59,6.35,2.39,9.33,3.89,5.1,2.84,9.44,3.94,15.27,3.8,8.62.31,11.69,4.39,21.21,2.91,3.07-.36,6.24-.75,9.33-.53,2.82.22,5.64,1.07,8.48,1.1,4.15.16,8.02-1.64,11.88-2.9,5.85-1.74,11.92.15,17.81.6,4.8.39,9.7-1.47,14.42.1"/><path class="b" d="M10.74,18.75c1.68-.24,3.45-.69,5.09-1.11,3.46-.6,6.92.69,10.18,1.7,1.91.61,3.95,1.22,5.94,1.53,2.23.3,4.61.27,6.79.92,4.69,1.19,9.48,3.84,14.42,2.44,5.57-1.98,11.09-2.68,16.97-2.04,7.87-.25,13.16,5.47,20.36,7.43,3.85,1.17,7.97.21,11.88,1.02,4.57.8,8.82,3.43,13.57,3.06,4.51-.22,9.05-1.43,13.57-.73,2.28.35,4.54,1.22,6.79,1.69,3.07.72,6.35.42,9.33-.58,7.68-3.08,12.5-1.94,20.36-1.38,5.12.38,10.29-1.85,15.27.17"/><path class="b" d="M10.74,13.57c1.97-.18,3.98-.73,5.94-.93,6.56-.24,12.28,3.89,18.66,4.8,5.29,1.2,10.57,3.85,16.12,2.73,1.98-.38,3.97-1.19,5.94-1.6,3.87-.93,7.94-.83,11.88-.4,1.65.2,3.46.21,5.09.53,4.31,1.1,7.96,3.91,11.88,5.9,2.36,1.19,4.99,2.13,7.64,2.32,3.38.15,6.87-.02,10.18.82,3.92.94,7.77,2.68,11.88,2.49,4.22-.08,8.51-.7,12.73-.07,3.71.5,7.26,2.16,11.03,2.25,3.79.22,7.39-1.33,11.03-2.1,3.61-.69,7.37-.65,11.03-.5,2.51.12,5.12.25,7.63.16,3.98-.31,8.15-.45,11.88,1.22"/><path class="b" d="M10.74,8.85c2.81-.2,5.65-.97,8.48-.84,4.19.15,8.12,1.89,11.88,3.61,2.19,1.01,4.57,1.84,6.79,2.8,3.44,1.49,7.25,2.67,11.03,1.93,2.29-.36,4.55-1.25,6.79-1.85,4.71-1.35,9.65-.79,14.42-.13,1.66.22,3.49.18,5.09.71,5.19,1.76,9.28,5.83,14.42,7.69,4.06,1.5,8.53.93,12.73,1.7,2.84.43,5.67,1.29,8.48,1.83,2.49.45,5.12.42,7.63.43,3.39-.03,6.85.24,10.18.9,3.35.65,6.74,1.66,10.18,1.66,3.15.04,6.29-.77,9.33-1.5,2.2-.49,4.55-.67,6.79-.85,3.93-.3,7.94-.32,11.88-.24,4.92-.04,9.93.53,14.42,2.67"/></svg>