<?xml version="1.0" encoding="UTF-8"?><svg id="a" xmlns="http://www.w3.org/2000/svg" width="1920" height="2400" viewBox="0 0 192 240"><defs><style>.b{fill:none;stroke:#fff;stroke-miterlimit:10;stroke-width:.3px;}.c{stroke-width:0px;}</style></defs><rect class="c" width="192" height="240"/><path class="b" d="M9.43,223.33c4.57-.41,9.21-.4,13.78-.07,1.41-.02,2.91-.61,4.31-.76,2.25-.36,4.62-.53,6.89-.56,5.26-.05,10.69.7,15.5,2.93,1.3.76,3.04.41,4.31-.26,1.07-.46,2.35-.95,3.45-1.33,3.06-1.06,6.26-1.92,9.48-2.36,2.56-.41,5.26-.46,7.75-1.24.79-.01,1.82.26,2.58.42.77.02,1.82-.02,2.58-.05,2.85-.11,5.77-.36,8.61-.49,3.42.26,6.93.4,10.34.8,7.2.73,14.41,1.58,21.53,2.88,1.72-.33,3.45-1.2,5.17-1.59,3.61-.98,7.45-1.56,11.2-1.19,1.09.11,2.39.36,3.45.67,2.28-.24,4.57-1.59,6.89-1.34,6.21,1.37,12.63,1.39,18.95,1.09,5.44-.04,10.94.02,16.37-.35"/><path class="b" d="M9.43,221.26c3.7-.42,7.49-.26,11.2-.29,1.64-.55,3.46-.97,5.17-1.25,8.34-1.2,17.28-.6,24.98,3.02,12.1-5.65,25.67-6.09,38.76-5,9.79.52,19.6,1.32,29.29,2.83.76.12,1.81.32,2.58.27,1.65-.62,3.46-1.22,5.17-1.65,4.19-1.07,8.7-1.42,12.92-.3,1.91-.58,4.01-1.55,6.03-1.41,3.38.76,6.87,1.4,10.34,1.57,3.71.25,7.49-.12,11.2-.13,5.15-.06,10.37.08,15.51-.47"/><path class="b" d="M9.43,219.05c2.84-.28,5.77-.42,8.61-.28,3.62-1.11,7.4-1.91,11.2-2.07,3.72-.2,7.52-.01,11.2.55,2,.31,4.1.77,6.03,1.38.79.25,1.83.64,2.58.96.49.02,1.3-.2,1.72-.42,1.94-.75,4.03-1.4,6.03-1.94,2.53-.67,5.17-1.26,7.75-1.69,1.96-.31,4.04-.73,6.03-.42,1.98.14,4.09.4,6.03-.15,2.79.69,5.76.54,8.61.76,10.92.59,21.88.89,32.73,2.32,1.38.09,2.94.62,4.31.28,2.78-.91,5.7-1.7,8.61-2.04,1.37-.16,2.93-.21,4.31-.11,1.09.02,2.36.46,3.45.3,1.35-.5,2.91-.96,4.31-1.29,1.11-.11,2.37.39,3.45.59,1.66.38,3.48.77,5.17,1.02,3.68.56,7.49.56,11.2.38,6.59-.35,13.27.23,19.81-.83"/><path class="b" d="M9.43,216.95c2.26-.2,4.63-.13,6.89-.19,3.53-1.48,7.4-2.15,11.2-2.44,3.71-.27,7.51-.16,11.2.3,2,.25,4.09.65,6.03,1.17,1.39.34,2.91,1.25,4.31.44,2.23-.78,4.6-1.45,6.89-1.99,2.53-.59,5.18-1.1,7.75-1.48,2.85.18,5.76.68,8.61.79,1.7.01,3.47-.72,5.17-.87,1.39.25,2.93.55,4.31.84,3.64.8,7.49.54,11.2.8,6.6.14,13.23.3,19.81.79,3.14.21,6.34.54,9.48.82,1.99-.34,4.03-1.05,6.03-1.34,2.82-.54,5.77-.58,8.61-.33,1.37-.47,2.9-.99,4.31-1.35,1.1-.34,2.37.32,3.45.51,2.25.55,4.6,1.13,6.89,1.49,4.54.75,9.21.42,13.78.27,3.43.04,6.92,0,10.34-.38,2.28-.14,4.66-.16,6.89-.72"/><path class="b" d="M9.43,215.39c1.38-.08,2.93-.11,4.31-.07,2.75-1.18,5.63-2.29,8.61-2.75,7.69-1.27,15.76-.98,23.26,1.23,4.47-1.51,9.12-2.58,13.78-3.31,3.71.44,7.46,1.13,11.2,1.38,2.28-.23,4.6-1.05,6.89-1.34,1.68-.28,3.5.44,5.17.65,3.13.56,6.26,1.55,9.48,1.41,6.88.13,13.79-.11,20.67.18,2.85.08,5.77.25,8.61.41.76.04,1.82.09,2.58.12,1.08-.17,2.36-.48,3.45-.65,2.24-.39,4.62-.53,6.89-.46,1.99-.48,4.04-1.21,6.03-1.72,3.71.89,7.43,2.04,11.2,2.66,2.83.58,5.76.31,8.61.15,2.55-.09,5.2.02,7.75-.15,2.56-.12,5.19-.47,7.75-.6,1.07-.03,2.37-.03,3.45-.01,1.09-.12,2.38-.45,3.45-.71"/><path class="b" d="M9.43,213.74c1.08,0,2.37.01,3.45-.02,7.3-4.52,17.53-4.63,25.84-3.63,1.4.19,2.94.48,4.31.81,1.41-.25,2.91-.82,4.31-1.14,2.53-.66,5.18-1.2,7.75-1.62,2.85.45,5.76,1.03,8.61,1.45,1.67.25,3.48.49,5.17.65,2.55-.59,5.16-1.33,7.75-1.72,1.39-.27,2.91-.56,4.31-.18,4.61.68,9.21,1.71,13.78,2.58,5.73-.08,11.49-.53,17.23-.54,5.44-.17,10.94.29,16.37-.1,2.29-.21,4.66-.64,6.89-1.19,1.37-.2,2.95-1.16,4.31-.75,3.98,1.1,8,2.3,12.06,3.04,1.36.27,2.93-.1,4.31-.11,2.26-.15,4.63-.11,6.89-.18,3.73-.06,7.48-.59,11.2-.8,1.67-.05,3.49-.06,5.17.02,1.09-.2,2.38-.59,3.45-.89"/><path class="b" d="M9.43,211.44c1.38-.06,2.96.17,4.31-.19,2.08-1.32,4.51-2.15,6.89-2.69,6.49-1.48,13.26-1.32,19.81-.37,3.38-.97,6.86-1.87,10.34-2.38,3.72.68,7.47,1.51,11.2,2.15,1.92.18,4.18,1.1,6.03.38,3.9-1.26,8.02-1.89,12.06-2.48,6.36.46,12.68,1.9,18.95,3.07,5.44-.16,10.91-.96,16.37-1.09,5.15-.3,10.39-.04,15.51-.79,1.99-.29,4.08-.71,6.03-1.18,3.14.86,6.32,1.87,9.48,2.7,1.66.37,3.45,1.08,5.17,1.06,6.58-.61,13.24-.77,19.81-1.55,2.55-.14,5.2-.12,7.75-.01,1.07-.32,2.38-.73,3.45-1.08"/><path class="b" d="M9.43,209.14c1.38,0,2.92,0,4.31,0,.89.08,1.81-.66,2.58-1,1.33-.63,2.87-1.2,4.31-1.53,5.05-1.19,10.35-1.41,15.51-.97,3.16-.47,6.3-1.59,9.48-2.1,2.29-.03,4.64.79,6.89,1.18,3.99.88,8.02,1.85,12.06,2.48,5.48-2.19,11.42-2.92,17.23-3.7,6.93.47,13.82,1.85,20.67,2.96,1.67.36,3.49-.17,5.17-.32,2.84-.36,5.76-.67,8.61-.92,5.43-.55,10.97-.48,16.37-1.36,1.71-.51,3.51,0,5.17.5,1.97.61,4.06,1.26,6.03,1.86,1.38.42,2.92.87,4.31,1.26,1.06.38,2.34.58,3.45.24,3.4-.54,6.91-.77,10.34-1.13,2.85-.26,5.76-.73,8.61-.84,2.55-.13,5.2-.18,7.75.03,1.44-.16,2.93-.89,4.31-1.3"/><path class="b" d="M9.43,206.84c1.97,0,4.06,0,6.03,0,.84-.1,1.81-.7,2.58-1.02,1.35-.55,2.88-1.1,4.31-1.39,2.81-.6,5.75-.81,8.61-.92,2.84-.65,5.76-1.35,8.61-1.95,1.08-.31,2.35-.43,3.45-.11,1.39.25,2.93.56,4.31.86,4.89,1.05,9.74,2.51,14.64,3.51,7.03-3.11,14.83-3.85,22.4-4.67,7.19.7,14.38,1.68,21.54,2.7,1.99.35,4.06-.36,6.03-.57,2.84-.43,5.76-.78,8.61-1.1,2.26-.28,4.63-.41,6.89-.6,1.08-.08,2.36-.27,3.45-.29.77.1,1.82.25,2.58.39,3.84.62,7.51,2.12,11.2,3.28,1.37.41,2.85,1.29,4.31,1.2,3.41-.64,6.89-1.31,10.34-1.69,4.27-.58,8.61-1.12,12.92-1.2,1.97-.06,4.06.05,6.03.2,1.38-.5,2.93-1.07,4.31-1.57"/><path class="b" d="M9.43,202.9c9.36.37,18.38-2.74,27.56-3.92,4.34.72,8.69,1.67,12.92,2.88,3.15.81,6.28,2.07,9.48,2.67,8.2-4.21,17.68-4.7,26.7-5.47,2.85-.34,5.77.27,8.61.47,5.17.41,10.34,1.21,15.51,1.66,5.43-.81,10.88-1.99,16.37-2.3,3.15.44,6.39.87,9.48,1.65,2.93.76,5.83,1.96,8.61,3.13,2.5.72,5.25-.07,7.75-.45,3.12-.59,6.33-1.15,9.48-1.56,3.69-.48,7.47-.82,11.2-.79,1.38.01,2.93.1,4.31.25,1.73-.42,3.47-1.3,5.17-1.83"/><path class="b" d="M9.43,199.22c7,.26,13.81-1.28,20.67-2.33,1.71-.45,3.49.12,5.17.42,2.28.44,4.64.95,6.89,1.52,2.29.59,4.65,1.3,6.89,2.07,1.39.4,2.85,1.25,4.31,1.34,1.68,0,3.49,0,5.17,0,1.1-.4,2.34-1.03,3.45-1.42,6.89-2.43,14.29-3.03,21.53-3.47,4.29-.14,8.64-.95,12.92-.47,2.55.21,5.2.43,7.75.59,2.83.4,5.76.72,8.61.87,2.57-.33,5.18-.99,7.75-1.35,1.07-.15,2.35-.45,3.45-.41,2.57.32,5.21.84,7.75,1.32,1.94.53,4.09.56,6.03,1.06,1.98.57,4,1.44,6.03,1.81,5.17,1.09,10.39-.59,15.51-1.27,4.83-.73,9.76-1.24,14.64-1,.75.04,1.83.12,2.58.21,2.04-.39,3.97-1.59,6.03-1.95"/><path class="b" d="M9.43,195.87c3.72.03,7.5-.23,11.2-.7,1.39-.17,2.93-.4,4.31-.64.79-.15,1.8-.35,2.58-.16,6.4,1.34,12.9,2.66,18.95,5.19.74.46,1.76.38,2.58.37,1.38,0,2.92,0,4.31,0,1.99-.1,4.21.38,6.03-.65,8.74-3.45,18.31-3.5,27.56-3.99,4.87-.17,9.78-.83,14.64-.9,4.6.16,9.19.94,13.78,1.12,2.26-.41,4.62-.93,6.89-1.27,2.87.37,5.76,1.16,8.61,1.52,2.55.09,5.25-.03,7.75.53,3.09.84,6.24,1.85,9.48,1.86,6.35-.09,12.6-1.85,18.95-2.04,2.84-.16,5.78-.12,8.61.2,2.28-.52,4.5-1.98,6.89-1.88"/><path class="b" d="M9.43,192.78c3.72-.02,7.5-.28,11.2-.71,3.46.32,6.99.79,10.34,1.76,2.58.67,5.24,1.41,7.75,2.31,1.41.4,2.84,1.38,4.31,1.49,4.58,0,9.2,0,13.78,0,9.85-3.94,20.58-3.76,31.01-4.13,4.58-.21,9.21-.49,13.78-.87,2.27-.14,4.62-.56,6.89-.68,1.38.13,2.92.32,4.31.43,1.67.13,3.49.3,5.17.31,1.07-.23,2.37-.48,3.45-.69,2-.02,4.06.71,6.03.99,3.71.14,7.49.15,11.2.41,3.43.53,6.83,1.64,10.34,1.64,3.73.07,7.49-.6,11.2-.96,4.27-.46,8.63-.71,12.92-.37.39.04,1.32.11,1.72.15.39-.18,1.32-.53,1.72-.7,1.35-.45,2.91-.89,4.31-1.15.39.11,1.32.33,1.72.44"/><path class="b" d="M9.43,189.88c1.39-.03,2.92-.09,4.31-.17,2.27.17,4.64.43,6.89.76,5.94.72,11.78,2.38,17.23,4.85,6.02,0,12.07,0,18.09,0,9.89-3.72,20.62-3.28,31.01-3.45,5.16-.13,10.36-.38,15.51-.83,4.29-.46,8.61-.96,12.92-1.22,2.27-.2,4.65.45,6.89-.21,2.22.6,4.6.69,6.89.75,2.55.12,5.2.22,7.75.28,4.91-.08,9.72,1.54,14.64,1.31,7.16-.29,14.36-1.39,21.53-.59,1.96-.56,4.01-1.29,6.03-1.66,1.07.27,2.37.59,3.45.83"/><path class="b" d="M9.43,187.73c5.79.28,11.6,1.14,17.23,2.55,1.7.56,3.52,1.22,5.17,1.92.79.31,1.71.92,2.58.83,4,0,8.06,0,12.06,0,1.68,0,3.49,0,5.17,0,1.07-.26,2.35-.51,3.45-.67,2.29-.23,4.64-.63,6.89-1.09,2.82-.49,5.76-.76,8.61-.96,6.87-.3,13.79.23,20.67.02,6.04-.12,12.12-.53,18.09-1.47,3.99-.46,8.06-.8,12.06-1.24,2.24-.47,4.62,0,6.89.05,3.71.21,7.48.4,11.2.43,2.57-.06,5.2.39,7.75.63,2.83.29,5.77.28,8.61.15,5.15-.23,10.36-.49,15.5,0,6.74-1.8,4.24-1.67,11.2-.19"/><path class="b" d="M9.43,185.99c4.93.35,9.87,1.17,14.64,2.47,1.44.36,2.96.97,4.31,1.57.76.37,1.73.81,2.58.68,5.15,0,10.35,0,15.51,0,3.9-1.16,8-1.75,12.06-1.9,1.68-.07,3.49-.05,5.17,0,3.12-.29,6.34-.52,9.48-.39,10.61.36,21.3,1.37,31.87-.17,4.28-.67,8.62-1.26,12.92-1.82,2.28-.33,4.6-1.07,6.89-1.33,1.36.42,2.92.18,4.31.07,1.38-.13,2.93.11,4.31.15,3.13.21,6.34.14,9.48.2,3.42.23,6.91.52,10.34.54,5.44.03,10.94-.21,16.37.29,1.37-.4,2.92-.83,4.31-1.16,2.87.26,5.73,1.33,8.61,1.65"/><path class="b" d="M9.43,184.32c4.06.42,8.15,1.17,12.06,2.34,1.74.43,3.45,1.34,5.17,1.76,1.39,0,2.92,0,4.31,0,3.71,0,7.49,0,11.2,0,2-.33,4.01-1.16,6.03-1.44,4.24-.78,8.61-1.07,12.92-1.02,2.85.03,5.78.24,8.61.6,3.43.16,6.92.42,10.34.74,6.57.62,13.22,1.29,19.81.65,4.62-.42,9.21-1.41,13.78-2.13,3.68-.98,7.44-1.94,11.2-2.63.42-.08,1.3-.25,1.72-.33,1.09.01,2.35.45,3.45.42,2.55-.24,5.19-.54,7.75-.39,4.87.04,9.78.3,14.64.38,4.87.11,9.79.06,14.64.45,1.41-.12,2.89-.77,4.31-.85,3.69.83,7.43,1.79,11.2,2.18"/><path class="b" d="M9.43,182.55c9.44,1.18,18.87,3.23,28.43,3.01,1.09.01,2.37.07,3.45-.06,1.07-.3,2.35-.61,3.45-.83,2.53-.51,5.18-.84,7.75-1.04,8.93-.71,17.95.04,26.7,1.88,3.66,1.03,7.33.49,11.2.61,5.44,0,10.93,0,16.37,0,2.89-.6,5.74-1.85,8.61-2.58,4.25-1.09,8.6-1.99,12.92-2.77,1.98-.55,4.04.61,6.03.2,1.67-.17,3.49-.44,5.17-.5,2.26.01,4.63.24,6.89.18,6.02-.1,12.08,0,18.09.41,1.4-.1,2.91-.75,4.31-.21,4.54,1,9.12,2.2,13.78,2.41"/><path class="b" d="M9.43,179.9c6.59.68,13.2,1.47,19.81,1.86,4.29.26,8.63.2,12.92.32,1.7.08,3.49-.35,5.17-.5,2.26-.25,4.62-.41,6.89-.5,6.31-.22,12.7.03,18.95.96,2.57.4,5.22.91,7.75,1.53,1.34.42,2.92.2,4.31.25,5.15,0,10.35,0,15.51,0,1.68,0,3.49,0,5.17,0,1.44.13,2.96-.2,4.31-.7,7.3-2.23,14.86-3.67,22.4-4.81,1.39-.1,2.92.31,4.31.39,1.95-.33,4.06-.3,6.03-.4,6.3-.11,12.66-.42,18.95.04.76-.22,1.83.06,2.58.22.75.09,1.83.2,2.58.29,5.18.66,10.37,1.57,15.51,2.49"/><path class="b" d="M9.43,177.34c6.58.51,13.21.95,19.81,1.15,6.6.13,13.22.2,19.81.56,4.86-.15,9.78-.33,14.64,0,3.73.23,7.52.53,11.2,1.2,1.99.31,4.04.96,6.03,1.27,1.08,0,2.37,0,3.45,0,5.15,0,10.35,0,15.51,0,2.55,0,5.2,0,7.75,0,1.39-.3,2.92-.77,4.31-1.11,7.92-1.95,16.01-3.42,24.12-4.33,1.67-.26,3.49.07,5.17.09,1.68.08,3.49-.1,5.17-.18,2.84-.17,5.77-.15,8.61-.2,1.68-.02,3.5-.2,5.17-.03,7.51.62,14.98,1.91,22.4,3.19"/><path class="b" d="M9.43,174.81c12.04.72,24.14.22,36.18.95,4.01.26,8.08.63,12.06,1.2,3.11.61,6.32.78,9.48.99,2.27.18,4.64.4,6.89.75,1.67.32,3.46.65,5.17.53,6.02,0,12.07,0,18.09,0,2.84-.01,5.77.03,8.61-.02,1.38-.33,2.92-.68,4.31-.98,10.21-2.2,20.59-3.84,31.01-4.51,1.97-.23,4.06-.16,6.03-.07,1.97.04,4.06-.03,6.03-.07,2.26,0,4.63-.09,6.89-.14,1.97.15,4.07.38,6.03.64,5.45.75,10.97,1.4,16.37,2.5"/><path class="b" d="M9.43,172.27c12.62.29,25.3-.54,37.9.56,4.91.44,9.84,1.17,14.64,2.29,1.69.4,3.51.89,5.17,1.42,1.03.45,2.35.38,3.45.37,6.88,0,13.79,0,20.67,0,3.13,0,6.34,0,9.48,0,1.4-.06,2.92-.52,4.31-.74,10.26-1.86,20.61-3.44,31.01-4.25,2.55-.19,5.2-.29,7.75-.41,1.97.11,4.06.09,6.03-.04,2.55-.11,5.2-.1,7.75-.14,1.68-.03,3.5-.19,5.17.04,6.62.74,13.32,1.35,19.81,2.9"/><path class="b" d="M9.43,169.72c19.83-.31,40.35-2.05,59.44,4.52,1.57.68,3.5.25,5.17.37,2.84,0,5.77,0,8.61,0,3.71-.01,7.49.02,11.2-.01,1.96-.4,4.05-.75,6.03-1.05,10.02-1.37,20.07-2.76,30.15-3.56,3.99-.34,8.05-.55,12.06-.61,2.27.02,4.63.05,6.89-.11,4.29-.15,8.63-.04,12.92-.23,6.94.56,13.92,1.3,20.67,3.04"/><path class="b" d="M9.43,167.15c3.14-.12,6.34-.28,9.48-.42,4.29.13,8.63.31,12.92.28,4,.06,8.06-.29,12.06-.28,8.41.63,16.93,1.53,24.98,4.14,1.1.36,2.37.86,3.45,1.29,1.94.33,4.06.08,6.03.15,6.06-.2,12.05-1.58,18.09-2.07,6.58-.67,13.22-1.2,19.81-1.77,4.29-.39,8.61-.93,12.92-1.07,3.71-.21,7.48-.36,11.2-.37,1.38-.03,2.93.05,4.31.19,1.07-.15,2.37-.22,3.45-.26,4.86-.1,9.79-.07,14.64-.17,6.68.43,13.34,1.45,19.81,3.15"/><path class="b" d="M9.43,164.56c2.27-.25,4.63.03,6.89.18,2.84.2,5.77.38,8.61.48,6.88.28,13.81.07,20.67-.43,1.68-.09,3.49-.34,5.17-.34,3.14.29,6.35.65,9.48,1.12,1.99.27,4.06.73,6.03,1.07,1.39.05,2.93.15,4.31.28,6.86.68,13.81.37,20.67-.12,4.87-.16,9.78-.36,14.64-.61,8.04-.3,16.08-1.16,24.12-1.55,3.42-.09,6.91-.14,10.34-.07,1.98.08,4.06.52,6.03.15,5.14-.52,10.36.06,15.5-.31,6.98.39,13.93,1.65,20.67,3.47"/><path class="b" d="M9.43,162.29c9.72,1.01,19.51,1.8,29.29,1.16,3.72-.2,7.49-.49,11.2-.82,2.26-.12,4.63-.66,6.89-.38,1.38.21,2.92-.23,4.31-.22,3.43-.04,6.93.07,10.34.47,6.57.69,13.21.86,19.81.8,8.32.19,16.67-.01,24.98-.46,6.02-.26,12.06-.95,18.09-.85,2.27-.06,4.63.04,6.89.26,1.38.13,2.92.39,4.31.14,3.7-.43,7.48-.37,11.2-.23,1.68.05,3.49-.2,5.17-.05,6.99.47,13.93,1.88,20.67,3.76"/><path class="b" d="M9.43,160.41c5.14.63,10.33,1.3,15.51,1.5,5.16.22,10.36-.04,15.5-.45,1.38-.16,2.97-.1,4.31-.54,1.07-.36,2.35-.74,3.45-1.01.8-.12,1.81.19,2.58.35,1.65.43,3.49.01,5.17-.02,3.14-.14,6.35-.68,9.48-.12,1.98.24,4.07.57,6.03.98,3.98-.54,8.05-1.27,12.06-1.28,6.87.36,13.79.72,20.67.73,6.6,0,13.22-.37,19.81-.72,4.29.1,8.63.26,12.92.08,1.08-.02,2.37-.2,3.45-.06,1.08.07,2.36.35,3.45.24,5.14-.6,10.35-.25,15.51-.33,7.87.42,15.74,1.93,23.26,4.29"/><path class="b" d="M9.43,158c2.28.18,4.66.51,6.89,1.04,1.96.55,3.97,1.13,6.03,1.11,5.16.3,10.37-.03,15.51-.56,1.67-.71,3.43-1.57,5.17-2.1,1.69.34,3.41,1.4,5.17,1.24,3.42-.15,6.92-.04,10.34-.2,2.56-.1,5.2-.35,7.75-.58,2.03-.22,4.02-.65,6.03-.05,2.26.33,4.6,1.02,6.89,1.08,3.97-.73,8.03-1.32,12.06-1.52,5.15.03,10.35.57,15.51.46,4.87.09,9.78-.52,14.64-.3,4,.2,8.06.36,12.06.26,2.56.04,5.21-.49,7.75-.23,1.08.08,2.37-.13,3.45-.19,1.38.1,2.93.19,4.31.18,2.84-.02,5.77-.28,8.61-.15,8.49.36,16.96,2.03,24.98,4.82"/><path class="b" d="M9.43,155.43c3.86.37,7.68,1.38,11.2,3,4.01.25,8.08-.02,12.06-.5.86-.03,1.91-.38,2.58-.9,1.05-.61,2.32-1.24,3.45-1.69,1.39-.26,2.99.88,4.31,1.3,1.92.43,4.07.15,6.03.34,4.86.22,9.79.6,14.64.13,4.04-.26,8.03-1.72,12.06-1.81,2.55.45,5.19.91,7.75,1.3,1.4,0,2.92-.46,4.31-.61,2.25-.33,4.62-.53,6.89-.67,4.28-.37,8.63.19,12.92.09,2.26,0,4.63-.08,6.89-.17,4,.15,8.06.43,12.06.53,4.88.18,9.79-.22,14.64-.63,2.84.25,5.76.58,8.61.4,11.1-.92,22.36,1.26,32.73,5.17"/><path class="b" d="M9.43,153.02c2.62.37,5.31,1,7.75,2.04,1.42.47,2.75,1.87,4.31,1.72,3.16-.03,6.37-.44,9.48-.98,1.65-1,3.35-2.23,5.17-2.94,1.8.29,3.35,1.84,5.17,1.9,4.02.08,8.07.61,12.06,1.08,4.27.51,8.67.75,12.92-.06,3.75-.72,7.41-2.06,11.2-2.59,1.4-.4,2.91-.19,4.31.12,1.97.27,4.04.82,6.03.79,7.08-1.41,14.35-1.27,21.53-1.19,9.45.2,19.03,1.54,28.43,0,2.85-.06,5.75.68,8.61.64,3.14.07,6.33-.55,9.48-.38,5.81.19,11.62,1.23,17.23,2.75,1.69.47,3.51,1.02,5.17,1.6.76.27,1.83.66,2.58.97.4,0,1.32,0,1.72,0"/><path class="b" d="M9.43,150.79c3.69.63,7.36,1.95,10.34,4.26,3.16-.22,6.48-.57,9.48-1.63,1.26-1.05,2.82-2.03,4.31-2.72,1.52.1,2.93,1.23,4.31,1.81,4.34.04,8.68.74,12.92,1.61,11.57,2.65,13.31,1.57,24.12-2.03,2.23-.65,4.61-1.09,6.89-1.47,2.28.18,4.61.77,6.89,1,1.39.12,2.91-.41,4.31-.47,2.55-.26,5.19-.43,7.75-.53,6.6-.23,13.22.45,19.81.69,4.59.25,9.25.25,13.78-.61.42-.08,1.3-.07,1.72.02.77-.01,1.82-.19,2.58,0,1.98.22,4.03.79,6.03.85,3.15.21,6.33-.57,9.48-.5,5.82.07,11.63,1.12,17.23,2.67,2.3.65,4.67,1.42,6.89,2.29,1.35.33,2.93.12,4.31.18"/><path class="b" d="M9.43,148.74c2.05.46,4.18,1.17,6.03,2.18,1.17.59,2.32,1.66,3.45,2.31,2.61-.3,5.23-1.04,7.75-1.72,1.67-1.04,3.27-2.54,5.17-3.18.79.37,1.82.9,2.58,1.32.5.32,1.13.59,1.72.54,3.17.07,6.39.51,9.48,1.22,2.92.54,5.71,1.94,8.61,2.49,1.68,0,3.49,0,5.17,0,1.38,0,2.92,0,4.31,0,1.09-.04,2.39.13,3.45-.21,1.71-.69,3.47-1.64,5.17-2.35,2.76-1.13,5.69-2.05,8.61-2.62.77-.15,1.81-.34,2.58-.46.44.08,1.29.23,1.72.31,1.67.25,3.47.67,5.17.64,2.82-.45,5.76-.61,8.61-.75,8.04-.46,16.08.76,24.12.79,3.16.23,6.35-1.06,9.48-.82,1.38.37,2.92-.26,4.31-.09,2.59.24,5.18,1.12,7.75,1.35,3.16.06,6.31-.86,9.48-.67,5.24.13,10.47,1.12,15.5,2.55,2.31.63,4.64,1.54,6.89,2.32,1.97,0,4.06,0,6.03,0"/><path class="b" d="M9.43,146.91c2.84.8,5.71,2.16,7.75,4.34,2.65-.07,5.2-1.42,7.75-2.05,1.59-1.08,3.19-2.8,5.17-3.06.79.38,1.82.94,2.58,1.37,1.62.48,3.5.2,5.17.48,3.55.35,7.06,1.31,10.34,2.71.78.3,1.75.8,2.58.88.78,0,1.81,0,2.58,0,2.26,0,4.63,0,6.89,0,2.84-.08,5.79.17,8.61-.12,1.36-.8,2.87-1.72,4.31-2.38,3.25-1.52,6.81-2.49,10.34-3.09,1.69.09,3.48.58,5.17.75,1.38.26,2.92-.17,4.31-.24,2.55-.22,5.19-.34,7.75-.37,6.32-.18,12.63.8,18.95.88,2.87.04,5.77-.7,8.61-1.01,1.39.08,2.92.57,4.31.23,1.68-.43,3.5-.2,5.17.16,1.99.36,4.09.87,6.03,1.45,3.17.12,6.3-1.03,9.48-.83,6.77.17,13.51,1.77,19.81,4.23.99.54,2.36.28,3.45.33,1.97,0,4.06,0,6.03,0"/><path class="b" d="M9.43,145.38c2.22.8,4.43,2.09,6.03,3.85,1.14.17,2.39-.49,3.45-.83,1.37-.53,2.89-1.14,4.31-1.54,1.28-1.09,2.81-2.18,4.31-2.94,1.23-.17,2.39.89,3.45,1.39,3.45-.05,7.02.21,10.34,1.18,1.71.54,3.52,1.24,5.17,1.96.78.32,1.71.93,2.58.84,4.29,0,8.63,0,12.92,0,1.68,0,3.49,0,5.17,0,.81,0,1.87.1,2.58-.37,3.83-2.67,8.35-4.3,12.92-5.16,1.69-.13,3.48.55,5.17.69,1.96.25,4.05-.4,6.03-.39,3.13-.2,6.34-.2,9.48-.13,3.72.05,7.48.67,11.2.78,2.57.14,5.22-.22,7.75-.6.76-.12,1.82-.27,2.58-.39,1.09-.03,2.37.28,3.45.45,1.39.11,2.93-.32,4.31-.51,2.6.04,5.24.82,7.75,1.44,1.39.28,2.87,1.21,4.31,1,2.28-.23,4.58-1.02,6.89-.97,6.79-.08,13.54,1.64,19.81,4.15,3.71-.02,7.49-.01,11.2,0"/><path class="b" d="M9.43,144.29c.82.4,1.87,1.06,2.58,1.62.61.68,1.64,1.25,2.58,1.08,2.32-.68,4.58-1.87,6.89-2.58,1.26-1.09,2.82-2.12,4.31-2.86,1.22,0,2.29,1.05,3.45,1.31,2.56-.2,5.22.05,7.75.44,2.34.48,4.69,1.32,6.89,2.22,1.38.47,2.79,1.6,4.31,1.46,6.88-.06,13.8.13,20.67-.08,2.62-1.86,5.54-3.43,8.61-4.4,1.36-.44,2.91-.84,4.31-1.12,1.98.21,4.03.96,6.03.86,5.1-.88,10.36-.64,15.5-.49,2.85.11,5.76.62,8.61.73.78.11,1.82-.08,2.58-.21,1.38-.13,2.93-.21,4.31-.42,1.08-.14,2.36-.41,3.45-.46,1.08.15,2.37.37,3.45.57,2.58.2,5.18-1.19,7.75-.36,2.3.42,4.68,1.03,6.89,1.79,1.08.33,2.31.98,3.45,1.1.77-.09,1.83-.29,2.58-.49,6.77-1.77,14.24.05,20.67,2.36,5.13-.53,10.35-.69,15.51-.22"/><path class="b" d="M9.43,143.96l.86.71c2.16.32,4.09-.79,6.03-1.54,1.07-.44,2.44-.76,3.45-1.34,1.28-1,2.84-1.95,4.31-2.63.83.22,1.83.77,2.58,1.17,2.26-.02,4.63-.15,6.89.12,4.51.55,8.85,2.29,12.92,4.24,4.58,0,9.2,0,13.78,0,1.38,0,2.92,0,4.31,0,1.09-.05,2.42.17,3.45-.27,2.91-1.95,6.09-3.68,9.48-4.65.77-.23,1.81-.5,2.58-.67,1.68.33,3.48.75,5.17,1.01,3.1-.6,6.31-.85,9.48-.79,4.89-.03,9.79.45,14.64.97,2.56-.22,5.19-.67,7.75-.9,2.28-.6,4.62.28,6.89.52,1.98-.18,4.04-.89,6.03-.87,2.9.47,5.85,1.19,8.61,2.21,1.09.4,2.38.93,3.45,1.4,0,0,.86.39.86.39l.86-.04c1.97-.44,4-1.18,6.03-1.26,4.36-.24,8.78.61,12.92,1.95.77.16,1.82-.15,2.58-.28,1.37-.24,2.92-.42,4.31-.52,4.29-.31,8.65-.11,12.92.25"/><path class="b" d="M9.43,142.11c2.57-.78,5.16-1.79,7.75-2.5,1.58-1.03,3.3-2.34,5.17-2.72.78.33,1.75.88,2.58,1.06,1.08-.17,2.35-.28,3.45-.26,2.89-.07,5.83.39,8.61,1.17,3.25.84,6.42,2.16,9.48,3.52,4.29,0,8.63,0,12.92,0,1.97,0,4.06,0,6.03,0,2.89-1.34,5.59-3.3,8.61-4.38,1.35-.44,2.86-1.17,4.31-1.11,1.67.38,3.46.92,5.17,1.05,1.06-.32,2.35-.6,3.45-.75,4.85-.51,9.79-.07,14.64.23,1.38.13,2.92.41,4.31.55,1.99.04,4.09-.33,6.03-.73,1.68-.02,3.5-.61,5.17-.27,1.39.2,2.93.52,4.31.77,1.08-.16,2.37-.37,3.45-.57.76-.14,1.82-.35,2.58-.51,1.4.07,2.94.47,4.31.78,3.91.88,7.61,2.62,11.2,4.36,5.9-2.05,10.36-2.05,16.37-.36,7.49-2.36,15.54-1.94,23.26-1.24"/><path class="b" d="M9.43,138.33c1.68-.39,3.49-.87,5.17-1.27,1.64-.91,3.42-1.89,5.17-2.57.79.27,1.79.75,2.58,1,.78-.12,1.8-.26,2.58-.33,2.56-.15,5.23-.07,7.75.42,3.2.57,6.42,1.46,9.48,2.57,2.25.72,4.44,2.2,6.89,1.92,4.58-.05,9.21.11,13.78-.07,2.58-1.18,5.18-2.55,7.75-3.74,1.06-.49,2.34-1,3.45-1.35.77-.31,1.81-.44,2.58-.1,1.37.37,2.91.77,4.31,1.06,1.36-.42,2.89-.87,4.31-1.05,3.12-.37,6.35-.19,9.48,0,2.86.21,5.79.43,8.61.92,2.88-.07,5.76-.82,8.61-1.11,2.28-.29,4.66.54,6.89.94.77-.05,1.82-.24,2.58-.38,1.98-.25,4.05-1.21,6.03-.59,4.52.87,8.95,2.51,12.92,4.85.64.56,1.77.69,2.58.63,1.43.16,2.93-.33,4.31-.64,1.94-.4,4.06-.52,6.03-.27.41.05,1.31.19,1.72.27,1.14-.14,2.35-.82,3.45-1.12,1.64-.51,3.47-.86,5.17-1.1,6.28-.85,12.68-.47,18.95.23"/><path class="b" d="M9.43,134.73c2.76-.14,5.1-1.95,7.75-2.48.79.26,1.74.74,2.58.74,1.67-.25,3.48-.47,5.17-.47,3.46-.11,6.96.5,10.34,1.21,4.68.94,9.16,2.82,13.78,3.98,1.67.16,3.49.05,5.17.08,1.38-.06,2.96.17,4.31-.19,3.55-.95,6.95-2.56,10.34-3.95,4.16-1.74,3.55-1.57,7.75-.31.44.12,1.29.35,1.72.45.79-.17,1.81-.58,2.58-.8,1.92-.55,4.03-.78,6.03-.73,3.44.02,6.92.39,10.34.74,1.09.08,2.36.38,3.45.52.77-.08,1.82-.18,2.58-.26,2.87-.11,5.76-1.55,8.61-.77,1.39.26,2.94.56,4.31.9,2.59-.01,5.21-.9,7.75-1.37,3.22.57,6.47,1.45,9.48,2.74,1.1.48,2.4,1.11,3.45,1.7.75.42,1.73,1.14,2.58,1.33,4,0,8.06,0,12.06,0,2.73-1.31,5.62-2.5,8.61-3.03,7.38-1.39,15-.84,22.4.1"/><path class="b" d="M9.43,130.99c1.08-.3,2.36-.68,3.45-.98.82-.11,1.82.28,2.58.52.78-.02,1.81-.17,2.58-.26,9.33-1.3,18.59,1.21,27.56,3.5,3.93.95,8.11,1.1,12.06.14,4.11-.94,8.06-2.64,12.06-3.94,2.03.29,4.03,1.29,6.03,1.79,2.75-1.01,5.64-1.97,8.61-1.87,4.31.13,8.68.53,12.92,1.31,1.37.28,2.93-.2,4.31-.29,2-.17,4.05-.82,6.03-1.06,2.27.47,4.63,1.01,6.89,1.52,2.57-.44,5.2-1.07,7.75-1.64,5.17,1,10.27,2.79,14.64,5.77,4,0,8.06,0,12.06,0,1.2-.1,2.33-1.05,3.45-1.45,1.9-.82,4-1.45,6.03-1.88,7.93-1.6,16.19-1,24.12.31"/><path class="b" d="M9.43,128.02c2.56-.05,5.19-.48,7.75-.51,3.42.22,6.92-.03,10.34.17,5.51.47,10.95,1.69,16.37,2.73,3.96.73,8.1.84,12.06.08,2.3-.42,4.66-1.07,6.89-1.75,1.38-.34,2.87-1.1,4.31-1.07,2,.58,4.06,1.41,6.03,2.08,2.69-1.22,5.62-2.3,8.61-2.22,4.31.03,8.7.59,12.92,1.46,1.08.29,2.36-.15,3.45-.24,2.29-.28,4.65-.73,6.89-1.28,2.26.58,4.65,1.07,6.89,1.71,2.9-.14,5.76-1.24,8.61-1.75,4.83,1.04,9.68,2.63,13.78,5.45,1.01.49,2.36.25,3.45.3,1.38,0,2.93,0,4.31,0,1.08,0,2.37,0,3.45,0,1.16.09,2.47-.06,3.45-.76,10.3-5.11,22.62-4.39,33.59-2.1"/><path class="b" d="M9.43,125.52c6.31.13,12.66.36,18.95-.2,4.61.38,9.21,1.25,13.78,1.87,3.69.5,7.5.59,11.2.08,3.18-.42,6.37-1.22,9.48-2.02,2.63.57,5.2,1.67,7.75,2.48,2.86-1.57,6.17-2.8,9.48-2.4,4.04-.18,8.14.59,12.06,1.5,1.09.3,2.36-.2,3.45-.31,2.28-.35,4.67-.72,6.89-1.35,2.57.6,5.21,1.32,7.75,2.03,2.87-.58,5.76-1.43,8.61-2.05,4.49,1.03,9.02,2.5,12.92,5.02,1.85,1.48,4.7.29,6.89.48,2.26.22,4.62.25,6.89.22.79-.3,1.82-.83,2.58-1.18,10.73-4.89,23.28-4.28,34.46-1.27"/><path class="b" d="M9.43,123.86c4.29-.05,8.64.02,12.92-.24,2.57-.07,5.2-.68,7.75-.63,5.72.51,11.46,1.55,17.23,1.35,2.28-.07,4.64-.32,6.89-.68,1.68-.18,3.49-.95,5.17-.44,1.71.37,3.52.89,5.17,1.46,1.51.46,2.81,1.51,4.31.41,2.65-1.33,5.6-2.52,8.61-1.98,1.09.06,2.36-.12,3.45-.12.77.1,1.82.25,2.58.38,1.39.24,2.95.46,4.31.84.76.21,1.79.52,2.58.59.43-.09,1.29-.27,1.72-.36,2.56-.47,5.23-.87,7.75-1.53,1.72.24,3.49.93,5.17,1.34,1.08.26,2.32.84,3.45.85,1.08-.26,2.37-.59,3.45-.87,1.68-.44,3.48-.95,5.17-1.35,2.61.62,5.27,1.42,7.75,2.43,1.1.45,2.4,1.06,3.45,1.63,1.02.56,2.22,1.61,3.45,1,3.35-.83,6.92-1.13,10.34-.6,1.37.11,2.93.36,4.31.18.75-.32,1.82-.73,2.58-1.03,2.47-.96,5.14-1.66,7.75-2.08,5.11-.82,10.38-.76,15.51-.08,2.29.29,4.63.93,6.89,1.41,1.07.05,2.37.13,3.45.21"/><path class="b" d="M9.43,122.11c7.19-.14,14.39-.7,21.53-1.5,4,.17,8.05.7,12.06.65,2.85,0,5.78-.21,8.61-.58,3.5.3,7.02,1.19,10.34,2.32,2.13.89,2.29.79,4.31-.23,2.42-.98,5.06-2.51,7.75-1.97,1.68.26,3.49-.09,5.17-.1,2.6.4,5.26.97,7.75,1.8,1.1.24,2.36-.33,3.45-.49,2.27-.42,4.63-.89,6.89-1.37,2.03.28,4.06,1.08,6.03,1.62,1.09.24,2.32,1.07,3.45.74,2.85-.77,5.76-1.65,8.61-2.4,2.92.64,5.86,1.64,8.61,2.8,1.42.53,2.84,1.58,4.31,1.96,3.62-1,7.44-1.57,11.2-1.54,1.97.05,4.05.29,6.03.29,1.42.05,2.99.08,4.31-.53,5.8-1.89,12.04-2.33,18.09-1.74,2.3.15,4.63.73,6.89,1.11,2.56.09,5.21.29,7.75.59"/><path class="b" d="M9.43,120.08c16.88-.57,34.54-4.5,50.82,1.73,2.53-1.06,5.12-2.25,7.75-3.04.43-.13,1.28-.35,1.72-.44.77.05,1.81.25,2.58.31,1.7.26,3.49-.33,5.17-.2,1.39.29,2.96.57,4.31,1.02,1.08.3,2.31.95,3.45.93,2.8-.8,5.78-1.23,8.61-1.89,1.42-.23,2.97.33,4.31.76,1.99.57,4.04,1.37,6.03,1.94,2.27-.67,4.62-1.42,6.89-2.08,1.08-.24,2.33-.89,3.45-.62,3.84,1.02,7.69,2.37,11.2,4.25,4.23-.94,8.58-1.68,12.92-1.79,3.14-.07,6.34.28,9.48.08,2.01,0,4.08-.3,6.03-.77,1.95-.35,4.05-.58,6.03-.63,2.85-.05,5.79.13,8.61.58,4.6.07,9.24.45,13.78,1.15"/><path class="b" d="M9.43,117.75c15.46-.52,31.57-3.28,46.52,2.04,2.58-.85,5.16-2,7.75-2.84,1.07-.35,2.35-.72,3.45-.96.77.12,1.81.31,2.58.41,1.69.2,3.52.05,5.17-.36,1.41.24,2.97.62,4.31,1.11,1.08.33,2.29,1.06,3.45,1.01,1.94-.6,4.04-1.05,6.03-1.44,1.38-.26,2.91-.81,4.31-.36,2.34.41,4.65,1.38,6.89,2.13.43.16,1.3.5,1.72.67.82.13,1.83-.31,2.58-.56,1.67-.56,3.48-1.15,5.17-1.66,1.07-.28,2.32-.83,3.45-.75,3.83.99,7.6,2.4,11.2,4.03,5.07-1.12,10.32-1.6,15.51-1.77,2.85-.07,5.77.18,8.61-.04,11.47-.96,23.12-1.17,34.46,1.09"/><path class="b" d="M9.43,115.24c12.62-.17,25.49-1.63,37.9,1.33.77.19,1.82.48,2.58.71.77.3,1.82.52,2.58.12,3.43-1.09,6.85-2.45,10.34-3.38,1.12-.42,2.31-.32,3.45-.04,1.37.23,2.92.37,4.31.23.78-.09,1.83-.31,2.58-.52,1.42.31,2.97.81,4.31,1.38.75.3,1.75.83,2.58.82,2.78-.94,5.76-1.47,8.61-2.11,3.87.61,7.61,2.03,11.2,3.57,3.71-1.18,7.39-2.72,11.2-3.56,3.19.84,6.41,1.89,9.48,3.12.77.29,1.73.87,2.58.74,1.36-.3,2.92-.45,4.31-.6,3.99-.39,8.05-.56,12.06-.68,2.55-.11,5.2.04,7.75-.09,3.71-.32,7.47-.73,11.2-.79,8.09-.2,16.24.59,24.12,2.47"/><path class="b" d="M9.43,112.69c11.2.2,22.6-.59,33.59,1.98,1.09.26,2.38.62,3.45.97,2.01-.39,4.07-1.09,6.03-1.69,3.1-.88,6.24-2.3,9.48-2.5,1.65.35,3.47.65,5.17.62,1.41.01,2.97-.23,4.31-.67,2.09.37,4.05,1.54,6.03,2.26,2.76-.96,5.71-1.77,8.61-2.12,1.68.43,3.55.68,5.17,1.29,2.31.71,4.57,1.93,6.89,2.55,3.64-1.46,7.4-2.81,11.2-3.8,1.43.01,2.93.67,4.31,1.02,2.29.7,4.65,1.51,6.89,2.36.76.3,1.76.75,2.58.48,1.38-.17,2.92-.38,4.31-.42,4.29-.13,8.63-.05,12.92-.11,2.55-.06,5.2-.03,7.75-.21,3.12-.39,6.33-.78,9.48-.86,6.94-.26,13.9.59,20.67,2.08,1.33-.78,2.88-1.53,4.31-2.11"/><path class="b" d="M9.43,110.18c9.48.5,19.11.34,28.43,2.37,1.09.24,2.38.58,3.45.9,2.02-.06,4.08-.86,6.03-1.33,3.69-1.08,7.42-2.26,11.2-2.98,1.97.27,4.03.79,6.03.78,6.25-.15,3.76-2.17,10.34,1.28,1.13-.06,2.35-.68,3.45-.94,1.37-.38,2.92-.73,4.31-1.03,4.49.6,8.83,2.29,12.92,4.2,1.77-.18,3.47-1.33,5.17-1.84,2.51-.94,5.16-1.77,7.75-2.42,4.35,1.07,8.67,2.5,12.92,3.91,1.05.47,2.32.57,3.45.45,1.38-.04,2.93-.05,4.31-.04,3.42.16,6.91.46,10.34.57,2.85.1,5.78.07,8.61-.21,2.55-.31,5.18-.76,7.75-.91,5.46-.38,11.02.03,16.37,1.19,3.32-1.66,6.75-3.3,10.34-4.33"/><path class="b" d="M9.43,107.69c8.64.8,17.43,1.11,25.84,3.39,1.65.65,3.51-.23,5.17-.51,2.87-.66,5.75-1.59,8.61-2.27,2.25-.46,4.59-1.3,6.89-1.37,3.97.9,8.15,1.17,12.06-.15,1.45.47,2.98,1.23,4.31,1.98.84.15,1.81-.37,2.58-.62,1.89-.45,4.1-1.58,6.03-.99,1.68.43,3.5.86,5.17,1.34,2.62.94,5.21,2.2,7.75,3.3,4.1-2.06,8.47-3.69,12.92-4.8,1.42-.18,2.93.58,4.31.87,2.56.72,5.2,1.52,7.75,2.28,2.25.65,4.59,1.39,6.89,1.87,3.42.33,6.9.53,10.34.44,6.59,0,13.22,0,19.81,0,3.42-.25,6.91.01,10.34,0,1.22.14,2.35-.93,3.45-1.34,1.93-.93,4.02-1.8,6.03-2.53,1.07-.39,2.36-.81,3.45-1.14,1.05-.33,2.36-.8,3.45-.31"/><path class="b" d="M9.43,105.22c5.17.68,10.39,1.29,15.51,2.33,2.3.43,4.63,1.14,6.89,1.71,1.08-.21,2.37-.48,3.45-.72,5.43-1.31,10.87-2.83,16.37-3.86,1.98-.11,4.04.64,6.03.7,2.59.25,5.28-.1,7.75-.89,6.71,2.35,2.37,2.5,9.48.44,1.7-.69,3.5.22,5.17.6,3.94.92,7.67,2.68,11.2,4.63.52.02,1.31-.31,1.72-.6,1.07-.58,2.34-1.23,3.45-1.74,2.45-1.18,5.13-2.07,7.75-2.77.78-.2,1.78-.57,2.58-.32,1.39.36,2.93.78,4.31,1.16,3.42.95,6.89,1.99,10.34,2.84,3.09.7,6.28,1.57,9.48,1.43,4.87,0,9.78,0,14.64,0,3.71,0,7.49,0,11.2,0,2.26-.1,4.67.22,6.89-.18,3.35-1.52,6.84-2.94,10.34-4.09,1.37-.45,2.92-.92,4.31-1.3,1.42.18,2.94.75,4.31,1.16"/><path class="b" d="M9.43,102.79c4.32.74,8.69,1.54,12.92,2.66,1.7.45,3.52,1.01,5.17,1.62,1.1-.04,2.37-.41,3.45-.64,5.99-1.45,11.99-3.18,18.09-4.13,2.25.38,4.61.76,6.89.83,2.31.16,4.63-.54,6.89-.82,1.44.44,2.99,1.12,4.31,1.86,1.95-.66,3.97-1.61,6.03-1.83,2.57.7,5.23,1.43,7.75,2.29,2.04.82,4.14,1.86,6.03,2.99,1.04.4,2.36.2,3.45.24.54.06,1.31-.27,1.72-.6.76-.44,1.8-1.01,2.58-1.4,2.73-1.35,5.64-2.54,8.61-3.24.43-.12,1.28-.3,1.72-.34.44.11,1.29.34,1.72.45,1.08.29,2.37.64,3.45.93,3.98,1.08,8.01,2.24,12.06,3.04,6.78,1.55,13.77,1.1,20.67,1.15,5.44,0,10.93,0,16.37,0,2.05-.36,4.05-1.43,6.03-2.08,3.38-1.26,6.86-2.44,10.34-3.4.79-.14,1.83.23,2.58.45,1.39.41,2.95.93,4.31,1.45"/><path class="b" d="M9.43,100.42c3.77.75,7.56,1.72,11.2,2.97,1.1.38,2.38.88,3.45,1.34,1.64.33,3.54-.61,5.17-.91,5.4-1.43,10.87-2.84,16.37-3.84,2.26.3,4.61.71,6.89.78,2.29.1,4.68-.24,6.89-.82,1.44.36,2.99,1,4.31,1.68,2.03-.24,3.97-1.46,6.03-1.57,4.77,1.32,9.61,2.77,13.78,5.51,1.97,0,4.06,0,6.03,0,1.23-.13,2.34-1.2,3.45-1.69,1.91-1,4.01-1.9,6.03-2.65,1.34-.53,2.9-.9,4.31-1.23,2.02.17,4.06,1,6.03,1.44,3.97,1.06,8.01,2.14,12.06,2.86,7.09,1.36,14.36,1.15,21.53.79,1.38-.04,2.93-.05,4.31.12,1.37.24,2.91.42,4.31.35,1.68-.05,3.5.12,5.17-.11,1.7-.42,3.51-1.01,5.17-1.57,3.97-1.36,8.01-2.73,12.06-3.83,2.96.29,5.86,1.61,8.61,2.7"/><path class="b" d="M9.43,98.19c4.53.87,8.74,2.63,12.92,4.48,6.04-1.42,12.01-3.34,18.09-4.59,2.54-.79,5.18.18,7.75.27,2.57.2,5.25-.02,7.75-.65,1.47.14,2.99.83,4.31,1.46,2.02-.14,3.99-1.57,6.03-1.33,4.46,1.23,9.05,2.6,12.92,5.2,1.04.39,2.36.2,3.45.24,1.68,0,3.49,0,5.17,0,.9.16,1.88-.44,2.58-.92.76-.44,1.79-1,2.58-1.38,2.75-1.27,5.65-2.49,8.61-3.16.8-.35,1.8.07,2.58.27,1.38.37,2.92.78,4.31,1.13,3.97,1.03,8.01,2.05,12.06,2.69,7.4,1.26,14.94.92,22.4.5,2.57-.15,5.23,0,7.75.52,1.98.26,4.1-.03,6.03-.5,5.21-1.33,10.3-3.27,15.51-4.62,1.43-.16,2.94.6,4.31.94,2.02.65,4.13,1.48,6.03,2.43"/><path class="b" d="M9.43,95.97c2.63.68,5.3,1.6,7.75,2.76,1.12.49,2.3,1.35,3.45,1.76,5.19-1.34,10.29-3.15,15.51-4.38,1.07-.26,2.36-.53,3.45-.73,1.69.05,3.48.48,5.17.58,2.27.2,4.66.13,6.89-.31,1.74-.61,3.58.26,5.17.96,2-.07,4.03-1.68,6.03-1,4.49,1.19,9.11,2.58,12.92,5.32,3.71.02,7.49,0,11.2,0,1.84-.39,3.44-1.76,5.17-2.46,3.03-1.27,6.19-2.76,9.48-3.14,5.12,1.35,10.29,2.73,15.51,3.68,5.38.98,10.91,1.29,16.37,1.15,5.15-.12,10.35-.69,15.51-.37,1.39.05,2.92.43,4.31.35,2.01-.21,4.09-.75,6.03-1.3,4-1.17,8.02-2.47,12.06-3.51,3.85.97,7.75,2.23,11.2,4.24"/><path class="b" d="M9.43,93.78c3.33,1.01,6.65,2.45,9.48,4.51,2.64-.33,5.2-1.59,7.75-2.33,2.25-.75,4.6-1.49,6.89-2.09,1.37-.3,2.89-.85,4.31-.78,2.82.47,5.76.86,8.61.62,1.41-.06,2.91-.57,4.31-.59.79.19,1.83.53,2.58.84,1.34.25,2.95-.73,4.31-.95,3.51.73,7.03,1.87,10.34,3.24.8.34,1.84.9,2.58,1.34.74.45,1.65,1.24,2.58,1.05,3.13,0,6.34,0,9.48,0,1.59-.86,3.42-1.54,5.17-1.99,1.36-.39,2.95-.55,4.31-.95.76-.32,1.81-.74,2.58-1.02,1.07-.39,2.36-.82,3.45-1.16,1.06-.3,2.37-.69,3.45-.26,7.35,1.88,14.8,3.73,22.4,4.16,3.71.22,7.49.23,11.2.05,5.68-.78,11.55-1.46,17.23-.39,2.59.59,5.25-.69,7.75-1.26,2.26-.65,4.62-1.36,6.89-1.98,1.07-.25,2.33-.79,3.45-.7,4.2,1.05,8.43,2.49,12.06,4.89"/><path class="b" d="M9.43,91.62c3.09,1.04,6.11,2.6,8.61,4.7,5.44-1.82,10.74-4.25,16.37-5.47,1.67-.3,3.48.47,5.17.53,2.56.3,5.25.19,7.75-.44,1.1-.47,2.4.23,3.45.57,1.13.01,2.36-.62,3.45-.86,4.7,1.33,9.61,2.63,13.78,5.26.97.68,2.33.37,3.45.43,1.38,0,2.92,0,4.31,0,.78,0,1.81,0,2.58,0,.44-.24,1.27-.7,1.72-.92,1.61-.77,3.44-1.35,5.17-1.75,2.52-.57,5.18-.88,7.75-.99,1.95-.67,3.99-1.45,6.03-1.81.8-.32,1.8.06,2.58.25,1.08.26,2.36.57,3.45.82,3.4.79,6.88,1.54,10.34,2.07,4.83.75,9.76,1.01,14.64.98,2.56-.28,5.17-.91,7.75-1.08,3.7-.32,7.49-.65,11.2-.27,1.69.22,3.5.61,5.17.96.76-.15,1.83-.38,2.58-.57,4.02-1.03,8.04-2.26,12.06-3.28,4.88,1.03,9.6,2.9,13.78,5.6"/><path class="b" d="M9.43,89.5c2.84.99,5.39,2.73,7.75,4.54.85.1,1.83-.44,2.58-.75,1.08-.47,2.36-1.03,3.45-1.49,3.33-1.32,6.76-2.9,10.34-3.37,2.8.57,5.74,1.1,8.61.85,1.41-.12,2.95-.47,4.31-.87.79.15,1.83.51,2.58.77.77-.31,1.74-.74,2.58-.67,1.39.44,2.93.94,4.31,1.41,2,.68,4.11,1.44,6.03,2.32,1.13.48,2.29,1.37,3.45,1.8,1.08-.12,2.35-.32,3.45-.25,1.95.16,4.09.51,6.03.06,1.29-.84,2.85-1.55,4.31-2.05,3.03-1.03,6.29-1.52,9.48-1.74,1.96-.25,4.15.2,6.03-.5,1.65-.46,3.46-.96,5.17-1.09,3.13.71,6.33,1.42,9.48,2.02,5.66,1.11,11.46,1.72,17.23,1.82,2,.05,4.04-.75,6.03-.93,6.84-.82,13.97-1.6,20.67.41,1.4.25,2.94-.45,4.31-.72,1.97-.51,4.06-1.09,6.03-1.62,1.37-.31,2.89-.92,4.31-.96,2.61.61,5.27,1.41,7.75,2.42,1.43.58,2.98,1.36,4.31,2.16.67.47,1.71,1.13,2.58.96"/><path class="b" d="M9.43,87.43c2.54.96,4.77,2.67,6.89,4.31.44,0,1.29,0,1.72,0,1.41-.62,2.91-1.46,4.31-2.12,3.03-1.42,6.19-2.84,9.48-3.54,2.8.63,5.73,1.28,8.61,1.06,1.41-.11,2.96-.48,4.31-.92.82-.26,1.84.21,2.58.52.41-.21,1.27-.5,1.72-.58,3.15,1.17,6.42,2.29,9.48,3.7,1.13.51,2.33,1.34,3.45,1.87,1.41.1,2.9-.44,4.31-.46,1.09-.04,2.38.09,3.45.31.9.27,1.89.13,2.58-.51,1.03-.62,2.32-1.23,3.45-1.64,4.11-1.48,8.57-1.96,12.92-2.03,1.68-.06,3.49.15,5.17.07,1.95-.52,4.04-.98,6.03-1.34,8.5,1.69,17.15,3.45,25.84,3.33,4.49-1.12,9.17-1.53,13.78-1.74,4.34-.25,8.77-.09,12.92,1.33,1.35.55,2.94-.3,4.31-.51,2.56-.64,5.2-1.34,7.75-1.99.41-.11,1.31-.32,1.72-.43,1.09.16,2.38.52,3.45.81,2.01.56,4.11,1.28,6.03,2.11,1.11.48,2.41,1.13,3.45,1.75.36.28,1.3.76,1.72.94.4,0,1.32,0,1.72,0"/><path class="b" d="M9.43,85.33c2.21.97,4.26,2.48,6.03,4.1.77,0,1.82,0,2.58,0,1.21-.25,2.35-1.24,3.45-1.79,2.45-1.37,5.09-2.61,7.75-3.49,1.07-.53,2.37-.16,3.45.13,1.65.39,3.47.74,5.17.78,2.03.07,4.13-.46,6.03-1.16.47-.13,1.31.03,1.72.28.44,0,1.31-.16,1.72-.3,2.56,1.08,5.24,2.14,7.75,3.33,1.12.54,2.42,1.28,3.45,2,.74.29,1.8.23,2.58.22,1.1.01,2.34-.5,3.45-.52,1.39-.13,2.93.15,4.31.25,7.02-4.48,16.08-4.54,24.12-3.72,2.56-.47,5.17-1.21,7.75-1.59,4.56.81,9.18,1.63,13.78,2.14,2.84.32,5.76.55,8.61.71,1.96-.4,4.04-.86,6.03-1.1,5.97-.66,12.11-1.19,18.09-.38,1.1.19,2.38.57,3.45.9.76.23,1.77.72,2.58.46,2.57-.54,5.2-1.22,7.75-1.85,1.07-.27,2.37-.58,3.45-.84.78-.11,1.83.19,2.58.38,2.91.73,5.87,1.67,8.61,2.91,1.45.59,2.86,1.66,4.31,2.23.76,0,1.83,0,2.58,0"/><path class="b" d="M9.43,83.18c1.87.91,3.74,2.2,5.17,3.71,1.32.46,2.93.17,4.31.25,2.19-1.48,4.47-3.04,6.89-4.12,1.34-.54,2.83-1.43,4.31-1.44,5.77,1.66,8.04,1.98,13.78-.03.44.22,1.26.27,1.72.11.86,0,1.82.58,2.58.92,1.69.79,3.53,1.63,5.17,2.52,1.13.57,2.28,1.54,3.45,2.04,1.38,0,2.92.02,4.31-.02,1.63-.5,3.48-.59,5.17-.39,1.45-.45,2.85-1.46,4.31-1.92,2.74-1.02,5.71-1.54,8.61-1.78,3.13-.25,6.35-.2,9.48.12,1.09.12,2.37.3,3.45.51,1.09-.22,2.36-.58,3.45-.82,2.25-.48,4.6-1.02,6.89-1.25,4.56.72,9.18,1.37,13.78,1.79,1.68.15,3.49.33,5.17.39,2.24-.51,4.61-.87,6.89-1.12,3.7-.39,7.48-.58,11.2-.58,3.78-.04,7.67.31,11.2,1.74.72.45,1.81.23,2.58.04.76-.16,1.82-.4,2.58-.57,1.68-.38,3.49-.82,5.17-1.21,1.07-.21,2.37-.73,3.45-.34,3.51.78,7.06,1.79,10.34,3.28,1.44.56,2.82,1.73,4.31,2.14,1.07,0,2.37,0,3.45,0"/><path class="b" d="M9.43,80.95c1.9.93,3.72,2.34,5.17,3.88,1.68-.02,3.49.06,5.17-.05,2.72-2.46,6.02-4.37,9.48-5.58,5.75,1.78,7.99,2.42,13.78.35.48-.27,1.21-.34,1.72-.16,1.21-.04,2.37.94,3.45,1.4,2.05,1.04,4.2,2.21,6.03,3.61,1.22.8,2.92.32,4.31.44,2,.17,4.04-.41,6.03-.35,2.18-1.08,4.49-2.17,6.89-2.68,4.21-.97,8.63-1.09,12.92-.72,1.39.13,2.94.35,4.31.62.78.15,1.79.52,2.58.26,4.5-1.21,9.14-2.26,13.78-2.69,2.84.37,5.77.7,8.61.98,1.97.15,4.05.48,6.03.45,1.37-.26,2.92-.5,4.31-.67,4.27-.52,8.62-.73,12.92-.75,4.66-.04,9.48.28,13.78,2.24,3.74-.6,7.48-1.61,11.2-2.34,2.89.57,5.83,1.28,8.61,2.24,2.37.82,4.79,1.89,6.89,3.26,1.66.26,3.49.07,5.17.13"/><path class="b" d="M9.43,78.64c1.91.92,3.68,2.39,5.17,3.89,1.97-.06,4.07.14,6.03-.12,2.38-2.39,5.38-4.43,8.61-5.45,3.27,1.1,6.87,2.49,10.34,1.45.75-.3,1.82-.5,2.58-.75.76-.25,1.76-.74,2.58-.77,1.98,1.12,4.12,2.24,6.03,3.48,1.37.76,2.58,2.43,4.31,2.16,2.55,0,5.2.01,7.75,0,2.21-.99,4.47-2.18,6.89-2.62,6.28-1.41,12.81-.62,18.95,1.01,3.08-1.01,6.3-1.78,9.48-2.43,3.4-.64,6.89-1.29,10.34-1.55,2.84.28,5.77.56,8.61.79,1.68-.11,3.48-.46,5.17-.59,1.97-.3,4.06-.1,6.03.01,2.55.12,5.2.2,7.75.18,2.27.01,4.63-.17,6.89-.36,2.34.33,4.74.99,6.89,1.97,3.45-.56,6.9-1.43,10.34-2.04,3.18.58,6.42,1.35,9.48,2.41,2.38.8,4.73,1.95,6.89,3.22,1.98-.04,4.11.2,6.03-.39"/><path class="b" d="M9.43,76.25c1.92.93,3.8,2.31,5.17,3.95,1.97.07,4.06.02,6.03.03,2.73-1.99,5.44-4.27,8.61-5.52,7.25,2.42,8.17,2.78,15.51-.11,2.97,1.67,5.91,3.57,8.61,5.63,3.13,0,6.34,0,9.48,0,1.89-.91,3.95-1.72,6.03-2.07,2.81-.5,5.78-.5,8.61-.17,2.63.32,5.33.97,7.75,2.07.49.07,1.29-.11,1.72-.33,1.07-.39,2.35-.82,3.45-1.14,7.01-2.05,14.29-3.23,21.53-4.05.77.04,1.82.17,2.58.25.77.04,1.81-.15,2.58-.1,4.28.43,8.62.75,12.92.93,3.13.11,6.35.11,9.48-.19,1.39-.15,2.94-.41,4.31-.71,1.76.09,3.56.88,5.17,1.56,3.17-.31,6.31-1.33,9.48-1.64,3.48.61,7,1.43,10.34,2.6,1.41.5,2.97,1.14,4.31,1.82.75.38,1.73,1.07,2.58,1.18,2.31.16,4.65-.3,6.89-.83"/><path class="b" d="M9.43,73.78c2.51.97,4.34,3.32,6.89,4.15,1.38,0,2.93,0,4.31,0,1.42-.78,2.71-2.12,4.31-2.62,1.61-1.07,3.31-2.35,5.17-2.94,2.44,1.02,5.05,2.17,7.75,2.13,2.34-.29,4.92-.81,6.89-2.17,3.33.82,5.92,3.61,8.61,5.6,3.42,0,6.91,0,10.34,0,1.42-.15,2.88-.87,4.31-1.01,2.25-.34,4.65-.21,6.89.19,1.4.19,2.88.91,4.31.82,2.55-.04,5.2.09,7.75-.07,1.07-.39,2.35-.82,3.45-1.15,2.8-.86,5.74-1.54,8.61-2.12,1.66-.5,3.47-.98,5.17-1.34,1.67-.35,3.48-.66,5.17-.89,1.09.02,2.36.33,3.45.24,2.27-.31,4.62-.26,6.89,0,2.55.2,5.2.4,7.75.61,3.42.19,6.91.75,10.34.76,2.31-.27,4.66-.88,6.89-1.53,1.15-.08,2.4.6,3.45,1.01,1.69.13,3.5-.47,5.17-.7,1.08-.15,2.36-.62,3.45-.36,3.47.59,6.99,1.38,10.34,2.5,2.37.74,4.68,1.91,6.89,3.03,1.07,0,2.37,0,3.45,0,1.68-.32,3.49-.74,5.17-1.07"/><path class="b" d="M9.43,71.24c1.13.41,2.28,1.31,3.45,1.58,1.88.49,3.71,1.53,5.17,2.8h3.45c1.36-1.45,3.23-2.6,5.17-3.07,1.29-.95,2.82-1.91,4.31-2.52,2.22.83,4.48,2.01,6.89,2.15,2.69,0,5.55-.65,7.75-2.24,3.29.88,6.08,3.34,8.61,5.53,3.68.36,7.49.04,11.2.14,6.3,0,12.65,0,18.95,0,.54.1,1.29-.14,1.72-.46.75-.43,1.78-.98,2.58-1.31,2.75-1.18,5.7-2.08,8.61-2.76,1.95-.4,4.03-.95,6.03-1,2.85.38,5.73,1.28,8.61.78,4-.26,8.06-.75,12.06-.78,5.74.29,11.48,1.21,17.23,1.27,1.78.16,3.41-1.28,5.17-1.18.74.32,1.77.76,2.58.48,1.38-.2,2.93-.46,4.31-.7,3.46.5,6.97,1.19,10.34,2.15,2.96.85,5.92,2.01,8.61,3.5,1.67,0,3.49,0,5.17,0,1.67-.38,3.49-.79,5.17-1.14"/><path class="b" d="M9.43,68.66c1.3.62,2.93.69,4.31,1.07,2.23.57,4.45,1.73,6.03,3.42.76.22,1.81.21,2.58.07,1.57-1.66,3.76-2.87,6.03-3.19,1.26-.9,2.71-2.11,4.31-2.25,4.31,2.22,9.6,2.91,13.78.02.58-.16,1.23-.03,1.72.25,1.13.5,2.4,1.2,3.45,1.85,1.76.99,3.34,2.57,5.17,3.41,1.08,0,2.36,0,3.45,0,4.87,0,9.78,0,14.64,0,1.08,0,2.36,0,3.45,0,1.75-.49,3.43-1.59,5.17-2.16,3.6-1.4,7.42-2.37,11.2-3.15,1.39-.47,2.93.04,4.31.32,1.98.43,4.06.92,6.03,1.36,7.16-.61,14.37-.98,21.54-1.58,1.38-.11,2.93-.25,4.31-.37,2.85.12,5.76.6,8.61.68,2.26,0,4.69.1,6.89-.46.4-.13,1.3-.17,1.72-.06.41-.05,1.31-.17,1.72-.23,4.06.38,8.13,1.24,12.06,2.35,2.96.77,5.83,2.06,8.61,3.29,2.55,0,5.2,0,7.75,0,1.38-.32,2.93-.71,4.31-1.01"/><path class="b" d="M9.43,65.96c3.25.19,6.64.76,9.48,2.44,1.22.64,2.24,1.97,3.45,2.62h.86c1.83-1.83,4.28-3.2,6.89-3.39,1.37-.75,2.74-1.97,4.31-2.26,5,2.21,8.8,2.58,13.78.06.85-.03,1.83.46,2.58.79,1.74.79,3.52,1.8,5.17,2.76,1.37.66,2.73,2,4.31,2.03,3.71,0,7.49,0,11.2,0,3.68-1.38,7.4-2.84,11.2-3.88,1.96-.58,4.04-1.16,6.03-1.65,2.32.32,4.64,1.17,6.89,1.79,1.37.33,2.87,1.18,4.31.96,7.16-.54,14.37-.72,21.54-1.21,5.46-.34,10.92-1.07,16.37-1.6,2.84.25,5.78-.17,8.61.07,4.32.2,8.69,1.25,12.92,2.3,2,.54,4.1,1.2,6.03,1.98,1.09.36,2.26,1.28,3.45,1.24,2.55,0,5.2,0,7.75,0,1.07,0,2.37,0,3.45,0,.76-.16,1.83-.45,2.58-.64"/><path class="b" d="M9.43,62.98c5.29.18,11.24,1.3,14.64,5.74.55-.1,1.36-.7,1.72-1.1.98-.76,2.25-1.46,3.45-1.82,1.06-.37,2.38-.37,3.45-.7.74-.52,1.76-1.14,2.58-1.52,1.08-.73,2.35-.14,3.45.21,1.35.41,2.89.74,4.31.75,1.73.01,3.54-.45,5.17-.99,1.96-.83,2.5-.33,4.31.39,1.95.8,3.99,1.72,6.03,2.28,7.81,2.68,14.94-.92,22.4-2.94,1.43-.22,2.94.64,4.31,1.01,2,.69,4.09,1.52,6.03,2.38,4.86-.36,9.77-.59,14.64-.71,5.73-.16,11.51-.08,17.23-.45,4.9-.28,9.79-1.08,14.64-1.7,2.25-.24,4.63-.26,6.89-.15,1.08.05,2.37.26,3.45.28.38-.23,1.31-.64,1.72-.81,1.39.61,2.92,1.33,4.31,1.95,1.69.37,3.51.82,5.17,1.31,1.4.42,2.95.94,4.31,1.49.77.3,1.73.89,2.58.82,3.13,0,6.34,0,9.48,0,1.67-.06,3.51.14,5.17-.13.42-.18,1.3-.53,1.72-.69"/><path class="b" d="M9.43,60.11c4.4.11,9.04.55,12.92,2.78.83.48,1.88,1.27,2.58,1.92.35.46,1.1,1.14,1.72,1.18,2.05-1.93,4.94-3,7.75-2.95,1.7-.66,3.33-1.88,5.17-2.22,3.34,1.12,6.98,1.07,10.34.06.79-.28,1.82.09,2.58.3.46.06,1.31-.11,1.72-.32,5.41,1.65,10.83,2.42,16.37.81,1.08-.26,2.33-.73,3.45-.79,1.1.31,2.38.73,3.45,1.13,1.41.53,2.96,1.21,4.31,1.89.73.42,1.72.89,2.58.7,5.73-.33,11.49-.62,17.23-.73,10.04-.36,20.17,1.11,30.15-.48,2.56-.37,5.18-.95,7.75-1.21,2.85-.14,5.79.07,8.61.45,3.69-1.56,2.78-2.41,6.89-.54,2.26.92,4.63,1.88,6.89,2.8,1.66.6,3.33,1.75,5.17,1.52,3.71,0,7.49,0,11.2,0,1.4-.37,2.9-1.03,4.31-1.41"/><path class="b" d="M9.43,57.36c6.69-.03,14.37.71,18.95,6.19,1.22-.29,2.26-1.44,3.45-1.85,1.05-.42,2.32-.75,3.45-.86.78-.07,1.82.01,2.58-.19,1.81-1.08,3.95-1.79,6.03-2.11,1.08.11,2.36.21,3.45.16.78-.03,1.82-.14,2.58-.26,2.01.1,4.08.67,6.03,1.16.49.19,1.25.16,1.72-.04,1.07-.25,2.35-.45,3.45-.54,4.79-.46,9.65.69,13.78,3.14,2.24.31,4.63-.03,6.89-.03,4.29-.15,8.63-.38,12.92-.56,4.57-.28,9.21-.07,13.78-.36,6.01-.34,12.06-1.09,18.09-.9,3.16.08,6.42.31,9.48,1.17,4.27-.67,8.66-.66,12.92.07,1.85-1.14,3.81-2.68,6.03-2.93,2.84.98,5.77,1.97,8.61,2.92,1.68.57,3.5,1.19,5.17,1.81.43.16,1.3.51,1.72.68.76.11,1.82.08,2.58.08,1.08-.04,2.4.13,3.45-.2,1.93-.72,4.03-1.3,6.03-1.76"/><path class="b" d="M9.43,54.7c7.53-.18,16.25.36,21.53,6.45,1.22-.12,2.28-1.24,3.45-1.59,1.88-.74,4.03-.99,6.03-.74,2.65-1.34,5.64-2.1,8.61-2.16,6.43-.1,12.58,2.41,18.95,2.91,9.47.72,18.97-.24,28.43-.76,2.55-.12,5.2-.23,7.75-.17,2.27.22,4.63.05,6.89-.25,7.99-.92,24.46-3.18,31.01,1.7,2.57-.04,5.23.23,7.75.74,1.18-.62,2.27-1.81,3.45-2.44,1.58-.94,3.42-1.68,5.17-2.22,5.48,1.48,10.96,3.15,16.37,4.91,2.55-.6,5.16-1.33,7.75-1.73"/><path class="b" d="M9.43,52.12c6.38-.26,13.03.13,18.95,2.72,1.16.52,2.46,1.31,3.45,2.1.79.61,1.68,1.68,2.58,2.13,2.7-1.94,6.2-2.64,9.48-2.27,2.23-.66,4.54-1.44,6.89-1.49,3.75-.2,7.51.63,11.2,1.2,3.68.63,7.46,1.04,11.2,1.05,6.92.15,13.8-.92,20.67-1.51,5.72-.5,11.53-.46,17.23.31,1.41.35,2.94-.16,4.31-.44,1.67-.35,3.49-.72,5.17-1.02,6.83-.66,14.02-1.38,20.67.66,1.17.43,2.47,1.18,3.45,1.95.78.58,1.58,1.8,2.58,2.01,1.67,0,3.49,0,5.17,0,2.05-2.27,4.84-3.88,7.75-4.77,1.35-.37,2.91-1.12,4.31-.59,4,1,8.07,1.96,12.06,2.99.77.33,1.8.03,2.58-.09,1.07-.18,2.37-.36,3.45-.5"/><path class="b" d="M9.43,49.62c6.92-.26,14.14.03,20.67,2.55,1.8.72,3.64,1.74,5.17,2.94.78.57,1.58,1.71,2.58,1.89,2.27-1.48,5.06-2.19,7.75-2.28,1.39-.12,2.96.31,4.31-.13,3.97-.92,8.08-.23,12.06.24,4.55.59,9.2.94,13.78.51,8.03-.85,16.02-2.46,24.12-2.61,3.72-.07,7.51.14,11.2.67,1.99.21,4.04.87,6.03.99,5.45-2.2,11.4-2.77,17.23-2.7,6.45.07,10.73.85,15.51,5.53h6.03c.85-.42,1.79-1.29,2.58-1.79,1.3-.83,2.86-1.55,4.31-2.09,2.2-.69,4.57-1.66,6.89-1.66,2.55.52,5.2,1.05,7.75,1.58,1.68.31,3.45.95,5.17.59"/><path class="b" d="M9.43,47.22c10.59-.23,22.9-.23,31.01,7.61.45.05,1.28.09,1.72.07.44-.21,1.28-.6,1.72-.78,1.33-.53,2.89-.9,4.31-1.09,2.54-.33,5.21-.22,7.75.01,2.85-.1,5.77.34,8.61.47,5.19.18,10.41-.34,15.51-1.35,13.29-2.89,27.36-3.79,40.49.38,4.73-2.59,10.2-3.18,15.51-3.15,6-.08,11.91.91,16.37,5.27,1.33.45,2.93.16,4.31.24,1.41-.05,3.09.26,4.31-.62,4.03-2.87,9.01-4.06,13.78-5.05,2.58.25,5.19.97,7.75,1.39"/><path class="b" d="M9.43,44.92c11.43-.29,24.32-.44,33.59,7.25.96.69,2.34.37,3.45.43,1.43.11,2.95-.13,4.31-.59,1.36-.32,2.91-.51,4.31-.6,4.59-.33,9.2.69,13.78.1,7.26-.9,14.24-3.51,21.53-4.24,1.67-.3,3.49-.19,5.17-.05,3.43-.12,6.92.15,10.34-.29,6.15.45,12.24,1.88,18.09,3.81,4.47-2.81,9.47-3.4,14.64-3.28,5.79-.03,11.89,1.11,16.37,5.04,1.71.05,3.48-.73,5.17-.98,2.53-.57,5.21-.88,7.75-1.38,2.73-1.17,5.7-1.95,8.61-2.53,1.07-.21,2.36-.44,3.45-.61.77.08,1.82.26,2.58.38"/><path class="b" d="M9.43,42.74c11.95-.4,25.07-.63,35.32,6.46.42.32,1.24.89,1.72,1.11.44,0,1.29,0,1.72,0,1.68,0,3.49,0,5.17,0,2.55-.02,5.2.04,7.75-.03,1.37-.24,2.92-.44,4.31-.62,5.87-.69,11.44-2.95,17.23-4.09,1.1-.19,2.35-.67,3.45-.87.42.06,1.3.1,1.72.09,3.11.47,6.32.84,9.48.91,4.32.17,8.65-.54,12.92-1.01.43-.11,1.32,0,1.72.2.75.21,1.82.38,2.58.53,4.38.9,8.74,2.24,12.92,3.83,3.33-2.26,7.18-3.32,11.2-3.25,3.44-.02,6.99.21,10.34,1.03,1.43.39,2.99.99,4.31,1.67,1.94,1.15,2.03,1.37,4.31.77,3.96-.8,8.03-1.35,12.06-1.73,1.43-.19,2.9-.94,4.31-1.26,2.8-.78,5.74-1.33,8.61-1.73"/><path class="b" d="M9.43,40.7c13.16-.6,27.59-.8,38.76,7.22,3.12.21,6.34.03,9.48.08,2.28-.06,4.7.26,6.89-.51,3.46-.86,6.97-1.8,10.34-2.96,1.05-.54,2.33-1.12,3.45-1.52,1.06-.44,2.36-.83,3.45-.26.78,0,1.82-.24,2.58-.33,7.94,1.58,16.13,1.86,24.12.46,1.07-.14,2.36-.45,3.45-.45.76.12,1.83.31,2.58.46.42-.11,1.32-.39,1.72-.56,1.49.34,2.94,1.29,4.31,1.93,3.5.94,7,2.21,10.34,3.63.92,0,1.79-.85,2.58-1.22,1.31-.65,2.87-1.14,4.31-1.38,4.92-.46,10.12.21,14.64,2.24,1.49.95,3.54.29,5.17.04,1.38-.25,2.92-.5,4.31-.7,1.67-.25,3.49-.41,5.17-.64,1.05-.5,2.34-1.02,3.45-1.4,2.21-.76,4.59-1.36,6.89-1.8,1.66-.27,3.48-.81,5.17-.45"/><path class="b" d="M9.43,38.71c7.75-.36,15.57-.69,23.26.6,3.21.52,6.45,1.38,9.48,2.58,2.26.51,4.65.91,6.89,1.48,5.03,1.23,10.37,2.59,15.51,1.13,3.87-.99,7.41-3.08,11.2-4.31,1.14-.23,2.31.62,3.45.56,1.07-.22,2.34-.59,3.45-.56,3.68.66,7.46,1.21,11.2,1.34,4.3.16,8.66-.19,12.92-.74,1.68-.15,3.48-.64,5.17-.59,1.68.27,3.5.62,5.17.99,1.08-.34,2.29-1.08,3.45-.99,1.45.59,3,1.39,4.31,2.24,1.03.73,2.19,1.63,3.45,1.91,1.09.41,2.36.94,3.45,1.35,1.97,0,4.06,0,6.03,0,.79,0,1.81-.32,2.58-.42,1.69-.16,3.52.04,5.17.42,2.55,0,5.2,0,7.75,0,1.97,0,4.06,0,6.03,0,.89-.04,1.82-.8,2.58-1.19,4.27-2.27,9.04-3.56,13.78-4.41,2.28.14,4.62.79,6.89,1.06"/><path class="b" d="M9.43,36.7c6.59-.23,13.25-.77,19.81.03,3.48.33,6.97,1.01,10.34,1.95,3.73.15,7.5.63,11.2,1.16,4.54.65,9.24,1.09,13.78.19,1.71-.32,3.52-.82,5.17-1.35.77-.25,1.81-.59,2.58-.83.44.05,1.31.25,1.72.41.43.14,1.3.42,1.72.56,2-.04,4.02-1.13,6.03-.88,8.53,1.6,17.27,1.13,25.84.1,2.27-.46,4.64.2,6.89.57,1.38.18,2.9.81,4.31.69,1.35-.55,2.93-1.04,4.31-1.53,3.42,1.25,6.74,3.09,9.48,5.5,1.65.31,3.49.09,5.17.15,2.55,0,5.2,0,7.75,0,1.97,0,4.06,0,6.03,0,1.09-.05,2.43.2,3.45-.31,4.5-2.62,9.59-4.18,14.64-5.33,4.34.57,8.61,1.99,12.92,2.79"/><path class="b" d="M9.43,34.63c6.01-.21,12.09-.68,18.09-.17,3.16.29,6.39.72,9.48,1.46,1.97.08,4.06-.02,6.03.06,5.74.12,11.48,1.05,17.23.79,1.99-.09,4.08-.35,6.03-.72.77-.15,1.81-.38,2.58-.51.77.18,1.83.47,2.58.7.76.23,1.78.63,2.58.65,1.95-.52,4.04-.98,6.03-1.3,2.56.04,5.18.64,7.75.67,6.31.21,12.67-.12,18.95-.73,2.87.08,5.8.67,8.61,1.2,1.39.19,2.9.91,4.31.72,1.94-.73,4.01-1.5,6.03-1.96,2.64.86,5.28,2.02,7.75,3.29,1.67.75,3.34,2.04,5.17,2.32,12.86,0,7.25.65,18.95-3.65,1.65-.6,3.47-1.18,5.17-1.64.78-.21,1.8-.59,2.58-.23,5.84,1.44,11.6,3.36,17.23,5.48"/><path class="b" d="M9.43,32.49c5.72-.23,11.51-.53,17.23-.21,2.57.24,5.22.56,7.75,1.04,1.36.28,2.92-.05,4.31-.03,6.02-.26,12.07.14,18.09.24,2.27.04,4.63-.17,6.89-.3,2.3.26,4.68.73,6.89,1.41,1.08.55,2.36,0,3.45-.25,1.95-.48,4.04-.88,6.03-1.14,4.28.27,8.62.58,12.92.46,2.56-.03,5.2-.12,7.75-.26,1.97-.09,4.06-.39,6.03-.1,2.86.27,5.8.69,8.61,1.27,1.08.22,2.37.52,3.45.79.42.21,1.29.23,1.72.02,2.23-.82,4.59-1.59,6.89-2.19,2.04.13,4.07,1.12,6.03,1.68,9.56,3.71,13.02,2.21,22.4-.57,1.37-.39,2.92-.82,4.31-1.17,1.08.26,2.38.6,3.45.91,3.51,1.01,7.04,2.26,10.34,3.85.39.21,1.32.64,1.72.84.39,0,1.32,0,1.72,0,1.67,0,3.49,0,5.17,0"/><path class="b" d="M9.43,30.29c5.72-.23,11.51-.48,17.23-.11,2.28.19,4.62.62,6.89.88,1.68-.44,3.48-.03,5.17.11,7.44.61,14.95-.37,22.4.24,1.99.16,4.08.45,6.03.87.78.17,1.82.44,2.58.66.45-.04,1.3-.22,1.72-.36,3.08-.81,6.3-1.42,9.48-1.68,2.55.13,5.2.28,7.75.3,4.29.05,8.64-.06,12.92-.28,2.56-.1,5.21.28,7.75.54,3.77.37,7.49,1.4,11.2,2.08,2.25-.74,4.58-1.6,6.89-2.15.75-.19,1.8-.5,2.58-.49.76.18,1.82.43,2.58.62,1.96.47,4.04,1,6.03,1.33,4.59.87,9.3.09,13.78-1.01,1.38-.27,2.9-.81,4.31-.84,1.69.39,3.51.89,5.17,1.42,14.03,4.85,4.21,4.08,20.67,4.09"/><path class="b" d="M9.43,28.08c6.01-.2,12.1-.5,18.09.13,1.69.2,3.47.61,5.17.32,2.26.35,4.61.72,6.89.86,6.3.43,12.65-.15,18.95.19,3.17.16,6.4.58,9.48,1.35,5.35-1.23,10.83-2.6,16.37-2.26,3.71.15,7.49.15,11.2.06,2.85-.09,5.77-.24,8.61.03,3.74.26,7.52.73,11.2,1.44,1.08.21,2.37.49,3.45.75.78.18,1.8.61,2.58.23,3.36-1.03,6.82-2.36,10.34-2.61,5.65,1.19,11.51,1.88,17.23.72,1.08-.18,2.37-.42,3.45-.63,1.71.06,3.51.66,5.17,1.05,2.6.7,5.26,1.58,7.75,2.62,1.41.52,2.85,1.49,4.31,1.86,4.29,0,8.63,0,12.92,0"/><path class="b" d="M9.43,25.87c8.34-.38,16.76-.29,24.98,1.19,6.27.92,12.64.58,18.95.59,4.31.02,8.7.29,12.92,1.2,2.28-.39,4.6-1.18,6.89-1.54,3.1-.58,6.32-.85,9.48-.96,2.84-.11,5.77.1,8.61.04,2.84.02,5.77-.18,8.61-.11,6.95.24,13.92,1.07,20.67,2.76,1.43-.11,2.92-.82,4.31-1.17,2.51-.72,5.16-1.37,7.75-1.69,3.11.47,6.33.85,9.48.83,2.57.04,5.2-.51,7.75-.66,6.2,1.02,12.35,2.78,18.09,5.34,1.64.39,3.5.11,5.17.19,3.13,0,6.34,0,9.48,0"/><path class="b" d="M9.43,23.7c5.15-.17,10.37-.32,15.51.19,2.87.3,5.77.94,8.61,1.39,2.83.36,5.76.53,8.61.56,7.46.05,15.02-.47,22.4.89,2-.25,4.03-1.02,6.03-1.35,3.1-.64,6.32-1,9.48-1.17,4.86-.3,9.78-.13,14.64-.24,8.66-.12,17.38.79,25.84,2.65,1.43-.07,2.92-.79,4.31-1.11,2.51-.7,5.16-1.23,7.75-1.54,1.97-.04,4.05.34,6.03.33,2.85.25,5.78-.21,8.61-.24,6.45.87,12.78,2.66,18.95,4.69.75.25,1.81.65,2.58.82,1.38,0,2.93,0,4.31,0,3.13,0,6.34,0,9.48,0"/><path class="b" d="M9.43,21.58c5.15-.15,10.39-.33,15.51.4,2.87.39,5.8.91,8.61,1.6,1.67.26,3.49.28,5.17.34,8.03.14,16.14-.62,24.12.62,1.72-.08,3.47-.84,5.17-1.12,2.81-.62,5.74-1.04,8.61-1.27,14.35-.89,28.9-.86,43.07,1.84,1.71.44,3.49-.68,5.17-.96,3.64-.88,7.44-1.66,11.2-1.19,1.97.06,4.06.05,6.03,0,1.08-.03,2.38-.24,3.45-.03,6.12.77,12.12,2.39,18.09,3.85,2.26.55,4.62,1.13,6.89,1.63,4-.03,8.06.06,12.06-.04"/><path class="b" d="M9.43,19.53c5.17-.23,10.38-.23,15.51.63,1.98.29,4.07.66,6.03,1.09,1.95.56,4,.87,6.03.78,8.03-.02,16.12-.79,24.12.24,1.71.07,3.48-.8,5.17-1.04,2.81-.62,5.75-1.03,8.61-1.27,14.35-.99,28.83-.83,43.07,1.27.76.11,1.82.27,2.58.37,1.07-.33,2.36-.68,3.45-.95,3.36-.73,6.88-1.53,10.34-1.14,4.3.28,8.67-.57,12.92.42,4.9.81,9.76,2.04,14.64,2.96,4.25.82,8.61,1.3,12.92,1.73,2.56.39,5.18-.52,7.75-.54"/><path class="b" d="M9.43,17.17c1.4-.38,2.92.15,4.31.28,3.74-.1,7.51.41,11.2.97,2.29.36,4.66.83,6.89,1.42,1.34.46,2.92.22,4.31.23,8.02-.33,16.11-1.01,24.12-.07,5.05-1.36,10.28-2.2,15.51-2.46,10.9-.6,21.85-.64,32.73.27,3.72.27,7.49.66,11.2,1.06,3.69-.61,7.41-1.86,11.2-1.78,3.7.42,7.49.18,11.2-.08,2.28.22,4.64.65,6.89,1.07,4.85.94,9.72,2.07,14.64,2.56,6.29.58,12.65.61,18.95.27"/><path class="b" d="M9.43,15.32c1.65.42,3.48.16,5.17.23,3.15.23,6.36.58,9.48,1.09,2.29.38,4.66.88,6.89,1.54,1.09.01,2.36-.08,3.45-.14,8.01-.62,16.09-1.28,24.12-.48,2-.2,4.03-.94,6.03-1.21,3.11-.54,6.33-.85,9.48-1.04,10.61-.62,21.27-.61,31.87.03,4.29.24,8.65.4,12.92.95,3.12-.51,6.28-1.52,9.48-1.5,2.54.31,5.2.44,7.75.33,1.97-.05,4.06-.42,6.03-.35,4.33.57,8.63,1.59,12.92,2.35,9.13,1.82,18.35.48,27.56.66"/></svg>