<?xml version="1.0" encoding="UTF-8"?><svg id="a" xmlns="http://www.w3.org/2000/svg" width="1920" height="2400" viewBox="0 0 192 240"><defs><style>.b{fill:none;stroke:#fff;stroke-miterlimit:10;stroke-width:.3px;}.c{stroke-width:0px;}</style></defs><rect class="c" x="0" width="192" height="240"/><path class="b" d="M9.67,222.07c3.54.38,7.26,1.02,10.31,2.99,1.45.29,2.47-1.09,3.44-1.93,1.58-1.21,3.18-2.99,5.15-3.49.78.5,1.72,1.36,2.58,1.73.73-.58,1.78-1.3,2.58-1.79,2.03.8,3.74,2.6,5.15,4.21.87-.23,1.77-1.04,2.58-1.4,2.69-1.33,5.87-.92,8.59.11,7.7-2.44,15.59.69,23.19,2.02,8.75-1.84,17.68-3,26.63-3.13,1.71.09,3.48-.47,5.15-.73,2.53-.44,5.17-.77,7.73-1.02,1.97-.29,4.04.16,6.01.23,2.83.19,5.75.25,8.59.22,3.13-.05,6.33-.1,9.45-.31,2.26-.09,4.62-.48,6.87-.18,4.31.35,8.69.63,12.89,1.74.76.37,1.83.02,2.58-.24,1.37-.42,2.92-.87,4.3-1.26,1.07-.48,2.39-.14,3.44.23,1.69.51,3.5,1.14,5.15,1.78,1.99.77,4.06,1.67,6.01,2.52,1.29.78,2.83.72,4.3.68"/><path class="b" d="M9.67,220.46c2,.26,4.11.66,6.01,1.34,1.06.4,2.25,1.12,3.44.96,1.09-.05,2.43.19,3.44-.3,1.7-1.96,3.69-4.03,6.01-5.24.45.3,1.31.97,1.72,1.32.9-.07,1.82-.86,2.58-1.27,2.37.91,4.3,2.98,6.01,4.8,2.91-3.12,7.69-2.74,11.17-.83,3.08-.62,6.34-.98,9.45-.37,1.39.23,2.92.55,4.3.87,1.08.24,2.36.74,3.44.26,7.63-1.64,15.44-2.6,23.19-3.4,4.27-.52,8.68-.25,12.89-1.27,1.98-.57,4.05.33,6.01.59,2.55.07,5.19.24,7.73.5,2.86.21,5.75.92,8.59,1.14,2.84-.17,5.77-.39,8.59-.79,3.42-.49,6.89-1.11,10.31-1.57,1.97.12,4.05.48,6.01.76,1.69.3,3.51.74,5.15,1.23,1.72.12,3.48-.87,5.15-1.22,1.07-.24,2.32-.89,3.44-.64,3.53,1,7.01,2.4,10.31,3.98.76.37,1.82.89,2.58,1.27,1.64.34,3.49.1,5.15.16"/><path class="b" d="M9.67,218.81c2.38-.04,4.72.73,6.87,1.65,1.97,0,4.05,0,6.01,0,1.06-.41,1.8-1.8,2.58-2.56.98-1.04,2.26-2.15,3.44-2.96.49.16,1.34.7,1.72,1.05.42-.27,1.28-.77,1.72-1.01,2.7.92,4.92,3.22,6.87,5.23,2.18-2.41,5.73-2.68,8.59-1.42,1.21.38,2.19,1.56,3.44,1.51,1.96-.2,4.04-.3,6.01-.29,1.39.11,2.89.57,4.3.45,3.97-2.05,8.51-2.51,12.89-3.04,5.42-.66,10.89-1.22,16.32-1.68,3.12-.37,6.39-.21,9.45-.91,2.53.38,5.18-.07,7.73.11,4-.03,8.05-.14,12.03.36,3.44.37,6.93.95,10.31,1.72,1.08.25,2.37.57,3.44.87.75.35,1.83.19,2.58-.12,3.65-1.12,7.37-2.36,11.17-2.85,1.68.29,3.51.61,5.15,1.08,1.08.26,2.32.82,3.44.93,1.68-.46,3.48-.99,5.15-1.47.75-.21,1.78-.61,2.58-.41,4.19,1.21,8.24,3.03,12.03,5.18.72.3,1.81.24,2.58.23,1.37,0,2.92,0,4.3,0"/><path class="b" d="M9.67,215.32c3.03.1,6.23.86,8.59,2.85,1.38,0,2.92,0,4.3,0,1.09-.01,1.95-1.23,2.58-1.98.95-1.17,2.23-2.42,3.44-3.32l.86-.13.86.41.86-.45c2.96.85,5.52,3.33,7.73,5.41.91-.06,1.76-.92,2.58-1.23,2.3-.87,4.92-.11,6.87,1.25,2.25.12,4.62.02,6.87.05,1.08,0,2.36,0,3.44,0,.45-.17,1.3-.59,1.72-.82,4.74-2.5,10.23-2.64,15.46-3.07,4.27-.32,8.61-.58,12.89-.84,2.54-.24,5.23-.13,7.73-.61.75-.3,1.8-.13,2.58-.01,1.67-.08,3.48-.28,5.15-.16,5.71.29,11.48.28,17.18-.13,6.13.17,12.05,2.29,18.04,3.36,2.22-.95,4.52-2.01,6.87-2.64.76-.22,1.8-.48,2.58-.64.78.11,1.82.39,2.58.61,1.7.35,3.41,1.71,5.15,1,1.38-.37,2.92-.81,4.3-1.2.76-.27,1.82-.47,2.58-.09,3.91,1.2,7.7,3,11.17,5.18,2.54.15,5.19.03,7.73.06"/><path class="b" d="M9.67,212.19c2.64.11,5.42.62,7.73,1.97.48.3,1.33,1.04,1.72,1.46,1.85.77,2.95-.18,4.3-1.32,1.95-1.37,4.24-2.47,6.01-4.09,2.57.33,4.8,2.01,6.87,3.47,1.11.66,2.1,2.07,3.44,2.19,1.42.1,2.85-.82,4.3-.61,1.11.09,2.31.73,3.44.61,2.84,0,5.75,0,8.59,0,.53.03,1.31-.29,1.72-.59.76-.41,1.78-.9,2.58-1.23,2.72-1.1,5.65-1.95,8.59-2.15,5.13-.38,10.32-.35,15.46-.4,3.42-.12,6.98.29,10.31-.66.76-.18,1.79-.45,2.58-.5.77.18,1.81.47,2.58.63,3.13-.21,6.32-.47,9.45-.72,3.12-.15,6.32.38,9.45.29,2.84.08,5.76-.47,8.59-.14,5.2.63,10.23,2.5,15.46,2.87,1.16-.24,2.33-1.08,3.44-1.48,1.34-.56,2.91-1.01,4.29-1.44,1.45.16,2.96.89,4.3,1.44,1.07.48,2.36-.22,3.44-.43,1.66-.35,3.47-1.43,5.15-.65,2.34.75,4.71,1.77,6.87,2.94,1.37.59,2.84,2.04,4.3,2.23,2.55,0,5.19,0,7.73,0"/><path class="b" d="M9.67,209.34c3.7.08,7.62.99,10.31,3.69,2.2-1.37,4.48-2.86,6.87-3.86,1.06-.41,2.27-1.18,3.44-1.18.94.86,2.36,1.31,3.44,1.95,1.72.96,3.48,2.15,5.15,3.18.72.56,1.73.48,2.58.46,1.08,0,2.36,0,3.44,0,2.26,0,4.61,0,6.87,0,1.4-.05,3.08.26,4.29-.61,2.15-1.13,4.52-2.07,6.87-2.69,4.46-1.31,9.15-1.31,13.74-.99,4.27.27,8.6.54,12.89.53,2.28-.34,4.62-.91,6.87-1.4.77-.17,1.8-.53,2.58-.22,1.39.21,2.88,1.13,4.29.9,3.99-.4,8.02-.93,12.03-1.06,1.96-.08,4.05.21,6.01.17,1.97.02,4.05-.06,6.01-.19,1.97.2,4.09.25,6.01.72,4.2,1.06,8.52,2.02,12.89,1.96,1.89-1.04,4.02-1.86,6.01-2.67,3.6.84,2.74,2.18,6.87.77,2.92-.93,3.14-.95,6.01.17,3.02,1.14,5.93,2.77,8.59,4.6h8.59"/><path class="b" d="M9.67,206.69c3.26.06,6.76.62,9.45,2.57,1.19.24,2.36-.76,3.44-1.16,1.91-.91,3.94-1.89,6.01-2.37l.86.33c.43-.24,1.24-.37,1.72-.22,1.07.81,2.17,1.97,3.44,2.46,1.93.99,3.94,2.09,6.01,2.76,1.05.36,2.35.18,3.44.22,1.38,0,2.92,0,4.29,0,1.98.02,4.08.03,6.01-.45,2.18-1.07,4.53-2.05,6.87-2.71,8.42-2.56,17.21-.32,25.77.04,3.74.05,7.52-.92,11.17-1.68,1.08-.24,2.35-.6,3.44-.8.43.1,1.3.33,1.72.46.78.23,1.83.6,2.58.91.41.24,1.26.35,1.72.2,4.82-.71,9.73-1.37,14.6-1.51,2.26.08,4.62.07,6.87-.03,1.68.08,3.49.36,5.15.56,2.02.17,4.03.97,6.01,1.32,2.8.55,5.74.72,8.59.63,1.76-.62,3.43-1.84,5.15-2.56.8.28,1.83.79,2.58,1.19.47.18,1.27.15,1.72-.05,1.08-.29,2.36-.67,3.44-.99.81-.26,1.81.16,2.58.41,1.74.59,3.54,1.41,5.15,2.29,1.11.6,2.39,1.39,3.44,2.1.4.37,1.15.75,1.72.68,2.55,0,5.18,0,7.73,0"/><path class="b" d="M9.67,204.21c1.99,0,4.1.21,6.01.75,1.12.27,2.3,1.02,3.44,1.2,1.97-.69,4.05-1.45,6.01-2.18,1.82-.9,2.54-.47,4.29.21.51-.06,1.34-.51,1.72-.85,1.67.49,2.94,2.14,4.3,3.15,2.95,1.22,6.24,2.06,9.45,1.88,3.7-.42,7.42-1.24,11.17-1.17,2.24-.69,4.56-1.47,6.87-1.87,5.96-1.16,12.09-.21,18.04.57,3.11.37,6.3,1.07,9.45.92,3.17-.13,6.39-.65,9.45-1.48,2.29-.51,4.56-1.61,6.87-1.97,1.11.37,2.4.92,3.44,1.47.67.52,1.76.79,2.58.49,3.94-.9,8-1.42,12.03-1.82,3.7-.36,7.51-.19,11.17.47,2.31.22,4.6,1.01,6.87,1.39,2.81.45,5.75.54,8.59.38,1.47-.6,2.79-1.88,4.3-2.43.76.4,1.74,1.06,2.58,1.29,1.39-.36,2.91-.88,4.3-1.23,2.07.25,4.1,1.27,6.01,2.06,2.08.98,4.03,2.43,6.01,3.55,2.55,0,5.18,0,7.73,0"/><path class="b" d="M9.67,201.85c1.68-.03,3.5.09,5.15.43,1.4.25,2.87,1.16,4.3.52,1.38-.37,2.92-.8,4.3-1.19.43-.12,1.29-.37,1.72-.49.43.04,1.3.2,1.72.31,1.09.24,2.29,1.07,3.44.81.41-.34,1.27-.95,1.72-1.21,1.91.68,3.48,2.39,5.15,3.5,1.31.53,2.9.53,4.3.53,2.28.23,4.64-.25,6.87-.65,2.81-.54,5.74-.68,8.59-.63,1.71.07,3.48-.39,5.15-.68,5.41-1,10.96-.33,16.32.63,4.29.75,8.58,1.82,12.89,2.47,1.95.28,4.04.53,6.01.48,1.1-.21,2.38-.58,3.44-.95,2.31-.82,4.63-1.93,6.87-2.91,1.37-.51,2.8-1.58,4.3-1.62,1.5.59,2.85,1.82,4.3,2.48,1.97-.51,4.04-1.07,6.01-1.57,2.25-.32,4.61-.68,6.87-.91,2.26-.11,4.6-.64,6.87-.34,2.36.2,4.56,1.4,6.87,1.81,3.64.79,7.47.95,11.17.59,1.02-.76,2.18-1.83,3.44-2.16.43.25,1.3.78,1.72,1.06,1.69-.15,3.46-1.28,5.15-.9,3.98,1.18,7.75,3.09,11.17,5.44h6.87"/><path class="b" d="M9.67,199.61c1.98-.06,4.08.07,6.01.52,1.09-.03,2.37-.32,3.44-.52,1.08-.22,2.36-.5,3.44-.73,2.6.3,5.2,1.15,7.73,1.75.7-.62,1.75-1.36,2.58-1.79,1.25.08,2.37,1.19,3.44,1.75,1.29.7,2.74,1.9,4.29,1.62,1.37-.19,2.93-.15,4.3-.38,1.97-.3,4.03-.77,6.01-1.02,3.11-.43,6.32-.17,9.45-.25,2.55.03,5.18-.27,7.73-.19,3.17.11,6.37.71,9.45,1.44,2.88.7,5.78,1.62,8.59,2.56,4.85.09,9.75,0,14.6.04,2.26,0,4.62,0,6.87,0,1.78-.99,3.41-2.55,5.15-3.62,1.04-.64,2.22-1.63,3.44-1.88,1.21.69,2.54,1.7,3.44,2.78,1.43-.07,2.91-.82,4.3-1.17,1.63-.58,3.44-.97,5.15-1.15,1.14-.05,2.38-.45,3.44-.85,1.34-.38,2.9-.58,4.3-.56,1.73.01,3.58.36,5.15,1.1,1.08.48,2.23,1.37,3.44,1.48,3.37.59,6.91.77,10.31.33,1.18-.47,2.14-1.77,3.44-2.01.39.29,1.24.74,1.72.86,1.39-.19,2.89-.98,4.3-.75,3.58,1.08,7.08,2.65,10.31,4.54.72.43,1.7,1.07,2.58.9,1.38,0,2.92,0,4.3,0"/><path class="b" d="M9.67,197.46c1.08-.06,2.36.03,3.44-.02,1.95-.42,4.05-.61,6.01-.91,3.72.64,7.49,1.45,11.17,2.3,1.38-.73,2.68-2.09,4.3-2.29,1.63.86,3.4,1.76,5.15,2.32.78.24,1.78.59,2.58.27,5.15-.51,10.24-1.99,15.46-1.56,5.16.09,10.41.17,15.46,1.37,3.25.67,6.36,2.02,9.45,3.17,3.13,0,6.32,0,9.45,0,1.38-.25,2.89-.72,4.3-.83,2.57-.29,5.3-.08,7.73.83,3.12-.07,6.34.16,9.45-.11,1.71-2.05,3.85-3.92,6.01-5.46,1.35.68,2.59,2.03,3.44,3.26,2.78-1.01,5.63-2.32,8.59-2.67,2.41-1.1,5.03-2.03,7.73-1.87,1.73.17,3.57.64,5.15,1.36,1.12.47,2.29,1.37,3.44,1.78,3.38.44,6.99.74,10.31-.18.66-.64,1.64-1.47,2.58-1.64,1.8,1.76,4.01-.63,6.01.29,2.93.88,5.81,2.15,8.59,3.42,1.36.62,2.88,1.31,4.3,1.79.76.06,1.81.04,2.58.04"/><path class="b" d="M9.67,194.72c1.38-.14,2.91-.38,4.3-.54,1.4.05,2.92.41,4.29.66,2.56.44,5.19.94,7.73,1.46,1.65.23,3.5.79,5.15.48.98-.81,2.26-1.61,3.44-2.1.77-.47,1.81-.37,2.58.05,1.06.4,2.33.78,3.44,1.01.76.21,1.77.55,2.58.46,5.12-.69,10.27-1.83,15.46-1.39,4.93.15,9.89.73,14.6,2.22,2.37.63,4.6,1.91,6.87,2.77,1.38,0,2.92,0,4.3,0,.76,0,1.82,0,2.58,0,.73-.44,1.79-.96,2.58-1.27,1.88-.76,4.01-1.13,6.01-1.33,3.71-.33,7.56-.21,11.17.75,1.47.37,2.97,1.14,4.29,1.86,1.67,0,3.48,0,5.15,0,1.09.22,2.04-.67,2.58-1.58,1.24-1.35,2.57-3.15,4.3-3.87.92.68,1.97,1.84,2.58,2.81l.86.19c2.19-.99,4.56-1.81,6.87-2.47,1.92-.84,3.86-2,6.01-2.14,2.62-.09,5.33.42,7.73,1.47.79.34,1.84.86,2.58,1.3.64.58,1.71.95,2.58.93,2.56.2,5.24.04,7.73-.58.69-.59,1.64-1.47,2.58-1.61,1.67,1.57,3.35-.38,5.15.17,4.93,1.26,9.52,3.95,14.6,4.53"/><path class="b" d="M9.67,192.26c3.14.35,6.36.65,9.45,1.34,3.97.62,7.98,1.62,12.03,1.57,1.8-1.32,3.86-2.44,6.01-3.07.81-.19,1.8.19,2.58.34,1.96.3,4.01,1.14,6.01.68,10.03-1.71,20.82-1.23,30.07,3.32.44.23,1.3.72,1.72.99,1.07.14,2.36.07,3.44.08,1.08-.03,2.38.11,3.44-.16.72-.48,1.77-1.02,2.58-1.34,6.41-2.37,14.77-1.9,21.48-.96,1.42.26,2.98.68,4.29,1.29.78.34,1.68,1.16,2.58,1.16,1.67,0,3.48,0,5.15,0,1.73-1.74,3.1-4.11,5.15-5.54.93.74,1.99,1.99,2.58,3.02.51.1,1.3-.12,1.72-.4,1.06-.47,2.34-.97,3.44-1.33.77-.25,1.85-.5,2.58-.89.99-.71,2.28-1.36,3.44-1.73,4.69-.82,10.14.18,13.74,3.43,2.81.68,5.81,0,8.59-.53.71-.56,1.64-1.47,2.58-1.61,1.6,1.5,3.42-.46,5.15.26,4.26,1.12,8.45,2.94,12.89,3.25"/><path class="b" d="M9.67,190.86c4.66.53,9.13,1.49,13.74,2.13,2.79.29,5.87.94,8.59.06,2.49-1.77,5.56-3.04,8.59-3.44,2.24.34,4.6,1.05,6.87.63,9.59-1.23,20.1-.51,28.35,4.97,1.97,0,4.05,0,6.01,0,1.19-.13,2.3-1.14,3.44-1.49,2.16-.83,4.57-1.19,6.87-1.24,6.58.07,13.2.59,19.76,1.13,1.75.22,3.66.62,5.15,1.6,1.97,0,4.05,0,6.01,0,1.81-1.55,2.82-4.48,5.15-5.35.85.79,1.79,2.09,2.58,2.94,2.12-1.19,4.56-1.89,6.87-2.6.71-.56,1.75-1.2,2.58-1.57,3.3-1.05,7.03-.68,10.31.31,1.96.57,3.55,2.07,5.15,3.23,2.59.21,5.2-.42,7.73-.88.69-.61,1.64-1.47,2.58-1.65,1.43,1.1,2.76.18,4.3.06,3.95.97,7.93,2.28,12.03,2.44"/><path class="b" d="M9.67,189.58c3.77-.17,7.76.09,11.17,1.85,2.8.49,5.76.64,8.59.37.77-.09,1.82-.26,2.58-.42,1.06-.63,2.3-1.41,3.44-1.89,2.72-1.12,5.64-2.04,8.59-2.18,1.37.16,2.91.36,4.29.31.76-.13,1.81-.21,2.58-.26,1.67-.15,3.48,0,5.15-.07,6.36.01,12.82,1.93,18.04,5.6,2.26.07,4.62.01,6.87.03,2.67-1.39,5.55-2.26,8.59-2,2.86.18,5.75.84,8.59,1.17,1.68.21,3.45.89,5.15.83,4.85,0,9.75,0,14.6,0,2.54-.09,5.21.19,7.73-.15,1.15-1.88,2.7-3.81,4.29-5.33,1.02.6,1.92,1.95,2.58,2.9,2.12-1.12,4.5-1.98,6.87-2.36.71-.58,1.75-1.26,2.58-1.65,3.33-.91,7.02-.88,10.31.2,1.99.64,3.67,2.13,5.15,3.55,2.59.09,5.25-.48,7.73-1.15.69-.59,1.67-1.38,2.58-1.59.41.23,1.25.54,1.72.61.76-.19,1.8-.45,2.58-.58,3.37.77,6.84,1.55,10.31,1.63"/><path class="b" d="M9.67,187.72c3.15-.1,6.45.03,9.45,1.1.8.28,1.84.76,2.58,1.17.41.35,1.18.66,1.72.64,3.19.14,6.42-.42,9.45-1.41,3.37-2,7.27-3.31,11.17-3.69,6.26-.6,12.74-1.06,18.9.49,2.38.57,4.7,1.62,6.87,2.72,1.4.64,2.63,2.15,4.3,1.88,1.97,0,4.05,0,6.01,0,.81-.11,1.79-.63,2.58-.84.75-.2,1.81-.33,2.58-.38,3.3-1.1,6.9-.99,10.31-.57,1.69.22,3.5.6,5.15,1.03,1.36.39,2.85.93,4.29.76,7.43-.05,14.9.09,22.34-.05,1.19-1.84,2.72-3.77,4.29-5.3,1.08.28,1.82,1.64,2.58,2.37,1.33-.63,2.87-1.23,4.3-1.59,1.09-.34,2.51-.23,3.44-.96,2.43-1.73,5.72-1.75,8.59-1.58,3.57.24,6.18,2.01,8.59,4.51,2.31.09,4.62-.66,6.87-1.05,1.16-.47,2.21-1.61,3.44-1.96.42.18,1.29.52,1.72.68.76-.18,1.81-.41,2.58-.57.78-.02,1.81.21,2.58.33,1.95.31,4.04.53,6.01.56"/><path class="b" d="M9.67,185.86c3.16-.05,6.44.1,9.45,1.15.79.27,1.84.73,2.58,1.13,1.92.4,4.05.09,6.01.18,1.78.21,3.53-.51,5.15-1.14,2.54-.95,5.08-2.17,7.73-2.82,10.27-2.41,22.2-2.87,30.93,3.96h8.59c5.84-3.8,13.32-2.9,19.76-1.33,1.11-.07,2.33-.62,3.44-.76,1.66-.28,3.49-.33,5.15-.11,1.42.19,2.98.62,4.29,1.19.77.32,1.71,1,2.58,1.02,2.55,0,5.18,0,7.73,0,1.67,0,3.48,0,5.15,0,.63-.16,1.39-1.08,1.72-1.6.99-1.27,2.27-2.72,3.44-3.83.56.25,1.38,1.11,1.72,1.61l.86.28c1.34-.53,2.88-1.04,4.3-1.31,1.07-.26,2.42-.15,3.44-.62,3.11-1.94,7.71-1.97,11.17-.99,1.17.38,2.47,1.08,3.44,1.85.81.64,1.67,1.79,2.58,2.3,2.32-.02,4.61-.83,6.87-1.25,1.04-.71,2.27-1.61,3.44-2.11.43.16,1.29.5,1.72.68,1.1,0,2.36-.37,3.44-.53,1.97.03,4.04.39,6.01.35"/><path class="b" d="M9.67,184c3.77,0,7.7.34,11.17,1.94,2.54.22,5.19.04,7.73.09.43,0,1.29,0,1.72,0,1.14-.25,2.36-.93,3.44-1.35,2.78-1.13,5.65-2.35,8.59-2.99,9.46-2.04,20.48-2.02,28.35,4.34,2.55-.01,5.18.03,7.73-.02,5.1-3.92,12.05-3.49,18.04-2.34,6.35-3.28,14.42-3.27,20.62.37.8.47,1.84,1.2,2.58,1.77,1.04.37,2.36.18,3.44.22,2.25-.08,4.65.19,6.87-.15,1.6-1.77,3.11-4.02,5.15-5.3.38.44,1.23,1.23,1.72,1.54,2.74-1.02,5.69-1.41,8.59-1.51,2.03-1.2,4.56-1.48,6.87-1.51,3.66-.06,7.29,1.66,9.45,4.64,1.95.7,4.07-.52,6.01-.8,1.94-.23,3.33-1.97,5.15-2.56.78.16,1.8.56,2.58.74,2.23-.41,4.59-.83,6.87-.73"/><path class="b" d="M9.67,182.09c3.49.05,6.99.58,10.31,1.64,1.97,0,4.05,0,6.01,0,1.67-.06,3.5.16,5.15-.15,2.74-1.4,5.67-2.62,8.59-3.59,3.29-1.12,6.85-1.53,10.31-1.72,1.67-.15,3.5.15,5.15-.15,3.48.52,7.09,1.16,10.31,2.64,1.14.53,2.43,1.3,3.44,2.06.37.38,1.16.9,1.72.9,1.38,0,2.92,0,4.29,0,.83.02,1.91.11,2.58-.49.99-.75,2.29-1.46,3.44-1.94,4.06-1.55,8.66-1.35,12.89-.69,1.47-.22,2.84-1.28,4.3-1.64,1.34-.4,2.88-.87,4.3-.89.75.12,1.81.24,2.58.3,1.97.14,4.06.04,6.01-.25,3.35.29,6.61,1.78,9.45,3.53,1.1.6,2.17,1.84,3.44,2.06,1.96,0,4.05,0,6.01,0,1.05-.17,1.85-1.37,2.58-2.05,1.04-1.08,2.32-2.34,3.44-3.34.52.15,1.35.76,1.72,1.14,2.94-1.17,6.31-1.47,9.45-1.16,5.96-2.5,12.31-1.59,16.32,3.74,2.34-.08,4.6-1.06,6.87-1.52,1.31-.88,2.74-1.96,4.3-2.35,1.11-.09,2.34.51,3.44.63,1.37-.23,2.91-.42,4.3-.51"/><path class="b" d="M9.67,180.11c1.98.13,4.07.34,6.01.72,1.09.17,2.32.7,3.44.61,2.55,0,5.18,0,7.73,0,1.38-.09,3,.25,4.29-.29,6.36-3.49,13.35-5.36,20.62-5.21.76,0,1.81.04,2.58.08.76-.22,1.82-.2,2.58.04,4.81,1,9.01,2.18,12.89,5.39,1.96-.05,4.06.12,6.01-.1,4.58-4.24,11.34-4.4,17.18-3.49,1.59-.85,3.41-1.57,5.15-2.03,1.7.06,3.46.75,5.15.92,3.42.55,6.97.2,10.31-.64,1.1-.46,2.39.03,3.44.44,1.11.42,2.39,1.02,3.44,1.57,1.1.59,2.38,1.35,3.44,2,1,.61,2.19,1.51,3.44,1.33,1.08-.05,2.42.18,3.44-.29,2.06-1.52,4.12-3.25,6.01-4.97.5-.03,1.32.29,1.72.58,1.84-.87,4.02-.89,6.01-.71,1.08.03,2.36-.12,3.44-.19.44.12,1.28.12,1.72.02,3.58-1.33,7.84-1.29,11.17.71.85.51,1.9,1.38,2.58,2.11.31.49,1.13,1.33,1.72,1.46,2.04-.2,4.02-1.13,6.01-1.54.86-.32,1.79-1.13,2.58-1.58.72-.4,1.78-.77,2.58-.98.77-.35,1.8-.03,2.58.14,1.06.22,2.35.35,3.44.22"/><path class="b" d="M9.67,178.02c2.27.23,4.64.54,6.87,1.06,2.25.15,4.62.03,6.87.07,1.38,0,2.92,0,4.29,0,1.12.02,2.49.1,3.44-.63,6.45-3.43,13.32-4.99,20.62-4.75,1.1.11,2.37,0,3.44-.31.42.08,1.3.28,1.72.4,4.22,1.15,8.63,2.33,12.03,5.25,1.67.09,3.48.03,5.15.04,1.63-1.11,3.28-2.49,5.15-3.2,4.12-1.45,8.6-1.38,12.89-.89,1.33-.63,2.85-1.28,4.3-1.58.77.21,1.81.51,2.58.71,4.75,1.41,9.85,1.58,14.6.1.77-.21,1.81-.51,2.58-.74,1.46.28,2.96,1.03,4.29,1.64,2.82,1.29,5.47,3.36,8.59,3.88,1.47.28,2.41-.82,3.44-1.65,1.63-1.25,3.65-2.18,5.15-3.58.44.15,1.27.21,1.72.13.42-.21,1.25-.43,1.72-.42,2.79.83,5.77.48,8.59.02,1.7.59,3.44-.57,5.15-.56,4.38-.43,8.72,1.76,11.17,5.38,2.35-.23,4.59-1.35,6.87-1.87,1.89-1.66,4.44-2.47,6.87-2.91.77.09,1.81.25,2.58.33"/><path class="b" d="M9.67,175.8c2.28.23,4.61.75,6.87,1.05,2.26,0,4.62,0,6.87,0,1.96-.1,4.1.23,6.01-.2.75-.42,1.8-.94,2.58-1.3,3.01-1.35,6.24-2.35,9.45-3.09,3.39-.48,6.89-.67,10.31-.55.79-.03,1.82-.33,2.58-.52,1.41.22,2.94.74,4.3,1.2,1.35.56,2.95.99,4.3,1.57,1.79.72,3.53,1.86,5.15,2.88,1.38,0,2.92,0,4.3,0,1.25-.42,2.27-1.71,3.44-2.32,1.27-.81,2.84-1.38,4.3-1.73,2.78-.7,5.74-.81,8.59-.68.76.03,1.81.1,2.58.16,1.11-.26,2.34-.83,3.44-1.13,7.21,2.22,12.39,3.32,19.76.77.76-.23,1.78-.59,2.58-.68,1.42.48,2.95,1.16,4.3,1.83,2.97,1.37,6.01,3.68,9.45,3.13.87-.4,1.81-1.33,2.58-1.89,1.5-1.27,3.63-1.76,5.15-2.96.45.11,1.28.06,1.72-.09,1.65.42,3.43.9,5.15.81,1.09-.03,2.37-.2,3.44-.41.43-.09,1.29-.29,1.72-.41.44.05,1.3.26,1.72.42,1.11-.04,2.33-.59,3.44-.66,2.65-.26,5.45.35,7.73,1.73,1.67.88,2.82,2.68,4.3,3.78,1.43-.25,2.95-.81,4.3-1.34.78-.27,1.87-.53,2.58-.97,2.23-1.62,5.03-2.42,7.73-2.82"/><path class="b" d="M9.67,173.45c2.28.22,4.61.78,6.87,1.1,3.41,0,6.89,0,10.31,0,.9.17,1.8-.54,2.58-.88,1.63-.77,3.44-1.46,5.15-2.01,3.32-1.08,6.8-1.85,10.31-1.92,2.56-.22,5.28.3,7.73-.63.81-.36,1.79.06,2.58.3,2.34.68,4.59,1.88,6.87,2.74,1.11.48,2.4,1.14,3.44,1.76.41.32,1.18.68,1.72.64,1.38-.09,3,.26,4.3-.3,5.15-5.05,13-5.09,19.76-4.68.75-.26,1.77-.67,2.58-.64,1.07.32,2.36.69,3.44.98,2.5.68,5.14,1.24,7.73,1.31,2.59.07,5.25-.44,7.73-1.17,1.08-.32,2.36-.73,3.44-1.06.82-.12,1.83.36,2.58.67,3.92,1.43,7.63,4.86,12.03,4.09,1.24-.56,2.27-1.88,3.44-2.57,1.53-.96,3.35-1.89,5.15-2.12,1.68.33,3.43,1,5.15,1.05,1.69.07,3.52-.23,5.15-.64.4-.11,1.31-.37,1.72-.52.79.12,1.84.52,2.58.82,5.28-1.94,11.47.15,14.6,4.78,1.79.18,3.53-.71,5.15-1.34.76-.33,1.85-.63,2.58-1.03.41-.28,1.27-.78,1.72-.99,1.31-.64,2.87-1.14,4.3-1.45"/><path class="b" d="M9.67,170.98c2.27.34,4.63.77,6.87,1.27,3.12-.08,6.34.17,9.45-.12,3.51-1.73,7.34-2.9,11.17-3.72,3.63-.82,7.46-.77,11.17-.67,1.4-.23,2.86-1.08,4.3-1,2.36.7,4.77,1.66,6.87,2.95,1.65.86,3.55,1.56,5.15,2.52,1.38.05,2.92.02,4.3.03.93-.27,1.79-1.27,2.58-1.79,1.28-.88,2.83-1.64,4.3-2.15,3.56-1.22,7.43-1.52,11.17-1.58,1.38,0,2.92.05,4.3.15.41-.15,1.28-.27,1.72-.23,3.89,1.1,8.06,1.19,12.03,1.95,3.18.43,6.42-.84,9.45-1.67,1.41-.69,2.98.24,4.3.76,2.01.88,4.03,2.03,6.01,2.97,2.57,1.24,5.79,2.04,7.73-.64,1.87-1.68,4.28-3.24,6.87-3.32.92.75,2.33.94,3.44,1.25,3.19.64,6.44-.33,9.45-1.31.78.26,1.82.68,2.58,1.01.79.16,1.8-.19,2.58-.29.76-.1,1.81-.15,2.58-.11,3.18.16,6.3,1.59,8.59,3.78,1.08,1.61,2.63,1.2,4.3,1.23,1.73-.47,3.46-1.39,5.15-1.99,1.32-.73,2.85-1.46,4.3-1.9"/><path class="b" d="M9.67,168.53c2.86.33,5.76.93,8.59,1.44,1.67-.07,3.51.17,5.15-.16,3.01-1.32,6.24-2.32,9.45-3.04,3.36-.82,6.86-1.16,10.31-1.07,1.08,0,2.36.06,3.44.12,1.37-.5,2.91-1.02,4.3-1.46,2.05.62,4.15,1.48,6.01,2.54.81.46,1.84,1.18,2.58,1.75.78.32,1.82.78,2.58,1.14,1.64.36,3.48.1,5.15.18,1.18-.61,2.26-1.77,3.44-2.4,2.85-1.7,6.19-2.53,9.45-3,6.26-.97,12.65-.33,18.9.39,1.67.2,3.48.42,5.15.64,1.38.18,2.92.49,4.3.11,2-.31,4.01-1.16,6.01-1.37,2.7.75,5.28,2.09,7.73,3.41,2.34,1.26,4.98,2.71,7.73,2.08,1.01-.4,1.79-1.67,2.58-2.37,1.43-1.31,3.24-2.57,5.15-3.02l.86.32.86-.26c.87.18,1.75,1,2.58,1.3,2.82.78,5.86.18,8.59-.71.43-.15,1.29-.47,1.72-.63,1.5-.05,2.9,1.04,4.3,1.47,5.23-1.51,10.7.42,14.6,4.02,1.38,0,2.92,0,4.3,0,2.34-.54,4.56-1.88,6.87-2.56"/><path class="b" d="M9.67,165.93c3.15.34,6.37.78,9.45,1.52,1.74-.09,3.45-1.12,5.15-1.5,3.07-.92,6.28-1.59,9.45-2.05,3.67-.54,7.48-.34,11.17-.08,1.36-.56,2.9-1.14,4.3-1.62,1.48-.06,2.96.89,4.3,1.44,7.33,3.78,2.51,4.24,12.03,4.03,9.89-8.38,24.95-6.27,36.94-5.1,1.38.15,2.92.31,4.3.44,1.71-.1,3.49-.66,5.15-1.01,2.04.42,4.14,1.2,6.01,2.11,1.4.49,3,.97,4.29,1.73.81.47,1.8,1.3,2.58,1.83h5.15c1.84-2.3,4.08-4.49,6.87-5.57.42.19,1.28.5,1.72.61l.86-.48c1.28.13,2.28,1.36,3.44,1.8,3.56.59,6.98-.95,10.31-1.92,1.42.52,2.96,1.25,4.3,1.97,5.06-1.04,10.52-.04,14.6,3.22.41.25,1.24.45,1.72.36,1.08,0,2.36,0,3.44,0,1.83.19,3.49-1.02,5.15-1.58"/><path class="b" d="M9.67,163.26c2.56.22,5.2.52,7.73.99,4.25-.96,8.52-2.21,12.89-2.66,4.25-.57,8.63-.31,12.89.15,1.72-.51,3.44-1.45,5.15-1.97,2.07.74,4.19,1.74,6.01,2.99,1.18.7,2.18,2.06,3.44,2.61,1.97,0,4.05,0,6.01,0,8.96-8,24.03-6.77,35.22-5.88,2.26.19,4.61.41,6.87.58,1.4.11,2.92-.65,4.3-.11,1.63.55,3.46.7,5.15.88,3.51.52,6.91,2.02,9.45,4.54,1.38,0,2.92,0,4.3,0,1.1-.3,1.77-1.76,2.58-2.48,1.19-1.2,2.76-2.29,4.3-3,1.35.27,2.14,1.03,3.44,0,1.25.22,2.44,1.21,3.44,1.95,3.36.8,7.15-.99,10.31-2.06,1.75.59,3.54,1.47,5.15,2.36,1.07.33,2.34-.21,3.44-.21,1.68-.11,3.5.03,5.15.37,2.74.48,5.27,1.84,7.73,3.07,1.38,0,2.92,0,4.3,0,1.12.05,2.45.02,3.44-.58"/><path class="b" d="M9.67,160.58c1.97.08,4.04.44,6.01.51,2.81-.69,5.73-1.28,8.59-1.69,5.1-.84,10.34-.72,15.46-.09.76.1,1.8.29,2.58.26,1.35-.68,2.89-1.37,4.29-1.92,1.51-.12,2.98,1,4.3,1.62,1.15.65,2.45,1.57,3.44,2.45.34.42,1.23,1.13,1.72,1.36h6.01c7.74-7.06,20.17-7.07,30.07-6.68,6.58.34,13.19.82,19.76,1.27,3.95.29,8.13,1.35,11.17,4.03.31.43,1.21,1.17,1.72,1.37,1.37,0,2.92,0,4.3,0,1.47-2.25,3.6-4.21,6.01-5.4.84-.09,1.81.46,2.58.72.47-.12,1.32-.53,1.72-.8,1.59.28,2.89,1.66,4.3,2.35,3.26-.11,6.41-1.36,9.45-2.42,2.4.67,4.68,1.97,6.87,3.11,3.95-.93,8.15-.53,12.03.57,1.72.47,3.5,1.2,5.15,1.87,1.67,0,3.48,0,5.15,0"/><path class="b" d="M9.67,157.93c1.08.04,2.36.2,3.44.16,1.37-.29,2.91-.6,4.3-.84,3.67-.62,7.44-1.15,11.17-1.07,4.01.04,8.09.4,12.03,1.22.48,0,1.33-.31,1.72-.59,1.05-.54,2.34-1.13,3.44-1.59,3.32.96,6.11,3.25,8.59,5.56h6.01c9.41-8.49,24.26-7.14,36.08-6.78,3.99.22,8.04.42,12.03.67,5.63.23,11.75,1.5,15.46,6.1h4.3c1.63-2.1,3.59-4.17,6.01-5.35,1.16-.28,2.35.63,3.44.93.42-.28,1.28-.8,1.72-1.04,1.59.18,2.99,1.54,4.3,2.38,3.25-.24,6.37-1.52,9.45-2.49,2.04.64,4.11,1.55,6.01,2.51.76.37,1.71,1.03,2.58,1.06.43-.09,1.29-.24,1.72-.29,6.36-.85,12.69.88,18.9,2.03"/><path class="b" d="M9.67,155.36c6.78-1.35,13.7-2.33,20.62-1.68,3.16.23,6.38.71,9.45,1.5,1.79-.4,3.36-1.82,5.15-2.25,2.89,1.22,5.71,3.02,7.73,5.46,1.95.22,4.05.05,6.01.1,4.42-4.18,10.37-6.09,16.32-6.74,6.26-.72,12.61-.61,18.9-.43,3.99.15,8.04.31,12.03.54,6.17.27,13.28,1.28,17.18,6.63h4.3c1.81-2.19,3.96-4.92,6.87-5.5,2.72,1,2.42,1.9,5.15.08.53-.1,1.3.17,1.72.49.79.45,1.83,1.13,2.58,1.64,2.93-.02,5.79-1.36,8.59-2.09,1.13-.35,2.37.42,3.44.73,2.01.74,4.09,1.67,6.01,2.61.98.75,2.34.26,3.44.11,1.37-.2,2.91-.31,4.29-.36,4.28-.14,8.61.24,12.89.26"/><path class="b" d="M9.67,152.22c6.76-1.4,13.75-1.79,20.62-1.04,1.98.22,4.07.56,6.01,1.02,1.09.16,2.35.93,3.44.49,1.33-.71,2.77-1.81,4.3-1.99,1.8.81,3.64,1.92,5.15,3.19.79.66,1.69,1.77,2.58,2.3h5.15c1.19-.72,2.25-2.01,3.44-2.74,3.56-2.36,7.84-3.45,12.03-4.02,6.53-.84,13.18-.79,19.76-.69,4.57.12,9.19.24,13.74.55,6.03.26,12.48,1.91,16.32,6.9,1.38-.01,2.92.03,4.3-.04,1.06-1.68,2.64-3.28,4.3-4.37.72-.45,1.68-1.15,2.58-1.13,1.07.47,2.33,1.1,3.44,1.49,1.17-.27,2.22-1.36,3.44-1.47,1.11.56,2.38,1.29,3.44,1.94,1.11.22,2.37-.29,3.44-.53,1.38-.37,2.92-.81,4.3-1.18,1.09-.49,2.38.08,3.44.39,1.69.53,3.5,1.18,5.15,1.82,1.38.54,2.92,1.17,4.3,1.73,1.98-.14,4.03-.73,6.01-.87,3.97-.47,8.03-.45,12.03-.53"/><path class="b" d="M9.67,149.28c4.24-.8,8.58-1.13,12.89-.86,2.56-.1,5.2-.1,7.73.33,1.69.24,3.5.6,5.15,1.04,1.09.2,2.32.98,3.44.63,1.32-.7,2.75-1.96,4.3-1.98,2.58,1.21,5.06,2.96,6.87,5.18,1.59.55,3.49.16,5.15.27,1.3-.52,2.23-2.04,3.44-2.75,2.53-1.79,5.58-2.88,8.59-3.52,8.46-1.64,17.19-1.41,25.77-1.34,8.95.49,21.52-.85,27.49,7.2,1.38.12,2.9.47,4.3.42,1.03-.46,1.76-1.83,2.58-2.56,1.22-1.17,2.79-2.22,4.29-2.97.48-.06,1.31.17,1.72.43,1.05.47,2.33.95,3.44,1.25,1.12-.47,2.32-1.27,3.44-1.74,1.44.42,2.78,1.66,4.3,1.77,2.27-.5,4.6-1.18,6.87-1.68,1.11-.02,2.37.44,3.44.7,4.02,1.08,8,2.51,12.03,3.6.76.34,1.8.09,2.58-.07,1.07-.18,2.36-.36,3.44-.47,3.11-.32,6.32-.44,9.45-.5"/><path class="b" d="M9.67,146.6c1.66-.26,3.47-.57,5.15-.61,2.25.26,4.61.43,6.87.41,1.97.02,4.05-.26,6.01-.36,3.19.36,6.42,1.08,9.45,2.17.55.09,1.3-.24,1.72-.59.74-.46,1.8-1.04,2.58-1.43.89-.22,1.84.49,2.58.89,1.95,1.12,3.76,2.75,5.15,4.52,1.67-.06,3.5.15,5.15-.14,5.5-6.81,15.14-7.02,23.19-7.51,7.43-.28,14.91-.21,22.33.08,4.66.2,9.49.57,13.74,2.63,1.16.55,2.46,1.36,3.44,2.2.31.42,1.22,1.11,1.72,1.29,1.73-.1,3.58.28,5.15.99.87-.63,1.76-1.8,2.58-2.49,1.24-1.05,2.78-2.07,4.3-2.66,1.98.55,3.95,1.55,6.01,1.84,1.15-.32,2.32-1.16,3.44-1.58.86-.29,1.81.33,2.58.64,1.6,1.02,3.48.01,5.15-.29,1.08-.18,2.35-.72,3.44-.4,1.97.41,4.05.9,6.01,1.37,9,2.32,15.62,3.54,24.91,1.65"/><path class="b" d="M9.67,144.1c1.07-.16,2.35-.4,3.44-.38.77.1,1.81.23,2.58.31,1.96.2,4.04.29,6.01.23,1.98-.04,4.05-.33,6.01-.55,1.99.27,4.08.71,6.01,1.28,1.09.27,2.3.92,3.44.92,1.32-.73,2.73-2.05,4.3-2.06,1.49.73,3.06,1.74,4.3,2.86.81.73,1.68,1.96,2.58,2.6h4.3c4.03-4.77,9.44-6.47,15.46-7.13,5.69-.67,11.46-.76,17.18-.8,5.14,0,10.33,0,15.46.33,5.72.26,10.95,1.57,15.46,5.25,2.3-.15,4.73.24,6.87,1.08,2.15-1.57,4.14-3.79,6.87-4.35,2.44.95,5.09,1.81,7.73,1.79,1.04-.58,2.32-1.17,3.44-1.58.83-.15,1.81.32,2.58.58.78.35,1.79-.01,2.58-.18,1.07-.2,2.34-.66,3.44-.44,5.98,1.05,11.96,2.46,18.04,2.87,4.87.35,9.79-.13,14.6-.81"/><path class="b" d="M9.67,141.77c.77-.12,1.81-.27,2.58-.37.77.09,1.81.23,2.58.32,1.96.22,4.04.33,6.01.28,1.98-.05,4.06-.27,6.01-.56,3.24.09,6.34,1.45,9.45,2.19,1.32-.76,2.74-1.98,4.29-2.12,2.34,1.15,4.52,2.94,6.01,5.09.69.51,1.77.42,2.58.41.79,0,1.86.08,2.58-.31,3.71-5.13,10.38-6.47,16.32-7.06,5.12-.53,10.32-.56,15.46-.63,4.85-.01,9.76-.02,14.6.23,5.43.24,11.13,1.21,15.46,4.73,2.87-.19,5.87.1,8.59,1.06,1.9-1.27,3.74-2.94,6.01-3.53.82-.1,1.81.35,2.58.56,2.47.73,5.16,1.05,7.73.84,1.4-.39,2.88-1.11,4.29-1.47.44.11,1.28.32,1.72.43.78-.07,1.8-.32,2.58-.4,4.26.71,8.59,1.42,12.89,1.9,7.42.9,14.94.38,22.34-.49"/><path class="b" d="M9.67,139.58c1.37-.19,2.92-.6,4.3-.34,2.25.28,4.61.42,6.87.35,1.68-.05,3.49-.23,5.15-.46,3.23.16,6.37,1.31,9.45,2.18,1.32-.76,2.76-1.9,4.3-2.13,2.38,1.23,4.57,3.16,6.01,5.43,1.37.19,2.92.07,4.29.1,3.51-4.01,6.76-5.83,12.03-6.77,5.93-1.11,12.03-1.09,18.04-1.22,4.85-.1,9.75-.09,14.6.06,5.63.22,11.71.74,16.32,4.32,3.44-.17,7.01-.09,10.31,1,1.85-1.21,3.81-2.53,6.01-3,3.59,1.11,7.42,1.64,11.17,1.11,1.68-.2,3.49-.54,5.15-.85,1.08-.31,2.35-.25,3.44-.02,6.27.71,12.59,1.41,18.9,1.77,5.44-.06,10.91-.6,16.32-1.08"/><path class="b" d="M9.67,137.55c1.66-.31,3.47-.56,5.15-.71,1.67.18,3.48.27,5.15.26,1.68.03,3.48-.24,5.15-.23,3.2.32,6.38,1.17,9.45,2.1,1.34-.7,2.75-1.94,4.29-2.06,2.41,1.26,4.44,3.32,6.01,5.51h4.3c5.06-7.69,15.81-7.54,24.05-7.88,6.86-.17,13.76-.34,20.62-.07,3.45.16,7.02.48,10.31,1.61,1.12.39,2.41.99,3.44,1.61.35.33,1.23.7,1.72.67,3.71-.34,7.58-.21,11.17.89,2.31-1.36,5-3.04,7.73-1.95,2.79.61,5.75.71,8.59.39,1.98-.14,4.03-.75,6.01-.76,1.68.37,3.45.61,5.15.25,5.13-.62,10.32-.3,15.46-.11,3.7.11,7.47.18,11.17.27,2.55.02,5.19.26,7.73,0"/><path class="b" d="M9.67,135.66c7.94-1.66,16.27-1.4,24.05.93,1.06-.65,2.33-1.41,3.44-1.97.93-.12,1.86.69,2.58,1.17,1.66,1.11,2.9,2.95,4.3,4.33,1.38-.1,3.02.29,4.29-.34,5.15-7.48,15.89-7.24,24.05-7.55,6.86-.17,13.76-.36,20.62-.06,3.17.16,6.44.54,9.45,1.61,1.46.45,2.87,1.45,4.3,1.95,4.27-.53,8.74-.53,12.89.72,1.58-.87,3.38-1.57,5.15-1.91,2.25.32,4.58.82,6.87.77,2.56,0,5.2-.34,7.73-.73,2.28.15,4.61.77,6.87,1.03,1.95.38,4.04.13,6.01.11,2.84-.04,5.75-.04,8.59-.03,3.41,0,6.9,0,10.31-.1,3.7-.3,7.46-.61,11.17-.67"/><path class="b" d="M9.67,134.01c4.98-1.42,10.32-1.59,15.46-1.16,1.38.14,2.93.35,4.29.62,1.08.17,2.33.68,3.44.62,1.06-.63,2.34-1.35,3.44-1.92,1.59.58,3.08,1.84,4.3,3,.81.76,1.54,2.17,2.58,2.66h3.44c.98-.54,1.76-1.86,2.58-2.59,1.22-1.13,2.77-2.15,4.3-2.81,6.78-2.69,14.31-2.34,21.48-2.58,4.56-.13,9.18-.16,13.74-.08,5.27.1,10.87.5,15.46,3.35,4.85-.53,9.87-.85,14.6.61,1.61-.69,3.42-1.27,5.15-1.54,2.23.4,4.6.63,6.87.55,1.98-.03,4.04-.36,6.01-.49,4.84.68,9.69,1.75,14.6,1.76,10.33.24,20.6-1.36,30.93-1.43"/><path class="b" d="M9.67,132.56c6.85-2.38,14.46-2.35,21.48-.7,1.4-.53,2.76-1.79,4.3-1.85,2.4,1.15,4.55,3.11,6.01,5.32,1.34.36,2.92.13,4.3.19.85-.73,1.75-1.98,2.58-2.73,1.69-1.54,3.84-2.71,6.01-3.38,6.39-1.84,13.17-1.7,19.76-1.88,4.56-.1,9.18-.14,13.74-.05,5.02.03,10.13.74,14.6,3.16,5.1-.92,10.45-1.01,15.46.43,1.67-.4,3.43-1.01,5.15-1.18,1.67.15,3.47.35,5.15.32,1.68,0,3.48-.21,5.15-.29,4.01.4,8.01,1.32,12.03,1.73,7.43.65,14.92-.16,22.33-.74,4.84-.37,9.75-.45,14.6-.61"/><path class="b" d="M9.67,131.26c6.21-2.64,13.17-2.94,19.76-1.74,1.37-.6,2.83-1.52,4.3-1.86,2.8,1.07,5.02,3.29,6.87,5.57h4.3c4.96-7.04,13.62-7.46,21.48-7.8,6.86-.2,13.76-.34,20.62-.21,2.86.08,5.81.28,8.59,1.01,1.77.39,3.47,1.34,5.15,1.93,3.37-.66,6.88-.99,10.31-.72,2.3.08,4.61.85,6.87,1.06,2.47-.8,5.15-1.05,7.73-.85,6.07-.41,12.04,1.18,18.04,1.85,6.86.67,13.78-.16,20.62-.68,5.99-.46,12.04-.61,18.04-.81"/><path class="b" d="M9.67,128.84c.43.12,1.28.33,1.72.43,1.09-.3,2.34-.79,3.44-1.08,2.21-.61,4.58-1.03,6.87-1.08,1.68-.1,3.48.12,5.15.1,1.08-.41,2.36-.93,3.44-1.36.75-.42,1.83-.53,2.58-.04,2.35.98,4.5,2.69,6.01,4.74.69.49,1.78.41,2.58.4.76,0,1.82.02,2.58-.07,6.14-8.63,18.11-7.38,27.49-7.82,4.56-.08,9.18-.17,13.74-.09,4.72,0,9.48.71,13.74,2.81,3.64-.79,7.45-1.16,11.17-.85,1.39.11,2.93.32,4.29.58,1.09.15,2.33.67,3.44.51,8.87-1.98,17.77,1.07,26.63,1.55,6.01.27,12.05-.47,18.04-.9,6.57-.43,13.18-.7,19.76-.93"/><path class="b" d="M9.67,124.86c5.4,1.25,11.06.83,16.32-.85,1.08-.28,2.32-.81,3.44-.92,1.77.56,3.62,1.36,5.15,2.41,1.21.83,2.32,2.19,3.44,3.13,1.08,0,2.36,0,3.44,0,.5.08,1.29-.12,1.72-.38,3.06-3.98,8.01-6.03,12.89-6.66,6.82-.91,13.76-.71,20.62-.88,6.9.04,14.3-.62,20.62,2.67,7.77-1.6,12.93-1.17,20.62.32,8.34-1.35,16.61,1.35,24.91,1.73,5.73.21,11.47-.43,17.18-.81,7.43-.43,14.89-.96,22.34-1.12"/><path class="b" d="M9.67,121.31c4.25.6,8.64.77,12.89.02,1.08-.15,2.34-.53,3.44-.54.77.17,1.82.46,2.58.7,2.97.86,5.61,2.63,7.73,4.84h5.15c1.15-.89,2.23-2.24,3.44-3.06,1.54-1.12,3.36-2.07,5.15-2.7,6.33-2.11,13.17-1.81,19.76-1.99,4.28-.05,8.61-.16,12.89-.09,4.36.07,8.9.43,12.89,2.35.48.22,1.23.24,1.72.04.76-.17,1.81-.37,2.58-.49,1.95-.3,4.04-.46,6.01-.46,2.85.01,5.77.3,8.59.72,1.68.16,3.46.82,5.15.75,7.79-.45,15.43,1.89,23.19,1.94,13.18-.32,26.33-1.81,39.52-2.05"/><path class="b" d="M9.67,118.75c6.59-.66,13.55-.59,19.76,1.98,1.94.69,3.45,2.28,5.15,3.32,1.96-.08,4.08.19,6.01-.16,6.4-7.24,16.82-7.36,25.77-7.47,6.57,0,13.2-.35,19.76.15,2,.18,4.1.54,6.01,1.15,1.11.29,2.28,1.06,3.44,1.11,5.03-1.29,10.31-1.42,15.46-.98,2.56.2,5.2.55,7.73.98,1.67.28,3.45.71,5.15.72,5.44.33,10.86,1.57,16.32,1.61,14.05-.08,28.06-1.55,42.09-2.1"/><path class="b" d="M9.67,117.37c7.59-.56,16.07-.54,22.33,4.39h6.87c8.4-8.24,20.88-7.49,31.78-7.55,5.43.03,10.93-.24,16.32.44,1.71.23,3.53.64,5.15,1.21,1.06.38,2.3,1.11,3.44.61,11.68-2.81,23.52.21,35.22,1.14,5.13.33,10.33.15,15.46.36,3.43,0,6.88.8,10.31.56,8.6-.25,17.17-1.43,25.77-1.77"/><path class="b" d="M9.67,115.91c4.88-.11,9.9-.08,14.6,1.4,1.45.45,3.01,1.13,4.3,1.95,1.05.31,2.36.15,3.44.19,1.67,0,3.48,0,5.15,0,9.3-7.67,20.37-7.49,31.78-7.4,8.32.21,17.07-.77,24.91,2.58,10.11-2.65,20.67-1.5,30.93-.48,5.7.53,11.47.52,17.18.8,2.84.15,5.77.36,8.59.78,1.99.21,3.99,1.11,6.01.86,8.62-.22,17.16-1.87,25.77-2.21"/><path class="b" d="M9.67,114.3c5.25.26,10.6.71,15.46,2.86,3.41,0,6.89,0,10.31,0,8.05-6.19,18.49-7.41,28.35-7.25,6.29.1,12.62.02,18.9.36,2.28.16,4.65.47,6.87,1.02,1.42.29,2.88,1.03,4.29,1.27,7.27-1.85,14.88-2.02,22.34-1.67,9.43.74,18.94.81,28.35,1.8,2.29.24,4.66.72,6.87,1.36,1.36.39,2.85,1,4.3.78,8.93-.27,17.7-2.54,26.63-2.84"/><path class="b" d="M9.67,112.52c2.56.4,5.21.82,7.73,1.4,1.11.21,2.3.86,3.44.94,3.7,0,7.47,0,11.17,0,1.3.22,2.41-.64,3.44-1.29,1.05-.61,2.32-1.27,3.44-1.76,4.07-1.8,8.47-2.93,12.89-3.48,6.83-.85,13.76-.46,20.62-.31,7.22.1,14.62.07,21.48,2.64,6.16-1.58,12.56-2.12,18.9-2.15,4.57,0,9.18.27,13.74.48,5.44.27,10.93.55,16.32,1.35,2.31.35,4.66,1.04,6.87,1.79.76.27,1.83.67,2.58.98.75.11,1.82.05,2.58.01,9.24-.5,18.21-3.42,27.49-3.61"/><path class="b" d="M9.67,110.65c2.32.43,4.62,1.26,6.87,1.92,4.57,0,9.18,0,13.74,0,.9,0,1.81-.73,2.58-1.11,1.63-.85,3.43-1.64,5.15-2.28,4.95-1.82,10.21-2.84,15.46-3.22,6.86-.52,13.76.05,20.62.2,4.28.1,8.64.15,12.89.81,1.7.26,3.51.66,5.15,1.17.77.23,1.76.7,2.58.62,8.39-2.16,17.14-2.6,25.77-2.3,9.52.48,19.51.33,28.35,4.37,1.24.85,2.87.75,4.3.63,1.68-.1,3.49-.31,5.15-.58,7.98-1.44,15.88-3.8,24.05-3.86"/><path class="b" d="M9.67,107.95c1.99.7,3.96,1.83,6.01,2.33,1.68,0,3.48,0,5.15,0,1.68,0,3.48,0,5.15,0,1.12,0,2.49.14,3.44-.58,7.69-3.88,16.35-5.58,24.91-5.91,5.43-.23,10.9.17,16.32.45,4.28.21,8.62.18,12.89.51,2.57.2,5.23.56,7.73,1.19,1.68.26,3.45,1.54,5.15.92,8.67-2.27,17.71-2.76,26.63-2.38,7.87.33,16.05.87,23.19,4.49,1.2.93,2.86.84,4.29.76,1.98-.08,4.07-.34,6.01-.71,8.51-1.69,16.97-4.99,25.77-4.2"/><path class="b" d="M9.67,104.75c9.73,3.6,4.56,3.3,15.46,3.23,1.55.19,2.92-.98,4.29-1.5,2.2-.95,4.57-1.74,6.87-2.39,5.58-1.53,11.41-2.21,17.18-2.35,6.88-.2,13.76.66,20.62,1.01,7.5.28,15.21.22,22.33,2.91,8.07-2.37,16.52-3.35,24.91-3.1,7.6.2,15.55.96,22.33,4.66.91.81,2.32.57,3.44.58,2.87,0,5.8-.36,8.59-1.03,6.55-1.59,13.01-3.84,19.76-4.47,2.26.14,4.61.37,6.87.41"/><path class="b" d="M9.67,101.69c3.26.95,6.42,2.4,9.45,3.92,1.96.16,4.05.04,6.01.07.87-.14,1.8-.84,2.58-1.19,1.34-.65,2.88-1.25,4.3-1.72,6.07-2.03,12.51-2.86,18.9-3.01,4-.09,8.05.09,12.03.48,3.98.48,8.02,1.05,12.03,1.22,4.85.22,9.78.13,14.6.81,1.99.28,4.08.7,6.01,1.23,1.09.2,2.32,1.04,3.44.64,7.45-2.44,15.37-3.41,23.19-3.15,6.47.31,13.27,1.27,18.9,4.66,3.42.08,6.93.02,10.31-.52,1.14-.3,2.33-1.11,3.44-1.52,1.91-.77,4.01-1.39,6.01-1.86,3.93-.93,8.03-1.21,12.03-1.7,3.1.45,6.31.63,9.45.58"/><path class="b" d="M9.67,98.75c2.96.66,5.87,1.8,8.59,3.12,1.09.46,2.24,1.35,3.44,1.51,1.38-.03,2.93.1,4.3-.11,3.09-2.03,6.72-3.23,10.31-4.01,5.91-1.24,12.01-1.68,18.04-1.38,6.92.29,13.7,2.12,20.62,2.49,8.64.3,17.53-.2,25.77,2.9,1.71-.37,3.44-1.2,5.15-1.61,2.5-.7,5.15-1.21,7.73-1.52,7.47-.84,15.4-.38,22.33,2.73,1.48.93,3.49.38,5.15.52,1.68.02,3.49,0,5.15-.17.85-.05,1.95-.11,2.58-.77,4.4-2.61,9.61-3.65,14.6-4.52,1.37-.29,2.92-.04,4.3.03,1.09-.05,2.36-.26,3.44.04,2.25.2,4.62-.08,6.87-.18,1.38.16,2.92.35,4.3.51"/><path class="b" d="M9.67,95.96c4.56.67,8.91,2.54,12.89,4.83,1.29.56,2.92.25,4.3.27,1.82-1.2,3.94-2.14,6.01-2.81,4.97-1.57,10.27-2.11,15.46-2.17,4.31-.03,8.66.41,12.89,1.23,4.27.79,8.55,1.94,12.89,2.34,8,.6,16.16-.75,24.05,1.2,1.92.47,4.05.16,6.01.25,1.67-.1,3.57.28,5.15-.31,5.25-1.65,10.89-2.04,16.32-1.2,2.02.27,4.08.89,6.01,1.51,3.7-.07,7.48.17,11.17-.16.41-.03,1.31-.13,1.72-.2.39-.29,1.3-.84,1.72-1.1,1.29-.78,2.88-1.4,4.3-1.92,1.93-.67,4.03-1.24,6.01-1.71,1.06-.21,2.35-.7,3.44-.39,1.37.14,2.93.69,4.3.35.75-.17,1.82-.38,2.58-.5.75.15,1.82.35,2.58.49,1.06.19,2.36.4,3.44.52,1.07-.06,2.37-.18,3.44-.3,1.96-.11,4.05-.83,6.01-.47"/><path class="b" d="M9.67,93.3c3.89.24,7.66,1.5,11.17,3.16,1.42.67,2.91,1.61,4.3,2.34.46,0,1.27,0,1.72,0,.46.02,1.27-.02,1.72-.08.45-.26,1.25-.74,1.72-.96,1.05-.51,2.32-1.03,3.44-1.39,5.24-1.66,10.85-2.07,16.32-1.8,4.05.21,8.12.93,12.03,2.02,1.68.46,3.49.99,5.15,1.5,1.06.3,2.31.81,3.44.71,18.9-.03,37.8,0,56.7,0,2.55,0,5.18,0,7.73,0,1.97,0,4.12.07,6.01-.55,2.39-1.45,5.06-2.59,7.73-3.41,1.94-.62,4.02-1.22,6.01-1.64,1.37.27,2.92.59,4.3.86.78.06,1.82-.26,2.58-.42.74-.17,1.81-.41,2.58-.45.4.09,1.31.28,1.72.37,1.95.43,4.03.85,6.01,1.11,1.37.27,2.93.14,4.3-.16,1.97-.34,4.05-.74,6.01-1.13"/><path class="b" d="M9.67,91.06c4.49-.61,8.84,1.38,12.89,3.08,1.1.5,2.39,1.11,3.44,1.71.71.58,1.7.72,2.58.65.78,0,1.81.04,2.58-.12,1.04-.56,2.32-1.12,3.44-1.5,6.89-2.27,14.46-2.18,21.48-.55,2.34.45,4.58,1.6,6.87,2.17,3.13,0,6.32,0,9.45,0,3.41,0,6.89,0,10.31,0,2.21-.72,4.57-1.32,6.87-1.65,3.68-.54,7.51-.46,11.17.2,2,.33,4.05.97,6.01,1.45,1.97,0,4.05,0,6.01,0,5.71,0,11.47,0,17.18,0,2.25-.13,4.79.41,6.87-.63,3.58-1.68,7.34-3.08,11.17-4.06,1.06-.29,2.33-.74,3.44-.85,1.38.31,2.92.67,4.3,1,2.28-.07,4.59-1.51,6.87-.88,4.22.92,8.52,2.28,12.89,2.07,2.26-.55,4.61-1.15,6.87-1.68"/><path class="b" d="M9.67,88.81c1.4.08,2.91-.2,4.3-.27,3.22.61,6.45,1.55,9.45,2.88,1.4.61,2.94,1.35,4.3,2.06,1,.69,2.26.81,3.44.72,1.08,0,2.35,0,3.44,0,1.35-.53,2.88-1.05,4.29-1.35,2.79-.61,5.74-.78,8.59-.6,1.99.13,4.08.46,6.01.98,1.1.25,2.31.85,3.44.97,3.7,0,7.47,0,11.17,0,3.7,0,7.47,0,11.17,0,3.12-.86,6.24-2.07,9.45-2.64,6.51-1.41,13.27-.89,19.76.38,5.94,1.03,11.96,2.82,18.04,2.08,4.69-.56,9.25-2.05,13.74-3.43,2.53-.7,5.2-1.24,7.73-1.94,1.7.22,3.44,1.11,5.15,1.08,1.66-.42,3.47-.84,5.15-1.18,1.4.1,2.93.55,4.3.86,4.47,1.18,9.07,2.46,13.74,2.08,1.96-.62,4.03-1.32,6.01-1.85"/><path class="b" d="M9.67,86.4c1.68.22,3.48-.03,5.15-.1,4.48.44,8.86,2.01,12.89,3.98,1.09.5,2.31,1.23,3.44,1.63,1.68,0,3.48,0,5.15,0,6.57,0,13.18,0,19.76,0,2.26,0,4.61,0,6.87,0,1.38-.06,2.95.16,4.29-.18,3.01-1.06,6.26-1.58,9.45-1.62,1.08-.02,2.36.01,3.44.08.79.05,1.83.24,2.58-.1,9.55-3.07,17.61-3.44,27.49-2.07,5.41.59,10.86,1.6,16.32,1.38,5.52-.16,10.91-1.66,16.32-2.61.75-.15,1.8-.44,2.58-.34,1.39.3,2.91.79,4.3,1.09,1.95-.47,4.02-1.04,6.01-1.31,1.07.2,2.37.47,3.44.72,6.18,1.46,12.46,4.08,18.9,2.58,1.34-.59,2.9-1.17,4.3-1.63"/><path class="b" d="M9.67,84.23c1.08-.21,2.34-.16,3.44-.14,1.09-.05,2.35-.16,3.44-.02,5.78.63,11.19,2.91,16.32,5.55,8.29,0,16.62,0,24.91,0,.77,0,1.81,0,2.58-.01.44-.2,1.27-.57,1.72-.74,1.63-.63,3.45-1.16,5.15-1.53,5.33-1.2,10.9-1.25,16.32-.71,1.11.25,2.37-.29,3.44-.54,1.66-.43,3.46-.87,5.15-1.13,5.09-.85,10.31-1.14,15.46-.74,6.58.34,13.16,1.36,19.76,1.3,3.14-.03,6.34-.43,9.45-.85,1.97-.11,4.06-.89,6.01-.32,1.08.23,2.37.54,3.44.83,2-.13,4.03-.9,6.01-1.21,2.29.25,4.62.9,6.87,1.38,3.73.87,7.36,2.43,11.17,2.96,4.07.52,8.33-.26,12.03-2.01"/><path class="b" d="M9.67,82.21c1.95-.35,4.04-.52,6.01-.57,2.56.29,5.22.63,7.73,1.23,3.88.93,7.53,2.73,11.17,4.34,3.4.27,6.9.03,10.31.11,3.12-.1,6.36.22,9.45-.15,10.06-4.07,21.07-4.98,31.78-3.72,1.4.17,2.91-.5,4.3-.69,2.23-.34,4.61-1.15,6.87-.92,7.12.98,14.35.36,21.48-.21,5.71.49,11.47.55,17.18.06,2.58.1,5.17.94,7.73,1.17,1.67-.38,3.48-.8,5.15-1.15,1.4-.09,2.92.47,4.3.69,2.27.48,4.63,1.01,6.87,1.6,10.29,3.36,11.61,4.36,22.34.71"/><path class="b" d="M9.67,80.2c3.67-.74,7.48-.94,11.17-.22,4.78.56,9.33,2.31,13.74,4.15,3.39.38,6.9.53,10.31.31,3.17-.23,6.36-.94,9.45-1.67,11.45-2.94,23.48-3.97,35.22-2.37,1.98.15,4.02-.83,6.01-.93,1.96.34,4.04.7,6.01.96,9.72,1.35,19.47-.98,29.21-.64,1.97.06,4.06.21,6.01.46,1.08.09,2.36.5,3.44.29,1.96-.37,4.02-.96,6.01-1.17,1.98.34,4.05.85,6.01,1.27,2.85.63,5.8,1.28,8.59,2.17,2.27.67,4.51,1.98,6.87,2.22,2.83-.1,5.79.22,8.59-.16,1.98-.66,4.02-1.54,6.01-2.16"/><path class="b" d="M9.67,78.15c2.8-.6,5.73-.81,8.59-.86,2.85.36,5.79.76,8.59,1.44,1.71.42,3.5,1.02,5.15,1.61.46.15,1.27.46,1.72.61.46,0,1.27-.05,1.72-.08,4.28-.22,8.63-.26,12.89-.84,5.73-.77,11.44-1.98,17.18-2.67,1.97-.38,4.04.05,6.01.17,2.83.22,5.75.29,8.59.22,2.26-.06,4.62-.21,6.87-.4,1.68-.14,3.48-.42,5.15-.06.43.06,1.29.17,1.72.24,1.08-.26,2.35-.5,3.44-.14,4.24.88,8.54,1.87,12.89,1.96,4.58.12,9.18-.47,13.74-.74,3.41-.22,6.9-.3,10.31-.05,2.28-.25,4.61-.84,6.87-1.23,2.27-.61,4.64.42,6.87.82,2.83.67,5.77,1.3,8.59,2.02,1.39.36,2.94.79,4.3,1.28.76.29,1.82.72,2.58,1.04.4-.03,1.31-.14,1.72-.22,1.96-.26,4.09-.22,6.01.29,1.34.35,2.92.13,4.3.18.77,0,1.86.08,2.58-.27,1.36-.6,2.91-1.25,4.3-1.79"/><path class="b" d="M9.67,76.04c3.36-.69,6.88-1,10.31-.89,3.75.51,7.56,1.13,11.17,2.28.78.23,1.76.62,2.58.62.45-.07,1.27-.19,1.72-.24,1.96-.23,4.04-.39,6.01-.56,4.58-.35,9.2-.9,13.74-1.59,1.67-.25,3.48-.52,5.15-.75,1.98.07,4.04.54,6.01.74,6.81.9,13.76,1.16,20.62.56,2.56-.22,5.19-.58,7.73-.95.77-.16,1.8-.42,2.58-.54.76.16,1.82.02,2.58.19,7.39,1.07,14.84,2.45,22.33,2.04,3.73-.16,7.49-.68,11.17-1.29,2.25-.23,4.62-1.17,6.87-.71,3.45.62,6.9,1.53,10.31,2.35,3.15.76,6.4,1.45,9.45,2.54,2.81-.51,5.68-1.36,8.59-1.16,1.71.06,3.56.38,5.15,1.01.39.19,1.31.57,1.72.75.75,0,1.82,0,2.58,0,1.47-.31,2.89-1.32,4.3-1.86"/><path class="b" d="M9.67,73.84c3.94-.75,8.02-1.14,12.03-.87,2.86.44,5.79.92,8.59,1.65,1.09.2,2.34.93,3.44.53,1.95-.43,4.03-.72,6.01-.94,4.86-.52,9.76-1.01,14.6-1.65,4.3.52,8.6,1.35,12.89,1.96,7.39.99,14.92,1.23,22.34.38,2.28-.54,4.6-1.38,6.87-1.96.76-.2,1.81-.46,2.58-.64.77.16,1.82.44,2.58.66,1.68.19,3.48-.4,5.15-.52,4.56.46,9.15,1.14,13.74,1.14,3.13.03,6.34-.16,9.45-.52,1.96-.13,4.05-.8,6.01-.42,7.26,1.13,14.33,3.32,21.48,5,5.34-2.2,11.61-3.05,17.18-1.22,4.73,1.98,2.83,2.56,7.73-.02"/><path class="b" d="M9.67,71.58c4.79-.78,9.78-1.37,14.6-.65,2.87.38,5.74,1.24,8.59,1.67,1.36-.42,2.9-.77,4.3-1.03,3.39-.55,6.88-1.07,10.31-1.26,9.51.81,18.77,3.77,28.35,3.91,3.98.04,8.07.17,12.03-.32,4.05-1,7.99-2.57,12.03-3.59,1.71-.64,3.52.43,5.15.86.73.4,1.8.23,2.58.08,3.11-.47,6.31-.89,9.45-1.09,2.83.1,5.75.26,8.59.14,7.89-.26,15.65,1.9,23.19,3.99,1.96.39,4.01,1.27,6.01,1.24.73-.38,1.8-.84,2.58-1.13,7.1-2.38,15.84-3.45,22.33,1.04.82-.26,1.82-.89,2.58-1.29"/><path class="b" d="M9.67,69.25c4.81-.79,9.73-1.15,14.6-.81,2.56.41,5.2.9,7.73,1.48,1.43-.01,2.89-.79,4.3-1.02,1.94-.33,4.05-1.08,6.01-.8,5.45.77,10.94,1.59,16.32,2.78,4.8,1.06,9.64,2.42,14.6,2.09,2.84-.06,5.75-.13,8.59-.18,1.96-.09,4.08.08,6.01-.3,4.99-1,9.68-3.23,14.6-4.5.78-.38,1.81,0,2.58.27,1.38.47,2.92,1.03,4.3,1.53,1.68.18,3.48-.43,5.15-.56,2.82-.38,5.74-.64,8.59-.61,7.88-.07,15.72,1.36,23.19,3.83,1.92.61,3.97,1.25,6.01,1.07.75-.36,1.81-.9,2.58-1.23,5.38-2.04,11.42-3.11,17.18-2.82,2.01.17,4.13.59,6.01,1.32,1.11.36,2.27,1.28,3.44,1.46l.86-.48"/><path class="b" d="M9.67,66.88c5.11-.78,10.3-1.15,15.46-.77,2.28.26,4.62.76,6.87,1.2,2-.31,4-1.24,6.01-1.56,1.11-.09,2.36.34,3.44.51,6.33,1.24,12.72,2.45,18.9,4.35,3.42.03,6.9.14,10.31.32,3.13.16,6.32.3,9.45.03,3.12-.14,6.32-.07,9.45-.05,3.85-.74,7.49-2.44,11.17-3.76,1.65-.53,3.41-1.33,5.15-1.49.42.15,1.3.45,1.72.6,1.68.61,3.49,1.33,5.15,1.99,1.05.43,2.35-.09,3.44-.17,1.96-.27,4.04-.55,6.01-.62,7.28-.26,14.62.82,21.48,3.29,1.3.62,2.89.53,4.3.51.75,0,1.82,0,2.58,0,.77-.34,1.81-.9,2.58-1.24,4.1-1.61,8.53-2.47,12.89-3.04,5.49-.7,11.42-.58,16.32,2.28"/><path class="b" d="M9.67,64.47c6.81-.96,13.83-1.44,20.62-.09.78.13,1.8.42,2.58.16,1.62-.48,3.45-1.51,5.15-.88,3.7.95,7.48,1.88,11.17,2.89,1.39.37,2.93.85,4.3,1.31,1.36.23,2.92.16,4.29.22,6.01.13,12.04.52,18.04.85,1.97-.04,4.03-.5,6.01-.49,3.71-.13,7.48.16,11.17.48,2.08-.22,4.08-1.39,6.01-2.15,2.78-1.24,5.68-2.45,8.59-3.36,3.25.84,6.34,2.46,9.45,3.69,7.13-1.15,14.54-1.02,21.48,1.14.76.23,1.78.63,2.58.72,1.08,0,2.36,0,3.44,0,1.98-.13,4.27.46,6.01-.73,4.3-2.01,9.09-2.87,13.74-3.64,5.96-.84,12.38-1.38,18.04,1.08"/><path class="b" d="M9.67,62.03c7.1-.98,14.39-1.39,21.48-.08,1.43.39,2.92-.58,4.3-.87.44.09,1.29.31,1.72.44,3.74.99,7.44,2.43,11.17,3.43,2.54.28,5.18.44,7.73.57,6.01.25,12.04.7,18.04,1.01,1.1.19,2.36-.27,3.44-.46,1.07-.2,2.35-.36,3.44-.44,4.29-.31,8.66.12,12.89.84,1.06.25,2.36.19,3.44.19.84-.11,1.83-.69,2.58-1.07,2.23-1.15,4.56-2.33,6.87-3.31,2.98-1.29,2.94-1.4,6.01-.04,2.63,1.06,5.25,2.38,7.73,3.75,4.84-.72,9.85-.64,14.6.58,3.4.21,6.9.03,10.31.08.77,0,1.82.03,2.58-.09.75-.41,1.78-.94,2.58-1.25,1.64-.63,3.45-1.17,5.15-1.59,8.29-1.83,18.36-3.85,26.63-1.38"/><path class="b" d="M9.67,59.54c3.69-.51,7.44-.86,11.17-.65,1.38.01,2.91-.16,4.3-.17,1.98.06,4.05.41,6.01.67,1.13.34,2.33-.45,3.44-.59.44.13,1.28.38,1.72.51,1.98.61,4.06,1.34,6.01,2.03,5.09.98,10.3,1.43,15.46,1.75,5.14.33,10.32.78,15.46.99.47.12,1.31-.04,1.72-.29,1.05-.38,2.34-.72,3.44-.92,2.8-.51,5.75-.59,8.59-.41,2.88.2,5.79.82,8.59,1.49,1.62.57,3.47.39,5.15.41,1.51-.45,2.89-1.65,4.3-2.35,2.19-1.14,4.45-2.61,6.87-3.17,3.64,1.28,7.01,3.33,10.31,5.29,1.04.38,2.35.19,3.44.23,1.38,0,2.92,0,4.29,0,4.28,0,8.61,0,12.89,0,1.38-.11,3.03.31,4.3-.36,2.15-1.07,4.55-1.84,6.87-2.42,4.78-1.19,9.71-1.99,14.6-2.57,4.54-.49,9.24-.77,13.74.2"/><path class="b" d="M9.67,57.02c1.67-.2,3.47-.42,5.15-.54,2.25.2,4.61.36,6.87.28,1.68-.05,3.48-.26,5.15-.33,1.39,0,2.92.28,4.29.43.48.1,1.28-.02,1.72-.22.48-.11,1.28-.01,1.72.18,1.09.33,2.37.76,3.44,1.14,1.38.25,2.92.49,4.3.72,3.68.69,7.44,1.21,11.17,1.54,6.28.51,12.6,1.19,18.9,1.38.49.05,1.32-.22,1.72-.5,1.03-.48,2.33-.91,3.44-1.18,3.64-.84,7.48-.98,11.17-.43,2.58.34,5.23.9,7.73,1.64,1.08.28,2.32.85,3.44.93,1.37-.05,2.94.13,4.3-.14,2.92-2.09,6.02-4.33,9.45-5.46,3.32,1.35,6.44,3.32,9.45,5.24.72.46,1.77.38,2.58.37,1.38,0,2.92,0,4.29,0,3.7,0,7.47,0,11.17,0,1.7-.05,3.59.26,5.15-.57,2.46-1.05,5.12-1.85,7.73-2.43,4.52-1.02,9.15-1.74,13.74-2.34,4.82-.6,9.76-1.08,14.6-.46"/><path class="b" d="M9.67,54.47c1.97-.36,4.04-.23,6.01,0,2.25.2,4.61.3,6.87.17,1.38-.11,2.92-.18,4.3-.26,1.39-.11,2.91-.33,4.29-.05,1.12-.23,2.35.24,3.44.42,1.97.33,4.04.71,6.01,1.02,7.09,1.32,14.29,2.12,21.48,2.74,3.4.24,6.9.81,10.31.51,1.26-.85,2.84-1.54,4.3-1.96,4.45-1.34,9.2-1.15,13.74-.44,2.9.45,5.83,1.19,8.59,2.19.76.28,1.8.71,2.58.95.41,0,1.3,0,1.72,0,1.08-.05,2.42.19,3.44-.29,1.56-1.35,3.39-2.67,5.15-3.73,1.02-.57,2.24-1.41,3.44-1.56,3.29,1.55,6.5,3.46,9.45,5.59,6.28-.07,12.62.14,18.9-.08,6.32-2.5,13.06-3.69,19.76-4.64,6.24-.87,12.58-1.87,18.9-1.55"/><path class="b" d="M9.67,51.9c3.99.23,8.02.95,12.03.74,1.97-.14,4.05-.18,6.01-.35,1.97-.2,4.04-.59,6.01-.19,7.73,1.11,15.41,2.71,23.19,3.44,4.84.47,9.73,1.23,14.6,1.14,6.74-5.09,16.32-3.82,24.05-2.06,2.63.68,5.28,1.64,7.73,2.82,1.67.09,3.48.02,5.15.04,2.53-2.15,5.24-4.85,8.59-5.5,2.04.97,4.12,2.15,6.01,3.37,1.35.74,2.62,2.35,4.3,2.13,4.85,0,9.75,0,14.6,0,2.89-.55,5.69-1.89,8.59-2.44,5.09-1.13,10.31-1.77,15.46-2.51,5.4-.72,10.86-1.56,16.32-1.6"/><path class="b" d="M9.67,49.73c1.38-.24,2.92.15,4.3.29,2.25.29,4.6.55,6.87.55,2.87.04,5.78-.45,8.59-.95,1.38.48,2.9-.1,4.3-.07,7.73,1.08,15.43,2.67,23.19,3.52,4.55.52,9.16,1.22,13.74,1.24,3.49-2.63,7.64-4.05,12.03-4,4.6-.12,9.28.35,13.74,1.5,2.94.76,5.88,1.85,8.59,3.22,1.65.27,3.48.08,5.15.13,1.71-1.26,3.25-3.02,5.15-4.04,1.04-.53,2.22-1.48,3.44-1.39,3.01,1.46,5.96,3.24,8.59,5.31,4.83.32,9.76.03,14.6.12,2.83-.81,5.7-1.81,8.59-2.4,4.24-.85,8.6-1.32,12.89-1.89,6.29-.75,12.57-1.93,18.9-2.32"/><path class="b" d="M9.67,47.87c1.97.3,4.05-.36,6.01-.5,3.12.14,6.32.52,9.45.16,1.69-.32,3.5-.04,5.15.36,1.39-.14,2.91-.49,4.3-.67.77.03,1.81.22,2.58.35,7.15,1.12,14.3,2.43,21.48,3.31,2.54.33,5.18.68,7.73.92,1.37.07,2.94.34,4.3.05,3.39-3.33,8.31-4.18,12.89-4.2,4.6-.09,9.28.39,13.74,1.51,3.24.81,6.47,1.99,9.45,3.51,1.62.45,3.49.13,5.15.22,1.73-1.23,3.23-3.01,5.15-4.04,1.03-.52,2.22-1.55,3.44-1.34,3.01,1.46,5.98,3.24,8.59,5.33,3.99.12,8.04.01,12.03.05,2.07.21,4.02-.94,6.01-1.35,3.64-.91,7.44-1.44,11.17-1.85,1.41-.2,2.9-.83,4.3-1.11,2.24-.53,4.6-.93,6.87-1.28,1.07.14,2.36.3,3.44.44,3.13-.36,6.3-1.03,9.45-1.31"/><path class="b" d="M9.67,45.97c.77.1,1.8.23,2.58.31.77-.14,1.8-.33,2.58-.45,2.24-.37,4.6-.64,6.87-.69,2.87-.13,5.77.35,8.59.72,1.37-.26,2.91-.51,4.3-.69,1.09-.26,2.35-.18,3.44.07,1.67.27,3.48.56,5.15.82,4.85.78,9.73,1.66,14.6,2.32,3.69.52,7.44,1.13,11.17,1.32,1.76.31,2.8-1.65,4.3-2.33,6.54-3.64,18.67-2.33,25.77-.57,3.23.82,6.45,1.99,9.45,3.42.35.24,1.28.45,1.72.36,1.07,0,2.36,0,3.44,0,.9-.49,1.79-1.56,2.58-2.2,1.01-.83,2.29-1.7,3.44-2.33,1.98-1.17,2.33-1.11,4.29,0,1.73.9,3.55,1.98,5.15,3.09.76.48,1.62,1.43,2.58,1.45,2.84,0,5.75,0,8.59,0,2-.03,4.13.22,6.01-.58,1.64-.47,3.47-.76,5.15-1.01,3.09-2.02,6.72-3.18,10.31-3.91,2.86.19,5.74,1.08,8.59,1.42,1.38.29,2.92-.36,4.3-.55,2.54-.52,5.17-1.07,7.73-1.47"/><path class="b" d="M9.67,44.17c1.38.09,2.94.65,4.3.26,2.52-.57,5.15-1.02,7.73-1.14,2.56-.12,5.22.07,7.73.55,2.57-.19,5.18-.79,7.73-1.16,5.15.77,10.33,1.64,15.46,2.52,5.7.85,11.42,2.04,17.18,2.36.96-.27,1.78-1.37,2.58-1.91.97-.73,2.29-1.32,3.44-1.68,6.1-1.78,12.66-1.41,18.9-.61,4.08.58,8.15,1.57,12.03,2.97,1.69.58,3.48,1.35,5.15,1.97,1.07,0,2.36,0,3.44,0,1.26-.62,2.26-2.03,3.44-2.8,1.55-1.04,3.29-2.34,5.15-2.68,3.32,1.46,6.51,3.36,9.45,5.48,3.7,0,7.47,0,11.17,0,.91.18,1.88-.52,2.58-1.01.76-.51,1.8-1.22,2.58-1.71,2.11-1.26,4.5-2.27,6.87-2.88,3.94,1.23,7.98,2.34,12.03,3.17,1.69.27,3.5-.6,5.15-.91,2.83-.75,5.73-1.58,8.59-2.2"/><path class="b" d="M9.67,42.52c1.38.18,2.91.45,4.3.52,2.77-.86,5.69-1.51,8.59-1.65,2.57-.23,5.19.32,7.73.49,1.68-.31,3.48-.67,5.15-.99,1.08-.15,2.35-.6,3.44-.37,6,1.02,12.05,1.98,18.04,3.04,4.55.68,9.13,1.83,13.74,1.9,5.5-6.73,19.67-5.17,27.49-4.15,4.06.59,8.09,1.68,12.03,2.83,1.38.4,2.92.86,4.29,1.25,1.06.28,2.34.79,3.44.46,2.08-2.34,4.87-4.1,7.73-5.3,1.18.02,2.38.83,3.44,1.29,2.03,1,4.13,2.17,6.01,3.43,3.64,3.03,12.99-3.82,17.18-4.89,4.85,1.81,9.6,4.06,14.6,5.46.8.17,1.82-.19,2.58-.41,1.08-.32,2.37-.74,3.44-1.11,3.12-1.08,6.28-2.29,9.45-3.19"/><path class="b" d="M9.67,41.03c1.38.21,2.91.44,4.3.59,2.85-.79,5.56-1.98,8.59-2.15,2.56-.24,5.22,0,7.73.5,2.83-.66,5.73-1.34,8.59-1.86,5.7,1.06,11.48,1.93,17.18,2.98,4.86.79,9.7,1.99,14.6,2.47.56-.14,1.37-.84,1.72-1.28.71-.62,1.74-1.33,2.58-1.75,4.5-2.18,9.69-2.36,14.6-2.34,4.58.09,9.22.4,13.74,1.17,5.99,1.02,11.96,2.59,18.04,2.99,2.02-1.71,4.41-3.13,6.87-4.1,1.8.05,3.51,1.29,5.15,1.94,1.34.58,2.76,1.8,4.3,1.18,2.29-.51,4.65-1.21,6.87-1.96,1.08-.37,2.36-.83,3.44-1.22.85-.08,1.83.47,2.58.8,2.93,1.34,5.84,2.94,8.59,4.62,1.96.16,4.05.04,6.01.07,2.26,0,4.62,0,6.87,0,1.48.04,2.92-1.2,4.3-1.69,1.93-.9,4.01-1.78,6.01-2.49"/><path class="b" d="M9.67,39.79c1.66.21,3.48.78,5.15.53,2.34-1.4,5.03-2.4,7.73-2.77,1.66-.23,3.48-.25,5.15-.08,1.09.07,2.34.5,3.44.39,2.52-.72,5.16-1.39,7.73-1.91,1.69-.16,3.48.53,5.15.74,2.54.47,5.18.92,7.73,1.34,1.38.22,2.92.48,4.29.74,1.68.07,3.5,0,5.15.39,1.47.23,2.89,1.12,4.29,1.54,2.2.56,4.62,1.03,6.87.53,6.1-7.21,23.9-5.25,32.64-4.57,6.54.84,13.15,1.75,19.76,1.52.79-.02,1.87-.02,2.58-.43,1.32-.73,2.86-1.44,4.3-1.91,1.66.45,3.38,1.8,5.15,1.35,2.28-.3,4.59-1.08,6.87-1.31,1.1.28,2.39.7,3.44,1.15,2.43,1.08,4.77,2.62,6.87,4.24,3.39.33,6.9.04,10.31.13,3.7-.08,7.48.16,11.17-.1,2.16-1.33,4.53-2.53,6.87-3.49"/><path class="b" d="M9.67,38.88c1.64.39,3.48.18,5.15.23.87-.3,1.8-1.12,2.58-1.58,1.55-.92,3.38-1.62,5.15-1.98,2.81-.56,5.82-.42,8.59.31,2.55-.69,5.14-1.57,7.73-2.1,1.67-.46,3.49.37,5.15.58,2.83.55,5.75,1.06,8.59,1.52,1.08.29,2.36.12,3.44-.03,1.37-.13,2.92-.14,4.3.02,1.75.2,3.61.71,5.15,1.56.8.44,1.75,1.29,2.58,1.69,1.67,0,3.48,0,5.15,0,1.41-.88,2.72-2.24,4.3-2.88,4.82-2.19,10.26-2.41,15.46-2.7,6.87.05,13.76.25,20.62.67,4.56.18,9.19.21,13.74-.11,2.26-.18,4.61-.47,6.87-.61,1.69.17,3.49.53,5.15.85,1.71.36,3.53.86,5.15,1.51,1.39.51,2.74,1.64,4.29,1.58,3.43.36,6.94.75,10.31,1.51,2.22.42,4.63.09,6.87-.04,3.7-.03,7.49.24,11.17-.35,1.72-.75,3.41-1.91,5.15-2.62"/><path class="b" d="M9.67,36.81h6.87c4.19-3.83,10.13-4.61,15.46-3.09,1.93-.74,4.01-1.41,6.01-1.93,1.06-.26,2.35-.71,3.44-.32,3.68.77,7.44,1.51,11.17,2.07,1.64-.41,3.46-.69,5.15-.75,3.96-.11,8.38.71,11.17,3.75.73.35,1.8.28,2.58.27,1.07,0,2.36,0,3.44,0,3.01-2.88,7.14-4.16,11.17-4.84,5.09-1.07,10.31-.64,15.46-.51,5.43.04,10.9-.07,16.32.21,4,.12,8.05.34,12.03.75,1.38.09,2.91.45,4.3.38,1.34-.61,2.89-1.17,4.3-1.58,3.11.84,6.28,1.72,9.45,2.32,2.26.35,4.63.63,6.87,1.05,1.69.31,3.5.71,5.15,1.17,1.95-.28,4.04-.39,6.01-.33,3.7.19,7.47.59,11.17.1.77-.09,1.82-.25,2.58-.39.77-.37,1.81-.91,2.58-1.27"/><path class="b" d="M9.67,33.36c.39.35,1.24.94,1.72,1.16.43,0,1.29,0,1.72,0,1.38,0,2.92,0,4.3,0,.83-.47,1.77-1.37,2.58-1.87,1.53-.95,3.38-1.6,5.15-1.85,2.6-.47,5.2.2,7.73.66,2.47-1.05,5.12-1.88,7.73-2.48,2.27.4,4.6.99,6.87,1.39,1.37.24,2.91.56,4.3.7,1.35-.41,2.89-.75,4.29-.91,5.5-.6,10.64.25,14.6,4.37,1.96-.08,4.08.19,6.01-.16,4.14-3.81,10.04-4.84,15.46-5.34,1.38-.18,2.92.17,4.3.24,2.54.21,5.18.38,7.73.54,9.48.51,19.05.94,28.35,3.03,2.25-1.07,4.45-2.54,6.87-3.24.76-.24,1.8-.53,2.58-.72.44.1,1.29.32,1.72.43,3.64,1.02,7.47,1.45,11.17,2.23,1.39.26,2.9.73,4.3.96,2.25-.18,4.62-.17,6.87-.04,3.69.31,7.47.73,11.17.26,1.69-.25,3.62-.34,5.15-1.16"/><path class="b" d="M9.67,29.88c.85.51,1.9,1.37,2.58,2.09,1.89.54,4.06.13,6.01.25,2.89-2.95,7.06-4.46,11.17-3.93,1.42.07,2.88.8,4.3.82,2.18-1,4.55-1.8,6.87-2.38,2.29.11,4.6.97,6.87,1.3,1.07.2,2.36.43,3.44.6,1.68-.34,3.44-.95,5.15-1.11,5.47-.68,11.81.13,15.46,4.69h6.01c4.31-3.65,9.12-4.84,14.6-5.54,4.28.46,8.61,1.02,12.89,1.51,5.14.67,10.35,1.26,15.46,2.14,2.58.5,5.18,1.32,7.73,1.89,1.38,0,2.92,0,4.3,0,3.54-2.7,7.67-4.62,12.03-5.57,3.67.92,7.5,1.4,11.17,2.36,1.35.44,2.87.72,4.3.57,1.67-.01,3.48.05,5.15.16,2.55.16,5.17.58,7.73.56,3.15-.03,6.41-.39,9.45-1.23"/><path class="b" d="M9.67,26.79c4.44,2.47,1.87,3.4,7.73,3.13.47.06,1.29-.07,1.72-.26.41-.45,1.23-1.27,1.72-1.62,1.23-.92,2.8-1.64,4.3-2,2.23-.53,4.66-.46,6.87.12.78.2,1.76.68,2.58.57.43-.21,1.28-.59,1.72-.77,1.63-.62,3.41-1.36,5.15-1.57,3.1.75,6.29,1.45,9.45,1.92,7.05-2.35,16.29-2.53,21.48,3.61h6.01c1.15-.67,2.26-1.81,3.44-2.44,2.9-1.6,6.22-2.42,9.45-3.04,1.98-.03,4.04.6,6.01.8,4.3.62,8.64,1.34,12.89,2.25,2.26.09,4.63.1,6.87.47,2.36.28,4.66,1.15,6.87,1.95,1.38,0,2.92,0,4.3,0,1.08,0,2.36,0,3.44,0,1.2.07,2.54.03,3.44-.91,3.08-2.15,6.69-3.59,10.31-4.55,1.39-.24,2.92.45,4.3.62,2.28.46,4.65,1.04,6.87,1.74,1.05.28,2.36.12,3.44.18,1.97.04,4.05.16,6.01.33,5.43.74,11.01.53,16.32-.9"/><path class="b" d="M9.67,24.03c1.19.56,2.45,1.5,3.44,2.37,1.38-.07,2.93-.04,4.3.14.78.1,1.8.45,2.58.17,2.78-3.01,7.2-4.11,11.17-3.42,1.46.12,2.88,1.07,4.3,1.03.43-.21,1.28-.62,1.72-.8,1.05-.45,2.34-.9,3.44-1.22.48-.22,1.24-.24,1.72-.03,1.95.49,4.03.96,6.01,1.33,1.43.28,2.91.65,4.3-.03,5-1.4,10.62-1.59,15.46.47,1.97.74,3.5,2.42,5.15,3.62h6.01c3.13-3.25,7.71-4.7,12.03-5.55,5.16,1.01,10.38,1.94,15.46,3.29,1.08.26,2.33.72,3.44.83,2.26-.04,4.63.03,6.87.31,1.7.21,3.52.61,5.15,1.13,3.99,0,8.04,0,12.03,0,3.63-2.55,7.73-4.5,12.03-5.61,3.19.27,6.4,1.35,9.45,2.32,1.05.3,2.36.15,3.44.22,1.97.05,4.05.16,6.01.32,5.72.73,11.64.49,17.18-1.19"/><path class="b" d="M9.67,21.49c.82.38,1.87,1.02,2.58,1.57,1.67.06,3.49-.1,5.15.11,1.09.06,2.34.56,3.44.44,2.92-2.78,7.27-3.69,11.17-2.92,1.44.16,2.86,1.09,4.3,1.15,1.04-.54,2.33-1.1,3.44-1.49.76-.26,1.76-.69,2.58-.45,2.8.76,5.73,1.34,8.59,1.85.82.21,1.8-.3,2.58-.51,1.06-.29,2.35-.54,3.44-.69,5.78-.8,12.25.3,16.32,4.78h6.01c2.27-1.95,4.86-3.63,7.73-4.54,1.65-.51,3.44-1.36,5.15-.69,4.02.94,8.08,1.99,12.03,3.22,1.08.34,2.36.76,3.44,1.13,1.05.38,2.29.91,3.44.79,4.56.13,9.18.07,13.74.08,1.67,0,3.48,0,5.15,0,1.1.04,2.39,0,3.44-.4,1.52-.26,3-1.03,4.3-1.84,1.62-.88,3.43-1.71,5.15-2.36,1.06-.4,2.35-.82,3.44-1.12.79-.02,1.82.3,2.58.49,2.32.49,4.58,1.55,6.87,2.09,2.26,0,4.62.08,6.87.21,2.55.12,5.18.51,7.73.49,4.06-.05,8.16-.75,12.03-1.96"/><path class="b" d="M9.67,19.06c.44.21,1.3.65,1.72.89,1.38-.01,2.92-.03,4.3,0,1.08.02,2.37.12,3.44.3.79.13,1.79.54,2.58.21,3.07-2.51,7.34-3.23,11.17-2.43,1.44.22,2.88,1.03,4.29,1.27,1.59-.74,3.37-1.77,5.15-1.8,1.95.53,4.03,1.05,6.01,1.43,1.39.18,2.89.81,4.3.75.42-.15,1.28-.43,1.72-.54,6.6-1.71,13.77-.89,18.9,3.88,1.96-.05,4.06.12,6.01-.1,2.88-2.7,6.53-4.4,10.31-5.43,1.42.16,2.92.74,4.29,1.12,2.87.88,5.78,1.87,8.59,2.92,1.09.41,2.37.91,3.44,1.36.76.18,1.8.14,2.58.14,4.85,0,9.75,0,14.6,0,3.15-.03,6.4.28,9.45-.7,1.52-.27,2.98-.6,4.3-1.46,1.64-.84,3.44-1.67,5.15-2.35,1.35-.48,2.85-1.18,4.3-1.29.42.12,1.3.36,1.72.48,2.01.57,4.11,1.29,6.01,2.15,2.82.23,5.76.08,8.59.3,3.7.27,7.48.59,11.17,0,2.92-.28,5.72-1.42,8.59-1.95"/><path class="b" d="M9.67,16.75c3.99.24,8.15-.07,12.03,1.09,2.59-1.74,5.4-2.98,8.59-2.57,2.67-.43,5.3.5,7.73,1.51,1.32-.67,2.84-1.37,4.3-1.66,2.52.75,5.17,1.31,7.73,1.9,1.08.25,2.31.82,3.44.84.42-.15,1.28-.42,1.72-.54,5.8-1.47,12.67-.84,17.18,3.42,2.27.08,4.62-.11,6.87-.43,2.55-2.58,6.07-3.99,9.45-5.15,3.19.97,6.37,2.21,9.45,3.5,1.7.61,3.38,1.72,5.15,2.08,3.7,0,7.47,0,11.17,0,3.13,0,6.32,0,9.45,0,2.28,0,4.66.14,6.87-.48,2.99-.63,5.74-2.33,8.59-3.39,1.93-.68,3.95-1.84,6.01-1.93,1.39.4,2.94.9,4.3,1.4,1.1.41,2.37.99,3.44,1.49,3.13-.05,6.33-.03,9.45.12,3.42.27,6.92.36,10.31-.23,1.12-.12,2.35-.69,3.44-.96,1.93-.54,4.03-.95,6.01-1.22"/></svg>