<?xml version="1.0" encoding="UTF-8"?><svg id="a" xmlns="http://www.w3.org/2000/svg" width="1920" height="2400" viewBox="0 0 192 240"><defs><style>.b{fill:none;stroke:#fff;stroke-miterlimit:10;stroke-width:.3px;}.c{stroke-width:0px;}</style></defs><rect class="c" width="192" height="240"/><path class="b" d="M8.83,220.28c5.95-.74,12.18.37,17.35,3.46,1.17.61,2.22,1.84,3.47,2.25,2.28,0,4.66,0,6.94,0,.97.09,1.81-.85,2.6-1.27,1.05-.61,2.34-1.21,3.47-1.64,2.5-.95,5.18-1.62,7.81-2.11,1.68-.23,3.51-.75,5.2-.6,3.45.38,6.96.77,10.41,1.11,1.98.1,4.12.64,6.07.14,6.29-1.11,12.71-1.39,19.08-1.07,6.35.1,12.74.23,19.08-.05,3.48-.38,7,.39,10.41,1.05,1.71-.23,3.51-.78,5.2-1.11,2.61.19,5.22,1.16,7.81,1.55,4.04.46,8.08,1.15,11.28,3.91,9.23.25,18.52.01,27.76.09.77,0,1.83,0,2.6,0,.79-.22,1.82-.67,2.6-.92,1.64-.52,3.49-.85,5.2-.98"/><path class="b" d="M8.83,217.49c6.76-1.04,13.98-.04,19.95,3.38,1.4.83,2.74,2.07,4.34,2.53.74.34,1.81.27,2.6.27,1.39,0,2.95,0,4.34,0,3.53-2.68,7.83-4.15,12.14-4.99,1.39-.27,2.93-.56,4.34-.69,1.69.23,3.51.47,5.2.7,2.57.34,5.23.71,7.81,1.01,2.84-.57,5.77-1.15,8.67-1.37,4.02-.56,8.11.22,12.14.28,7.5.29,15.07.58,22.55-.22.77-.09,1.83-.22,2.6-.33.78.09,1.83.26,2.6.4,1.39.12,2.98.96,4.34.57,1.38-.33,2.92-.78,4.34-.96,1.98.41,4.07.89,6.07,1.23,2,.29,4.15.43,6.07,1.09,1.45.46,3.02,1.14,4.34,1.91.44.29,1.32.91,1.74,1.25.41.09,1.31.16,1.73.13,7.22,0,14.47,0,21.68,0,3.15,0,6.39,0,9.54,0,1.7-.11,3.49-.66,5.2-.66"/><path class="b" d="M8.83,214.94c6.34-1.04,13.07-.6,19.08,1.74,1.46.58,3.02,1.41,4.34,2.26,1.11.35,2.4.82,3.47,1.26.79.32,1.82.83,2.6,1.16.78,0,1.82,0,2.6,0,1.79.29,2.88-1.29,4.34-2.01,2.41-1.34,5.13-2.23,7.81-2.85,1.67-.27,3.51-1.01,5.2-.69,3.16.5,6.39,1.04,9.54,1.57,1.73.47,3.51-.49,5.2-.75,2.56-.39,5.22-.82,7.81-.89,11.79,1.1,23.84,2.4,35.56.13.77-.29,1.83,0,2.6.16,1.1.23,2.41.51,3.47.88,1.7-.35,3.5-.9,5.2-1.23,3.71.88,7.66.85,11.28,2.11,1.44.49,3.01,1.19,4.34,1.94,1.09.52,2.16,1.83,3.47,1.62,12.14,0,24.29,0,36.43,0"/><path class="b" d="M8.83,212.62c5.99-1.06,12.32-.94,18.21.64,2.09.53,4.1,1.58,6.07,2.42,1.73.48,3.56,1.1,5.2,1.8,1.4.53,2.75,1.79,4.34,1.57.94.14,1.97-.3,2.6-.98,1.02-.76,2.31-1.52,3.47-2.05,2.73-1.25,5.74-1.98,8.67-2.56,3.78.3,7.54,1.43,11.28,2.08,2.83-.76,5.76-1.48,8.67-1.81,1.09-.13,2.38-.31,3.47-.35,2.57.32,5.23.64,7.81.92,5.75.61,11.56,1.21,17.35.98,2.59-.1,5.26-.41,7.81-.88,1.7-.23,3.49-.91,5.2-.96,1.42.28,2.99.71,4.34,1.26,2.29-.29,4.6-1.49,6.94-1.29,3.53.39,7.14.84,10.41,2.32,1.44.6,3.01,1.39,4.34,2.21.69.5,1.68,1.3,2.6,1.1,11.85,0,23.72,0,35.56,0"/><path class="b" d="M8.83,210.57c7.06-1.56,15.79-1.27,22.55,1.38,2.48,1.1,5.36,1.36,7.81,2.58,1.11.51,2.41,1.18,3.47,1.8.7.48,1.8.43,2.6.3,3.27-3.16,7.8-4.55,12.14-5.49,2.61.28,5.24,1.1,7.81,1.67.78.19,1.82.47,2.6.68,1.12-.06,2.38-.51,3.47-.74,3.41-.73,6.93-1.51,10.41-1.75,3.45.48,6.96.98,10.41,1.44,9.65,1.4,17.44,1.66,26.89-1.22,2.02-.65,4.06,1.23,6.07,1.27,1.07-.32,2.37-.66,3.47-.88,1.96-.39,4.08-.62,6.07-.57,3.94.75,7.77,2.31,11.28,4.24.75.46,1.74,1.19,2.6,1.44,1.98,0,4.09,0,6.07,0,9.53,0,19.09,0,28.62,0"/><path class="b" d="M8.83,208.79c7.52-2.16,16.12-1.81,23.42,1.04,4.28.72,8.51,2.13,12.14,4.55l.87.02c1.13-.74,2.28-1.87,3.47-2.54,2.38-1.43,5.12-2.36,7.81-3.01,3.23.38,6.42,1.58,9.54,2.46.77.41,1.81.19,2.6-.05,1.08-.26,2.38-.56,3.47-.79,3.42-.7,6.95-1.25,10.41-1.74,5.82.38,11.56,1.78,17.35,2.45,4.6.61,9.35.6,13.88-.47,2.31-.52,4.68-1.25,6.94-1.95,1.79,0,3.56,1.05,5.2,1.65,1.41-.18,2.92-.69,4.34-.85,2.29-.24,4.69-.32,6.94-.86,3.56,1.01,7.12,2.37,10.41,4.07.78.41,1.84.97,2.6,1.4,1.93.47,4.09.11,6.07.22,8.95,0,17.93,0,26.89,0"/><path class="b" d="M8.83,207.29c7.79-2.94,16.55-2.5,24.29.36,2.63.53,5.34,1.23,7.81,2.29,1.45.57,2.81,1.83,4.34,2.14,2.73-2.94,6.58-4.64,10.41-5.64,3.77.94,7.54,2.11,11.28,3.15,4.28-1,8.67-1.71,13.01-2.4,1.69-.27,3.51-.54,5.2-.79,2.59.25,5.24.73,7.81,1.14,12.84,2.54,16.83,3.5,29.49-1.16,1.78.34,3.56,1.21,5.2,1.94.79.03,1.82-.24,2.6-.34,1.08-.15,2.38-.15,3.47-.27,2.02-.23,4.09-.81,6.07-1.25,4.43,1.35,8.86,2.96,13.01,5.01,1.24.85,2.92.56,4.34.6,2.28,0,4.66,0,6.94,0,6.35,0,12.73,0,19.08,0"/><path class="b" d="M8.83,206.12c7.54-3.52,16.54-3.86,24.29-.79,2.25.76,4.73,1.14,6.94,2.06.79.3,1.85.76,2.6,1.14.76.41,1.7,1.2,2.6,1.23,1.21-.67,2.27-1.97,3.47-2.67,2.09-1.36,4.54-2.32,6.94-2.98,4.06.91,8.12,2.1,12.14,3.16,4.34-.51,8.69-1.41,13.01-2.06,2.57-.34,5.21-1.06,7.81-1.12,3.77.58,7.56,1.37,11.28,2.21,4.24.95,8.66,1.91,13.01,1.23,3.88-.58,7.58-2.17,11.28-3.42,2.08.48,4.12,1.5,6.07,2.35,3.54.11,7.05-.71,10.41-1.79.44-.13,1.3-.39,1.73-.52.78.17,1.83.47,2.6.69,1.4.39,2.96.86,4.34,1.34,3.24.96,6.34,2.55,9.54,3.59,8.09,0,16.2,0,24.29,0"/><path class="b" d="M8.83,205.38c6.94-4.25,15.67-5.17,23.42-2.77,1.12.35,2.42.88,3.47,1.42,1.41.38,2.98.84,4.34,1.38,1.45.52,2.93,1.42,4.34,2.04.42,0,1.31,0,1.73,0,1.22-.65,2.27-1.94,3.47-2.64,2.35-1.43,5.06-2.68,7.81-3.02,3.14.79,6.38,1.48,9.54,2.15,1.68.24,3.5,1,5.2.76,4.92-.56,9.87-1.37,14.75-2.23,1.39-.23,2.93-.56,4.34-.72,1.4.23,2.95.53,4.34.82,4.92.95,9.74,2.7,14.75,3.2,3.55.34,7.12-.62,10.41-1.88,1.09-.41,2.38-.91,3.47-1.32.76-.28,1.77-.75,2.6-.64,2.62.88,5.19,2.18,7.81,3.05,2.95-.47,5.84-1.6,8.67-2.51,1.07-.29,2.36-.98,3.47-.55,1.98.55,4.1,1.06,6.07,1.65,4.06,1.17,8.07,2.74,12.14,3.87,6.06,0,12.16,0,18.22,0"/><path class="b" d="M8.83,203.97c.78-.19,1.83-.43,2.6-.65,1.58-1,3.43-1.86,5.2-2.46,5.85-2.06,12.42-1.82,18.22.3,1.47.52,2.95,1.46,4.34,2.16,1.12.42,2.42,1.01,3.47,1.6,1.64.41,3.53.21,5.2.14,2.33-2.4,5.49-3.96,8.67-4.89,1.36-.35,2.93-.97,4.34-.54,5.44,1.09,11.01,1.59,16.48,2.5,2,.1,4.09-.49,6.07-.73,3.16-.52,6.39-1.13,9.54-1.73,1.98-.4,4.11.54,6.07.86,4.91,1.05,9.69,3.17,14.75,3.4,3.63.1,7.11-1.34,10.41-2.67,1.08-.44,2.38-.94,3.47-1.34.39-.23,1.29-.35,1.73-.22,2.9,1.03,5.91,2.01,8.67,3.38,3.22-.8,6.27-2.45,9.54-3.09,1.39-.3,2.94-.67,4.34-.18,7.25,1.58,14.33,4.07,21.68,5.14,3.13.41,6.39.1,9.54.19"/><path class="b" d="M8.83,200.81c2.57-.34,5.24-.59,7.81-.96,1.35-.61,2.9-1.13,4.34-1.49,4.82-1.26,10.05-.78,14.75.79,1.47.52,3.04,1.28,4.34,2.14.46.3,1.32.99,1.74,1.35.77.22,1.82.17,2.6.17,1.68-.09,3.56.23,5.2-.22,3.85-3.47,10.49-5.4,15.61-5.4,5.48.62,11.04.84,16.48,1.8.77.13,1.82.35,2.6.38.77-.11,1.83-.27,2.6-.39,2.29-.36,4.67-.79,6.94-1.23.77-.15,1.83-.35,2.6-.51,1.72.03,3.53.64,5.2,1.01,4.65,1.09,9.1,3.26,13.88,3.73,5.89.4,10.95-3.41,16.48-4.78,2.93.81,5.89,1.8,8.67,3.03.43.24,1.25.49,1.73.47,1.08-.42,2.37-.91,3.47-1.29,1.35-.5,2.92-.86,4.34-1.11,1.98-.31,4.06-1.04,6.07-1.03,1.09.22,2.38.5,3.47.73,7.7,1.75,15.5,3.45,23.42,3.7"/><path class="b" d="M8.83,197.73c3.74-.16,7.54-.26,11.28-.31,2.23-.69,4.59-1.4,6.94-1.46,3.2-.1,6.49.28,9.54,1.26,1.46.47,3.03,1.16,4.34,1.95.45.27,1.32.89,1.73,1.22.76.14,1.83.11,2.6.11,1.98-.04,4.1.11,6.07-.09,5.62-4.35,13.1-4.88,19.95-5.24,1.99-.04,4.09-.43,6.07-.25,4.07.26,8.12,1.17,12.14,1.73,3.47-.4,6.95-1.33,10.41-1.72,2.92.58,5.87,1.43,8.67,2.41,7.27,2.67,10.72,4.27,18.21.8,3.08-1.23,6.23-2.78,9.54-3.23,2.61.67,5.26,1.57,7.81,2.44.77.26,1.83.62,2.6.87,1.41-.28,2.94-.81,4.34-1.16,3.43-.77,6.92-1.75,10.41-2.14,7.17,1.37,14.39,2.77,21.68,3.26"/><path class="b" d="M8.83,194.74c4.62.08,9.28.32,13.88.72,6.85-2.25,14.76-1.18,20.82,2.72,2.28-.03,4.66.07,6.94-.06,2.19-.95,4.6-1.61,6.94-2.04,1.94-.67,4.04-1.21,6.07-1.53,4.57-.76,9.28-.68,13.88-1.2,2.28-.23,4.66-.51,6.94-.8,1.41-.03,2.95.35,4.34.57,1.4.26,2.95.59,4.34.92,3.19-.02,6.39-.98,9.54-1.46,3.24.66,6.47,1.7,9.54,2.93,2.26.88,4.58,1.94,6.94,2.55,1.67.28,3.52.08,5.2.14,1.12-.2,2.41-.65,3.47-1.06,4.48-1.84,9.07-3.77,13.88-4.53,2.56.61,5.21,1.27,7.81,1.76,1.39.26,2.95.57,4.34.86,1.13-.05,2.39-.58,3.47-.85,2.84-.69,5.79-1.29,8.67-1.77,5.77.76,11.53,1.94,17.35,2.41"/><path class="b" d="M8.83,191.85c3.46.19,6.98.55,10.41,1.05,1.4.2,2.95.46,4.34.72.84.33,1.79-.12,2.6-.33,4.26-1.01,8.84-.64,13.01.59,1.13.34,2.42.86,3.47,1.38.72.51,1.74.66,2.6.6.45,0,1.29,0,1.73,0,1.36-.61,2.91-1.19,4.34-1.6,3.09-.9,6.35-1.42,9.54-1.72,4.88-.47,9.84-.44,14.75-.49,4.05-.4,8.12-1.01,12.14-1.61,3.2-.77,6.38.84,9.54,1.17,2-.24,4.1-.59,6.07-.99.78-.15,1.81-.47,2.6-.24,1.41.33,2.97.78,4.34,1.25,3.25,1.09,6.39,2.67,9.54,4.02,1.64.44,3.52.13,5.2.22,1.69-.04,3.52.09,5.2-.08,1.69-.65,3.5-1.43,5.2-2.05,4.21-1.46,8.59-2.68,13.01-3.32,1.08-.24,2.39-.14,3.47.03,1.69.21,3.53.43,5.2.72,1.68.23,3.53,1.01,5.2.37,2.55-.49,5.21-1.21,7.81-1.27,4.3.7,8.67,1.36,13.01,1.82"/><path class="b" d="M8.83,189.14c5.57.41,11.16,1.46,16.48,3.17,5.93-1.86,12.57-1.39,18.22,1.2,6.46-3.09,13.75-3.86,20.82-4.25,6.93-.42,13.89-.28,20.82-.09,2.87-.34,5.79-1.22,8.67-1.31,1.7.31,3.53.71,5.2,1.12,1.07.4,2.38.13,3.47-.02,2-.21,4.06-.94,6.07-.99,2.97.74,5.92,1.86,8.67,3.18,1.71.68,3.39,2.09,5.2,2.39,4.32,0,8.69,0,13.01,0,2.08.05,4.08-1.18,6.07-1.68,4.48-1.49,9.22-2.15,13.88-2.86,2.57-.35,5.22-.85,7.81-1.09,1.08.16,2.39.36,3.47.52,1.7.15,3.5-.54,5.2-.54,3.73.58,7.53,1.13,11.28,1.55"/><path class="b" d="M8.83,186.59c5.64.61,11.3,1.92,16.48,4.25.5.18,1.28.08,1.73-.18,1.06-.35,2.36-.64,3.47-.79,3.45-.46,7.06-.16,10.41.79,8.22-3.44,17.2-4.2,26.02-4.47,4.32-.18,8.69-.34,13.01-.12,1.99.08,4.09.21,6.07.36,1.09.06,2.39.38,3.47.11,1.39-.23,2.95-.5,4.34-.74.78-.13,1.81-.39,2.6-.2,2.3.35,4.68.88,6.94,1.43,1.4-.18,2.96-.49,4.34-.8,1.09-.21,2.37-.54,3.47-.7,2.67.71,5.34,1.76,7.81,3.01,1.11.56,2.41,1.29,3.47,1.95.66.57,1.75.82,2.6.72,4.9,0,9.85,0,14.75,0,1.69,0,3.52,0,5.2,0,1.11.04,2.42,0,3.47-.41,7.65-2.34,15.45-4.4,23.42-5.25,1.08.29,2.39.03,3.47.12,2.57.38,5.24.77,7.81,1.15"/><path class="b" d="M8.83,184.18c3.52.48,7.06,1.33,10.41,2.54,1.12.4,2.4.95,3.47,1.47.75.43,1.73.84,2.6.72,1.09-.01,2.38.03,3.47-.05,1.37-.37,2.92-.61,4.34-.69,1.4-.07,2.95-.02,4.34.15.85-.04,1.83-.6,2.6-.91,7.7-3.04,16.1-3.64,24.29-3.97,3.45-.18,6.96-.18,10.41-.13,4.33-.19,8.7.05,13.01.53,1.09.1,2.38.44,3.47.27,2.27-.22,4.66-1.1,6.94-.74,2.59.41,5.25.92,7.81,1.51,2.33-.13,4.69-.88,6.94-1.47,1.1-.52,2.41.24,3.47.56,3.05,1.14,6.03,2.7,8.67,4.61.71.41,1.81.33,2.6.33,1.08,0,2.39,0,3.47,0,4.34.13,8.7-.27,13.01-.72,3.21-.45,6.37-1.53,9.54-2.2,4.87-1.01,9.81-1.9,14.75-2.53,1.39-.3,2.95-.02,4.34.16,1.68.21,3.52.43,5.2.62,1.7-.24,3.51-.69,5.2-.96"/><path class="b" d="M8.83,181.94c4.51.82,9.05,2.18,13.01,4.51,2.84.33,5.81.05,8.67.14,1.09,0,2.38.02,3.47-.03,1.06-.61,2.34-1.24,3.47-1.69,6.32-2.54,13.19-3.43,19.95-3.87,8.95.18,17.96.89,26.89-.1,2.29.2,4.68.42,6.94.81,1.7-.12,3.51-.48,5.2-.69,1.39-.28,2.95.25,4.34.4,2.58.42,5.24.96,7.81,1.47,2.02-.32,4.11-.86,6.07-1.43.42-.13,1.31-.39,1.74-.52,1.15.05,2.42.6,3.47,1.04,2.42,1.04,4.84,2.41,6.94,4.01,2.26.33,4.67.05,6.94-.14,4.33-.51,8.71-1.06,13.01-1.78,5.71-1.28,11.54-2.16,17.35-2.89,1.69-.35,3.52,0,5.2.18,1.98.22,4.09.44,6.07.63,1.38.13,2.95.27,4.34.38,1.09.06,2.43.31,3.47-.12"/><path class="b" d="M8.83,179.93c2.65.59,5.34,1.45,7.81,2.58,1.42.51,2.76,1.91,4.34,1.76,2.28,0,4.66,0,6.94,0,1.44-.02,3.12.22,4.34-.72,5.61-2.92,11.98-4.1,18.22-4.79,2.86-.23,5.81.37,8.67.37,7.79.2,15.65.56,23.42-.21,1.09-.09,2.38-.27,3.47-.33,1.69.17,3.52.37,5.2.63,2.58-.19,5.23-.99,7.81-.33,3.17.47,6.39,1.04,9.54,1.63,1.45.41,2.9.34,4.34-.1,1.71-.41,3.53-.96,5.2-1.49,1.08-.57,2.42,0,3.47.38,1.79.67,3.6,1.68,5.2,2.72,1.46,1.39,3.38.93,5.2.84,2.59-.21,5.25-.6,7.81-1.01,6.64-1.09,13.26-2.45,19.95-3.17,7.79.59,15.59,1.73,23.42,1.79"/><path class="b" d="M8.83,178.21c13.45,4.39,2.21,3.75,19.08,3.74,5.47-3.37,11.92-4.74,18.21-5.57,3.16.09,6.37.64,9.54.7,7.5.22,15.05.19,22.55-.14,2.58-.11,5.23-.48,7.81-.63,1.39.14,2.95.31,4.34.49,1.1-.04,2.38-.3,3.47-.43,1.99-.37,4.09.28,6.07.51,3.16.5,6.39,1.07,9.54,1.59,1.08.16,2.37.46,3.47.44,2.93-.57,5.84-1.57,8.67-2.5.82-.16,1.84.29,2.6.56,1.81.64,3.62,1.66,5.2,2.73,1.26.76,2.95.12,4.34.08,6.99-.78,13.84-2.61,20.82-3.43,2.58.01,5.22.71,7.81.88,6.9.77,13.87,1.42,20.82,1.19"/><path class="b" d="M8.83,176.85c1.77.65,3.62,1.53,5.2,2.56,1.06.38,2.37.19,3.47.23,1.99,0,4.09,0,6.07,0,.89.14,1.89-.38,2.6-.87.76-.43,1.8-.95,2.6-1.3,2.76-1.19,5.74-2.04,8.67-2.66,1.38-.29,2.94-.56,4.34-.77,2.29.17,4.65.59,6.94.76,4.31.39,8.69.43,13.01.29,5.19-.21,10.43-.31,15.61-.55,3.75-.15,7.54-.82,11.28-.17,1.39.23,2.95-.27,4.34-.4,2-.02,4.1.46,6.07.74,4.89.81,9.82,1.73,14.75,2.34,1.42.29,2.98-.32,4.34-.66,2.3-.67,4.67-1.51,6.94-2.28,1.16-.16,2.41.56,3.47.94,1.47.54,2.9,1.59,4.34,2.19,4.35-.52,8.7-1.41,13.01-2.17,2.28-.31,4.64-1.08,6.94-1.03,3.48.36,6.94,1.3,10.41,1.73,6.6.89,13.3,1.42,19.95.71"/><path class="b" d="M8.83,175.75c1.12.45,2.32,1.21,3.47,1.57,1.09,0,2.38,0,3.47,0,1.94-.12,4.22.3,6.07-.26,4.66-3.02,10.2-4.4,15.61-5.33,5.74.79,11.54,1.63,17.35,1.44,4.33-.07,8.69-.49,13.01-.76,4.03-.25,8.12-.33,12.14-.56,2.58-.27,5.24.07,7.81.28,1.4,0,2.93-.6,4.34-.4,5.51.75,11.01,1.85,16.48,2.83,2.85.41,5.79,1,8.67.97,2.64-.5,5.28-1.39,7.81-2.28,1.39-.49,2.94-1.04,4.34-1.5,2.45.27,4.76,1.7,6.94,2.78,3.75-.63,7.53-1.43,11.28-2.07,1.69-.2,3.5-.8,5.2-.66,2.28.4,4.68.69,6.94,1.2.77.2,1.8.53,2.6.49.77-.11,1.83-.22,2.6-.27,3.81-.22,7.79.31,11.28,1.92.75.33,1.82.17,2.6.09,1.4-.14,2.95-.37,4.34-.59"/><path class="b" d="M8.83,174.53c.98.7,2.34.42,3.47.47,1.69,0,3.51,0,5.2,0,1.2-.33,2.34-1.3,3.47-1.8,1.63-.81,3.47-1.53,5.2-2.08,1.67-.53,3.49-1,5.2-1.36,1.44-.45,2.9-.32,4.34.02,5.14.91,10.39,1.58,15.61,1.45,5.8-.09,11.57-1.06,17.35-1.49,2.57-.19,5.23-.3,7.81-.4,2.87.09,5.81.33,8.67.49,1.41.17,2.95-.33,4.34-.51,1.99.33,4.09.72,6.07,1.1,20.84,3.93,18.03,6.5,39.03-1.07,1.77.38,3.56,1.2,5.2,1.93.42.24,1.27.57,1.73.66.43-.09,1.3-.26,1.73-.35,4.02-.79,8.11-1.53,12.14-2.2,2.89.59,5.89,1.15,8.67,2.12,4.56-1.11,9.55-1.19,13.88.82,2.56,1.45,2.38,1.28,5.2.55"/><path class="b" d="M8.83,172.68c1.69,0,3.51,0,5.2,0,1.41-.72,2.87-1.7,4.34-2.32,2.48-1.12,5.17-1.99,7.81-2.64.78-.19,1.82-.43,2.6-.58.81-.08,1.82.19,2.6.34,7.11,1.46,14.43,2.45,21.68,1.61,5.49-.56,10.97-1.65,16.48-2.06,3.73-.08,7.54.51,11.28.61,1.09.04,2.38.19,3.47.08,1.09-.22,2.38-.49,3.47-.68,1.99.38,4.1.84,6.07,1.31,3.16.42,6.4.81,9.54,1.36,8.65,1.45,16.42,4.2,25.15,1.24,4.05-1.2,8.07-2.72,12.14-3.84,2.36.3,4.68,1.4,6.94,2.12,1.03.57,2.39.33,3.47.04,1.7-.38,3.53-.86,5.2-1.32,1.08-.28,2.37-.68,3.47-.88,1.09.28,2.4.65,3.47,1.02,1.4.36,2.87,1.33,4.34,1.32.74-.24,1.83-.51,2.6-.65,4.21-.81,8.72.13,12.14,2.74l.87-.31"/><path class="b" d="M8.83,170.36c.88.08,1.93-.1,2.6-.7.77-.45,1.8-1.01,2.6-1.39,2.75-1.29,5.73-2.26,8.67-3,.78-.19,1.8-.45,2.6-.51.46.09,1.29.27,1.73.36,1.69.36,3.51.74,5.2,1.07,5.12,1.03,10.39,1.68,15.61,1.26,6.12-.46,12.13-1.99,18.22-2.73,1.39-.24,2.95.18,4.34.26,2.57.26,5.23.49,7.81.65,1.4.07,2.98.28,4.34-.15,1.39-.2,2.94-.95,4.34-.61,1.4.29,2.93.77,4.34,1.01,5.49.36,11.04.66,16.48,1.52,4.92.72,9.8,1.97,14.75,2.5,2.86.29,5.85.17,8.67-.34,3.81-.75,7.53-2.09,11.28-3.08,2.54-.66,5.19-1.43,7.81-1.71,2.1.44,4.26,1.23,6.07,2.39,1.47-.07,2.94-.98,4.34-1.41,1.08-.33,2.31-1.08,3.47-.91,2.07.63,4.04,2.08,6.07,2.6,4.2-1.77,9.46-1.5,13.01,1.54"/><path class="b" d="M8.83,166.57c2.47-1.25,5.16-2.23,7.81-3.01,1.66-.36,3.49-1.26,5.2-.99,8.24,1.82,16.65,4.14,25.15,2.94,5.82-.75,11.54-2.3,17.35-3.15,3.45.4,6.95.99,10.41,1.3,1.09.1,2.38.21,3.47.26,1.98-.47,4.08-.97,6.07-1.43,1.74.06,3.54.8,5.2,1.27,3.73-.1,7.54-.07,11.28-.04,7.31.09,14.55,1.35,21.68,2.83,4.33.13,8.76.18,13.01,1.17,4.7-.46,9.25-2.06,13.88-2.91,1.41-.28,2.98-.73,4.34-1.2,1.08-.32,2.32-1.04,3.47-1.06,1.16.5,2.47,1.26,3.47,2.04.87.24,1.83-.43,2.6-.74,1.09-.46,2.39-1,3.47-1.48,1.8.78,3.59,1.92,5.2,3.02,1.16.14,2.33-.73,3.47-.87,2.65-.57,5.58-.06,7.81,1.51"/><path class="b" d="M8.83,162.51c2.8-.94,5.73-1.99,8.67-2.35,1.7.37,3.52.8,5.2,1.2,12.19,3.08,18.03,3.81,30.36.64,2.86-.64,5.8-1.28,8.67-1.81,1.1-.2,2.38.22,3.47.36,1.39.24,2.94.52,4.34.75,1.97.21,4.1.93,6.07.59,1.69-.38,3.52-.81,5.2-1.22.77-.19,1.81-.48,2.6-.53.43.11,1.31.35,1.73.47,1.4.29,2.89,1.34,4.34.97,7.2-.59,14.47-1.32,21.68-.52,3.48.31,6.98.94,10.41,1.58,4.62-.11,9.31.2,13.88.9,2.9.45,5.87,1.09,8.67,1.97,2.9-.18,5.91-.71,8.67-1.63,2.67-.99,5.22-2.5,7.81-3.69,1.28.27,2.47,1.33,3.47,2.12,1.79-.39,3.37-1.98,5.2-2.05,1.85.85,3.4,2.5,5.2,3.37,2.57-1.62,6.04-1.79,8.67-.24"/><path class="b" d="M8.83,158.92c1.39-.39,2.93-.77,4.34-1.08,1.72.15,3.52.74,5.2,1.1,4.02.97,8.07,2.09,12.14,2.8,3.99.72,8.15.8,12.14.09,4.37-.77,8.68-2.07,13.01-3,1.69-.33,3.48-.9,5.2-.99,1.09.21,2.38.48,3.47.71,2.28.48,4.65,1.03,6.94,1.47,3.5-.43,6.98-1.42,10.41-2.22,1.75.35,3.57,1.02,5.2,1.72,1.08.45,2.36-.24,3.47-.29,2.28-.35,4.65-.8,6.94-1.09,2.85-.53,5.8-.13,8.67-.14,1.69,0,3.52-.08,5.2-.2,1.69.08,3.52.3,5.2.52,2,.24,4.08.68,6.07.97,1.69.02,3.52.1,5.2.22,4.94.34,9.91,1.04,14.75,2.12,1.4.32,2.96.72,4.34,1.12,1.34.51,2.9.78,4.34.67,2.51.31,4.83-1.03,6.94-2.23,1.1-.65,2.41-1.47,3.47-2.19.68-.47,1.71-1.21,2.6-1,.81.52,1.87,1.31,2.6,1.94,1.13-.51,2.38-1.32,3.47-1.92h.87c1.16.7,2.45,1.67,3.47,2.55.37.4,1.21,1.02,1.73,1.17,1.95-1.46,4.72-1.79,6.94-.74"/><path class="b" d="M8.83,155.64c1.1-.38,2.38.23,3.47.41,1.4.33,2.95.71,4.34,1.06,6.53,1.59,13.15,3.8,19.95,3.35,5.63-.39,11.01-2.44,16.48-3.67,1.08-.27,2.38-.57,3.47-.82,1.08-.24,2.38-.65,3.47-.25,2.89.57,5.77,1.62,8.67,2.09,1.39-.22,2.95-.49,4.34-.74,1.39-.26,2.95-.59,4.34-.91,1.09-.19,2.35-.75,3.47-.56,1.11.31,2.41.75,3.47,1.19.76.32,1.76.91,2.6,1.01,1.65-.61,3.5-1.01,5.2-1.44,1.38-.3,2.91-.8,4.34-.84,2.84.53,5.78.95,8.67,1.02,2.87.08,5.82-.14,8.67-.48,2.29-.26,4.66-.86,6.94-.23,2.55.55,5.21.85,7.81,1.07,3.17.36,6.4.82,9.54,1.37,3.8.67,7.61,1.6,11.28,2.8,2.28.04,4.66,0,6.94.02,1.22-.19,2.42-1.12,3.47-1.71,2.05-1.21,4.02-2.81,6.07-3.99.81.5,1.86,1.26,2.6,1.85,1.28-.03,2.34-1.26,3.47-1.75,1.87,1.16,3.65,2.75,5.2,4.3.52,0,1.35-.38,1.73-.71,1.29-.68,2.96-.8,4.34-.3"/><path class="b" d="M8.83,153.77c10.22,2.16,20.68,6.85,31.23,3.95,5.47-1.51,10.91-3.3,16.48-4.47.8-.17,1.83.17,2.6.37,1.4.36,2.96.81,4.34,1.24.43.13,1.31.41,1.73.55,1.4.09,2.95-.3,4.34-.47,1.99-.31,4.1-.68,6.07-1.1,1.09-.19,2.36-.66,3.47-.6,1.43.38,3,.94,4.34,1.58.76.35,1.72,1.09,2.6,1.07,2.46-1.19,5.18-2.01,7.81-2.74,2.83.75,5.76,1.52,8.67,1.82,1.67-.41,3.49-.8,5.2-.98,2.27-.26,4.66-.35,6.94-.33,1.7.01,3.53.22,5.2-.21,1.71-.52,3.51-.01,5.2.33,3.19.59,6.37,1.55,9.54,2.18,2.59.51,5.25,1.09,7.81,1.75,1.4.3,2.9.96,4.34,1.06,3.45,0,6.96,0,10.41,0,1.62.23,3.03-.98,4.34-1.76,2.03-1.22,4.04-2.75,6.07-3.97.79.51,1.85,1.23,2.6,1.8.84-.39,1.83-1.17,2.6-1.67,2.34,1.2,3.91,3.64,6.07,4.98,1.08-1.14,2.78-1.81,4.34-1.43"/><path class="b" d="M8.83,152.3c5.77,1.36,11.47,3.24,17.35,4.08,2.56.19,5.24.03,7.81.08,4.47-.49,8.73-2.2,13.01-3.48,2.83-.8,5.75-1.86,8.67-2.14,1.4.35,2.96.8,4.34,1.25,1.09.29,2.32.99,3.47.93,4.34-.52,8.74-1.15,13.01-2.1.81-.11,1.85.25,2.6.5,1.8.59,3.66,1.49,5.2,2.61,1.25.04,2.37-1.06,3.47-1.52,1.37-.58,2.92-1.19,4.34-1.66,9.49,3.37,4.93,1.35,13.88.47,2.86-.26,5.81-.22,8.67-.03,2,.1,4.11.63,6.07.04.77-.14,1.83-.34,2.6-.48,1.09.18,2.38.44,3.47.66,2.59.53,5.25,1.14,7.81,1.8,3.75.96,7.53,2.09,11.28,3.08,4.02.21,8.12.02,12.14.08,1.6.21,3.03-.95,4.34-1.69,2.01-1.2,4.13-2.48,6.07-3.79l.87-.04c.44.26,1.31.81,1.73,1.09h.87c.39-.35,1.25-.91,1.74-1.12,2.26,1.5,4.05,3.78,6.07,5.54.95-.79,2.16-1.71,3.47-1.58"/><path class="b" d="M8.83,150.84c4.31,1.08,8.63,2.36,13.01,3.15,3.42.36,6.97.05,10.41.15,5.98-.73,11.58-3.12,17.35-4.71,1.38-.31,2.9-1.03,4.34-.93,2.02.53,4.12,1.21,6.07,1.96,1.08.26,2.38-.09,3.47-.17,3.76-.45,7.57-.99,11.28-1.75,3.14.35,6.24,1.88,8.67,3.86,1.16-.58,2.37-1.54,3.47-2.22,1.06-.54,2.36-1.13,3.47-1.57,1.78.31,3.5,1.35,5.2,1.92,1.14-.06,2.36-.74,3.47-.97,2.23-.58,4.64-.84,6.94-.9,3.76-.08,7.58.31,11.28.96,2,.08,4.08-.73,6.07-.96,1.7-.24,3.52.48,5.2.7,3.17.62,6.4,1.33,9.54,2.11,3.45.86,6.94,1.83,10.41,2.62,3.44.14,6.96.02,10.41.06,1.83-.39,3.55-1.57,5.2-2.4,2.04-.97,4.01-2.4,6.07-3.31.76.38,1.7,1.12,2.6,1.04l.87-.68.87.07c1.88,1.43,3.61,3.33,5.2,5.07.43.15,1.29.25,1.73.21.39-.34,1.23-.82,1.74-.92"/><path class="b" d="M8.83,149.4c3.71.84,7.45,2.27,11.28,2.41,3.44-.06,6.97.13,10.41-.09,1.96-.48,4.13-.55,6.07-1.11,4.62-1.38,9.21-3.01,13.88-4.24,1.09-.48,2.4.07,3.47.35,1.1.32,2.41.73,3.47,1.16.42.23,1.27.33,1.74.19,1.09-.13,2.38-.28,3.47-.41,3.17-.38,6.4-.83,9.54-1.41.79-.24,1.84.1,2.6.3,1.12.31,2.42.78,3.47,1.29,1.53.62,2.82,2.03,4.34,2.62,2.06-1.6,4.25-3.81,6.94-4.15,1.4.58,2.84,1.58,4.34,1.88,6.23-2.82,13.4-2.21,19.95-.96.78.15,1.81.42,2.6.48.44-.1,1.3-.29,1.73-.38,1.68-.36,3.51-.7,5.2-.98,1.68-.33,3.52.39,5.2.56,2.87.49,5.82,1.04,8.67,1.64,3.75.78,7.53,1.74,11.28,2.51,1.39.09,2.94-.31,4.34-.07,1.41.11,2.91.85,4.34.7,2.43-.14,4.76-1.23,6.94-2.23,2.34-.97,4.63-2.3,6.94-3.34.45.13,1.32.49,1.73.73.49.01,1.33-.28,1.73-.55,1.9,1.4,3.62,3.29,5.2,5.03.94.77,2.35.42,3.47.49"/><path class="b" d="M8.83,148c1.98.52,4.07,1.06,6.07,1.48,1.99.05,4.09.01,6.07.02,3.18.08,6.41-.03,9.54-.64,2-.34,4.16-.39,6.07-1.12,2.87-.88,5.8-1.86,8.67-2.71,1.08-.32,2.38-.69,3.47-.99.45-.2,1.28-.2,1.73.01,1.1.29,2.39.68,3.47,1.04,1.06.44,2.31.84,3.47.54,4.33-.53,8.72-1.06,13.01-1.83,3.82.57,7.67,2.14,10.41,4.93.91-.44,1.83-1.46,2.6-2.09,1.24-1.11,2.79-2.15,4.34-2.78,1.1.57,2.39,1.28,3.47,1.89.85.05,1.82-.51,2.6-.77,1.07-.36,2.36-.68,3.47-.85,5.51-.84,11.17.06,16.48,1.57,1.42.06,2.94-.57,4.34-.77,1.97-.4,4.08-.74,6.07-1.03,1.7.17,3.52.49,5.2.73,3.46.51,6.98,1.07,10.41,1.73,1.99.31,4.06.95,6.07,1.07,2.56-.35,5.26-.8,7.81-.18,1.74.24,3.42,1.58,5.2,1.24,2.97-.5,5.87-1.73,8.67-2.79,1.91-.64,4.05-2.53,6.07-1.33l.87-.46c2.31,1.47,3.95,3.93,6.07,5.6h2.6"/><path class="b" d="M8.83,145.88c4.31.3,8.68.74,13.01.63,4.33-.16,8.73-.51,13.01-1.12,4.31-1.25,8.61-2.92,13.01-3.81,1.41.37,2.97.83,4.34,1.32.75.3,1.79.69,2.6.43,4.32-.58,8.71-1.11,13.01-1.85,4.12.58,8.34,2.12,11.28,5.16l.87-.05c1.76-1.87,3.74-3.84,6.07-4.97,1.22.29,2.4,1.24,3.47,1.85,7.16-3.21,15.35-2.24,22.55.4,4.25-1.05,8.64-2.01,13.01-2.26,4.03.51,8.12.98,12.14,1.57,2.58.32,5.21,1.12,7.81.62,3.77-.38,7.74-.68,11.28.97,2.13,1.33,4.69.31,6.94-.17,3.53-.73,6.88-2.33,10.41-3.07.94-.08,1.88.76,2.6,1.25,1.78,1.01,2.83,3.11,4.34,4.41h2.6"/><path class="b" d="M8.83,142.32c4.32.22,8.68.72,13.01.77,4.04.09,8.12-.31,12.14-.46,1.45-.02,2.94-.8,4.34-1.16,2.57-.74,5.18-1.71,7.81-2.2,2.03.43,4.04,1.47,6.07,1.8,4.32-.64,8.69-1.28,13.01-1.9,4.4.71,9.03,2.15,12.14,5.51l.87.06c1.73-2.01,3.74-4.09,6.07-5.39,1.28.06,2.41,1.22,3.47,1.84,5.87-3.11,12.97-2.44,19.08-.44,4.12,1.57,2.81,1.18,6.94.22,3.69-.83,7.52-1.27,11.28-1.67,1.69-.11,3.52.28,5.2.39,3.45.3,6.96.83,10.41,1.14,3.15-.29,6.38-.42,9.54-.4,2.39.09,4.81.83,6.94,1.88,1.38.24,2.96,0,4.34-.2,4.1-.49,8.12-1.69,12.14-2.58,2.91-1.37,6.08,3.5,7.81,5.31h1.74"/><path class="b" d="M8.83,138.9c4.62.12,9.26.67,13.88.8,4.03.12,8.11-.23,12.14-.19,2.06.02,4.08-1.11,6.07-1.56,1.38-.28,2.91-1.18,4.34-.87,1.72.37,3.45,1.37,5.2,1.52,2.57-.4,5.24-.78,7.81-1.17,1.39-.14,2.94-.66,4.34-.47,3.29.53,6.64,1.44,9.54,3.11,1.19.63,2.31,1.81,3.47,2.47l.87-.02c1.73-2.04,3.78-4.09,6.07-5.49,1.29.05,2.28,1.36,3.47,1.72,5.05-2.66,11.13-2.47,16.48-.87,1.11.33,2.4.8,3.47,1.26,1.22.58,2.12,1.17,3.47.52,5.89-1.79,12.12-2.11,18.22-2.7,3.75.06,7.54.64,11.28.89,4.02-.23,8.13-.3,12.14.02,2.42.18,4.52,1.71,6.94,1.58,2.58-.03,5.24-.28,7.81-.52,1.98-.35,4.07-.75,6.07-.94.86,0,1.79-.7,2.6-.91.41,0,1.32-.06,1.73-.12,2.45,1.23,4.49,3.37,6.07,5.58h.87"/><path class="b" d="M8.83,135.78c4.91,0,9.84.46,14.75.57,4.03.04,8.11-.17,12.14-.03,2.69.26,5.23-1.12,7.81-1.69,1.13.1,2.4.59,3.47.94,1.32.68,2.94.19,4.34.04,1.99-.28,4.09-.57,6.07-.88,1.99-.32,4.12.47,6.07.84,3.47.83,6.79,2.39,9.54,4.66,1.52.29,2.48-1.33,3.47-2.19,1.32-1.19,2.81-2.53,4.34-3.45.88.3,1.86,1.08,2.6,1.62l.87.09c6.88-3.49,15.29-1.92,21.68,1.94,6.7-2.27,13.81-2.66,20.82-3.19,1.69-.14,3.52-.31,5.2-.48,1.69.08,3.52.24,5.2.38,2.86.13,5.81-.02,8.67.21,1.69.12,3.53.15,5.2.41.78.14,1.85.41,2.6.66.76.19,1.83.15,2.6.25,2.86.18,5.81.08,8.67.06,2.27-.25,4.65-.43,6.94-.45.43-.32,1.3-.96,1.74-1.28.44.08,1.31.32,1.73.47.42-.18,1.29-.49,1.73-.62,2.34,1.19,4.33,3.17,6.07,5.09"/><path class="b" d="M8.83,132.86c4.61-.08,9.27.11,13.88.16,2.57.03,5.23-.17,7.81-.05,2.57.06,5.23.08,7.81.1,1.77.21,3.54-.4,5.2-.9,1.1.24,2.34.8,3.47.85,2.29-.15,4.66-.47,6.94-.74,3.81.52,7.7,1.26,11.28,2.71,1.14.47,2.45,1.15,3.47,1.84.67.56,1.68,1.24,2.6,1.06,1.84-1.11,3.42-2.88,5.2-4.1.74-.52,1.66-1.39,2.6-1.49.79.53,1.85,1.29,2.6,1.87,7.28-3.82,16-2.28,22.55,2.33,6.27-2.67,13.26-2.68,19.95-3.19,5.86-.35,11.46-1.64,17.35-.8,2.87.19,5.8.6,8.67.8,3.46.03,6.95.42,10.41.56,3.15.4,6.4-.14,9.54.32,1.3-.11,2.19-1.57,3.47-1.82.42.3,1.28.84,1.73,1.08.78-.32,1.81-.86,2.6-1.15,1.86.98,3.61,2.44,5.2,3.79"/><path class="b" d="M8.83,130.07c9.25.16,18.51.03,27.76.14,5.5-.03,11.03-.41,16.48.55,4.84.76,9.83,1.94,13.88,4.83,3.39-1.44,6.3-3.98,9.54-5.7.81.47,1.86,1.22,2.6,1.78.87.2,1.82-.43,2.6-.71,1.06-.39,2.36-.77,3.47-.99,4.41-.81,9.04.09,13.01,2.1,1.5.66,2.86,1.93,4.34,2.6,3.52-1.61,7.45-2.22,11.28-2.56,2.27-.29,4.72-.06,6.94-.65,3.1-.8,6.34-1.38,9.54-1.58,2.57.22,5.23.13,7.81.11,1.98.34,4.09-.22,6.07,0,2.56.27,5.23.46,7.81.48,1.98.29,4.08.47,6.07.65,1.69.15,3.51.44,5.2.57,2.01,0,4.12.1,6.07.64,1.09-.75,2.33-1.7,3.47-2.37.81.44,1.86,1.16,2.6,1.7,1.12-.45,2.32-1.26,3.47-1.64,1.44.79,2.97,1.82,4.34,2.73"/><path class="b" d="M8.83,128.66c6.63.33,13.31.27,19.95.42,2.86.11,5.81.13,8.67.13,1.09,0,2.38-.01,3.47-.02,1.09-.31,2.37-.76,3.47-1.07.43-.13,1.3-.36,1.73-.45.43.11,1.31.35,1.73.47,1.7.47,3.5,1.13,5.2,1.6,2.34.34,4.67,1.2,6.94,1.8,2.95.37,5.97-.42,8.67-1.58,1.11-.46,2.41-1.08,3.47-1.64.36-.28,1.27-.59,1.73-.58,1.19.41,2.18,1.72,3.47,1.79,7.28-3.67,16.6-2.42,22.55,3.18l.87.14c2.7-1.27,5.73-1.92,8.67-2.26,1.68-.28,3.6-.06,5.2-.68,3.36-1.09,6.91-1.82,10.41-2.27,3.15.01,6.38.47,9.54.15,2-.3,4.1.2,6.07.53,2.58-.1,5.24-.45,7.81-.75,4.34.36,8.71,1.04,13.01,1.72,2.02.18,4.16.24,6.07,1.01,1.5-.63,2.88-1.89,4.34-2.63,1.16.52,2.42,1.39,3.47,2.1,1.47-.48,2.83-1.64,4.34-2.02,1.09.56,2.38,1.25,3.47,1.82"/><path class="b" d="M8.83,127.34c9.23.61,18.5,1.16,27.76,1.39.77.01,1.83.02,2.6.03.78-.31,1.83-.78,2.6-1.09,1.94-.78,4.05-1.49,6.07-2.03,1.69-.72,3.51.1,5.2.42,2.82.64,5.77,1.17,8.67,1.05,2.33-.09,4.74-.6,6.94-1.36,1.79-.91,3.74.64,5.2,1.59.85.05,1.83-.5,2.6-.77,1.65-.58,3.48-1.08,5.2-1.33,7.22-.42,11.01,1.25,16.48,5.71,1.17.14,2.36-.72,3.47-1,1.94-.61,4.06-.97,6.07-1.17,1.46-.18,2.9-1.13,4.34-1.48,2.52-.78,5.2-1.34,7.81-1.78,1.39-.36,2.93-.17,4.34-.03,1.39.1,2.94.17,4.34.18,1.99.05,4.09-.24,6.07-.34,1.4.22,2.96.53,4.34.85,1.69.65,3.49.2,5.2-.1,1.96-.45,4.08-.58,6.07-.76,3.19.23,6.4.95,9.54,1.56,2.03.29,4.19.43,6.07,1.33,1.74-.83,3.36-2.26,5.2-2.86,1.44.7,2.97,1.65,4.34,2.48,1.78-.58,3.39-1.94,5.2-2.47.77.33,1.83.78,2.6,1.1"/><path class="b" d="M8.83,125.99c4.61.53,9.27,1.1,13.88,1.7,2.27.34,4.65.65,6.94.9,1.98.12,4.09.03,6.07.05.77,0,1.83,0,2.6,0,1.19-.31,2.34-1.27,3.47-1.74,2.47-1.19,5.15-2.16,7.81-2.84,1.96-.51,4.06-.96,6.07-1.18,1.38.16,2.94.29,4.34.3,1.39.08,2.95-.26,4.34-.08,1.41.25,2.98.64,4.34,1.1.79.3,1.74,1,2.6,1.06,2.74-1.13,5.71-2.06,8.67-2.33,2.89-.05,5.96.15,8.67,1.21,1.48.61,3.05,1.49,4.34,2.45.79.58,1.7,1.61,2.6,2.04.78,0,1.82,0,2.6,0,.77-.28,1.81-.64,2.6-.84,1.08-.31,2.43-.39,3.47-.82.75-.45,1.8-.98,2.6-1.31,2.2-.9,4.61-1.5,6.94-1.97,1.97-.38,4.06-.88,6.07-.48,3.73.37,7.56.43,11.28-.07,2.32-.37,4.71.71,6.94,1.23.43.13,1.31.39,1.73.53,1.11-.13,2.39-.51,3.47-.8,1.38-.3,2.95-.5,4.34-.75,1.08-.18,2.38-.44,3.47-.16,2.3.35,4.67.96,6.94,1.46,1.71.34,3.61.48,5.2,1.27.9.16,1.85-.59,2.6-.99,1.06-.6,2.36-1.29,3.47-1.81,2.17.32,4.08,1.92,6.07,2.79,2-.59,4.02-2.17,6.07-2.91.44.08,1.31.32,1.74.48"/><path class="b" d="M8.83,124.38c3.19.46,6.4,1.21,9.54,1.94,7.8,0,15.62,0,23.42,0,.89.02,1.83-.71,2.6-1.05,1.63-.77,3.47-1.43,5.2-1.9,5.59-1.39,11.87-2.19,17.35.03,3.33-1.29,6.86-2.27,10.41-2.72,4.57-.13,9.38.69,13.01,3.64.8.58,1.64,1.67,2.6,2,1.39,0,2.95,0,4.34,0,.76-.26,1.83-.51,2.6-.73,3.89-3.16,9.06-4.04,13.88-4.82,2.86.08,5.79.67,8.67.59,10.27-.23,5.49-1.93,16.48,1.86,1.66-.63,3.49-1.16,5.2-1.59,1.38-.3,2.91-.95,4.34-.83,3.77.71,7.57,1.67,11.28,2.6,1.13.74,2.43-.03,3.47-.56,1.08-.52,2.37-1.14,3.47-1.62.41-.25,1.26-.45,1.73-.35,10.85,4.73,4.57,3.23,14.75-.29"/><path class="b" d="M8.83,122.35c2.33.34,4.64,1.2,6.94,1.65,2.28,0,4.66,0,6.94,0,6.64,0,13.31,0,19.95,0,1.39,0,2.95,0,4.34,0,2.15-1.04,4.57-1.68,6.94-1.98,2.27-.41,4.66-.29,6.94-.39,4.26-1.26,8.6-2.46,13.01-3.07,4.44-.44,9.3.28,13.01,2.88,3.74,2.87,1.88,2.6,6.94,2.55.79,0,1.87.08,2.6-.28,1.2-1.18,2.8-2.2,4.34-2.88,3-1.32,6.32-1.93,9.54-2.41,1.99.05,4.08.54,6.07.65,2.86.25,5.83.21,8.67-.16,1.71-.17,3.53-.91,5.2-.19,1.41.4,2.97.95,4.34,1.48,1.08.37,2.31,1.07,3.47,1.13,2.49-1.15,5.16-2.22,7.81-2.95,3.71,1.09,7.57,1.9,11.28,3.01,1.16.17,2.4-.59,3.47-.95,1.68-.68,3.49-1.43,5.2-2.03,3.53.9,6.82,2.83,10.41,3.57,2.14-1.31,4.51-2.51,6.94-3.16"/><path class="b" d="M8.83,119.89c1.41.27,2.97.65,4.34,1.08.78.24,1.77.7,2.6.72,5.48,0,11,0,16.48,0,1.44.14,2.95-.28,4.34-.59,1.97-.4,4.08-.71,6.07-.99,4.3-.58,8.71-.6,13.01-1.22,10.26-1.28,23.09-6.36,31.23,2.7,1.97.24,4.09.06,6.07.11,4.18-3.63,8.48-4.9,13.88-5.6,2.29.08,4.65.68,6.94.84,3.15.34,6.41.3,9.54-.2,1.1-.17,2.39-.43,3.47-.67,2.71.29,5.29,1.69,7.81,2.68,2.15,1.03,2.35.88,4.34-.31,1.64-.78,3.35-2.12,5.2-2.22,1.96.78,4.03,1.61,6.07,2.13,1.08.27,2.34.81,3.47.77,2.03-.44,4.11-1.14,6.07-1.81,1.66-.45,3.49-1.62,5.2-.8,3.97,1.23,7.94,3.04,12.14,3.18,1.86-1.09,3.97-1.98,6.07-2.46"/><path class="b" d="M8.83,117.18c2.67.36,5.25,1.43,7.81,2.18,4.61,0,9.27,0,13.88,0,1.15.07,2.37-.64,3.47-.89,1.67-.48,3.5-.88,5.2-1.18,4.86-.93,9.83-1.22,14.75-1.6,4.33-.37,8.69-.95,13.01-1.39,6.15-.84,13.02.26,17.35,5.06h6.07c3.31-3.56,8.34-4.95,13.01-5.63,1.4-.1,2.94.36,4.34.51,2.85.41,5.79.82,8.67.82,3.22.05,6.42-.72,9.54-1.37,2.05.58,4.13,1.46,6.07,2.34,1.37.48,2.84,1.64,4.34,1.41,1.05-.82,2.34-1.75,3.47-2.46.74-.43,1.7-1.15,2.6-1.05,1.98.86,3.91,2.4,6.07,2.73,2.9-.49,5.85-1.13,8.67-1.96,1.09-.3,2.38-.66,3.47-.94,1.41.31,2.95.79,4.34,1.19,4.46,1.36,9.18,2.66,13.88,2.13,1.33-.6,2.9-1.09,4.34-1.36"/><path class="b" d="M8.83,114.43c2.02.31,4.14.8,6.07,1.47,1.12.31,2.29,1.17,3.47,1.15,3.45,0,6.96,0,10.41,0,.44,0,1.3,0,1.73,0,.81-.17,1.82-.66,2.6-.91,1.37-.46,2.93-.89,4.34-1.22,5.12-1.1,10.38-1.79,15.61-2.04,5.76-.26,11.58-1.22,17.35-.85,4.91.48,7.58,1.86,11.28,5.02,1.98-.1,4.13.23,6.07-.2,3.36-3.53,8.36-4.77,13.01-5.56,4.6.61,9.23,1.5,13.88,1.63,3.22.08,6.46-.59,9.54-1.46,1.48-.14,2.98.8,4.34,1.29,2.26.9,4.5,2.39,6.94,2.73,1.53-1.49,3.25-3.11,5.2-4.02,1.43.78,2.84,1.99,4.34,2.63,2.52-.77,5.23-1.11,7.81-1.67,1.69-.24,3.49-1.09,5.2-.88,9.66,2.49,14.93,4.14,25.15,2.37"/><path class="b" d="M8.83,111.71c2.32.29,4.72.8,6.94,1.54,1.12.35,2.35.99,3.47,1.33.78.19,1.82.14,2.6.14,3.16,0,6.39,0,9.54,0,1.47-.3,2.87-1.32,4.34-1.66,5.92-1.61,12.1-2.45,18.21-2.78,6.61-.16,13.67-1.46,19.95,1.19,1.55.69,3.14,1.76,4.34,2.96,1.02.48,2.37.24,3.47.29.77,0,1.83,0,2.6,0,.55-.13,1.37-.76,1.73-1.18.71-.6,1.78-1.31,2.6-1.75,1.87-1,4.01-1.7,6.07-2.16,1.37-.24,2.94-.78,4.34-.51,5.17.68,10.38,1.64,15.61,1.58,2.63-.03,5.3-.62,7.81-1.36,1.42-.64,3.01.41,4.34.88,2.54,1.07,5.05,2.62,7.81,3.08,1.38-1.28,2.76-2.9,4.34-3.97,1.36.02,2.43,1.43,3.47,2.17,3.65-1.13,7.47-2,11.28-2.35,3.47.62,6.95,1.56,10.41,2.24,6.28,1.31,12.79.82,19.08-.17"/><path class="b" d="M8.83,108.99c2.93.21,5.85.94,8.67,1.68,1.4.09,2.96.27,4.34.51,1.72.27,3.51.84,5.2,1.23,2.28-.05,4.67.12,6.94-.1,4.82-2.49,10.3-3.19,15.61-3.83,3.14-.35,6.38-.44,9.54-.49,3.17-.02,6.46.05,9.54.86,1.48.4,3.05,1.11,4.34,1.94.78.48,1.64,1.51,2.6,1.62,1.98-.02,4.09.04,6.07-.03,3.36-3.56,8.34-4.82,13.01-5.61,3.75.22,7.52,1.03,11.28,1.32,4.31.43,8.78.55,13.01-.54,1.09-.2,2.34-.88,3.47-.65,3.83,1.09,7.21,3.9,11.28,4.06,1.02-1.24,2.23-2.74,3.47-3.77l.87-.11c.45.37,1.32,1.16,1.73,1.57l.87.12c2.16-.95,4.59-1.7,6.94-1.96,4.63.76,9.26,1.77,13.88,2.56,7.2,1.19,14.54.24,21.68-.83"/><path class="b" d="M8.83,106.32c2.3.11,4.69.4,6.94.88,2.57.08,5.24.05,7.81.36,2.6.27,5.26.77,7.81,1.37,1.7.33,3.47,1.05,5.2,1.17.84-.05,1.83-.57,2.6-.84,1.37-.49,2.92-.94,4.34-1.27,4.53-1.04,9.24-1.38,13.88-1.37,3.19.04,6.51.28,9.54,1.33.81.29,1.87.79,2.6,1.25.37.34,1.23.82,1.73.89,2.91-.04,6.31.39,8.67-1.65,3.3-2.32,7.38-3.22,11.28-3.96,2.87.16,5.8.75,8.67,1.02,6.64.8,13.51,1.02,19.95-1.07,3.74.64,9.68,5.39,13.01,3.71.67-1.04,1.71-2.38,2.6-3.24l.87-.1c.38.44,1.24,1.21,1.73,1.51,1.63-.72,3.38-1.86,5.2-1.84,1.08.34,2.37.74,3.47,1.03,3.4.84,6.95,1.35,10.41,1.9,8.67,1.3,17.43-.35,26.02-1.56"/><path class="b" d="M8.83,103.69c2.58-.08,5.23.48,7.81.28,5.49-.26,11.04.07,16.48.84,4.33.59,8.69,1.37,13.01,2.03,3.72-.39,7.51-1.01,11.28-.64,1.71.13,3.56.41,5.2.91.44.13,1.31.47,1.73.65.43.01,1.3.02,1.73.02,2.04-.07,4.09-.86,6.07-1.28,1.66-.52,3.71-.3,5.2-1.25,3.22-1.63,6.86-2.52,10.41-3.1,4,.67,8.09,1.21,12.14,1.52,5.2.37,10.54.32,15.61-1,.41-.1,1.32-.32,1.73-.43.81-.07,1.85.32,2.6.59,3.66,1.19,7.24,4.2,11.28,3.04.84-.92,1.75-2.38,2.6-3.29l.87.03.87,1.02c1.19-.1,2.36-.99,3.47-1.39,1.16-.15,2.4.58,3.47.95,1.37.56,2.92,1.17,4.34,1.6.46.14,1.28.14,1.73-.01,1.08-.15,2.38-.26,3.47-.31,2,.08,4.11.36,6.07.79,1.1.23,2.37.66,3.47.89,2.29-.16,4.67-.46,6.94-.76,4.91-.62,9.84-1.48,14.75-2.17"/><path class="b" d="M8.83,101.1c4.04.06,8.11-.42,12.14-.49,4.91-.14,9.86.11,14.75.52,11.25.81,22.54,2.91,33.83,1.49,1.39-.16,2.94-.3,4.34-.32,2.85-.82,5.75-1.82,8.67-2.38,1.41-.08,2.94.43,4.34.6,2.27.35,4.65.71,6.94.96,5.17.46,10.47.47,15.61-.33,2.02-.25,4.06-1.05,6.07-1.24,2.39.55,4.68,1.68,6.94,2.59,2.1,1.1,4.66,1.75,6.94.81,1.2-.45,1.75-2.2,2.6-3.07l.87.13.87.74c.76-.42,1.81-.97,2.6-1.32,1.99.89,4.11,1.81,6.07,2.78,3-1.26,6.38-1.31,9.54-.69,2.93.47,5.89,1.3,8.67,2.32,7.51-1.16,15.04-2.49,22.55-3.69"/><path class="b" d="M8.83,98.38c3.72-.5,7.53-.71,11.28-.88,2.28.13,4.66.21,6.94.21,2.87.01,5.81-.07,8.67-.2,3.45.15,6.96.36,10.41.56,6.92.44,13.88.83,20.82.82,1.69.01,3.52.01,5.2.07,1.99-.41,4.03-1.23,6.07-1.39,4.58.94,9.22,1.92,13.88,2.34,4.91.3,9.9-.06,14.75-.89,2.01-.36,4.11-.9,6.07-1.46,1.74.37,3.56,1.07,5.2,1.74.41-.02,1.32,0,1.73.03.84.08,1.91.49,2.6.97.3.39,1.27.99,1.73,1.14,1.47.13,3.05-.4,4.34-1.08.47-.55,1.34-1.74,1.73-2.36.46-.01,1.32.19,1.73.38.41-.26,1.27-.67,1.73-.81,1.72.86,3.53,1.9,5.2,2.84,2.09-1.27,4.48-1.94,6.94-1.69,3.21.5,6.46,1.34,9.54,2.36,1.09.37,2.39.83,3.47,1.23,1.1-.14,2.38-.49,3.47-.72,6.89-1.44,13.9-2.43,20.82-3.72"/><path class="b" d="M8.83,95.45c3.16-.55,6.38-.11,9.54.24,3.44.35,6.95.61,10.41.71,9.54.23,19.1-.57,28.62-1.05,3.74-.35,7.54.14,11.28.28.43.02,1.31.06,1.73.08.77-.16,1.81-.46,2.6-.45,1.09.26,2.38.57,3.47.83,4.3.89,8.62,2.09,13.01,2.42,7.34.33,14.68-1.24,21.68-3.32.78.26,1.84.65,2.6.95.75.34,1.78.74,2.6.44,1.79-.28,3.8.03,5.2,1.24.34.44,1.18,1.16,1.73,1.3,1.52-.21,3.04-1.04,4.34-1.82,0,0,.87-1.4.87-1.4.44-.23,1.26-.33,1.73-.17l.87-.49c1.8.85,3.54,2.12,5.2,3.2,2.9-3.3,7.62-2.76,11.28-1.17,2.9.96,5.84,2.05,8.67,3.18,8.77-2.6,17.99-3.22,26.89-5.26"/><path class="b" d="M8.83,92.81c3.44.4,6.95.53,10.41.44,3.74-.03,7.54.17,11.28.42,6.92.37,13.88.99,20.82.84,4.63-.18,9.27-.89,13.88-1.34,2.26-.48,4.66-.22,6.94,0,2.88.28,5.83.66,8.67,1.22,3.29.57,6.49,1.72,9.54,3.03,6.51-.61,12.88-2.53,19.08-4.53,1.13.33,2.4.92,3.47,1.41,3.45-.66,6.39-1.08,8.67,2.18l.87.15c1.97-.73,4.03-1.9,5.2-3.7.43.18,1.28.29,1.73.19,1.46.88,2.98,2.03,4.34,3.07.92-.35,1.76-1.41,2.6-1.89,1.27-.73,2.89-1,4.34-.89,2.13.11,4.18,1.14,6.07,2.06,1.97,1.01,4.12,1.95,6.07,2.99,5.81-2.24,12.09-2.76,18.22-3.57,2.3-.31,4.67-.78,6.94-1.25,1.09-.23,2.38-.53,3.47-.75.43.11,1.31.35,1.74.48"/><path class="b" d="M8.83,90.48c6.04.63,12.16-.1,18.21.05,9.24.27,18.52.77,27.76.18,1.99-.18,4.09-.26,6.07.06,1.69.14,3.5.73,5.2.38,1.69-.21,3.51-.41,5.2-.57,2.59.11,5.25.56,7.81.96,2.92.5,5.91,1.18,8.67,2.28,1.47.49,2.86,1.6,4.34,2.04,3.77-1.11,7.56-2.4,11.28-3.67,1.39-.49,2.95-1.06,4.34-1.56,1.2-.01,2.41.83,3.47,1.31,3.75-1.06,7.23-1.57,9.54,2.27.87-.13,1.87-.76,2.6-1.22.84-.53,1.97-1.26,2.6-2.04.86-.44,1.92-.02,2.6.57,1.13.82,2.41,1.89,3.47,2.8,5.12-6.88,12.13-2.3,17.35,1.79,2.82-.96,5.7-2.04,8.67-2.46,4-.69,8.12-.8,12.14-1.23,2.61-.26,5.26-.81,7.81-1.43.43-.1,1.31-.32,1.73-.43,1.12.23,2.41.69,3.47,1.12"/><path class="b" d="M8.83,88.23c1.09-.16,2.37.09,3.47.08,2.57-.25,5.24.02,7.81.05,8.95.01,17.94.11,26.89.25,4.33.1,8.72.33,13.01.93,2.58-.07,5.23-.69,7.81-.91,1.08-.13,2.38-.27,3.47-.38,1.99.13,4.09.44,6.07.7,3.51.51,7.1,1.16,10.41,2.46,1.13.45,2.44,1.1,3.47,1.77,0,0,.87.61.87.61.44.13,1.33.02,1.73-.21,4.24-1.94,8.64-3.73,13.01-5.36,1.11.37,2.25,1.44,3.47,1.31,3.68-1.51,7.35-1.44,9.54,2.31,1.78-1.02,3.66-2.25,5.2-3.61,1.96.89,3.61,2.64,5.2,4.05,1.24-1.33,2.49-3.07,4.34-3.58,4.59-1.44,9.04,1.43,12.14,4.59l.87.09c6.4-3.31,13.82-2.96,20.82-3.29,2-.12,4.12-.38,6.07-.84,1.4-.22,2.91-1.01,4.34-.84,1.39.41,2.84,1.24,4.34,1.16"/><path class="b" d="M8.83,86.1c1.69-.05,3.51-.28,5.2-.29,3.15.27,6.38.38,9.54.42,10.12.17,20.28.38,30.36,1.26,1.09.19,2.38-.11,3.47-.21,1.99-.24,4.09-.51,6.07-.75,2.27-.19,4.66-.79,6.94-.46,7.33.95,15.43.91,21.68,5.34.41.11,1.31.18,1.73.13.41-.27,1.31-.78,1.73-1.02,1.65-.89,3.51-1.73,5.2-2.52,1.08-.5,2.38-1.09,3.47-1.57.36-.24,1.29-.46,1.73-.4.78.38,1.84.97,2.6,1.39,3.96-1.92,7.78-2.21,10.41,1.86,1.43-.92,2.93-2.09,4.34-3.04l.87-.05c1.52,1.04,3.03,2.45,4.34,3.75l.87-.07c1.97-3.84,6.59-4.97,10.41-3.3,1.18.5,2.47,1.34,3.47,2.15.78.6,1.64,1.68,2.6,2,6.51-3.9,14.43-2.95,21.68-3.06,2-.06,4.12-.31,6.07-.79,1.39-.21,2.97-1.28,4.34-.6,1.64.87,3.45.69,5.2,1.11"/><path class="b" d="M8.83,83.62c3.16-.06,6.39.02,9.54-.05,4.01.53,8.11.46,12.14.6,3.74.13,7.54.34,11.28.53,2.28.13,4.66.36,6.94.15,4.91-.26,9.85-.75,14.75-1.22,4.04.21,8.11.82,12.14,1.09,3.77.33,7.64.64,11.28,1.77,1.12.35,2.43.89,3.47,1.46.44.26,1.33.84,1.73,1.16.41.09,1.31.15,1.73.09,3.19-2.26,6.88-3.89,10.41-5.56,1.23.09,2.26,1.24,3.47,1.39,3.93-2.05,7.73-2.27,10.41,1.75,1.39-1.02,2.9-2.22,4.34-3.16,1.96,1.11,3.59,3.03,5.2,4.58.96-.73,1.7-2.21,2.6-2.99,2.32-2.09,5.86-2.31,8.67-1.16,1.18.48,2.47,1.27,3.47,2.05.77.55,1.6,1.66,2.6,1.75,6.53-3.95,14.44-2.61,21.68-2.55,2.01-.02,4.13-.28,6.07-.8,1.1-.21,2.34-1.02,3.47-.66,1.03.51,2.35.7,3.47.82,1.12.19,2.43.58,3.47,1.04"/><path class="b" d="M8.83,81.42c4.9-.13,9.85.32,14.75-.08,4.32-.02,8.69.42,13.01.33,4.03,0,8.12-.06,12.14-.2,2.58-.08,5.24-.34,7.81,0,8.08.71,16.19,1.4,24.29,1.8,2.62.22,5.34.65,7.81,1.59,1.16.48,2.45,1.24,3.47,1.97.89.28,1.95-.32,2.6-.9,2.73-1.77,5.74-3.29,8.67-4.69.83.31,1.86.93,2.6,1.41.53.13,1.3-.1,1.73-.41,3.58-1.82,7.32-1.52,9.54,2.11,1.36-.96,2.68-2.54,4.34-2.91l.87.24c1.17,1.63,3,2.99,4.34,4.48,1.23-1.1,2.05-2.98,3.47-3.9,4.52-3.14,10.28-.42,13.88,2.91,6.39-3.64,13.82-2.52,20.82-2.2,1.73.09,3.55-.2,5.2-.71,1.09-.24,2.43-.33,3.47-.77.83-.29,1.8.3,2.6.47,2.48.27,5,1.18,6.94,2.78"/><path class="b" d="M8.83,79.28c6.35-.16,12.73.12,19.08.16,3.45.12,6.96-.15,10.41-.1,8.97.05,17.94.99,26.89,1.55,4.02.3,8.11.49,12.14.4,5.06-.07,10.5.15,14.75,3.25l.87-.12c2.83-2.28,6.22-4.03,9.54-5.48.8.4,1.86,1.03,2.6,1.53,1.21.05,2.33-.98,3.47-1.28,3.01-1.12,6.33-.1,7.81,2.84,1.06-.9,2.33-1.96,3.47-2.75.43-.05,1.3-.15,1.73-.21.89,1.92,2.93,3.24,4.34,4.76l.87-.14c3.59-7.71,11.74-5.73,17.35-1.49,1.45-.2,2.89-1.06,4.34-1.32,4.54-1.08,9.28-.48,13.88-.21,1.77.28,3.52-.46,5.2-.88.76-.18,1.82-.35,2.6-.42.79-.06,1.88,0,2.6-.4,2.28.87,4.92,1.08,6.94,2.58,1.27.75,2.22,2.29,3.47,3.04"/><path class="b" d="M8.83,77.15c11.26-.13,22.58-.29,33.83.39,4.34.29,8.73.81,13.01,1.61,2.54.44,5.24.39,7.81.56,4.32.18,8.7.3,13.01-.09,5.92-.47,10.28-.58,15.61,2.48,1.49-1.39,3.42-2.46,5.2-3.42,1.38-.65,2.81-1.75,4.34-1.98.8.41,1.86,1.04,2.6,1.55,1.21-.01,2.32-1.06,3.47-1.38,2.87-1.15,6.24-.22,7.81,2.51,1.63-.39,2.61-2.41,4.34-2.63,1.1.13,2.07,1.2,2.6,2.1,1.09.97,2.37,2.15,3.47,3.1,1.07-1.38,2.02-3.27,3.47-4.31,4.82-3.45,10.94-.73,15.61,1.65,1.42.16,2.91-.68,4.34-.79,2.55-.4,5.24-.36,7.81-.21,1.09.06,2.38.16,3.47.17,1.66-.56,3.48-1.07,5.2-1.37,1.67-.37,3.52-.2,5.2-.38.78.16,1.82.54,2.6.72,1.52.44,3.11,1.26,4.34,2.27.84.69,1.74,1.9,2.6,2.57h2.6"/><path class="b" d="M8.83,75.05c12.42-.16,24.9-.83,37.3.36,4.06.39,8.16,1,12.14,1.89,2.63.44,5.16,1.81,7.81,1.56,3.47-.05,6.99-.34,10.41-.9,5.05-.82,10.12-1.14,14.75,1.45,2.18-1.51,4.55-2.89,6.94-4.05.43-.22,1.3-.66,1.73-.87,1.26-.16,2.44.97,3.47,1.56,1.23,0,2.32-1.09,3.47-1.43,2.75-1.17,6.13-.37,7.81,2.18l.87.3c.99-1,2.27-2.09,3.47-2.82l.87.58.87-.26c1.09,2.19,3.35,3.62,5.2,5.09,4.5-8.75,12.35-6.07,19.95-3.7.76.21,1.82.46,2.6.59.78,0,1.83-.15,2.6-.2,1.39-.13,2.95,0,4.34-.17,4.76-1.28,9.83-2.51,14.75-1.58,1.43.58,3.08,1.11,4.34,2.03,1.28.83,2.35,2.31,3.47,3.31h3.47c.38-.54,1.24-1.55,1.74-1.98"/><path class="b" d="M8.83,73.04c17.63-.64,35.71-1.99,52.91,2.79,1.72.49,3.54,1.15,5.2,1.81,1.4.05,2.96-.06,4.34-.34,6.4-1.26,12.75-3.64,19.08-.66,2.77-1.67,5.71-3.25,8.67-4.58,1.22.21,2.44,1.1,3.47,1.74,1.24.08,2.32-1.1,3.47-1.44,3.54-1.44,6.56-.16,8.67,2.87.73-.76,1.78-1.75,2.6-2.4.42-.38,1.15-.74,1.73-.67.41.3,1.23.55,1.73.45,1.06,2.05,3.39,3.15,5.2,4.43.6-.31,1.42-1.42,1.73-2.01.66-.83,1.69-1.8,2.6-2.33,5.68-3.07,12.23-.36,18.22.08,3.48.38,6.97-.39,10.41-.79,1.68-.14,3.51-.24,5.2-.16,1.1,0,2.38.45,3.47.21,1.81.76,3.7,1.78,5.2,3.05.83.71,1.63,2.01,2.6,2.56,1.39-.05,2.97.13,4.34-.15.91-1.19,2.21-2.4,3.47-3.2"/><path class="b" d="M8.83,71.02c14.71-.9,29.62-1.87,44.24.57,3.2.54,6.45,1.26,9.54,2.23,1.41.41,2.92,1.1,4.34,1.5,1.39,0,2.95,0,4.34,0,2.09.23,4.08-.85,6.07-1.34,3.93-1.24,8.23-1.49,12.14-.03,2.7-1.71,5.7-3.1,8.67-4.26,1.14.48,2.43,1.2,3.47,1.87h.87c3.66-2.7,8.61-3.05,11.28,1.16l.87-.14c1.01-.97,2.25-2.09,3.47-2.79.79.1,1.86.22,2.6.52,1.32,2.13,4.01,2.97,6.07,4.2,1.39-1.81,2.99-3.75,5.2-4.57,5.55-2.07,11.6-.51,17.35-.48,2.87.12,5.81-.27,8.67-.26,2.63-.04,5.22.56,7.81.7,2.75,1.09,5.09,3.13,6.94,5.4,1.39-.12,3.13.37,4.34-.45,1.56-1.93,3.78-3.42,6.07-4.35"/><path class="b" d="M8.83,68.97c18.46-1.47,37.69-2.77,55.51,3.21.76.27,1.79.74,2.6.83,1.08,0,2.38,0,3.47,0,1.72-.04,3.63.25,5.2-.61,2.2-.81,4.58-1.65,6.94-1.78,2.01-.18,4.09.33,6.07.5,1.58-1.04,3.46-1.83,5.2-2.53,1.09-.35,2.29-1.2,3.47-1.05.8.33,1.85.85,2.6,1.28.39.32,1.22.65,1.73.59,4.6-3.19,8.51-2.91,12.14,1.43,1.31-1.16,2.79-2.45,4.34-3.29.8-.17,1.8.25,2.6.23,1.66,2.12,4.57,2.75,6.94,3.75l.87-.21c4.24-5.52,12.01-4.68,18.22-4.67,4.91.21,9.97-.31,14.75,1.1,1.12-.67,2.44.14,3.47.64,1.98,1.03,3.87,2.59,5.2,4.39,1.05.37,2.38.18,3.47.22,1.54-2.01,3.75-3.62,6.07-4.61,1.06-.37,2.32-1.15,3.47-.83"/><path class="b" d="M8.83,66.85c16.41-1.73,33.26-2.52,49.44,1.29,2.62.63,5.29,1.42,7.81,2.37,1.36.32,2.95.12,4.34.17,1.08,0,2.38,0,3.47,0,1.12-.33,2.37-.97,3.47-1.35,2.99-1.19,6.38-1.42,9.54-.85,2.76-1.37,5.74-2.48,8.67-3.42,1.13.39,2.42.98,3.47,1.53.4.29,1.24.63,1.73.63,3.84-2.98,9.24-3.14,12.14,1.18l.87-.06c1.56-1.26,3.37-2.47,5.2-3.29.46.21,1.28.21,1.73,0,.86.99,2.24,1.6,3.47,1.97,1.94.67,4.06,1.16,6.07,1.52.87-.34,1.8-1.19,2.6-1.64,1.3-.73,2.88-1.27,4.34-1.58,5.11-.99,10.44-.84,15.61-.52,1.4.13,2.97.33,4.34.69.8,0,1.79-.47,2.6-.35,3,1.02,5.93,2.83,7.81,5.43.77.12,1.83.09,2.6.09,2.15-2.74,5.37-4.52,8.67-5.48,1.44-.17,2.89.84,4.34.77"/><path class="b" d="M8.83,64.67c18.14-2.32,36.95-2.65,54.65,2.53,1.09.32,2.39.73,3.47,1.09,1.08.14,2.38.07,3.47.09.77,0,1.83,0,2.6,0,.85-.08,1.84-.67,2.6-1,2.14-1.02,4.57-1.55,6.94-1.65.77-.04,1.84,0,2.6.07.43-.14,1.32-.5,1.73-.71,2.22-.92,4.66-1.56,6.94-2.29,2.14.27,4.03,1.75,6.07,2.27,4.36-3.31,9.67-2.98,13.01,1.54,2.01-1.27,6.32-4.33,8.67-3.69,2.69,1.18,5.77,1.62,8.67,1.95,1.98.14,4.09.33,6.07.15,1.34-.52,2.91-.9,4.34-1.11,3.13-.46,6.39-.49,9.54-.22,1.72-.13,3.49-.93,5.2-.91,2.11.57,4.28,1.47,6.07,2.74.46.33,1.33,1.08,1.73,1.48.54.77,1.59,1.6,2.6,1.38,1.71-1.22,3.25-2.96,5.2-3.85,1.6-.69,3.42-1.79,5.2-1.62,1.38.42,2.92.91,4.34,1.14.78-.02,1.84.16,2.6.3"/><path class="b" d="M8.83,62.39c18.12-2.78,36.85-2.38,54.65,2.19,2.84.64,5.72,1.68,8.67,1.47,1.12-.41,2.36-1.12,3.47-1.57,2.19-.8,4.61-1.28,6.94-1.33,1.17.06,2.35-.79,3.47-1.05,1.96-.61,4.09-1.09,6.07-1.62,2.42.27,4.67,1.62,6.94,2.4,2.9-2.24,7.12-3.03,10.41-1.17,1.31.59,2.16,2.13,3.47,2.59,2.46-1.33,5.1-2.56,7.81-3.29.75-.3,1.78-.65,2.6-.6,3.99.68,8.09,1.05,12.14.92,4.05-.04,8.12-.62,12.14-1,4.77.51,9.74,2.04,13.01,5.73l.87-.17c1.92-1.95,4.39-3.47,6.94-4.46,1.34-.43,2.94-1.32,4.34-.66,3.39,1.18,7.06,1.53,10.41,2.82"/><path class="b" d="M8.83,60.01c17.8-3.15,36.13-2.1,53.78,1.54,3.13.57,6.35,1.21,9.54,1.19,1.44-.25,2.91-1.06,4.34-1.38,1.07-.29,2.37-.55,3.47-.68.47.03,1.34-.21,1.73-.46,2.76-1.07,5.79-1.5,8.67-2.11,2.66.53,5.33,1.46,7.81,2.56,4.18-3.26,10.57-2.84,13.88,1.45.48.07,1.32-.12,1.73-.35,1.08-.43,2.37-.91,3.47-1.26,1.07-.35,2.37-.7,3.47-.94,1.09-.45,2.29-1.24,3.47-1.45,1.29.86,2.89.54,4.34.44,1.98-.11,4.09-.12,6.07-.06,5.54.24,11.19.83,16.48,2.53.81.3,1.87.81,2.6,1.26.37.33,1.23.75,1.73.77,3.45-2.22,7.28-4,11.28-4.95,2.3.55,4.64,1.36,6.94,1.89,3.13,1.08,6.34,2.17,9.54,3.03"/><path class="b" d="M8.83,57.53c5.13-1.01,10.39-1.58,15.61-1.83,2.57.12,5.23.23,7.81.23,9.6-.49,19.15.92,28.62,2.35,5.44.78,11.13,1.51,16.48-.12,1.41-.38,2.91-1.05,4.34-1.35,1.97-.43,4.08-.7,6.07-1,3.25.36,6.51,1.3,9.54,2.52,4.85-3.08,10.94-2.55,14.75,1.9,2.84-.77,5.76-1.56,8.67-1.96,2.1-1,4.59-2.39,6.94-2.4,3.95,1.18,8.02,2.23,12.14,2.53,3.73.24,7.57.09,11.28-.39,2.31-.39,4.67-1.07,6.94-1.63.77-.19,1.83-.43,2.6-.6,2.03.28,4.08,1.06,6.07,1.53,3.52.82,6.94,2.27,10.41,3.29.76.24,1.83.56,2.6.79,1.08.06,2.39.03,3.47.04"/><path class="b" d="M8.83,54.98c3.7-.78,7.51-1.36,11.28-1.62,4.02.37,8.11.62,12.14.64,4.33.12,8.7-.45,13.01-.46,4.91.4,9.85,1.03,14.75,1.57,6.04.66,12.33,1.11,18.22-.75,2.23-.51,4.65-.88,6.94-.83,3.81.36,7.67,1.08,11.28,2.38,1.7-.49,3.38-1.51,5.2-1.6,4.18-.49,7.26,1.23,10.41,3.73,2.85-.4,5.79-.83,8.67-.94,2.71-1.35,5.68-2.3,8.67-2.79,4.28-.78,8.68-.87,13.01-.79,3.45-.04,6.98-.18,10.41.19,4.67.65,9.4,1.62,13.88,3.11,2.28.75,4.66,1.54,6.94,2.28,1.69,0,3.52,0,5.2,0,1.33-.8,2.85-1.67,4.34-2.16"/><path class="b" d="M8.83,52.38c1.68-.38,3.5-.72,5.2-.98,1.09-.13,2.37-.48,3.47-.25,5.17.64,10.41,1.1,15.61,1.08,5.79,0,11.59-.57,17.35-1.06,5.18.44,10.41,1.04,15.61,1.18,2.28.05,4.67,0,6.94-.28,1.71-.18,3.5-.7,5.2-.86,5.5.07,11.15.55,16.48,1.98.42.17,1.28.33,1.73.32.74-.38,1.8-.77,2.6-.97,3.51-.86,7.36-.13,10.41,1.78.78.46,1.68,1.37,2.6,1.55,1.69-.03,3.52-.07,5.2-.04,1.08.02,2.39.08,3.47.17.47-.01,1.34-.32,1.73-.58,1.04-.47,2.35-.9,3.47-1.14,5.67-1.29,11.57-1.19,17.35-1.09,4.03.12,8.15-.11,12.14.55,3.85.45,7.58,1.77,11.28,2.89,1.66.34,3.52.1,5.2.16,3.22-2.53,7.23-3.93,11.28-4.38"/><path class="b" d="M8.83,49.75c1.68-.4,3.5-.75,5.2-1.01,1.99.3,4.08.63,6.07.9,4.58.63,9.25,1.02,13.88.97,7.83-.07,15.62-1.14,23.42-1.71,3.73-.11,7.53.41,11.28.23,1.7-.03,3.52-.18,5.2-.4,1.39.13,2.94.42,4.34.49,3.15.19,6.4.08,9.54.46,1.7.19,3.53.43,5.2.79,1.4.33,2.96.93,4.34.2,3.41-1.01,7.2-.57,10.41.9,1.14.51,2.41,1.3,3.47,1.96.77.06,1.83.15,2.6.22,2.87.25,5.78.88,8.67.71,1.42-.19,2.91-.87,4.34-1.05,2.26-.38,4.65-.51,6.94-.56,3.74-.07,7.54.11,11.28.15,2.57.08,5.25-.24,7.81.09,2.3.27,4.69.75,6.94,1.29,1.68.15,3.52.04,5.2.07,4.96-4.28,11.79-5.82,18.22-5.57"/><path class="b" d="M8.83,47.11c1.09-.24,2.35-.61,3.47-.62,1.98.38,4.08.78,6.07,1.13,4.57.81,9.23,1.43,13.88,1.52,10.74.23,21.37-1.95,32.09-2.26,4.04-.22,8.12.16,12.14.39,3.45.03,6.97-.24,10.41.05,2.9.15,5.83.69,8.67,1.26,1.11.13,2.36-.39,3.47-.42,3.6-.29,7.25.76,10.41,2.45,1.57.72,3.53.65,5.2,1.06,2.24.59,4.65.46,6.94.46,2.86,0,5.81,0,8.67,0,8.95,0,17.93,0,26.89,0,3.72-2.46,7.75-4.67,12.14-5.6,1.7-.2,3.5.62,5.2.74,2.84.42,5.82.43,8.67.16"/><path class="b" d="M8.83,44.49c1.43-.55,2.93-.03,4.34.29,1.98.45,4.08.92,6.07,1.33,5.4,1.14,10.95,1.9,16.48,1.8,7.27-.11,14.47-1.39,21.68-2.12,6.03-.62,12.16-.76,18.22-.53,4.89-.38,9.86-.66,14.75-.08,2.28.33,4.66.71,6.94,1.07,1.69-.1,3.53-.11,5.2.2,1.74.29,3.56.9,5.2,1.52,1.69.28,3.52.6,5.2.93,1.4.26,2.94.67,4.34.91,1.98,0,4.09,0,6.07,0,6.93,0,13.89,0,20.82,0,1.99-.55,4.03-1.35,6.07-1.73,2.33-.62,4.68-1.57,6.94-2.41,1.66-.61,3.48-1.26,5.2-1.67.76.2,1.84.48,2.6.69,6.18,1.9,11.86,2.18,18.22.93"/><path class="b" d="M8.83,41.87c8.03,1.87,15.98,4.66,24.29,5.04,8.47.43,16.79-1.7,25.15-2.69,4.06-.32,8.04-1.65,12.14-1.59,1.71-.07,3.51.28,5.2.4,3.72-.5,7.53-.78,11.28-.62,4.64.19,9.29,1.03,13.88,1.71,5.79.92,11.62,1.91,17.35,3.19,1.94.43,4.09.12,6.07.21,3.16,0,6.39,0,9.54,0,4.09-1.06,7.98-3.11,12.14-3.99,1.96-.5,4.1-.74,6.07-1.16.76-.16,1.84-.4,2.6-.58,1.1.1,2.4.43,3.47.69,10.91,3.16,13.89,3.5,25.15.91"/><path class="b" d="M8.83,39.96c5.51,1.6,10.96,3.58,16.48,5.16,6.34.2,12.74.01,19.08.08,2.44.27,4.66-1.11,6.94-1.76,3.94-1.3,8.03-2.41,12.14-2.97,2.26-.3,4.66-.42,6.94-.26,1.71.03,3.51.81,5.2.38,8.06-1.47,16.27-.52,24.29.7,4.62.65,9.27,1.46,13.88,2.23,3.99.65,8.09,1.41,12.14,1.01,4.49-.45,8.72-2.29,13.01-3.58,1.67-.5,3.49-1.02,5.2-1.35,2.54.6,5.23.82,7.81,1.18,3.2.5,6.38,1.46,9.54,2.16,7.25,1.86,14.58-.53,21.68-1.96"/><path class="b" d="M8.83,38.24c3.81,1.32,7.61,2.87,11.28,4.54,6.04.27,12.16.02,18.21.1,1.09,0,2.38,0,3.47,0,1.73-.42,3.49-1.26,5.2-1.76,3.95-1.28,8.04-2.35,12.14-2.98,2.84-.43,5.8-.63,8.67-.44,1.72.04,3.5.6,5.2.73,8.27-1.89,16.84-1.25,25.15-.04,7.79.9,15.56,2.71,23.42,2.68,4.16-.08,8.2-1.39,12.14-2.6,1.38-.42,2.94-.87,4.34-1.23,2.3.54,4.64,1.39,6.94,1.95,2.52.71,5.24.81,7.81,1.25,3.14.54,6.34,1.3,9.54,1.42,2.89.15,5.83-.4,8.67-.86,4.06-.63,8.14-1.53,12.14-2.44"/><path class="b" d="M8.83,36.69c2.66,1.09,5.31,2.44,7.81,3.86,6.06,0,12.16,0,18.22,0,1.09-.02,2.39.08,3.47-.11,1.66-.71,3.49-1.37,5.2-1.93,4.5-1.45,9.18-2.56,13.88-3.1,2.85-.32,5.82-.41,8.67-.1,1.1.12,2.4.33,3.47.63.5.24,1.24.26,1.73.05,1.96-.47,4.07-.84,6.07-1.05,1.99.06,4.08.28,6.07.22,1.99-.03,4.09-.17,6.07-.34,4.63.37,9.27,1.08,13.88,1.66,8.88,1.18,17.28,2.51,26.02-.4,4.8-1.37,3.86-1.57,8.67.18,2.83,1.01,5.72,2.2,8.67,2.8,3.42.5,6.96.63,10.41.89,3.18.19,6.4-.36,9.54-.8,5.55-.61,11.06-1.73,16.48-3.04"/><path class="b" d="M8.83,35.39c1.44.75,3.01,1.67,4.34,2.61.78.3,1.79.24,2.6.24,4.9,0,9.85,0,14.75,0,1.4,0,2.94,0,4.34,0,1.97-.81,4.04-1.69,6.07-2.36,5.03-1.69,10.3-2.91,15.61-3.19,3.47-.2,7.04.15,10.41,1.02.48.12,1.28.04,1.74-.15,1.08-.28,2.37-.57,3.47-.77,1.39-.38,2.94.05,4.34.19,1.68.19,3.51.29,5.2.29,3.76.1,7.54-.7,11.28-.7,4.9.59,9.84,1.21,14.75,1.7,4.88.5,9.88.82,14.75,0,2.61-.39,5.23-1.22,7.81-1.76,3.26.88,6.44,2.24,9.54,3.54,1.85.86,4.09.45,6.07.7,2.58.15,5.23.46,7.81.63,1.68.11,3.52.22,5.2.2,1.68-.28,3.51-.51,5.2-.69,6.44-.52,12.82-1.77,19.08-3.33"/><path class="b" d="M8.83,34.43c.81.48,1.61,1.44,2.6,1.49,1.69,0,3.51,0,5.2,0,1.99,0,4.08,0,6.07,0,1.99-.27,4.04-.87,6.07-.86,1.4-.05,2.95.02,4.34.19,1.18.08,2.37-.78,3.47-1.12,1.38-.53,2.93-1.06,4.34-1.48,5.32-1.56,10.92-2.58,16.48-2.2,2.32.1,4.67.64,6.94,1.04,1.93-.45,4.08-1.5,6.07-1.03,3.4.71,6.93,1.18,10.41,1.07,4.34-.19,8.69-.91,13.01-1.29,10.64.95,21.56,2.85,32.09.12.42-.19,1.31-.19,1.73.01,1.1.28,2.4.68,3.47,1.06,1.72.61,3.54,1.37,5.2,2.11.75.16,1.83.15,2.6.17,5.5.1,11,.83,16.48,1.22,2.58.22,5.23-.47,7.81-.59,6.74-.46,13.4-1.83,19.95-3.44"/><path class="b" d="M8.83,33.6c3.16-.03,6.39.06,9.54-.04,4.56-2.1,9.89-2.2,14.75-1.18,6-2.59,12.52-4.26,19.08-4.25,1.7.02,3.53.17,5.2.43,1.4.18,2.97.85,4.34.19,1.08-.3,2.34-.74,3.47-.8,1.39.34,2.94.73,4.34,1.03,2.82.63,5.79.92,8.67.79,5.79-.37,11.56-1.42,17.35-1.84,8.92.62,18.02,1.72,26.89.07,1.1-.33,2.39.2,3.47.41,2.34.59,4.72,1.44,6.94,2.38,3.16.13,6.39.2,9.54.48,4.04.26,8.1.9,12.14,1.16,1.4.12,2.95-.3,4.34-.4,2.27-.26,4.66-.42,6.94-.66,5.85-.59,11.63-1.9,17.35-3.23"/><path class="b" d="M8.83,31.28c1.98-.08,4.12.19,6.07-.16,1.02-.62,2.33-1.18,3.47-1.53,4.49-1.31,9.4-1.19,13.88.1,5.25-2.06,10.78-3.72,16.48-3.73,2.6-.05,5.26.33,7.81.83,1.08-.39,2.36-.8,3.47-1.1,2.01,0,4.08,1.04,6.07,1.37,3.1.72,6.36,1.05,9.54.89,3.18-.14,6.39-.68,9.54-1.09,4.02-.46,8.11-.88,12.14-1.17,6.63-.11,13.33.72,19.95.06,1.7-.34,3.52,0,5.2.34,2.33.46,4.72,1.14,6.94,1.99,7.84-.11,15.63,1.16,23.42,1.84,2.28.06,4.65-.62,6.94-.76,3.74-.42,7.56-.74,11.28-1.4,2.29-.38,4.67-.85,6.94-1.33,1.69-.3,3.51-1.08,5.2-.4"/><path class="b" d="M8.83,28.96c.79,0,1.82,0,2.6,0,1.38-.73,2.83-1.69,4.34-2.15,3.6-1.2,7.55-1.36,11.28-.76,1.11.18,2.4.5,3.47.86.54.27,1.17.35,1.74.18,4.35-1.94,9.11-3.1,13.88-3.2,1.4-.02,2.95.07,4.34.26.79.1,1.81.39,2.6.16,1.07-.38,2.33-.88,3.47-1.01,4.78,1.43,9.71,2.84,14.75,2.8,5.23,0,10.41-1.15,15.61-1.6,9.49-.91,19.09-1.54,28.62-.94,3.51.22,7.01,1,10.41,1.84,2.86-.1,5.82-.01,8.67.22,4.04.31,8.11.97,12.14,1.36,1.98.08,4.11.68,6.07.28,5.73-1.04,11.6-1.46,17.35-2.4,2.88-.38,5.79-1.21,8.67-1.47,1.4.3,2.97.69,4.34,1.12"/><path class="b" d="M8.83,26.65c4.7-3.35,9.92-4.36,15.61-3.6,1.42.2,2.99.57,4.34,1.05.77.27,1.76.84,2.6.86,3.78-1.78,7.96-2.87,12.14-3.05,1.09-.04,2.39,0,3.47.09.78.07,1.83.29,2.6.07,1.07-.41,2.36-.87,3.47-1.14,5.61,1.76,11.4,3.48,17.35,3.17,4.06-.13,8.12-.83,12.14-1.31,5.18-.52,10.41-.9,15.61-1.07,4.9-.19,9.85-.09,14.75.09,2.89.08,5.81.7,8.67,1.02,7.85-.75,15.65.78,23.42,1.63,1.69.13,3.51.34,5.2.41,1.38-.32,2.94-.61,4.34-.85,4.01-.69,8.11-1.2,12.14-1.75,2.58-.37,5.24-.81,7.81-1.27,2.93.46,5.89,1.26,8.67,2.29"/><path class="b" d="M8.83,22.8c6.27-3.89,15.47-3.78,21.68.18,3.28-1.48,6.8-2.65,10.41-2.93,1.69-.15,3.52-.14,5.2.04,1.39-.48,2.9-1.15,4.34-1.46,5.34,1.72,10.81,3.53,16.48,3.5,4.64.03,9.28-.7,13.88-1.22,4.31-.41,8.69-.65,13.01-.79,4.03-.17,8.12-.06,12.14.09,3.16.03,6.39.16,9.54.42,8.39-1.38,16.84-.27,25.15,1.06,2.56.28,5.23.49,7.81.65,1.38-.33,2.94-.69,4.34-.97,4.87-.98,9.84-1.64,14.75-2.36,1.39-.3,2.95-.38,4.34.02,1.7.33,3.54.76,5.2,1.23.77.22,1.85.56,2.6.83,1.11.1,2.39-.33,3.47-.53"/><path class="b" d="M8.83,19.23c5.06-2.45,11.16-2.62,16.48-.92,1.14.39,2.45,1.01,3.47,1.66.38.33,1.25.82,1.73.94,3.99-2.01,8.54-3.06,13.01-2.91,1.73-.37,3.4-1.64,5.2-1.59,5.33,1.81,10.79,3.71,16.48,3.74,4.92.08,9.85-.65,14.75-1.08,4.31-.35,8.69-.44,13.01-.46,4.62-.06,9.27.41,13.88.49,1.72.04,3.5-.72,5.2-.91,2.55-.43,5.22-.71,7.81-.8,4.33-.13,8.73.17,13.01.85,4.57.81,9.24,1.32,13.88,1.47,5.73-1.29,11.52-2.54,17.35-3.34,1.41-.16,2.96.37,4.34.59,2.31.38,4.63,1.28,6.94,1.64,2.58-.45,5.24-.96,7.81-1.47"/><path class="b" d="M8.83,16c6.67-2.51,15.37-2.24,20.82,2.78l.87.13c2.42-1.24,5.13-2.11,7.81-2.58,1.39-.36,3.07-.02,4.34-.73,1.35-.61,2.86-1.38,4.34-1.57,1.99.69,4.07,1.46,6.07,2.12,4.16,1.44,8.6,2.25,13.01,2.15,7.51-.22,15.02-1.26,22.55-.91,3.46.05,6.97.38,10.41.68,3.47-.66,6.9-1.89,10.41-2.44,5.71-.99,11.59-1.03,17.35-.48,4.33.47,8.65,1.41,13.01,1.65,1.98.07,4.11.51,6.07.12,3.75-.76,7.5-1.78,11.28-2.42.76-.15,1.84-.34,2.6-.48.77-.02,1.84.19,2.6.33,1.7.3,3.53.72,5.2,1.17.75.2,1.8.58,2.6.53,2.57-.43,5.24-.91,7.81-1.36,1.68-.17,3.54-.96,5.2-.49"/></svg>