<?xml version="1.0" encoding="UTF-8"?><svg id="a" xmlns="http://www.w3.org/2000/svg" width="1920" height="2400" viewBox="0 0 192 240"><defs><style>.b{fill:none;stroke:#fff;stroke-miterlimit:10;stroke-width:.4px;}.c{stroke-width:0px;}</style></defs><rect class="c" x="0" width="192" height="240"/><path class="b" d="M8.6,232.41h106.1c5.09-5.1,10.96-12.78,19.13-10.35,3.86,1.17,7.43,3.33,11.31,4.67,4.54,2,9.02,4.4,13.91,5.42,1.66.42,3.52.22,5.22.26,2.87,0,5.83,0,8.7,0,2.28,0,4.67,0,6.96,0,1.16-.05,2.4-.7,3.48-1.08"/><path class="b" d="M8.6,227.69h103.49c8.83-7.92,13.63-17.37,26.96-10.79,2.51,1.16,5.31,1.82,7.83,2.95,4.23,1.84,8.49,3.88,13.05,4.77,3.7.78,7.55.75,11.31.83,1.7,0,3.52.36,5.22.23,2.34-.2,4.7-.93,6.96-1.53"/><path class="b" d="M8.6,222.96h100.01c7.14-4.42,11.99-13.21,20.87-14.4,3.91-.45,7.66,1.17,11.31,2.31,1.69.5,3.58.77,5.22,1.42,3.82,1.43,7.47,3.45,11.31,4.83,4.7,1.81,9.79,2.32,14.78,2.32,3.79.32,7.57-.4,11.31-.92"/><path class="b" d="M8.6,218.24c16.23,0,32.47,0,48.7,0,1.69-.06,3.55.16,5.22-.15,3.39-.83,6.94-1.34,10.44-1.4,2.58-.03,5.27.11,7.83.46,1.44.2,2.92.91,4.35,1.09,6.07,0,12.19,0,18.26,0,.78,0,1.85.05,2.61-.18,1.44-.88,2.99-1.98,4.35-2.98,7.1-5.17,13.75-13.09,23.48-11.33,2.61.37,5.22,1.19,7.83,1.56,3.37.13,6.59,1.42,9.57,2.94,7.44,3.93,13.94,6.89,22.61,6.2,3.17-.15,6.39-.73,9.57-.69"/><path class="b" d="M8.6,212.45c1.41.31,2.94.78,4.35,1.07,2.29,0,4.67,0,6.96,0,5.2,0,10.45,0,15.65,0,5.78,0,11.61,0,17.39,0,4.09-.93,8.04-2.72,12.18-3.55,4.54-1.05,9.32-1.21,13.91-.45,3.71.5,7.01,2.52,10.44,3.89,4.02.27,8.14.03,12.18.11.79,0,1.86.07,2.61-.24,1.77-.85,3.58-1.98,5.22-3.06,8.21-5.37,14.56-11.71,25.22-10.21,3.15.43,6.38.78,9.57.68,3.43.36,6.57,2.14,9.57,3.73,3.6,1.96,7.3,3.99,11.31,4.99,2.52.64,5.24.83,7.83.56,3.44-.43,6.95-1.11,10.44-.81"/><path class="b" d="M8.6,205.09c2.32.43,4.65,1.23,6.96,1.72,3.18.48,6.4,1.1,9.57,1.66,3.71.59,7.56.27,11.31.29,3.21-.41,6.41-1.26,9.57-1.93,3.81-.62,7.62-1.5,11.31-2.63,7.67-2.39,15.68-3.08,23.48-.82,2.73.89,5.27,2.46,7.83,3.74,1.07.54,2.36,1.14,3.48,1.56,2.56.27,5.25.05,7.83.12,1.09,0,2.39,0,3.48,0,2.45-.73,4.75-2.19,6.96-3.45,5.52-3.19,10.94-7.11,17.39-8.07,3.72-.62,7.56-.19,11.31-.1,2.3.14,4.67-.62,6.96-.19,6.22,1.3,11.33,5.63,17.39,7.43,2.77.89,5.8,1.25,8.7.91,3.72-.59,7.5-1.63,11.31-1.19"/><path class="b" d="M8.6,198.73c2.62.6,5.2,1.68,7.83,2.22,5.43.94,11,2.08,16.52,1.22,4.76-.63,9.28-2.51,13.91-3.66,8.01-1.56,16.13-3.97,24.35-2.64,3.5.55,7.08,1.26,10.44,2.4,3.6,1.49,6.85,3.86,10.44,5.39,1.01.57,2.37.39,3.48.41,1.69,0,3.52,0,5.22,0,1.39,0,2.95,0,4.35,0,1.76-.58,3.56-1.49,5.22-2.31,9.8-5.03,14.55-8.01,26.09-7.44,7.23.23,7.98-2.01,15.65,1.12,6.65,2.8,13.51,5.74,20.87,4.08,3.4-.79,6.92-1.59,10.44-1.29"/><path class="b" d="M8.6,192.43c2.31.45,4.65,1.2,6.96,1.67,4.86.77,9.87,1.35,14.78.81,5.69-.56,11.04-2.78,16.52-4.23,5.38-1.31,11.05-1.67,16.52-.74,5.03.8,9.87,2.58,14.78,3.86,4.66.81,8.77,3.31,13.05,5.2.72.45,1.8.36,2.61.36,1.09,0,2.39,0,3.48,0,3.16,0,6.4,0,9.57,0,1.69-.09,3.57.22,5.22-.21,4.37-1.48,8.57-3.63,13.05-4.83,6.21-1.84,12.8-1.25,19.13-2.27,6.22-.15,12.07,2.79,18.26,3.07,7.07.67,13.86-2.15,20.87-2.32"/><path class="b" d="M8.6,186.81c8.93.97,18.03,1.79,26.96.3,4.97-.72,9.83-2.22,14.78-3.01,3.48-.41,7.07.1,10.44,1.02,4.72,1.28,9.25,3.33,13.91,4.77,3.38,1.13,7.05,1.29,10.44,2.42,2.31.69,4.67,1.57,6.96,2.32,4.04,0,8.14,0,12.18,0,6.37,0,12.77,0,19.13,0,2.33-.29,4.63-1.39,6.96-1.8,3.41-.79,6.96-1.17,10.44-1.47,6.37-.95,12.75.91,19.13.39,3.8-.22,7.58-1.13,11.31-1.86,4.02-.61,8.13-1.17,12.18-1.59"/><path class="b" d="M8.6,182.66c10.99-.94,22.04.03,33.05-.37,2.91-.09,5.83-.73,8.7-1.18,7.53-.65,14.58,2.84,21.74,4.6,5.08,1.51,10.47,1.19,15.65,2.09,2.95.38,5.81,1.52,8.7,2.11,3.46,0,6.98,0,10.44,0,11.59-.05,23.2.09,34.79-.05,4.33-.19,8.73.29,13.05-.31,5.4-.61,10.43-2.92,15.65-4.24,1.95-.52,4.09-.48,6.09-.51,2.28-.08,4.67-.27,6.96-.35"/><path class="b" d="M8.6,179.91c6.56-1.32,13.34-2.01,20-1.1,4.36.53,8.68,1.67,13.04,2.21,2.9.44,5.85.07,8.7-.5,2.57-.33,5.25-.26,7.83-.08,5.78.45,11.59,1.09,17.39,1.03,4.62.13,9.3-.53,13.91-.14,2.68.26,5.39,1.05,7.83,2.18,1.11.48,2.33,1.3,3.48,1.68.77,0,1.84,0,2.61,0,14.49,0,28.99,0,43.48,0,2.58,0,5.25,0,7.83,0,1.4-.07,3.06.26,4.35-.42,12.56-5.63,10.3-5.9,24.35-4.16"/><path class="b" d="M8.6,177.66c13.8-3.01,18.22-1.94,31.31,2.34,1.93.7,4.08.43,6.09.47,3.51.22,6.99-.58,10.44-1.11,3.78-.6,7.59-1.39,11.31-2.3,3.72-.89,7.48-1.94,11.31-2.24,9.18-.69,13.66-2.03,21.74,3.93.76.54,1.71,1.43,2.61,1.73,1.09,0,2.39,0,3.48,0,6.66,0,13.35,0,20,0,8.4,0,16.82,0,25.22,0,1.39,0,2.96,0,4.35,0,1.85-.42,3.55-1.72,5.22-2.58,9.65-5.77,11.01-5.71,21.74-2.09"/><path class="b" d="M8.6,174.11c5.48-.47,11.02-1.42,16.52-.65,3.24.4,6.47,1.28,9.57,2.27,1.7.02,3.52,0,5.22,0,4.04,0,8.14,0,12.18,0,2.3-.12,4.8.4,6.96-.58,5.83-1.99,11.34-5.1,17.39-6.4,2.55-.51,5.25-.25,7.83-.49,6.71-.62,12.21,1.4,17.39,5.59.76.58,1.73,1.48,2.61,1.88,1.69,0,3.52,0,5.22,0,8.11,0,16.24,0,24.35,0,5.49,0,11.03,0,16.52,0,.41,0,1.32,0,1.74,0,.78-.28,1.86-.74,2.61-1.1,2.38-1.14,4.73-2.59,6.96-4,9.04-5.86,12-6.63,21.74-1.15"/><path class="b" d="M8.6,168.41c7.57-.2,15.22.03,22.61,1.82,1.09.24,2.38.59,3.48.79.78,0,1.83,0,2.61,0,2.58,0,5.25,0,7.83,0,2.29,0,4.67,0,6.96,0,1.74.04,3.61.1,5.22-.69,6.07-2.14,11.84-5.45,18.26-6.45,1.99-.32,4.11-.07,6.09.19,1.69.16,3.53.27,5.22.45,6.01.49,11.62,3.1,16.52,6.49,11.88,0,23.78,0,35.66,0,1.69,0,3.52,0,5.22,0,7-1.33,13.06-5.35,19.13-8.87,8.15-4.83,12.67-4.05,20,1.73"/><path class="b" d="M8.6,161.88c3.49.08,7.02.4,10.44,1.13,3.45.61,6.98,1.15,10.44,1.73,4.31.64,8.66,1.71,13.04,1.56,2.57-.08,5.27.18,7.83-.14,3.24-.6,6.45-1.65,9.57-2.67,5.31-1.73,10.85-3.68,16.52-3.14,2.05.17,4.11.92,6.09,1.44,2.58.69,5.26,1.33,7.83,2.04,1.71.48,3.54,1.04,5.22,1.62,1.07.35,2.32.97,3.48.84,13.91-.05,27.84.1,41.74-.05,7.72-2.28,14.57-6.63,21.74-10.14,8.65-4.11,13.83-3.41,20.87,3.21"/><path class="b" d="M8.6,155.76c2.62.11,5.32.45,7.83,1.23,3.09,1.07,6.34,1.9,9.57,2.45,7.73,1.29,15.67,1.52,23.48.94,3.51-.37,6.99-1.34,10.44-2.11,4.81-1.1,9.91-1.75,14.78-.65,3.36.69,6.45,2.4,9.57,3.77,2.53.45,5.26.08,7.83.19,4.62,0,9.29,0,13.91,0,7.82,0,15.66,0,23.48,0,2.58,0,5.25,0,7.83,0,1.09-.01,2.4.04,3.48-.06.41-.2,1.32-.6,1.74-.79,10.02-4.42,19.68-12.81,31.31-10.84,3.73.67,6.79,3.3,9.57,5.71"/><path class="b" d="M8.6,151.08c3.31.11,6.59,1.02,9.57,2.45,2.76,1.15,5.74,1.99,8.7,2.44,5.46.86,11.04.45,16.52.1,3.76-.24,7.6-.11,11.31-.9,5.13-.96,10.45-1.98,15.65-.99,1.74.31,3.58.86,5.22,1.52.79.32,1.84.81,2.61,1.16.44,0,1.3,0,1.74,0,9.27,0,18.56,0,27.83,0,7.53,0,15.08,0,22.61,0,2.58,0,5.25,0,7.83,0,1.4-.11,3.09.33,4.35-.4,5.77-2.94,11.13-6.91,17.39-8.78,5.05-1.56,10.58-1.46,15.65-.1,2.87.99,5.43,2.9,7.83,4.73"/><path class="b" d="M8.6,148.67c2.35.22,4.77.77,6.96,1.68,1.41.55,2.84,1.53,4.35,1.79,4.04,0,8.14,0,12.18,0,5.78,0,11.61,0,17.39,0,2.58,0,5.25,0,7.83,0,1.71-.16,3.51-.7,5.22-.91,2.56-.38,5.26-.46,7.83-.07,2.01.28,4.02,1.19,6.09.97,12.17,0,24.36,0,36.53,0,6.66,0,13.35,0,20,0,2.28,0,4.67,0,6.96,0,.77,0,1.84,0,2.61,0,.43-.16,1.33-.56,1.74-.79,5.31-2.79,10.54-6.14,16.52-7.23,4.6-.91,9.35-.24,13.91.57,3.14.69,5.99,2.46,8.7,4.12"/><path class="b" d="M8.6,147.26c1.67.32,3.53.09,5.22.16,2.58,0,5.25,0,7.83,0,8.11,0,16.24,0,24.35,0,22.61,0,45.23,0,67.83,0,6.37,0,12.77,0,19.13,0,2.58,0,5.25,0,7.83,0,2.3-.82,4.69-1.73,6.96-2.66,6.6-2.85,13.67-4.48,20.87-3.59,2.58.31,5.29.44,7.83.98,2.38.59,4.74,1.63,6.96,2.66"/><path class="b" d="M8.6,142.69c33.62,0,67.26,0,100.88,0,6.07,0,12.19,0,18.26,0,2.87-.03,5.83.07,8.7-.05,1.06-.54,2.37-1.13,3.48-1.55,4.18-1.39,8.68-1.94,13.05-2.45,5.2-.51,10.47-.1,15.65.33,2.57.25,5.25.18,7.83.3,2.32.18,4.71.67,6.96,1.24"/><path class="b" d="M8.6,137.97c36.23,0,72.47,0,108.71,0,4.91,0,9.87,0,14.78,0,1.56-.2,2.91-1.6,4.35-2.22,2.11-1.13,4.52-2.09,6.96-2.07,7.91-.15,15.62,2.19,23.48,2.71,5.52.53,11-1.09,16.52-.82"/><path class="b" d="M8.6,133.25c22.32,0,44.65,0,66.96,0,10.14,0,20.3,0,30.44,0,7.82,0,15.66,0,23.48,0,1.28-.09,2.39-1.27,3.48-1.86,1.89-1.21,3.95-2.45,6.09-3.18,4.03-1.37,8.29.43,12.18,1.54,6.95,2.36,14.39,4.53,21.74,2.83,3.49-.77,6.91-2.1,10.44-2.69"/><path class="b" d="M8.6,128.53c20.58,0,41.17,0,61.75,0,5.49,0,11.03,0,16.52,0,2.04-.6,3.92-2.06,6.09-2.57,4.85-1.58,9.59.46,13.91,2.57,1.69,0,3.53,0,5.22,0,4.62,0,9.29,0,13.91,0,.42,0,1.32,0,1.74,0,1.52-.44,2.96-1.53,4.35-2.26,6.08-3.52,8.8-4.84,15.65-2.04,4.27,1.57,8.5,3.64,13.05,4.3,2.87,0,5.83,0,8.7,0,4.9-.71,9.26-3.35,13.91-4.86"/><path class="b" d="M8.6,123.8c13.04,0,26.1,0,39.14,0,1.48.14,2.92-.79,4.35-1.02,1.68-.34,3.53-.35,5.22-.12,1.73.2,3.52.79,5.22,1.14,1.7,0,3.52,0,5.22,0,5.2,0,10.45,0,15.65,0,.55.11,1.31-.16,1.74-.49.77-.52,1.83-1.22,2.61-1.71,2.36-1.49,5.01-2.86,7.83-3.18,3.68-.46,7.26,1.08,10.44,2.79,1.94.9,3.91,2.41,6.09,2.6,5.2-.09,10.47.19,15.65-.11,4.58-1.64,8.89-4.82,13.91-4.81,4.5.52,8.68,2.63,13.05,3.73,7.01,2.12,14.22,1,20.87-1.81,2.59-1.11,5.17-2.53,7.83-3.49"/><path class="b" d="M8.6,118.55l.87.54c7.82,0,15.66,0,23.48,0,3.74-.09,7.58.18,11.31-.12,1.98-.8,4.02-1.81,6.09-2.35,3.72-.91,7.64-.23,11.31.62,3.71.82,7.46,2.07,11.31,1.85,2.32.02,4.76.14,6.96-.75,3.61-1.33,6.8-3.73,10.44-5.01,11.36-4.06,16.13,6.59,26.09,5.76,1.99,0,4.1,0,6.09,0,1.73.05,3.6.05,5.22-.68,4.85-1.57,9.51-4.84,14.78-4.42,4.98.77,9.78,2.62,14.78,3.29,5.84.92,11.81-.07,17.39-1.85,2.94-.97,5.79-2.46,8.7-3.52"/><path class="b" d="M8.6,111.49c1.62,1.04,3.41,2.08,5.22,2.73,2.55.32,5.25.05,7.83.14,2.58,0,5.25.01,7.83-.01,4.08-.5,8.16-1.34,12.18-2.18,4.57-.98,9.24-2.01,13.91-1.09,11.92,2.19,18.18,1.82,29.57-2.61,11.68-4.39,15.48,1.52,25.22,5.35,2.79.87,5.82.45,8.7.54,6.23.3,11.7-3.44,17.39-5.43,1.63-.58,3.47-1.06,5.22-1.09,3.21.13,6.43.95,9.57,1.58,11.85,2.72,20.64,2.96,32.18-1.39"/><path class="b" d="M8.6,104.65c2.71,1.27,5.66,2.44,8.7,2.49,6.16.02,12.14-2.01,18.26-2.48,4.91-.43,9.94-.16,14.78.76,3.46.81,6.89,2.11,10.44,2.53,5.4.79,10.67-1.1,15.65-2.96,3.37-1.12,6.94-1.93,10.44-2.53,5.15-.87,10.3.8,14.78,3.26,2.79,1.42,5.6,3.17,8.7,3.84,1.38.18,2.96.06,4.35.1,1.71.05,3.55-.01,5.22-.41,6.43-1.24,12.04-4.96,18.26-6.82,2.81-.89,5.83-.54,8.7-.16,4.08.53,8.16,1.44,12.18,2.33,8.72,2.05,15.41,3.03,24.35,1.09"/><path class="b" d="M8.6,99.03c6.33,1.61,10.32,1.88,16.52-.3,3.92-1.24,8.02-2.39,12.18-2.17,5.84.34,11.4,2.73,16.52,5.41,3.46,1.79,7.35,3.26,11.31,2.77,4.34-.46,8.16-2.87,12.18-4.38,1.63-.63,3.51-.83,5.22-1.11,1.98-.31,4.08-.57,6.09-.57,3.57-.02,7.14.88,10.44,2.19,3.43,1.31,6.79,3.16,10.44,3.81,3.17.39,6.46-.14,9.57-.78,7.51-1.55,14.14-6.08,21.74-7.19,6.75-.32,13.57.89,20,2.91,3.74,1.15,7.48,2.57,11.31,3.44,3.7.73,7.54,1.15,11.31,1.21"/><path class="b" d="M8.6,95.1c11.89.68,10.39.32,20.87-4.18,7.66-3.23,14.21-.82,20.87,3.35,3.11,2.04,6.09,4.5,9.57,5.91,3.45.01,6.98.08,10.44-.03,2.62-.93,5.15-2.34,7.83-3.1,5.71-.92,11.62-1.86,17.39-.97,6.09.87,12,3.85,18.26,2.7,8.66-.74,16.73-4.3,25.22-5.82,2.27-.37,4.67-.27,6.96-.23,4.09.06,8.24.5,12.18,1.63,3.25.91,6.45,2.23,9.57,3.51,2.25.84,4.56,2.04,6.96,2.33,2.87,0,5.83,0,8.7,0"/><path class="b" d="M8.6,92.63c1.99-.12,4.1-.25,6.09-.37,1.73-.1,3.61-.17,5.22-.88,4.31-1.83,7.92-5.05,12.18-6.99,6.95-3.55,14.24-.88,20,3.64,3.75,2.86,7.44,6.38,12.18,7.44,1.99,0,4.1,0,6.09,0,2.35-.37,4.66-1.36,6.96-1.95,1.95-.53,4.11-.48,6.09-.89,3.73-.7,7.5-1.64,11.31-1.85,3.47-.23,7,.14,10.44.54,2.86.39,5.82.34,8.7.07,2.58-.14,5.25-.21,7.83-.31,6.95-.17,13.91-1.08,20.87-1.05,4.33.09,8.73-.26,13.05.28,3.55.41,7.09,1.39,10.44,2.63,2.31.75,4.58,2.05,6.96,2.53,3.45,0,6.98,0,10.44,0"/><path class="b" d="M8.6,89.98c3.42-.91,7.15-1.29,10.44-2.58,3.51-1.75,6.43-4.58,9.57-6.88,7.39-5.78,13.72-6.2,21.74-1.33,5.69,3.86,10.84,10.01,18.26,9.99,3.25.03,6.41-1.12,9.57-1.7,6.3-.32,12.08-3.21,18.26-4.17,4.58-.8,9.29-.34,13.91-.53,6.17-.72,12.31.84,18.26,2.32,5.96,1.44,12.08,3.04,18.26,2.71,6.06-.43,12.25-1.31,18.26.06,2.96.62,5.91,1.65,8.7,2.81,3.16.17,6.4.02,9.57.07"/><path class="b" d="M8.6,86.03c3.18-1.27,6.46-2.52,9.57-3.95,4.16-2.41,7.42-6.16,11.31-8.95,7.17-5.46,13.22-4.45,20.87-.66,3.32,1.96,6.26,4.65,9.57,6.64,5.04,3.23,10.03,3.35,15.65,1.8,2.83-.78,5.89-.72,8.7-1.59,4.87-1.44,9.69-3.36,14.78-3.83,3.15-.35,6.4-.23,9.57-.29,2.29-.06,4.67-.48,6.96-.23,6.8.61,12.93,3.98,19.13,6.57,4.63,2.04,9.71,3.38,14.78,2.6,7.54-1.04,15.29-2.73,22.61.3,1.11.43,2.42,1.04,3.48,1.59,2.58,0,5.25,0,7.83,0"/><path class="b" d="M8.6,80.61c4.17-2.25,8.57-4.39,12.18-7.52,5.01-4.28,10.24-10.1,17.39-9.77,3.93.22,7.59,2.02,11.31,3.16,3.4,1.44,6.35,3.86,9.57,5.63,9.06,5.21,13.55,1.52,22.61.44,4.63-.88,9.18-2.48,13.91-2.8,4.63-.43,9.29.46,13.91.39,11.88-1.72,18.24,1.88,28.7,6.47,4.07,1.84,8.6,2.59,13.05,2.08,5.76-.51,11.65-1.75,17.39-.43,1.43.32,3.01.85,4.35,1.46,1.11.44,2.28,1.4,3.48,1.58,2.28,0,4.67,0,6.96,0"/><path class="b" d="M8.6,74.26c4.69-2.54,9.13-5.69,13.04-9.32,6.6-6.06,12.03-9.49,20.87-5.37,2.58,1.22,5.13,1.99,7.83,2.8,2.08.83,4.12,2.06,6.09,3.13,5.26,3.07,10.55,4.42,16.52,2.68,2.57-.66,5.18-1.56,7.83-1.84,3.15-.48,6.37-1.14,9.57-1.24,2.9-.11,5.87.24,8.7.85,4.55.96,9.24,2.64,13.91,1.51,8.98-1.84,15.62-2.05,24.35,1.21,3.68,1.3,7.39,2.83,11.31,3.21,5.18.63,10.48.25,15.65.98,2.34.33,4.76.93,6.96,1.82,1.45.47,2.84,1.66,4.35,1.89,2.58,0,5.25,0,7.83,0"/><path class="b" d="M8.6,68.4c3.79-1.77,7.29-4.26,10.44-7,4.77-4.23,10.42-9.84,17.39-8.1,3.38.76,6.39,2.71,9.57,4.02,2.28.83,4.83,1.17,6.96,2.41,10.62,5.84,13.5,6.7,25.22,3.07,5.99-1.33,12.38-1.75,18.26.29,5.36,1.55,10.78,5.12,16.52,3.48,4.74-1.26,9.14-3.7,13.91-4.84,9.98-2.58,15.86,2.07,25.22,3.91,6.46,1.45,13.11,2.6,19.13,5.47,1.52,1.04,3.48.73,5.22.76,2.28,0,4.67,0,6.96,0"/><path class="b" d="M8.6,64.04c3.79-1.51,7.3-3.83,10.44-6.42,4.64-3.86,9.99-8.82,16.52-7.54,3.4.61,6.45,2.47,9.57,3.86,2.51,1.14,5.43,1.33,7.83,2.77,3.69,1.93,7.25,4.36,11.31,5.48,4.59,1.4,9.38.27,13.91-.77,3.98-.72,8.14-1.16,12.18-.64,5.45.63,10.41,3.22,15.65,4.63,4.63,1.43,9.07-.43,13.05-2.74,3.94-2.21,7.84-4.73,12.18-6.08,5.83-1.9,10.11-.53,15.65,1.31,4.66,1.4,9.39,2.81,13.91,4.61,3.25,1.28,6.49,2.78,9.57,4.43,1.64.43,3.53.12,5.22.21,2.58,0,5.25,0,7.83,0"/><path class="b" d="M8.6,60.08c3.66-1.63,7.17-3.75,10.44-6.06,5.03-3.73,10.86-7.63,17.39-5.57,3.33.92,6.36,2.79,9.57,4,1.35.54,2.96.7,4.35,1.11,2.39.74,4.71,1.95,6.96,3.02,5.44,2.8,11.27,4.26,17.39,3.46,6.65-.84,13.47-.76,20,.84,2,.45,4.1,1.02,6.09,1.51,3.75.07,7.56,0,11.31.03.77,0,1.84,0,2.61,0,2.47-.85,4.75-2.42,6.96-3.79,4.15-2.67,8.3-5.63,13.05-7.15,1.92-.61,4.07-.94,6.09-.82,2.02.17,4.1.72,6.09,1.07,5.8,1.06,11.46,3.08,16.52,6.13,2.34,1.37,4.71,2.95,6.96,4.47,4.32.23,8.72.02,13.05.09"/><path class="b" d="M8.6,56.37c3.2-1.65,6.41-3.46,9.57-5.18,2.78-1.56,5.62-3.25,8.7-4.16,5.33-1.76,10.81.22,15.65,2.49,1.37.6,2.91,1.23,4.35,1.63,1.38.35,2.97.48,4.35.82,2.9.67,5.81,1.6,8.7,2.29,3.11.76,6.36,1.25,9.57,1.39,3.45.17,6.99-.05,10.44.22,4.08.33,8.14,1.2,12.18,1.83,1.69,0,3.52,0,5.22,0,5.78,0,11.61,0,17.39,0,1.18.09,2.41-.67,3.48-1.08,1.42-.64,2.98-1.43,4.35-2.17,5.07-2.69,10.02-5.94,15.65-7.31,3.68-.84,7.57-.32,11.31-.27,7.8.26,14.28,5.13,20,9.98,0,0,.87.71.87.71.39.1,1.33.18,1.74.15.76,0,1.85,0,2.61,0,2.87,0,5.83,0,8.7,0"/><path class="b" d="M8.6,52.87c3.37-1.86,6.87-3.63,10.44-5.08,2.5-1.08,5.14-2.13,7.83-2.63,4.08-.82,8.32-.03,12.18,1.39,2.57.9,5.16,2.05,7.83,2.65,2.26.44,4.67.5,6.96.58,7.83.29,15.66-1.44,23.48-.81,3.84.37,7.57,1.68,11.31,2.58,3.95,1.01,8.09,1.58,12.18,1.4,3.49-.13,6.99-.78,10.44-1.29,4.07-.56,8.2-1.24,12.18-2.29,5.85-1.46,11.47-3.9,17.39-5.07,3.76-.41,7.51-1.46,11.31-1.57,4.15-.09,8.1,1.8,11.31,4.31,2.44,1.77,4.54,4.16,6.96,5.94h13.05"/><path class="b" d="M8.6,48.25c.79,0,1.82,0,2.61,0,1.15-.24,2.38-.93,3.48-1.33,1.96-.76,4.09-1.41,6.09-2.07,6-2.09,12.2-2.22,18.26-.31,2.85.79,5.75,1.83,8.7,2.21,8.91.82,16.55-5.43,25.22-6.4,7.02-1.14,13.27,3.13,20,4.23,4.92.96,9.95.08,14.78-.95,4.58-1.13,9.32-.54,13.91.14,4.01.55,8.15.77,12.18.28,3.49-.44,7.02-1.18,10.44-2.02,2.85-.85,5.7-2.12,8.7-2.39,5.04-.57,9.53,2.51,13.04,5.8,1.32,1.01,2.45,3.1,4.35,2.81,4.33,0,8.72,0,13.05,0"/><path class="b" d="M8.6,43.53c3.75-.05,7.57.11,11.31-.08,3.93-1.21,8.03-2.27,12.18-2.23,3.21,0,6.45.6,9.57,1.29,2.55.58,5.2,1.18,7.83,1.01,6.55.08,14.5-7.68,20.87-10.17,5.23-2.38,9.56-1.93,14.78.09,4.72,1.74,9.69,3.31,14.78,3.06,4.64-.04,9.27-1.73,13.91-1.09,4.24.77,8.13,2.88,12.18,4.27,8.22,3.09,15.53,2.05,23.48-1.22,3.35-1.2,7.2-1.34,10.44.3,1.51.72,3.05,1.78,4.35,2.83.74.6,1.7,1.59,2.61,1.92,5.49,0,11.03,0,16.52,0"/><path class="b" d="M8.6,38.81c10.14,0,20.3,0,30.44,0,3.46,0,6.98,0,10.44,0,1.09,0,2.39,0,3.48,0,.84.01,1.91.11,2.61-.46,8.72-5.8,16.88-17.48,28.7-13.91,5.71,1.55,11.41,3.59,17.39,3.63,7.15.22,10.83-1.33,17.39,2.82,7.03,4.23,13.05,8.79,21.74,7.87,3-.27,5.86-1.52,8.7-2.44,3.06-1.02,6.5-1.32,9.57-.16,1.84.55,3.45,1.98,5.22,2.64.76,0,1.84,0,2.61,0,5.49,0,11.03,0,16.52,0"/><path class="b" d="M8.6,34.09c10.72,0,21.46,0,32.18,0,3.46,0,6.98,0,10.44,0,1.4,0,2.95,0,4.35,0,.98.16,2-.38,2.61-1.12,6.12-5.68,11.72-12.91,20-15.44,3.39-.97,7.03-.53,10.44.12,4.03.79,8.1,1.74,12.18,2.25,3.73.53,7.59.64,11.31,1.27,5.08,1.46,8.87,5.57,13.05,8.6,2.15,1.61,4.46,3.29,6.96,4.31,1.99,0,4.1,0,6.09,0,2.87,0,5.83,0,8.7,0,1.42-.3,2.93-.96,4.35-1.28,2.53-.66,5.31-.74,7.83,0,1.12.3,2.36.96,3.48,1.28,2.28,0,4.67,0,6.96,0,4.62,0,9.29,0,13.91,0"/><path class="b" d="M8.6,29.36c10.72,0,21.46,0,32.18,0,3.75,0,7.56,0,11.31,0,2.23-.12,4.82.28,6.96-.23,6.84-7.11,14.23-15.02,24.35-16.93,4.3-.73,8.74-.32,13.05.21,3.17.41,6.41.91,9.57,1.45,2.29.46,4.77.72,6.96,1.57,5.69,2.8,9.71,8.09,14.78,11.78,1.04.74,2.26,1.72,3.48,2.14,1.39,0,2.95,0,4.35,0,3.46,0,6.98,0,10.44,0,.77,0,1.84,0,2.61,0,1.11-.22,2.38-.71,3.48-.95,3.14-.78,6.55-.6,9.57.56,1,.55,2.38.37,3.48.39,1.39,0,2.96,0,4.35,0,4.62,0,9.29,0,13.91,0"/><path class="b" d="M8.6,24.64h52.18c3.18-2.5,6.12-5.49,9.57-7.66,2.47-1.66,5.18-3.13,7.83-4.5,2.21-1.19,4.55-2.4,6.96-3.16,8.96-2.9,19.08-1.91,27.83,1.25,5.93,3.29,10.06,9.08,15.65,12.86.42.29,1.3.86,1.74,1.11.77.14,1.83.11,2.61.11,1.99,0,4.1,0,6.09,0,2.87,0,5.83,0,8.7,0,1.4-.44,2.93-1.04,4.35-1.41,3.1-.86,6.47-.91,9.57-.01,1.43.33,2.9,1.16,4.35,1.42,5.78,0,11.61,0,17.39,0"/></svg>