<?xml version="1.0" encoding="UTF-8"?><svg id="a" xmlns="http://www.w3.org/2000/svg" width="1920" height="2400" viewBox="0 0 192 240"><defs><style>.b{fill:none;stroke:#fff;stroke-miterlimit:10;stroke-width:.4px;}.c{stroke-width:0px;}</style></defs><rect class="c" x="0" width="192" height="240"/><path class="b" d="M8.53,232.23c16.53,0,33.08,0,49.61,0,1.18,0,2.38-.77,3.48-1.12,1.37-.51,2.93-1,4.35-1.36,3.4-.88,6.97-1.18,10.44-1.55,3.45-.46,6.95-1.27,10.44-.71,4.73.56,9.35,1.97,13.93,3.24,1.99.44,4.05,1.46,6.09,1.49,11.6-.05,23.22.11,34.82-.06,5.21-.46,10.43-1.43,15.67-1.54,4.11-.14,8.24.49,12.19,1.6,4.62,0,9.3,0,13.93,0"/><path class="b" d="M8.53,227.5c17.11,0,34.24,0,51.35,0,1.16.06,2.51,0,3.48-.71,1.38-.74,2.93-1.52,4.35-2.16,3.62-1.66,7.49-2.85,11.32-3.91,9.6-3.02,19.55.89,28.72,3.73,2.83.93,5.71,2.05,8.7,2.3,7.6.7,15.12-1.37,22.63-2.19,5.76-.66,11.64-1.01,17.41-.34,4.45.51,8.88,1.67,13.06,3.28,4.62,0,9.3,0,13.93,0"/><path class="b" d="M8.53,222.78c15.08,0,30.18,0,45.26,0,3.75,0,7.56,0,11.32,0,.94.19,1.86-.6,2.61-1.04,1.09-.68,2.38-1.47,3.48-2.13,3.05-1.81,6.27-3.55,9.57-4.85,6.9-2.89,14.73-2.87,21.76-.44,3.54,1.1,6.97,2.7,10.44,3.97,8.77,3.14,18.1.88,26.98-.47,5.18-.76,10.53-.63,15.67.41,3.23.64,6.47,1.61,9.57,2.73,1.71.53,3.46,1.51,5.22,1.82,4.33,0,8.72,0,13.06,0"/><path class="b" d="M8.53,218.05c15.66,0,31.34,0,47,0,25.28-.1,9.4,1.62,30.46-8.94,6.24-3.21,12.68-3.6,19.15-.78,3.8,1.53,7.4,3.71,11.32,4.97,8.43,2.98,16,.88,24.37-.77,4.9-.86,9.98-.46,14.8.68,5.06,1.13,9.9,3.17,14.8,4.83,4.33,0,8.72,0,13.06,0"/><path class="b" d="M8.53,213.32h69.63c7.63-4.94,15.2-13.89,25.24-10.34,4.59,1.52,8.6,4.45,13.06,6.29,4.62,2.04,9.84,2.7,14.8,1.67,3.51-.65,6.95-1.91,10.44-2.6,7.33-1.39,14.79.51,21.76,2.72,2.29.72,4.67,1.52,6.96,2.25,4.33.06,8.72,0,13.06.02"/><path class="b" d="M8.53,208.6c4.33,0,8.72,0,13.06,0,2.58-.1,5.24-.83,7.83-.31,3.11.63,6.41.19,9.57.31,4.92,0,9.88,0,14.8,0,6.66,0,13.36,0,20.02,0,3.74-.11,7.6.24,11.32-.16,6.4-6.16,12.71-11.36,21.76-6.74,3.78,1.83,7.36,4.22,11.32,5.66,4.41,1.69,9.44,1.66,13.93.29,3.49-1.01,6.87-2.65,10.44-3.39,8.55-1.58,17.07,1.24,25.24,3.46,1.08.29,2.37.68,3.48.86,1.09,0,2.39,0,3.48,0,2.87,0,5.83,0,8.7,0"/><path class="b" d="M8.53,203.87c3.46,0,6.99.02,10.44-.01,2.57-.3,5.24-.77,7.83-.49.8.08,1.84.3,2.61.5,1.4,0,2.95,0,4.35,0,3.46,0,6.99,0,10.44,0,9.86,0,19.74,0,29.59,0,4.63,0,9.3,0,13.93,0,.44,0,1.31,0,1.74,0,.88-.39,1.84-1.28,2.61-1.84,2.73-2.03,6.11-3.54,9.57-3.29,4.73.33,8.77,3.2,13.06,4.92,1.06.34,2.39.17,3.48.2,1.99,0,4.1,0,6.09,0,1.39,0,2.96,0,4.35,0,1.11,0,2.47.12,3.48-.44,3.18-1.31,6.27-3.06,9.57-4.05,8.48-2.24,17.09.98,25.24,3.14,1.97.49,4.06,1.15,6.09,1.34,3.46,0,6.99,0,10.44,0"/><path class="b" d="M8.53,199.15c26.69,0,53.39,0,80.08,0,2.58-.02,5.25.04,7.83-.03,1.61-.68,3.47-1.11,5.22-1.15,2.37-.14,4.69.74,6.96,1.18,1.99,0,4.1,0,6.09,0,3.75,0,7.56,0,11.32,0,1.09,0,2.39,0,3.48,0,1.14.04,2.51.05,3.48-.66,3.84-2.03,7.72-4.58,12.19-4.79,7.85-.37,15.11,3.37,22.63,5.02,1.94.58,4.09.41,6.09.43,3.17,0,6.41,0,9.57,0"/><path class="b" d="M8.53,194.42c35.68,0,71.37,0,107.06,0,5.5,0,11.04,0,16.54,0,1.55-.31,2.94-1.54,4.35-2.21,2.65-1.47,5.61-2.82,8.7-2.79,6.37.12,12.18,3.33,18.28,4.82,2.24.42,4.68.08,6.96.18,4.33,0,8.72,0,13.06,0"/><path class="b" d="M8.53,189.7c27.85,0,55.71,0,83.56,0,10.73,0,21.48,0,32.2,0,2.87,0,5.83,0,8.7,0,1.24-.01,2.38-1.07,3.48-1.55,1.89-.99,3.98-1.93,6.09-2.31,5.47-.8,10.58,2.15,15.67,3.68,1.36.35,2.96.13,4.35.19,2.58,0,5.25,0,7.83,0,2.87-.01,5.83.02,8.7-.02,1.38-.29,2.95-.56,4.35-.7"/><path class="b" d="M8.53,184.61c1.91.66,4.1.26,6.09.36,2.88,0,5.83,0,8.7,0,8.4,0,16.84,0,25.24,0,24.37,0,48.75,0,73.11,0,4.33,0,8.72,0,13.06,0,3.03-1.31,6.17-2.98,9.57-2.83,2.68.12,5.33,1.08,7.83,1.98.75.28,1.82.68,2.61.86.76,0,1.85,0,2.61,0,6.08-.09,12.22.18,18.28-.11,2.61-.97,5.17-2.33,7.83-3.18"/><path class="b" d="M8.53,177.2c1.82.75,3.64,1.85,5.22,3.02,31.62.08,63.25,0,94.87.03,8.69,0,17.42,0,26.11,0,1.5.17,2.96-.71,4.35-1.11,3.09-1.09,6.5-.87,9.57.17.77.24,1.85.59,2.61.85,1.68.19,3.53.05,5.22.09,3.17,0,6.41,0,9.57,0,1.99,0,4.1,0,6.09,0,4.14-.64,7.52-3.64,11.32-5.23"/><path class="b" d="M8.53,170.16c2.87,1.2,5.5,3.1,7.83,5.13,1.93.48,4.11.11,6.09.22,3.46,0,6.99,0,10.44,0,12.47,0,24.96,0,37.43,0,18.27,0,36.56,0,54.84,0,3.75,0,7.56,0,11.32,0,2.82-.76,5.72-1.88,8.7-1.35,2.04.21,4.08,1.04,6.09,1.35,4.33,0,8.72,0,13.06,0,2.58,0,5.25,0,7.83,0,4.09-.93,7.55-3.51,11.32-5.23"/><path class="b" d="M8.53,163.84c2.85,1.19,5.47,3.05,7.83,5.01.79.61,1.64,1.62,2.61,1.94,1.1,0,2.38,0,3.48,0,12.47,0,24.96,0,37.43,0,16.24,0,32.5,0,48.74,0,9.57,0,19.16,0,28.72,0,1.45.08,2.91-.88,4.35-1.05,1.67-.32,3.53-.31,5.22-.16,2.61.19,5.24.9,7.83,1.21,4.04,0,8.14,0,12.19,0,1.99,0,4.1,0,6.09,0,1.39-.07,3,.19,4.35-.22,2.02-.77,4.08-1.78,6.09-2.56"/><path class="b" d="M8.53,159.37c2.47,1.06,4.83,2.62,6.96,4.25,1.35.86,2.58,2.68,4.35,2.44,10.15,0,20.32,0,30.46,0,13.63,0,27.28,0,40.91,0,15.37,0,30.76,0,46.13,0,.77,0,1.85.04,2.61-.14.75-.3,1.83-.65,2.61-.83,2.54-.54,5.23-.87,7.83-.9,4.42-.16,8.77,1.02,13.06,1.86,6.66,0,13.36,0,20.02,0"/><path class="b" d="M8.53,157.02c2.45,1.11,4.79,2.67,6.96,4.23,4.61.23,9.3.02,13.93.09,10.44,0,20.9,0,31.33,0,23.79,0,47.59,0,71.37,0,2.87-.05,5.84.1,8.7-.07,3.1-1.2,6.34-2.31,9.57-3.08,2.84-.62,5.9-.61,8.7.19,2.43.61,4.7,1.95,6.96,2.96,5.79,0,11.62,0,17.41,0"/><path class="b" d="M8.53,156.06c.75.48,1.75.62,2.61.56,1.1,0,2.39,0,3.48,0,3.46,0,6.99,0,10.44,0,9.57,0,19.16,0,28.72,0,13.63,0,27.28,0,40.91,0,1.99-.04,4.11.09,6.09-.07,2.84-.59,5.86-.5,8.7.06,6.95.04,13.94,0,20.89.02,2.29,0,4.68,0,6.96,0,1.08,0,2.4,0,3.48,0,.82-.12,1.85-.65,2.61-.96,9.8-5.06,14.27-6.9,23.5.87,5.48.25,11.04.02,16.54.1"/><path class="b" d="M8.53,151.89c25.82,0,51.65,0,77.47,0,.78,0,1.83,0,2.61,0,1.51-.47,2.91-1.62,4.35-2.26,4.78-2.55,10.43-3.22,15.67-1.83,2.41.53,4.85,1.38,6.96,2.66.76.44,1.8,1.08,2.61,1.42,1.09,0,2.39,0,3.48,0,4.33,0,8.72,0,13.06,0,1.99,0,4.1,0,6.09,0,.85-.05,1.85-.63,2.61-.97,6.4-3.44,11.83-8.28,19.15-3.53,1.16.73,2.45,1.74,3.48,2.64.72.6,1.61,1.73,2.61,1.86,4.92,0,9.88,0,14.8,0"/><path class="b" d="M8.53,147.16c22.92,0,45.84,0,68.76,0,1.23.11,2.41-.09,3.48-.72,1.75-.85,3.55-1.92,5.22-2.91,4.3-2.56,8.86-5.16,13.93-5.7,4.44-.46,9.01.63,13.06,2.43,2.14,1.12,4.16,2.7,6.09,4.13,1.36.91,2.75,2.3,4.35,2.76,2.29,0,4.68,0,6.96,0,4.04,0,8.14,0,12.19,0,1.23.16,2.43-.82,3.48-1.33,1.38-.79,2.93-1.7,4.35-2.41,7.4-3.9,12.34-1.04,18.28,3.74h14.8"/><path class="b" d="M8.53,142.44c19.43,0,38.88,0,58.32,0,.45,0,1.3,0,1.74,0,.45-.23,1.31-.71,1.74-.96,1.67-.95,3.48-1.94,5.22-2.75,2.2-1.1,4.69-1.69,6.96-2.59,3.23-1.32,6.37-3.04,9.57-4.41,6.61-3.05,14.31-3.69,20.89-.2,3.2,1.89,5.9,4.63,8.7,7.03,1.06.93,2.36,2,3.48,2.84.66.55,1.71,1.2,2.61,1.03,4.62,0,9.3,0,13.93,0,1.39,0,2.96,0,4.35,0,.41,0,1.32,0,1.74,0,.42-.15,1.33-.5,1.74-.7,3.52-1.54,7.48-2.55,11.32-1.75,1.44.28,3.01.82,4.35,1.42.75.34,1.77.96,2.61,1.03,5.21,0,10.46,0,15.67,0"/><path class="b" d="M8.53,137.71h50.48c5.44-3.46,10.96-7.24,17.41-8.47,1.68-.37,3.53-.47,5.22-.73,2.03-.34,4.13-.95,6.09-1.58,6.69-2.19,13.75-5.19,20.89-3.49,3.7.76,6.81,3.14,9.57,5.59,3.38,2.95,6.67,6.19,10.44,8.65,18.27.11,36.56,0,54.83.04"/><path class="b" d="M8.53,132.98c10.15,0,20.32,0,30.46,0,3.17,0,6.41,0,9.57,0,1.4,0,2.95,0,4.35,0,.94-.24,1.87-1.17,2.61-1.76,8.39-7.13,13.74-11.14,25.24-9.24,4.66.43,9.36-.32,13.93-1.16,17.36-3.69,18.81,1.89,32.2,10.13,1.35.73,2.85,1.66,4.35,2.02,1.69,0,3.53,0,5.22,0,3.75,0,7.56,0,11.32,0,11.89,0,23.8,0,35.69,0"/><path class="b" d="M8.53,128.26h41.78c7.23-5.67,13.84-15.99,24.37-13.6,5.19,1.23,10.3,3.13,15.67,3.51,5.19.55,10.48-.01,15.67.58,4.03.39,7.65,2.44,11.32,4,4.42,1.95,9.09,3.59,13.93,4.07,2.57.27,5.26.25,7.83.07,1.99-.1,4.1-.49,6.09-.33,2.64.22,5.28,1.03,7.83,1.7,10.15,0,20.32,0,30.46,0"/><path class="b" d="M8.53,123.53h40.91c4.49-3.33,7.83-8.07,12.19-11.56,6.62-5.51,11.77-4.54,19.15-1.39,5.65,2.33,11.39,4.64,17.41,5.86,3.46.77,7.04,1.31,10.44,2.32,2.03.6,4.05,1.61,6.09,2.17,3.07.91,6.38,1.23,9.57.95,4.15-.33,8.2-1.59,12.19-2.72,2.81-.73,5.77-1.69,8.7-1.43,6,.86,11.33,4.45,17.41,5.05,7,1.05,13.91-2.41,20.89-.93"/><path class="b" d="M8.53,118.81c13.63,0,27.28,0,40.91,0,1.53.28,2.53-.93,3.48-1.9,1.13-1.16,2.41-2.6,3.48-3.81,2.43-2.74,4.94-5.63,7.83-7.91,5.31-4.32,10.62-4.2,16.54-1.21,4.86,2.43,9.22,5.84,13.93,8.54,4.36,2.6,9.11,4.55,13.93,6.12,2.83.41,5.84.06,8.7.17,2.28-.07,4.7.16,6.96-.13,1.11-.48,2.42-1.12,3.48-1.7,5.14-2.7,9.88-6.64,15.67-7.86,3.67-.52,7.22,1.25,10.44,2.78,3.36,1.64,6.8,3.38,10.44,4.31,2.52.65,5.24.88,7.83.69,3.74-.38,7.57-1.02,11.32-.32"/><path class="b" d="M8.53,114.08c14.5-.02,29.02.04,43.52-.02,6.43-5.82,11.87-16.53,20.89-18.25,8.06-.89,13.64,6.42,19.15,11.15,2.71,2.48,5.59,4.95,8.7,6.91,1.06.36,2.38.18,3.48.22,1.99,0,4.1,0,6.09,0,4.33,0,8.72,0,13.06,0,.77,0,1.84,0,2.61,0,1.2-.55,2.42-1.57,3.48-2.34,2.86-2.15,5.71-4.49,8.7-6.45,3.04-2.05,6.74-3.78,10.44-2.64,7.99,2.3,14.19,9.12,22.63,10.18,4.04.33,8.15-.6,12.19.12"/><path class="b" d="M8.53,109.11c2.86-.41,5.8-1.07,8.7-.87,2.63.09,5.19,1.29,7.83,1.11,8.69,0,17.42,0,26.11,0,7.58-5.26,13.59-18.07,23.5-18.95,5.94-.21,10.15,4.82,13.93,8.73,3.3,3.53,6.6,7.23,10.44,10.19,9.27.09,18.58,0,27.85.03.91.17,1.89-.5,2.61-.98,1.41-.92,2.97-1.99,4.35-2.95,2.54-1.76,5.15-3.61,7.83-5.14,2.56-1.63,5.75-2.25,8.7-1.51,6.73,1.67,11.95,6.76,18.28,9.36,2.44,1.1,5.19,1.35,7.83,1.19,2.29-.01,4.68.05,6.96.03"/><path class="b" d="M8.53,102.39c6.32-2.21,9.15-2.22,15.67-.91,8.23,1.7,16.95,4.1,25.24,1.46,8.02-3.67,12.74-12.25,20.89-15.76,6.82-2.99,12.05,1.21,16.54,6.01,3.85,3.96,7.55,8.3,12.19,11.39,11.01.17,22.06,0,33.08.06,2.76-.65,5.34-2.25,7.83-3.56,2.24-1.26,4.45-2.89,6.96-3.57,6.83-1.99,13.28,2.13,19.15,5.1,2.16,1.06,4.48,2.31,6.96,2.03,3.46,0,6.99,0,10.44,0"/><path class="b" d="M8.53,97.2c6.45-2.78,8.06-2.38,14.8-2.09,6.07.25,12.2.65,18.28.3,2.6-.18,5.3-.44,7.83-1.08,6.41-2.11,11.28-7.29,17.41-9.99,5.69-2.77,11.77-1.97,16.54,2.19,5.83,4.69,10.78,11.35,18.28,13.38,4.63,0,9.3,0,13.93,0,8.4,0,16.84,0,25.24,0,.77,0,1.85.03,2.61-.09.4-.27,1.32-.79,1.74-1.03,1.61-.89,3.45-1.7,5.22-2.19,3.38-.96,7.06-.81,10.44.05,3.52.85,6.92,2.35,10.44,3.15,4.03.26,8.15.03,12.19.1"/><path class="b" d="M8.53,94.06c2.26-.67,4.61-1.49,6.96-1.74,2.88-.07,5.85-.03,8.7-.51,7.63-1.13,15.06-3.41,22.63-4.89,8.26-1.23,15.05-7.41,23.5-7.88,13.12-1.01,19.1,13.11,31.33,14.92,2.27.36,4.68.26,6.96.01,2.59-.37,5.32-.56,7.83.31.78.24,1.83.66,2.61.89,2.29,0,4.68,0,6.96,0,4.92,0,9.88,0,14.8,0,4.04,0,8.14,0,12.19,0,2.52-.72,5.2-1.29,7.83-1.34,3.77-.14,7.56.54,11.32.74,3.75.05,7.58-.26,11.32.23"/><path class="b" d="M8.53,90.45c4.33,0,8.72,0,13.06,0,5.22-1.38,9.95-4.21,14.8-6.5,3.33-1.6,6.83-3.08,10.44-3.9,4.12-.7,8.16-1.93,12.19-3.03,7.49-2.17,15.54-2.19,22.63,1.35,3.53,1.72,6.89,3.9,10.44,5.57,6.23,3.15,12.34,3.43,19.15,3.47,1.79.06,3.63.7,5.22,1.49,1.12.44,2.23,1.63,3.48,1.55,16.53,0,33.08,0,49.61,0,4.65.12,9.27-1.09,13.93-.85"/><path class="b" d="M8.53,85.73c6.08,0,12.2,0,18.28,0,5.78-3.16,11.02-7.56,17.41-9.55,2.22-.75,4.65-1.03,6.96-1.37,3.17-.48,6.4-1.04,9.57-1.47,9.03-1.31,15.67-.95,24.37,1.83,8.88,2.72,18.02,4.49,26.98,6.86,1.49.51,3.04,1.38,4.35,2.25.43.29,1.32.92,1.74,1.24.75.28,1.83.22,2.61.21,20.89,0,41.78,0,62.67,0"/><path class="b" d="M8.53,81c4.63,0,9.3,0,13.93,0,1.7,0,3.53,0,5.22,0,.84.01,1.92.11,2.61-.48,3.84-2.37,7.84-4.68,12.19-5.98,4.78-1.45,9.89-1.34,14.8-2.13,5.53-.72,11-2.06,16.54-2.73,3.16-.46,6.41-.07,9.57.03,3.76.06,7.6.05,11.32.73,4.57.79,8.94,2.61,13.06,4.71,3.34,1.63,6.7,3.44,9.57,5.83,22.05.07,44.1,0,66.15.03"/><path class="b" d="M8.53,76.27c7.82,0,15.68,0,23.5,0,1.76-.09,3.49-1.14,5.22-1.48,2.53-.68,5.22-1.08,7.83-1.28,5.56-.32,11.21-.66,16.54-2.41,5.59-1.64,10.8-4.61,16.54-5.73,8.94-.81,14.77-4.16,23.5.66,5.27,2.86,9.74,7.08,14.8,10.23,6.37,0,12.78,0,19.15,0,15.95,0,31.92,0,47.87,0"/><path class="b" d="M8.53,71.55c11.02,0,22.06,0,33.08,0,3.46,0,6.99,0,10.44,0,1.4,0,2.95,0,4.35,0,1.78-.25,3.57-1.06,5.22-1.73,5.12-2.2,9.68-5.59,14.8-7.78,1.91-.86,4.11-1.07,6.09-1.67,2.85-.87,5.73-2.02,8.7-2.38,9.77-1.24,16.31,7.64,23.5,12.71.86.95,2.31.89,3.48.85,1.69,0,3.53,0,5.22,0,5.21,0,10.46,0,15.67,0,14.79,0,29.6,0,44.39,0"/><path class="b" d="M8.53,66.82c9.57,0,19.16,0,28.72,0,4.92,0,9.88,0,14.8,0,2.29-.01,4.68.03,6.96-.02,1.11-.38,2.41-.9,3.48-1.37,6.38-2.76,12.16-7.17,19.15-8.29,4.54-1.31,9.09-3.48,13.93-2.97,4.57.42,8.6,3.02,12.19,5.71,3.11,2.37,6.28,4.81,9.57,6.92,22.05.08,44.1,0,66.15.03"/><path class="b" d="M8.53,62.1c9.28-.03,18.58.09,27.85-.11,4.62,0,9.34.45,13.93-.27,5.03-.74,9.97-2.16,14.8-3.74,4.56-1.46,9.16-3.14,13.93-3.8,9.28-1.13,15.76-4.24,25.24-.49,3.64,1.4,7.08,3.39,10.44,5.34,1.09.64,2.39,1.4,3.48,2.04.75.41,1.69,1.21,2.61,1.02,4.92,0,9.88,0,14.8,0,15.95,0,31.92,0,47.87,0"/><path class="b" d="M8.53,57.37c4.04-.02,8.14.05,12.19-.03,2.27-.52,4.66-.98,6.96-1.3,5.75-.86,11.63-.76,17.41-1.35,4.44-.45,8.75-1.85,13.06-2.96,4.26-1.13,8.65-1.97,13.06-2.21,6.08-.33,12.2.15,18.28.32,5.79.23,11.66.14,17.41.99,3.65.51,7.23,1.74,10.44,3.53,1.74.9,3.5,2.09,5.22,3.02.77,0,1.84,0,2.61,0,19.43,0,38.88,0,58.32,0"/><path class="b" d="M8.53,52.64c3.17,0,6.41,0,9.57,0,4.01-1,8.09-1.9,12.19-2.49,6.1-.94,12.29-1.73,18.28-3.27,3.84-1.04,7.49-2.86,11.32-3.97,5.36-1.73,11.11-1.47,16.54-.22,3.22.6,6.5,1.27,9.57,2.45,4.99,1.84,10.32,3.1,15.67,2.56,3.46-.24,6.97-1.04,10.44-.77,3.15.35,6.08,1.93,8.7,3.61,3.45,2.38,2.73,2.15,6.96,2.1,18.56,0,37.14,0,55.71,0"/><path class="b" d="M8.53,47.92c4.04-.03,8.14.06,12.19-.04,6.03-1.63,12.24-2.63,18.28-4.22,4.05-1.15,8.29-1.97,12.19-3.57,4.05-1.86,7.86-4.44,12.19-5.64,4.9-1.51,10.08-.37,14.8,1.27,4.18,1.02,7.67,3.71,11.32,5.87,4.85,3.03,10.11,4.06,15.67,2.47,2.56-.6,5.17-1.61,7.83-1.59,4.28.23,7.97,2.93,11.32,5.37,19.71.23,39.46,0,59.19.08"/><path class="b" d="M8.53,43.19c4.63,0,9.3,0,13.93,0,7.28-1.43,14.55-3.26,21.76-5.07,1.69-.45,3.54-.81,5.22-1.28,2.49-.86,4.78-2.42,6.96-3.84,7.24-4.99,13.1-7.51,21.76-4.13,7.57,2.33,12.12,10.28,20.02,11.97,2.56.57,5.31.28,7.83-.37,1.99-.49,4.06-1.2,6.09-1.48,4.45-.46,8.51,2.04,12.19,4.21,12.76,0,25.54,0,38.3,0,4.33,0,8.72,0,13.06,0,1.69,0,3.53,0,5.22,0,.83.03,1.84-.48,2.61-.72"/><path class="b" d="M8.53,38.47c4.63,0,9.3,0,13.93,0,5.2-1.51,10.41-3.15,15.67-4.46,2.56-.65,5.22-1.25,7.83-1.63,1.71-.25,3.59-.28,5.22-.92,4.57-1.74,8.49-4.95,13.06-6.72,3.84-1.6,8.22-1.79,12.19-.55,2.82.79,5.6,2.06,7.83,3.99,4.99,3.85,10.62,10.6,17.41,10.29,1.99,0,4.1.01,6.09-.01,1.39-.23,2.95-.52,4.35-.63,2.32-.21,4.69.33,6.96.64,3.75,0,7.56,0,11.32,0,3.46,0,6.99,0,10.44,0,1.09,0,2.4,0,3.48,0,.79.02,1.89.03,2.61-.38,6.98-2.54,14.53-.86,21.76-1.41,5.15-.17,9.75-2.96,14.8-3.65"/><path class="b" d="M8.53,33.74c3.75,0,7.56,0,11.32,0,1.79-.31,3.53-1.3,5.22-1.94,3.44-1.45,6.92-2.98,10.44-4.23,3.07-1.08,6.31-1.97,9.57-2.17,2.29-.17,4.69.39,6.96-.1,8.36-1.87,14.45-5.96,23.5-3.41,2.06.58,4.23,1.31,6.09,2.37,2.15,1.29,4.17,3.02,6.09,4.62,1.93,1.62,3.99,3.32,6.09,4.72,2.56.29,5.26.05,7.83.13,6.08,0,12.2,0,18.28,0,4.33,0,8.72,0,13.06,0,1.99,0,4.1,0,6.09,0,1.26-.14,2.43-1.18,3.48-1.83,4.11-2.99,8.91-5.12,13.93-5.99,4.86-.89,9.88-.7,14.8-.89,4.04-.17,8.15-.97,12.19-.34"/><path class="b" d="M8.53,29.02c2.29-.05,4.69.11,6.96-.09,6.6-1.33,12.24-5.34,18.28-8.09,3.52-1.62,7.39-2.97,11.31-2.73,2.63.16,5.18,1.35,7.83,1.4,3.75.23,7.56-.26,11.31-.35,5.95-.21,12.05.84,17.41,3.5,3.37,1.78,6.31,4.41,9.57,6.37,13.34,0,26.7,0,40.04,0,1.09,0,2.39,0,3.48,0,.83.01,1.92.11,2.61-.46,3.82-2.6,7.39-5.68,11.32-8.11,5.9-3.84,12.98-5.83,20.02-5.15,5.05.35,10.17,1.11,14.8,3.26"/><path class="b" d="M8.53,21.53c3.73.6,7.69,1.11,11.32-.26,8.4-2.86,15.78-10.74,25.24-9.23,2.72.52,5.15,2.17,7.83,2.83,3.94,1.14,8.11,1.49,12.19,1.83,10.64.76,15.22,2.2,24.37,7.54,8.11.14,16.26,0,24.37.05,6.37,0,12.78,0,19.15,0,.77,0,1.84,0,2.61,0,1.94-.84,3.52-2.65,5.22-3.89,3.67-2.94,7.33-6.05,11.32-8.57,5.09-3.34,11.4-4.97,17.41-3.55,2.34.52,4.79,1.17,6.96,2.19,2.42,1.17,4.76,2.77,6.96,4.3"/></svg>