<?xml version="1.0" encoding="UTF-8"?><svg id="a" xmlns="http://www.w3.org/2000/svg" width="1920" height="2400" viewBox="0 0 192 240"><defs><style>.b{fill:none;stroke:#fff;stroke-miterlimit:10;stroke-width:.4px;}.c{stroke-width:0px;}</style></defs><rect class="c" x="0" width="192" height="240"/><path class="b" d="M8.67,231.7c34.76,0,69.52,0,104.28,0,9.26,0,18.55,0,27.81,0,1.46.1,2.98-.59,4.34-1.02,2.58-.9,5.22-1.97,7.82-2.82,7.2-2.55,14.54-2.48,20.86,2.25.74.51,1.65,1.52,2.61,1.6,2.28,0,4.67,0,6.95,0"/><path class="b" d="M8.67,226.98c34.76,0,69.52,0,104.28,0,7.81,0,15.65,0,23.46,0,3.16,0,6.4,0,9.56,0,.47.09,1.36-.18,1.74-.48.77-.42,1.85-1.02,2.61-1.46,11.15-6.74,19.23-9.42,28.68,1.76,1.36.33,2.95.12,4.34.18"/><path class="b" d="M8.67,222.26c35.34,0,70.68,0,106.01,0,7.81,0,15.65,0,23.46,0,2.58,0,5.24,0,7.82,0,1.09-.04,2.43.15,3.48-.23.41-.32,1.32-.98,1.74-1.31,6.23-4.85,14.69-12.03,22.59-6.39,3.03,2.12,5.37,5.21,7.82,7.93h1.74"/><path class="b" d="M8.67,217.54c35.34,0,70.68,0,106.01,0,7.81,0,15.65,0,23.46,0,2.58,0,5.24,0,7.82,0,1.09-.04,2.43.14,3.48-.22.41-.34,1.32-1.04,1.74-1.4,6.52-5.41,15.08-13.23,23.46-6.58,1.87,1.44,3.62,3.3,5.21,5.03,1.05.94,2.04,2.87,3.48,3.17"/><path class="b" d="M8.67,212.83c35.05,0,70.1,0,105.15,0,7.52,0,15.07,0,22.59,0,2.58,0,5.24,0,7.82,0,.78,0,1.86.07,2.61-.22.78-.47,1.85-1.15,2.61-1.67,6.85-4.74,15.01-11.1,23.46-6.11,3.59,2.08,6.5,5.23,9.56,7.99l.87.02"/><path class="b" d="M8.67,208.11c33.31,0,66.62,0,99.93,0,8.1,0,16.23,0,24.33,0,1.39-.09,3.02.24,4.34-.28,2.19-1.08,4.62-1.85,6.95-2.54,11.08-4.34,17.95-9.08,29.54-1.95,2.08,1.27,4.13,2.85,6.08,4.31.93.73,2.37.39,3.48.46"/><path class="b" d="M8.67,203.39h120.79c5.82-4.07,9.25-6.59,16.51-7.57,5.99-1.38,12.4-1.86,18.25.4,4.26,1.57,8.27,3.89,12.17,6.2.71.47,1.71,1.14,2.61.97,1.39,0,2.95,0,4.34,0"/><path class="b" d="M8.67,198.67c38.81-.05,77.63.1,116.44-.05,4.49-3.72,9.05-7.92,14.77-9.58,7.57-1.48,15.55.14,22.59,3.06,2.91,1.2,5.82,2.62,8.69,3.89,1.97.89,4.15,1.62,6.08,2.61,1.98.17,4.1.04,6.08.08"/><path class="b" d="M8.67,193.95c24.33,0,48.67,0,72.99,0,8.39,0,16.81,0,25.2,0,2.87,0,5.82,0,8.69,0,1.69-.07,3.55.17,5.21-.16,10.58-9.14,17.01-14.84,31.28-8.82,7.13,2.79,14.04,6.61,21.72,7.64,1.74.17,3.58.69,5.21,1.31,1.39.07,2.95.02,4.34.04"/><path class="b" d="M8.67,189.23c31.57,0,63.15,0,94.72,0,3.74,0,7.55,0,11.3,0,.97-.19,1.87-1.18,2.61-1.77,1.38-1.18,2.93-2.51,4.34-3.66,4-3.25,8.63-6.25,13.9-6.62,3.51-.21,7.18.39,10.43,1.76,6.91,3.14,13.11,8.36,20.86,9.3,1.68.22,3.53.24,5.21.09,1.69-.17,3.51-.58,5.21-.39,1.1.1,2.42.38,3.48.71.74.24,1.8.69,2.61.57"/><path class="b" d="M8.67,184.52c33.31,0,66.62,0,99.93,0,1.31-.21,2.45-1.41,3.48-2.17,1.42-1.17,2.96-2.55,4.34-3.76,5.72-5.14,12.02-9.26,19.99-6.76,2.61.79,5.29,1.73,7.82,2.74,2.47,1.19,4.75,2.95,6.95,4.57,2.71,2.01,5.56,4.07,8.69,5.38,2.28.01,4.67,0,6.95,0,1.99-.03,4.1.07,6.08-.06,3.24-1.57,7.04-1.79,10.43-.53"/><path class="b" d="M8.67,179.8c3.75,0,7.55,0,11.3,0,1.46-.25,2.91-1.09,4.34-1.46,3.67-1.19,7.71-1.01,11.3.38.8.29,1.83.74,2.61,1.08.46,0,1.29,0,1.74,0,2.28,0,4.67,0,6.95,0,6.07,0,12.18,0,18.25,0,8.1,0,16.23,0,24.33,0,2.58,0,5.24,0,7.82,0,2-.04,4.17.22,6.08-.5,11.25-3.35,16.51-19.14,30.41-13.82,2.37.9,4.68,2.21,6.95,3.32,2.46,1.02,4.94,2.25,6.95,4.04,1.73,1.42,3.51,3.06,5.21,4.51,1.04.81,2.19,2.04,3.48,2.45,1.69,0,3.52,0,5.21,0,4.62,0,9.29,0,13.9,0,1.12.03,2.36-.56,3.48-.64,1.39-.16,2.98-.06,4.34.22"/><path class="b" d="M8.67,174.75c7.35,1.57,11.62-3.37,18.25-4.96,6.18-1.7,11.82,1.59,17.38,3.79,1.91.81,4.06.78,6.08.95,1.4.27,2.91.69,4.34.55,7.52,0,15.07,0,22.59,0,.81.05,1.88-.06,2.61-.45,1.05-.41,2.36-.76,3.48-.93,2.85-.44,5.83-.19,8.69.08,6.44.78,13.01.54,18.25-3.78,2.64-2.16,5.12-4.68,7.82-6.76,7.26-5.81,12.97-5.3,20.86-1.02,1.65.89,3.57,1.58,5.21,2.46,4.3,2.74,7.51,6.92,11.3,10.28,3.43.33,6.98.04,10.43.13,5.78,0,11.6,0,17.38,0"/><path class="b" d="M8.67,168.84c7.41.81,11.87-4.1,18.25-6.58,6.15-2.53,11.48-.44,17.38,1.5,1.94.68,4.08.6,6.08.79,2.39.4,4.73,1.41,6.95,2.35,6.85,3.14,12.59,4.34,19.99,2.24,3.94-1.25,8.08-1.58,12.17-.98,10.57,1.47,16.58,2.37,25.2-5.13,10.62-8.61,15.88-10.17,28.68-4.56,5.3,2.73,8.52,8.2,13.03,11.89h26.94"/><path class="b" d="M8.67,164.11c8.51.45,13.48-6.43,20.86-9.19,5.65-2.28,10.91-.31,16.51.77,1.99.29,4.14.01,6.08.61,5.35,1.49,10.19,4.56,15.64,5.77,2.82.67,5.8.87,8.69.72,2.29-.11,4.66-.45,6.95-.38,5.24.09,10.43,1.31,15.64,1.72,3.48.28,7.12.09,10.43-1.09,8.21-3.29,15.09-10.36,24.33-10.74,3.54-.14,7.22.56,10.43,2.07,2.97,1.66,5.43,4.24,7.82,6.63,1.38,1.4,2.92,2.98,4.34,4.35.71.38,1.83.3,2.61.3,8.1,0,16.23,0,24.33,0"/><path class="b" d="M8.67,160.46c12.91.27,16.65-14.39,32.15-11.42,1.99.33,4.07.82,6.08.97,1.7.06,3.53-.08,5.21.25,4.44.76,8.69,2.5,13.03,3.62,5.65,1.61,11.56,1.88,17.38,2.3,4.93.38,9.87,1.08,14.77,1.73,4.58.58,9.33,1.09,13.9.18,7.81-1.63,14.74-6.15,22.59-7.63,8.97-1.74,13.6,2.44,19.99,7.87,3.25,2.68,2.59,2.7,6.95,2.59,7.52,0,15.07,0,22.59,0"/><path class="b" d="M8.67,156.21c2.29,0,4.67,0,6.95,0,3.48-1.64,6.35-4.47,9.56-6.56,3.54-2.47,7.78-4.26,12.17-4,2.91.1,5.81.91,8.69,1.22,1.99.21,4.09-.13,6.08-.09,4.62,0,9.28.33,13.9.45,4.62.17,9.34.14,13.9.97,4.29.79,8.71,1.07,13.03,1.62,4.35.52,8.71,1.32,13.03,1.95,8.14,1.34,16.41.1,24.33-1.91,9.63-2.36,13.39-1.23,21.72,3.86,1.38.81,2.94,1.72,4.34,2.48,1.39.02,2.96,0,4.34.01,7.52,0,15.07,0,22.59,0"/><path class="b" d="M8.67,151.49c3.16,0,6.4,0,9.56,0,1.3-.21,2.4-1.46,3.48-2.15,1.9-1.4,3.96-2.82,6.08-3.87,2.92-1.48,6.3-2.14,9.56-1.8,2.9.26,5.79,1.16,8.69,1.44,4.43.2,8.83-1.23,13.03-2.46,6.99-2.1,14.3-5.67,21.72-3.74,4,.79,8.14,1.05,12.17,1.66,4.99.69,9.91,2.01,14.77,3.27,4.59,1.04,9.25,2.13,13.9,2.85,6.04.98,12.19.03,18.25.51,4.56.51,8.77,2.65,13.03,4.19,10.12.24,20.29,0,30.41.09"/><path class="b" d="M8.67,146.77c3.75,0,7.55,0,11.3,0,.57.04,1.34-.36,1.74-.74,1.07-.76,2.35-1.63,3.48-2.31,4.89-3.11,10.08-3.67,15.64-2.3,3.41.81,7.04,1.42,10.43.21,9.12-2.52,17.81-12.34,26.94-12.3,4.33.65,8.71,1.42,13.03,2.1,4.72.83,9.37,2.22,13.9,3.76,4.3,1.49,8.79,2.56,13.03,4.23,6.15,2.41,12.6,3.98,19.12,4.99,2.93.49,5.9,1.26,8.69,2.29,3.45.17,6.98.02,10.43.07,8.97-.07,17.97.15,26.94-.09"/><path class="b" d="M8.67,142.05c3.75,0,7.55,0,11.3,0,.8,0,1.85.07,2.61-.25,1.36-.93,2.89-1.93,4.34-2.7,2.9-1.58,6.24-2.52,9.56-2.38,4.63.09,9.3,2.17,13.9.81,9.92-2.33,20.04-16.24,29.54-14.45,6.11,1.22,12.31,2.27,18.25,4.23,3.49,1.1,6.97,2.43,10.43,3.61,3.48,1.11,7.04,2.25,10.43,3.62,4.59,1.8,9.24,3.61,13.9,5.2,1.39.48,2.95,1.01,4.34,1.49,1.34.55,2.88.97,4.34.81,8.68,0,17.39,0,26.07,0,2.87,0,5.82,0,8.69,0,2.31.03,4.71.1,6.95-.52"/><path class="b" d="M8.67,137.34c3.16,0,6.4,0,9.56,0,1.1,0,2.38,0,3.48,0,.89.09,1.94-.13,2.61-.74,2.41-1.59,5.03-3.1,7.82-3.92,2.79-.84,5.82-.88,8.69-.52,3.14.38,6.42,1.05,9.56.27,10.12-1.98,20.2-15.69,29.54-13.94,9.52,1.86,18.69,5.08,27.81,8.33,5.15,1.77,10.49,3.11,15.64,4.88,3.22,1.09,6.46,2.35,9.56,3.73,1.4.59,2.9,1.43,4.34,1.91.77,0,1.84,0,2.61,0,8.97,0,17.97,0,26.94,0,3.16,0,6.4,0,9.56,0,1.08,0,2.39,0,3.48,0,1.07-.37,2.38-.81,3.48-1.12"/><path class="b" d="M8.67,132.62c3.16,0,6.4,0,9.56,0,1.1,0,2.38,0,3.48,0,.87.01,1.9.12,2.61-.5,2.7-1.78,5.58-3.52,8.69-4.46,2.79-.86,5.81-.95,8.69-.65,3.15.33,6.43.85,9.56.09,6.14-1.4,11.25-5.38,16.51-8.62,4.82-2.99,9.06-5.09,14.77-3.15,10.01,2.66,19.58,6.83,29.55,9.66,3.41.92,6.99,1.33,10.43,2.1,3.27.72,6.53,1.81,9.56,3.25,1.42.67,2.98,1.51,4.34,2.28,1.08,0,2.39,0,3.48,0,8.68,0,17.39,0,26.07,0,4.03-.09,8.15.18,12.17-.12,1.66-.78,3.49-1.58,5.21-2.21"/><path class="b" d="M8.67,127.9c3.16,0,6.4,0,9.56,0,1.1,0,2.38,0,3.48,0,.87.06,1.93-.04,2.61-.63,2.73-1.67,5.6-3.34,8.69-4.24,2.79-.83,5.81-.92,8.69-.6,3.44.41,7.01,1.03,10.43.13,6.13-1.49,11.21-5.52,16.51-8.73,5.25-3.16,8.76-4.55,14.77-2.41,4.7,1.42,9.29,3.34,13.9,5.02,4.84,1.78,9.8,3.37,14.77,4.74,3.4.81,6.99.8,10.43,1.32,4.64.62,9.09,2.44,13.03,4.94.94.73,2.37.39,3.48.46,1.69,0,3.52,0,5.21,0,5.49,0,11.02,0,16.51,0,4.62,0,9.29,0,13.9,0,2.9-1.34,5.72-3.07,8.69-4.27"/><path class="b" d="M8.67,123.18c4.61-.08,9.3.17,13.9-.1,2.25-1.11,4.58-2.31,6.95-3.14,2.75-.98,5.78-1.38,8.69-1.12,4.89.42,9.96,2.46,14.77.53,5.96-2.2,10.61-6.82,15.64-10.53,4.41-3.25,8.36-5.64,13.9-3.52,7.64,2.42,14.91,6,22.59,8.3,3.97,1.23,8,2.54,12.17,2.85,4.47.42,9.01,1.28,13.03,3.36,1.12.56,2.42,1.3,3.48,1.96.75.46,1.72,1.25,2.61,1.4,1.39,0,2.95,0,4.34,0,9.84,0,19.7,0,29.55,0,1.65.2,2.91-1.44,4.34-2,2.88-1.53,5.75-3.3,8.69-4.72"/><path class="b" d="M8.67,118.46c4.33,0,8.71,0,13.03,0,3.73-1.25,7.32-3.26,11.3-3.75,2.86-.44,5.84-.2,8.69.24,3.43.54,7.1,1.19,10.43-.17,8.85-3.19,16.34-14.99,25.2-15.99,3.06-.09,5.94,1.52,8.69,2.66,4.04,1.87,8.05,3.96,12.17,5.67,5.03,2.06,10.29,3.8,15.64,4.83,7.57.85,13.15,1.18,19.99,5.19.75.42,1.76,1.1,2.61,1.32,1.08,0,2.39,0,3.48,0,2.58,0,5.25,0,7.82,0,7.52,0,15.07,0,22.59,0,1.8-1.55,4.01-2.7,6.08-3.82,2.33-1.37,4.67-2.98,6.95-4.43"/><path class="b" d="M8.67,113.74c3.16,0,6.4,0,9.56,0,1.68-.13,3.65.35,5.21-.39,3.1-1.32,6.27-2.74,9.56-3.52,3.1-.77,6.38-.9,9.56-.84,2.89.03,5.95.15,8.69-.92,9.69-3.43,19.47-18.45,30.41-12.11,5.07,2.65,9.7,6.17,14.77,8.81,5.13,2.74,10.79,4.49,16.51,5.46,4.6.53,9.32-.04,13.9.7,3.27.47,6.51,1.52,9.56,2.79,6.07.09,12.18,0,18.25.03,4.91,0,9.86,0,14.77,0,1.51-.52,2.87-1.78,4.34-2.42,3.48-1.52,6.55-3.97,9.56-6.25"/><path class="b" d="M8.67,109.03c3.16,0,6.4,0,9.56,0,1.69-.08,3.56.19,5.21-.18,3.99-1.75,7.96-3.77,12.17-4.97,3.95-1.2,8.13-1.57,12.17-2.35,5.19-1.06,9.41-4.61,13.9-7.19,7.26-4.45,13.78-5.64,20.86-.09,7.55,5.72,14.7,12.84,24.33,14.75,1.99.08,4.09.02,6.08.04,3.16,0,6.4,0,9.56,0,2.28-.11,4.66-.52,6.95-.49,2.3-.06,4.67.29,6.95.49,2.28,0,4.67,0,6.95,0,8.1,0,16.23,0,24.33,0,.86.16,1.88-.46,2.61-.86.75-.41,1.83-.95,2.61-1.32,3.85-1.4,7.24-3.85,10.43-6.38"/><path class="b" d="M8.67,104.31c4.62,0,9.29,0,13.9,0,4.47-1.51,8.59-4.11,13.03-5.72,4.49-1.83,9.31-2.8,13.9-4.3,3.95-1.55,7.46-4.13,11.3-5.91,7.8-3.93,14.53-1.96,20.86,3.58,4.72,3.97,8.68,9.03,13.9,12.35,5.78,0,11.6,0,17.38,0,8.39,0,16.81,0,25.2,0,8.97-.01,17.97.02,26.94-.01,3.19-1.19,6.3-2.81,9.56-3.83,3.09-1.1,5.94-2.93,8.69-4.69"/><path class="b" d="M8.67,99.59c4.04,0,8.13,0,12.17,0,1.79-.18,3.55-1.15,5.21-1.76,2.87-1.2,5.79-2.5,8.69-3.62,4.8-1.92,9.91-3.11,14.77-4.84,3.6-1.51,6.86-3.86,10.43-5.46,7.68-3.72,14.07-.96,19.99,4.42,2.45,2.19,4.72,4.76,6.95,7.16,1.38,1.3,2.61,3.26,4.34,4.09,6.94,0,13.91,0,20.86,0,7.52,0,15.07,0,22.59,0,4.91,0,9.86,0,14.77,0,2.86-.12,5.87.28,8.69-.25,4.52-.97,8.75-3.02,13.03-4.69,1.65-.66,3.53-1.09,5.21-1.65,2.32-.78,4.68-1.77,6.95-2.69"/><path class="b" d="M8.67,94.84c2.87.03,5.84.19,8.69-.22,4.43-.67,8.71-2.25,13.03-3.38,5.69-1.64,11.64-2.27,17.38-3.69,6.53-1.76,11.46-7.42,18.25-8.51,7.2-1.22,12.98,4.47,17.38,9.4,2.02,2.06,3.77,4.71,6.08,6.44,19.98,0,39.98,0,59.96,0,1.69-.06,3.54.14,5.21-.14,2.98-1.02,5.91-2.42,8.69-3.9,2.83-1.48,5.68-3.15,8.69-4.25,3.66-1.12,7.53-1.79,11.3-2.46"/><path class="b" d="M8.67,88.97c6.73.77,13.39-.92,19.99-2,5.44-.92,11.02-.78,16.51-1.09,4.63-.07,8.39-2.16,12.17-4.61,16-10.73,20.39-2.91,31.28,8.77,6.92.3,13.92.02,20.86.11,12.45,0,24.92,0,37.37,0,2.87-.03,5.82.07,8.69-.05,1.72-.91,3.55-1.97,5.21-2.97,8.83-5.43,11.84-7.36,22.59-6.78"/><path class="b" d="M8.67,83.97c3.74.19,7.57.12,11.3-.2,3.46-.4,6.96-1.1,10.43-1.44,5.19-.59,10.45-.08,15.64.16,4.34.43,8.45-1.33,12.17-3.41,5.69-3.13,12.78-7.31,19.12-3.45,3.97,2.56,7,6.43,10.43,9.64,2.54.38,5.25.07,7.82.16,4.33,0,8.71,0,13.03,0,12.45,0,24.92,0,37.37,0,3.45,0,6.97,0,10.43,0,1.41-.81,2.95-1.76,4.34-2.59,8.5-5.12,12.61-6.85,22.59-4.51"/><path class="b" d="M8.67,80.03c2.28.04,4.67-.05,6.95.02,2.59.22,5.28.06,7.82-.5,9.94-2.35,14.91-3.21,25.2-1.67,3.84.43,7.7-.64,11.3-1.9,5.74-2,12.46-5.12,18.25-1.65,2.84,1.76,5.17,4.39,7.82,6.39,19.4,0,38.82,0,58.22,0,3.74,0,7.55,0,11.3,0,1.91.15,3.53-1.4,5.21-2.1,8.62-4.35,13.41-5.13,22.59-1.76"/><path class="b" d="M8.67,76c3.45,0,6.97,0,10.43,0,1.99-.07,4.12.17,6.08-.14,3.17-1.14,6.32-2.57,9.56-3.5,3.35-.99,6.95-1.4,10.43-.95,2.02.23,4.08.85,6.08,1.19,2.55.44,5.24.58,7.82.44,5.2-.19,10.44-1.79,15.64-.91,2.59.42,4.92,1.89,6.95,3.48.43.27,1.23.49,1.74.4,1.09,0,2.39,0,3.48,0,2.58,0,5.24,0,7.82,0,11,0,22.02,0,33.02,0,7.81,0,15.65,0,23.46,0,1.69-.05,3.54.11,5.21-.11.75-.37,1.84-.85,2.61-1.19,5.14-2.22,10.9-3.8,16.51-2.76,2.69.57,5.29,1.76,7.82,2.8"/><path class="b" d="M8.67,71.28c6.36,0,12.76,0,19.12,0,2.91-1.28,5.68-3.11,8.69-4.19,3.28-1.27,6.96-1.8,10.43-1.06,4.05,1.01,8.03,2.57,12.17,3.24,4,.74,8.13.72,12.17,1,2.04.06,4.09.74,6.08,1.01,6.07,0,12.18,0,18.25,0,12.16,0,24.34,0,36.5,0,7.52-.04,15.08.09,22.59-.05,6.41-3.09,13.73-5.38,20.86-3.81,2.73.73,5.31,2.18,7.82,3.43"/><path class="b" d="M8.67,66.56c5.78,0,11.6,0,17.38,0,1.1-.02,2.39.06,3.48-.09,1.09-.69,2.37-1.5,3.48-2.15,4.86-3.05,10.89-5.02,16.51-2.96,6.54,2.02,12.97,5.6,19.99,5.2,22.88,0,45.77,0,68.65,0,4.91,0,9.86,0,14.77,0,1.23,0,2.39-1.03,3.48-1.51,2.22-1.18,4.59-2.33,6.95-3.2,3.84-1.4,8.14-2.2,12.17-1.2,2.82.84,5.36,2.59,7.82,4.15"/><path class="b" d="M8.67,61.85h19.99c10.51-7.85,16.53-10.92,28.68-3.81,2.54,1.34,5.15,2.75,7.82,3.81,1.69,0,3.52,0,5.21,0,20.85,0,41.71,0,62.57,0,6.36,0,12.76,0,19.12,0,.41,0,1.32,0,1.74-.04.41-.27,1.32-.82,1.74-1.09,1.68-1.07,3.5-2.23,5.21-3.24,4.39-2.54,9.6-5.12,14.77-3.73,2.9.95,5.42,2.96,7.82,4.79"/><path class="b" d="M8.67,57.13c6.07-.08,12.19.16,18.25-.09,4.04-3.06,8.15-6.38,13.03-7.96,3.89-1.17,8.35-1.5,12.17.09,4.88,2.16,9.07,5.7,13.9,7.96,8.68,0,17.39,0,26.07,0,19.69,0,39.4,0,59.09,0,1.09-.05,2.44.17,3.48-.27,2.01-1.23,4.09-2.61,6.08-3.87,4.35-2.67,9.47-5.89,14.77-4.44,2.93.98,5.44,3.07,7.82,4.97"/><path class="b" d="M8.67,52.41c3.16,0,6.4,0,9.56,0,1.4,0,2.95,0,4.34,0,.91-.15,1.86-.91,2.61-1.39,5.41-3.78,11.47-7.19,18.25-7.22,5.08-.14,7.58-.48,12.17,2.16,4.25,2.23,8.28,5.4,13.03,6.45,4.9-.08,9.88.17,14.77-.1,2.28-.63,4.64-1.4,6.95-1.9,3.69-.85,7.6-.87,11.3-.07,2.9.57,5.78,1.58,8.69,2.08,4.91,0,9.86,0,14.77,0,8.68,0,17.39,0,26.07,0,1.08-.01,2.39.04,3.48-.06,2.33-1.04,4.69-2.31,6.95-3.49,9.31-4.81,13.16-5.57,21.72,1.23"/><path class="b" d="M8.67,47.69c1.99,0,4.09,0,6.08,0,5.54-1.29,10.14-5.32,15.64-6.83,2.78-.85,5.8-1.07,8.69-.82,2.87.22,5.8.84,8.69.73,5.92-.67,10.98,3.38,16.51,4.77,6.04,1.88,12.45.35,18.25-1.67,5.65-2.31,11.28-4.28,17.38-2.37,3.24.89,6.33,2.48,9.56,3.39,2.81.7,5.81.74,8.69.82,5.78.07,11.61-.32,17.38.13,3.8.17,7.53,1.3,11.3,1.67,4.08.36,8.23-.29,12.17-1.35,5.36-1.32,10.92-3.83,16.51-2.48,2.79.81,5.35,2.46,7.82,3.95"/><path class="b" d="M8.67,42.71c3.57-1.47,6.83-3.74,10.43-5.17,3.8-1.78,7.89-3.47,12.17-3.29,4.54.1,8.72,2.19,13.03,3.32,1.96.6,4.08.34,6.08.31,2.34.12,4.7.78,6.95,1.35,10.03,2.87,14.99.48,24.33-2.54,6.89-2.64,12.15-3.79,19.12-.46,2.88,1.27,5.67,2.99,8.69,3.91,6.36,1.49,12.86-.78,19.12-1.88,4.26-.83,8.74-1.31,13.03-.44,4.58,1.1,9.19,2.37,13.9,2.7,4.9.44,9.86-.11,14.77-.08,2.32.03,4.78.26,6.95,1.13,1.1.4,2.35,1.09,3.48,1.41.76,0,1.85,0,2.61,0"/><path class="b" d="M8.67,34.08c2.67-1.1,5.19-2.74,7.82-3.91,5.15-2.27,11-3.8,16.51-1.92,4.19,1.23,7.95,3.73,12.17,4.86,1.96.58,4.08.1,6.08.25,2.6.18,5.24.78,7.82,1.18,3.72.62,7.58.69,11.3.02,4.62-.92,9.23-2.19,13.9-2.86,4.02-.73,8.26-.64,12.17.63,6.45,1.93,12.07,6.69,19.12,4.5,9.2-2.41,17.86-9.46,27.81-7.06,6.99,1.8,13.65,4.96,20.86,5.93,3.72.62,7.57.74,11.3,1.34,1.41.28,2.97.73,4.34,1.16,1.08.09,2.39.05,3.48.06"/><path class="b" d="M8.67,25c4.58-1.58,9.02-3.87,13.9-4.41,6.77-1.09,13.06,2.11,19.12,4.65,1.64.63,3.46,1.2,5.21,1.33,1.99.01,4.09-.25,6.08.03,4.35.5,8.67,1.58,13.03,2.02,3.73.43,7.55.41,11.3.52,3.47.16,7,.54,10.43,1.12,2.91.5,5.86,1.26,8.69,2.09,1.39.38,2.92.94,4.34,1.18,1.09,0,2.39,0,3.48,0,3.45,0,6.97,0,10.43,0,1.21-.08,2.42-.93,3.48-1.45,1.41-.78,2.97-1.72,4.34-2.56,4.36-2.66,8.86-5.45,13.9-6.6,5.99-1.5,11.21.51,16.51,3.15,4.45,2.14,9.03,4.25,13.9,5.21,2.83.59,5.81.76,8.69.89,2.57.16,5.24.43,7.82.49"/><path class="b" d="M8.67,16.55c6.56-1.38,13.22-3.29,19.99-2.34,4.73.53,9.28,2.2,13.9,3.23,1.67.36,3.5.6,5.21.52,2.28-.25,4.68-.2,6.95.17,7.8,1.35,15.2,4.46,22.59,7.18,1.71.66,3.55,1.39,5.21,2.15,1.09.43,2.29,1.24,3.48,1.36,5.78,0,11.6,0,17.38,0,4.33,0,8.71,0,13.03,0,1.32.21,2.45-1.07,3.48-1.73,1.39-1.02,2.94-2.16,4.34-3.15,3.95-2.79,8.28-5.31,13.03-6.4,8.68-2.2,12.62,1.08,19.99,4.82,9.14,4.93,16.11,4.77,26.07,2.84"/><path class="b" d="M8.67,9.37c5.49-.35,11.01-.94,16.51-1.04,4.91-.14,9.87.18,14.77.44,2.28.11,4.67.18,6.95.05,2.57-.25,5.26-.41,7.82.04,9.3,1.55,16.86,7.75,24.33,13.08,2.84,2.02,2.39,2.32,6.08,2.17,2.87,0,5.82,0,8.69,0,8.39,0,16.81,0,25.2,0,3.89-2.99,7.69-6.3,12.17-8.42,2.72-1.34,5.72-2.26,8.69-2.88,1.68-.32,3.49-.85,5.21-.73,4.07.36,7.7,2.61,11.3,4.36,10.18,5.37,16.31,4.64,26.94,1.27"/></svg>