<?xml version="1.0" encoding="UTF-8"?><svg id="a" xmlns="http://www.w3.org/2000/svg" width="1920" height="2400" viewBox="0 0 192 240"><defs><style>.b{fill:none;stroke:#fff;stroke-miterlimit:10;stroke-width:.4px;}.c{stroke-width:0px;}</style></defs><rect class="c" x="0" width="192" height="240"/><path class="b" d="M8.95,226.49c6.42-.42,12.64,1.96,19.06,1.78,6.12.1,12.07-2.15,18.19-1.95,2.08.1,4.19.81,6.06,1.69,1.1.43,2.25,1.36,3.46,1.38,8.36,0,16.75,0,25.12,0,2.29.08,4.62-.66,6.93-.43,1.4.05,2.94.3,4.33.43,2.28,0,4.65,0,6.93,0,2.86,0,5.8,0,8.66,0,1.39-.02,2.95.06,4.33-.07.75-.27,1.81-.55,2.6-.7,3.74-.7,7.59.01,11.26.77,2.57,0,5.23,0,7.8,0,2.57,0,5.23,0,7.8,0,1.84-.67,3.51-2.06,5.2-3.03,5.14-3.35,11.08-5.88,17.32-5.52,2.57.06,5.22.43,7.8.51,3.73-.06,7.52-.39,11.26-.29"/><path class="b" d="M8.95,222.05c6.23-.88,12.12,1.92,18.19,2.63,14.43,0,28.88,0,43.31,0,1.39,0,2.94,0,4.33,0,.8,0,1.87.08,2.6-.31,4.93-2.9,9.26-3.06,14.72-1.8,7.56,1.76,13.23,3.51,20.79.38,2.24-.57,4.69-.46,6.93.03,2.04.33,4.03,1.45,6.06,1.69,4.89,0,9.83,0,14.72,0,1.68-.05,3.53.12,5.2-.11,2.48-1.5,5.09-3.03,7.8-4.1,2.72-1.09,5.72-1.7,8.66-1.73,3.17-.05,6.37.53,9.53.69,3.73.02,7.53-.26,11.26-.14"/><path class="b" d="M8.95,217.81c3.17-.41,6.44.02,9.53.77,1.72.35,3.45,1.24,5.2,1.39,8.36,0,16.75,0,25.12,0,7.5,0,15.02,0,22.52,0,1.21-.24,2.39-1.17,3.46-1.72,2.2-1.21,4.49-2.59,6.93-3.24,5.98-1.28,11.65,2,17.32,3.36,2.79.73,5.79,1.11,8.66.69,1.75-.2,3.5-.97,5.2-1.41,4.19-.96,8.28.89,12.13,2.31,7.5,0,15.02,0,22.52,0,1.49-.18,2.9-1.23,4.33-1.67,2.18-.83,4.59-1.38,6.93-1.46,4.1-.2,8.12,1.06,12.13,1.74,3.99.5,8.11.17,12.13.37"/><path class="b" d="M8.95,213.53c3.18-.22,6.42.38,9.53,1,1.11.2,2.32.86,3.46.75,8.65,0,17.33,0,25.98,0,6.92,0,13.87,0,20.79,0,3.18-1.58,6.22-3.62,9.53-4.95,4.45-2.26,9.46-.76,13.86.88,4.16,1.5,8.51,3.01,12.99,2.84,1.72-.06,3.55-.38,5.2-.88,1.62-.6,3.45-1.06,5.2-.97,2.36.08,4.74.81,6.93,1.64,1.68.59,3.35,1.71,5.2,1.44,5.76,0,11.56,0,17.32,0,.76,0,1.83,0,2.6,0,1.4-.42,2.91-1.08,4.33-1.43,2.51-.66,5.23-.81,7.8-.39,2.35.28,4.62,1.39,6.93,1.82,5.47,0,10.99,0,16.46,0"/><path class="b" d="M8.95,209.05c3.49.17,6.92,1.25,10.39,1.52,9.23,0,18.49,0,27.72,0,6.92,0,13.87,0,20.79,0,3.95-1.69,7.91-3.57,12.13-4.53,5.89-1.24,11.54,2,17.32,2.65,3.14.46,6.44.3,9.53-.43,2.03-.42,4.05-1.28,6.06-1.75,4.77-.85,9.44,1.21,13.86,2.75,1.37.46,2.89,1.1,4.33,1.3,2.27,0,4.65,0,6.93,0,1.68-.03,3.52.08,5.2-.07,2.25-.83,4.59-1.79,6.93-2.35,2.81-.7,5.86-.73,8.66.01,1.43.37,2.99.96,4.33,1.57.74.33,1.74.99,2.6.84,5.76,0,11.56,0,17.32,0"/><path class="b" d="M8.95,204.36c2.01.36,4.07,1,6.06,1.45,2.57.13,5.23.02,7.8.05,6.34,0,12.72,0,19.06,0,6.63,0,13.29,0,19.92,0,2.86,0,5.8,0,8.66,0,1.99-.33,4.07-.81,6.06-1.11,1.98-.29,4.05-.79,6.06-.8,3.17,0,6.37.6,9.53.74,3.79.22,7.66-.34,11.26-1.56,3.2-1,6.27-2.63,9.53-3.46,4.4-.87,8.83.72,12.99,2,4.72,1.51,9.75,2.86,14.72,2.02,7.38-1.63,12.21-4.61,19.92-1.11,1.43.63,2.98,1.48,4.33,2.29.71.43,1.71,1.19,2.6,1,5.18,0,10.41,0,15.59,0"/><path class="b" d="M8.95,199.46c2,.49,4.05,1.27,6.06,1.71,4.31,0,8.68,0,12.99,0,9.52,0,19.06,0,28.58,0,8.07,0,16.18,0,24.25,0,3.73-.06,7.54.14,11.26-.09,2.36-.49,4.74-1.32,6.93-2.33,9.78-4.46,12.68-9.89,24.25-5.67,6.1,2.11,12.47,4.88,19.06,3.69,2.59-.47,5.19-1.31,7.8-1.69,3.5-.57,7.18-.02,10.39,1.47,2.71,1.21,5.27,2.93,7.8,4.48,4.86.35,9.84.03,14.72.14"/><path class="b" d="M8.95,193.73c2.56.73,5.14,1.8,7.8,2.11,1.7.09,3.52.32,5.2.62,2.28.01,4.65,0,6.93,0,6.63,0,13.29,0,19.92,0,9.23,0,18.49,0,27.72,0,3.15,0,6.38,0,9.53,0,1.39,0,2.94,0,4.33,0,.79-.23,1.84-.65,2.6-.98,4.57-1.95,8.75-4.77,12.99-7.31,4.52-2.79,8.51-4.25,13.86-3.03,7.2,1.57,14.14,4.96,21.65,4.7,3.19-.03,6.36-.93,9.53-1.25,3.83-.46,7.78.26,11.26,1.88,2.66,1.19,5.22,2.8,7.8,4.16,1.6.78,3.38,1.76,5.2,1.83,2.57,0,5.23,0,7.8,0"/><path class="b" d="M8.95,187.93c2.26.69,4.59,1.57,6.93,1.94,1.97.22,4.08.2,6.06.34,6.37.46,12.76-.15,19.06-1.1,4.02-.58,8.19-.67,12.13.45,2.32.58,4.66,1.44,6.93,2.2,6.05,0,12.14,0,18.19,0,1.98,0,4.08,0,6.06,0,1.1-.05,2.45.2,3.46-.32,8.2-3.52,15.58-9.06,24.25-11.43,5.15-1.14,10.47,0,15.59.73,4,.63,8.09,1.11,12.13,1.44,3.15.39,6.38.39,9.53.06,4.37-.4,8.9-.02,12.99,1.64,7.42,2.98,12.12,7.27,20.79,5.97"/><path class="b" d="M8.95,182.74c2.25.68,4.59,1.49,6.93,1.8,5.81.43,11.66-.54,17.32-1.75,5.91-1.21,12.28-3.07,18.19-.93,2.37.85,4.7,2.1,6.93,3.27,1.38.63,2.8,1.73,4.33,1.92,1.98,0,4.08,0,6.06,0,4.6,0,9.26,0,13.86,0,1.21-.1,2.39-1.02,3.46-1.53,1.98-1.09,4.06-2.26,6.06-3.3,4.62-2.45,9.58-4.4,14.72-5.43,6.53-1.48,13.27-1.42,19.92-1.79,4.02-.2,8.1-.56,12.13-.27,2.89.22,5.76,1.14,8.66,1.26,5.31.29,10.7,1.02,15.59,3.22,6.92,2.92,11.9,7.08,19.92,5.33"/><path class="b" d="M8.95,178.3c8.32,2.85,13.44,1.77,21.65-.54,6.38-1.76,13.42-4.19,19.92-1.67,3.95,1.64,7.43,4.34,11.26,6.24,1.69.07,3.51.02,5.2.04,3.73,0,7.53,0,11.26,0,1.94.25,3.6-1.15,5.2-2.04,2.27-1.39,4.59-2.93,6.93-4.21,3.45-1.93,7.3-3.34,11.26-3.69,2.85-.29,5.8-.1,8.66-.12,4.05-.1,8.15-.46,12.13-1.24,5.46-.97,10.85-3.05,16.46-2.86,2.68.1,5.22,1.31,7.8,1.9,4.1,1.03,8.26,2.13,12.13,3.84,5.04,2.13,9.65,5.27,14.72,7.34,3.01,1.27,6.47.9,9.53-.01"/><path class="b" d="M8.95,174.19c2.81.78,5.72,1.71,8.66,1.79,8.34.16,16-4.14,24.25-4.71,6.84-.62,10.94,2.43,16.46,5.74,1.22.92,2.91.58,4.33.64,2.28,0,4.65,0,6.93,0,2.86,0,5.8,0,8.66,0,4.69-1.94,8.49-5.61,12.99-7.91,3.42-1.86,7.36-2.86,11.26-2.6,3.17.15,6.35.94,9.53.95,7.52.29,14.54-2.74,21.65-4.69,5.41-1.4,8.03-.36,12.99,1.64,7.82,2.76,14.73,7.45,21.65,11.9.62.54,1.79.8,2.6.71,1.08,0,2.39,0,3.46,0,2.86,0,5.8,0,8.66,0"/><path class="b" d="M8.95,169.46c2.26.68,4.61,1.47,6.93,1.91,2.25.41,4.65.43,6.93.3,8.08-.48,16.12-3.48,24.25-2.07,3.15.4,5.78,2.28,8.66,3.35,1.69,0,3.51,0,5.2,0,4.6,0,9.26,0,13.86,0,6.3.04,5.2.47,10.39-3.28,5.57-4.27,11.72-8.4,19.06-7.93,3.15.13,6.37.56,9.53.45,4.96,0,9.91-.81,14.72-1.94,3.67-.8,7.47-1.77,11.26-1.4,3,.38,5.87,1.71,8.66,2.81,6.61,2.75,12.36,7.16,18.19,11.23,5.47.13,10.99,0,16.46.05"/><path class="b" d="M8.95,163.58c6.43,2.26,13.12,3.87,19.92,4.52,6.33.35,12.72.05,19.06.15,8.94,0,17.91,0,26.85,0,1.69,0,3.51,0,5.2,0,.86-.21,1.86-.87,2.6-1.33,4.6-3.02,8.82-6.8,13.86-9.11,3.76-1.8,7.99-2.43,12.13-2.59,6.06-.66,12.14.11,18.19.54,4.31.31,8.7.32,12.99.88,4.49.67,8.91,2.14,12.99,4.13,4.23,2.07,8.17,4.79,12.13,7.34,2.25.32,4.66.06,6.93.14,3.73,0,7.53,0,11.26,0"/><path class="b" d="M8.95,156.92c5.24,1.94,10.53,3.9,15.59,6.29,1.02.56,2.36.29,3.46.34,1.69,0,3.51,0,5.2,0,4.89,0,9.83,0,14.72,0,9.52,0,19.06,0,28.58,0,1.59.21,2.95-.51,4.33-1.17,2.07-1.02,4.13-2.32,6.06-3.56,4.62-3.01,9.42-5.97,14.72-7.61,2.52-.81,5.21-1.37,7.8-1.92,1.95-.46,4.04-.92,6.06-.73,5.1.42,9.88,2.57,14.72,4.07,4.48,1.49,9.17,2.39,13.86,2.89,4.55.66,8.93,2.38,12.99,4.48,1.4.72,2.95,1.56,4.33,2.32.73.41,1.77,1.03,2.6,1.23.4,0,1.32,0,1.73,0,5.76,0,11.56,0,17.32,0"/><path class="b" d="M8.95,150.1c2.65,1.07,5.23,2.54,7.8,3.78,2.77,1.23,5.3,3.1,7.8,4.79,2.24.38,4.66.07,6.93.17,4.31,0,8.68,0,12.99,0,9.23,0,18.49.01,27.72,0,6.11-1.04,11.69-3.9,17.32-6.34,5.31-2.35,10.89-4.12,16.46-5.75,2.89-.72,5.66-2.34,8.66-2.5,3.99-.11,7.75,1.73,11.26,3.42,4.92,2.41,10,5.14,15.59,5.4,4.13-.14,8.29.64,12.13,2.17,1.71.66,3.53,1.47,5.2,2.25,1.07.45,2.29,1.25,3.46,1.37,6.92,0,13.87,0,20.79,0"/><path class="b" d="M8.95,144.01c3.5,2.01,6.98,4.22,10.39,6.37,1.12.8,2.39,1.82,3.46,2.69.7.61,1.62,1.25,2.6,1.08,5.47,0,10.99,0,16.46,0,2.57,0,5.23,0,7.8,0,1.43-.26,2.9-1.02,4.33-1.32,6.5-1.72,13.3-.64,19.92-1.14,2.96-.16,5.85-1.12,8.66-1.98,2.81-.78,5.77-1.33,8.66-1.74,5.21-.76,10.56-1.14,15.59-2.76,2.08-.6,4.06-1.75,6.06-2.52,4.1-1.32,8.4.35,12.13,2.05,4.98,2.27,9.98,5.23,15.59,5.38,2.57-.09,5.25-.44,7.8.17,2.36.47,4.72,1.33,6.93,2.27,1.4.47,2.83,1.6,4.33,1.6,7.78-.09,15.62.19,23.39-.11"/><path class="b" d="M8.95,139.77c3.15,2.25,6.23,4.76,9.53,6.8.79.56,1.84,1.36,2.6,1.97.38.38,1.18.89,1.73.9,7.79,0,15.6,0,23.39,0,9.3-7.2,16.26-5.01,26.85-3.79,1.99.16,4.11.12,6.06-.32,2.5-.73,5.18-1.13,7.8-1.04,6.9.15,13.99,2.48,20.79.35,1.8-.51,3.5-1.6,5.2-2.35,1.61-.64,3.47-.9,5.2-.82,6.31.39,11.99,3.76,18.19,4.73,1.67.27,3.51.38,5.2.23,1.68-.23,3.51-.43,5.2-.15,2.06.3,4.17,1.03,6.06,1.89,1.09.39,2.26,1.42,3.46,1.27,8.94,0,17.91,0,26.85,0"/><path class="b" d="M8.95,137.38c3.32,2.6,6.61,5.43,10.39,7.35,3.73,0,7.53,0,11.26,0,2.57,0,5.23,0,7.8,0,1.09,0,2.37,0,3.46,0,.52.08,1.29-.11,1.73-.36,2.2-1.77,4.42-3.76,6.93-5.08,11.15-5.76,19.99,4.27,31.18,1.57,6.58-.56,12.69,2.69,19.06,3.75,1.07.2,2.38.1,3.46.12,1.09-.02,2.4.1,3.46-.18,3-.69,5.59-2.73,8.66-3.25,7.45-1.54,15.02.6,22.52.54,1.69.05,3.51-.17,5.2-.13,1.43.08,2.99.46,4.33.95,1.44.53,2.99,1.3,4.33,2.05.41.01,1.32.02,1.73.02,9.52,0,19.06,0,28.58,0"/><path class="b" d="M8.95,135.8c1.38.97,2.91,2.04,4.33,2.93,1.02.64,2.2,1.48,3.46,1.29,5.76,0,11.56,0,17.32,0,1.69-.07,3.54.18,5.2-.17,4.04-2.77,7.52-6.63,12.13-8.5,7.59-2.84,14.8,2.34,21.65,4.98,1.63.62,3.45,1.15,5.2,1.31,1.39.1,2.94-.1,4.33.05,2.65.25,5.3,1.06,7.8,1.96,1.02.51,2.36.35,3.46.37,1.69,0,3.51,0,5.2,0,5.18,0,10.41,0,15.59,0,.77,0,1.83,0,2.6,0,1.07-.41,2.37-.87,3.46-1.22,2.52-.81,5.18-1.49,7.8-1.93,4.85-.82,9.87-.86,14.72-.06,2.77.51,5.31,1.98,7.8,3.22,1.08,0,2.38,0,3.46,0,9.52,0,19.06,0,28.58,0"/><path class="b" d="M8.95,135.09c1.91.52,4.09.12,6.06.24,3.44,0,6.95,0,10.39,0,2.28,0,4.65,0,6.93,0,1.42-.04,3.14.27,4.33-.72,2.94-1.82,5.78-3.95,8.66-5.85,3.06-2.1,6.58-3.93,10.39-3.76,6.97.24,12.78,4.7,19.06,7.2,2.99,1.38,6.4,1.34,9.53,2.21,1.1.26,2.34.79,3.46.91,2.86,0,5.8,0,8.66,0,7.5,0,15.02,0,22.52,0,1.21.11,2.38-.9,3.46-1.32,1.92-.92,4.01-1.79,6.06-2.37,3.63-1.07,7.61-1.21,11.26-.15,1.76.49,3.59,1.28,5.2,2.15,1.09.51,2.24,1.54,3.46,1.69,2.57,0,5.23,0,7.8,0,8.94,0,17.91,0,26.85,0"/><path class="b" d="M8.95,130.63c7.79,0,15.6,0,23.39,0,.45,0,1.29,0,1.73,0,.87-.15,1.84-.8,2.6-1.21,1.39-.77,2.93-1.64,4.33-2.4,5.58-3.03,11.62-6.32,18.19-5.36,5.47.61,10.53,3.03,15.59,5.01,3.34,1.38,6.96,2.12,10.39,3.24,1.95.84,3.99.75,6.06.72,2.86,0,5.8,0,8.66,0,5.47,0,10.99,0,16.46,0,1.22.17,2.41-.81,3.46-1.29,1.36-.71,2.91-1.48,4.33-2.08,7.37-3.29,13.77-1.52,19.92,3.32,12.98.14,25.99,0,38.98.05"/><path class="b" d="M8.95,125.92c9.52-.07,19.07.13,28.58-.07,3.36-1.51,6.91-2.71,10.39-3.9,5.52-2.02,11.41-3.45,17.32-3.11,8.17.26,15.56,4.17,23.39,6.04,3.38.9,6.91,1.18,10.39,1.05,2.57-.06,5.24.15,7.8-.15,2.6-.36,5.33-.67,7.8-1.61,5.23-1.99,10.69-4.95,16.46-3.64,3.56.76,6.75,2.84,9.53,5.12,1.6.58,3.52.17,5.2.29,12.41,0,24.84,0,37.24,0"/><path class="b" d="M8.95,121.22c10.68,0,21.37,0,32.05,0,1.69-.01,3.51.03,5.2-.03,1.71-.5,3.53-1.11,5.2-1.74,7.18-2.75,14.65-6.13,22.52-5.17,4.21.41,8.04,2.5,12.13,3.44,5.35,1.37,10.98,1.57,16.46.96,4.64-.59,9.37-1.12,13.86-2.49,9.81-3.09,14.71-1.13,22.52,5.03h44.17"/><path class="b" d="M8.95,116.52c8.94,0,17.91,0,26.85,0,3.15,0,6.38,0,9.53,0,1.68-.09,3.56.24,5.2-.23,7.03-3.04,13.84-7.37,21.65-7.95,1.99-.14,4.11,0,6.06.43,1.7.4,3.48,1.02,5.2,1.33,3.4.66,6.94.78,10.39.6,5.8-.31,11.57-1.4,17.32-2.15,4.28-.61,8.73-1.46,12.99-.34,3.51.87,6.71,2.85,9.53,5.07.78.62,1.85,1.51,2.6,2.18.56.71,1.69,1.22,2.6,1.06,14.72,0,29.45,0,44.17,0"/><path class="b" d="M8.95,111.81c10.39,0,20.8,0,31.18,0,2.28,0,4.65,0,6.93,0,1.51-.2,2.95-1.24,4.33-1.84,2.55-1.27,5.18-2.59,7.8-3.74,5.68-2.52,11.93-4.26,18.19-3.67,1.7.14,3.49.57,5.2.63,2.88.12,5.83-.28,8.66-.76,5.73-1.03,11.51-2.09,17.32-2.57,3.14-.28,6.38-.66,9.53-.27,8.05.92,14.23,6.82,19.92,12.08,5.45.34,10.99.03,16.46.13,9.52,0,19.06,0,28.58,0"/><path class="b" d="M8.95,107.11c7.21,0,14.45,0,21.65,0,2.57,0,5.23,0,7.8,0,1.09-.03,2.39.1,3.46-.15.79-.29,1.83-.71,2.6-1.04,2.7-1.08,5.19-2.77,7.8-4.05,3.28-1.63,6.81-2.9,10.39-3.67,3.96-.86,8.08-1.13,12.13-1.11,2.86-.04,5.83.32,8.66-.2,4.37-.8,8.61-2.41,12.99-3.19,3.97-.77,8.09-.84,12.13-.8,15.82-1.12,21.25,4.89,32.91,13.9,1.59.61,3.52.18,5.2.3,3.15,0,6.38,0,9.53,0,8.94,0,17.91,0,26.85,0"/><path class="b" d="M8.95,102.41c5.18,0,10.41,0,15.59,0,2.85-.09,5.83.2,8.66-.14,3.71-1.48,7.63-2.62,11.26-4.31,3.01-1.33,5.59-3.61,8.66-4.81,6.88-2.94,14.45-1.48,21.65-1.08,3.19.17,6.49-.09,9.53-1.13,12.09-4.25,13.71-3.65,25.98-2.11,5.19.13,10.49-.25,15.59.93,8.69,1.99,16.37,7.02,23.39,12.34.7.41,1.82.33,2.6.32,1.38,0,2.95,0,4.33,0,4.31,0,8.68,0,12.99,0,4.52-2.83,8.26-5.18,13.86-3.77"/><path class="b" d="M8.95,97.71c5.76,0,11.56,0,17.32,0,4.85-2.84,10.36-4.24,15.59-6.18,3.13-1.08,5.91-3.01,8.66-4.8,3.64-2.11,8.02-2.51,12.13-1.93,6.57.9,13.36,3.49,19.92,1.16,3.12-.96,6.27-2.16,9.53-2.57,3.17-.44,6.46-.02,9.53.85,3.14.84,6.26,2.18,9.53,2.42,4.11.19,8.16-1.06,12.13-1.96,5.08-1.24,10.54-1.85,15.59-.17,9.19,2.77,15.24,13.75,25.98,9.21,6.44-2.6,10.6-7.98,18.19-5.08"/><path class="b" d="M8.95,93h14.72c2.94-1.99,6.16-3.68,9.53-4.82,3.42-1.2,7.03-2.04,10.39-3.41,6.19-2.61,7.85-6.05,15.59-5.96,6.42.06,12.6,2.85,19.06,2.35,3.79-.41,7.45-1.89,11.26-2.18,6.99-.83,12.7,2.97,19.06,4.98,9.92,2.85,18.75-9.99,29.45-9.17,9.36.73,14.58,12.09,25.12,10.04,7.45-1.51,11.69-7.62,19.92-4.19"/><path class="b" d="M8.95,88.3c2.86,0,5.8,0,8.66,0,1.09,0,2.37,0,3.46,0,.54.08,1.28-.11,1.73-.37,2.12-1.63,4.51-3.1,6.93-4.23,6.18-2.97,13.32-3.87,19.06-7.8,7.07-4.89,15.07-1.85,22.52.23,2.23.57,4.62,1.03,6.93.97,1.7-.07,3.51-.46,5.2-.63,4.36-.56,8.86-.08,12.99,1.42,4.06,1.37,7.9,3.62,12.13,4.47,4.28,1,8.14-1.75,11.26-4.35,3.42-2.83,6.67-6.04,10.39-8.48,13.59-9.08,18.23,6.27,30.32,7.58,4.94.45,9.32-2.4,13.86-3.82,2.8-.82,5.9-.64,8.66.24"/><path class="b" d="M8.95,83.6c4.02,0,8.1,0,12.13,0,2.33-1.4,4.49-3.29,6.93-4.53,3.29-1.84,6.87-3.23,10.39-4.56,2.93-1.11,5.93-2.29,8.66-3.82,5.77-4,10.91-4,17.32-1.56,4.54,1.62,8.97,4.12,13.86,4.48,2.86-.02,5.82-.28,8.66.29,6.91,1.05,13.02,5.03,19.92,6.04,5.68.93,9.42-2.94,12.99-6.73,4.23-4.4,8.19-9.57,13.86-12.19,12.89-5.44,18.3,13.02,32.05,9.55,6.09-1.64,10.62-4.45,17.32-3.06"/><path class="b" d="M8.95,78.89c3.73,0,7.53,0,11.26,0,.53-.1,1.35-.62,1.73-.98,1.07-.79,2.34-1.69,3.46-2.4,3.01-1.93,6.28-3.59,9.53-5.08,4.05-1.86,8.23-3.61,12.13-5.79,5.8-3.95,11.15-3.62,17.32-.75,4.03,1.78,7.86,4.24,12.13,5.44,1.65.5,3.5.46,5.2.58,1.42.15,2.97.5,4.33.91,6.07,1.82,11.76,5.31,18.19,5.77,6.31.44,10.04-2.65,13.86-7.24,4.23-4.77,8.06-10.41,13.86-13.4,4.08-2.08,9.13-1.37,12.99.87,6.4,4.12,12.36,11.21,20.79,9.34,2.33-.44,4.66-1.34,6.93-2.01,3.36-.86,6.91-1.59,10.39-1.29"/><path class="b" d="M8.95,74.19c3.73,0,7.53,0,11.26,0,5.52-3.68,11.34-6.95,17.32-9.82,3.18-1.59,6.43-3.24,9.53-4.98,6.49-4.34,12.45-3.36,19.06.06,3.42,1.69,6.76,3.79,10.39,5.02,1.35.47,2.91.69,4.33.8,1.44.2,2.99.69,4.33,1.23,5.89,2.38,11.59,6.34,18.19,6.02,5.23-.21,9.82-3.34,12.99-7.35,4.67-5.22,8.69-11.98,15.59-14.43,4.03-1.26,8.36.09,12.13,1.62,6.74,3.76,12.22,11.63,20.79,10.59,2.64-.26,5.24-1.23,7.8-1.92,3.41-.72,6.89-1.7,10.39-1.69"/><path class="b" d="M8.95,69.49c4.02-.07,8.12.15,12.13-.09,5.78-3.71,12.09-6.54,18.19-9.65,12.45-6.24,15.19-10.75,29.45-4.06,2.82,1.29,5.67,2.76,8.66,3.63,1.07.32,2.37.5,3.46.65,1.46.29,3,.91,4.33,1.55,5.97,2.95,12,7.72,19.06,6.51,8.46-1.39,12.81-9.52,18.19-15.26,2.78-2.98,6.18-5.99,10.39-6.48,3.87-.36,7.68,1.18,11.26,2.46,6.85,3.75,12.14,11.88,20.79,11.17,2.64-.17,5.25-1.08,7.8-1.73,3.43-.66,6.88-1.76,10.39-1.87"/><path class="b" d="M8.95,64.79c2.86,0,5.8,0,8.66,0,1.68-.14,3.72.42,5.2-.56,6.91-3.67,14.53-5.78,21.65-8.96,2.61-1.11,5.12-2.68,7.8-3.65,7.38-2.91,15.22-.77,22.52,1.29,2.52.78,5.3.8,7.8,1.66,7.73,3.05,14.33,11.31,23.39,9.35,11.2-2.68,15.05-18.46,26.85-20.32,3.8-.42,7.62.83,11.26,1.78,7.4,3.43,12.61,11.02,21.65,10.45,2.6-.11,5.23-.81,7.8-1.2,3.16-.38,6.33-1.23,9.53-1.27"/><path class="b" d="M8.95,60.08c4.02,0,8.1,0,12.13,0,4.65-2.17,9.6-3.74,14.72-4.28,3.45-.46,7.02-.74,10.39-1.66,3.75-1.19,7.42-2.84,11.26-3.75,7.32-1.94,14.98-2.43,22.52-1.89,5.75.75,9.98,5.41,14.72,8.33,2.12,1.34,4.44,2.77,6.93,3.24,1.08,0,2.38,0,3.46,0,5.03.6,8.75-3.66,12.13-6.78,3.63-3.49,7.36-7.26,12.13-9.14,3.27-1.33,6.93-1.29,10.39-1.05,1.99.14,4.12-.12,6.06.42,5.09,1.37,9.64,4.35,14.72,5.77,3.63,1.11,7.49,1.4,11.26,1.52,3.73.29,7.53.15,11.26.3"/><path class="b" d="M8.95,55.38c2.28,0,4.65,0,6.93,0,1.39-.05,2.96.15,4.33-.16,1.63-.87,3.44-1.7,5.2-2.27,6.98-2.43,13-.03,19.92.46,2.03.11,4.1-.44,6.06-.88,3.18-.71,6.41-1.53,9.53-2.46,6.27-1.63,16.39-6.42,22.52-3.97,4.79,1.99,8.62,5.73,12.99,8.44,1.2,1.03,2.86.88,4.33.85,1.69,0,3.51,0,5.2,0,1.98,0,4.08,0,6.06,0,1.55-.6,2.96-1.89,4.33-2.81,7.93-5.96,12.68-8.03,22.52-9.35,2.04-.31,4.07-1.11,6.06-1.6,2.52-.58,5.22-.7,7.8-.47,10.53,1.04,19.9,6.77,30.32,8.4"/><path class="b" d="M8.95,50.68c3.15-.02,6.38.04,9.53-.03,1.37-.79,2.9-1.64,4.33-2.29,4.66-2.31,9.95-2.31,14.72-.33,2.31.78,4.54,2.16,6.93,2.64,3.73,0,7.53,0,11.26,0,2.28-.06,4.72.25,6.93-.44,6.15-1.37,11.8-5.08,18.19-5.3,3.49.18,6.64,2.14,9.53,3.95,1.08.57,2.18,1.78,3.46,1.79,2.28,0,4.65,0,6.93,0,4.89,0,9.83,0,14.72,0,1.09-.03,2.4.12,3.46-.18,1.07-.49,2.37-1.04,3.46-1.47,2.52-.99,5.19-1.82,7.8-2.56,3.51-1.01,7.14-1.97,10.39-3.68,3.47-1.93,6.66-4.54,10.39-5.98,7.4-3.17,13.92.69,19.92,4.88,3.82,2.51,7.84,4.94,12.13,6.57"/><path class="b" d="M8.95,45.97c2.57,0,5.23,0,7.8,0,1.85-.34,3.48-1.81,5.2-2.56,2.39-1.26,5.06-2.31,7.8-2.41,3.03-.13,6.02.97,8.66,2.38,1.11.59,2.38,1.34,3.46,1.98.71.56,1.73.67,2.6.61,13.85,0,27.72,0,41.58,0,12.12,0,24.26,0,36.38,0,3.73,0,7.53,0,11.26,0,3.18-1.12,6.12-3.1,8.66-5.3,3.63-3.22,6.88-7.14,11.26-9.36,9.13-4.51,15.9,5.91,22.52,10.51,1.06.86,2.36,1.87,3.46,2.68.96.71,2.18,1.69,3.46,1.48"/><path class="b" d="M8.95,41.27c2.57,0,5.23,0,7.8,0,6.06-2.65,11.12-7.02,18.19-4.51,3.13.96,5.74,3.15,8.66,4.51,6.05,0,12.14,0,18.19,0,25.69,0,51.39,0,77.09,0,5.42-4,8.92-10.27,14.72-13.81,6.33-3.95,12.06,1.04,16.46,5.43,1.9,1.91,4.04,3.79,6.06,5.57,1.07.9,2.21,2.18,3.46,2.82h3.46"/><path class="b" d="M8.95,36.57c3.15,0,6.38,0,9.53,0,2.18.19,4.07-1.39,6.06-2.05,2.98-1.23,6.31-1.94,9.53-1.4,3.05.48,5.93,1.89,8.66,3.28,1.95.36,4.09.08,6.06.16,3.73,0,7.53,0,11.26,0,26.27-.02,52.55.05,78.82-.02,5.79-4.4,10.71-13.24,18.19-14.36,5.35-.46,9.45,3.92,12.99,7.33,2.46,2.44,5.07,4.93,7.8,7.06h5.2"/><path class="b" d="M8.95,31.87c5.47,0,10.99,0,16.46,0,1.42.07,2.93-.57,4.33-.73,2.26-.37,4.66-.39,6.93-.08,1.41.16,2.93.61,4.33.82,2.28,0,4.65,0,6.93,0,5.47,0,10.99,0,16.46,0,15.59,0,31.19,0,46.77,0,8.65,0,17.33,0,25.98,0,4.48-2.84,7.91-7.23,12.13-10.44,9.75-7.95,16.43,0,23.39,6.91,1.34,1.16,2.69,2.8,4.33,3.54,1.98,0,4.08,0,6.06,0"/><path class="b" d="M8.95,27.16c34.07,0,68.14,0,102.21,0,8.36,0,16.76,0,25.12,0,1.65-.45,2.93-2.07,4.33-3,2.9-2.19,5.69-4.69,8.66-6.79,9.2-6.7,15.67-1.46,22.52,5.39,5.5,5.3,3.73,4.36,11.26,4.4"/><path class="b" d="M8.95,20.84c.77.51,1.79,1.16,2.6,1.6,1.39.05,2.94.02,4.33.02,3.15,0,6.38,0,9.53,0,9.81,0,19.64,0,29.45,0,27.71,0,55.44,0,83.15,0,3.21-2.09,6.5-4.21,9.53-6.55,8.1-6.28,14.4-7.55,22.52-.43,2.86,2.28,5.18,5.59,8.66,6.98,1.39,0,2.94,0,4.33,0"/></svg>