<?xml version="1.0" encoding="UTF-8"?><svg id="a" xmlns="http://www.w3.org/2000/svg" width="1920" height="2400" viewBox="0 0 192 240"><defs><style>.b{fill:none;stroke:#fff;stroke-miterlimit:10;stroke-width:.4px;}.c{stroke-width:0px;}</style></defs><rect class="c" width="192" height="240"/><path class="b" d="M8.57,232.16c2.58,0,5.25,0,7.83,0,1.4-.08,3.01.22,4.35-.25,4.57-1.44,9.3-2.53,13.92-3.79,4.9-1.32,9.83-2.73,14.79-3.8,8.28-2.79,13.56-7.06,22.62-2.99,3.59,1.42,6.69,4.14,10.44,5.12,8.25,1.37,15.76-6.01,24.36-4.06,4.64.95,8.09,4.59,12.18,6.73,2.61,1.44,5.74,2.25,8.7,1.57,2.85-.62,5.44-2.26,7.83-3.85,2.17-1.43,4.42-3.11,6.96-3.8,4.75-1.06,9.23,1.87,13.05,4.33,1.69,1.12,3.51,2.38,5.22,3.48.98.66,2.22,1.51,3.48,1.31,6.37,0,12.77,0,19.14,0"/><path class="b" d="M8.57,227.44c7.53-.04,15.09.09,22.62-.05,5.49-1,11.02-2.05,16.53-2.98,3.43-.43,6.53-2.25,9.57-3.77,4.25-2.22,9.04-4.06,13.92-3.36,3.01.38,5.93,1.54,8.7,2.73,6.01,2.48,12.27-.91,18.27-1.76,3.46-.58,7.15-.4,10.44.89,6.24,2.59,11.81,8.57,19.14,6.34,3.83-1.09,7.05-3.65,10.44-5.63,7.96-5.38,16,2.54,22.62,6.57.38.28,1.32.8,1.74,1.02.4,0,1.33,0,1.74,0,1.69,0,3.53,0,5.22,0,4.62,0,9.3,0,13.92,0"/><path class="b" d="M8.57,222.71c7.53,0,15.09,0,22.62,0,4.91-.23,9.87-.37,14.79-.47,3.64.09,7.2-.93,10.44-2.53,5.79-2.71,11.68-6.13,18.27-6.02,3.23-.07,6.34,1.37,9.57,1.24,5.79-.19,11.63-1.7,17.4-.5,3,.55,5.95,1.67,8.7,2.97,3.83,1.85,7.81,4.02,12.18,4.03,3.7.05,7.24-1.5,10.44-3.23,2.77-1.44,5.56-3.26,8.7-3.75,5.66-.38,10.77,2.91,15.66,5.33,1.38.72,2.94,1.51,4.35,2.16.73.33,1.76.92,2.61.77,6.37,0,12.77,0,19.14,0"/><path class="b" d="M8.57,217.99c4.04,0,8.14,0,12.18,0,3.16-.49,6.35-1.31,9.57-1.42,5.83-.42,11.62.77,17.4,1.34,3.82.36,7.7-.31,11.31-1.56,7.42-2.43,14.49-7.4,22.62-6.3,9.75-.4,14.14-1.32,23.49,3.15,4.4,2.06,8.93,4.48,13.92,4.46,7.25.18,13.22-4.7,20.01-6.37,3.53-.79,7.1.67,10.44,1.67,4.32,1.45,8.64,3.08,13.05,4.26,2.78,1,5.8.75,8.7.76,4.04,0,8.14,0,12.18,0"/><path class="b" d="M8.57,213.27c2.58-.08,5.28.2,7.83-.2,5.78-1.06,11.44-3.29,17.4-3.16,7.68-.04,14.95,3.5,22.62,3.36,1.4-.01,2.95.04,4.35-.04,2.99-.43,5.93-1.48,8.7-2.67,3.62-1.52,7.3-3.47,11.31-3.56,12.2-1.75,15.55-.52,26.1,5.53,1.24.9,2.9.75,4.35.74,1.99,0,4.1,0,6.09,0,1.99-.01,4.1.03,6.09-.02,4.64-1.86,8.98-4.7,13.92-5.74,3.26-.81,6.5.43,9.57,1.39,3.7,1.14,7.5,2.16,11.31,2.87,3.15.56,6.39,1.12,9.57,1.5,5.2,0,10.45,0,15.66,0"/><path class="b" d="M8.57,208.54c3.17-.03,6.41.06,9.57-.04,4.15-.78,8.06-2.63,12.18-3.52,3.98-.94,8.2-.84,12.18.07,2.6.61,5.28,1.27,7.83,2.06,1.41.42,2.89,1.2,4.35,1.44,4.62,0,9.3,0,13.92,0,.78,0,1.83.02,2.61-.05,1.99-.79,4.06-1.75,6.09-2.43,2.8-.83,5.83-1.14,8.7-1.66,4.79-.79,9.72.32,13.92,2.7.78.42,1.83,1.03,2.61,1.45,1.99,0,4.1,0,6.09,0,4.33,0,8.72,0,13.05,0,1.09,0,2.39,0,3.48,0,1.15-.51,2.39-1.38,3.48-2.01,2.69-1.58,5.59-3.12,8.7-3.66,2.66-.55,5.36.26,7.83,1.19,2.83.96,5.78,1.85,8.7,2.52,3.71.87,7.55,1.38,11.31,1.96,6.08,0,12.19,0,18.27,0"/><path class="b" d="M8.57,203.82c6.08,0,12.19,0,18.27,0,.85.03,1.84-.47,2.61-.74,1.08-.39,2.37-.81,3.48-1.1,4.25-1.17,8.78-1,13.05-.04,1.41.3,2.99.61,4.35,1.09.78.27,1.77.77,2.61.8,4.33,0,8.72,0,13.05,0,5.2-.05,10.46.09,15.66-.06,1.98-.34,4.08-.75,6.09-.91,1.7-.13,3.54-.07,5.22.23,1.11.16,2.36.71,3.48.74,10.14,0,20.31,0,30.45,0,4.36-3.08,9.06-7.26,14.79-6.54,5.04,1.12,9.84,3.27,14.79,4.73,2.27.61,4.61,1.61,6.96,1.82,6.66,0,13.35,0,20.01,0"/><path class="b" d="M8.57,199.1h117.44c4.33-3.36,8.29-7.94,13.92-9.06,3.95-.68,7.85,1.16,11.31,2.86,2.63,1.35,5.26,2.9,7.83,4.35,1.37.62,2.78,1.97,4.35,1.85,6.66,0,13.35,0,20.01,0"/><path class="b" d="M8.57,194.37c34.8,0,69.6,0,104.39,0,3.75,0,7.56,0,11.31,0,.57-.03,1.39-.65,1.74-1.08,1.07-1.02,2.37-2.22,3.48-3.2,3.73-3.24,7.96-6.64,13.05-7.13,5.73-.29,10.44,3.91,14.79,7.09,2,1.38,3.85,3.36,6.09,4.33,6.66,0,13.35,0,20.01,0"/><path class="b" d="M8.57,189.65c38.57,0,77.14,0,115.7,0,5.64-4.78,13.91-12.14,21.75-11.53,6.99,1.41,12.45,7.64,18.27,11.46,6.36.18,12.77.01,19.14.07"/><path class="b" d="M8.57,184.93c38.87-.02,77.7-.01,116.57,0,4.14-2.69,8.41-5.34,13.05-7.11,2.26-.81,4.56-1.95,6.96-2.27,7.68-.51,14.81,6.24,21.75,8.99.71.44,1.81.4,2.61.38,1.39,0,2.96,0,4.35,0,3.16-.06,6.42.13,9.57-.09"/><path class="b" d="M8.57,180.2c11.88,0,23.79,0,35.67,0,5.5,0,11.03,0,16.53,0,1.71.05,3.5-.54,5.22-.46,1.41,0,2.96.26,4.35.46,4.62,0,9.3,0,13.92,0,9.85,0,19.73,0,29.58,0,4.91,0,9.88,0,14.79,0,1.46-.29,2.93-1.12,4.35-1.56,1.97-.71,4.1-1.36,6.09-2,2.58-.77,5.11-2.13,7.83-2.36,5.34-.52,10.55,1.33,15.66,2.6,7.75,2.11,13,2.18,20.88.66"/><path class="b" d="M8.57,175.48c40.89,0,81.78,0,122.66,0,2.28-.11,4.73.26,6.96-.23,4.03-.97,7.98-2.6,12.18-2.67,5.79-.29,11.61.38,17.4.57,5.21.29,10.46.06,15.66-.17"/><path class="b" d="M8.57,170.76c44.95,0,89.9,0,134.84,0,7.53.07,15.09-.06,22.62-.23,5.79.15,11.61.31,17.4.23"/><path class="b" d="M8.57,166.03h174.86"/><path class="b" d="M8.57,161.31h174.86"/><path class="b" d="M8.57,156.59h174.86"/><path class="b" d="M8.57,151.86c27.55,0,55.1,0,82.65,0,1.39-.01,2.96.03,4.35-.04,1.89-.83,4.03-1.38,6.09-1.55,4.64-.36,9.28.87,13.92.56,4.91-.16,9.88-.76,14.79-.3,2.02.19,4.15.58,6.09,1.17,1.07.26,2.39.13,3.48.16,14.49,0,29,0,43.5,0"/><path class="b" d="M8.57,147.14c19.13,0,38.28,0,57.42,0,8.69,0,17.41,0,26.1,0,1.51-.47,2.89-1.7,4.35-2.32,2.16-1.06,4.58-1.81,6.96-2.13,2.56-.36,5.25-.28,7.83-.35,4.05-.16,8.18-.05,12.18.66,2.95.52,5.92,1.39,8.7,2.52,1.11.45,2.41,1.04,3.48,1.57,1.08.08,2.39.04,3.48.05,14.78,0,29.58,0,44.37,0"/><path class="b" d="M8.57,142.42c21.46,0,42.92,0,64.38,0,4.04,0,8.14,0,12.18,0,1.98-.11,4.16.27,6.09-.23,1.06-.77,2.36-1.64,3.48-2.32,4.21-2.65,9.05-4.19,13.92-5.08,1.98-.38,4.06-.96,6.09-1.01,7.56-.2,14.14,4.37,20.01,8.62,16.23.07,32.48,0,48.72.02"/><path class="b" d="M8.57,137.69c21.46,0,42.92,0,64.38,0,4.04,0,8.14,0,12.18,0,5.42.05,4.04.33,8.7-2.35,4.97-2.82,10.39-4.78,15.66-6.92,10.61-5.9,18.38,3.16,26.1,9.27h47.85"/><path class="b" d="M8.57,132.97c22.04,0,44.08,0,66.12,0,4.62,0,9.3,0,13.92,0,2.86-1.16,5.81-2.31,8.7-3.4,3.53-1.35,7.12-2.8,10.44-4.63,2.06-1.06,3.97-2.65,6.09-3.57,9.7-3.75,17.35,6.54,24.36,11.6h45.24"/><path class="b" d="M8.57,128.24c17.97,0,35.96,0,53.94,0,5.2,0,10.45,0,15.66,0,2.29,0,4.67,0,6.96,0,1.68-.45,3.51-.89,5.22-1.2,6-1.04,12.21-2.16,17.4-5.53,2.12-1.26,3.99-3.13,6.09-4.43,5.44-3.49,11.49-1.76,16.53,1.56,5.53,3.49,10.62,8.35,17.4,9.08,1.97.44,4.08.6,6.09.52,2.58,0,5.25,0,7.83,0,7.24,0,14.51,0,21.75,0"/><path class="b" d="M8.57,123.52c6.66,0,13.35,0,20.01,0,1.2-.05,2.38-.93,3.48-1.35,1.65-.74,3.47-1.44,5.22-1.89,3.4-.9,7.09-.82,10.44.28,1.16.35,2.45.98,3.48,1.59.78.44,1.7,1.22,2.61,1.36,4.62,0,9.3,0,13.92,0,3.75,0,7.56,0,11.31,0,1.48-.16,2.88-1.21,4.35-1.51,2.52-.72,5.23-.94,7.83-1.07,5.02-.19,10.25-.5,14.79-2.85,2.91-1.37,5.28-3.72,7.83-5.63,4.18-3.16,9.76-4.37,14.79-2.68,5.77,1.73,10.69,5.63,16.53,7.19,2.95.85,6,1.77,8.7,3.26,1.13.62,2.44,1.45,3.48,2.2.64.56,1.7,1.28,2.61,1.09,7.82,0,15.67,0,23.49,0"/><path class="b" d="M8.57,118.8c.79,0,1.82,0,2.61,0,1.09-.26,2.37-.54,3.48-.66,1.1-.13,2.38,0,3.48,0,1.43-.03,2.99-.35,4.35-.75,8.78-2.92,16.46-8.26,26.1-4.94,2.53.9,4.78,2.62,6.96,4.14,1.07.72,2.28,1.7,3.48,2.2.44,0,1.3,0,1.74,0,3.75,0,7.56,0,11.31,0,1.69,0,3.53,0,5.22,0,1.15-.31,2.37-1.03,3.48-1.44,8.66-3.28,18.69-.34,26.97-5.02,2.47-1.27,4.63-3.26,6.96-4.75,4.07-2.7,8.98-4.47,13.92-3.94,4.58.43,8.85,2.42,13.05,4.16,6.91,2.47,12.18,5.81,17.4,10.99h24.36"/><path class="b" d="M8.57,111.65c2.19-.92,4.57-1.74,6.96-1.83,2.59.16,5.28.23,7.83-.4,6.94-1.53,13.63-4.93,20.88-4.66,5.96-.07,10.05,3.59,14.79,6.59,2.13,1.19,4.42,2.9,6.96,2.74,3.16-.03,6.41.06,9.57-.04,1.41-.4,2.95-.93,4.35-1.36,5.35-1.65,10.99-2.11,16.53-2.65,4.12-.42,8.35-1.05,12.18-2.69,8.47-4.31,15.04-9.22,25.23-7.13,5.64,1.27,11.1,3.78,15.66,7.35,1.77,1.38,3.59,2.99,5.22,4.53.41.41,1.33,1.25,1.74,1.67.7.41,1.83.33,2.61.32,8.11,0,16.25,0,24.36,0"/><path class="b" d="M8.57,105.14c2.71-1.12,5.76-1.89,8.7-1.35,3.16.48,6.45.23,9.57-.39,7.94-1.36,16.28-6.14,24.36-3.23,3.62,1.47,6.9,3.78,10.44,5.43,6.96,3.49,12.72,2.47,20.01,1.17,5.18-.96,10.4-2,15.66-2.48,5.26-.53,10.69-.76,15.66-2.75,5.86-2.14,11.93-4.48,18.27-4.13,9.13.47,15.56,5.65,21.75,11.85,10.13.25,20.31,0,30.45.09"/><path class="b" d="M8.57,100.26c2.23-.62,4.65-.94,6.96-.66,1.41.2,2.93.62,4.35.77,3.48.43,7.07.03,10.44-.9,7.38-1.88,14.83-7.18,22.62-4.19,4.62,1.57,9.08,3.86,13.92,4.74,3.42.67,6.98.61,10.44.42,1.99-.1,4.11-.1,6.09-.39,5.75-.9,11.55-2.02,17.4-1.7,4.33.16,8.75.62,13.05-.21,13.94-2.69,23.73-4.72,34.8,6.39,11.57.32,23.21.01,34.8.11"/><path class="b" d="M8.57,96.59c1.99-.17,4.12-.1,6.09.25,2.01.37,4.05,1.13,6.09,1.33,9.8,1.32,16.57-5.57,25.23-8.17,3.74-.93,7.64.13,11.31.92,3.98.93,8.08,1.68,12.18,1.77,2.58.08,5.25-.05,7.83-.06,1.99,0,4.1.2,6.09.04,5.49-.47,11.1-.93,16.53.32,4.32.86,8.59,2.48,13.05,2.43,12.21-.15,21.32-3.67,32.19,4.49h38.28"/><path class="b" d="M8.57,93.53c2.95.13,5.83,1.08,8.7,1.65,2.29,0,4.67,0,6.96,0,1.4-.07,2.99.19,4.35-.21,6.56-2.37,11.58-7.89,18.27-9.93,2.83-.64,5.84-.27,8.7-.04,3.16.31,6.39.59,9.57.55,4.05-.01,8.13-.62,12.18-.75,3.46.05,6.99.23,10.44.49,4.54.41,8.94,1.91,13.05,3.84,4.14,1.9,8.37,4.22,13.05,4.15,6.69.19,13.31-1.83,20.01-1.23,3.4.22,6.6,1.56,9.57,3.13,4.04,0,8.14,0,12.18,0,5.79,0,11.61,0,17.4,0,1.99,0,4.1,0,6.09,0,1.41-.08,3.12.31,4.35-.53"/><path class="b" d="M8.57,90.46c7.82,0,15.67,0,23.49,0,.94.08,1.95-.09,2.61-.81,1.11-.87,2.39-1.93,3.48-2.82,5.16-4.2,7.85-6.52,14.79-6.43,5.23-.09,10.51-.28,15.66-1.28,2.87-.5,5.8-1.15,8.7-1.41,4.7-.31,9.55.37,13.92,2.15,3.68,1.5,7.09,3.72,10.44,5.84,2.71,1.68,5.55,3.51,8.7,4.22,4.03.7,8.2-.03,12.18-.71,5.41-.98,11.13-2.05,16.53-.42,1.13.33,2.44.87,3.48,1.41,1.84.57,4.14.14,6.09.27,4.33,0,8.72,0,13.05,0,4.33,0,8.72,0,13.05,0,1.08,0,2.4,0,3.48,0,.48-.02,1.37-.4,1.74-.71,1.06-.66,2.38-1.41,3.48-2"/><path class="b" d="M8.57,85.73c8.11,0,16.25,0,24.36,0,1.4,0,2.95,0,4.35,0,.99-.24,1.86-1.32,2.61-1.95,2.33-2.05,4.83-4.28,7.83-5.26,4.85-1.1,9.92-1.14,14.79-2.17,9.95-1.86,17.75-6.64,27.84-1.82,6.74,2.88,12.05,8.65,19.14,10.74,2.83.6,5.85.19,8.7-.14,7.17-1.02,14.69-2.55,21.75-.13,1.05.43,2.32.86,3.48.72,1.69,0,3.53,0,5.22,0,4.62,0,9.3,0,13.92,0,4.62,0,9.3,0,13.92,0,2.36-1.16,4.61-2.78,6.96-3.99"/><path class="b" d="M8.57,81.01h33.93c3.45-2.9,6.08-3.7,10.44-4.34,3.77-.62,7.62-1.24,11.31-2.26,7.43-1.81,14.76-6.34,22.62-4.58,4.66.98,8.89,3.41,13.05,5.64,3.75,1.97,7.81,4.18,12.18,3.81,8.73-.66,16.75-1.06,25.23,1.73,6.66,0,13.35,0,20.01,0,6.08,0,12.19,0,18.27,0,1.22.18,2.48-.47,3.48-1.1,1.38-.78,2.94-1.64,4.35-2.38"/><path class="b" d="M8.57,76.29c14.2,0,28.42,0,42.63,0,1.09,0,2.39,0,3.48,0,1.71-.21,3.53-.62,5.22-.97,6.02-1.23,11.7-3.71,17.4-5.95,11.42-4.81,19.48.87,30.45,2.28,2.59.28,5.24-.33,7.83-.27,5.76-.03,11.37,1.85,16.53,4.3.98.64,2.35.66,3.48.61,1.09,0,2.39,0,3.48,0,3.46,0,6.98,0,10.44,0,6.95,0,13.93,0,20.88,0,2.58,0,5.25,0,7.83,0,.76,0,1.86.04,2.61-.14.75-.39,1.84-.91,2.61-1.28"/><path class="b" d="M8.57,71.56c15.65,0,31.32,0,46.98,0,3.17,0,6.4,0,9.57,0,1.39,0,2.96,0,4.35,0,1.14-.35,2.4-.99,3.48-1.49,13.26-6.96,17.56-6.82,32.19-6.54,2.89.09,5.82-.48,8.7-.63,7.28-.03,13.46,4.57,19.14,8.61,16.81.13,33.64,0,50.46.05"/><path class="b" d="M8.57,66.84c17.39,0,34.8,0,52.2,0,4.33-.03,8.72.06,13.05-.04,1.69-.97,3.51-2.04,5.22-2.99,7.78-4.38,16.38-7.27,25.23-8.45,3.73-.4,7.56-1.39,11.31-.83,8.01,1.38,13.68,7.81,20.01,12.31h47.85"/><path class="b" d="M8.57,62.12c11.59,0,23.21,0,34.8,0,6.95,0,13.93,0,20.88,0,2.58,0,5.25,0,7.83,0,1.39-.07,3,.19,4.35-.21,5.54-3.01,11.1-6.06,16.53-9.26,8.51-4.86,18.31-9.18,27.84-4.37,7.18,3.38,12.78,9.24,19.14,13.84h43.5"/><path class="b" d="M8.57,57.39c12.17,0,24.37,0,36.54,0,7.24,0,14.51,0,21.75,0,2.29,0,4.67,0,6.96,0,1.09-.02,2.4.08,3.48-.13.43-.22,1.3-.63,1.74-.82,9.16-3.45,15.79-11.2,24.36-15.7,4.77-2.59,8.86-2.09,13.92-.79,10.81,2.83,19.29,10.65,27.84,17.43h38.28"/><path class="b" d="M8.57,52.67c14.49,0,29,0,43.5,0,5.5,0,11.03,0,16.53,0,2.58,0,5.25,0,7.83,0,2.95-.89,6.07-1.67,8.7-3.33,4.45-2.7,8.25-6.41,12.18-9.78,2.89-2.44,5.94-5.03,9.57-6.26,1.95-.7,4.13-.47,6.09.05,1.99.41,4.1.78,6.09,1.2,11.66,2.07,21.24,8.89,28.71,17.88.76.3,1.82.24,2.61.24,1.4,0,2.95,0,4.35,0,4.04,0,8.14,0,12.18,0,3.46,0,6.98,0,10.44,0,1.09,0,2.39,0,3.48,0,.8.01,1.89.07,2.61-.35"/><path class="b" d="M8.57,47.95c17.97,0,35.96,0,53.94,0,4.62-.04,9.3.08,13.92-.05,1.65-.58,3.54-.73,5.22-1.15,1.82-.52,3.64-1.46,5.22-2.49,6.83-4.16,14.32-14.85,21.75-16.04,2.05-.27,4.09.73,6.09,1,2.56.45,5.25.66,7.83.97,8.27.73,15.4,4.28,20.88,10.54,2.15,2.22,3.79,5.18,6.09,7.22h30.45c1.05-.66,2.33-1.38,3.48-1.85"/><path class="b" d="M8.57,43.22c18.55,0,37.12,0,55.68,0,4.33,0,8.72,0,13.05,0,1.69,0,3.53.01,5.22-.01,1.83-.58,3.65-1.59,5.22-2.67,6.55-4.21,13.7-14.6,20.88-16,2.33-.33,4.64.84,6.96.97,3.15.37,6.41.36,9.57.71,7.14.54,13.68,4.29,18.27,9.7,1.14,1.31,2.43,2.96,3.48,4.35.7.91,1.61,2.33,2.61,2.96,6.95,0,13.93,0,20.88,0,3.16,0,6.4,0,9.57,0,1.2-.24,2.35-1.19,3.48-1.63"/><path class="b" d="M8.57,38.5c17.39,0,34.8,0,52.2,0,6.08,0,12.19,0,18.27,0,1.99,0,4.1,0,6.09,0,1.54,0,3.22.27,4.35-1.04,3.08-2.61,5.88-5.69,8.7-8.57,3.52-3.33,7.7-8.4,13.05-7.68,5.13,1.17,10.47.3,15.66.81,6.87.46,13.04,4.32,17.4,9.51,1.12,1.3,2.41,2.9,3.48,4.25.69.85,1.59,2.22,2.61,2.73,6.95,0,13.93,0,20.88,0,2.58,0,5.25,0,7.83,0,1.39-.08,3.02.23,4.35-.26"/><path class="b" d="M8.57,33.78c27.84,0,55.68,0,83.52,0,4.7-4.52,11.61-15.14,18.27-15.55,8.1,1.32,16.38-2.54,24.36.07,7.64,2.38,12.04,9.59,17.4,14.99.4.31,1.19.61,1.74.49.77,0,1.84,0,2.61,0,2.29,0,4.67,0,6.96,0,6.66,0,13.35,0,20.01,0"/><path class="b" d="M8.57,29.05h86.13c1.4-.76,2.39-2.49,3.48-3.62,2.83-3.19,5.71-6.72,9.57-8.68,1.87-1.03,4.06-.63,6.09-.69,5.93-.39,11.46-3.23,17.4-3.54,8.95-.73,14.15,6.25,20.01,11.75,1.88,1.67,3.82,3.65,6.09,4.78,2.58,0,5.25,0,7.83,0,6.08,0,12.19,0,18.27,0"/><path class="b" d="M8.57,24.33h88.74c1.63-1.15,2.89-3.08,4.35-4.43,2.43-2.4,5.19-5.08,8.7-5.62,2.32,0,4.74-.18,6.96-.93,7.28-2.22,14.8-7.63,22.62-4.61,3.6,1.5,6.52,4.34,9.57,6.7,4.21,3.42,8.71,6.78,13.92,8.49,1.04.44,2.37.43,3.48.41,1.39,0,2.96,0,4.35,0,4.04,0,8.14,0,12.18,0"/></svg>