<?xml version="1.0" encoding="UTF-8"?><svg id="a" xmlns="http://www.w3.org/2000/svg" width="1920" height="2400" viewBox="0 0 192 240"><defs><style>.b{fill:none;stroke:#fff;stroke-miterlimit:10;stroke-width:.4px;}.c{stroke-width:0px;}</style></defs><rect class="c" x="0" width="192" height="240"/><path class="b" d="M9.02,228.96c1.69,0,3.5,0,5.19,0,1.14-.27,2.36-.92,3.46-1.3,1.63-.58,3.47-.89,5.19-1.01,4.6-.26,9.27.19,13.85-.45,5.04-.6,9.85-2.41,14.71-3.78,4.2-1.22,8.76-1.51,12.98-.25,3.28.91,6.39,2.48,9.52,3.78,3.25,1.44,7.05,2.3,10.39.65,8-3.75,14.7-10.77,24.23-6.78,1.74.68,3.44,1.8,5.19,2.45,2.45.93,5.17,1.31,7.79,1.32,7.51-.07,15.24-1.9,21.64,3.28,1.05.7,2.25,1.7,3.46,2.08,1.68,0,3.51,0,5.19,0,5.47,0,10.98,0,16.44,0,2.24-.62,4.58-1.21,6.92-1.13,2.6-.17,5.24-.77,7.79-1.3"/><path class="b" d="M9.02,224.26c1.39,0,2.94,0,4.33,0,1.18.05,2.38-.75,3.46-1.12,1.34-.57,2.89-1.02,4.33-1.23,5.73-.75,11.59.16,17.31-.81,6.73-.83,13.04-4.25,19.9-4.06,4.27.12,8.34,1.8,12.12,3.68,3.03,1.35,6.12,3.45,9.52,3.55,1.09-.03,2.39.09,3.46-.13,2.09-.56,4.15-1.61,6.06-2.61,7.19-4.04,13.68-6.84,21.64-2.78,6.78,3.58,14.48,1.08,21.64.48,3.23-.24,6.63.17,9.52,1.7,2.22,1.2,4.54,2.51,6.92,3.35,3.44,0,6.95,0,10.39,0,4.11-.03,8.04.23,12.12-.52,1.38-.14,2.94.03,4.33-.02,2.28-.07,4.66-.37,6.92-.64"/><path class="b" d="M9.02,219.56c1.98,0,4.08,0,6.06,0,2.54-.79,5.09-1.88,7.79-2.06,5.75-.56,11.62-.27,17.31-1.44,13.72-2.93,18.11-6.28,32.02.21,7.94,3.68,10.84,3.77,19.04.76,5.49-2.02,11.49-3.54,17.31-2.08,2.56.63,5.12,1.67,7.79,1.77,6.15.45,12.12-1.67,18.17-2.36,3.18-.41,6.48-.1,9.52.93,3.1.88,6.33,1.59,9.52,2.02,5.43.77,10.98.55,16.44.92,4.31.4,8.62,1.46,12.98,1.33"/><path class="b" d="M9.02,214.86c2.86-.02,5.8.05,8.65-.04,2.49-.84,5.18-1.28,7.79-1.6,4.61-.53,9.29-.94,13.85-1.88,5.2-1.02,10.34-2.58,15.58-3.43,10.44-1.76,16.48,2.08,25.96,4.21,6.9,1.08,13.86-.64,20.77-.69,5.79-.3,11.52,1.28,17.31.9,6.41-.3,12.68-2.02,19.04-2.76,2.84-.36,5.8-.16,8.65-.36,4.88-.33,9.86-.65,14.71.19,4.15.67,8.19,2.07,12.12,3.5,1.95.71,4.06,1.39,6.06,1.95,1.07,0,2.38,0,3.46,0"/><path class="b" d="M9.02,210.16c4.02-.02,8.1.04,12.12-.03,6.33-1.31,12.77-2.23,19.04-3.85,8.81-2.02,17.69-5.01,26.83-4.48,8.52.64,16.68,3.56,25.1,4.89,7.12,1.31,14.41,1.52,21.64,1.18,4.89-.09,9.83-.06,14.71-.44,5.53-.48,11.13-1.26,16.44-2.89,8.34-3.22,13.94-5.36,22.5-.86,2.9,1.48,5.73,3.29,8.65,4.73,1.06.54,2.37,1.15,3.46,1.62,1.06.21,2.38.1,3.46.13"/><path class="b" d="M9.02,205.46c3.73,0,7.52,0,11.25,0,1.98-.03,4.08.08,6.06-.06,1.09-.23,2.37-.52,3.46-.76,7.84-1.84,15.55-4.33,23.37-6.26,6.17-1.74,12.59-3.17,19.04-2.7,15.97.87,23.42,11.02,40.68,7.88,10.16-.72,20.48,3.27,30.29-1.17,3.01-1.4,5.73-3.51,8.65-5.07,7.19-4.11,12.88-1.8,19.04,2.85,2.48,1.81,5.09,3.63,7.79,5.09,1.34.38,2.94.14,4.33.2"/><path class="b" d="M9.02,200.76c8.07-.01,16.16.02,24.23-.01,6.42-1.77,12.69-4.14,19.04-6.12,5.6-1.89,11.36-3.68,17.31-3.89,4.35-.15,8.82.37,12.98,1.68,8.73,3.11,17.18,8.63,26.83,7.55,1.97-.23,4.06-.58,6.06-.42,2.61.12,5.23.76,7.79,1.22,5.76,0,11.55,0,17.31,0,.76,0,1.83,0,2.6,0,1.52-.6,2.99-1.74,4.33-2.67,3.63-2.6,7.47-5.7,12.12-5.92,6.63-.23,11.22,5.43,16.44,8.59,2.27,0,4.65,0,6.92,0"/><path class="b" d="M9.02,196.06c9.51,0,19.05,0,28.56,0,3.17-1.41,6.28-3.14,9.52-4.38,3.35-1.26,6.88-2.26,10.39-3.02,8.22-1.75,16.84-2.01,25.1-.34,7.68,1.69,14.78,5.43,22.5,6.95,2.53.55,5.21.56,7.79.55,3.71.42,7.52.18,11.25.24,8.36,0,16.74,0,25.1,0,10.02-8.01,15.14-8.31,25.1,0h8.65"/><path class="b" d="M9.02,191.37h30.29c2.98-2.03,6.05-4.21,9.52-5.31,6.72-1.96,13.85-1.54,20.77-1.98,7.77-.34,15.77-.85,23.37,1.22,4.16,1.12,8.13,2.98,12.12,4.6,1.36.54,2.9,1.14,4.33,1.46,2.27,0,4.65,0,6.92,0,5.47,0,10.98,0,16.44,0,6.91-.08,13.87.16,20.77-.09,2.57-1.89,5.45-3.74,8.65-4.26,4.15-.72,8.15,1.45,11.25,4.03,1,.52,2.37.27,3.46.32,1.98,0,4.08,0,6.06,0"/><path class="b" d="M9.02,186.67c10.38,0,20.78,0,31.16,0,1.32-.19,2.35-1.56,3.46-2.21,2.5-1.85,5.54-3,8.65-3.12,4.31-.26,8.68.24,12.98-.1,4.67-.27,9.24-1.54,13.85-2.27,10.68-1.72,14.8-2.23,24.23,4.08,6.46,4.22,4.44,3.65,12.12,3.63,10.38,0,20.78,0,31.16,0,1.98,0,4.08,0,6.06,0,1.45,0,3.14.21,4.33-.81,5.87-3.63,10.95-3.48,16.44.81h9.52"/><path class="b" d="M9.02,181.97h33.75c5.73-4.74,10.58-3.19,17.31-3.31,3.54-.07,7.09-.86,10.39-2.11,2.3-.85,4.62-1.92,6.92-2.76,1.65-.62,3.52-.96,5.19-1.52,3.58-1.19,7.49-2.33,11.25-1.27,4.04,1.1,7.34,3.98,10.39,6.72,1.68,1.36,3.2,3.35,5.19,4.24,3.73,0,7.52,0,11.25,0,8.65,0,17.32,0,25.96,0,3.15-.01,6.37.02,9.52-.02,2.15-1.08,4.52-2.07,6.92-2.39,2.01-.27,4.18,0,6.06.77,1.14.4,2.27,1.39,3.46,1.64,3.44,0,6.95,0,10.38,0"/><path class="b" d="M9.02,177.27c12.11,0,24.24,0,36.35,0,1.43.08,2.89-.8,4.33-.84,2.56-.28,5.23-.13,7.79-.3,9.12-.4,13.97-5.8,21.64-9.09,3.18-.89,6.24-2.49,9.52-3.02,8.94-1.25,14.28,7.76,19.9,13.14,10.07.29,20.21.01,30.29.1,4.89,0,9.82,0,14.71,0,2.58-.42,5.13-1.55,7.79-1.68,2.99-.35,5.94.54,8.65,1.68,4.31,0,8.67,0,12.98,0"/><path class="b" d="M9.02,172.57c8.93,0,17.89,0,26.83,0,4.89,0,9.82,0,14.71,0,2.27-.04,4.66.09,6.92-.07,1.42-.27,2.98-.71,4.33-1.23,5.73-2.13,10.24-6.54,15.58-9.39,2.45-1.14,5.24-1.7,7.79-2.59,7.86-2.62,13.3,2.32,18.17,7.85,1.7,1.73,3.18,4.05,5.19,5.42,6.05,0,12.13,0,18.17,0,3.15-.06,6.38.12,9.52-.09,1.06-.36,2.35-.7,3.46-.83,2.28-.27,4.63.52,6.92.31,3.75-.17,7.5-1.03,11.25-1.1,2-.04,4.12.16,6.06.66,1.11.25,2.34.85,3.46,1.05,5.18,0,10.4,0,15.58,0"/><path class="b" d="M9.02,167.87c8.65,0,17.32,0,25.96,0,4.31,0,8.67,0,12.98,0,4.11.17,8.25-.73,12.12-2.07,6.33-2.19,11.3-7,17.31-9.8,2.18-.89,4.67-1.11,6.92-1.77,12.16-3.43,17.24,7.06,25.1,13.63,6.91-.02,13.86.04,20.77-.02,2.51-1.4,5.08-2.96,7.79-3.94,2.19-.89,4.62-.8,6.92-.56,2.57.15,5.23.28,7.79.59,2.91.35,5.88.98,8.65,1.94,1.74.51,3.44,1.55,5.19,2,5.47,0,10.98,0,16.44,0"/><path class="b" d="M9.02,163.17c10.67,0,21.35,0,32.02,0,1.16.12,2.4-.42,3.46-.79,1.08-.37,2.36-.77,3.46-1.08,3.12-.86,6.4-1.38,9.52-2.26,5.84-1.52,11.05-4.69,16.44-7.29,1.34-.61,2.88-1.22,4.33-1.55,1.37-.29,2.95-.32,4.33-.56,3.41-.56,7.03-1.02,10.39.07,4.79,1.52,8.53,5.19,12.12,8.55,1.9,1.67,3.74,3.8,6.06,4.89,3.15,0,6.37,0,9.52,0,1.98,0,4.08,0,6.06,0,3.64-1.48,6.82-4.08,10.39-5.74,6.59-3.44,14.33-.73,20.77,1.82,2.01.84,4.1,1.81,6.06,2.76,1.04.46,2.27,1.32,3.46,1.16,5.18,0,10.4,0,15.58,0"/><path class="b" d="M9.02,158.47c5.18,0,10.4,0,15.58,0,1.98,0,4.08,0,6.06,0,1.12,0,2.47.11,3.46-.5,5.3-2.35,10.87-4.16,16.44-5.72,3.42-.87,6.97-1.52,10.39-2.42,6.07-1.42,11.9-4.27,18.17-4.69,2.86.07,5.79-.29,8.65-.2,6.36.07,11.78,3.89,16.44,7.86,2.45,2.01,4.93,4.23,7.79,5.64,1.08.04,2.38.02,3.46.02,2.57,0,5.22,0,7.79,0,1.72-.05,3.66.29,5.19-.68,5.59-2.56,10.81-7.29,17.31-6.78,7.7.72,14.28,5.52,21.64,7.46,5.18,0,10.4,0,15.58,0"/><path class="b" d="M9.02,153.77c4.02,0,8.1,0,12.12,0,1.39,0,2.94,0,4.33,0,.81,0,1.85.08,2.6-.3,3.55-2.25,7.32-4.3,11.25-5.8,4.24-1.53,8.61-2.95,12.98-4.06,6.56-1.35,13.26-2.1,19.9-2.9,4.3-.57,8.67-.09,12.98.06,5.66.1,11.07,2.3,15.58,5.65,2.32,1.64,4.62,3.52,6.92,5.17,1.04.75,2.33,1.58,3.46,2.17.42,0,1.31,0,1.73,0,6.33-.04,12.71.07,19.04-.04,2.86-1.3,5.7-2.87,8.65-3.97,3.88-1.63,8.22-.91,12.12.28,3.71,1.09,7.44,2.39,11.25,3.09,3.68.66,7.53.86,11.25.47,2.65-.44,5.23-1.53,7.79-2.3"/><path class="b" d="M9.02,149.08c5.18,0,10.4,0,15.58,0,.95-.05,1.84-.95,2.6-1.44,1.36-.96,2.9-1.99,4.33-2.85,4.51-2.81,9.6-4.52,14.71-5.84,5.03-1.66,10.3-2.53,15.58-2.91,6.61-.52,13.3-1.05,19.9-.22,3.5.28,7.11.72,10.38,2.05,5.54,2.18,10.04,6.27,14.71,9.82.42.32,1.3.95,1.73,1.25,1.37.27,2.94.1,4.33.14,2.57,0,5.22,0,7.79,0,4.31,0,8.67,0,12.98,0,1.38,0,2.94,0,4.33,0,1.09-.04,2.42.15,3.46-.23,3.89-1.42,8.14-.77,12.12-.15,2.54.53,5.21.36,7.79.38,2.85-.09,5.82.19,8.65-.14,1.99-.38,4.16-.6,6.06-1.35,2.37-.98,4.65-2.43,6.92-3.61"/><path class="b" d="M9.02,144.38c4.6,0,9.25,0,13.85,0,1.55-.55,2.92-1.9,4.33-2.73,2.45-1.63,5.09-3.17,7.79-4.34,3.57-1.58,7.45-2.48,11.25-3.31,6.2-1.72,12.63-2.54,19.04-3.03,8.37-.69,17.23-.97,25.1,2.41,4.86,2.16,8.97,5.73,12.98,9.15,2.17,1.98,2.29,1.93,5.19,1.85,1.98,0,4.08,0,6.06,0,6.04,0,12.13,0,18.17,0,6.33,0,12.71,0,19.04,0,4.02,0,8.1,0,12.12,0,2.27-.1,4.69.24,6.92-.19,1.69-.43,3.6-.71,5.19-1.46,2.41-1.13,4.67-2.79,6.92-4.2"/><path class="b" d="M9.02,139.68c3.73,0,7.52,0,11.25,0,.92.16,1.88-.46,2.6-.95.78-.5,1.81-1.19,2.6-1.68,2.75-1.76,5.66-3.48,8.65-4.8,4.11-1.86,8.58-2.83,12.98-3.7,5.67-1.33,11.49-2.11,17.31-2.39,16.86-.72,23.69,1.31,36.35,12.5.61.68,1.67,1.18,2.6,1.03,1.08,0,2.38,0,3.46,0,2.86,0,5.8,0,8.65,0,9.22,0,18.47,0,27.69,0,7.78,0,15.59,0,23.37,0,2.89-.36,5.83-1.11,8.65-1.83,2.74-.97,5.26-2.64,7.79-4.04"/><path class="b" d="M9.02,134.98c3.44,0,6.95,0,10.39,0,6.11-2.87,11.7-6.96,18.17-9.08,4.46-1.59,9.2-2.38,13.85-3.23,10-1.88,20.48-1.87,30.29,1.04,6.55,2.3,11.88,7.03,17.31,11.2,14.99.22,30.01,0,45,.08,5.18,0,10.4,0,15.58,0,2.58-.09,5.23-.55,7.79-.87,2.57-.39,5.25-.74,7.79-1.32,2.66-.72,5.25-1.96,7.79-3.01"/><path class="b" d="M9.02,130.13c2.83.34,5.81.1,8.65.12,5.73-1.82,10.92-5.05,16.44-7.36,5.21-2.32,10.81-3.69,16.44-4.51,3.42-.6,6.91-1.24,10.39-1.48,7.34-.52,14.82.9,21.64,3.6,5.28,2.53,9.83,6.39,14.71,9.58,1.93.44,4.08.1,6.06.2,3.15,0,6.37,0,9.52,0,9.22,0,18.47,0,27.69,0,4.89,0,9.82.02,14.71-.01,2.56-.34,5.22-.57,7.79-.76,4.02-.31,8.13-.44,12.12-1.09,2.61-.49,5.24-1.33,7.79-2.07"/><path class="b" d="M9.02,123.83c2.76.88,5.75,1.62,8.65,1.14,6.37-1.11,12.15-4.3,18.17-6.49,4.72-1.84,9.7-3.01,14.71-3.69,3.15-.58,6.34-1.36,9.52-1.78,7.63-1.15,15.5.48,22.5,3.57,3.9,1.96,7.48,4.6,11.25,6.78,1.63.78,3.32,2.3,5.19,2.23,3.44,0,6.95,0,10.39,0,8.36,0,16.74,0,25.1,0,8.65,0,17.32,0,25.96,0,4.6-.02,9.26.11,13.85-.33,2.91-.32,5.84-1.07,8.65-1.86"/><path class="b" d="M9.02,117.85c2.47.96,5.11,1.9,7.79,1.99,6.89-.1,13.35-3,19.9-4.8,4.51-1.38,9.2-2.19,13.85-2.89,3.76-.76,7.47-1.99,11.25-2.66,6.97-1.39,14.31-.23,20.77,2.62,3.82,1.81,7.43,4.17,11.25,5.99,2.47,1.17,5.11,2.23,7.79,2.8,2.57,0,5.22,0,7.79,0,6.33,0,12.71,0,19.04,0,11.82,0,23.66,0,35.48,0,4.02,0,8.1,0,12.12,0,2.27-.07,4.67.17,6.92-.13"/><path class="b" d="M9.02,110.62c2.49.92,5.12,1.83,7.79,2.06,6.14.32,12.15-1.48,18.17-2.39,5.14-.9,10.4-1.19,15.58-1.72,3.75-.47,7.51-1.24,11.25-1.73,8.12-1.19,16.52-.5,24.23,2.33,4.53,1.56,9.13,3.16,13.85,4.06,4.26.92,8.72,1.02,12.98,1.91.79.22,1.85.61,2.6.94,1.97.22,4.08.05,6.06.1,4.31,0,8.67,0,12.98,0,16.15,0,32.31,0,48.46,0"/><path class="b" d="M9.02,103.07c3.08.86,6.3,1.63,9.52,1.65,6.06-.07,12.09-1.39,18.17-1.23,4.61.05,9.24.58,13.85.6,4.6.2,9.24.64,13.85.63,6.63,0,13.27-.7,19.9-.4,6.66.11,13.34.65,19.9,1.8,3.15.66,6.54.89,9.52,2.17,6.23,3.25,2.61,3.33,10.39,3.19,5.18,0,10.4,0,15.58,0,14.42,0,28.85,0,43.27,0"/><path class="b" d="M9.02,96.64c3.4.6,6.93,1.04,10.39.9,4.31-.27,8.64-1.12,12.98-.98,5.59.03,10.96,1.9,16.44,2.69,3.25.48,6.38,1.75,9.52,2.64,5.62,1.82,11.67,1.66,17.31.03,4.61-1.09,9.22-2.46,13.85-3.47,4.87-1.02,9.97-.59,14.71.85,1.7.49,3.51,1.09,5.19,1.61,1.76.48,3.67,1.05,5.19,2.1,1.82,1.03,3.32,2.87,5.19,3.77,1.08,0,2.38,0,3.46,0,19.9,0,39.81,0,59.71,0"/><path class="b" d="M9.02,92.14c3.42.37,6.96.47,10.39.12,3.73-.5,7.47-1.51,11.25-1.58,4.77-.19,9.42,1.29,13.85,2.91,1.94.75,4.11,1.21,6.06,1.93,2.65,1.08,5.19,2.64,7.79,3.83,5.99,2.96,11.48,2.36,17.31-.62,3.43-1.65,6.97-3.26,10.39-4.94,4.54-2.25,9.89-3.06,14.71-1.24,2.96,1,5.78,2.57,8.65,3.8,1.07.46,2.42.83,3.46,1.36,2.17,1.13,4.18,2.79,6.06,4.33,21.34.17,42.7,0,64.04.06"/><path class="b" d="M9.02,89.74c14.31,1.62,19.07-7.24,33.75-.86,3.77,1.67,7.82,2.91,11.25,5.26,6.15,3.78,5.09,3.27,12.12,3.25,1.39-.03,2.95.09,4.33-.1,2.11-.91,4.15-2.23,6.06-3.49,3.35-2.16,6.84-4.28,10.39-6.11,7.66-3.91,13.36-.57,19.9,3.6,1.85,1.21,4.03,2.03,6.06,2.86,1.79.88,3.56,2.12,5.19,3.26,21.63,0,43.27,0,64.91,0"/><path class="b" d="M9.02,89c4.05.64,8.29.06,12.12-1.4,12.59-5.25,16.43-4.29,28.56,1.11,8.49,4.27,4.94,4.09,14.71,3.98,1.69-.02,3.51.05,5.19-.04,2.43-1.2,4.72-2.9,6.92-4.46,1.87-1.38,4.03-2.58,6.06-3.7,3.4-1.92,7.25-3.65,11.25-3.21,6.57.63,11.26,6.07,17.31,8.08,1.79.47,3.58,1.37,5.19,2.25.42.24,1.31.72,1.73.96.76.17,1.83.14,2.6.13,7.2,0,14.43,0,21.64,0,2.26-.39,4.59-1.12,6.92-1,1.4.02,2.96.21,4.33.51,1.06.29,2.35.58,3.46.49,8.65,0,17.32,0,25.96,0"/><path class="b" d="M9.02,87.99c3.15,0,6.37,0,9.52,0,1.79.04,3.53-1.14,5.19-1.71,2.52-1.06,5.14-2.14,7.79-2.83,3.93-1.08,8.14-1.15,12.12-.27,7.45,1.47,14.71,6.3,22.5,3.99,4.32-1.13,8.12-3.68,12.12-5.58,5.38-2.38,11.47-4.15,17.31-2.53,4.23,1.05,8.07,3.33,12.12,4.88,1.9.79,4.07.94,6.06,1.4,2,.49,4.08,1.19,6.06,1.77,1.07.31,2.37.66,3.46.89,2.57,0,5.22,0,7.79,0,1.38,0,2.94,0,4.33,0,2.86-.56,5.75-1.46,8.65-1.8,2.57-.28,5.28-.04,7.79.57,1.71.32,3.43,1.34,5.19,1.23,8.65,0,17.32,0,25.96,0"/><path class="b" d="M9.02,83.29c6.33-.04,12.71.08,19.04-.05,2.82-1.08,5.74-2.14,8.65-2.92,3.36-.9,6.91-1.44,10.39-1.2,3.43.39,6.93.82,10.39.71,4.35-.07,8.71-.71,12.98-1.46,5.98-1.11,12.09-2.09,18.17-1.32,6.38.63,12.63,2.49,19.04,2.93,2.57.18,5.22-.12,7.79-.15,4.02-.09,8.1-.06,12.12-.01,6.04.16,12.18-.06,18.17.79,2.02.36,4.12.94,6.06,1.61,1.37.45,2.84,1.25,4.33,1.08,8.93,0,17.89,0,26.83,0"/><path class="b" d="M9.02,78.59c7.49,0,15.01,0,22.5,0,3.85-1.19,7.45-3.29,11.25-4.64,2.46-1,5.16-1.4,7.79-1.62,5.98-1.07,12.1-2.73,18.17-1.33,4.39.9,8.61,2.63,12.98,3.6,3.43.99,6.86,2.28,10.38,2.89,5.22,1.01,10.57-.03,15.58-1.59,1.97-.61,4.1-1.07,6.06-1.71,2.57-.84,5.18-1.86,7.79-2.55,4.5-1.28,9.35-1.24,13.85.05,4.36,1.3,8.75,2.77,12.98,4.46,1.99.77,4.04,1.74,6.06,2.44,1.38,0,2.94,0,4.33,0,8.07,0,16.16,0,24.23,0"/><path class="b" d="M9.02,73.89c7.2,0,14.43,0,21.64,0,5.63-1.61,10.27-5.58,15.58-7.93,1.93-.82,4.12-1.19,6.06-2,3.02-1.15,6.24-2.33,9.52-2.11,5.42.35,9.72,4.16,13.85,7.31,2.34,1.92,5.15,3.29,7.79,4.74,3.15,0,6.37,0,9.52,0,2.57,0,5.22,0,7.79,0,1.39-.1,3.05.3,4.33-.35,1.66-1.02,3.44-2.16,5.19-3,1.43-.6,3.01-1.32,4.33-2.14,3.82-2.29,7.6-5.16,12.12-5.87,5.02-.83,9.69,1.87,13.85,4.34,3.93,2.21,7.97,4.39,12.12,6.18.4.18,1.32.54,1.73.71,1.07.2,2.38.1,3.46.12,1.98,0,4.08,0,6.06,0,6.33,0,12.71,0,19.04,0"/><path class="b" d="M9.02,69.19c3.73,0,7.52,0,11.25,0,1.69,0,3.51,0,5.19,0,2.01-.26,4.13-.67,6.06-1.31,5.06-1.63,9.31-5.02,13.85-7.67,1.86-1.13,4.09-1.72,6.06-2.6,2.47-1.09,5.06-2.3,7.79-2.51,6.2-.45,10.77,4.69,14.71,8.76,1.9,1.79,3.63,4.27,6.06,5.34,8.93,0,17.89,0,26.83,0,2.67-2.16,6-3.43,8.65-5.6,3.9-2.96,7.86-6.76,12.98-7.17,4.95-.31,9.1,3,12.98,5.62,3.81,2.52,7.83,4.92,12.12,6.53,1.59.81,3.47.61,5.19.62,1.98,0,4.08,0,6.06,0,6.04,0,12.13,0,18.17,0"/><path class="b" d="M9.02,64.49c2.27,0,4.65,0,6.92,0,1.65-.61,3.43-1.25,5.19-1.42,2.56-.3,5.23-.28,7.79-.61,2.66-.32,5.34-1.09,7.79-2.17,4.41-1.91,8.35-4.94,12.98-6.33,3.08-1.17,6.16-2.82,9.52-2.94,8.51-.03,13.23,8.51,19.04,13.46,10.38.04,20.78,0,31.16.01,4.88-1.96,8.59-5.86,12.98-8.64,4.83-3.15,9.79-3.09,14.71-.18,5.72,3.49,11.46,7.35,18.17,8.59,1.36.34,2.94.2,4.33.23,1.98,0,4.08,0,6.06,0,5.76,0,11.55,0,17.31,0"/><path class="b" d="M9.02,59.8c1.12-.06,2.54.27,3.46-.52,1.91-1.09,3.96-2.25,6.06-2.94,4.78-1.32,9.85,0,14.71-.76,5.19-.6,9.85-3.2,14.71-4.9,3.7-1.04,7.32-2.95,11.25-2.89,7.92.17,12.47,7.7,18.17,12.02,9.22,0,18.47,0,27.69,0,2.57,0,5.22,0,7.79,0,1.58-.24,2.98-1.52,4.33-2.3,1.94-1.28,3.98-2.66,6.06-3.71,3.97-2.16,8.79-2.52,12.98-.79,2.66.98,5.19,2.49,7.79,3.6,6.28,2.77,13.26,1.83,19.9,1.65,2.93-.05,5.94.41,8.65,1.55,3.44,0,6.95,0,10.38,0"/><path class="b" d="M9.02,55.1c.47,0,1.27,0,1.73,0,1.49-.75,2.88-2.03,4.33-2.86,5.14-3.66,11.48-1.98,17.31-2.05,4.44,0,8.8-1.22,12.98-2.62,3.69-1.06,7.43-2.36,11.25-2.83,7.83-.85,13.62,5.44,19.04,10.12,1.34.45,2.94.16,4.33.24,2.57,0,5.22,0,7.79,0,6.91,0,13.86,0,20.77,0,2.86,0,5.8,0,8.65,0,.87.06,1.84-.59,2.6-.95,1.07-.54,2.36-1.16,3.46-1.64,2.97-1.3,6.26-2.18,9.52-2.09,8.07.32,10.87,4.22,19.9,2.43,6.8-1.21,14.36-3.75,20.77.1,1.05.65,2.36,1.4,3.46,1.97,1.94.37,4.08.09,6.06.17"/><path class="b" d="M9.02,50.4c1.09,0,2.37,0,3.46,0,.91-.2,1.83-1.04,2.6-1.52,1.03-.68,2.3-1.38,3.46-1.8,4.15-1.47,8.67-.91,12.98-1.11,4.41-.11,8.78-1.09,12.98-2.36,14.95-4.51,18.45-2.61,30.29,6.79,16.15,0,32.31,0,48.46,0,1.78.1,3.5-.94,5.19-1.34,2.5-.73,5.18-1.22,7.79-1.31,2.58-.15,5.23.28,7.79.49,2.93.07,5.87-.75,8.65-1.59,7.39-2.45,14.68-4.37,21.64.45,2.64,1.49,5.52,3.4,8.65,3.3"/><path class="b" d="M9.02,45.7c3.15-.05,6.38.11,9.52-.07,1.36-.51,2.91-.91,4.33-1.18,4.91-.86,9.94-1.37,14.71-2.87,7.49-2.28,15.46-6.07,23.37-3.5,4.5,1.44,8.33,4.4,12.12,7.12.94.78,2.34.43,3.46.5,1.98,0,4.08,0,6.06,0,5.76,0,11.55,0,17.31,0,6.91,0,13.86,0,20.77,0,2.86,0,5.8,0,8.65,0,1.95-.79,4.04-1.58,6.06-2.16,1.94-.55,4.05-.97,6.06-1.11,2.32-.02,4.72-.42,6.92-1.14,6.37-2.08,13.16-5.01,19.9-2.84,2.8.78,5.3,2.47,7.79,3.9,2.13,1.16,4.52,2.12,6.92,2.53"/><path class="b" d="M9.02,41c6.62,0,13.28,0,19.9,0,.79,0,1.83.04,2.6-.14.79-.28,1.82-.69,2.6-1,2.31-.94,4.67-2.07,6.92-3.15,6.31-3.2,13.9-5.44,20.77-2.71,2.76,1.04,5.36,2.66,7.79,4.32,1.4.83,2.73,2.26,4.33,2.67,10.38,0,20.78,0,31.16,0,7.78,0,15.59,0,23.37,0,1.23-.06,2.38-1.09,3.46-1.6,1.64-.9,3.46-1.82,5.19-2.53,3.28-1.47,7.01-1.54,10.39-2.7,7.15-2.44,14.23-4.76,21.64-1.71,4.67,1.86,8.77,5.24,13.85,6.05"/><path class="b" d="M9.02,36.3c9.8,0,19.62,0,29.42,0,1.23-.18,2.38-1.17,3.46-1.71,2.17-1.23,4.5-2.49,6.92-3.14,4.22-1.2,8.83-1.33,12.98.19,3.05,1.06,5.92,2.76,8.65,4.45,2.22.46,4.66.09,6.92.21,4.02,0,8.1,0,12.12,0,12.98,0,25.97,0,38.94,0,2.16-.94,4.01-2.77,6.06-3.93,2.87-1.89,6.11-3.37,9.52-3.91,6.23-1.53,12.53-3.84,19.04-3.03,2.97.33,5.93,1.23,8.65,2.42,3.57,1.71,7.26,3.49,11.25,3.91"/><path class="b" d="M9.02,31.6c11.53,0,23.08,0,34.62,0,1.39-.06,2.97.16,4.33-.18,2.21-.7,4.61-1.11,6.92-1.15,2-.03,4.12.25,6.06.74,1.64.61,3.46.65,5.19.59,12.98,0,25.97,0,38.94,0,5.76,0,11.55,0,17.31,0,2.56-.08,5.25.18,7.79-.13,1.07-.85,2.37-1.86,3.46-2.68,2.38-1.76,4.95-3.53,7.79-4.45,1.96-.53,4.08-.92,6.06-1.39,5.37-1.22,10.92-2.18,16.44-1.68,3.23.27,6.48,1.03,9.52,2.14,2.99,1.19,6.31,1.65,9.52,1.49"/><path class="b" d="M9.02,26.9c34.61,0,69.24,0,103.85,0,4.31,0,8.67,0,12.98,0,2.27-.1,4.69.24,6.92-.19,2.66-2.01,5.45-4.14,8.65-5.2,3.7-.89,7.52-1.49,11.25-2.25,4.56-.84,9.2-1.67,13.85-1.75,1.69-.02,3.52.08,5.19.33,1.39.2,2.92.67,4.33.76,2.3.16,4.7-.26,6.92-.81"/><path class="b" d="M9.02,22.2c41.28.02,82.51-.05,123.76,0,1.08,0,2.38,0,3.46,0,.87-.05,1.83-.75,2.6-1.11,1.03-.51,2.33-1,3.46-1.22,4.07-.63,8.17-1.45,12.12-2.62,4.04-1.15,8.03-2.66,12.12-3.64,2.81-.75,5.78-.81,8.65-.5,2.69-.04,5.33-1.07,7.79-2.06"/></svg>