<?xml version="1.0" encoding="UTF-8"?><svg id="a" xmlns="http://www.w3.org/2000/svg" width="1920" height="2400" viewBox="0 0 192 240"><defs><style>.b{fill:none;stroke:#fff;stroke-miterlimit:10;stroke-width:.4px;}.c{stroke-width:0px;}</style></defs><rect class="c" width="192" height="240"/><path class="b" d="M7.57,214.7c3.16,3.77,5.91,8.09,9.68,11.3,2.53,2.08,2.94,2.23,6.16,2.1,4.68,0,9.4,0,14.08,0,2.6-.66,5.23-1.64,7.92-1.86,1.72-.18,3.58.21,5.28-.16,7.71-1.87,13.01-8.48,19.36-12.78,4.13-2.97,8.08-4.61,13.2-3.39,5.88,1.23,11.64,3.19,17.6,4.08,2.61.45,5.33.82,7.92,1.42,2.02.45,4.07,1.33,6.16,1.38,8.55-.06,12.59-1.67,21.12,2.32,8.64,4.21,16.05,8.39,25.52,3.43,3.5-1.64,6.78-4.02,10.56-5.03,1.69-.49,3.57-.08,5.28.03,2.31.11,4.74-.08,7.04-.32"/><path class="b" d="M7.57,210.36c3.12,3.44,9.97,13.58,14.96,12.97,4.09,0,8.23,0,12.32,0,2.02-.02,4.15.05,6.16-.04,1.1-.3,2.4-.63,3.52-.84,2.63-.48,5.5-.09,7.92-1.44,6.5-3.35,11.1-9.38,16.72-13.91,3.85-3.22,8.02-5.65,13.2-4.48,5.93,1,11.71,2.86,17.6,4.07,2.92.65,5.93,1.27,8.8,2.13,2.02.6,4.06,1.55,6.16,1.87,4.95.76,10.09.5,14.96,1.81,9.59,2.49,17.05,8.14,27.28,3.65,5.58-2.07,11.63-7.97,17.6-7.46,3.18.61,6.47,1.03,9.68,1.46"/><path class="b" d="M7.57,205.81c2.34,2.36,4.58,5.02,7.04,7.26,2.14,1.84,4.6,3.51,7.04,4.94.74.55,1.76.59,2.64.54,1.11,0,2.41,0,3.52,0,3.2,0,6.48,0,9.68,0,1.41,0,2.99,0,4.4,0,1.13-.28,2.41-.79,3.52-1.11,1.4-.45,3.03-.64,4.4-1.18,4.44-1.88,7.93-5.48,11.44-8.69,4.68-4.24,9.44-9.31,15.84-10.7,2.59-.44,5.32.03,7.92.21,7.19.72,14.39,2.15,21.12,4.83,3.3,1.25,6.4,3.16,9.68,4.46,4.53,1.81,9.31,3.06,14.08,4.05,18.14,3.71,20.17.25,35.2-8.05,2.94-1.46,6.38-2.66,9.68-1.82,3.27.97,6.52,2.29,9.68,3.58"/><path class="b" d="M7.57,201.94c2.35,1.93,4.61,4.18,7.04,6.02,2.89,1.9,5.84,3.89,8.8,5.67,4.06.36,8.24.04,12.32.14,2.01-.09,4.18.21,6.16-.18,1.11-.58,2.41-1.29,3.52-1.88,7.49-3.02,12.85-9.28,19.36-13.82,3.64-2.55,7.84-4.57,12.32-4.94,1.71-.16,3.57-.02,5.28-.1,2.61-.1,5.31-.31,7.92-.24,17.99.07,25.71,16.72,40.48,17.28,3.3.07,6.6-.83,9.68-1.96,2.4-.86,4.91-1.82,7.04-3.25,6.51-4.1,12.28-10.39,20.24-11.45,6.26-.74,11.52,3.59,16.72,6.4"/><path class="b" d="M7.57,199.19c2.06,1.37,4.1,3,6.16,4.37,1.35.91,3.01,1.61,4.4,2.44,1.13.67,2.42,1.54,3.52,2.25.37.38,1.24.69,1.76.74,3.79,0,7.65,0,11.44,0,2.01-.08,4.18.19,6.16-.16,3.78-2.85,7.72-5.59,11.44-8.51,4.3-3.45,8.74-7.11,14.08-8.79,4.82-1.67,9.98-.8,14.96-1.1,5.51-.77,11.27-2.56,16.72-.47,7.98,3.06,13.82,9.9,20.24,15.28,1.32,1.09,2.88,2.23,4.4,3.03.73.39,1.79.86,2.64.73,1.41,0,2.99,0,4.4,0,1.13,0,2.51.09,3.52-.51,2.86-1.36,5.42-3.45,7.92-5.36,2.09-1.54,4.31-3.15,6.16-4.98,5.4-4.97,11.2-12.21,19.36-11.07,6.67,1.24,11.81,6.24,17.6,9.42"/><path class="b" d="M7.57,197.53c3.15,1.86,6.19,4.12,9.68,5.32,1.12.42,2.26,1.54,3.52,1.37,6.15,0,12.33,0,18.48,0,1,.2,1.98-.6,2.64-1.26,1.12-1.03,2.42-2.29,3.52-3.34,2.5-2.34,5.26-4.57,7.92-6.72,5.51-4.49,11.32-6.84,18.48-5.41,2.89.46,5.86,1.26,8.8,1.01,4.14-.48,8.1-2.4,12.32-2.32,5.99,0,10.86,4.16,14.96,8.08,2.65,2.54,5.4,5.18,7.92,7.85.71.7,1.63,1.86,2.64,2.12,1.71,0,3.57,0,5.28,0,3.79,0,7.65,0,11.44,0,2.33-1.68,4.13-4.24,6.16-6.26,2.35-2.35,4.87-4.75,7.04-7.27,5.05-5.67,11.33-12.25,19.36-7.64,5.75,3.31,10.56,8.26,16.72,10.9"/><path class="b" d="M7.57,196.51c1.73.9,3.38,2.41,5.28,2.93,2.91,0,5.89,0,8.8,0,6.44-.09,12.94.19,19.36-.11,3.08-3.18,6.2-6.47,9.68-9.22,2.92-2.44,6.07-4.88,9.68-6.21,4.56-1.78,9.52-.77,14.08.46,4.11,1.19,7.39.85,11.44-.31,4.71-1.35,9.81-1.41,14.08,1.26,3.27,1.91,6.09,4.64,8.8,7.26,2.31,2.23,4.75,4.53,7.04,6.79,6.14.23,12.34.02,18.48.09,2.44-1.75,4.13-4.65,6.16-6.84,2.16-2.59,4.8-4.94,7.04-7.47,5.33-5.84,11.41-11.71,19.36-6.23,5.78,3.96,10.57,9.88,17.6,11.7"/><path class="b" d="M7.57,194.66h33.44c1.92-1.39,3.5-3.49,5.28-5.07,1.97-1.79,4.15-3.58,6.16-5.32,5.37-4.66,11.2-7.85,18.48-5.98,2.62.57,5.25,1.53,7.92,1.89,2.9.31,5.89-.08,8.8-.05,5.03-.08,9.96,1.65,14.08,4.48,3.36,2.22,6.45,4.96,9.68,7.35.78.57,1.86,1.36,2.64,1.92.34.34,1.25.8,1.76.77,4.97-.04,9.99.09,14.96-.06,3.64-2.99,6.54-6.88,9.68-10.36,2.12-2.39,4.74-4.47,7.04-6.68,5.57-5.25,11.31-8.83,18.48-3.88,6.01,4.07,10.85,10.74,18.48,11.77"/><path class="b" d="M7.57,189.88h33.44c1.95-1.16,3.53-3.16,5.28-4.6,2.68-2.24,5.33-4.7,7.92-7.04,5.97-5.4,11.47-7.81,19.36-4.89,1.71.56,3.53,1.24,5.28,1.64,2.02.37,4.17.73,6.16,1.27,4.89,1.27,9.58,3.31,14.08,5.58,6.36,2.99,13.05,7.71,20.24,7.96,7.71-.05,13.28-6.34,18.48-11.25,2.63-2.69,5.72-4.98,8.8-7.12,9.25-7.02,15.1-6.17,23.76,1.2,4.07,3.42,8.54,7.15,14.08,7.51"/><path class="b" d="M7.57,185.1h33.44c5.14-3.49,9.67-7.9,14.08-12.26,6.59-6.35,11.76-8.05,20.24-3.96,2.23,1.09,4.76,1.66,7.04,2.59,2.41,1.07,4.77,2.51,7.04,3.85,7.6,4.73,13.87,6.93,22.88,7.03,9.98.04,18.19-6.59,26.4-11.42,3.09-1.86,6.43-3.44,9.68-5.01,8.48-4.16,14.75-2.05,22,3.3,4.2,3.09,8.67,6.46,14.08,6.71"/><path class="b" d="M7.57,180.33c7.91,0,15.85,0,23.76,0,2.31,0,4.73,0,7.04,0,1.14-.07,2.56.28,3.52-.49,2.79-1.71,5.54-3.73,7.92-5.98,4.37-4.14,8.15-9.63,14.08-11.59,5.03-1.58,9.73,1.58,14.08,3.68,6.33,2.01,10.75,7.41,16.72,10.12,4.44,2.19,9.55,1.56,14.08,0,2.64-.78,5.4-1.49,7.92-2.61,6.21-2.75,12.6-5.31,19.36-6.32,2.32-.42,4.76-.81,7.04-1.42,2.9-.81,5.83-1.85,8.8-2.41,4.72-.99,9.73-.31,14.08,1.75,6.19,2.72,11.43,7.99,18.48,8.37"/><path class="b" d="M7.57,175.55c7.62,0,15.26,0,22.88,0,2.61,0,5.31,0,7.92,0,1.42-.08,3.15.3,4.4-.54,7.14-3.46,11.16-10.8,17.6-15.17,6.05-4.06,11.23-.95,16.72,2.25,2,1.08,4.33,1.76,6.16,3.16,6.22,4.53,12.04,10.31,20.24,6.51,3.56-1.64,6.92-3.84,10.56-5.34,3.86-1.86,7.97-3.65,12.32-3.8,4.48-.25,8.82,1.31,13.2,2,2.93.5,5.92-.29,8.8-.75,3.46-.6,7.06-.99,10.56-.61,4.33.44,8.5,2.07,12.32,4.1,2.04,1.04,4.07,2.39,6.16,3.33,2.19.96,4.66,1.55,7.04,1.75"/><path class="b" d="M7.57,170.77c7.91,0,15.85,0,23.76,0,2.61,0,5.31,0,7.92,0,1.41-.02,2.99.05,4.4-.06.47-.24,1.32-.75,1.76-1.02,6.5-3.89,10.33-11.49,17.6-14.2,5.75-2.05,10.84,2.25,15.84,4.4,5.88,1.78,10.37,7.15,16.72,7.53,5.32.32,9.7-3.28,14.08-5.76,4.31-2.19,9.17-4,14.08-3.57,5.67.43,10.51,3.82,15.84,5.43,2.26.73,4.73.39,7.04.08,9.78-1.5,16.83-.38,25.52,4.5,1.71.86,3.44,2.1,5.28,2.67,2.31,0,4.73,0,7.04,0"/><path class="b" d="M7.57,165.99c8.2,0,16.44,0,24.64,0,2.91,0,5.89,0,8.8,0,1.11,0,2.41,0,3.52,0,.55.08,1.32-.19,1.76-.49,5.7-3.13,9.69-8.93,15.84-11.34,4.72-1.98,9.72,0,14.08,1.96,2.53,1.11,5.39,1.56,7.92,2.69,7.08,3.1,12.32,3.7,19.36.04,2.58-1.24,5.15-2.81,7.92-3.58,8.24-2.36,15.74,1.87,22.88,5.45,3.25,1.59,6.91,2.85,10.56,2.14,8.38-1.24,15.17-.74,22.88,3.05,5.55.21,11.16.01,16.72.08"/><path class="b" d="M7.57,161.21c8.5,0,17.02,0,25.52,0,3.2,0,6.48,0,9.68,0,1.72-.1,3.71.33,5.28-.52,5.88-2.94,10.85-8.13,17.6-9.09,3.85-.61,7.72.45,11.44,1.35,3.17.65,6.47,1.1,9.68,1.56,3.8.47,7.73.22,11.44-.76,5.74-1.4,11.62-4.68,17.6-2.62,8.43,2.64,15.51,9.44,24.64,9.82,2.94.06,5.88-.8,8.8-.98,3.83-.36,7.78.05,11.44,1.24,7.91.03,15.85,0,23.76.01"/><path class="b" d="M7.57,156.44c2.91-.02,5.89.05,8.8-.03,2.86-.68,5.86-1.07,8.8-1.11,5.31-.21,10.55,1.25,15.84,1.15,2.01-.04,4.15.09,6.16-.08,1.79-.35,3.63-1.1,5.28-1.87,8.26-4.2,14.1-7.46,23.76-6.65,6.18.58,12.41.04,18.48-1.19,6.03-1.06,12.57-2.67,18.48-.26,5.62,2.65,10.08,7.38,15.84,9.82,1.95.52,4.16.12,6.16.24,3.5-.03,7.06.06,10.56-.04,2.86-.58,5.88-.91,8.8-.63,2.03.18,4.11.84,6.16.67,7.91,0,15.85,0,23.76,0"/><path class="b" d="M7.57,151.66c1.11,0,2.41,0,3.52,0,1.14-.18,2.4-.69,3.52-.96,2.88-.66,5.87-1.2,8.8-1.61,6.49-1,12.97.35,19.36,1.41,4.18.75,8.46.06,12.32-1.65,6.32-2.65,12.49-6.07,19.36-7.05,2.59-.46,5.32-.31,7.92-.61,10.09-1.66,17.96-5.47,28.16-.8,4.13,1.79,7.18,5.38,10.56,8.24,1.06.92,2.37,1.98,3.52,2.78.75.31,1.85.24,2.64.24,5.85,0,11.75,0,17.6,0,2.61-.28,5.26-1.12,7.92-1.05,2.66-.11,5.33.58,7.92,1.05,7.91,0,15.85,0,23.76,0"/><path class="b" d="M7.57,146.88c2.94-.73,5.78-2.16,8.8-2.58,4.37-.76,8.74-1.96,13.2-2.03,5.06-.19,10.02,1.17,14.96,2.04,6.54,1.42,12.74-1.79,18.48-4.54,3.94-1.88,8.02-3.74,12.32-4.6,2.28-.53,4.74-.37,7.04-.72,2.65-.43,5.32-1.26,7.92-1.91,8.27-2.35,15.9-1.08,22.88,4,3.79,3.11,6.77,7.23,10.56,10.35,10.26-.1,20.56.25,30.8-.22,9.95.49,19.95.11,29.92.22"/><path class="b" d="M7.57,139.44c2.61-.76,5.23-1.86,7.92-2.31,4.08-.48,8.2-1.29,12.32-1.31,5.07-.1,10.05,1.19,14.96,2.31,6.56,1.7,10.91.2,16.72-2.83,6.57-3.41,13.44-7.5,21.12-6.96,5.94-.18,11.64-2.57,17.6-2.53,5.28-.03,10.64,1.7,14.96,4.72,4.27,3.34,7.22,8.22,11.44,11.59h59.84"/><path class="b" d="M7.57,130.29c2.56-.83,5.21-1.8,7.92-2,6.23-.24,12.51.53,18.48,2.31,4.89,1.31,9.82,3.37,14.96,3.18,2.47-.22,4.87-1.27,7.04-2.41,6.96-3.72,13.69-9.4,22-9.18,5.56.76,11.16.02,16.72-.45,6.27-.46,12.97.16,18.48,3.42,3.66,2.51,6.59,6.05,9.68,9.2,1.07.95,2.09,2.59,3.52,2.98,2.01,0,4.15,0,6.16,0,4.97,0,9.99,0,14.96,0,7.62,0,15.26,0,22.88,0,2.61,0,5.31,0,7.92,0,1.09,0,2.42,0,3.52,0,.78-.14,1.87-.48,2.64-.69"/><path class="b" d="M7.57,121.34c4.23-1.56,7.94-1.95,12.32-.77,6.98,1.62,13.39,5.06,20.24,7.09,6.88,1.99,10.65,1.7,16.72-2.19,6.13-3.79,12.63-8.65,20.24-7.84,2.93.37,5.85,1.29,8.8,1.54,4.36.5,8.82.39,13.2.35,15.73-.35,17.18,3.88,28.16,13.03,12.02,0,24.06,0,36.08,0,4.09,0,8.23,0,12.32,0,2.01-.03,4.15.07,6.16-.06.77-.37,1.85-.87,2.64-1.21"/><path class="b" d="M7.57,113.95c6.27-2.2,11.08-.22,16.72,2.51,5.66,2.73,11.34,5.81,17.6,6.88,2.58.4,5.35.66,7.92.1,7.08-2.06,12.73-7.9,20.24-8.78,6.46-.97,12.3,2.73,18.48,3.87,3.44.73,7.05.94,10.56.79,3.49-.12,7.06-.56,10.56-.26,6.67.64,12.62,4.32,17.6,8.6,11.71.27,23.48,0,35.2.1,4.68,0,9.4,0,14.08,0,1.71,0,3.57,0,5.28,0,.84.02,1.96.11,2.64-.5"/><path class="b" d="M7.57,108.91c13.12-3.3,20.43,11.88,41.36,9.12,3.08-.56,5.95-2.08,8.8-3.31,7.09-3.34,13.05-3.58,20.24-.39,11.47,5.12,15.45,6.69,28.16,4.55,4.08-.57,8.29-.02,12.32.68,2.79.58,5.54,1.75,7.92,3.3,2.29.31,4.73.06,7.04.13,3.79,0,7.65,0,11.44,0,13.19,0,26.4,0,39.6,0"/><path class="b" d="M7.57,106.51c6.6-1.01,12.44,2.78,18.48,4.74,5.63,2.01,11.71,2.31,17.6,1.52,2.01-.27,4.16-.35,6.16-.72,2.36-.5,4.73-1.38,7.04-2.06,5.57-1.86,11.38-1.65,16.72.82,6.09,2.56,11.88,6.32,18.48,7.41,4.1-.09,8.3.35,12.32-.59,3.18-.71,6.44-.81,9.68-.58,2.62.02,5.36.04,7.92.64,1.08.34,2.37.64,3.52.53,1.71,0,3.57,0,5.28,0,4.68,0,9.4,0,14.08,0,13.19,0,26.4,0,39.6,0"/><path class="b" d="M7.57,106.51c6.96-.83,13.43,2.5,20.24,3.23,5.28.71,10.63,0,15.84-.91,2-.38,4.16-.53,6.16-.93,2.65-.59,5.29-1.58,7.92-2.24,6.12-1.75,12.05-.38,17.6,2.44,4.25,2.01,8.61,4.07,13.2,5.2,2.29.33,4.73.06,7.04.14,2.33.01,4.77.13,7.04-.52,2.29-.48,4.69-1.04,7.04-1.16,3.2.08,6.49.16,9.68.43,1.12.13,2.44.39,3.52.7,1.07.43,2.37.66,3.52.55,6.15,0,12.33,0,18.48,0,13.19,0,26.4,0,39.6,0"/><path class="b" d="M7.57,106.68c5.23-1.01,10.58-.65,15.84-.08,4.96.47,10,.64,14.96.16,4.1-.48,8.33-.84,12.32-1.93,4.6-1.49,9.14-3.74,14.08-3.71,4.64-.06,8.99,1.9,13.2,3.62,3.93,1.51,8.08,2.81,12.32,3,5.72.34,11.19-1.75,16.72-2.82,2.59-.54,5.31-.2,7.92,0,4.32.25,8.66,1.38,12.32,3.74h57.2"/><path class="b" d="M7.57,103.88c1.71-.06,3.59.15,5.28-.14,2.55-.77,5.25-1.34,7.92-1.46,5.59-.3,11.16.71,16.72,1.09,4.09.26,8.37.28,12.32-.94,5.97-2.16,11.87-5.84,18.48-4.89,3.63.4,7.08,1.85,10.56,2.87,5.71,1.7,11.86,1.78,17.6.16,6.64-1.77,11.37-4.18,18.48-2.82,3.35.42,6.72,1.4,9.68,3.04,1.49.82,3.06,1.89,4.4,2.94.76.19,1.86.15,2.64.15,17.59,0,35.2,0,52.8,0"/><path class="b" d="M7.57,99.1c1.72,0,3.56,0,5.28,0,1.2-.25,2.41-1.08,3.52-1.55,1.63-.74,3.5-1.27,5.28-1.48,6.03-.71,11.82,1.7,17.6,3.03,3.2,0,6.48,0,9.68,0,1.49-.29,3.01-1.06,4.4-1.64,18.82-9.43,21.06,3.47,39.6-1.55,5.04-1.3,9.81-3.72,14.96-4.6,4.42-.56,9.04.35,13.2,1.84,3.56,1.33,6.7,3.65,9.68,5.96h53.68"/><path class="b" d="M7.57,94.33h4.4c2.05-1.25,4.01-2.88,6.16-3.95,5.03-2.59,10.86-1.24,15.84.78,5.48,2.19,10.85,4.6,16.72,2.22,3.71-1.3,7.47-2.87,11.44-3.08,4.89-.35,9.51,1.63,14.08,3.04,5.17,1.53,10.79.69,15.84-.94,5.34-1.69,10.33-4.58,15.84-5.7,1.99-.42,4.15-.26,6.16-.07,2.66.23,5.4.72,7.92,1.61,3.9,1.26,7.24,3.79,10.56,6.09h51.92"/><path class="b" d="M7.57,89.55h4.4c2.09-1.3,4.03-3.07,6.16-4.31,6.47-3.92,13.61-1.68,20.24.49,3.09.93,6.44,1.78,9.68,1.18,9.54-2.19,14.01-2.37,22.88,2.25,1.01.61,2.4.32,3.52.38,1.41,0,2.99,0,4.4,0,4.68,0,9.4,0,14.08,0,4.56-1.43,8.65-4.3,13.2-5.8,3.07-1.22,6.44-1.07,9.68-1.07,5.9-.15,11.86,1.35,16.72,4.75,1.13.62,2.2,1.97,3.52,2.12,2.9,0,5.89,0,8.8,0,13.19,0,26.4,0,39.6,0"/><path class="b" d="M7.57,84.77c1.71-.02,3.57.04,5.28-.04,7.47-5.42,12.75-7.14,22-5.89,4.36.54,8.78,1.54,13.2,1.26,7.37-.79,12.75-.43,19.36,3.23.8.42,1.86,1.01,2.64,1.44,1.71,0,3.57,0,5.28,0,4.68,0,9.4,0,14.08,0,2.31-.04,4.73.09,7.04-.07,1.12-.59,2.43-1.32,3.52-1.95,3.87-2.18,7.79-4.88,12.32-5.36,9.55-1.66,16.64-1.07,24.64,4.88,1.12.76,2.29,1.94,3.52,2.51,2.61,0,5.31,0,7.92,0,12.02,0,24.06,0,36.08,0"/><path class="b" d="M7.57,79.99c1.72-.03,3.57.08,5.28-.07,1.11-.56,2.41-1.25,3.52-1.83,3.29-1.7,6.92-2.86,10.56-3.53,6.95-1.27,14.1-1.06,21.12-.52,4.71.27,9.56.24,14.08,1.76,3.03.95,5.96,2.39,8.8,3.8.43.26,1.26.48,1.76.39,1.1,0,2.42,0,3.52,0,3.2,0,6.48,0,9.68,0,3.2,0,6.48,0,9.68,0,1.94-.33,3.62-1.92,5.28-2.91,3.89-2.63,7.64-5.9,12.32-7,13.11-3.99,22.38,2.62,32.56,9.91h38.72"/><path class="b" d="M7.57,75.22c.48,0,1.29,0,1.76,0,.8-.3,1.84-.71,2.64-.99,2.29-.83,4.69-1.68,7.04-2.33,7.77-1.93,15.72-3.8,23.76-3.99,2.96-.08,5.88.84,8.8,1.12,3.8.35,7.7.5,11.44,1.3,5.42,1.03,10.45,3.6,15.84,4.71,3.47.4,7.07.07,10.56.17,1.71-.1,3.69.32,5.28-.46,4.68-2.05,8.41-5.74,12.32-8.93,5.78-5.16,13.05-6.37,20.24-3.54,4.3,1.58,8.28,4.01,12.32,6.14,2.25,1.23,4.74,2.22,7.04,3.34,1.42.7,3,1.51,4.4,2.26.75.4,1.79,1.03,2.64,1.19.41,0,1.34,0,1.76,0,6.15,0,12.33,0,18.48,0,2.31,0,4.73,0,7.04,0,1.12-.07,2.54.26,3.52-.43"/><path class="b" d="M7.57,68.1c5.87-2.35,12.29-2.65,18.48-3.61,5.85-.77,11.66-2.58,17.6-2.39,3,.08,5.81,1.56,8.8,1.73,4.37.39,8.83.08,13.2.6,5.37.59,10.58,2.22,15.84,3.38,2.29.63,4.66,1.41,7.04,1.64,12.72,1.24,17.84-14.65,28.16-16.04,6.19-.62,11.61,3.29,16.72,6.24,2.5,1.49,5.14,3,7.92,3.92,3.8.97,7.75,1.61,11.44,3.01,3.54,1.13,6.96,2.93,10.56,3.85,2.61,0,5.31,0,7.92,0,1.71,0,3.57,0,5.28,0,2.89-1.43,5.38-3.73,7.92-5.68"/><path class="b" d="M7.57,59.24c6.75-2.47,14.1-1.47,21.12-2.29,5.54-.44,11.16-2.04,16.72-1.06,2.06.42,4.06,1.46,6.16,1.73,3.47.56,7.06.36,10.56.47,3.23.08,6.53.44,9.68,1.14,3.24.75,6.53,1.66,9.68,2.7,3.11,1.16,6.29,2.67,9.68,2.68,10.74-.04,16-14.18,24.64-15.95,5.96-.88,11.09,3.32,15.84,6.31,9.63,6.36,9.18,4.3,19.36,5.53,3.57.52,7.11,1.55,10.56,2.58,11.36,3.58,14.25,1.53,22.88-5.93"/><path class="b" d="M7.57,49.35c5.96-1.87,12.32-1.5,18.48-1.55,5.56.05,11.18-.63,16.72-.02,2.43.23,4.78,1.18,7.04,2.03,1.97.65,4.12,1.12,6.16,1.51,5.94,1.03,11.89,2.27,17.6,4.25,3.8,1.28,7.73,2.39,11.44,3.95,12.81,5.35,18.27-5.93,27.28-12.15,4.84-3.08,10.64-.51,14.96,2.29,4.73,2.83,9.27,6.88,14.96,7.44,2.61-.01,5.31-.27,7.92-.05,3.55.21,7.11.95,10.56,1.8,11.82,3.14,14.48,2,23.76-5.73"/><path class="b" d="M7.57,39.65c10.33-2.31,24.98-2.43,35.2.43,3.98,1.13,7.66,3.21,11.44,4.84,6,2.68,12.14,5.17,18.48,6.93,3.74,1.1,7.68,1.59,11.44,2.58,5.56,1.56,10.91,1.21,15.84-1.97,3.75-2.28,6.99-5.39,10.56-7.91,4.02-3.17,8.91-2.71,13.2-.35,6.24,3.02,12.13,9.68,19.36,9.67,2.9-.26,5.9-.34,8.8-.07,4.15.35,8.25,1.42,12.32,2.28,3.2.05,6.48,0,9.68.02,1.56.14,3.09-.87,4.4-1.59,2.09-1.25,4.18-2.79,6.16-4.21"/><path class="b" d="M7.57,32.44c2.89-.5,5.9-.62,8.8-1.04,5.22-.8,10.59-1.51,15.84-.58,6.63,1.16,12.75,4.37,18.48,7.78,4.31,2.76,8.49,5.92,13.2,8,4.66,2.15,9.88,2.71,14.96,2.45,2.91-.14,5.89.07,8.8,0,7.39.06,14.13-3.36,20.24-7.21,3.97-2.51,7.51-4.38,12.32-2.91,7.38,2.13,12.79,8.52,20.24,10.46,2.28.53,4.73,0,7.04.06,3.22-.02,6.51.33,9.68.9,1.72.29,3.56.73,5.28.99,3.2,0,6.48,0,9.68,0,1.4-.02,3,.04,4.4-.05,2.77-1.12,5.39-2.81,7.92-4.4"/><path class="b" d="M7.57,28.54c2.91-.05,5.92.13,8.8-.39,3.49-.64,6.99-1.71,10.56-1.87,6.47-.46,12.36,2.8,17.6,6.23,2.01,1.31,4.26,2.52,6.16,3.99,2.63,2.01,5.2,4.29,7.92,6.18,6.42,4.64,12.06,4.73,19.36,2.28,7.78-2.27,15.99-2.8,23.76-5.15,2.65-.76,5.36-1.7,7.92-2.72,3-1.39,6.36-2.32,9.68-1.71,7.68,1.2,13.64,7.08,21.12,8.84,2.28.49,4.73.07,7.04.13,3.51,0,7.09.34,10.56.84,11.15,1.67,16.12,2.97,26.4-3.15"/><path class="b" d="M7.57,27.21c10.28,2.56,12.06-1.35,21.12-1.79,5.24-.1,9.94,2.7,14.08,5.64,2.54,1.9,5.42,3.5,7.92,5.45,2.03,1.61,4.08,3.45,6.16,4.99,1.34.52,2.99.19,4.4.28,3.2,0,6.48,0,9.68,0,1.11,0,2.42,0,3.52,0,.85.02,1.95.09,2.64-.5,3.02-1.69,6.34-3,9.68-3.94,7.43-2.23,15.34-1.27,22.88-2.79,9.52-3.23,15.72-.83,24.64,2.6,3.35,1.26,6.95,2.23,10.56,1.9,6.74-.28,13.51.25,20.24.68,7.32.51,12.8-.27,19.36-3.78"/><path class="b" d="M7.57,26.18c8.78,4.23,10.84,1.31,19.36.27,3.99-.43,8.01.77,11.44,2.78,4.17,2.45,8.03,5.53,12.32,7.77,3.2,0,6.48,0,9.68,0,3.79,0,7.65,0,11.44,0,1.1,0,2.42,0,3.52,0,1.26.1,2.51-.05,3.52-.89,5.49-3.4,12.09-4.75,18.48-3.92,3.5.35,7.03,1.1,10.56,1.1,2.06.04,4.16-.54,6.16-.92,2.58-.47,5.3-.7,7.92-.62,6.57.1,12.85,2.52,19.36,3.03,7.03-.02,14.08-.92,21.12-1.05,4.68-.21,9.46-.27,14.08-1.15,2.72-.59,5.4-1.67,7.92-2.85"/><path class="b" d="M7.57,23.71c2.74,1.46,5.65,3.08,8.8,3.36,3.2.25,6.48-.05,9.68.24,3.01.24,6.04,1.05,8.8,2.28,1.78.73,3.53,1.85,5.28,2.63,1.41,0,2.99,0,4.4,0,4.97,0,9.99,0,14.96,0,6.44,0,12.92,0,19.36,0,1.22.16,2.41-.85,3.52-1.23,1.37-.59,2.95-1.13,4.4-1.49,6.12-1.64,12.43-.09,18.48,1.11,3.18.7,6.47.49,9.68.17,4.96-.37,10-.29,14.96.1,5.25.39,10.58,1.02,15.84.39,6.78-.74,13.5-2.11,20.24-3.09,3.49-.56,7.08-.99,10.56-1.67,2.7-.6,5.38-1.64,7.92-2.7"/><path class="b" d="M7.57,20.17c2.28,1.11,4.65,2.31,7.04,3.19,3.21,1.05,6.55,1.96,9.68,3.24.47.17,1.3.54,1.76.72,1.1.2,2.41.1,3.52.12,2.02,0,4.14,0,6.16,0,12.9,0,25.82,0,38.72,0,2.91,0,5.89,0,8.8,0,1.41-.45,2.96-1.04,4.4-1.41,6.35-1.9,13.05-.9,19.36.65,2.28.57,4.69.89,7.04.76,2.91,0,5.89,0,8.8,0,7.91,0,15.85,0,23.76,0,1.1,0,2.42,0,3.52,0,1.42-.21,3-.55,4.4-.84,3.51-.75,7.07-1.63,10.56-2.47,3.77-.94,7.65-1.75,11.44-2.61,2.68-.71,5.34-1.78,7.92-2.78"/><path class="b" d="M7.57,16.04c3.29,1.12,6.59,2.5,9.68,4.1.82.44,1.87,1.1,2.64,1.61.73.56,1.7,1.05,2.64.91,3.79,0,7.65,0,11.44,0,14.95,0,29.92,0,44.88,0,2.01,0,4.15,0,6.16,0,1.7-.61,3.54-1.29,5.28-1.79,6.8-2.18,13.69-1.29,20.24,1.27,1.33.66,2.96.52,4.4.52,2.31,0,4.73,0,7.04,0,6.73,0,13.5,0,20.24,0,5.85,0,11.75,0,17.6,0,5.32-1.17,10.58-2.72,15.84-4.12,3-.88,5.91-2.27,8.8-3.45"/><path class="b" d="M7.57,11.9c4.76.66,8.73,2.88,12.32,5.99,14.37,0,28.75,0,43.12,0,6.15,0,12.33,0,18.48,0,1.17.11,2.45-.4,3.52-.8,1.72-.64,3.55-1.38,5.28-2,6.02-2.35,12.59-2.72,18.48.22,1.46.68,3.02,1.58,4.4,2.42,3.46.39,7.07.05,10.56.16,7.03,0,14.09,0,21.12,0,8.79,0,17.61,0,26.4,0,4.74-.4,8.97-3.27,13.2-5.25"/></svg>