<?xml version="1.0" encoding="UTF-8"?><svg id="a" xmlns="http://www.w3.org/2000/svg" width="1920" height="2400" viewBox="0 0 192 240"><defs><style>.b{fill:none;stroke:#fff;stroke-miterlimit:10;stroke-width:.4px;}.c{stroke-width:0px;}</style></defs><rect class="c" width="192" height="240"/><path class="b" d="M8.95,232.19h18.19c4.15-3.18,8.54-6.49,13.86-7.3,3.13-.55,6.4-.3,9.53.1,5.56.63,10.95,2.68,15.59,5.79.44.29,1.3.88,1.73,1.18,1.05.37,2.37.18,3.46.22,2.57,0,5.23,0,7.8,0,13.27,0,26.57,0,39.84,0,.59-.21,1.4-1.11,1.73-1.62,1.06-1.34,2.34-2.92,3.46-4.21,5.96-6.95,11.51-10.18,20.79-10.35,8.19-.18,16.11,2.75,23.39,6.26,4.87,2.37,9.52,5.36,14.72,6.98"/><path class="b" d="M8.95,227.49c4.31,0,8.68,0,12.99,0,1.69,0,3.51,0,5.2,0,.81,0,1.87.09,2.6-.32,2.81-2.4,5.99-4.61,9.53-5.76,5.35-1.79,11.11-.57,16.46.64,2.97.75,5.93,1.88,8.66,3.27,1.69.68,3.27,2.35,5.2,2.18,3.15,0,6.38,0,9.53,0,13.85-.08,27.73.16,41.57-.09,5.63-6.08,11.47-10.44,19.92-11.41,6.55-1.13,13.29-2.29,19.92-1.14,3.59.58,7.14,1.79,10.39,3.41,4,2.1,7.88,4.6,12.13,6.2"/><path class="b" d="M8.95,222.79h20.79c3.59-2.86,7.42-5.91,12.13-6.52,6.64-.79,13.12,2.11,19.05,4.75,1.1.52,2.39,1.17,3.46,1.73,1.39.07,2.94.03,4.33.04,3.44,0,6.95,0,10.39,0,9.81,0,19.64,0,29.45,0,3.44,0,6.95,0,10.39,0,1.39,0,2.94,0,4.33,0,.88-.2,1.84-.98,2.6-1.44,3.19-2.02,6.76-3.57,10.39-4.59,4.08-1.07,8.2-2.17,12.13-3.73,8.36-3.28,15.56-3.54,23.39,1.35,3.57,2.31,7.19,4.75,11.26,6.1"/><path class="b" d="M8.95,218.09h19.92c10.28-9.66,18.5-7.17,29.45-.38,1.27.7,2.94.27,4.33.38,2.57,0,5.23,0,7.8,0,15.3,0,30.61,0,45.9,0,4.6,0,9.26,0,13.86,0,1.5-.11,2.93-1.15,4.33-1.64,2.27-.97,4.66-1.94,6.93-2.9,3.92-1.57,7.42-4.14,11.26-5.88,6.51-3.16,12.5-1.8,18.19,2.36,3.71,2.77,7.45,5.9,12.13,6.84"/><path class="b" d="M8.95,213.38c5.76-.09,11.58.19,17.32-.11,3.85-3.33,8.54-6.53,13.86-6.23,5.4.41,10.46,3.06,14.72,6.27,22.51.2,45.04,0,67.56.07,4.6-.06,9.26.12,13.86-.08,4.04-2.55,8.35-4.8,12.13-7.76,7.95-6.03,13.82-6.55,21.65.08,3.83,3.24,7.65,7.35,12.99,7.63"/><path class="b" d="M8.95,208.68c4.02,0,8.1,0,12.13,0,1.24-.45,2.37-1.56,3.46-2.27,1.87-1.32,3.93-2.61,6.06-3.46,4.19-1.82,8.99-1.14,12.99.86,2.97,1.41,5.92,3.06,8.66,4.87h85.75c3.07-2.45,6.56-4.46,9.53-7.05,7.94-6.75,13.58-7.99,21.65-.56,3.07,2.58,5.66,6.18,9.53,7.61,1.39,0,2.94,0,4.33,0"/><path class="b" d="M8.95,203.98c1.09,0,2.37,0,3.46,0,.82,0,1.87.09,2.6-.35,6.42-2.72,12.48-8.28,19.92-6.98,3.8.64,7.19,2.75,10.39,4.78,1.37.85,2.87,1.85,4.33,2.55,1.09,0,2.38,0,3.46,0,19.05,0,38.11,0,57.16,0,9.81,0,19.64,0,29.45,0,4.86-2.09,8.48-6.52,12.99-9.26,8.91-5.86,15.38,1.54,21.65,7.31.7.63,1.79,1.4,2.6,1.89,1.97.14,4.08.03,6.06.06"/><path class="b" d="M8.95,196.83c16.89-5.87,19.77-10.13,35.51,1.96.95.77,2.34.42,3.46.49,1.39,0,2.94,0,4.33,0,4.6,0,9.26,0,13.86,0,12.99,0,25.99,0,38.98,0,10.96,0,21.95,0,32.91,0,1.08,0,2.38,0,3.46,0,.42-.22,1.32-.67,1.73-.9,3.32-1.93,6.23-4.62,9.53-6.59,7.71-4.9,13.7-1.5,19.92,3.82,1.58,1.32,3.32,2.78,5.2,3.67,1.68,0,3.51,0,5.2,0"/><path class="b" d="M8.95,188.24c4.6-1.1,9.07-3.24,13.86-3.37,5.2-.12,9.89,2.69,13.86,5.78,1.73,1.21,3.3,2.98,5.2,3.93,5.18,0,10.41,0,15.59,0,26.27,0,52.55,0,78.82,0,1.39,0,2.94,0,4.33,0,.78,0,1.87.08,2.6-.27,6.94-2.99,13.53-9.45,21.65-7.18,4.54,1.14,8.22,4.27,12.13,6.66,1.71,1.29,4.07.66,6.06.79"/><path class="b" d="M8.95,181.08c3.47-.51,6.9-1.66,10.39-2.02,8.08-.4,14.19,5.99,19.92,10.81,28,.02,56.01,0,84.01,0,7.5,0,15.02,0,22.52,0,3.25-.9,6.32-2.58,9.53-3.62,6.1-2.29,12.52-1.85,18.19,1.39,1.1.6,2.39,1.37,3.46,2.01,1.92.48,4.09.11,6.06.22"/><path class="b" d="M8.95,175.42c9.59-.51,11.86-2.92,20.79,3.16,3.03,1.95,5.61,4.7,8.66,6.59,4.89,0,9.83,0,14.72,0,31.47,0,62.94,0,94.41,0,2.57-.03,5.23.06,7.8-.05,3.37-.93,6.88-1.77,10.39-1.79,2.95-.04,5.97.63,8.66,1.84,2.86,0,5.8,0,8.66,0"/><path class="b" d="M8.95,170.76c3.14.42,6.37.14,9.53.09,6.6.31,12.08,4.62,17.32,8.2.77.49,1.66,1.32,2.6,1.41,1.69,0,3.51,0,5.2,0,4.02,0,8.1,0,12.13,0,42.44,0,84.88,0,127.32,0"/><path class="b" d="M8.95,165.93c3.09.81,6.35.95,9.53,1.12,2.05.21,4.15.79,6.06,1.53,3,1.17,5.89,2.82,8.66,4.46,1.09.64,2.37,1.41,3.46,2.05.72.52,1.73.76,2.6.67,15.59,0,31.19,0,46.77,0,32.33,0,64.67,0,97.01,0"/><path class="b" d="M8.95,160.28c3.08,1.04,6.35,1.67,9.53,2.32,2.39.6,4.75,1.64,6.93,2.77,3.53,1.72,6.8,4.13,10.39,5.69,2.57,0,5.23,0,7.8,0,17.61,0,35.23,0,52.83,0,28.87,0,57.74,0,86.61,0"/><path class="b" d="M8.95,154.8c3.71,1.48,7.67,2.56,11.26,4.33,3.91,2.09,7.5,4.85,11.26,7.19,37.53.1,75.07,0,112.6.03,4.31-.06,8.69.12,12.99-.07,3.3-1.27,6.83-2.29,10.39-2.37,3.6-.13,7.18.87,10.39,2.44,1.68,0,3.51,0,5.2,0"/><path class="b" d="M8.95,150.26c3.53,1.44,7.12,3.04,10.39,5.01,3.05,1.84,5.59,4.63,8.66,6.39,15.59,0,31.19,0,46.77,0,21.65,0,43.31,0,64.96,0,1.98,0,4.08,0,6.06,0,1.08-.03,2.41.12,3.46-.18,1.67-.83,3.49-1.73,5.2-2.48,9.75-4.62,19.21-2.58,28.58,1.89"/><path class="b" d="M8.95,147.06c3.31,1.32,6.51,3.12,9.53,5.01,2.11,1.43,4.1,3.27,6.06,4.88,31.76,0,63.52,0,95.27,0,7.21,0,14.45,0,21.65,0,1.23.01,2.4-.97,3.46-1.48,1.68-.94,3.49-1.98,5.2-2.86,6.94-3.76,13.25-4.12,20.79-1.99,3.96,1.1,8.11,1.59,12.13,2.45"/><path class="b" d="M8.95,145.27c4.26,1.75,8.44,3.99,12.13,6.77,1.64.44,3.51.13,5.2.22,3.15,0,6.38,0,9.53,0,13.57.01,27.15-.03,40.71,0,19.63,0,39.27,0,58.9,0,.76,0,1.83,0,2.6,0,1.87-.51,3.51-2,5.2-2.93,3-1.91,6.13-3.85,9.53-4.99,7.99-2.82,14.12.9,21.65,2.64,2.83.49,5.8.24,8.66.18"/><path class="b" d="M8.95,144.96c1.42.47,2.96,1.09,4.33,1.68.79.32,1.74.87,2.6.91,5.76,0,11.56,0,17.32,0,5.47,0,10.98,0,16.46,0,2.57,0,5.23,0,7.8,0,1.08-.37,2.35-.8,3.46-1.03,2.25-.48,4.69-.44,6.93.08,1.69.41,3.42,1.17,5.2.95,11.54,0,23.1,0,34.64,0,6.63,0,13.29,0,19.92,0,2.86,0,5.8,0,8.66,0,1.58.13,2.98-1.23,4.33-1.89,9.58-6.13,15.75-8.59,26.85-4.04,6.07,2.44,8.99,3.27,15.59,1.7"/><path class="b" d="M8.95,142.84c13.85,0,27.72,0,41.57,0,1.09-.01,2.38.05,3.46-.08.45-.17,1.28-.49,1.73-.65,2.19-.77,4.6-1.3,6.93-1.24,2.67.05,5.35.86,7.8,1.9,1.09.1,2.38.05,3.46.06,11.83,0,23.68,0,35.51,0,8.65,0,17.33.02,25.98,0,4.47-1.32,8.61-3.64,12.99-5.2,7.5-2.83,14.42-1.46,21.65,1.41,4.72,1.91,7.96,2.56,12.99.96"/><path class="b" d="M8.95,138.14c13.27,0,26.57,0,39.84,0,1.79.08,3.51-1.03,5.2-1.48,2.21-.73,4.6-1.27,6.93-1.28,2.33-.02,4.74.5,6.93,1.28,1.42.39,2.84,1.46,4.33,1.48,7.21,0,14.45,0,21.65,0,5.47-.03,10.99.11,16.46-.15,2.27.18,4.65.19,6.93.1,5.76-.44,11.55-1.08,17.32-1.41,3.78-.22,7.61-.74,11.26-1.78,6.17-1.68,12.63-3.24,19.05-2.18,3.59.5,7.04,1.85,10.39,3.14,2.48.8,5.25.87,7.8.32"/><path class="b" d="M8.95,133.44c11.25,0,22.53,0,33.78,0,.78,0,1.82,0,2.6,0,1.43-.31,2.94-.97,4.33-1.43,3.07-1.13,6.25-2.3,9.53-2.61,3.83-.41,7.7.53,11.26,1.89,1.98.71,4.02,1.66,6.06,2.16,1.09,0,2.38,0,3.46,0,5.18-.04,10.41.08,15.59-.05,4.03-.73,8.04-1.95,12.13-2.38,2.57-.29,5.24.25,7.8-.19,5.43-.86,10.92-2.19,16.46-1.5,4.32.39,8.62,1.74,12.99,1.43,8.43-.61,16.55-5.49,25.12-3.47,2.12.46,4.12,1.6,6.06,2.5,2.15.96,4.56,1.69,6.93,1.79"/><path class="b" d="M8.95,128.74c1.39,0,2.94,0,4.33,0,2.47-1.04,5.07-2.16,7.8-2.25,5.52-.23,10.94,1.5,16.46,1.46,3.2.02,6.47-.49,9.53-1.44,3.18-1,6.3-2.42,9.53-3.28,6.63-1.99,12.64-.24,19.05,1.48,2.8.74,5.79.6,8.66.68,7.26.33,14.47-.78,21.65-1.61,2.56-.35,5.23.08,7.8-.16,3.51-.49,6.89-1.88,10.39-2.41,4.07-.71,8.29.03,12.13,1.47,2.82.98,5.65,2.38,8.66,2.68,9.07.87,16.89-7.13,25.98-5.15,4.38,1.31,7.78,4.84,12.13,6.29"/><path class="b" d="M8.95,122.73c11.7-7.29,13.37-5.53,25.98-2.78,3.98.79,8.2.89,12.13-.24,8.02-2.64,13.5-6.43,22.52-5.4,2.58.24,5.22.76,7.8,1.01,2.27.21,4.65.01,6.93.18,7.2.55,14.44.83,21.65.6,2.28-.09,4.65.2,6.93.15,2.35-.21,4.69-1.05,6.93-1.74,6.11-2.14,11.51-1.88,17.32,1.01,2.54,1.13,5.06,2.69,7.8,3.31,8.49,1.79,15.86-5.22,24.25-4.68,5.5.56,9.21,5.39,13.86,7.87"/><path class="b" d="M8.95,114.97c3.84-2.15,7.62-5.18,12.13-5.63,10.14-.34,18.77,8.81,29.45,4.11,5.25-2.28,10.05-5.72,15.59-7.34,3.9-1.22,8.07-1.39,12.13-1.42,6.4-.43,12.76.75,19.05,1.72,3.44.54,6.95,1.03,10.39,1.53,2.27.3,4.63.88,6.93.69,10.5-1.32,14.28-2.52,24.25,2.86,3.62,2.02,6.95,3.78,11.26,3.16,6.96-.74,13.68-5.36,20.79-3.26,3.33,1.04,5.98,3.59,8.66,5.7,1.04.74,2.16,2.01,3.46,2.23"/><path class="b" d="M8.95,108.45c3.17-1.79,6.26-3.91,9.53-5.52,2.43-1.06,5.25-1.11,7.8-.46,7.22,1.73,13.13,7.8,20.79,7.82,9.54-.75,17.3-13.99,31.18-15.11,10.97-1.13,21.77,1.94,32.05,5.47,5.3,1.87,11.04,2.03,16.46,3.43,5.5,1.33,10.64,3.87,15.59,6.55,3.4,1.99,7.58,1.66,11.26.72,6.19-1.64,13.07-3.83,19.05-.36,1.85.93,3.43,2.58,5.2,3.63h5.2"/><path class="b" d="M8.95,103.61c10.41-5.34,12.78-11.24,25.12-4.3,5.05,2.64,10.35,7.77,16.46,6.05,5.02-1.72,8.88-5.7,12.99-8.88,4.1-3.29,8.6-6.56,13.86-7.61,2.25-.42,4.66-.4,6.93-.64,8.99-.99,16.24.49,24.25,4.66,5.72,2.87,11.42,5.91,17.32,8.38,5.77,2.47,11.79,4.49,17.32,7.48,3.83,1.79,8.19.69,12.13-.13,5.16-1.23,10.82-1.36,15.59,1.27,4.02.12,8.1.01,12.13.05"/><path class="b" d="M8.95,100.27c8-2.93,12.19-10.87,21.65-8.3,5.38,1.47,9.63,5.46,14.72,7.57,2.79,1.23,5.99.8,8.66-.52,7.77-3.81,13.91-10.86,22.52-12.95,1.95-.51,4.09-.44,6.06-.8,2.88-.52,5.77-1.43,8.66-1.93,8.19-1.71,15.17,1.77,21.65,6.44,5.24,3.82,10.38,8.04,16.46,10.49,3.07,1.3,6.39,2.16,9.53,3.27,1.72.48,3.35,1.85,5.2,1.68,12.99,0,25.99,0,38.98,0"/><path class="b" d="M8.95,97.6c9.12-2.48,13.49-12.48,24.25-10.06,7.99,1.91,12.75,8.68,21.65,5.66,6.76-2.08,12.93-5.97,19.92-7.34,2.83-.7,5.89-.41,8.66-1.35,4.08-1.35,7.89-3.66,12.13-4.56,6.36-1.59,12.53,1.71,17.32,5.65,5.73,4.74,11.55,10.02,19.05,11.56,3.79.88,7.85,1.26,11.26,3.28,13.27.22,26.57,0,39.84.08"/><path class="b" d="M8.95,94.54c5.51-.77,9.42-5,13.86-7.92,5.96-4.07,11.64-4.35,18.19-1.55,3.06,1.21,6.19,2.67,9.53,2.81,5.22.32,10.43-.77,15.59-1.37,4.58-.6,9.25-.87,13.86-1.14,3.46-.3,6.54-2.28,9.53-3.89,4.66-2.69,10.15-5.16,15.59-3.53,3.9,1.07,7.18,3.67,10.39,6.01,7.26,5.46,11.8,6.95,20.79,7.6,1.73.21,3.6.61,5.2,1.33,2.12,1.21,4.48,2.21,6.93,2.52,4.27.74,8.68.3,12.99.41,7.21,0,14.45,0,21.65,0"/><path class="b" d="M8.95,91.11c1.39,0,2.94,0,4.33,0,2.58-.65,4.79-2.4,6.93-3.9,10.43-7.61,14.93-7.86,26.85-3.6,7.59,2.02,15.58,2.09,23.39,2.17,3.73-.09,7.6.03,11.26-.76,8.25-2.68,14.91-10.91,24.25-9.66,6.39.98,11.34,5.8,17.32,7.96,2.75,1.1,5.73,1.76,8.66,2.13,2.88.38,5.91.58,8.66,1.58,1.73.65,3.42,1.76,5.2,2.29,2.23.73,4.65,1.17,6.93,1.71,2.85.17,5.8.03,8.66.07,7.21,0,14.45,0,21.65,0"/><path class="b" d="M8.95,86.41c2.28,0,4.65,0,6.93,0,1.39-.11,3.08.33,4.33-.39,4.78-2.95,9.78-6.38,15.59-6.6,5.75-.25,11.01,2.58,16.46,3.99,7,2.04,14.38,2.88,21.65,2.2,2.87-.32,5.91-.47,8.66-1.41,9.21-3.55,17.03-12.95,27.72-11.05,6.02,1.37,11.37,4.84,17.32,6.46,3.96,1.22,8.15,1.75,12.13,2.92,1.74.5,3.49,1.4,5.2,2,1.95.68,4.07,1.23,6.06,1.78,10.66.29,21.38.01,32.05.1"/><path class="b" d="M8.95,81.71c5.18-.08,10.42.17,15.59-.1,2.2-1.12,4.55-2.2,6.93-2.86,3.37-.97,7.02-.94,10.39-.01,2.66.7,5.26,1.85,7.8,2.9,3.14.19,6.38.03,9.53.08,8.36,0,16.75,0,25.12,0,1.56.19,3.01-.85,4.33-1.53,1.71-.94,3.52-2.03,5.2-3.03,7.1-4.31,14.89-8.82,23.39-5.75,4.67,1.46,9.19,3.51,13.86,4.98,6.03,1.83,12.15,3.5,18.19,5.29,11.25.08,22.53,0,33.78.03"/><path class="b" d="M8.95,77.01c6.05,0,12.14,0,18.19,0,1.44-.06,2.91-.83,4.33-1.06,1.95-.43,4.07-.6,6.06-.43,2.04.17,4.15.71,6.06,1.42,2.27.16,4.65.03,6.93.07,7.79,0,15.6,0,23.39,0,6.05-.03,12.14.07,18.19-.04,3.19-1.63,6.36-3.46,9.53-5.11,7.07-3.71,12.05-5.33,19.92-2.74,4.93,1.51,9.74,3.53,14.72,4.86,2.82.8,5.79,1.3,8.66,1.88,1.7.28,3.47,1.07,5.2,1.15,10.96,0,21.95,0,32.91,0"/><path class="b" d="M8.95,72.3c5.76,0,11.56,0,17.32,0,3.34-1.05,6.85-2.03,10.39-1.8,2.68.07,5.27,1.01,7.8,1.8,4.6,0,9.26,0,13.86,0,11.54,0,23.1,0,34.64,0,1.39,0,2.94,0,4.33,0,1.49-.4,2.94-1.38,4.33-2.03,7.34-3.82,12.32-6.04,20.79-4.44,7.19,1.32,14.32,3.24,21.65,3.62,2.33.3,4.71.93,6.93,1.69,1.38.41,2.85,1.29,4.33,1.16,9.23,0,18.49,0,27.72,0"/><path class="b" d="M8.95,67.43c1.37.32,2.94.12,4.33.17,1.98-.04,4.09.11,6.06-.09,3.49-.92,6.87-2.43,10.39-3.24,3.38-.82,7.02-.89,10.39,0,1.75.44,3.56,1.14,5.2,1.89,1.36.58,2.77,1.65,4.33,1.45,8.07,0,16.18,0,24.25,0,9.23,0,18.49,0,27.72,0,1.19.15,2.39-.74,3.46-1.14,1.94-.86,4.03-1.72,6.06-2.33,4.19-1.25,8.65-1.47,12.99-1.57,4.6-.09,9.26-.12,13.86-.28,2.27-.04,4.66-.25,6.93-.05,2.34.23,4.72.87,6.93,1.65,2.01.71,4.1,1.61,6.06,2.46,1.07.42,2.31,1.14,3.46,1.27,7.21,0,14.45,0,21.65,0"/><path class="b" d="M8.95,60.26c6.72.9,11.06-.92,17.32-2.46,5.55-1.38,11.4-.33,16.46,2.21,1.41.66,2.94,1.46,4.33,2.16,1.02.66,2.29.81,3.46.72,4.89,0,9.83,0,14.72,0,14.43,0,28.88,0,43.31,0,.82.09,1.83-.35,2.6-.57,1.37-.4,2.93-.76,4.33-1.03,5.45-1,11.01-1.53,16.46-2.51,4.6-.68,9.19-2,13.86-2.08,7.56.1,14.34,4.07,21.65,5.46,5.24,1.2,10.37-1.2,15.59-1.33"/><path class="b" d="M8.95,53.64c10.04.84,16.59-5.35,26.85-1.12,3.64,1.43,6.97,3.67,10.39,5.53,1.66.3,3.51.09,5.2.15,21.07,0,42.16,0,63.23,0,2.27,0,4.65,0,6.93,0,7.38-.88,14.56-2.89,21.65-5.03,3.65-.97,7.54-.97,11.26-.48,5.19.64,10.33,2.21,15.59,2.23,2.01.04,4.09-.45,6.06-.77,2.26-.33,4.66-.39,6.93-.13"/><path class="b" d="M8.95,48.05c4.13.44,8.19-.7,12.13-1.78,9.82-2.61,15.64,2.28,23.39,7.22,25.11,0,50.24,0,75.35,0,3.73,0,7.53,0,11.26,0,1.08,0,2.38,0,3.46,0,1.75-.31,3.53-1.09,5.2-1.7,9.97-4.61,16.29-3.98,26.85-3.68,3.19.12,6.4-.5,9.53-1.01,2.28-.23,4.7.01,6.93.54"/><path class="b" d="M8.95,43.24c7.94,1.27,13.6-4.17,21.65-1.91,3.12.83,6,2.55,8.66,4.34,1.39.94,2.92,2.02,4.33,2.93.77.25,1.81.19,2.6.19,28,0,56.01,0,84.01,0,3.15,0,6.38,0,9.53,0,1.87.08,3.49-1.49,5.2-2.1,2.47-1.14,5.15-2.05,7.8-2.65,5.38-1.27,10.98-1.24,16.46-1.81,2.31-.18,4.64-.89,6.93-1.16,2.3-.2,4.72.17,6.93.79"/><path class="b" d="M8.95,38.26c2.26.36,4.68.34,6.93-.11,2.02-.42,4.07-1.16,6.06-1.66,11.09-3.08,16.09,3.31,25.12,7.47,3.42.32,6.96.04,10.39.13,5.76,0,11.56,0,17.32,0,17.32,0,34.65,0,51.97,0,3.15,0,6.38,0,9.53,0,1.97-.1,4.13.23,6.06-.19,3.19-1.99,6.74-3.56,10.39-4.48,5.36-1.41,10.98-1.35,16.46-1.96,2.31-.19,4.64-.94,6.93-1.28,2.28-.27,4.69-.02,6.93.46"/><path class="b" d="M8.95,31.72c2.57.21,5.25.09,7.8-.36,3.42-.64,6.89-1.61,10.39-1.51,6.42.03,11.82,3.89,17.32,6.68,2.13,1.17,4.63,1.5,6.93,2.17.45.14,1.29.45,1.73.61.78.1,1.82.08,2.6.08,1.98,0,4.08,0,6.06,0,6.05,0,12.14,0,18.19,0,16.74,0,33.49,0,50.24,0,3.15,0,6.38,0,9.53,0,1.97.19,3.51-1.62,5.2-2.39,2.43-1.37,5.1-2.53,7.8-3.28,5.33-1.55,10.97-1.31,16.46-1.57,2.31-.06,4.65-.65,6.93-.94,2.28-.22,4.68-.02,6.93.38"/><path class="b" d="M8.95,23.96c17.2-1.19,18.44-1.91,33.78,6.64,1.62.8,3.42,1.56,5.2,1.9,2.64.29,5.31.92,7.79,1.86,1.3.59,2.94.22,4.33.32,1.98,0,4.08,0,6.06,0,6.05,0,12.14,0,18.19,0,17.32,0,34.65,0,51.97,0,1.08,0,2.38,0,3.46,0,1.57-.3,2.95-1.58,4.33-2.32,2.99-1.83,6.18-3.55,9.53-4.63,5.28-1.83,10.97-1.46,16.46-1.18,1.98.11,4.08-.15,6.06-.17,2.29.02,4.68.36,6.93.81"/><path class="b" d="M8.95,15.9c7.34-1.47,15.02-.18,21.65,3.22,4.11,1.98,7.97,4.57,12.13,6.45,1.34.59,2.88,1.14,4.33,1.41,1.68.26,3.52.22,5.2.47,3.23.41,6.48,1.23,9.53,2.36,2.24.36,4.66.07,6.93.16,3.73,0,7.53,0,11.26,0,10.67,0,21.37,0,32.05,0,6.34,0,12.72,0,19.05,0,2.27,0,4.65,0,6.93,0,.76,0,1.83,0,2.6,0,.43-.2,1.32-.63,1.73-.88,6.41-3.77,12.98-8.52,20.79-8.1,2.89.07,5.81.66,8.66,1.07,3.78.32,7.59.9,11.26,1.91"/><path class="b" d="M8.95,8.47c9.76-2.68,18.69,3.52,26.85,8.03,3.75,2.05,7.77,4.18,12.13,4.4,5.22-.11,10.57.05,15.59,1.65,2.38.64,4.63,1.91,6.93,2.73,2.28,0,4.65,0,6.93,0,14.43,0,28.88,0,43.31,0,4.89,0,9.83,0,14.72,0,1.68,0,3.51,0,5.2,0,1.12,0,2.52.15,3.46-.58,5.45-3.15,10.74-7.55,17.32-7.74,3.54-.16,7.03.92,10.39,1.88,3.76.9,7.55,1.95,11.26,3.07"/></svg>