<?xml version="1.0" encoding="UTF-8"?><svg id="a" xmlns="http://www.w3.org/2000/svg" width="1920" height="2400" viewBox="0 0 192 240"><defs><style>.b{fill:none;stroke:#fff;stroke-miterlimit:10;stroke-width:.3px;}.c{stroke-width:0px;}</style></defs><rect class="c" width="192" height="240"/><path class="b" d="M10.8,227.4c3.75,2.52,8.22,4.11,12.72,4.55,3.42.28,6.84-.56,10.17-1.22,8.25-1.06,11.08-1.95,17.8-6.97,7.03-5.33,10.67-6.84,19.5-5.3,3.08.27,6.25-.04,9.33-.21,3.93-.22,7.93-.84,11.87-.48,5.41.73,10.72,2.25,16.11,3.14,1.66.29,3.42.81,5.09,1.06,1.93.27,4,.37,5.93.59,3.45.34,6.87,1.29,10.17,2.31,5.39,1.85,10.99-.53,16.11-2.21,2.51-.92,5.23-1.59,7.63-2.79,3.47-1.71,6.65-4.11,10.17-5.71,1.84-.85,3.91-1.58,5.94-1.78,3.93-.29,7.95.08,11.87-.46"/><path class="b" d="M10.8,225.38c3.78,3,8.84,4.03,13.56,3.31,3.15-.44,6.22-1.58,9.33-2.23,10.32-1.4,12.78-4.14,21.19-9.07,5-2.77,10.64-2.22,16.11-1.82,4.23,0,8.48-.84,12.72-.81,3.97-.13,7.95.48,11.87,1.04,3.95.49,7.98.83,11.87,1.72,3.44.77,6.73,2.3,10.17,3.1,3.86.98,7.91,1.29,11.87,1.59,3.42.47,6.86-.43,10.17-1.21,3.08-.74,6.27-1.35,9.33-2.17,5.03-1.22,8.92-4.99,13.57-7.08,7.29-3.61,11.54.08,18.65-1.32"/><path class="b" d="M10.8,222.62c7.58,6.02,14.92,1.5,22.89-.54,4.07-.68,8.16-1.68,11.87-3.52,3.98-1.82,7.61-4.58,11.87-5.75,4.68-1.3,9.62-1.27,14.41-1.82,4.75-.76,9.61-1.63,14.41-.78,2.82.38,5.64,1.25,8.48,1.51,4.23.34,8.6.16,12.72,1.36,8.51,2.59,10.99,7.25,21.2,5.94,4.05-.1,7.92-1.5,11.87-2.19,3.94-.74,8.2-.49,11.87-2.29,4.49-2.29,8.45-5.95,13.56-6.83,5.3-1.09,9.9,2.47,15.26.64"/><path class="b" d="M10.8,218.97c7.56,5.44,15.02,1.51,22.89-.57,4.36-.81,8.68-2.07,12.72-3.9,4.46-2.06,8.77-4.59,13.56-5.82,4.19-1.22,8.45-2.41,12.72-3.33,4.14-1.01,8.49-1.75,12.72-.81,2.83.52,5.63,1.6,8.48,2.03,3.07.41,6.26.31,9.33.78,2.93.42,5.84,1.42,8.48,2.76,4.65,2.64,8.71,5.76,14.41,4.96,2.23-.31,4.58-.6,6.78-1.06,2.22-.56,4.51-1.28,6.78-1.64,3.91-.73,8.08-.01,11.87-1.34,4.61-1.86,8.53-5.5,13.57-6.29,5.85-1.25,10.31,3.13,16.11.83"/><path class="b" d="M10.8,214.87c7.63,4.2,16.58,2.8,24.59.54,7.71-1.91,14.79-5.6,22.04-8.71,8.4-3.45,16.86-8.66,26.28-7.77,3.43.37,6.77,1.57,10.17,2.07,3.96.54,8.04.89,11.87,2.11,2.58.82,5.2,1.83,7.63,3.03,2.92,1.51,6,3.07,9.32,3.34,3.09.27,6.25-.32,9.33-.58,2.52-.39,5.08-1.08,7.63-1.28,3.64-.38,7.41.33,11.02-.38,5-1.32,9.17-5.03,14.41-5.63,5.74-1,10.39,2.98,16.11.75"/><path class="b" d="M10.8,210.88c2.68,1.15,5.63,1.61,8.48,2.12,3.61.64,7.37,1.04,11.02.58,3.52-.41,6.9-1.76,10.17-3.06,2.76-1.16,5.68-2.14,8.48-3.18,4.54-1.88,9.28-3.48,13.56-5.92,6.84-4.06,11.93-7.6,20.35-7.29,2.53.11,5.12.6,7.63.9,3.1.32,6.29.52,9.33,1.25,3.75.83,7.35,2.36,11.02,3.45,3.41.88,6.72,2.38,10.17,3.1,5.56,1.22,11.32.82,16.96.57,3.95-.1,7.92.92,11.87.58,4.82-.61,8.84-3.9,13.56-4.92,3.05-.82,6.28-.49,9.33.17,2.78.54,5.76.58,8.48-.27"/><path class="b" d="M10.8,206.86c2.94,1.21,6.22,1.2,9.33,1.71,3.9.53,7.95,1.08,11.87.37,3.27-.59,6.29-2.22,9.33-3.49,2.43-1.1,5.08-1.83,7.63-2.56,4.87-1.59,10.01-2.78,14.41-5.49,8.07-5.19,10.84-8.26,21.19-7.33,1.94.17,3.99.33,5.93.3,1.36-.03,2.88-.2,4.24-.12,3.2.15,6.34,1.16,9.33,2.26,1.91.7,3.94,1.47,5.93,1.88,1.35.25,2.89.32,4.24.58,3.42.6,6.82,1.63,10.17,2.54,1.92.53,3.96,1.07,5.94,1.34,2.79.35,5.69.39,8.48.75,4.75.54,9.72,2.07,14.41.44,4.72-1.62,9.29-4.27,14.41-4.25,2.23.02,4.55.46,6.78.5,2.24.08,4.59-.17,6.78-.65"/><path class="b" d="M10.8,202.31c2.89,1.43,6.21,1.12,9.33,1.31,4.22.14,8.56.41,12.72-.49,3.56-.78,6.76-2.77,10.17-4,3-1.1,6.25-1.54,9.33-2.37,4.04-1.03,8.3-1.74,11.87-4.03,3.17-1.85,5.98-4.44,9.33-5.98,4.3-1.84,9.07-.7,13.56-.49,2.26.16,4.56-.37,6.78-.66,5.12-.41,9.64,2.54,14.41,3.85,2.74.74,5.7.08,8.48.66,4.16.63,7.97,2.62,11.87,4.08,3.82,1.23,7.94,1.33,11.87,2.05,4.75.8,9.77,1.49,14.41-.21,3.6-1.18,7.21-2.66,11.02-2.99,2.23-.24,4.55.16,6.78.15,2.81.02,5.69-.32,8.48-.71"/><path class="b" d="M10.8,196.66c3.06,1.82,6.75,1.49,10.17,1.55,3.66-.03,7.39-.06,11.02-.55,3.87-.41,7.37-2.34,11.02-3.54,3.01-.99,6.26-1.36,9.33-2.14,9.87-2.16,10.6-2.64,18.65-8.68,4.7-3.79,9.82-2.4,15.26-1.75,2.25.25,4.6-.03,6.78-.61,5.18-.91,9.75,2.38,14.41,4.06,2.69,1.13,5.67.4,8.48.71,4.21.39,8.09,2.32,11.87,4.06,4.5,1.98,9.61,1.76,14.41,2.29,3.36.26,6.82.49,10.17.05,3.12-.47,6.22-1.46,9.32-2.02,3.34-.71,6.8-.43,10.17-.21,3.09.04,6.25-.36,9.32-.61"/><path class="b" d="M10.8,190.94c2.84,1.55,6.17,1.62,9.33,1.84,3.93.22,7.93.49,11.87.27,3.49-.13,6.84-1.38,10.17-2.32,2.76-.81,5.7-1.21,8.48-1.96,4.97-1.48,10.11-2.95,14.41-5.94,7.37-5.03,9-7.99,18.65-6.39,2.21.3,4.55.55,6.78.34,1.07-.1,2.32-.4,3.39-.43,1.7-.04,3.5.37,5.09.96,3.77,1.38,7.1,3.95,11.02,4.93,3.67.46,7.44.41,11.02,1.53,3.46.83,6.71,2.52,10.17,3.33,3.05.59,6.25.3,9.33.11,3.65-.25,7.36-.5,11.02-.56,4.52-.23,9.03-1.12,13.57-1.14,2.23-.07,4.55.27,6.78.3,3.09,0,6.24-.33,9.32-.34"/><path class="b" d="M10.8,185.89c2.98,1.08,6.24,1.24,9.33,1.83,3.92.66,7.88,1.65,11.87,1.78,3.13.06,6.26-.69,9.33-1.23,3.1-.61,6.33-1.06,9.33-2.08,5.74-2.12,10.95-5.54,16.11-8.77,5.81-3.73,9.04-5.34,16.11-5.03,2.23.04,4.55.15,6.78.13,2.24-.05,4.6-.23,6.78.4,5.98,1.51,10.78,6.14,16.96,7.02,4.21.82,8.53,1.32,12.72,2.26,1.95.46,3.96,1.17,5.93,1.5,1.93.27,4.01.1,5.94-.19,3.38-.53,6.77-1.38,10.17-1.77,4.21-.25,8.5,0,12.72-.2,3.37-.14,6.8-.11,10.17-.11,3.36-.17,6.81-.64,10.17-.23"/><path class="b" d="M10.8,181.11c2.81.49,5.76.65,8.48,1.55,3.97,1.18,7.77,3.15,11.87,3.9,2.79.48,5.68-.09,8.48-.25,3.72-.32,7.56-.75,11.02-2.24,4.68-2.03,8.41-5.74,12.72-8.4,6.08-3.94,13.24-5.82,20.35-6.79,13.03-2.24,18.68,3.65,29.67,7.99,4.06,1.49,8.45,1.64,12.72,1.96,2.27.22,4.53,1.03,6.78,1.35,5.45.61,10.74-1.51,16.11-2.08,3.08-.17,6.24.22,9.33.23,2.81.05,5.69-.19,8.48-.46,4.8-.16,9.62-1.95,14.41-.84"/><path class="b" d="M10.8,176.42c3.19.1,6.47.43,9.33,1.96,4.9,2.25,9.54,6.46,15.26,5.81,5.14-.1,10.56.11,15.26-2.32,4.51-2.18,7.75-6.28,11.87-9.04,3.5-2.61,7.73-3.27,11.87-4.2,3.72-.89,7.36-2.28,11.02-3.38,4.29-1.4,7.73-.19,11.87.95,3.48.97,6.93,2.27,10.17,3.87,2.54,1.2,4.98,2.84,7.63,3.83,1.87.7,3.94,1.16,5.94,1.29,1.94.13,4-.11,5.93.08,3.13.25,6.17,1.51,9.33,1.61,4.25.31,8.51-.49,12.72-.93,2.8-.18,5.68.21,8.48.22,4.58.07,9.11-1.06,13.56-2,3.27-.96,6.79-1.96,10.17-.94"/><path class="b" d="M10.8,171.74c6.09.1,8.7,1.7,13.56,5.05,3.76,2.57,7.11,4.84,11.87,4.37,4.58.17,9.35.17,13.56-1.9,4.63-1.99,7.86-6.1,11.87-8.99,4.28-3.26,7.77-3.18,12.72-4.11,4.12-.88,7.93-2.85,11.87-4.28,1.59-.52,3.42-.81,5.09-.54,1.95.44,3.99.99,5.93,1.42,3.15.74,6.35,1.62,9.33,2.9,2.34.95,4.57,2.37,6.78,3.56,2.6,1.35,5.54,2.25,8.48,2.32,2.23,0,4.57-.23,6.78.13,4.22.81,8.39,2.2,12.72,2.41,4.51.32,9.06-.36,13.56.08,5.51.44,10.88-1.25,16.11-2.77,3.22-1.19,6.71-2.57,10.17-1.61"/><path class="b" d="M10.8,166.78c2.58.55,5.36.89,7.63,2.32,5.53,3.06,10.12,9.29,16.96,9.01,2.8.04,5.7.2,8.48-.2,2.01-.29,4.06-1,5.93-1.78,5.5-2.24,9.28-7.22,14.41-10.06,3.35-2.01,7.32-2.44,11.02-3.41,3.74-.93,7.36-2.43,11.02-3.61,3.62-1.21,7.38,0,11.02.44,3.47.48,6.98,1.33,10.17,2.8,2.62,1.15,5.04,2.88,7.63,4.08,2.1.98,4.46,1.68,6.78,1.77,1.94.03,3.99-.23,5.94-.08,4.58.38,9.01,2.02,13.56,2.63,3.34.6,6.8.51,10.17.63,3.36.24,6.84.56,10.17-.11,3.14-.65,6.25-1.74,9.33-2.65,3.22-1.17,6.74-2.29,10.17-1.4"/><path class="b" d="M10.8,162.17c2.24.94,4.74,1.58,6.78,2.94,5.45,3.48,9.99,9.88,16.96,10.06,2.8,0,5.69.07,8.48-.3,2.31-.29,4.61-1.07,6.78-1.87,5.96-2.22,10.53-6.98,16.11-9.9,6.31-3.37,13.42-4.97,20.35-6.54,2.78-.55,5.68-.21,8.48-.18,3.41-.05,6.95.12,10.17,1.35,4.79,1.69,8.72,5.29,13.57,6.84,3.85,1.33,7.93-.21,11.87.33,5.96.76,11.81,2.46,17.8,2.97,4.78.24,9.67,1.38,14.41.19,6.09-1.53,12.25-4.72,18.65-3.05"/><path class="b" d="M10.8,158.42c2.21,1.3,4.72,2.32,6.78,3.86,3.85,2.9,7.31,6.62,11.87,8.44,2.67,1.13,5.65.93,8.48.78,4.65-.13,9.22-1.27,13.56-2.87,4.37-1.81,8.58-4.13,12.72-6.41,3.61-2,7.18-4.26,11.02-5.8,4.05-1.48,8.44-2.09,12.72-2.4,1.94-.07,4.01-.05,5.93-.33,2.77-.42,5.7-.86,8.48-.24,6.81,1.44,11.68,7.74,18.65,8.65,3.11.2,6.21-.99,9.33-.76,3.1.27,6.27.6,9.32,1.21,3.37.67,6.76,1.61,10.17,2.01,4.19.58,8.52,1.53,12.72.48,7.74-2.14,10.01-3.96,18.65-2.18"/><path class="b" d="M10.8,155.4c2.19,1.49,4.65,2.77,6.78,4.35,2.96,2.24,5.86,4.8,9.33,6.23,3.46,1.5,7.35,1.28,11.02.9,4.61-.37,9.14-1.54,13.56-2.83,5.31-2.07,11.12-2.9,16.11-5.76,2.57-1.35,5.02-3.13,7.63-4.4,4.74-2.23,10.12-2.47,15.26-2.82,4.63-.55,8.85-2.97,13.56-1.11,6.33,2.22,12.5,9.65,19.5,8.35,1.93-.36,3.97-.83,5.93-.9,3.1.13,6.29.49,9.33,1.12,3.7.8,7.29,2.27,11.02,2.95,3.88.75,7.91,1.74,11.87.98,2.59-.47,5.13-1.5,7.63-2.3,3.84-1.19,7.96-.38,11.87,0"/><path class="b" d="M10.8,152.72c2.18,1.45,4.58,2.74,6.78,4.15,2.64,1.75,5.4,3.61,8.48,4.48,3.29.95,6.81.57,10.17.26,5.16-.52,10.24-1.72,15.26-2.98,1.37-.35,2.83-.97,4.24-1.18,1.64-.26,3.43-.32,5.09-.45,3.24-.21,6.48-1.12,9.33-2.67,1.98-1.04,3.91-2.44,5.93-3.4,2.39-1.17,5.04-1.96,7.63-2.51,3.64-.88,7.52-.94,11.02-2.38,8.55-3.47,12.44.83,19.5,4.85,2.53,1.55,5.43,2.97,8.48,2.74,2.23-.23,4.53-.76,6.78-.66,3.75.41,7.52,1.39,11.02,2.8,3.84,1.65,7.72,3.35,11.87,4.06,3.87.96,8.04,1.18,11.87-.11,2.52-.75,5.01-1.98,7.63-2.39,3.06-.47,6.24-.31,9.32-.46"/><path class="b" d="M10.8,150.51c14.19,6.13,14.34,8.24,30.52,5.47,3.41-.59,6.82-1.52,10.17-2.34,1.36-.35,2.83-.96,4.24-1.09,2.51-.24,5.11.2,7.63.15,6.47.13,10.6-4.17,16.11-6.64,3.74-1.75,7.84-2.61,11.87-3.37,2.51-.62,5.04-1.6,7.63-1.86,3.53-.43,7.04.78,10.17,2.31,3.08,1.36,6.14,2.98,9.33,4.08,3.25,1.21,6.84.6,10.17,1.35,5.24,1.46,10.31,3.63,15.26,5.87,2.95,1.38,6.17,2.32,9.33,3.1,4.15,1.14,8.63,1.08,12.72-.33,4.95-1.79,10.22-2.51,15.26-3.97"/><path class="b" d="M10.8,148.36c8.06.72,15.49,5.49,23.74,4.52,3.97-.38,8-.91,11.87-1.92,1.65-.44,3.44-.87,5.09-1.35,1.36-.38,2.82-1,4.24-1.12,3.93-.3,7.97.89,11.87-.06,5.11-1.12,8.87-5.2,13.56-7.28,2.9-1.41,6.14-2.1,9.33-2.52,3.88-.84,7.9-1.39,11.87-.92,4.28.44,8.52,1.54,12.72,2.47,3.65.97,7.47,1.65,11.02,2.94,2.66,1.09,5.05,2.91,7.63,4.17,3,1.47,6.2,2.68,9.33,3.85,5.5,1.83,11.05,4.36,16.96,4.28,2.86,0,5.72-.75,8.48-1.45,4.38-.88,8.72-2.17,12.72-4.19"/><path class="b" d="M10.8,145.8c7.51-1.47,12.56,1.25,19.5,3.06,1.92.48,3.99.36,5.93.15,1.95-.15,4-.32,5.93-.6,2.85-.4,5.71-1.15,8.48-1.93,1.94-.53,3.9-1.43,5.93-1.53,4.23-.21,8.66.57,12.72-1,4.39-1.56,7.7-5.15,11.87-7.12,3.92-2,8.46-1.86,12.72-2.42,3.94-.07,7.92.63,11.87.35,5.34-.17,11-1.19,16.11.82,3.71,1.28,6.47,4.28,9.33,6.82,2.9,2.52,6.51,4.2,10.17,5.28,2.5.77,5.14,1.37,7.63,2.17,2.68,1.08,5.57,1.93,8.48,1.96,3.41.11,6.85-.56,10.17-1.24,2.23-.38,4.6-.55,6.78-1.15,2.33-.61,4.64-1.63,6.78-2.72"/><path class="b" d="M10.8,142.71c8.08-2.9,12.03-.82,19.5,1.91,1.9.68,3.97.57,5.93.37,1.94-.11,4-.16,5.93-.34,2.84-.25,5.72-.84,8.48-1.58,1.94-.51,3.92-1.37,5.93-1.54,4.54-.36,9.32.07,13.56-1.91,5.27-2.29,9.28-7.39,15.26-8,1.64-.22,3.43-.2,5.09-.25,1.65-.12,3.43-.38,5.09-.16,2.22.23,4.55.53,6.78.32,2.29-.19,4.59-.92,6.78-1.58,2.76-.66,5.63-1.47,8.48-1.53,9.85.6,11.47,12.33,22.04,15.85,2.72,1.02,5.68,1.56,8.48,2.32,1.38.39,2.83,1.12,4.24,1.4,1.91.4,4.01.32,5.93,0,3.4-.51,6.76-1.62,10.17-2.07,4.3-.1,8.69-.3,12.72-1.98"/><path class="b" d="M10.8,139.21c4.73-1.68,9.54-2.43,14.41-.86,2.22.62,4.49,1.51,6.78,1.84,1.94.25,3.99-.25,5.93-.25,5.12-.12,10.32-.52,15.26-1.96,2.71-.89,5.67-.63,8.48-.54,6.26.37,10.38-1.51,15.26-5.2,4.11-3.01,7.69-3.93,12.72-4.01,1.37-.04,2.87-.41,4.24-.5,1.94-.08,4,.09,5.93-.04,4.48-.15,8.4-2.72,12.72-3.58,8.37-2.89,12.35,1.87,16.96,8.08,2.75,3.63,6.12,7,10.17,9.15,3.42,1.9,7.36,2.66,11.02,3.94,2.81.84,5.82,0,8.48-1,2.77-1,5.59-2.2,8.48-2.79,2.21-.37,4.56.04,6.78.16,2.23.16,4.58.08,6.78-.3"/><path class="b" d="M10.8,135.02c5.67-1.63,10.48-1.14,16.11.26,1.64.35,3.41.7,5.09.73,1.39.04,2.88-.3,4.24-.52,4.22-.66,8.51-1.22,12.72-1.93,3.08-.46,6.18-1.5,9.33-1.08,3.09.29,6.21,1.04,9.33.95,3.74.03,7.06-1.93,10.17-3.77,2.65-1.55,5.51-2.89,8.48-3.7,2.52-.69,5.1-1.52,7.63-2.19,2.78-.55,5.7-.63,8.48-1.2,3.96-.85,7.83-2.26,11.87-2.74,7.43-1.53,11.88,3.47,16.11,8.72,3.37,3.86,6.85,7.83,11.02,10.85,3.18,2.23,7.08,3.98,11.02,3.86,3.06-.35,5.8-2.08,8.48-3.47,2.93-1.39,5.98-3.2,9.33-3.15,3.73.18,7.32,1.63,11.02,2.04"/><path class="b" d="M10.8,130.86c1.93-.24,3.99-.41,5.93-.15,3.4.43,6.76,1.51,10.17,1.87,6.14.85,11.88-2.14,17.8-3.24,2.21-.47,4.54-.79,6.78-1.05,2.5-.36,5.12-.56,7.63-.17,3.96.49,7.85,1.95,11.87,1.88,3.25-.19,6.38-1.51,9.33-2.8,4.08-1.8,7.96-4.14,11.87-6.28,6.43-3.21,15.73-3.94,22.89-3.91,13.02.17,18.93,13.67,27.98,20.82,5.14,4.09,10.02,2.8,15.26-.3,3.75-1.96,7.6-4.32,11.87-4.84,3.88-.11,7.43,1.92,11.02,3.11"/><path class="b" d="M10.8,127.37c3.81-.17,7.42,1.19,11.02,2.2,7.7,2.26,14.74-2.71,22.04-4.3,2.75-.64,5.66-.74,8.48-.76,2.51-.04,5.12-.2,7.63.04,4.04.29,7.89,1.85,11.87,2.43,10.28,1.09,13.74-3.78,21.19-9.18,6.9-4.78,12.33-4.81,20.35-3.67,2.6.49,5.18,1.46,7.63,2.45,4.04,1.46,7.82,3.72,11.02,6.59,3.83,3.52,6.89,7.96,11.02,11.16,3.32,2.63,6.29,2.61,10.17,1.25,3.68-1.23,7.28-2.84,11.02-3.89,7.8-2.87,9.37-2.25,16.96.9"/><path class="b" d="M10.8,124.88c3.5.24,6.82,1.54,10.17,2.41,4.12,1.08,8.22-.49,11.87-2.33,2.72-1.21,5.57-2.4,8.48-3.09,3.89-1,7.94-.38,11.87-.06,2.81.14,5.67-.45,8.48-.38,4.37,0,8.48,1.82,12.72,2.67,6.61,1.9,10.75-.94,15.26-5.45,3.33-3.02,6.88-6.13,11.02-7.97,2.92-1.27,6.24-1.18,9.33-.65,4.75.27,8.58,3.42,12.72,5.4,3.18,1.5,6.44,3.08,9.33,5.11,3.27,2.47,6.07,5.66,9.33,8.15,6.18,4.79,8.58,1.82,15.26,1.12,3.64-.57,7.43-.27,11.02-1.15,4.94-1.71,8.73-.87,13.56.72"/><path class="b" d="M10.8,122.97c10.79,1.6,12.09,3.27,22.04-2.65,3.87-2.04,8.36-3.07,12.72-2.4,3.09.4,6.18,1.49,9.33,1.31,2.25-.18,4.54-.77,6.78-.96,2.54-.25,5.18.07,7.63.74,4.68,1.04,9.63,3.91,14.41,1.86,2.94-1.22,5.25-3.64,7.63-5.67,5.21-4.2,10.55-9.84,17.8-9.38,1.37.05,2.93.05,4.24.51,3.41,1.29,6.24,3.84,9.32,5.72,4.81,2.96,10,5.38,14.41,8.96,3.44,2.49,7.39,5.37,11.87,4.72,2.2-.47,4.53-.77,6.78-.57,3.69.14,7.32,1.42,11.02,1.26,1.96-.09,3.96-.8,5.93-.83,2.83-.12,5.72.45,8.48,1.04"/><path class="b" d="M10.8,120.89c2.22.33,4.55.18,6.78.07,3.49-.08,7-.86,10.17-2.33,3.8-1.73,7.57-4.08,11.87-4.18,4.58-.31,9.02,1.41,13.56,1.5,2.29,0,4.56-.8,6.78-1.26,2.19-.48,4.56-.62,6.78-.24,3.74.69,7.33,2.18,11.02,3.07,3.92,1.04,7.92-.48,11.02-2.89,2.19-1.65,4.58-3.24,6.78-4.89,4.95-3.71,10.48-7.8,16.96-7.63,2.14.24,4.15,1.41,5.94,2.56,3.06,2.05,6.13,4.24,9.33,6.08,2.19,1.26,4.61,2.31,6.78,3.61,4.66,2.65,9.65,5.96,15.26,5.18,5.63-.79,10.71,2.62,16.11,3.46,2.23.36,4.55-.3,6.78-.33,2.83-.09,5.73.4,8.48,1.05"/><path class="b" d="M10.8,118.11c3.49-.02,6.8-1.51,10.17-2.23,3.09-.78,6.25-1.59,9.33-2.44,2.22-.57,4.48-1.47,6.78-1.65,6.19-.41,12.56,1.78,18.65-.1,4.79-1.7,8.64-2.52,13.56-.67,7.98,2.75,12.79,4.05,20.35-.72,4.52-2.44,9.19-4.7,13.56-7.41,5.86-3.32,9.59-6.02,16.11-2.15,4.46,2.59,8.7,5.7,13.57,7.51,3.92,1.76,7.73,3.98,11.87,5.2,2.16.71,4.54.63,6.78.77,1.71.23,3.49.85,5.09,1.5,2.53,1.01,5.04,2.32,7.63,3.18,2.71,1.01,5.67.62,8.48.51,2.85-.06,5.76.47,8.48,1.31"/><path class="b" d="M10.8,114.43c2.07-.43,4.05-1.47,5.93-2.37,2.13-.99,4.46-1.79,6.78-2.13,2.78-.44,5.68-.21,8.48-.28,1.37-.02,2.87-.36,4.24-.36,3.38.05,6.79.81,10.17.61,2.87-.15,5.77-.85,8.48-1.8,2.7-1.08,5.5-2.43,8.48-2.35,2.97.03,5.73,1.41,8.48,2.35,4.41,1.42,9.29,1.25,13.56-.55,2.24-.88,4.48-2.07,6.78-2.8,3.41-.96,7-1.62,10.17-3.26,6.4-3.15,10.15-8.16,17.8-4.43,2.61,1.19,5.08,2.85,7.63,4.17,1.57.85,3.43,1.4,5.09,2.05,4.33,1.69,8.34,4.22,12.72,5.79,2.14.84,4.58.83,6.78,1.43,3.52,1.09,6.77,3.02,10.17,4.4,1.58.65,3.38,1.2,5.09,1.4,1.64.19,3.44.03,5.09.02,2.86-.06,5.79.44,8.48,1.42"/><path class="b" d="M10.8,109.88c7.29-3.54,9.93-6.91,18.65-4.23,1.34.36,2.84.76,4.24.84,1.68-.06,3.46.26,5.09.64,4.29,1.14,8.61,1.19,12.72-.63,3.47-1.18,6.54-3.58,10.17-4.27,6.72-.99,9.74,4.19,17.8,2.32,4.42-.82,8.32-3.45,12.72-4.3,1.93-.3,4-.2,5.93-.38,2.69-.21,5.34-1.21,7.63-2.61,6.35-4.2,9.48-6.51,16.95-2.56,1.93,1.02,3.92,2.22,5.94,3.07,1.6.68,3.47.99,5.09,1.65,3.24,1.24,6.28,3.09,9.33,4.74,1.59.85,3.35,1.71,5.09,2.22,1.34.4,2.92.6,4.24,1.1,3.19,1.18,6.2,2.97,9.32,4.29,2.39,1.04,5.02,1.84,7.63,1.97,3.96.02,8.05-.4,11.87.96"/><path class="b" d="M10.8,104.75c6.96-3.58,10.71-6.37,18.65-3.17,1.88.74,3.93,1.27,5.93,1.53,1.41.34,2.9.98,4.24,1.52,3.85,1.74,7.94,2.33,11.87.47,4.36-1.69,7.87-5.6,12.72-5.96,2.89-.25,5.68.95,8.48,1.43,6.6,1.03,12.42-3.02,18.65-4.3,2.21-.35,4.56-.02,6.78-.13,2.34-.08,4.73-.78,6.78-1.9,7.67-4.63,9.87-7.35,18.65-2.12,1.86,1.11,3.86,2.3,5.93,2.97,2.26.54,4.65,1.02,6.78,1.98,3.48,1.45,6.73,3.54,10.17,5.07,2.46,1.08,5.27,1.48,7.63,2.81,5.6,2.88,11.21,7.01,17.8,6.64,3.08-.2,6.26-.51,9.32-.01"/><path class="b" d="M10.8,99.07c7.22-2.85,12.09-3.52,19.5-.88,1.91.7,4.06.94,5.93,1.71,5.93,2.95,10.14,7.23,16.96,3.3,3.41-1.95,6.39-4.86,10.17-6.13,3.26-1.21,6.8-.55,10.17-.74,3.47-.32,6.84-1.52,10.17-2.46,2.74-.81,5.61-1.52,8.48-1.59,3.39.01,6.95.37,10.17-.93,2.7-1,5.13-2.78,7.63-4.18,5.39-3.17,10.49-.77,15.26,2.26,1.31.75,2.81,1.53,4.24,2.03,2.52.7,5.19,1.23,7.63,2.19,3.16,1.15,6.24,2.7,9.33,4.04,2.22.96,4.66,1.67,6.78,2.83,6,3.15,11.7,7.78,18.65,8.43,3.08.13,6.24-.27,9.32-.21"/><path class="b" d="M10.8,93.19c5.09-.99,10.29.06,15.26,1.21,3.35.91,6.95,1.35,10.17,2.68,7.5,4.22,11.13,9.01,19.5,2.65,7.1-5.13,9.57-5.51,17.8-7.26,9.26-3.28,11.1-4.18,21.19-3.62,4.22.25,8.3-1.22,11.87-3.38,4.94-3.21,10.73-4.09,16.11-1.36,2.5,1.22,5,2.7,7.63,3.64,4.78,1.52,9.74,2.65,14.41,4.51,4.44,1.59,8.64,3.85,12.72,6.21,4.67,2.5,9.3,5.44,14.41,6.91,3.04.65,6.25.46,9.32.23"/><path class="b" d="M10.8,87.58c6.08.08,11.14,4.08,16.96,5.33,2.78.75,5.82.93,8.48,2.1,3.39,1.55,6.45,4.12,10.17,4.85,4.86.99,8.63-2.85,12.72-4.76,4.56-2.44,9.72-3.49,14.41-5.6,4.21-2.22,8.63-4.75,13.56-4.29,2.23.15,4.54.55,6.78.57,3.17.14,6.42-.46,9.33-1.76,2.25-.96,4.47-2.28,6.78-3.09,4.1-1.03,8.61-1.73,12.72-.36,3.47,1.17,6.71,3.09,10.17,4.28,3.86,1.28,7.99,1.8,11.87,3.01,2.68.74,5.22,2.09,7.63,3.44,2.19,1.14,4.54,2.23,6.78,3.27,4.05,1.77,7.97,3.94,11.87,6,3.16,1.42,6.78,1.62,10.17,1.18"/><path class="b" d="M10.8,82.14c6.21.78,10.43,6.12,16.11,8.24,2.99,1.25,6.34,1.53,9.33,2.77,3.55,1.46,7.06,3.74,11.02,3.67,2.77-.01,5.32-1.33,7.63-2.72,2.12-1.12,4.48-1.96,6.78-2.63,3.41-1,6.98-1.83,10.17-3.44,3.45-1.75,6.42-4.58,10.17-5.71,3.03-1,6.26-.37,9.33.07,2.22.2,4.57.24,6.78-.08,3.88-.52,7.38-2.48,11.02-3.76,1.88-.62,4.01-.68,5.93-1.12,3.65-.82,7.53-.75,11.02.69,2.87,1,5.53,2.75,8.48,3.55,3.89,1.12,8.04,1.43,11.87,2.8,2.41.76,4.51,2.39,6.78,3.44,3.28,1.55,6.84,2.59,10.17,3.99,6.97,2.9,9.23,6.92,17.8,5.37"/><path class="b" d="M10.8,77.6c6.77,1.06,11.02,7.19,16.96,10.05,2.96,1.55,6.29,2.42,9.33,3.8,4.43,2.05,8.86,3.37,13.56,1.31,2.28-.91,4.39-2.45,6.78-3.08,3.87-1.15,8.04-1.18,11.87-2.5,5.33-1.7,8.89-6.85,14.41-8.14,2.49-.61,5.12-.21,7.63.04,2.8.16,5.71.23,8.48-.3,3.5-.62,6.76-2.3,10.17-3.24,4.21-.56,8.44-2.11,12.72-1.53,4.24.53,7.85,3.09,11.87,4.29,4.18,1.2,8.66,1.45,12.72,3.08,2.34.92,4.42,2.61,6.78,3.52,3.29,1.4,6.86,2.27,10.17,3.6,6.93,2.91,8.44,6.26,16.96,3.88"/><path class="b" d="M10.8,74.18c5.58,1.13,9.98,4.8,14.41,8.13,4.67,3.37,9.75,6.49,15.26,8.24,3.78,1.15,7.68-.2,11.02-1.99,1.85-.99,3.82-2.07,5.93-2.34,2.78-.42,5.68-.11,8.48-.32,5.06-.18,8.19-3.11,11.87-6.11,6.8-5.56,10.8-3.36,18.65-3.69,3.49-.05,6.93-1,10.17-2.23,2.42-1.02,5.09-1.43,7.63-2.02,2.74-.72,5.62-1.5,8.48-1.2,4.26.31,7.85,2.94,11.87,4.07,4.16,1.14,8.63,1.04,12.72,2.47,2.37.83,4.44,2.51,6.78,3.42,3.03,1.31,6.27,2.3,9.33,3.55,6.89,2.78,9.64,7.12,17.8,3.89"/><path class="b" d="M10.8,71.36c3.74,1.17,7.69,2.04,11.02,4.22,7,3.87,16.07,15.03,24.59,12.01,4.91-1.74,7.93-4.96,13.56-4.38,12.04,1.17,11.67-1.79,20.35-8.09,3.27-2.33,7.17-2.46,11.02-2.28,2.8-.12,5.7-.03,8.48-.49,2.61-.42,5.18-1.37,7.63-2.32,2.15-.93,4.56-1.32,6.78-1.99,3.52-1.18,7.34-2.15,11.02-1.11,3.25.74,6.11,2.76,9.32,3.61,3.86,1.1,7.98.98,11.87,1.93,2.44.51,4.53,2.11,6.78,3.09,2.76,1.22,5.7,2.24,8.48,3.41,2.61,1.07,5.2,2.43,7.63,3.86,3.63,2.34,7.77,3.31,11.87,1.49"/><path class="b" d="M10.8,68.75c3.84,1.38,8.18.98,11.87,2.87,7.64,3.29,15.58,16.02,24.59,12.9,2.6-.82,5.01-2.37,7.63-3.14,5.78-1.32,11.6.61,16.96-3.02,4.64-3.2,8.4-8.53,14.41-9.08,4.79-.32,9.7-.1,14.41-1.16,2.92-.68,5.71-2.03,8.48-3.15,1.32-.54,2.89-.87,4.24-1.31,1.64-.54,3.4-1.19,5.09-1.57,4.73-1.28,9.4.79,13.56,2.87,2.4,1.05,5.05,1.73,7.63,2.16,3.41.6,7.05.82,10.17,2.43,3.7,2.1,7.95,3.1,11.87,4.71,2.93,1.13,5.77,2.69,8.48,4.26,3.24,2.06,7.19,3.8,11.02,2.38"/><path class="b" d="M10.8,66.15c2.46.75,5.09.66,7.63.67,2.01.05,4.12.5,5.93,1.38,2.84,1.37,5.27,3.58,7.63,5.62,1.6,1.39,3.45,2.72,5.09,4.06,2.85,2.29,6.33,4.69,10.17,3.99,3.2-.48,6.13-2.19,9.33-2.69,5.75-.82,11.43-1.47,16.11-5.29,3.97-3.13,7.47-7.63,12.72-8.54,2.49-.43,5.13-.17,7.63-.56,4.37-.28,8.77-1.08,12.72-3.05,2.43-1.2,5.02-2.22,7.63-2.94,2.71-.94,5.56-1.98,8.48-1.86,4.9.17,9.06,3.22,13.57,4.81,3.83,1.5,7.95,2.25,11.87,3.48,1.73.51,3.39,1.58,5.09,2.17,2.45.86,5.12,1.33,7.63,1.99,3.56.85,7.02,2.3,10.17,4.15,3.28,2.07,6.94,4.62,11.02,3.66"/><path class="b" d="M10.8,63.64c2.8.32,5.67.03,8.48.06,2.36.07,4.75.8,6.78,1.98,2.09,1.2,4.05,2.82,5.93,4.31,1.61,1.27,3.49,2.44,5.09,3.72,3.74,3,7.68,5.68,12.72,4.66,1.97-.31,3.98-.97,5.93-1.35,2.24-.43,4.59-.81,6.78-1.43,6.67-1.77,11.15-5.98,16.11-10.44,2.61-2.26,5.84-3.9,9.33-4.16,1.95-.17,4-.43,5.93-.76,2.54-.32,5.18-.64,7.63-1.4,2.6-.78,5.13-2.02,7.63-3.07,2.73-1.02,5.62-1.91,8.48-2.5,4.44-.92,8.79.89,12.72,2.77,4.19,1.85,8.43,3.71,12.72,5.33,1.65.64,3.45,1.33,5.09,2.02,1.36.58,2.81,1.45,4.24,1.86,3.28.96,6.81.85,10.17,1.25,2.63.29,5.29,1.11,7.63,2.34,3.36,1.9,6.97,4.26,11.02,3.57"/><path class="b" d="M10.8,61.87c4.76-.65,9.96-1.42,14.41.85,2.7,1.3,5.12,3.26,7.63,4.88,2.83,1.59,5.63,3.39,8.48,4.94,3.85,2.16,8.43,2.41,12.72,1.78,4.37-.36,8.83-1.04,12.72-3.19,5.04-2.54,9.11-6.59,13.56-9.96,2.72-2.07,6.03-3.27,9.33-4.05,3.31-1.02,6.76-1.68,10.17-2.27,9.97-1.99,15.78-8.04,26.28-2.83,3.8,1.85,7.97,2.89,11.87,4.5,4.66,1.83,9.05,4.39,13.56,6.53,4.04,1.62,8.5.84,12.72.62,6.27-.4,10.49,4.23,16.96,3.27"/><path class="b" d="M10.8,60.95c4.36-1.32,9.27-1.73,13.56.05,2.98,1.2,5.65,3.18,8.48,4.67,5.39,2.38,11.05,4.48,16.96,5.06,3.91.37,8.01.67,11.87-.23,7.4-2.08,13.12-7.71,19.5-11.74,2.37-1.55,5.04-2.78,7.63-3.9,1.94-.8,3.91-1.85,5.93-2.42,3.89-1.05,8-1.34,11.87-2.46,2.27-.57,4.52-1.55,6.78-2.12,5.08-1.3,9.89,1.37,14.41,3.31,2.66,1.15,5.68,1.24,8.48,1.88,3.28.69,6.43,2.11,9.33,3.77,4.52,2.67,8.93,5.26,14.41,4.5,2.24-.24,4.53-.89,6.78-1.09,2.26-.23,4.57.45,6.78.82,2.48.46,5.11.64,7.63.43"/><path class="b" d="M10.8,60.45c4.98-1.61,10.54-1.63,15.26.8,2.82,1.29,5.48,3.14,8.48,4,4.71,1.17,9.63,1.33,14.41,2.08,6.31,1.1,11.99,2.17,17.8-1.34,6.63-4.11,13.33-8.2,20.35-11.64,2.26-1.13,4.48-2.59,6.78-3.64,1.58-.66,3.39-1.09,5.09-1.36,3.09-.48,6.29-.69,9.33-1.47,1.69-.38,3.4-1.18,5.09-1.59,1.63-.37,3.45-.38,5.09-.09,4.37.73,8.23,3.61,12.72,3.77,9.2-.47,10.76.47,18.65,4.96,7.44,3.98,9.96,3.37,17.8,1.44,4.49-.47,9.06.37,13.56.25"/><path class="b" d="M10.8,59.72c5.86-1.22,10.61-1.44,16.11,1.27,2.49,1.11,4.96,2.59,7.63,3.23,4.45.83,9.08.39,13.56,1,5.01.77,10.37,2.3,15.26.16,3.64-1.49,6.75-4.11,10.17-6,3.26-1.75,6.8-3.08,10.17-4.6,2.3-.98,4.64-2.14,6.78-3.42,2.32-1.51,4.88-2.81,7.63-3.28,3.35-.66,6.85-.73,10.17-1.53,1.71-.36,3.42-1.18,5.09-1.65,2.46-.68,5.15-.62,7.63-.07,2.81.61,5.6,1.74,8.48,2.02,1.96.19,4.01-.26,5.94-.53,5.15-.96,9.22,1.14,13.56,3.59,4.47,2.28,9.23,5.01,14.41,3.57,1.94-.44,3.95-1.18,5.94-1.43,3.95-.4,7.95.23,11.87.67"/><path class="b" d="M10.8,58.08c5.64-.58,9.84-1.41,15.26,1.09,2.82,1.18,5.51,2.91,8.48,3.69,4.43.95,9.06.74,13.56,1.07,3.64.34,7.4,1.11,11.02.23,4.46-1.03,8.1-4.07,11.87-6.49,2.33-1.54,5-2.66,7.63-3.57,3.09-1.11,6.32-2.07,9.33-3.39,2.57-1.07,4.93-2.82,7.63-3.57,3.85-1.1,7.97-.99,11.87-1.84,2.01-.37,4-1.24,5.94-1.87,4.13-1.36,8.54-.75,12.72.08,1.92.31,3.99.52,5.93.28,2.5-.31,5.1-.85,7.63-.53,2.69.3,5.24,1.52,7.63,2.71,1.89.95,3.99,1.76,5.93,2.6,8.64,3.71,10.97-.07,18.65-.34,3.12,0,6.27.65,9.32,1.2"/><path class="b" d="M10.8,55.79c2.24,0,4.55-.45,6.78-.52,2.28-.09,4.66.31,6.78,1.15,2.94,1.13,5.62,2.98,8.48,4.28,1.84.81,3.94,1.21,5.93,1.43,3.36.41,6.8.19,10.17,0,2.81-.1,5.75.11,8.48-.72,6.78-2.01,11.91-7.49,18.65-9.6,5.66-1.97,11.5-3.55,16.96-6.06,3.52-1.23,7.37-.96,11.02-1.39,4.95-.33,9.43-3.07,14.41-3.15,3.39-.18,6.79.64,10.17.74,3.38.14,6.8-.77,10.17-.3,3.27.38,6.29,1.94,9.33,3.11,3.56,1.14,7.27,2.3,11.02,2.51,3.74.23,7.37-1.12,11.02-1.67,3.64-.51,7.4-.19,11.02.3"/><path class="b" d="M10.8,53.02c2.53.05,5.1-.52,7.63-.52,2.01,0,4.1.45,5.93,1.25,3.28,1.38,6.1,3.77,9.33,5.24,7.46,2.95,12.12,1.32,19.5.17,5.97-.96,10.73-5.2,16.11-7.66,4.12-1.86,8.54-3.12,12.72-4.85,2.21-.86,4.55-1.68,6.78-2.48,1.9-.66,3.92-1.42,5.93-1.58,3.65-.26,7.41.12,11.02-.64,3.42-.61,6.67-2.24,10.17-2.45,5.39-.45,10.71,1.53,16.11.81,3.12-.26,6.35.06,9.33,1.06,3.59,1.26,7.15,2.84,11.02,2.98,3.92.45,7.95.71,11.87.14,5.63-.86,11.22-2.47,16.96-2.34"/><path class="b" d="M10.8,49.99c2.53.08,5.11-.51,7.63-.58,2.01-.05,4.11.4,5.93,1.23,3.61,1.58,6.54,4.5,10.17,6.03,7.76,3.15,11.14,1.52,18.65-.49,4.62-1.19,8.42-4.41,12.72-6.35,3.48-1.77,7.46-2.3,11.02-3.84,6.27-2.64,12.37-7.1,19.5-6.4,3.1.18,6.31.14,9.33-.69,3.08-.77,6.09-2.27,9.32-2.25,3.74-.07,7.37,1.16,11.02,1.75,2.5.46,5.11.03,7.63.09,5.36.06,10.04,3.25,15.26,3.95,2.51.13,5.12-.05,7.63-.04,3.37-.03,6.83,0,10.17-.52,4.9-.67,9.49-2.92,14.41-3.5"/><path class="b" d="M10.8,46.97c4.23.28,8.58-1.6,12.72.01,3.74,1.27,6.71,4.11,10.17,5.91,8.3,3.8,11.14,3.16,19.5.5,4.57-1.42,8.3-4.75,12.72-6.55,3.51-1.63,7.55-1.79,11.02-3.51,5.03-2.31,9.6-6.21,15.26-6.86,1.94-.13,3.99.08,5.93.09,2.87.06,5.79-.53,8.48-1.51,2.71-.98,5.53-2.18,8.48-1.95,4.05.17,7.88,1.86,11.87,2.4,1.93.31,3.99.02,5.94.03,1.68.05,3.48.37,5.09.83,2.57.74,5.09,1.9,7.63,2.7,2.43.87,5.1.69,7.63.53,2.22-.1,4.56-.11,6.78-.08,3.1.05,6.31-.03,9.33-.81,3.97-1.11,7.78-3,11.87-3.69"/><path class="b" d="M10.8,43.35c4.24.55,8.51-1.54,12.72-.36,3.75.92,6.81,3.51,10.17,5.26,3.72,1.69,7.68,3.6,11.87,3.38,3.43-.42,6.95-1.12,10.17-2.37,3.72-1.62,7.23-3.86,11.02-5.33,3.31-1.39,7.06-1.76,10.17-3.62,4.91-2.67,9.42-7.04,15.26-7.35,2.51,0,5.12.36,7.63.1,5.57-.34,10.4-4.54,16.11-3.62,3.72.4,7.31,1.82,11.02,2.23,3.38.33,6.85-.56,10.17.5,3.81.96,7.2,3.28,11.02,4.2,2.2.43,4.56.21,6.78.32,2.8.04,5.69.14,8.48-.12,6.13-.55,11.64-3.93,17.8-4.4"/><path class="b" d="M10.8,39.1c4.26.52,8.47-1.34,12.72-.74,3.73.51,6.92,2.77,10.17,4.49,3.46,1.69,7.12,3.44,11.02,3.72,4.56-.04,9.21-.82,13.56-2.19,3.45-1.12,6.82-2.64,10.17-4,2.87-1.16,5.98-2.02,8.48-3.93,4.62-3.2,9.21-7.96,15.26-7.61,2.23.19,4.54.68,6.78.67,4.19.13,7.95-2.05,11.87-3.15,4.89-1.05,9.66,1.28,14.41,2.05,3.37.73,6.8-.41,10.17-.08,5.03.41,8.9,4.15,13.56,5.62,2.48.5,5.11.73,7.63.85,5.05.33,9.84-1.56,14.41-3.49,3.23-1.23,6.72-1.92,10.17-2.02"/><path class="b" d="M10.8,35.04c1.95-.06,4.01-.16,5.93-.43,3.05-.55,6.27-1.17,9.33-.35,4.23,1.06,7.76,3.93,11.87,5.31,2.15.76,4.5,1.3,6.78,1.35,1.95,0,3.99-.31,5.93-.43,3.08-.29,6.28-.26,9.33-.86,3.28-.63,6.39-2.08,9.33-3.62,2.26-1.19,4.78-2.19,6.78-3.81,5.94-4.7,10.45-9.51,18.65-6.76,6.3,1.97,9.26.96,15.26-.95,2.2-.6,4.61-.31,6.78.27,4.15,1.1,8.33,2.98,12.72,2.44,1.66-.21,3.42-.72,5.09-.88,6.92-.88,10.72,5.13,16.96,6.21,13.73,3.59,15.38-6.17,29.67-6.45"/><path class="b" d="M10.8,31.84c2.5-.47,5.14-.43,7.63-.95,5.98-1.42,9.99-.33,15.26,2.51,2.58,1.37,5.56,2.03,8.48,2.03,3.12.06,6.21-.91,9.33-.97,2.8-.13,5.68.48,8.48.17,3.41-.33,6.5-2.08,9.33-3.91,1.9-1.28,4.1-2.33,5.93-3.7,4.42-3.41,9.2-7.95,15.26-6.31,2.95.55,5.65,2.12,8.48,3.05,2.43.82,5.12.91,7.63.42,2.2-.4,4.53-1.08,6.78-.66,2.63.46,5.15,1.66,7.63,2.6,3.47,1.43,7.44,2.04,11.02.65,1.89-.64,3.92-1.36,5.94-1.38,3.79-.08,6.95,2.42,10.17,4.08,3.95,1.57,8.52,2.93,12.72,1.58,3.42-1.06,6.19-3.58,9.33-5.22,3.39-1.84,7.2-3,11.02-3.52"/><path class="b" d="M10.8,29.59c3.06-.69,6.28-.69,9.33-1.5,5.28-1.29,9.62.13,14.41,2.25,2.41.91,5.12.89,7.63.48,3.12-.47,6.15-1.77,9.33-1.88,2.52-.12,5.1.56,7.63.37,5.96-.39,10.2-5.21,15.26-7.81,3.8-2.49,7.86-5.89,12.72-5.21,2.32.38,4.65,1.25,6.78,2.23,2.74,1.41,5.43,3.21,8.48,3.88,4.18,1.04,8.71-.88,12.72,1.1,5.04,2.21,10.39,6.11,16.11,3.94,2.51-.95,4.93-2.5,7.63-2.88,3.29-.53,6.38,1.13,9.33,2.34,2.44.8,5.08,1.36,7.63,1.7,5.27.66,9.45-2.79,13.56-5.52,3.67-2.24,7.67-4.09,11.87-5.1"/><path class="b" d="M10.8,27.69c2.23-.21,4.56-.14,6.78-.4,2.79-.37,5.65-.91,8.48-.86,1.96.02,4.01.3,5.93.67,1.92.41,3.96.86,5.93.6,4.06-.4,7.86-2.18,11.87-2.83,2.51-.43,5.11.09,7.63-.06,5.01-.21,8.92-3.74,12.72-6.62,1.53-1.18,3.4-2.07,5.09-2.97,3.31-1.86,7.19-3.32,11.02-2.42,2.6.66,5.15,1.81,7.63,2.8,2.75,1.33,5.48,2.96,8.48,3.67,4.2,1.05,8.91-.15,12.72,2.34,4.95,2.75,9.99,7.82,16.11,6.08,2.59-.85,5-2.43,7.63-3.17,3.04-.97,6.28-.35,9.33.26,2.21.31,4.55.4,6.78.4,5.17-.02,9.56-3.1,13.56-6.03,3.97-2.52,8.2-4.83,12.72-6.19"/><path class="b" d="M10.8,24.85c6.4,1.4,13.04,1.18,19.5.33,2.23-.31,4.6-.32,6.78-.93,3.66-1.03,7.26-2.53,11.02-3.2,3.06-.56,6.26-.1,9.33-.51,5.44-.73,9.31-5.01,13.56-8.03,5.27-3.38,11.04-4.54,16.96-2.13,1.9.78,3.96,1.41,5.93,1.96,2.51.84,5.05,1.86,7.63,2.46,3.33.86,6.91.78,10.17,1.88,4.8,1.87,8.29,6,12.72,8.52,6.54,4.15,10.48.22,16.96-1.21,5.33-1.12,11.04-.64,16.11-2.96,4.02-1.67,7.5-4.42,11.02-6.92,3.98-2.48,8.22-4.74,12.72-6.1"/></svg>