<?xml version="1.0" encoding="UTF-8"?><svg id="a" xmlns="http://www.w3.org/2000/svg" width="1920" height="2400" viewBox="0 0 192 240"><defs><style>.b{fill:none;stroke:#fff;stroke-miterlimit:10;stroke-width:.4px;}.c{stroke-width:0px;}</style></defs><rect class="c" x="0" width="192" height="240"/><path class="b" d="M8.22,232.23h8.73c9.01-6.19,14.23-14.63,25.33-5.72,9.28,7.45,4.7,5.46,16.6,5.72,7.85,0,15.73,0,23.58,0,11.06,0,22.14,0,33.19,0,2.88,0,5.85,0,8.73,0,1.69-.1,3.6.24,5.24-.23,3.1-2.02,6.22-4.23,9.61-5.76,6.44-3.09,13.63-.52,20.09,1.19,5.4,1.45,10.98,2.75,16.6,2.84,2.74-.23,5.37-1.46,7.86-2.55"/><path class="b" d="M8.22,227.49c2,0,4.11,0,6.11,0,1.4-.05,2.99.15,4.37-.17,4.21-2.63,8.07-6.39,13.1-7.35,4.88-.93,9.35,1.95,13.1,4.73,1.09.8,2.37,1.75,3.49,2.51.76.36,1.81.28,2.62.28,6.98,0,13.99,0,20.96,0,12.51,0,25.05,0,37.56,0,3.47,0,7.01,0,10.48,0,1.99-.1,4.17.24,6.11-.2,3.56-2.21,6.92-4.87,10.48-7.09,7.95-5.37,13.89-2.68,21.84.87,5.51,2.42,11.34,4.97,17.47,4.81,2.78-.32,5.38-1.7,7.86-2.91"/><path class="b" d="M8.22,222.74c3.76,0,7.59,0,11.36,0,4.1-1.45,7.9-3.94,12.23-4.75,3.8-.83,7.81-.17,11.36,1.34,2.36.95,4.66,2.28,6.99,3.3,4.33.3,8.76.03,13.1.12,9.02,0,18.06,0,27.08,0,6.98,0,13.99,0,20.96,0,2.29,0,4.69,0,6.99,0,1.72-.05,3.64.25,5.24-.51,6.33-2.38,11.32-7.32,17.47-10.03,7.93-3.31,15.64,3.22,22.71,6.11,3.81,1.67,8.02,3.08,12.23,2.67,2.78-.45,5.37-1.89,7.86-3.13"/><path class="b" d="M8.22,217.7c2.26.51,4.69.23,6.99.3,3.47-.03,7.01.05,10.48-.04,4.9-.96,9.83-2.29,14.85-2.41,4.79-.25,9.36,1.48,13.98,2.44,13.97,0,27.96,0,41.93,0,1.29.21,2.48-.63,3.49-1.29,1.61-.95,3.44-1.84,5.24-2.34,3.08-.96,5.83-.11,8.73.94,4.84,1.65,10.25,1.45,14.85-.84,3.03-1.4,5.88-3.35,8.73-5.07,2.38-1.43,5.03-2.83,7.86-2.95,5.62-.16,10.68,2.87,15.72,4.95,4.64,1.98,9.75,3.73,14.85,2.94,2.73-.56,5.31-1.92,7.86-3"/><path class="b" d="M8.22,212.13c2.92.24,5.78,1.36,8.73,1.13,6.68,0,13.41,0,20.09,0,2.04.04,4.17.09,6.11-.63,2.25-.62,4.67-.73,6.99-.55,2.3.09,4.71.23,6.99.59,1.4.21,2.94.69,4.37.59,10.47-.06,20.98.11,31.44-.06,4.98-4.12,11.49-9.83,18.34-6.72,3.61,1.7,7.3,3.72,11.36,4.01,8.77.71,14.12-6.85,21.84-8.51,5.35-.87,10.62,1.14,15.72,2.48,5.07,1.4,10.5,2.39,15.72,1.31,2.65-.63,5.24-1.78,7.86-2.52"/><path class="b" d="M8.22,207.44c2.05.05,4.13.65,6.11,1.08,5.81,0,11.66,0,17.47,0,5.23,0,10.5,0,15.72,0,3.47-.37,6.97-1.2,10.48-1.12,2.64-.05,5.29.65,7.86,1.12,7.56,0,15.15,0,22.71,0,6.09-4.44,12.52-12.61,20.96-9.78,3.34,1.34,6.26,3.71,9.61,5.06,4.2,1.95,9.11,1.5,13.1-.73,2.98-1.52,5.74-3.63,8.73-5.13,5.15-2.48,11.1-1.66,16.6-1.13,4.91.53,9.94.83,14.85.09,3.85-.46,7.51-2.09,11.35-2.55"/><path class="b" d="M8.22,203.77c10.18,0,20.39,0,30.57,0,4.93,0,9.92,0,14.85,0,2.01-.48,4.07-1.22,6.11-1.54,3.15-.57,6.46-.49,9.61.07,2.61.38,5.23,1.3,7.86,1.47,1.99-.12,4.23.36,6.11-.44,5.7-2.6,10-7.6,15.72-10.18,10.27-4.82,14.5,4.22,23.58,5.75,6.74,1.05,12.07-4.12,17.47-7.27,3.39-2,7.5-2.3,11.36-2.33,5.81.05,11.69.55,17.47-.27,5.03-.47,9.79-2.75,14.85-2.87"/><path class="b" d="M8.22,199.03c12.22,0,24.46,0,36.69,0,3.47,0,7.01,0,10.48,0,.54.04,1.33-.28,1.75-.6.78-.44,1.83-1.03,2.62-1.44,2.19-1.13,4.58-2.13,6.99-2.71,3.98-1.01,8.17-.71,12.23-.56,5.89.21,10.6-4.15,15.72-6.42,4.94-2.54,10.7-3.08,15.72-.44,3.18,1.61,6.2,3.73,9.61,4.86,7.72,2.8,13.81-2.52,20.09-6.14,3.16-1.77,6.92-2.17,10.48-2.33,6.11-.17,12.32.07,18.34-1.14,4.93-.8,9.76-3.23,14.85-2.43"/><path class="b" d="M8.22,194.29c14.84,0,29.7,0,44.55,0,1.4-.12,3.16.37,4.37-.46,2.48-2.05,5.09-4.15,7.86-5.81,3.92-2.41,8.52-3.62,13.1-3.64,3.95.22,7.74-1.16,11.36-2.58,6.27-2.56,12.74-3.75,19.22-1.12,3.31,1.22,6.38,3.15,9.61,4.54,7.56,3.45,13.35.94,20.09-2.86,3.7-2.16,8-3.02,12.23-3.32,5.84-.43,11.77-.76,17.47-2.24,5.15-1.18,10.39-4,15.72-2.12"/><path class="b" d="M8.22,189.55h48.04c5.67-4.86,11.4-10.5,19.22-11.33,2.88-.38,5.89-.1,8.73-.75,4.04-.8,8.09-1.99,12.23-2.19,8.07-.55,15.48,3.25,22.71,6.28,5.97,2.45,11.73,1.75,17.47-.92,2.55-1.1,5.16-2.38,7.86-3.07,4.28-1.11,8.76-1.49,13.1-2.3,3.53-.64,7.08-1.57,10.48-2.7,5.51-1.74,9.86-4.51,15.72-1.92"/><path class="b" d="M8.22,184.8c14.55,0,29.12,0,43.67,0,1.4-.07,3.01.19,4.37-.21,2.47-2.1,5.08-4.23,7.86-5.9,3.91-2.42,8.52-3.61,13.1-3.6,4.98.2,9.91-.81,14.85-1.23,7.18-.7,14.22,1.37,20.96,3.6,2.87,1.01,5.77,2.25,8.73,2.98,7.69,2.1,14.03-1.02,20.96-3.86,5.39-1.95,11.15-2.74,16.6-4.5,3.85-1.18,7.64-2.74,11.36-4.29,4.66-2.06,8.11-3.25,13.1-1.01"/><path class="b" d="M8.22,180.06c13.1,0,26.21,0,39.31,0,2.59,0,5.27,0,7.86,0,1.27-.12,2.38-1.29,3.49-1.84,10.13-6.12,15.81-2.55,26.2-3.52,3.46-.3,7-.63,10.48-.46,3.52.15,7.07.82,10.48,1.71,4.67,1.14,9.29,2.64,13.98,3.71,1.68.39,3.53.44,5.24.4,1.09,0,2.41.03,3.49-.18,5.29-.88,9.97-3.75,14.85-5.8,5.45-2.16,11.2-3.6,16.6-5.91,3.83-1.58,7.59-3.48,11.36-5.18,4.17-2.07,7.75-2.74,12.23-.95"/><path class="b" d="M8.22,175.32c14.84,0,29.7,0,44.55,0,1.7-.1,3.6.25,5.24-.24,2.73-1.17,5.76-1.85,8.73-1.82,4.13-.01,8.16,1.28,12.23,1.76,3.47.33,7.01-.06,10.48-.22,4.07-.31,8.19.1,12.23.53,4.93,0,9.92,0,14.85,0,5.23,0,10.5,0,15.72,0,1.24.18,2.49-.55,3.49-1.19,1.09-.65,2.4-1.44,3.49-2.09,6.8-4.17,14.71-6.04,21.84-9.54,3.79-1.75,7.53-3.78,11.36-5.47,3.5-1.76,7.6-2.2,11.35-1.02"/><path class="b" d="M8.22,170.57c11.35,0,22.72,0,34.07,0,5.23,0,10.5,0,15.72,0,1.68-.37,3.52-.62,5.24-.61,2.03-.06,4.11.42,6.11.61,4.93,0,9.92,0,14.85,0,11.35,0,22.72,0,34.07,0,4.64,0,9.33,0,13.98,0,2.36-1.25,4.67-2.83,6.99-4.15,6.72-4.06,14.69-5.21,21.84-8.31,7.3-2.9,14.52-7.65,22.71-6.42"/><path class="b" d="M8.22,165.83c35.23,0,70.46,0,105.69,0,4.64,0,9.33,0,13.98,0,.87-.05,1.87-.69,2.62-1.08,1.4-.75,2.97-1.6,4.37-2.34,3.33-1.75,6.81-3.48,10.48-4.37,4.62-1.08,9.42-1.55,13.98-2.89,4.44-1.21,8.71-3.12,13.1-4.49,3.66-1.08,7.55-1.51,11.36-1.7"/><path class="b" d="M8.22,161.09c32.9,0,65.8,0,98.7,0,4.93,0,9.92,0,14.85,0,.86.15,1.87-.44,2.62-.79,1.4-.66,2.97-1.42,4.37-2.07,4.97-2.35,10.24-4.37,15.72-5.07,4.34-.44,8.78-.11,13.1-.76,4.77-.6,9.34-2.34,13.98-3.53,4-.89,8.18-1.01,12.23-1.6"/><path class="b" d="M8.22,156.35c13.1,0,26.21,0,39.31,0,5.81,0,11.66,0,17.47,0,1.17.12,2.43-.26,3.49-.69,1.08-.36,2.38-.74,3.49-.99,1.97-.44,4.1-.67,6.11-.5,3.22.38,6.42,1.32,9.61,1.87,1.68.42,3.53.3,5.24.31,2.29,0,4.69,0,6.99,0,4.35,0,8.75,0,13.1,0,1.4-.03,2.97.08,4.37-.08,1.74-.63,3.57-1.47,5.24-2.26,7.36-3.73,14.36-5.84,22.71-5.26,3.76.31,7.57.97,11.36.81,5.06-.1,9.92-1.85,14.85-2.8,4.03-.57,8.19-.25,12.23-.83"/><path class="b" d="M8.22,151.6c19.5-.03,39.02.05,58.52-.03,3.87-2.45,8.34-5.09,13.1-4.33,6.97,1.39,13.8,3.81,20.96,4.11,3.76.26,7.59.26,11.35.25.78,0,1.84,0,2.62,0,2.11-.4,4.18-1.4,6.11-2.29,11.65-6.04,17.09-6.02,29.7-3.28,3.43.63,7.03.76,10.48.23,3.8-.53,7.53-1.85,11.36-2.22,3.76-.11,7.59.38,11.35.08"/><path class="b" d="M8.22,146.86c17.17,0,34.36,0,51.53,0,8.35-.07,4.8.88,11.36-3.68,3.57-2.4,7.15-3.34,11.36-2.13,4.98,1.16,9.84,2.92,14.85,3.97,3.73.82,7.58,1.3,11.36,1.82,2.29.05,4.69,0,6.99.02,1.48.12,3.01-.62,4.37-1.13,1.72-.7,3.54-1.55,5.24-2.3,4.11-1.83,8.55-3.3,13.1-3.24,6.52.03,12.69,2.88,19.22,2.93,4.68.19,9.32-.94,13.98-1.21,4.07-.04,8.15.87,12.23.77"/><path class="b" d="M8.22,142.12h55.9c4.3-3.82,8.54-9.36,14.85-9.35,3.86.36,7.64,1.61,11.36,2.66,4.03,1.2,8.14,2.33,12.23,3.31,3.5.78,7.01,1.82,10.48,2.71,3.19.58,6.53-.01,9.61-.9,7.09-2.08,14.26-5.68,21.84-4.32,4.39.68,8.73,1.88,13.1,2.67,4.03.77,8.16,1.21,12.23,1.7,2.91.31,5.84,1.04,8.73,1.42,1.69.18,3.54.05,5.24.09"/><path class="b" d="M8.22,137.38h53.28c5.05-5.43,10.68-13.98,19.22-12.2,4.96.9,9.92,2.04,14.85,3.12,5.01,1.13,10.12,2.3,14.85,4.35,5.78,2.97,12.03,3.97,18.34,2.16,3.81-.96,7.5-2.58,11.35-3.35,8.81-1.35,17.4,2.38,25.33,5.77,2.26.35,4.7.07,6.99.15,3.76,0,7.59,0,11.35,0"/><path class="b" d="M8.22,132.63h49.79c1.74-1.21,2.92-3.43,4.37-4.97,3.16-3.7,6.66-7.63,11.35-9.34,3.13-1.23,6.44-.28,9.61.2,8.74,1.25,18.13.35,26.2,4.51,2.98,1.57,5.74,3.69,8.73,5.24,5.01,2.81,10.42,3.03,15.72.9,2.59-.93,5.17-2.19,7.86-2.83,4.97-1,10.28-.4,14.85,1.81,1.77.83,3.6,1.9,5.24,2.97,1.01.64,2.19,1.72,3.49,1.51,6.1,0,12.24,0,18.34,0"/><path class="b" d="M8.22,127.89h46.29c2.07-1.45,3.5-3.95,5.24-5.76,3.95-4.5,8.54-9.63,14.85-10.3,2.65-.33,5.27.58,7.86.9,2.58.29,5.28.13,7.86-.12,7.12-.85,14.85-1.71,20.96,2.88,3,2.18,5.71,4.9,8.73,7.06,4.14,3.12,9.03,4.34,13.98,2.4,2.94-1.02,5.72-2.71,8.73-3.51,9.33-2.4,14.75.76,21.84,6.45h19.22"/><path class="b" d="M8.22,123.15c9.89,0,19.81,0,29.7,0,3.18,0,6.43,0,9.61,0,1.4,0,2.96,0,4.37,0,1.02-.28,1.89-1.45,2.62-2.16,5.99-6.32,12.89-15.18,22.71-13.05,1.71.3,3.5.91,5.24,1.06,2,.19,4.13.01,6.11-.3,8.29-1.49,16.34-4.4,23.58,1.77,3.52,2.89,6.62,6.45,10.48,8.91,8.73,5.54,13.65-.66,21.84-2.45,4-1.01,8.36-1.22,12.23.41,3.2,1.29,6.07,3.42,8.73,5.57,2.14.52,4.73.11,6.99.23,3.76,0,7.59,0,11.35,0"/><path class="b" d="M8.22,118.41c9.6,0,19.22,0,28.82,0,3.47,0,7.01,0,10.48,0,2.66.48,8.22-5.83,10.48-7.62,5.11-4.75,11.1-8.63,18.34-6.68,1.73.38,3.52,1.08,5.24,1.47,1.68.36,3.53.51,5.24.48,8.89-.3,17.63-3.48,25.33,2.87,4.01,3.16,7.49,7.28,12.23,9.4,1.99.14,4.12.03,6.11.07,1.09-.02,2.41.06,3.49-.09.43-.17,1.33-.55,1.75-.75,2.01-.95,4.05-2.15,6.11-3,1.38-.51,2.97-.96,4.37-1.42,4.21-1.44,8.94-1.9,13.1-.05,2.83,1.17,5.43,3.02,7.86,4.85.64.57,1.82.49,2.62.47,1.09,0,2.41,0,3.49,0,3.47,0,7.01,0,10.48,0"/><path class="b" d="M8.22,113.66c7.85,0,15.73,0,23.58,0,5.61.21,11.33-.59,16.6-2.6,3.22-1.4,5.95-3.82,8.73-5.91,4.44-3.48,9.85-6.78,15.72-5.78,3.04.42,5.89,1.8,8.73,2.86,2.79.97,5.8,1.51,8.73,1.8,12.74,1.02,17.09.61,27.08,9.62,7.27,0,14.57,0,21.84,0,3.79-1.66,7.47-3.87,11.36-5.37,3.63-1.47,7.84-1.41,11.36.36,2.84,1.24,5.22,3.46,7.86,5.01,4.64,0,9.33,0,13.98,0"/><path class="b" d="M8.22,103.66c2.31.54,4.74,1.05,6.99,1.83,3.31,1.43,6.86,2.49,10.48,2.64,7.39.37,14.74-1.28,21.84-3.18,4.21-1.08,7.67-3.98,11.36-6.14,5.93-3.75,11.87-4.83,18.34-1.68,3.42,1.68,6.84,3.55,10.48,4.72,4.54,1.58,9.33,2.44,13.98,3.65,3,.78,6.03,1.83,8.73,3.36,4.64.16,9.34.01,13.98.06,6.68,0,13.41,0,20.09,0,2.93-1.68,5.55-4.1,8.73-5.36,3.04-1.35,6.64-1.23,9.61.25,2.51,1.19,4.81,3,6.99,4.71,0,0,.87.4.87.4h.87c1.09,0,2.41,0,3.49,0,2.88,0,5.85,0,8.73,0"/><path class="b" d="M8.22,94.04c3.8,1.07,7.24,3.09,10.48,5.3,7.05,4.37,14.95,4.02,22.71,2.06,3.76-1.04,7.84-1.25,11.36-3.03,5.03-2.44,9.93-5.99,15.72-6.11,4.85-.17,9.19,2.44,13.1,5.01,3.29,2.02,6.84,3.76,10.48,5.06,1.97.69,4.08,1.39,6.11,1.86,1.09,0,2.4,0,3.49,0,4.35,0,8.75,0,13.1,0,11.05-.09,22.15.19,33.19-.1,5.27-4.94,10.71-8.17,17.47-3.61,1.14.73,2.44,1.71,3.49,2.55.67.6,1.67,1.35,2.62,1.16,4.06,0,8.17,0,12.23,0"/><path class="b" d="M8.22,86.32c3.57,1.31,6.79,3.52,9.61,6.04,2.82,2.29,6.08,4.25,9.61,5.2,6.97,2.06,14-.73,20.96-1.29,5.57-.62,10.27-4.3,15.72-5.44,7.43-1.77,12.69,2.03,18.34,6.19,4.19,2.74,3.86,2.45,8.74,2.41,5.81,0,11.66,0,17.47,0,10.77,0,21.55,0,32.32,0,2,0,4.12,0,6.11,0,1.11-.06,2.51.24,3.49-.4,7.55-7.47,12.45-5.7,20.09.4h13.1"/><path class="b" d="M8.22,80.2c2.47,1.03,4.9,2.47,6.99,4.14,1.96,1.65,3.95,3.5,6.11,4.89,6.46,4.46,13.43,4.78,20.96,3.75,3.46-.54,7.09-.05,10.48-1.01,5.64-1.59,11.57-4.09,17.47-2.26,2.15.61,4.26,1.7,6.11,2.93,1.13.6,2.16,2.02,3.49,2.05,7.85,0,15.73,0,23.58,0,10.47,0,20.97,0,31.45,0,3.76,0,7.59,0,11.35,0,1.99-.09,4.15.21,6.11-.18,4.25-4.43,9.11-6.57,14.85-3.34,2.09.98,3.94,2.74,6.11,3.52,3.47,0,7.01,0,10.48,0"/><path class="b" d="M8.22,74.17c3.92,1.7,7.25,4.52,10.48,7.25,5.69,4.64,12.8,6.75,20.09,6.48,2.3-.02,4.69-.14,6.99-.1,2,.05,4.12.33,6.11.04,4.9-.64,9.88-2.15,14.85-1.2,1.77.32,3.62.94,5.24,1.72,1.13.45,2.25,1.53,3.49,1.59,8.43,0,16.9,0,25.33,0,17.76,0,35.53,0,53.28,0,5.55-5.36,10.25-6.67,17.47-3.58,4.46,2.01,7.74,2.18,12.23.08"/><path class="b" d="M8.22,68.37c3.84,1.85,7.15,4.67,10.48,7.27,2.4,1.76,5.09,3.28,7.86,4.35,5.54,2.19,11.6,2.38,17.47,2.73,2.31.1,4.68.63,6.99.64,3.19-.01,6.42-.55,9.61-.6,2.63-.05,5.35.26,7.86,1.06,1.45.32,2.87,1.48,4.37,1.39,7.27,0,14.57,0,21.84,0,20.67,0,41.35,0,62.02,0,5.19-4.3,9.84-5.97,16.6-4.95,3.61.71,7.25-.43,10.48-1.99"/><path class="b" d="M8.22,63.16c4.08,2.11,7.55,5.26,11.36,7.79,5.73,3.78,12.48,5.65,19.22,6.62,3.78.51,7.59,1.22,11.35,1.79,2.59.23,5.27.01,7.86-.1,2.59-.12,5.3-.1,7.86.35,1.12.19,2.42.52,3.49.86.78,0,1.84,0,2.62,0,14.84,0,29.7,0,44.55,0,14.84,0,29.7,0,44.55,0,3.29-1.79,6.72-3.58,10.48-4.16,1.69-.34,3.58-.36,5.24-.84,2.43-.71,4.78-1.98,6.99-3.2"/><path class="b" d="M8.22,58.91c4.29,2.37,7.99,5.76,12.23,8.21,7.22,4.26,15.48,6.26,23.58,8.08,1.96.61,4.09.55,6.11.53,2.3,0,4.69,0,6.99,0,7.56,0,15.15,0,22.71,0,13.97,0,27.96,0,41.93,0,11.35,0,22.72,0,34.07,0,4.64,0,9.33,0,13.98,0,1.13-.17,2.39-.76,3.49-1.06,1.11-.31,2.45-.67,3.49-1.19,2.46-1.2,4.77-2.92,6.99-4.51"/><path class="b" d="M8.22,55.99c3.93,2.3,7.45,5.36,11.36,7.69,5.19,3.08,10.82,5.57,16.6,7.3,8.73,0,17.48,0,26.2,0,12.22,0,24.46,0,36.69,0,27.07,0,54.16,0,81.23,0,1.21-.81,2.42-2.07,3.49-3.05"/><path class="b" d="M8.22,55.17c2.98,1.78,5.8,3.98,8.73,5.84,3.07,1.93,6.33,3.69,9.61,5.23,11.06,0,22.14,0,33.19,0,12.51,0,25.05,0,37.56,0,28.82,0,57.65,0,86.47,0"/><path class="b" d="M8.22,55.8c3.44,1.94,6.84,4.11,10.48,5.68,2.3.05,4.69.01,6.99.02,8.43,0,16.9,0,25.33,0,13.97,0,27.96,0,41.93,0,30.28,0,60.56,0,90.84,0"/><path class="b" d="M8.22,55.85c1.07.47,2.29,1.04,3.49.9,1.7,0,3.54,0,5.24,0,4.64,0,9.33,0,13.98,0,13.1,0,26.21,0,39.31,0,37.85,0,75.7,0,113.55,0"/><path class="b" d="M8.22,52.01h175.57"/><path class="b" d="M8.22,47.27c15.14,0,30.29,0,45.42,0,.45,0,1.3,0,1.75,0,1.08-.6,2.36-1.29,3.49-1.79,2.16-.96,4.61-1.58,6.99-1.46,2.08.09,4.22.73,6.11,1.57,1.42.49,2.81,1.81,4.37,1.68,11.64,0,23.3,0,34.94,0,24.16,0,48.34,0,72.5,0"/><path class="b" d="M8.22,42.53c12.22,0,24.46,0,36.69,0,2.57.28,4.87-1.39,6.99-2.64,2.54-1.63,5.09-3.46,7.86-4.7,5.02-2.43,10.23-1.26,14.85,1.47,3.66,2.12,7.43,4.19,11.36,5.78,6.09.25,12.24.02,18.34.09,8.43,0,16.9,0,25.33,0,18.05,0,36.11,0,54.16,0"/><path class="b" d="M8.22,37.78c3.76,0,7.59,0,11.36,0,2-.43,4.07-1.12,6.11-1.33,5.22-.7,10.57-.71,15.72-1.89,2.98-.69,6.03-1.63,8.73-3.08,3.77-2.1,7.25-4.94,11.36-6.39,5.42-2.11,10.96.05,15.72,2.77,3.48,1.79,7.01,3.65,10.48,5.47,3.85,1.97,7.97,3.59,12.23,4.43,2.29.05,4.69,0,6.99.02,6.98,0,13.99,0,20.96,0,2.9.12,5.84-.45,8.73-.39,2.89.03,5.83.55,8.73.39,12.8,0,25.63,0,38.43,0"/><path class="b" d="M8.22,33.04c4.06,0,8.17,0,12.23,0,1.81.08,3.55-1.4,5.24-1.96,3.11-1.34,6.39-2.49,9.61-3.55,4.92-1.67,10.03-3.01,14.85-4.98,4.84-2.28,9.41-5.64,14.85-6.31,5.24-.73,10.2,1.61,14.85,3.72,7.97,3.63,15.29,8.71,23.58,11.63,1.38.51,2.95,1.02,4.37,1.43,3.18.04,6.43,0,9.61.02,2,0,4.12,0,6.11,0,3.54-.79,6.95-2.34,10.48-3.2,3.67-1,7.68-1.39,11.35-.17,1.75.55,3.58,1.34,5.24,2.12,1.08.41,2.28,1.41,3.49,1.25,2,0,4.12,0,6.11,0,7.85,0,15.73,0,23.58,0"/><path class="b" d="M8.22,28.3c4.35,0,8.75,0,13.1,0,.47,0,1.29,0,1.75,0,1.52-.69,2.94-1.94,4.37-2.8,2.51-1.65,5.18-3.24,7.86-4.59,2.79-1.4,5.76-2.62,8.73-3.55,2.27-.75,4.74-1.23,6.99-2.05,5.37-2.01,10.74-4.69,16.6-4.69,8.72-.01,20.18,5.73,27.95,9.72,3.74,1.96,7.5,4.05,11.35,5.79,2.22.88,4.55,2.22,6.99,2.17,2.29,0,4.69.02,6.99-.01,2.38-.52,4.76-1.44,6.99-2.4,5.46-2.26,11.4-5.95,17.47-3.92,4.35,1.49,8.1,4.37,12.23,6.33,2.29,0,4.69,0,6.99,0,4.35,0,8.75,0,13.1,0,.82.1,1.93-.23,2.62-.69,1.09-.59,2.41-1.32,3.49-1.92"/><path class="b" d="M8.22,23.55h16.6c7.42-6.18,14.65-10.95,24.46-12.15,6.37-1.29,12.65-3.57,19.22-3.62,4.74-.16,9.41.98,13.98,2.13,4.11.91,8.3,1.88,12.23,3.41,6.36,2.33,12.01,6.31,18.34,8.67,5.85,2.1,12.1.23,17.47-2.36,3.37-1.51,6.77-3.36,10.48-3.83,6.14-.6,11.2,4.49,16.6,6.71.75.34,1.84.77,2.62,1.02,1.09.04,2.4.02,3.49.03,2.29,0,4.69,0,6.99,0,4.81-.89,8.85-4.12,13.1-6.37"/></svg>