<?xml version="1.0" encoding="UTF-8"?><svg id="a" xmlns="http://www.w3.org/2000/svg" width="1920" height="2400" viewBox="0 0 192 240"><defs><style>.b{fill:none;stroke:#fff;stroke-miterlimit:10;stroke-width:.4px;}.c{stroke-width:0px;}</style></defs><rect class="c" x="0" width="192" height="240"/><path class="b" d="M8.2,224.39c2.02,1.24,4.08,2.67,6.12,3.89,2,.06,4.11.01,6.11.03,5.52,0,11.08,0,16.6,0,16.3,0,32.62,0,48.92,0,1.1,0,2.4,0,3.49,0,.88.06,1.97-.02,2.62-.69,3.65-2.53,7.42-5.04,11.36-7.09,1.93-1.01,4.05-1.95,6.12-2.65,2.03-.62,4.21-1.2,6.12-2.18,5.71-2.81,10.8-6.82,16.6-9.48,12.21-5.92,19.74.01,30.58,5.24,3.07,1.49,6.31,2.85,9.61,3.75,3.76.89,7.58,1.79,11.36,2.58"/><path class="b" d="M8.2,218.53c3.45,1.72,6.92,3.57,10.48,5.04,7.56,0,15.15,0,22.71,0,10.48,0,20.97,0,31.45,0,3.76,0,7.59,0,11.36,0,1.99-.08,4.15.19,6.12-.16,5.54-4.95,10.81-10.54,17.47-14,3.02-1.49,6.48-2,9.61-3.2,5.72-1.98,11.46-4.15,17.47-5.06,5.54-.89,11.35-.74,16.6,1.41,5.91,2.21,11.5,5.31,17.47,7.36,4.85,1.61,9.95,2.48,14.85,3.91"/><path class="b" d="M8.2,214.57c3.14,1.05,6.37,2.05,9.61,2.76,1.17.33,2.28,1.34,3.49,1.5,7.56,0,15.15,0,22.71,0,15.43,0,30.87,0,46.3,0,1.41-.71,2.42-2.44,3.49-3.56,2.26-2.65,4.6-5.45,6.99-7.98,2.77-2.86,5.8-5.88,9.61-7.27,7.11-1.82,14.54-2.26,21.84-2.77,4.35-.2,8.75-.65,13.1-.63,3.26.15,6.52.95,9.61,1.97,5.01,1.65,9.84,3.92,14.85,5.57,2.24.78,4.69,1.24,6.99,1.82,2.33.62,4.71,1.45,6.99,2.24"/><path class="b" d="M8.2,212.04c1.99.35,4.1.69,6.12.77,1.41.08,2.97-.19,4.37.08,1.16.2,2.39.81,3.49,1.19,1.41,0,2.96,0,4.37,0,17.76,0,35.53,0,53.29,0,3.76,0,7.59,0,11.36,0,1.48-.69,2.41-2.59,3.49-3.76,1.4-1.77,2.95-3.76,4.37-5.51,10.46-12.99,12.52-10.54,27.96-10.78,3.78-.04,7.62-.35,11.36-.97,3.18-.49,6.37-1.41,9.61-1.4,7.38-.11,14.2,3.19,20.97,5.71,2.51.99,5.25,1.56,7.86,2.19,2.35.66,4.74,1.59,6.99,2.55"/><path class="b" d="M8.2,209.34c3.77-.03,7.61.15,11.36-.28,2.58.33,5.26.31,7.86.28,21.84-.03,43.69.06,65.52-.03,4.89-4.92,11.47-14.77,18.35-16.13,4.62-.58,9.34.01,13.98-.33,3.85-.23,7.71-1.08,11.36-2.32,2.92-.95,5.79-2.26,8.74-3.13,8.28-2.54,16.08,1.04,23.59,4.26,2.49,1.09,5.23,1.69,7.86,2.29,2.37.65,4.76,1.6,6.99,2.61"/><path class="b" d="M8.2,204.59c24.75,0,49.51,0,74.26,0,4.06,0,8.17,0,12.23,0,1.66-.42,2.96-2.06,4.37-2.99,2.73-2.12,5.56-4.35,8.74-5.76,2.43-1.15,5.24-1.07,7.86-1.11,2.89-.02,5.89-.12,8.74-.67,7.41-1.27,13.52-5.96,20.09-9.27,9.34-4.55,16.69-.68,25.33,3.13,2.19.98,4.66,1.45,6.99,1.95,2.36.59,4.75,1.46,6.99,2.41"/><path class="b" d="M8.2,199.85c29.7,0,59.41,0,89.11,0,1.7-.03,3.55.08,5.24-.08,2.52-.92,5.18-1.82,7.86-2.1,8.09-.2,13.65.02,20.97-4.34,10.42-6.18,17.11-15.2,30.58-10.54,3.53,1.14,6.92,2.85,10.48,3.9,3.8.85,7.71,1.53,11.36,2.95"/><path class="b" d="M8.2,195.11c3.47,0,7.01,0,10.48,0,1.41-.16,2.94-.53,4.37-.49,1.42-.02,2.97.29,4.37.49,1.1,0,2.39,0,3.49,0,25.91,0,51.84,0,77.75,0,5.81,0,11.66,0,17.47,0,1.7,0,3.54,0,5.24,0,2.55-1.02,4.75-3.04,6.99-4.61,11.26-8.98,17.3-11.4,31.45-6.88,4.57,1.31,9.41,1.55,13.98,2.88"/><path class="b" d="M8.2,190.36c2.3,0,4.69,0,6.99,0,2-.25,4.08-.81,6.12-.68,1.72.04,3.56.32,5.24.68,5.81,0,11.66,0,17.47,0,4.35,0,8.75,0,13.1,0,1.12.07,2.39-.33,3.49-.46,1.4-.18,2.97-.23,4.37-.11,1.11.09,2.41.31,3.49.56,1.1.02,2.4,0,3.49.01,4.06,0,8.17,0,12.23,0,10.77,0,21.56,0,32.32,0,7.56,0,15.15,0,22.71,0,1.31-.33,2.41-1.59,3.49-2.34,1.92-1.51,4.02-3.03,6.12-4.28,5.18-3.23,11.4-4.67,17.47-3.91,2.6.26,5.27.76,7.86,1.09,3.18.38,6.45.6,9.61,1.12"/><path class="b" d="M8.2,185.62c3.48.17,7.01-.61,10.48-.19,2.57.37,5.27.12,7.86.19,4.06,0,8.17,0,12.23,0,4.06,0,8.17,0,12.23,0,1.4,0,2.97,0,4.37,0,1.08-.31,2.38-.59,3.49-.73,2-.26,4.14-.17,6.12.21,1.67.5,3.51.58,5.24.51,18.05,0,36.11,0,54.16,0,6.39,0,12.83,0,19.22,0,3.2-2.04,6.16-4.65,9.61-6.33,4.53-2.43,9.71-3.64,14.85-3.5,2.6.03,5.27.36,7.86.54,2.59.14,5.28.09,7.86.29"/><path class="b" d="M8.2,180.88h136.28c6.94-5.65,15.29-10.19,24.46-10.05,2.3-.05,4.69.18,6.99.28,2.59.04,5.27-.23,7.86-.22"/><path class="b" d="M8.2,176.13c39.31,0,78.63,0,117.94,0,3.47,0,7.01,0,10.48,0,1.99-.09,4.16.22,6.12-.19,2.97-2.37,6.19-4.6,9.61-6.27,4.85-2.42,10.32-3.52,15.72-3.44,2.59-.01,5.27.27,7.86.32,2.6-.03,5.27-.47,7.86-.61"/><path class="b" d="M8.2,171.39c37.56,0,75.13,0,112.69,0,3.76,0,7.59,0,11.36,0,1.4,0,2.97,0,4.37,0,.79,0,1.88.07,2.62-.26,3.17-1.95,6.16-4.38,9.61-5.86,5.98-2.8,12.78-2.89,19.22-2.06,2.58.27,5.26.69,7.86.71,2.62-.06,5.28-.64,7.86-1.01"/><path class="b" d="M8.2,166.65c35.52,0,71.05,0,106.58,0,5.23,0,10.5,0,15.72,0,2.97-.8,5.86-2.25,8.74-3.35,2.6-1.05,5.14-2.52,7.86-3.22,8.71-2.4,17.55.86,26.21,1.92,3.51.56,7.09-.28,10.48-1.13"/><path class="b" d="M8.2,161.9c33.19,0,66.4,0,99.59,0,2.88,0,5.85,0,8.74,0,1.09,0,2.4,0,3.49,0,.47.09,1.34-.12,1.75-.38,6.94-3.9,12.36-4.65,20.09-5.45,9.1-1.81,18.12,1.69,27.08,2.91,2.58.36,5.25.88,7.86.87,2.34-.07,4.75-.62,6.99-1.26"/><path class="b" d="M8.2,157.16c33.19,0,66.4,0,99.59,0,1.7,0,3.54,0,5.24,0,.8,0,1.89.08,2.62-.3,5.44-3.7,11.4-7.95,18.35-6.77,2.34.31,4.7,1.02,6.99,1.55,2.29.47,4.72.74,6.99,1.29,6.86,1.68,13.9,2.65,20.97,2.71,2.6.02,5.27.42,7.86.58,2.32.06,4.74-.27,6.99-.82"/><path class="b" d="M8.2,150.71c.78.54,1.77,1.29,2.62,1.7,1.41,0,2.96,0,4.37,0,3.47,0,7.01,0,10.48,0,9.89,0,19.81,0,29.7,0,9.31,0,18.65,0,27.96,0,8.73,0,17.48,0,26.21,0,1.57.09,3.06-1.11,4.37-1.85,2.32-1.53,4.6-3.37,6.99-4.79,4.92-3.11,9.86-2.98,14.85-.09,2.59,1.39,5.09,3.19,7.86,4.23,2.8,1.03,5.73,2.29,8.74,2.49,3.18,0,6.43,0,9.61,0,2.61-.31,5.26-1,7.86-1.34,2.29-.38,4.7-.14,6.99.12,2.29.18,4.71.16,6.99-.13"/><path class="b" d="M8.2,142.3c2.31,1.12,4.71,2.32,6.99,3.5,1.13.54,2.36,1.35,3.49,1.88.79,0,1.83,0,2.62,0,9.89,0,19.81,0,29.7,0,8.73,0,17.48,0,26.21,0,9.31-.09,18.66.19,27.96-.11,2.39-.52,4.82-1.38,6.99-2.52,2.4-1.34,4.64-3.14,6.99-4.56,6.65-4.28,11.81-2.33,17.47,2.4,1.39,1.13,2.93,2.43,4.37,3.5.71.5,1.69,1.33,2.62,1.29,4.35,0,8.75,0,13.1,0,2.88-.09,5.88.19,8.74-.14,1.95-.81,4.04-1.65,6.12-2.07,1.68-.38,3.55-.19,5.24-.02,2.29.21,4.69.4,6.99.39"/><path class="b" d="M8.2,135.17c3.29,1.11,6.64,2.42,9.61,4.23,1.52.98,2.98,2.38,4.37,3.53,19.22,0,38.44,0,57.66,0,2-.06,4.13.14,6.12-.11,3.08-.97,6.4-1.19,9.61-1.33,5.62-.18,11.42-.64,16.6-3.01,2.35-1.11,4.62-2.61,6.99-3.69,5.91-2.92,11.01-.93,15.72,3.12,2.05,1.56,3.87,3.74,6.11,5.02,4.64,0,9.34,0,13.98,0,2.59,0,5.27,0,7.86,0,1.73-.07,3.72.34,5.24-.68,1.62-.8,3.45-1.58,5.24-1.91,3.45-.4,7.02-.03,10.48-.1"/><path class="b" d="M8.2,129.17c5.45,2.04,10.77,4.75,14.85,8.98,15.72.12,31.46,0,47.17.04,2.89,0,5.85,0,8.74,0,1.18-.49,2.35-1.48,3.49-2.05,6.39-3.52,13.91-3.09,20.97-3.47,3.52-.21,7.14-.67,10.48-1.84,5.76-2.18,10.94-3.49,16.6-.13,3.5,1.99,6.48,4.85,9.61,7.35,4.32.36,8.76.03,13.1.14,4.93,0,9.92,0,14.85,0,.89.18,1.87-.55,2.62-.93.74-.39,1.83-.87,2.62-1.15,3.39-.99,6.99-1.44,10.48-1.96"/><path class="b" d="M8.2,124.03c3.23,1.76,6.44,3.76,9.61,5.64,1.8,1.09,3.44,2.71,5.24,3.78,11.06,0,22.14,0,33.2,0,3.77,0,7.59,0,11.36,0,1.7,0,3.54,0,5.24,0,.89-.13,1.86-.83,2.62-1.27,13.69-8.96,19.43-7.89,34.94-7.52,8.82-.41,13.46-2.28,21.84,2.72,2.08,1.23,4.15,2.72,6.12,4.12,1.07.64,2.19,1.89,3.49,1.94,9.31,0,18.65,0,27.96,0,1.55-.37,2.9-1.66,4.37-2.26,3.14-1.4,6.36-2.86,9.61-3.99"/><path class="b" d="M8.2,119.22c2.3,1.67,4.62,3.55,6.99,5.13,2.32,1.39,4.65,2.99,6.99,4.34,4.06,0,8.17,0,12.23,0,11.64,0,23.3.02,34.94,0,9.72-5.99,20.46-12.5,32.32-11.55,4.11.25,8.16,1.32,12.23,1.81,5.92.5,11.98,1.04,17.47,3.51,4.2,1.76,8.14,4.2,12.23,6.19,5.22.13,10.5.01,15.72.05,3.47,0,7.01,0,10.48,0,4.63-3.08,9.15-6.52,13.98-9.32"/><path class="b" d="M8.2,114c3.08,2.56,6.07,5.43,9.61,7.35,1.68.88,3.39,2.14,5.24,2.61,5.23,0,10.5,0,15.72,0,8.14,0,16.32,0,24.46,0,1.1,0,2.4,0,3.49,0,2.66-1.15,5.26-2.67,7.86-3.94,2.51-1.32,5.25-2.33,7.86-3.41,2.86-1.24,5.77-2.61,8.74-3.58,8.48-2.92,14.58-1.03,22.71,1.48,6.06,1.44,12.36,2.01,18.35,3.8,4.76,1.47,9.62,3.08,13.98,5.53,7.25.3,14.58.02,21.84.11,5.29-4.2,10.29-8.89,15.72-12.92"/><path class="b" d="M8.2,107.47c2.32,1.7,4.61,3.63,6.99,5.23,5.24,3.34,11.23,5.76,17.47,6.15,4.64.36,9.33-.34,13.98-.13,1.71.09,3.53.41,5.24.49,1.7,0,3.54,0,5.24,0,2.9,0,5.89.14,8.74-.5,5.64-1.11,11.19-2.92,16.6-4.84,3.49-1.43,6.9-3.22,10.48-4.41,7.9-2.73,13.44-1.1,20.97,1.53,4.26,1.17,8.74,1.59,13.1,2.19,7.22.96,14.49,2.61,20.97,6.03,5.52-.02,11.08.05,16.6-.03,2.83-1.99,5.34-4.55,7.86-6.89,3.7-3.18,7.37-6.57,11.36-9.4"/><path class="b" d="M8.2,101.7c2.64,1.36,5.21,3.05,7.86,4.39,4.38,2.15,9.11,3.8,13.98,4.33,4.92.6,9.92,0,14.85-.1,7.37-.03,14.54,2.17,21.84,2.92,6.44.68,13.31.71,19.22-2.27,4.27-1.98,8.47-4.41,13.1-5.46,3.13-.73,6.5-.71,9.61.12,2.04.53,4.07,1.49,6.12,2.02,3.69,1.01,7.57,1.48,11.36,1.96,7.12.85,14.33,2.02,20.97,4.85,4.93,0,9.92,0,14.85,0,4-2.15,7.09-5.75,10.48-8.7,3.59-2.97,7.34-5.96,11.36-8.35"/><path class="b" d="M8.2,96.88c7.38,2.61,14.85,5.34,22.71,6.03,5.5.59,11.08.19,16.6.23,5.33.04,10.65,1.08,15.72,2.69,4.06,1.25,8.09,2.83,12.23,3.8,2.87.19,5.86.14,8.74.03,4.89-1.6,9.19-4.7,13.98-6.55,5.11-2.11,9.89-1.97,14.85.47,2.79,1.08,5.79,1.82,8.74,2.36,4.91.9,9.94,1.37,14.85,2.25,2.32.39,4.71.98,6.99,1.53,2.59,0,5.27,0,7.86,0,2.29,0,4.69,0,6.99,0,.77,0,1.85,0,2.62,0,.87-.27,1.89-1,2.62-1.52,3.04-2.19,5.8-4.91,8.74-7.24,3.52-2.59,7.38-4.91,11.36-6.72"/><path class="b" d="M8.2,91.97c4.34.74,8.74,1.37,13.1,1.95,4.64.72,9.31,1.57,13.98,2.08,6.08.8,12.24.48,18.35.38,4.5.02,9,1.07,13.1,2.89,4.14,1.72,7.99,4.26,12.23,5.72,2,0,4.12,0,6.12,0,1.49.16,3.03-.27,4.37-.9,6.07-2.53,12.34-6.92,19.22-5.27,2.41.62,4.62,2.06,6.99,2.82,6.15,2.12,12.75,3.01,19.22,3.35,7.27,0,14.57,0,21.84,0,1.4,0,2.97,0,4.37,0,1.51-.75,3.02-1.91,4.37-2.91,2.57-1.95,5.1-4.15,7.86-5.83,3.29-1.81,6.88-3.22,10.48-4.26"/><path class="b" d="M8.2,86.25c4.65.35,9.34-.29,13.98.07,5.3.45,10.5,1.86,15.72,2.82,3.72.68,7.59,1.1,11.36.6,14.8-2.82,17.84.54,29.7,8.13,9.22,5.87,19.12-3.98,28.83-1.59,3.65.76,6.73,3.74,10.48,3.96,8.73,0,17.48,0,26.21,0,3.76,0,7.59,0,11.36,0,1.7-.05,3.56.11,5.24-.11.42-.28,1.34-.85,1.75-1.15,8.17-5.86,10.32-8.43,20.97-9.52"/><path class="b" d="M8.2,79.3c3.51-.1,7.02-.73,10.48-1.27,6.58-.71,12.96,1.63,19.22,3.3,3.67.97,7.57,1.72,11.36,1.04,5.96-1.27,11.53-3.28,17.47-.55,9.95,4.43,12.96,13.08,25.33,12.44,3.76-.06,7.6-.54,11.36-.15,1.74.18,3.6.59,5.24,1.2,1.07.3,2.4.15,3.49.18,16.01,0,32.04,0,48.05,0,9.08-6.18,11.49-10.9,23.59-9.77"/><path class="b" d="M8.2,71.25c3.51-.54,7.01-1.51,10.48-2.22,6.62-1.06,13.04,1.51,19.22,3.54,3.35,1.08,6.93,2.05,10.48,1.71,2.9-.31,5.82-1.1,8.74-1.24,5.98-.49,11.39,2.77,15.72,6.57,5.39,4.74,10.12,9.63,17.47,11.15,2.29,0,4.69,0,6.99,0,20.67,0,41.35,0,62.03,0,4.97-3.41,9.03-8.51,14.85-10.53,3.13-.86,6.5-.37,9.61.34"/><path class="b" d="M8.2,64.28c3.47-1.22,6.92-2.78,10.48-3.71,7.06-1.74,13.88,1.64,20.09,4.61,3.01,1.37,6.24,2.8,9.61,2.79,14.59-.97,19.5,4.75,29.7,13.64,1.88,1.59,3.99,3.11,6.12,4.34,3.76.17,7.59.02,11.36.07,8.14,0,16.32,0,24.46,0,10.77,0,21.56,0,32.32,0,2,0,4.12,0,6.12,0,1.63-.5,2.99-1.98,4.37-2.94,7.02-5.39,11.49-10.36,20.97-6.79"/><path class="b" d="M8.2,59.75c10.67-6.69,16.59-9.33,27.96-1.92,3.64,2.22,7.14,5.11,11.36,6.13,13.18,1.3,20.56,8.48,30.58,16,.44.3,1.3.92,1.75,1.2,1.69.21,3.54.06,5.24.1,3.47,0,7.01,0,10.48,0,10.18,0,20.39,0,30.58,0,9.31,0,18.65,0,27.96,0,5.79.03,4.6.43,9.61-2.81,3.9-2.43,7.71-5.47,12.23-6.63,2.63-.52,5.4.14,7.86,1.08"/><path class="b" d="M8.2,57.83c8.22-7.01,15.99-12.69,26.21-5.3,4.45,2.95,8.1,7.31,13.1,9.38,2.04.58,4.18,1.25,6.12,2.12,7.35,3.24,14,7.89,20.97,11.84,1.22.94,2.94.61,4.37.66,2.3,0,4.69,0,6.99,0,6.69,0,13.41,0,20.09,0,15.72,0,31.45,0,47.17,0,2.58-.09,5.3.2,7.86-.15,1.72-.78,3.56-1.7,5.24-2.57,3.15-1.58,6.27-3.51,9.61-4.67,2.58-.72,5.39-.2,7.86.69"/><path class="b" d="M8.2,57.61c2.8-2.66,5.44-5.73,8.74-7.8,5.56-3.61,10.94-4.53,16.6-.58,4.45,2.96,7.88,7.28,12.23,10.36,2.42,1.57,5.37,2.33,7.86,3.78,4.87,2.55,9.71,5.3,14.85,7.29.78.3,1.83.71,2.62.98.78.16,1.83.13,2.62.13,2.3,0,4.69,0,6.99,0,6.1,0,12.24,0,18.35,0,18.92,0,37.86,0,56.78,0,2.29,0,4.69,0,6.99,0,3.03-.83,5.9-2.44,8.74-3.78,4.39-2.43,7.15-3.54,12.23-1.92"/><path class="b" d="M8.2,57.12c2.79-2.91,5.37-6.26,8.74-8.54,5.3-3.72,10.73-5.71,16.6-1.86,4.55,2.86,7.96,7.23,12.23,10.44,2.1,1.53,4.72,2.34,6.99,3.56,4.45,2.23,9.07,4.35,13.98,5.35,4.57,1.1,9.31,1.02,13.98.97,5.52,0,11.08,0,16.6,0,19.51,0,39.02,0,58.53,0,2,0,4.12,0,6.12,0,3.05-.77,5.91-2.51,8.74-3.86,4.76-2.6,7.39-4.46,13.1-2.77"/><path class="b" d="M8.2,54.17c2.51-2.67,4.92-5.67,7.86-7.89,4.63-3.26,10.24-5.82,15.72-2.98,5.39,2.63,9.15,7.61,13.98,11.04,1.81,1.28,4.08,1.95,6.12,2.79,3.36,1.32,6.89,2.46,10.48,2.89,5.81.84,11.67-.72,17.47-.16,2.75.26,5.29,1.59,7.86,2.43,2.59,0,5.27,0,7.86,0,18.63,0,37.28,0,55.91,0,2.29,0,4.69,0,6.99,0,2.43-.79,4.72-2.26,6.99-3.42,3.52-1.87,6.91-4.15,10.48-5.9,2.46-1.02,5.31-.96,7.86-.32"/><path class="b" d="M8.2,49.62c4.13-4.32,8.52-8.94,14.85-9.45,7.18-.52,12.52,5.32,17.47,9.68,3.3,3.04,5.99,5.09,10.48,5.95,4.52,1.23,9.34,1.76,13.98.9,8.7-1.59,14.47-5.84,23.59-2.31,1.74.61,3.57,1.42,5.24,2.21,1.04.57,2.28,1.11,3.49.95,19.21,0,38.44,0,57.66,0,5.24-1.88,10.1-4.91,14.85-7.79,4.59-2.91,8.16-5.67,13.98-5.02"/><path class="b" d="M8.2,44.86c3.12-2.58,6.32-5.68,10.48-6.33,10.25-1.37,16.88,9.09,24.46,14.2,9.01.22,18.07,0,27.08.08,4.67-1.56,8.96-4.56,13.98-5.08,4.47-.61,8.99.56,13.1,2.23,1.41.56,2.97,1.24,4.37,1.83,1.07.4,2.31,1.15,3.49,1.01,11.35,0,22.72,0,34.07,0,3.47,0,7.01,0,10.48,0,5.69-1.98,11.43-4.09,16.6-7.25,3.28-1.9,6.39-4.22,9.61-6.2,2.37-1.35,5.14-2.16,7.86-2.3"/><path class="b" d="M8.2,40.85c2.71-1.59,5.55-3.42,8.74-3.8,7.76-.47,13.65,6.3,19.22,10.78,1.35.46,2.97.17,4.37.24,2.3,0,4.69,0,6.99,0,9.89,0,19.81,0,29.7,0,.54.07,1.34-.27,1.75-.6,1.08-.66,2.37-1.42,3.49-2,3.71-1.99,8.01-3.18,12.23-2.56,4.88.61,9.25,3.17,13.98,4.34,1.97.49,4.14.29,6.12.71,3.46.26,7.02.03,10.48.11,5.81,0,11.66,0,17.47,0,.87.16,1.87-.47,2.62-.82,1.36-.61,2.94-1.17,4.37-1.61,6.04-1.68,12.16-3.51,17.47-6.95,5.4-3.17,10.03-8.34,16.6-8.91"/><path class="b" d="M8.2,38.13c9.98-3.67,13.91-.65,21.84,5.19,16.3,0,32.62,0,48.92,0,1.1,0,2.4,0,3.49,0,.52.1,1.32-.14,1.75-.43,3.07-2.21,6.64-4.09,10.48-4.27,5.54-.37,10.42,2.86,15.72,3.82,2.02.16,4.13.49,6.11.89,5.23,0,10.5,0,15.72,0,1.7,0,3.54,0,5.24,0,1.52.03,3.04.15,4.37-.8,1.63-.95,3.44-1.91,5.24-2.51,5.23-1.71,10.81-2.58,15.72-5.17,3.41-1.71,6.61-3.98,9.61-6.32,3.24-2.72,6.97-5.33,11.36-5.47"/><path class="b" d="M8.2,36.8c2.88-.2,5.89-.46,8.74.14,2.11.3,3.99,1.78,6.12,1.64,11.06,0,22.14,0,33.2,0,9.6,0,19.23,0,28.83,0,1.66.24,2.97-1.24,4.37-1.88,1.59-.84,3.45-1.48,5.24-1.7,5.54-.78,10.46,2.6,15.72,3.58,9.31,0,18.65,0,27.96,0,.42,0,1.33,0,1.75,0,.84-.17,1.87-.76,2.62-1.17,1.34-.76,2.92-1.46,4.37-1.99,5.68-1.9,11.58-3.53,16.6-6.91,3.05-1.95,5.96-4.3,8.74-6.62,3.11-2.82,6.94-5.5,11.36-4.96"/><path class="b" d="M8.2,33.84c23.87,0,47.76,0,71.63,0,2,0,4.12,0,6.12,0,1.26-.15,2.35-1.32,3.49-1.82,2.63-1.43,5.77-2.06,8.74-1.58,3.35.51,6.47,2.1,9.61,3.29,4.92.29,9.92.02,14.85.11,4.35,0,8.75,0,13.1,0,2-.02,4.12.05,6.12-.05.77-.32,1.84-.77,2.62-1.06,5-1.74,10.25-3.03,14.85-5.74,4.07-2.3,7.77-5.32,11.36-8.29,3.76-3.18,7.78-6.73,13.1-5.56"/><path class="b" d="M8.2,29.09h76.88c8.74-6.62,13.58-5.03,22.71-.47,1.01.6,2.37.47,3.49.47,1.7,0,3.54,0,5.24,0,4.93,0,9.92,0,14.85,0,4.06,0,8.17,0,12.23,0,4.45-.53,8.99-1.39,13.1-3.24,4.44-1.98,8.39-4.98,12.23-7.93,4.25-3.3,9.12-7.14,14.85-6.09"/><path class="b" d="M8.2,24.35h75.13c10.08-8.06,14.63-7,25.33-.95.44.22,1.3.63,1.75.82,1.39.25,2.97.09,4.37.13,3.18,0,6.43,0,9.61,0,9.02,0,18.06,0,27.08,0,1.7,0,3.54,0,5.24,0,2.48-.69,4.8-2.15,6.99-3.46,6.2-4.06,12.32-8.86,20.09-8.94"/><path class="b" d="M8.2,19.61c16.3,0,32.62,0,48.92,0,7.27,0,14.57,0,21.84,0,1.11-.06,2.49.22,3.49-.36,1.93-1.52,3.99-3.11,6.12-4.34,4.78-2.93,9.97-2.81,14.85-.17,2.94,1.47,5.7,3.47,8.74,4.76,6.09.28,12.25.02,18.35.11,7.27,0,14.57,0,21.84,0,4.35,0,8.75,0,13.1,0,2.54-1.45,5.11-3.09,7.86-4.13,3.49-1.01,6.99-2.24,10.48-3.25"/></svg>