<?xml version="1.0" encoding="UTF-8"?><svg id="a" xmlns="http://www.w3.org/2000/svg" width="1920" height="2400" viewBox="0 0 192 240"><defs><style>.b{fill:none;stroke:#fff;stroke-miterlimit:10;stroke-width:.4px;}.c{stroke-width:0px;}</style></defs><rect class="c" x="0" width="192" height="240"/><path class="b" d="M8.35,225.8c.35.52,1.17,1.41,1.74,1.67,31.68,0,63.38,0,95.06,0,6.38,0,12.8,0,19.19,0,1.15-.04,2.39-.7,3.49-1.02,1.39-.47,2.96-.96,4.36-1.38,2.87-.86,5.85-1.64,8.72-2.51,2.26-.72,4.62-1.5,6.98-1.81,5.18-.78,10.48-.42,15.7-.3,2.88.07,5.85.07,8.72-.13,3.78-.5,7.71-.38,11.34.9"/><path class="b" d="M8.35,217.94c1.42,1.51,2.81,3.41,4.36,4.79,35.17,0,70.35,0,105.52,0,6.09,0,12.22,0,18.31,0,3.28-.78,6.43-2.24,9.59-3.35,7.03-2.47,14.42-3.92,21.8-4.88,2.87-.32,5.83-.8,8.72-.79,2.35.08,4.77.63,6.98,1.4"/><path class="b" d="M8.35,211.92c2.56,2.02,5.13,4.22,7.85,6.02,6.67.14,13.39,0,20.06.05.46,0,1.29,0,1.74-.03.46-.2,1.29-.6,1.74-.8,1.67-.77,3.49-1.57,5.23-2.15,3.08-1.13,6.49-1.04,9.59-.07,2.96.77,5.77,2.29,8.72,3.05,5.22,0,10.48,0,15.7,0,11.04,0,22.1,0,33.14,0,7.26,0,14.55,0,21.8,0,3.47,0,7,0,10.47,0,1.42-.71,2.97-1.59,4.36-2.35,7.09-3.94,14.53-7.77,22.67-8.83,4.15-.76,8.43-.02,12.21,1.8"/><path class="b" d="M8.35,207.17c3.41,1.24,6.92,2.51,10.47,3.3,7.13,1.27,14.15-1.38,20.93-3.23,9.97-2.76,12.03-2.59,20.93,2.66,7.17,4.11,4.99,3.33,13.08,3.37,5.8,0,11.64,0,17.44,0,17.15,0,34.31,0,51.45,0,1.4-.09,3.04.25,4.36-.28,2.88-2.13,5.77-4.42,8.72-6.45,5.83-4.09,12.78-7.33,20.06-6.83,2.77.31,5.43,1.54,7.85,2.87"/><path class="b" d="M8.35,202.83c2.31-.07,4.68-.46,6.98-.64,2-.09,4.12-.16,6.1-.48,6.91-1.19,13.9-2.17,20.93-1.95,2.3.05,4.69-.11,6.98-.19,1.8.1,3.64.81,5.23,1.62,3.93,2.06,7.48,4.88,11.34,7.05.75.36,1.81.29,2.62.29,1.1,0,2.39,0,3.49,0,24.71,0,49.42,0,74.13,0,0,0,.87-.21.87-.21,0,0,.87-.76.87-.76.77-.69,1.85-1.63,2.62-2.32,2.75-2.43,5.64-4.9,8.72-6.91,5.06-3.34,11.38-5.33,17.44-4.23,2.47.6,4.82,1.89,6.98,3.19"/><path class="b" d="M8.35,197.76c2.35-.8,4.65-2.03,6.98-2.88,5.07-1.47,10.37-2.92,15.7-2.43,4.78.36,9.28,2.28,13.95,3.17,1.39.28,2.95.25,4.36.27,3.2.33,6.05,2.17,8.72,3.83,1.4.9,2.95,1.92,4.36,2.8,1.02.65,2.22,1.48,3.49,1.28,26.45,0,52.91,0,79.36,0,1.85.21,3.04-1.92,4.36-2.91,2.47-2.31,5.09-4.67,7.85-6.63,5.21-3.89,11.84-5.78,18.31-4.97,2.79.49,5.41,1.92,7.85,3.31"/><path class="b" d="M8.35,190.64c2.36-1.08,4.63-2.57,6.98-3.67,7.87-3.3,14.31-2.91,21.8,1.06,2.83,1.38,5.66,3.05,8.72,3.86,1.98.48,4.19.24,6.1,1.03,3.68,1.33,7,3.58,10.47,5.35,1.79,1.23,4.07.7,6.1.8,3.17,0,6.42,0,9.59,0,22.96,0,45.93,0,68.9,0,4.79-3.92,9.12-8.67,14.83-11.32,4.55-2.19,9.83-2.93,14.83-2.32,2.39.44,4.75,1.42,6.98,2.38"/><path class="b" d="M8.35,182.54c2.65-1.15,5.18-2.79,7.85-3.9,6.45-2.76,12.71-.88,18.31,2.8,4.18,2.47,8.11,6.12,13.08,6.79,3.93-.08,7.7,1.35,11.34,2.67,3.39,1.24,6.9,2.4,10.47,2.97,2.85.53,5.83.46,8.72.45,3.17,0,6.42,0,9.59,0,10.46,0,20.94,0,31.4,0,9,0,18.03,0,27.04,0,1.09-.04,2.44.15,3.49-.24.41-.38,1.33-1.13,1.74-1.51,1.93-1.65,4.02-3.34,6.1-4.79,7.45-5.37,17.26-7.93,26.16-5"/><path class="b" d="M8.35,175.19c3.26-1.11,6.3-2.95,9.59-3.97,7.35-1.95,13.67,3.66,19.19,7.71,2.89,2.1,5.97,4.48,9.59,5.02,1.7.14,3.53-.19,5.23-.09,4.97.14,9.91,1.1,14.83,1.71,3.16.41,6.41.72,9.59.88,2.88.16,5.86.09,8.72.54,1.74.27,3.59.75,5.23,1.37.79.3,1.86.77,2.62,1.14.77.08,1.84.07,2.62.07,18.89,0,37.8,0,56.69,0,9.06-6.67,19.55-13.88,31.4-11.98"/><path class="b" d="M8.35,169.41c3.59-.78,6.9-2.67,10.47-3.47,8.3-.86,15.01,7.82,21.8,11.53,3.14,1.87,6.06,2.44,9.59,1.43,3.42-.68,6.97-1.13,10.47-1.12,4.98-.03,9.92.94,14.83,1.69,2.87.48,5.88.38,8.72,1.03,2.38.52,4.78,1.4,6.98,2.45,1.7.69,3.29,2.19,5.23,1.91,18.6,0,37.21,0,55.81,0,4.17.09,3.48.17,6.98-2.25,2.82-1.92,5.75-3.88,8.72-5.57,4.75-2.74,10.14-4.77,15.7-4.67"/><path class="b" d="M8.35,165.3c3.29-.5,6.46-1.7,9.59-2.75,7.55-1.48,14.61,6.84,20.93,10.08,3.74,2.14,7.3,2.77,11.34,1.06,5.92-2.14,12.15-3.1,18.31-1.39,2.9.7,5.8,1.75,8.72,2.36,2.58.47,5.34.48,7.85,1.35,2.37.72,4.75,1.74,6.98,2.8.78.37,1.84.89,2.62,1.28.43.01,1.31.03,1.74.02,20.93-.06,41.87.11,62.79-.06,7.61-5.01,14.95-11.82,24.42-12.66"/><path class="b" d="M8.35,162.33c2.03-.29,4.15-.73,6.1-1.33,1.41-.41,2.89-1.15,4.36-1.33,8.71-.58,15.72,9.38,24.42,10.48,2.74.46,5.37-.65,7.85-1.66,4.11-1.65,8.67-2.68,13.08-1.74,4.26.8,8.13,3.01,12.21,4.37,1.65.59,3.51.7,5.23.89,1.42.21,2.99.6,4.36,1.03,2.34.62,4.61,1.88,6.98,2.35,4.93,0,9.9,0,14.83,0,11.62,0,23.26,0,34.88,0,6.38-.1,12.82.19,19.19-.11,6.87-4.54,13.4-10.61,21.8-11.96"/><path class="b" d="M8.35,160.05c2.03-.34,4.15-.83,6.1-1.46,1.69-.53,3.43-1.42,5.23-1.47,9.05.1,15.42,9.05,24.42,9.6,2.75.21,5.31-1.1,7.85-1.93,4.45-1.61,9.41-2.02,13.95-.54,3.57,1.06,6.92,2.91,10.47,4.05,2.51.85,5.29.59,7.85,1.2,1.41.28,2.97.68,4.36,1.07,2.58.17,5.26.03,7.85.07,5.51,0,11.06,0,16.57,0,16.85-.06,33.73.12,50.58-.07,6.34-3.94,12.51-8.97,20.06-10.24"/><path class="b" d="M8.35,159.57c3.27-.67,6.47-1.85,9.59-3.01,6.56-1.79,12.66,2.41,18.31,5.15,3.23,1.59,6.78,3.16,10.47,2.94,2.65-.27,5.26-1.23,7.85-1.8,3.11-.76,6.39-1.21,9.59-1.03,4.13.18,8.16,1.4,12.21,2.13,1.98.39,4.11.31,6.1.48,2.62.25,5.3.8,7.85,1.43,1.7.09,3.53.03,5.23.04,22.38,0,44.77,0,67.15,0,6.48-3.81,13.08-8.71,20.93-8.62"/><path class="b" d="M8.35,159.43c9.07-2.46,12.71-6.51,22.67-2.92,2.36.84,4.72,1.97,6.98,3.04,1.65.71,3.36,1.86,5.23,1.63,3.17,0,6.42,0,9.59,0,1.99-.08,4.16.23,6.1-.27,7.96-2.07,16.23-2.53,24.42-2.31,3.2.14,6.46.61,9.59,1.3,2.3.42,4.6,1.48,6.98,1.29,16.57,0,33.14,0,49.71,0,2.58,0,5.26,0,7.85,0,1.09-.01,2.4.05,3.49-.07.76-.43,1.85-1.02,2.62-1.45,6.24-3.56,12.69-6.74,20.06-4.88"/><path class="b" d="M8.35,156.44c2-.03,4.11.06,6.1-.05,3.38-1.39,6.82-2.97,10.47-3.49,3.52-.54,7.17.08,10.47,1.37,1.43.55,2.98,1.27,4.36,1.94,1.06.38,2.38.19,3.49.23,1.7,0,3.53,0,5.23,0,5.51,0,11.06,0,16.57,0,1.48.07,2.96-.92,4.36-1.31,2.25-.81,4.63-1.58,6.98-2.04,2.26-.47,4.68-.51,6.98-.66,4.64-.3,9.4-.22,13.95.81,3.27.72,6.51,1.87,9.59,3.16,4.63.1,9.32,0,13.95.04,10.46,0,20.94,0,31.4,0,1.99,0,4.11,0,6.1,0,1.44-.49,2.96-1.28,4.36-1.87,7.39-3.28,13.13-4.82,20.93-1.51"/><path class="b" d="M8.35,151.71c4.05,0,8.16,0,12.21,0,3.59-1.52,7.34-3.22,11.34-2.94,3.4.1,6.53,1.63,9.59,2.94,5.22,0,10.48,0,15.7,0,2.29,0,4.68,0,6.98,0,1.71-.08,3.7.34,5.23-.63,2.52-1.22,5.14-2.48,7.85-3.21,2.85-.64,5.87-.79,8.72-1.49,11.64-2.67,17.71-.75,27.91,4.83,1.26.78,2.95.44,4.36.51,2.29,0,4.69,0,6.98,0,9.58,0,19.19,0,28.78,0,7.09-1.76,14.42-4.27,21.8-2.83,2.71.55,5.27,1.89,7.85,2.83"/><path class="b" d="M8.35,146.97c3.76,0,7.58,0,11.34,0,1.7,0,3.53,0,5.23,0,.46-.23,1.28-.66,1.74-.86,3.23-1.52,6.96-2.16,10.47-1.33,2.09.45,4.15,1.36,6.1,2.2,4.63,0,9.32,0,13.95,0,4.34-.05,8.75.11,13.08-.07,1.97-.86,4.06-1.79,6.1-2.46,2.84-.91,5.96-1.06,8.72-2.27,6.32-2.53,13.14-5.7,20.06-3.72,3.1.76,5.93,2.47,8.72,3.95,4.78,2.55,10.29,3.81,15.7,3.09,3.48-.37,6.96-1.31,10.47-1.46,1.71-.1,3.53.3,5.23.45,1.99.17,4.11.18,6.1.15,5.51-.12,11.11-.23,16.57.66,2.61.42,5.3.97,7.85,1.69,2.58,0,5.26,0,7.85,0"/><path class="b" d="M8.35,142.24c7.26,0,14.55,0,21.8,0,1.99-.02,4.02-.98,6.1-.84,2.05-.1,4.1.66,6.1.84,2.59,0,5.26,0,7.85,0,6.38,0,12.8,0,19.19,0,2,0,4.11,0,6.1,0,1.11-.16,2.38-.56,3.49-.75,3.87-.45,7.26-2.66,10.47-4.71,5.6-3.66,12.24-7.99,19.19-5.76,3.3,1.13,6.29,3.19,9.59,4.34,7.3,2.95,13.46,1.66,20.93.97,2.31-.18,4.69.26,6.98.48,3.18.31,6.44.6,9.59,1.15,5.07.84,10.02,2.48,14.83,4.26,4.34.07,8.74,0,13.08.03"/><path class="b" d="M8.35,137.5c16.86,0,33.73,0,50.58,0,5.8,0,11.64,0,17.44,0,2.58-.04,5.27.1,7.85-.07,1.15-.64,2.44-1.52,3.49-2.31,6.47-4.62,13.85-13.92,22.67-11.17,7.26,3.22,13.51,7.2,21.8,7.3,4.34.1,8.74-.35,13.08-.05,4.96.03,10.03.12,14.83,1.52,2.67.75,5.34,1.83,7.85,3,1.4.54,2.84,1.64,4.36,1.79,3.76,0,7.58,0,11.34,0"/><path class="b" d="M8.35,132.77c26.16-.01,52.33.02,78.49-.01,6.77-4.22,14.9-15.43,23.55-13.47,4.52,1.5,8.61,4.17,13.08,5.79,5.52,2.24,11.59,2.39,17.44,1.74,10.29-.73,16.01-3.58,26.16,1.57,10.24,5.26,4.59,4.36,16.57,4.38"/><path class="b" d="M8.35,128.03c17.44,0,34.89,0,52.33,0,6.09,0,12.22,0,18.31,0,2,0,4.11,0,6.1,0,1.4-.08,3.03.23,4.36-.26,6.69-3.63,14.5-12.17,22.67-9.11,6.45,2.43,12.98,5.63,20.06,5.1,2.92-.14,5.87-.76,8.72-1.38,2.33-.44,4.74-1.04,6.98-1.84,7.18-2.67,13.19-3.22,20.06.79,3.59,1.99,6.88,4.62,10.47,6.62,1.69.19,3.54.05,5.23.09"/><path class="b" d="M8.35,123.3c18.89,0,37.8,0,56.69,0,6.38,0,12.8,0,19.19,0,2.29,0,4.69,0,6.98,0,.78,0,1.84.03,2.62-.09.78-.28,1.84-.68,2.62-.98,4.68-1.74,9.78-3.87,14.83-2.56,11.42,3.61,17.05,2.85,27.91-1.93,2.25-.97,4.74-1.62,6.98-2.64,9.04-4.4,14.82-5.69,23.55.48,2.9,1.98,5.67,4.35,8.72,6.1.74.44,1.84,1.01,2.62,1.39.72.29,1.85.23,2.62.23"/><path class="b" d="M8.35,118.56c31.97,0,63.96,0,95.93,0,7.84,0,15.71,0,23.55,0,1.24-.2,2.42-1.2,3.49-1.82,2.02-1.31,4.1-2.8,6.1-4.13,3.45-2.42,7.52-3.83,11.34-5.55,8.7-3.9,14.91-.9,21.8,4.76,2.49,1.98,5.02,4.13,7.85,5.61.73.39,1.81.91,2.62,1.13.76,0,1.85,0,2.62,0"/><path class="b" d="M8.35,113.82c40.11-.03,80.24.05,120.35-.03,6.32-5.64,10.59-11.27,19.19-13.53,11.73-3.77,19.02,6.08,27.91,11.55,1.34.76,2.89,1.55,4.36,2.01,1.09,0,2.4,0,3.49,0"/><path class="b" d="M8.35,109.09c9.29,0,18.61,0,27.91,0,.52.09,1.31-.14,1.74-.42.76-.33,1.81-.71,2.62-.92,1.95-.52,4.09-.68,6.1-.55,4.1.29,8.18,1.13,12.21,1.89,7.55,0,15.13,0,22.67,0,15.69-.07,31.41.14,47.09-.08,3.9-3.92,7.56-8.32,12.21-11.39,6.8-4.24,14.34-3.12,20.93.9,4.94,2.84,9.44,6.61,14.83,8.62,2.23.78,4.57,1.99,6.98,1.95"/><path class="b" d="M8.35,104.35h24.42c9.43-7.49,14.98-5.62,25.29-1.41,1.09.44,2.39.95,3.49,1.37,1.4.08,2.96.03,4.36.04,3.47,0,7,0,10.47,0,17.73-.05,35.47.1,53.2-.05,12.15-10.98,17.23-14.37,33.14-7.43,3.13,1.29,6.33,2.66,9.59,3.57,3.8.87,7.65,1.82,11.34,3.12"/><path class="b" d="M8.35,99.62c7.54-.08,15.14.17,22.67-.1,7.28-6.37,12.91-7.94,21.8-3.63,3.14,1.27,6.26,3.07,9.59,3.72,3.17,0,6.42,0,9.59,0,17.73,0,35.47,0,53.2,0,12.99.1,6.75.35,18.31-4.05,3.62-1.24,7.59-.98,11.34-.57,4.62.54,9.3,1.1,13.95,1.02,2.29.01,4.69-.21,6.98-.19,2.68.12,5.37.94,7.85,1.91"/><path class="b" d="M8.35,94.88h20.06c7.87-5.94,13.28-8.3,22.67-3.78,10.21,4.49,13.92,3.6,24.42,2.79,2.04-.09,4.16.32,6.1.94,3.17.11,6.42.01,9.59.04,23.25,0,46.52,0,69.77,0,1.09-.02,2.41.06,3.49-.09,1.09-.35,2.41-.79,3.49-1.17,5.8-2.12,9.56-3.49,15.7-1.15"/><path class="b" d="M8.35,90.15h14.83c7.63-5.27,14.02-9.74,23.55-5.89,3.63,1.5,7.37,3.13,11.34,3.35,5.42.46,10.52-1.82,15.7-3.01,4.6-1.26,9,1.06,13.08,2.91,1.1.51,2.4,1.14,3.49,1.68.77.36,1.74.98,2.62.96,2.88,0,5.84,0,8.72,0,22.09,0,44.19,0,66.28,0,.41,0,1.33,0,1.74,0,1.15-.34,2.38-1.1,3.49-1.53,3.26-1.45,7.02-1.49,10.47-.75"/><path class="b" d="M8.35,85.41c2.58-.08,5.29.18,7.85-.14,7.17-3.45,13.2-10.77,21.8-10.16,6.76.37,12.29,5.75,19.19,5.36,3.98-.09,7.75-1.68,11.34-3.27,3.26-1.39,6.85-3.1,10.47-2.3,6.68,2.2,12.33,6.71,18.31,10.28,1.05.38,2.39.19,3.49.23,1.7,0,3.53,0,5.23,0,5.22,0,10.48,0,15.7,0,14.82,0,29.66,0,44.48,0,1.39-.06,3,.18,4.36-.2.38-.29,1.33-.84,1.74-1.1,3.36-2.05,7.54-2.4,11.34-1.6"/><path class="b" d="M8.35,80.68c1.4-.03,2.97.09,4.36-.1,3.5-2.54,7.19-4.94,10.47-7.78,6.88-5.67,12.67-7.74,20.93-3.33,4.67,2.52,9.34,4.92,14.83,3.83,3.36-.59,6.53-2.12,9.59-3.55,2.98-1.36,6.23-2.93,9.59-2.49,2.15.39,4.19,1.58,6.1,2.6,3.31,1.87,6.49,4.11,9.59,6.29,1.98,1.39,4.08,2.87,6.1,4.2,1.01.55,2.38.29,3.49.34,21.51,0,43.03,0,64.54,0,.4,0,1.33,0,1.74,0,.9-.25,1.84-1.12,2.62-1.61,3.29-2.22,7.55-2.56,11.34-1.63"/><path class="b" d="M8.35,75.94h4.36c3.85-3.27,7.69-6.68,11.34-10.19,6.14-5.69,11.6-7.61,19.19-3.16,4.27,2.5,8.81,5.28,13.95,5.03,5.87-.09,10.99-3.45,16.57-4.82,3.56-.96,6.51.3,9.59,1.96,3.29,1.71,6.5,3.75,9.59,5.78,1.7,1.12,3.53,2.34,5.23,3.46,1.33.79,2.69,2.16,4.36,1.93,22.96-.02,45.94.05,68.9-.03,3.43-2.65,8.04-3.33,12.21-2.35"/><path class="b" d="M8.35,71.21c1.99-.03,4.11.08,6.1-.07,1.33-1.44,3-2.83,4.36-4.22,2.02-2.07,4.03-4.38,6.1-6.4,5.85-5.82,11.11-7.3,18.31-2.69,4.69,3.06,9.91,6,15.7,5.73,6.26,0,12.03-3.7,18.31-3.23,3.09.47,5.91,2.2,8.72,3.46,4.43,2.19,8.79,4.65,13.08,7.1,1.02.54,2.38.28,3.49.33,2,0,4.11,0,6.1,0,25,.02,50.01-.03,75,0"/><path class="b" d="M8.35,66.47h7.85c7.66-6.17,13.7-19.12,25.29-12.03,4.63,2.89,9.25,6.31,14.83,6.99,5.94.96,11.65-1.5,17.44-2.36,3.48-.6,6.47.64,9.59,1.99,3.8,1.55,7.63,3.23,11.34,4.98,1.25.76,2.96.32,4.36.43,2,0,4.11,0,6.1,0,26.16,0,52.33,0,78.49,0"/><path class="b" d="M8.35,61.74c3.43-.11,7.08.24,10.47-.16,5.81-5.57,12.15-13.41,20.93-8.59,3.6,1.83,6.7,4.69,10.47,6.22,13.06,5.52,21.14-6.81,31.4-1.97,3.25,1.27,6.49,2.78,9.59,4.36,1.67.31,3.54.09,5.23.15,29.07,0,58.14,0,87.21,0"/><path class="b" d="M8.35,57c4.34-.02,8.74.03,13.08-.02,7.46-6.5,12.97-8.84,21.8-3.02,1.69,1,3.41,2.3,5.23,3.04.79,0,1.83,0,2.62,0,2.59,0,5.26,0,7.85,0,1.4-.1,3.05.28,4.36-.32,13.82-6.78,13.42-7.57,27.04.32,31.1,0,62.21,0,93.32,0"/><path class="b" d="M8.35,52.27c5.22,0,10.48,0,15.7,0,2.05-.76,3.95-2.22,6.1-2.77,2.51-.8,5.31-.83,7.85-.12,2.11.58,4.19,1.6,6.1,2.64,1.63.52,3.54.15,5.23.25,2.88,0,5.84,0,8.72,0,2,0,4.11,0,6.1,0,5.02-2.65,10.56-7.63,16.57-5.26,3.12,1.17,6.04,3.04,8.72,5,.75.33,1.82.26,2.62.26,1.4,0,2.96,0,4.36,0,3.76,0,7.58,0,11.34,0,8.13,0,16.29,0,24.42,0,17.15,0,34.31,0,51.45,0"/><path class="b" d="M8.35,47.53c4.34,0,8.74,0,13.08,0,2-.06,4.12.14,6.1-.12,1.08-.43,2.36-.87,3.49-1.13,3.15-.76,6.53-.51,9.59.51.46.14,1.3.46,1.74.63,1.39.2,2.96.07,4.36.1,2.88,0,5.84,0,8.72,0,3.17,0,6.42,0,9.59,0,1.42-.77,2.95-1.73,4.36-2.51,3.67-2.14,8.09-3.88,12.21-1.89,2.76,1.08,5.4,2.67,7.85,4.34,6.09.17,12.22.01,18.31.06,8.13,0,16.29,0,24.42,0,17.15,0,34.31,0,51.45,0"/><path class="b" d="M8.35,42.8c6.38,0,12.8,0,19.19,0,1.14.1,2.39-.43,3.49-.64,1.97-.42,4.1-.58,6.1-.4,2.34.12,4.62,1.24,6.98,1.03,6.09,0,12.22,0,18.31,0,1.4,0,2.96,0,4.36,0,1.19-.13,2.39-.97,3.49-1.4,1.91-.85,4.01-1.64,6.1-1.88,4.32-.46,8.23,2.06,12.21,3.29,9.29,0,18.61,0,27.91,0,22.38,0,44.77,0,67.15,0"/><path class="b" d="M8.35,38.06c6.38,0,12.8,0,19.19,0,2.01-.2,4.07-.88,6.1-.9,2.64-.22,5.28.46,7.85.9,1.7,0,3.53,0,5.23,0,45.64,0,91.28,0,136.92,0"/><path class="b" d="M8.35,33.33c5.22,0,10.48,0,15.7,0,3.11-.85,6.34-1.69,9.59-1.62,2.98-.06,5.88.87,8.72,1.62,3.17,0,6.42,0,9.59,0,10.75,0,21.52,0,32.27,0,4.93,0,9.9,0,14.83,0,1.7-.16,3.52-.41,5.23-.38,1.41-.02,2.97.22,4.36.38,2,0,4.11,0,6.1,0,6.38,0,12.8,0,19.19,0,16.57,0,33.14,0,49.71,0"/><path class="b" d="M8.35,28.59c3.47,0,7,0,10.47,0,3.18-.78,6.34-1.97,9.59-2.46,2.86-.47,5.87-.46,8.72.1,1.43.28,2.99.72,4.36,1.21,1.11.34,2.32,1.07,3.49,1.15,7.26,0,14.55,0,21.8,0,7.84,0,15.71,0,23.55,0,1.82-.28,3.51-1.54,5.23-2.17,3.02-1.33,6.27-2.5,9.59-2.68,3.02-.28,5.92.85,8.72,1.79,3.1.9,6.38,1.33,9.59,1.59,3.46.28,7.01.41,10.47.78,2.01.14,4.09.74,6.1.7,14.53,0,29.08,0,43.61,0"/><path class="b" d="M8.35,23.86c2.29,0,4.68,0,6.98,0,4.05-.99,8.09-2.35,12.21-3.06,3.45-.58,7.06-.5,10.47.29,1.74.39,3.57.99,5.23,1.61,1.1.36,2.31,1.09,3.49,1.15,7.26,0,14.55,0,21.8,0,6.38,0,12.8,0,19.19,0,5.3-2.73,10.4-6.63,16.57-7.02,3.99-.42,7.67,1.44,11.34,2.69,4.19,1.42,8.66,2.18,13.08,2.04,6.1-.14,12.23-1.74,18.31-.57,3.56.56,7.06,1.72,10.47,2.86,8.71,0,17.45,0,26.16,0"/><path class="b" d="M8.35,19.12c2.29-.02,4.69.05,6.98-.04,6.03-1.27,12.08-3.35,18.31-2.89,4.22.18,8.21,1.75,12.21,2.93,10.46,0,20.94,0,31.4,0,2.88,0,5.84,0,8.72,0,1.87-.47,3.5-1.98,5.23-2.82,2.7-1.53,5.65-2.91,8.72-3.48,8.25-1.79,14.86,4.22,22.67,5.38,5.74.99,11.32-1.28,16.57-3.32,6.23-2.63,13.15-1.78,19.19.99,1.42.62,2.98,1.37,4.36,2.08,1.03.53,2.27,1.33,3.49,1.16,5.8,0,11.64,0,17.44,0"/></svg>