<?xml version="1.0" encoding="UTF-8"?><svg id="a" xmlns="http://www.w3.org/2000/svg" width="1920" height="2400" viewBox="0 0 192 240"><defs><style>.b{fill:none;stroke:#fff;stroke-miterlimit:10;stroke-width:.4px;}.c{stroke-width:0px;}</style></defs><rect class="c" width="192" height="240"/><path class="b" d="M8.08,232.69c34.7,0,69.41,0,104.11,0,5.82,0,11.68,0,17.5,0,2.59,0,5.28,0,7.87,0,3.6-.83,7.4-1.44,10.5-3.59,7.94-5.22,14.13-10,23.62-4.52,3.98,2.29,7.77,5.15,12.25,6.43"/><path class="b" d="M8.08,227.94c34.12,0,68.24,0,102.36,0,8.45,0,16.92,0,25.37,0,1.76-.06,3.53-.96,5.25-1.29,3.32-.63,6.53-1.89,9.62-3.24,8.77-3.87,14.71-2.49,22.75,2.24,1.36.77,2.93,1.61,4.37,2.22,1.99.15,4.12.03,6.12.07"/><path class="b" d="M8.08,223.19c34.99,0,69.99,0,104.98,0,7.57,0,15.17,0,22.75,0,1.76-.06,3.51-1.03,5.25-1.33,2.87-.62,5.85-1.13,8.75-1.54,6.54-1,13.16.39,19.25,2.79,4.93.21,9.93.02,14.87.08"/><path class="b" d="M8.08,218.44c28.87,0,57.74,0,86.61,0,9.91,0,19.84,0,29.74,0,3.48,0,7.02,0,10.5,0,1.4,0,2.97,0,4.37,0,1.1-.17,2.4-.49,3.5-.64,2.58-.38,5.3-.26,7.87.08,1.7.22,3.52.68,5.25.56,9.32,0,18.67,0,27.99,0"/><path class="b" d="M8.08,213.69c37.91,0,75.82,0,113.73,0,13.12,0,26.25,0,39.37,0,4.36,0,8.77,0,13.12,0,2-.06,4.14.15,6.12-.13,1.1-.6,2.42-1.35,3.5-1.99"/><path class="b" d="M8.08,206.43c2.29.31,4.73.31,7-.16,3.44-.86,6.91-2.11,10.5-2.16,5.54-.27,10.14,2.39,14.87,4.83,5.82,0,11.68,0,17.5,0,23.62,0,47.24,0,70.86,0,10.49,0,21,0,31.49,0,2.89,0,5.86,0,8.75,0,1.7-.11,3.62.27,5.25-.26,3.29-1.64,6.39-3.78,9.62-5.52"/><path class="b" d="M8.08,196.99c11.01-.05,15.7-6.14,27.12.42,3.65,1.96,6.77,4.99,10.5,6.78,1.71,0,3.54,0,5.25,0,21.28,0,42.58,0,63.86,0,16.62,0,33.25,0,49.87,0,1.09,0,2.41.03,3.5-.04,1.42-.86,2.98-1.88,4.37-2.77,3.65-2.18,7.38-4.47,11.37-5.97"/><path class="b" d="M8.08,187.12c12.41-3.18,18.81-4.86,29.74,3.31,3.91,2.78,7.64,6.12,12.25,7.71,1.39.47,2.91,1.13,4.37,1.3,1.41,0,2.97,0,4.37,0,3.48,0,7.02,0,10.5,0,10.78,0,21.59,0,32.37,0,20.12,0,40.25,0,60.36,0,1.23-.19,2.44-1.1,3.5-1.7,2.05-1.29,4.13-2.81,6.12-4.19,3.76-2.48,7.86-4.76,12.25-5.88"/><path class="b" d="M8.08,177.77c8.72-4.36,18.38-2.97,26.25,2.49,5.51,3.52,10.35,8.32,16.62,10.5,4.28,1.55,8.76,2.65,13.12,3.93,7.28,0,14.59,0,21.87,0,22.16,0,44.33,0,66.49,0,1.7,0,3.55,0,5.25,0,2.18-.66,4.24-1.97,6.12-3.22,2.97-2.02,5.77-4.47,8.75-6.49,3.5-2.15,7.35-4.07,11.37-4.99"/><path class="b" d="M8.08,170.34c8.19-4.74,18.01-1.08,25.37,3.59,7.55,4.72,13.71,10.31,22.75,12.09,4.71,1.1,9.43,2.33,14,3.93,5.23,0,10.51,0,15.75,0,5.53,0,11.1,0,16.62,0,.86-.02,1.85-.61,2.62-.94,1.63-.71,3.47-1.34,5.25-1.48,5.23.1,10.55-.14,15.75.6,2.92.4,5.88,1.08,8.75,1.73,2.87.24,5.86.04,8.75.1,3.77-.05,7.61.11,11.37-.07,1.8-.6,3.64-1.53,5.25-2.55,4.35-2.72,8-6.51,12.25-9.38,3.55-2.05,7.41-3.85,11.37-4.95"/><path class="b" d="M8.08,165.56c11.18-4.69,22.92,3.65,32.37,8.98,8.34,4.93,10.4,6.09,20.12,7.19,2.93.41,5.91.99,8.75,1.84,1.73.44,3.49,1.31,5.25,1.62,8.45,0,16.92,0,25.37,0,1.1-.02,2.41.07,3.5-.11,1.65-.86,3.46-1.76,5.25-2.3,1.36-.44,2.96-.44,4.37-.46,1.7-.06,3.55-.2,5.25-.27,3.79-.19,7.67.1,11.37.97,1.72.39,3.56.92,5.25,1.41,1.08.27,2.36.8,3.5.76,3.48,0,7.02,0,10.5,0,2.35-.02,4.86.29,7-.9,6.02-2.64,10.48-7.74,15.75-11.51,1.55-1.15,3.5-1.92,5.25-2.7,2.25-1.04,4.61-2.15,7-2.86"/><path class="b" d="M8.08,163.54c11.5-2.23,22.29,3.87,32.37,8.57,3.21,1.47,6.34,3.32,9.62,4.63,2.79.94,5.84.99,8.75.99,3.79-.03,7.67.06,11.37.93,1.11.25,2.42.62,3.5.97,1.08.36,2.33.92,3.5.8,10.49,0,21,0,31.49,0,1.99-.36,4.13-.37,6.12-.65,3.17-.45,6.41-1.07,9.62-1.13,4.14-.13,8.26.77,12.25,1.78,5.82,0,11.68,0,17.5,0,6.54-1.88,11.24-7.39,16.62-11.26,1.79-1.41,4.03-2.33,6.12-3.19,2.26-1.01,4.62-2.11,7-2.83"/><path class="b" d="M8.08,163.26c4.36-.07,8.81.1,13.12.72,5.7.96,11.25,2.84,16.62,4.96,4.19,1.55,8.16,3.76,12.25,5.52,2.51.83,5.26.85,7.87.69,3.47-.23,7.02-.64,10.5-.36,1.73.13,3.57.44,5.25.87,1.1.06,2.4.03,3.5.04,15.16,0,30.33,0,45.49,0,7.86,0,15.76,0,23.62,0,3.48-.03,7.03.07,10.5-.05,2.8-1.19,5.44-2.95,7.87-4.76,2.56-1.89,5.1-4.01,7.87-5.59,1.32-.76,2.96-1.27,4.37-1.83,2.25-.87,4.63-1.78,7-2.27"/><path class="b" d="M8.08,162.01c4.65.13,9.35.03,14,.17,4.44.23,8.91,1.05,13.12,2.47,3.62,1.21,7.15,2.86,10.5,4.68.79.43,1.84,1.03,2.62,1.48,1.68.28,3.55.08,5.25.14,20.12,0,40.25,0,60.36,0,12.24,0,24.5,0,36.74,0,1.4-.04,2.99.12,4.37-.13,2.38-.52,4.79-1.4,7-2.42,3.51-1.59,6.87-3.7,10.5-5.03,3.7-1.05,7.56-1.94,11.37-2.45"/><path class="b" d="M8.08,159.37c5.24-.26,10.51-.75,15.75-1.05,4.8-.19,9.66.78,14,2.86,3.06,1.36,5.86,3.36,8.75,5.01,6.4,0,12.84,0,19.25,0,16.91,0,33.83,0,50.74,0,10.78-.11,21.6.31,32.37-.37,7.15-.3,14.02-2.53,21-3.92,2.27-.46,4.7-.38,7-.39,2.3-.07,4.7-.3,7-.39"/><path class="b" d="M8.08,155.42c3.73-.84,7.59-1.27,11.37-1.77,6.11-1.16,12-1.08,17.5,2.15,2.12,1.17,4.21,2.67,6.12,4.14.46.34,1.3,1.02,1.75,1.37,1.09.22,2.4.11,3.5.13,9.03,0,18.09,0,27.12,0,23.33,0,46.66,0,69.99,0,1.09,0,2.41,0,3.5,0,1.71-.27,3.55-.68,5.25-1.01,4.02-.8,8.14-1.55,12.25-1.62,3.56-.17,7.07.72,10.5,1.55,2.27.4,4.7.46,7,.44"/><path class="b" d="M8.08,150.51c1.98-.63,4.08-1.27,6.12-1.68,1.69-.33,3.55-.43,5.25-.75,5.5-1.12,10.85-1.16,15.75,1.92,2.17,1.29,4.24,2.97,6.12,4.64,1,.81,2.05,2.3,3.5,2.05,8.45,0,16.92,0,25.37,0,26.83,0,53.66,0,80.48,0,1.09-.02,2.41.05,3.5-.08.76-.27,1.85-.62,2.62-.85,2.24-.66,4.66-1.16,7-1.25,3.63-.25,7.16.92,10.5,2.18,3.18,0,6.44,0,9.62,0"/><path class="b" d="M8.08,145.29c2.26-.68,4.65-1.35,7-1.65,2.6-.16,5.28-.5,7.87-.71,7.47-.76,13.45,3.86,18.37,8.92,35.56.26,71.16,0,106.73.09,2.88-.09,5.89.19,8.75-.14,1.64-.77,3.48-1.47,5.25-1.87,2.26-.51,4.74-.55,7,0,1.82.34,3.51,1.46,5.25,2,3.18,0,6.44,0,9.62,0"/><path class="b" d="M8.08,140.31c3.18-.26,6.43-.48,9.62-.4,2.01-.04,4.12-.25,6.12-.2,5.34-.02,10.19,2.78,14,6.33.37.47,1.17,1.01,1.75,1.15.46,0,1.3,0,1.75,0,1.71,0,3.54,0,5.25,0,4.94,0,9.93,0,14.87,0,14.28,0,28.58,0,42.87,0,15.16,0,30.33,0,45.49,0,2,0,4.12,0,6.12,0,1.25.18,2.4-.97,3.5-1.41,1.88-.94,4.02-1.69,6.12-1.92,2.35-.26,4.85.18,7,1.16,1.46.57,2.83,1.83,4.37,2.17,2.3,0,4.7,0,7,0"/><path class="b" d="M8.08,134.94c4.6.83,9.33,1.22,14,.82,7.43-.49,11.18,2.24,16.62,6.68,29.45,0,58.91,0,88.36,0,6.4,0,12.84,0,19.25,0,2.89,0,5.86,0,8.75,0,1.78-.79,3.45-2.14,5.25-2.91,4.63-2.36,10.25-2.43,14.87-.03,1.67.76,3.52,1.5,5.25,2.13,1.06.38,2.35.93,3.5.81"/><path class="b" d="M8.08,128.73c14.28,4.92,18.62-4.55,31.49,8.81,3.74.39,7.61.04,11.37.15,6.7,0,13.43,0,20.12,0,18.95,0,37.91,0,56.86,0,5.82,0,11.68,0,17.5,0,8.28.11,4.54.23,11.37-3.47,8.61-4.88,18.55-2.64,27.12,1.14"/><path class="b" d="M8.08,121.83c2.83.76,5.82,1.25,8.75,1.23,2.02-.05,4.12-.48,6.12-.69,8.73-1.29,13.92,4.77,19.25,10.57,34.41-.02,68.82.04,103.23-.02,7-6.81,14-8.9,23.62-7.78,2.59.31,5.29.2,7.87.44,2.42.33,4.83,1.25,7,2.37"/><path class="b" d="M8.08,115.01c2.89.1,5.87.05,8.75-.2,2.32-.26,4.68-.93,7-1.16,6.52-.92,11.86,3.8,15.75,8.47,1.78,1.89,3.23,4.44,5.25,6.08h96.23c7.86-10.67,13.54-12.41,26.25-9.31,2.27.43,4.7.75,7,.41,3.29-.75,6.74.25,9.62,1.88"/><path class="b" d="M8.08,109.56c3.15-.93,6.41-1.74,9.62-2.42,2.56-.65,5.21-1.52,7.87-1.49,9.88.32,14.88,11.62,21,17.79,20.12,0,40.25,0,60.36,0,6.99,0,14.01,0,21,0,2.3,0,4.7,0,7,0,1.4-.11,3.1.32,4.37-.38,4.17-6.04,9.24-12.99,17.5-12.1,3.59.3,7.04,1.68,10.5,2.6,7.66,2.28,8.79-2.05,16.62,2.16"/><path class="b" d="M8.08,105.07c3.53-1.98,7.42-3.29,11.37-4.12,4.88-1.38,9.83-.97,14,2.1,6.14,4.23,9.99,11.01,15.75,15.65,23.62,0,47.24,0,70.86,0,4.06,0,8.18,0,12.25,0,1.4-.1,3.06.28,4.37-.32,1.11-1.25,2.41-2.77,3.5-4.04,9.31-11.62,14.95-8.07,27.12-4.08,7.41,2.25,8.81-1.72,16.62,1.9"/><path class="b" d="M8.08,100.93c2.16-1.36,4.53-2.63,7-3.29,3.41-.72,7.01-1.12,10.5-.81,4.79.45,9.23,2.69,13.12,5.41,2.37,1.64,4.71,3.52,7,5.27,2.1,1.64,4.4,3.28,7,4.02,4.83,1.42,10.02.97,14.87,2.3,6.09.3,12.27.02,18.37.11,10.2,0,20.42,0,30.62,0,4.06,0,8.18,0,12.25,0,4.1-1.92,7.74-4.81,11.37-7.48,7.89-6.72,13.37-3.4,21.87-.23,2.79,1.04,5.76,1.95,8.75,2.12,1.71.14,3.56-.18,5.25-.39,2.66-.21,5.4.4,7.87,1.34"/><path class="b" d="M8.08,97.02c5.77-3.77,10.15-3.15,16.62-2.36,6.17.87,12.39,1.88,18.37,3.64,2.97.78,5.71,2.5,8.75,3.01,4.34.68,8.89.31,13.12,1.66,3.52,1.05,6.75,3.04,9.62,5.29.89,1.02,2.26.99,3.5.93,1.1,0,2.4,0,3.5,0,3.77,0,7.6,0,11.37,0,2.89,0,5.86,0,8.75,0,1.4,0,2.97,0,4.37,0,.83-.24,1.83-.87,2.62-1.21,1.32-.63,2.94-.74,4.37-.87,1.73-.22,3.57-.61,5.25-1.06,5.61-1.53,11.06-3.71,16.62-5.38,11.87-3.65,11.49-3.12,22.75,1.75,3.04,1.27,6.32,2.26,9.62,2.49,6.72.43,9.56-1.81,16.62,1.01"/><path class="b" d="M8.08,93.13c6.98-3.92,11.28-.92,18.37-.07,3.79.5,7.67.04,11.37-.81,2.57-.56,5.23-1.27,7.87-1.29,1.43-.03,2.96.43,4.37.57,3.47.29,7.07-.17,10.5.57,7.25,1.48,12.38,7.36,17.5,12.25,8.72.24,17.51.08,26.25.06,1.86-1.42,3.88-2.95,6.12-3.71,3.08-.54,6.01-1.83,8.75-3.3,4.86-2.6,10.11-5.04,15.75-4.88,3.21.09,6.49.59,9.62,1.28,2.76.86,5.32,2.43,7.87,3.75,4.25,2.33,9.12,3.86,14,3.17,7.21-1.04,10.27-2.88,17.5.62"/><path class="b" d="M8.08,88.94c2.98-1.38,6.45-1.98,9.62-.93,4.77,1.49,9.92,3.13,14.87,1.46,4.64-1.33,8.5-4.61,13.12-5.94,1.97-.49,4.12-.05,6.12-.29,4.15-.41,8.57-.25,12.25,1.95,4.1,2.34,7.34,5.99,10.5,9.44,1.68,1.64,3.16,3.95,5.25,5.07,4.06,0,8.18,0,12.25,0,2.59,0,5.28,0,7.87,0,1.7-.07,3.57.17,5.25-.16,1.6-1.18,3.38-2.44,5.25-3.14,1.45-.39,3.07-.87,4.37-1.64,3.87-2.2,7.29-5.27,11.37-7.1,4.45-2.18,9.57-1.59,14,.36,4.05,1.4,7.67,3.79,11.37,5.88,3.68,2.07,8.1,3.07,12.25,1.96,8.46-2.33,11.42-6,20.12-.42"/><path class="b" d="M8.08,84.44c4.48-2.26,7.62-2.05,12.25-.52,5.05,1.63,10.13,1.63,14.87-.94,3.82-1.83,7.2-4.83,11.37-5.87,1.39-.25,2.97-.09,4.37-.24,2.59-.21,5.3-.46,7.87.05,9.77,2.14,14.59,12.1,21.87,17.99,6.11.11,12.26,0,18.37.04,2.59,0,5.28,0,7.87,0,.85-.13,1.84-.74,2.62-1.06,1.06-.45,2.43-.65,3.5-1.07,5.37-2.43,9.39-7.23,14.87-9.48,8.68-3.86,16.78,2.97,24.5,6.09,8.51,3.23,13.49-1.89,21-4.2,3.83-1.02,7.57,1.2,10.5,3.48"/><path class="b" d="M8.08,80.97c6.06-3.57,8.44-2.48,14.87-1.73,5.28.64,10.44-1.24,14.87-3.98,2.8-1.59,5.58-3.56,8.75-4.34,4.94-.5,10.31-.89,14.87,1.43,8.15,4.12,12.64,12.79,20.12,17.79,6.69.13,13.43,0,20.12.05,2.59,0,5.28,0,7.87,0,1.41-.04,3.05.19,4.37-.4,5.93-2.51,10.56-7.46,16.62-9.75,8.77-3.57,15.23,1.34,23.62,2.34,6.12.78,11.77-2.13,17.5-3.74,4.64-1.46,8.82.88,12.25,3.86"/><path class="b" d="M8.08,78.07c7.58-5.25,10.18-3.3,18.37-4.48,3.33-.51,6.59-1.7,9.62-3.16,3.16-1.48,6.26-3.35,9.62-4.36,5.26-1.22,11.12-.56,15.75,2.31,4.67,2.85,8.39,7.04,12.25,10.84,2.54,2.43,5.3,5.2,8.75,6.21,4.36,0,8.77,0,13.12,0,4.94,0,9.93,0,14.87,0,1.7,0,3.55,0,5.25,0,1.11-.06,2.48.21,3.5-.34,5.39-2.56,10.26-6.19,15.75-8.56,3.55-1.65,7.49-2.25,11.37-2.25,3.77-.13,7.61-.31,11.37-.68,5.8-.49,11.66-1.7,17.5-1.04,3.3.54,6.2,2.56,8.75,4.62"/><path class="b" d="M8.08,75.09c2.49-1.69,5.02-3.61,7.87-4.66,5.43-1.62,11.19-1.99,16.62-3.62,9.98-2.82,18.03-7.82,27.99-1.5,3.5,2.15,6.6,5.03,9.62,7.8,3.39,2.9,6.79,6.79,11.37,7.58,5.82,0,11.68,0,17.5,0,6.11,0,12.26,0,18.37,0,2,0,4.12,0,6.12,0,1.11-.05,2.47.2,3.5-.32,5.47-2.99,10.09-7.47,15.75-10.15,5.57-2.41,11.3-5.15,17.5-5.13,3.85-.05,7.69.89,11.37,1.93,1.7.5,3.6.87,5.25,1.52,2.48.99,4.85,2.49,7,4.06"/><path class="b" d="M8.08,71.5c2.84-1.95,5.56-4.34,8.75-5.72,7.19-2.93,15.16-2.82,22.75-3.9,3.48-.37,7-1.11,10.5-1.33,7.98-.08,14.23,5.78,20.12,10.43,2.18,1.73,4.5,3.54,7,4.79,2.84.43,5.87.07,8.75.18,15.74,0,31.5,0,47.24,0,2.69-2.33,5.22-5.01,7.87-7.39,1.93-1.69,4.13-3.29,6.12-4.91,4.37-3.55,9.93-6.83,15.75-5.3,3.4.79,6.5,2.64,9.62,4.15,3.9,1.61,7.85,3.3,11.37,5.67"/><path class="b" d="M8.08,66.83c2.62-1.81,5.11-4,7.87-5.58,7.54-4.21,16.37-1.88,24.5-1.39,3.2.28,6.45-.12,9.62-.44,7.73-.21,14.08,5.02,20.12,9.17,1.37.87,2.8,2.12,4.37,2.6.78,0,1.85,0,2.62,0,3.48,0,7.02,0,10.5,0,16.33,0,32.67,0,48.99,0,1.69-1.13,2.94-3.16,4.37-4.59,1.96-2.11,4.16-4.23,6.12-6.34,4.89-5.18,10.87-10.46,18.37-7.11,2.73,1.12,5.27,2.86,7.87,4.22,3.58,1.62,7.18,3.38,10.5,5.5"/><path class="b" d="M8.08,61.14c2.62-1.59,5.14-3.56,7.87-4.97,5.43-2.8,11.75-1.88,17.5-.71,3.45.68,6.98,1.41,10.5,1.54,2.31.16,4.69-.33,7-.29,6.15.19,11.62,3.51,16.62,6.78,1.1.72,2.4,1.58,3.5,2.29.66.62,1.76.72,2.62.65,4.36,0,8.77,0,13.12,0,17.78-.05,35.58.09,53.36-.05,1.95-2.28,4.21-4.5,6.12-6.81,2.48-2.91,4.99-6,7.87-8.52,5.74-5.11,10.98-4.9,17.5-1.39,4.27,1.98,8.51,4.16,12.25,7.06"/><path class="b" d="M8.08,55.37c2.93-1.02,5.79-2.49,8.75-3.43,7.39-2.26,15.21-.86,22.75-.36,3.47.32,7.02.23,10.5.29,6.42.45,12.15,3.85,17.5,7.17,1.4.85,2.92,1.89,4.37,2.64,1.1,0,2.4,0,3.5,0,3.77,0,7.6,0,11.37,0,18.95-.03,37.92.06,56.86-.03,6.38-6.39,12.65-19.69,22.75-19.65,6.79.55,12.6,4.92,17.5,9.33"/><path class="b" d="M8.08,50.06c6.74-.42,13.42-1.77,20.12-2.6,6.07-.82,12.22-1.81,18.37-1.54,6.23.23,12.07,2.87,17.5,5.75,3.2,1.7,6.4,3.56,9.62,5.22,3.47.13,7.02.02,10.5.05,20.41,0,40.83,0,61.24,0,4.59-5.08,8.11-11.2,13.12-15.92,9.47-9.22,18.11-2.43,25.37,5.45"/><path class="b" d="M8.08,45.41c9.58,2.42,15.44,1.14,24.5-2.14,4.22-1.43,8.6-3,13.12-2.86,5.15.42,10.06,2.45,14.87,4.21,6.14,2.4,12.26,4.96,18.37,7.42,2.85.38,5.87.06,8.75.16,4.94,0,9.93,0,14.87,0,13.99,0,28,0,41.99,0,2.04-1.49,3.63-3.79,5.25-5.7,2.53-3.17,5.06-6.54,7.87-9.47,10.54-11.09,18.18-4.91,26.24,4.83"/><path class="b" d="M8.08,41.39c10.5,4.36,14.32,3.82,24.5-.91,4.63-2.07,9.65-4.69,14.87-3.76,6.34,1.67,12.77,3.12,19.25,4.17,3.51.62,7.1,1.26,10.5,2.35,1.73.55,3.52,1.38,5.25,1.92,2.54.81,5.25,1.37,7.87,1.81,4.01.8,8.18.36,12.25.47,6.11,0,12.26,0,18.37,0,6.11,0,12.26,0,18.37,0,7.13-2.68,11.41-9.5,16.62-14.68,5.82-6.08,12.51-9.71,20.12-3.98,2.96,2.4,5.38,5.55,7.87,8.41"/><path class="b" d="M8.08,37.71c2.89,1.05,5.77,2.38,8.75,3.15,6.64,1.66,13.15-1.38,19.25-3.66,3.33-1.22,6.91-2.37,10.5-2.05,4.02.79,8.14,1.38,12.25.97,5.24-.35,10.47-1.66,15.75-1.38,3.65.12,6.98,1.92,10.5,2.67,4.6,1.11,9.35,1.73,14,2.62,2.31.44,4.72.97,7,1.56,1.41.31,2.93.98,4.37,1.09,4.06,0,8.18,0,12.25,0,2.89-.04,5.87.09,8.75-.07,2.05-.78,4.16-1.76,6.12-2.73,2.59-1.38,5.45-2.5,7.87-4.17,3.45-2.54,6.41-5.8,9.62-8.62,6.45-5.9,13.25-8.58,21-3,2.94,2.34,5.36,5.42,7.87,8.2"/><path class="b" d="M8.08,34.46c3.47,1.15,6.89,2.76,10.5,3.47,1.1,0,2.4,0,3.5,0,2-.02,4.12.05,6.12-.04,4.4-.69,8.72-2.06,13.12-2.73,2.89-.54,5.86-.22,8.75.07,2.37.04,4.79-.54,7-1.37,6.89-2.4,13.39-8.38,21-7.74,2.96.57,5.86,1.78,8.75,2.61,5.23,1.66,10.5,3.33,15.75,4.92,4.89,1.31,9.74,3.48,14.87,3.49,8.83-.06,16.57-4.95,24.5-8.22,5.72-2.07,10.26-6.44,15.75-8.97,6-3.03,12.68-2.24,18.37,1.12,2.88,1.9,5.34,4.53,7.87,6.85"/><path class="b" d="M8.08,31.31c1.72.59,3.5,1.39,5.25,1.88,2.3,0,4.7,0,7,0,5.53,0,11.1,0,16.62,0,3.18,0,6.44,0,9.62,0,1.41,0,2.97,0,4.37,0,1.5-.22,3.05-.92,4.37-1.62,6.91-3.76,11.9-10.56,19.25-13.56,2.56-1.05,5.4-.59,7.87.46,2.69,1.03,5.33,2.41,7.87,3.74,4.51,2.38,9.11,4.76,14,6.27,9.36,2.99,13.82,1.97,22.75-1.58,5.72-2.32,11.52-4.55,17.5-6.11,3.75-1.14,7.51-2.52,11.37-3.23,6.73-1.36,13.71-.08,20.12,2.12,2.79,1.21,5.32,3.11,7.87,4.74"/><path class="b" d="M8.08,27.68c.47.18,1.29.54,1.75.71,1.1.07,2.4.04,3.5.04,2.3,0,4.7,0,7,0,7.28,0,14.59,0,21.87,0,3.47-.05,7.03.12,10.5-.08,6.14-2.9,10.58-8.38,15.75-12.63,3.55-3,8.34-6.29,13.12-4.2,3.82,1.51,7.12,4.16,10.5,6.43,5.6,4.03,12.18,7.23,19.25,6.84,4.58-.15,8.84-2.24,13.12-3.66,4.5-1.62,9.25-2.59,14-3.04,3.77-.36,7.58-1.06,11.37-1.12,5.25-.16,10.53.32,15.75.85,3.47.4,7.03.63,10.5,1.02,2.7.51,5.31,1.66,7.87,2.61"/><path class="b" d="M8.08,23.27c.76.48,1.77.45,2.62.42,1.11,0,2.4,0,3.5,0,3.77,0,7.6,0,11.37,0,5.53,0,11.1,0,16.62,0,2-.19,4.11-.52,6.12-.54,7.87-.68,13.85-7.61,20.12-11.8,6.2-4.37,11.08-5.85,17.5-.88,7.14,5.33,13.91,12.04,23.62,10.3,3.94-.48,7.61-2.21,11.37-3.35,4.5-1.47,9.37-1.59,14-.66,2,.35,4.1.81,6.12.99,2.3.13,4.71-.04,7,.21,4.93.45,9.91,1.13,14.87.98,4.38-.04,8.77-.85,13.12-1.2,2.63-.05,5.31.52,7.87,1.04"/></svg>