<?xml version="1.0" encoding="UTF-8"?><svg id="a" xmlns="http://www.w3.org/2000/svg" width="1920" height="2400" viewBox="0 0 192 240"><defs><style>.b{fill:none;stroke:#fff;stroke-miterlimit:10;stroke-width:.4px;}.c{stroke-width:0px;}</style></defs><rect class="c" width="192" height="240"/><path class="b" d="M10.04,224.33c2.37,1.8,4.84,3.78,7.7,4.74,8.53,2.54,16.57-.66,23.95-4.84,1.94-1.04,3.98-2.17,5.99-3.09,2.05-.83,4.15-1.85,5.99-3.08,4.36-2.8,9.06-6.36,14.54-5.8,9.11,1.12,16.73,12.93,23.95,18.4,2.12,1.8,2.39,1.82,5.13,1.73,2.25,0,4.6,0,6.84,0,6.55,0,13.13,0,19.67,0,19.38,0,38.78,0,58.16,0"/><path class="b" d="M10.04,220.58c2.13,1.57,4.38,3.25,6.84,4.27,8.54,3.11,16.9-2.35,23.95-6.67,1.92-1.17,3.96-2.38,5.99-3.36,2.28-1.02,4.74-1.89,6.84-3.25,4.42-2.64,9.14-5.94,14.54-5.46,6.22.66,10.95,5.41,15.4,9.4,4.01,3.73,8.06,7.6,12.83,10.36,1.32.69,2.78,1.65,4.28,1.89,2.82,0,5.73,0,8.55,0,5.97,0,11.99,0,17.96,0,18.24,0,36.5,0,54.74,0"/><path class="b" d="M10.04,216.7c3.07,2.06,6.43,4.32,10.26,4.38,4.23.1,8.26-1.68,11.97-3.54,5.08-2.58,9.98-5.69,15.4-7.53,4.01-.99,7.54-3.27,11.12-5.25,7.39-4.22,13.63-4.12,20.53,1,10.99,8.47,15.95,12.74,29.94,15.98,1.4.35,2.91.91,4.28,1.37,1.07,0,2.35,0,3.42,0,3.97,0,8,0,11.97,0,17.67,0,35.36,0,53.03,0"/><path class="b" d="M10.04,212.28c2.85,1.71,5.99,3.49,9.41,3.53,6.72-.22,12.55-4.28,18.82-6.26,2.48-.87,5.12-1.58,7.7-2.1,2.6-.48,5.33-.87,7.7-2.13,6.85-3.44,14.13-9.44,22.24-6.58,3.1,1.02,5.73,3.18,8.55,4.75,4.05,2.38,8.38,4.37,12.83,5.87,4.81,1.66,9.87,2.77,14.54,4.83,1.74.81,3.52,1.88,5.13,2.92.98.66,2.15,1.57,3.42,1.36,20.52,0,41.06,0,61.58,0"/><path class="b" d="M10.04,207.36c10.2,6.15,14.86.44,24.8-1.76,5.03-1.29,10.29-.52,15.4-1.04,9.1-1.95,15.75-11.69,25.66-10.5,3.68.59,6.72,3.13,10.26,4.19,5.27,1.92,10.87,2.83,16.25,4.34,3.23.91,6.47,2.11,9.41,3.73,4.09,2.29,7.92,5.13,11.97,7.49,19.38.02,38.78,0,58.16,0"/><path class="b" d="M10.04,202.43c7.24,4.04,10.84,2.22,17.96-.42,3-1.06,6.22-1.77,9.41-1.69,5.12-.08,10.37,2.5,15.4.7,8.14-2.94,14.01-11.48,23.09-11.85,2.44-.06,4.63,1.29,6.84,2.1,5.78,2.05,12.04,2.12,17.96,3.57,2.93.69,5.87,1.74,8.55,3.12,3.18,1.7,6.24,3.77,9.41,5.48,4.54,2.56,9.52,4.35,14.54,5.71,5.12.06,10.28,0,15.4.02,11.11,0,22.24,0,33.36,0"/><path class="b" d="M10.04,198.27c3.09,1.68,6.76,2.93,10.26,1.94,5.69-1.66,10.99-5.17,17.11-5.04,3.44-.05,6.86.85,10.26,1.22,10.8,1.22,18.91-13.96,29.94-12.66,1.46.19,2.92.93,4.28,1.44,1.63.58,3.44,1.04,5.13,1.37,7.54,1.27,15.44,1.88,22.24,5.72,6.3,3.84,12.2,6.75,19.67,7.46,3.42.43,6.98.62,10.26,1.73,1.75.55,3.41,1.69,5.13,2.29,2.15.88,4.56.85,6.84.8,2.53,0,5.16,0,7.7,0,7.69,0,15.41,0,23.09,0"/><path class="b" d="M10.04,194.17c8.15,4.26,11.9,1.86,19.67-1.16,2.73-1.02,5.64-1.77,8.55-1.97,5.1-.56,10.53,1.48,15.4-.69,8.01-3.24,15.63-13.7,24.8-12.2,1.7.41,3.42,1.25,5.13,1.64,2.5.64,5.15,1.01,7.7,1.38,5.26.7,10.58,1.81,15.4,4.11,2.34,1.05,4.58,2.53,6.84,3.72,2.9,1.5,6.14,2.53,9.41,2.78,5.41.54,10.86-1.36,16.25-.42,1.77.31,3.46,1.29,5.13,1.88,3.35,1.18,6.93,1.88,10.26,3.1,1.4.51,2.95,1.17,4.28,1.84,1.08.5,2.26,1.39,3.42,1.7,6.55,0,13.13,0,19.67,0"/><path class="b" d="M10.04,190.39c10.5,4.71,13.92,1.89,23.95-1.23,4.97-1.58,10.22-1.99,15.4-2.13,8.31-.94,14.66-9.37,22.24-12.64,6.28-2.87,8.53.02,14.54.74,9.11,1.03,15.9,1.93,23.95,6.84,8.32,5.4,13.97,5,23.09,2.04,4.17-1.25,6.98-1.43,11.12.17,4.13,1.22,8.28,2.72,11.97,4.97,3.02,1.73,5.74,4.08,8.55,6.09h17.11"/><path class="b" d="M10.04,187.39c3.1.97,6.23,2.14,9.41,2.83,5.65.91,11.09-1.63,16.25-3.58,3.32-1.3,6.75-2.58,10.26-3.27,2.87-.49,5.93-.58,8.55-2.01,7.12-3.34,12.68-9.92,20.53-11.69,2.64-.63,5.18.4,7.7,1.01,3.93.77,8.03.75,11.97,1.41,3.86.61,7.65,1.91,11.12,3.69,5,2.5,9.6,6.46,15.4,6.87,3.52.31,7.03-.75,10.26-2.05,3.02-1.16,6.11-2.71,9.41-2.73,6.15.48,12.09,2.85,17.11,6.4,1.72,1.19,3.51,2.57,5.13,3.88,1.05.77,2.17,2,3.42,2.45,5.12,0,10.28,0,15.4,0"/><path class="b" d="M10.04,185.15c1.09.23,2.32.65,3.42.8.78,0,1.79,0,2.57,0,2.83,0,5.73,0,8.55,0,9.95-.04,6.76.85,15.4-4,2.16-1.2,4.47-2.39,6.84-3.1,1.64-.5,3.5-.54,5.13-1.05,3.34-.99,6.44-2.8,9.41-4.57,4.99-2.9,10.21-6.74,16.25-6.46,2.29.22,4.53,1.25,6.84,1.41,10.6.76,15.47,1.14,24.8,7.01,3.76,2.3,7.56,4.96,11.97,5.76,6.77,1.4,12.58-3.19,18.82-4.85,6.18-.98,12.6.78,17.96,3.86,2.02,1.14,4.07,2.49,5.99,3.79.75.52,1.81,1.23,2.57,1.74,0,0,.86.48.86.48h.86c4.54,0,9.14,0,13.68,0"/><path class="b" d="M10.04,181.31c8.26,0,16.54,0,24.8,0,3.28-1.93,6.07-4.8,9.41-6.69,1.03-.6,2.28-1.22,3.42-1.58,1.35-.39,2.92-.49,4.28-.86,2.94-.74,5.8-1.98,8.55-3.22,5.38-2.38,11.03-5.52,17.11-4.85,2.56.42,5.08,1.49,7.7,1.65,10.19.7,15.31,2.08,23.95,7.73,3.86,2.35,7.59,5.23,11.97,6.52,3.66,1.12,7.64.5,11.12-.96,2.56-1.01,5.08-2.38,7.7-3.22,6.16-1.54,12.86-1.33,18.82.94,3.22,1.18,6.34,2.82,9.41,4.33,1.62.43,3.47.12,5.13.21,2.82,0,5.73,0,8.55,0"/><path class="b" d="M10.04,176.67c7.97-.05,15.98.11,23.95-.06,3.11-2.76,6.06-5.85,9.41-8.32,1.28-.92,2.78-1.84,4.28-2.34,1.05-.34,2.34-.43,3.42-.62,4.07-.7,8.04-2.05,11.97-3.24,4.93-1.49,10.26-2.91,15.4-1.64,2.24.67,4.53,1.51,6.84,1.89,12.59,1.95,16.99,5.32,27.37,11.86,1.35.83,2.86,1.76,4.28,2.48,1.37,0,2.91,0,4.28,0,3.97,0,8,0,11.97,0,.82.11,1.85-.29,2.57-.65,1.35-.61,2.87-1.28,4.28-1.74,6.95-1.73,14.42-2.43,21.38-.42,2.9.68,5.68,2.1,8.55,2.81,3.97,0,8,0,11.97,0"/><path class="b" d="M10.04,172.03c6.83,0,13.7,0,20.53,0,1-.18,1.84-1.28,2.57-1.92,1.66-1.59,3.43-3.33,5.13-4.88,2.96-2.62,6.24-5.5,10.26-6.17,5.2-.27,10.33-1.37,15.4-2.5,6.95-1.53,12.15-2.13,18.82.86,4.07,1.45,8.17,3.01,11.97,5.07,4.44,2.35,8.59,5.32,12.83,8.01.75.47,1.79,1.1,2.57,1.53,1.37,0,2.91,0,4.28,0,2.82,0,5.73,0,8.55,0,4.83,0,9.71,0,14.54,0,1.11.01,2.33-.55,3.42-.71,2.8-.4,5.72-.53,8.55-.58,3.12-.03,6.32.17,9.41.58,1.67.16,3.45.69,5.13.71,5.97,0,11.99,0,17.96,0"/><path class="b" d="M10.04,167.38h17.11c6.02-4.5,11.08-11.24,18.82-12.87,2.8-.53,5.73,0,8.55-.31,4.32-.3,8.59-1.33,12.83-2.19,3.63-.72,7.48-1.28,11.12-.37,7.58,2.4,14.11,7.24,20.53,11.79,1.94,1.3,3.87,2.95,5.99,3.94,4.83,0,9.71,0,14.54,0,20.81,0,41.63,0,62.44,0"/><path class="b" d="M10.04,162.74c3.97,0,8,0,11.97,0,.96.18,1.91-.5,2.57-1.11.78-.65,1.8-1.54,2.57-2.2,1.89-1.63,3.91-3.33,5.99-4.71,3.25-2.21,7.15-3.65,11.12-3.48,2.57.04,5.15.72,7.7.92,6.47.61,12.66-1.76,18.82-3.34,2.76-.66,5.78-1.03,8.55-.23,5.7,1.94,10.52,5.81,15.4,9.22,1.65,1.18,3.44,2.44,5.13,3.55.73.47,1.7,1.18,2.57,1.37.42,0,1.29,0,1.71,0,25.94,0,51.89,0,77.83,0"/><path class="b" d="M10.04,158.09c2.83,0,5.73,0,8.55,0,1.25-.33,2.4-1.42,3.42-2.17,1.67-1.33,3.42-2.83,5.13-4.12,4.63-3.64,9.71-5.28,15.4-3.12,2.56.87,5.06,2.15,7.7,2.79,3.64.92,7.53.7,11.12-.33,4.63-1.24,8.94-3.74,13.68-4.57,4.68-.88,8.92,2,12.83,4.16,4.19,2.47,8.36,5.13,12.83,7.08.73.35,1.79.28,2.57.27,1.37,0,2.91,0,4.28,0,4.26,0,8.57,0,12.83,0,1.37,0,2.91,0,4.28,0,2.52-.41,5.13-.86,7.7-.68,2.27.05,4.57.82,6.84.68,6.26,0,12.56,0,18.82,0,4.54,0,9.14,0,13.68,0,1.66-.02,3.47.04,5.13-.04,1.66-.28,3.47-.54,5.13-.79"/><path class="b" d="M10.04,153.45c6.85.62,10.2-3.03,15.4-6.59,9.9-6.79,14.56-.75,23.09,3.92,6.7,3.15,13.35,1.19,19.67-1.81,3.23-1.39,6.66-3.06,10.26-2.81,2.96.42,5.77,1.81,8.55,2.84,3.61,1.44,7.32,2.81,11.12,3.67,3.1.85,6.23.83,9.41.78,3.97-.03,8,.06,11.97-.04,2.79-.54,5.71-.89,8.55-.63,1.39.09,2.9.48,4.28.67,1.07,0,2.35,0,3.42,0,10.83-.02,21.68.04,32.5-.02,3.96-2.93,8.92-3.97,13.68-4.78"/><path class="b" d="M10.04,147.45c2.58-.09,5.26-.38,7.7-1.27,7.87-3.41,12.67-8.38,21.38-3,1.75,1.06,3.5,2.4,5.13,3.62,1.05.67,2.13,1.88,3.42,2.01,5.97,0,11.99,0,17.96,0,.77,0,1.8,0,2.57-.01,1.07-.44,2.34-.96,3.42-1.36,5.41-2.1,7.46-1.53,12.83-.15,3.07.71,6.26,1.26,9.41,1.52,4.83.02,9.71,0,14.54,0,19.1,0,38.21,0,57.3,0,1.98-1.49,3.82-3.42,5.99-4.66,3.14-1.69,6.76-2.48,10.26-3"/><path class="b" d="M10.04,141.03c3.11-.28,6.33-.3,9.41-.87,10.25-2.62,14.34-2.4,23.09,3.95,40.76.14,81.54,0,122.31.05,2.15-1.42,3.8-3.74,5.99-5.15,3.27-2.17,7.31-2.99,11.12-3.69"/><path class="b" d="M10.04,134.64c3.44-.33,6.89.38,10.26.9,3.13.4,6.36.69,9.41,1.52,2.02.54,4.1,1.32,5.99,2.22,1.04.39,2.34.19,3.42.23,1.96,0,4.03,0,5.99,0,39.91,0,79.83,0,119.74,0,2.08-2.13,4.25-4.44,6.84-5.96,3.21-1.55,6.81-2.38,10.26-3.19"/><path class="b" d="M10.04,128.59c3.31-.01,6.5,1.26,9.41,2.74,2.52,1.2,5.16,2.38,7.7,3.54,4.83,0,9.71,0,14.54,0,15.11,0,30.23,0,45.33,0,25.66,0,51.32,0,76.98,0,2.28-1.87,4.28-4.28,6.84-5.8,1.26-.8,2.87-1.23,4.28-1.66,2.24-.68,4.59-1.38,6.84-2.01"/><path class="b" d="M10.04,123.28c4.97.74,8.75,4.35,12.83,6.95h139.41c2.12-1.56,3.88-3.81,5.99-5.4,1.92-1.69,4.36-2.72,6.84-3.25,2.26-.63,4.6-1.35,6.84-2.02"/><path class="b" d="M10.04,119.13c3.86,1.26,7.15,3.87,10.26,6.39,46.46.18,92.95,0,139.41.06,4.1-3.85,7.45-9.1,12.83-11.26,3.11-.8,6.29-1.61,9.41-2.36"/><path class="b" d="M10.04,114.58c3.47,1.45,6.54,3.85,9.41,6.24,3.95.32,8.01.03,11.97.12,6.83,0,13.7,0,20.53,0,19.95,0,39.92,0,59.87,0,14.53,0,29.09,0,43.62,0,.42.05,1.31-.07,1.71-.24.41-.43,1.31-1.32,1.71-1.77,1.08-1.16,2.36-2.58,3.42-3.77,7.07-7.94,8.76-9.75,19.67-11.01"/><path class="b" d="M10.04,109.4c2.45,1.01,4.77,2.58,6.84,4.22,1.1.81,2.21,2.04,3.42,2.68,32.78,0,65.58,0,98.36,0,7.97,0,15.98,0,23.95,0,2.54,0,5.16,0,7.7,0,1.73-.1,3.86.48,5.13-1.02,5.42-4.55,9.62-10.53,15.4-14.66,3.25-2.09,7.29-2.93,11.12-2.88"/><path class="b" d="M10.04,104.13c2.84.94,5.44,2.7,7.7,4.63,1.13.86,2.14,2.26,3.42,2.89,4.26,0,8.57,0,12.83,0,13.96,0,27.95,0,41.91,0,21.38,0,42.77,0,64.15,0,2.54,0,5.16,0,7.7,0,1.37-.07,2.95.19,4.28-.22,4.72-2.69,8.8-6.42,12.83-10.02,4.71-4.31,10.31-8.9,17.11-8.22"/><path class="b" d="M10.04,99.03c3.67.79,6.82,3.19,9.41,5.81,2.16,2.35,1.99,2.24,5.13,2.17,16.25,0,32.51,0,48.75,0,19.95,0,39.92,0,59.87,0,5.4-.02,10.85.03,16.25-.02,2.92-1.06,5.85-2.36,8.55-3.9,3.88-2.18,7.51-4.9,11.12-7.5,3.74-2.74,7.99-5.53,12.83-5.17"/><path class="b" d="M10.04,94.07c5.07.68,8.7,4.73,11.97,8.3,26.23,0,52.46,0,78.69,0,15.68,0,31.37,0,47.04,0,6.55-1.02,13.06-3.17,18.82-6.51,4.93-2.7,9.46-7.03,15.4-7.07"/><path class="b" d="M10.04,89.36c5,.92,8.6,4.87,11.97,8.36,17.1,0,34.22,0,51.32,0,5.69,0,11.42,0,17.11,0,2.82,0,5.73,0,8.55,0,1.36-.31,2.89-.63,4.28-.83,3.09-.43,6.3-.6,9.41-.3,2.29.16,4.53,1.28,6.84,1.13,7.97,0,15.98,0,23.95,0,2.82-.01,5.73.03,8.55-.02,5.3-.64,10.59-1.97,15.4-4.33,4.74-2.22,9.15-5.66,14.54-6.05"/><path class="b" d="M10.04,85.9c4.29,1.23,7.8,4.19,11.12,7.04,2.22.32,4.6.06,6.84.14,3.69,0,7.43,0,11.12,0,11.11,0,22.24,0,33.36,0,7.97,0,15.98,0,23.95,0,1.51.18,2.93-.79,4.28-1.33,1.63-.7,3.43-1.38,5.13-1.86,5.3-1.65,9.62-.84,14.54,1.49,1.08.49,2.36,1.09,3.42,1.6,2.81.23,5.73.03,8.55.1,5.97,0,11.99,0,17.96,0,2.25,0,4.6,0,6.84,0,1.66-.06,3.51.19,5.13-.3,6.74-1.47,12.79-5.33,19.67-6.2"/><path class="b" d="M10.04,82.14c3.94,1.53,7.52,3.93,11.12,6.1,1.05.32,2.34.16,3.42.19,1.67,0,3.46,0,5.13,0,5.12,0,10.28,0,15.4,0,2.55.01,5.17.06,7.7-.28,1.97-.19,4.03.15,5.99.28,11.4,0,22.81,0,34.21,0,1.67,0,3.47,0,5.13,0,1.07-.61,2.35-1.36,3.42-1.97,7-4,11.37-5.62,18.82-1.37,2.01.98,3.9,2.53,5.99,3.34,1.66,0,3.47,0,5.13,0,5.12,0,10.28,0,15.4,0,8.26,0,16.55,0,24.8,0,1.4.06,2.9-.5,4.28-.7,1.94-.37,4.02-.67,5.99-.88"/><path class="b" d="M10.04,77.06c3.94,1.83,7.87,3.83,11.97,5.25,1.92.59,3.97,1.45,5.99,1.48,4.83-.04,9.71.09,14.54-.06,6.19-1.07,12.48-3.35,18.82-2.11,2.03.38,4.1,1.09,5.99,1.91,1.03.43,2.34.22,3.42.26,7.69,0,15.41,0,23.09,0,1.95-.1,4.08.23,5.99-.2.77-.46,1.81-1.11,2.57-1.59,5.47-3.47,9.8-6.12,16.25-3.04,2.98,1.3,5.74,3.22,8.55,4.83,5.69,0,11.42,0,17.11,0,12.54,0,25.09,0,37.63,0"/><path class="b" d="M10.04,70.51c5.08,2.66,10.73,3.83,16.25,5.2,5.88,1.43,11.87,2.95,17.96,2.89,6.7.09,12.91-3.94,19.67-2.85,2.03.28,4.1.94,5.99,1.72,1.4.48,2.79,1.53,4.28,1.67,7.4,0,14.84,0,22.24,0,1.67,0,3.47,0,5.13,0,.85-.25,1.82-.94,2.57-1.4,4.37-2.86,8.34-4.97,13.68-3.34,3.58.99,6.93,2.82,10.26,4.43.7.39,1.79.32,2.57.31,1.07,0,2.35,0,3.42,0,3.4,0,6.86,0,10.26,0,12.54,0,25.09,0,37.63,0"/><path class="b" d="M10.04,63.26c2.19.97,4.51,1.91,6.84,2.49,2.27.46,4.65.9,6.84,1.66,5.01,1.64,9.69,4.22,14.54,6.25.76.3,1.75.73,2.57.84,1.08,0,2.35,0,3.42,0,2.54,0,5.16,0,7.7,0,1.45-.16,2.9-.98,4.28-1.42,2.44-.9,5.08-1.61,7.7-1.64,2.62-.04,5.27.63,7.7,1.57,1.39.42,2.8,1.48,4.28,1.49,8.83,0,17.68,0,26.51,0,4.88.4,6.07-6.03,17.96-3.53,4.32.92,8.53,2.5,12.83,3.52,4.54.02,9.14,0,13.68,0,11.68,0,23.38,0,35.07,0"/><path class="b" d="M10.04,56.5c1.93.67,3.99,1.32,5.99,1.79,1.67.39,3.51.58,5.13,1.13,3.04.99,5.9,2.65,8.55,4.4,1.99,1.31,4.03,2.78,5.99,4.13,1.06.64,2.17,1.72,3.42,1.91,3.69,0,7.43,0,11.12,0,2.54,0,5.16,0,7.7,0,2.45-.8,5.1-1.36,7.7-1.2,2.01.08,4.06.66,5.99,1.2.77,0,1.8,0,2.57,0,7.97,0,15.98,0,23.95,0,2.24-.09,4.63.2,6.84-.16,5.02-3.29,9.52-3.85,15.4-3.21,6.83.8,13.65,2,20.53,2.33,1.67.1,3.48.23,5.13.53,1.36.3,2.87.63,4.28.51,10.54,0,21.1,0,31.65,0"/><path class="b" d="M10.04,50.91c9.36,1.23,11.61-.04,19.67,6.25,2.6,2.02,5.14,4.3,7.7,6.37.75.56,1.64,1.43,2.57,1.69,1.08,0,2.35,0,3.42,0,5.4,0,10.85,0,16.25,0,1.66-.22,3.44-.59,5.13-.53,1.39.02,2.92.22,4.28.53,3.11,0,6.3,0,9.41,0,7.12,0,14.27,0,21.38,0,.42,0,1.29,0,1.71,0,.81-.23,1.81-.8,2.57-1.18,4.08-2.19,7.38-2.77,11.97-2.28,5.11.48,10.25,1.16,15.4,1.17,5.46.06,11.19-.16,16.25,2.22,11.39.19,22.82,0,34.21.07"/><path class="b" d="M10.04,47.09c3.11-.27,6.27-1.01,9.41-.94,5.72.42,10.32,4.45,14.54,7.96,1.94,1.65,3.95,3.43,5.99,4.96,1.55,1.22,2.28,1.66,4.28,1.49,3.69,0,7.43,0,11.12,0,1.41-.1,2.88-.76,4.28-.99,1.93-.41,4.02-.59,5.99-.45,2.31.14,4.64.76,6.84,1.44,4.26,0,8.57,0,12.83,0,1.96,0,4.03,0,5.99,0,1.37-.07,2.96.21,4.28-.24,2.53-1.08,5.11-2.32,7.7-3.25,4.74-1.83,8.08-1.38,12.83,0,3.89,1.07,7.92,1.98,11.97,2.07,3.69.14,7.44-.36,11.12-.07,1.4.12,2.96.46,4.28.96.99.54,2.32.59,3.42.54,11.68,0,23.38,0,35.07,0"/><path class="b" d="M10.04,44.82c4.72-1.57,9.47-4.06,14.54-2.39,8.11,2.28,13.44,9.9,21.38,12.45,3.77.93,7.5-1.09,11.12-1.9,5.32-1.6,11.03-1.28,16.25.54,3.06.91,6.16,2.29,9.41,2.23,4.21-.15,8.14-2.07,11.97-3.63,4.79-2.02,10.21-3.88,15.4-2.26,2.95.96,5.72,2.59,8.55,3.83,2.16.97,4.51,1.8,6.84,2.23,2.82.04,5.73,0,8.55.02,15.96,0,31.94,0,47.9,0"/><path class="b" d="M10.04,43.09c2.58-1.23,5.05-2.91,7.7-3.99,5.04-2.1,10.71-.96,15.4,1.53,4.51,2.16,8.65,5.55,13.68,6.4,3.21.36,6.35-1.02,9.41-1.79,3.86-1.13,7.96-1.8,11.97-1.24,4.1.5,7.99,2.13,11.97,3.11,6.49,1.25,12.49-3.43,18.82-4.28,5.97-1.16,11.52,1.41,16.25,4.85,6.76,4.53,4.91,3.53,12.83,3.61,17.96,0,35.93,0,53.88,0"/><path class="b" d="M10.04,40.09c2.61-1.54,5.04-3.53,7.7-4.98,5.06-2.8,10.99-2.75,16.25-.54,4.26,1.59,8.26,4.23,12.83,4.87,3.52.35,6.93-1.18,10.26-2.09,3.57-1.09,7.38-1.81,11.12-1.42,2.91.27,5.8,1.13,8.55,2.06,2.19.73,4.49,1.67,6.84,1.59,3.47-.07,6.87-1.2,10.26-1.8,3.08-.57,6.35-.68,9.41.06,4.06.97,7.77,3.18,11.12,5.62,1.06.77,2.34,1.69,3.42,2.43.35.32,1.22.74,1.71.75,1.37,0,2.91,0,4.28,0,19.38,0,38.78,0,58.16,0"/><path class="b" d="M10.04,35.52c3.45-2.18,6.53-5.09,10.26-6.81,7.91-3.88,14.67-.68,22.24,2.02,6.59,2.55,11.62-.62,17.96-1.97,6.55-1.62,12.79.27,18.82,2.8,2.66,1.17,5.68,1.36,8.55,1.23,12.96-1.1,18.66,1.89,29.08,9.14,21.66.16,43.34,0,65,.06"/><path class="b" d="M10.04,29.95c10.41-7.02,14.76-11.95,28.22-8.17,10.09,3.01,10.82,1.84,20.53-.26,5.48-1.16,11.18-.2,16.25,2.05,2.8,1.12,5.55,2.7,8.55,3.25,5.98.97,12.25.56,17.96,2.87,4.81,1.84,9.35,4.47,13.69,7.22.66.55,1.76.47,2.57.45,1.37,0,2.91,0,4.28,0,19.95,0,39.92,0,59.87,0"/><path class="b" d="M10.04,23.51c3.26-1.76,6.3-4.04,9.41-6.05,6.49-4.2,13.23-4.19,20.53-2.54,3.63.76,7.43,1.38,11.12.62,7.93-1.51,13.97-1.61,21.38,2,3.13,1.4,6.15,3.28,9.41,4.4,3.58,1.11,7.43,1.11,11.12,1.56,3.5.39,7.01,1.25,10.26,2.58,4.42,1.84,8.69,4.16,12.83,6.55,2.81.2,5.73.03,8.55.09,19.1,0,38.21,0,57.3,0"/><path class="b" d="M10.04,16.67c3.63-1.57,6.93-3.87,10.26-5.95,5.69-3.46,12.44-3.62,18.82-2.41,3.65.59,7.42,1.27,11.12.67,14.66-2.06,18.98,4.1,30.79,9.58,5.48,1.92,11.46.65,17.11,1.59,3.22.46,6.42,1.47,9.41,2.75,3.48,1.47,6.87,3.3,10.26,4.94,1.9.48,4.04.11,5.99.22,19.38,0,38.78,0,58.16,0"/></svg>