<?xml version="1.0" encoding="UTF-8"?><svg id="a" xmlns="http://www.w3.org/2000/svg" width="1920" height="2400" viewBox="0 0 192 240"><defs><style>.b{fill:none;stroke:#fff;stroke-miterlimit:10;stroke-width:.4px;}.c{stroke-width:0px;}</style></defs><rect class="c" width="192" height="240"/><path class="b" d="M7.57,209.86c7.44.27,11.71,5.54,16.72,10.21,6.42,5.96,11.65,6.39,18.48.81,2.86-2.36,5.88-4.67,8.8-6.95,9.2-7.57,14.39-5.69,22.88,1.49,2.1,1.8,4.54,3.29,7.04,4.47,1.74.99,3.55,2.2,5.28,3.21,7.42,4.59,12.9,2.97,19.36-2.24,6.43-5.3,13.54-10.56,22-6.11,4.46,2.21,8.14,5.78,12.32,8.43,2.16,1.32,4.67,2.23,7.04,3.09,2.01,0,4.15,0,6.16,0,3.79,0,7.65,0,11.44,0,2.31-.08,4.76.19,7.04-.15,3.85-2.2,7.86-4.43,12.32-5.06"/><path class="b" d="M7.57,207.3c7.52-.81,12.15,5.22,17.6,9.24,7.84,5.95,13.45,2.69,20.24-2.69,12.15-8.46,15.99-14.49,29.92-4.15,2.71,1.98,6.05,3,8.8,4.93,3.96,2.57,8.24,5.67,13.2,5.37,10.79-.99,16.68-14.61,29.04-9.4,3.92,1.68,7.23,4.55,10.56,7.15,1.63,1.28,3.44,2.63,5.28,3.59,1.08.23,2.42.11,3.52.14,9.08,0,18.19,0,27.28,0,1.5-.51,2.93-1.62,4.4-2.22,2.18-.99,4.65-1.63,7.04-1.79"/><path class="b" d="M7.57,205.94c5.6-1.19,9.42,1.32,14.08,3.87,7.37,4.12,13.13,3.75,20.24-.62,3.69-2.3,7.64-4.29,11.44-6.39,8.56-4.8,14.13-2.91,22,1.91,3.11,1.86,6.67,3,9.68,5.05,6.9,4.48,12.63,6.55,20.24,2.09,4.51-2.51,8.74-6.19,14.08-6.66,8.97-.69,14.94,7.39,22,11.52,10.26,0,20.54,0,30.8,0,3.69-2.38,7.77-4.7,12.32-4.38"/><path class="b" d="M7.57,204.57c2.57-.53,5.34-.69,7.92-.12,3.43.9,7,1.63,10.56,1.54,6.53-.06,12.53-2.96,18.48-5.3,2.85-1.07,5.88-1.84,8.8-2.69,5.96-1.79,12.03-1.2,17.6,1.54,2.35,1.07,4.71,2.38,7.04,3.48,2.68,1.12,5.36,2.45,7.92,3.82,7.77,4.24,13.61,3.84,21.12-.67,4.79-2.81,10.05-5.99,15.84-5.22,7.17.95,12.44,6.5,18.48,9.95.4.24,1.33.69,1.76.88.76.19,1.86.15,2.64.15,1.71,0,3.57,0,5.28,0,5.26,0,10.57,0,15.84,0,1.1-.03,2.44.1,3.52-.14.77-.52,1.87-1.24,2.64-1.76,3.32-2.37,7.25-4.36,11.44-4"/><path class="b" d="M7.57,202.41c2.01-.26,4.14-.46,6.16-.49,2.32.02,4.75.19,7.04-.3,6.32-1.24,12.23-4.1,18.48-5.62,8.3-1.97,17.28-2.51,25.52,0,8.24,2.57,15.6,7.43,23.76,10.23,6.58,2.24,12.77-.09,18.48-3.44,5.64-3.08,11.84-6.45,18.48-5.75,5.81.62,10.75,4.11,15.84,6.68,1.38.69,3.02,1.3,4.4,1.99,1.09.46,2.3,1.41,3.52,1.44,4.68,0,9.4,0,14.08,0,1.71-.1,3.63.26,5.28-.25.78-.49,1.88-1.19,2.64-1.72,3.95-2.77,8.17-5.87,13.2-5.96"/><path class="b" d="M7.57,199.05c12.66.04,12.99-2.06,23.76-6.33,5.03-1.96,10.51-2.25,15.84-1.8,10.6.46,20.55,4.79,29.92,9.47,1.42.62,2.87,1.7,4.4,1.99,2.31,0,4.73,0,7.04,0,5.26,0,10.57,0,15.84,0,1.24-.09,2.43-1.06,3.52-1.57,1.38-.76,2.96-1.55,4.4-2.19,7.1-3.54,13.85-7.06,22-4.7,3.9,1.13,7.76,2.72,11.44,4.42,2.64,1.25,5.09,3.28,7.92,4.04,4.09,0,8.23,0,12.32,0,1.24.17,2.5-.66,3.52-1.27,1.12-.68,2.44-1.56,3.52-2.3,3.52-2.43,7.21-4.96,11.44-5.94"/><path class="b" d="M7.57,194.37c5.12.51,10.32-.34,14.96-2.57,5.26-2.37,10.86-4.51,16.72-4.25,2.92.06,5.89.54,8.8.75,4.48.32,8.93,1.37,13.2,2.74,5.15,1.67,10.19,3.85,14.96,6.42,2.58.33,5.32.06,7.92.14,6.73,0,13.5,0,20.24,0,2.31,0,4.73,0,7.04,0,1.41-.12,3.13.34,4.4-.4,5.36-3.42,10.99-7.4,17.6-7.52,4.23-.03,8.51,1.16,12.32,2.95,2.07,1.08,4.14,2.45,6.16,3.62,1.04.55,2.28,1.51,3.52,1.34,4.09,0,8.23,0,12.32,0,.86.14,1.93-.39,2.64-.83,1.12-.66,2.44-1.51,3.52-2.24,3.42-2.27,6.8-4.81,10.56-6.52"/><path class="b" d="M7.57,187.75c2.6.28,5.32.33,7.92-.03,3.25-.47,6.46-1.51,9.68-2.15,4.32-.93,8.85-.98,13.2-.2,2.62.43,5.29,1.08,7.92,1.42,5.29.41,10.63.89,15.84,1.9,2.95.56,5.96,1.29,8.8,2.26,1.44.5,3.02,1.14,4.4,1.79,1.1.12,2.42.06,3.52.07,14.66,0,29.34,0,44,0,8.15-6.09,15.96-9.05,25.52-3.81,8.71,4.81,6.06,3.71,15.84,3.81,1.1,0,2.42,0,3.52,0,.82.04,1.93,0,2.64-.48,4.95-2.47,9.23-6.18,14.08-8.83"/><path class="b" d="M7.57,180.97c2.6.33,5.3.6,7.92.46,4.66-.38,9.41-.96,14.08-.39,5.1.52,9.98,2.32,14.96,3.42,3.16.66,6.48.64,9.68.87,4.97.3,10.02.27,14.96.97,1.43.21,3.02.55,4.4.97.78.24,1.82.68,2.64.78.43,0,1.32,0,1.76,0,16.71,0,33.44,0,50.16,0,5.26-3.78,12.03-6.55,18.48-4.31,3.86,1.24,7.52,3.23,11.44,4.29,3.5.04,7.06.04,10.56,0,5.83-1.75,10.5-5.96,15.84-8.71"/><path class="b" d="M7.57,175.61c2.6.47,5.28,1.08,7.92,1.25,4.38.15,8.84.07,13.2.58,7.4.75,14.55,3.25,22,3.6,6.42.72,12.93.42,19.36.91,1.43.14,3.01.41,4.4.8,1.08.42,2.36.62,3.52.53,14.37,0,28.75,0,43.12,0,3.79,0,7.65,0,11.44,0,7.65-4.15,13-3.87,21.12-1.39,1.7.47,3.55.95,5.28,1.29,1.4.2,2.99.07,4.4.1,2.31-.11,4.8.3,7.04-.33,5.07-1.48,9.28-4.98,14.08-7.1"/><path class="b" d="M7.57,172.27c2.61.75,5.24,1.77,7.92,2.26,6.12.95,12.35-.03,18.48-.33,4.97-.29,10.01-.23,14.96.35,3.51.46,7.05,1.22,10.56,1.7,3.19.47,6.48.74,9.68,1.14,2.05.18,4.14.82,6.16,1.11,1.41,0,2.99,0,4.4,0,13.19,0,26.4,0,39.6,0,6.44,0,12.92,0,19.36,0,2-.42,4.12-.88,6.16-.97,3.53-.23,7.08.53,10.56.97,5.85,0,11.75,0,17.6,0,1.57.12,3.02-1.13,4.4-1.73,2.28-1.22,4.66-2.5,7.04-3.51"/><path class="b" d="M7.57,170.53c8.07,3.83,6.22,3.16,14.96,3.18,2.11.12,4.2-.84,6.16-1.5,3.5-1.3,6.98-2.88,10.56-3.94,3.1-.93,6.46-1.43,9.68-.87,5.12.95,9.95,3.14,14.96,4.51,2.3.62,4.69,1.39,7.04,1.8,4.09,0,8.23,0,12.32,0,9.08,0,18.19,0,27.28,0,11.73,0,23.47,0,35.2,0,7.91,0,15.85,0,23.76,0,3.5,0,7.06,0,10.56,0,1.43-.67,2.97-1.56,4.4-2.23"/><path class="b" d="M7.57,168.93h22.88c14.51-9.72,16.23-9.82,31.68-1.97,1.4.66,2.97,1.38,4.4,1.97,2.91,0,5.89,0,8.8,0,6.15,0,12.33,0,18.48,0,30.21,0,60.43,0,90.63,0"/><path class="b" d="M7.57,164.16c5.56,0,11.16,0,16.72,0,2.02,0,4.14,0,6.16,0,2.43.12,2.64-.11,4.4-1.63,3.62-2.83,7.54-6.17,12.32-6.52,4.52-.04,8.53,2.63,12.32,4.79,2.02,1.08,3.98,2.66,6.16,3.36,3.2,0,6.48,0,9.68,0,36.37,0,72.74,0,109.11,0"/><path class="b" d="M7.57,159.38c5.85,0,11.75,0,17.6,0,2.02,0,4.14,0,6.16,0,1.98,0,2.91.29,4.4-1.23,3.6-2.89,7.48-6.43,12.32-6.71,4.57.04,8.55,2.83,12.32,5.11,1.11.69,2.41,1.52,3.52,2.2.45.33,1.2.68,1.76.63,2.91,0,5.89,0,8.8,0,36.66,0,73.33,0,109.99,0"/><path class="b" d="M7.57,154.6c6.15,0,12.33,0,18.48,0,2.02,0,4.14,0,6.16,0,1.12-.06,2.5.22,3.52-.35,3.75-2.71,7.58-6.06,12.32-6.72,4.49-.35,8.56,2.21,12.32,4.33,1.11.65,2.41,1.43,3.52,2.07.44.3,1.22.66,1.76.67,2.61,0,5.31,0,7.92,0,36.96,0,73.92,0,110.87,0"/><path class="b" d="M7.57,149.82c6.15,0,12.33,0,18.48,0,2.31,0,4.73,0,7.04,0,1.14-.07,2.57.29,3.52-.5,3.86-2.27,7.74-5.2,12.32-5.69,4.42-.22,8.49,2.07,12.32,3.99.79.41,1.85.96,2.64,1.37.77.39,1.75.99,2.64.83,2.61,0,5.31,0,7.92,0,36.66,0,73.33,0,109.99,0"/><path class="b" d="M7.57,145.05c6.15,0,12.33,0,18.48,0,2.02,0,4.14,0,6.16,0,1.13-.06,2.52.24,3.52-.4,4.26-2.11,8.38-5.11,13.2-5.75,6.44-.37,11.83,4,17.6,6.15,2.61,0,5.31,0,7.92,0,36.66,0,73.33,0,109.99,0"/><path class="b" d="M7.57,140.27c5.26,0,10.57,0,15.84,0,1.72,0,3.56,0,5.28,0,1.44,0,3.08.16,4.4-.56,5.23-2.07,10.12-5.62,15.84-6.17,4.44-.1,8.49,2.26,12.32,4.25,1.72.78,3.4,2.19,5.28,2.48,3.5,0,7.06,0,10.56,0,35.78,0,71.57,0,107.35,0"/><path class="b" d="M7.57,135.49c2.34.15,4.71-.48,7.04-.38,4.39.43,8.88.47,13.2-.54,3.89-.83,7.68-2.25,11.44-3.52,3.37-1.09,6.97-2.26,10.56-1.9,5.1.72,9.57,3.65,14.08,5.95.74.49,1.8.4,2.64.39,1.41,0,2.99,0,4.4,0,3.79,0,7.65,0,11.44,0,34.02,0,68.05,0,102.07,0"/><path class="b" d="M7.57,130.46c3.4-1.12,7.03-1.1,10.56-.91,2.93,0,5.93-.43,8.8-1,8.9-1.76,18.38-5.61,27.28-1.84,2.05.77,4.17,1.72,6.16,2.62,1.37.57,2.85,1.56,4.4,1.39,7.91,0,15.85,0,23.76,0,31.97,0,63.94,0,95.91,0"/><path class="b" d="M7.57,125.93c2.02,0,4.13-.42,6.16-.36,2.93.11,5.94.07,8.8-.61,8.62-2.01,17.48-5.5,26.4-3.17,4.76,1.06,9.33,3.06,14.08,4.15,7.62,0,15.26,0,22.88,0,32.85,0,65.7,0,98.55,0"/><path class="b" d="M7.57,121.16c6.15,0,12.33,0,18.48,0,5.65-2.01,11.45-4.6,17.6-3.91,2.69.22,5.32,1.16,7.92,1.82,2.87.75,5.86,1.37,8.8,1.76,2.59.45,5.3.31,7.92.33,3.5,0,7.06,0,10.56,0,35.2,0,70.4,0,105.59,0"/><path class="b" d="M7.57,116.38c8.2,0,16.44,0,24.64,0,3.41-1.22,6.84-2.82,10.56-2.75,3.92-.08,7.58,1.79,11.44,2.18,4.95.73,10,.18,14.96-.16,2.01-.12,4.15-.16,6.16.08,1.43.14,2.95.74,4.4.64,6.73,0,13.5,0,20.24,0,8.2,0,16.44,0,24.64,0,3.79-.04,7.65.09,11.44-.06,1.95-1.04,4.04-2.14,6.16-2.82,11.59-3.08,16.87-2.9,28.16,1.22,2.26.73,4.67,1.42,7.04,1.66,2.31,0,4.73,0,7.04,0"/><path class="b" d="M7.57,111.6c14.07.01,28.17-.02,42.24,0,3.2-.02,6.48.04,9.68-.03,4.39-.89,8.73-2.35,13.2-2.75,2.02-.17,4.19-.07,6.16.44,2.25.74,4.67,1.31,7.04,1.47,5.87.45,11.74-.6,17.6-.76,11.59-.33,15.9,4.16,28.16-1.41,3.47-1.51,6.86-3.51,10.56-4.42,5.27-.79,10.49-2.34,15.84-2.55,4.44-.21,8.9.64,13.2,1.67,2,.51,4.18.8,6.16,1.4,2.38.76,4.75,1.87,7.04,2.86"/><path class="b" d="M7.57,106.82c15.25,0,30.51,0,45.76,0,1.72-.02,3.57.05,5.28-.05,3.72-1.64,7.46-3.48,11.44-4.4,9.69-2.18,10.6,2.92,22.88-.17,5.78-1.32,11.57-3.7,17.6-3.14,9.79,1.81,15.29.99,24.64-2.18,1.98-.61,4.1-1.21,6.16-1.46,2.92-.15,5.93-.17,8.8-.86,6.63-1.47,13.4-3.13,20.24-2.34,2.33.26,4.8.55,7.04,1.3,2.42.85,4.78,2.14,7.04,3.33"/><path class="b" d="M7.57,102.05c13.49,0,26.99,0,40.48,0,2.9-.09,5.92.2,8.8-.15,1.1-.72,2.4-1.57,3.52-2.27,4.67-3.02,10.19-5.3,15.84-4.46,2.34.26,4.67,1.15,7.04,1.18,7.02.16,13.1-3.95,19.36-6.53,3.02-1.26,6.41-2.16,9.68-1.44,4.93.82,10.01.83,14.96.23,4.95-.53,9.97-1.66,14.96-1,5.58,1.37,11.29-.11,16.72-1.47,10.27-2.51,16.17-2.91,25.52,2.73"/><path class="b" d="M7.57,97.27c12.61,0,25.23,0,37.84,0,2.61,0,5.31,0,7.92,0,1.35-.22,2.43-1.6,3.52-2.34,5.36-4.45,11.25-8.02,18.48-6.44,2.61.44,5.24,1.46,7.92,1.4,5.9-.1,11-3.62,15.84-6.63,3.24-1.98,6.67-4.25,10.56-4.54,1.73-.06,3.56.45,5.28.57,2.6.26,5.31.3,7.92.26,4.97-.06,10.02-.41,14.96.35,3.02.35,5.85,1.77,8.8,2.4,3.76.75,7.7.34,11.44-.33,11.27-2.16,15.7-3.57,26.4,2.16"/><path class="b" d="M7.57,92.49h42.24c8.46-5.86,13.79-14.44,25.52-10.84,4.09,1.26,8.11,2.22,12.32.79,7.84-2.12,15.44-11.21,22.88-11.11,3.47.57,7.04.88,10.56.79,6.18-.07,12.56-.28,18.48,1.78,2.7.89,5.2,2.51,7.92,3.35,3.66,1.22,7.6,1.58,11.44,1.48,11.41-.5,14.42-1.73,25.52,3.03"/><path class="b" d="M7.57,85.82c1.45.54,2.89,1.53,4.4,1.9,2.91,0,5.89,0,8.8,0,6.15,0,12.33,0,18.48,0,1.11,0,2.41,0,3.52,0,1.13-.58,2.39-1.38,3.52-1.96,6.01-2.35,10.18-7.67,15.84-10.63,7.36-3.93,12.1-.67,19.36.19,3.94.31,7.89-.82,11.44-2.47,5.5-2.36,10.54-6.67,16.72-6.97,2.33.13,4.69.84,7.04.85,7.92.3,16.23-1.23,23.76,1.96,2.4.98,4.67,2.49,7.04,3.53,3.88,1.79,8.09,3,12.32,3.56,4.94.71,10.01.56,14.96,1.23,3.28.46,6.5,1.58,9.68,2.49"/><path class="b" d="M7.57,78.55c4.52.95,8.82,2.87,13.2,4.27,4.66.29,9.41.03,14.08.11,1.54.18,3.04-.56,4.4-1.18,1.73-.78,3.55-1.71,5.28-2.51,1.96-.96,4.24-1.47,6.16-2.51,3.33-1.79,6.4-4.17,9.68-6.04,9.23-5.37,13.5-2.98,22.88-3.65,7.87-.72,15.05-4.69,22.88-5.55,2.66-.34,5.34.36,7.92.9,2.29.39,4.72.57,7.04.65,10.21.22,16.59.22,25.52,6,15.82,9.26,21.58,4.57,37.84,6.4"/><path class="b" d="M7.57,73.25c5.55-.33,10.51,2.65,15.84,3.65,6.55,1.48,13.14-.35,19.36-2.37,3.45-1.14,7.22-1.27,10.56-2.77,6.52-2.74,12.6-6.59,19.36-8.77,3.42-1.2,7.06-1.84,10.56-2.76,4.9-1.32,9.87-2.79,14.96-3.12,3.21-.22,6.52,0,9.68.65,3.79.85,7.57,2.07,11.44,2.54,11.83,1.59,18.69,1.36,29.04,8.5,14.78,9.68,20.82,3.58,36.08,1.07"/><path class="b" d="M7.57,69.76c2.31-.34,4.78-.28,7.04.35,1.43.43,2.96,1.1,4.4,1.5,2.83.82,5.85,1.22,8.8,1.23,5.31.05,10.57-1.13,15.84-1.61,2.61-.29,5.31.03,7.92-.18,3-.23,6.03-1.02,8.8-2.19,7.52-3.12,13.58-8.94,21.12-12.02,5.2-2.5,10.81-4.99,16.72-4.34,3.96.36,7.74,1.87,11.44,3.22,3.42,1.23,7.01,2.17,10.56,2.93,9.31,1.96,19.38,2.59,27.28,8.45,4.66,3.16,9.94,6.66,15.84,5.78,3.44-.46,6.64-2.12,9.68-3.7,3.84-1.79,7.49-4.14,11.44-5.71"/><path class="b" d="M7.57,67.28c2.01-.24,4.18-.27,6.16.18,1.45.26,2.89,1.29,4.4,1.14,15.54,0,31.1,0,46.64,0,6.06-3.64,10.57-9.42,16.72-12.93,4.03-2.63,8.26-5.6,13.2-6.04,5.04-.49,9.67,2.04,14.08,4.11,3.07,1.41,6.42,2.34,9.68,3.2,8.42,2.31,17.57,2.1,25.52,5.97,3.07,1.63,5.79,3.98,8.8,5.7,5.26-.1,10.6.2,15.84-.12,2.99-1.91,5.93-4.09,8.8-6.17,2.24-1.73,4.54-3.64,7.04-5"/><path class="b" d="M7.57,63.82c20.82,0,41.65,0,62.48,0,1.39.04,2.6.14,3.52-1.08,1.39-1.32,2.93-2.8,4.4-4.03,6.5-4.52,13.31-11.93,22-9.7,3.41.83,6.52,2.71,9.68,4.17,2.22,1,4.68,1.72,7.04,2.28,7.77,1.99,15.97.74,23.76,2.55,4.05.81,7.18,3.67,10.56,5.81,4.09,0,8.23,0,12.32,0,2.31,0,4.73,0,7.04,0,5.12-3.06,9.06-7.91,14.08-11.14"/><path class="b" d="M7.57,59.05c22.58,0,45.17,0,67.76,0,.45.03,1.32-.04,1.76-.16.43-.34,1.31-1,1.76-1.32,1.11-.74,2.44-1.62,3.52-2.41,6.64-5.02,12.67-9.09,21.12-5.29,2.66,1.1,5.23,2.63,7.92,3.65,6.22,2.42,13.02,1.27,19.36-.06,10.23-2.02,13.09-.75,21.12,5.55,6.73.02,13.52.16,20.24-.05,4.29-2.87,7.93-6.73,12.32-9.46"/><path class="b" d="M7.57,54.27c18.77,0,37.55,0,56.32,0,5.56,0,11.16,0,16.72,0,4.47-2.5,8.81-5.94,14.08-6.42,6.86-.74,12.25,4.46,18.48,6.25,1.08.29,2.42.14,3.52.18,1.74.04,3.61.03,5.28-.54,6.78-1.75,12.95-7.03,20.24-6.07,3.29.64,6.06,2.86,8.8,4.67,1.07.65,2.25,1.74,3.52,1.94,2.01,0,4.15,0,6.16,0,3.2,0,6.48,0,9.68,0,0,0,.88,0,.88,0l.88-.45c.77-.46,1.87-1.12,2.64-1.59,3.29-1.94,6.23-4.6,9.68-6.28"/><path class="b" d="M7.57,48.75c2.68.15,5.2.96,7.92.74,6.44,0,12.92,0,19.36,0,14.37,0,28.75,0,43.12,0,2.31,0,4.73,0,7.04,0,5.68-2.6,10.81-3.67,16.72-.96.78.33,1.77.94,2.64.96,2.01,0,4.15,0,6.16,0,4.68,0,9.4,0,14.08,0,1.1,0,2.42,0,3.52,0,1.18-.48,2.42-1.39,3.52-2.03,9.52-5.9,12.04-3.8,21.12,1.06.74.37,1.79.94,2.64.97,1.41,0,2.99,0,4.4,0,3.2,0,6.48,0,9.68,0,1.52.02,3-1.04,4.4-1.54,3.66-1.39,6.94-3.76,10.56-5.23"/><path class="b" d="M7.57,43.52c1.43.06,3,.23,4.4.53,1.11.23,2.36.78,3.52.67,9.08,0,18.19,0,27.28,0,19.06,0,38.14,0,57.2,0,10.55,0,21.13,0,31.68,0,.78,0,1.86.02,2.64-.05.41-.25,1.33-.74,1.76-.96,4.15-2.19,7.18-1.84,11.44-.19,1.1.38,2.39.92,3.52,1.2,1.1,0,2.42,0,3.52,0,2.9,0,5.89,0,8.8,0,2.61,0,5.31,0,7.92,0,2.04-.37,4.18-.96,6.16-1.59,2.34-.87,4.69-2.05,7.04-2.91"/><path class="b" d="M7.57,38.95c2.05.14,4.16.58,6.16.99,2.91,0,5.89,0,8.8,0,7.32,0,14.68,0,22,0,20.53,0,41.07,0,61.6,0,16.42,0,32.86,0,49.28,0,5.56,0,11.16,0,16.72,0,2.61,0,5.31,0,7.92,0,1.49-.2,2.99-1.09,4.4-1.58"/><path class="b" d="M7.57,35.16h176.87"/><path class="b" d="M7.57,30.38h176.87"/><path class="b" d="M7.57,25.6h176.87"/><path class="b" d="M7.57,20.83h176.87"/><path class="b" d="M7.57,16.05c29.04,0,58.08,0,87.11,0,10.26,0,20.54,0,30.8,0,4.68,0,9.4,0,14.08,0,1.76-.32,3.42-1.26,5.28-1.34,5.01-.52,10.02.69,14.96,1.31,2.01.07,4.15.02,6.16.03,3.79,0,7.65,0,11.44,0,2.37-.54,4.71-1.63,7.04-2.31"/></svg>