<?xml version="1.0" encoding="UTF-8"?><svg id="a" xmlns="http://www.w3.org/2000/svg" width="1920" height="2400" viewBox="0 0 192 240"><defs><style>.b{fill:none;stroke:#fff;stroke-miterlimit:10;stroke-width:.4px;}.c{stroke-width:0px;}</style></defs><rect class="c" width="192" height="240"/><path class="b" d="M7.96,224.97c2.89,0,5.87,0,8.76,0,6.28-3.19,10.7-10.75,18.4-10.87,6.2,0,10.77,5.17,16.64,6.37,6.54,1.53,12.7-1.93,18.4-4.68,7.97-3.87,9.55-1.56,17.52-.26,7.05,1.34,14.17,2.58,21.02,4.76,8.94,3.75,14.87.67,23.65-1.21,2.56-.53,5.27-.84,7.88-.61,2.34.21,4.67,1.07,7.01,1.3,7.36,1.01,14.61-1.26,21.9-1.86,5.01-.42,9.9,1.34,14.89,1.48"/><path class="b" d="M7.96,220.22c4.07,0,8.19,0,12.26,0,.95.14,1.97-.33,2.63-.99,1.09-.87,2.38-1.9,3.5-2.72,6.18-4.68,11.41-5.17,18.4-1.94,3.86,1.84,8.01,2.96,12.26,1.88,4.03-.91,7.72-3,11.39-4.82,2.98-1.46,6.23-3,9.64-2.84,3.54.53,7.02,1.8,10.51,2.58,5.83,1.49,11.73,2.87,17.52,4.51,2.32.62,4.68,1.49,7.01,2.11,2.55.59,5.29.58,7.88.28,6.42-.74,12.75-2.94,19.27-2.41,4.09.48,8.14,1.66,12.26,1.89,4.94.43,9.95.05,14.89-.2,5.55-.45,11.1,1.05,16.64.33"/><path class="b" d="M7.96,215.46c6.12,0,12.28,0,18.4,0,1.23.16,2.44-.49,3.5-.99,1.08-.47,2.37-.95,3.5-1.28,3.1-.91,6.44-1.03,9.64-.61,2.31.25,4.68.89,7.01.95,5.68-.06,10.74-3.12,15.77-5.4,4.06-1.87,8.6-3.66,13.14-2.77,2.6.64,5.27,1.44,7.88,2.03,6.33,1.55,12.85,2.19,19.27,3.2,3.52.51,6.95,1.83,10.51,2.11,7.29.64,14.61-.8,21.9-.36,5.38.2,10.56,1.94,15.77,3.1,9.92.02,19.86,0,29.78,0"/><path class="b" d="M7.96,210.71c9.92,0,19.86,0,29.78,0,14.22-.11,10.94,1.28,23.65-5.55,5.06-2.69,10.93-4.39,16.64-3.11,3.2.73,6.4,1.76,9.64,2.32,6.63,1.4,13.44.65,20.15.97,3.52.28,6.99,1.33,10.51,1.64,6.98.8,14.04,1.1,21.02,1.9,2.01.24,4.16.39,6.13.88,1.69.45,3.47,1.15,5.26.95,11.09,0,22.2,0,33.29,0"/><path class="b" d="M7.96,205.95c10.5,0,21.03,0,31.54,0,4.07,0,8.2,0,12.26,0,1.26-.37,2.43-1.45,3.5-2.15,1.95-1.39,4.03-2.86,6.13-4.02,3.42-1.94,7.45-3,11.39-2.49,6.21.86,12.13,3.42,18.4,4.02,6.14.81,12.27-.83,18.4-.65,9.38,1.21,18.68,3.27,28.03,4.69,6.06,1.05,12.28.46,18.4.61,9.34,0,18.7,0,28.03,0"/><path class="b" d="M7.96,200.68l.88.51c9.92,0,19.86,0,29.78,0,2.89,0,5.87,0,8.76,0,1.7-.07,3.58.18,5.26-.17,2-1.71,4.05-3.59,6.13-5.19,8.28-6.4,12.79-4.45,21.9-1.94,5.18,1.44,10.34,3.36,15.77,3.54,5.54.33,11.14-1.13,16.64-.04,4.1.63,8.22,1.46,12.26,2.36,2.88.55,5.79,1.63,8.76,1.45,16.64,0,33.29,0,49.93,0"/><path class="b" d="M7.96,194.59c1.1.58,2.28,1.55,3.5,1.84,1.1,0,2.41,0,3.5,0,3.19,0,6.45,0,9.64,0,9.04,0,18.11,0,27.16,0,5.11-3.91,9.18-9.87,15.77-11.49,3.79-.99,7.69.12,11.39,1,6.13,1.13,11.5,4.72,17.52,6.27,4.54,1.33,9.34,1.42,14.02,1.94,2.91.41,5.88.98,8.76,1.55,1.41.22,2.95.78,4.38.73,20.14,0,40.3,0,60.44,0"/><path class="b" d="M7.96,189.65c1.11.56,2.41,1.26,3.5,1.84.77.25,1.83.19,2.63.19,3.48,0,7.03,0,10.51,0,9.34,0,18.7,0,28.03,0,5.65-5.13,10.53-12.21,18.4-14,3.15-.69,6.46-.34,9.64-.04,3.47.57,6.63,2.4,9.64,4.14,3.44,2.03,6.89,4.2,10.51,5.89,4.14,1.92,8.63,3.34,13.14,4,2.89,0,5.87,0,8.76,0,20.44,0,40.88,0,61.32,0"/><path class="b" d="M7.96,185.06c1.72.55,3.45,1.68,5.26,1.86,4.07,0,8.2,0,12.26,0,9.34,0,18.7,0,28.03,0,1.98-1.26,3.54-3.38,5.26-4.97,2.69-2.72,5.55-5.47,8.76-7.57,3.12-2.08,6.79-3.39,10.51-3.85,2.95-.57,6.04-.14,8.76,1.13,8.46,3.89,14.87,11.36,23.65,14.66,1.62.76,3.51.6,5.26.6,2.6,0,5.29,0,7.88,0,7.29,0,14.61,0,21.9,0,12.84,0,25.7,0,38.54,0"/><path class="b" d="M7.96,180.42c2.32.5,4.68,1.29,7.01,1.75,4.07,0,8.2,0,12.26,0,9.04,0,18.11,0,27.16,0,6.7-5.39,12.83-11.93,21.02-15.08,6.48-2.75,11.33-2.84,17.52.72,5.31,3,9.77,7.35,14.89,10.63,1.87,1.26,4.13,2.03,6.13,3.02,1.52,1.05,3.52.64,5.26.71,2.3,0,4.71,0,7.01,0,7.29,0,14.61,0,21.9,0,11.97,0,23.95,0,35.92,0"/><path class="b" d="M7.96,175.57c2.31.2,4.73.45,7.01.88,1.45.16,2.93.96,4.38.96,5.24,0,10.53,0,15.77,0,4.07,0,8.2,0,12.26,0,1.41,0,2.98,0,4.38,0,1.22.1,2.5-.06,3.5-.82,7.15-4.27,14.22-8.79,21.9-12.08,5.2-2.48,10.98-4.38,16.64-2.25,5.23,1.83,9.49,5.62,14.02,8.69,1.6,1.14,3.53,2.05,5.26,2.97,1.78,1.02,3.56,2.34,5.26,3.49h65.7"/><path class="b" d="M7.96,170.62c2.9-.08,5.91-.17,8.76.41,1.77.34,3.53,1.14,5.26,1.62,1.11,0,2.4,0,3.5,0,7.58,0,15.19,0,22.78,0,1.47-.13,2.97-.91,4.38-1.3,2.29-.74,4.7-1.46,7.01-2.12,5.88-1.69,11.86-3.27,17.52-5.61,4.86-1.97,9.5-5.13,14.89-5.35,5.93-.29,11.03,3.34,15.77,6.45,1.64,1.12,3.55,2.08,5.26,3.08,2.11,1.34,4.16,3,6.13,4.53,1.02.51,2.4.26,3.5.32,1.7,0,3.55,0,5.26,0,4.95,0,9.94,0,14.89,0,3.48,0,7.03,0,10.51,0,2.23-.79,4.58-1.74,7.01-1.63,2.1.04,4.26.71,6.13,1.63,5.83,0,11.69,0,17.52,0"/><path class="b" d="M7.96,165.87c2.89-.16,5.9-.31,8.76.2,2.37.36,4.66,1.45,7.01,1.82,4.95,0,9.94,0,14.89,0,.79,0,1.84,0,2.63,0,2.09-.45,4.12-1.53,6.13-2.23,3.06-1.18,6.37-1.85,9.64-2.12,12.49-.82,16.92.98,28.91-4.95,7.93-3.56,13.91-2.02,21.02,2.42,3.53,2.11,7.29,4.01,10.51,6.59,1.03.48,2.4.24,3.5.29,1.4,0,2.98,0,4.38,0,4.36,0,8.78,0,13.14,0,4.36,0,8.78,0,13.14,0,1.18-.21,2.38-1.04,3.5-1.42,2.47-.97,5.29-1.29,7.88-.66,1.81.39,3.59,1.32,5.26,2.08,5.24,0,10.53,0,15.77,0"/><path class="b" d="M7.96,161.34c2.61.2,5.3.46,7.88.9,1.72.22,3.51.98,5.26.91,3.78,0,7.61,0,11.39,0,1.99-.12,4.2.29,6.13-.25,6.74-2.81,11.58-5.83,19.27-5.28,5.33.26,10.49,1.94,15.77,2.59,10.89,1.59,17.13-7.34,28.91-3.35,4.34,1.49,8.34,3.96,12.26,6.28,7.29,0,14.61,0,21.9,0,6.12,0,12.28,0,18.4,0,1.72.02,3.52-.6,5.26-.52,1.73-.1,3.55.52,5.26.52,6.12,0,12.28,0,18.4,0"/><path class="b" d="M7.96,156.87c1.72.48,3.52,1.11,5.26,1.52,1.41,0,2.97,0,4.38,0,4.07,0,8.19,0,12.26,0,2.6,0,5.29,0,7.88,0,1.55-.01,2.99-1.27,4.38-1.86,2.21-1.16,4.56-2.34,7.01-2.92,7.22-2.09,14.25-.49,21.02,2.28,2.55.95,5.19,2.02,7.88,2.5,2-.05,4.14.11,6.13-.09,4.08-.8,8.09-2.3,12.26-2.6,4.23-.37,8.51.7,12.26,2.63,2,.14,4.13.03,6.13.06,23.06,0,46.14,0,69.2,0"/><path class="b" d="M7.96,152.33c.8.39,1.82.95,2.63,1.3,1.71,0,3.55,0,5.26,0,3.78,0,7.61,0,11.39,0,2.89,0,5.87,0,8.76,0,1.7-.08,3.58.19,5.26-.18,2.46-1.4,5.08-2.8,7.88-3.34,4.83-1.26,10.01-2,14.89-.58,3.04.82,5.97,2.25,8.76,3.69,1.26.76,2.97.29,4.38.41,10.8,0,21.62,0,32.41,0,24.82,0,49.64,0,74.46,0"/><path class="b" d="M7.96,147.58c.8.46,1.65,1.33,2.63,1.29,1.71,0,3.55,0,5.26,0,3.78,0,7.61,0,11.39,0,5.53,0,11.11,0,16.64,0,.84-.08,1.84-.6,2.63-.86,1.08-.36,2.4-.57,3.5-.84,4.54-1.19,9.31-2.54,14.02-1.49,2.77.56,5.42,1.84,7.88,3.19,2.89,0,5.87,0,8.76,0,9.34,0,18.7,0,28.03,0,25.11.03,50.24-.04,75.34,0"/><path class="b" d="M7.96,142.46c.79.52,1.74,1.31,2.63,1.65,2.01,0,4.13,0,6.13,0,4.36,0,8.78,0,13.14,0,6.41,0,12.86,0,19.27,0,2.91-.59,5.81-1.62,8.76-2.04,2.6-.39,5.36-.25,7.88.52,1.75.42,3.39,1.73,5.26,1.52,15.47,0,30.96,0,46.43,0,17.22,0,34.46,0,51.68,0,1.71.26,2.98-1.36,4.38-2.07,3.13-1.83,7-2.13,10.51-1.42"/><path class="b" d="M7.96,137.15c1.12.68,2.31,1.67,3.5,2.21,1.41,0,2.97,0,4.38,0,3.78,0,7.61,0,11.39,0,5.83,0,11.69,0,17.52,0,3.96-.42,8.23-1.38,12.26-1.6,2.02-.09,4.17.1,6.13.61,1.12.24,2.35.9,3.5.99,10.21,0,20.45,0,30.66,0,22.48,0,44.97,0,67.45,0,6.63-5.24,10.12-8.92,19.27-7.18"/><path class="b" d="M7.96,131.79c1.44.86,2.91,2.01,4.38,2.81,2.01,0,4.13,0,6.13,0,5.24,0,10.53,0,15.77,0,2.01,0,4.13,0,6.13,0,2.05-.59,3.97-1.95,6.13-2.23,4.66-.28,9.52-.01,14.02,1.3.8.24,1.85.62,2.63.93.79,0,1.84,0,2.63,0,2.3,0,4.71,0,7.01,0,6.41,0,12.86,0,19.27,0,18.68,0,37.38,0,56.06,0,2.3-.03,4.71.06,7.01-.04,1.41-.88,2.99-1.9,4.38-2.81,9.4-6.05,12.78-9.35,24.53-6.76"/><path class="b" d="M7.96,126.13c1.13.67,2.42,1.53,3.5,2.26.78.49,1.69,1.32,2.63,1.46,1.41,0,2.97,0,4.38,0,5.24,0,10.53,0,15.77,0,1.1,0,2.4.03,3.5-.05.78-.45,1.83-1.05,2.63-1.47,4.8-2.66,7.14-2.4,12.26-1.09,2.67.63,5.32,1.64,7.88,2.61,1.1,0,2.41,0,3.5,0,8.17,0,16.36,0,24.53,0,19.27,0,38.55,0,57.82,0,7.27-6.21,15.02-14.51,25.4-13.84,4.18.4,8.18,2.02,12.26,2.91"/><path class="b" d="M7.96,120.02c2.73,1.46,5.21,3.52,7.88,5.07,5.83,0,11.69,0,17.52,0,.79,0,1.84,0,2.63,0,1.18-.32,2.4-1.12,3.5-1.62,4.9-2.4,7.28-2.37,12.26-.36,1.73.59,3.51,1.46,5.26,1.98,2.89,0,5.87,0,8.76,0,6.41,0,12.86,0,19.27,0,18.98,0,37.96,0,56.94,0,7.87-6.72,14.54-22.28,27.16-18.21,5.12,1.82,9.59,5.3,14.89,6.68"/><path class="b" d="M7.96,113.45c3.77,1.82,7.03,4.6,10.51,6.88,6.12,0,12.28,0,18.4,0,2.78-1.01,5.74-2.17,8.76-1.97,2.14.14,4.12,1.35,6.13,1.97,5.24,0,10.53,0,15.77,0,11.38,0,22.78,0,34.16,0,10.21,0,20.45,0,30.66,0,2.3,0,4.71,0,7.01,0,1.11-.24,1.89-1.61,2.63-2.37,5.26-5.91,8.78-13.42,14.89-18.56,6.43-5.35,12.1-1.2,17.52,3.2,2.91,2.27,6.11,4.41,9.64,5.59"/><path class="b" d="M7.96,106.52c4.56,1.74,8.15,5.2,12.26,7.68,1.06.53,2.28,1.38,3.5,1.38,2.01,0,4.13,0,6.13,0,4.95,0,9.94,0,14.89,0,9.63,0,19.28,0,28.91,0,21.6,0,43.22,0,64.82,0,1.38-.73,2.45-2.34,3.5-3.46,2.6-2.99,4.82-6.48,7.01-9.76,4.18-6.18,10.69-16.46,19.27-11.12,5.38,3.31,9.62,8.54,15.77,10.59"/><path class="b" d="M7.96,99.5c4.55,1.13,8.34,4.02,12.26,6.42,3.79,2.24,7.96,3.94,12.26,4.86,2,.09,4.13.02,6.13.04,12.26,0,24.53,0,36.79,0,20.73-.07,41.48.14,62.2-.07,4.51-3.75,8.03-8.6,11.39-13.37,4.65-6.41,11.23-15.65,20.15-10.67,2.45,1.25,4.7,3.05,7.01,4.53,2.39,1.51,5.11,2.71,7.88,3.29"/><path class="b" d="M7.96,92.85c4.71.42,8.99,2.53,13.14,4.63,4.98,2.44,9.96,4.99,14.89,7.53.78.38,1.74,1.02,2.63,1.06,1.71,0,3.55,0,5.26,0,4.07,0,8.2,0,12.26,0,4.36,0,8.78,0,13.14,0,2.01,0,4.13,0,6.13,0,.85-.02,1.84-.58,2.63-.86,6.26-2.13,12.99-.5,19.27.71,2.27.34,4.71.07,7.01.15,4.07,0,8.2,0,12.26,0,5.53,0,11.11,0,16.64,0,1.27.18,2.47-.92,3.5-1.52,1.84-1.24,3.67-2.79,5.26-4.34,7.68-7.43,15.41-21.47,28.03-16.58,2.05.7,4.1,1.77,6.13,2.52,2.49.87,5.26,1.1,7.88,1"/><path class="b" d="M7.96,86.8c6.36-.37,12.72,1.25,18.4,4.07,4.79,2.41,9.03,5.86,13.14,9.27.45.37,1.2.98,1.75,1.17,1.41,0,2.97,0,4.38,0,3.19,0,6.45,0,9.64,0,6.12,0,12.28,0,18.4,0,.55,0,1.36-.46,1.75-.82.76-.55,1.82-1.25,2.63-1.72,2.35-1.39,5.16-2.1,7.88-2.1,6.67.04,12.84,3.09,19.27,4.44,1.37.35,2.98.16,4.38.2,2.3,0,4.71,0,7.01,0,2,0,4.13,0,6.13,0,2.95-.31,5.96-.96,8.76-1.94,5.76-1.88,10.48-5.84,14.89-9.85,5.19-4.46,11.36-8.47,18.4-8.79,4.11-.37,8.19.85,12.26.91,2.36-.14,4.75-.85,7.01-1.5"/><path class="b" d="M7.96,81.27c14.93-2.81,21.47.38,31.54,11.23,1.41,1.28,2.64,3.23,4.38,4.05,2.01,0,4.13,0,6.13,0,7,0,14.03,0,21.02,0,3.9.18,3.31-.27,6.13-2.54,6.51-5.73,13.49-4.45,21.02-1.8,3.41,1.13,6.91,2.36,10.51,2.71,4.69.3,9.42-.72,14.02-1.56,5.39-1.11,10.85-2.45,15.77-4.97,2.8-1.35,5.2-3.52,7.88-5.04,4.27-2.42,9.18-3.54,14.02-4.16,5.22-.73,10.58-.88,15.77-1.84,2.75-.79,5.3-2.36,7.88-3.55"/><path class="b" d="M7.96,75.87c11.96-3.4,18.93-4.5,28.03,5.37,3.34,3.34,6.04,7.5,9.64,10.56h28.91c.94-.43,1.87-1.49,2.63-2.16,1.57-1.45,3.35-2.94,5.26-3.93,8.14-4.39,17.02.45,25.4,1.28,3.51.34,7.07-.39,10.51-.99,3.78-.71,7.62-1.43,11.39-2.16,3.56-.71,7.21-1.56,10.51-3.1,1.47-.66,2.96-1.69,4.38-2.45,1.61-.81,3.48-1.36,5.26-1.65,6.39-.85,12.96-.11,19.27-1.67,2.33-.55,4.78-1.14,7.01-2.03,2.73-1.26,5.22-3.17,7.88-4.55"/><path class="b" d="M7.96,70.33c21.57-7.56,24.69,2.3,37.67,16.49,1.36.42,2.98.15,4.38.23,2,0,4.13,0,6.13,0,6.41,0,12.86,0,19.27,0,6.69-7.1,12.85-10.33,22.78-9.58,4.65.28,9.34,1.1,14.02.78,3.78-.23,7.61-.54,11.39-.69,3.78-.18,7.64-.21,11.39-.77,2.39-.36,4.84-1.03,7.01-2.11,2.39-1.43,5.09-2.5,7.88-2.7,5.52-.45,11.16.34,16.64-.68,3.26-.58,6.57-1.49,9.64-2.77,2.68-1.29,5.18-3.13,7.88-4.37"/><path class="b" d="M7.96,65.66c13.11-1.95,20.08-1.84,29.78,8.09,2.95,2.74,5.48,6.19,8.76,8.54,9.04,0,18.11,0,27.16,0,1.68-.8,2.95-2.58,4.38-3.75,2.12-1.96,4.5-3.82,7.01-5.26,6.7-4.05,14.43-4.01,21.9-2.61,7.83,1.08,15.72,2.71,23.65,2.43,5-.14,9.69-1.81,14.02-4.23,3.29-1.4,7.01-1.35,10.51-1.1,7.06.71,14.42.69,21.02-2.2,2.66-1.25,5.18-3.01,7.88-4.16"/><path class="b" d="M7.96,60.95c12.05,1.31,19.78,1.85,29.78,9.55,2.04,1.51,4.13,3.19,6.13,4.74,1.31.89,2.64,2.52,4.38,2.28,7.87,0,15.78,0,23.65,0,8.55-6.41,17.16-16.19,28.91-14.57,6.16.86,11.76,3.89,17.52,6.07,4.97,1.98,10.59,2.74,15.77,1.09,2.41-.72,4.8-1.84,7.01-3.05,1.92-1.09,3.94-2.31,6.13-2.76,4.91-1.08,9.96.09,14.89.4,4.71.35,9.62-.08,14.02-1.91,2.66-1.19,5.19-2.89,7.88-4.01"/><path class="b" d="M7.96,55.5c5.57,1.74,11.22,3.42,16.64,5.59,7.56,3.06,14.81,6.89,21.9,10.9,1,.75,2.31.87,3.5.78,1.41,0,2.97,0,4.38,0,4.36,0,8.78,0,13.14,0,.79,0,1.84,0,2.63,0,1.84-.76,3.59-2.07,5.26-3.15,2.94-2.02,5.93-4.16,8.76-6.34,3.43-2.56,7.13-5.18,11.39-6.1,7.67-1.67,14.3,3.77,20.15,7.94,11.84,8.73,17.17,4.54,28.03-2.5,3.42-1.95,7.51-2.43,11.39-2.3,7,.29,14.34,1.39,21.02-1.32,2.66-1.13,5.21-2.74,7.88-3.82"/><path class="b" d="M7.96,49.15c6.74,2.28,13.07,5.68,19.27,9.14,4.49,2.46,9.24,4.53,14.02,6.36,1.72.67,3.57,1.4,5.26,2.16.79.35,1.83.88,2.63,1.22.79,0,1.84,0,2.63,0,5.24,0,10.53,0,15.77,0,1.1,0,2.4.01,3.5-.02,2.39-.9,4.8-2.07,7.01-3.35,6.99-3.7,11.94-11.45,20.15-12.67,10.39-.67,15.67,10.48,23.65,15.15.41.24,1.31.7,1.75.89.42,0,1.33,0,1.75,0,1.4,0,2.98,0,4.38,0,.78,0,1.87.06,2.63-.21.81-.37,1.88-.97,2.63-1.45,2.72-1.75,5.21-4,7.88-5.81,3.62-2.45,7.95-3.72,12.26-4.21,7-.81,14.31-.34,21.02-2.8,2.65-1.04,5.21-2.53,7.88-3.51"/><path class="b" d="M7.96,42.3c10.74,1.95,18.36,10.61,28.03,14.98,3.1,1.49,6.43,2.64,9.64,3.87,1.73.64,3.48,1.6,5.26,2.11,8.46,0,16.95,0,25.4,0,8.56-1.82,14.2-14.87,23.65-16.05,9.77-.78,14.74,11.86,21.9,16.05,2.89,0,5.87,0,8.76,0,1.7-.12,3.65.31,5.26-.3,2.67-1.91,5.13-4.29,7.88-6.07,3.75-2.45,7.98-4.25,12.26-5.53,6.04-1.82,12.33-2.82,18.4-4.54,3.28-.9,6.35-2.65,9.64-3.56"/><path class="b" d="M7.96,35.25c6.29-1.15,11.92,2.76,16.64,6.42,3.41,2.62,6.86,5.35,10.51,7.63,6.04,3.77,12.77,6.35,19.27,9.2,9.34.02,18.7,0,28.03,0,3.31-2.56,5.81-6.21,8.76-9.16,7.82-8.41,14.13-9.3,21.9-.27,2.81,3.12,5.5,6.54,8.76,9.22,1.37.38,2.98.14,4.38.2,2.3,0,4.71,0,7.01,0,1.4-.07,3.02.18,4.38-.21,2.02-1.39,4.05-3.03,6.13-4.35,5.06-3.23,10.38-6.15,15.77-8.79,5.34-2.63,10.9-4.93,16.64-6.53,2.58-.87,5.19-1.99,7.88-2.46"/><path class="b" d="M7.96,28.81c5.45-3.18,10.24-.93,14.89,2.43,4.17,2.98,8.09,6.43,12.26,9.42,4.32,3.18,9.12,5.74,14.02,7.9,3.01,1.48,5.92,3.36,8.76,5.14,9.04.14,18.11,0,27.16.05,5.99-5.27,12.31-17.33,21.9-12.87,5.64,3.03,9.12,8.86,14.02,12.84,6.41.09,12.86,0,19.27.03,1.25.18,2.46-.62,3.5-1.18,1.73-.93,3.58-1.98,5.26-3.01,6.35-3.83,12.12-8.6,18.4-12.55,2.93-1.92,6.26-3.19,9.64-4.05,2.27-.74,4.63-1.58,7.01-1.9"/><path class="b" d="M7.96,24.64c4.92-3.9,8.78-3.44,14.02-.46,4.94,2.82,9.36,6.55,14.02,9.79,4.34,3.19,9.16,5.68,14.02,7.96,3.42,1.96,6.51,4.59,9.64,6.99,8.74.21,17.53,0,26.28.08,4.8-3.99,8.92-10.38,15.77-10.71,7.06.09,11.49,6.7,16.64,10.62,9.62.24,19.28,0,28.91.09,4.86.18,17-12.52,21.9-15.56,1.32-.9,2.88-1.8,4.38-2.34,1.08-.36,2.42-.6,3.5-.94,2.28-.69,4.64-1.52,7.01-1.86"/><path class="b" d="M7.96,23.18c3.99-3.05,7.44-4.02,12.26-2.31,5.98,1.98,11.25,5.65,16.64,8.82,4.17,2.63,8.68,4.72,13.14,6.77,3.43,1.95,6.49,4.62,9.64,6.98,1.1,1.17,2.94.7,4.38.79,1.7,0,3.55,0,5.26,0,5.24,0,10.53,0,15.77,0,5.93-4.91,12.2-10.34,20.15-6.03,3.19,1.55,5.78,4.18,8.76,6.03h41.17c3.8-2.42,7.1-5.66,10.51-8.57,2.38-2.01,4.91-4.16,7.88-5.23,3.54-.71,6.98-2.06,10.51-2.77"/><path class="b" d="M7.96,23.69c3.59-1.96,7.31-2.96,11.39-2.15,6.12.92,11.89,3.43,17.52,5.9,4.3,1.99,8.77,3.71,13.14,5.52,3.34,1.67,6.42,3.96,9.64,5.84.97.77,2.34.73,3.5.69,1.41,0,2.97,0,4.38,0,4.36,0,8.78,0,13.14,0,.92.18,1.88-.54,2.63-.99.78-.48,1.84-1.13,2.63-1.6,2.41-1.44,5.07-2.79,7.88-3.18,3.75-.56,7.46.99,10.51,3.05.8.53,1.86,1.3,2.63,1.88.36.37,1.21.86,1.75.85,7.29,0,14.61,0,21.9,0,6.41,0,12.86,0,19.27,0,3.77-.09,7.64.19,11.39-.13,3.97-2.87,7.56-6.67,12.26-8.33,3.56-.56,7-1.89,10.51-2.69"/><path class="b" d="M7.96,24.25c2.85-.64,5.82-1.28,8.76-1.14,6.54.28,13,1.76,19.27,3.55,3.49,1,7.03,2.11,10.51,3.15,3.03.78,5.95,2.11,8.76,3.46,1.08.48,2.35,1.15,3.5,1.45,1.71,0,3.55,0,5.26,0,4.07,0,8.2,0,12.26,0,3.17.29,5.94-1.79,8.76-2.94,7.44-3.67,13.02-2.18,19.27,2.89,19.85.15,39.72,0,59.57.05.78,0,1.85,0,2.63,0,1.79-.74,3.44-2.13,5.26-2.84,1.61-.78,3.54-.86,5.26-1.23,2.31-.53,4.67-1.33,7.01-1.73"/><path class="b" d="M7.96,24.79c4.37-.02,8.78.1,13.14.4,5.55.26,11.16.6,16.64,1.54,4.42.78,8.89,1.75,13.14,3.22,2.6.05,5.29,0,7.88.02,7.29,0,14.61,0,21.9,0,3.5-1.05,6.84-2.91,10.51-3.34,2.98-.41,6.09.25,8.76,1.6,1.4.61,2.75,1.97,4.38,1.75,7.58,0,15.19,0,22.78,0,14.3,0,28.62,0,42.92,0,1.45.18,2.97-.39,4.38-.59,3.2-.11,6.43-.76,9.64-.7"/><path class="b" d="M7.96,24.31c4.32.87,8.75.99,13.14.9,4.08.15,8.19-.3,12.26-.43,2.31-.04,4.72.1,7.01.43,2.3,0,4.71,0,7.01,0,9.04,0,18.11,0,27.16,0,4.36-.05,8.79.11,13.14-.07,1.67-.54,3.51-1,5.26-1.19,1.71-.18,3.58-.08,5.26.28,1.43.25,2.91,1.1,4.38.98,7,0,14.03,0,21.02,0,20.14,0,40.3,0,60.44,0"/><path class="b" d="M7.96,20.45h176.08"/><path class="b" d="M7.96,15.59c6.69.3,13.45.02,20.15.11,2.61.02,5.25-.85,7.88-.67,1.74-.01,3.54.47,5.26.67,5.24,0,10.53,0,15.77,0,11.09,0,22.2,0,33.29,0,31.24,0,62.49,0,93.73,0"/></svg>