<?xml version="1.0" encoding="UTF-8"?><svg id="a" xmlns="http://www.w3.org/2000/svg" width="1920" height="2400" viewBox="0 0 192 240"><defs><style>.b{fill:none;stroke:#fff;stroke-miterlimit:10;stroke-width:.4px;}.c{stroke-width:0px;}</style></defs><rect class="c" x="0" width="192" height="240"/><path class="b" d="M8.22,229.11h34.94c5.3-4.4,10.97-8.66,17.47-11.13,4.16-1.6,8.67-2.13,13.1-2.28,4.67-.05,9.32-.97,13.98-1.27,4.94-.35,9.93.07,14.85.58,2.29.22,4.69.42,6.99.35,1.7-.07,3.54-.32,5.24-.14,4.13.37,8.17,1.6,12.23,2.37,7.78,1.63,15.89,1.33,23.58,3.41,3.69.99,7.21,2.7,10.48,4.64,1.1.65,2.41,1.46,3.49,2.13,1,.64,2.23,1.52,3.49,1.33,5.23,0,10.5,0,15.72,0"/><path class="b" d="M8.22,224.37c6.98,0,13.99,0,20.96,0,4.05-.11,8.2.23,12.23-.15,5.89-5.36,12.8-10.28,20.96-11.04,4.35-.5,8.75.12,13.1.22,3.52.12,7.01-.79,10.48-1.23,4.32-.63,8.75-.8,13.1-.53,3.18.17,6.42.53,9.61.58,2,.03,4.11-.23,6.11-.16,4.06.11,8.17.44,12.23.17,6.39-.3,12.84-2.26,19.22-.8,5.53,1.03,10.44,4.11,14.85,7.49,1.7,1.29,3.52,2.73,5.24,3.99.96.74,2.19,1.69,3.49,1.47,4.64,0,9.33,0,13.98,0"/><path class="b" d="M8.22,219.63c7.56,0,15.15,0,22.71,0,1.7,0,3.54,0,5.24,0,1.46-.06,3.3.35,4.37-.91,7.41-6.61,13.31-10.06,23.58-9.02,4.35.39,8.71,1.46,13.1,1.33,5.57-.45,10.99-2.35,16.6-2.56,4.65-.33,9.35.24,13.98.63,4.34.2,8.76.34,13.1.06,6.12-.4,11.72-3.17,17.47-5.02,12.82-4.12,21.52,8.74,30.57,15.4,4.92.2,9.92.02,14.85.08"/><path class="b" d="M8.22,214.88c9.89,0,19.81,0,29.7,0,1.75.2,3.03-1.63,4.37-2.49,1.89-1.47,3.92-3.02,6.11-3.99,4.09-1.81,8.68-2.24,13.1-1.95,5.8.33,11.65,1.67,17.47.84,11.58-2.4,15.63-4.19,27.95-2,4.03.57,8.16,1.09,12.23,1.24,4.93.13,9.69-1.63,13.98-3.93,4.3-2.24,8.91-5.11,13.98-4.09,9.84,1.95,15.22,11.75,23.58,16.37,2.59,0,5.27,0,7.86,0,1.71-.02,3.59.17,5.24-.41"/><path class="b" d="M8.22,210.14c7.27,0,14.57,0,21.84,0,2.3,0,4.69,0,6.99,0,1.1,0,2.39,0,3.49,0,.47-.24,1.32-.79,1.75-1.1,4.27-3.26,9.59-4.48,14.85-4.95,6.97-.65,14.04-.61,20.96-1.76,5.56-.83,10.94-2.93,16.6-3.1,4.42-.22,8.84.74,13.1,1.82,2.28.58,4.72.97,6.99,1.61,6.14,1.88,11.61,2.15,17.47-.85,4.55-2.12,8.78-5.58,13.98-5.8,6.31-.38,11.73,3.6,16.6,7.13,2.96,2.08,6,4.5,9.61,5.27,1.39.28,2.99.01,4.37-.22,2.33-.4,4.73-1.03,6.99-1.73"/><path class="b" d="M8.22,205.4c11.93,0,23.88,0,35.81,0,1.16-.17,2.37-.89,3.49-1.18,4.63-1.15,9.37-2.05,13.98-3.31,4.67-1.23,9.3-2.79,13.98-4,2.56-.69,5.29-1.02,7.86-1.63,5.68-1.44,11.69-2.4,17.47-.94,2.64.59,5.3,1.53,7.86,2.39,1.7.59,3.59,1.03,5.24,1.75,2.87,1.23,5.71,2.79,8.73,3.62,8.64,2.56,14.32-3.36,21.84-5.96,4.18-1.46,8.81-1.69,13.1-.54,5.29,1.22,10.19,4.45,15.72,4.4,3.54-.38,7.05-1.46,10.48-2.38"/><path class="b" d="M8.22,200.66c9.6,0,19.22,0,28.82,0,3.18,0,6.43,0,9.61,0,1.4,0,2.96,0,4.37,0,1.13-.17,2.41-.6,3.49-.94,8.4-2.5,15.84-7.74,24.46-9.54,11.98-2,16.3-3.18,27.95,2.03,2.26,1.04,4.78,1.76,6.99,2.92,3.2,1.73,6.22,3.98,9.61,5.34,1.37.35,2.97.13,4.37.18,2,0,4.12,0,6.11,0,2.79-.56,5.29-2.36,7.86-3.53,4.5-2.07,9.07-4.29,13.98-5.22,5.17-1.09,10.5-.25,15.72-.47,4.12-.38,8.15-1.73,12.23-2.43"/><path class="b" d="M8.22,195.91c9.89,0,19.81,0,29.7,0,4.35-.05,8.76.1,13.1-.07,3.03-.89,5.98-2.29,8.73-3.81,6.02-3.2,11.58-7.77,18.34-9.3,3.15-.42,6.43-.63,9.61-.63,9.72-.05,16.92,6.33,25.33,10.14,1.44.79,2.98,1.8,4.37,2.69.7.48,1.72,1.14,2.62.97,4.93,0,9.92,0,14.85,0,2,0,4.12,0,6.11,0,.82-.11,1.85-.61,2.62-.91,4.07-1.66,8.09-3.62,12.23-5.13,3.67-1.36,7.53-2.37,11.36-3.18,5.56-1.05,10.93-3.11,16.6-3.58"/><path class="b" d="M8.22,191.17c1.71,0,3.54,0,5.24,0,1.11-.08,2.38-.33,3.49-.35,4.93-.23,9.91-.42,14.85-.44,7.58-.23,15.68.65,22.71-2.75,7.4-3.42,13.29-9.6,20.96-12.48,2.78-1.04,5.84-.72,8.73-.57,12.64.63,19.29,10.25,29.7,15.74,1.19,1.04,2.9.85,4.37.84,2.29,0,4.69,0,6.99,0,6.39,0,12.82,0,19.22,0,1.7,0,3.54,0,5.24,0,2.63-.72,5.3-1.64,7.86-2.56,4.41-1.6,8.78-3.45,13.1-5.25,4.15-1.83,8.52-3.42,13.1-3.54"/><path class="b" d="M8.22,186.43c.79,0,1.83,0,2.62,0,1.44-.31,2.96-.93,4.37-1.36,3.77-1.12,7.51-2.56,11.36-3.43,3.41-.78,7-.99,10.48-.74,8.81.82,12.95,1.59,20.96-3.19,6.79-3.66,14.58-11.6,22.71-10.24,3.56.4,7.21,1.07,10.48,2.58,4.59,2.08,8.51,5.44,12.23,8.78,2.24,2.01,4.55,4.17,6.99,5.95.75.53,1.8,1.23,2.62,1.65.43,0,1.32,0,1.75,0,10.77,0,21.55,0,32.32,0,5.23,0,10.5,0,15.72,0,1.22.16,2.45-.75,3.49-1.26,1.72-.93,3.54-2,5.24-2.97,3.71-2.23,7.87-3.88,12.23-4.11"/><path class="b" d="M8.22,181.69c1.1-.02,2.4.05,3.49-.08,1.13-.41,2.42-.97,3.49-1.49,3.61-1.74,6.9-4.2,10.48-6,11.54-5.95,16.85.98,27.08-2.28,5.88-1.82,11.03-5.41,16.6-7.94,6.08-2.75,8.59-2.35,14.85-.96,7.48,1.22,13.84,5.67,19.22,10.81,1.99,1.83,4.05,3.81,6.11,5.55,1.04.81,2.22,1.96,3.49,2.38,6.1,0,12.24,0,18.34,0,6.98,0,13.99,0,20.96,0,6.39,0,12.82,0,19.22,0,1.45-.72,2.9-1.84,4.37-2.55,2.43-1.25,5.16-2.11,7.86-2.51"/><path class="b" d="M8.22,176.94c1.1,0,2.39,0,3.49,0,1.88-.43,3.65-1.65,5.24-2.69,3.8-2.7,7.22-6.09,11.36-8.31,3.43-1.92,7.49-2.55,11.36-1.92,2.88.39,5.81,1.25,8.73,1.03,8.87-.63,16.61-5.84,25.33-7.08,2.96-.48,5.89.38,8.73,1.05,2.59.5,5.31.86,7.86,1.58,6.83,1.81,12.3,6.57,17.47,11.16,1.37,1.2,2.92,2.52,4.37,3.62.73.53,1.71,1.37,2.62,1.56,2.59,0,5.27,0,7.86,0,6.68,0,13.41,0,20.09,0,8.73,0,17.48,0,26.2,0,2.29,0,4.69,0,6.99,0,2.49-1.23,5.13-2.42,7.86-3.01"/><path class="b" d="M8.22,172.2c6.55-.13,12.27-7.1,17.47-10.55,7.39-5.23,11.91-3.94,20.09-2.44,4.98.4,10.01-.82,14.85-1.88,4.87-1.12,9.8-2.65,14.85-2.49,3.25.1,6.35,1.55,9.61,1.67,10.93.49,16.12,3.52,24.46,10.23,2.5,1.92,5.09,3.95,7.86,5.47,2.29,0,4.69,0,6.99,0,6.68,0,13.41,0,20.09,0,9.6,0,19.22,0,28.82,0,.77,0,1.87.05,2.62-.16.74-.43,1.84-.96,2.62-1.31,1.64-.73,3.49-1.34,5.24-1.75"/><path class="b" d="M8.22,166.42c7.54-2.06,12.76-8.24,19.22-12.23,6.51-3.96,11.53-2.38,18.34-.72,5.47.68,11.11.71,16.6.22,4.65-.43,9.29-1.6,13.98-1.51,2.63.06,5.23,1.01,7.86,1.12,8.63.38,14.33,1.36,21.84,5.96,4.81,2.93,9.7,5.87,14.85,8.17,7.85.09,15.73,0,23.58.03,9.6,0,19.22,0,28.82,0,3.24-1.77,6.76-3.23,10.48-3.53"/><path class="b" d="M8.22,160.32c4.03-1.67,7.88-3.96,11.36-6.58,5.06-3.96,10.58-8.93,17.47-8.28,2.99.23,5.89,1.34,8.73,2.2,3.46.85,7.01,1.61,10.48,2.39,7.55,1.64,12.89-.47,20.09-1.62,2.3-.32,4.7.14,6.99.38,3.82.41,7.69,1.06,11.36,2.24,5.43,1.67,10.44,4.51,15.72,6.56,5.19,1.81,10.58,3.16,15.72,5.13,15.14,0,30.29,0,45.42,0,3.58-2.38,7.94-3.57,12.23-3.21"/><path class="b" d="M8.22,154.84c4.2-2.16,8.46-4.45,12.23-7.32,5.46-4.38,11.71-9.67,19.22-7.65,3,.69,5.83,2.12,8.73,3.1,2.93,1.03,5.76,2.54,8.73,3.43,9.34,2.86,13.72-2.26,21.84-3.83,4.23-.36,8.44,1.02,12.23,2.77,6.14,2.77,11.7,7.11,18.34,8.68,4.02.69,8.22.36,12.23,1.22,1.74.34,3.58.88,5.24,1.51,1.38.51,2.83,1.42,4.37,1.22,12.51,0,25.05,0,37.56,0,1.89.21,3.5-1.28,5.24-1.78,3.05-1.09,6.46-1.13,9.61-.48"/><path class="b" d="M8.22,150.34c2.04-1.06,4.12-2.32,6.11-3.47,2.42-1.3,4.89-2.73,6.99-4.53,6.65-5.54,12.84-10.82,21.84-6.72,2.65,1.17,5.34,2.5,7.86,3.92,2.73,1.56,5.59,3.23,8.73,3.75,3.68.66,7.37-.75,10.48-2.63,2.85-1.63,5.56-3.82,8.73-4.79,6.02-1.41,11.25,3.27,15.72,6.63,4.7,3.54,9.52,8.27,15.72,8.51,2.6-.13,5.25-.76,7.86-.85,4.28-.29,8.51,1.02,12.23,3.05,5.23,0,10.5,0,15.72,0,7.56,0,15.15,0,22.71,0,1.81.11,3.49-1.16,5.24-1.46,3.14-.75,6.51-.47,9.61.33"/><path class="b" d="M8.22,147.02c2.04-1.08,4.12-2.35,6.11-3.51,2.44-1.29,4.93-2.73,6.99-4.59,7.36-6.39,13.62-12.43,23.58-6.78,5.44,2.59,10.21,7.78,16.6,7.61,3.63-.2,6.81-2.35,9.61-4.5,2.75-2.04,5.37-4.68,8.73-5.65,5.6-1.06,10.11,3.74,13.98,7.09,4.8,4.15,10.52,11.12,17.47,10.33,3.43-.64,6.99-1.43,10.48-.87,1.45.22,3.02.69,4.37,1.26.77.33,1.78.92,2.62,1.07,2.59,0,5.27,0,7.86,0,8.14,0,16.31,0,24.46,0,2,0,4.12,0,6.11,0,1.09-.04,2.44.15,3.49-.23,4.12-1.75,8.81-1.45,13.1-.56"/><path class="b" d="M8.22,143.74c.48.01,1.28-.02,1.75-.07,1.11-.63,2.4-1.41,3.49-2.06,2.01-1.22,4.3-2.25,6.11-3.76,6.43-5.23,13.33-14.62,22.71-11.06,6.28,2.15,10.83,8.01,17.47,9.23,7.87,1.1,12.75-6.64,19.22-9.57,3.6-1.5,7.5.29,10.48,2.35,6.4,4.2,11.51,11.11,19.22,12.95,2.58.45,5.26-.39,7.86-.23,1.73.04,3.6.36,5.24.91.8.27,1.87.73,2.62,1.11.75.26,1.84.21,2.62.21,13.39,0,26.79,0,40.18,0,.4,0,1.34,0,1.75,0,1.32-.75,2.89-1.49,4.37-1.86,3.42-.63,7.02-.51,10.48-.25"/><path class="b" d="M8.22,139c1.71,0,3.54,0,5.24,0,1.71-.94,3.65-1.8,5.24-2.94,2.51-1.86,4.75-4.23,6.99-6.4,10.94-10.92,16.3-9.85,27.95-.85,14.9,10.63,19.67-6.14,30.57-4.58,7.93,1.53,13.67,8.05,20.96,11.11,1.62.69,3.47,1.24,5.24,1.36,1.7.04,3.55-.02,5.24.24,1.44.21,3.02.64,4.37,1.19.43.18,1.33.59,1.75.81.42.04,1.32.07,1.75.06,14.26,0,28.54,0,42.8,0,.86.08,2-.09,2.62-.77,1.02-.72,2.33-1.48,3.49-1.95,1.33-.54,2.96-.63,4.37-.79,2.29-.25,4.69-.49,6.99-.6"/><path class="b" d="M8.22,134.26c1.7,0,3.54,0,5.24,0,1.14.04,2.48.04,3.49-.56,8.73-4.48,14.87-18.11,26.2-15.58,3.64.94,6.66,3.42,9.61,5.63,7.32,5.72,12.64,7.1,20.96,2.31,2.48-1.32,5.04-2.88,7.86-3.31,7.66-.99,14.31,4.04,20.96,7.03,2.21,1.03,4.59,1.99,6.99,2.48,1.69.33,3.56.39,5.24.77,1.44.26,2.95.91,4.37,1.24.77,0,1.85,0,2.62,0,15.14,0,30.29,0,45.42,0,1.88-1.43,3.83-3.1,6.11-3.84,3.44-.71,7-1.27,10.48-1.8"/><path class="b" d="M8.22,129.52c1.7,0,3.54,0,5.24,0,.47,0,1.29,0,1.75,0,.47-.16,1.29-.48,1.75-.64,8.96-3.94,15.1-16.31,26.2-14.04,3.63.85,6.67,3.26,9.61,5.43,6.54,5.01,12.16,7.48,20.09,3.73,2.85-1.23,5.65-2.89,8.73-3.48,7.48-1.32,14.41,2.84,20.96,5.83,2.78,1.29,5.72,2.54,8.73,3.16,2.59.02,5.27,0,7.86,0,16.01,0,32.03,0,48.04,0,1.86-1.47,3.86-3.06,6.11-3.87,3.45-.8,6.99-1.59,10.48-2.17"/><path class="b" d="M8.22,124.77c1.4-.1,3.08.3,4.37-.35,1.93-.93,4.15-1.36,6.11-2.18,10.93-5.71,17.49-15.56,30.57-6.83,7.54,5.17,13.45,9.44,22.71,5.11,3.42-1.45,6.72-3.61,10.48-4.06,6.3-.73,12.14,2.57,17.47,5.51,6.2,3.53,4.32,2.76,11.36,2.81,18.92,0,37.85,0,56.78,0,1.93-1.14,3.91-2.51,6.11-3.06,3.18-.64,6.38-1.6,9.61-1.96"/><path class="b" d="M8.22,119.29c1.99-.74,4.08-1.56,6.11-2.15,2.33-.58,4.82-1,6.99-2.11,7.02-3.43,13.83-7.65,21.84-4.51,5.48,1.99,9.92,6.41,15.72,7.62,11.41,2.42,17.31-10.34,27.95-7.3,3.83,1.05,7.26,3.32,10.48,5.57,1.1.78,2.4,1.72,3.49,2.5.71.52,1.68,1.32,2.62,1.12,3.18,0,6.43,0,9.61,0,9.6,0,19.22,0,28.82,0,9.89,0,19.81,0,29.7,0,3.99-1.13,8.1-2.22,12.23-2.74"/><path class="b" d="M8.22,113.28c3.46-.58,7-.99,10.48-1.37,2.33-.41,4.7-1.14,6.99-1.75,6.48-1.96,13.02-1.98,19.22.96,2.33,1.01,4.59,2.43,6.99,3.28,2.2.91,4.65.95,6.99.88,2.45-.17,4.85-1.21,6.99-2.36,4.22-2.28,7.85-5.66,12.23-7.66,9.63-3.85,17.91,5.23,25.33,10.02h80.36"/><path class="b" d="M8.22,108.08c4.03.51,8.16.94,12.23.92,5.52-.1,11.11-.54,16.6.32,2.33.22,4.64,1.25,6.99,1.23,5.52,0,11.08,0,16.6,0,.91.17,1.89-.48,2.62-.95.8-.5,1.85-1.23,2.62-1.77,2.58-1.82,5.16-3.84,7.86-5.5,5.56-3.85,12.44-2.96,18.34-.4,5.2,2.19,9.97,5.35,14.85,8.15.95.74,2.37.4,3.49.47,1.7,0,3.54,0,5.24,0,4.93,0,9.92,0,14.85,0,17.76,0,35.53,0,53.28,0"/><path class="b" d="M8.22,102.95c3.39,1.21,6.93,2.24,10.48,2.86,5.52,0,11.08,0,16.6,0,6.68,0,13.41,0,20.09,0,1.99-.11,4.17.26,6.11-.22,3.93-2.73,7.79-5.8,12.23-7.68,3.28-1.52,6.96-1.39,10.48-1.26,4.68.12,9.42.52,13.98,1.61,5.31,1.2,10.28,3.62,14.85,6.53,1.01.63,2.27,1.18,3.49,1.02,1.7,0,3.54,0,5.24,0,20.67,0,41.35,0,62.02,0"/><path class="b" d="M8.22,97.56c2.85,1.22,5.76,2.54,8.73,3.44,6.1.17,12.24.01,18.34.06,7.56,0,15.15,0,22.71,0,1.45.2,2.4-.55,3.49-1.33,1.08-.72,2.37-1.54,3.49-2.19,3.18-1.85,6.78-3.24,10.48-3.43,2.01-.15,4.11.2,6.11.32,2.01.07,4.13-.16,6.11-.5,6.29-1.07,12.91-3.45,19.22-1.23,3.91,1.39,6.92,4.54,10.48,6.58,1.06.6,2.26,1.55,3.49,1.77,1.7,0,3.54,0,5.24,0,4.06,0,8.17,0,12.23,0,15.13,0,30.29,0,45.42,0"/><path class="b" d="M8.22,91.96c2.62.96,5.25,2.13,7.86,3.12,1.11.36,2.34,1.01,3.49,1.23.47,0,1.29,0,1.75,0,9.6,0,19.22,0,28.82,0,2.3,0,4.69,0,6.99,0,.81-.42,1.84-1.08,2.62-1.55,7-4.35,12.2-4.76,20.09-2.93,10.81,1.96,21.21-12.11,31.45-4.16,2.31,1.85,4.67,3.85,6.99,5.68,1.38.96,2.75,2.44,4.37,2.96,6.1,0,12.24,0,18.34,0,14.26,0,28.54,0,42.8,0"/><path class="b" d="M8.22,86.28c3.27.7,6.5,1.88,9.61,3.1,1.74.63,3.43,1.82,5.24,2.2,9.89,0,19.81,0,29.7,0,.79,0,1.84,0,2.62,0,1.46-.58,2.95-1.54,4.37-2.21,2.45-1.22,5.13-2.24,7.86-2.57,4.12-.56,8.21.62,12.23,1.34,2.32.38,4.79-.06,6.99-.83,7.97-2.73,17.24-11.45,25.33-4.45,2.34,1.79,4.7,3.78,6.99,5.63,1.39.99,2.74,2.52,4.37,3.09,6.1,0,12.24,0,18.34,0,13.97,0,27.96.03,41.93-.03"/><path class="b" d="M8.22,80.06c3.95.33,7.85,1.64,11.36,3.48,2.01,1.05,4.07,2.31,6.11,3.3.79,0,1.84,0,2.62,0,5.52,0,11.08,0,16.6,0,2.3,0,4.69,0,6.99,0,1.19-.05,2.41-.83,3.49-1.26,9.22-4.39,13.29-3.46,22.71-.93,4.94,1.3,9.83-1.02,13.98-3.53,5.68-3.2,12.51-9.12,19.22-5.32,5.23,3.21,9.98,7.22,14.85,10.94,14.54.25,29.12,0,43.67.09,1.75.27,2.95-1.49,4.37-2.22,2.85-1.71,6.33-2.22,9.61-1.99"/><path class="b" d="M8.22,74.68c4,.07,7.96,1.43,11.36,3.51,1.42.87,2.96,1.91,4.37,2.8.78.44,1.66,1.27,2.62,1.1,5.23,0,10.5,0,15.72,0,2.3-.02,4.69.04,6.99-.03,1.75-.54,3.56-1.34,5.24-2.04,4.35-1.94,9.26-3.09,13.98-1.88,3.26.73,6.37,2.22,9.61,3.01,6.47,1.56,12.39-2.62,17.47-6.09,4.17-2.72,8.67-6.53,13.98-5.89,2.79.63,5.37,2.25,7.86,3.61,3.03,1.79,5.98,3.9,8.73,6.08.78.62,1.85,1.48,2.62,2.12.61.64,1.7,1.28,2.62,1.1,12.22-.1,24.48.19,36.69-.11,4.24-5.1,8.83-8.43,15.72-8.36"/><path class="b" d="M8.22,70.79c3.68.11,7.36,1.37,10.48,3.3,1.13.72,2.41,1.65,3.49,2.44.38.42,1.19.78,1.75.81,7.56,0,15.15,0,22.71,0,2.53.3,4.77-1.25,6.99-2.22,3.76-1.84,7.99-3.29,12.23-2.6,7.94,1.31,12.26,6.51,20.96,3.45,4.44-1.48,8.34-4.28,12.23-6.81,2.94-1.87,6.07-3.92,9.61-4.32,1.44-.16,3,.24,4.37.63,1.72.46,3.58,1.02,5.24,1.67,5.62,2.14,10.46,5.95,14.85,9.98,1.35.41,2.97.15,4.37.22,2.59,0,5.27,0,7.86,0,6.98,0,13.99,0,20.96,0,2.17-2.56,4.35-5.35,6.99-7.44,3.11-2.14,6.76-3.74,10.48-4.41"/><path class="b" d="M8.22,68.02c3.04.23,6.03,1.29,8.73,2.67,1.15.52,2.23,1.68,3.49,1.91,4.93,0,9.92,0,14.85,0,3.18,0,6.43,0,9.61,0,1.4,0,2.97,0,4.37,0,.87-.14,1.87-.78,2.62-1.2,10.05-6.1,13.88-5.81,24.46-1.32,5.04,1.81,10.74,1.31,15.72-.46,5.41-1.85,10.16-5.42,15.72-6.86,1.68-.44,3.54-.29,5.24-.09,1.7.13,3.55.22,5.24.44,6.85.67,12.58,4.95,17.47,9.49h29.7c2.53-2.14,4.41-5.18,6.99-7.3,1.25-1.13,2.93-2,4.37-2.87,2.24-1.34,4.58-2.76,6.99-3.77"/><path class="b" d="M8.22,64.95c2.07.23,4.2.84,6.11,1.64,1.12.37,2.28,1.34,3.49,1.28,10.18,0,20.39,0,30.57,0,.45.02,1.31-.03,1.75-.11.45-.26,1.31-.81,1.75-1.09,1.1-.72,2.39-1.6,3.49-2.31,3.36-2.19,7.25-4.08,11.36-3.83,3.98.18,7.62,2.12,11.36,3.31,5.11,1.22,10.45,2.23,15.72,1.67,4.76-.45,9.29-2.27,13.98-3.13,2.57-.48,5.28-.06,7.86-.45,9.34-1.39,13.54.5,20.96,5.94h28.82c.99-.5,1.88-1.72,2.62-2.5,1.34-1.47,2.86-3.1,4.37-4.4,1.27-1.12,2.98-1.97,4.37-2.93,2.32-1.6,4.63-3.46,6.99-5"/><path class="b" d="M8.22,60.52c3.38.03,6.52,1.44,9.61,2.6,5.23,0,10.5,0,15.72,0,4.06,0,8.17,0,12.23,0,1.2.16,2.41-.94,3.49-1.36,2.73-1.53,5.24-3.6,7.86-5.3,6.73-4.57,11.94-4.32,19.22-1.27,2.24.9,4.72,1.41,6.99,2.23,4,1.44,8.03,3.08,12.23,3.86,4.01.79,8.16.7,12.23.61,1.7-.06,3.54.13,5.24.08,2.03-.12,4.13-.61,6.11-.99,3.42-.71,7.07-.99,10.48-.07,1.78.46,3.61,1.23,5.24,2.07,3.44.35,7.02.04,10.48.14,4.35,0,8.75,0,13.1,0,2.29-.08,4.72.18,6.99-.14,2.53-2.55,4.97-5.41,7.86-7.57,3.78-2.16,7.1-5.09,10.48-7.81"/><path class="b" d="M8.22,55.85c2.63-.24,5.35.16,7.86.95,1.15.34,2.44.92,3.49,1.47,1.09.19,2.39.09,3.49.11,4.06,0,8.17,0,12.23,0,1.4,0,2.96,0,4.37,0,.45,0,1.3,0,1.75,0,.48-.21,1.34-.76,1.75-1.08,2.94-2.36,6.58-3.7,9.61-5.91,4.87-3.47,10.27-7.53,16.6-6.79,3,.29,5.9,1.43,8.73,2.37,4,1,7.77,2.81,11.36,4.81,4.98,2.72,10.15,5.31,15.72,6.55,4.64.16,9.34.01,13.98.06,2.31-.06,4.66-.87,6.99-.93,2-.13,4.14,0,6.11.36,1.09.19,2.37.65,3.49.56,9.02,0,18.06,0,27.08,0,3.3-2.65,6.22-5.89,9.61-8.44,1.32-1,3.02-1.75,4.37-2.71,2.41-1.7,4.69-3.77,6.99-5.61"/><path class="b" d="M8.22,51.03c3.46-.55,7.12-.32,10.48.64,2.03.54,4.02,1.71,6.11,1.97,3.47,0,7.01,0,10.48,0,3.18-1.12,5.95-3.3,8.73-5.15,1.87-1.36,4.06-2.38,6.11-3.41,2.35-1.3,4.66-2.9,6.99-4.23,8.28-4.87,13.3-3.33,21.84-.69,8.03,1.73,14.57,7.15,21.84,10.68,2.23,1.05,4.56,2.28,6.99,2.79,1.09,0,2.4,0,3.49,0,4.35,0,8.75,0,13.1,0,2.29-.23,4.68-.54,6.99-.51,2.31-.03,4.7.29,6.99.51,4.35,0,8.75,0,13.1,0,1.99-.08,4.15.19,6.11-.16,4.19-1.92,7.76-5.04,11.36-7.86,2.4-2.05,5.13-3.42,7.86-4.92,2.4-1.53,4.69-3.43,6.99-5.11"/><path class="b" d="M8.22,46.25c3.44-.45,7.03-.54,10.48-.21,9.93,2.09,13.69,3.03,22.71-2.75,3.03-2.06,6.26-3.77,9.61-5.24,3.09-1.55,6.24-3.25,9.61-4.13,5.89-1.75,11.8.43,17.47,1.97,4.18.68,8.35,1.74,12.23,3.47,6.2,2.6,12.01,6.17,18.34,8.46,1.07.38,2.38.78,3.49,1.03,2,.09,4.12.02,6.11.04,2-.02,4.12.05,6.11-.04,4.63-.56,9.31-1.15,13.98-1.29,7.47-.19,14.08.45,20.96-3.26,4.28-2.14,8.1-5.18,12.23-7.57,1.61-.98,3.58-1.6,5.24-2.47,2.37-1.26,4.68-2.86,6.99-4.22"/><path class="b" d="M8.22,41.93c2-.07,4.11-.04,6.11-.11,2-.11,4.11-.4,6.11-.13,6.86.99,11.97,1.47,18.34-1.88,2.94-1.45,5.75-3.35,8.73-4.71,3.96-1.59,7.96-3.46,12.23-4.01,5.08-.74,10.08.93,14.85,2.48,5.06,1.7,10.54,1.12,15.72,2.21,6.04,1.02,11.78,3.33,17.47,5.52,5.51,2.35,11.54,3.03,17.47,2.27,5.26-.56,10.48-1.74,15.72-2.47,4.67-.62,9.48-.95,13.98-2.46,5.56-1.75,10.53-4.97,15.72-7.53,1.91-.99,4.13-1.56,6.11-2.35,2.33-.98,4.67-2.25,6.99-3.27"/><path class="b" d="M8.22,38.67c1.99.26,4.1.53,6.11.51,1.71-.02,3.52-.45,5.24-.33,2.89.16,5.83.71,8.73.56,1.71-.02,3.57.12,5.24-.32,4.37-.95,8.27-3.37,12.23-5.34,2.78-1.31,5.78-2.34,8.73-3.17,4.88-1.4,10.09-.9,14.85.71,3.14.97,6.3,2.3,9.61,2.58,4.35.12,8.75-.51,13.1-.37,4.74.08,9.48,1.05,13.98,2.54,4.52,1.55,9.1,3.44,13.98,3.18,6.25-.11,12.29-2.09,18.34-3.45,4.87-1.18,9.96-1.35,14.85-2.45,5.78-1.2,11.15-3.8,16.6-5.99,2.21-.95,4.69-1.41,6.99-2.1,2.34-.79,4.68-1.88,6.99-2.75"/><path class="b" d="M8.22,34.66c11.06,0,22.14,0,33.19,0,.86.12,1.87-.32,2.62-.67,1.09-.47,2.37-1,3.49-1.37,3.66-1.15,7.5-2.12,11.36-2.13,6.01-.16,11.62,2.41,17.47,3.31,4.15.57,8.24-.96,12.23-1.89,4.25-1.09,8.72-1.77,13.1-1.22,3.92.41,7.66,1.88,11.36,3.15,8.16,2.37,16.52-.61,24.46-2.51,7.16-1.79,14.72-1.28,21.84-3.36,4.11-1.07,8.12-2.69,12.23-3.77,1.67-.47,3.57-.59,5.24-1.07,2.37-.7,4.71-1.8,6.99-2.73"/><path class="b" d="M8.22,29.92c17.76,0,35.53,0,53.28,0,8.14,0,16.31,0,24.46,0,1.58.2,3-.91,4.37-1.51,1.65-.79,3.48-1.55,5.24-2.07,4.26-1.32,8.92-1.03,13.1.47,11.9,5.44,19.47,2.09,31.45-.01,4.61-.74,9.35-.53,13.98-1.1,4.44-.49,8.81-1.7,13.1-2.91,1.68-.46,3.52-.94,5.24-1.23,1.39-.24,3-.25,4.37-.63,2.4-.65,4.73-1.84,6.99-2.86"/><path class="b" d="M8.22,25.18c26.49-.02,52.99.04,79.49-.02,9.39-6.94,14.94-7.3,25.33-2.25,4.96,1.98,10.47,2.18,15.72,1.48,4.65-.57,9.29-1.71,13.98-2.01,6.72-.16,13.54-.1,20.09-1.88,3.74-.87,7.5-2.08,11.36-2.28,3.44,0,6.59-1.83,9.61-3.27"/><path class="b" d="M8.22,20.44c17.17,0,34.36,0,51.54,0,8.14,0,16.31,0,24.46,0,1.4.25,2.49-1.11,3.49-1.87,1.61-1.29,3.42-2.61,5.24-3.58,4.36-2.49,9.52-2.26,13.98-.13,2.9,1.26,5.68,3.01,8.73,3.89,8.03,2.6,16.38.07,24.46-.93,4.63-.48,9.34.09,13.98-.31,4.73-.3,9.38-1.54,13.98-2.61,2.54-.65,5.25-.83,7.86-.94,2.78-.44,5.36-1.88,7.86-3.08"/></svg>