<?xml version="1.0" encoding="UTF-8"?><svg id="a" xmlns="http://www.w3.org/2000/svg" width="1920" height="2400" viewBox="0 0 192 240"><defs><style>.b{fill:none;stroke:#fff;stroke-miterlimit:10;stroke-width:.4px;}.c{stroke-width:0px;}</style></defs><rect class="c" x="0" width="192" height="240"/><path class="b" d="M7.64,217.3c3.54.52,7.07,1.43,10.55,2.22,3.49.66,7.11,1.03,10.55,1.96,6.18,1.56,11.59,5.14,16.7,8.82,7.32,0,14.66,0,21.98,0,3.2,0,6.47,0,9.67,0,1.86-.41,3.6-1.71,5.27-2.57,5.96-3.51,11.61-8.04,18.46-9.68,12.67-3.13,17.76,8.48,29.01,7.96,4.15-.3,7.87-2.49,11.43-4.46,3.03-1.65,6.27-3.22,9.67-3.93,9.34-2.02,15.51,4.33,23.74,6.53,3.16.61,6.47.58,9.67.52"/><path class="b" d="M7.64,212.48c3.84.23,7.64,1.07,11.43,1.66,4.39.53,8.89.71,13.19,1.81,5.36,1.3,10.32,3.93,14.95,6.87,5.15,3.38,4.68,2.66,10.55,2.7,4.08,0,8.22,0,12.31,0,1.55.14,3.03-.91,4.4-1.5,2.32-1.17,4.73-2.43,7.03-3.62,11.37-6.41,20.07-9.89,32.53-3.41,6.51,3.77,12.49,7.84,20.22,4.54,6.88-3.01,13.14-8.4,21.1-7.93,5.97.21,11.19,3.56,16.7,5.45,3.94,1.29,8.22.93,12.31.91"/><path class="b" d="M7.64,207.97c5.32-.79,10.56.53,15.83,1.12,6.78.82,13.69,1.46,20.22,3.56,4.46,1.44,8.65,3.77,13.19,4.98,10.59,3.07,18.11-.61,27.25-5.45,11.73-5.91,19.06-2.03,29.89,3.24,3.33,1.78,6.74,3.82,10.55,4.3,3.71.51,7.42-.87,10.55-2.79,9.19-6.12,14.71-10.56,26.37-6.96,12.35,4.18,9.82,3.81,22.86,3.27"/><path class="b" d="M7.64,204.44c2.53-.78,5.26-1.38,7.91-1.14,5,.65,9.91,2.17,14.95,2.61,5.25.6,10.57-.06,15.83.37,4.81.52,9.39,2.34,14.07,3.48,4.85,1.26,10.09,1.77,14.95.27,7.38-2.46,12.47-7.94,21.1-5.86,4.17,1.02,7.83,3.5,11.43,5.73,3.67,2.14,7.5,4.24,11.43,5.88,1.37.39,2.99.14,4.4.21,1.71-.04,3.57.09,5.28-.08,6.37-2.44,10.57-8.42,16.7-11.24,9.31-4.3,17.98,1.84,27.25,1.91,3.8-.27,7.58-1.43,11.43-1.32"/><path class="b" d="M7.64,202.14c3.57-1.8,7.53-2.71,11.43-1.45,6.71,2,12.27,3.96,19.34,2.12,3.5-.78,6.94-2.21,10.55-2.41,7.52-.31,14.5,3.59,21.98,3.74,9.96.55,14.97-9.38,25.5-5.83,4.3,1.52,7.83,4.64,11.43,7.33,1.6,1.24,3.49,2.36,5.28,3.33,1.39.75,2.89,1.75,4.4,2.25,3.2,0,6.47,0,9.67,0,.78,0,1.86,0,2.64,0,1.22-.49,2.47-1.44,3.52-2.22,3.35-2.59,6.27-5.83,9.67-8.36,8.8-6.75,19.3.16,29.01-1.18,4.13-.75,8-2.78,12.31-2.6"/><path class="b" d="M7.64,200.9c2.42-1.3,5.11-2.53,7.91-2.56,3.04.06,5.93,1.4,8.79,2.3,3.08,1.03,6.44,1.63,9.67,1.03,7.09-1.25,12.72-7.32,20.22-6.88,8.46.07,17.4,4.74,25.5.45,3.61-1.88,7.26-4.29,11.43-4.57,8.88-.39,14.08,8.3,21.1,12.26,2.01,1.13,3.94,2.81,6.15,3.5,1.71,0,3.56,0,5.28,0,2.31,0,4.72,0,7.03,0,1.64-.49,3.07-1.89,4.4-2.93,2.68-2.28,5.18-4.95,7.91-7.17,3.14-2.66,7.38-3.68,11.43-3.48,6.13.26,12.49,1.7,18.46-.39,3.69-1.41,7.36-3.43,11.43-3.33"/><path class="b" d="M7.64,200.14c8.74-4.51,10.82-1.86,19.34-.28,3.96.65,8.02-.47,11.43-2.5,3.01-1.71,5.78-3.97,8.79-5.67,6.42-3.62,14-3.07,21.1-2.93,3.23.01,6.59-.24,9.67-1.28,5.71-2.19,11.24-6.35,17.58-3.64,4.87,2.01,8.47,6.14,12.31,9.59,2.09,2.01,4.73,3.52,7.03,5.26,1.38.99,2.88,2.19,4.4,2.97,2.01,0,4.14,0,6.15,0,2.61,0,5.31,0,7.91,0,1.71-.3,3.05-1.97,4.4-2.98,2.03-1.77,4.06-3.79,6.15-5.47,2.98-2.36,6.8-3.5,10.55-3.77,5.27-.39,10.7-.04,15.82-1.55,4.75-1.31,8.97-4.63,14.07-4.58"/><path class="b" d="M7.64,196.88c9.66-.1,19.37.19,29.01-.11,3.43-1.93,6.44-4.64,9.67-6.85,2.18-1.45,4.65-2.64,7.03-3.7,6.76-2.99,14.04-4.57,21.1-6.68,3.59-1,7.05-2.58,10.55-3.84,12.34-4.52,18.78,10,27.25,15.92,2.33,1.69,4.52,3.84,7.03,5.26,5.26-.03,10.57.07,15.83-.04,3.1-2.19,5.82-5.02,8.79-7.38,5.47-4.34,12.78-3.73,19.34-4.35,3.28-.32,6.6-1.04,9.67-2.25,3.64-1.55,7.35-3.53,11.43-3.42"/><path class="b" d="M7.64,192.11c11.13,0,22.28,0,33.41,0,.54-.1,1.37-.64,1.76-1.01,1.09-.86,2.38-1.88,3.52-2.68,3.42-2.22,7.08-4.22,10.55-6.37,7.66-4.54,15.29-9.42,23.74-12.39,2.25-.86,4.62-1.82,7.03-2.08,8.93-.75,14.25,8.61,19.34,14.51,2.45,3.22,5.67,5.83,8.79,8.36,2.12,1.85,2.55,1.71,5.27,1.66,2.61,0,5.31,0,7.91,0,1.71,0,3.56,0,5.28,0,3.21-1.88,5.79-4.82,8.79-7,2.97-2.34,6.83-3.29,10.55-3.42,5.27-.18,10.67.16,15.82-1.19,5.02-1.16,9.64-4.3,14.95-4.01"/><path class="b" d="M7.64,187.34c12.3-.05,24.63.1,36.92-.06,3.9-2.94,8.37-5.15,12.31-8.04,5.61-3.85,10.93-8.2,16.7-11.8,2.72-1.75,5.78-3,8.79-4.14,9.49-4.34,14.84,1.41,20.22,8.59,3.73,5.11,7.23,10.61,12.31,14.52.62.69,1.72,1.05,2.64.92,1.1,0,2.42,0,3.52,0,4.08,0,8.23,0,12.31,0,1.66-.59,3.01-2.17,4.4-3.22,2.86-2.42,5.88-5.13,9.67-5.88,6.38-1.2,12.94.68,19.34-.48,6-.71,11.46-4.22,17.58-4.05"/><path class="b" d="M7.64,182.56h37.8c2.48-1.76,5.32-3.15,7.91-4.73,3.59-2.13,7.14-4.47,10.55-6.89,5.88-4.2,11.7-8.66,18.46-11.35,3.93-2,8.38-3.09,12.31-.46,6.6,4.53,10.07,12.22,14.95,18.34,1.54,1.77,3.17,3.98,5.27,5.08,1.1,0,2.42,0,3.52,0,3.49,0,7.06,0,10.55,0,1.71-.09,3.62.23,5.28-.22.79-.62,1.86-1.49,2.64-2.13,2.63-2.13,5.4-4.53,8.79-5.27,3.16-.71,6.49-.32,9.67-.06,3.19.29,6.48.43,9.67.04,6.6-.67,12.7-3.96,19.34-4.28"/><path class="b" d="M7.64,177.79c12.3,0,24.62,0,36.92,0,6.14-3.87,13.02-6.49,19.34-10.05,4.17-2.3,8.21-4.95,12.31-7.37,2.28-1.34,4.78-2.52,7.03-3.9,8.76-5.58,13.85-1.44,19.34,5.89,3.97,5.18,7.09,11.35,12.31,15.43,6.14,0,12.32,0,18.46,0,.44,0,1.32,0,1.76,0,.5-.15,1.36-.66,1.76-.99,1.37-.97,2.91-2.05,4.4-2.84,2.92-1.61,6.42-1.72,9.67-1.52,4.37.3,8.84.65,13.19-.13,6.84-1.21,13.35-4.04,20.22-5.14"/><path class="b" d="M7.64,173.02c12.01,0,24.04,0,36.05,0,.92.14,1.95-.36,2.64-.92.77-.5,1.82-1.09,2.64-1.49,2.54-1.24,5.27-2.26,7.91-3.26,7.78-2.73,15.01-6.77,21.98-11.13,4.06-2.22,7.57-5.95,12.31-6.7,7.26-.71,11.84,6.98,15.82,11.92,2.56,3.53,5.56,6.89,8.79,9.82,2.07,2.05,2.5,1.78,5.27,1.76,2.61,0,5.31,0,7.91,0,3.2,0,6.47,0,9.67,0,.84,0,1.86-.55,2.64-.83,1.35-.52,2.96-.84,4.4-.98,5.26-.4,10.64.18,15.83-1,3.59-.72,7.09-2.05,10.55-3.2,1.68-.58,3.57-.97,5.28-1.48,2.31-.71,4.69-1.56,7.03-2.17"/><path class="b" d="M7.64,168.24c9.66,0,19.35,0,29.01,0,4.38,0,8.81,0,13.19,0,2.96-.97,5.91-2.23,8.79-3.42,7.56-3.13,14.23-7.99,21.1-12.36,4.13-2.53,8.11-6.22,13.19-6.42,6.8.03,11.35,6.11,15.83,10.44,3.52,3.43,7.37,6.68,11.43,9.45,1.34.84,2.87,1.82,4.4,2.31,1.71,0,3.56,0,5.28,0,4.38,0,8.81,0,13.19,0,4.08-.08,8.24.16,12.31-.1,4.21-.65,8.31-2.08,12.31-3.51,1.69-.6,3.53-1.22,5.28-1.64,1.39-.34,3.01-.47,4.4-.84,2.37-.62,4.75-1.59,7.03-2.46"/><path class="b" d="M7.64,163.47h52.75c9.96-5.73,23.06-20.76,35.17-18.98,6.32,1,11.21,5.57,16.7,8.48,4.9,2.72,9.8,5.59,14.95,7.84,2.54.99,5.18,2.35,7.91,2.66,4.97,0,9.98,0,14.95,0,2.9,0,5.89,0,8.79,0,3.54-.91,6.99-2.41,10.55-3.29,1.38-.35,2.97-.64,4.4-.73,1.1-.04,2.43.03,3.52-.17,2.43-.41,4.81-1.44,7.03-2.47"/><path class="b" d="M7.64,158.69c19.34,0,38.69,0,58.02,0,1.35-.53,2.43-1.99,3.52-2.91,1.69-1.59,3.51-3.31,5.27-4.82,5.43-4.98,12.85-7.68,20.22-6.76,5.39.53,10.58,2.36,15.82,3.62,3.5.8,7.12,1.45,10.55,2.55,3.97,1.24,7.78,3.09,11.43,5.07,2,1.07,4.1,2.27,6.15,3.24,3.49,0,7.06,0,10.55,0,4.08,0,8.23,0,12.31,0,2.04-.34,4.11-1.12,6.15-1.45,7.7-1.59,8.58,1.98,16.7-2.33"/><path class="b" d="M7.64,153.92h62.42c10.07-10.51,13.2-10.81,27.25-8.81,4.36.53,8.81.58,13.19.28,2.91-.13,5.88-.64,8.79-.64,7.81-.25,14.15,4.88,20.22,9.11,9.07.16,18.18,0,27.25.06,3.79,0,7.64,0,11.43,0,2-.11,4.2.26,6.15-.22"/><path class="b" d="M7.64,149.15c22.27-.08,44.56.16,66.82-.09,6.06-5.43,9.76-5.84,17.58-4.68,5.55.86,11.25.7,16.7-.66,3.23-.63,6.45-1.65,9.67-2.33,6.76-1.54,12.56,1.79,17.58,5.99.75.58,1.68,1.54,2.64,1.76,1.41,0,2.99,0,4.4,0,3.49,0,7.06,0,10.55,0,10.25,0,20.52,0,30.77,0"/><path class="b" d="M7.64,144.37c21.68,0,43.38,0,65.06,0,2.31-.07,4.74.16,7.03-.13,1.85-1.02,4.06-1.53,6.15-1.64,5.85-.15,11.78.91,17.58-.26,13.16-2.26,18.73-7.58,30.77,2.03h50.11"/><path class="b" d="M7.64,139.6c21.39,0,42.79,0,64.18,0,5.85-.01,11.74.05,17.58-.08,3.2.03,6.48.15,9.67-.11,6.2-.46,12.24-2.45,18.46-2.76,2.66-.12,5.43.3,7.91,1.27,1.14.44,2.44,1.1,3.52,1.68.78,0,1.86,0,2.64,0,17.58,0,35.17,0,52.75,0"/><path class="b" d="M7.64,134.83c21.1,0,42.2,0,63.3,0,7.9-.1,15.85.25,23.74-.22,6.19-.27,12.27-1.97,18.46-2.09,2.95-.04,5.99.36,8.79,1.28.79.26,1.87.67,2.64,1.01,1.41.02,2.99,0,4.4.01,18.46,0,36.93,0,55.39,0"/><path class="b" d="M7.64,130.05c17.58,0,35.17,0,52.75,0,7.9,0,15.84,0,23.74,0,5.87-.84,11.76-1.97,17.58-3.14,5.2-1.15,10.7-1.64,15.83.1,1.76.54,3.61,1.29,5.28,2.09.77.35,1.75,1.05,2.64.95,6.14,0,12.32,0,18.46,0,13.47,0,26.97,0,40.44,0"/><path class="b" d="M7.64,125.28c17.29,0,34.59,0,51.87,0,7.61-.08,15.26.16,22.86-.1,6.23-1.65,12.35-3.8,18.46-5.84,6.04-2.01,10.77-2.31,16.7.32,3.67,1.5,7.12,3.65,10.55,5.62,5.85,0,11.74,0,17.58,0,12.89,0,25.8,0,38.68,0"/><path class="b" d="M7.64,120.51c17.29,0,34.59,0,51.87,0,7.61-.04,15.25.08,22.86-.05,6.43-2.11,12.35-5.53,18.46-8.38,7.17-3.38,11.44-2.89,18.46.52,2.99,1.45,5.95,3.17,8.79,4.89,1.73.94,3.42,2.34,5.27,3.02,3.79,0,7.64,0,11.43,0,13.18,0,26.38,0,39.56,0"/><path class="b" d="M7.64,115.73c20.22,0,40.45,0,60.66,0,3.49,0,7.06,0,10.55,0,3.7-1.04,7.19-2.96,10.55-4.8,6.12-3.32,11.63-8.19,18.46-10.01,9.77-2.09,22.82,9.81,30.77,14.81h45.72"/><path class="b" d="M7.64,110.96c15.23,0,30.48,0,45.72,0,6.43,0,12.91,0,19.34,0,6.78-2.39,13.23-5.87,19.34-9.64,5.94-3.47,13.12-9.92,20.22-9.68,10.44.83,20.05,12.17,28.13,18.31.61.63,1.74,1.18,2.64,1.02,1.1,0,2.42,0,3.52,0,3.2,0,6.47,0,9.67,0,9.37,0,18.76,0,28.13,0"/><path class="b" d="M7.64,106.19c19.34,0,38.69,0,58.02,0,1.41,0,2.99,0,4.4,0,2.19-1.07,4.08-2.95,6.15-4.23,3.56-2.47,7.54-4.36,11.43-6.24,4.45-2.13,8.84-4.51,13.19-6.84,3.59-1.85,7.35-3.86,11.43-4.26,11.18-.58,20.8,14.29,29.01,20.7.58.7,1.76.99,2.64.88,1.1,0,2.42,0,3.52,0,2.9,0,5.89,0,8.79,0,9.37,0,18.76,0,28.13,0"/><path class="b" d="M7.64,101.41c20.51-.01,41.03.02,61.54-.01,4.05-4.04,7.88-8.72,13.19-11.15,4.18-1.94,8.78-2.89,13.19-4.19,4.15-1.18,8.24-2.71,12.31-4.12,2.52-.84,5.22-1.82,7.91-1.39,7.07,1.26,11.99,7.28,16.7,12.21,1.7,1.85,3.52,3.87,5.27,5.67,1.28,1.07,2.52,3.19,4.4,2.98,14.06,0,28.14,0,42.2,0"/><path class="b" d="M7.64,96.48c2.57.37,5.31.06,7.91.16,4.38,0,8.81,0,13.19,0,13.18,0,26.38,0,39.56,0,11.48-12.85,11.26-14.31,29.01-14.02,3.54-.1,7.14-.64,10.55-1.6,2.58-.68,5.18-1.95,7.91-1.75,9.63.88,16.06,11.51,22.86,17.37h45.72"/><path class="b" d="M7.64,87.08c2.49,1.3,4.77,3.14,7.03,4.78,17.58-.04,35.17.08,52.75-.04,2.65-2.5,5.21-5.29,7.91-7.74,2.63-2.46,5.95-4.53,9.67-4.42,3.57,0,7.08,1.11,10.55,1.84,3.72.83,7.65,1.25,11.43.61,2.96-.4,5.77-1.91,8.79-1.95,8.37-.11,14.16,6.96,20.22,11.7h48.35"/><path class="b" d="M7.64,79.14c3.54,2.18,6.68,5.06,9.67,7.93,16.11.07,32.24,0,48.35.03,4.45-3.02,8.21-7.24,13.19-9.46,2.49-1.15,5.4-.83,7.91.1,3.92,1.43,7.53,3.72,11.43,5.2,11.19,4.35,13.47-2.1,22.86-.24,3.53.65,6.56,2.76,9.67,4.39,17.87,0,35.76,0,53.63,0"/><path class="b" d="M7.64,73.23c3.49,2.53,6.63,5.65,9.67,8.7,1.28.73,2.98.28,4.4.39,2.61,0,5.31,0,7.91,0,11.42-.05,22.87.1,34.29-.06,5.05-3.19,12.2-9.19,18.46-7.99,5.01,1.42,8.85,5.33,13.19,8.03,29.6.05,59.2,0,88.8.02"/><path class="b" d="M7.64,69.41c1.79,1.56,3.61,3.36,5.28,5.05,1.12.96,2.08,2.61,3.52,3.09,2.31,0,4.72,0,7.03,0,6.43,0,12.91,0,19.34,0,4.38,0,8.81,0,13.19,0,2.01-.04,4.15.09,6.15-.07,1.08-.74,2.39-1.58,3.52-2.25,5.09-2.94,11.94-5.69,17.58-2.76,2.57,1.3,4.61,3.58,7.03,5.08,6.14,0,12.32,0,18.46,0,7.9,0,15.84,0,23.74,0,17.29,0,34.59,0,51.87,0"/><path class="b" d="M7.64,66.96c1.76,1.83,3.58,3.88,5.28,5.76,10.83.13,21.69,0,32.53.05,4.97,0,9.98,0,14.95,0,.89-.26,1.86-1.04,2.64-1.51,1.35-.83,2.91-1.64,4.4-2.19,3.92-1.52,8.31-1.39,12.31-.23,1.56.44,3.1,1.4,4.4,2.36.45.34,1.33,1.04,1.76,1.4.77.23,1.84.18,2.64.18,2.01,0,4.14,0,6.15,0,7.9,0,15.84,0,23.74,0,21.98,0,43.96,0,65.94,0"/><path class="b" d="M7.64,64.41c1.13,1.1,2,3.01,3.52,3.59,2.01,0,4.14,0,6.15,0,4.97,0,9.98,0,14.95,0,6.14,0,12.32,0,18.46,0,2.01,0,4.14,0,6.15,0,.79,0,1.85,0,2.64,0,.47-.21,1.33-.71,1.76-1,4.86-3.12,10.47-3.52,15.83-1.48,1.78.62,3.72,1.33,5.27,2.42,3.78.14,7.64.02,11.43.06,7.9,0,15.84,0,23.74,0,14.35,0,28.72,0,43.08,0,4.97,0,9.98,0,14.95,0,2.9-.08,5.91.18,8.79-.13"/><path class="b" d="M7.64,61.84l.88,1.08c1.33.57,2.98.21,4.4.3,2.61,0,5.3,0,7.91,0,7.61,0,15.25,0,22.86,0,4.38,0,8.81,0,13.19,0,1.19-.35,2.38-1.25,3.52-1.72,1.9-.87,4.06-1.47,6.15-1.55,2.69-.11,5.43.6,7.91,1.61,1.44.47,2.87,1.57,4.4,1.67,14.06,0,28.14,0,42.2,0,13.47,0,26.97,0,40.44,0,4.67,0,9.4,0,14.07,0,1.71,0,3.57,0,5.27,0,.4,0,1.35,0,1.76,0,.43-.23,1.35-.76,1.76-1.04"/><path class="b" d="M7.64,58.45c10.25,0,20.52,0,30.77,0,4.67,0,9.39,0,14.07,0,.92-.07,1.86-.87,2.64-1.3,1.07-.63,2.37-1.3,3.52-1.76,4.25-1.84,9.14-1.28,13.19.8,1.45.64,2.91,1.7,4.4,2.26,3.49,0,7.06,0,10.55,0,7.02,0,14.08,0,21.1,0,10.84,0,21.69,0,32.53,0,9.37-.02,18.76,0,28.13,0,2.9,0,5.89,0,8.79,0,1.4-.01,2.99.04,4.4-.04.77-.42,1.87-1.02,2.64-1.46"/><path class="b" d="M7.64,53.68c13.77,0,27.55,0,41.32,0,.46.02,1.31-.02,1.76-.09,1.09-.71,2.39-1.55,3.52-2.2,2.41-1.39,5.11-2.58,7.91-2.8,3.41-.3,6.78.98,9.67,2.7.8.47,1.87,1.16,2.64,1.68.43.38,1.18.75,1.76.72,12.59,0,25.21,0,37.8,0,6.73,0,13.49,0,20.22,0,2.61,0,5.31.02,7.91-.01,1.62-.92,3.44-1.83,5.28-2.23,3.75-.88,7.7-.35,11.43.35,3.48.66,7.02,1.49,10.55,1.83,2,.13,4.15.09,6.15.03,3.01-.34,5.98-1.35,8.79-2.42"/><path class="b" d="M7.64,48.9c14.65-.02,29.31.04,43.96-.02,5.71-3.89,11.69-7,18.46-3.59,2.17.91,4.05,2.61,6.15,3.62,3.49,0,7.06,0,10.55,0,15.82,0,31.65,0,47.47,0,2.01,0,4.14,0,6.15,0,1.31.2,2.46-1.04,3.52-1.64,1.61-1.03,3.47-1.96,5.27-2.59,3.35-1.18,7.02-1.51,10.55-1.3,4.11.22,8.21,1.07,12.31,1.45,4.07.31,8.25.18,12.31-.29"/><path class="b" d="M7.64,44.13h47.47c7.17-5.02,12.76-5.97,20.22-.87.97.88,2.28.95,3.52.87,1.71,0,3.56,0,5.27,0,9.37,0,18.76,0,28.13,0,6.43,0,12.91,0,19.34,0,2.01,0,4.14,0,6.15,0,1.1-.03,2.43.1,3.52-.14.43-.32,1.33-.98,1.76-1.3,6.04-4.66,13.31-8.23,21.1-8.03,3.81,0,7.64.64,11.43.9,2.93.28,5.88.99,8.79,1.37"/><path class="b" d="M7.64,39.36h50.99c5.55-3.78,10.77-4.56,16.7-1.09.46.25,1.32.78,1.76,1.05.79.05,1.85.04,2.64.04,2.31,0,4.72,0,7.03,0,11.42,0,22.87,0,34.29,0,5.55,0,11.15,0,16.7,0,1.36.23,2.51-.98,3.52-1.71,1.09-.83,2.41-1.8,3.52-2.61,5.49-4.03,11.57-7.81,18.46-8.63,4.37-.54,8.84-.06,13.19.46,2.67.47,5.31,1.44,7.91,2.19"/><path class="b" d="M7.64,31.5c3.94-.37,8.05.09,11.43,2.29,1.24,1.02,2.91.79,4.4.8,8.2,0,16.42,0,24.62,0,2.9,0,5.89,0,8.79,0,1.11,0,2.41,0,3.52,0,.55.1,1.32-.14,1.76-.46,3.09-1.97,6.96-2.97,10.55-1.94,1.82.48,3.65,1.37,5.27,2.3,3.77.26,7.64.03,11.43.1,7.9,0,15.84,0,23.74,0,5.55,0,11.15,0,16.7,0,2.31,0,4.72,0,7.03,0,1.61-.43,2.98-1.83,4.4-2.67,6.35-4.21,12.76-8.78,20.22-10.76,4.84-1.3,9.98-1.37,14.95-.9,2.66.36,5.32,1.18,7.91,1.87"/><path class="b" d="M7.64,22.05c5.16-.9,9.18-.23,13.19,3.25,1.83,1.33,3.33,3.38,5.27,4.51,2.61,0,5.3,0,7.91,0,8.78,0,17.59,0,26.37,0,1.69.27,2.98-1.19,4.4-1.85,2.93-1.59,6.5-1.97,9.67-.91,2.15.6,4.11,1.93,6.15,2.76,5.85,0,11.74,0,17.58,0,12.59,0,25.21,0,37.8,0,.48.05,1.37-.23,1.76-.52,1.1-.57,2.42-1.27,3.52-1.85,2.89-1.54,5.86-3.12,8.79-4.58,11.2-5.72,21.71-8.38,34.29-6.15"/><path class="b" d="M7.64,15.04c10.13-2.12,13.7,3.72,20.22,10h31.65c5.58-4.62,10.71-6.59,17.58-3.27,1.44.66,3.02,1.47,4.4,2.26.78.41,1.7,1.2,2.64,1.01,3.79,0,7.64,0,11.43,0,8.78,0,17.59,0,26.37,0,2.9,0,5.89,0,8.79,0,2.02-.07,4.23.28,6.15-.47,10.19-3.46,20.32-7.23,30.77-9.87,5.43-1.42,11.12-1.72,16.7-1.97"/><path class="b" d="M7.64,10.88c10.09-1.63,13.8,4.08,21.1,9.38,5.85,0,11.74,0,17.58,0,1.71,0,3.56,0,5.28,0,1.58,0,3.25.28,4.4-1.07,3.53-2.93,7.53-6.07,12.31-6.24,4.79-.12,9.06,2.58,13.19,4.66,1.11.62,2.41,1.4,3.52,2.04.43.3,1.22.64,1.76.61,3.79,0,7.64,0,11.43,0,8.2,0,16.42,0,24.62,0,4.09-.16,8.23-.71,12.31-1.11,3.84-.35,7.65-1.29,11.43-1.99,4.37-.68,8.85-1.09,13.19-1.99,4.13-.81,8.22-2.03,12.31-3.01,4.08-.81,8.21-1.7,12.31-2.46"/></svg>