<?xml version="1.0" encoding="UTF-8"?><svg id="a" xmlns="http://www.w3.org/2000/svg" width="1920" height="2400" viewBox="0 0 192 240"><defs><style>.b{fill:none;stroke:#fff;stroke-miterlimit:10;stroke-width:.4px;}.c{stroke-width:0px;}</style></defs><rect class="c" width="192" height="240"/><path class="b" d="M9.67,232.03c13.17,0,26.35,0,39.52,0,2.55,0,5.18,0,7.73,0,1.07,0,2.36,0,3.44,0,.81-.21,1.82-.76,2.58-1.11,6.11-3.01,12.51-3.4,18.04,1.06,33.78.16,67.58,0,101.37.05"/><path class="b" d="M9.67,227.37c13.17,0,26.35,0,39.52,0,4.85,0,9.75,0,14.6,0,3.06-1.13,6.11-2.74,9.45-2.84,2.02-.12,4.16.27,6.01,1.09,1.13.45,2.26,1.42,3.44,1.75,10.3,0,20.62,0,30.93,0,22.9,0,45.82,0,68.72,0"/><path class="b" d="M9.67,222.7c46.72-.03,93.3-.02,140.02,0,3.99,0,8.04,0,12.03,0,2.27-.36,4.57-1.16,6.87-1.36,2.26-.32,4.63-.01,6.87.28,2.25.23,4.62.39,6.87.65"/><path class="b" d="M9.67,218.04c50.39,0,100.79,0,151.19,0,1.37,0,2.92,0,4.3,0,1.64-.46,3.46-.89,5.15-1.08,1.67-.22,3.49-.02,5.15.06,2.26.1,4.62.17,6.87.38"/><path class="b" d="M9.67,213.38h172.66"/><path class="b" d="M9.67,208.71h172.66"/><path class="b" d="M9.67,204.05h172.66"/><path class="b" d="M9.67,199.38h172.66"/><path class="b" d="M9.67,194.72c20.9,0,41.81,0,62.71,0,9.73,0,19.48,0,29.21,0,3.11-.84,6.15-2.01,9.45-1.88,2,.02,4.09.39,6.01.94,1.09.27,2.31.88,3.44.95,6,0,12.04,0,18.04,0,14.6,0,29.21,0,43.81,0"/><path class="b" d="M9.67,190.05c21.19,0,42.38,0,63.57,0,9.73,0,19.48,0,29.21,0,1.18-.08,2.34-.97,3.44-1.35,1.87-.76,3.98-1.29,6.01-1.15,3.02.1,5.79,1.58,8.59,2.5,6.29,0,12.61,0,18.9,0,14.31,0,28.64,0,42.95,0"/><path class="b" d="M9.67,185.39c21.47,0,42.96,0,64.43,0,9.73,0,19.48,0,29.21,0,.76,0,1.81,0,2.58-.01,1.83-.91,3.95-1.62,6.01-1.48,1.41.08,2.95.42,4.3.85.76.24,1.76.73,2.58.64,6.86,0,13.76,0,20.62,0,14.31,0,28.64,0,42.95,0"/><path class="b" d="M9.67,180.73c15.17,0,30.36,0,45.53,0,1.44.13,2.94-.21,4.3-.64,1.64-.39,3.48-.52,5.15-.27,1.11.16,2.38.56,3.44.91,1.67,0,3.48,0,5.15,0,3.99,0,8.04,0,12.03,0,5.14,0,10.32,0,15.46,0,1.67,0,3.48,0,5.15,0,1.41.06,2.94,0,4.3-.39,1.99-.33,4.05.37,6.01.39,6,0,12.04,0,18.04,0,16.03,0,32.08,0,48.11,0"/><path class="b" d="M9.67,176.06c11.16,0,22.34,0,33.5,0,4.85-.03,9.75.06,14.6-.04,1.88-.77,3.97-1.35,6.01-1.4,2.37-.14,4.66.76,6.87,1.44,6,0,12.04,0,18.04,0,5.43,0,10.9,0,16.32,0,1.16.09,2.32-.78,3.44-1.03,1.92-.6,4.06-.44,6.01-.12,1.69.28,3.49.73,5.15,1.15,1.96,0,4.05,0,6.01,0,4.85,0,9.75,0,14.6,0,14.03,0,28.07,0,42.09,0"/><path class="b" d="M9.67,171.4c11.45,0,22.91,0,34.36,0,5.43,0,10.89,0,16.32,0,1.68.04,3.46-.49,5.15-.41,1.4-.03,2.91.36,4.3.41,1.97,0,4.05,0,6.01,0,5.71,0,11.47,0,17.18,0,2.26,0,4.62,0,6.87,0,4.45-1.9,8.74-4.24,13.74-2.9,10.81,2.69,14.45,3.93,25.77,1.33,3.08-.69,6.34-.89,9.45-.25,2.31.38,4.61,1.28,6.87,1.83,2.26,0,4.62,0,6.87,0,6.57,0,13.18,0,19.76,0"/><path class="b" d="M9.67,166.73c19.47,0,38.95,0,58.41,0,7.43-.04,14.9.07,22.33-.04,5.06-1.9,10.03-4.48,15.46-5.08,6.05-.81,11.4,2.89,17.18,3.91,9.38,1.9,14.86-3.75,23.19-4.3,6.98-.33,13.29,3.26,19.76,5.33,1.04.3,2.36.15,3.44.18,1.96,0,4.05,0,6.01,0,2.39.16,4.64-1.15,6.87-1.81"/><path class="b" d="M9.67,162.07c14.6,0,29.21,0,43.81,0,5.14,0,10.32,0,15.46,0,3.12-.08,6.34.19,9.45-.17,3.97-.28,7.62-2.09,11.17-3.77,3.77-1.77,7.81-3.39,12.03-3.51,12.61-.55,18.7,11.1,30.93,6.25,6.5-2.74,11.31-6.93,18.9-6.64,4.16.09,8.19,1.54,12.03,3.04,3.29,1.25,6.73,2.71,10.31,2.64,2.94-.12,5.82-1.18,8.59-2.08"/><path class="b" d="M9.67,157.41c6.57,0,13.18,0,19.76,0,6.25-.74,12.6-1.77,18.9-.88,1.97.25,4.03.68,6.01.88,2.26,0,4.61,0,6.87,0,2.26,0,4.61,0,6.87,0,1.4-.18,2.93-.57,4.3-.92,3.74-1.12,7.66-2.06,11.17-3.81,4.34-2.23,8.71-5.13,13.74-5.29,4.31-.17,8.34,1.82,12.03,3.84,3.62,1.7,6.75,4.4,10.31,6.17,2.84,0,5.75,0,8.59,0,1.96-.1,4.1.23,6.01-.2,1.1-.64,2.38-1.49,3.44-2.21,8.64-6.18,16.2-9.19,26.63-5.19,7.49,2.72,10.09,3.83,18.04,1.17"/><path class="b" d="M9.67,150.37c2.26-.18,4.63-.33,6.87-.69,1.97-.36,4.03-.85,6.01-1.13,4.24-.66,8.6-.89,12.89-.68,4.9.23,9.79,1.02,14.6,1.93,4.22.87,8.54,1.88,12.89,1.65,6.97-.35,13.43-3.51,19.76-6.16,3.29-1.65,6.61-3.64,10.31-4.16,5.5-.84,10.41,2.51,14.6,5.63,1.63,1.23,3.48,2.43,5.15,3.59,1.08.74,2.23,1.85,3.44,2.39,3.7,0,7.47,0,11.17,0,14.06-.04,6.75,1.11,18.04-6.06,9.76-6.36,15.36-5.08,25.77-1.5,3.62,1.3,7.54.66,11.17-.25"/><path class="b" d="M9.67,144.34c16.45-4.31,22.53-5.68,39.52-2.13,6.89,1.55,13.64,2.95,20.62.94,4.37-1.19,8.62-2.95,12.89-4.46,3.26-1.27,6.76-2.5,10.31-2.15,4.98.47,9.12,3.71,12.89,6.75,2.16,1.59,4.33,3.91,6.87,4.79,6,0,12.04,0,18.04,0,11.02-.18,5.93,1.39,14.6-4.97,9.34-6.96,15.18-6.83,25.77-2.78,3.54,1.41,7.46,1.3,11.17.75"/><path class="b" d="M9.67,140.68c3.09-1.18,6.34-2.14,9.45-3.29,3.39-1.26,6.82-2.66,10.31-3.63,9.6-2.9,18.19-.72,27.49,1.92,4.74,1.24,9.77,1.61,14.6.66,3.77-.67,7.44-1.99,11.17-2.82,7.99-1.99,14.47,1.45,20.62,6.24,1.67,1.18,3.32,2.73,5.15,3.64,2.84,0,5.75,0,8.59,0,6.57,0,13.18,0,19.76,0,4.34.07,3.54.25,6.87-2.58,2.38-1.97,4.95-3.92,7.73-5.29,8.22-4.17,14.61-.21,22.33,2.58,2.75.86,5.73,1.1,8.59,1.09"/><path class="b" d="M9.67,138c4.39-1.73,8.87-3.44,12.89-5.95,7.93-4.91,15.31-8.88,24.91-6.45,7.15,1.72,13.96,5.32,21.48,5.18,2.86.02,5.79-.4,8.59-.94,2.8-.61,5.74-1.12,8.59-.56,7.13,1.18,12.72,6.18,18.9,9.48,3.41,0,6.89,0,10.31,0,8.58,0,17.19,0,25.77,0,1.63-.67,2.87-2.35,4.3-3.36,2.08-1.7,4.4-3.33,6.87-4.4,6.54-3.03,12.94-.1,18.9,2.83,3.55,1.6,7.33,2.91,11.17,3.59"/><path class="b" d="M9.67,134.08c.78,0,1.8,0,2.58-.01,1.41-.59,2.95-1.32,4.3-2.05,8.35-4.64,15.36-13.7,25.77-13.05,8.05.59,15.16,5.33,23.19,6.15,3.4.44,6.91.28,10.31-.14,2.83-.32,5.78-1.03,8.59-.2,6.57,1.84,11.88,6.55,18.04,9.31,13.16-.1,26.37.19,39.52-.11,5.9-5.59,12.89-11.23,21.48-8.22,3.59,1.14,6.87,3.17,10.31,4.67,1.69.78,3.48,1.72,5.15,2.55,1.03.46,2.25,1.25,3.44,1.11"/><path class="b" d="M9.67,129.42c1.08,0,2.35,0,3.44,0,1.5-.53,2.98-1.55,4.3-2.42,7.42-5.4,14.74-14.13,24.91-12.26,4.12.69,8.03,2.43,12.03,3.61,4.15,1.29,8.53,2.04,12.89,1.86,3.15-.1,6.33-.61,9.45-1.03,2.25-.29,4.67-.64,6.87.11,6.74,2.38,12.06,7.75,18.9,9.97,1.93.36,4.05.08,6.01.17,3.41,0,6.9,0,10.31,0,7.72-.05,15.48.1,23.19-.06,6.91-6.43,14.12-12.75,24.05-8.52,3.2,1.35,6.42,2.92,9.45,4.62,2.01,1.22,3.97,2.79,6.01,3.96h.86"/><path class="b" d="M9.67,124.76c.92.17,1.82-.58,2.58-.98,1.11-.65,2.39-1.48,3.44-2.23,4.28-3.14,8.08-7.12,12.89-9.5,12.51-6.22,19.55,5.71,34.36,3.52,5.26-.62,10.23-2.78,15.46-3.53,4.47-.84,8.47,1.9,12.03,4.23,3.78,2.52,7.65,5.19,12.03,6.56,2.19.69,4.58,1.02,6.87,1.01,2.56-.13,5.22-.18,7.73.39,3.05.88,6.32.44,9.45.53,5.14,0,10.32,0,15.46,0,1.62-.73,2.9-2.37,4.3-3.45,2.62-2.27,5.43-4.55,8.59-6.02,5.38-2.7,11.2-1.35,16.32,1.25,4.24,1.7,7.62,4.9,11.17,7.67"/><path class="b" d="M9.67,120.02c7.97-5.17,15.11-15.31,25.77-12.79,10.42,2.76,14.58,9.8,26.63,5.04,5.84-2.17,10.93-6.48,17.18-7.47,2.74-.39,5.43.85,7.73,2.21,6.67,4.16,13.15,10,21.48,9.95,2.85-.06,5.8-.36,8.59.45,2.66.56,5.15,1.94,7.73,2.68,5.71,0,11.47,0,17.18,0,.41,0,1.31,0,1.72,0,1.32-.4,2.38-1.77,3.44-2.6,2.19-1.96,4.48-4.02,6.87-5.73,6.88-5.1,13.47-4.75,20.62-.32,2.74,1.83,5.19,4.22,7.73,6.3"/><path class="b" d="M9.67,115.43c.97.18,1.94-.47,2.58-1.13,1.08-.94,2.35-2.06,3.44-2.98,3.25-2.82,6.84-5.69,11.17-6.55,5.49-1.17,10.79,1.51,15.46,4.1,2.96,1.57,6.04,3.45,9.45,3.75,10.74.58,17.7-11.27,27.49-13.37,4.17-.62,7.85,2.19,11.17,4.32,2.74,1.85,5.57,3.79,8.59,5.16,2.93,1.35,6.22,2.07,9.45,1.97,1.97-.04,4.04-.45,6.01-.22,4.66.41,8.83,2.83,12.89,4.96,6.29,0,12.61,0,18.9,0,5.35-4.03,9.64-10.03,16.32-12.01,7.92-2.34,14.14,4.46,19.76,8.94"/><path class="b" d="M9.67,110.76c3.55-.03,3.36.5,6.01-1.98,2.31-1.94,4.89-3.77,7.73-4.85,9.29-3.72,17.32,2.72,25.77,5.53,4.49,1.37,9.14-.6,12.89-3.02,5.7-3.45,10.51-8.96,17.18-10.51,9.44-1.18,15.87,12.02,30.93,9.45,5.37-1.15,10.85.46,15.46,3.23,1.09.62,2.37,1.4,3.44,2.06.75.11,1.82.08,2.58.08,5.14,0,10.32,0,15.46,0,1.82.27,3.02-1.66,4.3-2.64,1.89-1.72,3.92-3.54,6.01-5.03,10.81-7.77,16.26.05,24.91,6.01"/><path class="b" d="M9.67,106.1c2.26,0,4.61,0,6.87,0,2.84-1.41,5.44-3.23,8.59-4.08,5.9-1.89,12.24-.95,18.04.84,3.64,1,7.31,2.71,11.17,2.3,9.74-.67,18.54-10.99,27.49-10.52,4.04.59,7.53,3.06,11.17,4.75,16.62,8.2,19.41-5.55,37.8,6.71,6,0,12.04,0,18.04,0,.93.18,1.91-.52,2.58-1.09,1.06-.82,2.34-1.78,3.44-2.55,3.24-2.28,7.08-4.36,11.17-3.95,4.39.38,7.75,3.57,11.17,6.03.73.52,1.71,1.29,2.58,1.56.76,0,1.82,0,2.58,0"/><path class="b" d="M9.67,101.44c3.7,0,7.47,0,11.17,0,1.46-.22,2.89-1.14,4.3-1.59,2.48-.93,5.12-1.68,7.73-2.12,4.54-.77,9.26-.59,13.74.41,7.46,2.25,13.22,1.92,20.62-.33,4.24-1.22,8.47-2.84,12.89-3.34,3.63-.31,7.04,1.52,10.31,2.84,3.51,1.5,7.31,2.71,11.17,2.58,8.53-.39,15.28-5.13,24.05-1.57,2.05.77,4.11,1.86,6.01,2.93,1.05.29,2.36.15,3.44.18,4.85,0,9.75,0,14.6,0,.82.09,1.91-.16,2.58-.66,1.05-.59,2.34-1.26,3.44-1.76,4.7-2.32,10.08-2.4,14.6.41,1.11.57,2.22,1.69,3.44,2.01,2.84,0,5.75,0,8.59,0"/><path class="b" d="M9.67,96.77c3.99,0,8.04,0,12.03,0,3.39-1.08,6.79-2.41,10.31-3.07,3.93-.81,8.03-1.1,12.03-.64,2.9.28,5.75,1.22,8.59,1.78,3.65.73,7.45,1,11.17.82,3.73-.17,7.48-.77,11.17-1.34,2.81-.37,5.77-1.1,8.59-.45,3.22.61,6.23,2.34,9.45,2.9,1.67,0,3.48,0,5.15,0,2.84,0,5.75,0,8.59,0,3.14-.7,6.28-1.78,9.45-2.38,4.61-1.02,9.46-.29,13.74,1.6.42.18,1.3.55,1.72.75.41.02,1.3.04,1.72.03,1.37,0,2.92,0,4.3,0,4.56,0,9.18,0,13.74,0,2.53-.81,5.06-1.99,7.73-2.26,2.27-.29,4.7-.04,6.87.69.78.26,1.84.71,2.58,1.08,0,0,.86.45.86.45l.86.04c3.99,0,8.04,0,12.03,0"/><path class="b" d="M9.67,92.11c2.84-.03,5.76.06,8.59-.04,1.07-.31,2.34-.63,3.44-.86,5.06-1.06,10.3-1.43,15.46-1.38,3.14.04,6.35.27,9.45.78,2.55.45,5.15,1.1,7.73,1.38,4.84.31,9.76.03,14.6.12,3.71.1,7.46-.28,11.17-.43,1.4-.09,2.91.33,4.3.43,1.97,0,4.05,0,6.01,0,19.75,0,39.52,0,59.27,0,1.37-.07,2.97.21,4.3-.24,2.73-.93,5.7-1.55,8.59-1.3,2.05.13,4.1.85,6.01,1.54,4.56,0,9.18,0,13.74,0"/><path class="b" d="M9.67,87.44c1.09,0,2.35,0,3.44,0,.83-.14,1.8-.7,2.58-.98,1.05-.39,2.32-.65,3.44-.73,5.46-.39,10.91.82,16.32,1.4,4.25.57,8.61.21,12.89.31,6.86,0,13.76,0,20.62,0,27.77,0,55.55,0,83.33,0,.75,0,1.82,0,2.58,0,.77-.17,1.82-.53,2.58-.75,2.2-.61,4.59-.95,6.87-.77,2.04.12,4.1.82,6.01,1.51,3.99,0,8.04,0,12.03,0"/><path class="b" d="M9.67,82.78c.88.13,1.85-.35,2.58-.79,1.31-.68,2.83-1.29,4.3-1.52,4.11-.43,8.13,1.2,12.03,2.26,1.97.09,4.05.02,6.01.04,18.89,0,37.8,0,56.7,0,20.9,0,41.81,0,62.71,0,1.8.25,3.49-.72,5.15-1.25,1.9-.62,4.01-1.05,6.01-1.07,3.03-.14,5.9,1.1,8.59,2.32,2.84,0,5.75,0,8.59,0"/><path class="b" d="M9.67,77.95c7.02-3.89,9.48-1.83,16.32.16,2.26,0,4.61,0,6.87,0,21.19,0,42.38-.02,63.57,0,13.17,0,26.35,0,39.52,0,4.56,0,9.18,0,13.74,0,1.96,0,4.05,0,6.01,0,.76-.35,1.82-.85,2.58-1.19,5.15-2.46,11.48-3.26,16.32.33.79.96,2.31.9,3.44.86,1.37,0,2.92,0,4.3,0"/><path class="b" d="M9.67,72.85c5.91-2.52,8.88-1.35,14.6.52,1.96.18,4.05.04,6.01.08,4.57,0,9.18,0,13.74,0,2.22-.57,4.59-.7,6.87-.81,1.98-.19,4.05-.56,6.01-.84,6.11-1,10.56-.34,16.32,1.65,3.41,0,6.89,0,10.31,0,20.04,0,40.09,0,60.13,0,3.7,0,7.47,0,11.17,0,2.3-.78,4.51-2.11,6.87-2.75,5.25-1.74,10.38-.89,14.6,2.75h6.01"/><path class="b" d="M9.67,67.35c6.82-1.77,9.87.12,16.32.84,3.44.36,6.99-.05,10.31-1.03,3.45-.97,6.79-2.52,10.31-3.23,1.37-.28,2.91-.24,4.3-.27,1.97-.06,4.05-.16,6.01-.11,3.51.08,7.07.81,10.31,2.18,1.42.59,2.95,1.36,4.3,2.12.75.41,1.68,1.11,2.58.93,7.43,0,14.9,0,22.33,0,12.31,0,24.63,0,36.94,0,4.28,0,8.61,0,12.89,0,2.54-.08,5.21.19,7.73-.14,6.04-2.1,12.96-3.17,18.9-.21.98.56,2.36.29,3.44.35,1.96,0,4.05,0,6.01,0"/><path class="b" d="M9.67,61.13c2.55,0,5.19-.02,7.73.22,4.26.53,8.66.72,12.89-.2,5.02-.98,9.67-3.37,14.6-4.63,1.93-.51,4.04-.53,6.01-.39,2.27.09,4.64.26,6.87.68,5.68,1.01,10.82,3.94,15.46,7.25,16.31.16,32.65,0,48.96.06,6,0,12.04,0,18.04,0,2.55,0,5.18,0,7.73,0,1.68-.11,3.47-.5,5.15-.59,2.25-.17,4.62-.16,6.87.07,1.39.09,2.91.52,4.3.52,6,0,12.04,0,18.04,0"/><path class="b" d="M9.67,54.35c9.36,1.55,16.8.76,25.77-2.12,8.39-2.62,11.92-3.11,20.62-1.5,4.22.79,8.32,2.4,12.03,4.56,1.41.81,2.95,1.8,4.3,2.72.99.69,2.13,1.69,3.44,1.46,4.28,0,8.61,0,12.89,0,12.88,0,25.78,0,38.66,0,6,0,12.04,0,18.04,0,1.67-.18,3.47-.4,5.15-.36,1.38.02,2.93.16,4.3.36,2.55,0,5.19,0,7.73,0,6.57,0,13.18,0,19.76,0"/><path class="b" d="M9.67,47.34c9.4,2.31,18.28-1.12,27.49-2.54,7.44-1.27,15.04-.08,22.33,1.52,4.2,1.02,8.28,2.72,12.03,4.88,1.41.81,2.95,1.78,4.3,2.68.97.88,2.19,1,3.44.9,4.56,0,9.18,0,13.74,0,29.78,0,59.56,0,89.34,0"/><path class="b" d="M9.67,40.68c3.1.45,6.33.72,9.45.33,5.44-.7,10.81-2.26,16.32-2.47,5.77-.36,11.49.86,17.18,1.57,10.86,1.03,19.56,3.17,28.35,10.01,33.79.07,67.58,0,101.37.02"/><path class="b" d="M9.67,35.08c3.41.19,6.91.39,10.31-.05,5.98-.89,11.94-2.53,18.04-2.25,4.89.12,9.73,1.22,14.6,1.59,9.49.59,18.6,1.66,26.63,7.24,1.09.74,2.36,1.65,3.44,2.4.99.68,2.14,1.68,3.44,1.47,5.43,0,10.9,0,16.32,0,26.63,0,53.26,0,79.89,0"/><path class="b" d="M9.67,30.19c3.97-.58,8.08-.53,12.03-1.29,6.18-1.42,12.52-2.97,18.9-2.01,7.43,1.19,14.92,2.17,22.33,3.42,7.74,1.23,15.01,3.34,21.48,7.92,1.38.81,2.77,2.05,4.3,2.57,1.97,0,4.05,0,6.01,0,4.28,0,8.61,0,12.89,0,24.91,0,49.83,0,74.74,0"/><path class="b" d="M9.67,25.7c1.94-.71,4-1.43,6.01-1.9,1.66-.38,3.51-.5,5.15-.96,3.95-1.07,7.89-2.61,12.03-2.79,5.04-.34,9.83,1.59,14.6,2.92,4.96.93,9.7,2.85,14.6,3.99,4.21,1.01,8.59,1.21,12.89,1.59,3.97.27,7.81,1.65,11.17,3.77,1.4.84,2.93,1.84,4.3,2.75.42.29,1.27.83,1.72,1.06.43,0,1.29,0,1.72,0,4.85,0,9.75,0,14.6,0,24.62,0,49.25,0,73.88,0"/><path class="b" d="M9.67,21.69c1.93-1.1,3.95-2.31,6.01-3.14,1.63-.65,3.52-.88,5.15-1.54,3.35-1.26,6.7-2.91,10.31-3.26,5.27-.62,10.05,2.14,14.6,4.37,1.6.82,3.48,1.29,5.15,1.92,2.32.96,4.6,2.26,6.87,3.3,7.5,3.63,12.14,2.24,19.76.62,2.91-.58,5.96.04,8.59,1.34,2.38,1.13,4.69,2.66,6.87,4.13,1.07.65,2.21,1.7,3.44,2.03,2.26,0,4.62,0,6.87,0,26.34,0,52.69,0,79.03,0"/><path class="b" d="M9.67,17.99c2.21-1.53,4.43-3.28,6.87-4.42,3.28-1.02,6.34-2.72,9.45-4.16,7.53-3.51,12.81.08,18.9,4.34,2.65,1.91,5.96,2.76,8.59,4.7,6.84,4.81,11.8,7.34,19.76,2.93,2.48-1.25,4.96-2.9,7.73-3.41,6.53-.83,11.87,4.14,17.18,7.16,1.3.69,2.74,1.85,4.3,1.69,2.55,0,5.18,0,7.73,0,.41.02,1.3-.02,1.72-.08.41-.24,1.3-.7,1.72-.92,1.04-.54,2.33-1.13,3.44-1.55,5.7-2.32,11.35-.65,16.32,2.55h48.96"/></svg>