<?xml version="1.0" encoding="UTF-8"?><svg id="a" xmlns="http://www.w3.org/2000/svg" width="1920" height="2400" viewBox="0 0 192 240"><defs><style>.b{fill:none;stroke:#fff;stroke-miterlimit:10;stroke-width:.4px;}.c{stroke-width:0px;}</style></defs><rect class="c" width="192" height="240"/><path class="b" d="M11.8,217.77c3.07,1.79,6,3.99,9.22,5.53,2.78,1.35,5.7,2.62,8.38,4.18,2.33,1.3,4.53,3.01,6.7,4.55,11.16,0,22.35,0,33.51,0,5.29-.05,10.63.1,15.92-.06,3.04-1.02,6.09-2.27,9.22-3.03,5.04-1.35,10.54-.76,15.08,1.83.74.39,1.68,1.08,2.51,1.25,1.92,0,3.95,0,5.86,0,4.45,0,8.95,0,13.41,0,5.85,0,11.74,0,17.59,0,1.4.02,2.83-.79,4.19-1.07,1.88-.51,3.92-.89,5.86-1.04,4.5-.44,8.97.68,13.41,1.16,2.61.03,5.19-.96,7.54-2.01"/><path class="b" d="M11.8,213.99c2.57,1.16,5.06,2.67,7.54,3.99,2.75,1.43,5.67,2.68,8.38,4.19,1.69.93,3.46,2.05,5.03,3.18,1.08.65,2.08,1.92,3.35,2.14,14.8,0,29.61,0,44.41,0,3.04-.08,6.19.17,9.22-.12,5.79-2.26,12.26-4.67,18.43-2.49,1.74.58,3.48,1.55,5.03,2.53,3.32.2,6.73.02,10.05.08,7.53,0,15.09,0,22.62,0,.75,0,1.8.07,2.51-.24,1.33-.66,2.83-1.38,4.19-1.97,2.91-1.27,6.05-2.26,9.22-2.58,3.63-.46,7.3.26,10.89.66,2.62.03,5.2-1,7.54-2.09"/><path class="b" d="M11.8,211.92c3.18,1.09,6.2,2.73,9.22,4.2,2.19,1.03,4.52,1.98,6.7,3.01,1.67.79,3.44,1.71,5.03,2.65.76.41,1.61,1.18,2.51,1.15,15.36,0,30.73,0,46.08,0,3.61,0,7.28,0,10.89,0,.82.13,1.78-.38,2.51-.66,1.33-.53,2.83-1.12,4.19-1.6,3.71-1.31,7.91-2.18,11.73-.82,2.01.72,4,1.82,5.86,2.87,1.01.36,2.3.18,3.35.22,1.92,0,3.95,0,5.86,0,7.25,0,14.53,0,21.78,0,.78.06,1.85-.06,2.51-.54,1.03-.53,2.29-1.14,3.35-1.62,3.16-1.43,6.58-2.52,10.05-2.77,7.57-.6,9.11,2.69,16.76-1.78"/><path class="b" d="M11.8,209.85c3.8,1,7.29,2.94,10.89,4.45,3.88,1.39,7.83,2.78,11.73,4.09,15.36,0,30.73,0,46.08,0,5.57-.02,11.19.05,16.76-.03,5.41-2.21,10.85-5.05,16.76-2.8,1.67.52,3.42,1.24,5.03,1.94.73.31,1.71.83,2.51.89,4.73,0,9.51,0,14.24,0,4.73,0,9.51,0,14.24,0,3.27-1.24,6.57-2.69,10.05-3.23,3.3-.59,6.76-.47,10.05.13,3.51,1.08,7.11-.35,10.05-2.26"/><path class="b" d="M11.8,206.63c1.96.52,3.99,1.17,5.86,1.94,1.92.81,3.85,1.87,5.86,2.43,3.81,1.14,7.84,1.59,11.73,2.42,1.88.55,3.93.41,5.86.42,3.05,0,6.17,0,9.22,0,8.93,0,17.88,0,26.81,0,8.09,0,16.21,0,24.3,0,1.13.13,2.34-.39,3.35-.83,1.03-.41,2.28-.86,3.35-1.16,2.98-.8,6.2-.55,9.22-.14,3.12.37,6.15,1.56,9.22,2.12,5.29,0,10.63,0,15.92,0,2.2,0,4.5,0,6.7,0,3.84-.98,7.73-2.14,11.73-2.22,3.65-.16,7.34.44,10.89,1.26,2.95.49,5.89-.88,8.38-2.34"/><path class="b" d="M11.8,201.72c2.24.59,4.56,1.26,6.7,2.15,1.86.86,3.84,1.75,5.86,2.16,4.94,1.06,10.08.82,15.08,1.41,2.22.24,4.52.61,6.7,1.07,1.35.22,2.81.83,4.19.78,3.33-.06,6.73.12,10.05-.08,2.77-.54,5.59-1.23,8.38-1.62,3.31-.48,6.78-.52,10.05.23,1.38.3,2.89.81,4.19,1.37,1.04.18,2.3.09,3.35.11,7.81,0,15.65,0,23.46,0,4.42-.79,8.87-1.95,13.41-1.86,5.07-.05,10.04,1.34,15.08,1.61,4.51.09,8.94-1.29,13.41-1.76,3.59-.46,7.3-.52,10.89-.06,3.38.36,6.72,1.39,10.05,1.99,2.6.23,5.22-.69,7.54-1.77"/><path class="b" d="M11.8,195.35c2.23.54,4.56,1.14,6.7,1.97,2.9,1.36,6.02,2.35,9.22,2.7,4.72.58,9.53.67,14.24,1.33,3.92.37,7.78,1.7,11.73,1.67,7.86-.44,15.5-4.26,23.46-2.66,3.69.51,6.92,2.5,10.05,4.38,8.65,0,17.32,0,25.97,0,1.05-.03,2.32.1,3.35-.14,1.33-.5,2.84-1.06,4.19-1.51,2.69-.9,5.55-1.6,8.38-1.9,3.88-.45,7.84-.12,11.73-.33,5.28-.42,10.61-1.26,15.92-.84,3.96.26,7.9,1.14,11.73,2.15,1.62.4,3.36.97,5.03,1.08,2.23.15,4.55-.28,6.7-.85"/><path class="b" d="M11.8,190.42c2.21.63,4.53,1.25,6.7,2,2.43.95,4.98,1.83,7.54,2.37,4.13.91,8.38,1.46,12.57,2.08,4.16.57,8.37,1.29,12.57,1.47,4.86.01,9.54-1.66,14.24-2.64,4.65-1.04,9.57-1.41,14.24-.29,2.41.49,4.65,1.8,6.7,3.09,1.05.54,2.11,1.73,3.35,1.68,9.21,0,18.44,0,27.65,0,.86.12,1.78-.56,2.51-.92,1.04-.55,2.29-1.2,3.35-1.71,2.92-1.44,6.04-2.67,9.22-3.4,3.55-.86,7.27-1.01,10.89-1.38,4.43-.51,8.94-1.02,13.41-.63,7.97.58,15.39,4.19,23.46,4.06"/><path class="b" d="M11.8,187.07c6.03,2.07,12.23,3.8,18.43,5.29,5.49,1.26,11.1,2.42,16.76,2.38,6.27-.09,12.29-2.22,18.43-3.21,5.44-.89,13.23-1.52,18.43.44,1.7.69,3.44,1.64,5.03,2.55.42.24,1.26.72,1.68.95.73.22,1.76.17,2.51.17,5.57,0,11.18,0,16.76,0,1.92,0,3.95,0,5.86,0,1.06-.05,2.37.18,3.35-.29,5.56-3.16,11.28-6.35,17.59-7.69,2.46-.57,5.06-.83,7.54-1.29,3.85-.71,7.8-1.4,11.73-1.29,4.25.07,8.47,1.07,12.57,2.14,3.94.9,7.9,1.94,11.73,3.26"/><path class="b" d="M11.8,184.32c4.52,1.99,9.53,2.51,14.24,3.89,5.47,1.46,11.02,3.25,16.76,2.89,1.35-.03,2.85.07,4.19-.08,1.68-.26,3.41-.84,5.03-1.32,3.27-.95,6.68-1.67,10.05-2.09,6.1-.8,12.3-.54,18.43-.86,4.47-.19,8.59,2.04,12.57,3.78,1.76.96,3.95.44,5.86.56,2.77,0,5.61,0,8.38,0,3.05,0,6.17,0,9.22,0,1.45.05,2.85-.99,4.19-1.44,6.71-3,13.76-5.26,20.95-6.79,3.88-.99,7.74-2.36,11.73-2.87,4.76-.69,9.61.1,14.24,1.25,1.91.5,3.99.79,5.86,1.4,2.3.79,4.56,1.99,6.7,3.13"/><path class="b" d="M11.8,181.12c3.95,1.83,8.39,1.86,12.57,2.84,3.62.83,7.22,2.02,10.89,2.58,1.63,0,3.39,0,5.03,0,1.63-.02,3.4.05,5.03-.05,4.04-.9,7.54-3.41,11.73-3.89,5.82-.97,11.74.08,17.59.09,2.52.07,5.06-.42,7.54-.76,2.23-.17,4.55.17,6.7.74,2.54.67,5.08,1.64,7.54,2.53,1.61.49,3.32,1.41,5.03,1.34,3.61,0,7.28,0,10.89,0,4.98-1.04,10.02-2.15,15.08-2.79,4.5-.67,9.09-1.33,13.41-2.81,4.71-1.68,9.25-4.12,14.24-4.9,4.17-.73,8.47-.12,12.57.8,1.62.38,3.42.64,5.03,1.06,2.69.85,5.16,2.47,7.54,3.94"/><path class="b" d="M11.8,176.4c4.3,1.61,9,1.19,13.41,2.3,5.74,1.35,11.65,3.26,17.59,2.2,3.32-.47,6.29-2.18,9.22-3.7,2.34-1.03,4.99-1.48,7.54-1.45,5.35.06,10.57,1.82,15.92,1.93,2.25.11,4.52-.44,6.7-.88,2.2-.33,4.53-.19,6.7.23,6.26,1.15,11.99,4.73,18.43,4.94,1.68.06,3.42-.43,5.03-.83,1.61-.34,3.38-.52,5.03-.57,5.02-.16,10.06.72,15.08.44,2.55-.14,5.18-.65,7.54-1.64,4.51-2.04,8.66-4.99,13.41-6.49,4.86-1.7,10.14-1.22,15.08-.13,1.63.36,3.46.51,5.03,1.11,2.35.93,4.57,2.4,6.7,3.74"/><path class="b" d="M11.8,169.68c4.12.95,8.45.71,12.57,1.69,6.28,1.43,12.78,3.6,19.27,2.16,6.93-1.51,8.53-5.4,16.76-4.29,5.65.71,11.02,3.2,16.76,3.35,2.5.09,5.03-.73,7.54-.48,3.78.26,7.43,1.65,10.89,3.1,2.16.75,4.36,2.29,6.7,2.23,10.88-.02,21.79.05,32.68-.03,6.9-1.62,11.85-7.37,18.43-9.77,4.77-2.01,10.12-1.74,15.08-.62,1.63.36,3.46.55,5.03,1.15,2.34.91,4.56,2.32,6.7,3.61"/><path class="b" d="M11.8,163.4c3.62.57,7.33.99,10.89,1.86,9.4,2.28,18.51,3.37,27.65-.62,3.18-1.29,6.79-1.05,10.05-.22,5.36,1.35,10.44,3.86,15.92,4.74,2.18.41,4.5.23,6.7.36,2.54.18,5.12.77,7.54,1.56,1.66.51,3.37,1.3,5.03,1.82,2.77,0,5.61,0,8.38,0,5.85,0,11.74,0,17.59,0,4.17,0,8.4,0,12.57,0,1.16-.07,2.33-.86,3.35-1.35,1.4-.75,2.9-1.7,4.19-2.62,3.51-2.49,6.98-5.24,10.89-7.09,4.93-2.5,10.69-2.45,15.92-.95,4.14.83,8.01,2.65,11.73,4.6"/><path class="b" d="M11.8,158.67c1.93.39,3.97.81,5.86,1.37,1.93.58,3.89,1.45,5.86,1.9,8.04,2,16.34.25,24.3-1.33,5.01-1.36,9.49-.29,14.24,1.44,4.14,1.47,8.3,3.07,12.57,4.12,3.85.92,7.83,1.57,11.73,2.18,3.61,0,7.28,0,10.89,0,12.28-.01,24.58.03,36.86-.01,3.98-2.66,7.92-5.49,11.73-8.38,5.82-4.51,12.55-8.2,20.11-6.21,4.93,1.19,9.51,3.54,14.24,5.29"/><path class="b" d="M11.8,155.64c3.21.85,6.33,2.2,9.22,3.83,6.73,3.22,14.15.25,20.95-1.2,5.13-1.24,10.07-1.14,15.08.55,6.57,2.15,13.3,3.79,20.11,4.97,5.57,0,11.18,0,16.76,0,13.4,0,26.82,0,40.22,0,3.39-3.09,7.23-5.72,10.89-8.47,5.33-4.13,11.26-9.1,18.43-8.53,3.6.23,6.88,1.98,10.05,3.54,2.14.98,4.45,1.83,6.7,2.51"/><path class="b" d="M11.8,153.78c2.95,1.06,5.84,2.52,8.38,4.37.44.27,1.21.75,1.68.96,1.33.27,2.84.1,4.19.14,2.15-.12,4.63.27,6.7-.22,5.91-1.87,12.14-4.96,18.43-3.02,4.13,1.12,8.29,2.45,12.57,2.85,8.07.59,16.21.31,24.3.38,10.05,0,20.12,0,30.16,0,5.57-.09,11.2.19,16.76-.11,1.55-1.51,3.27-3.1,5.03-4.36,1.99-1.28,4.05-2.71,5.86-4.23,5.17-4.12,10.55-9.53,17.59-9.57,3.73-.04,6.96,2.06,10.05,3.88,2.1,1.1,4.44,1.96,6.7,2.65"/><path class="b" d="M11.8,151.78c2.01.73,4.05,1.69,5.86,2.82,3.03.25,6.17.03,9.22.1,3.89-.03,7.84.07,11.73-.05,1.32-.49,2.81-.97,4.19-1.28,2.45-.56,5.13-.61,7.54.15,1.34.4,2.83.82,4.19,1.12,1.05.1,2.3.05,3.35.06,2.77,0,5.61,0,8.38,0,3.05-.49,6.11-1.44,9.22-1.49,2.04-.09,4.06.61,5.86,1.49,3.61,0,7.28,0,10.89,0,12,0,24.02,0,36.03,0,1.63,0,3.4,0,5.03,0,1.05-.04,2.34.15,3.35-.23,2.48-2.39,5.76-3.84,8.38-6.05,3.62-2.95,6.97-6.38,10.89-8.95,4.75-3.25,10.23-3.89,15.08-.4,2.78,2.05,5.99,3.58,9.22,4.78"/><path class="b" d="M11.8,148.21c1.08.27,2.32.67,3.35,1.07.77.29,1.68.84,2.51.87,3.61,0,7.28,0,10.89,0,5.85-.12,11.77.29,17.59-.27,1.35-.07,2.86.05,4.19.27,1.35,0,2.84,0,4.19,0,2.2-.03,4.5.07,6.7-.06,1.66-.36,3.42-.89,5.03-1.43,4.01-1.28,8.29-3.25,12.57-2.15,1.97.65,3.88,1.78,5.86,2.41,1.61.51,3.3,1.38,5.03,1.23,13.12,0,26.26,0,39.38,0,3.05,0,6.17,0,9.22,0,.87.08,1.77-.67,2.51-1.02,1.44-.67,2.93-1.67,4.19-2.64,3.69-2.87,7.03-6.31,10.89-8.98,5.14-3.69,10.74-4.51,15.92-.34,2.6,1.88,5.5,3.48,8.38,4.89"/><path class="b" d="M11.8,143.75c1.67.23,3.44.64,5.03,1.18.77.25,1.68.79,2.51.66,6.97,0,13.97,0,20.95,0,3.61,0,7.28,0,10.89,0,1.35,0,2.84,0,4.19,0,.77,0,1.79.07,2.51-.24,3.96-1.18,7.78-2.94,11.73-4.14,3.5-1.08,7.49-1.55,10.89.11,4,1.87,8.45,2.68,12.57,4.24,4.45.08,8.95,0,13.41.03,12-.06,24.03.12,36.03-.06,8.29-3.69,15.94-15.32,25.97-11.91,1.81.67,3.46,1.99,5.03,3.08,2.15,1.51,4.45,3.03,6.7,4.38"/><path class="b" d="M11.8,139.42c2.82.23,5.69.74,8.38,1.62,3.33.03,6.72,0,10.05.01,5.29,0,10.63,0,15.92,0,1.63,0,3.39,0,5.03,0,1.06-.04,2.33.13,3.35-.21,5.84-2.81,11.76-6.41,18.43-6.48,1.95-.02,4.01.32,5.86.93,2.17.83,4.42,1.75,6.7,2.21,2.77.64,5.65,1.16,8.38,1.96,1.37.4,2.87.92,4.19,1.45.74.17,1.76.13,2.51.13,12.84,0,25.7,0,38.54,0,1.63-.05,3.41.12,5.03-.11,3.86-1.41,7.32-3.82,10.89-5.82,12.32-7.04,15.29-1.94,25.14,5.16"/><path class="b" d="M11.8,135.75c2.21.22,4.5.47,6.7.73,2.77.04,5.61,0,8.38.02,6.41,0,12.86,0,19.27,0,1.91-.08,3.98.19,5.86-.16,1.06-.75,2.3-1.66,3.35-2.42,5.65-4.26,12.01-7.71,19.27-5.73,3.4.78,6.59,2.52,10.05,3.07,5.05.83,10.27,1.17,15.08,3.05,1.68.61,3.42,1.44,5.03,2.19,2.2,0,4.5,0,6.7,0,5.01,0,10.07,0,15.08,0,2.77,0,5.61.01,8.38-.01,1.32-.36,2.83-.64,4.19-.72,2.5.01,5.1.21,7.54-.46,5.43-1.24,10.39-4.21,15.92-5.11,5-.91,8.92,1.28,12.57,4.51.69.57,1.62,1.52,2.51,1.78.73,0,1.78,0,2.51,0"/><path class="b" d="M11.8,131.95h37.7c5.84-4.26,10.66-11.27,18.43-11.9,5.35-.45,10,2.84,15.08,3.86,3.58.68,7.3.72,10.89,1.33,3.46.55,6.89,1.65,10.05,3.14,2.26,1.05,4.53,2.33,6.7,3.56,4.17.03,8.4,0,12.57.01,2.34.21,4.5-1.17,6.7-1.78,2.94-.99,6.09-1.8,9.22-1.51,1.65.18,3.37.76,5.03.89,2.77.29,5.65,0,8.38-.51,8.7-1.73,15.42-4.29,22.62,2.82,1.62.18,3.4.05,5.03.09"/><path class="b" d="M11.8,127.4c11.44,0,22.91,0,34.35,0,.9.14,1.9-.31,2.51-.95,1.09-.91,2.34-2.04,3.35-3.04,2.45-2.4,4.88-5.01,7.54-7.18,5.63-4.71,10.84-5.3,17.59-2.66,6.41,2.67,13.58,2.13,20.11,4.38,3.51,1.14,6.86,2.87,10.05,4.71,2.62,1.49,5.28,3.35,8.38,3.54,7.82.59,14.78-5.05,22.62-4.18,1.98.21,3.91,1.14,5.86,1.49,2.73.56,5.62.58,8.38.31,8.61-.96,15.66-3.49,22.62,3.57h5.03"/><path class="b" d="M11.8,122.85c10.33,0,20.67,0,31,0,1.98.28,3.49-1.42,5.03-2.39,3.7-2.58,6.85-5.93,10.05-9.08,6.17-6.1,12.04-9.91,20.95-7.27,6.44,1.75,13.31,2.28,19.27,5.52,3.19,1.61,6.24,3.66,9.22,5.63,2.57,1.69,5.28,3.52,8.38,4.03,7.05,1.31,13.9-2.36,20.95-1.86,2.32.09,4.52,1.12,6.7,1.78,3.25.89,6.75.81,10.05.28,5.77-.86,12.05-3.14,17.59-.26,1.85.86,3.3,2.61,5.03,3.63h4.19"/><path class="b" d="M11.8,118.3c6.13,0,12.3,0,18.43,0,2.48-.06,5.07.12,7.54-.09,2.55-1.08,5.11-2.37,7.54-3.68,2.22-1.25,4.61-2.45,6.7-3.92,2.36-1.74,4.57-3.87,6.7-5.88,4.76-4.42,9.95-9.57,16.76-10.17,2.55-.25,5.09.51,7.54,1.06,13.26,2.31,17.38,7.7,27.65,14.8,7.63,4.99,15.02,3.35,23.46,3.41,2.26.08,4.61.48,6.7,1.36,2.33,1.08,4.98,1.62,7.54,1.57,7.81.02,15.96-5.51,23.46-1.33,4.65,2.89,2.24,3.02,8.38,2.88"/><path class="b" d="M11.8,113.76c4.73,0,9.51,0,14.24,0,1.16.14,2.34-.43,3.35-.9,1.06-.47,2.3-1.04,3.35-1.52,3.84-1.77,7.76-3.53,11.73-5,3.03-1.22,6.4-1.84,9.22-3.55,7.9-4.45,16.27-16.42,25.97-15.13,3.04.73,6.21,1.21,9.22,2.06,7.59,2.05,13.35,7.68,19.27,12.53,4.8,3.86,10.59,6.68,16.76,7.37,3.59.46,7.3.33,10.89.82,3.24.27,6.07,2.18,9.22,2.8,10.13,2.01,19.93-6.41,29.32.53h5.86"/><path class="b" d="M11.8,107.66c7.6,1.95,12.08-1.11,18.43-4.66,5.41-3.13,11.31-5.7,17.59-6.26,7.31-.06,12.72-4.08,18.43-8.12,3.33-2.27,6.82-4.82,10.89-5.47,1.67-.28,3.41.19,5.03.55,1.63.31,3.4.53,5.03.81,9.48,1.27,15.54,7.83,22.62,13.47,5.14,3.85,11.1,6.96,17.59,7.48,3.61.39,7.35.21,10.89,1.12,2.82.7,5.39,2.73,8.38,2.64,3.89,0,7.84,0,11.73,0,1.91-.13,3.94-.39,5.86-.37,1.35,0,2.87.11,4.19.37,3.89,0,7.84,0,11.73,0"/><path class="b" d="M11.8,99.97c9.51,1.35,13.38-3.12,20.95-7.5,7.69-4.45,11.67-4.29,20.11-3.82,4.72-.08,9.23-1.9,13.41-3.97,3.73-1.76,7.51-4.05,11.73-4.23,1.96-.04,3.92.78,5.86.9,3.06.3,6.24.4,9.22,1.24,8.88,2.44,14.69,10.32,22.62,14.54,6.07,3.55,11.66,3.54,18.43,3.48,1.95.05,4.03.31,5.86,1.03,2.43,1.13,4.93,2.35,7.54,3.02,10.89,0,21.79,0,32.68,0"/><path class="b" d="M11.8,93.87c3.37.15,6.95.1,10.05-1.37,7.58-3.82,13.76-11.03,22.62-11.93,2.78-.36,5.62.12,8.38.4,2.76.25,5.63.23,8.38-.14,5.62-.63,11.04-3.15,16.76-2.87,1.96.15,3.9.99,5.86,1.12,13.01.54,15.73,2.57,25.97,10.12,7.78,5.57,13.26,6.45,22.62,5.52,2.81-.18,5.82-.05,8.38,1.26,2.97,1.51,6,3.24,9.22,4.14,2.77,0,5.61,0,8.38,0,7.25,0,14.53,0,21.78,0"/><path class="b" d="M11.8,87.85c3.05.12,6.26.23,9.22-.66,7.51-2.9,12.74-9.75,20.11-12.98,4.22-2.01,8.1-1.87,12.57-1.07,3.87.57,7.82,1,11.73,1.17,3.9.2,7.89.16,11.73.93,2.81.59,5.51,1.91,8.38,2.3,4.49.76,9.1,1.31,13.41,2.87,4.66,1.58,8.95,4.15,13.41,6.18,3.93,1.75,8.27,2.58,12.57,2.57,3.33.03,6.73-.33,10.05-.06,2.66.17,5.26,1.13,7.54,2.48,2.17,1.15,4.47,2.29,6.7,3.31,1.48.93,3.36.64,5.03.67,2.2,0,4.5,0,6.7,0,6.41,0,12.86,0,19.27,0"/><path class="b" d="M11.8,82.71c3.31.19,6.79.71,10.05-.06,9.52-3.07,15.3-13.21,25.14-15.66,3.58-.64,7.33.41,10.89.79,5.05.79,10.15,1.67,15.08,3.06,3.48.93,6.81,2.46,10.05,3.98,2.7,1.18,5.55,2.2,8.38,3.03,7.13,2.05,14.52,3.19,21.78,4.67,4.98.76,10.07.53,15.08.8,4.3.22,8.68.98,12.57,2.9,2.45,1.24,5.02,2.47,7.54,3.58.73.32,1.77.76,2.51,1.07,1.03.21,2.3.1,3.35.12,8.65,0,17.32,0,25.97,0"/><path class="b" d="M11.8,79.09c8.16.96,11.13,2.66,18.43-2.51,3.78-2.64,7.18-5.9,10.89-8.62,3.28-2.45,6.7-4.17,10.89-3.57,10.58.12,19.11.6,28.49,6.17,4.39,2.57,8.56,5.75,13.41,7.44,4.55,1.7,9.52,1.41,14.24.75,4.74-.35,9.49-1.18,14.24-1.31,4.89-.11,9.76,1.08,14.24,2.97,4.97,2.11,9.89,4.51,15.08,6.05,9.49,0,19,0,28.49,0"/><path class="b" d="M11.8,76.93c1.94.29,3.96.71,5.86,1.18,2.16.58,4.45,1.24,6.7.89,5.93-.86,10.52-5.21,15.08-8.74,2.77-2.14,5.7-4.55,9.22-5.28,1.05-.18,2.3-.08,3.35-.16,1.65-.11,3.41-.41,5.03-.73,5.48-1.16,11.3-2.15,16.76-.34,11.45,3.09,17.22,17.22,30.16,13.51,5.02-1.53,9.94-3.61,15.08-4.75,7.42-1.73,13.67,1.6,20.11,4.79,2.68,1.22,5.57,2.17,8.38,3.06,1.91.5,3.89,1.38,5.86,1.54,8.93,0,17.88,0,26.81,0"/><path class="b" d="M11.8,75.44c2.55.38,5.11,1.1,7.54,1.93,3.33,0,6.72,0,10.05,0,3.75-.12,10.65-6.35,14.24-8.36,1.77-1.07,3.78-2.08,5.86-2.27,2.28.05,4.6-.5,6.7-1.35,7.02-2.93,14.14-7.09,21.78-3.48,3.91,1.69,6.9,4.94,10.05,7.7,6.32,5.71,11.45,7.34,19.27,3.23,10.66-4.82,16.18-8.78,27.65-2.83,6.3,3.36,13.36,4.88,20.11,7.09.99.42,2.3.24,3.35.28,1.91,0,3.95,0,5.86,0,5.29,0,10.63,0,15.92,0"/><path class="b" d="M11.8,72.68c5.83.34,11.75.03,17.59.13,1.92,0,3.95,0,5.86,0,.76,0,1.76,0,2.51,0,.8-.27,1.78-.85,2.51-1.25,2.39-1.3,4.88-2.71,7.54-3.38,1.04-.27,2.29-.28,3.35-.34,1.41-.16,2.91-.67,4.19-1.26,5.6-2.6,10.49-7.1,16.76-8.07,13.01-1.94,17.87,16.95,31.84,12.22,2.84-.96,5.59-2.37,8.38-3.46,2.75-1.23,5.5-2.68,8.38-3.57,5.3-1.85,10.91-.56,15.92,1.58,3.51,1.47,7.29,2.32,10.89,3.52,3.94,1.19,7.8,2.82,11.73,4.01,6.97,0,13.97,0,20.95,0"/><path class="b" d="M11.8,67.75c1.93.09,3.92.65,5.86.52,4.73,0,9.51,0,14.24,0,4.73,0,9.51,0,14.24,0,.77.07,1.76-.19,2.51-.29,1.05-.13,2.31-.08,3.35-.32,7.45-2.08,12.6-8.95,20.11-10.95,12.01-3.31,17.36,12.79,30.16,11.41,2.27-.22,4.54-.94,6.7-1.64,1.65-.51,3.45-1.03,5.03-1.74,3.8-1.65,7.59-3.64,11.73-4.27,4.52-.78,9.08.44,13.41,1.66,2.75.7,5.61,1.24,8.38,1.87,5.88,1.29,11.79,2.65,17.59,4.25,5.01.07,10.07,0,15.08.03"/><path class="b" d="M11.8,61.77c1.96.07,4.01.42,5.86,1.04.77.25,1.74.69,2.51.91.45,0,1.23,0,1.68,0,10.89,0,21.79,0,32.68,0,1.21.17,2.37-.7,3.35-1.28,1.07-.66,2.31-1.49,3.35-2.2,3.88-2.61,7.88-5.54,12.57-6.44,4.23-.9,8.33,1.01,11.73,3.37,3.24,2.13,6.46,4.5,10.05,6,1.79.89,3.94.44,5.86.54,14.02.02,9.06.69,21.78-4.4,3.98-1.5,8.35-1.99,12.57-1.43,4.16.58,8.35,1.35,12.57,1.4,5.57.19,11.21-.2,16.76.5,2.86.36,5.75,1.11,8.38,2.29,1.06.47,2.31,1.12,3.35,1.65,1.04,0,2.31,0,3.35,0"/><path class="b" d="M11.8,55.74c2.26.17,4.58.68,6.7,1.48,1.67.54,3.28,1.73,5.03,1.94,8.65,0,17.32,0,25.97,0,1.35,0,2.84,0,4.19,0,2.08-.29,4.01-1.64,5.86-2.58,5.64-3.16,11.65-7.29,18.43-6.38,3,.4,5.78,1.89,8.38,3.35,3.27,1.86,6.56,3.89,10.05,5.31.7.39,1.74.31,2.51.3,1.34,0,2.85,0,4.19,0,3.89,0,7.84,0,11.73,0,1.05,0,2.3,0,3.35,0,2.24-.85,4.46-2.03,6.7-2.89,4.22-1.75,8.84-2.56,13.41-2.29,4.51.45,9.02.18,13.41-1.01,13.42-3.54,15.96-4.76,28.49,2.62"/><path class="b" d="M11.8,50.43c2.25.35,4.57.95,6.7,1.75,2.2.79,4.39,2.01,6.7,2.44,3.61,0,7.28,0,10.89,0,2.2-.1,4.57.29,6.7-.34,1.9-.5,3.91-1.05,5.86-1.32,2.24-.17,4.58-.44,6.7-1.23,5.59-1.94,10.83-5.13,16.76-6,7.65-1.39,14.39,3.23,20.95,6.42,1.88.88,3.87,1.89,5.86,2.49,1.34,0,2.85,0,4.19,0,5.85,0,11.74,0,17.59,0,2.54-1.04,4.98-2.56,7.54-3.57,2.91-1.23,6.06-2.11,9.22-2.4,2.48-.25,5.09-.02,7.54-.61,3.81-.82,7.39-2.59,10.89-4.24,11.82-5.69,13.17-3.76,24.3,1.51"/><path class="b" d="M11.8,46.39c4.03.72,7.82,2.45,11.73,3.57,2.19.25,4.5.05,6.7.11,2.23,0,4.58.2,6.7-.65,3.37-1.03,6.64-2.56,10.05-3.44,2.45-.63,5.11-.42,7.54-1.16,5.07-1.34,9.89-3.73,15.08-4.62,9.11-1.91,16.5,3.23,24.3,7.02,2.16,1.02,4.42,2.14,6.7,2.85,1.05,0,2.3,0,3.35,0,5.29,0,10.63,0,15.92,0,.86.16,1.82-.46,2.51-.9,1.34-.81,2.84-1.74,4.19-2.53,3.14-1.85,6.5-3.52,10.05-4.39,2.72-.74,5.68-.66,8.38-1.5,3.82-1.11,7.37-3.07,10.89-4.88,4.33-2.18,9.31-4.76,14.24-3.2,3.33,1.4,6.66,3,10.05,4.27"/><path class="b" d="M11.8,42c3.41.31,6.75,1.3,10.05,2.15,7.06,1.63,13.84-1.65,20.11-4.51,2.12-.91,4.4-1.79,6.7-2.08,2.21-.11,4.54-.11,6.7-.66,5.31-1.19,10.45-3.41,15.92-3.85,9.4-.95,17.14,5.52,25.14,9.42,2.16,1.08,4.42,2.26,6.7,3.06,1.63,0,3.4,0,5.03,0,4.45-.05,8.96.1,13.41-.06,2.55-1.54,5.06-3.33,7.54-4.96,2.64-1.74,5.45-3.43,8.38-4.65,1.85-.82,3.97-1.25,5.86-1.95,3.49-1.32,6.77-3.27,10.05-5.03,4.8-2.56,10.41-5.31,15.92-3.51,1.42.46,2.85,1.34,4.19,1.99,2.15,1.07,4.46,2.05,6.7,2.91"/><path class="b" d="M11.8,36.55c3.35-.45,6.73-.04,10.05.39,5.67.32,10.94-2.27,15.92-4.66,3.19-1.51,6.51-3.14,10.05-3.54,1.35-.16,2.84.08,4.19.1,1.93.03,3.97-.21,5.86-.55,6.33-1.13,12.78-3.44,19.27-2.16,4.21.89,8.02,3.19,11.73,5.29,5.02,2.96,9.92,6.21,15.08,8.91,1.2.84,2.82.6,4.19.62,1.92,0,3.95,0,5.86,0,3.33,0,6.72,0,10.05,0,6.24-3.37,11.19-8.89,17.59-12.02,8.2-4.64,16.49-14.51,26.81-10.09,1.74.71,3.42,1.88,5.03,2.83,2.13,1.26,4.44,2.46,6.7,3.45"/><path class="b" d="M11.8,30.71c2.13-.77,4.43-1.41,6.7-1.57,2.23-.01,4.56-.11,6.7-.77,6.12-1.74,11.49-5.5,17.59-7.29,1.87-.54,3.92-.86,5.86-.72,1.92.23,3.92.69,5.86.7,4.79.16,9.53-.93,14.24-1.57,3.32-.44,6.82-.59,10.05.39,6.03,2.14,11.48,5.75,16.76,9.31,2.49,1.7,5.03,3.5,7.54,5.18,1.3.7,2.62,2.19,4.19,2.06,7.25-.07,14.54.15,21.78-.08,3.25-2.52,6.18-5.55,9.22-8.31,1.86-1.72,4.06-3.27,5.86-5.05,4.68-4.3,9.19-10.16,15.92-10.94,4.79-.4,8.91,2.66,12.57,5.36,2.38,1.71,4.93,3.37,7.54,4.71"/><path class="b" d="M11.8,25.28c2.09-1.21,4.35-2.37,6.7-2.96,1.95-.36,4.02-.69,5.86-1.43,5.41-2.03,10.34-5.31,15.92-6.91,3.53-1.07,7.38-1.12,10.89.04,3.26.84,6.71,1.07,10.05.84,13.16-1.22,14.47-3.37,26.81,3.69,4.72,2.66,9.12,5.94,13.41,9.23,1.91,1.32,3.73,3.16,5.86,4.1,1.34,0,2.85,0,4.19,0,4.73,0,9.51,0,14.24,0,2.48-.08,5.08.17,7.54-.13,1.99-2.03,3.94-4.31,5.86-6.4,1.96-2.05,4.09-4.18,5.86-6.4,4.49-5.27,10.53-13.73,18.43-10.08,2.79,1.26,5.2,3.38,7.54,5.32,2.9,2.4,5.93,4.82,9.22,6.67"/></svg>