<?xml version="1.0" encoding="UTF-8"?><svg id="a" xmlns="http://www.w3.org/2000/svg" width="1920" height="2400" viewBox="0 0 192 240"><defs><style>.b{fill:none;stroke:#fff;stroke-miterlimit:10;stroke-width:.4px;}.c{stroke-width:0px;}</style></defs><rect class="c" width="192" height="240"/><path class="b" d="M7.96,228.44c2.43-2.1,5.04-4.2,7.88-5.71,2.63-1.27,5.2-2.88,7.88-4.02,11-5.11,18.28,5.73,25.4,12.24.75.59,1.66,1.49,2.63,1.68,2.01,0,4.13,0,6.13,0,4.66,0,9.36,0,14.02,0,2.06-.22,4.08-1.28,6.13-1.61,3.97-.5,7.9-1.57,11.39-3.57,6.01-2.99,12.56-9.66,19.27-10,1.48-.03,3.04.53,4.38,1.12,2.07.89,4.18,2.01,6.13,3.14,5.06,2.96,9.95,6.33,14.89,9.48.74.47,1.76,1.21,2.63,1.43,1.7,0,3.55,0,5.26,0,3.48,0,7.03,0,10.51,0,10.5,0,21.03,0,31.54,0"/><path class="b" d="M7.96,220.27c2.38-2.13,4.98-4.25,7.88-5.63,2.82-1.2,5.72-2.56,8.76-3.09,10.84-1.74,17.22,9.25,24.53,15.23.44.36,1.2.94,1.75,1.09.46,0,1.3,0,1.75,0,1.71,0,3.55,0,5.26,0,5.24,0,10.53,0,15.77,0,8.94.87,16.02-4.93,22.78-9.95,3.65-2.58,7.6-5.67,12.26-5.76,1.49,0,3.05.59,4.38,1.2,2.07.92,4.18,2.08,6.13,3.24,4.79,2.88,9.41,6.14,14.02,9.28.77.53,1.85,1.27,2.63,1.8,1.67.37,3.55.1,5.26.18,3.48,0,7.03,0,10.51,0,10.8,0,21.62,0,32.41,0"/><path class="b" d="M7.96,212.18c2.09-1.9,4.4-3.8,7.01-4.94,5.03-1.92,10.9-2.21,15.77.35,7.42,3.72,12.38,10.82,19.27,15.28,1.06.41,2.4.21,3.5.25,1.71,0,3.55,0,5.26,0,5.53,0,11.11,0,16.64,0,10.04.82,21.57-16.87,33.29-15.21,3.81.69,7.2,2.95,10.51,4.85,4.79,2.95,9.44,6.23,14.02,9.49.87.92,2.33.94,3.5.87,1.09,0,2.41,0,3.5,0,3.77,0,7.61,0,11.39,0,10.8,0,21.62,0,32.41,0"/><path class="b" d="M7.96,206.33c2.06-1.74,4.38-3.46,7.01-4.21,7.65-1.61,15.04,2.43,21.02,6.82,3.19,2.29,6.32,4.84,9.64,6.94,1.59.87,3.45,2.26,5.26,2.48,4.95,0,9.94,0,14.89,0,3.48,0,7.03,0,10.51,0,6.89-2.99,11.91-9.06,18.4-12.75,7.96-4.74,14.42-2.8,21.9,1.65,5.74,3.34,11.26,7.13,16.64,11.01,16.92.25,33.88,0,50.81.09"/><path class="b" d="M7.96,203.42c6.06-4.31,10.16-3.22,16.64-.7,8.26,3.42,15.75,8.77,24.53,10.89,3.19,0,6.45,0,9.64,0,5.24,0,10.53,0,15.77,0,1.31-.04,2.44-1.26,3.5-1.92,1.47-1.06,3.05-2.33,4.38-3.56,5.84-5.3,12.24-13.02,21.02-11.34,4.99,1.09,9.57,3.69,14.02,6.12,5.71,3.28,11.25,6.93,16.64,10.7h49.93"/><path class="b" d="M7.96,202.67c2.46-.99,5.24-1.69,7.88-1.18,4.51,1.1,8.77,3.17,13.14,4.71,3.94,1.32,8.05,2.83,12.26,2.64,10.21,0,20.45,0,30.66,0,3.44.17,3.52-.22,6.13-2.27,7.04-5.25,12.36-16.03,21.9-16.56,4.1-.07,7.77,2.14,11.39,3.77,5.73,2.56,11.25,5.69,16.64,8.89,2.99,1.81,6.01,3.79,8.76,5.96,1.66.44,3.56.13,5.26.22,3.19,0,6.45,0,9.64,0,10.8,0,21.62,0,32.41,0"/><path class="b" d="M7.96,201.89c2.61-.27,5.37-.23,7.88.58,1.72.47,3.45,1.68,5.26,1.62,9.34,0,18.7,0,28.03,0,6.12,0,12.28,0,18.4,0,2.89,0,5.87,0,8.76,0,1.36-.16,2.45-1.54,3.5-2.32,7.3-6.26,13.16-19.29,24.53-17.08,2.08.43,4.16,1.29,6.13,2.05,3.54,1.27,7.09,2.73,10.51,4.28,6.14,2.78,12.31,5.85,17.52,10.19,3.43,2.89,2.23,3.01,7.01,2.87,3.48,0,7.03,0,10.51,0,9.34,0,18.7,0,28.03,0"/><path class="b" d="M7.96,199.34c15.76,0,31.54,0,47.3,0,5.53,0,11.11,0,16.64,0,1.7,0,3.55,0,5.26,0,1.1-.04,2.44.13,3.5-.2,6.91-6.36,12.37-18.44,22.78-19.06,2.97-.1,5.9.87,8.76,1.55,3.2.78,6.47,1.58,9.64,2.5,6.33,1.79,12.56,4.51,17.52,8.92,2.23,1.83,4.04,4.32,6.13,6.29h38.54"/><path class="b" d="M7.96,194.58h74.46c7.54-7.62,13.59-20.01,26.28-17.74,8.49,1.32,17.7.19,25.4,4.68,3.73,2.07,6.94,5.11,9.64,8.39,1.1,1.31,2.4,2.88,3.5,4.19.95.76,2.38.42,3.5.48,11.09,0,22.2,0,33.29,0"/><path class="b" d="M7.96,189.83h74.46c6.43-5.85,11.59-14.88,21.02-15.96,3.77-.42,7.62.37,11.39-.14,10.48-1.51,17.36-1.88,25.4,6.14,1.86,1.84,3.61,4.08,5.26,6.12,1.07,1.21,2.12,2.96,3.5,3.83h35.04"/><path class="b" d="M7.96,185.07c18.68,0,37.38,0,56.06,0,3.48,0,7.03,0,10.51,0,1.71,0,3.55,0,5.26,0,.92-.38,1.89-1.32,2.63-1.97,5.61-5.12,11.18-11.77,19.27-12.4,2.89-.27,5.87.2,8.76.14,5.92-.27,11.51-3.44,17.52-2.77,5.72.53,10.43,4.48,14.02,8.7,1.45,1.73,2.99,3.74,4.38,5.52.7.87,1.59,2.28,2.63,2.77h35.04"/><path class="b" d="M7.96,180.31c18.1,0,36.21,0,54.31,0,7.11-.02,13.62.78,19.27-4.49,5.34-4.45,10.98-9.96,18.4-9.93,2.92-.06,5.86.62,8.76.82,5.48.35,10.41-2.9,15.77-3.5,11.08-1.56,17.83,9.26,23.65,16.91,1.67.39,3.55.11,5.26.19,2.6,0,5.29,0,7.88,0,7.58,0,15.19,0,22.78,0"/><path class="b" d="M7.96,175.56c17.52,0,35.04,0,52.56,0,1.1,0,2.41,0,3.5-.01,1.69-.47,3.54-.87,5.26-1.25,4.48-.87,8.85-2.62,12.26-5.72,5.24-4.39,11.12-9.38,18.4-8.9,2.62.09,5.28.7,7.88.97,5.48.62,10.42-2.68,15.77-3.25,11.48-1.47,18.58,9.84,24.53,17.87,1.62.58,3.56.17,5.26.29,2.6,0,5.29,0,7.88,0,7.58,0,15.19,0,22.78,0"/><path class="b" d="M7.96,170.8c17.22,0,34.46,0,51.68,0,2-.02,4.13.05,6.13-.04.78-.31,1.85-.73,2.63-1.03,4.33-1.64,8.67-3.62,12.26-6.59,5.28-4.25,11.32-8.49,18.4-8.3,2.9-.03,5.86.47,8.76.42,2.75,0,5.36-1.17,7.88-2.12,3.04-1.17,6.34-2.18,9.64-1.85,9.77,1.05,16.84,12.76,22.78,19.53h35.92"/><path class="b" d="M7.96,166.05c17.52,0,35.04,0,52.56,0,1.71,0,3.55,0,5.26,0,1.16.07,2.49-.02,3.5-.66,4.36-1.98,8.47-4.59,12.26-7.51,4.35-3.16,9.48-5.44,14.89-5.81,4.96-.47,10.31.36,14.89-2.02,2-1.07,4.06-2.31,6.13-3.23,8.96-4.36,15.46,1.97,21.02,8.39,1.97,2.31,4.13,4.7,6.13,6.99,1.11,1.17,2.05,3.07,3.5,3.84h35.92"/><path class="b" d="M7.96,161.29c19.85,0,39.72,0,59.57,0,1.1-.03,2.43.12,3.5-.18,1.12-.52,2.43-1.2,3.5-1.82,4.35-2.47,8.18-6.07,13.14-7.31,7.13-2.17,15.24-.16,21.9-4,4.07-2.5,7.49-6.41,12.26-7.61,7.19-1.66,12.4,5.17,16.64,9.91,3.04,3.67,6.69,6.93,9.64,10.68,1.6.65,3.56.19,5.26.32,2.6,0,5.29,0,7.88,0,7.58,0,15.19,0,22.78,0"/><path class="b" d="M7.96,156.53c21.02,0,42.05,0,63.07,0,.78,0,1.85,0,2.63,0,.45-.19,1.32-.6,1.75-.83,2.96-1.46,5.56-3.79,8.76-4.75,6.23-2.02,12.98-.13,19.27-1.83,6.31-1.46,10.05-7.18,14.89-10.95,8.3-6.77,14.43-.37,20.15,5.96,2.1,2.46,4.7,4.61,7.01,6.86,1.76,1.74,3.38,3.92,5.26,5.54,8.46,0,16.95,0,25.4,0,1.16.12,2.37-.66,3.5-.82,1.39-.27,2.98-.31,4.38-.17"/><path class="b" d="M7.96,151.78c10.5,0,21.03,0,31.54,0,3.19,0,6.45,0,9.64,0,1.64-.6,3.51-.88,5.26-.77,1.73.09,3.56.44,5.26.77,2.89,0,5.87,0,8.76,0,6.71.07,6.34.33,12.26-3.06,2.94-1.52,6.4-1.72,9.64-1.43,13.01,1.64,16.85.57,25.4-9.56,3.53-3.85,8.27-8.85,14.02-7.06,4.21,1.4,7.3,4.91,10.51,7.79,1.6,1.55,3.65,2.84,5.26,4.38,2.67,2.55,5.14,5.49,7.88,7.96.54.73,1.74,1.12,2.63.98,1.09,0,2.41,0,3.5,0,3.48,0,7.03,0,10.51,0,0,0,.88-.15.88-.15,0,0,.88-.65.88-.65.77-.59,1.86-1.42,2.63-2.02,2.62-2.24,6.32-2.99,9.64-2.11"/><path class="b" d="M7.96,147.02h35.92c1.75-1.05,3.31-2.71,5.26-3.44,5.23-2.04,10.66.75,15.77,1.92,3.4.86,7.07,1.19,10.51.38,2.42-.47,4.63-1.85,7.01-2.44,6.69-1.52,13.43,1.82,20.15.66,11.52-1.65,15-16.75,26.28-18.66,4.26-.41,8.01,2.23,11.39,4.47,1.36.96,3.03,1.81,4.38,2.78,1.87,1.43,3.63,3.28,5.26,4.98,6.03,6.41,12.19,12.54,21.02,6.48,4.45-3.04,7.16-6.16,13.14-5.11"/><path class="b" d="M7.96,142.26h34.16c2.05-1.53,3.83-3.65,6.13-4.86,5.87-3.26,12.53-.26,18.4,1.46,3.1.93,6.38,1.66,9.64,1.54,2.63-.09,5.24-1.04,7.88-1.04,3.79-.14,7.61.47,11.39.72,17.5,1.61,19.64-10.7,32.41-17.48,3.8-1.92,8.28-1.8,12.26-.55,1.75.53,3.72,1,5.26,2.05,7.85,5.48,15.21,19.22,26.28,12.37,4.11-2.66,6.92-5.53,12.26-5.53"/><path class="b" d="M7.96,137.51c11.09-.04,22.2.08,33.29-.05,6.05-6.6,11.92-10.08,21.02-7.6,4.46,1.14,8.68,3.21,13.14,4.38,4.27,1.07,8.78.69,13.14,1.01,7.94.3,16.36.5,23.65-3.15,3.73-1.9,7.12-4.54,10.51-6.96,6.32-4.49,13.77-9.6,21.9-8.24,9,3.18,15.33,16.9,26.28,12.62,2.25-.9,4.16-2.64,6.13-3.98,2.09-1.4,4.51-2.58,7.01-3.03"/><path class="b" d="M7.96,132.75h31.54c2.46-1.9,4.5-4.5,7.01-6.36,5.99-4.65,12.97-6.43,20.15-3.43,5.04,1.89,9.56,5.26,14.89,6.33,8.37,1.54,17,.53,25.4-.28,7.09-.78,14.08-2.85,20.15-6.65,4.93-2.84,9.44-6.68,14.89-8.5,7.18-2.42,14.54,7.01,21.9,8.48,8.88,2.19,12.47-6.18,20.15-8.24"/><path class="b" d="M7.96,127.99c6.41,0,12.86,0,19.27,0,2.3,0,4.71,0,7.01,0,.79,0,1.84,0,2.63,0,.6-.06,1.38-.69,1.75-1.13,4.48-4.46,9.1-9.02,14.89-11.74,6.95-3.57,13.15-1.43,19.27,2.61,2.54,1.58,5.1,3.39,7.88,4.52,6.68,2.58,14.03,1.54,21.02,1.61,3.77-.01,7.61,0,11.39.09,4.08.27,8.34.53,12.26-.84,4.18-1.39,7.83-4.08,11.39-6.6,2.88-1.99,6-4.27,9.64-4.34,8.49.1,15.78,6.44,24.53,2.33,4.64-2.21,8.04-6.72,13.14-8.07"/><path class="b" d="M7.96,123.24c8.75-.03,17.53.06,26.28-.04,5.61-4.68,10.28-10.61,16.64-14.34,6.08-3.99,12.01-4.71,18.4-.93,8.19,4.93,10.71,8.43,21.02,9.51,7.28.72,14.6,1.48,21.9,2.04,4.35.53,8.72,2.06,13.14,1.32,7.33-.95,12.42-7.18,19.27-9.29,3.7-.98,7.62-.55,11.39-.36,4.76.31,9.73-.14,14.02-2.37,4.89-2.35,8.5-7.22,14.02-8.3"/><path class="b" d="M7.96,118.48c5.83,0,11.69,0,17.52,0,2-.09,4.17.22,6.13-.19,2.14-1.49,4.23-3.29,6.13-5.08,7.58-7.27,17.28-18.39,28.91-13.47,5.54,2.21,10,6.66,15.77,8.35,3.98,1.22,8.19,1.73,12.26,2.51,3.8.68,7.61,1.61,11.39,2.41,2.27.53,4.71.71,7.01,1.05,2.36.49,4.71,1.42,7.01,2.11,4.56,1.54,9.62,1.39,14.02-.61,3.79-1.6,7.35-3.95,11.39-4.92,6.06-1.6,12.44-2.01,18.4-4.03,3.36-1.11,6.65-2.68,9.64-4.59,3.24-2.13,6.56-4.64,10.51-5.15"/><path class="b" d="M7.96,113.73c5.53,0,11.11,0,16.64,0,1.71-.01,3.55.03,5.26-.03,2.52-1.25,4.9-3.02,7.01-4.87,8.31-7.56,17.05-19.43,29.78-14.4,4.83,1.74,9.02,5.11,14.02,6.42,3.72.91,7.63,1.03,11.39,1.68,3.57.58,7.11,1.63,10.51,2.84,2.28.79,4.65,1.66,7.01,2.19,1.72.33,3.62.51,5.26,1.21,4.82,1.95,9.51,5,14.89,4.9,3.99,0,7.75-1.68,11.39-3.12,4.68-1.59,9.4-3.22,14.02-4.99,5.52-2.07,11.18-3.93,16.64-6.15,4-1.62,7.88-3.98,12.26-4.37"/><path class="b" d="M7.96,108.97c7.29,0,14.61,0,21.9,0,3.58-.02,8.83-5.34,11.39-7.8,8.98-9.51,15.8-14.95,28.91-8.69,3.37,1.45,6.79,3.29,10.51,3.6,2.89.22,5.87-.12,8.76-.05,3.91.03,7.81.99,11.39,2.53,2.62,1.09,5.22,2.46,7.88,3.43,2.29.79,4.85,1.05,7.01,2.24,4.21,1.92,8.32,5.2,13.14,4.74,2-.04,4.14.09,6.13-.08,1.74-.45,3.57-1.13,5.26-1.76,1.98-.76,4.18-1.29,6.13-2.14,4.1-1.76,8.07-3.97,12.26-5.52,4.76-1.86,9.88-2.58,14.89-3.38,3.47-.63,6.97-1.61,10.51-1.8"/><path class="b" d="M7.96,104.21c6.12,0,12.28,0,18.4,0,2.01,0,4.13,0,6.13,0,2.02.19,2.86-.35,4.38-1.54,5.32-3.97,9.05-9.95,14.89-13.24,8.57-4.77,16.33,1.16,24.53,3.41,2.87.79,5.91.28,8.76-.33,11.34-2.68,15.09,1.55,24.53,6,1.37.55,3.02.84,4.38,1.43,2.64,1.09,5.22,2.55,7.88,3.56,2.17,1.03,4.68.65,7.01.71,1.4-.03,2.98.07,4.38-.08,2.69-.76,5.29-2.04,7.88-3.05,7.28-1.96,13.4-7.24,21.02-8.06,3.78-.48,7.63.2,11.39.57,3.47.28,7.03.02,10.51.06"/><path class="b" d="M7.96,99.46h29.78c8.87-6.94,12.96-17.46,26.28-12.51,5.15,1.72,10.13,5.23,15.77,4.67,4.68-.75,9.16-3.22,14.02-2.65,5.65.53,10.11,4.44,14.89,7.1,1.89,1.07,4.15,1.57,6.13,2.43.77.31,1.81.77,2.63.95,1.1,0,2.41,0,3.5,0,2.6,0,5.29,0,7.88,0,1.41-.12,3.12.34,4.38-.42,2.94-1.43,5.73-3.37,8.76-4.63,3.99-1.18,7.58-3.46,11.39-5.09,6.48-2.92,11.98-1.72,18.4.57,3.94,1.29,8.17,1.67,12.26,2.17"/><path class="b" d="M7.96,94.7c1.18.11,2.42-.12,3.5-.58,2.6-.93,5.4-.45,7.88.58,6.41,0,12.86,0,19.27,0,8-5.77,11.93-15.33,23.65-11.13,5.32,1.76,10.06,5.56,15.77,6,2.68.08,5.31-.96,7.88-1.59,2.82-.75,5.89-1.1,8.76-.43,3.19.73,6.1,2.51,8.76,4.35.78.54,1.85,1.29,2.63,1.84.69.54,1.72,1.13,2.63.97,3.19,0,6.45,0,9.64,0,3.19,0,6.45,0,9.64,0,2-.1,4.17.23,6.13-.2,2.54-1.8,5.06-3.89,7.88-5.24,3.65-1.24,7.02-3.25,10.51-4.86,6.93-3.28,12.44-2.01,19.27.66,4,1.37,8.23,2.13,12.26,3.39"/><path class="b" d="M7.96,88.31c6.71-2.92,8.9-.78,14.89,1.64,3.48,0,7.03,0,10.51,0,5.16.04,4.64.4,8.76-2.84,6.39-5.35,11.19-10.17,20.15-7.14,6.22,1.88,11.62,7.01,18.4,6.71,3.18-.17,6.45-.62,9.64-.27,2.07.21,4.21.77,6.13,1.56,1.45.53,2.91,1.51,4.38,1.99,10.8,0,21.62,0,32.41,0,2.59-1.95,5.02-4.33,7.88-5.9,1.33-.75,2.99-1.17,4.38-1.78,4-1.74,7.93-3.97,12.26-4.76,4.72-.97,9.52.3,14.02,1.72,1.69.54,3.57.9,5.26,1.43,2.4.78,4.79,1.91,7.01,3.1"/><path class="b" d="M7.96,81.51c3.15-.95,6.65-.88,9.64.57,2.32.98,4.62,2.29,7.01,3.12,2.01,0,4.13,0,6.13,0,2.6-.05,5.3.12,7.88-.09,1.78-.79,3.6-1.85,5.26-2.88,5.42-3.6,11.68-6.99,18.4-5.52,5.61,1.04,10.41,4.45,15.77,6.23,1.97.59,4.13.87,6.13,1.34,1.41.25,2.94.84,4.38.92,6.7,0,13.44,0,20.15,0,5.53,0,11.11,0,16.64,0,2.59-.11,5.33.24,7.88-.18,1.08-.89,2.39-1.94,3.5-2.79,1.59-1.2,3.41-2.41,5.26-3.18,1.39-.51,3-.94,4.38-1.5,3.17-1.23,6.35-2.66,9.64-3.57,5.12-1.53,10.59-1.26,15.77-.17,1.71.36,3.6.58,5.26,1.16,2.49.9,4.86,2.39,7.01,3.92"/><path class="b" d="M7.96,75.96c4.03-.29,7.88,1.18,11.39,3,1.1.49,2.33,1.19,3.5,1.48.47,0,1.29,0,1.75,0,6.12,0,12.28,0,18.4,0,1.19.13,2.44-.44,3.5-.88,2.03-.78,4.14-1.66,6.13-2.53,7.92-3.6,14.09-3.57,21.9.27,2.29,1.05,4.64,2.28,7.01,3.14,5.24,0,10.53,0,15.77,0,11.38,0,22.78,0,34.16,0,.77,0,1.85,0,2.63,0,.46-.18,1.35-.65,1.75-.93,1.91-1.14,4.01-2.25,6.13-2.94,6.83-1.7,13.22-4.96,20.15-6.32,4.58-.89,9.42-1.06,14.02-.2,2.89.76,5.51,2.51,7.88,4.27"/><path class="b" d="M7.96,71.83c2.08.51,4.2,1.33,6.13,2.24,1.39.56,2.8,1.77,4.38,1.61,9.63,0,19.28,0,28.91,0,2.01,0,4.13,0,6.13,0,1.44-.03,3.14.23,4.38-.69,5.64-3.22,11.51-4.3,17.52-1.34,1.13.52,2.43,1.22,3.5,1.85,2.26.41,4.71.08,7.01.18,4.65,0,9.36,0,14.02,0,14.01,0,28.04,0,42.05,0,11.13-1.67,20.86-9.71,32.41-9.41,3.51.13,6.73,1.99,9.64,3.81"/><path class="b" d="M7.96,68.68c1.45.65,2.83,1.86,4.38,2.24,3.19,0,6.45,0,9.64,0,6.7,0,13.44,0,20.15,0,7,0,14.03,0,21.02,0,.85.12,1.87-.32,2.63-.65,1.35-.51,2.93-.88,4.38-.93,2.44-.17,4.76.82,7.01,1.58,3.19,0,6.45,0,9.64,0,21.31,0,42.64,0,63.95,0,1.1-.04,2.45.15,3.5-.24,2.02-1,4.13-2.11,6.13-3.13,8.91-4.5,14.17-6.56,23.65-1.75"/><path class="b" d="M7.96,65.99c1.97.38,4.13.09,6.13.17,3.48,0,7.03,0,10.51,0,9.63,0,19.28,0,28.91,0,27.74,0,55.48,0,83.22,0,6.12-.08,12.29.17,18.4-.1,2.86-1.7,5.79-3.5,8.76-5,7.65-3.96,12.24-3.6,20.15-.57"/><path class="b" d="M7.96,61.41c41.17,0,82.35,0,123.52,0,6.41,0,12.86,0,19.27,0,3.58-2.03,6.86-4.75,10.51-6.69,8.85-4.91,13.63-4.34,22.78-.7"/><path class="b" d="M7.96,56.65c37.96,0,75.92,0,113.88,0,7.58,0,15.19,0,22.78,0,0,0,.88-.13.88-.13l.88-.66c.78-.6,1.86-1.44,2.63-2.06,1.98-1.58,4.08-3.26,6.13-4.74,6.05-4.53,13.5-7.5,21.02-5.01,2.7.89,5.3,2.3,7.88,3.48"/><path class="b" d="M7.96,51.89h131.4c5.78-3.56,10.2-8.96,15.77-12.8,6.75-4.9,13.48-5.11,21.02-1.91,2.75,1.29,5.3,3.16,7.88,4.74"/><path class="b" d="M7.96,44.43c1.39.89,2.79,2.19,4.38,2.7,2.89,0,5.87,0,8.76,0,6.12,0,12.28,0,18.4,0,18.39,0,36.8,0,55.19,0,11.09,0,22.2,0,33.29,0,1.4,0,2.98,0,4.38,0,1.17.04,2.59.08,3.5-.79,2.73-1.83,5.5-3.83,7.88-6.1,3.89-3.63,7.59-7.73,12.26-10.38,5.45-3.23,11.18-2.22,16.64.39,4.32,1.59,7.81,4.75,11.39,7.53"/><path class="b" d="M7.96,36.28c3,1.92,6.16,3.81,9.64,4.71,1.44.36,2.87,1.49,4.38,1.39,7.58,0,15.19,0,22.78,0,16.05,0,32.12,0,48.18,0,11.38,0,22.78,0,34.16,0,1.7,0,3.55,0,5.26,0,.94,0,1.88-.87,2.63-1.34,2.7-1.83,5.48-3.78,7.88-5.99,3.62-3.37,7.08-7.17,11.39-9.68,5.58-3.4,11.25-2.12,16.64.96,2,1.14,4.24,2.17,6.13,3.5,2.4,1.74,4.68,3.87,7.01,5.71"/><path class="b" d="M7.96,27.49c1.99.99,4.07,2.07,6.13,2.9,1.69.69,3.6,1.14,5.26,1.91,3.05,1.36,5.95,3.22,8.76,5.01,1.04.51,2.39.26,3.5.32,1.41,0,2.97,0,4.38,0,4.95,0,9.94,0,14.89,0,20.14,0,40.3,0,60.44,0,4.95,0,9.94,0,14.89,0,2,0,4.13,0,6.13,0,1.49-.79,2.98-1.98,4.38-2.93,5.82-3.77,10.16-9.76,16.64-12.5,6.21-2.72,12.38.74,17.52,4.16,1.93,1.3,4.17,2.37,6.13,3.63,2.34,1.56,4.65,3.4,7.01,4.93"/><path class="b" d="M7.96,18.92c3.83,1.24,7.74,2.51,11.39,4.22,3.96,2,7.63,4.64,11.39,6.97,1.38.86,2.94,1.78,4.38,2.54,2.24.49,4.72.1,7.01.22,23.36,0,46.72,0,70.08,0,6.41,0,12.86,0,19.27,0,0,0,.88-.14.88-.14l.88-.68c.78-.61,1.86-1.44,2.63-2.06,2.66-2.1,5.35-4.35,7.88-6.6,12.29-10.63,19.12-1.44,29.78,5.19,1.7.87,3.59,1.71,5.26,2.64,1.07.54,2.32,1.36,3.5,1.64.4,0,1.34,0,1.75,0"/><path class="b" d="M7.96,12.04c7.92.64,14.34,5.76,21.02,9.53,4.84,2.78,10.13,5.19,15.77,5.59,4.36.28,8.77-.69,13.14-.3,2.05.15,4.18.57,6.13,1.21,1.1.06,2.4.03,3.5.04,16.35,0,32.71,0,49.06,0,4.95,0,9.94,0,14.89,0,.56-.03,1.39-.61,1.75-1.02,1.1-.98,2.42-2.16,3.5-3.16,3.59-3.07,6.87-6.97,11.39-8.67,10.75-3.34,17.48,8.77,26.28,12.44,1.31.6,2.98.37,4.38.41,1.7,0,3.55,0,5.26,0"/><path class="b" d="M7.96,7.37c5.57-.34,9.48,2.65,14.02,5.3,5.16,3.05,10.7,5.72,16.64,6.8,5.76,1.16,11.73.68,17.52,1.56,2.69.41,5.39,1.25,7.88,2.33,1.1,0,2.41,0,3.5,0,14.01,0,28.04,0,42.05,0,4.95,0,9.94,0,14.89,0,2.59-.11,5.33.25,7.88-.19,11.72-11.51,16.21-19.06,31.54-6.36,3.03,2.34,6.04,5.02,9.64,6.46,3.47.24,7.03.03,10.51.1"/></svg>