<?xml version="1.0" encoding="UTF-8"?><svg id="a" xmlns="http://www.w3.org/2000/svg" width="1920" height="2400" viewBox="0 0 192 240"><defs><style>.b{fill:none;stroke:#fff;stroke-miterlimit:10;stroke-width:.4px;}.c{stroke-width:0px;}</style></defs><rect class="c" x="0" width="192" height="240"/><path class="b" d="M8.24,229.83c2.88,0,5.85,0,8.73,0,.61.09,1.26-.14,1.75-.45.8-.42,1.84-1.02,2.62-1.46,2.25-1.29,4.59-2.65,6.99-3.65,3.54-1.53,7.53-2.11,11.35-1.55,3.22.41,6.39,1.46,9.61,1.91,6.13.85,12.26-.64,18.34-1.28,3.79-.4,7.8-.29,11.35,1.24,2.87,1.34,5.77,2.83,8.73,3.96,1.66.59,3.44,1.44,5.24,1.29,4.06,0,8.17,0,12.23,0,3.76,0,7.59,0,11.35,0,7.69-3.68,13.61-8.92,22.7-9.17,2-.12,4.12.09,6.11-.08,3.64-.32,7.17-1.63,10.48-3.11,4.78-2.05,9.51-4.98,14.84-5.12,2.12-.05,4.23.76,6.11,1.67,2.34,1.1,4.71,2.41,6.99,3.64"/><path class="b" d="M8.24,225.09c1.41,0,2.96,0,4.37,0,3.92-1.48,7.77-3.27,11.35-5.45,12.14-7.19,17.04-4.2,29.69-2.22,9.47,1.53,19.61,1.71,27.94,7.04.98.7,2.35.67,3.49.64,1.09,0,2.4,0,3.49,0,4.06,0,8.17,0,12.23,0,6.39-.02,12.82.05,19.21-.03,3.12-1.36,6.32-2.8,9.61-3.74,3.38-1,6.97-1.44,10.48-1.65,3.59-.08,7.2-.76,10.48-2.25,7.19-2.83,14.59-9.18,22.7-7.14,3.6,1.26,6.99,3.21,10.48,4.74"/><path class="b" d="M8.24,218.82c2-.64,4.1-1.35,6.11-1.95,2.03-.57,4.2-1.08,6.11-2,4.34-1.99,8.49-4.6,13.1-5.96,6.89-2.14,14.3-.6,20.96,1.68,5.6,2.01,11.13,4.33,16.59,6.69,1.42.63,2.98,1.36,4.37,2.05.77.37,1.72,1.05,2.62,1.02,7.27,0,14.56,0,21.83,0,6.39,0,12.82,0,19.21,0,2.59,0,5.27,0,7.86,0,2-.45,4.1-1.01,6.11-1.39,3.77-.78,7.7-1.22,11.35-2.47,2.42-.9,4.77-2.25,6.99-3.55,6.44-3.9,14.19-8.49,21.83-5.23,3.57,1.58,6.94,3.75,10.48,5.42"/><path class="b" d="M8.24,210.77c1.98-.46,4.09-.87,6.11-1.12,2.33-.22,4.78-.41,6.99-1.28,4.16-1.5,8.07-3.74,12.23-5.25,7.86-3.06,15.43-2.07,22.7,1.99,6.4,3.45,12.79,7.01,19.21,10.42,9,.22,18.06,0,27.07.08,10.47,0,20.96,0,31.44,0,3.01-.44,5.96-1.79,8.73-3,3.14-1.52,5.91-3.85,8.73-5.86,13.65-10.37,20.15-3.43,32.31,4.26"/><path class="b" d="M8.24,203.44c1.99-.25,4.11-.33,6.11-.24,2,.12,4.12.41,6.11,0,4.92-.94,9.35-3.54,13.97-5.35,10.07-4.19,15.5-2.14,24.45,3.06,6.24,3.61,12.8,6.69,19.21,9.97,9.6,0,19.22,0,28.82,0,8.43,0,16.89,0,25.32,0,2.2.28,4.19-1.08,6.11-1.98,4.98-2.38,8.94-6.35,13.1-9.87,4.21-3.58,9.46-5.9,14.84-3.37,6.47,3.1,11.78,8.17,17.46,12.45"/><path class="b" d="M8.24,197.24c2.92-.09,5.89.36,8.73.99,5.55,1,10.81-1.85,15.72-4.05,14.87-7.32,17.83-2.05,31.44,3.4,6.22,2.54,12.96,4.22,18.34,8.44,9.29.27,18.64.01,27.94.1,4.35,0,8.75,0,13.1,0,2.29-.09,4.73.21,6.99-.17,4.37-1.68,8.53-4.06,12.23-6.93,2.78-2.16,5.22-4.9,7.86-7.22,6.36-5.81,11.72-5.97,18.34-.36,2.57,2.19,5.26,4.43,7.86,6.58,2.3,2.03,4.61,4.28,6.99,6.23"/><path class="b" d="M8.24,192.41c2.02.07,4.14.39,6.11.8,1.69.36,3.49.9,5.24.87,9.39-.24,16.75-8.32,26.2-8.31,3.32.13,6.5,1.51,9.61,2.59,3.7,1.38,7.52,2.64,11.35,3.58,4.14,1.05,8.49,1.9,12.22,4.06,1.77,1.06,3.57,2.4,5.24,3.61.76.55,1.77,1.35,2.62,1.76.44,0,1.31,0,1.75,0,7.27,0,14.56,0,21.83,0,3.18,0,6.43,0,9.61,0,2.9-.63,5.87-1.36,8.73-2.16,8.9-2.48,14.42-6.67,20.96-12.94,7.64-6.88,13.03-5.41,20.08,1.31,2.2,2.12,4.65,4.17,6.99,6.13,2.27,2,4.58,4.16,6.99,5.99"/><path class="b" d="M8.24,188.85c4.13.18,8.1,1.89,12.22,1.93,9.19-.11,16.42-7.22,25.32-8.47,3.21-.29,6.46.55,9.61,1.09,4.04.81,8.16,1.49,12.23,2.13,5.46.77,10.39,2.25,14.84,5.62,1.98,1.34,4.07,2.79,6.11,4.03.76.46,1.81,1.08,2.62,1.46.44,0,1.31,0,1.75,0,4.64,0,9.33,0,13.97,0,1.4-.06,3,.16,4.37-.18.42-.25,1.31-.7,1.75-.91,2.46-1.17,5.19-1.94,7.86-2.47,9.21-1.58,17.81-2.68,25.32-8.87,6.88-5.59,12.64-9.61,20.96-3.62,2.96,2.09,5.75,4.58,8.73,6.64,2.59,1.96,5.15,4.17,7.86,5.97"/><path class="b" d="M8.24,185.47c5.57.34,10.96,2.73,16.59,2.15,5-.4,9.61-2.69,13.97-5,2.78-1.44,5.65-3.01,8.73-3.67,5.76-.91,11.7-.59,17.46.1,4.17.54,8.38,1.47,12.23,3.21,8.02,4.05,15.8,10.48,25.32,9.6,2.38-.21,4.81-.91,6.99-1.9,2.26-1.11,4.56-2.39,6.99-3.12,5.94-1.92,12.27-2.16,18.34-3.5,2.97-.64,5.97-1.57,8.73-2.84,2.35-1.11,4.66-2.54,6.99-3.69,6.41-3.38,12.11-2.97,18.34.62,2.58,1.48,5.29,2.94,7.86,4.43,2.31,1.44,4.64,3.09,6.99,4.48"/><path class="b" d="M8.24,181.42c5.96-.13,11.59,2.27,17.46,2.81,13.98.69,18.02-12.8,34.93-11.45,13.01.89,23,11.16,35.8,12.82,10.45,1.4,13.8-2.69,22.7-5.6,6.25-2.04,12.79-3.06,19.21-4.38,4.68-.87,9.26-2.44,13.97-3.17,6.23-1.07,12.52.45,18.34,2.63,1.98.74,4.16,1.3,6.11,2.13,2.36,1.04,4.7,2.41,6.99,3.61"/><path class="b" d="M8.24,176.34c3.47-.42,7.12-.2,10.48.82,3.14,1,6.28,2.44,9.61,2.71,12.22.92,17.98-14.59,30.56-13.29,6.95.65,12.54,5.36,18.34,8.79,4.79,2.86,10.22,4.65,15.72,5.5,7.91,1.24,14.77.14,21.83-3.65,9.86-4.67,20.29-9.51,31.44-9.31,4.75.19,9.43,1.47,13.97,2.79,3.73,1.08,7.53,2.24,11.35,2.96,1.69.35,3.57.44,5.24.89,2.39.66,4.74,1.76,6.99,2.79"/><path class="b" d="M8.24,170.41c3.38-.91,7.12-1.14,10.48-.05,7.06,2.74,11.99,5.97,19.21,1.19,6.79-4.34,12.57-14.06,21.83-11.16,3.98,1.22,7.33,3.96,10.48,6.59,2.8,2.34,5.56,4.95,8.73,6.8,4.54,2.45,9.74,3.51,14.84,3.89,9.52.35,15.3-.46,23.58-5.52,9.81-5.66,21.6-14.99,33.18-8.64,5.83,2.88,11.19,6.89,17.46,8.79,2.79.97,5.83.92,8.73,1.21,2.37.39,4.75,1.26,6.99,2.12"/><path class="b" d="M8.24,164.15c3-1.19,6.41-1.78,9.61-1.09,4.62,1.18,9.02,4.21,13.97,3.49,12.35-1.89,17.26-21.08,31.44-10.93,8.55,6.16,12.44,14.58,23.58,17.03,1.36.43,2.96.26,4.37.29,2,0,4.11,0,6.11,0,3.17-.09,6.45.2,9.61-.14,10-2.58,17.07-10.91,26.2-15.3,3.98-1.9,8.78-3.4,13.1-1.81,8.77,3.74,14.52,12.49,23.58,15.76,2.2.88,4.67.82,6.99,1.02.77.1,1.86.3,2.62.47,1.39,0,2.97,0,4.37,0"/><path class="b" d="M8.24,157.91c2.92-1.49,6.34-2.34,9.61-1.7,4.86,1.11,9.73,3.97,14.84,2.56,12.88-3.76,17.2-21.99,32.31-8.76,6.09,5.26,10.65,12.62,18.34,15.76,1.94.91,4.06,1.75,6.11,2.35,2.87.19,5.85.03,8.73.08,2.88-.09,5.88.2,8.73-.14,10.74-3.38,17.55-13.58,27.94-17.67,3.84-1.46,8.44-2.29,12.22-.27,8.26,4.59,13.52,13.22,21.83,17.75.34.22,1.33.42,1.75.33,1.09,0,2.41,0,3.49,0,3.18,0,6.43,0,9.61,0"/><path class="b" d="M8.24,152.13c2.9-1.55,6.33-2.38,9.61-1.78,4.86,1.03,9.8,3.53,14.84,2.05,13.34-4.09,17.79-22.08,34.06-7.52,3.6,3.23,6.79,7.04,10.48,10.18,2.1,1.76,4.66,3.05,6.99,4.48,2.49,1.46,5.13,2.87,7.86,3.83,2.28.2,4.69.04,6.99.09,1.4,0,2.97,0,4.37,0,1.12.02,2.47.07,3.49-.47,10.15-3.96,16.56-14.18,27.07-17.47,4.2-1.19,9.06-1.67,13.1.28,5.71,2.96,10.04,7.97,14.84,12.13,2.42,2,4.89,4.41,7.86,5.54,4.64,0,9.33,0,13.97,0"/><path class="b" d="M8.24,146.96c2.99-1.29,6.4-1.75,9.61-1.16,4.86,1.06,9.78,3.47,14.84,2.2,5.42-1.25,9.57-5.28,13.97-8.42,6.29-4.59,12.58-5.64,19.21-1.04,3.77,2.5,7,5.81,10.48,8.68,2.41,2.04,5.35,3.49,7.86,5.4,3.03,2.16,6.13,4.46,9.61,5.87,1.36.41,2.97.15,4.37.22,2.29-.03,4.7.08,6.99-.06,9.76-3.56,15.94-13.5,26.2-16,3.71-.91,7.61-.46,11.35.02,9.9,1.31,17.99,11.4,27.07,15.53,1.55.86,3.54.41,5.24.52,2.88,0,5.85,0,8.73,0"/><path class="b" d="M8.24,142.13c3.42-.72,7.09-.57,10.48.29,3.19.91,6.31,2.37,9.61,2.89,6.54,1.26,12.32-2.71,17.46-6.2,5.17-3.19,11.15-6.77,17.46-5.4,6.68,1.47,11.56,6.75,17.46,9.83,5.07,3.19,9.17,8.03,14.84,10.24,2.79.44,5.89.07,8.73.19,6.27-2.08,11.04-7.02,16.59-10.38,6.1-3.85,11.63-3.67,18.34-1.64,4.1,1.03,8.28,1.52,12.22,3.18,7.09,2.66,13.7,6.62,20.96,8.84,3.76,0,7.59,0,11.35,0"/><path class="b" d="M8.24,137.02c3.52.18,7.11.83,10.48,1.85,2.36.86,4.67,2.1,6.99,3.06,4.09,1.84,8.86,2.38,13.1.71,3.05-1.1,5.88-2.9,8.73-4.42,3.49-1.72,6.82-3.94,10.48-5.29,8.35-3.26,14.59,1.22,21.83,4.69,4.54,2.18,8,6.13,12.22,8.82,2.33,1.47,5.03,2.91,7.86,2.79,2.73.24,5.45-.51,7.86-1.78,12.41-6.68,15.82-12.5,30.56-5.59,3.01,1.39,6.39,1.83,9.61,2.5,4.08.84,8.19,1.81,12.22,2.86,2.6.62,5.24,1.5,7.86,2,5.22,0,10.49,0,15.72,0"/><path class="b" d="M8.24,131.62c2.04.5,4.13,1.22,6.11,1.89,2.06.64,4.25,1.29,6.11,2.41,8.27,4.96,13.78,8.97,23.58,4.69,3.26-1.35,6.6-2.76,9.61-4.63,5.88-3.62,12.15-6.55,19.21-4.94,3.22.77,6.6,1.53,9.61,2.93,10.14,5.86,15.35,12.42,27.94,7.07,12.95-5.66,16.13-5.46,28.82.68,2.18,1,4.64,1.5,6.99,1.9,1.99.3,4.1.8,6.11.88,10.47,0,20.96,0,31.44,0"/><path class="b" d="M8.24,126.98c2.03.84,4.11,1.88,6.11,2.79,1.72.77,3.64,1.44,5.24,2.45,3.53,2.15,6.8,4.87,10.48,6.8,1.8,1.17,4.09.61,6.11.73,3.18,0,6.43,0,9.61,0,4.23.43,7.87-2.33,11.35-4.35,5.83-3.7,12.11-7.48,19.21-7.71,5.63-.56,10.74,2,15.72,4.24,4.66,2.09,9.69,3.66,14.84,3.64,3.19.04,6.43-.49,9.61-.68,6-.5,11.99.97,17.46,3.35,1.09.45,2.4,1,3.49,1.45,2.58.13,5.27.02,7.86.06,12.8,0,25.62,0,38.42,0"/><path class="b" d="M8.24,123.19c3.48,1.81,7,3.72,10.48,5.53,3.25,1.94,6.33,4.32,9.61,6.22,8.72.18,17.47,0,26.2.06.79,0,1.84,0,2.62,0,1.88-.69,3.56-2.14,5.24-3.21,6.8-4.77,13.91-10.39,22.7-9.77,7.32.21,14.16,3.22,20.96,5.64,4.55,1.64,9.37,2.57,13.97,4.05,3.5.99,6.96,2.4,10.48,3.29,5.52,0,11.08,0,16.59,0,12.22,0,24.46,0,36.67,0"/><path class="b" d="M8.24,120.15c3.85,1.86,7.6,4.08,11.35,6.14,2.55,1.34,5.06,3.23,7.86,3.98,7.27,0,14.56,0,21.83,0,2.59,0,5.27,0,7.86,0,1.4-.1,3.07.3,4.37-.35,5.5-3.44,10.11-8.22,15.72-11.51,1.61-.93,3.51-1.57,5.24-2.2,2.51-.91,5.18-1.72,7.86-1.93,6.83-.66,12.86,3.25,18.34,6.81,4.6,2.76,9.2,5.65,13.97,8.1.75.37,1.79.91,2.62,1.07,2,0,4.12,0,6.11,0,4.35,0,8.75,0,13.1,0,13.09,0,26.2,0,39.29,0"/><path class="b" d="M8.24,117.51c4.56,1.65,8.63,4.49,13.1,6.35,1.65.68,3.49,1.29,5.24,1.67,1.7,0,3.54,0,5.24,0,4.35,0,8.75,0,13.1,0,4.93,0,9.91,0,14.84,0,3.32-.23,8.64-4.72,11.35-6.8,2.25-1.8,4.56-3.75,6.99-5.3,1.66-1.01,3.57-1.92,5.24-2.93,6.02-3.7,11.82-5.76,18.34-1.75,3.15,1.85,5.93,4.41,8.73,6.72,4.31,3.38,8.35,7.28,13.1,10.06h60.25"/><path class="b" d="M8.24,114.75c3.34.91,6.48,2.54,9.61,3.99,6.63,3.06,13.41,1.63,20.08-.39,3.09-.84,6.41-1.64,9.61-.99,8.41,2.56,14.18,2.79,21.83-2.05,2.66-1.63,5.25-3.58,7.86-5.29,1.65-1.09,3.58-2.02,5.24-3.1,3.98-2.54,8.16-5.71,13.1-5.61,5.61.21,9.97,4.4,13.97,7.89,2.62,2.26,5.29,4.65,7.86,6.97,1.92,1.59,3.86,3.52,6.11,4.62,20.08,0,40.17,0,60.25,0"/><path class="b" d="M8.24,111.67c3.25.75,6.41,2.04,9.61,2.99,6.96,1.93,13.77-1.41,20.08-4,3.84-1.61,8.18-2.67,12.22-1.19,10.5,3.43,16.1,4.2,26.2-1.12,2.64-1.33,5.39-2.69,7.86-4.33,4.15-2.66,8.83-5.56,13.97-4.91,9.12,1.27,18.62,12.52,27.07,16.89,19.49.16,39.01,0,58.5.06"/><path class="b" d="M8.24,108.4c3.15.69,6.37,1.56,9.61,1.74,7.55.22,14.14-4.11,20.96-6.72,4.13-1.7,8.81-2.42,13.1-.86,8.33,2.9,15.39,6.92,24.45,3.82,12.45-4.53,17.72-12.66,32.31-6.15,7.75,3.28,14.57,8.62,22.7,11.04,17.46.07,34.93,0,52.39.03"/><path class="b" d="M8.24,105c7.37,1.94,13.3-.12,20.08-2.84,6.68-2.64,13.65-5.45,20.96-5.24,7.63.71,14.15,5.85,21.83,6.4,5.61.7,10.6-2.33,15.72-4.08,7.23-2.69,15.1-3.44,22.7-2.2,9.81,1.24,18.45,6.63,27.94,9.06,2.22.74,4.68.38,6.99.46,3.18,0,6.43,0,9.61,0,9.89,0,19.8,0,29.69,0"/><path class="b" d="M8.24,101.52c1.39.37,2.95.3,4.37.3,1.11,0,2.42.07,3.49-.26,4.39-1.32,8.67-3.15,13.1-4.34,4.82-1.38,9.86-1.92,14.84-2.34,2.01-.14,4.1-.56,6.11-.68,2.93-.11,5.9.49,8.73,1.2,5.67,1.43,11.56,3.34,17.46,2.31,2.94-.53,5.74-1.95,8.73-2.3,5.18-.8,10.5-.61,15.72-.93,2.89-.16,5.86-.43,8.73-.8,3.45-.57,7.06-.64,10.48.17,7.04,1.51,13.22,5.58,20.08,7.61,1.94.62,4.11.3,6.11.37,3.18,0,6.43,0,9.61,0,9.31,0,18.64,0,27.94,0"/><path class="b" d="M8.24,97.08c3.18,0,6.43,0,9.61,0,3.95-1.42,8.01-2.82,12.22-3.22,4.92-.59,9.92.15,14.84-.19,2.64-.2,5.23-1.17,7.86-1.42,3.45-.42,7.01-.38,10.48-.36,4.07.03,8.22,0,12.22-.79,3.2-.58,6.28-2.21,9.61-1.91,4.41.21,8.71,1.59,13.1,2,13.79,1.47,15.57-7.26,30.56.59,3.2,1.65,6.32,3.65,9.61,5.13,1.67.34,3.54.09,5.24.16,2.88,0,5.85,0,8.73,0,10.47,0,20.96,0,31.44,0"/><path class="b" d="M8.24,92.34c4.93,0,9.91,0,14.84,0,2.3-.2,4.66-.73,6.99-.7,4.94-.16,9.91.97,14.84.54,1.76-.14,3.57-.76,5.24-1.3,2.28-.71,4.68-1.37,6.99-1.97,6.99-1.8,14.1-3.32,20.96-5.59,3.86-1.67,7.45-1.32,11.35,0,4.28,1.37,8.56,3.2,13.1,3.43,3.63.3,7.17-.89,10.48-2.24,8.46-2.74,16,3.57,22.7,7.84h48.03"/><path class="b" d="M8.24,87.6c15.42,0,30.86,0,46.28,0,2.44-.69,4.7-2.25,6.99-3.33,4.3-2.26,8.64-4.6,13.1-6.53,2.78-1.11,5.67-2.55,8.73-2.55,10.06.45,18.02,8.71,28.82,4.59,6.9-2.16,13.7,1.71,19.21,5.54,1.09.72,2.32,1.7,3.49,2.27,2.29,0,4.69,0,6.99,0,13.97,0,27.95,0,41.91,0"/><path class="b" d="M8.24,82.85c11.05,0,22.13,0,33.18,0,3.76,0,7.59,0,11.35,0,1.4,0,2.96,0,4.37,0,.8,0,1.86.07,2.62-.25,8.62-5.68,17.72-13.97,28.82-12.11,6.23.89,12.06,3.76,18.34,4.42,2.31.31,4.69-.2,6.99-.34,3.9-.16,7.82.9,11.35,2.49,3.34,1.5,6.53,3.47,9.61,5.44.37.24,1.3.44,1.75.36,1.09,0,2.4,0,3.49,0,3.18,0,6.43,0,9.61,0,11.34,0,22.71,0,34.06,0"/><path class="b" d="M8.24,78.11c17.75,0,35.51,0,53.27,0,1.32.22,2.48-.73,3.49-1.43,1.09-.72,2.38-1.57,3.49-2.25,3.53-2.18,7.31-4.21,11.35-5.24,6.93-1.96,13.85-2.84,20.96-1.22,3.47.67,6.95,1.69,10.48,1.97,8.17.48,16.3,2.55,23.58,6.35,1.1.55,2.35,1.36,3.49,1.82,2.29,0,4.69,0,6.99,0,12.8,0,25.62,0,38.42,0"/><path class="b" d="M8.24,73.37c15.42,0,30.86,0,46.28,0,3.18,0,6.43,0,9.61,0,1.7-.09,3.59.22,5.24-.21,3.91-1.74,8.09-2.88,12.23-3.93,3.26-1.09,6.38-2.77,9.61-3.96,10.02-3.91,15.76-.07,25.32,1.52,5.51.89,11.2.98,16.59,2.54,2.1.61,4.24,1.52,6.11,2.65.43.27,1.33.85,1.75,1.15.73.32,1.84.25,2.62.25,13.38,0,26.78,0,40.17,0"/><path class="b" d="M8.24,68.63c17.17,0,34.35,0,51.52,0,5.22,0,10.49,0,15.72,0,1.7,0,3.54,0,5.24,0,1.1-.04,2.42.13,3.49-.19,3.79-2.14,7.31-4.91,11.35-6.59,6.17-2.72,11.46-1.16,17.46.97,2.81.8,5.82,1.07,8.73,1.1,6.18.02,12.95-.62,18.34,3.01.77.5,1.74,1.38,2.62,1.69,2.29,0,4.69,0,6.99,0,11.34,0,22.71,0,34.06,0"/><path class="b" d="M8.24,63.89c20.95,0,41.92,0,62.87,0,3.76,0,7.59,0,11.35,0,1.4,0,2.97,0,4.37,0,1.18-.56,2.4-1.53,3.49-2.23,8.33-5.65,13.44-5.77,22.7-2.32,2.81.81,5.82,1.14,8.73,1.23,6.2.17,12.95-.32,18.34,3.32h43.66"/><path class="b" d="M8.24,59.15c17.46,0,34.93,0,52.39,0,8.14,0,16.31,0,24.45,0,1.25-.34,2.41-1.41,3.49-2.07,1.92-1.29,4-2.6,6.11-3.55,5.53-2.66,11.09-1.56,16.59.52,5.61,1.99,11.61,2.52,17.46,3.39,1.41.23,2.99.54,4.37.92,1.09.26,2.34.91,3.49.8,15.71,0,31.44,0,47.15,0"/><path class="b" d="M8.24,54.41c16.59,0,33.19,0,49.77,0,4.93,0,9.91,0,14.84,0,1.7,0,3.54,0,5.24,0,1.1-.04,2.44.16,3.49-.25,3.89-2.02,7.34-4.95,11.35-6.76,6.03-2.94,11.55-1.38,17.46.87,5.14,1.72,10.44,3.06,15.72,4.31,1.4.34,2.98.74,4.37,1.15,1.35.51,2.92.8,4.37.68,16.29,0,32.6,0,48.9,0"/><path class="b" d="M8.24,49.67c15.42,0,30.86,0,46.28,0,6.68-.05,13.41.1,20.08-.06,2.32-.88,4.79-1.71,6.99-2.87,2.96-1.64,5.73-3.77,8.73-5.34,7.52-4.11,12.8-1.71,20.08,1.12,6.06,1.89,12.22,3.61,18.34,5.31,1.1.32,2.41.73,3.49,1.1.76.26,1.79.75,2.62.73,16.29,0,32.6,0,48.9,0"/><path class="b" d="M8.24,44.93c14.55,0,29.11,0,43.66,0,6.1-.02,12.24.05,18.34-.03,3.53-1.15,7.14-2.34,10.48-3.99,2.7-1.44,5.22-3.37,7.86-4.9,8-4.84,13.07-2.66,20.96.68,7.4,2.44,15.15,3.66,22.7,5.49,1.74.47,3.6,1.09,5.24,1.85.43.21,1.33.66,1.75.89.42,0,1.33,0,1.75,0,14.26,0,28.53,0,42.79,0"/><path class="b" d="M8.24,40.18c19.5,0,39.01,0,58.51,0,5.08-.2,10.37-1.23,14.84-3.73,4.03-2.39,7.7-5.63,12.22-7.07,6.21-2.15,11.69,1.29,17.46,3.02,3.7.92,7.54,1.52,11.35,1.73,8.47.44,15.1-.24,21.83,6,13.09.15,26.2,0,39.29.05"/><path class="b" d="M8.24,35.44c13.97,0,27.95,0,41.91,0,1.47.17,2.95-.45,4.37-.72,2.27-.41,4.69-.39,6.99-.2,9.22.95,15.57,2.61,23.58-3.46,3.01-2.05,6.1-4.25,9.61-5.36,6.83-2.35,12.63,1.81,19.21,2.61,7.06,1.04,13.94-1.84,20.96-1.8,2.44.07,4.95.8,6.99,2.16,2.57,1.94,5.18,4.01,7.86,5.8,1.39,1.35,3.48.89,5.24.96,2.29,0,4.69,0,6.99,0,7.27,0,14.56,0,21.83,0"/><path class="b" d="M8.24,30.7c8.14,0,16.31,0,24.45,0,2.88,0,5.85,0,8.73,0,1.7-.09,3.59.23,5.24-.22,5.36-3.3,10.83-2.46,16.59-.9,1.4.35,2.96.76,4.37,1.07,1.4.09,2.97.03,4.37.05,1.7,0,3.54,0,5.24,0,1.49.15,3.06-.23,4.37-.96,10.47-5.99,14.03-10.93,27.07-6.95,11.84,3.57,18.8-4.43,28.82-3.94,3.05.24,5.62,2.19,7.86,4.11,2.98,2.45,5.87,5.16,8.73,7.74h29.69"/><path class="b" d="M8.24,25.96c12.22-.07,24.47.15,36.67-.08,5.51-2.09,8.17-2.47,13.97-1.05,1.41.34,2.97.76,4.37,1.13,1.4,0,2.96,0,4.37,0,3.18,0,6.43,0,9.61,0,2.01-.13,4.33.46,6.11-.7,6.7-3.85,12.72-8.57,20.96-7.35,3.48.38,6.95,1.57,10.48,1.35,9.28-.16,19.38-9.86,27.94-4.28,2.87,1.96,5.42,4.53,7.86,6.98,1.41,1.25,2.66,3.16,4.37,4,9.6,0,19.22,0,28.82,0"/><path class="b" d="M8.24,21.22c25.03,0,50.07,0,75.1,0,.44.02,1.31-.02,1.75-.09.44-.24,1.31-.74,1.75-.99,1.39-.81,2.94-1.72,4.37-2.47,4.49-2.52,9.7-3.8,14.84-3.13,3.17.32,6.41,1.05,9.61.69,8.62-.53,17.82-7.74,26.2-3.91,3.32,1.7,6.03,4.51,8.73,7.03,1.07.92,2.15,2.36,3.49,2.88,9.89,0,19.8,0,29.69,0"/></svg>