<?xml version="1.0" encoding="UTF-8"?><svg id="a" xmlns="http://www.w3.org/2000/svg" width="1920" height="2400" viewBox="0 0 192 240"><defs><style>.b{fill:none;stroke:#fff;stroke-miterlimit:10;stroke-width:.4px;}.c{stroke-width:0px;}</style></defs><rect class="c" x="0" width="192" height="240"/><path class="b" d="M8.47,223.2c2.62-.24,5.24-1.01,7.84-1.4,5.4-.87,10.98.25,15.68,3.04.74.55,1.75.45,2.61.44,1.4,0,2.96,0,4.35,0,4.05,0,8.15,0,12.19,0,12.77,0,25.55,0,38.32,0,1.42.02,3,.07,4.35-.42,1.67-.39,3.52-.54,5.23-.4,1.42.11,2.99.43,4.35.82,4.04,0,8.15,0,12.19,0,3.17,0,6.41,0,9.58,0,2.3-.49,4.6-1.46,6.97-1.67,2.29-.28,4.74-.12,6.97.5,1.42.31,2.87,1.3,4.35,1.17,13.35,0,26.71,0,40.06,0"/><path class="b" d="M8.47,218.03c2.92-.48,5.78-1.56,8.71-2,5.2-.96,10.68-1.08,15.68.87,1.74.63,3.56,1.46,5.23,2.26,1.36.62,2.79,1.6,4.35,1.4,12.19,0,24.39,0,36.58,0,15.68-.05,31.35,0,47.03,0,1.39-.05,2.98.15,4.35-.16,2.52-.67,5.23-1.02,7.84-.78,1.42.13,3,.46,4.35.9,1.39.08,2.96.03,4.35.04,5.5,0,11.05,0,16.55,0,3.75,0,7.57,0,11.32,0,1.69,0,3.53,0,5.23,0,1.1-.39,2.39-.98,3.48-1.39"/><path class="b" d="M8.47,211.7c2.32-.53,4.66-1.38,6.97-1.97,2.87-.59,5.81-1.23,8.71-1.63,4.39-.63,8.91.04,13.06,1.56,2.89,1,5.75,2.33,8.71,3.12,1.98.49,4.18.5,6.1,1.29,1.45.46,2.89,1.4,4.35,1.77,2.29,0,4.68,0,6.97,0,5.5,0,11.05,0,16.55,0,4.04,0,8.15,0,12.19,0,1.95-.5,4.07-.84,6.1-.78,2.03-.05,4.1.63,6.1.78,4.92,0,9.89,0,14.81,0,5.21-.02,10.47.04,15.68-.03,1.68-.32,3.52-.57,5.23-.66,2.91-.29,5.84.43,8.71.69,4.92,0,9.89,0,14.81,0,2.94-.3,5.78-1.63,8.71-2.07,1.38-.26,2.98-.23,4.35-.56,2.32-.53,4.65-1.44,6.97-1.97"/><path class="b" d="M8.47,205.35c3.46-.93,6.91-2.12,10.45-2.74,2.85-.67,5.78-1.44,8.71-1.67,4.79-.45,9.52.93,13.93,2.65,1.96.73,4.04,1.52,6.1,1.95,2.43.33,4.81,1.29,6.97,2.41,2.03.95,3.98,2.4,6.1,3.14,1.4,0,2.96,0,4.35,0,5.21,0,10.47,0,15.68,0,2.29,0,4.68,0,6.97,0,1.12-.32,2.38-.89,3.48-1.24,7.54-2.72,13.61-1.11,20.9,1.25,7.25,0,14.53,0,21.77,0,1.74.06,3.61.04,5.23-.69,2.53-.85,5.17-1.76,7.84-2.06,3.73-.46,7.57-.4,11.32-.6,3.47-.16,7-.54,10.45-.97,2.57-.39,5.28-.41,7.84-.86,2.3-.49,4.64-1.28,6.97-1.65"/><path class="b" d="M8.47,199.9c3.76-.9,7.54-1.92,11.32-2.71,3.96-1.05,8.07-2.1,12.19-1.74,4.57.33,8.83,2.28,13.06,3.88,2.24.87,4.75,1.25,6.97,2.19,3.49,1.4,6.89,3.2,10.45,4.44,1.33.58,2.94.39,4.35.42,1.7,0,3.53,0,5.23,0,1.7,0,3.53,0,5.23,0,1.42.02,3.01.09,4.35-.45,7.53-2.61,14.42-5.98,22.64-4.31,4.85.85,9.47,2.74,13.93,4.76,2.29,0,4.68,0,6.97,0,4.04-.02,8.15.04,12.19-.02,2.06-1.06,4.12-2.38,6.1-3.57,3.91-2.31,8.55-3.24,13.06-3.15,6.38.03,12.78,1.75,19.16.92,2.63-.48,5.22-1.5,7.84-2.02"/><path class="b" d="M8.47,196.05c5.89-.84,11.66-2.52,17.42-3.95,6.86-1.65,12.92.51,19.16,3.17,4,1.43,8.13,2.69,12.19,3.93,4.22,1.2,8.73,1.55,13.06.79,6.48-1.2,12.77-3.35,19.16-4.93,8.12-2.09,15.98-.11,23.51,3.08,1.44.69,2.98,1.61,4.35,2.43.73.42,1.71,1.2,2.61,1.07,5.79,0,11.63,0,17.42,0,2.48-1.46,4.65-3.58,6.97-5.26,4.46-3.36,10.35-4.12,15.68-2.71,5.41,1.17,10.92,4.09,16.55,2.61,2.34-.64,4.66-1.7,6.97-2.43"/><path class="b" d="M8.47,194.11c3.81-.23,7.67-.99,11.32-2.09,3.98-1.34,7.96-3.05,12.19-3.38,6.41-.64,12.28,2.5,18.29,4.15,15.07,4.7,19.71-1.18,33.09-4.53,7.65-2.03,14.77-.55,21.77,2.83,3.77,1.81,7.81,3.24,11.32,5.55,1.33.51,2.96.19,4.35.27,2.29,0,4.68,0,6.97,0,3.45-.11,7.03.24,10.45-.16,2.89-2.14,5.46-4.9,8.71-6.51,3.73-1.95,8.19-2.04,12.19-.93,5.45,1.28,10.79,4.71,16.55,3.6,2.73-.67,5.28-2.15,7.84-3.26"/><path class="b" d="M8.47,191.75c10.92,1.28,16.33-4.48,26.13-5.89,7.15-1.06,13.92,2.15,20.9,2.99,6.4.89,12.69-1.33,18.29-4.26,3.61-1.8,7.29-3.82,11.32-4.45,10.86-1.82,18.69,7.58,27.87,11.52.96.71,2.37.48,3.48.51,1.39,0,2.96,0,4.35,0,3.75,0,7.57,0,11.32,0,1.98-.12,4.18.3,6.1-.25,2.54-1.7,5-3.77,7.84-4.97,3.82-1.66,8.19-1.58,12.19-.67,5.73,1.16,11.47,4.03,17.42,2.91,2.71-.65,5.27-2.06,7.84-3.11"/><path class="b" d="M8.47,187.46c5.21-.09,10.48.18,15.68-.11,3.72-1.34,7.46-2.87,11.32-3.77,3.97-.96,8.15-1.16,12.19-.59,8.87,1.59,15.23,2.26,23.51-2.15,3.88-1.92,7.4-4.65,11.32-6.47,7.89-3.67,14.99,1.31,20.9,6.25,3.21,2.62,6.52,5.38,10.45,6.84,3.46,0,6.99,0,10.45,0,2.58,0,5.26,0,7.84,0,1.69-.12,3.62.31,5.23-.3,2.26-1.04,4.58-2.26,6.97-2.97,3.97-1.11,8.21-.57,12.19.17,6.28,1.19,12.75,2.78,19.16,1.66,2.65-.57,5.24-1.7,7.84-2.46"/><path class="b" d="M8.47,182.73c7.54,0,15.11,0,22.64,0,1.47.14,2.98-.26,4.35-.75,1.68-.51,3.51-1.03,5.23-1.41,3.4-.8,6.98-1.03,10.45-.59,14.16,2.08,19.71-1.43,30.48-9.89,6.28-4.57,12.26-3.84,18.29.71,7.08,5.38,10.66,9.96,20.03,11.88,2.58.14,5.26.02,7.84.06,2-.02,4.13.13,6.1-.3,4.29-.68,8.72-1.84,13.06-.99,1.72.31,3.54.79,5.23,1.25,4.33.13,8.73.01,13.06.05,3.46,0,6.99,0,10.45,0,1.39,0,2.96,0,4.35,0,1.1-.14,2.39-.51,3.48-.69"/><path class="b" d="M8.47,178c11.31,0,22.65,0,33.97,0,1.43.11,2.95-.22,4.35-.46,1.39-.2,2.95-.23,4.35-.16,5.2.33,10.61,1.15,15.68-.55,3.89-1.23,7.39-3.62,10.45-6.28,4.56-4.02,9.09-9.59,15.68-9.69,7.74.2,12.7,7.27,19.16,10.53,6.72,3.46,14.42,3.9,21.77,4.95,2.9.41,5.87.95,8.71,1.66,4.04,0,8.15,0,12.19,0,9.57,0,19.17,0,28.74,0"/><path class="b" d="M8.47,173.27c13.35,0,26.71,0,40.06,0,4.63,0,9.31,0,13.93,0,1.4,0,2.96,0,4.35,0,1.13.01,2.51.11,3.48-.59,9.12-4.47,14.97-18.09,25.26-18.22,5.75.17,10.16,4.46,14.81,7.32,4.56,2.78,9.79,4.23,14.81,5.94,3.22,1.08,6.47,2.32,9.58,3.7,1.4.57,2.89,1.46,4.35,1.86,1.09,0,2.4,0,3.48,0,13.64,0,27.29,0,40.93,0"/><path class="b" d="M8.47,168.54c13.64,0,27.29,0,40.93,0,4.92,0,9.89,0,14.81,0,1.4,0,2.96,0,4.35,0,1.17.03,2.59.12,3.48-.78,8.17-5.3,14.81-19.03,25.26-18.58,5.62.42,9.97,4.52,14.81,6.96,5.71,2.86,11.81,5.01,17.42,8.09,1.41.75,2.98,1.64,4.35,2.45,1.08.59,2.28,1.53,3.48,1.86,4.92,0,9.89,0,14.81,0,10.44,0,20.91,0,31.35,0"/><path class="b" d="M8.47,163.81c21.77-.03,43.55.06,65.32-.03,9.87-7.72,17.73-22.14,32.22-15.43,4.84,2.27,9.86,4.23,14.81,6.23,4.59,1.95,8.96,4.51,13.06,7.33.78.53,1.84,1.26,2.61,1.8,1.98.22,4.11.05,6.1.1,4.34,0,8.73,0,13.06,0,9.28,0,18.59,0,27.87,0"/><path class="b" d="M8.47,159.08h67.93c7.41-5.52,14.53-13.3,24.39-13.62,4.47-.2,8.79,1.28,13.06,2.38,8.51,1.8,14.89,5.05,21.77,10.28.38.34,1.24.85,1.74.96.43,0,1.31,0,1.74,0,1.4,0,2.96,0,4.35,0,4.63,0,9.31,0,13.93,0,8.7,0,17.43,0,26.13,0"/><path class="b" d="M8.47,154.36c18.28,0,36.58,0,54.87,0,3.75,0,7.57,0,11.32,0,4.85.08,3.75.17,7.84-2.24,10.24-6.05,19.43-8.69,31.35-7.15,9.98.26,15.71,3.53,23.51,9.37,15.38.08,30.78,0,46.16.03"/><path class="b" d="M8.47,149.63c22.93,0,45.87,0,68.8,0,1.1-.03,2.41.11,3.48-.16,2.23-.89,4.64-1.6,6.97-2.19,5.45-1.33,11.02-2.37,16.55-3.33,3.14-.57,6.4-.84,9.58-1.14,4.34-.57,8.9-.77,13.06.79,2.43.86,4.8,2.18,6.97,3.56,1.39.73,2.79,2.28,4.35,2.47,3.46,0,6.99,0,10.45,0,11.61,0,23.23,0,34.84,0"/><path class="b" d="M8.47,144.9c19.16,0,38.32,0,57.48,0,4.92,0,9.89,0,14.81,0,2.26-.46,4.66-.76,6.97-.84,4.05-.16,8.16-.17,12.19-.65,4.97-.59,9.93-1.66,14.81-2.82,5.16-1.46,10.75-1.65,15.68.74,1.44.64,3,1.49,4.35,2.29.74.43,1.73,1.16,2.61,1.28,4.92,0,9.89,0,14.81,0,10.44,0,20.91,0,31.35,0"/><path class="b" d="M8.47,140.17c23.51,0,47.03,0,70.54,0,10.73,0,21.49,0,32.22,0,4-1.05,8.01-2.58,12.19-2.6,2.64-.04,5.36.51,7.84,1.41.78.28,1.85.71,2.61,1.04,1.07.25,2.39.12,3.48.15,15.38,0,30.78,0,46.16,0"/><path class="b" d="M8.47,135.44h175.05"/><path class="b" d="M8.47,130.71h175.05"/><path class="b" d="M8.47,125.98c58.35,0,116.71-.02,175.05,0"/><path class="b" d="M8.47,121.26c29.9,0,59.8,0,89.7,0,13.06,0,26.13,0,39.19,0,1.83.1,3.51-1.24,5.23-1.73,2.46-.93,5.22-1.23,7.84-1.04,2.93.21,5.88.94,8.71,1.69,1.68.37,3.48,1.12,5.23,1.08,3.46,0,6.99,0,10.45,0,2.8-.84,5.78-1.39,8.71-1.46"/><path class="b" d="M8.47,116.53c28.16,0,56.32,0,84.48,0,10.15,0,20.33,0,30.48,0,3.75-.07,7.58.14,11.32-.09,3.17-1.21,6.29-2.8,9.58-3.67,8.5-2.2,16.78,2.37,25.26,2.35,2.37.03,4.72-.78,6.97-1.41,2.24-.55,4.66-.83,6.97-.78"/><path class="b" d="M8.47,111.8c28.74,0,57.48,0,86.22,0,1.99,0,4.1,0,6.1,0,2.82-1.07,5.69-2.33,8.71-2.7,5.54-.66,11.02,1.22,16.55,1.35,3.79.18,7.63-.33,11.32-1.14,4.27-1,8.65-1.93,13.06-1.65,6.11.21,12.16,1.73,18.29,1.58,2.64-.01,5.3-.7,7.84-1.36,2.25-.51,4.66-.86,6.97-.96"/><path class="b" d="M8.47,107.07c18.57,0,37.16,0,55.74,0,8.99,0,18.01,0,27,0,3.35-1.9,6.81-3.8,10.45-5.07,5.88-2.23,12.25-1.89,18.29-.51,4.02.81,8.11,1.61,12.19,1.97,5.2.44,10.47.45,15.68.78,6.66.32,13.38.52,20.03-.06,5.26-.41,10.45-1.68,15.68-2.35"/><path class="b" d="M8.47,102.34c17.99,0,36,0,54,0,5.21,0,10.47,0,15.68,0,1.7,0,3.53,0,5.23,0,1.16,0,2.6.17,3.48-.74,3.78-2.65,7.74-5.33,12.19-6.69,3.63-1.15,7.55-1.21,11.32-.94,4.38.23,8.77.92,13.06,1.75,4.95.96,9.93,2.08,14.81,3.38,4.01,1.09,8.01,2.57,12.19,2.82,6.13.54,12.25-.61,18.29-1.5,4.92-.67,9.95-.8,14.81-1.93"/><path class="b" d="M8.47,97.61h74.9c8.71-7.17,13.56-10.89,25.26-7.98,4.86.96,9.9.88,14.81,1.45,4.75.49,9.51,1.57,13.93,3.4,1.43.59,2.99,1.32,4.35,2.03.76.39,1.73,1.06,2.61,1.1,1.7,0,3.53,0,5.23,0,6.96,0,13.95,0,20.9,0,4.35-.09,8.81.4,13.06-.73"/><path class="b" d="M8.47,92.88c20.03,0,40.07,0,60.09,0,3.75,0,7.57,0,11.32,0,2.32.24,2.76-.58,4.35-2,1.88-1.67,3.94-3.38,6.1-4.68,6.95-4.28,12.24-1.66,19.16.72,2.51.75,5.24.85,7.84.83,9.28-.4,16.34-.23,24.39,5.14h41.8"/><path class="b" d="M8.47,88.16h71.41c5.87-4.63,11.81-10.87,20.03-8.6,3.62.89,6.9,2.92,10.45,3.99,6.55,1.66,13.41-.39,20.03.77,2.37.37,4.79,1.11,6.97,2.13,1.4.55,2.77,1.89,4.35,1.71,13.93,0,27.87,0,41.8,0"/><path class="b" d="M8.47,83.43c15.96,0,31.94,0,47.9,0,7.25,0,14.53,0,21.77,0,3.69-2.2,7.25-4.87,11.32-6.37,9.4-3.65,15.49,1.44,24.39,1.96,5.51.3,11.13-.04,16.55,1.16,2.04.43,4.16,1.09,6.1,1.89.78.32,1.86.81,2.61,1.19.75.21,1.84.16,2.61.16,13.93,0,27.87,0,41.8,0"/><path class="b" d="M8.47,78.7h67.93c8.21-4.96,21.03-5.4,30.48-5.53,9.93-.43,17.69.58,27,4.21,1.39.42,2.87,1.42,4.35,1.32,2.88,0,5.83,0,8.71,0,12.19,0,24.39,0,36.58,0"/><path class="b" d="M8.47,73.97c16.25,0,32.52,0,48.77,0,4.92,0,9.89,0,14.81,0,1.23.17,2.36-.98,3.48-1.35,1.88-.86,4.04-1.22,6.1-1.09,11.29.97,14.39,1.15,25.26-2.9,6.18-2.42,11.45-1.63,17.42.94,3.22,1.34,6.39,2.98,9.58,4.39,5.21,0,10.47,0,15.68,0,11.31,0,22.65,0,33.97,0"/><path class="b" d="M8.47,69.24c18.57,0,37.16,0,55.74,0,.79,0,1.85.06,2.61-.22,1.07-.6,2.36-1.27,3.48-1.76,2.43-1.05,5.17-1.73,7.84-1.5,3.66.34,6.96,2.3,10.45,3.29,1.66.39,3.53.11,5.23.19,1.72-.04,3.62.23,5.23-.55,8.11-3.26,12.24-10.03,21.77-5.41,3.64,1.65,6.99,3.99,10.45,5.96,5.21,0,10.47,0,15.68,0,12.19,0,24.39,0,36.58,0"/><path class="b" d="M8.47,64.51c13.93,0,27.87,0,41.8,0,2.58-.02,5.26.04,7.84-.03,1.1-.53,2.39-1.19,3.48-1.73,5.04-2.59,10.87-4.64,16.55-3.06,2.14.51,4.21,1.59,6.1,2.7,1.38.7,2.8,1.87,4.35,2.11,2.58,0,5.26,0,7.84,0,1.09,0,2.39,0,3.48,0,.5.1,1.33-.14,1.74-.43,4.7-2.52,8.96-7.71,14.81-6.54,3.84.75,7.21,3.06,10.45,5.14.77.51,1.84,1.2,2.61,1.69,1.38.26,2.96.09,4.35.14,16.54,0,33.1,0,49.64,0"/><path class="b" d="M8.47,59.78c7.54,0,15.11,0,22.64,0,3.17-.05,6.42.1,9.58-.07,1.62-.74,3.45-1.39,5.23-1.61,1.99-.22,4.11.33,6.1-.08,6.22-1.13,11.9-4.57,18.29-4.97,3.81-.27,7.8.31,11.32,1.81,2.98,1.43,5.71,3.5,8.71,4.89,2.58.1,5.26.02,7.84.04,1.4-.03,2.96.07,4.35-.08.79-.37,1.85-.92,2.61-1.35,2.25-1.25,4.51-2.78,6.97-3.59,5.16-1.56,10.32,1.15,14.81,3.48.77.41,1.84.97,2.61,1.37,1.07.28,2.39.14,3.48.17,2.58,0,5.26,0,7.84,0,14.22,0,28.46,0,42.67,0"/><path class="b" d="M8.47,55.05c10.44-.06,20.92.12,31.35-.07,6.97-5.28,8.2-2.91,15.68-4.88,4.28-1.04,8.64-2.14,13.06-2.32,4.34-.12,8.81.18,13.06,1.06,3.08,1,5.84,2.91,8.71,4.35,1.35.69,2.9,1.36,4.35,1.79,1.39.11,2.96.04,4.35.06,2.01-.07,4.2.29,6.1-.53,2.61-.88,5.17-2.21,7.84-2.94,6.14-1.7,12.48.27,18.29,2.32,1.08.37,2.39.81,3.48,1.15,2.88,0,5.83,0,8.71,0,8.12,0,16.27,0,24.39,0,3.17,0,6.41,0,9.58,0,.76,0,1.85.02,2.61-.07,1.08-.36,2.39-.77,3.48-1.08"/><path class="b" d="M8.47,50.33c11.31-.07,22.66.13,33.97-.07,1.31-.98,2.83-1.98,4.35-2.59,2.23-.74,4.69-1.08,6.97-1.68,3.7-.88,7.52-1.59,11.32-1.83,3.46-.25,6.99-.12,10.45-.18,2.01.04,4.1-.4,6.1-.36,5.87.66,10.78,4.67,16.55,5.79,4.66,1.11,9.49.06,13.93-1.48,3.93-1.29,8.03-2.44,12.19-2.45,8.69-.14,16.61,4.93,25.26,4.86,7.83,0,15.69,0,23.51,0,.76,0,1.85.01,2.61-.04.41-.18,1.33-.54,1.74-.73,1.96-.85,4.05-1.77,6.1-2.39"/><path class="b" d="M8.47,45.6c13.35,0,26.71,0,40.06,0,1.17.12,2.4-.55,3.48-.88,1.96-.67,4.07-1.27,6.1-1.7,4.56-1.01,9.29-1.16,13.93-1.55,2.02-.18,4.14-.49,6.1-1.03,2.22-.78,4.58-1.53,6.97-1.21,5.69.64,10.89,3.54,16.55,4.34,13.15,2.27,19.33-9.1,33.09-4.12,3.23,1.16,6.41,2.67,9.58,3.98,1.43.61,2.85,1.72,4.35,2.15,3.75,0,7.57,0,11.32,0,4.92-.02,9.89.04,14.81-.03,2.86-1.43,5.66-3.23,8.71-4.24"/><path class="b" d="M8.47,40.87c16.83,0,33.68,0,50.51,0,1.99,0,4.1,0,6.1,0,3.78-.64,7.69-1.1,11.32-2.37,1.79-.57,3.51-1.64,5.23-2.37,4.45-1.79,9.4-.94,13.93.07,4.54,1,9.26,2.15,13.93,1.41,3.1-.45,5.94-2.02,8.71-3.39,6.75-3.57,12.38-4.03,19.16-.19,3.58,2.02,7.33,3.96,10.45,6.68,1.66.35,3.53.1,5.23.17,2.58,0,5.26,0,7.84,0,3.17,0,6.41,0,9.58,0,1.08,0,2.4,0,3.48,0,.79,0,1.9.09,2.61-.36,2.2-1.39,4.51-2.89,6.97-3.79"/><path class="b" d="M8.47,36.14c20.9,0,41.81,0,62.7,0,1.4,0,2.96,0,4.35,0,2.83-.31,5.11-2.67,7.84-3.43,2.76-.96,5.8-1.2,8.71-1.04,5.79.29,11.62,1.89,17.42.88,4.7-.77,8.6-3.9,13.06-5.37,5.95-2.23,11.56.1,16.55,3.44,2.64,1.71,5.52,3.26,7.84,5.43,6.94.25,13.95.01,20.9.09,3.46,0,6.99,0,10.45,0,1.72-.84,3.42-2.07,5.23-2.76"/><path class="b" d="M8.47,31.41c22.06,0,44.13,0,66.19,0,.78,0,1.84,0,2.61,0,.81-.31,1.85-.86,2.61-1.27,1.87-1.02,4.01-1.78,6.1-2.16,8.95-1.74,18.19,2.93,27-.09,4.86-1.79,9.47-4.87,14.81-4.94,4.38-.11,8.47,1.91,12.19,4.01,2.38,1.3,4.89,2.61,6.97,4.38,7.53.19,15.11,0,22.64.07,2.88,0,5.83,0,8.71,0,1.74,0,3.63.21,5.23-.64"/><path class="b" d="M8.47,26.68c17.99,0,36,0,54,0,3.17,0,6.41,0,9.58,0,1.4-.04,2.97.11,4.35-.12.77-.41,1.82-.94,2.61-1.31,7.98-4.06,16.12-1.99,24.39-.33,3.13.55,6.46.85,9.58.09,8.35-2.37,14.37-6.4,23.51-3.66,2.66.79,5.35,1.85,7.84,3.08.79.43,1.86,1.07,2.61,1.56,0,0,.87.57.87.57l.87.13c11.61,0,23.23,0,34.84,0"/><path class="b" d="M8.47,21.95c21.48,0,42.97,0,64.45,0,.78,0,1.84.02,2.61-.07,1.33-.81,2.87-1.61,4.35-2.08,3.35-1.04,6.94-1.57,10.45-1.38,3.54.18,7.06,1.05,10.45,2.01,2.83.81,5.73,1.78,8.71,1.52,2.29,0,4.68.02,6.97-.02,5.5-1.21,10.88-3.33,16.55-3.67,3.51-.24,7.12.24,10.45,1.38,1.11.39,2.42.93,3.48,1.43.75.34,1.75.97,2.61.88,11.31,0,22.65,0,33.97,0"/><path class="b" d="M8.47,17.23c21.77,0,43.55,0,65.32,0,.79,0,1.86.07,2.61-.23,1.03-.56,2.32-1.09,3.48-1.29,4-.68,8.13-1.25,12.19-.88,3.55.29,7.07,1.26,10.45,2.36,3.17.09,6.41.01,9.58.04,5.79,0,11.63,0,17.42,0,2.88-.4,5.78-1.29,8.71-1.33,1.71-.07,3.56.09,5.23.5,1.39.27,2.92.92,4.35.83,11.9,0,23.81,0,35.71,0"/></svg>