<?xml version="1.0" encoding="UTF-8"?><svg id="a" xmlns="http://www.w3.org/2000/svg" width="1920" height="2400" viewBox="0 0 192 240"><defs><style>.b{fill:none;stroke:#fff;stroke-miterlimit:10;stroke-width:.4px;}.c{stroke-width:0px;}</style></defs><rect class="c" width="192" height="240"/><path class="b" d="M8.03,218.76c2.23,1.06,4.57,2.19,7,2.7,1.99.3,4.13.39,6.13.7,6.76,1.09,12.98.37,19.26-2.39,3.14-1.22,6.27-2.91,9.63-3.44,8.02-.74,14.47,5.27,21.01,8.98,15.17,0,30.35,0,45.52,0,6.7,0,13.43,0,20.13,0,1.9-.79,4.03-1.54,6.13-1.26,1.47.16,2.95.92,4.38,1.26,1.09,0,2.41,0,3.5,0,4.65,0,9.35,0,14.01,0,4.65-.02,9.36.05,14.01-.03,1.67-.93,3.48-1.96,5.25-2.71"/><path class="b" d="M8.03,210.75c1.99.67,4.08,1.42,6.13,1.86,1.99.4,4.15.39,6.13.84,4.31.88,8.7,1.98,13.13,1.69,3.27-.17,6.53-1.03,9.63-2.05,2.84-.89,5.74-2.1,8.75-2.12,6.34-.02,12.03,3.35,17.51,6.17,1.69.89,3.52,1.83,5.25,2.63.44.2,1.3.58,1.75.76.44.02,1.31.04,1.75.03,17.5,0,35.02,0,52.52,0,2.59,0,5.28,0,7.88,0,1.71-.16,3.52-.75,5.25-.35,2.83.68,5.87.23,8.75.35,4.94,0,9.94,0,14.88,0,3.18,0,6.45,0,9.63,0,1.4-.04,2.99.12,4.38-.13.75-.37,1.85-.84,2.63-1.15"/><path class="b" d="M8.03,204.21c2.01.39,4.11.9,6.13,1.26,2,.32,4.15.41,6.13.91,4.58,1.07,9.25,2.39,14.01,2.06,4.8-.23,9.35-2.05,14.01-3.06,2.58-.51,5.33-.3,7.88.3,6.79,1.67,12.84,5.42,19.26,8.08,1.96.78,4.04,1.68,6.13,2.06,1.71,0,3.55,0,5.25,0,32.39,0,64.78,0,97.16,0"/><path class="b" d="M8.03,198.74c3.5.24,7.04.83,10.5,1.33,3.18.6,6.39,1.47,9.63,1.73,3.51.32,7.11-.15,10.5-1.07,7.57-2.19,11.5-3.93,19.26-.68,8.27,3.41,15.76,8.78,24.51,11,2.89,0,5.86,0,8.75,0,30.93,0,61.86,0,92.79,0"/><path class="b" d="M8.03,193.86c5.61-.45,11.1,1.28,16.63,1.84,4.14.42,8.36-.32,12.25-1.71,3.44-1.15,6.85-2.82,10.5-3.21,4.44-.36,8.57,1.96,12.25,4.18,6.76,4.08,13.17,9.53,21.01,11.34,5.24,0,10.52,0,15.76,0,11.96,0,23.93,0,35.89,0,5.82,0,11.69,0,17.51,0,2.22-.95,4.62-1.83,7-2.28,5.34-1.13,10.71.57,15.76,2.2,3.76.21,7.61.02,11.38.08"/><path class="b" d="M8.03,189.01c5.28-1.22,10.5.8,15.76,1.09,5.2.37,10.23-1.42,14.88-3.55,3.03-1.3,6.25-2.85,9.63-2.68,6.5.8,11.59,6.2,16.63,9.96,3.28,2.5,9.09,7.18,13.13,7.72,6.99,0,14.02,0,21.01,0,4.94-.01,9.94.03,14.88-.02,1.36-.42,2.95-.65,4.38-.67,2.02-.04,4.15.29,6.13.69,6.7,0,13.43,0,20.13,0,.84.1,1.93-.23,2.63-.71,1.08-.6,2.39-1.3,3.5-1.85,2.95-1.46,6.31-2.47,9.63-2.06,2.76.32,5.43,1.48,7.88,2.75.77.41,1.86.98,2.63,1.39,0,0,.88.45.88.45,0,0,.88.02.88.02,3.77,0,7.61,0,11.38,0"/><path class="b" d="M8.03,183.61c6.05-2.32,12.23.79,18.38.69,4.86.06,9.51-1.68,14.01-3.33,3.04-1.07,6.44-2.06,9.63-1.07,6.78,2.34,11.74,7.99,17.51,12.02,2.43,1.77,5.08,3.46,7.88,4.6,1.05.44,2.39.22,3.5.27,6.41,0,12.85,0,19.26,0,4.36,0,8.77,0,13.13,0,1.17-.09,2.37-.87,3.5-1.14,1.95-.57,4.1-.79,6.13-.74,6.99.13,14.08,3.04,21.01.93,5.36-1.91,10.69-5.61,16.63-4.11,3.19.73,6.08,2.55,8.75,4.37.58.66,1.8.76,2.63.69,1.09,0,2.41,0,3.5,0,3.48,0,7.03,0,10.5,0"/><path class="b" d="M8.03,178.35c6.88-3.68,13.15.12,20.13,1.05,5.57.94,11.12-.47,16.63-1.11,4.77-.62,9.26,1.61,13.13,4.17,3.83,2.5,7.49,5.39,11.38,7.79,1.33.73,2.77,1.97,4.38,1.79,2.6,0,5.28,0,7.88,0,6.41,0,12.85,0,19.26,0,4.07,0,8.19,0,12.25,0,1.47-.07,2.94-.97,4.38-1.27,1.96-.55,4.1-.91,6.13-1.11,4.93-.49,9.95,0,14.88-.43,2.97-.18,5.86-1.24,8.75-1.82,4.86-1.12,9.95.26,14.01,3.05.75.49,1.76,1.29,2.63,1.58,2,0,4.13,0,6.13,0,4.65,0,9.35,0,14.01,0"/><path class="b" d="M8.03,173.88c7.74-4.97,13.54-.63,21.01,2.06,3.63,1.34,7.51,2.1,11.38,2.19,9.15-.09,12.83.3,21.01,4.83,1.73.95,3.55,2.03,5.25,3.03,1.03.6,2.24,1.49,3.5,1.31,12.83,0,25.68,0,38.52,0,2,0,4.12,0,6.13,0,3.4-1.39,6.87-2.85,10.5-3.52,4.59-.95,9.35-.76,14.01-.73,2.6.05,5.28-.44,7.88-.22,2.72.2,5.45,1.05,7.88,2.26,1.46.59,2.82,1.94,4.38,2.21,8.16,0,16.35,0,24.51,0"/><path class="b" d="M8.03,170.15c8.63-5.94,14.09-.69,21.88,3.34,3.79,2.03,7.96,3.55,12.26,4,5.24.53,10.63.23,15.76,1.65,2.06.53,4.18,1.3,6.13,2.15,1.11.39,2.29,1.35,3.5,1.24,10.5,0,21.02,0,31.51,0,3.18,0,6.44,0,9.63,0,1.7-.08,3.59.21,5.25-.2,2.26-1.15,4.63-2.37,7-3.28,6.91-2.86,13.08-1.83,20.13-.43,2.63.34,5.37.66,7.88,1.6,1.11.39,2.43.93,3.5,1.43.75.34,1.75,1.02,2.63.88,9.62,0,19.27,0,28.89,0"/><path class="b" d="M8.03,166.66c6.38-4.13,10.54-3.16,16.63.73,4.95,3.1,9.94,6.56,15.76,7.78,4.88,1.08,9.94.59,14.88.42,2.32-.04,4.74.16,7,.67,1.76.32,3.51,1.18,5.25,1.52,7.58,0,15.18,0,22.76,0,6.41,0,12.85,0,19.26,0,3.71-1.9,7.46-3.96,11.38-5.38,7.83-2.84,13.84.51,21.01,3.19,2.34.59,4.67,1.6,7,2.19,1.4,0,2.98,0,4.38,0,10.2,0,20.43,0,30.64,0"/><path class="b" d="M8.03,162.44c2.63-1.46,5.69-2.74,8.75-2.25,5.54,1.15,9.93,5.17,14.88,7.67,4.27,2.36,9.12,3.72,14.01,3.7,10.77.04,13.93-3.68,25.39,1.47,7.58,0,15.18,0,22.76,0,2.6,0,5.28,0,7.88,0,1.4-.05,3,.15,4.38-.17,2.39-1.87,5.1-3.41,7.88-4.62,2.76-1.33,5.69-2.63,8.75-3.01,6.14-.86,11.58,2.78,16.63,5.75,1.35.76,2.89,1.59,4.38,2.05,1.4,0,2.98,0,4.38,0,11.96,0,23.93,0,35.89,0"/><path class="b" d="M8.03,156.73c2.66-1.32,5.77-2.36,8.75-1.67,5.64,1.47,10.35,5.29,15.76,7.36,4.96,2.13,10.43,2.42,15.76,2.27,3.5-.08,7-.97,10.5-1.07,3.25-.14,6.57.46,9.63,1.56,2.65.88,5.21,2.29,7.88,3.1,9.04-.03,18.1.05,27.14-.03,2.01-1.31,4.06-2.82,6.13-4.04,1.63-.94,3.53-1.7,5.25-2.45,4.68-2.15,10.09-2.83,14.88-.63,2.77,1.17,5.36,2.89,7.88,4.52,1.65.91,3.33,2.47,5.25,2.64,5.82,0,11.69,0,17.51,0,2,0,4.12,0,6.13,0,1.45.09,3.02-.07,4.38-.63,4.81-1.68,8.34-1.44,13.13.2"/><path class="b" d="M8.03,151.22c4.06-1.94,7.24-2.06,11.38-.35,4.04,1.48,8.06,3.24,12.25,4.26,4.27,1.09,8.74,1.28,13.13,1.4,3.77.23,7.6.45,11.38.63,6.72.28,12.96,2.95,19.26,4.99,2.53.84,5.3.8,7.88,1.38,2.6,0,5.28,0,7.88,0,2,0,4.12,0,6.13,0,1.4-.06,3.01.17,4.38-.2,7.63-3.5,15.78-8.58,24.51-6.48,3.09.74,6.02,2.26,8.75,3.86,1.7.9,3.4,2.26,5.25,2.82,4.65,0,9.35,0,14.01,0,2.59,0,5.28,0,7.88,0,4.69-1.64,8.96-4.86,14.01-5.42,2.74-.17,5.47.89,7.88,2.11"/><path class="b" d="M8.03,146.13c3-1.41,6.51-1.94,9.63-.61,3.41,1.09,6.96,1.99,10.5,2.51,6.95,1.14,14.16.38,21.01,2.15,5.33,1.29,10.56,3.09,15.76,4.82,4.79,1.54,9.79,3.15,14.88,2.81,3.49-.24,7.03.39,10.5.62,3.19.24,6.48.13,9.63-.45,8.37-1.67,16.69-5.67,25.39-3.88,2.69.5,5.37,1.45,7.88,2.53,1.72.64,3.44,1.81,5.25,2.14,4.06,0,8.19,0,12.25,0,2.89,0,5.86,0,8.75,0,1.56-.14,2.99-1.33,4.38-2,1.99-1.13,4.09-2.37,6.13-3.42,5.03-2.72,8.89-3.15,14.01-.18"/><path class="b" d="M8.03,141.49c4.87-2.02,6.67-1.37,11.38.07,3.7.9,7.58,1.11,11.38,1.25,8.35.16,15.32.92,22.76,5.05,4.23,2.14,8.51,4.43,13.13,5.6,3.39.97,7.02.45,10.5.57,3.18-.44,6.4-1.18,9.63-1.31,5.23-.34,10.53-.39,15.76-.83,4.95-.34,9.91-1.18,14.88-1.3,6.84-.23,13.61,1.31,20.13,3.25,1.37.36,2.98.13,4.38.19,2,0,4.13,0,6.13,0,2.89,0,5.86,0,8.75,0,.77,0,1.86,0,2.63,0,1.11-.45,2.43-1.05,3.5-1.58,4.32-2.05,8.44-4.85,13.13-6.01,2.63-.55,5.45-.03,7.88,1.05"/><path class="b" d="M8.03,137.28c4.05-1.65,6.47-1.52,10.5-.15,2.84.69,5.84.88,8.75,1.03,6.24.22,12.6.92,18.38,3.42,3.4,1.35,6.53,3.41,9.63,5.32,1.38.81,2.88,1.78,4.38,2.36,1.1,0,2.4,0,3.5,0,3.77,0,7.61,0,11.38,0,1.4,0,2.97,0,4.38,0,.8,0,1.87.07,2.63-.25,4.56-1.33,9.26-2.41,14.01-2.81,4.64-.43,9.35-.19,14.01-.11,8.76-.04,17.55.36,26.26,1.31,2.31.26,4.72.61,7,1.05,1.7.28,3.52.83,5.25.81,2.59,0,5.28,0,7.88,0,1.71-.03,3.59.15,5.25-.34,3.59-.85,7.09-2.29,10.5-3.68,3.83-1.65,8.06-3.03,12.25-2.13"/><path class="b" d="M8.03,133.53c5.62-2.16,6.91-1.03,12.25-.01,4.34.65,8.81.69,13.13,1.48,4.23.72,8.38,2.15,12.25,3.98,12.91,6.13,4.98,5.62,20.13,5.55,4.36-.05,8.78.11,13.13-.07,4.66-1.38,9.24-3.2,14.01-4.19,7.48-1.68,15.19-.5,22.76-.34,8.15.51,16.37-.03,24.51.57,5.96.5,11.58,2.96,17.51,3.66,4.39.58,8.92.09,13.13-1.23,4.32-1.34,8.52-3.58,13.13-3.69"/><path class="b" d="M8.03,130.46c6.07-1.76,8.29-.11,14.01.44,6.43.55,13,.63,19.26,2.39,3.6.96,7.14,2.34,10.5,3.92,1.96.89,4.06,1.81,6.13,2.43,1.09.21,2.4.1,3.5.12,1.71,0,3.55,0,5.25,0,1.41-.03,3.03.15,4.38-.35,2.32-.7,4.68-1.65,7-2.36,1.7-.48,3.57-.85,5.25-1.4,4.6-1.44,9.21-3.12,14.01-3.78,7.55-.97,15.23-.08,22.76.69,4.92.57,9.93.8,14.88.82,2.89.04,5.88.06,8.75.45,2.36.35,4.75,1.1,7,1.85,7.29,2.63,15.16,4.9,22.76,2.1,3.4-1.26,6.85-2.79,10.5-3.14"/><path class="b" d="M8.03,127.76c5.6-.26,11.04,1.59,16.63,1.58,6.71.19,13.42-1.2,20.13-.74,6.17.62,12.1,3.25,18.38,2.94,4.46-.07,8.82-1.34,13.13-2.35,1.98-.5,4.14-.64,6.13-1.11,3.24-.78,6.43-2.01,9.63-2.91,5.08-1.54,10.48-1.97,15.76-1.43,2.62.24,5.35.42,7.88,1.18,11.85,3.78,14.54,4.49,27.14,3.57,4.19-.15,8.3,1.14,12.25,2.37,6.15,1.97,12.95,4.01,19.26,1.58,3.06-1.24,6.31-2.37,9.63-2.59"/><path class="b" d="M8.03,124.64c13.55,3.16,19.28,3.94,32.39-1.46,1.96-.71,4.06-1.41,6.13-1.71,2.59-.29,5.29-.05,7.88.06,6.69.47,13.44.55,20.13.16,2.3-.15,4.71-.06,7-.24,2.66-.32,5.31-1.17,7.88-1.91,5.63-1.8,11.64-2.58,17.51-1.57,2.95.47,6.07.78,8.75,2.21,11.89,6.44,14.25,8.49,28.01,5.02,3.76-.68,7.68-.26,11.38.58,6.27,1.32,12.88,4.24,19.26,1.94,3.02-1.27,6.33-2.16,9.63-2.13"/><path class="b" d="M8.03,120.65c2.58.75,5.21,1.73,7.88,2.14,3.18.35,6.42.96,9.63.77,4.43-.21,8.57-2.18,12.26-4.53,5.68-3.66,8.69-6.13,15.76-6.46,7.73-.59,15.26,1.7,22.76,3.19,3.15.7,6.46.9,9.63.16,7.56-1.74,13.29-2.86,21.01-.79,1.71.43,3.56.87,5.25,1.34,2.92,1.07,5.4,3.21,7.88,5.03,1.9,1.43,3.97,2.9,6.13,3.93,1.4.1,2.98.04,4.38.05,2.59,0,5.28,0,7.88,0,2.1-.35,4.08-1.62,6.13-2.2,2.51-.83,5.24-1.27,7.88-1.24,6.53-.09,12.72,3.23,19.26,2.67,1.8-.16,3.55-1.06,5.25-1.58,2.23-.67,4.68-.96,7-.84"/><path class="b" d="M8.03,115.67c3.49.85,6.89,1.8,10.5,1.97,2.58.36,5.26.86,7.88.71,7.79-.32,13.17-6.64,19.26-10.66,8.48-5.09,17.19-2.44,25.39,1.69,2.82,1.33,5.72,2.77,8.75,3.52,3.44.81,7.05.11,10.5-.26,3.47-.41,7.07-.46,10.5.23,2.66.51,5.32,1.4,7.88,2.26,1.4.5,3.04.86,4.38,1.53,1.87,1.01,3.64,2.5,5.25,3.87,1.35.43,2.98.16,4.38.23,8.16,0,16.35,0,24.51,0,.8.09,1.85-.29,2.63-.46,1.38-.3,2.96-.47,4.38-.47,2.33-.01,4.73.44,7,.93,1.4,0,2.98,0,4.38,0,4.06,0,8.19,0,12.26,0,1.96-.49,4.11-.71,6.13-.67"/><path class="b" d="M8.03,109.98c2.02,0,4.12.28,6.13.47,2.01.15,4.15.09,6.13.54,6.71,1.55,11.61,1.56,17.51-2.37,4.05-2.53,7.59-6.18,12.25-7.6,7.02-2.45,14.21.8,20.13,4.5,13.79,8.79,13.09,4.58,27.14,6.01,5.17.65,9.91,3.09,14.88,4.47,6.7,0,13.43,0,20.13,0,17.21,0,34.44,0,51.65,0"/><path class="b" d="M8.03,106.3c3.43-.61,7.03-.68,10.5-.75,2.9.18,5.84.87,8.75.89,3.68.09,7.32-1.08,10.5-2.86,5.99-3.38,10.94-8.02,18.38-6.67,9.66,1.59,16.25,10.08,25.39,12.92,3.12.77,6.44.59,9.63.58,2.01-.01,4.13.04,6.13.27,1.42.11,2.96.56,4.38.58,7.87,0,15.77,0,23.63,0,19.55,0,39.1,0,58.65,0"/><path class="b" d="M8.03,104.56c3.39-1.03,7-1.52,10.5-2.04,2.3-.22,4.71-.25,7-.51,3.66-.38,7.25-1.58,10.5-3.27,8.33-4.41,12.95-9.18,22.76-4.58,4.71,2.19,8.88,5.45,13.13,8.38,1.38.96,2.94,2,4.38,2.86.76.42,1.71,1.14,2.63,1.09,4.65,0,9.35,0,14.01,0,30.34,0,60.69,0,91.04,0"/><path class="b" d="M8.03,101.74c2.01-.02,4.12.05,6.13-.04,1.42-.35,2.97-.82,4.38-1.22,4.56-1.24,9.06-2.96,13.13-5.39,4.68-2.62,8.92-6.22,14.01-8.07,2.83-1,6-.59,8.75.48,5.77,2.3,10.66,6.35,15.76,9.8,1.68,1.16,3.51,2.37,5.25,3.42.77.42,1.69,1.21,2.63,1.01,4.07,0,8.19,0,12.26,0,31.22,0,62.44,0,93.66,0"/><path class="b" d="M8.03,96.99c2.89,0,5.86,0,8.75,0,1.69-.15,3.78.45,5.25-.58,4.73-2.79,8.9-6.49,13.13-9.96,4.4-3.5,9.73-8.15,15.76-6.26,4.82,1.43,8.97,4.54,13.13,7.25,4.49,3.04,9.16,5.93,14.01,8.37.77.39,1.79.96,2.63,1.19.44,0,1.31,0,1.75,0,2,0,4.12,0,6.13,0,31.8,0,63.61,0,95.41,0"/><path class="b" d="M8.03,92.23h14.01c4.51-3.14,8.23-7.39,12.26-11.1,2.89-2.67,5.94-5.49,9.63-6.99,4.17-1.76,8.58.44,12.25,2.42,3.81,2.12,7.53,4.53,11.38,6.58,3.4,1.84,7,3.44,10.5,5.07,1.72.81,3.54,1.75,5.25,2.58,1.36.61,2.81,1.63,4.38,1.45,9.91,0,19.85,0,29.76,0,22.17,0,44.35,0,66.53,0"/><path class="b" d="M8.03,87.48c4.07,0,8.19,0,12.25,0,4.6-2.6,8.31-6.67,12.26-10.13,3.45-3.08,6.99-6.46,11.38-8.12,5.89-2.15,12.35,2.57,17.51,5.05,4.78,2.58,9.84,4.7,14.88,6.71,2.99,1.21,5.94,2.74,8.75,4.31,1.41.67,2.82,1.89,4.38,2.18,4.65,0,9.35,0,14.01,0,26.84,0,53.69,0,80.53,0"/><path class="b" d="M8.03,82.73c1.71,0,3.54,0,5.25,0,.8,0,1.84.02,2.63-.07.47-.17,1.3-.53,1.75-.73,5.93-2.73,10.82-7.26,15.76-11.44,3.68-3.02,7.48-6.52,12.25-7.57,6.12-.94,12.41,4.36,17.51,7.21,5.25,3.31,10.95,5.85,16.63,8.3,2.91,1.32,5.88,2.72,8.75,4.12,1.97.37,4.13.09,6.13.17,3.48,0,7.03,0,10.5,0,26.26,0,52.52,0,78.78,0"/><path class="b" d="M8.03,77.97c.8,0,1.84.03,2.63-.09,1.09-.48,2.38-.99,3.5-1.37,3.67-1.09,7.31-2.55,10.5-4.68,3.7-2.37,7.1-5.29,10.5-8.06,3.81-2.92,8.01-6.77,13.13-6.47,5.79.88,10.27,5.27,14.88,8.54,5.35,4.12,11.18,7.72,17.51,10.12,1.97.75,4.1,1.38,6.13,1.95,1.7.12,3.55.03,5.25.06,4.36,0,8.77,0,13.13,0,26.26,0,52.52,0,78.78,0"/><path class="b" d="M8.03,73.22c1.69-.63,3.48-1.4,5.25-1.8,2.62-.63,5.38-1.1,7.88-2.13,4.86-1.91,9.1-5.16,13.13-8.41,4.47-3.32,9.67-8.86,15.76-7.26,5.09,1.6,9.05,5.55,13.13,8.81,4.79,4.01,9.89,7.88,15.76,10.15,1.33.7,2.92.7,4.38.65,1.71,0,3.55,0,5.25,0,5.24,0,10.52,0,15.76,0,26.55,0,53.11,0,79.66,0"/><path class="b" d="M8.03,68.4c4.25-1.31,8.87-.9,13.13-2.23,5.99-1.69,10.95-5.71,15.76-9.5,5.27-4.08,9.96-7.92,16.63-4.07,8.45,4.82,15.18,12.58,24.51,15.87,4.07,0,8.19,0,12.25,0,31.22,0,62.44,0,93.66,0"/><path class="b" d="M8.03,63.72c10.59.05,15.27.69,24.51-5.62,5.08-3.15,11.12-9.85,17.51-8.49,3.77.75,7.19,2.79,10.5,4.65,3.69,2.14,7.46,4.32,11.38,6.02,2.83,1.21,5.8,2.33,8.75,3.19,1.97.41,4.14.3,6.13.07,3.46-.47,7.01-1.06,10.5-.69,1.42.14,3,.45,4.38.83,2.59.08,5.28.01,7.88.03,24.8,0,49.61,0,74.4,0"/><path class="b" d="M8.03,58.59c3.46.49,7.01.37,10.5.37,6.3-.13,12.2-2.97,17.51-6.14,3.81-2.13,7.72-5,12.26-5.02,5.41.21,10.56,2.29,15.76,3.61,5.2,1.47,10.62,2.27,15.76,3.95,5.09,1.58,10.64.61,15.76,2.17,1.44.35,2.95,1.04,4.38,1.43,2.89,0,5.86,0,8.75,0,6.41,0,12.85,0,19.26,0,18.67,0,37.35,0,56.02,0"/><path class="b" d="M8.03,53.3c2.29.25,4.69.56,7,.43,1.72-.14,3.54-.5,5.25-.72,4.43-.62,8.87-1.57,13.13-2.94,10.01-3.28,11.99-4.45,22.76-3.43,3.77.27,7.6.41,11.38.46,3.79.07,7.7.11,11.38,1.12,3.99,1.34,8.29,1.78,12.26,3.22,2.1.69,4.13,1.86,6.13,2.77,1.1,0,2.41,0,3.5,0,27.72,0,55.44,0,83.16,0"/><path class="b" d="M8.03,48.51c5.68.27,11.05-1.92,16.63-2.56,8.7-1.13,17.51-1.39,26.26-1.87,4.95-.12,9.95-.34,14.88-.79,4.94-.41,10.09-.86,14.88.71,3.22.85,6.57,1.61,9.63,2.95,1.13.49,2.43,1.14,3.5,1.75.69.51,1.76.87,2.63.76,4.36,0,8.77,0,13.13,0,24.8,0,49.61,0,74.4,0"/><path class="b" d="M8.03,44.54c4.21-.73,8.14-2.64,12.25-3.72,3.97-1.05,8.18-1.29,12.26-.85,4.09.4,8.15,1.41,12.25,1.66,2.61.16,5.28-.34,7.88-.42,4.65-.22,9.36-.4,14.01-.64,4.66-.21,9.45-.36,14.01.83,2.3.5,4.73.91,7,1.55,1.76.42,3.51,1.3,5.25,1.75,5.24,0,10.52,0,15.76,0,25.09,0,50.19,0,75.28,0"/><path class="b" d="M8.03,39.95c1.11,0,2.4,0,3.5,0,2-.88,4.05-1.95,6.13-2.66,9.56-3.63,15.36-1.18,24.51,1.4,1.38.33,2.95.58,4.38.57,1.42-.04,2.96-.38,4.38-.47,3.47-.28,7.03-.19,10.5-.09,4.95.18,9.95.29,14.88.73,4.33.71,8.76.5,13.13.52,31.51,0,63.03,0,94.54,0"/><path class="b" d="M8.03,35.2c3.19,0,6.44,0,9.63,0,2.57-.56,5.23-1.21,7.88-1.19,1.72-.02,3.57.18,5.25.53,1.12.18,2.36.73,3.5.67,4.65,0,9.35,0,14.01,0,45.22,0,90.45,0,135.68,0"/><path class="b" d="M8.03,30.45h175.95"/><path class="b" d="M8.03,25.69c58.65,0,117.3,0,175.95,0"/><path class="b" d="M8.03,20.94c19.84,0,39.69,0,59.52,0,9.33,0,18.68,0,28.01,0,2.94.2,5.81-1.02,8.75-.93,2.35-.12,4.71.58,7,.93,7.87,0,15.77,0,23.63,0,16.33,0,32.68,0,49.02,0"/><path class="b" d="M8.03,16.19c27.13,0,54.27,0,81.41,0,2.63.16,5.28-.4,7.88-.67,3.17-.33,6.46-.38,9.63.04,1.11.14,2.41.42,3.5.63,1.09,0,2.41,0,3.5,0,3.18,0,6.44,0,9.63,0,8.74,0,17.52,0,26.26,0,6.7,0,13.43,0,20.13,0,2.89-.04,5.87.09,8.75-.06,1.73-.37,3.58-.87,5.25-1.44"/></svg>