<?xml version="1.0" encoding="UTF-8"?><svg id="a" xmlns="http://www.w3.org/2000/svg" width="1920" height="2400" viewBox="0 0 192 240"><defs><style>.b{fill:none;stroke:#fff;stroke-miterlimit:10;stroke-width:.3px;}.c{stroke-width:0px;}</style></defs><rect class="c" x="0" width="192" height="240"/><path class="b" d="M10.89,230.01c4.18.79,8.49.68,12.7,1.1,2.8.28,5.65.91,8.47.9,1.39,0,2.87-.42,4.23-.62,1.98-.29,4.08-.69,5.93-1.48,7.99-3.6,13.17-11.57,21.17-15.14,2.66-1.14,5.63-1.22,8.47-1.44,2.34-.27,4.66-1.18,6.78-2.18,3.98-1.77,7.56-4.65,11.86-5.67,6.13-.77,12.86-1.62,18.63,1.11,3.95,1.99,6.96,5.47,10.16,8.43,3.07,2.99,6.65,5.52,10.16,7.96,5.44,3.48,10.65,9.73,17.79,8.03,6.18-1.56,10.27-3.69,16.94-2.32,2.77.52,5.66.54,8.47.54,2.81.08,5.7.31,8.47.84"/><path class="b" d="M10.89,228.69c7.04.38,14.16,3.68,21.17,1.59,1.42-.43,2.86-1.23,4.23-1.77,1.94-.78,4.03-1.53,5.93-2.42,4.57-2.15,8.8-5.07,12.7-8.26,3.68-3.13,7.66-6.64,12.7-7.03,1.65-.17,3.43-.06,5.08-.21,3.28-.37,6.4-1.81,9.32-3.29,5.13-2.78,6.71-3.82,12.7-3.96,3.64-.35,7.35-1.23,11.01-.69,3.3.4,6.03,2.55,8.47,4.66,2.52,2.12,5.05,4.42,7.62,6.48,3.13,2.41,6.35,4.87,9.32,7.48,3.64,3.18,7.59,6.95,12.7,7.12,2.82.09,5.65-.77,8.47-.68,3.94-.08,7.92.48,11.86.49,2.25,0,4.56-.5,6.78-.8,3.43-.33,6.92.43,10.16,1.49"/><path class="b" d="M10.89,226.3c3.88-.04,7.39,1.52,11.01,2.68,7.13,2.15,10.47-1.5,16.09-4.81,4.41-2.49,9.2-4.36,13.55-6.95,3.85-2.32,6.91-5.93,11.01-7.84,2.08-.99,4.49-1.33,6.78-1.2,2.54.23,5.21.15,7.62-.77,4.74-1.45,8.61-5.17,13.55-5.99,2.23-.13,4.58-.07,6.78-.62,3.31-.66,6.78-1.69,10.16-.93,1.88.4,3.61,1.58,5.08,2.77,1.32.98,2.85,2.01,4.23,2.88,3.62,2.37,7.69,4.2,11.01,7.01,4.97,4.23,9.01,10.82,16.09,11.47,2.22.26,4.59-.15,6.78.38,2.83.69,5.59,1.95,8.47,2.5,2.21.45,4.61.44,6.78-.23,1.68-.45,3.38-1.32,5.08-1.71,3.47-.74,7.01.55,10.16,1.91"/><path class="b" d="M10.89,222.35c3.82-.3,6.83,1.33,10.16,2.87,8.15,3.66,11.49-1.84,17.78-5.54,4.25-2.61,9.22-3.84,13.55-6.27,4.52-2.89,8.6-7.59,14.4-7.46,4.98.24,7.06,1.22,11.86-1.4,4.05-1.97,7.33-5.71,11.86-6.61,1.35-.2,2.88-.01,4.23-.18,5.65-.65,11.98-3.07,16.94.99,3.45,2.56,7.83,3.21,11.86,4.36,4.89,1.32,7.74,5.84,11.01,9.33,2.73,2.97,6.12,5.65,10.16,6.45,1.64.38,3.49.52,5.08,1.09,2.67,1.07,5.03,2.95,7.62,4.18,10.73,4.91,10.33-6.01,23.71-.57"/><path class="b" d="M10.89,216.95c4.26-.62,7.46,1.8,11.01,3.66,5.3,2.82,9.23,1.19,13.55-2.35,2.11-1.53,4.44-2.95,6.78-4.09,3.54-1.83,7.56-2.73,11.01-4.74,3.68-2.32,7.33-5.37,11.86-5.64,3.66-.27,7.53,1.29,11.01-.44,5.17-2.13,8.54-7.1,13.55-9.43,1.84-.78,3.99-.61,5.93-.92,4.5-.62,9.34-1,13.55,1.04,1.95.92,3.77,2.4,5.93,2.85,2.75.67,5.67.37,8.47.49,3.6.06,6.39,2.73,8.47,5.42,2.09,2.49,4.31,5.09,6.78,7.22,2.88,2.64,6.61,4.06,10.16,5.53,2.11,1.07,4.02,2.74,5.93,4.12,11.82,8.71,12.36-3.28,26.25-.64"/><path class="b" d="M10.89,211.37c4.39-.57,7.59,2.19,11.01,4.43,4.35,2.94,8.47,3.16,12.7-.08,3.28-2.34,6.53-4.92,10.16-6.72,2.68-1.37,5.71-2.1,8.47-3.28,3.3-1.53,6.54-3.48,10.16-4.15,6.33-1.08,10,1.08,16.09-2.98,3.97-2.44,6.87-6.41,11.01-8.59,2.94-1.18,6.16-2.07,9.32-2.41,4.63-.47,8.77,1.99,12.7,4.08,1.83.8,3.95,1.07,5.93.98,3.38-.11,7.16-1.33,10.16.84,1.95,1.36,3.46,3.49,5.08,5.2,2.1,2.32,4.39,4.67,6.78,6.7,2.62,2.28,5.67,4.15,8.47,6.18,2.53,2.03,4.85,4.53,7.62,6.24,4.2,2.7,7.66,1.89,11.86-.31,3.97-1.86,8.26-3.46,12.7-3.35"/><path class="b" d="M10.89,206.58c5.79-.35,9.48,4.82,14.4,6.9,8.32,3.57,14-6.8,21.17-9.39,2.14-.89,4.53-1.27,6.78-1.78,1.97-.49,4-1.21,5.93-1.84,2.74-.9,5.61-1.64,8.47-2.04,3.09-.43,6.31-.69,9.32-1.58,5.17-1.41,8.67-5.74,12.7-8.96,2.05-1.59,4.5-2.8,6.78-4.02,3.54-1.9,7.47-1.89,11.01.01,1.93.94,3.87,2.16,5.93,2.81,2.43.78,5.1.85,7.62.62,3.52-.46,6.59-.57,9.32,2.12,5.39,5.64,11.27,10.87,16.94,16.23,3.32,3.07,6,7.11,10.16,9.15,3.4,1.78,6.88.75,10.16-.73,4.52-1.35,8.77-3.96,13.55-4.25"/><path class="b" d="M10.89,202.68c7.55.15,12.41,9.12,20.33,6.58,5.83-1.75,9.43-7.53,15.24-9.33,2.16-.68,4.54-.65,6.78-.75,1.97-.12,4.03-.55,5.93-1.08,3.96-1.11,7.85-2.66,11.86-3.59,2.75-.76,5.74-.72,8.47-1.58,5.2-1.7,8.46-6.55,12.7-9.72,3.11-2.34,6.09-5.6,10.16-6.05,2.72-.26,5.27,1.12,7.62,2.31,2.1,1.02,4.47,1.73,6.78,2.08,7.95.98,9.56-2.18,16.09,4.66,4.79,4.12,9.46,8.48,13.55,13.31,3.53,3.8,6.25,8.75,11.01,11.2,3.74,2,7.26.54,11.01-.5,4.45-.53,8.2-3.66,12.7-3.95"/><path class="b" d="M10.89,198.64c3.38.14,6.4,1.8,9.32,3.33,8,4.39,13.69.24,20.33-4.2,6.12-3.87,9.06-1.45,15.24-1.99,5.36-.65,10.15-3.46,15.24-5.03,3.28-1.14,7-.75,10.16-2.29,4.68-2.37,7.79-6.96,11.86-10.15,2.59-2.28,5.09-5.1,8.47-6.19,3.25-1.06,6.42.74,9.32,2.01,2.14.8,4.49,1.37,6.77,1.52,3.37.4,6.88-1.04,10.16.06,2.35.85,4.03,2.99,5.93,4.51,4.02,3.36,7.75,7.18,11.01,11.29,1.99,2.47,4.07,5.1,5.93,7.68,2.47,3.23,5.35,6.65,9.32,7.99,2.17.74,4.58.42,6.78,0,1.64-.34,3.5-.24,5.08-.85,3.09-1.12,6-3.05,9.32-3.45"/><path class="b" d="M10.89,194c2.91.13,5.74,1.09,8.47,2.04,5.86,2.15,10.53,1.2,16.09-1.17,3.23-1.41,6.57-3.07,10.16-3.16,2.52-.1,5.1.48,7.62.46,4.67-.17,9.2-1.69,13.55-3.29,3.32-1.28,6.77-2.36,10.16-3.41,4.46-1.43,7.82-4.89,11.01-8.14,2.04-2.14,4.49-4,6.78-5.85,10.76-9.29,12.45-.08,22.87-.89,3.41-.13,6.75-2.25,10.16-1.29,2.07.64,3.58,2.5,5.08,3.96,2,2,4.07,4.19,5.93,6.33,3.46,3.99,6.78,8.23,10.16,12.29,2.24,2.87,4.64,5.85,7.62,7.99,2.65,2,6.02,2.89,9.32,2.65,1.94-.15,4.02.13,5.93-.29,3.13-.72,6.12-2.24,9.32-2.67"/><path class="b" d="M10.89,188.99c5.35.46,10.71,1.4,16.09,1.36,4.84.02,9.6-1.17,14.4-1.6,3.07-.34,6.24-.3,9.32-.58,2.26-.21,4.55-.81,6.78-1.19,5.79-1.04,11.75-2.14,16.94-5.06,5.54-2.87,9.71-7.66,14.4-11.65,1.52-1.28,3.38-2.36,5.08-3.38,2.09-1.29,4.34-2.67,6.78-3.18,5.31-1.28,9.31,3.17,14.4,3.03,2.31-.06,4.61-.86,6.78-1.61,2.13-.84,4.65-1.53,6.78-.31,2.07,1.2,3.57,3.41,5.08,5.21,1.97,2.5,3.97,5.21,5.93,7.71,2.79,3.62,5.96,7.07,9.32,10.16,1.77,1.82,3.74,3.67,5.93,4.98,3.53,2.27,7.74,3.15,11.86,3.55,1.93.24,3.97.68,5.93.7,2.81.06,5.68-.31,8.47-.6"/><path class="b" d="M10.89,183.47c4.51.54,9.03-.77,13.55-.45,3.68.19,7.33,1.18,11.01,1.41,2.78.38,5.64.99,8.47.82,3.87-.09,7.45-1.74,11.01-3.05,2.44-.78,5.08-1.08,7.62-1.36,3.18-.34,6.5-.88,9.32-2.48,5.32-3.3,9.36-8.34,14.4-12.01,2.02-1.49,4.42-2.55,6.78-3.38,1.92-.76,3.92-1.67,5.93-2.19,8.2-2.21,11.28,3.48,17.78,2.09,2.86-.52,5.56-2.05,8.47-2.3,7.82-.21,11.03,17.31,23.71,23.61,4.61,3.57,10.66,4,16.09,5.6,5.34,1.37,10.45,4.35,16.09,4"/><path class="b" d="M10.89,177.72c2.9.18,5.71-.77,8.47-1.51,3.98-1.17,8.14-.28,11.86,1.35,2.19.89,4.61,1.43,6.78,2.41,3.98,1.79,8.07,1.71,11.86-.52,2.91-1.7,5.89-3.57,9.32-3.95,3.96-.59,8.25-.3,11.86-2.31,5.45-3.45,9.15-9.4,15.24-11.94,2.4-1.02,5.13-1.05,7.62-1.74,3.32-.93,6.67-2.26,10.16-2.32,1.98-.05,4.06.32,5.93.95,1.59.61,3.35,1.24,5.08,1.13,3.95.01,7.99-2.63,11.86-1.03,2.65,1.25,4.37,3.96,5.93,6.33,2.38,3.7,4.6,7.75,7.62,10.99,2.17,2.48,5.31,3.81,8.47,4.52,2.9,1.37,6.2,1.42,9.32,1.91,2.62.46,5.25,1.33,7.62,2.53,1.92,1.02,4.07,1.89,5.93,3.02,2.81,1.73,5.89,3.64,9.32,3.47"/><path class="b" d="M10.89,172.36c4.99-.29,9.32-3.9,14.4-3.38,2.37.24,4.64,1.28,6.78,2.27,1.34.64,2.93,1.13,4.23,1.84,2.84,1.56,5.93,3.5,9.32,3.03,3.16-.41,5.76-2.53,8.47-4.02,2.33-1.25,5.02-1.84,7.62-2.14,11.58-.83,11.06-4.92,19.48-10.33,2.03-1.18,4.41-2.04,6.78-2.08,1.94-.04,4.03.16,5.93-.35,5.25-1.42,10.48-4.81,16.09-3.19,8.43,3.81,13.87-3.5,20.33,4.47,4.34,5.24,6.92,13.08,13.55,15.88,2.15.8,4.61.47,6.78,1.17,1.91.42,4,.47,5.93.84,2.03.37,4.09,1.14,5.93,2.06,1.73.89,3.45,2.11,5.08,3.17,1.34.85,2.95,1.65,4.23,2.58,2.74,1.91,5.81,4.07,9.32,3.81"/><path class="b" d="M10.89,167.52c1.95-.51,4.03-1,5.93-1.7,2.44-.93,4.98-2,7.62-2.19,4.15-.25,8.14,1.61,11.86,3.25,2.43,1.29,4.88,2.89,7.62,3.41,3.94.83,7.51-1.45,11.01-2.86,4.95-1.8,10.53-1.6,15.24-4.1,3.25-1.74,5.91-4.58,9.32-6.05,2.35-1.07,5.04-1.6,7.62-1.52,2.23.1,4.62.39,6.78-.36,5.76-1.93,11.39-6.65,17.78-4.66,4.73,1.23,9.79-1.66,14.4.33,7.28,3.86,9.18,13.9,16.94,17.18,1.85.74,3.98.67,5.93.79,3.5.61,7.09,1.49,10.16,3.32,3.03,1.7,5.72,4.06,8.47,6.17,1.3.94,2.92,1.75,4.23,2.67,2.74,1.87,5.85,3.85,9.32,3.58"/><path class="b" d="M10.89,162.91c3.02-.96,6.26-1.32,9.32-2.19,7.76-2.13,13.28-.06,20.33,2.93,6.83,2.76,11.1.36,17.78-.38,4.11-.44,8.25-1.47,11.86-3.55,2.73-1.58,5.34-3.64,8.47-4.41,2.45-.66,5.1-.76,7.62-.83,2.56.05,5.26-.02,7.62-1.12,7.64-3.32,10.67-5.92,19.48-5.81,3.89-.59,7.95-2.38,11.86-.94,7.43,3.34,10.1,12.79,17.78,15.81,2.13.85,4.55.72,6.78,1.1,3.03.64,5.94,2.04,8.47,3.82,3.25,2.21,6.2,4.94,9.32,7.31,1.29.92,2.92,1.67,4.23,2.54,2.8,1.8,5.88,3.69,9.32,3.72"/><path class="b" d="M10.89,158.36c2.99-1,6.23-.53,9.32-.74,3.65-.13,7.37-.49,11.01-.15,3.13.36,6.21,1.39,9.32,1.87,4.17.81,8.46,1.23,12.7,1.36,4.24.21,8.7.7,12.7-1.08,2.97-1.14,5.6-3.14,8.47-4.47,4.01-1.66,8.52-1.19,12.7-2.07,3.04-.38,5.75-1.94,8.47-3.22,3.23-1.47,6.69-2.58,10.16-3.33,2.52-.59,5.19-.95,7.62-1.86,4.47-1.92,9.15-3.74,13.55-.52,6.44,4.41,10.57,12.5,18.63,14.29,1.64.37,3.47.48,5.08.97,2.7.79,5.26,2.2,7.62,3.7,3.13,1.96,6.21,4.17,9.32,6.18,1.32.79,2.93,1.46,4.23,2.28,2.9,1.76,5.9,3.74,9.32,4.31"/><path class="b" d="M10.89,153.91c3.95-1.06,7.91.81,11.86,1.08,3.64.46,7.38,0,11.01.48,3.89.78,7.94.21,11.86.78,3.14.34,6.25,1.24,9.32,1.95,2.18.57,4.5,1.14,6.78.99,3.39-.19,6.44-1.96,9.32-3.61,4.54-3.07,10.33-2,15.24-4.02,2.73-.91,5.19-2.57,7.62-4.06,2.07-1.13,4.45-1.83,6.78-2.19,4-.61,8.31-.66,11.86-2.85,4.99-3.05,9.22-4.93,14.4-.89,5.9,4.27,10.73,10.45,17.78,12.88,2.48.79,5.18,1.1,7.62,2.03,6.01,2.21,11.96,4.71,17.78,7.38,3.71,1.9,7,4.74,11.01,6.03"/><path class="b" d="M10.89,149.58c2.27-.54,4.61-.03,6.78.69,2.2.68,4.5,1.37,6.78,1.71,2.49.4,5.11.37,7.62.5,1.37.06,2.86.42,4.23.45,3.08.04,6.25-.27,9.32.23,3.18.43,6.26,1.63,9.32,2.56,2.42.83,5.03,1.63,7.62,1.39,4.04-.3,7.36-2.96,11.01-4.42,3.27-1.14,6.89-1.01,10.16-2.12,10.25-3.82,8.03-7.43,21.17-8.37,2.35-.28,4.79-.94,6.78-2.26,7.65-5.43,10.85-4.76,17.78,1.26,4.13,2.96,8.02,6.48,12.7,8.55,2.39,1.09,5.08,1.52,7.62,2.11,4.71,1.39,9.6,2.28,14.4,3.3,2.3.65,4.67,1.51,6.78,2.65,3.38,1.96,6.49,4.58,10.16,6.01"/><path class="b" d="M10.89,145.74c3.85-.74,7.48,1.13,11.01,2.38,3.25,1.22,6.72,1.91,10.16,2.25,4.75.83,9.66.33,14.4,1.25,5.32.92,10.61,3.18,16.09,2.47,4.2-.49,7.82-3.01,11.86-4.04,4.24-.76,8.76-.58,12.7-2.59,3.84-1.69,7.02-4.69,11.01-6.08,3.29-1.3,6.86-1.95,10.16-3.21,2.08-.76,3.98-2.14,5.93-3.16,5.56-3.07,9.67-.9,14.4,2.43,3.93,2.35,7.88,4.8,11.86,7.06,2.65,1.45,5.56,2.57,8.47,3.35,2.17.72,4.5,1.34,6.78,1.6,3.92.58,8.02-.24,11.86.92,4.83,1.5,8.81,4.96,13.55,6.7"/><path class="b" d="M10.89,142.49c6.47-.73,11.81,3.66,17.78,5.29,4.39,1.29,9.06,1.3,13.55,2.03,5.59.85,11.29,2.01,16.94,1.01,5.17-.7,10.14-2.54,15.24-3.52,3.94-.43,8.05-.02,11.86-1.35,4.28-1.32,7.97-4.05,11.86-6.17,4.07-2.34,8.47-4.13,12.7-6.14,6.09-3.33,10.73-2.78,16.94-.17,4.66,1.6,9.35,3.29,13.55,5.91,5.43,3.13,11.31,6.53,17.78,6.25,3.08-.14,6.27-.99,9.32-.13,4.31,1.46,8.44,3.53,12.7,5.11"/><path class="b" d="M10.89,139.64c7.93.06,10.86,3,17.78,5.52,2.42.93,5.08,1.13,7.62,1.45,2.83.5,5.65,1.41,8.47,1.97,8.45,1.99,12.63-1.94,20.33-3.17,3.07-.4,6.24-.48,9.32-.89,2.51-.16,5.12-.04,7.62-.28,4.79-.45,9.47-2.23,13.55-4.76,7.88-5.13,15.47-10.84,25.41-9.91,4.5.4,9.08.51,13.55,1.14,6.43.96,11.15,5.98,16.94,8.52,2.62,1.3,5.52,2.35,8.47,2.38,2.51.03,5.11-.53,7.62-.2,4.56,1.12,9.16,2.48,13.55,4.16"/><path class="b" d="M10.89,136.81c2.49.56,5.17.55,7.62,1.3,3.44,1.01,6.73,2.62,10.16,3.66,2.44.87,5.1.89,7.62,1.32,2.88.72,5.61,2.12,8.47,2.9,5.62,1.8,9.54-.73,14.4-3.06,4.45-2.1,8.1-1.15,12.7-.88,5.4-.3,10.91-.52,16.09-2.23,2.25-.76,4.67-1.43,6.78-2.56,4.78-2.69,9.14-6.31,14.4-8.07,4.3-1.72,9.04-1.03,13.55-1.4,2.26-.04,4.56-.58,6.78-.96,2.51-.22,5.1-.77,7.62-.61,3.45.27,6.51,2.23,9.32,4.1,2.45,1.61,5.13,3.03,7.62,4.57,2.31,1.37,4.92,2.54,7.62,2.83,3.11.22,6.33.22,9.32,1.25,3.43.74,6.95,1.5,10.16,2.97"/><path class="b" d="M10.89,133.37c2.45.83,5.13,1.02,7.62,1.68,3.66.96,7.29,2.3,11.01,3.04,2.2.54,4.58.43,6.78.94,3.21.95,6.13,2.84,9.32,3.84,2.76,1.02,5.87.67,8.47-.66,4.58-2.43,8.22-4.27,13.55-3.1,1.92.35,3.98.75,5.93.45,6.78-.56,13.07-3.35,19.48-5.39,3.8-1.4,7.26-3.72,11.01-5.26,3.49-1.38,7.22-2.7,11.01-2.71,3.93-.03,8,.23,11.86-.7,1.91-.55,4.01-.86,5.93-1.38,2.17-.65,4.49-1.35,6.77-1.17,3.04.2,5.82,1.75,8.47,3.12,3.85,1.78,7.15,4.65,11.01,6.42,2.64,1.22,5.64,1.5,8.47,2.03,4.57,1.21,9.31,2.21,13.55,4.38"/><path class="b" d="M10.89,128.97c2.42,1.11,5.11,1.71,7.62,2.55,3.62,1.22,7.28,2.57,11.01,3.42,2.2.57,4.58.71,6.78,1.29,3.17.97,6.17,2.6,9.32,3.63,3,1.17,6.4.89,9.32-.39,3.72-1.66,7.72-3.09,11.86-2.56,1.93.17,3.98.48,5.93.33,6.77-.54,12.41-4.77,18.63-7.03,3.79-.93,7.32-2.8,11.01-4.01,3.28-1.09,6.76-1.71,10.16-2.3,4.22-.32,8.48.62,12.7.54,2.53-.25,5.17-.66,7.62-1.33,3.25-1.17,6.63-2.6,10.16-2.16,5.6.57,10.29,3.97,15.24,6.3,3.19,1.5,6.81,1.87,10.16,2.87,4.39,1.51,8.65,3.55,12.7,5.82"/><path class="b" d="M10.89,124.47c4.93,2.57,10.1,4.79,15.24,6.9,3.84,1.51,7.91,2.47,11.86,3.67,4.71,1.27,9.43,3.41,14.4,3.03,4.09-.25,7.84-2.33,11.86-2.98,4.18-.83,8.6-.28,12.7-1.5,4.53-1.36,8.46-4.2,12.7-6.21,2.15-.96,4.61-1.31,6.78-2.24,4.31-1.78,8.9-2.89,13.55-3.26,5.07-.93,10.2.31,15.24.83,2.51.02,5.17-.09,7.62-.65,4.74-1.54,9.27-3.64,14.4-2.7,3.22.48,6.22,2.09,9.32,3.04,3.29,1.16,6.83,1.63,10.16,2.6,5.23,1.71,9.55,5.42,14.4,7.93"/><path class="b" d="M10.89,120.47c4.38,2.75,8.89,5.41,13.55,7.66,3.58,1.69,7.33,3.16,11.01,4.63,3.26,1.12,6.79,1.36,10.16,2.01,3.04.6,6.21,1.15,9.32,1.2,2.95-.21,5.74-1.54,8.47-2.59,2.44-.97,5.03-1.83,7.62-2.24,1.64-.23,3.44-.15,5.08-.4,3.58-.46,6.95-2.04,10.16-3.61,1.34-.66,2.83-1.43,4.23-1.96,1.64-.55,3.49-.85,5.08-1.53,2.75-1.08,5.56-2.28,8.47-2.85,2.48-.52,5.11-.57,7.62-.78,4.22-.24,8.52-.08,12.7.49,2.22.23,4.55.06,6.78.09,4.35-.25,8.39-2.37,12.7-2.87,1.64-.21,3.44-.31,5.08-.11,1.94.37,3.98.92,5.93,1.25,3.64.72,7.45.97,11.01,2.09,5.68,1.86,9.78,6.72,15.24,9.05"/><path class="b" d="M10.89,116.89c2.8,1.85,5.54,3.98,8.47,5.63,2.95,1.72,6.15,3.11,9.32,4.38,3.15,1.07,6.02,3.13,9.32,3.7,3.06.48,6.26.32,9.32.92,1.66.26,3.44.57,5.08.95,1.05.26,2.29.58,3.39.51,6.1-.52,10.77-5.86,16.94-6.11,6.23.48,10.28-.16,16.09-2.44,1.88-.77,4.03-.96,5.93-1.64,2.52-.91,5.03-2.13,7.62-2.82,3.56-1.04,7.35-.74,11.01-.83,3.94-.16,7.91-.77,11.86-.63,2.22-.11,4.55-.17,6.77-.08,1.67-.05,3.46-.38,5.08-.75,3.62-.83,7.28-1.86,11.01-2.05,2.24,0,4.54.5,6.78.62,7.18.52,12.03,1.3,17.78,6.05,2.59,1.95,5.37,3.93,8.47,4.98"/><path class="b" d="M10.89,113.71c3.78,2.59,7.44,5.58,11.86,7.04,4.21,1.48,8.71,2.31,12.7,4.37,3.51,1.29,7.38.92,11.01,1.63,1.66.3,3.44.65,5.08,1.04,1.63.4,3.39.96,5.08.66,6.21-.99,11.2-6.89,17.78-5.89,3.34.49,6.79,1,10.16.5,2.83-.36,5.63-1.25,8.47-1.55,3.44-.73,6.67-2.43,10.16-2.98,3.92-.79,7.92.34,11.86-.05,5.62-.73,11.22-2.38,16.94-2.14,5.19-.27,10.12-2.35,15.24-3.06,2.21-.39,4.56-.05,6.77.14,3.42.37,6.91.96,10.16,2.11,6.18,2.07,10.67,7.43,16.94,9.31"/><path class="b" d="M10.89,110.72c4.56,2.8,9.07,5.97,14.4,7.11,2.21.55,4.56.91,6.78,1.42,1.67.39,3.39,1.07,5.08,1.35,2.22.4,4.57.64,6.78,1.12,1.97.42,3.99,1.1,5.93,1.61,3.34.99,6.08,1.41,9.32-.19,5.15-2.2,10.1-7.04,16.09-5.62,3.09.7,6.15,1.85,9.32,2.17,3.35.27,6.87.27,10.16-.44,3.1-.86,6.12-2.26,9.32-2.75,3.36-.69,6.79.22,10.16.16,3.44-.18,6.77-1.39,10.16-1.89,1.64-.29,3.41-.66,5.08-.76,1.65-.02,3.45.02,5.08-.29,4.55-.81,8.98-2.41,13.55-3.17,3.39-.52,6.88.24,10.16,1.03,3.14.79,6.35,1.69,9.32,3.03,4.66,2.1,8.79,5.32,13.55,7.22"/><path class="b" d="M10.89,107.97c5.95,2.45,11.32,6.56,17.78,7.61,5.03.92,10.31.42,15.24,1.91,4.08,1.21,8.37,3.84,12.7,2.21,6.02-2.04,11.07-7.74,17.78-7.3,3.79.57,7.27,2.53,11.01,3.33,7.11,1.61,9.47.64,16.09-1.41,2.17-.6,4.52-.97,6.78-.9,1.66.01,3.42.43,5.08.51,2.83.11,5.69-.52,8.47-.96,2.22-.31,4.54-.62,6.78-.81,1.94-.1,4.01.06,5.93-.33,4.84-.87,9.54-2.6,14.4-3.4,4.01-.55,7.97.97,11.86,1.73,3.11.64,6.33,1.22,9.32,2.35,3.83,1.44,7.45,3.52,11.01,5.52"/><path class="b" d="M10.89,105.61c10.64,2.11,13.43,10.46,25.41,7.68,5.94-.98,9.09,1.21,14.4,2.71,3.92.93,7.63-1.42,11.01-3.08,3.23-1.68,6.6-3.37,10.16-4.21,3.42-.79,6.89.44,10.16,1.31,3.57.96,7.3,1.71,11.01,1.81,4.54-.12,8.99-1.68,13.55-1.57,2.54-.05,5.1.63,7.62.8,2.8.16,5.67-.11,8.47-.17,1.94-.01,3.99-.06,5.93-.06,1.94.04,4.01.17,5.93-.19,5.13-.87,10.09-2.78,15.24-3.49,3.7-.3,7.33,1.09,11.01,1.25,8.1.06,13.36.5,20.33,5.27"/><path class="b" d="M10.89,103.83c1.66.22,3.49.38,5.08.94,4.47,1.89,7.88,5.98,12.7,7.14,2.6.71,5.21-.17,7.62-1.1,2.15-.71,4.52-1.08,6.78-.8,3.41.34,6.67,2.37,10.16,1.84,3.18-.74,6.23-2.13,9.32-3.17,3.58-1.2,7.29-2.28,11.01-2.98,3.06-.46,6.24-.2,9.32-.08,5.92.14,11.86.7,17.78.9,5.71.24,11.24,2.08,16.94,2.36,3.37.18,6.8.49,10.16.75,2.51.23,5.13.46,7.62-.05,4.82-.85,9.54-2.51,14.4-3.16,2.24-.22,4.56.28,6.77.49,3.39.44,6.82-.3,10.16-.8,4.97-.58,10.23.31,14.4,3.19"/><path class="b" d="M10.89,102.81c7.97.01,10.09,4.97,16.94,6.91,4.32,1.26,7.86-1.71,11.86-2.69,1.9-.49,3.99-.59,5.93-.31,1.94.29,3.96.81,5.93.81,1.41.01,2.89-.52,4.23-.86,1.63-.43,3.41-.81,5.08-1.07,2.78-.45,5.68-.58,8.47-.96,2.53-.38,5.11-1.03,7.62-1.5,4.21-.71,8.42-1.91,12.7-2.04,7.97-.1,15.21,3.78,22.87,5.37,3.9.7,7.93.75,11.86,1.17,3.36.22,6.78,1.06,10.16.67,5.13-.62,10.11-2.35,15.24-2.94,2.24-.18,4.55.32,6.77.47,3.44.36,6.85-.62,10.16-1.41,4.76-.83,9.97-1.15,14.4,1.11"/><path class="b" d="M10.89,101.85c1.94.36,4.06.43,5.93,1.12,4.88,1.98,9.64,6.14,15.24,4.71,1.75-.42,3.42-1.42,5.08-2.07,2.39-1,5.02-1.66,7.62-1.63,2.51.04,5.12.56,7.62.12,1.37-.3,2.84-.86,4.23-1.04,1.93-.29,3.99-.25,5.93-.06,2.78.25,5.68.77,8.47.29,2.92-.5,5.71-1.76,8.47-2.78,10.38-4.31,13.73-2.74,23.71,1.12,2.73,1.01,5.59,1.92,8.47,2.39,3.06.48,6.24.65,9.32,1,3.96.33,7.89,1.45,11.86,1.64,6.29-.1,12.32-2.94,18.63-2.72,3.07.32,6.22,1.07,9.32.52,2.28-.38,4.55-1.24,6.78-1.86,4.41-.96,9.13-1.87,13.55-.45"/><path class="b" d="M10.89,100.26c2.79.8,5.85.85,8.47,2.22,3.94,1.81,8.24,4.11,12.7,3.05,1.73-.4,3.41-1.36,5.08-1.92,2.15-.77,4.49-1.26,6.78-1.34,1.94-.08,3.99.17,5.93.06,2.34,0,4.49-1.27,6.78-1.58,2.82-.4,5.7.21,8.47.71,5.58,1.24,8.75-.57,13.55-2.99,10.2-5.09,13.97-1.96,23.71,1.07,4.94,1.4,10.16,1.32,15.24,1.68,4.01.26,7.96,1.26,11.86,2.15,3.33.85,6.84.28,10.16-.36,3.34-.61,6.76-1.36,10.16-1.44,3.11.05,6.18,1.27,9.32,1.09,3.25-.11,6.28-1.65,9.32-2.65,4.09-1.21,8.48-1.92,12.7-1.03"/><path class="b" d="M10.89,97.7c2.72,1.07,5.81.95,8.47,2.21,4.24,1.77,8.82,4.27,13.55,3.05,3.25-1.2,6.66-2.17,10.16-2.01,2.23,0,4.55.41,6.78.22,2.66-.12,5-1.77,7.62-2.07,8.93-.82,10.46,2.44,19.48-2.92,7.58-4.27,12.74-2.18,20.33.43,3.52,1.23,7.35,1.35,11.01.82,4.47-.47,9.09-.85,13.55-.08,3.97.61,7.79,2.46,11.86,2.4,5.09-.17,10.13-1.48,15.24-1.49,4.26.05,8.41,2.39,12.7,1.21,2.33-.55,4.56-1.71,6.78-2.59,4.01-1.6,8.5-1.7,12.7-.87"/><path class="b" d="M10.89,94.57c2.14.9,4.58.88,6.78,1.57,3.44,1.14,6.64,3.14,10.16,4.04,1.62.42,3.43.58,5.08.29,1.92-.47,3.92-1.14,5.93-1.15,4.51-.34,9.11,1.69,13.55.36,1.92-.73,3.9-1.65,5.93-2.04,6.58-1.27,10.87-.36,16.94-4.32,3.27-2,7.15-3.51,11.01-2.56,4.57,1.1,8.9,3.28,13.55,4.06,3.74.59,7.39-.79,11.01-1.49,4.47-.69,9.1-1.28,13.55-.16,2.52.55,5.05,1.47,7.62,1.77,2.22.22,4.56.05,6.78-.11,3.92-.26,7.95-.58,11.86-.04,4.32,1.03,8.24,2.88,12.7,1.1,7.67-3.27,9-4.47,17.78-2.66"/><path class="b" d="M10.89,90.96c2.79.78,5.85.76,8.47,2.12,4.32,1.96,8.59,5.13,13.55,4.81,1.08-.1,2.31-.47,3.39-.58,1.94-.21,4-.09,5.93.19,2.52.32,5.07,1.07,7.62,1.04,3.27-.05,6.19-1.92,9.32-2.68,4.55-1.35,9.37-2.2,13.55-4.57,3.44-1.91,6.9-4.5,11.01-4.53,2.3-.03,4.6.7,6.78,1.37,2.27.58,4.57,1.35,6.78,2.14,3.81,1.41,7.96,1.24,11.86.3,4.74-.75,9.57-1.96,14.4-1.39,3.12.3,6.19,1.37,9.32,1.58,4.5.2,9.05-.37,13.55-.08,1.66.08,3.47.21,5.08.65,2.75.79,5.55,1.97,8.47,1.86,2.34-.07,4.65-.98,6.78-1.91,4.81-2.46,9.24-2.18,14.4-1.18"/><path class="b" d="M10.89,86.4c1.94.35,4.04.47,5.93,1.07,5.1,1.85,9.09,6.11,14.4,7.48,1.35.36,2.87.29,4.23.14,1.36-.08,2.88-.01,4.23.13,3.69.32,7.3,1.65,11.01,1.68,2.65-.01,5.21-1.1,7.62-2.08,3.43-1.47,6.84-3.16,10.16-4.85,4.95-2.36,9.66-5.92,15.24-6.51,3.11-.22,6.25.46,9.32.87,3.7.79,7.23,2.54,11.01,3.01,6.22.9,12.41-1.11,18.63-.98,4.25,0,8.45,1.27,12.7,1.01,4.5-.17,9.04-.79,13.55-.54,2.28.13,4.56.87,6.78,1.38,6.23,1.66,10.27-.85,16.09-1.82,3.07-.42,6.25-.06,9.32.31"/><path class="b" d="M10.89,81.81c9.04.22,12.68,6.27,20.33,9.33,1.86.74,3.97.63,5.93.82,2.83.27,5.7.81,8.47,1.43,2.74.64,5.65,1.23,8.47.82,4.97-.9,9.21-3.98,13.55-6.37,4.73-2.76,9.89-4.98,15.24-6.18,3.6-.62,7.36-.91,11.01-.76,4.35.46,8.44,2.33,12.7,3.19,3.6.83,7.36.55,11.01.33,2.79-.14,5.67-.29,8.47-.23,2.51.04,5.11.34,7.62.28,3.67-.06,7.37-.66,11.01-1.11,1.93-.23,3.99-.46,5.93-.31,3.66.29,7.32,1.18,11.01,1.19,6.49-.05,12.97-1.32,19.48-.75"/><path class="b" d="M10.89,77.63c8.41.17,13.75,6.12,21.17,8.87,3,.91,6.25,1.04,9.32,1.71,3.39.59,6.76,1.61,10.16,2.14,5.44,1.04,10.49-1.87,15.24-4.09,5.02-2.68,10.61-3.92,16.09-5.29,4.73-1.02,9.49-2.76,14.4-2.3,5.51.42,10.56,3.27,16.09,3.5,5.92.55,11.87-.27,17.78-.45,3.09-.08,6.26-.26,9.32-.73,3.09-.43,6.2-1.22,9.32-1.46,6.53-.39,13.01,1.04,19.48,1.64,3.94.22,7.92-.34,11.86-.38"/><path class="b" d="M10.89,73.84c9.04.42,16.63,6.2,25.41,7.69,3.09.58,6.26,1.14,9.32,1.89,2.8.67,5.62,1.59,8.47,2.03,4.26.56,8.58-.45,12.7-1.44,2.52-.6,5.08-1.42,7.62-1.93,3.11-.57,6.29-1.15,9.32-2.06,5.76-1.72,11.65-4.14,17.79-3.2,2.87.39,5.68,1.44,8.47,2.2,2.74.71,5.65,1.06,8.47,1.1,3.98.09,7.93-.9,11.86-1.43,3.63-.49,7.38-.45,11.01-1,5.87-.94,11.82-2.48,17.78-1.43,3.73.47,7.32,1.91,11.01,2.55,3.64.47,7.37-.15,11.01-.3"/><path class="b" d="M10.89,69.7c7.25.45,14.21,2.78,21.17,4.67,3.89,1.01,7.95,1.49,11.86,2.44,3.72.81,7.31,2.33,11.01,3.2,3.59.79,7.34,1.06,11.01,1,2.83-.02,5.69-.47,8.47-.98,2.54-.39,5.16-.88,7.62-1.63,2.82-.82,5.65-1.89,8.47-2.71,4.41-.99,9.05-1.82,13.55-.97,7.2,1.54,11.73,3.96,19.48,2,3.63-.89,7.23-2.36,11.01-2.47,3.65-.14,7.38-.05,11.01-.56,3.91-.53,7.89-1.43,11.86-.99,4.7.31,8.99,2.58,13.55,3.52,3.34.51,6.8.15,10.16,0"/><path class="b" d="M10.89,64.82c7.25.14,14.24,2.19,21.17,4.09,3.88.98,7.97,1.12,11.86,2.06,3.54.75,6.84,2.39,10.16,3.75,3.24,1.26,6.72,2.06,10.16,2.49,4.77.55,9.73.41,14.4-.76,3.43-.9,6.75-2.41,10.16-3.37,1.89-.59,3.98-.63,5.93-.8,2.79-.26,5.67-.49,8.47-.26,3.76.21,7.36,1.6,11.01,2.37,4.32.89,8.75-.17,12.7-1.96,2.42-1,4.94-2.21,7.62-2.24,3.94-.11,7.92.62,11.86.21,2.25-.18,4.54-.81,6.78-1.09,2.51-.33,5.15-.21,7.62.34,2.91.59,5.68,1.91,8.47,2.89,3.78,1.3,7.92,1.15,11.86.9"/><path class="b" d="M10.89,60.13c3.09.2,6.27.15,9.32.79,3.73.71,7.35,2.06,11.01,3.02,3.85,1.11,7.95.75,11.86,1.47,4.33.64,8.04,3.12,11.86,5.08,2.65,1.26,5.57,2.09,8.47,2.54,2.49.39,5.1.56,7.62.66,2.53.21,5.18.15,7.62-.62,3.69-1.05,7.19-2.96,11.01-3.55,2.22-.3,4.55.15,6.78.11,3.37.06,6.82.01,10.16.48,4.53.58,8.89,2.91,13.55,2.1,4.63-.57,8.35-3.83,12.7-5.18,4.99-1.11,10.23.26,15.24-.82,4.58-1.14,8.84-2.17,13.55-.78,2.92.74,5.64,2.27,8.47,3.27,3.5,1.23,7.32,1.58,11.01,1.38"/><path class="b" d="M10.89,56.3c2.22.3,4.55.11,6.78.24,2.27.16,4.59.67,6.78,1.28,3.06.84,6.15,1.98,9.32,2.36,2.51.26,5.11-.05,7.62.11,2.96.15,5.94,1.07,8.47,2.61,8.03,5.47,10.84,5.76,20.33,6.58,7.5,1.52,9.26-.32,16.09-2.32,2.18-.6,4.58-.74,6.78-.15,2.2.45,4.53.76,6.78.95,3.37.3,6.84.32,10.16,1.01,4.42,1.25,9.11,2.54,13.55.63,2.98-1.17,5.63-3.19,8.47-4.63,3.43-1.6,7.33-1.9,11.01-2.58,5.12-.68,9.99-3.38,15.24-2.76,3.93.37,7.45,2.4,11.01,3.93,3.75,1.54,7.78,2.69,11.86,2.72"/><path class="b" d="M10.89,53.33c3.06.59,6.23-.1,9.32.18,3.7.22,7.36,1.13,11.01,1.68,4.48.85,9.09-.7,13.55.32,3.84.77,6.92,3.42,10.16,5.43,2.33,1.37,4.99,2.32,7.62,2.9,2.78.63,5.7.98,8.47,1.66,2.18.65,4.48,1.33,6.78,1.02,3.42-.32,6.72-1.71,10.16-1.91,3.79-.22,7.3,1.78,11.01,2.24,4.18.79,8.56.55,12.7,1.55,9.32,2.66,12.88-.17,20.33-5.16,4.55-2.65,9.55-4.55,14.4-6.59,4.24-1.78,8.95-3.41,13.55-2.05,2.66.68,5.17,2.05,7.62,3.26,4.35,1.9,8.8,3.99,13.55,4.6"/><path class="b" d="M10.89,51.37c4.48,1.08,9.07-.51,13.55-.85,3.63-.45,7.35-.51,11.01-.63,2.51-.19,5.11-.56,7.62-.29,5.81.5,10.18,4.85,15.24,7.26,3.52,1.81,7.29,3.22,11.01,4.55,2.21.74,4.43,1.86,6.78,2.14,3.93.54,7.92-.59,11.86-.24,2.94.22,5.63,1.73,8.47,2.41,3.57.97,7.34,1.01,11.01,1.08,2.25,0,4.55.5,6.78.79,2.53.3,5.21.12,7.62-.71,3.75-1.27,6.89-3.9,10.16-6.04,4.13-2.64,8.42-5.15,12.7-7.54,5.31-2.99,11.01-4.97,16.94-2.42,2.61.99,5.05,2.56,7.62,3.63,3.89,1.61,7.71,3.63,11.86,4.53"/><path class="b" d="M10.89,49.24c5.81,1.81,11.5-1.42,16.94-3.11,2.71-.95,5.61-1.4,8.47-1.51,2.51-.21,5.13-.32,7.62.12,2.67.44,5.25,1.6,7.62,2.86,2.28,1.17,4.62,2.44,6.78,3.82,5.57,3.43,11.26,7.29,17.78,8.55,3.35.52,6.83.43,10.16,1.07,2.66.52,5.15,1.81,7.62,2.86,3.19,1.3,6.74,1.68,10.16,1.49,1.94-.09,3.99-.28,5.93-.23,2.8.26,5.72.47,8.47-.27,4.72-1.12,8.71-4.08,12.7-6.68,3.9-2.41,7.94-4.73,11.86-7.1,7.03-4.33,13.35-6.43,21.17-2.45,5.48,2.64,11.07,5.32,16.94,7.01"/><path class="b" d="M10.89,46.37c9.66,2.74,16.76-5.81,26.25-5.63,4.62-.36,9.28.51,13.55,2.27,2.96,1.03,5.9,2.32,8.47,4.14,7.99,5.44,11.36,7.71,21.17,8.74,2.6.46,5.28,1.18,7.62,2.43,5.21,3.01,8.89,5.43,15.24,4.97,2.23-.11,4.54-.48,6.78-.55,2.55.12,5.2-.03,7.62-.92,4.53-1.55,8.59-4.27,12.7-6.67,4.18-2.28,8.56-4.34,12.7-6.7,8.71-5,15.4-5.99,24.56-1.31,4.37,1.9,8.92,3.59,13.55,4.73"/><path class="b" d="M10.89,42.91c9.32,1.34,13.67-1.72,22.02-4.06,3.87-.77,7.94-.9,11.86-.4,3.4.55,6.84,1.34,10.16,2.25,3.29,1.22,6.24,3.32,9.32,4.95,2.64,1.44,5.53,2.64,8.47,3.31,2.2.51,4.57.62,6.78,1.1,3.01.66,5.97,1.96,8.47,3.78,5.25,4.14,9.95,7.12,16.94,6.52,2.51-.19,5.1-.47,7.62-.53,4.95-.67,9.2-3.71,13.55-5.95,5.69-3.26,12.03-5.24,17.78-8.37,5.9-3.05,12.92-4.8,19.48-3.11,2.59.67,5.1,1.89,7.62,2.76,3.29,1.11,6.76,1.82,10.16,2.48"/><path class="b" d="M10.89,39.74c4.79-.19,9.67.22,14.4-.79,2.83-.54,5.66-1.43,8.47-2.07,3.87-.83,7.9-1.34,11.86-1.11,3.37.34,6.87.46,10.16,1.26,4.02,1.23,7.81,3.29,11.86,4.45,2.47.72,5.07,1.35,7.62,1.74,3.26.4,6.52,1.37,9.32,3.12,2.48,1.45,4.59,3.61,6.78,5.44,4.52,3.88,10.06,6.24,16.09,5.67,1.94-.16,4.02-.16,5.93-.55,4.55-1.21,8.47-4.08,12.7-6.04,2.97-1.55,6.22-2.62,9.32-3.87,3.19-1.29,6.27-3.02,9.31-4.62,2.34-1.31,4.99-2.14,7.62-2.61,3.58-.82,7.37-1.15,11.01-.53,2.89.5,5.64,1.82,8.47,2.55,3.04.78,6.23,1.2,9.32,1.72"/><path class="b" d="M10.89,37.8c6.17-.87,12.51-.47,18.63-1.8,6.26-1.1,12.24-3.82,18.63-4.12,2.22-.16,4.56-.22,6.78.09,3.12.48,6.22,1.41,9.32,2.03,5.69,1.18,11.65,1.95,16.94,4.47,3.93,1.91,7.06,5.09,10.16,8.09,4.7,4.24,10.39,8.09,16.94,8.19,6.66.66,11.32-3.29,16.94-6.08,2.93-1.61,6.22-2.56,9.32-3.77,3.21-1.29,6.28-3.09,9.32-4.73,1.58-.85,3.34-1.7,5.08-2.16,1.34-.31,2.88-.49,4.23-.73,3.61-.56,7.35-.99,11.01-.73,2.57.23,5.12,1.05,7.62,1.62,3.07.7,6.24,1.29,9.32,1.95"/><path class="b" d="M10.89,36.58c3.92-.79,7.9-1.57,11.86-2.16,3.65-.57,7.41-.93,11.01-1.8,4.15-1,7.82-3.45,11.86-4.78,6.17-2.06,9.13-1.08,15.24-.42,3.08.33,6.26.35,9.32.86,2.92.58,5.78,1.77,8.47,3.02,5.31,2.55,9.38,6.74,13.55,10.77,4.67,4.08,9.88,8.13,16.09,9.39,6.69,1.67,12.25-3.25,17.78-6.15,2.35-1.38,5.06-2.11,7.62-2.97,2.87-1.02,5.7-2.38,8.47-3.64,2.14-.96,4.44-1.91,6.78-2.26,3.07-.29,6.25-.31,9.32-.71,2.52-.26,5.08-.92,7.62-1,5.22-.19,10.27,1.61,15.24,2.97"/><path class="b" d="M10.89,35.31c4.64-1.08,8.99-3.2,13.55-4.53,3.87-1.2,8.09-1.27,11.86-2.81,5.89-2.74,11.72-7.65,18.63-6.27,4.75.82,9.63.6,14.4,1.14,6.05,1.14,12.13,5.69,16.94,9.41,2.85,2.44,5.46,5.31,8.47,7.56,4.59,3.38,9.64,6.56,15.24,7.9,6.39,1.53,11.68-3.38,16.94-6.18,2.59-1.54,5.68-2,8.47-3.02,3.6-1.21,7.23-2.66,11.01-3.23,4.77-.7,9.67.94,14.4-.35,9.56-3.1,11.07-2.22,20.33,1.04"/><path class="b" d="M10.89,33.16c1.99-.65,4.06-1.48,5.93-2.42,2.53-1.35,5-3.01,7.62-4.19,3.72-1.86,8.02-2.02,11.86-3.51,4.71-2.12,9.09-5.41,14.4-5.84,2.27-.26,4.56.49,6.78.83,3.62.68,7.37.76,11.01,1.3,2.42.32,4.71,1.45,6.78,2.7,2.6,1.51,5.17,3.27,7.62,5.01,4.3,2.68,7.71,6.58,11.86,9.45,4.49,2.73,9.48,4.68,14.4,6.47,7.32,2.88,12.48-1.76,18.63-4.93,2.08-1.1,4.55-1.4,6.77-2.09,3.04-.87,6.16-1.8,9.32-2.16,2.5-.29,5.14-.23,7.62.21,2.76.55,5.65,1.28,8.47.76,2.32-.44,4.55-1.56,6.78-2.31,4.9-2.15,9.73.39,14.4,1.9"/><path class="b" d="M10.89,29.62c2.27-1,4.67-2.02,6.78-3.34,2.75-1.76,5.46-3.8,8.47-5.12,3.21-1.5,6.86-1.8,10.16-3.03,3.36-1.24,6.6-3.11,10.16-3.75,1.92-.33,3.98-.58,5.93-.38,2.82.42,5.65,1.27,8.47,1.72,4.59.81,9.54.9,13.55,3.55,4.34,2.53,8.62,5.33,12.7,8.26,2.57,1.9,4.83,4.43,7.62,6.02,3.98,2.07,8.53,2.8,12.7,4.36,8.72,3.48,11.39,1.9,19.48-1.86,2.1-1.05,4.53-1.3,6.78-1.84,3.07-.78,6.17-1.8,9.32-2.26,2.49-.38,5.13-.4,7.62-.03,1.96.35,3.96,1.06,5.93,1.38,2.25.42,4.67.07,6.78-.8,8.59-3.73,8.87-3.07,17.78-.8"/><path class="b" d="M10.89,25.17c2.2-1.1,4.64-1.93,6.78-3.15,3.07-1.81,6.03-4,9.32-5.41,2.95-1.33,6.24-1.84,9.32-2.78,3.33-1.01,6.67-2.4,10.16-2.68,1.94-.14,4-.24,5.93,0,2.82.44,5.66,1.26,8.47,1.77,3.08.62,6.3.96,9.32,1.88,1.77.53,3.5,1.54,5.08,2.49,3.99,2.47,7.97,5.09,11.86,7.72,2.3,1.61,4.41,3.68,6.78,5.19,3.61,2.07,7.92,2.4,11.86,3.56,8.2,2.51,10.05,3.87,18.63.58,1.63-.59,3.39-1.25,5.08-1.62,1.05-.2,2.34-.28,3.39-.51,2.85-.6,5.66-1.66,8.47-2.39,3-.8,6.22-1.2,9.32-.82,1.98.31,3.97,1.1,5.93,1.53,2.51.64,5.23.34,7.62-.61,7.62-3.25,8.49-3.54,16.94-2.44"/><path class="b" d="M10.89,20.58c2.46-1.05,5.25-1.44,7.62-2.7,4.19-2.19,8.13-5.07,12.7-6.43,2.48-.74,5.13-1.13,7.62-1.83,3.84-1.1,7.85-1.74,11.86-1.61,3.42.14,6.78,1.19,10.16,1.65,3.99.7,8.22,1.09,11.86,3,2.95,1.63,5.7,3.75,8.47,5.65,2.45,1.73,5.16,3.26,7.62,4.98,1.67,1.1,3.34,2.48,5.08,3.47,2.88,1.55,6.18,2.21,9.32,3.04,5.02,1.15,9.98,3.75,15.24,2.79,3.43-.53,6.76-1.82,10.16-2.47,1.64-.3,3.46-.27,5.08-.66,2.26-.49,4.55-1.26,6.78-1.87,3.54-.96,7.34-1.61,11.01-1.07,1.96.39,3.96,1.16,5.93,1.53,2.55.54,5.26.04,7.62-.99,5.82-2.82,9.24-4.83,16.09-4.51"/></svg>