<?xml version="1.0" encoding="UTF-8"?><svg id="a" xmlns="http://www.w3.org/2000/svg" width="1920" height="2400" viewBox="0 0 192 240"><defs><style>.b{fill:none;stroke:#fff;stroke-miterlimit:10;stroke-width:.4px;}.c{stroke-width:0px;}</style></defs><rect class="c" width="192" height="240"/><path class="b" d="M9.42,218.51c7.05-.94,11.68,4.17,18.09,5.83,6.44,1.93,12.12-1.17,18.09-3.06,3.06-.82,6.35-.45,9.48-.9,3.99-.39,8.05-.73,12.06-.59,4.32.11,8.64.8,12.92,1.25,3.52.43,6.6,2.54,9.48,4.46.77.53,1.82,1.26,2.58,1.8.39.34,1.19.77,1.72.76,2.26,0,4.63,0,6.89,0,10.33,0,20.68,0,31.01,0,16.94,0,33.89,0,50.83,0"/><path class="b" d="M9.42,214.25c6.15-.72,9.89,2.39,15.51,3.6,9.29,1.98,14.34-3.79,22.4-5.52,2.54-.21,5.2.03,7.75-.02,6.98-.05,13.88,1.24,20.68,2.73,1.96.46,4.1.57,6.03,1.1,3.86,1.31,7.09,4.07,10.34,6.45,1.09,1.16,2.88.72,4.31.8,2.26,0,4.63,0,6.89,0,6.88,0,13.8,0,20.68,0,19.52,0,39.06,0,58.58,0"/><path class="b" d="M9.42,209.64c3.49-.33,6.99.33,10.34,1.24,5.21,1.27,10.7.3,15.51-1.94,4.91-2.13,9.92-5.45,15.51-4.22,4.3.41,8.67.69,12.92,1.46,4.65.8,9.22,2.19,13.78,3.35,1.38.37,2.98.58,4.31,1.11,4.21,1.85,7.58,5.22,11.2,7.98,29.85.24,59.74,0,89.59.08"/><path class="b" d="M9.42,204.57c4.3-.54,8.62.44,12.92.28,7.29-.28,13.7-4.24,20.68-5.89,1.37-.28,2.92-.43,4.31-.31,1.7.21,3.47.76,5.17.98,3.99.61,8.08.9,12.06,1.57,4.07.66,8.13,1.72,12.06,2.95,2.69.79,5.51,1.62,7.75,3.39,2.06,1.48,4.08,3.25,6.03,4.86,1.65,1.43,2.06,1.78,4.31,1.63,2.84,0,5.77,0,8.61,0,26.42,0,52.84,0,79.26,0"/><path class="b" d="M9.42,199.07c5.42-.8,11.01-.36,16.37-1.67,6.77-1.35,13.71-3.96,20.68-2.53,2.29.54,4.55,1.58,6.89,1.92,3.68.65,7.49.74,11.2,1.11,7.62.8,15.65,2.61,21.54,7.81,1.08.87,2.35,1.91,3.45,2.76.38.36,1.18.85,1.72.88,1.38,0,2.93,0,4.31,0,4.29,0,8.63,0,12.92,0,24.69,0,49.4,0,74.09,0"/><path class="b" d="M9.42,193.31c4.53-1.01,9.22-1.42,13.78-2.23,8.38-1.56,17.14-1.72,24.98,2.07,3.44,1.79,7.37,2.41,11.2,2.6,8.33.24,17.23.96,24.12,6.14,1.09.78,2.37,1.75,3.45,2.55.74.3,1.8.24,2.58.23,1.38,0,2.93,0,4.31,0,4.58,0,9.21,0,13.78,0,3.13-.03,6.34.06,9.48-.04,4.4-1.8,9.38-2.23,13.78-.21,1.32.46,2.93.17,4.31.25,1.97,0,4.06,0,6.03,0,6.31,0,12.65,0,18.95,0,4.29,0,8.63,0,12.92,0,1.97,0,4.06,0,6.03,0,1.08-.18,2.36-.51,3.45-.68"/><path class="b" d="M9.42,187.58c5.88-1.64,11.98-2.86,18.09-3.09,5.64-.16,11.25,1.23,16.37,3.55,2.62,1.11,5.11,2.7,7.75,3.73,2.74,1.04,5.72,1.59,8.61,2,7.42.91,15.06,2.18,21.54,6.14,4.57.21,9.21.02,13.78.08,6.59,0,13.22,0,19.81,0,2.73-1.08,5.64-2.14,8.61-2.11,2.71-.03,5.34.99,7.75,2.11,6.31,0,12.65,0,18.95,0,5.73,0,11.5,0,17.23,0,1.75-.34,3.36-1.59,5.17-1.79,3.2-.35,6.29-1.63,9.48-2.07"/><path class="b" d="M9.42,182.51c12.7-4.68,21.49-5.51,33.6,1.3,4.25,2.32,8.38,5.01,12.92,6.74,4.76,1.89,9.73,3.34,14.65,4.77,5.15,0,10.35,0,15.51,0,8.89,0,17.81.01,26.71,0,3.07-1.03,6.19-2.36,9.48-2.46,2.03-.07,4.16.38,6.03,1.16,1.11.36,2.24,1.4,3.45,1.31,11.77,0,23.55,0,35.32,0,2.34-1.57,4.91-3.02,7.75-3.34,2.54-.57,5.14-1.4,7.75-1.58"/><path class="b" d="M9.42,178.71c4.72-1.95,9.53-4.11,14.65-4.75,7.18-.98,13.96,2.38,19.81,6.18,3.4,2.19,6.93,4.34,10.34,6.52,2.23,1.35,4.5,2.91,6.89,3.97,1.38,0,2.93,0,4.31,0,5.73,0,11.5,0,17.23,0,6.59,0,13.22,0,19.81,0,2.26-.02,4.63.04,6.89-.03,2.53-.82,5.2-1.54,7.75-2.3,2.78-.76,5.84-.93,8.61-.08,1.79.52,3.56,1.49,5.17,2.41,4,0,8.06,0,12.06,0,8.32,0,16.66.02,24.98-.01,1.3-.91,2.82-1.87,4.31-2.43,1.05-.37,2.37-.58,3.45-.86,2.23-.55,4.58-1.13,6.89-1.19"/><path class="b" d="M9.42,176.32c6.58-2.89,13.21-7.12,20.68-6.6,5.77.41,10.83,3.65,15.51,6.79,1.97,1.34,4.14,2.65,6.03,4.09,2.3,1.71,4.54,3.73,6.89,5.36,11.19,0,22.41,0,33.6,0,5.15,0,10.35,0,15.51,0,2.57-.54,5.22-1.25,7.75-1.99,3.59-1.13,7.57-1.7,11.2-.39,1.8.51,3.43,1.77,5.17,2.38,1.68,0,3.49,0,5.17,0,5.15,0,10.35,0,15.51,0,5.44,0,10.93,0,16.37,0,1.44-.49,2.81-1.59,4.31-1.96,3.1-.71,6.27-1.7,9.48-1.74"/><path class="b" d="M9.42,174.97c6.84-3.01,13.09-8.02,20.68-8.96,5.29-.59,10.32,1.83,14.65,4.64,3.67,2.28,7.24,4.85,10.34,7.88,1.07.88,2.13,2.25,3.45,2.76,2.56,0,5.2,0,7.75,0,6.02,0,12.07,0,18.09,0,6.31,0,12.65,0,18.95,0,2.84-.08,5.79.18,8.61-.13,1.71-.38,3.5-1.03,5.17-1.56,3.29-1.1,6.94-1.68,10.34-.7,1.12.31,2.41.83,3.45,1.35.42.22,1.31.7,1.72.94.41.06,1.3.11,1.72.09,6.02,0,12.07,0,18.09,0,5.44,0,10.93,0,16.37,0,1.53.15,2.86-1.19,4.31-1.52,3.1-.76,6.27-1.71,9.48-1.79"/><path class="b" d="M9.42,173.81c3.56-1.65,6.97-3.78,10.34-5.79,3.01-1.86,6.1-3.83,9.48-4.96,6.03-2.2,12.15.08,17.23,3.48,4.57,2.63,8.15,6.62,12.06,10.07,12.92,0,25.85,0,38.77,0,6.02,0,12.07,0,18.09,0,.85.14,1.82-.42,2.58-.73,1.35-.56,2.89-1.14,4.31-1.51,3.42-.95,7.15-.53,10.34.98,1.08.42,2.23,1.42,3.45,1.25,2.26,0,4.63,0,6.89,0,5.15,0,10.35,0,15.51,0,3.42,0,6.91,0,10.34,0,1.2-.17,2.31-1.17,3.45-1.57,3.33-1.04,6.84-1.96,10.34-2.16"/><path class="b" d="M9.42,171.93c.91.17,1.82-.53,2.58-.92,1.1-.61,2.37-1.38,3.45-2.04,3.52-2.07,6.86-4.55,10.34-6.69,4.06-2.53,9-4.24,13.78-3.05,6.38,1.59,11.61,5.94,16.37,10.28,1.27.97,2.52,2.7,4.31,2.43,2.85,0,5.77,0,8.61,0,2.85,0,5.77,0,8.62,0,1.38,0,2.93,0,4.31,0,.77-.23,1.8-.55,2.58-.73,3.98-.91,8.16-.31,12.06.71,2.26.04,4.63,0,6.89.02,4.58,0,9.21,0,13.78,0,2.07-.51,3.96-1.91,6.03-2.48,3.96-1.45,8.39-.83,12.06,1.13.76.39,1.8.98,2.58,1.35.41,0,1.31,0,1.72,0,2.26,0,4.63,0,6.89,0,6.02,0,12.07,0,18.09,0,.75,0,1.83,0,2.58,0,1.46-.69,2.84-1.91,4.31-2.61,1.28-.69,2.9-1.04,4.31-1.4,2.22-.57,4.59-1.05,6.89-1.08"/><path class="b" d="M9.42,167.25c2.56-.02,5.2.05,7.75-.04,2.66-1.63,5.21-3.62,7.75-5.43,13.13-9.68,20.14-5.54,31.87,3.21,3.53,2.35,3.58,2.36,7.75,2.25,3.13,0,6.34,0,9.48,0,2.42-.67,4.6-2.29,6.89-3.29,1.59-.7,3.43-1.11,5.17-1.16,3.87-.1,7.64,1.26,11.2,2.63,1.67.6,3.43,1.44,5.17,1.81.77,0,1.82,0,2.58,0,2.84,0,5.77,0,8.61,0,1.84-.16,3.5-1.56,5.17-2.29,2.66-1.39,5.58-2.66,8.61-2.83,5.07-.33,9.54,2.6,13.78,4.98,5.32.35,11,.03,16.37.13,1.67,0,3.49,0,5.17,0,.4,0,1.32,0,1.72,0,.47-.17,1.34-.69,1.72-1.01,1.9-1.37,3.91-2.88,6.03-3.88,3.24-1.29,6.83-2.1,10.34-1.9"/><path class="b" d="M9.42,162.58c4,0,8.06,0,12.06,0,.94-.11,1.84-1,2.58-1.51,1.37-1,2.89-2.11,4.31-3.03,4.73-3.21,10.63-5.51,16.37-3.94,7.16,1.86,12.95,8.02,20.68,7.9,3.98,0,7.76-1.71,11.2-3.56,2.68-1.45,5.46-3.18,8.61-3.16,8.97-.13,16.72,7.74,25.84,5.57,5.01-1.45,9.36-4.97,14.65-5.53,6.98-.83,12.77,4.05,18.95,6.44.41.2,1.31.6,1.72.79,1.07.06,2.37.03,3.45.03,2.26,0,4.63,0,6.89,0,1.97,0,4.06,0,6.03,0,2.38-1.22,4.64-2.88,6.89-4.31,3.75-2.51,8.39-4.03,12.92-3.37"/><path class="b" d="M9.42,157.9c3.42,0,6.91,0,10.34,0,1.09,0,2.36,0,3.45,0,.88.1,1.92-.17,2.58-.76,2.97-1.95,6.12-3.84,9.48-5.05,4.11-1.53,8.74-1.71,12.92-.35,11.67,4.45,16.53,6.91,28.43.62,1.94-.94,3.9-2.19,6.03-2.66,5.95-1.19,11.6,1.98,17.23,3.39,3.62.99,7.6,1.33,11.2.09,6.71-2.59,12.31-6.35,19.81-3.8,2.98.94,5.79,2.53,8.61,3.82,1.62.78,3.51,1.24,5.17,1.92,1.39.57,2.92,1.26,4.31,1.84,1.05.38,2.3,1.06,3.45.94,3.13,0,6.34,0,9.48,0,1.49-.25,2.98-1.12,4.31-1.8,5.1-2.88,10.12-6.9,16.37-5.62"/><path class="b" d="M9.42,153.22c4.87,0,9.78,0,14.65,0,.89.16,1.83-.46,2.58-.84,1.07-.54,2.34-1.16,3.45-1.65,3-1.32,6.22-2.38,9.48-2.81,7.98-1.34,14.69,2.64,22.4,3.31,5.06.46,10.08-1.03,14.65-3.11,4.79-2.36,7.51-3.3,12.92-2.26,4.56.84,9.1,2.34,13.78,2.29,3.94.07,7.69-1.38,11.2-3.04,6.68-3.14,12.25-3.38,18.95-.11,2.25,1.02,4.55,2.25,6.89,3.07,2.29.63,4.75,1.1,6.89,2.19,2.24,1.01,4.55,2.15,6.89,2.9,1.37.13,2.93.05,4.31.07,1.97-.04,4.07.1,6.03-.08.77-.27,1.84-.7,2.58-1.06,5.16-2.48,9.31-6.52,15.51-5.47"/><path class="b" d="M9.42,148.54c4.29,0,8.63,0,12.92,0,7.35-3.07,15.24-5.13,23.26-4.63,4.39.07,8.67,1.24,12.92,2.17,9.55,2.05,14.6.05,23.26-3.24,3.69-.91,7.55-.08,11.2.61,7.65,1.66,13.65,1.53,20.68-2.22,9.14-4.57,14.26-3.58,23.26.5,2.16.98,4.56,1.49,6.89,1.81,1.76.43,3.54,1.25,5.17,2.03,2.22,1.07,4.53,2.23,6.89,2.95,1.07.02,2.37,0,3.45,0,1.38,0,2.93,0,4.31,0,1.13.11,2.43-.15,3.45-.67,5.36-2.31,9.16-6.56,15.51-6.09"/><path class="b" d="M9.42,143.87c1.97,0,4.06,0,6.03,0,1.17-.08,2.34-.9,3.45-1.23,1.94-.73,4.02-1.4,6.03-1.9,6.45-1.68,13.2-1.67,19.81-1.35,2.85.13,5.81.02,8.61.66,5.67,1.24,11.34,3.22,17.23,2.86,2.3-.11,4.68-.53,6.89-1.15,1.68-.45,3.43-1.2,5.17-1.41,6.38-.72,12.58,1.96,18.95,1.85,14.33-.24,17.15-10.63,34.46-5.55,1.66.42,3.47.86,5.17,1.04,2.04.03,4.16.45,6.03,1.28,6.44,2.89,12.55,6.69,19.81,3.94,3.06-1.03,5.78-2.96,8.61-4.45,2.13-1.07,4.53-1.87,6.89-2.21"/><path class="b" d="M9.42,138.69c11.2-5.05,16.99-6.24,29.29-4.44,2.55.34,5.18.72,7.75.83,2.27.05,4.65-.14,6.89.31,4.93.88,9.7,2.71,14.65,3.52,1.95.4,4.05.25,6.03.27,1.98,0,4.09.09,6.03-.37,4.54-.85,9.23-.16,13.78.22,1.96.22,4.06.14,6.03.15,2.27.01,4.65.07,6.89-.36,5.07-.72,9.8-2.89,14.65-4.42,3.88-1.24,7.99-1.89,12.06-1.93,2.26-.04,4.63.04,6.89-.01,1.38-.03,2.93-.25,4.31-.03,6.26,1.13,11.63,5.45,18.09,5.83,7.32.67,13.28-4.46,19.81-6.86"/><path class="b" d="M9.42,130.71c4.37-.37,8.58-1.88,12.92-2.38,7.59-1.07,14.96,1.49,22.4,2.51,2.84.38,5.77-.2,8.61.13,4.66.44,9.22,1.74,13.78,2.69,2.24.48,4.59.99,6.89.85,3.13,0,6.34,0,9.48,0,6.02,0,12.07,0,18.09,0,3.71-.08,7.51.21,11.2-.19,9.3-1.32,18.34-4.1,27.57-5.84,4.69-1.41,9.27-.28,13.78,1.2,12.27,4.12,17.44,2.87,28.43-3.6"/><path class="b" d="M9.42,124.96c3.1.62,6.36.65,9.48.11,3.11-.44,6.33-.7,9.48-.55,6.68.14,13.12,2.83,19.81,2.62,10.96-1.27,21.96.52,32.74,2.42,1.95.36,4.05.26,6.03.27,2.84,0,5.77,0,8.61,0,7.46-.11,14.94.02,22.4,0,2.26,0,4.63,0,6.89,0,1.38-.02,2.96.12,4.31-.28,5.87-1.27,11.3-4.26,17.23-5.26,14.21-1.7,22.2,4.33,36.18-4.42"/><path class="b" d="M9.42,121.21c4.14,1.83,7.65,2.05,12.06,1.45,3.99-.41,8.06-.68,12.06-.38,4.87.29,9.74,1.53,14.65,1.23,6.91-.72,13.69-2.8,20.68-2.86,3.16-.05,6.41.3,9.48,1.09,3.34,1.05,6.84,1.74,10.34,1.84,5.44.23,10.95-.05,16.37.6,1.99.2,4.06.65,6.03.98,4,0,8.06,0,12.06,0,3.42,0,6.91,0,10.34,0,1.96-.12,4.13.28,6.03-.24,3.4-1.44,6.88-2.85,10.34-4.13,3.62-1.32,7.4-2.37,11.2-3.01,4.55-.82,9.25-.97,13.78-1.86,2.65-.58,5.28-1.59,7.75-2.69"/><path class="b" d="M9.42,118c2.4,1.19,5.04,2.39,7.75,2.48,5.75.18,11.47-1.09,17.23-.95,4.87-.03,9.79.84,14.65.31,7.07-.96,13.57-4.49,20.68-5.31,2.55-.31,5.24-.25,7.75.3,3.13.83,6.24,2.02,9.48,2.4,6.59.95,13.31,1.2,19.81,2.67.77.16,1.82.41,2.58.59,1.08,0,2.37,0,3.45,0,2.84,0,5.77,0,8.61,0,5.44,0,10.93,0,16.37,0,1.97,0,4.06,0,6.03,0,1.08-.04,2.41.16,3.45-.25,6.61-3.87,13.13-8.28,20.68-10.09,4.83-1.14,9.85-1.5,14.65-2.83"/><path class="b" d="M9.42,112.97c2.18,1.09,4.47,2.42,6.89,2.83,1.68,0,3.49,0,5.17,0,4.87-.02,9.78.04,14.65-.02,5.44-.19,11,.48,16.37-.62,6.64-1.35,12.99-4.26,19.81-4.65,1.98-.11,4.09.03,6.03.47,1.98.5,4.02,1.23,6.03,1.62,4.81,1.03,9.77,1.42,14.65,1.94,3.44.27,6.91.99,10.34,1.27,8.61,0,17.24,0,25.84,0,3.13,0,6.34,0,9.48,0,1.67-.09,3.54.23,5.17-.22,6.63-5.06,13.08-11.28,21.54-12.93,3.67-.61,7.48-.68,11.2-.83"/><path class="b" d="M9.42,106.13c3.58,1.91,7.18,4.17,11.2,4.99,4.29,0,8.63,0,12.92,0,8.61-.13,17.31.46,25.84-.94,6.53-.92,13.24-2.47,19.81-1.15,3.94.98,8,1.74,12.06,2.05,5.73.07,11.5,0,17.23.03,13.78,0,27.57,0,41.35,0,6.36-4.72,11.8-11.45,19.81-13.44,4.21-.95,8.66-.41,12.92-.11"/><path class="b" d="M9.42,98.37c3.5,1.94,6.74,4.48,10.34,6.24,2.95,1.36,6.23,2.02,9.48,1.84,3.14,0,6.34,0,9.48,0,11.76-.09,23.55.06,35.32,0,22.4,0,44.8,0,67.2,0,2.84,0,5.77,0,8.61,0,.92-.26,1.85-1.19,2.58-1.77,1.07-.88,2.36-1.94,3.45-2.8,4.46-3.54,9.63-6.91,15.51-7.03,3.71.1,7.48.47,11.2.59"/><path class="b" d="M9.42,90.8c6.11,3.7,10.67,9.39,18.09,10.61,1.95.46,4.05.36,6.03.36,3.14,0,6.34,0,9.48,0,8.61,0,17.24,0,25.84,0,21.82,0,43.65,0,65.47,0,5.44,0,10.93,0,16.37,0,1.8-.75,3.45-2.15,5.17-3.07,2.91-1.71,6.12-3.18,9.48-3.7,3.44-.65,6.93.15,10.34.59,2.27.16,4.65-.07,6.89-.39"/><path class="b" d="M9.42,84.75c5.87,3.74,10.29,9.87,17.23,11.82,1.63.64,3.46.53,5.17.52,2.27,0,4.63,0,6.89,0,7.17,0,14.37,0,21.54,0,13.2,0,26.42,0,39.63,0,12.92,0,25.85,0,38.77,0,4.87,0,9.78,0,14.65,0,1.15-.04,2.35-.78,3.45-1.08,1.91-.64,4.02-1.1,6.03-1.21,4.12-.32,8.12,1.04,12.06,2.01,2.6.4,5.32-.28,7.75-1.18"/><path class="b" d="M9.42,81.15c5.4,3.3,9.47,8.68,15.51,10.95,1.3.58,2.92.22,4.31.31,2.56,0,5.2,0,7.75,0,6.88,0,13.79,0,20.68,0,12.92,0,25.85,0,38.77,0,28.71,0,57.44,0,86.15,0"/><path class="b" d="M9.42,77.67c5.81,2.44,10.27,7.41,16.37,9.27,1.71.69,3.34.91,5.17.8,1.97,0,4.06,0,6.03,0,6.31,0,12.65,0,18.95,0,13.2,0,26.42,0,39.63,0,29,0,58.01,0,87.01,0"/><path class="b" d="M9.42,74.15c3.7.41,7.12,2.02,10.34,3.8,2.74,1.33,5.7,2.36,8.61,3.22,2.25.66,4.62,1.28,6.89,1.87,1.97.04,4.06,0,6.03.02,5.44,0,10.93,0,16.37,0,13.49,0,27,0,40.49,0,28.14,0,56.29,0,84.43,0"/><path class="b" d="M9.42,70.76c3.15-.6,6.49-.57,9.48.7,3.11,1.05,6.35,1.98,9.48,2.98,3.78,1.11,7.46,2.73,11.2,3.94,1.97,0,4.06,0,6.03,0,21.53,0,43.08,0,64.61,0,7.46,0,14.94,0,22.4,0,3.13,0,6.34,0,9.48,0,1.49-.01,2.93-1.06,4.31-1.55,4.28-2.02,9.37-2.98,13.78-.82.79.35,1.85.92,2.58,1.38.67.47,1.7,1.18,2.58,1,5.73,0,11.5,0,17.23,0"/><path class="b" d="M9.42,67.56c4.91-2.06,6.95-2.17,12.06-.98,4.42.87,8.8,2.23,12.92,4.04,2.31.9,4.54,2.32,6.89,3.08,4.87,0,9.78,0,14.65,0,26.99-.03,53.99.06,80.98-.03,2.35-1.91,5.04-3.46,7.75-4.78,1.93-1.05,3.96-2.18,6.03-2.93,8.54-3.2,13.79,2.95,19.81,7.74h12.06"/><path class="b" d="M9.42,64.49c4.08-2.03,6.59-3.05,11.2-2.33,5.37.48,10.64,2.06,15.51,4.36,1.7.77,3.48,1.71,5.17,2.5,1.08,0,2.36,0,3.45,0,4.58,0,9.21,0,13.78,0,9.18,0,18.39,0,27.57,0,4.29,0,8.63,0,12.92,0,1.39.04,2.91-.44,4.31-.39,1.09-.01,2.39.15,3.45.39,3.42,0,6.91,0,10.34,0,6.01-.07,12.09.15,18.09-.09,1.92-1.74,3.89-3.65,6.03-5.12,1.69-1.02,3.54-2.08,5.17-3.2,5.04-3.49,10.52-6.06,16.37-2.71,5.14,2.7,8.66,7.77,13.78,10.47,1.8,1.04,4.04.54,6.03.65"/><path class="b" d="M9.42,60.84c4.04-1.63,6.8-2.55,11.2-2.01,5.61.33,11.16,1.7,16.37,3.78.78.3,1.81.73,2.58,1.04.77.31,1.73.83,2.58.69,3.71,0,7.49,0,11.2,0,17.51,0,35.04,0,52.55,0,9.47,0,18.96,0,28.43,0,.96.2,1.96-.6,2.58-1.25.74-.69,1.81-1.61,2.58-2.25,1.82-1.56,4.13-2.66,6.03-4.11,9.02-7.02,14.44-9.58,24.12-1.56,3.9,3.29,7.57,6.39,12.92,6.75"/><path class="b" d="M9.42,55.46c2.53-.54,5.15-1.23,7.75-1.25,6.44.18,12.78,1.68,18.95,3.41,2.55.67,5.16,1.57,7.75,2.05,4.58,0,9.21,0,13.78,0,26.12-.09,52.28.18,78.4-.1,1.64-1.27,3.41-2.65,5.17-3.75,2.41-1.3,4.74-2.94,6.89-4.62,6.9-5.42,12.76-7.91,20.68-2.58,4.49,3.01,8.03,6.48,13.78,6.81"/><path class="b" d="M9.42,48.56c3.42-.19,6.93-.54,10.34,0,7.56,1.25,14.74,4.38,22.4,5.14,3.41.38,6.93.46,10.34.04,4.88-.68,9.99-.82,14.65,1.03,1.62.49,3.5.14,5.17.24,3.13,0,6.34,0,9.48,0,9.18,0,18.39,0,27.57,0,8.03,0,16.09,0,24.12,0,1.57.15,2.97-1.15,4.31-1.79,1.92-1.13,4.06-2.15,6.03-3.19,8.91-5.56,15.04-12.01,25.84-5.53,4.05,2.48,7.98,5.48,12.92,5.72"/><path class="b" d="M9.42,40.89c3.14.19,6.37.28,9.48.74,5.4,1.12,10.22,4.15,15.51,5.65,4.16,1.27,8.64,1.52,12.92.74,2.6-.41,5.19-1.28,7.75-1.87,6.43-1.69,11.96.53,17.23,4.14,16.65.09,33.32,0,49.97.03,3.23.23,6.4-.7,9.48-1.58,4.07-1.22,8.15-2.66,12.06-4.33,9.23-4.79,15.32-9.62,25.84-4.13,4.14,2.16,8.17,4.96,12.92,5.5"/><path class="b" d="M9.42,33.7c3.14.36,6.37.7,9.48,1.28,5.88,1.72,10.57,6.17,16.37,8.12,4.15,1.55,8.78,1.38,12.92-.1,8.23-3.21,12.94-6.67,21.54-1.44,1.42.85,2.95,1.9,4.31,2.84.44.29,1.28.88,1.72,1.16.44.06,1.28.1,1.72.08,9.47,0,18.96,0,28.43,0,1.47,0,2.87-1.06,4.31-1.32,3.72-.73,7.49-1.49,11.2-2.26,6.56-1.4,13.32-1.99,19.81-3.69,5.78-1.61,11.1-5.1,17.23-5.31,8.9-.51,15.88,6.19,24.12,8.31"/><path class="b" d="M9.42,28.78c2.86.33,5.77.82,8.61,1.28,5.25,1.29,9.2,5.45,13.78,8.1,2.11,1.19,4.43,2.62,6.89,2.8,1.38,0,2.92,0,4.31,0,1.09-.03,2.41.13,3.45-.27,3.7-1.11,6.87-3.51,10.34-5.14,3.45-1.72,7.56-2.21,11.2-.78,2.73,1,5.26,2.66,7.75,4.13,1.58.83,3.32,2.08,5.17,2.06,2.55,0,5.2,0,7.75,0,4.58-.05,9.21.1,13.78-.07,1.97-1.02,4.01-2.21,6.03-3.12,2.16-.98,4.63-1.38,6.89-2.07,4.24-1.2,8.56-2.34,12.92-3.01,6.05-.95,12.3-1.18,18.09-3.35,4.41-1.52,9.07-2.91,13.78-2.39,8.11.95,15.04,5.84,22.4,8.98"/><path class="b" d="M9.42,26.64c3.14.19,6.38.31,9.48.86,2.82.72,5.35,2.41,7.75,3.99,2.51,1.65,5.04,3.5,7.75,4.8,2.56,0,5.2,0,7.75,0,10.98-.08,6.21.99,15.51-4.04,4.28-2.31,9.26-2.66,13.78-.83,2.3.83,4.59,1.99,6.89,2.81,2.24.68,4.63,1.21,6.89,1.83,2.5.51,5.21.11,7.75.23,1.08,0,2.37,0,3.45,0,3.34-.76,6.43-2.5,9.48-3.99,3.21-1.78,6.89-2.45,10.34-3.57,6.99-2.39,14.19-4.18,21.54-5.01,5.8-.58,11.38-2.8,17.23-2.9,5.14-.12,10.08,1.78,14.65,3.96,1.95.95,4.09,1.8,6.03,2.77,2.28,1.17,4.59,2.54,6.89,3.68"/><path class="b" d="M9.42,26.19c7.87-.84,10.84-1.37,18.09,2.43,1.39.69,2.92,1.49,4.31,2.17.77.35,1.7.97,2.58.81,5.73,0,11.5,0,17.23,0,1.21.16,2.41-.56,3.45-1.08,1.36-.67,2.89-1.38,4.31-1.91,4.95-2.04,10.45-1.67,15.51-.24,3.36.93,6.9,1.25,10.34,1.71,5.54.81,11.22-.01,16.37-2.17,3.12-1.2,6.21-2.75,9.48-3.52,7-1.64,13.58-4.86,20.68-6.18,3.67-.76,7.47-1.13,11.2-1.53,4.26-.54,8.66-1.06,12.92-.26,4.9.85,9.4,3.22,13.78,5.46,1.92,1.01,4.06,1.85,6.03,2.76,2.28,1.09,4.6,2.33,6.89,3.4"/><path class="b" d="M9.42,26.51c10.99-3.52,14.12-2.95,24.98.42,6.02,0,12.07,0,18.09,0,2.07.22,4.07-.56,6.03-1.09,2.51-.65,5.16-1.1,7.75-1.23,5.74-.25,11.48.83,17.23.49,6.43.04,12.85-1.06,18.95-3.07,2.25-.69,4.6-1.46,6.89-2.01,1.98-.44,4.09-.8,6.03-1.39,4.3-1.26,8.56-2.86,12.92-3.89,3.93-.96,8.02-1.44,12.06-1.58,5.75-.2,11.69-.53,17.23,1.37,4.54,1.44,8.7,3.93,12.92,6.07,3.91,1.84,8,3.45,12.06,4.93"/><path class="b" d="M9.42,22.25c3.42,0,6.91,0,10.34,0,3.67-.69,7.43-1.51,11.2-1.11,2.29.17,4.65.62,6.89,1.11,3.71,0,7.49,0,11.2,0,5.16.01,10.35.02,15.51-.16,4-.06,8.06.07,12.06-.12,9.32-.59,18.46-2.78,27.57-4.74,3.39-.78,6.93-1.19,10.34-1.87,4.29-.92,8.58-2.11,12.92-2.75,5.4-.88,10.92-.72,16.37-.45,4.91.05,9.93.19,14.65,1.67,5.11,1.5,9.76,4.25,14.65,6.31,1.92.78,4.02,1.49,6.03,2.02,1.06.14,2.37.07,3.45.09"/></svg>