<?xml version="1.0" encoding="UTF-8"?><svg id="a" xmlns="http://www.w3.org/2000/svg" width="1920" height="2400" viewBox="0 0 192 240"><defs><style>.b{fill:none;stroke:#fff;stroke-miterlimit:10;stroke-width:.4px;}.c{stroke-width:0px;}</style></defs><rect class="c" x="0" width="192" height="240"/><path class="b" d="M8.31,222.88c2.22-.7,4.64-1.23,6.98-1.02,1.71.23,3.51.72,5.24.78,3.79.25,7.62-.36,11.34-1.03,4.58-.82,9.3-1.78,13.96-1.11,2.31.38,4.64,1.2,6.98,1.43,6.12.72,12.46.63,18.32,2.75,1.44.5,3.01,1.17,4.36,1.87,1.93.5,4.12.12,6.11.23,4.64,0,9.32,0,13.96,0,24.43,0,48.87,0,73.29,0,.76,0,1.85,0,2.62,0,.75-.2,1.84-.43,2.62-.5,3.17-.15,6.43-.06,9.6-.03"/><path class="b" d="M8.31,213.35c2.44-1.04,5.19-1.81,7.85-1.41,3.43.73,6.97,1.23,10.47,1.48,7.88.54,15.91.48,23.56,2.71,5.52,1.13,11.26,1.6,16.58,3.57,1.75.63,3.59,1.44,5.24,2.3,1.09.07,2.4.03,3.49.04,5.22,0,10.49,0,15.71,0,24.43,0,48.87,0,73.29,0,.76,0,1.85.01,2.62-.04,1.62-.84,3.45-1.65,5.24-2.08,3.71-.71,7.6-.24,11.34-.15"/><path class="b" d="M8.31,203.86c3.84-1.55,7.41-1.52,11.34-.41,3.8.88,7.61,2.01,11.34,3.15,5.48,1.68,10.99,3.44,16.58,4.75,3.14.76,6.43,1.11,9.6,1.71,4.27.72,8.36,2.31,12.22,4.25,5.22,0,10.49,0,15.71,0,25.01,0,50.03,0,75.04,0,2.88-.07,5.86.16,8.73-.12,1.06-.39,2.38-.79,3.49-1.02,3.72-.59,7.59-.44,11.34-.81"/><path class="b" d="M8.31,196.27c13.84-2.23,25.48,7.82,38.39,10.81,5.47,1.19,11.28.81,16.58,2.81,2.16.63,4.08,2.05,6.11,2.67,4.05,0,8.16,0,12.22,0,22.1,0,44.21,0,66.31,0,7.55,0,15.13,0,22.69,0,2.59,0,5.27,0,7.85,0,1.69-.07,3.59.21,5.24-.27"/><path class="b" d="M8.31,191.23c6.15,1.11,12.43,2.08,18.32,4.25,7.22,2.49,14.16,6.25,21.81,7.28,2.87.32,5.85.12,8.73.29,2.97.15,6,.78,8.73,1.97,1.79.73,3.54,1.88,5.24,2.81,4.05,0,8.16,0,12.22,0,33.45,0,66.9,0,100.34,0"/><path class="b" d="M8.31,188.11c2.27.99,4.6,2.12,6.98,2.83,2.85.7,5.85,1.1,8.73,1.71,5.83,1.12,11.64,2.58,17.45,3.79,3.71.74,7.55,1.44,11.34,1.06,8.48-.96,14.02.15,20.94,5.3,1.6.61,3.54.18,5.24.3,2.88,0,5.84,0,8.73,0,8.13,0,16.3,0,24.43,0,23.85,0,47.7,0,71.55,0"/><path class="b" d="M8.31,185.26c2.24,1.31,4.55,2.76,6.98,3.69,5.61,1.78,11.63,1.71,17.45,2.02,3.77.16,7.59.39,11.34.75,2.88.27,5.83.75,8.73.39,6.16-.77,11.83-.94,17.45,2.13,1.45.74,3.01,1.7,4.36,2.6,1.02.67,2.17,1.73,3.49,1.51,6.68,0,13.39,0,20.07,0,9.01,0,18.04,0,27.05,0,19.48,0,38.98,0,58.46,0"/><path class="b" d="M8.31,183.29c2.7,1.95,5.48,4.14,8.73,5.08,4.3,1.17,8.83.26,13.09-.64,4.57-.99,9.26-2,13.96-1.83,2.61.04,5.24.78,7.85.7,5.52-.19,11.2-.98,16.58.69,4.29,1.22,8.27,3.45,12.22,5.48,1.06.76,2.23.94,3.49.84,1.4,0,2.96,0,4.36,0,4.05,0,8.16,0,12.22,0,8.72,0,17.46,0,26.18,0,18.9,0,37.82,0,56.72,0"/><path class="b" d="M8.31,181.03c2.87,2.32,5.9,4.96,9.6,5.78,3.89.73,7.77-.8,11.34-2.18,4.45-1.77,9.09-3.64,13.96-3.58,2.36-.04,4.7.66,6.98,1.14,1.98.34,4.1.42,6.11.4,4.34-.07,8.75-.37,13.09.05,6.07.56,12.08,2.14,17.45,5.07.77.37,1.83.85,2.62,1.17.44,0,1.31,0,1.75,0,2,0,4.11,0,6.11,0,2.58-.12,5.31.26,7.85-.19,1.4-.55,2.95-1.21,4.36-1.75,3.01-1.18,6.39-1.75,9.6-1.1,1.78.34,3.63,1.05,5.24,1.88.76.38,1.73,1.11,2.62,1.16,6.39,0,12.81,0,19.2,0,8.43,0,16.88,0,25.3,0,1.43.09,2.96-.48,4.36-.64,2.57-.37,5.26-.49,7.85-.65"/><path class="b" d="M8.31,177.18c2.9,2.21,5.98,4.64,9.6,5.47,3.9.7,7.74-.97,11.34-2.25,3.88-1.45,8.02-2.73,12.22-2.46,3.65.08,6.98,1.85,10.47,2.68,8.41,1.96,16.88-.92,25.3-1.29,6.72-.6,12.54,4.03,19.2,4.03,14.25-.28,16.93-12.29,32.28.78,13.08,0,26.18,0,39.27,0,.83.1,1.89-.24,2.62-.62,1.06-.45,2.37-.9,3.49-1.18,3.12-.74,6.42-.66,9.6-.69"/><path class="b" d="M8.31,171.55c9.79,5.66,11.12,5,21.81,3.51,3.49-.38,7.12-.11,10.47.94,2.69.82,5.33,2.09,7.85,3.32,4.04.2,8.17.02,12.22.08,3.46-.07,7.02.14,10.47-.1,1.98-.72,4.07-1.52,6.11-2.08,2.23-.67,4.68-.87,6.98-.46,5.16.94,10.46,2.54,15.71,1.22,4.32-.95,8.18-3.31,12.22-5.01,7.88-3.09,13.37,1.98,19.2,6.43,11.92,0,23.86,0,35.77,0,1.17.14,2.42-.49,3.49-.89,1.07-.39,2.38-.8,3.49-1.08,3.11-.8,6.42-.74,9.6-.89"/><path class="b" d="M8.31,165c3.49.88,6.96,2.1,10.47,2.84,4.05.66,8.27.66,12.22,1.88,2.09.61,4.2,1.53,6.11,2.57,1.45.69,2.83,1.9,4.36,2.37,2,0,4.11,0,6.11,0,10.46,0,20.95,0,31.41,0,6.97-.07,13.98.14,20.94-.08,4.31-1.36,8.15-3.93,12.22-5.83,5.66-2.73,11.49-1.52,16.58,1.84,2.08,1.21,3.99,2.95,6.11,4.08,5.22,0,10.49,0,15.71,0,5.51,0,11.07,0,16.58,0,2.91-.51,5.81-1.56,8.73-2.11,2.56-.46,5.27-.56,7.85-.87"/><path class="b" d="M8.31,159.12c4.74-.21,9.37,1.12,13.96,2.11,6.23,1.27,11.72,4.72,16.58,8.7,14.83,0,29.67,0,44.5,0,4.34,0,8.74,0,13.09,0,1.4,0,2.96,0,4.36,0,1.12-.05,2.53.24,3.49-.49,3.4-1.84,6.79-3.91,10.47-5.17,5.1-1.97,10.82-1.4,15.71.92,3.5,1.48,6.79,3.7,10.47,4.74,3.76,0,7.58,0,11.34,0,2.88,0,5.85,0,8.73,0,2,.01,4.13.06,6.11-.32,3.22-.42,6.43-1.29,9.6-1.98,2.28-.42,4.7-.67,6.98-1.08"/><path class="b" d="M8.31,154.13c4.17-.99,8.2-.29,12.22,1,6.56,1.8,12.28,5.72,17.45,10.02,15.12.12,30.25,0,45.37.04,6.68,0,13.39,0,20.07,0,1.8-.34,3.5-1.53,5.24-2.12,2.52-1,5.25-1.74,7.85-2.49,6-1.82,12.43-1.44,18.32.59,2.29.71,4.65,1.55,6.98,2.12,2.9.55,5.84,1.31,8.73,1.9,3.76,0,7.58,0,11.34,0,4.05-.04,8.17.08,12.22-.05,3.15-1.12,6.44-2.06,9.6-3.15"/><path class="b" d="M8.31,150.17c3.85-1.24,7.59-.94,11.34.46,6.65,2.11,12.59,5.95,18.32,9.82,19.19,0,38.4,0,57.59,0,2,0,4.11,0,6.11,0,1.67-.6,3.5-1.15,5.24-1.53,3.43-.73,7.04-.71,10.47-1.46,7.31-1.54,14.56-2.02,21.81.09,2.97.69,5.88,1.84,8.73,2.9,4.93,0,9.91,0,14.83,0,4.64-.02,9.33.04,13.96-.03,2.32-1.23,4.7-2.61,6.98-3.91"/><path class="b" d="M8.31,147.07c3.94-1.38,7.5-1.11,11.34.38,3.85,1.31,7.63,3.01,11.34,4.68,2.58,1.16,5.24,2.37,7.85,3.45,1.38.26,2.96.09,4.36.14,16.86,0,33.74,0,50.61,0,2.17.28,4.04-1.03,6.11-1.47,3.11-.8,6.44-.75,9.6-.26,8.12,1.88,16.26-1.3,24.43-.8,2.34.13,4.76.58,6.98,1.33,1.39.44,2.84,1.38,4.36,1.19,10.17-.07,20.38.13,30.54-.07,2.69-1.9,5.27-4.15,7.85-6.18"/><path class="b" d="M8.31,144.26c4.52-1.72,7.79-1.23,12.22.35,3.75,1.23,7.53,2.58,11.34,3.58,3.7.99,7.55,1.65,11.34,2.17,2,.25,4.09.72,6.11.62,13.66,0,27.35,0,41.01,0,5.72-3.81,11.04-4.55,17.45-1.99,2.53.88,5.1,2.24,7.85,1.99,3.17-.02,6.42.04,9.6-.03,2.58-.32,5.25-.67,7.85-.7,2.02-.03,4.15.23,6.11.72,2.88,0,5.84,0,8.73,0,8.13,0,16.3,0,24.43,0,0,0,.87-.14.87-.14l.87-.69c.8-.59,1.88-1.46,2.62-2.13,2.37-2.15,4.66-4.6,6.98-6.79"/><path class="b" d="M8.31,140.81c2.14-1.05,4.56-1.9,6.98-1.84,3.56.32,7.02,1.64,10.47,2.52,3.41.94,6.95,1.69,10.47,2.04,4.33.5,8.78.28,13.09.95,1.13.23,2.42.65,3.49,1.06.78.3,1.76.83,2.62.69,7.26,0,14.55,0,21.81,0,3.17,0,6.42,0,9.6,0,1.51-.48,2.91-1.63,4.36-2.26,4.93-2.6,9.96-2.15,14.83.31,1.68.65,3.36,2.07,5.24,1.96,3.47,0,7,0,10.47,0,16.28-.07,32.59.14,48.86-.08,1.86-1.98,4.14-3.74,6.11-5.59,2.36-2.32,4.63-4.93,6.98-7.25"/><path class="b" d="M8.31,136.56c2.31-1.54,5.01-2.92,7.85-2.92,5.32.33,10.47,2.05,15.71,2.96,3.73.71,7.56,1.12,11.34,1.43,3.86.24,7.77.77,11.34,2.35,1.09.37,2.32,1.09,3.49,1.12,2.29,0,4.69,0,6.98,0,4.93,0,9.9,0,14.83,0,2,0,4.11,0,6.11,0,3.86-1.6,7.94-3.37,12.22-2.79,2.4.28,4.79,1.17,6.98,2.17,1.27.8,2.93.61,4.36.62,19.77,0,39.56,0,59.33,0,2.14-1.59,3.93-3.85,6.11-5.42,3.1-2.61,5.81-5.79,8.73-8.59"/><path class="b" d="M8.31,132.38c2.32-1.62,5-3.02,7.85-3.28,4.35-.21,8.75.12,13.09.46,8.51.83,17.3,1.26,25.3,4.56,2.81,1.06,5.75,2.06,8.73,2.56,4.92.21,9.91.06,14.83.03,1.7.06,3.54.11,5.24,0,3.47-.5,6.94-1.54,10.47-1.57,2.33-.05,4.75.34,6.98,1.02,1.65.75,3.47.62,5.24.6,20.94,0,41.89,0,62.82,0,2.57-2.08,5.26-4.2,7.85-6.25,2.38-2.06,4.68-4.42,6.98-6.57"/><path class="b" d="M8.31,128.1c1.87-1.14,3.98-2.1,6.11-2.63,2.27-.53,4.7-.74,6.98-1.23,6.57-1.31,13.37-2.56,20.07-1.4,5.22.74,9.99,3.16,14.83,5.08,3.32,1.28,6.9,2.09,10.47,2.18,3.47.14,7.01-.35,10.47.02,1.44.13,2.96.68,4.36.96,1.98.36,4.11.41,6.11.42,3.19-.09,6.43.31,9.6.52,10.17,0,20.37,0,30.54,0,10.75,0,21.53,0,32.28,0,3.47,0,7,0,10.47,0,4.78-2.59,9.05-6.06,13.09-9.67"/><path class="b" d="M8.31,123.62c4.14-2,8.92-2.15,13.09-4.06,8.46-3.83,16.02-7.84,25.3-3.68,5.96,2.78,11.62,6.71,18.32,7.41,3.74.52,7.62.15,11.34.82,3.01.57,5.69,2.41,8.73,2.91,2.25.51,4.69.18,6.98.27,3.76,0,7.58,0,11.34,0,15.99,0,32,0,47.99,0,7.55,0,15.13,0,22.69,0,1.62.18,3.05-1.15,4.36-1.91,1.74-1.15,3.57-2.47,5.24-3.72"/><path class="b" d="M8.31,118.88c3.11-1.05,6.51-1.26,9.6-2.38,8.02-3.41,14.9-11.98,24.43-10.06,3.19.62,6.04,2.41,8.73,4.15,2.78,1.78,5.67,3.6,8.73,4.88,5.22,2.41,11.11,2.08,16.58,3.47,2.48.66,4.6,2.37,6.98,3.28,1.3.61,2.96.23,4.36.33,2.59,0,5.27,0,7.85,0,18.61,0,37.23,0,55.84,0,6.39,0,12.81,0,19.2,0,2.88,0,5.85,0,8.73,0,1.42-.76,2.99-1.67,4.36-2.5"/><path class="b" d="M8.31,113.93c3.12-1.05,6.55-1.26,9.6-2.51,7.62-3.52,13.61-11.79,22.69-11.38,7.11.58,12.13,6.51,18.32,9.41,2.72,1.41,5.72,2.42,8.73,3.01,2.88.59,5.92.88,8.73,1.8,2.17.65,4.08,2.13,6.11,3.09,1.27.74,2.96.38,4.36.46,2.59,0,5.27,0,7.85,0,11.34,0,22.69,0,34.03,0,5.22,0,10.49,0,15.71,0,1.99-.21,4.1-.44,6.11-.43,2.01-.04,4.11.27,6.11.43,4.05,0,8.16,0,12.22,0,2.88,0,5.85,0,8.73,0,2.08-.64,4.13-1.75,6.11-2.64"/><path class="b" d="M8.31,109.74c3.72-1.3,7.85-1.6,11.34-3.52,6.68-3.54,12.92-9.45,20.94-9.15,7.64.38,13.39,6.22,20.07,9.24,5.47,2.88,11.8,3.41,17.45,5.8.45.2,1.32.66,1.75.91,1.4.1,2.96.04,4.36.05,2.59,0,5.27,0,7.85,0,15.7,0,31.42,0,47.12,0,5.22-.35,10.44-1.56,15.71-1.5,5.81-.16,11.67,1.43,17.45.45,1.44-.27,2.96-.91,4.36-1.32,2.27-.68,4.68-1.22,6.98-1.78"/><path class="b" d="M8.31,106.63c3.74-1.14,7.75-1.64,11.34-3.26,13.92-6.45,21.86-11.23,36.65-2.97,4.51,2.37,9.15,4.64,13.96,6.33,1.7.5,3.46,1.5,5.24,1.61,4.64,0,9.32,0,13.96,0,4.05-.03,8.17.06,12.22-.04,3.13-.74,6.39-1.21,9.6-1.38,3.25-.23,6.44.85,9.6,1.42,2.88,0,5.84,0,8.73,0,4.05,0,8.16,0,12.22,0,2.58-.1,5.32.28,7.85-.31,6.59-1.63,13.31-2.79,20.07-3.49,2.32-.24,4.67-.94,6.98-1.25,2.28-.24,4.69-.08,6.98.04"/><path class="b" d="M8.31,103.6c4.18.28,8.26-.97,12.22-2.18,5.52-1.68,10.99-3.65,16.58-5.11,10.26-2.61,14.9-2.26,24.43,2.25,2.59,1.17,5.25,2.43,7.85,3.57,1.09.47,2.39,1.03,3.49,1.48.78,0,1.84,0,2.62,0,4.64,0,9.32,0,13.96,0,1.7,0,3.54,0,5.24,0,1.11.02,2.45.06,3.49-.4,6.43-2.03,13.44-3.11,20.07-1.46,2.59.58,5.25,1.29,7.85,1.84,2,.04,4.11,0,6.11.02,4.64,0,9.32,0,13.96,0,1.39,0,2.97,0,4.36,0,.41,0,1.33,0,1.75-.02.41-.16,1.33-.5,1.75-.67,6.96-2.88,14.19-5.71,21.81-5.95,2.67.1,5.31,1.04,7.85,1.8"/><path class="b" d="M8.31,98.86c6.1,0,12.23,0,18.32,0,2.38.01,4.73-1.09,6.98-1.75,4.98-1.68,9.76-4.06,14.83-5.47,3.72-.99,7.71-.44,11.34.65,3.87,1.17,7.62,2.9,11.34,4.45,1.97.72,4.01,1.87,6.11,2.12,3.76,0,7.58,0,11.34,0,2.97.22,5.83-1.03,8.73-1.5,3.71-.75,7.56-.98,11.34-.92,4.97-.1,9.94.55,14.83,1.35,2.29.36,4.69.72,6.98,1.04,1.7.07,3.54.02,5.24.03,5.51,0,11.07,0,16.58,0,2.74-.66,5.25-2.37,7.85-3.44,4.1-1.9,8.52-3.53,13.09-3.57,3.77-.19,7.16,1.89,10.47,3.39"/><path class="b" d="M8.31,94.13c8.13,0,16.3,0,24.43,0,5.22.08,4.3.23,8.73-2.41,7.45-4.72,12.86-7.14,21.81-5.05,5.87,1.27,11.44,4,17.45,4.64,4.93.35,9.9-.59,14.83-.24,5.59.2,11,2.12,16.58,2.41,7.27.37,14.55-.61,21.81-.55,2.6.03,5.3.24,7.85.76,1.95.58,4.1.44,6.11.44,8.58-1.42,16.31-7.32,25.3-6.19,3.87.34,7.12,2.83,10.47,4.56"/><path class="b" d="M8.31,89.39c8.72,0,17.46,0,26.18,0,1.7,0,3.53,0,5.24,0,1.25-.43,2.4-1.55,3.49-2.27,7.34-5.67,15.17-8.24,24.43-6.81,3.77.49,7.55,1.39,11.34,1.74,4.37.27,8.85.32,13.09,1.53,3,.81,5.94,2.1,8.73,3.45,1.95.77,3.97,2.41,6.11,2.35,2.88,0,5.84,0,8.73,0,2.29,0,4.69,0,6.98,0,6.45-2.21,13.04-6.06,20.07-4.68,7.22,1.68,14.54-1.07,21.81-.96,3.82,0,7.75.52,11.34,1.86,1.46.62,3,1.53,4.36,2.35,1.03.57,2.24,1.62,3.49,1.43"/><path class="b" d="M8.31,84.65c11.05,0,22.11,0,33.16,0,1.4.25,2.49-1.08,3.49-1.85,1.34-1.1,2.9-2.25,4.36-3.17,4.93-3.25,10.58-5.79,16.58-5.83,3.8-.09,7.6.67,11.34,1.17,3.48.38,7.09.43,10.47,1.48,3.39.97,6.62,2.64,9.6,4.49,2.04,1.12,3.92,2.92,6.11,3.71,6.68-.02,13.39.04,20.07-.02,5.37-3.72,11.4-10.77,18.32-10.61,3.45.62,6.98,1.14,10.47,1.51,6.66.73,13.11,2.77,19.2,5.52,2.35,1,4.82,2.04,6.98,3.41,1.66.38,3.54.11,5.24.19"/><path class="b" d="M8.31,79.91c10.17,0,20.37,0,30.54,0,2.28-.11,4.74.26,6.98-.21,1.05-.95,2.36-2.02,3.49-2.88,7.28-5.88,13.85-10.02,23.56-7.78,2.86.61,5.8,1.26,8.73,1.53,3.28.44,6.58,1.36,9.6,2.73,2.71,1.22,5.36,2.81,7.85,4.43,1.37.72,2.71,2.33,4.36,2.17,4.34,0,8.74,0,13.09,0,2.29-.08,4.71.17,6.98-.14,4.65-4.34,8.49-9.79,13.96-13.17,3.17-1.92,5.37-1.22,8.73-.54,4.47.77,8.97,1.84,13.09,3.79,5.86,2.7,11.01,6.72,16.58,9.94,2.57.3,5.27.05,7.85.13"/><path class="b" d="M8.31,75.18h40.14c6.51-5.73,13.04-13.26,22.69-10.84,2.33.5,4.68,1.38,6.98,1.99,1.68.44,3.54.67,5.24.99,4.79.84,9.54,2.25,13.96,4.3,1.73.79,3.56,1.71,5.24,2.6.43.23,1.32.7,1.75.93.77.04,1.84.03,2.62.03,5.22,0,10.49,0,15.71,0,5.23-4.23,9.09-10.16,14.83-13.77,3.24-2.01,5.28-1.25,8.73-.68,4.78.61,9.65,1.51,13.96,3.77,5.41,2.72,9.96,6.86,14.83,10.39,1.03.48,2.39.24,3.49.29,1.7,0,3.54,0,5.24,0"/><path class="b" d="M8.31,70.44h41.88c.98-.43,1.88-1.6,2.62-2.34,1.35-1.4,2.88-2.94,4.36-4.2,6.53-5.67,11.64-5.33,19.2-2.03,5.24,2.16,11.05,2.09,16.58,2.93,4.15.56,8.3,1.57,12.22,3.07,2.04.73,4.09,1.8,6.11,2.58,1.4,0,2.96,0,4.36,0,1.7-.06,3.56.14,5.24-.13,2.15-1.02,4.22-2.48,6.11-3.92,4.72-3.34,10.26-9.64,16.58-8.14,3.15.54,6.43.22,9.6.35,3.28.1,6.62.8,9.6,2.2,4.89,2.28,9,5.97,13.09,9.41,1.04.39,2.4.19,3.49.24,1.39,0,2.97,0,4.36,0"/><path class="b" d="M8.31,65.7c14.09-.11,28.75.21,42.76-.11,4.94-5.47,10.85-13.26,19.2-11.38,2.71.57,5.27,1.87,7.85,2.82,1.92.71,4.07,1.07,6.11,1.24,6.67.45,13.52-.48,20.07,1.28,8.36,2.17,10.34,6.58,20.07,3.33,5.81-1.83,11.12-6.18,17.45-5.87,2.28.47,4.69.58,6.98.09,3.45-.63,6.94-1.66,10.47-1.55,7.45.05,13.06,5.58,18.32,10.16h6.11"/><path class="b" d="M8.31,60.96h41.01c5.83-5.42,11.04-14.31,20.07-13.8,3.01.21,5.88,1.45,8.73,2.36,2.51.8,5.23,1.08,7.85,1.18,8.3.09,16.77-.38,24.43,3.43,8.09,4.51,15.03,3.05,23.56,1.17,2.26-.43,4.68-.75,6.98-.54,1.11.09,2.39.48,3.49.59,1.1.09,2.41-.03,3.49-.24,7.34-1.76,13.45-5.26,20.94-1.31,3.27,1.67,6.1,4.22,8.73,6.75.67.52,1.82.44,2.62.42,1.09,0,2.4,0,3.49,0"/><path class="b" d="M8.31,54.52c.8.43,1.83,1.03,2.62,1.47,1.94.5,4.12.12,6.11.23,4.05,0,8.16,0,12.22,0,4.05,0,8.16,0,12.22,0,1.7,0,3.53,0,5.24,0,.99-.07,1.88-1.05,2.62-1.63,8.53-7.59,14.21-16.13,27.05-12.34,8.25,2.32,16.92.5,25.3,1.66,3.94.47,7.76,1.8,11.34,3.46,3.05,1.25,6.33,2.13,9.6,2.59,5.48.83,11.11.43,16.58,1.31,1.74.24,3.53.92,5.24,1.29,4.17.64,8.24-1.13,12.22-2.09,3.68-.97,7.69-1.3,11.34-.05,2.17.72,4.28,1.94,6.11,3.3,1.1.75,2.21,2.04,3.49,2.49,1.99,0,4.11,0,6.11,0"/><path class="b" d="M8.31,48.51c2.3.9,4.69,1.89,6.98,2.81,1.38.31,2.96.11,4.36.17,2.59,0,5.26,0,7.85,0,4.05,0,8.16,0,12.22,0,1.4,0,2.96,0,4.36,0,.84.03,1.91.04,2.62-.48,4.18-2.04,7.64-5.29,11.34-8.04,7.35-5.63,12.77-6.73,21.81-5.39,11.13,1.01,22.51-2.14,33.16,2.6,7.04,2.53,14.56,3.31,21.81,4.99,2.03.48,4.16,1.1,6.11,1.83,2.21.92,4.54,1.93,6.98,1.97,5.55.22,11.02-1.68,16.58-1.16,2.38.19,4.82.84,6.98,1.85,1.43.51,2.78,1.99,4.36,1.83,2.59,0,5.27,0,7.85,0"/><path class="b" d="M8.31,44.49c2.87.79,5.85,1.46,8.73,2.19,4.92.18,9.91.01,14.83.07,3.76,0,7.58,0,11.34,0,1.7,0,3.53,0,5.24,0,.83-.18,1.86-.65,2.62-1.02,8.22-4.44,15.44-11.45,25.3-11.78,4.35-.09,8.75.17,13.09-.31,6.07-.48,12.24-1.49,18.32-.58,2.64.38,5.23,1.43,7.85,1.92,6.97,1.38,14.22,1.77,20.94,4.25,3.03,1,5.83,2.72,8.73,4.02,3.85,1.58,8.1,1.9,12.22,2.11,3.79.16,7.64.5,11.34,1.39,4.93,0,9.91,0,14.83,0"/><path class="b" d="M8.31,42.01c15.12,0,30.25,0,45.37,0,.79,0,1.83,0,2.62,0,1.23-.3,2.41-1.27,3.49-1.9,2.28-1.45,4.63-3,6.98-4.33,3.98-2.27,8.44-4.1,13.09-4.13,8.52.11,16.83-2.35,25.3-2.71,3.25-.2,6.42.82,9.6,1.28,3.45.41,7,.32,10.47.5,5.46.21,10.96,1.49,15.71,4.25,4.81,3.18,10.06,5.74,15.71,7.01,9.01.05,18.04,0,27.05.02"/><path class="b" d="M8.31,37.28c15.7,0,31.42,0,47.12,0,2.58-.07,5.28.15,7.85-.11,1.09-.75,2.38-1.63,3.49-2.35,10.44-6.92,12.58-4.23,23.56-6.36,7.46-1.35,15.1-4.02,22.69-1.99,6.07.83,12.27-.54,18.32.57,3.04.52,6.05,1.62,8.73,3.16,2.66,1.56,5.13,3.6,7.85,5.05,1.36.72,2.87,1.61,4.36,2.03,3.17,0,6.42,0,9.6,0,7.26,0,14.55,0,21.81,0"/><path class="b" d="M8.31,32.54c18.61,0,37.23,0,55.84,0,.45,0,1.3,0,1.75,0,.82-.41,1.84-1.11,2.62-1.59,1.92-1.19,4.01-2.35,6.11-3.2,4.12-1.73,8.73-1.63,13.09-2.28,6.37-.71,12.77-1.88,19.2-1.67,2.91.06,5.81.94,8.73.99,3.76.14,7.59-.21,11.34,0,5.63.23,11.16,2.18,15.71,5.51,1.06.74,2.29,1.73,3.49,2.23,1.7,0,3.54,0,5.24,0,10.75,0,21.53,0,32.28,0"/><path class="b" d="M8.31,27.8c17.45,0,34.91,0,52.35,0,2.29,0,4.69,0,6.98,0,4.38-2.45,9-4.72,13.96-5.67,10.4-2.14,21.04-.27,31.41,1.11,5.79.49,11.71-.16,17.45.96,2.36.44,4.78,1.18,6.98,2.14.79.35,1.86.87,2.62,1.29.75.22,1.84.17,2.62.17,13.66,0,27.35,0,41.01,0"/><path class="b" d="M8.31,23.06c13.96,0,27.93,0,41.88,0,6.67-.07,13.4.15,20.07-.09,3.46-1.41,6.98-2.89,10.47-4.23,6.14-2.33,12.92-1.86,19.2-.34,3.74.84,7.51,1.93,11.34,2.28,4.63.37,9.34.26,13.96.76,2.93.25,5.86.99,8.73,1.62,5.22,0,10.49,0,15.71,0,11.34,0,22.69,0,34.03,0"/><path class="b" d="M8.31,18.33c15.12,0,30.25,0,45.37,0,7.26,0,14.55,0,21.81,0,3-.96,5.72-2.84,8.73-3.79,5.63-2.04,11.78-1.39,17.45.13,2.57.63,5.22,1.37,7.85,1.69,4.34.32,8.76.21,13.09.74,2.61.23,5.27.83,7.85,1.23,5.8,0,11.65,0,17.45,0,11.92,0,23.86,0,35.77,0"/></svg>