<?xml version="1.0" encoding="UTF-8"?><svg id="a" xmlns="http://www.w3.org/2000/svg" width="1920" height="2400" viewBox="0 0 192 240"><defs><style>.b{fill:none;stroke:#fff;stroke-miterlimit:10;stroke-width:.4px;}.c{stroke-width:0px;}</style></defs><rect class="c" x="0" width="192" height="240"/><path class="b" d="M9.89,231.87c4.27,0,8.59,0,12.85,0,1.83-.42,3.51-1.69,5.14-2.57,2.5-1.49,5.06-3.08,7.71-4.29,3.7-1.73,7.96-2.6,12-1.65,2.6.61,5.12,1.79,7.71,2.44,7,2.07,12.64-1.63,17.99-5.68,2.33-1.64,4.81-3.54,7.71-3.92,5.52-.43,10.15,3.48,14.57,6.24,4.3,2.78,9.2,6.01,14.57,5.12,2.87-.63,5.67-1.87,8.57-2.41,3.43-.73,7.1-.29,10.28,1.17,3.04,1.35,5.82,3.38,8.57,5.22,1.56.65,3.48.19,5.14.32,2.83,0,5.74,0,8.57,0,10.27,0,20.57,0,30.85,0"/><path class="b" d="M9.89,227.22c3.41,0,6.88,0,10.28,0,1.08,0,2.35,0,3.43,0,.81,0,1.85.09,2.57-.35,3.39-2.09,6.68-4.51,10.28-6.24,3.41-1.67,7.38-2.54,11.14-1.7,2.84.69,5.64,1.92,8.57,2.26,7.36,1.12,13.21-4.27,18.85-8.12,4.02-2.84,7.64-3.17,12-.79,5.12,2.73,9.39,6.91,14.57,9.54,8.7,4.7,13.06-1.13,21.42-1.84,6.45-.58,11.9,3.54,17.14,6.69,1.44,1,3.48.41,5.14.56,3.12,0,6.31,0,9.43,0,9.13,0,18.29,0,27.42,0"/><path class="b" d="M9.89,222.56c5.7,0,11.44,0,17.14,0,3.21-1.65,6.09-4.11,9.43-5.57,3.16-1.51,6.8-2.32,10.28-1.7,3.12.65,6.19,1.98,9.43,1.91,7.59.13,13.3-5.59,19.71-8.77,5.28-2.87,10.3.47,14.57,3.56,4.52,3.21,9.03,7,14.57,8.2,8.26,1.85,14.75-5.52,23.14-4.59,4.01.33,7.69,2.26,11.14,4.19,1.06.59,2.35,1.29,3.43,1.84.72.38,1.7,1.1,2.57.92,12.28,0,24.57,0,36.85,0"/><path class="b" d="M9.89,217.91c5.7,0,11.44,0,17.14,0,2.83-1.59,5.56-3.56,8.57-4.83,3.19-1.43,6.81-2.1,10.28-1.5,2.85.5,5.62,1.84,8.57,1.76,7.94.13,14.13-5.75,21.42-7.9,9.87-2.92,17.52,12.18,30.85,11.44,8.57-.02,15.26-6.86,23.99-5.46,3.98.57,7.62,2.54,11.14,4.37,1.09.56,2.38,1.27,3.43,1.91.72.28,1.81.22,2.57.22,11.42,0,22.86,0,34.27,0"/><path class="b" d="M9.89,213.26c3.12,0,6.31,0,9.43,0,1.08,0,2.35,0,3.43,0,.83.01,1.88.1,2.57-.44,3.06-1.69,6.13-3.6,9.43-4.8,3.53-1.34,7.48-1.61,11.14-.68,2.54.62,5.04,1.89,7.71,1.83,7.92.05,14.48-5.71,22.28-6.28,3.78-.31,7.21,1.71,10.28,3.67,7.16,4.75,12.68,7.39,21.42,5.19,2.86-.61,5.83-1.11,8.57-2.18,5.42-2.1,11.41-3.76,17.14-1.89,3.28.95,6.38,2.62,9.43,4.13.76.38,1.82.92,2.57,1.31,1.35.26,2.91.09,4.28.14,10.85,0,21.71,0,32.56,0"/><path class="b" d="M9.89,208.6c2.54,0,5.17.05,7.71-.03,5.88-.74,10.63-4.93,16.28-6.47,5.65-1.83,11.03-.28,16.28,1.93,9.09,2.54,17.42-5.24,26.56-3.8,4.43.63,8.05,3.59,12,5.46,6.37,3.3,11.64,2.3,17.99-.31,3.57-1.39,7.47-1.87,11.14-2.93,8.56-2.29,14.73-.1,22.28,3.87,1.64.8,3.42,1.67,5.14,2.28,1.96,0,4.04,0,6,0,10.27,0,20.57,0,30.85,0"/><path class="b" d="M9.89,202.57c3.12-.18,6.34-.11,9.43-.64,6.66-1.7,12.53-6.66,19.71-6.22,3.95.12,7.61,1.84,11.14,3.45,2.43.93,5.17.98,7.71.59,7.05-1.16,14.23-4.69,21.42-2.39,3.22,1.04,6.2,2.88,9.43,3.92,8.16,2.87,13.54-1.82,20.56-4.87,4.14-1.21,8.51-2.23,12.85-2.22,8.58,0,15.27,6.22,23.14,8.69,1.06.35,2.35.72,3.43.99,1.06.14,2.36.07,3.43.09,2.54,0,5.17,0,7.71,0,7.42,0,14.86,0,22.28,0"/><path class="b" d="M9.89,196.68c3.4-.35,6.9.04,10.28-.42,5.87-1.21,11.09-4.8,17.14-5.34,3.5-.37,7.09.39,10.28,1.81,2.39,1.22,5,2.25,7.71,2.36,6.87.35,13.68-2.01,20.56-1.14,4.69.39,8.99,2.89,13.71,3.1,8.31.47,13.67-7.03,20.56-10.29,3.8-1.33,8-2.05,12-1.26,6.83,1.34,12.03,6.4,17.99,9.59,4.5,2.22,9.63,2.87,14.57,3.42,2.83.22,5.73.76,8.57.78,6.27,0,12.58,0,18.85,0"/><path class="b" d="M9.89,190.98c3.14-.2,6.31.33,9.43.62,5.63.15,10.86-2.48,16.28-3.62,3.35-.76,6.94-.97,10.28-.08,2.05.49,3.98,1.66,6,2.24,3.87,1.12,8,1.05,12,1.11,6.33-.05,12.66.75,18.85,2.04,8.57,1.99,14.07-2.61,19.71-8.37,2.63-2.54,5.18-5.55,8.57-7.08,5.17-2.19,10.69-1.71,15.42,1.31,12.66,8.31,11.08,12.21,28.28,12.52,5.17.17,10.43.5,15.42,1.94,1.08.29,2.34.78,3.43,1.04,2.83,0,5.74,0,8.57,0"/><path class="b" d="M9.89,185.73c3.21.07,6.35,1.05,9.43,1.88,5.71,1.36,11.55-.16,17.14-1.41,3.62-.78,7.51-1.39,11.14-.36,1.95.65,3.95,1.53,6,1.86,3.66.68,7.45.76,11.14,1.12,3.14.22,6.3.87,9.43,1.19,3.12,0,6.31,0,9.43,0,2.54-.05,5.18.11,7.71-.08,7.97-3.93,11.86-12.73,18.85-17.86,4.8-2.89,10.54-3.28,15.42-.36,3.76,2.11,6.95,5.18,10.28,7.89,1.8,1.44,3.79,2.96,6,3.71,5.27,1.57,10.87.77,16.28.84,4.95-.01,9.96.78,14.57,2.62,2.08.79,4.1,2.03,6,3.19,1.06.1,2.36.05,3.43.06"/><path class="b" d="M9.89,180.83c4.53.58,8.51,3.12,12.85,4.33,1.34.34,2.91.12,4.28.18,2.54,0,5.17,0,7.71,0,2.88.17,5.71-.81,8.57-.99,1.68-.13,3.52-.05,5.14.42,1.32.62,2.86.62,4.28.57,13.7,0,27.43,0,41.13,0,6.55-4.45,10.12-12.13,16.28-17.01,4.88-3.23,10.81-4.86,16.28-2.08,5,2.32,8.86,6.56,13.71,9.12,2.08,1.05,4.55,1.36,6.86,1.4,4.85.03,9.71-.93,14.57-.66,4.44.21,8.89,1.39,12.85,3.41,2.66,1.46,5.16,3.4,7.71,5.04"/><path class="b" d="M9.89,175.88c4,.83,7.44,3.25,11.14,4.81,7.7,0,15.43,0,23.14,0,17.13,0,34.28,0,51.41,0,5.39-3.75,8.81-9.75,13.71-14.06,2.55-2.02,5.57-3.61,8.57-4.84,3.27-1.28,7-1.33,10.28-.06,6.95,2.57,11.67,8.73,19.71,7.96,4.57-.22,9.12-1.27,13.71-1.13,4.46.1,8.93,1.32,12.85,3.43,2.69,1.56,5.17,3.63,7.71,5.41"/><path class="b" d="M9.89,170.39c4.29,1,8.11,3.42,12,5.39,1.04.43,2.34.22,3.43.26,1.38,0,2.91,0,4.28,0,4.55,0,9.16,0,13.71,0,15.99,0,31.99,0,47.98,0,3.56-.03,3.94.49,6.85-1.93,3.39-2.66,6.28-6.02,9.43-8.95,1.72-1.69,3.91-2.97,6-4.14,2.42-1.41,5-2.83,7.71-3.58,6.81-2.11,12.94,1.92,18.85,4.74,3.45,1.66,7.42,1.69,11.14,1.22,7.79-1.12,14.89-1.87,22.28,1.66,3.04,1.48,5.76,3.67,8.57,5.53"/><path class="b" d="M9.89,164.91c4.16.73,8.13,2.45,12,4.09,1.67.73,3.46,1.54,5.14,2.23,1.06.26,2.35.13,3.43.16,19.13,0,38.28,0,57.41,0,2.01-.02,4.2.26,6-.84,4.37-2.02,8.13-5.18,12-7.99,2.06-1.56,4.43-2.86,6.85-3.75,1.97-.85,4.02-1.82,6-2.63,8.52-3.68,14.65-2.43,23.14.32,3.59,1.07,7.45.9,11.14.6,11.75-1.21,18.55-.85,29.13,4.95"/><path class="b" d="M9.89,159.92c4.89.55,9.88,1.26,14.57,2.8,2.29.76,4.63,1.69,6.85,2.61,1.37.45,2.81,1.5,4.28,1.4,15.7,0,31.42,0,47.13,0,1.67-.02,3.48.06,5.14-.06,2.86-1.52,5.75-3.2,8.57-4.8,3.56-2,7.23-4.05,11.14-5.29,2.76-.88,5.77-.96,8.57-1.67,7.35-1.63,14.65-4.36,22.28-4.02,1.98.06,4.04.54,6,.82,1.95.26,4.03.4,6,.47,10.57.26,21.32-.77,31.7,1.74"/><path class="b" d="M9.89,155.67c3.41.1,6.88,0,10.28-.23,5.79-.13,11.3,2.16,16.28,4.92,1.08.54,2.26,1.4,3.43,1.72,2.54,0,5.17,0,7.71,0,12.85,0,25.71.01,38.56,0,5.79-5.21,12.25-11.28,20.56-11.11,3.44.02,6.86.95,10.28,1.15,4.33.36,8.71-.33,12.85-1.57,3.37-.95,6.76-2.26,10.28-2.55,5.73,0,11.42,1.41,17.14,1.74,4.55.36,9.19.29,13.71-.35,3.7-.5,7.4-1.5,11.14-1.75"/><path class="b" d="M9.89,152.16c3.48,0,6.95-.66,10.28-1.63,6.4-1.65,12.7.8,17.99,4.34,1.39.8,2.77,2.02,4.28,2.56,2.25,0,4.6,0,6.86,0,11.99-.07,24.01.14,35.99-.08,5.06-5.81,10.89-14.39,19.71-12.71,4.48.93,8.59,3.19,12.85,4.77,4.08,1.6,8.67,1.82,12.85.46,10.39-3.64,10.12-4.41,21.42-1.98,6.75,1.56,14,2.15,20.56-.48,3.17-1.2,6.18-3.01,9.43-4.04"/><path class="b" d="M9.89,149.22c1.98-.02,4.08-.22,6-.71,1.71-.43,3.45-1.24,5.14-1.73,8.25-2.73,14.83,1.49,21.42,5.96,13.99.12,28,0,41.99.04,13.01-16.68,15.48-17.06,33.42-6.11,3.82,2.3,8.41,3.7,12.85,2.62,8.12-2.1,9.63-4.83,18.85-2.71,8.57,2.03,15.91,3.3,23.99-1.32,2.87-1.62,5.58-3.72,8.57-5.13"/><path class="b" d="M9.89,146.76c8.83-.1,12.74-5.79,22.28-2.48,1.75.61,3.54,1.5,5.14,2.42,1.04.53,2.18,1.61,3.43,1.42,1.96,0,4.04,0,6,0,12.56-.08,25.15.15,37.7-.08,6.23-6.78,12.24-14.28,22.28-9.54,1.96.87,4.05,1.75,6,2.63,2.3,1.15,4.57,2.61,6.86,3.79,3.89,2.12,8.47,3.18,12.85,2.22,2.59-.49,5.15-1.45,7.71-2.05,5.08-1.13,10.32.14,15.42.47,6.2.59,12.59-.58,17.99-3.74,2.84-1.63,5.57-3.65,8.57-5"/><path class="b" d="M9.89,143.47c1.66-.1,3.54.26,5.14-.25,4.2-1.59,8.25-3.36,12.85-2.47,2.72.35,5.19,1.79,7.71,2.72,2.83,0,5.74,0,8.57,0,13.99,0,28,0,41.99,0,4.76-3.36,9.24-6.91,15.42-6.73,3.47.04,6.88,1.09,10.28,1.63,5.79,1.36,11.09,4.76,17.14,5.1,1.96-.04,4.05.11,6-.1,2.55-.3,5.15-.85,7.71-1.09,5.69-.56,11.47-.62,17.14-1.39,4.08-.54,8.18-1.49,12-3.04,3.42-1.4,6.72-3.31,10.28-4.34"/><path class="b" d="M9.89,138.82c2.25,0,4.6,0,6.86,0,2.43-1,5.04-1.9,7.71-1.75,2.35.08,4.72.78,6.85,1.73,3.12.03,6.31,0,9.43.01,11.99,0,24,0,35.99,0,5.13,0,10.3,0,15.42,0,2.35.21,4.53-1.09,6.86-1.51,3.36-.82,6.86-1.26,10.28-1.72,3.68-.73,7.49-.51,11.14.25,7.86,1.69,15.94,3.44,23.99,2.09,4.03-.64,8.02-1.76,12-2.66,3.96-.93,8.01-1.67,12-2.48,4.57-.91,9.04-2.57,13.71-2.97"/><path class="b" d="M9.89,134.17c2.25,0,4.6,0,6.86,0,.84-.06,1.79-.6,2.57-.84,1.34-.43,2.88-.65,4.28-.61,2.04.07,4.13.65,6,1.43,2.54.05,5.17,0,7.71.02,14.85,0,29.71,0,44.56,0,5.13,0,10.3,0,15.42,0,1.67,0,3.47,0,5.14,0,1.1-.05,2.47.21,3.43-.45,7.17-3.79,12.3-5.8,20.56-4.1,4.3.81,8.49,2.38,12.85,2.88,6.63.78,12.61-3.06,18.85-4.62,3.89-1.11,7.98-1.54,12-1.79,3.97-.41,8.01-.65,12-.35"/><path class="b" d="M9.89,129.52c2.25,0,4.6.01,6.86-.01,1.77-1.09,3.92-1.74,6-1.79,2.66-.08,5.28.81,7.71,1.8,1.67,0,3.47,0,5.14,0,23.42-.02,46.85.03,70.26-.02,5.86-4.75,12.6-9.6,20.56-7.77,3.55.7,6.89,2.3,10.28,3.49,4.22,1.65,7.88,1.26,12-.43,4.17-1.62,8.37-3.5,12.85-4.05,3.1-.43,6.31-.24,9.43-.05,3.72.04,7.45.56,11.14,1.01"/><path class="b" d="M9.89,124.86c1.96,0,4.04,0,6,0,1.14-.35,2.28-1.21,3.43-1.56,1.61-.57,3.44-.82,5.14-.73,2.02.1,4.1.64,6,1.32.78.28,1.78.72,2.57.97.78,0,1.8,0,2.57,0,18.85,0,37.71,0,56.55,0,3.69,0,7.45,0,11.14,0,.95-.2,1.84-1.17,2.57-1.76,1.07-.92,2.34-2.01,3.43-2.9,3.44-2.81,7.45-5.43,12-5.78,7.23-.65,12.97,4.85,19.71,6.34,3.19.55,6.42-.56,9.43-1.53,3.05-1.02,6.22-2.01,9.43-2.34,3.7-.43,7.47.11,11.14.54,3.7.24,7.44.77,11.14.97"/><path class="b" d="M9.89,120.21c2.25,0,4.6,0,6.86,0,1.13-.33,2.31-1.06,3.43-1.41,6.05-2.24,12.1-.21,17.99,1.42,17.7,0,35.42,0,53.13,0,2.83,0,5.74,0,8.57,0,7.36-3.34,13.5-10.84,22.28-9.96,6.89.53,12.34,5.51,18.85,7.25,3.14.76,6.42-.12,9.43-1.05,3.08-.97,6.23-2.04,9.43-2.6,7.37-1.22,14.88.07,22.28.27"/><path class="b" d="M9.89,115.56c2.83-.02,5.74.04,8.57-.03,1.33-.67,2.86-1.31,4.28-1.75,4.71-1.5,9.77-1.2,14.57-.31,3.38.58,6.83,1.38,10.28,1.35,4.26-.26,8.57-.97,12.85-.74,5.17.06,10.25,1.64,15.42,1.47,1.08,0,2.35,0,3.43,0,1.38-.14,2.9-.5,4.28-.61,3.11-.31,6.32-.39,9.43-.76,5.61-.59,11.01-2.45,16.28-4.39,6.57-2.69,13.2-2.31,19.71.36,5.06,1.81,9.92,5.01,15.42,5.16,5.14-.22,9.8-2.86,14.57-4.53,7.72-3.05,15-3.1,23.14-2.3"/><path class="b" d="M9.89,110.91c2.83,0,5.74,0,8.57,0,1.39-.58,2.86-1.39,4.28-1.9,4.89-1.92,10.29-1.99,15.42-1.18,3.39.47,6.85,1.2,10.28,1.02,4.85-.43,9.69-1.45,14.57-1.5,4.85-.16,9.72.62,14.57.59,4-.18,8.01-.92,12-1.21,5.4-.5,10.86-.73,16.28-.83,3.12-.03,6.31-.2,9.43.01,4.02.27,8.06.98,12,1.85,4,.89,8.02,1.97,12,2.97,1.93.35,4.04.08,6,.16,1.37,0,2.91,0,4.28,0,2.69-.66,5.24-2.07,7.71-3.28,9.28-4.89,14.1-6.95,24.85-5.47"/><path class="b" d="M9.89,106.25c2.25,0,4.6,0,6.86,0,.52-.03,1.31-.4,1.71-.7,1.05-.6,2.31-1.24,3.43-1.7,2.69-1.13,5.65-1.78,8.57-1.8,6.38-.2,12.47,2.89,18.85,2.33,4.3-.51,8.55-1.64,12.85-2.11,3.96-.48,8.02-.41,12-.17,2.83.15,5.75.34,8.57-.05,3.99-.55,7.97-1.61,12-1.89,8.55-.86,16.53,3.01,24.85,4.18,7.64,1.34,15.57-.23,23.14,1.63,9.93,1.77,17.75-6.45,26.56-9.47,4.09-1.43,8.61-1.19,12.85-.7"/><path class="b" d="M9.89,101.6c1.67-.06,3.49.15,5.14-.14,2.13-1.46,4.42-2.93,6.85-3.83,5.29-2.1,11.1-.95,16.28.9,3.31,1.08,6.74,2.42,10.28,2.24,4.03-.41,7.99-1.62,12-2.25,4.51-.78,9.16-.79,13.71-.32,2.54.2,5.16.67,7.71.53,2.01-.18,4.07-.77,6-1.36,4.67-1.51,9.66-2.78,14.57-1.74,7.61,1.56,12.04,6.15,20.56,5.4,5.81-.3,11.29-3.11,17.14-3.01,2.26.18,4.57.85,6.86.7,3.54-.09,7.04-1.16,10.28-2.52,10.11-4.47,12.99-7.22,24.85-6.12"/><path class="b" d="M9.89,96.95c.8,0,1.84.08,2.57-.3,1.09-.75,2.34-1.65,3.43-2.39,2.55-1.78,5.46-3.29,8.57-3.72,5.41-.82,10.55,1.6,15.42,3.61,3.49,1.51,7.36,2.57,11.14,1.53,10.5-2.24,16.14-1.96,26.56.12,3.69.86,6.82.28,10.28-1.14,6.63-2.75,12.65-4.76,19.71-2,2.29.8,4.5,2.12,6.86,2.73,7.19,2.09,14.06-1.84,20.56-4.41,1.88-.7,3.97-1.29,6-1.3,1.67.07,3.47.37,5.14.42,7.93.61,15.51-2.14,23.14-3.84,4.21-.75,8.59-.69,12.85-.73"/><path class="b" d="M9.89,91.98c7.61-4.23,12.82-9.5,22.28-6.95,4.69,1.16,8.94,3.86,13.71,4.76,1.97.4,4.03-.1,6-.24,2.83-.21,5.76-.06,8.57.33,4.03.53,8.02,1.6,12,2.43,3.98,0,8.02,0,12,0,.43,0,1.28,0,1.71,0,.8-.19,1.82-.64,2.57-.96,1.37-.59,2.89-1.25,4.28-1.79,4.59-1.89,9.76-2.45,14.57-1.05,1.99.49,3.98,1.39,6,1.79,7.33,1.45,14.09-2.69,20.56-5.5,1.89-.81,3.96-1.56,6-1.87,1.66-.25,3.48-.13,5.14-.02,5.12.42,10.28,1.03,15.42.74,3.42-.15,6.88-.63,10.28-.93,3.7-.2,7.45-.56,11.14-.92"/><path class="b" d="M9.89,86.3c9.57-3.46,14.45-9.68,25.71-6.17,4.26,1.21,8.33,3.66,12.85,3.68,5.68-.67,11.02,1.94,16.28,3.69,2.8.35,5.75.05,8.57.15,4.84,0,9.73,0,14.57,0,7.33-2.63,11.72-4.13,19.71-2.7,10.29,2.56,17.18-1.74,26.56-5.01,4.37-1.57,9.07-2.51,13.71-1.82,4.55.56,9.11,1.47,13.71,1.51,6.88.04,13.75-1,20.56-1.87"/><path class="b" d="M9.89,81.57c7.63-.62,13.61-7.02,21.42-6.83,5.12-.06,9.73,2.51,14.57,3.77,1.93.56,4.06.19,6,.67,3.37.7,6.25,2.88,9.43,3.82,8.27,0,16.58,0,24.85,0,1.12.03,2.35-.55,3.43-.79,1.36-.36,2.89-.68,4.28-.87,3.39-.48,6.9-.26,10.28.16,3.1.39,6.32.76,9.43.23,6.38-1.1,12.49-3.5,18.85-4.71,2.53-.53,5.17-.97,7.71-1.43,2.5-.55,5.15-.87,7.71-.66,4.83.35,9.71,1.07,14.57.64,6.59-.56,13.08-2.32,19.71-2.59"/><path class="b" d="M9.89,77.64c6.03.85,10.9-3.21,16.28-5.12,6.47-2.46,11.97-.25,17.99,2.16,1.89.74,3.98,1.13,6,1.21,1.77.28,3.55,1.07,5.14,1.87,1.23.84,2.88.54,4.28.59,1.67,0,3.47,0,5.14,0,5.41,0,10.87,0,16.28,0,1.14.12,2.38-.22,3.43-.63,1.06-.33,2.34-.66,3.43-.87,4.85-1,9.82-.05,14.57,1.06,2.77.73,5.74.36,8.57.44,2.61-.3,5.17-1.43,7.71-2.08,4.71-1.43,9.65-2.09,14.57-2.15,2.25-.06,4.62-.09,6.85-.41,1.96-.33,4-.9,6-1,4.56-.29,9.21-.17,13.71-1.11,7.39-1.47,14.57-5.09,22.28-4.07"/><path class="b" d="M9.89,73.69c1.96,0,4.04,0,6,0,2.4-.45,4.61-1.83,6.85-2.73,2.94-1.29,6.19-2.24,9.43-1.99,4.62.31,8.67,2.83,12.85,4.55,1.93.36,4.04.08,6,.16,6.84,0,13.72,0,20.56,0,2.83,0,5.74,0,8.57,0,1.91-.87,3.94-1.8,6-2.25,3.96-.96,8.14-.36,12,.8,1.67.45,3.44,1.13,5.14,1.45,1.37,0,2.91,0,4.28,0,1.67-.06,3.5.16,5.14-.15,3.34-1.16,6.77-2.39,10.28-2.92,5.4-.96,10.86.35,16.28.26,2.28-.09,4.58-.85,6.86-1.06,3.72-.43,7.53-.81,11.14-1.85,8.2-2.17,16.01-8.27,24.85-5.78"/><path class="b" d="M9.89,69.04c2.83,0,5.74,0,8.57,0,5.26-1.91,9.9-3.52,15.42-1.34,1.11.36,2.27,1.14,3.43,1.34,2.25,0,4.6,0,6.86,0,5.13,0,10.3,0,15.42,0,7.13,0,14.29,0,21.42,0,2.39-1.19,5.05-2.06,7.71-2.35,6.42-.85,12.51,2.23,18.85,2.35,2.37.04,4.67-.94,6.86-1.74,2.76-1.04,5.65-2.04,8.57-2.51,3.38-.58,6.9-.38,10.28.1,3.38.51,6.88.97,10.28.32,5.5-.48,11.11-.93,16.28-3.03,7.35-2.78,14.13-7.79,22.28-4.54"/><path class="b" d="M9.89,64.38c4.27,0,8.59,0,12.85,0,1.36-.27,2.9-.41,4.28-.31,2.53.42,5.16.31,7.71.31,3.69,0,7.45,0,11.14,0,10.56,0,21.14,0,31.7,0,1.67,0,3.47,0,5.14,0,2.47-.75,5.14-1.08,7.71-1.1,5.14-.08,10.29.97,15.42.59,6.42-.39,11.72-4.79,17.99-5.81,5.18-1.07,10.35.56,15.42,1.46,3.09.4,6.31.17,9.43.09,5.39-.22,10.58-2.03,15.42-4.29,6.42-2.97,11.25-5.13,17.99-1.24"/><path class="b" d="M9.89,59.73c29.7.02,59.42-.04,89.11,0,4.45.2,8.8-1.39,12.85-3.08,2.86-1.31,5.64-3.02,8.57-4.18,5.48-2.37,10.89-1.45,16.28.64,2.99,1.18,6.23,1.74,9.43,1.99,4.93.53,9.95-.26,14.57-2.03,8.41-3.01,13.11-6.98,21.42-.69"/><path class="b" d="M9.89,55.08c14.28,0,28.57,0,42.84,0,5.13,0,10.3,0,15.42,0,2.25,0,4.6,0,6.85,0,.77-.25,1.79-.6,2.57-.81,3.98-1.27,8.06.1,12,.81,3.98,0,8.02,0,12,0,2.65-.75,5.23-1.97,7.71-3.15,2.01-.9,4.11-1.93,6-3.06,5.93-3.62,11.33-5.47,17.99-2.35,3.91,1.82,7.69,4.12,12,4.91,7.23,1.94,13.66.47,20.56-1.89,7.24-2.36,10.29-2.01,16.28,2.94"/><path class="b" d="M9.89,50.43c2.83,0,5.74,0,8.57,0,2.76-.9,5.61-1.98,8.57-1.93,1.71,0,3.53.33,5.14.87,1.11.28,2.25,1.19,3.43,1.06,4.84,0,9.73,0,14.57,0,5.13,0,10.3,0,15.42,0,2.47-1.29,5.05-2.6,7.71-3.44,11.51-4,15.21,4.63,25.71,3.16,3.36-.54,6.46-2.21,9.43-3.78,1.94-1.04,4.1-1.94,6-3.06,4.32-2.59,9.5-5.06,14.57-3.19,4.43,1.48,7.95,4.82,12,7.02,2.98,1.41,6.19,2.62,9.43,3.28,2.54,0,5.17,0,7.71,0,1.37-.03,2.94.12,4.28-.2,4.46-.72,9.32-2.69,13.71-.79.41.2,1.32.65,1.71.9,1.36.15,2.92.05,4.28.08"/><path class="b" d="M9.89,45.77c1.08,0,2.35,0,3.43,0,1.47-.22,2.92-1.09,4.28-1.64,4.76-2.26,10.17-4.18,15.42-2.53,3.01.85,5.83,2.45,8.57,3.92,1.61.49,3.48.14,5.14.24,3.12,0,6.31,0,9.43,0,1.22.17,2.41-.65,3.43-1.2,1.08-.6,2.35-1.33,3.43-1.93,3.26-1.83,6.67-3.62,10.28-4.63,3.61-.96,7.67-1.45,11.14.25,5.1,2.37,10.4,5.87,16.28,4.58,3.95-.76,7.44-2.99,11.14-4.46,4.05-1.83,8.23-4.43,12.85-3.81,6.98,1,11.34,7.33,17.14,10.68,1.48.92,3.48.37,5.14.51,3.12,0,6.31,0,9.43,0,8.56,0,17.15,0,25.71,0"/><path class="b" d="M9.89,41.12c9.91-4.79,17.02-10.15,28.28-5.05,3.58,1.41,7.17,3.59,11.14,3.5,5.28-.39,9.89-3.48,14.57-5.68,5.3-2.67,11.14-4.67,17.14-4.62,5.74.66,10.52,4.75,16.28,5.45,4.97.84,9.81-1.06,14.57-2.22,3.34-.91,6.77-2.16,10.28-1.88,7.09.53,11.82,6.53,17.14,10.5h42.84"/><path class="b" d="M9.89,35.1c9.33-6.76,17.04-9.17,28.28-5.47,7.44,2.37,10.63,2.93,17.99-.17,6.08-2.56,12.27-5.09,18.85-5.97,3.1-.4,6.29-1.2,9.43-.68,4.63.73,9.08,2.49,13.71,3.26,4.79.88,9.72.73,14.57.9,9.18-.42,14.24,1.2,21.42,7.01,1.07.78,2.19,1.98,3.43,2.49,2.25,0,4.6,0,6.85,0,12.56,0,25.14,0,37.7,0"/><path class="b" d="M9.89,28.85c5.88-4.94,10.11-7.22,17.99-6.44,5.47.52,10.77,2.51,16.28,2.72,4.51.24,8.7-1.81,12.85-3.26,3.32-1.22,6.79-2.25,10.28-2.84,3.1-.54,6.31-.76,9.43-1.18,2.85-.38,5.69-1.33,8.57-1.55,6.36-.63,12.78.54,18.85,2.38,3.74,1.07,7.37,2.67,11.14,3.65,6.62,1.56,13.14,3.82,18.85,7.59,1.07.59,2.2,1.67,3.43,1.9,2.25,0,4.6,0,6.85,0,12.56,0,25.14,0,37.7,0"/><path class="b" d="M9.89,22.4c2.59-2.15,5.26-4.64,8.57-5.58,9.43-2.14,18.54,5.8,29.13,2.43,4.84-1.7,9.49-4.13,14.57-5.09,5.62-1.3,11.55-.43,17.14-1.87,9.14-3.24,15.31-6.57,24.85-1.66,2.97,1.47,5.74,3.48,8.57,5.21,2.68,1.58,5.64,2.84,8.57,3.89,3.97,1.43,8.09,2.65,12,4.26,1.39.57,2.94,1.27,4.28,1.95,1.03.49,2.22,1.41,3.43,1.23,13.7,0,27.43,0,41.13,0"/></svg>