<?xml version="1.0" encoding="UTF-8"?><svg id="a" xmlns="http://www.w3.org/2000/svg" width="1920" height="2400" viewBox="0 0 192 240"><defs><style>.b{fill:none;stroke:#fff;stroke-miterlimit:10;stroke-width:.4px;}.c{stroke-width:0px;}</style></defs><rect class="c" width="192" height="240"/><path class="b" d="M7.98,231.87c11.38,0,22.78,0,34.16,0,1.81.21,3.48-.93,5.25-1.06,4.12-.04,8.14-1.43,12.26-1.51,3.68-.18,7.21,1.1,10.51,2.58,4.95,0,9.94,0,14.89,0,11.96,0,23.94,0,35.91,0,2.89,0,5.87,0,8.76,0,8.31-3.28,14.47-10.44,22.77-13.71,6.27-2.55,12.5-.29,18.39,2.15,1.94.84,4.18,1.19,6.13,1.99,2.53,1.12,4.86,2.87,7.01,4.61"/><path class="b" d="M7.98,227.11c11.09,0,22.19,0,33.28,0,.52.06,1.31-.15,1.75-.39,1.08-.43,2.37-.86,3.5-1.08,3.2-.25,6.45-.65,9.63-1.07,2.9-.31,5.94-.15,8.76.65,1.78.42,3.5,1.42,5.25,1.9,3.19,0,6.45,0,9.63,0,9.04,0,18.11,0,27.15,0,1.44.12,2.95-.56,4.38-.65,2-.14,4.13-.14,6.13-.2,14.61.09,22.8-9.58,35.03-15.31,6.21-2.86,12.28-1.63,18.39.79,1.67.65,3.56,1.15,5.25,1.74,2.93,1.22,5.5,3.31,7.88,5.37"/><path class="b" d="M7.98,222.36c5.24,0,10.52,0,15.76,0,3.18-.1,6.47.22,9.63-.17,4.14-.66,8.15-2.18,12.26-2.97,6.08-.66,12.47-1.29,18.39.62,2.07.65,4.18,1.56,6.13,2.5,5.24.07,10.52,0,15.76.03,3.19,0,6.45,0,9.63,0,1.7-.07,3.58.18,5.25-.17,2.25-1.12,4.61-2.32,7.01-3.12,2.22-.8,4.68-.83,7.01-.93,2.9-.13,5.9-.34,8.76-.88,5.55-.99,10.76-3.35,15.76-5.86,3.53-1.68,7.09-3.48,10.51-5.38,5.88-3.26,11.96-4.34,18.39-1.92,2.92,1.1,5.96,2.2,8.76,3.59,2.49,1.38,4.84,3.25,7.01,5.09"/><path class="b" d="M7.98,217.6c1.71-.07,3.58.17,5.25-.16,2.91-1.86,6.22-3.18,9.63-3.73,5.49-.91,11.12-.96,16.64-1.63,5.5-.57,11.11-1.6,16.64-.72,3.63.54,7.17,1.82,10.51,3.29,2.31.94,4.6,2.29,7.01,2.96,4.07,0,8.19,0,12.26,0,2-.05,4.14.12,6.13-.1.79-.27,1.85-.66,2.63-.96,4.63-1.77,9.14-4.13,14.01-5.2,3.74-.66,7.63-.52,11.39-1.12,8.14-.98,15.89-3.84,23.65-6.33,5.23-1.89,10.08-5.26,15.76-5.68,4.63-.42,9.12,1.4,13.14,3.53,4.04,1.97,7.81,4.56,11.38,7.27"/><path class="b" d="M7.98,212.85c3.55-.03,3.41.49,6.13-1.93,2.38-1.95,5.05-3.73,7.88-4.95,6.03-2.71,12.77-2.85,19.27-2.96,3.79.07,7.6-.86,11.39-.5,8.76.84,15.95,6.91,24.52,8.4,4.7.54,9.45-.69,14.01-1.71,4.64-1.13,9.3-2.42,14.01-3.17,3.16-.57,6.44-.59,9.63-.86,7.08-.7,14.05-2.32,21.02-3.67,3.17-.7,6.51-1.07,9.63-1.98,2.93-.95,5.8-2.34,8.76-3.23,5.73-1.95,11.6-.69,16.64,2.47,4.41,2.69,8.64,5.79,13.14,8.35"/><path class="b" d="M7.98,208.09c1.4-.04,2.99.11,4.38-.13,10.13-9.53,16.56-13.13,30.65-13.39,2.33-.07,4.7-.58,7.01-.81,6.61-.25,12.49,3.42,18.39,5.9,3.31,1.42,6.87,2.69,10.51,2.64,6.11-.44,12.25-1.21,18.39-.9,5.24.15,10.51.97,15.76.72,5.02-.33,9.96-1.57,14.89-2.48,3.46-.66,7.01-1.22,10.51-1.63,2.6-.35,5.36-.42,7.88-1.21,6.38-2.13,12.55-5,19.27-2.16,6.7,2.71,11.51,8.69,18.39,11.11"/><path class="b" d="M7.98,203.34h6.13c6-4.89,11.9-10.3,19.27-13.06,3.64-1.44,7.56-2.2,11.38-2.96,2.86-.6,5.8-1.56,8.76-1.13,7.47.9,13.83,5.49,21.02,7.37,2.54.75,5.26.71,7.88.76,2.32.11,4.74.44,7.01.95,6.31,1.35,12.13,4.41,18.39,5.91,4.64,1.12,9.47.16,14.01-.96,4.64-1.17,9.3-2.5,14.01-3.36,3.76-.82,7.75-.8,11.39-2.13,7.37-2.88,13.48-5.48,21.02-1.12,3.17,1.71,5.85,4.28,8.76,6.36,2.1,1.43,4.54,2.58,7.01,3.23"/><path class="b" d="M7.98,198.58c3.48-.01,7.03.03,10.51-.02,7.76-6.17,15.09-13.37,24.52-16.94,5.28-2.13,10.16-3.08,15.76-1.55,5.14,1.28,9.93,3.7,14.89,5.51,3.08,1.27,6.47,1.63,9.63,2.6,6.46,2.15,11.89,6.48,17.52,10.19,1.06.35,2.4.18,3.5.21,1.71,0,3.55,0,5.25,0,6.7,0,13.44,0,20.14,0,3.15-1.3,6.37-2.67,9.63-3.65,2.9-.85,6-1.34,8.76-2.65,9.83-4.6,15.77-4.85,24.52,2.21,5.57,4.49,4.14,4.18,11.38,4.1"/><path class="b" d="M7.98,193.83c4.95-.02,9.94.05,14.89-.03,6.64-5.69,12.39-12.67,20.14-16.93,8.76-4.74,19.33-2.81,28.02,1.1,4.06,1.88,8.35,3.46,12.26,5.65,3.12,1.87,6.02,4.24,8.76,6.62,1.42,1.12,2.76,2.75,4.38,3.59,2.89,0,5.87,0,8.76,0,7.87,0,15.77,0,23.65,0,3.18-.06,6.46.13,9.63-.09,2.75-1.57,5.93-2.38,8.76-3.79,11.61-6.12,17.39-4.48,27.15,3.83,3.18.13,6.45.02,9.63.05"/><path class="b" d="M7.98,189.07h17.52c6.5-5.21,11.59-12.48,19.27-16.14,2.17-1.02,4.67-1.27,7.01-1.67,4.32-.69,8.83-.94,13.14-.04,6.83,1.43,12.95,5.26,18.39,9.49,3.37,2.54,6.28,5.82,9.63,8.35,13.13,0,26.28,0,39.41,0,2.3,0,4.71,0,7.01,0,.78,0,1.85,0,2.63,0,1.21-.19,2.43-1.02,3.5-1.56,11.66-6.92,16.39-6.61,27.15,1.56h11.38"/><path class="b" d="M7.98,184.32h19.27c6.38-4.41,11.57-11.15,19.27-13.38,4.09-.58,8.18-1.51,12.26-2.17,14.16-2.28,20.95,7.55,30.65,15.55,17.51,0,35.04,0,52.55,0,.78,0,1.86.04,2.63-.14,1.1-.72,2.4-1.59,3.5-2.3,3.38-2.16,7.26-4.14,11.38-3.86,3.16.19,6.16,1.67,8.76,3.41.79.54,1.87,1.31,2.63,1.9.62.63,1.73,1.15,2.63,1,3.48,0,7.03,0,10.51,0"/><path class="b" d="M7.98,179.56c4.65,0,9.36,0,14.01,0,1.71,0,3.55,0,5.25,0,1.32.19,2.46-.48,3.5-1.19,4.52-2.75,8.91-6.03,14.01-7.62,1.95-.64,4.14-.58,6.13-.99,3.23-.66,6.41-1.81,9.63-2.46,9.75-2.12,15.45,2.43,21.89,8.99,4.24,3.83,3.14,3.28,8.76,3.27,12.55,0,25.11,0,37.66,0,4.65,0,9.36,0,14.01,0,.41,0,1.33,0,1.75,0,1.24-.5,2.4-1.64,3.5-2.38,3.54-2.58,7.71-5.05,12.26-4.68,5.07.43,9.25,3.82,13.14,6.81,1.34.46,2.98.17,4.38.25,2,0,4.13,0,6.13,0"/><path class="b" d="M7.98,174.81c4.95,0,9.94,0,14.89,0,1.41,0,2.97,0,4.38,0,1.12-.03,2.49.17,3.5-.41,4.32-1.82,8.59-3.98,13.14-5.21,3.14-.85,6.53-.76,9.63-1.81,5.9-1.8,12.36-3.97,18.39-1.49,4.9,1.72,8.13,6.04,12.26,8.93h60.43c9.39-7.15,14.93-12.34,26.27-4.39,7.25,5.05,4.16,4.42,13.14,4.39"/><path class="b" d="M7.98,169.6c1.06.48,2.37.49,3.5.45,1.41,0,2.97,0,4.38,0,3.77-.11,7.64.23,11.39-.15,4.99-1.15,9.92-2.75,14.89-3.98,3.44-.9,7.04-1.35,10.51-2.1,6.02-1.35,12.51-2.08,18.39.24,3.51,1.29,6.69,3.45,9.63,5.72.75.33,1.83.26,2.63.26,1.4,0,2.98,0,4.38,0,4.36,0,8.78,0,13.14,0,14.3,0,28.61,0,42.91,0,8.81-6.94,14.8-13.19,26.27-6.47,2.34,1.3,4.61,2.96,7.01,4.16,2.17,1.07,4.61,1.82,7.01,2.18"/><path class="b" d="M7.98,164.79c1.65.66,3.52.5,5.25.51,2.3-.06,4.72.14,7.01-.11,7.03-1.06,14.07-2.31,21.02-3.83,8.23-1.89,13.16-4.13,21.89-2,4.91,1.17,9.54,3.39,14.01,5.67,1.05.43,2.4.22,3.5.26,1.4,0,2.97,0,4.38,0,16.63,0,33.28,0,49.92,0,2.3,0,4.71,0,7.01,0,1.38-.3,2.4-1.8,3.5-2.6,2.15-1.86,4.5-3.72,7.01-5.08,12.66-6.76,19.12,4.99,31.53,4.91"/><path class="b" d="M7.98,160.54c4.07,0,8.19,0,12.26,0,6.08-1.38,12.28-2.3,18.39-3.53,2.33-.49,4.75-1.09,7.01-1.86,2.53-.94,5.12-2.11,7.88-2.05,6.27,0,11.94,3.22,17.52,5.71,1.39.58,2.89,1.43,4.38,1.72,2.3,0,4.7,0,7.01,0,17.22,0,34.45,0,51.67,0,2,0,4.13,0,6.13,0,1.05-.03,1.89-1.19,2.63-1.82,6.63-6.58,13.43-10.34,22.77-6.69,7.38,2.86,10.02,4.58,18.39,3.58"/><path class="b" d="M7.98,155.79c5.53,0,11.11,0,16.64,0,4.36-.92,8.78-1.9,13.14-2.85,3.28-.77,6.61-1.76,9.63-3.25,3.15-1.9,7.04-2.08,10.51-1.02,6.04,1.76,11.39,5.45,17.52,6.98,1.68.29,3.55.08,5.25.14,17.51,0,35.04,0,52.55,0,1.7,0,3.55,0,5.25,0,1.03-.09,1.89-1.2,2.63-1.83,5.67-5.95,11.49-10.47,20.14-7.83,10.41,3.37,10.97,6.02,22.77,3.18"/><path class="b" d="M7.98,151.03c7.58,0,15.19,0,22.77,0,2.33-.14,4.71-.87,7.01-1.32,3.98-.86,7.86-2.31,11.38-4.34,3.58-1.69,7.72-1.15,11.39-.03,5.48,1.65,10.83,4.27,16.64,4.53,2.89.05,5.88-.41,8.76.11,1.43.21,3,.59,4.38,1.03.78.04,1.85.03,2.63.03,14.3,0,28.61,0,42.91,0,.93.16,2.03-.36,2.63-1.06.79-.71,1.87-1.72,2.63-2.47,2.15-2.16,4.33-4.55,7.01-6.07,9.47-5.5,16.49,2.25,25.4,3.51,3.55.2,7.04-1.07,10.51-1.65"/><path class="b" d="M7.98,146.28c7.58,0,15.19,0,22.77,0,2.89,0,5.87,0,8.76,0,3.38-.45,6.63-1.89,9.63-3.46,3.83-1.74,8.21-1.47,12.26-.79,4.35.73,8.72,1.77,13.14,2.02,3.19.28,6.45-.36,9.63.04,2.71.26,5.34,1.29,7.88,2.19,4.07,0,8.19,0,12.26,0,6.99,0,14.02,0,21.02,0,2.3,0,4.71,0,7.01,0,1.5,0,3.29.26,4.38-1.01,3.07-2.44,5.74-5.48,8.76-7.97,6.48-5.23,12.94-4.06,20.14-1.16,8.47,3.48,10.12,1.44,18.39,1.11"/><path class="b" d="M7.98,141.52c8.16,0,16.36,0,24.52,0,3.75-.11,7.68.24,11.39-.16,2.07-.56,4.1-1.58,6.13-2.25,5.13-1.49,10.55-.53,15.76-.07,3.47.35,7.02.54,10.51.53,2.89,0,5.88-.16,8.76.24,2.36.29,4.76.96,7.01,1.72,5.24,0,10.52,0,15.76,0,5.82,0,11.69,0,17.52,0,2.6,0,5.29,0,7.88,0,1.3-.23,2.44-1.42,3.5-2.14,3.29-2.44,6.21-5.5,9.63-7.75,7.12-4.73,14.14-3.2,21.89-1.39,2.27.46,4.69.79,7.01.54,2.89-.24,5.91-.17,8.76.43"/><path class="b" d="M7.98,132.47c2.71,1.74,5.59,3.52,8.76,4.28,3.48.05,7.03,0,10.51.02,3.77,0,7.61,0,11.39,0,2.31-.07,4.78.29,7.01-.5,5.28-1.9,9.43-1.7,14.89-.96,12.18,1.63,24.52,1.47,36.78,1.45,7.58,0,15.19,0,22.77,0,2.6,0,5.29,0,7.88,0,1.09,0,2.41,0,3.5,0,0,0,.88,0,.88,0l.88-.5c7.13-4.43,13.31-10.85,21.89-12.37,5.17-1.11,10.52-.65,15.76-.54,2,.08,4.13-.19,6.13-.1,2.38.16,4.81.84,7.01,1.75"/><path class="b" d="M7.98,123.55c3.54,2.77,7.14,5.7,11.39,7.33,1.09.42,2.34.98,3.5,1.14.79,0,1.84,0,2.63,0,5.24,0,10.52,0,15.76,0,2.34.02,4.7-.85,7.01-1.19,3.81-.63,7.68.36,11.38,1.18,5.24.02,10.52,0,15.76,0,18.97-.09,37.97.18,56.93-.1,4.12-2.53,8-5.59,12.26-7.9,5.73-3.15,11.99-5.39,18.39-6.69,4.3-.83,8.75-1.47,13.14-1.43,2.78.23,5.46,1.43,7.88,2.74"/><path class="b" d="M7.98,116.2c4.86,4.16,9.57,8.9,15.76,11.01,1.7.1,3.55.03,5.25.05,2.89,0,5.87,0,8.76,0,2.32,0,4.74.12,7.01-.47,2.28-.42,4.71-.74,7.01-.31,1.42.18,2.93.86,4.38.77,4.36,0,8.78,0,13.14,0,21.31,0,42.62,0,63.93,0,2.94-1.92,5.7-4.28,8.76-6.02,5.39-2.89,11.01-5.47,16.64-7.86,5.55-2.21,11.44-4.56,17.52-4.27,2.82.37,5.46,1.8,7.88,3.22"/><path class="b" d="M7.98,111.74c3.55,2.69,10.61,10.49,14.89,10.76,6.7,0,13.44,0,20.14,0,9.63,0,19.28,0,28.9,0,21.01,0,42.04,0,63.06,0,2.42-1.57,4.5-3.86,7.01-5.35,4.86-2.81,9.9-5.4,14.89-7.98,5.77-2.82,11.83-5.94,18.39-6,3.15.15,6.08,1.75,8.76,3.29"/><path class="b" d="M7.98,110.19c3.61,2.31,6.71,5.57,10.51,7.56,8.46,0,16.94,0,25.4,0,9.63,0,19.28,0,28.9,0,21.6,0,43.21,0,64.81,0,2.72-2.34,5.71-4.47,8.76-6.37,3.45-2.28,6.95-4.65,10.51-6.77,5.57-3.27,11.76-6.44,18.39-6.14,3.07.23,6.01,1.56,8.76,2.88"/><path class="b" d="M7.98,109.23c2.39,1.07,4.64,2.65,7.01,3.76,2.01,0,4.12,0,6.13,0,6.41,0,12.86,0,19.27,0,10.5,0,21.03,0,31.53,0,22.77-.05,45.55.1,68.31-.05,9.21-6.5,18.21-16.83,29.78-18.3,4.77-.58,9.52.84,14.01,2.28"/><path class="b" d="M7.98,107.17c1.11.32,2.36.85,3.5,1.06,1.11,0,2.4,0,3.5,0,2.89,0,5.86,0,8.76,0,8.46,0,16.94,0,25.4,0,24.23,0,48.46,0,72.69,0,5.82,0,11.69,0,17.52,0,.42,0,1.33,0,1.75,0,.51-.16,1.37-.74,1.75-1.11,1.45-1.19,3.01-2.6,4.38-3.87,6.51-6.08,14.01-13.36,23.65-12.37,4.39.52,8.73,1.75,13.14,2.21"/><path class="b" d="M7.98,103.27c1.67.41,3.55.14,5.25.21,2.89,0,5.86,0,8.76,0,8.46,0,16.94,0,25.4,0,24.52,0,49.05,0,73.57,0,6.41,0,12.86,0,19.27,0,1.67-.61,3.05-2.16,4.38-3.29,2.02-1.89,4.09-3.98,6.13-5.86,5.72-5.4,12.06-9.13,20.14-6.77,2.02.5,4.08,1.34,6.13,1.75,2.27.44,4.7.49,7.01.4"/><path class="b" d="M7.98,97.77c1.99.39,4.1.97,6.13.96,3.48,0,7.03,0,10.51,0,7.87,0,15.77,0,23.65,0,23.06,0,46.13,0,69.19,0,5.82,0,11.69,0,17.52,0,1.19.13,2.45-.58,3.5-1.05,2.61-1.21,4.93-3.15,7.01-5.12,7.34-6.9,13.9-13.11,24.52-8.47,5.31,2.29,7.97,3.63,14.01,2.53"/><path class="b" d="M7.98,91.66c3.43.97,7.02,1.61,10.51,2.31,2.89,0,5.87,0,8.76,0,7,0,14.02,0,21.02,0,21.31,0,42.62,0,63.93,0,5.24-.05,10.53.11,15.76-.07,4.66-2.03,9.74-3.34,14.01-6.19,8.62-6.38,14.89-13.18,26.27-7.64,5.87,2.78,8.89,5.05,15.76,3.36"/><path class="b" d="M7.98,85.28c2.88.95,5.87,1.8,8.76,2.72.8.27,1.86.69,2.63,1.04.78.23,1.83.18,2.63.18,10.5,0,21.03,0,31.53,0,23.35,0,46.71,0,70.06,0,2.58-1.59,5.18-3.36,7.88-4.75,3.42-1.84,7.07-3.41,10.51-5.22,9.11-5.38,15.32-7.55,25.4-2.79,6.08,2.81,9.71,4.95,16.64,3.1"/><path class="b" d="M7.98,79.25c3.88,1.46,7.7,3.27,11.39,5.16,9.04.15,18.11,0,27.15.05,18.97,0,37.95,0,56.93,0,5.82,0,11.69,0,17.52,0,2.19-1.04,4.09-3.13,6.13-4.5,3.02-2.27,6.25-4.42,9.63-6.12,11.56-5.89,19.02-4.62,30.65.05,5.78,2.29,10.42,3.4,16.64,1.86"/><path class="b" d="M7.98,73.86c3.39,1.57,6.54,3.74,9.63,5.8,6.7.14,13.44,0,20.14.05,8.46,0,16.94,0,25.4,0,18.68-.03,37.37.07,56.05-.04,6.78-4.81,12.86-11.24,21.02-13.67,13.13-3.46,23.34,10.44,43.79,6.53"/><path class="b" d="M7.98,68.96c2.79,1.69,5.39,3.86,7.88,5.96,30.94.09,61.89,0,92.83.03,2.59-.11,5.33.25,7.88-.19,7.91-3.79,14.05-11.12,22.77-13.23,4.3-1.04,8.54.9,12.26,2.88,3.67,1.93,7.39,4,11.39,5.16,6.83,2.09,14.04.61,21.02.29"/><path class="b" d="M7.98,63.94c2.45,1.88,4.71,4.2,7.01,6.25,31.52-.1,63.07.19,94.58-.1,7.03-.12,11.77-3.46,17.52-7.03,4.27-2.59,8.86-5.47,14.01-5.5,6.01.19,10.63,4.81,15.76,7.39,10.55,5.89,16.24,1.96,27.15,2.32"/><path class="b" d="M7.98,59.25c2.07,1.88,4.14,3.98,6.13,5.94,1.06.41,2.39.21,3.5.25,1.41,0,2.97,0,4.38,0,7.29,0,14.61,0,21.89,0,19.55,0,39.12,0,58.68,0,2.6,0,5.29,0,7.88,0,1.71-.05,3.61.2,5.25-.36,8.89-2.58,15.89-10.41,25.4-11,6-.02,10.73,4.48,15.76,7.16,11.09,6.47,15.69,3.13,27.15,3.65"/><path class="b" d="M7.98,55.94c1.11.94,2.4,2.08,3.5,3.03,1.07.94,1.95,1.96,3.5,1.72,5.53,0,11.11,0,16.64,0,7.58,0,15.19,0,22.77,0,16.93,0,33.87,0,50.8,0,4.95,0,9.94,0,14.89,0,7.5-2.69,13.75-8.91,21.89-9.75,7.69-.33,15.52,7.08,22.77,9.75,6.41,0,12.86,0,19.27,0"/><path class="b" d="M7.98,52.54c2,1.11,3.99,2.58,6.13,3.39,3.19,0,6.45,0,9.63,0,7.29,0,14.61,0,21.89,0,21.31,0,42.62,0,63.93,0,4.65,0,9.36,0,14.01,0,.88.15,1.87-.51,2.63-.88,1.11-.58,2.42-1.31,3.5-1.94,4.43-2.46,8.82-5.76,14.01-6.24,5.7-.4,11,2.41,15.76,5.22,1.41.84,2.98,1.8,4.38,2.64.99.66,2.25,1.39,3.5,1.2,5.53,0,11.11,0,16.64,0"/><path class="b" d="M7.98,48.05c2.3.49,4.73.84,7.01,1.43,2,.59,4.09,1.26,6.13,1.7,9.92,0,19.86,0,29.78,0,21.01,0,42.04,0,63.06,0,3.77,0,7.61,0,11.39,0,7.3-2.65,12.99-9.29,21.02-9.98,5.35-.69,10.56,1.55,14.89,4.53,1.74,1.17,3.57,2.53,5.25,3.77,1,.68,2.18,1.89,3.5,1.67,4.65,0,9.36,0,14.01,0"/><path class="b" d="M7.98,41.96c2.57-.52,5.24-1.31,7.88-1.12,5.75.58,11.06,2.11,15.76,5.58,27.44,0,54.88,0,82.32,0,2,0,4.13,0,6.13,0,4.37-.49,8.53-2.31,12.26-4.58,2.9-1.73,5.73-3.79,8.76-5.31,2.18-1.04,4.64-1.76,7.01-2.22,6.67-1.41,12.73,2.67,17.52,6.87,1.39,1.18,2.95,2.52,4.38,3.66.71.56,1.71,1.41,2.63,1.59,3.77,0,7.61,0,11.38,0"/><path class="b" d="M7.98,34.3c2.23-1.03,4.55-2.26,7.01-2.64,6.59-.5,12.84,2.52,17.52,7,1.14.91,2.15,2.4,3.5,3,3.19,0,6.45,0,9.63,0,14.88,0,29.78,0,44.66,0,4.65,0,9.36,0,14.01,0,1.25,0,2.37-1.14,3.5-1.58,1.87-.95,4.05-1.4,6.13-1.47,7.45-.06,12.57-.31,19.27-4.13,3.18-1.7,6.24-3.83,9.63-5.1,7.38-2.81,12.81-2.8,19.27,2.19,3.92,2.88,7.23,6.68,11.39,9.24.37.24,1.33.67,1.75.84.76,0,1.86,0,2.63,0,2,0,4.13,0,6.13,0"/><path class="b" d="M7.98,26.07c3.23-1.69,6.76-3.41,10.51-2.73,8.31.74,14.11,7.52,19.27,13.4,1.67.37,3.55.11,5.25.18,2.89,0,5.87,0,8.76,0,8.75,0,17.52,0,26.27,0,5.24,0,10.52,0,15.76,0,1.71,0,3.55,0,5.25,0,1.29.08,2.53.02,3.5-.96,7.6-5.84,10.35-5.13,19.27-5.99,3.29-.39,6.58-1.3,9.63-2.58,3.23-1.33,6.37-3.08,9.63-4.33,3.07-1.04,6.38-1.84,9.63-1.79,6.28.15,11.32,4.53,15.76,8.52,2.92,2.59,5.89,5.45,9.63,6.79,1.01.55,2.4.29,3.5.34,1.4,0,2.98,0,4.38,0"/><path class="b" d="M7.98,18.67c4.04-1.76,7.84-2.82,12.26-1.83,8.48,1.7,13.81,9.28,19.27,15.32h60.43c12.48-9.28,13.32-7.04,27.15-10.9,4.72-1.35,9.25-3.47,14.01-4.67,10.1-2.34,16.27.86,23.65,7.51,3.51,2.99,6.89,6.6,11.39,8.05,2.6,0,5.29,0,7.88,0"/><path class="b" d="M7.98,12.79c8.71-2.38,16.86-1.43,23.65,4.87,3.5,2.9,6.22,6.78,9.63,9.73,13.13,0,26.28,0,39.41,0,4.65,0,9.36,0,14.01,0,2,0,4.13,0,6.13,0,.87-.27,1.86-.99,2.63-1.47,7.21-4.87,15.39-7.99,23.65-10.57,8.94-2.97,19.25-5.49,28.02-.7,3.84,2,7.22,4.88,10.51,7.66,2.23,1.73,4.37,4.01,7.01,5.08,3.77,0,7.61,0,11.39,0"/><path class="b" d="M7.98,8.42c19.16-1.39,21.75,1.32,35.03,14.1,4.92.33,9.95.03,14.89.13,8.75,0,17.52,0,26.27,0,6.41,0,12.86,0,19.27,0,1.24.18,2.48-.52,3.5-1.12,1.73-.94,3.57-2.03,5.25-3.06,9.13-5.63,19.74-9.94,30.65-8.59,7.16.57,13.68,4.02,19.27,8.37,2.03,1.4,3.93,3.3,6.13,4.41,5.24,0,10.52,0,15.76,0"/></svg>