<?xml version="1.0" encoding="UTF-8"?><svg id="a" xmlns="http://www.w3.org/2000/svg" width="1920" height="2400" viewBox="0 0 192 240"><defs><style>.b{fill:none;stroke:#fff;stroke-miterlimit:10;stroke-width:.4px;}.c{stroke-width:0px;}</style></defs><rect class="c" width="192" height="240"/><path class="b" d="M9.8,227.34c11.66-1.78,14.1-2.41,24.02,4.88,16.58,0,33.17,0,49.75,0,7.42,0,14.88,0,22.3,0,3.8-.71,7.43-2.44,11.15-3.47,3.61-1.09,7.62-1.18,11.15.25,2.12.76,4.05,2.16,6,3.22,5.13,0,10.31,0,15.44,0,10.86,0,21.74,0,32.59,0"/><path class="b" d="M9.8,224.69c2.26-.1,4.61-.14,6.86-.32,2.25-.29,4.63-.4,6.86.14,2.39.53,4.74,1.58,6.86,2.78,1.03.47,2.34.24,3.43.29,1.96,0,4.04,0,6,0,17.72,0,35.46,0,53.18,0,7.14,0,14.31,0,21.44,0,1.67,0,3.48,0,5.15,0,1.66-.31,3.45-.68,5.15-.67,1.69-.03,3.5.28,5.15.67,5.7,0,11.45,0,17.16,0,11.72,0,23.45,0,35.17,0"/><path class="b" d="M9.8,222.48c3.4.45,6.87.49,10.29.42,4.27.05,8.6,0,12.87.02,12.86,0,25.74,0,38.6,0,36.88,0,73.77,0,110.65,0"/><path class="b" d="M9.8,218.26h172.41"/><path class="b" d="M9.8,213.6h172.41"/><path class="b" d="M9.8,208.94c57.5-.01,114.91-.02,172.41,0"/><path class="b" d="M9.8,204.28c5.99,0,12.02,0,18.01,0,1.97,0,4.04,0,6,0,1.38-.07,3,.23,4.29-.37,4.88-1.83,10.46-3.63,15.44-1.15,1.1.44,2.3,1.17,3.43,1.52.77,0,1.8,0,2.57,0,9.71,0,19.45,0,29.16,0,1.52.16,2.91-.96,4.29-1.43,1.61-.64,3.42-1.14,5.15-1.32,4.65-.56,9.15,1.27,13.72,1.77,1.11.19,2.35.71,3.43.99.76,0,1.81,0,2.57,0,21.44,0,42.89,0,64.33,0"/><path class="b" d="M9.8,199.63c6.85,0,13.74,0,20.59,0,2.54-.03,5.18.07,7.72-.05,2.23-.97,4.54-2.01,6.86-2.73,2.76-.92,5.83-1.06,8.58,0,2.04.72,4.08,1.76,6,2.75,5.13.08,10.31,0,15.44.03,4.56,0,9.17,0,13.72,0,8.19-4.31,11.37-4.87,20.59-4.47,1.07.01,2.36-.14,3.43-.03,2.4.28,4.72,1.36,6.86,2.43,1.65.68,3.28,2.19,5.15,2.07,19.15,0,38.32,0,57.47,0"/><path class="b" d="M9.8,194.97c7.42,0,14.88,0,22.3,0,1.97,0,4.04,0,6,0,1.38-.08,2.97.22,4.29-.25,1.63-.79,3.42-1.61,5.15-2.17,2.48-.88,5.23-.74,7.72.02,2.02.59,4.07,1.48,6,2.33,3.4.18,6.89.02,10.29.07,3.7,0,7.45,0,11.15,0,1.38,0,2.91,0,4.29,0,.79,0,1.86.09,2.57-.33,5.4-2.6,11.26-4.06,17.16-5.05,5.22-1.08,7.24-2.69,12.87-.94,3.57,1.09,6.96,2.87,10.29,4.53,1.07.54,2.35,1.17,3.43,1.68,1.36.21,2.92.08,4.29.11,14.86,0,29.74,0,44.6,0"/><path class="b" d="M9.8,190.31c8.28,0,16.59,0,24.87,0,3.7,0,7.45,0,11.15,0,1.47-.2,2.84-1.28,4.29-1.63,3.71-1.08,7.62,0,11.15,1.24,1.58.67,3.48.29,5.15.38,8.28,0,16.59,0,24.87,0,6.7-1.4,13.79-2.54,19.73-6.14,5.3-3.6,11.47-3.71,17.16-.9,2.98,1.38,5.8,3.24,8.58,4.98.75.47,1.81,1.11,2.57,1.56,0,0,.86.49.86.49,0,0,.86.02.86.02,3.7,0,7.46,0,11.15,0,6.56,0,13.16,0,19.73,0,2.25,0,4.61,0,6.86,0,1.1-.07,2.51.28,3.43-.48"/><path class="b" d="M9.8,185.66c12,0,24.02,0,36.03,0,1.38-.04,2.92.1,4.29-.11,1.85-.84,3.99-1.19,6-1.07,1.4.08,2.94.37,4.29.72.77.21,1.77.56,2.57.46,6.85,0,13.74,0,20.59,0,4.84,0,9.74,0,14.58,0,1.37,0,2.91,0,4.29,0,1.09-.05,2.46.22,3.43-.41,4.19-1.94,7.16-5.77,11.15-8.02,4.74-2.94,9.95-2.51,14.58.42,4.17,2.34,7.56,6.19,12.01,8,3.98,0,8.03,0,12.01,0,5.42,0,10.88,0,16.3,0,1.96,0,4.04,0,6,0,.75,0,1.83.05,2.57-.16.4-.19,1.32-.59,1.72-.8"/><path class="b" d="M9.8,181c9.43,0,18.88,0,28.31,0,4.27,0,8.6,0,12.87,0,1.4.02,2.86-.72,4.29-.69,2.01-.18,4.04.48,6,.69,5.99,0,12.02,0,18.01,0,6.56,0,13.16,0,19.73,0,3.69-.1,7.48.22,11.15-.14,8.03-8.29,14.1-14.58,24.87-5.67,2.54,1.92,4.9,4.32,7.72,5.82,1.38,0,2.91,0,4.29,0,7.42,0,14.88,0,22.3,0,2.54,0,5.18,0,7.72,0,1.68-.07,3.59.28,5.15-.5"/><path class="b" d="M9.8,176.34c9.43,0,18.88,0,28.31,0,4.27,0,8.6,0,12.87,0,1.35-.38,2.87-.79,4.29-.73,1.72-.08,3.46.75,5.15.73,5.42,0,10.88,0,16.3,0,11.72,0,23.45,0,35.17,0,9.71-9.89,15.02-10.73,25.73-1.53,1.7,1.49,2.02,1.63,4.29,1.53,1.96,0,4.04,0,6,0,11.43,0,22.88,0,34.31,0"/><path class="b" d="M9.8,171.68c13.43,0,26.88,0,40.31,0,1.69.03,3.44-.73,5.15-.45,2.8.63,5.73.43,8.58.45,9.14,0,18.31,0,27.45,0,5.42,0,10.88,0,16.3,0,8.46-.03,4.42.73,11.15-3.5,3.59-2.18,8.12-2.63,12.01-.97,2.72,1.07,5.26,2.75,7.72,4.31,1.64.33,3.48.09,5.15.16,2.83,0,5.75,0,8.58,0,10,0,20.02,0,30.02,0"/><path class="b" d="M9.8,167.03c23.16,0,46.32,0,69.48,0,8,0,16.02,0,24.02,0,2.25,0,4.61,0,6.86,0,1.37-.06,2.95.16,4.29-.18,1.59-1.02,3.39-1.99,5.15-2.68,3.79-1.54,8.08-1.7,12.01-.62,3.24.82,6.32,2.33,9.44,3.49,3.98,0,8.03,0,12.01,0,9.71,0,19.45,0,29.16,0"/><path class="b" d="M9.8,162.37c22.01,0,44.03,0,66.05,0,7.71,0,15.45,0,23.16,0,3.41-.04,6.89.08,10.29-.05,1.71-.7,3.41-1.77,5.15-2.42,5.68-2.33,12.02-2.47,18.01-1.48,4.02.66,8.06,1.62,12.01,2.63,1.69.34,3.41,1.35,5.15,1.32,10.57,0,21.17,0,31.74,0l.86-.61"/><path class="b" d="M9.8,157.71c24.01,0,48.04,0,72.05,0,1.12,0,2.5.14,3.43-.62,1.61-.9,3.41-1.75,5.15-2.36,4.1-1.51,8.54-1.81,12.87-2.01,1.98-.11,4.08-.29,6-.75,1.68-.43,3.41-1.18,5.15-1.38,6.34-.77,12.63,1.12,18.87,1.93,5.13.82,10.42,1.07,15.44,2.51,2.88.72,5.71,1.95,8.58,2.68,2.54,0,5.18,0,7.72,0,3.41,0,6.89,0,10.29,0,2.48-1.26,4.66-3.28,6.86-4.95"/><path class="b" d="M9.8,153.06c22.58-.06,45.18.12,67.76-.06,3.28-2.03,6.12-4.84,9.44-6.83,6.87-4.51,12.71-4.73,20.59-5.07,1.7-.08,3.47-.59,5.15-.78,2.63-.18,5.29.62,7.72,1.55,6.65,2.76,13.29,6.01,20.59,6.55,4.57.39,9.18.85,13.72,1.49,4.81.61,9.77,1.4,14.58.43,4.78-.99,8.71-4.19,12.87-6.56"/><path class="b" d="M9.8,148.4c14,0,28.03,0,42.03,0,4.56,0,9.17,0,13.72,0,2.25-.05,4.62.1,6.86-.08,1.75-.73,3.57-1.69,5.15-2.74,9.72-7.42,14.98-13.78,28.31-14.05,2.83.04,5.78-.82,8.58-.15,3.8,1.03,7.06,3.5,10.29,5.65,4,2.73,8.17,5.48,12.87,6.84,6.71,1.99,13.82.64,20.59-.37,4.31-.72,8.7-1.46,12.87-2.8,3.77-1.25,7.37-3.15,11.15-4.39"/><path class="b" d="M9.8,143.74c14.29,0,28.6,0,42.89,0,6.28,0,12.59,0,18.87,0,1.55-.15,2.94-1.42,4.29-2.12,2.38-1.47,4.72-3.23,6.86-5.02,6.7-5.67,13.96-11.97,23.16-12.43,3.47-.2,7.2-.39,10.29,1.47,6.83,3.87,12.31,9.99,19.73,12.86,8.7,3.62,14.87.84,23.16-2.04,3.93-1.38,7.98-2.6,12.01-3.64,3.64-.98,7.38-1.93,11.15-2.27"/><path class="b" d="M9.8,139.08c14.58,0,29.17,0,43.75,0,6.28,0,12.59,0,18.87,0,.53.07,1.31-.25,1.72-.57,1.08-.64,2.36-1.41,3.43-2.07,3.02-1.75,5.93-3.87,8.58-6.14,5.8-4.79,11.88-10.51,19.73-11.21,6.16-.64,10.67,2.4,15.44,5.82,4.02,2.84,8.2,5.69,12.87,7.37,11.36,3.93,14.24,1.85,24.87-2.01,7.37-2.67,15.33-3.96,23.16-3.22"/><path class="b" d="M9.8,134.43c17.44,0,34.89,0,52.32,0,3.7,0,7.45,0,11.15,0,1.45-.51,2.89-1.48,4.29-2.12,2.01-.98,4.18-1.94,6-3.25,4.13-2.87,7.84-6.41,12.01-9.23,6.08-4.24,12.16-5.66,18.87-1.81,5.02,2.68,9.88,5.94,15.44,7.42,3.05.87,6.29,1.2,9.44,1.57,2.53.36,5.15.97,7.72.56,4.92-.64,9.66-2.39,14.58-3.05,6.84-.95,13.83-.43,20.59.86"/><path class="b" d="M9.8,129.77c14.29,0,28.6,0,42.89,0,6.28,0,12.59,0,18.87,0,1.47-.3,2.89-1.28,4.29-1.79,1.92-.86,4.08-1.45,6-2.28,3.7-1.75,6.96-4.42,10.29-6.76,5.1-3.68,11.6-7.56,18.01-5.04,7.32,3.37,12.91,7.19,21.44,6.79,3.41-.05,6.9-.63,10.29-.09,5.96,1.07,12.02-.64,18.01-.22,3.74.15,7.48.89,11.15,1.56,3.75.49,7.45,1.49,11.15,2.24"/><path class="b" d="M9.8,125.11c17.44,0,34.89,0,52.32,0,1.67,0,3.48,0,5.15,0,2.6-.95,5.07-2.5,7.72-3.37,2.49-1,5.24-1.46,7.72-2.47,2.98-1.27,5.8-3.08,8.58-4.73,5.08-3.05,11.09-6.16,17.16-4.46,2.7.77,5.17,2.38,7.72,3.52,4.49,2.22,9.57,3.42,14.58,2.83,2.84-.26,5.72-.91,8.58-1.08,1.68-.13,3.47.22,5.15.29,4.84.12,9.76-.47,14.58.19,3.77.44,7.48,1.51,11.15,2.41,4.07.78,7.99,1.8,12.01,2.77"/><path class="b" d="M9.8,120.45c16.86,0,33.74,0,50.61,0,1.85.15,3.5-1.23,5.15-1.88,2.49-1.18,5.11-2.31,7.72-3.18,2.77-.98,5.72-1.55,8.58-2.2,2.6-.68,5.21-1.67,7.72-2.62,6.47-2.51,13.65-5.1,20.59-2.95,5.64,1.95,11.11,4.81,17.16,5.31,3.98.43,8.03-.09,12.01-.27,1.67-.09,3.48.1,5.15.06,2.26-.06,4.61-.33,6.86-.55,5.99-.71,12.07-.34,18.01.63,4.3.49,8.63,1.12,12.87,2.01"/><path class="b" d="M9.8,115.8c15.15-.02,30.31.03,45.46-.02,4.34-1.31,8.55-3.15,12.87-4.54,4.16-1.38,8.51-2.34,12.87-2.86,5.13-.61,10.32-1.05,15.44-1.74,5.1-.62,10.31-1.49,15.44-.79,7.78,1.2,15.28,4.03,23.16,4.62,3.4.28,6.89.44,10.29.12,4.6-.48,9.16-1.55,13.72-2.22,7.65-1.09,15.44-1.51,23.16-1.18"/><path class="b" d="M9.8,111.14c8.28,0,16.59,0,24.87,0,5.42-.08,10.9.25,16.3-.32,4.64-.54,9.18-1.89,13.72-2.93,4.5-1.06,9.12-1.84,13.72-2.23,6.89-.82,13.68,1.93,20.59,1.07,4.36-.36,8.58-1.76,12.87-2.51,3.09-.51,6.33-.53,9.44-.11,6.13.76,11.89,3.41,18.01,4.14,7.86.39,15.63-1.92,23.16-3.91,6.44-1.78,13.17-3.49,19.73-4.73"/><path class="b" d="M9.8,106.48c14.29,0,28.6,0,42.89,0,7.13-.73,14.26-1.92,21.44-2.13,2.54-.05,5.19-.3,7.72-.06,2.63.38,5.19,1.41,7.72,2.19,4.56.02,9.17,0,13.72,0,2.72-.5,5.19-2.19,7.72-3.25,5.75-2.85,11.81-3.86,18.01-1.87,4.5,1.21,8.94,3.69,13.72,3.11,5.45-.45,11-.81,16.3-2.27,5.26-1.41,10.34-3.56,15.44-5.44,2.57-1.11,5.09-2.58,7.72-3.55"/><path class="b" d="M9.8,101.83c18.58,0,37.17,0,55.75,0,8.28,0,16.59,0,24.87,0,4.27,0,8.6,0,12.87,0,1.67,0,3.48,0,5.15,0,.79,0,1.86.09,2.57-.35,2.96-1.9,6.04-3.86,9.44-4.88,6.79-2.2,12.41,1.18,18.87,2.43,1.37.24,2.92.07,4.29-.06,1.37-.08,2.92-.06,4.29,0,9.19.65,15.54-.06,24.02-3.95,3.74-1.44,6.83-4.2,10.29-6.15"/><path class="b" d="M9.8,97.17c19.15,0,38.32,0,57.47,0,8.85,0,17.74,0,26.59,0,4.27,0,8.6,0,12.87,0,1.37,0,2.91,0,4.29,0,.81.01,1.89.1,2.57-.43,3.41-2.29,7.07-4.55,11.15-5.34,4.58-.98,9.2.38,13.72,1.02,1.96.33,4.04-.09,6-.11,2.88.06,5.78.76,8.58,1.37,7.31,1.83,14.68,1.75,21.44-1.89,2.68-1.55,5.12-3.67,7.72-5.35"/><path class="b" d="M9.8,92.51c10.86,0,21.74,0,32.59,0,1.38,0,2.91,0,4.29,0,1.95-.32,4.03-.57,6-.51,2.27-.02,4.59.57,6.86.51,6.56,0,13.16,0,19.73,0,12.29,0,24.6,0,36.88,0,1.73-.66,3.43-1.78,5.15-2.49,2.71-1.22,5.64-2.14,8.58-2.61,3.1-.52,6.32-.56,9.44-.83,1.68-.12,3.46-.59,5.15-.66,2.28-.09,4.65.28,6.86.78,7.5,1.82,15.69,4.74,23.16,1.27,2.69-1.29,5.17-3.16,7.72-4.69"/><path class="b" d="M9.8,87.36c2.79.72,5.73.45,8.58.49,4.27,0,8.59,0,12.87,0,4.27,0,8.6,0,12.87,0,2.51-.63,5.11-1.48,7.72-1.46,2.61.02,5.24.7,7.72,1.46,5.99,0,12.02,0,18.01,0,13.72,0,27.45,0,41.17,0,1.07,0,2.36,0,3.43,0,2.31-.52,4.59-1.58,6.86-2.28,3.38-1.16,6.86-2.27,10.29-3.27,3.04-.93,6.23-1.74,9.44-1.72,8.13-.27,15.88,4.14,24.02,2.91,3.32-.65,6.39-2.32,9.44-3.72"/><path class="b" d="M9.8,80.73c2.01.25,4.09.81,6,1.45,1.09.32,2.28.98,3.43,1.01,3.7,0,7.45,0,11.15,0,4.56,0,9.17,0,13.72,0,1.08-.02,2.36.07,3.43-.1,1.06-.34,2.32-.7,3.43-.79,2.32-.27,4.61.57,6.86.9,4.27,0,8.6,0,12.87,0,12.29,0,24.6,0,36.88,0,8,0,16.02,0,24.02,0,4.08-1.44,7.85-3.87,12.01-5.15,5.73-2.23,11.97-3.14,18.01-1.7,3.12.62,6.25,1.61,9.44,1.88,3.76.2,7.54-.74,11.15-1.69"/><path class="b" d="M9.8,75.66c1.73.34,3.53.94,5.15,1.62,1.1.37,2.24,1.3,3.43,1.25,8.28,0,16.59,0,24.87,0,11.14,0,22.31,0,33.45,0,2.25,0,4.61,0,6.86,0,4.19-2.33,8.82-4.45,13.72-3.26,2.05.43,4.11,1.28,6,2.17.75.35,1.77.88,2.57,1.09.42,0,1.29,0,1.72,0,9.14,0,18.31,0,27.45,0,1.07,0,2.36,0,3.43,0,1.06-.55,2.33-1.23,3.43-1.72,3.72-1.57,7.25-3.8,11.15-4.93,5.84-1.91,11.49.06,17.15,1.55,3.92.74,8.04.71,12.01.49"/><path class="b" d="M9.8,72.27c1.11.45,2.37,1.06,3.43,1.61.78,0,1.8,0,2.57,0,3.12,0,6.31,0,9.44,0,8.28,0,16.59,0,24.87,0,10.29,0,20.59,0,30.88,0,.92.17,1.92-.44,2.57-1.03.76-.58,1.79-1.36,2.57-1.91,3.64-2.71,8.36-4.55,12.87-3.05,4.25,1.21,7.76,4.3,12.01,5.49.43.1,1.3.35,1.72.5.42,0,1.29,0,1.72,0,1.67,0,3.48,0,5.15,0,4.84,0,9.74,0,14.58,0,2.83,0,5.75,0,8.58,0,2.13-.61,4.02-2.15,6-3.11,2.89-1.58,6.1-2.91,9.44-3.03,4.16-.21,8.1,1.5,12.01,2.67,1.62.51,3.47.66,5.15.88,2.24.32,4.59.67,6.86.72"/><path class="b" d="M9.8,69.22c19.72,0,39.46,0,59.19,0,4.27,0,8.6,0,12.87,0,.96.2,1.92-.61,2.57-1.21.76-.64,1.79-1.5,2.57-2.11,2.73-2.13,5.91-4.09,9.44-4.37,3.94-.33,7.63,1.53,11.15,3.04,2.18,1.03,4.73,1.28,6.86,2.4,1.41.65,2.84,1.68,4.29,2.25,2.83,0,5.75,0,8.58,0,5.42,0,10.88,0,16.3,0,2.87-1.02,5.61-2.67,8.58-3.45,3.03-.9,6.35-1,9.44-.32,3.19.66,6.27,2.01,9.44,2.74,3.66.56,7.45.89,11.15.97"/><path class="b" d="M9.8,64.57h74.62c4.77-4.36,10.19-9.55,17.16-9.01,2.3.13,4.63.76,6.86,1.31,1.66.44,3.52.58,5.15,1.15,3.57,1.26,6.84,3.35,10.29,4.87,2.15.95,4.46,1.92,6.86,1.68,3.12,0,6.31,0,9.44,0,5.69-.93,11.31-2.87,17.16-2.54,4.32.1,8.58,1.2,12.87,1.67,3.98.28,8.05-.1,12.01-.48"/><path class="b" d="M9.8,59.91h75.48c7.06-6.78,12.77-11.61,23.16-10.16,8.78.12,16.52,4.74,24.87,6.8,5.58,1.51,11.44,1.39,17.16,1.88,5.98.42,12.05.54,18.01-.21,4.66-.51,9.24-1.74,13.72-3.05"/><path class="b" d="M9.8,55.25c16.58,0,33.17,0,49.75,0,5.71,0,11.45,0,17.16,0,2.25,0,4.61,0,6.86,0,1.41.26,2.47-1.12,3.43-1.92,9.06-8.01,13.81-9.45,25.73-9.23,5.51-.14,11.09.55,16.3,2.39,3.47,1.17,6.88,2.72,10.29,4.04,2.81,1.02,5.76,1.93,8.58,2.95,6.89,2.52,13.02,2.1,19.73-.78,2.51-1.07,5.19-2,7.72-3.02,2.28-1.01,4.59-2.24,6.86-3.27"/><path class="b" d="M9.8,50.6c16.29,0,32.6,0,48.89,0,7.42,0,14.88,0,22.3,0,1.37.25,2.46-.96,3.43-1.73,1.62-1.31,3.41-2.67,5.15-3.83,10.37-6.93,15.76-4.33,26.59-6.19,4.83-.91,9.95-1,14.58.85,3.29,1.23,6.38,3.11,9.44,4.83,3.16,1.62,6.24,3.55,9.44,5.1.73.34,1.79.77,2.57.96,1.37,0,2.92,0,4.29,0,1.37,0,2.92,0,4.29,0,1.14-.23,2.4-.85,3.43-1.37,2.92-1.5,5.64-3.53,8.58-4.99,3.35-1.49,6.29-3.87,9.44-5.71"/><path class="b" d="M9.8,45.94c15.15,0,30.31,0,45.46,0,5.13,0,10.31,0,15.44,0,2.25-.06,4.62.13,6.86-.11,1.48-.93,2.94-2.24,4.29-3.35,5.88-4.99,12.72-8.3,20.59-7.89,3.98.08,8.07.65,12.01-.24,4.48-.97,9.17-2.12,13.72-.98,4.06.93,7.69,3.21,11.15,5.43,3.16,1.91,6.3,4.04,9.44,5.99.71.42,1.74,1.03,2.57,1.15,1.07,0,2.36,0,3.43,0,2.54,0,5.18,0,7.72,0,3.1-1.25,5.76-3.53,8.58-5.27,1.33-.86,2.97-1.58,4.29-2.46,2.3-1.51,4.55-3.31,6.86-4.8"/><path class="b" d="M9.8,41.28c13.72,0,27.45,0,41.17,0,4.56,0,9.17,0,13.72,0,1.67,0,3.48,0,5.15,0,1.78-.65,3.52-1.77,5.15-2.74,2.73-1.62,5.14-3.87,7.72-5.69,3.74-2.61,8.29-4.11,12.87-4.08,5.17-.07,10.27,1.53,15.44,1.25,4.05-.33,7.94-2,12.01-2.17,5.73-.42,10.93,2.6,15.44,5.79,3.11,2.12,6.33,4.25,9.44,6.38.71.45,1.71,1.15,2.57,1.26,1.37,0,2.92,0,4.29,0,2.83,0,5.75,0,8.58,0,1.23-.11,2.39-1.12,3.43-1.71,1.37-.9,2.89-1.94,4.29-2.81,1.32-.83,2.95-1.52,4.29-2.33,2.27-1.35,4.54-2.94,6.86-4.21"/><path class="b" d="M9.8,36.62h56.61c3.52-2.25,6.93-4.79,10.29-7.26,2.89-2.15,5.83-4.59,9.44-5.37,7.7-1.79,15.41,1.65,23.16,1.1,4.73-.19,9.01-2.78,13.72-3.07,6.34-.54,11.62,3.7,16.3,7.41,3.32,2.47,6.7,5.06,10.29,7.13,3.98.14,8.03.01,12.01.05.41,0,1.3,0,1.72-.03.42-.23,1.31-.71,1.72-.97,1.7-1.03,3.46-2.26,5.15-3.31,1.57-1.03,3.45-1.79,5.15-2.56,2.22-1.04,4.54-2.17,6.86-2.98"/><path class="b" d="M9.8,31.97c18.58-.03,37.18.06,55.75-.04,3.47-2.55,6.83-5.38,10.29-7.94,3.25-2.46,6.92-4.82,11.15-4.72,4.29-.07,8.58.89,12.87.94,4.33.09,8.72-.56,12.87-1.8,3.37-1.17,6.67-2.97,10.29-3.22,5.82-.45,10.55,3.73,14.58,7.39,2.39,2.25,5.04,4.37,7.72,6.27,1.58,1.13,3.36,2.26,5.15,3.03,1.37.15,2.92.05,4.29.08,1.07,0,2.36,0,3.43,0,1.11.03,2.45.06,3.43-.55,3.31-1.61,6.23-4.03,9.44-5.82,3.45-1.74,7.35-2.71,11.15-3.29"/><path class="b" d="M9.8,27.31c17.15,0,34.31,0,51.47,0,5.4-.06,4.26.7,8.58-2.68,3.53-2.63,7.04-5.55,11.15-7.23,4.98-1.67,10.33-.04,15.44-.74,4.18-.42,8.15-2.07,12.01-3.65,1.35-.57,2.93-1.03,4.29-1.59,1.98-.85,3.99-1.95,6-2.7,7.94-3.33,13.82,2.68,18.87,8.02,2.78,2.99,5.96,5.76,9.44,7.92,10.39,6.47,16.3-2.01,24.87-6.41,3.22-1.32,6.85-1.53,10.29-1.42"/></svg>