<?xml version="1.0" encoding="UTF-8"?><svg id="a" xmlns="http://www.w3.org/2000/svg" width="1920" height="2400" viewBox="0 0 192 240"><defs><style>.b{fill:none;stroke:#fff;stroke-miterlimit:10;stroke-width:.3px;}.c{stroke-width:0px;}</style></defs><rect class="c" x="0" width="192" height="240"/><path class="b" d="M12.97,230.72c3.86,1.82,8.26,1.23,12.39,1.09,3.01-.15,6.11-.26,9.09-.8,4.74-1.03,9.4-2.57,14.04-3.95,10.06-3.2,20.3-5.84,30.57-8.28,4.1-.93,8.31-1.63,12.39-2.64,5.32-1.43,10.39-2.61,15.7-.37,5,1.86,9.41,5.58,14.87,6.03,2.17.11,4.44-.02,6.61.11,6.55.5,13.36,2.33,19.83.37,2.84-.97,5.46-2.68,8.26-3.75,3.64-1.52,7.71-1.17,11.57-1.28,3.64-.04,7.32-.72,10.74-1.97"/><path class="b" d="M12.97,226.77c2.04,1.12,4.35,1.79,6.61,2.28,2.41.58,4.96.94,7.44.81,4.29-.21,8.34-1.91,12.39-3.18,5.61-1.99,11.65-2.25,17.35-3.86,3.86-1.06,7.71-2.35,11.57-3.42,2.43-.7,5.02-1.1,7.44-1.85,2.74-.86,5.48-1.98,8.26-2.72,3.22-.88,6.59-1.32,9.91-1.57,5.49-.74,11.37-1.43,16.52,1.13,2.16,1.04,4.35,2.28,6.61,3.09,2.35.9,4.95,1.1,7.44.93,2.47-.09,5.04.02,7.44.66,9.51,2.54,13.49,3.7,22.31-1.84,2.51-1.41,5.36-2.39,8.26-2.43,5.59-.04,11.42.04,16.52-2.57"/><path class="b" d="M12.97,222.76c1.79,1.14,3.82,2.06,5.78,2.86,2.08.94,4.31,1.91,6.61,2.13,3.81.43,7.3-1.52,10.74-2.84,2.92-1.14,5.96-2.25,9.09-2.62,2.99-.42,6.11-.21,9.09-.7,3.37-.65,6.67-1.86,9.91-2.95,2.15-.72,4.4-1.45,6.61-1.97,1.92-.44,3.98-.78,5.78-1.6,7.27-3.39,9.94-4.75,18.17-4.17,5.2-.04,10.69-1.77,15.7.32,2.43,1.13,4.86,2.53,7.44,3.34,2.91,1.04,6.07.69,9.09.85,2.54.09,5.06.89,7.44,1.76,9.07,3.37,12.96,1.93,20.65-3.34,2.22-1.37,4.81-2.35,7.44-2.49,5.57-.3,11.49.12,16.52-2.71"/><path class="b" d="M12.97,219.01c1.81,1.19,3.84,2.2,5.78,3.14,2.29,1.22,4.78,2.49,7.44,2.53,3.57.09,6.66-2.04,9.91-3.17,2.91-1.07,5.96-2.07,9.09-2.21,2.73-.2,5.54.15,8.26-.04,4.58-.54,8.87-2.53,13.22-3.95,3.21-1.25,6.78-1.58,9.91-3.02,6.41-3.31,9.94-5.02,17.35-3.76,6.04.61,12.52-2.65,18.17.57,10.25,5.58,11.58,2.09,20.65,5.01,6.84,2.56,12.84,2.78,19-1.67,3.02-2.14,6.15-4.57,9.91-5.15,5.76-.91,12,.2,17.35-2.59"/><path class="b" d="M12.97,215.68c1.82,1.09,3.85,2.04,5.78,2.91,2.3,1.12,4.82,2.2,7.44,2.14,3.2-.03,6.1-1.69,9.09-2.62,3.23-.86,6.55-1.79,9.91-1.81,2.73-.11,5.53.21,8.26.06,4.59-.48,8.94-2.31,13.22-3.93,3.22-1.37,6.74-2.13,9.91-3.61,5.48-2.85,9.41-4.22,15.7-3.39,5.75.85,11.67-1.06,17.35.37,3.58,1.18,6.94,3.27,10.74,3.77,3.55.4,7.25-.1,10.74.89,2.97.76,6,1.72,9.09,1.77,3.76.04,7.58-1.15,10.74-3.18,3.37-2.24,6.67-4.99,10.74-5.81,2.42-.49,4.99-.66,7.44-.95,3.35-.14,6.82-.42,9.91-1.82"/><path class="b" d="M12.97,212.12c2.1,1.13,4.41,2.02,6.61,2.94,3.08,1.39,6.59,2.04,9.91,1.19,1.63-.36,3.33-.95,4.96-1.35,1.6-.34,3.35-.56,4.96-.88,4.62-.94,9.37-.51,14.04-.66,2.78-.26,5.61-.9,8.26-1.78,3.11-1.04,6.12-2.56,9.09-3.95,3.05-1.31,6.08-2.83,9.09-4.23,3.59-1.72,7.66-1.91,11.57-1.9,5.5.03,11.13-.26,16.52,1.06,2.52.58,4.98,1.67,7.44,2.46,1.83.58,3.85.99,5.78,1.01,3-.07,6.1-.58,9.09-.04,6.02,1.31,11.22,3.43,17.35.86,3.55-1.42,6.51-4.06,9.91-5.77,3.56-1.9,7.68-2.36,11.57-3.25,3.33-.51,6.76-.94,9.91-2.19"/><path class="b" d="M12.97,207.7c2.14.93,4.44,1.7,6.61,2.56,3.11,1.29,6.54,2.04,9.91,1.58,3.01-.48,6.05-.9,9.09-1.16,7.11-1.21,14.44-.03,21.48-1.74,7.24-1.73,12.97-6.99,19.83-9.69,3.63-1.62,7.69-1.56,11.57-2.04,6.08-1.05,11.57-.38,17.35,1.7,3.79,1.12,7.57,2.75,11.57,2.9,3.29.03,6.62-.81,9.91-.4,3.35.44,6.56,1.86,9.91,2.31,5.93,1.03,10.05-2.1,14.87-4.91,3.31-1.97,7.04-3.18,10.74-4.19,4.29-1.59,8.88-2.34,13.22-3.79"/><path class="b" d="M12.97,202.23c3.93,1.02,7.64,2.85,11.57,3.86,2.96.73,6.08.59,9.09.38,1.61-.1,3.35-.02,4.96-.18,7.67-.91,15.56.22,23.13-1.54,6.45-1.76,11.14-7.12,17.35-9.43,4.44-1.94,9.45-1.38,14.04-2.74,3.49-.9,7.24-1.07,10.74-.11,4.69,1.35,9.33,3.08,14.04,4.35,3.78.99,7.73.13,11.57.2,5.82.18,11.49,3.93,17.35,1.86,3.97-1.6,7.55-4.18,11.57-5.72,3.23-1.35,6.73-2.17,9.91-3.62,3.45-1.38,7.16-2.17,10.74-3.1"/><path class="b" d="M12.97,196.14c4.33.62,8.18,2.94,12.39,3.96,2.68.67,5.52.73,8.26.72,2.17.05,4.44.15,6.61.03,5.5-.22,11.03.4,16.52-.03,2.8-.05,5.7-.43,8.26-1.62,6.06-2.9,10.26-7.84,17.35-8.81,2.15-.36,4.45-.22,6.61-.54,1.95-.22,3.91-.9,5.78-1.45,4.3-1.41,8.95-1.23,13.22.17,3.08.79,6.17,1.78,9.09,3.06,3.63,1.59,7.67,1.74,11.57,1.62,5.53-.34,11.02,2.27,16.52.86,2.05-.45,3.96-1.6,5.78-2.58,2.11-1.12,4.37-2.21,6.61-3.07,3.22-1.28,6.71-1.97,9.91-3.29,3.63-1.57,7.67-2.03,11.56-2.51"/><path class="b" d="M12.97,190.68c4.28.57,8.11,2.99,12.39,3.58,2.71.45,5.53.25,8.26.19,3.28.12,6.63.21,9.91.41,4.39.33,8.8,1.05,13.22.93,2.47.12,5.06.11,7.44-.65,3.62-1.1,6.69-3.52,9.91-5.41,2.54-1.46,5.36-2.61,8.26-3.08,2.43-.4,5-.21,7.44-.61,2.22-.32,4.43-1.14,6.61-1.65,4.61-1.26,9.45-.81,14.04.28,4.33.76,8.05,3.6,12.39,4.34,3.25.67,6.63.37,9.91.3,3.57-.01,7.25,0,10.74-.85,4.67-1.09,8.64-4.12,13.22-5.49,3.2-1.13,6.64-1.55,9.91-2.4,3.96-1.41,8.24-1.44,12.39-1.48"/><path class="b" d="M12.97,186.06c3.36.76,6.49,2.51,9.91,3.04,3.29.58,6.65-.09,9.91-.48,2.45-.27,4.98.15,7.44.17,5.29.13,10.44,1.73,15.7,2.11,2.16.27,4.42.69,6.61.49,3.63-.27,6.85-2.24,9.91-4.04,3.87-2.16,7.92-4.44,12.39-4.94,1.89-.17,3.9-.33,5.78-.61,2.44-.43,4.96-.99,7.44-1.2,3.27-.33,6.64-.31,9.91-.06,2.2.16,4.53.35,6.61,1.15,7.79,3.17,11.34,4.13,19.83,2.61,3.89-.62,7.83-1.39,11.57-2.68,3.33-1.2,6.5-2.98,9.91-3.95,3.19-1.02,6.6-1.3,9.91-1.6,4.35-.8,8.81-.82,13.22-.72"/><path class="b" d="M12.97,182.06c5.86,2.47,10.02,4.46,16.52,2.77,2.42-.57,4.94-1.1,7.44-.82,5.28-.16,10.62.17,15.7,1.71,3.55.57,7.11,1.87,10.74,1.61,2.96-.26,5.7-1.72,8.26-3.12,3.82-1.84,7.47-4.27,11.57-5.46,3.22-.79,6.64-.8,9.91-1.27,3.28-.28,6.63-.01,9.91-.09,4.4-.02,8.97-.81,13.22.72,8.05,2.74,11.55,3.03,19.83.82,3.55-.87,7.22-1.54,10.74-2.56,3.33-1.04,6.53-2.67,9.91-3.57,3.2-.95,6.6-1.05,9.91-1,4.11-.1,8.28-.08,12.39-.18"/><path class="b" d="M12.97,178.48c4.76,2.55,10.23,4.77,15.7,3.46,1.62-.31,3.33-.79,4.96-1.04,1.32-.23,2.8-.09,4.13-.21,4.36-.54,8.92-1.09,13.22.13,1.88.56,3.9,1.03,5.78,1.56,2.11.63,4.39,1.17,6.61.96,2.96-.26,5.67-1.78,8.26-3.12,3.34-1.44,6.53-3.35,9.91-4.69,2.87-1.11,6.06-1.1,9.09-1.26,3.57-.4,7.17.24,10.74.24,4.42.11,8.82-1.62,13.22-.77,10.42,2.43,10.45,3.82,21.48.88,3.79-.91,7.77-1.09,11.57-1.96,3.39-.9,6.56-2.65,9.91-3.67,3.71-1.3,7.72-1.05,11.57-.66,3.28.23,6.64.05,9.91-.18"/><path class="b" d="M12.97,175.01c1.83.98,3.82,1.84,5.78,2.48,2.87,1.11,5.99,1.94,9.09,1.63,2.2-.17,4.43-.77,6.61-1.05,2.22-.08,4.47-.49,6.61-1.07,3.77-.93,7.83-1.32,11.57-.03,3.75.99,7.61,2.79,11.57,1.97,2.64-.52,5.05-1.93,7.44-3.1,2.98-1.24,6.01-2.61,9.09-3.6,2.92-.94,6.07-.67,9.09-.62,1.33.04,2.81-.1,4.13-.1,2.45.03,4.99.21,7.44-.07,2.5-.25,5-.98,7.44-1.53,4.85-1.36,9.51,1.16,14.04,2.56,5.28,1.83,9.7-.5,14.87-1.27,3.54-.62,7.25-.44,10.74-1.32,3.15-.91,6.04-2.67,9.09-3.86,2.07-.83,4.37-1.42,6.61-1.42,1.9-.03,3.89.37,5.78.54,3,.29,6.09.17,9.09-.04"/><path class="b" d="M12.97,171.55c1.84.83,3.87,1.42,5.78,2.02,2.41.9,4.87,1.99,7.44,2.36,2.74.44,5.56-.03,8.26-.48,2.85-.21,5.56-1.34,8.26-2.16,3.2-.95,6.69-1.36,9.91-.29,6.05,1.9,9.77,2.8,15.7-.24,2.1-1.06,4.32-2.08,6.61-2.62,2.14-.65,4.39-1.34,6.61-1.65,2.72-.4,5.53.01,8.26.04,2.73-.04,5.53-.22,8.26-.28,3.96-.12,7.74-1.53,11.57-2.36,6.01-1.29,10.83,3.86,16.52,4.69,1.92.32,3.94-.15,5.78-.66,2.14-.56,4.41-1.07,6.61-1.33,6.64-.69,9.59,0,15.7-3.78,3.97-2.35,8.52-4.34,13.22-3.41,3.8.64,7.73.7,11.56.38"/><path class="b" d="M12.97,168.55c1.86.64,3.9.93,5.78,1.43,1.92.63,3.85,1.56,5.78,2.16,5.8,1.91,11.93-.13,17.35-2.31,3.14-1.11,6.63-1.84,9.91-.94,6.61,2.03,10.15,2.16,16.52-.75,2.33-1.11,4.88-1.76,7.44-2.09,2.16-.4,4.42-.84,6.61-1.03,3.56-.25,7.19-.03,10.74-.43,2.73-.13,5.55,0,8.26-.36,3.32-.36,6.57-1.55,9.91-1.76,5.47.06,9.59,4.7,14.87,5.53,1.93.35,3.94-.19,5.78-.72,1.59-.42,3.33-.82,4.96-1.07,3.81-.66,7.82-.25,11.57-1.28,4.68-1.55,8.37-5.39,13.22-6.56,2.7-.74,5.55-.18,8.26.14,3.01.29,6.11.07,9.09-.38"/><path class="b" d="M12.97,165.9c2.72.6,5.64.53,8.26,1.57,2.37.8,4.91,1.52,7.44,1.44,4.31-.21,8.42-1.91,12.39-3.47,2.86-1.03,6.05-1.72,9.09-1.23,8.77,2.3,10.33,2.15,19-.6,2.38-.82,4.96-.78,7.44-1.01,2.73-.29,5.52-.77,8.26-1.04,2.73-.22,5.52-.68,8.26-.86,2.73-.09,5.53.25,8.26.15,3.58,0,7.16-1.04,10.74-.88,5.04.67,9,4.71,14.04,5.37,1.94.29,3.94-.29,5.78-.82,1.59-.42,3.33-.81,4.96-1.04,4.09-.69,8.47-.11,12.39-1.63,4.21-1.85,7.77-5.28,12.39-6.17,2.71-.6,5.54.03,8.26.19,3.05.15,6.15-.42,9.09-1.22"/><path class="b" d="M12.97,163.58c2.44.36,5.01.11,7.44.58,7.47,1.58,11.45-.82,18.17-3.4,3.35-1.44,7.09-2.34,10.74-1.82,1.93.31,3.87,1.02,5.78,1.4,4.67.95,9.42-.11,14.04-.78,2.72-.46,5.53-.01,8.26-.21,3.31-.23,6.64-.84,9.91-1.36,1.88-.33,3.87-.71,5.78-.75,2.74,0,5.53.53,8.26.67,3.56.29,7.18-.39,10.74-.19,5.2.74,9.51,4.8,14.87,4.81,1.66.03,3.37-.52,4.96-.94,2.13-.55,4.41-.97,6.61-1.16,4.16-.37,8.65.05,12.39-2.16,3.63-1.98,7.29-4.52,11.57-4.67,2.18-.14,4.44.29,6.61.36,3.41.09,6.78-.93,9.91-2.18"/><path class="b" d="M12.97,160.99c1.89.18,3.89.06,5.78.04,2.46.08,5.04.14,7.44-.5,2.91-.73,5.59-2.3,8.26-3.6,5.25-2.38,10.65-4.95,16.52-3.25,5.06,1.63,10.43,1.81,15.7,1.5,3.3-.24,6.63.08,9.91.33,5.24.25,10.48-.68,15.7-.95,3.02,0,6.07.64,9.09.75,3.84.3,7.76-.7,11.57-.05,4.53,1.03,8.5,4.13,13.22,4.44,3.09.21,6.05-1.17,9.09-1.51,3.26-.51,6.63-.3,9.91-.46,4.85-.1,8.69-3.61,13.22-4.84,8.72-1.99,9.72,2.14,20.65-3.28"/><path class="b" d="M12.97,158.03c4.41.17,9.08.26,13.22-1.46,2.59-1.06,4.99-2.67,7.44-4.01,3.88-1.87,8.06-3.58,12.39-3.95,3.33-.39,6.62.66,9.91.98,3.83.37,7.73.27,11.57.42,3.6.07,7.19.74,10.74,1.25,3.81.52,7.72.81,11.57.83,4.11.07,8.28.65,12.39.21,4.1-.36,8.44-1.41,12.39.26,4.76,1.84,9.56,4.9,14.87,3.86,2.14-.44,4.42-.79,6.61-.84,4.38-.24,8.94,1.04,13.22-.32,2.2-.73,4.4-1.78,6.61-2.5,10.68-3.14,10.64,1.9,23.13-5.56"/><path class="b" d="M12.97,154.53c10.94,1.06,12.68-1.91,21.48-6.58,4.98-1.89,10.38-2.88,15.7-3.12,2.17-.03,4.44.13,6.61.02,3.56-.2,7.18-.5,10.74-.15,5.6.46,11,2.27,16.52,3.23,4.35.64,8.81,1.36,13.22,1.28,4.4-.1,8.8-1.57,13.22-.98,3.48.61,6.63,2.45,9.91,3.66,2.08.79,4.37,1.35,6.61,1.41,1.9.07,3.89-.32,5.78-.36,4.41-.19,8.81.89,13.22.82,1.95-.03,3.93-.66,5.78-1.2,2.94-.9,6.02-1.66,9.09-1.96,3.02-.34,6.23-.21,9.09-1.37,3.21-1.32,6.11-3.41,9.09-5.18"/><path class="b" d="M12.97,150.32c2.45.13,4.99.64,7.44.28,5.22-.7,9.28-4.44,14.04-6.34,2.91-.97,6.08-1.07,9.09-1.57,3.31-.49,6.6-1.38,9.91-1.83,2.76-.3,5.52-1.03,8.26-1.39,5.92-.84,11.69,1.27,17.35,2.7,3.5.93,7.15,1.45,10.74,1.93,1.89.27,3.87.77,5.78.83,3.56.19,7.18-.39,10.74-.26,5.01.06,9.34,3.02,14.04,4.37,4.53,1.56,9.37.72,14.04,1.05,3.83.27,7.71.97,11.57.78,3.89-.33,7.7-1.62,11.57-2.17,13.13-2.02,10.61-2.04,21.48-8.55"/><path class="b" d="M12.97,145.6c2.73.14,5.52,1.01,8.26.5,5.07-.76,9.14-4.38,14.04-5.6,1.59-.3,3.34-.35,4.96-.46,3.99-.12,7.83-1.41,11.57-2.7,3-.86,6.07-1.75,9.09-2.54,3.85-.96,7.86-.21,11.57.98,3.5,1.02,7.1,1.98,10.74,2.37,2.17.24,4.45.32,6.61.64,1.64.23,3.33.79,4.96,1.09,3.82.72,7.79.94,11.57,1.89,2.86.66,5.57,1.98,8.26,3.11,2.87,1.2,5.97,2.12,9.09,2.27,4.11.12,8.28-.19,12.39.17,5.26.38,10.57.09,15.7-1.15,4.43-.82,8.9-1.7,13.22-3.01,5.15-1.3,9.16-5.15,14.04-7.08"/><path class="b" d="M12.97,140.96c2.75.1,5.5,1.08,8.26.7,4.74-.52,8.72-3.5,13.22-4.81,1.85-.48,3.89-.48,5.78-.64,3.73-.19,7.32-1.44,10.74-2.86,2.12-.88,4.43-1.47,6.61-2.18,5.36-1.92,9.63-1.37,14.87.5,2.93.93,6.02,1.62,9.09,1.84,3,.25,6.12-.05,9.09.59,5.03,1.48,10.03,3.29,14.87,5.3,3.58,1.47,7.04,3.42,10.74,4.61,3.99,1.39,8.28,1.05,12.39.59,3.56-.25,7.19-.26,10.74-.62,9.27-1.01,18.42-3.28,27.26-6.2,4.22-1.44,7.99-4.17,12.39-5.11"/><path class="b" d="M12.97,137.36c1.9-.03,3.89.28,5.78.39,4.64.24,9-1.69,13.22-3.36,4.2-1.72,8.9-1.63,13.22-2.98,5.95-1.85,11.87-4.39,18.17-4.64,3.35-.09,6.68.8,9.91,1.57,2.95.69,6.06.89,9.09.81,3.3-.12,6.79-.39,9.91.9,8.82,3.69,15.8,11.61,25.61,12.87,3.32.47,6.68-.28,9.91-.99,2.71-.54,5.54-.88,8.26-1.39,4.42-.8,8.87-1.74,13.22-2.87,5.76-1.65,11.48-3.58,17.35-4.82,4.13-1.02,8.14-2.76,12.39-3.27"/><path class="b" d="M12.97,134.29c4.4-.33,8.9-.12,13.22-1.18,3.07-.67,6.08-1.79,9.09-2.67,4.95-1.34,9.9-2.84,14.87-4.09,4.85-1.18,9.87-1.88,14.87-1.75,4.4,0,8.81.81,13.22.7,3.83,0,7.81-.64,11.57.36,3.83.93,6.97,3.56,9.91,6.05,5.28,4.63,10.06,8.49,17.35,9.17,3.95.47,7.85-.72,11.57-1.92,2.98-.91,6.07-1.75,9.09-2.54,3.83-1.04,7.8-1.84,11.57-3.11,3.28-1.23,6.51-2.82,9.91-3.71,2.92-.9,6.07-.95,9.09-1.27,3.57-.41,7.18-1.06,10.74-1.55"/><path class="b" d="M12.97,131.3c2.18-.33,4.42-.85,6.61-1.06,4.13-.38,8.36-.58,12.39-1.66,4.51-1.11,8.7-3.35,13.22-4.44,5.38-1.26,11.01-1.45,16.52-1.26,5.23.1,10.47-.74,15.7-.84,4.74-.25,9.67-.03,14.04,2.01,7.55,3.27,12.21,11.65,20.65,13.23,9.99,2.62,13.34.37,22.31-3.08,5.7-2.12,12.04-2.55,17.35-5.66,3.53-2,7.41-3.88,11.57-3.76,5.23.38,10.56.71,15.7-.6"/><path class="b" d="M12.97,127.93c2.46-.53,4.91-1.5,7.44-1.71,4.11-.4,8.35-.08,12.39-1.08,3.74-.87,7.06-3.07,10.74-4.12,2.92-.9,6.06-1.03,9.09-.88,2.74-.08,5.54.14,8.26.46,3.9.44,7.77-.45,11.57-1.22,4.68-.78,9.56-.58,14.04,1.05,3.09,1.29,6.32,2.62,9.09,4.53,5.03,3.72,10.09,8.02,16.52,8.82,5.53,1.34,11.06,3.1,16.52.42,1.88-.93,3.82-2.04,5.78-2.8,5.65-2.44,12.26-2.53,17.35-6.24,12.12-8.68,14.82,0,27.26-3.87"/><path class="b" d="M12.97,124.07c2.45-.63,4.89-1.68,7.44-1.89,4.1-.4,8.33.12,12.39-.74,3.74-.75,7.06-2.95,10.74-3.91,2.93-.84,6.06-.92,9.09-.72,3.03-.09,6.08.32,9.09.69,9.76.68,13.04-4,23.96.63,3.05,1.43,6.1,3.05,9.09,4.6,2.97,1.76,5.9,3.79,9.09,5.15,3.38,1.59,7.23,1.82,10.74,2.99,4.46,1.6,9.52,3.41,14.04,1.03,2.17-1.18,4.34-2.61,6.61-3.61,5.04-2.54,10.99-3.08,15.7-6.3,2.57-1.73,5.2-3.68,8.26-4.42,3-.81,6.12.11,9.09.61,3.54.69,7.27.66,10.74-.38"/><path class="b" d="M12.97,120.52c2.17-.68,4.35-1.69,6.61-2.08,4.35-.79,8.86-.07,13.22-.75,3.98-.64,7.59-2.8,11.57-3.49,2.69-.56,5.52-.63,8.26-.55,3.02-.14,6.08.04,9.09.29,9.75.46,13.1-2.94,23.13,1.87,5.71,2.82,11.32,6.01,17.35,8.12,3.21,1.16,6.65,1.73,9.91,2.67,2.51.84,4.93,2.16,7.44,3,7.03,2.58,10.95-2.08,16.52-5.31,2.33-1.39,4.88-2.6,7.44-3.53,2.19-.81,4.55-1.51,6.61-2.63,2.89-1.53,5.83-3.29,9.09-3.91,3.26-.67,6.64.01,9.91.27,3.28.36,6.68.31,9.91-.38"/><path class="b" d="M12.97,117.88c8.65-4.08,11-2.85,19.83-3.27,2.25-.17,4.45-1.01,6.61-1.61,2.13-.61,4.4-1.09,6.61-1.36,2.44-.35,4.98-.38,7.44-.48,3.83-.37,7.73-.32,11.57-.45,5.27-.25,10.72-.54,15.7,1.51,6.19,2.15,11.78,5.85,18.18,7.45,4.11,1.16,8.37,2,12.39,3.47,3.04,1.17,5.88,3.09,9.09,3.82,9.52,2.09,14.24-9.77,27.26-12.59,4.31-1.43,8.67-3.02,13.22-3.45,6.03-.68,12.16-.22,18.17-1.03"/><path class="b" d="M12.97,116.11c7.41-4.06,10.84-4.04,19-3.71,3.08.08,6.08-1.01,9.09-1.51,4.63-.88,9.37-1.17,14.04-1.68,5.45-.77,11.03-1.45,16.52-.69,4.53.57,8.87,2.19,13.22,3.48,3.38.88,6.58,2.51,9.91,3.52,3.82,1.04,7.82,1.62,11.57,2.94,3.73,1.16,7.14,3.23,10.74,4.69,10.57,4.01,17.31-9.68,26.44-12.46,5.35-1.64,11.03-1.93,16.52-2.84,2.75-.43,5.52-1.2,8.26-1.65,3.54-.56,7.18-.78,10.74-1.09"/><path class="b" d="M12.97,114.63c5.05-3.12,9.69-4.78,15.7-4.17,2.73.21,5.57.49,8.26-.15,5.74-.99,11.57-1.69,17.35-2.41,3.01-.44,6.05-1.16,9.09-1.35,7.1-.63,13.72,2.69,20.65,3.57,1.91.25,3.92.53,5.78,1.03,1.9.51,3.84,1.32,5.78,1.67,2.74.55,5.6,1.01,8.26,1.89,3.42,1.09,6.68,2.76,9.91,4.31,3.83,1.95,7.89,2.16,11.57-.28,2.23-1.46,4.52-3.07,6.61-4.73,2.39-2.01,4.74-4.26,7.44-5.87,5.69-3.5,12.72-2.16,19-3.41,3.12-.53,6.08-1.88,9.09-2.78,3.75-1.04,7.69-1.54,11.57-1.81"/><path class="b" d="M12.97,112.45c4.95-3.14,9.78-4.82,15.7-4.11,2.72.26,5.55.62,8.26.09,5.5-.66,11.03-1.36,16.52-2.07,3.55-.46,7.14-1.26,10.74-1.11,5.41.09,10.37,2.69,15.7,3.3,2.71.41,5.54.25,8.26.46,2.23.14,4.43.96,6.61,1.38,3.01.53,6.14.88,9.09,1.74,3.67,1.02,7.16,2.71,10.74,3.99,4.58,1.72,8.72.22,12.39-2.7,1.59-1.22,3.4-2.42,4.96-3.68,2.59-2.11,5.2-4.44,8.26-5.85,2.29-1.1,4.92-1.44,7.44-1.55,3.29-.35,6.68-.4,9.91-1.16,3.43-.69,6.61-2.34,9.91-3.4,3.76-1.04,7.69-1.66,11.57-2.05"/><path class="b" d="M12.97,109.69c6.29-3.28,11.09-4.4,18.17-3.8,2.46.21,4.98-.06,7.44-.18,2.45-.09,4.99-.02,7.44-.2,3.57-.38,7.2-.84,10.74-1.49,3.85-.72,7.9-.42,11.57.98,2.71.96,5.39,2.35,8.26,2.78,4.13.78,8.27-.46,12.39-.49,2.23,0,4.42.86,6.61,1.2,5.3.78,10.58,1.9,15.7,3.48,3.45,1.11,7.33,1.7,10.74.14,2.4-1.01,4.53-2.75,6.61-4.29,3.59-2.4,6.84-5.47,10.74-7.37,2.54-1.27,5.45-1.73,8.26-1.92,3.01-.39,6.11-.66,9.09-1.24,3.66-.61,7.18-1.97,10.74-2.94,3.81-.83,7.73-1.38,11.57-2.11"/><path class="b" d="M12.97,105.93c3.51-1.09,7.05-2.43,10.74-2.78,4.65-.47,9.38-.07,14.04-.16,2.74.16,5.52.73,8.26.72,3.61-.11,7.23-.78,10.74-1.61,5.18-1.28,9.61.43,14.04,3,6.32,3.77,10.8,1.68,17.35.73,2.23-.27,4.46.46,6.61.95,4.62.96,9.38,1.36,14.04,2.05,6.45,1.17,10.89,1.5,16.52-2.5,2.44-1.76,4.98-3.55,7.44-5.29,2.8-2.03,5.78-4.04,9.09-5.15,2.37-.84,4.98-1.07,7.44-1.55,5.19-.98,10.51-1.47,15.7-2.48,4.63-.95,9.46-.87,14.04-2.09"/><path class="b" d="M12.97,101.09c3.29-.42,6.57-1.41,9.91-1.42,3.01-.09,6.09.17,9.09.38,1.89.18,3.9.1,5.78.38,2.47.42,4.94,1.26,7.44,1.53,3.91.34,7.85-.59,11.57-1.69,2.96-.88,6.25-.88,9.09.43,4.99,2.31,8,5.81,14.04,5.23,3.58-.18,7.13-1.54,10.74-1.04,2.45.46,4.93,1.27,7.44,1.46,3.27.36,6.63.19,9.91.13,5.87.08,10.26.79,15.7-2.31,6.65-3.9,12.41-9.54,19.83-12.03,6.18-1.78,12.54-3.26,19-3.26,2.17-.08,4.44-.34,6.61-.35,3.29.09,6.69.24,9.91-.57"/><path class="b" d="M12.97,96c2.47,0,4.97-.61,7.44-.5,3.05.13,6.11.86,9.09,1.48,2.43.55,4.97.88,7.44,1.16,1.65.31,3.36.93,4.96,1.43,3.44,1.26,7.2,1.13,10.74.38,6.93-1.75,9.89-3.51,16.52.8,7.09,5.07,10.94,3.97,19,3.74,2.5-.02,4.96.89,7.44,1.12,3.6.38,7.23-.37,10.74-1.09,3.51-.87,7.19-.55,10.74-1.07,4.26-.58,8.12-2.71,11.57-5.18,4.06-2.68,7.98-5.74,12.39-7.85,2.86-1.42,6.04-2.21,9.09-3.1,4-1.26,8.19-2.04,12.39-1.93,2.17,0,4.44-.14,6.61.01,3.27.39,6.62,1.08,9.91.53"/><path class="b" d="M12.97,91.14c2.45-.05,4.99-.67,7.44-.24,3.76.65,7.2,2.53,10.74,3.87,2.09.89,4.42,1.22,6.61,1.76,4.34,1.44,7.67,2.97,12.39,2.23,7.09-.64,11.29-3.88,18.17.36,7.77,5.2,11.71,5,20.65,5.27,1.9.09,3.88.56,5.78.56,5.17.03,9.9-2.49,14.87-3.51,2.99-.51,6.13-.43,9.09-1.13,7.56-1.62,13.1-7.6,19.83-11.03,3.58-2.03,7.65-2.99,11.57-4.15,4.28-1.47,8.67-2.87,13.22-3.2,1.88-.18,3.89-.37,5.78-.2,3.28.4,6.58,1.3,9.91,1.13"/><path class="b" d="M12.97,86.27c1.89-.16,3.88-.57,5.78-.55,4.67.35,8.48,3.5,12.39,5.75,2.25,1.49,4.94,2.11,7.44,3.04,2.62,1.06,5.38,2.24,8.26,2.23,5.76-.05,11.7-2.48,17.35-.55,2.63.91,5.02,2.56,7.44,3.89,1.78.97,3.84,1.64,5.78,2.2,5.34,1.53,11.03,1.42,16.52,1.09,3.42-.49,6.68-1.9,9.91-3.04,2.12-.76,4.38-1.47,6.61-1.86,1.88-.31,3.9-.45,5.78-.74,3.5-.51,6.94-1.78,9.91-3.7,4.8-3.08,9.42-6.7,14.87-8.58,3.48-1.25,7.26-1.63,10.74-2.9,5.38-1.81,10.8-4.06,16.52-4.46,3.57-.1,7.18.5,10.74.65"/><path class="b" d="M12.97,82.31c1.9-.24,3.87-.71,5.78-.82,4.38-.07,8.13,2.67,11.57,5.06,2.25,1.71,4.81,3.02,7.44,4.04,2.37,1.14,4.81,2.48,7.44,2.89,2.17.33,4.45-.1,6.61-.31,2.71-.31,5.56-.45,8.26.05,4.26.77,7.78,3.5,11.57,5.4,2.89,1.21,6.03,2.02,9.09,2.69,4.36.84,8.97.42,13.22-.79,3.05-1.02,6.01-2.5,9.09-3.47,5.33-1.87,11.14-1.79,16.52-3.4,4.91-1.53,8.89-4.99,13.22-7.62,2.56-1.6,5.35-3.03,8.26-3.86,2.67-.81,5.56-.98,8.26-1.64,5.65-1.24,11.02-3.53,16.52-5.24,4.29-1.03,8.82-1.57,13.22-1.06"/><path class="b" d="M12.97,79.57c2.48-.29,4.94-1.15,7.44-1.34,4.63-.39,8.68,2.31,12.39,4.73,1.53,1.03,3.36,1.8,4.96,2.7,8.88,5.66,8.93,3.34,18.17,3.75,5.58.41,10.06,4.03,14.87,6.47,1.26.62,2.77.96,4.13,1.25,1.89.46,3.87,1.03,5.78,1.36,10.82,1.9,15.36-4.8,24.78-6.07,16.08-1.66,15-2.3,28.09-10.68,3.49-2.2,7.45-3.78,11.57-4.22,5.27-.72,10.65-1.42,15.7-3.19,2.98-1.13,6.02-2.3,9.09-3.16,2.89-.98,6.03-1.72,9.09-1.22"/><path class="b" d="M12.97,77.58c3.15-.25,6.05-1.74,9.09-2.45,3.72-.94,7.51.34,10.74,2.17,1.89,1.06,4.01,1.97,5.78,3.24,7.2,5.28,8.28,4.29,16.52,4.88,3.21.41,6.29,1.74,9.09,3.33,3.37,1.93,6.76,4.23,10.74,4.56,3.25.68,6.56,1.69,9.91,1.53,5.14-.08,9.51-3.01,14.04-5.03,3.63-1.64,7.69-1.46,11.57-1.72,3.03-.43,6.19-.65,9.09-1.69,4.8-1.74,8.85-5.08,13.22-7.64,3.97-2.64,8.4-4.84,13.22-5.25,5.21-.84,10.66-.46,15.7-2.26,2.74-1.02,5.54-2.11,8.26-3.17,2.83-1.23,5.98-2.28,9.09-1.65"/><path class="b" d="M12.97,75.58c3.29-.05,6.18-1.81,9.09-3.12,2.55-1.16,5.48-1.8,8.26-1.23,2.89.65,5.81,1.8,8.26,3.49,10.24,8.11,12.45,4.75,23.13,9.03,4.3,1.77,8.48,4.21,13.22,4.53,3.81.76,7.62,2.15,11.57,1.9,5.09-.09,9.3-3.36,14.04-4.74,3.74-1.16,7.75-.62,11.57-1.22,3.36-.33,6.82-.85,9.91-2.28,4.8-2.36,9.44-5.18,14.04-7.89,4-2.47,8.56-3.86,13.22-4.34,4.7-.34,9.56.06,14.04-1.68,1.9-.68,3.91-1.44,5.78-2.18,3.09-1.34,6.51-2.58,9.91-1.87"/><path class="b" d="M12.97,73.1c4.03.4,7.4-2.19,10.74-4.04,6.29-3.72,11.56-3.45,17.35.98,4.77,3.6,10.13,6.37,15.7,8.51,5.53,2.21,11.37,3.88,17.35,4.12,4.71.59,9.23,2.67,14.04,2.57,3.46.04,6.67-1.56,9.91-2.55,2.92-.93,6.04-1.29,9.09-1.36,6.6-.14,13.12-1.78,19-4.79,2.14-1.02,4.47-1.85,6.61-2.87,2.48-1.18,4.97-2.56,7.44-3.77,4.08-2.04,8.6-3.59,13.22-3.37,3.58.11,7.27.16,10.74-.86,4.9-1.38,9.6-4.37,14.87-3.63"/><path class="b" d="M12.97,69.08c6.61.95,11.51-4.81,17.35-6.87,4.95-2.15,9.99.8,14.04,3.54,5.24,3.41,9.93,7.83,15.7,10.39,4.14,1.96,8.78,1.64,13.22,1.48,3.63.09,7.2,1.15,10.74,1.88,2.68.55,5.53,1.02,8.26.57,4.36-.84,8.76-1.79,13.22-1.96,3.03-.15,6.15-.32,9.09-1.11,3.96-.96,7.73-2.64,11.57-3.98,2.68-.92,5.57-1.43,8.26-2.3,3.13-.99,6.15-2.49,9.09-3.93,7.65-4.02,11.26-2.16,19-2.95,2.87-.29,5.56-1.59,8.26-2.49,2.64-.86,5.49-1.33,8.26-1.25"/><path class="b" d="M12.97,63.24c4,.6,7.97-.81,11.57-2.44,2.96-1.33,5.86-3.14,9.09-3.76,6.15-.55,12.06,2.48,16.52,6.51,5.22,4.49,10.58,10.97,18.17,10.24,2.45-.24,4.97-.63,7.44-.39,4.72.18,9.37,1.28,14.04,1.83,4.66.26,9.38-.42,14.04-.54,3.58-.24,7.3-.23,10.74-1.36,3.33-1.05,6.59-2.5,9.91-3.54,2.66-.8,5.5-1.14,8.26-1.32,2.81-.17,5.67-.75,8.26-1.87,3.53-1.51,6.91-3.66,10.74-4.33,4.07-.8,8.33-.46,12.39-1.29,2.25-.41,4.39-1.55,6.61-2.09,2.67-.7,5.51-.96,8.26-1.06"/><path class="b" d="M12.97,56.51c4.42.1,8.95-.45,13.22-1.62,2.72-.76,5.43-1.98,8.26-2.27,1.33-.07,2.8.1,4.13.05,10.71-.75,15.82,10.16,23.96,14.95,3,1.78,6.58,1.6,9.91,1.26,3.56.03,7.19.04,10.74.37,3.03.24,6.07.94,9.09,1.24,6.31.52,12.7.56,19-.11,3.73-.56,7.18-2.35,10.74-3.5,2.88-1.05,6.02-1.53,9.09-1.54,3.3.14,6.74.39,9.91-.74,3.37-1.13,6.49-3.07,9.91-4.07,3.74-1.2,7.73-1.63,11.56-2.44,2.55-.43,4.97-1.6,7.44-2.31,2.94-.74,6.07-.76,9.09-.83"/><path class="b" d="M12.97,50.45c1.88-.27,3.88-.55,5.78-.65,3.29,0,6.65.22,9.91-.31,1.89-.27,3.87-.7,5.78-.83,1.33-.04,2.81.04,4.13-.13,4.46-.68,8.79.13,12.39,2.94,3.84,2.74,7.02,6.38,10.74,9.28,3.56,2.82,7.17,3.35,11.57,3.4,4.93.41,9.96.04,14.87.81,5.17.96,10.43,1.66,15.7,1.86,4.43.22,8.99.2,13.22-1.33,4.05-1.27,8.13-2.74,12.39-3.06,4.11-.34,8.38.52,12.39-.79,3.06-.91,6.06-2.25,9.09-3.26,3.8-1.37,7.73-2.58,11.56-3.85,2.2-.66,4.42-1.64,6.61-2.32,3.22-.83,6.64-.45,9.91-.31"/><path class="b" d="M12.97,45.28c5.04-2.29,8.21-.67,13.22.05,3.01.43,6.09-.06,9.09-.27,2.19-.02,4.43-.53,6.61-.68,4.49-.43,8.76,1.48,12.39,3.96,2.94,1.87,5.46,4.45,8.26,6.5,5.56,4.49,12.99,4.82,19.83,5.16,1.89.09,3.9.1,5.78.36,2.19.28,4.43.85,6.61,1.21,5.21.73,10.43,1.88,15.7,2.11,6.26.12,12.16-2.34,18.17-3.72,4.31-1.07,8.87-.61,13.22-1.48,4.23-.8,8.47-1.96,12.39-3.76,5.16-2.15,10.14-5.21,15.7-6.2,3.01-.3,6.09.3,9.09.49"/><path class="b" d="M12.97,41.28c5.34-3.75,9.32-.16,14.87.26,4.97.26,9.89-1.44,14.87-1.27,4.9.18,9.67,1.95,14.04,4.04,3.66,2.07,6.98,4.84,10.74,6.75,2.82,1.51,6.02,2.24,9.09,3.06,3.76,1.1,7.7,1.59,11.57,2.16,3.83.82,7.71,1.61,11.57,2.28,3.03.6,6.05,1.56,9.09,2.1,4.1.54,8.4.41,12.39-.72,4.17-1.22,8.12-3.29,12.39-4.17,6.54-1.6,13.64-.84,19.83-3.76,5.65-2.37,10.99-6.5,17.35-6.53,2.73.06,5.52.56,8.26.57"/><path class="b" d="M12.97,38.25c7.15-5.31,9.32,2.19,21.48-2.02,5.23-1.51,10.6-.01,15.7,1.31,1.87.5,3.88.78,5.78,1.08,1.98.42,3.97,1.26,5.78,2.15,2.76,1.36,5.47,2.99,8.26,4.29,1.86.87,3.93,1.52,5.78,2.41,3.74,1.88,7.49,3.89,11.57,4.92,1.88.58,3.87,1.21,5.78,1.67,2.16.46,4.45.73,6.61,1.22,3.34.69,6.57,2.06,9.91,2.71,4.11.5,8.47.76,12.39-.8,2.84-1.05,5.5-2.71,8.26-3.95,4.13-1.96,8.63-3.26,13.22-3.37,2.76-.08,5.63-.12,8.26-1.07,5.57-1.77,10.62-5.28,16.52-5.95,3.56-.27,7.18.48,10.74.03"/><path class="b" d="M12.97,35.34c3.68-2.86,6.57-1.83,10.74-1.38,2.21.2,4.52-.16,6.61-.9,4.49-1.78,7.49-2.95,12.39-1.8,2.74.59,5.48,1.52,8.26,1.88,1.89.33,3.89.08,5.78.15,5.38.33,10.09,3.29,14.87,5.5,3.69,1.45,6.77,4.08,9.91,6.43,2.26,1.7,4.88,3.02,7.44,4.2,3.86,1.95,8.26,2.1,12.39,3.09,3.82.94,7.57,2.53,11.57,2.5,5.6.63,10.27-1.64,14.87-4.54,4.58-2.58,9.51-5.09,14.87-5.29,2.45-.15,5.02.07,7.44-.46,4.81-.94,9.3-3.13,14.04-4.28,4.86-1.35,9.98-.05,14.87-1.11"/><path class="b" d="M12.97,32.58c3.58-2.51,7.51-1.96,11.57-2.62,3.78-.59,7.11-2.71,10.74-3.77,6.24-1.5,11.93,3.32,18.18,2.61,4.91-1.02,9.54-.18,14.04,1.94,2.77,1.34,5.79,2.48,8.26,4.35,2.6,2.04,4.93,4.56,7.44,6.71,2.99,2.41,6.25,4.8,9.91,6.07,3.49,1.05,7.2,1.44,10.74,2.27,18.08,4.43,20.83-6.15,35.52-8.94,3.26-.57,6.65-.05,9.91-.52,4.5-.72,8.82-2.4,13.22-3.54,2.13-.49,4.42-.83,6.61-.87,3.29.03,6.68.27,9.91-.51"/><path class="b" d="M12.97,30.66c3.41-1.85,7.18-3.03,10.74-4.54,3.56-1.43,7.01-3.36,10.74-4.31,4.97-1.29,9.38,2.27,14.04,3.31,2.45.61,5.04.26,7.44-.43,4.46-1.02,9.1.01,13.22,1.81,1.94.85,4.03,1.72,5.78,2.92,1.77,1.28,3.44,2.96,4.96,4.52,3.91,4.02,8.04,8.25,13.22,10.59,4.7,1.89,9.81,2.95,14.87,3.06,3.98-.02,7.94-1.13,11.57-2.72,4.97-2.14,9.62-5.2,14.87-6.66,4.01-1.2,8.26-.98,12.39-.88,2.21,0,4.49-.54,6.61-1.12,4.1-1.09,8.13-2.82,12.39-3.18,4.38-.46,8.87.56,13.22-.44"/><path class="b" d="M12.97,29.11c4.3-2.14,8.12-5.22,12.39-7.41,3.77-1.88,8.15-3.19,12.39-2.68,3.13.6,6.01,2.24,9.09,3.01,6.91,1.79,9.62-2.94,18.17-.88,3.74.96,7.56,2.33,10.74,4.55,5.65,4.48,10.21,10.43,16.52,14.08,7.58,4.31,14.02,5.86,22.31,2.27,5.17-2.22,10.35-4.56,15.7-6.36,3.42-1.21,7.12-1.72,10.74-1.66,3.57.03,7.26.49,10.74-.52,4.42-1.08,8.66-3.14,13.22-3.58,4.67-.48,9.4.85,14.04-.05"/><path class="b" d="M12.97,27.07c4.08-2.27,7.31-5.93,11.57-7.9,3.08-1.48,6.59-1.43,9.91-1.2,3.37-.15,6.63.96,9.91,1.55,7.39,1.47,10.89-3.21,18.17-2.27,4.59.62,9.17,2.22,13.22,4.46,6.06,3.97,11.06,9.49,17.35,13.15,15.03,10.47,17.71,1.69,32.22-1.41,4.11-.84,8.17-2.21,12.39-2.37,4.38-.38,8.88.39,13.22-.41,4.72-.93,9.21-3.15,14.04-3.45,4.68-.3,9.38,1.07,14.04.28"/><path class="b" d="M12.97,23.83c4.88-3.12,9.3-8.38,15.7-7.37,2.74.35,5.47,1.26,8.26,1.13,3.57.17,7.25.4,10.74-.55,2.83-.72,5.46-2.25,8.26-3.07,6.16-1.7,12.41.87,18.18,2.89,2.96,1.19,5.67,3.07,8.26,4.9,3.02,2.07,6.03,4.29,9.09,6.3,3.57,2,6.78,4.86,10.74,6.1,5.49,1.88,10.63-1.64,15.7-3.25,3.17-1.11,6.59-1.38,9.91-1.72,2.19-.29,4.42-.9,6.61-1.19,5.18-.9,10.48-.57,15.7-.76,3.32-.35,6.63-1.24,9.91-1.85,6.27-1.51,12.71.73,19-.36"/><path class="b" d="M12.97,19.46c4.5-2.8,8.41-5.8,14.04-4.78,2.47.36,4.94,1.2,7.44,1.39,3.89.04,7.84-.65,11.57-1.76,4.15-1.2,8.02-3.61,12.39-3.99,6.49-.58,14.9,1.8,20.65,4.8,5,2.7,9.96,5.58,14.87,8.43,4.92,3.35,10.23,7.54,16.52,5.34,2.7-.93,5.45-2,8.26-2.56,2.69-.58,5.52-.65,8.26-.7,4.16-.16,8.25-1.42,12.39-1.78,3.55-.45,7.18-.21,10.74,0,2.45.05,4.99-.12,7.44-.33,3.28-.35,6.61-.73,9.91-.71,3.84,0,7.76.2,11.56-.45"/><path class="b" d="M12.97,14.74c7.57-3.73,10.48-1.99,18.17-1.18,3.65.38,7.27-.6,10.74-1.62,9.97-2.98,19.31-5.39,29.74-2.93,3.71.94,7.23,2.64,10.74,4.11,3.6,1.44,7.26,2.9,10.74,4.61,4.76,2.62,9.07,7.18,14.87,7.03,3.11-.16,6.03-1.69,9.09-2.22,3.51-.79,7.17-.75,10.74-.66,5.53-.16,10.95-2.09,16.52-1.66,4.41.3,8.77,1.55,13.22,1.46,3.03-.02,6.09-.62,9.09-.99,4.1-.53,8.27-.94,12.39-1.31"/></svg>