<?xml version="1.0" encoding="UTF-8"?><svg id="a" xmlns="http://www.w3.org/2000/svg" width="1920" height="2400" viewBox="0 0 192 240"><defs><style>.b{fill:none;stroke:#fff;stroke-miterlimit:10;stroke-width:.4px;}.c{stroke-width:0px;}</style></defs><rect class="c" x="0" width="192" height="240"/><path class="b" d="M8.56,231.56c1.42.09,2.94.52,4.35.67,2.58,0,5.25,0,7.83,0,5.79,0,11.61,0,17.4,0,17.11,0,34.23,0,51.33,0,6.99-4,14.08-9.98,22.62-9.15,7.81.27,14.97-3.7,22.62-4.56,1.98-.23,4.12-.23,6.09.1,1.72.31,3.5.93,5.22,1.24,3.48.69,7.07,1.25,10.44,2.36,6.4,2.02,11.91,6.04,17.4,9.77,1.04.39,2.39.19,3.48.24,1.99,0,4.1,0,6.09,0"/><path class="b" d="M8.56,226.15c2.03.28,4.08.99,6.09,1.35,1.7,0,3.52,0,5.22,0,5.5,0,11.03,0,16.53,0,15.08,0,30.17,0,45.24,0,3.46,0,6.98,0,10.44,0,3.83-1.82,7.31-4.55,11.31-6.08,1.91-.78,4.03-1.4,6.09-1.55,2.9.03,5.89.11,8.7-.72,6.74-1.69,12.99-5.42,20.01-5.97,2.92-.28,5.82.66,8.7.9,4.37.41,8.85.75,13.05,2.14,5.31,1.68,10.07,4.74,14.79,7.61,1.97,1.21,4.06,2.52,6.09,3.63.76.06,1.85.05,2.61.05"/><path class="b" d="M8.56,222.15c2.21.88,4.64.61,6.96.63,3.17,0,6.4,0,9.57,0,1.8.2,3.54-.58,5.22-1.11,2.56-.84,5.2-1.72,7.83-2.31,3.69-.85,7.65-1.03,11.31.03,2.98.81,5.91,2.07,8.7,3.38,5.79.01,11.61,0,17.4,0,4.62,0,9.3,0,13.92,0,1.69,0,3.53,0,5.22,0,.8,0,1.87.08,2.61-.28,4.02-2.37,8.28-4.99,13.05-5.28,9.3.6,17.31-5.07,26.1-7.05,3.42-.91,6.98-.25,10.44-.17,5.23.02,10.57-.07,15.66,1.28,7.26,1.71,13.56,6.21,20.88,7.72"/><path class="b" d="M8.56,218.06c4.91,0,9.88,0,14.79,0,1.23.16,2.44-.43,3.48-1.01,1.4-.71,2.94-1.52,4.35-2.2,3.78-1.85,7.91-3.44,12.18-3.36,5.68.15,10.8,3.18,15.66,5.83,1.23.95,2.9.72,4.35.73,1.99,0,4.1,0,6.09,0,6.95,0,13.93,0,20.88,0,3.17,0,6.41,0,9.57,0,1.7-.9,3.46-2,5.22-2.77,2.15-.99,4.58-1.66,6.96-1.58,2.31-.06,4.71-.42,6.96-.95,6.5-1.48,12.59-4.52,19.14-5.76,3.13-.63,6.4-.23,9.57-.42,5.2-.24,10.49-.43,15.66.36,4.12.57,8.16,1.8,12.18,2.83,2.54.54,5.24.61,7.83.54"/><path class="b" d="M8.56,213.33c4.33,0,8.72,0,13.05,0,.47,0,1.28,0,1.74-.03.47-.24,1.29-.74,1.74-.99,1.39-.81,2.93-1.72,4.35-2.49,4.7-2.66,10.29-4.39,15.66-2.93,3.63.96,7.05,2.76,10.44,4.33,1.4.67,2.95,1.44,4.35,2.11.78,0,1.83,0,2.61,0,12.46,0,24.95,0,37.41,0,1.27,0,2.38-1.16,3.48-1.69,1.88-1.08,3.97-2.13,6.09-2.63,2.26-.44,4.69-.35,6.96-.69,3.8-.45,7.61-1.27,11.31-2.21,4.02-1.01,8.06-2.22,12.18-2.76,4.31-.41,8.72-.35,13.05-.43,5.22-.01,10.48.39,15.66.97,2.57.22,5.24.73,7.83.62,2.32-.15,4.7-.75,6.96-1.26"/><path class="b" d="M8.56,208.61c3.75,0,7.56,0,11.31,0,.52.04,1.32-.24,1.74-.52,1.1-.58,2.39-1.3,3.48-1.89,2.74-1.5,5.64-2.96,8.7-3.65,4.74-1.16,9.66.21,13.92,2.33,2.79,1.39,5.75,2.63,8.7,3.63,4.32.25,8.72.02,13.05.1,9.85,0,19.73,0,29.58,0,3.34-2.11,6.62-4.62,10.44-5.78,2.81-.68,5.83-.62,8.7-.93,3.77-.3,7.58-.77,11.31-1.38,3.74-.6,7.53-1.36,11.31-1.71,3.74-.31,7.57-.13,11.31.18,7.52.62,15.06,2.1,22.62,1.53,3.01-.36,5.87-1.73,8.7-2.73"/><path class="b" d="M8.56,203.88c6.34.29,9.25-.8,14.79-3.57,7.85-3.95,13.97-4.21,21.75.02,1.7.87,3.48,1.92,5.22,2.71,1.05.51,2.3.96,3.48.83,5.5,0,11.03,0,16.53,0,6.95,0,13.93,0,20.88,0,6.62.04,4.94.46,10.44-3.22,6.98-4.85,9.15-4.92,17.4-5.42,4.63-.29,9.31-.71,13.92-1.27,4.89-.58,9.89-1.15,14.79-.37,9.22,1.24,18.46,5.41,27.84,3.28,2.71-.79,5.27-2.24,7.83-3.4"/><path class="b" d="M8.56,199.16c3.26-.45,6.55-1.53,9.57-2.84,3.65-1.67,7.28-3.76,11.31-4.34,4.63-.75,9.19,1.12,13.05,3.55,2.03,1.11,3.91,2.85,6.09,3.63,3.46,0,6.98,0,10.44,0,11.59-.09,23.22.18,34.8-.1,5.66-1.93,10.71-5.51,16.53-6.98,4.58-.86,9.31-1.06,13.92-1.68,4.63-.54,9.27-1.44,13.92-1.83,12.36-1.69,22.54,9.22,34.8,7.47,3.94-.62,7.17-3.31,10.44-5.4"/><path class="b" d="M8.56,194.44c1.4-.06,2.99.17,4.35-.19,2.33-1.18,4.73-2.48,6.96-3.84,11.57-7.42,16.46-3.54,26.1,4.03,6.37,0,12.77,0,19.14,0,2.87,0,5.83,0,8.7,0,1.08-.34,2.36-.7,3.48-.86,1.99-.3,4.1.15,6.09.19,2.88.13,5.84.04,8.7-.28,5.88-.62,11.62-2.23,17.4-3.38,5.18-.97,10.49-1.34,15.66-2.35,7.7-1.35,16.07-4.39,23.49-.42,4.18,1.97,8.05,4.65,12.18,6.71.69.48,1.81.4,2.61.39,1.08,0,2.39,0,3.48,0,3.16,0,6.41,0,9.57,0,.96-.11,1.89-1.02,2.61-1.58,1.43-1.2,2.97-2.62,4.35-3.89"/><path class="b" d="M8.56,189.71h6.96c3.29-2.05,6.17-4.85,9.57-6.74,8.1-4.8,14.29,1.24,20.01,6.56,1.37.34,2.95.12,4.35.18,1.99,0,4.1,0,6.09,0,5.79,0,11.61,0,17.4,0,1.4,0,2.95,0,4.35,0,1.69-.27,3.51-.39,5.22-.41,6.36-.31,12.77-.4,19.14-.43,4.07,0,8.17-.37,12.18-1,3.47-.42,7.01-.83,10.44-1.5,6.83-1.09,14.04-4.39,20.88-1.77,3.13,1.21,5.89,3.34,8.7,5.12,9.27-.03,18.57.07,27.84-.04.43-.49,1.31-1.48,1.74-1.97"/><path class="b" d="M8.56,184.99h9.57c3.31-2.9,6.33-6.46,10.44-8.25,7.06-3.05,12.78,3.84,17.4,8.18,17.68.22,35.39,0,53.07.08,7.53-.09,15.11.19,22.62-.12,5.54-.51,10.97-2.17,16.53-2.48,2.03-.08,4.2.19,6.09.96,1.43.44,2.79,1.79,4.35,1.64,11.59,0,23.21,0,34.8,0"/><path class="b" d="M8.56,180.26h10.44c1.33-.78,2.39-2.33,3.48-3.39,1.56-1.64,3.33-3.37,5.22-4.63,8.13-5.69,14.4,3.14,20.01,8.02,45.24,0,90.49-.01,135.73,0"/><path class="b" d="M8.56,175.54h10.44c3.26-2.9,5.8-6.77,9.57-9.11,7.57-5.13,13.88,2.83,19.14,7.47,2.16,2.06,2.44,1.61,5.22,1.64,2.58,0,5.25,0,7.83,0,7.24,0,14.51,0,21.75,0,7.82,0,15.67,0,23.49,0,2.88-.16,5.8-.92,8.7-.8,2.89.07,5.83.5,8.7.78,6.37.04,12.77,0,19.14.02,13.63,0,27.27,0,40.89,0"/><path class="b" d="M8.56,170.81h11.31c3.02-2.63,5.38-6.18,8.7-8.51,5.16-3.98,10.11-2.51,14.79,1.33,2.89,2.35,5.84,4.79,8.7,7.18,13.05,0,26.11,0,39.15,0,3.75,0,7.56,0,11.31,0,3.1-.96,6.3-1.92,9.57-2,3.56-.06,7.05,1.07,10.44,2,5.21,0,10.46,0,15.66,0,15.08,0,30.17,0,45.24,0"/><path class="b" d="M8.56,166.09h12.18c2.95-2.65,5.41-6.01,8.7-8.29,4.99-3.75,9.98-2.83,14.79.62,2.63,1.85,5.31,3.81,7.83,5.8,2.32,1.9,2.23,1.98,5.22,1.87,2.29,0,4.67,0,6.96,0,6.66,0,13.35,0,20.01,0,5.79,0,11.61,0,17.4,0,3.81-1.61,8.01-3.05,12.18-2.2,2.39.39,4.65,1.58,6.96,2.2,6.66,0,13.35,0,20.01,0,14.21,0,28.43,0,42.63,0"/><path class="b" d="M8.56,161.37c4.04-.04,8.14.09,12.18-.06,5.95-5.87,12.65-13.82,21.75-9.06,3.94,1.99,7.47,4.82,11.31,6.97,1.38.72,2.82,1.79,4.35,2.15,2.87,0,5.83,0,8.7,0,6.08,0,12.19,0,18.27,0,4.91,0,9.88,0,14.79,0,1.49.02,2.92-1.1,4.35-1.46,2.75-.97,5.83-1.45,8.7-.77,1.44.33,3,.92,4.35,1.51,1.08.62,2.24.82,3.48.71,6.37,0,12.77,0,19.14,0,14.5,0,29.01,0,43.5,0"/><path class="b" d="M8.56,156.64c2.29,0,4.67,0,6.96,0,1.12-.06,2.5.25,3.48-.42,7.41-6.12,14.11-13.86,24.36-8.25,2.66,1.34,5.14,3.2,7.83,4.47,4.36,2.08,9.19,3.01,13.92,3.82,2.26.53,4.66.36,6.96.38,3.17,0,6.41,0,9.57,0,5.21,0,10.46,0,15.66,0,1.77-.33,3.49-1.35,5.22-1.86,3.03-1.05,6.41-1.71,9.57-.86,1.44.37,3,.99,4.35,1.6,1.06.45,2.28,1.27,3.48,1.11,6.66,0,13.35,0,20.01,0,14.5,0,29.01,0,43.5,0"/><path class="b" d="M8.56,151.92c1.4,0,2.95,0,4.35,0,3.46-1.53,6.51-4.07,9.57-6.27,6.49-4.96,12.43-7.2,20.01-2.95,2.94,1.5,5.62,3.66,8.7,4.88,6.09,2.32,12.78,1.39,19.14,2.14,3.23.33,6.5,1.05,9.57,2.13,1.99.15,4.1.04,6.09.07,1.69-.06,3.55.16,5.22-.15,6.55-1.74,13-6.38,20.01-4.66,2.7.79,5.3,2.13,7.83,3.34,1.35.58,2.82,1.62,4.35,1.47,2.58,0,5.25,0,7.83,0,17.4,0,34.81,0,52.2,0"/><path class="b" d="M8.56,146.13c5.75-3.47,11.25-7.54,17.4-10.3,4.86-2.18,10.25-1.44,14.79,1.14,4.05,2.05,7.63,5.36,12.18,6.27,6.04,1.16,12.19-.48,18.27-.2,2.31.07,4.71.38,6.96.92,2.24.64,4.61,1.25,6.96,1.03,8.22-.45,15.16-6.79,23.49-6.35,2.44.22,4.75,1.42,6.96,2.38,4.98,2.37,10.19,4.45,15.66,5.34,2.28.38,4.64.96,6.96.83,15.08,0,30.17,0,45.24,0"/><path class="b" d="M8.56,137.63c8.99-6.34,18.82-11.02,29.58-5.91,2.66,1.17,5.27,2.67,7.83,4.04,2.14,1.17,4.49,2.26,6.96,2.38,6.77.31,13.24-2.7,20.01-2.61,2.92-.1,5.84.55,8.7,1,6.06.57,11.74-2.21,17.4-3.94,3.61-1.12,7.62-1.87,11.31-.66,4.28,1.69,8.54,3.65,13.05,4.67,4.85,1.23,9.97,1.31,14.79,2.65,2.5.59,4.67,2.19,6.96,3.23,1.39,0,2.96,0,4.35,0,11.3,0,22.63,0,33.93,0"/><path class="b" d="M8.56,130.17c10.9-7.35,20.63-5.27,32.19-.97,2.87,1.01,5.77,2.23,8.7,3.06,1.97.45,4.12.34,6.09-.02,9.78-2.21,14.62-4.79,25.23-3.18,3.2.26,6.47-.34,9.57-1.1,6.2-1.52,12.78-3.95,19.14-1.92,3.67,1.48,7.37,3.12,11.31,3.77,4.88.97,9.95.99,14.79,2.18,2.44.6,4.89,1.65,6.96,3.08,1.35.91,2.82,2.09,4.35,2.68.76,0,1.84,0,2.61,0,11.3,0,22.63,0,33.93,0"/><path class="b" d="M8.56,124.35c9.88-4.55,16.18-1.66,26.1-.02,3.44.59,6.98.95,10.44,1.42,2,.24,4.06.87,6.09.83,4.45-.12,8.71-1.77,13.05-2.58,3.41-.69,6.97-.93,10.44-.75,4.05.27,8.17.71,12.18-.17,7.12-1.31,14.58-3.87,21.75-1.5,2.61.9,5.1,2.39,7.83,2.96,9.13,2.1,18.23.5,26.1,6.91.71.55,1.66,1.49,2.61,1.55,1.99,0,4.1,0,6.09,0,10.72,0,21.47,0,32.19,0"/><path class="b" d="M8.56,120c3.69-.74,7.57-1.09,11.31-.62,5.18.82,10.38,2.16,15.66,1.75,3.18-.16,6.39-.77,9.57-.98,2.29-.18,4.67.34,6.96.12,4.63-.4,9.25-1.47,13.92-1.32,4.38.04,8.71,1.1,13.05,1.47,5.32.39,10.5-1.42,15.66-2.4,5.18-1.08,10.78-1.15,15.66,1.12,3.47,1.89,7.41,2.75,11.31,3.1,4.39.43,8.91.81,13.05,2.44,1.45.56,3.02,1.35,4.35,2.17,1.01.64,2.18,1.68,3.48,1.45,13.63,0,27.27,0,40.89,0"/><path class="b" d="M8.56,116.24c3.73-.34,7.58-.42,11.31-.04,5.46.83,11.09,1.51,16.53.14,3.73-.77,7.45-2.24,11.31-2.21,4.91.42,9.91-.22,14.79.55,5.67.71,10.9,3.42,16.53,4.26,10.36.9,19.69-7.35,30.45-3.14,3.03,1.44,6.2,2.76,9.57,3.14,6.19.81,12.69,1.14,18.27,4.25.69.48,1.81.4,2.61.39,1.09,0,2.39,0,3.48,0,3.46,0,6.98,0,10.44,0,9.85,0,19.73,0,29.58,0"/><path class="b" d="M8.56,112.82c3.74-.31,7.55-.72,11.31-.69,4.04.16,8.16.5,12.18-.14,4.43-.6,8.66-2.34,13.05-3.15,2.85-.48,5.83-.04,8.7-.01,5.72.14,11.29,1.76,16.53,3.97,2.8,1.1,5.69,2.33,8.7,2.7,7.47.6,14.38-3.36,21.75-3.84,2.91-.24,5.94.08,8.7,1.04,2.5,1.03,5.1,2.13,7.83,2.38,4.32.53,8.76.29,13.05,1.1,1.73.32,3.58.83,5.22,1.48,1.11.34,2.28,1.34,3.48,1.2,14.79,0,29.59,0,44.37,0"/><path class="b" d="M8.56,109.91c3.78-.53,7.52-1.63,11.31-2.08,4.92-.39,9.94-.31,14.79-1.36,3.78-.73,7.5-1.99,11.31-2.57,4.6-.45,9.36-.29,13.92.52,4.17.78,8.18,2.34,12.18,3.69,6.02,2.27,10.42,1.4,16.53.49,5.45-.82,11.08-1.31,16.53-.26,3.26.47,6.31,2.06,9.57,2.5,6.07.6,12.25-1.15,18.27.25,2.73.56,5.4,1.69,7.83,3.04,6.37,0,12.77,0,19.14,0,4.62,0,9.3,0,13.92,0,1.99,0,4.1,0,6.09,0,1.17-.28,2.43-.99,3.48-1.55"/><path class="b" d="M8.56,107.4c3.84-1.03,7.45-2.96,11.31-3.87,4.56-.97,9.31-.95,13.92-1.59,7.24-.95,14.38-3.14,21.75-2.78,6.82.06,13.3,2.56,20.01,3.35,2.6.33,5.25-.26,7.83-.54,3.15-.33,6.41-.37,9.57-.04,4.12.41,8.21,1.46,12.18,2.62,2.85.75,5.74,1.9,8.7,2.11,3.51.14,7-.81,10.44-1.31,3.44-.54,7.05-.6,10.44.26,3.05.74,5.98,2.14,8.7,3.67,4.6.32,9.3.03,13.92.13,4.91,0,9.88,0,14.79,0,3.89-.84,7.72-2.32,11.31-4.03"/><path class="b" d="M8.56,104.68c1.23.16,2.42-.84,3.48-1.33,1.98-1.07,4.02-2.32,6.09-3.23,4.38-1.85,9.25-1.96,13.92-2.24,4.66-.23,9.35-.75,13.92-1.66,4.27-.92,8.67-1.54,13.05-1.36,4.64.12,9.28.97,13.92,1.16,1.7.06,3.54,0,5.22-.29,1.41-.25,2.93-.75,4.35-.94,2.57-.39,5.28-.28,7.83.21,4.84.92,9.37,3.08,13.92,4.9,3.83,1.55,8.03,2.9,12.18,1.97,5.71-1.17,11.54-3.13,17.4-1.79,3.95.84,7.74,2.53,11.31,4.39,2.23.49,4.68.1,6.96.22,4.33,0,8.72,0,13.05,0,1.08,0,2.4,0,3.48,0,1.86-.51,3.45-2.05,5.22-2.81,3.06-1.48,6.34-2.68,9.57-3.74"/><path class="b" d="M8.56,99.95c1.39,0,2.96.01,4.35-.01,10.16-7.91,18.89-4.44,30.45-6.57,2.63-.42,5.24-1.31,7.83-1.88,3.12-.66,6.39-.87,9.57-.83,4.91.04,9.89.72,14.79.07,2.67-.27,5.18-1.57,7.83-1.94,10.2-1.51,18.23,6.82,27.84,8.37,3.83.42,7.6-.94,11.31-1.63,3.7-.77,7.63-.86,11.31.07,4.2.95,8.12,3.06,12.18,4.35,6.66-.02,13.35.04,20.01-.02,5.84-4.38,9.69-8.19,17.4-8.98"/><path class="b" d="M8.56,95.23c2.29,0,4.67,0,6.96,0,1.22.1,2.35-.97,3.48-1.31,1.92-.77,4.05-1.27,6.09-1.56,4.6-.64,9.33-.62,13.92-1.36,3.88-.53,7.63-1.83,11.31-3.1,3.93-1.17,8.13-1.27,12.18-.92,5.18.4,10.54,1.5,15.66.1,1.99-.62,4.01-1.54,6.09-1.85,7.62-1.41,14.79,2.35,21.75,4.86,3.31,1.24,6.92,1.8,10.44,1.29,10.51-1.59,14.59-.82,24.36,3.2,1.87.93,4.07.61,6.09.65,3.16,0,6.41,0,9.57,0,1.08,0,2.4,0,3.48,0,.4,0,1.33,0,1.74,0,.48-.15,1.36-.67,1.74-1.01,6.5-4.91,10.82-11.46,20.01-10.26"/><path class="b" d="M8.56,90.51c5.21,0,10.46,0,15.66,0,3.16-.1,6.44.24,9.57-.2,5.46-.87,10.68-2.88,15.66-5.23,3.81-1.62,8.09-1.95,12.18-1.47,5.74.57,11.72,2.69,17.4.74,2.78-1.17,5.71-2.27,8.7-2.76,4.31-.77,8.78-.43,13.05.43,4.33.83,8.63,2.17,13.05,2.44,4.96.22,10.05.39,14.79,2.04,2.34.76,4.71,1.79,6.96,2.79.76.34,1.84.8,2.61,1.12.76.14,1.84.11,2.61.11,4.91,0,9.88,0,14.79,0,1.27.18,2.45-.98,3.48-1.58,1.46-1.01,3.01-2.26,4.35-3.42,6.38-5.48,10.78-11.12,20.01-7.66"/><path class="b" d="M8.56,85.78c9.27,0,18.57,0,27.84,0,1.99,0,4.1,0,6.09,0,3.3-1.32,6.21-3.64,9.57-4.85,3.86-1.47,8.13-1.59,12.18-1.03,4.02.49,8.12,1.56,12.18.98,3.06-.46,5.78-2.28,8.7-3.22,3.89-1.43,8.04-2.33,12.18-2.47,4.36-.18,8.75.45,13.05,1.1,4.39.6,8.88,1.23,13.05,2.8,4.52,1.61,8.71,4.13,13.05,6.15,1.83.96,4.1.42,6.09.55,1.69,0,3.53,0,5.22,0,.77,0,1.85.04,2.61-.12.42-.2,1.33-.64,1.74-.88,6.96-3.8,11.96-10.54,19.14-13.96,4.02-1.83,8.54-.15,12.18,1.81"/><path class="b" d="M8.56,81.06c8.4,0,16.83,0,25.23,0,2.58,0,5.25,0,7.83,0,1.4-.03,2.96.07,4.35-.08.46-.29,1.29-.87,1.74-1.16,4.34-3.05,9.44-5.19,14.79-5.37,5.19-.33,10.59,1.03,15.66-.57,3.72-1.54,7.37-3.47,11.31-4.42,6.22-1.72,12.8-1.59,19.14-.71,7.2.65,13.73,2.96,20.01,6.48,5.52,2.82,12.02,7.19,18.27,4.02,8.55-4,15.47-15,25.23-15.61,4.13.07,7.85,2.41,11.31,4.43"/><path class="b" d="M8.56,76.33h38.28c6.08-4.26,11.54-8.01,19.14-8.99,3.16-.49,6.44-.61,9.57-1.29,2.77-.52,5.22-2.13,7.83-3.11,3.31-1.26,6.9-1.91,10.44-1.99,4.67-.11,9.33.71,13.92,1.47,5.35.69,10.71,1.74,15.66,3.95,5.42,2.15,10.63,5.41,16.53,5.97,4.39.49,8.12-2.39,11.31-5.03,3.6-2.96,7.1-6.28,11.31-8.36,8-4.09,14.09.98,20.88,4.81"/><path class="b" d="M8.56,71.61c12.75-.03,25.53.06,38.28-.04,5.66-4.33,11.39-8.95,18.27-11.16,3.68-1.26,7.61-1.83,11.31-3.03,2.94-.95,5.61-2.87,8.7-3.39,8.99-1.83,17.39,3.14,26.1,4.37,4.11.51,8.21,1.44,12.18,2.62,4.02,1.17,8.04,2.63,12.18,3.36,2.85.48,5.97.58,8.7-.51,5.77-2.72,9.91-8.07,15.66-10.84,9.14-4.69,15.64,2.35,23.49,6.03"/><path class="b" d="M8.56,66.88c8.98,0,17.99,0,26.97,0,3.17,0,6.4,0,9.57,0,1.75.3,3.04-1.15,4.35-2.05,1.7-1.26,3.51-2.64,5.22-3.88,5.46-4.11,11.72-7.05,18.27-8.94,3-.86,5.89-2.22,8.7-3.53,5.19-2.02,10.84-.22,15.66,1.98,4,1.77,7.92,3.96,12.18,5.07,2.83.65,5.83.86,8.7,1.25,6.65.7,13.3,2.11,20.01,1.97,7.13.07,11.07-4.29,16.53-8.03,12.47-8.71,17.34-1.54,28.71,3.4"/><path class="b" d="M8.56,62.09c8.68.2,17.41,0,26.1.07,2.87,0,5.83,0,8.7,0,1.4,0,2.95,0,4.35,0,.86-.3,1.86-1,2.61-1.49,4.06-2.73,8-5.76,12.18-8.3,3.85-2.39,8.01-4.34,12.18-6.07,2.62-.98,5.13-2.53,7.83-3.26,5.28-1.21,10.41,1.55,14.79,4.22,3.95,2.39,7.78,5.25,12.18,6.79,3.62,1.14,7.55,1.18,11.31,1.08,4.35-.17,8.73-.6,13.05-1.09,3.48-.46,7.09-.82,10.44-1.88,7.7-3.21,14.39-11.12,23.49-9.09,5.65,1.23,10.21,5.25,15.66,7.05"/><path class="b" d="M8.56,56.67c.79.26,1.78.69,2.61.77,1.1,0,2.38,0,3.48,0,2.87,0,5.83,0,8.7,0,8.4,0,16.83,0,25.23,0,1.6.19,3.03-1.01,4.35-1.72,2.03-1.22,4.12-2.61,6.09-3.92,5.29-3.54,10.73-6.97,16.53-9.63,2.25-.97,4.54-2.22,6.96-2.71,6.11-1.07,11.69,2.65,16.53,5.9,3.35,2.25,6.69,4.76,10.44,6.32,6.76,2.68,14.16.53,20.88-1.21,2.86-.76,5.81-1.56,8.7-2.22,1.99-.5,4.17-.74,6.09-1.48,3.33-1.31,6.38-3.36,9.57-4.95,5.99-3.22,12.13-3.73,18.27-.53,3.44,1.74,6.77,3.9,10.44,5.13"/><path class="b" d="M8.56,50.79c1.73.54,3.49,1.39,5.22,1.92,1.99,0,4.1,0,6.09,0,5.21,0,10.46,0,15.66,0,3.46,0,6.98,0,10.44,0,1.4,0,2.95,0,4.35,0,1.17-.2,2.41-.88,3.48-1.36,8-3.87,15.24-9.26,23.49-12.63,11.28-5.4,20.11,2.25,29.58,7.46,7.93,4.7,15.38,2.51,23.49-.29,3.42-1.15,6.91-2.35,10.44-3.09,3.68-.47,7.17-1.9,10.44-3.61,7.69-4.02,14.52-5.9,22.62-1.53,3.16,1.65,6.21,3.7,9.57,4.93"/><path class="b" d="M8.56,44.11c2.05.56,4.16,1.34,6.09,2.24,1.39.54,2.79,1.8,4.35,1.64,8.69,0,17.41,0,26.1,0,11.52-1.21,21.43-7.99,32.19-11.73,12.75-4.4,20.83.12,32.19,5.2,7.29,3.53,15.41.85,22.62-1.54,3.95-1.34,8.05-2.36,12.18-2.96,2.7-.64,5.3-1.88,7.83-2.99,7.33-3.47,14.26-4.92,21.75-.86,3.21,1.67,6.21,3.91,9.57,5.29"/><path class="b" d="M8.56,36.57c4.11.37,7.7,2.33,11.31,4.14,3,1.35,6.28,2.26,9.57,2.43,6.57.43,12.78-2.22,19.14-3.38,5.57-.93,11.12-2.24,16.53-3.85,6.01-1.8,12.04-3.76,18.27-4.65,8.62-1.63,16.27-.3,24.36,2.84,6.59,2.76,11.34,2.94,18.27,1.29,4.36-1.01,8.67-2.43,13.05-3.33,1.97-.45,4.13-.56,6.09-1.07,2.66-.71,5.27-1.89,7.83-2.91,7.12-3.05,13.92-3.7,20.88.24,3.2,1.74,6.19,4.06,9.57,5.48"/><path class="b" d="M8.56,29.18c2.02-.09,4.16.15,6.09.76,1.77.56,3.5,1.56,5.22,2.24,4.91,2.06,10.39,2.76,15.66,1.93,5.84-.89,11.49-2.99,17.4-3.48,6.09-.63,12.23-1.12,18.27-2.13,6.1-.95,12.22-1.94,18.27-3.17,9.64-1.75,15.43.44,24.36,3.13,5.43,1.28,11.13.71,16.53-.46,3.18-.68,6.4-1.55,9.57-2.25,2.3-.49,4.74-.86,6.96-1.64,5.57-1.91,11.42-4.19,17.4-3.04,7.09,1.1,12.58,6.26,19.14,8.7"/><path class="b" d="M8.56,22.98c4.44-.79,7.29.32,11.31,1.83,6.76,2.32,14.07,1.79,20.88,0,3.71-.88,7.47-2.02,11.31-2.16,5.79-.19,11.61.54,17.4.21,4.64-.31,9.38-.64,13.92-1.65,6.49-1.81,13.22-4.02,20.01-2.6,3.86.67,7.57,2.16,11.31,3.27,6.18,1.96,12.89,2.16,19.14.39,6.15-1.61,12.12-4.01,18.27-5.6,5.3-1.33,10.9-.15,15.66,2.38,5.13,2.55,9.97,6.1,15.66,7.28"/><path class="b" d="M8.56,18.18c2.25-.5,4.68-.71,6.96-.31,1.42.28,2.93.79,4.35,1.07,3.12.65,6.4.85,9.57.61,4.72-.34,9.35-1.62,13.92-2.79,3.95-1.1,8.08-1.77,12.18-1.19,4.04.44,8.11,1.13,12.18,1.21,4.06.12,8.15-.37,12.18-.81,3.55-.4,6.97-1.76,10.44-2.56,9.03-2.41,16.1,1,24.36,4.11,7.14,3.03,13.52,4.07,20.88.95,12.03-5.01,18.7-10.84,31.32-2.53,5.02,3.25,10.31,6.88,16.53,6.9"/><path class="b" d="M8.56,14.39c3.46-.99,6.94-.96,10.44-.27,3.16.37,6.43.26,9.57-.21,4.72-.69,9.33-2.15,13.92-3.41,3.38-.9,6.91-1.87,10.44-1.54,4.06.32,8.11,1.28,12.18,1.53,3.76.28,7.58-.03,11.31-.51,1.69-.23,3.53-.36,5.22-.62,2.59-.43,5.22-1.12,7.83-1.42,5.8-.86,11.48,1.2,16.53,3.89,2.78,1.51,5.83,2.62,8.7,3.93,7.93,3.98,13.78,5.09,21.75.36,10.86-6.43,17.55-12.36,29.58-3.73,5.58,3.9,10.09,7.66,17.4,6.46"/></svg>