<?xml version="1.0" encoding="UTF-8"?><svg id="a" xmlns="http://www.w3.org/2000/svg" width="1920" height="2400" viewBox="0 0 192 240"><defs><style>.b{fill:none;stroke:#fff;stroke-miterlimit:10;stroke-width:.4px;}.c{stroke-width:0px;}</style></defs><rect class="c" x="0" width="192" height="240"/><path class="b" d="M7.95,228.28c9.04-.09,18.13.18,27.16-.1,3.28-2.64,7.05-5.34,11.39-5.58,2.31.01,4.7.49,7.01.32,3.02-.12,6.05-.99,8.76-2.31,5.54-2.4,11.58-8.71,17.52-8.8,7.25.52,13.3,5.31,20.15,7.31,9.35,3,13.27-.16,21.9-1.45,8.47-1.16,14.5,3.98,21.9,6.73,2.87,1.02,5.83,2.05,8.76,2.86,1.68.41,3.5,1.08,5.26,1.01,8.75,0,17.53,0,26.28,0"/><path class="b" d="M7.95,223.53c4.95,0,9.95,0,14.89,0,2.89-.1,5.9.23,8.76-.16,4.34-4.12,8.73-9.3,14.89-10.44,2.3-.18,4.71.16,7.01-.14,3.69-.34,7.28-1.67,10.51-3.43,5.65-2.76,11.72-8.91,18.4-6.79,10.08,3.19,17.51,14.41,28.91,13.13,5.27-.96,10.31-3.53,15.77-3.34,4.97.05,9.58,2.26,14.02,4.26,5.47,2.23,10.98,4.55,16.65,6.25,1.64.63,3.51.72,5.26.65,1.7,0,3.55,0,5.26,0,5.24,0,10.53,0,15.77,0"/><path class="b" d="M7.95,218.77c4.36,0,8.78,0,13.14,0,1.41,0,2.97,0,4.38,0,1.11-.05,2.45.16,3.5-.25,4.66-4.58,8.69-9.98,14.02-13.82,3.02-2.3,6.09-2.22,9.64-2.72,3.57-.51,7.15-1.47,10.51-2.77,4.92-1.78,9.62-4.63,14.89-5.21,9.12-.65,17.51,10.28,25.41,14.25,2.38,1.28,5.15,2.24,7.89,1.99,5.08-.62,9.8-3.09,14.89-3.7,5.41-.82,10.8.81,15.77,2.84,6.18,2.33,12.14,5.35,18.4,7.48,1.39.48,2.97.99,4.38,1.41.75.22,1.82.61,2.63.51,5.53,0,11.11,0,16.65,0"/><path class="b" d="M7.95,214.01h17.52c4.7-3.18,8.43-7.64,12.27-11.77,3.28-3.41,6.61-7.52,11.39-8.72,5.16-1.41,10.51-2.22,15.77-3.13,4.9-.78,9.91-1.66,14.89-1.32,7.87.79,13.89,6.65,20.15,10.91,6.72,4.7,10.41,6.02,18.4,3.34,9.39-3.16,15.88-4.24,25.41-.57,5.03,1.86,9.9,4.23,14.89,6.19,4.84,1.95,9.88,3.5,14.89,4.95,3.46.32,7.04.04,10.51.13"/><path class="b" d="M7.95,208.51c2.27-.57,4.67-1.03,7.01-1.15,2.61-.06,5.33.05,7.89-.57,6.87-1.56,11.89-6.96,16.65-11.8,2.67-2.66,5.34-5.65,8.76-7.34,7.39-3.59,15.85-2.53,23.66-1.11,3.75.75,7.63.95,11.39,1.58,3.35.66,6.62,1.96,9.64,3.54,5.91,2.85,11.68,8.09,18.4,8.55,7.85-.17,14.91-4.76,22.78-4.99,7.72-.46,14.81,3.32,21.9,5.81,5.17,1.96,10.48,3.67,15.77,5.26,3.98,1.11,8.12,2.82,12.27,2.97"/><path class="b" d="M7.95,198.28c2.8-.88,5.81-1.46,8.76-1.32,2.9.17,5.85.79,8.76.67,13.86-.44,18.73-17.69,33.29-15.63,5.86.72,11.09,3.79,16.65,5.58,3.65,1.25,7.63,1.06,11.39,1.76,4.24.69,8.36,2.18,12.27,3.95,3.67,1.59,7.36,3.59,11.39,4.08,3.91.36,7.77-.98,11.39-2.3,4.28-1.59,8.59-3.4,13.14-4.03,3.51-.55,7.14-.03,10.51,1,3.2.88,6.45,1.86,9.64,2.78,5.23,1.54,10.54,2.93,15.77,4.46,4.38,1.32,8.75,2.88,13.14,4.18"/><path class="b" d="M7.95,188.53c8.82-3.81,11.94-.27,20.15,1.12,3.62.53,7.34-.43,10.51-2.16,7.8-4.36,12.14-9.73,21.9-6.41,5.83,1.92,10.82,5.85,16.65,7.77,3.97,1.11,8.24.97,12.27,1.88,4.83.91,9.43,2.82,14.02,4.53,8.57,3.48,13.34,1.08,21.03-2.92,5.39-2.78,11.27-5.83,17.52-5.05,3.5.6,7.03,1.44,10.51,2.12,5.84,1.21,11.76,2.24,17.52,3.78,4.73,1.29,9.33,3.18,14.02,4.62"/><path class="b" d="M7.95,180.09c8.96-4.1,12.87.36,21.03,2.69,3.76,1.04,7.81.59,11.39-.88,2.95-1.13,5.76-2.8,8.76-3.79,5.09-1.65,10.48.23,14.89,2.84,5.49,3.05,10.36,7.69,16.65,9.04,4.09.91,8.24,1.84,12.27,3.01,2.88.69,5.74,2.18,8.76,1.98,4.66,0,9.36,0,14.02,0,1.21.16,2.48-.47,3.5-1.05,1.11-.59,2.42-1.33,3.5-1.97,3.66-2.13,7.37-4.39,11.39-5.76,3.06-1.06,6.43-1.48,9.64-.91,3.17.44,6.44.7,9.64.82,6.42.28,12.98-.16,19.28,1.34,3.86,1.04,7.64,2.57,11.39,3.93"/><path class="b" d="M7.95,173.11c8.66-3.33,13.31,1.14,21.03,3.75,3.66,1.22,7.67,1.29,11.39.31,2.93-.7,5.8-1.92,8.76-2.51,4.55-.92,9.25.51,13.14,2.87,5.82,3.08,14.06,12.27,20.15,12.69,4.36,0,8.78,0,13.14,0,8.46,0,16.95,0,25.41,0,3.74-1.93,7.38-4.26,11.39-5.62,3.06-1.09,6.39-1.66,9.64-1.53,3.77.3,7.62.37,11.39-.03,13.68-1.53,17.17-4.01,30.66,2.26"/><path class="b" d="M7.95,167.4c8.65-2.26,14.18,2.61,21.9,4.97,3.96,1.22,8.23,1.17,12.27.39,16.59-4.06,21.61,2.89,33.29,12.71,13.72,0,27.46,0,41.18,0,1.1,0,2.41,0,3.5,0,.51.1,1.33-.14,1.75-.43,3.05-1.63,6.29-3.13,9.64-4.03,6.27-1.85,12.86-.8,19.28-1.18,7.36-.21,14.53-2.79,21.9-2.51,3.97.32,7.82,1.81,11.39,3.49"/><path class="b" d="M7.95,162.52c7.82-1.08,14.05,3.3,21.03,5.84,3.9,1.41,8.14,1.88,12.27,1.57,15.34-1.53,20.33.24,31.54,10.78,14.3,0,28.63,0,42.93,0,.44,0,1.31,0,1.75,0,.81-.35,1.85-.94,2.63-1.34,1.38-.72,2.94-1.47,4.38-2.06,4.13-1.74,8.67-2.5,13.14-2.47,2.89.04,5.87,0,8.76.17,4.65.34,9.35.87,14.02.77,8.85-.22,15.17-1.44,23.66,2.5"/><path class="b" d="M7.95,157.84c8.48-.61,15.33,5.13,22.78,8.17,3.87,1.6,8.1,2.3,12.27,2.35,11.79.36,17.56-.8,27.16,7.53,13.42.17,26.88,0,40.3.06,1.1-.03,2.42.11,3.5-.16,1.1-.64,2.4-1.4,3.5-2.03,2.77-1.58,5.71-3.07,8.76-4.02,6.22-1.97,12.88-1.15,19.28-.85,5.72.94,11.01,3.63,16.65,4.91,4,1,8.17,1.37,12.27,1.66,1.41.09,2.98.34,4.38.49,1.7,0,3.55,0,5.26,0"/><path class="b" d="M7.95,153.08c9.03-.67,15.56,5.88,22.78,10.15,4.24,2.56,9.07,4.21,14.02,4.59,5.52.72,11.24-.47,16.65,1.11,1.13.33,2.44.83,3.5,1.34.79.35,1.71,1.11,2.63.93,9.63,0,19.28,0,28.91,0,4.66,0,9.36,0,14.02,0,1.25.17,2.47-.74,3.5-1.3,2-1.15,4.1-2.41,6.13-3.5,5.32-2.98,11.42-4.54,17.52-4.13,2.3.15,4.72.17,7.01.43,3.83.73,7.22,2.96,10.51,4.93,1.98,1.21,4.08,2.5,6.13,3.57.77,0,1.86,0,2.63,0,6.7,0,13.45,0,20.15,0"/><path class="b" d="M7.95,149.82c6.07-.01,11.79,2.56,16.65,6.04,6.11,4.21,12.61,8.47,20.15,9.33,6.38,1.07,13.06-1.05,19.27,1.23,13.43.07,26.87,0,40.3.02,1.4,0,2.98,0,4.38,0,1.99-.99,4.11-2.01,6.13-2.93,9.03-4.65,15.87-7.46,26.28-6.67,5.4-.28,9.88,3.15,14.02,6.18,1.7,1.09,3.31,2.81,5.26,3.43,7.88,0,15.78,0,23.66,0"/><path class="b" d="M7.95,147.73c3.84.48,7.73,1.37,11.39,2.64,4.53,1.8,8.73,4.45,13.14,6.51,4.66,2.23,9.72,3.77,14.89,4.1,3.78.32,7.61-.52,11.39-.38,1.42.04,3,.24,4.38.56,1.09.34,2.35.62,3.5.52,12.26,0,24.54,0,36.8,0,1.4-.03,2.98.08,4.38-.08,1.79-1.3,4.05-1.87,6.13-2.49,4.69-1.54,9.27-3.56,14.02-4.94,4.52-1.35,9.29-2.07,14.02-1.95,6.17-.04,10.91,4.76,15.77,7.93,1,.67,2.2,1.74,3.5,1.53,2,0,4.13,0,6.13,0,5.53,0,11.11,0,16.65,0"/><path class="b" d="M7.95,146.22c2.31.47,4.69,1.13,7.01,1.57,2.63.37,5.34.85,7.89,1.63,7.22,2.14,14.36,4.95,21.9,5.71,5.54.88,11.11-.86,16.65-.22,1.44.17,3.01.54,4.38,1.01,1.11.32,2.31,1.16,3.5,1.02,12.26,0,24.54,0,36.8,0,.78,0,1.85,0,2.63,0,.8-.06,1.84-.4,2.63-.5,4.19-.38,8.31-1.62,12.27-2.99,6.26-2.12,12.55-4.96,19.28-4.95,4.91.15,9.04,3.42,13.14,5.78,1.37.84,2.95,1.74,4.38,2.47,2.55.44,5.3.08,7.89.19,5.24,0,10.53,0,15.77,0"/><path class="b" d="M7.95,144.68c2.28.62,4.66,1.33,7.01,1.62,2,.17,4.13.16,6.13.35,4.97.41,9.95,1.22,14.89,1.89,4.34.57,8.76,1.1,13.14,1.01,4.36-.25,8.76-1.4,13.14-.77,2.08.27,4.22.93,6.13,1.81,1.13.45,2.29,1.39,3.5,1.58,9.04,0,18.12,0,27.16,0,5.53,0,11.11,0,16.65,0,1.7,0,3.55,0,5.26,0,1.43-.01,3.08.18,4.38-.56,4.93-2.07,9.63-4.97,14.89-6.14,6-1.45,11.42,2.45,16.65,4.78,1.37.64,2.95,1.3,4.38,1.78,1.08.22,2.41.11,3.5.14,6.41,0,12.86,0,19.28,0"/><path class="b" d="M7.95,142.49c2.27.61,4.66,1.25,7.01,1.41,2.6.05,5.29-.15,7.89-.06,6.13.09,12.28.75,18.4,1.04,3.48.13,7.08.25,10.51-.46,8.6-2,14.31-2.17,21.9,2.98,18.69.04,37.39,0,56.07.02,9.61-5.94,12.81-8.58,23.66-3.09,1.69.78,3.52,1.62,5.26,2.29,1.34.61,2.91.93,4.38.8,4.95,0,9.95,0,14.89,0,2-.08,4.12-.37,6.13-.25"/><path class="b" d="M7.95,139.91c2.29.36,4.69.74,7.01.75,2.6-.1,5.28-.34,7.89-.29,6.13.02,12.27.69,18.4.69,2.9-.03,5.92-.13,8.76-.76,2.63-.63,5.26-1.63,7.89-2.27,5.01-1.4,10.44-.61,14.89,2.06,1.14.64,2.44,1.48,3.5,2.22.74.45,1.81.37,2.63.36,11.67,0,23.37,0,35.05,0,4.07,0,8.2,0,12.27,0,1.4,0,2.98,0,4.38,0,.83.01,1.94.11,2.63-.46,7.87-5.65,11.39-6.01,20.15-1.8,1.68.76,3.52,1.57,5.26,2.2.77.07,1.86.06,2.63.06,5.53,0,11.11,0,16.65,0,2-.16,4.11-.57,6.13-.53"/><path class="b" d="M7.95,137.68c5.28.28,10.52-.7,15.77-.95,7-.34,14.08-.02,21.03-1.02,7.04-.62,13.01-5.55,20.15-5.59,4.09-.05,8,1.7,11.39,3.86,1.12.71,2.42,1.6,3.5,2.36,1.01.7,2.17,1.77,3.5,1.55,5.53,0,11.11,0,16.65,0,8.17,0,16.36,0,24.53,0,2.3,0,4.71,0,7.01,0,1.4-.08,3.03.21,4.38-.24,1.6-1,3.44-1.96,5.26-2.49,3.18-.99,6.58-.12,9.64.89,2,.61,4.07,1.47,6.13,1.84,4.36,0,8.78,0,13.14,0,1.76.04,3.55-.79,5.26-1.16,2.84-.77,5.81-1.49,8.76-1.58"/><path class="b" d="M7.95,133.14c5.53-.03,11.11.06,16.65-.03,7.32-.9,14.76-1.41,21.9-3.36,4.96-1.21,9.21-4.35,14.02-5.98,7.04-2.63,13.38-.02,19.27,3.93,10.13,6.84,3.83,5.28,16.65,5.44,7.87,0,15.78,0,23.66,0,5.53,0,11.11,0,16.65,0,7.39-2.9,9.13-1.99,16.65-.41,1.68.4,3.54.45,5.26.41,1.71-.03,3.58.14,5.26-.28,6.81-1.53,13.08-5.37,20.15-5.74"/><path class="b" d="M7.95,128.38c5.24,0,10.53,0,15.77,0,3.18-.12,6.49.29,9.64-.25,5.34-1.06,10.73-2.3,15.77-4.39,3.6-1.63,6.91-3.97,10.51-5.6,7.2-3.5,13.53-2.01,20.15,1.91,2.48,1.41,4.81,3.26,7.01,5.06,1.42,1.02,2.73,2.64,4.38,3.27,9.04,0,18.12,0,27.16,0,3.78,0,7.61,0,11.39,0,1.09,0,2.41,0,3.5,0,.79,0,1.89.08,2.63-.28,8.23-3.4,11.24-1.42,19.28-.64,5.59.5,10.9-1.79,15.77-4.29,4.13-1.93,8.55-3.78,13.14-4.07"/><path class="b" d="M7.95,123.63c10.21,0,20.45,0,30.66,0,3.6-.69,7.17-2.01,10.51-3.51,3.31-1.66,6.39-3.92,9.64-5.69,13.95-8.13,23.84,1.74,35.05,9.17,11.09.11,22.2,0,33.29.04.5.09,1.33-.12,1.75-.38,1.09-.48,2.39-1.02,3.5-1.44,2.52-.95,5.22-1.71,7.89-2.14,1.99-.33,4.13-.58,6.13-.27,4.06.61,8.12,1.95,12.27,1.62,4.73-.28,9.02-2.62,13.14-4.74,3.85-1.81,7.96-3.67,12.27-3.88"/><path class="b" d="M7.95,118.87c9.04,0,18.12,0,27.16,0,2.89,0,5.87,0,8.76,0,2-.15,4.35.48,6.13-.66,5.93-3.35,11.38-8.36,18.4-9.13,10.39-.98,18.51,7.21,28.04,9.79,4.07,0,8.2,0,12.27,0,3.48,0,7.03,0,10.51,0,2.13-.43,4.13-1.73,6.13-2.55,3.38-1.56,6.9-3.04,10.51-3.96,2.84-.68,5.84-1.26,8.76-1.22,2.08.17,4.18.9,6.13,1.6,9.87,3.94,14.33,2.59,23.66-1.7,3.07-1.23,6.28-2.6,9.64-2.68"/><path class="b" d="M7.95,114.11c13.72,0,27.46,0,41.18,0,2.03-.13,4.4.5,6.13-.83,3.53-2.06,7.3-4.05,11.39-4.69,5.76-.99,11.36,1.32,16.65,3.31,3.1,1.08,6.28,2.53,9.64,2.22,5.24,0,10.53,0,15.77,0,1.71,0,3.55,0,5.26,0,1.13.05,2.46,0,3.5-.48,5.72-2.18,10.9-5.67,16.65-7.8,3.61-1.27,7.52-2.55,11.39-2.21,3.06.48,5.92,1.97,8.76,3.14,6.26,2.83,11.91,3.1,18.4.75,3.66-1.22,7.47-2.64,11.39-2.29"/><path class="b" d="M7.95,109.36c13.72,0,27.46,0,41.18,0,2.89,0,5.87,0,8.76,0,1.15-.1,2.39-.72,3.5-1,1.96-.56,4.1-.91,6.13-.94,2.33-.04,4.75.33,7.01.92,1.42.27,2.92,1.1,4.38,1.02,7,0,14.03,0,21.03,0,6.12,0,12.28,0,18.4,0,5.26-1.98,9.87-5.48,14.89-7.96,12.01-5.97,13.63-3.84,25.41-.05,4.23,1.28,8.79,1.55,13.14.77,4.02-.83,8.24-1.65,12.27-.36"/><path class="b" d="M7.95,104.6c31.25,0,62.5,0,93.75,0,5.24,0,10.53,0,15.77,0,7.27-.05,5.12.76,11.39-3.2,15.03-9.61,16.31-8.86,33.29-5.91,3.46.49,7.03.68,10.51.53,1.7-.08,3.56-.27,5.26.03,2.1.33,4.23,1.14,6.13,2.09"/><path class="b" d="M7.95,99.84c32.12,0,64.25,0,96.38,0,5.83,0,11.7,0,17.52,0,2.3,0,4.71,0,7.01,0,1.84-.8,3.54-2.22,5.26-3.24,9.86-6.88,19-7.59,30.66-6.7,3.77.32,7.63.5,11.39.93,2.85.59,5.49,2.16,7.89,3.76"/><path class="b" d="M7.95,95.09c33,0,66,0,99,0,6.12,0,12.28,0,18.4,0,1.7,0,3.55,0,5.26,0,1.1-.04,2.44.14,3.5-.21,1.39-.9,2.96-1.9,4.38-2.74,9.19-5.38,20.08-7.88,30.66-6.34,7.02.78,9.07,1.15,14.89,5.58"/><path class="b" d="M7.95,90.33c33.29,0,66.59,0,99.88,0,6.41,0,12.86,0,19.28,0,3.18-.07,6.47.15,9.64-.1,1.08-.64,2.4-1.4,3.5-2,8.89-5,17.95-6.71,28.04-4.98,7.35,1.12,9.37.94,15.77,5.52"/><path class="b" d="M7.95,83.98c.43.38,1.31,1.14,1.75,1.5,12.54.27,25.13,0,37.67.1,6.41,0,12.86,0,19.28,0,1.99-.36,4.08-.98,6.13-.81,1.44.05,2.99.45,4.38.81,3.48,0,7.03,0,10.51,0,7.29,0,14.61,0,21.9,0,7.29,0,14.61,0,21.9,0,2.6,0,5.29,0,7.89,0,1.09,0,2.41,0,3.5,0,.41-.24,1.33-.7,1.75-.92,7.24-3.84,15.68-4.18,23.66-3.14,2.59.33,5.29.48,7.89.78,2.8.51,5.42,1.93,7.89,3.29"/><path class="b" d="M7.95,76.31c1.36,1.44,2.91,3.02,4.38,4.34,1.68.34,3.55.1,5.26.16,2.6,0,5.29,0,7.89,0,8.17,0,16.36,0,24.53,0,3.19,0,6.45,0,9.64,0,2.67-1.47,5.67-2.67,8.76-2.63,3.12-.05,6,1.37,8.76,2.63,6.71,0,13.45,0,20.15,0,15.47,0,30.96,0,46.44,0,2,0,4.13,0,6.13,0,3.37-1.11,6.97-1.7,10.51-1.81,4.07-.16,8.2.13,12.27.03,1.7-.05,3.56-.26,5.26.04,2.09.25,4.13,1.2,6.13,1.75"/><path class="b" d="M7.95,68.06c2.49,2.72,4.86,5.85,7.89,7.99,11.68,0,23.37,0,35.05,0,1.66.2,3.02-1.25,4.38-1.99,2.14-1.33,4.51-2.61,7.01-3.1,3.37-.71,6.84.48,9.64,2.34.81.52,1.87,1.3,2.63,1.9.42.43,1.14.87,1.75.86,2.89,0,5.87,0,8.76,0,22.78,0,45.56,0,68.34,0,2.32.13,4.71-.29,7.01-.49,3.48-.28,7.04-.35,10.51-.75,2.02-.18,4.11-.75,6.13-.93,2.33-.17,4.77.18,7.01.82"/><path class="b" d="M7.95,60.03c3.48,4.03,7.02,8.16,11.39,11.27,7.88,0,15.78,0,23.66,0,.78,0,1.85.02,2.63-.07.43-.3,1.3-.85,1.75-1.11,1.79-.9,3.6-2.07,5.26-3.19,9.84-6.94,14.48-3.27,21.9,4.38,17.23,0,34.47,0,51.69,0,6.12,0,12.28,0,18.4,0,2,0,4.13,0,6.13,0,1.4-.03,3,.12,4.38-.23,4.91-.9,9.98-.84,14.89-1.71,2.36-.35,4.7-1.21,7.01-1.77,2.26-.49,4.72-.56,7.01-.21"/><path class="b" d="M7.95,53.37c3.35,3.57,6.63,7.33,10.51,10.34,1.33.99,2.51,3.09,4.38,2.84,7,0,14.03,0,21.03,0,2.14-1.81,4.69-3.24,7.01-4.8,10.41-7.97,15.34-4.64,22.78,4.66,2.87.32,5.87.05,8.76.14,5.53,0,11.11,0,16.65,0,15.47,0,30.96,0,46.44,0,.43,0,1.32,0,1.75,0,.8-.25,1.84-.76,2.63-1.05,1.36-.49,2.95-.87,4.38-1.09,4.33-.65,8.79-.36,13.14-.81,2.66-.26,5.39-.86,7.89-1.85,2.77-1.02,5.8-1.62,8.76-1.46"/><path class="b" d="M7.95,48.4c3.17,2.76,6.13,5.91,9.64,8.25,2.1,1.56,3.95,3.69,6.13,5.14,6.12,0,12.28,0,18.4,0,1.19.07,2.58.02,3.5-.85,1.34-.93,2.99-1.72,4.38-2.56,10.09-6.85,14.87-5.76,22.78,3.32,23.35.28,46.73,0,70.09.1,7.4-6.62,15.73-3.75,24.53-3.58,2.97.05,5.97-.53,8.76-1.53,2.53-.77,5.24-1.26,7.89-1.3"/><path class="b" d="M7.95,44.43c3.49,2.09,6.97,4.36,10.51,6.36,2.93,1.95,5.69,4.32,8.76,6.06,1.67.37,3.55.11,5.26.18,3.19,0,6.45,0,9.64,0,.49.08,1.33-.12,1.75-.38,1.09-.5,2.39-1.09,3.5-1.53,8.75-3.52,14.15-4.51,21.9,1.89,23.65,0,47.32.1,70.97-.04,8.47-8.11,17.11-4.19,27.16-2.93,2.9.35,5.91.19,8.76-.41,2.58-.42,5.28-.66,7.89-.71"/><path class="b" d="M7.95,42.26c3.85.93,7.75,2.11,11.39,3.68,6.04,2.94,12.33,6.39,19.28,5.77,5.83-.41,11.68-2.62,17.52-1.07,1.77.34,3.53,1.15,5.26,1.62,2.01,0,4.13,0,6.13,0,5.53,0,11.11,0,16.65,0,15.47,0,30.96,0,46.44,0,1.7,0,3.55,0,5.26,0,1.1-.05,2.47.19,3.5-.29,1.55-1.17,3.4-2.21,5.26-2.79,3.36-1.1,7.02-1.19,10.51-.83,4.99.52,9.92,1.75,14.89,2.31,2.29.3,4.71.3,7.01.41,2.3.14,4.71.41,7.01.6"/><path class="b" d="M7.95,41.89c7.74-1.02,15.22,1.68,22.78,2.86,4.04.68,8.18,1.05,12.27,1.3,2.91.24,6,.18,8.76,1.25,1.07.35,2.4.17,3.5.21,1.41,0,2.97,0,4.38,0,4.66,0,9.36,0,14.02,0,13.14,0,26.29,0,39.43,0,8.46,0,16.95,0,25.41,0,1.78.14,3.5-.9,5.26-1.02,3.17-.46,6.44-.67,9.64-.72,6.73-.08,13.53.38,20.15,1.68,3.47.17,7.03.02,10.51.07"/><path class="b" d="M7.95,42.46c2.27-.67,4.65-1.39,7.01-1.6,2-.1,4.13.02,6.13-.06,4.66-.12,9.38-.22,14.02.3,3.24.27,6.45,1.15,9.64,1.66,4.66,0,9.36,0,14.02,0,31.54,0,63.08,0,94.62,0,1.7,0,3.55,0,5.26,0,2.59-.24,5.27-.62,7.89-.56,1.72.02,3.58.21,5.26.56,4.07,0,8.2,0,12.27,0"/><path class="b" d="M7.95,38c46.43,0,92.87,0,139.31,0,4.95,0,9.95,0,14.89,0,1.69-.28,3.54-.53,5.26-.55,1.73-.08,3.56.36,5.26.55,3.77,0,7.61,0,11.39,0"/><path class="b" d="M7.95,33.24c45.27,0,90.54,0,135.8,0,4.36,0,8.78,0,13.14,0,2.86-.58,5.83-1.2,8.76-1.16,2.36-.05,4.74.59,7.01,1.16,3.77,0,7.61,0,11.39,0"/><path class="b" d="M7.95,28.49c43.51,0,87.03,0,130.54,0,3.19,0,6.45,0,9.64,0,2.93-.58,5.8-1.78,8.76-2.27,2.86-.55,5.92-.58,8.76.08,2.1.42,4.14,1.46,6.13,2.19,4.07,0,8.2,0,12.27,0"/><path class="b" d="M7.95,23.73c36.21,0,72.43,0,108.64,0,8.75-.03,17.53.05,26.28-.03,3.95-.94,7.47-3.3,11.39-4.36,4.11-1.28,8.62-.43,12.27,1.75.79.46,1.88,1.13,2.63,1.65.64.55,1.75,1.15,2.63.99,4.07,0,8.2,0,12.27,0"/><path class="b" d="M7.95,18.97c33.58,0,67.17,0,100.76,0,7.29,0,14.61,0,21.9,0,3.48,0,7.03,0,10.51,0,1.87-.42,3.63-1.64,5.26-2.61,10.26-7.16,14.9-5.78,23.66,2.61h14.02"/></svg>