<?xml version="1.0" encoding="UTF-8"?><svg id="a" xmlns="http://www.w3.org/2000/svg" width="1920" height="2400" viewBox="0 0 192 240"><defs><style>.b{fill:none;stroke:#fff;stroke-miterlimit:10;stroke-width:.4px;}.c{stroke-width:0px;}</style></defs><rect class="c" width="192" height="240"/><path class="b" d="M7.98,228.33c14.01,0,28.03,0,42.04,0,5.24-.08,10.54.16,15.76-.1,4.51-2.97,9.2-5.79,14.01-8.24,7.4-4,14.61-2.63,21.89.8,2.28,1.01,4.64,2.13,7.01,2.95,1.98.69,4.2.96,6.13,1.8,2.04.82,4.11,1.9,6.13,2.78.77,0,1.85,0,2.63,0,5.82,0,11.69,0,17.52,0,2.73-1.47,5.62-2.91,8.76-3.25,7.75-.89,14.72-.25,21.89-4.25,3.94-2.15,7.61-5.36,12.26-5.75"/><path class="b" d="M7.98,223.57c11.38,0,22.78,0,34.16,0,6.4-.11,12.88.21,19.27-.13,4.81-2.92,9.82-5.62,14.89-8.06,4.4-2.29,8.92-4.31,14.01-3.64,5.94.63,11.2,3.79,16.64,6.01,2.21,1.01,4.74,1.36,7.01,2.18,1.76.69,3.58,1.65,5.25,2.53.75.39,1.76,1.02,2.63,1.1,6.99,0,14.02,0,21.02,0,.84.04,1.85-.51,2.63-.78,1.37-.48,2.96-.87,4.38-1.14,4.65-.84,9.46-1.15,14.01-2.51,3.03-.87,6.03-2.19,8.76-3.77,3.42-2.15,7.15-4.63,11.38-4.06"/><path class="b" d="M7.98,218.82c10.5,0,21.03,0,31.53,0,3.48,0,7.03,0,10.51,0,4.81-.02,3.82.52,7.88-2.12,5.72-3.65,11.89-6.66,18.39-8.65,3.64-1.27,7.48-2.47,11.38-1.92,5.89.66,11.25,3.47,16.64,5.74,1.68.71,3.51,1.43,5.25,1.95,1.41.41,3.03.72,4.38,1.32,2.41.99,4.65,2.59,7.01,3.68,1.09,0,2.41,0,3.5,0,5.24,0,10.52,0,15.76,0,2,0,4.13,0,6.13,0,1.69-.49,3.54-.95,5.25-1.31,5.62-1.15,11.36-2.24,16.64-4.57,5.6-2.13,9.32-6.87,15.76-4.53"/><path class="b" d="M7.98,214.06c9.04,0,18.11,0,27.15,0,3.48,0,7.03,0,10.51,0,.79,0,1.84.01,2.63-.03,1.48-.64,3.03-1.55,4.38-2.42,5.09-3.33,9.98-7.23,15.76-9.3,2.79-1.02,5.81-1.58,8.76-1.88,2-.21,4.12-.46,6.13-.25,4.54.45,8.89,2.15,13.14,3.75,4.59,1.77,9.25,3.55,14.01,4.78,2.5.51,4.86,1.76,7.01,3.11,1.1.68,2.4,1.51,3.5,2.18.42.04,1.32.07,1.75.06,5.53,0,11.11,0,16.64,0,2.6,0,5.29,0,7.88,0,1.09-.24,2.4-.56,3.5-.78,5.84-1.16,11.85-1.73,17.52-3.65,6.24-1.81,8.89-6.23,15.76-2.7"/><path class="b" d="M7.98,209.3c7.58,0,15.19,0,22.77,0,3.19,0,6.45,0,9.63,0,2.63-.8,5.3-1.79,7.88-2.73,3.24-1.33,6-3.71,8.76-5.82,6.35-5.13,12.57-8.75,21.02-7.3,7.33.88,13.92,4.66,21.02,6.47,4.59,1.39,9.5,1.86,14.01,3.48,2.47,1.11,4.76,2.79,7.01,4.28.76.51,1.81,1.2,2.63,1.62,1.09,0,2.41,0,3.5,0,2.6,0,5.29,0,7.88,0,3.48,0,7.03,0,10.51,0,1.7-.32,3.53-.77,5.25-.91,4.64-.49,9.36-.01,14.01-.07,2.93-.04,5.98-.37,8.76-1.36,4.52-2.09,6.69-2.58,11.38-.15"/><path class="b" d="M7.98,204.2c2.84.65,5.87.24,8.76.35,3.8-.55,7.59-1.54,11.39-2.16,6.07-1.16,12.37-1.04,18.39-2.49,3.76-.83,6.76-3.51,9.63-5.9,6.12-5.32,12.51-10.2,21.02-7.34,6.83,2.14,13.02,6.17,20.14,7.43,5.47,1.27,11.52.51,16.64,3.07,2.44,1.33,4.72,3.14,7.01,4.71,1.35.94,2.91,1.93,4.38,2.67,2.89,0,5.87,0,8.76,0,2.3,0,4.71,0,7.01,0,3.03-1.2,6.38-1.82,9.63-1.4,2.04.23,4.17.75,6.13,1.34,2,.13,4.13.03,6.13.06,6.99,0,14.02,0,21.02,0"/><path class="b" d="M7.98,195.38c7.17,1.08,13.96-2.29,21.02-2.87,3.47-.39,7.03-.33,10.51-.31,3.53-.02,7.32-.13,10.51-1.81,10.65-6.56,15.9-16.27,29.78-8.9,6.08,3.17,12.3,6.57,19.27,7.13,4.94.62,10.34-.17,14.89,2.24,3.68,2.05,6.86,5.01,10.51,7.11,1.33.73,2.86,1.6,4.38,1.83.77,0,1.85,0,2.63,0,2.3-.06,4.72.14,7.01-.11,3.4-1.01,6.89-2.57,10.51-1.74,1.78.33,3.62,1.01,5.25,1.78,2.88.18,5.87.03,8.76.08,6.99,0,14.02,0,21.02,0"/><path class="b" d="M7.98,187.81c6.34.8,12.33-1.77,18.39-3.15,3.14-.71,6.42-1.08,9.63-1.12,7.12-.05,12.11.73,18.39-3.45,11.83-7.54,16.89-9.45,29.78-2.51,4.22,2.08,8.59,4.03,13.14,5.27,4.3,1.23,8.8,1.78,13.14,2.85,4.91,1.17,8.69,4.91,13.14,7.1,3.45,1.85,7.52,2.66,11.39,1.85,5.61-1.07,9.95-4.36,15.76-1.67,1.76.59,3.3,2.3,5.25,2.06,9.33,0,18.69,0,28.02,0"/><path class="b" d="M7.98,182.04c8.97.76,13.84-2.65,21.89-4.94,5.7-1.7,11.67-.99,17.52-1.18,8.76-.68,16.58-5.84,25.4-6.21,3.61-.24,7.17.77,10.51,2.03,3.86,1.39,7.68,3.09,11.39,4.86,4.05,1.92,8.12,3.98,12.26,5.7,2.87,1.23,6.03,1.99,8.76,3.55,3.84,1.93,7.79,4.67,12.26,4.44,1.4,0,2.98,0,4.38,0,2.69-.5,5.32-1.6,7.88-2.54,3.03-1.22,6.5-1.73,9.63-.57,1.84.63,3.68,1.7,5.25,2.84,1.04.43,2.4.22,3.5.27,1.7,0,3.55,0,5.25,0,6.7,0,13.44,0,20.14,0"/><path class="b" d="M7.98,177.75c12.32.36,13.37-2.94,23.65-6.7,5.07-1.83,10.52-1.36,15.76-.77,5.52.44,11.15,1.1,16.64,0,5.81-.97,11.53-3.71,17.52-2.65,8.89.78,15.81,5.64,22.77,10.75,1.64,1.15,3.46,2.36,5.25,3.26,1.98.92,4.18,1.66,6.13,2.66.77.37,1.85.87,2.63,1.22,1.7.03,3.55,0,5.25.01,4.07,0,8.19,0,12.26,0,7.74-3.57,13.41-5.06,21.02,0h27.15"/><path class="b" d="M7.98,174.41c3.19-.19,6.48-.33,9.63-.82,5.64-1.52,10.17-5.72,15.76-7.4,4.54-1.57,9.44-.94,14.01.16,7.68,1.74,12.51,6.05,21.02,3.48,4.11-1.13,7.93-3.57,12.26-3.86,11.17-1.77,16.65,3.26,24.52,10.1,2.55,1.98,5.36,4.67,8.76,4.71,8.75,0,17.52,0,26.27,0,.82.07,1.85-.4,2.63-.61,2.56-.63,5.23-1.36,7.88-1.43,1.73-.05,3.61.24,5.25.8,1.13.3,2.31,1.23,3.5,1.24,8.16,0,16.36,0,24.52,0"/><path class="b" d="M7.98,171.28c3.17-.46,6.45-.64,9.63-.94,3.16-.65,5.97-2.51,8.76-4.04,5.49-3.27,11.17-5.04,17.52-3.28,2.34.63,4.85,1.2,7.01,2.35,4.42,2.37,8.75,5.84,14.01,5.74,4.46-.05,8.33-2.63,12.26-4.41,2.21-.97,4.71-1.43,7.01-2.12,5.84-1.77,10.98-.5,15.76,3.16,3.57,2.56,6.67,5.92,10.51,8.11,2.26.39,4.71.08,7.01.17,3.77,0,7.61,0,11.39,0,6.7,0,13.44.01,20.14,0,1.93-.72,4.06-1.31,6.13-1.41,2.41-.2,4.77.69,7.01,1.42,7.29,0,14.61,0,21.89,0"/><path class="b" d="M7.98,167.22c1.99-.43,4.1-.79,6.13-.97,1.72-.14,3.59-.04,5.25-.54,4.73-1.36,9.08-4.13,14.01-4.82,3.83-.62,7.74.18,11.38,1.34,2.02.67,4.26,1.13,6.13,2.18,3.99,2.17,7.69,5.3,12.26,6.13,5.04.98,9.65-1.85,14.01-3.96,1.94-.92,4.18-1.41,6.13-2.31,3.31-1.42,6.83-2.94,10.51-2.78,6.78.23,11.65,5.68,17.52,8.32.8.32,1.87.83,2.63,1.25.76.26,1.84.2,2.63.2,9.04,0,18.11,0,27.15,0,3.19,0,6.45,0,9.63,0,1.68-.4,3.51-.84,5.25-.76,1.43.01,2.99.45,4.38.76.77,0,1.86,0,2.63,0,6.12,0,12.27,0,18.39,0"/><path class="b" d="M7.98,161.82c1.96-.69,4.07-1.31,6.13-1.57,2-.21,4.14-.03,6.13-.37,5.49-.91,11.18-1.75,16.64-.19,2.95.74,5.85,1.91,8.76,2.77,1.7.51,3.63.71,5.25,1.48,6.1,3,3.52,2.59,10.51,2.57,4.94-.07,9.96.15,14.89-.1,2.24-1.12,4.81-1.73,7.01-2.95,3.64-1.93,7.26-4.31,11.39-5.04,4.55-.89,9.05.89,13.14,2.73,2.25,1.05,4.8,1.64,7.01,2.79,1.44.72,3,1.63,4.38,2.45,2.58.28,5.29.05,7.88.12,18.97,0,37.95,0,56.93,0"/><path class="b" d="M7.98,156.67c5.08-2.45,7.72-2.33,13.14-2,3.23.15,6.52.61,9.63,1.51,3.58,1,7.04,2.56,10.51,3.87,5.54,2.39,11.65,1.58,17.52,1.7,5.24,0,10.52,0,15.76,0,1.71,0,3.55,0,5.25,0,1.13-.03,2.54.19,3.5-.52,4.94-2.74,9.91-6.25,15.76-6.43,3.26-.15,6.51.71,9.63,1.51,2.6.63,5.36.99,7.88,1.92,1.74.59,3.58,1.35,5.25,2.11,1.37.57,2.83,1.6,4.38,1.41,19.26,0,38.54,0,57.8,0"/><path class="b" d="M7.98,152.7c3.83-1.88,7.13-2.75,11.39-2.04,7.05.7,13.53,3.75,20.14,6.05,1.63.57,3.56.18,5.25.29,2.6,0,5.28,0,7.88,0,10.21,0,20.44,0,30.65,0,2.08-.63,4.08-1.85,6.13-2.57,3.04-1.2,6.35-1.95,9.63-1.89,3.52.02,7.03.92,10.51,1.33,3.47.33,7.04-.09,10.51.26,2.35.2,4.77.71,7.01,1.47,1.12.38,2.43.91,3.5,1.4.77.01,1.85,0,2.63,0,16.93,0,33.87,0,50.79,0"/><path class="b" d="M7.98,149.97c4.5-1.81,7.46-2.36,12.26-1.6,8.49.87,16.77,4.49,25.4,3.63,1.43-.15,2.95-.69,4.38-.78,2.05-.11,4.17.37,6.13.93,2.88.22,5.87.03,8.76.09,5.24,0,10.52,0,15.76,0,3.7-1.06,7.5-2.21,11.38-2.14,2.64,0,5.34.49,7.88,1.15,1.1.28,2.41.65,3.5.95.78.05,1.85.04,2.63.04,3.19,0,6.45,0,9.63,0,2.84-.97,5.75-2.12,8.76-2.4,2.34-.23,4.81.12,7.01.93,1.13.39,2.38,1.08,3.5,1.47.42,0,1.33,0,1.75,0,15.76,0,31.53,0,47.29,0"/><path class="b" d="M7.98,147.49c2.32-.06,4.66-1.07,7.01-1.12,4.95.06,9.95.26,14.89-.11,4.1-.26,8.24-.74,12.26-1.58,2.34-.45,4.71-1.23,7.01-1.85,4.56-.78,8.9,1.58,13.14,2.92,4.75,1.71,9.96,2.23,14.89,1.02,2.58-.61,5.21-1.48,7.88-1.55,3.61-.18,7.23.81,10.51,2.25,2,.03,4.13,0,6.13.01,6.41,0,12.86,0,19.27,0,1.2.15,2.39-.77,3.5-1.1,1.63-.59,3.51-.93,5.25-.82,2.12.13,4.26.9,6.13,1.89,4.95.07,9.94,0,14.89.03,11.09,0,22.19,0,33.28,0"/><path class="b" d="M7.98,142.73c4.95,0,9.94,0,14.89,0,1.44.06,2.99-.51,4.38-.83,2.63-.71,5.31-1.61,7.88-2.51,2.9-1.02,5.86-2.12,8.76-3.13,1.99-.63,4.04-1.55,6.13-1.79,5.98-.21,11.09,3.71,16.64,5.37,2.79.93,5.81,1.47,8.76,1.39,2.02,0,4.12-.45,6.13-.63,3.31-.22,6.66.66,9.63,2.06,30.95.13,61.87,0,92.83.05"/><path class="b" d="M7.98,137.98c3.19,0,6.45,0,9.63,0,1.71-.07,3.6.21,5.25-.28,6.34-1.72,12.27-4.7,18.39-7.03,3.39-1.16,6.85-2.92,10.51-2.8,6.87.58,12.77,4.78,19.27,6.72,3.37,1.19,6.99,1.58,10.51,2.02,1.45.27,3,.85,4.38,1.37,1.4,0,2.97,0,4.38,0,31.23,0,62.47,0,93.71,0"/><path class="b" d="M7.98,131.97c10.64,3,20.8-2.8,30.65-6.07,5.1-1.58,10.32-3.92,15.76-3.46,5.22.45,10.15,2.57,14.89,4.69,4.02,1.89,8.17,3.64,12.26,5.36,1.27.89,2.91.75,4.38.74,1.71,0,3.55,0,5.25,0,30.94,0,61.89,0,92.83,0"/><path class="b" d="M7.98,125.34c2.49.91,5.22,1.53,7.88,1.29,5.09-.64,9.99-2.44,14.89-3.89,4.89-1.51,9.9-2.75,14.89-3.87,4-.96,8.11-1.98,12.26-1.85,7.46.11,14.14,4.01,20.14,8.09,1.44.96,3.03,2.04,4.38,3.12,1.06.39,2.4.2,3.5.24,1.71,0,3.55,0,5.25,0,30.94,0,61.89,0,92.83,0"/><path class="b" d="M7.98,119.89c3.31,1.52,6.99,2.14,10.51,1.01,4.41-1.1,8.75-2.66,13.14-3.85,5.45-1.56,11.1-2.43,16.64-3.61,4.33-1.02,8.63-2.67,13.14-2.64,8.48,0,15.17,6.16,21.02,11.6,1.33,1.63,2.51,1.31,4.38,1.31,1.71,0,3.55,0,5.25,0,30.65,0,61.31,0,91.96,0"/><path class="b" d="M7.98,116.97c5.39,2.67,8.67,1.95,14.01-.19,4.96-1.99,9.82-4.39,14.89-6.11,5.11-1.89,10.6-2.59,15.76-4.31,6.2-2.22,12.37-3.28,18.39.12,5.81,3.03,9.98,8.31,14.89,12.48h98.09"/><path class="b" d="M7.98,114.2c3.77,0,7.61,0,11.39,0,5.34,0,4.39.47,8.76-2.58,4.46-3.06,9-6.19,14.01-8.3,2.5-1.1,5.24-1.78,7.88-2.46,2.58-.73,5.23-1.6,7.88-2.02,9.79-1.92,17.76,5.18,24.52,11.24,1.69,1.33,3.24,3.32,5.25,4.12,1.4,0,2.97,0,4.38,0,30.65,0,61.31,0,91.96,0"/><path class="b" d="M7.98,109.45c4.36,0,8.78,0,13.14,0,2.3-.07,4.73.17,7.01-.13,5.37-4.55,10.84-9.39,17.52-11.91,5.59-1.8,11.61-3.7,17.52-2.44,7.74,1.72,13.69,7.43,20.14,11.68,1.37.95,2.93,1.96,4.38,2.78,2,.04,4.13,0,6.13.02,4.36,0,8.78,0,13.14,0,25.69,0,51.38,0,77.07,0"/><path class="b" d="M7.98,104.69c6.7,0,13.44,0,20.14,0,2.36.14,2.67-.19,4.38-1.63,1.66-1.29,3.49-2.63,5.25-3.77,4.76-3.1,10.19-5.21,15.76-6.27,10.34-2.09,17.79,4.19,26.27,8.77,1.39.7,2.96,1.47,4.38,2.11.77.33,1.76.89,2.63.78,8.46,0,16.94,0,25.4,0,2.6-.05,5.27-.55,7.88-.46,2.01,0,4.14.18,6.13.46,6.12,0,12.27,0,18.39,0,13.13,0,26.28,0,39.41,0"/><path class="b" d="M7.98,99.94c8.46,0,16.94,0,25.4,0,.9.16,1.85-.48,2.63-.82,1.09-.49,2.39-1.04,3.5-1.46,2.27-.87,4.69-1.63,7.01-2.38,2.84-.96,5.77-1.94,8.76-2.3,6.1-.88,12.09,1.29,17.52,3.88,3.34,1.46,6.74,3.48,10.51,3.08,10.79,0,21.61,0,32.4,0,1.09,0,2.41.01,3.5-.02,2.56-.57,5.25-1.04,7.88-1.1,2.94-.14,5.9.52,8.76,1.12,1.4,0,2.98,0,4.38,0,14.59,0,29.2,0,43.79,0"/><path class="b" d="M7.98,95.18c11.38,0,22.78,0,34.16,0,3.19,0,6.45,0,9.63,0,2.86-.68,5.8-1.48,8.76-1.55,2.61-.12,5.32.16,7.88.68,1.42.23,2.94.81,4.38.87,4.36,0,8.78,0,13.14,0,11.38,0,22.78,0,34.16,0,1.43.02,3.03.09,4.38-.46,1.95-.56,4.09-.95,6.13-.97,2.69-.11,5.33.74,7.88,1.43,3.19,0,6.45,0,9.63,0,11.96,0,23.94,0,35.91,0"/><path class="b" d="M7.98,90.43c25.69,0,51.38,0,77.07,0,9.33,0,18.69,0,28.02,0,3.77,0,7.61,0,11.39,0,2.01-.16,4.08-.93,6.13-.89,1.41-.04,3,.11,4.38.4.77.16,1.82.54,2.63.49,4.07,0,8.19,0,12.26,0,11.38,0,22.78,0,34.16,0"/><path class="b" d="M7.98,85.67c36.2,0,72.4,0,108.6,0,1.7,0,3.55,0,5.25,0,1.12-.08,2.4-.56,3.5-.76,2.27-.47,4.7-.63,7.01-.36,1.75.15,3.54.8,5.25,1.12,5.82,0,11.69,0,17.52,0,2.6,0,5.29,0,7.88,0,1.2-.19,2.4-1.07,3.5-1.56,6.8-3.66,11.19-2.37,17.52,1.51"/><path class="b" d="M7.98,80.92c18.97,0,37.95,0,56.93,0,2.89,0,5.87,0,8.76,0,2.26-.56,4.67-1.01,7.01-.67,1.42.12,2.96.59,4.38.67,2.6,0,5.29,0,7.88,0,6.12,0,12.27,0,18.39,0,2.37.13,4.73-.79,7.01-1.34,3.12-.84,6.39-1.54,9.63-1.49,4.26-.07,8.28,1.57,12.26,2.84,2,0,4.13,0,6.13,0,3.48,0,7.03,0,10.51,0,1.58-.2,3.01-1.43,4.38-2.16,9.07-5.66,13.56-9.57,22.77-1.09"/><path class="b" d="M7.98,76.16c19.55,0,39.12,0,58.68,0,2-.03,4.13.08,6.13-.07,2.18-.87,4.68-1.23,7.01-.83,1.11.19,2.42.52,3.5.81,2,.19,4.13.04,6.13.09,4.07,0,8.19,0,12.26,0,.84.04,1.86-.45,2.63-.74,1.4-.56,2.96-1.2,4.38-1.69,1.66-.6,3.54-.87,5.25-1.26,2.58-.59,5.25-1.22,7.88-1.5,7.03-.96,13.68,1.92,20.14,4.25,2.22.85,4.65,1.05,7.01.94,2.05.11,4.19-.12,6.13-.83,3.69-1.22,7.11-3.25,10.51-5.09,2.97-1.56,6.19-3.27,9.63-3.16,3.49.35,6.31,2.94,8.76,5.24"/><path class="b" d="M7.98,71.41c14.01,0,28.03,0,42.04,0,4.95,0,9.94,0,14.89,0,2.89-.12,5.94.35,8.76-.41,2.32-.5,4.72,0,7.01.41,3.48,0,7.03,0,10.51,0,2.89,0,5.87,0,8.76,0,1.19-.43,2.43-1.3,3.5-1.94,1.96-1.22,4.01-2.59,6.13-3.51,1.34-.58,2.96-.87,4.38-1.21,4.56-1.11,9.38-1.63,14.01-.64,6,1.18,11.43,4.44,17.52,5.29,10.78,2.08,16.49-1.44,26.27-4.13,5.09-1.5,8.6.98,12.26,4.28"/><path class="b" d="M7.98,66.65c13.42,0,26.86,0,40.29,0,4.95,0,9.94,0,14.89,0,2.01,0,4.13,0,6.13,0,1.09-.19,2.39-.35,3.5-.37,2.31,0,4.68.53,7.01.37,6.7,0,13.44,0,20.14,0,1.3-.31,2.43-1.5,3.5-2.23,1.93-1.46,3.96-3.08,6.13-4.17,5.5-2.08,11.69-3.04,17.52-1.9,4.53.86,8.76,2.91,13.14,4.29,1.66.54,3.55.79,5.25,1.15,2.59.55,5.26,1.2,7.88,1.59,3.74.59,7.63.59,11.38.07,3.78-.42,7.57-1.6,11.39-1.51,2.22.26,4.31,1.47,6.13,2.7h1.75"/><path class="b" d="M7.98,61.9c17.8,0,35.62,0,53.42,0,2.92.18,5.85-.55,8.76-.51,1.72,0,3.56.26,5.25.51,2.6,0,5.28,0,7.88,0,6.12,0,12.27,0,18.39,0,2.93-1.68,5.57-4.1,8.76-5.33,6.48-2.01,13.45-3.39,20.14-1.6,3.54.83,6.99,2.24,10.51,3.17,4.75.84,9.35,2.49,14.01,3.7,9.62.16,19.28,0,28.9.06"/><path class="b" d="M7.98,57.14c7.58,0,15.19,0,22.77,0,3.77,0,7.61,0,11.39,0,1.09-.28,2.38-.54,3.5-.55,1.74-.06,3.51.69,5.25.55,5.24,0,10.52,0,15.76,0,8.16,0,16.36,0,24.52,0,2.89,0,5.87,0,8.76,0,1.1,0,2.41,0,3.5,0,.81-.31,1.86-.85,2.63-1.23,3-1.64,6.39-2.45,9.63-3.43,5.9-1.97,12.25-2.97,18.39-1.61,2.32.45,4.71,1.1,7.01,1.65,1.71.39,3.6.72,5.25,1.33,1.73.61,3.56,1.39,5.25,2.1,1.08.41,2.33,1.13,3.5,1.19,9.63,0,19.28,0,28.9,0"/><path class="b" d="M7.98,52.39c9.04,0,18.11,0,27.15,0,1.19.15,2.4-.69,3.5-1.01,1.65-.57,3.51-.92,5.25-.94,2.99-.05,5.9,1.04,8.76,1.78,3.15.41,6.46.06,9.63.17,12.84,0,25.7,0,38.53,0,1.71,0,3.55,0,5.25,0,4.16-.93,8.3-2.26,12.26-3.84,5.26-2.09,10.95-3.54,16.64-2.85,3.52.45,7.13,1.11,10.51,2.21,3.32,1.18,6.34,3.28,9.63,4.48,9.63,0,19.28,0,28.9,0"/><path class="b" d="M7.98,47.63c7,0,14.02,0,21.02,0,2.69-1.57,5.62-3.03,8.76-3.36,3.86-.46,7.73.65,11.38,1.76,2.01.65,3.94,1.89,6.13,1.6,6.99,0,14.02,0,21.02,0,.82.1,1.85-.28,2.63-.48,1.08-.27,2.39-.48,3.5-.59,3.48-.35,7.05-.05,10.51.43,2,.25,4.1.75,6.13.64,3.77,0,7.61,0,11.39,0,3.35-.39,6.51-2.34,9.63-3.55,4.14-1.81,8.58-3.3,13.14-3.38,3.83-.07,7.73.65,11.39,1.76,2.42.87,4.76,2.23,7.01,3.46,1.07.57,2.32,1.38,3.5,1.71,1.4,0,2.98,0,4.38,0,8.16,0,16.36,0,24.52,0"/><path class="b" d="M7.98,42.88c4.65-.05,9.36.1,14.01-.06,6.91-5.49,12.36-8.3,21.02-4.6,3.16,1.37,6.63,2.17,9.63,3.89,1.27.93,2.89.8,4.38.78,2.01,0,4.13,0,6.13,0,4.07,0,8.19,0,12.26,0,2.22-1.07,4.57-2.14,7.01-2.61,3.74-.83,7.69-.56,11.39.35,2.63.61,5.27,1.58,7.88,2.26,3.48,0,7.03,0,10.51,0,1.52.12,3.01-.85,4.38-1.37,1.99-.88,4.1-1.85,6.13-2.63,3.87-1.53,8.08-2.49,12.26-2.27,5.21.28,10.41,1.66,14.89,4.38,1.09.6,2.4,1.33,3.5,1.9,1.7,0,3.55,0,5.25,0,5.53,0,11.11,0,16.64,0,1.12.09,2.41-.35,3.5-.5,1.69-.24,3.56-.21,5.25,0"/><path class="b" d="M7.98,38.12c2.3,0,4.7,0,7.01,0,1.27-.06,2.46-1.11,3.5-1.75,2.04-1.43,4.08-3.09,6.13-4.5,5.87-4.19,11.07-4.56,17.52-1.41,1.7.77,3.49,1.66,5.25,2.27,2.17.56,4.24,1.72,6.13,2.9,4.45,2.8,3.56,2.55,8.76,2.49,4.07,0,8.19,0,12.26,0,8.73-4.13,14.64-4.18,23.65-.75,1.89.95,4.08.75,6.13.75,3.19,0,6.45,0,9.63,0,1.51.1,2.98-.96,4.38-1.41,2.25-.91,4.64-1.77,7.01-2.32,4.58-1.14,9.44-.92,14.01.15,2.02.48,4.2.93,6.13,1.74,1.12.47,2.43,1.13,3.5,1.7.76.19,1.85.15,2.63.14,8.75,0,17.52,0,26.27,0,2.01.03,4.11-.48,6.13-.31"/><path class="b" d="M7.98,33.37c1.75-.01,3.65.21,5.25-.64,6.45-2.16,11.09-7.72,17.52-9.89,4.69-1.67,9.61-.07,14.01,1.72,1.67.7,3.59,1.07,5.25,1.75,2.42,1.07,4.72,2.63,7.01,3.95,2.17,1.27,4.55,2.46,7.01,3.05,1.1.07,2.4.04,3.5.04,1.41,0,2.97.02,4.38-.02,2.32-.47,4.68-1.26,7.01-1.7,5.53-.94,11.25-.49,16.64,1.02.78.2,1.85.5,2.63.7,1.1,0,2.41,0,3.5,0,2.6,0,5.29,0,7.88,0,1.7,0,3.55,0,5.25,0,2.91-.71,5.78-1.95,8.76-2.46,4.02-.83,8.24-.79,12.26-.02,3.24.61,6.49,1.51,9.63,2.48,3.19,0,6.45,0,9.63,0,9.63,0,19.28,0,28.9,0"/><path class="b" d="M7.98,28.61c1.75.07,3.57-.46,5.25-.87,2.06-.56,4.25-1.19,6.13-2.23,4.83-2.63,9.35-6.3,14.89-7.31,4.42-.89,8.87.43,13.14,1.47,4.67.88,8.73,3.66,13.14,5.31,2.77,1.09,5.78,1.8,8.76,1.98,2.89.2,5.87-.05,8.76.09,4.36.48,8.78,1.03,13.14,1.56,2,0,4.13,0,6.13,0,6.12,0,12.27,0,18.39,0,4.59-1.06,9.27-2.18,14.01-2.05,2.62.04,5.32.38,7.88.91,1.72.29,3.52.97,5.25,1.14,13.71,0,27.45,0,41.16,0"/><path class="b" d="M7.98,23.48c4.73-.41,9.69-.63,14.01-2.79,4.28-2,8.48-4.43,13.14-5.45,7.01-1.5,14.28.25,21.02,2.24,3.73,1.11,7.56,2.09,11.39,2.81,4.12.81,8.4,1.39,12.26,3.13.73.45,1.8.47,2.63.44,1.1,0,2.41,0,3.5,0,3.77,0,7.61,0,11.38,0,8.46,0,16.94,0,25.4,0,2.89-.26,5.85-.75,8.76-.72,2.61-.02,5.31.2,7.88.66,1.4.12,2.98.04,4.38.06,13.42,0,26.86,0,40.29,0"/><path class="b" d="M7.98,17.56c3.48-.15,7.04.06,10.51-.22,4.22-.59,8.21-2.35,12.26-3.59,9.47-3.21,15.88-1.89,25.4-.87,5.31.58,10.72,1.22,15.76,3.04,1.45.52,3.02,1.22,4.38,1.96.78.4,1.72,1.15,2.63,1.23,5.53,0,11.11,0,16.64,0,29.48,0,58.97,0,88.45,0"/></svg>