<?xml version="1.0" encoding="UTF-8"?><svg id="a" xmlns="http://www.w3.org/2000/svg" width="1920" height="2400" viewBox="0 0 192 240"><defs><style>.b{fill:none;stroke:#fff;stroke-miterlimit:10;stroke-width:.4px;}.c{stroke-width:0px;}</style></defs><rect class="c" width="192" height="240"/><path class="b" d="M9.14,232.23c23.91,0,47.83,0,71.73,0,8.35,0,16.72,0,25.06,0,2.56,0,5.22,0,7.78,0,1.08,0,2.38,0,3.46,0,.88-.32,1.84-1.14,2.59-1.67,7.23-5.36,13.48-7.32,22.47-6.1,10.61,1.17,21.25,4.65,31.98,2.54,3.02-.64,5.86-2.15,8.64-3.43"/><path class="b" d="M9.14,227.54c33.13,0,66.26,0,99.39,0,.42,0,1.3,0,1.73,0,.86-.19,1.85-.87,2.59-1.32,1.67-1.02,3.48-2.14,5.19-3.1,4.69-2.72,10.08-4.54,15.56-4.2,6.64.53,13.15,2.05,19.88,2.15,6.65.26,13.33-.51,19.88-1.63,3.23-.5,6.38-1.7,9.51-2.61"/><path class="b" d="M9.14,222.84c11.23,0,22.48,0,33.71,0,1.21.08,2.35-.92,3.46-1.29,1.87-.82,3.99-1.41,6.05-1.29,1.76.08,3.59.62,5.19,1.34.79.35,1.79.94,2.59,1.25.45,0,1.29,0,1.73,0,9.79,0,19.6,0,29.38,0,4.3,0,8.66,0,12.96,0,1.81-.75,3.43-2.22,5.19-3.1,4.39-2.25,8.99-4.35,13.83-5.43,3.38-.74,6.94-.83,10.37-.44,3.75.4,7.48,1.35,11.24,1.7,4.02.36,8.14.05,12.1-.69,8.61-1.71,17.04-4.82,25.93-4.75"/><path class="b" d="M9.14,218.15c8.35,0,16.72,0,25.06,0,1.68,0,3.5,0,5.19,0,.95.11,1.84-.77,2.59-1.22,8.04-5.68,14.11-5.06,21.61,1.14,12.66.24,25.36,0,38.03.09,2.12-1.02,3.92-2.93,6.05-4.01,2.89-1.7,6.3-2.38,9.51-3.24,5.06-1.25,10.34-1.81,15.56-1.52,4.34.15,8.64,1.12,12.96,1.39,6.23.28,12.32-1.6,18.15-3.59,6.63-2.29,11.97-3.98,19.01-2.02"/><path class="b" d="M9.14,213.46c8.06,0,16.14,0,24.2,0,1.98,0,4.07,0,6.05,0,.81-.42,1.83-1.14,2.59-1.64,9.19-6.45,16.64-5.35,25.06,1.64,10.94,0,21.9,0,32.84,0,1.32.22,2.45-.77,3.46-1.46,1.05-.7,2.33-1.47,3.46-2.03,3.17-1.7,6.9-1.7,10.37-2.3,6.58-.93,13.21-2.08,19.88-2.09,4.61,0,9.21,1.11,13.83.57,6.53-.51,12.71-2.95,19.01-4.51,4.82-1.34,8.35-.79,12.96,1.01"/><path class="b" d="M9.14,208.77c8.35,0,16.72,0,25.06,0,1.98-.04,4.08.09,6.05-.08.78-.44,1.82-1.06,2.59-1.5,2.65-1.64,5.6-2.82,8.64-3.45,4.27-1.18,8.96-1.12,12.96.9,9.41,5.01,3.04,4.09,14.69,4.13,7.19,0,14.42,0,21.61,0,1.2.16,2.39-.75,3.46-1.17,1.34-.59,2.89-1.16,4.32-1.47,1.66-.39,3.5-.28,5.19-.34,2.58-.09,5.23-.38,7.78-.79,5.77-.89,11.44-2.71,17.29-3.05,2.58-.16,5.22.35,7.78.56,4.88.46,9.85.29,14.69-.44,4.59-.59,9.18-1.83,13.83-1.86,2.66.17,5.28,1.16,7.78,2.03"/><path class="b" d="M9.14,204.07c8.06,0,16.14,0,24.2,0,1.68,0,3.5,0,5.19,0,1.45-.41,2.95-1.21,4.32-1.82,4.06-2.05,8.58-3.04,12.96-4.11,7.36-1.7,13.22,1.89,19.01,5.93,8.92,0,17.87,0,26.79,0,2.33.07,4.58-1.13,6.91-1.23,2.27-.23,4.64.19,6.91.1,8.24.08,16.04-3.29,24.2-3.78,2.88-.09,5.8.54,8.64.91,3.99.6,8.06,1.06,12.1,1.14,4.88.17,9.81-.42,14.69-.23,2.61.26,5.22,1.08,7.78,1.65"/><path class="b" d="M9.14,197.11c3.4-.61,6.91-1.25,10.37-1.31,3.19.12,6.35.97,9.51,1.36,3.43.47,6.98.35,10.37-.34,2.29-.44,4.63-1.1,6.91-1.56,1.97-.38,4.09-.48,6.05-.9,3.95-.79,8.06-1.57,12.1-.95,5.29.73,9.95,3.59,14.69,5.84,5.72.33,11.54.02,17.29.13,3.48.22,6.9-.99,10.37-1.05,3.75-.19,7.49.81,11.24.74,6.99.19,13.81-1.83,20.74-2.27,3.5-.21,7.01.59,10.37,1.47,1.68.35,3.45,1.16,5.19,1.11,9.5,0,19.02,0,28.52,0"/><path class="b" d="M9.14,188.32c11.08-3.05,14.42-1.19,25.06.08,5.74.57,11.56.52,17.29,1.2,4.59.2,9.24-.21,13.83.07,4.7.25,9.38,1.25,13.83,2.74,6.67,2.54,13.86.53,20.74.36,2.86-.11,5.81.03,8.64.47,2.86.42,5.74,1.3,8.64,1.43,4.01-.02,8.09.04,12.1-.02,3.43-.34,6.92-.88,10.37-.88,2,0,4.12.27,6.05.84,1.68.13,3.5.04,5.19.06,10.65,0,21.33,0,31.98,0"/><path class="b" d="M9.14,180.99c5.75-2.33,12.03-2.63,18.15-2.24,8.32.45,16.47,2.54,24.2,5.6,4.43,1.56,9.13,2.44,13.83,2.52,5.17.13,10.46-.55,15.56.6,6.33.73,12.66-1.47,19.01-.79,3.21.24,6.42,1,9.51,1.88,2.52.69,5.12,1.64,7.78,1.43,7.48-.02,15,.14,22.47-.29,5.44.46,10.96.25,16.42.29,8.92,0,17.87,0,26.79,0"/><path class="b" d="M9.14,175.46c1.93-.84,3.99-1.67,6.05-2.13,1.66-.37,3.5-.34,5.19-.57,3.71-.46,7.48-1.14,11.24-1.05,7.65,0,14.52,3.84,20.74,7.92,8.53,5.53,13.52,6.07,23.34,4.2,3.13-.52,6.41.09,9.51-.73,7.04-1.71,12.75-2.94,19.88-.51,2.58.8,5.18,1.89,7.78,2.64,3.71.2,7.51.02,11.24.08,2.85-.02,5.79.05,8.64-.03,2.82-.47,5.78-.92,8.64-.64,1.41.07,2.9.76,4.32.67,4.01,0,8.09,0,12.1,0,8.35,0,16.72,0,25.06,0"/><path class="b" d="M9.14,171.48c2.19-.92,4.54-1.83,6.91-2.11,2.91,0,5.84-.4,8.64-1.19,12.5-3.7,19.07-.1,28.52,7.89,1.35,1.11,2.88,2.33,4.32,3.32,1.08.8,2.06,1.39,3.46,1.21,5.46,0,10.96,0,16.42,0,1.68-.05,3.52.12,5.19-.11,1.41-.35,2.95-.88,4.32-1.37,5.21-2.04,10.95-3.24,16.42-1.47,2.63.75,5.22,1.92,7.78,2.87,4.29.2,8.66.02,12.96.08,1.97-.09,4.11.21,6.05-.18,5.04-1.38,10.6-2.74,15.56-.34,1.54.84,3.5.43,5.19.52,2.85,0,5.79,0,8.64,0,7.77,0,15.57,0,23.34,0"/><path class="b" d="M9.14,168.29c2.23-.59,4.59-1.19,6.91-1.24,2.29.15,4.67.13,6.91-.45,3.42-.77,6.85-1.89,10.37-2.07,7.73-.56,14.31,4.38,19.88,9.15,1.07.72,2.1,2.17,3.46,2.24,2.27,0,4.64,0,6.91,0,5.17,0,10.39,0,15.56,0,1.68,0,3.5,0,5.19,0,.44,0,1.29,0,1.73,0,.82-.15,1.83-.64,2.59-.96,8.12-3.62,13.63-2.71,21.61.55,1.01.5,2.36.41,3.46.41,1.68,0,3.5,0,5.19,0,1.68,0,3.5,0,5.19,0,1.12.08,2.4-.08,3.46-.47,6.87-2.03,12.24-4.13,19.01-.26.96.68,2.32.81,3.46.72,1.68,0,3.5,0,5.19,0,9.21,0,18.45,0,27.66,0"/><path class="b" d="M9.14,165c1.98-.25,4.06-.58,6.05-.7,1.98-.09,4.09.11,6.05-.3,7.17-1.52,12.88-3.19,19.88.28,2.72,1.29,5.3,3.04,7.78,4.72,1.1.69,2.23,1.77,3.46,2.23.45,0,1.28,0,1.73,0,10.36,0,20.75,0,31.11,0,.43,0,1.3,0,1.73,0,1.14-.29,2.37-1,3.46-1.44,1.92-.84,4-1.61,6.05-2.06,3.39-.78,7-.62,10.37.17,3.13.71,6.25,1.96,9.51,1.91,7.03.13,13.7-3.22,20.74-2.87,2.4.12,4.83.9,6.91,2.09.78.43,1.84,1.07,2.59,1.55,0,0,.86.55.86.55l.86.1c11.52,0,23.05,0,34.57,0"/><path class="b" d="M9.14,160.88c2.29-.17,4.64-.61,6.91-.91,2.61-.2,5.24-.79,7.78-1.39,5.85-1.51,11.33-.65,16.42,2.6,1.74,1.05,3.52,2.31,5.19,3.47,1.3.85,2.64,2.16,4.32,1.89,11.23,0,22.48,0,33.71,0,.77,0,1.83.03,2.59-.1,1.69-.78,3.5-1.68,5.19-2.48,3.8-1.8,7.87-3.34,12.1-3.68,3.17-.33,6.38.25,9.51.71,1.98.18,4.08.03,6.05-.21,11.52-1.85,18.27-2.46,27.66,5.72,12.09.1,24.21,0,36.3.03"/><path class="b" d="M9.14,155.75c5.6-.86,10.88-3.27,16.42-4.36,3.56-.64,7.28.22,10.37,2.04,4.05,2.3,7.39,5.72,11.24,8.3,7.75.31,15.57.02,23.34.12,3.72,0,7.51,0,11.24,0,4.55-1.28,8.72-3.72,12.96-5.74,4.34-2.1,8.96-4.02,13.83-4.27,2.86-.02,5.8.27,8.64-.24,13.07-2.33,19.31,1.33,28.52,10.25h37.16"/><path class="b" d="M9.14,150.02c9.49-2.88,16.97-11.04,26.79-4.04,3.71,2.52,6.77,5.96,10.37,8.62,1.52,1.13,3.41,1.91,5.19,2.54,1.68.01,3.5,0,5.19,0,3.72,0,7.51,0,11.24,0,1.68,0,3.5,0,5.19,0,1.39-.32,2.93-.74,4.32-1.06,1.67-.4,3.53-.63,5.19-1.09,2.67-.73,5.3-1.86,7.78-3.08,6.2-2.95,12.09-7.2,19.01-8.21,1.38-.16,2.94-.08,4.32-.26,2.56-.29,5.19-.84,7.78-.93,10.04-.57,17.13,7.9,23.34,14.62h38.03"/><path class="b" d="M9.14,144.69c5.27-2.62,10.03-6.38,15.56-8.49,4.56-1.78,9.3-.1,12.96,2.82,3.25,2.42,6.08,5.54,9.51,7.73,6.87,3.47,14.82,4.85,22.47,4.12,4.61-.52,9.3-1.11,13.83-2.12,4.25-1.12,8.25-3.13,12.1-5.2,4.17-2.2,8.33-4.75,12.96-5.83,1.95-.44,4.09-.34,6.05-.71,2.83-.45,5.77-1,8.64-.72,9.23,1.05,15.06,9.48,20.74,15.95,1.63.44,3.51.13,5.19.22,2.85,0,5.79,0,8.64,0,8.35,0,16.72,0,25.06,0"/><path class="b" d="M9.14,140.18c3.73-2.48,7.34-5.27,11.24-7.5,4.45-2.91,9.57-4.87,14.69-2.39,4.46,1.99,7.9,5.72,12.1,8.13,7.59,3.31,15.88,5.44,24.2,5.39,4.03-.07,8.14-.33,12.1-1.11,3.25-.69,6.45-1.85,9.51-3.13,4.84-1.99,9.56-4.54,14.69-5.69,1.95-.47,4.07-.37,6.05-.59,3.13-.37,6.35-.99,9.51-.62,8.76,1.05,14.5,8.75,19.88,14.97,4.57.33,9.24.03,13.83.13,8.63,0,17.29,0,25.93,0"/><path class="b" d="M9.14,135.43c3.36-2.65,6.65-5.55,10.37-7.7,3.12-1.97,6.59-3.91,10.37-3.98,5.24-.11,9.62,3.29,13.83,5.98,3.05,2.19,6.76,3.08,10.37,3.88,5.1,1.17,10.33,1.95,15.56,2.25,7.23.42,14.57.13,21.61-1.7,5.44-1.28,10.84-3.06,16.42-3.59,1.97-.22,4.07-.03,6.05-.11,3.14-.15,6.38-.5,9.51-.02,7.6,1.09,13.27,6.94,18.15,12.42,1.64.42,3.51.12,5.19.2,3.14,0,6.36,0,9.51,0,8.92,0,17.87,0,26.79,0"/><path class="b" d="M9.14,130.2c7.93-6.71,16.76-14.98,27.66-9.31,4.3,1.95,8.16,5.29,12.96,5.9,4.85.72,9.8.86,14.69,1.12,4.59.21,9.23.53,13.83.76,7.21.44,14.42-.62,21.61-.95,5.23-.38,10.36.27,15.56.53,11.16.02,16.05,2.94,24.2,10.12h43.21"/><path class="b" d="M9.14,124.46c6.44-5.08,13.5-12.25,22.47-9.7,4,1.02,7.56,3.29,11.24,5.08,3.65,1.99,7.19,2.14,11.24,1.9,4.3-.21,8.66-.56,12.96-.4,5.79.12,11.51,1.38,17.29,1.72,4.88.27,9.82.31,14.69.8,4.63.41,9.25,1.3,13.83,2.07,10.03,1.12,15.64,1.75,24.2,7.77h45.81"/><path class="b" d="M9.14,118.4c9.36-6.37,13.83-12.76,25.93-7.08,3.45,1.55,6.74,3.65,10.37,4.77,3.64,1.08,7.53.18,11.24-.1,4.29-.46,8.69-.59,12.96.04,4.65.6,9.18,2.1,13.83,2.7,4.29.54,8.68.75,12.96,1.34,4.36.57,8.7,1.56,12.96,2.59,4.81,1.25,9.84,1.68,14.69,2.71,3.59.71,7.07,2.06,10.37,3.61,16.13,0,32.27,0,48.4,0"/><path class="b" d="M9.14,112.43c3.95-2.12,7.32-5.27,11.24-7.43,7.81-4.13,15.32.87,22.47,3.91,1.62.64,3.44,1.19,5.19,1.29,1.69.03,3.5-.11,5.19-.17,3.44-.16,6.97-.13,10.37.44,5.36.82,10.4,3.01,15.56,4.6,2.78.85,5.75,1.23,8.64,1.48,4.6.37,9.27.65,13.83,1.45,4.35.68,8.63,2,12.96,2.75,4,.65,8.12.93,12.1,1.72,1.4.28,2.96.67,4.32,1.1,1.05.37,2.31.87,3.46.74,16.13,0,32.27,0,48.4,0"/><path class="b" d="M9.14,107.32c7.46-3.17,11.77-9.74,20.74-8.61,5.77.62,10.79,4.02,16.42,5.19,2.54.44,5.23.11,7.78.47,5.83.55,11.31,2.95,16.42,5.7,11.6,6.73,16.52,6.09,29.39,6.44,6.67.11,13.24,1.48,19.88,1.97,1.69.17,3.51.39,5.19.67,1.37.28,2.91.56,4.32.46,17.86,0,35.73,0,53.58,0"/><path class="b" d="M9.14,103.01c6.75-2.18,11.54-7.96,19.01-8.15,7.57-.53,14.14,4.57,21.61,4.64,14.83.63,25.04,16.32,34.57,15.41,14.11,0,28.24,0,42.35,0,18.72,0,37.46,0,56.18,0"/><path class="b" d="M9.14,99.14c3.68-1.08,6.98-3.2,10.37-4.92,6.57-3.4,13.06-3.09,19.88-.65,2.25.74,4.59,1.59,6.91,2.09,1.96.42,4.1.38,6.05.88,8.73,2.09,15.27,8.73,22.47,13.67,36.01.04,72.02,0,108.03.01"/><path class="b" d="M9.14,95.23c12.58-5.16,16.97-9.43,31.11-4.13,2.24.79,4.58,1.68,6.91,2.16,1.68.3,3.53.42,5.19.88,5.06,1.29,9.61,4.13,13.83,7.13,2,1.36,3.96,3.05,6.05,4.26,1.68,0,3.5,0,5.19,0,5.46,0,10.96,0,16.42,0,29.67,0,59.35,0,89.02,0"/><path class="b" d="M9.14,90.75c5.72-2.67,11.7-5.43,18.15-5.35,5.16,0,10.01,2.07,14.69,4.03,1.65.67,3.45,1.36,5.19,1.77,1.68.36,3.52.52,5.19.95,3.95.95,7.72,2.69,11.24,4.7,2.02,1.15,4.09,2.46,6.05,3.71,1.03.46,2.36.23,3.46.28,6.33,0,12.69,0,19.01,0,30.25,0,60.5,0,90.75,0"/><path class="b" d="M9.14,84.98c8.97-4.53,17.64-5.13,26.79-.68,3.44,1.57,6.77,3.58,10.37,4.79,2.22.71,4.67.85,6.91,1.48,4.5,1.13,8.83,3.04,12.96,5.12.71.53,1.76.46,2.59.44,1.39,0,2.93,0,4.32,0,4.3,0,8.66,0,12.96,0,32.26,0,64.53,0,96.8,0"/><path class="b" d="M9.14,77.64c5.3-2.21,9.15-2.35,14.69-1.08,6.39,1.45,11.83,5.32,17.29,8.75,1.9,1.17,3.95,2.35,6.05,3.1,3.43.96,6.98,1.77,10.37,2.89,4.28.36,8.67.03,12.96.14,37.45,0,74.9,0,112.35,0"/><path class="b" d="M9.14,69.97c3.94-1.03,7.52-.61,11.24.94,6.72,2.41,12.53,6.72,18.15,11.01,2.2,1.65,4.51,3.36,6.91,4.72,4.28.29,8.67.03,12.96.11,41.48,0,82.97,0,124.45,0"/><path class="b" d="M9.14,62.98c5.53-.17,10.17,3.24,14.69,5.97,3.88,2.45,7.63,5.24,11.24,8.08,1.39,1.09,2.93,2.31,4.32,3.39.76.55,1.66,1.42,2.59,1.65,15.55,0,31.12,0,46.67,0,12.38,0,24.78,0,37.16,0,3.14-.19,6.34-.8,9.51-.64,4.03,0,8.07.77,12.1.64,11.8,0,23.63,0,35.43,0"/><path class="b" d="M9.14,57.22c4.27,1.03,7.77,3.88,11.24,6.43,3.99,2.86,8.11,5.66,12.1,8.53,1.39.99,2.93,2.11,4.32,3.11,1.08.67,2.16,1.89,3.46,2.08,2.85,0,5.79,0,8.64,0,14.69,0,29.39,0,44.08,0,7.19,0,14.42.02,21.61,0,2.8-.86,5.74-1.53,8.64-1.91,6.6-.9,13.3-.22,19.88.47,1.46.21,2.98.86,4.32,1.45.76,0,1.83,0,2.59,0,10.94,0,21.9,0,32.84,0"/><path class="b" d="M9.14,52.84c4.89,2.07,8.61,6.08,12.96,9,5.27,3.59,10.95,6.61,16.42,9.88.45.26,1.26.75,1.73.96.45,0,1.28,0,1.73,0,1.39,0,2.93,0,4.32,0,4.59,0,9.24,0,13.83,0,8.63,0,17.29,0,25.93,0,1.2.16,2.36-.81,3.46-1.16,1.9-.76,4.02-1.28,6.05-1.52,4.28-.55,8.69.04,12.96-.64,2.32-.39,4.59-1.44,6.91-1.83,4.83-.95,9.86-.6,14.69.19,2.86.46,5.79,1.07,8.64,1.57,1.97.4,4.13.48,6.05,1.09,1.13.37,2.42.97,3.46,1.56.65.5,1.76.86,2.59.75,10.65,0,21.33,0,31.98,0"/><path class="b" d="M9.14,49.32c5.35,2.56,9.4,7.21,14.69,9.86,4.14,2.22,8.62,3.83,12.96,5.6,1.4.57,2.95,1.22,4.32,1.84,1.09.43,2.27,1.25,3.46,1.37,13.82-.09,27.68.18,41.48-.1,6.07-4.9,13.18-7.62,20.74-9.25,3.69-.89,7.36-2.48,11.24-2.1,6.37.42,12.21,3.36,18.15,5.43,3.93,1.55,8.32,1.73,12.1,3.68,1.43.67,2.93,1.59,4.32,2.33,3.14,0,6.36,0,9.51,0,6.9,0,13.84,0,20.74,0"/><path class="b" d="M9.14,45.64c4.38,2.19,7.87,5.84,12.1,8.26,7.12,4.23,15.65,4.46,23.34,7.08,1.75.6,3.55,1.46,5.19,2.32,3.72,0,7.51,0,11.24,0,8.06,0,16.14,0,24.2,0,8.07-6.41,17.81-17.32,28.52-18.41,5.48-.02,10.24,3.34,14.69,6.17,3.6,2.35,7.23,4.87,11.24,6.5,3.37,1.25,7.03,1.8,10.37,3.15,2.02.74,4.11,1.66,6.05,2.59,2.56,0,5.22,0,7.78,0,6.33,0,12.69,0,19.01,0"/><path class="b" d="M9.14,41.37c3.41,1.74,6.36,4.37,9.51,6.51,7.17,4.99,14.13,5.25,22.47,5.74,2.01.18,4.13.53,6.05,1.18,2.69.97,5.25,2.47,7.78,3.77,4.88.1,9.81,0,14.69.04,4.59,0,9.24,0,13.83,0,.98.03,1.86-.92,2.59-1.45,1.13-.91,2.41-2.05,3.46-3.05,3.59-3.42,6.91-7.24,10.37-10.78,4.25-4.23,9.9-10.01,16.42-7.34,5.98,2.42,10.52,7.32,15.56,11.18,5.33,4.32,9.56,6.49,16.42,7.44,2.9.51,5.87,1.17,8.64,2.19.77.28,1.84.71,2.59,1.04.73.33,1.75.92,2.59.77,6.9,0,13.84,0,20.74,0"/><path class="b" d="M9.14,36.46c3.71,1.81,6.84,4.7,10.37,6.82,3.9,2.44,8.35,4.19,12.96,4.51,4.01.35,8.09-.29,12.1.02,2.07.12,4.12.87,6.05,1.56,5.89,1.85,12.06,2.83,18.15,3.74,7.31.97,13.83,1.58,19.88-3.44,4.21-3.29,7.68-7.5,11.24-11.46,3.67-3.77,7.88-9.63,13.83-8.47,4.68,1.08,8.43,4.47,12.1,7.38,5.5,4.46,11.1,9.5,18.15,11.22,2.53.52,5.22.5,7.78.75,4.65.34,9.11,2.15,12.96,4.74,6.03.21,12.12.01,18.15.08"/><path class="b" d="M9.14,31.25c3.99,1.82,7.37,4.83,11.24,6.9,8.22,4.87,13.4,4.55,22.47,3.66,1.39-.07,2.95-.04,4.32.2,1.68.38,3.45,1.02,5.19,1.12,4.3.33,8.67-.29,12.96.09,4.4.29,8.69,1.58,12.96,2.58,3.75,1.01,7.86.59,11.24-1.37,5.02-2.82,8.85-7.34,12.96-11.27,3.8-3.63,7.43-6.79,12.96-4.68,7.4,2.8,13.45,8.33,20.74,11.4,3.29,1.37,6.74,2.96,10.37,2.97,8.75-.34,12.96.43,19.88,6.24,5.43.35,10.97.03,16.42.13"/><path class="b" d="M9.14,26.46c2.76,1.08,5.23,2.91,7.78,4.38,8.35,4.79,13.7,6.52,23.34,4.85,3.15-.49,6.46-.63,9.51.44,2.53.56,5.22.3,7.78.05,5.52-.73,11.21-.35,16.42,1.7,2.84,1,5.69,2.31,8.64,2.95,6.83,1.7,13.09-2.47,18.15-6.59,2.68-2.05,5.39-4.41,8.64-5.48,4.38-1.05,8.85.94,12.96,2.28,3.67,1.33,7.44,2.62,11.24,3.55,2.26.57,4.65,1.07,6.91,1.6,1.94.52,4.02,1.02,6.05.87,10.14-1.05,14.05.55,21.61,7.41,4.88.1,9.81,0,14.69.04"/><path class="b" d="M9.14,22.16c3.01.8,5.77,2.45,8.64,3.6,8.81,3.78,14.13,3.5,23.34,2.26,2.27-.21,4.7-.24,6.91.42,2.46.95,5.16,1.32,7.78,1.43,11.52.2,15.14,2.83,25.06,7.34,11.91,5.32,16.73-.17,26.79-5.21,2.4-1.14,5.18-1.13,7.78-.95,3.15.22,6.36.68,9.51.9,4.59.38,9.24.11,13.83.18,1.99-.02,4.06.47,6.05.39,2-.11,4.07-.56,6.05-.84,3.8-.62,7.83-.11,11.24,1.75,3.1,1.62,5.88,3.95,8.64,6.07,1.28.63,2.94.24,4.32.34,2.56,0,5.22,0,7.78,0"/><path class="b" d="M9.14,18.33c4.97.26,9.72,2.24,14.69,2.5,5.75.53,11.53-.44,17.29-.26,2.01.08,4.14.4,6.05,1.05,2.25.9,4.56,1.91,6.91,2.5,4.07,1.09,8.24,2.1,12.1,3.81,4.21,1.8,8.14,4.29,12.1,6.57.69.5,1.75.74,2.59.65,1.08,0,2.37,0,3.46,0,3.43,0,6.94,0,10.37,0,4.01,0,8.09,0,12.1,0,1.7-.44,3.41-1.33,5.19-1.46,4.86-.6,9.84-.43,14.69-1.17,5.22-.66,10.31-2.38,15.56-2.78,4.98-.28,9.64-2.92,14.69-2.61,5.79.18,10.6,3.82,15.56,6.37,1.35.6,2.86,1.4,4.32,1.66,1.97,0,4.07,0,6.05,0"/><path class="b" d="M9.14,15.02c4.53-1.2,9.23-.43,13.83-.8,8.8-.87,17.02-1.54,25.06,2.95,3.87,2.22,8.07,3.91,12.1,5.8,3.85,1.79,7.64,3.87,11.24,6.14.76.45,1.69,1.21,2.59,1.34,1.39,0,2.93,0,4.32,0,2.85,0,5.79,0,8.64,0,10.94,0,21.9,0,32.84,0,4.88,0,9.81,0,14.69,0,.81.07,1.84-.35,2.59-.6,1.38-.46,2.93-.98,4.32-1.41,3.82-.98,7.42-2.83,11.24-3.8,6.44-1.83,12.2.53,18.15,2.76,3.89,1.22,8.06,1.72,12.1,2.2"/><path class="b" d="M9.14,11.98c1.92-.88,3.99-1.75,6.05-2.24,1.37-.34,2.93-.37,4.32-.56,2.86-.4,5.76-1.08,8.64-1.31,6.9-.8,13.44,2.21,19.01,6.02,3.31,2.25,6.84,4.29,10.37,6.17,3.45,1.85,6.99,3.7,10.37,5.67,7.19.1,14.42,0,21.61.04,16.99,0,34,0,50.99,0,1.38-.03,2.95.08,4.32-.09,1.06-.54,2.36-1.17,3.46-1.64,2.97-1.3,6.25-2.17,9.51-2.13,4.42-.01,8.66,1.62,12.96,2.38,3.99.54,8.1-.08,12.1-.24"/></svg>