<?xml version="1.0" encoding="UTF-8"?><svg id="a" xmlns="http://www.w3.org/2000/svg" width="1920" height="2400" viewBox="0 0 192 240"><defs><style>.b{fill:none;stroke:#fff;stroke-miterlimit:10;stroke-width:.4px;}.c{stroke-width:0px;}</style></defs><rect class="c" x="0" width="192" height="240"/><path class="b" d="M9.37,231.94c23.85,0,47.7,0,71.55,0,8.32,0,16.68,0,25,0,2.56,0,5.2,0,7.76,0,1.08,0,2.37,0,3.45,0,.87-.31,1.84-1.14,2.59-1.67,7.21-5.35,13.44-7.3,22.41-6.08,10.58,1.16,21.19,4.64,31.89,2.53,3.01-.64,5.84-2.14,8.62-3.42"/><path class="b" d="M9.37,227.26c33.04,0,66.09,0,99.13,0,.42,0,1.3,0,1.72,0,.86-.19,1.84-.87,2.59-1.31,1.67-1.02,3.47-2.14,5.17-3.1,4.68-2.71,10.05-4.53,15.52-4.19,6.62.52,13.12,2.04,19.83,2.14,6.64.26,13.29-.51,19.83-1.63,3.22-.5,6.36-1.7,9.48-2.6"/><path class="b" d="M9.37,222.58c11.2,0,22.42,0,33.62,0,1.2.08,2.35-.91,3.45-1.29,1.87-.81,3.98-1.4,6.03-1.29,1.75.08,3.58.61,5.17,1.33.79.35,1.78.94,2.59,1.25.44,0,1.28,0,1.72,0,9.76,0,19.55,0,29.31,0,4.29,0,8.64,0,12.93,0,1.81-.75,3.42-2.22,5.17-3.09,4.38-2.25,8.97-4.34,13.79-5.42,3.37-.74,6.92-.83,10.34-.43,3.74.4,7.46,1.35,11.21,1.69,4.01.36,8.12.04,12.07-.69,8.59-1.7,17-4.81,25.86-4.74"/><path class="b" d="M9.37,217.9c8.32,0,16.68,0,25,0,1.68,0,3.49,0,5.17,0,.94.11,1.84-.77,2.59-1.22,8.02-5.67,14.08-5.05,21.55,1.13,12.63.24,25.29,0,37.93.09,2.11-1.02,3.91-2.92,6.03-4,2.89-1.69,6.28-2.38,9.48-3.23,5.05-1.24,10.32-1.81,15.52-1.51,4.32.15,8.62,1.12,12.93,1.39,6.22.28,12.29-1.59,18.1-3.58,6.61-2.28,11.94-3.97,18.96-2.01"/><path class="b" d="M9.37,213.22c8.04,0,16.1,0,24.14,0,1.38,0,2.93,0,4.31,0,.43,0,1.3,0,1.72,0,.45-.23,1.31-.77,1.72-1.06,9.51-6.85,16.91-6.35,25.86,1.06,10.91,0,21.84,0,32.76,0,1.32.22,2.45-.77,3.45-1.46,1.05-.7,2.32-1.47,3.45-2.03,3.16-1.69,6.88-1.69,10.34-2.29,6.57-.93,13.18-2.07,19.83-2.08,4.59,0,9.19,1.11,13.79.57,6.51-.51,12.67-2.94,18.96-4.5,4.81-1.34,8.33-.79,12.93,1.01"/><path class="b" d="M9.37,208.54c8.32,0,16.68,0,25,0,1.97-.04,4.07.09,6.03-.08.78-.44,1.81-1.05,2.59-1.5,2.64-1.63,5.58-2.81,8.62-3.44,4.25-1.17,8.93-1.11,12.93.89,9.39,4.99,3.03,4.08,14.65,4.12,7.17,0,14.38,0,21.55,0,1.2.16,2.38-.75,3.45-1.17,1.34-.59,2.88-1.15,4.31-1.46,1.65-.38,3.49-.28,5.17-.34,2.57-.09,5.22-.38,7.76-.79,5.75-.89,11.41-2.71,17.24-3.05,2.57-.16,5.2.35,7.76.55,4.87.46,9.82.29,14.65-.43,4.58-.59,9.16-1.83,13.79-1.86,2.66.17,5.27,1.16,7.76,2.02"/><path class="b" d="M9.37,203.86c8.04,0,16.1,0,24.14,0,1.68,0,3.49,0,5.17,0,1.45-.41,2.94-1.21,4.31-1.82,4.05-2.04,8.55-3.03,12.93-4.1,7.34-1.7,13.18,1.89,18.96,5.92,8.9,0,17.82,0,26.72,0,2.32.07,4.57-1.13,6.9-1.23,2.26-.23,4.63.19,6.9.1,8.22.08,15.99-3.28,24.14-3.77,2.87-.09,5.79.53,8.62.91,3.98.59,8.04,1.06,12.07,1.13,4.87.17,9.79-.42,14.65-.23,2.61.26,5.21,1.08,7.76,1.64"/><path class="b" d="M9.37,196.91c3.39-.61,6.89-1.24,10.34-1.31,3.18.12,6.34.96,9.48,1.36,3.42.47,6.96.34,10.34-.34,2.28-.44,4.62-1.1,6.9-1.55,1.96-.38,4.08-.48,6.03-.9,3.94-.79,8.04-1.57,12.07-.94,5.28.73,9.92,3.58,14.65,5.83,5.71.33,11.51.02,17.24.13,3.47.22,6.88-.99,10.34-1.05,3.74-.19,7.47.81,11.21.74,6.97.19,13.77-1.83,20.69-2.26,3.49-.21,6.99.59,10.34,1.47,1.67.35,3.44,1.16,5.17,1.11,9.47,0,18.97,0,28.45,0"/><path class="b" d="M9.37,188.15c11.05-3.04,14.38-1.19,25,.08,5.72.56,11.53.52,17.24,1.2,4.58.2,9.21-.21,13.79.07,4.68.25,9.35,1.25,13.79,2.74,6.65,2.54,13.82.52,20.69.36,2.85-.11,5.8.03,8.62.47,2.85.42,5.73,1.3,8.62,1.42,4-.02,8.07.04,12.07-.02,3.42-.34,6.9-.88,10.34-.88,2,0,4.11.27,6.03.84,1.67.13,3.5.04,5.17.06,10.62,0,21.27,0,31.89,0"/><path class="b" d="M9.37,180.83c5.73-2.33,11.99-2.63,18.1-2.23,8.3.45,16.43,2.53,24.14,5.58,4.42,1.55,9.11,2.44,13.79,2.51,5.16.13,10.43-.55,15.52.6,6.32.73,12.63-1.47,18.96-.79,3.2.24,6.4,1,9.48,1.88,2.52.69,5.11,1.63,7.76,1.43,7.46-.02,14.96.14,22.41-.29,5.43.46,10.93.25,16.38.29,8.9,0,17.82,0,26.72,0"/><path class="b" d="M9.37,175.31c1.92-.84,3.98-1.67,6.03-2.12,1.66-.37,3.49-.34,5.17-.57,3.42-.42,6.89-1.04,10.34-1.06,7.93-.25,15.12,3.66,21.55,7.9,8.51,5.51,13.49,6.05,23.27,4.19,3.12-.52,6.39.09,9.48-.73,7.03-1.71,12.72-2.93,19.83-.5,2.58.8,5.16,1.88,7.76,2.63,3.71.2,7.49.02,11.21.08,2.85-.02,5.78.05,8.62-.03,2.82-.47,5.76-.91,8.62-.64,1.41.07,2.9.75,4.31.67,4,0,8.07,0,12.07,0,8.32,0,16.68,0,25,0"/><path class="b" d="M9.37,171.35c2.19-.92,4.52-1.83,6.9-2.1,2.9,0,5.83-.4,8.62-1.18,12.47-3.69,19.03-.1,28.45,7.87,1.35,1.11,2.87,2.32,4.31,3.31,1.08.79,2.06,1.38,3.45,1.21,5.45,0,10.93,0,16.38,0,1.68-.05,3.51.12,5.17-.11,1.41-.35,2.94-.88,4.31-1.37,5.2-2.04,10.92-3.23,16.38-1.46,2.62.75,5.2,1.91,7.76,2.86,4.28.2,8.64.02,12.93.08,1.97-.09,4.1.21,6.03-.18,5.03-1.37,10.57-2.74,15.52-.34,1.54.84,3.49.42,5.17.52,2.85,0,5.77,0,8.62,0,7.75,0,15.53,0,23.27,0"/><path class="b" d="M9.37,168.16c2.23-.59,4.58-1.18,6.9-1.23,2.28.15,4.66.13,6.9-.45,3.41-.77,6.83-1.88,10.34-2.07,7.71-.56,14.27,4.37,19.83,9.13,1.06.72,2.09,2.16,3.45,2.23,2.27,0,4.63,0,6.9,0,5.16,0,10.36,0,15.52,0,1.68,0,3.49,0,5.17,0,.43,0,1.29,0,1.72,0,.81-.15,1.83-.64,2.59-.96,8.1-3.61,13.59-2.7,21.55.55,1.01.5,2.35.41,3.45.41,1.68,0,3.49,0,5.17,0,1.68,0,3.49,0,5.17,0,1.11.08,2.4-.08,3.45-.46,6.86-2.02,12.21-4.12,18.96-.25.96.67,2.31.81,3.45.72,1.68,0,3.5,0,5.17,0,9.19,0,18.4,0,27.58,0"/><path class="b" d="M9.37,164.88c1.97-.24,4.05-.57,6.03-.7,1.98-.09,4.08.1,6.03-.3,7.15-1.51,12.84-3.18,19.83.28,2.71,1.28,5.28,3.03,7.76,4.71,1.09.69,2.23,1.77,3.45,2.23.45,0,1.28,0,1.72,0,10.34,0,20.7,0,31.03,0,.43,0,1.29,0,1.72,0,1.14-.29,2.36-1,3.45-1.44,1.91-.84,3.99-1.6,6.03-2.06,3.38-.78,6.98-.61,10.34.17,3.12.71,6.23,1.96,9.48,1.91,7.01.13,13.67-3.21,20.69-2.86,2.4.12,4.82.9,6.9,2.09.77.43,1.84,1.07,2.59,1.54,0,0,.86.55.86.55l.86.1c11.49,0,22.99,0,34.48,0"/><path class="b" d="M9.37,160.77c2.28-.17,4.63-.61,6.9-.91,2.6-.2,5.23-.78,7.76-1.39,5.84-1.5,11.3-.64,16.38,2.6,1.73,1.04,3.52,2.3,5.17,3.46,1.3.85,2.63,2.16,4.31,1.88,11.2,0,22.42,0,33.62,0,.77,0,1.82.03,2.59-.1,1.69-.78,3.49-1.68,5.17-2.47,3.79-1.79,7.85-3.33,12.07-3.68,3.16-.33,6.37.25,9.48.71,1.97.18,4.07.03,6.03-.21,11.5-1.84,18.23-2.46,27.58,5.71,12.06.1,24.14,0,36.2.03"/><path class="b" d="M9.37,155.66c5.59-.86,10.85-3.26,16.38-4.35,3.55-.64,7.26.21,10.34,2.03,4.04,2.29,7.37,5.7,11.21,8.28,7.73.31,15.53.02,23.27.11,3.71,0,7.49,0,11.21,0,4.54-1.27,8.7-3.71,12.93-5.73,4.32-2.09,8.94-4.01,13.79-4.26,2.85-.02,5.78.27,8.62-.24,13.03-2.32,19.26,1.33,28.45,10.23h37.07"/><path class="b" d="M9.37,149.94c9.47-2.87,16.92-11.01,26.72-4.03,3.7,2.51,6.76,5.95,10.34,8.6,1.52,1.13,3.41,1.9,5.17,2.54,1.68.01,3.49,0,5.17,0,3.71,0,7.49,0,11.21,0,1.68,0,3.49,0,5.17,0,1.39-.31,2.92-.74,4.31-1.05,1.67-.4,3.52-.63,5.17-1.09,2.66-.73,5.29-1.86,7.76-3.07,5.93-2.84,11.55-6.79,18.1-8.06,1.66-.32,3.5-.18,5.17-.38,2.56-.29,5.18-.83,7.76-.92,10.01-.57,17.09,7.88,23.27,14.59h37.93"/><path class="b" d="M9.37,144.62c5.26-2.61,10-6.36,15.52-8.47,4.55-1.78,9.28-.1,12.93,2.81,3.24,2.42,6.06,5.53,9.48,7.71,6.85,3.46,14.78,4.84,22.41,4.11,4.6-.52,9.27-1.1,13.79-2.11,4.23-1.12,8.23-3.12,12.07-5.19,4.16-2.2,8.31-4.73,12.93-5.82,1.94-.44,4.08-.34,6.03-.7,2.82-.45,5.75-1,8.62-.72,9.2,1.05,15.02,9.45,20.69,15.91,1.63.44,3.5.13,5.17.22,2.85,0,5.77,0,8.62,0,8.32,0,16.67,0,25,0"/><path class="b" d="M9.37,140.12c3.72-2.48,7.32-5.25,11.21-7.48,4.44-2.9,9.55-4.86,14.65-2.39,4.45,1.99,7.87,5.71,12.07,8.11,7.57,3.3,15.84,5.43,24.14,5.37,4.02-.07,8.12-.33,12.07-1.11,3.24-.69,6.44-1.84,9.48-3.12,4.82-1.99,9.53-4.52,14.65-5.67,1.94-.47,4.06-.37,6.03-.59,3.12-.37,6.33-.99,9.48-.62,8.73,1.04,14.46,8.73,19.83,14.94,4.56.33,9.22.03,13.79.13,8.61,0,17.25,0,25.86,0"/><path class="b" d="M9.37,135.39c3.36-2.64,6.64-5.53,10.34-7.68,3.11-1.96,6.57-3.9,10.34-3.97,5.23-.11,9.6,3.28,13.79,5.97,3.04,2.19,6.75,3.07,10.34,3.87,5.08,1.17,10.31,1.95,15.52,2.25,7.21.42,14.53.13,21.55-1.7,5.42-1.27,10.81-3.05,16.38-3.58,1.97-.22,4.06-.03,6.03-.11,3.13-.15,6.36-.49,9.48-.02,7.58,1.08,13.24,6.92,18.1,12.39,1.63.42,3.5.12,5.17.2,3.14,0,6.35,0,9.48,0,8.9,0,17.82,0,26.72,0"/><path class="b" d="M9.37,130.17c7.91-6.69,16.72-14.94,27.58-9.28,4.28,1.95,8.14,5.28,12.93,5.89,4.84.72,9.78.86,14.65,1.12,4.58.21,9.21.53,13.79.76,7.19.44,14.38-.62,21.55-.94,5.22-.38,10.33.27,15.52.53,11.13.02,16.01,2.93,24.14,10.09h43.1"/><path class="b" d="M9.37,124.45c6.43-5.06,13.46-12.22,22.41-9.68,3.98,1.02,7.55,3.28,11.21,5.07,3.64,1.98,7.17,2.13,11.21,1.89,4.29-.2,8.63-.56,12.93-.4,5.78.12,11.48,1.38,17.24,1.72,4.87.27,9.8.31,14.65.8,4.62.41,9.22,1.3,13.79,2.06,9.99,1.11,15.62,1.75,24.14,7.75h45.69"/><path class="b" d="M9.37,118.4c9.34-6.36,13.79-12.72,25.86-7.06,3.44,1.55,6.72,3.64,10.34,4.76,3.63,1.08,7.52.18,11.21-.1,4.28-.46,8.66-.58,12.93.04,4.64.6,9.16,2.1,13.79,2.69,4.28.54,8.65.74,12.93,1.34,4.34.57,8.67,1.55,12.93,2.58,4.8,1.25,9.81,1.67,14.65,2.71,3.58.71,7.05,2.06,10.34,3.6,16.09,0,32.19,0,48.27,0"/><path class="b" d="M9.37,112.45c3.94-2.11,7.3-5.26,11.21-7.41,7.79-4.12,15.28.87,22.41,3.9,1.62.64,3.43,1.19,5.17,1.28,1.68.03,3.49-.11,5.17-.17,3.43-.16,6.95-.13,10.34.43,5.35.82,10.38,3,15.52,4.59,2.77.84,5.74,1.23,8.62,1.47,4.59.37,9.25.65,13.79,1.45,4.34.68,8.6,2,12.93,2.74,3.99.64,8.1.92,12.07,1.72,1.4.28,2.95.67,4.31,1.1,1.05.37,2.31.86,3.45.74,16.09,0,32.19,0,48.27,0"/><path class="b" d="M9.37,107.35c7.44-3.17,11.74-9.71,20.69-8.58,5.76.62,10.77,4.01,16.38,5.18,2.53.44,5.21.11,7.76.46,5.82.55,11.28,2.94,16.38,5.69,11.56,6.71,16.49,6.07,29.31,6.42,6.65.11,13.21,1.47,19.83,1.96,1.68.17,3.5.39,5.17.67,1.37.28,2.9.55,4.31.46,17.81,0,35.63,0,53.45,0"/><path class="b" d="M9.37,103.06c6.73-2.18,11.51-7.94,18.96-8.13,7.55-.53,14.1,4.56,21.55,4.63,14.8.63,24.97,16.28,34.48,15.37,14.07,0,28.17,0,42.24,0,18.67,0,37.36,0,56.03,0"/><path class="b" d="M9.37,99.19c3.67-1.08,6.97-3.19,10.34-4.91,6.55-3.39,13.03-3.08,19.83-.65,2.25.73,4.58,1.58,6.9,2.08,1.95.42,4.09.38,6.03.88,8.71,2.08,15.23,8.71,22.41,13.63,35.92.04,71.84,0,107.75.01"/><path class="b" d="M9.37,95.29c12.54-5.15,16.93-9.4,31.03-4.12,2.24.79,4.57,1.67,6.9,2.15,1.68.3,3.52.42,5.17.88,5.05,1.29,9.58,4.12,13.79,7.11,2,1.35,3.95,3.04,6.03,4.25,1.68,0,3.49,0,5.17,0,5.45,0,10.93,0,16.38,0,29.59,0,59.19,0,88.79,0"/><path class="b" d="M9.37,90.82c5.7-2.66,11.67-5.42,18.1-5.34,5.15,0,9.99,2.07,14.65,4.02,1.65.67,3.44,1.35,5.17,1.77,1.67.36,3.52.51,5.17.95,3.94.95,7.7,2.69,11.21,4.69,2.01,1.15,4.08,2.45,6.03,3.7,1.03.46,2.36.23,3.45.28,6.31,0,12.66,0,18.96,0,30.17,0,60.34,0,90.51,0"/><path class="b" d="M9.37,85.07c8.95-4.52,17.6-5.11,26.72-.68,3.43,1.56,6.76,3.57,10.34,4.78,2.21.7,4.66.85,6.9,1.48,4.49,1.13,8.8,3.03,12.93,5.11.71.53,1.75.46,2.59.44,1.38,0,2.93,0,4.31,0,4.29,0,8.64,0,12.93,0,32.18,0,64.37,0,96.55,0"/><path class="b" d="M9.37,77.75c5.28-2.2,9.13-2.34,14.65-1.07,6.37,1.45,11.8,5.31,17.24,8.73,1.89,1.16,3.94,2.34,6.03,3.1,3.42.96,6.96,1.77,10.34,2.89,4.26.36,8.64.03,12.93.14,37.35,0,74.71,0,112.06,0"/><path class="b" d="M9.37,70.1c3.93-1.03,7.5-.61,11.21.94,6.7,2.4,12.5,6.71,18.1,10.99,2.2,1.64,4.5,3.36,6.9,4.71,4.27.29,8.64.03,12.93.11,41.38,0,82.76,0,124.13,0"/><path class="b" d="M9.37,63.12c5.52-.17,10.14,3.23,14.65,5.96,3.87,2.44,7.61,5.23,11.21,8.06,1.39,1.08,2.92,2.3,4.31,3.38.76.55,1.65,1.42,2.59,1.64,15.51,0,31.04,0,46.55,0,12.35,0,24.72,0,37.07,0,3.13-.19,6.32-.8,9.48-.63,4.02,0,8.05.76,12.07.63,11.77,0,23.57,0,35.34,0"/><path class="b" d="M9.37,57.38c4.26,1.03,7.75,3.87,11.21,6.42,3.98,2.85,8.09,5.64,12.07,8.5,1.39.99,2.93,2.11,4.31,3.11,1.08.66,2.15,1.89,3.45,2.07,2.85,0,5.77,0,8.62,0,14.65,0,29.31,0,43.96,0,7.17,0,14.38.02,21.55,0,2.79-.86,5.73-1.53,8.62-1.9,6.58-.9,13.26-.22,19.83.47,1.45.21,2.97.86,4.31,1.44.76,0,1.83,0,2.59,0,10.91,0,21.85,0,32.76,0"/><path class="b" d="M9.37,53.01c4.88,2.07,8.59,6.06,12.93,8.97,5.26,3.58,10.92,6.59,16.38,9.85.45.26,1.26.75,1.72.96.45,0,1.28,0,1.72,0,1.39,0,2.93,0,4.31,0,4.58,0,9.21,0,13.79,0,8.61,0,17.25,0,25.86,0,1.19.16,2.35-.81,3.45-1.16,1.9-.76,4.01-1.27,6.03-1.52,4.27-.55,8.67.04,12.93-.64,2.32-.39,4.57-1.44,6.9-1.82,4.82-.95,9.83-.6,14.65.19,2.86.46,5.77,1.07,8.62,1.56,1.96.39,4.12.48,6.03,1.09,1.13.37,2.42.97,3.45,1.55.65.5,1.76.86,2.59.75,10.62,0,21.27,0,31.89,0"/><path class="b" d="M9.37,49.5c5.34,2.55,9.37,7.19,14.65,9.84,4.13,2.21,8.6,3.82,12.93,5.59,1.39.56,2.94,1.22,4.31,1.84,1.09.43,2.27,1.25,3.45,1.36,13.78-.09,27.61.18,41.38-.1,6.06-4.89,13.15-7.6,20.69-9.22,3.68-.89,7.34-2.48,11.21-2.09,6.35.42,12.17,3.36,18.1,5.41,3.92,1.54,8.3,1.72,12.07,3.67,1.42.67,2.93,1.59,4.31,2.33,3.14,0,6.35,0,9.48,0,6.88,0,13.8,0,20.69,0"/><path class="b" d="M9.37,45.83c4.37,2.18,7.85,5.82,12.07,8.23,7.1,4.21,15.6,4.45,23.27,7.06,1.74.6,3.54,1.46,5.17,2.31,3.71,0,7.49,0,11.21,0,8.04,0,16.1,0,24.14,0,8.05-6.39,17.76-17.27,28.45-18.36,5.47-.02,10.22,3.33,14.65,6.16,3.59,2.35,7.21,4.86,11.21,6.48,3.36,1.25,7.01,1.8,10.34,3.14,2.02.74,4.1,1.65,6.03,2.59,2.56,0,5.2,0,7.76,0,6.31,0,12.66,0,18.96,0"/><path class="b" d="M9.37,41.57c3.41,1.74,6.34,4.36,9.48,6.5,7.15,4.97,14.1,5.24,22.41,5.72,2.01.18,4.12.53,6.03,1.18,2.68.96,5.23,2.46,7.76,3.76,4.87.1,9.79,0,14.65.04,4.58,0,9.21,0,13.79,0,.97.03,1.86-.91,2.59-1.45,1.12-.91,2.4-2.05,3.45-3.04,3.58-3.41,6.89-7.22,10.34-10.75,4.5-4.54,10.41-10.38,17.24-6.97,7.73,3.71,13.24,10.81,20.69,14.99,3.12,1.88,6.79,2.64,10.34,3.24,2.89.51,5.86,1.17,8.62,2.18.77.28,1.84.71,2.59,1.04.73.32,1.75.92,2.59.77,6.88,0,13.8,0,20.69,0"/><path class="b" d="M9.37,36.67c3.7,1.8,6.82,4.69,10.34,6.8,3.89,2.44,8.32,4.18,12.93,4.49,4,.35,8.07-.29,12.07.02,2.07.12,4.11.87,6.03,1.56,5.88,1.84,12.02,2.82,18.1,3.73,7.29.97,13.79,1.57,19.83-3.43,4.2-3.28,7.66-7.48,11.21-11.43,3.66-3.76,7.86-9.6,13.79-8.45,4.67,1.07,8.41,4.46,12.07,7.36,5.48,4.45,11.08,9.47,18.1,11.19,2.52.52,5.2.5,7.76.75,4.64.34,9.09,2.15,12.93,4.73,6.01.21,12.08.01,18.1.08"/><path class="b" d="M9.37,31.48c3.98,1.82,7.35,4.82,11.21,6.88,8.2,4.86,13.36,4.54,22.41,3.65,1.39-.07,2.94-.04,4.31.2,1.68.38,3.44,1.01,5.17,1.11,4.29.33,8.64-.29,12.93.09,4.09.28,8.11,1.4,12.07,2.38,4.03,1.16,8.4.99,12.07-1.17,5.01-2.81,8.82-7.32,12.93-11.24,3.79-3.62,7.41-6.77,12.93-4.67,7.38,2.79,13.42,8.31,20.69,11.37,3.29,1.37,6.72,2.95,10.34,2.96,8.73-.34,12.92.42,19.83,6.22,5.42.35,10.94.03,16.38.13"/><path class="b" d="M9.37,26.7c2.75,1.08,5.22,2.9,7.76,4.37,8.33,4.78,13.66,6.5,23.27,4.84,3.14-.49,6.44-.63,9.48.44,2.53.55,5.21.3,7.76.05,5.51-.73,11.18-.35,16.38,1.7,2.84,1,5.67,2.3,8.62,2.94,6.82,1.7,13.06-2.46,18.1-6.58,2.67-2.04,5.37-4.4,8.62-5.46,4.37-1.04,8.83.93,12.93,2.28,3.66,1.33,7.42,2.61,11.21,3.54,2.25.57,4.63,1.06,6.9,1.59,1.94.52,4.01,1.02,6.03.87,10.12-1.05,14.01.55,21.55,7.39,4.87.1,9.79,0,14.65.04"/><path class="b" d="M9.37,22.42c3,.8,5.76,2.44,8.62,3.59,8.78,3.77,14.1,3.49,23.27,2.26,2.27-.21,4.69-.24,6.9.41,2.45.95,5.15,1.32,7.76,1.43,11.49.2,15.1,2.82,25,7.32,11.88,5.31,16.68-.17,26.72-5.2,2.4-1.14,5.17-1.13,7.76-.94,3.14.22,6.34.67,9.48.89,4.57.38,9.21.11,13.79.18,1.98-.02,4.05.47,6.03.39,1.99-.11,4.06-.56,6.03-.83,3.79-.62,7.81-.11,11.21,1.74,3.1,1.61,5.86,3.94,8.62,6.05,1.28.63,2.93.24,4.31.34,2.55,0,5.2,0,7.76,0"/><path class="b" d="M9.37,18.59c4.96.26,9.69,2.23,14.65,2.49,5.74.53,11.5-.44,17.24-.26,2.01.08,4.13.4,6.03,1.04,2.24.9,4.55,1.91,6.9,2.49,4.06,1.08,8.22,2.1,12.07,3.8,4.2,1.8,8.12,4.28,12.07,6.55.69.5,1.74.74,2.59.65,1.08,0,2.37,0,3.45,0,3.43,0,6.92,0,10.34,0,4,0,8.06,0,12.07,0,1.69-.43,3.4-1.33,5.17-1.46,4.85-.6,9.82-.43,14.65-1.17,5.2-.66,10.28-2.37,15.52-2.78,4.96-.28,9.61-2.91,14.65-2.6,5.77.18,10.57,3.81,15.52,6.36,1.34.59,2.85,1.4,4.31,1.65,1.97,0,4.06,0,6.03,0"/><path class="b" d="M9.37,15.29c4.52-1.19,9.2-.42,13.79-.8,8.78-.87,16.98-1.54,25,2.94,3.86,2.22,8.05,3.9,12.07,5.78,3.84,1.78,7.62,3.86,11.21,6.12.76.45,1.69,1.21,2.59,1.34,1.38,0,2.93,0,4.31,0,2.85,0,5.77,0,8.62,0,10.91,0,21.85,0,32.76,0,4.87,0,9.79,0,14.65,0,.81.07,1.83-.35,2.59-.6,1.38-.46,2.92-.98,4.31-1.4,3.81-.98,7.4-2.82,11.21-3.79,6.42-1.83,12.16.53,18.1,2.76,3.88,1.22,8.04,1.71,12.07,2.19"/><path class="b" d="M9.37,12.26c1.92-.88,3.98-1.74,6.03-2.23,1.37-.33,2.92-.37,4.31-.56,2.85-.4,5.75-1.07,8.62-1.31,6.89-.8,13.41,2.21,18.96,6,3.3,2.24,6.82,4.28,10.34,6.15,3.44,1.84,6.97,3.69,10.34,5.65,7.17.1,14.38,0,21.55.04,16.95,0,33.91,0,50.86,0,1.38-.03,2.94.08,4.31-.09,1.06-.54,2.36-1.16,3.45-1.64,2.96-1.3,6.23-2.16,9.48-2.13,4.41-.01,8.64,1.61,12.93,2.37,3.98.54,8.08-.08,12.07-.24"/></svg>