<?xml version="1.0" encoding="UTF-8"?><svg id="a" xmlns="http://www.w3.org/2000/svg" width="1920" height="2400" viewBox="0 0 192 240"><defs><style>.b{fill:none;stroke:#fff;stroke-miterlimit:10;stroke-width:.4px;}.c{stroke-width:0px;}</style></defs><rect class="c" x="0" width="192" height="240"/><path class="b" d="M8.56,230.96c1.15,1.32,2.79,1.07,4.35,1.06,2.29,0,4.67,0,6.96,0,6.95,0,13.93,0,20.88,0,7.53,0,15.09,0,22.62,0,2.04-.28,4.06-1.24,6.09-1.64,3.17-.79,6.47-1.43,9.57-2.49,5.01-2.04,10.52-3.28,15.66-.93,2.82,1.19,5.42,3.03,7.83,4.88,1.95.38,4.11.09,6.09.18,3.17,0,6.41,0,9.57,0,6.95,0,13.93,0,20.88,0,14.79,0,29.59,0,44.37,0"/><path class="b" d="M8.56,227.1c1.66.38,3.53.11,5.22.19,2.58,0,5.25,0,7.83,0,8.11,0,16.25,0,24.36,0,6.37,0,12.77,0,19.14,0,4.27-1.35,8.71-2.27,13.05-3.37,4.74-1.55,9.93-2.77,14.79-1.01,1.79.59,3.61,1.5,5.22,2.47,1.36.75,2.67,2.17,4.35,1.9,8.4,0,16.83,0,25.23,0,18.56,0,37.13,0,55.68,0"/><path class="b" d="M8.56,222.57c17.69,0,35.39,0,53.07,0,1.99,0,4.1,0,6.09,0,1.09-.19,2.38-.44,3.48-.6,4.03-.51,8.13-.95,12.18-1.25,2.6-.12,5.3.08,7.83.66,1.72.3,3.45,1.3,5.22,1.19,6.66,0,13.35,0,20.01,0,22.33,0,44.67,0,67,0"/><path class="b" d="M8.56,217.84h174.88"/><path class="b" d="M8.56,213.12c35.09,0,70.19,0,105.28,0,16.24,0,32.49,0,48.72,0,1.08-.02,2.4.07,3.48-.1,1.63-.75,3.47-1.45,5.22-1.87,1.66-.44,3.53-.4,5.22-.65,2.33-.36,4.7-1.07,6.96-1.75"/><path class="b" d="M8.56,208.4h147.91c4.86-3.23,9.82-6.89,15.66-8.02,1.38-.25,2.96-.17,4.35-.39,2.33-.36,4.69-1.09,6.96-1.71"/><path class="b" d="M8.56,203.67c5.5,0,11.04,0,16.53,0,2-.08,4.08-.7,6.09-.78,2.89-.23,5.87.05,8.7.67,4.61.27,9.3.02,13.92.11,4.63-.03,9.31.14,13.92-.24,8.1.42,16.25.19,24.36.24,13.92,0,27.85,0,41.76,0,3.46,0,6.98,0,10.44,0,1.08,0,2.39,0,3.48,0,1.55-.57,2.96-1.85,4.35-2.73,6.22-4.12,12.43-9.23,20.01-10.37,1.38-.18,2.96-.02,4.35-.16,2.31-.22,4.68-.79,6.96-1.22"/><path class="b" d="M8.56,197.42c2.29-.41,4.64-1.04,6.96-1.3,2.61-.09,5.27-.39,7.83-.92,7.5-1.59,12.98-.59,20.01,2.12,1.95.68,4.03,1.37,6.09,1.61,1.99,0,4.11.12,6.09-.16,5.17-.7,10.41-2.15,15.66-1.46,1.75.22,3.6.73,5.22,1.42,1.06.35,2.38.18,3.48.21,11.3,0,22.63,0,33.93,0,9.56,0,19.15,0,28.71,0,4.62-2.57,8.78-6,13.05-9.09,4.99-3.56,10.25-7.61,16.53-8.28,1.39-.12,2.96.11,4.35.11,2.29.01,4.68-.2,6.96-.29"/><path class="b" d="M8.56,189.28c3.73-1.16,7.44-2.16,11.31-2.75,3.12-.65,6.37-1.27,9.57-1.07,5.27.23,10.03,2.75,14.79,4.76,3.53,1.58,7.5,1.85,11.31,1.56,6.06-.44,12.3-1.57,18.27.08,1.45.39,3.01.98,4.35,1.65.99.69,2.31.81,3.48.72,14.21,0,28.43,0,42.63,0,5.21,0,10.46,0,15.66,0,2.19-.6,4.19-2.09,6.09-3.29,3.61-2.47,7.01-5.37,10.44-8.09,4.64-3.56,9.62-7.64,15.66-8.13,1.4-.09,2.96.21,4.35.37,2.28.27,4.68.51,6.96.82"/><path class="b" d="M8.56,181.83c3.47-1.03,6.94-2.27,10.44-3.21,3.64-1.08,7.51-1.88,11.31-1.32,4.34.58,8.29,2.7,12.18,4.57,3.49,1.87,7.39,2.53,11.31,2.58,9.91.15,18.84-.3,27.84,4.73,1.57.66,3.54.2,5.22.32,3.17,0,6.41,0,9.57,0,8.69,0,17.41,0,26.1,0,5.21,0,10.46,0,15.66,0,6.71-1.21,13.62-7.79,19.14-11.71,4.37-3.16,9.19-6.62,14.79-6.78,3.85.16,7.62,1.48,11.31,2.46"/><path class="b" d="M8.56,175.75c7.38-1.15,14.09-5.97,21.75-5.17,5.94.51,10.93,4.2,16.53,5.83,8.64,1.47,17.55,1.31,26.1,3.53,5.08,1.09,9.84,3.35,14.79,4.84,7.53,0,15.09,0,22.62,0,4.62,0,9.3,0,13.92,0,6.12.04,12.46-.15,18.27-2.25,5.21-2.04,9.9-5.27,14.79-7.94,10.65-5.8,15.03-5.78,26.1-1.11"/><path class="b" d="M8.56,171.32c2.63-.02,5.36-.44,7.83-1.37,4.45-1.83,9-4.04,13.92-3.98,6.47-.15,12.02,3.92,18.27,4.81,12.28,1.19,24.63,2.48,36.54,5.85,4.81,1.29,9.8,2.21,14.79,2.07,8.42-.39,16.8-1.77,25.23-1.98,5.5-.23,11.13.11,16.53-1.11,10.18-2.82,20.56-7.31,31.32-5.23,3.63.62,7.05,2.26,10.44,3.63"/><path class="b" d="M8.56,168.19c2.54.6,5.31.75,7.83,0,4.32-1.46,8.49-3.63,13.05-4.29,6.25-1.14,12.22,1.5,18.27,2.52,6.34.66,12.78.36,19.14.58,7.01.17,14.04.92,20.88,2.48,4.84,1.01,9.84,1.56,14.79,1.3,5.22-.35,10.49-.74,15.66-1.52,6.62-1.08,13.34-1.73,20.01-2.38,4.33-.51,8.66-1.58,13.05-1.41,5.88.06,11.7,1.28,17.4,2.59,2.57.63,5.28,1.09,7.83,1.82,2.32.71,4.68,1.67,6.96,2.49"/><path class="b" d="M8.56,164.42c2.15,1.06,4.54,1.98,6.96,2.02,4.16-.23,8.16-1.84,12.18-2.83,3.96-1.07,8.08-1.77,12.18-1.9,4.04-.17,8.15.22,12.18-.1,6.94-.61,13.9-1.59,20.88-1.21,3.46.18,7,.3,10.44.77,4.05.59,8.11,1.44,12.18,1.86,4.02.44,8.14.45,12.18.3,2.88-.1,5.85-.1,8.7-.52,7.01-.98,13.9-2.81,20.88-3.95,3.14-.47,6.37-1.24,9.57-.99,5.46.43,10.59,2.68,15.66,4.58,3.1,1.18,6.31,2.31,9.57,2.93,3.86.44,7.67,1.41,11.31,2.74"/><path class="b" d="M8.56,158.97c2.39,1.64,4.95,3.4,7.83,4,8.31,1.31,16.53-1.18,24.36-3.7,3.38-1.14,6.94-1.69,10.44-2.27,2.89-.61,5.81-1.45,8.7-2.04,6.28-1.47,12.77-.96,19.14-.57,5.25.03,10.47,1.07,15.66,1.71,5.18.69,10.45.92,15.66,1.15,5.83.45,11.72-.25,17.4-1.57,3.47-.78,6.97-1.75,10.44-2.52,2.54-.53,5.22-1.15,7.83-.9,4.59.46,8.86,2.55,13.05,4.33,3.62,1.56,7.39,3.09,11.31,3.66,1.97.34,4.1.12,6.09.23,2.33.17,4.72.74,6.96,1.4"/><path class="b" d="M8.56,151.74c3.19,2.62,6.45,5.39,10.44,6.66,4.36,1.82,9.21,3.1,13.92,2.05,4.32-.87,8.2-3.17,12.18-4.95,3.11-1.31,6.5-2.05,9.57-3.5,4.67-2.01,9.66-3.62,14.79-3.55,2.88-.01,5.83.39,8.7.52,2.29.05,4.68-.01,6.96.19,7.26.61,14.51,1.66,21.75,2.43,3.75.41,7.54,1.12,11.31,1.37,6.79.59,13.5-1.05,20.01-2.79,4.64-1.29,8.4-1.51,13.05,0,5.99,1.8,11.9,4.55,18.27,4.51,2.32.07,4.68-.56,6.96-.84,2.29-.22,4.71,0,6.96.49"/><path class="b" d="M8.56,143.54c3.13,2.6,6.05,5.63,9.57,7.73,2.58,1.7,5.03,3.84,7.83,5.16,3.17,0,6.4,0,9.57,0,1.69-.07,3.56.19,5.22-.18,2.02-1.04,4.06-2.31,6.09-3.31,2.35-.99,4.78-2.06,6.96-3.38,7.59-4.56,12.81-6.41,21.75-5.32,3.74.37,7.56-.08,11.31.2,6.7.36,13.4,1.19,20.01,2.33,4.4.69,8.71,2.04,13.05,2.99,7.24,1.7,13.85.21,20.88-1.55,4-1.07,8.2-.47,12.18.36,6.27,1.38,12.92,2.12,19.14.12,3.61-1.29,7.43-2.41,11.31-2"/><path class="b" d="M8.56,136.07c3.22,2.71,6.16,5.88,9.57,8.35,2.67,2.24,5.14,4.9,7.83,7.13,1.67.32,3.53.09,5.22.16,3.17,0,6.4,0,9.57,0,1.7,0,3.52,0,5.22,0,2.8-.9,5.42-2.55,7.83-4.21,5.39-3.9,11.36-7.79,18.27-7.71,1.99-.05,4.1.09,6.09.09,1.7-.02,3.52-.21,5.22-.23,4.34-.09,8.74.21,13.05.73,5.56.71,11.16,1.71,16.53,3.32,4.57,1.52,9.09,3.54,13.92,4.04,3.47.4,7.04,0,10.44-.73,3.14-.64,6.34-1.55,9.57-1.38,9.07.62,15.37,2.26,24.36-1.36,3.92-1.63,7.87-3.58,12.18-3.88"/><path class="b" d="M8.56,131.34c2.06,1.61,4.08,3.51,6.09,5.18,1.34,1.14,3.02,2.17,4.35,3.31,2.68,2.24,5.05,5.03,7.83,7.14,7.82-.02,15.67.05,23.49-.03,6.28-3.98,11.6-10.03,19.14-11.6,3.41-.78,6.98-.51,10.44-.73,5.21-.38,10.49.12,15.66.78,5.25.7,10.54,1.58,15.66,2.95,5.88,1.71,11.25,5.18,17.4,6,5.25.89,10.49-.54,15.66-1.31,4.34-.4,8.72.37,13.05.46,4.72.16,9.51-.61,13.92-2.33,4.03-1.6,7.95-3.68,12.18-4.71"/><path class="b" d="M8.56,129.28c2.03,1.24,4.07,2.72,6.09,3.97,1.35.86,3.01,1.56,4.35,2.44,3.01,1.98,5.75,4.49,8.7,6.56,5.21,0,10.46,0,15.66,0,1.7,0,3.52,0,5.22,0,1.19.05,2.58.06,3.48-.84,5.51-4.11,10.47-9.65,17.4-11.27,2.82-.68,5.82-.59,8.7-.5,3.77-.09,7.58.23,11.31.74,4.03.53,8.13,1.01,12.18,1.4,3.78.42,7.69.74,11.31,1.96,3.93,1.46,7.51,3.83,11.31,5.58,3.78,1.8,7.97,2.96,12.18,2.79,3.8-.08,7.52-1.31,11.31-1.51,4.91-.35,9.89-.14,14.79-.64,3.22-.32,6.49-.94,9.57-1.93,3.82-1.24,7.54-2.98,11.31-4.36"/><path class="b" d="M8.56,128.94c1.99.8,4.06,1.72,6.09,2.42,1.68.57,3.59.88,5.22,1.59,2.06.85,4.12,1.99,6.09,3.03,1.09.52,2.28,1.36,3.48,1.55,6.95,0,13.93,0,20.88,0,3.57-1.83,6.34-5.08,9.57-7.42,4.95-4,10.17-5.79,16.53-4.87,2.58.3,5.27.38,7.83.85,6.01,1.16,12.14,1.92,18.27,1.6,8.34-.39,11.3.51,18.27,5.07,2.77,1.73,5.65,3.51,8.7,4.73,1.99.1,4.1.02,6.09.05,3.46,0,6.98,0,10.44,0,2.87-.49,5.8-1.08,8.7-1.37,5.48-.64,11.07-.6,16.53-1.45,4.21-.66,8.26-2.22,12.18-3.84"/><path class="b" d="M8.56,129.13c1.98.42,4.07.82,6.09.97,1.7.13,3.53-.06,5.22.17,2.95.35,5.88,1.26,8.7,2.15,1.34.55,2.94.36,4.35.39,1.7,0,3.52,0,5.22,0,4.33-.06,8.73.13,13.05-.09,5.87-3.99,10.8-10.37,18.27-11.25,2.6-.31,5.28.15,7.83.65,2.28.42,4.7.69,6.96,1.24,4.54,1.08,9.27,1.78,13.92,1.13,4.6-.48,9.28-2.27,13.92-1.26,4.49,1.2,8.24,4.24,12.18,6.57,1.92,1.1,3.94,2.43,6.09,3.01,2.28,0,4.68,0,6.96,0,2.58,0,5.25,0,7.83,0,2.6-.54,5.21-1.54,7.83-2.02,3.4-.73,6.96-1,10.44-.92,7.75.35,12.55.61,20.01-2.48"/><path class="b" d="M8.56,128.09c2.87-.01,5.83.03,8.7-.02,1.67-.35,3.51-.5,5.22-.44,1.41.04,2.96.24,4.35.46,2.29,0,4.67,0,6.96,0,6.08,0,12.19,0,18.27,0,.94.16,1.97-.39,2.61-1.04,1.09-.9,2.38-1.99,3.48-2.88,2.81-2.26,5.97-4.43,9.57-5.15,3.18-.66,6.47.02,9.57.76,5.74.94,11.52,2.98,17.4,2.16,2.97-.39,5.88-1.41,8.7-2.38,2.76-.93,5.77-1.91,8.7-1.29,3.77.83,7.11,3.03,10.44,4.88,4.74,2.74,10.05,5.21,15.66,4.77,3.29-.2,6.47-1.4,9.57-2.42,3.35-1.12,6.89-2.04,10.44-2.15,10.01-.15,14.49,3.71,25.23-.25"/><path class="b" d="M8.56,123.36c15.95,0,31.91,0,47.85,0,.95.17,1.96-.45,2.61-1.09.76-.61,1.8-1.42,2.61-1.97,3.26-2.33,7.28-3.72,11.31-3.29,4.92.6,9.85,1.56,14.79,1.97,5.85.54,11.33-1.93,16.53-4.26,4.48-2.02,7.67-1.99,12.18-.08,6.9,2.97,13.97,6.92,21.75,5.89,3.85-.37,7.57-1.71,11.31-2.62,3.67-.91,7.57-1.19,11.31-.58,9.2,1.69,12.75,4.37,22.62,1.01"/><path class="b" d="M8.56,118.64c16.53,0,33.07,0,49.59,0,1.4-.05,2.98.15,4.35-.16.76-.48,1.8-1.08,2.61-1.47,2.41-1.18,5.15-1.83,7.83-1.89,3.17,0,6.4.13,9.57.05,2.88.07,5.85.16,8.7-.3,4.61-.67,8.84-2.84,13.05-4.7,2.17-.92,4.57-1.8,6.96-1.67,5.44.52,10.4,3.22,15.66,4.49,8.37,2.35,15.39.3,23.49-1.68,3.69-.79,7.58-.93,11.31-.29,3.49.55,6.94,1.71,10.44,2.18,3.75.39,7.63-.09,11.31-.83"/><path class="b" d="M8.56,113.91c13.34,0,26.69,0,40.02,0,4.91,0,9.88,0,14.79,0,1.4,0,2.95,0,4.35,0,1.71-.27,3.49-.95,5.22-1.17,2.89-.42,5.85-.83,8.7-1.45,2.27-.36,4.68-.52,6.96-.82,5.15-.57,10.05-2.42,14.79-4.42,7.46-3.37,11.7-1.94,19.14.27,11.49,3.57,17.41,2.93,28.71-.55,3.66-.97,7.53-1.41,11.31-1.09,3.19.24,6.39.95,9.57,1.29,3.74.27,7.56.13,11.31.14"/><path class="b" d="M8.56,109.19c21.46,0,42.93,0,64.39,0,3.96.16,7.45-2.47,11.31-3.09,3.15-.67,6.43-1.06,9.57-1.75,3.23-.68,6.45-1.69,9.57-2.73,2.81-.91,5.73-1.9,8.7-2.05,7.24-.19,13.86,3.5,20.88,4.72,9.73,2.1,15.43-2.47,24.36-4.38,4.86-1.07,9.89-.58,14.79-.1,3.76.22,7.59.33,11.31.91"/><path class="b" d="M8.56,104.47c22.33,0,44.67,0,67,0,1.57.18,3.02-.86,4.35-1.53,1.6-.88,3.45-1.55,5.22-2,3.41-.84,6.98-1.19,10.44-1.77,3.2-.52,6.44-1.27,9.57-2.1,2.84-.69,5.76-1.65,8.7-1.74,7.99-.03,14.87,5.02,22.62,6.25,5.51,1.1,10.68-1.65,15.66-3.59,5.48-2.28,11.48-3.29,17.4-2.68,4.63.43,9.34.58,13.92,1.43"/><path class="b" d="M8.56,99.74c22.62,0,45.25,0,67.87,0,.44,0,1.3,0,1.74,0,.83-.28,1.84-.92,2.61-1.33,1.61-.82,3.46-1.44,5.22-1.82,3.41-.73,6.98-.9,10.44-1.29,3.5-.38,7.03-1.02,10.44-1.88,2.57-.58,5.17-1.57,7.83-1.61,7.75-.08,14.32,4.98,21.75,6.41,6.18,1.35,11.71-2.64,17.4-4.35,5.86-2.13,12.21-2,18.27-.95,3.72.58,7.56.68,11.31,1.04"/><path class="b" d="M8.56,95.02c18.27,0,36.55,0,54.81,0,6.08,0,12.19,0,18.27,0,.82.08,1.83-.34,2.61-.53,1.38-.34,2.94-.58,4.35-.74,4.04-.42,8.17-.55,12.18-1.18,3.81-.56,7.59-1.6,11.31-2.59,9.57-2.28,18.34,4.75,27.84,3.94,3.33-.43,6.41-2.11,9.57-3.16,4.69-1.75,9.81-2.59,14.79-1.79,3.51.49,6.96,1.6,10.44,2.26,2.85.48,5.83.36,8.7.19"/><path class="b" d="M8.56,90.29c29.87,0,59.75,0,89.62,0,5.26.09,10.47-1.14,15.66-1.81,3.17-.28,6.44.05,9.57.55,2.58.38,5.23,1.02,7.83,1.26,3.45-.09,7.01.2,10.44-.13,4.13-1.18,8.02-3.23,12.18-4.33,5.41-1.61,11.23-1.05,16.53.71,1.99.58,4.04,1.42,6.09,1.75,2.27.34,4.7.17,6.96-.19"/><path class="b" d="M8.56,85.57c36.25,0,72.51,0,108.76,0,8.98,0,17.99,0,26.97,0,.77,0,1.85.03,2.61-.11.77-.31,1.84-.76,2.61-1.09,1.96-.83,4.05-1.69,6.09-2.31,5.38-1.81,11.33-1.42,16.53.81,3.75,1.8,7.1,2.69,11.31,1.93"/><path class="b" d="M8.56,80.84c1.49.17,2.95-.48,4.35-.87,1.95-.53,4.11-.78,6.09-.3,1.44.26,2.85,1.31,4.35,1.17,3.46,0,6.98,0,10.44,0,26.68,0,53.37,0,80.05,0,8.4,0,16.83,0,25.23,0,3.75-.04,7.57.09,11.31-.06,2.25-.99,4.61-2.04,6.96-2.78,6.7-2.26,12.37-.92,18.27,2.69,2.55.37,5.26.06,7.83.16"/><path class="b" d="M8.56,76.12c43.77-.03,87.59.02,131.38,0,4.04,0,8.14,0,12.18,0,2.26-.81,4.61-1.72,6.96-2.23,2.54-.56,5.28-.68,7.83-.14,2.13.39,4.15,1.48,6.09,2.36,3.46,0,6.98,0,10.44,0"/><path class="b" d="M8.56,71.4c45.53,0,91.07,0,136.6,0,2.58,0,5.25,0,7.83,0,2.27-.38,4.65-.82,6.96-.8,2.02-.04,4.13.34,6.09.8,5.79,0,11.61,0,17.4,0"/><path class="b" d="M8.56,66.67h174.88"/><path class="b" d="M8.56,61.95c11.3,0,22.63,0,33.93,0,1.14.09,2.37-.55,3.48-.74,1.96-.46,4.1-.61,6.09-.32,1.74.16,3.5.9,5.22,1.06,4.62,0,9.3,0,13.92,0,9.56,0,19.15,0,28.71,0,27.84,0,55.69,0,83.53,0"/><path class="b" d="M8.56,57.22c9.85,0,19.73,0,29.58,0,1.95.18,3.49-1.55,5.22-2.2,3.76-1.99,8.17-1.69,12.18-.7,3.51.77,6.93,2.16,10.44,2.91,3.46,0,6.98,0,10.44,0,9.27,0,18.57,0,27.84,0,26.39,0,52.79,0,79.18,0"/><path class="b" d="M8.56,52.5c9.85,0,19.73,0,29.58,0,1.63.16,2.95-1.45,4.35-2.09,2.34-1.42,5.08-2.22,7.83-1.99,10.84.34,21.29,4.54,32.19,4.09,14.5,0,29.01,0,43.5,0,6.66,0,13.35,0,20.01,0,2.3-.02,4.66-.65,6.96-.69,1.39-.06,2.97-.01,4.35.18,1.09.11,2.37.59,3.48.51,7.53,0,15.09,0,22.62,0"/><path class="b" d="M8.56,47.78c10.14,0,20.31,0,30.45,0,.46,0,1.29,0,1.74,0,.46-.22,1.3-.69,1.74-.93,1.33-.7,2.87-1.36,4.35-1.65,8.96-.49,18.04-.44,26.97.51,4.34.51,8.69,1.31,13.05,1.58,2.29.17,4.66.58,6.96.49,11.88,0,23.79,0,35.67,0,3.46-.04,6.99.09,10.44-.06,1.65-.53,3.54-.67,5.22-1.07,2.59-.62,5.22-1.51,7.83-2.03,3.13-.66,6.48-.69,9.57.18,2.44.6,4.69,1.98,6.96,2.99,4.62,0,9.3,0,13.92,0"/><path class="b" d="M8.56,43.05c11.01,0,22.05,0,33.06,0,.79,0,1.84.04,2.61-.13,1.35-.51,2.91-.9,4.35-.91,6.42-.13,12.74-1.66,19.14-2.02,3.17-.2,6.43-.13,9.57.31,2.86.48,5.79,1.08,8.7,1.1,4.33.13,8.74.02,13.05.58,2.01.22,4.1.7,6.09,1.08,1.09,0,2.39,0,3.48,0,5.79,0,11.61,0,17.4,0,2.56-.12,5.33.27,7.83-.2,1.68-.71,3.5-1.5,5.22-2.14,2.82-1.05,5.91-1.5,8.7-2.63,7.92-3.13,14.07-3.87,21.75.54,1.42.79,2.98,1.75,4.35,2.62,1.05.62,2.26,1.58,3.48,1.82,1.99,0,4.1,0,6.09,0"/><path class="b" d="M8.56,38.33c14.79,0,29.59,0,44.37,0,2.05.09,4.11-.71,6.09-1.14,3.41-.87,6.93-1.7,10.44-2.02,2.58-.24,5.27-.19,7.83.19,2.85.54,5.77,1.24,8.7.98,11.29-.93,16.35-3.18,27.84.74,8.39,2.3,16.56-.54,24.36-3.53,3.41-1.24,7.02-2.05,10.44-3.26,5.84-2.09,12.34-2.88,18.27-.66,5.73,1.99,10.89,5.4,16.53,7.61"/><path class="b" d="M8.56,33.6c15.66,0,31.33,0,46.98,0,2.06-.17,4.08-1.26,6.09-1.71,3.09-.89,6.35-1.51,9.57-1.52,2.31-.01,4.71.29,6.96.82,1.68.43,3.48.97,5.22,1.04,8.29.35,16.04-4.23,24.36-3.54,2.93.22,5.77,1.38,8.7,1.6,7.36.8,14.7-.97,21.75-2.88,17.35-4.89,28.18-7.58,45.24.81"/><path class="b" d="M8.56,28.88c13.05,0,26.11,0,39.15,0,1.69-.06,3.55.16,5.22-.15,3.95-1.44,7.97-3.03,12.18-3.53,3.78-.48,7.67.03,11.31,1.1,1.71.47,3.5,1.19,5.22,1.63,1.95.47,4.09.62,6.09.52,6.19-.31,12.1-2.72,18.27-3.15,3.5-.36,6.95.92,10.44.8,4.97-.07,9.91-1.05,14.79-1.87,4.96-.79,9.9-1.89,14.79-2.99,4.04-.76,8.17-1.38,12.18-2.28,9.52-2.09,15.61-4.48,25.23-.4"/><path class="b" d="M8.56,24.16c9.85,0,19.73,0,29.58,0,1.7-.03,3.53.06,5.22-.06,1.7-.53,3.53-1.13,5.22-1.68,6.4-2.34,13.05-5.39,20.01-3.75,5.17,1.02,9.78,3.86,14.79,5.38,11.58.31,23.21,0,34.8.11.77,0,1.84,0,2.61-.02.77-.22,1.84-.53,2.61-.76,2.27-.68,4.65-1.38,6.96-1.93,3.13-.77,6.4-1.3,9.57-1.88,3.43-.76,6.96-1.37,10.44-1.88,4.25-.68,8.38-2.19,12.18-4.19,7.62-4.09,11.78-7.01,20.88-4.74"/></svg>