<?xml version="1.0" encoding="UTF-8"?><svg id="a" xmlns="http://www.w3.org/2000/svg" width="1920" height="2400" viewBox="0 0 192 240"><defs><style>.b{fill:none;stroke:#fff;stroke-miterlimit:10;stroke-width:.4px;}.c{stroke-width:0px;}</style></defs><rect class="c" x="0" width="192" height="240"/><path class="b" d="M8.45,219.59c2.01.19,4.1.56,6.1.81,1.7.22,3.56.19,5.23.65,3.32.87,6.46,2.49,9.58,3.9,2.81,1.23,5.71,2.61,8.71,3.28,2,0,4.1,0,6.1,0,22.07,0,44.14,0,66.21,0,3.75,0,7.57,0,11.32,0,.55.02,1.37-.47,1.74-.87,1.11-.91,2.4-2.04,3.48-2.98,3.9-3.24,7.84-7.33,13.07-8.14,1.43-.19,3,.23,4.36.66,1.39.4,2.96.83,4.36,1.23,5.03,1.42,10.06,3.09,14.81,5.29,12.9,6.15,4.8,4.65,20.04,4.81"/><path class="b" d="M8.45,218.56c2.3.2,4.67.6,6.97.81,2.03.08,4.16.3,6.1.95,2.66.83,5.29,2.03,7.84,3.13,1.69.12,3.53.03,5.23.06,29.62,0,59.24,0,88.86,0,5.02-4.32,10.44-12.82,17.42-13.55,1.46-.06,2.99.52,4.36.97,2.35.81,4.74,1.84,6.97,2.94,3.88,1.92,7.66,4.19,11.32,6.49,1.09.69,2.4,1.51,3.48,2.21.7.49,1.72,1.1,2.61.93,4.63,0,9.31,0,13.94,0"/><path class="b" d="M8.45,217.91c3.46.07,6.99.16,10.45.29,1.71.14,3.5.72,5.23.58,8.12,0,16.27,0,24.39,0,25.26,0,50.53,0,75.79,0,4.73-4.39,9.74-12.3,16.55-13.13,7.33.33,17.29,9.06,23.52,13.1,6.37.07,12.79,0,19.16.03"/><path class="b" d="M8.45,214.05h116.73c4.67-3.68,8.61-9.26,14.81-10.42,4.51-.44,8.55,2.55,12.2,4.82,1.72,1.16,3.54,2.47,5.23,3.67.77.55,1.83,1.3,2.61,1.84.43.06,1.31.11,1.74.09,7.25,0,14.53,0,21.78,0"/><path class="b" d="M8.45,209.32c36.88,0,73.76,0,110.63,0,2.58,0,5.26,0,7.84,0,1.53-.63,2.92-1.94,4.36-2.76,3.1-1.94,6.7-3.73,10.45-3.36,4.86.65,8.87,3.87,13.07,6.12,9.57,0,19.17,0,28.75,0"/><path class="b" d="M8.45,204.59c3.75-.07,7.58.14,11.32-.09,3.98-1,8.07-2.01,12.2-2.04,2.62-.03,5.32.34,7.84,1.04,1.41.31,2.88,1.2,4.36,1.09,7.54,0,15.11,0,22.65,0,15.09,0,30.2,0,45.3,0,6.38,0,12.79,0,19.16,0,1.14.03,2.38-.63,3.48-.86,1.66-.43,3.51-.71,5.23-.69,2.39-.04,4.74.82,6.97,1.56,1.39,0,2.96,0,4.36,0,10.74,0,21.5,0,32.23,0"/><path class="b" d="M8.45,199.86c2,0,4.1,0,6.1,0,1.1-.04,2.42.14,3.48-.21,6.99-2.2,14.44-4.65,21.78-2.63,2.72.56,5.23,2,7.84,2.84,2,0,4.1,0,6.1,0,7.83,0,15.69,0,23.52,0,35.42,0,70.85,0,106.28,0"/><path class="b" d="M8.45,195.13c1.4-.06,2.99.17,4.36-.19,2.3-.71,4.7-1.41,6.97-2.2,7.53-2.83,14.85-4.73,22.65-1.59,1.76.66,3.58,1.54,5.23,2.43,1.1.5,2.23,1.56,3.48,1.55,1.7,0,3.53,0,5.23,0,8.12,0,16.27,0,24.39,0,34.26,0,68.53,0,102.79,0"/><path class="b" d="M8.45,189.46c16.57-2.8,23.05-13.59,40.07-2.36,1.67,1.06,3.49,2.16,5.23,3.1,1.07.33,2.39.16,3.48.2,1.99,0,4.1,0,6.1,0,6.38,0,12.79,0,19.16,0,33.68,0,67.37,0,101.05,0"/><path class="b" d="M8.45,183.8c3.89-.35,7.85-1.1,11.32-2.95,11.02-6.03,17.62-9.38,28.75-1.02,3.34,2.36,8.91,5.86,13.07,5.83,7.54,0,15.11,0,22.65,0,33.1,0,66.21,0,99.31,0"/><path class="b" d="M8.45,179.72c3.56.1,7.33-.19,10.45-2.08,9.28-5.64,16.78-14.56,27.88-6.44,9.37,7.88,14.63,7.42,26.13,7.53,1.72.09,3.58.36,5.23.88,1.12.34,2.35,1.03,3.48,1.33,2.58,0,5.26,0,7.84,0,31.36,0,62.72,0,94.08,0"/><path class="b" d="M8.45,176.21c2.88-.06,5.85.13,8.71-.09,8.74-4.32,15.75-18.35,27.01-13.45,2.27,1.02,4.15,2.87,6.1,4.36,5.39,4.18,11.72,4.73,18.29,4.2,3.18-.16,6.54-.23,9.58.87,3.16,1.38,6.26,3.11,9.58,4.09,2.29.04,4.68,0,6.97.02,29.62,0,59.24,0,88.86,0"/><path class="b" d="M8.45,171.48c2.58,0,5.26,0,7.84,0,1.4-.11,3.09.33,4.36-.4,6.45-5.22,13.92-17.92,23.52-14.57,2.66.95,4.67,3.17,6.97,4.7,5.39,3.84,11.89,4.27,18.29,4.07,2.91,0,5.96.16,8.71,1.2,3.97,1.82,7.9,4.04,12.2,5,1.99,0,4.1,0,6.1,0,13.93,0,27.88,0,41.81,0,5.21,0,10.47,0,15.68,0,1.39,0,2.96,0,4.36,0,1.68-.52,3.48-1.19,5.23-1.51,3.77-.78,7.77-.31,11.32,1.12,1.04.4,2.39.43,3.48.39,1.71.05,3.56-.02,5.23-.44"/><path class="b" d="M8.45,166.75c4.34-.03,8.73.06,13.07-.04,6.66-5.44,15.31-20.1,25.26-14.88,1.46.83,2.9,2.04,4.36,2.87,2.4,1.43,5.11,2.51,7.84,3.11,5.42,1.26,11.1.58,16.55,1.62,3.35.61,6.34,2.5,9.58,3.47,4.53,1.51,9.29,2.39,13.94,3.44,2.51.74,5.25.31,7.84.42,4.05,0,8.15,0,12.2,0,11.61,0,23.24,0,34.85,0,5.37-3.42,11.81-6.53,18.29-4.71,1.42.36,2.93,1.02,4.36,1.39,2.24.59,4.66.86,6.97,1"/><path class="b" d="M8.45,162.02c4.34,0,8.73,0,13.07,0,7.13-4.12,15-17.24,24.39-15.23,2.43.68,4.57,2.35,6.97,3.12,6.38,2.48,13.34,2.1,20.04,2.64,4.5.23,8.65,2.24,13.07,2.91,7.75,1.16,15.68,2.35,22.65,6.15.4.27,1.26.5,1.74.4,1.09,0,2.39,0,3.48,0,2.58,0,5.26,0,7.84,0,8.12,0,16.27,0,24.39,0,1.09-.05,2.45.17,3.48-.26,1.99-1.32,4.06-2.78,6.1-4.03,11.32-7.06,16.8-2.74,27.88,1.16"/><path class="b" d="M8.45,157.29c4.05,0,8.15,0,12.2,0,2.23-.42,4.2-2.04,6.1-3.21,3.5-2.4,6.83-5.18,10.45-7.39,2.84-1.71,6.2-3.21,9.58-2.62,1.73.38,3.48,1.2,5.23,1.56,6.56,1.56,13.37.79,20.04.9,4.1-.11,8.13,1.05,12.2,1.21,13.49-.21,18.66,1.63,29.62,9.55,8.7,0,17.43,0,26.13,0,1.84.22,3.65-.5,5.23-1.39,2.37-1.28,4.68-2.89,6.97-4.29,3.89-2.43,8.38-4.42,13.07-4.04,6.64.6,12.61,3.97,18.29,7.21"/><path class="b" d="M8.45,152.51c1.99-.1,4.1-.23,6.1-.25,2,0,4.11.19,6.1-.09,7.93-.94,14.34-6.31,21.78-8.73,1.65-.49,3.51-.77,5.23-.56,2.26.45,4.66.7,6.97.62,6.14-.2,12.18-1.68,18.29-2.14,3.75-.43,7.59.18,11.32-.36,3.73-.52,7.55-1.26,11.32-.76,8.27,1.11,14.65,7.19,20.91,12.19,6.64.33,13.38.02,20.04.12,1.73-1.05,3.43-2.46,5.23-3.41,1.71-.83,3.58-1.68,5.23-2.64,3.77-2.12,7.77-4.37,12.2-4.59,4.3-.25,8.38,1.57,12.2,3.34,1.67.81,3.59,1.43,5.23,2.31,2.36,1.29,4.66,2.92,6.97,4.29"/><path class="b" d="M8.45,146.55c2.3.08,4.7.17,6.97.51,1.7.24,3.5.82,5.23.77,2.29-.03,4.68.07,6.97-.06,5.12-.73,9.87-3,14.81-4.42,1.37-.38,2.93-.69,4.36-.75,2,.02,4.11.24,6.1-.08,4.77-.65,9.35-2.4,13.94-3.78,4.79-1.58,9.8-2.44,14.81-2.87,3.2-.57,6.36-1.73,9.58-2.18,9.81-1.68,17.54,5.97,24.39,11.82.74.65,1.82,1.51,2.61,2.1,1.65.44,3.54.13,5.23.22,3.46,0,6.99,0,10.45,0,2.34-1.58,4.58-3.53,6.97-5.05,1.6-1,3.54-1.67,5.23-2.51,5.72-2.89,11.33-4.35,17.42-1.54,2.7,1.16,5.27,2.8,7.84,4.21,1.63.94,3.57,1.57,5.23,2.44,1.43.73,2.91,1.76,4.36,2.46.77,0,1.84,0,2.61,0"/><path class="b" d="M8.45,141c2.61.61,5.27,1.37,7.84,2.1,3.46,0,6.99,0,10.45,0,8.12,0,16.27,0,24.39,0,3.71.19,7.15-1.85,10.45-3.28,5.1-2.45,10.17-5.2,15.68-6.6,2.31-.53,4.77-.89,6.97-1.8,4.95-1.93,10.28-4.23,15.68-2.88,6.14,1.51,10.98,6.01,15.68,9.99,2.11,1.74,4.37,3.63,6.97,4.58,1.69,0,3.53,0,5.23,0,1.09,0,2.4.02,3.48-.03,3.1-1.26,5.84-3.39,8.71-5.06,2.12-1.27,4.66-1.89,6.97-2.7,4.47-1.59,9.51-1.92,13.94,0,3.38,1.36,6.46,3.51,9.58,5.35,1.33.79,2.89,1.58,4.36,2.08.33.23,1.33.43,1.74.36,2.29,0,4.68,0,6.97,0"/><path class="b" d="M8.45,134.61c2.59,1.21,5.26,2.48,7.84,3.72,1.99.08,4.1.02,6.1.04,6.67,0,13.37,0,20.04,0,7.25,0,14.53,0,21.78,0,1.58-.34,2.95-1.71,4.36-2.46,1.94-1.22,4.03-2.46,6.1-3.47,3.03-1.6,6.58-2.09,9.58-3.75,4.48-2.3,8.84-5.33,13.94-6.03,10.86-1.54,17.01,9.35,26.13,12.82,3.06,1.14,6.51.98,9.58-.02,2.33-.72,4.65-1.8,6.97-2.54,4.78-1.21,9.95-1.95,14.81-.78,4.76,1.07,8.81,4.02,13.07,6.24,4.92,0,9.89,0,14.81,0"/><path class="b" d="M8.45,127.81c2,1.31,4.09,2.74,6.1,4.03,1.07.61,2.23,1.63,3.48,1.8,5.21,0,10.47,0,15.68,0,11.9,0,23.82,0,35.72,0,2.54-1.74,5.06-3.7,7.84-5.05,2.61-1.19,5.45-2.11,7.84-3.74,6.26-3.89,13.05-9.45,20.91-7.68,3.93.85,7.26,3.35,10.45,5.66,3.95,2.87,8.19,5.77,13.07,6.71,4.02.84,8.16.09,12.2-.16,3.78-.12,7.67.17,11.32,1.17,1.74.47,3.57,1.14,5.23,1.86,1.1.38,2.28,1.35,3.48,1.24,7.25,0,14.53,0,21.78,0"/><path class="b" d="M8.45,121.13c3.41,2.63,6.65,5.71,10.45,7.78,5.5,0,11.05,0,16.55,0,5.79,0,11.63,0,17.42,0,3.75,0,7.57,0,11.32,0,1.4,0,2.96,0,4.36,0,.82,0,1.89.1,2.61-.38,2.66-2.19,5.51-4.39,8.71-5.72,7.88-3.3,14.59-10.12,23.52-10.46,6.64-.28,12.07,4.15,17.42,7.46,5.03,3.25,10.6,5.82,16.55,6.77,2.58.47,5.28.76,7.84,1.31,1.7.29,3.48,1.11,5.23,1.01,11.03,0,22.08,0,33.1,0"/><path class="b" d="M8.45,115.18c2.87,2.44,5.63,5.19,8.71,7.36.76.52,1.74,1.31,2.61,1.64.44,0,1.3,0,1.74,0,4.34,0,8.73,0,13.07,0,11.61-.05,23.24.09,34.85-.05,2.46-2.21,5.03-4.49,7.84-6.25,2.16-1.34,4.68-2.23,6.97-3.33,5.48-2.51,11.29-4.92,17.42-4.9,10.53-.1,18.82,7.33,27.88,11.63,1.37.68,2.94,1.39,4.36,1.97,1.06.41,2.32,1.06,3.48.93,5.5,0,11.05,0,16.55,0,9.86,0,19.75,0,29.62,0"/><path class="b" d="M8.45,110.64c2.31,1.99,4.6,4.21,6.97,6.14,1.3.87,2.78,2.47,4.36,2.67,4.34,0,8.73,0,13.07,0,11.32,0,22.66,0,33.97,0,4.1-3.53,8.03-7.62,13.07-9.82,6.01-2.55,12.76-3.41,19.16-2.05,5.08,1.04,10.01,2.91,14.81,4.83,4.13,1.8,8.13,4,12.2,5.93.76.36,1.8.88,2.61,1.12.43,0,1.31,0,1.74,0,1.99,0,4.1,0,6.1,0,5.21,0,10.47,0,15.68,0,10.45,0,20.91,0,31.36,0"/><path class="b" d="M8.45,107.78c2.86,2.29,5.62,4.89,8.71,6.87,4.91.19,9.89.02,14.81.07,11.03,0,22.08,0,33.1,0,6.65-4.9,13.03-11.49,21.78-11.93,9.45-.75,17.58,5.05,26.13,8.09,2.62,1.08,5.26,2.38,7.84,3.57,1.33.52,2.96.19,4.36.28,2.29,0,4.68,0,6.97,0,17.13,0,34.27,0,51.4,0"/><path class="b" d="M8.45,105.42c1.41,1,2.95,2.16,4.36,3.16.78.5,1.66,1.32,2.61,1.4,5.21,0,10.47,0,15.68,0,11.32-.04,22.66.08,33.97-.05,7.62-4.55,14.95-11.31,24.39-10.94,8.28.17,15.14,5.45,22.65,8.23,1.43.58,2.98,1.32,4.36,2.01.72.41,1.77.87,2.61.74,21.48,0,42.98,0,64.46,0"/><path class="b" d="M8.45,102.5c1.4.88,2.93,1.87,4.36,2.7,1.99.13,4.1.03,6.1.06,4.92,0,9.89,0,14.81,0,6.38,0,12.79,0,19.16,0,4.34,0,8.73,0,13.07,0,.88.14,1.88-.4,2.61-.82,1.11-.6,2.4-1.36,3.48-2,3.08-1.83,6.23-3.74,9.58-5.03,7.12-3.05,13.97-2.58,20.91.68,2.31,1.02,4.66,2.22,6.97,3.24,2.69,1.04,5.39,2.29,7.84,3.81,6.93.33,13.96.02,20.91.12,15.09,0,30.2,0,45.3,0"/><path class="b" d="M8.45,98.34c1.39.73,2.83,1.78,4.36,2.19,2.29,0,4.68,0,6.97,0,5.21,0,10.47,0,15.68,0,6.67,0,13.37,0,20.04,0,4.34,0,8.73,0,13.07,0,.86.1,1.91-.22,2.61-.7,1.1-.61,2.39-1.37,3.48-2,3.04-1.81,6.3-3.37,9.58-4.69,6.85-2.93,13.31-2.56,20.04.49,4.38,2.05,9.12,3.54,13.07,6.42.67.59,1.79.5,2.61.48,1.39,0,2.96,0,4.36,0,4.34,0,8.73,0,13.07,0,15.38,0,30.79,0,46.17,0"/><path class="b" d="M8.45,92.67c2.2,1.21,4.53,2.46,6.97,3.11,1.7.03,3.53,0,5.23.01,4.92,0,9.89,0,14.81,0,6.67,0,13.37,0,20.04,0,4.92,0,9.89,0,14.81,0,2.39-1.11,4.64-2.77,6.97-4,2.21-1.22,4.65-2.24,6.97-3.23,7.39-3.22,13.77-2.55,20.91.89,2.27,1.04,4.63,2.15,6.97,3.03,1.82.82,3.61,2.03,5.23,3.19,6.94.31,13.95.02,20.91.12,15.09,0,30.2,0,45.3,0"/><path class="b" d="M8.45,85.73c7.39,4.55,10.36,3.14,18.29,3.75,2.64.22,5.31.83,7.84,1.59,3.75,0,7.57,0,11.32,0,4.92,0,9.89,0,14.81,0,1.7,0,3.53,0,5.23,0,.8,0,1.87.08,2.61-.28,3.76-2.21,7.3-4.96,11.32-6.69,6.85-3.05,13.14-3.73,20.04-.35,2.96,1.36,5.8,3.14,8.71,4.59,1.98.94,4.15,1.73,6.1,2.74,6.96,0,13.95,0,20.91,0,15.97,0,31.95,0,47.91,0"/><path class="b" d="M8.45,78.48c7.55,4.86,10.26,2.85,18.29,3.45,2.99.27,5.97,1.12,8.71,2.32,1.11.48,2.4,1.11,3.48,1.66.43.32,1.22.51,1.74.43,3.17,0,6.41,0,9.58,0,4.05,0,8.15,0,12.2,0,1.4,0,2.96,0,4.36,0,.86.06,1.94-.04,2.61-.64,3.44-2.16,6.69-4.83,10.45-6.41,6.52-2.82,12.59-3.76,19.16-.47,4.72,2.3,9.01,5.52,13.94,7.42,7.23.29,14.53.02,21.78.11,16.26,0,32.53,0,48.78,0"/><path class="b" d="M8.45,71.55c7.82,4.88,10.18,2.4,18.29,2.63,5.15.21,9.76,2.86,13.94,5.66.78.51,1.82,1.2,2.61,1.68,1.39.17,2.96.06,4.36.09,3.46,0,6.99,0,10.45,0,4.05,0,8.15,0,12.2,0,2.7-1.5,5.11-3.69,7.84-5.15,6.82-3.21,13.5-6.16,20.91-2.83,4.83,2.12,9.08,5.43,13.94,7.51.95.73,2.37.4,3.48.46,1.39,0,2.96,0,4.36,0,4.63,0,9.31,0,13.94,0,16.26,0,32.53,0,48.78,0"/><path class="b" d="M8.45,65.23c2.18,1.1,4.53,2.18,6.97,2.49,2.61.28,5.27-.47,7.84-.84,2.88-.46,5.95-.41,8.71.58,5.33,1.87,9.32,6.17,13.94,9.24,1.96.36,4.11.08,6.1.17,4.34,0,8.73,0,13.07,0,1.7,0,3.53,0,5.23,0,.79,0,1.87.07,2.61-.26,1.66-1.24,3.44-2.61,5.23-3.67,1.34-.77,2.98-1.37,4.36-2.07,2.51-1.21,5.12-2.51,7.84-3.16,5.95-1.62,11.7,1.49,16.55,4.66,2.49,1.66,5.37,2.82,7.84,4.5h68.82"/><path class="b" d="M8.45,59.55c2.49.94,5.15,1.87,7.84,1.86,2.35-.05,4.69-.84,6.97-1.34,5.08-1.36,9.85-.13,13.94,3.08,3.92,2.76,7,6.86,11.32,9.01,4.05,0,8.15,0,12.2,0,4.05,0,8.15,0,12.2,0,1.6-.57,2.9-2.11,4.36-2.97,2.44-1.59,5.32-2.62,7.84-4.09,8.07-4.48,13.52-3.4,20.91,1.7,2.74,1.99,5.93,3.43,8.71,5.34,22.94.08,45.88,0,68.82.03"/><path class="b" d="M8.45,54.25c10.3,2.92,10.39-.26,19.16-1.04,6.08-.16,10.72,4.5,14.81,8.41,2.35,2.13,4.74,4.83,7.84,5.79,7.25-.02,14.53.04,21.78-.03,2.93-2.5,5.9-5.16,9.58-6.49,3.06-1.46,6.18-3.19,9.58-3.67,7.24-1.08,12.77,4.66,18.29,8.37,1.05.65,2.29,1.46,3.48,1.81,1.4,0,2.96,0,4.36,0,3.17,0,6.41,0,9.58,0,18.87,0,37.75,0,56.62,0"/><path class="b" d="M8.45,48.66c3.42.58,7.02,1.19,10.45.36,2.84-.66,5.76-1.65,8.71-1.51,9.59.6,14.02,10.86,21.78,15.03,2.26.34,4.69.07,6.97.15,4.05,0,8.15,0,12.2,0,6.76-5.37,7.47-8.22,16.55-10.52,8.96-2.72,15.4,3.5,21.78,8.75.75.58,1.74,1.39,2.61,1.77,1.7,0,3.53,0,5.23,0,3.46,0,6.99,0,10.45,0,4.34,0,8.73,0,13.07,0,2.59.04,5.26.02,7.84-.26,4.91.41,9.88.23,14.81.26,7.54,0,15.11,0,22.65,0"/><path class="b" d="M8.45,42.96c2.57.28,5.25.6,7.84.41,2.32-.18,4.67-.9,6.97-1.22,11.18-1.84,16.65,10.21,24.39,15.8,3.75.03,7.57,0,11.32.01,1.4,0,2.96,0,4.36,0,.81,0,1.87.08,2.61-.29,3.07-2.37,5.78-5.32,8.71-7.84,2.24-2.04,4.79-3.32,7.84-3.55,10.65-1.63,17.79,6.66,26.13,11.56,8.39.33,16.86.01,25.26.12,2.58,0,5.26,0,7.84,0,1.98-.38,4.06-.94,6.1-.77,1.72.05,3.54.48,5.23.77,2.88,0,5.84,0,8.71,0,7.25,0,14.53,0,21.78,0"/><path class="b" d="M8.45,38.15c2.57.32,5.25.65,7.84.44,2.02-.18,4.09-.73,6.1-1,10.81-1.79,16.61,9.41,23.52,15.58,6.08.14,12.21,0,18.29.05,4.55-3.21,8.1-7.9,13.07-10.52,8.19-3.25,18.75,4.72,26.13,7.88,2.73,1.24,5.7,2.25,8.71,2.47,4.02.4,8.15.07,12.2.18,6.08,0,12.21,0,18.29,0,1.97-.42,4.07-.8,6.1-.75,2.61-.09,5.25.66,7.84.75,8.99,0,18.01,0,27.01,0"/><path class="b" d="M8.45,34.75c2.25.51,4.65.97,6.97.93,2.03-.05,4.11-.61,6.1-.97,10.99-2.56,16.56,7.5,23.52,13.79,4.34,0,8.73,0,13.07,0,1.4,0,2.96,0,4.36,0,1.19.06,2.59.06,3.48-.86,3.64-2.57,7.02-5.89,11.32-7.31,4.53-1.14,8.96,1.52,13.07,3.1,3.61,1.55,7.4,2.95,11.32,3.42,5.22.79,10.46-.73,15.68-.32,4.39.28,8.74,1.27,13.07,1.96,1.7.03,3.53,0,5.23.02,2.29-.04,4.69.09,6.97-.07,3.08-.89,6.38-1.19,9.58-1.09,3.79.02,7.57.88,11.32,1.16,6.67,0,13.37,0,20.04,0"/><path class="b" d="M8.45,32.7c6.23,2.52,8.64,1.69,14.81.16,9.04-2.26,15.03,5.26,20.91,10.77,2.85.34,5.84.05,8.71.14,4.92,0,9.89,0,14.81,0,9.84-5.02,10.81-4.98,20.91-.69,2.15,1.06,4.66.6,6.97.69,2.87-.09,5.86.2,8.71-.14,4.78-1.73,9.64-3.67,14.81-3.64,7.1-.31,13.83,3.01,20.91,2.81,1.75-.07,3.53-.72,5.23-1.07,1.97-.41,4.09-.63,6.1-.69,7.92-.21,15.71,1.66,23.52,2.66,2.87.17,5.84.02,8.71.07"/><path class="b" d="M8.45,31.45c2.39,1.28,5.08,2.45,7.84,2.37,6.69-.77,11.16-4.95,18.29-1.52,2.19,1.04,4.24,2.6,6.1,4.13,1.33.91,2.56,2.83,4.36,2.6,19.16,0,38.33,0,57.49,0,1.7,0,3.53,0,5.23,0,.82-.17,1.84-.71,2.61-1.02,3.92-1.42,8.03-2.6,12.2-3.01,5.5-.63,11.05.55,16.55.18,2.67-.16,5.2-1.38,7.84-1.71,7.93-1.18,15.8,1.22,23.52,2.75,4.27,1.01,8.71,1.1,13.07,1.44"/><path class="b" d="M8.45,30.75c7.8,5.37,10.49,2.8,18.29-.07,3.06-1.06,6.5-1.26,9.58-.18,2.47.83,4.79,2.26,6.97,3.66,4.31.37,8.74.04,13.07.14,9.57,0,19.17,0,28.75,0,7.54,0,15.11,0,22.65,0,2.58,0,5.26,0,7.84,0,1.09,0,2.4.03,3.48-.04.77-.31,1.84-.72,2.61-1.02,5.6-2.25,11.54-3.54,17.42-4.81,3.45-.84,6.86-2.22,10.45-2.37,7.7-.54,15.23,1.72,22.65,3.45,3.7.97,7.58,1.32,11.32,2.03"/><path class="b" d="M8.45,29.58c6.96,0,13.95,0,20.91,0,2.28-.38,4.62-1.09,6.97-.84,1.43.09,2.99.42,4.36.83,1.4.02,2.96,0,4.36,0,5.5,0,11.05,0,16.55,0,13.64,0,27.3,0,40.94,0,5.5,0,11.05,0,16.55,0,2.58,0,5.26,0,7.84,0,1.76-.77,3.49-1.95,5.23-2.78,10.36-5.33,22.47-7.55,33.97-5.31,3.24.58,6.47,1.59,9.58,2.65,2.55.78,5.26,1.37,7.84,2.04"/><path class="b" d="M8.45,24.85c32.23,0,64.47,0,96.7,0,6.08,0,12.21,0,18.29,0,2.58,0,5.26,0,7.84,0,1.51-.58,2.91-1.79,4.36-2.52,3.96-2.43,8.63-3.14,13.07-4.23,5.39-1.31,10.97-2.58,16.55-2.1,3.66.26,7.21,1.52,10.45,3.18,2.49,1.09,5.21,1.87,7.84,2.52"/><path class="b" d="M8.45,20.12c33.39,0,66.79,0,100.18,0,7.83,0,15.69,0,23.52,0,1.1-.05,2.45.17,3.48-.27,1.87-1.11,3.98-2.1,6.1-2.62,10.09-1.39,20.33-8.63,30.49-3.85,1.45.67,2.92,1.74,4.36,2.43,2.16,1.06,4.6,1.75,6.97,2.12"/></svg>