<?xml version="1.0" encoding="UTF-8"?><svg id="a" xmlns="http://www.w3.org/2000/svg" width="1920" height="2400" viewBox="0 0 192 240"><defs><style>.b{fill:none;stroke:#fff;stroke-miterlimit:10;stroke-width:.4px;}.c{stroke-width:0px;}</style></defs><rect class="c" width="192" height="240"/><path class="b" d="M8.12,230.55c4.94-.05,9.93.1,14.87-.06,1.9-1.11,4.01-2.14,6.12-2.77,3.09-.96,6.45-1.03,9.62-.46,3.51.6,6.95,1.85,10.49,2.24,8.69,1.18,17.49,1.09,26.23,1.05,2.88-.09,5.88.19,8.74-.14,7.02-2.99,13.72-8.91,21.86-6.57,4.77,1.24,8.66,4.54,13.12,6.5,1.06.33,2.4.16,3.5.2,2,0,4.12,0,6.12,0,1.7-.07,3.57.17,5.25-.16,1.4-.52,2.96-1.16,4.37-1.66,3.61-1.47,7.63-1.08,11.37-.39,3.23.5,6.4,1.75,9.62,2.21,8.15,0,16.33,0,24.48,0"/><path class="b" d="M8.12,225.8c4.06,0,8.18,0,12.24,0,1.45-.34,2.92-1.16,4.37-1.5,1.96-.53,4.1-.75,6.12-.6,1.74.13,3.58.54,5.25,1.06,1.11.3,2.34.95,3.5,1.03,5.52,0,11.09,0,16.61,0,6.4,0,12.84,0,19.24,0,2,0,4.12,0,6.12,0,1.41-.06,3.05.22,4.37-.36,11.75-4.86,16.3-5.9,27.98.18,1.37.34,2.97.12,4.37.18,2.3,0,4.7,0,7,0,2.3,0,4.7,0,7,0,1.21.16,2.44-.74,3.5-1.2,1.93-.95,4.01-1.97,6.12-2.45,3.17-.61,6.53-.11,9.62.71,1.73.47,3.57,1.11,5.25,1.75,1.37.48,2.87,1.34,4.37,1.18,7.57,0,15.17,0,22.74,0"/><path class="b" d="M8.12,221.05c4.35,0,8.76,0,13.12,0,.82.08,1.83-.22,2.62-.36,1.4-.23,2.96-.29,4.37-.17,1.12.08,2.39.39,3.5.53,1.41,0,2.97,0,4.37,0,3.77,0,7.6,0,11.37,0,10.78,0,21.58,0,32.35,0,2.33.05,4.71-.56,7-.96,3.14-.61,6.41-1.07,9.62-.91,3.27.1,6.49,1.02,9.62,1.87,3.77,0,7.6,0,11.37,0,4.35,0,8.76,0,13.12,0,4.94-1.94,9.3-5.89,14.87-5.98,7.15-.45,13.72,3.02,20.11,5.73.72.32,1.85.25,2.62.25,1.4,0,2.97,0,4.37,0,3.77,0,7.6,0,11.37,0"/><path class="b" d="M8.12,216.31c15.73,0,31.48,0,47.22,0,5.52,0,11.09,0,16.61,0,3.49-.07,7.07.29,10.49-.5,2.86-.45,5.86-.58,8.74-.27,1.73.1,3.53.74,5.25.76,4.35,0,8.76,0,13.12,0,4.35,0,8.76,0,13.12,0,1.4,0,2.97,0,4.37,0,1.17.11,2.5-.09,3.5-.76,4.25-2.15,8.44-4.75,13.12-5.87,6.72-1.83,13.82-.6,20.11,2.13,3.72,1.48,7.42,3.31,11.37,4.09,1.05.38,2.39.46,3.5.41,1.7,0,3.55,0,5.25,0"/><path class="b" d="M8.12,211.56c31.48.02,62.97-.03,94.44,0,6.11,0,12.26,0,18.36,0,2.3,0,4.7,0,7,0,2.32-.82,4.68-1.83,7-2.66,3.43-1.29,7-2.41,10.49-3.53,5.58-1.96,11.67-3.13,17.49-1.52,2.98.74,5.9,1.96,8.74,3.11,1.38.59,3.01,1.07,4.37,1.69,1.51.75,3.05,1.84,4.37,2.88,1.09.08,2.4.04,3.5.05"/><path class="b" d="M8.12,206.81c32.64,0,65.29,0,97.94,0,6.98,0,14,0,20.99,0,4.94-.8,10.02-1.36,14.87-2.65,5.91-1.81,11.2-5.7,17.49-6.26,4.2-.45,8.42.77,12.24,2.42,1.41.62,3.04,1.24,4.37,2.01,1.87,1.16,3.64,2.77,5.25,4.27.76.25,1.83.2,2.62.2"/><path class="b" d="M8.12,202.06c34.1,0,68.21,0,102.31,0,2.89,0,5.86,0,8.74,0,2.88-.3,5.85-.5,8.74-.35,4.34.16,8.8.76,13.12.03,2.44-.48,4.79-1.66,7-2.79,10.39-5.74,16.26-6.6,27.11-1.09,1.87,1,3.65,2.48,5.25,3.86,1,.54,2.4.28,3.5.33"/><path class="b" d="M8.12,197.32c18.94,0,37.9,0,56.84,0,6.4,0,12.84,0,19.24,0,2.89,0,5.86,0,8.74,0,1.43-.05,2.96-.64,4.37-.86,3.73-.73,7.59-1.04,11.37-1.49,4.61-.73,9.34-1.3,13.99-.58,6.12.69,12.13,3.32,18.36,2.57,2.42-.37,4.76-1.45,7-2.39,4.92-2.2,10.26-4.24,15.74-3.5,5.6.83,10.98,3.23,15.74,6.23,1.4.06,2.97.02,4.37.03"/><path class="b" d="M8.12,192.57c17.78,0,35.56,0,53.34,0,6.11,0,12.25,0,18.36,0,2.3,0,4.7,0,7,0,1.12-.07,2.53.26,3.5-.44,8.01-5.11,17.66-7.43,27.11-6.16,4.76.61,9.38,2.14,13.99,3.38,3.39.89,6.99,1.63,10.49,1.08,6.33-1.42,12.63-4.02,19.24-3.19,5.49.55,10.62,2.86,15.74,4.76,2.15,1,4.7.42,7,.56"/><path class="b" d="M8.12,187.82c16.9,0,33.82,0,50.72,0,5.82,0,11.67,0,17.49,0,2,0,4.12,0,6.12,0,1.11-.06,2.49.22,3.5-.35,7.99-5.99,15.86-10.57,26.23-8.92,8.29.98,16.18,4.18,24.48,5.04,3.2.38,6.46-.13,9.62-.63,4.91-.71,10-.72,14.87.31,5.36,1.05,10.44,3.29,15.74,4.55,2.29.02,4.7,0,7,0"/><path class="b" d="M8.12,183.07c15.73,0,31.48,0,47.22,0,7.28,0,14.58,0,21.86,0,1.27.18,2.45-.91,3.5-1.47,2.02-1.25,4.1-2.65,6.12-3.9,6.4-4.15,13.34-6.48,20.99-4.88,6.98,1.41,13.89,3.42,20.99,4.24,5.79.83,11.67.57,17.49.31,4.4-.03,8.84.62,13.12,1.66,4.69,1.12,9.31,2.73,13.99,3.88,3.44.4,7.03.05,10.49.16"/><path class="b" d="M8.12,178.17c1.68.33,3.54.09,5.25.16,3.18,0,6.44,0,9.62,0,9.03,0,18.08,0,27.11,0,4.35,0,8.76,0,13.12,0,1.4,0,2.97,0,4.37,0,.8,0,1.87.08,2.62-.27,4.01-2.51,8.03-5.15,12.24-7.31,6.36-3.54,13.01-5.08,20.11-2.86,4.94,1.51,9.78,3.56,14.87,4.58,7.44,1.75,15.15,1.6,22.74,1.38,4.68-.14,9.41.32,13.99,1.27,4.4.86,8.76,2.17,13.12,3.21,5.52,0,11.09,0,16.61,0"/><path class="b" d="M8.12,170.71c1.77.35,3.63.97,5.25,1.77.81.37,1.69,1.15,2.62,1.09,6.11,0,12.25,0,18.36,0,5.82,0,11.67,0,17.49,0,3.48,0,7.02,0,10.49,0,5.49-2.34,10.45-5.88,15.74-8.63,7.34-4.1,14.13-4.93,21.86-1.26,3.81,1.68,7.41,4.02,11.37,5.38,4.81,1.58,9.81,2.76,14.87,3.16,4.93.43,9.93.13,14.87.2,4.09.05,8.2.64,12.24,1.15,10.19,0,20.41,0,30.6,0"/><path class="b" d="M8.12,164.07c2.72-.02,5.54.62,7.87,2.05,1.43.83,2.82,2.11,4.37,2.71,12.53,0,25.07,0,37.6,0,8.84-4.16,18.15-12.9,27.98-13.65,10.49-.6,17.77,8.54,27.11,11.66,1.97.72,4.08,1.4,6.12,1.89,2.28.23,4.7.04,7,.1,4.65-.04,9.35.07,13.99-.05,14.56.08,29.15.04,43.72.05"/><path class="b" d="M8.12,159.42c5.27-1.04,7.85.41,12.24,2.95,1.35.65,2.78,1.88,4.37,1.7,11.36-.04,22.75.08,34.1-.05,9.81-6.96,20.21-16.88,33.23-12.69,6.05,1.84,11.18,5.76,16.61,8.85,2.79,1.46,5.72,3,8.74,3.89,3.47,0,7.02,0,10.49,0,3.18,0,6.44,0,9.62,0,2.85-.64,5.83-.73,8.74-.59,2.9-.01,5.86.36,8.74.59,9.61,0,19.25,0,28.86,0"/><path class="b" d="M8.12,157.2c4.59-1.21,7.1-1.01,11.37.94,1.11.38,2.31,1.16,3.5,1.2,6.69,0,13.42,0,20.11,0,4.06,0,8.18,0,12.24,0,2,0,4.12,0,6.12,0,.9-.4,1.87-1.34,2.62-1.96,3.23-2.69,6.66-5.35,10.49-7.12,2.72-1.3,5.77-1.85,8.74-2.2,5.26-.69,10.7-.26,15.74,1.44,6.17,2.04,11.81,5.45,17.49,8.55.76.4,1.83.92,2.62,1.27,2.3.07,4.7.01,7,.03,2,0,4.12,0,6.12,0,1.4-.06,3.04.21,4.37-.33,1.95-.63,4.06-1.28,6.12-1.38,2.59-.04,5.28-.24,7.87-.2,2.32.03,4.74.29,7,.81,1.42.26,2.93.95,4.37,1.11,7.28,0,14.58,0,21.86,0"/><path class="b" d="M8.12,154.59c19.23-.02,38.48.03,57.71-.02,3.6-2.87,7.68-5.45,12.24-6.39,3.52-.51,7.06-1.22,10.49-2.14,7.14-1.94,15.15-2.9,21.86.89,3.03,1.64,5.78,3.89,8.74,5.64,1.6.83,3.37,2.12,5.25,2.03,3.18,0,6.44,0,9.62,0,2.31-.66,4.64-1.63,7-2.14,1.68-.35,3.55-.29,5.25-.51,5.98-.82,11.89-.57,17.49,1.89.42.18,1.33.55,1.75.74.42,0,1.33.02,1.75.02,1.4,0,2.97,0,4.37,0,4.06,0,8.18,0,12.24,0"/><path class="b" d="M8.12,149.84c14.86,0,29.74,0,44.6,0,3.77,0,7.6,0,11.37,0,2.29-.07,4.72.17,7-.14,1.91-.97,4.04-1.76,6.12-2.26,2-.46,4.19-.67,6.12-1.4,4.26-1.52,8.16-3.99,12.24-5.89,5.82-2.86,12.04-3.84,17.49.4,6.48,4.79,12.14,10.83,20.99,9.04,3.19-.57,6.34-1.86,9.62-1.88,4.93-.39,9.9-1.77,14.87-.97,2.05.29,4.17.88,6.12,1.58,1.41.45,2.9,1.28,4.37,1.52,4.94,0,9.93,0,14.87,0"/><path class="b" d="M8.12,145.09c15.73,0,31.48,0,47.22,0,3.77,0,7.6,0,11.37,0,1.4,0,2.97,0,4.37,0,.81,0,1.88.08,2.62-.3,3.12-1.21,6.57-1.66,9.62-3.07,4.61-2.14,8.71-5.31,13.12-7.81,6.38-3.72,12.32-4.88,18.36.22,5.77,4.56,11.41,10.63,19.24,10.97,2.3.06,4.7-.08,7-.24,1.7-.07,3.55.07,5.25-.15,4.63-.58,9.3-1.64,13.99-1.17,2.64.22,5.32.84,7.87,1.52,5.23.1,10.51,0,15.74.04"/><path class="b" d="M8.12,140.34c13.99,0,27.99,0,41.97,0,6.4,0,12.84,0,19.24,0,2.32-.78,4.66-1.83,7-2.57,3.64-1.17,7.21-2.76,10.49-4.73,6.4-3.56,12.56-8.7,20.11-9.31,5.64-.41,9.99,3.84,13.99,7.22,3.75,3.23,7.66,6.52,12.24,8.5,2.4,1.31,5.25.8,7.87.89,3.47,0,7.02,0,10.49,0,10.78,0,21.58,0,32.35,0"/><path class="b" d="M8.12,135.59c14.86,0,29.74,0,44.6,0,4.06,0,8.18,0,12.24,0,3.15-1.45,6.35-3.01,9.62-4.2,3.31-1.22,6.5-2.89,9.62-4.51,4.06-2.08,8.12-4.28,12.24-6.24,3.59-1.68,7.39-3.27,11.37-3.71,5.8-.89,10.69,3.02,14.87,6.52,4.49,3.76,8.88,7.83,13.99,10.75.75.43,1.83.99,2.62,1.35,1.4.07,2.97.02,4.37.03,3.47,0,7.02,0,10.49,0,9.9,0,19.83,0,29.73,0"/><path class="b" d="M8.12,130.85c17.19,0,34.4,0,51.59,0,.79,0,1.84,0,2.62,0,2.01-1.08,4.04-2.4,6.12-3.36,2.84-1.39,5.89-2.54,8.74-3.9,1.76-.83,3.52-1.96,5.25-2.85,4.52-2.32,9.3-4.24,13.99-6.17,4.52-1.79,9.13-3.74,13.99-4.38,11.05-1.45,21.27,13.39,30.61,18.37,1.05.6,2.38,1.18,3.5,1.64.73.33,1.8.77,2.62.65,4.06,0,8.18,0,12.24,0,5.23,0,10.51,0,15.74,0,2.88-.13,5.93.36,8.74-.39"/><path class="b" d="M8.12,126.1c16.9,0,33.82,0,50.72,0,1.11-.06,2.49.22,3.5-.37,1.92-1.3,4.04-2.53,6.12-3.56,3.13-1.56,6.51-2.77,9.62-4.36,4.13-2.5,8.59-4.46,13.12-6.12,4.09-1.55,8.19-3.25,12.24-4.9,4.41-1.73,9.17-3.67,13.99-2.73,8.08,1.63,13.92,8.08,20.11,13.03,4.19,3.5,9.21,5.9,13.99,8.47,1.53.91,3.55.42,5.25.53,2.89,0,5.86,0,8.74,0,3.77,0,7.6,0,11.37,0,2.31-.3,4.68-.91,7-1.19"/><path class="b" d="M8.12,121.35c15.44,0,30.9,0,46.34,0,1.7,0,3.54,0,5.25,0,1.13-.07,2.54.27,3.5-.46,4.07-2.45,8.68-3.85,13.12-5.45,2.69-.99,5.23-2.55,7.87-3.65,4.38-1.89,8.85-3.73,13.12-5.87,7.07-3.42,14.54-8.31,22.74-6.48,7.18,1.58,12.71,6.89,18.36,11.25,2.15,1.74,4.63,3.22,7,4.65,2.85,1.8,5.74,3.74,8.74,5.27,1.53,1.04,3.51.7,5.25.74,2.3,0,4.7,0,7,0,2.89,0,5.86,0,8.74,0,2.85-.74,5.82-1.32,8.74-1.63"/><path class="b" d="M8.12,116.6c17.48,0,34.98,0,52.47,0,1.7-.02,3.54.04,5.25-.04,1.67-.73,3.51-1.39,5.25-1.95,3.88-1.16,7.8-2.42,11.37-4.36,5.39-2.64,10.58-5.75,15.74-8.8,6.5-3.89,13.18-7.26,20.99-5.8,6.88,1.18,12.7,5.38,18.36,9.2,2.49,1.74,5.23,3.29,7.87,4.8,3.14,1.88,6.3,3.92,9.62,5.48,1.36.56,2.88,1.42,4.37,1.47,2.89,0,5.86,0,8.74,0,1.4,0,2.97,0,4.37,0,.78-.18,1.86-.53,2.62-.8,2.81-.9,5.83-1.29,8.74-1.62"/><path class="b" d="M8.12,111.86c18.36,0,36.73,0,55.09,0,1.7,0,3.54,0,5.25,0,1.14-.24,2.4-.8,3.5-1.16,3.58-1.24,7.23-2.56,10.49-4.51,10.45-6.14,21.01-16.2,34.1-13.29,6.81,1.32,13.07,4.56,19.24,7.6,3.14,1.61,6.44,3.08,9.62,4.62,3.45,1.74,6.89,3.69,10.49,5.12,2.49.99,5.16,1.85,7.87,1.62,2.59-.06,5.29.14,7.87-.11,1.73-.36,3.53-1.01,5.25-1.4,2.27-.51,4.69-.8,7-1.05"/><path class="b" d="M8.12,107.11c13.4,0,26.82,0,40.22,0,6.11,0,12.25,0,18.36,0,2.65-.88,5.29-2.07,7.87-3.14,3.34-1.43,6.65-3.14,9.62-5.25,6.23-4.39,12.98-9.35,20.99-9.02,7.13.07,13.67,3.16,20.11,5.86,5.65,2.39,11.62,3.97,17.49,5.7,5.05,1.6,9.81,4.11,14.87,5.7,4.33.36,8.77.03,13.12.14,2,0,4.12,0,6.12,0,2.28-.39,4.69-.73,7-.98"/><path class="b" d="M8.12,102.36c11.65,0,23.32,0,34.98,0,5.23,0,10.51,0,15.74,0,2.61-.8,5.31-1.67,7.87-2.61,5.16-1.91,10.23-4.28,14.87-7.24,5.01-3.31,10.26-7.54,16.61-7.22,4.03.17,7.76,2.06,11.37,3.7,6.62,2.5,12.38,7,19.24,8.91,4.53,1.37,9.35,1.27,13.99,1.92,3.29.42,6.41,1.87,9.62,2.55,10.49,0,20.99,0,31.48,0"/><path class="b" d="M8.12,97.61c11.36,0,22.74,0,34.1,0,1.25.18,2.45-.5,3.5-1.06,1.35-.66,2.92-1.21,4.37-1.59,4.88-1.28,9.98-1.72,14.87-2.99,5.25-1.3,10.26-3.57,14.87-6.38,4.29-2.61,8.71-6.08,13.99-5.85,5.49.3,9.79,4.26,13.99,7.38,1.86,1.49,4.1,2.65,6.12,3.9,2.85,1.81,5.7,3.81,8.74,5.29,1.06.49,2.33,1.12,3.5,1.29,2,0,4.12,0,6.12,0,4.35,0,8.76,0,13.12,0,12.82,0,25.66,0,38.47,0"/><path class="b" d="M8.12,92.86c8.44,0,16.91,0,25.36,0,1.1,0,2.4,0,3.5,0,.54-.06,1.36-.55,1.75-.9,1.09-.8,2.38-1.74,3.5-2.49,7.29-5.56,16.91-3.58,25.36-5.34,3.95-.74,7.82-2.16,11.37-4.04,4.07-2.18,8.29-5.08,13.12-4.7,6.12.58,10.54,5.51,14.87,9.38,3.12,2.98,6.95,5.19,10.49,7.62.94.76,2.37.42,3.5.48,1.7,0,3.54,0,5.25,0,4.94,0,9.93,0,14.87,0,14.28,0,28.57,0,42.85,0"/><path class="b" d="M8.12,88.12h24.48c3.6-2.47,6.73-5.74,10.49-8.01,3.07-2.12,6.87-2.43,10.49-2.43,4.06-.03,8.18.24,12.24.07,3.82-.15,7.7-.73,11.37-1.84,3.23-.95,6.33-2.53,9.62-3.28,7.63-2.03,14.06,3.32,19.24,8.23,2.69,2.61,5.74,4.96,8.74,7.19,23.01.22,46.06,0,69.08.08"/><path class="b" d="M8.12,83.37c4.65,0,9.34,0,13.99,0,1.7,0,3.54,0,5.25,0,.83,0,1.9.1,2.62-.39,4.07-3.09,7.81-6.77,12.24-9.35,3.91-2.41,7.1-1.58,11.37-1.47,4.35.16,8.76.21,13.12.07,4.95-.18,9.96-.51,14.87-1.23,7.58-1.55,13.39-1.91,20.11,2.62,4.42,2.77,7.98,6.8,12.24,9.75h69.95"/><path class="b" d="M8.12,78.62c4.35,0,8.76,0,13.12,0,1.4,0,2.97,0,4.37,0,.83.01,1.91.1,2.62-.42,3.83-2.48,7.38-5.52,11.37-7.76,2.36-1.3,5.14-2.35,7.87-1.92,1.39.32,2.95.65,4.37.75,4.08.32,8.21-.34,12.24-.91,3.74-.54,7.58-1.01,11.37-.89,3.19.09,6.41.88,9.62.66,12.75-.96,18.86,1.42,27.98,10.41,23.59.25,47.23,0,70.83.09"/><path class="b" d="M8.12,72.77c.8.32,1.83.77,2.62,1.1,1.41,0,2.97,0,4.37,0,2.89,0,5.86,0,8.74,0,1.4-.12,3.12.35,4.37-.42,2.92-1.53,5.78-3.34,8.74-4.77,2.68-1.28,5.73-2.33,8.74-1.92,1.77.23,3.47,1.25,5.25,1.45,6.13.71,11.7-2.76,17.49-4.18,3.1-.82,6.49-1.12,9.62-.28,1.99.62,4.03,1.48,6.12,1.7,5.5.72,11.19-.37,16.61,1.02,3.21.78,6.25,2.46,8.74,4.62.82.7,1.87,1.75,2.62,2.52,1.86.57,4.17.14,6.12.27,4.35,0,8.76,0,13.12,0,8.15,0,16.33,0,24.48,0,2.3-.04,4.67-.78,7-.62,1.73-.05,3.54.55,5.25.62,5.23,0,10.51,0,15.74,0"/><path class="b" d="M8.12,67.09c1.42.62,2.83,1.77,4.37,2.03,2.89,0,5.86,0,8.74,0,11.02.07,6.05.4,15.74-3.3,3.33-1.2,7.16-1.72,10.49-.27,8.25,4.59,16.38-5.34,24.48-6.73,4.46-.93,6.66.66,10.49,2.29,3.06,1.1,6.4,1.36,9.62,1.49,5.8.1,11.99.81,16.61,4.65,2.32,2.08,2.14,1.92,5.25,1.87,7.86,0,15.75,0,23.61,0,2.89,0,5.86,0,8.74,0,2.92-.76,5.81-1.9,8.74-2.62,3.11-.79,6.44-1.17,9.62-.64,1.77.29,3.63.9,5.25,1.67,1.12.44,2.26,1.53,3.5,1.59,3.47,0,7.02,0,10.49,0"/><path class="b" d="M8.12,63.98c1.01.64,2.37.33,3.5.4,1.41,0,2.97,0,4.37,0,4.65,0,9.34,0,13.99,0,1.57.17,3-.96,4.37-1.53,2.2-1.04,4.58-2.01,7-2.4,5.99-1.09,7.42,2.89,13.12,1.4,7.01-1.86,12.59-8.03,20.11-8.18,3.53-.11,6.39,2.32,9.62,3.33,4.53,1.58,9.38,2.08,13.99,3.36,3.07.84,6.11,2.13,8.74,3.92,3.75.29,7.6.03,11.37.11,7.28,0,14.58,0,21.86,0,1.95-.73,4.11-1.14,6.12-1.68,2.59-.72,5.24-1.57,7.87-2.13,3.71-.82,7.69-.95,11.37.11,2.12.6,4.24,1.58,6.12,2.72.36.29,1.33.78,1.75.97,1.09,0,2.41,0,3.5,0,2.3,0,4.7,0,7,0"/><path class="b" d="M8.12,59.63c7.57,0,15.17,0,22.74,0,1.28,0,2.4-1.19,3.5-1.74,1.64-.99,3.46-1.98,5.25-2.68,2.18-.85,4.67-1.31,7-.83,1.42.33,2.9,1.03,4.37,1.15,8.32.6,15.3-6.06,23.61-5.77,4.07.08,7.57,2.56,11.37,3.73,3.47,1.25,7.05,2.38,10.49,3.72,1.11.43,2.42.97,3.5,1.46.77.34,1.76.94,2.62.97,5.23,0,10.51,0,15.74,0,8.44-.05,16.92.1,25.36-.06,3.82-1.03,7.52-2.67,11.37-3.58,3.41-.83,7.08-1.01,10.49-.11,2.45.62,4.86,1.77,7,3.11,1.15,1.02,2.96.54,4.37.64,2.3,0,4.7,0,7,0"/><path class="b" d="M8.12,54.88c6.69,0,13.42,0,20.11,0,.47,0,1.29,0,1.75,0,.88-.3,1.86-1.07,2.62-1.58,1.38-.93,2.93-1.95,4.37-2.77,2.65-1.5,5.65-2.8,8.74-2.76,2.04.05,4.08.87,6.12.94,5.9.41,11.67-1.39,17.49-2.01,2.88-.32,5.9-.33,8.74.3,3.86.99,7.66,2.47,11.37,3.91,2.02.81,4.14,1.73,6.12,2.64,1.1.42,2.29,1.35,3.5,1.32,4.65,0,9.34,0,13.99,0,7.86,0,15.75,0,23.61,0,2.89,0,5.86,0,8.74,0,1.74-.04,3.68.27,5.25-.68,4.36-1.96,9.14-3.67,13.99-3.01,2.09.27,4.23.96,6.12,1.88,1.41.55,2.78,1.98,4.37,1.81,2.89,0,5.86,0,8.74,0"/><path class="b" d="M8.12,50.13c4.35,0,8.76,0,13.12,0,6.39-.05,4.96.65,10.49-2.58,5.28-2.99,11.23-6.12,17.49-4.94,4.04.51,8.17.75,12.24.81,8.17.16,16.61-.54,24.48,2.11,3.58,1.14,7.1,2.67,10.49,4.27.73.43,1.81.35,2.62.34,1.09,0,2.4,0,3.5,0,3.18,0,6.44,0,9.62,0,13.11,0,26.24,0,39.35,0,0,0,.87,0,.87,0l.87-.45c1.07-.54,2.38-1.14,3.5-1.58,2.74-1.07,5.79-1.69,8.74-1.39,2.08.2,4.23.86,6.12,1.75,1.4.55,2.78,1.86,4.37,1.67,2.59,0,5.28,0,7.87,0"/><path class="b" d="M8.12,45.08c2.3-.2,4.69-.54,7-.65,2.62.01,5.31-.18,7.87-.77,7.8-1.81,15.5-4.68,23.61-4.64,7.59.04,15.14,1.46,22.74,1.46,9.77.11,14.03-.81,23.61,2.93,1.72.61,3.51,1.43,5.25,1.99,2.89,0,5.86,0,8.74,0,6.4,0,12.84,0,19.24,0,6.4,0,12.84,0,19.24,0,2.58-.11,5.32.25,7.87-.19,1.64-.9,3.48-1.79,5.25-2.41,2.76-.98,5.84-1.36,8.74-.87,2.09.35,4.22,1.13,6.12,2.06,1.08.46,2.27,1.49,3.5,1.41,2.3,0,4.7,0,7,0"/><path class="b" d="M8.12,36.43c2.29-.36,4.67-.81,7-.88,2.01,0,4.12.19,6.12.28,7.33.31,14.58,1.65,21.86,2.44,2.88.32,5.85.12,8.74.09,4.06-.02,8.19-.03,12.24-.34,6.99-.35,13.98-2.3,20.99-1.43,5.4.63,10.51,2.74,15.74,4.06,13.99,0,27.99,0,41.97,0,1.4,0,2.97,0,4.37,0,.78,0,1.88.07,2.62-.24,4.07-2.17,8.42-4.3,13.12-4.48,4.97-.29,9.58,1.93,13.99,3.91,2.14,1.13,4.67.77,7,.81"/><path class="b" d="M8.12,27.93c9.05-1.71,14.98,1.01,22.74,5.26,5.67,3.08,4.11,2.75,10.49,2.7,8.44-.04,16.92.09,25.36-.05,3.75-.79,7.56-1.61,11.37-2.06,5.22-.6,10.55-.36,15.74.36,3.5.39,7,1.38,10.49,1.75,10.19,0,20.41,0,30.61,0,2.59,0,5.28,0,7.87,0,1.8-.26,3.55-1.3,5.25-1.94,2.53-1.08,5.19-2.13,7.87-2.74,4.93-1.22,10.14-.43,14.87,1.25,2.58.88,5.23,1.91,7.87,2.61,1.67.46,3.5.97,5.25.83"/><path class="b" d="M8.12,20.31c11.48-.82,15.46,3.83,23.61,10.72,4.04.3,8.19.03,12.24.12,7.28,0,14.58,0,21.86,0,6.11,0,12.25,0,18.36,0,3.18-.34,6.42-.95,9.62-1.14,4.97-.4,9.99.14,14.87,1.14,3.77,0,7.6,0,11.37,0,4.65,0,9.34,0,13.99,0,2.29-.07,4.72.15,7-.12,1.09-.45,2.4-.97,3.5-1.41,8.79-3.75,15.28-4.3,24.48-1.5,4.83,1.45,9.89,2.14,14.87,2.93"/><path class="b" d="M8.12,14.2c7.28.92,11.28,2.07,16.61,7.31,1.77,1.51,3.3,3.61,5.25,4.89,19.52,0,39.06,0,58.59,0,2.08.14,4.1-.89,6.12-1.24,2.84-.62,5.85-.88,8.74-.56,2.36.25,4.77.88,7,1.69,2.58.26,5.28.04,7.87.11,8.15,0,16.33,0,24.48,0,8.86-4.03,15.03-4.43,24.48-2.23,2.27.46,4.67.93,7,.99,3.19-.02,6.45.24,9.62.58"/><path class="b" d="M8.12,9.45c3.25,1,6.51,2.26,9.62,3.65,3.32,1.81,6.07,4.64,8.74,7.27.34.51,1.19,1.09,1.75,1.28,1.1,0,2.4,0,3.5,0,2.59,0,5.28,0,7.87,0,8.15,0,16.33,0,24.48,0,8.15,0,16.33,0,24.48,0,1.78-.33,3.5-1.36,5.25-1.84,2.78-.92,5.81-1.42,8.74-1.12,2.07.2,4.2.81,6.12,1.61,1.11.39,2.29,1.3,3.5,1.35,4.94,0,9.93,0,14.87,0,4.94,0,9.93,0,14.87,0,1.7,0,3.55,0,5.25,0,1.73-.28,3.5-1.09,5.25-1.36,5.77-1.25,11.69-.13,17.49.25,2.31.19,4.71-.22,7-.48,2.29-.19,4.7-.12,7,.05"/></svg>