<?xml version="1.0" encoding="UTF-8"?><svg id="a" xmlns="http://www.w3.org/2000/svg" width="1920" height="2400" viewBox="0 0 192 240"><defs><style>.b{fill:none;stroke:#fff;stroke-miterlimit:10;stroke-width:.4px;}.c{stroke-width:0px;}</style></defs><rect class="c" x="0" width="192" height="240"/><path class="b" d="M11.58,227.88c3.11.09,6.25.57,9.24,1.41,2.2.5,4.53.82,6.72,1.36,1.38.34,2.89.82,4.2,1.35.73.29,1.76.23,2.52.22,15.11-.06,30.25.11,45.36-.06,9.55-7.66,14.97-10.08,26.88-5.75,2.15.74,4.49,1.08,6.72,1.44,2.24.42,4.54,1,6.72,1.67,2.53.77,5.1,1.74,7.56,2.7,3.06,0,6.18,0,9.24,0,14.56,0,29.13,0,43.68,0"/><path class="b" d="M11.58,217.28c3.7-.32,7.38.41,10.92,1.42,5.18,1.14,10.1,3.43,14.28,6.7,1.07.69,2.1,1.95,3.36,2.26,1.92,0,3.96,0,5.88,0,6.71,0,13.45,0,20.16,0,3.61-.09,7.32.18,10.92-.12,1.76-1.6,3.86-2.97,5.88-4.21,2.61-1.64,5.41-3.2,8.4-4.03,4.74-1.42,9.72-.25,14.28,1.29,4.92,1.65,10.21,1.95,15.12,3.64,2.24.69,4.55,1.52,6.72,2.4,1.05.35,2.22,1.17,3.36,1.03,2.49,0,5.07,0,7.56,0,14,0,28.01,0,42,0"/><path class="b" d="M11.58,206.36c5.9-.53,11.69,1.68,16.8,4.44,4.96,2.8,9.15,6.81,13.44,10.51,2.46,2.33,2.76,1.74,5.88,1.79,3.06,0,6.18,0,9.24,0,5.03,0,10.09,0,15.12,0,.92-.11,1.8-1,2.52-1.52,1.32-1.01,2.8-2.14,4.2-3.05,4.54-2.52,9.15-5.36,14.28-6.47,4.8-1.05,9.69.26,14.28,1.68,2.73.84,5.65,1.23,8.4,2,4.04,1.07,8.01,2.6,11.76,4.43,1.06.52,2.32,1.17,3.36,1.73.99.53,2.17,1.37,3.36,1.2,15.4,0,30.81,0,46.2,0"/><path class="b" d="M11.58,197.88c13.51-.02,22.66,11.26,32.76,18.56,1.74,1.17,3.69,2.42,5.88,2.11,2.77,0,5.63,0,8.4,0,2.49,0,5.07,0,7.56,0,3.31-1.1,6.26-3.22,9.24-4.99,2.61-1.72,5.59-2.89,8.4-4.21,3.48-1.68,7.08-3.43,10.92-4.07,4.52-.83,9.11.23,13.44,1.51,3.64.99,7.4,1.8,10.92,3.16,3.81,1.42,7.49,3.32,10.92,5.49,1.07.68,2.33,1.51,3.36,2.24.61.56,1.68,1.01,2.52.87,14.84,0,29.69,0,44.52,0"/><path class="b" d="M11.58,193.06c7.87.96,14.73,5.44,21,10.01,4.32,3.09,8.53,6.59,13.44,8.72,2.09.94,4.46,1.2,6.72,1.38,2.77.26,5.64.3,8.4-.11,7.53-1.05,13.9-5.62,21-7.99,5.17-2.2,10.23-5.22,15.96-5.58,4.29-.35,8.53.88,12.6,2.08,5.19,1.41,10.42,3.05,15.12,5.73,2.31,1.29,4.61,2.84,6.72,4.44.75.58,1.79,1.39,2.52,2,.7.32,1.77.25,2.52.25,3.62,0,7.3,0,10.92,0,10.63,0,21.29,0,31.92,0"/><path class="b" d="M11.58,191.6c12.69,3.15,22.64,12.88,35.28,16.1,6.64,1.11,13.63,1.02,20.16-.72,3.42-.91,6.78-2.25,10.08-3.51,2.2-.86,4.59-1.54,6.72-2.58,5.55-2.68,11.27-5.93,17.64-5.62,4.33.11,8.46,1.74,12.6,2.84,7.78,1.86,15,4.98,21,10.38.53.71,1.65,1.08,2.52.95,1.05,0,2.31,0,3.36,0,3.34,0,6.74,0,10.08,0,9.79,0,19.61,0,29.4,0"/><path class="b" d="M11.58,191.79c4.36,1.25,8.46,3.37,12.6,5.17,5.45,2.39,11.04,4.63,16.8,6.15,5.73,1.62,11.72,1.87,17.64,1.75,1.92-.04,3.97.1,5.88-.08,4.33-.56,8.55-1.94,12.6-3.52,2.85-1.07,5.76-2.24,8.4-3.77,5.38-3.04,11.26-6.14,17.64-5.54,4.31.28,8.36,2.12,12.6,2.79,8.69,1.3,15.43,3.6,21.84,9.89,1.86.5,3.97.12,5.88.23,3.06,0,6.18,0,9.24,0,9.23,0,18.49,0,27.72,0"/><path class="b" d="M11.58,192.77c3.96,1.31,7.74,3.3,11.76,4.43,4.93,1.33,10.08,1.78,15.12,2.49,4.15.81,8.4.6,12.6.61,5.87,0,11.77,0,17.64,0,1.05,0,2.31,0,3.36,0,1.71-.38,3.42-1.24,5.04-1.9,5.26-2.02,10-5.18,15.12-7.48,4.71-2.14,10.1-2.69,15.12-1.42,2.5.58,5,1.53,7.56,1.82,6.3.7,13.01.85,18.48,4.47,2.14,1.19,3.88,3.17,5.88,4.51h41.16"/><path class="b" d="M11.58,193.36c1.35.55,2.85,1.17,4.2,1.71.76.28,1.69.77,2.52.68,4.74,0,9.54,0,14.28,0,10.91,0,21.85,0,32.76,0,3.06,0,6.18,0,9.24,0,2.53-1.08,5.04-2.47,7.56-3.59,7.02-3.67,14.42-8.22,22.68-7.05,2.85.27,5.62,1.34,8.4,1.95,10.69,1.65,17.42.07,26.04,8.68,13.71.01,27.45,0,41.16,0"/><path class="b" d="M11.58,191.18h63.84c3.45-2.23,7.35-3.75,10.92-5.75,5.45-2.93,11.3-5.87,17.64-5.75,4.62,0,8.9,2.14,13.44,2.68,8.89,1.24,15,2.56,21.84,8.83h41.16"/><path class="b" d="M11.58,186.62c14.28,0,28.57,0,42.84,0,5.03,0,10.09,0,15.12,0,2.2-.11,4.56.25,6.72-.2,1.28-.92,2.76-1.87,4.2-2.5,8.78-3.78,16.74-11.5,26.88-10.63,3.44.44,6.72,1.94,10.08,2.77,7.19,1.96,14.49,4.49,20.16,9.51.55.67,1.63,1.22,2.52,1.06,1.05,0,2.31,0,3.36,0,3.06,0,6.18,0,9.24,0,9.23,0,18.49,0,27.72,0"/><path class="b" d="M11.58,182.06c12.03,0,24.09,0,36.12,0,6.71,0,13.45,0,20.16,0,2.21,0,4.51,0,6.72,0,.75,0,1.77,0,2.52,0,.83-.23,1.76-.93,2.52-1.31,9.25-3.57,16.8-13.08,26.88-13.85,1.99-.11,4.04.47,5.88,1.18,1.93.68,3.97,1.44,5.88,2.2,7.26,2.85,14.37,6.48,20.16,11.78,13.99.03,28.01,0,42,.01"/><path class="b" d="M11.58,177.5c19.32,0,38.64,0,57.96,0,3.9,0,7.86,0,11.76,0,.84.13,1.84-.33,2.52-.78,1.08-.64,2.34-1.48,3.36-2.22,6.27-4.26,12.97-11.61,21-11.5,1.71.07,3.44.76,5.04,1.29,1.93.65,3.97,1.37,5.88,2.1,6.98,2.61,13.71,6.15,19.32,11.1h42"/><path class="b" d="M11.58,172.94c19.88,0,39.76,0,59.64,0,3.62,0,7.3,0,10.92,0,1.63-.09,3.45.22,5.04-.21.75-.51,1.78-1.22,2.52-1.75,5.47-3.75,10.81-8.75,17.64-9.6,1.67-.18,3.43.22,5.04.62,1.63.36,3.4.68,5.04,1.01,7.73,1.29,15.2,4.42,21,9.78,1.89.35,3.96.08,5.88.16,3.06,0,6.18,0,9.24,0,8.95,0,17.93,0,26.88,0"/><path class="b" d="M11.58,168.38c20.44,0,40.88,0,61.32,0,3.9,0,7.86,0,11.76,0,1.64,0,3.4,0,5.04,0,.77-.35,1.78-.92,2.52-1.33,5.03-2.69,10.15-5.91,15.96-6.45,2.21-.14,4.5.37,6.72.26,10.79-.47,15.06.74,23.52,7.51h42"/><path class="b" d="M11.58,163.81c21.28,0,42.56,0,63.84,0,5.03,0,10.09,0,15.12,0,2.54-.33,5.06-1.36,7.56-1.95,3.02-.83,6.13-1.66,9.24-2.08,2.48-.35,5.1-.11,7.56-.68,9.27-2.22,14.43-1.75,21.84,4.71h43.68"/><path class="b" d="M11.58,159.25c21.84,0,43.68,0,65.52,0,1.05,0,2.31,0,3.36-.01,2.15-.63,4.49-.86,6.72-.91,7.01.04,14.03.28,21-.63,1.34-.15,2.87-.22,4.2-.47,1.96-.4,3.96-1.1,5.88-1.62,6.01-1.87,11.24-.41,15.96,3.62,15.39.09,30.81,0,46.2.03"/><path class="b" d="M11.58,154.69c6.15-.03,12.35.17,18.48-.31,3.61.38,7.29.34,10.92.31,5.59,0,11.21,0,16.8,0,2.56.21,5.02-1.2,7.56-1.64,3.29-.78,6.72-1.13,10.08-1.45,2.23-.16,4.51-.67,6.72-.93,3.4-.23,6.8.65,10.08,1.43,8.47,2.3,16.77,2.83,25.2.06,3.9-1.1,8.23-.89,11.76,1.22.74.41,1.67,1.15,2.52,1.32.4,0,1.27,0,1.68,0,15.68,0,31.37,0,47.04,0"/><path class="b" d="M11.58,150.13c1.64,0,3.4,0,5.04,0,1.45-.33,2.85-1.28,4.2-1.89,1.84-.88,3.87-1.61,5.88-1.95,4.58-.85,9.18.55,13.44,2.13,1.89.67,3.89,1.41,5.88,1.71,1.35-.03,2.86.08,4.2-.09.76-.19,1.77-.47,2.52-.7,7.15-2.41,14.28-5.16,21.84-5.98,3.33-.32,6.74-1.19,10.08-.66,6.33,1.06,12.13,4.24,18.48,5.26,2.46.43,5.06.58,7.56.4,2.5-.19,5.05-.75,7.56-.82,2.57-.1,5.24.43,7.56,1.55.42.21,1.28.66,1.68.91,1.32.27,2.86.1,4.2.14,16.24,0,32.49,0,48.72,0"/><path class="b" d="M11.58,143.39c10.82-4.37,16.67-9.03,28.56-3.94,5.82,2.35,7.98,3.2,14.28,2.06,5.74-.84,11.31-2.65,16.8-4.46,5.11-1.62,10.6-3.5,15.96-1.91,7.22,1.86,13.56,6.47,21,7.56,3.04.38,6.21-.11,9.24.42,1.7.26,3.48.8,5.04,1.52.74.32,1.67,1.01,2.52.94,5.87,0,11.77,0,17.64,0,12.59,0,25.21,0,37.8,0"/><path class="b" d="M11.58,135.1c3.28-1.44,6.65-2.79,10.08-3.82,2.18-.75,4.45-1.55,6.72-1.98,4.26-.89,8.67.04,12.6,1.74,2.48,1.01,4.97,2.28,7.56,2.97,3.58.64,7.27,1.27,10.92,1.25,12.16-.09,17.86-10.65,30.24-6.33,6.27,2.06,11.44,6.56,17.64,8.79,2.68.97,5.66.63,8.4,1.34,1.08.25,2.34.65,3.36,1.06,1.01.47,2.2,1.05,3.36.89,12.59,0,25.21,0,37.8,0,4.18,0,8.42,0,12.6,0,2.48-.09,5.1.2,7.56-.15"/><path class="b" d="M11.58,128.06c1.91-.68,3.92-1.41,5.88-1.95,1.63-.45,3.45-.69,5.04-1.28,3.55-1.23,7.11-2.87,10.92-3.04,4.83-.29,9.25,2.04,13.44,4.12,1.86.95,3.98,1.56,5.88,2.42,2.93,1.32,5.98,2.79,9.24,3,11.62.42,15.43-12.46,29.4-7.04,3.66,1.49,6.9,3.94,10.08,6.23,2.59,1.83,5.28,3.86,8.4,4.66,1.34.25,2.87.38,4.2.7,1.04.25,2.27.65,3.36.55,19.88,0,39.76,0,59.64,0,1.08-.83,2.27-1.93,3.36-2.75"/><path class="b" d="M11.58,122.64c1.92-.43,3.94-.93,5.88-1.28,1.35-.26,2.88-.33,4.2-.74,3.45-1.09,6.6-3.12,10.08-4.14,7.25-2.41,13.18,1.94,19.32,5.13,3.6,2.13,6.81,5.22,10.92,6.35,10.75,2.57,14.56-11.24,27.72-7.86,6.64,1.91,11.21,7.53,16.8,11.25.88.8,2.27.5,3.36.55,1.35,0,2.85,0,4.2,0,4.46,0,8.98,0,13.44,0,15.11-.08,30.26.16,45.36-.09,2.18-2.25,4.73-4.33,7.56-5.7"/><path class="b" d="M11.58,118.67c1.93-.21,3.96-.54,5.88-.81,1.36-.21,2.89-.28,4.2-.73,3.24-1.14,6.11-3.23,9.24-4.61,8.07-3.88,14.12.15,21,4.3,3.29,2.35,6.26,5.41,10.08,6.91,6.77,2.77,12.02-3.34,17.64-5.96,3.45-1.31,7.41-1.67,10.92-.39,3.46,1.23,6.46,3.58,9.24,5.92,1.64,1.29,3.19,3.04,5.04,4.03,1.35,0,2.85,0,4.2,0,4.74,0,9.54,0,14.28,0,7.83,0,15.69,0,23.52,0,5.03,0,10.09,0,15.12,0,1.63,0,3.41,0,5.04,0,1.07-.06,2.42.24,3.36-.4,2.63-3.27,5.93-6.38,10.08-7.5"/><path class="b" d="M11.58,114.18c3.35-.32,6.84-.61,10.08-1.56,2.95-1.13,5.61-3.04,8.4-4.49,3.8-2.12,8.4-3.08,12.6-1.63,3.2,1.09,6.32,2.68,9.24,4.38,1.98,1.31,3.93,2.91,5.88,4.26,13.59,9.69,17.5-5.43,31.08-.53,3.07,1.1,5.85,3.02,8.4,5.02,4.83,3.96,3.04,3.07,9.24,3.14,4.46,0,8.98,0,13.44,0,15.96,0,31.93,0,47.88,0,3.63-3.87,6.71-8.68,12.6-8.95"/><path class="b" d="M11.58,108.99c3.37-.35,6.85-.85,10.08-1.89,7.51-3.3,12.98-8.61,21.84-5.73,3.43,1.18,6.92,2.54,10.08,4.33,4.15,2.44,8.48,5.22,13.44,5.41,3.69.22,7.3-1.01,10.92-1.49,7.45-.8,13.69,4.43,19.32,8.58h68.88c1.33-.79,2.29-2.45,3.36-3.54,2.73-3.33,6.34-6.26,10.92-5.53"/><path class="b" d="M11.58,103.88c3.38-.55,6.82-1.33,10.08-2.41,3.4-1.33,6.61-3.29,10.08-4.44,6.63-2.41,12.2-.21,18.48,1.87,3.63,1.12,7.21,2.65,10.92,3.49,3.28.78,6.72,1,10.08,1.01,3.67.01,7.55,0,10.92,1.67,3.02,1.44,5.76,3.54,8.4,5.58,1.35.95,2.67,2.35,4.2,3,3.9,0,7.86,0,11.76,0,19.87-.09,39.78.17,59.64-.09,3.84-4.35,7.71-9.63,14.28-8.06"/><path class="b" d="M11.58,99.54c3.95-.99,7.96-2.1,11.76-3.56,5.27-2.27,10.98-4.35,16.8-3.3,3.12.46,6.18,1.55,9.24,2.26,3.01.66,6.16.98,9.24,1.06,14.67.11,18.78-1.53,30.24,9.21,1.61,1.27,3.17,3,5.04,3.87,4.46,0,8.98,0,13.44,0,12.87,0,25.77,0,38.64,0,4.46,0,8.98,0,13.44,0,2.48-.09,5.1.2,7.56-.15,3.85-4.09,7.41-7.31,13.44-6.22"/><path class="b" d="M11.58,96.65c3.65-1.02,7.31-2.26,10.92-3.43,4.05-1.47,8.24-2.98,12.6-3.03,4.59-.14,9.01,1.39,13.44,2.34,5.07,1.16,10.19-.48,15.12-1.54,16.51-3.96,19.27,6.13,31.08,13.54h73.92c3.8-3.03,6.79-4.41,11.76-4.16"/><path class="b" d="M11.58,95.36c3.67-.73,7.34-1.78,10.92-2.88,5.11-1.8,10.47-3.55,15.96-3.01,5.62.3,11.15,3.14,16.8,1.72,6.7-1.51,13.06-5.85,20.16-4.76,4.27.64,7.64,3.64,10.92,6.21,4.59,3.58,9.79,7.81,15.96,7.31,15.96-.01,31.92,0,47.88,0,6.99,0,14.01,0,21,0,1.1-.24,2.27-.96,3.36-1.26,1.87-.58,3.94-.82,5.88-.95"/><path class="b" d="M11.58,93.69c3.63-.04,7.36-.27,10.92-.99,3.93-.91,7.78-2.36,11.76-3.08,5.28-1.07,10.7-.48,15.96.39,8.26.96,15.02-5.15,22.68-7.08,4.8-1.36,8.6.36,12.6,2.88,3.81,2.34,7.6,4.91,11.76,6.6,3.45,1.44,7.21,2.13,10.92,2.49,3.05.41,6.17.58,9.24.5,5.87,0,11.77,0,17.64,0,9.51,0,19.05,0,28.56,0,3.06,0,6.18,0,9.24,0,1.34,0,2.86,0,4.2,0,1.05-.16,2.31-.41,3.36-.57"/><path class="b" d="M11.58,90.84c6.43,0,12.89,0,19.32,0,2.81-.66,5.57-1.85,8.4-2.45,2.72-.65,5.6-1,8.4-.8,11.15,2.2,15.95-2.21,25.2-7.08,2.07-1.03,4.38-1.96,6.72-2,3.84.12,7.51,1.7,10.92,3.34,4.23,2.08,8.33,4.53,12.6,6.53,2.15.91,4.39,2.13,6.72,2.46,6.71,0,13.45,0,20.16,0,16.8,0,33.61,0,50.4,0"/><path class="b" d="M11.58,86.28c9.79,0,19.61,0,29.4,0,1.11.04,2.29-.6,3.36-.81,1.33-.31,2.84-.49,4.2-.39,2.77.37,5.57,1.23,8.4,1.12,7.56,0,13.28-5.57,19.32-9.35,5.26-3.41,12.22-2.91,17.64-.12,5.11,2.5,9.42,6.38,14.28,9.29,1,.42,2.3.21,3.36.25,1.35,0,2.85,0,4.2,0,4.74,0,9.54,0,14.28,0,16.8,0,33.61,0,50.4,0"/><path class="b" d="M11.58,81.72c13.71,0,27.45,0,41.16,0,3.62,0,7.3,0,10.92,0,1.06,0,2.31,0,3.36,0,.85.07,1.89-.07,2.52-.69,3.75-2.61,6.91-6.15,10.92-8.37,5.64-3.11,11.15-3.85,16.8-.29,4.26,2.55,7.73,6.28,11.76,9.15,1.02.34,2.3.17,3.36.21,1.35,0,2.85,0,4.2,0,4.74,0,9.54,0,14.28,0,16.52,0,33.05,0,49.56,0"/><path class="b" d="M11.58,77.16c14.56,0,29.13,0,43.68,0,3.9,0,7.86,0,11.76,0,1.35,0,2.85,0,4.2,0,.77,0,1.8.07,2.52-.26,3.11-2.97,6.38-5.9,10.08-8.13,5.22-3.51,10.5-4.32,15.96-.78,4.16,2.56,7.55,6.3,11.76,8.79.95.59,2.29.31,3.36.37,1.35,0,2.85,0,4.2,0,4.46,0,8.98,0,13.44,0,15.96,0,31.93,0,47.88,0"/><path class="b" d="M11.58,72.6h63.84c1.19-.67,2.29-1.89,3.36-2.72,1.58-1.27,3.41-2.5,5.04-3.7,4.58-3.44,10.2-6.31,15.96-4.07,3.01,1.07,5.74,2.95,8.4,4.68,1.62,1.09,3.51,2.04,5.04,3.25,3.35,2.67,2.29,2.67,6.72,2.56,3.06,0,6.18,0,9.24,0,17.08,0,34.17,0,51.24,0"/><path class="b" d="M11.58,68.03c15.12,0,30.25,0,45.36,0,5.87,0,11.77,0,17.64,0,.53-.01,1.31-.47,1.68-.82.74-.55,1.75-1.29,2.52-1.81,3.3-2,6.64-4.11,10.08-5.85,6.6-3.4,12.77-2.76,19.32.34,4.71,1.78,8.68,4.95,12.6,8.02,5,.34,10.1.03,15.12.13,14.84,0,29.69,0,44.52,0"/><path class="b" d="M11.58,63.47c19.04,0,38.08,0,57.12,0,1.06,0,2.31,0,3.36,0,1.93-1.01,3.91-2.2,5.88-3.13,3.78-1.66,7.81-2.92,11.76-4.11,7.08-2.09,14.77-2.38,21.84-.08,5.1,1.66,9.64,4.71,14.28,7.32,2.21.01,4.51,0,6.72,0,15.96,0,31.93,0,47.88,0"/><path class="b" d="M11.58,58.91c17.92,0,35.84,0,53.76,0,1.16.14,2.34-.57,3.36-1,1.05-.46,2.3-1,3.36-1.41,3.46-1.39,7.17-2.37,10.92-2.44,4.74-.14,9.54.1,14.28-.23,5.58-.37,11.25-1.12,16.8-.04,3.45.52,6.88,1.51,10.08,2.9,1.37.59,2.87,1.31,4.2,1.97.7.35,1.76.27,2.52.27,10.91,0,21.85,0,32.76,0,2.22-.02,4.49-.7,6.72-.76,3.34-.15,6.75-.15,10.08-.42"/><path class="b" d="M11.58,54.35c.76,0,1.76,0,2.52,0,.8-.08,1.76-.5,2.52-.74,1.59-.55,3.37-.75,5.04-.81,2.79-.15,5.67.02,8.4.59,1.93.4,3.88,1.17,5.88.96,8.39,0,16.81,0,25.2,0,1.46-.17,2.84-1.2,4.2-1.7,1.87-.82,3.9-1.57,5.88-2.08,7.64-1.95,12.18-.21,19.32,1.94,3.25.9,6.71,1.31,10.08,1.05,2.79-.19,5.62-.78,8.4-1.07,3.62-.16,7.3-.65,10.92-.48,3.19.13,6.29,1.19,9.24,2.34,9.23,0,18.49,0,27.72,0,1.16.15,2.35-.63,3.36-1.1,1.88-.92,3.9-1.87,5.88-2.58,4.54-1.76,9.53-.88,14.28-1.1"/><path class="b" d="M11.58,49.78c2.25-.62,4.48-1.61,6.72-2.24,4.66-1.09,9.65-1.13,14.28.17,1.97.53,3.99,1.29,5.88,2.05,2.49.07,5.07.01,7.56.03,4.46-.1,9,.21,13.44-.13,4.75-2.1,9.85-3.94,15.12-3.7,2.82.13,5.74.58,8.4,1.57,1.07.41,2.32.95,3.36,1.43.73.32,1.69.87,2.52.84,5.31,0,10.65,0,15.96,0,3.62,0,7.3,0,10.92,0,2.21-.16,4.48-.79,6.72-.69,1.66.01,3.44.28,5.04.69,1.05,0,2.31,0,3.36,0,7.83,0,15.69,0,23.52,0,5.21-3.13,9.85-7.85,15.96-9.12,3.33-.33,6.75.03,10.08.23"/><path class="b" d="M11.58,44.24c2.85-.28,5.61-1.36,8.4-1.9,9.48-2.16,14.58-.84,23.52,2.1,1.88.62,3.9.92,5.88.8,1.37.05,2.88-.03,4.2-.42,6.58-1.83,13.18-4.75,20.16-3.81,4.72.47,9.19,2.21,13.44,4.23,2.21,0,4.51,0,6.72,0,18.2,0,36.4,0,54.6,0,.39,0,1.28,0,1.68,0,.85-.27,1.81-1.04,2.52-1.56,1.38-1.04,2.88-2.28,4.2-3.4,3.96-3.27,7.73-7.17,12.6-9.04,3.51-1.1,7.37-.61,10.92.06"/><path class="b" d="M11.58,38.62c3.73.13,7.36-1.22,10.92-2.16,8.35-2.65,13.56-2.13,21.84.08,3.57.97,7.35.91,10.92-.05,10.4-2.81,16.61-3.77,26.88.56,3.04,1.2,6.02,2.93,9.24,3.61,2.21,0,4.51,0,6.72,0,6.71,0,13.45,0,20.16,0,6.43,0,12.89,0,19.32,0,3.06,0,6.18,0,9.24,0,1.47-.7,2.91-1.84,4.2-2.83,4.72-3.74,8.81-8.3,13.44-12.14,4.61-4.07,9.91-5.82,15.96-3.99"/><path class="b" d="M11.58,32.49c10.23,0,15.97-7.73,28.56-4.87,5.54,1.26,9.33,2.65,15.12,1.33,8.47-1.85,15.14-3.11,23.52.23,3.62,1.4,7.18,3.15,10.92,4.24,3.51,1.06,7.25,1.5,10.92,1.4,3.9-.07,7.88-.61,11.76.01,2.24.25,4.49,1.04,6.72,1.27,4.46,0,8.98,0,13.44,0,3.62,0,7.3,0,10.92,0,.86,0,1.81-.68,2.52-1.09,1.08-.66,2.34-1.52,3.36-2.28,4.47-3.33,8.48-7.34,12.6-11.07,5-4.53,11.26-9.81,18.48-8.01"/><path class="b" d="M11.58,26.17c8.15-.97,15.03-7.46,23.52-6.58,5.76.31,10.97,3.9,16.8,3.5,3.95-.24,7.84-1.32,11.76-1.77,3.91-.49,7.97-.28,11.76.81,4.83,1.42,9.32,3.99,14.28,5,6.04,1.51,12.33.93,18.48,1.42,2.59.21,5.18.98,7.56,2.01.74.31,1.74.78,2.52.98,1.05,0,2.31,0,3.36,0,4.46,0,8.98,0,13.44,0,1.63,0,3.41,0,5.04,0,1.1.05,2.44.04,3.36-.67,6.31-3.52,12.04-8.02,17.64-12.56,5.45-4.12,12.16-10.69,19.32-10.54"/></svg>