<?xml version="1.0" encoding="UTF-8"?><svg id="a" xmlns="http://www.w3.org/2000/svg" width="1920" height="2400" viewBox="0 0 192 240"><defs><style>.b{fill:none;stroke:#fff;stroke-miterlimit:10;stroke-width:.4px;}.c{stroke-width:0px;}</style></defs><rect class="c" x="0" width="192" height="240"/><path class="b" d="M8.45,227.42c18.58,0,37.17,0,55.75,0,8.41,0,16.85,0,25.26,0,1.21-.03,2.36-1.01,3.48-1.37,1.62-.65,3.48-1.08,5.23-1.08,1.75,0,3.61.41,5.23,1.05,1.12.38,2.3,1.26,3.48,1.41,8.12,0,16.27,0,24.39,0,17.42,0,34.85,0,52.27,0"/><path class="b" d="M8.45,222.69c37.75,0,75.5,0,113.25,0,13.35,0,26.72,0,40.07,0,4.63,0,9.31,0,13.94,0,1.69,0,3.53,0,5.23,0,.79,0,1.9.09,2.61-.32"/><path class="b" d="M8.45,217.96c37.75,0,75.5,0,113.25,0,13.35,0,26.72,0,40.07,0,4.63,0,9.31,0,13.94,0,1.39,0,2.96,0,4.36,0,.4,0,1.34,0,1.74,0,.4-.22,1.34-.68,1.74-.9"/><path class="b" d="M8.45,213.23h175.1"/><path class="b" d="M8.45,208.5h175.1"/><path class="b" d="M8.45,203.77h175.1"/><path class="b" d="M8.45,199.04c2.88,0,5.83,0,8.71,0,1.1-.1,2.38-.29,3.48-.19,3.73.4,7.57.11,11.32.19,6.38,0,12.79,0,19.16,0,1.1,0,2.39,0,3.48,0,1.69-.42,3.49-.97,5.23-1.15,3.47-.44,7.02.03,10.45.56,2.85.42,5.87.85,8.71.16,1.7-.5,3.51-1.12,5.23-1.54,4.27-1.09,8.69-1.78,13.07-2.28,3.45-.39,6.99-.68,10.45-.89,3.8-.35,7.71-.3,11.32,1.05,2.99,1,5.9,2.43,8.71,3.84.74.31,1.83.24,2.61.24,1.39,0,2.96,0,4.36,0,3.75,0,7.57,0,11.32,0,12.48,0,24.98,0,37.46,0"/><path class="b" d="M8.45,192.34c2.9-.61,5.78-1.67,8.71-2.13,3.54-.45,7.08.65,10.45,1.59,3.66,1.05,7.48,2.02,11.32,1.91,3.96-.03,7.73-1.46,11.32-2.97,2.76-1.02,5.77-1.6,8.71-1.54,4.15.05,8.19,1.35,12.2,2.31,4.25,1.09,7.26.94,11.32-.69,3.74-1.26,7.54-2.57,11.32-3.68,4.54-1.33,9.22-2.41,13.94-2.85,3.23-.38,6.63-.32,9.58,1.18,3.14,1.46,6.01,3.62,8.71,5.77.77.62,1.84,1.48,2.61,2.11.32.38,1.23.92,1.74.96,3.75,0,7.57,0,11.32,0,13.93,0,27.88,0,41.81,0"/><path class="b" d="M8.45,182.32c3.46.02,7.02-.21,10.45.36,4.34.8,8.62,2.31,13.07,2.51,6.05.45,11.73-1.97,17.42-3.61,4.34-1.09,8.92-.3,13.07,1.17,4.57,1.51,9.03,4,13.94,4.12,3.08.03,5.95-1.52,8.71-2.71,4.04-1.87,8.04-3.97,12.2-5.58,4.68-1.81,9.76-3,14.81-2.62,2.51.3,4.91,1.55,6.97,2.96,2.81,1.95,5.39,4.39,7.84,6.76,1.41,1.22,2.68,3.03,4.36,3.89,4.05,0,8.15,0,12.2,0,13.35,0,26.72,0,40.07,0"/><path class="b" d="M8.45,173.2c6.05,1.03,11.53,4.04,17.42,5.6,8.49,2.17,14.08-2.01,21.78-4.02,7.48-1.51,14.23,3.13,20.91,5.72,6.71,2.71,10.46,1.96,16.55-1.65,5.61-3.21,11.08-7.03,17.42-8.64,4.25-1.02,9.01-1.29,13.07.58,6.85,3.21,11.66,9.4,17.42,14.07h50.53"/><path class="b" d="M8.45,165.56c10.37,3.48,16.53,13.33,28.75,8.69,5.39-1.95,9.7-4.89,15.68-3.2,7.63,1.78,14.54,7.13,22.65,6.5,5.28-.55,9.56-4.2,13.94-6.88,5.2-3.4,11.05-6.48,17.42-6.39,11.83-.05,20.59,9.21,29.62,15.62,1.93.5,4.11.12,6.1.23,3.46,0,6.99,0,10.45,0,10.16,0,20.33,0,30.49,0"/><path class="b" d="M8.45,159.83c9.21,3.18,15.33,14.58,26.13,12.93,7.88-1.34,10.42-5.16,19.16-2.76,13.57,3.62,19.97,5.97,32.23-2.95,6.38-4.46,13.69-8.73,21.78-7.58,12.82,1.66,24.11,8.73,34.85,15.49,0,0,.87.42.87.42,0,0,.87,0,.87,0,1.09,0,2.4,0,3.48,0,3.17,0,6.41,0,9.58,0,8.7,0,17.43,0,26.13,0"/><path class="b" d="M8.45,156.37c8.55,2.36,13.45,11.13,21.78,13.98,1.33.53,2.95.24,4.36.31,1.99-.05,4.12.12,6.1-.1,3.41-.86,6.93-1.59,10.45-1.09,11.2,1.21,19.69,1.41,29.62-4.81,4.07-2.53,7.92-5.57,12.2-7.76,6.86-3.72,13.55-3.46,20.91-1.6,8.18,1.89,16.11,4.93,23.52,8.85,2.34,1.25,4.77,2.6,6.97,4.08,1.11.73,2.29,1.83,3.48,2.43.41,0,1.33,0,1.74,0,11.32,0,22.66,0,33.97,0"/><path class="b" d="M8.45,154.72c6.86.97,11.96,6.15,17.42,9.94.45.29,1.28.88,1.74,1.15,1.38.24,2.96.08,4.36.12,2.58,0,5.26,0,7.84,0,8.12,0,16.27,0,24.39,0,2.58-.08,5.28.17,7.84-.13,7.65-2.8,13.73-8.52,20.91-12.2,3.49-1.78,7.39-2.95,11.32-3.07,6.47-.11,12.91,1.36,19.16,2.89,6.84,1.79,13.63,4.02,20.04,7.03,2.85,1.4,5.32,3.6,7.84,5.48h32.23"/><path class="b" d="M8.45,153.59c6.29.1,11.51,2.4,16.55,6,.78.5,1.77,1.23,2.61,1.61,1.4,0,2.96,0,4.36,0,14.51,0,29.04,0,43.56,0,1.1-.05,2.46.19,3.48-.3,2.04-1.2,4.12-2.6,6.1-3.89,4.58-3.01,9.44-5.89,14.81-7.2,9.8-2.29,19.92-.11,29.62,1.71,3.47.67,7,1.36,10.45,2.12,3.72.67,7.34,2.04,10.45,4.21,1.44.96,3,2.13,4.36,3.21,3.14.35,6.42.05,9.58.14,6.38,0,12.79,0,19.17,0"/><path class="b" d="M8.45,151.92c3.16-.24,6.41-.59,9.58-.38,2.12.26,4.22,1.12,6.1,2.09,1.44.75,2.98,1.68,4.36,2.54,1.04.5,2.37.26,3.48.31,1.7,0,3.53,0,5.23,0,15.97,0,31.95,0,47.91,0,1.79-.71,3.49-1.95,5.23-2.77,2.76-1.44,5.72-2.71,8.71-3.59,5.07-1.46,10.42-2.07,15.68-2.15,3.48.05,7,.49,10.45.87,4.32.49,8.72.85,13.07.95,2.29.09,4.69-.01,6.97.22,2.7.29,5.41,1.16,7.84,2.37,1.45.72,3.01,1.65,4.36,2.55.74.5,1.74,1.31,2.61,1.56.4,0,1.33,0,1.74,0,7.25,0,14.53,0,21.78,0"/><path class="b" d="M8.45,148.9c9.82-2.11,11.31-4.81,20.91,1.1.8.48,1.84,1.17,2.61,1.68,2.29.14,4.68.03,6.97.06,9.57,0,19.17,0,28.75,0,6.08,0,12.21,0,18.29,0,1.99,0,4.1,0,6.1,0,1.41-.01,3.03.15,4.36-.45,3.67-1.22,7.52-2.06,11.32-2.76,2.57-.47,5.22-1.1,7.84-1.18,5.8-.2,11.63.59,17.42.24,13.16-.74,17.93-5.47,30.49,3.12.36.3,1.32.83,1.74,1.04.4,0,1.33,0,1.74,0,1.39,0,2.96,0,4.36,0,4.05,0,8.15,0,12.2,0"/><path class="b" d="M8.45,143.99c7.26-2.14,10.51-6.42,18.29-2.42,2.11,1.06,4.18,2.46,6.1,3.82,1.02.68,2.15,1.83,3.48,1.62,6.38,0,12.79,0,19.17,0,18,0,36.01,0,54.01,0,2.33.18,4.67-.41,6.97-.67,3.45-.34,6.99-.33,10.45-.55,6.88-.27,13.53-2.21,20.04-4.32,5.78-1.83,11.4-.84,16.55,2.25,1.1.63,2.41,1.42,3.48,2.1.4.27,1.33.81,1.74,1.08.39.08,1.33.14,1.74.11,4.34,0,8.73,0,13.07,0"/><path class="b" d="M8.45,138c3.22-1.22,6.31-2.97,9.58-4.03,6.02-1.36,11.18,3.24,15.68,6.57,2.24,1.86,2.4,1.81,5.23,1.74,2.58,0,5.26,0,7.84,0,26.71,0,53.43,0,80.14,0,2.58-.02,5.26.05,7.84-.04,2.02-.5,4.13-1.15,6.1-1.84,11.48-4.45,15.57-6.31,27.01.3.75.42,1.84.99,2.61,1.39,1.36.34,2.96.12,4.36.18,2.88,0,5.84,0,8.71,0"/><path class="b" d="M8.45,132.42c9.56-3.54,11.88-5.67,20.91.87,1.74,1.26,3.54,2.71,5.23,4.03,1.93.5,4.11.12,6.1.23,29.62,0,59.24,0,88.86,0,3.17,0,6.41,0,9.58,0,1.69-.09,3.59.24,5.23-.23,2.86-1.3,5.71-2.88,8.71-3.83,3.35-1.11,7.07-1.17,10.45-.16,3.88,1.03,7.4,3.35,11.32,4.22,2.88,0,5.84,0,8.71,0"/><path class="b" d="M8.45,127.24c3.15-.69,6.38-1.47,9.58-1.83,5.74.03,10.35,4.23,14.81,7.33,30.19.22,60.4,0,90.6.08,7.83,0,15.69,0,23.52,0,1.24.19,2.48-.51,3.48-1.14,1.63-.9,3.46-1.8,5.23-2.4,8.23-2.96,14.26,1.96,21.78,3.54,1.99,0,4.11,0,6.1,0"/><path class="b" d="M8.45,122.37c3.17-.04,6.41.02,9.58.03,3.47.34,6.64,2.14,9.58,3.89.79.47,1.83,1.13,2.61,1.62,1.95.4,4.11.09,6.1.18,10.45,0,20.91,0,31.36,0,26.42,0,52.85,0,79.27,0,1.1-.05,2.47.2,3.48-.33,2.18-1.25,4.54-2.46,6.97-3.11,6.33-1.91,12.4,1.56,18.29,3.44,2.58,0,5.26,0,7.84,0"/><path class="b" d="M8.45,117.65c2,.37,4.09.89,6.1,1.24,2.01.32,4.17.4,6.1,1.12,1.76.59,3.57,1.43,5.23,2.26,1.05.53,2.25,1.27,3.48,1.1,15.09,0,30.2,0,45.3,0,22.65,0,45.3,0,67.95,0,1.99-.05,4.12.12,6.1-.1,1.66-.8,3.48-1.64,5.23-2.24,6.87-2.43,11.19-.14,17.42,2.34,4.05,0,8.15,0,12.2,0"/><path class="b" d="M8.45,112.82c2,.6,4.07,1.35,6.1,1.86,1.68.43,3.56.54,5.23,1.06,2.69.67,5.18,2.23,7.84,2.89,13.35,0,26.72,0,40.07,0,9.57,0,19.17,0,28.75,0,4.63,0,9.31,0,13.94,0,1.38-.42,2.91-.97,4.36-1.13,3.76-.47,7.59.18,11.32.59,3.73.44,7.57.65,11.32.39,2.59-.21,5.3-.38,7.84-.96,3.97-1.01,8.03-2.48,12.2-2,2.08.22,4.2.89,6.1,1.75,1.1.4,2.27,1.45,3.48,1.36,5.5,0,11.05,0,16.55,0"/><path class="b" d="M8.45,108.63c1.98.77,4.05,1.64,6.1,2.22,1.37.4,2.96.5,4.36.8,2.66.48,5.21,1.74,7.84,2.26,8.41,0,16.85,0,25.26,0,18-.03,36.01.05,54.01-.03,7.73-7.33,16.09-3.83,25.26-2.38,4.01.66,8.14.9,12.2.76,4.62-.34,9.39-1.27,13.94.09,1.75.32,3.46,1.64,5.23,1.57,6.96,0,13.95,0,20.91,0"/><path class="b" d="M8.45,104.79c2.5,1.1,5.11,2.35,7.84,2.74,2.95.15,5.84,1.06,8.71,1.64,9.57,0,19.17,0,28.75,0,8.12,0,16.27,0,24.39,0,8.41,0,16.85,0,25.26,0,1.24-.61,2.36-1.86,3.48-2.66,1.56-1.19,3.37-2.36,5.23-3.04,6.11-2.15,12.47.61,18.29,2.47,3.39,1.12,6.9,2.16,10.45,2.57,3.45.39,7.01.12,10.45.53,3.74.3,7.58.04,11.32.13,6.96,0,13.95,0,20.91,0"/><path class="b" d="M8.45,100.66c2.22.96,4.56,1.99,6.97,2.39,1.7.19,3.55.18,5.23.53,1.41.22,2.94.71,4.36.86,2.29,0,4.68,0,6.97,0,5.21,0,10.47,0,15.68,0,18.29,0,36.59,0,54.88,0,12.5-8.92,16.06-7.99,29.62-1.86,1.38.61,2.94,1.26,4.36,1.78,2.87.21,5.84.03,8.71.09,12.77,0,25.56,0,38.33,0"/><path class="b" d="M8.45,95.76c2.24.79,4.59,1.63,6.97,1.86,2.62,0,5.31.17,7.84.92,1.41.33,2.92.94,4.36,1.17,2.58,0,5.26,0,7.84,0,6.09,0,12.21,0,18.29,0,8.7,0,17.43,0,26.13,0,7.54,0,15.11,0,22.65,0,3.63-.78,7.02-2.69,10.45-4.07,6.85-2.51,13.87,1.01,20.04,3.83.74.3,1.83.23,2.61.23,1.39,0,2.96,0,4.36,0,3.75,0,7.57,0,11.32,0,10.74,0,21.5,0,32.23,0"/><path class="b" d="M8.45,89.87c1.98.48,4.07.99,6.1,1.17,2,.13,4.13-.22,6.1.27,2.37.49,4.73,1.43,6.97,2.34,1.38.47,2.85,1.45,4.36,1.33,14.22,0,28.46,0,42.69,0,11.32,0,22.66,0,33.97,0,.78,0,1.86.06,2.61-.19,1.05-.52,2.36-1.04,3.48-1.36,3.08-.91,6.43-.97,9.58-.42,2.66.35,5.23,1.52,7.84,1.98,5.5,0,11.05,0,16.55,0,11.61,0,23.24,0,34.85,0"/><path class="b" d="M8.45,83.02c1.99.3,4.09.64,6.1.71,2,.03,4.12-.36,6.1.14,6.06,1.33,11.3,5.28,17.42,6.38,2.58,0,5.26,0,7.84,0,1.45-.21,2.92-.98,4.36-1.26,1.98-.4,4.13-.27,6.1.1,2.02.3,4.03,1.3,6.1,1.15,7.25,0,14.53,0,21.78,0,2.59-.25,5.25.02,7.84,0,7.25,0,14.53,0,21.78,0,1.7,0,3.53,0,5.23,0,2.25-.51,4.66-.78,6.97-.81,4.37-.16,8.71.95,13.07.81,14.8,0,29.62,0,44.43,0"/><path class="b" d="M8.45,76.5c1.99.12,4.1.24,6.1.13,1.41-.06,2.94-.4,4.36-.42,5.81-.02,11.12,2.79,16.55,4.5,3.06.99,6.35,1.72,9.58,1.47,2.05-.11,4.07-.98,6.1-1.19,6.52-.64,12.8,1.97,19.17,2.93,2.27.37,4.67.59,6.97.53,1.7-.03,3.52-.37,5.23-.25,1.42.09,2.99.39,4.36.76,1.07.37,2.34.69,3.48.58,6.67,0,13.37,0,20.04,0,2.29,0,4.68,0,6.97,0,1.73-.02,3.62.21,5.23-.56,5.02-1.74,10.4-2.23,15.68-2.23,2.29.07,4.7-.34,6.97.04,2.16.44,4.25,1.52,6.1,2.69.76.08,1.85.06,2.61.06,9.86,0,19.75,0,29.62,0"/><path class="b" d="M8.45,71.7c3.82.05,7.6-.77,11.32-1.5,5.55-.91,11.2.11,16.55,1.62,3.95,1.04,8.07,2.34,12.2,1.81,7-.79,14.05.52,20.91,1.81,4.06.87,8.25,1.58,12.2,2.9,1.79.6,3.43,1.92,5.23,2.45,10.45,0,20.91,0,31.36,0,.77,0,1.84,0,2.61-.02.76-.38,1.83-.88,2.61-1.22,2.21-.95,4.61-1.74,6.97-2.21,4.57-.85,9.31-.92,13.94-1.04,3.32.39,6.06,2.64,8.71,4.49h30.49"/><path class="b" d="M8.45,69.1c3.56-.27,7.11-1.16,10.45-2.4,4.97-1.93,10.26-3.85,15.68-3.09,3.87.44,7.56,1.95,11.32,2.84,2.54.57,5.25.57,7.84.66,12.76.12,21.31-.07,31.36,8.95,9.28,0,18.59,0,27.88,0,1.99,0,4.1,0,6.1,0,.78,0,1.85.05,2.61-.18.43-.2,1.31-.59,1.74-.77,4.92-2.17,10.4-2.25,15.68-1.98,1.4.04,2.96-.01,4.36-.12,2.87-.01,5.5,1.56,7.84,3.06h32.23"/><path class="b" d="M8.45,68.21c3.6-.5,7.2-1.64,10.45-3.26,5.21-2.87,10.26-7.21,16.55-6.95,6.93.32,11.82,4.98,19.16,4.42,4.06-.1,8.13-.89,12.2-.81,7.8.01,12.63,4.07,17.42,9.73,8.99,0,18.01,0,27.01,0,4.05,0,8.15,0,12.2,0,1.7-.12,3.5-.63,5.23-.57,2.01-.05,4.11.35,6.1.57,4.92,0,9.89,0,14.81,0,11.32,0,22.66,0,33.97,0"/><path class="b" d="M8.45,66.6c1.1,0,2.39,0,3.48,0,1.79-.3,3.55-1.23,5.23-1.89,5.97-2.98,10.47-9.15,17.42-9.99,6.88-.95,12.35,5.23,19.16,4.67,3.84-.21,7.56-1.52,11.32-2.21,9.13-1.88,14.05,2.51,19.16,9.43h99.31"/><path class="b" d="M8.45,61.87c3.75-.03,7.57.06,11.32-.04,8.51-5.88,13.59-10.88,24.39-6.37,3.83,1.58,7.19,2.57,11.32,1.53,5.77-1.24,11.35-4.57,17.42-3.73,3.89.53,7.12,3.16,9.58,6.07.76.79,1.53,2.16,2.61,2.54,1.99,0,4.1,0,6.1,0,4.34,0,8.73,0,13.07,0,26.42,0,52.85,0,79.27,0"/><path class="b" d="M8.45,57.14c6.09,0,12.21,0,18.29,0,7.23-3.48,12.29-3.43,20.04-2.23,3.5.53,7.08-.09,10.45-1.04,10.45-3.17,18.48-5.61,27.01,3.26,33.1.04,66.21,0,99.31.01"/><path class="b" d="M8.45,52.41c12.48,0,24.98,0,37.46,0,2.04.04,4.11-.7,6.1-1.08,2.86-.65,5.81-1.31,8.71-1.74,5.18-.8,10.56-.82,15.68.39,2.4.48,4.74,1.47,6.97,2.43,3.17,0,6.41,0,9.58,0,7.83,0,15.69,0,23.52,0,22.36,0,44.72,0,67.08,0"/><path class="b" d="M8.45,47.68c13.06,0,26.14,0,39.2,0,1.81.12,3.49-1.13,5.23-1.48,2.8-.77,5.81-.99,8.71-.81,4.7.27,9.3,1.57,13.94,2.28,11.61,0,23.24,0,34.85,0,24.39,0,48.79,0,73.18,0"/><path class="b" d="M8.45,42.95c12.77,0,25.56,0,38.33,0,1.66.27,2.93-1.11,4.36-1.68,2.42-1.1,5.21-1.44,7.84-1.13,2.35.26,4.73.96,6.97,1.7,1.09.35,2.36.85,3.48,1.11.78,0,1.83,0,2.61,0,11.61,0,23.24,0,34.85,0,25.55,0,51.11,0,76.66,0"/><path class="b" d="M8.45,38.22c12.77,0,25.56,0,38.33,0,1.65.19,2.9-1.51,4.36-2.05,2.4-1.17,5.22-1.49,7.84-1.09,2.68.39,5.32,1.37,7.84,2.33.45.17,1.3.5,1.74.67,1.08.23,2.39.11,3.48.14,11.61,0,23.24,0,34.85,0,25.55,0,51.11,0,76.66,0"/><path class="b" d="M8.45,33.49h39.2c6.6-4.99,13.01-2.87,20.04-.23,1.64.48,3.54.14,5.23.23,2.58,0,5.26,0,7.84,0,19.16,0,38.33,0,57.49,0,4.92,0,9.89,0,14.81,0,3.96-1.22,7.99-2.68,12.2-2.66,3.89-.06,7.81.93,11.32,2.54,2.27.26,4.68.05,6.97.11"/><path class="b" d="M8.45,26.62c2.59.49,5.25,1.13,7.84,1.63,1.68.44,3.49.61,5.23.52,8.7,0,17.43,0,26.13,0,4.81-3.34,10.47-2.46,15.68-.65,1.9.87,4.07.64,6.1.65,2.58,0,5.26,0,7.84,0,13.06,0,26.14,0,39.2,0,6.08,0,12.21,0,18.29,0,2.87-.05,5.84.12,8.71-.08,1.72-.36,3.54-.87,5.23-1.36,8.43-2.69,16.58-4.35,25.26-1.56,1.75.51,3.56,1.3,5.23,2.02.75.33,1.81.8,2.61.98.4,0,1.33,0,1.74,0"/><path class="b" d="M8.45,19.87c4.08,1.27,8.21,2.62,12.2,4.17,3.46,0,6.99,0,10.45,0,4.05,0,8.15,0,12.2,0,1.7,0,3.53,0,5.23,0,.77-.28,1.81-.64,2.61-.79,1.99-.38,4.13-.2,6.1.21,1.09.21,2.36.68,3.48.58,11.32,0,22.66,0,33.97,0,13.35,0,26.72,0,40.07,0,.85.02,1.85-.56,2.61-.87,1.07-.44,2.38-.92,3.48-1.27,7.35-2.05,14.97-3.73,22.65-3.45,3.8.13,7.64.72,11.32,1.63,2.92.77,5.8,1.97,8.71,2.76"/><path class="b" d="M8.45,14.51c3.84,1.36,7.66,3.03,11.32,4.8,7.25,0,14.53,0,21.78,0,9.57,0,19.17,0,28.75,0,20.9,0,41.82,0,62.72,0,7.71-5.35,16.04-6.79,25.26-6.72,5.53.04,11.1.59,16.55,1.53,2.91.55,5.82,1.46,8.71,2.08"/></svg>