<?xml version="1.0" encoding="UTF-8"?><svg id="a" xmlns="http://www.w3.org/2000/svg" width="1920" height="2400" viewBox="0 0 192 240"><defs><style>.b{fill:none;stroke:#fff;stroke-miterlimit:10;stroke-width:.4px;}.c{stroke-width:0px;}</style></defs><rect class="c" x="0" width="192" height="240"/><path class="b" d="M8.04,232.67c5.24,0,10.52,0,15.75,0,1.73.08,3.52-.5,5.25-.49,2.02-.07,4.13.21,6.13.49,1.71,0,3.54,0,5.25,0,4.07,0,8.19,0,12.25,0,1.69-.27,3.53-.54,5.25-.36,2.57.54,5.27.32,7.88.36,3.77,0,7.61,0,11.38,0,10.79,0,21.6,0,32.38,0,7.57,0,15.18,0,22.76,0,.42,0,1.33,0,1.75,0,.78-.42,1.85-1.03,2.63-1.47,1.68-.94,3.53-1.93,5.25-2.8,5.88-2.76,11.13-7.05,17.5-8.69,5.23-1.45,10.73-.31,15.75,1.41,3.22,1.19,6.06,3.35,8.75,5.44"/><path class="b" d="M8.04,227.92c6.41,0,12.85,0,19.25,0,2.33.02,4.67-.83,7-.88,3.47-.27,7.03-.1,10.5-.24,2.62-.06,5.27-.65,7.88-.84,2.03-.15,4.2.05,6.13.7,1.15.3,2.29,1.25,3.5,1.26,9.91,0,19.85,0,29.76,0,11.37,0,22.76,0,34.13,0,2.59-.1,5.32.21,7.88-.16,1.68-1.16,3.52-2.38,5.25-3.46,2.57-1.61,5.4-2.99,7.88-4.75,3.67-2.51,7.3-5.27,11.38-7.1,8.91-4.11,18.17-1.27,25.38,4.81"/><path class="b" d="M8.04,223.17c6.41,0,12.85,0,19.25,0,2.07-.59,4.05-1.81,6.13-2.43,3.08-1.08,6.37-1.78,9.63-2.05,5.01-.4,10.36-.43,14.88,2.08.81.43,1.87,1.09,2.63,1.62.4.37,1.19.81,1.75.78,23.92,0,47.85,0,71.77,0,2.35-1.45,4.62-3.27,7-4.68,3.08-1.69,6.07-3.71,8.75-5.98,11.72-9.95,20.27-14.77,34.13-4.8"/><path class="b" d="M8.04,218.41c5.53,0,11.1,0,16.63,0,1.54.14,3.01-1.35,4.38-1.95,1.95-1.09,4.05-2.16,6.13-2.99,5.52-2.29,12.01-2.75,17.5-.15,2.87,1.23,5.32,3.36,7.88,5.09,21.29,0,42.6,0,63.89,0,2.59,0,5.28,0,7.88,0,1.1-.02,2.41.06,3.5-.08.43-.3,1.32-.91,1.75-1.2,2.75-2.01,5.99-3.41,8.75-5.4,7.91-5.69,14.77-15.3,25.38-15.32,4.36.17,8.43,2.18,12.25,4.12"/><path class="b" d="M8.04,213.66c2.6,0,5.28,0,7.88,0,1.7-.12,3.64.31,5.25-.31,4.45-1.64,8.63-4.09,13.13-5.6,9.41-3.3,16.39-.41,23.63,5.79,8.14.31,16.35.01,24.51.11,14.87,0,29.76,0,44.64,0,3.77,0,7.61,0,11.38,0,3.23-1.71,6.73-3.15,9.63-5.4,7.33-5.36,13.96-13.56,23.63-14.13,4.19-.01,8.29,1.45,12.25,2.66"/><path class="b" d="M8.04,205.9c2.54-.65,5.24-1.21,7.88-1.1,2.91.3,5.91-.17,8.75-.78,12.15-3.06,20.3-3.03,30.63,4.84,25.37.14,50.77,0,76.14.05,4.35-.1,8.79.2,13.13-.13,2.45-1.09,4.8-2.64,7-4.16,6.34-4.37,12.94-9.75,21.01-9.85,3.79.12,7.62.82,11.38,1.3"/><path class="b" d="M8.04,196.59c2.23-.7,4.65-1.26,7-1.17,2.3.24,4.68.64,7,.65,4.37.12,8.81.09,13.13.86,6.12,1.09,12.02,3.43,17.5,6.33.45.24,1.29.69,1.75.89.79,0,1.84,0,2.63,0,2.3,0,4.7,0,7,0,6.11,0,12.27,0,18.38,0,18.08,0,36.18,0,54.26,0,3.18,0,6.44,0,9.63,0,1.4-.06,3,.16,4.38-.17.77-.38,1.86-.92,2.63-1.31,6-3.11,12.37-6.17,19.25-6.33,3.77.01,7.61.21,11.38.2"/><path class="b" d="M8.04,188.91c4.81-2.12,7.26-2.02,12.25-.99,7.9,1.21,15.41,4.07,22.76,7.12,8.08,3.29,16.67,4.94,25.38,3.95,2.88-.22,5.86-.53,8.75-.33,2.32.2,4.65.95,7,.75,9.91,0,19.85,0,29.76,0,15.17,0,30.35,0,45.51,0,2.9.03,5.85-.67,8.75-.77,5.25-.26,10.54-.58,15.75-1.27"/><path class="b" d="M8.04,183.21c3.84-2.17,6.99-3.26,11.38-2.12,9.94,1.89,18.1,8.89,28.01,10.75,11.18,1.68,21.22-7.19,32.38-5.18,6.31,1.3,11.99,4.59,17.5,7.79,2.54.47,5.29.08,7.88.2,4.65,0,9.35,0,14,0,21.59,0,43.18,0,64.77,0"/><path class="b" d="M8.04,179.4c2.42-1.44,5.01-3.06,7.88-3.32,8.69-.02,15.78,6,23.63,8.89,6.14,2.47,10.9,1.71,16.63-1.34,8.63-4.59,18.26-10.21,28.01-5.19,5.98,3.12,10.85,8.02,16.63,11.46h83.15"/><path class="b" d="M8.04,176.93c3.2-1.84,6.64-4.1,10.5-3.62,12.52,1.44,22.09,13.69,35.01,5.08,4.75-2.85,9.4-6.26,14.88-7.57,4.74-1.1,11.44-.79,15.75,1.58,8.05,4.35,15.55,13.54,25.38,12.74,9.33,0,18.68,0,28.01,0,15.46,0,30.93,0,46.39,0"/><path class="b" d="M8.04,174.8c2.81-1.3,5.61-3.11,8.75-3.44,10.79-.58,20.53,9.74,31.51,5.22,3.71-1.57,6.98-4.1,10.5-6.01,7.05-4.05,12.45-3.7,20.13-2.29,3.8.3,7.22,2.3,10.5,4.07,6.8,3.91,13.06,6.1,21.01,4.9,3.23-.57,6.6.04,9.63,1.24.79.3,1.86.76,2.63,1.12.74.36,1.76.94,2.63.79,19.54,0,39.1,0,58.64,0"/><path class="b" d="M8.04,171.83c3.12-1.05,6.25-2.71,9.63-2.65,6.52.21,12.22,3.98,18.38,5.69,1.96.62,4.08.9,6.13.79,1.75.07,3.61-.03,5.25-.67,5.92-2.28,11.07-6.71,17.5-7.62,3.78-.63,7.65.08,11.38.76,3.2.5,6.52.62,9.63,1.64,5.64,1.73,11.63,2.87,17.5,1.72,3.19-.47,6.39-1.54,9.63-1.63,3.13.07,6.12,1.48,8.75,3.08,1.13.69,2.43,1.59,3.5,2.37.71.43,1.83.35,2.63.34,18.67,0,37.35,0,56.01,0"/><path class="b" d="M8.04,168.34c6.3-.85,9.63-1.57,15.75.99,1.11.43,2.41.98,3.5,1.45,1.39.22,2.97.08,4.38.11,6.99,0,14.01,0,21.01,0,1.21.1,2.4-.86,3.5-1.25,1.93-.84,4.05-1.57,6.13-1.93,5.92-1.24,11.65,1.44,17.5,1.72,8.15.43,13.07,1.39,21.01-2.04,3.99-1.56,7.88-4.01,12.25-4.22,3.89-.06,7.48,2,10.5,4.28,1.46,1.02,2.83,2.55,4.38,3.44h56.01"/><path class="b" d="M8.04,164.89c2.29.45,4.68.96,7,1.25,1.71,0,3.55,0,5.25,0,4.94,0,9.94,0,14.88,0,14.29,0,28.6,0,42.89,0,4.06,0,8.19,0,12.25,0,1.99-.11,4.18.25,6.13-.22,1.12-.53,2.43-1.23,3.5-1.86,3.18-1.84,6.22-4.13,9.63-5.54,7.88-3.18,14.87,2.22,20.13,7.62h54.26"/><path class="b" d="M8.04,161.39c23.34,0,46.68,0,70.02,0,4.65,0,9.35,0,14,0,2,0,4.12,0,6.13,0,1.18-.44,2.43-1.29,3.5-1.94,2.84-1.77,5.61-3.89,8.75-5.11,9-3.13,14.95.22,21.01,6.88,2.26.38,4.71.08,7,.17,3.77,0,7.61,0,11.38,0,11.37,0,22.76,0,34.13,0"/><path class="b" d="M8.04,156.64c23.92,0,47.85,0,71.77,0,4.65,0,9.35,0,14,0,2.29-.12,4.76.26,7-.21,1.12-.51,2.42-1.19,3.5-1.78,1.68-.92,3.49-1.96,5.25-2.74,2.24-.89,4.68-1.59,7-2.23,6.84-1.96,12.25,1.93,16.63,6.81,2.27.33,4.71.06,7,.14,3.77,0,7.61,0,11.38,0,10.79,0,21.6,0,32.38,0"/><path class="b" d="M8.04,151.88c13.41,0,26.85,0,40.26,0,5.82,0,11.68,0,17.5,0,1.17.06,2.38-.73,3.5-.99,1.67-.49,3.52-.79,5.25-.94,2.59-.09,5.29-.63,7.88-.29,2.69.39,5.23,1.72,7.88,2.21,2.6,0,5.28,0,7.88,0,1.7-.1,3.61.25,5.25-.24,2.63-.95,5.21-2.29,7.88-3.13,5.12-1.67,10.35-4.8,15.75-2.2,2.66,1.19,4.97,3.24,7,5.29.73.35,1.84.28,2.63.27,1.09,0,2.41,0,3.5,0,3.18,0,6.44,0,9.63,0,11.37,0,22.76,0,34.13,0"/><path class="b" d="M8.04,147.13c19.25,0,38.51,0,57.76,0,3.32-2.45,7.29-4.02,11.38-4.51,2-.28,4.16-.58,6.13.06,2.71.79,5.28,2.22,7.88,3.3,1.36.53,2.88,1.28,4.38,1.16,3.18-.06,6.45.13,9.63-.09,2.6-.78,5.27-1.64,7.88-2.4,2.01-.71,4.07-1.65,6.13-2.24,5.19-1.72,10.08.29,14,3.77,1.03,1.33,2.91.91,4.38.96,1.7,0,3.55,0,5.25,0,8.74,0,17.51,0,26.26,0,2.89,0,5.86,0,8.75,0,2.02-.11,4.29.4,6.13-.65"/><path class="b" d="M8.04,142.38c19.25-.06,38.52.11,57.76-.06,4.24-4.33,10.33-8.25,16.63-7,4.38,1.28,8.04,4.31,12.25,5.98,1.07.43,2.36.9,3.5,1.07,1.1,0,2.4,0,3.5,0,2-.07,4.16.21,6.13-.26,11.03-1.85,15.62-7.99,26.26.25,9.91.03,19.85,0,29.76,0,4.65,0,9.35,0,14,0,2-.44,4.11-.94,6.13-1.25"/><path class="b" d="M8.04,137.63h57.76c1.75-1.55,3.35-3.54,5.25-4.94,2.92-2.28,6.75-3.92,10.5-3.25,3.82.89,7.06,3.37,10.5,5.13,5.83,3.27,11.06,3.58,17.5,2.33,8.89-.98,13.65-5.76,22.76-.57.77.42,1.73,1.17,2.63,1.3,1.1,0,2.41,0,3.5,0,2.59,0,5.28,0,7.88,0,7.28,0,14.6,0,21.88,0,1.84.25,3.48-1,5.25-1.26,3.47-.37,7.04.16,10.5.4"/><path class="b" d="M8.04,132.88c15.75,0,31.51,0,47.26,0,3.48,0,7.02,0,10.5,0,1.43-.38,2.35-2.1,3.5-2.96,2.22-2,4.9-3.79,7.88-4.36,6.06-1.15,11.14,3.44,16.63,5.17,4.18,1.57,8.77,1.55,13.13.81,2.28-.42,4.72-.43,7-.83,4.01-.85,8.1-2.26,12.25-1.7,2.42.29,4.84,1.19,7,2.3,1.11.47,2.26,1.53,3.5,1.56,8.45,0,16.93,0,25.38,0,.41,0,1.34,0,1.75,0,1.15-.36,2.4-1.11,3.5-1.58,6.53-3.25,10.29-.61,16.63,1.14"/><path class="b" d="M8.04,128.12c19.54-.03,39.1.05,58.64-.03,13.85-12.76,20.13,1.31,35.01-1.65,2.61-.43,5.25-1.2,7.88-1.53,1.7-.17,3.56-.09,5.25-.44,3.73-.7,7.55-1.71,11.38-1.24,3.06.33,6.02,1.51,8.75,2.87,1.68.7,3.35,2.17,5.25,2.02,3.77,0,7.61,0,11.38,0,1.7,0,3.55,0,5.25,0,1.19-.04,2.42-.84,3.5-1.29,2.28-1.06,4.63-2.24,7-3.08,6.86-2.7,10.64.99,16.63,3.51"/><path class="b" d="M8.04,123.37c13.12,0,26.26,0,39.38,0,6.11-.06,12.27.11,18.38-.07,2.11-1.48,4.5-2.77,7-3.43,3.43-.92,7.11-.59,10.5.35,9.46,2.85,13.48,2.51,22.76-.62,1.37-.41,2.94-.79,4.38-.9,1.1-.04,2.41-.02,3.5-.18,2.31-.31,4.69-.89,7-1.18,9.3-1.33,13.94,3.53,21.88,6.04,1.7,0,3.55,0,5.25,0,1.1-.04,2.44.13,3.5-.2,7.32-1.67,15.44-9.38,22.76-7.68,3.47,1.01,6.42,3.4,9.63,4.99"/><path class="b" d="M8.04,118.62c12.25,0,24.51,0,36.76,0,3.77,0,7.61,0,11.38,0,2-.1,4.17.24,6.13-.21,2.45-1.33,5.14-2.44,7.88-3.04,3.99-.83,8.2-.84,12.25-.46,5.8.95,11.68,2.06,17.5.65,2.91-.59,5.82-1.55,8.75-2.06,2.29-.36,4.72-.18,7-.63,7.76-1.5,12.84-1.18,20.13,2.08,6.89,3.18,11.45,3.52,18.38.06,6.35-2.84,13.73-9.87,21.01-7.6,3.16,1.15,5.88,3.37,8.75,5.06"/><path class="b" d="M8.04,113.87c14.87,0,29.76,0,44.64,0,1.2.15,2.44-.39,3.5-.87,1.38-.57,2.95-1.14,4.38-1.58,3.95-1.25,8.13-1.78,12.25-2.09,1.71-.14,3.56-.3,5.25-.56,1.99-.38,4.09-.83,6.13-.78,5.83.11,11.66,1.17,17.5.82,4.36-.27,8.77-.52,13.13-.81,5.53-.7,11.23-.82,16.63.78,7.89,2.24,12.2,4.36,20.13.2,7.28-3.39,15.12-11.08,23.63-8.93,3.2,1.03,5.93,3.26,8.75,5.01"/><path class="b" d="M8.04,108.22c.47.2,1.29.6,1.75.79,1.7.21,3.55.06,5.25.1,3.19,0,6.44,0,9.63,0,4.94,0,9.93,0,14.88,0,1.71,0,3.55,0,5.25,0,1.11-.05,2.45.17,3.5-.27,7.97-4.64,15.8-4.38,24.51-5.67,3.07-.44,5.96-1.74,8.75-3.01,2.2-.81,4.67-1.1,7-.98,5.37.3,10.5,2.22,15.75,3.2,3.44.75,7.02.67,10.5.44,4.38-.21,8.83.09,13.13.95,4.33.79,8.68,2.16,13.13,2.03,6.16-.36,11.32-4.33,16.63-7.06,5.52-3.02,12.06-5.55,18.38-3.73,2.81.96,5.34,2.75,7.88,4.25"/><path class="b" d="M8.04,101.69c1.7.86,3.39,2.24,5.25,2.67,3.48,0,7.02,0,10.5,0,7.87,0,15.76,0,23.63,0,8.13-6.08,18.27-4.38,27.13-8.3,6.35-2.91,8.5-7.46,16.63-5.89,6.2,1.26,11.32,5.63,17.5,6.9,1.69.35,3.54.06,5.25.06,5.04-.03,10,1.2,14.88,2.33,4.55,1.04,9.43,2.01,14,.6,5.75-1.95,10.82-5.62,16.63-7.44,5.33-1.78,11.14-1.75,16.63-.82,2.76.7,5.34,2.21,7.88,3.46"/><path class="b" d="M8.04,95.51c2.26,1.41,4.66,2.83,7,4.1,3.48,0,7.02,0,10.5,0,7.87,0,15.76,0,23.63,0,6.57-4.43,14.87-4.76,21.88-8.22,2.47-1.18,4.88-2.74,7-4.47,1.4-1.15,2.83-2.59,4.38-3.55,8.06-5.32,15.81,1.95,22.76,5.68,2.12,1.12,4.59,1.9,7,1.54,2.32-.13,4.74.2,7,.74,6.38,1.47,12.57,4.67,19.25,4.27,3.1-.16,5.99-1.6,8.75-2.91,3.08-1.46,6.29-2.9,9.63-3.67,4.59-1.13,9.39-.61,14,.1,1.99.34,4.15.28,6.13.7,2.38.56,4.73,1.6,7,2.47"/><path class="b" d="M8.04,89.21c3.76,1.9,7.71,3.58,11.38,5.65,5.24,0,10.52,0,15.75,0,4.94,0,9.94,0,14.88,0,4.41-2.45,9.3-3.93,14-5.68,4.36-1.65,8.57-3.9,12.25-6.76,3.98-3.17,7.58-7.36,13.13-7.22,6.56.13,11.63,5.01,17.5,7.26,1.06.39,2.37.71,3.5.76,1.71-.08,3.56-.19,5.25.15,3.97.7,7.69,2.49,11.38,4.06,4.89,2.1,10.47,4.19,15.75,2.33,7.9-3.2,13.96-5.75,22.76-4.3,3.46.54,6.99,1.12,10.5,1.08,2.68.26,5.32,1.24,7.88,2.03"/><path class="b" d="M8.04,83.64c3.5,1.22,7.12,2.33,10.5,3.86,5.32,2.64,3.49,2.74,9.63,2.61,7.57,0,15.18,0,22.76,0,1.46-.19,2.96-.97,4.38-1.36,2.32-.76,4.75-1.55,7-2.49,5.12-2.09,9.77-5.27,14-8.79,4.52-3.91,9.3-8.35,15.75-7.65,5.98.5,10.91,4.51,16.63,5.9,1.98.47,4.15.03,6.13.55,5.82,1.45,10.57,5.44,15.75,8.25,3.92,2.2,8.68,4,13.13,2.37,3.75-1.19,7.52-2.58,11.38-3.39,5.15-1.17,10.5-1.03,15.75-1.13,2.01,0,4.12-.45,6.13-.5,2.32,0,4.72.41,7,.81"/><path class="b" d="M8.04,79.03c4.67,1.13,9.43,2.14,14,3.62,2.01.64,4.12,1.34,6.13,1.96.79.24,1.83.56,2.63.74.79,0,1.84,0,2.63,0,4.65,0,9.35,0,14,0,2,0,4.12.02,6.13-.02,3.6-.45,7.25-1.26,10.5-2.91,10.76-4.99,18.11-19.52,31.51-16.93,4.26.8,8.13,3,12.25,4.26,2.54.84,5.41.41,7.88,1.56,6.19,2.66,10.95,7.73,16.63,11.23,2.61,1.61,5.59,3.11,8.75,2.81,2.06.16,4.15-.5,6.13-1.01,2.3-.6,4.7-1.27,7-1.9,5.21-1.45,10.52-2.72,15.75-4.1,2.32-.57,4.68-1.43,7-1.97,2.26-.48,4.69-.64,7-.6"/><path class="b" d="M8.04,75.29c3.45.71,6.98,1.43,10.5,1.56,4.95.11,9.97-.19,14.88.6,3.81.54,7.59,1.61,11.38,2.27,2.58.42,5.3.4,7.88.87,2.6.03,5.28,0,7.88.01,1.47-.31,3.05-.92,4.38-1.62,5.02-2.69,8.82-7.14,13.13-10.76,5.1-4.13,11.63-7.69,18.38-6.16,3.96.78,7.6,2.74,11.38,4.05,2.23.87,4.8.78,7,1.72,5.91,2.53,10.51,7.29,15.75,10.89,1.05.65,2.22,1.76,3.5,1.88,2.59,0,5.28,0,7.88,0,2.89,0,5.86,0,8.75,0,1.7-.1,3.62.27,5.25-.3,5.15-1.62,10.08-3.99,14.88-6.43,4.15-2.12,8.44-4.34,13.13-4.89"/><path class="b" d="M8.04,72.18c10.2,2.68,11.82.16,21.01-2.11,3.76-.83,7.74-.46,11.38.76,3.19,1.1,6.41,2.34,9.63,3.35,1.7.52,3.44,1.73,5.25,1.68,2,0,4.12,0,6.13,0,1.42-.06,3.12.28,4.38-.55,4.69-2.56,8.14-6.88,12.25-10.2,4.97-3.66,11.17-6.84,17.5-5.57,4.34.79,8.22,3.13,12.25,4.79,1.92.87,4.15,1.09,6.13,1.75,2.78.98,5.41,2.58,7.88,4.16,2.88,1.86,5.77,3.9,8.75,5.6,5.24.04,10.52,0,15.75.02,3.18,0,6.44,0,9.63,0,1.4,0,2.98,0,4.38,0,.84-.13,1.88-.69,2.63-1.07,7.15-3.52,13.14-9.57,21.01-11.54"/><path class="b" d="M8.04,69.28c4.34,1.37,9.05,1.78,13.13-.58,13.27-7.53,15.58-6.29,28.88-.12,1.72.78,3.39,2.12,5.25,2.53,2.89,0,5.86,0,8.75,0,2.6.08,3.16.1,5.25-1.54,2.76-2.06,5.23-4.63,7.88-6.82,4.22-3.2,9.48-5.77,14.88-5.62,5.79.24,10.67,3.78,15.75,6.16,2.18,1.1,4.72,1.39,7,2.19,4.19,1.45,8.17,3.56,12.25,5.27.71.44,1.83.36,2.63.35,1.4,0,2.97,0,4.38,0,4.06,0,8.19,0,12.25,0,3.77,0,7.61,0,11.38,0,1.4,0,2.98,0,4.38,0,.81.03,1.93.02,2.63-.48,6.69-3.2,12.01-9.13,19.26-11.16"/><path class="b" d="M8.04,66.35c2.89,0,5.86,0,8.75,0,1.11,0,2.4,0,3.5,0,.47-.22,1.31-.69,1.75-.94,9.34-5.88,13.98-8.16,24.51-3.06,2.72,1.06,5.31,2.61,7.88,3.97,4.36.06,8.77,0,13.13.02,1.3-.14,2.46-1.3,3.5-2.01,2.04-1.56,4.06-3.38,6.13-4.9,5.24-3.69,12.28-5.33,18.38-2.91,4.92,1.75,9.11,5.18,14,7,1.95.64,4.13.88,6.13,1.37,2.3.46,4.67,1.16,7,1.45,4.36,0,8.77,0,13.13,0,8.45,0,16.93,0,25.38,0,2.3,0,4.7,0,7,0,5.5-2.19,9.86-6.91,15.75-8.22"/><path class="b" d="M8.04,61.6c4.94,0,9.93,0,14.88,0,.47,0,1.29,0,1.75,0,1.52-.62,2.94-1.82,4.38-2.6,5.33-3.32,10.83-4.04,16.63-1.49,1.76.71,3.6,1.59,5.25,2.52,1.09.52,2.26,1.49,3.5,1.57,1.71,0,3.55,0,5.25,0,2.89,0,5.86,0,8.75,0,.93.07,1.87-.7,2.63-1.15,1.11-.71,2.4-1.6,3.5-2.34,3.73-2.79,8.51-4.03,13.13-3.3,4.74.7,9.03,3.14,13.13,5.49.76.43,1.77,1.09,2.63,1.3,2,0,4.12,0,6.13,0,4.65,0,9.35,0,14,0,8.16,0,16.35,0,24.51,0,8.74,0,17.51,0,26.26,0,1.25.09,2.4-1.02,3.5-1.48,1.9-1,4.02-1.91,6.13-2.36"/><path class="b" d="M8.04,56.84c6.7,0,13.43,0,20.13,0,4.42-2.73,9.51-5.5,14.88-4.19,2.13.46,4.24,1.44,6.13,2.51.79.44,1.84,1.04,2.63,1.48.77.27,1.83.21,2.63.21,4.07,0,8.19,0,12.25,0,1.4,0,2.97,0,4.38,0,.88.15,1.87-.42,2.63-.79,4.12-2.2,7.81-2.56,12.25-1.1,1.77.44,3.46,1.6,5.25,1.89,2.6,0,5.28,0,7.88,0,18.38,0,36.76,0,55.14,0,6.11,0,12.27,0,18.38,0,2.3,0,4.7,0,7,0,1.41.01,3.01.07,4.38-.36"/><path class="b" d="M8.04,52.09c7.28,0,14.6,0,21.88,0,4.91-2.66,10.33-4.68,15.75-2.2,1.77.59,3.29,2.39,5.25,2.2,44.34,0,88.69,0,133.03,0"/><path class="b" d="M8.04,46.22c1.12.3,2.41.71,3.5,1.09,3.18.09,6.44.01,9.63.04,2.6,0,5.28,0,7.88,0,2.25-.83,4.62-1.71,7-2.09,2.61-.44,5.4-.23,7.88.73.82.31,1.87.84,2.63,1.28.46.06,1.29.11,1.75.09,13.12,0,26.26,0,39.38,0,32.09,0,64.19,0,96.27,0"/><path class="b" d="M8.04,37.46c3.39.05,6.61,1.33,9.63,2.75,5.11,1.82,10.53-.09,15.75-.1,2.34-.03,4.78.29,7,1.05,1.44.38,2.84,1.56,4.38,1.42,9.62,0,19.26,0,28.88,0,36.76,0,73.52,0,110.28,0"/><path class="b" d="M8.04,28.61c4.9-.98,7.1.66,11.38,2.19,3.69,1.1,7.63,1.35,11.38,2.2,3.68.79,7.28,2.24,10.5,4.19.71.6,1.74.71,2.63.64,1.1,0,2.4,0,3.5,0,18.08,0,36.18,0,54.26,0,17.5,0,35.01,0,52.51,0,5.82,0,11.68,0,17.5,0,2.89,0,5.86,0,8.75,0,1.08-.25,2.41-.55,3.5-.77"/><path class="b" d="M8.04,20.87c3.8-1.52,6.84-1.2,10.5.41,3.21,1.13,6.52,2.21,9.63,3.61,3.03,1.35,6,3.05,8.75,4.9,1.12.75,2.41,1.67,3.5,2.46.69.65,1.7.95,2.63.84,17.79,0,35.6,0,53.39,0,21.29,0,42.6,0,63.89,0,2.59,0,5.28,0,7.88,0,1.2-.09,2.36-1.03,3.5-1.39,1.62-.69,3.54-.64,5.25-.85,2.3-.31,4.69-.83,7-1.03"/><path class="b" d="M8.04,14.58c3.99-1.99,7.2-2.35,11.38-.65,8.15,2.86,14.43,9.07,21.01,14.4,42.01-.08,84.03.15,126.03-.08,2.14-1.57,4.42-3.26,7-4.01,3.47-.48,7-1.21,10.5-1.32"/><path class="b" d="M8.04,9.68c2.69-1.29,5.69-2.69,8.75-2.27,9.09,1.63,15.34,10.32,21.88,16.17,32.67,0,65.35,0,98.02,0,7.87,0,15.76,0,23.63,0,1.7-.1,3.61.25,5.25-.24.41-.32,1.33-.96,1.75-1.28,2.13-1.52,4.41-3.2,7-3.8,3.18-.45,6.39-1.43,9.63-1.38"/></svg>