<?xml version="1.0" encoding="UTF-8"?><svg id="a" xmlns="http://www.w3.org/2000/svg" width="1920" height="2400" viewBox="0 0 192 240"><defs><style>.b{fill:none;stroke:#fff;stroke-miterlimit:10;stroke-width:.4px;}.c{stroke-width:0px;}</style></defs><rect class="c" width="192" height="240"/><path class="b" d="M8.35,227.42c2.24.59,4.64,1.2,6.98,1.05,2.57-.41,5.22-.93,7.85-.88,4.34-.03,8.74.31,13.08.02,4.11-.23,8.23-1.02,12.21-2.04,3.74-.96,7.77-.49,11.34.9,2.4.91,4.76,2.19,6.98,3.49,5.79.17,11.64.01,17.44.06,7.55,0,15.13,0,22.67,0,4.04-.09,8.18.19,12.21-.12,6.68-5.56,11.92-6.3,19.19-1.23.44.29,1.31.88,1.74,1.18,1.07.3,2.39.15,3.49.18,2,0,4.11,0,6.1,0,11.33,0,22.68,0,34.01,0"/><path class="b" d="M8.35,222.01c2.26.46,4.66.94,6.98.79,2.86-.44,5.81-.87,8.72-.76,4.34.06,8.74.42,13.08.29,4.09-.08,8.19-.69,12.21-1.42,3.83-.53,7.76.28,11.34,1.66,1.43.54,2.98,1.24,4.36,1.89.78.34,1.73,1,2.62.83,5.51,0,11.06,0,16.57,0,6.38,0,12.8,0,19.19,0,2,0,4.11,0,6.1,0,1.4-.05,2.99.15,4.36-.17,3.68-2.61,7.04-5.97,11.34-7.56,6.38-2.53,12.2,2.18,17.44,5.22,2.61,1.49,5.77,1.84,8.72,1.59,4.91-.41,9.91-1.74,14.83-.68,1.12.24,2.44.66,3.49,1.12.32.26,1.32.52,1.74.48,4.05,0,8.16,0,12.21,0"/><path class="b" d="M8.35,217.82c2.29.08,4.69.15,6.98-.12,3.45-.6,6.97-1.23,10.47-1.51,5.2-.48,10.48-.66,15.7-.84,3.76-.04,7.61-.55,11.34.08,5.99.99,11.58,3.63,17.44,5.13,2,0,4.11,0,6.1,0,6.97,0,13.97,0,20.93,0,2.29,0,4.69,0,6.98,0,1.4-.05,2.99.15,4.36-.17,8.21-3.23,14.67-12.73,24.42-10.23,5.31,1.26,10.02,5,15.7,4.48,11.15-.88,16.77-1.62,26.16,5.9,2.88.04,5.84,0,8.72.02"/><path class="b" d="M8.35,215.13c3.48-.64,7.04-1.27,10.47-2.16,4.35-1.17,8.66-2.67,13.08-3.57,6.3-1.32,12.94-1.24,19.19.33,7.11,2.09,14.24,5.04,21.8,4.39,2.61-.13,5.27-.66,7.85-1.08,5.36-.48,10.45,1.95,15.7,2.57,5.75.87,11.62-.7,16.57-3.66,3.71-2.19,7.26-4.88,11.34-6.38,5.94-2.38,11.49-.55,17.44.5,3.49.51,7.03-.41,10.47-.9,10.93-1.98,18.29,4.12,26.16,10.64h5.23"/><path class="b" d="M8.35,211.09c2.29-.04,4.69.08,6.98-.06.79-.24,1.83-.52,2.62-.77,11.46-4.47,18.24-11.27,31.4-6.01,8.91,3.9,14.54,6.73,24.42,3.58,3.39-.95,6.87-2.5,10.47-1.92,5.05.73,9.75,3.16,14.83,3.82,10.78,1.75,17.08-6.57,27.04-8.51,4-.88,8.16-.54,12.21-.42,8.49.5,14.8-6.04,23.55-3.19,5.27,1.72,9.59,5.51,13.95,8.8,1.49,1.3,3.02,2.91,4.36,4.37,1.01.52,2.39.27,3.49.32"/><path class="b" d="M8.35,206.35c4.05,0,8.16,0,12.21,0,10.38-6.32,17.27-13.27,29.65-5.99,8.62,5.06,14,6.95,23.55,2.65,4.55-2,8.09-3.37,13.08-1.91,5.45,1.45,10.8,4.04,16.57,3.76,5.68-.09,10.41-3.7,15.7-5.27,3.08-.99,6.37-1.51,9.59-1.62,8.03-.17,11.89.69,19.19-3.81,4.75-2.78,10.33-4.89,15.7-2.52,2.84,1.15,5.42,3.03,7.85,4.87,1.7,1.33,3.66,2.63,5.23,4.11,1.13,1.07,2.43,2.42,3.49,3.56.4.47,1.34,1.42,1.74,1.88.34.19,1.34.34,1.74.27"/><path class="b" d="M8.35,201.62c4.63-.04,9.32.09,13.95-.06,7.36-5.33,14.96-11.65,24.42-7.15,3.59,1.66,6.83,4.12,10.47,5.69,3.24,1.52,6.96,1.88,10.47,1.29,3.32-.66,6.43-2.2,9.59-3.34,2.76-1.07,5.83-1.22,8.72-.66,6.58,1.3,13.3,3.77,20.06,2.12,3.33-.66,6.37-2.39,9.59-3.38,3.63-1.16,7.54-1.55,11.34-1.35,5.51.22,11.52,1.58,16.57-1.32,2.98-1.67,5.73-3.9,8.72-5.56,6.69-3.97,12.42-2.33,18.31,2.16,2.02,1.53,4.23,3.08,6.1,4.78,2.37,2.14,4.53,4.72,6.98,6.78"/><path class="b" d="M8.35,196.88c4.34,0,8.74,0,13.08,0,.93.18,1.88-.52,2.62-.99,1.39-.88,2.93-1.86,4.36-2.68,3.93-2.29,8.45-4.12,13.08-3.64,6.65.65,11.81,5.79,18.31,7.02,1.38.35,2.95.3,4.36.3,1.1.02,2.41,0,3.49-.22,3.24-.57,6.39-1.82,9.59-2.57,2.84-.72,5.88-.46,8.72.13,9.08,2.12,15.31,3.31,24.42.04,4.71-1.78,9.79-2.56,14.83-2.42,5.83.07,12.19.97,17.44-2.16,3.66-2.23,6.8-5.33,10.47-7.55,5.68-3.64,11.13-3,16.57.75,2.36,1.61,4.82,3.34,6.98,5.21,2.35,2.11,4.63,4.49,6.98,6.6"/><path class="b" d="M8.35,192.15c4.05,0,8.16,0,12.21,0,.89.16,1.84-.47,2.62-.81,1.1-.51,2.39-1.13,3.49-1.63,3.07-1.41,6.28-2.74,9.59-3.42,8.94-1.91,12.17,2.18,20.06,3.86,3.42.73,7.01.71,10.47.24,3.76-.48,7.53-1.49,11.34-1.48,2.97.03,5.91.98,8.72,1.84,1.69.49,3.49,1.14,5.23,1.41,3.47,0,7,0,10.47,0,1.69-.08,3.57.19,5.23-.18,3.42-.84,6.94-1.61,10.47-1.9,8.73-.72,18.17-.71,25.29-6.57,3.48-2.73,6.65-6.01,10.47-8.3,5.72-3.6,11.25-2.3,16.57,1.34,2.02,1.37,4.23,2.75,6.1,4.32,2.38,2.03,4.66,4.37,6.98,6.47"/><path class="b" d="M8.35,187.41c2.88-.02,5.84.04,8.72-.03,6.8-1.57,13.28-4.33,20.06-5.95,9.33-2.17,10.28,1.05,18.31,1.62,11.24.5,18.7-3.21,29.65,2.47,1.39.62,2.94,1.32,4.36,1.87,2.88.03,5.84,0,8.72.01,6.67,0,13.38,0,20.06,0,7.91.58,15.62-2.54,21.8-7.33,4.29-3.18,7.86-7.34,12.21-10.45,5.85-4.31,11.43-3.88,17.44-.1,2.3,1.46,4.81,2.85,6.98,4.51,2.43,1.95,4.71,4.29,6.98,6.43"/><path class="b" d="M8.35,182.68c.47,0,1.28,0,1.74-.03.47-.19,1.27-.53,1.74-.69,1.08-.38,2.37-.73,3.49-.94,4.08-.56,8.24-.99,12.21-2.14,3.23-.88,6.43-2.11,9.59-3.19,3.05-1.02,6.34-2,9.59-1.6,1.71.29,3.49.9,5.23.96,2.89.2,5.85-.15,8.72-.42,7.27-.9,14.5-.01,20.93,3.67,2.59,1.4,5.19,3,7.85,4.26,1.98.25,4.11.06,6.1.12,6.67,0,13.38,0,20.06,0,4.05,0,8.16,0,12.21,0,2.9-.77,5.46-2.8,7.85-4.55,5.28-4.07,9.66-9.25,14.83-13.45,6.52-5.28,12.26-4.91,19.19-.56,2.25,1.45,4.79,2.67,6.98,4.21,2.48,1.87,4.75,4.2,6.98,6.36"/><path class="b" d="M8.35,176.56c2.19-.91,4.61-1.48,6.98-1.61,2.89-.08,5.87,0,8.72-.51,5.57-.85,10.59-3.63,15.7-5.83,7.05-3.01,7.5-.72,13.95-.9,8.06-.58,14.14-1.38,21.8,2.17,4.85,2.07,9.19,5.25,13.95,7.47,1.29.76,2.93.57,4.36.58,1.7,0,3.53,0,5.23,0,5.22,0,10.48,0,15.7,0,4.34,0,8.74,0,13.08,0,7.15-1.54,15.83-13.05,21.8-17.67,6.92-5.74,12.77-4.99,20.06-.34,2.22,1.45,4.77,2.58,6.98,4.04,2.48,1.77,4.76,4.02,6.98,6.12"/><path class="b" d="M8.35,171.23c3.68-1.15,7.56-.7,11.34-.6,7.73.09,14.22-4.53,20.93-7.7,5.84-2.7,7.41-.72,13.08-.47,6.19.17,12.51.49,18.31,2.85,6.18,2.26,11.89,5.92,18.31,7.48,3.71.76,7.66.54,11.34-.3,3.98-.93,8.12-2.1,12.21-1.14,4.29.79,8.7,1.96,13.08,1.22,9.5-1.53,15.42-9.96,22.67-15.41,7.01-5.32,12.96-4.14,20.06.27,2.21,1.41,4.74,2.51,6.98,3.87,2.44,1.6,4.73,3.62,6.98,5.48"/><path class="b" d="M8.35,166.41c3.18-.35,6.42.09,9.59.32,5.36.18,10.31-2.38,14.83-5,12.87-7.58,11.76-5.89,25.29-2.23,8.89,2.35,17.1,6.99,26.16,8.7,2.55.4,5.28.35,7.85.15,2.97-.42,5.91-1.41,8.72-2.45,6.17-2.36,9.12-3.25,15.7-1.57,12.44,3.15,18.63,1.48,28.78-6.17,5.47-3.87,11.75-5.93,18.31-3.59,3.31,1.07,6.42,2.82,9.59,4.22,3.78,1.38,7.14,3.74,10.47,5.95"/><path class="b" d="M8.35,161.21c4.33.31,8.77,1.92,13.08.67,8.85-2.16,17.51-12.25,27.04-8.58,7.69,3.15,14.69,8.02,22.68,10.44,4.05,0,8.16,0,12.21,0,2.88-.04,5.85.08,8.72-.06,6.34-2.1,12.27-6.58,19.19-6.28,5.79.59,11.6,1.65,17.44,1.45,3.83-.11,7.71-.78,11.34-2.04,3.13-1.16,6.24-2.69,9.59-3.14,6.48-1.08,13.03.62,19.19,2.55,2.57.85,5.31,1.5,7.85,2.42,2.37.93,4.72,2.18,6.98,3.36"/><path class="b" d="M8.35,155.14c3.4.85,6.91,2.21,10.47,1.84,3.71-.49,7.11-2.35,10.47-3.88,7.12-3.5,13.85-4.96,20.93-.5,2.35,1.37,4.69,2.97,6.98,4.43,1.34.72,2.75,2.12,4.36,1.97,9.29,0,18.61,0,27.91,0,.78,0,1.85.05,2.62-.17,1.4-.62,2.96-1.33,4.36-1.95,3.08-1.35,6.29-2.68,9.59-3.34,2.85-.69,5.83-.18,8.72-.2,4.08-.09,8.17-.79,12.21-1.33,4.04-.57,8.15-1.01,12.21-1.44,2.29-.21,4.67-.72,6.98-.61,5.01.27,9.89,1.83,14.83,2.65,4.88.95,9.93,1.09,14.83,1.94,2.7.59,5.35,1.71,7.85,2.86"/><path class="b" d="M8.35,148.05c2.79,1.1,5.69,2.4,8.72,2.59,3.3.12,6.49-1.14,9.59-2.09,3.07-.98,6.34-1.77,9.59-1.61,5.79.29,11.01,3.37,15.7,6.55.92.89,2.31.8,3.49.77,1.7,0,3.53,0,5.23,0,9.88,0,19.78,0,29.65,0,.84.08,1.85-.43,2.62-.7,1.38-.51,2.95-1.05,4.36-1.47,3.65-1.09,7.52-1.75,11.34-1.72,2.61.11,5.33.36,7.85-.51,6.15-1.93,11.83-5.46,18.31-6.28,3.44-.44,7.08-.44,10.47.36,3.55.97,6.94,2.67,10.47,3.73,2.79.86,5.8,1.32,8.72,1.28,2.89-.02,5.84-.48,8.72-.6,3.63-.2,7.23,1,10.47,2.55"/><path class="b" d="M8.35,140.06c10.76,5.9,12.1,2.22,22.67,2.56,5.48.33,10.35,3.24,14.83,6.19,1.43,1.18,3.52.59,5.23.72,2.88,0,5.84,0,8.72,0,8.71,0,17.45,0,26.16,0,1.7-.04,3.54.09,5.23-.09,2.26-.6,4.66-1.07,6.98-1.33,4.62-.57,9.32-.14,13.95,0,3.2-.22,6.08-2.04,8.72-3.71,3.38-2.19,6.74-4.61,10.47-6.18,4.09-1.78,8.83-2.08,13.08-.72,2.98,1,5.81,2.6,8.72,3.75,3.28,1.35,6.92,2.06,10.47,1.7,8.13-.99,11.83-3.95,20.06.47"/><path class="b" d="M8.35,131.4c2.55,1.28,5.12,2.77,7.85,3.65,3.1.93,6.42,1.08,9.59,1.6,2.98.47,5.98,1.34,8.72,2.63,2.09.97,4.18,2.21,6.1,3.47,1.1.64,2.24,1.71,3.49,2.06,1.7,0,3.53,0,5.23,0,11.04,0,22.1,0,33.14,0,4.05,0,8.16,0,12.21,0,2.29-.09,4.68-.43,6.98-.36,3.47,0,6.99.42,10.47.36,3.55-.17,6.68-2.36,9.59-4.2,3.89-2.56,7.77-5.41,12.21-6.95,7.71-2.8,12.86.69,20.06,2.5,3.41.82,7.05.77,10.47-.02,7.54-1.84,11.62-4.35,19.19-.05"/><path class="b" d="M8.35,122.98c2.65,1.11,5.25,2.53,7.85,3.74,2.57,1.16,5.28,2.25,7.85,3.4,5.48,2.4,10.66,5.5,15.7,8.71.46.27,1.29.82,1.74,1.08,1.38.26,2.96.09,4.36.14,2.88,0,5.84,0,8.72,0,8.42,0,16.87,0,25.29,0,8.42,0,16.87,0,25.29,0,3.76,0,7.58,0,11.34,0,2.13-.2,4.17-1.4,6.1-2.25,6.39-3.08,12.72-7.41,20.06-7.47,2.89.04,5.84.51,8.72.67,3.79.26,7.67-.13,11.34-1.12,7.7-2.05,13.19-5.39,20.93-.81"/><path class="b" d="M8.35,115.94c5.12,1.64,9.61,4.81,13.95,7.89,5.36,3.86,10.68,7.93,16.57,10.97,1.25.82,2.95.44,4.36.52,2.59,0,5.26,0,7.85,0,6.97,0,13.97,0,20.93,0,17.43-.1,34.91.19,52.33-.1,5.46-1.59,10.37-4.67,15.7-6.59,5.09-1.58,10.54-1.87,15.7-3.2,4.39-.99,8.73-2.39,13.08-3.49,5.06-1.38,10.04-1.66,14.83.87"/><path class="b" d="M8.35,110.68c5.97,1.45,10.45,5.99,14.83,10.01,3.24,2.99,6.63,6.01,10.47,8.22,1.07.6,2.33,1.27,3.49,1.67,1.1,0,2.39,0,3.49,0,11.04,0,22.1,0,33.14,0,6.38,0,12.8,0,19.19,0,2.59,0,5.26,0,7.85,0,1.39-.23,2.95-.5,4.36-.5,1.71-.05,3.54.27,5.23.5,6.38,0,12.8,0,19.19,0,.82.01,1.92.1,2.62-.42,1.43-.75,2.99-1.68,4.36-2.54,2.99-1.96,6.23-3.63,9.59-4.84,7.54-3.06,15.44-5.42,23.55-6.3,4.63-.55,9.49-1,13.95.69"/><path class="b" d="M8.35,106.92c8.27,2.15,12.91,10.08,19.19,15.23,1.05.89,2.33,1.88,3.49,2.62.77.44,1.68,1.17,2.62,1.08,4.05,0,8.16,0,12.21,0,9.29,0,18.61,0,27.91,0,8.13,0,16.29,0,24.42,0,.82-.05,1.84-.48,2.62-.69,1.37-.37,2.94-.59,4.36-.59,2.35,0,4.76.54,6.98,1.28,6.09,0,12.22,0,18.31,0,.78,0,1.87.06,2.62-.21,1.45-.98,3-2.19,4.36-3.28,2.42-2,5.05-3.91,7.85-5.35,8.07-4.64,15.17-6.01,24.42-5.53,4.64.22,9.35-.69,13.95.16"/><path class="b" d="M8.35,103.71c8.5,2.85,13.16,11.21,20.06,16.38.47.33,1.2.87,1.74,1.03.46,0,1.29,0,1.74,0,1.1,0,2.39,0,3.49,0,3.47,0,7,0,10.47,0,10.17,0,20.36,0,30.52,0,6.38,0,12.8,0,19.19,0,1.16,0,2.37-.75,3.49-1.01,1.66-.47,3.51-.73,5.23-.69,1.72.04,3.57.36,5.23.81,1.1.25,2.35.86,3.49.89,5.51,0,11.06,0,16.57,0,1.67-.41,3.03-1.96,4.36-2.98,2.04-1.78,4.07-3.8,6.1-5.58,3.29-2.84,7.25-5.02,11.34-6.48,6.48-2.42,13.41-.96,20.06-.26,4.06.33,8.15-.67,12.21-.46"/><path class="b" d="M8.35,101.45c6.73,2.43,11.26,8.26,16.57,12.74,1.06.74,2.12,2.12,3.49,2.2,2,0,4.11,0,6.1,0,17.15,0,34.31,0,51.45,0,2.88-.05,5.85.1,8.72-.07,3.05-1.05,6.39-1.46,9.59-1.08,2.03.18,4.1.84,6.1,1.15,2.59,0,5.26,0,7.85,0,2.58-.09,5.29.19,7.85-.14,1.16-.63,2.46-1.52,3.49-2.34,4.37-3.43,7.84-7.97,12.21-11.39,4.94-3.71,11.37-5.2,17.44-4.06,4.95.74,9.77,2.75,14.83,2.62,3.19-.19,6.4-.96,9.59-1.12"/><path class="b" d="M8.35,99.82c4.7,1.46,8.51,4.72,12.21,7.82,1.08.86,2.36,1.87,3.49,2.67,1.08.82,2.07,1.53,3.49,1.34,9,0,18.03,0,27.04,0,11.91,0,23.84,0,35.76,0,1.09,0,2.4,0,3.49,0,1.09-.21,2.39-.42,3.49-.51,2.3-.19,4.71-.01,6.98.36,1.97.33,4.11.08,6.1.15,3.76,0,7.58,0,11.34,0,1.24-.04,2.45-.97,3.49-1.56,2.16-1.39,4.24-3.16,6.1-4.91,10.66-10.51,14.67-15.93,30.52-10.42,10.87,3.67,11.11,2.65,21.8.83"/><path class="b" d="M8.35,98.21c3.88.81,7.34,2.9,10.47,5.27,1.94,1.18,3.89,2.86,6.1,3.43,1.7,0,3.53,0,5.23,0,4.93,0,9.9,0,14.83,0,19.76.02,39.54-.04,59.3,0,5.22,0,10.48.02,15.7-.01,6.67-2.83,11.85-8.15,17.44-12.6,2.82-2.23,5.95-4.49,9.59-5.03,8.71-1.19,16.63,4.53,25.29,4.29,3.85-.08,7.55-1.57,11.34-2.07"/><path class="b" d="M8.35,96.46c2.38.28,4.83.91,6.98,2.01,1.99,1.11,4.01,2.44,6.1,3.35,1.02.58,2.37.3,3.49.36,1.4,0,2.96,0,4.36,0,4.63,0,9.32,0,13.95,0,19.47,0,38.96-.01,58.43,0,5.22,0,10.48,0,15.7,0,5.01-1.35,9.5-4.3,13.95-6.88,4.5-2.6,8.92-5.72,13.95-7.19,3.71-.89,7.62-.33,11.34.26,5.45.93,11.06,1.72,16.57.89,3.52-.46,6.94-1.76,10.47-2.17"/><path class="b" d="M8.35,94.86c2.03.09,4.18.39,6.1,1.06,1.45.39,2.81,1.68,4.36,1.52,9.59,0,19.19,0,28.78,0,10.75,0,21.52,0,32.27,0,3.17,0,6.42,0,9.59,0,2.28-.39,4.65-.89,6.98-.81,2.6.01,5.28.4,7.85.76,1.99.11,4.11.03,6.1.05,3.88.3,7.66-.87,11.34-1.99,5.25-1.65,10.49-3.49,15.7-5.27,3.45-1.12,6.83-2.79,10.47-3.19,5.49-.63,11.1-.29,16.57-1.14,3.79-.54,7.59-1.4,11.34-2.15,2.57-.6,5.21-1.38,7.85-1.62"/><path class="b" d="M8.35,92.71c23.83,0,47.68,0,71.51,0,1.4-.04,2.98.11,4.36-.12,1.06-.54,2.36-1.11,3.49-1.51,5.03-1.88,10.54-1.4,15.7-.31,2.27.43,4.66.91,6.98.96,2.3,0,4.69-.24,6.98-.44,4.94-.5,9.92-1.1,14.83-1.89,2.61-.43,5.31-.98,7.85-1.72,2.02-.58,4.07-1.46,6.1-1.98,4.02-1.06,8.19-1.74,12.21-2.82,4.4-1.13,8.71-2.76,13.08-4,4.02-.89,8.1-2.02,12.21-2.38"/><path class="b" d="M8.35,87.97h69.77c8.77-5.83,16.05-7.16,26.16-4.17,3.12.9,6.37,1.48,9.59,1.81,2.6.38,5.27.92,7.85,1.39,3.72.77,7.54,1.11,11.34.97,3.91.21,7.78-.91,11.34-2.45,5.97-2.3,11.81-5.03,17.44-8.08,3.1-1.62,6.27-3.32,9.59-4.43,3.92-1.12,8.13-1.71,12.21-1.48"/><path class="b" d="M8.35,83.24h65.41c1.48-.97,2.83-2.44,4.36-3.34,2.14-1.25,4.64-2.04,6.98-2.86,6.27-2.22,13-1.73,19.19.52,3.14,1.14,6.43,2.1,9.59,3.18,2.05.69,4.01,1.99,6.1,2.5,4.63,0,9.32,0,13.95,0,4.05-.03,8.16.07,12.21-.04,5.15-2.66,9.97-5.99,14.83-9.13,7.22-4.77,13.84-8.07,22.68-5.56"/><path class="b" d="M8.35,78.5c18.31,0,36.63,0,54.94,0,1.7,0,3.53,0,5.23,0,.8,0,1.87.08,2.62-.27,1.33-1.24,2.86-2.56,4.36-3.59,2.02-1.51,4.55-2.1,6.98-2.54,3.13-.7,6.37-1.37,9.59-1.45,5.81-.23,11.41,1.86,16.57,4.33,1.71.81,3.6,1.61,5.23,2.58.4.27,1.3.74,1.74.94.77,0,1.84,0,2.62,0,6.09,0,12.22,0,18.31,0,3.76,0,7.58,0,11.34,0,6.21-3.22,11.85-7.67,18.31-10.46,5.89-2.68,11.47-3.48,17.44-.44"/><path class="b" d="M8.35,73.77c16.86,0,33.73,0,50.58,0,2.88,0,5.84,0,8.72,0,1.49-.81,2.91-2.08,4.36-2.95,3.69-2.39,6.16-2.88,10.47-2.87,3.17-.21,6.41-.6,9.59-.51,4.21.08,8.4,1.16,12.21,2.93,1.43.66,2.99,1.48,4.36,2.26.76.41,1.71,1.16,2.62,1.14,8.13,0,16.29,0,24.42,0,3.76-.05,7.59.1,11.34-.06,2.25-1.18,4.64-2.36,6.98-3.38,5.26-2.31,10.87-3.96,16.57-4.7,5.34-.87,8.36-.41,13.08,2.45"/><path class="b" d="M8.35,69.03c14.82,0,29.66,0,44.48,0,2.59,0,5.26,0,7.85,0,.78,0,1.84,0,2.62,0,1.16-.32,2.39-1.07,3.49-1.55,3.54-1.66,7.37-3.18,11.34-3.12,1.7.07,3.52.42,5.23.45,4.35.14,8.81-.01,13.08.96,2.06.45,4.18,1.17,6.1,2.02.78.35,1.84.87,2.62,1.24.43,0,1.31,0,1.74,0,9.58,0,19.19,0,28.78,0,2.29,0,4.69,0,6.98,0,1.51-.19,2.92-1.32,4.36-1.79,2.49-1.01,5.19-1.74,7.85-2.11,4.9-.71,9.91-.25,14.83-.05,6.52.1,7.8-.7,13.95,3.01"/><path class="b" d="M8.35,64.3c7.84,0,15.71,0,23.55,0,.54.08,1.3-.15,1.74-.42.78-.34,1.81-.76,2.62-1.02,2.5-.83,5.22-1.21,7.85-1.13,3.48.15,6.97.95,10.47.77,5.53-.11,11.04-1.13,16.57-1.39,3.19-.17,6.46.03,9.59.66,2.28.34,4.68.39,6.98.48,2.6.09,5.3.29,7.85.81,1.72.22,3.57,1.22,5.23,1.24,10.17,0,20.36,0,30.52,0,3.17,0,6.42,0,9.59,0,1.93-1.01,3.97-2.14,6.1-2.67,3.09-.85,6.42-.92,9.59-.55,5.25.59,10.39,2.31,15.7,2.47,1.7.03,3.55-.24,5.23.12.77.15,1.85.45,2.62.63,1.08,0,2.4,0,3.49,0"/><path class="b" d="M8.35,59.56c5.22,0,10.48,0,15.7,0,.84.01,1.9.1,2.62-.42,1.09-.87,2.37-1.9,3.49-2.73,5.19-4.07,11.61-7.03,18.31-5.57,4.46.84,8.77,2.5,13.08,3.88,4.54,1.5,9.23,2.73,13.95,3.5,2.57.4,5.24.91,7.85.87,4.05-.05,8.18-.53,12.21.09,1.97.46,4.09.41,6.1.39,2.88,0,5.84,0,8.72,0,8.42,0,16.87,0,25.29,0,1.7-.02,3.54.05,5.23-.05,2.85-1.71,6.3-2.34,9.59-2.16,3.84.2,7.62,1.28,11.34,2.2,7.26.02,14.55,0,21.8,0"/><path class="b" d="M8.35,54.83c4.05,0,8.16,0,12.21,0,4.4-2.57,7.94-6.55,12.21-9.35,4.49-3.23,10.2-5.15,15.7-3.74,5.14,1.33,9.4,4.82,13.95,7.4,6.96,4.34,15.41,6.51,23.55,4.83,4.89-.88,10.05-1.26,14.83.39,1.33.61,2.94.48,4.36.48,2,0,4.11,0,6.1,0,9.29,0,18.61,0,27.91,0,.77,0,1.85,0,2.62-.02,1.63-.57,3.51-.8,5.23-.74,1.72.06,3.56.36,5.23.74,2.88.06,5.84,0,8.72.03,7.55,0,15.13,0,22.68,0"/><path class="b" d="M8.35,50.09c1.7-.08,3.57.19,5.23-.18.77-.45,1.79-1,2.62-1.33,4.27-1.37,7.76-4.43,11.34-7.01,6.52-4.99,13.55-8.41,21.8-5.56,4.16,1.63,7.62,4.69,11.34,7.1,7.2,5.03,14.15,6.16,22.68,4.24,7.26-1.99,12.93-3,20.06.29,1.11.48,2.41,1.12,3.49,1.66.73.39,1.75.94,2.62.79,4.34,0,8.74,0,13.08,0,20.35,0,40.7,0,61.05,0"/><path class="b" d="M8.35,45.36c.94.17,1.9-.5,2.62-1.02,1.08-.73,2.35-1.57,3.49-2.19,1.05-.59,2.37-1.04,3.49-1.46,1.46-.61,3-1.46,4.36-2.27,8.83-5.58,15.44-9.74,26.16-6.2,4.1,1.39,7.54,4.28,11.34,6.28,6.17,3.53,11.65,3.41,18.31,1.59,4.7-.83,9.16-2.96,13.95-3.28,6.01-.51,11.41,2.67,16.57,5.3,2.48,1.21,5.22,2.09,7.85,2.9,1.34.5,2.96.33,4.36.35,1.7,0,3.54,0,5.23,0,4.92-.05,9.9.1,14.83-.07,14.23.16,28.5.03,42.73.07"/><path class="b" d="M8.35,40.62c.94-.04,1.86-.84,2.62-1.31,1.37-.88,2.89-1.85,4.36-2.55,4.31-1.5,8.21-3.97,12.21-6.11,7.71-4.25,14.65-4.12,22.68-.83,3.2,1.42,6.27,3.32,9.59,4.45,5.65,2.13,11.24.51,16.57-1.68,1.95-.78,4.11-1.26,6.1-1.87,2.82-.87,5.76-1.75,8.72-1.87,8.48-.54,14.81,6.29,22.67,8.14,6.19,1.92,12.77,2.27,19.19,1.55,3.74-.29,7.65-.84,11.34.1,1.14.33,2.44.9,3.49,1.45.65.54,1.81.58,2.62.54,11.04,0,22.1,0,33.14,0"/><path class="b" d="M8.35,35.88c.79,0,1.83,0,2.62,0,1.44-.57,2.92-1.47,4.36-2.03,10.05-3.14,17.3-12.04,28.78-10.08,6.03.85,11.32,4.64,17.44,5.03,5.26.43,10.12-2.03,14.83-4.02,1.92-.83,4.08-1.29,6.1-1.76,3.39-.83,6.98-1.41,10.47-.9,5.69.74,10.54,4.1,15.7,6.33,1.91.82,4.09,1.21,6.1,1.69,3.13.72,6.38,1.32,9.59,1.56,6.37.63,12.85-.74,19.19.31,2.86.63,5.37,2.41,7.85,3.88,1.09,0,2.4,0,3.49,0,9.58,0,19.19,0,28.78,0"/><path class="b" d="M8.35,31.15c2.59-.13,5.35.37,7.85-.45,9.8-2.41,17.28-11.72,27.91-11.35,2.68.05,5.3.99,7.85,1.73,2.81.82,5.78,1.45,8.72,1.4,5.56-.01,10.6-2.66,15.7-4.54,5.57-1.77,11.72-2.14,17.44-.92,5.7,1.17,10.86,4.25,16.57,5.36,5.61.58,11.03,2.39,16.57,3.34,5.45,1.05,11.07,1.02,16.57,1.65,2.12.36,4.21,1.29,6.1,2.27.78.41,1.85,1,2.62,1.45.41.05,1.33.09,1.74.07,9.88,0,19.78,0,29.65,0"/><path class="b" d="M8.35,26.41c2,0,4.11,0,6.1,0,1.41,0,2.99.1,4.36-.33,9.15-2.5,16.4-10.47,26.16-10.95,2.05-.08,4.12.56,6.1.97,2.55.53,5.24.89,7.85.85,5.41-.02,10.58-1.92,15.7-3.44,9.85-3.01,19.96.65,29.65,2.57,1.68.31,3.52.56,5.23.63,2.31-.01,4.73-.03,6.98.58,7.02,1.82,13.66,5.18,20.93,6.01,2.86.46,5.88.23,8.72.83,1.42.31,2.99.8,4.36,1.3,1.08.33,2.32,1.12,3.49.99,9.88,0,19.78,0,29.65,0"/><path class="b" d="M8.35,21.2c3.16-.34,6.42-.28,9.59-.53,6.55-.67,12.39-4.04,18.31-6.63,3.54-1.53,7.42-2.95,11.34-2.48,9.54,2.03,16.83.67,26.16-1.06,8.53-1.77,16.86,1.61,25.29,2.41,3.16.32,6.43.31,9.59-.04,1.4-.13,2.95-.48,4.36-.53,2.05-.03,4.18.47,6.1,1.13,6.64,2.36,12.9,6.25,20.06,6.83,2.29.25,4.69-.1,6.98.08,2.63.13,5.27.87,7.85,1.31,4.05,0,8.16,0,12.21,0,4.34,0,8.74,0,13.08,0,1.37-.37,2.94-.77,4.36-.92"/></svg>