<?xml version="1.0" encoding="UTF-8"?><svg id="a" xmlns="http://www.w3.org/2000/svg" width="1920" height="2400" viewBox="0 0 192 240"><defs><style>.b{fill:none;stroke:#fff;stroke-miterlimit:10;stroke-width:.4px;}.c{stroke-width:0px;}</style></defs><rect class="c" width="192" height="240"/><path class="b" d="M8.19,223.07c5.59,3.67,6.71,3.58,13.11,3.47,5.23,0,10.5,0,15.73,0,7.56,0,15.16,0,22.72,0,8.44,0,16.9,0,25.34,0,3.13-1.24,6.22-2.92,9.61-3.35,2.94-.44,6.01.11,8.74,1.25.79.33,1.86.82,2.62,1.22.75.39,1.73,1.06,2.62.89,8.15,0,16.32,0,24.47,0,2.59,0,5.27,0,7.86,0,.48.07,1.36-.22,1.75-.52.76-.37,1.85-.86,2.62-1.2,2.78-1.23,5.74-2.28,8.74-2.83,5.19-1.04,10.53-.24,15.73.31,1.99.24,4.12.12,6.12.1,2.72.17,5.37,1.23,7.86,2.24"/><path class="b" d="M8.19,220.99c1.01.79,2.27.89,3.49.8,1.41,0,2.96,0,4.37,0,4.64,0,9.34,0,13.98,0,13.39,0,26.8,0,40.19,0,4.06,0,8.17,0,12.23,0,1.4,0,2.97,0,4.37,0,1.13.02,2.51.08,3.49-.58,5.26-2.71,10.99-3.53,16.6-1.36,1.43.5,2.99,1.17,4.37,1.78,1.07.26,2.4.13,3.5.16,10.48,0,20.98,0,31.46,0,.77,0,1.85,0,2.62,0,1.08-.49,2.39-1.05,3.49-1.48,2.23-.88,4.63-1.62,6.99-2.07,4.01-.79,8.17-.65,12.23-.48,1.7.1,3.56-.07,5.24.23,2.41.45,4.77,1.49,6.99,2.51"/><path class="b" d="M8.19,217.05c25.63,0,51.26,0,76.89,0,2.59,0,5.27,0,7.86,0,4.62-2.23,9.62-4.26,14.85-3.86,2.38.15,4.86.66,6.99,1.76,1.45.57,2.81,1.93,4.37,2.1,6.98,0,13.99,0,20.97,0,4.93,0,9.92,0,14.85,0,2.83-.96,5.74-2.02,8.74-2.31,4.35-.45,8.83.05,13.11.89,1.42.35,2.99.88,4.37,1.39.76.04,1.86.03,2.62.03"/><path class="b" d="M8.19,212.31c20.09,0,40.2,0,60.29,0,9.02,0,18.07,0,27.09,0,1.6.2,3.01-1.03,4.37-1.69,1.95-1.06,4.04-2.13,6.12-2.92,4.05-1.67,8.25-1.67,12.23.2,1.76.75,3.58,1.73,5.24,2.67,1.09.55,2.28,1.5,3.5,1.73,6.4,0,12.83,0,19.22,0,4.06,0,8.18,0,12.23,0,2-.17,4.09-.72,6.12-.62,1.72,0,3.56.3,5.24.62,4.64,0,9.34,0,13.98,0"/><path class="b" d="M8.19,207.56c20.68,0,41.36,0,62.04,0,9.6,0,19.23,0,28.83,0,1.7.2,3.03-1.42,4.37-2.22,2.2-1.56,4.52-3.2,6.99-4.3,4.74-2.12,10.23-1.37,14.85.71,3.92,1.62,7.48,4.12,11.36,5.81,4.35,0,8.76,0,13.11,0,11.35-.01,22.72,0,34.08,0"/><path class="b" d="M8.19,202.82h94.37c3.01-2.02,5.55-4.9,8.74-6.7,9.02-5.37,15.54-4.69,24.47.34,3.54,1.9,7.24,4.01,11.36,4.1,3.18.16,6.45-.08,9.61.39,1.43.2,3,.58,4.37,1.04.77.26,1.79.76,2.62.83,6.69,0,13.41,0,20.1,0"/><path class="b" d="M8.19,197.61c1.64.66,3.52.44,5.24.47,2.3,0,4.69,0,6.99,0,7.27,0,14.57,0,21.84,0,20.38,0,40.78,0,61.16,0,3.39-2.88,6.61-6.1,10.49-8.36,3.22-2.12,6.66-4.22,10.49-5,5.88-1.3,11.51,1.59,16.6,4.2,4.03,2.25,8.73,2.69,13.11,3.91,3.77,1.05,7.33,2.93,10.48,5.22,6.39.08,12.83,0,19.22.03"/><path class="b" d="M8.19,191.96c1.12.36,2.42.87,3.49,1.35,3.18.05,6.43,0,9.61.02,6.98,0,13.99,0,20.97,0,19.8,0,39.61,0,59.42,0,2.43-1.79,4.59-4.14,6.99-5.98,1.89-1.54,4.15-2.77,6.12-4.2,4.68-3.28,9.74-7.08,15.73-6.99,4.81.06,9.12,2.64,13.11,5.08,2.22,1.3,4.67,2.43,6.99,3.54,3.29,1.56,6.58,3.33,9.61,5.35,1.43.95,3,2.06,4.37,3.09.77.14,1.84.11,2.62.11,5.52,0,11.08,0,16.6,0"/><path class="b" d="M8.19,186.72c1.44.52,2.89,1.48,4.37,1.86,2.89,0,5.85,0,8.74,0,6.69,0,13.41,0,20.1,0,18.93,0,37.87,0,56.79,0,3.71-3.05,7.23-6.5,11.36-9,4.65-2.23,8.72-5.51,13.11-8.18,7.83-4.78,14.32-3.05,20.97,2.69,3.16,2.57,6.4,5.2,9.61,7.7,1.97,1.53,4.09,3.13,6.12,4.59,1.07.71,2.26,1.78,3.49,2.2,6.98,0,13.99,0,20.97,0"/><path class="b" d="M8.19,181.79c1.44.59,2.81,1.87,4.37,2.05,3.18,0,6.43,0,9.61,0,6.69,0,13.41,0,20.1,0,11.35,0,22.72,0,34.08,0,3.77,0,7.59,0,11.36,0,1.4,0,2.97,0,4.37,0,.84.01,1.93.11,2.62-.46,3.9-3.92,8.11-7.77,13.11-10.23,2.22-1.14,4.82-1.64,6.99-2.9,4.85-2.63,9.28-6.53,14.85-7.5,6.43-1.15,11.78,3.62,15.73,8.1,2.88,3.16,5.72,6.52,8.74,9.54.74.76,1.83,1.77,2.62,2.48,0,0,.87.76.87.76,0,0,.87.22.87.22,2.59,0,5.27,0,7.86,0,5.81,0,11.66,0,17.48,0"/><path class="b" d="M8.19,176.84c1.11.65,2.4,1.46,3.49,2.15,2.87.27,5.86.04,8.74.11,6.1,0,12.25,0,18.35,0,11.35,0,22.72,0,34.08,0,3.76,0,7.59,0,11.36,0,2.29-.08,4.72.18,6.99-.14,4.23-5.13,9.16-10.34,15.73-12.27,2.55-.82,5.4-.83,7.86-1.93,5.92-2.48,11.53-7.51,18.35-6.44,9.84,2,14.53,14.09,20.97,20.78h29.71"/><path class="b" d="M8.19,171.31c1.42.87,2.97,1.9,4.37,2.8,1.06.4,2.39.2,3.49.24,1.4,0,2.97,0,4.37,0,5.81,0,11.66,0,17.48,0,16.89,0,33.79,0,50.68,0,1.66-1.24,2.88-3.31,4.37-4.75,3.26-3.53,7.37-6.67,12.23-7.43,2.86-.57,5.92-.12,8.74-.89,6.19-1.84,11.57-6.94,18.35-6.48,6.32.56,10.64,6.05,13.98,10.91,2.06,2.76,3.69,6.19,6.12,8.63h31.46"/><path class="b" d="M8.19,164.59c2.89,1.65,5.7,3.61,8.74,4.98,6.1.1,12.25,0,18.35.04,12.81,0,25.64,0,38.45,0,4.35,0,8.76,0,13.11,0,.56-.17,1.39-.9,1.75-1.35,1.05-1.07,2.35-2.3,3.5-3.26,5.08-4.38,10.07-5.32,16.6-4.71,5.91.77,10.79-3.18,15.73-5.76,8.84-4.96,15.24-2.19,20.97,5.6,1.46,1.95,2.99,4.2,4.37,6.21.69,1.01,1.61,2.54,2.62,3.27h31.46"/><path class="b" d="M8.19,157.64c3.44,1.63,6.86,3.51,10.48,4.72,2.58.85,5.2,1.97,7.86,2.51,4.94,0,9.92,0,14.85,0,12.81,0,25.64,0,38.45,0,1.4-.08,3.02.21,4.37-.24.43-.36,1.31-1.05,1.75-1.4,2.6-2.01,5.53-3.88,8.74-4.72,7.41-2.12,13.8,2.98,20.97-.16,4.79-1.88,9.07-5.01,13.98-6.6,11.01-3.76,16.67,5.6,22.72,12.93,1.37.36,2.97.13,4.37.19,2.3,0,4.69,0,6.99,0,6.69,0,13.41,0,20.1,0"/><path class="b" d="M8.19,151.81c4.3,1.52,8.73,2.83,13.11,4.13,4.36,1.34,8.71,2.96,13.11,4.19,15.14,0,30.3,0,45.44,0,6.01-4,11.77-7.22,19.22-5.38,2.92.62,5.8,1.76,8.74,2.28,4.17.72,8.34-.94,12.23-2.25,7.66-2.74,16.6-7.64,24.47-2.99,3.61,2.23,6.45,5.57,9.61,8.34h29.71"/><path class="b" d="M8.19,147.64c5.54,1.07,11.23,1.71,16.6,3.53,4.89,1.53,9.8,3.24,14.85,4.17,2.3.07,4.69.01,6.99.03,10.48,0,20.98,0,31.46,0,3.89-1.99,7.84-4.26,12.23-4.9,3.49-.57,7.1-.02,10.49.86,3.12.77,6.35,1.86,9.61,1.58,5.8-1.05,11.74-1.55,17.48-2.93,5.44-1.12,10.98-3.42,16.6-2.5,4.69,1.2,8.44,4.63,12.23,7.45.96.69,2.39.37,3.49.44,2,0,4.12,0,6.12,0,5.81,0,11.66,0,17.48,0"/><path class="b" d="M8.19,144.9c4.35.31,8.82.17,13.11,1.1,7.49,1.62,14.95,4.28,22.72,3.91,1.72-.04,3.54-.32,5.24-.51,1.71-.12,3.56.08,5.24.4,1.11.21,2.4.53,3.5.81,2.88.07,5.85.01,8.74.03,3.18,0,6.43,0,9.61,0,1.4-.02,2.97.05,4.37-.06,1.09-.47,2.39-1.04,3.5-1.49,8.68-3.71,13.8-2.76,22.72-2.14,2.34.17,4.69-.55,6.99-.78,2.89-.2,5.85.19,8.74.32,4.72.3,9.5-.46,13.98-1.94,3.66-1.07,7.49-2.95,11.36-1.86,4.58,1.22,8.42,4.3,12.23,6.98.32.33,1.3.84,1.75.97.41,0,1.33,0,1.75,0,1.7,0,3.54,0,5.24,0,4.93,0,9.92,0,14.85,0"/><path class="b" d="M8.19,142.53c3.47-.04,7.02-.32,10.48-.08,4.38.34,8.74,1.24,13.11,1.64,3.76.37,7.62.36,11.36-.16,2.33-.25,4.67-1.01,6.99-1.26,2.98-.18,5.97.73,8.74,1.75,1.41.44,2.88,1.36,4.37,1.46,6.1,0,12.25,0,18.35,0,.78,0,1.84,0,2.62,0,.84-.14,1.85-.67,2.62-1,2.24-.99,4.63-1.95,6.99-2.63,4.8-1.48,9.9-1.52,14.85-2.04,1.42-.14,2.95-.59,4.37-.73,4.13-.26,8.16,1.26,12.23,1.65,3.82.46,7.76-.12,11.36-1.44,3.2-.99,6.22-3,9.61-3.21,4.96-.11,9.25,3.06,13.11,5.82,1.09.8,2.4,1.77,3.49,2.57.64.55,1.74,1.18,2.62,1.01,6.1,0,12.25,0,18.35,0"/><path class="b" d="M8.19,139.24c2.88-.27,5.84-.63,8.74-.68,4.06-.06,8.17.18,12.23.14,6.18,0,12.38-.8,18.35-2.4,3.18-1.07,6.63-.32,9.61,1,2.38,1.03,4.72,2.37,6.99,3.61,1.65.46,3.55.13,5.24.23,2.89,0,5.85,0,8.74,0,3.18,0,6.43,0,9.61,0,4.58-2.12,9.05-4.7,13.98-5.99,2.55-.74,5.26-1.26,7.86-1.78,1.97-.46,4.09-.85,6.12-.62,10.27,1.49,14.07,3.18,24.47-.98,1.94-.72,3.99-1.71,6.12-1.66,5.14.17,9.31,3.83,13.11,6.92,1.09.92,2.4,2.03,3.49,2.95.31.37,1.3.98,1.75,1.17.4,0,1.34,0,1.75,0,5.81,0,11.66,0,17.48,0"/><path class="b" d="M8.19,134.98c10.34-2.15,21-2.05,31.46-3.34,2.01-.24,4.13-.55,6.12-.96,1.7-.33,3.49-.95,5.24-.87,3.47.14,6.7,1.85,9.61,3.61,1.11.68,2.41,1.52,3.5,2.24.42.33,1.2.74,1.75.73,5.52,0,11.08,0,16.6,0,2,0,4.12,0,6.12,0,1.1-.04,2.43.14,3.5-.21,7.02-4.4,14.22-9.71,22.72-10.45,3.77-.19,7.59.41,11.36.46,5.34.19,10.63-.98,15.73-2.43,8.78-3.02,16.14,7.29,21.84,12.53,6.67.25,13.41.01,20.1.09"/><path class="b" d="M8.19,130.01c7.48-1.6,15.08-3.04,22.72-3.54,4.35-.25,8.76.07,13.11-.16,2.33-.04,4.67-.83,6.99-.85,3.72.02,7.28,1.6,10.49,3.37,1.11.62,2.41,1.4,3.5,2.06.69.53,1.74.88,2.62.77,5.23,0,10.5,0,15.73,0,3.47,0,7.01,0,10.49,0,2.48-1.05,4.72-3.27,6.99-4.77,9.46-7.35,14.69-7.48,26.21-8.35,5.83-.31,11.66-1.26,17.48-1.63,7.98.68,13.99,9.23,19.22,14.58,2.26.39,4.7.08,6.99.17,4.35,0,8.76,0,13.11,0"/><path class="b" d="M8.19,124.78c7.33-.74,14.44-3.38,21.84-3.32,4.71.01,9.32,1.35,13.98,1.8,2.62.32,5.26-.44,7.86-.54,5.79-.29,11.38,1.71,16.6,4,2.54.44,5.28.08,7.86.19,4.64,0,9.34,0,13.98,0,6.53.04,5.09.46,10.49-3.34,2.83-2.03,5.65-4.28,8.74-5.91,1.63-.83,3.53-1.42,5.24-2.05,8.43-3.19,17.22-4.49,26.21-3.94,6.58-.33,12.06,3.48,16.6,7.86,1.76,1.66,3.58,3.55,5.24,5.3.4.45,1.33,1.37,1.75,1.83.36.18,1.33.32,1.75.26,5.81,0,11.66,0,17.48,0"/><path class="b" d="M8.19,119.9c13.09.62,15.44-5.33,30.58.11,3.63,1.26,7.52,2.41,11.36,1.42,6.02-1.18,12.22-2.25,18.35-1.25,2.02.29,4.13.74,6.12,1.2,1.69.39,3.49.93,5.24.79,4.35,0,8.76,0,13.11,0,1.4-.04,2.98.1,4.37-.11,1.78-.77,3.6-1.8,5.24-2.83,2.29-1.43,4.61-3.05,6.99-4.34,2.26-1.14,4.73-2.09,6.99-3.22,6.47-3.26,13.65-5.57,20.97-4.68,14.23.99,19.55,5.95,29.71,15.09,5.51.22,11.08.02,16.6.08"/><path class="b" d="M8.19,116.14c7.09,2.23,11.49-.61,18.35-.59,3.28-.02,6.52.86,9.61,1.87,2.3,0,4.69,0,6.99,0,4.94,0,9.92,0,14.85,0,3.46-.87,6.88-2.3,10.49-2.62,6.18-.76,12.42.44,18.35,2.15,1.66.52,3.52.51,5.24.48,1.7-.03,3.55.09,5.24-.08,5.94-1.44,10.97-5.26,16.6-7.52,6.79-3.52,13.95-7.35,21.84-6.74,2.61.12,5.29.58,7.86.99,3.22.48,6.52,1.02,9.61,2.07,6.5,2.12,11.99,6.41,17.48,10.34,1.38,1.35,3.5.86,5.24.94,2.59,0,5.27,0,7.86,0"/><path class="b" d="M8.19,112.68c18.05,0,36.12,0,54.17,0,1.1,0,2.4,0,3.49,0,.81-.24,1.84-.7,2.62-1.01,2.51-.97,5.2-1.75,7.86-2.1,6.44-1,12.78,1.52,19.22,1.15,4.2-.14,8.31-1.37,12.23-2.78,2.59-.93,5.34-1.74,7.86-2.85,5.58-2.42,11.3-5.05,17.48-5.33,4.11-.29,8.2.63,12.23,1.26,3.77.46,7.66.68,11.36,1.61,3.66.89,7.2,2.45,10.48,4.28,3.22,1.79,6.38,3.87,9.61,5.64,2.27.29,4.7.06,6.99.13"/><path class="b" d="M8.19,107.94c20.68,0,41.36,0,62.04,0,1.6.22,2.99-.95,4.37-1.58,1.64-.81,3.47-1.57,5.24-2.03,8.83-2.29,18.05-1.96,27.09-2.5,8.47-.1,16.17-4.13,24.47-5.23,2.87-.37,5.88-.35,8.74.15,2.31.41,4.64,1.22,6.99,1.4,5.54.47,11.25.28,16.6,2.04,4,1.22,7.77,3.24,11.36,5.36,1.38.78,2.9,1.77,4.37,2.39,1.39,0,2.97,0,4.37,0"/><path class="b" d="M8.19,103.19c21.55,0,43.11,0,64.66,0,.44,0,1.31,0,1.75,0,.49-.16,1.35-.67,1.75-1,1.34-.95,2.91-1.89,4.37-2.64,5.86-3.36,12.2-7.03,19.22-6.18,3.54.31,7,1.46,10.48,2.06,6.18,1.01,12.33-.85,18.35-2.03,4.89-1,10.16-1.38,14.85.63,7.05,2.26,14.75.49,21.84,2.67,3.7.99,7.21,2.75,10.49,4.7,1.07.59,2.33,1.39,3.49,1.8,1.39,0,2.97,0,4.37,0"/><path class="b" d="M8.19,98.45h68.15c2.74-1.89,5.37-4.18,7.86-6.4,3.91-3.49,8.4-7.55,13.98-7.31,3.78.17,7.17,2.17,10.49,3.78,4.82,2.5,10.47,2.73,15.73,1.76,3.76-.62,7.53-1.68,11.36-1.86,1.72-.07,3.59.1,5.24.59,1.74.55,3.46,1.58,5.24,2.02,3.1.85,6.42.94,9.61,1.06,5.03.13,10.17.69,14.85,2.65,1.44.59,3.01,1.36,4.37,2.12,1.07.54,2.29,1.39,3.5,1.58,1.7,0,3.54,0,5.24,0"/><path class="b" d="M8.19,93.7c4.64,0,9.34,0,13.98,0,2.26-.63,4.61-1.41,6.99-1.28,2.1-.04,4.11.91,6.12,1.28,4.06,0,8.17,0,12.23,0,9.6,0,19.23,0,28.83,0,3.42-2.87,6.61-6.13,9.61-9.44,5.46-5.87,10.81-9.41,18.35-4.41,6.56,4.54,10.81,7.42,19.22,6.48,6.05-.57,12.38-3.57,18.35-1.1,1.93.99,3.97,2.05,6.12,2.49,5.15,1.16,10.52.55,15.73,1.19,4.62.43,9.02,2.12,13.11,4.23.99.61,2.38.59,3.5.56,1.09,0,2.4,0,3.5,0"/><path class="b" d="M8.19,88.96c4.94,0,9.92.01,14.85,0,1.63-.92,3.45-1.81,5.24-2.34,2.52-.77,5.31-.81,7.86-.18,2.38.56,4.72,1.6,6.99,2.48,2.88.11,5.85.02,8.74.05,7.27-.06,14.58.13,21.84-.07,3.93-3.22,7.82-6.63,11.36-10.28,6.17-6.24,11.49-8.95,19.22-3.2,6.63,5.17,11.35,7.92,20.1,7.02,5.48-.5,11.16-2.72,16.6-.91,1.76.64,3.43,1.83,5.24,2.34,3.36,1.06,7,.97,10.49.78,4.94-.31,10.04-.55,14.85.82,4.08,1.05,7.9,3.73,12.23,3.5"/><path class="b" d="M8.19,84.22c4.35,0,8.76,0,13.11,0,.95.15,1.96-.38,2.62-1.02,1.07-.83,2.35-1.78,3.5-2.51,4.59-3.12,9.59-3.66,14.85-2.09,1.4.36,2.95.8,4.37,1.07,1.73.24,3.6.4,5.24,1.04,3.18,1.13,6.28,2.74,9.61,3.41,1.39.19,2.97.07,4.37.1,5.72-.17,10.29-4.46,14.85-7.44,4.22-3.02,8.53-6.92,13.98-7.14,5.23-.18,9.58,3.25,13.98,5.58,2.41,1.29,5.19,1.93,7.86,2.4,7.51,1.47,15.22-.71,22.72.64,2.42.43,4.62,1.83,6.99,2.41,6,1.43,12.26.25,18.35.68,2.92.16,5.9.61,8.74,1.31,3.4.94,6.94,1.74,10.49,1.56"/><path class="b" d="M8.19,79.47c2.89,0,5.85,0,8.74,0,1.1,0,2.39,0,3.5,0,.59.1,1.28-.14,1.75-.47,5.66-5.52,11.5-11.28,20.1-9.17,2.58.63,5.27,1.13,7.86,1.68,2.07.6,4.14,1.58,6.12,2.44,15.22,7.35,20.35-2.86,34.08-4.95,5.99-.87,11.75,1.42,17.48,2.79,2.26.55,4.69.49,6.99.64,3.19.19,6.44.5,9.61.85,4.67.53,9.38,1.13,13.98,2.12,3.19.65,6.34,1.88,9.61,2.12,6.7.5,13.48.49,20.1,1.79,2.27.35,4.7.08,6.99.16,2.88-.03,5.86.07,8.74-.05"/><path class="b" d="M8.19,74.73c4.06-.06,8.18.12,12.23-.08,5.69-5.5,12.05-13.59,20.97-11.33,1.73.36,3.54.97,5.24,1.44,1.41.37,3,.66,4.37,1.16,3.77,1.33,7.44,3.19,11.36,4.07,6.96,1.76,12.55-.73,19.22-1.81,3.77-.4,7.61.15,11.36.58,4.33.52,8.77.85,13.11.27,3.24-.33,6.36-1.65,9.61-1.87,4.45-.33,8.91.78,13.11,2.16,4.31,1.4,8.6,3.18,13.11,3.89,4.03.55,8.18.25,12.23.57,2.31.16,4.72.49,6.99.93,3.76.04,7.59,0,11.36.02,2.29,0,4.7,0,6.99,0,.76,0,1.85,0,2.62-.01.4-.21,1.34-.65,1.75-.87"/><path class="b" d="M8.19,69.98c3.47-.01,7.01.03,10.48-.02,5.36-4.27,10.04-11.07,17.48-11.4,3.37-.08,6.54,1.41,9.61,2.62,1.96.77,4.14,1.23,6.12,1.93,4.23,1.45,8.6,2.88,13.11,3.1,4.97.35,9.9-.94,14.85-.97,3.31.09,6.47,1.45,9.61,2.36,7.56,2.49,13.44.82,20.1-3.07,8.88-5.86,16.12-1.36,24.47,2.76,4.36,2.12,7.4,2.76,12.23,1.95,5.23-.7,10.6-.58,15.73.72,3.18.09,6.43.01,9.61.04,2.59-.03,5.28.08,7.86-.06,1.44-.83,3-1.88,4.37-2.82"/><path class="b" d="M8.19,65.24h8.74c5.49-3.29,9.82-9.37,16.6-9.98,4.81-.36,8.9,2.67,13.11,4.5,6.14,2.13,12.67,3.85,19.22,3.28,5.78-.32,11.88-2.48,17.48-.11,1.11.44,2.41,1.02,3.5,1.51,1.09.58,2.25.93,3.49.79,4.06,0,8.17.01,12.23,0,4.35-2,7.75-5.78,12.23-7.49,8.67-2.92,15.79,4.79,23.59,7.08,2.89.96,5.91-.02,8.74-.71,3.12-.76,6.39-1.32,9.61-1.29,3.21,0,6.46.61,9.61,1.17,3.14.54,6.54,1.04,9.61-.07,2.83-1.08,5.36-2.98,7.86-4.66"/><path class="b" d="M8.19,60.49c2.3,0,4.69,0,6.99,0,1.19-.22,2.45-.9,3.49-1.48,9.52-6.08,13.64-9.29,24.47-3.19,5.01,2.79,10.91,3.84,16.6,3.81,3.82-.07,7.62-.88,11.36-1.59,3.72-.71,7.76-1.17,11.36.32,1.75.58,3.44,1.76,5.24,2.13.78,0,1.84,0,2.62,0,4.35,0,8.76,0,13.11,0,1.27-.02,2.43-1.12,3.5-1.71,2.77-1.76,5.45-4.07,8.74-4.78,5.23-1.18,10.3,1.43,14.85,3.7,2.23,1.02,4.53,2.47,6.99,2.79,2.29-.05,4.71.12,6.99-.1,3.75-1.19,7.49-2.68,11.36-3.45,3.13-.65,6.42-.82,9.61-.78,3.48,0,7.15.22,10.49-.96,2.75-1.04,5.3-2.73,7.86-4.14"/><path class="b" d="M8.19,53.54c8.53,2.63,12.3-.64,20.1-2.48,3.75-.84,7.72-.48,11.36.69,3.18.96,6.31,2.42,9.61,2.93,8,1.39,15.74-1.86,23.59-2.74,3.26-.36,6.64.13,9.61,1.54,1.72.68,3.43,1.84,5.24,2.27,4.94,0,9.92,0,14.85,0,.43,0,1.32,0,1.75,0,.81-.33,1.86-.9,2.62-1.32,3.95-2.27,7.49-4.33,12.23-3.28,2.72.52,5.37,1.69,7.86,2.86,1.67.7,3.35,1.97,5.24,1.74,5.52,0,11.08,0,16.6,0,2.85-1.11,5.79-2.25,8.74-3.09,5.98-1.89,12.47-1.9,18.35-4.14,2.7-1.17,5.25-2.86,7.86-4.21"/><path class="b" d="M8.19,46.04c3.15.94,6.37,1.99,9.61,2.58,6.07.88,12.25-.22,18.35.05,4.67.03,9.33.97,13.98,1.22,5.69-.08,11.04-2.47,16.6-3.41,4.36-.82,9.03-.59,13.11,1.27,2.34.98,4.58,2.49,6.99,3.26,5.81,0,11.66,0,17.48,0,1.5-.02,2.96-1.04,4.37-1.49,2.18-.9,4.62-1.56,6.99-1.19,2.73.36,5.37,1.49,7.86,2.61,5.8.18,11.67.01,17.48.07,4.64-.02,9.34.03,13.98-.02,1.98-.6,4.11-1.19,6.12-1.71,4.38-1.15,8.9-2.12,13.11-3.83,3.39-1.39,6.38-3.71,9.61-5.4"/><path class="b" d="M8.19,38.51c4.05,1.02,7.65,3.25,11.36,5.07,2.74,1.25,5.74,2.12,8.74,2.4,5.29.55,10.52-.8,15.73-1.49,2.29-.37,4.71-.05,6.99-.39,2.66-.42,5.29-1.37,7.86-2.14,8.1-2.72,14.63-2,21.84,2.6.77.45,1.83,1.06,2.62,1.48,1.36.42,2.97.15,4.37.22,6.69,0,13.41,0,20.1,0,1.95-.52,4.1-.91,6.12-.55.78.13,1.83.44,2.62.55,1.09,0,2.4,0,3.49,0,10.19,0,20.4,0,30.58,0,4.06,0,8.18,0,12.23,0,1.4,0,2.97,0,4.37,0,.78,0,1.89.08,2.62-.27,5.19-1.49,9.39-5.06,13.98-7.71"/><path class="b" d="M8.19,31.3c5.15,1.05,8.87,5.01,13.11,7.79,1.6.96,3.37,2.12,5.24,2.43.78,0,1.84,0,2.62,0,2.88-.08,5.87.17,8.74-.12,2.01-.6,4.1-1.39,6.12-1.96,1.66-.51,3.51-.69,5.24-.71,1.74-.15,3.57-.64,5.24-1.14,10.9-3.75,16-2.53,25.34,3.93,22.13,0,44.27,0,66.41,0,7.27,0,14.57,0,21.84,0,3.47-.1,7.04.21,10.49-.14,1.66-1.13,3.47-2.36,5.24-3.32"/><path class="b" d="M8.19,24.78c7.65,1.67,11.92,9.42,19.22,11.89,2.28.23,4.7.05,6.99.1,1.73-.02,3.61.19,5.24-.5,2.27-.71,4.62-1.59,6.99-1.9,2.01-.11,4.14-.07,6.12-.57,5.45-1.33,11.22-2.63,16.6-.28,2.14.79,4.1,2.22,6.12,3.25,3.77,0,7.59,0,11.36,0,8.15,0,16.32,0,24.47,0,24.17,0,48.35,0,72.52,0"/><path class="b" d="M8.19,20.56c7.56,1.63,12.05,9,19.22,11.47,2.89,0,5.85,0,8.74,0,2.02-.02,4.18.19,6.12-.51,1.38-.36,2.94-.72,4.37-.83,1.7-.06,3.54.11,5.24-.13,3.46-.39,6.99-1.08,10.49-.72,2.76.15,5.3,1.36,7.86,2.19,4.64,0,9.34,0,13.98,0,12.81,0,25.64,0,38.45,0,6.1,0,12.25,0,18.35,0,1.75.05,3.46-1.05,5.24-.93,1.75-.06,3.56.53,5.24.93,2.88,0,5.85,0,8.74,0,7.85,0,15.74,0,23.59,0"/><path class="b" d="M8.19,18.2c6.13.94,10.49,5.7,15.73,8.55,1.24.86,2.95.44,4.37.53,2.59,0,5.27,0,7.86,0,6.99-.01,13.99.07,20.97-.32,1.71-.05,3.54.14,5.24.32,4.35,0,8.76,0,13.11,0,10.19,0,20.4,0,30.58,0,7.27,0,14.57,0,21.84,0,2,0,4.12,0,6.12,0,1.4-.07,3.01.18,4.37-.21,1.68-.79,3.5-1.67,5.24-2.3,2.53-.87,5.39-.62,7.86.33,1.47.54,3,1.42,4.37,2.18,2.88,0,5.85,0,8.74,0,6.39,0,12.83,0,19.22,0"/><path class="b" d="M8.19,16.3c6.07.14,9.8,3.67,14.85,6.24,14.27,0,28.55,0,42.81,0,15.72,0,31.46,0,47.18,0,5.52,0,11.08,0,16.6,0,2.29,0,4.7,0,6.99,0,1.42-.55,2.98-1.27,4.37-1.9,5.54-3,10.39-2.92,15.73.54.42.28,1.34.88,1.75,1.19,1.67.35,3.55.1,5.24.17,6.69,0,13.41,0,20.1,0"/><path class="b" d="M8.19,13.81c3.63-.62,7.34.18,10.48,2.06,1.39.59,2.83,1.92,4.37,1.93,18.64,0,37.28,0,55.92,0,13.68,0,27.38,0,41.07,0,4.06,0,8.17,0,12.23,0,1.4,0,2.97,0,4.37,0,.79,0,1.88.07,2.62-.25,2.91-1.17,5.65-3,8.74-3.73,3.23-.84,6.74-.18,9.61,1.45.8.44,1.88,1.13,2.62,1.67,0,0,.87.65.87.65,0,0,.87.2.87.2,7.27,0,14.57,0,21.84,0"/></svg>