<?xml version="1.0" encoding="UTF-8"?><svg id="a" xmlns="http://www.w3.org/2000/svg" width="1920" height="2400" viewBox="0 0 192 240"><defs><style>.b{fill:none;stroke:#fff;stroke-miterlimit:10;stroke-width:.4px;}.c{stroke-width:0px;}</style></defs><rect class="c" width="192" height="240"/><path class="b" d="M8.82,228.69c2-1.23,4.02-2.67,6.07-3.81,1.95-1.03,4.21-1.68,6.07-2.9,4.33-2.7,9.59-5.82,14.75-3.48,4.09,1.76,7.21,5.19,10.41,8.18,1.35,1.11,2.7,2.82,4.34,3.44,4.9,0,9.85,0,14.75,0,9.24,0,18.51,0,27.76,0,1.16-.18,2.35-.95,3.47-1.27,1.64-.55,3.48-.88,5.2-.96,2.28-.12,4.66.12,6.94.09,2,0,4.08-.68,6.07-.25,2.65.47,5.23,1.58,7.81,2.34,3.15.13,6.39.02,9.54.05,3.18.34,5.77-1.27,8.67-2.27,3.88-1.31,8.02-2.35,12.14-2.22,5.74.08,10.93,3.01,16.48,4.05,1.07.17,2.39.21,3.47.04,1.38-.3,2.9-.83,4.34-.75,1.1.03,2.41.26,3.47.56.75.22,1.79.69,2.6.6"/><path class="b" d="M8.82,222.6c2.29-1.07,4.58-2.42,6.94-3.34,2.68-.76,5.3-1.93,7.81-3.13,6.92-3.33,12.02-1.35,17.35,3.66,2.06,1.75,3.83,4.12,6.07,5.63,16.77,0,33.55,0,50.31,0,1.41.03,2.97.05,4.34-.37,1.67-.34,3.51-.55,5.2-.75,2.61-.16,5.18-1.24,7.81-1.06,4.38.31,8.59,2.26,13.01,2.18,4.16.29,8.22-.91,12.14-2.18,3.36-.98,6.91-1.69,10.41-1.89,6.35-.46,12.2,2.46,18.22,3.93,1.67.27,3.52.11,5.2.11,1.05-.32,2.37-.52,3.47-.49,2,.08,4.05.71,6.07.52"/><path class="b" d="M8.82,215.64c2.3-.6,4.64-1.45,6.94-2.05,2.33-.46,4.69-1.19,6.94-1.94,10.2-3.46,14.92,2.94,21.69,9.05,21.97,0,43.95,0,65.93,0,5.95-2.82,12.71-2.02,19.08-2.63,7.21-.64,14.41-2.33,21.69-1.81,5.71.31,11.04,2.66,16.48,4.2,1.93.48,4.09.14,6.07.23,3.15,0,6.39,0,9.54,0"/><path class="b" d="M8.82,208.9c3.47-.08,7.01-.47,10.41-1.15,4.52-1.19,9.53-2.13,13.88.16,2.55,1.24,4.86,3.14,6.94,5.05,1.1.93,2.18,2.34,3.47,3.02,15.03,0,30.08,0,45.11,0,5.48,0,11,0,16.48,0,2.86-.08,5.83.17,8.67-.12,8.55-5.25,17.03-6.6,26.89-5.31,4.32.5,8.74.72,13.01,1.55,4.41.81,8.71,2.32,13.01,3.54,1.92.59,4.09.24,6.07.33,3.45,0,6.96,0,10.41,0"/><path class="b" d="M8.82,202.94c4.36,1.18,8.68,1.02,13.01-.15,9.95-2.62,15.57,2.28,22.55,8.49,15.03,0,30.08,0,45.11,0,8.37-.1,16.8.19,25.16-.11,5.61-5.03,12.06-9.56,19.95-7.44,3.51.83,6.88,2.37,10.41,3.1,7.22,1.44,14.54,2.57,21.69,4.37,5.47.2,11,.01,16.48.08"/><path class="b" d="M8.82,197.77c2.43,1.06,5.12,2,7.81,1.86,6.83-.88,11.91-4.46,19.08-1.55,4.83,1.9,8.67,5.61,13.01,8.35,2.25.33,4.67.07,6.94.15,19.37,0,38.75,0,58.12,0,6.48-5.63,11.21-12.29,20.82-7.93,2.35,1.06,4.62,2.52,6.94,3.64,2.16,1.03,4.59,1.71,6.94,2.16,6.01,1.08,12.19,1.15,18.22,2.1,5.48.07,11,0,16.48.02"/><path class="b" d="M8.82,193.04c8.51,4.81,12.05.22,19.95-2.26,4.02-1.3,8.45-.73,12.14,1.25,3.62,1.79,6.78,4.52,10.41,6.29,2.46,1.18,5.16,2.01,7.81,2.64,1.97.45,4.03,1.05,6.07.9,10.69,0,21.4,0,32.1,0,4.61,0,9.27,0,13.88,0,1.02-.25,1.87-1.41,2.6-2.09,1.06-1.06,2.35-2.31,3.47-3.3,9.99-8.93,15.07-3.23,24.29,2.55,3.68,2,8.02,2.41,12.14,2.31,4.61-.11,9.27-.61,13.88-.22,1.7.11,3.52.49,5.2.74,3.45,0,6.96,0,10.41,0"/><path class="b" d="M8.82,189.62c5.93,2.87,9.67,1.66,14.75-2.03,5.35-3.86,11.41-7.99,18.22-5.26,4.87,1.88,8.88,5.57,13.88,7.18,7.18,2.63,14.92,3.82,21.69,7.53,5.47.26,11.01.02,16.48.1,2.57,0,5.24,0,7.81,0,1.68-.07,3.55.17,5.2-.16,3.3-3.72,7.03-7.27,11.28-9.89,4.74-2.93,9.6-1.95,13.88,1.28,4.07,2.8,7.37,7.03,12.14,8.69,3.73.22,7.54.02,11.28.09,3.16-.57,6.35-1.42,9.54-1.79,3.77-.43,7.85-.28,11.28,1.49.72.37,1.82.3,2.6.29,1.39,0,2.95,0,4.34,0"/><path class="b" d="M8.82,186.71c10.45,3.15,14.95-6.26,22.55-11.16,7.82-5.26,12.99-1.68,19.95,2.59,7.34,4.09,15.68,5.77,23.42,8.89,3.34,1.3,6.54,3.08,9.54,5.03.71.48,1.79.4,2.6.39,1.09,0,2.38,0,3.47,0,1.98,0,4.09,0,6.07,0,1.39-.1,3.04.28,4.34-.33,6.22-4.82,10.98-12.41,19.08-14.2,4.65-.88,8.89,2.07,12.14,5.06,3.18,2.84,6,6.28,9.54,8.71,1.45,1.15,3.5.67,5.2.76,2.28,0,4.66,0,6.94,0,1.39-.06,2.99.18,4.34-.2,6.4-1.9,14.06-4.28,19.95.16,1.69.09,3.52.02,5.2.04"/><path class="b" d="M8.82,183.34c4.06-.01,8.16-1.56,11.28-4.14,5.49-4.44,9.96-11.34,17.35-12.61,4.86-.67,9.07,2.37,13.01,4.75,3.28,1.92,6.83,3.52,10.41,4.78,5.4,1.93,11.07,3.14,16.48,5.03,4.12,1.33,7.86,3.88,12.14,4.74,12.61,2.22,18.43-14.16,30.36-15.09,3.93-.27,7.53,1.93,10.41,4.4,3.34,2.84,6.24,6.3,9.54,9.18,1.73,1.47,3.82,2.88,6.07,3.35.76,0,1.84,0,2.6,0,3.45,0,6.96,0,10.41,0,3.43-.62,6.9-1.57,10.41-1.66,2.69-.15,5.39.51,7.81,1.66,1.98,0,4.09,0,6.07,0"/><path class="b" d="M8.82,179.16c4.09-1.33,7.94-3.67,11.28-6.37,5.57-4.73,11.78-12.27,19.95-9.74,3.8,1.14,7.01,3.68,10.41,5.61,3.26,1.87,6.8,3.4,10.41,4.45,5.37,1.61,11.02,2.11,16.48,3.28,3.8.78,7.42,2.52,11.28,3.05,7.87,1.29,14.12-4.58,19.95-8.93,3.6-2.47,7.7-4.82,12.14-5.1,7.18-.2,12.39,5.74,17.35,10.13,3.84,3.64,8.66,6.45,13.88,7.47,2.86,0,5.81,0,8.67,0,7.51,0,15.05,0,22.55,0"/><path class="b" d="M8.82,174.46c4.3-2.37,8.27-5.47,12.14-8.47,5.86-4.87,11.67-8.55,19.08-4.25,2.72,1.5,5.22,3.53,7.81,5.24,2.68,1.73,5.64,3.21,8.67,4.19,6.13,2.09,12.7,1.75,19.08,2.03,3.82.11,7.53,1.34,11.28,1.96,8.16,1.53,14.5-3,20.82-7.43,1.88-1.3,4.03-2.4,6.07-3.42,2.7-1.38,5.62-2.69,8.67-2.96,6.88-.63,12.37,4.46,17.35,8.5,3.23,2.63,6.79,4.98,10.41,7.03.75.42,1.83.98,2.6,1.37.76.1,1.84.08,2.6.08,2.28,0,4.66,0,6.94,0,6.93,0,13.89,0,20.82,0"/><path class="b" d="M8.82,170.06c5.12-2.97,9.65-6.98,14.75-10,5.38-3.3,10.56-2.85,15.61.76,4.56,3.19,8.57,7.37,13.88,9.36,6.87,3.02,14.46,1.98,21.69,1.26,3.48-.36,7,.15,10.41.81,8.2,1.67,14.07-.69,20.82-5.17,2.75-1.86,5.8-3.37,8.67-5,2.98-1.71,6.11-3.51,9.54-4.1,8.72-1.42,15.25,6.05,21.69,10.7,1.38,1.11,2.94,2.35,4.34,3.43.71.53,1.65,1.48,2.6,1.5,10.11,0,20.25,0,30.36,0"/><path class="b" d="M8.82,166.46c12.31-6.9,18.84-14.9,32.1-3.81,2.77,2.18,5.5,4.64,8.67,6.22,3.16.04,6.39,0,9.54.02,8.09,0,16.2,0,24.29,0,3.74,0,7.54,0,11.28,0,2.27-.11,4.72.26,6.94-.21,3.58-1.48,6.98-3.52,10.41-5.29,2.39-1.36,4.67-3.11,6.94-4.65,3.79-2.61,8.27-5,13.01-4.34,8.51,1.52,14.88,8.53,20.82,14.3,1.36.35,2.95.13,4.34.19,2.28,0,4.66,0,6.94,0,6.35,0,12.73,0,19.08,0"/><path class="b" d="M8.82,163.71c10.53-5.33,18.37-10.03,29.49-2.7,1.42.89,2.96,1.95,4.34,2.9,1.04.45,2.37.23,3.47.28,1.39,0,2.95,0,4.34,0,14.45,0,28.92,0,43.37,0,5.19,0,10.42,0,15.61,0,6.17-2.68,10.57-8.21,16.48-11.35,6.17-3.56,12.59-2.19,18.22,1.73,3.62,2.68,6.51,6.33,9.54,9.61h29.49"/><path class="b" d="M8.82,159.47c1.69,0,3.51,0,5.2,0,3.06-1.02,6.34-1.58,9.54-1.89,2.88-.25,5.87-.03,8.67.66,1.99.48,3.97,1.48,6.07,1.22,16.77,0,33.55,0,50.31,0,5.77,0,11.58,0,17.35,0,2.57,0,5.24,0,7.81,0,1.27-.4,2.41-1.58,3.47-2.35,6.44-5.25,13.74-10.96,22.55-8.36,6.03,1.24,9.93,6.42,13.88,10.7h29.49"/><path class="b" d="M8.82,154.76c35.85-.01,71.71.02,107.56-.01,6.79-4.88,13.88-8.95,22.55-7.62,1.7.25,3.58.44,5.2,1.02,3.34,1.42,6.02,4.14,8.67,6.55,10.11.16,20.25,0,30.36.06"/><path class="b" d="M8.82,150.05c24.86,0,49.74,0,74.6,0,11.85,0,23.72,0,35.57,0,1.47-.33,2.91-1.31,4.34-1.79,2.47-.97,5.16-1.63,7.81-1.86,2.86-.26,5.82-.06,8.67.13,1.69.15,3.56,0,5.2.52,2.16.61,4.07,2.05,6.07,2.99.76,0,1.84,0,2.6,0,5.77,0,11.58,0,17.35,0,2.57,0,5.24,0,7.81,0,1.59-.66,2.87-2.2,4.34-3.1"/><path class="b" d="M8.82,145.34c31.23,0,62.46,0,93.68,0,5.48,0,11,0,16.48,0,2.28,0,4.66,0,6.94,0,1.38-.23,2.94-.41,4.34-.47,3.15-.15,6.39.13,9.54.04,1.7,0,3.51-.45,5.2-.34,2.02.09,4.04.95,6.07.76,5.19,0,10.42,0,15.61,0,2.57-.05,5.24.1,7.81-.08,3.08-1.86,5.72-4.52,8.67-6.56"/><path class="b" d="M8.82,140.63c27.47,0,54.94,0,82.41,0,13.29,0,26.61,0,39.9,0,4.03,0,8.12,0,12.14,0,1.42-.1,2.92-.73,4.34-.91,1.97-.34,4.08-.52,6.07-.61,7.27-.28,14.87.02,21.69-2.9,2.71-1.3,5.22-3.17,7.81-4.68"/><path class="b" d="M8.82,135.92c44.24,0,88.48,0,132.72,0,1.97.21,3.55-1.49,5.2-2.3,2.46-1.44,5.1-2.8,7.81-3.69,3.32-1.12,6.92-1.45,10.41-1.27,3.44.13,6.98.72,10.41.12,2.67-.52,5.28-1.66,7.81-2.64"/><path class="b" d="M8.82,131.22c44.24-.03,88.48.07,132.72-.04,8.04-5.87,13.86-14.78,25.16-10.55,6.45,2.49,9.48,3.33,16.48,2.09"/><path class="b" d="M8.82,126.51c35.56,0,71.13,0,106.69,0,8.09,0,16.2,0,24.29,0,1.36.06,2.46-1.32,3.47-2.08,2.07-1.88,4.06-4.08,6.07-6.02,4.39-4.37,9.52-7.38,15.61-4.21,2.69,1.28,5.15,3.18,7.81,4.52,3.23,1.46,6.87,2.14,10.41,2.2"/><path class="b" d="M8.82,121.8c34.98,0,69.98,0,104.96,0,7.22,0,14.47,0,21.69,0,1.98,0,4.09,0,6.07,0,3.02-1.59,5.23-4.58,7.81-6.78,9.87-9.17,14.16-3.99,23.42,2.01,3.21,1.61,6.83,2.57,10.41,2.85"/><path class="b" d="M8.82,115.71c1.38.5,2.9,1.08,4.34,1.38,2.28,0,4.66,0,6.94,0,1.39,0,2.94,0,4.34,0,2.83-.69,5.76-1.44,8.67-1.66,4.98-.49,9.86.98,14.75,1.61,6.35.11,12.74,0,19.08.04,26.31,0,52.63,0,78.94,0,7.13-5.16,11.75-9.95,20.82-4.93,3.57,1.95,7.16,4.41,11.28,4.93,1.69,0,3.52,0,5.2,0"/><path class="b" d="M8.82,107.04c4.02.98,8.02,2.38,12.14,2.87,3.44.37,6.96.37,10.41.59,3.46.19,6.97.61,10.41,1.02,1.69.19,3.51.36,5.2.41,1.71-.03,3.55-.03,5.2.44,8.09.05,16.2,0,24.29.02,16.19,0,32.39,0,48.58,0,8.95,0,17.94,0,26.89,0,1.17.14,2.37-.71,3.47-1.01,1.63-.56,3.48-.92,5.2-.95,3.29-.15,6.42,1.17,9.54,1.96,4.32,0,8.69,0,13.01,0"/><path class="b" d="M8.82,100.12c7.29,1.11,13.69,5.2,20.82,6.93,1.38.41,2.9.73,4.34.61,1.99,0,4.09,0,6.07,0,5.77,0,11.58,0,17.35,0,4.61,0,9.27,0,13.88,0,3.16-.02,6.4.11,9.54-.21,5.76.38,11.58.16,17.35.21,28.33,0,56.68,0,85.01,0"/><path class="b" d="M8.82,95.07c3.74.46,7.29,2.01,10.41,4.09,1.4.87,2.93,1.87,4.34,2.73.78.42,1.66,1.2,2.6,1.07,11.56,0,23.14,0,34.7,0,3.74-.1,7.53-.42,11.28-.42,3.16-.01,6.39-.16,9.54-.11,2,.05,4.07.59,6.07.53,6.06,0,12.16,0,18.22,0,2.45.01,4.69-1.6,6.94-2.4,4.1-1.63,8.71-1.85,13.01-.92,3.59.64,6.95,2.3,10.41,3.33,4.32,0,8.69,0,13.01,0,11.27,0,22.56,0,33.83,0"/><path class="b" d="M8.82,91.31c4.98.84,9.13,3.91,13.01,6.94,12.43,0,24.87,0,37.3,0,2.01.09,4.07-.57,6.07-.73,2.56-.28,5.23-.34,7.81-.28,3.45.13,6.96.1,10.41.11,4.92.12,9.95,0,14.75-1.21,5.38-1.23,10.37-3.77,15.61-5.42,6.26-1.92,13.06-1.15,19.08,1.25,3.24,1.23,6.42,2.82,9.54,4.34,1.66.66,3.36,2.02,5.2,1.93,11.85,0,23.72,0,35.57,0"/><path class="b" d="M8.82,87.68c3.78,1.14,7.28,3.15,10.41,5.54,1.03.51,2.36.26,3.47.31,1.4,0,2.94,0,4.34,0,4.61,0,9.27,0,13.88,0,5.19,0,10.42,0,15.61,0,2.28,0,4.66,0,6.94,0,1.39-.2,2.94-.39,4.34-.51,8.99-.55,18.17-.6,26.89-3.13,6.56-1.83,12.54-5.33,19.08-7.2,11.17-3.42,21.28.07,31.23,5.24,2.31,1.21,4.67,2.59,6.94,3.88,1.33.68,2.75,1.9,4.34,1.71,8.95,0,17.94,0,26.89,0"/><path class="b" d="M8.82,84.21c3.34,1.06,6.6,2.59,9.54,4.49,2.84.3,5.81.04,8.67.12,4.9,0,9.85,0,14.75,0,10.11,0,20.25,0,30.36,0,2.28-.06,4.68.15,6.94-.11,2.57-.67,5.24-1.36,7.81-2.05,9.71-2.48,18.93-6.57,28.63-9.07,9.87-2.79,20.84-3.91,30.36.69,6.41,2.88,12.05,7.23,18.22,10.55,6.35,0,12.74,0,19.08,0"/><path class="b" d="M8.82,81.19c1.71.47,3.54,1.03,5.2,1.65,1.11.37,2.31,1.07,3.47,1.28,6.93,0,13.89,0,20.82,0,7.22,0,14.47,0,21.69,0,5.48,0,11,0,16.48,0,2.57,0,5.23,0,7.81,0,1.74-.52,3.5-1.43,5.2-2.05,9.16-3.84,19.13-4.9,28.63-7.56,8.12-2.09,16.63-6.61,25.16-5.26,7.69,1.01,14.49,5.02,20.82,9.28,2.46,1.58,5.05,3.23,7.81,4.24,1.35.5,2.97.69,4.34,1.11.72.31,1.84.24,2.6.24,1.38,0,2.95,0,4.34,0"/><path class="b" d="M8.82,78.57c1.1.26,2.38.56,3.47.82,2.57.04,5.23,0,7.81.02,5.77,0,11.58,0,17.35,0,16.19,0,32.39,0,48.58,0,1.09-.02,2.39.07,3.47-.1.76-.39,1.82-.9,2.6-1.25,2.47-1.09,5.15-1.93,7.81-2.41,3.41-.64,6.96-.72,10.41-1.1,4.1-.51,8.23-1.28,12.14-2.62,5.66-1.85,10.83-5.01,16.48-6.86,1.92-.65,4.07-.81,6.07-1.02,3.14-.38,6.42-.64,9.54-.02,5.85,1.09,10.65,4.9,15.61,7.93,1.85,1.21,4.08,1.93,6.07,2.86,2.28,1.13,4.57,2.51,6.94,3.43"/><path class="b" d="M8.82,74.7c27.76,0,55.52,0,83.27,0,1.19.15,2.42-.41,3.47-.87,1.63-.62,3.47-1.09,5.2-1.34,2.85-.41,5.81-.27,8.67-.32,6.14-.32,12.48-.52,18.22-2.97,4.19-1.67,8.07-4.14,12.14-6.06,1.63-.79,3.55-1.29,5.2-2.03,1.99-.88,4.04-1.94,6.07-2.73,7.3-3.08,13.01-.16,19.08,3.98,1.9,1.32,4.13,2.35,6.07,3.58,2.28,1.5,4.54,3.26,6.94,4.56"/><path class="b" d="M8.82,69.99c25.73,0,51.47,0,77.2,0,3.16,0,6.39,0,9.54,0,.83-.02,1.83-.53,2.6-.79,1.35-.45,2.92-.8,4.34-.97,3.72-.35,7.54-.19,11.28-.27,2.86.11,5.81.44,8.67.31,7.7-.12,14.21-4.66,20.82-8.05,3.93-2.23,7.21-5.59,11.28-7.6,5.49-2.93,10.77-1.06,15.61,2.18,1.95,1.3,4.16,2.48,6.07,3.84,2.27,1.66,4.52,3.59,6.94,5.04"/><path class="b" d="M8.82,65.28c27.18,0,54.36,0,81.54,0,1.98-.1,4.13.23,6.07-.2,3.18-1.68,6.83-2.46,10.41-2.54,2.57-.02,5.25-.26,7.81.07,4.3.59,8.64,1.75,13.01,1.34,6.36-.6,12.17-3.96,17.35-7.51,3.72-2.91,7.05-6.53,11.28-8.73,4.97-2.75,10.15-1.28,14.75,1.49,1.69.99,3.59,1.96,5.2,3.09,2.27,1.58,4.53,3.41,6.94,4.79"/><path class="b" d="M8.82,59.86l.87.65c28.33.17,56.68,0,85.01.06.85.14,1.86-.38,2.6-.73,1.34-.58,2.9-1.07,4.34-1.34,2.54-.5,5.23-.45,7.81-.37,1.69.03,3.53.02,5.2.31,5.14.88,10.37,2.45,15.61,1.52,5.39-.94,10.4-3.72,14.75-6.97,4.32-3.54,8.05-8.02,13.01-10.72,8.84-5.07,17.71,2.26,25.16,6.61"/><path class="b" d="M8.82,52.13c1.59,1.31,3.22,3.06,5.2,3.72,1.4,0,2.94,0,4.34,0,4.03,0,8.11,0,12.14,0,2.03.14,4.08-.4,6.07-.68,2.56-.35,5.24-.46,7.81-.19,1.72.11,3.5.72,5.2.87,2.87,0,5.81,0,8.67,0,6.64,0,13.31,0,19.95,0,5.77,0,11.58,0,17.35,0,2.27-.43,4.59-1.18,6.94-1.09,2.29-.02,4.67.34,6.94.6,1.69.18,3.52.24,5.2.48,4.32.02,8.69,0,13.01,0,1.76.15,3.58-.29,5.2-.95,2.38-.88,4.75-2.1,6.94-3.37,6.3-3.23,10.85-8.87,16.48-13.03,10.13-7.57,17.09-3.23,26.89,1.85"/><path class="b" d="M8.82,45.25c2.54,2.33,5.25,5.01,8.67,5.9,1.4,0,2.94,0,4.34,0,1.98-.08,4.12.2,6.07-.17,5.71-1.2,11.44-3.13,17.35-2.82,2.05.11,4.22.43,6.07,1.36,1.38.62,2.71,1.88,4.34,1.62,1.99,0,4.09,0,6.07,0,20.53,0,41.06,0,61.59,0,1.98,0,4.09,0,6.07,0,1.21-.12,2.41-1,3.47-1.53,1.41-.79,2.96-1.73,4.34-2.58,2.53-1.64,5.3-3.13,7.81-4.81,2.36-1.66,4.68-3.6,6.94-5.4,5.6-4.52,12.39-9.19,19.95-7.82,3.88.72,7.58,2.38,11.28,3.7"/><path class="b" d="M8.82,40.24c2.95,2.56,6.19,6.29,10.41,6.2,2.86-.1,5.84.22,8.67-.16,3.79-.81,7.51-2.12,11.28-3,3.65-.82,7.63-1.42,11.28-.31,2.45.78,4.65,2.36,6.94,3.47,5.48,0,11,0,16.48,0,12.43,0,24.87,0,37.3,0,4.03,0,8.12,0,12.14,0,1.98,0,4.09,0,6.07,0,.87-.35,1.86-1.17,2.6-1.73,2.82-2.13,5.67-4.42,8.67-6.3,1.96-1.18,4.15-2.22,6.07-3.46,4.54-2.81,8.97-5.98,13.88-8.13,8.67-3.89,13.85-1.71,22.55.05"/><path class="b" d="M8.82,37.85c1.07.99,2.33,2.15,3.47,3.07.49.42,1.08.83,1.74.81,2.87,0,5.81,0,8.67,0,1.99,0,4.09,0,6.07,0,1.39-.05,2.97.15,4.34-.17,2.56-.97,5.18-2.03,7.81-2.82,3.92-1.21,8.31-1.72,12.14.05,7.56,3.3,4.55,2.99,13.01,2.93,5.77,0,11.58,0,17.35,0,2.02.15,4.07-.57,6.07-.7,2.31-.24,4.7.14,6.94.7,5.48,0,11,0,16.48,0,3.74,0,7.54,0,11.28,0,1.39,0,2.95,0,4.34,0,.93.18,1.96-.51,2.6-1.13,2.8-2.32,5.63-4.78,8.67-6.78,2.43-1.58,5.25-2.66,7.81-4.02,5.02-2.53,10.12-5.15,15.61-6.49,2.8-.68,5.79-1.01,8.67-.81,3.73.44,7.52.91,11.28,1"/><path class="b" d="M8.82,36c.88,1.11,2.19,1.07,3.47,1.02,1.69,0,3.51,0,5.2,0,4.9,0,9.85,0,14.75,0,1.09-.02,2.39.08,3.47-.12,1.09-.49,2.37-1.05,3.47-1.51,3.02-1.24,6.25-2.32,9.54-2.45,3.6-.05,7.02,1.51,10.41,2.52,3.33,1.06,6.9,1.69,10.41,1.42,2.61-.17,5.25-.77,7.81-1.27,1.68-.34,3.53-.48,5.2-.84,3.39-.71,6.94-1.46,10.41-.84,1.76.3,3.6.95,5.2,1.73.78.38,1.81.98,2.6,1.35.43,0,1.3,0,1.73,0,6.06,0,12.16,0,18.22,0,1.98,0,4.09,0,6.07,0,1.47,0,3.22.25,4.34-.93,4.3-3.22,8.68-6.61,13.88-8.25,5.96-2.25,11.98-4.59,18.22-5.98,2.82-.62,5.78-1.03,8.67-1.03,3.74.18,7.54.26,11.28-.09"/><path class="b" d="M8.82,32.31c6.93,0,13.89,0,20.82,0,2.28,0,4.66,0,6.94,0,2.62-.83,5.16-2.19,7.81-2.95,3.33-1.15,6.93-1.56,10.41-.93,4.28.66,8.66,1.46,13.01,1.01,3.21-.28,6.4-1.13,9.54-1.82,3.45-.57,6.94-1.4,10.41-1.84,5.02-.62,9.86,1.51,13.88,4.35,1.09.68,2.23,1.78,3.47,2.17.77,0,1.83,0,2.6,0,4.9,0,9.85,0,14.75,0,2.28,0,4.66,0,6.94,0,1.51-.41,2.95-1.52,4.34-2.22,2.21-1.24,4.55-2.5,6.94-3.37,2.79-.95,5.81-1.42,8.67-2.11,3.77-.84,7.57-1.84,11.28-2.94,3.71-1.08,7.46-2.3,11.28-2.92,3.73-.46,7.54-.69,11.28-1.12"/><path class="b" d="M8.82,27.6c9.24,0,18.51,0,27.76,0,.79,0,1.83.03,2.6-.1.78-.31,1.82-.72,2.6-1.02,2.25-.86,4.63-1.7,6.94-2.41,5.07-1.41,10.44-.65,15.61-1.31,5.63-.54,10.96-2.65,16.48-3.72,9.24-2.55,13.92-2.01,21.69,3.84,1.39,1.02,2.93,2.2,4.34,3.2,1,.64,2.19,1.71,3.47,1.52,4.32,0,8.69,0,13.01,0,1.98,0,4.09,0,6.07,0,.78-.21,1.84-.57,2.6-.83,3.1-1.05,6.29-2.17,9.54-2.61,4.61-.43,9.35-.25,13.88-1.36,5.78-1.25,10.98-4.31,16.48-6.35,3.6-1.24,7.49-1.71,11.28-1.92"/><path class="b" d="M8.82,22.89c11.27,0,22.56,0,33.83,0,2.66-.69,5.2-2.06,7.81-2.92,2.8-.91,5.79-1.42,8.67-1.97,6.86-1.12,13.37-3.64,19.95-5.77,3.69-.98,7.4-2.5,11.28-2.35,7.67.25,12.91,6.66,19.08,10.33,3.69,1.92,7.99,2.84,12.14,2.68,2.28-.03,4.67.07,6.94-.06,3.45-.33,6.94-.87,10.41-.96,4.06-.16,8.09,1,12.14.98,3.93.05,7.84-1.15,11.28-3.01,7.3-3.99,11.76-8.65,20.82-8.17"/></svg>