<?xml version="1.0" encoding="UTF-8"?><svg id="a" xmlns="http://www.w3.org/2000/svg" width="1920" height="2400" viewBox="0 0 192 240"><defs><style>.b{fill:none;stroke:#fff;stroke-miterlimit:10;stroke-width:.4px;}.c{stroke-width:0px;}</style></defs><rect class="c" x="0" width="192" height="240"/><path class="b" d="M7.9,225.63c2.57,1.54,5.2,3.2,7.89,4.54,5.24,0,10.53,0,15.78,0,10.8,0,21.63,0,32.43,0,10.22,0,20.46,0,30.68,0,1.19.14,2.39-.73,3.51-1.04,1.94-.66,4.09-1.05,6.14-1.01,1.74.03,3.6.36,5.26.87,1.41.36,2.89,1.3,4.38,1.18,2.89,0,5.87,0,8.77,0,2.01-.1,4.22.31,6.14-.43,4.02-1.29,7.98-3.32,12.27-3.46,2.03.02,4.12.59,6.14.79,4.45.54,8.97,1.32,13.15,2.99,7.86.31,15.79.02,23.67.11"/><path class="b" d="M7.9,223.7c1.41.54,2.9,1.37,4.38,1.71,2.9,0,5.87,0,8.77,0,6.12,0,12.29,0,18.41,0,18.11-.02,36.24.04,54.35-.02,7.82-5.14,12.29-5.85,21.04-2.66,4.23,1.28,8.74,1.82,13.15,1.38,4.08-.33,8.16-1.41,12.27-1.35,2.34.06,4.69.83,7.01,1.03,3.49.4,7.08.64,10.52,1.38,1.07.31,2.4.24,3.51.24,2,0,4.13,0,6.14,0,5.54,0,11.12,0,16.66,0"/><path class="b" d="M7.9,220.65c15.77,0,31.56,0,47.34,0,7.29,0,14.62,0,21.91,0,3.48,0,7.04,0,10.52,0,2-.1,4.18.24,6.14-.2,2.19-1.58,4.56-3.14,7.01-4.27,5.07-2.46,9.66-2.14,14.9-.48,4.01,1.15,8.11,2.31,12.27,2.75,3.76.45,7.62.32,11.4.5,2.33.08,4.7.66,7.01.88,3.48.27,7.04.59,10.52.82,9.05,0,18.12,0,27.17,0"/><path class="b" d="M7.9,215.89c18.99,0,37.99,0,56.98,0,9.05,0,18.12,0,27.17,0,1.25-.32,2.41-1.39,3.51-2.02,2.21-1.41,4.6-2.8,7.01-3.83,5.66-2.54,10.92-2.32,16.66-.19,4.03,1.37,8.09,2.89,12.27,3.71,4.02.84,8.19,1.01,12.27,1.39,2.3.2,4.71.36,7.01.6,1.4.15,2.97.42,4.38.35,9.63,0,19.29,0,28.93,0"/><path class="b" d="M7.9,211.13c18.4,0,36.82,0,55.22,0,5.54,0,11.12,0,16.66,0,2.01,0,4.13,0,6.14,0,1.12-.06,2.51.24,3.51-.39,4.61-2.36,9.2-4.91,14.03-6.79,6.75-2.56,10.77-3.2,17.53-.16,9.36,4.17,14.03,6.2,24.54,5.89,1.72.09,3.57.34,5.26.7,1.4.28,2.93.88,4.38.75,9.63,0,19.29,0,28.93,0"/><path class="b" d="M7.9,206.37c21.33,0,42.66,0,63.99,0,2.3,0,4.71.02,7.01-.02,2.01-.77,4.11-1.64,6.14-2.37,5.52-2,11.11-3.96,16.65-5.88,3.44-1.15,6.96-2.36,10.52-3.06,3.04-.4,6.07.8,8.77,2.09,5.87,2.9,11.67,6.77,18.41,7.08,2.31.18,4.71-.43,7.01-.18,1.76.17,3.62.67,5.26,1.31.77.3,1.82.81,2.63,1.02.41,0,1.34,0,1.75,0,9.34,0,18.71,0,28.05,0"/><path class="b" d="M7.9,201.61c11.68,0,23.38,0,35.06,0,4.07,0,8.2,0,12.27,0,2.29-.14,4.81.36,7.01-.35,4.54-1.45,9.39-1.62,14.03-2.65,3-.7,5.81-2.24,8.77-3.1,4.32-1.39,8.78-2.52,13.15-3.73,4.65-1.23,9.31-2.71,14.03-3.68,3.11-.37,6.13,1.1,8.77,2.59,6.05,3.49,11.96,8.46,19.28,8.51,2.02.03,4.11-.63,6.14-.37,1.78.18,3.64.78,5.26,1.52.78.36,1.84.94,2.63,1.27.41,0,1.34,0,1.75,0,9.34,0,18.71,0,28.05,0"/><path class="b" d="M7.9,196.85c17.53,0,35.07,0,52.59,0,1.23.17,2.45-.58,3.51-1.09,1.67-.78,3.51-1.5,5.26-2.07,3.15-1.04,6.48-1.75,9.64-2.76,4.53-1.65,9.32-2.59,14.03-3.55,4.67-.94,9.37-2.04,14.03-3.04,5.66-1.31,7.98-1.41,13.15,1.61,6.28,3.65,12.48,8.94,20.16,8.64,2.32-.1,4.67-.9,7.01-.61,2.09.18,4.23.86,6.14,1.71,1.06.46,2.29,1.33,3.51,1.16,9.05,0,18.12,0,27.17,0"/><path class="b" d="M7.9,192.09c18.11,0,36.24,0,54.35,0,.45,0,1.31,0,1.75,0,.85-.32,1.85-1.02,2.63-1.47,1.65-.96,3.49-1.88,5.26-2.58,5.02-1.98,10.45-2.75,15.78-3.36,4.99-.56,9.98-1.4,14.9-2.38,4.59-.77,9.56-2.18,14.03-.17,10.29,4.68,15.82,10.38,28.05,6.89,3.17-.63,6.54-.47,9.64.43,1.44.41,3.02,1.02,4.38,1.64.41.2,1.34.62,1.75.84.75.21,1.86.16,2.63.16,7,0,14.04,0,21.04,0"/><path class="b" d="M7.9,187.33c18.7,0,37.4,0,56.1,0,.79,0,1.84,0,2.63,0,.84-.32,1.85-1.02,2.63-1.46,2.16-1.22,4.57-2.21,7.01-2.68,2.57-.51,5.29-.35,7.89-.38,3.2,0,6.47-.16,9.64-.6,5.56-.67,11.02-2.57,16.65-2.5,2.4.04,4.81.85,7.01,1.75,3.71,1.53,7.43,3.34,11.4,4.1,6.94,1.56,13.52-1.58,20.16-3.03,3.77-.78,7.77-.51,11.4.77,3.01,1.02,5.9,2.58,8.77,3.94,4.93.27,9.96.02,14.9.1"/><path class="b" d="M7.9,182.57c18.99,0,37.99,0,56.98,0,1.71-.04,3.56.09,5.26-.09,2.16-1.05,4.6-1.77,7.01-1.83,2.62-.02,5.27.68,7.89.8,3.2.24,6.49.03,9.64-.58,6.05-1.02,12.24-4.07,18.41-2.17,2.93.84,5.82,2.08,8.77,2.88,3.97,1.15,8.28,1.24,12.27.1,5.37-1.6,10.53-3.98,15.78-5.93,14.56-5.52,20.37,7.71,34.19,6.81"/><path class="b" d="M7.9,177.81c20.16,0,40.33,0,60.48,0,9.63-.03,19.3.06,28.93-.04,3.45-1.03,6.9-2.46,10.52-2.76,4.3-.44,8.12,2.41,12.27,2.79,14.48-.11,9.69,1.21,22.79-5.06,4.33-1.8,8.4-4.63,13.15-5.19,6.58-.89,12.1,3.54,17.53,6.52,3.26,1.7,6.9,2.72,10.52,3.31"/><path class="b" d="M7.9,173.05c20.16,0,40.33,0,60.48,0,9.34,0,18.71,0,28.05,0,1.5.11,2.99-.84,4.38-1.3,1.96-.76,4.06-1.52,6.14-1.88,4.26-.83,8.25,1.55,12.27,2.56,1.66.57,3.52.69,5.26.61,1.71-.01,3.55.03,5.26-.03,3.72-.78,7.17-2.62,10.52-4.36,2.27-1.17,4.72-2.26,7.01-3.38,17.17-8.69,21.63,8.78,36.82,7.77"/><path class="b" d="M7.9,168.29c19.87,0,39.74,0,59.61,0,7,0,14.04,0,21.04,0,2.3,0,4.71,0,7.01,0,1.1-.02,2.42.06,3.51-.1.43-.21,1.32-.62,1.75-.82,3.78-1.81,8.08-3.58,12.27-2.13,6.78,1.94,13.21,3.58,20.16,1.24,5.37-1.66,10.3-4.69,15.78-6.03,5.8-1.6,11.76.54,16.65,3.66,1.71,1.03,3.53,2.21,5.26,3.21.72.41,1.75,1.12,2.63.97,3.48,0,7.04,0,10.52,0"/><path class="b" d="M7.9,163.53c30.39,0,60.78,0,91.16,0,.78,0,1.86.04,2.63-.12,1.66-.82,3.48-1.66,5.26-2.2,2.55-.9,5.3-.4,7.89.04,2.88.45,5.85.85,8.77.89,4.44.1,8.91-.71,13.15-1.99,3.76-1.06,7.46-2.71,11.4-3.01,4.55-.4,9.08.98,13.15,2.9,1.42.66,2.99,1.47,4.38,2.19.75.4,1.84.96,2.63,1.28.4,0,1.34,0,1.75,0,4.66,0,9.37,0,14.03,0"/><path class="b" d="M7.9,158.77c31.26,0,62.53,0,93.79,0,1.1,0,2.41,0,3.51,0,1.43-.24,2.93-.92,4.38-1.07,3.75-.18,7.52.24,11.4-.15,5-.35,9.99-1.18,14.9-2.13,3.19-.55,6.41-1.43,9.64-1.68,6.75-.26,13.03,2.79,19.28,4.91,6.39.35,12.88.02,19.28.13"/><path class="b" d="M7.9,154.01c33.02,0,66.04,0,99.05,0,2.6,0,5.29,0,7.89,0,1.4-.05,3.01.15,4.38-.19,7.52-1.69,15.06-3.61,22.79-4.06,7.22-.71,14,2.73,21.04,3.75,2.86.57,5.86.52,8.77.5,4.07.04,8.2-.09,12.27,0"/><path class="b" d="M7.9,149.25c34.48,0,68.96,0,103.44,0,1.71,0,3.55,0,5.26,0,1.42-.02,3.04.15,4.38-.41,6.23-2.11,12.66-4.03,19.28-4.13,7.17-.53,13.95,2.57,21.04,2.97,7.6.48,15.18-1.3,22.79-1.01"/><path class="b" d="M7.9,144.49c33.6,0,67.21,0,100.81,0,2.01,0,4.13,0,6.14,0,1.4-.07,3.02.18,4.38-.21,6.31-1.96,12.63-4.37,19.28-4.79,7.11-.72,14.02,1.66,21.04,2.27,4.06.39,8.21.21,12.27-.01,4.08-.09,8.22-.31,12.27-.81"/><path class="b" d="M7.9,139.74c14.31,0,28.64,0,42.95,0,6.71,0,13.45,0,20.16,0,.82.05,1.84-.34,2.63-.53,1.39-.34,2.97-.59,4.38-.77,5.84-.96,11.73.33,17.53,1.04,4.63.55,9.37.15,14.03.26,2.89-.08,5.89.16,8.77-.12,7.62-1.46,14.99-4.45,22.79-4.87,9.11-.2,18.12,1.79,27.17,2.57,2.89.25,5.86.77,8.77.84,2.34-.02,4.76-.48,7.01-1.08"/><path class="b" d="M7.9,134.98c17.23,0,34.48,0,51.72,0,4.07,0,8.2,0,12.27,0,1.75-.28,3.54-.99,5.26-1.41,10.74-3.67,17.28-2.82,28.05-.18,6.58,1.58,13.52,1.63,20.16.4,5.29-.93,10.45-2.72,15.78-3.41,7.01-.6,14.19-.53,21.04,1.24,3.84.89,7.58,2.39,11.4,3.37,2,0,4.13,0,6.14,0,1.41-.04,3.06.2,4.38-.43"/><path class="b" d="M7.9,130.22c21.91,0,43.83,0,65.74,0,3.42-.57,6.53-2.43,9.64-3.87,3.27-1.54,6.87-2.72,10.52-2.67,5.24,0,10.03,2.48,14.9,4.06,6.25,1.54,12.88,2.49,19.28,1.45,4.45-.69,8.74-2.34,13.15-3.25,8.13-1.25,15.03-2.28,22.79,1.37,2.07.82,4.04,2.2,6.14,2.92,4.66,0,9.37,0,14.03,0"/><path class="b" d="M7.9,125.46c21.62,0,43.25,0,64.87,0,3.6.38,6.75-1.84,9.64-3.68,3.45-2.21,7.21-4.47,11.4-4.75,5.4-.42,10.13,2.7,14.9,4.72,1.92.82,4.13,1.14,6.14,1.69,3.98,1.05,8.14,1.9,12.27,1.48,4.85-.4,9.38-2.43,14.03-3.72,5.17-.99,10.48-2.73,15.78-1.79,3.12.55,6.09,1.98,8.77,3.64.78.49,1.87,1.19,2.63,1.71,0,0,.88.6.88.6l.88.1c4.66,0,9.37,0,14.03,0"/><path class="b" d="M7.9,120.7c19.87-.06,39.75.17,59.61-.18,5.68.11,10.21-.85,14.9-4.17,4.37-2.85,9.51-5.65,14.9-4.42,4.09.83,7.64,3.26,11.4,4.94,1.91.88,4.13,1.22,6.14,1.8,4.53,1.29,9.34,2.19,14.03,1.27,3.93-.69,7.65-2.39,11.4-3.69,1.67-.6,3.56-.94,5.26-1.4,2.84-.78,5.8-1.64,8.77-1.72,6.72-.33,12.24,4.06,17.53,7.57h12.27"/><path class="b" d="M7.9,115.94c9.34,0,18.71,0,28.05,0,3.48,0,7.04,0,10.52,0,1.1,0,2.4,0,3.51,0,1.11-.44,2.37-1.07,3.51-1.43,8.2-2.88,17.34.35,25.42-3.04,5.9-2.9,11.71-5.91,18.41-3.6,3.68,1.15,7.01,3.32,10.52,4.88,2.44,1.15,5.25,1.37,7.89,1.78,5.27.83,10.75.37,15.78-1.44,3.52-1.18,6.94-2.84,10.52-3.85,4.04-.9,8.1-2.22,12.27-2.28,5.38-.14,10.39,2.31,14.9,4.99,2.52,1.43,5.09,3.1,7.89,3.93,2.29.16,4.71.03,7.01.07"/><path class="b" d="M7.9,111.18c7.59,0,15.2,0,22.79,0,2.6,0,5.29,0,7.89,0,1.1,0,2.4,0,3.51,0,.46-.2,1.31-.62,1.75-.85,2-1.01,4.05-2.22,6.14-3.05,2.49-.97,5.23-1.47,7.89-1.64,5.53-.36,11.15.38,16.65-.46,4.18-.53,8.02-2.8,12.27-2.94,4.61-.32,9.09,1.38,13.15,3.42,3.11,1.51,6.23,3.35,9.64,4.08,3.75.52,7.67.09,11.4-.46,6.34-1.02,12.3-3.6,18.41-5.45,7.69-2.21,16.07-2.62,23.67.19,7.72,2.7,12.38,5.64,21.04,4.69"/><path class="b" d="M7.9,106.42c7.88,0,15.79,0,23.67,0,1.11,0,2.4,0,3.51,0,1.77-.86,3.56-1.98,5.26-2.97,10.14-6.67,16.85-4.44,28.05-4.66,2.92-.07,5.91-.38,8.77-.96,2.57-.59,5.23-1.38,7.89-1.05,9.24.69,17.31,9.43,26.3,8.67,5.94-.85,11.7-2.78,17.53-4.13,6.03-1.33,12.21-2.67,18.41-2.67,9.22.33,17.92,4.45,27.17,4.51,3.24.02,6.47-.79,9.64-1.35"/><path class="b" d="M7.9,101.66c6.12,0,12.28,0,18.41,0,2.29-.11,4.76.26,7.01-.21,1.43-1,2.98-2.17,4.38-3.2,8.08-6.2,10.35-5.96,20.16-5.22,4.95.39,9.98.44,14.9-.27,3.78-.36,7.59-1.91,11.4-1.12,8.53,1.85,15.47,9.16,24.54,8.81,2.69-.17,5.31-1.23,7.89-1.92,3.13-.91,6.39-1.66,9.64-1.93,4.37-.41,8.79.16,13.15.47,2.9.2,5.91-.2,8.77.49,4.69.97,9.26,2.7,14.03,3.28,4.69.62,9.54.07,14.03-1.4,2.67-.95,5.28-2.33,7.89-3.43"/><path class="b" d="M7.9,96.9h24.54c4.82-3.06,8.96-8.16,14.9-8.94,2.91-.02,5.87.49,8.77.77,4.06.45,8.22.54,12.27.01,13.41-1.92,12.39-4.28,25.42,2.34,5.36,2.67,11.64,4.54,17.53,2.52,3.65-1.22,7.52-2.19,11.4-1.94,5.88.26,11.12,3.28,16.66,4.92,1.95.57,4.13.24,6.14.32,3.48,0,7.04,0,10.52,0,6.42,0,12.87,0,19.28,0,1.25-.29,2.45-1.3,3.51-2,1.72-1.24,3.53-2.65,5.26-3.88"/><path class="b" d="M7.9,92.14c5.24,0,10.53,0,15.78,0,1.71,0,3.55,0,5.26,0,.79,0,1.85.04,2.63-.13.46-.26,1.31-.78,1.75-1.04,4.41-2.55,8.72-6.31,14.03-6.56,5.82.48,11.67,1.76,17.53,1.07,5.35-.44,10.48-2.33,15.78-3.08,6.42-.33,12.2,3.34,18.41,4.42,4.66,1.04,9.49.39,14.03-.93,7.07-1.7,13.74,2.22,19.28,6.2,15.18.15,30.39,0,45.58.05,2.18-1.68,4.13-3.88,6.14-5.75"/><path class="b" d="M7.9,87.38c6.12-.07,12.3.15,18.41-.09,6.75-2.31,12.85-7.17,20.16-7.51,2.65.08,5.3.85,7.89,1.35,3.43.74,7,1.26,10.52,1.12,6.02-.06,11.63-2.65,17.53-3.32,2.91-.19,5.89.22,8.77.61,5.2.76,10.55,1.19,15.78.4,2.61-.3,5.24-1.19,7.89-1.14,6.29.15,11.33,4.61,15.78,8.58,11.1,0,22.21,0,33.31,0,4.95,0,9.95,0,14.9,0,1.11.23,2.08-.69,2.63-1.55.78-.99,1.85-2.35,2.63-3.35"/><path class="b" d="M7.9,82.62c2.89-.08,5.89.18,8.77-.13,10-2.33,19.17-9.22,29.8-8.11,3.3.4,6.48,1.67,9.64,2.61,5.98,2.02,12.38,2.2,18.41.28,3.17-.9,6.34-2.14,9.64-2.48,6.1-.66,12.29-.11,18.41-.58,3.8-.14,7.6-.99,11.4-1.09,4.26.08,8.17,2.29,11.4,4.92,1.81,1.36,3.4,3.29,5.26,4.57,10.8,0,21.63,0,32.43,0,3.78,0,7.62,0,11.4,0,1.4,0,2.98,0,4.38,0,.79,0,1.88.07,2.63-.25.79-1.16,1.85-2.77,2.63-3.94"/><path class="b" d="M7.9,77.82c3.24-.92,6.54-1.96,9.64-3.29,3.22-1.41,6.38-3.13,9.64-4.44,8.69-3.81,17.77-2.4,26.3,1.1,5.49,2.35,11.6,4.04,17.53,2.45,3.6-.81,7-2.48,10.52-3.55,6.84-1.9,14.04-1.02,21.04-.86,3.78.2,7.62-.12,11.4-.13,6.56.15,12.08,4.33,16.65,8.66,9.04.26,18.13.01,27.17.09,4.95,0,9.95,0,14.9,0,2.89-.08,5.89.18,8.77-.13.79-1.21,1.85-2.87,2.63-4.08"/><path class="b" d="M7.9,70c5.03-1.23,9.57-3.79,14.03-6.34,4.75-2.68,10.39-4.17,15.78-2.72,3.29.77,6.44,2.25,9.64,3.3,3.57,1.01,6.97,2.75,10.52,3.83,13.61,4.23,18.76-5.94,30.68-5.34,6.56.26,12.8,2.73,19.28,3.51,2.59.35,5.29.13,7.89.28,4.74.19,9.31,2.05,13.15,4.79,1.05.63,2.16,2,3.51,1.78,2.3,0,4.71,0,7.01,0,13.73-.03,27.47.07,41.2-.04,1.1-1.57,2.4-3.46,3.51-5.03"/><path class="b" d="M7.9,61.84c2.68-.91,5.41-1.99,7.89-3.36,3.58-2.06,7.25-4.39,11.4-5.05,6.09-1.07,11.57,2.44,16.65,5.28,2.44,1.43,5.25,2.2,7.89,3.16,9.45,3.69,15.16,2.16,23.67-2.72,10.77-6.79,17.86-1.14,28.05,3.09,7.11,3.22,11.41,1.15,18.41,2.37,2.09.39,4.23,1.14,6.14,2.09,1.39.63,2.76,1.89,4.38,1.66,15.48,0,30.98,0,46.46,0,1.86-1.91,3.49-4.31,5.26-6.3"/><path class="b" d="M7.9,53.43c10.41-3.96,15.94-9.84,27.17-3.37,5.76,3.3,9.76,7.3,16.65,8.25,7.43,1.69,13.89-.87,20.16-4.68,3.29-1.83,6.67-4.13,10.52-4.43,9.28-.19,16.24,8.06,24.54,11.12,3.03,1.28,6.42,1.08,9.64,1.13,3.25.04,6.59.5,9.64,1.67,1.01.55,2.39.47,3.51.46,1.09,0,2.41,0,3.51,0,3.78,0,7.62,0,11.4,0,10.8,0,21.63,0,32.43,0,2.36-2.31,4.58-4.96,7.01-7.19"/><path class="b" d="M7.9,45.08c11.59-4.95,15.51-5.01,26.3,1.74,5.62,3.52,11.38,7.86,18.41,6.48,6-.91,11.33-4.1,16.65-6.8,5.05-2.63,11.05-5.21,16.65-2.74,9.14,3.57,15.66,12.36,25.42,14.52,3.45.67,7.03.53,10.52.53,4.36,0,8.78,0,13.15,0,13.43,0,26.89,0,40.32,0,2.94-2.28,5.7-4.97,8.77-7.08"/><path class="b" d="M7.9,37.78c3.56-1.32,7.61-2.47,11.4-1.47,9.13,3.05,16.08,12.06,26.3,11.94,4.88.1,9.11-2.73,13.15-5.12,4.57-2.75,9.48-5.47,14.9-5.87,6.38-.63,12.38,2.17,17.53,5.67,3.81,2.49,7.52,5.26,11.4,7.66,2.21,1.28,4.52,2.81,7.01,3.47,4.66,0,9.37,0,14.03,0,8.46,0,16.96,0,25.42,0,8.46,0,16.96,0,25.42,0,1.22-.32,2.43-1.26,3.51-1.89,1.97-1.24,4.07-2.55,6.14-3.61"/><path class="b" d="M7.9,31.95c3.69-1.18,8-1.37,11.4.73,7.05,4.4,13.53,12.76,22.79,10.72,2.7-.59,5.45-1.54,7.89-2.83,6.1-3.63,11.56-10.14,19.28-9.56,3.08.23,6.02,1.56,8.77,2.89,2.95,1.37,5.94,2.88,8.77,4.49,6.89,3.82,13.72,7.96,21.04,10.92,5.83,0,11.7,0,17.53,0,7.88,0,15.79,0,23.67,0,6.71,0,13.45,0,20.16,0,2.89,0,5.87.01,8.77,0,2-.82,4.12-1.73,6.14-2.52"/><path class="b" d="M7.9,27.45c3.21-.77,6.79-.5,9.64,1.25,6.7,4.34,12.72,14.33,21.91,10.87,2.15-.78,4.21-2.08,6.14-3.31,2.06-1.29,4.3-2.56,6.14-4.18,3.65-2.96,7.36-6.75,12.27-7.21,6.46-.33,10.87,5.36,15.78,8.67,5.86,4.07,12.46,7.01,19.28,9.04,1.4.44,2.98.92,4.38,1.37.77.24,1.8.69,2.63.6,7.88,0,15.79,0,23.67,0,18.11,0,36.24,0,54.35,0"/><path class="b" d="M7.9,23.63c3.28-.69,6.87-.14,9.64,1.8,6.22,4.42,12.24,14.29,21.04,10.37,2.54-1.11,4.82-2.91,7.01-4.57,2.01-1.49,4.26-2.9,6.14-4.56,3.09-2.53,6.37-5.56,10.52-5.99,5.5-.36,9.55,4.27,13.15,7.79,4.09,4.38,9.21,7.88,14.9,9.82,2.53.83,5.2,1.69,7.89,1.5,8.17,0,16.37,0,24.54,0,20.45,0,40.91,0,61.36,0"/><path class="b" d="M7.9,20.97c7.35-1.02,11.29,2.83,16.65,6.94,6.46,4.94,11.68,5.15,18.41.61,3.46-2.32,7.17-4.4,10.52-6.88,5.7-4.13,10.84-5.11,16.66-.56,3.12,2.35,5.79,5.38,8.77,7.9,3.32,2.74,7.26,4.81,11.4,6.01,4.07.09,8.2,0,12.27.04,9.05,0,18.12,0,27.17,0,18.11,0,36.24,0,54.35,0"/><path class="b" d="M7.9,18.98c5.29-.13,10.21,1.4,14.9,3.72,4.6,2.17,9.86,3.54,14.9,2.18,3.33-.8,6.47-2.39,9.64-3.63,3.3-1.12,6.36-3.01,9.64-4.17,7.55-2.94,13.6,1.12,19.28,5.75,4.58,3.93,9.82,6.43,15.78,7.41,3.19.05,6.45,0,9.64.02,8.46,0,16.96,0,25.42,0,2.89-.02,5.87.05,8.77-.04,2.2-.81,4.68-1.35,7.01-.9,1.12.2,2.38.79,3.51.94.77,0,1.86,0,2.63,0,3.19,0,6.45,0,9.64,0,8.46,0,16.96,0,25.42,0"/><path class="b" d="M7.9,16.54c10.47,1,21.06,2.1,31.56.93,3.78-.44,7.64-.74,11.4-1.36,4.59-.91,9.31-2.1,14.03-1.43,3.71.48,7.27,1.99,10.52,3.79,2.6,1.38,5.08,3.22,7.89,4.18,5.36,1.83,11.16,1.62,16.66,2.83,8.75.11,17.54,0,26.3.04,1.7,0,3.55,0,5.26,0,.41,0,1.33,0,1.75,0,.43-.22,1.34-.71,1.75-.96,6.21-3.66,9.93-3.07,15.78.93,11.1.07,22.21,0,33.31.03"/><path class="b" d="M7.9,12.93c7.94,1.33,12.72-1.04,20.16-2.52,3.44-.65,7.05-.74,10.52-.28,3.51.43,7.01,1.37,10.52,1.78,4.64.55,9.37.54,14.03.91,4.14.32,8.34,1.01,12.27,2.37,2.08.66,4.1,1.79,6.14,2.55,1.36.45,2.95.72,4.38.82,4.07.26,8.22-.16,12.27.43,1.42.2,3,.54,4.38.95,1.09.31,2.35.93,3.51.81,9.05-.03,18.13.06,27.17-.03,8.04-5.61,11.34-6.25,19.28.02,10.51.04,21.05,0,31.56.01"/></svg>