<?xml version="1.0" encoding="UTF-8"?><svg id="a" xmlns="http://www.w3.org/2000/svg" width="1920" height="2400" viewBox="0 0 192 240"><defs><style>.b{fill:none;stroke:#fff;stroke-miterlimit:10;stroke-width:.4px;}.c{stroke-width:0px;}</style></defs><rect class="c" x="0" width="192" height="240"/><path class="b" d="M10.06,222.2c4.5-1.01,9.2-1.03,13.68-2.13,10.82-2.73,16.09,1.2,24.8,6.69,1.99,1.11,4.03,2.39,5.99,3.54,1.34.66,2.74,1.85,4.28,1.93,8.26,0,16.54,0,24.8,0,19.66,0,39.34,0,59,0,1.66-.07,3.5.17,5.13-.17,3.47-1.71,7.15-3.59,11.12-3.46,3.47,0,6.53,1.91,9.41,3.63,4.54,0,9.14,0,13.68,0"/><path class="b" d="M10.06,214.8c3.86-1.33,7.94-1.94,11.97-2.51,5.7-1.1,11.24-.4,16.25,2.62,2.94,1.66,5.71,3.78,8.55,5.6,4.02,2.24,7.98,4.73,11.97,7.03,5.68.11,11.42,0,17.1.04,19.66,0,39.34,0,59,0,1.71.15,3.47-.4,5.13-.75,3-.42,5.89-1.53,8.55-2.94,9.28-5,15.01-4.28,23.09,2.5.3.36,1.29.97,1.71,1.19.75,0,1.82,0,2.57,0,1.95,0,4.03,0,5.99,0"/><path class="b" d="M10.06,209.81c5.46-2.73,11.8-4.53,17.96-4.12,4.71.4,8.97,2.8,12.83,5.36,3.23,2.23,6.59,4.37,10.26,5.81,3.23,1.62,6.28,3.73,9.41,5.53.94.75,2.3.53,3.42.56,1.67,0,3.46,0,5.13,0,4.83,0,9.71,0,14.54,0,11.97,0,23.95,0,35.92,0,4.54,0,9.14,0,13.68,0,1.69-.51,3.44-1.3,5.13-1.79,1.62-.55,3.47-.8,5.13-1.19,3.26-.94,6.27-2.73,9.41-3.99,6.84-3.02,12.82-1.73,18.81,2.47,1.11.74,2.41,1.68,3.42,2.56.71.61,1.66,1.61,2.57,1.95,1.36,0,2.91,0,4.28,0"/><path class="b" d="M10.06,206.45c2.21-1.34,4.46-2.84,6.84-3.87,2.7-1.04,5.65-1.72,8.55-1.84,5.63-.24,10.75,2.57,15.39,5.44,2.18,1.32,4.45,2.74,6.84,3.65,1.67.56,3.53.95,5.13,1.69,4.13,1.81,7.96,4.34,11.97,6.39.98.61,2.33.32,3.42.38,1.37,0,2.9,0,4.28,0,4.26,0,8.57,0,12.83,0,11.68,0,23.38,0,35.06,0,4.26,0,8.57,0,12.83,0,3.07-1.1,6.1-2.67,9.41-2.98,3.25-.57,6.32-2.03,9.41-3.14,7.27-2.88,13.64-2.47,20.52,1.28,2.18,1.09,4.18,2.76,5.99,4.37.91.73,2.34.4,3.42.47"/><path class="b" d="M10.06,203.71c2.22-1.61,4.43-3.45,6.84-4.78,6.6-3.37,13.32-2.63,19.67.86,3.39,1.71,6.63,3.93,10.26,5.12,1.34.45,2.9.52,4.28.75,2.01.36,4.08,1,5.99,1.71,5.44,1.95,10.58,5.01,16.25,6.28,2.25,0,4.59,0,6.84,0,1.96-.01,4.03.03,5.99-.03,4.44-1.22,9.03-2.52,13.68-2.15,3.22.18,6.36,1.21,9.41,2.17,3.68,0,7.43,0,11.12,0,3.11,0,6.3,0,9.41,0,1.66-.04,3.48.11,5.13-.1.75-.3,1.8-.7,2.57-.97,2.99-1.18,6.32-1.18,9.41-1.97,7.11-1.81,14.15-3.08,21.38-.99,2.61.74,5.4,1.46,7.7,2.97.36.29,1.3.83,1.71,1.06,1.36,0,2.91,0,4.28,0"/><path class="b" d="M10.06,200.27c2.23-1.78,4.41-3.83,6.84-5.35,5.34-3.21,11.75-2.66,17.1.2,4.55,2.16,8.66,5.63,13.68,6.64,2.24.24,4.6.06,6.84.35,3.44.33,6.9,1.04,10.26,1.83,5.85,1.29,11.92,3.27,17.96,2.23,3.16-.61,6.25-1.77,9.41-2.4,7.78-1.84,14.49,1.31,21.38,4.5.73.33,1.73.88,2.57.74,1.37,0,2.91,0,4.28,0,3.4,0,6.86,0,10.26,0,1.96,0,4.03,0,5.99,0,1.37-.31,2.88-.83,4.28-1.04,3.95-.43,7.99-.72,11.97-.65,4.32,0,8.6.96,12.83,1.69,5.4,0,10.85,0,16.25,0"/><path class="b" d="M10.06,194.71c3.17-2.53,6.17-5.81,10.26-6.78,9.17-2.14,15.89,6.17,23.09,10.31,1.55.88,3.34,1.67,5.13,1.8,2.83,0,5.73-.27,8.55-.35,5.69-.26,11.42,0,17.1.29,2.82.09,5.75.3,8.55-.17,8.92-1.93,14.1-3.88,23.09,0,3.45,1.39,6.8,3.23,10.26,4.57,3.4,0,6.86,0,10.26,0,3.97,0,8,0,11.97,0,.77.07,1.81-.22,2.57-.33,1.36-.18,2.91-.21,4.28-.18,1.67.04,3.48.22,5.13.5,3.11.03,6.3,0,9.41.01,7.4,0,14.83,0,22.23,0"/><path class="b" d="M10.06,188.65c2.73-1.73,5.4-3.9,8.55-4.82,8.59-2,15.1,5.79,21.38,10.36,2.51,1.87,5.33,3.87,8.55,4.08,3.74-.06,7.46-1.02,11.12-1.74,3.93-.82,7.96-1.47,11.97-1.66,3.4-.2,6.86-.02,10.26-.04,10-.6,15.34-.37,24.8,3.46,1.36.47,2.84,1.2,4.28,1.43,1.07,0,2.35,0,3.42,0,3.4,0,6.86,0,10.26,0,19.09,0,38.2,0,57.29,0"/><path class="b" d="M10.06,183.03c3.02-1.09,6.13-2.57,9.41-2.58,7.67.48,13.6,7.51,19.67,11.6,1.58,1.11,3.34,2.22,5.13,2.96,1.07.11,2.34.05,3.42.06,1.96-.04,4.04.1,5.99-.09.77-.22,1.8-.54,2.57-.79,4.18-1.38,8.43-2.85,12.83-3.34,7.48-.76,15.1.45,22.23,2.7,1.68.45,3.41,1.26,5.13,1.52,1.67,0,3.47,0,5.13,0,4.26,0,8.57,0,12.83,0,22.51,0,45.04,0,67.55,0"/><path class="b" d="M10.06,177.8c3.09-.36,6.33-.75,9.41-.11,3.16.8,5.96,2.77,8.55,4.68,3.65,2.73,7.16,5.79,11.12,8.08,5.97,0,11.98,0,17.96,0,8.63-3.06,13.27-3.54,22.23-1.32,1.41.27,2.95.74,4.28,1.3,3.68.05,7.43,0,11.12.02,7.4,0,14.83,0,22.23,0,21.66,0,43.33,0,64.99,0"/><path class="b" d="M10.06,172.71c12.27-.07,15.69,6.92,24.8,13.09,8.54,0,17.11,0,25.65,0,2.54-.08,5.14-.73,7.7-.34,2.23.43,4.58.35,6.84.34,2.82,0,5.73,0,8.55,0,8.26,0,16.54,0,24.8,0,24.51,0,49.03,0,73.54,0"/><path class="b" d="M10.06,167.33c9.44-.17,14.18,6.16,20.52,11.91.75.63,1.63,1.58,2.57,1.91,1.67,0,3.46,0,5.13,0,17.38,0,34.78,0,52.16,0,30.5,0,61,0,91.5,0"/><path class="b" d="M10.06,161.07c4.73-.97,9.55,1.05,12.83,4.46,3.59,3.45,6.69,7.51,10.26,10.98h148.79"/><path class="b" d="M10.06,154.35c8.94-3.14,14.14,5.22,18.81,11.33,1.06,1.43,2.33,3.14,3.42,4.55.31.49,1.15,1.43,1.71,1.65h147.94"/><path class="b" d="M10.06,148.54c6.96-2.39,11.49,1.49,15.39,6.83,1.75,2.31,3.51,4.92,5.13,7.32,1.05,1.42,2.04,3.4,3.42,4.53h147.94"/><path class="b" d="M10.06,144.33c3.8-.6,8.1.11,11.12,2.61,4.88,4.3,8.2,10.13,11.97,15.35,1.29.55,2.9.21,4.28.3,2.25,0,4.59,0,6.84,0,6.26,0,12.55,0,18.81,0,18.24,0,36.49,0,54.73,0,13.11,0,26.23,0,39.34,0,4.54,0,9.14,0,13.68,0,3.66-.58,7.41-1.08,11.12-1.24"/><path class="b" d="M10.06,141.57c3.5.61,7.13,1.56,10.26,3.27,4.89,3.33,8.28,8.46,11.97,12.99,7.38.32,14.84.02,22.23.12,13.68,0,27.37,0,41.05,0,7.97,0,15.97,0,23.94,0,1.51.18,2.9-.85,4.28-1.28,2.16-.76,4.57-1.03,6.84-.75,2.62.31,5.19,1.25,7.7,2.02,5.12.01,10.28,0,15.39,0,5.69,0,11.42,0,17.1,0,3.69-.48,7.42-1.17,11.12-1.55"/><path class="b" d="M10.06,139.35c3.1,1.44,6.24,3.01,9.41,4.31,4.39,2.29,7.59,6.28,11.12,9.64,16.24,0,32.5,0,48.74,0,7.4,0,14.83,0,22.23,0,5.69,0,11.42,0,17.1,0,2.34-1.33,4.35-3.45,6.84-4.6,4.66-2.59,9.66-1.79,14.54-.32,2.33.49,4.73,1.14,6.84,2.29,1.07.54,2.35,1.21,3.42,1.75.72.36,1.72.97,2.57.89,6.26,0,12.55,0,18.81,0,3.48.16,6.82-.32,10.26-.57"/><path class="b" d="M10.06,137.26c3.26,2.12,6.73,3.99,10.26,5.6,2.76,1.55,5.3,3.65,7.7,5.71,19.37.25,38.77,0,58.15.09,6.83,0,13.69,0,20.52,0,2.25,0,4.59,0,6.84,0,1.07,0,2.35,0,3.42,0,.56-.08,1.36-.72,1.71-1.15,6.4-6.34,11.92-10.84,21.38-7.91,5.27.93,9.29,4.72,13.68,7.48,1.27.81,2.69,1.83,4.28,1.57,2.25,0,4.6,0,6.84,0,5.69,0,11.42,0,17.1,0"/><path class="b" d="M10.06,135.47c3.22,2.14,6.66,4.02,10.26,5.42,2.05.85,3.95,2.27,5.99,3.12,7.4,0,14.83,0,22.23,0,15.67,0,31.36,0,47.03,0,4.54,0,9.14,0,13.68,0,1.37,0,2.91,0,4.28,0,.41,0,1.29,0,1.71,0,.53-.11,1.35-.72,1.71-1.11,8.62-8.1,14.14-13.32,26.51-8.7,5.08,2.41,8.99,6.73,13.68,9.76,8.25.15,16.54,0,24.8.05"/><path class="b" d="M10.06,133.13c3.5,2,7.28,3.58,11.12,4.8,1.4.41,2.82,1.3,4.28,1.44,6.26,0,12.55,0,18.81,0,8.83,0,17.68,0,26.51,0,9.11,0,18.25,0,27.36,0,2.82,0,5.73,0,8.55,0,1.37,0,2.91,0,4.28,0,.8-.34,1.83-.92,2.57-1.39,9.31-6.38,15.01-13.02,27.36-9.47,3.92.76,7.19,3.34,10.26,5.74,2.24,1.68,4.4,3.75,6.84,5.12,1.66,0,3.47,0,5.13,0,6.26,0,12.55,0,18.81,0"/><path class="b" d="M10.06,129.88c3.86,1.54,7.92,2.7,11.97,3.63,1.69.29,3.41,1.24,5.13,1.22,8.54,0,17.11,0,25.65,0,7.69,0,15.4,0,23.09,0,6.83,0,13.69,0,20.52,0,1.72-.14,3.44-1.07,5.13-1.43,2.54-.71,5.2-1.34,7.7-2.21,3.87-1.36,7.4-3.64,11.12-5.34,7.41-3.63,13.6-3.23,21.38-1.19,4.47,1,8.25,3.9,11.97,6.42,6.43,4.38,4.15,3.77,11.97,3.76,5.4,0,10.85,0,16.25,0"/><path class="b" d="M10.06,125.84c4.78,1.2,9.71,1.92,14.54,2.87.78.18,1.81.47,2.57.73.78.26,1.72.78,2.57.65,8.26,0,16.54,0,24.8,0,9.68,0,19.39,0,29.07,0,3.11,0,6.3,0,9.41,0,1.75-.78,3.39-2.11,5.13-2.94,5.17-2.71,10.89-4.22,16.25-6.5,8.95-3.65,15.61-3.33,24.8-.9,1.96.47,4.09.78,5.99,1.47,3.57,1.26,6.95,3.16,10.26,4.96,1.65.9,3.45,1.88,5.13,2.73.73.38,1.78.91,2.57,1.18.4,0,1.31,0,1.71,0,5.69,0,11.42,0,17.1,0"/><path class="b" d="M10.06,121.54c4.78,1.07,9.7,1.64,14.54,2.38,1.73.28,3.48.98,5.13,1.52,1.96,0,4.03,0,5.99,0,19.38,0,38.77,0,58.15,0,4.9-3.75,10.44-6.58,16.25-8.64,4.39-1.75,8.93-3.46,13.68-3.86,4.89-.48,9.79.53,14.54,1.6,4.05.77,8.17,1.53,11.97,3.19,6.53,2.58,12.86,5.9,19.67,7.72,3.97,0,8,0,11.97,0"/><path class="b" d="M10.06,116.07c5.06,1.34,10.23,2.36,15.39,3.19,1.1.23,2.37.58,3.42.95.76.3,1.73.71,2.57.59,9.68,0,19.39,0,29.07,0,7.69,0,15.4,0,23.09,0,2.54,0,5.16,0,7.7,0,2.92.11,2.85.04,5.13-1.74,4.18-3.08,8.91-5.42,13.68-7.43,5.6-2.57,11.71-4.7,17.96-3.88,3.77.4,7.45,1.61,11.12,2.53,4.58.89,9.21,1.8,13.68,3.16,5.36,1.52,10.81,2.85,16.25,4.06,1.96.42,4,1.02,5.99,1.32,2.23.31,4.59.38,6.84.52"/><path class="b" d="M10.06,109.39c3.44.97,6.87,2.17,10.26,3.27,2.23.61,4.61,1.05,6.84,1.66,1.71.46,3.51,1.11,5.13,1.83,1.67,0,3.47,0,5.13,0,18.52,0,37.06,0,55.58,0,4.77-3.57,10.04-6.46,15.39-9.05,4.81-2.45,9.83-5.26,15.39-5.08,5.14.07,9.83,2.5,14.54,4.26,2.16.85,4.57,1.18,6.84,1.59,7.6,1.58,15.37,2.06,23.09,2.64,2.27.18,4.59.71,6.84,1.06,2.24.31,4.6.47,6.84.73"/><path class="b" d="M10.06,102.23c3.87,1.05,7.46,2.96,11.12,4.55,2.78,1.07,5.74,1.88,8.55,2.87,1.7.51,3.4,1.49,5.13,1.86,5.69,0,11.41,0,17.1,0,6.83,0,13.69,0,20.52,0,5.97,0,11.98,0,17.96,0,.9.03,1.82-.72,2.57-1.12,1.64-.93,3.44-1.88,5.13-2.72,4.89-2.39,9.93-4.64,14.54-7.56,6.29-3.86,12.13-4.54,18.81-1.1,2.85,1.36,5.6,3.14,8.55,4.27,7.73,2.25,15.91,2.91,23.94,2.5,3.11-.1,6.32-.19,9.41.31,2.81.37,5.73.41,8.55.63"/><path class="b" d="M10.06,95.25c3.69.93,7.04,2.85,10.26,4.81,2.45,1.33,5.11,2.43,7.7,3.46,1.96.78,4.03,1.59,5.99,2.38.77.31,1.76.76,2.57.97.77,0,1.8,0,2.57,0,9.4,0,18.82,0,28.22,0,6.83,0,13.69,0,20.52,0,5.52-2.48,11.53-3.74,17.1-6.07,3.71-1.46,6.89-4.02,10.26-6.08,6.74-4.18,12.41-2.98,18.81,1.1,1.92,1.16,3.93,2.46,5.99,3.37,1.88.79,4.03,1.14,5.99,1.7,4.45,1.17,9.06,2.04,13.68,2.12,3.4.09,6.86-.2,10.26-.23,1.66-.03,3.47.16,5.13.17,2.25,0,4.6-.17,6.84-.26"/><path class="b" d="M10.06,89.07c5.44,1.04,9.65,4.86,14.54,7.18,3.05,1.52,6.26,2.91,9.41,4.22,1.94.69,3.86,2,5.99,1.76,10.54,0,21.1,0,31.64,0,3.97,0,8,0,11.97,0,3.25-1.38,6.74-2.26,10.26-2.61,5.59-.59,11.49-1.22,16.25-4.5,2.53-1.77,4.99-3.84,7.7-5.35,7.41-4.35,13.15-1.04,19.67,2.98,2.59,1.68,5.69,2.36,8.55,3.39,3.64,1.32,7.32,2.75,11.12,3.55,4.19.93,8.56.99,12.83.81,4.01.02,8.04-.49,11.97-1.27"/><path class="b" d="M10.06,84.08c4.03.72,7.62,2.78,11.12,4.8,3.33,1.78,6.81,3.4,10.26,4.93,2.8,1.23,5.69,2.46,8.55,3.54,1.33.43,2.9.16,4.28.23,9.4,0,18.82,0,28.22,0,2.25,0,4.59,0,6.84,0,1.23.18,2.37-.79,3.42-1.26,1.59-.75,3.4-1.3,5.13-1.6,7.08-1.18,14.85.83,21.38-2.92,3.81-2.26,7.08-5.5,11.12-7.39,6.45-3.28,12.08-.65,17.96,2.38,1.86.98,4.03,1.53,5.99,2.26,2.01.8,4.05,1.83,5.99,2.79,11.67,6.18,19.09,6.24,31.64,2.77"/><path class="b" d="M10.06,79.83c9.02,2.68,17.05,7.87,25.65,11.58,1.06.47,2.34,1.01,3.42,1.44,1.07.15,2.35.07,3.42.09,2.82,0,5.73,0,8.55,0,8.26,0,16.54,0,24.8,0,8.22-5.87,13.15-6.73,23.09-5.95,4.03.25,8.34.21,11.97-1.78,4.16-2.3,8.2-5.1,12.83-6.38,6.61-2.02,13.28.7,19.67,2.29,8.48,3.18,15.22,11.22,24.8,11.21,4.78,0,9.13-2.45,13.68-3.59"/><path class="b" d="M10.06,76.46c5.7,2.29,11.6,4.2,17.1,6.96,3.64,1.72,7.3,3.58,11.12,4.87,1.67,0,3.46,0,5.13,0,5.97,0,11.98,0,17.96,0,2.82,0,5.73,0,8.55,0,1.8-.63,3.5-1.87,5.13-2.85,6.09-4,13.03-7.63,20.52-7.28,3.71.09,7.41,1,11.12,1.13,3.84.16,7.44-1.62,11.12-2.46,5.84-1.57,11.9-2.61,17.96-2.57,2.83.09,5.83.02,8.55.87,4.44,1.64,8.08,4.91,11.97,7.52,4.4,3.07,9.97,5.97,15.39,3.98,3.46-1.38,6.68-3.51,10.26-4.59"/><path class="b" d="M10.06,74.02c2.22.92,4.53,1.9,6.84,2.56,2.27.55,4.64,1.12,6.84,1.93,5.33,1.87,10.61,4.19,16.25,4.97,2.23.28,4.6.21,6.84.11,1.68-.19,3.44-.68,5.13-.77,3.97-.23,8.04.13,11.97-.63,7.11-1.34,13.18-5.63,19.67-8.59,4.94-2.73,10.57-4.69,16.25-3.39,2.86.54,5.69,1.59,8.55,2.11,1.65.33,3.46.15,5.13.25,4.82.34,9.69,1.13,14.54.62,12.62-1.28,14.04-5.12,25.65,3.29,5.36,3.75,12.42,8.28,18.81,4.18,3.05-1.95,6.01-4.28,9.41-5.61"/><path class="b" d="M10.06,72.29c2.21.79,4.52,1.64,6.84,2.07,1.96.28,4.04.46,5.99.86,5.34,1.02,10.78,2.2,16.25,1.8,4.1-.17,8.04-1.5,11.97-2.54,2.79-.52,5.73-.35,8.55-.28,8.08.48,15.04-1.7,22.23-5.18,5.03-2.77,10.17-6.74,16.25-5.91,3.61.42,6.91,2.2,10.26,3.48,1.91.75,4.11.97,5.99,1.82,4.65,2.01,9.31,4.75,14.54,4.6,2.9-.03,5.79-.85,8.55-1.67,2.46-.72,5.13-1.45,7.7-.89,8.31,1.77,15.85,10.51,24.8,6.62,4.36-2.17,7.52-6.31,11.97-8.38"/><path class="b" d="M10.06,70.82c2.23.47,4.56,1.03,6.84,1.22,2.25.1,4.59.08,6.84.17,7.31.37,14.61-.98,21.38-3.72,1.96-.69,3.95-1.67,5.99-2.11,6.07-.98,11.93,1.97,17.96,2.13,15.53.86,19.06-11.71,30.78-9.08,3.01.74,5.77,2.37,8.55,3.7,2.26,1.02,4.8,1.65,6.84,3.12,4.68,3.06,9.48,7.07,15.39,6.82,2.62-.08,5.22-.92,7.7-1.7,6.57-2.59,11.81.29,17.96,2.42,2.41.99,5.16.47,7.7.59,1.66-.12,3.6.35,5.13-.41,4.89-2.4,8.12-7.22,12.83-9.9"/><path class="b" d="M10.06,69.03c7.16-.12,14.4-.47,21.38-2.18,4.98-1.2,9.78-3.16,14.54-5.02,5.03-2.2,7.75-2.16,12.83-.12,9.71,4.24,16.85,7.36,26.51.74,9.85-6.49,13.56-5.79,23.94-1.18,5.6,1.26,9.63,5.63,14.54,8.29,1.92.37,4.03.09,5.99.17,4.83-.05,9.72.14,14.54-.16,3.39.24,6.86.16,10.26.16,3.68,0,7.43,0,11.12,0,1.37,0,2.91,0,4.28,0,.8.02,1.9.11,2.57-.47,3.14-2.47,6.01-5.45,9.41-7.58"/><path class="b" d="M10.06,65.08c2.82-.12,5.79.33,8.55-.36,7.27-1.55,14.28-4.16,21.38-6.31,2.52-.76,5.14-1.51,7.7-2.12,2.51-.79,5.25-.68,7.7.27,6.53,2.46,12.43,7.26,19.67,7.41,12.41.06,15.53-10.92,31.64-6.99,1.94.49,4.06.65,5.99,1.18,1.48.52,2.99,1.43,4.28,2.31,2.29,1.43,4.35,3.56,6.84,4.61,1.07,0,2.35,0,3.42,0,8.83,0,17.68,0,26.51,0,6.54,0,13.12,0,19.67,0,1.29,0,2.36-1.26,3.42-1.86,1.61-1.12,3.4-2.31,5.13-3.24"/><path class="b" d="M10.06,60.44c3.69,0,7.43,0,11.12,0,6.37-2.71,12.73-5.81,19.67-6.73,3.09-.43,6.29-.66,9.41-.73,3.62.19,6.99,1.88,10.26,3.3,3.55,1.59,7.25,3.11,11.12,3.69,8.16,1.2,13.19-1.03,20.52-3.85,4.91-1.86,10.15-2.79,15.39-2.94,1.66-.02,3.47-.31,5.13-.1,4.91,1.07,8.51,5.05,12.83,7.36,7.97,0,15.97,0,23.94,0,6.26,0,12.55,0,18.81,0,1.66,0,3.47,0,5.13,0,1.07-.04,2.39.13,3.42-.21,1.65-.74,3.45-1.55,5.13-2.23"/><path class="b" d="M10.06,55.8c3.11,0,6.29,0,9.41,0,1.95-.11,4.09.26,5.99-.22,2.7-1.57,5.56-3.08,8.55-3.98,4.14-1.32,8.58-1.14,12.83-.53,4.68.34,9.16,1.86,13.68,2.99,3.89.95,7.97,1.3,11.97,1.09,3.11-.18,6.29-.39,9.41-.37,3.14-.11,6.33-.6,9.41-1.25,4.59-.97,9.16-2.28,13.68-3.52,2.81-.62,5.64-1.93,8.55-1.84,6.01.87,10.62,5.56,16.25,7.54,2.81.2,5.73.03,8.55.08,1.37,0,2.91.03,4.28-.03,1.36-.46,2.9-.99,4.28-1.41,3.01-.92,6.26-1.41,9.41-1.06,2,.21,4.07.72,5.99,1.32,1.37.36,2.85,1.13,4.28,1.18,2.82,0,5.73,0,8.55,0,2.28.02,4.66.16,6.84-.65"/><path class="b" d="M10.06,51.15c6.26,0,12.55,0,18.81,0,1.49-.14,2.84-1.35,4.28-1.78,2.41-.95,5.11-1.38,7.7-1.17,4.35.39,8.54,1.99,12.83,2.77,2.22.39,4.6.1,6.84.18,1.67,0,3.46,0,5.13,0,3.72-.63,7.37-1.91,11.12-2.39,4.28-.44,8.55.91,12.83.99,5.54.35,11.1-.8,16.25-2.81,4.82-1.81,7.42-3.85,12.83-2.22,6.12,1.8,12.24,5.14,18.81,3.89,5.05-.84,9.39-4.21,14.54-4.69,4.24-.51,8.37,1.23,11.97,3.32,2.73,1.43,5.43,3.52,8.55,3.92,3.1-.1,6.33.21,9.41-.15"/><path class="b" d="M10.06,46.51c7.69,0,15.4,0,23.09,0,1.15.13,2.35-.35,3.42-.68,1.06-.28,2.33-.47,3.42-.51,2.61-.15,5.18.69,7.7,1.19,2.82,0,5.73,0,8.55,0,3.69,0,7.43,0,11.12,0,2.57-.75,5.09-1.92,7.7-2.56,4.6-1.4,9.23.59,13.68,1.67,1.36.34,2.89.7,4.28.89,1.67,0,3.47,0,5.13,0,5.2.45,9.9-2.2,14.54-4.14,2.73-.9,5.72-.83,8.55-.6,6.4.7,12.85.79,18.81-2,2.57-1.12,5.06-2.63,7.7-3.6,10.21-3.99,15.86,4.59,23.94,8.59,3.23,1.22,6.89,1.41,10.26.73"/><path class="b" d="M10.06,41.87c8.26,0,16.54,0,24.8,0,1.13.11,2.35-.4,3.42-.65,1.06-.24,2.33-.37,3.42-.36,1.39.02,2.92.25,4.28.56.78.17,1.76.54,2.57.45,6.54,0,13.12,0,19.67,0,1.42.08,2.91-.62,4.28-.91,3.68-1.08,7.52-1.2,11.12.27,1.84.95,3.99.59,5.99.64,3.4,0,6.86,0,10.26,0,3.68-.02,7.43.05,11.12-.03,2.38-1.34,5.07-2.27,7.7-2.97,3.97-1.05,8.07-1.86,11.97-3.17,4.14-1.35,8.14-3.25,11.97-5.31,12.34-6.95,17.43-.24,27.36,6.21,3.56,2.05,7.96,2.47,11.97,1.92"/><path class="b" d="M10.06,37.23c7.97,0,15.97,0,23.94,0,1.14,0,2.31-.76,3.42-.99,1.35-.35,2.88-.53,4.28-.5,2.6.06,5.21.77,7.7,1.47,4.54.05,9.14,0,13.68.02,11.11,0,22.24,0,33.35,0,5.97,0,11.98,0,17.96,0,4.85-2.62,9.58-5.63,14.54-8.09,3.66-1.9,7.42-3.76,11.12-5.59,5.14-2.85,10.53-4.42,16.25-2.17,5.2,1.87,9.47,5.68,14.54,7.8,3.53,1.21,7.4,1.57,11.12,1.67"/><path class="b" d="M10.06,32.58c7.12,0,14.26,0,21.38,0,1.16.1,2.32-.76,3.42-1.02,1.9-.59,4-.84,5.99-.71,2.9.16,5.74,1.11,8.55,1.73,7.4,0,14.83,0,22.23,0,14.53-.09,29.09.17,43.61-.09,6.75-6.02,13.82-11.96,22.23-15.5,5.03-2.29,8.84-4.17,14.54-2.78,5.73,1.31,10.75,4.66,16.25,6.62,2.16.83,4.56,1.08,6.84,1.31,2.26.3,4.6.75,6.84,1.17"/><path class="b" d="M10.06,27.94c6.26,0,12.55,0,18.81,0,1.43-.12,2.86-.96,4.28-1.19,1.93-.43,4.03-.52,5.99-.28,1.39.17,2.92.52,4.28.9,1.05.34,2.3.67,3.42.57,7.12,0,14.26,0,21.38,0,15.39,0,30.79,0,46.18,0,3.31-2.9,6.08-6.56,9.41-9.48,3.7-3.47,8.04-6.37,12.83-8.11,7.92-2.99,9.8-3.67,17.96-.4,4.45,1.81,8.9,3.95,13.68,4.73,2.23.44,4.59.23,6.84.35,2.3.19,4.65.8,6.84,1.54"/></svg>