<?xml version="1.0" encoding="UTF-8"?><svg id="a" xmlns="http://www.w3.org/2000/svg" width="1920" height="2400" viewBox="0 0 192 240"><defs><style>.b{fill:none;stroke:#fff;stroke-miterlimit:10;stroke-width:.4px;}.c{stroke-width:0px;}</style></defs><rect class="c" x="0" width="192" height="240"/><path class="b" d="M8.69,225.95c3.97.9,8.13.37,12.16.5,2.28,0,4.67,0,6.95,0,1.41,0,2.98.09,4.34-.35,6.28-1.52,11.87-5.2,18.24-6.39,4.26-1,8.65-1.78,13.03-1.84,4.05-.09,8.14.43,12.16.84,4.04.58,8.13.04,12.16-.25,8.14-.38,12.27,3.43,18.24,7.99h77.32"/><path class="b" d="M8.69,218.12c2,.22,4.09.54,6.08.78,2,.22,4.13.33,6.08.85,2.59.59,5.19,1.56,7.82,1.98,1.1,0,2.38,0,3.48,0,3.45-.06,6.98.13,10.43-.09,5.46-1.38,10.88-3.23,16.51-3.83,6.37-.83,12.76.4,19.11.68,4.08.19,8.09-1.17,12.16-1.09,2.69.03,5.43.76,7.82,2,.8.41,1.86,1.05,2.61,1.56.38.35,1.21.78,1.74.77,7.23,0,14.49,0,21.72,0,19.69,0,39.39,0,59.08,0"/><path class="b" d="M8.69,210.94c3.17-.1,6.45.03,9.56.68,1.81.49,3.6,1.43,5.21,2.37,1.11.65,2.39,1.46,3.48,2.13.74.48,1.69,1.05,2.61.9,4.04,0,8.13,0,12.16,0,4.91,0,9.86,0,14.77,0,1.11.07,2.38-.32,3.48-.45,1.98-.28,4.09-.4,6.08-.39,4.33,0,8.7.72,13.03.44,3.51-.26,6.91-1.61,10.43-1.86,2.01-.16,4.16.07,6.08.71.8.27,1.86.73,2.61,1.12.41.28,1.24.52,1.74.42,7.52,0,15.07,0,22.59,0,20.27,0,40.55,0,60.82,0"/><path class="b" d="M8.69,205.73c8.9-1.5,11.85.77,18.24,6.42,2.26.33,4.67.07,6.95.15,3.74,0,7.55,0,11.29,0,11.29,0,22.6,0,33.88,0,1.71-.03,3.6.21,5.21-.5,3.04-1.03,6.34-1.9,9.56-1.31,1.81.24,3.51,1.26,5.21,1.81,3.74,0,7.55,0,11.29,0,8.39,0,16.81,0,25.19,0,11,0,22.02,0,33.01,0,.83.13,1.86-.37,2.61-.68.74-.3,1.83-.66,2.61-.87,3.08-.83,6.37-1.13,9.56-1.01"/><path class="b" d="M8.69,202.6c6.99-1.52,10.53-.32,15.64,4.54.45.32,1.2.54,1.74.45,1.09,0,2.38,0,3.47,0,16.5,0,33.02,0,49.52,0,1.09-.02,2.4.06,3.48-.1,1.39-.58,2.93-1.27,4.34-1.8,4.86-2,9.72-1.29,13.9,1.87,20.56.06,41.13,0,61.68.02.42,0,1.31,0,1.74,0,.44-.2,1.33-.68,1.74-.94,1.06-.62,2.37-1.31,3.48-1.84,4.29-2.18,9.09-3.29,13.9-2.69"/><path class="b" d="M8.69,200.41c3.14-.48,6.56-.73,9.56.52,1.17.48,2.32,1.44,3.47,1.93,2.58,0,5.24,0,7.82,0,10.42,0,20.86,0,31.28,0,6.07,0,12.18,0,18.24,0,.78,0,1.84.04,2.61-.14,2.02-.93,4.05-2.11,6.08-3,3.91-1.88,8.44-1.89,12.16.44.81.47,1.86,1.19,2.61,1.77.36.38,1.2.89,1.74.93,2.58,0,5.24,0,7.82,0,13.89,0,27.81,0,41.7,0,1.99-.03,4.1.07,6.08-.06,1.37-.67,2.94-1.38,4.34-1.99,3.7-1.57,7.5-3.11,11.29-4.43,2.5-.73,5.23-.83,7.82-.69"/><path class="b" d="M8.69,197.01c1.99-.04,4.11-.02,6.08.29,1.43.14,2.9.94,4.34.85,8.97,0,17.96,0,26.93,0,3.74-.02,7.55.05,11.29-.03,1.95-.46,4.09-.58,6.08-.43,1.4.06,2.94.5,4.34.46,3.16,0,6.4,0,9.56,0,1.69-.07,3.55.17,5.21-.16.78-.41,1.84-1.01,2.61-1.45,8.27-5.14,13.4-4.65,20.85,1.6,15.05.01,30.12,0,45.18,0,2.32-.42,4.62-1.43,6.95-1.88,3.73-.89,7.59-1.54,11.29-2.57,2.35-.59,4.65-1.69,6.95-2.42,2.22-.64,4.64-.91,6.95-1.02"/><path class="b" d="M8.69,192.8c1.4.17,2.95.36,4.34.58,2.58.1,5.24.02,7.82.04,4.91,0,9.86,0,14.77,0,5.2,0,10.44,0,15.64,0,2.48-1.03,5.1-2.03,7.82-2.15,4.45-.33,8.77,1.13,13.03,2.15,3.16,0,6.4,0,9.56,0,7.61-2.79,12.28-7.2,20.85-3.17,1.13.53,2.42,1.26,3.48,1.91.75.44,1.69,1.25,2.61,1.25,5.2,0,10.44,0,15.64,0,4.33,0,8.71,0,13.03,0,1.08,0,2.39,0,3.48,0,.8,0,1.89.09,2.61-.35,1.03-.62,2.35-1.24,3.48-1.66,3.58-1.33,7.52-1.45,11.29-1.16,15.33,1.56,12.12-.51,25.19-4.5"/><path class="b" d="M8.69,187.45c1.99.4,4.1.78,6.08,1.23,3.16.08,6.4.01,9.56.03,6.65,0,13.33,0,19.98,0,.88.15,1.85-.43,2.61-.8,1.37-.68,2.91-1.4,4.34-1.94,3.57-1.36,7.49-1.93,11.29-1.55,6.45.47,12.57,3.91,19.11,3.19,3.22-.44,6.37-1.56,9.56-2.2,3.7-.8,7.63-.8,11.29.17,2.04.52,4.13,1.31,6.08,2.1,1.07.38,2.3,1.14,3.48,1.01,8.39,0,16.81,0,25.19,0,.41,0,1.32,0,1.74,0,.87-.33,1.85-1.16,2.61-1.69,2.25-1.66,5-2.86,7.82-3.01,7.22-.51,13.64,4.54,20.85,3.94,2.19-.19,4.24-1.33,6.08-2.44,2.3-1.35,4.65-2.83,6.95-4.18"/><path class="b" d="M8.69,180.45c4.07.7,8.13,1.7,12.16,2.54,9.01,1.79,17.51-.94,26.06-3.44,6.48-1.74,13.3-2.9,19.98-1.71,5.57.81,10.89,3.1,16.51,3.61,6.65.46,13.33-.63,19.98-.16,2.89.18,5.86.54,8.69,1.16,1.75.35,3.38,1.7,5.21,1.55,7.23,0,14.49,0,21.72,0,7.49-5.5,11.46-5.64,19.98-2.15,1.97.73,3.99,1.81,6.08,2.15,1.69,0,3.52,0,5.21,0,.77,0,1.83,0,2.61,0,1.22-.39,2.44-1.32,3.47-2.04,2.36-1.74,4.67-3.75,6.95-5.58"/><path class="b" d="M8.69,172.18c3.78.37,7.55,1.15,11.29,1.71,3.45.33,6.99.01,10.43-.4,6.91-.99,13.87-1.72,20.85-1.96,4.61-.4,9.27-1.05,13.9-.8,4.14.19,8.28,1.12,12.16,2.57,4.99,2.07,10.16,4.08,15.64,4.22,6.41.41,12.72-1.68,19.11-1.42,2.82.34,5.3,2.01,7.82,3.19,2.87,0,5.82,0,8.69,0,3.16,0,6.4,0,9.56,0,1.39-.05,2.98.14,4.34-.15.39-.26,1.31-.73,1.74-.94,4.35-2.15,9.44-1.48,13.9-.03,1.08.33,2.39.75,3.47,1.09,1.39.07,2.95.03,4.34.04,2.57-.09,5.27.2,7.82-.15,3.52-2.24,6.42-5.43,9.56-8.15"/><path class="b" d="M8.69,163.83c2.58.11,5.26.19,7.82.62,2.83.6,5.81.58,8.69.39,4.61-.32,9.28-.76,13.9-.53,4.05.11,8.11.85,12.16.92,9.05-.21,17.45-1.92,26.06,2.15,9.19,4.86,14.51,7.86,25.19,4.78,3.66-.85,7.5-2.68,11.29-1.79,2.87.77,5.24,2.83,7.82,4.19,1.09,0,2.39,0,3.48,0,11.29,0,22.6,0,33.88,0,3.74,0,7.55,0,11.29,0,.76,0,1.84,0,2.61-.01,1.18-.63,2.45-1.6,3.47-2.46,2.33-1.97,4.6-4.21,6.95-6.16"/><path class="b" d="M8.69,156.65c2.58-.05,5.26-.08,7.82.31,2.83.56,5.81.6,8.69.54,4.33-.11,8.72-.21,13.03.2,4.34.36,8.68,1.23,13.03,1.41,8.21.14,16.72-.1,24.33,3.5,2.68,1.15,5.19,2.87,7.82,4.12,4.27,2.12,9.23,2.9,13.9,1.86,5-.78,11.76-4.82,16.51-3.47,2.93.9,5.25,3.17,7.82,4.72,17.66-.01,35.34.03,53-.01,2.97-2.16,5.7-4.8,8.69-6.94"/><path class="b" d="M8.69,149.65c1.98-.23,4.09-.39,6.08-.28,2.29.18,4.64.73,6.95.77,5.2.19,10.45-.09,15.64.29,6.07.55,12.21.98,18.24,1.81,8.06,1.21,15.63,4.6,22.59,8.75,2.93,1.82,6.11,3.49,9.56,4,2.56.27,5.29.26,7.82-.25,5.25-.97,10.23-3.58,15.64-3.64,2.22.03,4.31,1.25,6.08,2.48.43.31,1.32.96,1.74,1.3,1.33.48,2.95.18,4.34.26,3.16,0,6.4,0,9.56,0,15.63,0,31.28,0,46.91,0,1.17-.63,2.36-1.68,3.48-2.39"/><path class="b" d="M8.69,143.88c1.97-.36,4.08-.58,6.08-.49,2,.12,4.07.64,6.08.74,4.61.32,9.28,0,13.9-.05,18.91-.11,22.91.26,39.1,10.6,10.71,6.87,8.47,5.67,20.85,5.73,5.75-.59,11.54-2.94,17.38-1.61,1.16.31,2.45.95,3.47,1.58,2.28.08,4.67.02,6.95.03,20.27,0,40.55,0,60.82,0"/><path class="b" d="M8.69,139.9c1.97-.32,4.09-.48,6.08-.34,2,.15,4.07.67,6.08.76,4.62.32,9.3-.16,13.9-.59,5.18-.46,10.43-1.02,15.64-.76,9.11.88,16.82,6.45,24.33,11.22,2.79,1.71,5.52,3.83,8.69,4.79,1.93.61,4.07.78,6.08.71,3.46.11,6.97-.28,10.43-.36,2.29-.1,4.67.21,6.95.36,8.1,0,16.23,0,24.33,0,17.37,0,34.76,0,52.13,0"/><path class="b" d="M8.69,137.51c3.78-.34,7.56.38,11.29.83,3.16.26,6.41.07,9.56-.33,13.98-1.98,21.81-5.12,35.62,1.1,4.81,2.09,9.4,4.75,13.9,7.44,3.32,2.24,7.37,2.97,11.29,3.25,1.99.17,4.1.33,6.08.6,1.69.24,3.49.7,5.21.57,27.22,0,54.45,0,81.67,0"/><path class="b" d="M8.69,135.75c3.48.25,6.97.92,10.43,1.31,2.87.26,5.83.13,8.69-.22,5.84-.7,11.55-2.36,17.38-3.12,5.46-.6,11.06-.54,16.51.14,4.47.59,8.93,1.81,13.03,3.69,2.99,1.25,5.64,3.37,8.69,4.51,3.35,1.24,6.98,1.75,10.43,2.67,2.3.5,4.54,1.79,6.95,1.53,27.51,0,55.03,0,82.53,0"/><path class="b" d="M8.69,134.47c10.14,2.64,16.89,2.72,26.93-.37,3.43-.99,6.9-2.15,10.43-2.8,4.32-.55,8.7-1.13,13.03-1.63,8.9-.94,15.34,1.05,22.59,6.12,3.79,2.14,8.1,3.21,12.16,4.69.78.28,1.84.68,2.61.98.77.09,1.83.07,2.61.07,2.28,0,4.67,0,6.95,0,6.65,0,13.33,0,19.98,0,19.11,0,38.23,0,57.34,0"/><path class="b" d="M8.69,133.53c7.98,2.99,16.43,3.87,24.33.14,4.15-1.79,8.01-4.33,12.16-6.11,3.06-1.23,6.43-1.77,9.56-2.82,9.53-3.06,16.57-1.3,24.33,4.8,2.86,2.36,6.16,4.25,9.56,5.71,1.08.47,2.38,1.01,3.48,1.45.77.15,1.83.12,2.61.12,9.26,0,18.54,0,27.8,0,20.27,0,40.55,0,60.82,0"/><path class="b" d="M8.69,131.23c.79.27,1.81.63,2.61.87,1.4.02,2.95,0,4.34.01,2.87,0,5.82,0,8.69,0,2.28,0,4.67,0,6.95,0,3.5-1.69,6.55-4.3,9.56-6.73,1.91-1.54,3.93-3.19,6.08-4.4,2.54-1.21,5.24-2.33,7.82-3.45,12.95-5.7,19.57,4.93,28.67,11.81,1.34.96,2.9,1.95,4.34,2.74,3.45.07,6.97,0,10.43.03,6.94,0,13.91,0,20.85,0,21.43,0,42.86,0,64.29,0"/><path class="b" d="M8.69,126.78c3.09.93,6.38.54,9.56.61,4.62,0,9.28,0,13.9,0,6.62-3.95,10.62-11.2,17.38-14.93,4.64-2.89,10.17-6.17,15.64-3.42,8.2,4.21,12.33,13.41,19.98,18.36,20.85,0,41.71,0,62.55,0,1.46-.11,2.93-.95,4.34-1.32,2.5-.8,5.19-1.35,7.82-1.42,5.32-.16,10.45,1.67,15.64,2.52,1.04.38,2.39.19,3.47.23,1.39,0,2.95,0,4.34,0"/><path class="b" d="M8.69,120.4c4.12,0,8.25.62,12.16,1.92,1.06.37,2.37.38,3.48.35,1.69-.01,3.52.03,5.21-.03,6.74-2.29,10.81-8.71,15.64-13.54,1.74-1.88,3.99-3.39,6.08-4.85,2.79-1.95,6.02-3.97,9.56-3.66,9.37,1.09,15.42,16.65,23.46,22.08,17.66,0,35.33,0,53,0,3.16,0,6.4,0,9.56,0,1.58.14,2.96-1.25,4.34-1.85,2.16-1.15,4.54-2.17,6.95-2.62,4.43-.91,8.91.46,13.03,2.01,1.97.74,4.15,1.28,6.08,2.15.71.39,1.82.31,2.61.3,1.08,0,2.39,0,3.48,0"/><path class="b" d="M8.69,113.29c10.42-1.81,12.78,3.45,20.85,2.65,7.59-1.4,11.93-8.67,17.38-13.42,4.2-3.07,9.22-8.21,14.77-7.57,6.68,1.25,10.75,8.43,14.77,13.32,2.72,3.6,5.98,6.92,9.56,9.68,17.08.03,34.18,0,51.26.01,3.45,0,6.97,0,10.43,0,3.1-1.72,6.09-3.93,9.56-4.9,6.28-2.06,12.41,1.25,18.24,3.24,1.4.5,2.92,1.23,4.34,1.65,1.08,0,2.39,0,3.48,0"/><path class="b" d="M8.69,107.63c5.94-1.25,9.02-.82,14.77.52,8.89,2.03,14.87-3.81,20.85-9.37,1.84-1.74,4-3.28,6.08-4.7,1.65-1.19,3.43-2.5,5.21-3.49,7.08-4.22,12.69.17,17.38,5.51,5.67,6.65,11.67,13.72,19.98,17.06,5.19.23,10.44.02,15.64.09,12.45,0,24.91,0,37.36,0,.86.15,1.87-.43,2.61-.8,1.07-.53,2.37-1.14,3.48-1.6,2.99-1.27,6.29-2.11,9.56-1.93,5.74.3,10.94,3.21,16.51,4.34,1.69,0,3.52,0,5.21,0"/><path class="b" d="M8.69,103.44c2.87-.46,5.81-1.03,8.69-1.45,2.57-.34,5.26-.4,7.82-.79,7.38-.91,13.38-5.62,19.11-9.97,1.88-1.44,4.04-2.68,6.08-3.86,1.95-1.19,3.99-2.49,6.08-3.4,7.32-3.47,13.28,1.25,18.24,6.3,6.46,6.7,14.03,13.22,23.46,14.92,4.57.91,9.31.69,13.9,1.38,2.91.47,5.81,1.36,8.69,1.95,2.87,0,5.82,0,8.69,0,3.16-.03,6.4.07,9.56-.05,3.75-.66,7.55-1.36,11.29-2.03,4-.67,8.17-.75,12.16-.01,2.92.46,5.8,1.48,8.69,2.09,4.03,0,8.13,0,12.16,0"/><path class="b" d="M8.69,99.96c4.28-.21,8.3-1.86,12.16-3.58,5.06-2.13,10.02-4.62,14.77-7.37,4.8-2.79,9.62-5.7,14.77-7.81,3.29-1.53,6.73-3.22,10.43-3.39,12.72-.33,17.67,15.35,36.49,18.17,4.29.74,8.71.81,13.03,1.34,4.61.65,9.24,1.58,13.9,1.9,6.93.61,13.94-.43,20.85.46,6.76.77,13.36,2.64,19.98,4.12,6.07,0,12.18,0,18.24,0"/><path class="b" d="M8.69,96.34c4.89.22,8.43-2.27,12.16-5.04,3.39-2.43,6.84-4.93,10.43-7.06,5.37-3.28,11.35-5.44,17.38-7.17,4.74-1.52,9.72-3.34,14.77-2.42,3.43.57,6.65,2.2,9.56,4.05,2.91,1.83,5.69,4.04,8.69,5.73,5.79,3.27,12.6,3.76,19.11,3.75,2.87.03,5.83.05,8.69.35,2.57.34,5.22.75,7.82.81,5.49.22,11.02-.34,16.51-.14,4.48.1,8.96,1.09,13.03,2.98,5.92,2.64,11.79,5.81,18.24,6.91,3.74,0,7.55,0,11.29,0,2.27-.1,4.71.23,6.95-.18"/><path class="b" d="M8.69,91.62c3.58.3,6.99-1.3,9.56-3.71,2.54-2.13,5.13-4.38,7.82-6.31,3.39-2.46,7.21-4.49,11.29-5.5,3.98-1.04,8.19-1.13,12.16-2.16,13.4-3.74,19.12-.4,30.41,6.27,7.54,4.29,16.29,1.27,24.33.54,3.47-.46,6.97.23,10.43.4,4.06.07,8.13-.63,12.16-.99,18.41-2.27,21.77,9.72,37.36,12.61,6.32.87,12.79.41,19.11-.17"/><path class="b" d="M8.69,84.93c4.18.05,7.39-2,10.43-4.64,2.67-2.07,5.56-4.06,8.69-5.38,3.26-1.41,6.89-1.97,10.43-1.92,3.16,0,6.42.37,9.56-.17,9.7-2.45,15.86-3.38,25.19,1.23,3.46,1.52,6.69,3.89,10.43,4.67,7.53,1.33,14.5-2.96,21.72-4.29,3.42-.84,6.96-.11,10.43-.23,4.34-.17,8.69-.99,13.03-1.14,15.51-1.04,20.64,10.81,34.75,12.98,3.14.49,6.4.36,9.56.3,3.45,0,6.98-.03,10.43.09"/><path class="b" d="M8.69,77.08c2.04-.18,4.19-.59,6.08-1.39,1.49-.61,2.95-1.66,4.34-2.44,6.63-3.92,13.41-4.11,20.85-3.27,2.57.21,5.27.35,7.82-.15,4.53-1.12,9.2-2.32,13.9-1.84,4.58.4,8.92,2.22,13.03,4.18,3.55,1.68,7.24,3.68,11.29,3.49,7.14-.21,13.32-4.37,19.98-6.45,2.77-.97,5.79-1.03,8.69-1.17,3.74-.24,7.54-.54,11.29-.45,17.98.05,23.51,11.06,39.1,12.92,6.05.58,12.18-.11,18.24.34"/><path class="b" d="M8.69,69.48c2.3-.19,4.71-.35,6.95-.93,3.35-1.17,6.86-2.07,10.43-2.19,5.19-.3,10.44.27,15.64-.06,3.55-.12,7-1.2,10.43-2.02,4.56-1.05,9.42-.96,13.9.41,7.51,2.19,14.43,7.39,22.59,6.57,5.56-.41,10.67-2.98,15.64-5.31,6.65-3.46,14.36-4.37,21.72-3.22,6.83,1.07,13.51,3.19,19.98,5.56,6.02,2.48,11.85,5.66,18.24,7.11,6.26,1.62,12.75.43,19.11.66"/><path class="b" d="M8.69,62.91c2.29.06,4.66.41,6.95.48,1.7,0,3.52-.13,5.21-.01,4.9.29,9.88.81,14.77.05,7.97-1.02,15.29-5.51,23.46-5.22,5.8.11,11.19,2.54,16.51,4.59,3.63,1.36,7.5,2.19,11.29,2.92,8.5,1.64,15.34-1.94,22.59-5.81,4.46-2.54,9.78-3.11,14.77-2.11,4.71.84,9.26,2.52,13.9,3.64,2.25.6,4.68.79,6.95,1.26,2.05.46,4.15,1.2,6.08,2.01,7.09,2.84,13.83,7.71,21.72,7.75,3.45-.28,6.96-.61,10.43-.64"/><path class="b" d="M8.69,57.51c3.22.71,6.31,2.16,9.56,2.78,3.68.91,7.47,1.97,11.29,1.75,6.02-.23,11.23-3.6,16.51-6.13,5.14-2.25,10.87-3.62,16.51-3.07,4.47.41,8.76,1.96,13.03,3.24,2.53.83,5.3,1.07,7.82,1.93,6.35,2.29,12.44,4.63,19.11,1.95,3.4-1.26,6.48-3.35,9.56-5.22,2.09-1.18,4.55-1.88,6.95-1.99,5.66-.25,11.05,1.97,16.51,3.12,1.67.36,3.5.64,5.21.7,1.69.05,3.53-.18,5.21.09,3.72.53,7.21,2.26,10.43,4.13,5.46,2.97,10.8,7.79,17.38,7.4,3.13-.5,6.39-.67,9.56-.71"/><path class="b" d="M8.69,52.84c3.77,1.71,7.33,4.01,11.29,5.31,5.06,2.15,10.55,2.79,15.64.36,3.66-1.6,6.92-4.08,10.43-5.97,4.09-1.95,8.57-3.28,13.03-4.03,5.22-.83,10.53.02,15.64,1.15,2.85.72,5.94.75,8.69,1.85,6.88,2.93,13.14,7.3,20.85,4.03,3.79-1.38,6.78-4.38,10.43-6.01,6.12-2.63,12.84-.68,19.11.26,2.26.33,4.66.53,6.95.36,1.4-.1,2.94-.48,4.34-.47,4.09,0,7.92,1.96,11.29,4.11,5.23,3.09,10.98,9.04,17.38,8.56,3.12-.59,6.4-.56,9.56-.28"/><path class="b" d="M8.69,49.11c2.33,1.4,4.58,3.14,6.95,4.48,1.65.86,3.52,1.61,5.21,2.39,5.39,2.57,10.98,3.32,16.51.7,2.99-1.31,5.8-3.18,8.69-4.69,1.63-.86,3.52-1.48,5.21-2.2,2.56-1.07,5.19-2.22,7.82-3.1,5.27-1.87,10.98-2.3,16.51-1.61,2.6.34,5.38.38,7.82,1.44,4.64,1.94,8.86,5.16,13.9,6.08,4.24.85,8.59-.6,12.16-2.87,2.43-1.62,4.97-3.3,7.82-4.09,4.48-1.36,9.27-1.2,13.9-1.12,3.46.06,7.01.03,10.43-.6,5.05-1.46,10.34.06,14.77,2.62,5.44,2.76,10.98,8.05,17.38,7.66,3.16-.58,6.47-.16,9.56.64"/><path class="b" d="M8.69,46.98c2.26,1.71,4.5,3.68,6.95,5.12,3.15,1.49,6.34,3.1,9.56,4.42,4.02.26,8.13.03,12.16.1,1.19.14,2.42-.63,3.48-1.09,1.42-.69,2.96-1.53,4.34-2.27,2.85-1.51,5.96-2.71,8.69-4.44,6.1-3.73,12.61-7.64,19.98-7.7,2.58-.02,5.3.08,7.82.71,7.56,2.53,14.02,9.64,22.59,8.24,3.14-.43,5.97-2.08,8.69-3.61,1.9-.96,4.03-1.74,6.08-2.3,5.11-1.38,10.45-1.93,15.64-2.93,3.78-.6,7.5-1.89,11.29-2.4,4.48-.48,8.96.83,13.03,2.61,3.98,1.67,7.86,3.95,12.16,4.72,1.68.33,3.52,0,5.21.03,2.34.07,4.75.65,6.95,1.42"/><path class="b" d="M8.69,45.05c2.96,2.36,5.91,5.01,9.56,6.25.76.39,1.75.72,2.61.62,4.91,0,9.86,0,14.77,0,3.74,0,7.55,0,11.29,0,2.21-.56,4.19-2.1,6.08-3.32,2.86-2,5.7-4.21,8.69-6.02,5.14-3.32,11.31-4.75,17.38-3.75,4.13.41,7.75,2.76,11.29,4.73,6.14,3.64,13,6.37,19.98,3.3,6.61-3.14,13.95-4.26,20.85-6.59,7.08-2.16,14.12-5.78,21.72-4.98,6.06.5,11.54,3.49,17.38,4.94,1.95.52,4.09.42,6.08.5,2.33.15,4.73.67,6.95,1.4"/><path class="b" d="M8.69,42.5c1.68,1.15,3.46,2.44,5.21,3.48,1.03.56,2.25,1.37,3.48,1.22,6.07,0,12.18,0,18.24,0,3.45,0,6.97,0,10.43,0,1.09,0,2.38,0,3.48,0,.89.09,1.95-.14,2.61-.77,6.15-4.51,12.79-9.77,20.85-9.31,3.5.21,7.1.73,10.43,1.85,9.13,3.48,17.63,9.43,27.8,5.85,6.63-2.07,13.62-3.11,19.98-6.01,9.71-4.33,17.74-8.77,28.67-5.18,4.09,1.22,7.99,3.2,12.16,4.14,3.72.64,7.6.54,11.29,1.37"/><path class="b" d="M8.69,39.22c2.28,1.08,4.58,2.36,6.95,3.24,2.87.05,5.82,0,8.69.02,6.65,0,13.33,0,19.98,0,1.99,0,4.09,0,6.08,0,1.27-.19,2.39-1.34,3.48-1.95,11.88-8.01,17.03-4.54,29.54-1.57,2.88.79,5.8,1.72,8.69,2.48,1.96.46,4.05,1.12,6.08,1.05,3.74,0,7.55,0,11.29,0,4.02-.86,8.15-1.51,12.16-2.39,4.88-1.12,9.49-3.26,13.9-5.6,6.84-3.81,13.94-6.46,21.72-3.69,6,1.86,11.11,6.2,17.38,7.23,2.85.38,5.82.3,8.69.43"/><path class="b" d="M8.69,35.71c1.42.4,2.96.93,4.34,1.41,1.07.43,2.31.75,3.48.64,5.78,0,11.6,0,17.38,0,3.45,0,6.97,0,10.43,0,1.09,0,2.38,0,3.48,0,.83,0,1.89.1,2.61-.4,2.43-1.55,5.05-3.06,7.82-3.92,3.97-1.31,8.33-.77,12.16.74,2.9,1.08,5.73,2.59,8.69,3.51,5.77.19,11.6.01,17.38.07,7.23-.05,14.5.1,21.72-.06,3.56-.61,7.13-1.62,10.43-3.1,3.88-1.71,7.53-4.02,11.29-5.96,13.13-7.26,20.68,3.16,31.28,8.95,1.36.34,2.96.12,4.34.18,2.57,0,5.24,0,7.82,0"/><path class="b" d="M8.69,32.77c1.97.41,4.09.25,6.08.27,2.87,0,5.82,0,8.69,0,8.68,0,17.38,0,26.06,0,8.18-5.35,13.98-5.7,22.59-1.05.77.37,1.73,1.01,2.61,1.05,1.39,0,2.95,0,4.34,0,7.52,0,15.07,0,22.59,0,4.91,0,9.86,0,14.77,0,1.69-.04,3.53.09,5.21-.08,2.34-.63,4.73-1.48,6.95-2.46,5.02-2.14,9.63-5.3,14.77-7.18,8.93-3.21,16.35,4.45,22.59,9.72h17.38"/><path class="b" d="M8.69,28.33c9.55,0,19.12,0,28.67,0,2.87,0,5.82,0,8.69,0,1.68-.13,3.62.32,5.21-.31,1.87-1.16,3.96-2.22,6.08-2.82,3.11-.91,6.51-.67,9.56.37,2.07.69,4.14,1.7,6.08,2.69,2.57.17,5.24.03,7.82.07,6.65,0,13.33,0,19.98,0,4.91,0,9.86,0,14.77,0,1.69,0,3.52,0,5.21,0,1.11.03,2.44.03,3.48-.43,6.23-2.05,12.02-5.31,18.24-7.36,6.42-2.25,12.4.09,17.38,4.3,1.12.92,2.42,2.07,3.48,3.07.66.52,1.82.43,2.61.42,5.78,0,11.6,0,17.38,0"/><path class="b" d="M8.69,23.61c13.89,0,27.81,0,41.7,0,.78,0,1.83,0,2.61,0,.77-.42,1.81-.97,2.61-1.32,2.15-.96,4.59-1.55,6.95-1.51,3.66-.01,7.08,1.55,10.43,2.83,6.65,0,13.33,0,19.98,0,6.94,0,13.91,0,20.85,0,2.28,0,4.67,0,6.95,0,1.69-.08,3.63.28,5.21-.46,7.82-2.85,15.84-6.46,24.33-6.16,5,.33,9.4,3.24,13.03,6.49,6.63.33,13.34.02,19.98.12"/><path class="b" d="M8.69,18.9c12.16,0,24.33,0,36.49,0,3.45,0,6.97,0,10.43,0,2.5-.88,5.12-1.84,7.82-1.73,1.72.02,3.56.34,5.21.81,1.39.39,2.86,1.08,4.34.92,10.71,0,21.44,0,32.14,0,6.94,0,13.91,0,20.85,0,1.15-.12,2.38-.8,3.48-1.16,1.67-.62,3.5-1.22,5.21-1.68,3.38-.99,6.95-1.31,10.43-1.73,5.93-1.14,11.29-1.35,16.51,2.22,1.12.68,2.27,1.82,3.48,2.36.76,0,1.84,0,2.61,0,5.2,0,10.44,0,15.64,0"/></svg>