<?xml version="1.0" encoding="UTF-8"?><svg id="a" xmlns="http://www.w3.org/2000/svg" width="1920" height="2400" viewBox="0 0 192 240"><defs><style>.b{fill:none;stroke:#fff;stroke-miterlimit:10;stroke-width:.4px;}.c{stroke-width:0px;}</style></defs><rect class="c" width="192" height="240"/><path class="b" d="M8.35,228.53h175.29"/><path class="b" d="M8.35,223.79h175.29"/><path class="b" d="M8.35,218.42c2.02.04,4.11.36,6.1.64,6.38,0,12.8,0,19.19,0,12.78,0,25.59,0,38.37,0,37.21,0,74.42,0,111.63,0"/><path class="b" d="M8.35,211.63c1.12.44,2.41,1.02,3.49,1.56,1.06.56,2.23,1.32,3.49,1.13,5.8,0,11.64,0,17.44,0,12.78,0,25.59,0,38.37,0,37.5,0,75,0,112.5,0"/><path class="b" d="M8.35,205.89c1.45,1.12,3.01,2.46,4.36,3.69,23.83.02,47.68,0,71.51,0,11.33,0,22.68,0,34.01,0,.42,0,1.32,0,1.74,0,.78-.26,1.83-.7,2.62-.96,1.93-.64,4.07-1.03,6.1-1.1,4.75-.27,9.31,1.52,13.95,2.06,13.66,0,27.33,0,40.99,0"/><path class="b" d="M8.35,201.36c1.12,1.07,2.12,2.73,3.49,3.5,22.96,0,45.93,0,68.9,0,7.84,0,15.71,0,23.55,0,3.75-.11,7.61.23,11.34-.15,1.31-1.08,2.87-2.19,4.36-3,3.68-2.12,8.2-2.44,12.21-1.1,2.95.89,5.79,2.36,8.72,3.32,4.49,1.43,9.32.81,13.95.94,9.58,0,19.19,0,28.78,0"/><path class="b" d="M8.35,197.73c.44.52,1.32,1.58,1.74,2.11,1.62.56,3.54.16,5.23.27,2.59,0,5.26,0,7.85,0,8.13,0,16.29,0,24.42,0,22.09-.02,44.19.04,66.28-.02,8-7.63,13.65-8.41,23.55-3.69,2.99,1.41,6.29,2.12,9.59,1.95,3.47-.07,7.02-.27,10.47.23,1.42.2,2.98.54,4.36.92.77.21,1.8.62,2.62.6,6.38,0,12.8,0,19.19,0"/><path class="b" d="M8.35,194.51l.87.87c30.81,0,61.63,0,92.44,0,3.47,0,7,0,10.47,0,.96.18,2-.49,2.62-1.17.75-.67,1.82-1.55,2.62-2.16,2.99-2.29,6.63-4.07,10.47-4,4.88,0,9.25,2.66,13.95,3.57,4.61.6,9.33-.25,13.95.23,4.82.32,9.4,2.08,13.95,3.54,4.63,0,9.32,0,13.95,0"/><path class="b" d="M8.35,190.65c35.17-.03,70.35.06,105.53-.03,5.38-5,11.56-8.88,19.19-7.1,3.47.66,6.89,2.09,10.47,2.09,6.14-.02,12.36.16,18.31,1.79,7.69,2.05,13.61,4.5,21.8,2.67"/><path class="b" d="M8.35,185.91h106.4c5.63-4.41,10.7-8.29,18.31-7.52,3.19.24,6.38,1.15,9.59,1.22,6.78-.14,13.5,1.2,20.06,2.81,7.24,1.85,13.58,2.65,20.93.7"/><path class="b" d="M8.35,181.18c36.05,0,72.1,0,108.14,0,6.83-5.87,12.66-8.61,21.8-7.47,3.46.38,7.02,0,10.47.59,13.31,2.23,21.06,5.99,34.88,1.59"/><path class="b" d="M8.35,176.44c34.88,0,69.77,0,104.65,0,1.69-.09,3.58.22,5.23-.21.42-.36,1.31-1.06,1.74-1.4,5.87-4.72,11.66-6.61,19.19-6.07,2.29.13,4.69-.08,6.98.11,3.51.29,7.01,1.09,10.47,1.73,9.57,1.98,17.79,1.47,27.04-1.72"/><path class="b" d="M8.35,171.71h109.89c4.13-3.21,8.65-6.35,13.95-7.09,2.86-.46,5.84-.28,8.72-.2,4.67-.16,9.34.41,13.95,1.09,9.62,1.47,19.56.85,28.78-2.36"/><path class="b" d="M8.35,166.97c34.88,0,69.77,0,104.65,0,.77,0,1.84,0,2.62,0,1.27-.32,2.39-1.49,3.49-2.15,5.98-4.23,11.92-5.74,19.19-4.79,4.63.42,9.35.42,13.95,1.18,10.39,1.38,21.49,2.17,31.4-1.86"/><path class="b" d="M8.35,162.24c22.96,0,45.93,0,68.9,0,7.84,0,15.71,0,23.55,0,2.59,0,5.26,0,7.85,0,1.09,0,2.4,0,3.49,0,.86-.21,1.86-.88,2.62-1.32,7.63-4.72,13.66-6.79,22.67-4.9,3.14.66,6.42.86,9.59,1.24,4.63.61,9.3,1.42,13.95,1.82,3.75.34,7.58.44,11.34.35,3.89.08,7.8-.73,11.34-2.34"/><path class="b" d="M8.35,157.5c9,0,18.03,0,27.04,0,1.45.14,2.95-.36,4.36-.56,1.69-.23,3.54-.2,5.23.06,3.4.84,6.99.4,10.47.5,5.8,0,11.64,0,17.44,0,1.4-.03,2.97.1,4.36-.11.76-.31,1.81-.65,2.62-.81,2.55-.51,5.24-.79,7.85-.8,7.56-.22,15.21,2.87,22.67.85,2.94-.98,5.8-2.44,8.72-3.48,5.55-2.22,11.71-2.27,17.44-.7,3.99,1.09,8.13,1.68,12.21,2.3,5.77.93,11.61,1.68,17.44,2,5.82.24,11.91,1.15,17.44-1.21"/><path class="b" d="M8.35,152.77c6.09,0,12.22,0,18.31,0,.89-.04,1.85-.72,2.62-1.11,1.08-.57,2.37-1.21,3.49-1.69,3.79-1.68,8.09-2.52,12.21-1.75,3.74.58,7.1,2.52,10.47,4.13,1.55.81,3.54.29,5.23.43,2.29,0,4.69,0,6.98,0,1.4-.09,3.04.26,4.36-.3,2.55-1.1,5.11-2.53,7.85-3.12,3.99-.81,8.16-1.14,12.21-.64,6.96.63,13.92,4.26,20.93,2.19,12.73-3.82,16.08-3.67,28.78.06,4,.86,8.11,1.72,12.21,1.81,9.88,0,19.78,0,29.65,0"/><path class="b" d="M8.35,148.03c1.7,0,3.53,0,5.23,0,.8-.28,1.8-.76,2.62-1,3.73-.78,7.12-2.75,10.47-4.49,6.56-3.63,13.55-5.89,20.93-3.34,3.11.95,5.88,2.89,8.72,4.42,7.48,4.28,12.51,3.21,20.06.04,4.68-1.74,9.89-2.23,14.83-1.5,4.21.65,8.22,2.31,12.21,3.72,4.73,1.78,8.18,1.91,13.08.79,5.71-1.27,11.68-2.07,17.44-.7,1.72.36,3.55.88,5.23,1.37,1.36.48,2.91.81,4.36.69,13.37,0,26.75,0,40.12,0"/><path class="b" d="M8.35,143.3c2.17-1.97,4.38-4.14,6.98-5.54,1.37-.67,3.01-1.15,4.36-1.88,3.55-1.83,6.89-4.2,10.47-5.99,6.4-3.45,13.5-3.61,20.06-.49,4.12,2.11,7.81,5.18,12.21,6.75,3.61,1.37,7.64,1.25,11.34.29,9.85-3,16.33-1.9,25.29,2.96,2.56,1.33,5.16,2.8,7.85,3.86,1.4.06,2.96.02,4.36.03,2.88,0,5.84,0,8.72,0,3.16-.46,6.38-1.19,9.59-1.11,1.71,0,3.55.19,5.23.5,1.1.16,2.37.64,3.49.61,5.22,0,10.48,0,15.7,0,2.88-.06,5.86.14,8.72-.1,3.38-.94,6.93-1.84,10.47-1.66,2.37.12,4.76.86,6.98,1.65,1.07.18,2.4.09,3.49.11"/><path class="b" d="M8.35,136.07c2.17-2.23,4.42-4.61,6.98-6.41,2.72-1.56,5.43-3.32,7.85-5.32,8.74-7.09,15.05-10.6,26.16-5.98,7.32,3.43,13.18,8.71,21.8,8.64,3.18.07,6.42-.47,9.59-.33,9.34.58,16.59,7.25,24.42,11.62.74.35,1.82.28,2.62.27,1.09,0,2.4,0,3.49,0,3.47,0,7,0,10.47,0,1.7-.01,3.54.03,5.23-.03,1.68-.28,3.53-.43,5.23-.38,1.71.02,3.52.49,5.23.41,4.63,0,9.32,0,13.95,0,2.58,0,5.26,0,7.85,0,1.14-.37,2.4-1.07,3.49-1.57,8.79-4.33,12.7-3.87,20.93,1.37"/><path class="b" d="M8.35,130.21c1.97-2.01,4.02-4.18,6.1-6.06,2.3-1.96,4.87-3.81,6.98-6,4.55-4.35,9.18-9.68,15.7-10.78,8.17-1.05,17.4,5.47,25.29,7.59,4.23,1.3,8.7,1.71,13.08,2.11,8.3.38,15.18,5.45,21.8,9.95,2.54,1.72,5.18,3.48,7.85,4.98,1.36.63,2.81,1.84,4.36,1.83,3.17,0,6.42,0,9.59,0,2.3-.03,4.73.18,6.98-.43,2.26-.42,4.68-.61,6.98-.37,1.42.11,2.95.6,4.36.8,2.29,0,4.69,0,6.98,0,4.34,0,8.74,0,13.08,0,.83.07,1.96-.09,2.62-.67,1.08-.67,2.39-1.48,3.49-2.13,8.44-5.23,12.22-3.65,20.06,1.57"/><path class="b" d="M8.35,125.62c4.06-4.05,8.36-8,12.21-12.25,4.45-4.87,8.81-11.17,15.7-12.49,3.62-.6,7.18.84,10.47,2.19,2.51,1.02,5.2,1.83,7.85,2.37,9.21,2.02,19.35,0,27.91,4.68,5.11,2.71,9.82,6.21,14.83,9.11,4.73,2.81,9.79,5.15,14.83,7.35,4.21,1.54,8.76.26,13.08-.02,4.5-.44,9.06.52,13.08,2.55,2.29,0,4.69,0,6.98,0,4.34,0,8.74,0,13.08,0,.84.06,1.98-.04,2.62-.67,1.08-.72,2.39-1.57,3.49-2.25,2.84-1.71,6.18-3.46,9.59-2.74,3.36.89,6.52,2.58,9.59,4.15"/><path class="b" d="M8.35,121.74c5.1-4.52,9.73-9.67,13.95-15.02,6.15-7.54,11.73-13.47,21.8-8.2,5.94,3.17,10.07,3.37,16.57,2.08,15.58-3.36,16.88-.57,29.65,6.92,5.17,3.02,10.93,4.85,16.57,6.76,2.08.69,4.1,1.82,6.1,2.68,2.76,1.03,5.81,1.15,8.72,1.37,3.88.24,7.82,1.01,11.34,2.72,1.78.84,3.6,1.94,5.23,3.03,1.03.44,2.39.23,3.49.27,4.63,0,9.32,0,13.95,0,1.99,0,4.11,0,6.1,0,3.27-1.8,6.57-4.26,10.47-4.24,1.46.02,2.99.64,4.36,1.08,2.27.75,4.66,1.48,6.98,2.05"/><path class="b" d="M8.35,117.64c4.44-3.99,8.45-8.58,12.21-13.22,4.61-5.72,10.89-13.77,19.19-10.4,3.01,1.08,5.73,2.99,8.72,4.1,6.83,2.26,13.45-2.06,20.06-3.25,8.46-1.82,12.17,2.49,19.19,5.79,4.63,2.31,9.74,3.48,14.83,4.26,2.33.4,4.78.89,6.98,1.78,1.98.88,3.98,2.06,6.1,2.61,10.05,2.4,14.33,3.52,22.67,10.24,4.92.15,9.9.01,14.83.06,3.75-.08,7.59.16,11.34-.1,9.26-5.22,9.91-.57,19.19-.43"/><path class="b" d="M8.35,113.95c4.05-3.78,7.69-8.08,11.34-12.24,4.29-4.85,9.38-11.21,16.57-10.53,2.42.25,4.78,1.23,6.98,2.23,6.45,3.36,10.72,2.72,17.44.73,5.6-1.66,11.72-3.28,17.44-1.24,2.31.87,4.62,2.06,6.98,2.82,3.35,1.16,6.93,1.84,10.47,2.12,4.65.41,9.53.2,13.95,1.92,1.74.72,3.49,1.78,5.23,2.5,3.49,1.51,7.13,2.9,10.47,4.75,4.03,2.19,7.75,5.02,11.34,7.87,9.58,0,19.19,0,28.78,0,.85-.06,1.84-.66,2.62-.97,1.05-.44,2.36-.84,3.49-1,1.73-.29,3.54.26,5.23.56,2.27.38,4.68.5,6.98.39"/><path class="b" d="M8.35,110.15c.97-.4,1.89-1.51,2.62-2.24,1.43-1.49,2.98-3.2,4.36-4.73,5.91-6.44,12.88-15.07,22.68-13.32,3.79.53,7.47,2.2,11.34,2.11,4.98-.08,9.88-1.39,14.83-1.87,4.94-.55,10.02-.21,14.83,1.06,6.78,2.09,13.95,1.27,20.93,1.54,6.21.18,10.43,2.03,15.7,5.12,6.46,3.53,12.42,7.93,18.31,12.31,10.46.05,20.94,0,31.4.02,1.22.16,2.43-.35,3.49-.89,1.06-.45,2.36-.88,3.49-1.08,1.39-.26,2.96-.12,4.36-.09,2.29.05,4.69,0,6.98-.1"/><path class="b" d="M8.35,105.41c1.51.27,2.52-1.38,3.49-2.27,1.42-1.48,2.96-3.17,4.36-4.67,3.66-3.93,7.91-7.67,13.08-9.41,5.05-1.8,10.47-.94,15.7-1.01,2.03-.02,4.12-.56,6.1-.92,2.27-.41,4.67-.72,6.98-.8,6.8-.37,13.39,1.7,20.06,2.62,4.05.52,8.17-.18,12.21-.49,9.16-1.03,17.62,1.84,25.29,6.7,3.25,2.03,6.43,4.33,9.59,6.5,1.98,1.23,3.91,2.93,6.1,3.76,4.93,0,9.9,0,14.83,0,6.97,0,13.97,0,20.93,0,.85.15,1.86-.46,2.62-.78,1.06-.46,2.38-.94,3.49-1.25,3.39-.83,6.98-1.07,10.47-1.09"/><path class="b" d="M8.35,100.68c1.03.2,1.98-.59,2.62-1.29.8-.78,1.84-1.86,2.62-2.66,2.18-2.26,4.39-4.72,6.98-6.52,5.78-4.3,13.17-4.59,20.06-5.31,3.32-.32,6.52-1.41,9.59-2.63,4.23-1.4,8.87-1.05,13.08.23,5.44,1.48,10.76,4.7,16.57,4.06,2.61-.38,5.25-1.08,7.85-1.47,7.4-1.36,13.77,1.35,20.06,4.94,4.18,2.1,8.29,4.2,12.21,6.78,2.24,1.36,4.59,2.78,6.98,3.86,1.4,0,2.96,0,4.36,0,5.51,0,11.06,0,16.57,0,7.26,0,14.55,0,21.8,0,2.07-.47,4.05-1.67,6.1-2.25,2.5-.79,5.23-1.1,7.85-.96"/><path class="b" d="M8.35,95.94c2.95-1.92,5.26-4.9,7.85-7.27,5.6-5.93,12.47-6.17,20.06-6.66,2.93-.25,5.95-.75,8.72-1.76,2.35-.8,4.52-2.34,6.98-2.86,8.61-1.98,15.59,5.05,23.55,6.81,4.17.88,8.11-1.57,12.21-1.93,7.18-1.18,13.49,3.12,19.19,6.88,1.87,1.24,4.02,2.25,6.1,3.07,2.01.89,4.1,1.95,6.1,2.84.42.19,1.32.57,1.74.75,1.08.22,2.4.11,3.49.13,2.29,0,4.69,0,6.98,0,6.67,0,13.38,0,20.06,0,7.26,0,14.55,0,21.8,0,1.5.12,2.92-1.02,4.36-1.33,1.93-.58,4.09-.82,6.1-.72"/><path class="b" d="M8.35,89.55c3.64-2.85,6.69-6.55,10.47-9.23,5.16-3.48,11.61-2.34,17.44-2.02,3.82.2,7.8-.17,11.34-1.73,9.91-5.28,18,3.18,27.04,5.95,2.28.7,4.74.47,6.98-.25,2.26-.58,4.64-1.13,6.98-1.23,10.4-.57,16.46,8.18,26.16,10.17,1.99,0,4.11,0,6.1,0,4.93,0,9.9,0,14.83,0,2.6-.4,5.18-1.47,7.85-1.52,1.73-.05,3.58.32,5.23.82,1.06.37,2.34.82,3.49.7,10.46,0,20.94,0,31.4,0"/><path class="b" d="M8.35,81.56c10.39-8.04,11.6-10.83,25.29-7.2,3.4.82,6.95,1.53,10.47,1.29,2.36-.07,4.66-1,6.98-1.28,7.29-.82,13.7,3.48,20.06,6.35,6.72,3.17,8.96,1.58,15.7,1.25,2.91-.11,5.92.23,8.72,1.02,2.05.57,4.15,1.4,6.1,2.25,1.09.4,2.3,1.25,3.49,1.23,1.7,0,3.54,0,5.23,0,6.96-.1,13.99.21,20.93-.12,10.69-5.23,13.74-6.45,24.42.12,9.29.02,18.61,0,27.91,0"/><path class="b" d="M8.35,74.03c10.78-6.73,13.39-6.64,25.29-2.82,3.4,1.04,6.92,1.97,10.47,2.3,2.58.28,5.27-.02,7.85.23,7.49.59,14.13,4.43,20.93,7.27,1.87,1,4.07.7,6.1.73,2.88,0,5.84,0,8.72,0,8.42,0,16.87,0,25.29,0,5.51-.01,11.06.03,16.57-.02,3.15-1.78,6.24-3.86,9.59-5.24,3.3-1.45,7.14-1.32,10.47-.04,2.12.78,4.21,1.97,6.1,3.2,1.1.64,2.24,1.76,3.49,2.1,8.13,0,16.29,0,24.42,0"/><path class="b" d="M8.35,68.27c11.38-4.6,18.52-.78,29.65,1.34,6.43,1.2,12.9,2.41,19.19,4.22,2.02.58,4.13,1.28,6.1,2.02.79.29,1.84.7,2.62,1.01.77.19,1.83.15,2.62.15,17.44,0,34.89,0,52.33,0,2.59,0,5.26,0,7.85,0,1.23-.08,2.41-1.03,3.49-1.54,2.24-1.21,4.59-2.49,6.98-3.39,5.37-1.97,11.58-1.25,16.57,1.44,1.79.94,3.61,2.15,5.23,3.35.75.17,1.85.13,2.62.13,6.67,0,13.38,0,20.06,0"/><path class="b" d="M8.35,64.68c2.58-.42,5.27-.14,7.85.17,3.18.32,6.41.83,9.59,1.14,5.78.67,11.68.22,17.44,1.05,2.42.33,4.76,1.3,6.98,2.26,2.54,1,5.24,1.82,7.85,2.62,2.2.7,4.7.23,6.98.36,21.22,0,42.45,0,63.66,0,1.47.16,2.99-.4,4.36-.87,1.98-.66,4.08-1.38,6.1-1.92,3.11-.8,6.41-1.06,9.59-1.47,4.95-.6,9.92,1.03,13.95,3.87.97.64,2.39.34,3.49.4,1.39,0,2.97,0,4.36,0,4.34,0,8.74,0,13.08,0"/><path class="b" d="M8.35,62.8c2.96.12,5.84,1.2,8.72,1.8,3.42.71,7,.85,10.47.44,6.33-.58,12.88-3.64,19.19-1.44,3.11,1.46,6.24,3.11,9.59,3.95,6.67,0,13.38,0,20.06,0,14.53.03,29.08-.04,43.61,0,4.05,0,8.16,0,12.21,0,2.58-.06,5.28.17,7.85-.19,1.7-.24,3.56-.34,5.23-.75,2-.48,4.09-1.15,6.1-1.57,2.85-.62,5.94-.61,8.72.33,1.13.37,2.44.96,3.49,1.54.31.3,1.31.64,1.74.63,1.08,0,2.4,0,3.49,0,4.93,0,9.9,0,14.83,0"/><path class="b" d="M8.35,61.44c2.35.16,4.63,1.37,6.98,1.36,4.34-.1,8.76.2,13.08-.13,5.17-1.44,10.19-4.4,15.7-4.12,2.55.1,4.73,1.65,6.98,2.67,1.37.58,2.9,1.28,4.36,1.58,1.1,0,2.39,0,3.49,0,12.78,0,25.59,0,38.37,0,2.29,0,4.69,0,6.98,0,1.25.11,2.36-1.06,3.49-1.48,2.94-1.53,6.42-1.49,9.59-.85,2.92.57,5.85,1.51,8.72,2.28,3.75.12,7.58.01,11.34.05,4.05,0,8.16,0,12.21,0,1.99-.35,4.07-.96,6.1-.98,1.41-.05,2.99.11,4.36.45.77.19,1.81.63,2.62.54,6.97,0,13.97,0,20.93,0"/><path class="b" d="M8.35,58.06c7.84,0,15.71,0,23.55,0,3.46-1.05,6.75-3.11,10.47-3.33,3.65-.46,6.53,1.75,9.59,3.29,1.09.05,2.4.03,3.49.03,15.4,0,30.82,0,46.22,0,8.95-6,12.98-5.57,22.68-1.55,1.09.45,2.39.98,3.49,1.42.77.17,1.83.13,2.62.13,3.17,0,6.42,0,9.59,0,14.53,0,29.08,0,43.61,0"/><path class="b" d="M8.35,53.33c8.71,0,17.45,0,26.16,0,2.6-.56,5.1-1.82,7.85-1.78,1.44-.03,3.03.24,4.36.79.81.31,1.71,1.05,2.62,1,3.76,0,7.58,0,11.34,0,11.04,0,22.1,0,33.14,0,1.4,0,2.96,0,4.36,0,.83.05,1.92-.03,2.62-.54,5.05-2.66,10.8-5.08,16.57-3.49,3.62.83,7.08,2.41,10.47,3.88,1.97.33,4.11.08,6.1.15,3.47,0,7,0,10.47,0,13.08,0,26.17,0,39.25,0"/><path class="b" d="M8.35,48.59c21.8,0,43.61,0,65.41,0,8.42,0,16.87,0,25.29,0,1.75,0,3.52-.91,5.23-1.21,3.12-.73,6.38-1.35,9.59-1.33,3.87.06,7.71,1.1,11.34,2.38,1.96.37,4.11.09,6.1.17,17.44,0,34.89,0,52.33,0"/><path class="b" d="M8.35,43.86h175.29"/><path class="b" d="M8.35,39.12h175.29"/><path class="b" d="M8.35,34.39c20.64,0,41.28,0,61.92,0,2.29,0,4.69,0,6.98,0,1.96-.58,4.04-1.17,6.1-1.17,2.02-.06,4.15.21,6.1.69,1.37.5,2.92.54,4.36.48,18.89,0,37.8,0,56.69,0,6.38,0,12.8,0,19.19,0,3.17-.02,6.42.05,9.59-.04,1.38-.41,2.95-.86,4.36-1.19"/><path class="b" d="M8.35,29.65c20.05,0,40.12,0,60.18,0,1.63.18,2.98-1.29,4.36-1.95,3.12-1.89,6.91-2.93,10.47-1.72,1.79.52,3.62,1.39,5.23,2.31.77.43,1.75,1.14,2.62,1.36,7.55,0,15.13,0,22.67,0,8.71,0,17.45,0,26.16,0,8.13,0,16.29,0,24.42,0,3.76-.01,7.58.03,11.34-.02,2.6-.39,5.26-1,7.85-1.48"/><path class="b" d="M8.35,23.9c1.72.21,3.5,1,5.23,1.02,3.76,0,7.58,0,11.34,0,8.71,0,17.45,0,26.16,0,2.29,0,4.69,0,6.98,0,1.68-.15,3.89.5,5.23-.72,10.68-7.45,16.16-8.66,26.16.66,18.6.15,37.22,0,55.82.05,8.13,0,16.29,0,24.42,0,4.63-.11,9.35.22,13.95-.14"/><path class="b" d="M8.35,16.77c3.18,1.11,6.35,2.48,9.59,3.41,2.29,0,4.69,0,6.98,0,7.55,0,15.13,0,22.67,0,2.29,0,4.69,0,6.98,0,1.31-.18,2.41-1.43,3.49-2.12,11.67-9.13,19.36-9,29.65,1.95,1.37.32,2.96.12,4.36.17,2.59,0,5.26,0,7.85,0,7.26,0,14.55,0,21.8,0,20.64,0,41.28,0,61.92,0"/></svg>