<?xml version="1.0" encoding="UTF-8"?><svg id="a" xmlns="http://www.w3.org/2000/svg" width="1920" height="2400" viewBox="0 0 192 240"><defs><style>.b{fill:none;stroke:#fff;stroke-miterlimit:10;stroke-width:.4px;}.c{stroke-width:0px;}</style></defs><rect class="c" width="192" height="240"/><path class="b" d="M8.76,225.77c1.1,0,2.38,0,3.47,0,1.11-.44,2.35-1.07,3.47-1.46,6.08-1.55,11.86-4.65,18.23-4.86,11.2-.24,17.56,7.17,30.38,5.5,5.28-.56,10.35-2.5,15.63-3.11,4.6-.4,9.31.27,13.89-.48,3.93-.57,7.72-2.06,11.28-3.76,2.82-1.21,5.58-3.09,8.68-3.47,4.07-.24,7.8,1.98,11.28,3.81,4.58,2.5,9.42,5.13,14.76,5.28,5.96.37,11.35-4.11,17.36-2.63,3.24.71,6.1,2.7,8.68,4.69,0,0,.87.5.87.5.4,0,1.33,0,1.74,0,1.08,0,2.39,0,3.47,0,3.74,0,7.54,0,11.29,0"/><path class="b" d="M8.76,218.8c2.23-1.28,4.54-2.69,6.94-3.61,1.99-.65,4.13-1.21,6.08-1.97,7.17-2.83,13.43-3.91,20.83-1.14,12.86,4.52,19.39,9.82,33.85,7.93,6.04-.82,12.23.02,18.23-1.15,6.44-1.05,12.06-4.64,18.23-6.46,4.74-.9,9.42,1.04,13.89,2.36,6.39,2.09,13.49,3.11,19.97.79,4.15-1.48,8.82-2.45,13.02-.62,2.82,1.13,5.37,2.99,7.81,4.76.39.31,1.33.93,1.74,1.23,1.37.28,2.95.1,4.34.15,3.16,0,6.39,0,9.55,0"/><path class="b" d="M8.76,210.11c2.24-1.29,4.54-2.71,6.94-3.68,1.69-.61,3.55-1.13,5.21-1.83,6.85-2.92,12.81-4.36,19.97-1.41,4.71,2.02,9.58,3.95,13.89,6.76,4.3,2.7,8.81,5.49,13.89,6.38,1.99.03,4.09,0,6.08.01,3.18.14,6.39-.42,9.55-.69,6.44-.54,12.88-1.54,19.1-3.3,3.45-.88,6.89-2.16,10.42-2.74,4.32-.58,8.73.03,13.02.53,4.01.49,8.11.9,12.15.91,2.29,0,4.7,0,6.94-.48,4.25-.92,8.69-2.01,13.02-.98,6.15,1.24,11.1,5.97,17.36,6.74,2.28,0,4.67,0,6.94,0"/><path class="b" d="M8.76,203.53c1.98-1.03,4.04-2.19,6.08-3.11,1.96-.86,4.15-1.48,6.08-2.41,6.01-2.9,11.75-4.79,18.23-2.05,2.37.93,4.69,2.24,6.94,3.43,2.36,1.16,4.86,2.3,6.94,3.93,4.1,2.98,8.1,6.5,13.02,8.04,1.34.47,2.95.21,4.34.27,1.69,0,3.52.01,5.21-.01,2.28-.47,4.66-1.02,6.94-1.49,4.86-1.08,9.8-2.05,14.76-2.5,3.73-.36,7.55-.48,11.28-.79,4.31-.47,8.67-1.06,13.02-1.06,4.62-.06,9.29.26,13.89.76,3.16.28,6.37.93,9.55,1.01,5.2-.12,10.41-1.33,15.63-.74,5.26.55,10.36,2.16,15.63,3.09,2.31.51,4.53,1.94,6.94,1.73"/><path class="b" d="M8.76,199.81c2.01-.81,4.08-1.8,6.08-2.64,2-.81,4.18-1.53,6.08-2.57,4.02-2.1,8.33-4.48,13.02-4.08,4.12.31,7.8,2.52,11.29,4.55,2.95,1.63,6.09,3.13,8.68,5.34,3.43,2.59,6.96,5.66,11.29,6.51,1.99,0,4.09.01,6.08,0,1.11-.25,2.4-.67,3.47-1.07,5.08-1.97,10.27-3.93,15.63-5,3.71-.69,7.58-.51,11.29.16,2.57.44,5.21,1.08,7.81,1.34,1.98.19,4.09.07,6.08,0,6.38-.35,12.88-.22,19.1,1.4,3.5.78,6.91,2.17,10.42,2.87,2.55.42,5.25.32,7.81.04,5.77-.68,11.53-1.98,17.36-1.99,4.37-.13,8.72.79,13.02,1.45"/><path class="b" d="M8.76,198.59c3.51-1.02,7.05-2.27,10.42-3.7,2.91-1.45,5.67-3.39,8.68-4.66,5.89-2.71,11.3-.81,16.49,2.38,1.66.99,3.49,1.96,5.21,2.83,1.77,1.02,3.54,2.34,5.21,3.52,1.61,1.14,3.4,2.3,5.21,3.11,1.38.24,2.95.09,4.34.13,1.98-.06,4.11.15,6.08-.12.8-.34,1.85-.87,2.6-1.29,3.07-1.83,6.18-3.73,9.55-4.98,4.32-1.92,9.16-3.27,13.89-2.27,4.85.87,9.12,3.69,13.89,4.81,4.87.79,9.91.48,14.76,1.45,1.71.32,3.55.78,5.21,1.31.77.25,1.84.63,2.6.92.75.22,1.83.17,2.6.17,15.91,0,31.84.02,47.74-.03"/><path class="b" d="M8.76,197.49c1.4-.05,2.97.15,4.34-.17,2-.6,4.17-1.09,6.08-1.95,3.53-1.7,6.74-4.2,10.42-5.6,7.77-3.18,14.05,1.76,20.83,4.93,1.41.8,2.94,1.79,4.34,2.61.77.23,1.81.18,2.6.18,4.32,0,8.7,0,13.02,0,.95.13,1.86-.74,2.6-1.21,1.4-.98,2.92-2.12,4.34-3.06,3.19-1.99,6.79-3.56,10.42-4.56,7.44-2.03,13.66,2.42,19.97,5.62,2.67,1.36,5.77,1.66,8.68,2.15,2.87.45,5.75,1.3,8.68,1.07,19.38,0,38.78,0,58.16,0"/><path class="b" d="M8.76,192.78c4.61,0,9.28,0,13.89,0,2.29-.77,4.57-1.93,6.94-2.47,2.82-.71,5.86-.71,8.68,0,2.36.57,4.7,1.55,6.94,2.46,1.69.02,3.52,0,5.21,0,6.93,0,13.9.01,20.83,0,2.57-1.74,5.06-3.8,7.81-5.25,4.83-2.27,10.24-4.25,15.63-3.09,5.31,1.01,9.8,4.31,14.76,6.28,2.52.88,5.25,1.36,7.81,2.08,3.74,0,7.54,0,11.29,0,18.23,0,36.46,0,54.69,0"/><path class="b" d="M8.76,188.06c14.46,0,28.94,0,43.4,0,3.74,0,7.54,0,11.28,0,1.39,0,2.95,0,4.34,0,.82,0,1.89.1,2.6-.39,3.3-2.16,6.61-4.61,10.42-5.79,6.58-2.4,13.36-2.61,19.97-.18,2.9.97,5.78,2.25,8.68,3.22,3.21.9,6.44,1.93,9.55,3.14,6.35,0,12.74,0,19.1,0,15.04,0,30.1,0,45.14,0"/><path class="b" d="M8.76,183.35c15.04,0,30.1,0,45.14,0,4.03,0,8.12,0,12.15,0,.94.19,1.87-.6,2.6-1.07.77-.5,1.82-1.15,2.6-1.62,2.7-1.59,5.63-3.02,8.68-3.8,7.95-2.09,16.36-1.58,24.31.26,3.78.92,7.71,1.68,11.28,3.26,2.06.82,4.02,2.16,6.08,2.96.77,0,1.84,0,2.6,0,19.67,0,39.36,0,59.03,0"/><path class="b" d="M8.76,178.64c14.17,0,28.36,0,42.54,0,2.87,0,5.81,0,8.68,0,1.39-.07,2.99.18,4.34-.21.43-.34,1.3-1,1.74-1.32,9.22-7.07,20.23-6.82,31.25-6.35,12.51.46,15.55.73,26.04,7.88h59.9"/><path class="b" d="M8.76,173.92h52.95c3.44-2.77,6.94-5.74,11.29-6.97,3.37-.95,6.92-1.63,10.42-1.89,3.74-.16,7.54.15,11.29.2,13.51.28,16.42-1.56,27.78,7.26.43.31,1.3.95,1.74,1.26,1.37.26,2.95.09,4.34.14,3.16,0,6.39,0,9.55,0,15.05,0,30.09-.06,45.14,0"/><path class="b" d="M8.76,169.21c17.36,0,34.73,0,52.08,0,.58-.04,1.37-.65,1.74-1.07,1.05-.94,2.33-2.01,3.47-2.83,4.03-3.08,9.03-4.33,13.89-5.41,5.1-1.28,10.44-.53,15.63-.41,5.19.27,10.52-.09,15.63,1.07,3.59.92,6.66,3.31,9.55,5.52,1.4.97,2.73,2.51,4.34,3.13,5.19,0,10.43,0,15.63,0,6.06,0,12.17,0,18.23,0,2.24-.78,4.55-1.76,6.94-1.98,3.44-.34,7.04-.05,10.42.68,1.1.3,2.41.77,3.47,1.18,1.07.2,2.39.1,3.47.12"/><path class="b" d="M8.76,164.5c13.59,0,27.21,0,40.8,0,3.16,0,6.39,0,9.55,0,1.39-.07,2.99.19,4.34-.22.43-.39,1.29-1.15,1.74-1.51,3.51-3.01,7.75-5.13,12.15-6.49,2.25-.76,4.58-1.66,6.94-1.97,5.73-.78,11.59-.49,17.36-.54,13.06-.16,14.84,3.01,24.31,10.74,8.67,0,17.37,0,26.04,0,1.99,0,4.09,0,6.08,0,.97.06,1.84-.89,2.6-1.36,4.24-2.97,9.55-4.93,14.76-3.94,2.8.66,5.36,2.25,7.81,3.69"/><path class="b" d="M8.76,159.78c18.8,0,37.62,0,56.42,0,1.36.24,2.46-.98,3.47-1.68,1.05-.75,2.35-1.58,3.47-2.21,4.69-2.4,9.56-4.8,14.76-5.87,7.25-1.3,20.14-3.08,26.91-.51,5.29,2.15,9.59,6.18,13.89,9.83,1.23.8,2.95.32,4.34.44,2.28,0,4.67,0,6.94,0,6.35,0,12.74,0,19.1,0,4.75-3.97,9.8-9.3,16.49-8.97,3.26.37,6.08,2.45,8.68,4.29"/><path class="b" d="M8.76,155.07c16.49,0,32.99,0,49.48,0,4.32,0,8.7,0,13.02,0,1.67-.95,3.48-1.98,5.21-2.83,2.28-1.12,4.6-2.44,6.94-3.42,3.62-1.53,7.46-2.66,11.29-3.56,5.37-1.21,10.99-2.22,16.49-1.43,8.32,1.15,14.99,6.66,21.7,11.24,6.93,0,13.9,0,20.83,0,1.1-.06,2.47.22,3.47-.36,1.7-1.45,3.5-3.06,5.21-4.5,7.69-6.43,12.13-8.74,20.83-2.21"/><path class="b" d="M8.76,150.36c23.15,0,46.3,0,69.45,0,1.25.17,2.39-.96,3.47-1.43,1.66-.89,3.49-1.78,5.21-2.55,5.82-2.56,11.91-4.83,18.23-5.74,3.15-.51,6.39-.15,9.55.11,4.41.27,8.89.94,13.02,2.57,3.28,1.25,6.44,2.98,9.55,4.61,1.07.56,2.37,1.21,3.47,1.71.74.32,1.77.85,2.6.73,1.98,0,4.09,0,6.08,0,1.09-.05,2.44.16,3.47-.26,7.12-2.61,12.49-9.06,19.97-10.73,3.67-.58,7.25,1.17,10.42,2.83"/><path class="b" d="M8.76,145.64c19.09,0,38.2,0,57.29,0,7.51-.03,15.06.05,22.57-.03,5.3-2.39,10.78-4.64,16.49-5.81,2.54-.57,5.23-.58,7.81-.62,2.02-.16,4.11-.64,6.08-1.09,9.22-2.39,14.73-1.31,23.44,2.09,6.28,2.47,12.88,2.03,19.1-.42,3.42-1.21,6.81-2.81,10.42-3.4,3.82-.57,7.66.67,11.29,1.75"/><path class="b" d="M8.76,138.4c3.91-.64,7.74-1.25,11.28.99.8.44,1.77,1.17,2.6,1.54.46,0,1.28,0,1.74,0,23.72,0,47.46,0,71.18,0,1.99,0,4.09,0,6.08,0,1.11-.23,2.38-.72,3.47-1,2.79-.93,5.83-.93,8.68-1.52,5.37-1.51,10.14-4.79,15.63-5.96,6.52-1.68,12.77.77,19.1,2.02,3.7.69,7.54.84,11.28.48,4.04-.35,8.09-1.29,12.15-1.4,3.77-.01,7.54.84,11.29,1.14"/><path class="b" d="M8.76,128.05c9.39-2.17,12.08,2.44,18.23,8.16,24.59,0,49.19,0,73.79,0,4.61-.03,9.28.06,13.89-.04,4.16-1.59,8.01-4.01,12.15-5.64,8.75-3.76,16.21-1.49,25.17-.84,5.76.48,11.59.16,17.36.32,4.62.18,9.25,1.36,13.89.75"/><path class="b" d="M8.76,119.98c9.41-1.84,13.63,5.47,19.1,11.52,25.17,0,50.35,0,75.52,0,5.19-.11,10.46.22,15.63-.13,4.19-1.89,8.5-3.77,13.02-4.72,4.54-1,9.26-.98,13.89-1.16,6.06-.23,12.18-.43,18.23.04,2.88.22,5.84.61,8.68,1.16,3.39.82,6.98,1.07,10.42.45"/><path class="b" d="M8.76,115.24c8.22-.33,12.7,5.53,17.36,11.32,1.35.43,2.95.16,4.34.23,1.99,0,4.09,0,6.08,0,5.77,0,11.59,0,17.36,0,17.07,0,34.15,0,51.22,0,5.48,0,11.01,0,16.49,0,3.42-1.04,6.89-2.18,10.42-2.82,4-.79,8.13-1.17,12.15-1.84,5.14-.89,10.39-1.75,15.63-1.42,3.8.21,7.61.98,11.29,1.93,3.93,1.14,8.04,1.98,12.15,1.55"/><path class="b" d="M8.76,113.53c3.77.65,7.5,2.22,10.42,4.72.82.7,1.86,1.74,2.6,2.52.42.51,1.08,1.16,1.74,1.31,15.04,0,30.1,0,45.14,0,18.23,0,36.46,0,54.69,0,5.96-1.82,12.11-2.99,18.23-4.14,6.24-1.41,12.7-2.9,19.1-1.62,4.46.77,8.72,2.53,13.02,3.87,3.08.94,6.34,1.56,9.55,1.84"/><path class="b" d="M8.76,113.19c3.32.94,6.62,2.32,9.55,4.17,29.51,0,59.03,0,88.54,0,4.61,0,9.28,0,13.89,0,1.19.15,2.44-.47,3.47-.97,1.67-.75,3.5-1.53,5.21-2.19,4.47-1.75,9.16-3.07,13.89-3.91,11.95-2.42,18.41,2.36,28.65,6.98,3.73.24,7.55.03,11.29.09"/><path class="b" d="M8.76,111.65c1.41.27,2.96.63,4.34,1,3.45,0,6.97,0,10.42,0,7.22,0,14.48,0,21.7,0,21.12,0,42.25,0,63.37,0,4.03-.05,8.13.1,12.15-.06,6.95-4.52,14.18-9.35,22.57-10.47,6.6-1.11,13.01,1.78,18.23,5.62,1.41.99,2.96,2.15,4.34,3.18,1.01.66,2.15,1.95,3.47,1.74,4.61,0,9.28,0,13.89,0"/><path class="b" d="M8.76,107.94c37.03-.05,74.08.09,111.11-.05,9.04-6.75,20.23-15.14,32.12-11.35,6.19,2.19,10.74,7.24,15.63,11.39h15.63"/><path class="b" d="M8.76,103.22c1.4,0,2.94,0,4.34,0,1.92-.71,4-1.5,6.08-1.52,2.07,0,4.19.64,6.08,1.47,1.99.11,4.09.02,6.08.05,21.12,0,42.25,0,63.37,0,5.77,0,11.59,0,17.36,0,1.69,0,3.52,0,5.21,0,.78,0,1.87.07,2.6-.26,1.38-.97,2.93-2.04,4.34-2.95,5.25-3.51,11.14-6.11,17.36-7.28,3.39-.71,6.98-1.33,10.42-.59,4.32.89,8.04,3.62,11.29,6.48,1.74,1.42,3.32,3.37,5.21,4.59h14.76"/><path class="b" d="M8.76,98.51h3.47c7.55-6.54,13.41-5.56,21.7-1.08.46.23,1.29.7,1.74.94,1.08.25,2.38.12,3.47.15,2.58,0,5.24,0,7.81,0,13.59,0,27.21,0,40.8,0,10.41,0,20.84,0,31.25,0,1.22.17,2.44-.64,3.47-1.16,1.64-.83,3.47-1.63,5.21-2.24,3.9-1.42,8.08-2.05,12.15-2.75,3.23-.51,6.37-1.72,9.55-2.45,7.67-1.97,13.72,2.4,19.1,7.34.3.39,1.29,1.05,1.74,1.27,1.39,0,2.95,0,4.34,0,2.86,0,5.82,0,8.68,0"/><path class="b" d="M8.76,93.8c1.39-.07,2.99.18,4.34-.21,4.98-5.68,11.58-8.73,19.1-6.59,4.18,1.08,8.08,3.14,12.15,4.55,2.48.93,5.21,1.16,7.81,1.56,1.1.17,2.39.41,3.47.64,1.99.09,4.09.02,6.08.04,19.09,0,38.2,0,57.29,0,2.28-.03,4.67.06,6.94-.05,1.38-.27,2.94-.47,4.34-.58,3.15-.26,6.41-.17,9.55-.62,3.77-.45,7.07-2.56,10.42-4.18,8.95-4.65,14.88-.67,21.7,5.32,3.72.29,7.55.03,11.29.12"/><path class="b" d="M8.76,89.08h6.08c10.43-10.05,17.71-10.54,31.25-7.23,4.44.71,8.94,1.58,13.02,3.54,2.38,1.03,4.67,2.47,6.94,3.69,1.39,0,2.95,0,4.34,0,5.19,0,10.43,0,15.63,0,18.51,0,37.04,0,55.56,0,1.69-.15,3.79.48,5.21-.67,3.04-2.01,6.06-4.35,9.55-5.53,7.29-2.43,11.93,2.4,17.36,6.19,3.16,0,6.39,0,9.55,0"/><path class="b" d="M8.76,84.37c2.28,0,4.66,0,6.94,0,1.26-.63,2.35-1.96,3.47-2.8,8.84-7.46,18.23-9.41,29.51-7.99,5.63.49,10.98,2.78,15.63,5.95,2.38,1.43,4.48,3.57,6.94,4.84,4.03,0,8.12,0,12.15,0,13.02,0,26.05,0,39.06,0,5.77,0,11.59,0,17.36,0,3.15-.11,6.43.24,9.55-.17,3.29-2.66,6.92-5.54,11.29-5.94,4.59-.39,8.67,2.4,12.15,5.05.3.35,1.3.9,1.74,1.06.76,0,1.84,0,2.6,0,1.98,0,4.09,0,6.08,0"/><path class="b" d="M8.76,79.66h6.08c1.55-.89,2.86-2.48,4.34-3.5,2.38-1.82,5.07-3.41,7.81-4.63,8.38-3.56,17.85-5.32,26.91-3.97,7.91,1.36,14.01,7.05,19.97,11.99,25.44.3,50.93,0,76.39.1,8.77-7.57,14.1-7.53,23.44-.88,1.16,1.09,2.88.88,4.34.88,1.69,0,3.52,0,5.21,0"/><path class="b" d="M8.76,74.94c1.48-.03,3.31.32,4.34-1.02,5.64-5.19,9.74-7.34,17.36-8.47,4.61-.72,9.28-1.36,13.89-2.06,4.57-.63,9.39-1.24,13.89.11,6.53,1.95,11.45,7.03,16.49,11.35,24.87.24,49.78,0,74.65.09,7.98-7.06,13.32-8.11,22.57-2.39,1.37.8,2.91,1.68,4.34,2.35,2.28.09,4.66.02,6.94.04"/><path class="b" d="M8.76,68.65c10.5-8.08,10.87-9.33,24.31-7.51,3.44.37,6.98.38,10.42-.08,3.17-.38,6.36-1.18,9.55-1.4,6.32-.61,11.99,2.93,16.49,7.02,1.42,1.1,2.69,2.83,4.34,3.56.77,0,1.83,0,2.6,0,4.03,0,8.12,0,12.15,0,19.38,0,38.78,0,58.16,0,8.36-7.3,13.09-9.8,23.44-3.87,2.74,1.53,5.66,2.97,8.68,3.87,1.39,0,2.95,0,4.34,0"/><path class="b" d="M8.76,60.79c3.25-2.35,6.59-5.02,10.42-6.32,3.52-.84,7.11.51,10.42,1.61,3.62,1.27,7.41,2.44,11.29,2.5,4.7.24,9.21-1.69,13.89-1.65,4.17.02,8.08,2.01,11.28,4.55,1.13.88,2.42,2.01,3.47,2.98.61.78,1.62,1.19,2.6,1.05,3.74,0,7.54,0,11.28,0,20.25-.08,40.52.15,60.77-.08,9.66-9.72,14.9-11.51,26.91-4.07,3.73,2.12,7.98,3.29,12.15,4.16"/><path class="b" d="M8.76,55.26c3.16-2.33,6.54-4.88,10.42-5.79,3.93-.57,7.71,1.26,11.29,2.63,4.12,1.68,8.52,3.06,13.02,2.92,2.6,0,5.23-.65,7.81-.89,5.92-.68,11.38,2.43,15.63,6.29.43.26,1.24.49,1.74.39,1.09,0,2.38,0,3.47,0,2.57,0,5.24,0,7.81,0,13.59,0,27.21,0,40.8,0,4.61,0,9.28,0,13.89,0,2.57-.1,5.28.23,7.81-.17,6.87-6.53,13.49-13.31,23.44-8.03,2.63,1.29,5.15,3,7.81,4.24,3.03,1.34,6.31,2.25,9.55,2.9"/><path class="b" d="M8.76,50.32c3.31-2.42,7.05-5.03,11.28-5.23,3.63-.06,7.1,1.41,10.42,2.71,3.91,1.59,7.95,3.18,12.15,3.78,2.56.42,5.23.31,7.81.28,2.33.04,4.75.46,6.94,1.27,2.14.66,4.03,2.15,6.08,2.96,3.74,0,7.54,0,11.29,0,22.28,0,44.56,0,66.84,0,4.09-2.99,7.57-6.96,12.15-9.25,6.2-3.3,11.94-.38,17.36,2.94,3.84,2.18,7.99,3.99,12.15,5.45"/><path class="b" d="M8.76,45.65c2.87-1.94,6.06-3.78,9.55-4.23,8.35-.8,15.74,4.26,23.44,6.69,4.48,1.63,9.35,1.85,13.89,3.28,4.03,0,8.12,0,12.15,0,24.88-.05,49.78.09,74.65-.05,10.13-7.17,14.92-14.81,27.78-6.53,2.23,1.41,4.7,2.62,6.94,4.01,1.39.82,2.86,1.91,4.34,2.56.42,0,1.31,0,1.74,0"/><path class="b" d="M8.76,41.08c8.09-4.9,16.95-3.6,25.17.2,2.62,1.18,5.25,2.56,7.81,3.85,1.35.59,2.8,1.67,4.34,1.53,5.77,0,11.59,0,17.36,0,25.17,0,50.35,0,75.52,0,1.69,0,3.52,0,5.21,0,1.23-.45,2.42-1.51,3.47-2.26,8.08-6.42,13.37-8.55,22.57-2.37,2.25,1.5,4.81,2.77,6.94,4.45,1.95.39,4.1.09,6.08.18"/><path class="b" d="M8.76,36.61c3.32-1.24,6.86-2.1,10.42-1.9,5.1-.04,10.21,1.12,14.76,3.44,2.05,1.01,4.14,2.25,6.08,3.47,1.02.54,2.36.28,3.47.34,1.99,0,4.09,0,6.08,0,28.06,0,56.14,0,84.2,0,4.03,0,8.12,0,12.15,0,1.28.2,2.46-.88,3.47-1.51,1.05-.69,2.36-1.49,3.47-2.08,7.37-4.12,12.89-.69,19.1,3.59h11.29"/><path class="b" d="M8.76,32.36c3.4-.75,6.94-1.14,10.42-.71,3.53.26,7.12.88,10.42,2.18,8.87,3.74,3.49,3.48,13.89,3.4,17.36,0,34.73,0,52.08,0,.43,0,1.3,0,1.74,0,1.14-.32,2.36-1.06,3.47-1.46,2.45-.96,5.18-1.5,7.81-1.24,1.44.14,3.02.53,4.34,1.12,1.12.44,2.28,1.36,3.47,1.58,5.48,0,11.01,0,16.49,0,5.48,0,11.01,0,16.49,0,2.79-1.04,5.61-2.49,8.68-2.35,1.43.03,3.01.36,4.34.86,1.12.38,2.33,1.18,3.47,1.49,5.77,0,11.59,0,17.36,0"/><path class="b" d="M8.76,28.44c5.86-.79,11.74.49,17.36,2.07,1.73.52,3.56,1.21,5.21,1.95.78.09,1.82.07,2.6.07,18.8,0,37.62,0,56.42,0,1.39,0,2.95,0,4.34,0,.83.01,1.91.11,2.6-.46,4.26-2.85,9.69-4.8,14.76-3.04,1.46.5,3,1.3,4.34,2.06,1.06.52,2.22,1.62,3.47,1.44,6.64,0,13.32,0,19.97,0,14.46,0,28.94,0,43.4,0"/><path class="b" d="M8.76,24.36c2.9-.11,5.92.11,8.68,1.02,1.7.53,3.52,1.11,5.21,1.66,1.08.35,2.32.88,3.47.77,19.96,0,39.94,0,59.9,0,4.03-.05,8.13.09,12.15-.06,4.64-2.85,10.47-3.87,15.63-1.81,1.41.5,2.96,1.14,4.34,1.72,2.25.34,4.67.07,6.94.15,4.9,0,9.85,0,14.76,0,14.46,0,28.94,0,43.4,0"/><path class="b" d="M8.76,19.68c2.63-.05,5.36.34,7.81,1.33,1.41.59,2.95,1.32,4.34,1.96.78.17,1.81.13,2.6.13,17.36,0,34.73,0,52.08,0,6.64,0,13.32,0,19.97,0,2.57,0,5.24,0,7.81,0,1.39-.08,2.94-.39,4.34-.34,1.09.01,2.4.14,3.47.33,2.28.01,4.66,0,6.94,0,5.77,0,11.59,0,17.36,0,15.91,0,31.83,0,47.74,0"/><path class="b" d="M8.76,14.24c4.45-.29,8.54,1.77,12.15,4.15h162.33"/></svg>