<?xml version="1.0" encoding="UTF-8"?><svg id="a" xmlns="http://www.w3.org/2000/svg" width="1920" height="2400" viewBox="0 0 192 240"><defs><style>.b{fill:none;stroke:#fff;stroke-miterlimit:10;stroke-width:.4px;}.c{stroke-width:0px;}</style></defs><rect class="c" width="192" height="240"/><path class="b" d="M8.37,232.93c4.34,0,8.74,0,13.08,0,2.01-.67,4.03-1.69,6.1-2.18,3.96-1.08,8.17-1.1,12.21-.52,6.64,1.17,13.41,1.54,20.05,2.68,5.51.04,11.06,0,16.57.02,2.88,0,5.84,0,8.72,0,.89.16,1.87-.47,2.62-.86,1.09-.58,2.38-1.27,3.49-1.81,3.99-2.06,8.72-3.07,13.08-1.63,3.4.91,6.29,3.18,9.59,4.3,1.7,0,3.53,0,5.23,0,.77,0,1.84,0,2.62,0,1.43-.34,2.99-.91,4.36-1.44,3.67-1.42,7.35-3.34,11.34-3.62,1.42-.09,3.03.13,4.36.65,1.11.48,2.37,1.21,3.49,1.67,2.47,1.06,5.19,1.72,7.85,2.13,4.3.79,8.73.61,13.08.61,5.8,0,11.64,0,17.44,0"/><path class="b" d="M8.37,228.2c2.29,0,4.68,0,6.98,0,3.14-1.35,6.21-3.12,9.59-3.85,7.29-2.02,14.63.45,21.8,1.79,7.22,1.02,14.57.58,21.8-.15,2.58-.24,5.25-.49,7.85-.57,2-.1,4.12.19,6.1-.12,3.52-.57,6.93-1.94,10.46-2.43,3.5-.55,7.16-.07,10.46,1.19,2.98,1.08,5.8,2.73,8.72,3.95,1.66.39,3.54.11,5.23.19,1.09-.02,2.41.09,3.49-.13,1.11-.33,2.42-.81,3.49-1.26,5.5-2.2,11.28-6.37,17.44-4.46,2.31.94,4.64,2.14,6.98,3.01,1.97.78,4.1,1.54,6.1,2.22,1.34.63,2.89.69,4.36.63,8.13,0,16.29,0,24.41,0"/><path class="b" d="M8.37,222.95c11.91-5.36,18.78-6.33,31.39-2.52,6.95,2.17,13.71,3.52,20.93,1.77,5.01-1.05,9.79-3.17,14.82-4.15,2.27-.5,4.68-.29,6.98-.29,3.47-.06,7.02-.23,10.46.27,3.28.45,6.52,1.47,9.59,2.67,2.57.93,5.15,2.25,7.85,2.76,2.29,0,4.69,0,6.98,0,3.39-.51,6.51-2.42,9.59-3.84,11.17-5.72,14.44-4.94,25.29.81,1.71.91,3.55,1.94,5.23,2.89,1.07.23,2.4.11,3.49.14,7.55,0,15.12,0,22.67,0"/><path class="b" d="M8.37,213.87c9.59-1.71,19.42-.51,28.77,1.9,3.77.92,7.57,1.96,11.34,2.89,1.7.12,3.53.03,5.23.06,2,0,4.11,0,6.1,0,.78,0,1.84,0,2.62,0,.79-.2,1.85-.53,2.62-.79,5.41-1.77,10.67-5.11,16.57-4.51,4.15.22,8.27,1.17,12.21,2.46,2.9.87,5.77,2.17,8.72,2.84,3.17,0,6.42,0,9.59,0,1.4,0,2.96,0,4.36,0,.78-.3,1.85-.76,2.62-1.12,7.87-3.74,16.19-9.28,25.29-7.11,5.51,1.49,10.15,5.12,14.82,8.23h24.41"/><path class="b" d="M8.37,206.29c5.31.85,10.38,2.94,15.69,3.83,6.03,1.25,12.23,1.54,18.31,2.43,2.03.32,4.15.77,6.1,1.41,4.34.06,8.74,0,13.08.02,4.05-.04,8.16.08,12.21-.05,1.38-.46,2.93-.93,4.36-1.19,2.58-.48,5.31-.17,7.85.4,1.69.42,3.47,1.02,5.23.84,5.51,0,11.06,0,16.57,0,1.7,0,3.53,0,5.23,0,1.1-.05,2.45.17,3.49-.27,9.51-5.64,16.49-9.04,27.9-8.73,4.88.59,9.05,3.64,13.08,6.24,1.39.89,2.89,2,4.36,2.76,2.29,0,4.69,0,6.98,0,4.92,0,9.9,0,14.82,0"/><path class="b" d="M8.37,200.84c4.75,2.05,8.86,5.6,13.95,6.89,7.14,2.21,14.54-.2,21.8.2,1.11.09,2.42.33,3.49.66.45.14,1.31.47,1.74.65.44,0,1.31.02,1.74.01,6.96,0,13.96,0,20.93,0,14.53,0,29.07,0,43.6,0,7.25-4.87,12.87-7.88,21.8-8.48,2-.18,4.12-.4,6.1-.74,1.72-.2,3.58.07,5.23.57,4.63,1.44,8.76,4.2,13.08,6.33,1.94.85,3.97,2.12,6.1,2.32,2.88,0,5.84,0,8.72,0,1.09,0,2.4,0,3.49,0,1.1-.29,2.39-.75,3.49-1.07"/><path class="b" d="M8.37,197.47c2.12,1.22,4.16,2.82,6.1,4.3,1.58,1.03,3.2,2.92,5.23,2.76,4.63,0,9.32,0,13.95,0,2.89-.03,5.87.17,8.72-.36,1.71-.18,3.58-.11,5.23.36.79,0,1.83,0,2.62,0,13.95,0,27.91,0,41.85,0,6.09,0,12.22,0,18.31,0,1.69-.06,3.56.15,5.23-.14.76-.57,1.83-1.33,2.62-1.88,6.78-4.86,12.73-6.36,20.93-6.98,2.02-.16,4.08-.82,6.1-.91,5.24-.06,10.06,2.51,14.82,4.38,4.68,1.92,9.71,3.51,14.82,3.15,2.9-.23,5.82-.96,8.72-1.14"/><path class="b" d="M8.37,194.6c1.79,1.04,3.59,2.37,5.23,3.64.79.53,1.62,1.49,2.62,1.56,5.51,0,11.06,0,16.57,0,12.49,0,25,0,37.49,0,15.11-.08,30.25.16,45.34-.09,7.34-5.51,13.65-7.71,22.67-8.92,2.34-.33,4.67-1.14,6.98-1.61,2.27-.4,4.69-.41,6.98-.17,5.91.63,11.59,2.67,17.44,3.63,4.61.81,9.44.22,13.95,1.66"/><path class="b" d="M8.37,191.43c2.1,1.01,4.16,2.36,6.1,3.63,27.03,0,54.06,0,81.09,0,4.05,0,8.16,0,12.21,0,2.28-.1,4.73.23,6.98-.18,2.72-1.88,5.68-3.59,8.72-4.91,5-2.24,10.46-3.23,15.7-4.71,4.9-1.54,9.61-4.03,14.82-4.38,5.64-.58,11.19,1.06,16.57,2.56,1.97.58,4.14.84,6.1,1.4,2.47.75,4.85,2.06,6.98,3.5"/><path class="b" d="M8.37,187.74c2.07.67,4.15,1.63,6.1,2.58,3.47,0,7,0,10.46,0,7.26,0,14.54,0,21.8,0,21.5-.04,43.02.07,64.52-.04,3.65-2.84,7.86-5.01,12.21-6.54,4.58-1.64,9.39-2.73,13.95-4.4,6.3-2.09,11.59-6.92,18.31-7.76,5.6-.76,10.8,2.03,15.7,4.36,1.66.82,3.61,1.32,5.23,2.2,2.56,1.42,4.86,3.46,6.98,5.47"/><path class="b" d="M8.37,183.55c2.03.33,4.16.81,6.1,1.51,1.32.67,2.93.53,4.36.53,9,0,18.03,0,27.03,0,20.05,0,40.11,0,60.16,0,2.71-1.72,5.04-4.18,7.85-5.77,6.67-3.99,14.68-4.52,21.8-7.39,3.05-1.18,6.01-2.79,8.72-4.61,3.44-2.26,7.1-4.8,11.34-5.05,5.78-.31,10.42,3.83,14.82,7,1.85,1.47,4.16,2.44,6.1,3.76,2.54,1.86,4.82,4.26,6.98,6.54"/><path class="b" d="M8.37,179.07c3.25.05,6.59.47,9.59,1.79,2.29,0,4.68,0,6.98,0,16.56,0,33.14,0,49.7,0,5.51,0,11.06,0,16.57,0,1.7,0,3.53,0,5.23,0,1.1-.05,2.46.19,3.49-.3,4.54-2.93,8.63-6.58,13.08-9.62,2.63-1.64,5.7-2.62,8.72-3.26,5.61-1.13,11.42-2.01,16.57-4.65,5.07-2.32,9.16-6.93,14.82-7.84,7.5-.83,12.47,6.23,17.44,10.72,1.74,1.81,4.09,3.07,6.1,4.54,2.48,1.96,4.75,4.37,6.98,6.6"/><path class="b" d="M8.37,174.33c2.59-.11,5.32-.11,7.85.54,1.13.3,2.41.78,3.49,1.23,1.1.03,2.39.02,3.49.02,20.05,0,40.11,0,60.16,0,2-.02,4.11.04,6.1-.03,3.26-1.31,6.54-2.81,9.59-4.56,3.31-1.89,6.51-4.11,9.59-6.35,2.41-1.79,4.93-3.72,7.85-4.61,5.65-1.8,11.78-1.44,17.44-3.2,3.06-.9,6.04-2.31,8.72-4.03,3.13-2.03,6.58-4.31,10.46-4.14,7.37.7,11.84,8.16,16.57,13.05,1.01,1.12,2.31,2.4,3.49,3.33,1.04.79,2.45,1.52,3.49,2.31,2.39,1.77,4.69,3.87,6.98,5.77"/><path class="b" d="M8.37,168.7c3.47-.27,7.07-.37,10.46.51,2.05.51,4.14,1.27,6.1,2.05,1.39.24,2.96.09,4.36.13,11.33,0,22.68,0,34.01,0,3.76,0,7.58,0,11.34,0,1.4,0,2.96,0,4.36,0,.83.02,1.91.05,2.62-.46,9.81-4.43,19.59-9.02,28.77-14.67,3.06-2.07,6.82-2.75,10.46-2.73,6.77.13,13.1-.17,19.18-3.53,2.33-1.19,4.56-2.8,6.98-3.83,11.68-5,18.12,10.41,25.29,16.76,1.22,1.18,2.93,2.05,4.36,2.94,2.26,1.41,4.61,2.92,6.98,4.16"/><path class="b" d="M8.37,163.18c4.92-.21,9.99-.9,14.82.38,2.03.49,4.13,1.19,6.1,1.89,1.67.59,3.41,1.42,5.23,1.2,9.29,0,18.61,0,27.9,0,3.17,0,6.42,0,9.59,0,1.98-.13,4.22.35,6.1-.38,8.16-3.41,15.42-8.7,23.54-12.21,2.55-1.16,5.23-2.24,7.85-3.22,2.18-.93,4.59-1.58,6.98-1.38,3.48.2,6.97,1.08,10.46,1.13,8.12.29,13.2-4.1,20.05-7.2,11.74-4.61,18.09,10.85,25.29,17.25,3.17,2.7,7.31,4.3,11.34,5.24"/><path class="b" d="M8.37,158.57c3.51.1,7.03-.4,10.46-1.03,7.27-.83,14.06,2.52,20.93,4.31,12.19.21,24.42,0,36.62.08,4.98-.43,9.81-4.59,13.95-7.2,5.24-3.62,11.08-6.61,17.44-7.58,2.86-.54,5.88-.97,8.72-.07,12.98,4.18,15.51,2.72,27.03-3.74,2.92-1.54,6.21-3.05,9.59-2.56,7.76,1.46,12.25,9.79,17.44,15.03,3.21,3.75,8.2,5.61,13.08,5.39"/><path class="b" d="M8.37,155.25c2,.14,4.13.15,6.1-.24,1.46-.28,2.95-.98,4.36-1.4,4.22-1.32,8.77-1.24,13.08-.42,4.06.73,8.08,2.03,12.21,2.39,3.19.3,6.4-.74,9.59-.27,3.52.28,6.98,1.43,10.46,1.88,4.34,0,8.74,0,13.08,0,.78,0,1.84.01,2.62-.03.81-.27,1.87-.75,2.62-1.16,2.43-1.36,4.73-3.15,6.98-4.78,7.5-5.68,13.2-7.8,22.67-6.69,3.36.56,6.39,2.4,9.59,3.46,4.26,1.64,9.09,1.19,13.08-.99,4.86-2.6,9.47-5.94,14.82-7.48,3.63-1.07,7.54.11,10.46,2.38,4.89,3.59,8.27,8.94,13.08,12.61,2.98,2.15,6.91,2.59,10.46,2.01"/><path class="b" d="M8.37,152.45c10.12.04,5.29.46,13.95-3.09,4.7-1.82,9.82-2.35,14.82-2.13,2.88.09,5.84.32,8.72.16,2.9-.32,5.83-.76,8.72-.03,7.29,1.55,14.15,5.67,21.8,5.09,4.63.25,8.55-2.68,12.21-5.14,4.83-3.4,10.47-6.41,16.57-5.76,2.61.26,5.32.68,7.85,1.39,2.39.83,4.68,2.19,6.98,3.23,4.11,2.05,8.89,2.49,13.08.4,2.74-1.24,5.27-3.08,7.85-4.6,1.93-1.1,4.09-2.04,6.1-2.96,7.53-3.56,12.93-.17,18.31,5.21,2.86,2.55,6.67,7.64,10.46,8.24,2.58,0,5.26,0,7.85,0"/><path class="b" d="M8.37,147.71c4.05,0,8.16,0,12.21,0,.54-.04,1.34-.47,1.74-.8,1.09-.72,2.37-1.56,3.49-2.24,2.48-1.52,5.14-2.94,7.85-4,3.61-1.44,7.49-2.22,11.34-2.68,2.28-.26,4.68-.73,6.98-.4,7.29,1.08,13.67,5.45,20.93,6.7,9.21,1.92,13.63-3.06,21.8-5.21,4.61-1.25,9.44-.41,13.95.84,8.9,1.46,14.17,8.03,23.54,4.12,3.04-1.24,5.82-3.19,8.72-4.71,1.92-.96,4.09-1.69,6.1-2.42,8.92-3.37,14.87,2.4,20.93,8.12,3.12,2.86,2.64,2.78,6.98,2.69,2.88,0,5.84,0,8.72,0"/><path class="b" d="M8.37,142.98c4.63,0,9.32,0,13.95,0,1.49.27,2.51-1.24,3.49-2.1,1.37-1.31,2.92-2.75,4.36-3.99,4.83-4.27,10.84-7.63,17.44-7.68,7.38-.19,13.93,4.04,20.93,5.8,3.94,1.1,8.11,1.64,12.21,1.45,3.2-.21,6.4-.98,9.59-1.25,3.19-.3,6.49-.05,9.59.73,2.94.72,5.84,1.86,8.72,2.75,1.97.61,4.13.93,6.1,1.52,4.77,1.47,9.97,2.38,14.82.75,5.33-1.63,10.03-5.2,15.69-5.71,10.15-2.01,14.94,2.31,22.67,7.73h15.7"/><path class="b" d="M8.37,138.25h14.82c2.27-1.8,4.01-4.44,6.1-6.45,4.33-4.59,9.91-9.07,16.57-8.76,5.76.19,11.08,2.81,16.57,4.26,9.06,2.65,18.67,2.01,27.9,3.68,3.9.74,7.7,2.17,11.34,3.75,3.37,1.42,6.8,3.07,10.46,3.53,3.46,0,7,0,10.46,0,3.61.18,7.08-1.37,10.46-2.43,2.25-.76,4.62-1.56,6.98-1.9,1.69-.27,3.54-.05,5.23.08,3.51.24,7.09.7,10.46,1.73,2.37.61,4.64,1.88,6.98,2.52,6.96,0,13.96,0,20.93,0"/><path class="b" d="M8.37,133.51c4.31-.11,8.8.23,13.08-.15,6.23-6.63,13.17-16.47,23.54-14.34,6.21,1.24,11.99,4.3,18.31,5.09,4.6.72,9.32.26,13.95.59,3.84.42,7.66,1.48,11.34,2.62,3.26,1.06,6.48,2.45,9.59,3.9,1.09.51,2.39,1.11,3.49,1.61.74.37,1.77.8,2.62.68,4.34,0,8.74,0,13.08,0,3.76,0,7.58,0,11.34,0,3.15-.58,6.36-1.39,9.59-1.22,2.06.02,4.14.66,6.1,1.22,3.76,0,7.58,0,11.34,0,9.29,0,18.61,0,27.9,0"/><path class="b" d="M8.37,128.78c1.7,0,3.53,0,5.23,0,1.89,0,2.9.27,4.36-1.15,7.44-6.28,14.24-16.15,25.29-11.8,12.2,4.81,15.94,7.57,29.65,5.86,1.7-.13,3.54-.19,5.23.03,1.74.25,3.55.86,5.23,1.34,3.83,1.15,7.64,2.58,11.34,4.1,1.4.51,2.89,1.35,4.36,1.61,1.4,0,2.96,0,4.36,0,26.74,0,53.48,0,80.22,0"/><path class="b" d="M8.37,124.04c.81,0,1.85.07,2.62-.23.79-.56,1.83-1.34,2.62-1.9,3.92-2.65,7.53-5.83,11.34-8.63,7.28-5.27,12.77-3.95,20.05.3,3.06,1.67,6.35,3.04,9.59,4.31,4.14,1.59,8.66,2.24,13.08,1.88,3.17-.2,6.41-.79,9.59-.58,1.75.11,3.55.7,5.23,1.13,2.59.67,5.27,1.36,7.85,2.04,2.87.66,5.73,1.94,8.72,1.69,28.19,0,56.39,0,84.58,0"/><path class="b" d="M8.37,117.57c3.71-2.84,7.52-5.65,11.34-8.34,4.93-3.7,10.48-6.58,16.57-3.72,3.45,1.51,6.43,4,9.59,6.01,2.47,1.5,5.27,2.6,7.85,3.9,4.6,2.25,9.67,3.7,14.82,3.6,2.59,0,5.26-.24,7.85-.14,1.71.04,3.51.55,5.23.42,6.67,0,13.38,0,20.05,0,27.32,0,54.65,0,81.96,0"/><path class="b" d="M8.37,110.98c3.63-3.02,7.35-6.05,11.34-8.58,4.1-2.86,9.14-4.8,13.95-2.47,4.32,1.96,7.65,5.56,11.34,8.44,1.8,1.51,4.07,2.47,6.1,3.58,1.41.78,2.95,1.68,4.36,2.45,2.55.37,5.27.06,7.85.16,11.04,0,22.1,0,33.13,0,29.06,0,58.13,0,87.2,0"/><path class="b" d="M8.37,106.41c5.08-4.35,10.3-8.95,16.57-11.49,4.71-1.83,9.53.51,13.08,3.63,2.67,2.22,5.13,4.87,7.85,7.03,2.14,1.64,4.76,2.72,6.98,4.25h130.79"/><path class="b" d="M8.37,103.32c3.61-3.07,7.31-6.12,11.34-8.64,3.99-2.88,9.05-5.57,13.95-3.32,4.43,1.92,7.71,5.72,11.34,8.79,1.28,1.12,2.85,2.16,4.36,2.95,1.12.6,2.28,1.6,3.49,2.01,3.17,0,6.42,0,9.59,0,10.75,0,21.52,0,32.26,0,29.64,0,59.3,0,88.94,0"/><path class="b" d="M8.37,100.18c2.04-1.43,4.09-3.09,6.1-4.55,1.97-1.39,4.19-2.66,6.1-4.14,5.61-4.31,10.95-6.93,17.44-2.48,2.77,1.81,5.24,4.21,7.85,6.25,2.48,1.84,5.34,3.3,7.85,5.12,20.05,0,40.11,0,60.16,0,6.67,0,13.38,0,20.05,0,2.88-.05,5.85.11,8.72-.08,2.34-.48,4.67-1.4,6.98-1.98,3.13-.85,6.58-.85,9.59.42,1.43.46,2.79,1.81,4.36,1.64,6.67,0,13.38,0,20.05,0"/><path class="b" d="M8.37,95.35c2.07-1.08,4.12-2.43,6.1-3.65,1.7-1.04,3.63-1.98,5.23-3.17,5.15-3.82,10.82-8.37,17.44-4.98,3.85,1.85,6.92,5.03,10.46,7.37,1.42.85,2.99,1.83,4.36,2.76,1.08.64,2.22,1.73,3.49,1.96,4.34,0,8.74,0,13.08,0,13.36,0,26.75,0,40.11,0,5.22,0,10.48,0,15.7,0,1.7,0,3.54,0,5.23,0,1.1-.04,2.46.17,3.49-.3,5.15-1.79,10.43-3.3,15.7-4.7,6.09-1.64,11.21,1.01,15.69,5h19.18"/><path class="b" d="M8.37,90.9c2.12-.15,4.13-1.47,6.1-2.21,2.07-.85,4.28-1.7,6.1-3.03,7.56-5.45,12.91-9.53,21.8-3.59,2.59,1.74,5.24,3.57,7.85,5.27,1.73,1.1,3.33,2.76,5.23,3.55,9.29,0,18.61,0,27.9,0,9.87,0,19.77,0,29.65,0,15.55-.1,7.93,1.16,21.8-4.83,3.33-1.44,6.88-2.48,10.46-3.07,4.08-.89,8.51-.69,12.21,1.39,1.84.98,3.65,2.33,5.23,3.68,1.36.93,2.52,3.04,4.36,2.83,5.51,0,11.06,0,16.57,0"/><path class="b" d="M8.37,86.17c2.68.23,5.27-.79,7.85-1.32,3.28-.53,6.03-2.7,8.72-4.49,4.02-2.81,8.9-5.54,13.95-4.21,2.83.69,5.44,2.27,7.85,3.85,2.83,1.71,5.35,4.02,7.85,6.16h66.27c8.97-6.12,18.13-13,29.65-10.53,6.58,1.43,11.6,6.31,16.57,10.53h16.57"/><path class="b" d="M8.37,81.08c3.17-.44,6.4-.88,9.59-1.05,3.54-.72,6.52-3.06,9.59-4.83,3.62-2.21,7.89-4.06,12.21-3.19,5.57,1.19,10.21,5.02,13.95,9.15,1.04.46,2.39.23,3.49.28,1.4,0,2.96,0,4.36,0,19.18,0,38.37,0,57.55,0,4.98-3.92,9.77-8.41,15.69-10.89,9.88-4.34,19.98.92,27.9,6.85,2,1.28,3.88,3.17,6.1,4.03,4.92,0,9.9,0,14.82,0"/><path class="b" d="M8.37,74.45c1.98-.36,4.09-.73,6.1-.8,1.1-.06,2.39.13,3.49.12,1.13-.05,2.43-.38,3.49-.77,4.43-1.7,8.4-4.68,13.08-5.72,7.68-1.84,14.76,3.56,19.18,9.35,14.23.19,28.49,0,42.73.07,4.63,0,9.32,0,13.95,0,2,0,4.11,0,6.1,0,.45.04,1.31-.05,1.74-.16.44-.37,1.31-1.12,1.74-1.49,7.17-6.34,15.1-12.7,25.29-10.07,6.23,1.49,11.82,4.85,17.44,7.81,1.68.9,3.51,1.84,5.23,2.66,1.07.45,2.3,1.24,3.49,1.27,4.05,0,8.16,0,12.21,0"/><path class="b" d="M8.37,67.5c1.95-.6,4.06-1.15,6.1-1.26,1.1-.08,2.39.14,3.49.18,1.12,0,2.42-.24,3.49-.56,4.68-1.44,9-4.24,13.95-4.75,5.16-.62,10.14,1.93,13.95,5.21,1.92,1.62,3.28,4.09,5.23,5.64,13.65,0,27.33,0,40.98,0,4.63,0,9.32,0,13.95,0,1.7,0,3.53,0,5.23,0,.81,0,1.9.1,2.62-.37,7.5-6.12,14.92-12.3,25.29-10.32,4.83.78,9.41,2.74,13.95,4.49,4.84,1.92,9.8,3.69,14.82,5.09,1.39.37,2.94.88,4.36,1.12,2.58,0,5.26,0,7.85,0"/><path class="b" d="M8.37,60.33c1.94-.74,4.03-1.43,6.1-1.64,1.1-.13,2.39.02,3.49.04,1.44-.04,2.99-.4,4.36-.82,8.83-3.21,14.78-6.08,23.54-.46,2.27,1.37,4.4,3.2,6.1,5.23.8.91,1.84,2.18,2.62,3.11.36.55,1.09,1.29,1.74,1.45,9.29,0,18.61,0,27.9,0,10.17,0,20.35,0,30.52,0,1.72.27,3.04-1.22,4.36-2.07,2.21-1.58,4.57-3.2,6.98-4.48,9.27-5.35,19.14-2.18,28.77.17,5.17,1.28,10.47,2.19,15.7,3.2,4.3.89,8.63,2.25,13.08,1.99"/><path class="b" d="M8.37,52.36c1.94-.7,4.04-1.31,6.1-1.5,2.3-.1,4.72.19,6.98-.49,8.94-2.6,14.75-5.23,23.54,0,3.69,2.02,6.77,5.03,9.59,8.12,1.37,1.3,2.67,3.12,4.36,4.01,2,0,4.11,0,6.1,0,4.93,0,9.9,0,14.82,0,8.13,0,16.29,0,24.41,0,3.46,0,7,0,10.46,0,.78,0,1.86.05,2.62-.17,1.09-.73,2.39-1.61,3.49-2.33,12.73-8.59,18.48-5.42,32.26-3.85,5.78.64,11.64.08,17.44.34,4.37.3,8.66,1.73,13.08,1.57"/><path class="b" d="M8.37,45c1.96-.53,4.07-.93,6.1-1.01,2.3,0,4.71.26,6.98-.33,8.96-2.29,14.8-4.51,23.54.41,7.24,3.7,12.24,11,20.05,13.69,5.22,0,10.48,0,15.69,0,8.42,0,16.87,0,25.29,0,2.88,0,5.84,0,8.72,0,1.09-.01,2.4.04,3.49-.06.77-.52,1.84-1.22,2.62-1.74,10.27-6.85,15.18-7.07,27.03-5.02,3.74.49,7.59.54,11.34.06,4.35-.5,8.68-1.75,13.08-1.77,3.8.14,7.55,1.24,11.34,1.56"/><path class="b" d="M8.37,38.9c1.98-.32,4.1-.45,6.1-.37,2.3.17,4.7.43,6.98-.09,8.23-1.9,14.36-4.46,22.67-.6,6.08,2.77,11.21,7.36,17.44,9.87,5.27,2.37,11.28,2.43,16.57,4.69,1.8,1.08,4.11.5,6.1.64,2.88,0,5.84,0,8.72,0,8.42-.02,16.87.04,25.29-.02,6.46-4.45,13.55-9.46,21.8-8.66,2.91.21,5.84.94,8.72,1.37,3.73.6,7.61.64,11.34-.02,11.14-2.23,11.86-4.01,23.54-.51"/><path class="b" d="M8.37,33.9c2-.14,4.12-.05,6.1.19,2.28.34,4.68.67,6.98.18,7.05-1.49,13.6-4.57,20.93-2.32,4.31,1.19,8.07,3.82,12.21,5.45,6.69,3.04,14.26,3.28,20.93,6.27,1.16.55,2.46,1.34,3.49,2.1,1.1.79,2.22,2.02,3.49,2.53,4.63,0,9.32,0,13.95,0,4.63,0,9.32,0,13.95,0,1.4,0,2.96,0,4.36,0,1.23.1,2.5-.05,3.49-.88,4.21-2.73,8.33-5.87,13.08-7.62,7.54-2.94,13.57-.21,20.93,1.22,3.43.61,7.03.57,10.46-.06,9.11-1.84,11.7-3.64,20.93.47"/><path class="b" d="M8.37,29.12c3.52-.27,6.99.78,10.46,1.09,5.99-.07,11.48-3.26,17.44-3.62,3.23-.27,6.56.24,9.59,1.35,2.59.99,5.16,2.28,7.85,3,7.7,2.43,16.55,1.08,23.54,5.63,3.04,2.09,5.59,4.98,8.72,6.98,5.8.06,11.64,0,17.44.02,2,0,4.11,0,6.1,0,1.4-.09,3.03.24,4.36-.28,5.15-2.13,9.64-5.69,14.82-7.75,5.22-2.25,11.17-2.31,16.57-.66,4.55,1.4,9.13,3.23,13.95,3.34,10.35.2,13.85-4.51,24.41.91"/><path class="b" d="M8.37,25.89c3.22-.27,6.46.38,9.59,1.06,6.62.72,12.74-2.87,19.18-3.72,2.86-.45,5.87-.47,8.72.03,3.15.67,6.35,1.54,9.59,1.67,7.59.52,16.05-1.05,22.67,3.62,2.6,1.93,5.05,4.25,7.85,5.92,7.96,5.1,14.78,4.2,23.54,2.38,4.92-.45,9.43-2.6,13.95-4.43,4.67-1.89,9.75-3.14,14.82-2.68,7.36.29,13.69,4.79,20.93,5.69,5.54.9,11.05-1.02,16.57-.84,2.73.27,5.38,1.37,7.85,2.5"/><path class="b" d="M8.37,23.85c9.17-.73,9.74,3.16,20.93.1,4.65-1.22,9.22-2.94,13.95-3.86,2.84-.62,5.84-.6,8.72-.91,5.78-.62,11.61-1.96,17.44-1.32,5.28.49,8.88,2.85,13.08,5.77,7.23,4.64,15.92,6.26,24.41,6.2,2.88,0,5.87.13,8.72-.39,6.68-1.21,13.2-3.7,20.05-3.7,9.32-.26,13.58,3.63,21.8,6.02,3.09.86,6.4,1.13,9.59.92,2.88-.14,5.83-.72,8.72-.63,1.75.11,3.59.6,5.23,1.2.75.28,1.8.8,2.62.85"/><path class="b" d="M8.37,21.37c2.29-.21,4.71-.21,6.98.25,2,.47,4.06,1.14,6.1,1.41,7.95,1.36,15.63-1.82,22.67-5.17,5.07-2.23,10.28-4.41,15.7-5.64,5.51-1.24,11.39-.65,16.57,1.6,2.35.97,4.6,2.38,6.98,3.29,6.23,2.36,12.82,3.79,19.18,5.74,13.01,4.18,17.91,1.61,30.52-.56,4.34-.67,8.95-.68,13.08.97,9.5,3.98,14.43,6.9,25.29,5.56,1.99-.18,4.11-.44,6.1-.16,1.1.13,2.4.51,3.49.69.76,0,1.85,0,2.62,0"/><path class="b" d="M8.37,17.61c7.05-.75,10.2,1.6,16.57,3.25,13.77,3.64,20.92-7.9,32.26-12.37,7.91-3.2,15.21-.34,22.67,2.53,3.65,1.27,7.6,1.63,11.34,2.59,5.23,1.23,10.05,3.79,14.82,6.17,9.02,4.85,17.07,2.39,26.16-.58,4.56-1.47,9.42-2.16,13.95-.19,5.16,2,10.15,4.75,15.69,5.54,3.17.15,6.42.03,9.59.05,1.69-.16,3.53-.39,5.23-.36,1.09.02,2.41.17,3.49.37,1.08,0,2.4,0,3.49,0"/></svg>