<?xml version="1.0" encoding="UTF-8"?><svg id="a" xmlns="http://www.w3.org/2000/svg" width="1920" height="2400" viewBox="0 0 192 240"><defs><style>.b{fill:none;stroke:#fff;stroke-miterlimit:10;stroke-width:.4px;}.c{stroke-width:0px;}</style></defs><rect class="c" x="0" width="192" height="240"/><path class="b" d="M9.03,225.3c1.98-.31,4.06-.66,6.06-.86,1.98-.18,4.09-.13,6.06-.44,4.89-.69,9.75-2,14.71-2.16,5.06-.21,10.19.92,14.71,3.2,1.1.46,2.23,1.47,3.46,1.49,2.57,0,5.22,0,7.79,0,6.33,0,12.7,0,19.04,0,.84.12,1.85-.31,2.6-.64,1.08-.46,2.37-1,3.46-1.41,4.09-1.65,8.73-2.22,12.98-.86,2.38.7,4.7,1.85,6.92,2.91,2.57,0,5.22,0,7.79,0,2.86,0,5.8,0,8.65,0,.48.1,1.34-.15,1.73-.45.77-.42,1.84-1,2.6-1.44,4.09-2.3,8.25-4.99,12.98-5.68,1.68-.2,3.52,0,5.19-.32,4.91-.82,9.68-2.82,14.71-2.84,9.55-.24,14.46,6.79,22.5,10.19"/><path class="b" d="M9.03,221.84c5.75-.09,11.57.19,17.31-.11,2.84-1.04,5.73-2.17,8.65-2.95,3.92-1.06,8.17-1.39,12.11-.25,2.67.78,5.23,2.11,7.79,3.18,3.41.35,6.95.04,10.38.14,3.73,0,7.52,0,11.25,0,2-.45,4.09-1.07,6.06-1.66,12.87-4.72,16.28-3.4,28.56,1.44,1.05.36,2.37.18,3.46.22,1.68,0,3.51,0,5.19,0,2.98-.23,5.85-1.64,8.65-2.62,3.37-1.3,6.81-2.69,10.38-3.32,2.54-.49,5.26-.14,7.79-.74,4.87-1.01,9.67-2.92,14.71-2.78,4.34.05,8.54,1.76,12.12,4.14,1.97,1.32,4.03,2.77,6.06,4.01.99.6,2.23,1.49,3.46,1.31"/><path class="b" d="M9.03,217.14c7.2,0,14.43,0,21.63,0,1.8-.3,3.47-1.58,5.19-2.18,3.25-1.38,6.82-2.43,10.38-2.11,3.49.48,6.88,1.82,10.38,2.27,4.57.75,9.28.62,13.85-.02,4.29-.69,8.65-1.16,12.98-1.54,4.3-.55,8.64-1.3,12.98-1.35,5.87-.21,11.61,1.31,17.31,2.48,5.72.89,11.58.35,17.31-.18,4.3-.46,8.67-.72,12.98-1.07,10.23-2.01,16.79-7.41,27.69-2.21,2.38,1.15,4.68,2.69,6.92,4.08,1.31.74,2.71,2.03,4.33,1.82"/><path class="b" d="M9.03,212.44c7.49,0,15.01,0,22.5,0,1.2-.08,2.38-.97,3.46-1.43,2.21-1.07,4.56-2.1,6.92-2.77,1.93-.54,4.05-.85,6.06-.67,2.26.35,4.65.4,6.92.19,4.61-.4,9.22-1.32,13.85-1.49,4.34-.22,8.72.27,12.98,1.07,4.55.81,9.22,1.31,13.85,1.13,4.89-.12,9.81-1.01,14.71-.65,5.51.61,10.99,1.71,16.44,2.71,4.83.87,9.79,1.7,14.71,1.27,3.92-.32,7.61-2.01,11.25-3.37,5.18-2.05,10.94-3.34,16.44-1.87,3.04.75,5.95,2.15,8.65,3.7,1.64.78,3.26,2.37,5.19,2.19"/><path class="b" d="M9.03,207.74c6.62-.04,13.28.09,19.9-.05,4.62-1.37,9.15-3.23,13.85-4.37,1.37-.32,2.92-.59,4.33-.69,2.01-.01,4.13-.1,6.06-.74,5.61-1.8,11.25-4.61,17.31-3.79,7.37.84,13.68,5.29,20.77,7.11,5.8,1.57,11.62-.48,17.31-1.51,4.96-.61,9.97.74,14.71,2.07,2.56.61,5.13,1.98,7.79,1.97,5.18,0,10.4,0,15.58,0,5.87-2.12,11.79-4.85,18.17-4.59,3.53.1,7.08.96,10.38,2.19,1.72.68,3.52,1.59,5.19,2.4.75,0,1.84,0,2.6,0"/><path class="b" d="M9.03,201.7c3.38-.91,6.87-1.76,10.38-1.86,6.04-.14,12.14.4,18.17-.25,2.87-.26,5.79-.69,8.65-1.02,2.03-.19,4.2-.32,6.06-1.23,5.52-2.56,10.85-7.02,17.31-6.14,4.38.59,8.32,2.98,12.11,5.11,3.11,1.95,6.12,4.27,9.52,5.72,2.95,1.48,6.34.93,9.52,1.02,7.03-1.54,8.62-3.25,16.44-1.9,2.6.42,5.25,1.1,7.79,1.81,1.07.16,2.38.08,3.46.1,6.62,0,13.28,0,19.9,0,2.31-.37,4.6-1.38,6.92-1.76,4.83-1.04,9.9-.8,14.71.25,1.99.44,4.12.87,6.06,1.51,2.27,0,4.65,0,6.92,0"/><path class="b" d="M9.03,191.36c4.78-1.28,9.88-2.02,14.71-.55,4.04,1.06,8.02,2.58,12.11,3.46,3.95.89,8.09,1.13,12.11.7,2.52-.14,4.84-1.49,6.92-2.82,2.78-1.79,5.56-3.84,8.65-5.07,4.22-1.84,9.02-1,12.98,1.11,2.69,1.33,5.41,2.84,7.79,4.69,2.27,1.53,6.89,5.51,9.52,5.46,2.86,0,5.8,0,8.65,0,1.98-.05,4.11.17,6.06-.27,3.13-.5,6.38.05,9.52.27,4.31,0,8.67,0,12.98,0,5.47,0,10.98,0,16.44,0,2.84-.47,5.76-1.06,8.65-1.01,2.89-.04,5.82.49,8.65,1.01,6.04,0,12.13,0,18.17,0"/><path class="b" d="M9.03,181.99c3.98-.46,8.21-1.13,12.11.04,9.75,3.14,18.44,12.78,29.42,10.08,9.98-4.12,14.43-11.94,26.83-7.32,6.63,2.13,12.02,7.35,19.04,8.41,4.31.77,8.67-.41,12.98-.51,2.87.11,5.79.7,8.65.92,6.62.1,13.28,0,19.9.04,2.03.04,4.09-.76,6.06-1.18,1.66-.37,3.49-.57,5.19-.55,2.01.02,4.12.35,6.06.87,1.09.24,2.33.88,3.46.86,8.07,0,16.16,0,24.23,0"/><path class="b" d="M9.03,174.3c2.28.07,4.65.26,6.92.41,2.7,0,5.4.71,7.79,1.97,6.64,3.38,12.07,8.93,19.04,11.71,2.14.97,4.64.45,6.92.57,1.49.17,2.99-.34,4.33-.96,2.03-.88,4.09-2,6.06-3.01,7.53-4.09,14.18-5.18,22.5-2.89,4.27,1.17,8.56,2.6,12.98,3.1,4.29.56,8.68.19,12.98.63,2.9.37,5.76,1.39,8.65,1.85,4.25.8,8.66,1.13,12.98.86,3.19-.2,6.42-.73,9.52-1.49,3.08-.86,6.31-1.8,9.52-1.1,1.75.31,3.58.96,5.19,1.7,1.09.4,2.25,1.47,3.46,1.31,8.36,0,16.74,0,25.1,0"/><path class="b" d="M9.03,168.76c1.98.43,4.06.96,6.06,1.3,1.98.31,4.13.33,6.06.96,8.88,2.66,15.39,10.19,24.23,12.91,1.36.43,2.93.3,4.33.31,2.96.14,5.88-.89,8.65-1.82,5.44-1.94,10.77-4.42,16.44-5.63,7.38-1.48,15.05-.83,22.5-.15,4.08.46,8.21,1.16,12.11,2.47,5.6,2.1,11.26,4.5,17.31,4.84,3.76.26,7.6-.23,11.25-1.13,2.86-.63,5.68-1.95,8.65-1.86,2.37.04,4.78.76,6.92,1.73,1.1.45,2.29,1.32,3.46,1.57,8.64,0,17.32,0,25.96,0"/><path class="b" d="M9.03,165.13c2.79,1,5.65,2.27,8.65,2.4,4.14.24,8.26,1.27,12.11,2.77,5.25,1.98,10.16,4.95,15.58,6.47,5.67,1.33,11.75.68,17.31-.91,5.35-1.56,10.32-4.24,15.58-6.06,7.78-2.59,15.65-3.31,23.36-.06,7.13,2.77,13.53,7.3,20.77,9.8,4.02,0,8.1,0,12.11,0,1.98-.01,4.08.03,6.06-.02,1.08-.32,2.36-.77,3.46-1.03,2.52-.59,5.25-.57,7.79-.06,1.71.24,3.45,1.2,5.19,1.12,8.64,0,17.32,0,25.96,0"/><path class="b" d="M9.03,162.42c2.23.94,4.53,2.04,6.92,2.48,4.58.42,9.27-.11,13.85.48,6.76.58,13.16,3.28,19.9,3.92,14.12,1.99,18.36-2.08,30.29-7.48,7.03-2.98,13.43-2.51,19.9,1.56,4.15,2.48,7.88,5.73,12.11,8.07,2.01,1.05,3.91,2.67,6.06,3.4,5.76,0,11.55,0,17.31,0,15.86,0,31.73,0,47.59,0"/><path class="b" d="M9.03,160.03c2.23.76,4.56,1.66,6.92,1.91,4.93.15,9.8-1.29,14.71-1.54,4.62-.36,9.29.14,13.85.85,17.42,2.59,19.3,1.37,34.61-6.13,6.61-3.1,12.78-1.04,18.17,3.36,4.22,3.29,7.83,7.4,12.11,10.61.69.51,1.68,1.24,2.6,1.05,1.39,0,2.94,0,4.33,0,8.36,0,16.74,0,25.1,0,13.84,0,27.7,0,41.54,0"/><path class="b" d="M9.03,159.94c2.26.29,4.64.65,6.92.52,5.64-.59,10.88-3.21,16.44-4.23,7.44-1.71,15.01-.03,22.5.29,5.41.21,10.75-1.31,15.58-3.67,4.23-1.84,8.27-4.81,12.98-5.17,9.75-.08,16.15,11.99,22.5,17.79,17.3,0,34.62,0,51.92,0,1.42.1,2.94-.35,4.33-.54,2.26-.32,4.65-.38,6.92-.28,1.69.08,3.51.24,5.19.41.77.11,1.81.45,2.6.41,1.98,0,4.08,0,6.06,0"/><path class="b" d="M9.03,160.32c3.2-.44,6.48-.96,9.52-2.08,4.07-1.51,7.99-3.58,12.11-4.97,8.97-3.22,15.32-1.35,24.23-1.15,5.09.03,10.11-1.39,14.71-3.5,4.26-1.76,8.33-4.56,12.98-5.15,8.99-.36,15.61,10.92,20.77,17.07,2.21.5,4.66.1,6.92.22,4.02,0,8.1,0,12.11,0,11.24,0,22.51,0,33.75,0,5.79-1.99,11.41-1.27,17.31-.34,3.11.58,6.37.27,9.52.34"/><path class="b" d="M9.03,156.06c2.57,0,5.22,0,7.79,0,1.74-.72,3.52-1.73,5.19-2.59,10.91-5.95,16.49-6.28,28.56-4.84,5.82.61,11.79.08,17.31-1.91,4.64-1.51,9.04-3.98,13.85-4.97,6.25-1.09,11.59,3.45,15.58,7.71,2.09,2.05,3.82,4.73,6.06,6.61,10.95,0,21.93,0,32.88,0,5.18,0,10.4,0,15.58,0,.83.11,1.86-.29,2.6-.63,1.05-.41,2.35-.8,3.46-1.03,4.65-.99,9.34.41,13.85,1.48,1.36.32,2.94.12,4.33.17,2.27,0,4.65,0,6.92,0"/><path class="b" d="M9.03,151.36c1.98,0,4.08,0,6.06,0,.79,0,1.84.05,2.6-.18.45-.27,1.29-.8,1.73-1.07,6.2-3.99,13.26-6.96,20.77-6.14,8.89.86,17.89,3.17,26.83,1.54,4.7-.78,9.23-2.46,13.85-3.58,9.86-2.63,16.56,3.24,23.36,9.43,10.38,0,20.78,0,31.15,0,4.89,0,9.82,0,14.71,0,2.23-1.03,4.46-2.38,6.92-2.81,5.06-1.13,9.96,1.11,14.71,2.52,1.34.43,2.94.25,4.33.28,2.27,0,4.65,0,6.92,0"/><path class="b" d="M9.03,146.66c1.98,0,4.07,0,6.06,0,.94-.14,1.84-1.04,2.6-1.56,1.64-1.19,3.44-2.41,5.19-3.42,7.1-4.26,13.81-4.29,21.63-2.36,2.55.6,5.24.91,7.79,1.53,4.56,1.1,9.14,2.45,13.85,2.75,6.45.51,12.81-1.13,19.04-2.58,5.66-1.4,11.44-.41,16.44,2.54,1.11.61,2.39,1.4,3.46,2.08.41.28,1.29.8,1.73,1.02.43,0,1.3,0,1.73,0,5.18,0,10.4,0,15.58,0,5.76,0,11.55,0,17.31,0,1.68,0,3.51,0,5.19,0,.76,0,1.83,0,2.6,0,.46-.2,1.34-.72,1.73-1.03,3.5-2.43,7.83-3.97,12.11-3.26,2.64.37,5.24,1.34,7.79,2.1,1.64.53,3.51.7,5.19,1.05,1.41.27,2.92.88,4.33,1.14.75,0,1.84,0,2.6,0"/><path class="b" d="M9.03,141.96c1.39,0,2.94,0,4.33,0,.51-.16,1.35-.73,1.73-1.09,2.97-2.41,6.07-4.85,9.52-6.54,6.82-3.54,13.7-2.48,20.77-.45,2.27.61,4.72.96,6.92,1.81,3.5,1.29,6.89,3.04,10.38,4.36,2.21.83,4.58,1.57,6.92,1.91,3.15-.07,6.39.15,9.52-.1,3.89-.62,7.48-2.49,11.25-3.55,3.63-1.09,7.59-1.27,11.25-.23,3.31.85,6.38,2.59,9.52,3.89,3.15,0,6.37,0,9.52,0,8.36,0,16.74,0,25.1,0,3.73.16,3.18-.18,6.06-2.34,2.07-1.53,4.43-2.92,6.92-3.63,3.99-1.2,8.2-.19,12.11.82,1.65.44,3.51.61,5.19.92,2.32.45,4.69,1.14,6.92,1.92"/><path class="b" d="M9.03,137.27h3.46c6.37-4.34,10.74-9.1,19.04-9.78,4.7-.41,9.36.85,13.85,2.08,1.98.57,4.16.91,6.06,1.74,3.01,1.29,5.84,3.14,8.65,4.79,1,.64,2.22,1.36,3.46,1.17,1.68,0,3.51,0,5.19,0,4.31,0,8.67,0,12.98,0,1.68,0,3.51,0,5.19,0,1.23-.17,2.37-1.19,3.46-1.73,1.34-.77,2.89-1.56,4.33-2.13,4.11-1.75,8.81-1.66,12.98-.14,2.75.91,5.54,2.09,7.79,3.97,10.37.11,20.78,0,31.15.04,7.21-6.12,12.38-11.06,22.5-8.08,4.56,1.25,9.33,1.77,13.85,3.19"/><path class="b" d="M9.03,132.57c1.1-.05,2.45.2,3.46-.33,2.42-1.31,4.65-3.11,6.92-4.64,9.23-6.17,18.47-4.76,28.56-2.05,4.59.99,8.31,4.19,12.11,6.75,1.04.44,2.36.22,3.46.27,1.98,0,4.08,0,6.06,0,5.76,0,11.55,0,17.31,0,.43,0,1.3,0,1.73,0,.84-.39,1.83-1.18,2.6-1.7,1.6-1.1,3.4-2.19,5.19-2.95,5.33-2.45,11.41-.88,16.44,1.59,1.14.63,2.42,1.51,3.46,2.27.34.35,1.21.82,1.73.78,5.47,0,10.98,0,16.44,0,1.98,0,4.08,0,6.06,0,1.09-.05,2.43.17,3.46-.26,6.11-4.73,12.21-12.06,20.77-10.62,2.64.38,5.23,1.4,7.79,2.14,3.41.87,6.95,1.53,10.38,2.33"/><path class="b" d="M9.03,127.87c.78,0,1.83.04,2.6-.13,2.09-.89,4.21-2.06,6.06-3.38,2.39-1.65,5.06-3.06,7.79-4.05,7.99-2.84,17.09-2.77,25.1-.05,4.14,1.87,7.46,5.19,11.25,7.61h25.96c7.57-5.56,12.69-7.31,21.63-3.48,2.41.83,4.79,1.99,6.92,3.38,5.74.26,11.56.02,17.31.1,1.98,0,4.08,0,6.06,0,5.52-2.43,9.47-7.52,14.71-10.46,6.05-3.62,11.31-1.87,17.31.69,3.59,1.38,7.47,2.03,11.25,2.67"/><path class="b" d="M9.03,123.17c5.79-.94,10.26-5.33,15.58-7.52,7.81-3.43,18.7-6.64,26.83-2.72,3.43,1.89,6.41,4.62,9.52,6.98,1.06.81,2.34,1.74,3.46,2.46.7.52,1.72.92,2.6.79,5.18,0,10.4,0,15.58,0,.44,0,1.3,0,1.73-.03.44-.25,1.3-.74,1.73-.99,1.07-.62,2.35-1.34,3.46-1.89,7.09-3.73,12.41-1.79,19.04,1.65.75.36,1.81.83,2.6,1.12,1.96.3,4.08.07,6.06.14,6.91,0,13.86,0,20.77,0,1.27-.26,2.37-1.42,3.46-2.06,2.77-1.65,5.31-3.82,7.79-5.88,9.63-7.91,13.66-6.39,24.23-1.63,3.03,1.11,6.32,1.62,9.52,1.93"/><path class="b" d="M9.03,117.08c2.34-.8,4.76-1.71,6.92-2.91,2-1.17,4.03-2.55,6.06-3.67,5.47-3.05,11.2-5.9,17.31-7.38,9.96-2.34,13.69,1.57,20.77,7.58,4.8,4.09,10.66,8.29,17.31,7.32,7.38-1.07,12.74-6.74,20.77-3.93,1.78.59,3.59,1.53,5.19,2.49,1.08.59,2.25,1.59,3.46,1.88,1.38,0,2.94,0,4.33,0,9.51,0,19.05,0,28.56,0,3.03-1.99,6.03-4.18,8.65-6.69,5.47-5.05,11.29-9.45,19.04-6.48,2.6.89,5.14,2.25,7.79,3.02,2.5.72,5.19,1.01,7.79,1.12"/><path class="b" d="M9.03,109.12c2.32-1,4.73-2.08,6.92-3.34,3.05-1.91,6.23-3.78,9.52-5.26,7.92-3.41,19.63-8.91,27.69-3.67,7.06,4.32,13.01,11.45,21.63,12.51,3.21.42,6.44-.48,9.52-1.29,8.71-2.5,13.92.75,20.77,5.7h38.08c7.56-5.35,13.67-15.79,24.23-14.37,2.62.3,5.22,1.19,7.79,1.77,2.54.55,5.21.85,7.79,1.1"/><path class="b" d="M9.03,101.08c2.29-1.22,4.69-2.47,6.92-3.79,1.91-1.19,3.95-2.4,6.06-3.2,3.89-1.52,8.05-2.42,12.11-3.32,3.98-.84,8.04-1.76,12.11-1.85,7.26-.25,13.02,4.99,19.04,8.3,4.43,2.59,9.47,4.8,14.71,4.38,3.14-.27,6.38-.7,9.52-.23,3.4.47,6.64,1.98,9.52,3.81,2.05,1.15,3.89,3,6.06,3.89,13.55-.05,27.12.1,40.67-.05,13.81-12.55,17.27-18.03,37.21-13.89"/><path class="b" d="M9.03,94.42c3.16-1.8,6.35-3.72,9.52-5.51,5.92-2.78,12.72-1.81,19.04-2.72,3.73-.39,7.49-1.17,11.25-1.2,7.68.16,14.16,4.95,20.77,8.31,9.26,5.09,11.86,2.48,20.77,4.6,3.01.77,5.94,2.12,8.65,3.63,1.71.87,3.39,2.16,5.19,2.84,13.84,0,27.7,0,41.54,0,4.77-3.25,9.02-7.33,13.85-10.52,6.69-4.63,15.31-7.98,23.36-5.09"/><path class="b" d="M9.03,89.67c13.37-7.54,9.99-6.57,25.09-5.8,2.88.04,5.82-.28,8.65-.78,3.12-.53,6.33-1.26,9.52-.99,9.32.71,16.1,7.99,24.23,11.73,3.24,1.44,6.94,1.38,10.38,2,4.43.65,8.81,1.92,12.98,3.55,1.02.48,2.37.25,3.46.29,1.39,0,2.94,0,4.33,0,4.89,0,9.82,0,14.71,0,6.62,0,13.28,0,19.9,0,5.2-2.8,10.44-5.61,15.58-8.52,3.97-2.22,7.97-4.52,12.11-6.4,4.34-2.08,8.32-3.02,12.98-1.17"/><path class="b" d="M9.03,86.47c12.72-6.12,9.08-6.05,23.36-4.84,3.78.18,7.6-.46,11.25-1.41,13.13-4.22,19.1,2.55,28.56,10.23,2.55,1.96,5.35,4.19,8.65,4.53,5.47,0,10.98,0,16.44,0,11.53,0,23.08,0,34.61,0,1.39-.1,3.04.28,4.33-.33,2.57-1.33,5.15-2.86,7.79-4.04,5.28-2.21,11.06-3,16.44-4.94,3.54-1.21,7.01-2.79,10.38-4.39,4.08-2.12,7.54-3.28,12.11-1.63"/><path class="b" d="M9.03,83.96c3.54-1.26,6.88-3.15,10.38-4.48,5.06-1.39,10.45-.45,15.58-1.49,2.92-.5,5.83-1.43,8.65-2.31,2.77-.85,5.74-1.68,8.65-1.17,8.86,1.84,14.27,10.17,20.77,15.76,16.44.06,32.89,0,49.32.02,3.14-.1,6.4.21,9.52-.14,1.39-.96,2.94-2.05,4.33-3.01,8.33-6.03,11.85-5.6,21.63-5.91,3.19-.16,6.45-.63,9.52-1.51,5.75-1.57,9.22-4.71,15.58-2.92"/><path class="b" d="M9.03,82.21c5.2-2.18,9.97-5.53,15.58-6.67,3.73-.9,7.55-1.67,11.25-2.66,3.7-.94,7.43-2.14,11.25-2.47,9.38-.88,16.08,9.93,22.5,15.17h59.71c6.23-5.37,11.53-12.59,20.77-11.39,4.06.36,8.07,1.47,12.11,1.93,3.14.37,6.42.34,9.52-.3,1.4-.28,2.91-.81,4.33-1.01,2.27-.33,4.7-.12,6.92.42"/><path class="b" d="M9.03,79.83c6.96-4.22,13.76-8.84,21.63-11.24,6.34-1.99,13.55-3.03,19.9-.6,4.03,1.94,7.22,5.32,10.38,8.4,1.08,1.08,2.37,2.36,3.46,3.42.36.43,1.14,1.06,1.73,1.08,9.51,0,19.05,0,28.56,0,11.24-.03,22.51.06,33.75-.04,13.1-15.1,16.09-14.46,34.61-9.07,2.8.72,5.75,1.28,8.65,1.3,1.39.02,2.94-.19,4.33-.15,2.31.06,4.7.52,6.92,1.16"/><path class="b" d="M9.03,75.92c3.98-2.99,7.89-6.19,12.11-8.85,3.92-2.62,8.2-5.17,12.98-5.69,3.86-.44,7.75.63,11.25,2.17,2.42,1.05,4.94,2.22,6.92,3.99,2.1,1.78,4.12,3.88,6.06,5.83,1.27,1.1,2.39,3.15,4.33,2.8,10.38,0,20.78,0,31.15,0,11.24,0,22.51,0,33.75,0,3.95-3.2,7.33-7.42,12.11-9.5,1.86-.85,4.04-1.07,6.06-1.22,3.16-.21,6.4.01,9.52.52,4.96.79,9.81,2.32,14.71,3.39,1.96.46,4.09.67,6.06,1.07,2.33.5,4.7,1.29,6.92,2.14"/><path class="b" d="M9.03,70.45c2.35-1.9,4.59-4.12,6.92-6.04,1.96-1.52,4.08-3.06,6.06-4.56,6.2-4.73,12.03-6.53,19.04-2.12,3.26,2.08,6.48,4.43,9.52,6.83,2.45,2.09,4.49,4.82,6.92,6.93,18.17,0,36.35,0,54.52,0,3.44,0,6.95,0,10.38,0,1.68-.03,3.51.07,5.19-.06.76-.48,1.82-1.13,2.6-1.59,3.21-1.88,6.68-3.6,10.38-4.21,2.56-.3,5.24-.36,7.79-.79,4.28-.61,8.65-1.2,12.98-.93,7.55.47,14.85,3.03,21.63,6.27"/><path class="b" d="M9.03,64.23c2.36-1.9,4.6-4.15,6.92-6.09,2.82-2.13,5.66-4.44,8.65-6.32,6.93-4.42,12.61-1.72,18.17,3.3,2.25,2.01,4.58,4.13,6.92,6.03,1.81,1.65,3.56,3.65,5.19,5.47,2.82.41,5.8.06,8.65.17,5.18,0,10.4,0,15.58,0,14.42,0,28.85,0,43.27,0,1.68,0,3.51.02,5.19-.01,2.83-.54,5.78-.92,8.65-1.06,2.56-.17,5.22.02,7.79-.05,1.72-.13,3.54-.56,5.19-1.06,15.85-5.51,18.62-5.47,33.75,1.97"/><path class="b" d="M9.03,58.43c4.05-2.9,7.88-6.18,12.11-8.84,4.31-3.04,9.61-5.22,14.71-2.77,4.98,2.26,8.65,6.57,12.98,9.79,1.17.9,2.44,2.13,3.46,3.2.77.72,1.54,1.97,2.6,2.28,3.73,0,7.52,0,11.25,0,11.82,0,23.66.02,35.48-.01,13.84-.02,27.69,0,41.54.01,2.56,0,5.22,0,7.79,0,1.08,0,2.38,0,3.46,0,.76-.33,1.83-.79,2.6-1.11,11.97-5.12,14.49-2.76,25.96.84"/><path class="b" d="M9.03,53.44c5.51-2.83,10.57-6.73,16.44-8.84,3.94-1.45,8.39-1.05,12.11.85,4.31,2.13,8.03,5.34,12.11,7.85,1.15.82,2.42,1.93,3.46,2.89.43.42,1.13,1.07,1.73,1.2,2.57,0,5.22,0,7.79,0,6.33,0,12.7,0,19.04,0,8.64,0,17.32,0,25.96,0,3.14-.26,6.36-.66,9.52-.66,2.59-.12,5.22.56,7.79.66,9.51,0,19.05,0,28.56,0,3.73,0,7.52,0,11.25,0,1.77.18,3.48-.82,5.19-1.11,1.96-.47,4.08-.23,6.06-.07,2.27.14,4.65.17,6.92.25"/><path class="b" d="M9.03,49.51c6.96-2.05,13.35-6.36,20.77-6.68,5.47-.32,10.71,1.8,15.58,4.06,1.67.8,3.56,1.5,5.19,2.39,1.79.95,3.46,2.38,5.19,3.41,26.82,0,53.65,0,80.48,0,9.22,0,18.47,0,27.69,0,4.31,0,8.67,0,12.98,0,2.03-.24,4.05-1.2,6.06-1.6"/><path class="b" d="M9.03,46.54c6.19-.56,12.01-3.11,18.17-3.87,8.04-1.12,16.44-.71,24.23,1.65,1.76.62,3.57,1.49,5.19,2.39.77.42,1.72,1.12,2.6,1.28,10.09,0,20.2,0,30.29,0,19.9,0,39.81,0,59.71,0,6.91,0,13.86,0,20.77,0,3.14-.07,6.38.14,9.52-.1,1.04-.64,2.35-1.35,3.46-1.87"/><path class="b" d="M9.03,43.3c3.44,0,6.94.02,10.38-.01,4.02-.73,8.12-1.38,12.11-2.23,7.09-1.44,14.35-3.83,21.63-2.34,3.72.69,7.25,2.36,10.38,4.44,2.83.35,5.8.05,8.65.14,5.47,0,10.98,0,16.44,0,20.19,0,40.39,0,60.57,0,6.91,0,13.86,0,20.77,0,2.56,0,5.22,0,7.79,0,.76,0,1.84.03,2.6-.1.72-.56,1.81-1.28,2.6-1.74"/><path class="b" d="M9.03,38.6c4.89,0,9.82,0,14.71,0,1.39,0,2.94,0,4.33,0,1.09-.04,2.4.14,3.46-.21,6.28-2.04,12.29-5.65,19.04-5.76,4.2-.23,8.46.77,12.11,2.86,1.13.63,2.41,1.46,3.46,2.21.42.35,1.19.83,1.73.91,3.44,0,6.94,0,10.38,0,22.5,0,45,0,67.5,0,7.78,0,15.59,0,23.36,0,2.56,0,5.22,0,7.79,0,1.38-.03,2.95.08,4.33-.09.37-.31,1.32-.91,1.73-1.18"/><path class="b" d="M9.03,33.9c7.2,0,14.43,0,21.63,0,6.73-2.75,13.25-7.08,20.77-6.99,4.53-.13,9.04,1.2,12.98,3.39,2.08,1.01,3.95,2.68,6.06,3.6,3.15,0,6.37,0,9.52,0,34.32-.05,68.66.1,102.98-.06"/><path class="b" d="M9.03,29.2c5.47,0,10.97,0,16.44,0,.79,0,1.82.03,2.6-.08.46-.21,1.28-.64,1.73-.86,1.68-.84,3.49-1.74,5.19-2.53,4.86-2.26,10.14-4.14,15.58-3.85,5.11.22,10.05,1.93,14.71,3.93,2.6,1.02,5.13,2.55,7.79,3.39,3.73,0,7.52,0,11.25,0,32.88,0,65.77,0,98.65,0"/><path class="b" d="M9.03,24.5c4.89,0,9.82,0,14.71,0,1.24.17,2.41-.76,3.46-1.28,1.66-.9,3.47-1.86,5.19-2.64,5.09-2.43,10.83-3.41,16.44-2.81,3.58.36,7.02,1.72,10.38,2.91,3.38,1.23,6.87,2.38,10.38,3.15,2.53.69,5.19.75,7.79.68,2.86,0,5.8,0,8.65,0,8.93,0,17.89,0,26.83,0,4.02,0,8.1,0,12.11,0,1.41.08,2.91-.56,4.33-.55,1.41-.09,2.94.34,4.33.55,5.18,0,10.4,0,15.58,0,11.24,0,22.51,0,33.75,0"/><path class="b" d="M9.03,19.8c4.02,0,8.1,0,12.11,0,1.25.18,2.43-.64,3.46-1.22,1.09-.61,2.36-1.33,3.46-1.91,6.35-3.5,12.08-3.92,19.04-2.22,4.66.67,8.7,3.31,12.98,5.07,1.04.44,2.36.22,3.46.27,1.98,0,4.08,0,6.06,0,5.76,0,11.55,0,17.31,0,10.38,0,20.78,0,31.15,0,1.08,0,2.38,0,3.46,0,2.22-.82,4.48-2.01,6.92-1.98,1.42-.03,2.99.25,4.33.71,1.12.32,2.29,1.18,3.46,1.27,3.73,0,7.52,0,11.25,0,11.82,0,23.66,0,35.48,0"/></svg>