<?xml version="1.0" encoding="UTF-8"?><svg id="a" xmlns="http://www.w3.org/2000/svg" width="1920" height="2400" viewBox="0 0 192 240"><defs><style>.b{fill:none;stroke:#fff;stroke-miterlimit:10;stroke-width:.4px;}.c{stroke-width:0px;}</style></defs><rect class="c" width="192" height="240"/><path class="b" d="M8.76,228.8h174.48"/><path class="b" d="M8.76,224.09c15.62,0,31.26,0,46.88,0,7.22,0,14.48,0,21.7,0,1.19-.17,2.35-1.05,3.47-1.43,1.05-.37,2.36-.58,3.47-.55,1.75.05,3.58.54,5.21,1.14.44.16,1.31.52,1.74.7.77.17,1.83.13,2.6.13,9.54,0,19.11,0,28.65,0,20.25,0,40.51,0,60.76,0"/><path class="b" d="M8.76,219.38c16.2,0,32.41,0,48.61,0,4.32,0,8.7,0,13.02,0,3.96-1.88,7.58-5.31,12.15-5.5,4.51.1,8.38,2.93,12.15,5.08.97.67,2.36.35,3.47.42,1.39,0,2.95,0,4.34,0,4.9,0,9.85,0,14.76,0,1.4.06,2.95-.13,4.34-.17,1.98.12,4.09.22,6.08.17,9.83,0,19.68,0,29.51,0,1.08,0,2.39.02,3.47-.03,2.2-.88,4.59-1.6,6.94-1.92,5.29-.9,10.39,1.45,15.63,1.73"/><path class="b" d="M8.76,214.66c19.38-.05,38.78.09,58.16-.05,4.4-2.68,8.58-6.62,13.89-7.22,3.51-.09,6.68,1.9,9.55,3.69,1.7,1.09,3.49,2.31,5.21,3.37,1.35.38,2.95.14,4.34.2,4.9,0,9.85,0,14.76,0,.44,0,1.3,0,1.74,0,.79-.2,1.83-.61,2.6-.85,1.92-.6,4.06-.93,6.08-.81,2.38.07,4.69.99,6.94,1.66,2.87,0,5.81,0,8.68,0,3.74,0,7.54,0,11.28,0,2.28-.08,4.69.19,6.94-.15,4.64-1.98,9.61-4.06,14.76-3.5,3.13.46,6.38.73,9.55.51"/><path class="b" d="M8.76,209.95c13.02,0,26.05,0,39.06,0,6.06-.06,12.17.11,18.23-.07,3.13-1.9,6.18-4.16,9.55-5.63,5.31-2.62,10.37.76,14.76,3.62,1.08.67,2.3,1.58,3.47,2.07.77,0,1.83,0,2.6,0,4.61,0,9.28,0,13.89,0,1.39,0,2.95,0,4.34,0,.81,0,1.9.1,2.6-.39,4.93-2.76,10.25-3.8,15.63-1.63,1.73.54,3.43,1.69,5.21,2.03,1.08,0,2.39,0,3.47,0,4.32,0,8.7,0,13.02,0,1.39,0,2.95,0,4.34-.01,3.42-1.19,6.85-2.64,10.42-3.36,2.25-.54,4.66-.25,6.94-.17,2.3-.01,4.69-.39,6.94-.85"/><path class="b" d="M8.76,205.24c17.65,0,35.31,0,52.95,0,1.69-.01,3.52.04,5.21-.03,3.85-1.81,7.75-4.43,12.15-4.34,3.86.26,7.03,2.83,10.42,4.37,7.8,0,15.64,0,23.44,0,1.39-.08,3,.21,4.34-.24.76-.47,1.82-1.08,2.6-1.51,2.88-1.58,6.23-2.69,9.55-2.32,4.05.34,7.56,2.7,11.28,4.07,4.9,0,9.85,0,14.76,0,2.28,0,4.67,0,6.94,0,2.58-.64,5.17-1.68,7.81-2.1,1.97-.43,4.09-.11,6.08-.21,2.34-.2,4.71-.9,6.94-1.58"/><path class="b" d="M8.76,200.52c17.94,0,35.88,0,53.82,0,1.68-.1,3.59.26,5.21-.26,5.35-1.67,10.28-3.49,15.62-.67.44.2,1.31.62,1.74.84,1.08.16,2.38.08,3.47.09,1.99,0,4.09,0,6.08,0,6.64,0,13.32,0,19.97,0,.78,0,1.85.05,2.6-.16.76-.46,1.82-1.06,2.6-1.47,3.67-2.03,8.14-2.81,12.15-1.36,1.44.47,2.99,1.19,4.34,1.88.75.38,1.75,1.01,2.6,1.11,4.9,0,9.85,0,14.76,0,4.32,0,8.7,0,13.02,0,1.71-.04,3.48-.81,5.21-.86,1.39-.13,2.95.13,4.34,0,2.34-.21,4.7-.93,6.94-1.6"/><path class="b" d="M8.76,195.81c7.51,0,15.06,0,22.57,0,3.45-.02,6.97.03,10.42-.02,1.36-.54,2.91-1.03,4.34-1.31,3.99-.68,8.13-.11,12.15-.16,4.05.04,8.13-.38,12.15-.8,4.06-.43,8.36-.55,12.15,1.18.78.33,1.8.85,2.6,1.11,1.39,0,2.95,0,4.34,0,6.64,0,13.32,0,19.97,0,3.16-.03,6.39.07,9.55-.05,1.34-.67,2.89-1.33,4.34-1.73,3.12-.9,6.54-.59,9.55.59.78.3,1.85.76,2.6,1.12.76.09,1.84.07,2.6.07,8.09,0,16.21,0,24.31,0,3.75.01,7.56.1,11.28-.35,3.2.15,6.42-.54,9.55-1.13"/><path class="b" d="M8.76,191.1c10.7,0,21.42,0,32.12,0,2.05-.6,4.05-1.72,6.08-2.39,2.77-1.05,5.74-1.78,8.68-2.19,7.18-.93,14.57-.87,21.7.4,2.37.42,4.78,1.16,6.94,2.23,1.42.56,2.81,1.73,4.34,1.95,2.57,0,5.24,0,7.81,0,5.77,0,11.59,0,17.36,0,2.57,0,5.24,0,7.81,0,1.1-.15,2.37-.6,3.47-.75,2.58-.42,5.32-.12,7.81.66,1.98.19,4.09.04,6.08.09,10.7,0,21.42,0,32.12,0,4.01-.34,8.11-.76,12.15-.85"/><path class="b" d="M8.76,186.38c11.57,0,23.16,0,34.72,0,2.46-1,4.68-2.7,6.94-4.06,2.43-1.47,5.09-2.76,7.81-3.57,6.85-2.22,14.07-.6,20.83,1.16,5.03,1.03,9.45,3.91,13.89,6.35,3.43.3,6.97.04,10.42.12,6.35,0,12.74,0,19.1,0,2,.07,4.07-.54,6.08-.42,2,.07,4.07.56,6.08.42,8.38,0,16.79,0,25.17,0,4.03,0,8.12,0,12.15,0,1.41.06,2.94-.43,4.34-.5,2.28-.19,4.68-.06,6.94.24"/><path class="b" d="M8.76,181.67h38.19c5.67-5.11,11.78-11.35,19.97-11.35,4.15-.07,8.15,1.38,12.15,2.29,5.66.93,10.68,3.98,15.63,6.72,1.38.77,2.93,1.61,4.34,2.3,1.39.08,2.95.03,4.34.04,3.74,0,7.54,0,11.28,0,1.99,0,4.09,0,6.08,0,1.97-.39,4.06-.84,6.08-.91,1.7-.08,3.53.04,5.21.33,1.39.26,2.91.71,4.34.58,15.62.03,31.27-.05,46.88,0"/><path class="b" d="M8.76,176.96c8.67,0,17.37,0,26.04,0,4.9-.1,9.88.2,14.76-.12,5.02-5.53,11.01-12.04,19.1-11.8,4.42.14,8.65,1.81,13.02,2.32,5.5,1.08,10.58,3.68,15.63,6.02,5.1,2.44,10.8,4.59,16.49,3.09,5.4-1.13,10.98-2.3,16.49-1.28,2.03.34,4.13.93,6.08,1.59,1.06.27,2.38.13,3.47.16,14.46,0,28.94,0,43.4,0"/><path class="b" d="M8.76,172.24h42.54c4.88-5.41,11.29-10.99,19.1-9.94,3.77.41,7.48,1.61,11.28,1.8,5.03.58,9.94,2.07,14.76,3.57,6.44,2.04,11.46,3.36,18.23,1.92,4.58-.72,9.35-.92,13.89.19,1.72.4,3.55.98,5.21,1.61.76.28,1.79.76,2.6.85.42,0,1.31,0,1.74,0,15.04,0,30.1,0,45.14,0"/><path class="b" d="M8.76,167.53h42.54c7.19-7.49,12.96-10.83,23.44-7.96,3.39.93,6.98.83,10.42,1.48,4.11.74,8.15,2.05,12.15,3.25,3.92,1.15,8.03,2.27,12.15,2.01,2.58-.26,5.21-.89,7.81-1.01,3.46-.25,7.02.03,10.42.77,2.31.36,4.58,1.58,6.94,1.46,16.2,0,32.41,0,48.61,0"/><path class="b" d="M8.76,162.82h40.8c1.9-1.18,3.37-3.24,5.21-4.54,5.66-4.66,11.35-5.32,18.23-3.2,1.68.46,3.49.98,5.21,1.27,1.99.26,4.12.29,6.08.76,4.18.9,8.18,2.61,12.15,4.14,1.38.53,2.93,1.09,4.34,1.53,1.98.11,4.09.02,6.08.05,3.74-.03,7.55.08,11.28-.1,21.69.25,43.41.03,65.11.1"/><path class="b" d="M8.76,158.1c13.01-.07,26.06.14,39.06-.08,4.43-4.95,10.24-10.17,17.36-9.43,3.3.28,6.45,1.58,9.55,2.65,2.2.85,4.61,1.2,6.94,1.42,2.37.39,4.75,1.24,6.94,2.19,2.33.97,4.62,2.28,6.94,3.24,5.77,0,11.59,0,17.36,0,23.43,0,46.88,0,70.31,0"/><path class="b" d="M8.76,149.92c2.06.93,4.15,2.11,6.08,3.28,1.06.31,2.38.15,3.47.19,1.99,0,4.09,0,6.08,0,6.93,0,13.9,0,20.83,0,1.58-1.22,2.86-3.11,4.34-4.45,2.24-2.18,4.85-4.24,7.81-5.33,5.98-2.33,11.99.92,17.36,3.38,2.17,1.04,4.59,1.54,6.94,1.87,2.39.53,4.75,1.52,6.94,2.6,1.1.54,2.39,1.22,3.47,1.8,2.26.32,4.67.06,6.94.14,4.32,0,8.7,0,13.02,0,23.72,0,47.46,0,71.18,0"/><path class="b" d="M8.76,141.34c2.67,1.58,5.25,3.49,7.81,5.23,1.14.6,2.16,1.96,3.47,2.1,7.8-.03,15.64.06,23.44-.04,7.63-9.08,14.11-15.57,26.04-8.56,2.57,1.4,5.11,3.08,7.81,4.22,2.21.9,4.73,1.11,6.94,2.01,1.73.62,3.54,1.41,5.21,2.18.76.25,1.82.2,2.6.2,5.48,0,11.01,0,16.49,0,24.88,0,49.77,0,74.65,0"/><path class="b" d="M8.76,134.7c2.31,1.38,4.63,2.97,6.94,4.34,2.43,1.27,4.75,2.92,6.94,4.56,1.01.59,2.36.31,3.47.36,1.4,0,2.95,0,4.34,0,1.99,0,4.09,0,6.08,0,1.1-.05,2.44.18,3.47-.29,2.76-2.39,5.2-5.3,7.81-7.85,5.07-5.12,10.9-6.63,17.36-3.01,4.82,2.5,8.8,6.58,13.89,8.57,1.68.52,3.52.97,5.21,1.48,1.39.35,2.9.99,4.34,1.09,4.61,0,9.28,0,13.89,0,8.67,0,17.37,0,26.04,0,18.23,0,36.46,0,54.69,0"/><path class="b" d="M8.76,129.41c1.96,1.08,4.02,2.24,6.08,3.13,2.58.97,5.3,1.81,7.81,2.94,11.37,5.13,17.23-2.49,25.17-9.22,5.31-4.65,11.07-3.62,16.49.18,5.04,3.32,9.19,8.11,14.76,10.6,7.71,2.69,17.99,2.69,26.04,1.55,2.34-.36,4.71-1.04,6.94-1.81,2.27-.62,4.76-.21,6.94.57,1.43.5,2.97,1.25,4.34,1.9,1.99,0,4.09,0,6.08,0,4.61,0,9.28,0,13.89,0,13.3,0,26.63,0,39.93,0"/><path class="b" d="M8.76,125.31c2.2.95,4.55,1.88,6.94,2.17,1.39.13,2.95.05,4.34.13,4.69.26,9.55.02,13.89-1.94,3.74-1.6,7.11-4.04,10.42-6.38,2.4-1.61,4.84-3.69,7.81-4.04,10.24-.69,18.35,13.68,27.78,16.94,5.02,1.67,10.44,1.1,15.62.78,5.21-.43,10.54-.58,15.63-1.87,3.46-1.01,7.17-.12,10.42,1.21,1.74.61,3.42,1.8,5.21,2.24,1.39,0,2.95,0,4.34,0,4.61,0,9.28,0,13.89,0,12.73,0,25.47,0,38.2,0"/><path class="b" d="M8.76,122.06c4.85,1.41,7.55.79,12.15-.79,5.36-1.66,10.61-3.83,15.63-6.34,2.88-1.43,5.79-2.98,8.68-4.39,3.16-1.6,6-2.96,9.55-1.6,8.08,3.29,13.45,10.93,20.83,15.39,3.82,2.58,8.49,3.32,13.02,3.2,6.07-.18,12.17.27,18.23.51,2.89.13,5.79-.78,8.68-.65,2.63.08,5.32.68,7.81,1.51.77.26,1.83.66,2.6.91,1.08,0,2.39,0,3.47,0,17.94,0,35.88,0,53.82,0"/><path class="b" d="M8.76,119.17c4.95.7,8-.78,12.15-3.15,3.42-1.85,6.9-3.78,10.42-5.45,4.74-2.28,9.74-4.08,14.76-5.62,5.31-2.14,8.48-.85,13.02,2.18,8.14,5.66,15.58,13.88,26.04,14.68,5.25.47,10.55,1.09,15.62,2.6.77.21,1.83.5,2.6.69.77,0,1.83,0,2.6,0,1.99,0,4.09,0,6.08,0,6.06,0,12.17,0,18.23,0,17.65,0,35.31,0,52.95,0"/><path class="b" d="M8.76,115.96c4.51.38,7.56-1.01,11.28-3.3,3.08-1.74,6.28-3.44,9.55-4.8,5.81-2.52,12.12-3.53,18.23-5.05,4.94-1.7,9.8,1.31,13.89,3.82,9.06,5.92,14.99,9.68,26.04,10.86,2.62.42,5.3,1.03,7.81,1.86.78.26,1.84.63,2.6.92,1.38.2,2.95.07,4.34.11,26.91,0,53.82,0,80.73,0"/><path class="b" d="M8.76,112.4c4.71.72,7.2-.37,11.28-2.34,3.05-1.31,6.3-2.36,9.55-3.05,5.42-1.21,11.05-1.37,16.49-2.45,1.7-.34,3.47-.99,5.21-1.07,4.21-.22,8.3,1.31,12.15,2.82,7.88,3.22,15.79,6.73,24.31,7.84,2.6.37,5.23,1.14,7.81,1.55,2.28,0,4.66,0,6.94,0,26.91,0,53.82,0,80.73,0"/><path class="b" d="M8.76,108.6c6.14,1.64,7.45.07,13.02-1.06,4.56-.83,9.27-.76,13.89-.86,3.17-.07,6.43-.25,9.55-.83,2.02-.35,4.07-1.07,6.08-1.48,4.56-.93,9.33-.8,13.89.06,3.84.72,7.63,1.93,11.28,3.31,3.37,1.3,6.79,2.83,10.42,3.22,3.74,0,7.54,0,11.28,0,28.35,0,56.72,0,85.07,0"/><path class="b" d="M8.76,104.57c2.21.75,4.59,1.44,6.94,1.4,3.15-.39,6.37-.66,9.55-.41,6.95.49,14.06.71,20.83-1.19,3.5-.89,6.93-2.25,10.42-3.17,5.4-1.54,11.27-1.38,16.49.73,2.05.78,4.14,1.8,6.08,2.83,1.06.53,2.27,1.34,3.47,1.51,7.8,0,15.64,0,23.44,0,5.77-.11,11.56-2.11,17.36-1.03,1.43.18,2.92.89,4.34,1.03,1.69,0,3.52,0,5.21,0,4.32,0,8.7,0,13.02,0,12.44,0,24.89,0,37.33,0"/><path class="b" d="M8.76,100.38c1.09.38,2.37.83,3.47,1.16,2.87.02,5.81,0,8.68,0,5.77,0,11.59,0,17.36,0,1.1-.03,2.39.09,3.47-.14,1.4-.43,2.95-.95,4.34-1.42,5.05-1.38,9.65-4.18,14.76-5.35,8.29-1.92,14.21,2.95,20.83,6.9,3.45,0,6.97,0,10.42,0,3.74-.01,7.54.03,11.28-.02,2.24-.85,4.59-1.76,6.94-2.2,2.88-.35,5.8-1.03,8.68-1.4,3.5-.46,7.19-.03,10.42,1.44,1.73.6,3.36,2.36,5.21,2.17,16.2,0,32.41,0,48.61,0"/><path class="b" d="M8.76,96.17c1.69.64,3.43.75,5.21.67,1.99,0,4.09,0,6.08,0,5.77,0,11.59,0,17.36,0,1.19.14,2.42-.51,3.47-.97,1.69-.75,3.5-1.6,5.21-2.31,1.67-.7,3.56-1.21,5.21-1.97,3.1-1.38,6.2-3.05,9.55-3.73,8.85-1.95,14.8,4.99,21.7,8.99,3.45,0,6.97,0,10.42,0,2.28,0,4.66,0,6.94,0,1.39-.09,3.02.25,4.34-.29,1.65-.71,3.46-1.45,5.21-1.89,1.37-.34,2.96-.4,4.34-.73,2.58-.57,5.19-1.4,7.81-1.76,3.86-.61,7.89.19,11.28,2.1,1.46.7,2.82,2,4.34,2.55,15.33,0,30.68,0,46.01,0"/><path class="b" d="M8.76,92.12c6.06,0,12.17,0,18.23,0,1.99,0,4.09,0,6.08,0,1.4-.08,3.08.28,4.34-.47,4.28-2.09,8.45-4.55,13.02-5.99,3.13-1.3,6.22-2.98,9.55-3.73,8.01-2.09,14.67,3.88,20.83,8.04,1.07.71,2.36,1.52,3.47,2.16,1.09.01,2.39,0,3.47,0,5.19,0,10.43,0,15.63,0,3.15-.1,6.42.22,9.55-.19,9.81-2.5,14.45-5.95,24.31.19h46.01"/><path class="b" d="M8.76,87.41c5.77,0,11.59,0,17.36,0,1.99,0,4.09,0,6.08,0,1.44,0,3.08.17,4.34-.67,3.48-1.71,6.84-3.81,10.42-5.3,3.86-1.25,7.47-3.28,11.28-4.65,5.34-2.03,10.86-.91,15.63,2.01,3.5,2.11,7.04,4.33,10.42,6.63.77.52,1.82,1.23,2.6,1.74,1.62.52,3.52.15,5.21.25,3.45,0,6.97,0,10.42,0,4.61,0,9.28,0,13.89,0,1.99,0,4.09,0,6.08,0,1.08-.29,2.37-.64,3.47-.81,1.97-.32,4.12-.28,6.08.13,1.09.2,2.34.79,3.47.68,15.91,0,31.83,0,47.74,0"/><path class="b" d="M8.76,82.69c8.38,0,16.79,0,25.17,0,1.17-.11,2.4-.85,3.47-1.29,2.29-1.04,4.65-2.2,6.94-3.22,3.13-1.39,6.51-2.4,9.55-4.01,5.05-2.6,10.91-4.44,16.49-2.43,3.98,1.37,7.68,3.61,11.28,5.74,2.41,1.53,4.54,3.68,6.94,5.2h94.62"/><path class="b" d="M8.76,77.98c5.48,0,11.01,0,16.49,0,1.99,0,4.09,0,6.08,0,1.44.1,2.98-.15,4.34-.6,4.96-1.42,9.96-2.96,14.76-4.85,4.23-1.86,8.37-4.34,13.02-4.97,4.85-.75,9.64,1.06,13.89,3.23,3.92,1.66,7.29,4.36,10.42,7.19,18.51,0,37.04,0,55.56,0,4.61,0,9.28,0,13.89,0,.77,0,1.83,0,2.6,0,1.73-.45,3.48-1.33,5.21-1.82,8.71-2.87,10.94,1.61,18.23,1.82"/><path class="b" d="M8.76,73.27c5.48,0,11.01,0,16.49,0,4.88-.65,9.86-.69,14.76-1.14,3.55-.33,7.15-1.06,10.42-2.5,5.7-2.57,11.79-5.69,18.23-4.39,3.02.53,5.93,1.79,8.68,3.11,2.78,1.22,5.51,2.77,7.81,4.77,1.37.3,2.95.11,4.34.16,2.28,0,4.66,0,6.94,0,6.93,0,13.9,0,20.83,0,10.12,0,20.26,0,30.38,0,2.28-.07,4.69.17,6.94-.13,1.09-.44,2.39-.99,3.47-1.45,4.89-2.03,10.21-4.55,15.63-3.34,3.19.84,6.34,2.1,9.55,2.85"/><path class="b" d="M8.76,68.55c1.99,0,4.09,0,6.08,0,1.16-.15,2.36-.86,3.47-1.17,1.37-.44,2.92-.81,4.34-1.01,5.5-.82,11.03.36,16.49.9,3.49.35,7.16.17,10.42-1.23,13.44-5.88,17.8-4.66,30.38,2.03.7.54,1.77.52,2.6.49,1.39,0,2.95,0,4.34,0,4.03,0,8.12,0,12.15,0,11.57,0,23.16,0,34.72,0,3.45,0,6.97,0,10.42,0,1.98-.1,4.14.25,6.08-.21,7.4-2.14,14.63-6.61,22.57-5.66,3.55.66,6.95,2.15,10.42,3.14"/><path class="b" d="M8.76,63.84c.95.04,1.84-.81,2.6-1.27,1.36-.88,2.89-1.83,4.34-2.54,7.27-3.63,15.09-1.72,22.57.03,3.39.71,7.06,1.16,10.42.07,7.66-2.63,14.26-3.13,21.7.5,1.42.66,2.97,1.47,4.34,2.22.77.39,1.7,1.11,2.6.99,15.04,0,30.1,0,45.14,0,5.48,0,11.01,0,16.49,0,3.13-.14,6.58.45,9.55-.59,7.93-2.1,15.94-5.82,24.31-4.65,3.52.66,6.95,1.98,10.42,2.86"/><path class="b" d="M8.76,55.89c2.4-1.97,4.92-4.08,7.81-5.3,6.89-2.75,14-1.64,20.83.64,3.09.93,6.29,1.96,9.55,1.95,9.21-1.32,16.84,1.26,25.17,4.86.78.32,1.82.78,2.6,1.09,1.39,0,2.95,0,4.34,0,2.87,0,5.81,0,8.68,0,8.96,0,17.95,0,26.91,0,8.67,0,17.37,0,26.04,0,1.39,0,2.95.02,4.34-.02,1.68-.68,3.51-1.41,5.21-2.05,6.88-2.61,14.28-4.69,21.7-3.76,3.79.53,7.54,1.64,11.28,2.38"/><path class="b" d="M8.76,48.72c2.1-1.88,4.37-3.84,6.94-5.04,4.13-1.49,8.61-2.44,13.02-2.28,5.15.19,9.96,2.27,14.76,3.94,2.77,1.1,5.86,1.13,8.68,2,3.84,1.22,7.51,3.06,11.28,4.44,3.07,1.15,6.32,2.04,9.55,2.62,3.16.04,6.39,0,9.55.01,7.51,0,15.06,0,22.57,0,10.99,0,22,0,32.99,0,2.28,0,4.66,0,6.94,0,1.14-.48,2.38-1.31,3.47-1.89,13.19-7.46,20.65-5.47,34.72-3.44"/><path class="b" d="M8.76,43.64c2.1-1.72,4.39-3.5,6.94-4.49,1.37-.47,2.96-.72,4.34-1.14,3.66-1.05,7.44-2.2,11.28-2.12,4.92.03,9.51,2.14,13.89,4.16,1.66.8,3.56,1.39,5.21,2.21,1.76.91,3.54,2.09,5.21,3.16,2.7,1.68,5.54,3.57,8.68,4.28,4.61-.1,9.3.23,13.89-.17,22.54.29,45.15.14,67.71.17,14.91-11.61,20.21-7.85,37.33-7.3"/><path class="b" d="M8.76,40.27c2.15-1.36,4.48-2.73,6.94-3.44,2.97-.5,5.9-1.44,8.68-2.6,4.63-1.92,9.91-2.99,14.76-1.22,2.41.8,4.75,2.08,6.94,3.35,2.08,1.18,4.25,2.47,6.08,4.02,1.98,1.51,3.85,3.46,6.08,4.6,4.32,0,8.7,0,13.02,0,1.69-.03,3.52.08,5.21-.08,2.43-1.11,5.17-1.56,7.81-1.79,2.29-.18,4.72,0,6.94.58,1.11.29,2.41.74,3.47,1.19.76.13,1.83.1,2.6.1,16.49-.08,33,.15,49.48-.08,8.88-7.72,14.39-9.49,26.04-8.25,3.45.19,6.97-.22,10.42-.22"/><path class="b" d="M8.76,37.06c1.94-.84,4.02-1.68,6.08-2.22,1.99-.46,4.18-.59,6.08-1.42,4.23-1.65,8.38-4.1,13.02-4.28,5.17-.27,9.81,2.6,13.89,5.46,2.51,1.57,4.56,3.95,6.94,5.67,7.8,0,15.64,0,23.44,0,3.35-1.14,6.84-2.32,10.42-2.39,2.02-.05,4.15.29,6.08.92,1.44.34,2.85,1.44,4.34,1.48,8.67,0,17.37,0,26.04,0,4.9,0,9.85,0,14.76,0,1.69,0,3.52,0,5.21,0,1.21.06,2.61.07,3.47-.94,8.6-6.85,13.78-7.06,24.31-6.31,3.48.07,6.97-.68,10.42-.99"/><path class="b" d="M8.76,33c1.97-.6,4.06-1.25,6.08-1.65,2-.36,4.17-.47,6.08-1.23,3.44-1.22,6.79-2.97,10.42-3.61,8.13-1.6,14.91,4.36,20.83,9.06,9.25,0,18.53,0,27.78,0,2.13.26,4.08-.97,6.08-1.5,6.32-1.99,10.6-.87,16.49,1.5,14.46,0,28.94,0,43.4,0,.42.02,1.31-.02,1.74-.09.41-.28,1.31-.84,1.74-1.1,1.61-.96,3.44-1.85,5.21-2.45,5.89-2.21,12.17-.53,18.23-.4,3.53-.07,6.99-1.19,10.42-1.9"/><path class="b" d="M8.76,28.29c1.98-.53,4.06-1.1,6.08-1.45,2-.3,4.14-.36,6.08-.99,6.5-2.11,12.41-4.49,19.1-1.4,2.45,1.07,4.79,2.63,6.94,4.2.79.57,1.84,1.36,2.6,1.96.76.3,1.81.23,2.6.23,10.12,0,20.26,0,30.38,0,7.45-3.22,12.7-5.77,20.83-2.43,1.74.69,3.54,1.6,5.21,2.43.77,0,1.83,0,2.6,0,8.09,0,16.21,0,24.31,0,2.57,0,5.24,0,7.81,0,1.68-.13,3.67.37,5.21-.46,4.61-2.11,9.88-2.1,14.76-1.01,3.41.67,6.91,1.7,10.42,1.32,3.29-.45,6.43-1.82,9.55-2.88"/><path class="b" d="M8.76,23.15c1.97-.57,4.05-1.16,6.08-1.49,1.98-.29,4.12-.26,6.08-.75,5.36-1.3,11.06-2.91,16.49-1.06,2.78.87,5.41,2.38,7.81,4.01,1.1.7,2.27,1.75,3.47,2.28.78,0,1.83,0,2.6,0,9.25,0,18.53,0,27.78,0,.77,0,1.84.02,2.6-.07.43-.21,1.32-.64,1.74-.87,2-1.07,4.05-2.3,6.08-3.32,9.36-5.03,16.45-1.8,24.31,4.15,10.1.31,20.27.01,30.38.11,1.39,0,2.95.02,4.34-.02,1.95-.49,4.08-.65,6.08-.49,1.41.05,2.93.56,4.34.51,4.03,0,8.12,0,12.15,0,2.28,0,4.66,0,6.94,0,1.08,0,2.39,0,3.47,0,.42-.19,1.32-.6,1.74-.81"/><path class="b" d="M8.76,18.03c3.06-1.05,6.29-1.9,9.55-1.85,2.6-.19,5.24-.8,7.81-1.17,8.46-1.53,15.01,1.53,21.7,6.42,9.54,0,19.11,0,28.65,0,4.48.21,9.28-4.1,13.02-6.33,7.9-5.29,14.27-5.26,21.7.85,1.15.92,2.43,2.15,3.47,3.2.73.72,1.64,1.86,2.6,2.27h65.97"/></svg>