<?xml version="1.0" encoding="UTF-8"?><svg id="a" xmlns="http://www.w3.org/2000/svg" width="1920" height="2400" viewBox="0 0 192 240"><defs><style>.b{fill:none;stroke:#fff;stroke-miterlimit:10;stroke-width:.4px;}.c{stroke-width:0px;}</style></defs><rect class="c" width="192" height="240"/><path class="b" d="M8.76,215.58c3.63,1.47,6.98,3.67,10.42,5.52,4.5,2.46,9.17,4.7,13.89,6.7,1.68.71,3.51,1.46,5.21,2.14,1.09.39,2.31,1.07,3.47,1.19,2.28,0,4.66,0,6.94,0,14.17,0,28.36,0,42.54,0,1.77-.15,3.48-1.27,5.21-1.71,3.05-1.01,6.33-1.66,9.55-1.47,2.04.12,4.18.61,6.08,1.38,1.43.47,2.82,1.67,4.34,1.8,6.93-.04,13.9.07,20.83-.04,3.57-2.55,7.31-5.06,10.42-8.18,5.9-5.73,11.73-10.67,19.97-5.73,5.28,3.14,9.01,6.6,15.63,6.38"/><path class="b" d="M8.76,211.01c3.58,1.26,6.98,3.11,10.42,4.7,4.57,2.15,9.23,4.23,13.89,6.19,2.28.96,4.66,1.94,6.94,2.87,1.67.56,3.39,1.74,5.21,1.63,8.67,0,17.37,0,26.04,0,4.03,0,8.12,0,12.15,0,1.99-.03,4.09.06,6.08-.05.78-.42,1.83-.99,2.6-1.41,5.98-3.27,13.13-6.85,19.97-4.09,3.54,1.41,6.8,3.62,10.42,4.86,1.62.66,3.48.78,5.21.7,1.09-.02,2.4.08,3.47-.12,3.78-.89,7.13-3.1,10.42-5.06,8.33-4.55,14.42-15.32,25.17-9.54,5.76,3.16,9.47,6.78,16.49,7.41"/><path class="b" d="M8.76,208.38c5.63,1.08,11.2,2.73,16.49,4.93,5.91,2.43,11.56,5.5,17.36,8.17,1.06.34,2.38.17,3.47.21,1.69,0,3.52,0,5.21,0,5.48,0,11.01,0,16.49,0,4.32,0,8.7,0,13.02,0,1.69,0,3.52,0,5.21,0,.79,0,1.86.08,2.6-.27,3.8-2.4,7.4-5.26,11.29-7.54,3.85-2.34,8.66-3.97,13.02-2.06,7.8,3.17,13.8,6.96,22.57,4.22,3.52-1.17,7.19-2.33,10.42-4.18,5.91-3.72,11.8-8.32,19.1-5.2,3.39,1.34,6.37,3.64,9.55,5.38,2.68,1.45,5.69,2.43,8.68,2.98"/><path class="b" d="M8.76,206.82c12.1-1.28,17.61,1.18,27.78,7.35,1.69.9,3.35,2.3,5.21,2.81,2.28,0,4.66,0,6.94,0,12.73,0,25.47,0,38.2,0,6.99-3.68,16.5-15.59,24.31-14.18,5.04,1.09,9.73,3.53,14.76,4.7,5.68,1.5,11.63.97,17.36.08,5.57-1.23,10.58-5.05,16.49-4.62,5.52.28,10.08,3.82,14.76,6.36,2.68,1.41,5.7,2.31,8.68,2.8"/><path class="b" d="M8.76,205.33c2.58-.88,5.15-2.06,7.81-2.66,5.86-1.34,11.68,1.29,16.49,4.45,1.72,1.11,3.53,2.38,5.21,3.55.77.51,1.74,1.26,2.6,1.59.46,0,1.29,0,1.74,0,6.93,0,13.9,0,20.83,0,4.32,0,8.7,0,13.02,0,2.57-.09,5.27.19,7.81-.14,7.99-3.25,13.55-10.32,20.83-14.68,1.56-.87,3.4-1.61,5.21-1.64,2.95.17,5.88,1.13,8.68,2.01,4.88,1.62,9.74,3.49,14.76,4.67,3.68.79,7.51,1.65,11.28,1.47,3.21-.31,6.36-1.38,9.55-1.81,12.74-1.87,17.16,7.72,28.65,8.26"/><path class="b" d="M8.76,202.78c2.58-1.52,5.06-3.42,7.81-4.62,6.39-2.8,13.05.53,18.23,4.33,2.29,1.62,4.6,3.42,6.94,4.97,2.27.2,4.66.04,6.94.09,5.19-.1,10.45.2,15.63-.12,5.12-1.19,10.45-.71,15.63-1.43,15.89-2.25,23.08-18.24,33.85-15.26,10.15,2.01,18.75,8.42,28.65,11.2,5.97,1.51,12.17-1.11,18.23.09,3.01.47,5.96,1.62,8.68,2.97,1.71.78,3.42,1.97,5.21,2.56,2.86,0,5.82,0,8.68,0"/><path class="b" d="M8.76,197.96c2.56-1.84,5.01-4.07,7.81-5.54,7.02-3.62,14.08-.18,19.97,3.94,4.25,2.67,8.56,6.7,13.89,6.47,2.66.11,5.29-.81,7.81-1.53,2.83-.87,5.75-1.72,8.68-2.18,3.42-.57,6.96-.57,10.42-.79,3.21-.27,6.47-.93,9.55-1.86,7.29-2.1,13.04-7.44,19.97-10.31,3.68-1.51,7.75-.31,11.28,1.05,7.72,3.12,14.2,8.64,21.7,12.17,3.94,2.06,7.84,2.09,12.15,1.57,3.44-.35,7.01-.53,10.42.18,1.1.22,2.41.58,3.47.95.75.26,1.79.76,2.6.76,4.9,0,9.85,0,14.76,0"/><path class="b" d="M8.76,191.66c2.26-1.57,4.5-3.38,6.94-4.65,6.4-3.16,13.78-2.1,19.97,1.05,6.06,2.84,12.04,7.41,19.1,6.45,5.24-.53,10.4-1.87,15.63-2.49,6.14-.68,12.24-1.92,18.23-3.45,4.19-1.12,8.22-2.92,12.15-4.73,7.35-3.49,11.87-4.38,19.1.12,4.63,2.86,8.72,6.6,13.02,9.92,1.35,1.04,2.9,2.17,4.34,3.08.72.44,1.71,1.17,2.6,1.16,14.47-.04,28.93-.02,43.4,0"/><path class="b" d="M8.76,184.84c2.22-1.25,4.51-2.64,6.94-3.42,1.66-.48,3.51-.67,5.21-.93,5.79-.84,11.79-.48,17.36,1.37,4.18,1.29,8.11,3.36,12.15,4.99,3.03,1.12,6.32,1.67,9.55,1.7,7.5.08,14.68-2.46,21.7-4.8,6.63-1.68,13.45-2.72,19.97-4.86,7.19-2.09,11.79-3.54,18.23,1.47,3.42,2.55,6.47,5.67,9.55,8.6,1.65,1.47,3.27,3.36,5.21,4.44.77,0,1.84,0,2.6,0,15.33,0,30.68,0,46.01,0"/><path class="b" d="M8.76,177.99c2.2-.87,4.57-1.72,6.94-1.9,2.28-.02,4.66.14,6.94-.08,5.75-.42,11.65-1.36,17.36-.08,9.1,1.82,14.19,10.06,24.31,9.47,6.03-.34,11.14-3.95,16.49-6.33,4.11-1.7,8.64-2.15,13.02-2.71,4.34-.51,8.71-1.24,13.02-1.99,2.85-.44,5.93-1.25,8.68.03,6.66,3.15,11.08,9.5,16.49,14.29h51.22"/><path class="b" d="M8.76,171.46c2.23-.58,4.65-.91,6.94-.59,2.54.57,5.19,1.12,7.81.95,5.78-.18,11.58-2.05,17.36-.95,4.11.67,7.42,3.38,10.42,6.09,3.48,2.94,7.41,6.13,12.15,6.39,4.92.22,9.14-2.87,13.02-5.49,7.24-5.55,14.86-4.93,23.44-5.24,2.88-.12,5.84-.39,8.68-.85,1.98-.31,4.09-.95,6.08-.36,4.5,1.33,7.92,4.92,11.28,8,1.68,1.47,3.27,3.44,5.21,4.57,17.36,0,34.72-.01,52.08,0"/><path class="b" d="M8.76,165.49c2.85-.63,5.96-.55,8.68.57,2.47.9,5.2,1.18,7.81,1.07,6.6-.29,13.82-2.78,19.97.78,5.15,3.06,8.4,8.78,13.89,11.36,2.28,0,4.66,0,6.94,0,1.09-.02,2.39.06,3.47-.09,3.11-1.62,5.81-4.03,8.68-6,8.72-6.23,19.74-1.53,29.51-2.97,2.01-.17,4.05-1.01,6.08-.86,4.75.56,8.52,4.03,12.15,6.84,1.38.98,2.71,2.53,4.34,3.08,2.57,0,5.24,0,7.81,0,15.04-.01,30.09,0,45.14,0"/><path class="b" d="M8.76,160.08c2.21-.66,4.66-.94,6.94-.48,1.41.33,2.91.91,4.34,1.14,3.13.57,6.4.39,9.55.11,7.78-.87,14.25-.77,19.97,5.31,2.97,2.85,5.9,6.02,9.55,8.01,1,.61,2.36.32,3.47.38,1.39,0,2.95,0,4.34,0,.78,0,1.83.04,2.6-.12,1.14-.51,2.42-1.24,3.47-1.91,5.31-3.58,8.88-6.07,15.63-5.45,5.51.43,10.94,2.07,16.49,2.05,6.41.03,8.16-2.53,14.76.82,2.7,1.31,5.22,3.13,7.81,4.61,2.57,0,5.24,0,7.81,0,15.91,0,31.83,0,47.74,0"/><path class="b" d="M8.76,155.34c2.17-.91,4.57-1.62,6.94-1.54,2.86.35,5.8.7,8.68.46,8.75-.66,17.11-2.2,24.31,4.17,6.82,5.95,13.43,13.56,23.44,10.28,2.6-.73,5.17-1.89,7.81-2.47,6.68-1.28,13.34,1.2,19.97,1.8,2.86.31,5.82.35,8.68.03,2.28-.28,4.64-.87,6.94-.51,2.68.33,5.32,1.27,7.81,2.27,2.57.03,5.24,0,7.81.01,17.36,0,34.73,0,52.08,0"/><path class="b" d="M8.76,151.77c2.18-1.15,4.52-2.28,6.94-2.76,2.28-.31,4.68-.42,6.94-.84,6.56-1.09,13.52-2.34,19.97,0,4.27,1.44,7.81,4.4,11.28,7.16,5.72,4.73,12.31,8.95,19.97,9.18,1.98.13,4.09.13,6.08.26,1.4.07,2.94.4,4.34.36,6.35,0,12.74,0,19.1,0,26.62,0,53.24,0,79.86,0"/><path class="b" d="M8.76,149.45c2.23-1.34,4.54-2.8,6.94-3.81,2.25-.83,4.66-1.51,6.94-2.25,6.7-2.21,14.12-3.04,20.83-.45,8.93,3.31,16,10.09,24.31,14.58,1.94,1.02,3.97,2.24,6.08,2.9.78,0,1.83,0,2.6,0,10.41,0,20.84,0,31.25,0,25.17,0,50.35,0,75.52,0"/><path class="b" d="M8.76,147.91c5.89-4.02,12.16-7.75,19.1-9.62,5.43-1.51,11.24-.86,16.49,1.04,7.09,2.42,13.76,5.99,19.97,10.16,2.89,1.91,5.8,3.96,8.68,5.88,1.53.67,3.56.2,5.21.33,10.7,0,21.42,0,32.12,0,24.3,0,48.62,0,72.92,0"/><path class="b" d="M8.76,146.16c11.39-7.63,20.46-14.27,34.72-9.35,7.03,2.38,14.3,4.37,20.83,7.98,3.28,1.77,6.47,3.86,9.55,5.96,1.63.47,3.52.14,5.21.23,10.99,0,22,0,32.99,0,15.62,0,31.26,0,46.88,0,3.78.18,7.53-.89,11.28-1.16,4.32-.39,8.73-.11,13.02.48"/><path class="b" d="M8.76,142.18c13-8.68,20.07-12.11,35.59-6.68,7.03,2.62,14.71,2.89,21.7,5.61,3.66,1.28,6.98,3.44,10.42,5.17,7.51,0,15.06,0,22.57,0,14.46,0,28.94,0,43.4,0,2.28,0,4.66,0,6.94,0,2.31-.71,4.68-1.57,6.94-2.4,10.65-3.99,15.17-6.45,26.91-3.84"/><path class="b" d="M8.76,135.91c2.87-1.64,5.64-3.67,8.68-5.01,7.54-3.42,15.95-1.24,23.44,1.18,3.67,1.11,7.42,2.37,11.28,2.53,11.92,0,16.53.43,26.91,6.95,19.09,0,38.2,0,57.29,0,2.86-.05,5.82.11,8.68-.08,3.26-.87,6.51-2.07,9.55-3.53,5.79-2.6,11.05-6.75,17.36-8.03,3.76-.44,7.64.31,11.29,1.2"/><path class="b" d="M8.76,129.24c2.82-1.55,5.6-3.43,8.68-4.43,6.44-1.92,12.98.97,19.1,2.83,4.76,1.46,9.73,2.99,14.76,2.82,3.17-.2,6.37-.93,9.55-1.06,5.92-.42,11.56,1.98,16.49,5.04,1.39.78,2.84,1.86,4.34,2.42,1.99,0,4.09,0,6.08,0,13.02,0,26.05,0,39.06,0,1.39,0,2.95.03,4.34-.03,1.68-.33,3.51-.62,5.21-.82,3.73-.48,7.58-.55,11.28-1.21,4.29-.75,8.38-2.53,12.15-4.67,3.68-2.01,7.23-4.53,11.29-5.73,1.64-.49,3.52-.43,5.21-.29,2.3.17,4.7.53,6.94,1.07"/><path class="b" d="M8.76,123.56c2.78-1.42,5.6-3.11,8.68-3.77,6.05-.98,11.7,2.33,17.36,3.9,4.75,1.49,9.79,2.16,14.76,2.01,2.63-.19,5.24-.99,7.81-1.51,5.32-1.3,10.87-.4,15.63,2.26,2.33,1.21,4.64,2.69,6.94,3.93,1.35.64,2.83,1.6,4.34,1.74,8.67,0,17.37,0,26.04,0,3.15-.08,6.41.18,9.55-.12,2.88-.8,5.78-1.81,8.68-2.54,5.65-1.58,11.6-1.45,17.36-.62,4.36.54,8.9.18,13.02-1.42,11.91-4.85,10.29-6.57,24.31-4.98"/><path class="b" d="M8.76,119.76c2.51-1.15,5.09-2.46,7.81-3.01,2.9-.57,5.91.19,8.68,1.05,3.14.99,6.31,2.14,9.55,2.78,4.84,1.02,9.87.65,14.76.24,3.51-.51,6.89-1.97,10.42-2.42,7.63-1.27,13.56,3.58,19.97,6.76,2.45,1.11,5.14,1.9,7.81,2.21,1.69.13,3.52.04,5.21.06,3.49-.18,6.97-1.05,10.42-1.56,1.97-.3,4.09-.48,6.08-.3,1.4.14,2.92.6,4.34.56,3.93-.09,7.64-1.79,11.28-3.08,4.67-1.75,9.77-2.94,14.76-2,6.16,1.15,11.79,4.92,18.23,4.51,4.49-.12,8.69-2.03,13.02-2.98,1.66-.39,3.52-.29,5.21-.32,2.28-.06,4.66-.23,6.94-.3"/><path class="b" d="M8.76,118.2c2.52-1,5.12-2.15,7.81-2.61,3.2-.51,6.45.34,9.55,1.06,3.11.76,6.34,1.44,9.55,1.55,3.18.14,6.41-.29,9.55-.73,2.91-.34,5.91-.58,8.68-1.62,16.26-5.96,18.32,3.32,32.12,5.38,6.12.89,12.2-.8,18.23-1.57,1.68-.19,3.52-.27,5.21-.08,1.1.11,2.37.49,3.47.58,3.32.19,6.54-1.17,9.55-2.41,3.35-1.41,6.79-2.91,10.42-3.42,8.69-1.43,14.34,4.71,21.7,7.8,1.85.93,4.08.48,6.08.58,7.53-.02,15.16.24,22.57-1.3"/><path class="b" d="M8.76,116.84c2.84-.72,5.75-1.6,8.68-1.85,3.19-.21,6.41.56,9.55,1.02,2.84.44,5.81.65,8.68.39,4.97-.47,9.8-2.05,14.76-2.59,3.46-.74,6.87-2.04,10.42-2.37,9.75-1.01,15.14,5.59,25.17,5.01,6.12-.07,12.12-1.79,18.23-2.07,1.69-.07,3.54.01,5.21.3,1.97.43,4.04,1.05,6.08.75,6.93-.9,12.9-5.57,19.97-5.89,6.83-.54,12.05,4.56,17.36,8.05,1.25.74,2.95.29,4.34.4,2.28,0,4.67,0,6.94,0,6.35,0,12.74,0,19.1,0"/><path class="b" d="M8.76,113.28c10.7,0,21.42,0,32.12,0,1.75-.05,3.5-.97,5.21-1.32,2.55-.6,5.25-.93,7.81-1.48,3.98-.79,8.17-.97,12.15-.09,7.95,1.8,11.44,4.44,19.97,1.82,10.06-3,16.56-5.19,26.91-1.37,2.84.67,5.88.36,8.68-.34,6.03-1.44,11.86-4.84,18.23-4.15,4.71.6,8.43,4,12.15,6.66,1.33.49,2.95.18,4.34.26,2.28,0,4.67,0,6.94,0,6.64,0,13.32,0,19.97,0"/><path class="b" d="M8.76,108.57c13.88,0,27.78,0,41.67,0,3.16-.09,6.38-.69,9.55-.29,3.72.52,7.54.22,11.28.29,4.32-.07,8.71.15,13.02-.1,3.91-2.16,7.78-4.69,12.15-5.79,9.82-2.49,14.61,3.99,23.44,4.47,5.06.32,9.94-1.47,14.76-2.77,5.91-1.71,9.74-.74,14.76,2.71.74.48,1.72,1.28,2.6,1.47,1.69,0,3.52,0,5.21,0,8.67,0,17.37,0,26.04,0"/><path class="b" d="M8.76,103.86c17.07,0,34.15,0,51.22,0,7.8,0,15.64,0,23.44,0,1.25-.58,2.39-1.8,3.47-2.63,1.89-1.56,3.94-3.17,6.08-4.37,5.18-3.08,10.54-2.3,15.63.51,10.29,5.66,14.98,8.63,26.91,4.71,3.06-.9,6.42-1.67,9.55-.65,1.77.53,3.59,1.4,5.21,2.28,3.41.39,6.98.05,10.42.16,7.51,0,15.06,0,22.57,0"/><path class="b" d="M8.76,99.14h73.79c3.23-2.78,6.01-6.22,9.55-8.64,4.76-3.49,9.8-3.32,14.76-.36,3.25,1.87,6.45,3.98,9.55,6.1,1.63,1.04,3.38,2.24,5.21,2.9,3.16,0,6.39,0,9.55,0,1.99,0,4.09,0,6.08,0,3.37-1.11,7.05-1.38,10.42-.14,4.29.36,8.71.03,13.02.14,7.51,0,15.06,0,22.57,0"/><path class="b" d="M8.76,94.43c24.3-.09,48.63.18,72.92-.1,3.44-3.15,6.54-6.85,10.42-9.5,4.41-3.14,9.27-3.14,13.89-.45,3.6,2.06,7.09,4.46,10.42,6.94,1.64,1.06,3.28,2.64,5.21,3.1,3.74,0,7.54,0,11.28,0,16.78,0,33.57,0,50.35,0"/><path class="b" d="M8.76,89.72c13.88,0,27.78,0,41.67,0,8.09,0,16.21,0,24.31,0,1.39,0,2.95,0,4.34,0,.8,0,1.87.08,2.6-.29,3.81-3.04,7.17-6.78,11.28-9.43,5.92-3.99,11.57-3,17.36.62,5.01,2.82,9.26,7.2,14.76,9.11,5.48,0,11.01,0,16.49,0,13.88,0,27.78,0,41.67,0"/><path class="b" d="M8.76,85c17.07,0,34.15,0,51.22,0,4.9,0,9.85,0,14.76,0,1.69,0,3.52,0,5.21,0,1.12-.07,2.53.27,3.47-.47,4.11-2.81,7.82-6.3,12.15-8.78,5.82-3.49,11.69-3.39,17.36.34,5.52,3.4,10.92,7.43,17.36,8.88,4.9.08,9.85,0,14.76.03,12.73,0,25.47,0,38.2,0"/><path class="b" d="M8.76,80.29c17.65,0,35.31,0,52.95,0,5.48,0,11.01,0,16.49,0,2.86-.08,5.84.18,8.68-.13,4.13-2.44,7.94-5.51,12.15-7.8,6.73-3.58,10.07-3,16.49.67,5.28,2.83,10.7,5.59,16.49,7.21,4.9.12,9.86.01,14.76.05,12.15,0,24.31,0,36.46,0"/><path class="b" d="M8.76,75.58c18.8,0,37.62,0,56.42,0,8.96,0,17.95,0,26.91,0,3.62-1.66,6.78-4.4,10.42-6.08,5.97-2.97,8.28-1.26,13.89,1,4.29,1.72,8.66,3.38,13.02,4.91,1.95.38,4.1.09,6.08.17,3.45,0,6.97,0,10.42,0,12.44,0,24.89,0,37.33,0"/><path class="b" d="M8.76,70.86c19.67,0,39.36,0,59.03,0,7.51,0,15.06,0,22.57,0,1.99,0,4.09,0,6.08,0,2.56-1.3,5.12-2.87,7.81-3.89,4.67-1.88,6.91-.43,11.28,1,3.14,1.01,6.39,1.93,9.55,2.88,6.06.03,12.17,0,18.23,0,13.3,0,26.63,0,39.93,0"/><path class="b" d="M8.76,66.15c19.38,0,38.78,0,58.16,0,6.93,0,13.9,0,20.83,0,1.99,0,4.09,0,6.08,0,2.97-.58,5.76-2.22,8.68-3.06,4.39-1.48,7.04-1.31,11.28.43,1.97.65,4.08,1.27,6.08,1.84,1.08.27,2.34.81,3.47.79,6.06,0,12.17,0,18.23,0,13.88,0,27.78,0,41.67,0"/><path class="b" d="M8.76,61.44c16.49,0,32.99,0,49.48,0,6.93-.09,13.92.18,20.83-.11,6.52-.62,12.88-2.34,19.1-4.34,3.62-1.06,7.5-2.13,11.29-1.39,1.74.38,3.51,1.21,5.21,1.74,4.03,1.34,8.19,2.52,12.15,4.04,6.06.15,12.17.01,18.23.06,12.73,0,25.47,0,38.2,0"/><path class="b" d="M8.76,56.18c2.24.7,4.63.55,6.94.55,3.16,0,6.39,0,9.55,0,8.96,0,17.95,0,26.91,0,6.64,0,13.32,0,19.97,0,1.15-.17,2.37-.87,3.47-1.21,1.96-.7,4.08-1.24,6.08-1.81,4.38-1.27,8.69-2.91,13.02-4.34,4.71-1.52,9.83-2.91,14.76-1.68,2.32.68,4.63,1.73,6.94,2.44,3.49,1.16,7.06,2.36,10.42,3.88,1.73.78,3.56,1.71,5.21,2.66.76.1,1.84.07,2.6.07,16.2,0,32.41,0,48.61,0"/><path class="b" d="M8.76,48.33c2.87,1.16,5.71,2.62,8.68,3.53,1.66.33,3.52.09,5.21.16,3.16,0,6.39,0,9.55,0,10.7,0,21.42,0,32.12,0,2.28-.05,4.68.12,6.94-.1,3.33-1.78,6.95-3.13,10.42-4.62,8.02-3.49,16.04-9.09,25.17-8.03,3.32.41,6.36,2.12,9.55,3.05,7.12,2.13,14.05,5.13,19.97,9.7h46.88"/><path class="b" d="M8.76,39.34c2.01.98,4.06,2.16,6.08,3.13,1.65.8,3.56,1.35,5.21,2.16,1.42.68,2.96,1.51,4.34,2.27.74.49,1.77.41,2.6.4,13.3,0,26.63,0,39.93,0,.78,0,1.84.04,2.6-.11,1.69-.66,3.52-1.35,5.21-2.02,5.55-1.99,10.54-5.24,15.63-8.16,5.21-2.96,11.31-5.31,17.36-3.92,2.38.49,4.63,1.69,6.94,2.38,4.95,1.5,10.12,2.62,14.76,4.99,3.78,1.75,7.03,4.49,10.42,6.84,8.96,0,17.95,0,26.91,0,3.16,0,6.39,0,9.55,0,2.34.04,4.66.08,6.94-.52"/><path class="b" d="M8.76,30.34c2.32,1.02,4.62,2.34,6.94,3.36,1.7.68,3.57,1.34,5.21,2.17,4.54,2.24,9,4.86,13.89,6.3,1.92.69,4.08.35,6.08.43,2.87,0,5.81,0,8.68,0,3.74-.02,7.55.04,11.28-.03,3.45-.44,6.98-.82,10.42-1.4,2.95-.5,5.97-1.25,8.68-2.53,6.05-2.91,11.61-7.14,18.23-8.72,3.7-.91,7.69-.72,11.29.52,2.24.85,4.57,1.81,6.94,2.24,10.86,1.79,16.26,2.8,25.17,9.92,8.09,0,16.21,0,24.31,0,1.99,0,4.09,0,6.08,0,1.39-.08,3.01.23,4.34-.26,2.22-1.27,4.55-2.61,6.94-3.51"/><path class="b" d="M8.76,22.17c2.35.64,4.68,1.65,6.94,2.54,1.71.64,3.56,1.32,5.21,2.11,5.63,2.7,11.22,5.77,17.36,7.14,6.26,1.41,12.76,1.52,19.1,2.43,6.59.74,13.38,2.3,19.97.79,9.96-2.92,18.49-11.68,29.51-10.29,2.98.31,5.75,1.74,8.68,2.28,4.01.84,8.18,1.22,12.15,2.24,3.3.82,6.56,2.1,9.55,3.72,1.11.6,2.41,1.37,3.47,2.06,0,0,.87.57.87.57l.87.1c9.25,0,18.53,0,27.78,0,1.4-.12,3.11.36,4.34-.44,2.93-1.58,5.73-3.59,8.68-5.13"/><path class="b" d="M8.76,15.72c5.19.45,10.03,2.75,14.76,4.78,5.1,2.27,10.29,4.49,15.63,6.15,3.71,1.19,7.56,2.12,11.29,3.25,3.19.99,6.37,2.24,9.55,3.26,5.19,0,10.43,0,15.63,0,2.86-.07,5.83.14,8.68-.1,7.87-3.64,15.2-10.17,24.31-9.92,2.64.2,5.24,1.16,7.81,1.73,5.59,1.38,11.15,3.08,16.49,5.23,2.61.91,5.14,2.41,7.81,3.07,5.19,0,10.43,0,15.63,0,4.61,0,9.28,0,13.89,0,4.55-1.78,8.82-4.31,13.02-6.79"/><path class="b" d="M8.76,11.48c4.93-.46,9.37,1.97,13.89,3.51,5.79,2,11.69,3.81,17.36,6.12,3.52,1.42,7.05,3.03,10.42,4.79,1.7.8,3.39,2.04,5.21,2.54,1.09,0,2.38,0,3.47,0,6.93,0,13.9,0,20.83,0,2.87,0,5.81,0,8.68,0,2.15-.65,4.1-2.19,6.08-3.24,4.58-2.64,9.32-5.83,14.76-6.12,2.96-.02,5.92.93,8.68,1.94,3.84,1.46,7.56,3.37,11.29,5.08,1.96.81,3.98,1.97,6.08,2.35,1.08,0,2.39,0,3.47,0,7.22,0,14.48,0,21.7,0,4.67-1.13,9.3-2.64,13.89-4.04,2.97-.98,5.85-2.44,8.68-3.77"/><path class="b" d="M8.76,8.97c2.3-.22,4.74-.04,6.94.69,2.52,1.02,5.13,2.03,7.81,2.53,9.35,1.66,16.31,3.07,24.31,8.64,1.4.92,2.87,2.08,4.34,2.89,2.28,0,4.66,0,6.94,0,5.48,0,11.01,0,16.49,0,4.9,0,9.85,0,14.76,0,1.2.15,2.44-.49,3.47-1.01,1.1-.53,2.39-1.2,3.47-1.76,5.31-2.69,11.19-6.47,17.36-4.58,4.67,1.38,8.77,4.24,13.02,6.53.39.24,1.3.66,1.74.82.42,0,1.31,0,1.74,0,1.69,0,3.52,0,5.21,0,4.61,0,9.28,0,13.89,0,4.55-1.73,9.05-3.87,13.89-4.73,3.13-.65,6.4-.95,9.55-1.49,3.21-.57,6.43-1.49,9.55-2.43"/></svg>