<?xml version="1.0" encoding="UTF-8"?><svg id="a" xmlns="http://www.w3.org/2000/svg" width="1920" height="2400" viewBox="0 0 192 240"><defs><style>.b{fill:none;stroke:#fff;stroke-miterlimit:10;stroke-width:.4px;}.c{stroke-width:0px;}</style></defs><rect class="c" width="192" height="240"/><path class="b" d="M9.8,231.11c8,0,16.02,0,24.02,0,3.41,0,6.88,0,10.29,0,.83-.04,1.8-.55,2.57-.79,1.05-.35,2.34-.52,3.43-.67,6.98-1.46,12.76-6.33,19.73-7.85,3.09-.72,6.44-.63,9.43.43,2.75,1.12,5.67,2.01,8.58,2.64,4.86,1.08,9.82,1.93,14.58,3.41,1.99.61,4.07,1.35,6,2.13.42.18,1.29.53,1.72.7.76,0,1.81,0,2.57,0,8.28,0,16.59,0,24.87,0,1.32.22,2.43-1.04,3.43-1.7,1.88-1.34,3.96-2.65,6-3.73,3.69-1.96,7.83-3.2,12.01-3.41,11.17-.33,12.29,1.75,23.16-3.97"/><path class="b" d="M9.8,226.46c9.14,0,18.31,0,27.45,0,.45,0,1.27,0,1.72,0,.82-.4,1.8-1.12,2.57-1.6,1.58-.99,3.37-1.94,5.15-2.5,2.51-.68,5.25-.75,7.72-1.64,4.52-1.38,9-3.25,13.72-3.81,3.13-.39,6.41-.15,9.43.76,3.65,1.29,7.33,2.73,11.15,3.47,4.87,1.08,9.83,2.01,14.58,3.57,1.7.49,3.43,1.35,5.15,1.75,2.54,0,5.18,0,7.72,0,6.85,0,13.73,0,20.58,0,1.32-.15,2.35-1.5,3.43-2.17,1.85-1.38,3.94-2.66,6-3.7,3.7-1.88,7.86-2.96,12.01-3.1,11.79-.14,12.35,1.81,24.02-3.56"/><path class="b" d="M9.8,221.8c7.99-.08,16.03.16,24.02-.09,4.91-3.31,10.19-6.85,16.3-7.1,4.95-.66,9.65-2.68,14.58-3.41,9.84-1.54,13.71,2.17,22.3,4.68,4.54,1.32,9.22,2.35,13.72,3.81,2,.6,4.02,1.48,6,2.12,1.67,0,3.48,0,5.15,0,7.42,0,14.88,0,22.3,0,1.1-.06,2.48.25,3.43-.42,1.87-1.37,3.91-2.77,6-3.77,3.74-1.87,7.86-3.05,12.01-3.58,5.11-.69,10.34-.42,15.44-1.19,3.82-.56,7.45-2.15,11.15-3.18"/><path class="b" d="M9.8,217.14c3.7,0,7.45,0,11.15,0,1.38,0,2.91,0,4.29,0,.79,0,1.83.07,2.57-.25,3.04-1.8,6.17-3.62,9.43-4.99,4.05-1.77,8.47-2.59,12.87-2.73,2.92-.32,5.79-1.33,8.58-2.21,6.1-2.13,12.77-3.01,18.87-.4,2.56,1.06,5.08,2.45,7.72,3.31,4.77,1.67,9.76,2.73,14.58,4.23,1.69.52,3.5,1.15,5.15,1.79,1.08.37,2.28,1.12,3.43,1.23,6.28,0,12.59,0,18.87,0,2.83,0,5.75,0,8.58,0,1.72-.87,3.4-2.11,5.15-2.93,7-3.22,14.83-3.86,22.3-5.38,6.37-1.08,12.51-3.3,18.87-4.39"/><path class="b" d="M9.8,212.49c2.54,0,5.17,0,7.72,0,1.66-.12,3.57.3,5.15-.29,3.04-1.74,6.15-3.56,9.43-4.82,4.61-1.87,9.67-2.14,14.58-1.89,3.88.41,7.65-.75,11.15-2.32,4.34-1.83,8.91-3.79,13.72-3.52,2.34.12,4.73.78,6.86,1.76,1.95.96,3.95,2.11,6,2.82,4.69,1.74,9.72,2.39,14.58,3.45,4.5.92,8.88,2.52,12.87,4.81,2.25,0,4.61,0,6.86,0,3.12,0,6.31,0,9.43,0,1.94-.16,4.28.46,6-.6,3.25-1.75,6.61-3.59,10.29-4.24,6.04-1.18,12.2-2.04,18.01-4.14,6.44-2.24,12.81-5.23,19.73-5.52"/><path class="b" d="M9.8,207.83c3.12,0,6.31,0,9.43,0,1.57.14,2.94-1.28,4.29-1.92,2.43-1.41,5.02-2.76,7.72-3.57,5.63-1.9,11.47-.23,17.15.41,7.7.54,14.67-7.4,23.16-7.32,8.7.17,8.84,5.45,21.44,5.7,6.12.18,12.63.19,18.01,3.5,2.61,1.48,5.51,3.15,8.58,3.2,1.96,0,4.04,0,6,0,5.44-1.03,10.14-4.33,15.44-5.8,5.68-1.15,11.65-1.04,17.15-3.07,8.36-2.86,14.71-8.06,24.02-8.12"/><path class="b" d="M9.8,203.17c2.83,0,5.74,0,8.58,0,1.08-.02,2.36.08,3.43-.12.78-.46,1.79-1.07,2.57-1.51,2.15-1.23,4.48-2.38,6.86-3.07,3.89-1.2,8.08-.88,12.01-.04,2.23.43,4.57,1.01,6.86.98,6.98-.62,12.68-5.94,19.73-6.39,2.93-.26,5.95.41,8.58,1.69,2.39,1.33,4.93,2.68,7.72,2.86,7.45.72,14.97-3.5,22.3-.87,1.47.5,2.94,1.44,4.29,2.18,1.85.98,3.94,1.8,6,2.18,7.69,1.59,14.44-3.33,21.44-5.54,2.76-.77,5.74-.76,8.58-1.01,2.87-.21,5.81-.63,8.58-1.44,5.12-1.43,9.73-4.24,14.58-6.33,3.26-1.35,6.79-2.19,10.29-2.54"/><path class="b" d="M9.8,198.52c3.12,0,6.31,0,9.43,0,1.67-.08,3.51.19,5.15-.18,3.44-2.04,7.16-3.9,11.15-4.53,5.7-1.09,11.47,1.15,17.15.13,8.37-1.76,14.62-4.21,23.16-.87,2.58.86,4.96,2.62,7.72,2.87,8.71.57,16.03-7.96,24.87-5.5,2.12.62,4.01,2.05,6,2.96,2.91,1.42,6.18,2.37,9.43,2.35,5.73.04,10.91-2.81,16.3-4.36,5.12-1.14,10.51-1.32,15.44-3.27,9.57-3.49,15.76-10.07,26.59-10.51"/><path class="b" d="M9.8,193.86c3.41,0,6.88,0,10.29,0,1.08,0,2.35,0,3.43,0,.8,0,1.84.08,2.57-.3,2.71-1.46,5.6-2.77,8.58-3.56,4.74-1.35,9.73-.98,14.58-1.34,6.27-.75,12.75-1.34,18.87.63,3.8,1.1,7.44,2.83,11.15,4.19,1.02.48,2.34.38,3.43.38,1.09,0,2.4.08,3.43-.35,6.47-2.33,11.75-7.99,18.87-8.44,3.5-.27,6.53,1.77,9.43,3.42,4.41,2.49,9.44,4.38,14.58,3.91,3.81-.27,7.49-1.6,11.15-2.57,3.16-.71,6.44-1.32,9.43-2.6,7.54-2.96,13.58-8.61,20.59-12.53,3.63-2.01,7.89-2.73,12.01-2.63"/><path class="b" d="M9.8,189.2c5.13-.03,10.31.05,15.44-.03,3.55-1.57,7.32-2.82,11.15-3.5,3.67-.68,7.47-.86,11.15-1.46,5.79-1.42,11.54-1.42,17.15.72,3.51,1.17,6.8,3.09,10.29,4.26,2.54,0,5.18,0,7.72,0,1.38,0,2.91.01,4.29-.01,3.19-1.64,6.2-3.77,9.43-5.33,8.11-3.96,12.72-1.5,19.73,2.93,1.88.95,3.78,2.63,6,2.41,5.13,0,10.31,0,15.44,0,2.29,0,4.7.19,6.86-.73,6.57-2.34,11.86-7.18,17.15-11.56,6.56-5.53,11.5-9.31,20.59-8.44"/><path class="b" d="M9.8,184.54c3.7,0,7.45,0,11.15,0,1.42-.07,2.89-.8,4.29-1.06,1.94-.47,4.02-.81,6-1.02,4.26-.46,8.61-.31,12.87-.81,2.63-.23,5.17-1.25,7.72-1.85,4.59-1.01,9.38-.11,13.72,1.52,2.86.97,5.65,2.47,8.58,3.22,3.7-.04,7.46.08,11.15-.06,3.94-1.67,7.74-3.97,12.01-4.71,4.11-.79,8.34.36,12.01,2.23,1.09.54,2.38,1.23,3.43,1.85.65.53,1.74.78,2.57.69,10,0,20.02,0,30.02,0,1.67-.04,3.49.11,5.15-.1,2.05-1.47,4.1-3.19,6-4.85,4.88-4.14,9.48-9,15.44-11.57,3.24-1.27,6.85-1.44,10.29-1.31"/><path class="b" d="M9.8,179.89c2.26,0,4.61,0,6.86,0,2.97-1.26,6.19-2.12,9.43-2.05,6.89-.06,13.7,2.97,20.58,1.55,2.03-.45,3.99-1.49,6-1.98,3.61-.99,7.47-1.08,11.15-.5,6.23.86,12.55,3.86,18.87,2,2.84-.79,5.67-1.94,8.58-2.5,3.74-.78,7.7-.2,11.15,1.38,1.42.58,2.86,1.54,4.29,2.09.42,0,1.29,0,1.72,0,12.86,0,25.74,0,38.6,0,1.96,0,4.04,0,6,0,.5-.08,1.35-.58,1.72-.93,1.08-.82,2.36-1.82,3.43-2.66,8.6-6.74,12.72-9.87,24.02-10.64"/><path class="b" d="M9.8,175.23c2.26,0,4.61,0,6.86,0,2.2-.72,4.51-1.49,6.86-1.38,2.62-.02,5.19.85,7.72,1.38,3.98,0,8.02,0,12.01,0,3.98,0,8.02,0,12.01,0,1.11.04,2.35-.49,3.43-.68,1.94-.42,4.02-.69,6-.81,5.7-.41,11.53.68,17.15-.61,9.22-2.5,12.99-2.86,21.44,2.09,3.41,0,6.88,0,10.29,0,9.14,0,18.31,0,27.45,0,3.12,0,6.31,0,9.43,0,1.66-.13,3.58.33,5.15-.32,4.76-2.62,9.48-5.49,14.58-7.43,3.89-1.42,8.04-2.16,12.01-3.32"/><path class="b" d="M9.8,170.57c14,0,28.02,0,42.03,0,5.7,0,11.45,0,17.15,0,4.3-.53,8.72-1.07,12.87-2.38,5.96-2.17,11.27-3.57,17.15-.24,1.45.72,2.85,1.89,4.29,2.61,1.96,0,4.04,0,6,0,4.84,0,9.74,0,14.58,0,6.28,0,12.59,0,18.87,0,5.99,0,12.02,0,18.01,0,3.18-.83,6.24-2.37,9.44-3.22,4-1.12,8.14-2.03,12.01-3.58"/><path class="b" d="M9.8,165.92c17.72,0,35.46,0,53.18,0,3.12,0,6.31,0,9.43,0,1.37,0,2.91,0,4.29,0,1.43-.3,2.95-.97,4.29-1.56,10.25-5.53,14.63-6.45,24.02,1.47,15.71.25,31.46,0,47.17.09,5.42,0,10.88,0,16.3,0,2.25-.04,4.62.1,6.86-.08,2.31-.59,4.67-1.42,6.86-2.35"/><path class="b" d="M9.8,161.26c18.29,0,36.6,0,54.89,0,3.41,0,6.88,0,10.29,0,1.37,0,2.91,0,4.29,0,1.2-.39,2.4-1.35,3.43-2.06,11.31-8.94,15.54-7.07,25.73,2.01,24.58.13,49.18,0,73.76.05"/><path class="b" d="M9.8,156.6c18.29,0,36.6,0,54.89,0,3.41,0,6.88,0,10.29,0,1.66-.09,3.53.22,5.15-.21.43-.33,1.31-1.02,1.72-1.38,5.6-4.96,11.72-12.36,19.73-7.24,4.01,2.49,7.22,6.17,11.15,8.79,23.15.14,46.32,0,69.47.05"/><path class="b" d="M9.8,151.95c15.72,0,31.45,0,47.17,0,6.85-.07,13.74.13,20.59-.08,4.3-2.56,7.32-6.8,11.15-9.94,5.34-4.58,10.18-4.21,15.44.24,2.85,2.38,5.54,5.11,8.58,7.27,1.33.83,2.58,2.67,4.29,2.5,6.28,0,12.59,0,18.87,0,15.43,0,30.88,0,46.32,0"/><path class="b" d="M9.8,147.29c13.15,0,26.31,0,39.45,0,4.27,0,8.59,0,12.87,0,1.67,0,3.47,0,5.15,0,2.02-.49,4.1-1.22,6-2.03,3.14-1.34,6.08-3.31,8.58-5.64,3.78-3.33,7.51-7.9,12.87-8.31,5.78-.06,9.77,5.02,13.72,8.56,2.64,2.44,5.71,4.54,8.58,6.7.86.91,2.3.7,3.43.71,1.67,0,3.48,0,5.15,0,4.84,0,9.74,0,14.58,0,14,0,28.02,0,42.03,0"/><path class="b" d="M9.8,139.62c2.86.15,5.82.37,8.58,1.18,1.49.36,2.81,1.52,4.29,1.83,5.7,0,11.45,0,17.15,0,4.84,0,9.74,0,14.58,0,2.25,0,4.61,0,6.86,0,1.13-.48,2.35-1.27,3.43-1.85,4.91-2.73,9.98-5.33,14.58-8.56,4.28-2.92,8.25-7.34,13.72-7.68,6.14-.06,10.41,5.26,14.58,9.06,3.31,3.15,7.3,5.62,11.15,8.04.41.25,1.29.74,1.72.97.42.01,1.3.02,1.72.02,1.67,0,3.48,0,5.15,0,4.56,0,9.17,0,13.72,0,13.72,0,27.45,0,41.17,0"/><path class="b" d="M9.8,131.22c3.27.66,6.55,1.8,9.43,3.48,1.49.9,2.9,2.25,4.29,3.28h36.02c6.23-4.98,12.79-9.58,19.73-13.54,6.13-3.82,11.9-7.41,18.87-3.04,4.13,2.5,7.39,6.25,11.15,9.24,3.99,2.84,8.37,5.31,12.87,7.25,9.7.23,19.45,0,29.16.08,10.29,0,20.59,0,30.88,0"/><path class="b" d="M9.8,124.58c3.02,1.47,5.83,3.48,8.58,5.39.81.59,1.84,1.47,2.57,2.15.61.7,1.6,1.38,2.57,1.19,11.43,0,22.88,0,34.31,0,2.66-1.82,5.05-4.22,7.72-6.05,3.72-2.74,7.8-5.06,12.01-6.96,5.29-2.45,11.3-5.35,17.15-3.04,5.27,1.94,9.28,6.13,13.72,9.4,3.14,2.26,6.77,3.88,10.29,5.44,1.34.51,2.81,1.34,4.29,1.21,2.54,0,5.18,0,7.72,0,6.28,0,12.59,0,18.87,0,10.86,0,21.74,0,32.59,0"/><path class="b" d="M9.8,119.58c3.52,2.87,6.59,6.44,10.29,9.08h35.17c6.83-5.18,13.02-8.65,21.44-10.6,4.22-1.05,8.45-2.73,12.87-2.59,8.04.15,14,6.25,20.58,10.02,2.18,1.15,4.56,2.15,6.86,3.02,1.35.3,2.91.11,4.29.16,2.25,0,4.61,0,6.86,0,18.01,0,36.03,0,54.04,0"/><path class="b" d="M9.8,115.29c1.7,1.83,3.46,3.88,5.15,5.72,1.03.98,2.05,2.5,3.43,2.99,2.25,0,4.61,0,6.86,0,8.28-.06,16.6.11,24.87-.06,5.49-4.03,11.96-7,18.87-7.1,3.12-.14,6.32.07,9.43-.22,2.85-.33,5.71-1.12,8.58-1.34,7.29-.88,13.83,2.88,19.73,6.7,1.06.65,2.33,1.4,3.43,1.98,1.67.1,3.48.03,5.15.05,3.41,0,6.88,0,10.29,0,18.87,0,37.74,0,56.61,0"/><path class="b" d="M9.8,112.81c1.07,1.29,2.34,2.82,3.43,4.09.71.78,1.58,1.99,2.57,2.44h27.45c7.39-6.65,14.07-9.7,24.02-6.85,4.49,1.16,8.99,3.19,13.72,2.77,6.2-.63,12.19-1,18.01,1.69,1.73.64,3.37,1.89,5.15,2.38,3.98,0,8.02,0,12.01,0,14.29,0,28.6,0,42.89,0,4.84,0,9.74,0,14.58,0,1.67,0,3.48,0,5.15,0,1.1-.07,2.49.26,3.43-.44"/><path class="b" d="M9.8,110.92c1.05,1.21,2.26,2.68,3.43,3.77h24.02c3.01-2.01,5.54-4.86,8.58-6.86,4.16-3.03,9.67-3.75,14.58-2.41,6.59,1.63,12.21,6.01,18.87,7.39,3.95.61,8.05.25,12.01.8,1.7.21,3.49.64,5.15,1.08,3.41,0,6.88,0,10.29,0,14.86,0,29.74,0,44.6,0,6.85,0,13.73,0,20.59,0,.4,0,1.31,0,1.72,0,.78-.28,1.84-.74,2.57-1.12,2.04-1.04,4.09-2.36,6-3.6"/><path class="b" d="M9.8,107.88c.73.69,1.68,1.69,2.57,2.16,6.28,0,12.59,0,18.87,0,.97.09,1.83-.84,2.57-1.33,1.09-.8,2.35-1.77,3.43-2.57,3.83-2.8,7.96-5.97,12.87-6.31,14.64-1.01,25.28,11.37,40.31,10.21,17.15,0,34.31,0,51.46,0,8,0,16.02,0,24.02,0,2.9-1.36,5.69-3.16,8.58-4.54,2.65-1.5,5.19-3.39,7.72-5.08"/><path class="b" d="M9.8,102.99c1.33.85,2.84,1.72,4.29,2.35,3.41.08,6.88,0,10.29.03,6.57-2.83,12.41-7.84,19.73-8.67,2.56-.34,5.2.05,7.72.45,3.13.47,6.32,1.01,9.43,1.59,4.6.87,9.24,1.87,13.72,3.23,3.16.89,6.2,2.4,9.43,3.03,2.78.67,5.75.27,8.58.37,4.27,0,8.6,0,12.87,0,18.29,0,36.6,0,54.89,0,.4,0,1.31,0,1.72,0,.8-.42,1.84-1.13,2.57-1.65,1.39-.99,2.92-2.15,4.29-3.17,1.88-1.46,4.04-2.78,6-4.12,2.24-1.57,4.53-3.29,6.86-4.73"/><path class="b" d="M9.8,96.65c3.02.91,6.28,1.46,9.43,1.08,3.58-.57,6.89-2.31,10.29-3.48,3.27-1.17,6.82-1.86,10.29-1.48,5.04.44,9.6,3.06,14.58,3.79,5.38.9,10.88.26,16.3.34,2.88.05,5.87.42,8.58,1.46,3.48,1.53,7.34,2.44,11.15,2.36,23.73,0,47.46,0,71.19,0,3.31-2.36,6.3-5.27,9.43-7.84,3.59-2.67,7.21-5.51,11.15-7.66"/><path class="b" d="M9.8,89.96c3.41.31,6.94.22,10.29-.49,4.21-.96,8.49-2.38,12.87-2.04,10.13.73,15.75,8.79,26.59,8.13,5.15-.08,10.27-1.49,15.44-1.2,2.36.06,4.65.94,6.86,1.68,1.08.06,2.36.03,3.43.03,13.43,0,26.88,0,40.31,0,8,0,16.02,0,24.02,0,2.83,0,5.75,0,8.58,0,.75,0,1.82,0,2.57,0,.86.1,1.98-.13,2.57-.83,2.89-2.32,5.63-5,8.58-7.26,3.31-2.29,6.62-4.79,10.29-6.48"/><path class="b" d="M9.8,83.3c10.26-.44,16.76-3.12,26.59,2.23,3.24,1.69,6.31,3.84,9.43,5.73,1.94.32,4.04.07,6,.15,3.7,0,7.45,0,11.15,0,33.16-.07,66.34.14,99.49-.07,2.87-2.39,5.61-5.11,8.58-7.39,3.49-2.41,7.21-4.73,11.15-6.34"/><path class="b" d="M9.8,77.99c3.39-.37,6.87-.83,10.29-.69,7.76.58,14.2,5.49,20.59,9.45,24.01,0,48.03,0,72.05,0,14,0,28.02,0,42.03,0,1.96,0,4.04,0,6,0,1.63-.73,2.92-2.39,4.29-3.51,2.16-1.96,4.41-4.05,6.86-5.64,3.26-1.83,6.7-3.59,10.29-4.67"/><path class="b" d="M9.8,74.52c9.67-1.55,14.11.67,22.3,5.25,1.38.75,2.89,1.61,4.29,2.32,1.96,0,4.04,0,6,0,10.57,0,21.16,0,31.74,0,5.42,0,10.88,0,16.3,0,2.25-.2,4.59-.62,6.86-.57,2.28-.1,4.59.59,6.86.57,7.14,0,14.31,0,21.44,0,7.14,0,14.31,0,21.44,0,2.54,0,5.18,0,7.72,0,.75,0,1.82,0,2.57,0,0,0,.86,0,.86,0l.86-.48c4.31-3.42,8.09-7.67,12.87-10.47,3.23-1.57,6.75-2.82,10.29-3.46"/><path class="b" d="M9.8,72.36c5.87-.99,11.02.48,16.3,2.95,1.66.71,3.45,1.47,5.15,2.09.78.04,1.8.03,2.57.03,10.57,0,21.16,0,31.74,0,4.55-.08,9.18.16,13.72-.1,3.43-.71,6.85-1.74,10.29-2.41,4.8-.98,9.87-.98,14.58.43,1.09.32,2.38.77,3.43,1.19,1.03.46,2.26,1.04,3.43.89,10,0,20.02,0,30.02,0,3.98,0,8.02,0,12.01,0,1.25.05,2.39-1.06,3.43-1.63,2.04-1.34,4.1-2.93,6-4.46,6.67-5.52,10.63-8.57,19.73-8.98"/><path class="b" d="M9.8,69.91c5.41-.97,10.42,1.09,15.44,2.79,5.7.21,11.45.01,17.15.08,5.99,0,12.02,0,18.01,0,3.11-.1,6.35.21,9.43-.15,6.97-1.51,13.64-4.2,20.58-5.79,5.71-1.26,11.75-.61,17.15,1.59,3.41,1.37,6.73,3.18,10.29,4.15,1.34.38,2.92.14,4.29.2,2.25,0,4.61,0,6.86,0,3.7,0,7.45,0,11.15,0,3.14-.37,6.37-.85,9.43-1.63,6.35-1.6,11.77-5.51,17.15-9.07,4.46-3.16,9.96-4.85,15.44-4.24"/><path class="b" d="M9.8,65.95c2.26-.26,4.65-.14,6.86.38,1.99.5,4.02,1.25,6,1.76,4.56.07,9.17,0,13.72.03,2.85-.57,5.67-1.65,8.58-1.95,2.02-.29,4.07.26,6,.76,1.65.35,3.46.56,5.15.62,11.67.33,22.58-4.47,33.45-8.02,6.22-1.93,12.99-1.29,18.87,1.44,4.39,2.08,8.86,4.26,13.72,4.95,6.3,1.07,12.67-.28,18.87-1.41,5.44-.88,11.08-1.05,16.3-2.98,8.34-2.83,15.53-9.12,24.87-7.33"/><path class="b" d="M9.8,61.58c1.99-.03,4.08.25,6,.77,1.68.46,3.36,1.35,5.15,1.11,3.98-.02,8.02.04,12.01-.02,2.6-.86,5.16-2.08,7.72-3.06,2.98-1.2,6.39-1.85,9.43-.51,5.49,1.85,11.47,2.35,17.15,1.12,7.13-1.55,13.85-4.61,20.59-7.34,11.92-4.62,17.3.51,27.45,5.3,10.76,4.52,17.42-.35,27.45-2.91,6.24-1.19,12.69-1.32,18.87-2.87,6.75-1.51,13.56-4.21,20.59-3.03"/><path class="b" d="M9.8,56.91c1.4.16,2.94.48,4.29.88,1.1.28,2.29.94,3.43,1.02,2.83,0,5.74,0,8.58,0,1.97,0,4.04,0,6,0,1.18-.06,2.37-.86,3.43-1.32,1.66-.81,3.44-1.72,5.15-2.43,3.69-1.59,6.68-1.78,10.29.06,5.35,2.34,11.38,3.79,17.15,2.2,3.25-.8,6.37-2.25,9.43-3.58,3.5-1.34,6.9-3.06,10.29-4.66,14.41-6.58,19.66,5.83,31.73,8.62,6.98,1.45,13.12-3.07,18.87-6.34,3.65-2.09,7.89-3.01,12.01-3.7,5.95-.91,12.01-1.16,18.01-1.49,4.55-.16,9.17-.71,13.72-.4"/><path class="b" d="M9.8,52.22c2.04.39,4.04,1.3,6,1.93,3.41,0,6.88,0,10.29,0,2.83-.04,5.75.09,8.58-.06,2.23-1.04,4.52-2.21,6.86-2.99,2.78-1,5.97-1.03,8.58.48,1.08.52,2.35,1.17,3.43,1.69.75.35,1.72.92,2.57.89,3.98,0,8.02,0,12.01,0,1.07,0,2.36,0,3.43,0,2.36-.77,4.58-2.21,6.86-3.19,6.26-2.13,11.84-7.71,18.87-6.49,6.45,1.16,10.73,6.77,16.3,9.68,5.42,0,10.88,0,16.3,0,3.61-2.31,6.72-5.45,10.29-7.81,6.23-3.52,13.4-5.71,20.58-5.78,4.29-.06,8.6.63,12.87,1,2.84.18,5.75-.19,8.58-.29"/><path class="b" d="M9.8,48.04c1.42.35,2.89,1.05,4.29,1.45,3.98,0,8.02,0,12.01,0,4.27,0,8.59,0,12.87,0,1.91-.63,3.97-1.29,6-1.34,1.1-.03,2.39.15,3.43.51.77.28,1.72.89,2.57.83,4.27,0,8.59,0,12.87,0,3.41,0,6.88,0,10.29,0,1.07,0,2.36,0,3.43,0,1.42-.38,2.94-1.04,4.29-1.62,3.15-1.55,6.08-3.74,9.43-4.84,6.79-2.44,12.25,2.46,17.15,6.46,8,0,16.02,0,24.02,0,1.46.27,2.49-1.17,3.43-2.04,1.33-1.28,2.83-2.71,4.29-3.84,1.54-1.2,3.46-2.11,5.15-3.08,2.73-1.5,5.6-2.96,8.58-3.89,5.86-2.01,12.14-1.08,18.01.37,3.36.94,6.91.42,10.29-.07"/><path class="b" d="M9.8,44.84c18.58,0,37.17,0,55.75,0,3.98,0,8.02,0,12.01,0,1.67,0,3.48.02,5.15-.02.42-.21,1.3-.67,1.72-.9,8.75-5.3,13.24-5.63,21.44.92,9.43,0,18.88,0,28.3,0,.98.18,1.99-.48,2.57-1.21,1.04-1.03,2.3-2.23,3.43-3.16,1.55-1.27,3.47-2.27,5.15-3.35,2.72-1.69,5.57-3.39,8.58-4.55,6.23-2.59,12.65-1.39,18.87.54,3.05.94,6.35.41,9.43-.05"/><path class="b" d="M9.8,40.18c21.15,0,42.32,0,63.47,0,3.41,0,6.88,0,10.29,0,3.43-1.21,6.52-3.54,10.29-3.85,2.98-.35,6.01.62,8.58,2.09,1.35.71,2.64,2.03,4.29,1.76,3.12,0,6.31,0,9.43,0,4.84,0,9.74,0,14.58,0,1.66-.09,3.52.22,5.15-.21,1.35-1.22,2.86-2.59,4.29-3.72,3.32-2.34,6.84-4.58,10.29-6.73,5.44-3.38,11.73-4.82,18.01-3.14,2.28.49,4.56,1.41,6.86,1.78,2.24.32,4.61.24,6.86.21"/><path class="b" d="M9.8,35.52c16.86,0,33.74,0,50.6,0,7.42,0,14.88,0,22.3,0,3.69-1.16,7.18-3.36,11.15-3.53,2.63-.19,5.32.47,7.72,1.51,1.68.55,3.35,2.11,5.15,2.02,9.14,0,18.31,0,27.45,0,2.07-1.26,4.01-2.96,6-4.34,1.94-1.36,4.09-2.65,6-4.06,5.52-3.99,11.74-8.21,18.87-7.63,3.22.18,6.36,1.25,9.43,2.14,2.51.64,5.17.99,7.72,1.46"/><path class="b" d="M9.8,30.86c19.72,0,39.46,0,59.18,0,3.4-.1,6.91.2,10.29-.14,3.98-1.18,7.85-3.06,12.01-3.54,3.18-.38,6.45.24,9.43,1.34,1.39.5,2.92,1.13,4.29,1.68.75.29,1.75.77,2.57.66,2.54,0,5.18,0,7.72,0,4.56,0,9.17,0,13.72,0,4.36-1.16,8.19-3.92,12.01-6.23,6.19-3.65,11.65-9.07,18.87-10.63,4.61-1.03,9.35.16,13.72,1.63,2.83.88,5.78,1.66,8.58,2.64"/><path class="b" d="M9.8,26.21c22.01,0,44.03,0,66.04,0,3.53-2.46,7.8-3.83,12.01-4.55,9.79-1.59,16.49,5.89,24.02,4.09,4.24-.8,8.62-.96,12.87-1.71,4.13-.69,8.22-1.97,12.01-3.75,4.83-2.17,9.16-5.32,13.72-7.97,4.61-2.72,10.12-4.19,15.44-3.05,5.55,1.25,11.01,3.18,16.3,5.28"/></svg>