<?xml version="1.0" encoding="UTF-8"?><svg id="a" xmlns="http://www.w3.org/2000/svg" width="1920" height="2400" viewBox="0 0 192 240"><defs><style>.b{fill:none;stroke:#fff;stroke-miterlimit:10;stroke-width:.4px;}.c{stroke-width:0px;}</style></defs><rect class="c" x="0" width="192" height="240"/><path class="b" d="M8.52,226.59c3.98,2.57,8.27,5.02,13.06,5.6,3.75-.04,7.57.13,11.32-.08,5.27-.63,10.54-1.63,15.67-3.01,4.93-1.4,9.7-3.61,14.8-4.38,7.97-1.4,16.02,2.02,21.76,7.48,8.99,0,18,0,26.98,0,1.85.15,3.45-1.35,5.22-1.7,2.23-.63,4.66-.75,6.96-.61,4.62.28,9.28,1.42,13.93.9,2.09-.17,4.13-1.01,6.09-1.69,2.54-.72,5.34-.46,7.83.33,1.44.45,3,1.12,4.35,1.79.76.36,1.73,1.03,2.61.98,1.69,0,3.53,0,5.22,0,6.37,0,12.78,0,19.15,0"/><path class="b" d="M8.52,218.32c6.38,3.07,13.19,5.11,20.02,6.91,3.14.83,6.36,1.73,9.57,2.25,2.87,0,5.83,0,8.7,0,2.73.22,5.33-1.1,7.83-2,3.4-1.35,6.86-2.81,10.44-3.6,5.63-1.37,11.73-.28,16.54,2.95,1.12.73,2.4,1.66,3.48,2.45.76.26,1.82.2,2.61.2,5.21,0,10.46,0,15.67,0,1.09,0,2.39,0,3.48,0,.81,0,1.89.09,2.61-.35,4.05-3.49,8.55-5.17,13.93-4.62,4.94.39,9.81,1.93,14.8,1.83,2.04.01,4.12-.54,6.09-1,1.68-.29,3.55-.26,5.22.04,3.71.62,7.08,2.54,10.44,4.1,7.82,0,15.68,0,23.5,0"/><path class="b" d="M8.52,211.26c6.48,1.63,13.05,3.29,19.15,6.09,2.33,1.06,4.7,2.3,6.96,3.49,1.39.63,2.82,1.73,4.35,1.92,2.29,0,4.68,0,6.96,0,3.75-.07,7.58.14,11.32-.09,5.3-1.76,10.87-3.63,16.54-3.01,2.07.22,4.2.82,6.09,1.69,1.1.43,2.27,1.36,3.48,1.41,6.08,0,12.2,0,18.28,0,3.91.02,3.68.34,6.96-1.98,5.14-3.81,10.21-5,16.54-4.23,4.64.49,9.26,1.58,13.93,1.82,1.99.14,4.1-.07,6.09-.04,2.33.06,4.74.49,6.96,1.19,1.74.55,3.57,1.31,5.22,2.09,1.04.49,2.27,1.3,3.48,1.14,7.53,0,15.1,0,22.63,0"/><path class="b" d="M8.52,206.82c5.88.54,11.83,1.51,17.41,3.5,3.69,1.37,7.14,3.44,10.44,5.56,1.09.68,2.35,1.53,3.48,2.15,1.99,0,4.1,0,6.09,0,7.53-.02,15.1.04,22.63-.02,3.46-.43,6.98.14,10.44.02,7.82,0,15.68,0,23.5,0,2.71-1.03,5.18-2.85,7.83-4.02,5.37-2.62,11.55-2.83,17.41-2.39,7.62.61,15.21,1.96,22.63,3.75,1.73.47,3.57,1.1,5.22,1.79,1.03.51,2.3,1.03,3.48.87,8.11,0,16.26,0,24.37,0"/><path class="b" d="M8.52,205.2c3.47.06,6.99.26,10.44.61,2.59.14,5.28.19,7.83.68,4.39.78,8.41,2.96,12.19,5.26.78.46,1.82,1.09,2.61,1.54,1.7.01,3.53,0,5.22,0,8.99,0,18,0,26.98,0,8.7,0,17.42,0,26.11,0,1.2.11,2.4-.81,3.48-1.23,2.24-1.04,4.6-2.11,6.96-2.84,5.35-1.54,10.99-2.03,16.54-2.17,4.37-.07,8.86.19,13.06,1.5,1.75.52,3.51,1.44,5.22,2.05,2.56.91,5.28,1.62,7.83,2.54,3.72.38,7.57.04,11.32.15,6.37,0,12.78,0,19.15,0"/><path class="b" d="M8.52,205.27c1.99.09,4.1.05,6.09.05,1.7,0,3.53.15,5.22-.11,4.01-.6,8.12-1.66,12.19-.93,2.72.44,5.37,1.53,7.83,2.73,1.1.5,2.31,1.26,3.48,1.57.79,0,1.83,0,2.61,0,10.73,0,21.48,0,32.2,0,6.95-.08,13.95.16,20.89-.09,3.4-1.37,6.87-2.82,10.44-3.64,5.73-1.06,11.6-1.66,17.41-2.12,6.43-.48,12.01.28,17.41,4.04,1.34.68,2.87,1.5,4.35,1.82,1.39,0,2.96,0,4.35,0,10.15,0,20.32,0,30.46,0"/><path class="b" d="M8.52,203.85c4.33,0,8.72,0,13.06,0,1.74-.3,3.5-1.05,5.22-1.43,2.53-.64,5.25-.88,7.83-.46,2.07.33,4.17,1.06,6.09,1.85,5.79.1,11.62,0,17.41.04,11.6,0,23.22,0,34.82,0,1.09,0,2.39,0,3.48-.01.78-.27,1.84-.65,2.61-.93,2.84-1.02,5.77-2.08,8.7-2.83,3.4-.88,6.97-1.2,10.44-1.58,4.03-.4,8.13-.78,12.19-.62,3.27.14,6.64.78,9.57,2.27,1.5.73,2.97,1.88,4.35,2.8.68.47,1.74,1.06,2.61.9,12.18,0,24.38,0,36.56,0"/><path class="b" d="M8.52,199.12c19.73,0,39.46,0,59.19,0,7.82-.11,15.69.22,23.5-.14,8.49-.89,16.84-2.86,25.24-4.35,6.58-.93,13.43-2.27,20.02-.74,2.14.53,4.29,1.53,6.09,2.82,1.04.79,2.36,1.65,3.48,2.33.76.11,1.84.08,2.61.08,11.6,0,23.22,0,34.82,0"/><path class="b" d="M8.52,194.4c19.14,0,38.3,0,57.45,0,2.9-.14,5.82-.89,8.7-1.23,3.14-.48,6.4-.67,9.57-.71,7.26-.23,14.51,1.1,21.76.71,2.66-.12,5.29-.92,7.83-1.62,2.85-.71,5.81-1.27,8.7-1.75,6.02-.92,12.59-1.9,18.28.85,2.1,1.04,4.03,2.65,6.09,3.75,3.75,0,7.57,0,11.32,0,8.4,0,16.84,0,25.24,0"/><path class="b" d="M8.52,189.67c13.34,0,26.7,0,40.04,0,2.12.12,4.03-.16,6.09-.57,1.98-.28,4.09-.4,6.09-.44,4.92-.09,9.9.16,14.8-.4,3.77-.43,7.5-1.59,11.32-1.56,7.31-.34,14.47,2.81,21.76,1.77,2.36-.43,4.61-1.61,6.96-2.08,3.69-.85,7.54-1.23,11.32-1.46,3.76-.19,7.64-.21,11.32.71,1.79.45,3.64,1.24,5.22,2.2,1.1.56,2.23,1.65,3.48,1.82,2.58,0,5.25,0,7.83,0,9.57,0,19.16,0,28.72,0"/><path class="b" d="M8.52,184.94c12.76,0,25.54,0,38.3,0,.45,0,1.29,0,1.74,0,1.05-.59,2.33-1.2,3.48-1.56,2.78-.89,5.83-.92,8.7-.54,4.07.52,8.09,1.75,12.19,2.04,1.7.12,3.55.04,5.22-.33,1.73-.41,3.5-1.17,5.22-1.6,3.37-.92,6.95-1.28,10.44-1.13,5.76.15,11.92,1.94,17.41-.57,6.26-2.99,13.47-1.4,20.02-.39,2.91.52,5.9,1.15,8.7,2.1,1.11.38,2.43.92,3.48,1.45.34.29,1.29.58,1.74.53,12.76,0,25.54,0,38.3,0"/><path class="b" d="M8.52,180.22h39.17c6.81-5.14,12.84-2.8,20.02-.1,3.15.24,6.41.03,9.57.1,1.4,0,2.95,0,4.35,0,1.42-.5,2.94-1.21,4.35-1.73,3.07-1.18,6.32-2.08,9.57-2.59,3.44-.57,7.02-.72,10.44-1.39,7.04-1.51,7.27-4.65,15.67-2.03,6.51,2.21,12.59,5.66,19.15,7.74,14.21,0,28.44,0,42.65,0"/><path class="b" d="M8.52,175.49c9.28,0,18.58,0,27.85,0,2.29,0,4.68,0,6.96,0,.79,0,1.83,0,2.61,0,.56.11,1.31-.16,1.74-.5,1.77-1.36,3.86-2.57,6.09-2.95,4.87-.85,9.53,1.46,13.93,3.24,1.65.41,3.53.12,5.22.2,2.87,0,5.83,0,8.7,0,1.23.16,2.43-.76,3.48-1.26,1.7-.91,3.52-1.91,5.22-2.79,3.89-2.05,8.02-3.77,12.19-5.18,2.31-.8,4.73-1.6,6.96-2.59,5.4-3.15,8.93-1.72,13.93,1.35,3.83,2.45,7.46,5.35,11.32,7.76,1.36.86,2.92,1.76,4.35,2.5.74.27,1.84.21,2.61.21,13.92,0,27.86,0,41.78,0"/><path class="b" d="M8.52,170.77c2.29,0,4.67,0,6.96,0,1.19-.13,2.33-1.04,3.48-1.34,1.65-.52,3.51-.67,5.22-.55,4.4.23,8.63,2.14,13.06,1.89,1.7-.04,3.54.11,5.22-.1,1.14-.27,2.44-.76,3.48-1.29,1.49-.73,2.9-1.94,4.35-2.72,2.9-1.59,6.42-1.79,9.57-.93,2.7.7,5.31,1.95,7.83,3.12,1.66.67,3.4,1.82,5.22,1.92,2.29,0,4.68,0,6.96,0,1.57.21,3.04-.7,4.35-1.43,4.82-2.82,9.21-6.4,13.93-9.38,4.69-2.9,9.63-5.66,14.8-7.61,5.42-.98,9.99,3.3,13.93,6.42,3.42,2.88,6.8,5.95,10.44,8.54,1.9,1.26,3.9,2.78,6.09,3.46,4.33,0,8.72,0,13.06,0,8.99,0,18,0,26.98,0"/><path class="b" d="M8.52,166.04c1.1,0,2.39.03,3.48-.04,2.66-.87,5.1-2.55,7.83-3.2,7.53-1.42,15.11,3.03,22.63.74,6.94-2.01,8.71-7.12,17.41-5.42,5.26,1.1,9.72,4.43,14.8,6.04,2.87,1,6.03.6,8.7-.77,7.28-3.71,13.07-9.78,20.02-14.03,3.26-1.91,6.67-4.14,10.44-4.79,7.42-.49,14.54,7.25,20.02,11.56,3.02,2.55,6.21,5.06,9.57,7.14.79.53,1.86,1.32,2.61,1.91.56.71,1.74.97,2.61.86,11.6,0,23.22,0,34.82,0"/><path class="b" d="M8.52,161.31c.79,0,1.82,0,2.61,0,.8-.24,1.83-.59,2.61-.87,2.81-1.08,5.62-2.55,8.7-2.58,8.16-.14,14.78,2.01,22.63-2.06,5.78-3.27,9.3-6.5,16.54-5.06,5.53,1.09,10.18,4.8,15.67,5.97,2.65.52,5.41-.25,7.83-1.3,9.64-4.25,19.76-15.04,30.46-15.76,10.2.1,19.92,9.9,27.85,15.63,1.46,1.17,3,2.59,4.35,3.87.72.68,1.68,1.75,2.61,2.15.41,0,1.33,0,1.74,0,2.58,0,5.25,0,7.83,0,7.82,0,15.68,0,23.5,0"/><path class="b" d="M8.52,156.59c2.58-.03,5.25.06,7.83-.04,1.91-.79,4.04-1.26,6.09-1.44,4.92-.42,10-.16,14.8-1.52,3.04-.81,5.99-2.16,8.7-3.75,3.58-2.17,7.14-4.73,11.32-5.6,9.74-2.19,15.97,5.7,24.37,4.72,5.22-.62,10.07-2.96,14.8-5.12,7.42-3.4,15.15-7.27,23.5-7.12,12.06.35,21.51,9.22,29.59,17.28,3.14,3.13,2.59,2.59,6.96,2.61,2.87,0,5.83,0,8.7,0,3.75,0,7.56,0,11.32,0,.76,0,1.85,0,2.61,0,1.49-.39,2.91-1.46,4.35-2.01"/><path class="b" d="M8.52,151.86c5.79,0,11.62,0,17.41,0,1.99,0,4.1,0,6.09,0,1.46.13,2.99-.31,4.35-.79,4.33-1.44,8.34-3.8,12.19-6.23,4.68-3.01,9.9-6.03,15.67-5.62,3.9.2,7.59,1.74,11.32,2.76,6.37,1.75,13.78-.62,20.02-2.22,8.6-2.33,17.19-5.31,26.11-6.05,6.64-.47,13.13,2.14,18.28,6.21,4.84,3.7,8.81,8.56,13.93,11.9,4.04.08,8.14,0,12.19.03,1.4,0,2.96,0,4.35,0,.8,0,1.88.08,2.61-.3,3.49-1.59,6.82-3.71,10.44-5"/><path class="b" d="M8.52,147.14c9.86,0,19.74,0,29.59,0,6.22.05,5.05.38,10.44-2.74,10.52-6.53,14.66-8.03,26.98-5.69,6.48.86,12.92-1.32,19.15-2.82,5.47-1.46,10.99-2.92,16.54-4.08,3.71-.79,7.51-1.65,11.32-1.74,7.06-.32,13.81,2.8,19.15,7.25,3.97,3.25,7.63,7.09,12.19,9.54,1.32.51,2.96.19,4.35.27,2.28,0,4.68,0,6.96,0,1.08-.02,2.41.07,3.48-.11,1.41-.61,2.97-1.36,4.35-2.03,3.47-1.53,6.83-3.51,10.44-4.7"/><path class="b" d="M8.52,142.41c10.15,0,20.32,0,30.46,0,4.92,0,9.88,0,14.8,0,2.25-1.1,4.59-2.26,6.96-3.07,5.84-2.24,12.18-1.69,18.28-2.33,6-.95,11.67-3.37,17.41-5.27,5.38-1.86,10.94-3.31,16.54-4.37,3.42-.71,6.94-1.44,10.44-1.53,7.05-.34,13.82,2.7,19.15,7.15,3.71,3.03,7.17,6.54,11.32,8.99.66.53,1.81.44,2.61.43,1.08,0,2.4,0,3.48,0,3.17,0,6.41,0,9.57,0,1.52-.02,2.96-1.11,4.35-1.62,3.17-1.38,6.27-3.14,9.57-4.21"/><path class="b" d="M8.52,137.69c18.85,0,37.72,0,56.58,0,1.09,0,2.39,0,3.48,0,1.71-.21,3.52-.69,5.22-.99,3.54-.67,7.14-1.5,10.44-2.96,6.11-2.64,11.96-6.01,18.28-8.16,5.63-1.95,11.58-2.92,17.41-4.09,8.78-1.69,16.71.53,23.5,6.32,3.8,3.18,7.23,6.93,11.32,9.76,6.64.33,13.36.02,20.02.12,1.2,0,2.4-.88,3.48-1.3,1.65-.76,3.48-1.53,5.22-2.07"/><path class="b" d="M8.52,132.96c22.63,0,45.26,0,67.89,0,1.09,0,2.39,0,3.48,0,1.85-.31,3.58-1.52,5.22-2.35,3.79-2.16,7.48-4.62,11.32-6.69,3.3-1.8,6.83-3.35,10.44-4.39,4.01-1.07,8.17-1.77,12.19-2.8,9.03-2.26,17.08-1.3,24.37,4.83,3.4,2.86,6.35,6.35,9.57,9.39,2.47,2.57,2.75,1.97,6.09,2.02,2.58,0,5.25,0,7.83,0,3.17,0,6.41,0,9.57,0,2.32-.01,4.76.21,6.96-.64"/><path class="b" d="M8.52,128.23c13.63,0,27.28,0,40.91,0,7.24,0,14.52,0,21.76,0,2.58,0,5.25,0,7.83,0,1.09,0,2.39,0,3.48,0,.45-.21,1.32-.69,1.74-.97,7-4.44,13.71-9.73,21.76-12.14,3.11-1,6.43-1.42,9.57-2.28,4.82-1.27,9.76-2.75,14.8-2.45,12.38.75,17.08,10.63,25.24,17.84h27.85"/><path class="b" d="M8.52,123.51c22.34,0,44.68,0,67.02,0,1.98-.12,4.17.28,6.09-.24,4.44-2.42,8.61-5.41,13.06-7.82,3.55-1.96,7.38-3.56,11.32-4.58,4.33-1.05,8.78-1.78,13.06-3.06,16.51-4.63,22.5,1.14,33.08,12.75,1.04.96,2.12,2.44,3.48,2.95,2.87,0,5.83,0,8.7,0,6.37,0,12.78,0,19.15,0"/><path class="b" d="M8.52,118.78c18.85,0,37.72,0,56.58,0,2.87,0,5.83,0,8.7,0,2.69-.82,5.31-2.2,7.83-3.42,6.41-3.48,12.75-7.5,20.02-8.9,4.87-.96,9.89-1.29,14.8-2.06,8.95-1.33,18.62-1.52,26.11,4.34,3.73,2.85,6.93,6.46,10.44,9.57,0,0,.87.47.87.47h.87c.76,0,1.84,0,2.61,0,2.29,0,4.68,0,6.96,0,6.37,0,12.78,0,19.15,0"/><path class="b" d="M8.52,114.06c16.82,0,33.66,0,50.48,0,2.87-.06,5.84.13,8.7-.09,2.65-1.14,5.29-2.54,7.83-3.9,2.54-1.4,5.3-2.6,7.83-4.02,5.14-2.91,10.55-5.82,16.54-6.3,4.04-.41,8.14.18,12.19-.01,4.67-.02,9.33.84,13.93,1.58,5.04.88,10.25,1.78,14.8,4.23,2.85,1.55,5.39,3.77,7.83,5.87,1.07.84,2.18,2.17,3.48,2.65.41,0,1.33,0,1.74,0,9.86,0,19.74,0,29.59,0"/><path class="b" d="M8.52,109.33c17.11,0,34.24,0,51.35,0,1.7,0,3.53,0,5.22,0,1.21-.23,2.42-1.1,3.48-1.68,2.03-1.2,4.11-2.59,6.09-3.87,2.44-1.67,5.24-2.93,7.83-4.33,3.13-1.79,6.22-3.83,9.57-5.18,5.33-2.35,11.01-1.62,16.54-.52,1.99.34,4.15.34,6.09.93,4.11,1.18,8.06,3.06,12.19,4.21,12.92,3.37,13.09,1.46,24.37,10.43h32.2"/><path class="b" d="M8.52,104.6c12.76,0,25.54,0,38.3,0,4.33,0,8.72,0,13.06,0,1.99-.03,4.1.06,6.09-.05.8-.43,1.85-1.05,2.61-1.53,2.93-1.84,5.75-4.01,8.7-5.79,2.27-1.3,4.83-2.31,6.96-3.86,4.71-3.18,9.73-6.87,15.67-6.84,2.94-.03,5.88.78,8.7,1.51,2,.51,4.21.73,6.09,1.63,6.56,3.18,11.5,6.71,19.15,7.11,7.56.3,10.48,1.58,16.54,6.13.73.55,1.7,1.45,2.61,1.7,1.39,0,2.96,0,4.35,0,8.69,0,17.42,0,26.11,0"/><path class="b" d="M8.52,99.88c6.66,0,13.36,0,20.02,0,1.13.02,2.37-.5,3.48-.63,1.39-.21,2.95-.26,4.35-.16,1.73.08,3.51.63,5.22.78,4.63,0,9.3,0,13.93,0,2.58,0,5.25,0,7.83,0,1.09,0,2.39,0,3.48,0,.83-.24,1.86-.8,2.61-1.21,2.63-1.44,5.2-3.19,7.83-4.63,2.32-1.19,4.9-2.15,6.96-3.8,5.17-3.79,10.56-8.71,17.41-8.31,2.34.1,4.72.74,6.96,1.37,1.69.5,3.61.78,5.22,1.52,2.97,1.35,5.75,3.29,8.7,4.68,2.95,1.44,6.29,2.24,9.57,2.14,2.88-.03,5.83-.64,8.7-.36,5.75.94,10.37,5.09,14.8,8.59h27.85"/><path class="b" d="M8.52,95.15c5.79,0,11.62,0,17.41,0,.88-.05,1.83-.68,2.61-1.02,1.35-.61,2.9-1.17,4.35-1.49,4.33-1.04,8.78-.04,13.06.74,1.39.25,2.96.29,4.35.51,2.01.31,4.09.9,6.09,1.26,4.04-.06,8.15.13,12.19-.08,3.9-1.04,7.51-3.05,11.32-4.37,3.27-1.19,5.96-3.66,8.7-5.71,5.55-4.44,11.05-7.14,18.28-5.36,2.59.64,5.38.97,7.83,2.06,5.24,2.46,10.54,5.31,16.54,4.27,2.61-.34,5.22-1.17,7.83-1.48,3.74-.5,7.33,1.39,10.44,3.24,2.41,1.49,4.76,3.31,6.96,5.09,1.07.74,2.14,2.14,3.48,2.34,7.82,0,15.68,0,23.5,0"/><path class="b" d="M8.52,90.43c3.75,0,7.56,0,11.32,0,1.4,0,2.95,0,4.35,0,.83,0,1.89.1,2.61-.39,2.38-1.72,5.02-3.31,7.83-4.19,4.52-1.52,9.31-.51,13.93-.13,4.62.47,8.69,3.13,13.06,4.51,1.65.42,3.53.12,5.22.2,2.87,0,5.83,0,8.7,0,7.69-.21,12.86-6.73,19.15-10.25,4.15-2.53,9.14-3.32,13.93-2.7,1.39.16,2.97.23,4.35.5,2.04.44,4.11,1.21,6.09,1.83,3.34,1.08,6.97,1.6,10.44.95,4.92-.72,9.75-3.89,14.8-2.34,4.9,1.29,9.14,4.35,13.06,7.46,1.09.87,2.4,1.93,3.48,2.81.71.57,1.7,1.49,2.61,1.73,6.66,0,13.36,0,20.02,0"/><path class="b" d="M8.52,85.7h18.28c7.89-7.02,12.42-7.78,22.63-6.39,3.48.71,6.53,2.8,9.57,4.53,1.08.62,2.34,1.37,3.48,1.87,1.7,0,3.53,0,5.22,0,3.75,0,7.56,0,11.32,0,7.97.04,5.53.51,12.19-3.8,3.48-2.31,7.24-4.44,11.32-5.46,4.22-.93,8.75-1.45,13.06-.83,6.26,1.21,11.3,1.62,17.41-.73,2.83-.96,5.69-2.29,8.7-2.54,9.95-.27,17.06,7.76,24.37,13.33,5.79.07,11.62,0,17.41.03"/><path class="b" d="M8.52,80.97c6.36-.11,12.8.22,19.15-.13,4.22-4.09,9.59-7.28,15.67-6.59,2.89.35,6,.32,8.7,1.51,2.1.9,4.15,2.18,6.09,3.36,1.34.72,2.73,2.04,4.35,1.85,8.99,0,18,0,26.98,0,.52.1,1.32-.14,1.74-.43.78-.4,1.83-.94,2.61-1.33,2.51-1.26,5.17-2.44,7.83-3.35,3.95-1.26,8.07-2.36,12.19-2.84,2.87-.17,5.83.12,8.7-.03,3.89-.14,7.73-1.23,11.32-2.69,3.34-1.32,6.77-2.95,10.44-2.94,6.69-.44,12.58,3.42,17.41,7.65,1.39,1.18,2.94,2.53,4.35,3.69,1.03.77,2.2,1.95,3.48,2.28,4.62,0,9.3,0,13.93,0"/><path class="b" d="M8.52,76.25c6.37,0,12.78,0,19.15,0,.93-.23,1.84-1.15,2.61-1.68,1.57-1.11,3.38-2.13,5.22-2.71,3.98-1.34,8.18-.28,12.19.36,3.76.27,7.14,2.25,10.44,3.9,7.51.33,15.1.02,22.63.12,5.21,0,10.46,0,15.67,0,5.21-1.62,10.49-3.16,15.67-4.89,3.95-1.12,8.17-.96,12.19-1.73,4.25-.73,8.29-2.44,12.19-4.24,6.94-3.36,14.98-4.88,21.76-.3,4.34,2.67,7.88,6.54,12.19,9.26,3.86,2.45,8.7,1.8,13.06,1.89"/><path class="b" d="M8.52,71.52c6.37,0,12.78,0,19.15,0,1.19-.33,2.35-1.27,3.48-1.73,1.88-.86,4.02-1.38,6.09-1.36,2.96,0,5.86,1,8.7,1.71,1.08.28,2.38.45,3.48.61,1.12.17,2.35.7,3.48.77,12.47,0,24.96,0,37.43,0,3.46,0,6.99,0,10.44,0,1.98-.12,4.17.28,6.09-.24,2.63-.72,5.17-2.01,7.83-2.63,3.45-.81,7.05-1.24,10.44-2.27,5.89-1.64,10.99-5.21,16.54-7.66,6.33-2.52,11.99-4.04,18.28-.34,3.98,2.18,7.34,5.46,11.32,7.64,1.55.91,3.51,1.13,5.22,1.57,2.36.65,4.73,1.66,6.96,2.64"/><path class="b" d="M8.52,66.8c5.79,0,11.62,0,17.41,0,2.76-1.14,5.64-2.42,8.7-2.24,3.01.08,5.92,1.18,8.7,2.23,1.1.01,2.39,0,3.48,0,11.89,0,23.8,0,35.69,0,10.44,0,20.9,0,31.33,0,.77,0,1.84.02,2.61-.08.77-.24,1.84-.57,2.61-.82,1.72-.55,3.56-1.2,5.22-1.91,5.58-2.29,10.48-5.95,15.67-8.95,2.2-1.23,4.67-2.17,6.96-3.19,9.24-4.17,14.53-1.04,22.63,3.54,2.11,1.25,4.61,1.75,6.96,2.28,2.39.71,4.75,1.82,6.96,2.95"/><path class="b" d="M8.52,62.07c4.92,0,9.88,0,14.8,0,3.02-1.17,6.3-2.12,9.57-1.78,2.41.12,4.67,1.24,6.96,1.78,4.92,0,9.88,0,14.8,0,10.73,0,21.48,0,32.2,0,10.44,0,20.9,0,31.33,0,1.69,0,3.53,0,5.22,0,3.28-1.81,6.43-4,9.57-6.02,2.52-1.64,5.14-3.33,7.83-4.69,3.19-1.41,6.4-2.98,9.57-4.42,7.23-3.27,12.85-2.03,20.02.54,1.94.7,4.11.98,6.09,1.48,2.38.66,4.75,1.71,6.96,2.8"/><path class="b" d="M8.52,57.34c4.33,0,8.72,0,13.06,0,3.71-.68,7.56-1.52,11.32-.6,1.39.39,2.9.73,4.35.6,1.99,0,4.1,0,6.09,0,5.21,0,10.46,0,15.67,0,15.08,0,30.18,0,45.26,0,6.95,0,13.94,0,20.89,0,2.65-1.53,5.14-3.54,7.83-5.02,3.81-2.33,8.05-3.91,12.19-5.54,3.18-1.42,6.31-3.15,9.57-4.39,5.23-2.14,11.04-2.29,16.54-1.22,4.14.6,8.3,1.5,12.19,3.09"/><path class="b" d="M8.52,51.99c1.61.83,3.47.62,5.22.63,2.29,0,4.67,0,6.96,0,7.24,0,14.52,0,21.76,0,20.89,0,41.78,0,62.67,0,6.37,0,12.78,0,19.15,0,.95-.04,1.85-.97,2.61-1.46,1.61-1.12,3.45-2.2,5.22-3.04,3.84-1.88,8.13-2.66,12.19-3.9,3.86-1.32,7.55-3.26,11.32-4.81,10.48-4.52,17.05-3.3,27.85-1.25"/><path class="b" d="M8.52,47.45c1.23.81,2.95.32,4.35.44,2.58,0,5.25,0,7.83,0,6.95,0,13.94,0,20.89,0,20.6,0,41.2,0,61.8,0,5.21,0,10.46,0,15.67,0,1.09,0,2.39,0,3.48,0,1.8-.94,3.4-2.52,5.22-3.44,3.94-2.34,8.59-2.89,13.06-3.36,2.97-.38,5.91-1.33,8.7-2.38,7.31-2.74,14.62-6.64,22.63-6.4,3.74.4,7.55.61,11.32.54"/><path class="b" d="M8.52,43.14c30.75.09,61.51,0,92.26.03,4.63,0,9.3,0,13.93,0,1.98-.11,4.16.25,6.09-.22.75-.65,1.82-1.51,2.61-2.1,6.36-4.8,10.88-4.37,18.28-4.9,4.19-.64,8.24-2.19,12.19-3.69,5.08-1.93,10.22-4.11,15.67-4.7,2.29-.31,4.68.07,6.96.16,2.3.03,4.69-.27,6.96-.53"/><path class="b" d="M8.52,38.44c29.88,0,59.77,0,89.65,0,4.33,0,8.72,0,13.06,0,1.99,0,4.1,0,6.09,0,.91-.24,1.86-1.11,2.61-1.64,6.84-5.08,11.78-5.81,20.02-6.32,3.87-.47,7.62-1.86,11.32-3.05,5.74-1.93,11.43-4.26,17.41-5.37,2.55-.53,5.25-.46,7.83-.56,2.3-.16,4.68-.56,6.96-.82"/><path class="b" d="M8.52,33.72c29.3,0,58.61,0,87.91,0,4.04,0,8.14,0,12.19,0,1.98-.11,4.16.25,6.09-.22,1.08-.56,2.39-1.22,3.48-1.76,3.86-1.91,7.97-3.47,12.19-4.38,4.32-.99,8.84-1.34,13.06-2.78,5.45-1.7,11.05-3.04,16.54-4.59,7.71-2.16,15.54-4.25,23.5-5.24"/><path class="b" d="M8.52,28.99c31.33,0,62.67,0,94,0,1.99,0,4.1,0,6.09,0,1.09-.04,2.42.14,3.48-.21,5.15-1.35,10.47-2.11,15.67-3.27,3.51-.77,7.04-1.72,10.44-2.87,2.6-.83,5.19-2.02,7.83-2.71,4.56-1.17,9.32-1.54,13.93-2.44,4.14-.78,8.26-1.99,12.19-3.53,3.67-1.41,7.33-3.3,11.32-3.6"/><path class="b" d="M8.52,24.26c1.99,0,4.1,0,6.09,0,1.1-.04,2.41.12,3.48-.19,4.13-1.52,8.75-3.03,13.06-1.31,1.15.37,2.31,1.23,3.48,1.5,20.31,0,40.62,0,60.93,0,11.02,0,22.06,0,33.08,0,5.54-1.13,10.39-4.32,15.67-6.2,3.92-1.2,8.13-.94,12.19-1.04,3.51-.06,7.1-.46,10.44-1.56,5.92-1.65,10.43-6.63,16.54-7.67"/></svg>