<?xml version="1.0" encoding="UTF-8"?><svg id="a" xmlns="http://www.w3.org/2000/svg" width="1920" height="2400" viewBox="0 0 192 240"><defs><style>.b{fill:none;stroke:#fff;stroke-miterlimit:10;stroke-width:.4px;}.c{stroke-width:0px;}</style></defs><rect class="c" width="192" height="240"/><path class="b" d="M8.61,229c9.32,3.95,13.06-.63,20.87-4.65,3.72-1.95,7.97-3.02,12.17-2.65,4.92.52,9.84,1.38,14.78,1.71,4.03.32,8.13.21,12.17.18,10.04-.3,12.46,2.65,20.87,6.49,2.14,1.21,4.61.85,6.96.89,3.75,0,7.56,0,11.3,0,2-.47,4.13-.98,6.09-1.62,3.4-1.16,6.84-2.58,10.43-3,5.06-.72,10,1.03,14.78,2.43,2.51.74,5.23.86,7.83.95,9.11.52,15.67-5.13,22.61-10.11,4.48-3.28,8.51-4.16,13.91-2.56"/><path class="b" d="M8.61,224.19c2.14,1.13,4.47,2.32,6.96,2.05,1.72-.04,3.62.24,5.22-.56,6.16-2.74,12.07-7.08,19.13-6.7,5.82.37,11.6,1.56,17.39,2.17,3.44.39,6.97.47,10.43.42,3.76-.03,7.66-.18,11.3.87,3.22,1.03,6.35,2.55,9.57,3.59,1.06.33,2.38.17,3.48.2,1.99,0,4.1,0,6.09,0,1.99,0,4.1,0,6.09,0,1.1-.02,2.43.1,3.48-.27,1.98-.55,4.12-1,6.09-1.58,3.66-1.12,7.44-2.34,11.3-2.33,5.13-.11,9.92,2.11,14.78,3.41,3.39.74,6.98.78,10.43.78,4.21.2,8.4-1.06,12.17-2.86,7.64-3.66,11.69-7.71,20.87-6.15"/><path class="b" d="M8.61,217.78c3.35,2.04,7.32,3.75,11.3,2.84,3.22-.63,6.35-1.9,9.57-2.54,2.83-.6,5.84-.68,8.7-.22,2.62.4,5.24,1.21,7.83,1.79,1.97.43,4.11.56,6.09.93,2.28.36,4.65.86,6.96.94,2.58-.05,5.26.11,7.83-.09,3.17-.34,6.38-1.04,9.57-1.22,2.92-.19,5.85.61,8.7,1.18,1.97.28,4.1.06,6.09.13,4.04,0,8.14,0,12.17,0,2.28-.1,4.71.23,6.96-.2,6-1.28,12.06-3.4,18.26-2.33,2.32.33,4.7.95,6.96,1.56,1.67.4,3.48,1.04,5.22.97,4.04,0,8.14,0,12.17,0,2.58-.04,5.29.2,7.83-.39,4.68-.84,9.23-2.51,13.91-3.36,2.85-.45,5.82-.33,8.7-.33"/><path class="b" d="M8.61,211.15c7.85,4.76,10.75,3.33,19.13,3.4,2.33.09,4.74.52,6.96,1.22.8.25,1.84.63,2.61.94,1.09.17,2.38.08,3.48.1,13.62,0,27.25,0,40.87,0,8.4,0,16.82,0,25.22,0,3.75,0,7.56,0,11.3,0,1.99-.22,4.08-.6,6.09-.65,3.18-.16,6.42.25,9.57.65,3.75,0,7.56,0,11.3,0,6.09.16,12.18-.62,18.26-.84,4.04-.17,8.13-.34,12.17-.31,2.58.09,5.24.36,7.83.32"/><path class="b" d="M8.61,205.37c2.74,1.47,5.65,2.86,8.7,3.57,3.43.74,7.05.88,10.43,1.84,1.72.39,3.41,1.48,5.22,1.29,3.75,0,7.56,0,11.3,0,8.4,0,16.82,0,25.22,0,4.62,0,9.29,0,13.91,0,1.69-.05,3.52-.34,5.22-.22,5.48.45,11.03.13,16.52.22,9.56,0,19.14,0,28.7,0,4.62,0,9.29,0,13.91,0,4.25-1.22,8.61-2.44,13.04-2.71,4.95-.35,9.93.5,14.78,1.39,2.57.48,5.19,1.41,7.83,1.33"/><path class="b" d="M8.61,201.22c3.84,2,7.89,3.82,12.17,4.62,1.4.3,2.96.62,4.35.99.79.2,1.78.6,2.61.53,7.24,0,14.5,0,21.74,0,8.11,0,16.24,0,24.35,0,2.29,0,4.67,0,6.96,0,1.96-.63,4-1.42,6.09-1.48,2.65-.16,5.36.45,7.83,1.39,1.39.18,2.95.06,4.35.09,14.2,0,28.41,0,42.61,0,7.74,0,5.22.54,12.17-2.84,11.54-5.58,18.66-1.7,29.57,2.37"/><path class="b" d="M8.61,199.09c2.23,1.26,4.54,2.67,6.96,3.55,2.29,0,4.67,0,6.96,0,5.78,0,11.61,0,17.39,0,11.59,0,23.2,0,34.78,0,1.4,0,2.95,0,4.35,0,.5-.04,1.34-.43,1.74-.74,1.04-.59,2.33-1.15,3.48-1.46,2.85-.8,5.96-.43,8.7.62,1.12.42,2.41,1.05,3.48,1.58.43,0,1.31,0,1.74,0,15.65,0,31.31,0,46.96,0,1.39,0,2.96,0,4.35,0,2.39-1.19,4.59-2.98,6.96-4.22,10.59-6.01,17.36-2.26,26.96,3.09"/><path class="b" d="M8.61,197.76c2.55.35,5.25.06,7.83.15,4.91,0,9.87,0,14.78,0,13.62,0,27.25,0,40.87,0,1.09,0,2.39,0,3.48,0,.55.1,1.3-.15,1.74-.46,2.79-2.61,6.49-4.75,10.43-4.27,3.53.39,6.71,2.33,9.57,4.33.71.5,1.79.42,2.61.4,1.09,0,2.39,0,3.48,0,3.16,0,6.4,0,9.57,0,12.46,0,24.93,0,37.39,0,1.29.22,2.5-.74,3.48-1.44,1.65-1.13,3.47-2.32,5.22-3.28,4.95-2.9,11.15-3.88,16.52-1.56,2.75,1.2,5.29,3.03,7.83,4.62"/><path class="b" d="M8.61,193.19h65.22c2.59-2.07,4.73-4.95,7.83-6.36,6.97-3.39,13.04,2.49,18.26,6.36,14.2,0,28.41,0,42.61,0,3.46,0,6.98,0,10.43,0,1.48-.59,2.94-1.66,4.35-2.4,5.44-3.13,11.93-5.88,18.26-4.1,2.83.92,5.38,2.7,7.83,4.35"/><path class="b" d="M8.61,188.47h63.48c2.82-2.64,5.29-5.9,8.7-7.84,8.05-4.64,15.76,3,21.74,7.73,13.89.32,27.84,0,41.74.11,3.16-.06,6.41.12,9.57-.08,1.7-.63,3.53-1.35,5.22-2,5.26-1.96,10.8-4.23,16.52-3.77,2.81.43,5.43,1.91,7.83,3.37"/><path class="b" d="M8.61,183.75h62.61c5.08-5.01,10.27-11.46,18.26-10.14,6.89,1.13,12.16,6.24,18.26,9.24,1.35.78,2.81,1.02,4.35.9,1.39,0,2.95,0,4.35,0,4.91,0,9.87,0,14.78,0,3.46-.01,6.98.03,10.43-.02,1.69-.23,3.52-.4,5.22-.47,4.64-.2,9.34-.36,13.91-1.21,4.96-.78,9.79-2.54,14.78-3.05,2.71-.07,5.4.9,7.83,2.02"/><path class="b" d="M8.61,178.8c1.35.43,2.95.16,4.35.23,2.29,0,4.67,0,6.96,0,6.36,0,12.77,0,19.13,0,6.95,0,13.92,0,20.87,0,2.28,0,4.67,0,6.96,0,1.39-.06,2.99.18,4.35-.2,6.86-6.79,14.03-12.75,24.35-10.46,4.84,1.02,9.27,3.44,13.91,5.04,5.87,1.86,12.12,2.44,18.26,2.49,5.8.14,11.61-.7,17.39-.76,3.8.25,7.54,1.33,11.3,1.83,3.43.5,7.01.5,10.43-.06,6.48-1.04,9.69-3.39,16.52-1.02"/><path class="b" d="M8.61,173.72c2.82.81,5.8.56,8.7.59,1.7,0,3.52,0,5.22,0,1.69-.28,3.51-.58,5.22-.68,1.7-.11,3.54-.04,5.22.23,1.39.31,2.92.55,4.35.45,8.98,0,17.98,0,26.96,0,1.09,0,2.39,0,3.48,0,.84.02,1.92.11,2.61-.48,3.97-3,7.71-6.48,12.17-8.75,7.19-4.06,14.68-4.79,22.61-2.62,8.8,2.47,17.81,4.36,26.96,4.8,4.04.28,8.14.1,12.17.08,2.34.15,4.71.78,6.96,1.42,6.48,2.06,13.24,3.42,20,1.9,1.7-.3,3.49-.88,5.22-1.02,2.31-.19,4.73.19,6.96.78"/><path class="b" d="M8.61,169.59c2.87-.03,5.83.06,8.7-.04,3.88-.7,7.47-2.63,11.3-3.51,3.7-.94,7.66-.71,11.3.39,2.89.81,5.74,2.07,8.7,2.63,2.25.58,4.65.58,6.96.53,1.99,0,4.1,0,6.09,0,1.77-.34,3.59-1.04,5.22-1.79,4.27-1.98,8.06-4.92,12.17-7.18,8-4.18,16.96-7.1,26.09-6.5,8.82.65,17.34,3.44,26.09,4.65,2.85.42,5.81.72,8.7.75,3.19-.1,6.46-.17,9.57.71,6.05,1.53,11.97,3.98,18.26,4.39,2.88.29,5.83-.17,8.7-.32,2.31-.03,4.71.34,6.96.88"/><path class="b" d="M8.61,164.86c10.88-.08,7.9,1.04,17.39-4.33,8.92-4.95,13.58-3.07,22.61-.44,3.95.97,8.15,1.41,12.17.64,6.56-1.14,12.13-5.1,18.26-7.44,4.24-1.44,8.69-2.33,13.04-3.3,4.31-.92,8.67-1.93,13.04-2.47,11.59-1.5,22.46,4.48,33.91,4.97,2.88.13,5.82-.44,8.7-.17,6.28.41,12.26,2.68,18.26,4.4,2.53.72,5.2,1.34,7.83,1.53,3.19.14,6.44.63,9.57,1.31"/><path class="b" d="M8.61,160.14c3.46,0,6.98,0,10.43,0,.93-.12,1.87-.94,2.61-1.45,1.4-1.02,2.93-2.18,4.35-3.18,5.31-3.91,10.89-5.85,17.39-3.83,2.87.78,5.72,2.02,8.7,2.33,7.45.91,14.27-2.92,20.87-5.78,3-1.33,6.26-2.27,9.57-2.3,4.34-.13,8.75,0,13.04-.75,4.4-.67,8.67-2.2,13.04-2.99,9.23-1.48,17.99,2.97,26.96,4.34,3.16.54,6.44.33,9.57-.29,3.13-.51,6.39-.86,9.57-.62,5.78.36,11.14,2.84,16.52,4.78,3.93,1.34,8.12,1.95,12.17,2.79"/><path class="b" d="M8.61,155.42c4.04,0,8.13,0,12.17,0,1-.09,1.86-1.13,2.61-1.71,1.08-.91,2.36-1.98,3.48-2.84,3.46-2.7,7.66-4.99,12.17-4.7,5.41.16,10.15,4.1,15.65,3.33,9.8-.96,17.6-10.46,27.83-8.5,5.8,1.15,11.55,2.39,17.39.66,3.22-.83,6.35-2.22,9.57-3.07,6.38-1.62,12.96.28,19.13,1.96,3.67.98,7.48,1.95,11.3,1.8,3.3-.11,6.46-1.41,9.57-2.39,5.39-1.91,11.2-2.06,16.52.19,2.92,1.12,5.76,2.66,8.7,3.75,2.78,1.02,5.78,1.66,8.7,2.15"/><path class="b" d="M8.61,150.7h13.91c6.86-5.75,12.32-10.72,21.74-6.9,2.01.72,4.01,1.84,6.09,2.38,3.83.94,7.82-.28,11.3-1.87,5.85-2.52,11.56-7.09,18.26-6.37,3.23.5,6.36,1.76,9.57,2.36,4.07.86,8.35.29,12.17-1.28,3.19-1.22,6.25-3,9.57-3.87,8.23-2.06,16.28,1.76,24.35,2.88,9.24,1.61,14.2-4.84,22.61-6.17,5.91-.98,11.34,2.16,16.52,4.53,2.74,1.16,5.76,1.78,8.7,2.14"/><path class="b" d="M8.61,145.98h15.65c7.14-5.32,11.87-8.35,20.87-4.76,1.7.63,3.46,1.52,5.22,1.98,1.66.42,3.52.51,5.22.32,5.85-.68,11.01-3.86,16.52-5.69,7.52-2.9,12.59.89,20,.42,5.7-.29,10.66-3.45,15.65-5.9,9.71-5.08,19.7.96,29.57,1.89,2.96.25,6.04-.27,8.7-1.61,5.02-2.45,9.87-6.03,15.65-6.19,4.96-.22,9.46,2.3,13.91,4.12,2.48.91,5.2,1.34,7.83,1.48"/><path class="b" d="M8.61,141.26c6.66,0,13.35,0,20,0,1.46-.36,2.9-1.31,4.35-1.73,3.04-1.06,6.39-1.31,9.57-.82,2.63.35,5.22,1.3,7.83,1.79,7.54,1.15,14.64-2.48,21.74-4.38,1.96-.53,4.06-.97,6.09-1.12,2.58-.14,5.25.09,7.83-.06,8.01-.13,14.65-4.12,21.74-7.26,10.74-4.94,21.33,3.5,32.17,3.31,9.09-.29,14.84-9.18,25.22-7.94,3.66.39,7.06,2.06,10.43,3.41,2.47.9,5.2,1.32,7.83,1.32"/><path class="b" d="M8.61,136.54c17.68,0,35.37,0,53.04,0,1.43.06,2.96-.51,4.35-.76,2.28-.52,4.67-1.07,6.96-1.56,3.72-.85,7.59-1.28,11.3-2.2,6.88-1.68,13.33-4.8,20-7.1,13.07-5.11,21.31,1.83,33.91,2.61,2.93.15,5.99-.18,8.7-1.38,5.57-2.4,11.08-5.98,17.39-5.63,3.96.14,7.69,1.77,11.3,3.24,2.47.92,5.19,1.46,7.83,1.46"/><path class="b" d="M8.61,131.81c15.36,0,30.73,0,46.09,0,5.2,0,10.45,0,15.65,0,2.29-.01,4.67.02,6.96-.02,1.42-.38,2.98-.9,4.35-1.46,12.27-5.54,17.9-9.24,32.17-8.91,6.69.36,13.3,1.9,20,2.11,3.45.11,7,.14,10.43-.27,8.36-1.85,14.21-6.57,23.48-4.3,5.3,1.22,10.11,4.42,15.65,4.64"/><path class="b" d="M8.61,127.09c23.47,0,46.96,0,70.43,0,1.69-.09,3.57.22,5.22-.21,3.05-1.86,6.2-3.77,9.57-5.02,5.55-2.25,11.59-1.48,17.39-1.02,6.66.38,13.39.29,20-.74,2.87-.39,5.81-.87,8.7-1.07,1.99-.15,4.12.04,6.09-.34,5.21-.95,10.29-3.04,15.65-2.92,3.57.02,7.13.96,10.43,2.24,3.7,1.41,7.35,3.27,11.3,3.84"/><path class="b" d="M8.61,122.37c25.79,0,51.6,0,77.39,0,.78,0,1.83,0,2.61,0,.43-.23,1.3-.69,1.74-.91,1.89-.94,4.01-1.73,6.09-2.13,4.91-1.06,9.89.32,14.78.74,5.3.38,10.62-.63,15.65-2.23,4.01-1.22,8.01-2.8,12.17-3.4,2.27-.39,4.68.08,6.96-.18,4.65-.53,9.21-2.08,13.91-2.18,4.47-.18,8.92,1,13.04,2.66,3.44,1.32,6.81,3.09,10.43,3.87"/><path class="b" d="M8.61,117.65c28.69-.09,57.41.18,86.09-.1,4.29-.91,8.73-.32,13.04.1,2.28-.04,4.68.1,6.96-.08,2.96-.44,5.9-1.37,8.7-2.41,5.38-1.94,10.71-4.67,16.52-4.93,1.4-.07,2.96.21,4.35.34,1.69.11,3.54-.03,5.22-.25,8.16-1.37,15.24-2.96,23.48-.5,3.49.95,6.89,2.45,10.43,3.21"/><path class="b" d="M8.61,112.93c1.13.04,2.38-.43,3.48-.6,1.97-.37,4.09-.65,6.09-.46,1.45.13,2.95.72,4.35,1.07,2.58,0,5.25,0,7.83,0,21.16,0,42.32,0,63.48,0,4.62,0,9.29,0,13.91,0,1.99,0,4.1,0,6.09,0,2.06-.37,4.13-1.24,6.09-1.95,6.1-2.36,12.46-5,19.13-4.44,2.33.14,4.64.96,6.96,1.19,3.46.38,7.02.01,10.43-.55,5.46-.88,10.95-2.31,16.52-2,3.49.25,6.97,1.04,10.43,1.5"/><path class="b" d="M8.61,106.96c4.03-.22,8.15-1.01,12.17-.52,2.05.3,4.15.93,6.09,1.64,1.09.21,2.38.1,3.48.13,13.04,0,26.09,0,39.13,0,8.69,0,17.4,0,26.09,0,4.04-.05,8.14.11,12.17-.07,2.94-.78,5.91-1.78,8.7-3,5.96-2.67,12.58-4.68,19.13-3.18,4.72.92,9.15,3.1,13.91,3.82,7.17,1.35,14.14-1.4,20.87-3.51,4.21-1.19,8.7-1.31,13.04-1.47"/><path class="b" d="M8.61,102.06c1.99.12,4.1.22,6.09.09,2-.15,4.07-.68,6.09-.71,3.51-.14,7.07.51,10.43,1.5,1.37.58,2.89.61,4.35.55,1.99,0,4.1,0,6.09,0,6.07,0,12.19,0,18.26,0,7.82,0,15.66,0,23.48,0,4.33,0,8.71,0,13.04,0,2.28-.08,4.7.18,6.96-.14,4.63-2.23,9.24-4.64,13.91-6.77,6.73-3.16,12.65-2.51,19.13.89,2.81,1.46,5.75,2.87,8.7,4.05,1.67.68,3.44,1.6,5.22,1.97,4.33-.02,8.72.04,13.04-.03,2.97-1.06,5.82-2.66,8.7-3.93,3.65-1.44,7.47-2.73,11.3-3.6"/><path class="b" d="M8.61,97.89c2.27.29,4.68.51,6.96.13,1.71-.34,3.49-.97,5.22-1.23,3.43-.61,7.04-.46,10.43.3,1.1.24,2.4.6,3.48.94,1.07.35,2.33.85,3.48.73,21.16-.03,42.32.05,63.48-.03,4.02-2.66,7.86-5.71,12.17-7.9,2.94-1.63,6.15-3.18,9.57-3.37,5.56-.35,10.35,3.07,14.78,5.97,2.14,1.5,4.63,2.57,6.96,3.72.78.41,1.84,1,2.61,1.43,1.36.36,2.95.13,4.35.19,5.78-.07,11.62.15,17.39-.09,4.49-2.52,9.13-4.97,13.91-6.91"/><path class="b" d="M8.61,93.08c3.22.28,6.56.07,9.57-1.2,3.62-1.19,7.6-1.31,11.3-.46,2.67.58,5.3,1.63,7.83,2.63,4.04,0,8.14,0,12.17,0,17.68,0,35.37,0,53.04,0,2.64-1.8,5.09-4.06,7.83-5.73,3.37-1.9,6.72-4.1,10.43-5.28,5.07-1.74,10.42.1,14.78,2.8,2.79,1.7,5.67,3.4,8.7,4.64,2.06,1.04,4.09,2.42,6.09,3.57,4.33,0,8.71,0,13.04,0,1.69,0,3.52,0,5.22,0,.8,0,1.88.09,2.61-.33,4.05-2.09,8.02-4.48,12.17-6.34"/><path class="b" d="M8.61,86.48c2.3,0,4.72-.05,6.96-.62,2.22-.75,4.57-1.51,6.96-1.36,3.63.14,7.14,1.47,10.43,2.91,1.4.6,2.93,1.36,4.35,1.91.79,0,1.83,0,2.61,0,12.17,0,24.35,0,36.52,0,8.69,0,17.4,0,26.09,0,.78,0,1.85.06,2.61-.19.76-.55,1.83-1.28,2.61-1.8,1.6-1.1,3.49-2,5.22-2.87,8.52-4.95,14.29-8.98,24.35-4.74,2.87,1.27,6,2.23,8.7,3.86,3.19,1.83,6.06,4.56,9.57,5.74,4.33,0,8.71,0,13.04,0,1.51-.27,2.97-1.27,4.35-1.9,3.49-1.67,6.88-3.71,10.43-5.23"/><path class="b" d="M8.61,79.88c3.22.02,6.49-.24,9.57-1.23,2.94-.55,5.97.33,8.7,1.41,3.49,1.4,6.88,3.21,10.43,4.45,10.71.25,21.46,0,32.17.09,8.4,0,16.82,0,25.22,0,4.04-.03,8.14.06,12.17-.04,2.18-1.23,4.72-1.88,6.96-2.96,9.18-5.1,15.53-11.8,26.96-8.06,4.96,1.24,8.76,4.92,13.04,7.48,4.51,2.89,9.73,3.8,14.78,1.74,5.01-1.96,9.73-4.71,14.78-6.58"/><path class="b" d="M8.61,74.57c3.19.11,6.44.08,9.57-.59,5.91-.15,10.88,3.97,16.52,5.19,6.16,1.64,10.7-.19,16.52-1.61,3.48-.67,7.17-.21,10.43,1.13.8.32,1.85.81,2.61,1.19,1.4,0,2.95,0,4.35,0,8.4,0,16.82,0,25.22,0,2.87,0,5.82,0,8.7,0,1.09,0,2.39,0,3.48,0,.77-.25,1.83-.56,2.61-.76,2.67-.58,5.47-1.09,7.83-2.57,7.47-4.36,15-11.6,24.35-9.42,5.26,1.04,9.23,5.07,13.91,7.41,6,3.29,11.49,2.27,17.39-.64,3.64-1.69,7.44-3.2,11.3-4.27"/><path class="b" d="M8.61,71.03c1.99.16,4.09.44,6.09.49,2-.01,4.13-.4,6.09.22,3.23.87,6.3,2.48,9.57,3.26,1.67.32,3.53.09,5.22.15,1.76.11,3.59-.12,5.22-.82,5.85-2.3,11.65-6.51,18.26-5.02,4.15.83,7.8,3.24,11.3,5.51,1.56.66,3.55.2,5.22.33,3.16,0,6.4,0,9.57,0,3.75-.03,7.56.07,11.3-.04,2.26-.66,4.64-1.27,6.96-1.71,1.97-.37,4.08-.65,6.09-.8,2.03-.07,4.19-.27,6.09-1.07,6.8-2.75,12.57-8.13,20-9.25,7.67-1.32,12.6,3.74,19.13,6.44,6.58,2.83,12.27.38,18.26-2.55,3.29-1.51,6.88-2.46,10.43-3.07"/><path class="b" d="M8.61,68.94c1.99.36,4.08.87,6.09,1.13,1.1.16,2.38.11,3.48.18.79.14,1.82.21,2.61.18,5.78,0,11.61,0,17.39,0,.79,0,1.83,0,2.61,0,1.78-.92,3.51-2.24,5.22-3.29,5.96-3.8,12.5-5.5,19.13-2.31,3.58,1.57,6.84,3.93,10.43,5.46,1.38.25,2.95.09,4.35.13,1.69-.04,3.53.09,5.22-.08,2.61-.71,5.25-1.66,7.83-2.49,3.66-1.2,7.47-2.17,11.3-2.55,3.15-.42,6.42-.04,9.57-.41,6.6-1.15,12.48-4.98,19.13-5.97,12.74-2.29,17.64,7.62,28.7,5.91,4.36-.74,8.17-3.27,12.17-5,3.01-1.27,6.33-1.86,9.57-2.19"/><path class="b" d="M8.61,65.72h34.78c21.09-14.16,26.48,3.47,40-.61,6.72-2.07,12.99-5.7,20-6.82,3.71-.74,7.56-.47,11.3-.81,4.92-.55,9.82-1.66,14.78-1.77,5.27-.11,10.62.66,15.65,2.22,6.48,2.52,12.13,5.14,19.13,2.47,3.29-1.15,6.35-3.03,9.57-4.36,3.02-1.22,6.34-1.75,9.57-2.04"/><path class="b" d="M8.61,60.99c9.27,0,18.56,0,27.83,0,1.99,0,4.1,0,6.09,0,1.21.04,2.38-.94,3.48-1.34,1.63-.74,3.47-1.3,5.22-1.66,4.3-.92,8.81-.51,13.04.58,2.89.72,5.79,1.7,8.7,2.35,2.28.18,4.67.03,6.96.08,2.42.03,4.74-1.27,6.96-2.11,3.15-1.37,6.33-2.87,9.57-4.03,4.99-1.86,10.35-2.62,15.65-2.87,4.33-.28,8.73-.3,13.04.24,4.37.51,8.71,1.55,13.04,2.31,2.56.51,5.27.5,7.83,1,5.68,1.29,11.66,2.61,17.39.82,3.57-.97,6.95-2.69,10.43-3.92,3.05-1.06,6.36-1.5,9.57-1.79"/><path class="b" d="M8.61,56.27c10.72,0,21.46,0,32.17,0,1.73.06,3.52-.68,5.22-.93,2.26-.46,4.66-.68,6.96-.43,2.63.16,5.23,1.12,7.83,1.36,7.24,0,14.5,0,21.74,0,.84.12,1.86-.31,2.61-.64,1.09-.46,2.39-1.01,3.48-1.47,3.09-1.3,6.31-2.51,9.57-3.31,3.4-.86,6.96-1.28,10.43-1.67,4.3-.66,8.71-1.03,13.04-.39,5.82.69,11.51,2.58,17.39,2.81,2.59.12,5.23-.55,7.83-.52,4.33-.03,8.73.26,13.04-.3,5.04-.57,9.89-2.29,14.78-3.55,2.82-.66,5.81-.91,8.7-1.12"/><path class="b" d="M8.61,51.55c4.62,0,9.29,0,13.91,0,3.45-.24,6.97-.6,10.43-.57,3.18-.05,6.4.41,9.57.57,5.78,0,11.61,0,17.39,0,6.07,0,12.19,0,18.26,0,2.87,0,5.82,0,8.7,0,1.72-.37,3.49-1.13,5.22-1.51,5.09-1.37,10.43-1.32,15.65-1.76,2.32-.18,4.66-.89,6.96-1.19,6.92-.99,13.93.26,20.87-.12,3.28-.11,6.48-1.12,9.57-2.14,2.82-.79,5.8-1.25,8.7-1.61,4.91-.59,9.89-1.02,14.78-1.79,2.59-.36,5.23-.95,7.83-1.27,2.27-.24,4.67-.28,6.96-.32"/><path class="b" d="M8.61,44.63c2.29-.37,4.64-1.01,6.96-1.14,1.7-.02,3.52.16,5.22.09,5.3-.26,10.73.17,15.65,2.29.78.3,1.78.79,2.61.96,1.1,0,2.38,0,3.48,0,2.58,0,5.25,0,7.83,0,16.23,0,32.47,0,48.7,0,4.62-.04,9.3.08,13.91-.05,7.17-2.04,14.61-3.19,21.74-5.39,3.6-1.05,7.06-2.7,10.43-4.31,2.77-1.22,5.74-2.18,8.7-2.83,5.12-1.15,10.43-1.35,15.65-1.69,2.29-.11,4.67-.5,6.96-.63,2.29-.09,4.68.08,6.96.25"/><path class="b" d="M8.61,38.1c2.27-.41,4.63-1.06,6.96-1.06,1.41.05,2.95.38,4.35.5,3.85.36,7.77,1.03,11.3,2.68.8.36,1.84.89,2.61,1.31.4.35,1.22.6,1.74.59,3.75,0,7.56,0,11.3,0,19.13,0,38.27,0,57.39,0,4.91,0,9.87,0,14.78,0,5.08-1.75,9.94-4.3,14.78-6.62,7.13-3.46,13.92-7.95,21.74-9.72,4.82-1.19,9.85-1.45,14.78-1.75,1.99-.09,4.09-.44,6.09-.46,2.31.02,4.7.4,6.96.83"/><path class="b" d="M8.61,32.84c2.29.03,4.7-.06,6.96.36,2.59.67,5.24,1.47,7.83,2.18,1.11.33,2.4.77,3.48,1.19,1.07.49,2.28.98,3.48.83,24.63,0,49.28,0,73.91,0,3.16,0,6.4,0,9.57,0,1.69-.08,3.57.21,5.22-.2,3.23-1.76,6.43-3.74,9.57-5.65,12.24-7.58,21.88-12.6,36.52-13.91,3.46-.34,6.98-.8,10.43-1.18,2.64-.1,5.32.55,7.83,1.33"/><path class="b" d="M8.61,27.3c2.01.69,4.13,1.39,6.09,2.21,2.02.86,4.04,2.01,6.09,2.8,1.02.57,2.36.31,3.48.36,1.7,0,3.52,0,5.22,0,5.2,0,10.45,0,15.65,0,12.46,0,24.93,0,37.39,0,2.32.19,4.65-.51,6.96-.5,1.71-.03,3.53.29,5.22.5,1.09,0,2.39,0,3.48,0,5.49,0,11.03,0,16.52,0,.91.18,1.87-.56,2.61-.99,1.42-.87,2.97-1.89,4.35-2.82,15.01-10.4,21.64-13.55,40-15.02,3.76-.4,7.59-.9,11.3-1.63,3.47-.99,7.16-.28,10.43,1.06"/><path class="b" d="M8.61,20.67c3.52,2.32,6.89,5,10.43,7.27,18.84,0,37.69,0,56.52,0,1.69,0,3.52,0,5.22,0,1.12-.34,2.36-.98,3.48-1.31,5.4-1.82,11.13-.58,16.52.62,8.25,1.92,11.55-.26,18.26-4.62,4.17-2.73,8.41-5.52,13.04-7.42,4.68-1.86,9.74-3.09,14.78-3.24,4.63-.03,9.28.61,13.91.49,3.79-.07,7.63-.64,11.3-1.58,4.06-1.37,7.29-1.22,11.3.37"/><path class="b" d="M8.61,12.95c3.76,3.37,7.13,7.35,11.3,10.22,16.22.15,32.47,0,48.7.05,3.16,0,6.4,0,9.57,0,1.74-.8,3.41-2.09,5.22-2.79,4.07-1.81,8.66-2.14,13.04-1.69,3.73.32,7.56,1.04,11.3.45,4.15-.71,7.64-3.43,11.3-5.33,5.52-3.22,11.83-5.22,18.26-4.81,2.87.18,5.86.13,8.7.67,3.79.78,7.5,2.19,11.3,2.92,3.41.68,7.01.78,10.43.14,6.39-1.18,8.61-3.75,15.65-1.65"/></svg>