<?xml version="1.0" encoding="UTF-8"?><svg id="a" xmlns="http://www.w3.org/2000/svg" width="1920" height="2400" viewBox="0 0 192 240"><defs><style>.b{fill:none;stroke:#fff;stroke-miterlimit:10;stroke-width:.3px;}.c{stroke-width:0px;}</style></defs><rect class="c" width="192" height="240"/><path class="b" d="M10.88,219.41c7.43.71,12.35,1.94,18.63-3.16,4.47-3.65,8.99-7.49,14.4-9.67,2.47-1,5.15-1.66,7.62-2.65,6.92-3.59,11.17-1.06,17.79,1.44,2.13.83,4.49,1.31,6.78,1.09,3.99-.33,8.23-.09,11.86,1.77,2.18,1.09,4.33,2.6,6.78,3.02,5.06.93,9.59-2.25,14.4-3.18,2.21-.36,4.55.14,6.78.2,3.69.16,7.41.59,11.01,1.41,3.9.63,7.39,2.64,11.01,4.1,3.21,1.3,6.75,1.44,10.16,1.41,3.43.4,7.04.92,10.16,2.48,4.52,2.35,7.8,6.48,11.86,9.46,3.28,2.34,7.3,3.41,11.01,4.86"/><path class="b" d="M10.88,215.96c3.87.68,7.96,1.64,11.86.69,3.94-1.01,7.04-3.9,10.16-6.34,3.33-2.47,7.01-4.72,11.01-5.9,2.19-.64,4.56-.9,6.78-1.41,1.97-.4,3.93-1.27,5.93-1.51,5.1-.66,10.18.83,15.25,1.17,2.55.25,5.12-.5,7.62-.82,4.41-.62,7.93.14,11.86,2.15,5.2,2.71,10.79-.21,16.09-.95,2.29-.38,4.57.43,6.78.89,2.48.49,5.1.66,7.62.86,2.53.22,5.18.48,7.62,1.21,2.71.84,5.13,2.55,7.62,3.86,2.59,1.41,5.52,2.38,8.47,2.56,3.99.16,8.04.79,11.86,1.97,3.4,1.18,6.43,3.33,9.32,5.43,1.57,1.15,3.29,2.41,5.08,3.2,3.03,1.34,6.36,2.16,9.32,3.69"/><path class="b" d="M10.88,211.98c15.4,4.53,15-.63,27.1-6.81,2.12-1.05,4.44-1.91,6.78-2.33,1.93-.33,3.99-.42,5.93-.67,2.25-.26,4.52-.99,6.78-1.22,4.49-.52,9.06-.7,13.55-1.24,5.45-.35,10.52-3.69,16.09-2.77,2.87.47,5.52,2.14,8.47,2.19,4.52.19,9.04-1.65,13.55-.75,1.72.33,3.39,1.29,5.08,1.71,4.96,1.52,10.31-.33,15.25,1.19,2.47.87,4.62,2.62,6.78,4.06,2.55,1.76,5.4,3.34,8.47,3.92,4.27.55,8.6,1.17,12.71,2.52,3.88,1.29,7.48,3.42,11.01,5.45,3.92,2.37,8.81,2.49,12.7,4.94"/><path class="b" d="M10.88,208.12c3.82,1.24,7.81,2.6,11.86,2.67,3.72-.04,7.02-2.05,10.16-3.8,3.58-1.74,7.17-3.7,11.01-4.8,2.46-.69,5.1-.9,7.62-1.27,3.63-.69,7.36-1.21,11.01-1.78,4-.72,8.03-1.7,11.86-3.05,1.98-.83,3.96-1.96,5.93-2.81,2.89-1.27,6.19-2.11,9.32-1.27,1.65.38,3.38,1.03,5.08,1.16,4.5.37,9.12-.93,13.55.25,1.77.41,3.43,1.47,5.08,2.18,1.84.76,3.94,1.17,5.93,1.22,3.08.13,6.29-.73,9.32.15,2.19.63,4.11,2.18,5.93,3.49,2.58,1.92,5.35,3.85,8.47,4.76,2.74.84,5.75.65,8.47,1.56,5.77,1.49,10.88,4.72,16.09,7.49,4.2,2.43,9.47,2.06,13.55,4.78"/><path class="b" d="M10.88,204.87c1.92.61,3.97,1.17,5.93,1.66,2.2.66,4.48,1.46,6.78,1.69,4.17.49,8.08-1.42,11.86-2.91,3.08-1.32,6.11-2.95,9.32-3.95,6.11-1.68,12.45-2.54,18.63-3.88,4.36-1.04,8.84-2.29,12.71-4.62,3.95-2.33,7.93-5.52,12.7-5.67,2.24-.03,4.53.61,6.78.62,4.52.12,9.24-.19,13.55,1.46,2.25.88,4.42,2.23,6.78,2.84,3.27,1.05,6.8.85,10.16,1.32,2.5.42,4.75,1.85,6.78,3.31,2.35,1.61,4.88,3.21,7.62,4.08,6.2,1.78,8.15-.08,14.4,4.09,4.75,3.01,9.06,6.96,14.4,8.92,3.91,1.16,8.27.97,11.86,3.16"/><path class="b" d="M10.88,201.79c2.22.44,4.59.62,6.78,1.19,3.05.86,6.12,2.1,9.32,2.29,5.07.38,9.71-2.13,14.4-3.67,4.37-1.58,9.11-1.73,13.55-3.03,5.91-1.79,11.99-3.18,17.79-5.3,4.23-1.69,7.96-4.47,11.86-6.79,3-1.97,6.59-2.83,10.16-2.71,5.5-.13,10.94,1.14,16.09,2.98,3.25,1.2,6.77,1.71,10.16,2.31,2.29.37,4.72.75,6.78,1.91,2.61,1.4,4.91,3.5,7.62,4.74,2.62,1.29,5.59,1.91,8.47,2.27,1.67.23,3.5.44,5.08,1.04,1.17.48,2.41,1.36,3.39,2.17,5.56,4.86,10.6,11.34,18.63,11.54,3.44.12,7.02.33,10.16,1.86"/><path class="b" d="M10.88,198.71c2.51.16,5.15-.19,7.62.41,4.46,1.05,8.85,3.35,13.55,2.81,3.13-.5,6.16-1.83,9.32-2.28,4.18-.84,8.61-.31,12.71-1.6,3.13-1.05,6.17-2.56,9.32-3.57,3.02-1.02,6.26-1.51,9.32-2.4,3.56-1.04,7.1-2.45,10.16-4.56,3.24-2.14,6.3-4.96,10.16-5.89,5.47-1.34,10.84,1.12,16.09,2.31,2.47.59,5.11.45,7.62.51,2.26.05,4.6.43,6.78,1.04,3.26.9,5.78,3.41,8.47,5.31,1.52,1.03,3.34,1.88,5.08,2.46,2.75.92,5.72,1.4,8.47,2.34,5.71,1.63,8.57,7.35,12.7,11.14,7.53,7.27,13.28.49,22.87,4.93"/><path class="b" d="M10.88,195.46c1.67-.04,3.43-.28,5.08-.49,3.84-.24,7.43,1.54,11.01,2.66,2.15.68,4.54,1.16,6.78.67,4.92-1.63,10.14-1.44,15.25-1.16,5.62.4,10.07-3.68,15.25-5.11,3.29-.97,6.81-1.04,10.16-1.71,2.28-.28,4.69-.65,6.78-1.65,7.65-3.91,10.21-11.18,20.33-8.46,3.86.94,7.88,2.48,11.86,1.31,2.19-.51,4.52-1.03,6.78-.81,4.66.29,7.67,3.32,11.01,6.16,2.98,2.36,6.71,3.54,10.16,5.01,7.55,3.16,9.47,6.21,14.4,12.23,9.31,10.58,11.79-2.77,25.41,4.16"/><path class="b" d="M10.88,191.91c1.67.04,3.44-.22,5.08-.48,4.21-.36,8.03,1.9,11.86,3.29,1.86.68,3.95,1.19,5.93.86,3.3-.86,6.75-1.31,10.16-1.21,3.36,0,6.91.56,10.16-.53,4.2-1.61,8.11-4.33,12.71-4.73,2.22-.25,4.56-.2,6.78-.53,1.65-.13,3.44-.06,5.08-.31,4.09-.53,7.21-3.56,10.16-6.18,9.84-9.43,15.4-.01,25.41-3.83,3.87-1.46,8.49-1.35,11.86,1.25,2.34,1.75,4.35,4.1,6.78,5.74,2.95,2.02,6.3,3.55,9.32,5.47,2.35,1.49,4.71,3.22,6.78,5.1,1.84,1.69,3.47,3.85,5.08,5.76,2.88,3.47,6.42,6.49,11.01,3.83,1.9-1,3.79-2.38,5.93-2.84,3.53-.86,7.1.65,10.16,2.29"/><path class="b" d="M10.88,187.65c1.66.12,3.43-.05,5.08-.18,3.07.01,5.88,1.62,8.47,3.09,7.02,4.1,7.57,3.99,15.25,2.18,4.44-1.04,9.06-.96,13.55-1.59,4.05-.86,7.74-3.11,11.86-3.76,3.06-.5,6.24-.6,9.32-1,3.51.04,7.23-.18,10.16-2.33,4.34-2.93,7.97-7.67,13.55-8.08,3.66-.4,7.35.6,11.01.54,2.89-.01,5.62-1.41,8.47-1.69,6.73-.63,9.94,4.35,14.4,8.25,6.21,4.95,14.03,7.86,19.48,13.79,3.06,3.22,6.85,8.06,11.86,6.25,2.07-.73,3.94-2.17,5.93-3.06,3.92-1.78,8.27-.15,11.86,1.67"/><path class="b" d="M10.88,183.13c2.23.16,4.62-.26,6.78.45,5.56,1.88,9.35,7.48,15.25,8.51,3.78.13,7.36-1.73,11.01-2.46,3.58-.97,7.36-.7,11.01-1.07,2.85-.42,5.68-1.3,8.47-1.96,3.06-.75,6.24-1.24,9.32-1.92,3.05-.68,6.34-.16,9.32-1.22,3.17-1.08,5.82-3.38,8.47-5.35,5.63-4.7,10.98-4.08,17.79-3.87,2.87.11,5.66-.93,8.47-1.27,7.22-.66,10.69,5.21,15.25,9.56,4.86,4.59,11.36,6.74,16.94,10.23,2.85,1.98,5.28,4.74,8.47,6.21,5.62,2.68,9.17-1.67,14.4-2.26,3.17-.31,6.34.67,9.32,1.62"/><path class="b" d="M10.88,178.97c1.94.04,4.05-.03,5.93.54,5.09,1.84,8.68,6.36,13.55,8.61,3.27,1.7,6.91.47,10.16-.6,2.98-.96,6.17-1.7,9.32-1.43,8.7,1.29,13.88-.09,22.02-2.92,3.83-1.38,8.17-.91,11.86-2.78,5.94-2.89,9.81-8.29,16.94-8.47,3.65-.26,7.37.38,11.01,0,1.93-.24,3.97-.75,5.93-.66,4.12.21,7.65,2.95,10.16,6.05,4,5.11,8.89,9.63,15.25,11.51,1.94.67,4.05,1.21,5.93,2.04,1.39.69,2.86,1.65,4.24,2.37,6.02,3.23,9.81,2.49,16.09.81,3.9-.72,7.94-.24,11.86.09"/><path class="b" d="M10.88,175.56c8.34-.52,13,6.07,20.33,8.41,2.78.93,5.73.31,8.47-.45,2.46-.64,5.07-1.13,7.62-.95,2.28.17,4.56.93,6.78,1.43,3.6.87,7.45.99,11.01-.13,2.9-.83,5.63-2.34,8.47-3.34,3.39-1.04,7.04-1.56,10.16-3.32,3.59-1.92,6.65-4.82,10.16-6.86,4.71-2.57,10.2-1.3,15.25-.79,2.8.35,5.67-.46,8.47-.2,5.73.61,9.38,5.59,12.71,9.77,2.77,3.26,6.07,6.39,10.16,7.86,2.69,1.02,5.68,1.14,8.47,1.77,2.97,1.1,6.12,1.96,9.32,2.02,3.68.25,7.37-.3,11.01-.73,3.94-.24,7.94-.4,11.86-.87"/><path class="b" d="M10.88,172.97c10.24.42,17.29,8.58,27.95,5.93,3.62-.76,7.48-.95,11.01.29,5.39,1.91,11.37,3.68,16.94,1.44,2.28-.79,4.51-2.01,6.78-2.84,3.15-1.09,6.47-2.06,9.32-3.84,10.36-6.8,10.64-11.91,24.56-8,1.34.31,2.86.58,4.24.64,1.65.04,3.43-.17,5.08-.05,5.6.41,9.55,4.97,12.7,9.16,2.64,3.24,5.6,6.51,9.32,8.52,3.08,1.75,6.73,1.86,10.16,2.12,4.76,1.27,9.63-.07,14.4-.58,2.78-.48,5.65-.86,8.47-.89,3.1-.12,6.25-.47,9.32-.94"/><path class="b" d="M10.88,171.24c2.51.49,5.14.85,7.62,1.46,4.2,1.02,8.4,2.3,12.71,2.83,3.44.61,6.77-.02,10.16-.52,3.13-.4,6.37,0,9.32,1.1,12.08,4.31,14.84,3.16,26.26-1.98,6.27-3.03,10.32-9.07,16.09-12.77,3.65-2.13,8.06-1.15,11.86.05,1.92.58,3.95,1.21,5.93,1.53,1.64.24,3.44.26,5.08.54,5.71.98,9.98,5.38,13.55,9.62,2.3,2.48,4.85,4.92,7.62,6.86,2.94,2.08,6.56,3.24,10.16,3.17,1.94-.06,4.01.2,5.93-.18,3.72-.75,7.31-2.27,11.01-3.11,5.46-1.69,11.3-1.52,16.94-2.06"/><path class="b" d="M10.88,169.36c2.48.6,5.11.81,7.62,1.19,2.53.38,5.13.91,7.62,1.48,3.32.69,6.74,1.7,10.16,1.52,2.24-.18,4.53-.71,6.78-.86,3.17-.31,6.35.43,9.32,1.48,3.84,1.16,7.78,2.64,11.86,2.34,3.82-.34,7.6-1.74,11.01-3.45,6.4-3.69,10.17-10.51,16.09-14.78,3.21-2.34,7.42-1.75,11.01-.73,2.22.6,4.53,1.28,6.78,1.75,1.94.42,4.05.66,5.93,1.35,5.17,2.01,9.49,5.81,13.55,9.49,2.07,1.82,4.5,3.4,6.78,4.95,8.42,5.84,14.74,4.65,23.72.89,3.05-1.1,6.2-2.18,9.32-3.07,4.14-.92,8.46-1.38,12.7-1.11"/><path class="b" d="M10.88,166.57c2.2.49,4.54.59,6.78.82,2.27.26,4.6.78,6.78,1.48,8.14,2.77,8.92,4.23,17.79,2.54,3.1-.46,6.33-.25,9.32.71,4.12,1.19,8.35,2.75,12.71,2.32,2.3-.2,4.62-.89,6.78-1.68,1.4-.5,2.99-1.01,4.23-1.84,6.17-4.03,9.71-11.2,16.09-14.92,2.86-1.54,6.27-.96,9.32-.41,3.62.76,7.38.93,11.01,1.56,3.59.85,6.48,3.44,9.32,5.66,2.42,1.87,5.04,3.67,7.62,5.31,1.56.93,3.45,1.51,5.08,2.27,4.54,1.97,9.26,4.88,14.4,4.06,3.43-.71,6.8-1.97,10.16-2.96,2.2-.72,4.58-1.2,6.78-1.92,5.13-1.8,10.64-3.42,16.09-2.16"/><path class="b" d="M10.88,162.98c2.78.49,5.71.29,8.47.9,4.94.96,8.95,4.28,13.55,6.08,4.69,1.59,9.61-.75,14.4-.27,2.59.19,5.13,1.08,7.62,1.75,6.16,1.86,11.14.63,16.94-1.63,7.93-2.33,11.86-11.07,19.48-13.98,2.99-1.07,6.24-.31,9.32-.19,3.38.27,6.79-.59,10.16-.44,4.07.46,7,3.86,10.16,6.14,3.23,2.35,6.97,4.37,11.01,4.71,5.43.75,10.48,4.39,16.09,3.54,2.24-.52,4.48-1.45,6.78-1.71,3.63-.67,7.43-.6,11.01-1.52,5.43-1.63,9.44-3.51,15.25-1.55"/><path class="b" d="M10.88,159.54c2.21.39,4.55.34,6.78.61,5.4.59,9.7,4.18,14.4,6.55,3.97,1.96,8.49.6,12.71.71,8.86.23,11.88,4.89,22.02,1.29,2.76-1.1,5.82-1.94,8.47-3.07,2.36-1.18,4.6-2.8,6.78-4.29,3.53-2.49,7.42-4.99,11.86-5.25,2.22-.11,4.56.08,6.78-.14,3.18-.24,6.2-1.58,9.32-2.1,6.27-.87,10.77,7.34,20.33,7.74,5.33-.3,10.1,2.64,15.25,3.43,2.3.41,4.56-.58,6.78-.94,2.21-.28,4.56-.13,6.78,0,2.22.14,4.57.38,6.78-.02,6.01-1.31,8.77-3.19,15.25-.75"/><path class="b" d="M10.88,157.08c3.64.59,7.46.33,11.01,1.45,7.19,2.33,9.43,6.24,17.79,6.69,2.52.28,5.14.58,7.62,1.09,2.54.54,5.07,1.45,7.62,1.93,5.31,1.16,10.48-.94,15.25-3.08,1.61-.7,3.45-1.15,5.08-1.77,1.96-.74,3.99-1.63,5.93-2.42,3-1.24,6.13-2.4,9.32-3.05,3.06-.78,6.3-1.12,9.32-2.07,2.31-.72,4.59-1.84,6.78-2.86,2.33-1.15,5.07-1.97,7.62-1.03,2.34.76,4.55,2.11,6.78,3.14,2.11.99,4.48,1.66,6.78,2.05,2.79.38,5.71-.04,8.47.66,3.7.72,7.23,2.45,11.01,2.76,1.36.11,2.88-.19,4.23-.29,1.95-.07,4.01.26,5.93.56,2.49.37,5.09.89,7.62.74,1.98-.09,4-.67,5.93-1.06,3.41-.67,6.98-.02,10.16,1.27"/><path class="b" d="M10.88,155.54c4.79.64,9.85.26,14.4,2.14,2.92,1.14,5.59,2.99,8.47,4.21,4.68,1.71,9.53,3.09,14.4,4.16,5.53,1.43,11.53,2.25,16.94-.07,3.38-1.34,6.66-3.1,10.16-4.11,4.66-1.55,9.57-2.32,14.4-3.13,3.56-.7,6.98-2.21,10.16-3.92,10.65-5.99,10.15-7.35,22.02-2.71,2.44.75,5.07,1.28,7.62,1.42,2.51.04,5.13-.09,7.62.28,3.44.43,6.77,1.7,10.16,2.38,1.63.33,3.45.32,5.08.64,2.24.44,4.53,1.11,6.78,1.53,9.3,1.86,11.64-2.51,22.02,1.37"/><path class="b" d="M10.88,154.57c1.95.06,3.99.32,5.93.49,3.46.09,7.03.45,10.16,2.03,2.01.95,3.98,2.23,5.93,3.29,3.27,1.58,6.66,3.17,10.16,4.15,5.23,1.31,10.74,1.32,16.09,1.34,5.46-.11,10.3-2.93,15.25-4.89,4.05-1.58,8.44-2.09,12.71-2.78,3.67-.36,7.06-2.01,10.16-3.92,5.98-3.61,12.11-8.14,19.48-6.26,4.17.88,8.43,1.66,12.7,1.76,3.94.13,7.97-.48,11.86.43,3.42.79,6.8,2.03,10.16,3.03,2.75.98,5.57,2.12,8.47,2.55,3.65.7,7.36-.22,11.01-.32,3.42-.07,6.85.64,10.16,1.41"/><path class="b" d="M10.88,153.6c1.96-.03,3.99.25,5.93.48,2.24.15,4.61.23,6.78.88,3.42.98,6.34,3.22,9.32,5.08,3.87,2.2,8.14,4.3,12.71,4.17,2.53-.04,5.11-.55,7.62-.78,2.23-.19,4.55.09,6.78.12,7.77.37,12.53-3.88,19.48-5.93,3.89-1.2,8.03-1.75,11.86-3.15,4.55-2.06,8.71-5.1,13.55-6.52,6.29-2,12.96-1.76,19.48-2.03,2.79-.18,5.68-.1,8.47-.23,2.79-.24,5.7-.51,8.47.08,5.74,1.18,10.63,4.76,16.09,6.69,3.82,1.41,7.92.71,11.86.44,3.95-.07,7.93.41,11.86.74"/><path class="b" d="M10.88,151.96c1.96,0,3.99.28,5.93.57,2.56.23,5.25.53,7.62,1.58,3.69,1.54,6.65,4.46,10.16,6.31,2.83,1.49,6.1,2.46,9.32,2.03,4.28-.48,8.31-2.82,12.71-2.4,10.72,1.08,12.06-.78,21.18-4.93,4.09-1.69,8.48-2.64,12.71-3.89,2.84-1.04,5.58-2.59,8.47-3.52,3.26-1.14,6.76-1.5,10.16-1.94,1.97-.29,3.99-.87,5.93-1.3,4.5-1.04,8.97-2.53,13.55-3.17,3.64-.17,7.37-.87,11.01-.44,4.31.64,8.17,3.01,11.86,5.2,3.59,2.29,7.48,4.66,11.86,4.8,1.94.1,3.99-.14,5.93-.14,3.93.04,7.93.15,11.86.01"/><path class="b" d="M10.88,150.47c1.97.17,4.01.55,5.93,1.01,2.58.5,5.25,1.14,7.62,2.3,3.27,1.53,6.13,3.91,9.32,5.59,4,2.16,8.63,1.59,12.71-.05,7.33-2.98,7.67-2.53,15.25-2.49,2.9-.09,5.82-.85,8.47-2.01,2.56-1.12,5.02-2.68,7.62-3.71,2.97-1.23,6.17-2.11,9.32-2.74,4.38-.59,8.41-2.65,12.71-3.58,3.04-.73,6.24-.99,9.32-1.54,2.55-.52,5.11-1.36,7.62-2.04,4.51-1.28,8.92-3.21,13.55-4.03,3.07-.35,6.21-1.16,9.32-.79,5.32.74,10.02,3.84,14.4,6.76,2.6,1.77,5.4,3.54,8.47,4.36,6.1,1.38,12.47.54,18.63.06"/><path class="b" d="M10.88,148.88c4.39.88,8.64,2.59,12.71,4.45,3.12,1.48,6.13,3.36,9.32,4.72,5.35,2.52,10.98-.44,16.09-2.17,5.12-2.16,10.89-1.23,16.09-3.06,6.4-2.18,11.91-6.64,18.63-7.97,2.47-.64,5.12-.72,7.62-1.15,3.11-.68,6.23-1.66,9.32-2.42,4.22-1.02,8.51-1.97,12.71-3.1,2.81-.56,5.72-1.09,8.47-1.93,6.05-1.76,12.18-4.67,18.63-3.92,5.55,1,10.66,3.91,15.25,7.1,4.65,3.39,10.21,6,16.09,5.48,3.09-.25,6.22-.85,9.32-1.07"/><path class="b" d="M10.88,146.56c6.33,1.79,11.66,6.01,17.79,8.32,3.2,1.24,6.73,2.31,10.16,1.47,3.95-.93,7.86-2.19,11.86-2.93,3.95-.87,8.1-1.24,11.86-2.82,7.23-3.12,13.46-8.54,21.18-10.55,3.29-.94,6.83-.62,10.16-1.31,4.61-.93,9.05-2.68,13.55-4.03,1.91-.55,3.94-1.21,5.93-1.43,3.39-.26,6.88-.33,10.16-1.29,5.01-1.47,9.86-4.26,15.25-3.84,2.93.18,5.77,1.29,8.47,2.34,2.93,1.04,5.86,2.32,8.47,4.03,4.85,3.01,10.11,6.64,16.09,6.14,3.09-.32,6.2-1.09,9.32-1.09"/><path class="b" d="M10.88,143.77c5.6,1.62,9.89,5.98,15.25,8.15,3.17,1.31,6.73,2.03,10.16,1.8,2.26-.25,4.55-.9,6.78-1.31,3.91-.72,8.02-.5,11.86-1.65,6.17-1.33,11.07-5.46,16.09-9.01,5.11-3.14,10.01-7.28,16.09-8.28,3.08-.43,6.3-.28,9.32-1.1,4.58-1.09,8.96-3.08,13.55-4.14,2.47-.66,5.11-.39,7.62-.33,2.56.05,5.21-.38,7.62-1.23,6.31-2.59,10.12-4.42,16.94-1.56,1.95.79,3.95,1.8,5.93,2.53,2.57.86,5.24,1.73,7.62,3.04,5.29,2.62,10.75,6.59,16.94,5.78,2.78-.4,5.64-1.03,8.47-.84"/><path class="b" d="M10.88,140.38c4.16.95,7.47,3.89,11.01,6.09,4.21,2.81,9.31,4.51,14.4,3.98,2.53-.33,5.09-1.04,7.62-1.38,2.5-.33,5.13-.29,7.62-.76,5.68-1.18,10.88-4.08,15.25-7.85,2.97-2.58,6.27-4.89,9.32-7.38,3.31-2.71,6.8-5.6,11.01-6.74,2.18-.59,4.54-.67,6.78-.9,2.24-.25,4.56-.65,6.78-1.07,3.63-.69,7.32-1.48,11.01-1.79,2.22-.13,4.55.17,6.78,0,4.21-.19,7.96-2.35,11.86-3.68,5.58-1.84,10.73,1.87,15.25,4.69,2.84,1.83,6.27,2.55,9.32,3.95,3.34,1.48,6.68,3.17,10.16,4.33,2.15.71,4.48,1.44,6.78,1.25,3.08-.27,6.2-1.07,9.32-.82"/><path class="b" d="M10.88,136.81c3.21.61,5.87,2.7,8.47,4.54,3.31,2.37,6.92,4.68,11.01,5.32,1.92.29,3.99.44,5.93.24,2.25-.27,4.55-.84,6.78-1.21,2.79-.48,5.72-.53,8.47-1.24,3.52-1.1,7.05-2.57,10.16-4.55,4.6-3.1,8.47-7.22,12.71-10.77,3.19-2.91,6.34-6.11,10.16-8.2,3.35-1.86,7.27-2.29,11.01-2.73,5.05-.57,10.17-.66,15.25-.79,3.09-.09,6.29.02,9.32-.74,2.88-.67,5.63-2.02,8.47-2.79,6.44-1.94,12.09,2.7,16.94,6.31,2.81,2.11,6.21,3.32,9.32,4.89,3.26,1.61,6.66,3.13,10.16,4.16,2.18.63,4.48,1.4,6.78,1.39,3.1-.04,6.22-.74,9.32-.76"/><path class="b" d="M10.88,133.05c2.87.66,5.29,2.56,7.62,4.26,2.82,2.06,5.87,4.11,9.32,4.94,2.74.6,5.68.67,8.47.5,2.25-.25,4.56-.8,6.78-1.24,2.51-.51,5.15-.82,7.62-1.51,2.03-.55,3.99-1.6,5.93-2.4,5.35-2.12,9.6-6.17,13.55-10.23,4.33-4.13,8.4-8.76,13.55-11.89,3.59-2.11,7.77-3.16,11.86-3.8,3.63-.48,7.37-.25,11.01.04,3.36.28,6.81.42,10.16,0,3.15-.34,6.23-1.38,9.32-2.01,7.75-1.53,14.51,3.17,20.33,7.67,2.94,2.1,6.15,3.96,9.32,5.71,3.92,2.23,8.36,3.35,12.7,4.43,4.1,1.28,8.5.85,12.7.43"/><path class="b" d="M10.88,128.84c4.4,1.58,7.68,5.27,11.86,7.28,3.11,1.66,6.71,1.87,10.16,1.68,4.62.24,9.11-1.22,13.55-2.3,3.23-.73,6.35-1.99,9.32-3.42,3.77-1.49,7.29-3.72,10.16-6.58,10.08-10.22,13.24-15.64,27.95-19.58,5.3-1.46,10.78-.19,16.09.51,4.21.47,8.5-.07,12.7-.35,3.16-.39,6.37.25,9.32,1.38,2.55.79,5.22,1.59,7.62,2.79,5.77,2.81,10.5,7.39,16.09,10.49,3.61,2.11,7.84,2.64,11.86,3.49,4.39,1.28,8.94,2.56,13.55,1.89"/><path class="b" d="M10.88,123.76c4.7,2.24,8.45,6.38,13.55,7.78,3.03.9,6.23.31,9.32.2,3.46.15,6.88-.88,10.16-1.86,3.41-1.09,6.92-2.17,10.16-3.71,1.94-.85,4.07-1.61,5.93-2.63,2.15-1.17,4.17-2.8,5.93-4.49,7.73-7.89,11.66-13.6,22.87-17.07,2.51-.81,4.98-2.06,7.62-2.38,5.47-.82,10.73,1.53,16.09,2.13,4.51.49,9.17.57,13.55,1.79,2.33.71,4.51,2.06,6.78,2.93,2.79,1.02,5.77,1.78,8.47,3.05,4,1.79,7.5,4.56,11.01,7.13,2.51,1.71,5.44,2.98,8.47,3.37,2.22.28,4.57.26,6.78.65,4.52,1.01,8.78,3.58,13.55,3.16"/><path class="b" d="M10.88,117.35c4.78,2.43,8.93,6.55,14.4,7.41,2.51.41,5.11-.04,7.62-.22,2.84.07,5.73-.27,8.47-1.06,4.28-1.22,8.55-2.71,12.71-4.29,2.54-.93,5.27-1.64,7.62-3.01,4.91-2.83,8.52-7.42,12.71-11.14,4.82-4.44,10.8-7.36,16.94-9.5,7.71-3.61,13.79.45,21.17,2.24,4.25.96,8.55,2.02,12.71,3.36,2.64.95,5.06,2.6,7.62,3.7,4.96,1.83,10.01,3.63,14.4,6.65,4.36,2.99,7.93,5.76,13.55,5.61,2.22-.02,4.55-.34,6.78-.11,4.64.69,8.76,3.65,13.55,3.72"/><path class="b" d="M10.88,110.22c4.96,2.47,9.41,6.75,15.25,6.87,2.24.1,4.55-.33,6.78-.42,2.52.1,5.13.16,7.62-.31,5.49-.88,10.66-3.23,16.09-4.36,4.4-.62,8.52-2.59,11.86-5.51,3.64-3.02,7.12-6.37,11.01-9.08,4.63-3.27,9.77-6.03,15.25-7.55,6.94-1.6,13.13,2.98,19.48,4.99,3.64,1.46,7.29,3.05,11.01,4.3,2.58,1,5.05,2.5,7.62,3.53,4.01,1.47,8.14,2.85,11.86,5.01,5.08,2.76,10.01,6.72,16.09,6.47,2.23-.01,4.55-.37,6.78-.3,4.66.3,8.94,2.68,13.55,3.29"/><path class="b" d="M10.88,103.55c2.4.96,4.55,2.62,6.78,3.91,4.99,3.05,8.89,2.64,14.4,2.15,1.38-.07,2.87.24,4.23.34,2.23.17,4.57.06,6.78-.31,4.81-.9,9.46-2.99,14.4-3.19,4.78-.03,8.97-1.8,12.7-4.71,8.01-6.07,16.09-13.25,26.26-15.19,4.52-.64,8.82,1.46,12.71,3.52,3.13,1.5,6.29,3.11,9.32,4.8,4,2.19,8.54,3.28,12.7,5.11,3.94,1.36,8.1,2.29,11.86,4.16,4.21,1.97,8.34,4.28,12.7,5.91,4.06,1.57,8.47.98,12.7.84,4.29.09,8.54,1.11,12.7,2.06"/><path class="b" d="M10.88,97.92c3.39,1.07,6.01,3.8,9.32,5.07,3.75,1.69,7.9,1.01,11.86.91,1.97.03,3.96.72,5.93.82,2.23.18,4.59.03,6.78-.46,2.51-.67,5.06-1.49,7.62-1.96,3.87-.99,8.01.22,11.86-.95,4.79-1.36,8.58-4.87,12.71-7.48,6.01-3.83,12.43-7.49,19.48-8.9,4.56-.77,8.9,1.39,12.71,3.66,3.46,1.81,6.78,4.02,10.16,5.96,2.33,1.36,5.04,1.99,7.62,2.65,2.22.56,4.52,1.26,6.78,1.67,2.55.47,5.18,1.03,7.62,1.91,3.38,1.27,6.75,2.73,10.16,3.92,2.73,1.13,5.53,2.44,8.47,2.93,2.78.51,5.68.19,8.47-.06,4.22-.28,8.57-.58,12.7.55"/><path class="b" d="M10.88,92.65c3.98,1.11,6.94,4.55,11.01,5.5,3.29.99,6.79.4,10.16.51,2.53.23,5.05,1.22,7.62,1.16,4.38.24,8.42-1.89,12.71-2.35,3.37-.57,6.79.55,10.16.24,5.44-.39,9.69-4.23,14.4-6.54,4.36-2.09,8.91-3.92,13.55-5.26,1.92-.59,3.92-1.36,5.93-1.62,4.61-.73,8.94,1.57,12.71,3.96,3.15,1.77,6.22,3.85,9.32,5.71,3.55,2.22,7.84,2.45,11.86,3.12,3.07.54,6.28.6,9.32,1.35,3.44.8,6.75,2.3,10.16,3.19,4.75,1.4,9.28,3.78,14.4,3.2,2.23-.22,4.55-.56,6.78-.85,3.33-.62,6.82-1.11,10.16-.31"/><path class="b" d="M10.88,87.54c2.14.48,4.07,1.77,5.93,2.88,1.83,1.06,3.87,1.99,5.93,2.47,3.03.76,6.24.45,9.32.72,2.52.35,5.03,1.33,7.62,1.21,3.48.13,6.78-1.25,10.16-1.8,3.68-.67,7.35.44,11.01.62,5.63.31,10.25-3.37,15.25-5.3,4.39-1.53,9-2.56,13.55-3.5,1.95-.37,3.94-1.11,5.93-1.31,4.95-.64,9.5,1.96,13.55,4.48,3.43,1.85,6.72,4.08,10.16,5.89,2.33,1.23,5.03,1.63,7.62,1.87,4.2.57,8.53.38,12.7,1.09,2.58.48,5.13,1.44,7.62,2.24,1.92.59,4.01,1.07,5.93,1.68,3.25,1.04,6.77,1.53,10.16.97,2.79-.53,5.66-1.03,8.47-1.41,3.04-.59,6.24-.98,9.32-.42"/><path class="b" d="M10.88,82.95c2.07.25,4.06,1.18,5.93,2.06,2.15.97,4.47,1.84,6.78,2.37,2.76.66,5.68.85,8.47,1.36,2.49.57,5.02,1.44,7.62,1.29,3.43.07,6.76-1.19,10.16-1.33,3.14-.11,6.2,1.09,9.32,1.25,5.48.48,10.21-2.77,15.25-4.3,6.07-1.69,12.4-2.4,18.63-3.24,5.46-.63,10.53,2.08,15.25,4.46,1.91.99,4.05,1.78,5.93,2.83,2.71,1.47,5.45,3.2,8.47,3.94,4.44.96,9.05.8,13.55.5,3.19-.12,6.38.72,9.32,1.89,2.18.87,4.54,1.57,6.78,2.27,2.43.8,5.05,1.44,7.62,1.32,2.57-.08,5.13-.86,7.62-1.39,4.48-.54,9.02-1.47,13.55-1.23"/><path class="b" d="M10.88,78.87c4.06-.02,7.92,1.69,11.86,2.47,2.79.66,5.69,1.23,8.47,1.94,2.22.55,4.46,1.51,6.78,1.62,4.23.45,8.51-.96,12.71-.18,1.7.31,3.42,1.07,5.08,1.52,1.89.51,3.98.69,5.93.46,3.22-.36,6.25-1.78,9.32-2.72,2.47-.68,5.12-1,7.62-1.54,5.28-1.01,10.69-2.55,16.09-1.7,3.21.66,6.27,2.1,9.32,3.26,2.73,1.1,5.64,1.92,8.47,2.73,2.31.81,4.54,2.06,6.78,3.04,3.41,1.56,7.29,2.03,11.01,1.81,2.25-.17,4.52-.86,6.78-1,3.25-.28,6.44.91,9.32,2.32,1.89.92,3.99,1.69,5.93,2.49,2.65,1.13,5.55,2.06,8.47,1.89,2.56-.12,5.1-.97,7.62-1.34,4.21-.35,8.48-.57,12.7-.76"/><path class="b" d="M10.88,75.32c2.22-.37,4.55-.22,6.78-.03,3.1.22,6.28.58,9.32,1.26,3.45.64,6.72,2.23,10.16,2.83,4.19.66,8.6-.09,12.71,1.11,2.04.59,3.96,1.77,5.93,2.52,2.13.8,4.51,1.11,6.78.91,2.85-.23,5.66-1.19,8.47-1.68,2.53-.29,5.17-.45,7.62-1.21,4.17-1.1,8.29-3.15,12.71-2.69,3.93.25,7.33,2.63,11.01,3.79,3.24,1.2,6.78,1.24,10.16,1.69,3.22.66,6.18,2.35,9.32,3.25,2.72.71,5.68,1.03,8.47.62,1.97-.33,3.96-1.13,5.93-1.5,3.58-.8,7.15.67,10.16,2.51,1.6.95,3.41,1.86,5.08,2.7,1.89,1.01,3.88,2.14,5.93,2.79,2.72.93,5.7.64,8.47.1,5.02-1.08,10.18.22,15.25-.16"/><path class="b" d="M10.88,72.39c2.2-.53,4.53-.68,6.78-.87,4.22-.46,8.59-.51,12.71.64,2.26.55,4.48,1.6,6.78,1.98,3.64.62,7.45.67,11.01,1.72,2.4.76,4.61,2.17,6.78,3.41,3.08,1.7,6.66,2.52,10.16,2.31,1.95-.08,3.99-.39,5.93-.54,1.66-.1,3.46-.02,5.08-.45,3.52-.83,6.75-2.69,10.16-3.82,2.75-.85,5.85-.69,8.47.51,4.92,2.36,8.74,4.28,14.4,3.58,3.78-.6,7.46.68,11.01,1.83,3.53,1.01,7.44,1.41,11.01.42,2.73-.86,5.54-2.19,8.47-1.76,2.83.39,5.31,2.13,7.62,3.68,3.06,1.9,6.13,3.96,9.32,5.65,1.8.88,3.91,1.42,5.93,1.32,2.24-.07,4.54-.6,6.78-.64,3.99.06,7.86,1.64,11.86,1.61"/><path class="b" d="M10.88,69.82c2.2-.53,4.55-.76,6.78-1.14,2.5-.46,5.08-1.01,7.62-1.19,3.77-.39,7.46.66,11.01,1.79,4.25,1,8.72,1.58,12.71,3.47,3.99,1.96,7.54,4.95,11.86,6.23,4.36,1.39,9.07.91,13.55.51,3.29-.63,6.29-2.39,9.32-3.74,7.08-3.46,10.5-.14,16.94,2.12,1.88.59,3.97.84,5.93.71,2.51-.16,5.1-.74,7.62-.37,2.81.34,5.63,1.15,8.47,1.28,2.23.05,4.58-.08,6.78-.5,1.99-.38,3.97-1.26,5.93-1.74,3.98-1.17,7.91.84,11.01,3.22,1.87,1.4,3.99,2.69,5.93,4,2.78,1.92,5.84,3.94,9.32,4.11,2.8.12,5.67-.56,8.47-.25,3.73.51,7.25,2.26,11.01,2.58"/><path class="b" d="M10.88,67.01c2.49-.58,5.13-.72,7.62-1.25,3.36-.69,6.73-1.76,10.16-2.02,3.8-.38,7.46,1.09,11.01,2.24,7.04,2.29,12.99,6.8,19.48,10.2,4.9,2.56,10.87,2.95,16.09,1.18,3.78-1.52,7.07-4.27,11.01-5.42,4.74-1.36,9.12,1.61,13.55,2.8,4.13,1.32,8.48.28,12.7.47,2.79.18,5.67.55,8.47.34,4.27-.51,8.52-1.63,12.7-2.6,4.28-1.26,8.29-.09,11.86,2.42,2.2,1.51,4.57,3,6.78,4.5,2.82,1.96,5.84,4.07,9.32,4.59,3.07.41,6.29.15,9.32.89,3.38.85,6.67,2.32,10.16,2.68"/><path class="b" d="M10.88,63.99c2.77-.6,5.69-.58,8.47-1.11,3.12-.54,6.21-1.56,9.32-2.15,6.46-1.38,12.42,2.56,17.79,5.63,3.84,2.43,7.85,4.7,11.86,6.85,5.61,3.27,12.1,3.96,17.79.46,3.49-2.09,6.81-5.15,11.01-5.58,4.42-.2,8.4,2.42,12.71,3.06,3.33.68,6.8.4,10.16.59,3.07.38,6.22,1.06,9.32.59,2.92-.35,5.66-1.66,8.47-2.44,1.61-.49,3.43-.68,5.08-.95,3.07-.57,6.36-.62,9.32.52,6.06,2.32,11.06,6.76,16.94,9.42,3.22,1.31,6.82,1.45,10.16,2.31,3.92,1,7.78,2.62,11.86,2.91"/><path class="b" d="M10.88,60.81c2.76-.59,5.67-.47,8.47-.75,2.85-.26,5.7-1,8.47-1.7,6.5-2.04,11.49.93,16.94,4.12,2.23,1.29,4.51,2.71,6.78,3.95,2.22,1.12,4.58,2.22,6.78,3.41,8.56,4.59,14.01,2.48,21.18-3.18,5.03-3.59,8.03-3.46,13.55-1.12,4.86,1.9,10.14,1.82,15.25,2.33,2.57.29,5.03,1.53,7.62,1.72,5.43.77,9.98-3.23,15.25-3.59,5.44-.73,10.1-.85,15.25,1.46,5.72,2.28,10.78,6.29,16.94,7.41,5.96,1.31,11.61,4.22,17.79,4.45"/><path class="b" d="M10.88,57.83c3.04-.66,6.23-.52,9.32-.75,2.85-.2,5.7-.92,8.47-1.59,5.92-1.85,11.72,1.21,16.94,3.74,4.47,2.28,9.08,4.39,13.55,6.65,15.02,7.37,18.39-8.7,28.8-6.16,2,.57,3.95,1.65,5.93,2.28,2.44.8,5.08,1.15,7.62,1.34,2.81.21,5.75.31,8.47,1.15,3.84,1.57,7.66,3.06,11.86,1.82,3.36-.99,6.6-2.73,10.16-2.89,4.76-.78,9.73-1.26,14.4.25,3.49,1,6.75,2.82,10.16,4.02,2.98,1.18,6.25,1.59,9.32,2.48,5.02,1.66,9.87,4.19,15.25,4.47"/><path class="b" d="M10.88,54.52c3.29-.98,6.79-.98,10.16-1.46,3.41-.43,6.76-1.56,10.16-2.02,4.06-.39,8.09,1.16,11.86,2.49,5.91,2.21,11.47,5.28,16.94,8.38,8.05,4.27,12.88.13,19.48-4.16,2.5-1.52,5.62-2.33,8.47-1.36,3.31,1.22,6.58,2.7,10.16,2.9,5.43.43,10.25.14,15.25,2.83,4.86,2.24,8.63,2.05,13.55.13,2.16-.82,4.54-1.24,6.78-1.82,3.83-1.07,7.94-1.64,11.86-.69,3.47.73,6.71,2.42,10.16,3.21,3.3.94,6.85.9,10.16,1.77,2.35.6,4.56,1.89,6.78,2.83,2.69,1.17,5.57,2.15,8.47,2.66"/><path class="b" d="M10.88,50.56c2.91-1.38,6.2-1.76,9.32-2.46,3.37-.7,6.74-1.77,10.16-2.17,3.16-.39,6.31.64,9.32,1.47,6.76,2.06,12.98,5.66,18.63,9.86,7.76,5.73,12.25,2.73,19.48-1.71,2.77-1.63,6.08-2.81,9.32-2.13,1.97.38,3.95,1.19,5.93,1.5,2.21.35,4.55.31,6.78.31,6.85-.15,10.11.98,16.09,4.04,2.61,1.21,5.65,1.81,8.47,1.05,3.45-.97,6.81-2.44,10.16-3.7,3.46-1.44,7.36-1.99,11.01-.99,3.4.85,6.66,2.46,10.16,2.94,3.34.65,6.87.32,10.16,1.22,2.39.63,4.53,2.13,6.78,3.11,2.69,1.22,5.59,2.22,8.47,2.89"/><path class="b" d="M10.88,46.36c2.31-1.5,5.03-2.24,7.62-3.06,3.32-1.07,6.69-2.31,10.16-2.77,4.35-.63,8.63,1.07,12.71,2.39,4.61,1.67,8.86,4.27,12.7,7.29,4.27,3.49,9.13,9.2,15.25,6.69,5.54-2.3,10.61-6.73,16.94-6.34,2.23.1,4.53.68,6.78.56,2.8-.13,5.66-.64,8.47-.59,3.19.03,6.38.86,9.32,2.07,5.07,2.13,9.42,6.09,15.25,3.65,5.85-2.08,11.18-7.39,17.79-5.85,2.61.56,5.1,1.79,7.62,2.63,2.44.81,5.07,1.3,7.62,1.62,2.24.28,4.63.43,6.78,1.21,2.09.67,3.95,2.1,5.93,3.02,2.94,1.36,6.17,2.21,9.32,2.96"/><path class="b" d="M10.88,42.19c2.28-1.69,5.03-2.63,7.62-3.7,2.99-1.26,6.08-2.59,9.32-3.02,2.56-.38,5.21.06,7.62.92,1.95.57,4.02,1.12,5.93,1.81,15.2,4.82,18.07,19.37,27.95,15.25,4.64-2.27,9.17-5.21,14.4-5.89,2.49-.41,5.12-.19,7.62-.46,2.81-.44,5.61-1.4,8.47-1.51,3.52-.21,6.97.99,10.16,2.34,4.99,1.64,9.67,6.43,15.25,4.31,2.69-1.02,5.19-2.7,7.62-4.21,3.17-2.21,7.1-4.11,11.01-2.83,3.47,1.1,6.69,3.01,10.16,4.12,3.58,1.35,7.45,2.01,11.01,3.42,2.4.9,4.45,2.68,6.78,3.72,2.94,1.24,6.21,1.65,9.32,2.26"/><path class="b" d="M10.88,38.16c2.32-1.61,5.05-2.61,7.62-3.73,3.21-1.43,6.6-2.87,10.16-2.99,2.63-.17,5.16.77,7.62,1.52,2.51.64,5.15,1.09,7.62,1.86,12.97,3.07,15.68,20.07,27.1,13.43,3.69-2.03,7.67-3.78,11.86-4.46,2.78-.51,5.71-.43,8.47-1.05,9.54-3.26,11.36-2.25,20.33,1.46,5.82,2.59,9.61,6.29,16.09,2.39,8.74-4.89,11-9.52,21.17-3.41,5.24,2.75,10.77,5,16.09,7.58,1.73.92,3.47,2.13,5.08,3.23,3.28,1.99,7.31,2.04,11.01,2.53"/><path class="b" d="M10.88,34.27c2.41-1.38,5.11-2.31,7.62-3.45,3.93-1.82,8.3-3.59,12.7-2.71,1.72.28,3.41,1.12,5.08,1.59,2.47.67,5.12.96,7.62,1.47,12.47,1.32,14.94,18.02,27.1,12.52,5.62-2.48,11.81-3.02,17.79-4.09,5.15-1.2,8.71-3.92,14.4-2.59,2.01.43,4.02,1.26,5.93,1.99,1.63.64,3.49,1.07,5.08,1.8,3.66,1.69,7.86,3.33,11.86,1.81,5.83-1.99,11.33-7.17,17.79-4.44,2.89,1.16,5.65,2.83,8.47,4.16,3.9,2.06,7.93,4,11.86,6.01,2.02,1.11,4.03,2.5,5.93,3.8,3.29,2.03,7.26,2.58,11.01,3.15"/><path class="b" d="M10.88,30.08c2.48-1.17,5.17-2.05,7.62-3.28,3.88-1.96,8.3-3.9,12.71-2.67,1.43.35,2.9,1.08,4.23,1.69,1.6.68,3.4,1.22,5.08,1.64,2.79.78,5.81,1.09,8.47,2.27,7.63,3.89,10.93,12.14,21.18,10.32,3.89-.79,7.95-.32,11.86-.96,2.61-.41,5.22-1.27,7.62-2.36,1.94-.87,3.9-2,5.93-2.66,4.46-1.66,9.19-.36,13.55.96,1.91.5,4.01.67,5.93,1.14,3.31.73,6.76,1.5,10.16,1.15,8.45-1.4,11.61-3.59,20.33.24,6.35,2.61,12.58,5.59,18.63,8.82,2.57,1.43,5.03,3.25,7.62,4.64,2.92,1.53,6.1,2.74,9.32,3.44"/><path class="b" d="M10.88,25.4c2.21-.94,4.62-1.68,6.78-2.74,4.11-2.17,8.92-4.37,13.55-2.46,2.91,1.15,5.54,3.07,8.47,4.19,3.85,1.78,8.31,2.2,11.86,4.63,8.06,6.43,11.1,7.17,21.18,8.33,3.58.81,7.4,2.06,11.01.68,4.03-1.35,7.12-4.6,11.01-6.24,5.53-2.54,10.47-.63,16.09-.25,2.51-.05,5.11-.2,7.62-.06,2.52.11,5.11.55,7.62.78,1.93.2,3.99.21,5.93.36,1.99.24,4.03.86,5.93,1.49,2.79.95,5.64,1.99,8.47,2.79,3.79.96,7.56,2.28,11.01,4.14,4.64,2.29,9.05,5.12,13.55,7.66,3.22,1.82,6.53,3.8,10.16,4.66"/><path class="b" d="M10.88,20.68c2.22-.88,4.61-1.58,6.78-2.58,2.89-1.34,6.05-2.77,9.32-2.36,3.15.37,5.91,2.23,8.47,3.96,2.14,1.41,4.44,2.78,6.78,3.83,2.73,1.3,5.84,1.85,8.47,3.36,2.55,1.44,4.79,3.58,7.62,4.5,5.88,2.01,12.16,2.93,17.79,5.68,9.35,4.16,12.99-6.61,21.18-8.51,3.57-1.04,7.36-.53,11.01-.37,4.53.15,9.01-1.91,13.55-.82,2.27.46,4.56,1.28,6.78,1.96,1.35.43,2.93.72,4.24,1.29,3.59,1.6,7.08,3.76,11.01,4.44,1.92.39,4,.44,5.93.76,3.69.65,7.04,2.6,10.16,4.57,3.91,2.4,7.68,5.12,11.86,7.05,2.94,1.6,5.96,3.42,9.32,3.96"/><path class="b" d="M10.88,16.63c12.88-4.14,13.83-6.46,25.41,2.34,2.84,1.94,5.99,3.59,9.32,4.48,3.41.67,6.52,2.33,9.32,4.35,3.64,2.07,7.93,2.55,11.86,3.85,2.25.72,4.59,1.51,6.78,2.42,1.61.72,3.33,1.6,5.08,1.95,8.76,1.35,10.93-10.07,22.02-10.78,2.79-.27,5.67.1,8.47.03,1.68-.03,3.45-.46,5.08-.8,5.13-1.25,9.01.39,13.55,2.58,1.6.79,3.47,1.31,5.08,2.08,2.2,1.08,4.43,2.37,6.78,3.09,6.14,1.92,10.06-1.08,16.09,2.86,4.43,2.7,8.23,6.45,12.7,9.07,4.08,1.75,8.15,4.18,12.7,4.27"/><path class="b" d="M10.88,13.05c10.71-3.9,14.1-3.55,22.87,3.73,2.59,2,5.4,3.94,8.47,5.14,2.7,1.13,5.76,1.22,8.47,2.29,2.33.88,4.37,2.58,6.78,3.3,3.9,1.25,7.97,2.16,11.86,3.45,3.32.82,6.69,2.31,10.16,2.06,4.88-.56,8.23-4.6,11.86-7.48,5.15-3.88,10.82-3.86,16.94-3.3,2.23.18,4.55-.17,6.78-.28,4.6-.36,8.76,1.94,12.71,3.98,3.02,1.38,6.17,2.73,9.32,3.79,3.02.93,6.29.56,9.32-.12,4.13-1.18,7.79.41,11.01,2.99,3.46,2.66,6.58,5.89,10.16,8.38,4.07,2.24,8.86,3.78,13.55,3.31"/><path class="b" d="M10.88,10.15c6.55-3.1,12.06-3.02,17.79,1.63,4.6,3.59,8.99,7.76,14.4,10.1,1.86.8,3.97,1.07,5.93,1.49,2.04.4,4.05,1.23,5.93,2.09,3.28,1.22,6.82,1.83,10.16,2.84,4.34,1.31,9.09,2.57,13.55,1.11,4.1-1.4,7.58-4.21,11.01-6.75,3.67-2.58,8.24-3.94,12.7-4.14,3.68-.14,7.37.59,11.01.97,3.2.33,6.42,1.17,9.32,2.59,4.65,2.22,9.3,4.87,14.4,5.89,3.5.59,6.92-.81,10.16-1.92,3.52-1.36,7.32.23,10.16,2.37,3.83,2.73,7,6.43,11.01,8.91,3.88,1.95,8.4,2.72,12.7,2.11"/></svg>