<?xml version="1.0" encoding="UTF-8"?><svg id="a" xmlns="http://www.w3.org/2000/svg" width="1920" height="2400" viewBox="0 0 192 240"><defs><style>.b{fill:none;stroke:#fff;stroke-miterlimit:10;stroke-width:.4px;}.c{stroke-width:0px;}</style></defs><rect class="c" x="0" width="192" height="240"/><path class="b" d="M8.79,232.59c16.19,0,32.4,0,48.6,0,5.77,0,11.58,0,17.36,0,2.57,0,5.24,0,7.81,0,.78-.4,1.81-1.02,2.6-1.4,5.48-2.8,11.65-1.13,17.36-.1,2.58.4,5.4.41,7.81-.72,3.3-1.74,6.26-4.21,9.55-5.97,5.73-3.33,11.38-3.24,17.36-.57,2.55,1.14,5.27,2.12,7.81,3.27,2.95,1.46,5.79,3.34,8.68,4.92,1.21.88,2.94.49,4.34.57,1.98,0,4.09,0,6.07,0,6.35,0,12.74,0,19.09,0"/><path class="b" d="M8.79,227.88c16.19,0,32.4,0,48.6,0,7.51,0,15.05,0,22.56,0,1.28.2,2.38-1.05,3.47-1.54,1.32-.71,2.88-1.32,4.34-1.64,5.26-1.23,10.48.79,15.62,1.7,2.28.38,4.77.39,6.94-.49,3.31-1.53,6.3-3.84,9.55-5.52,6.04-3.38,11.9-3.45,18.22-.77,2.28.94,4.7,1.83,6.94,2.86,3.18,1.52,6.3,3.37,9.55,4.77,1.28.75,2.91.67,4.34.64,1.98,0,4.09,0,6.07,0,6.06,0,12.16,0,18.22,0"/><path class="b" d="M8.79,223.17c17.93,0,35.87,0,53.8,0,6.06,0,12.16,0,18.22,0,1.45-.48,2.89-1.46,4.34-1.97,2.46-.99,5.17-1.56,7.81-1.67,5.78-.35,11.65,1.82,17.36.35,2.93-.94,5.77-2.36,8.68-3.35,6.79-2.6,13.32-2,19.96.72,3.19,1.2,6.43,2.5,9.55,3.89,2.22.83,4.5,2.21,6.94,2.03,5.19,0,10.43,0,15.62,0,1.71-.13,3.49-.8,5.21-.93,2.28-.24,4.69-.09,6.94.31"/><path class="b" d="M8.79,218.46c23.72,0,47.44,0,71.16,0,1.18.14,2.43-.41,3.47-.88,1.67-.69,3.49-1.4,5.21-1.96,4.18-1.39,8.62-2.02,13.02-2.08,2.57-.06,5.24,0,7.81-.21,2-.18,4.08-.59,6.07-.82,5.18-.67,10.51-.6,15.62.51,3.83.81,7.6,2.12,11.28,3.44,2.28.66,4.52,2.13,6.94,2.01,7.22,0,14.47,0,21.7,0,1.73.06,3.48-.82,5.21-.95,2.27-.29,4.69-.13,6.94.25"/><path class="b" d="M8.79,213.75c16.77,0,33.56,0,50.33,0,4.32,0,8.7,0,13.02,0,2.27-.13,4.74.33,6.94-.31,5.95-1.27,11.43-4.18,17.36-5.56,7.39-1.77,15.18-1.16,22.56.31,7.58,1.53,15.07,3.7,22.56,5.56,13.88.02,27.78-.03,41.65,0"/><path class="b" d="M8.79,208.64c1.66.54,3.49.38,5.21.4,2.57,0,5.24,0,7.81,0,1.15.02,2.39-.56,3.47-.87,1.96-.63,4.05-1.27,6.07-1.64,4.03-.8,8.24-.32,12.15.85,1.7.48,3.5,1.08,5.21,1.55,1.68.23,3.52.06,5.21.11,4.61,0,9.27,0,13.89,0,1.15.1,2.42-.11,3.47-.58,1.68-.59,3.49-1.25,5.21-1.72,3.14-.81,6.43-.75,9.55-1.83,8.71-2.78,15.99-5.05,25.17-2.45,5.29,1.44,10.33,3.8,15.62,5.26,2.25.57,4.59,1.45,6.94,1.31,16.48,0,32.98,0,49.47,0"/><path class="b" d="M8.79,199.18c3.16,0,6.39.34,9.55.17,3.48-.31,6.92-1.33,10.41-1.56,3.84-.31,7.73.48,11.28,1.92,3.99,1.61,7.89,3.7,12.15,4.53,1.98.19,4.09.04,6.07.09,1.72.05,3.57.02,5.21-.57,4.77-1.37,9.07-4.13,13.89-5.35,2.24-.51,4.67-.33,6.94-.66,4.87-.59,9.85-1.26,14.75-.64,5.1.59,10.01,2.4,14.75,4.28,1.68.68,3.5,1.42,5.21,2.04,1.07.34,2.32.99,3.47.91,20.25,0,40.5,0,60.75,0"/><path class="b" d="M8.79,191.18c3.12-.66,6.37-.86,9.55-1.07,2.57-.23,5.22-.6,7.81-.56,4.92-.01,9.63,1.85,13.88,4.19,4.3,2.43,8.84,4.85,13.88,5.06,8.6.77,15.48-4.65,23.43-6.61,2.83-.53,5.82-.24,8.68-.14,5.64.31,11.21,1.66,16.49,3.63,2.3.84,4.66,1.81,6.94,2.7,1.37.46,2.86,1.34,4.34,1.23,23.14,0,46.29,0,69.42,0"/><path class="b" d="M8.79,184.58c4.99-1.71,10.35-2.63,15.62-2.52,3.63.15,7.19,1.31,10.41,2.95,4.62,2.21,8.79,5.74,13.88,6.82,5.49,1.05,11.17.25,16.49-1.28,5.38-1.45,10.82-3.67,16.49-3.16,5.71.47,11.17,2.55,16.49,4.57,1.69.65,3.51,1.36,5.21,2,1.38.56,2.82,1.14,4.34.95,25.16,0,50.34,0,75.5,0"/><path class="b" d="M8.79,179.38c10-3.96,17.23-5.03,26.9.45,3.4,1.78,6.71,4.01,10.41,5.12,4.53,1.05,9.32.23,13.89-.22,6.61-.85,13.27-1.92,19.96-1.78,5.21.19,10,2.7,14.75,4.58,2.25.93,4.62,1.84,6.94,2.58,2.86.16,5.81.02,8.68.07,6.06,0,12.16,0,18.22,0,18.22,0,36.45,0,54.67,0"/><path class="b" d="M8.79,175.13c10.27-3.79,15.58-5.84,26.03-.84,3.93,1.75,7.8,4.17,12.15,4.66,2.59.13,5.25-.4,7.81-.71,3.43-.49,6.95-.93,10.41-1.03,3.74-.13,7.55.13,11.28.37,2.6.16,5.33.07,7.81,1,6.12,2.11,11.73,5.97,18.22,6.91,18.51,0,37.03,0,55.54,0,.76,0,1.84,0,2.6,0,1.67-.48,3.49-.96,5.21-1.22,3.15-.47,6.4-.69,9.55-1.15,2.57-.22,5.25.03,7.81.27"/><path class="b" d="M8.79,170.84c9.66-3,14.01-6,24.3-2.1,4.55,1.6,8.96,4.24,13.88,4.42,5.85-.41,11.47-2.72,17.36-3.02,5.49-.47,11.01.47,16.49.69,4.09.58,7.66,3,11.28,4.81,5.71,3.16,11.7,4.59,18.22,4.25,1.72-.1,3.59.15,5.21.76,1.07.2,2.38.1,3.47.12,10.12,0,20.26,0,30.37,0,1.98,0,4.09,0,6.07,0,.41.04,1.33-.05,1.74-.17.39-.31,1.32-.91,1.74-1.2,7.06-4.81,16.07-5.01,24.3-4.4"/><path class="b" d="M8.79,165.67c5.69-1.52,11.31-4.57,17.36-3.55,6.42.82,11.95,4.68,18.22,6.01,2.6.57,5.32.02,7.81-.78,6.23-2.05,12.44-4.68,19.09-4.94,12.49-.46,12.12.18,22.56,6.32,3.23,1.85,6.74,3.44,10.41,4.13,3.12.75,6.45.25,9.55.93,1.48.41,3.03,1.17,4.34,1.97.73.36,1.82.29,2.6.29,9.54,0,19.1,0,28.64,0,1.98,0,4.09,0,6.07,0,.92-.4,1.85-1.42,2.6-2.05,7.7-7,15.24-7.54,25.17-6.91"/><path class="b" d="M8.79,161.01c3.48-.85,6.92-2.15,10.41-2.95,8.05-1.37,15.1,3.82,22.56,5.82,4.63,1.42,8.8-.06,13.02-1.96,3.93-1.72,7.94-3.52,12.15-4.46,3.1-.71,6.37-.95,9.55-1.01,1.99,0,4.1-.24,6.07.09,6.14,1.16,11.52,4.72,17.36,6.82,4.17,1.71,8.64,2.36,13.02,3.21,2.9.92,5.47,2.83,7.81,4.72,11.85.12,23.73,0,35.58.04,4.56-4.6,9.81-9.38,16.49-10.23,3.43-.39,6.97-.1,10.41-.26"/><path class="b" d="M8.79,157.02c3.18-.7,6.38-1.66,9.55-2.44,6.15-.99,11.78,2.53,17.36,4.56,4.7,1.91,10.03,2.72,14.75.43,5.63-2.41,11.19-5.37,17.36-6.09,3.14-.43,6.39-.37,9.55-.48,3.74-.28,7.54-.69,11.28-.16,5.97.69,11.72,2.69,17.36,4.7,2.56.99,5.34,1.68,7.81,2.88,3.13,1.61,5.97,3.9,8.68,6.12,6.63.22,13.32.01,19.96.08,3.16,0,6.39,0,9.55,0,1.69-.07,3.55.18,5.21-.17,4.48-4.2,9.28-9.09,15.62-10.03,3.44-.25,6.97.15,10.41-.24"/><path class="b" d="M8.79,153.6c1.99-.42,4.09-.88,6.07-1.36,1.39-.32,2.9-.84,4.34-.9,9.45.11,16.9,9.15,27.77,5.51,5.41-2.13,10.59-5.26,16.49-5.85,5.19-.73,10.44.69,15.62.11,6.3-1.19,12.58-3.93,19.09-2.62,3.66.63,7.14,2.2,10.41,3.89,3.87,1.92,7.66,4.13,11.28,6.47,1.69.99,3.39,2.33,5.21,3.07,2.86,0,5.81,0,8.68,0,7.22,0,14.47,0,21.7,0,1.78.31,3.04-1.36,4.34-2.31,1.92-1.54,3.98-3.15,6.07-4.44,6.76-4.41,10.2-1.66,17.36-2.41"/><path class="b" d="M8.79,150.6c3.18-.62,6.38-1.49,9.55-2.13,3.01-.3,5.96.93,8.68,2.09,3.34,1.45,6.77,3.06,10.41,3.55,8.16,1.3,13.25-4.61,20.83-5.92,3.73-.74,7.61-.24,11.28.59,3.38.71,6.98,1.71,10.41.81,3.34-.96,6.36-2.89,9.55-4.24,8.99-4.13,15.12-.25,22.56,4.69,3.99,2.47,8.46,4.24,13.02,5.34,2.26.55,4.65.99,6.94,1.37,1.38.24,2.93.53,4.34.44,6.06-.03,12.16.07,18.22-.04,6.1-2.65,12.18-8.5,19.09-8.1,3.14.46,6.35,1.15,9.55,1.01"/><path class="b" d="M8.79,147.8c3.17-.72,6.37-1.68,9.55-2.36,5.84-.43,10.87,3.57,16.49,4.53,6.27,1.37,11.1-1.15,16.49-3.87,13.37-6.18,20.32,3.75,29.51.48,8.26-3.73,13.87-9.72,23.43-4.74,3.88,1.87,7.13,5.09,11.28,6.41,7.42,2.4,15.04-1.24,22.56-.64,2.71.12,5.21,1.46,7.81,2.05,3.72.84,7.66.37,11.28-.7,5.64-1.5,11.38-4.98,17.36-3.36,2.83.77,5.74,1.68,8.68,1.9"/><path class="b" d="M8.79,144.52c1.98-.75,4.07-1.52,6.07-2.21,1.65-.56,3.43-1.25,5.21-1.18,3.33.11,6.48,1.57,9.55,2.72,7.06,2.93,12.99,3.25,19.96-.12,3.81-1.64,7.97-2.76,12.15-2.55,5.28.11,10.33,2.44,15.62,2.23,4.11-.32,7.6-2.94,11.28-4.55,10.47-4.92,15.22-.27,24.3,3.94,7.84,2.48,14.99-3.48,22.56-4.5,2.96-.51,6.01.17,8.68,1.47,2.48,1,5.16,1.79,7.81,2.18,6.63,1.15,13.33-1.01,19.96-.25,3.81.67,7.41,2.48,11.28,2.91"/><path class="b" d="M8.79,140.54c4.22-2.34,8.79-5.8,13.88-4.73,6.09,1.29,11.28,5.26,17.36,6.61,4.67,1.23,8.53,0,13.02-1.11,4.24-.98,8.67-1.35,13.02-1.11,4.6.18,9.38,1.02,13.89-.32,3.56-1.12,6.9-2.98,10.41-4.23,3.84-1.44,8.09-2.01,12.15-1.31,2.94.47,5.83,1.46,8.68,2.3,5.19,1.49,10.22-1.6,14.75-3.77,11.96-5.99,14.17-3.95,25.17,1.85,3.28,1.65,6.81,3.01,10.41,3.74,3.7.79,7.56.89,11.28,1.49,3.44.65,6.9,1.72,10.41,1.92"/><path class="b" d="M8.79,136.4c2.95-2.26,5.98-4.76,9.55-5.98,7.67-2.03,14.37,4.17,20.83,7.35,1.25.84,2.92.53,4.34.59,2.28,0,4.66,0,6.94,0,6.06,0,12.16,0,18.22,0,2.28-.01,4.66.03,6.94-.02,3.26-.45,6.47-1.48,9.55-2.62,8.49-3.34,15.94-5.36,25.17-4.91,3.38.3,6.63-1.11,9.55-2.66,5.85-3.12,12.15-7.32,19.09-5.87,6.23,1.26,10.66,6.31,15.62,9.89,4.05,3.04,8.75,5.72,13.89,6.19,4.9,0,9.85,0,14.75,0"/><path class="b" d="M8.79,132.32c3.39-2.83,6.84-6.15,11.28-7.15,8.01-1.67,14.51,4.61,20.83,8.47,9.83,0,19.68,0,29.51,0,3.45,0,6.96,0,10.41,0,1.39,0,2.95.01,4.34-.01.78-.22,1.83-.53,2.6-.77,5.83-1.76,11.56-3.98,17.36-5.84,3.11-1.12,6.53-1.47,9.55-2.85,6.17-2.95,11.92-7.87,19.09-7.79,12.02.34,16.08,9.46,24.3,16.24,1.06,1.26,2.87,1.02,4.34,1.01,1.69,0,3.52,0,5.21,0,5.19,0,10.43,0,15.62,0"/><path class="b" d="M8.79,128.24c5.99-5.04,12.63-9.82,20.83-7.05,4.84,1.58,8.82,4.99,13.02,7.74,9.25,0,18.52,0,27.77,0,4.9,0,9.85,0,14.75,0,2.28,0,4.66,0,6.94,0,1.45-.21,2.97-.89,4.34-1.37,3.84-1.48,7.56-3.39,11.28-5.13,1.95-.95,4.16-1.66,6.07-2.7,4.29-2.34,8.28-5.5,13.02-6.93,3.98-1.28,8.35-.69,12.15.9,2.06.88,4.33,1.75,6.07,3.19,4.22,3.52,7.29,8.29,11.28,12.04h26.9"/><path class="b" d="M8.79,123.89c6.81-4.52,14.97-9.5,23.43-6.91,4.72,1.36,8.77,4.34,13.02,6.69,1.49.97,3.52.42,5.21.56,2.87,0,5.81,0,8.68,0,8.09,0,16.21,0,24.3,0,2.57,0,5.24,0,7.81,0,1.69-.08,3.56.2,5.21-.19,3.88-1.08,7.64-2.75,11.28-4.45,2.29-1.09,4.8-2.02,6.94-3.4,5.75-3.64,11.84-8.59,19.09-7.38,3.36.52,6.55,2.03,9.55,3.57,2.32,1.41,4.27,3.56,6.07,5.56,1.09,1.23,2.38,2.72,3.47,3.95.91.96,1.93,2.64,3.47,2.34,8.96,0,17.94,0,26.9,0"/><path class="b" d="M8.79,119.51c1.23.16,2.43-.43,3.47-.99,1.09-.54,2.37-1.19,3.47-1.69,4.42-1.86,9.01-3.93,13.88-4.01,4.27-.09,8.38,1.5,12.15,3.35,1.69.82,3.49,1.74,5.21,2.48,1.05.45,2.31.98,3.47.86,4.03,0,8.12,0,12.15,0,8.67-.08,17.38.21,26.03-.23,4.04-.1,8.15-.14,12.15-.72,4.13-.63,8.31-1.64,12.15-3.29,7.25-3.7,13.72-11.04,22.56-9.83,9.33,1.26,13.57,8,19.96,13.87,1.35.39,2.95.14,4.34.21,1.98,0,4.09,0,6.07,0,5.77,0,11.58,0,17.36,0"/><path class="b" d="M8.79,114.8c.79,0,1.82,0,2.6,0,1.46-.33,2.94-1.12,4.34-1.63,3.15-1.14,6.31-2.49,9.55-3.36,5.53-1.63,11.37-.44,16.49,1.95,2.55,1.04,5.09,2.51,7.81,3.04,4.03,0,8.12,0,12.15,0,4.9,0,9.85,0,14.75,0,1.43-.24,2.93-.91,4.34-1.25,1.95-.53,4.06-.88,6.07-1.03,6.96-.59,13.87,1.25,20.83,1.06,4.57.05,8.5-2.13,12.15-4.66,5.38-3.59,11.39-8.03,18.22-6.84,5.49.94,9.71,5,13.88,8.38,6.8,5.5,4.44,4.22,13.02,4.35,6.06,0,12.16,0,18.22,0"/><path class="b" d="M8.79,109.65c8.7-2.45,17.68-7.72,26.9-4.71,3.9,1.14,7.5,3.24,11.28,4.69,2.16.85,4.67.32,6.94.46,3.74,0,7.54,0,11.28,0,3.16,0,6.39,0,9.55,0,1.83.16,3.52-1.04,5.21-1.58,2.79-1.07,5.72-2.09,8.68-2.57,5.88-1.09,11.72.69,17.36,2.16,2.52.6,5.26,1.04,7.81.41,6.59-1.76,11.78-6.76,18.22-8.89,3.05-1.05,6.52-1.23,9.55,0,4.23,1.9,8.15,4.58,12.15,6.91,1.67.99,3.5,2.04,5.21,2.97.93.71,2.36.62,3.47.6,6.93,0,13.9,0,20.83,0"/><path class="b" d="M8.79,101.54c5.66-1.81,11.34-4.13,17.36-4.36,5.28-.23,10.23,2.08,14.75,4.57,7.72,4.29,8.06,3.62,16.49,3.62,6.93-.03,13.9.06,20.83-.04,6.34-2.84,12.64-7.52,19.96-6.29,6.16.8,11.82,5.22,18.22,3.7,10.21-2.13,18.07-10.44,28.64-4.02,5.13,2.29,10.51,4.09,15.62,6.41,1.04.38,2.38.19,3.47.23,1.39,0,2.95,0,4.34,0,4.9,0,9.85,0,14.75,0"/><path class="b" d="M8.79,92.46c6.86-2.46,14.49-4.79,21.7-2.34,4.7,1.52,8.74,4.54,13.02,6.92,2.11,1.28,4.57,1.9,6.94,2.49.8.26,1.84.68,2.6,1.01.77.18,1.82.14,2.6.14,5.48,0,11.01,0,16.49,0,1.99,0,4.09,0,6.07,0,1.1-.06,2.47.22,3.47-.35,3.95-2.51,7.62-5.76,12.15-7.2,9.5-2.91,14.98,5.06,25.17,3.83,6.67-.42,13.23-3.42,19.96-2.22,2.74.48,5.14,2.18,7.81,2.89,2.53.77,5.23,1.27,7.81,1.86,1.71.29,3.48,1.11,5.21,1.18,7.8,0,15.63,0,23.43,0"/><path class="b" d="M8.79,84.04c6.18-1.67,12.75-2.9,19.09-1.36,5.03,1.2,9.43,4.13,13.88,6.64,1.62.9,3.42,1.8,5.21,2.31,1.39.34,3,.47,4.34,1.03,1.77.68,3.56,1.67,5.21,2.61.97.75,2.32.72,3.47.68,4.9,0,9.85,0,14.75,0,2.57-.06,5.25.14,7.81-.11.79-.56,1.84-1.36,2.6-1.95,3.42-2.64,6.99-5.52,11.28-6.51,6.07-1.5,11.6,2.3,17.36,3.49,6.81,1.66,13.91,1.04,20.83,1.77,2.34.28,4.77.84,6.94,1.77,1.62.75,3.35,1.78,5.21,1.54,12.14,0,24.31,0,36.45,0"/><path class="b" d="M8.79,76.26c8.05-.42,16.11.82,23.43,4.3,4.6,2.02,8.96,4.84,13.88,6.02,2.29.42,4.77.33,6.94,1.3,1.74.65,3.54,1.54,5.21,2.36.77.36,1.73.96,2.6.99,2.87,0,5.81,0,8.68,0,3.74,0,7.54,0,11.28,0,.9-.12,1.87-.88,2.6-1.36,1.41-.97,2.94-2.1,4.34-3.08,5.14-3.78,10.91-6.22,17.36-4.66,6.4,1.51,12.82,3.13,19.09,5.11,2.58.79,5.25,1.62,7.81,2.45,1.7.44,3.45,1.44,5.21,1.53,15.33,0,30.67,0,45.99,0"/><path class="b" d="M8.79,70.08c6.4,1.51,12.43,4.19,18.22,7.23,6.04,2.98,12.24,6.43,19.09,6.86,1.99.08,4.09-.26,6.07.06,2.93.38,5.83,1.27,8.68,2.02,1.06.36,2.37.28,3.47.28,1.99,0,4.09,0,6.07,0,2.28,0,4.66,0,6.94,0,2.15-.32,4.17-1.58,6.07-2.56,2.85-1.6,5.7-3.4,8.68-4.77,4.56-2.21,9.73-2.99,14.75-2.41,2.88.33,5.88.5,8.68,1.32,4.24,1.22,8.25,3.26,12.15,5.3,1.39.74,2.95,1.57,4.34,2.31.71.41,1.75.95,2.6.8,16.19,0,32.4,0,48.6,0"/><path class="b" d="M8.79,65.85c3.28,1.71,6.55,3.65,9.55,5.83,4.24,3.08,8.34,6.52,13.02,8.94.77.39,1.8.88,2.6,1.18,1.69,0,3.51,0,5.21,0,4.03,0,8.12,0,12.15,0,6.64-.09,13.33.18,19.96-.11,4.53-.4,8.89-1.93,13.02-3.76,7.15-3.17,14.68-5.8,22.56-6.13,2.28-.1,4.67-.33,6.94-.07,5.71.76,10.77,3.89,15.62,6.81,1.68,1.03,3.5,2.16,5.21,3.16,1.07.19,2.39.09,3.47.11,15.04,0,30.09,0,45.13,0"/><path class="b" d="M8.79,63.02c3.74,2.55,7.21,5.61,10.41,8.8,1.67,1.65,3.46,3.45,5.21,5.03,1.05.4,2.37.2,3.47.24,7.8,0,15.63,0,23.43,0,4.03,0,8.12,0,12.15,0,2.57-.08,5.27.24,7.81-.28,5.37-.75,10.44-2.79,15.62-4.31,8-2.26,16.07-4.48,24.3-5.75,7.18-1.05,13.89,2.71,19.96,6.08,2.54,1.42,5.16,2.92,7.81,4.14,1.07.18,2.39.09,3.47.11,13.59,0,27.2,0,40.79,0"/><path class="b" d="M8.79,60.1c4.6,3.32,8.41,7.66,12.15,11.88.75.51,1.75.42,2.6.41,1.4,0,2.94,0,4.34,0,8.67,0,17.37,0,26.03,0,7.51,0,15.05,0,22.56,0,2.67-.36,5.2-1.72,7.81-2.37,4.9-1.44,9.89-2.72,14.75-4.25,12.33-3.92,17.82-6,30.37-.55,5.95,2.64,11.86,5.55,18.22,7.1,11.84.21,23.73,0,35.58.08"/><path class="b" d="M8.79,56.71c4.33,2.93,7.86,6.92,11.28,10.82,2.25.34,4.67.07,6.94.15,4.03,0,8.12,0,12.15,0,11.85,0,23.73,0,35.58,0,1.99,0,4.09,0,6.07,0,1.1-.05,2.44.17,3.47-.27,7.64-2.34,15.07-5.34,22.56-8.11,7.26-2.74,15.32-2.33,22.56.25,3.51,1.17,6.97,2.67,10.41,4.03,3.48,1.29,7.02,2.6,10.41,4.09,10.99,0,21.99,0,32.98,0"/><path class="b" d="M8.79,54.35c3.56,2.24,6.7,5.22,9.55,8.31,1.03.51,2.36.26,3.47.31,1.4,0,2.94,0,4.34,0,4.61,0,9.27,0,13.88,0,7.8,0,15.63,0,23.43,0,7.8,0,15.63,0,23.43,0,7.3-1.48,14.03-4.8,20.83-7.72,9.2-3.84,18.83-2.24,27.77,1.51,4.94,1.98,9.97,3.89,14.75,6.22,10.99,0,21.99,0,32.98,0"/><path class="b" d="M8.79,51.82c3.16,1.72,5.87,4.24,8.68,6.43,17.06,0,34.14,0,51.2,0,4.32,0,8.7,0,13.02,0,5.28.17,10.68-.18,15.62-2.21,4.5-1.69,8.57-4.44,13.02-6.23,6.4-2.49,13.59-2.07,19.96.28,3.53,1.22,6.98,2.86,10.41,4.31,2.88,1.18,5.9,2.3,8.68,3.72,4.01.32,8.12.03,12.15.13,7.22,0,14.47,0,21.7,0"/><path class="b" d="M8.79,48.42c2.72,1.41,5.38,3.16,7.81,5.03,10.39.27,20.84,0,31.24.1,4.61,0,9.27,0,13.88,0,1.09,0,2.38,0,3.47,0,1.37-.43,2.92-.78,4.34-1,3.71-.56,7.54-.3,11.28-.37,2.59.07,5.23.56,7.81.68,10.1.65,15.09-5.65,23.43-9.07,6.26-2.42,13.19-1.03,19.09,1.73,4.62,2.08,9.07,4.68,13.88,6.3,1.7.51,3.44,1.51,5.21,1.74,10.99,0,21.99,0,32.98,0"/><path class="b" d="M8.79,43.98c2.04.89,4.14,1.97,6.07,3.08,1.11.55,2.22,1.61,3.47,1.77,6.64,0,13.32,0,19.96,0,7.22,0,14.47,0,21.7,0,2.45-1.39,5.07-2.73,7.81-3.44,3.96-1.1,8.15-.69,12.15-.07,2.92.44,5.77,1.55,8.68,2.04,6.98,1.46,12.87-2.55,18.22-6.47,7.65-5.85,15.17-5.47,23.43-1.09,3.78,1.9,7.4,4.27,11.28,5.97,3.05,1.31,6.39,2,9.55,2.97,10.68.28,21.42,0,32.11.1"/><path class="b" d="M8.79,38.87c2.65.8,5.31,1.86,7.81,3.05,1.69.71,3.39,1.9,5.21,2.21,10.41,0,20.84,0,31.24,0,.79,0,1.83.04,2.6-.15,1.38-.82,2.92-1.74,4.34-2.5,2.94-1.59,6.19-2.87,9.55-3.1,4.13-.29,8.24.88,12.15,2.09,3.62,1.28,7.36,2.94,11.28,2.62,13.67-1.65,16.65-18.02,34.71-10.25,4.78,2.08,9.1,5.19,13.89,7.24,4.18,1.71,8.78,2.23,13.02,3.77,1.32.52,2.95.19,4.34.28,1.98,0,4.09,0,6.07,0,6.06,0,12.16,0,18.22,0"/><path class="b" d="M8.79,33.46c4.86.24,9.38,2.18,13.88,3.81,2.52.87,5.17,1.71,7.81,2.14,1.69,0,3.51,0,5.21,0,3.15-.13,6.46.36,9.55-.44,4.03-.78,7.71-2.68,11.28-4.62,8.48-4.59,14.02-3.84,22.56-.1,4.05,1.46,7.81,4.02,12.15,4.58,13.06,1.35,17.75-15.59,33.84-12.4,5.61,1.14,10.5,4.38,15.62,6.78,5.13,2.21,10.57,3.77,15.62,6.19,8.96,0,17.94,0,26.9,0"/><path class="b" d="M8.79,28.24c4.86-.99,9.32.34,13.88,1.86,4.19,1.32,8.6,2.38,13.02,2.13,5.45-.32,10.75-2.25,15.62-4.63,4.56-2.43,9.38-5.4,14.75-4.89,3.74.31,7.19,2.13,10.41,3.95,2.26,1.31,4.73,2.46,6.94,3.86,2.95,1.78,6.06,3.73,9.55,4.19,2.02.03,4.18.11,6.07-.72,3.86-1.48,7.08-4.29,10.41-6.65,6.06-4.25,13.44-7.38,20.83-4.81,3.65,1.15,7.04,3.13,10.41,4.89,4.45,2.11,8.81,4.52,13.02,7.09,1.35.37,2.95.13,4.34.19,1.98,0,4.09,0,6.07,0,6.35,0,12.74,0,19.09,0"/><path class="b" d="M8.79,23.57c3.61-1.32,7.6-1.45,11.28-.32,11.63,3.65,16.83,4.03,27.77-1.93,5.29-2.64,10.22-7.25,16.49-6.91,4.23.24,7.93,2.71,11.28,5.09,2.5,1.87,5.32,3.47,7.81,5.36,2.45,1.81,4.99,3.76,7.81,4.98,1.37.29,2.95.11,4.34.16,1.69,0,3.52,0,5.21,0,2.49-.94,4.78-2.57,6.94-4.1,5.73-3.86,11.82-8.83,19.09-8.59,4.08.2,7.85,2.17,11.28,4.25,2.26,1.43,4.72,2.77,6.94,4.24,1.11.76,2.4,1.72,3.47,2.54.72.55,1.69,1.44,2.6,1.66,3.16,0,6.39,0,9.55,0,7.51,0,15.05,0,22.56,0"/><path class="b" d="M8.79,19.42c8.51-3.54,12.78.05,20.83,1.49,7.77,1.43,14.69-3.23,20.83-7.35,3.69-2.57,7.5-5.72,12.15-6.11,5.46-.39,9.92,3.51,13.88,6.75,2.21,1.88,4.75,3.54,6.94,5.43,2.46,1.99,4.91,4.32,7.81,5.65,1.39,0,2.95,0,4.34,0,2.57-.04,5.24.1,7.81-.07,7.61-3.96,16.03-13.62,25.17-11.62,3.88.83,7.25,3.23,10.41,5.52,2.58,1.92,5.44,3.64,7.81,5.82.69.44,1.82.36,2.6.35,1.08,0,2.39,0,3.47,0,3.45,0,6.97,0,10.41,0,4.9,0,9.85,0,14.75,0,.52-.13,1.37-.73,1.74-1.13,1.04-.91,2.35-1.95,3.47-2.74"/></svg>