<?xml version="1.0" encoding="UTF-8"?><svg id="a" xmlns="http://www.w3.org/2000/svg" width="1920" height="2400" viewBox="0 0 192 240"><defs><style>.b{fill:none;stroke:#fff;stroke-miterlimit:10;stroke-width:.4px;}.c{stroke-width:0px;}</style></defs><rect class="c" x="0" width="192" height="240"/><path class="b" d="M8.67,227.68c26.94,0,53.88,0,80.82,0,3.74-.05,7.56.11,11.3-.07,1.97-.91,4.06-1.84,6.08-2.62,3.1-1.23,6.46-1.92,9.56-3.13,4.39-1.64,8.68-3.68,13.03-5.39,3.34-1.3,6.85-2.46,10.43-2.88,7.12-.66,14.32.99,20.86,3.78,7.88,3.41,13.66,6.78,22.59,7.1"/><path class="b" d="M8.67,222.96c23.46,0,46.93,0,70.39,0,4.62-.05,9.29.11,13.9-.07,3.79-1.47,7.54-3.22,11.3-4.77,6.93-2.89,14.38-4.37,21.72-5.8,5.73-1.02,11.57-1.63,17.38-1.84,4.33-.2,8.73-.26,13.03.3,4.72.58,9.37,1.9,13.9,3.3,4.21,1.4,8.59,2.41,13.03,2.61"/><path class="b" d="M8.67,218.24c14.19,0,28.39,0,42.58,0,4.91,0,9.86,0,14.77,0,1.99,0,4.09,0,6.08,0,1.15.12,2.4-.39,3.48-.72,2.5-.81,5.23-.77,7.82-.99,3.5-.3,7.04-.94,10.43-1.89,7.58-2.08,14.73-5.82,22.59-6.83,4.59-.69,9.3-.61,13.9-.21,5.18.44,10.45,1.19,15.64.48,7.79-1.01,15.53-3.53,23.46-2.78,2.33.17,4.68.83,6.95,1.33,2.26.46,4.66.75,6.95.93"/><path class="b" d="M8.67,213.53h58.22c3.73-2.31,7.65-5.02,12.17-5.27,2.58.04,5.24.32,7.82.3,3.79.02,7.63-.47,11.3-1.41,3.8-.95,7.52-2.38,11.3-3.42,3.67-.95,7.5-1.59,11.3-1.64,5.29-.11,10.5,1.18,15.64,2.23,4.29.96,8.81,1.02,13.03-.29,7.83-2.07,15.08-7.5,23.46-6.75,3.43.65,6.94,1.35,10.43,1.61"/><path class="b" d="M8.67,208.81c15.93,0,31.87,0,47.79,0,2.28,0,4.67,0,6.95,0,1.57-.51,2.94-1.88,4.35-2.72,4.79-3.24,8.81-5.69,14.77-4.18,5.44.98,11.1,1.28,16.51-.05,3.21-.72,6.38-1.84,9.56-2.69,4.27-.96,8.66-1.79,13.03-2.12,3.77-.25,7.61.21,11.3,1.01,3.43.71,6.91,1.73,10.43,1.84,5.89.15,11.38-2.54,16.51-5.14,3.83-1.88,7.81-4.08,12.17-4.25,1.41-.04,2.96.32,4.34.54,2.27.37,4.66.67,6.95.88"/><path class="b" d="M8.67,204.09c5.49,0,11.02,0,16.51,0,1.74.04,3.48-.91,5.21-1.09,2.57-.44,5.3-.29,7.82.35.79.19,1.83.52,2.61.74,1.99,0,4.09,0,6.08,0,4.33,0,8.71,0,13.03,0,4.99-2.48,9.4-6.28,14.77-7.95,3.15-1.12,6.43-.07,9.56.58,3.4.71,6.96,1.09,10.43.74,4.46-.4,8.73-1.98,13.03-3.11,2.54-.68,5.27-.77,7.82-1.38,9.7-2.37,14.62-2.27,24.33-.11,6.75,1.53,13.74.1,19.99-2.64,3.93-1.56,7.89-3.56,12.17-3.84,3.76.07,7.53.95,11.3,1.08"/><path class="b" d="M8.67,199.37c2.58,0,5.24,0,7.82,0,1.69-.11,3.59.27,5.21-.26,2.57-1.05,5.16-2.35,7.82-3.17,3.06-.98,6.41-1.17,9.56-.53,8.27,1.94,11.29,4.32,19.99.79,6.3-2.38,12.13-7.1,19.12-7.02,2.32.2,4.65.96,6.95,1.29,3.71.64,7.59.67,11.3-.04,4.1-.73,8.07-2.3,12.17-3.04,1.68-.32,3.53-.23,5.21-.46,2.6-.34,5.24-.98,7.82-1.42,3.7-.67,7.56-.87,11.3-.38,4.36.58,8.66,1.76,13.03,2.25,4.01.56,8.15.65,12.17.07,4.36-.57,8.65-1.91,13.03-2.27,4.04-.14,8.12.62,12.17.46"/><path class="b" d="M8.67,194.65c3.45,0,6.97,0,10.43,0,1.86-.25,3.57-1.51,5.21-2.35,2.23-1.27,4.55-2.61,6.95-3.52,3.57-1.43,7.55-1.58,11.3-.84,8.46,2.05,13.74,1.28,21.72-2.01,3.95-1.56,7.91-3.49,12.17-4.06,2.3-.34,4.67.2,6.95.43,2.86.32,5.82.45,8.69.25,5.86-.31,11.52-2.32,17.38-2.61,1.69-.02,3.52.18,5.21-.02,3.19-.32,6.38-1.1,9.56-1.49,4.32-.6,8.78-.31,13.03.61,2.87.67,5.89,1.16,8.69,2.08,4.02,1.39,7.98,3.2,12.17,4.09,4.26.98,8.71.8,13.03.46,4.07-.13,8.2-.43,12.17-1.42"/><path class="b" d="M8.67,189.94c3.75,0,7.55,0,11.3,0,.56.05,1.31-.27,1.74-.59,1.12-.69,2.4-1.57,3.48-2.32,2.72-1.9,5.56-3.84,8.69-4.99,4.17-1.64,8.71-1.09,13.03-.53,2.86.26,5.84.23,8.69-.12,4.2-.52,8.28-1.95,12.17-3.58,3.38-1.38,6.8-3,10.43-3.56,4.89-.37,9.87-.09,14.77-.33,4.62-.12,9.29-.41,13.9-.21,2.88.07,5.8.84,8.69.53,10.97-1.46,14.81-2.82,26.07.56,5.62,1.32,9.82,5.71,14.77,8.42,4.14,2.49,9.1,3.65,13.9,2.86,2-.31,4.15-.65,6.08-1.26,2.36-.79,4.71-1.94,6.95-3.01"/><path class="b" d="M8.67,185.22c4.61-.1,9.31.2,13.9-.12,2.85-2.1,5.62-4.49,8.69-6.26,3.12-1.86,6.79-2.88,10.43-2.75,9.39.64,17.51.9,26.07-3.72,3.44-1.7,6.78-3.83,10.43-5.06,5.05-1.38,10.45-1.55,15.64-.97,5,.57,9.91,1.97,14.77,3.21,6.17,2.07,12,.22,18.25.06,4.12-.12,8.27.69,12.17,1.99,2.02.71,4.25,1.27,6.08,2.42,3.72,2.38,6.83,5.71,10.43,8.26,1.83,1.21,3.87,2.65,6.08,2.96,2.58,0,5.25,0,7.82,0,2.36-.66,4.79-1.57,6.95-2.73,2.38-1.36,4.68-3.08,6.95-4.61"/><path class="b" d="M8.67,180.5c5.2-.04,10.45.08,15.64-.05,4.07-3.3,8.53-6.77,13.9-7.38,2.87-.37,5.82.06,8.69.17,6.87-.06,13.06-.28,19.12-3.94,4.19-2.34,7.89-5.58,12.17-7.77,4.84-2.28,10.54-2.66,15.64-1.08,6.39,1.81,11.81,6.13,18.25,7.76,3.99.84,8.13.24,12.17.32,4.13.01,8.29.8,12.17,2.22,2.6,1,5.34,2,7.82,3.28,2.81,1.71,5.25,4.11,7.82,6.14.7.42,1.82.34,2.61.33,1.39,0,2.95,0,4.35,0,4.33,0,8.71,0,13.03,0,0,0,.87,0,.87,0l.87-.47c.8-.44,1.87-1.13,2.61-1.67,2.34-1.74,4.61-3.78,6.95-5.52"/><path class="b" d="M8.67,175.78c5.78,0,11.6.01,17.38,0,4.93-3.96,10.11-6.17,16.51-5.3,2.87.39,5.81.39,8.69.15,2.6-.1,5.31-.32,7.82-1.05,6.4-1.79,11.32-6.55,16.51-10.44,10.79-8.08,19.11-3.04,28.68,3.73,8.54,6.34,14.04,3.84,23.46,5.74,3.92.8,7.7,2.39,11.3,4.11,1.99.99,4.22,1.82,6.08,3.05,9.26-.03,18.56.14,27.81-.06,3.66-2.39,6.83-5.57,10.43-8.05"/><path class="b" d="M8.67,171.06c4.04,0,8.13,0,12.17,0,2.24-.12,4.79.28,6.95-.23,2.58-1.81,5.54-3.32,8.69-3.8,3.16-.51,6.4.07,9.56.31,1.7.13,3.52-.11,5.21-.13,2.89-.05,5.89-.16,8.69-.92,4.52-1.19,8.47-3.94,12.17-6.71,4.28-3.34,9.11-6.71,14.77-6.61,9.92.02,16.26,9.26,25.2,11.98,4.84,1.22,9.94,1.23,14.77,2.49,2.34.58,4.73,1.4,6.95,2.33,1.36.54,2.82,1.47,4.34,1.28,11.29-.05,22.61.1,33.89-.06,3.65-2.53,7.39-5.53,11.3-7.58"/><path class="b" d="M8.67,166.34c5.2,0,10.44,0,15.64,0,1.7,0,3.52,0,5.21,0,1.71-.73,3.41-1.81,5.21-2.33,3.63-1.23,7.54-.93,11.3-.73,1.7.07,3.52-.15,5.21-.07,2.28.07,4.67.26,6.95.13,11.76-.31,18.04-11.05,29.55-11.12,7.64-.04,13.68,5.31,19.99,8.87,5.36,2.88,11.61,3.52,17.38,5.23,7.81.07,15.65,0,23.46.02,6.65-.08,13.35.16,19.99-.1,2.38-1.81,5.06-3.35,7.82-4.49,2.21-1.02,4.56-2.04,6.95-2.55"/><path class="b" d="M8.67,161.63c8.1,0,16.23,0,24.33,0,1.17.14,2.38-.61,3.48-.92,1.37-.44,2.92-.77,4.35-.94,1.98-.24,4.09-.24,6.08-.28,1.99-.11,4.1-.12,6.08.12,7.24,1.02,12.63.45,19.12-3.08,2.83-1.46,5.66-3.18,8.69-4.2,8.1-3.11,14.5-1.65,21.72,2.74,3.33,1.96,6.7,4.09,10.43,5.23,1.4.4,2.87,1.36,4.34,1.33,6.65,0,13.34,0,19.99,0,7.52,0,15.07,0,22.59,0,3.72-1.76,7.35-3.94,11.3-5.19,3.91-1.13,8.12-1.41,12.17-1.21"/><path class="b" d="M8.67,156.91c11,0,22.02,0,33.02,0,2.87-.11,5.81-.63,8.69-.46,2.87.21,5.8.59,8.69.46,4.25.28,8.41-1.17,12.17-3.05,5.94-3.16,12.25-6.37,19.12-6.57,6.76-.16,12.5,3.92,18.25,6.9,1.34.7,2.94,1.26,4.34,1.82.76.31,1.76.87,2.61.9,5.2,0,10.44,0,15.64,0,5.49,0,11.02,0,16.51,0,1.22-.28,2.4-1.24,3.48-1.85,1.95-1.21,4.03-2.49,6.08-3.53,8.75-4.76,17.09-2.87,26.07,0"/><path class="b" d="M8.67,152.19c16.8,0,33.61,0,50.4,0,2.57-.11,5.29.25,7.82-.18,1.43-.69,2.98-1.57,4.34-2.39,3.56-2.23,7.21-4.46,11.3-5.58,3.6-1.23,7.49-2.08,11.3-1.52,5.04.69,9.47,3.49,13.9,5.79,2.8,1.44,5.93,2.33,8.69,3.87,3.16.04,6.4,0,9.56.01,4.04,0,8.13,0,12.17,0,1.21-.21,2.39-1.13,3.48-1.65,1.46-.73,3.05-1.63,4.34-2.63,4.56-3.36,8.9-7.89,14.77-8.64,3.98-.49,7.81,1.28,11.3,3,3.83,1.67,7.53,3.8,11.3,5.6"/><path class="b" d="M8.67,147.47c17.09,0,34.18,0,51.27,0,2.58,0,5.24,0,7.82,0,1.61-.54,2.96-2.02,4.34-2.96,3.11-2.51,6.53-4.75,10.43-5.81,3.87-1.36,8.08-2.22,12.17-1.43,4.67.83,8.81,3.37,13.03,5.39,1.9.97,4.11,1.49,6.08,2.29,1.99.81,4.04,1.85,6.08,2.53,1.99,0,4.1,0,6.08,0,1.69,0,3.52,0,5.21,0,2.52-.73,4.78-2.44,6.95-3.87,1.94-1.41,4.09-2.75,6.08-4.08,2.36-1.73,4.6-3.83,6.95-5.56,7.14-5.47,12.43-3.65,19.12,1.37,1.89,1.43,4.07,2.67,6.08,3.91,2.27,1.47,4.59,3.1,6.95,4.41"/><path class="b" d="M8.67,142.75h59.96c3.14-2.69,5.97-5.93,9.56-8.05,3.72-1.86,7.99-3.04,12.17-2.92,6.37.21,11.74,4.06,17.38,6.56,2.18,1.01,4.69,1.26,6.95,2,3.35,1.04,6.87,2.19,10.43,1.89,5.31-.39,9.75-3.75,13.9-6.78,1.63-1.24,3.52-2.38,5.21-3.51,1.73-1.24,3.5-2.72,5.21-3.98,7.64-5.93,12.96-4.3,19.99,1.47,2.14,1.79,4.59,3.35,6.95,4.83,2.29,1.55,4.61,3.29,6.95,4.76"/><path class="b" d="M8.67,138.03h59.09c3.73-3.32,6.78-7.69,11.3-10.06,9.7-4.59,16.97.42,25.2,5.2,1.62.88,3.42,1.75,5.21,2.19,1.37.33,2.96.3,4.34.52,2.85.41,5.79.97,8.69.81,5.95-.22,11.02-3.78,15.64-7.19,3.07-2.31,6.56-4.14,9.56-6.55,8.64-6.81,13.79-5.5,21.72,1.44,2.12,1.88,4.57,3.54,6.95,5.07,2.3,1.59,4.62,3.36,6.95,4.9"/><path class="b" d="M8.67,133.32h58.22c5.19-5.03,10.43-11.78,18.25-12.08,6.13-.22,11.41,3.48,16.51,6.4,2.42,1.37,5.03,2.78,7.82,3.16,1.39.17,2.95-.09,4.34-.07,2.28,0,4.67.09,6.95-.09,6.51-.35,12.18-3.96,17.38-7.58,3.08-2.14,6.58-3.78,9.56-6.07,8.87-6.67,13.99-4.77,21.72,2.25,2.11,1.94,4.53,3.7,6.95,5.24,2.28,1.56,4.63,3.25,6.95,4.75"/><path class="b" d="M8.67,128.6c15.35,0,30.71,0,46.06,0,3.45,0,6.97,0,10.43,0,1.53-.8,2.93-2.18,4.34-3.17,8.41-6.25,14.65-10.42,25.2-5.96,3.19,1.25,6.31,2.91,9.56,4.02,1.91.65,4.05,1.1,6.08.9,1.69-.28,3.5-.62,5.21-.74,5.35-.31,10.8-1.1,15.64-3.54,2.96-1.4,5.83-3.19,8.69-4.79,1.97-1.11,4.21-1.99,6.08-3.26,6.07-4.15,11.39-7.29,18.25-2.41,3.1,2.12,5.75,4.95,8.69,7.27,3.34,2.38,6.87,4.64,10.43,6.68"/><path class="b" d="M8.67,123.88c15.06,0,30.13,0,45.19,0,10.5,0,6.19.6,15.64-3.23,4.06-1.57,8.15-3.24,12.17-4.92,3.3-1.21,6.93-1.57,10.43-1.28,4.95.35,9.8,1.91,14.77,1.94,3.24.06,6.34-1.35,9.56-1.56,3.17-.33,6.44-.55,9.56-1.23,3.6-.75,7.1-2.13,10.43-3.65,2.81-1.39,5.88-2.44,8.69-3.82,2.55-1.38,5.06-3.09,7.82-4.03,7.83-2.89,13.85,4.5,19.12,9.11,3.37,2.8,7.33,4.98,11.3,6.82"/><path class="b" d="M8.67,119.16c14.19,0,28.39,0,42.58,0,1.09,0,2.38,0,3.48,0,2.25-.79,4.6-1.62,6.95-2.1,4.29-.95,8.75-1.23,13.03-2.17,2.71-.53,5.3-1.74,7.82-2.81,2.23-.9,4.62-1.69,6.95-2.27,6.25-1.65,12.81-1.58,19.12-2.85,2.29-.51,4.6-1.39,6.95-1.55,4.03-.37,8.16-.18,12.17-.79,5.08-.67,9.9-2.65,14.77-4.13,3.01-.83,5.74-2.62,8.69-3.63,9.22-3.63,15.57,5.75,21.72,10.94,3.11,2.42,6.73,4.29,10.43,5.63"/><path class="b" d="M8.67,114.44c8.97,0,17.97,0,26.94,0,4.04,0,8.13,0,12.17,0,2.22-1.22,4.54-2.49,6.95-3.3,6.11-2.28,12.73-1.76,19.12-2.16,3.33-.18,6.52-1.34,9.56-2.63,9.09-3.82,18.3-7.44,27.81-10.09,5.68-1.62,11.61.18,17.38.14,3.78.08,7.6-.45,11.3-1.16,3.32-.44,6.44-1.47,9.56-2.64,10.46-3.94,16.32,4.81,23.46,10.65,3.17,2.32,6.77,4.18,10.43,5.61"/><path class="b" d="M8.67,109.73c11,0,22.02,0,33.02,0,.91.12,1.94-.28,2.61-.89,1.06-.74,2.34-1.57,3.48-2.18,3.59-1.82,7.37-3.48,11.3-4.41,5.39-1.37,11.01-.87,16.51-1,2.95-.07,5.9-.82,8.69-1.73,6.07-1.97,11.7-5.11,17.38-7.95,4.35-2.07,8.96-4.47,13.9-4.26,5.3.3,10.4,2.16,15.64,2.83,4.29.59,8.73.65,13.03.21,2.6-.41,5.2-1.28,7.82-1.6,7.61-1.24,13.66,4.42,19.12,8.86,3.7,2.83,7.98,4.96,12.17,6.99"/><path class="b" d="M8.67,105.01c9.55,0,19.13,0,28.68,0,2.31.1,2.58-.03,4.34-1.43,1.35-.96,2.88-1.98,4.34-2.76,2.21-1.14,4.71-1.88,6.95-2.95,4.94-2.26,10.15-4.32,15.64-4.59,3.74-.27,7.55.19,11.3.03,4.14-.18,8.31-1.02,12.17-2.56,3.9-1.52,7.59-3.66,11.3-5.59,3.97-2.15,8.45-3.88,13.03-3.14,7.93,1.2,15.41,4.64,23.46,5.25,6.07.98,12.25-1.49,18.25.24,4.86,1.3,8.93,4.49,13.03,7.25,3.88,2.47,8.09,4.52,12.17,6.65"/><path class="b" d="M8.67,100.29c9.26,0,18.55,0,27.81,0,1.28-.08,2.39-1.27,3.48-1.85,2.18-1.39,4.51-2.79,6.95-3.66,5.63-1.2,10.38-4.66,15.64-6.82,10.32-4.63,19.23.62,29.55-1.6,6.43-1.23,11.88-5.42,18.25-6.77,4.36-.63,8.81.33,13.04,1.34,4.89,1.22,9.8,2.6,14.77,3.48,2.27.39,4.65.81,6.95.93,4.35.13,8.84,0,13.03,1.35,4.7,1.41,8.85,4.2,13.03,6.68,3.93,2.18,8.09,4.09,12.17,5.97"/><path class="b" d="M8.67,95.57c8.68,0,17.39,0,26.07,0,4.19-2.24,8.29-5.1,13.03-6,4.84-.44,8.83-3.61,13.03-5.75,13.94-7.79,20.8.72,33.89-1.04,5.09-.72,9.72-3.37,14.77-4.23,4.92-.41,9.9.56,14.77,1.19,5.77.88,11.6,1.71,17.38,2.54,3.15.52,6.42.7,9.56,1.24,3.29.56,6.56,1.62,9.56,3.08,5.62,2.73,10.65,6.67,16.51,8.91,1.98.12,4.1.03,6.08.05"/><path class="b" d="M8.67,90.85c5.49,0,11.02,0,16.51,0,1.7,0,3.52,0,5.21,0,1.12-.07,2.52.27,3.48-.47,3.93-2.11,7.8-4.67,12.17-5.78,1.38-.36,2.96-.28,4.35-.55,4.56-1.03,8.6-3.7,13.03-5.11,7.39-2.75,15.17-.3,22.59.99,3.72.64,7.62.57,11.3-.3,4.07-.88,7.99-2.72,12.17-3.04,2.59-.04,5.24.48,7.82.62,4.32.35,8.7.49,13.03.6,8.15.28,16.61.31,24.33,3.25,5.39,2.12,10.04,5.72,14.77,8.97,1.39,1.26,3.51.71,5.21.82,2.87,0,5.82,0,8.69,0"/><path class="b" d="M8.67,86.13c5.2,0,10.44,0,15.64,0,1.7,0,3.52,0,5.21,0,1.12-.07,2.51.26,3.48-.44,4.22-2.19,8.34-4.96,13.03-6.02,1.97-.39,4.12-.17,6.08-.61,6-1.29,12.03-3.18,18.25-2.55,3.46.24,6.95.94,10.43,1.02,4.03.24,8.16.5,12.17-.18,4.73-.69,9.21-2.65,13.9-3.53,1.98-.4,4.1-.21,6.08.11,1.98.21,4.09.24,6.08.18,7.8-.34,15.68-1.25,23.46-.12,5.91.65,11.59,2.84,16.51,6.16,1.74,1.14,3.56,2.47,5.21,3.73,1.31.88,2.6,2.52,4.35,2.24,4.91,0,9.86,0,14.77,0"/><path class="b" d="M8.67,81.42c4.91,0,9.86,0,14.77,0,1.7,0,3.52,0,5.21,0,1.1-.05,2.43.17,3.48-.26,5.07-2.24,10-5.52,15.64-6,3.17,0,6.4-.31,9.56-.51,6.38-.56,12.75.63,19.12.79,2.01.03,4.1-.41,6.08-.69,3.17-.43,6.43-.85,9.56-1.52,4.95-.97,9.76-2.8,14.77-3.45,2-.29,4.1.02,6.08.28,1.99.15,4.11-.03,6.08-.29,4.31-.59,8.67-1.34,13.03-1.18,5.27.23,10.58,1.21,15.64,2.69,6.7,2.08,12.58,6.12,18.25,10.14h17.38"/><path class="b" d="M8.67,76.7c4.91,0,9.86,0,14.77,0,2.57-.11,5.29.26,7.82-.19,3.78-1.27,7.49-2.92,11.3-4.1,4.46-1.51,9.27-1.05,13.9-1.07,6.07.04,12.18,1.08,18.25.48,3.33-.27,6.38-1.9,9.56-2.78,4.27-1.22,8.68-2.09,13.03-2.9,3.42-.61,6.94-1.18,10.43-1.17,2.59,0,5.23.75,7.82.34,8.33-1.34,13.17-2.96,21.72-.22,4.3,1.4,8.75,2.49,13.03,3.96,5.39,1.83,10.65,4.17,15.64,6.91.93.73,2.34.83,3.48.75,1.08,0,2.39,0,3.48,0,3.45,0,6.98,0,10.43,0"/><path class="b" d="M8.67,71.98c6.94-.05,13.92.11,20.86-.06,4.39-.81,8.71-2.13,13.03-3.17,4.81-1.26,9.85-.93,14.77-.99,6.71-.02,13.75.12,19.99-2.7,1.76-.77,3.46-1.97,5.21-2.76,1.91-.88,4.03-1.56,6.08-1.99,5.7-1.17,11.61-1.01,17.38-.55,2.59.13,5.23.82,7.82.72,8.79-1.13,12.65-3.57,21.72.43,3.39,1.52,6.8,3.23,10.43,4.12,5.4,1.52,11.04,2.11,16.51,3.31,2.34.52,4.75,1.24,6.95,2.19,1.1.41,2.28,1.34,3.48,1.45,3.45,0,6.98,0,10.43,0"/><path class="b" d="M8.67,67.26c7.23-.09,14.51.18,21.72-.11,5.55-.55,10.98-2.06,16.51-2.71,9.11-.51,18.55-1,26.94-4.94,3.1-1.31,5.76-3.54,8.69-5.15,9.78-4.93,20.36.95,30.41,1.57,4.37-.16,8.62-1.95,13.03-1.6,7.72.33,13.4,6.71,20.86,7.99,6.01,1.27,12.19-.04,18.25.37,2.37.18,4.82.76,6.95,1.83,1.5.71,2.89,1.97,4.34,2.74,2.28,0,4.67,0,6.95,0"/><path class="b" d="M8.67,62.54c7.81-.01,15.65.02,23.46-.01,4.05-.58,8.11-1.44,12.17-2.01,3.44-.49,7.02-.31,10.43-1.07,8.69-1.76,16.96-5.52,24.33-10.4,6.38-5.1,13.9-2.91,20.86-.43,3.95,1.34,7.99,2.75,12.17,3.14,2.02.1,4.12-.35,6.08-.77,3.39-.77,6.97-1.36,10.43-.69,7.09,1.34,12.68,6.92,19.99,7.56,10.09,1.32,19.04-2.64,27.81,4.68h6.95"/><path class="b" d="M8.67,57.82c6.94,0,13.91,0,20.86,0,4.6-.91,9.21-2.18,13.9-2.57,2.86-.37,5.85.07,8.69-.47,7.56-1.59,14.13-6.04,20.86-9.64,2.87-1.51,5.69-3.36,8.69-4.6,4.97-1.64,10.13.58,14.77,2.31,5.27,2.03,10.79,4.06,16.51,4.08,2.02-.1,4.12-.62,6.08-1.07,4.83-1.27,10.04-1.52,14.77.27,4.07,1.46,7.95,3.58,12.17,4.64,5.95,1.75,12.18,2.37,18.25,3.57,2.33.48,4.75,1.14,6.95,2.05,1.11.4,2.3,1.27,3.48,1.44,2.87,0,5.82,0,8.69,0"/><path class="b" d="M8.67,53.11c6.65,0,13.34,0,19.99,0,3.84-1.74,7.96-3.09,12.17-3.54,3.16-.45,6.4.04,9.56.05,3.41-.28,6.6-1.87,9.56-3.49,3.48-1.94,6.91-4.14,10.43-6.02,2.22-1.19,4.6-2.31,6.95-3.2,1.64-.6,3.44-1.31,5.21-1.35,4.24-.06,8.22,1.88,12.17,3.2,4.17,1.51,8.6,2.45,13.03,2.61,3.18.2,6.45.16,9.56-.6,4.82-1.09,9.88-1.9,14.77-.78,3.55.73,6.96,2.2,10.43,3.23,8.01,2.31,15.66,5.76,23.46,8.66,1.08.39,2.35.99,3.48,1.23,1.39,0,2.96,0,4.35,0,3.16,0,6.4,0,9.56,0"/><path class="b" d="M8.67,48.39c6.36,0,12.76,0,19.12,0,1.22-.28,2.36-1.29,3.48-1.82,1.35-.73,2.89-1.44,4.35-1.93,3.6-1.26,7.54-1.43,11.3-.89,4.61,1.18,9.09-.9,13.03-3.14,3.94-2.19,7.88-4.6,12.17-6.09,9-3.03,11.61-1.22,19.99,1.43,3.64,1.09,7.54,1.4,11.3.88,2-.25,4.09-.67,6.08-.94,1.69-.21,3.53-.27,5.21-.52,5.15-.79,10.47-1.48,15.64-.47,3.23.57,6.42,1.64,9.56,2.58,2.59.74,5.34,1.27,7.82,2.35,5.39,2.21,10.42,5.3,15.64,7.88.96.65,2.35.75,3.48.68,1.39,0,2.96,0,4.35,0,4.04,0,8.13,0,12.17,0"/><path class="b" d="M8.67,43.67c4.33,0,8.71,0,13.03,0,1.4,0,2.95,0,4.35,0,.83,0,1.89.1,2.61-.39,2.82-2.24,6.02-4.24,9.56-5.08,2.53-.61,5.26-.58,7.82-.2,2.6.52,5.25.88,7.82,0,8.8-2.97,15.16-8.37,25.2-6.79,5.59.83,10.7,4.33,16.51,3.86,4.63-.21,8.78-2.6,13.03-4.18,7.02-2.1,14.75-1.97,21.72.27,3.2.98,6.37,2.29,9.56,3.28,2.26.7,4.74,1.05,6.95,1.91,4.83,1.78,9.33,4.45,13.9,6.77.95.69,2.37.51,3.48.53,1.69,0,3.52,0,5.21,0,4.62,0,9.29,0,13.9,0"/><path class="b" d="M8.67,38.95c4.33,0,8.71,0,13.03,0,1.4,0,2.95,0,4.35,0,.83,0,1.88.1,2.61-.38,2.79-2.39,5.98-4.56,9.56-5.55,2.23-.62,4.66-.74,6.95-.53,1.99.15,4.08.7,6.08.47,2.68-.28,5.3-1.26,7.82-2.16,7.87-3.12,14.57-3.99,22.59-.73,3.61,1.47,7.31,3.32,11.3,3.32,6.62.09,11.6-4.95,17.38-7.36,5.05-1.81,10.7-1.39,15.64.55,4.8,1.78,9.16,4.64,13.9,6.54,2.8,1.06,5.87,1.55,8.69,2.58,3.2.96,6.32,2.47,9.56,3.25,8.39,0,16.81,0,25.2,0"/><path class="b" d="M8.67,34.23h20.86c4.64-3.53,9.62-6.54,15.64-6.56,2.88,0,5.86.31,8.69-.47,6.25-1.54,12.58-3.96,19.12-2.95,3.28.45,6.55,1.49,9.56,2.87,3.81,1.79,7.84,3.82,12.17,3.51,9.75-.68,15.56-11.57,26.07-8.27,7.18,2.1,12.51,7.84,19.12,11.09,1.82,1.1,4.06.74,6.08.79,3.16,0,6.4,0,9.56,0,9.26,0,18.55,0,27.81,0"/><path class="b" d="M8.67,29.51c5.2,0,10.44,0,15.64,0,1.7,0,3.52,0,5.21,0,1.12-.07,2.53.28,3.48-.48,3.89-2.79,8.25-5.24,13.03-5.99,2.28-.32,4.69-.3,6.95-.74,5.45-.94,10.94-2.32,16.51-2.07,4.14.17,8.32,1.05,12.17,2.6,6.59,3.07,12.52,6.97,19.99,3.9,2.75-1.06,5.33-2.72,7.82-4.26,2.07-1.34,4.42-2.61,6.95-2.67,6.94-.05,12.2,5.47,17.38,9.38.71.41,1.82.33,2.61.33,1.08,0,2.39,0,3.48,0,3.74,0,7.55,0,11.3,0,10.71,0,21.44,0,32.15,0"/><path class="b" d="M8.67,24.8h26.07c10.13-7.03,12.13-7.18,24.33-7.99,7.28-.34,14.69.23,21.72,2.17,3.04,1.01,5.83,2.79,8.69,4.2,1.06.53,2.36,1.11,3.48,1.52,1.68.22,3.52.06,5.21.11,1.69,0,3.52,0,5.21,0,.85-.01,1.86-.53,2.61-.89,2.76-1.27,5.08-3.49,7.82-4.79,6.41-2.81,12.37,2.26,17.38,5.67h52.14"/><path class="b" d="M8.67,20.08c8.97,0,17.97,0,26.94,0,1.33,0,2.39-1.38,3.48-2.02,2.18-1.57,4.5-3.2,6.95-4.31,6.34-2.67,13.46-1.01,19.99.03,5.18,1.04,10.52,1.59,15.64,2.85,1.78.6,3.58,1.56,5.21,2.47.74.4,1.7,1.16,2.61.98,7.23-.08,14.51.15,21.72-.09,5.06-4.57,10.85-4.04,16.51-.95.44.23,1.3.7,1.74.94,1.39.18,2.95.06,4.34.09,2.58,0,5.24,0,7.82,0,13.9,0,27.81,0,41.71,0"/></svg>