<?xml version="1.0" encoding="UTF-8"?><svg id="a" xmlns="http://www.w3.org/2000/svg" width="1920" height="2400" viewBox="0 0 192 240"><defs><style>.b{fill:none;stroke:#fff;stroke-miterlimit:10;stroke-width:.4px;}.c{stroke-width:0px;}</style></defs><rect class="c" x="0" width="192" height="240"/><path class="b" d="M8.52,220.46c3.75-.16,7.59.16,11.32-.36,11.27-2.29,15.48,2.37,22.63,10.02,34.81,0,69.63,0,104.45,0,1.69,0,3.53,0,5.22,0,1.19-.08,2.37-.97,3.48-1.35,1.9-.76,4.04-1.27,6.09-1.27,2.05,0,4.19.5,6.09,1.24,1.11.39,2.32,1.18,3.48,1.38,4.04,0,8.14,0,12.19,0"/><path class="b" d="M8.52,217.84c3.75.12,7.61.34,11.32-.37,10.83-2.73,15.18.49,22.63,7.93,29.01,0,58.03,0,87.04,0,7.24,0,14.52,0,21.76,0,2.54-1.11,5.08-2.53,7.83-3.08,3.16-.73,6.56-.35,9.57.79,1.11.41,2.42,1,3.48,1.53.7.41,1.77.89,2.61.76,2.87,0,5.83,0,8.7,0"/><path class="b" d="M8.52,215.36c14.2.14,19.1-5.94,31.33,5.19,6.35.34,12.78.02,19.15.13,11.89,0,23.8,0,35.69,0,7.24,0,14.52,0,21.76,0,1.12,0,2.38-.49,3.48-.65,1.97-.35,4.1-.44,6.09-.26,1.72.14,3.55.52,5.22.91,3.75,0,7.56,0,11.32,0,2.87-.07,5.85.15,8.7-.11,1.68-.82,3.5-1.73,5.22-2.47,7.85-3.6,14.84-2.33,21.76,2.58h5.22"/><path class="b" d="M8.52,212.95c11.1-1.94,17.07-4.31,26.98,3,22.92,0,45.84,0,68.76,0,1.69-.05,3.55.13,5.22-.13.76-.32,1.82-.68,2.61-.9,4.22-1.32,8.59-2.68,13.06-2.5,4.85.08,9.39,2.05,13.93,3.52,2.58,0,5.25,0,7.83,0,1.39-.03,2.96.07,4.35-.08.78-.3,1.85-.73,2.61-1.07,6.44-2.94,13.93-6.46,20.89-3.09,2.23,1.02,4.08,2.89,6.09,4.24h2.61"/><path class="b" d="M8.52,210.59c6.86-2.39,12.21-4.38,19.15-.73.8.4,1.77,1.07,2.61,1.36,1.4,0,2.95,0,4.35,0,3.17,0,6.41,0,9.57,0,15.95,0,31.92,0,47.87,0,3.75,0,7.56,0,11.32,0,2.03-.95,3.92-2.5,6.09-3.18,1.36-.48,2.96-.66,4.35-1.02,1.99-.48,4.08-1.06,6.09-1.44,4.32-.9,8.89-.66,13.06.79,3.87,1.23,7.45,3.39,11.32,4.6,8.96,1.86,15.88-4.22,24.37-5.2,5.19-.71,9.28,2.31,13.06,5.46h1.74"/><path class="b" d="M8.52,206.5c1.4-.02,2.95.04,4.35-.05,1.9-.78,4.02-1.4,6.09-1.34,2.1-.04,4.13.79,6.09,1.39,1.99,0,4.1,0,6.09,0,21.47,0,42.94,0,64.41,0,1.39-.04,2.97.11,4.35-.12,2.44-1.8,5.03-3.64,7.83-4.84,2.45-1.1,5.28-1.01,7.83-1.77,4.79-1.28,9.82-2.64,14.8-1.63,3.36.62,6.57,2.11,9.57,3.69,2.98,1.64,6.13,3.3,9.57,3.6,8.83,1.24,17.77-5.59,26.11-2.2,1.46.62,3.01,1.53,4.35,2.38.32.3,1.32.76,1.74.89.4,0,1.34,0,1.74,0"/><path class="b" d="M8.52,201.77c28.43,0,56.87,0,85.3,0,.79,0,1.86.07,2.61-.25.78-.45,1.84-1.07,2.61-1.53,2.51-1.46,5.13-2.98,7.83-4.05,2.75-1.21,5.89-1.1,8.7-2.06,4.25-1.32,8.53-3.1,13.06-3.09,3.63-.04,7.22,1.13,10.44,2.72,2.87,1.41,5.67,3.2,8.7,4.25,3.59,1.32,7.5,1.81,11.32,1.7,4.62-.08,9.32-.99,13.93-.2,2.44.37,4.69,1.66,6.96,2.52,1.08,0,2.4,0,3.48,0"/><path class="b" d="M8.52,197.04c17.69,0,35.4,0,53.09,0,6.08,0,12.2,0,18.28,0,2.58,0,5.25,0,7.83,0,1.41-.23,2.96-.67,4.35-1.01,4.96-1.25,9.85-2.97,14.8-4.27,2.86-.8,5.98-.85,8.7-2.11,6.08-2.68,12.19-6.87,19.15-5.78,3.73.49,7.16,2.32,10.44,4.06,3.35,1.74,6.85,3.4,10.44,4.59,5.05,1.73,10.42,2.29,15.67,3.05,2.03.29,4.16.79,6.09,1.48,1.99,0,4.1,0,6.09,0"/><path class="b" d="M8.52,192.32c21.47,0,42.94,0,64.41,0,.78,0,1.83,0,2.61,0,.83-.08,1.84-.59,2.61-.87,1.93-.73,4.05-1.26,6.09-1.53,6.34-.81,12.79-.3,19.15-.91,3.18-.33,6.48-.59,9.57-1.44,8.18-3.15,14.84-11.63,24.37-10.19,3.42.47,6.57,2.17,9.57,3.79,3.43,1.87,6.89,3.88,10.44,5.5,4.94,2.32,10.29,3.73,15.67,4.6,1.42.22,3,.56,4.35,1.04,1.99.03,4.1,0,6.09.01"/><path class="b" d="M8.52,187.59c20.89,0,41.78,0,62.67,0,1.4,0,2.96,0,4.35,0,2.47-1.22,5.06-2.44,7.83-2.76,6.09-.86,12.2.6,18.28.93,3.76.18,7.71.14,11.32-1.07,7.1-3.03,12.33-9.7,20.02-11.52,4.81-1.26,9.67.56,13.93,2.73,3.73,1.83,7.46,3.84,11.32,5.4,5.51,2.39,11.51,3.26,17.41,4.08,1.76.43,3.58,1.22,5.22,1.97.72.31,1.84.24,2.61.24"/><path class="b" d="M8.52,182.87c23.5,0,47.01,0,70.5,0,2.04.17,4.09-.46,6.09-.67,2.57-.27,5.26-.2,7.83-.03,9.79.7,17.67,2.17,26.11-4.13,6.11-4.2,13.13-8.74,20.89-6.88,3.25.72,6.4,2.07,9.57,3.06,3.94,1.31,8.05,2.33,12.19,2.78,4.6.61,9.34.25,13.93.91,2.82.7,5.37,2.36,7.83,3.84"/><path class="b" d="M8.52,178.14c28.14,0,56.29,0,84.43,0,4.04,0,8.14,0,12.19,0,1.39,0,2.96,0,4.35,0,1.12.05,2.44,0,3.48-.48,4.18-1.61,8-4.17,12.19-5.78,9.18-3.62,13.91-.78,22.63.95,4.01.67,8.18.54,12.19-.08,5.17-.67,10.42-2.48,15.67-1.69,2.9.74,5.43,2.63,7.83,4.33"/><path class="b" d="M8.52,173.41c31.91,0,63.83,0,95.74,0,2.29,0,4.68,0,6.96,0,2.39-.41,4.69-1.62,6.96-2.42,3.05-1.18,6.29-2.18,9.57-2.4,7.84-.78,14.84,4.16,22.63,3.66,4.19-.19,8.27-1.52,12.19-2.93,3.64-1.28,7.4-2.79,11.32-2.84,3.6,0,6.7,2.36,9.57,4.26"/><path class="b" d="M8.52,168.69c22.92,0,45.84,0,68.76,0,9.86,0,19.74,0,29.59,0,5.18-1.51,10.2-4.07,15.67-4.48,5.84-.55,11.31,2.03,16.54,4.27,1.65.42,3.53.12,5.22.21,2.87,0,5.83,0,8.7,0,1.69,0,3.53,0,5.22,0,2.09-.49,4.12-1.62,6.09-2.45,7.91-3.57,11.38-5,19.15.16"/><path class="b" d="M8.52,163.96c22.34,0,44.68,0,67.02,0,9.86,0,19.74,0,29.59,0,4.73-2.26,9.52-4.89,14.8-5.56,3.89-.51,7.84.56,11.32,2.27,1.42.69,2.97,1.54,4.35,2.31.74.39,1.72,1.12,2.61.99,2.87,0,5.83,0,8.7,0,4.92,0,9.88,0,14.8,0,.77,0,1.87.06,2.61-.21,1.09-.52,2.4-1.15,3.48-1.67,6.04-2.97,9.49-3.65,15.67-.28"/><path class="b" d="M8.52,159.24c22.05,0,44.1,0,66.15,0,10.15,0,20.32,0,30.46,0,1.52-.39,2.94-1.52,4.35-2.19,2.77-1.44,5.68-2.9,8.7-3.74,5.77-1.77,11.65.67,16.54,3.68,1.38.74,2.83,1.83,4.35,2.25.41,0,1.32,0,1.74,0,7.24,0,14.52,0,21.76,0,1.69-.06,3.55.15,5.22-.14.4-.22,1.33-.65,1.74-.87,4.91-2.59,8.51-3.71,13.93-1.46"/><path class="b" d="M8.52,154.51c18.27,0,36.56,0,54.84,0,8.7,0,17.42,0,26.11,0,4.04,0,8.14,0,12.19,0,1.39,0,2.96,0,4.35,0,.83.01,1.92.1,2.61-.45,3.7-1.92,7.31-4.25,11.32-5.49,6.14-2.06,12.07.78,17.41,3.66,1.9.96,3.98,1.9,6.09,2.26,2.28.04,4.68,0,6.96.02,5.79,0,11.62,0,17.41,0,1.58.24,3.02-.8,4.35-1.49,3.37-2.03,7.46-2.97,11.32-1.87"/><path class="b" d="M8.52,149.79c18.85,0,37.72,0,56.58,0,8.69,0,17.42,0,26.11,0,4.33,0,8.72,0,13.06,0,1.39,0,2.96,0,4.35,0,1.12-.05,2.53.24,3.48-.5,3.36-1.87,6.7-4.07,10.44-5.08,5.37-1.61,10.81.58,15.67,2.78,2.18,1.04,4.66,1.5,6.96,2.18.42.15,1.33.46,1.74.62.41,0,1.32.01,1.74,0,1.69,0,3.53,0,5.22,0,4.92,0,9.88,0,14.8,0,5.13-2.45,8.53-5.65,14.8-4.82"/><path class="b" d="M8.52,145.06c6.95,0,13.94,0,20.89,0,2.29,0,4.68,0,6.96,0,1.4-.07,2.99.18,4.35-.21,2.21-.91,4.57-1.83,6.96-2.12,4.33-.29,8.72-.32,13.06-.41,4.63-.07,9.3-.14,13.93-.22,2.87.04,5.9-.41,8.7.41,1.44.4,2.99,1.03,4.35,1.64.77.33,1.75.9,2.61.91,1.4,0,2.96,0,4.35,0,6.37,0,12.78,0,19.15,0,1.84-.4,3.48-1.81,5.22-2.52,4.25-2.22,9.31-2.99,13.93-1.49,3.8,1.15,7.42,3.04,11.32,3.92,7.52.27,15.1.01,22.63.1.88-.08,1.87-.8,2.61-1.23,1.08-.66,2.39-1.46,3.48-2.09,3.12-1.87,6.79-2.98,10.44-2.8"/><path class="b" d="M8.52,140.33c5.79,0,11.62,0,17.41,0,1.52.18,3-.51,4.35-1.09,2.34-1,4.7-2.22,6.96-3.38,6.63-3.47,9.02-4.35,16.54-4.01,6.09.12,12.2.77,18.28,1.17,1.99.13,4.1.22,6.09.23,1.72-.05,3.58-.04,5.22.54,2.78.92,5.36,2.54,7.83,4.06,1.38.81,2.86,1.88,4.35,2.49.43,0,1.31,0,1.74,0,6.37,0,12.78,0,19.15,0,.87.05,1.85-.6,2.61-.95,1.35-.65,2.91-1.3,4.35-1.73,3.08-.96,6.47-.99,9.57-.12,2.37.63,4.71,1.69,6.96,2.65,1.37.29,2.96.1,4.35.15,7.53,0,15.1,0,22.63,0,5.51-3.55,9.6-6.52,16.54-6.36"/><path class="b" d="M8.52,135.61c2.88,0,5.83,0,8.7,0,1.77-.43,3.53-1.34,5.22-2,7.39-2.97,14.14-7.53,21.76-9.92,3.65-1.06,7.57-.73,11.32-.57,8.46.45,16.74,2.95,25.24,2.72,2.8.2,5.45,1.52,7.83,2.91,2.64,1.57,5.23,3.41,7.83,5.04,1.06.62,2.27,1.53,3.48,1.81.77,0,1.84,0,2.61,0,4.92,0,9.88,0,14.8,0,1.49-.09,2.93-1.1,4.35-1.51,2.47-.9,5.2-1.43,7.83-1.21,3.04.22,5.97,1.44,8.7,2.73,7.82,0,15.68,0,23.5,0,1.08,0,2.4,0,3.48,0,.8,0,1.92.1,2.61-.41,5-3.87,9.25-5.52,15.67-5.28"/><path class="b" d="M8.52,130.88c1.1-.02,2.39.08,3.48-.11,1.44-.6,3-1.35,4.35-2.12,2.8-1.68,5.75-3.3,8.7-4.71,14.38-6.91,25.22-8.88,40.91-5.25,3.44.74,6.94,1.61,10.44,1.97,1.99.26,4.11-.03,6.09.29,3.06.51,5.98,1.89,8.7,3.32,4.28,2.26,8.45,4.94,13.06,6.52,1.98.21,4.1.05,6.09.1,1.98-.12,4.17.29,6.09-.25,4.42-1.64,9.13-3.49,13.93-2.56,2.42.43,4.81,1.45,6.96,2.62,1.06.31,2.39.15,3.48.19,8.98-.03,18,.06,26.98-.03,5.25-4.2,9.06-4.95,15.67-4.42"/><path class="b" d="M8.52,125.08c2.05-.71,4.2-1.57,6.09-2.63,1.77-.99,3.47-2.39,5.22-3.42,3.46-2.09,7.35-3.58,11.32-4.36,4.57-.92,9.29-.97,13.93-1.1,4.04-.17,8.16-.48,12.19.05,7.1.69,13.78,3.75,20.89,4.36,5.05-.18,10.05.82,14.8,2.51,6.23,2.03,12.48,4.86,19.15,4.84,2.98-.17,5.85-1.35,8.7-2.12,6.35-2,11.94-.7,17.41,2.91,6.66.16,13.36,0,20.02.06,3.17,0,6.41,0,9.57,0,.5-.03,1.37-.47,1.74-.81.73-.51,1.82-1.15,2.61-1.56,3.47-1.76,7.58-1.25,11.32-.88"/><path class="b" d="M8.52,118.74c2.06-.56,4.21-1.3,6.09-2.31,1.78-.95,3.45-2.37,5.22-3.33,2.92-1.64,6.24-2.67,9.57-3,4.63-.49,9.31.24,13.93.58,2.88.28,5.83-.05,8.7-.03,7.53-.06,14.62,2.79,21.76,4.79,4.8,1.38,9.9.72,14.8,1.49,6.69.78,13.31,2.32,20.02,2.99,8.77,1.39,14.31-5.09,23.5-2.1,2.45.78,4.81,2.12,6.96,3.52,4.61.27,9.31.02,13.93.11,5.21,0,10.46,0,15.67,0,5.6-3.59,8.34-3.35,14.8-2.76"/><path class="b" d="M8.52,114c2.04-.18,4.19-.56,6.09-1.33,1.49-.59,2.95-1.62,4.35-2.37,2.95-1.59,6.24-2.68,9.57-3.06,6.13-.76,12.2.95,18.28,1.47,4.35.16,8.77.33,13.06,1.2,5,.93,9.87,2.6,14.8,3.84,3.39.9,6.97,1.1,10.44,1.46,6.35.67,12.77.86,19.15.65,3.45-.23,7.05.19,10.44-.59,4.59-1.19,9.08-3.38,13.93-3.21,3.01.07,6.01,1.04,8.7,2.34,1.42.68,2.95,1.57,4.35,2.29.77,0,1.84,0,2.61,0,8.4,0,16.84,0,25.24,0,1.79.15,3.47-1.03,5.22-1.23,2.85-.49,5.83-.29,8.7-.26"/><path class="b" d="M8.52,109.82c3.85.55,7.04-.06,10.44-1.87,3.32-1.49,6.83-2.78,10.44-3.31,6.78-1.14,13.41,1.15,20.02,2.31,7.23,1.11,14.58,1.64,21.76,3.08,3.19.55,6.39,1.42,9.57,1.96,7.53,0,15.1,0,22.63,0,2.03.12,4.12-.16,6.09-.6,1.7-.25,3.56-.39,5.22-.87,4.3-1.17,8.56-2.92,13.06-3.11,6.4-.35,12.36,2.55,18.28,4.58,12.47,0,24.96,0,37.43,0"/><path class="b" d="M8.52,105.24c2.8.71,5.88,1.17,8.7.3,5.2-1.61,10.17-4.31,15.67-4.81,6.06-.74,11.77,1.79,17.41,3.6,3.09.85,6.38,1.13,9.57,1.18,4.62.07,9.32-.29,13.93.23,1.41.16,2.98.45,4.35.82,1.08.31,2.33.81,3.48.69,6.95,0,13.94,0,20.89,0,1.69-.02,3.53.06,5.22-.05,1.64-.65,3.5-1.09,5.22-1.45,5.95-1.55,12.08-3.13,18.28-2.32,4.65.55,9.26,1.74,13.93,2.2,1.71.27,3.54.65,5.22,1.03,1.08.22,2.36.68,3.48.59,9.86,0,19.74,0,29.59,0"/><path class="b" d="M8.52,100.01c2.52.7,5.2,1.35,7.83,1.21,6.63-.68,12.35-5.34,19.15-5.32,2.97-.08,5.97.67,8.7,1.78,2.33.9,4.57,2.27,6.96,2.99,6.33,1.95,12.84-.29,19.15-1.14,2.58-.33,5.32-.35,7.83.39,1.14.33,2.43.93,3.48,1.49.77.39,1.73,1.06,2.61,1.11,5.21,0,10.46,0,15.67,0,2.28-.08,4.7.18,6.96-.14,1.35-.71,2.9-1.46,4.35-1.93,4.19-1.31,8.67-1.9,13.06-1.54,4.98.33,9.84,1.83,14.8,2.31,3.46.31,6.98-.48,10.44-.23,2,.08,4.12.34,6.09.71,1.4.21,2.93.79,4.35.83,7.82,0,15.68,0,23.5,0"/><path class="b" d="M8.52,94.55c3.12.68,6.36,1.54,9.57,1.35,3.03-.32,5.89-1.67,8.7-2.74,5.83-2.44,11.59-2.87,17.41-.15,5.09,2.4,7.93,4.54,13.93,3.51,8.33-1.38,16.33-7.71,24.37-1.84,1.1.68,2.39,1.53,3.48,2.22.71.48,1.72,1.06,2.61.9,4.33,0,8.72,0,13.06,0,.78,0,1.84.03,2.61-.1,1.7-.95,3.49-2.07,5.22-2.95,6.01-3.22,13.08-1.68,19.15.58,2.55.89,5.19,1.87,7.83,2.46,1.69.03,3.53,0,5.22.01,2.63.18,5.24-.72,7.83-1.03,3.15-.45,6.43-.44,9.57.08,1.4.23,2.97.57,4.35.92,1.99.07,4.1.02,6.09.03,4.62,0,9.3,0,13.93,0"/><path class="b" d="M8.52,89.89c3.17.37,6.38,1.1,9.57,1.15,5.08-.29,9.74-2.94,14.8-3.43,5.47-.75,10.76,1.33,15.67,3.52,9.21,3.75,17.28-4.6,26.11-5.69,6-.74,10.41,4.38,15.67,6.31,10.69,4.24,15.49-5.25,24.37-6.21,7.09-.37,12.99,4.42,19.15,7.21.71.41,1.82.33,2.61.32,1.09,0,2.39,0,3.48,0,3.17-.02,6.41.05,9.57-.04,3.39-.87,6.94-1.49,10.44-1.43,3.49.02,6.99.68,10.44,1.06,1.98.25,4.1.13,6.09.04,2.29-.07,4.68-.12,6.96-.34"/><path class="b" d="M8.52,86.63c1.99-.13,4.1-.13,6.09-.04,2,.12,4.11.3,6.09-.06,5.48-.98,10.9-2.96,16.54-2.59,2.92.12,5.86.74,8.7,1.4,2.83.78,5.87,1.07,8.7.14,7.5-2.13,13.72-8.33,21.76-8.54,5.44.09,9.69,4.26,14.8,5.61,6.33,2.06,12.02-1.44,17.41-4.34,3.8-2.15,7.52-2.01,11.32.09,3.44,1.83,6.49,4.42,9.57,6.78,1.06.82,2.37,1.78,3.48,2.54.33.32,1.26.74,1.74.74,3.75,0,7.56,0,11.32,0,1.69-.06,3.55.14,5.22-.14,1.07-.41,2.39-.89,3.48-1.24,5.3-1.89,11-1.86,16.54-1.54,4.04-.02,8.14-.26,12.19-.27"/><path class="b" d="M8.52,83.62c4.33-.06,8.73.13,13.06-.08,4.63-.79,9.24-2.04,13.93-2.46,4.61-.53,9.33-.13,13.93-.7,2.81-.54,5.42-2.02,7.83-3.51,10.09-6.39,16.62-12.45,28.72-6.14,4.58,2.17,9.86,3.41,14.8,1.72,3.87-1.12,7.37-3.49,11.32-4.36,7.04-.88,14.65,9.85,20.02,13.91.4.35,1.31,1.04,1.74,1.36,1.04.4,2.39.2,3.48.25,2.29,0,4.68,0,6.96,0,1.99,0,4.1,0,6.09,0,3.41-1.31,6.79-3.03,10.44-3.6,3.71-.7,7.57-.35,11.32-.28,3.75-.09,7.56-.43,11.32-.47"/><path class="b" d="M8.52,78.9c6.66,0,13.36,0,20.02,0,2.87-.02,5.83.04,8.7-.03,4.39-1.02,9-1.8,13.06-3.83,5.66-3.31,10.07-8.43,15.67-11.84,4.58-2.98,10.35-4.22,15.67-2.72,2.94.84,5.79,2.23,8.7,3.14,6.02,2.11,11.62.86,17.41-1.27,1.65-.5,3.47-1.21,5.22-1.13,3.08.34,5.62,2.55,7.83,4.55,4.66,4.31,8.58,9.62,13.93,13.14,4.92,0,9.88,0,14.8,0,3.38-1.24,6.8-2.74,10.44-3.01,4.07-.43,8.14.59,12.19.88,3.78.11,7.57-.74,11.32-1.16"/><path class="b" d="M8.52,74.17c11.89,0,23.8,0,35.69,0,4.93-1.47,8.66-5.52,12.19-9.08,5.07-5.18,10.66-11.12,18.28-11.88,8.01-.98,12.73,3.1,20.02,4.77,5.22,1.29,10.55-.05,15.67-1.17,4.1-1.11,7.64,2.08,10.44,4.64,2.92,2.75,5.7,5.82,8.7,8.48,1.83,1.59,3.88,3.21,6.09,4.24,1.69,0,3.53,0,5.22,0,2.58-.05,5.26.11,7.83-.09,1.38-.4,2.94-.81,4.35-1.07,2.56-.47,5.29-.45,7.83.07,1.42.25,2.94.83,4.35,1.08,1.99,0,4.1,0,6.09,0,4.04-.11,8.17.22,12.19-.15"/><path class="b" d="M8.52,69.44c11.89,0,23.8,0,35.69,0,1.1-.04,2.43.15,3.48-.23,2.63-1.73,4.86-4.19,6.96-6.51,4.81-5.27,9.52-11.48,16.54-13.84,3.34-1.03,7.02-1.02,10.44-.44,3.95.95,7.52,3.12,11.32,4.51,3.3,1.27,6.9,1.97,10.44,1.78,9.95-.77,9.73-3.11,18.28,4.29,4.47,3.77,9,8.89,14.8,10.43,4.04,0,8.14,0,12.19,0,3.17-.31,6.4.07,9.57,0,8.4,0,16.84,0,25.24,0"/><path class="b" d="M8.52,64.72h40.91c10.24-8.71,16.11-22.96,32.21-20.05,5.52,1.46,10.17,5.21,15.67,6.76,4.51,1.45,9.33,1.04,13.93.28,5.72-.68,11.24,5.52,15.67,8.57,1.35,1.01,2.9,2.09,4.35,2.95,1.05.55,2.26,1.44,3.48,1.49,16.24,0,32.5,0,48.74,0"/><path class="b" d="M8.52,59.99c14.21,0,28.44,0,42.65,0,1.07-.12,1.89-1.36,2.61-2.04,1.72-1.81,3.52-3.83,5.22-5.66,5.26-5.78,11.75-11.35,20.02-11.21,3.79-.25,7.24,1.79,10.44,3.56,3.58,2.02,7.27,4.13,11.32,5.05,2.53.59,5.25.67,7.83.36,2.29-.32,4.72-.91,6.96-.04,4.19,1.46,7.69,4.42,11.32,6.88,1.36.95,2.92,1.98,4.35,2.82.72.37,1.83.29,2.61.29,16.53,0,33.08,0,49.61,0"/><path class="b" d="M8.52,55.27c9.86,0,19.74,0,29.59,0,4.63,0,9.3,0,13.93,0,2.02-1.01,3.53-3.14,5.22-4.61,5.24-5.14,10.92-10.58,18.28-12.32,2.83-.66,5.92-1.13,8.7-.05,6,2.23,11.09,6.66,17.41,8.09,3.12.76,6.46.67,9.57-.05,6.87-1.45,13.69,5.52,19.15,8.93h53.09"/><path class="b" d="M8.52,50.54h41.78c7.19-4.86,13.49-11.33,21.76-14.41,1.94-.75,4.06-1.35,6.09-1.77,1.67-.39,3.52-.64,5.22-.27,5.29,1.17,9.76,4.62,14.8,6.49,3.01,1.18,6.33,1.85,9.57,1.56,1.73-.1,3.51-.72,5.22-.92,4.63-.23,8.65,2.77,12.19,5.42,1.73,1.2,3.32,2.98,5.22,3.9,1.09,0,2.39,0,3.48,0,16.53,0,33.08,0,49.61,0"/><path class="b" d="M8.52,43.38c4.13-.49,7.74.34,11.32,2.41,1.7.06,3.53.02,5.22.03,4.33,0,8.72,0,13.06,0,1.99,0,4.1,0,6.09,0,1.14-.51,2.38-1.33,3.48-1.92,7.89-4.27,15.61-9.16,24.37-11.48,1.98-.56,4.09-1.07,6.09-1.54,1.66-.43,3.49-.84,5.22-.6,5.23.71,9.81,3.74,14.8,5.31,13.87,4.68,13.52-5.59,26.98,5.89,1.11.95,2.41,2.11,3.48,3.09.33.4,1.25,1.06,1.74,1.24.42,0,1.32,0,1.74,0,5.21,0,10.46,0,15.67,0,11.89,0,23.8,0,35.69,0"/><path class="b" d="M8.52,36.04c6.8-1.02,9.93,2.25,15.67,4.75,1.03.49,2.38.25,3.48.3,1.99,0,4.1,0,6.09,0,1.09,0,2.39,0,3.48,0,1.85-.31,3.58-1.54,5.22-2.39,3.04-1.84,6.25-3.56,9.57-4.84,6.9-2.96,14.35-4.27,21.76-5.18,2.91-.27,5.79-1.31,8.7-1.41,6.09.24,11.49,3.74,17.41,4.87,3.71.81,7.65.72,11.32-.27,7.44-1.8,13.01,5.14,18.28,9.23h53.96"/><path class="b" d="M8.52,29.93c5.98-.22,8.73,1.84,13.93,3.9,11.66,4.45,17.1-2.59,26.98-6.24,7.53-2.72,15.62-2.39,23.5-2.37,1.7-.03,3.54-.15,5.22-.41,1.68-.31,3.5-.74,5.22-.59,7.08.69,13.66,4.43,20.89,4.21,2.92.08,5.83-.72,8.7-1.09,6.35-.01,11.17,5.09,15.67,8.94,18.26.23,36.56,0,54.84.08"/><path class="b" d="M8.52,24.28c2.32.34,4.72.81,6.96,1.49,2.83.95,5.73,2.03,8.7,2.4,8.84,1.39,15.62-3.84,23.5-6.55,3.65-1.05,7.52-1.48,11.32-1.45,5.22,0,10.45.9,15.67.86,3.49.07,6.95-1.27,10.44-.64,4.68.67,9.22,2.32,13.93,2.83,2.57.31,5.26.31,7.83.04,2.01-.16,4.08-.71,6.09-.82,4.29-.03,8.08,2.57,11.32,5.15,1.11.9,2.41,2.03,3.48,2.98.57.71,1.69,1.23,2.61,1.07,17.69,0,35.4,0,53.09,0"/><path class="b" d="M8.52,18.19c16.71,5.1,20.34,3.86,36.56-.97,7.38-1.9,15.1-1.45,22.63-1.02,2.87.14,5.84.23,8.7-.02,2.01-.13,4.07-.77,6.09-.79,3.53-.01,7.02,1.01,10.44,1.76,4.25.99,8.69,1.52,13.06,1.17,3.46-.17,7.03-1.3,10.44-.23,3.57,1.01,6.71,3.26,9.57,5.55,1.42,1,2.71,2.65,4.35,3.28.77,0,1.84,0,2.61,0,16.82,0,33.66,0,50.48,0"/><path class="b" d="M8.52,11.27c5.25,2.12,10.91,2.86,16.54,2.86,6.38.08,12.79-.39,19.15-.82,5.79-.41,11.61-.86,17.41-1.19,6.1-.39,12.29-.64,18.28-1.95,3.17-.69,6.49.01,9.57.79,3.43.89,6.92,1.89,10.44,2.32,2.86.37,5.83.36,8.7.12,3.17-.36,6.49-.62,9.57.44,3.48,1.09,6.65,3.14,9.57,5.27,1.41.97,2.84,2.29,4.35,3.08.42,0,1.32,0,1.74,0,8.99,0,18,0,26.98,0,1.43.09,2.96-.45,4.35-.68,1.67-.31,3.52-.53,5.22-.58,2-.09,4.11.2,6.09.37,2.28.17,4.68.25,6.96.35"/></svg>