<?xml version="1.0" encoding="UTF-8"?><svg id="a" xmlns="http://www.w3.org/2000/svg" width="1920" height="2400" viewBox="0 0 192 240"><defs><style>.b{fill:none;stroke:#fff;stroke-miterlimit:10;stroke-width:.4px;}.c{stroke-width:0px;}</style></defs><rect class="c" width="192" height="240"/><path class="b" d="M8.69,223.94c2.24-.54,4.64-1.01,6.95-.76,4.02.78,8.03,2.1,12.16,2.22,5,.3,9.94-.89,14.77-2.04,3.69-.98,7.59-.9,11.29-1.76,10.54-2.33,15.04,1.44,22.59,7.91,19.69,0,39.39,0,59.07,0,3.16,0,6.4,0,9.56,0,4.61.03,3.57.39,6.95-2.71,5.22-4.73,11.2-7.3,18.24-5.29,4.25,1.25,8.54,2.58,13.03,2.39"/><path class="b" d="M8.69,218.4c2.49-.78,5.21-1.4,7.82-.94,4.32,1,8.61,2.45,13.03,2.95,4.91.65,9.9.01,14.77-.67,1.98-.3,4.09-.36,6.08-.56,1.7-.21,3.52-.55,5.21-.78,5.4-.95,11.03.17,15.64,3.16,1.12.69,2.42,1.57,3.47,2.35.64.63,1.71,1.01,2.61.89,22.87,0,45.76,0,68.63,0,6.96-5.42,12.38-9.51,21.72-7.14,5.12,1.4,10.27,3.04,15.64,3.09"/><path class="b" d="M8.69,212.3c2.48-.82,5.22-1.34,7.82-.88,5.09,1.11,9.8,3.58,14.77,5.08,4.75,1.53,9.79,2.14,14.77,2.02,10.59-.21,16.19-2.31,26.93,1.57,9.26,0,18.54,0,27.8,0,8.97,0,17.96,0,26.93,0,3.16,0,6.4,0,9.56,0,1.7-.15,3.84.5,5.21-.78,9.82-7.68,16.1-8.08,27.8-4.6,4.26,1.02,8.71,1.33,13.03,2.07"/><path class="b" d="M8.69,207.26c7.38-1.89,13.71,1.72,19.98,5.1,1.96,1.04,4.05,2.1,6.08,2.99,2.87.04,5.82,0,8.69.02,19.11,0,38.23,0,57.33,0,7.52,0,15.07,0,22.59,0,2.58,0,5.24,0,7.82,0,2.05.14,4.15-.39,6.08-1.03,2.8-.84,5.28-2.58,7.82-3.97,4.24-2.22,9.22-2.71,13.9-1.95,4.07.59,8.07,1.89,12.16,2.33,1.68.21,3.52.03,5.21.09,2.31.11,4.7.55,6.95,1.08"/><path class="b" d="M8.69,203.82c6.14.14,12.14,2.08,17.37,5.24.79.44,1.83,1.05,2.61,1.5,1.98.22,4.09.05,6.08.1,11,0,22.01,0,33.01,0,7.23-.04,14.5.17,21.72-.27,5.77.33,11.59.29,17.37.27,1.73.1,3.56-.13,5.21-.63,1.67-.4,3.5-.7,5.21-.88,4.89-.52,9.86-.07,14.77-.17,2.92-.07,5.95-.44,8.69-1.5,2.51-1.11,5.04-2.5,7.82-2.79,5.24-.74,10.48.66,15.64,1.4,2.84.41,5.83.63,8.69.21,3.42-.85,7.05-.67,10.42.33"/><path class="b" d="M8.69,201.37c2.32.7,4.65,1.71,6.95,2.48,2.02.6,4.15,1.22,6.08,2.08,6.07,0,12.17,0,18.24,0,6.36,0,12.75,0,19.11,0,6.65,0,13.33,0,19.98,0,.78,0,1.84.05,2.61-.17,1.55-1.06,3.4-1.95,5.21-2.44,6.32-1.74,12.76.64,19.11.81,2.64.16,5.26-.6,7.82-1.12,2.55-.44,5.25-.47,7.82-.24,5.51.45,10.94,2.28,16.51,1.89,2.41-.09,4.67-1.22,6.95-1.87,2.23-.56,4.66-.65,6.95-.53,5.48.33,11,1.5,16.51.83,6.08-.76,7.94-3.09,14.77-1.45"/><path class="b" d="M8.69,198.3c1.71.93,3.49,2.02,5.21,2.92,2.58,0,5.24,0,7.82,0,5.49,0,11.02,0,16.51,0,7.52,0,15.07,0,22.59,0,4.33,0,8.71,0,13.03,0,1.39,0,2.95,0,4.34,0,.79,0,1.86.07,2.61-.26,2.81-2.65,6.53-4.47,10.42-4.65,5.28-.32,10.39,1.64,15.64,1.86,2.33.19,4.67-.53,6.95-.85,2.58-.3,5.29-.04,7.82.52,2.63.58,5.27,1.48,7.82,2.33,1.66.55,3.44,1.24,5.21,1.05,2.87,0,5.82,0,8.69,0,1.7-.12,3.5-.61,5.21-.59,3.75-.11,7.55.41,11.29.53,3.77.15,7.65-.15,11.29-1.19,1.72-.45,3.48-1.27,5.21-1.67,2.24-.51,4.67-.52,6.95-.26"/><path class="b" d="M8.69,193.66c1.41.89,2.71,2.41,4.34,2.84,2.28,0,4.67,0,6.95,0,5.78,0,11.6,0,17.37,0,7.52,0,15.07,0,22.59,0,4.33,0,8.71,0,13.03,0,2.57-.12,5.29.26,7.82-.19,2.62-2.52,5.94-4.52,9.56-5.14,5.25-.95,10.48.79,15.64,1.57,3.73.7,7.57-.35,11.29.37,2.64.41,5.29,1.21,7.82,2.07,1.39.41,2.89,1.19,4.34,1.32,6.36,0,12.75,0,19.11,0,7.81,0,15.65,0,23.45,0,1.46.13,2.94-.67,4.34-.95,2.24-.51,4.66-.65,6.95-.59"/><path class="b" d="M8.69,187.29c7.01,5.74,4.14,4.34,13.03,4.49,5.78,0,11.6,0,17.37,0,9.55,0,19.12,0,28.67,0,3.16,0,6.4,0,9.56,0,1.39-.09,3.03.25,4.34-.29.43-.36,1.29-1.06,1.74-1.39,2.32-1.72,5.01-3.14,7.82-3.83,5.19-1.34,10.56-.02,15.64,1.18,2.54.65,5.26.84,7.82,1.38,3.51.75,6.99,1.9,10.42,2.92,6.65.1,13.33,0,19.98.04,10.13,0,20.28,0,30.4,0,2.58-.02,5.23-.49,7.82-.35"/><path class="b" d="M8.69,179.5c2.61,1.88,5.11,4.1,7.82,5.84,1.08.57,2.23,1.59,3.47,1.73,6.36,0,12.75,0,19.11,0,14.47-.08,28.97.15,43.44-.08,13.22-10.63,20.51-7.15,34.75-1.53,1.67.55,3.44,1.47,5.21,1.61,3.74,0,7.55,0,11.29,0,12.45,0,24.91,0,37.35,0,4.04.07,8.13-.28,12.16,0"/><path class="b" d="M8.69,171.23c5.76,3.27,11.06,7.38,16.51,11.12,19.39-.07,38.81.14,58.2-.07,6.86-5.45,14.41-10.92,23.46-7.05,3.65,1.47,6.9,3.87,10.42,5.58,1.07.53,2.36,1.12,3.47,1.54,1.39,0,2.95,0,4.34,0,2.87,0,5.82,0,8.69,0,10.42,0,20.86,0,31.27,0,2.91.13,5.8-.84,8.69-1.08,3.17-.39,6.44.09,9.56.67"/><path class="b" d="M8.69,164.08c4.86,1.51,9.02,4.78,13.03,7.81,1.4,1.09,2.94,2.33,4.34,3.42,1.07.76,2.21,1.91,3.47,2.33,11.58,0,23.17,0,34.75,0,6.35-.09,12.77.19,19.11-.11,7.03-5.53,14.87-13.1,24.32-8.14,3.67,1.89,6.81,4.78,10.42,6.76.76.43,1.81.99,2.61,1.35,1.67.28,3.52.08,5.21.14,3.45,0,6.97,0,10.42,0,8-.11,16.39.21,24.32-.12,8.44-2.18,13.84-4.24,22.59-1.41"/><path class="b" d="M8.69,159.58c6.63,1.14,11.86,5.96,17.37,9.47,1.38.92,2.92,1.92,4.34,2.76,1.09.71,2.14,1.27,3.47,1.1,8.97,0,17.96,0,26.93,0,4.62,0,9.28,0,13.9,0,1.39,0,2.95,0,4.34,0,1.09-.04,2.42.14,3.47-.22,3.75-2.61,7.24-5.75,11.29-7.9,8.28-4.47,14.19-.95,20.85,4.28,1.93,1.32,3.9,2.95,6.08,3.84,1.39,0,2.95,0,4.34,0,4.91,0,9.86,0,14.77,0,4.33,0,8.71,0,13.03,0,1.39,0,2.95,0,4.34,0,.78,0,1.88.08,2.61-.28,8.84-3.65,13.84-6.03,23.46-2.66"/><path class="b" d="M8.69,156.16c4.67-.25,8.89,2.23,13.03,4.04,5.39,2.48,10.91,4.8,16.51,6.77,1.09.39,2.38.84,3.47,1.22,2.28.01,4.67,0,6.95,0,4.62,0,9.28,0,13.9,0,6.36,0,12.75,0,19.11,0,1.25-.12,2.41-1.15,3.47-1.73,1.39-.87,2.93-1.87,4.34-2.71,5.22-3.28,11.47-5.27,17.37-2.55,3.81,1.64,7.02,4.48,10.42,6.79,1.64.42,3.53.12,5.21.21,12.15-.03,24.33.07,36.49-.04,9.42-6.05,13.31-8.38,24.32-4.15"/><path class="b" d="M8.69,153.03c3.76-.92,7.6.07,11.29.83,3.75.69,7.6,1.27,11.29,2.24,4.18,1.07,8.27,2.66,12.16,4.51,1.1.52,2.39,1.16,3.47,1.71,1.04.51,2.26,1.32,3.47,1.15,9.84,0,19.7,0,29.54,0,1.09,0,2.39,0,3.47,0,2.4-.58,4.64-2.04,6.95-2.91,8.98-3.99,15.61-2.75,23.46,2.91h44.3c4.38-3.33,8.94-7.69,14.77-7.77,3.6.25,7.06,1.69,10.42,2.9"/><path class="b" d="M8.69,149.73c3.33-1.19,6.93-1.26,10.42-1.33,2.87-.18,5.81-.53,8.69-.38,7.18.2,13.36,4.28,19.11,8.18,1.36.88,2.86,1.9,4.34,2.56,1.99,0,4.09,0,6.08,0,4.62,0,9.28,0,13.9,0,5.49,0,11.02,0,16.51,0,1.44-.05,2.94-.73,4.34-1.01,2.53-.63,5.21-1.08,7.82-1.06,2.96.02,5.98.71,8.69,1.9,1.66.35,3.52.1,5.21.17,14.18,0,28.38,0,42.57,0,4.75-3.38,9.33-8.49,15.64-8.36,3.91.44,7.57,2.34,11.29,3.52"/><path class="b" d="M8.69,145.89c3.33-1.35,6.94-2.03,10.42-2.84,5.1-1.51,10.62-2.65,15.64-.22,5.93,2.62,10.19,7.86,15.64,11.22,27.8,0,55.6,0,83.4,0,6.36,0,12.75,0,19.11,0,.97.04,1.86-.91,2.61-1.41,1.65-1.23,3.46-2.54,5.21-3.63,10.03-6.25,12.84-1.92,22.59.75"/><path class="b" d="M8.69,141.26c3.1-1.29,6.38-2.31,9.56-3.39,2.53-.91,5.14-1.97,7.82-2.32,9.29-1.25,15.37,7.34,21.72,12.64.44.36,1.21.96,1.74,1.15.45,0,1.29,0,1.74,0,1.4,0,2.95,0,4.34,0,3.74,0,7.55,0,11.29,0,11.58,0,23.17,0,34.75,0,12.73,0,25.49,0,38.22,0,2.57-.08,5.27.18,7.82-.14,1.75-.69,3.56-1.63,5.21-2.52,6-3.34,13.03-7,19.98-4.43,3.36,1.38,6.82,2.77,10.42,3.37"/><path class="b" d="M8.69,136.89c3.44-1.27,7.03-2.36,10.42-3.77,5.64-2.52,11-3.63,16.51-.11,3.22,1.98,5.99,4.74,8.69,7.35,1.07,1.04,2.35,2.27,3.47,3.24.39.43,1.17.91,1.74,1.01,6.94,0,13.91,0,20.85,0,19.11,0,38.23,0,57.33,0,1.39,0,2.95,0,4.34,0,2.88-.82,5.68-2.23,8.69-2.63,1.99-.25,4.12-.22,6.08-.71,5.47-1.22,10.83-3.43,16.51-3.47,3.24-.06,6.53.59,9.56,1.73,3.27,1.43,6.83,2.42,10.42,2.41"/><path class="b" d="M8.69,133.28c2.89-.72,5.89-1.42,8.69-2.49,2.58-1.01,5.15-2.35,7.82-3.13,10.73-3.37,16.95,6.67,24.32,12.24,22,0,44.02,0,66.02,0,2.87,0,5.82,0,8.69,0,6.58-2.12,12.78-6.42,19.98-5.9,6.96-.23,14.06-.61,20.85,1.25,3.54.85,6.98,2.28,10.42,3.42,2.52.69,5.29.57,7.82-.02"/><path class="b" d="M8.69,129.07c2.6-.41,5.3-.81,7.82-1.6,2.68-.85,5.23-2.3,7.82-3.38,11.45-5.36,18.42,4.04,26.06,10.97,4.3.31,8.71.03,13.03.12,7.81,0,15.65,0,23.46,0,2.03.12,4.08-.59,6.08-.84,2.56-.4,5.23-.58,7.82-.51,10.75.5,12.4,2.97,23.46-1.55,9.51-3.81,13.83-5.79,24.32-4.15,5.91.73,11.74,2.25,17.37,4.15,2.87.94,5.8,2.01,8.69,2.89,2.94-.04,5.96.37,8.69-1.02"/><path class="b" d="M8.69,123.58c2.89-.42,5.89-.75,8.69-1.63,2.69-.9,5.23-2.42,7.82-3.57,3.76-1.8,8.27-2.5,12.16-.69,5.94,2.78,10.22,8.1,14.77,12.65,2.55.3,5.25.05,7.82.13,4.91,0,9.86,0,14.77,0,2.87,0,5.82,0,8.69,0,2.87-.92,5.74-2.12,8.69-2.81,3.38-.84,6.95-1.08,10.42-.84,2.87.17,5.81.63,8.69.67,5.41-.02,10.5-2.29,15.64-3.69,7.29-2.22,13.45-2.11,20.85-.57,6.41,1.17,12.79,2.69,19.11,4.26,6.77,1.49,9.67,3.79,16.51.3"/><path class="b" d="M8.69,116.76c3.16-.72,6.48-1.1,9.56-2.13,2.66-.98,5.2-2.47,7.82-3.55,3.83-1.72,8.38-2.05,12.16-.03,6.38,3.42,10.86,9.44,15.64,14.7,9.26,0,18.54.01,27.8,0,5.24-2.7,10.53-5.83,16.51-6.44,4.9-.64,9.88.54,14.77-.13,3.79-.54,7.53-1.68,11.29-2.34,3.7-.68,7.55-.88,11.29-.45,4.67.51,9.24,1.88,13.9,2.47,5.45.8,11.01.97,16.51,1.36,3.19.17,6.41.75,9.56,1.29,2.68.21,5.4-.68,7.82-1.76"/><path class="b" d="M8.69,109.3c3.09-1.13,6.41-1.77,9.56-2.75,3.19-1.12,6.25-2.83,9.56-3.6,6.41-1.75,12.19,2.16,16.51,6.53,3.78,3.54,6.99,7.73,10.42,11.56,5.78,0,11.6,0,17.37,0,1.69,0,3.52,0,5.21,0,.78,0,1.83,0,2.61,0,.47-.15,1.32-.59,1.74-.87,4.77-2.93,9.35-6.45,14.77-8.12,4.75-1.59,9.85-1.12,14.77-1.42,5.49-.56,10.94-2.08,16.51-1.86,5.65.08,11.07,1.96,16.51,3.29,3.4.74,6.96.9,10.42.72,4.92-.23,9.84-1.16,14.77-1.12,2.01-.02,4.1.38,6.08.68,2.63.23,5.33-.4,7.82-1.22"/><path class="b" d="M8.69,103.45c3.03-1.41,6.33-2.27,9.56-3.09,2.85-.83,5.73-1.92,8.69-2.28,9.12-1.29,15.8,6.37,21.72,12.13,1.12,1.12,2.41,2.51,3.47,3.68.72.76,1.63,1.96,2.61,2.42,5.78,0,11.6,0,17.37,0,1.69,0,3.52,0,5.21,0,1.44-.02,3.13.23,4.34-.75,5.29-3.3,9.96-7.68,15.64-10.36,4.56-2.29,9.73-2.88,14.77-3.07,3.45-.23,6.96-.59,10.42-.65,4.65-.11,9.34.38,13.9,1.28,4.86.99,9.76,2.25,14.77,1.95,5.8-.17,11.57-1.36,17.37-1.4,2.3-.06,4.68.32,6.95.64,2.61.2,5.31-.36,7.82-1.04"/><path class="b" d="M8.69,99.63c3-1.43,6.29-2.3,9.56-2.85,2.55-.49,5.21-.97,7.82-.97,5.79-.12,11.16,2.68,15.64,6.14,2.64,2.01,5.25,4.26,7.82,6.36,1.09.91,2.37,2.02,3.47,2.92.74.47,1.78.39,2.61.38,5.2,0,10.44,0,15.64,0,3.45-.07,6.98.14,10.42-.09,7.66-4.22,13.48-11.41,21.72-14.68,6.33-2.65,13.34-1.11,19.98-1.05,5.19.23,10.44.18,15.64.2,3.45.05,6.97.23,10.42.08,6.07-.22,12.19-.42,18.24.17,2.59.19,5.24.69,7.82.91,2.64.08,5.31-.63,7.82-1.36"/><path class="b" d="M8.69,97.17c5.48-2.12,11.56-2.57,17.37-2,4.89.55,9.59,2.35,13.9,4.67,2.64,1.41,5.27,3.06,7.82,4.63,1.37.81,2.84,1.85,4.34,2.4.78,0,1.83,0,2.61,0,8.97,0,17.96,0,26.93,0,1.89-.29,3.62-1.6,5.21-2.58,2.38-1.62,4.71-3.52,6.95-5.33,5.43-4.28,11.7-9.66,19.11-8.29,4.31.62,8.66,1.58,13.03,1.41,5.05-.1,9.92-1.75,14.77-2.98,3.4-.77,6.94-1.24,10.42-1.31,7.15-.23,13.95,2.37,20.85,3.81,3.82.98,7.72-.21,11.29-1.59"/><path class="b" d="M8.69,95.06c13.15-3.19,28.63,2.1,40.83,7.09,6.65.05,13.33,0,19.98.02,2.87,0,5.82.03,8.69-.08,2.34.05,4.78-.23,6.95-1.18,8.51-3.18,17.65-14.98,26.93-13.01,4.56.99,9.17,2.71,13.9,2.04,6.1-.71,11.04-4.77,16.51-7.19,4.63-2,9.93-2.48,14.77-.98,3.29.95,6.44,2.52,9.56,3.92,2.72,1.19,5.66,2.45,8.69,2.31,2.73-.22,5.34-1.45,7.82-2.53"/><path class="b" d="M8.69,92.01c7.31-.74,14.57.77,21.72,2.15,5.77,1.12,11.69,1.69,17.37,3.2,3.15.21,6.4.03,9.56.09,3.45-.62,6.92-1.57,10.42-1.86,4.64-.55,9.29.36,13.9.69,3.32.01,6.59-1.13,9.56-2.54,5.47-2.51,10.45-6.55,16.51-7.54,2.66-.43,5.32.53,7.82,1.31,4.47,1.57,9.55,2.09,13.9-.15,5.99-2.8,10.3-8.38,16.51-10.77,10.9-4.3,17.55,4.36,26.93,7.08,3.62.9,7.19-.96,10.42-2.39"/><path class="b" d="M8.69,86.89c8.53,0,16.8,2.33,25.19,3.51,3.45.49,6.98.79,10.42,1.29,1.71.23,3.52.68,5.21,1.02,1.09.02,2.38,0,3.47.01,2.94-.19,5.83-1.19,8.69-1.85,3.1-.78,6.35-1.33,9.56-1.33,7.48.05,11.25,2.42,19.11.05,6.6-1.7,12.96-5.75,19.98-4.96,2.93.49,5.77,1.73,8.69,2.28,12.2,2.71,18.61-10.86,28.67-14.76,10.49-4.24,16.92,3.8,26.06,6.14,3.25.62,6.51-.68,9.56-1.67"/><path class="b" d="M8.69,81.46c3.74.49,7.55.89,11.29,1.37,3.75.56,7.54,1.31,11.29,1.88,5.18.83,10.47,1.24,15.64,2.17,5.79,1.66,11.68-.25,17.37-1.43,5.12-1.11,10.43-1.43,15.64-.9,9.34.85,18.47-2.58,27.8-2.07,3.56.13,6.97,1.41,10.42,2.13,11.72,2.79,18.53-9.09,26.93-14.83,11.45-7.82,17.29-1.12,27.8,3.12,3.35,1.17,7.01.55,10.42.05"/><path class="b" d="M8.69,76.55c4.58.85,9.28.88,13.9,1.37,8.71,1.07,17.44,2.29,26.06,3.94,5.43,1.09,11.06.59,16.51-.17,5.75-.86,11.55-1.71,17.37-1.87,4.32-.3,8.7-.67,13.03-.49,6.71.32,13.4,1.47,19.98,2.77,12.64,3.43,18.89-5.76,26.93-13.53,5.65-5.45,12.08-9.42,19.98-5.91,3.3,1.35,6.33,3.42,9.56,4.92,3.51,1.63,7.49,1.95,11.29,2.31"/><path class="b" d="M8.69,72.32c6.05.72,12.18-.12,18.24.48,9.38.82,18.64,2.84,27.8,4.95,1.39.3,2.93.71,4.34.83,1.09,0,2.38,0,3.47,0,3.16,0,6.39,0,9.56,0,1.72,0,3.52-.54,5.21-.81,2.57-.47,5.23-.93,7.82-1.3,4.91-.74,9.98-.4,14.77.9,1.4.36,2.95.82,4.34,1.21,2.28,0,4.67,0,6.95,0,4.62,0,9.28,0,13.9,0,1.39-.06,2.99.17,4.34-.19,2.19-1.39,4.25-3.22,6.08-5.06,5.33-5.26,9.74-11.87,16.51-15.43,6.86-3.59,13.23.68,19.11,4.1,3.84,2.05,8.11,3.3,12.16,4.84"/><path class="b" d="M8.69,68.5c6.66-.32,13.29-1.81,19.98-1.38,4.98.22,9.92,1.24,14.77,2.35,3.18.77,6.57,1.13,9.56,2.56,1.41.54,2.85,1.56,4.34,1.84,1.09,0,2.39,0,3.47,0,3.45,0,6.97,0,10.42,0,20.56,0,41.12,0,61.68,0,1.67-.99,3.01-2.8,4.34-4.18,2.04-2.29,4.08-4.81,6.08-7.14,3.45-3.92,7.11-8.24,12.16-10.06,5.56-2,10.98,1.36,15.64,4.09,1.63.97,3.53,1.76,5.21,2.63,2.34,1.24,4.69,2.71,6.95,4.09"/><path class="b" d="M8.69,64.42c11.09-3.11,20.76-4.73,32.14-1.92,2.86.66,5.82,1.27,8.69,1.91,1.84.58,3.62,1.67,5.21,2.74.79.53,1.84,1.29,2.61,1.84,1.67.32,3.52.09,5.21.15,3.74,0,7.55,0,11.29,0,20.84-.07,41.71.13,62.55-.07,6.05-6.49,12.59-18,20.85-21.12,4.8-1.79,9.74.57,13.9,2.92,1.66.95,3.58,1.75,5.21,2.76,2.42,1.51,4.73,3.39,6.95,5.17"/><path class="b" d="M8.69,60.33c10.39-4.36,22-5.25,33.01-3,8.79,1.55,9.38,1.08,16.51,7.08,13.31.07,26.65,0,39.96.03,12.45,0,24.91,0,37.35,0,3.43.13,3.14-.02,5.21-2.65,1.68-2.11,3.52-4.38,5.21-6.49,5.37-6.67,12.29-14.44,21.72-10.73,2.94,1.13,5.93,2.47,8.69,4,2.45,1.52,4.76,3.47,6.95,5.33"/><path class="b" d="M8.69,57.15c9.69-3.72,18.52-3.4,28.67-2.68,4.03.32,8.15.48,12.16.95,2.91.64,5.47,2.48,7.82,4.22,15.04.23,30.12,0,45.17.08,8.1,0,16.23,0,24.32,0,4.32-.1,8.73.2,13.03-.13,3.86-4.46,7.7-9.1,12.16-12.97,4.69-4.13,10.39-6.08,16.51-4.15,2.62.8,5.33,1.71,7.82,2.88,2.43,1.23,4.76,2.88,6.95,4.48"/><path class="b" d="M8.69,53.68c3.71-.73,7.5-1.6,11.29-1.59,6.94.23,13.88,1.5,20.85.92,3.73-.07,7.63-1.02,11.29,0,1.46.42,3.01,1.11,4.34,1.82,2.54.4,5.25.07,7.82.17,25.19-.06,50.39.12,75.58-.06,7.54-7.63,16.17-15.98,27.8-13.74,5.42.95,10.82,2.45,15.64,5.17"/><path class="b" d="M8.69,49.18c3.16-.19,6.39-.48,9.56-.45,2.62.13,5.26.8,7.82,1.33,1.66.39,3.52.16,5.21.22,2.87,0,5.82,0,8.69,0,4.08.08,8.03-1.91,12.16-1.48,2.36.12,4.7.86,6.95,1.48,1.4,0,2.95,0,4.34,0,16.79,0,33.59,0,50.39,0,7.81,0,15.65,0,23.45,0,1.42.27,2.51-1.04,3.47-1.87,1.57-1.35,3.44-2.62,5.21-3.69,7.24-4.54,15.15-5.36,23.46-4.04,4.65.62,9.41,1.06,13.9,2.51"/><path class="b" d="M8.69,43.47c3.45.07,7-.12,10.42.37,2.63.35,5.14,1.86,7.82,1.73,3.45,0,6.97,0,10.42,0,1.69-.03,3.52.07,5.21-.06,1.09-.34,2.38-.78,3.47-1.12,5.02-1.6,10.47-1.99,15.64-.93,2.62.51,5.27,1.32,7.82,2.11,2.58.01,5.24,0,7.82,0,3.74,0,7.55,0,11.29,0,1.99-.25,4.06-.82,6.08-.85,1.7-.07,3.54.08,5.21.41,1.36.42,2.92.5,4.34.44,10.71-.04,21.44.08,32.14-.05,9.43-7.92,17.89-7.84,29.54-6.6,5.76.74,11.63.21,17.37,1.03"/><path class="b" d="M8.69,36.83c3.73-.24,7.63-.54,11.29.39,2.9.78,5.76,1.99,8.69,2.67,3.7.92,7.66.74,11.29-.38,3.19-.93,6.3-2.39,9.56-3.12,8.09-2.18,14.59-1.31,22.59.49,10.73,2.69,15.29-3.53,25.19-3.26,5.27.19,10.04,2.8,14.77,4.86,1.69.76,3.48,1.69,5.21,2.37,1.39,0,2.95,0,4.34,0,2.58,0,5.24,0,7.82,0,1.39-.11,3.07.31,4.34-.36,2.61-1.22,5.16-2.79,7.82-3.9,3.54-1.45,7.49-1.83,11.29-1.73,5.5.15,11,1.1,16.51,1.24,4.62.15,9.3-.63,13.9.12"/><path class="b" d="M8.69,29.44c10.57-2.47,13.23,1.34,22.59,2.95,4.72.75,9.44-.57,13.9-2,6.2-1.69,12.66-2.93,19.11-2.83,5.77.03,11.7,1.39,17.37-.17,4.55-1.22,9.12-2.98,13.9-2.84,4.24.06,8.33,1.58,12.16,3.29,3.18,1.37,6.43,2.78,9.56,4.27,9.37,4.41,14.47,2.05,23.46-1.28,3.9-1.23,8.12-1.34,12.16-1.02,5.52.45,10.98,1.73,16.51,2.16,4.61.37,9.32-.39,13.9.53"/><path class="b" d="M8.69,22.35c8.15-2.54,12.38-.08,19.98,1.98,4.24,1.12,8.73,1.2,13.03.44,3.43-.67,6.96-1.09,10.42-1.58,3.74-.63,7.53-1.4,11.29-1.88,5.18-.72,10.48-.73,15.64-1.58,5.13-1.03,10.36-2.36,15.64-1.77,4.51.42,8.84,2.05,13.03,3.67,2.86,1.08,5.85,2.02,8.69,3.17,10.74,4.25,14.91,1.74,25.19-.78,4.29-.69,8.76-.57,13.03.2,5.3.92,10.38,2.93,15.64,4.04,4.27.85,8.73.48,13.03,1.2"/><path class="b" d="M8.69,16.45c8.2-2.51,13.88.41,21.72,1.99,5.42,1.16,11.01.75,16.51.57,5.28.27,10.51-.85,15.64-1.98,4.88-1.07,9.83-1.98,14.77-2.73,5.71-1.07,11.61-1.57,17.37-.62,4.4.65,8.74,1.93,13.03,3.07,4.35.99,8.68,2.27,13.03,3.23,4.58.96,9.36.66,13.9-.38,8.91-2.33,18.45-2.47,26.93,1.47,3.46,1.45,6.84,3.3,10.42,4.43,3.64,1,7.53,1.25,11.29,1.21"/><path class="b" d="M8.69,11.83c6.09-1.37,12.23-.17,18.24.96,5.15.95,10.41,1.34,15.64,1.55,3.76.07,7.53,1,11.29.72,7.35-.51,14.44-2.85,21.72-3.85,6.6-1.11,13.35-.75,19.98-.11,5.49.52,11.03,1.04,16.51,1.67,6.04.97,12.06,2.78,18.24,2.4,6.94-.42,13.86-1.95,20.85-1.52,4.31.27,8.45,1.92,12.16,4.05,2.3,1.29,4.62,2.79,6.95,4.04,1.63.51,3.53.15,5.21.25,2.57,0,5.24,0,7.82,0"/></svg>