<?xml version="1.0" encoding="UTF-8"?><svg id="a" xmlns="http://www.w3.org/2000/svg" width="1920" height="2400" viewBox="0 0 192 240"><defs><style>.b{fill:none;stroke:#fff;stroke-miterlimit:10;stroke-width:.4px;}.c{stroke-width:0px;}</style></defs><rect class="c" x="0" width="192" height="240"/><path class="b" d="M8.52,224.16c3.29,1.63,6.84,2.77,10.45,3.44,2,.35,4.08,1.46,6.09,1.48,8.11,0,16.26,0,24.37,0,.8,0,1.85.06,2.61-.21,1.13-.86,2.41-1.96,3.48-2.9,5.93-5.34,12.35-10.85,20.89-8.46,6.03,1.69,11.95,4.17,18.28,4.46,11.52.55,12.55-1.13,23.5,4.58,1.94.91,4.04,1.8,6.09,2.42,3.73.29,7.57.03,11.32.11,3.66.07,6.84-2.53,10.45-2.84,5.57-.47,10.99,1.73,16.54,1.8,3.53.13,7.12-.52,10.45-1.69,3.36-1.59,7.07-1.31,10.45.12"/><path class="b" d="M8.52,217.35c3.34,1.55,6.89,2.66,10.45,3.58,2.7.84,5.24,2.31,7.83,3.41,5.21,0,10.46,0,15.67,0,2.58,0,5.25,0,7.83,0,1.1,0,2.39,0,3.48,0,.52.09,1.3-.12,1.74-.39,3-2.44,6.07-5.02,9.58-6.72,7.91-4.16,16.48.23,24.37,2.17,5.68,1.57,11.62,1.91,17.41,2.9,1.42.27,2.99.67,4.35,1.17,1.06.41,2.31,1.02,3.48.88,9.86,0,19.74,0,29.6,0,2.01.09,4.08-.58,6.09-.55,3.17-.08,6.41.18,9.58.08,3.83-.1,7.68-.82,11.32-2.02,4.64-1.77,7.23-2.42,12.19-.75"/><path class="b" d="M8.52,209.91c1.98.88,4.07,1.83,6.09,2.61,2.35.81,4.85,1.54,6.96,2.89,2.08,1.22,4.14,2.71,6.09,4.13,1.39.18,2.95.06,4.35.09,8.7,0,17.42,0,26.11,0,1.28-.01,2.38-1.22,3.48-1.75,1.9-1.12,4-2.17,6.09-2.88,7.91-2.63,16.48-.98,24.37.91,4.94,1.14,9.86,2.6,14.8,3.73,5.21,0,10.46,0,15.67,0,6.08,0,12.2,0,18.28,0,2.58,0,5.25,0,7.83,0,1.69-.18,3.52-.43,5.22-.53,4.97-.3,10.01-.83,14.8-2.27,5.7-1.7,8.55-3.52,14.8-1.72"/><path class="b" d="M8.52,203.85c2,1.02,4.07,2.17,6.09,3.13,2.02.91,4.26,1.65,6.09,2.94,2.11,1.39,4.16,3.09,6.09,4.71,1.62.53,3.53.15,5.22.26,10.15,0,20.32,0,30.47,0,1.87.25,3.53-.98,5.22-1.58,2.24-.91,4.63-1.71,6.96-2.36,8.42-2.53,14.32-2.6,22.63.44,2.91,1.03,5.83,2.3,8.7,3.43,4.04.18,8.15.02,12.19.07,8.99,0,18,0,26.98,0,6.47-2.12,13.44-1.84,20.02-3.48,3.51-.76,6.96-2.03,10.45-2.9,2.56-.51,5.3-.3,7.83.22"/><path class="b" d="M8.52,199.92c2,1.24,4.05,2.65,6.09,3.82,1.67.96,3.63,1.67,5.22,2.76,6.57,4.6,3.1,3.58,11.32,3.67,6.95,0,13.94,0,20.89,0,5.5,0,11.04,0,16.54,0,3.87-1.62,7.55-3.85,11.32-5.69,6.79-3.68,13.55-2.3,20.02,1.27,2,1.05,4.08,2.25,6.09,3.28.75.38,1.8.9,2.61,1.14.43,0,1.31,0,1.74,0,7.53,0,15.1,0,22.63,0,2.87,0,5.83,0,8.7,0,3.97-2.29,8.55-3.14,13.06-3.55,4.67-.47,9.38-1.13,13.93-2.33,2.59-.62,5.21-1.53,7.83-1.95,2.27-.32,4.69-.24,6.96.08"/><path class="b" d="M8.52,197.57c2,1.45,4.03,3.09,6.09,4.44,1.96,1.18,4.11,2.28,6.09,3.42,5.5,0,11.04,0,16.54,0,5.79,0,11.62,0,17.41,0,4.63,0,9.3,0,13.93,0,.45.02,1.3-.02,1.74-.09,1.11-.71,2.41-1.58,3.48-2.34,2.62-1.8,5.16-3.89,7.83-5.61,6.72-4.29,13.12-1.9,19.15,2.27,3.31,2.12,6.55,4.81,10.45,5.74,4.04.05,8.14,0,12.19.02,3.46,0,6.99,0,10.45,0,1.39,0,2.96,0,4.35,0,1.43-.46,3-1.1,4.35-1.77,6.43-3.32,13.96-2.55,20.89-3.87,6.69-1.01,13.15-3.86,20.02-3.29"/><path class="b" d="M8.52,195.04c2.55,1.9,4.98,4.24,7.83,5.67,5.5,0,11.04,0,16.54,0,12.18,0,24.38,0,36.56,0,9.38-5.66,14.85-16.69,26.98-9.25,4.42,2.4,10.09,8.6,14.8,9.25,6.08,0,12.2,0,18.28,0,1.99,0,4.1,0,6.09,0,1.39-.08,3.03.24,4.35-.27,2.57-.96,5.1-2.34,7.83-2.8,4.87-.96,9.92-.99,14.8-1.89,7.03-1.15,13.74-4,20.89-4.44"/><path class="b" d="M8.52,191.12c2.28,1.61,4.49,3.55,6.96,4.87,5.5,0,11.04,0,16.54,0,11.6,0,23.22,0,34.82,0,1.26-.24,2.42-1.33,3.48-2,2.04-1.43,4.13-3.04,6.09-4.57,3.28-2.59,6.85-5.7,11.32-5.37,6.22.49,10.93,5.27,15.67,8.84,4.68,3.54,3.82,3.15,9.58,3.11,4.92,0,9.88,0,14.8,0,2.87-.1,5.87.23,8.7-.16,3.54-.76,6.87-2.5,10.45-3.1,5.48-.82,11.14-.66,16.54-2.05,6.74-1.69,13.21-4.43,20.02-5.87"/><path class="b" d="M8.52,186.22c2.82,1.76,5.59,3.82,8.7,5.04,4.33.01,8.72,0,13.06,0,9.86,0,19.74,0,29.6,0,1.4-.06,2.98.15,4.35-.17,1.74-.97,3.56-2.11,5.22-3.21,2.6-1.72,5.23-3.59,7.83-5.31,2.56-1.75,5.48-3.46,8.7-3.19,6.05.49,10.87,4.79,15.67,8.1,1.36.97,2.91,2.03,4.35,2.87.73.42,1.72,1.07,2.61.9,5.79-.08,11.63.16,17.41-.1,6.08-1.51,12.18-3.13,18.28-4.55,4.59-.7,9.33,0,13.93-.68,4.55-.57,8.87-2.35,13.06-4.14,4.03-1.58,8.11-3.21,12.19-4.66"/><path class="b" d="M8.52,180.97c2.83,1.44,5.66,3.13,8.7,4.07,2.52.76,5.23,1.15,7.83,1.49,1.99,0,4.1,0,6.09,0,7.82,0,15.68,0,23.5,0,1.99,0,4.1,0,6.09,0,.85-.26,1.86-.89,2.61-1.33,5.61-3.09,13.84-10.32,20.02-10.6,6.76.06,12.41,4.54,18.28,7.34,13.24,6.97,17.4,2.69,30.47-.4,2.55-.6,5.24-1.06,7.83-1.41,1.98-.27,4.09-.64,6.09-.51,4.91.35,9.96,1.26,14.8-.13,3.67-.95,7.09-2.83,10.45-4.54,4.05-1.86,8.13-3.82,12.19-5.67"/><path class="b" d="M8.52,176.15c2.56,1.04,5.17,2.23,7.83,2.97,3.09.87,6.4.71,9.58.78,3.21.05,6.48.43,9.58,1.3,2.76,1.02,5.82.47,8.7.6,4.92,0,9.88,0,14.8,0,2.02.19,3.61-1.66,5.22-2.62,2.29-1.64,4.63-3.42,6.96-5,8.94-6.23,12.97-4.94,22.63-1.56,4.5,1.57,9.21,2.66,13.93,3.33,2.28.31,4.64.95,6.96.81,5.01-.31,9.84-2.09,14.8-2.77,3.43-.54,6.98-.64,10.45-.65,1.99,0,4.11-.18,6.09.14,5.63,1.03,11.05,2.14,16.54-.28,3.36-1.36,6.44-3.47,9.58-5.26,3.81-1.86,7.53-4.02,11.32-5.92"/><path class="b" d="M8.52,172.67c10.35,3.88,9.79,2.71,20.02,2.71,1.72.08,3.56.36,5.22.8,1.11.24,2.34.9,3.48.91,8.11,0,16.26,0,24.37,0,4.88-3.67,9.15-8.44,14.8-10.97,2.44-1.1,5.23-1.15,7.83-.74,4.33.69,8.65,1.88,13.06,2.04,3.46.19,6.98-.19,10.45-.2,2.6-.03,5.23.74,7.83.6,3.47-.08,6.98-.57,10.45-.6,3.18-.06,6.43.26,9.58.7,3.15.56,6.4.6,9.58.84,2.88.41,5.79,1.24,8.7,1.35,6.23.43,11.63-3.25,16.54-6.61,1.88-1.32,4.08-2.36,6.09-3.45,2.28-1.3,4.61-2.78,6.96-3.95"/><path class="b" d="M8.52,171.39c.79.3,1.8.75,2.61.97,1.7,0,3.52,0,5.22,0,4.04,0,8.14,0,12.19,0,11.6,0,23.22,0,34.82,0,1.97-1.01,3.48-3.04,5.22-4.4,3.86-3.41,8.46-7.01,13.93-6.41,4.91.34,9.87,1.24,14.8.61,4.91-.44,9.84-2.3,14.8-1.37,4.03.51,8.17.42,12.19,1.03,4.42.58,8.72,2,13.06,2.98,2.84.78,5.82.37,8.7.59,3.44.37,6.99,1,10.45.4,5.25-.84,9.64-4.17,13.93-7.08,1.87-1.34,4.08-2.36,6.09-3.46,2.29-1.31,4.61-2.83,6.96-4.05"/><path class="b" d="M8.52,167.63c16.53,0,33.08,0,49.62,0,2.29,0,4.68,0,6.96,0,1.84-.97,3.46-2.6,5.22-3.7,4.82-3.37,8.93-4.6,14.8-4.16,4.07.19,8.25.02,12.19-1.13,4.09-1.08,7.97-3.15,12.19-3.73,4.04-.11,8.17.12,12.19.57,6.25.68,12.03,3.71,18.28,4.32,1.41.12,2.96-.18,4.35-.36,1.69-.15,3.53-.11,5.22-.09,8.47.42,13.96-2.61,20.89-6.98,1.9-1.21,4.12-2.09,6.09-3.14,2.32-1.29,4.63-2.85,6.96-4.13"/><path class="b" d="M8.52,162.9c13.63,0,27.28,0,40.91,0,5.79-.04,11.62.08,17.41-.05,3.25-1.8,6.8-3.22,10.45-3.97,3.4-.84,6.97-.69,10.45-.71,5.93.08,11.45-2.39,16.54-5.21,1.64-.85,3.45-1.74,5.22-2.27,1.65-.47,3.52-.54,5.22-.74,4.04-.43,8.2-.32,12.19.52,4.88.88,9.77,3.04,14.8,2.22,1.97-.51,4.06-1.06,6.09-1.25,3.47-.38,7.05-.62,10.45-1.48,3.61-.88,7.1-2.41,10.45-4,2.51-1.29,5.28-2.24,7.83-3.44,2.35-1.22,4.65-2.77,6.96-4.06"/><path class="b" d="M8.52,158.17c13.63,0,27.28,0,40.91,0,5.79,0,11.62,0,17.41,0,1.71-.24,3.5-.86,5.22-1.07,2.57-.41,5.27-.56,7.83-1.02,2.85-.5,5.83-.05,8.7-.02,6.08.32,11.62-2.6,16.54-5.88,2.65-1.77,5.59-3.21,8.71-3.93,3.37-.98,6.92-1.67,10.45-1.65,5.8-.16,11.68,2.16,17.41.61,2.52-.97,5.17-1.87,7.83-2.34,3.75-.72,7.6-1.26,11.32-2.16,3.51-.82,7.02-1.95,10.45-3.07,1.69-.57,3.59-1.01,5.22-1.76,2.36-1.09,4.66-2.55,6.96-3.74"/><path class="b" d="M8.52,153.45c17.11,0,34.24,0,51.36,0,1.7,0,3.53,0,5.22,0,1.39-.25,2.94-.57,4.35-.66,2.58-.2,5.25,0,7.83-.1,1.71-.05,3.51-.58,5.22-.48,2.9.14,5.8.94,8.7,1.04,6.7.46,12.19-3.93,17.41-7.5,3.22-2.05,6.84-3.61,10.45-4.86,3.34-1.1,6.93-1.55,10.45-1.51,3.75,0,7.66.48,11.32-.57,2.88-1.05,5.69-2.55,8.7-3.23,8.6-2.15,17.57-2.62,26.11-5.01,2.68-.93,5.23-2.42,7.83-3.54"/><path class="b" d="M8.52,148.72c17.11,0,34.24,0,51.36,0,1.4-.03,2.96.08,4.35-.09,1.65-.54,3.49-.87,5.22-.98,3.75-.22,7.59.42,11.32-.27,2.35-.13,4.72.62,6.96,1.2,1.38.26,2.96.09,4.35.14,1.99,0,4.1,0,6.09,0,1.18-.2,2.44-.89,3.48-1.46,2.76-1.57,5.28-3.68,7.83-5.55,2.97-2.1,6.2-4.01,9.58-5.38,3.29-1.33,6.91-1.91,10.45-1.89,3.75-.03,7.65.52,11.32-.51,2.89-1.04,5.68-2.59,8.7-3.29,7.95-2.15,16.32-1.89,24.37-3.43,3.32-.6,6.39-2.3,9.58-3.34"/><path class="b" d="M8.52,144c19.15,0,38.31,0,57.45,0,2.88.08,5.83-.14,8.7-.25,2.3.04,4.67-.34,6.96-.42,1.42.05,2.97.36,4.35.67,1.4,0,2.96,0,4.35,0,1.7,0,3.53,0,5.22,0,1.1-.04,2.43.15,3.48-.23,6.92-3.16,11.88-9.63,19.15-12.21,3.57-1.4,7.52-1.71,11.32-1.33,3.16.27,6.39.92,9.58.64,2.44-.15,4.68-1.45,6.96-2.18,2.79-.92,5.78-1.5,8.7-1.82,6.06-.68,12.23-.36,18.28-1.18,3.6-.4,6.97-2.02,10.45-2.95"/><path class="b" d="M8.52,138.35c1.99.13,4.1.17,6.09-.02,1.7-.16,3.5-.65,5.22-.57,2.06.06,4.19.62,6.09,1.39,1.09.19,2.38.1,3.48.12,20.02,0,40.05,0,60.06,0,2.58,0,5.25,0,7.83,0,7.56-2.86,12.86-10.1,20.89-12.06,3.66-1.03,7.57-.97,11.32-.52,3.73.41,7.58,1.15,11.32.42,2.32-.55,4.61-1.61,6.96-2.07,3.11-.71,6.39-.98,9.58-.96,5.79,0,11.63,1,17.41.33,2.94-.41,5.83-1.49,8.7-2.2"/><path class="b" d="M8.52,133.09c8.33-.04,12.06-5.03,20.89-1.77,9.19,3.94,2.87,3.18,13.93,3.22,11.89,0,23.8,0,35.69,0,5.79,0,11.62,0,17.41,0,1.87-.39,3.56-1.75,5.22-2.65,4.23-2.54,8.3-5.64,13.06-7.15,6.75-2.24,13.94-1,20.89-1.11,3.26.01,6.48-.81,9.58-1.75,4.23-1.1,8.71-1.37,13.06-.92,10.73,1.22,14,3.51,25.24.39"/><path class="b" d="M8.52,128.36c6.46-.17,11.31-5.16,17.41-6.53,7.92-1.89,13.7,4.54,20.02,7.98,3.17,0,6.41,0,9.58,0,8.99,0,18,0,26.98,0,3.17,0,6.41,0,9.58,0,1.09,0,2.39,0,3.48,0,.49.08,1.32-.11,1.74-.37,4.55-2.28,9.11-4.73,13.93-6.41,5.02-1.72,10.43-1.81,15.67-2.26,4.97-.38,9.96-1.17,14.8-2.4,5.07-1.42,10.42-2.19,15.67-1.42,10.67,1.64,14.44,5.08,26.11,2.67"/><path class="b" d="M8.52,123.5c12.16-1.15,17.84-18.2,31.34-9.6,2.36,1.43,4.62,3.24,6.96,4.69,3.35,1.7,6.54,3.82,9.58,6.03.96.74,2.35.41,3.48.47,1.4,0,2.96,0,4.35,0,4.63,0,9.3,0,13.93,0,6.08-.04,12.2.09,18.28-.05,5.9-2.19,12.07-3.84,18.28-4.87,5.54-.69,11.18-1.26,16.54-2.92,8.16-2.57,16.53-5.84,25.24-4.75,5.37.57,10.43,2.77,15.67,3.93,3.7.74,7.57.64,11.32.4"/><path class="b" d="M8.52,117.43c14.03-2.65,18.64-23.59,34.82-11.77,2.76,2.03,5.95,3.55,8.7,5.57,4.22,3.13,8.22,6.78,13.06,8.95,1.95.4,4.11.09,6.09.18,3.46,0,6.99,0,10.45,0,4.33,0,8.72,0,13.06,0,2.28-.28,4.67-.51,6.96-.66,4.07-.2,8.18-.62,12.19-1.38,3.47-.48,7.03-.85,10.45-1.67,5.41-1.2,10.47-3.63,15.67-5.49,6.43-1.96,13.31-3.35,20.02-2.21,4.12.64,8.12,2.07,12.19,2.95,3.71.69,7.56.92,11.32,1.23"/><path class="b" d="M8.52,110.16c3.82-1.07,7.35-3.2,10.45-5.63,5.04-4.03,10.33-9.92,17.41-8.97,3.46.48,6.56,2.38,9.58,4.04,1.67.94,3.59,1.71,5.22,2.73,3.52,2.15,6.86,4.75,10.45,6.8,4.48,2.7,9.62,4.15,14.8,4.71,3.16.43,6.38,1.03,9.58,1.09,3.75.13,7.57.11,11.32.18,3.75.04,7.58.17,11.32-.19,7.83-1.29,15.88-1.68,23.5-4.04,4.58-1.42,9.22-2.82,13.93-3.78,4.28-1.07,8.64-2.17,13.06-2.4,4.06-.25,8.17.23,12.19.81,4.09.49,8.23,1.14,12.19,2.34"/><path class="b" d="M8.52,102.94c3.93-1.15,7.77-2.85,11.32-4.89,5.26-3.19,10.98-6.86,17.41-6.07,3.61.36,7.04,1.83,10.45,2.98,6.12,1.87,11.56,5.45,17.41,7.96,3.93,1.77,8.09,3.14,12.19,4.44,3.65,1.31,7.44,2.43,11.32,2.74,8.72.86,17.51-.16,26.11-1.59,4.91-.6,9.89-.93,14.8-1.57,3.47-.43,6.99-.99,10.45-1.51,2.9-.38,5.89-.8,8.7-1.66,11.8-3.7,22.83-7.82,34.82-1.96"/><path class="b" d="M8.52,96.65c3.77-.77,7.6-1.62,11.32-2.61,4.01-1.13,8.05-2.43,12.19-3.04,7.23-1.08,14.65-.04,21.76,1.43,7.3,1.72,14.22,4.8,20.89,8.17,5.18,2.61,10.5,6.04,16.54,5.59,2.58-.04,5.26.09,7.83-.07,2.6-.37,5.26-.93,7.83-1.45,5.74-1.13,11.59-1.93,17.41-2.5,4.32-.4,8.72-.54,13.06-.61,3.77-.08,7.65.01,11.32-.99,12.91-3.36,21.08-11.28,34.82-4.37"/><path class="b" d="M8.52,91.84c5.21-.22,10.46,0,15.67-.16,4.36-.14,8.75-.68,13.06-1.38,4.6-.79,9.26-1.51,13.93-1.61,3.47-.18,7.04-.15,10.45.6,6.09,1.28,11.45,4.71,16.54,8.15,2.18,1.49,4.51,2.99,6.96,3.98,1.99.1,4.1.02,6.09.05,2.87,0,5.83,0,8.7,0,1.69-.07,3.55.16,5.22-.15,3.11-.88,6.4-1.2,9.58-1.75,3.47-.67,6.96-1.57,10.45-2.12,6.03-1.08,12.2-.71,18.28-.38,4.75.16,9.49-.99,13.93-2.62,10.89-4.13,14.18-6.42,26.11-2.78"/><path class="b" d="M8.52,88.67c6.93.91,13.85,3.02,20.89,2.56,5.45-.35,10.54-2.54,15.67-4.22,2.24-.73,4.69-1.08,6.96-1.68,3.39-.85,6.94-1.61,10.45-1.28,5.56.47,10.42,3.62,14.8,6.85,1.97,1.45,4.02,3.02,6.09,4.31,1.06.55,2.23,1.64,3.48,1.51,4.04,0,8.14,0,12.19,0,6.37-.05,12.78.09,19.15-.05,4.84-1.66,9.68-3.63,14.8-4.22,6.94-.93,13.97,1.01,20.89-.22,5.64-.78,10.94-3.15,16.54-4.1,1.98-.36,4.1-.15,6.09-.02,2.28.11,4.68.14,6.96.25"/><path class="b" d="M8.52,86.47c12.98,3.64,19.75,5.4,32.21-1.15,3.05-1.57,6.27-2.92,9.58-3.83,2.59-.91,5.19-2.05,7.83-2.81,12.36-3.99,21.03,6.61,30.47,12.63,1.16,1.03,2.93.62,4.35.7,1.99,0,4.1,0,6.09,0,5.79,0,11.62,0,17.41,0,3.46,0,6.99,0,10.45,0,1.47-.22,2.93-1.13,4.35-1.55,2.49-.88,5.19-1.48,7.83-1.64,4.05-.24,8.14.49,12.19.57,4.37.16,8.78-.4,13.06-1.23,2.85-.52,5.8-1.11,8.7-1.1,3.48.31,7.03-.08,10.45-.78"/><path class="b" d="M8.52,83.09c14.51,4.99,20.88,4.59,33.95-3.37,2.45-1.48,5.17-2.62,7.83-3.63,2.02-.89,4.08-1.98,6.09-2.87,4.03-1.89,8.71-2.92,13.06-1.54,8.6,2.91,15,9.87,21.76,15.61,13.92,0,27.86,0,41.78,0,1.4,0,2.96,0,4.35,0,1.98-.29,4.09-.51,6.09-.36,4.61.53,9.3.33,13.93.36,4.05-.06,8.17.24,12.19-.41,2.28-.34,4.68-.11,6.96-.24,2.35-.22,4.74-.93,6.96-1.69"/><path class="b" d="M8.52,79.8c8.33,3.13,18.05,4.25,26.11-.21,4.79-2.36,9.03-5.82,13.93-7.95,6.08-2.77,12.06-7.73,19.15-6.35,5.91,1.17,12.11,6.12,16.54,10.12,1.73,1.64,3.54,3.47,5.22,5.16,1.7,1.76,1.78,2.13,4.35,1.98,29.88,0,59.78,0,89.66,0"/><path class="b" d="M8.52,77.66c1.67.35,3.53.1,5.22.17,3.17,0,6.41,0,9.58,0,2.29,0,4.68,0,6.96,0,1.48-.41,3-1.24,4.35-1.95,3.61-1.97,6.97-4.48,10.45-6.67,3.13-1.87,6.49-3.5,9.58-5.45,4.37-2.68,9.78-4.5,14.8-2.56,4.53,1.68,8.38,4.86,12.19,7.75,3.37,2.72,6.28,6.1,9.58,8.88h92.27"/><path class="b" d="M8.52,73.1c5.5,0,11.04,0,16.54,0,3.16-.11,6.45.24,9.58-.17,3.89-2.38,7.5-5.32,11.32-7.81,1.65-1.07,3.56-2.01,5.22-3.07,2.24-1.39,4.55-2.9,6.96-3.98,5.45-2.6,10.88-1.37,15.67,1.98,3.58,2.49,7.13,5.19,10.45,8.03,1.1.94,2.39,2.08,3.48,3.03,1,.76,2.08,2.23,3.48,1.99,5.5,0,11.04,0,16.54,0,8.11,0,16.26,0,24.37,0,17.11,0,34.24,0,51.36,0"/><path class="b" d="M8.52,68.37c9.56-.09,19.17.17,28.73-.1,3.15-2.44,6.23-5.14,9.58-7.32,3.52-1.98,6.86-4.42,10.45-6.27,7.25-3.84,13.3-.96,19.15,3.82,4.09,3.19,8.1,6.59,12.19,9.77,17.97.31,35.99,0,53.97.11,8.11,0,16.26,0,24.37,0,5.5,0,11.05.1,16.54-.34"/><path class="b" d="M8.52,63.65c6.37,0,12.78,0,19.15,0,3.75-.09,7.59.2,11.32-.13,2.74-2.42,5.54-4.98,8.7-6.84,3.24-1.67,6.29-3.87,9.58-5.46,11.49-5.85,19.18,3.95,27.86,10.05,1.07.77,2.3,1.78,3.48,2.38,1.99,0,4.1,0,6.09,0,4.33,0,8.72,0,13.06,0,20.6,0,41.21,0,61.8,0,1.43.15,2.96-.3,4.35-.54,3.16-.22,6.41-.25,9.58-.17"/><path class="b" d="M8.52,58.92c6.95,0,13.94,0,20.89,0,3.74-.1,7.59.21,11.32-.14,2.83-2.5,6.05-4.64,9.58-6.01,2.84-1.33,5.71-2.85,8.7-3.81,9.69-3.31,16.44,2.08,24.37,6.64,1.66.9,3.49,1.81,5.22,2.58.44.19,1.29.56,1.74.73.44,0,1.3,0,1.74,0,5.79,0,11.62,0,17.41,0,17.7,0,35.4,0,53.1,0,1.99,0,4.1,0,6.09,0,1.44-.17,2.89-1.01,4.35-1.12,3.49-.25,7.03.51,10.45,1.12"/><path class="b" d="M8.52,54.19c11.31-.02,22.64.04,33.95-.02,3.1-2.21,6.86-3.09,10.45-4.16,4.79-1.49,9.75-2.85,14.8-2.8,3.22,0,6.5.58,9.58,1.54,3.11,1.09,6.3,2.19,9.58,2.66,2.88.5,5.85.92,8.7,1.57,1.72.28,3.48,1.14,5.22,1.22,4.33,0,8.72,0,13.06,0,23.21.02,46.44-.03,69.64,0"/><path class="b" d="M8.52,49.47c12.47,0,24.96,0,37.43,0,4.02-.69,8.16-.98,12.19-1.69,4.93-.78,9.84-1.91,14.8-2.5,3.52-.56,6.95.05,10.45-.11,4.32-.34,8.75-1.11,13.06-.22,3.74.71,7.24,2.48,10.45,4.47,8.11.16,16.26,0,24.37.06,17.41,0,34.82,0,52.23,0"/><path class="b" d="M8.52,44.74c17.99,0,35.98,0,53.97,0,1.09,0,2.39,0,3.48,0,2.32-.76,4.69-1.72,6.96-2.6,1.67-.64,3.49-1.29,5.22-1.72,1.39-.32,2.98-.51,4.35-.93,5.83-1.89,11.43-3.97,17.41-1.23,2.48,1.06,4.81,2.66,6.96,4.26,1.09.7,2.17,1.99,3.48,2.22,7.53,0,15.1,0,22.63,0,16.82,0,33.66,0,50.49,0"/><path class="b" d="M8.52,40.02c16.53,0,33.08,0,49.62,0,3.75,0,7.57,0,11.32,0,1.87-.36,3.51-1.86,5.22-2.67,2.43-1.48,5.22-2.37,7.83-3.44,2.81-1.25,5.67-2.72,8.7-3.35,8.42-1.94,14.61,5.17,20.89,9.45h71.38"/><path class="b" d="M8.52,35.29c14.79,0,29.6,0,44.39,0,6.95-.07,13.95.13,20.89-.08,3.75-2.73,8.11-4.53,12.19-6.69,5.44-2.85,11.02-3.42,16.54-.39,3.96,2.03,7.4,5.06,11.32,7.16,7.24,0,14.52,0,21.76,0,15.95,0,31.92,0,47.88,0"/><path class="b" d="M8.52,26.16c3.14,1.52,6.26,3.29,9.58,4.41,7.24,0,14.52,0,21.76,0,6.37,0,12.78,0,19.15,0,4.04,0,8.14,0,12.19,0,1.4,0,2.96,0,4.35,0,.8,0,1.87.08,2.61-.31,3.37-1.94,6.84-3.93,10.45-5.4,6.63-2.79,12.97-1.34,19.15,1.8,3.32,1.62,6.75,3.34,10.45,3.9,2.58-.01,5.25.03,7.83-.02,2.93-.46,5.85-1.37,8.7-2.12,3.37-.94,7.03-1.48,10.45-.46,2.11.54,4.18,1.58,6.09,2.61,3.17,0,6.41,0,9.58,0,7.53,0,15.1,0,22.63,0"/><path class="b" d="M8.52,17.61c3.24,1.72,6.4,3.76,9.58,5.59,1.69.84,3.36,2.24,5.22,2.63,4.92,0,9.88,0,14.8,0,6.37,0,12.78,0,19.15,0,5.5,0,11.04,0,16.54,0,2.28-.08,4.7.18,6.96-.14,1.65-.93,3.48-1.86,5.22-2.61,6.54-3,13.98-3.2,20.89-1.47,4.83,1.18,9.78,2.45,14.8,2.05,13.73-.8,21.74-9.36,33.95,2.17,9.28.02,18.58,0,27.86,0"/><path class="b" d="M8.52,10.93c5.62,2.72,10.3,7.05,15.67,10.18,12.18,0,24.38,0,36.56,0,4.33,0,8.72,0,13.06,0,2.28-.09,4.71.22,6.96-.17,15.1-7.85,32.64-2.21,48.75-4.81,4.07-.56,8.14-1.45,12.19-2.17,3.84-.89,7.96-.17,11.32,1.89,2.56,1.36,4.6,3.66,6.96,5.27h23.5"/></svg>