<?xml version="1.0" encoding="UTF-8"?><svg id="a" xmlns="http://www.w3.org/2000/svg" width="1920" height="2400" viewBox="0 0 192 240"><defs><style>.b{fill:none;stroke:#fff;stroke-miterlimit:10;stroke-width:.4px;}.c{stroke-width:0px;}</style></defs><rect class="c" x="0" width="192" height="240"/><path class="b" d="M9.45,232.14c11.76,0,23.55,0,35.31,0,2.84,0,5.77,0,8.61,0,1.15-.11,2.34-.86,3.44-1.16,1.92-.62,4.02-1.01,6.03-1.22,10.15-.83,12.66-.08,21.53-5.98,5.47-3.36,10.71-3.83,16.36-.58,2.89,1.54,5.6,3.63,8.61,4.94,6.33,2.17,13.23,1.25,19.81,1.51,2.58.09,5.27.39,7.75,1.14.78.24,1.84.63,2.58.97.35.26,1.28.49,1.72.39,13.77,0,27.56,0,41.34,0"/><path class="b" d="M9.45,227.47c12.34,0,24.69,0,37.03,0,4.29,0,8.63,0,12.92,0,2.28-.27,4.6-1.02,6.89-1.27,7.12-.97,11.02-1.77,17.22-5.6,4.98-2.88,10.22-3.82,15.5-1.09,3.28,1.56,6.22,3.9,9.47,5.52,5.09,2.35,10.98,1.46,16.36.83,3.68-.47,7.5-.97,11.2-.39,2.09.26,4.1,1.23,6.03,2,4.29,0,8.63,0,12.92,0,9.18,0,18.38,0,27.56,0"/><path class="b" d="M9.45,222.79c12.62,0,25.27,0,37.89,0,5.73,0,11.5,0,17.22,0,6.12-1.43,12.39-2.75,18.08-5.5,5.37-2.58,10.8-3.53,16.36-.89,3.26,1.42,6.24,3.55,9.47,5.03,4.85,2.11,10.41,1.38,15.5.7,3.97-.57,8.05-1.27,12.06-.76,1.74.2,3.55.77,5.17,1.42,4.58,0,9.2,0,13.78,0,9.18,0,18.38,0,27.56,0"/><path class="b" d="M9.45,218.12c13.49,0,26.99,0,40.48,0,5.15-.02,10.35.03,15.5-.02,5.35-1.78,10.96-2.73,16.36-4.31,5.7-1.94,11.39-3.15,17.22-.96,3.53,1.18,6.82,3.14,10.33,4.35,7,2.13,14.4.23,21.53-.02,1.97-.07,4.08.02,6.03.35,1.38.27,2.88.77,4.31.61,13.77,0,27.56,0,41.34,0"/><path class="b" d="M9.45,213.44c17.22,0,34.45,0,51.67,0,1.13.09,2.38-.1,3.44-.5,1.37-.39,2.91-.77,4.31-1.07,3.67-.79,7.47-1.23,11.2-1.63,6.95-1.05,12.65-3.07,19.81-1.2,3.49.81,6.86,2.25,10.33,3.11,6.5,1.5,13.22.39,19.81.34,1.97-.01,4.07.09,6.03.37,1.67.31,3.45.71,5.17.57,13.77,0,27.56,0,41.34,0"/><path class="b" d="M9.45,208.76c15.21,0,30.43,0,45.64,0,1.11.08,2.36-.38,3.44-.59,1.38-.31,2.92-.61,4.31-.83,3.68-.6,7.47-.84,11.2-.84,3.13-.05,6.36.26,9.47-.17,5.97-.94,12.05-2.19,18.08-1.06,4.32.66,8.54,2.16,12.92,2.44,5.73.39,11.49-.55,17.22-.48,2.28.02,4.66.22,6.89.68,1.39.22,2.88.94,4.31.85,13.2,0,26.42,0,39.61,0"/><path class="b" d="M9.45,204.09c5.72-.08,11.51.16,17.22-.1,5.68-.95,11.5-.41,17.22-.64,2.59-.07,5.21-.6,7.75-1.03,3.11-.48,6.33-.74,9.47-.71,6.65-.02,13.19,1.55,19.81,1.91,4.91,0,9.74-1.44,14.64-1.61,3.44-.18,6.95.19,10.33.84,3.39.64,6.86,1.51,10.33,1.26,8.33-.46,16.6-4.09,24.97-2.15,3.39.83,6.82,2.14,10.33,2.24,4.01-.07,8.12.32,12.06-.65,4.5-.79,9.25-2.57,13.78-1.06,1.09.35,2.39.86,3.44,1.32,0,0,.86.37.86.37,0,0,.86.03.86.03"/><path class="b" d="M9.45,199.41c2.55-.07,5.21.15,7.75-.11,3.82-1.72,7.9-3.06,12.06-3.65,6.84-1.08,13.8,0,20.67-.44,8.51-.45,16.79,1.91,24.97,3.9,1.64.47,3.48.27,5.17.31,2.84,0,5.77,0,8.61,0,8.03,0,16.09,0,24.11,0,2.84-.06,5.78.13,8.61-.09,6.75-1.7,13.59-4.55,20.67-3.54,5.66,1,11.49,1.84,17.22.85,5.21-.69,10.23-2.86,15.5-3.02,2.7.15,5.31,1.32,7.75,2.41"/><path class="b" d="M9.45,194.74c1.16.11,2.39-.21,3.44-.65,1.39-.48,2.93-1.02,4.31-1.54,4.2-1.61,8.48-3.26,12.92-4.06,5.69-1.11,11.54-.54,17.22.3,7.6.86,15.06,2.73,22.39,4.88,1.08.31,2.36.68,3.44.98,1.08.14,2.36.07,3.44.09,2.84,0,5.77,0,8.61,0,8.03,0,16.09,0,24.11,0,4.29-.03,8.63.05,12.92-.03,6.25-1.48,12.49-3.5,18.95-3.84,6.3-.18,12.67,1.06,18.95-.02,4.98-.65,9.73-2.6,14.64-3.55,2.59-.31,5.28.26,7.75.98"/><path class="b" d="M9.45,190.06c.47,0,1.27,0,1.72,0,1.44-.43,2.89-1.27,4.31-1.77,6.54-2.02,12.9-5.16,19.81-5.66,8.37-.63,16.08,3.43,24.11,5.1,2.26.56,4.62,1.1,6.89,1.62,1.37.29,2.89.79,4.31.71,7.45,0,14.94,0,22.39,0,6.3,0,12.64,0,18.95,0,4-.06,8.08.22,12.06-.36,4.59-.49,9.23-1.05,13.78-1.81,3.68-.66,7.43-1.47,11.2-1.08,6.32.54,12.83.97,18.95-1.04,2.62-.74,5.17-1.97,7.75-2.8,2.2-.66,4.6-.96,6.89-.95"/><path class="b" d="M9.45,185.38c1.97-.01,4.06.03,6.03-.02,2.24-.77,4.69-1.19,6.89-2.1,5.74-2.22,11.81-4.74,18.09-3.68,6.37.74,11.64,5.61,18.08,5.8,16.64,0,33.3,0,49.95,0,1.08-.02,2.37.06,3.44-.08.75-.22,1.81-.45,2.58-.58,1.95-.3,4.06-.34,6.03-.26,5.44.26,10.92,1.27,16.36.65,2.63-.18,5.18-1.24,7.75-1.68,5.2-.6,10.32,1.29,15.5,1.47,9.77.61,14.03-4.72,22.39-7.56"/><path class="b" d="M9.45,180.71c5.15,0,10.35,0,15.5,0,2.87-.83,5.64-2.28,8.61-2.82,3.4-.75,7.05-.55,10.33.62,1.77.51,3.41,1.71,5.17,2.2,4.58,0,9.2,0,13.78,0,10.04,0,20.1,0,30.14,0,4.86,0,9.78,0,14.64,0,1.19-.24,2.32-1.21,3.44-1.64,1.59-.69,3.44-1.06,5.17-1.09,3.51-.06,6.97.95,10.33,1.84,1.07.29,2.36.62,3.44.86,1.07.06,2.37.03,3.44.03,2.55,0,5.2,0,7.75,0,1.64-.53,3.42-1.12,5.17-1.06,2,.01,4.1.46,6.03.96,1.96.21,4.06.05,6.03.1,4,0,8.06,0,12.06,0,1.97.14,3.58-1.62,5.17-2.56,2.22-1.55,4.53-3.19,6.89-4.52"/><path class="b" d="M9.45,176.03c7.45,0,14.94,0,22.39,0,2.21-.65,4.57-1.18,6.89-1.12,2.03,0,4.1.54,6.03,1.12,6.59,0,13.22,0,19.81,0,13.49,0,26.99,0,40.48,0,9.49-8.17,15.29-4.41,25.84-1.53,3.06.79,6.34,1.24,9.47.67,1.4-.25,2.88-.87,4.31-.94,2.95-.18,5.87.85,8.61,1.81,4.58,0,9.2,0,13.78,0,1.97,0,4.06,0,6.03,0,3.29-1.73,6.17-4.37,9.47-6.12"/><path class="b" d="M9.45,171.36c7.45,0,14.94,0,22.39,0,2.19-.73,4.57-1.28,6.89-1.24,1.4.02,2.95.24,4.31.6.78.2,1.77.62,2.58.64,3.42,0,6.91,0,10.33,0,8.89,0,17.81,0,26.7,0,3.71,0,7.48,0,11.2,0,1.38,0,2.93,0,4.31,0,.83.02,1.91.11,2.58-.48,3.31-2.38,6.47-5.27,10.33-6.73,8.66-2.87,17.23,2.22,25.84,2.91,1.97.19,4.08.08,6.03-.24,4.72-.31,8.76,2.79,12.92,4.54,3.71,0,7.48,0,11.2,0,2.25-.09,4.67.22,6.89-.17,2.79-1.77,5.61-3.69,8.61-5.09"/><path class="b" d="M9.45,166.68c6.02,0,12.07,0,18.08,0,2.47-1.06,5.06-2.14,7.75-2.46,2.57-.34,5.28-.02,7.75.75,1.11.34,2.38.83,3.44,1.28.47.24,1.2.48,1.72.43,7.17,0,14.36,0,21.53,0,4.86,0,9.78,0,14.64,0,1.38,0,2.92,0,4.31,0,1.09-.04,2.41.15,3.44-.23,5.18-2.04,9.7-5.47,14.64-7.98,8.88-4.29,19.13-1.85,28.42-.4,2.54.42,5.18.71,7.75.82,5.54.96,9.68,5.36,14.64,7.7,3.12.21,6.34.03,9.47.09,1.07,0,2.37,0,3.44,0,.78,0,1.88.09,2.58-.34,3.06-1.75,6.14-3.68,9.47-4.88"/><path class="b" d="M9.45,162.01c2.56,0,5.2,0,7.75,0,1.09,0,2.36,0,3.44,0,.53.08,1.27-.11,1.72-.36,2.23-1.08,4.54-2.24,6.89-3.02,3.59-1.25,7.57-1.29,11.2-.16,3.24.86,6.22,2.75,9.47,3.53,2.84,0,5.77,0,8.61,0,3.13,0,6.34,0,9.47,0,1.08-.02,2.37.06,3.44-.09,1.08-.3,2.36-.67,3.44-.96,3.07-.93,6.35-1.14,9.47-1.77,4.11-.83,8.14-2.21,12.06-3.68,3.94-1.46,7.92-3.11,12.06-3.93,3.98-.57,8.07-.83,12.06-1.34,7.49-.89,15.11-.18,22.39,1.76,3.2,1.07,5.9,3.36,8.61,5.29,1.88,1.37,3.93,2.77,6.03,3.79,1.28.7,2.85,1.09,4.31.94,2.26-.07,4.65.16,6.89-.13,4.77-1.64,8.93-4.82,13.78-6.27"/><path class="b" d="M9.45,157.33c1.68-.03,3.49.08,5.17-.07,2.49-1.23,5.25-2.05,7.75-3.24,6.76-3.19,12.19-3.54,18.95-.18,2.8,1.22,5.55,3.05,8.61,3.49,4.58,0,9.2,0,13.78,0,4.8-.95,9.16-3.56,13.78-5.09,5.36-1.55,10.88-2.78,16.36-3.85,4.24-.76,8.61-1.18,12.92-1.16,3.43.04,6.95.43,10.33-.33,4.28-.8,8.55-2.06,12.92-2.33,5.32-.32,10.97.69,15.5,3.61,4.43,2.9,8.47,6.9,13.78,8.12,4.16,1,8.39-.59,12.06-2.48,3.69-1.77,7.31-3.88,11.2-5.19"/><path class="b" d="M9.45,152.65c.79,0,1.81.03,2.58-.1,1.38-.73,2.88-1.58,4.31-2.21,3.67-1.29,7.33-2.95,11.2-3.57,4.53-.74,9.02.93,12.92,3.13,1.38.75,2.9,1.63,4.31,2.34.73.51,1.75.43,2.58.41,4,0,8.06,0,12.06,0,1.08-.02,2.37.06,3.44-.09,1.1-.43,2.38-1,3.44-1.52,3.19-1.56,6.29-3.47,9.47-5.03,7.99-3.67,17.2-4.58,25.84-3.16,3.72.52,7.44,1.55,11.2,1.8,3.82.05,7.54-1.26,11.2-2.23,5.58-1.65,11.71-2.27,17.22-.05,4.07,1.51,7.38,4.56,11.2,6.55,6.12,3.45,11.47,2.08,17.22-1.32,4.24-2.26,8.53-4.59,12.92-6.55"/><path class="b" d="M9.45,147.98c.47.01,1.27-.01,1.72-.06.47-.2,1.27-.62,1.72-.83,1.07-.52,2.33-1.11,3.44-1.52,10.69-3.2,15.04-4.13,24.97,1.87.71.57,1.72.58,2.58.54,1.38,0,2.92,0,4.31,0,3.71,0,7.48,0,11.2,0,.77,0,1.81,0,2.58,0,2.17-.78,4.1-2.42,6.03-3.68,8.26-6.04,12.52-8.92,23.25-7.9,4.4.49,8.69,1.84,12.92,3.08,3.34.93,6.83,2.02,10.33,1.78,7.19-.67,14.2-3.88,21.53-2.68,4.63.55,8.83,2.74,12.92,4.84,7.5,3.83,12.98,2.27,19.81-2.02,2.16-1.36,4.57-2.51,6.89-3.57,2.25-1.12,4.58-2.36,6.89-3.36"/><path class="b" d="M9.45,142.81c2.28-.79,4.55-1.9,6.89-2.5,2.26-.41,4.63-.72,6.89-1.15,5.81-1.16,11.28.17,16.36,3.08.45.23,1.28.7,1.72.94,1.66.27,3.49.07,5.17.13,3.71,0,7.48,0,11.2,0,1.09-.04,2.4.14,3.44-.22,1.44-1,2.97-2.23,4.31-3.37,2.86-2.45,5.63-5.16,8.61-7.47,2.68-2.16,5.97-3.73,9.47-3.61,8.28.13,15.41,5.15,23.25,7.17,4.2,1.24,8.66.81,12.92.13,20.63-3.79,27.86,8.2,41.34,2.86,3.58-1.39,6.86-3.59,10.33-5.21,3.64-1.45,7.47-2.62,11.2-3.82"/><path class="b" d="M9.45,136.69c2.26-.6,4.56-1.48,6.89-1.8,1.68-.13,3.5-.07,5.17-.33,4.56-.66,9.33-1.08,13.78.41,2.67.82,5.25,2.12,7.75,3.35,1.58.62,3.5.18,5.17.31,3.13,0,6.34,0,9.47,0,.92.18,1.88-.52,2.58-1.03,1.13-.81,2.41-1.87,3.44-2.79,4.93-4.05,11.49-13.44,18.08-13.3,3.98.03,7.7,1.91,11.2,3.63,4.15,2.09,8.35,4.37,12.92,5.36,5.97,1.35,12.06-.74,18.08-.24,6.55.22,12.56,3.28,18.95,4.34,9.94,1.77,16.31-1.54,24.97-5.64,4.54-2.2,9.7-2.32,14.64-2.67"/><path class="b" d="M9.45,130.84c1.97-.38,4.03-.92,6.03-1.11,1.68-.16,3.48.24,5.17.08,3.43-.25,6.88-1.1,10.33-1.11,3.22-.04,6.47.68,9.47,1.8,3.14,1.12,6.19,2.77,9.47,3.44,1.38,0,2.92,0,4.31,0,1.8-.25,3.61-1.09,5.17-1.99,4.21-2.55,7.65-6.25,11.2-9.61,3.46-3.27,7.75-7.36,12.92-5.85,4.31,1.08,8.09,3.66,12.06,5.56,17.34,8.53,17.81-4.07,39.61,6.45,6.38,3.1,12.51,2.17,18.95-.21,5.46-1.95,10.63-4.93,16.36-6.05,4.02-.8,8.12.3,12.06,1.07"/><path class="b" d="M9.45,125.87c1.97-.29,4.03-.72,6.03-.78,1.98-.02,4.04.56,6.03.23,4.86-.67,9.67-2.46,14.64-1.98,5.12.3,9.72,2.89,14.64,4.04,11.14,2.14,17.73-9.36,26.7-13.52,6.07-2.48,13.14,3.55,18.95,5.27,3.56,1.27,7.47,1.67,11.2,1.03,2.58-.4,5.16-1.3,7.75-1.66,7.25-1.28,13.6,2.32,19.81,5.51,2.13,1.01,4.49,1.99,6.89,1.98,4.88-.2,9.4-2.46,13.78-4.43,5.88-2.68,12.33-5.66,18.95-4.36,2.65.6,5.22,1.81,7.75,2.77"/><path class="b" d="M9.45,122.37c2.25-.37,4.6-.91,6.89-.85,1.98.23,4.06.45,6.03-.01,5.1-1.11,10.18-3.22,15.5-2.64,6.49.44,12.33,4.7,18.95,3.96,4.78-.47,8.99-3.13,12.92-5.71,2.94-1.87,5.96-4.1,9.47-4.67,3.27-.36,6.47,1,9.47,2.13,3.58,1.41,7.32,2.79,11.2,2.98,5.64.45,10.89-2.13,16.36-2.92,5.1-.76,10.17.95,14.64,3.28,3.04,1.49,6.09,3.34,9.47,3.92,5.57.56,10.65-2.71,15.5-4.99,5.79-2.91,12.34-5.86,18.95-4.3,2.66.69,5.21,1.98,7.75,2.99"/><path class="b" d="M9.45,118.35c2.26-.24,4.61-.6,6.89-.49,1.97.25,4.06.45,6.03.01,7.72-1.76,13.24-4.55,21.53-2.95,3.16.54,6.3,1.5,9.47,1.96,3.12.48,6.4.39,9.47-.33,5.62-1.17,10.62-4.65,16.36-5.3,2.3-.15,4.68.38,6.89.97,3.94,1.09,7.94,2.35,12.06,2.5,13.45.16,18.11-7.02,32.73.08,4.05,1.79,8.32,4.4,12.92,3.5,9.1-1.79,16.45-8.85,25.84-9.68,4.44-.47,8.68,1.37,12.92,2.36"/><path class="b" d="M9.45,113.33c3.15.14,6.36.43,9.47.93,6.55.42,12.64-2.74,18.95-4,5.07-1.22,10.35-1.13,15.5-.52,4.85.51,9.81.54,14.64-.24,3.42-.5,6.87-1.31,10.33-1.5,2.28-.13,4.65.2,6.89.63,5.93,1.24,12,2.5,18.08,1.85,7.87-.79,15.44-3.14,23.25-.41,5.44,1.53,10.53,5.22,16.36,4.83,9.48-1.11,17.16-8.28,26.7-9.23,4.31-.38,8.6,1.01,12.92.93"/><path class="b" d="M9.45,107.97c3.12.87,6.27,1.94,9.47,2.47,2.83.26,5.82.28,8.61-.3,6.57-1.3,12.5-4.71,18.95-6.39,3.64-.89,7.47-.94,11.2-1.04,7.45.02,14.94-.61,22.39-.34,4.93.32,9.78,1.56,14.64,2.33,4.53.76,9.18,1.13,13.78,1.04,4.58-.08,9.23-.6,13.78.09,5.66.71,10.86,3.31,16.36,4.64,2.25.21,4.63.11,6.89.06,8.38-1.63,15.59-7.12,24.11-8.18,1.97-.28,4.06.01,6.03.12,2.27.08,4.65-.12,6.89-.52"/><path class="b" d="M9.45,102.8c2.25,1.02,4.45,2.61,6.89,3.1,1.68,0,3.49,0,5.17,0,2.56,0,5.2,0,7.75,0,1.67-.1,3.56.26,5.17-.25,4.19-1.69,7.99-4.31,12.06-6.25,3.26-1.48,6.85-2.32,10.33-3.08,10.75-2.08,22.07-2.27,32.73.43,7.14,1.73,14.15,4.41,21.53,4.9,4.58.21,9.25.08,13.78.88,4.66.73,9.16,2.37,13.78,3.28,2.25.21,4.63.04,6.89.09,2.03-.17,4.1-.85,6.03-1.49,5.76-1.98,11.2-5.06,17.22-6.24,2.24-.5,4.63-.25,6.89-.27,2.3-.1,4.67-.6,6.89-1.2"/><path class="b" d="M9.45,98.24c1.68.94,3.29,2.48,5.17,2.98,3.42,0,6.91,0,10.33,0,3.13,0,6.34,0,9.47,0,3.69-.02,3.78.42,6.89-1.75,1.96-1.27,3.99-2.68,6.03-3.82,2.21-1.17,4.62-2.17,6.89-3.2,6.76-3.02,14.06-5.25,21.53-5.02,6.54.07,12.95,1.88,18.95,4.42,5.6,2.23,11.13,5.25,17.22,5.81,5.15.39,10.39.2,15.5,1.01,5.17.68,10.26,2.37,15.5,2.43,8.37-.13,15.54-5.15,23.25-7.75,1.63-.55,3.45-1.01,5.17-1.2,1.37-.15,2.93-.02,4.31-.14,2.3-.2,4.65-.76,6.89-1.31"/><path class="b" d="M9.45,94.33c3.99,2.46,3.1,2.27,7.75,2.21,3.42,0,6.91,0,10.33,0,4.29,0,8.63,0,12.92,0,1.77-.88,3.48-2.16,5.17-3.18,3.3-2.04,6.93-3.65,10.33-5.51,6.86-3.62,14.49-6.67,22.39-5.8,5.39.55,10.6,2.38,15.5,4.62,4.83,2.16,9.52,4.86,14.64,6.28,3.91,1.03,8.05.8,12.06.93,3.73.07,7.51.4,11.2.99,3.41.52,6.88,1.26,10.33,1.42,9.98.28,17.66-7.43,26.7-10.43,2.18-.79,4.6-.87,6.89-1,2.27-.21,4.63-.63,6.89-.95"/><path class="b" d="M9.45,89.76c2.25.74,4.44,2.35,6.89,2.11,4.58,0,9.2,0,13.78,0,2.55,0,5.2,0,7.75,0,1.86-.27,3.53-1.67,5.17-2.52,2.5-1.55,5.12-3.09,7.75-4.42,9.25-5.18,18.33-10.11,29.28-7.53,4.71.97,9.36,2.44,13.78,4.33,4.6,1.91,9.06,4.3,13.78,5.91,3.31,1.14,6.88,1.44,10.33,1.84,4.02.43,8.09.97,12.06,1.72,1.08.2,2.37.45,3.44.66,1.67.02,3.49,0,5.17.01,3.42,0,6.91,0,10.33,0,8.09-3.3,14-10.65,22.39-13.31,3.65-.74,7.48-.84,11.2-1.03"/><path class="b" d="M9.45,84.24c3.42.55,6.87,1.32,10.33,1.6,2.83.38,5.75.85,8.61.82,4.53.01,8.95-1.46,12.92-3.57,4.01-2.19,8.02-4.53,12.06-6.67,5.77-3.22,12.21-5.94,18.95-5.45,3.81.19,7.52,1.34,11.2,2.27,6.52,1.54,12.86,3.84,18.95,6.61,3.87,1.76,7.91,3.29,12.06,4.25,4,1,8.04,2.15,12.06,3.09,8.6,0,17.23,0,25.84,0,6.56-4.28,11.61-10.93,18.95-13.98,3.57-1.13,7.49-1.05,11.2-.85"/><path class="b" d="M9.45,77.97c4.29-.18,8.65.05,12.92.45,5.19.56,10.57.41,15.5-1.43,11.41-4.05,21.48-14.56,34.45-12.06,3.51.55,6.91,1.86,10.33,2.76,4.61,1.15,9.32,2.13,13.78,3.81,4.11,1.49,8.07,3.48,12.06,5.26,4.54,1.89,9.19,3.63,13.78,5.4,1.57.67,3.5.25,5.17.36,2.55,0,5.2,0,7.75,0,6.59-.07,13.23.15,19.81-.09,5.46-4.24,10.01-9.94,16.36-12.92,3.51-1.41,7.5-1.23,11.2-.8"/><path class="b" d="M9.45,71.43c5.43-.83,10.93-.36,16.36.06,4.63.29,9.38-.18,13.78-1.73,10.74-3.53,19.73-13.51,31.86-10.99,3.83.65,7.46,2.26,11.2,3.25,4.6,1.14,9.34,2,13.78,3.73,4.16,1.56,8.12,3.74,12.06,5.79,3.96,1.97,8.02,3.89,12.06,5.68,1.54.89,3.46.59,5.17.63,2.55,0,5.2,0,7.75,0,7.74,0,15.51,0,23.25,0,5.23-3.55,9.5-8.75,15.5-11.1,3.29-1.16,6.93-.99,10.33-.52"/><path class="b" d="M9.45,65.37c4.29-.23,8.66-.21,12.92.43,6.57,1,13.47,1.43,19.81-.96,14.61-5.58,19.33-15.79,37.03-9.56,6,1.88,12.37,2.71,18.08,5.45,7.04,3.29,13.45,7.88,20.67,10.83,1.36.56,2.87,1.26,4.31,1.6,1.38,0,2.93,0,4.31,0,3.71,0,7.48,0,11.2,0,4.58,0,9.2,0,13.78,0,1.38,0,2.93,0,4.31,0,1.13,0,2.56.17,3.44-.7,8.01-5.4,12.8-10.34,23.25-8.49"/><path class="b" d="M9.45,59.35c4.29.53,8.73.63,12.92,1.8,8.68,2.59,16.34,5.06,24.97.6,11.02-5.96,17.68-15.74,31.86-12.25,5.86,1.32,11.87,2.51,17.22,5.34,6.71,3.4,12.66,8.32,19.81,10.85,3.31,1.28,6.83,2.2,10.33,2.73,2.84.15,5.77.02,8.61.06,6.3,0,12.64,0,18.95,0,1.38,0,2.93,0,4.31,0,1.45-.46,2.94-1.34,4.31-2,6.98-3.67,11.66-5.87,19.81-4.78"/><path class="b" d="M9.45,52.4c1.97.34,4.05.71,6.03,1,1.69.24,3.55.38,5.17.97,9.14,3.47,17.29,11.81,27.56,6.15,10.41-6.2,18.16-18.5,31.86-16.67,9.25.71,15.68,3.75,23.25,8.88,8.53,6.15,18.98,8.59,29.28,9.68,2.57.34,5.24.73,7.75,1.39,5.15,0,10.35,0,15.5,0,1.38,0,2.93.02,4.31-.02,2.84-.74,5.75-1.59,8.61-2.25,4.49-1.14,9.18-1.25,13.78-1.24"/><path class="b" d="M9.45,46.15c1.97.34,4.05.76,6.03,1.06,2.02.24,4.19.38,6.03,1.36,6.07,2.83,12.14,10.1,18.95,10.57,1.38,0,2.92,0,4.31,0,1.49-.3,3.02-1.03,4.31-1.82,10.78-7.29,18.29-18.25,32.73-18,9.53-.53,16.3,3.77,24.11,8.45,3.43,2.1,7.39,3.16,11.2,4.34,8.52,2.64,17.36,4.27,25.84,7.03,8.32,0,16.66,0,24.97,0,4.86-.1,9.79.22,14.64-.18"/><path class="b" d="M9.45,41.59c1.98.27,4.05.67,6.03.9,1.69.19,3.57.09,5.17.77,10.04,4.51,17.23,16.56,29.28,8.21,5.64-3.72,11.02-8.01,17.22-10.79,5.97-2.64,12.49-4.06,18.95-4.86,7.4-.83,14.17,2.71,20.67,5.73,3.85,1.71,8.13,2.26,12.06,3.78,7.84,2.76,15.48,6.15,23.25,9.1,13.49.06,26.99,0,40.48.02"/><path class="b" d="M9.45,39.03c1.98.17,4.05.51,6.03.65,1.69.12,3.53-.14,5.17.38,3.69,1.09,6.92,3.43,10.33,5.14,8.2,4.28,13.21,2.74,20.67-1.84,3.77-2.04,7.86-3.62,12.06-4.51,3.96-.88,8.07-1.17,12.06-1.9,2.95-.49,5.78-1.69,8.61-2.6,3.31-1.07,6.84-1.77,10.33-1.58,5.66.2,10.87,2.8,16.36,3.83,8.42,1.37,15.79,6.07,23.25,9.93,2.23,1.13,4.53,2.41,6.89,3.26,4.29,0,8.63,0,12.92,0,9.46,0,18.95,0,28.42,0"/><path class="b" d="M9.45,38.07c2.26.14,4.62.49,6.89.43,1.98-.2,4.08-.32,6.03.18,6.83,1.73,12.68,4.38,19.81,1.92,6.98-2.42,9.85-5.81,18.09-5.5,6.29.08,12.77,2.6,18.95.51,4.28-1.72,8.4-4.07,12.92-5.15,5.39-1.45,11.01-.51,16.36.64,4.11.61,8.25,1.42,12.06,3.14,7.13,2.99,13.61,7.38,20.67,10.52.36.24,1.28.46,1.72.37,1.07,0,2.37,0,3.44,0,3.13,0,6.34,0,9.47,0,8.89,0,17.81,0,26.7,0"/><path class="b" d="M9.45,37.05c1.97.08,4.05.27,6.03.17,1.7-.09,3.46-.63,5.17-.67,2.85-.12,5.77.21,8.61.18,7.25.2,13.44-3.16,19.81-6.12,4.35-1.94,9.34-1.64,13.78-.17,3.45,1.06,6.81,2.64,10.33,3.45,3.87.99,6.93-.06,10.33-1.85,3.39-1.67,6.78-3.55,10.33-4.88,8.54-3.32,18.42-2.46,26.7,1.25,7.51,3.32,14.08,8.47,21.53,11.91,2.54.26,5.2.04,7.75.11,3.42,0,6.92.04,10.33-.14,7.45.28,14.94.09,22.39.14"/><path class="b" d="M9.45,34.51c1.98-.05,4.07-.04,6.03-.31,1.71-.24,3.46-.92,5.17-1.16,3.7-.58,7.53-.66,11.2-1.47,6.42-1.22,11.98-4.94,18.08-7.05,6.31-2.22,12.43-.29,18.08,2.72,3,1.47,6.08,3.25,9.47,3.54,4.03.08,7.72-2.27,11.2-4.05,6.22-3.41,12.49-7.81,19.81-8.1,8.08,0,15.16,4.77,21.53,9.26,3.92,2.72,7.71,5.85,12.06,7.88,3.71,0,7.48,0,11.2,0,3.43.07,6.91-.07,10.33-.21,6.29.39,12.64.15,18.95.21"/><path class="b" d="M9.45,30.02c1.98-.29,4.08-.54,6.03-.99,1.71-.39,3.44-1.18,5.17-1.48,3.96-.74,8.08-.65,12.06-1.31,6.88-1,13.13-4.34,19.81-6.09,4.52-1.4,9.48-1.17,13.78.84,4.04,1.66,7.69,4.56,12.06,5.3,1.7.21,3.54-.2,5.17-.67,4.72-1.44,8.86-4.34,12.92-7.07,4.38-2.82,9.13-6.56,14.64-5.99,7.5,1.07,13.94,5.49,19.81,10.02,2.53,1.94,5.12,4,7.75,5.8,1.6.97,3.28,2.38,5.17,2.68,4.58,0,9.2,0,13.78,0,3.43.01,6.88-.95,10.33-.61,1.39.06,2.93.39,4.31.61,3.42,0,6.91,0,10.33,0"/><path class="b" d="M9.45,23.89c1.97-.57,4.07-1.07,6.03-1.67,1.4-.41,2.87-1.1,4.31-1.39,3.41-.67,6.94-.02,10.33.42,3.11.43,6.33.69,9.47.42,3.79-.35,7.59-1.24,11.2-2.45,3.36-1.29,6.7-3.04,10.33-3.38,5.66-.66,10.52,2.81,15.5,4.9,2.42,1.04,5.2.99,7.75.49,10.35-1.72,19.37-15.13,27.56-13.17,7.63,1.17,14.51,4.99,20.67,9.48,12.09,8.93,15.11,10.02,30.14,7.73,2.83-.34,5.78-.55,8.61-.13,1.39.2,2.91.71,4.31.88,2.25.29,4.64.17,6.89-.04"/></svg>