<?xml version="1.0" encoding="UTF-8"?><svg id="a" xmlns="http://www.w3.org/2000/svg" width="1920" height="2400" viewBox="0 0 192 240"><defs><style>.b{fill:none;stroke:#fff;stroke-miterlimit:10;stroke-width:.4px;}.c{stroke-width:0px;}</style></defs><rect class="c" x="0" width="192" height="240"/><path class="b" d="M7.88,221.66c2.13.7,4.24,1.8,6.14,2.99,3.77.22,7.62.02,11.4.09,2.6,0,5.29,0,7.89,0,3.01-1.17,5.68-3.35,8.77-4.4,4.22-1.74,7.64-.58,11.4,1.56,6.2,3.4,5.44,2.84,12.28,2.84,1.1,0,2.41,0,3.51,0,1.17-.29,2.44-.95,3.51-1.48,5.55-3.15,9.21-4.88,15.78-4.65,5.82.12,11.88,1.48,17.54-.46,2.62-.81,4.84-2.6,7.01-4.2,3.82-2.6,8.62-3.32,13.15-2.98,4.37.27,8.76,1.13,13.15,1.11,3.21.02,6.43-.82,9.64-.68,3.66.08,7.28,1.26,10.52,2.91,4.83,2.22,9.34,6.41,14.91,6.26,3.17-.51,6.46-.02,9.64-.09"/><path class="b" d="M7.88,217.72c2.12.45,4.08,1.67,6.14,2.26,3.78,0,7.62,0,11.4,0,5.79-.08,4.79.74,9.64-2.61,3.7-2.37,7.65-5.46,12.28-5.27,2.48.24,4.81,1.49,7.01,2.58,9.39,5.08,13.63,3.77,22.8-.58,3.27-1.51,7.03-1.67,10.52-.9,7.11,1.46,15.01,5.68,21.92,1.4,2.55-1.73,4.97-3.89,7.89-5.03,7.75-3.41,16.38-1.51,24.55-2.13,5.24-.67,10.71-1.13,15.78.73,5.09,1.59,9.59,5,14.91,5.87,1.4.2,2.98-.14,4.38-.08,2.31.07,4.71.51,7.01.68"/><path class="b" d="M7.88,215.21c4.95,0,9.95,0,14.91,0,1.71,0,3.55,0,5.26,0,1.13-.07,2.55.28,3.51-.48,3.78-2.45,7.29-5.5,11.4-7.41,2.45-1.2,5.3-1.37,7.89-.53,3.49,1.01,6.9,2.6,10.52,3.12,3.53.57,7.17-.07,10.52-1.22,2.86-.92,5.74-2.24,8.77-2.43,3.06-.11,6.05,1.1,8.77,2.39,6.96,3.46,14.86,8.46,21.92,2.32,7.97-7.01,15.91-8.83,26.3-8.03,5.54.47,11.16-.57,16.66.37,5.89.89,11.04,4.2,16.66,5.95,1.95.66,4.12.46,6.14.59,2.32.22,4.7.77,7.01,1.03"/><path class="b" d="M7.88,210.45c7.59,0,15.21,0,22.8,0,3.71-2.03,6.89-5.06,10.52-7.25,2.83-1.87,6.24-3.01,9.64-2.36,5.5.89,11.05,2.45,16.66,1.6,4.1-.45,8.13-1.9,12.28-1.91,6.02.41,10.63,5.03,15.78,7.67,2.15,1.1,4.54,2.32,7.01,2.24,2.14.1,4.26-.03,6.14-1.18,2.25-1.25,4.1-3.3,6.14-4.84,3.12-2.46,6.65-4.65,10.52-5.67,6.09-1.76,12.32.24,18.41.86,11.15.37,14.28,1.14,24.55,5.63,1.65.66,3.5,1.3,5.26,1.58,1.09.15,2.42.18,3.51.37,2.31.38,4.69.99,7.01,1.24"/><path class="b" d="M7.88,205.69c4.95,0,9.95,0,14.91,0,2.31,0,4.71,0,7.01,0,.84-.41,1.87-1.12,2.63-1.64,4.34-2.94,8.27-6.75,13.15-8.8,3.92-1.47,8.25-.53,12.28-.04,4.33.65,8.77.99,13.15.91,2.9-.02,5.89-.12,8.77.31,6.28,1.32,10.86,6.5,16.66,8.95.74.38,1.83.31,2.63.3,1.1,0,2.41,0,3.51,0,1.1,0,2.41,0,3.51,0,.48.08,1.34-.12,1.75-.39,3.58-2.04,6.24-5.45,9.64-7.75,8.53-6.24,14.54-4.3,23.67-1.05,5.98,1.78,12.44,1.17,18.41,3.09,4.18,1.16,8.15,3.11,12.28,4.42,2.26.7,4.74.9,7.01,1.52,1.68.31,3.56.09,5.26.15"/><path class="b" d="M7.88,200.93c6.41-.07,12.88.14,19.29-.08,4.46-2.28,8.32-5.61,12.28-8.63,3.92-3.07,7.97-5.55,13.15-4.87,3.57.33,7.08,1.41,10.52,2.38,3.75,1.09,7.59,2.11,11.4,2.97,2.31.57,4.79.99,7.01,1.85,4.02,1.66,7.44,4.6,11.4,6.38,4.66,0,9.37,0,14.03,0,2.44-.77,4.23-3.09,6.14-4.7,8.98-8.33,14.87-8.76,25.43-2.79,2.96,1.63,6.26,2.74,9.64,2.98,3.49.33,7.07.42,10.52,1.04,3.89.66,7.68,1.98,11.4,3.26,1.66.41,3.56.12,5.26.2,2.89,0,5.87,0,8.77,0"/><path class="b" d="M7.88,196.17c3.19,0,6.45,0,9.64,0,1.41-.02,2.98.06,4.38-.07.81-.26,1.86-.67,2.63-1.02,4.91-2.23,9.05-5.87,13.15-9.29,3.38-2.69,6.92-6.02,11.4-6.49,6.8-.25,12.67,4.59,18.41,7.63,2.8,1.59,5.76,3.11,8.77,4.29,2.62,1.01,5.45,1.75,7.89,3.17,1.1.55,2.32,1.42,3.51,1.77,2.01,0,4.13,0,6.14,0,4.07,0,8.2,0,12.28,0,.78,0,1.85,0,2.63,0,1.67-.75,2.98-2.44,4.38-3.58,3.99-3.64,9.31-6.92,14.91-5.52,6.66,1.43,11.54,7.41,18.41,8.12,4.94.48,9.96-.42,14.91.14,2.03.1,4.12.82,6.14.83,5.54,0,11.12,0,16.66,0"/><path class="b" d="M7.88,191.41c3.19,0,6.45,0,9.64,0,1.41-.03,2.98.08,4.38-.08,1.14-.49,2.45-1.19,3.51-1.84,4.48-2.76,8.34-6.51,12.28-9.97,2.65-2.28,5.45-4.73,8.77-5.97,6.58-2.27,12.77,4.46,17.54,8.14,4.28,3.57,8.76,7.2,14.03,9.21,1.61.76,3.54.46,5.26.51,2.3,0,4.71,0,7.01,0,6.71,0,13.46,0,20.17,0,10.24-8.43,16.15-7.37,27.18-1.17.76.39,1.79.96,2.63,1.17.78,0,1.85,0,2.63,0,2.01,0,4.13,0,6.14,0,11.68,0,23.39,0,35.07,0"/><path class="b" d="M7.88,186.65c5.53-.08,11.14.17,16.66-.1,3.77-2.56,7.16-5.77,10.52-8.82,4.05-3.44,8.37-8.15,14.03-8.33,5.01.56,8.68,4.73,12.28,7.88,3.58,3.32,7.16,6.89,11.4,9.37,12.85,0,25.73,0,38.58,0,1.53.14,2.94-1.06,4.38-1.42,1.94-.64,4.1-.95,6.14-.91,3.58.06,7.13,1.04,10.52,2.14,1.67.39,3.56.11,5.26.19,15.49,0,30.99,0,46.47,0"/><path class="b" d="M7.88,181.89c6.12,0,12.29,0,18.41,0,.96-.23,1.88-1.19,2.63-1.78,1.42-1.19,2.98-2.55,4.38-3.77,4.39-3.61,8.99-8.1,14.91-8.68,6.71-.16,14.78,10.94,21.04,14.22,3.48,0,7.04,0,10.52,0,34.78,0,69.56,0,104.34,0"/><path class="b" d="M7.88,177.13c6.42,0,12.87,0,19.29,0,1.38.23,2.49-.98,3.51-1.71,1.1-.83,2.39-1.81,3.51-2.62,4.15-2.95,8.78-6.02,14.03-6.21,6.31.25,12.56,7.93,18.41,10.54,3.78,0,7.62,0,11.4,0,35.36,0,70.73,0,106.09,0"/><path class="b" d="M7.88,172.37c6.42,0,12.87,0,19.29,0,1.31.2,2.47-.75,3.51-1.39,1.09-.68,2.39-1.47,3.51-2.1,4.03-2.29,8.46-4.28,13.15-4.53,5.85-.39,11.99,5.86,17.54,7.96,4.36.18,8.79.02,13.15.07,35.36,0,70.73,0,106.09,0"/><path class="b" d="M7.88,167.61c4.95,0,9.95,0,14.91,0,1.23.16,2.45-.56,3.51-1.08,2-.99,4.11-2.04,6.14-2.97,4.95-2.27,10.28-4.12,15.78-4.18,2.83.05,5.47,1.5,7.89,2.83,3.11,1.77,6.25,3.71,9.64,4.89,1.91.81,4.12.42,6.14.5,2.9,0,5.87,0,8.77,0,3.52.25,7.01-.75,10.52-.64,1.74-.02,3.55.5,5.26.64,3.19,0,6.45,0,9.64,0,26.01,0,52.03,0,78.04,0"/><path class="b" d="M7.88,162.71c4.08-.83,8.26-1.44,12.28-2.56,8.93-2.42,17.9-5.11,27.18-5.7,5.4-.5,10.09,2.95,14.91,4.85,6.38,2.95,13.29,3.03,20.17,2.52,4.64-.51,9.43-.95,14.03.14,1.11.23,2.41.62,3.51.88,1.1,0,2.41,0,3.51,0,2.9,0,5.87,0,8.77,0,8.76,0,17.55,0,26.3,0,9.64,0,19.3,0,28.93,0,3.48,0,7.04,0,10.52,0,1.09,0,2.42,0,3.51,0,.82.07,1.96-.08,2.63-.62"/><path class="b" d="M7.88,155c10.21-3.13,21.02-3.15,31.57-4.15,3.2-.25,6.45-.7,9.64-1.02,6.43-.06,12.26,3.34,18.41,4.77,4.55,1.2,9.33,1.61,14.03,1.63,5.25-.12,10.55-.48,15.78.09,3.77.33,7.6,1.02,11.4.89,2.03-.07,4.11-.67,6.14-.8,2.89-.24,5.88-.14,8.77.08,4.68.33,9.37,1.03,14.03,1.59,7,0,14.04,0,21.04,0,4.95,0,9.95,0,14.91,0,2.3,0,4.71,0,7.01,0,1.14-.03,2.4-.64,3.51-.9"/><path class="b" d="M7.88,149.8c10.49-3.45,21.67-1.32,32.44-2.74,3.22-.32,6.44-1.08,9.64-1.5,2.61-.23,5.33.06,7.89.57,8.73,1.91,17.24,5.36,26.3,5.24,7.9.11,15.89-.31,23.67-1.77,5.6-1.05,10.92-3.57,16.66-3.89,6.6-.5,12.76,2.47,18.41,5.52,1.13.58,2.43,1.35,3.51,2.03,2,.12,4.13.03,6.14.06,10.51,0,21.05,0,31.57,0"/><path class="b" d="M7.88,146.73c7.51-1.45,15.2-1.06,22.8-1.61,6.56-.45,12.9-2.39,19.29-3.79,5.26-.96,10.7-.14,15.78,1.35,4.64,1.3,9.22,3.15,14.03,3.71,7.63,1,15.45.56,22.8-1.82,3.5-1.11,7.07-2.25,10.52-3.51,2.65-1.13,5.23-2.67,7.89-3.77,6.87-3.09,12.74-.96,18.41,3.42,1.72,1.31,3.61,2.71,5.26,4.1,1.44,1.15,2.77,2.85,4.38,3.75h35.07"/><path class="b" d="M7.88,143.8c6.13-.1,12.34.37,18.41-.62,7.28-.98,14.06-4.01,21.04-6.1,5.11-1.5,10.6-1.71,15.78-.5,4.45.96,8.73,2.74,13.15,3.81,2.26.56,4.7.65,7.01.85,3.18.25,6.47.32,9.64-.05,4.83-.53,9.49-2.16,14.03-3.83,2.28-.91,4.82-1.46,7.01-2.58,5.62-3.07,11.59-8.38,18.41-5.86,2.94,1.03,5.54,3.02,7.89,5.01,3.16,2.58,6.09,5.57,8.77,8.64,0,0,.88.96.88.96l.88.29c1.09,0,2.41,0,3.51,0,2.3,0,4.71,0,7.01,0,7.59,0,15.21,0,22.8,0"/><path class="b" d="M7.88,139.04c5.54,0,11.12,0,16.66,0,5.51-1.09,10.65-3.63,15.78-5.83,8.29-3.9,15.72-4.96,24.55-2.14,3.79,1.11,7.52,2.66,11.4,3.43,2.57.53,5.29.32,7.89.38,6.22.11,12.46-.75,18.41-2.55,3.46-1.09,7.05-1.99,10.52-3.02,3.36-1.37,6.34-3.66,9.64-5.15,6.65-3.25,12.3-.6,17.54,3.86,2.1,1.73,4.3,3.59,6.14,5.61,1.72,1.74,3.32,3.92,5.26,5.41h32.44"/><path class="b" d="M7.88,134.28c3.78-.04,7.62.08,11.4-.05,3.58-.8,7.14-2.01,10.52-3.43,8.25-3.22,16.2-9.04,25.43-8.38,7.09.46,13.33,4.37,20.17,5.89,3.16.72,6.47.1,9.65-.22,5.93-.68,11.78-2.1,17.54-3.64,3.44-.99,7.03-1.59,10.52-2.29,2.72-.81,5.28-2.28,7.89-3.36,6.97-3.18,12.64-1.39,18.41,3.19,2.73,2.1,5.5,4.36,7.89,6.85,1.08,1.1,2.39,2.41,3.51,3.48.7.65,1.65,1.72,2.63,1.95,10.22,0,20.47,0,30.69,0"/><path class="b" d="M7.88,129.15c4.84.53,9.52-1.16,14.03-2.68,7.43-2.5,14.56-5.86,21.92-8.52,5.2-2.02,10.31-2.78,15.78-1.36,6.18,1.36,11.97,4.84,18.41,4.87,2.94-.16,5.9-.94,8.77-1.57,5.83-1.39,11.63-3.14,17.54-4.21,3.15-.69,6.48-.6,9.64-1.19,7.21-2.01,12.71-5.12,20.17-1.38,6.56,3.34,11.91,8.59,17.54,13.24,1.59,1.19,3.36,2.54,5.26,3.17,3.19,0,6.46,0,9.64,0,1.4,0,2.98,0,4.38,0,1.08-.2,2.4-.43,3.51-.45,1.71,0,3.57.21,5.26.45,1.4,0,2.98,0,4.38,0"/><path class="b" d="M7.88,124.57c5.83-1.11,11.03-4.27,16.66-6.02,8.06-2.78,16.37-4.81,24.55-7.19,6.96-1.89,14.15-.18,21.04,1.16,6.55,1.36,10.42.3,16.66-1.42,5.45-1.47,11.01-2.8,16.66-3.17,3.77-.41,7.65.25,11.4-.35,7.9-1.79,13.3-3.77,21.04.42,3.35,1.82,6.57,4.06,9.64,6.3,3.05,2.31,6.12,4.83,9.64,6.38,7.5,3.36,12.27-.27,19.29-.23,3.38.31,6.61,1.71,9.64,3.14"/><path class="b" d="M7.88,120c.81,0,1.85.05,2.63-.17,1.43-.78,2.98-1.71,4.38-2.54,2.48-1.49,5.17-2.81,7.89-3.78,7.04-2.59,14.64-2.89,21.92-4.45,2.64-.57,5.27-1.52,7.89-2.13,3.72-.91,7.58-1.46,11.4-1.72,4.36-.32,8.81-.27,13.15-.82,3.52-.49,7.02-1.51,10.52-2.12,4.02-.75,8.19-1.08,12.28-.87,4.09.17,8.19.93,12.28,1.25,3.88.06,7.61-1.46,11.4-2.11,10.92-2.44,19.27,5.47,28.06,10.46,4.57,2.61,9.85,2.99,14.91,1.73,2.56-.52,5.26-1.23,7.89-.92,3.65.54,6.78,2.87,9.64,5.05"/><path class="b" d="M7.88,115.24c2.01-.01,4.13.03,6.14-.02,8.21-6.1,16.49-7.09,26.3-8.15,4.84-.52,9.51-2.04,14.03-3.8,7.09-2.76,14.39-5.12,21.92-6.37,4.89-.91,9.92-1.72,14.91-1.22,5.39.44,10.58,2.24,15.78,3.58,3.13.84,6.5,1.34,9.64.27,7.7-2.52,13.7-5.77,21.92-2.42,4.03,1.54,7.65,4.05,11.4,6.15,4.86,2.86,10.28,3.74,15.78,2.43,2.86-.55,5.83-1.42,8.77-1.04,3.84.64,6.89,3.51,9.64,6.06"/><path class="b" d="M7.88,110.48c4.37,0,8.79,0,13.15,0,1.97-.76,4.09-1.47,6.14-1.97,6.38-1.57,13-2.2,19.29-4.15,9.2-2.87,16.84-9.51,26.3-11.76,7.77-2.03,16.05-1.56,23.67.87,5.48,1.53,10.88,4.19,16.66,4.18,3.67-.28,7.09-1.98,10.52-3.18,10.08-3.92,16.33-1.17,25.43,3.35,3.8,1.78,8.07,2.84,12.28,2.27,10.93-1.78,13.68-5.34,22.8,4.01"/><path class="b" d="M7.88,105.72c8.76,0,17.55,0,26.3,0,1.8.18,3.58-.54,5.26-1.06,2.64-.86,5.32-1.89,7.89-2.92,7.15-2.82,12.92-8.37,20.17-11.02,5-2,10.49-2.1,15.78-1.58,8.32.59,16.36,3.04,24.55,4.39,1.7.24,3.55.47,5.26.39,2.35-.14,4.75-.76,7.01-1.38,9.51-2.95,15.88-3.24,25.43-.06,4.76,1.62,9.86,2.88,14.91,1.95,10.45-1.98,14.56-6.28,23.67,2.63"/><path class="b" d="M7.88,100.96c10.51,0,21.05,0,31.57,0,3.82-1.81,7.67-3.77,11.4-5.76,3.75-2.22,7.38-4.83,11.4-6.55,7.34-3.35,13.55-1.64,21.04-.42,7.25,1.03,14.61,1.2,21.92,1.25,3.19-.02,6.47.17,9.65-.13,4.68-.49,9.33-1.53,14.03-1.86,7.04-.56,14.11.39,21.04,1.52,4.06.61,8.27.52,12.28-.37,8.68-2.01,14.01-4.67,21.92,1.65"/><path class="b" d="M7.88,96.2c6.42,0,12.87,0,19.29,0,2.01,0,4.13,0,6.14,0,1.41-.09,3.13.31,4.38-.5,3.02-1.54,5.87-3.55,8.77-5.3,3.5-1.91,6.91-4.14,10.52-5.84,7.69-3.69,13.67-1.53,21.04,1.42,13.07,4.87,23.75-.64,36.83-1.09,9.9-1.04,19.85-1.93,29.81-2.03,3.2.08,6.45.59,9.64.79,3.78.27,7.65.03,11.4-.54,6.09-1.04,12.75-2.03,18.41,1.13"/><path class="b" d="M7.88,90.19c3.46-.44,7.03-.94,10.52-.73,3.2.33,6.41,1.24,9.65,1.27,6.34.23,11.75-3.58,16.66-7.13,4.55-3.01,9.38-6.34,14.91-7.07,12.54-.91,16.5,11.66,33.32,9.51,7.15-.89,13.84-4.06,21.04-4.65,6.46-.92,12.88-2.32,19.29-3.55,4.05-.7,8.16-1.68,12.28-1.79,6.5.28,12.76,2.69,19.29,2.84,3.49.18,7.04-.1,10.52-.25,2.9-.17,5.94-.27,8.77.54"/><path class="b" d="M7.88,81.59c3.72-.72,7.67-1.11,11.4-.29,3.18.71,6.37,1.81,9.64,1.95,12.09.68,19.5-13.1,31.57-12.55,6.79.48,11.86,5.63,17.54,8.79,4.59,2.31,9.77,3.61,14.91,3.72,5.04.11,10.03-1.05,14.91-2.18,4.47-.89,8.98-1.9,13.15-3.78,7.52-3.06,14.66-7.6,22.8-8.83,3.32-.32,6.61.89,9.64,2.12,6.38,2.76,13.06,5.66,20.17,5.16,3.49-.17,7.03-1.04,10.52-.56"/><path class="b" d="M7.88,74.04c3.16-.55,6.47-.7,9.64-.27,2.93.44,5.84,1.34,8.77,1.79,17.66,3.01,24.03-16.48,42.96-5.63,4.28,2.37,8.42,5.19,13.15,6.59,7.29,2.59,15,4.59,22.8,4.09,14.72-.41,22.26-10.96,34.2-17.21,5.59-2.97,9.87-1.24,14.91,1.85,5.01,3.01,9.9,6.78,15.78,7.85,4.74.98,9.32-1.39,14.03-1.51"/><path class="b" d="M7.88,68.11c15.01-.46,20.55,4.44,36.83-1.19,10.2-4.07,17.36-2.25,27.18,1.64,5.68,2.36,11.73,3.76,17.54,5.75,2.89.96,5.85,1.98,8.77,2.83,4.95.04,9.95,0,14.91.02.78,0,1.86.04,2.63-.14,2.12-.86,4.24-2.06,6.14-3.34,4.39-2.96,8.27-6.69,12.28-10.14,2.89-2.42,5.96-5.06,9.64-6.14,7.19-1.58,14.89,7.53,21.04,10.74,8.45,4.88,11.17,1.33,19.29-.47"/><path class="b" d="M7.88,63.96c3.48.47,7.01,1.16,10.52,1.33,4.36.22,8.79.02,13.15-.12,4.07-.15,8.21-.26,12.28-.57,2.61-.16,5.27-.75,7.89-.65,5.9.26,11.69,1.83,17.54,2.58,9.19,1.14,18.46,2.46,27.18,5.72,1.68.32,3.56.09,5.26.16,3.19,0,6.46,0,9.64,0,2.01,0,4.13,0,6.14,0,1.13,0,2.53.14,3.51-.55,4.56-2.38,8.49-5.87,12.28-9.31,3.87-3.24,8.57-8.76,14.03-8.25,9.31,1.42,15.69,12.5,25.43,12.58,4.07-.25,7.52-2.97,11.4-3.96"/><path class="b" d="M7.88,60.9c11.63,4.33,15.91.64,27.18,1.19,3.21.15,6.46.69,9.64,1.05,2.3.28,4.73.15,7.01.62,4.63.9,9.28,2.21,14.03,2.19,3.8.07,7.61-.63,11.4-.79,3.78.06,7.63.39,11.4.67,3.25.25,6.47,1.14,9.64,1.8,4.95,0,9.95,0,14.91,0,2.01,0,4.13,0,6.14,0,1.44.01,3.07.14,4.38-.6,4.96-2.13,9.09-5.78,13.15-9.25,2.66-2.16,5.37-4.77,8.77-5.68,8.47-1.56,15.63,7.68,23.67,9.43,5.47,1.56,10.01-2.75,14.91-4.33"/><path class="b" d="M7.88,57.48c11.15,5.2,14.61,1.03,25.43,1.47,5.36.24,10.46,2.29,15.78,2.75,1.74.24,3.54.82,5.26,1.16,1.71,0,3.55,0,5.26,0,4.95-.1,9.98.21,14.91-.13,2.57-.66,5.27-.52,7.89-.5,2.6-.09,5.29-.38,7.89-.43,3.82-.16,7.64.49,11.4,1.06,4.95,0,9.95,0,14.91,0,8.1.65,14.16-3.13,20.17-8.1,3.22-2.44,6.35-5.73,10.52-6.32,8.91-.82,15.71,7.66,24.55,7.42,4.52-.22,8.08-3.61,12.28-4.93"/><path class="b" d="M7.88,52.08c10.69,4,12.45,2.05,22.8,2.2,4.77.13,9.4,1.52,14.03,2.54,1.99.46,4.15.48,6.14.9,2.54.7,5.29.3,7.89.4,4.37,0,8.79,0,13.15,0,2.04.14,4.13-.25,6.14-.48,1.41-.09,2.98.08,4.38-.03,4.08-.29,8.17-1.12,12.28-1.17,4.38-.15,8.78.63,13.15.7,1.73.05,3.56-.33,5.26-.58,1.4-.15,2.98-.18,4.38-.21,9.23.21,14.9-3.38,21.92-8.85,2.61-1.94,5.4-4.16,8.77-4.44,8.76-.72,15.8,7.1,24.55,6.46,4.06-.45,7.48-3.17,11.4-4.14"/><path class="b" d="M7.88,45.81c3.51.62,7,1.67,10.52,2.25,4.35.63,8.81.78,13.15,1.5,5.85.84,11.58,2.83,17.54,2.86,2.03.12,4.13.65,6.14.93,2.3,0,4.71,0,7.01,0,2.9,0,5.87,0,8.77,0,2.03-.19,4.11-.87,6.14-1.09,2-.28,4.14-.1,6.14-.38,3.2-.39,6.44-1.04,9.64-1.38,4.93-.62,9.96-.2,14.91-.51,2.05-.1,4.11-.79,6.14-1.02,10.12-.54,14.34.29,23.67-5.4,3.4-1.94,6.57-4.71,10.52-5.43,8.69-1.63,16.1,5.09,24.55,5.51,3.88.04,7.55-1.81,11.4-2.07"/><path class="b" d="M7.88,40.19c4.21.14,8.26,1.48,12.28,2.62,5.5,1.47,11.07,2.86,16.66,3.91,2.58.47,5.27.85,7.89.95,2.01.11,4.13-.19,6.14-.02,2.32.17,4.71.64,7.01.94,1.41,0,2.98,0,4.38,0,2.6,0,5.29.02,7.89-.01,3.2-.49,6.41-1.35,9.64-1.58,4.39-.32,8.77-1.27,13.15-1.66,4.35-.46,8.79-.35,13.15-.71,3.28-.15,6.39-1.57,9.64-1.88,4.06-.41,8.23-.17,12.28-.74,3.95-.51,7.83-1.79,11.4-3.54,2.61-1.24,5.13-2.94,7.89-3.85,9.31-3.31,16.73,2.14,25.43,4.1,3.74.63,7.64-.02,11.4.47"/><path class="b" d="M7.88,36.17c4.62-.13,8.96,1.63,13.15,3.36,4.79,1.91,9.76,3.65,14.91,4.3,3.49,0,7.04,0,10.52,0,1.4-.18,2.97-.4,4.38-.35,7.57.65,15.21.26,22.8.35,2.05.14,4.14-.38,6.14-.7,2.88-.45,5.86-.9,8.77-1.15,5.53-.54,11.13-.07,16.66-.45,2.36-.17,4.8-.69,7.01-1.54,1.95-.64,4.1-1.04,6.14-1.27,8.92-.77,17.23-.46,25.43-4.87,10.7-5.52,16.56-4.15,27.18.41,4.2,1.68,8.8,2.16,13.15,3.33"/><path class="b" d="M7.88,34.08c3.32.11,6.65.94,9.64,2.35,1.41.63,2.97,1.35,4.38,1.98.77.36,1.77.77,2.63.65,2.9,0,5.87,0,8.77,0,23.09,0,46.18,0,69.27,0,2.6,0,5.29,0,7.89,0,2.88-.75,5.78-1.84,8.77-2.2,6.09-.98,12.37-.83,18.41-2.16,4.97-.97,9.32-3.8,14.03-5.52,7.28-2.83,13.48-.71,20.17,2.5,3.94,1.76,8.14,3.08,12.28,4.31"/><path class="b" d="M7.88,33.68c1.43.12,2.95.67,4.38.62,3.19,0,6.45,0,9.64,0,7.59,0,15.21,0,22.8,0,21.92,0,43.84,0,65.76,0,5.83,0,11.7,0,17.54,0,2.3,0,4.71,0,7.01,0,3.28-.45,6.61-1.23,9.65-2.57,4.53-2.03,8.98-4.75,14.03-5.22,5.24-.58,10.22,1.69,14.91,3.74,3.37,1.42,6.94,2.57,10.52,3.3"/><path class="b" d="M7.88,29.55c43.55,0,87.1,0,130.64,0,3.48-.03,7.04.07,10.52-.05,2.24-.97,4.63-1.91,7.01-2.43,2.85-.64,5.91-.63,8.77-.02,2.68.54,5.32,1.6,7.89,2.5,3.78,0,7.62,0,11.4,0"/><path class="b" d="M7.88,24.79h176.24"/><path class="b" d="M7.88,20.03h176.24"/><path class="b" d="M7.88,15.26h176.24"/></svg>