<?xml version="1.0" encoding="UTF-8"?><svg id="a" xmlns="http://www.w3.org/2000/svg" width="1920" height="2400" viewBox="0 0 192 240"><defs><style>.b{fill:none;stroke:#fff;stroke-miterlimit:10;stroke-width:.4px;}.c{stroke-width:0px;}</style></defs><rect class="c" width="192" height="240"/><path class="b" d="M8.76,230.29c5.48,0,11.01,0,16.49,0,1.46-.05,2.92-.97,4.34-1.31,2.23-.68,4.62-1.16,6.94-1.41,3.15-.35,6.4-.31,9.55-.59,4.07-.52,8.19-1.27,12.15-2.37,5.86-1.64,11.18-4.77,16.49-7.65,7.05-4.03,12.4-4.21,19.97-1.47,4.01,1.38,7.96,3.25,12.15,4.03,2.86.6,5.82.02,8.68-.28,3.44-.37,6.98-.49,10.42-.12,6.99.56,13.75,3.86,20.83,2.95,6.68-.95,13.15-3.52,19.97-3.52,3.2-.11,6.41.55,9.55,1.03,2.27.26,4.66.3,6.94.38"/><path class="b" d="M8.76,225.58c5.48,0,11.01,0,16.49,0,3.87-1.72,7.94-3.17,12.15-3.76,4.01-.62,8.14-.57,12.15-1.19,9.48-1.04,16.2-4.65,24.31-9.23,6.49-3.65,11.28-4.41,18.23-1.35,6.04,2.46,11.53,6.98,18.23,7.42,3.51,0,7-.94,10.42-1.6,4.83-1.03,9.83-1.58,14.76-1.11,3.77.27,7.51,1.27,11.28,1.41,5.2.18,10.43-.39,15.63-.31,4.35,0,8.73.56,13.02,1.25,2.56.3,5.24.3,7.81.35"/><path class="b" d="M8.76,220.87c5.19,0,10.43,0,15.63,0,3.45-1.18,6.83-2.78,10.42-3.56,5.95-1.61,12.19-.84,18.23-1.67,4.93-.75,9.56-2.89,13.89-5.29,3.66-1.98,7.27-4.32,11.28-5.54,11.86-3.23,20.55,8.43,31.25,11.06,7.12,1.43,13.48-3.32,19.97-5.45,9.78-3.62,14.1-.35,23.44,1.79,5.69,1.43,11.53,2.44,17.36,3.09,4.3.64,8.69.63,13.02.34"/><path class="b" d="M8.76,215.82c1.9.65,4.1.21,6.08.33,2.87-.06,5.82.12,8.68-.09,5.4-1.78,10.78-4.02,16.49-4.53,3.46-.41,6.97.06,10.42.33,2.63.08,5.33-.43,7.81-1.29,3.96-1.37,7.62-3.57,11.28-5.56,3.7-2.02,7.82-4,12.15-3.36,6.91.66,13.11,4.14,19.1,7.4,3.57,1.9,7.26,3.95,11.29,4.69,2.34.33,4.8-.3,6.94-1.22,6.67-2.76,12.42-8.61,19.97-8.73,2.45,0,4.78,1.14,6.94,2.16,2.87,1.38,5.76,2.92,8.68,4.2,8.91,4.12,19.09,4.57,28.65,2.86"/><path class="b" d="M8.76,207.56c2.51,1.25,5.06,2.75,7.81,3.38,6.28,1.12,12.24-2.11,18.23-3.46,3.37-.84,6.95-1.25,10.42-.8,2.02.21,4.05.98,6.08,1.14,5.58.48,10.78-2.18,15.63-4.61,3.52-1.72,7.26-3.71,11.28-3.61,2.02.16,4.08.8,6.08,1.14,3.47.68,7.01,1.41,10.42,2.39,5.33,1.48,10.47,3.67,15.63,5.66,7.85,3.45,14.91-3.5,21.7-6.48,5.96-2.78,9.39-1.97,14.76,1.51,4.62,2.83,9.35,5.88,14.76,6.9,3.41.68,6.98.48,10.42.18,3.83-.08,7.6-1.04,11.29-1.98"/><path class="b" d="M8.76,199.95c2.53,1.67,5,3.68,7.81,4.86,6.08,2.29,12.33-.92,18.23-2.34,3.65-.95,7.58-1.39,11.28-.51,1.43.31,2.92.98,4.34,1.34,1.66.41,3.51.54,5.21.41,6.69-.48,12.49-4.62,19.1-5.45,1.71-.18,3.6,0,5.21.63,1.63.64,3.48,1.06,5.21,1.26,5.17.59,10.45-.03,15.63.59,2.63.29,5.32.89,7.81,1.78,2.25.81,4.5,2.07,6.94,2.17,7.11.4,13.14-4.4,19.97-5.52,2.99-.55,6.13.17,8.68,1.78,2.85,1.61,5.68,3.47,8.68,4.82,1.31.66,2.86,1.12,4.34.96,1.69,0,3.52,0,5.21,0,3.17-.06,6.45.29,9.55-.55,1.38-.26,2.97-.34,4.34-.65,2.32-.52,4.67-1.37,6.94-2.07"/><path class="b" d="M8.76,194.08c2.53,1.93,4.97,4.22,7.81,5.68,5.97,2.86,12.38-.51,18.23-2.1,3.35-.96,6.96-1.54,10.42-.86,2.08.36,4.05,1.43,6.08,1.96,4.85,1.35,9.95.49,14.76-.59,14.62-3.56,11.78,2.18,22.57,1.29,5.49-.57,10.93-2.39,16.49-1.86,2.71.17,5.31,1.21,7.81,2.18,6.01,1.97,12.28-.12,18.23-1.29,8.12-1.6,10.35.24,17.36,3.44,5.76.21,11.59.01,17.36.08,2.32-.47,4.58-1.62,6.94-1.97,3.58-.24,7.05-1.41,10.42-2.57"/><path class="b" d="M8.76,190.54c2.73,2.34,5.36,5.11,8.68,6.61,1.08.24,2.38.12,3.47.14,1.69-.04,3.53.1,5.21-.1,3.85-1.17,7.48-3.14,11.28-4.44,9.12-3.2,11.39.76,19.97,1.72,6.91,1.02,14.23.14,20.83,2.81,6.06.01,12.17,0,18.23,0,1.74.11,3.51-.64,5.21-.92,2.25-.44,4.66-.65,6.94-.36,1.74.2,3.5.91,5.21,1.26,4.32.04,8.7,0,13.02.02,3.16-.23,6.37-.84,9.55-.8,1.4,0,2.97.12,4.34.37,1.07.27,2.36.53,3.47.43,6.06-.08,12.18.16,18.23-.09,3.14-1.17,6.25-2.74,9.55-3.45,1.37-.3,2.96-.22,4.34-.47,2.34-.41,4.69-1.24,6.94-1.97"/><path class="b" d="M8.76,187.42c1.93,1.73,3.95,3.61,6.08,5.1,4.61.15,9.28.01,13.89.06,1.22.16,2.43-.53,3.47-1.07,1.1-.55,2.38-1.23,3.47-1.78,3.72-1.86,7.9-3.73,12.15-3.03,7.01,1.61,14.06,3.33,20.83,5.8,3.73.18,7.55.02,11.29.07,24.88,0,49.77,0,74.66,0,2.08.2,4.14-.6,6.08-1.26,2.85-.97,5.75-2.13,8.68-2.85,2.23-.66,4.66-.49,6.94-.68,2.34-.31,4.7-1.09,6.94-1.8"/><path class="b" d="M8.76,183.15c2.22,1.61,4.4,3.66,6.94,4.73,1.99,0,4.09,0,6.08,0,2.28,0,4.66,0,6.94,0,.79,0,1.82,0,2.6-.01.46-.19,1.29-.59,1.74-.79,9.09-4.43,12.23-6.77,22.57-3.99,3.95,1.03,7.75,2.75,11.28,4.76,8.96.1,17.95,0,26.91.04,9.54,0,19.11,0,28.65,0,8.09-.01,16.21.03,24.31-.01,4.91-1.02,9.83-2.25,14.76-3.21,3.41-.65,6.94-1.16,10.42-1.11,1.39.01,2.95.24,4.34.11,2.34-.21,4.7-.92,6.94-1.59"/><path class="b" d="M8.76,177c7.79,3.94,13.47,7.71,22.57,5.35,5.03-1.18,9.7-3.7,14.76-4.76,6.61-1.22,13.5.6,19.1,4.21.77.45,1.69,1.24,2.6,1.37,1.69,0,3.52,0,5.21,0,8.09,0,16.21,0,24.31,0,9.54,0,19.11,0,28.65,0,3.16,0,6.39,0,9.55,0,1.08,0,2.39,0,3.47,0,.8.03,1.9.03,2.6-.41,5.46-2.41,11.35-4.12,17.36-4.07,5.55-.09,11,1.38,16.49,1.88,2.63.04,5.29-.66,7.81-1.34"/><path class="b" d="M8.76,169.15c6.39.88,11.9,4.68,18.23,5.74,11.87,2.4,22.14-5.98,33.86-1.13,1.78.71,3.6,1.69,5.21,2.72,1.11.59,2.17,1.86,3.47,1.95,6.35,0,12.74,0,19.1,0,14.17,0,28.36,0,42.54,0,1.98,0,4.09,0,6.08,0,4.06-1.76,7.78-4.5,12.15-5.51,3.98-1.03,8.23-.69,12.15.41,4.07,1.08,8,2.9,12.15,3.69,3.17.6,6.46-.15,9.55-.85"/><path class="b" d="M8.76,160.64c5.08-.55,8.63,1.16,13.02,3.32,4.12,1.95,8.47,3.71,13.02,4.27,7.55,1.17,15.04-2.09,22.57-.92,5.21.71,9.54,3.72,13.89,6.42,2.87,0,5.81,0,8.68,0,17.94,0,35.89,0,53.82,0,1.17-.06,2.41-.76,3.47-1.18,2.04-.9,4.14-2.02,6.08-3.12,2.67-1.46,5.65-2.6,8.68-2.96,7.96-1.14,14.99,3.71,22.57,5.08,2.86.39,5.84-.03,8.68-.39"/><path class="b" d="M8.76,153.12c4.62-1.46,8.19-.36,12.15,2.1,4.02,2.36,7.89,5.12,12.15,7.04,5.12,2.46,10.95,2.98,16.49,1.92,5.27-.82,10.76-.16,15.63,2.05,1.11.49,2.4,1.13,3.47,1.71.77.39,1.7,1.12,2.6,1.08,6.06,0,12.17,0,18.23,0,9.25,0,18.53,0,27.78,0,3.16,0,6.39,0,9.55,0,1.39-.02,2.95.05,4.34-.06,1.1-.37,2.4-.86,3.47-1.32,5.66-2.3,10.59-6.28,16.49-7.99,6.72-2.16,13.59.15,19.97,2.36,3.92,1.28,8.1,1.75,12.15,2.44"/><path class="b" d="M8.76,147.76c2.75-1.03,5.95-1.36,8.68-.1,4.81,2.23,8.72,6.03,13.02,9.05,4.3,3.12,9.31,5.87,14.76,5.81,2.31.01,4.65-.63,6.94-.76,2.88-.22,5.86-.02,8.68.57,1.41.29,2.97.72,4.34,1.17,1.37.54,2.85.96,4.34.81,11.86,0,23.73,0,35.59,0,6.64,0,13.32,0,19.97,0,1.39-.03,2.96.08,4.34-.08,3.01-1.16,5.92-2.77,8.68-4.44,7.96-4.63,16.25-11.37,26.04-9.46,2.64.44,5.28,1.33,7.81,2.19,3.9,1.15,7.7,2.77,11.29,4.67"/><path class="b" d="M8.76,144.88c3.12-.92,6.63-.93,9.55.62,5.1,2.68,9.18,6.96,13.89,10.21,2.13,1.5,4.49,2.9,6.94,3.78,1.98.21,4.09.05,6.08.1,14.75,0,29.52,0,44.27,0,11.86,0,23.73,0,35.59,0,1.39-.11,3.09.34,4.34-.42,3.04-1.51,5.91-3.52,8.68-5.47,2.49-1.83,5.26-3.42,7.81-5.16,3.04-2.07,6.14-4.28,9.55-5.73,4.95-2.28,10.66-1.77,15.63.21,1.71.65,3.61,1.29,5.21,2.2,2.44,1.4,4.74,3.24,6.94,4.97"/><path class="b" d="M8.76,143.95c8.53-1.11,13.53,3.68,19.97,8.24,1.36.91,2.82,2.04,4.34,2.69,2.28,0,4.66,0,6.94,0,15.33,0,30.68,0,46.01,0,1.39-.04,2.97.12,4.34-.14,2.78-.85,5.76-1.37,8.68-1.26,2.93.01,5.81.98,8.68,1.4,6.06,0,12.17,0,18.23,0,.42,0,1.31,0,1.74,0,1.17-.38,2.43-1.17,3.47-1.81,2.39-1.51,4.71-3.33,6.94-5.05,2.44-1.98,5.28-3.58,7.81-5.44,3.34-2.45,6.64-5.18,10.42-6.94,6.43-3.22,13.09-1.19,19.1,1.98,2.87,1.76,5.34,4.24,7.81,6.5"/><path class="b" d="M8.76,143.58c8.05.24,11.64,2.72,18.23,6.58,7.51,0,15.06,0,22.57,0,7.51,0,15.06,0,22.57,0,2.57,0,5.24,0,7.81,0,1.39-.1,3.06.3,4.34-.37,9.05-4.26,13.81-5.4,23.44-1.8,2.52.88,5.22,1.52,7.81,2.14,1.08.05,2.39.02,3.47.03,1.39,0,2.95,0,4.34,0,1.09-.03,2.44.14,3.47-.3,4.88-1.69,8.91-5.15,13.02-8.16,1.93-1.44,4.16-2.68,6.08-4.14,3.33-2.46,6.63-5.19,10.42-6.93,6.25-3.05,12.35-1.07,18.23,1.81,3.26,1.74,5.93,4.54,8.68,6.96"/><path class="b" d="M8.76,143.56c2.3.19,4.7.51,6.94,1.06,1.12.21,2.33.83,3.47.83,4.03,0,8.12,0,12.15,0,12.44,0,24.89,0,37.33,0,3.74,0,7.54,0,11.29,0,1.79-.36,3.56-1.28,5.21-2.03,6.3-3.2,12.07-5.1,19.1-2.94,4.58,1.41,9.23,2.8,13.89,3.94,9.46,2.43,15.97-2.38,23.44-7.32,5.88-3.34,10.8-8.52,17.36-10.59,5.22-1.75,10.75-.12,15.63,1.93,3.17,1.44,5.89,3.82,8.68,5.86"/><path class="b" d="M8.76,140.74c19.09,0,38.2,0,57.29,0,3.45,0,6.97,0,10.42,0,1.39,0,2.95,0,4.34,0,1.45-.41,2.97-1.14,4.34-1.74,4.85-2.29,10.18-4.21,15.63-3.42,2.93.35,5.84,1.28,8.68,2.03,3.47.74,6.94,1.78,10.42,2.5,9.36,2.05,16.5-2.6,24.31-6.94,4.95-3.02,9.4-6.99,14.76-9.32,8.56-3.86,16.74-1.06,24.31,3.58"/><path class="b" d="M8.76,136.03c19.67,0,39.36,0,59.03,0,3.45,0,6.97,0,10.42,0,1.69-.05,3.53.13,5.21-.12.78-.3,1.83-.72,2.6-1.02,4.39-1.76,9.12-3.05,13.89-2.66,3.21.2,6.41,1.03,9.55,1.66,3.75.59,7.52,1.44,11.28,1.9,5.3.68,10.71-.3,15.63-2.33,3.19-1.35,6.51-2.65,9.55-4.33,13.48-8.13,20.8-15.74,37.33-8.64"/><path class="b" d="M8.76,131.31c23.43,0,46.88,0,70.31,0,1.98-.08,4.12.19,6.08-.16,3.91-1.32,8.01-2.41,12.15-2.53,3.77-.14,7.57.5,11.28,1.05,3.72.48,7.53.84,11.28.95,6.23.2,12.39-1.26,18.23-3.3,2.87-1.01,5.9-1.84,8.68-3.07,12.9-5.76,21.31-13.79,36.46-9.39"/><path class="b" d="M8.76,126.6c23.15,0,46.3,0,69.45,0,1.69-.08,3.58.23,5.21-.32,3.4-.99,6.9-1.94,10.42-2.38,5.77-.82,11.6.15,17.36.55,8.87.64,17.6-1.39,26.04-3.9,6.93-1.83,14.03-3.04,20.83-5.36,8.08-2.62,16.61-5.52,25.17-3.71"/><path class="b" d="M8.76,121.89c13.59,0,27.21,0,40.8,0,6.06,0,12.17,0,18.23,0,1.12.08,2.39-.28,3.47-.53,1.69-.39,3.52-.8,5.21-1.17,6.64-1.34,13.15-3.66,19.97-4.01,6.95-.45,13.89,1.19,20.83.54,9.74-.55,18.9-4.76,28.65-5.13,6.35-.11,12.75.52,19.1.08,6.06-.21,12.17-1.76,18.23-.83"/><path class="b" d="M8.76,117.17c9.54,0,19.11,0,28.65,0,5.19-.09,10.45.19,15.63-.12,9.86-2.53,19.39-6.48,29.51-7.94,5.14-.91,10.47-1.03,15.63-.16,5.74.88,11.5,2.78,17.36,1.96,5.63-.67,11.02-2.68,16.49-4.05,12.92-3.62,18.47.85,30.38,3.83,3.39.82,6.93,1.28,10.42,1.26,3.45-.04,6.97-.38,10.42-.08"/><path class="b" d="M8.76,112.46c2.3.12,4.65-.31,6.94-.34,2.87.02,5.8.48,8.68.34,2.28,0,4.66,0,6.94,0,2.02.04,4.13.06,6.08-.57,2.89-.72,5.78-1.73,8.68-2.4,3.77-.65,7.63-1.13,11.29-2.34,7.77-2.29,15.31-5.79,23.44-6.67,7.95-1.01,15.42,2.4,22.57,5.4,6.57,2.76,10.83,2.61,17.36-.16,9.05-3.85,16.37-7.29,26.04-2.73,8.42,3.77,16.7,8.47,26.04,9.42,3.45.12,6.97.01,10.42.05"/><path class="b" d="M8.76,107.08c7.51.05,15.21.91,22.57-.98,4.15-1.02,8.11-2.83,12.15-4.18,2.49-.91,5.2-1.12,7.81-1.36,2.3-.28,4.68-.71,6.94-1.21,6.95-1.51,13.73-4.07,20.83-4.84,15.5-1.91,25.6,15.54,37.33,10.41,8.76-3.76,16.19-10.34,26.04-4.98,3.7,2.02,7.43,4.16,11.29,5.89,1.93.75,3.94,2.04,6.08,1.92,7.8,0,15.64,0,23.44,0"/><path class="b" d="M8.76,102.04c1.99.3,4.07.76,6.08.97,5.3.24,10.68-.61,15.63-2.52,4.73-1.75,9.11-4.45,13.89-6.06,3.33-1.15,6.96-.76,10.42-.95,4.62-.12,9.29-.46,13.89-.96,12.73-1.48,17.3-1.95,28.65,4.97,2.26,1.34,4.6,2.8,6.94,4,1.61.79,3.36,1.77,5.21,1.55,1.99-.02,4.09.04,6.08-.03,5.24-2.04,9.87-5.98,15.63-6.54,3.73-.39,7.42,1.1,10.42,3.24,1.67,1.09,3.26,2.8,5.21,3.33,12.15,0,24.31,0,36.46,0"/><path class="b" d="M8.76,97.19c9.18,2.62,16.94.5,25.17-3.82,4.45-2.19,8.84-5.17,13.89-5.65,7.89-.07,15.58,2.36,23.44,2.87,4.02.41,8.13.3,12.15.68,6.11.6,11.84,3.05,17.36,5.59,1.08.48,2.36,1.07,3.47,1.46,1.69,0,3.52,0,5.21,0,3.16-.05,6.4.1,9.55-.07,7.17-3.53,13.01-5.07,19.97.05,14.75.05,29.52,0,44.27.02"/><path class="b" d="M8.76,91.81c2.29.19,4.64.71,6.94.8,6.35-.07,12.53-2.08,18.23-4.77,4.71-2.07,9.46-5,14.76-4.95,7.6.45,14.42,4.44,21.7,6.32,6.75,2.1,13.87,1.74,20.83,2.1,4.98.23,9.87,1.44,14.76,2.3,4.03,0,8.12,0,12.15,0,1.98-.46,4.05-1.12,6.08-1.37,1.98-.27,4.13-.2,6.08.3,1.41.32,2.85,1.24,4.34,1.06,16.2,0,32.41,0,48.61,0"/><path class="b" d="M8.76,86.67c2.58-.02,5.23.43,7.81.35,4.44-.27,8.84-1.37,13.02-2.84,6.95-2.27,14.2-6.66,21.7-4.46,4.92,1.45,9.33,4.26,13.89,6.53,1.37.7,2.92,1.44,4.34,2.05.75.35,1.77.71,2.6.6,3.45,0,6.97,0,10.42,0,4.32,0,8.7,0,13.02,0,2.83-.63,5.78-1.11,8.68-1.21,2.89-.16,5.82.29,8.68.58,1.99.09,4.09-.12,6.08-.22,1.99-.11,4.11-.09,6.08.25.78.13,1.84.4,2.6.6,1.08,0,2.39,0,3.47,0,17.36,0,34.73,0,52.09,0"/><path class="b" d="M8.76,82.06c2.58-.13,5.24.23,7.81.14,2.31-.12,4.7-.56,6.94-1.11,8.48-2,17.19-6.7,26.04-4.12,4.34,1.38,8.23,3.98,12.15,6.22.44.25,1.29.75,1.74.98.45,0,1.29,0,1.74,0,1.39,0,2.95,0,4.34,0,4.03,0,8.12,0,12.15,0,6.06,0,12.17,0,18.23,0,1.44.07,2.92-.75,4.34-.95,1.96-.41,4.09-.55,6.08-.3,3.71.66,7.55.82,11.29,1.26,6.35,0,12.74,0,19.1,0,14.17,0,28.36,0,42.54,0"/><path class="b" d="M8.76,77.91c4.04-.15,8.17.6,12.15-.36,8.53-1.91,17.26-5.69,26.04-2.82,3.7,1,6.91,3.33,10.42,4.74,7.8,0,15.64,0,23.44,0,34.14,0,68.29,0,102.43,0"/><path class="b" d="M8.76,74.02c3.74-.12,7.57.69,11.28-.02,6.85-1.31,13.78-3.99,20.83-2.43,2.05.41,4.16,1.12,6.08,1.95,1.1.39,2.26,1.38,3.47,1.22,8.09,0,16.21,0,24.31,0,36.17,0,72.34,0,108.51,0"/><path class="b" d="M8.76,70.03c4.03,0,8.12.02,12.15,0,4.02-.67,8.05-1.77,12.15-1.82,2.01-.03,4.12.19,6.08.66,1.43.26,2.89,1.05,4.34,1.16,3.16,0,6.39,0,9.55,0,43.4,0,86.81,0,130.21,0"/><path class="b" d="M8.76,65.33c58.16-.02,116.32,0,174.48,0"/><path class="b" d="M8.76,60.61h174.48"/><path class="b" d="M8.76,55.9c58.19.03,116.33-.07,174.48,0"/><path class="b" d="M8.76,51.19c25.46,0,50.93,0,76.39,0,9.54,0,19.11,0,28.65,0,3.45,0,6.97,0,10.42,0,2.54-.71,5.16-1.51,7.81-1.68,3.47-.3,7.01.19,10.42.82,1.7.23,3.47.97,5.21.87,11.86,0,23.73,0,35.59,0"/><path class="b" d="M8.76,46.35c5.86-2.84,10.55-1.61,16.49,0,1.67.27,3.52.08,5.21.13,16.49,0,32.99,0,49.48,0,9.83,0,19.68,0,29.51,0,4.87-1.23,9.67-3.2,14.76-3.32,5.7-.32,11.06,2,16.49,3.32,14.17,0,28.36,0,42.54,0"/><path class="b" d="M8.76,38.15c2.16-.97,4.56-1.77,6.94-1.8,5.09.24,9.97,2.17,14.76,3.74,1.69.54,3.47,1.31,5.21,1.66,2.28,0,4.66,0,6.94,0,11.86,0,23.73,0,35.59,0,6.64,0,13.32,0,19.97,0,1.09,0,2.39,0,3.47,0,.79-.42,1.84-1.05,2.6-1.52,4.89-3.33,10.47-5.63,16.49-4.94,3.7.41,7.21,2,10.42,3.8,1.09.62,2.39,1.38,3.47,2.02.34.31,1.27.65,1.74.63,15.62,0,31.26,0,46.88,0"/><path class="b" d="M8.76,30.64c5.31-2.26,9.41-1.2,14.76-.04,5.23,1.16,10.46,2.52,15.63,3.92,2.89.75,5.8,1.74,8.68,2.51,5.48,0,11.01,0,16.49,0,6.35,0,12.74,0,19.1,0,2.87,0,5.81,0,8.68,0,1.47-.15,2.99-.88,4.34-1.45,4.24-1.92,7.97-4.91,12.15-6.92,10.44-4.47,18.28,2.33,26.04,8.38h48.61"/><path class="b" d="M8.76,24.25c1.94-.52,4.07-.78,6.08-.67,2.3.17,4.65.74,6.94.9,4.9.47,9.88.49,14.76,1.21,3.24.47,6.52,1.28,9.55,2.55,3.15,1.37,6.22,3.17,9.55,4.09,6.06,0,12.17,0,18.23,0,2.57,0,5.24,0,7.81,0,3.91-.84,7.69-2.49,11.29-4.21,4.93-2.37,9.52-5.64,14.76-7.31,5.27-1.51,11.01.14,15.63,2.82,4.14,2.34,7.6,5.76,11.28,8.7h48.61"/><path class="b" d="M8.76,18.27c4.09-.69,8.1.79,12.15.93,4.63.09,9.26-.88,13.89-.81,3.9.02,7.86.92,11.28,2.81,2.4,1.33,4.64,3.14,6.94,4.62,1.07.61,2.22,1.65,3.47,1.8,4.03,0,8.12,0,12.15,0,3.74-.02,7.55.05,11.29-.03,7.93-3.32,14.27-9.81,22.57-12.35,3.07-.94,6.46-1.06,9.55-.11,2.94.78,5.92,1.75,8.68,3.01,3.37,1.54,6.59,3.58,9.55,5.81,1.43,1.08,2.98,2.34,4.34,3.5.75.21,1.83.17,2.6.16,15.33,0,30.68,0,46.01,0"/><path class="b" d="M8.76,12.26c3.83-.17,7.49,1.43,11.28,1.56,4.66.05,9.24-1.39,13.89-1.48,3.95-.14,7.95.92,11.29,3.04,3.16,1.99,5.81,4.82,8.68,7.19,1.29.63,2.95.24,4.34.34,2.57,0,5.24,0,7.81,0,4.61,0,9.28,0,13.89,0,2.3-.63,4.19-2.59,6.08-3.98,3.54-2.88,7.06-6.07,11.29-7.93,7.29-3.15,11.72.06,18.23,2.78,4.04,1.57,8.25,2.89,12.15,4.79,1.75.84,3.58,1.87,5.21,2.94.75.47,1.68,1.33,2.6,1.4,15.91,0,31.83,0,47.74,0"/></svg>