<?xml version="1.0" encoding="UTF-8"?><svg id="a" xmlns="http://www.w3.org/2000/svg" width="1920" height="2400" viewBox="0 0 192 240"><defs><style>.b{fill:none;stroke:#fff;stroke-miterlimit:10;stroke-width:.4px;}.c{stroke-width:0px;}</style></defs><rect class="c" width="192" height="240"/><path class="b" d="M8.65,226.76c2.31-1.24,4.57-2.8,6.95-3.91,2.8-1.08,5.75-2.09,8.69-2.71,6.48-1.48,12.48,1.98,17.38,5.89,1.09.76,2.23,1.91,3.48,2.4,1.99,0,4.09,0,6.08,0,4.62,0,9.29,0,13.91,0,24.91-.06,49.84.11,74.75-.06,7.12-7.39,14.9-15.29,26.08-12.44,2.59.56,5.21,1.44,7.82,1.91,3.14.51,6.39.78,9.56.93"/><path class="b" d="M8.65,223.54c2.56-1.55,5.06-3.44,7.82-4.61,3.62-1.31,7.38-2.81,11.3-2.74,6.04.06,11.06,3.98,15.65,7.48,25.78.17,51.58,0,77.36.06,4.91,0,9.87,0,14.78,0,1.09-.04,2.43.14,3.48-.22,1.37-1.31,2.9-2.78,4.35-4.01,9.74-8.34,15.72-9.05,27.81-5.54,3.98.9,8.13,1.19,12.17,1.69"/><path class="b" d="M8.65,219c1.26.18,2.43-.43,3.48-1.03,1.08-.55,2.35-1.17,3.48-1.62,5.79-2.05,12.23-4.07,18.25-1.78,2.77.97,5.39,2.53,7.82,4.16,1.61.56,3.53.16,5.22.27,9.84,0,19.71,0,29.55,0,19.12,0,38.25,0,57.37,0,1.7.27,3.05-1.17,4.35-2.04,1.96-1.42,4.01-2.98,6.08-4.23,8.22-5.06,16.3-3.75,25.21-1.77,4.56.92,9.29,1.07,13.91,1.58"/><path class="b" d="M8.65,214.28c1.77.14,3.52-.69,5.22-1.09,6.52-1.47,13.26-3.91,19.99-2.43,2.07.43,4.18,1.2,6.08,2.1,1.11.42,2.25,1.45,3.48,1.41,1.7,0,3.52,0,5.22,0,7.52,0,15.08,0,22.6,0,1.71.12,3.51-.37,5.22-.33,1.41.06,2.93.44,4.35.33,10.13,0,20.29,0,30.42,0,3.45,0,6.98,0,10.43,0,2.31-.05,4.79.31,6.95-.7,3.52-1.25,7.01-2.79,10.43-4.31,2.78-1.23,5.63-2.64,8.69-2.97,5.8-.69,11.62.58,17.38,1.12,6.05.67,12.18.61,18.25.97"/><path class="b" d="M8.65,208.24c3.16-.26,6.42-.16,9.56-.66,4.05-.64,8.07-1.8,12.17-2.13,3.19-.27,6.49,0,9.56.9,1.44.42,2.99,1.02,4.35,1.65,1.12.46,2.28,1.36,3.48,1.56,6.36,0,12.76,0,19.12,0,1.43-.07,2.93-.71,4.35-.91,1.97-.36,4.12-.46,6.08-.05.8.17,1.86.53,2.61.87,1.09.14,2.39.07,3.48.08,11.29,0,22.61,0,33.9,0,1.17-.06,2.4-.77,3.48-1.16,1.39-.57,2.94-1.21,4.35-1.74,3.35-1.28,6.89-2.24,10.43-2.82,3.17-.43,6.38-1.16,9.56-1.48,3.19-.12,6.41.54,9.56.94,5.77.94,11.63.31,17.38-.4,3.73-.3,7.56-.24,11.3-.2"/><path class="b" d="M8.65,200.83c2.29.2,4.65.67,6.95.8,5.93.14,11.56-2.33,17.38-3.08,3.76-.55,7.72-.36,11.3.97,2.13.71,4.08,2.06,6.08,3.03,4.35,2,9.3,1.55,13.91.88,3.71-.51,7.59-1.05,11.3-.24,1.46.31,3.03.91,4.35,1.62.78.05,1.83.04,2.61.04,10.71,0,21.45,0,32.16,0,.87.15,1.87-.44,2.61-.84.77-.42,1.84-1,2.61-1.42,2.46-1.34,5.1-2.61,7.82-3.33,3.95-1.11,8.13-.72,12.17-.44,2.88.06,5.84-.16,8.69.41,4.29.7,8.77,1.06,13.04,0,3.53-.78,6.92-2.31,10.43-3.16,3.69-.74,7.56-.6,11.3-.5"/><path class="b" d="M8.65,193.54c2.3.18,4.65.69,6.95.85,6.26.25,12.14-2.56,18.25-3.49,4.05-.7,8.36-.5,12.17,1.13,2.82,1.33,5.57,3.08,8.69,3.64,7.43,1.61,15.45-.26,22.6,2.82,1.42.47,2.78,1.8,4.35,1.64,3.16,0,6.4,0,9.56,0,7.52,0,15.08,0,22.6,0,.42,0,1.31,0,1.74,0,.8-.34,1.84-.91,2.61-1.32,1.94-1.04,4.01-2.11,6.08-2.85,3.3-1.24,6.95-1.52,10.43-1.05,1.99.24,4.08.64,6.08.79,1.39.11,2.95-.06,4.35-.02,4.67.21,9.51.24,13.91-1.58,10.34-4.3,11.7-8.68,24.34-6.5"/><path class="b" d="M8.65,185.77c3.76-.01,7.53.93,11.3.57,5.51-.31,10.99-1.5,16.51-1.54,3.22-.03,6.53.41,9.56,1.51,2.56,1.01,5.08,2.42,7.82,2.93,5.99,1.33,12.27.74,18.25,2.15,2.39.55,4.8,1.44,6.95,2.62.78.42,1.76,1.11,2.61,1.4.78,0,1.83,0,2.61,0,7.81,0,15.66,0,23.47,0,2.58,0,5.25,0,7.82,0,1.39-.05,2.98.14,4.35-.16.42-.22,1.31-.65,1.74-.86,4.28-2.15,9.14-3.09,13.91-2.6,4.91.59,9.94.42,14.78-.61,7.85-1.67,13.36-7.99,19.99-12,3.92-2.36,8.86-1.66,13.04-.42"/><path class="b" d="M8.65,178.31c2.61-.18,5.26.39,7.82.75,4.03.48,8.12.99,12.17,1.31,4.91.43,9.91.51,14.78,1.37,2.97.43,5.76,1.82,8.69,2.37,7.48,1.27,15.38.04,22.6,2.85,2.42.88,4.81,2.12,6.95,3.54,1.66.37,3.53.11,5.22.18,2.87,0,5.82,0,8.69,0,9.55-.05,19.14.1,28.68-.06,4.55-2.35,9.7-3.2,14.78-3.2,12.87-.14,18.05-5.24,26.95-13.49,2.29-1.97,4.78-4.2,7.82-4.85,3.19-.46,6.55,0,9.56,1.12"/><path class="b" d="M8.65,172.02c2.34-.06,4.72.59,6.95,1.21,3.8.92,7.54,2.24,11.3,3.27,4.8,1.35,9.82,1.78,14.78,1.99,1.7.1,3.53.23,5.22.52,1.98.41,4.06.88,6.08.93,5.78.18,11.71-.53,17.38.92,2.69.64,5.36,1.69,7.82,2.94,1.44.61,2.81,1.86,4.35,2.16,2.28,0,4.67,0,6.95,0,8.1,0,16.23,0,24.34,0,2.87,0,5.82,0,8.69,0,1.09-.04,2.42.13,3.48-.2.75-.43,1.83-.98,2.61-1.35,4.58-2.33,9.74-3.05,14.78-3.71,3.99-.55,7.94-1.89,11.3-4.14,6.02-3.8,10.37-9.84,16.51-13.44,1.54-.88,3.47-1.1,5.22-1.12,2.31-.07,4.75.21,6.95.91"/><path class="b" d="M8.65,167.02c8.16,1.55,15.18,6.99,23.47,8.16,4.32.68,8.71-.07,13.04-.3,2.59-.12,5.23.46,7.82.3,5.8-.28,11.77-.73,17.38,1.11,2.68.82,5.33,2.01,7.82,3.29,1.36.6,2.77,1.84,4.35,1.67,2.58,0,5.25,0,7.82,0,11.29-.02,22.61.04,33.9-.02,4.52-3.05,9.41-5.8,14.78-7.01,3.14-.76,6.45-1.08,9.56-1.94,4.13-1.1,7.92-3.32,11.3-5.9,2.62-1.97,5.17-4.21,7.82-6.13,2.27-1.68,4.94-3.08,7.82-3.07,2.57-.24,5.26-.42,7.82.01"/><path class="b" d="M8.65,162.71c2.44.79,4.72,2.21,6.95,3.43,3.67,1.82,7.34,3.89,11.3,5.02,6.34,1.94,12.12-.43,18.25-1.75,1.98-.41,4.09-.14,6.08-.16,3.16-.04,6.41-.23,9.56.08,4.23.38,8.37,1.76,12.17,3.61,1.41.68,2.96,1.5,4.35,2.23,1.08.47,2.24,1.51,3.48,1.35,10.42,0,20.87,0,31.29,0,2.87-.03,5.82.06,8.69-.04,4.8-2.89,9.47-6.21,14.78-8.13,6.43-2.54,13.66-2.18,19.99-5.01,3.37-1.45,6.51-3.54,9.56-5.54,2.43-1.56,4.98-3.26,7.82-3.95,3.46-.36,6.95-1.14,10.43-1.24"/><path class="b" d="M8.65,158.68c2.72,1.37,5.19,3.34,7.82,4.85,7.72,4.38,13.6,5.11,21.73,1.29,7.06-3.22,7.94-3.5,15.65-2.83,5.49.34,10.85,2.05,15.65,4.71,2.02,1.09,4.11,2.35,6.08,3.51,1.33.76,2.73,1.84,4.35,1.59,5.49,0,11.02,0,16.51,0,2.87-.02,5.82.05,8.69-.04,1.07-.26,2.37-.51,3.48-.61,1.4-.16,2.95.11,4.35.09,1.11-.05,2.41-.31,3.48-.63,5.96-1.94,11.33-5.49,17.38-7.2,3.39-1.02,6.95-1.64,10.43-2.23,3.8-.52,7.71-1,11.3-2.42,3.35-1.27,6.5-3.17,9.56-5.02,2.44-1.44,5.02-3.02,7.82-3.63,3.49-.26,6.96-1.18,10.43-1.57"/><path class="b" d="M8.65,156.71c9.96,6.94,15.23,11.2,26.95,4.09,4.07-2.26,8.11-5.92,13.04-5.67,7.9.42,15.1,3.36,21.73,7.54,2.56,1.49,5.11,3.22,7.82,4.42,1.39,0,2.95,0,4.35,0,4.33-.05,8.72.09,13.04-.06,3.71-1.41,7.37-3.28,11.3-4,3.21-.67,6.33.68,9.56.06,3.82-.54,7.55-1.8,11.3-2.64,3.69-.87,7.52-1.32,11.3-1.57,5.9-.42,12.02-.85,17.38-3.59,3.32-1.6,6.43-3.76,9.56-5.68,2.38-1.42,4.99-2.92,7.82-3.08,3.19.08,6.39-.69,9.56-.91"/><path class="b" d="M8.65,155.53c3.16,1.88,6.17,4.22,9.56,5.69,6.11,2.69,12.45-.78,17.38-4.35,3.94-2.57,8.02-6.45,13.04-6.05,7,.69,13.72,3.09,19.99,6.2,7.15,3.28,12.75,7.21,20.86,4.37,6.61-1.98,12.81-6.71,19.99-5.9,1.42.21,2.92.82,4.35,1.01,1.97.31,4.09.31,6.08.21,5.48-.38,11.02-.92,16.51-.52,7.22.55,12.5,1.09,19.12-2.69,5.57-2.75,12.13-9.79,18.25-9.7,3.15.39,6.4.08,9.56.09"/><path class="b" d="M8.65,154c2.61,1.13,5.24,2.46,7.82,3.65,3.16,0,6.4,0,9.56,0,1.1-.05,2.44.18,3.48-.28,2.4-1.12,4.72-2.61,6.95-4.02,3.43-2.1,7.1-4.71,11.3-4.65,2,.2,4.09.53,6.08.78,6.12.8,12.23,1.97,18.25,3.29,4.85.97,9.88,2.59,14.78.97,6.33-1.74,12.36-5.48,19.12-5.09,2.09.11,4.21.78,6.08,1.67,1.63.66,3.48,1.12,5.21,1.37,6.34.8,12.82.37,19.12,1.52,3.75.48,7.48,1.99,11.3,1.47,8.86-1.18,14.5-9.34,22.6-12.28,1.96-.71,4.11-.21,6.08.15,2.27.32,4.67.46,6.95.63"/><path class="b" d="M8.65,151.59c2.02.3,4.09.91,6.08,1.34,3.16,0,6.4,0,9.56,0,2.58,0,5.24,0,7.82,0,2.01-.82,4.09-1.81,6.08-2.68,4.06-1.84,7.7-2.87,12.17-2.05,7.31.57,14.52-1.34,21.73-2.18,1.98-.23,4.09-.39,6.08-.38,1.4.02,2.96.14,4.35-.05,3.55-.45,6.99-1.77,10.43-2.69,7.64-2.21,13.22-1.4,19.99,2.69,2.7,1.28,5.74,1.92,8.69,2.26,6.42.65,13,.96,19.12,3.2,8.25,3.91,14.09-.03,20.86-4.69,3.17-2.08,6.51-4.61,10.43-4.83,1.44-.05,2.96.54,4.35.83,2.25.49,4.66.79,6.95,1.01"/><path class="b" d="M8.65,148.21c8.39,0,16.81,0,25.21,0,1.1-.03,2.4.11,3.48-.17,2.25-.66,4.62-1.32,6.95-1.63,2.29-.39,4.66.13,6.95.03,3.63-.2,7.14-1.51,10.43-2.98,4.86-2.15,9.56-4.92,14.78-6.13,2.25-.55,4.69-.37,6.95-.86,3.76-.75,7.48-2.04,11.3-2.46,4.81-.63,9.74.57,13.91,3,2.28,1.31,4.47,3.03,6.95,3.96,6.39,2.51,13.49,2.26,19.99,4.37,2.38.69,4.71,1.82,6.95,2.86,2.58,0,5.25,0,7.82,0,8.71-.02,6.08.69,13.91-3.4,3.5-1.85,7.42-3.17,11.3-1.64,2.52.63,5.23.86,7.82.89"/><path class="b" d="M8.65,143.49c9.55,0,19.13,0,28.68,0,1.7,0,3.52,0,5.22,0,1.09-.21,2.37-.39,3.48-.46,1.4-.12,2.95.09,4.35-.02,2.08-.19,4.19-.9,6.08-1.77,7.18-3.3,13.12-9.24,20.86-11.33,1.96-.48,4.11-.42,6.08-.86,2.88-.56,5.79-1.37,8.69-1.82,9.26-1.48,14.39,1.71,21.73,6.59,3.22,1.8,6.86,2.86,10.43,3.71,3.78.9,7.66,1.73,11.3,3.11,1.43.54,2.99,1.23,4.35,1.93.74.37,1.72,1.11,2.61.93,13.61,0,27.24,0,40.85,0"/><path class="b" d="M8.65,138.77c9.84,0,19.71,0,29.55,0,3.16,0,6.4,0,9.56,0,1.09,0,2.39.03,3.48-.04,1.8-.45,3.61-1.3,5.22-2.22,7.27-4.12,13.3-10.99,21.73-12.78,4.05-.34,8.14-.9,12.17-1.45,6.92-.98,14.14.34,19.99,4.23,3.97,2.77,8.43,4.87,13.04,6.32,3.72,1.22,7.59,2.19,11.3,3.45,1.41.48,2.98,1.07,4.35,1.67.76.31,1.75.96,2.61.81,13.9,0,27.82,0,41.72,0"/><path class="b" d="M8.65,134.05c9.26,0,18.55,0,27.81,0,2.87,0,5.82,0,8.69,0,3.32.19,6.71-.43,9.56-2.21,7.61-4.33,13.74-11.76,22.6-13.59,3.42-.46,6.98-.16,10.43-.27,7.39-.05,15.08.58,21.73,4.09,4.03,2.25,7.98,4.79,12.17,6.75,4.46,2.12,9.16,3.89,13.91,5.23,4.91,0,9.87,0,14.78,0,11,0,22.03,0,33.03,0"/><path class="b" d="M8.65,129.33c8.1,0,16.23,0,24.34,0,3.16-.05,6.41.12,9.56-.08,1.37-.52,2.91-1.04,4.35-1.36,1.73-.29,3.62-.55,5.22-1.34,7.94-3.87,13.87-11.46,22.6-13.79,3.11-.87,6.42-.45,9.56.02,7.87,1.38,15.91,2.56,23.47,5.24,4.08,1.5,7.72,4.04,11.3,6.46,2.53,1.67,5.11,3.49,7.82,4.86,6.07,0,12.18,0,18.25,0,12.74,0,25.5,0,38.24,0"/><path class="b" d="M8.65,124.62c9.84,0,19.71,0,29.55,0,2.62-1.06,5.11-2.68,7.82-3.53,1.36-.49,2.98-.62,4.35-1.09,1.48-.53,3.03-1.39,4.35-2.24,7.49-4.88,14.61-12.88,24.34-11.94,4.51.55,8.78,2.41,13.04,3.9,3.41,1.24,6.95,2.36,10.43,3.39,3.53,1.08,7.21,2.11,10.43,3.95,3.44,2.08,6.47,4.89,9.56,7.44,20.26.31,40.57,0,60.84.11"/><path class="b" d="M8.65,119.9c5.78,0,11.6,0,17.38,0,1.99,0,4.09,0,6.08,0,.78,0,1.83,0,2.61,0,.46-.18,1.32-.61,1.74-.86,2.84-1.57,5.68-3.37,8.69-4.61,1.62-.74,3.54-.93,5.22-1.5,9.12-3.85,15.48-14.04,26.08-14.31,3.67-.04,7.18,1.49,10.43,3.06,3.74,1.84,7.47,3.85,11.3,5.49,4.82,2.2,10.11,3.47,14.78,5.98,2.87,1.79,5.39,4.25,7.82,6.57,2.53.44,5.25.08,7.82.19,4.62,0,9.29,0,13.91,0,13.61,0,27.24,0,40.85,0"/><path class="b" d="M8.65,115.18c8.1-.09,16.25.18,24.34-.1,4.24-1.93,8.02-4.82,12.17-6.93,1.9-1.03,4.2-1.35,6.08-2.39,3.13-1.72,5.89-4.16,8.69-6.35,14.12-11.5,20-6.75,33.9,1.18,5.73,3.29,12.2,4.95,18.25,7.48,3.31,1.73,6.04,4.52,8.69,7.1,20.86.06,41.73,0,62.58.02"/><path class="b" d="M8.65,108.52c2.31.52,4.66,1.29,6.95,1.86,2.86.18,5.82.03,8.69.08,2.87,0,5.82,0,8.69,0,1.53-.4,3.01-1.43,4.35-2.25,2.95-1.92,5.71-4.29,8.69-6.17,1.04-.67,2.37-1.26,3.48-1.79,1.5-.81,3.02-1.96,4.35-3.03,5.34-4.32,10.86-10.14,18.25-9.96,8.26.37,14.71,6.22,21.73,9.86,2.74,1.45,5.71,2.63,8.69,3.48,3.15.93,6.5,1.52,9.56,2.75,2.22,1.01,4.26,2.64,6.08,4.24,1.1.89,2.19,2.25,3.48,2.87,2.58,0,5.25,0,7.82,0,17.96,0,35.93,0,53.89,0"/><path class="b" d="M8.65,102.6c2.89.95,5.72,2.36,8.69,3.06,5.48.21,11.03.02,16.51.08,2.08.23,2.83-.55,4.35-1.75,2.09-1.69,4.11-3.69,6.08-5.5,2.06-2.08,4.73-3.57,6.95-5.44,2.91-2.52,5.62-5.44,8.69-7.77,6.31-4.92,11.59-4.13,18.25-.48,6.96,3.18,12.6,8.89,19.99,11.19,9.75,2.93,13.06.29,21.73,7.96.74.58,1.66,1.56,2.61,1.8,1.09,0,2.39,0,3.48,0,2.87,0,5.82,0,8.69,0,6.94,0,13.92,0,20.86,0,1.16-.08,2.35-.87,3.48-1.16,1.35-.41,2.93-.65,4.35-.63,2.68,0,5.3,1,7.82,1.78,4.04,0,8.13,0,12.17,0"/><path class="b" d="M8.65,97.79c2.33.96,4.56,2.42,6.95,3.23,1.99,0,4.1,0,6.08,0,5.49-.09,11.04.19,16.51-.12,3.07-2.93,5.7-6.45,8.69-9.46,3.76-3.13,6.97-6.93,10.43-10.36,8.93-8.58,13.67-4.75,22.6.81,6.12,3.54,11.26,9.02,18.25,10.92,9.68,2.43,12.45-.89,21.73,6.11.78.55,1.84,1.32,2.61,1.87,1.64.45,3.53.13,5.22.22,3.45,0,6.98,0,10.43,0,2.87,0,5.82,0,8.69,0,1.08,0,2.39,0,3.48,0,.47.09,1.35-.14,1.74-.43,2.12-1.44,4.47-2.79,6.95-3.48,6.32-1.81,12.51,1.68,18.25,3.91,1.99,0,4.1,0,6.08,0"/><path class="b" d="M8.65,94c1.43.68,2.89,1.7,4.35,2.3,2.87,0,5.82,0,8.69,0,5.78,0,11.6,0,17.38,0,1.47-.72,2.42-2.61,3.48-3.81,1.89-2.45,3.82-5.13,6.08-7.26,4.46-4.29,7.75-9.97,13.04-13.36,7.23-4.63,13.18,2.41,19.12,5.76,5.75,3.81,10.62,9.31,17.38,11.38,10.29,2.73,11.85-1.44,22.6,5.77.76.47,1.78,1.17,2.61,1.53,2.28,0,4.67,0,6.95,0,4.91,0,9.87,0,14.78,0,4.24.07,3.46.23,6.95-2.21,2.36-1.56,5.01-2.95,7.82-3.44,5.51-.98,10.66,1.97,15.65,3.86.79.39,1.87,1,2.61,1.48,1.6.61,3.53.18,5.22.3"/><path class="b" d="M8.65,90.6c.44.2,1.31.63,1.74.86,1.08.2,2.39.1,3.48.12,1.99,0,4.1,0,6.08,0,6.65,0,13.34,0,19.99,0,2.36-2.08,3.99-5.15,6.08-7.5,1.88-2.28,4.27-4.31,6.08-6.65,4.19-4.75,8.59-12.08,15.65-12.16,3.94.16,7.22,2.76,10.43,4.79,6.14,3.21,10.63,8.77,16.51,12.37,5.36,3.45,10.46,3.37,16.51,3.84,2.78.35,5.41,1.67,7.82,3.03,1.41.7,2.8,1.93,4.35,2.29,1.09,0,2.39,0,3.48,0,3.75,0,7.55,0,11.3,0,3.45,0,6.98,0,10.43,0,1.24-.3,2.37-1.39,3.48-2,2.12-1.31,4.49-2.48,6.95-2.95,6.51-1.27,12.42,2.75,18.25,4.96,1.99,0,4.1,0,6.08,0"/><path class="b" d="M8.65,86.86h32.16c2.38-2.22,4.46-4.95,6.95-7.05,3.26-2.45,5.91-5.71,8.69-8.67,5.39-5.85,11.03-10.15,19.12-6.41,2.65,1.2,5.49,2.3,7.82,4.08,6.5,4.98,12.39,11.74,20.86,13.15,3.72.72,7.68.38,11.3,1.66,1.74.57,3.56,1.35,5.22,2.13.76.35,1.78.91,2.61,1.11.43,0,1.31,0,1.74,0,6.07,0,12.18,0,18.25,0,2.58,0,5.25,0,7.82,0,1.71-.53,3.46-1.41,5.22-1.8,4.95-1.39,10.13-.08,14.78,1.79,4.04.03,8.13,0,12.17.01"/><path class="b" d="M8.65,82.14c7.23,0,14.5,0,21.73,0,2.87,0,5.82,0,8.69,0,.79,0,1.83,0,2.61,0,1.23-.44,2.38-1.53,3.48-2.22,1.33-.94,2.91-1.79,4.35-2.55,1.83-1.09,3.6-2.55,5.22-3.93,5.11-4.35,10.37-9.68,17.38-10.37,3.22-.26,6.6.39,9.56,1.66,2.82,1.38,5.35,3.45,7.82,5.36,5.27,4.26,11.31,8.12,18.25,8.58,3.17.27,6.45.35,9.56,1.1,2.63.58,5.29,1.45,7.82,2.38,6.36,0,12.76,0,19.12,0,13.03,0,26.08,0,39.11,0"/><path class="b" d="M8.65,77.42c11.97-.11,24.64.21,36.51-.11,1.96-.67,4.16-.9,6.08-1.67,5.05-2.03,9.34-5.56,13.91-8.43,6.08-3.98,13.15-7.03,19.99-2.92,6.44,3.59,12.48,8.52,19.99,9.62,4,.67,8.13.42,12.17.69,2.92.18,5.9.72,8.69,1.59,1.1.34,2.4.81,3.48,1.23,1.39,0,2.95,0,4.35,0,16.51,0,33.03,0,49.54,0"/><path class="b" d="M8.65,72.7c11.29,0,22.61,0,33.9,0,4.62,0,9.29,0,13.91,0,4.43-1.55,8.29-4.44,12.17-7,7.04-4.75,10.97-6.68,19.12-2.83,8.15,3.85,14.18,6.63,23.47,6.35,3.16-.01,6.4-.43,9.56-.16,2.99.22,5.98,1.09,8.69,2.34.78.36,1.85.89,2.61,1.3,1.39,0,2.95,0,4.35,0,15.64,0,31.3,0,46.94,0"/><path class="b" d="M8.65,67.98c12.45,0,24.92,0,37.38,0,5.2,0,10.45,0,15.65,0,4.02-2,7.54-4.97,11.3-7.39,2.09-1.32,4.44-2.64,6.95-2.84,4.85-.21,9.39,2.06,13.91,3.52,5.28,1.9,10.91,2.77,16.51,2.61,4.92-.06,10.03-.96,14.78.81,1.45.5,3.01,1.24,4.35,1.99.75.42,1.73,1.16,2.61,1.3,5.49,0,11.02,0,16.52,0,11.58,0,23.19,0,34.77,0"/><path class="b" d="M8.65,63.26c12.45,0,24.92,0,37.38,0,5.49-.04,11.03.09,16.51-.05,3.97-2.08,7.49-4.99,11.3-7.33,2.33-1.44,5.03-2.61,7.82-2.39,5.69.37,10.97,2.96,16.51,4.09,3.97.9,8.11,1.16,12.17,1.1,4.36-.07,8.92-.32,13.04,1.4,1.46.58,3.02,1.41,4.35,2.26.36.31,1.28.79,1.74.92.42,0,1.32,0,1.74,0,17.38,0,34.77,0,52.15,0"/><path class="b" d="M8.65,58.54c13.61,0,27.24,0,40.85,0,3.45,0,6.98,0,10.43,0,1.09,0,2.38,0,3.48,0,1.18.07,2.55.02,3.48-.81,3.43-2.21,6.67-4.93,10.43-6.58,4.72-1.91,9.98-.51,14.78.38,4.57.96,9.24,1.75,13.91,1.93,5.22.29,10.73-.38,15.65,1.79,1.47.62,3.03,1.52,4.35,2.43.87.91,2.31.93,3.48.86,17.96,0,35.93,0,53.89,0"/><path class="b" d="M8.65,53.82c14.77,0,29.56,0,44.33,0,4.04,0,8.13,0,12.17,0,5.64.08,4.14.25,8.69-2.81,2.1-1.39,4.44-2.74,6.95-3.16,4.58-.85,9.32-.33,13.91.18,4.61.54,9.27,1.05,13.91,1.26,3.77.18,7.7.1,11.3,1.39,1.47.51,3.03,1.29,4.35,2.1.4.29,1.3.81,1.74,1.04.42,0,1.32,0,1.74,0,18.54,0,37.09,0,55.63,0"/><path class="b" d="M8.65,47.54c.78.5,1.76,1.2,2.61,1.56,1.1,0,2.38,0,3.48,0,2.58,0,5.24,0,7.82,0,7.81,0,15.66,0,23.47,0,9.26,0,18.55,0,27.81,0,1.69-.96,3.4-2.2,5.22-2.92,1.64-.63,3.49-1.05,5.22-1.33,8.4-1.28,16.84.66,25.21,1.29,3.17.26,6.45.2,9.56.92,1.12.26,2.42.67,3.48,1.12,1.04.53,2.27,1.09,3.48.92,19.12,0,38.25,0,57.37,0"/><path class="b" d="M8.65,41.81c1.66.91,3.43,1.95,5.22,2.58,1.99,0,4.09,0,6.08,0,4.62,0,9.29,0,13.91,0,6.94,0,13.92,0,20.86,0,7.23,0,14.5,0,21.73,0,1.21.17,2.37-.82,3.48-1.18,1.36-.52,2.92-.98,4.35-1.29,6.61-1.46,13.42-.31,19.99.83,2.27.38,4.65.75,6.95.93,2.28.17,4.67.05,6.95.18,2,.08,4.07.66,6.08.53,4.91,0,9.87,0,14.78,0,14.77,0,29.56,0,44.33,0"/><path class="b" d="M8.65,38.52c.78.39,1.76.94,2.61,1.15,1.1,0,2.38,0,3.48,0,2.87,0,5.82,0,8.69,0,8.68,0,17.39,0,26.08,0,9.26,0,18.55,0,27.81,0,.82.04,1.89-.02,2.61-.46,1.07-.43,2.36-.86,3.48-1.14,2.81-.71,5.8-.93,8.69-.76,4.69.26,9.31,1.46,13.91,2.34,7.52.05,15.08,0,22.6.02,18.25,0,36.51,0,54.76,0"/><path class="b" d="M8.65,34.95c21.44,0,42.88,0,64.32,0,1.39,0,2.95,0,4.35,0,1.41-.53,2.89-1.32,4.35-1.73,3.06-.99,6.35-1.49,9.56-1.44,5.62.06,11.08,1.76,16.51,3,2.25.38,4.68.08,6.95.17,22.89,0,45.78,0,68.67,0"/><path class="b" d="M8.65,30.23c6.94,0,13.92,0,20.86,0,2.32.18,4.64-.58,6.95-.55,1.73-.08,3.51.46,5.22.55,2.87,0,5.82,0,8.69,0,8.1,0,16.23,0,24.34,0,1.21-.2,2.36-1.18,3.48-1.65,1.91-.89,4.07-1.49,6.08-2.08,5.35-1.56,11.12-1.7,16.51-.28,4.4,1.02,8.59,3.01,13.04,3.84,2.55.34,5.25.08,7.82.16,4.62,0,9.29,0,13.91,0,15.93,0,31.88,0,47.81,0"/><path class="b" d="M8.65,25.51c5.49,0,11.02,0,16.51,0,2.35-.78,4.52-2.34,6.95-2.95,2.79-.87,5.88-.92,8.69-.09,1.45.42,3,1.08,4.35,1.76,1.06.5,2.24,1.45,3.48,1.27,7.23,0,14.5,0,21.73,0,.78,0,1.84.04,2.61-.14,1.65-1.03,3.44-2.14,5.21-2.94,6.69-2.2,13.68-5.28,20.86-3.86,6.51,1.07,11.89,5.48,18.25,6.93,2.28,0,4.67,0,6.95,0,19.7,0,39.41,0,59.11,0"/><path class="b" d="M8.65,20.79c2.87,0,5.82,0,8.69,0,1.4-.02,2.95.05,4.35-.05.79-.48,1.83-1.17,2.61-1.67,9.66-6.67,15.07-5.86,24.34.78,1.43,1.32,3.45.88,5.22.94,2.87,0,5.82,0,8.69,0,1.69,0,3.52,0,5.22,0,1.1-.05,2.45.19,3.48-.31,1.68-1.03,3.47-2.19,5.22-3.11,2.42-1.34,5.3-1.69,7.82-2.77,4.14-1.62,8.5-3.38,13.04-3,4.8.35,9.1,2.91,13.04,5.49,1.37.9,2.93,1.9,4.35,2.73.42.25,1.31.74,1.74.98.42,0,1.31,0,1.74,0,21.73,0,43.46,0,65.19,0"/></svg>