<?xml version="1.0" encoding="UTF-8"?><svg id="a" xmlns="http://www.w3.org/2000/svg" width="1920" height="2400" viewBox="0 0 192 240"><defs><style>.b{fill:none;stroke:#fff;stroke-miterlimit:10;stroke-width:.4px;}.c{stroke-width:0px;}</style></defs><rect class="c" width="192" height="240"/><path class="b" d="M8.25,220.94c2.06.09,4.2.6,6.11,1.36,2.29.96,4.54,2.28,6.99,2.81,4.3,1.07,8.83.47,13.1-.5,3.99-.86,8.11-2.05,12.22-1.51,4.27.78,8.3,2.7,12.22,4.49,1.1.52,2.4,1.15,3.49,1.69.77.36,1.74.98,2.62,1.02,6.1,0,12.24,0,18.34,0,11.34,0,22.71,0,34.05,0,1.09-.01,2.4.04,3.49-.05,2.21-.74,4.65-1.12,6.99-1.12,3.21,0,6.44.63,9.6,1.1,1.69.15,3.54.04,5.24.07,1.4.01,2.98.04,4.37-.24,7.03-1.15,14.05-2.64,20.96-4.39,2.65-.65,5.28-1.68,7.86-2.55,2.53-.67,5.29-.47,7.86-.15"/><path class="b" d="M8.25,217.94c2.35-.12,4.79.35,6.99,1.19,2.49,1.11,5.12,2.17,7.86,2.41,4.42.48,8.84-.61,13.1-1.71,3.95-.99,8.19-2.05,12.22-.97,4.15,1.1,8.23,2.67,12.22,4.24,1.41.55,2.97,1.18,4.37,1.75.78.3,1.76.85,2.62.71,4.35,0,8.75,0,13.1,0,12.8,0,25.62,0,38.42,0,1.11.08,2.41-.23,3.49-.43,1.69-.26,3.54-.29,5.24-.16,1.41.1,2.97.38,4.37.59,3.18,0,6.43,0,9.6,0,2.59,0,5.27,0,7.86,0,2.33-.54,4.71-1.35,6.99-2.1,4.68-1.6,9.36-3.36,13.97-5.16,4.95-2.08,7.51-3.16,13.1-2.23"/><path class="b" d="M8.25,216.01c2.3-.34,4.75-.15,6.99.47,2.52.84,5.18,1.6,7.86,1.55,4.5.02,8.86-1.44,13.1-2.77,4.19-1.32,8.75-2.56,13.1-1.26,5.84,1.45,11.67,3.11,17.46,4.72,1.41.4,2.97.87,4.37,1.31,1.08.33,2.34.89,3.49.78,15.42,0,30.86,0,46.28,0,1.7.07,3.53-.23,5.24-.18,3.17.23,6.42.18,9.6.18,3.76,0,7.59,0,11.35,0,1.99-.09,4.16.22,6.11-.19,5.49-1.96,10.6-4.91,15.72-7.65,4.75-2.6,9.22-4.92,14.84-4.3"/><path class="b" d="M8.25,213.7c2.27-.48,4.7-.5,6.99-.16,2.56.52,5.25.86,7.86.53,4.85-.52,9.41-2.49,13.97-4.09,4.17-1.54,8.72-2.51,13.1-1.28,7.24,1.56,14.61,2.69,21.83,4.37,2.03.5,4.16,1.14,6.11,1.92.79.31,1.82.81,2.62,1.08.44,0,1.31,0,1.75,0,8.72,0,17.47,0,26.19,0,4.05,0,8.17,0,12.22,0,1.69-.27,3.52-.57,5.24-.61,2.9-.17,5.85.38,8.73.61,3.76,0,7.59,0,11.35,0,2.29,0,4.69,0,6.99,0,3.44-.8,6.6-2.74,9.6-4.54,6.55-4.09,12.91-9.61,20.96-10.11"/><path class="b" d="M8.25,210.2c3.42-.85,7-.5,10.48-.47,2.64-.08,5.33-.62,7.86-1.38,6.94-1.94,13.53-6.29,20.96-5.85,3.49.45,7.01,1.15,10.48,1.71,5.82,1.02,11.75,1.69,17.46,3.24,3.61.9,6.92,2.85,10.48,3.87,9.89-.01,19.8.02,29.69-.01,3.68-1.17,7.49-2.2,11.35-2.52,3.77-.34,7.64.04,11.35.72,3.46.61,6.95,1.53,10.48,1.67,8.46.52,15.37-5.13,21.83-9.81,4.02-2.68,8.4-5.22,13.1-6.48"/><path class="b" d="M8.25,205.36c5.18-1.04,10.62-.5,15.72-2.1,6.82-1.78,13.1-5.44,20.08-6.59,2.59-.43,5.29-.04,7.86.36,3.19.5,6.43,1.12,9.6,1.71,4.65.88,9.39,1.68,13.97,2.89,2.64.66,5.23,1.8,7.86,2.52,9.4,2.63,19.34,1.61,28.81-.1,5.52-1.13,10.93-3.1,16.59-3.42,3.5-.24,7.08.15,10.48,1,2.93.7,5.82,1.85,8.73,2.62,8.63,2.56,15.09-1.43,21.83-6.39,2.17-1.62,4.64-3.01,6.99-4.36,2.22-1.35,4.54-2.84,6.99-3.77"/><path class="b" d="M8.25,199.8c4.33-.81,8.82-.85,13.1-1.97,5.39-1.29,10.52-3.54,15.72-5.42,3.07-1.09,6.32-2.08,9.6-2.2,5.91.07,11.72,1.65,17.46,2.88,4.07.94,8.21,1.88,12.22,3.02,3.67,1.17,7.43,2.47,11.35,2.25,7.43-.21,14.52-2.89,21.83-3.98,7.26-.8,14.47-3.14,21.83-2.2,5.84.62,11.27,3.11,16.59,5.45,7.37,3.29,13.36,2.26,20.08-1.94,2.82-1.78,5.82-3.46,8.73-5.08,2.26-1.39,4.57-2.98,6.99-4.09"/><path class="b" d="M8.25,195.96c3.79-.58,7.67-1.07,11.35-2.19,5.68-1.58,11.13-3.97,16.59-6.16,3.9-1.52,7.99-3.02,12.22-3.12,11.36-.06,21.71,5.43,32.31,8.78,7.67,1.99,14.93-2.54,21.83-5.27,2.23-.91,4.61-1.75,6.99-2.2,2.59-.37,5.29-.64,7.86-1.16,7.1-1.48,14.23-1.5,20.96,1.53,6.25,2.48,11.62,7.19,18.34,8.47,5.14,1.02,10.24-.93,14.84-3.04,1.68-.78,3.6-1.41,5.24-2.29,2.35-1.27,4.66-2.85,6.99-4.16"/><path class="b" d="M8.25,192.37c2,0,4.11,0,6.11,0,1.14-.23,2.41-.72,3.49-1.11,5.31-1.92,10.56-4.16,15.72-6.46,11.17-5.1,19.57-7.93,31.43-2.7,5.04,2.11,9.72,5.1,14.84,7.01,9.6,3.23,17.8-4.97,26.19-8.26,2.73-1.27,5.82-1.32,8.73-1.86,8.1-1.91,14.76-3.66,22.7.26,7.22,3.39,13.03,9.66,20.96,11.55,4.31,1.08,8.85.37,13.1-.66,1.7-.43,3.6-.68,5.24-1.32,2.44-.97,4.77-2.46,6.99-3.86"/><path class="b" d="M8.25,187.63c3.76,0,7.59,0,11.35,0,5.62-2.11,11.07-4.82,16.59-7.19,9.16-3.99,18.91-8.91,28.81-4.32,3.98,1.68,7.6,4.2,11.35,6.3,8.09,4.99,15.08,2.18,22.7-2.03,3.86-2.02,7.8-4.44,12.22-4.87,2.98-.2,5.89-1.26,8.73-2.09,5.44-1.8,11.42-2.08,16.59.7,3.49,1.72,6.51,4.34,9.6,6.66,3.71,2.77,7.75,5.34,12.22,6.65,1.66.4,3.54.11,5.24.19,2.59,0,5.27,0,7.86,0,2.29,0,4.69,0,6.99,0,1.83-.52,3.62-1.57,5.24-2.55"/><path class="b" d="M8.25,182.88c4.93-.06,9.92.13,14.84-.08,4.33-1.81,8.76-3.5,13.1-5.3,4.08-1.68,8.18-3.49,12.22-5.26,4.35-1.97,9.12-3.83,13.97-2.98,4.83.78,9,3.64,13.1,6.13,6.2,4.11,13.04,5.04,20.08,2.58,4.13-1.32,8.06-3.37,12.22-4.57,2.54-.75,5.34-.62,7.86-1.52,5.57-1.87,11.61-4.36,17.46-2.18,6.48,2.17,10.79,7.93,16.59,11.27,1.34.69,2.81,1.83,4.37,1.91,2.88,0,5.85,0,8.73,0,6.97,0,13.98,0,20.96,0"/><path class="b" d="M8.25,178.14c4.93,0,9.91,0,14.84,0,6.74-1.84,13.6-3.57,20.08-6.22,7.42-2.74,14.27-9.37,22.7-7.5,4.45.94,8.26,3.65,12.22,5.73,3,1.52,6.28,2.68,9.6,3.22,6.22,1.08,12.39-.84,18.34-2.46,2.53-.77,5.28-.84,7.86-1.34,3.5-.84,6.9-2.36,10.48-2.88,7.07-1.29,13.39,3.11,18.34,7.66,1.58,1.37,3.32,2.93,5.24,3.79.77,0,1.85,0,2.62,0,11.05,0,22.13,0,33.18,0"/><path class="b" d="M8.25,173.4c2.88,0,5.85,0,8.73,0,1.95-.65,4.08-1.09,6.11-1.38,4.92-.68,9.95-.72,14.84-1.6,3.61-.63,7.21-1.76,10.48-3.43,5.92-3.19,12.09-7.88,19.21-6.31,4.05.78,7.66,3.01,11.35,4.72,6.24,2.89,13.21,4.56,20.08,3.36,3.21-.46,6.41-1.32,9.6-1.87,3.28-.39,6.4-.8,9.6-1.72,11.03-3.11,17.16,1.52,25.32,8.23h40.16"/><path class="b" d="M8.25,166.65c4.93-.43,9.86-1.69,14.84-1.24,8.11.58,16.63,2.47,24.45-.68,4.96-2,9.49-5.31,14.84-6.22,5.49-1.06,10.82,1.22,15.72,3.43,5.61,2.28,11.34,4.82,17.46,5.14,5.88.38,11.65-1.32,17.46-1.93,4.02-.66,8.12-1.67,12.22-1.34,3.34.23,6.64,1.34,9.6,2.86,1.11.57,2.42,1.31,3.49,1.95,1.09.05,2.4.03,3.49.03,13.96,0,27.95,0,41.91,0"/><path class="b" d="M8.25,158.68c4.67.09,9.41.36,13.97,1.43,6.88,1.48,13.83,3.76,20.96,3.18,4.59-.29,8.81-2.4,13.1-3.87,5.01-1.84,10.57-2.26,15.72-.71,4.74,1.42,9.4,3.31,13.97,5.2,10.47.03,20.96,0,31.43.01,22.12,0,44.24,0,66.36,0"/><path class="b" d="M8.25,152.83c6.85,1.5,13.34,4.32,20.08,6.19,1.67.33,3.54.09,5.24.16,3.18,0,6.43,0,9.6,0,2.88,0,5.85,0,8.73,0,1.7-.07,3.57.18,5.24-.17,3.13-.62,6.41-.94,9.6-.71,2.33.05,4.67.89,6.99.88,6.39,0,12.82,0,19.21,0,30.27,0,60.54,0,90.81,0"/><path class="b" d="M8.25,149.06c2.33,1.11,4.71,2.36,6.99,3.56,1.09.57,2.37,1.25,3.49,1.77.79.06,1.83.05,2.62.05,9.89,0,19.8,0,29.69,0,13.96,0,27.95,0,41.91,0,30.27,0,60.54,0,90.81,0"/><path class="b" d="M8.25,146.18c1.71,1.13,3.43,2.55,5.24,3.52,3.76,0,7.59,0,11.35,0,8.43,0,16.89,0,25.32,0,14.55,0,29.11,0,43.66,0,12.51,0,25.04,0,37.55,0,5.81,0,11.66,0,17.46,0,.82.04,1.85-.41,2.62-.63,1.36-.4,2.94-.71,4.37-.8,1.71-.1,3.58.1,5.24.55,1.1.24,2.34,1,3.49.88,6.39,0,12.82,0,19.21,0"/><path class="b" d="M8.25,143.97c.67.69,1.66,1.12,2.62.99,1.1,0,2.39,0,3.49,0,3.18,0,6.43,0,9.6,0,9.01,0,18.05,0,27.07,0,26.48,0,52.97,0,79.46,0,5.52,0,11.07,0,16.59,0,1.97-.74,4.05-1.6,6.11-2.04,2.55-.58,5.32-.59,7.86.04,1.12.28,2.43.74,3.49,1.2.74.33,1.76.96,2.62.8,5.52,0,11.07,0,16.59,0"/><path class="b" d="M8.25,140.22c45.11,0,90.23,0,135.34,0,1.7-.01,3.54.03,5.24-.03,2.8-.84,5.8-1.4,8.73-1.24,1.41.07,2.99.32,4.37.68.76.2,1.81.61,2.62.59,6.39,0,12.82,0,19.21,0"/><path class="b" d="M8.25,135.48h175.5"/><path class="b" d="M8.25,130.74h175.5"/><path class="b" d="M8.25,125.99c14.55,0,29.11,0,43.66,0,.79,0,1.84,0,2.62,0,1.39-.38,2.94-.83,4.37-1.05,2.57-.43,5.3-.39,7.86.11,1.11.22,2.41.57,3.49.91,1.4.05,2.96.02,4.37.03,3.47,0,7.01,0,10.48,0,9.89,0,19.8,0,29.69,0,7.27,0,14.56,0,21.83,0,1.4,0,2.97,0,4.37,0,1.36-.39,2.95-.61,4.37-.6,2.02-.05,4.11.45,6.11.6,2.59,0,5.27,0,7.86,0,8.14,0,16.31,0,24.45,0"/><path class="b" d="M8.25,121.25c13.09,0,26.2,0,39.29,0,4-1.28,7.9-3.12,12.22-3.06,3.95-.07,7.82,1.24,11.35,2.91,2.86.34,5.85.05,8.73.14,18.62-.04,37.26.08,55.88-.05,2.35-1.6,4.96-3.24,7.86-3.51,6.25-.42,12.26,2.1,18.34,3.17,2.83.68,5.85.29,8.73.38,4.35,0,8.75,0,13.1,0"/><path class="b" d="M8.25,116.51c4.35,0,8.75,0,13.1,0,1.43-.02,2.94-.66,4.37-.83,2.27-.39,4.68-.53,6.99-.44,4.06.11,8.15.95,12.22.68,1.76-.09,3.55-.7,5.24-1.15,1.96-.49,4.09-.79,6.11-.77,2.34.01,4.76.45,6.99,1.15,1.44.34,2.88,1.35,4.37,1.37,8.72,0,17.47,0,26.19,0,12.51,0,25.04,0,37.55,0,.97-.17,1.87-1.15,2.62-1.72,1.34-1.08,2.89-2.24,4.37-3.12,2.56-1.7,5.72-2.11,8.73-1.86,3.49.22,7.01.85,10.48,1.26,5.5.76,11.16.61,16.59,1.81,2.58.55,4.82,2.22,6.99,3.63h2.62"/><path class="b" d="M8.25,111.77c2.59-.07,5.29.16,7.86-.12,5.73-2.56,12-4.72,18.34-3.43,3.51.57,6.95,1.84,10.48,2.33,2.29.36,4.68-.24,6.99-.04,2.04.13,4.16.58,6.11,1.18,2.58.19,5.27.03,7.86.08,20.95,0,41.91,0,62.87,0,2.72-1.73,5.08-4.2,7.86-5.89,2.06-1.33,4.48-2.48,6.99-2.48,3.76-.1,7.59.19,11.35.08,6.67.06,13.53-2.02,20.08-.14,3.23,1.11,6.04,3.31,8.73,5.35"/><path class="b" d="M8.25,107.03c1.4-.04,2.98.12,4.37-.14,1.42-.56,2.97-1.24,4.37-1.84,6.41-3.05,12.15-5.44,19.21-2.7,3.55,1.25,6.85,3.33,10.48,4.36,1.95.54,4.11.25,6.11.32,3.18,0,6.43,0,9.6,0,21.53,0,43.08,0,64.61,0,4.58-3.16,9.09-7.38,14.84-8.01,2.59-.05,5.27.22,7.86.07,3.22-.13,6.48-.69,9.6-1.47,11.43-3.1,14.05-3.87,24.45,2.72"/><path class="b" d="M8.25,102.29c2.14.23,4.18-.71,6.11-1.49,8.13-3.34,13.81-8.3,22.7-3.27,1.45.79,3,1.81,4.37,2.74,1.08.66,2.22,1.77,3.49,2.02,5.52,0,11.07,0,16.59,0,21.53,0,43.08.01,64.61,0,4.79-2.86,9.9-6.29,15.72-6.07,2.29.23,4.68.59,6.99.47,3.26-.11,6.54-.9,9.6-1.99,12.92-4.87,12.16-5.4,25.32-.53"/><path class="b" d="M8.25,97.55c1.48.12,3-.47,4.37-.94,2.04-.74,4.17-1.61,6.11-2.59,5.45-2.94,10.71-5.23,16.59-1.88,2.52,1.37,4.82,3.32,6.99,5.18,1.07.36,2.39.18,3.49.22,21.24,0,42.5,0,63.74,0,3.76,0,7.59,0,11.35,0,1.95-.12,4.26.3,6.11-.26,4.33-2.06,9.09-3.9,13.97-3.38,2.01.24,4.08.84,6.11.94,3.54.27,7.16-.43,10.48-1.67,5.43-1.79,10.64-5.77,16.59-4.97,3.13.74,6.41,1.15,9.6,1.47"/><path class="b" d="M8.25,92.7c13.4-3.06,18.78-13.08,31.43-.99.64.79,1.6,1.24,2.62,1.1,1.1,0,2.39,0,3.49,0,3.18,0,6.43,0,9.6,0,9.6,0,19.22,0,28.81,0,13.38,0,26.78,0,40.16,0,1.09-.03,2.42.11,3.49-.17,1.38-.5,2.94-1.01,4.37-1.36,2.82-.71,5.85-.96,8.73-.48,2.01.35,4.08,1.05,6.11,1.3,4.11.62,8.37-.09,12.22-1.58,4.87-1.7,9.51-4.98,14.84-4.83,3.16.39,6.43.23,9.6.01"/><path class="b" d="M8.25,86.75c3.23-1.06,6.42-2.45,9.6-3.64,3.81-1.59,8.19-2.94,12.22-1.32,3.45,1.21,5.98,4.05,8.73,6.28,11.93,0,23.87,0,35.8,0,4.64,0,9.33,0,13.97,0,1.1,0,2.4,0,3.49,0,1.38-.41,2.93-.86,4.37-1.06,2.28-.35,4.71-.28,6.99.13,1.42.2,2.93.82,4.37.93,3.76,0,7.59,0,11.35,0,2.88,0,5.85,0,8.73,0,2.27-.46,4.67-.81,6.99-.83,2.33-.08,4.71.44,6.99.83,6.39,0,12.82,0,19.21,0,1.09-.02,2.41.06,3.49-.09,2.27-1.04,4.61-2.24,6.99-3.03,1.64-.59,3.53-.65,5.24-.91,2.32-.38,4.7-1,6.99-1.53"/><path class="b" d="M8.25,81.02c9.8-3.82,17.29-8.49,26.19.09,1.65,1.51,1.91,2.48,4.37,2.22,2.3,0,4.69,0,6.99,0,11.64,0,23.29,0,34.93,0,3.47-.07,7.02.16,10.48-.11,2.71-1.4,5.69-2.53,8.73-2.84,2.92-.31,5.95.18,8.73,1.06,2,.63,4.03,1.58,6.11,1.88,9.89,0,19.8,0,29.69,0,9.01,0,18.05,0,27.07,0,1.16.14,2.41-.56,3.49-.87,2.95-.99,5.82-2.42,8.73-3.52"/><path class="b" d="M8.25,76.23c10.9-4.4,17.87-7.31,27.07,2.27,12.5.24,25.04,0,37.55.09,4.64,0,9.33,0,13.97,0,6.74.09,3.99.22,9.6-2.6,6.82-3.16,10.92-1.78,17.46.78,3.09.92,6.4,1.21,9.6,1.46,3.46.38,7,.4,10.48.36,6.39,0,12.82,0,19.21,0,7.27,0,14.56,0,21.83,0,1.25.2,2.49-.68,3.49-1.32,1.66-1.02,3.48-2.1,5.24-2.95"/><path class="b" d="M8.25,72.66c6.42-1.87,13.38-5.37,20.08-2.83,2.21.83,4.3,2.23,6.11,3.73,1.05.46,2.38.23,3.49.28,6.97,0,13.98,0,20.96,0,9.6,0,19.22,0,28.81,0,1.7,0,3.54,0,5.24,0,.9-.24,1.85-1.06,2.62-1.55,4.02-2.77,9.22-4.38,13.97-2.62,1.72.62,3.47,1.57,5.24,2.07,2.24.7,4.66,1.13,6.99,1.47,3.75.73,7.55.66,11.35.63,6.1,0,12.24,0,18.34,0,7.85,0,15.73,0,23.57,0,1.33.24,2.52-.87,3.49-1.62,1.63-1.22,3.45-2.49,5.24-3.46"/><path class="b" d="M8.25,69.1c1.41,0,2.96,0,4.37,0,4.61-1.08,9.15-3.19,13.97-2.99,3.14.08,6.06,1.45,8.73,2.99,5.81,0,11.66,0,17.46,0,9.31,0,18.64,0,27.94,0,4.64-.06,9.34.11,13.97-.07,1.6-1.12,3.42-2.22,5.24-2.95,4.64-1.95,8.78-.98,13.1,1.23,2.48.93,5.2,1.68,7.86,1.79,18.33,0,36.68,0,55.01,0,2.5-2.04,5.04-4.26,7.86-5.86"/><path class="b" d="M8.25,64.36c4.93,0,9.91,0,14.84,0,1.98-.45,4.07-1,6.11-1.01,1.42-.03,2.99.16,4.37.51,1.09.39,2.34.58,3.49.49,8.72,0,17.47,0,26.19,0,7.27,0,14.56,0,21.83,0,3.47,0,7.01.02,10.48-.01,1.34-.71,2.9-1.38,4.37-1.78,2.83-.8,5.95-.69,8.73.27,1.13.38,2.42.99,3.49,1.52.43,0,1.32,0,1.75,0,20.66,0,41.33,0,61.99,0,2.54-1.99,5.04-4.25,7.86-5.85"/><path class="b" d="M8.25,59.62c19.79,0,39.59,0,59.37,0,9.01,0,18.05,0,27.07,0,.78,0,1.85.03,2.62-.09,1.65-.51,3.51-.81,5.24-.76,2.35,0,4.63,1.08,6.99.85,6.97,0,13.98,0,20.96,0,15.13,0,30.27,0,45.4,0,2.59-1.8,5.02-4.03,7.86-5.46"/><path class="b" d="M8.25,54.88c56.17-.06,112.35.11,168.52-.06,2.13-1.67,4.5-3.27,6.99-4.37"/><path class="b" d="M8.25,50.14c37.54,0,75.09,0,112.64,0,12.8,0,25.62,0,38.42,0,5.81,0,11.66,0,17.46,0,1.26.2,2.45-.84,3.49-1.39,1.04-.57,2.37-1.15,3.49-1.53"/><path class="b" d="M8.25,45.4c37.55,0,75.09,0,112.64,0,13.09,0,26.2,0,39.29,0,4.64,0,9.33,0,13.97,0,1.7,0,3.54,0,5.24,0,1.41-.43,2.91-1.2,4.37-1.51"/><path class="b" d="M8.25,39.68c1.99-.33,4.13-.37,6.11,0,1.45.17,2.9,1.08,4.37.99,8.43,0,16.89,0,25.32,0,1.4,0,2.96,0,4.37,0,.8-.18,1.84-.53,2.62-.76,3.37-1.02,6.94-1.77,10.48-1.68,4.17.06,8.24,1.26,12.22,2.37,2.88.18,5.85.03,8.73.07,1.7-.03,3.54.08,5.24-.07,2.26-.45,4.68-.74,6.99-.49,1.11.08,2.38.51,3.49.57,2.29,0,4.69,0,6.99,0,4.93,0,9.91,0,14.84,0,13.38,0,26.78,0,40.16,0,4.64,0,9.33,0,13.97,0,1.99-.05,4.13.13,6.11-.11,1.04-.48,2.37-.93,3.49-1.18"/><path class="b" d="M8.25,33.21c2.89-.57,6-.28,8.73.84,1.45.5,2.86,1.57,4.37,1.87,4.64,0,9.33,0,13.97,0,2.58-.09,5.3.2,7.86-.15,4.56-2.62,9.65-4.53,14.84-5.42,4.08-.64,8.29-.05,12.22,1.13,3.17.9,6.34,2.16,9.6,2.67,2.87.4,5.85.2,8.73.43,1.42.1,2.99.33,4.37.68,1.09.28,2.35.79,3.49.68,7.85,0,15.73,0,23.57,0,9.31,0,18.64,0,27.94,0,8.43,0,16.89,0,25.32,0,1.08,0,2.41,0,3.49,0,2.23-1.23,4.45-2.77,6.99-3.34"/><path class="b" d="M8.25,26.84c3.3-.43,6.66.49,9.6,1.93,1.11.52,2.39,1.17,3.49,1.7.77.38,1.75.83,2.62.7,3.18,0,6.43,0,9.6,0,1.7-.04,3.55.11,5.24-.11.46-.21,1.3-.66,1.75-.89,3.11-1.72,6.21-3.65,9.6-4.75,7.04-2.84,13.68-3.56,20.96-1.08,2.31.72,4.68,1.63,6.99,2.37,2.27.71,4.7,1.21,6.99,1.85,1.42.39,2.99.89,4.37,1.41,1.11.36,2.31,1.14,3.49,1.21,9.01,0,18.05,0,27.07,0,11.64,0,23.29,0,34.93,0,4.05,0,8.17,0,12.22,0,2.29-.11,4.74.24,6.99-.19,2.79-2.63,5.96-5.12,9.6-6.43"/><path class="b" d="M8.25,20.51c6.06.14,10.85,4.7,16.59,5.92,1.7,0,3.54,0,5.24,0,1.7-.02,3.54.06,5.24-.05,4.3-1.43,8.05-4.2,12.22-5.91,5.86-2.12,12.01-4.35,18.34-3.58,3.91.41,7.7,1.78,11.35,3.2,4.59,1.57,8.99,3.76,13.1,6.34h81.2c3.79-3.54,7.58-7.38,12.22-9.81"/><path class="b" d="M8.25,14.24c5.85,1.62,10.66,5.89,16.59,7.32,1.39.26,2.96.09,4.37.14,1.4-.02,2.97.06,4.37-.07,2.08-.5,4.18-1.36,6.11-2.27,3.65-1.84,7.38-3.64,11.35-4.68,11.5-4.1,18.63-3.98,29.69,1.36,2.8,1.43,5.39,3.4,7.86,5.33,1.3.61,2.97.23,4.37.33,9.31,0,18.64,0,27.94,0,9.89,0,19.8,0,29.69,0,6.1,0,12.24,0,18.34,0,.97.21,2.01-.62,2.62-1.29.75-.71,1.84-1.68,2.62-2.37,3.2-2.73,6.14-5.92,9.6-8.33"/></svg>