<?xml version="1.0" encoding="UTF-8"?><svg id="a" xmlns="http://www.w3.org/2000/svg" width="1920" height="2400" viewBox="0 0 192 240"><defs><style>.b{fill:none;stroke:#fff;stroke-miterlimit:10;stroke-width:.4px;}.c{stroke-width:0px;}</style></defs><rect class="c" width="192" height="240"/><path class="b" d="M8.51,225.83c3.14.99,6.29,2.21,9.58,2.63,2.35.42,4.62,1.54,6.96,1.92,9.86,0,19.74,0,29.6,0,13.63,0,27.28,0,40.92,0,29.31,0,58.62,0,87.93,0"/><path class="b" d="M8.51,221.83c2.27.8,4.6,1.76,6.96,2.26,2.91.33,5.83,1.05,8.71,1.56,5.21,0,10.46,0,15.67,0,11.6-.04,23.22.02,34.82,0,36.27,0,72.55,0,108.82,0"/><path class="b" d="M8.51,217.98c2.26.63,4.62,1.35,6.96,1.64,2.29.17,4.68.18,6.96.36,6.96.62,13.94-.18,20.89-.27,2.64-.02,5.29.58,7.84,1.23,1.7,0,3.53,0,5.22,0,13.63,0,27.28,0,40.92,0,4.92,0,9.88,0,14.8,0,6.96-.76,13.96-1.39,20.89-2.39,3.15-.37,6.46-.6,9.58.16,1.51.37,3.06,1.17,4.35,2.01.73.29,1.84.23,2.61.23,11.31,0,22.64,0,33.95,0"/><path class="b" d="M8.51,213.66c2.57.36,5.24.76,7.84.66,5.23-.33,10.44-1.31,15.67-1.57,3.76-.21,7.62-.04,11.32.73,2.99.54,5.84,1.79,8.71,2.74,5.79,0,11.62,0,17.41,0,13.63,0,27.28,0,40.92,0,1.09,0,2.39,0,3.48,0,1.42-.21,2.96-.68,4.35-1.02,3.45-.9,6.95-1.92,10.45-2.59,5.25-1.09,11.1-1,15.67,2.12.75.48,1.68,1.39,2.61,1.49,1.99,0,4.1,0,6.09,0,10.15,0,20.32,0,30.47,0"/><path class="b" d="M8.51,208.6c3.77.06,7.64,0,11.32-.91,6.21-1.64,12.79-3.35,19.15-1.47,3,.79,5.91,2.1,8.71,3.42,1.1.51,2.4,1.14,3.48,1.69.78.19,1.82.15,2.61.15,14.21,0,28.44,0,42.66,0,6.37,0,12.78,0,19.15,0,3.18-.93,6.34-2.2,9.58-2.97,3.67-.91,7.65-1.2,11.32-.12,2.15.62,4.28,1.72,6.09,3.02,4.33.18,8.73.02,13.06.07,9.28,0,18.58,0,27.86,0"/><path class="b" d="M8.51,202.87c3.18-.1,6.45-.26,9.58-.88,2.91-.65,5.78-1.75,8.71-2.35,8.48-1.99,14.76,2.39,21.76,6.31,1.52,1.11,3.46.77,5.22.81,2.58,0,5.25,0,7.84,0,7.24,0,14.52,0,21.76,0,10.44,0,20.9,0,31.34,0,4.03-.83,8-2.48,12.19-2.45,2.33-.05,4.77.34,6.96,1.13.79.29,1.86.75,2.61,1.13.75.24,1.84.19,2.61.18,14.79,0,29.61,0,44.4,0"/><path class="b" d="M8.51,196.85c2.87.28,5.84.42,8.71.13,2.02-.23,4.11-.77,6.09-1.2,8.76-2.22,14.53.58,21.76,5.17.45.26,1.29.77,1.74,1.02,1.09.09,2.39.04,3.48.05,1.99,0,4.1,0,6.09,0,6.66,0,13.36,0,20.02,0,10.73,0,21.48,0,32.21,0,4.32-.74,8.62-2.2,13.06-2.19,2.63-.04,5.36.41,7.84,1.3.77.27,1.79.77,2.61.89,1.09,0,2.39,0,3.48,0,15.96,0,31.93,0,47.88,0"/><path class="b" d="M8.51,191.07c3.11.79,6.36,1.42,9.58,1.36,2.89-.09,5.82-.63,8.71-.69,2.94-.08,5.96.41,8.71,1.45,2.72,1.01,5.34,2.51,7.84,3.98,1.68.24,3.53.07,5.22.12,14.21,0,28.44,0,42.66,0,6.08,0,12.2,0,18.28,0,2.58-.34,5.19-1.25,7.84-1.14,1.4,0,2.98.15,4.35.43,1.1.17,2.35.75,3.48.71,5.79,0,11.62,0,17.41,0,13.63,0,27.28,0,40.92,0"/><path class="b" d="M8.51,185.95c3.37,1.16,6.88,2.26,10.45,2.61,5.23.28,10.65-.16,15.67,1.64,2.09.56,4.05,1.9,6.09,2.37,4.04,0,8.14,0,12.19,0,8.99,0,18,0,26.99,0,34.53,0,69.07,0,103.6,0"/><path class="b" d="M8.51,181.64c3.73,1.28,7.45,2.88,11.32,3.68,3.44.58,7.01.6,10.45,1.17,2.04.25,4.08,1.01,6.09,1.35,1.99,0,4.1,0,6.09,0,6.08,0,12.2,0,18.28,0,13.05,0,26.12,0,39.18,0,27.86,0,55.72,0,83.58,0"/><path class="b" d="M8.51,177.96c2.01.66,4.13,1.39,6.09,2.18,2.5,1.1,5.09,2.27,7.84,2.62,4,.68,8.15.25,12.19.36,6.37,0,12.78,0,19.15,0,13.63,0,27.28,0,40.92,0,29.6,0,59.2,0,88.8,0"/><path class="b" d="M8.51,174.39c2.34.65,4.76,1.42,6.96,2.45,1.36.59,2.79,1.73,4.35,1.56,10.73,0,21.48,0,32.21,0,13.92,0,27.86,0,41.79,0,29.89,0,59.78,0,89.67,0"/><path class="b" d="M8.51,170.49c3,.7,5.96,1.78,8.71,3.17,4.92,0,9.88,0,14.8,0,11.31,0,22.64,0,33.95,0,24.08,0,48.18,0,72.26,0,3.15-.11,6.46.25,9.58-.17,1.9-1.01,4-1.94,6.09-2.42,2.55-.6,5.32-.47,7.84.22,1.43.38,2.99.97,4.35,1.53.74.31,1.79.83,2.61.84,4.92,0,9.88,0,14.8,0"/><path class="b" d="M8.51,166.87c2.35.39,4.79,1,6.96,1.99,2.57.18,5.25.03,7.84.08,8.41,0,16.84,0,25.25,0,21.47,0,42.95,0,64.42,0,6.95,0,13.94,0,20.89,0,2.58,0,5.25,0,7.84,0,1.39-.1,3.05.28,4.35-.32,6.49-4.17,12.12-7.3,20.02-4.73,2.86.83,5.72,2.07,8.71,2.4,1.85.34,3.67,1.34,5.22,2.37,1.02.46,2.39.24,3.48.28"/><path class="b" d="M8.51,162.95c2.04.16,4.17.54,6.09,1.25,3.17.02,6.41,0,9.58,0,8.12,0,16.26,0,24.38,0,22.05,0,44.11,0,66.17,0,6.66,0,13.36,0,20.02,0,2.58,0,5.25,0,7.84,0,.41,0,1.32,0,1.74,0,1.22-.29,2.43-1.23,3.48-1.87,5.47-3.75,11.35-7.53,18.28-5.76,2.94.65,5.8,1.9,8.71,2.67,1.9.64,3.68,1.92,5.22,3.17.95.83,2.08,2.06,3.48,1.79"/><path class="b" d="M8.51,158.46c2.03.05,4.17.35,6.09,1,1.4.04,2.95.01,4.35.02,9.57,0,19.16,0,28.73,0,21.76,0,43.53,0,65.29,0,1.39,0,2.96,0,4.35,0,1.08-.23,2.38-.41,3.48-.49,2.88-.21,5.84.03,8.71.33,2.86.32,5.83.1,8.71.16,1.39-.04,2.97.1,4.35-.11,1.83-.41,3.63-1.39,5.22-2.37,12.01-8.04,15.76-8.27,28.73-1.43,1.5,1,3.03,2.31,4.35,3.53.67.47,1.83.39,2.61.38"/><path class="b" d="M8.51,153.55c1.41.03,2.97.18,4.35.47,1.41.34,2.88.91,4.35.73,9.28,0,18.58,0,27.86,0,19.73,0,39.47,0,59.2,0,4.04,0,8.15,0,12.19,0,1.14-.05,2.38-.7,3.48-.97,1.95-.56,4.07-.95,6.09-1.14,5.78-.62,11.65.64,17.41-.22,4.65-1.1,8.48-4.41,13.06-5.76,5.07-1.78,10.43.15,14.8,2.84,2.72,1.52,5.51,3.15,7.84,5.25h4.35"/><path class="b" d="M8.51,148.87c2.34.07,4.7.62,6.96,1.16,1.1,0,2.39,0,3.48,0,9.28,0,18.58,0,27.86,0,4.63,0,9.3,0,13.93,0,1.4-.11,2.94-.47,4.35-.44,1.41,0,2.97.18,4.35.44,1.09,0,2.39,0,3.48,0,6.95,0,13.94,0,20.89,0,6.95-.07,13.95.15,20.89-.09,3.05-1.61,6.26-3.13,9.58-4.12,3.92-1.2,8.1-1.56,12.19-1.52,3.8.02,7.75.27,11.32-1.28,3.35-1.25,6.81-2.75,10.45-2.72,4.52-.01,8.6,2.44,12.19,4.96,2.27,1.59,4.68,3.21,6.96,4.77h6.09"/><path class="b" d="M8.51,144.91c3.71.71,7.56.29,11.32.4,6.08,0,12.2,0,18.28,0,5.5,0,11.04,0,16.54,0,2.29,0,4.68,0,6.96,0,1.4-.2,2.93-.6,4.35-.66,2.61-.21,5.26.34,7.84.66,6.08,0,12.2,0,18.28,0,4.63,0,9.3,0,13.93,0,.43,0,1.31,0,1.74,0,.82-.26,1.85-.83,2.61-1.23,1.4-.72,2.96-1.54,4.35-2.29,4.65-2.5,9.55-4.82,14.8-5.67,5.16-1.02,10.5-.09,15.67-.82,5.63-1.29,10.92-3.2,16.54-.54,5.47,2.54,9.77,7.03,14.8,10.29.72.32,1.84.25,2.61.25,1.39,0,2.96,0,4.35,0"/><path class="b" d="M8.51,140.57c17.12,0,34.25,0,51.36,0,1.7-.01,3.53.03,5.22-.03,1.66-.44,3.51-.7,5.22-.76,4.35-.11,8.72.68,13.06.79,4.33,0,8.72,0,13.06,0,1.4-.02,2.96.05,4.35-.06,1.76-.73,3.58-1.71,5.22-2.67,6.56-3.8,13.32-7.9,20.89-9.2,4.6-.8,9.31-.23,13.93.03,5.27.46,10.4-2.14,15.67-1.15,8.15,1.53,13.26,8.9,20.02,13.05h6.96"/><path class="b" d="M8.51,135.85c17.41,0,34.83,0,52.24,0,1.4,0,2.96,0,4.35,0,2.77-1.04,5.73-1.87,8.71-1.98,2.89-.1,5.88.11,8.71.73,2.56.6,5.17,1.46,7.84,1.24,1.69-.03,3.54.09,5.22-.08,4.57-1.13,8.41-4.14,12.19-6.8,4.92-3.38,10.56-6.18,16.54-6.92,3.47-.4,7.03.03,10.45.67,3.42.61,6.96,1.44,10.45.92,2.87-.42,5.79-1.23,8.71-1.22,7.46-.09,12.97,5.73,18.28,10.19,1.32,1.11,2.91,2.24,4.35,3.18,2.28.14,4.68.03,6.96.06"/><path class="b" d="M8.51,131.12c14.79,0,29.61,0,44.4,0,3.46,0,6.99,0,10.45,0,1.69-.81,3.46-1.81,5.22-2.47,4.4-1.79,9.43-2.06,13.93-.49,3.1,1.02,6.27,2.32,9.58,2.35,11.22-.07,15.95-12.69,29.6-14.05,3.82-.4,7.69.47,11.32,1.6,3.39,1.01,6.86,2.35,10.45,2.24,3.24-.2,6.37-1.45,9.58-1.84,3.6-.53,7.35.36,10.45,2.23,4.99,2.92,8.89,7.48,13.93,10.34,1.98.24,4.11.05,6.09.11"/><path class="b" d="M8.51,126.39c13.92,0,27.86,0,41.79,0,3.17,0,6.41,0,9.58,0,1.56-.3,2.94-1.56,4.35-2.24,5.48-3.26,12.17-5.51,18.28-2.59,3.1,1.33,6.18,3.08,9.58,3.5,11.36,1.22,16.26-12.76,29.6-13.18,4.22-.17,8.31,1.29,12.19,2.8,3.84,1.49,8.06,3.1,12.19,1.85,2.88-.76,5.74-1.98,8.71-2.4,7.19-1.25,13.08,3.98,18.28,8.16,2.13,1.56,4.39,3.39,6.96,4.11,1.08,0,2.4,0,3.48,0"/><path class="b" d="M8.51,121.67c13.05,0,26.12,0,39.18,0,2.58-.04,5.26.09,7.84-.06,1.75-.71,3.56-1.65,5.22-2.53,6.25-3.44,13.79-7.21,20.89-4.05,2.95,1.32,5.69,3.25,8.71,4.42,7.14,3.03,12.86-1.49,18.28-5.64,2.62-1.95,5.6-3.58,8.71-4.62,5.11-1.79,10.66-.9,15.67.8,3.1.96,6.29,2.16,9.58,2.18,6.36-.37,11.44-5.08,18.28-3.33,8.59,2.19,13.84,11.14,22.64,12.83"/><path class="b" d="M8.51,115.84c2.01.29,4.07.99,6.09,1.1,3.75-.07,7.58.14,11.32-.09,7.48-1.2,15-3.04,22.64-2.52,3.3.13,6.54-1.04,9.58-2.22,7.09-2.98,14.89-5.95,22.64-3.8,2.47.79,4.74,2.32,6.96,3.63,9.19,5.78,14.16,3.61,22.64-1.84,11.3-6.67,16.66-5.18,28.73-3.01,6.43,1.27,11.38-3.15,17.41-4.24,5.77-1.19,11.14,2.04,15.67,5.25,3.55,2.42,7.28,4.8,11.32,6.32"/><path class="b" d="M8.51,109.18c8.12-.18,16.28-.35,24.38-1.15,6.09-.69,12.24-1.32,18.28-2.28,5.23-1.19,10.32-3.18,15.67-3.84,3.15-.43,6.41-.45,9.58-.3,2,.14,4.18.02,6.09.7,3.98,1.44,7.42,4.16,11.32,5.77,7.14,3.2,12.73.49,19.15-2.77,3.81-1.77,7.98-2.93,12.19-3.14,6.1-.43,12.19,1.39,18.28.74,4-.71,7.51-3.08,11.32-4.39,5.28-2.09,10.73-1.2,15.67,1.37,4.41,2.1,8.69,4.58,13.06,6.75"/><path class="b" d="M8.51,104.01c4.01-.86,8.08-2,12.19-2.26,4.34-.18,8.72.34,13.06.23,4.71-.06,9.42-.91,13.93-2.21,5.69-1.68,11.41-3.76,17.41-3.92,4.34-.23,8.72.43,13.06.23,6.69-1.33,12.22,3.44,18.28,5.35,10.21,3.37,13.62-1.73,22.64-3.05,5.19-.77,10.48-.08,15.67.41,10.5,1.14,11.79-1.14,20.89-4.43,5.08-1.83,10.65-1.26,15.67.5,4.28,1.15,8.33,3.08,12.19,5.25"/><path class="b" d="M8.51,100.59c3.2-1.01,6.38-2.32,9.58-3.32,5.46-1.29,11.04.56,16.54.48,4.49.06,8.96-1.07,13.06-2.86,6.88-3.24,13.25-4.89,20.89-4.01,4.04.37,8.25.88,12.19-.41,6.6-1.17,12.75,2.66,19.15,3.55,3.15.53,6.49.44,9.58-.41,9.73-4,18.13.22,27.86,1.24,2.58.24,5.3.2,7.84-.4,4.07-.98,8.03-2.66,12.19-3.31,4.63-.82,9.37-.1,13.93.82,1.68.35,3.56.48,5.22.95,2.39.7,4.74,1.86,6.96,2.97"/><path class="b" d="M8.51,98.03c.85.05,1.84-.4,2.61-.68,1.42-.55,2.97-1.22,4.35-1.87,4.87-2.91,10.35-1.77,15.67-1.31,3.48.29,7.09.06,10.45-.95,6.22-1.87,11.68-6.06,18.28-6.73,6.07-.98,12.25,1.22,18.28.02,8.43-3.37,14.95-.86,23.51-.63,3.52.11,7.09-.41,10.45-1.47,6.68-1.5,13.02,2.23,19.15,4.33,10.42,4.04,14.34.94,24.38.59,5-.16,9.92,1.13,14.8,2,1.97.4,4.12.27,6.09.57,2.38.42,4.74,1.34,6.96,2.24"/><path class="b" d="M8.51,93.31c1.7,0,3.53,0,5.22,0,1.23.07,2.42-.91,3.48-1.42,1.59-.84,3.45-1.37,5.22-1.61,3.15-.42,6.41-.24,9.58-.42,3.23-.16,6.51-.73,9.58-1.76,6.61-2.27,12.84-6.2,20.02-6.33,4.93-.3,9.87,1.02,14.8.59,2.69-.24,5.18-1.63,7.84-2.08,3.42-.7,6.97-.86,10.45-1.02,5.55-.22,11.17-.67,16.54-2.15,5.18-1.44,10.32,1.3,14.8,3.65,4.93,2.61,9.97,5.71,15.67,6.12,2.28.07,4.68-.06,6.96.07,3.52.15,7.08.81,10.45,1.85,4.05,1.19,8.01,3,12.19,3.73,1.68.32,3.53.1,5.22.24,1.09.09,2.4.35,3.48.54,1.08,0,2.4,0,3.48,0"/><path class="b" d="M8.51,88.58c2,0,4.1,0,6.09,0,1.27.19,2.4-.97,3.48-1.46,1.61-.83,3.46-1.47,5.22-1.88,4.6-1.05,9.37-1.44,13.93-2.69,4.43-1.12,8.69-2.95,13.06-4.27,4.49-1.37,9.29-1.73,13.93-1.09,4.6.52,9.29,1.95,13.93,1.07,2.91-.76,5.79-1.96,8.71-2.7,5.15-1.45,10.43-2.62,15.67-3.68,11.4-2.27,13.08-3.32,23.51,3.18,4.23,2.64,8.38,5.64,13.06,7.46,2.49,1.01,5.29,1.18,7.84,2,3.28.98,6.49,2.43,9.58,3.91,3.13.39,6.42.05,9.58.16,5.79,0,11.62,0,17.41,0"/><path class="b" d="M8.51,83.85c1.7-.03,3.53.07,5.22-.06,3.2-1.54,6.13-3.8,9.58-4.83,3.68-1.27,7.56-2.11,11.32-3.1,4.06-1.03,8.12-2.3,12.19-3.29,7.41-1.99,14.53-.59,21.76,1.35,5.71,1.43,9.34,1.57,14.8-.81,6.01-2.34,11.96-5.07,18.28-6.5,9.2-1.96,14.39-2.1,22.64,2.93,6.68,4,12.71,9.2,20.02,12.06,1.72.68,3.27,2.43,5.22,2.24,11.31,0,22.64,0,33.95,0"/><path class="b" d="M8.51,78.9c3.84-.64,7.24-2.66,10.45-4.76,2.71-1.54,5.72-2.7,8.71-3.59,7.1-1.95,14.4-3.67,21.76-4.15,4.73-.18,9.44.95,13.93,2.34,3.97,1.19,8.01,2.65,12.19,2.81,3.67.18,7.16-1.41,10.45-2.85,4.5-2.03,9.06-4.22,13.93-5.23,6.63-1.35,13.68-.67,20.02,1.63,8.02,2.94,14.74,8.43,21.77,13.12.66.52,1.74,1.06,2.61.91,1.09,0,2.4,0,3.48,0,2.87,0,5.83,0,8.71,0,8.99,0,18,0,26.99,0"/><path class="b" d="M8.51,72.64c2.39-.66,4.82-1.62,6.96-2.87,1.95-1.23,3.97-2.6,6.09-3.51,7.62-3.36,16.14-4,24.38-4.13,4.72-.13,9.43.79,13.93,2.17,4.86,1.42,9.71,3.32,14.8,3.71,3.93.38,7.75-1.02,11.32-2.51,9.16-4.02,15.41-5.23,25.25-2.67,9.9,1.93,16.8,3.33,25.25,9.42,1.09.67,2.2,1.91,3.48,2.17,1.99,0,4.1,0,6.09,0,12.47,0,24.96,0,37.44,0"/><path class="b" d="M8.51,67.66c2.38-.76,4.8-1.76,6.96-3,2.95-1.91,6.13-3.64,9.58-4.47,6.24-1.61,12.78-1.3,19.15-.92,3.18.21,6.44.42,9.58,1.02,4.38.79,8.71,2.03,13.06,2.98,15.43,3.74,18.23-3.19,31.34-3.2,4.79.1,9.37,1.84,13.93,3.11,3.69.92,7.58,1.04,11.32,1.66,2.97.47,5.97,1.3,8.71,2.54,1.45.64,2.97,1.54,4.35,2.3.77,0,1.84,0,2.61,0,14.79,0,29.61,0,44.4,0"/><path class="b" d="M8.51,63.32c2.35-.75,4.76-1.68,6.96-2.81,2.94-1.73,6.17-3.12,9.58-3.57,5.76-.85,11.64-.2,17.41.16,6.39.4,12.82.81,19.15,1.81,5.75.8,11.59,1.96,17.41,1.44,5.25-.58,10.34-2.57,15.67-2.52,6.4-.17,12.24,2.8,18.28,4.41,5.15,1.11,10.54.75,15.67,1.94.78.17,1.85.46,2.61.7,1.99.1,4.1.02,6.09.05,3.75,0,7.57,0,11.32,0,11.6,0,23.22,0,34.82,0"/><path class="b" d="M8.51,57.14c3.21-1.06,6.42-2.32,9.58-3.53,6.82-2.01,13.97.16,20.89.34,9.9.41,19.83-.46,29.6,1.69,3.72.67,7.52,1.51,11.32,1.45,3.5-.1,6.98-1.01,10.45-1.4,3.46-.43,7.05-.3,10.45.52,2.65.62,5.3,1.62,7.84,2.61,1.66.59,3.41,1.55,5.22,1.39,23.21,0,46.44,0,69.65,0"/><path class="b" d="M8.51,49.79c3.1-1.04,6.33-2.06,9.58-2.53,5.95-.34,11.53,2.58,17.41,3.06,8.12.88,16.25-1.57,24.38-.74,3.88.38,7.67,1.58,11.32,2.9,3.62,1.28,7.41,2.76,11.32,2.46,4.37-.33,8.66-1.68,13.06-1.78,4.18-.2,8.3.9,12.19,2.33,3.75,0,7.57,0,11.32,0,21.47,0,42.95,0,64.42,0"/><path class="b" d="M8.51,42.13c3.06-.92,6.37-1.61,9.58-1.28,3.7.6,7.02,2.65,10.45,4.06,3.27,1.41,6.87,2.33,10.45,2.16,4.1-.19,8.12-1.39,12.19-1.88,8.63-1.56,14.54,1.19,21.76,5.48,2.86.22,5.83.03,8.71.09,4.63,0,9.3,0,13.93,0,2.58-.19,5.26-.53,7.84-.03,26.69.08,53.4,0,80.09.03"/><path class="b" d="M8.51,35.13c12.48-3.09,15.55,6.08,26.12,8.68,3.77.89,7.67.01,11.32-1.03,3.67-.93,7.5-1.89,11.32-1.6,2.74.22,5.45,1.2,7.84,2.52.8.44,1.85,1.09,2.61,1.6.43.34,1.18.75,1.74.73,12.18,0,24.38,0,36.56,0,25.82,0,51.66,0,77.48,0"/><path class="b" d="M8.51,29.81c9.18-1.01,12.53,3.24,19.15,8.27,1.6,1.17,3.4,2.34,5.22,3.13,1.39.17,2.95.06,4.35.09,2.88-.01,5.83.03,8.71-.02,3.67-.97,7.49-2.05,11.32-1.74,2.08.18,4.21.82,6.09,1.72,3.17.09,6.41.01,9.58.04,8.41,0,16.84,0,25.25,0,7.53,0,15.1,0,22.64,0,3.46,0,6.99,0,10.45,0,1.73-.63,3.46-1.7,5.22-2.26,1.63-.57,3.5-.94,5.22-.74,1.11.16,2.4.57,3.48.84,3.41.92,6.93,1.72,10.45,2.12,2.58.09,5.26.02,7.84.04,6.66,0,13.36,0,20.02,0"/><path class="b" d="M8.51,25.44c4.31-.39,8.81.7,12.19,3.48,2.38,1.82,4.66,3.97,6.96,5.89,2.18,1.93,2.42,1.85,5.22,1.78,16.54,0,33.09,0,49.62,0,13.63,0,27.28,0,40.92,0,1.99.19,3.61-1.53,5.22-2.44,3.05-2.01,6.1-4.31,9.58-5.54,3.14-1.24,6.52-.12,9.58.84,3.47,1.12,6.95,2.45,10.45,3.5,8.14,2.44,16.77,3.38,25.25,3.21"/><path class="b" d="M8.51,21.23c8.56-1.43,14.04,4.78,20.02,9.73.66.76,1.65.99,2.61.9.79,0,1.83,0,2.61,0,3.17,0,6.41,0,9.58,0,14.5,0,29.03,0,43.53,0,4.33,0,8.72,0,13.06,0,1.15-.11,2.36-.81,3.48-1.07,1.65-.46,3.51-.68,5.22-.61,2.01.07,4.08.7,6.09.62,6.19-.1,11.53-3.77,16.54-7.01,3.66-2.27,7.66-5.14,12.19-4.67,5.06.65,9.51,3.5,13.93,5.86,9.84,5.52,14.91,6.61,26.12,4.66"/><path class="b" d="M8.51,17.21c6.43-1.43,11.58,2.19,16.54,5.74,1.11.8,2.39,1.78,3.48,2.61.78.53,1.63,1.48,2.61,1.56,9.86,0,19.74,0,29.6,0,7.83,0,15.68,0,23.51,0,3.75,0,7.57,0,11.32,0,1.8-.65,3.43-2.02,5.22-2.73,2.44-1.12,5.16-1.85,7.84-2.09,3.17-.23,6.44-.03,9.58-.58,3.61-.56,7.14-1.82,10.45-3.36,5.97-2.6,12.42-7.44,19.15-4.67,8.53,3.22,14.9,11.68,24.38,12.38,3.82-.09,7.58-1.33,11.32-2.04"/><path class="b" d="M8.51,13.41c5.55-1.09,9.13,1.06,13.93,3.31,2.04.99,4.15,2.12,6.09,3.3.8.47,1.84,1.15,2.61,1.65.39.39,1.2.72,1.74.73,10.44,0,20.9,0,31.34,0,6.08,0,12.2,0,18.28,0,1.99,0,4.1,0,6.09,0,1.4-.08,3.01.21,4.35-.24,4.38-3.19,9.45-5.49,14.8-6.42,7.15-1.67,14.64-.71,21.77-2.5,4.67-1.01,9.17-3.01,13.93-3.6,2.4-.18,4.84.64,6.96,1.71,7.17,3.41,14.23,11.88,22.64,10.95,3.48-.8,6.91-2.13,10.45-2.71"/></svg>