<?xml version="1.0" encoding="UTF-8"?><svg id="a" xmlns="http://www.w3.org/2000/svg" width="1920" height="2400" viewBox="0 0 192 240"><defs><style>.b{fill:none;stroke:#fff;stroke-miterlimit:10;stroke-width:.4px;}.c{stroke-width:0px;}</style></defs><rect class="c" x="0" width="192" height="240"/><path class="b" d="M8.37,232.21h46.21c5.39-5.14,10.86-12.45,19.18-11.78,2.33.13,4.69.77,6.98,1.19,2.56.43,5.26.48,7.85.43,6.79-.23,14.07-.43,20.06,3.3,2.09,1.23,3.97,3.02,6.1,4.18,4.18,2.48,9.28,2.87,13.95,1.8,6.27-1.36,11.02-3.6,17.44-1.04,2.29.6,4.57,1.95,6.98,1.92,10.17,0,20.35,0,30.52,0"/><path class="b" d="M8.37,227.48h48.83c4.95-4.88,10.01-10.94,17.44-11.57,3.17-.32,6.41.25,9.59.15,7.96-.23,16.42-.56,23.54,3.59,2.41,1.27,4.53,3.22,6.98,4.44,4.57,2.47,10.05,2.13,14.82.43,3.45-1.11,6.85-2.73,10.46-3.25,3.26-.46,6.54.63,9.59,1.64,3.46,1.21,6.93,2.6,10.46,3.59,1.38.37,2.93.85,4.36.97,1.99,0,4.11,0,6.1,0,4.34,0,8.74,0,13.08,0"/><path class="b" d="M8.37,222.74c17.43,0,34.88,0,52.32,0,1.04-.09,1.87-1.25,2.62-1.86,1.07-.97,2.36-2.08,3.49-2.98,3.56-2.85,7.7-5.18,12.21-6.09,15.36-3.19,21.98-.23,34.88,7.55,9.41,4.76,16.58-.18,25.29-3.44,4.49-1.59,9.44-.95,13.95.21,7.08,1.84,13.72,5.23,20.93,6.6,3.17,0,6.42,0,9.59,0"/><path class="b" d="M8.37,218.01h58.42c9.05-7.52,19.02-15.34,31.39-10.58,5.78,2.14,10.83,5.9,16.57,8.12,5.57,2.43,11.82,2.53,17.44.22,3.54-1.32,6.91-3.21,10.46-4.48,9.1-3.34,15.7-2.77,24.42,1.34,5.97,2.81,9.82,4.17,16.57,3.59"/><path class="b" d="M8.37,213.27c19.76,0,39.53,0,59.29,0,1.69-.12,3.63.31,5.23-.3,2.77-2.55,5.57-5.26,8.72-7.34,3.78-2.59,8.48-4.2,13.08-3.29,4.72.85,8.86,3.54,13.08,5.67,3.36,1.64,7.03,2.75,10.46,4.25.76.3,1.83.68,2.62.93,1.08.14,2.4.07,3.49.08,2.29,0,4.69,0,6.98,0,1.09-.03,2.42.1,3.49-.15,1.44-.51,3-1.22,4.36-1.92,7.54-3.52,14.55-11.02,23.54-8.8,8.23,2.17,11.28,6.82,20.93,6.12"/><path class="b" d="M8.37,208.54h68.01c5.98-5.44,12-11.84,20.93-9.72,4.3.96,8.12,3.39,12.21,4.92,2.36.71,4.82,1.42,6.98,2.65,1.68.73,3.31,2.3,5.23,2.15,3.17,0,6.42,0,9.59,0,3.47,0,7,0,10.46,0,1.98-.9,3.62-2.69,5.23-4.11,2.48-2.34,5-4.87,7.85-6.78,8.11-5.47,13.3-.99,20.93,2.15,2.49.86,5.23,1.17,7.85,1.22"/><path class="b" d="M8.37,203.8c23.54,0,47.09.02,70.63-.01,7.21-6.95,14.14-11.81,24.42-7.97,3.14,1.16,6.37,2.29,9.59,3.21,2.82,1.15,5.35,3.07,7.85,4.77,8.13-.01,16.29.02,24.42-.01,6.79-6.7,13.47-17.14,24.42-12.37,2.02.77,4.06,1.81,6.1,2.51,2.5.82,5.22,1.17,7.85,1.3"/><path class="b" d="M8.37,199.07c21.21,0,42.44,0,63.65,0,2.87-.08,5.86.18,8.72-.13,1.94-1.49,4.02-3.03,6.1-4.32,4.87-3.15,10.77-4.86,16.57-3.98,2.02.26,4.12.73,6.1,1.2,1.75.38,3.65.84,5.23,1.71,1.79.93,3.59,2.17,5.23,3.35,1.33.83,2.65,2.42,4.36,2.18,4.63,0,9.32,0,13.95,0,1.7,0,3.54,0,5.23,0,1.09-.04,2.44.16,3.49-.24,5.22-4.66,10.74-10.72,18.31-10.52,3.59.06,7.01,1.52,10.46,2.34,2.54.55,5.26.62,7.85.52"/><path class="b" d="M8.37,194.34c21.21,0,42.44,0,63.65,0,3.17,0,6.42,0,9.59,0,.88,0,1.85-.65,2.62-1.02,1.39-.7,2.95-1.47,4.36-2.11,3.62-1.66,7.43-3.12,11.34-3.92,7.29-1.52,13.78-.53,20.05,3.55,1.41.84,2.97,1.83,4.36,2.7.93.8,2.32.89,3.49.81,4.63,0,9.32,0,13.95,0,1.7,0,3.54,0,5.23,0,1.19.1,2.49-.06,3.49-.86,4.28-2.57,8.93-4.87,13.95-5.44,3.76-.5,7.59.08,11.34.38,2.6.11,5.3-.23,7.85-.72"/><path class="b" d="M8.37,189.6c17.73,0,35.46,0,53.19,0,8.13,0,16.29,0,24.42,0,5.33-1.06,10.49-2.95,15.7-4.48,6.5-2.08,11.11-1.44,17.44.8,2.98.96,5.78,2.63,8.72,3.68,5.51,0,11.06,0,16.57,0,4.63-.05,9.33.11,13.95-.07,2.87-.8,5.82-1.61,8.72-2.27,3.13-.78,6.4-1.11,9.59-1.51,2.33-.39,4.73-1.05,6.98-1.78"/><path class="b" d="M8.37,184.13c1.7-.14,3.55-.1,5.23.2,1.39.36,2.91.65,4.36.53,15.11,0,30.23,0,45.34,0,8.42,0,16.87,0,25.29,0,3.76,0,7.58,0,11.34,0,1.4-.42,2.96-.94,4.36-1.36,1.66-.5,3.49-.95,5.23-1.06,1.7-.07,3.53.26,5.23.33,4.12.21,8.28.79,12.21,2.08,13.07,0,26.17,0,39.24,0,.4,0,1.33,0,1.74-.02.4-.2,1.33-.6,1.74-.79,1.06-.48,2.38-1,3.49-1.38,3.51-.97,7.08-2.03,10.46-3.38"/><path class="b" d="M8.37,177.08c3.3-.41,6.67.34,9.59,1.89.79.36,1.82.84,2.62,1.17.47,0,1.29,0,1.74,0,14.24,0,28.49,0,42.73,0,2.88-.28,5.84-.16,8.72,0,2.29,0,4.68,0,6.98,0,15.11,0,30.23,0,45.34,0,13.65,0,27.33,0,40.98,0,.93,0,1.86-.86,2.62-1.32,1.04-.69,2.36-1.46,3.49-2,3.38-1.4,7-2.41,10.46-3.58"/><path class="b" d="M8.37,172.93c4.93-.77,7.77.8,12.21,2.26,1.36.4,2.96.15,4.36.21,2,0,4.11,0,6.1,0,2.71-.31,5.29-1.66,7.85-2.55,3.3-1.33,7.05-2.31,10.46-.82,2.24.64,4.66.85,6.98.96,4.06.16,8.2.25,12.21.97,2.32.34,4.67,1.08,6.98,1.44,1.7,0,3.53,0,5.23,0,27.9,0,55.81,0,83.71,0,7.44-6.32,9.27-7.8,19.18-9.42"/><path class="b" d="M8.37,170.13c2.25-.5,4.68-.72,6.98-.44,2.85.53,5.82,1,8.72.52,4.32-.6,8.31-2.59,12.21-4.44,2.99-1.38,6.22-2.9,9.59-2.7,2.38.25,4.63,1.52,6.98,1.97,4.04.97,8.2,1.66,12.21,2.77,2.91.79,5.86,1.78,8.72,2.73,1.98.25,4.11.06,6.1.11,6.67,0,13.38,0,20.06,0,1.99,0,4.11,0,6.1,0,1.4-.13,2.94-.56,4.36-.48,2.91.42,5.78.56,8.72.48,3.76,0,7.58,0,11.34,0,10.75,0,21.52,0,32.26,0,7.54-6.96,9.94-10.6,20.93-11.55"/><path class="b" d="M8.37,165.93c1.1,0,2.39,0,3.49,0,1.11-.09,2.38-.4,3.49-.5,2.02-.12,4.16-.3,6.1-.92,4.61-1.38,8.78-3.95,13.08-6.03,4.57-2.31,10.05-3.97,14.82-1.29,6.23,2.54,12.87,3.99,19.18,6.29,2.29.79,4.67,1.65,6.98,2.4,3.75.13,7.58.01,11.34.05,3.17,0,6.42,0,9.59,0,3.55-.87,6.82-3.19,10.46-3.98,2.29-.65,4.74-.24,6.98.45,2.36.65,4.76,1.57,6.98,2.61.42.21,1.32.64,1.74.86,1.39.12,2.96.04,4.36.06,2.88,0,5.84,0,8.72,0,8.42,0,16.87,0,25.29,0,3.93-3.07,7.13-7.17,11.34-9.91,3.39-2.05,7.42-3.11,11.34-3.57"/><path class="b" d="M8.37,161.2c1.1,0,2.39.02,3.49-.03.79-.31,1.82-.71,2.62-.99,2.35-.77,4.82-1.55,6.98-2.79,6.79-3.63,13.61-9.43,21.8-8.32,3.13.37,5.84,2.23,8.72,3.35,3.94,1.56,8.11,2.61,12.21,3.68,4.06,1.04,8.17,2.15,12.21,3.26,4.21,1.28,8.72,2.22,13.08,1.09,5.58-1.24,10.35-4.7,15.7-6.57,1.92-.64,4.11-.98,6.1-.48,3.39.92,6.59,2.62,9.59,4.42,1.1.66,2.41,1.48,3.49,2.17.74.45,1.69,1.28,2.62,1.21,10.46-.04,20.94.08,31.39-.05,5.16-3.57,9.43-8.42,14.82-11.65,3.28-1.65,6.84-3.03,10.46-3.67"/><path class="b" d="M8.37,156.46c1.79-.64,3.53-1.76,5.23-2.6,1.7-.92,3.59-1.83,5.23-2.86,3.78-2.4,7.31-5.36,11.34-7.35,4.57-2.44,10.13-2.64,14.82-.43,2.63,1.15,5.11,2.83,7.85,3.74,6.15,2.19,12.78,2.38,19.18,3.35,2.31.34,4.71.8,6.98,1.39,2.79.86,5.82,1.22,8.72.82,3.96-.52,7.7-2.17,11.34-3.74,4.05-1.73,8.68-3.75,13.08-2.1,4.93,1.72,9.34,4.69,13.95,7.08,1.37.72,2.93,1.48,4.36,2.08,1.02.54,2.34.73,3.49.63,3.46,0,7,0,10.46,0,2.62,0,5.36.21,7.85-.78,7.19-2.15,12.99-7.15,19.18-11.14,3.8-2.21,7.93-4.12,12.21-5.19"/><path class="b" d="M8.37,149.23c4.19-2.32,8.41-4.79,12.21-7.73,6.92-5.48,13.68-10.36,22.67-6.16,2.38,1.01,4.64,2.51,6.98,3.62,2.18,1,4.61,1.67,6.98,2.03,6.05.93,12.26.22,18.31,1.16,2.65.34,5.23,1.37,7.85,1.85,4.63.89,9.42.29,13.95-.82,6.31-1.55,11.09-3.07,17.44-.49,11.6,4.26,17.87,6.59,30.52,4.71,5.35-.36,10.79-1.09,15.7-3.38,7.58-3.44,14.37-8.96,22.67-10.64"/><path class="b" d="M8.37,140.89c4.59-2.44,8.98-5.36,13.08-8.54,6.78-5.28,13.33-8.61,21.8-4.88,2.35.93,4.63,2.29,6.98,3.22,6.95,2.67,14.55,1.35,21.8,1.96,7.59.4,14.33,4.54,21.8,5.57,4.89.83,9.9.38,14.82.47,5.51.38,11.02,1.38,16.57,1.18,5.54-.06,11.05-.97,16.57-1.34,5.22-.27,10.54.25,15.7-.86,4.57-.89,8.89-2.83,13.08-4.81,4.13-1.9,8.46-3.93,13.08-4.04"/><path class="b" d="M8.37,132.92c9.72-4.58,17.86-15.27,29.65-13.21,4.22.61,8.11,2.64,12.21,3.69,2.26.5,4.67.59,6.98.54,3.76-.1,7.57-.49,11.34-.36,4.76.18,9.64,1.07,13.95,3.15,3.57,1.81,6.91,4.19,10.46,6.03,3.23,1.7,6.81,2.96,10.46,3.27,5.24.37,10.56-.33,15.7-1.37,6.67-1.38,13.24-3.58,20.06-4.18,6.38-.39,12.8.71,19.18.11,4.11-.3,8.23-1.09,12.21-2.14,4.24-1.17,8.62-2.61,13.08-1.93"/><path class="b" d="M8.37,127.06c10.32-5.06,14.79-12.94,27.9-11.48,6.11.69,12.08,3.42,18.31,2.32,4.89-.64,9.88-1.56,14.82-.94,2.64.3,5.32.96,7.85,1.76,2.82.77,5.55,2.05,7.85,3.88,5.54,4.11,11.01,9.66,18.31,9.92,5.18.12,10.03-2.21,14.82-3.88,5.87-2.2,12-4.11,18.31-4.37,3.47-.2,7,.26,10.46.49,6.68.37,13.38,1.01,20.06,1.36,2.88.15,5.85,0,8.72-.32,2.6-.18,5.31.06,7.85.65"/><path class="b" d="M8.37,123.82c3.77-1.76,7.14-4.3,10.46-6.77,5.33-3.7,12.08-4.13,18.31-3.06,4.59.65,9.32,1.74,13.95.87,4.88-.95,9.78-2.62,14.82-2.19,3.6.24,7.12,1.41,10.46,2.69,2.01.81,4.26,1.39,6.1,2.56,5.65,3.52,10.43,9.42,17.44,10.09,9.7.58,15.84-9.68,30.52-9.07,4.4.14,8.74,1.28,13.08,1.89,4.92.57,9.96.59,14.82,1.66,4.4.87,8.68,2.47,13.08,3.35,1.67.35,3.54.35,5.23.53,2.32.26,4.72.78,6.98,1.37"/><path class="b" d="M8.37,122.47c3.43-1.66,6.65-3.86,9.59-6.27,6.11-4.66,13.82-3.64,20.93-2.67,3.75.44,7.66.62,11.34-.38,5.36-1.54,10.93-3.63,16.57-2.31,3.66.74,7.07,2.49,10.46,3.99,1.38.63,3,1.11,4.36,1.78,2.09,1.08,4.12,2.54,6.1,3.79,8.05,5.41,13.57,4.09,20.93-1.58,10.57-8.45,17.02-7.58,28.77-2.15,3.28,1.5,6.87,2.26,10.46,2.43,3.2.23,6.49.55,9.59,1.39,3.3.87,6.49,2.3,9.59,3.7,3.02,1.46,6.27,2.52,9.59,2.97,1.09.22,2.41.53,3.49.79,1.07.17,2.4.09,3.49.1"/><path class="b" d="M8.37,121.17c3.45-1.67,6.66-3.91,9.59-6.36,5.74-4.48,13.24-3.92,20.06-3.22,4.06.35,8.27.4,12.21-.76,7.25-2.29,12.8-3.68,20.06-.34,3.5,1.53,6.83,3.61,10.46,4.84,5.22,2.3,10.54,6.49,16.57,4.77,9.57-2.73,15.02-15.19,26.16-13.03,6.79,1.22,11.96,6.38,18.31,8.7,3.93,1.24,8.19,1.06,12.21,1.85,3.31.59,6.56,1.76,9.59,3.19,1.09.51,2.4,1.15,3.49,1.69.73.36,1.76.99,2.62.82,4.63,0,9.32,0,13.95,0"/><path class="b" d="M8.37,118.59c.8,0,1.84.05,2.62-.17.47-.25,1.29-.77,1.74-1.04,2.47-1.48,4.59-3.64,6.98-5.24,3.62-2.44,7.9-3.86,12.21-4.4,6.07-.77,12.3-.38,18.31-1.69,10.71-2.3,16.29.97,25.29,6,2.17,1.22,4.65,1.94,6.98,2.76,3.33,1.24,6.85,2.53,10.46,2.29,10.59-.56,16.31-12.99,27.03-12.91,8.5.13,14.86,6.88,22.67,9.25,3.69.96,7.6,1.09,11.34,1.79,3.57.63,7.1,1.79,10.46,3.15,2.24.45,4.69.09,6.98.2,4.05,0,8.16,0,12.21,0"/><path class="b" d="M8.37,113.85c2.28-.11,4.74.26,6.98-.21,3.77-3.23,7.72-6.43,12.21-8.62,5.14-2.62,10.87-3.83,16.57-4.45,3.16-.34,6.41-.95,9.59-.5,7.12.88,13.08,5.26,19.18,8.69,2.94,1.73,6.21,2.91,9.59,3.37,4.6.89,9.45.94,13.95-.45,4.59-1.34,8.78-3.82,13.08-5.84,8.68-4.57,17.78-.88,26.16,2.45,7.48,3.21,15.76,3.42,23.54,5.56,8.13.02,16.29,0,24.42,0"/><path class="b" d="M8.37,109.12c1.7,0,3.53,0,5.23,0,1.1-.04,2.42.13,3.49-.2,2.53-2.21,5.16-4.5,7.85-6.52,5.55-4.29,12.14-7.39,19.18-8.08,2.87-.3,5.9-.73,8.72.11,8.51,2.49,15.03,9.34,23.54,11.86,3.37.99,7,.8,10.46.53,9.3-.93,18.57-2.46,27.9-2.99,4.37,0,8.75.69,13.08,1.21,5.21.68,10.51,1.06,15.7,1.96,2.01.36,4.12.82,6.1,1.31,1.39.3,2.92.9,4.36.81,9.87,0,19.77,0,29.65,0"/><path class="b" d="M8.37,104.38h8.72c5.93-5.03,11.7-10.77,19.18-13.4,3.06-1.09,6.36-1.56,9.59-1.71,2.32-.18,4.77-.19,6.98.65,5.79,2.13,10.77,6.08,16.57,8.21,11.32,4.53,17.96-1.39,28.77.93,4.73.93,9.15,3.29,13.95,3.89,4.88.81,9.86,1.66,14.82,1.17,4.68-.35,9.26-1.79,13.95-2.01,2.33-.09,4.75.41,6.98,1.07,1.41.32,2.9,1.24,4.36,1.19,10.46,0,20.94,0,31.39,0"/><path class="b" d="M8.37,99.65c2.88-.07,5.86.16,8.72-.12,6.04-4.93,12.21-10.47,20.06-12.14,2.84-.64,5.82-.76,8.72-.83,2.62-.17,5.34-.14,7.85.76,7.09,2.5,13.12,5.56,20.93,4.92,2.59-.18,5.29-.4,7.85-.87,3.7-.74,7.61-1.46,11.34-.49,3.85.94,7.25,3.24,10.46,5.48,1.08.75,2.37,1.64,3.49,2.34.73.44,1.72,1.12,2.62.94,3.76,0,7.58,0,11.34,0,3.76-.02,7.58.05,11.34-.03,3.33-1.36,6.78-3.12,10.46-3.01,2.07.1,4.19.77,6.1,1.55,1.4.47,2.84,1.62,4.36,1.49,9.87,0,19.77,0,29.65,0"/><path class="b" d="M8.37,94.91c2,0,4.11,0,6.1,0,1.43-.09,3.25.39,4.36-.75,5.62-4.2,12.05-7.78,19.18-8.24,2.58-.23,5.26-.19,7.85-.31,2-.11,4.1-.46,6.1-.31,5.5.41,11.04,1.47,16.57.73,4.65-.6,9.27-1.65,13.95-2.01,4.06-.64,8.39-.79,12.21.97,5.27,2.29,9.26,6.68,13.95,9.88,6.96.08,13.96,0,20.93.03,1.09,0,2.39,0,3.49,0,2.27-1.12,4.59-2.41,6.98-3.26,2.8-1.1,5.96-.89,8.72.22,2.08.78,4.16,1.88,6.1,2.95,2.87.22,5.84.03,8.72.09,6.67,0,13.38,0,20.06,0"/><path class="b" d="M8.37,90.18c2.88,0,5.84,0,8.72,0,.92.16,1.89-.43,2.62-.91.78-.46,1.82-1.07,2.62-1.49,3-1.61,6.26-2.89,9.59-3.58,4.28-.93,8.74-.82,13.08-1.26,2.63-.27,5.25-1.09,7.85-1.55,4.65-.89,9.34-1.82,13.95-2.86,4.28-.91,8.68-1.95,13.08-1.65,10.8.21,15.37,2.64,23.54,9.45,1.66,1.29,3.36,2.87,5.23,3.85,1.09,0,2.4,0,3.49,0,6.67,0,13.38,0,20.06,0,1.19.15,2.45-.53,3.49-1.03,1.37-.63,2.93-1.31,4.36-1.79,2.5-.91,5.32-1.04,7.85-.16,2.1.67,4.18,1.73,6.1,2.79,2.72.45,5.91.07,8.72.19,6.96,0,13.96,0,20.93,0"/><path class="b" d="M8.37,85.44c3.47,0,7,0,10.46,0,.88-.02,1.84-.65,2.62-.99,1.08-.5,2.37-1.05,3.49-1.46,3.07-1.15,6.35-1.91,9.59-2.4,4.36-.68,8.88-.9,13.08-2.34,7.04-2.62,13.44-7.09,20.93-8.43,4.99-1.04,10.07.02,14.82,1.61,7.38,2.07,13.89,6.27,20.06,10.7,1.66,1.13,3.44,2.4,5.23,3.31,3.76,0,7.58,0,11.34,0,4.34-.07,8.75.14,13.08-.09,1.68-.62,3.51-1.29,5.23-1.81,3.38-1.12,7.11-1.44,10.46-.07,1.43.51,2.99,1.22,4.36,1.9,3.17.16,6.42.02,9.59.06,6.96,0,13.96,0,20.93,0"/><path class="b" d="M8.37,80.71c4.93,0,9.9,0,14.82,0,3.16-.88,6.36-1.96,9.59-2.61,8.75-1.84,14.66-2.99,21.8-8.81,5.18-3.97,11.48-8.11,18.31-6.42,4.66,1.09,8.84,3.7,13.08,5.84,6.92,3.67,13.77,7.6,20.93,10.81.77.34,1.84.8,2.62,1.12.77.07,1.84.06,2.62.06,2.29,0,4.69,0,6.98,0,3.17-.06,6.43.13,9.59-.09,2.57-.72,5.23-1.51,7.85-2.08,3.41-.72,7.05-1.22,10.46-.27,2.36.58,4.69,1.65,6.98,2.44,2.58,0,5.26,0,7.85,0,7.26,0,14.54,0,21.8,0"/><path class="b" d="M8.37,75.98c8.13,0,16.29,0,24.42,0,6.84-1.62,13.91-4,19.18-8.82,5.14-4.49,10.71-11.26,18.31-9.81,2.84.57,5.44,2.11,7.85,3.66,2.58,1.67,5.23,3.44,7.85,5.04,5.59,3.54,11.85,5.94,18.31,7.32,2.62.6,5.32,1.29,7.85,2.19,7.11,1.74,14.04-1.83,20.93-3.15,4.27-.87,8.8-1.18,13.08-.18,4.39,1.07,8.67,2.74,13.08,3.73,8.13.05,16.29,0,24.42.02"/><path class="b" d="M8.37,71.24c7.55,0,15.12,0,22.67,0,2.59,0,5.26,0,7.85,0,1.69-.13,3.64.32,5.23-.32,7.2-3.07,11.22-10.25,17.44-14.65,8.32-6.02,14.82.93,21.8,5.23,8.65,5.55,13.78,5.53,23.54,6.03,2.06.13,4.12.86,6.1,1.36,6.04.94,11.7-2.27,17.44-3.6,5.11-1.39,10.6-1.44,15.7.02,3.75,1.03,7.51,2.29,11.34,3,3.43.68,7,.91,10.46,1.36,1.41.19,2.99.48,4.36.89.76.22,1.8.73,2.62.68,2.88,0,5.84,0,8.72,0"/><path class="b" d="M8.37,66.51h42.73c7.02-6.23,13.35-18.02,24.42-12.64,4.54,2.23,8.88,5.21,13.95,6.11,5.48,1.21,11.06-.17,16.57-.36,1.41-.02,2.99.12,4.36.48,1.65.56,3.47,1.06,5.23,1,3.88-.07,7.63-1.45,11.34-2.44,9.4-2.74,14.56-1.5,23.54,1.49,3.11.93,6.36,1.63,9.59,1.96,3.46.38,7.03.34,10.46.96,1.45.27,3.04.75,4.36,1.4,1.16.53,2.29,1.63,3.49,2.06,1.69,0,3.54,0,5.23,0"/><path class="b" d="M8.37,61.77h47.09c5.66-5.39,11.22-12.5,20.06-10.18,3.48.89,6.8,2.71,10.46,2.84,6.89.61,13.29-2.8,20.06-3.28,1.41-.07,3,.07,4.36.47,1.65.6,3.46,1.2,5.23,1.29,5.56.32,11.02-1.49,16.57-1.51,2.91-.05,5.91.33,8.72,1.12,3.19.93,6.35,2.24,9.59,3,3.39.84,6.98,1.08,10.46.88,8.09-.53,13.24-1.57,19.18,5.18,1.07.3,2.39.15,3.49.18"/><path class="b" d="M8.37,57.04h49.7c5.13-4.67,10.86-9.7,18.31-8.99,3.17.32,6.39,1.16,9.59.52,5.68-.87,10.92-3.62,16.57-4.6,2.58-.45,5.36-.4,7.85.49,1.65.69,3.45,1.4,5.23,1.65,4.6.72,9.32.07,13.95.35,3.55.17,7.13.88,10.46,2.12,4.49,1.82,9,4.09,13.95,4.21,11.36.46,17.96-6.87,27.03,4.15.77.13,1.84.1,2.62.1"/><path class="b" d="M8.37,52.3h49.7c5.61-4.54,11.67-9.48,19.18-9.97,1.4-.13,2.96-.06,4.36-.18,2.04-.2,4.14-.72,6.1-1.29,6.98-2.17,14.65-4.82,21.8-1.86,2.76,1.3,5.65,2.53,8.72,2.78,4.92.55,9.97.27,14.82,1.36,4.01.81,7.79,2.6,11.34,4.59,3.46,1.8,7.41,2.92,11.34,2.68,7.23-.15,15.26-5.86,21.8-.59,2.91,2.2,2.02,2.64,6.1,2.47"/><path class="b" d="M8.37,47.57c10.17,0,20.35,0,30.52,0,3.47,0,7,0,10.46,0,1.99-.11,4.16.26,6.1-.22,6.82-4.76,13.47-10.47,21.8-12.27,1.68-.38,3.55-.54,5.23-.91,2.59-.54,5.24-1.25,7.85-1.71,5.56-1.1,11.42-.43,16.57,1.95,2.36.97,4.58,2.49,6.98,3.36,3.61,1.27,7.56,1.21,11.34,1.28,5.07.03,10.28.76,14.82,3.14,2.36,1.2,4.58,2.89,6.98,4.02,1.05.51,2.36,1.06,3.49,1.35,2.58,0,5.26,0,7.85,0,1.39-.03,2.97.08,4.36-.09,2.85-.67,5.77-1.62,8.72-1.69,2.12-.07,4.3.64,6.1,1.74,1.99.08,4.11.02,6.1.04"/><path class="b" d="M8.37,42.84c9.29,0,18.61,0,27.9,0,3.17,0,6.42,0,9.59,0,2.1-.04,4.25.33,6.1-.89,6.95-3.67,12.87-9.13,20.06-12.39,4.09-1.98,8.63-2.77,13.08-3.46,8.52-1.49,15.59,1.39,22.67,5.86,8.89,6.18,12.89,3.65,22.67,3.57,3.97.01,7.99,1.11,11.34,3.27,1.98,1.32,4.01,2.84,6.1,3.98,3.75.18,7.58.02,11.34.07,8.13,0,16.29,0,24.42,0"/><path class="b" d="M8.37,38.1c8.42-.04,16.87.09,25.29-.05,3.46-.56,7-1.08,10.46-1.67,2.32-.42,4.78-.76,6.98-1.66,10.69-4.76,19.14-14.9,31.39-15.83,8.69-1.05,16.2,4.32,22.67,9.42,9.87,8.02,12.6,7.07,24.42,4.28,3.72-.8,7.81-.99,11.34.67,2.74,1.33,5.16,3.42,7.85,4.84,3.17,0,6.42,0,9.59,0,8.42,0,16.87,0,25.29,0"/><path class="b" d="M8.37,33.37c7.84,0,15.71,0,23.54,0,3.76-1.32,7.44-3.1,11.34-4.03,2.83-.84,5.94-.76,8.72-1.79,10.6-4.02,18.62-14.57,30.52-15.08,11.13.19,18.13,10.41,26.16,16.71,7.64,6.42,14.11,4.44,22.67,1.45,3.32-1.08,7.04-2,10.46-.83,2.11.8,4.15,2.09,6.1,3.2,1.28.67,2.96.26,4.36.36,2.29,0,4.69,0,6.98,0,8.13,0,16.29,0,24.42,0"/><path class="b" d="M8.37,28.63c8.42,0,16.87,0,25.29,0,3.42-1.64,6.72-3.8,10.46-4.68,3.16-.83,6.51-.18,9.59-1.47,9.54-3.4,16.7-12.32,27.03-13.65,6.22-.69,11.95,2.67,16.57,6.51,3.6,2.94,6.92,6.33,10.46,9.34,1.59,1.35,3.42,2.68,5.23,3.73.75.3,1.83.24,2.62.23,5.22,0,10.48,0,15.7,0,1.4,0,2.96,0,4.36,0,1.39-.29,2.93-.71,4.36-.77,1.8-.22,3.53.62,5.23.77,3.46,0,7,0,10.46,0,9.29,0,18.61,0,27.9,0"/><path class="b" d="M8.37,23.9c6.38,0,12.8,0,19.18,0,2.29,0,4.68,0,6.98,0,1.12-.06,2.49.24,3.49-.39,9.18-4.71,10.36-.5,18.31-3.61,10-3.96,17.18-12.93,28.78-12.1,10.69.15,18.66,8.13,27.03,13.72,1.1.73,2.31,1.77,3.49,2.38,2.29,0,4.69,0,6.98,0,5.22,0,10.48,0,15.7,0,15.11,0,30.23,0,45.34,0"/></svg>