<?xml version="1.0" encoding="UTF-8"?><svg id="a" xmlns="http://www.w3.org/2000/svg" width="1920" height="2400" viewBox="0 0 192 240"><defs><style>.b{fill:none;stroke:#fff;stroke-miterlimit:10;stroke-width:.4px;}.c{stroke-width:0px;}</style></defs><rect class="c" x="0" width="192" height="240"/><path class="b" d="M7.88,224.65c3.28-.91,6.6-2.04,9.64-3.58,2.64-1.41,5.2-3.18,7.89-4.49,12.4-6.58,20.42,6.58,29.81,12.34,4.95-.06,9.96.13,14.91-.08,3.04-1.83,5.79-4.26,8.77-6.18,11.82-7.07,19-11.53,33.32-9.17,3.5.28,7.04-.45,10.52-.7,3.83-.33,7.79.05,11.4,1.41,4.45,1.56,8.23,4.54,12.28,6.87,3.26,1.82,6.86,3.15,10.52,3.86,4.61.94,9.41.88,14.03,1.73,2.4.41,4.75,1.4,7.01,2.26,2,0,4.13,0,6.14,0"/><path class="b" d="M7.88,217.24c3.24-1.19,6.52-2.52,9.64-3.99,2.88-1.44,5.71-3.23,8.77-4.29,5.68-2.18,11.19-.09,15.78,3.43,3.23,2.44,6.42,5.08,9.64,7.53,2.16,1.59,4.44,3.38,7.01,4.24,3.78-.06,7.63.12,11.4-.08,3.05-1.27,5.86-3.18,8.77-4.73,7.13-3.6,14.71-6.9,22.8-7.3,4.97-.45,9.95.81,14.91.31,9.27-1.16,15.41-.97,23.67,3.96,2.29,1.32,4.58,2.9,7.01,3.95,2.76,1.23,5.78,2.05,8.77,2.48,4.93.74,10,.46,14.91,1.39,4.37.02,8.79,0,13.15,0"/><path class="b" d="M7.88,211.63c4.49-1.74,8.91-3.82,13.15-6.1,8.73-4.87,14.66-4.15,22.8,1.34,7.47,4.61,15.27,10.79,24.55,9.99,5.44-.41,10.47-2.91,15.78-3.94,4.61-.95,9.35-1.5,14.03-2.01,4.93-.54,9.94-.89,14.91-.71,12.85-.7,17.53.19,28.93,6.42,2.43,1.33,5.14,2.38,7.89,2.79,1.09,0,2.41,0,3.51,0,10.22,0,20.47,0,30.69,0"/><path class="b" d="M7.88,207.36c3.93-1.45,7.68-3.52,11.4-5.44,5.27-3,11.4-5.58,17.54-3.92,3.67.86,7.07,2.7,10.52,4.14,3.67,1.48,7.53,2.63,11.4,3.47,7.18,1.56,14.6,2.06,21.92,1.47,4.09-.1,8.19.73,12.28.82,5.62.28,11.14-1.15,16.66-1.95,5.54-.54,11.29-.5,16.66,1.14,3.95,1.17,7.71,3.04,11.4,4.84,2.78,1.25,5.61,3.05,8.77,2.71,12.56,0,25.14,0,37.7,0"/><path class="b" d="M7.88,203.79c4.6-1.71,8.76-4.52,13.15-6.67,8.12-4.31,14.22-4.14,22.8-1.49,1.98.54,4.09,1.08,6.14,1.2,2.9.16,5.88-.2,8.77-.39,4.08-.32,8.25-.18,12.28.55,2.32.4,4.71.96,7.01,1.4,1.73.28,3.6.59,5.26,1.17,5.69,2.08,11.4,4.23,17.54,2.74,4.11-.84,8.04-2.78,12.28-3,8.92-.87,16.82,4,24.55,7.7,3.26,1.55,6.89,2.58,10.52,2.14,5.8-.65,11.74-2,17.54-.54.78.18,1.87.47,2.63.71.76.24,1.81.71,2.63.58,4.37,0,8.79,0,13.15,0"/><path class="b" d="M7.88,200.03c3.39-1.34,6.42-3.58,9.64-5.25,8.79-4.91,14.94-5.15,24.55-2.92,3.46.74,7.17,1.11,10.52-.28,7.31-2.92,12.93-6.02,21.04-3.61,3.24,1,6.64,1.92,9.64,3.52,5.87,3.33,11.45,6.65,18.41,4.45,4.35-1.27,8.49-3.75,13.15-3.63,9.34-.18,16.87,6.28,25.43,8.97,6.12,1.94,12.25-1.41,18.41-1.32,6.25-.2,11.85,3,17.54,5.11,2.6.11,5.29.02,7.89.05"/><path class="b" d="M7.88,195.15c2.72-1.42,5.25-3.34,7.89-4.88,5.62-3.34,12.06-4.47,18.41-2.79,4.34.96,8.63,2.88,13.15,2.68,2.54-.13,4.9-1.47,7.01-2.77,2.58-1.62,5.16-3.47,7.89-4.85,3.2-1.66,6.94-2.5,10.52-1.88,3.33.62,6.68,1.79,9.64,3.42,5.35,3.24,10.86,7.81,17.54,6.86,3.33-.39,6.46-1.85,9.64-2.78,8.81-2.52,17.47,1.77,25.43,5.14,3.85,1.6,8.1,2.79,12.28,1.92,8.43-1.77,13.49-2.94,21.92.41,4.75,1.91,9.71,3.76,14.91,3.59"/><path class="b" d="M7.88,190.41c2.61-1.55,5.15-3.42,7.89-4.74,6.59-3.22,13.63-1.68,20.17.79,4.42,1.51,9.43,3.49,14.03,1.58,10.07-4.98,15.9-15.27,28.93-11.53,5.07,1.35,9.24,4.9,14.03,6.92,7.72,3.58,13.23,1.42,21.04,1.58,8.15.11,15.92,2.82,23.67,5.02,9.21,2.92,14.68-.08,23.67-.19,7.66-.15,15.11,2.72,22.8,2.04"/><path class="b" d="M7.88,186.49c4.31-2.33,9-4.53,14.03-4.04,12.24.93,21.79,9.55,33.32.49,10.78-7.85,18.5-15,32.44-9.01,7.81,3.21,15.35,7.34,23.67,9.11,6.64,1.49,13.47,2.12,20.17,3.27,5.03.72,9.94,2.25,14.91,3.27,7.34,1.17,14.73-.57,21.92-1.91,5.19-1.05,10.55-1.23,15.78-2.01"/><path class="b" d="M7.88,183.25c7.5-2.16,12.78-1.22,20.17.35,7.54,1.62,15.58,1.52,22.8-1.4,11.21-4.53,20.57-14.51,33.32-14.47,7.69-.48,14.37,3.99,20.17,8.52,7.72,6.36,14.75,8.15,24.55,8.84,2.91.17,5.87.71,8.77.99,4.07,0,8.2,0,12.28,0,7,0,14.04,0,21.04,0,4.13-2.1,8.67-3.35,13.15-4.45"/><path class="b" d="M7.88,180.27c2.92.17,5.83,1.17,8.77,1.05,7.3,0,14.62,0,21.92,0,2.12,0,4.14-1.34,6.14-1.97,2.82-1.14,5.84-1.94,8.77-2.75,5.45-1.46,10.77-3.55,15.78-6.13,3.98-2.05,8.01-4.16,12.28-5.58,2.24-.88,4.61-1.82,7.01-2.12,11.56-1.04,16.54,12.22,25.43,17.1.75.45,1.83,1.01,2.63,1.38,1.09.12,2.41.06,3.51.07,2.3,0,4.71,0,7.01,0,7,0,14.04,0,21.04,0,7.3,0,14.62,0,21.92,0,3.19,0,6.46,0,9.64,0,1.47-.23,2.96-1.08,4.38-1.52"/><path class="b" d="M7.88,176.56c7,0,14.04,0,21.04,0,2.6,0,5.29,0,7.89,0,1.43-.06,3.18.29,4.38-.69,3.23-1.98,6.7-3.85,10.52-4.28,3.18-.45,6.48-.54,9.64-1.07,2.99-.48,5.98-1.38,8.77-2.56,3.85-1.69,7.64-3.7,11.4-5.57,3.27-1.84,6.62-4.29,10.52-4.33,9.98.4,14.64,14.39,22.8,18.5,23.09,0,46.18,0,69.27,0"/><path class="b" d="M7.88,171.8c10.51-.05,21.06.09,31.57-.05,9.2-6.49,11.29-5.6,21.92-5.69,3.88-.12,7.77-.93,11.4-2.3,3.23-1.3,6.61-2.56,9.64-4.28,3.26-1.91,6.6-4.37,10.52-4.49,8.51.22,13.2,10.03,19.29,14.76.75.62,1.82,1.42,2.63,1.96.43.06,1.32.11,1.75.09,22.5,0,45.01,0,67.51,0"/><path class="b" d="M7.88,167.04c7.3,0,14.62,0,21.92,0,11.32,0,5.79.79,14.91-4.63,3.15-1.87,6.92-2.3,10.52-2.07,4.36.25,8.77.88,13.15.62,2.93-.14,5.91-.64,8.77-1.28,2.06-.44,4.23-.95,6.14-1.86,7.67-3.8,12.81-5.29,20.17.28,2.7,1.99,5.2,4.4,7.89,6.4,1.36.86,2.77,2.21,4.38,2.53,7,0,14.04,0,21.04,0,15.78,0,31.57,0,47.35,0"/><path class="b" d="M7.88,162.28c9.63-.09,19.31.17,28.93-.1,3.92-3.02,8.09-6.4,13.15-7.06,4.66-.68,9.4.04,14.03.64,4.93.69,9.93,1.22,14.91,1.37,5.62.3,11.02-2.3,16.66-1.9,6.78.22,12.43,4.38,18.41,7.05,2.6,0,5.29,0,7.89,0,20.75,0,41.51,0,62.25,0"/><path class="b" d="M7.88,157.51h28.06c3.08-2.04,6.13-4.36,9.64-5.63,11.24-3.64,23.26-.93,34.2,2.56,5.67,1.71,11.69,1.54,17.54,1.91,2.61.15,5.31.4,7.89.81,1.98.46,4.12.36,6.14.36,24.26,0,48.52,0,72.78,0"/><path class="b" d="M7.88,152.75c9.05,0,18.13,0,27.18,0,1.26.18,2.44-.76,3.51-1.3,1.66-.87,3.49-1.71,5.26-2.32,3.97-1.29,8.19-1.94,12.28-2.76,6.81-1.3,13.93-.32,20.17,2.69,1.43.65,2.99,1.46,4.38,2.2,1.08.51,2.29,1.36,3.51,1.49,33.32,0,66.64,0,99.96,0"/><path class="b" d="M7.88,147.99c9.93,0,19.88,0,29.81,0,1.46-.04,2.96-.83,4.38-1.13,1.99-.54,4.12-.99,6.14-1.41,3.83-.84,7.56-2.3,11.4-3.08,7.6-1.8,14.76.48,21.04,4.81,1.44,1.24,3.53.7,5.26.81,2.6,0,5.29,0,7.89,0,7.88,0,15.79,0,23.67,0,22.21,0,44.43,0,66.64,0"/><path class="b" d="M7.88,143.23c11.98,0,23.97,0,35.95,0,5.45-1,10.47-3.58,15.78-5.03,5.19-1.5,10.88-1.14,15.78,1.17,1.46.65,3.02,1.51,4.38,2.35,1.06.58,2.22,1.71,3.51,1.51,6.42,0,12.87,0,19.29,0,8.47,0,16.96,0,25.43,0,18.7,0,37.41,0,56.12,0"/><path class="b" d="M7.88,138.47c12.27,0,24.56,0,36.83,0,2.2.11,4.19-1.4,6.14-2.22,2.82-1.39,5.74-2.81,8.77-3.7,5.18-1.65,10.86-1.06,15.78,1.15,2.07.88,4.17,1.98,6.14,3.07,1.09.55,2.3,1.44,3.51,1.71,7.88,0,15.79,0,23.67,0,1.71,0,3.55,0,5.26,0,1.1-.25,2.4-.6,3.51-.8,3.44-.64,7.05-.68,10.52-.23,2.03.17,4.11.92,6.14,1.02,5.25,0,10.54,0,15.78,0,11.39,0,22.8,0,34.2,0"/><path class="b" d="M7.88,133.71c11.1,0,22.22,0,33.32,0,5.23-.07,4.41.67,8.77-2.38,4.91-3.27,10.58-6.22,16.66-5.68,5.58.47,10.69,3.15,15.78,5.27,2.29.91,4.57,2.4,7.01,2.78,6.12-.08,12.3.16,18.41-.1,12.58-5.93,18.19-9.46,31.57-1.98,1.1.6,2.41,1.34,3.51,1.95,2.58.28,5.3.05,7.89.12,11.1,0,22.22,0,33.32,0"/><path class="b" d="M7.88,128.95h38.58c5.99-4.5,11.1-9.59,19.29-8.96,3.64.27,7.14,1.66,10.52,2.94,2.27.89,4.74,1.51,7.01,2.37,3.45,1.28,6.92,2.73,10.52,3.52,1.39.23,2.98.08,4.38.12,1.71,0,3.55,0,5.26,0,3.82-.69,7.31-2.73,10.52-4.84,14.01-9.96,19.86-4.98,31.57,4.84h38.58"/><path class="b" d="M7.88,124.19h39.46c9.71-9.31,15.16-11.71,28.06-6.49,3.42,1.26,7.14,1.73,10.52,3.11,3.43,1.24,6.92,2.63,10.52,3.31,1.4.15,2.98.05,4.38.08,7.82.82,13.33-5.64,19.29-9.57,5.33-3.62,10.65-3.53,15.78.41,3.48,2.68,6.71,5.86,9.64,9.12,12.85.11,25.73,0,38.58.04"/><path class="b" d="M7.88,119.43c11.39,0,22.8,0,34.2,0,8.64-.03,5.01.85,11.4-4.32,7.36-5.82,13.57-5.12,21.92-2.14,1.96.68,4.12,1.06,6.14,1.5,2.38.62,4.75,1.61,7.01,2.57,1.99.83,4.08,1.77,6.14,2.39,2.01,0,4.13,0,6.14,0,1.71,0,3.55,0,5.26,0,1.13,0,2.53.13,3.51-.55,4.46-2.46,7.87-6.53,12.28-9.08,9.86-5.99,16.35,3.6,22.8,9.63h39.46"/><path class="b" d="M7.88,114.67h40.33c7.18-6.61,13.92-9.9,23.67-6.79,2.01.57,4.11,1.29,6.14,1.8,1.41.34,3.01.57,4.38,1.05,2.7.9,5.32,2.25,7.89,3.45.71.46,1.81.53,2.63.49,1.4,0,2.98,0,4.38,0,4.37,0,8.79,0,13.15,0,6.88-4.52,13.72-14.28,22.8-8.54,3.38,2.09,6.12,5.19,8.77,8.11.71.53,1.8.44,2.63.43,1.1,0,2.41,0,3.51,0,11.98,0,23.97,0,35.95,0"/><path class="b" d="M7.88,109.91c11.68,0,23.39,0,35.07,0,2.03.32,3.67-1.23,5.26-2.26,2.15-1.51,4.55-2.91,7.01-3.83,5.05-2,10.69-1.5,15.78.09,3.45,1.1,6.99,2.14,10.52,2.96,2.4.76,4.71,2.04,7.01,3.05,7,0,14.04,0,21.04,0,3.41-2.31,6.29-5.45,9.64-7.82,9.35-7.03,15.95.59,21.92,7.62,1.66.42,3.56.12,5.26.21,3.19,0,6.45,0,9.64,0,9.34,0,18.71,0,28.06,0"/><path class="b" d="M7.88,104.09c1.41.34,2.97.72,4.38,1.06,2.31,0,4.71,0,7.01,0,4.66,0,9.37,0,14.03,0,1.11-.03,2.43.12,3.51-.18,1.74-.66,3.58-1.46,5.26-2.24,8.46-4.23,14.06-6.44,23.67-4.22,3.54.8,7.04,2.04,10.52,3.06,2.3.7,4.81,1.07,7.01,2.07,1.11.45,2.37,1.13,3.51,1.51,2.89,0,5.87,0,8.77,0,3.48,0,7.04,0,10.52,0,1.54-.82,3.04-2.11,4.38-3.21,3.45-2.87,6.54-6.4,10.52-8.57,9.17-5,15.81,5.9,21.04,11.78h42.09"/><path class="b" d="M7.88,97.58c2.98.62,5.99,1.53,8.77,2.8,4.37,0,8.79,0,13.15,0,1.84-.03,3.6-1.3,5.26-2,2.9-1.47,5.78-3.18,8.77-4.47,5.49-2.47,11.78-1.99,17.54-.8,5.32,1.11,10.52,2.88,15.78,4.22,1.71.45,3.61.79,5.26,1.45,1.42.47,2.89,1.41,4.38,1.61,4.95,0,9.95,0,14.91,0,6.32-3.77,10.89-9.84,16.66-14.31,10.83-8.64,18.35,5.62,24.55,12.77.57.79,1.55,1.78,2.63,1.54,1.41,0,2.98,0,4.38,0,3.48,0,7.04,0,10.52,0,7.88,0,15.79,0,23.67,0"/><path class="b" d="M7.88,90.77c2.07.24,4.22.75,6.14,1.56,2.03.87,3.96,2.27,6.14,2.79,9.43,2.47,16.82-5.87,25.43-7.93,4.37-.71,8.87.45,13.15,1.26,6.99,1.57,14,3.21,21.04,4.57,2.69.57,5.27,1.82,7.89,2.61,1.71,0,3.55,0,5.26,0,1.7-.12,3.69.35,5.26-.44,4.88-2.36,8.49-6.66,12.28-10.41,4.01-3.66,7.64-8.63,13.15-9.98,7.11-1.13,11.84,6.42,15.78,11.18,1.63,2.18,3.56,4.41,5.26,6.53.73.94,1.62,2.43,2.63,3.12h36.83"/><path class="b" d="M7.88,83.52c8.77-.6,9.93,5.51,20.17,4.41,4.52-.48,8.78-2.31,13.15-3.45,1.68-.43,3.53-.75,5.26-.73,2.33.1,4.72.66,7.01,1.04,4.92.93,9.92,1.78,14.91,2.28,4.36.51,8.84.61,13.15,1.51,3.99,1.03,8.08,2.73,12.28,2,5.76-.99,10.05-5.48,14.03-9.43,2.83-2.85,5.83-5.68,8.77-8.41,7.84-7.31,13.6-5.3,20.17,2.27,4.23,5.03,8.77,9.95,12.28,15.53,1.32.59,2.98.22,4.38.32,2.6,0,5.29,0,7.89,0,7.59,0,15.21,0,22.8,0"/><path class="b" d="M7.88,77.44c2.54-.72,5.39-.95,7.89.03,2.48,1.15,5.18,2.01,7.89,2.4,7.25,1.11,14.68-.44,21.92.82,4.7.97,9.27,2.75,14.03,3.47,4.91.86,9.95.71,14.91.42,2.3-.11,4.72-.21,7.01.03,3.76.44,7.63,1.21,11.4.49,7.01-1.28,12.19-6.68,17.54-10.96,5.59-3.96,10.88-10.68,18.41-9.88,4.53.67,8.15,3.94,11.4,6.92,4.92,4.16,8.65,9.53,12.28,14.8,3.76.32,7.63.04,11.4.13,6.71,0,13.46,0,20.17,0"/><path class="b" d="M7.88,73.04c6.2-2.7,7.19-1.2,13.15-.49,4.66.44,9.44.48,14.03,1.49,6.44,1.33,12.39,4.31,18.41,6.81,1.31.68,2.96.44,4.38.48,1.71,0,3.55,0,5.26,0,5.83,0,11.7,0,17.54,0,13.45-.38,18.89-4.64,29.81-11.17,5.77-2.89,11.04-7.26,17.54-8.43,6.03-1.12,11.98,1.74,16.66,5.34,4.72,4,8.34,9.2,12.28,13.93,1.03.54,2.39.28,3.51.33,2.01,0,4.13,0,6.14,0,5.83,0,11.7,0,17.54,0"/><path class="b" d="M7.88,70.16c2.22-.99,4.58-2.03,7.01-2.3,1.71-.08,3.55.08,5.26-.13,4.35-.47,8.88-1.01,13.15.23,5.49,1.47,10.04,5.1,14.91,7.86,1.24.97,2.91.77,4.38.77,2.01,0,4.13,0,6.14,0,6.42,0,12.87,0,19.29,0,2.9-.01,5.87.03,8.77-.02,2.96-1.22,5.91-2.69,8.77-4.14,4.01-2.03,8.06-4.16,12.28-5.74,2.54-.97,5.3-1.56,7.89-2.39,6.11-1.83,12.08-4.41,18.41-5.35,12.74-2.24,21,9.75,28.93,17.65h21.04"/><path class="b" d="M7.88,68.09c2.29-.81,4.64-1.83,7.01-2.37,2.35-.33,4.76-.82,7.01-1.58,11.05-3.86,16.32,1.19,24.55,7.63,11.39.14,22.8,0,34.2.05,2.3-.06,4.73.14,7.01-.11,1.11-.76,2.41-1.68,3.51-2.45,5.98-4.28,12.62-8.38,20.17-8.75,3.78-.2,7.65-.04,11.4-.61,5.75-.72,11.04-3.41,16.66-4.65,4.1-.75,8.47.16,12.28,1.75,3.98,1.77,7.4,4.7,10.52,7.69,1.42,1.37,2.98,2.94,4.38,4.33,1.06.9,2.1,2.47,3.51,2.8,4.66,0,9.37,0,14.03,0"/><path class="b" d="M7.88,65.59c2.04-.43,4.13-1.15,6.14-1.72,1.7-.48,3.61-.72,5.26-1.37,5.57-2.25,10.86-4.54,16.66-1.43,1.85.93,3.66,2.25,5.26,3.55,1.11.75,2.13,2.24,3.51,2.44,2.01,0,4.13,0,6.14,0,12.27,0,24.56,0,36.83,0,7.54-6.59,15.42-14.17,26.3-12.25,4.61.77,9.36,1.83,14.03.91,4.26-.73,8.18-2.76,12.28-4.03,1.66-.53,3.54-.66,5.26-.87,3.18-.42,6.55-.56,9.64.43,9,2.85,14.03,12.08,22.8,15.39.69.49,1.83.46,2.63.43,1.09,0,2.41,0,3.51,0"/><path class="b" d="M7.88,61.44c2.03-.1,4.14-.5,6.14-.86,2.34-.35,4.78-.72,7.01-1.52,8.54-3.03,12.94-1.94,20.17,3.24,14.32,0,28.65,0,42.96,0,4.62.09,3.77.22,7.01-2.91,2.72-2.61,5.58-5.25,8.77-7.29,11.91-7.56,17.49.37,28.93-.58,3.95-.37,7.68-1.98,11.4-3.23,1.37-.48,2.97-.79,4.38-1.11,2-.49,4.1-1.12,6.14-1.49,7.9-1.68,14.02,2.76,20.17,7.01,1.87,1.31,4.08,2.3,6.14,3.29,2.33,1.19,4.7,2.55,7.01,3.78"/><path class="b" d="M7.88,56.12c3.44.65,7.03.78,10.52.67,3.48-.23,7.03-.81,10.52-.47,2.07.09,4.11.94,6.14,1.21,6.42,0,12.87,0,19.29,0,7.59,0,15.21,0,22.8,0,4.06-.11,8.23.23,12.28-.15,6.13-6.57,13.8-14.51,23.67-12.36,3.86.87,7.5,2.74,11.4,3.48,4.74,1.05,9.62-.14,14.03-1.93,2.55-1.06,5.32-1.78,7.89-2.77,4.71-1.89,9.73-3.82,14.91-3.12,3.65.42,7.12,1.9,10.52,3.22,1.67.68,3.58,1.14,5.26,1.79,2.42.96,4.81,2.29,7.01,3.66"/><path class="b" d="M7.88,50.42c1.96.85,4.08,1.65,6.14,2.23,2.58.29,5.3.05,7.89.12,5.83,0,11.7,0,17.54,0,10.81,0,21.64,0,32.44,0,6.06-.11,12.4.22,18.41-.13,6.43-7.08,13.54-13.06,23.67-9.93,3.53,1.16,6.89,3,10.52,3.84,4.74,1.25,9.68.03,14.03-1.97,2.56-1.19,5.31-2.18,7.89-3.31,4.23-1.9,8.54-3.93,13.15-4.72,4.04-.75,8.22-.42,12.28.04,1.7.21,3.57.26,5.26.53,2.42.41,4.85,1.3,7.01,2.45"/><path class="b" d="M7.88,45.07c1.7.98,3.47,2.15,5.26,2.95,2.6,0,5.29,0,7.89,0,5.83,0,11.7,0,17.54,0,17.24,0,34.49,0,51.73,0,6.2-5.79,11.13-9.93,20.17-7.99,4.03.62,7.59,2.9,11.4,4.23,5.79,2.28,11.35,1.07,16.66-1.79,5.65-2.88,11.51-5.53,17.54-7.53,4.54-1.47,9.3-2.3,14.03-2.91,4.63-.53,9.42-1.92,14.03-.53"/><path class="b" d="M7.88,40.75c.8.51,1.84,1.24,2.63,1.77.5.38,1.13.75,1.75.74,3.19,0,6.45,0,9.64,0,7,0,14.04,0,21.04,0,8.47,0,16.96,0,25.43,0,4.66,0,9.37,0,14.03,0,1.71,0,3.55,0,5.26,0,.82,0,1.9.09,2.63-.35,2.97-2.73,6.45-5.35,10.52-6.06,2.61-.47,5.35-.06,7.89.6,2.04.53,4.22,1.06,6.14,1.97,3.66,1.53,7.28,4.1,11.4,3.84,2.31-.11,4.83.37,7.01-.54,5.44-2.11,10.16-5.81,15.78-7.57,6.84-2.45,14.07-3.63,21.04-5.61,4.71-1.13,9.12-3.78,14.03-3.95"/><path class="b" d="M7.88,38.11s.88.38.88.38h.88c1.11,0,2.4,0,3.51,0,3.19,0,6.45,0,9.64,0,9.34,0,18.71,0,28.06,0,7.59,0,15.21,0,22.8,0,3.48,0,7.04,0,10.52,0,4.55-.04,3.5.57,7.01-2.33,2.07-1.56,4.47-2.94,7.01-3.52,3.85-.93,7.79.31,11.4,1.61,1.74.58,3.64,1.18,5.26,2.06,1.42.67,2.88,1.72,4.38,2.18,4.07,0,8.2,0,12.28,0,1.4,0,2.98,0,4.38,0,.8,0,1.9.09,2.63-.33,3.6-2.16,7.33-4.29,11.4-5.44,6.34-1.92,13.01-2.78,19.29-4.93,2.36-.79,4.79-1.77,7.01-2.89,2.51-1.26,5.11-2.7,7.89-3.25"/><path class="b" d="M7.88,33.74c17.82,0,35.66,0,53.49,0,8.47,0,16.96,0,25.43,0,1.25-.45,2.38-1.6,3.51-2.28,1.86-1.23,3.98-2.32,6.14-2.87,5.67-1.52,11.27,1.16,16.66,2.62,1.78.67,3.57,1.68,5.26,2.53,4.66,0,9.37,0,14.03,0,2.6,0,5.29,0,7.89,0,1.53-.43,2.94-1.6,4.38-2.24,1.92-.95,4.07-1.69,6.14-2.24,6.09-1.55,12.48-2.04,18.41-4.21,5.19-1.62,9.51-5.49,14.91-6.5"/><path class="b" d="M7.88,28.98c17.82,0,35.66,0,53.49,0,8.47,0,16.96,0,25.43,0,1.25.07,2.38-1.04,3.51-1.46,1.91-.91,4.04-1.62,6.14-1.93,3.8-.59,7.67.2,11.4.91,1.99.44,4.16.39,6.14.88,1.44.37,3.01.97,4.38,1.54,1.09.08,2.41.04,3.51.05,6.42,0,12.87,0,19.29,0,.92.08,1.88-.7,2.63-1.12.74-.43,1.83-.94,2.63-1.26,2.77-1.11,5.82-1.63,8.77-1.97,5.33-.56,10.84-.99,15.78-3.22,4.33-1.93,8.17-5.51,13.15-5.53"/><path class="b" d="M7.88,24.22c25.72,0,51.44,0,77.16,0,2.3,0,4.71,0,7.01,0,1.71-.11,3.54-.4,5.26-.36,2.01,0,4.14.18,6.14.35,2.3.03,4.71,0,7.01.01,1.1-.02,2.4-.32,3.51-.26,1.71.13,3.54.34,5.26.26,7.59,0,15.21,0,22.8,0,1.23.19,2.47-.49,3.51-1.05,1.34-.61,2.94-1.09,4.38-1.36,4.32-.82,8.8-.47,13.15-.98,3.36-.37,6.73-1.38,9.64-3.1,3.56-2.39,6.8-4.86,11.4-4.14"/><path class="b" d="M7.88,19.45c29.81,0,59.63,0,89.43,0,14.02,0,28.06,0,42.09,0,2.6,0,5.29,0,7.89,0,2.55-.63,5.26-.94,7.89-.9,3.49,0,7.08.18,10.52-.51,2.45-.48,4.91-1.47,7.01-2.82,3.71-2.74,6.39-5.07,11.4-3.81"/></svg>