<?xml version="1.0" encoding="UTF-8"?><svg id="a" xmlns="http://www.w3.org/2000/svg" width="1920" height="2400" viewBox="0 0 192 240"><defs><style>.b{fill:none;stroke:#fff;stroke-miterlimit:10;stroke-width:.4px;}.c{stroke-width:0px;}</style></defs><rect class="c" width="192" height="240"/><path class="b" d="M8.25,226.69c2,0,4.11,0,6.11,0,3.41-.89,6.94-1.76,10.48-1.93,2.32-.1,4.74.17,6.99.74,1.72.36,3.44,1.36,5.24,1.19,9.01,0,18.05,0,27.07,0,4.35,0,8.75.01,13.1,0,2.88-.78,5.88-1.45,8.73-2.33,8.63-2.66,14.91-2.2,23.58-.27,3.28.45,6.49,1.48,9.6,2.55,5.8.17,11.66.01,17.46.06,2.65-.66,5.2-1.98,7.86-2.64,2.53-.66,5.25-.92,7.86-1.02,5.54-.2,11.24-.02,16.59-1.68,5.79-1.74,8.06-5.03,14.84-4.12"/><path class="b" d="M8.25,221.95c4.35,0,8.75,0,13.1,0,2.3-.17,4.66-.79,6.99-.74,2.63-.15,5.27.6,7.86.74,9.01,0,18.05,0,27.07,0,1.4,0,2.96,0,4.37,0,2.31-.58,4.67-1.4,6.99-1.97,3.69-1,7.59-1.18,11.35-1.83,6.36-1.08,12.9-.91,19.21.44,3.16.74,6.54.91,9.61,2.01,1.4.45,2.84,1.5,4.37,1.35,2.88,0,5.85,0,8.73,0,7.27,0,14.56,0,21.83,0,1.4,0,2.97,0,4.37,0,2.92-.64,5.89-1.49,8.73-2.42,3.27-1.09,6.53-2.45,9.6-4.01,3.68-2.17,7-3.35,11.35-2.44"/><path class="b" d="M8.25,217.21c15.71,0,31.44,0,47.15,0,.79,0,1.84,0,2.62-.02,1.41-.48,2.97-1.04,4.37-1.54,3.4-1.2,6.91-2.36,10.48-2.96,3.74-.72,7.59-.33,11.35-.01,5.85.43,11.71,1.3,17.46,2.43,4.32.89,8.76,1.44,13.1,2.1,4.06,0,8.17,0,12.22,0,9.01,0,18.05,0,27.07,0,2.29-.09,4.72.2,6.99-.16,1.41-.69,2.98-1.49,4.37-2.23,3.48-1.78,6.91-3.85,10.48-5.47,2.46-.98,5.26-1.16,7.86-.72"/><path class="b" d="M8.25,212.47c10.47,0,20.96,0,31.43,0,4.64,0,9.33,0,13.97,0,2.93-1.2,5.76-2.86,8.73-4,7.19-3.04,13.77-2.34,20.96.18,2.6.84,5.26,1.77,7.86,2.62,1.68.49,3.46,1.32,5.24,1.2,9.31,0,18.64,0,27.94,0,11.64,0,23.29,0,34.93,0,.76,0,1.85,0,2.62,0,1.84-.45,3.53-1.77,5.24-2.58,5.13-2.75,10.52-6.09,16.59-5.34"/><path class="b" d="M8.25,207.73c9.89,0,19.8,0,29.69,0,4.64-.03,9.33.06,13.97-.04,2.3-1.28,4.62-2.75,6.99-3.91,5.37-2.82,11.05-2.96,16.59-.54,2.03.84,4.14,1.8,6.11,2.76,1.39.56,2.8,1.86,4.37,1.73,9.01,0,18.05,0,27.07,0,12.8,0,25.62,0,38.42,0,3.47,0,7.01,0,10.48,0,7.25-2.21,13.97-7.06,21.83-6.73"/><path class="b" d="M8.25,202.99c9.6,0,19.22,0,28.81,0,4.35,0,8.75,0,13.1,0,2.39-1.11,4.59-2.81,6.99-3.92,4.04-2.14,8.94-2.47,13.1-.46,2.44,1.08,4.76,2.63,6.99,4.07,1.03.5,2.39.25,3.49.31,8.14,0,16.31,0,24.45,0,9.6,0,19.22,0,28.82,0,4.93,0,9.91,0,14.84,0,2.29-.02,4.69.04,6.99-.03,1.4-.21,2.97-.44,4.37-.67,3.8-.61,7.64-1.42,11.35-2.45,3.96-1.18,8.05-2.41,12.22-2.14"/><path class="b" d="M8.25,198.25c13.09,0,26.2,0,39.29,0,.89.14,1.9-.36,2.62-.82,1.09-.63,2.38-1.37,3.49-1.95,2.91-1.54,6.27-2.69,9.6-2.2,3.22.45,6.15,2.21,8.73,4.09,1.36,1.37,3.51.77,5.24.89,13.97,0,27.95,0,41.91,0,7.27,0,14.56,0,21.83,0,1.47-.42,2.9-1.41,4.37-1.86,1.93-.68,4.08-1.08,6.11-1.27,5.8-.49,11.67.12,17.46-.48,2.62-.19,5.26-.86,7.86-1.21,2.3-.25,4.74-.08,6.99.46"/><path class="b" d="M8.25,193.51c9.89,0,19.8,0,29.69,0,1.7,0,3.54,0,5.24,0,.78,0,1.84.02,2.62-.05.43-.25,1.31-.74,1.75-.97,9.32-4.96,14-5.45,22.7,1.02h65.49c11.17-8.52,15.35-7.93,28.81-7,3.77.29,7.59.12,11.35-.16,2.77.03,5.5,1.1,7.86,2.49"/><path class="b" d="M8.25,188.77c8.43,0,16.89,0,25.32,0,2.3,0,4.69,0,6.99,0,1.4-.05,2.99.14,4.37-.16,2.15-1.28,4.6-2.24,6.99-2.98,3.08-.97,6.51-1.18,9.6-.16,2.17.69,4.26,1.9,6.11,3.22,3.17.21,6.43.03,9.6.08,7.56,0,15.15,0,22.7,0,7.27,0,14.56,0,21.83,0,2.29,0,4.69,0,6.99,0,1.86-.11,3.9.53,5.24-1.14,10.07-9.22,16.07-11.25,29.69-10.07,4.05.38,8.18.49,12.22.79,3.02.6,5.63,2.6,7.86,4.63"/><path class="b" d="M8.25,184.02c11.93,0,23.87,0,35.8,0,1.7-.04,3.55.11,5.24-.1,2.53-.71,5.21-1.34,7.86-1.38,2.68-.11,5.34.67,7.86,1.48,6.68,0,13.4,0,20.08,0,15.13,0,30.28,0,45.41,0,2.37-1.56,4.6-4.16,6.99-5.89,7.34-6.08,14.89-8.88,24.45-8.72,4.37.03,8.78.48,13.1,1.11,3.59.84,6.33,3.73,8.73,6.35"/><path class="b" d="M8.25,179.28c27.07,0,54.14,0,81.21,0,10.76,0,21.55,0,32.31,0,10.4.02,5.68.71,13.97-5.13,5.67-3.98,11.57-7.98,18.34-9.8,6.8-1.91,14.12-1.86,20.96-.17,3.59,1.19,6.29,4.23,8.73,6.98"/><path class="b" d="M8.25,174.01l.87.54c27.07,0,54.14,0,81.21,0,10.47,0,20.96,0,31.43,0,1.7,0,3.54,0,5.24,0,2.08-1.03,4.06-2.54,6.11-3.63,2.56-1.47,5.29-2.86,7.86-4.32,4.4-2.72,8.97-5.34,13.97-6.79,6.76-2.03,14.28-2.2,20.96.23,3.05,1.43,5.55,3.95,7.86,6.35"/><path class="b" d="M8.25,166.9c.81.58,1.84,1.39,2.62,2,.48.42,1.1.87,1.75.9,2.88,0,5.85,0,8.73,0,6.97,0,13.98,0,20.96,0,20.08,0,40.17,0,60.25,0,7.27,0,14.56,0,21.83,0,2.82-1.53,5.78-3,8.73-4.25,2.6-1.13,5.34-2.22,7.86-3.52,3.61-2.07,7.31-4.19,11.35-5.32,7.06-2.14,14.72-2.03,21.83-.19,3.72.92,6.79,3.55,9.6,6.02"/><path class="b" d="M8.25,160.57c2.06,1.01,4.14,2.25,6.11,3.43.47.26,1.28.77,1.75,1.03.79.05,1.83.04,2.62.04,8.14,0,16.31,0,24.45,0,18.62,0,37.26,0,55.88,0,5.52,0,11.07,0,16.59,0,8.1.07,5.11.37,12.22-3.17,3.97-2.01,8.18-3.67,12.22-5.52,1.72-.77,3.49-1.84,5.24-2.55,2.2-.89,4.63-1.46,6.99-1.75,5.21-.6,10.52-.19,15.72.35,6.79.71,10,1.13,15.72,5.38"/><path class="b" d="M8.25,155.63c4.41,1.34,8.81,2.93,13.1,4.61,8.71.2,17.47,0,26.2.07,18.04,0,36.1,0,54.14,0,4.64,0,9.33,0,13.97,0,1.7,0,3.54.02,5.24-.01,1.71-.94,3.54-1.99,5.24-2.96,4.24-2.45,8.63-4.79,13.1-6.81,2.25-.98,4.55-2.24,6.99-2.7,4.62-.86,9.36.09,13.97.6,4.03.5,8.16.71,12.22.72,4.01-.28,7.96.97,11.35,3.08"/><path class="b" d="M8.25,151.95c5.19.99,10.52,1.27,15.72,2.21,2.32.34,4.66,1.16,6.99,1.42,2.88,0,5.85,0,8.73,0,5.22,0,10.49,0,15.72,0,1.15-.08,2.39-.72,3.49-1.01,1.66-.51,3.5-.9,5.24-1.01,2.32-.16,4.76.17,6.99.84,1.41.34,2.88,1.3,4.37,1.18,8.43,0,16.89,0,25.32,0,4.64,0,9.33,0,13.97,0,7-.04,5.2.71,11.35-2.98,5.34-3.23,10.67-6.7,16.59-8.79,3.06-1.14,6.48-.69,9.6-.05,4.29.91,8.68,1.89,13.1,1.71,7.3-.12,11.17-3.2,18.34.71"/><path class="b" d="M8.25,148.71c6.12.95,12.21-.86,18.34-.65,6.48-.03,12.75,2.32,19.21,2.23,6.67-.42,12.36-5.36,19.21-5,5.43.1,10.16,3.15,14.84,5.55,2.59,0,5.27,0,7.86,0,7.27,0,14.56,0,21.83,0,2.59,0,5.27,0,7.86,0,1.4-.11,3.08.3,4.37-.36,7.59-3.11,18.11-11.94,26.2-10.38,5.47,1,10.96,3.05,16.59,2.06,3.6-.51,7.04-1.95,10.48-3.07,2.9-.86,6.09-.2,8.73,1.16"/><path class="b" d="M8.25,144.4c4.47.59,8.79-.87,13.1-1.77,6.42-1.41,12.93-.03,19.21,1.4,3.78.85,7.84.85,11.35-.96,6.99-3.43,13.01-7.21,20.96-3.93,4.8,1.91,9.06,5.1,13.97,6.76,1.94.46,4.12.11,6.11.21,3.47,0,7.01,0,10.48,0,2.01.1,4.11-.33,6.11-.32,1.7.03,3.53.38,5.24.32,10.45,0,19.5-6.5,29.69-7.74,3.24-.08,6.44.98,9.6,1.52,2.85.52,5.89.6,8.73-.04,3.7-.8,7.11-2.66,10.48-4.31,3.21-1.87,7.17-1.97,10.48-.25"/><path class="b" d="M8.25,138.24c3.55.08,7.05-.78,10.48-1.61,2.56-.49,5.27-.58,7.86-.26,7.67.64,16.2,6.61,23.58,3.52,4.01-1.76,7.45-4.67,11.35-6.63,8.09-4.25,13.54-1.58,20.96,2.22,7.28,3.49,14.05,3.3,21.83,2.26,3.79-.55,7.62-.04,11.35.68,4.88.82,9.89,1.34,14.84,1.07,4.7-.16,9.33-1.24,13.97-1.87,2.9-.16,5.85.44,8.73.66,2.9.25,5.94.04,8.73-.82,3.74-1.13,7.14-3.25,10.48-5.21,3.49-2.3,7.34-3.33,11.35-1.64"/><path class="b" d="M8.25,131.64c2.01-.21,4.12-.48,6.11-.77,1.99-.31,4.09-.68,6.11-.46,9.91.92,19.67,9.42,29.69,4.56,5.88-2.95,10.88-7.89,17.46-9.32,6.74-1.62,11.96,1.98,18.34,3,7.21,1.23,14.59.35,21.83,1.16,6.59.48,12.22,4.29,18.34,6.39,1.33.58,2.96.39,4.37.42,2.29,0,4.69,0,6.99,0,1.7,0,3.54,0,5.24,0,2.52-.74,5.25-.82,7.86-.91,5.82,0,11.61-1.5,16.59-4.56,5.29-2.9,10.04-7.96,16.59-5.9"/><path class="b" d="M8.25,125.23c3.71-.48,7.67-1.03,11.35-.12,3.34.95,6.44,2.75,9.6,4.16,6.9,3.31,13.27,3.44,20.08-.13,8.49-4.54,15.14-9.13,25.32-7.77,2.3.23,4.68.73,6.99.89,2.29.13,4.69-.03,6.99-.14,3.77-.22,7.63-.2,11.35.46,4.43.83,8.84,2.17,13.1,3.63,2.46,1.1,4.76,2.75,6.99,4.26.42.3,1.32.89,1.75,1.18,1.05.39,2.4.2,3.49.24,9.01-.04,18.06.08,27.07-.05,4.51-.77,9.02-2.04,13.1-4.16,2.69-1.37,5.34-3.05,7.86-4.71,2.98-2.19,6.73-3.75,10.48-2.94"/><path class="b" d="M8.25,119.49c10.99-1.25,13.07,3.43,21.83,7.24,1.89.75,4.12.26,6.11.4,1.1,0,2.39,0,3.49,0,1.47-.47,3.02-1.21,4.37-1.95,9.73-6.06,15.42-8.39,27.07-6.51,2.86.39,5.83.85,8.73.63,2.34-.2,4.7-.88,6.99-1.38,11.2-2.73,15.82,2.46,25.32,6.15,1.51.67,3.04,1.71,4.37,2.7.71.44,1.82.36,2.62.35,7.85,0,15.73,0,23.58,0,3.18,0,6.43,0,9.6,0,3.83-.65,7.69-1.77,11.35-3.07,3.03-1.14,6.01-2.66,8.73-4.4,3.31-2.35,7.09-4.77,11.35-4.13"/><path class="b" d="M8.25,114.79c5.07-.1,10.01,1.81,13.97,4.91,1.38.89,2.78,2.18,4.37,2.69.47,0,1.29,0,1.75,0,3.76,0,7.59,0,11.35,0,1.98-.55,3.59-2.32,5.24-3.48,2.59-2.1,5.4-4.28,8.73-5,9.18-2.24,17.29,5.83,26.2,4.07,4.85-1.3,9.66-4.08,14.84-3.03,3.18.58,6.1,2.3,8.73,4.11,5.54,3.87,3.69,3.35,10.48,3.33,4.64,0,9.33,0,13.97,0,5.81,0,11.66,0,17.46,0,2.59,0,5.27,0,7.86,0,1.41-.22,2.96-.63,4.37-.9,4.8-.93,9.69-2.08,13.97-4.54,3.91-2.38,7.25-5.48,12.22-4.92"/><path class="b" d="M8.25,111.34c5.1.77,9.96,3,13.97,6.22,6.67.26,13.4.02,20.08.1,2.59-2,4.94-4.54,7.86-6.07,6.77-3.54,13.85.97,20.08,3.61,2.46,1.02,5.17,1.89,7.86,1.69,6.14-.97,10.75-5.06,17.46-2.77,1.49.49,3.05,1.31,4.37,2.15,1.03.72,2.14,1.62,3.49,1.4,12.8,0,25.62,0,38.42,0,4.35,0,8.75,0,13.1,0,2.9-.02,5.9.2,8.73-.55,3.02-.63,6.07-1.67,8.73-3.24,3.47-2.32,6.9-4.91,11.35-4.31"/><path class="b" d="M8.25,108.8c2.67.71,5.32,1.78,7.86,2.84,1.14.32,2.27,1.42,3.49,1.27,8.43-.11,16.91.21,25.32-.12,5.35-4.72,9.84-5.97,16.59-3.26,2.67.91,5.14,2.66,7.86,3.38,4.06,0,8.17,0,12.22,0,1.7,0,3.54,0,5.24,0,1.09-.26,2.38-.53,3.49-.63,1.72-.15,3.59.04,5.24.54,1.39.17,2.97.06,4.37.09,22.12,0,44.24,0,66.36,0,1.4,0,2.97.03,4.37-.03,4.79-1.96,7.27-5.03,13.1-4.13"/><path class="b" d="M8.25,106.01c2.32.6,4.62,1.81,6.99,2.16,5.52,0,11.07,0,16.59,0,4.93,0,9.91,0,14.84,0,2.34-1.51,5.01-2.77,7.86-2.59,2.71.09,5.39,1.04,7.86,2.12,1.28.74,2.95.41,4.37.48,12.51,0,25.04,0,37.55,0,20.95,0,41.92,0,62.87,0,3.18,0,6.43,0,9.6,0,2.28-.44,4.7-.36,6.99,0"/><path class="b" d="M8.25,102.13c1.7.43,3.5,1.04,5.24,1.3,1.7,0,3.54,0,5.24,0,4.35,0,8.75,0,13.1,0,5.22,0,10.49,0,15.72,0,1.17-.02,2.34-.84,3.49-1.01,1.39-.29,2.97-.3,4.37-.09,1.75.14,3.49,1.14,5.24,1.1,4.35,0,8.75,0,13.1,0,9.31,0,18.64,0,27.94,0,27.36,0,54.72,0,82.08,0"/><path class="b" d="M8.25,96.82c2.86.56,5.83.94,8.73,1.27,1.41.15,2.94.68,4.37.6,8.43,0,16.89,0,25.32,0,.82.02,1.88.02,2.62-.38,1.07-.35,2.37-.57,3.49-.58,2.05-.07,4.12.57,6.11.96.78,0,1.84,0,2.62,0,40.75,0,81.5,0,122.25,0"/><path class="b" d="M8.25,90.28c3.45.52,7.02.49,10.48.94,3.84.58,7.58,1.85,11.35,2.73,5.22,0,10.49,0,15.72,0,1.17-.11,2.39-.8,3.49-1.16,1.36-.43,2.94-.61,4.37-.55,2.66.12,5.33.88,7.86,1.66,3.17.13,6.43.02,9.6.05,10.18,0,20.38,0,30.56,0,20.95,0,41.92,0,62.87,0,2.59.08,5.27-.13,7.86-.21,1.09,0,2.42,0,3.49.21,2.59,0,5.27,0,7.86,0"/><path class="b" d="M8.25,83.39c3.74.67,7.62.62,11.35,1.28,4.7.9,9.26,2.6,13.97,3.47,4.02.77,8.3.82,12.22-.45,2-.65,3.98-1.79,6.11-1.95,6.31-.55,12.2,2.58,18.34,3.47,16.59,0,33.19,0,49.77,0,13.67,0,27.37,0,41.04,0,2.08.21,4.11-.69,6.11-1.1,2.83-.59,5.86-1.03,8.73-.58,1.48.31,3,1.05,4.37,1.68,1.08,0,2.41,0,3.49,0"/><path class="b" d="M8.25,77.79c4.03.56,8.18.47,12.22.91,4.66.46,9.32,1.32,13.97,1.8,3.46.34,7.06.42,10.48-.33,1.76-.33,3.49-1.23,5.24-1.61,3.84-.7,7.71.65,11.35,1.73,3.68,1.15,7.49,2.16,11.35,2.43,3.18.3,6.43-.1,9.6.02,1.73.1,3.58.45,5.24.98,1.07.4,2.32.88,3.49.75,9.01,0,18.05,0,27.07,0,13.97,0,27.95,0,41.91,0,1.09,0,2.4,0,3.49,0,.77-.21,1.85-.54,2.62-.77,2.54-.74,5.22-1.36,7.86-1.6,2.06-.24,4.22.38,6.11,1.14,1.09.38,2.31,1.21,3.49,1.23"/><path class="b" d="M8.25,73.56c6.69.63,13.41-.23,20.08-.72,4.64-.31,9.33.08,13.97,0,2.35-.01,4.73-.49,6.99-1.09,4.27-.6,8.3,1.6,12.22,2.93,6.91,2.68,12.09,2.24,19.21,1.25,2.63-.22,5.38.19,7.86,1.08,1.78.63,3.61,1.54,5.24,2.48,1.34.46,2.97.17,4.37.25,2.29,0,4.69,0,6.99,0,19.5,0,39.01,0,58.5,0,1.09,0,2.4.02,3.49-.02,1.09-.32,2.4-.7,3.49-1.02,5.28-1.72,7.69-1.73,13.1-.15"/><path class="b" d="M8.25,70.37c3.75.32,7.67.14,11.35-.66,4.06-1.06,8.04-2.71,12.22-3.23,4.34-.65,8.75.12,13.1.29,1.72.12,3.53-.38,5.24-.29,4.67.56,8.64,3.56,13.1,4.87,6.21,2.14,11.44.12,17.46-1.23,3.18-.58,6.55-.24,9.6.79,2.07.68,4.17,1.66,6.11,2.64,1.09.47,2.27,1.4,3.49,1.45,2,0,4.11,0,6.11,0,3.17-.06,6.44.14,9.6-.1,3.84-1.63,8.03-2.66,12.22-2.6,5.33,0,10.49,1.7,15.72,2.49,2.56.43,5.28.11,7.86.21,6.39,0,12.82,0,19.21,0,1.81-.2,3.5-1.36,5.24-1.86,2.51-.76,5.27-.71,7.86-.47"/><path class="b" d="M8.25,67.63c3.44.57,7.12.37,10.48-.55,4.14-1.4,7.93-3.89,12.22-4.84,4.34-1.1,8.82-.1,13.1.79,2.57.63,5.37-.03,7.86.97,4.89,1.87,9.4,5.37,14.84,5.39,4.99.13,9.34-2.74,13.97-4.12,5.16-1.61,10.7-.77,15.72.95,3.12.98,6.3,2.23,9.6,2.37,3.28.29,5.92-1.72,8.73-3.03,3.25-1.49,6.89-2.37,10.48-2.26,4.5.1,8.85,1.6,13.1,2.95,2.25.78,4.71,1.17,6.99,1.86,1.73.56,3.56,1.33,5.24,2.04.76.12,1.85.09,2.62.09,6.39,0,12.82,0,19.21,0,0,0,.87-.03.87-.03l.87-.48c.72-.45,1.83-.99,2.62-1.31,2.18-.86,4.65-1.21,6.99-1.27"/><path class="b" d="M8.25,64.53c3.65,1.09,7.78,1.01,11.35-.36,5.65-2.46,11.01-5.86,17.46-4.47,2.95.52,5.81,1.74,8.73,2.38,1.39.33,2.98.18,4.37.49,2.11.51,4.16,1.57,6.11,2.48,1.54.84,3.55.32,5.24.46,3.18,0,6.43,0,9.6,0,1.24.17,2.46-.69,3.49-1.25,1.39-.79,2.93-1.71,4.37-2.41,7.07-3.48,13.55-2.75,20.96-1.08,3.13.6,6.54,1.04,9.6-.12,1.78-.71,3.47-1.97,5.24-2.71,4.06-1.89,8.75-2.33,13.1-1.29,3.91.87,7.62,2.61,11.35,4.01,2.24.9,4.77,1.29,6.99,2.27,1.73.73,3.55,1.66,5.24,2.49,2.57.25,5.27.04,7.86.11,4.35,0,8.75,0,13.1,0,.48.04,1.38-.32,1.75-.65.72-.5,1.82-1.12,2.62-1.49,2.15-.98,4.63-1.43,6.99-1.48"/><path class="b" d="M8.25,59.68c1.92.92,4.01,1.22,6.11,1.08,1.4-.06,3,.17,4.37-.2,2.92-.77,5.77-2.05,8.73-2.68,4.09-.98,8.36-.22,12.22,1.27,1.4.51,2.94,1.11,4.37,1.55,2.88.14,5.85.02,8.73.06,5.81,0,11.66,0,17.46,0,1.1,0,2.4,0,3.49,0,1.45-.81,2.94-1.91,4.37-2.76,2.65-1.59,5.67-2.78,8.73-3.24,4.09-.63,8.26.25,12.22,1.22,4.29,1.1,9.2,1.94,13.1-.72,5.82-3.4,12.75-4.26,19.21-2.31,4.13,1.12,8.1,2.91,12.22,4.03,3.02.92,5.8,2.64,8.73,3.77,5.22,0,10.49,0,15.72,0,1.76-.04,3.76.33,5.24-.88,3.02-2.18,6.74-3.41,10.48-3.02"/><path class="b" d="M8.25,53.36c7.66,4.24,13.95.03,21.83.78,2.05.19,4.16.69,6.11,1.32,1.36.62,2.91.61,4.37.56,9.89,0,19.8,0,29.69,0,.78,0,1.84,0,2.62,0,1.49-.67,2.97-1.75,4.37-2.58,3.64-2.3,7.85-4.09,12.22-3.99,5.18.03,9.91,2.51,14.84,3.74,4.82,1.27,7.1-.44,11.35-2.14,6.87-2.8,14.53-3.85,21.83-2.27,2.64.56,5.38,1.24,7.86,2.31,3.25,1.44,6.35,3.37,9.6,4.8,2.86.33,5.85.05,8.73.14,2.29,0,4.69,0,6.99,0,1.58-.07,3.01-1.32,4.37-2.03,2.6-1.52,5.75-2.12,8.73-1.79"/><path class="b" d="M8.25,47.33c5.85,3.43,10.32,2.16,16.59,2.58,2.64.16,5.3.74,7.86,1.36,7.27,0,14.56,0,21.83,0,5.22,0,10.49,0,15.72,0,2.47-.42,4.74-2,6.99-3.05,3.52-1.9,7.29-3.76,11.35-3.96,5.91-.41,11.17,2.8,16.59,4.59,1.65.51,3.52.85,5.24.61,2.64-.56,5.28-1.54,7.86-2.35,7.02-2.25,14.33-5.23,21.83-4.09,4.49.7,8.35,3.39,12.22,5.57,1.07.62,2.38,1.32,3.49,1.86.4.21,1.33.6,1.75.78.41.02,1.33.04,1.75.04,2.59,0,5.27,0,7.86,0,1.69-.06,3.57.16,5.24-.15,1.43-.65,2.92-1.6,4.37-2.21,2.17-.92,4.63-1.39,6.99-1.32"/><path class="b" d="M8.25,42.62c2.16,1.19,4.54,2.22,6.99,2.62,1.7.23,3.54.24,5.24.45,1.72.18,3.55.48,5.24.82,1.7.05,3.54.01,5.24.03,5.22,0,10.49,0,15.72,0,4.35,0,8.75,0,13.1,0,4.72.2,9.47-.35,13.97-1.82,4.77-1.4,9.08-4.25,13.97-5.26,3.47-.76,7.14-.33,10.48.8,7.83,2.7,9.58,5,18.34,3.01,4.14-.79,8.21-2.13,12.22-3.39,3.92-1.19,8.1-2.4,12.22-1.69,4.49.93,8.28,3.86,12.22,6.05,1.07.62,2.38,1.32,3.49,1.86.34.26,1.31.51,1.75.44,4.93,0,9.91,0,14.84,0,1.49-.39,2.93-1.41,4.37-1.95,1.91-.81,4.05-1.45,6.11-1.7"/><path class="b" d="M8.25,39.41c1.64.89,3.45,1.76,5.24,2.3,3.17.22,6.43.03,9.6.09,6.68,0,13.4,0,20.08,0,4.35,0,8.75,0,13.1,0,1.7-.2,3.53-.46,5.24-.56,4.35-.29,8.81-.29,13.1-1.16,5.25-.92,9.77-4.07,14.84-5.54,4.28-1.33,8.9-.85,13.1.56,2.84.87,5.73,2.06,8.73,2.24,4.35.17,8.78.24,13.1-.37,4.36-.54,8.69-1.75,13.1-1.91,6.53-.34,11.74,4.37,17.46,6.74,6.68,0,13.4,0,20.08,0,2.86-1.31,5.69-2.94,8.73-3.8"/><path class="b" d="M8.25,37.05c15.42,0,30.86,0,46.28,0,4.06,0,8.17,0,12.22,0,4.4.11,8.93-.06,13.1-1.65,3.92-1.51,7.44-4.03,11.35-5.56,5.46-2.37,11.02-1.59,16.59-.13,3.45.74,7.05.95,10.48,1.84,3.44.76,6.97,1.44,10.48,1.78,3.47.36,7.03.42,10.48.98,2.72.41,5.35,1.53,7.86,2.61,1.38.23,2.97.08,4.37.12,7.56,0,15.15,0,22.7,0,1.59.25,3.04-.79,4.37-1.51,1.66-.91,3.49-1.86,5.24-2.58"/><path class="b" d="M8.25,32.31c16.88,0,33.77,0,50.64,0,4.93,0,9.91,0,14.84,0,1.7,0,3.54,0,5.24,0,1.1-.04,2.43.13,3.49-.21,4.14-2.33,7.86-5.51,12.22-7.44,4.35-2.07,9.32-2.07,13.97-1.22,2.65.34,5.4.69,7.86,1.81,5.25,2.25,10.25,5.23,15.72,6.98,6.96.22,13.98.01,20.96.08,5.81,0,11.66,0,17.46,0,1.7,0,3.54,0,5.24,0,.79,0,1.9.09,2.62-.33,1.66-.97,3.49-2,5.24-2.81"/><path class="b" d="M8.25,27.57c17.75,0,35.51,0,53.26,0,5.22,0,10.49,0,15.72,0,2.88-.11,5.89.24,8.73-.17,3.62-2.68,7.17-5.71,11.35-7.49,3.54-1.56,7.56-1.75,11.35-1.22,2.37.25,4.87.56,6.99,1.74,3.69,1.91,7,4.6,10.48,6.86,1.03.45,2.39.23,3.49.28,1.4,0,2.97,0,4.37,0,4.35,0,8.75,0,13.1,0,7.85,0,15.73,0,23.58,0,2.59,0,5.27,0,7.86,0,1.08-.01,2.41.04,3.49-.06.39-.23,1.34-.68,1.75-.9"/><path class="b" d="M8.25,21.16c1.39.55,2.81,1.8,4.37,1.67,3.18,0,6.43,0,9.6,0,7.56,0,15.15,0,22.7,0,1.1-.02,2.4.06,3.49-.08,1.09-.23,2.39-.3,3.49-.23,2.28.36,4.68.33,6.99.31,2.88,0,5.85,0,8.73,0,4.35,0,8.75,0,13.1,0,1.4,0,2.97,0,4.37,0,.8,0,1.88.08,2.62-.29,3.24-2.29,6.63-4.66,10.48-5.8,3.38-1.04,7.03-.84,10.48-.28,2.38.31,4.89.61,6.99,1.89,1.47.81,3.01,1.87,4.37,2.85,1,.71,2.16,1.85,3.49,1.62,6.39,0,12.82,0,19.21,0,13.67,0,27.37,0,41.04,0"/><path class="b" d="M8.25,13.31c12.34,6.03,6.04,4.66,20.08,4.78,2.3,0,4.69,0,6.99,0,1.4-.12,3.11.34,4.37-.41,2.52-1.18,5.11-2.54,7.86-3.12,3.29-.69,6.63.55,9.6,1.85,1.41.5,2.84,1.62,4.37,1.68,6.97,0,13.98,0,20.96,0,1.4,0,2.97,0,4.37,0,1.14-.37,2.38-1.1,3.49-1.56,3.79-1.74,8.11-2.45,12.22-1.65,2.02.35,4.12.95,6.11,1.43,1.38.37,2.99.48,4.37.86,1.09.31,2.31,1.07,3.49.93,6.97,0,13.98,0,20.96,0,15.42,0,30.86,0,46.28,0"/></svg>