<?xml version="1.0" encoding="UTF-8"?><svg id="a" xmlns="http://www.w3.org/2000/svg" width="1920" height="2400" viewBox="0 0 192 240"><defs><style>.b{fill:none;stroke:#fff;stroke-miterlimit:10;stroke-width:.4px;}.c{stroke-width:0px;}</style></defs><rect class="c" width="192" height="240"/><path class="b" d="M8.23,215.15c9.18,3.06,12.81,8.83,19.21,15.24,1.37.35,2.97.13,4.37.19,2.59,0,5.27,0,7.86,0,7.27,0,14.57,0,21.83,0,20.96,0,41.93,0,62.88,0,5.34-3.91,10.42-7.9,17.47-7.46,2.93.11,5.83,1.02,8.73,1.32,3.61.44,7.33-.44,10.48-2.24,3.95-2.13,7.29-5.41,11.35-7.34,1.33-.62,2.97-.77,4.37-1.16,2.31-.64,4.66-1.54,6.99-2.11"/><path class="b" d="M8.23,213.55c3.42,1.24,6.71,3.07,9.61,5.26,2.77,2.11,5.07,4.97,7.86,7.03,33.19,0,66.38,0,99.56,0,.94.2,1.91-.6,2.62-1.12,1.06-.74,2.36-1.57,3.49-2.18,3.43-1.92,7.42-2.9,11.35-2.76,4.35.18,8.8,1.43,13.1.18,6.73-1.69,11.24-7.65,17.47-10.32,3.47-.81,6.97-1.88,10.48-2.5"/><path class="b" d="M8.23,211.99c3.35,1.39,6.6,3.25,9.61,5.27,1.13.79,2.41,1.81,3.49,2.66.74.57,1.62,1.38,2.62,1.18,13.68,0,27.37,0,41.05,0,19.21,0,38.43,0,57.64,0,1.7-.03,3.55.08,5.24-.07.75-.52,1.83-1.2,2.62-1.66,5.47-3.34,12.08-3.95,18.34-3.34,4.25.31,8.58-.67,12.23-2.89,4.23-2.38,7.76-6.03,12.23-7.98,3.36-1.02,6.95-1.77,10.48-1.75"/><path class="b" d="M8.23,209.3c3.3,1.45,6.5,3.28,9.61,5.1.8.49,1.84,1.18,2.62,1.69,1.63.54,3.55.16,5.24.27,13.68,0,27.37,0,41.05,0,20.37,0,40.76,0,61.14,0,1.23.17,2.41-.84,3.49-1.29,1.35-.64,2.93-1.23,4.37-1.64,2.82-.77,5.82-1.19,8.73-1.46,2.59-.12,5.27.13,7.86-.07,3.72-.24,7.33-1.64,10.48-3.59,7.3-4.6,11.36-9.33,20.96-7.7"/><path class="b" d="M8.23,205.12c4.18,1.75,8.31,3.82,12.23,6.1.76.5,1.77.41,2.62.4,1.1,0,2.39,0,3.49,0,5.81,0,11.66,0,17.47,0,2.3,0,4.69,0,6.99,0,1.41-.13,2.95-.47,4.37-.51,2.03-.17,4.11.32,6.11.51,2.3,0,4.69,0,6.99,0,13.68,0,27.37,0,41.05,0,4.64,0,9.33,0,13.97,0,2,0,4.12,0,6.11,0,1.11-.26,2.38-.78,3.49-1.05,2.54-.68,5.26-.99,7.86-1.35,1.4-.2,2.95-.55,4.37-.62,2.88-.14,5.86.12,8.73-.24,3.73-.42,7.31-1.97,10.48-3.93,6.16-3.85,11.41-8.63,19.21-6.02"/><path class="b" d="M8.23,199.89c3.57,1.08,7.11,2.58,10.48,4.18,1.43.75,2.97,1.69,4.37,2.51.77.37,1.8.3,2.62.29,9.02,0,18.06,0,27.07,0,3.4-.82,6.99-1.59,10.48-.78.8.16,1.85.46,2.62.73,1.1.09,2.4.05,3.49.06,18.05,0,36.1,0,54.15,0,2.29-.06,4.71.14,6.99-.11,2.87-.4,5.85-.29,8.73-.37,2.02.01,4.11-.55,6.11-.7,2-.11,4.12.03,6.11.02,15.23.43,20.21-13.98,32.31-9.58"/><path class="b" d="M8.23,194.78c3.57.5,7.18,1.54,10.48,3.01,2.41,1.22,4.72,2.85,6.99,4.3,9.3.11,18.64,0,27.95.04,1.16-.16,2.38-.87,3.49-1.23,1.93-.69,4.06-1.18,6.11-1.22,2.36-.06,4.78.47,6.99,1.27,1.39.48,2.84,1.37,4.37,1.18,12.51,0,25.04,0,37.55,0,2,0,4.12,0,6.11,0,3.11-.82,6.38-1.39,9.61-1.16,2.63.07,5.26.94,7.86,1.16,6.98,0,13.99,0,20.96,0,5.45-.13,11.07-5.16,15.72-7.76,3.34-2.14,7.57-2.79,11.35-1.49"/><path class="b" d="M8.23,190.25c7.36-.89,11.67,1.43,17.47,5.44.78.5,1.82,1.18,2.62,1.65,1.4.08,2.96.03,4.37.04,6.1,0,12.24,0,18.34,0,3.22-1.57,6.21-3.8,9.61-5.04,7.62-3.09,13.71.74,20.96,2.63,2.88.81,5.67,2.64,8.73,2.4,4.06,0,8.17,0,12.23,0,2.3-.66,4.65-1.56,6.99-2.09,2.27-.45,4.69-.59,6.99-.79,5.97-.58,11.86.97,17.47,2.88,7.27.02,14.57,0,21.83,0,1.7,0,3.54,0,5.24,0,3.75-.8,7.08-3.17,10.48-4.86,3.66-2.13,8.04-3.26,12.23-2.22"/><path class="b" d="M8.23,186.73c7.87-3.06,12.52.22,19.21,3.82,1.91.87,3.95,2.19,6.11,2.09,3.18,0,6.43,0,9.61,0,5.28-.82,9.67-4.3,13.97-7.23,3.82-2.62,8.37-4.71,13.1-4.18,2.67.24,5.31,1.12,7.86,1.89,3.88.92,7.58,2.58,11.35,3.85,5.73,2.06,11.57,1.62,17.47.72,3.77-.52,7.64.04,11.35.76,5.04.99,9.9,2.86,14.85,4.2,5.81.01,11.66,0,17.47,0,2.88-.02,5.85.03,8.73-.02,2.33-.24,4.74-.75,6.99-1.42,5.71-1.69,11.33-4.81,17.47-3.89"/><path class="b" d="M8.23,184.37c13.37-7.2,18.93,7.15,35.81-.17,2.02-.87,4.21-1.68,6.11-2.78,3.05-1.88,5.79-4.37,8.73-6.41,5.09-3.73,10.47-5.11,16.59-3.22,2.91.85,5.94,1.6,8.73,2.8,6.11,2.73,12.47,5.17,19.21,5.62,2.6.26,5.31.45,7.86,1.06,3.88.99,7.61,2.65,11.35,4.03,2.81,1.04,5.77,1.99,8.73,2.47,1.98.26,4.12.06,6.11.12,3.6.11,6.92-1.84,10.48-2.14,5.2-.65,10.5-.24,15.72-.56,2.9-.16,5.88-.52,8.73-1.11,3.71-.85,7.52-1.79,11.35-1.61"/><path class="b" d="M8.23,182.77c2.94-1.53,6.25-2.71,9.61-2.59,5.8.32,11.77,1.71,17.47-.15,4.62-1.31,8.74-3.97,13.1-5.89,4.24-2.08,7.53-5.73,11.35-8.44,3.71-2.81,8.39-4.73,13.1-3.88,4.51.87,8.97,2.4,13.1,4.4,4.27,2.08,8.59,4.24,13.1,5.76,4.02,1.41,8.26,2.33,12.23,3.9,9.04,4,15.6,9.62,26.2,6.39,2.99-.86,5.81-2.4,8.73-3.42,3.63-1.26,7.52-1.89,11.35-2.03,4.64-.19,9.33.3,13.97.05,4.08-.26,8.12-1.39,12.23-1.41"/><path class="b" d="M8.23,178.42c4.07.03,8.18.05,12.23-.35,4.12-.15,8.35-.55,12.23-2.06,5.3-1.94,9.82-5.52,14.85-8.01,9.78-4.51,15.08-16.93,27.95-13.12,7.47,2.01,13.98,6.35,20.96,9.54,4.55,2.14,9.4,3.72,13.97,5.8,2.41,1.09,4.73,2.6,6.99,3.98,2.97,1.81,6.16,3.56,9.61,4.2,1.7.05,3.54.02,5.24.03,4.43-.6,8.32-3.14,12.23-5.14,4.1-2.15,8.5-3.97,13.1-4.7,4.89-.85,9.91-.34,14.85-.45,3.79-.14,7.57-1.05,11.35-1.19"/><path class="b" d="M8.23,173.67c6.1-.01,12.24.03,18.34-.02,7.44-1.6,13.52-6.39,20.09-9.91,8.7-3.33,13.74-13.65,23.58-14.43,7.02-.23,14.6,4.71,20.96,7.47,6.79,3.34,14.26,5.17,20.96,8.68,4.89,2.6,10.93,8.46,16.59,8.21,2-.04,4.12.1,6.11-.08,1.77-.49,3.61-1.29,5.24-2.13,5.81-3.03,11.3-6.81,17.47-9.08,5.28-2.06,11-2.61,16.59-3.13,3.19-.34,6.4-1.06,9.61-1.27"/><path class="b" d="M8.23,168.93c5.23,0,10.5,0,15.72,0,.89.15,1.84-.43,2.62-.76,1.42-.64,2.98-1.41,4.37-2.13,5.02-2.58,9.71-5.87,14.85-8.2,2.01-.85,4.26-1.45,6.11-2.65,4.85-2.92,9.27-6.91,14.85-8.41,5.98-1.74,11.88,1,17.47,2.86,8.46,2.92,17.35,4.9,25.33,9.05,4.06,2.08,7.55,5.18,11.35,7.67,1.62.95,3.35,2.29,5.24,2.57,3.47,0,7.01,0,10.48,0,.42,0,1.33,0,1.75,0,1.16-.21,2.42-.86,3.49-1.33,5.27-2.34,10.01-5.75,14.85-8.85,4.14-2.66,8.45-5.24,13.1-6.89,2.22-.83,4.67-1.23,6.99-1.71,2.28-.51,4.66-1.11,6.99-1.38"/><path class="b" d="M8.23,164.19c2.89,0,5.85,0,8.73,0,1.67-.13,3.69.34,5.24-.33,6.77-4.44,13.32-9.53,20.96-12.43,2.5-1.02,5.28-1.29,7.86-2.02,7.11-2.34,14.11-6.16,21.83-5.49,3.54.15,6.99,1.31,10.48,1.83,4.66.65,9.44.94,13.97,2.28,5.03,1.42,9.71,4,13.97,6.98,3.09,1.93,10.93,9.25,13.97,9.18,4.93,0,9.91,0,14.85,0,9.36.69,21.05-12.77,28.82-17.67,2.34-1.66,5.12-2.65,7.86-3.4,2.27-.75,4.63-1.6,6.99-2.03"/><path class="b" d="M8.23,159.45c2.3,0,4.69,0,6.99,0,1.77,0,3.04.27,4.37-1.14,7.88-6.76,15.97-14.73,27.07-14.65,7.62.19,15.14-1.39,22.71-2.05,2.58-.22,5.27-.31,7.86-.19,1.7.07,3.53.37,5.24.31,7.57-.46,13.19-1.25,20.09,2.88,5.03,2.96,9.35,7.04,13.97,10.58,1.9,1.45,3.99,2.9,6.11,4,1.04.42,2.39.21,3.49.26,6.98,0,13.99,0,20.96,0,3.21-.54,6.12-2.53,8.73-4.38,5.63-4.14,10.05-9.78,15.72-13.86,1.54-1.13,3.51-1.81,5.24-2.57,2.25-1.01,4.59-2.14,6.99-2.75"/><path class="b" d="M8.23,154.71c1.99-.12,4.18.28,6.11-.24,1.08-.97,2.39-2.06,3.49-3,6.4-5.62,12.64-13.39,21.83-13.71,3.22-.13,6.45.63,9.61,1.11,5.75,1.01,11.68,1.37,17.47.49,3.19-.43,6.41-1.12,9.61-1.53,2.89-.32,5.9-.28,8.73-1.05,8.81-2.32,14.29-.31,20.96,5.62,3.96,3.34,12.39,12.21,17.47,12.31,7.85,0,15.73,0,23.58,0,1.7,0,3.54,0,5.24,0,2.54-.76,4.9-2.3,6.99-3.9,4.35-3.38,7.95-7.72,12.23-11.19,1.52-1.29,3.5-2.18,5.24-3.13,2.23-1.25,4.55-2.64,6.99-3.44"/><path class="b" d="M8.23,149.96h1.75c4.39-3.67,8.67-7.6,13.1-11.24,5.91-4.97,11.68-7.16,19.21-4.45,5.33,1.88,10.89,3.6,16.59,3.57,7.61.13,14.38-4.1,21.83-4.86,2.64-.44,5.24-1.44,7.86-1.97,5.97-1.44,11.36,1.2,15.72,5.14,5.9,5.11,11.24,12.04,19.21,13.81,4.06,0,8.17,0,12.23,0,1.7-.02,3.53-.33,5.24-.19,3.45.38,7.01.12,10.48.19,1.99-.09,4.16.22,6.11-.19.8-.38,1.88-.97,2.62-1.45,4.15-2.68,7.56-6.42,11.35-9.54,1.55-1.34,3.52-2.37,5.24-3.46,2.22-1.43,4.52-3.02,6.99-4"/><path class="b" d="M8.23,142.65c6.16-4.2,11.98-9.48,19.21-11.75,4.74-1.41,9.69.08,13.97,2.19,5.08,2.65,10.79,4.69,16.59,3.73,6.35-.91,11.71-4.76,17.47-7.3,2.18-1.05,4.68-1.31,6.99-1.91,2.57-.73,5.19-1.69,7.86-2.03,6.48-1,12.1,3.22,16.59,7.37,6.1,5.8,12.92,11.34,21.83,10.97,3.48-.02,7-.7,10.48-.58,2.72-.03,5.27,1.26,7.86,1.88,4.35-.06,8.76.11,13.1-.07,4.25-2.01,7.71-5.37,11.35-8.27,1.59-1.32,3.52-2.45,5.24-3.58,2.19-1.44,4.51-2.98,6.99-3.89"/><path class="b" d="M8.23,133.5c12.46-6.69,19.49-8.59,32.31-1.34,5.07,2.85,10.7,5.29,16.59,3.65,6.95-1.79,12.24-7.04,18.34-10.51,2.12-1.3,4.64-1.81,6.99-2.52,2.27-.74,4.63-1.62,6.99-2.06,7.05-1.59,13.2,2.73,18.34,7.02,5.75,4.96,12.33,8.52,20.09,8.64,3.47.16,7.03-.12,10.48.31,1.76.22,3.63.72,5.24,1.48,1.71.71,3.44,1.85,5.24,2.32,4.06,0,8.17,0,12.23,0,.41,0,1.33,0,1.75,0,.81-.38,1.88-1.04,2.62-1.55,1.45-.99,3-2.21,4.37-3.31,4.17-3.31,8.67-6.81,13.97-7.96"/><path class="b" d="M8.23,125.05c11.47-4.28,20.3-.12,30.57,4.9,4.9,2.28,10.16,4.9,15.72,4.19,7.84-1.04,13.71-6.95,20.09-11.08,3.41-2.36,7.56-3.3,11.35-4.87,6.61-2.61,12.39-1.82,18.34,1.95,10.71,7.19,14.13,8.58,27.07,10.09,3.25.44,6.58,1.08,9.61,2.38,1.79.77,3.58,1.89,5.24,2.9.73.29,1.84.23,2.62.23,5.81,0,11.66,0,17.47,0,5.39-3.81,10.35-9.68,17.47-9.71"/><path class="b" d="M8.23,117.7c2.57-.39,5.31-.48,7.86.13,4.88,1.33,9.38,3.86,13.97,5.92,5.02,2.34,10.32,4.17,15.72,5.37,3.68.92,7.57,1.58,11.35.91,6.82-1.1,12.49-5.38,18.34-8.74,2.17-1.31,4.66-2.21,6.99-3.21,2.82-1.25,5.71-2.62,8.73-3.31,7.78-2.01,14.25,2.36,20.96,5.51,5.86,2.55,12.27,3.54,18.34,5.43,2.66.82,5.37,1.86,7.86,3.12,1.44.6,2.83,1.86,4.37,2.18,9.02,0,18.06.01,27.07,0,3.85-3.49,8.43-7.22,13.97-6.57"/><path class="b" d="M8.23,111.34c4.59-.24,8.47,1.65,12.23,4.04,3.36,2.01,6.81,4.06,10.48,5.45,4.99,2.01,10.44,2.21,15.72,2.81,5.45.96,11.05,2.22,16.59,1.23,4.26-.66,8.33-2.36,12.23-4.14,2.57-1.21,5.32-2.28,7.86-3.57,4.36-2.21,8.98-4.51,13.97-4.54,5.55-.13,10.6,2.57,15.72,4.32,5.55,1.81,11.3,3.2,16.59,5.72,2.06.96,4.18,2.1,6.11,3.28,1.31.57,2.97.21,4.37.31,2.59,0,5.27,0,7.86,0,8.43,0,16.89,0,25.33,0,3-2.28,6.64-3.92,10.48-3.64"/><path class="b" d="M8.23,105.38c4.2.12,7.98,2.11,11.35,4.46,3.31,2.14,6.75,4.29,10.48,5.62,2.78,1.01,5.79,1.52,8.73,1.65,3.18.17,6.46-.04,9.61.54,4.66.91,9.22,2.57,13.97,3.02,9.4,1.1,18.09-3.43,26.2-7.55,8.85-4.27,14.88-2.53,23.58.69,4.38,1.42,8.9,2.69,13.1,4.61,7.33,3.36,3.7,3.17,12.23,3.08,9.31,0,18.64,0,27.95,0,4.35,0,8.75,0,13.1,0,1.72-.26,3.49-1.03,5.24-1.18"/><path class="b" d="M8.23,98.81c4.73-.02,8.54,2.41,12.23,5.08,3.3,2.26,6.74,4.53,10.48,5.99,3.04,1.21,6.35,1.81,9.61,2,3.19.2,6.49.15,9.61.91,5.53,1.22,10.84,4.12,16.59,3.99,2,0,4.11,0,6.11,0,4.97-.6,9.5-3.05,13.97-5.14,7.95-3.9,14.32-4.14,22.71-1.47,4.06,1.2,8.28,2.08,12.23,3.63,1.43.56,3,1.27,4.37,1.98.43.23,1.33.71,1.75.96.42.03,1.32.05,1.75.04,18.05,0,36.1,0,54.15,0"/><path class="b" d="M8.23,92.59c3.84-.26,7.5,1.32,10.48,3.65,2.88,2.06,5.74,4.33,8.73,6.23,3.45,2.22,7.31,3.97,11.35,4.71,3.14.61,6.43.66,9.61.97,2.35.27,4.73.94,6.99,1.64,2.29.71,4.66,1.51,6.99,2.1,4.04.3,8.18.03,12.23.12.78,0,1.84,0,2.62-.02.79-.23,1.85-.6,2.62-.91,2.29-.92,4.66-1.95,6.99-2.8,7.22-2.86,14.31-2.96,21.83-1.42,4.06.77,8.28,1.06,12.23,2.33,1.44.46,3.02,1.12,4.37,1.82.43.23,1.33.72,1.75.97.42.02,1.32.03,1.75.03,18.34,0,36.69,0,55.02,0"/><path class="b" d="M8.23,87.75c4.34-.34,8.08,1.61,11.35,4.27,2.88,2.17,5.74,4.54,8.73,6.55,3.67,2.5,7.82,4.48,12.23,5.2,4.02.74,8.22.3,12.23,1.14,3.49.67,6.98,1.68,10.48,2.32,1.7.12,3.54.03,5.24.06,2.3-.02,4.69.04,6.99-.03,4.14-.98,8-3.08,12.23-3.79,7.19-1.56,14.58-.53,21.83-.06,4.06.21,8.28-.23,12.23.99,1.47.43,3.04,1.13,4.37,1.88.41.26,1.32.77,1.75,1.01.42,0,1.32,0,1.75,0,18.05,0,36.1,0,54.15,0"/><path class="b" d="M8.23,84.75c5.19.09,9.18,2.89,13.1,5.96,4.34,3.29,8.79,6.73,13.97,8.56,6.46,2.49,13.4.87,20.09,1.84,6.64.8,13.51,1.74,20.09.03,2.95-.68,5.72-2.24,8.73-2.71,7.56-1.3,15.14,1.01,22.71,1.11,8.68.08,13.88-3.24,21.83,2.95,18.33.15,36.69,0,55.02.05"/><path class="b" d="M8.23,83.45c7.99,1.73,13.72,8.05,20.96,11.4,5.12,2.57,10.98,3.01,16.59,2.31,10.15-1.24,20.65.99,30.57-2.15,2.86-.87,5.67-2.35,8.73-2.33,4.75-.13,9.37,1.39,13.97,2.33,4.57,1,9.4,1.38,13.97.24,4.75-1.24,9.67-1.66,13.97,1.17.44.28,1.33.88,1.75,1.2,1.07.27,2.4.13,3.49.16,17.17,0,34.36,0,51.53,0"/><path class="b" d="M8.23,83.31c5.75,2.78,10.82,6.85,16.59,9.57,2.55.42,5.28.07,7.86.18,4.35,0,8.75,0,13.1,0,2.3-.12,4.67-.62,6.99-.65,4.05-.2,8.17-.12,12.23-.33,4.73-.23,9.51-.95,13.97-2.58,4.15-1.91,8.88-1.25,13.1.06,4.04,1.2,8.05,2.78,12.23,3.45,2.29.12,4.69.02,6.99.05,2.89-.41,5.79-1.42,8.73-1.43,1.42-.02,3.01.2,4.37.63.78.25,1.78.8,2.62.8,5.81,0,11.66,0,17.47,0,13.09,0,26.21,0,39.3,0"/><path class="b" d="M8.23,83.41c2.29,1.61,4.53,3.56,6.99,4.91,4.93,0,9.91,0,14.85,0,5.81,0,11.66,0,17.47,0,2.31-.13,4.68-.78,6.99-1.01,3.75-.51,7.59-.86,11.35-1.28,3.8-.43,7.66-.98,11.35-1.97,4.64-1.57,7.49-1.98,12.23-.28,2.38.84,4.74,2.01,6.99,3.15,1.09.47,2.27,1.41,3.49,1.4,9.02,0,18.06,0,27.07,0,18.92,0,37.85,0,56.77,0"/><path class="b" d="M8.23,81.87c2.17,2.01,2.44,1.72,5.24,1.71,2,0,4.11,0,6.11,0,5.81,0,11.66,0,17.47,0,3.76-.08,7.61.17,11.35-.11,4.31-1.19,8.69-2.36,13.1-3.14,6.37-1.19,12.91-1.51,19.21-3.07,6.5-1.1,12.23,3.08,17.47,6.32h85.59"/><path class="b" d="M8.23,77.79c.49.35,1.17.9,1.75,1.04.79,0,1.83,0,2.62,0,2,0,4.11,0,6.11,0,5.81,0,11.66,0,17.47,0,3.47,0,7.01,0,10.48,0,5.41-1.94,10.87-4.05,16.59-4.85,4.32-.66,8.75-.58,13.1-.77,3.18-.19,6.45-.91,9.61-.14,4.15.86,7.91,3.1,11.35,5.49,1.04.44,2.39.22,3.49.27,2,0,4.12,0,6.11,0,6.1,0,12.24,0,18.34,0,19.5,0,39.01,0,58.52,0"/><path class="b" d="M8.23,71.39c4.87,2.88,2.94,2.81,8.73,2.7,4.06,0,8.17,0,12.23,0,3.47,0,7.01,0,10.48,0,1.1,0,2.39,0,3.49,0,.83,0,1.9.1,2.62-.39,2.91-1.86,6.35-2.94,9.61-4.01,4.22-1.28,8.73-1.58,13.1-1.05,4.34.51,8.7,1.49,13.1,1.19,4.83-.12,9.71.97,13.97,3.26.44.23,1.32.71,1.75.96.43.03,1.31.05,1.75.04,1.7,0,3.54,0,5.24,0,26.49,0,52.99,0,79.48,0"/><path class="b" d="M8.23,64.03c3.36,1.38,6.52,3.39,9.61,5.3,8.14.08,16.31,0,24.45.03,5.55-4.57,12.82-7.5,20.09-6.47,5.15.67,9.85,3.18,14.85,4.43,4.28.98,8.77.2,13.1.73,2.04.2,4.15.71,6.11,1.3,3.76,0,7.59,0,11.35,0,25.32,0,50.66,0,75.98,0"/><path class="b" d="M8.23,57.18c3.64.98,7.15,2.64,10.48,4.38,1.99,1.01,3.94,2.49,6.11,3.05,3.76,0,7.59,0,11.35,0,2.54-.85,4.76-2.71,6.99-4.17,5.21-4.03,12.04-5.6,18.34-3.4,5.24,1.66,9.78,4.99,14.85,7.04,2.16.94,4.69.38,6.99.52,2,0,4.11,0,6.11,0,1.7-.14,3.54-.28,5.24-.21,3.75.34,7.59.18,11.35.21,5.81,0,11.66,0,17.47,0,20.08,0,40.18,0,60.26,0"/><path class="b" d="M8.23,51.34c3.57.15,7.11,1.12,10.48,2.23,4.71,1.72,9.81,3.37,14.85,2.13,5.55-1.13,10.16-5.05,15.72-6.09,8.42-1.27,15.67,4.34,22.71,8.07,1.37.73,2.92,1.5,4.37,2.07,2.27.29,4.7.06,6.99.13,1.7-.06,3.56.15,5.24-.15,2.56-.72,5.21-1.48,7.86-1.78,3.21-.38,6.56.04,9.61,1.1.77.26,1.8.74,2.62.82,1.4,0,2.97,0,4.37,0,23.58,0,47.17,0,70.74,0"/><path class="b" d="M8.23,47.48c4.35-.67,8.75.13,13.1.38,3.79.22,7.66-.1,11.35-.96,4.39-.97,8.65-2.7,13.1-3.45,8.68-1.49,17.41,5.5,25.33,8.47,3.6,1.36,7.45,2.91,11.35,2.77,3.32-.31,6.46-1.74,9.61-2.76,6.33-2.3,12.31-1.91,18.34,1.07,1.46.56,2.87,1.69,4.37,2.12,2.59,0,5.27,0,7.86,0,8.14,0,16.31,0,24.45,0,1.99-.06,4.13.14,6.11-.11,1.38-.54,2.96-1.11,4.37-1.58,5.6-1.89,11.55-2.82,17.47-2.77,3.14.17,6.06,1.77,8.73,3.31"/><path class="b" d="M8.23,45.61c3.14-.69,6.42-.83,9.61-1.05,2.35-.26,4.74-.91,6.99-1.64,8.33-2.82,17.35-7.15,26.2-3.97,4.15,1.46,8.07,3.63,12.23,5.08,3.91,1.43,8.09,2.13,12.23,2.5,1.71.15,3.54.41,5.24.6,4.21.17,8.18-1.75,12.23-2.64,6.47-1.73,12.49,0,18.34,2.84,1.78.79,3.58,1.91,5.24,2.92.76.18,1.84.14,2.62.14,5.22,0,10.5,0,15.72,0,2,0,4.12,0,6.11,0,4.37-1.71,8.6-3.99,13.1-5.37,5.33-1.8,10.99-2.53,16.59-2.76,5.72-.49,8.03-.27,13.1,2.86"/><path class="b" d="M8.23,44.73c3.16-.53,6.46-.67,9.61-1.26,2.13-.52,4.21-1.57,6.11-2.63,7.32-4.3,14.76-9.17,23.58-6.28,3.3,1.01,6.4,2.75,9.61,3.99,5.77,2.47,11.42,2.26,17.47,1.21,2.87-.57,5.85,0,8.73-.34,4.05-.55,8.1-1.75,12.23-1.58,6.25.16,11.82,3.42,17.47,5.73,1.69.66,3.34,2.2,5.24,2.07,4.93,0,9.91,0,14.85,0,.42,0,1.32,0,1.75,0,.82-.37,1.87-1.04,2.62-1.53,1.39-.91,2.94-1.94,4.37-2.78,3.77-2.12,7.95-3.71,12.23-4.41,5.19-.89,10.5-.28,15.72-.02,2,.13,4.12-.06,6.11-.13,2.75.07,5.45,1.12,7.86,2.38"/><path class="b" d="M8.23,40.9c4.35,0,8.75,0,13.1,0,4.57-2.13,8.42-5.74,13.1-7.7,4.08-1.9,8.85-2.19,13.1-.7,11.88,4.71,14.18,6.76,27.07,2.54,1.95-.58,4.08-.94,6.11-.87,1.72-.06,3.55-.36,5.24-.64,8.14-1.61,13.6-.35,20.96,3.2,1.94.92,4.09,1.68,6.11,2.4,1.7.55,3.41,1.85,5.24,1.77,4.06,0,8.17,0,12.23,0,1.24.17,2.49-.65,3.49-1.26,1.75-1.08,3.55-2.38,5.24-3.55,4.28-3.11,9.52-5.02,14.85-4.94,5.34,0,10.49,1.82,15.72,2.63,2.28.43,4.69.16,6.99.17,2.36.1,4.77.69,6.99,1.48"/><path class="b" d="M8.23,36.16c3.76,0,7.59,0,11.35,0,2.29-.11,4.74.25,6.99-.2,3.54-2.05,7.27-4.12,11.35-4.83,6.69-1.38,12.8,2.39,19.21,3.51,6.43,1.28,12.43-1.64,18.34-3.71,2.22-.82,4.67-.75,6.99-.96,2.6-.31,5.25-.85,7.86-1.08,8.6-.99,14.79,3.03,22.71,5.09,2.56.79,5.19,1.75,7.86,2.15,2.3-.03,4.76.27,6.99-.38,5.73-1.49,10.17-5.89,15.72-7.78,9.31-3.18,17.53,1.66,26.2,4.31,4.5,1.27,9.32.64,13.97,1.24"/><path class="b" d="M8.23,31.42c7.56,0,15.15,0,22.71,0,2.29-.39,4.63-1.14,6.99-1.12,2.94-.13,5.88.56,8.73,1.12,2.3,0,4.69,0,6.99,0,2.3,0,4.69,0,6.99,0,1.1,0,2.4,0,3.49,0,.83-.11,1.86-.56,2.62-.88,4.75-2.02,9.5-4.82,14.85-4.36,4.94-.3,9.87-1.49,14.85-1.19,9.96.45,19.63,6.05,29.69,3.63,5.2-1.17,9.75-4.29,14.85-5.75,5.23-1.18,10.79-.11,15.72,1.79,5.07,1.93,9.76,4.86,14.85,6.73,4.05.07,8.17,0,12.23.03"/><path class="b" d="M8.23,26.67c15.42,0,30.86,0,46.29,0,2.59,0,5.27,0,7.86,0,1.4,0,2.97.03,4.37-.03.45-.22,1.3-.67,1.75-.89,3.26-1.62,6.75-3.38,10.48-3.35,2.29.22,4.7.23,6.99-.06,4.92-.59,9.87-1.57,14.85-1.52,4.69-.09,9.32,1,13.97,1.35,6.39.42,12.46-2.03,18.34-4.21,5.51-2.01,8.34-2.09,13.97-.46,4.84,1.23,9.54,3.12,13.97,5.41,1.71.88,3.55,1.88,5.24,2.81.73.39,1.73,1.14,2.62.95,4.93,0,9.91,0,14.85,0"/><path class="b" d="M8.23,21.93c16.88,0,33.77,0,50.65,0,2.59,0,5.27,0,7.86,0,1.44.13,2.98-1.19,4.37-1.62,2.18-.9,4.61-1.59,6.99-1.52,2.29.22,4.67.73,6.99.48,5.91-.45,11.6-2.51,17.47-3.28,10.89-1.34,10.35,2.16,22.71-3.02,6.26-2.59,12.8-5.5,19.21-1.62,7.88,3.41,16.18,5.98,23.58,10.43,1.97.34,4.12.08,6.11.16,3.18,0,6.43,0,9.61,0"/></svg>