<?xml version="1.0" encoding="UTF-8"?><svg id="a" xmlns="http://www.w3.org/2000/svg" width="1920" height="2400" viewBox="0 0 192 240"><defs><style>.b{fill:none;stroke:#fff;stroke-miterlimit:10;stroke-width:.4px;}.c{stroke-width:0px;}</style></defs><rect class="c" width="192" height="240"/><path class="b" d="M7.69,224.2c2.45.85,4.89,2.07,7.03,3.55,1.13.79,2.38,1.82,3.51,2.6.79.29,1.82.23,2.64.23,3.49,0,7.05,0,10.54,0,1.11-.03,2.43.11,3.52-.16,1.15-.81,2.45-1.88,3.51-2.8,2.31-2.01,4.59-4.27,7.03-6.12,1.89-1.42,4.23-2.39,6.15-3.77,4.57-3.04,9.23-6.87,14.94-7.19,7.85-.21,14.64,6.31,19.33,11.97,1.39,1.64,2.94,3.47,4.39,5.05,1.05.99,2.08,2.59,3.52,3.02,2.31,0,4.72,0,7.03,0,7.61,0,15.24,0,22.85,0,20.21,0,40.43,0,60.63,0"/><path class="b" d="M7.69,220.24c2.41.78,4.85,1.84,7.03,3.12,1.42.76,2.81,2.06,4.39,2.45,2.61,0,5.3,0,7.91,0,2.01-.03,4.14.06,6.15-.05,4.85-2.89,8.58-7.37,13.18-10.59,1.99-1.24,4.2-2.37,6.15-3.68,3.49-2.2,7.23-4.51,11.42-4.9,6.57-.58,12.01,4.07,16.7,8.07,3.97,3.49,7.09,8.11,11.42,11.15h92.27"/><path class="b" d="M7.69,215.95c3.96.65,7.73,2.16,11.42,3.68,8.15,3.22,14.56.38,21.09-4.65,3.34-2.61,6.83-5.11,10.54-7.15,3.71-2.24,7.82-4.55,12.3-4.3,5.56.34,10.03,4.23,14.06,7.69,3.48,2.95,6.9,6.14,10.55,8.89,1.39,1.37,3.51.83,5.27.93,2.31,0,4.72,0,7.03,0,7.31,0,14.66,0,21.97,0,20.79,0,41.6,0,62.39,0"/><path class="b" d="M7.69,211.75c2.91.14,5.91.34,8.79.81,3.18.54,6.43,1.26,9.67,1.37,11.98.69,19.7-8.28,29.88-12.48,11.16-4.07,18.33,8.07,26.36,13.49.44.3,1.31.89,1.76,1.17,1.09.24,2.41.12,3.52.15,2.61,0,5.3,0,7.91,0,7.61,0,15.24,0,22.85,0,21.97,0,43.94,0,65.91,0"/><path class="b" d="M7.69,207.92c4.38-.06,8.79-.89,13.18-.6,8.32.72,15.99,1.7,23.73-2.35,4.89-2.43,9.23-6.71,14.94-7,8.29-.1,13.48,7.66,19.33,12.39.41.36,1.24.95,1.76,1.13.44,0,1.32,0,1.76,0,1.41,0,2.98,0,4.39,0,32.51,0,65.03,0,97.54,0"/><path class="b" d="M7.69,204.58c2.33,0,4.75-.25,7.03-.72,2.56-.67,5.26-1.07,7.91-.92,7.28.34,14.92,2.72,21.97-.18,5.54-2.33,10.25-7.61,16.7-7.15,4.87.37,8.8,3.78,12.3,6.88,1.71,1.35,3.25,3.37,5.27,4.24,2.9,0,5.89,0,8.79,0,32.22,0,64.44,0,96.66,0"/><path class="b" d="M7.69,201.77c1.99.28,4.15.22,6.15.11,2.32-.38,4.66-1.17,7.03-1.21,5-.25,9.97.91,14.94,1.19,11.62.82,13.51-5.1,22.85-7.82,5.51-1.46,10.76,1.69,14.94,4.98,1.1.84,2.4,1.86,3.52,2.7.77.29,1.84.22,2.64.22,34.85,0,69.72,0,104.57,0"/><path class="b" d="M7.69,197.18c13.76,0,27.54,0,41.3,0,2.09-.4,4.09-1.58,6.15-2.14,2.8-.91,5.84-1.4,8.79-1.09,2.4.24,4.82,1,7.03,1.94,1.39.58,2.82,1.52,4.39,1.29,11.71,0,23.44,0,35.15,0,6.73,0,13.49,0,20.21,0,2.83-1.06,5.67-2.61,8.79-2.57,2.13-.07,4.25.77,6.15,1.65.42.2,1.34.6,1.76.81.77.14,1.86.1,2.64.1,11.42,0,22.85,0,34.27,0"/><path class="b" d="M7.69,192.41c37.2,0,74.4,0,111.6,0,2.6,0,5.3,0,7.91,0,1.59-.53,2.96-1.94,4.39-2.78,3.11-2.03,6.69-4.17,10.54-3.77,4.79.9,8.98,3.76,13.18,6.08,0,0,.88.47.88.47h.88c.77,0,1.86,0,2.64,0,2.01,0,4.14,0,6.15,0,6.14,0,12.32,0,18.45,0"/><path class="b" d="M7.69,187.64c35.73,0,71.47,0,107.21,0,3.2,0,6.47,0,9.67,0,2.24-.78,4.14-2.63,6.15-3.87,3.67-2.41,7.68-5.49,12.3-5.11,4.84.72,9.14,3.41,13.18,6,1.41.92,2.98,1.97,4.39,2.89,2.6.19,5.31.03,7.91.08,5.26,0,10.56,0,15.82,0"/><path class="b" d="M7.69,181.62c2.01.13,4.14.16,6.15.28,2.01.15,4.13.48,6.15.18,5.5-.82,11.24-2.26,16.7-.39,1.13.31,2.36.96,3.52,1.17,2.31,0,4.72,0,7.03,0,5.26,0,10.56,0,15.82,0,15.23,0,30.47,0,45.7,0,2.31,0,4.72,0,7.03,0,2.04.02,4.23.15,6.15-.68,4-1.32,7.74-3.45,11.42-5.45,2.98-1.56,6.2-3.31,9.67-3.23,5.1.31,9.81,2.74,14.06,5.42,1.42.9,3,1.95,4.39,2.88.69.49,1.73,1.25,2.64,1.06,6.72,0,13.49,0,20.21,0"/><path class="b" d="M7.69,172.02c2.27-.58,4.68-1.15,7.03-1.07,1.42.1,2.97.42,4.39.35,4.08-.15,8.26-.98,12.3-.05,3.16.67,6.13,2.24,8.79,4.04,1.45.83,2.76,2.37,4.39,2.81,4.38,0,8.81,0,13.18,0,11.71,0,23.44,0,35.15,0,1.19.14,2.41-.65,3.52-.97,1.37-.45,2.96-.75,4.39-.86,3.78-.31,7.67.57,11.42-.17,5.27-.56,10.7-.32,15.82-1.91,4.14-1.12,8.08-3.1,12.3-3.91,8.34-1.06,16.01,3.66,22.85,7.83h21.09"/><path class="b" d="M7.69,163.81c2.19-1.01,4.59-2,7.03-2.11,1.41,0,2.98.3,4.39.24,3.49-.09,7.09-.54,10.55.18,7.33,1.38,12.49,7.24,18.45,11.2,13.47,0,26.95,0,40.42,0,.45,0,1.31,0,1.76,0,.86-.18,1.85-.82,2.64-1.19,1.91-.92,4.05-1.6,6.15-1.88,3.19-.46,6.47-.01,9.67-.04,2.62-.1,5.27-.8,7.91-.65,4.68.12,9.44.26,14.06-.63,7.45-1.42,10.81-2.67,18.45-.27,3.69,1.06,7.14,2.92,10.55,4.65,8.19,0,16.41,0,24.61,0"/><path class="b" d="M7.69,158.88c2.15-1.28,4.51-2.57,7.03-2.89,1.41-.11,2.99.09,4.39-.08,3.19-.31,6.44-1.01,9.67-.84,5.59.17,10.53,3.23,14.94,6.4,1.68,1.22,3.55,2.44,5.27,3.59,1.49,1.02,2.86,2.55,4.39,3.5,10.54,0,21.1,0,31.64,0,1.53.17,3-.71,4.39-1.19,1.96-.72,4.09-1.33,6.15-1.71,4.33-.86,8.83-.56,13.18-1.17,1.75-.23,3.53-.96,5.27-1.2,2.59-.37,5.31-.2,7.91.02,5.24.54,10.55.77,15.82.94,3.58.11,7.18.82,10.55,2.04,1.12.4,2.43.93,3.52,1.42.76.33,1.76.98,2.64.86,9.95,0,19.93,0,29.88,0"/><path class="b" d="M7.69,156.06c2.16-1.35,4.5-2.74,7.03-3.24,3.02-.18,5.9-.67,8.79-1.57,4.54-1.35,9.49-2,14.06-.43,4.05,1.31,7.71,3.67,11.42,5.7,2.94,1.78,5.76,3.95,8.79,5.58,1.35.66,2.87,1.55,4.39,1.69,2.9,0,5.89,0,8.79,0,2.4.09,4.71-1.12,7.03-1.6,2.85-.67,5.87-.83,8.79-.94,6.45-.2,13.06.06,19.33-1.69,3.04-.7,5.76-2.5,8.79-3.21,5.29-1.13,10.71.37,15.82,1.73,4.65,1.34,9.4,2.56,14.06,3.87,1.12.37,2.44.9,3.51,1.4,0,0,.88.42.88.42,0,0,.88.01.88.01,11.42,0,22.85,0,34.27,0"/><path class="b" d="M7.69,154.03c2.21-1.23,4.56-2.51,7.03-3.1,1.41-.27,3.01-.36,4.39-.8,3.85-1.14,7.5-3.06,11.42-3.95,12.92-3.15,21.43,8.41,35.15,7.9,4.4,0,8.78-1.12,13.18-1.03,3.64.11,7.09,1.65,10.55,2.64,8.04,2.62,14.32.48,21.09-4.06,11.16-8.27,21.76,1.83,32.51,5.22,1.82.43,3.57,1.45,5.27,2.16,1.09,0,2.42,0,3.52,0,10.83,0,21.68,0,32.51,0"/><path class="b" d="M7.69,151.48c1.99-.86,4.08-1.79,6.15-2.41,2.68-.63,5.38-1,7.91-2.21,9.56-4.38,15.24-6.36,25.48-2.33,4.43,1.79,9.32,2.24,14.06,1.86,6.39-.4,13.03-2.21,19.33-.27,2.78,1,5.3,2.75,7.91,4.1,7.5,4.21,13.05,2.13,19.33-2.96,3.36-2.69,6.92-5.78,11.42-6.06,8.78-.53,15.14,6.9,22.85,9.82,2.15.6,4.33,1.52,6.15,2.83,1.28.69,2.99.27,4.39.38,2.01,0,4.14,0,6.15,0,8.48,0,17,0,25.48,0"/><path class="b" d="M7.69,147.11c3.48-1.28,6.9-2.3,10.54-2.95,2.96-.8,5.86-2.07,8.79-2.99,7.57-2.63,13.79-1.36,21.09,1.25,3.99,1.27,8.31.64,12.3-.33,6.53-1.6,13.57-4.14,20.21-1.67,2.15.88,4.18,2.29,6.15,3.51,6.8,4.5,12.02,4.51,18.45-.65,2.9-2.2,5.56-4.95,8.79-6.69,7.51-4.18,14.92.81,21.09,5.07,2.45,1.62,5.05,3.34,7.91,4.14,2.62.51,4.84,2.26,7.03,3.66h34.27"/><path class="b" d="M7.69,141.91c2.01-.59,4.11-1.3,6.15-1.79,1.99-.46,4.15-.61,6.15-1.05,5.75-1.26,11.74-2.18,17.58-.93,3.55.67,7.04,1.89,10.54,2.75,6.34,1.38,12.49-1.66,18.45-3.39,4.22-1.29,8.79-2.16,13.18-1.24,2.77.62,5.32,2.13,7.91,3.23,5.64,2.66,10.74,2.03,15.82-1.52,2.97-1.95,5.68-4.45,8.79-6.19,7.84-4.5,15.3-.13,21.97,4.32,2.49,1.58,5.08,3.28,7.91,4.19,3.27.59,6.22,2.34,8.79,4.4h33.39"/><path class="b" d="M7.69,137.89c2.59-.6,5.25-1.38,7.91-1.59,5.86-.28,11.78-.03,17.58.84,5.82.73,11.67,2.4,17.58,1.94,4.2-.48,8.25-1.97,12.3-3.08,4.27-1.22,8.73-2.07,13.18-2.15,3.54-.19,7.08.45,10.55,1.1,8.56,1.68,14.29-2.3,21.09-6.72,6.86-4.51,14.08-4.02,21.09-.13,4.12,2.12,7.95,4.97,12.3,6.62,2.03.66,4.28,1.05,6.15,2.15,1.14.61,2.45,1.44,3.52,2.18.31.34,1.29.82,1.76.87,10.54,0,21.1,0,31.64,0"/><path class="b" d="M7.69,134.26c3.75-.69,7.65-1.33,11.42-.43,2.34.35,4.64,1.49,7.03,1.32,6.43,0,12.9,0,19.33,0,2.01,0,4.14,0,6.15,0,1.44.01,3.04.1,4.39-.48,3.7-1.19,7.55-2.14,11.42-2.52,4.07-.45,8.25-.26,12.3-.88,4.09-.61,8.32-.85,12.3-2.06,5.28-1.49,10-4.48,14.94-6.78,7.02-3.4,15.32-1.88,21.97,1.69,4.38,2.16,8.51,5.05,13.18,6.58,2.39.58,4.83,1.39,7.03,2.5,1.43.57,2.84,1.8,4.39,1.95,10.24,0,20.51,0,30.76,0"/><path class="b" d="M7.69,130.18c2.01-.19,4.13-.41,6.15-.32,1.13.04,2.41.34,3.52.52.8,0,1.84,0,2.64,0,10.54,0,21.1,0,31.63,0,1.98-.13,4.26.3,6.15-.26,3.37-1.14,6.99-1.63,10.54-1.64,3.5-.05,7.14.25,10.55-.7,7.84-2.53,15.28-6.17,22.85-9.37,2.52-1,5.2-1.9,7.91-2.2,5.41-.39,10.89.9,15.82,3.09,4.82,2.1,9.27,5.07,14.06,7.24,3.64,1.56,7.65,2.26,11.42,3.46,1.65.59,3.56.34,5.27.39,2.31,0,4.72,0,7.03,0,7.02,0,14.07,0,21.09,0"/><path class="b" d="M7.69,124.79c2.01-.06,4.15-.11,6.15.2,1.13.14,2.37.72,3.52.62,6.73,0,13.49,0,20.21,0,4.67,0,9.39,0,14.06,0,2.31,0,4.72,0,7.03,0,.78-.28,1.83-.62,2.64-.82,5.44-1.55,11.29-.07,16.7-1.71,3.33-1.33,6.45-3.34,9.67-4.93,6.54-3.37,13.56-6.8,21.09-6.67,5.83.28,11.52,2.23,16.7,4.85,5.05,2.52,9.74,5.85,14.94,8.07,1.06.44,2.39.87,3.52,1.13,2,.18,4.14.04,6.15.08,3.19-.11,6.51.24,9.67-.16,9.39-2.15,14.55-4.33,24.6-2.5"/><path class="b" d="M7.69,117.22c2.96.06,6.09.27,8.79,1.58,1.45.59,2.7,2.26,4.39,2.04,6.43,0,12.9,0,19.33,0,6.73,0,13.49,0,20.21,0,.85.09,1.85-.39,2.64-.62,1.39-.42,2.96-.76,4.39-.98,10.59-1.25,9.44-1.3,18.45-6.4,6.45-3.51,13.63-6.35,21.09-6.05,6.54.26,12.84,2.68,18.45,5.93,2.96,1.69,5.88,3.64,8.79,5.42,1.67.93,3.4,2.25,5.27,2.7,4.96,0,9.98,0,14.94,0,1.16.1,2.48-.1,3.51-.67,1.42-.62,3-1.38,4.39-2.06,8.59-4.38,12.3-5.25,21.97-3.45"/><path class="b" d="M7.69,107.96c6.72.53,10.51,3.11,14.94,7.97,4.35.35,8.81.03,13.18.14,8.19,0,16.41,0,24.6,0,.46,0,1.31,0,1.76,0,.81-.27,1.85-.77,2.64-1.1,1.39-.57,2.96-1.13,4.39-1.59,2.62-.84,5.38-1.57,7.91-2.68,2.4-1.07,4.63-2.68,7.03-3.75,7.06-3.41,15.09-4.44,22.85-3.65,9.09.58,15.56,3.79,22.85,9.02,1.71,1.19,3.54,2.49,5.27,3.64,1.7.21,3.56.06,5.27.1,4.96,0,9.98,0,14.94,0,1.3.22,2.53-.61,3.52-1.35,1.41-.97,2.98-2.08,4.39-3.05,8.49-5.91,11.19-5.41,21.09-3.84"/><path class="b" d="M7.69,99.4c7.23,1.7,11.91,6.35,16.7,11.68,1.66.46,3.57.13,5.27.22,2.61,0,5.3,0,7.91,0,7.9,0,15.83,0,23.73,0,.45,0,1.31,0,1.76-.02.44-.26,1.31-.76,1.76-1,1.39-.78,2.97-1.61,4.39-2.32,2.6-1.3,5.33-2.55,7.91-3.89,2.01-1.04,4.01-2.39,6.15-3.18,7.32-2.82,15.31-1.24,22.85-.29,2.89.43,5.91.49,8.79,1,6.98,1.24,12.86,5.56,18.45,9.66,4.67.11,9.39,0,14.06.04,3.19-.07,6.49.16,9.67-.11,5.01-3.81,10.06-9.58,16.7-10.01,3.52.25,7.04,1.15,10.55,1.6"/><path class="b" d="M7.69,93.03c4.18,2.09,7.96,5.06,11.42,8.17,1.12,1.03,2.42,2.3,3.52,3.35.98.92,2,2.27,3.51,1.97,6.73,0,13.49,0,20.21,0,5.84,0,11.73,0,17.58,0,1.23-.33,2.42-1.31,3.52-1.93,2-1.23,4.12-2.53,6.15-3.72,8.71-5.27,11.64-6.66,21.97-4.64,4.06.78,8.17,1.75,12.3,2.04,2.9.23,5.89-.11,8.79.22,3.02.29,6.05,1.19,8.79,2.51,3.07,1.46,5.98,3.43,8.79,5.35,1.38.34,2.99.12,4.39.18,3.79,0,7.64,0,11.42,0,1.98-.13,4.25.3,6.15-.26,5.2-3.84,10.59-9.84,17.57-9.34,3.51.71,6.97,2.01,10.55,2.45"/><path class="b" d="M7.69,89.17c3.69,2.81,6.94,6.28,10.54,9.2,1.09.94,2.4,2.04,3.52,2.95.72.54,1.8.45,2.64.44,14.05,0,28.13,0,42.18,0,5.18-2.98,10.05-6.92,15.82-8.72,4.65-1.12,9.47.08,14.06.96,4.03.81,8.18,1.45,12.3,1.22,2.92-.15,5.87-.83,8.79-1.05,6.28-.71,12.31,1.74,17.57,4.95,5.49,3.3,4.27,2.6,10.55,2.64,2.01,0,4.14,0,6.15,0,.85-.23,1.88-.85,2.64-1.29,6.06-3.52,12.78-9.16,20.21-6.64,3.14,1.21,6.34,2.57,9.67,3.16"/><path class="b" d="M7.69,86.9c2.41,2.32,4.65,5,7.03,7.36,1.05.93,2.18,2.23,3.51,2.73.8,0,1.84,0,2.64,0,4.67,0,9.39,0,14.06,0,9.07,0,18.17,0,27.24,0,2.31,0,4.72,0,7.03,0,5.04-2.56,9.95-6.28,15.82-6.4,6.46-.12,12.86,1.75,19.33,1.25,4.51-.21,8.91-1.48,13.18-2.86,8.51-2.78,14.33-.67,21.97,3.2,2.71,1.33,5.72,2.51,8.79,1.98,7.41-1.18,14.22-6.16,21.97-4.88,4.97.76,9.14,4.1,14.06,5.12"/><path class="b" d="M7.69,84.38c1.77,1.8,3.55,3.86,5.27,5.69,1.6,1.68,1.95,2.36,4.39,2.15,3.49,0,7.05,0,10.55,0,10.24,0,20.51,0,30.76,0,3.79,0,7.64,0,11.42,0,3.47-1.38,6.88-3.15,10.54-3.97,6.66-1.31,13.49.45,20.21-.14,4.17-.29,8.35-1.18,12.3-2.53,4.57-1.71,9.09-4.1,14.06-4.33,6.23-.49,11.75,2.99,17.57,4.52,5.31.93,10.57-1.12,15.82-1.63,4.76-.6,9.69.14,14.06,2.11,3.17,1.41,6.31,3.14,9.67,4.06"/><path class="b" d="M7.69,81.05c2.39,2.01,4.57,4.47,7.03,6.39,16.11,0,32.23,0,48.33,0,1.77.07,3.58-.71,5.27-1.12,3.18-.9,6.42-1.89,9.67-2.55,4.9-1.03,9.97-.78,14.94-.59,6.15.28,12.41.28,18.45-1.07,5.58-1.29,10.94-3.72,16.7-4.23,3.8-.4,7.7.03,11.42.82,1.71.33,3.54.84,5.27,1.07,2.01.23,4.15.08,6.15-.15,9.05-1.33,15.08-1.31,23.73,2.21,3.2,1.21,6.36,2.8,9.67,3.73"/><path class="b" d="M7.69,76.92c2.75,1.6,5.3,3.69,7.91,5.5,1.65.51,3.57.15,5.27.25,2.9,0,5.89,0,8.79,0,5.55,0,11.15,0,16.7,0,6.22-2.18,12.82-3.17,19.33-3.97,8.73-.97,17.57-1.5,26.36-1.31,6.45.16,12.87,1.59,19.33,1.32,5.28-.31,10.59-.79,15.82-1.56,5.23-.72,10.52-1.74,15.82-1.57,5.88.21,11.67-1.91,17.58-1.34,3.91.26,7.73,1.44,11.42,2.67,4.1,1.2,8.18,2.7,12.3,3.81"/><path class="b" d="M7.69,72.09c3.81,1.08,7.21,3.32,10.54,5.37.99.7,2.38.38,3.52.44,1.41,0,2.98,0,4.39,0,4.38,0,8.81,0,13.18,0,1.31.2,2.47-.96,3.52-1.58,1.38-.91,2.93-1.93,4.39-2.69,4.34-2.18,9.2-3.4,14.06-3.54,5.9-.21,11.73,1.12,17.58,1.69,4.37.43,8.8-.34,13.18-.15,5.43.09,10.64,1.83,15.82,3.27,2.86.75,5.91.99,8.79,1.67,8.6,2,14.01.38,21.97-2.76,2.23-.88,4.69-1.25,7.03-1.71,2.89-.66,5.84-1.53,8.79-1.89,6.04-.94,11.92,1.16,17.57,3.02,3.91,1,8.31,1.83,12.3,2.69"/><path class="b" d="M7.69,66.87c3.83.22,7.37,2.03,10.54,4.06,1.1.67,2.38,1.47,3.52,2.08,1.1.2,2.41.1,3.52.12,3.49,0,7.05,0,10.54,0,.96.2,1.89-.6,2.64-1.08.81-.55,1.86-1.35,2.64-1.95,2.8-2.19,5.55-4.67,8.79-6.2,7.25-3.74,14.77-1.96,21.97.84,9.81,3.79,10.6,2.28,20.21,1.9,3.28-.02,6.61.69,9.67,1.87,4.08,1.5,7.99,3.91,12.3,4.63,3.49,0,7.05,0,10.55,0,3.79-.02,7.64.05,11.42-.03,1.98-1.19,4.03-2.55,6.15-3.48,1.39-.55,3-1.02,4.39-1.54,3.09-1.12,6.35-2.17,9.67-2.31,5.54-.34,10.65,2.23,15.82,3.79,1.66.51,3.55.62,5.27.81,2.31.27,4.72.64,7.03.9"/><path class="b" d="M7.69,61.76c5.69.09,10.15,3.95,14.94,6.48,3.18.3,6.47.04,9.67.12.79,0,1.85,0,2.64,0,.89-.23,1.89-.94,2.64-1.46,2.78-1.97,5.3-4.45,7.91-6.63,5.7-4.98,12.35-6.19,19.33-3.15,5.83,2.19,11.15,6.92,17.57,7.06,2.94-.06,5.88-.86,8.79-1.17,3.54-.44,7.22,0,10.55,1.28,2.07.77,4.17,1.82,6.15,2.79,1.34.67,2.84,1.49,4.39,1.28,8.19-.05,16.42.11,24.6-.06,1.66-1.29,3.44-2.71,5.27-3.75,1.66-.84,3.55-1.57,5.27-2.27,5.05-2.17,10.68-2.45,15.82-.4,3.23,1.14,6.33,2.86,9.67,3.69,1.38.35,2.98.33,4.39.43,2.31.17,4.72.44,7.03.64"/><path class="b" d="M7.69,57.41c3.1.66,6.09,2.06,8.79,3.71,1.42.78,2.83,2,4.39,2.47.79,0,1.85,0,2.64,0,3.49,0,7.05,0,10.55,0,2.92.12,3.03,0,5.27-1.81,2.35-1.88,4.63-4.06,7.03-5.87,4.92-3.89,11-4.48,16.7-1.99,6.15,2.26,12.84,8.46,19.33,8.41,2.98-.15,5.9-1.22,8.79-1.87,3.43-.84,7.11-.99,10.55-.08,3.03.69,5.84,2.3,8.79,3.22,7.9,0,15.83,0,23.73,0,2.71-1.86,5.05-4.41,7.91-6.05,7.19-3.61,13.45-5.34,21.09-1.78,3.22,1.37,6.29,3.29,9.67,4.28,1.37.4,2.98.42,4.39.56,2.31.23,4.72.57,7.03.85"/><path class="b" d="M7.69,53.48c3.72,1.28,7.2,3.3,10.54,5.33,4.67,0,9.39,0,14.06,0,2.01,0,4.14,0,6.15,0,.94-.15,1.89-1.02,2.64-1.55,3.22-2.4,6.51-5.13,10.55-5.96,8.17-1.76,15.62,3.2,22.85,6.22,1.08.45,2.39.96,3.51,1.28,2.31,0,4.72,0,7.03,0,1.16.06,2.43-.54,3.51-.86,1.4-.47,2.97-.98,4.39-1.35,3.13-.83,6.51-.98,9.67-.25,1.44.32,3.01.83,4.39,1.35,1.1.36,2.34,1.11,3.51,1.1,7.31,0,14.66,0,21.97,0,3.26-2.35,6.15-5.39,9.67-7.37,5.47-2.42,11.49-5.05,17.58-3.57,4.34.94,8.2,3.38,12.3,4.96,1.64.66,3.54.9,5.27,1.16,2.31.37,4.71.77,7.03,1.06"/><path class="b" d="M7.69,49.27c2.08.74,4.2,1.7,6.15,2.72,1.41.59,2.88,2,4.39,2.06,3.2,0,6.47,0,9.67,0,4.08-.08,8.24.18,12.3-.11,2.26-1.31,4.58-2.79,7.03-3.72,6.29-2.25,13.1-.58,19.33,1.05,3.77.96,7.58,2.15,11.42,2.79,2.01,0,4.14,0,6.15,0,2.69-.15,5.28-1.56,7.91-2.12,3.41-.94,7.1-1.12,10.54-.25,1.44.34,3.01.88,4.39,1.41,1.08.38,2.33,1.1,3.51.97,7.02,0,14.07,0,21.09,0,3.3-2.1,6.24-4.89,9.67-6.8,1.63-.87,3.59-1.35,5.27-2.11,4.67-2.05,9.74-4.09,14.94-3.22,3.99.57,7.68,2.47,11.42,3.85,3.67,1.23,7.58,1.93,11.42,2.32"/><path class="b" d="M7.69,44.55c2.72.6,5.44,1.6,7.91,2.88,1.1.59,2.39,1.29,3.52,1.82.47,0,1.3.02,1.76.01,5.55,0,11.15,0,16.7,0,.88.09,1.86-.47,2.64-.79,1.4-.61,2.95-1.28,4.39-1.78,4.21-1.5,8.82-.92,13.18-.56,6.41.73,12.89.84,19.33,1.06,1.71.08,3.56.41,5.27.2,2.95-.34,5.87-1.32,8.79-1.83,7.5-1.45,11.87,1.07,18.45,3.71,7.31,0,14.66,0,21.97,0,1.27-.17,2.43-1.24,3.51-1.85,1.68-1.08,3.49-2.27,5.27-3.17,2.22-1.12,4.84-1.48,7.03-2.69,4.97-2.49,10.05-5.68,15.82-5.41,4.3.13,8.31,2.04,12.3,3.44,2.8.95,5.83,1.48,8.79,1.49"/><path class="b" d="M7.69,39.61c2.37-.01,4.83.4,7.03,1.28,3.09,1.44,6.25,3.06,9.67,3.55,2.3.05,4.75.2,7.03-.09,5.93-.92,11.44-4.62,17.57-4.01,4.08.37,8.2,1.06,12.3.99,3.83-.02,7.67-.68,11.42-1.34,2.87-.58,5.87-.73,8.79-.74,2.63-.21,5.29-.85,7.91-1.12,7.77-1.08,13.7,2.73,20.21,6.24,2.58.3,5.31.05,7.91.13,4.67,0,9.39,0,14.06,0,.78,0,1.87.04,2.64-.14,1.7-.89,3.52-1.89,5.27-2.68,2.52-1.22,5.5-1.36,7.91-2.85,6.26-3.58,12.46-9.25,20.21-7.99,6.22.95,9.84,4.64,16.7,3.71"/><path class="b" d="M7.69,35.25c4.01-.87,6.96.02,10.54,1.72,4.16,1.68,8.85,1.91,13.18.77,5.8-1.28,11.45-5.07,17.57-3.75,6.05,1.28,12.34,2.21,18.45.78,3.22-.64,6.43-1.69,9.67-2.28,1.7-.32,3.57-.3,5.27-.57,3.46-.54,7.02-1.31,10.54-.91,6.66.63,11.93,5.18,17.57,8.29.98.69,2.39.37,3.52.43,1.41,0,2.99,0,4.39,0,4.96,0,9.98,0,14.94,0,.79,0,1.88.06,2.64-.21,1.39-.66,2.95-1.39,4.39-1.93,2.31-.84,4.93-1.06,7.03-2.44,7.49-4.56,14.13-11.62,23.73-8.5,4.92,1.67,7.58,3.6,13.18,2.28"/><path class="b" d="M7.69,32.58c6.72-2.28,8.07.57,14.06.93,6.57.32,12.41-3.24,18.45-5.24,2.81-.95,5.94-1.3,8.79-.31,3.42.94,6.98,1.74,10.55,1.75,5.75.13,11.19-2.03,16.7-3.35,2.27-.55,4.72-.54,7.03-.85,3.77-.49,7.72-.73,11.42.33,3.81,1.04,7.28,3.17,10.54,5.35,1.98,1.27,4,2.8,6.15,3.78,1.71,0,3.56,0,5.27,0,5.26,0,10.56,0,15.82,0,1.27.15,2.43-.32,3.52-.94,1.38-.68,2.95-1.42,4.39-1.95,1.36-.55,2.99-.74,4.39-1.12,1.15-.37,2.46-1,3.51-1.59,6.41-3.83,13.1-9.46,21.09-7.64,5.74,1.23,8.53,4.27,14.94,2.19"/><path class="b" d="M7.69,30.19c.8,0,1.84,0,2.64,0,1.1-.27,2.39-.53,3.51-.56,1.74-.05,3.53.58,5.27.5,7.36-.27,13.34-5.33,20.21-7.36,3.16-1.01,6.66-.93,9.67.52,3.06,1.16,6.39,1.84,9.67,1.73,5.79-.12,11.16-2.65,16.7-4.02,2.27-.6,4.71-.57,7.03-.54,3.21-.03,6.52.09,9.67.82,4.06.91,7.88,2.81,11.42,4.94,1.42.85,2.99,1.84,4.39,2.71.75.45,1.73,1.18,2.64,1.26,6.43,0,12.9,0,19.33,0,.42,0,1.33,0,1.76,0,.85-.17,1.87-.77,2.64-1.15,1.39-.72,2.96-1.5,4.39-2.11,2.47-1.23,5.37-1.12,7.91-2.08,6.17-2.5,11.58-7.31,18.45-7.77,2.97-.24,6.02.42,8.79,1.46,3.28,1.51,7.1,2.04,10.55.76"/><path class="b" d="M7.69,25.42c3.79,0,7.64,0,11.42,0,1.71,0,3.56.01,5.27-.01,1.12-.6,2.42-1.35,3.52-2,3.07-1.8,6.23-3.71,9.67-4.7,8.32-2.39,10.29,2.76,17.57,3.34,7.74.7,14.47-4.23,21.97-5.09,2.92-.18,5.9.47,8.79.78,5.42.73,10.79,2.14,15.82,4.28,1.74.73,3.59,1.6,5.27,2.44.43.22,1.33.67,1.76.89.78.1,1.85.08,2.64.08,5.84,0,11.73,0,17.58,0,.42,0,1.33,0,1.76,0,.85-.12,1.87-.69,2.64-1.04,1.96-.93,4.07-1.9,6.15-2.52,1.95-.69,4.16-.49,6.15-.92,3.42-.85,6.54-2.76,9.67-4.33,4.3-2.24,9.14-4.05,14.06-3.42,5.53.67,8.96,3.9,14.94,2.06"/><path class="b" d="M7.69,20.64c6.14-.03,12.32.05,18.45-.03,5.74-4.04,12.42-7.77,19.33-4.12,1.48.71,2.93,1.85,4.39,2.59,1.61.79,3.48,1.31,5.27,1.41,5.89.3,11.21-2.81,16.7-4.46,3.78-1.24,6.76-1.06,10.55-.08,6.08,1.26,12.33,1.68,18.45,2.64,1.73.29,3.59.68,5.27,1.16,1.41.43,2.89,1.1,4.39.9,4.96,0,9.98,0,14.94,0,2.31,0,4.72,0,7.03,0,1.45-.21,2.97-.9,4.39-1.24,1.67-.45,3.53-.8,5.27-.84,1.42.05,3.01.08,4.39-.32,8.08-2.38,14.8-9.53,23.73-8.79,2.42.12,4.75,1.12,7.03,1.84,2.24.65,4.73.9,7.03.45"/></svg>