<?xml version="1.0" encoding="UTF-8"?><svg id="a" xmlns="http://www.w3.org/2000/svg" width="1920" height="2400" viewBox="0 0 192 240"><defs><style>.b{fill:none;stroke:#fff;stroke-miterlimit:10;stroke-width:.4px;}.c{stroke-width:0px;}</style></defs><rect class="c" x="0" width="192" height="240"/><path class="b" d="M9.01,226.28c10.09,0,20.2,0,30.29,0,.46.02,1.28-.03,1.73-.1.45-.3,1.28-.88,1.73-1.17,1.34-.9,2.86-1.86,4.33-2.54,7.42-2.44,14.37-7.5,22.5-6.79,2.62.17,5.27.83,7.79,1.53,2.01.55,4.16,1.04,6.06,1.91,6.13,2.83,12.15,6.47,19.04,6.99,5.45.38,10.98.08,16.45.17,8.36,0,16.74,0,25.1,0,1.39-.11,3.06.31,4.33-.36,2.48-1.56,5.09-3.15,7.79-4.29,5.16-2.37,11.02-2.17,16.45-.91,3.45.7,6.99,1.27,10.39,2.2"/><path class="b" d="M9.01,221.58c10.66-.08,21.37.17,32.02-.09,1.87-1.49,3.88-3.06,6.06-4.08,1.64-.7,3.53-1.1,5.19-1.72,3.36-1.16,6.83-2.34,10.39-2.66,4.72-.49,9.41.78,13.85,2.26,1.67.57,3.52,1.02,5.19,1.59,2.04.73,4.11,1.73,6.06,2.67,1.38.66,2.92,1.39,4.33,2,2.56.1,5.22.02,7.79.04,5.47,0,10.98,0,16.45,0,11.24,0,22.51,0,33.76,0,1.52.21,2.96-.69,4.33-1.22,1.92-.76,4.02-1.39,6.06-1.74,4.29-.78,8.71-.24,12.98.38,3.15.42,6.4.67,9.52,1.27"/><path class="b" d="M9.01,216.88c6.34,0,12.71,0,19.04,0,2.28,0,4.65,0,6.92,0,1.39-.09,3.02.26,4.33-.29,2.34-2.16,4.82-4.47,7.79-5.73,1.63-.6,3.51-.79,5.19-1.17,8.06-1.78,14.84-.97,22.5,1.93,2.83,1.05,5.82,1.88,8.66,2.89,2.28.69,4.58,2.03,6.92,2.37,10.09,0,20.2,0,30.29,0,15.57,0,31.16,0,46.74,0,5.18-.1,10.4-.75,15.58-.58"/><path class="b" d="M9.01,212.18c6.05,0,12.13,0,18.18,0,1.98,0,4.08,0,6.06,0,1.12-.07,2.52.28,3.46-.48,3.43-3.33,7.09-7.54,12.12-8.09,8.57-.83,17.01.3,25.1,3.23,5.95,2.05,11.99,4.15,18.18,5.34,10.67,0,21.36,0,32.02,0,12.11,0,24.24,0,36.35,0,4.6,0,9.25,0,13.85,0,1.38-.01,2.95.04,4.33-.04,1.36-.35,2.93-.67,4.33-.83"/><path class="b" d="M9.01,207.48h23.37c4.47-3.86,8.57-9.16,14.71-10.27,3.15-.24,6.39.27,9.52.59,4.94.62,9.9,1.57,14.71,2.84,4.7,1.09,9.12,3.26,13.85,4.22,2.56.53,5.23.94,7.79,1.48,1.71.28,3.47.99,5.19,1.15,4.02,0,8.1,0,12.12,0,15.29,0,30.59,0,45.87,0,5.18,0,10.4,0,15.58,0,1.98,0,4.08,0,6.06,0,1.75-.35,3.44-1.41,5.19-1.79"/><path class="b" d="M9.01,202.78h18.18c1.9-1.12,3.45-3.05,5.19-4.41,4.17-3.53,9.02-7.23,14.71-7.35,4.06.21,8.11,1.16,12.12,1.79,4.61.83,9.3,1.54,13.85,2.64,4.45.93,8.47,3.36,12.98,4.06,2.87.54,5.84.99,8.66,1.76,1.73.34,3.44,1.39,5.19,1.5,4.31,0,8.67,0,12.98,0,14.42,0,28.86,0,43.28,0,5.47,0,10.98,0,16.45,0,1.68-.03,3.52.08,5.19-.07,1.61-1.02,3.42-2.07,5.19-2.78"/><path class="b" d="M9.01,198.08c4.02-.03,8.1.06,12.12-.04,7.65-5.76,15.69-13.48,25.97-12.88,3.78.35,7.54,1.31,11.25,2.08,4.31.96,8.7,1.82,12.98,2.92,2.32.61,4.72,1.37,6.92,2.34,1.95.93,3.98,1.97,6.06,2.58,3.44.98,6.95,2.02,10.39,2.99,5.18,0,10.4,0,15.58,0,15,0,30.01,0,45.01,0,5.76,0,11.55,0,17.31,0,1.38,0,2.94,0,4.33,0,2.09-.9,3.93-2.6,6.06-3.48"/><path class="b" d="M9.01,193.38c1.39-.06,2.97.17,4.33-.19,2.9-3.12,6.72-5.25,10.39-7.33,6.86-3.81,14.59-6.44,22.5-6.33,5.94,0,11.71,1.79,17.31,3.58,6.23,1.99,12.38,4.34,18.18,7.38,1.65.73,3.49,1.36,5.19,1.93,1.08.31,2.32.93,3.46.96,5.47,0,10.98,0,16.45,0,15.57,0,31.16,0,46.74,0,6.91,0,13.86,0,20.77,0,.4,0,1.33,0,1.73-.03.4-.25,1.33-.74,1.73-.98,1.64-.93,3.45-1.89,5.19-2.6"/><path class="b" d="M9.01,188.68c2.84-3.24,5.63-6.88,9.52-8.9,7.72-3.93,16.7-3.76,25.1-5.01,3.72-.45,7.57-1.01,11.25,0,8.64,2.28,16.21,7.36,24.24,11.13,2.45,1.12,5.11,2.43,7.79,2.78,5.18,0,10.4,0,15.58,0,15.57,0,31.16,0,46.74,0,7.2,0,14.44,0,21.64,0,3.97-1.28,8.07-2.39,12.12-3.4"/><path class="b" d="M9.01,182.39c9.33-10.83,12.05-9.02,25.1-9.63,3.21-.24,6.44-.92,9.52-1.82,2.55-.67,5.13-1.78,7.79-1.88,8.93.08,16.69,8.15,24.24,12.26,5.64,3.22,5.95,2.66,12.12,2.67,4.6,0,9.25,0,13.85,0,17.88,0,35.78,0,53.66,0,.76,0,1.83,0,2.6,0,1.07-.4,2.37-.86,3.46-1.22,2.23-.72,4.61-1.34,6.92-1.7,4.86-.87,9.82-.02,14.71-.02"/><path class="b" d="M9.01,179.27c8.31-7.86,9.86-7.51,20.77-7.18,3.24-.03,6.53-.71,9.52-1.95,3.25-1.31,6.32-3.2,9.52-4.61,2.45-1.06,5.32-.91,7.79.03,7.62,2.96,12.78,9.97,19.91,13.74,3.15,0,6.37,0,9.52,0,12.98,0,25.97,0,38.95,0,7.78,0,15.59,0,23.37,0,1.08-.04,2.42.15,3.46-.23.4-.29,1.32-.85,1.73-1.13,1.9-1.22,3.98-2.43,6.06-3.31,4.9-2.22,10.56-1.99,15.58-.26,2.56.88,5.13,2.05,7.79,2.62"/><path class="b" d="M9.01,174.59c1.39,0,2.94,0,4.33,0,.91.18,1.81-.54,2.6-.88,1.05-.48,2.32-.88,3.46-1.03,3.43-.44,6.95.19,10.39-.19,6.31-.53,11.42-4.63,16.45-8.09,4.34-3.21,8.35-3.38,12.98-.64,4.78,2.83,8.66,6.99,12.98,10.43.98.63,2.35.33,3.46.39,1.69,0,3.51,0,5.19,0,5.47,0,10.98,0,16.45,0,16.15,0,32.32,0,48.47,0,.41,0,1.32,0,1.73,0,.86-.36,1.85-1.18,2.6-1.74,1.64-1.25,3.44-2.6,5.19-3.7,6.83-4.49,12.86-3.65,19.91-.15,2.56,1.33,5.06,3.03,7.79,4"/><path class="b" d="M9.01,169.89c6.62,0,13.28,0,19.91,0,1.09,0,2.37,0,3.46,0,1.17.1,2.44-.08,3.46-.69,4.02-1.94,7.49-4.91,11.25-7.27,3.85-2.68,8.19-2.32,12.12-.04,2.45,1.36,4.76,3.18,6.92,4.95,1.09.9,2.37,1.97,3.46,2.87.76.23,1.81.18,2.6.18,11.53,0,23.09,0,34.62,0,8.07,0,16.17,0,24.23,0,3.44,0,6.95,0,10.39,0,2.83-.78,5.34-2.58,7.79-4.13,9.47-6.45,14.72-6.84,25.1-1.95,2.91,1.36,5.62,3.33,8.66,4.4"/><path class="b" d="M9.01,165.19c6.34,0,12.71,0,19.04,0,2.39.23,4.72-.55,6.92-1.41,4.73-1.75,9.05-4.61,13.85-6.18,3.84-1.17,7.89.29,11.25,2.18,2.69,1.51,5.28,3.38,7.79,5.17,1.63.48,3.51.14,5.19.24,2.86,0,5.8,0,8.66,0,9.8,0,19.63,0,29.43,0,8.36,0,16.74,0,25.1,0,1.78-.85,3.35-2.4,5.19-3.18,3.26-1.26,6.41-2.95,9.52-4.53,8.96-4.61,15.16-3.46,24.23-.02,2.55,1.03,5.11,2.34,7.79,3.01"/><path class="b" d="M9.01,160.49c2.86-.05,5.81.11,8.66-.08,2.56-.89,5.21-1.79,7.79-2.62,7.03-2.23,14.24-4.3,21.64-4.74,5.57-.56,10.78,2.09,15.58,4.6,1.69.9,3.51,1.89,5.19,2.8,1.39.09,2.94.03,4.33.05,20.77,0,41.55,0,62.32,0,1.95-1.46,3.86-3.24,6.06-4.35,1.9-.95,4.1-1.5,6.06-2.32,4.76-1.88,9.6-3.85,14.71-4.49,4.02-.54,8.16-.2,12.12.59,3.15.61,6.31,1.63,9.52,1.9"/><path class="b" d="M9.01,155.79c.79,0,1.83.05,2.6-.16.46-.3,1.28-.9,1.73-1.19,1.59-1.1,3.42-2.08,5.19-2.85,5.26-2.62,10.42-6.13,16.45-6.57,3.82-.33,7.64.65,11.25,1.8,3.53.99,7.03,2.3,10.39,3.78,4.51,1.96,9.16,3.7,13.85,5.16,2.56.09,5.22.02,7.79.04,18.75,0,37.51,0,56.26,0,2.35-1.79,4.91-3.6,7.79-4.41,4.06-1.01,8.13-2.22,12.12-3.48,5.09-1.56,10.25-3.3,15.58-3.82,4.3-.35,8.68.47,12.98-.02"/><path class="b" d="M9.01,149.57c1.99-1.43,4.02-3.04,6.06-4.41,1.95-1.27,4.19-2.32,6.06-3.72,5.02-3.65,10.87-7.68,17.31-5.22,3.1,1.08,5.88,3.03,8.66,4.73,3.06,1.78,6.26,3.5,9.52,4.87,3.29,1.38,6.85,2.23,10.39,2.68,3.77.51,7.74.72,11.25,2.3,1.03.46,2.37.23,3.46.28,1.98,0,4.08,0,6.06,0,5.76,0,11.55,0,17.31,0,9.22,0,18.47,0,27.7,0,1.08,0,2.38.03,3.46-.04,2.13-1.14,4.52-2.05,6.92-2.38,4.38-.67,8.8-1.55,12.98-3.05,4.37-1.5,8.57-3.63,12.98-5.02,2.2-.75,4.62-.89,6.92-1.03,2.29-.22,4.67-.65,6.92-1.14"/><path class="b" d="M9.01,142.87c2.01-1.36,4.04-2.92,6.06-4.27,1.66-1.11,3.61-2.05,5.19-3.27,3.73-2.72,7.38-6.24,12.12-6.95,7.38-.83,12.31,5.98,18.18,9.24,5.18,3.36,11.17,4.82,17.31,4.34,3.45-.14,7.11-.46,10.39.85,2.08.92,4.06,2.33,6.06,3.41.76.23,1.82.18,2.6.18,17.02,0,34.05,0,51.07,0,3.11-.68,6.35-.95,9.52-1.17,3.52-.32,7.06-1.06,10.39-2.26,4.39-1.52,8.51-3.89,12.98-5.18,1.64-.5,3.51-.53,5.19-.75,2.3-.32,4.67-.88,6.92-1.43"/><path class="b" d="M9.01,138.07c2.03-1.14,4.08-2.51,6.06-3.73,2.03-1.19,4.24-2.34,6.06-3.85,5.21-4.19,11.14-9.36,18.18-6.05,4.91,2.25,8.85,6.27,13.85,8.39,6.32,3.05,12.36,2.19,19.04,1.67,2.98-.18,6.08.32,8.66,1.9,3.41,1.8,6.89,3.65,10.39,5.3,1.98,0,4.08,0,6.06,0,12.98,0,25.97,0,38.95,0,1.69-.19,3.48-.69,5.19-.75,4.02-.17,8.12.16,12.12-.41,5.7-.66,10.97-3.18,16.45-4.73,1.93-.56,4.06-.64,6.06-.75,2.28-.17,4.66-.47,6.92-.76"/><path class="b" d="M9.01,133.49c2.05-.89,4.11-2.04,6.06-3.14,2.07-1.12,4.25-2.33,6.06-3.85,6.23-5.12,12.3-10.79,20.77-6.73,2.66,1.18,5.17,2.85,7.79,4.09,2.72,1.3,5.68,2.31,8.66,2.82,5.71,1.08,11.58-.06,17.31.71,3.39.45,6.42,2.29,9.52,3.6,4.8,2.16,9.72,4.22,14.71,5.9,3.71.28,7.53.03,11.25.11,6.62-.01,13.28.02,19.91-.01,2.53-.62,5.19-1.08,7.79-1.21,5.76-.23,11.56,1.17,17.31.25,5.62-.66,10.85-3.24,16.45-4.02,3.43-.29,6.96,0,10.39.27"/><path class="b" d="M9.01,127.97c3.64-1.24,7.18-3.06,10.39-5.19,3.45-2.45,6.63-5.44,10.39-7.43,7.43-4.07,12.85-.68,19.91,1.86,5.29,1.74,10.92,2.12,16.45,2.34,3.75.17,7.6.37,11.25,1.3,4.08,1.15,8.04,2.91,12.12,4.1,5.36,1.7,10.93,2.81,16.45,3.85,2.87.48,5.75,1.44,8.66,1.68,6.08.39,12.11-1.11,18.18-1.24,5.53-.31,11,.88,16.45,1.68,4.02.54,8.17.33,12.12-.57,8.81-2.1,12.35-4.29,21.64-1.1"/><path class="b" d="M9.01,121.27c3.71-.91,7.22-2.69,10.39-4.79,5.18-3.5,10.71-7.76,17.31-7.33,5.62.33,10.77,3.32,16.45,3.42,6.91.37,13.93-.17,20.77,1.09,4.37.71,8.63,2.18,12.98,3,4.83.98,9.8,1.27,14.71,1.43,2.57.1,5.25.23,7.79.65,3.11.69,6.33,1.25,9.52,1.35,5.19.24,10.45.35,15.58,1.27,4.98.8,9.81,2.42,14.71,3.56,4.24.97,8.71,1.05,12.98.23,8.7-1.63,12.09-4.17,20.77.36"/><path class="b" d="M9.01,114.01c7-1.09,12.21-6.67,19.04-8.25,7.91-2,13.48,2.57,20.77,3.55,2.87.23,5.82-.19,8.66-.61,4.28-.67,8.65-1.26,12.98-1.04,4.06.14,8.1,1.01,12.12,1.59,3.99.56,8.11.6,12.12.19,4.31-.39,8.64-1.29,12.98-1.17,2.02.02,4.09.58,6.06.95,1.97.35,4.08.65,6.06.94,4.67.66,9.36,1.58,13.85,3.02,5.28,1.64,10.38,3.93,15.58,5.77,4.14,1.45,8.61,2.1,12.98,1.64,4.34-.33,8.62-1.84,12.98-1.71,2.77.31,5.37,1.69,7.79,2.98"/><path class="b" d="M9.01,107.61c2.37-.33,4.77-1.07,6.92-2.11,2.23-1.15,4.51-2.5,6.92-3.23,5.99-2.11,12.07.35,17.31,3.26,2.71,1.38,5.56,2.99,8.66,3.18,3.87.14,7.62-1.27,11.25-2.44,4.73-1.62,9.68-2.94,14.71-2.99,2.86-.09,5.79.3,8.66.31,3.77.03,7.58-.5,11.25-1.33,13.7-3.36,12.35-2.97,25.97-.17,7.62,1.55,14.77,4.77,21.64,8.34,6.74,3.56,13.75,7.62,21.64,7.23,3.75,0,7.51-.95,11.25-.86,1.76.12,3.52.93,5.19,1.41.75,0,1.84,0,2.6,0"/><path class="b" d="M9.01,101.51c2.35-.45,4.74-1.21,6.92-2.17,2.94-1.46,6.17-2.76,9.52-2.5,5.94.39,10.76,4.37,15.58,7.45,4.39,2.94,7.83,3.99,12.98,2.32,5.01-1.55,9.7-4.13,14.71-5.68,4.45-1.53,9.19-1.84,13.85-2.18,7.84-.82,14.85-4.9,22.5-6.45,3.49-.79,7,.18,10.39.99,5.34,1.19,10.64,2.86,15.58,5.25,5.66,2.75,11.11,6.02,16.45,9.34,2.48,1.55,5.11,3.09,7.79,4.26,1.62.66,3.4,1.53,5.19,1.36,7.49,0,15.01,0,22.5,0"/><path class="b" d="M9.01,96.15c2.31-.68,4.68-1.53,6.92-2.4,2.7-1.18,5.71-1.95,8.66-1.47,8.06,1.24,13.47,8.25,20.77,11.23,3.07,1.21,6.48.4,9.52-.5,5.26-1.68,10.29-4.13,15.58-5.72,4.5-1.54,9.34-1.92,13.85-3.39,6.82-2.26,12.9-6.51,19.91-8.25,1.65-.38,3.5-.58,5.19-.43,2.02.22,4.09.88,6.06,1.38,4.77,1.28,9.45,3.06,13.85,5.31,6.25,3.24,12.23,7.06,18.18,10.82,2.5,1.6,5.12,3.2,7.79,4.49,1.61.72,3.36,1.77,5.19,1.57,7.49,0,15.01,0,22.5,0"/><path class="b" d="M9.01,92.41c3.14-1.06,6.3-2.35,9.52-3.14,6.58-1.47,12.76,2.16,18.18,5.44,9.19,5.71,11.46,5.28,21.64,2.57,4.6-1.28,9.23-2.64,13.85-3.83,3.76-1.03,7.67-1.84,11.25-3.4,6.95-3.02,13.22-7.89,20.77-9.37,3.48-.76,7.06,0,10.39,1.08,5.09,1.5,10.04,3.62,14.71,6.14,6.15,3.34,12.09,7.14,18.18,10.58,2.5,1.44,5.14,2.85,7.79,4.01,1.64.61,3.4,1.68,5.19,1.6,7.49,0,15.01,0,22.5,0"/><path class="b" d="M9.01,90.36c10.26-3.41,14.83-3.89,25.1-.02,4.18,1.49,8.46,3.4,12.98,3.36,5.78-.59,11.55-1.77,17.31-2.54,6.17-.95,12.5-1.92,18.18-4.64,7.23-3.45,14.22-8.47,22.5-8.72,7.92-.15,18.94,5.22,25.97,8.89,9.17,4.88,18.27,10.6,28.56,12.7,7.78,0,15.59,0,23.37,0"/><path class="b" d="M9.01,89.25c5.15-.85,10.32-2.13,15.58-1.93,6.09.07,12.1,1.49,18.18,1.71,4.38.23,8.65-1.18,12.98-1.56,5.75-.68,11.6-.74,17.31-1.75,11.55-2.01,19.17-10.43,32.02-8.85,12.27,1.85,23.41,7.87,34.62,12.86,5.47,2.48,11.33,4.32,17.31,4.97,8.65,0,17.32,0,25.97,0"/><path class="b" d="M9.01,87.87c5.51.13,10.95-1.23,16.45-1.37,6.33-.34,12.72.28,19.04-.33,3.5-.35,6.93-1.46,10.39-2.05,4.57-.88,9.24-1.43,13.85-2.07,3.18-.45,6.43-1,9.52-1.9,3.16-.97,6.31-2.24,9.52-3.08,9.65-2.81,17.62-.33,26.83,2.47,5.81,1.71,11.59,3.66,17.31,5.66,4.83,1.63,9.69,3.47,14.71,4.4,1.95.44,4.07.42,6.06.39,2.57,0,5.22,0,7.79,0,7.49,0,15.01,0,22.5,0"/><path class="b" d="M9.01,85.3c3.73-.02,7.52.05,11.25-.03,2.85-.46,5.79-.9,8.66-1.23,5.74-.71,11.6-.77,17.31-1.72,4.4-.81,8.67-2.34,12.98-3.48,4.24-1.17,8.62-2.04,12.98-2.65,4.03-.47,8.07-1.35,12.12-1.7,5.53-.4,11.11.5,16.45,1.91,12.28,3.42,24.62,6.9,37.22,8.9,5.76,0,11.55,0,17.31,0,2.27-.13,4.65-.36,6.92-.35,1.99-.03,4.08.17,6.06.35,4.89,0,9.83,0,14.71,0"/><path class="b" d="M9.01,80.6c6.33-.02,12.71.04,19.04-.03,6.83-1.52,13.93-1.48,20.77-2.93,7.29-1.96,14-6.06,21.64-6.76,5.17-.46,10.56-.5,15.58.97,4.39,1.28,8.65,3.09,12.98,4.53,4.22,1.45,8.61,2.55,12.98,3.42,1.38.26,2.92.65,4.33.8,1.98,0,4.08,0,6.06,0,4.6,0,9.25,0,13.85,0,4.31,0,8.67,0,12.98,0,3.67-1.07,7.43-2.2,11.25-2.54,5.02-.54,10.05.66,14.71,2.47,2.56.15,5.23.03,7.79.06"/><path class="b" d="M9.01,75.9c6.34,0,12.71,0,19.04,0,2.29-.19,4.62-.86,6.92-1.04,3.14-.36,6.37-.45,9.52-.7,3.96-.17,7.77-1.46,11.25-3.31,6.59-3.46,13.21-6.23,20.77-4.49,5.74.88,10.6,4.22,15.58,6.96,1.64.89,3.46,1.79,5.19,2.49,2.55.22,5.23.04,7.79.09,5.47,0,10.98,0,16.45,0,5.47,0,10.98,0,16.45,0,1.98,0,4.08,0,6.06,0,.76,0,1.84.04,2.6-.12.41-.22,1.32-.65,1.73-.87,7.4-3.98,14.26-6.26,22.5-3.07,1.71.6,3.48,1.47,5.19,2.05,2.22.75,4.62,1.25,6.92,1.63"/><path class="b" d="M9.01,71.2c6.05,0,12.13,0,18.18,0,2.28-.06,4.63-.74,6.92-.79,3.44-.24,6.95-.02,10.39-.07,4.19.1,7.7-1.2,11.25-3.32,5.46-3.19,11.67-6.51,18.18-4.91,2.69.61,5.38,1.69,7.79,3.04,2.99,1.78,5.77,4.07,8.66,6.02,14.71.08,29.43,0,44.14.03,3.15,0,6.37,0,9.52,0,1.91-.48,3.5-2.14,5.19-3.1,7.05-4.87,13.46-6.94,21.64-3.23,3.9,1.86,7.93,3.54,12.12,4.64"/><path class="b" d="M9.01,66.5c13.55,0,27.13,0,40.68,0,1.2.14,2.44-.41,3.46-.97,1.42-.74,2.95-1.67,4.33-2.5,3.69-2.23,7.71-4.46,12.12-4.6,5.04-.11,9.85,2.3,13.85,5.18,1.1.81,2.38,1.81,3.46,2.64,1.91.53,4.09.13,6.06.24,14.71,0,29.43,0,44.14,0,2.27-.08,4.68.18,6.92-.14,2.6-1.8,5.14-3.87,7.79-5.59,8.14-5.49,14.27-4.24,22.5.21,2.79,1.37,5.78,2.52,8.66,3.68"/><path class="b" d="M9.01,61.8c10.67,0,21.36,0,32.02,0,4.89-.07,9.84.14,14.71-.09,2.53-1.43,5.1-2.99,7.79-4.11,3.79-1.65,8.14-2.07,12.12-.88,3.42.95,6.63,2.67,9.52,4.7.72.47,1.78.38,2.6.37,1.09,0,2.38,0,3.46,0,3.44,0,6.95,0,10.39,0,13.27,0,26.55,0,39.81,0,.76,0,1.84.03,2.6-.1.77-.51,1.84-1.23,2.6-1.76,1.66-1.17,3.46-2.46,5.19-3.54,7.55-4.9,13.79-4.51,21.64-.47,3.09,1.51,6.37,2.82,9.52,4.2"/><path class="b" d="M9.01,57.1c11.53,0,23.09,0,34.62,0,5.46-.07,10.99.13,16.45-.08,2.22-.92,4.58-1.79,6.92-2.32,3.38-.79,6.99-.81,10.39-.1,1.73.35,3.56.88,5.19,1.55,1.05.43,2.28,1.11,3.46.96,7.49,0,15.01,0,22.5,0,7.78,0,15.59,0,23.37,0,2.57,0,5.22,0,7.79,0,1.68-.14,3.72.43,5.19-.57,6.6-3.86,13.56-8.96,21.64-7.68,2.99.4,5.89,1.53,8.66,2.68,2.57,1.02,5.25,2.03,7.79,3.11"/><path class="b" d="M9.01,52.4c16.73,0,33.47,0,50.2,0,2.57-.04,5.23.08,7.79-.06,3.39-.75,6.91-1.29,10.39-1.28,3.5-.05,6.97.78,10.39,1.34,8.94,0,17.9,0,26.83,0,7.2,0,14.44,0,21.64,0,2.86,0,5.8,0,8.66,0,1.52.12,2.96-1.01,4.33-1.54,14.81-7.24,18.63-6.08,33.76-1.17"/><path class="b" d="M9.01,47.7c20.77,0,41.55,0,62.32,0,6.45-1.66,13.24-2.92,19.91-2.01,2.36.33,4.7,1.19,6.92,2.01,2.86,0,5.8,0,8.66,0,13.84,0,27.7,0,41.55,0,1.68-.03,3.52.08,5.19-.07,2.54-.86,5.18-1.73,7.79-2.37,3.08-.76,6.34-1.23,9.52-1.02,1.71.09,3.51.53,5.19.81,2.27.38,4.66.7,6.92,1.08"/><path class="b" d="M9.01,43c16.44,0,32.9,0,49.34,0,3.73,0,7.52,0,11.25,0,1.77-.08,3.51-1.12,5.19-1.64,3.34-1.32,6.92-2.09,10.39-2.97,6.9-1.82,12.66.41,18.18,4.56,26.54.15,53.09,0,79.63.05"/><path class="b" d="M9.01,38.3c8.07,0,16.17,0,24.23,0,2.01.14,4.06-.48,6.06-.51,2.28-.08,4.66.19,6.92.41,3.43.23,6.95.05,10.39.1,3.44-.06,6.96.12,10.39-.08,4.72-1.3,9.06-3.88,13.85-4.96,5.05-1.55,10.47-3.14,15.58-.88,2.14.87,4.21,2.19,6.06,3.55,1.09.73,2.21,1.92,3.46,2.37,8.36,0,16.74,0,25.1,0,17.31,0,34.63,0,51.93,0"/><path class="b" d="M9.01,33.6c7.49,0,15.01,0,22.5,0,4.09-1.73,8.54-2.58,12.98-2.38,4.34-.02,8.68.46,12.98.95,4.37.42,8.83-.18,12.98-1.58,3.43-1.11,6.82-2.62,10.39-3.27,2.81-.63,5.75-1.3,8.66-1.12,5.71.27,10.44,3.96,14.71,7.4h78.76"/><path class="b" d="M9.01,28.9c6.91,0,13.86,0,20.77,0,2.85-1.11,5.7-2.5,8.66-3.33,3.62-1.09,7.47-1.66,11.25-1.68,3.47.07,6.94.85,10.39,1.13,3.15.28,6.41.13,9.52-.47,13.73-3.21,19.3-6.1,31.16,4.21,3.41.37,6.95.05,10.39.15,6.34,0,12.71,0,19.04,0,17.59,0,35.2,0,52.8,0"/><path class="b" d="M9.01,24.2c4.6,0,9.25,0,13.85,0,1.69,0,3.51,0,5.19,0,1.11,0,2.44.1,3.46-.42,7.23-2.69,14.49-7.2,22.5-5.81,5.15.73,10.36,1.77,15.58,1.26,12.12-1.31,15.86-4.96,26.83,3.83,1.29,1.4,2.61,1.13,4.33,1.13,2.27,0,4.65,0,6.92,0,6.33,0,12.71,0,19.04,0,18.75,0,37.51,0,56.26,0"/><path class="b" d="M9.01,17.11c2.94.42,5.86,1.37,8.66,2.34,5.46.15,10.98.01,16.45.06,1.49.05,2.97-.97,4.33-1.49,3.1-1.41,6.19-3.13,9.52-3.92,6.62-1.25,13.26,1.32,19.91,1.15,12.97-.08,15.66-5.15,27.7,4.26h87.42"/></svg>