<?xml version="1.0" encoding="UTF-8"?><svg id="a" xmlns="http://www.w3.org/2000/svg" width="1920" height="2400" viewBox="0 0 192 240"><defs><style>.b{fill:none;stroke:#fff;stroke-miterlimit:10;stroke-width:.4px;}.c{stroke-width:0px;}</style></defs><rect class="c" x="0" width="192" height="240"/><path class="b" d="M8.4,228.92c6.77-1.23,11.62-7.03,18.3-8.54,6.39-1.73,12.34,1.8,18.3,3.49,2.25.62,4.68.23,6.97.38,3.18.14,6.42.55,9.59.9,6.94.9,14.01.91,20.92,2.02,6.62,1.21,13.24,3.34,20.05,2.84,3.64-.18,7.14-1.41,10.46-2.82,6.94-2.52,14.38-.24,20.92,2.45,3.42,1.43,6.95,2.74,10.46,3.93,1.38.23,2.96.08,4.36.12,11.61,0,23.25,0,34.87,0"/><path class="b" d="M8.4,225.09c8.06-1.6,13.8-8.56,21.79-10.38,4.91-1.29,9.94-.05,14.82.74,2.86.4,5.85.06,8.72.52,7.29,1.03,14.5,2.72,21.79,3.76,3.52.53,7.08,1.23,10.46,2.36,6.2,1.96,12.56,4.45,19.18,3.89,3.35-.15,6.42-1.72,9.59-2.6,7.62-2.04,15.44.36,22.66,2.82,2.85,1,5.88,1.71,8.72,2.75,1.39,0,2.96,0,4.36,0,11.03,0,22.09,0,33.12,0"/><path class="b" d="M8.4,219.48c7.43-.1,13.53-4.77,20.05-7.7,3.83-1.75,7.99-2.91,12.2-3.14,4.04-.15,8.19-.13,12.2.43,7.92,1.36,15.69,3.6,23.53,5.35,9.77,2,18.6,8.02,28.76,8.04,3.9.09,7.55-1.6,11.33-2.29,9.12-1.95,18.24.78,27.02,3.05,1.09.28,2.4.64,3.49.95,1.69.07,3.53.02,5.23.04,3.46,0,7,0,10.46,0,4.92,0,9.89,0,14.82,0,2.01-.13,4.08-.88,6.1-1.04"/><path class="b" d="M8.4,212.36c7.13,1.64,11.78.29,18.3-2.51,10.08-4.36,16.66-7.82,27.89-4.92,8.2,1.96,16.4,4.18,24.41,6.83,7.47,2.66,14.75,6.24,22.66,7.38,4.97.86,9.97-.12,14.82-1.2,4.28-.86,8.7-1.46,13.07-1.34,6.5.02,12.76,2.15,19.18,2.88,7.26-.04,14.56.23,21.79-.47,1.99-.16,4.12-.1,6.1-.32,2.32-.29,4.7-.87,6.97-1.39"/><path class="b" d="M8.4,204.47c2.28.96,4.59,2.14,6.97,2.81,6.5,1.62,13.16-.46,19.18-2.91,4.67-1.81,9.71-4.1,14.82-2.89,8.86,1.89,17.59,4.55,26.15,7.51,3.8,1.39,7.49,3.23,11.33,4.51,1.67.51,3.45,1.36,5.23,1.25,10.16,0,20.35,0,30.51,0,1.42.07,2.96-.39,4.36-.6,2.27-.38,4.67-.63,6.97-.66,4.1-.19,8.15.91,12.2,1.22,7.02.21,13.9-1.96,20.92-1.98,7.28-.16,8.96,2.36,16.56-.88"/><path class="b" d="M8.4,196.99c2.32,1.37,4.58,3.07,6.97,4.3,4.85,2.26,10.44,3.06,15.69,1.91,4.42-.85,8.61-2.86,13.07-3.48,3.58-.5,7.06,1.02,10.46,1.91,4.66,1.4,9.34,2.88,13.95,4.43,2.31.79,4.71,1.65,6.97,2.57,1.39.48,2.84,1.52,4.36,1.38,9,0,18.02,0,27.02,0,14.52,0,29.06,0,43.58,0,2.35-.19,4.68-1.22,6.97-1.74,3.38-.92,6.94-1.6,10.46-1.45,7.1.31,8.24,3.65,15.69-.55"/><path class="b" d="M8.4,191.44c2.34,1.44,4.59,3.23,6.97,4.6,4.03,2.06,8.52,3.57,13.07,3.72,4.73.19,9.31-1.31,13.95-1.97,3.92-.73,7.69.81,11.33,2.06,4.66,1.63,9.34,3.37,13.95,5.14,1.03.49,2.38.25,3.49.3,1.7,0,3.53,0,5.23,0,5.51,0,11.05,0,16.56,0,13.65,0,27.32,0,40.97,0,6.38,0,12.8,0,19.18,0,1.19-.07,2.4-.87,3.49-1.29,1.66-.73,3.5-1.48,5.23-2.03,12.29-3.92,12.18,3.44,21.79-2.16"/><path class="b" d="M8.4,187.67c2.32,1.1,4.62,2.49,6.97,3.52,5.83,2.19,12.04,3.73,18.3,3.58,6.11-.13,11.57-1.07,17.43,1.37,3.83,1.27,7.59,2.91,11.33,4.41,8.13,0,16.28,0,24.41,0,16.85,0,33.71,0,50.55,0,5.51,0,11.06,0,16.56,0,.93.15,1.86-.69,2.61-1.12,1.36-.84,2.93-1.73,4.36-2.46,2.69-1.36,5.68-2.43,8.72-2.61,2.03-.18,4.13.34,6.1.71,2.7.29,5.44-.63,7.84-1.78"/><path class="b" d="M8.4,185.25c3.7.98,7.51,1.71,11.33,2.02,3.76.48,7.57,1.08,11.33,1.55,4.63.61,9.35,1.01,13.95,1.87,3.23.63,6.46,1.63,9.59,2.67,2.03.69,4.14,1.51,6.1,2.37,4.33.21,8.74.02,13.07.08,27.31,0,54.62,0,81.93,0,5.01-3.82,10.83-7.83,17.43-7.24,3.48.64,7.12.45,10.46-.75"/><path class="b" d="M8.4,183.83c3.51-.14,7-.92,10.46-1.47,2.86-.4,5.84-.46,8.72-.22,5.94.49,11.7,2.28,17.43,3.81,4.31,1.17,8.81,1.83,13.07,3.2,1.74.52,3.53,1.3,5.23,1.93,3.76,0,7.58,0,11.33,0,8.42,0,16.86,0,25.28,0,15.97,0,31.96,0,47.94,0,2.88,0,5.84,0,8.72,0,1.32-.3,2.37-1.63,3.49-2.33,3.77-2.79,8.28-5.02,13.07-4.93,3.46.2,7.02.5,10.46-.16"/><path class="b" d="M8.4,182.76c3.02-.99,5.84-2.65,8.72-3.97,5.39-2.61,11.64-3.32,17.43-1.69,3.84.97,7.53,2.61,11.33,3.69,2.24.65,4.66.89,6.97,1.15,5.47.43,10.81,1.91,15.69,4.4,4.92,0,9.89,0,14.82,0,16.27,0,32.55,0,48.81,0,8.99-.1,18.04.21,27.02-.12,4.17-3.42,9.31-6.07,14.82-6.01,3.18,0,6.41.55,9.59.4"/><path class="b" d="M8.4,181.06c2.77-1.51,5.27-3.62,7.84-5.4,6.12-4.33,12.72-6.34,20.05-3.97,3.8,1.09,7.44,2.94,11.33,3.72,3.43.6,7,.28,10.46.53,3.59.21,7.2,1.12,10.46,2.63,1.12.51,2.42,1.19,3.49,1.8.77.42,1.73,1.13,2.61,1.26,6.67,0,13.38,0,20.05,0,18.59,0,37.19,0,55.78,0,3.46,0,7,0,10.46,0,1.78-.7,3.42-2.06,5.23-2.72,2.99-1.28,6.34-1.85,9.59-1.74,2.6.14,5.25.7,7.84.81"/><path class="b" d="M8.4,176.88c1,.09,1.87-.88,2.61-1.41,1.72-1.36,3.49-2.93,5.23-4.27,4.49-3.43,9.86-6.43,15.69-6.06,6.08.22,11.44,3.79,17.43,4.44,3.46.29,6.99-.22,10.46-.11,3.25.06,6.56.71,9.59,1.91,3.67,1.41,7.02,3.62,10.46,5.49,6.96,0,13.96,0,20.92,0,19.46,0,38.94,0,58.4,0,1.08,0,2.4,0,3.49,0,1.4-.6,2.9-1.44,4.36-1.91,2.76-.94,5.8-1.32,8.72-1.17,2.61.21,5.24.89,7.84,1.14"/><path class="b" d="M8.4,171.51c10.53-7.94,17.87-16.98,32.25-11.23,4.18,1.58,8.51,3.4,13.07,2.82,4.33-.36,8.71-1.27,13.07-.86,6.37.59,12.39,3.57,17.43,7.39,1.11.77,2.22,2,3.49,2.51,2.29,0,4.68,0,6.97,0,5.51,0,11.05,0,16.56,0,15.68,0,31.38,0,47.07,0,1.39-.02,2.97.06,4.36-.07,1.33-.67,2.91-1.26,4.36-1.6,2.82-.65,5.86-.62,8.72-.21,2.62.46,5.22,1.43,7.84,1.88"/><path class="b" d="M8.4,165.19c3.87-2.58,7.4-5.76,11.33-8.26,3.18-2.15,6.64-4.19,10.46-4.89,4.8-.94,9.57.78,13.95,2.61,4.12,1.84,7.72,2.6,12.2,1.73,9.78-1.97,17.16-4.23,26.15,1.96,3.73,2.56,7.1,5.74,10.46,8.76.73.41,1.81.33,2.61.33,1.4,0,2.96,0,4.36,0,4.05,0,8.15,0,12.2,0,15.39,0,30.8,0,46.2,0,1.56.23,2.96-.87,4.36-1.36,1.62-.6,3.5-.93,5.23-.93,3.57.06,7.14,1.02,10.46,2.28,1.69,0,3.54,0,5.23,0"/><path class="b" d="M8.4,159.65c3.87-2.23,7.55-4.9,11.33-7.28,3.27-2.21,6.64-4.58,10.46-5.74,5.64-1.88,11.4.43,16.56,2.69,4.09,1.99,8.8,1.66,13.07.5,5.11-1.27,10.34-3.27,15.69-2.47,3.85.58,7.25,2.84,10.46,4.92,4.85,3.16,9.17,7.19,13.95,10.43,15.97,0,31.96,0,47.94,0,2.29,0,4.68,0,6.97,0,1.29,0,2.35-1.31,3.49-1.81,1.58-.88,3.43-1.56,5.23-1.75,4.66-.56,8.86,2.04,13.07,3.56,2.29,0,4.68,0,6.97,0"/><path class="b" d="M8.4,155.59c2.07-.87,4.14-2.03,6.1-3.11,2.04-1.09,4.22-2.2,6.1-3.57,5.89-4.25,12.35-9.16,20.05-7.11,7.39,1.95,9.88,5.1,18.3,3.31,5.77-1.1,11.45-3.87,17.43-3.11,2.75.37,5.28,1.84,7.84,2.83,4.11,1.71,8.25,3.51,12.2,5.55,4.46,2.28,8.8,4.9,13.07,7.5,6.08.22,12.22.01,18.3.08,6.38,0,12.8,0,19.18,0,1.4-.1,3.06.28,4.36-.33.4-.37,1.32-1.08,1.74-1.42,3.97-3.29,8.94-5.31,13.95-3.07,3.1,1.17,5.71,3.5,8.72,4.82,2.58,0,5.26,0,7.84,0"/><path class="b" d="M8.4,153.13c2.05-.65,4.14-1.58,6.1-2.45,2.07-.88,4.27-1.81,6.1-3.15,5.16-3.57,10.06-8.42,16.56-9.21,8.48-.79,11.98,4.52,21.79,2.59,6.34-.98,12.68-4.05,19.18-2.6,2.56.79,5.17,1.79,7.84,2.17,8.94,1.3,16.47,2.14,24.41,7.05,2.83,1.52,5.15,3.99,7.84,5.69,8.13,0,16.28,0,24.41,0,1.09-.03,2.41.1,3.49-.14,1.76-1.18,3.53-2.64,5.23-3.9,10.2-7.87,15.04-2.36,23.53,4.05h8.72"/><path class="b" d="M8.4,148.49c2.29-.05,4.69.12,6.97-.09,7.26-1.86,12.18-8.36,19.18-10.86,4.77-1.96,9.96-1.05,14.82.03,3.15.52,6.44.35,9.59-.14,6.05-.88,12.14-3.07,18.3-2.08,2.88.63,5.72,1.78,8.72,1.77,10.64.14,18.4-1.62,27.89,5.1,3.12,2.12,6.06,4.84,9.59,6.27,4.63,0,9.31,0,13.95,0,1.45-.3,2.95-1.05,4.36-1.47,1.45-.39,3.05-.93,4.36-1.67,3.62-1.95,7.12-4.67,11.33-5.14,6.48-.72,10.95,4.88,15.69,8.27h10.46"/><path class="b" d="M8.4,143.76c14.01-.08,9.54,1.19,21.79-5.48,4.52-2.44,9.66-3.83,14.82-3.52,3.46.22,7,.48,10.46.04,5.52-.56,11-1.94,16.56-2.03,2.01-.03,4.14.15,6.1.6,1.7.43,3.48,1.08,5.23,1.28,3.45.48,7.01.16,10.46-.17,4.61-.46,9.4-.86,13.95.29,9.13,2.55,14.56,9.87,25.28,7.8,2.34-.42,4.7-1.21,6.97-1.88,1.67-.53,3.56-.8,5.23-1.35,3.12-1.02,6.27-2.4,9.59-2.61,3.76-.3,7.44,1.26,10.46,3.4,1.13.79,2.43,1.8,3.49,2.68.53.71,1.75,1.07,2.61.94,4.05,0,8.16,0,12.2,0"/><path class="b" d="M8.4,138.68c1.99-.16,4.1-.24,6.1-.12,1.41.07,2.95.41,4.36.38,6.39-.36,12.11-3.82,18.3-5.13,4.83-1.26,9.9-1.13,14.82-1.75,5.82-.82,11.55-2.49,17.43-2.85,2.59-.16,5.3-.04,7.84.48,2.88.67,5.75,1.74,8.72,2.05,6.06.84,12.22-.03,18.3.12,4.54-.02,8.83,1.61,13.07,3.02,3.91,1.26,8.08,2.04,12.2,1.73,5.3-.37,10.42-2.18,15.69-2.77,5.61-1.1,11.45-.94,16.56,1.88,1.12.58,2.43,1.35,3.49,2.03.73.45,1.68,1.34,2.61,1.27,5.21,0,10.48,0,15.69,0"/><path class="b" d="M8.4,130.09c3.62.22,7.05,1.54,10.46,2.63,2.25.54,4.68.59,6.97.4,7.31-.8,14.5-2.67,21.79-3.67,5.38-.81,10.46-2.97,15.69-4.36,8.25-2.23,13.05-1.63,20.92,1.29,5.89,1.99,12.09,3.02,18.3,3.16,2.59.11,5.27.17,7.84.51,4.02.65,8.12,1.28,12.2,1.31,6.75.18,13.39-1.41,20.05-2.23,4.35-.51,8.85-.29,13.07.91,3.31.92,6.53,2.36,9.59,3.91.69.43,1.83.35,2.61.34,1.39,0,2.96,0,4.36,0,3.76,0,7.58,0,11.33,0"/><path class="b" d="M8.4,121.63c3.37.97,6.53,2.69,9.59,4.39,2.16,1.08,4.59,1.79,6.97,2.12,6.12.8,12.31-.33,18.3-1.52,2.6-.57,5.33-1.06,7.84-1.95,3.56-1.28,6.99-3.07,10.46-4.57,7.56-3.38,14.2-4.34,21.79-.46,5.07,2.36,10.16,4.97,15.69,6.07,5.43,1.05,11.05,1.12,16.56,1.3,7-.05,13.98-1.04,20.92-1.85,2.88-.31,5.82-.79,8.72-.9,3.2-.08,6.47.39,9.59,1.07,5.03,1.01,9.87,2.98,14.82,4.22,4.63,0,9.32,0,13.95,0"/><path class="b" d="M8.4,115.52c3.35,1.56,6.47,3.71,9.59,5.67,2.39,1.39,5.12,2.32,7.84,2.72,7.05.98,14.11-.85,20.92-2.51,5.68-1.18,10.56-4.54,15.69-7.08,7.27-3.72,13.6-4.73,20.92-.49,5.58,2.98,11.14,6.38,17.43,7.59,11.24,1.92,22.73.64,33.99-.41,4.65-.36,9.27-1.51,13.95-1.53,7.02,0,14.05,1.04,20.92,2.44,2.31.45,4.66,1.25,6.97,1.7,2.28.39,4.7.57,6.97,1.01"/><path class="b" d="M8.4,109.81c5.49,2.95,10.22,7.7,16.56,8.76,5.78,1.1,11.75.13,17.43-1.09,2.6-.61,5.33-1.18,7.84-2.1,3.33-1.31,6.45-3.27,9.59-4.97,5.22-2.93,11.45-5.42,17.43-3.47,4.05,1.34,7.61,3.95,11.33,5.98,4.05,2.32,8.45,4.23,13.07,5,4.59.69,9.31.89,13.95,1.02,7.3-.07,14.61-1.05,21.79-2.34,5.78-1.15,11.52-2.8,17.43-3.16,4.92-.39,9.97-.29,14.82.73,2.35.46,4.7,1.33,6.97,2.08,2.31.73,4.74,1.49,6.97,2.47"/><path class="b" d="M8.4,103.93c4.12,2.3,7.88,5.37,12.2,7.29,7.69,3.14,16.4,2.68,24.41,1.08,7.09-1.17,12.57-6.28,19.18-8.7,9.82-3.71,15.79,1.96,23.53,6.91,3.25,1.99,6.72,3.99,10.46,4.86,2.58,0,5.26,0,7.84,0,6.96,0,13.96,0,20.92,0,1.09-.01,2.4.04,3.49-.05,1.09-.3,2.4-.67,3.49-.99,2.89-.86,5.85-1.82,8.72-2.78,17.49-6.32,24.73-7.83,40.97,2.89"/><path class="b" d="M8.4,98.68c4.6,2.52,8.98,5.64,13.95,7.42,7.81,2.59,17.2,4.14,25.28,2,6.46-1.99,11.51-7.41,18.3-8.54,6.3-1.2,11.91,2.73,16.56,6.48,1.38,1.07,2.94,2.27,4.36,3.29.75.49,1.65,1.4,2.61,1.3,3.76,0,7.58,0,11.33,0,11.61,0,23.25,0,34.87,0,.77,0,1.85,0,2.61-.03,1.08-.5,2.39-1.09,3.49-1.57,4.16-1.68,8.08-4.01,12.2-5.77,7.66-3.44,14.93-2.91,21.79,2.05,1.74,1.18,3.56,2.54,5.23,3.82.71.52,1.65,1.52,2.61,1.49"/><path class="b" d="M8.4,94.35c3.71,1.98,7.48,4,11.33,5.69,3.39,1.42,6.94,2.59,10.46,3.63,4.24,1.22,8.62,2.47,13.07,2.22,1.74.08,3.59-.1,5.23-.72,6.24-2.41,11.28-8.18,18.3-8.38,4.26-.12,8.13,2.24,11.33,4.84,1.76,1.3,3.31,3.19,5.23,4.26,8.13,0,16.28,0,24.41,0,11.61,0,23.25,0,34.87,0,.41,0,1.33,0,1.74,0,1.11-.63,2.42-1.45,3.49-2.16,1.98-1.3,4.05-2.71,6.1-3.9,11.88-6.97,17.86-1.74,27.02,6.06h2.61"/><path class="b" d="M8.4,90.75c7.47,4.05,15.58,6.76,23.53,9.66,1.91.93,4.05.78,6.1.76,2.29,0,4.68,0,6.97,0,7.94-.02,5.56.73,12.2-3.62,9.31-6.24,15.14-3.48,22.66,3.62,22.95-.08,45.92.15,68.86-.08,6.4-5.24,14.18-11.93,22.66-6.87,3.18,1.85,5.83,4.62,8.72,6.89,1.09.12,2.39.06,3.49.07"/><path class="b" d="M8.4,87.39c7.29,4.27,15.62,6.26,23.53,9.04,6.67,0,13.38,0,20.05,0,.43,0,1.31,0,1.74,0,.45-.23,1.33-.76,1.74-1.06,1.37-.91,2.92-1.92,4.36-2.72,7.4-4.34,13.4-1.87,19.18,3.69,13.93.23,27.9,0,41.84.08,6.38,0,12.8,0,19.18,0,2.29,0,4.68,0,6.97,0,1.39-.06,2.99.16,4.36-.18,5.82-5.68,13.53-12.87,21.79-7.13,2.37,1.67,4.61,3.73,6.97,5.41,1.05.66,2.2,1.81,3.49,1.9"/><path class="b" d="M8.4,84.14c2.99,1.72,6.23,3.2,9.59,4.05,4.64,1.15,9.37,2.14,13.95,3.51,7.54,0,15.12,0,22.66,0,.43,0,1.31,0,1.74-.03.43-.23,1.31-.68,1.74-.9,1.07-.54,2.37-1.15,3.49-1.6,6.34-2.73,12.01-1.52,17.43,2.53h74.09c4.75-5.23,11.17-13.84,19.18-10.3,3.9,2.2,7.19,5.53,11.33,7.36"/><path class="b" d="M8.4,79.7c7.19,3.98,12.47,3.22,20.05,4.71,2.94.59,5.89,1.53,8.72,2.53,3.17.09,6.42.01,9.59.04,2.88,0,5.84,0,8.72,0,1.4-.02,2.96.05,4.36-.06.78-.22,1.83-.51,2.61-.71,4.51-1.17,9.39-1.9,13.95-.57,1.13.31,2.41.88,3.49,1.33,2.58,0,5.26,0,7.84,0,5.51,0,11.05,0,16.56,0,16.56,0,33.13,0,49.68,0,4.68-4.7,10.36-14.49,18.3-11.65,1.54.61,2.98,1.82,4.36,2.71,2.16,1.44,4.54,2.78,6.97,3.71"/><path class="b" d="M8.4,73.54c7.07,2.95,10.35,1.85,17.43,2.27,2.96.23,5.94.94,8.72,1.97,3.79,1.36,7.41,3.41,11.33,4.38,1.69.16,3.53.04,5.23.08,4.92-.06,9.9.12,14.82-.07,4.87-.77,9.89-2.32,14.82-1.14,3.45.52,7.02.57,10.46,1.21,6.96,0,13.96,0,20.92,0,14.23,0,28.48,0,42.71,0,4.26-4.85,10-13.17,17.43-10.76,1.53.56,2.95,1.72,4.36,2.51,2.15,1.25,4.56,2.27,6.97,2.87"/><path class="b" d="M8.4,66.15c2.54.58,5.22,1.14,7.84,1.03,4.32-.37,8.76-1.22,13.07-.28,5.69,1.08,10.43,4.67,15.69,6.85,1.35.56,2.92.85,4.36,1.02,1.43.25,2.97.71,4.36,1.13,1.97.6,4.06,1.23,6.1,1.57,2.29.07,4.68.05,6.97.01,4.74-.72,9.11-3.28,13.95-3.47,5.53-.78,10.59-1.57,15.69,1.39,1.14.59,2.34,1.54,3.49,2.11,2.29,0,4.68,0,6.97,0,11.03,0,22.09,0,33.12,0,4.63,0,9.31,0,13.95,0,.96.19,2.04-.5,2.61-1.24.74-.73,1.83-1.71,2.61-2.39,2.7-2.27,5.94-4.46,9.59-4.52,2.55-.08,4.9,1.26,6.97,2.6,2.37,1.34,5.13,2.16,7.84,2.37"/><path class="b" d="M8.4,59.03c2.28.25,4.68.49,6.97.27,3.75-.53,7.51-1.72,11.33-1.39,6.21.38,11.33,4.3,16.56,7.24,1.05.57,2.34,1.18,3.49,1.55,1.07.33,2.41.46,3.49.8,6.65,2.35,11.79,5.88,19.18,3.45,2.67-.81,5.24-2.13,7.84-3.12,1.93-.73,4.1-1.03,6.1-1.5,7.38-1.82,12.37,1.38,17.43,6.43,15.68,0,31.38,0,47.07,0,2.58,0,5.26,0,7.84,0,1.25-.15,2.37-1.24,3.49-1.75,1.6-.86,3.44-1.6,5.23-1.95,2.94-.6,6.1,0,8.72,1.43,1.37.78,2.84,1.78,4.36,2.27,1.99,0,4.11,0,6.1,0"/><path class="b" d="M8.4,53.74c2.28.21,4.7.36,6.97,0,3.15-.67,6.32-1.77,9.59-1.76,5.06-.13,9.73,2.25,13.95,4.8,3.24,1.93,6.6,4.1,10.46,4.4,6.78,1.69,11.76,5.33,19.18,3.19,2.99-.79,5.83-2.25,8.72-3.31,2.49-.85,5.23-1.28,7.84-1.5,4.22-.33,8.26,1.66,11.33,4.43,1.5,1.19,2.77,2.98,4.36,4.04,13.07,0,26.15,0,39.22,0,4.34,0,8.73,0,13.07,0,3.19-.02,6.45.19,9.59-.43,2.02-.27,4.11.24,6.1.43,4.92,0,9.89,0,14.82,0"/><path class="b" d="M8.4,49.77c2.57.33,5.32.5,7.84-.22,3.6-1.28,7.53-2.01,11.33-1.34,5.96.93,10.97,4.61,16.56,6.61,2.21.89,4.67.63,6.97.99,2.91.51,5.8,1.5,8.72,1.99,5.01,1,10.1-.18,14.82-1.9,5.83-2.04,12.8-3.27,18.3.27,1.86,1.13,3.67,2.65,5.23,4.16,1.12.88,2.06,2.65,3.49,2.97,8.71,0,17.44,0,26.15,0,18.59,0,37.19,0,55.78,0"/><path class="b" d="M8.4,46.76c3.22.54,6.59.36,9.59-1.01,4.53-1.57,9.48-.91,13.95.55,4.59,1.4,9.08,3.65,13.95,3.85,1.11.04,2.39-.17,3.49-.31,1.4-.12,2.97-.02,4.36.17,8.27,1.47,13.26,2.68,21.79.9,8.71-1.75,14.49-2.17,21.79,3.71,1.45,1.13,3,2.49,4.36,3.72,1.05.38,2.39.19,3.49.23,26.15,0,52.3,0,78.45,0"/><path class="b" d="M8.4,44.18c3.27.38,6.63-.04,9.59-1.53,6.32-2.28,12.9.43,19.18,1.55,3.13.59,6.45.83,9.59.13,2.52-.78,5.21-1.3,7.84-.84,4.45.64,8.7,2.38,13.07,3.38,4.25,1.04,8.73,1.32,13.07.72,5.84-.88,11.47.03,16.56,3.09,1.11.63,2.41,1.43,3.49,2.12.73.47,1.69,1.22,2.61,1.03,3.76,0,7.58,0,11.33,0,22.95,0,45.91,0,68.86,0"/><path class="b" d="M8.4,41.33c3.34-.03,6.66-.8,9.59-2.4,5.32-2.14,11.1-.32,16.56.2,3.47.38,7.08.27,10.46-.63,2.31-.56,4.54-1.89,6.97-1.84,6.84.23,12.3,5.14,18.3,7.84,7.59,3.79,10.73,1.4,18.3,1.74,2.95.15,5.93.85,8.72,1.83.78.27,1.84.68,2.61.98,1.39.14,2.96.05,4.36.07,26.44,0,52.88,0,79.32,0"/><path class="b" d="M8.4,37.32c3.37-.61,6.65-1.78,9.59-3.53,5.21-2.42,11.07-.93,16.56-.77,3.5.16,7.09-.19,10.46-1.16,2.28-.59,4.55-1.92,6.97-1.58,6.32,1.08,10.82,6.45,15.69,10.2,6.04,4.81,4.82,3.81,12.2,3.89,4.92,0,9.89,0,14.82,0,11.61,0,23.25,0,34.87,0,6.97-.04,13.97.18,20.92-.29,4.32.48,8.73.24,13.07.29,6.67,0,13.38,0,20.05,0"/><path class="b" d="M8.4,31.99c12.57-4.89,9.47-8.23,25.28-6.34,3.45.37,7,.63,10.46.28,2.31-.11,4.65-1.13,6.97-.79,6.11,1.33,10.41,6.86,14.82,10.93,4.67,4.62,3.24,3.43,9.59,3.57,4.92,0,9.89,0,14.82,0,11.91,0,23.83,0,35.74,0,1.99,0,4.11,0,6.1,0,.77,0,1.85,0,2.61,0,.81-.16,1.85-.64,2.61-.96,7.52-3.31,12.94-3.69,20.05.96h26.15"/><path class="b" d="M8.4,27.09c2.36-1.31,4.78-2.76,6.97-4.33,1.63-1.22,3.36-2.58,5.23-3.42,9.08-4.31,18.59,1.49,27.89,1.54,5.68.35,9.97,4.87,13.95,8.48,2.03,1.75,3.8,4.16,6.1,5.54,3.76,0,7.58,0,11.33,0,16.85,0,33.71,0,50.55,0,1.66.26,3.03-1.03,4.36-1.81,2.19-1.34,4.52-2.72,6.97-3.51,4.42-1.46,9.29-.26,13.07,2.27.79.51,1.87,1.27,2.61,1.86.64.58,1.68,1.39,2.61,1.19,7.83,0,15.7,0,23.53,0"/><path class="b" d="M8.4,23.83c2.69-1.8,5.39-3.81,7.84-5.93,4.01-3.7,9.17-6.82,14.82-6.43,4.62.25,8.87,2.36,13.07,4.1,2.52,1.14,5.38,1.6,7.84,2.87,3.83,1.93,7.22,4.74,10.46,7.51,1.1.95,2.4,2.1,3.49,3.07.38.39,1.21,1.02,1.74,1.16,9.87,0,19.76,0,29.64,0,11.32,0,22.67,0,33.99,0,3.15-2.09,6.04-4.81,9.59-6.25,4.32-1.7,9.27-.48,13.07,1.93,1.48.91,3.03,2.08,4.36,3.2.37.39,1.22.99,1.74,1.12.43,0,1.31,0,1.74,0,7.25,0,14.54,0,21.79,0"/><path class="b" d="M8.4,22.4c2.73-1.99,5.4-4.26,7.84-6.59,4.56-4.38,9.76-9.67,16.56-9.49,4.83.18,9.02,3.03,13.07,5.37,3.2,1.76,6.57,3.38,9.59,5.45,3.93,2.51,7.58,5.55,11.33,8.29,14.52,0,29.06,0,43.58,0,6.67,0,13.38,0,20.05,0,.45.04,1.32-.05,1.74-.19.43-.35,1.31-1.04,1.74-1.39,1.36-1.08,2.9-2.28,4.36-3.22,3.53-2.55,8.26-2.53,12.2-.98,2.16.83,4.25,2.12,6.1,3.5,1.11.68,2.14,2.12,3.49,2.28,7.83,0,15.7,0,23.53,0"/></svg>