<?xml version="1.0" encoding="UTF-8"?><svg id="a" xmlns="http://www.w3.org/2000/svg" width="1920" height="2400" viewBox="0 0 192 240"><defs><style>.b{fill:none;stroke:#fff;stroke-miterlimit:10;stroke-width:.4px;}.c{stroke-width:0px;}</style></defs><rect class="c" x="0" width="192" height="240"/><path class="b" d="M10.35,227.2c1.76,1,3.52,2.28,5.11,3.51,1.72,1.46,2.01,1.62,4.26,1.51,7.66,0,15.35,0,23.01,0,7.38,0,14.78,0,22.16,0,5.1,0,10.24,0,15.34,0,1.66,0,3.45,0,5.11,0,1.08-.06,2.42.21,3.41-.34,3.1-2.08,6.56-3.85,10.23-4.67,3.89-.91,7.97-.62,11.93-.6,4.4-.04,8.68,1.44,12.78,2.87,2.81.88,5.62,2.26,8.52,2.75,6.52,0,13.08,0,19.6,0,7.38,0,14.78,0,22.16,0,1.13.05,2.32-.69,3.41-.95,1.34-.4,2.88-.73,4.26-.94"/><path class="b" d="M10.35,224.23c1.4,1.04,2.81,2.41,4.26,3.37,16.47,0,32.96,0,49.43,0,7.66,0,15.35,0,23.01,0,1.47-.16,2.86-1.2,4.26-1.64,1.89-.74,3.97-1.34,5.97-1.7,3.63-.68,7.4-.6,11.08-.55,2.83-.05,5.77-.12,8.52.68,2,.51,4.05,1.26,5.97,2.01,1.06.38,2.28,1.06,3.41,1.21,7.66,0,15.35,0,23.01,0,6.81,0,13.65,0,20.45,0,1.8-.25,3.38-1.66,5.11-2.21,2.14-.84,4.52-1.33,6.82-1.47"/><path class="b" d="M10.35,221.4c.43.38,1.28,1.16,1.7,1.54,17.04.09,34.1,0,51.14.03,8.51,0,17.05,0,25.57,0,3.65-.72,7.38-1.31,11.08-1.71,2.81-.32,5.71-.59,8.52-.88,1.36-.12,2.89-.36,4.26-.35,2.01.03,4.09.53,5.97,1.22,1.4.46,2.83,1.35,4.26,1.72,2.81,0,5.71,0,8.52,0,5.95,0,11.94,0,17.9,0,6.81,0,13.65,0,20.45,0,1.44-.5,2.86-1.49,4.26-2.08,2.39-1.08,5.05-1.84,7.67-2.05"/><path class="b" d="M10.35,217.81l.85.54c20.17,0,40.35,0,60.51,0,6.81,0,13.65,0,20.45,0,3.1-.03,6.28.07,9.38-.05,1.96-.52,4.01-1.16,5.97-1.72,5.04-1.68,8.96-1.36,13.64,1.21.65.53,1.75.62,2.56.57,1.06,0,2.34,0,3.41,0,10.79,0,21.6,0,32.39,0,4.24,0,8.54,0,12.78,0,1.16-.12,2.34-.93,3.41-1.35,1.88-.84,3.95-1.59,5.97-2.01"/><path class="b" d="M10.35,213.27c.96.71,2.3.38,3.41.45,1.37,0,2.89,0,4.26,0,4.53,0,9.11,0,13.64,0,13.06,0,26.14,0,39.21,0,7.66,0,15.35,0,23.01,0,3.39-.04,6.85.09,10.23-.06,1.91-1.03,3.92-2.17,5.97-2.91,3.97-1.52,8.4-.38,11.93,1.72.42.25,1.29.78,1.7,1.05,1.03.33,2.34.17,3.41.2,1.95,0,4.02,0,5.97,0,6.52,0,13.08,0,19.6,0,5.67,0,11.38,0,17.05,0,2.81-.11,5.75.24,8.52-.17,1.03-.53,2.32-1.13,3.41-1.55"/><path class="b" d="M10.35,208.34c.46.17,1.26.53,1.7.71,1.66.09,3.45.02,5.11.04,3.39,0,6.84,0,10.23,0,9.94,0,19.89,0,29.83,0,8.51,0,17.05,0,25.57,0,6.81,0,13.65,0,20.45,0,1.29-.18,2.33-1.46,3.41-2.1,1.53-1.08,3.28-2.16,5.11-2.6,3.74-1.01,7.75-.03,11.08,1.81,1.11.6,2.38,1.4,3.41,2.12.32.35,1.22.77,1.7.77,1.06,0,2.34,0,3.41,0,4.53,0,9.11,0,13.64,0,12.21,0,24.44,0,36.65,0"/><path class="b" d="M10.35,204.13c1.35.4,2.88.35,4.26.33,1.95,0,4.01,0,5.97,0,5.67,0,11.38,0,17.05,0,5.67,0,11.38,0,17.05,0,3.39-.09,6.88.28,10.23-.37,2.26-.37,4.57.37,6.82.37,10.22,0,20.46,0,30.68,0,2.46-1.92,4.81-4.26,7.67-5.6,7.23-2.96,14.52.44,20.45,4.63,1.45,1.35,3.31.91,5.11.97,2.24,0,4.58,0,6.82,0,13.06,0,26.14,0,39.21,0"/><path class="b" d="M10.35,199.84c8.8,0,17.62,0,26.42,0,3.96-.09,8.01.29,11.93-.38,3.5-.19,6.83-1.65,10.23-2.38,3.35-.78,6.94-.66,10.23.38,1.39.42,2.92,1.02,4.26,1.58.74.3,1.73.82,2.56.8,1.36,0,2.9,0,4.26,0,5.67,0,11.38,0,17.05,0,4.2-2.41,7.62-6.13,11.93-8.35,6.02-2.48,13-1.48,18.75,1.3,3.19,1.48,6.26,3.36,9.38,4.99,1.6.79,3.35,1.72,5.11,2.07.76,0,1.8,0,2.56,0,12.21,0,24.44,0,36.65,0"/><path class="b" d="M10.35,195.21c1.37-.03,2.9.07,4.26-.08,2.22-.48,4.54-1,6.82-1.12,5.69-.15,11.48.16,17.05-1.27,2.83-.64,5.68-1.53,8.52-2.08,1.65-.32,3.46-.38,5.11-.66,3.64-.61,7.38-1.27,11.08-.84,5.02.45,9.58,2.95,14.49,3.9,1.94.33,4.01.04,5.97.05,4.08-.02,8.24-.71,11.93-2.51,9.27-4.48,11.47-9.41,23.01-8.61,6.38.37,12.24,3.24,17.9,5.97,2.18,1.09,4.57,1.96,6.82,2.87,2.42,1.13,4.7,2.78,6.82,4.39h31.53"/><path class="b" d="M10.35,190.58c2.24,0,4.58,0,6.82,0,1.91-.59,3.98-1.03,5.97-1.26,3.11-.37,6.3-.63,9.38-1.22,3.16-.59,6.31-1.55,9.38-2.52,3.02-1,6.19-1.76,9.38-1.93,3.09-.33,6.26-.66,9.38-.51,4.31.14,8.55,1.29,12.78,1.99,1.65.25,3.45.38,5.11.18,1.4-.19,2.89-.71,4.26-1.02,3.13-.75,6.33-1.51,9.38-2.57,5.54-1.8,10.6-4.95,16.19-6.61,3.02-.8,6.29-.72,9.38-.39,6.66.78,12.76,3.83,18.75,6.65,2.46,1.25,5.22,2.06,7.67,3.32,2.77,1.55,5.28,3.69,7.67,5.76,3.65.33,7.41.04,11.08.13,6.24,0,12.51,0,18.75,0"/><path class="b" d="M10.35,185.95c5.09-.09,10.26.19,15.34-.12,6.42-.84,12.61-2.81,18.75-4.78,4.68-1.36,9.66-1.41,14.49-1.7,6.79-.38,13.94,1.28,20.45-1.23,3.59-1.69,7.34-3.21,11.08-4.54,7.42-2.47,15.04-5.76,23.01-5.21,7.44.71,14,4.74,20.45,8.18,1.91,1.03,3.97,2.08,5.97,2.93,2.66.98,5.35,2.14,7.67,3.8,1.36.76,2.76,2.38,4.26,2.68,3.1,0,6.28,0,9.38,0,6.81,0,13.65,0,20.45,0"/><path class="b" d="M10.35,181.33c7.95,0,15.92,0,23.86,0,1.42.09,2.91-.55,4.26-.91,2.24-.68,4.55-1.46,6.82-2.05,4.15-1.06,8.54-1.1,12.78-1.57,6.26-.61,12.77-.52,18.75-2.7,2.68-.99,5.1-2.72,7.67-3.94,7.66-3.83,16.13-6.25,24.72-6.43,12.55-.5,21.23,10.82,32.39,14.73,2.33.72,4.59,1.9,6.82,2.87,3.39,0,6.84,0,10.23,0,7.66,0,15.35,0,23.01,0"/><path class="b" d="M10.35,176.7c10.22,0,20.46,0,30.68,0,1.99-.31,3.98-1.15,5.97-1.49,2.22-.45,4.58-.55,6.82-.86,6.52-.91,13.18-1.26,19.6-2.76,3.34-.74,6.41-2.41,9.38-4.04,7.63-3.91,16.16-6.02,24.72-6.29,12.36-1.31,21.09,9.18,31.53,13.86,1.32.6,2.87,1.09,4.26,1.49,1.05.16,2.34.08,3.41.1,3.1,0,6.27,0,9.38,0,8.51,0,17.05,0,25.57,0"/><path class="b" d="M10.35,172.07c13.63,0,27.28,0,40.91,0,2.93.26,5.75-.74,8.52-1.51,3.38-.96,6.84-1.9,10.23-2.83,2.56-.71,5.2-1.48,7.67-2.45,2.25-.91,4.48-2.15,6.82-2.83,6.03-1.91,12.48-1.94,18.75-1.82,3.38.14,6.86,0,10.23.33,8.46,1.21,15.45,6.64,23.01,10.2.72.34,1.74.86,2.56.91,1.66,0,3.46,0,5.11,0,3.96,0,7.97,0,11.93,0,5.95-.02,11.95.04,17.9-.02,2.53-.24,5.14-.62,7.67-.87"/><path class="b" d="M10.35,167.44c15.34,0,30.69,0,46.02,0,1.47-.13,2.9-1.12,4.26-1.64,1.94-.87,3.99-1.78,5.97-2.57,4.17-1.7,8.55-2.95,12.78-4.45,5.67-2.44,12-1.58,17.9-.56,5.05.91,10.19,1.63,15.34,1.56,5.58.18,11.03,1.83,16.19,3.88,1.96.77,4.01,1.63,5.97,2.41,1.35.46,2.82,1.29,4.26,1.36,6.24,0,12.51.02,18.75-.01,3.94-1.02,7.89-2.3,11.93-2.88,3.93-.45,7.98-.38,11.93-.46"/><path class="b" d="M10.35,162.82c14.48,0,28.98,0,43.47,0,.86.01,1.81-.6,2.56-.97,1.37-.72,2.89-1.54,4.26-2.26,3.53-1.88,7.24-3.57,11.08-4.72,14.07-4.08,14.37-2.97,28.13.49,3.05.73,6.23,1.27,9.38,1.36,3.39.03,6.84-.16,10.23.09,6.71.35,13.17,2.41,19.6,4.19,4.41,1.33,9.13,1.45,13.64.54,5.44-.99,10.71-2.94,16.19-3.68,4.23-.54,8.55-.04,12.78.17"/><path class="b" d="M10.35,158.19c2.82,0,5.71,0,8.52,0,1.37-.12,2.88-.33,4.26-.27,7.93.55,15.92.17,23.86.27,5.82-1.17,10.72-4.92,16.19-7.04,4.31-1.83,9-2.62,13.64-2.98,1.67-.12,3.45-.43,5.11-.52,1.96-.07,4.04.18,5.97.54,6.22,1.25,12.37,3.25,18.75,3.47,6.53.28,13.07-1.07,19.6-.5,7.48.38,14.64,3.39,22.16,3.22,6.58-.07,13.06-1.66,19.6-2.18,4.54-.43,9.13.21,13.64.74"/><path class="b" d="M10.35,152.57c2.77-1.16,5.51-2.78,8.52-3.23,4.32-.55,8.6.83,12.78,1.71,4.44,1.02,9.15,1.51,13.64.45,5.08-1.15,9.56-4.09,14.49-5.67,3.27-1.11,6.78-1.61,10.23-1.5,3.39.07,6.83.69,10.23.55,3.98-.18,7.99.49,11.93.94,3.94.47,7.96.73,11.93.6,8.81-.16,17.62-2.23,26.42-.95,3.7.46,7.39,1.34,11.08,1.88,3.65.52,7.4.66,11.08.61,9.66-.15,19.44-1.71,28.98.51"/><path class="b" d="M10.35,145.39c2.71-1.31,5.46-3.03,8.52-3.31,4.09-.28,8.06,1.2,11.93,2.32,4.65,1.42,9.69,2.43,14.49,1.18,2.68-.62,5.15-2.09,7.67-3.13,3.73-1.6,7.87-2.5,11.93-2.05,4.36.41,8.49,2.18,12.78,2.96,1.65.3,3.45.22,5.11.29,2.81.1,5.71.28,8.52.31,9.44.2,18.73-1.96,28.13-2.46,6.6-.47,13.13.85,19.6,1.95,7.61.98,15.35,1.03,23.01.72,3.96-.15,7.97-.48,11.93-.55,2.54.03,5.16.39,7.67.77"/><path class="b" d="M10.35,140.11c5.26-3.19,8.26-4.78,14.49-3.07,6.91,1.83,14.03,5.82,21.31,3.48,2.09-.62,3.99-1.94,5.97-2.81,10.22-4.63,16.3,1.04,25.57,3.76,1.92.47,4.01.34,5.97.47,3.1.16,6.27.36,9.38.38,11.14.3,22.09-3.21,33.24-2.2,4.84.36,9.65,1.47,14.49,1.82,6.81.21,13.63,1.24,20.45,1.01,6.86-.09,13.6-1.86,20.45-2.03"/><path class="b" d="M10.35,137.15c3.14-1.88,6.4-4.28,10.23-4.17,8.95.02,17.41,7.56,26.42,3.98,3.08-1.45,5.91-3.71,9.38-4.24,7.4-1.53,13.77,3.48,20.45,5.68,1.89.64,4,.57,5.97.69,1.96.12,4.01.43,5.97.59,19.32-.01,38.64-.04,57.96,0,6.52,0,13.08,0,19.6,0,3.1-.05,6.28.11,9.38-.08,1.94-.65,4-1.33,5.97-1.88"/><path class="b" d="M10.35,135.05c.46,0,1.25,0,1.7,0,.79-.39,1.78-.99,2.56-1.41,2.06-1.17,4.43-1.95,6.82-1.96,5.02-.09,9.73,2.02,14.49,3.34,3.67.02,7.41.05,11.08-.02,2.08-.92,3.89-2.57,5.97-3.51,5.11-2.7,11.05-1.89,16.19.28,4.09,1.62,8.27,3.66,12.78,3.26,21.59,0,43.19,0,64.77,0,7.38,0,14.78,0,22.16,0,2.53,0,5.14,0,7.67,0,1.67-.09,3.61.34,5.11-.57"/><path class="b" d="M10.35,130.42c13.35,0,26.71,0,40.06,0,.88.16,1.84-.45,2.56-.88.75-.41,1.77-.91,2.56-1.22,2.67-1.07,5.66-1.48,8.52-1.18,4.67.43,9.03,2.51,13.64,3.23,11.07.13,22.17,0,33.24.05,23.58,0,47.16,0,70.74,0"/><path class="b" d="M10.35,125.8c14.2,0,28.41,0,42.61,0,1.47.1,2.85-1.08,4.26-1.4,2.16-.71,4.55-1,6.82-.89,4.07.13,7.95,1.7,11.93,2.29,11.36,0,22.73,0,34.09,0,23.86,0,47.73,0,71.59,0"/><path class="b" d="M10.35,121.17c57.1-.05,114.19.01,171.31,0"/><path class="b" d="M10.35,116.54c36.65,0,73.3,0,109.94,0,12.78,0,25.57,0,38.35,0,4.53,0,9.11,0,13.64,0,1.95-.02,4.02.05,5.97-.04,1.03-.43,2.32-.85,3.41-1.1"/><path class="b" d="M10.35,111.91c36.65,0,73.3,0,109.94,0,12.78,0,25.57,0,38.35,0,4.81,0,9.68,0,14.49,0,1.36-.06,2.94.17,4.26-.2,1.32-.63,2.85-1.25,4.26-1.64"/><path class="b" d="M10.35,107.29c36.93,0,73.87,0,110.8,0,12.78,0,25.57,0,38.35,0,4.24,0,8.54,0,12.78,0,2.23-.08,4.61.19,6.82-.15.72-.38,1.8-.86,2.56-1.17"/><path class="b" d="M10.35,102.66h171.31"/><path class="b" d="M10.35,98.03h171.31"/><path class="b" d="M10.35,93.4h171.31"/><path class="b" d="M10.35,88.69c57.09.24,114.21,0,171.31.08"/><path class="b" d="M10.35,81.86c1.41.33,2.93.82,4.26,1.38,1.05.5,2.21,1.07,3.41.91,6.52,0,13.08,0,19.6,0,7.09,0,14.22,0,21.31,0,3.1,0,6.27,0,9.38,0,1.66-.21,3.43-.65,5.11-.68,1.67-.07,3.48.09,5.11.48,1.04.32,2.34.16,3.41.2,10.5,0,21.03,0,31.53,0,22.72,0,45.46,0,68.18,0"/><path class="b" d="M10.35,75.06c2.36.36,4.74,1.19,6.82,2.36,1.39.62,2.66,2.25,4.26,2.1,10.79,0,21.6,0,32.39,0,7.09-.06,14.23.18,21.31-.2,6.22.39,12.51.13,18.75.2,29.26,0,58.53,0,87.79,0"/><path class="b" d="M10.35,68.93c4.67.24,8.34,3.08,11.93,5.74,1.32.42,2.89.15,4.26.22,2.53,0,5.14,0,7.67,0,6.81,0,13.65,0,20.45,0,8.8,0,17.62,0,26.42,0,3.1,0,6.27,0,9.38,0,1.95-.03,4.03.13,5.97-.21,1.94-.24,4.03-.26,5.97.05,1.34.3,2.9.12,4.26.16,25,0,50,0,75,0"/><path class="b" d="M10.35,64.01c3.89.32,7.27,2.45,10.23,4.85,1.69,1.37,2.13,1.5,4.26,1.4,15.9,0,31.82,0,47.73,0,6.52,0,13.08,0,19.6,0,4.81-2.25,9.88-5.1,15.34-3.25,1.48.47,3,1.33,4.26,2.22.38.3,1.26.82,1.7,1.03.42,0,1.29,0,1.7,0,6.81,0,13.65,0,20.45,0,15.34,0,30.69,0,46.02,0"/><path class="b" d="M10.35,59.74c3.91.74,7.24,3.13,10.23,5.64,1.03.44,2.33.22,3.41.27,1.66,0,3.45,0,5.11,0,5.1,0,10.24,0,15.34,0,7.66,0,15.35,0,23.01,0,7.66,0,15.35,0,23.01,0,1.33-.2,2.35-1.59,3.41-2.33,2.12-1.74,4.39-3.52,6.82-4.81,6.86-3.73,11.01-.17,16.19,4.21,1.06.88,2.33,1.93,3.41,2.79,2.5.33,5.15.06,7.67.14,5.67,0,11.38,0,17.05,0,3.39,0,6.84,0,10.23,0,2.18-.7,4.5-1.44,6.82-1.4,2.32-.05,4.65.65,6.82,1.4,4.24,0,8.54,0,12.78,0"/><path class="b" d="M10.35,55.37c3.13,1.15,6,3.1,8.52,5.26.72.48,1.74.4,2.56.38,1.07,0,2.34,0,3.41,0,3.39,0,6.84,0,10.23,0,6.24,0,12.51,0,18.75,0,1.96-.01,3.99-.64,5.97-.58,1.98-.12,4.01.45,5.97.58,3.1,0,6.27,0,9.38,0,3.39,0,6.84,0,10.23,0,4.27.09,3.68.21,6.82-2.7,5.68-5.16,13.52-14.06,21.31-7.3,3.94,3.01,7.14,7.01,11.08,10.01,6.24,0,12.51,0,18.75,0,1.66,0,3.45,0,5.11,0,1.08-.05,2.41.19,3.41-.31,1.32-.92,2.83-1.9,4.26-2.64,2.84-1.5,6.23-2.19,9.38-1.38,2.09.5,4.13,1.53,5.97,2.62,1.07.53,2.16,1.71,3.41,1.71,2.24,0,4.58,0,6.82,0"/><path class="b" d="M10.35,50.51c1.76.97,3.53,2.21,5.11,3.45,1.1.74,2.11,2.06,3.41,2.43,1.95,0,4.01,0,5.97,0,8.8,0,17.62,0,26.42,0,1.66-.02,3.46.06,5.11-.06,2.39-1.08,5.03-1.88,7.67-1.91,3.22-.09,6.35,1,9.38,1.97,1.66,0,3.45,0,5.11,0,1.37,0,2.89,0,4.26,0,.78,0,1.82.07,2.56-.23,6.7-3.54,11.65-9.92,18.75-12.76,5.11-2.06,9.17.8,12.78,4.21,3.07,2.81,6.02,5.92,9.38,8.4.67.49,1.77.4,2.56.39,1.36,0,2.9,0,4.26,0,4.53,0,9.11,0,13.64,0,.92-.22,1.83-1.13,2.56-1.69,1.61-1.31,3.36-2.72,5.11-3.83,8.63-5.79,15.26.38,22.16,5.52h5.11"/><path class="b" d="M10.35,45.07c1.74,1.23,3.51,2.71,5.11,4.11,1.08.8,2.06,2.23,3.41,2.57,5.1,0,10.24,0,15.34,0,5.38,0,10.81,0,16.19,0,1.95,0,4.01,0,5.97,0,1.31.22,2.41-.71,3.41-1.39,3.72-2.54,8.38-3.46,12.78-2.49,2.23.39,4.54,1.03,6.82,1.04,8.09-.39,14.71-5.83,22.16-8.37,6.14-2.18,10.42-.79,15.34,3.18,3.98,3.01,7.91,6.51,12.78,7.97,1.36.12,2.9.04,4.26.06,1.36,0,2.9,0,4.26,0,1.7-.41,3.54-.92,5.11-1.7,6.18-3.48,11.61-11.57,19.6-9.02,4.21,1.44,7.56,4.66,11.08,7.27,1.39,1.06,2.71,2.62,4.26,3.45,1.06,0,2.35,0,3.41,0"/><path class="b" d="M10.35,39.35c2.04,1.6,4.06,3.45,5.97,5.21,1.07.81,2.03,2.34,3.41,2.57,7.38,0,14.78,0,22.16,0,3.67,0,7.41,0,11.08,0,1.07,0,2.34,0,3.41,0,1.41.08,2.44.03,3.41-1.11,2.45-2.16,5.3-4.13,8.52-4.88,3.93-1.01,7.97.28,11.93.09,5.45-.39,10.83-1.63,16.19-2.65,4.46-.82,9.18-1.45,13.64-.27,8.48,2.69,13.87,9.59,23.86,6.74,3.22-.97,6.38-2.4,9.38-3.91,2.7-1.66,5.09-3.94,7.67-5.76,6.19-4.6,11.29-3.57,17.05,1.12,2.21,1.81,4.59,3.61,6.82,5.39,2.2,1.75,4.32,3.91,6.82,5.23"/><path class="b" d="M10.35,34.85c2.9,2.44,5.65,5.19,8.52,7.65,11.93,0,23.87,0,35.8,0,1.65-.11,3.53.28,5.11-.27,2.47-2.4,5.27-4.72,8.52-5.95,3.24-1.28,6.82-1.07,10.23-.9,3.1,0,6.27-.14,9.38-.07,8.86.16,18.03-.1,26.42,3.18,8.22,3.15,13.88,2.39,21.31-2.25,2.73-1.78,5.75-3.24,8.52-4.93,2.54-1.72,4.98-3.81,7.67-5.3,6.49-3.83,11.87-.66,17.05,3.65,1.87,1.57,4.02,3.02,5.97,4.48,2.19,1.69,4.43,3.55,6.82,4.97"/><path class="b" d="M10.35,31.78c2.25,1.95,4.53,4.06,6.82,5.96,2.79.3,5.71.05,8.52.13,4.81,0,9.67,0,14.49,0,4.24,0,8.54,0,12.78,0,2.52-.09,5.18.21,7.67-.15,3.36-3.14,7.31-6.07,11.93-6.89,8.55-1.14,17.17.82,25.57,2.3,3.68.69,7.43,1.39,11.08,2.25,3.86,1.02,7.93,2.02,11.93,1.22,5.91-1.11,10.67-5.17,15.34-8.7,2.86-2.37,6.33-3.92,9.38-6.01,7.36-5.24,12.64-6.88,20.45-1.2,2.76,2.05,5.65,4.08,8.52,5.96,2.23,1.62,4.47,3.45,6.82,4.89"/><path class="b" d="M10.35,29.41c1.66,1.24,3.33,2.76,5.11,3.83h45.17c10.18-7.71,14.98-8.13,27.27-5.2,7.35,1.85,14.73,3.71,22.16,5.2,2.81,0,5.71,0,8.52,0,5.73-.07,12.64-6.71,17.05-10.14,2.83-2.49,6.17-4.27,9.38-6.19,3.42-2.17,6.97-4.64,11.08-5.17,5.03-.68,9.58,2.2,13.64,4.78,1.62,1.06,3.52,1.96,5.11,3.06,2.28,1.58,4.52,3.45,6.82,5"/><path class="b" d="M10.35,26.95c.76.44,1.79,1.04,2.56,1.47,1.62.4,3.46.11,5.11.19,3.39,0,6.84,0,10.23,0,10.5,0,21.03,0,31.53,0,11.23-7.15,15.53-7.67,28.13-3.71,4.77,1.37,9.6,2.79,14.49,3.71,5.95,0,11.94,0,17.9,0,.76,0,1.8,0,2.56,0,1.12-.44,2.37-1.13,3.41-1.73,2.65-1.56,5.21-3.45,7.67-5.28,2.19-1.62,4.47-3.32,6.82-4.7,2.65-1.37,5.2-3.1,7.67-4.76,4.21-2.86,9.3-5.25,14.49-4.09,3.91.83,7.53,2.83,11.08,4.6,2.7,1.63,5.14,3.82,7.67,5.68"/></svg>