<?xml version="1.0" encoding="UTF-8"?><svg id="a" xmlns="http://www.w3.org/2000/svg" width="1920" height="2400" viewBox="0 0 192 240"><defs><style>.b{fill:none;stroke:#fff;stroke-miterlimit:10;stroke-width:.4px;}.c{stroke-width:0px;}</style></defs><rect class="c" width="192" height="240"/><path class="b" d="M8.61,217.33c3.18,1.35,6.36,2.88,9.56,4.14,2.36,1.13,4.63,2.67,6.96,3.87.99.69,2.35.41,3.48.46,1.99,0,4.1,0,6.09,0,3.23.09,3.53.1,6.09-1.89,3.75-2.72,6.5-6.79,10.43-9.23,6.91-3.63,13.71,2.33,20,4.71,2.99,1.24,6.5,1.81,9.56.5,5.65-2.39,11.01-5.83,17.39-3.81,4.21,1.12,7.85,4.01,12.17,4.76,1.7.1,3.54.16,5.22.48,10.15,2.08,14.04.97,23.48-2.69,4.52-1.8,8.8-1.19,13.04,1.05,3.64,1.7,6.81,4.44,10.43,6.12,6.94,0,13.92,0,20.87,0"/><path class="b" d="M8.61,214.05c1.95,1.26,4.01,2.6,6.09,3.64,2.57,1.13,5.32,2.07,7.83,3.37,5.2.08,10.45.01,15.65.03,3.55-2.2,6.52-5.3,9.56-8.12,2.92-3.04,7.14-4.6,11.3-3.6,7.53,1.51,14.64,8.1,22.61,5.07,6.9-2.51,11.97-4.05,19.13-1.15,2.85,1.05,5.67,2.53,8.7,3.03,1.39.21,2.95,0,4.35,0,2.29-.04,4.68-.05,6.96-.31,5.21-.52,10.06-2.73,14.78-4.85,2.97-1.28,6.27-2.59,9.56-1.95,7.24,1.69,12.34,7.75,18.26,11.84,6.65.12,13.34,0,20,.04"/><path class="b" d="M8.61,210.11c2.85,2.26,5.93,4.57,9.56,5.29,1.1.3,2.37.72,3.48.96.79,0,1.82,0,2.61,0,2.29,0,4.67,0,6.96,0,1.4-.1,3.05.28,4.35-.33,5.55-2.39,9.73-7,14.78-10.17,6.24-3.77,13.63-1.4,20,.75,3.07.96,6.32,1.87,9.56,1.7,5.78-.5,11.67-.82,17.39.41,3.73.68,7.49,1.8,11.3,1.79,2.04,0,4.12-.62,6.09-1.09,3.24-.82,6.48-1.92,9.56-3.19,5.93-2.26,11.71-6.1,18.26-5.9,6.36.7,11.07,5.82,15.65,9.81,1.37,1.26,2.93,2.67,4.35,3.88,1.04.79,2.17,2.06,3.48,2.35,5.78,0,11.61,0,17.39,0"/><path class="b" d="M8.61,205.17c3.03,2.39,6.46,4.62,10.43,4.8,5.23.76,10.69.45,15.65-1.47,7.3-2.6,13.32-8.07,20.87-10.03,6.65-1.84,13.53-.17,20,1.61,2.26.63,4.68,1,6.96,1.54,2.88.71,5.8,1.62,8.69,2.3,6.59,1.71,13.71,1.51,20-1.24,11.33-4.9,24.26-14.09,36.52-6.59,7.02,4.32,12.28,10.99,19.13,15.55h16.52"/><path class="b" d="M8.61,199.44c2.42,1.39,5.02,2.86,7.83,3.24,6.49.48,12.96-1.13,19.13-2.98,4.95-1.53,9.9-3.25,14.78-5.01,5.02-1.94,10.19-4.04,15.65-4.08,5.76-.04,11.41,1.95,16.52,4.48,6.42,3.65,12.48,7.48,20,4.19,12.49-5.67,20.6-16.61,35.65-10.57,4.25,1.54,8.51,3.33,12.17,6.02,5.66,3.81,10.56,8.86,16.52,12.2,5.49,0,11.03,0,16.52,0"/><path class="b" d="M8.61,193.6c2.24.73,4.6,1.53,6.96,1.78,5.01.29,9.93-1.29,14.78-2.31,6.29-1.56,12.82-2.12,19.13-3.56,4.45-1.28,8.57-3.63,13.04-4.83,7.25-2.23,15.02.36,20.87,4.83,5.62,4.32,11.27,8.39,18.26,4.1,3.76-2.2,6.82-5.5,10.43-7.91,7.39-5.34,13.52-7.28,21.74-2.13,2.34,1.39,4.63,3.08,6.96,4.5,2.54,1.47,5.32,2.71,7.83,4.25,5,2.92,9.79,6.28,14.78,9.2.92.76,2.36.72,3.48.68,1.39,0,2.96,0,4.35,0,4.04,0,8.14,0,12.17,0"/><path class="b" d="M8.61,188.75c8.37,1.87,11.94.61,20-1.1,5.43-1.2,11.01-1.63,16.52-2.2,3.64-.3,7.15-1.51,10.43-3.05,12.41-6.02,19.64-4.85,30.43,3.52,13.4,10.19,18.58-3.47,29.56-8.69,6.8-3.56,12.8-.81,18.26,3.71,2.28,1.81,4.56,3.86,6.96,5.52,1.88,1.28,4.1,2.24,6.09,3.32,4.93,2.53,9.79,5.31,14.78,7.7,7.23,0,14.5,0,21.74,0"/><path class="b" d="M8.61,184.13c3.16.1,6.42.36,9.56-.12,4.97-.79,9.82-2.42,14.78-3.24,4.87-.91,9.9-1.02,14.78-1.88,4.12-.8,8.07-2.49,12.17-3.4,5.17-1.27,10.67-.89,15.65.96,2.67.95,5.37,2.12,7.83,3.54,3.69,2.1,7.78,4.35,12.17,3.81,5.37-.66,9.51-4.58,13.91-7.37,5.39-3.5,11.67-4.22,17.39-1.01,5.03,2.62,9.1,6.79,13.91,9.74,5.18,2.78,10.99,4.27,16.52,6.18,1.39.45,2.96.96,4.35,1.42,2.28,0,4.67,0,6.96,0,4.91,0,9.87,0,14.78,0"/><path class="b" d="M8.61,179.81c3.76-.47,7.63-.77,11.3-1.75,4.91-1.37,9.75-3.2,14.78-4.09,4.01-.77,8.16-.98,12.17-1.69,5.4-1.24,10.94-2.52,16.52-1.97,6.3.5,12.26,2.9,18.26,4.72,3.64,1.22,7.43,2.45,11.3,2.39,11.7-.22,17.05-9.79,29.56-4.07,7.46,3.1,13.75,8.92,21.74,10.76,7.19,1.41,14.61,1.55,21.74,3.35,2.23.7,4.65.6,6.96.58,3.45,0,6.98,0,10.43,0"/><path class="b" d="M8.61,176.14c3.74-1.01,7.6-1.85,11.3-3.01,4.04-1.4,8.03-3.17,12.17-4.25,4.24-1.18,8.7-1.53,13.04-2.15,3.74-.66,7.46-1.85,11.3-1.78,9.79-.2,18.98,4.12,28.69,4.65,5.81.42,11.64-.35,17.39-1.03,5.58-.64,10.54-1.05,15.65,1.78,9.39,5,14.96,8.55,26.09,9.07,4.04.13,8.13-.34,12.17-.11,6.82.27,13.29,2.78,20,3.75,2.24.51,4.68.17,6.96.26"/><path class="b" d="M8.61,173c2.01-.68,4.09-1.5,6.09-2.2,1.99-.69,4.14-1.27,6.09-2.1,4.52-1.88,9.08-3.91,13.91-4.84,3.42-.71,6.98-.9,10.43-1.4,2.9-.44,5.76-1.51,8.69-1.79,6.05-.73,12.2-.21,18.26.21,4.03.23,8.13.78,12.17.44,7.51-.81,14.36-1.42,21.74.84,2.93.9,6.06,1.63,8.7,3.24,5.48,3.37,10.68,8.11,17.39,8.59,2.89.25,5.84-.27,8.7-.68,4.9-.42,9.86-1.36,14.78-.86,5.16.48,9.93,2.76,14.78,4.42,1.92.68,4.07.97,6.09,1.22,2.27.42,4.65.61,6.96.51"/><path class="b" d="M8.61,169.84c3.72-1.56,7.49-3.11,11.3-4.43,3.69-1.49,7.42-3.14,11.3-4.06,5.39-1.44,11.11-.85,16.52-2.09,8.59-2.41,17.28-4.71,26.08-6.16,2.56-.42,5.24-.42,7.83-.48,2.59-.17,5.24-.63,7.83-.79,5.81-.53,11.49,1.36,16.52,4.14,2.55,1.45,5.38,2.62,7.83,4.24,3.74,2.62,7.1,5.97,11.3,7.86,2.96,1.38,6.42,1.57,9.56.73,2.32-.57,4.64-1.55,6.96-2.16,3.68-.8,7.57-1.31,11.3-.66,4.06.69,7.8,2.7,11.3,4.8,1.08.65,2.38,1.42,3.48,2.04.98.63,2.27,1.22,3.48,1.05,4.04,0,8.14,0,12.17,0"/><path class="b" d="M8.61,165.44c3.71-1.56,7.45-3.2,11.3-4.36,3.65-1.28,7.43-2.47,11.3-2.81,6.66-.71,13.65,1.47,20-1.39,7.6-2.73,14.22-7.64,21.74-10.53,1.64-.6,3.47-1.08,5.22-1.24,1.69-.1,3.53.04,5.22-.11,5.55-.55,11.35-.57,16.52,1.82,3,1.27,5.86,3.03,8.69,4.63,1.68.97,3.63,1.78,5.22,2.92,4.23,2.96,8.02,6.92,13.04,8.54,6.1,2.11,11.49-1.71,17.39-2.39,6.06-.88,11.85,1.95,16.52,5.58,1.1.82,2.4,1.84,3.48,2.69.68.46,1.82.39,2.61.37,5.49,0,11.03,0,16.52,0"/><path class="b" d="M8.61,158.96c5.11-1.83,10.2-4.09,15.65-4.65,6.63-.89,12.8,2.15,19.13,3.48,3.62.79,7.26-.52,10.43-2.2,4.69-2.5,8.81-6,13.04-9.17,2.94-2.18,6.04-4.44,9.56-5.56,2.79-.85,5.84-.33,8.7-.89,6.89-1.12,12.77-.77,19.13,2.34,2.87,1.39,5.84,2.79,8.7,4.2,2.08,1.2,4.12,2.73,6.09,4.11,19.21,13.97,21.18-7.02,44.34,13.77,6.65.15,13.35,0,20,.05"/><path class="b" d="M8.61,151.64c11.57-2.9,15.3-5.97,26.95.21,4.05,1.97,8.31,5.08,13.04,4.27,7.16-1.54,12.71-6.81,18.26-11.24,3.19-2.54,6.5-5.29,10.43-6.56,2.23-.63,4.71-.42,6.96-1.03,5.66-1.38,11.6-2.82,17.39-1.31,4.16,1.05,8.24,2.69,12.17,4.39,3.21,1.6,6.31,3.58,9.56,5.07,3.52,1.66,7.41,2.66,11.3,2.88,2.87.2,5.85.1,8.7.57,7.96,1.21,14.44,6.37,20.87,10.82h19.13"/><path class="b" d="M8.61,144.68c8.08-.28,12.58-4.31,20.87-1.24,3.71,1.34,7.05,3.6,10.43,5.58,3.11,1.87,6.74,3.5,10.43,2.54,9.34-1.68,16.21-8.83,24.35-13.11,2.13-1.17,4.58-1.65,6.96-1.97,2.03-.43,4.12-1.15,6.09-1.8,11-3.97,17.18-1.93,27.82,1.61,4,1.45,8.05,2.97,12.17,4.05,4.29,1.17,8.75,1.85,13.04,3,4.77,1.4,9.41,3.37,13.91,5.46,2.88,1.34,5.81,2.8,8.7,4.14,1.67.7,3.42,1.73,5.22,2.05,4.91,0,9.87,0,14.78,0"/><path class="b" d="M8.61,139.02c1.99.21,4.1.28,6.09,0,2.03-.29,4.07-1.08,6.09-1.44,6.09-1.41,12.12.69,17.39,3.66,2.77,1.44,5.6,3.12,8.69,3.74,5.25.54,10.69-.29,15.65-2.06,4.48-1.59,8.67-4,13.04-5.83,2.77-1.22,5.88-1.57,8.7-2.65,9.57-3.73,15.03-4.97,25.22-2.38,7.75,1.78,15.75,2.41,23.48,4.28,4.56,1.01,8.85,2.98,13.04,4.97,7.98,3.55,16.64,5.14,25.22,6.51,4.06.6,8.09,1.76,12.17,2.2"/><path class="b" d="M8.61,135.35c6.61,1.67,9.56-.56,15.65-1.92,8.42-1.96,14.17,1.7,21.74,4.27,6.51,1.42,13.47,2.15,20,.46,5.64-1.48,10.93-4.13,16.52-5.77,4.49-1.64,9.09-3.41,13.91-3.64,5.6-.41,11.02,1.49,16.52,2.1,13.16.82,19.75-1.23,32.17,5.86,3.81,1.81,7.98,2.96,12.17,3.45,4.89.61,9.88.36,14.78.81,3.79.34,7.52,1.5,11.3,1.91"/><path class="b" d="M8.61,133.85c7.79,2.04,12.14-1.93,19.13-4.01,3.66-1.1,7.64-1.1,11.3-.06,7.61,2.4,15.29,6.04,23.48,5.26,5.22-.47,10.04-2.8,14.78-4.85,9.04-3.74,16.3-5.78,26.09-3.56,3.42.69,6.92,1.51,10.43,1.51,6.36.08,12.8-.91,19.13.08,2.97.44,5.96,1.32,8.7,2.58,3.26,1.68,6.79,3,10.43,3.53,6.03.98,12.19.19,18.26.3,4.39,0,8.7,1.27,13.04,1.72"/><path class="b" d="M8.61,132.95c10.78,1.45,14.98-6.25,24.35-8.05,8.92-1.43,15.82,6.29,24.35,7.36,13.73,2,20.03-10.22,39.13-9.34,5.22.15,10.42,1.27,15.65,1.16,11.1-.41,20.89-.63,31.3,4.06,3.85,1.5,8.14,1.38,12.17.81,6.32-.91,12.72-2.59,19.13-1.59,2.91.47,5.81,1.42,8.7,2"/><path class="b" d="M8.61,131.16c3.28-.3,6.55-1.3,9.56-2.6,6.02-3.1,11.73-9.4,19.13-7.56,6.83,1.74,11.47,7.96,18.26,9.84,9.28,2.54,15.59-3.26,23.48-6.69,7.23-2.72,15-3.61,22.61-4.59,4.61-.51,9.27-1.26,13.91-1.42,8.34-.25,16.51,2.01,24.35,4.65,5.26,2.08,8.55,1.89,13.91.19,6.96-2.31,14.35-4.97,21.74-3.11,2.64.67,5.25,1.79,7.83,2.65"/><path class="b" d="M8.61,126.66c.78,0,1.83,0,2.61,0,1.18-.17,2.4-.94,3.48-1.41,3.09-1.25,6-3.02,8.7-4.97,11.45-8.25,16.65-1.09,25.22,6.38,7.82,0,15.66,0,23.48,0,.88.13,1.9-.33,2.61-.8,1.07-.61,2.35-1.29,3.48-1.78,3.38-1.34,7.02-2.16,10.43-3.42,6.88-2.27,13.18-6.05,20-8.48,11.01-3.83,21.8,2.54,32.17,5.6,5.34,2.11,10.74-.65,15.65-2.67,10.4-4.38,17.02-3.5,26.95,1.37"/><path class="b" d="M8.61,121.94c.79,0,1.85.07,2.61-.22.44-.27,1.3-.82,1.74-1.09,1.36-.86,2.89-1.8,4.35-2.48,3.52-1.79,6.62-4.58,10.43-5.76,7.62-2.42,12.62,5.02,17.39,9.55,13.04,0,26.09,0,39.13,0,8.72-3.16,15.05-10.31,22.61-15.37,6.54-4.61,14.94-2.42,21.74.44,3.15,1.27,6.34,2.69,9.56,3.77,2.22.69,4.6,1.47,6.96,1.33,4.57-.41,8.68-2.82,13.04-4.05,5.95-1.94,12.42-1.17,18.26.8,2.33.88,4.65,2.05,6.96,2.99"/><path class="b" d="M8.61,117.22c.43,0,1.31,0,1.74,0,1.7-1.14,3.47-2.47,5.22-3.55,1.71-.96,3.58-1.93,5.22-3.02,10.41-7.28,15.68-2.16,22.61,6.27.76.38,1.79.31,2.61.3,1.1,0,2.38,0,3.48,0,3.16,0,6.4,0,9.56,0,9.27,0,18.56,0,27.82,0,.78,0,1.83,0,2.61,0,1.58-.74,3-2.14,4.35-3.23,3.89-3.37,7.4-7.27,11.3-10.62,4.77-4.44,10.3-5.25,16.52-3.89,6.85,1.47,13.13,4.96,20,6.38,4.68,1.1,9.34-.87,13.91-1.68,5.21-1.13,10.61-.4,15.65,1.14,4.14.95,8.12,2.59,12.17,3.84"/><path class="b" d="M8.61,112.5c.93.19,1.86-.58,2.61-1.02,1.09-.68,2.38-1.5,3.48-2.15,1.35-.82,2.98-1.51,4.35-2.3,1.97-1.13,4-2.42,6.09-3.31,5.75-2.66,10.77.19,14.78,4.39,1.47,1.33,2.68,3.32,4.35,4.39,14.49,0,28.99,0,43.48,0,4.96-.07,4.29.77,7.83-2.97,3.21-3.29,6.23-6.91,9.56-10.07,4.74-4.86,10.09-5.68,16.52-4.16,8.98,2.03,17.41,8.24,26.95,6.48,4.29-.67,8.68-1.48,13.04-1.02,3.53.32,7.01,1.36,10.43,2.21,3.77.73,7.53,1.82,11.3,2.53"/><path class="b" d="M8.61,107.67c2.03-.73,4.11-1.68,6.09-2.54,2.01-.84,4.17-1.65,6.09-2.7,10.63-6.14,15.63-2.55,23.48,5.35,10.72,0,21.46,0,32.17,0,3.75,0,7.56,0,11.3,0,2.27-.12,4.73.27,6.96-.21,13.27-14.49,14.82-22.81,35.65-12.22,4.87,2.3,10.13,4.66,15.65,4.03,4.91-.51,9.82-1.69,14.78-1.45,3.79.11,7.56.92,11.3,1.42,3.75.32,7.56.72,11.3,1.16"/><path class="b" d="M8.61,103.05c3.51-.4,7.1-1.03,10.43-2.2,10.46-4.65,15.06-5.59,24.35,2.19,17.38.05,34.78,0,52.17.02,2.06-1.39,3.52-3.82,5.22-5.61,3.47-3.8,6.8-8.91,12.17-9.98,9.43-1.28,17.26,7.49,26.09,9.64,3.11.85,6.43.42,9.56-.07,3.44-.56,6.95-1.17,10.43-1.36,4.04-.26,8.14.09,12.17.14,4.04-.06,8.12-.63,12.17-.42"/><path class="b" d="M8.61,98.33c4.62-.05,9.3.11,13.91-.07,3.6-1.26,7.46-2.42,11.3-1.86,2.1.25,4.16,1.11,6.09,1.93,3.46,0,6.98,0,10.43,0,8.11,0,16.24,0,24.35,0,6.94,0,13.92,0,20.87,0,1.52.31,2.56-1.12,3.48-2.08,1.4-1.48,2.94-3.16,4.35-4.63,5.72-6.18,10.04-8.77,18.26-4.94,7.57,3.41,14.58,10.36,23.48,8.82,4.04-.47,8.11-1.2,12.17-1.51,4.03-.35,8.14-.29,12.17-.54,4.7-.22,9.22-1.99,13.91-2.32"/><path class="b" d="M8.61,93.61c16.52,0,33.05,0,49.56,0,7.82,0,15.66,0,23.48,0,4.91,0,9.87,0,14.78,0,.93.16,1.98-.38,2.61-1.04.78-.66,1.84-1.58,2.61-2.26,2.2-1.93,4.47-4.03,6.96-5.6,5.17-3.52,11.59-.99,16.52,1.73,5.46,2.82,10.98,6.77,17.39,6.52,3.74-.31,7.55-.66,11.3-.68,6.64-.19,13.47,1.16,20-.5,3.21-.93,6.33-2.37,9.56-3.21"/><path class="b" d="M8.61,88.89c19.99,0,40,0,60,0,9.56,0,19.14,0,28.69,0,3.95-1.98,7.35-5.05,11.3-7.04,4.97-2.69,10.81-.91,15.65,1.22,4.81,2.05,9.55,4.66,14.78,5.45,2.27.39,4.67.03,6.96.06,3.17.15,6.39.42,9.56.31,5.78,0,11.61,0,17.39,0,1.99,0,4.1,0,6.09,0,.76,0,1.85,0,2.61,0,.39-.23,1.33-.67,1.74-.89"/><path class="b" d="M8.61,84.17c19.41,0,38.84,0,58.26,0,5.78,0,11.61,0,17.39,0,3.15-.11,6.44.24,9.56-.17,5.01-1.05,9.34-4.01,13.91-6.15,4.67-2.41,10.11-1.32,14.78.54,5.68,2.14,11.25,5.13,17.39,5.62,1.39.13,2.96,0,4.35-.05,1.4-.06,2.95.23,4.35.22,11.59,0,23.19,0,34.78,0"/><path class="b" d="M8.61,79.45c18.84,0,37.68,0,56.52,0,1.99,0,4.1,0,6.09,0,1.29.2,2.4-1.02,3.48-1.54,2.08-1.2,4.56-1.83,6.96-1.51,11.23,1.77,13.74,2.16,24.35-2.81,6.34-3.14,11.28-1.74,17.39,1.06,3.7,1.66,7.4,3.56,11.3,4.72,4.9.22,9.87.02,14.78.09,11.3,0,22.61,0,33.91,0"/><path class="b" d="M8.61,74.73h60.87c2.82-2.22,5.84-4.84,9.56-5.18,2.95-.12,5.86.95,8.7,1.6,3.96,1.04,8.23,1.18,12.17-.03,3.23-.92,6.32-2.51,9.56-3.39,7.36-1.88,13.79,3.83,20,6.88,6.34.32,12.77.02,19.13.12,11.59,0,23.19,0,34.78,0"/><path class="b" d="M8.61,70.01c14.49,0,28.99,0,43.48,0,3.75,0,7.56,0,11.3,0,1.09,0,2.39,0,3.48,0,.5.08,1.31-.11,1.74-.36.76-.65,1.81-1.51,2.61-2.11,2.05-1.52,4.4-2.97,6.96-3.35,3.3-.36,6.48,1.19,9.56,2.13,3.32,1.12,6.94,1.76,10.43,1.19,5.58-.63,10.78-4.81,16.52-3.39,3.5.94,6.6,3.1,9.56,5.1.63.61,1.75.88,2.61.78,1.09,0,2.39,0,3.48,0,3.75,0,7.56,0,11.3,0,13.91,0,27.83,0,41.74,0"/><path class="b" d="M8.61,64.71l.87.57c13.33.03,26.67,0,40,0,6.07,0,12.19,0,18.26,0,.91-.29,1.85-1.18,2.61-1.72,1.58-1.15,3.38-2.29,5.22-2.99,5.11-2.07,10.02,1.57,14.78,3.04,7.3,2.61,12.22.13,19.13-1.73,3.31-.9,6.73.29,9.56,2,.76.44,1.74,1.17,2.61,1.39.42,0,1.31,0,1.74,0,19.99,0,40,0,60,0"/><path class="b" d="M8.61,58.81c.8.43,1.85,1.08,2.61,1.57,1.95.41,4.1.1,6.09.19,4.33,0,8.71,0,13.04,0,12.46-.04,24.93.07,37.39-.04,7.97-5.91,11.33-6.59,20-1.61,1.08.55,2.34,1.23,3.48,1.64,2.58,0,5.25,0,7.83,0,3.16,0,6.4,0,9.56,0,1.7-.11,3.51-.58,5.22-.26,3.12.54,6.41.15,9.56.26,5.2,0,10.45,0,15.65,0,14.78,0,29.57,0,44.34,0"/><path class="b" d="M8.61,53.78c1.43.59,2.97,1.35,4.35,2.05,2.87.04,5.82,0,8.69.02,6.07,0,12.19,0,18.26,0,6.94,0,13.92,0,20.87,0,1.1-.05,2.45.19,3.48-.3,1.92-1.34,3.99-2.71,6.09-3.76,3.69-1.9,8.31-2.83,12.17-.9,2.73,1.32,5.24,3.25,7.83,4.83,6.05.33,12.19.02,18.26.12,7.82,0,15.66,0,23.48,0,17.1,0,34.21,0,51.3,0"/><path class="b" d="M8.61,50.14c1.1.29,2.39.67,3.48.98,1.09,0,2.39,0,3.48,0,2.87,0,5.82,0,8.69,0,8.11,0,16.24,0,24.35,0,2.87,0,5.82,0,8.7,0,1.29-.09,2.39-1.3,3.48-1.91,6.16-4.31,13.42-7.4,20.87-4.49,3.47,1.62,6.32,4.41,9.56,6.4h92.17"/><path class="b" d="M8.61,46.4c11.01,0,22.03,0,33.04,0,3.74-.07,7.57.14,11.3-.09,3.5-2.22,6.74-4.99,10.43-6.89,5.43-2.98,10.82-2.4,16.52-.68,3.62,1.11,6.49,3.88,9.56,5.96.76.53,1.81,1.22,2.61,1.69,1.69.04,3.52.01,5.22.02,4.04,0,8.13,0,12.17,0,1.11.07,2.38-.41,3.48-.55,1.97-.34,4.09-.54,6.09-.49,1.4.04,2.97.22,4.35.5,1.37.36,2.92.65,4.35.54,18.55,0,37.1,0,55.65,0"/><path class="b" d="M8.61,41.68c13.33,0,26.67,0,40,0,.46.02,1.29-.02,1.74-.09.46-.26,1.31-.82,1.74-1.11,1.12-.78,2.4-1.78,3.48-2.62,2.43-1.9,4.99-3.87,7.83-5.13,4.14-1.98,8.9-1.33,13.04.29,1.39.51,2.96,1.02,4.35,1.52,1.48.62,3.01,1.58,4.35,2.47,1.67,1.11,3.46,2.35,5.22,3.32,1.31.71,2.81,1.53,4.35,1.35,2.58,0,5.25,0,7.83,0,2.07-.6,4.1-1.65,6.09-2.46,4.08-1.65,8.72-2.26,13.04-1.32,3.1.65,5.98,2.22,8.69,3.79,5.49,0,11.03,0,16.52,0,12.17,0,24.35,0,36.52,0"/><path class="b" d="M8.61,36.96c13.62,0,27.25,0,40.87,0,.56.05,1.33-.31,1.74-.65,1.13-.76,2.41-1.76,3.48-2.6,3.16-2.48,6.47-5.19,10.43-6.21,4.16-1.13,8.39.46,12.17,2.13,2.34.94,4.83,1.83,6.96,3.22,2.73,1.59,5.54,3.51,8.69,4.11,1.99-.03,4.1.07,6.09-.06,3.73-.99,6.95-3.36,10.43-4.93,6.37-2.75,12.96-.92,18.26,3.2.75.55,1.73,1.43,2.61,1.78.77,0,1.84,0,2.61,0,2.58,0,5.25,0,7.83,0,14.2,0,28.41,0,42.61,0"/><path class="b" d="M8.61,32.24c9.27,0,18.56,0,27.82,0,3.16,0,6.4,0,9.56,0,1.09,0,2.38,0,3.48,0,.56.09,1.31-.19,1.74-.53,5.08-3.13,10.18-7.58,16.52-7.18,3.34.18,6.51,1.58,9.56,2.82,1.97.8,4.15,1.38,6.09,2.28,2.5,1.03,5.09,2.41,7.83,2.6,2.61-.04,5.38.32,7.83-.82,4.51-1.65,8.27-5.23,13.04-6.19,4.3-.88,8.7.69,12.17,3.2,6.53,4.91,2.73,3.67,11.3,3.81,15.94,0,31.89,0,47.82,0"/><path class="b" d="M8.61,27.52c11.01,0,22.03,0,33.04,0,2.57-.1,5.28.21,7.83-.16,1.11-.49,2.39-1.14,3.48-1.68,5.92-3.15,11.67-4.72,18.26-2.59,2.88.82,5.73,2.07,8.7,2.59,6.36,1.29,11.91,2.68,18.26.2,3.86-1.36,7.41-3.64,11.3-4.9,6.79-2.22,13.47,1.86,18.26,6.4,2.26.3,4.68.06,6.96.13,4.33,0,8.71,0,13.04,0,11.88,0,23.77,0,35.65,0"/><path class="b" d="M8.61,22.8c12.17,0,24.35,0,36.52,0,1.18.13,2.42-.24,3.48-.74,1.68-.68,3.49-1.4,5.22-1.95,4.17-1.4,8.7-1.81,13.04-1.04,3.49.56,6.93,1.72,10.43,2.23,1.98.29,4.1.14,6.09.17,4.05.03,8.18-.17,12.17-.9,6.9-1.08,13.81-4.3,20.87-2.73,3.47.77,6.7,2.57,9.56,4.63.71.42,1.82.34,2.61.33,1.09,0,2.39,0,3.48,0,3.45,0,6.98,0,10.43,0,13.62,0,27.25,0,40.87,0"/><path class="b" d="M8.61,18.08c11.88,0,23.77,0,35.65,0,1.78-.33,3.52-1.31,5.22-1.9,2.49-.93,5.18-1.58,7.83-1.84,6.42-.71,12.74,1.2,19.13,1.36,3.19.02,6.38-.86,9.56-1.04,4.61-.4,9.31-.24,13.91.2,2.87.26,5.82.62,8.69.86,2.28.19,4.69.22,6.96.56,1.72.25,3.56.66,5.22,1.19.43.14,1.32.44,1.74.6.42,0,1.32,0,1.74,0,19.7,0,39.42,0,59.13,0"/></svg>