<?xml version="1.0" encoding="UTF-8"?><svg id="a" xmlns="http://www.w3.org/2000/svg" width="1920" height="2400" viewBox="0 0 192 240"><defs><style>.b{fill:none;stroke:#fff;stroke-miterlimit:10;stroke-width:.4px;}.c{stroke-width:0px;}</style></defs><rect class="c" width="192" height="240"/><path class="b" d="M8.43,230.49c24.97-.04,49.96.08,74.93-.04,7.74-6.73,13.57-7.43,21.78-.98.42.35,1.21.89,1.74,1.02.44,0,1.3,0,1.74,0,1.09,0,2.39,0,3.49,0,4.05,0,8.15,0,12.2,0,19.75,0,39.5,0,59.25,0"/><path class="b" d="M8.43,225.76c16.26,0,32.53,0,48.79,0,7.54,0,15.11,0,22.65,0,2.41.12,2.59-.11,4.36-1.63,1.32-1.04,2.86-2.12,4.36-2.9,3.48-1.95,7.82-1.96,11.33-.06,1.48.74,3.03,1.77,4.36,2.76.76.56,1.75,1.41,2.61,1.83.43,0,1.31,0,1.74,0,7.54,0,15.11,0,22.65,0,17.42,0,34.86,0,52.28,0"/><path class="b" d="M8.43,221.03h72.32c5.5-4.8,11.66-9.75,19.17-5.87,3.16,1.49,5.83,3.94,8.71,5.87h74.93"/><path class="b" d="M8.43,216.3c15.97,0,31.95,0,47.92,0,7.25,0,14.53,0,21.78,0,1.34-.36,2.41-1.74,3.49-2.55,1.9-1.63,3.95-3.33,6.1-4.62,4.43-2.82,9.43-2.81,13.94-.18,3.92,2.18,7.35,5.25,11.33,7.34,7.25,0,14.53,0,21.78,0,16.26,0,32.53,0,48.79,0"/><path class="b" d="M8.43,211.57c18,0,36.02,0,54.02,0,3.17,0,6.41,0,9.58,0,4.3.09,3.69.19,6.97-2.58,8.13-6.99,14.52-13.25,25.27-6.4,2.02,1.21,4.07,2.65,6.1,3.84,2.57,1.27,4.89,3.19,6.97,5.14h66.22"/><path class="b" d="M8.43,206.84c14.23,0,28.47,0,42.69,0,4.92,0,9.89,0,14.81,0,1.7,0,3.53,0,5.23,0,.44,0,1.3,0,1.74,0,.5-.18,1.36-.77,1.74-1.14,2.89-2.42,5.82-4.95,8.71-7.36,3.69-3.05,8.05-6.18,13.07-5.94,4.15.19,7.85,2.48,11.33,4.54,1.64,1.05,3.59,1.87,5.23,2.93,2.57,1.84,4.78,4.32,6.97,6.58.99.62,2.38.33,3.49.39,1.39,0,2.96,0,4.36,0,4.92,0,9.89,0,14.81,0,13.64,0,27.31,0,40.95,0"/><path class="b" d="M8.43,202.11c13.94,0,27.89,0,41.82,0,4.92,0,9.89,0,14.81,0,1.4,0,2.96,0,4.36,0,1.32.06,2.56.08,3.49-1.02,3.13-2.78,6.31-5.65,9.58-8.25,3.95-3.23,8.57-6.67,13.94-6.37,4.47.25,8.38,2.8,12.2,4.88,1.36.79,3.03,1.38,4.36,2.22,3.25,2.22,5.88,5.35,8.71,8.05.94.76,2.37.41,3.49.48,1.39,0,2.96,0,4.36,0,4.63,0,9.31,0,13.94,0,13.35,0,26.73,0,40.08,0"/><path class="b" d="M8.43,197.38c13.35,0,26.73,0,40.08,0,4.63,0,9.31,0,13.94,0,2.58-.08,5.28.18,7.84-.13,4.53-3.82,8.99-7.86,13.94-11.15,5.35-3.79,11.19-5.29,17.43-2.69,2.35.9,4.68,2.14,6.97,3.19,1.68.81,3.68,1.26,5.23,2.32,3.49,2.36,6.38,5.61,9.58,8.31,1.67.33,3.53.09,5.23.16,2.88,0,5.84,0,8.71,0,6.08-.08,12.22.16,18.3-.09,4.82-1.4,9.88-.77,14.81-.63,2.03.1,4.09-.56,6.1-.72,2.32-.11,4.72.36,6.97.91"/><path class="b" d="M8.43,192.65c12.48,0,24.98,0,37.47,0,4.92,0,9.89,0,14.81,0,2.29,0,4.68,0,6.97,0,.91-.22,1.86-1.06,2.61-1.58,8.25-5.67,17.11-13.79,27.88-11.87,3.27.54,6.45,1.8,9.58,2.83,1.96.73,4.23.89,6.1,1.86,4.22,2.26,7.45,6.03,11.33,8.77,9.58,0,19.18,0,28.75,0,2.07.13,4.07-.95,6.1-1.2,3.14-.58,6.41-.52,9.58-.52,2.32.08,4.68-.45,6.97-.71,2.29-.17,4.7.07,6.97.39"/><path class="b" d="M8.43,187.91c12.77,0,25.56,0,38.34,0,4.34,0,8.73,0,13.07,0,1.7,0,3.53,0,5.23,0,1.18-.36,2.39-1.22,3.49-1.76,3.97-2.12,8.18-3.9,12.2-5.92,5.36-2.68,11.42-4.09,17.43-3.53,3.2.24,6.42.88,9.58,1.33,1.69.3,3.56.24,5.23.61,5.45,1.64,9.19,6.43,13.94,9.27,9.58,0,19.18,0,28.75,0,2.05.14,4.07-.81,6.1-1.01,2.56-.39,5.26-.41,7.84-.44,2.31.03,4.69-.34,6.97-.65,2.28-.24,4.68-.28,6.97-.26"/><path class="b" d="M8.43,183.18c17.13,0,34.28,0,51.41,0,.45,0,1.3,0,1.74,0,.85-.15,1.84-.75,2.61-1.09,1.64-.73,3.48-1.35,5.23-1.78,2.86-.72,5.87-1.09,8.71-1.88,3.69-1.26,7.45-2.56,11.33-3.15,5.16-.89,10.46-1.04,15.68-1.19,2.29-.05,4.68-.22,6.97-.33,1.47.04,3.04.54,4.36,1.16,4.11,2.03,7.6,5.2,11.33,7.83.68.53,1.8.44,2.61.43,1.09,0,2.4,0,3.49,0,3.46,0,6.99,0,10.46,0,5.21,0,10.47,0,15.68,0,2.58-.24,5.25-.47,7.84-.38,5.25.28,10.46-.85,15.68-1.21"/><path class="b" d="M8.43,178.45c16.84,0,33.7,0,50.54,0,1.75-.51,3.42-1.66,5.23-2.05,4.24-1.26,8.73-.43,13.07-.69,2.64-.25,5.24-1.26,7.84-1.73,4.32-.92,8.73-1.67,13.07-2.46,4.63-.81,9.28-1.8,13.94-2.38,3.14-.14,6.11,1.43,8.71,3.03,2.05,1.29,4.12,2.8,6.1,4.2,1.07.69,2.24,1.75,3.49,2.09,5.8,0,11.63,0,17.43,0,7.54,0,15.11,0,22.65,0,4.34-.08,8.75.21,13.07-.22"/><path class="b" d="M8.43,173.72c11.61,0,23.24,0,34.85,0,4.92,0,9.89,0,14.81,0,1.2-.12,2.35-1.04,3.49-1.4,1.35-.52,2.92-.9,4.36-1.06,4.06-.49,8.14.69,12.2.47,7.89-1.35,15.74-3.23,23.53-5.13,3.44-.82,6.94-1.73,10.46-2.18,3.8-.22,7.31,1.8,10.46,3.7,2.88,1.79,5.75,3.79,8.71,5.45,1.97.31,4.11.07,6.1.14,3.46,0,6.99,0,10.46,0,11.9,0,23.82,0,35.72,0"/><path class="b" d="M8.43,168.99c11.61,0,23.24,0,34.85,0,2.88,0,5.84,0,8.71,0,1.1,0,2.39,0,3.49,0,.51.08,1.3-.11,1.74-.36,2.35-1.54,5.06-2.75,7.84-3.21,4.34-.78,8.73.45,13.07.52,7.93-.59,15.83-2.03,23.53-4,9.94-2.36,12.32-4.35,21.78,1.35,2.29,1.35,4.64,2.84,6.97,4.13,1.06.55,2.3,1.34,3.49,1.57.42,0,1.32,0,1.74,0,5.21,0,10.47.01,15.68,0,2.25-.61,4.64-1.11,6.97-1.3,4.37-.41,8.75.52,13.07,1.02,4.04.24,8.15.31,12.2.28"/><path class="b" d="M8.43,164.26h45.31c5.12-3.88,10.9-6.37,17.43-5.53,3.17.3,6.38,1.04,9.58.95,4.92.06,9.91.24,14.81-.29,5-.48,9.93-1.66,14.81-2.78,8.66-2.22,15.85,4.94,23.53,7.64,2.29,0,4.68,0,6.97,0,2.58-.05,5.27.11,7.84-.08,3.11-1.15,6.3-2.37,9.58-2.89,4.04-.7,8.2-.11,12.2.63,1.98.42,4.14.41,6.1.9,1.13.31,2.44.85,3.49,1.37,1.08.13,2.4.06,3.49.08"/><path class="b" d="M8.43,159.53c11.61,0,23.24,0,34.85,0,2,0,4.1,0,6.1,0,1.25-.33,2.39-1.42,3.49-2.06,5.39-3.68,11.71-6,18.3-4.85,2.31.32,4.68.9,6.97,1.33,2,.33,4.12.6,6.1,1.04,5.71,1.24,11.54,2.54,17.43,2.15,2.61-.15,5.3-.59,7.84-1.19,2.81-.83,5.82-1.24,8.71-.65,4.57.69,8.7,3.1,13.07,4.24,1.99,0,4.11,0,6.1,0,2.29,0,4.68,0,6.97,0,1.39-.08,3.03.24,4.36-.27,2.82-1.36,5.7-2.85,8.71-3.76,4.52-1.47,9.4-1,13.94.14,1.39.35,2.99.58,4.36,1.01,1.84.65,3.64,1.78,5.23,2.89.78,0,1.84,0,2.61,0"/><path class="b" d="M8.43,154.8c9.87,0,19.76,0,29.62,0,5.88,0,5.25.48,10.46-2.48,9.73-5.77,16.19-7.08,27.01-3.28,2.86.97,5.92,1.58,8.71,2.76,1.71.69,3.53,1.51,5.23,2.24.77.32,1.75.88,2.61.76,13.06,0,26.15,0,39.21,0,3.75,0,7.57,0,11.33,0,1.69,0,3.53,0,5.23,0,.82-.32,1.86-.97,2.61-1.43,5.58-3.54,11.58-6.19,18.3-4.47,2.62.68,5.4,1.34,7.84,2.54,1.48.8,3.02,1.9,4.36,2.91.64.55,1.83.46,2.61.44"/><path class="b" d="M8.43,150.07c6.96,0,13.95,0,20.91,0,4.68-.73,9.4-1.76,13.94-3.13,3.3-.97,6.33-2.81,9.58-3.9,5.08-1.82,10.72-1.43,15.68.56,2.95,1.11,5.83,2.61,8.71,3.88,1.98.87,4.19,1.53,6.1,2.58,6.38.02,12.79,0,19.17,0,14.52,0,29.05,0,43.57,0,8.12-5.11,14.19-10.71,24.4-6.92,2.35.85,4.86,1.7,6.97,3.09,1.12.72,2.41,1.65,3.49,2.43.74.5,1.65,1.45,2.61,1.4"/><path class="b" d="M8.43,145.34c4.92-.05,9.9.1,14.81-.06,6.87-2.07,14.08-2.98,20.91-5.22,2.63-.79,5.14-2.25,7.84-2.8,8.19-1.74,15.31,3.87,21.78,8.06,18.29.08,36.6,0,54.89.03,3.17,0,6.41,0,9.58,0,1.09,0,2.39,0,3.49,0,1.49-.51,3.03-1.38,4.36-2.22,4.91-3.15,9.68-7.3,15.68-8.02,3.9-.49,7.78.8,11.33,2.3,3.85,1.4,7.1,4.1,10.46,6.37"/><path class="b" d="M8.43,140.61c4.92,0,9.89,0,14.81,0,4.66-1.16,9.33-2.51,13.94-3.84,3.21-.97,6.46-2.07,9.58-3.3,4.93-2.51,9.49-1.45,13.94,1.46,2.43,1.55,4.76,3.48,6.97,5.34,1.49.68,3.59.21,5.23.34,2.88,0,5.84,0,8.71,0,10.45,0,20.92,0,31.37,0,8.12,0,16.27,0,24.4,0,2.31-1.02,4.75-2.06,6.97-3.27,2.95-1.67,5.77-3.74,8.71-5.42,5.35-3.26,11.38-4.43,17.43-2.43,2.04.64,4.21,1.33,6.1,2.34,2.4,1.3,4.72,2.99,6.97,4.53"/><path class="b" d="M8.43,135.88c5.79-.04,11.64.09,17.43-.05,4.1-1.03,8.22-2.23,12.2-3.68,2.61-.94,5.27-2,7.84-3.04,1.65-.64,3.41-1.54,5.23-1.53,4.07.08,7.5,2.87,10.46,5.39,1.1.89,2.21,2.26,3.49,2.91,18.87,0,37.76,0,56.64,0,3.46,0,6.99,0,10.46,0,3.38-1.77,7-3.17,10.46-4.78,5.48-2.64,10.61-6.26,16.56-7.81,5.45-1.51,11.3-.7,16.55,1.16,2.77,1.11,5.36,2.84,7.84,4.48"/><path class="b" d="M8.43,131.14c6.09-.01,12.21.02,18.3-.01,5.38-.86,10.65-2.47,15.68-4.52,6.99-2.81,9.02-4.71,15.68.43,1.14.89,2.43,2.04,3.49,3.03.63.8,1.6,1.21,2.61,1.07,4.92,0,9.89,0,14.81,0,10.74,0,21.5,0,32.24,0,4.92,0,9.89,0,14.81,0,1.23-.26,2.37-1.31,3.49-1.87,1.64-.94,3.48-1.83,5.23-2.56,2.26-.95,4.7-1.77,6.97-2.69,2.87-1.22,5.79-2.57,8.71-3.66,10.58-4.18,23.34-4.72,33.11,1.76"/><path class="b" d="M8.43,125.38c2.25.53,4.65.95,6.97.88,1.99-.16,4.09-.44,6.1-.43,5.23-.03,10.57.02,15.68-1.26,12.97-3.05,12.38-8.39,24.4,1.85,15.97,0,31.95,0,47.92,0,4.05,0,8.15,0,12.2,0,.56,0,1.37-.51,1.74-.9.76-.6,1.82-1.4,2.61-1.95,4.15-3.01,9.05-4.81,13.94-6.21,2.59-.81,5.19-1.93,7.84-2.55,6.24-1.54,12.76-1.86,19.17-1.6,5.66.19,11.4.97,16.56,3.46"/><path class="b" d="M8.43,118.5c1.99.13,4.1.26,6.1.25,1.7-.01,3.53-.26,5.23-.14,4.07.24,8.13,1.21,12.2,1.48,3.18.23,6.47.02,9.58-.67,2.66-.53,5.26-1.61,7.84-2.4,4.29-.75,8.07,2.27,11.33,4.65,16.84.05,33.7,0,50.54.02,3.17,0,6.41,0,9.58,0,.53-.15,1.37-.78,1.74-1.18,1.06-.93,2.36-1.99,3.49-2.84,4.08-3.16,8.96-5.15,13.94-6.38,3.67-1.14,7.45-2.17,11.33-2.08,5.54-.01,11.07.93,16.55,1.63,5.22.69,10.53,1.17,15.68,2.29"/><path class="b" d="M8.43,113.53c4.03-.39,8.15-.93,12.2-.75,4.08.27,8.14,1.17,12.2,1.64,3.45.42,7.01.52,10.46.07,2.03-.22,4.1-.83,6.1-1.23,1.43-.16,3.02.16,4.36.68,1.14.45,2.44,1.13,3.49,1.77.77.43,1.68,1.27,2.61,1.23,21.49-.01,42.99.03,64.48-.01,4.09-3.48,8.79-6.39,13.94-7.98,3.11-.95,6.32-1.98,9.58-2.24,11.93-.73,23.74,2.95,35.72,2.21"/><path class="b" d="M8.43,111.02c5.72-1.12,11.6-1.74,17.43-1.87,4.64-.09,9.32.34,13.94.7,2.58.19,5.26.34,7.84.2,2.43-.33,4.87.55,6.97,1.7.96.75,2.35.41,3.49.48,1.7,0,3.53,0,5.23,0,5.21,0,10.47,0,15.68,0,16.84,0,33.7,0,50.54,0,1.25-.14,2.38-1.22,3.49-1.75,1.35-.76,2.92-1.52,4.36-2.12,7.39-3.2,15.58-3.57,23.53-3.53,3.75,0,7.57.05,11.33.13,3.77.21,7.61-.06,11.33-.76"/><path class="b" d="M8.43,107.49c4.92-.03,9.89.07,14.81-.04,3.66-1.11,7.48-2.06,11.33-2.08,5.02-.15,9.87,1.58,14.81,2.12,8.7,0,17.44,0,26.14,0,20.33,0,40.67,0,60.99,0,2.33-.67,4.57-1.99,6.97-2.47,7.68-1.93,15.65-2.51,23.53-3.17,5.52-.41,11.13-.41,16.56-1.66"/><path class="b" d="M8.43,102.76c41.51-.08,83.05.04,124.6,0,2.58,0,5.26,0,7.84,0,1.43-.1,2.94-.79,4.36-1.03,2.55-.57,5.24-.97,7.84-1.26,10.16-1.01,20.39-1.49,30.5-3"/><path class="b" d="M8.43,98.03c29.04,0,58.09,0,87.13,0,11.61,0,23.24,0,34.85,0,3.17,0,6.41,0,9.58,0,1.13-.15,2.37-.77,3.49-1.01,1.66-.42,3.52-.66,5.23-.76,6.4-.32,12.78.97,19.17.98,5.25.09,10.44-1.23,15.68-1.35"/><path class="b" d="M8.43,93.3c27.88,0,55.77,0,83.65,0,9.58,0,19.18,0,28.75,0,3.17,0,6.41,0,9.58,0,1.69-.09,3.58.22,5.23-.21.76-.41,1.84-.95,2.61-1.33,8.52-4.51,14.43-1.09,22.65,1.54,7.54,0,15.11,0,22.65,0"/><path class="b" d="M8.43,88.57c36.01,0,72.03,0,108.04,0,4.34,0,8.73,0,13.07,0,.47.07,1.35-.17,1.74-.45,1.09-.54,2.4-1.19,3.49-1.73,3.29-1.58,6.75-3.34,10.46-3.49,5.77-.19,10.71,3.29,15.68,5.67,7.54,0,15.11,0,22.65,0"/><path class="b" d="M8.43,83.84c34.56,0,69.13,0,103.69,0,4.34,0,8.73,0,13.07,0,1.18.14,2.44-.44,3.49-.91,1.09-.47,2.4-1.05,3.49-1.53,4.17-1.8,8.47-3.81,13.07-4.09,6.7-.38,12.73,3.25,18.3,6.53,6.67.04,13.37,0,20.04.01"/><path class="b" d="M8.43,79.1c32.53,0,65.06,0,97.59,0,6.09-.04,12.22.08,18.3-.05,6.52-2.51,13.05-5.36,20.04-6.24,6.68-1.22,13.09-.37,19.17,2.69,1.41.67,2.97,1.46,4.36,2.18,1.07.48,2.28,1.37,3.49,1.43,4.05,0,8.15,0,12.2,0"/><path class="b" d="M8.43,74.37c30.49,0,60.99,0,91.49,0,7.25,0,14.53,0,21.78,0,1.16,0,2.4-.7,3.49-1.04,1.97-.72,4.08-1.44,6.1-2.03,2.83-.84,5.8-1.52,8.71-2.01,2-.34,4.15-.55,6.1-1.13,6.92-2.18,12.89-4.07,20.04-1.24,3.58,1.37,7.02,3.25,10.46,4.93,2.2,1,4.46,2.79,6.97,2.52"/><path class="b" d="M8.43,69.64c30.49,0,60.99,0,91.49,0,6.09,0,12.21,0,18.3,0,5.7-1.96,11.43-4.07,17.43-4.97,3.15-.62,6.5-.64,9.58-1.54,3.29-1.11,6.36-2.98,9.58-4.25,11.72-5.01,19.01,3.12,28.75,7.8"/><path class="b" d="M8.43,64.91c29.62,0,59.25,0,88.87,0,2.88,0,5.84,0,8.71,0,1.69-.1,3.61.27,5.23-.31,4.09-1.11,8.11-2.66,12.2-3.8,3.97-1.14,8.1-1.88,12.2-2.34,10.04-.93,9.52-1.23,18.3-5.8,12.18-6.31,19.61,1.62,29.62,7.35"/><path class="b" d="M8.43,60.18c29.33,0,58.67,0,88,0,3.46,0,6.99,0,10.46,0,.5.1,1.34-.15,1.74-.45.75-.43,1.81-.96,2.61-1.27,2.56-.94,5.22-1.92,7.84-2.66,3.38-.97,6.94-1.56,10.46-1.77,3.75-.25,7.59-.1,11.33-.6,4.98-.5,8.88-4.03,13.07-6.42,12.09-7.53,19.77.74,29.62,7.11"/><path class="b" d="M8.43,55.45c30.49,0,60.99,0,91.49,0,13.2-.05,5.45.82,16.55-3.61,3.05-1.12,6.34-1.78,9.58-1.88,5.5-.27,11.17,1.3,16.55-.28,4.65-1.63,8.1-5.51,12.2-8.1,11.41-8.02,19.48,1.2,28.75,7.34"/><path class="b" d="M8.43,50.72c10.74,0,21.5,0,32.24,0,2.32.02,4.64-.96,6.97-.98,3.83.02,7.57-1.14,11.33-1.72,5.02-.9,10.28-.16,14.81,2.2.97.7,2.36.47,3.49.51,1.4,0,2.96,0,4.36,0,8.12,0,16.27,0,24.4,0,1.99,0,4.11,0,6.1,0,.88-.05,1.85-.75,2.61-1.13,1.62-.84,3.46-1.59,5.23-2.06,5.42-1.6,11.06-.29,16.56.05,2.69.13,5.54-.33,7.84-1.79,4.37-2.83,7.79-7.01,12.2-9.81,10.24-7.05,18.69,3.28,27.01,8.27"/><path class="b" d="M8.43,44.13c2.02-.09,4.15.18,6.1.69,1.71.42,3.42,1.38,5.23,1.17,3.75,0,7.57,0,11.33,0,1.09-.03,2.41.09,3.49-.14,1.41-.4,2.97-.91,4.36-1.38,2.54-.84,5.18-1.73,7.84-2.1,2.94-.14,5.9-.72,8.71-1.59,10.34-3.15,15.26-1.09,23.53,5.2,8.7,0,17.44,0,26.14,0,2.88,0,5.84,0,8.71,0,1.09,0,2.39,0,3.49,0,.49.08,1.32-.11,1.74-.36,3.29-1.34,6.94-1.71,10.46-1.47,3.74.2,7.65.98,11.33-.09,2.71-.79,4.95-2.79,6.97-4.68,2.54-2.41,5.04-5.06,7.84-7.16,10.85-8.6,18.65,2.86,27.88,7.6"/><path class="b" d="M8.43,38.08c3.88.59,7.54,2.23,11.33,3.18,3.75-.04,7.58.09,11.33-.06,2.96-.67,5.87-1.79,8.71-2.84,2.24-.82,4.61-1.66,6.97-2.05,2.02-.21,4.16-.43,6.1-1.09,5.01-1.62,10.4-3.77,15.68-2.1,2.9.86,5.56,2.62,7.84,4.57.81.69,1.86,1.68,2.61,2.43.39.48,1.09,1.1,1.74,1.13,11.9,0,23.82,0,35.72,0,4.35.01,8.75.12,13.07-.41,3.17-.17,6.46.09,9.58-.58,5.17-1.04,8.57-5.54,12.2-8.98,7.26-7.3,12.94-9.53,21.78-2.89,3.39,2.37,6.65,5.16,10.46,6.84"/><path class="b" d="M8.43,32.94c2.88,1.16,5.75,2.57,8.71,3.5,3.45.21,7,.03,10.46.08,1.4-.07,3.01.21,4.36-.23,3.86-1.21,7.53-3.11,11.33-4.5,2.76-1.16,5.86-1.11,8.71-1.88,3.44-.92,6.88-2.26,10.46-2.54,7.02-.74,13.02,3.97,17.43,8.93,1.93.49,4.11.12,6.1.23,3.76,0,7.57,0,11.33,0,10.45,0,20.92,0,31.37,0,1.72-.15,3.52-.76,5.23-1,2.64-.48,5.4-1,7.84-2.15,8.11-4.06,13.91-16.08,24.4-12.98,6.45,2.18,11.09,7.82,17.43,10.26"/><path class="b" d="M8.43,27.25c3.04,1.71,6.1,3.91,9.58,4.55,2.29,0,4.68,0,6.97,0,1.7-.06,3.55.15,5.23-.14,3.94-1.2,7.61-3.28,11.33-5.01,1.92-.88,4.01-1.73,6.1-2.09,2.61-.28,5.27-.85,7.84-1.36,10.29-2.32,17.42,1.09,24.4,8.59,15.1,0,30.21,0,45.31,0,1.09,0,2.39.03,3.49-.04,1.36-.7,2.93-1.36,4.36-1.89,3.48-1.28,7.24-2.14,10.46-4.05,6.43-3.95,12.57-11.36,20.91-9.35,7.09,1.85,12.25,7.84,19.17,10.14"/><path class="b" d="M8.43,20.26c7.42,5.22,14.71,7.75,23.53,4.22,4.5-1.72,8.57-4.51,13.07-6.23,3.87-1.32,8.14-1.4,12.2-1.48,8.63-.08,16.68,4.19,22.65,10.22,15.09.22,30.21,0,45.31.08.78,0,1.85.05,2.61-.16,1.33-.92,2.9-1.83,4.36-2.53,3.06-1.5,6.44-2.42,9.58-3.73,6.23-2.75,11.94-8.01,19.17-7.4,8.45.85,14.67,7.75,22.65,10.06"/><path class="b" d="M8.43,12.01c10.31,6.26,17.6,8.23,28.75,2.38,6.06-3.12,10.29-5.65,17.43-4.72,9.76,1.23,18.86,6.16,26.14,12.65,15.1.04,30.21,0,45.31.02,2.18-1.5,4.49-3.03,6.97-3.99,2.51-1.03,5.25-1.68,7.84-2.48,3.54-1.14,6.89-3,10.46-4.08,12.33-4.25,21.13,5.66,32.24,8.76"/></svg>