<?xml version="1.0" encoding="UTF-8"?><svg id="a" xmlns="http://www.w3.org/2000/svg" width="1920" height="2400" viewBox="0 0 192 240"><defs><style>.b{fill:none;stroke:#fff;stroke-miterlimit:10;stroke-width:.4px;}.c{stroke-width:0px;}</style></defs><rect class="c" x="0" width="192" height="240"/><path class="b" d="M8.23,224.15c3.47.26,7,.77,10.48.7,4.06-.11,8.16-.72,12.23-.71,3.51-.02,7.08.42,10.48,1.3,2.03.51,4.13,1.23,6.11,1.9,2,0,4.11,0,6.11,0,1.19.13,2.44-.53,3.49-1,2.03-.95,4.1-2.11,6.11-3.09,4.26-2.17,9.3-3.5,13.97-1.91,2.37.78,4.62,2.13,6.99,2.93,5.28,2.03,11.02,1.99,16.59,2.07,2.35-.03,4.71.61,6.99,1.01,2.88,0,5.85,0,8.73,0,9.6,0,19.22,0,28.82,0,4.5-2.72,8.88-5.75,13.1-8.89,3.63-2.63,7.25-5.48,11.35-7.35,2.15-1.05,4.63-1.29,6.99-1.38,2.29-.19,4.69-.41,6.99-.28"/><path class="b" d="M8.23,221.19c3.47.07,7,.54,10.48.43,4.65-.19,9.31-1.03,13.97-.98,2.91,0,5.9.34,8.73.99,1.11.25,2.41.6,3.49.93.79.05,1.83.04,2.62.04,2,0,4.11,0,6.11,0,.79,0,1.84,0,2.62,0,.84-.22,1.86-.79,2.62-1.19,5.77-3.25,12.45-7.1,19.21-4.59,5.64,2.38,11.29,5.17,17.47,5.78,4.06,0,8.17,0,12.23,0,11.35,0,22.71,0,34.06,0,.77,0,1.85,0,2.62,0,1.77-.77,3.56-1.86,5.24-2.8,4.25-2.46,8.27-5.41,12.23-8.31,3.5-2.47,7.1-5.28,11.35-6.26,3.44-.45,7.03-.66,10.48-.19"/><path class="b" d="M8.23,217.4c5.78.73,11.65.39,17.47.46,9.02,0,18.06,0,27.07,0,2.29-.04,4.7.1,6.99-.08,1.1-.66,2.39-1.46,3.49-2.11,4.38-2.67,9.67-4.96,14.85-3.4,3.92,1.27,7.52,3.52,11.35,5.04,1.86.92,4.11.44,6.11.55,3.18,0,6.43,0,9.61,0,12.51,0,25.04,0,37.55,0,1.79-.16,3.55-1.2,5.24-1.77,4.69-1.84,9.07-4.51,13.1-7.51,7.84-5.78,12.2-10.23,22.71-7.44"/><path class="b" d="M8.23,212.64c2.56.63,5.25.48,7.86.48,3.76,0,7.59,0,11.35,0,10.76,0,21.55,0,32.31,0,.79,0,1.85.05,2.62-.15,1.08-.69,2.38-1.5,3.49-2.14,3.64-2.11,7.99-3.72,12.23-2.7,3.76.95,7.05,3.28,10.48,4.99,6.68,0,13.4,0,20.09,0,8.14,0,16.31,0,24.45,0,2.88,0,5.85,0,8.73,0,2.01.01,4.15.09,6.11-.44,17.35-3.08,21.05-19.95,35.81-13.98"/><path class="b" d="M8.23,206.95c1.73.37,3.5,1.13,5.24,1.43,3.47,0,7.01,0,10.48,0,7.27,0,14.57,0,21.83,0,5.81,0,11.66,0,17.47,0,1.54-.32,2.93-1.53,4.37-2.13,2.68-1.32,5.71-2.31,8.73-2.15,3.91.11,7.14,2.58,10.48,4.28,5.81,0,11.66,0,17.47,0,15.71,0,31.44,0,47.16,0,2.29,0,4.69,0,6.99,0,5.6-2.52,9.45-7.88,14.85-10.76,3.25-1.75,7.23-1.2,10.48.26"/><path class="b" d="M8.23,200.61c3.49.91,6.83,2.77,10.48,3.03,7.27,0,14.57,0,21.83,0,7.85,0,15.73,0,23.58,0,2.76-1.32,5.68-2.62,8.73-3.09,3.27-.53,6.73.09,9.61,1.73.78.42,1.77,1.1,2.62,1.36.44,0,1.31,0,1.75,0,18.63,0,37.27,0,55.89,0,6.68,0,13.4,0,20.09,0,1.4-.08,3.03.24,4.37-.27.4-.39,1.33-1.16,1.75-1.54,4.65-4.28,8.57-6.15,14.85-3.76"/><path class="b" d="M8.23,193.93c4.1.92,8.01,2.77,12.23,3.26,6.34,1.07,12.83.98,19.21,1.64,4.93.16,9.91.01,14.85.06,2.3,0,4.69,0,6.99,0,1.11-.33,2.39-.82,3.49-1.18,4.74-1.63,10.03-2.38,14.85-.65.81.28,1.87.79,2.62,1.22.42.32,1.21.65,1.75.61,28.82,0,57.64,0,86.46,0,1.09-.02,2.41.06,3.49-.09.37-.22,1.33-.6,1.75-.75,2.51-.84,5.31-.67,7.86-.11"/><path class="b" d="M8.23,185.48c4.15.38,8.09,2.14,12.23,2.69,6.34,1.14,12.83,1.4,19.21,2.27,3.24.41,6.49,1.2,9.61,2.16,5.27,1.2,10.59-.7,15.72-1.76,4.27-.95,8.78-1.43,13.1-.5,2.14.4,4.25,1.31,6.11,2.42.77.44,1.75,1.15,2.62,1.39.44,0,1.31,0,1.75,0,9.89,0,19.8,0,29.69,0,21.83,0,43.67,0,65.5,0"/><path class="b" d="M8.23,176.43c2.66-.02,5.3.77,7.86,1.37,2.59.56,5.27,1.1,7.86,1.63,8.16,1.69,16.41,3.16,24.45,5.39,7.24,1.89,14.61-.72,21.83-1.46,5.3-.64,10.87-.31,15.72,2.09,2.68,1.12,5.18,2.86,7.86,3.95,2.29,0,4.69,0,6.99,0,7.27,0,14.57,0,21.83,0,20.37,0,40.76,0,61.13,0"/><path class="b" d="M8.23,168.32c3.25.07,6.42,1.2,9.61,1.74,9.25,1.93,17.98,5.76,27.07,8.25,5.93,1.89,12.26,1.89,18.34.77,15.84-3.11,24.59-4.56,38.43,5.58h82.09"/><path class="b" d="M8.23,162.04c2.35.31,4.69,1.11,6.99,1.68,3.88.69,7.73,1.77,11.35,3.32,8.27,3.36,16.24,8.24,25.33,8.93,4.66.46,9.42-.05,13.97-1.11,4.94-1.12,9.81-2.81,14.85-3.49,3.43-.61,6.98-1.47,10.48-.95,6.04.86,10.72,5.31,14.85,9.46,25.9.11,51.82,0,77.72.04"/><path class="b" d="M8.23,157.78c2.33.67,4.65,1.72,6.99,2.38,4.22.77,8.36,2.07,12.23,3.94,7.88,3.66,15.54,8.61,24.45,9.09,7.77.95,15.45-1.09,22.71-3.71,3.81-1.26,7.67-2.19,11.35-3.85,10.69-4.53,15.98,2.6,22.71,9.55h75.1"/><path class="b" d="M8.23,155.27c2.32.93,4.61,2.18,6.99,2.97,1.68.49,3.56.77,5.24,1.27,4.16,1.15,8.23,2.79,12.23,4.43,4.27,1.74,8.6,3.58,13.1,4.67,5.99,1.25,12.23,2.12,18.34,1.28,3.86-.51,7.66-1.66,11.35-2.87,2.6-.9,5.41-1.53,7.86-2.83,5.72-3.08,11.3-5.94,17.47-2.03,2.24,1.36,4.29,3.24,6.11,5.1,1.11.97,2.07,2.65,3.49,3.17,7.56,0,15.15,0,22.71,0,16.88,0,33.77,0,50.65,0"/><path class="b" d="M8.23,153.75c2.87,1.32,5.65,3.12,8.73,3.94,7.19,1.87,14.59,2.93,21.83,4.56,4.94,1.1,9.94,2.18,14.85,3.42,3.76.08,7.59,0,11.35.03,2.88,0,5.85,0,8.73,0,2.65-.48,5.34-1.42,7.86-2.37,2.38-1.07,4.68-2.54,6.99-3.75,5.12-2.87,10.55-3.56,15.72-.39,1.83,1.06,3.63,2.46,5.24,3.82,1.1.82,2.16,2.24,3.49,2.68,7.56,0,15.15,0,22.71,0,16.01,0,32.03,0,48.03,0"/><path class="b" d="M8.23,151.51c2.63,1.17,5.2,2.7,7.86,3.81,5.79,2.41,12.22,1.81,18.34,1.91,4.09.04,8.26.41,12.23,1.45,2.34.6,4.71,1.48,6.99,2.27,4.93.04,9.91,0,14.85.02,3.47,0,7.01,0,10.48,0,4.36-1.16,8.15-3.87,12.23-5.72,5.62-2.81,11.81-3.31,17.47-.31,3.42,1.6,6.3,4.27,9.61,6.03,6.68,0,13.4,0,20.09,0,2,0,4.12,0,6.11,0,3.11-.77,6.42-.98,9.61-.74,2.01.12,4.11.53,6.11.74,3.18,0,6.43,0,9.61,0,2.59,0,5.27.01,7.86,0,2.02-.61,4.14-1.35,6.11-2.11"/><path class="b" d="M8.23,147.73c3.01,1.04,5.88,2.6,8.73,3.99,5.2,2.45,11.1,1.31,16.59.8,4.06-.4,8.27-.41,12.23.67,2.67.72,5.27,1.94,7.86,2.91,4.33.29,8.76.03,13.1.11,2.88,0,5.85,0,8.73,0,5.69-1.59,11.15-3.96,16.59-6.21,6.57-2.72,14.17-4.42,20.96-1.46,12.41,5.23,17.07,6.82,30.57,3.58,3.47-.59,7.07,0,10.48.73,6.25,1.4,12.96,3.19,19.21.88,3.48-1.4,6.94-3.1,10.48-4.36"/><path class="b" d="M8.23,142.66c3.08.64,6.04,2.01,8.73,3.61,5.34,3.03,11.66,1.71,17.47,1.34,3.49-.24,7.09-.1,10.48.83,2.98.71,5.73,2.48,8.73,3.04,1.4,0,2.96,0,4.37,0,2.3,0,4.69,0,6.99,0,1.76.04,3.64.1,5.24-.74,2.91-1.15,5.78-2.65,8.73-3.71,3.42-1.14,7-1.96,10.48-2.89,5.52-1.38,10.98-3.26,16.59-4.22,8.41-1.49,16.4,2.62,24.45,4.34,3.12.72,6.4,1.18,9.61,1.09,2.59-.13,5.28-.59,7.86-.02,8.62,1.79,15.78,5.15,24.45.84,3.75-1.96,7.34-4.4,11.35-5.81"/><path class="b" d="M8.23,137.56c2.09.26,4.23.93,6.11,1.86,1.45.69,2.9,1.76,4.37,2.42,5.74,2.61,12.23,1.58,18.34,2.09,2.63.19,5.33.63,7.86,1.37,1.43.38,2.94,1.07,4.37,1.44.79,0,1.84,0,2.62,0,2.88,0,5.85,0,8.73,0,1.1,0,2.4,0,3.49,0,.81-.3,1.86-.8,2.62-1.2,4.43-2.26,8.38-5.6,13.1-7.28,4.23-1.35,8.75-1.61,13.1-2.34,4.41-.68,8.77-1.87,13.1-2.94,11.3-3.37,19.35,2.49,29.69,5.6,1.66.47,3.51.84,5.24.94,1.4.08,2.97-.12,4.37.05,8.3,1.22,14.91,5.47,23.58,2.01,5.32-2.08,9.56-6.26,14.85-8.44"/><path class="b" d="M8.23,132.94c3.89-.06,7.21,1.72,10.48,3.58,3.02,1.46,6.34,2.32,9.61,3.02,2.59.55,5.28,1.07,7.86,1.65,1.7.37,3.48.96,5.24.8,4.64,0,9.33,0,13.97,0,2.58-.11,5.31.25,7.86-.19,4.6-2.74,8.55-6.53,13.1-9.33,3.87-2.48,8.63-2.8,13.1-3.07,4.08-.22,8.21-.59,12.23-1.35,4.61-.76,9.25-2.34,13.97-1.9,9.12.89,17.01,6.83,26.2,7.39,5.12-.23,9.94,1.85,14.85,2.99,12.32,2.99,17.31-2.91,27.07-8.46"/><path class="b" d="M8.23,128.48c4.95-1.09,7.92.57,12.23,2.53,4.66,1.99,9.36,4.04,13.97,6.15,7.84.25,15.73.01,23.58.09,1.11-.06,2.49.23,3.49-.38,2.07-1.51,4.15-3.24,6.11-4.87,10.38-8.9,12.9-8.85,26.2-8.53,3.77.04,7.61-.2,11.35-.65,3.17-.34,6.41-.95,9.61-.78,4.43.25,8.8,1.45,13.1,2.47,3.72.9,7.54,1.71,11.35,2.1,4.11.28,8.22.49,12.23,1.59,7.08,1.72,14.67,3.99,21.83,1.43,3.68-1.35,7.07-3.52,10.48-5.41"/><path class="b" d="M8.23,125.15c2.2-.81,4.64-1.4,6.99-1.12,4.32.82,8.39,2.84,12.23,4.92,1.42.79,2.97,1.71,4.37,2.54.46.26,1.28.78,1.75,1.02.46,0,1.29,0,1.75,0,5.52,0,11.08,0,16.59,0,2,0,4.11,0,6.11,0,1.68-.44,2.98-2.11,4.37-3.09,6.47-5.36,12.88-11.17,21.83-10.81,5.23-.05,10.49.38,15.72.21,4.93-.06,9.92-.71,14.85-.28,4.94.49,9.88,1.41,14.85,1.62,4.64.27,9.34-.03,13.97.39,4.97.37,9.98.98,14.85,2.11,10.55,2.46,15.09,4.13,25.33-1.25"/><path class="b" d="M8.23,123.07c2.21-.89,4.59-1.77,6.99-1.92,4.29-.05,8.46,1.64,12.23,3.56,1.73.9,3.55,1.95,5.24,2.93.77.15,1.84.12,2.62.11,6.68,0,13.4,0,20.09,0,7.15-5.36,14.06-12.41,23.58-12.68,5.81-.13,11.67-.05,17.47-.47,5.8-.33,11.69-1.05,17.47-.11,4.04.65,8.12,1.47,12.23,1.51,3.78.09,7.6-.47,11.35-.8,2.6-.31,5.27.03,7.86.25,2,.09,4.12.04,6.11.1,5.09.03,10.11,1.3,14.85,3.1,6.35,2.49,10.91,3.26,17.47.68"/><path class="b" d="M8.23,121.51c9.45-3.46,14.52-2.29,23.58,1.46,4.34.15,8.75.01,13.1.06,1.7,0,3.54,0,5.24,0,.85.02,1.93.11,2.62-.49,9.79-7.71,14.68-12.52,27.95-10.66,5.87.42,11.73-.77,17.47-1.88,15.83-3.53,17.79,2.49,31.44,2.31,3.48-.08,7-.74,10.48-.74,2.01-.02,4.09.59,6.11.49,4.35-.18,8.78-1.03,13.1-.1,8.97,1.77,14.57,8.65,24.45,5.71"/><path class="b" d="M8.23,118.28c1.1,0,2.39,0,3.49,0,1.11-.13,2.39-.44,3.49-.61,2.28-.36,4.69-.47,6.99-.39,3.28-.01,6.42,1.04,9.61.99,3.76,0,7.59,0,11.35,0,1.99-.09,4.15.21,6.11-.18,5.56-3.38,10.28-8.38,16.59-10.42,7.04-2.48,13.11,1.05,20.09.19,8-.78,15.44-5.14,23.58-4.73,6.16.57,11.48,4.33,17.47,5.64,3.97,1.04,8.15,1.09,12.23,1.35,2.02.08,4.09.74,6.11.82,2.01.04,4.13-.32,6.11-.6,4.06-.65,8.33-.59,12.23.82,7.03,2.5,12.08,6.99,20.09,4.76"/><path class="b" d="M8.23,113.54c2.59,0,5.27.02,7.86-.02,3.16-.5,6.41-.91,9.61-.92,4.97-.12,9.88,1.18,14.85.93,5.52.03,6.43.42,11.35-2.52,7.09-4.37,13.95-9.19,22.71-8.64,4.06.2,8.18.96,12.23.17,9.47-1.31,19.35-7.18,28.82-3.02,4.2,1.89,8.08,4.53,12.23,6.51,3.86,1.92,8.06,3.21,12.23,4.26,1.4.34,2.94.88,4.37,1.15,3.77.55,7.59-.47,11.35-.71,5.39-.54,10.68,1,15.72,2.74,4.05.15,8.17.02,12.23.06"/><path class="b" d="M8.23,108.8c7.4.25,14.4-3.39,21.83-2.91,5.87.06,11.58,2.76,17.47,2,7.32-1.58,13.85-5.6,20.96-7.86,2.81-.93,5.79-1.65,8.73-2,2.59-.26,5.29-.31,7.86-.73,6.69-.98,13.32-2.64,20.09-3.06,3.48-.15,7.19-.46,10.48.92,7.16,3.09,13.1,8.48,20.09,11.92,1.07.56,2.39,1.19,3.49,1.69,1.4.05,2.97.02,4.37.03,3.47,0,7.01,0,10.48,0,9.89,0,19.8,0,29.69,0"/><path class="b" d="M8.23,103.17c4.19-.24,8.29-1.46,12.23-2.87,5.89-2.22,11.53-2.55,17.47-.3,2.86.97,5.73,2.29,8.73,2.77,5.28.4,10.72-.29,15.72-2.04,5.12-1.75,9.8-4.65,14.85-6.58,7.86-2.5,16.22-3.49,24.45-3.32,3.76.13,7.59.05,11.35,0,6.56.64,12.07,4.87,17.47,8.3,2.57,1.65,5.14,3.52,7.86,4.92,4.64,0,9.33,0,13.97,0,10.47,0,20.97,0,31.44,0"/><path class="b" d="M8.23,98.11c3.26-.58,6.55-1.5,9.61-2.79,3.12-1.35,6.24-3.05,9.61-3.7,6.74-1.53,12.56,2.87,18.34,5.58,2.2.93,4.68,1.33,6.99,1.93,1.67.38,3.54.11,5.24.18,1.4,0,2.96,0,4.37,0,4.89-1.18,8.98-4.39,13.1-7.12,4.85-3.31,10.75-5.04,16.59-5.32,5.25-.27,10.48.89,15.72.98,2.02.07,4.11-.4,6.11-.49,2.63-.09,5.35.35,7.86,1.11,7.28,2.26,13.55,6.83,20.09,10.59,1.64.49,3.55.14,5.24.24,3.18,0,6.43,0,9.61,0,9.02,0,18.06,0,27.07,0"/><path class="b" d="M8.23,94.47c3.92-.99,7.86-2.32,11.35-4.38,5.99-3.66,11.48-6.5,18.34-3.01,2.73,1.31,5.26,3.16,7.86,4.69,1.63.97,3.55,1.66,5.24,2.5,1.32.55,2.97.2,4.37.29,4.35,0,8.75,0,13.1,0,.94.18,1.91-.54,2.62-1.06,1.12-.8,2.41-1.82,3.49-2.67,2.87-2.38,6.09-4.47,9.61-5.76,7.76-3.16,14.78-1.35,22.71-.95,2.64.13,5.28-.61,7.86-1.03,3.15-.5,6.45-.61,9.61-.15,6.66.94,12.63,4.35,18.34,7.71,2.12,1.08,3.97,2.93,6.11,3.92,3.47,0,7.01,0,10.48,0,8.14,0,16.31,0,24.45,0"/><path class="b" d="M8.23,89.83c2.59,0,5.27,0,7.86,0,1.59-.28,3.02-1.55,4.37-2.38,10.97-8.11,15.04-7.56,26.2-.39,1.72.87,3.5,1.96,5.24,2.78,2.3,0,4.69,0,6.99,0,4.64,0,9.33,0,13.97,0,1.33.21,2.46-1.08,3.49-1.73,1.35-.98,2.9-2.02,4.37-2.81,5.09-2.89,10.74-4.94,16.59-5.46,4.34-.47,8.79-.22,13.1-.96,7.12-1.64,14.58-3.6,21.83-1.51,6.07,1.71,11.85,4.78,16.59,8.95,1.41,1.1,2.77,2.68,4.37,3.52,3.18,0,6.43,0,9.61,0,6.97,0,13.98,0,20.96,0"/><path class="b" d="M8.23,85.09c3.76,0,7.59,0,11.35,0,.91.11,1.95-.23,2.62-.84,1.08-.75,2.37-1.63,3.49-2.32,4.95-3.2,10.26-4.02,15.72-1.61,2.64,1.1,5.24,2.52,7.86,3.68.78.37,1.73,1.05,2.62,1.09,8.14,0,16.31,0,24.45,0,1.7,0,3.54.01,5.24-.01,1.4-.72,2.97-1.53,4.37-2.25,3.95-2.03,8.03-3.96,12.23-5.42,6.82-2.5,14.17-3.16,20.96-5.73,4.19-1.4,8.65-2.54,13.1-2.11,5.07.51,10,2.7,13.97,5.87,2.44,1.99,4.75,4.33,6.99,6.54,1.06.99,2.22,2.39,3.49,3.12h27.07"/><path class="b" d="M8.23,80.35c4.93,0,9.91,0,14.85,0,2.23-1.11,4.56-2.29,6.99-2.92,3.11-.86,6.47-.85,9.61-.13,2.35.52,4.71,1.38,6.99,2.14.78.26,1.84.58,2.62.84.78.09,1.83.07,2.62.07,9.6,0,19.22,0,28.82,0,2.88,0,5.85,0,8.73,0,.52,0,1.35-.36,1.75-.68,1.1-.67,2.4-1.49,3.49-2.17,2.55-1.58,5.2-3.21,7.86-4.58,1.93-.99,4.04-1.93,6.11-2.57,1.67-.54,3.57-.74,5.24-1.3,3.29-1.1,6.41-2.8,9.61-4.12,6.45-2.87,13.02-3.07,19.21.61,5.07,2.98,8.96,7.63,13.1,11.72,1.06.99,2.17,2.44,3.49,3.09,2.59,0,5.27,0,7.86,0,5.52,0,11.08,0,16.59,0"/><path class="b" d="M8.23,75.61c4.35,0,8.75,0,13.1,0,1.43-.2,2.94-.8,4.37-1.02,2.56-.49,5.27-.61,7.86-.4,2.93.16,5.84,1.05,8.73,1.42,4.64,0,9.33,0,13.97,0,10.76,0,21.55,0,32.31,0,1.09,0,2.4,0,3.49,0,.8,0,1.88.08,2.62-.28,3.43-2.52,6.8-5.27,10.48-7.43,1.6-.93,3.43-1.79,5.24-2.22,1.43-.25,3.02-.56,4.37-1.12,3.89-1.55,7.47-3.94,11.35-5.5,6.37-2.79,12.72-1.76,18.34,2.18,4.08,2.79,7.69,6.31,11.35,9.61,1.08.98,2.39,2.15,3.49,3.11.71.58,1.63,1.64,2.62,1.66,7.27,0,14.57,0,21.83,0"/><path class="b" d="M8.23,70.26c2.29.26,4.74.36,6.99-.22,1.97-.65,4.01-1.51,6.11-1.62,3.23-.28,6.52.39,9.61,1.28,1.1.32,2.4.73,3.49,1.09.78.1,1.84.08,2.62.08,19.5,0,39.01,0,58.51,0,4.06-2.85,7.72-6.46,12.23-8.63,1.87-1,4.12-1.05,6.11-1.66,2.72-.89,5.31-2.36,7.86-3.62,6.29-3.34,12.62-4.67,19.21-1.25,8.24,4.41,15.49,10.49,23.58,15.16,6.39,0,12.82,0,19.21,0"/><path class="b" d="M8.23,62.06c3.24.28,6.55.06,9.61-1.08,4.25-.96,8.49.93,12.23,2.78,1.41.71,2.96,1.53,4.37,2.25,3.45.3,7.01.04,10.48.12,16.3,0,32.61,0,48.91,0,1.32.21,2.48-.97,3.49-1.64,1.1-.8,2.4-1.76,3.49-2.57,2.7-1.95,5.52-4.06,8.73-5.09,1.37-.42,3-.46,4.37-.89,9.11-3.09,15.22-8.22,25.33-3.86,4.42,2.01,8.62,4.63,13.1,6.53,5.74,2.61,11.72,4.73,17.47,7.32,1.65.42,3.55.12,5.24.2,2.88,0,5.85,0,8.73,0"/><path class="b" d="M8.23,55.17c3.23.06,6.51-.2,9.61-1.13,5.42-.83,10.33,2.46,14.85,4.98,1.39.78,2.89,1.75,4.37,2.36,2.59,0,5.27,0,7.86,0,12.8,0,25.62,0,38.43,0,2.59-.03,5.27.06,7.86-.04,4.85-2.08,9.24-5.19,13.97-7.49,1.62-.77,3.46-1.48,5.24-1.77,2.04-.17,4.17-.56,6.11-1.23,5.07-1.7,10.25-3.92,15.72-3.47,5.01.27,9.49,2.81,13.97,4.8,4.76,2.02,9.83,3.33,14.85,4.56,2.91.73,5.91,1.5,8.73,2.51,1.75.56,3.5,1.56,5.24,2.14,2.88,0,5.85,0,8.73,0"/><path class="b" d="M8.23,48.92c2.3-.22,4.71-.39,6.99-.78,2.27-.54,4.7-.77,6.99-.17,6.36,1.62,11.56,5.98,17.47,8.66,2.3,0,4.69,0,6.99,0,4.93,0,9.91,0,14.85,0,2.29-.22,4.68-.41,6.99-.36,5.53.14,11.19.94,16.59-.65,6.78-1.73,13.19-4.86,20.09-6.18,3.43-.81,7.04-.27,10.48-.9,4.38-.8,8.67-2.33,13.1-2.89,9.64-1.4,14.82,2.87,23.58,5.09,5.45,1.49,11.11,2.21,16.59,3.57,2.37.54,4.71,1.52,6.99,2.32,2.59,0,5.27,0,7.86,0"/><path class="b" d="M8.23,43.41c3.47-.4,6.99-1.04,10.48-1.17,8.15.37,14.66,6.05,21.83,9.26.43.29,1.24.46,1.75.39,1.1,0,2.39,0,3.49,0,2.88,0,5.85,0,8.73,0,4.93,0,9.91,0,14.85,0,2.88-.1,5.88.25,8.73-.23,4.25-.65,8.2-2.59,12.23-3.99,3.62-1.28,7.5-2.07,11.35-1.91,8.83.52,11.38,2.92,20.96.34,6.24-1.53,12.74-3.98,19.21-2.42,2.63.72,5.27,1.73,7.86,2.57,7.36,2.61,15.1,3.89,22.71,5.56,3.75.22,7.59.03,11.35.09"/><path class="b" d="M8.23,38.53c11.37-1.41,15.23-.84,25.33,4.7,1.7.92,3.52,1.94,5.24,2.83.78.38,1.76.95,2.62,1.1.46,0,1.29,0,1.75,0,6.68,0,13.4,0,20.09,0,4.35,0,8.75,0,13.1,0,2.29-.07,4.71.17,6.99-.13,2.84-1.51,5.67-3.28,8.73-4.31,3.66-1.31,7.73-1.07,11.35.25,2.62.89,5.2,2.19,7.86,2.97,6.25,1.89,12.67-.5,18.34-3.11,3.85-1.66,7.92-3.69,12.23-3.25,5.48,1.01,10.49,3.79,15.72,5.63,2.26.7,4.61,1.89,6.99,1.96,6.39,0,12.82,0,19.21,0"/><path class="b" d="M8.23,33.95c11.64-.3,15.9.44,26.2,6.11,1.4.76,2.95,1.62,4.37,2.35,2.3,0,4.69,0,6.99,0,11.35,0,22.71,0,34.06,0,2.59,0,5.27,0,7.86,0,2.22-1.19,4.46-2.66,6.99-3.12,2.95-.63,6.06.14,8.73,1.44,1.11.5,2.34,1.3,3.49,1.69,1.7,0,3.54,0,5.24,0,4.06,0,8.17,0,12.23,0,.79,0,1.87.07,2.62-.23,1.11-.65,2.41-1.47,3.49-2.17,2.5-1.59,5.06-3.34,7.86-4.37,2.53-1.04,5.38-.6,7.86.38,2.99,1.11,5.89,2.68,8.73,4.11,1.38.7,2.95,1.47,4.37,2.1,1.06.29,2.4.14,3.49.17,6.97,0,13.98,0,20.96,0"/><path class="b" d="M8.23,29.14c5.54.87,11.34.78,16.59,3,2.69,1.03,5.34,2.39,7.86,3.77,1.1.56,2.3,1.42,3.49,1.76.45,0,1.3,0,1.75,0,12.22,0,24.46,0,36.68,0,5.81,0,11.66,0,17.47,0,1.74.07,3.48-.88,5.24-.79,1.43-.01,3.02.31,4.37.78,2,.01,4.12,0,6.11,0,6.97,0,13.98,0,20.96,0,4.17-2.56,7.95-6.73,13.1-7.07,3.08.12,6.01,1.57,8.73,2.89,1.71.86,3.54,1.85,5.24,2.72.77.4,1.84.93,2.62,1.3.77.2,1.84.15,2.62.15,7.56,0,15.15,0,22.71,0"/><path class="b" d="M8.23,24.95c4.87,1.48,10.12,1.6,14.85,3.56,2.06.8,4.16,1.82,6.11,2.85,1.1.5,2.26,1.48,3.49,1.57,2,0,4.11,0,6.11,0,30.27,0,60.55,0,90.82,0,8.84-5.97,10.63-8.19,20.96-3.1,2,.94,4.09,1.98,6.11,2.88,1.06.37,2.39.18,3.49.22,7.85,0,15.73,0,23.58,0"/><path class="b" d="M8.23,21.29c3.95,1.53,8.23,2.09,12.23,3.42,1.74.61,3.57,1.4,5.24,2.19,1.11.42,2.26,1.44,3.49,1.3,15.42,0,30.86,0,46.29,0,16.3,0,32.61,0,48.91,0,2-.05,4.13.11,6.11-.09,3.16-2.02,6.61-4.22,10.48-4.29,4.66.23,8.7,3.19,13.1,4.39,9.89,0,19.8,0,29.69,0"/><path class="b" d="M8.23,17.35c3.66,1.51,7.59,2.37,11.35,3.56,1.43.49,2.98,1.11,4.37,1.71.79.32,1.74.89,2.62.83,11.93,0,23.88,0,35.81,0,15.13,0,30.28,0,45.41,0,5.22,0,10.5,0,15.72,0,2.29,0,4.69,0,6.99,0,.81-.25,1.84-.8,2.62-1.13,4.1-1.85,8.09-2.01,12.23-.14,1.66.65,3.41,1.52,5.24,1.27,11.05,0,22.13,0,33.19,0"/><path class="b" d="M8.23,12.66c5.72,2.25,11.78,3.63,17.47,6,10.18.14,20.39,0,30.57.05,14.26,0,28.53,0,42.79,0,9.89,0,19.8,0,29.69,0,1.46.16,2.99-.28,4.37-.74,1.37-.36,2.95-.58,4.37-.57,2.06,0,4.21.5,6.11,1.29,3.47.04,7.01,0,10.48.02,9.89,0,19.8,0,29.69,0"/></svg>