<?xml version="1.0" encoding="UTF-8"?><svg id="a" xmlns="http://www.w3.org/2000/svg" width="1920" height="2400" viewBox="0 0 192 240"><defs><style>.b{fill:none;stroke:#fff;stroke-miterlimit:10;stroke-width:.4px;}.c{stroke-width:0px;}</style></defs><rect class="c" x="0" width="192" height="240"/><path class="b" d="M8.46,227.3c6.27,1.84,7.33.31,13.07-.44,5.22-.54,10.61-.39,15.68-1.92,4.11-1.19,7.95-3.35,11.32-5.95,3.31-2.53,6.46-5.64,10.45-7.07,11.88-3.71,17.45,13.71,27.87,16.45,6.78,2.15,14.22,1.21,20.9,3.82,7.53.13,15.11,0,22.65.05,11.32,0,22.65,0,33.97,0,3.75,0,7.57,0,11.32,0,2.28-.08,4.7.17,6.97-.14l.87-.82"/><path class="b" d="M8.46,220.31c1.99.19,4.11.29,6.1.05,2.02-.27,4.06-1.03,6.1-1.21,4.61-.54,9.34-.22,13.94-.9,3.63-.5,7.23-1.66,10.45-3.4,5.39-2.75,10.04-8.3,16.55-7.94,7.32.92,11.7,7.9,16.55,12.71,3.32,3.78,8,6.33,13.07,6.59,3.75.31,7.57-.06,11.32.18,1.41.09,2.98.3,4.36.61,1.08.32,2.35.6,3.48.5,22.93,0,45.88,0,68.81,0,1.4-1.24,2.91-2.69,4.36-3.88"/><path class="b" d="M8.46,214.97c4.09-.12,8.15-.9,12.19-1.36,4.62-.4,9.33-.32,13.94-.9,3.86-.46,7.73-1.42,11.32-2.9,5.78-2.5,11.82-6.72,18.29-3.89,8.25,3.48,12.45,12.37,20.03,16.78,2.87.17,5.84.03,8.71.07,27.58,0,55.17.01,82.75,0,2.62-1.87,5.13-4.07,7.84-5.82"/><path class="b" d="M8.46,211.21c4.59-.83,9.3-.83,13.94-1.11,5.83-.4,11.67-1.2,17.42-2.26,3.48-.65,7.01-1.39,10.45-2.23,5.1-1.43,10.75-2.13,15.68.27,3.95,1.8,7.31,4.75,10.45,7.68,1.1,1.03,2.39,2.29,3.48,3.33.39.41,1.17,1.05,1.74,1.15,5.5,0,11.05,0,16.55,0,8.7,0,17.43,0,26.13,0,4.04-.04,8.15.09,12.19-.06,1.37-.49,2.93-.96,4.36-1.25,2.28-.55,4.75-.38,6.97.33.77.23,1.85.59,2.61.87,1.08.17,2.4.09,3.48.1,3.46,0,6.99,0,10.45,0,1.08,0,2.4,0,3.48,0,.78,0,1.88.08,2.61-.27,4.42-2.27,8.46-5.4,13.07-7.32"/><path class="b" d="M8.46,208.41c2.26-.42,4.66-.75,6.97-.63,2.28.25,4.67.5,6.97.25,6.18-.57,12.16-2.58,18.29-3.44,5.18-.79,10.48-.34,15.68-.89,6.9-.6,13.66,1.11,19.16,5.39,1.82,1.22,3.38,3.07,5.23,4.22,18.58,0,37.17,0,55.75,0,1.54.12,2.96-1.12,4.36-1.62,2.93-1.55,6.33-1.94,9.58-1.4,8.43,1.45,13.9,1.97,21.78-2.2,3.56-1.92,7.25-3.92,11.32-4.44"/><path class="b" d="M8.46,205.36c1.97-.35,4.09-.6,6.1-.43,2.3.28,4.62,1.13,6.97.9,5.69-.34,10.99-2.81,16.55-3.86,2.55-.5,5.25-.74,7.84-.48,2,.21,4.07.8,6.1.82,4.93.18,9.87-.96,14.81-.66,5.32.19,10.28,2.79,13.94,6.58,1.29.64,2.96.24,4.36.35,1.99,0,4.1,0,6.1,0,6.38,0,12.79,0,19.16,0,9.57,0,19.17,0,28.74,0,1.55-.45,2.93-1.74,4.36-2.49,1.57-.89,3.45-1.52,5.23-1.86,6.09-.99,12.46-.77,18.29-3.07,5.67-1.95,10.18-5.77,16.55-4.84"/><path class="b" d="M8.46,200.31c2.26-.41,4.7-.63,6.97-.17,2.24.66,4.6,1.32,6.97,1.1,6.22-.44,12.06-3.25,18.29-3.62,3.24-.33,6.46.47,9.58,1.21,2.28.36,4.69.23,6.97-.08,9.94-1.65,16.73-3.31,24.39,4.91,2.53.45,5.27.08,7.84.19,4.34,0,8.73,0,13.07,0,12.77,0,25.56,0,38.33,0,2.21-1.55,4.45-3.29,6.97-4.31,4.8-2.06,9.99-3.22,14.81-5.23,3.53-1.41,6.99-3.17,10.45-4.72,3.21-1.66,7.02-1.95,10.45-.82"/><path class="b" d="M8.46,192.98c2.26-.42,4.71-.59,6.97-.06,2.78.98,5.74,1.66,8.71,1.34,7.87-.79,15.63-3.57,23.52-1.08,3.61,1.3,7.58,1.15,11.32.61,9.45-1.52,15.43-1.92,22.65,5.34,20.9-.06,41.82.12,62.71-.06,5.76-4.14,12.23-7.24,18.29-10.9,4.17-2.32,8.34-5.1,13.07-6.1,2.67-.41,5.44.37,7.84,1.51"/><path class="b" d="M8.46,184.8c2.58-.4,5.35-.36,7.84.5,2.73,1.16,5.77,1.53,8.71,1.43,5.5-.2,11.06-1.15,16.55-.35,3.87.36,7.46,2.25,11.32,2.58,6.94.57,14.23-1.69,20.9,1.06,1.5.59,3.06,1.49,4.36,2.45,1.05.69,2.08,2.17,3.48,1.93,7.25,0,14.53,0,21.78,0,13.35,0,26.72,0,40.07,0,1.39,0,2.96,0,4.36,0,1.19-.59,2.4-1.66,3.48-2.42,3.15-2.33,6.37-4.72,9.58-6.97,4.25-2.87,8.72-6.09,13.94-6.75,3.13-.23,6.13,1.31,8.71,2.94"/><path class="b" d="M8.46,176.86c3.27-.28,6.57.45,9.58,1.71,2.22.72,4.65,1.02,6.97,1.13,5.22.2,10.54.04,15.68,1.16,4.15.71,8.01,2.76,12.19,3.3,9.96.94,17.42-1.44,26.13,5.51,19.45,0,38.91,0,58.36,0,4.05,0,8.15,0,12.19,0,.97-.09,1.87-1.05,2.61-1.6,1.08-.85,2.39-1.86,3.48-2.69,5.66-4.08,11.81-9.32,19.16-9.15,3.31.36,6.14,2.53,8.71,4.49"/><path class="b" d="M8.46,169.83c2.03.13,4.15.54,6.1,1.15,2.27.77,4.58,1.77,6.97,2.14,5.19.88,10.54.91,15.68,2.1,4.79.91,9.25,3.09,13.94,4.32,4.28.91,8.73.52,13.07.76,3.26.16,6.6.78,9.58,2.16.81.37,1.86.95,2.61,1.41.74.47,1.67,1.26,2.61,1.07,5.5,0,11.05,0,16.55,0,18,0,36.01,0,54,0,.95-.01,1.86-.9,2.61-1.38,1.07-.75,2.39-1.63,3.48-2.35,3.27-2.12,6.74-4.15,10.45-5.41,7.91-2.59,11.63-.43,17.42,4.97"/><path class="b" d="M8.46,163.95c4.79.78,9.13,3.31,13.94,4.03,4.04.67,8.19,1.01,12.19,1.91,4.48.96,8.81,2.62,13.07,4.27,3.27,1.39,6.94,1.58,10.45,1.41,7.67-.54,14.68-.68,20.9,4.6,17.7.12,35.43,0,53.13.04,3.46,0,6.99,0,10.45,0,1.69-.07,3.56.17,5.23-.16.42-.25,1.31-.75,1.74-1,7.78-4.32,17.13-8.89,26.13-5.84,3.03,1.42,5.47,3.99,7.84,6.29"/><path class="b" d="M8.46,159.61c4.7,1.14,9.1,3.5,13.94,4.06,4.04.56,8.19.76,12.19,1.54,4.47.82,8.82,2.35,13.07,3.94,3.57,1.51,7.6,1.22,11.32.52,6.03-1.22,12.8-2.53,18.29,1.08,2.18,1.3,3.97,3.36,6.1,4.72,15.67,0,31.36,0,47.04,0,2.88,0,5.83,0,8.71,0,1.09,0,2.39,0,3.48,0,1.14-.36,2.39-1.04,3.48-1.51,9.12-4.06,19.73-7.62,29.62-4.34,1.92.88,3.68,2.37,5.23,3.79.73.65,1.63,1.78,2.61,2.06"/><path class="b" d="M8.46,157.36c4.58,1.36,9.1,3.38,13.94,3.6,4.33.3,8.74.13,13.07.57,4.43.41,8.81,1.46,13.07,2.72,3.44.96,7.11.23,10.45-.77,6.94-2.21,14.43-5.2,20.9-.14,2.53,1.89,5.17,3.83,7.84,5.52,1.07.64,2.29,1.51,3.48,1.89.44,0,1.31,0,1.74,0,9.86,0,19.75,0,29.62,0,5.5,0,11.05,0,16.55,0,.82.06,1.85-.4,2.61-.64,1.38-.42,2.95-.79,4.36-1.13,5.7-1.32,11.56-2.29,17.42-2.4,4.08-.03,8.31.26,12.19,1.58,1.5.61,3.04,1.57,4.36,2.5,1.08.14,2.4.07,3.48.08"/><path class="b" d="M8.46,154.98c3.16.84,6.34,1.91,9.58,2.38,6.64.85,13.37-.24,20.03.05,3.79.08,7.59.65,11.32,1.27,7.05.69,13.35-3.35,20.03-4.85,5.06-1.23,8.76-.21,13.07,2.51,3.96,2.24,7.99,4.53,12.19,6.29,3.62,1.52,7.46,2.7,11.32,3.4,3.17,0,6.41,0,9.58,0,4.34-.02,8.73.03,13.07-.02,3.16-.36,6.4-.62,9.58-.71,9.87-.14,19.77.22,29.62.74,5.21,0,10.47,0,15.68,0"/><path class="b" d="M8.46,151.13c3.45.54,6.95,1.27,10.45,1.42,6.38.32,12.79-.22,19.16-.34,2.58-.05,5.26-.05,7.84.06,2.29.11,4.68.31,6.97.06,4.75-.43,9.35-1.96,13.94-3.21,9.77-2.81,12.81-.96,21.78,2.48,6.94,2.72,14.24,5.06,21.78,5,3.18,0,6.41-.47,9.58-.64,4.39-.28,8.86.26,13.07,1.55,3.79,1.13,7.49,2.72,11.32,3.72,3.46.13,6.99.02,10.45.05,9.57,0,19.17,0,28.74,0"/><path class="b" d="M8.46,145.68c8.71,0,17.43.53,26.13.79,6.09.16,12.21-.07,18.29-.21,4.65-.1,9.33-.53,13.94-1.19,5.17-.74,10.49-1.55,15.68-.51,8.39,1.4,16.65,4.42,25.26,3.92,9.64-.9,14.51-4.58,24.39.55,3,1.55,5.84,3.57,8.71,5.34,1.35.77,2.84,1.78,4.36,2.2.41,0,1.32,0,1.74,0,12.19,0,24.4,0,36.58,0"/><path class="b" d="M8.46,139.64c4.58-.71,9.32-1.05,13.94-.57,8.67,1.03,17.34,3.12,26.13,2.31,6.09-.31,12.19.85,18.29.74,6.67,0,13.38-1.11,20.03-.2,7.77.86,15.78,2.66,23.52.66,2.94-.77,5.79-2.11,8.71-2.94,6.4-2.06,12.21,0,17.42,3.87,2.89,2.08,5.73,4.42,8.71,6.38.75.51,1.84,1.2,2.61,1.69.73.33,1.83.26,2.61.26,11.03,0,22.07,0,33.1,0"/><path class="b" d="M8.46,135.01c8.44-2.44,13.49-2.25,21.78.41,4.82,1.45,9.74,3.05,14.81,3.24,2.59.09,5.25-.4,7.84-.11,5.24.44,10.43,1.69,15.68,2.02,4.34.35,8.73.04,13.07-.22,3.46-.13,6.99.03,10.45.1,5.54.13,11.2-.05,16.55-1.59,8.03-2.28,14.7-8.66,23.52-4.98,6.83,2.88,11.87,8.74,18.29,12.34,1.54,1.22,3.4.84,5.23.89,2.29,0,4.68,0,6.97,0,6.96,0,13.95,0,20.9,0"/><path class="b" d="M8.46,132.79c12.15-5.29,15.46-3.52,27,1.56,3.3,1.4,6.82,2.75,10.45,2.83,2.3,0,4.66-.61,6.97-.41,5.31.28,10.46,1.9,15.68,2.81,5.46,1.14,11.06.83,16.55.14,9.68-.87,19.1-3.68,27.87-7.83,6.09-3.04,12.5-5.54,19.16-2.56,6.72,2.88,11.78,8.56,18.29,11.82.75.4,1.83.91,2.61,1.24.76,0,1.85,0,2.61,0,2.29,0,4.68,0,6.97,0,6.96,0,13.95,0,20.9,0"/><path class="b" d="M8.46,132.65c3.14-1.52,6.24-3.38,9.58-4.44,6.46-1.81,12.64,1.91,18.29,4.57,2.99,1.41,6.22,2.81,9.58,2.82,2.03-.02,4.07-.81,6.1-.89,4.71-.35,9.4.78,13.94,1.94,1.4.33,2.93.82,4.36.98,1.4,0,2.96,0,4.36,0,3.46,0,6.99,0,10.45,0,2.37.02,4.73-.94,6.97-1.61,4.22-1.44,8.27-3.46,12.19-5.56,7.15-3.83,15.11-8.84,23.52-6.21,6.84,2,12.21,7.04,18.29,10.52,1.93,1.05,3.96,2.32,6.1,2.87,3.17,0,6.41,0,9.58,0,7.25,0,14.53,0,21.78,0"/><path class="b" d="M8.46,132.91c1.26.18,2.43-.87,3.48-1.43,1.39-.84,2.93-1.79,4.36-2.56,6.26-3.7,13.05-1.41,19.16,1.34,3.31,1.39,6.79,2.94,10.45,2.65,2.36.02,4.62-1.27,6.97-1.48,4.65-.75,9.41,0,13.94,1.12,2.52.68,5.26.24,7.84.36,4.05,0,8.15,0,12.19,0,5.37.26,15.26-6.47,20.03-9.32,6.61-4.32,12.3-6.42,20.03-3.34,4.34,1.69,8.25,4.38,12.19,6.82,3.05,1.91,6.35,3.57,9.58,5.16,1.53.98,3.5.63,5.23.68,2.58,0,5.26,0,7.84,0,7.25,0,14.53,0,21.78,0"/><path class="b" d="M8.46,128.18c2.58,0,5.26,0,7.84,0,1.19-.17,2.35-1.05,3.48-1.43,1.91-.74,4.05-1.17,6.1-1.2,4.48-.1,8.79,1.51,13.07,2.63,2,0,4.1,0,6.1,0,1.1,0,2.39,0,3.48,0,1.67-.61,3.49-1.24,5.23-1.64,3.69-.89,7.59-.94,11.32-.36,3.2.47,6.39,1.34,9.58,1.87,9.77.9,19.46-1.49,27.87-6.51,8.6-4.82,13.05-9.71,23.52-5.6,4.56,1.77,8.74,4.48,13.07,6.74,3.73,1.86,7.7,3.41,11.32,5.49,11.03.04,22.07,0,33.1.01"/><path class="b" d="M8.46,123.45c3.46,0,6.99,0,10.45,0,2-.49,4.02-1.4,6.1-1.62,2.87-.42,5.86-.21,8.71.26,4.56.7,9.38,2.2,13.94.72,1.98-.76,4.05-1.6,6.1-2.17,4.79-1.43,9.91-1.44,14.81-.56,2.87.46,5.8,1.13,8.71,1.31,2.88.08,5.83-.29,8.71-.24,9.16.13,16.51-2.1,24.39-6.68,6.76-4.32,14.5-3.73,21.78-1.12,4.07,1.43,8.15,3.04,12.19,4.53,2.77,1.23,5.37,3.01,7.84,4.75,1.11,1.13,2.93.74,4.36.8,2.29,0,4.68,0,6.97,0,6.67,0,13.37,0,20.03,0"/><path class="b" d="M8.46,118.72c3.75,0,7.57,0,11.32,0,3.11-.95,6.3-2,9.58-2.12,5.8-.48,11.66,1.46,17.42.32,7.53-2.51,12.85-3.9,20.9-2.61,3.17.45,6.38,1.18,9.58,1.37,2.59.08,5.27-.21,7.84.24,7.28,1.19,13.94,2.11,20.9-1.12,3.02-1.26,5.77-3.24,8.71-4.66,6.16-3.06,13.27-3.84,20.03-2.79,3.2.51,6.49,1.12,9.58,2.11,1.83.7,3.64,1.83,5.23,2.98,2.74,1.86,5.07,4.49,7.84,6.28h26.13"/><path class="b" d="M8.46,114c4.63,0,9.31,0,13.94,0,2.58-.65,5.17-1.68,7.84-2,5.47-.95,11.07.33,16.55-.36,10.43-2.67,15.61-2.54,26.13-.65,2.56.42,5.24.65,7.84.56,2.04.08,4.14.62,6.1,1.16,1.69.44,3.49,1.08,5.23,1.29,1.7,0,3.53,0,5.23,0,1.4-.02,2.96.04,4.36-.05,1.78-.49,3.61-1.28,5.23-2.16,3.84-2.14,7.32-5.02,11.32-6.88,8.02-4.09,17.37-4.58,26.13-3.18,6.73,1.97,11.39,7.79,16.55,12.2,7.53.19,15.11.01,22.65.07"/><path class="b" d="M8.46,109.27c6.08,0,12.21,0,18.29,0,2.55-.72,5.18-1.5,7.84-1.66,3.75-.34,7.57.23,11.32.19,4.34-.31,8.69-1.26,13.07-1.15,5.25-.05,10.48.85,15.68,1.5,3.17.46,6.49.14,9.58,1.12,6.96,0,13.95,0,20.9,0,4.25-2.55,7.82-6.21,12.19-8.58,5.78-3.41,12.52-4.73,19.16-4.88,2.87,0,5.84-.45,8.71-.19,8.23,1.58,13.56,8.93,20.03,13.62,6.08.1,12.21,0,18.29.04"/><path class="b" d="M8.46,104.54c14.52.02,29.04-.07,43.55,0,2.88.05,5.83-.12,8.71-.12,2.29-.02,4.68.15,6.97.12,11.03,0,22.07,0,33.1,0,1.69-.07,3.56.17,5.23-.16,1.43-1.18,2.97-2.58,4.36-3.83,3.71-3.44,8.13-6.31,13.07-7.57,5.67-1.56,11.65-.82,17.42-1.57,7.96-2.11,12.98.95,19.16,5.65,3.57,2.62,7,5.87,11.32,7.18,1.67.51,3.56.2,5.23-.16,2.31-.46,4.7-1.08,6.97-1.7"/><path class="b" d="M8.46,99.81c21.19,0,42.39,0,63.59,0,7.25,0,14.53,0,21.78,0,2.58,0,5.26,0,7.84,0,1.39-.06,2.99.17,4.36-.19,5.8-5.59,10.6-10.82,19.16-11.58,4.04-.44,8.15.1,12.19-.08,3.6.04,6.89-1.87,10.45-1.97,3.7-.15,7.31,1.29,10.45,3.15,4.95,2.67,9.86,7.88,15.68,8.09,3.17-.25,6.41-.63,9.58-.83"/><path class="b" d="M8.46,95.08c13.35,0,26.72,0,40.07,0,5.5,0,11.05,0,16.55,0,2.87-.37,5.82-.77,8.71-.8,2-.04,4.11.06,6.1.3,1.09.16,2.36.61,3.48.51,7.54,0,15.11,0,22.65,0,2.51-1.67,4.57-4.13,6.97-5.96,4.62-3.8,10.63-5.43,16.55-5.31,3.46-.03,7.04.2,10.45-.5,2.35-.47,4.57-1.73,6.97-2.02,3.93-.61,7.92.68,11.32,2.58,5.06,2.56,9.83,7.52,15.68,7.84,3.17-.2,6.42-.21,9.58.14"/><path class="b" d="M8.46,90.35c13.93,0,27.88,0,41.81,0,2.65.2,5.27-.46,7.84-1.01,3.15-.64,6.39-1.23,9.58-1.66,4.58-.51,9.35-1.14,13.94-.47,1.8.44,3.6,1.34,5.23,2.2.75.38,1.72,1.11,2.61.94,6.08-.07,12.22.14,18.29-.08,6.9-5.35,10.69-8.83,20.03-8.95,4.04-.08,8.18.54,12.19-.15,1.76-.27,3.51-1.1,5.23-1.52,3.44-.86,7.13-.47,10.45.66,5.37,1.73,10.11,5.27,15.68,6.42,1.69.36,3.53.03,5.23,0,2.33-.01,4.74.4,6.97,1.06"/><path class="b" d="M8.46,85.62c11.61,0,23.23,0,34.84,0,.83.11,1.86-.3,2.61-.6,1.69-.62,3.49-1.39,5.23-1.89,3.66-1.07,7.53-1.5,11.32-1.77,4.34-.3,8.74-.46,13.07-.85,2.88-.21,5.92-1,8.71.15,3.37,1.22,6.39,3.36,9.58,4.96,5.5-.02,11.05.03,16.55-.02,6.06-4.83,12.24-7.12,20.03-6.34,3.74.26,7.6.93,11.32.16,8.28-2.92,16.32.85,24.39,2.6,2.54.51,5.27.76,7.84.33,3.19-.74,6.61-.17,9.58,1.14"/><path class="b" d="M8.46,80.89c9.28,0,18.59,0,27.87,0,1.7-.03,3.54.08,5.23-.08,1.09-.63,2.39-1.37,3.48-1.98,7.18-4.58,10.9-4.62,19.16-3.78,5.51.63,11.17.69,16.55-.84,2.71-.42,5.47.59,7.84,1.83,1.75.92,3.56,2.07,5.23,3.13,1.08.58,2.21,1.72,3.48,1.73,1.99,0,4.1,0,6.1,0,2.88,0,5.83,0,8.71,0,1.93.17,3.5-1.51,5.23-2.15,2.71-1.28,5.72-2.11,8.71-2.3,5.24-.43,10.45,1.26,15.68.76,6.43-1.48,12.81.99,19.16,1.76,3.45.45,7.04.42,10.45-.27,4.75-1.22,7.33-2.09,12.19.07"/><path class="b" d="M8.46,76.16c7.54,0,15.11,0,22.65,0,1.99,0,4.1,0,6.1,0,1.1-.05,2.45.18,3.48-.29,2.64-1.66,5.33-3.44,7.84-5.29,6.02-4.45,13.51-.91,20.03.22,2.85.51,5.87.62,8.71,0,2-.43,4-1.49,6.1-1.39,5.35.21,9.64,3.98,13.94,6.75,6.38,0,12.79,0,19.16,0,3.83-1.82,7.88-3.52,12.19-3.6,4.94-.28,9.87,1.18,14.81.62,4.49-.15,8.74,1.78,13.07,2.69,1.95.49,4.1.23,6.1.29,2.3-.04,4.75.22,6.97-.54,5.2-1.56,8.25-3.73,13.94-1.73"/><path class="b" d="M8.46,71.43c8.99,0,18.01,0,27,0,1.4,0,2.96,0,4.36,0,1.44-.74,2.99-1.67,4.36-2.54,5.1-3.39,7.13-6.5,13.94-5.12,9.24,2.16,13.72,5.83,23.52,2.16,2.65-.53,5.44.14,7.84,1.29,2.46,1.1,4.64,2.91,6.97,4.22,4.63,0,9.31,0,13.94,0,2.58,0,5.26,0,7.84,0,.49.07,1.35-.23,1.74-.53,1.06-.56,2.37-1.18,3.48-1.62,3.02-1.21,6.33-1.83,9.58-1.83,2.29-.02,4.68.21,6.97.32,1.69.12,3.55-.13,5.23.18,3.34.63,6.43,2.3,9.58,3.49,5.79,0,11.63,0,17.42,0,1.48-.11,2.91-1.12,4.36-1.44,2.23-.64,4.69-.73,6.97-.3"/><path class="b" d="M8.46,66.7c9.28,0,18.59,0,27.87,0,1.7,0,3.53.01,5.23-.01,1.46-.54,3.02-1.29,4.36-2.09,1.46-.85,2.87-2.11,4.36-2.92,4.62-2.51,10.04-1.06,14.81.23,3.67.98,7.49,1.91,11.32,1.73,1.72-.03,3.52-.54,5.23-.72,1.41-.11,2.98.04,4.36.37,1.78.43,3.61,1.21,5.23,2.06,1.07.5,2.24,1.53,3.48,1.34,8.41,0,16.85,0,25.26,0,.89-.05,1.85-.77,2.61-1.17,1.06-.58,2.37-1.23,3.48-1.7,3.01-1.29,6.31-2.04,9.58-2.22,2.87-.1,5.85-.17,8.71.05,2.48.44,4.81,1.72,6.97,2.95,1.09.63,2.39,1.4,3.48,2.02,1.39.13,2.96.05,4.36.07,8.12-.08,16.28.18,24.39-.14"/><path class="b" d="M8.46,61.97c11.61,0,23.23,0,34.84,0,2.8.26,3.86-.61,6.1-2.03,2.88-1.71,6.24-2.65,9.58-2.78,5.6-.23,11.08,1.34,16.55,2.31,2.56.51,5.28.63,7.84,1.15,2.03.28,4.04,1.37,6.1,1.35,9.86,0,19.75,0,29.62,0,1.09,0,2.4,0,3.48,0,2.32-1.11,4.57-2.62,6.97-3.58,4.6-1.98,9.85-2.88,14.81-1.96,3.56,1.02,6.56,3.46,9.58,5.51,9.86.1,19.75,0,29.62.04"/><path class="b" d="M8.46,57.24c2.88,0,5.83,0,8.71,0,1.49-.32,2.87-1.44,4.36-1.82,4.87-1.64,10.03-.27,14.81,1.01,2.25.69,4.63.94,6.97.82,1.44.03,3.03.08,4.36-.58,6.4-3.32,13.56-6.44,20.9-4.77,4.61.89,8.83,3.17,13.07,5.09,1.34.48,2.96.18,4.36.26,1.99,0,4.1,0,6.1,0,6.38,0,12.79,0,19.16,0,4.63,0,9.31,0,13.94,0,1.23.19,2.47-.56,3.48-1.15,1.06-.57,2.37-1.21,3.48-1.69,7.76-3.3,12.52-2.06,19.16,2.78,10.73.17,21.49,0,32.23.06"/><path class="b" d="M8.46,52.51c2.58-.05,5.27.12,7.84-.09,7.87-6.6,14.25-5.74,23.52-3.33,3.13.72,6.56,1.04,9.58-.28,6.04-2.52,12.36-6.7,19.16-4.64,3.2.89,6.1,2.78,8.71,4.78,5.01,3.87,3.11,3.64,9.58,3.56,4.63,0,9.31,0,13.94,0,8.41,0,16.85,0,25.26,0,2.29-.03,4.68.06,6.97-.05,1.9-.78,4.03-1.42,6.1-1.51,1.42-.06,3.02.18,4.36.68.77.28,1.78.82,2.61.88,1.09,0,2.4,0,3.48,0,11.32,0,22.65,0,33.97,0"/><path class="b" d="M8.46,47.78c1.4,0,2.96,0,4.36,0,1.1-.04,2.43.16,3.48-.25,4.42-3.99,9.58-7.8,15.68-8.46,6.37-.9,12.98,2.32,19.16-.15,7.55-3.18,13.19-6.67,20.9-1.27,2.19,1.51,4.24,3.46,6.1,5.35,1.61,1.62,3.23,3.59,5.23,4.76h100.17"/><path class="b" d="M8.46,43.06h6.97c5.88-5.34,11.76-11.89,20.03-13.1,3.45-.55,6.99-.1,10.45.09,5.19.58,9.78-2.52,14.81-3.13,9.68-1.23,15.39,8.17,21.78,13.73,1.02.81,2.32,1.67,3.48,2.26,1.97.33,4.11.08,6.1.15,4.05,0,8.15,0,12.19,0,19.74,0,39.49,0,59.23,0,2.58-.05,5.27.11,7.84-.08,1.58-.85,3.48-1.32,5.23-1.68,2.25-.5,4.66-.86,6.97-.88"/><path class="b" d="M8.46,38.33c5.76.06,4.56.4,8.71-3.49,3.27-3.16,6.62-6.41,10.45-8.88,5.62-3.81,11.71-4.37,18.29-3.78,3.25.37,6.48-.34,9.58-1.24,6.1-1.81,11.42-1.11,16.55,2.74,4.56,3.19,8.12,7.8,13.07,10.45,3.47,1.92,7.43,2.86,11.32,3.43,2.87.47,5.8.94,8.71.78,20.32,0,40.65,0,60.97,0,.9.15,2.01-.33,2.61-1.01,1.03-.85,2.34-1.81,3.48-2.51,3.37-1.93,7.49-2.62,11.32-2.12"/><path class="b" d="M8.46,33.52c4.59-2.29,8.27-5.98,12.19-9.19,3.63-2.88,7.72-5.37,12.19-6.65,3.37-.98,6.96-1.23,10.45-1.17,2.88.01,5.87.36,8.71-.29,3.43-.72,6.91-1.83,10.45-1.77,7.76,0,13.61,5.79,20.03,9.32,6.43,3.74,13.72,5.51,20.9,7.17,2.65.66,5.36,1.48,7.84,2.64,2.29.06,4.68.01,6.97.02,14.22,0,28.46,0,42.68,0,1.69,0,3.53,0,5.23,0,.99-.33,1.86-1.45,2.61-2.12,1.03-.99,2.34-2.12,3.48-2.97,3.18-2.41,7.41-3.46,11.32-2.62"/><path class="b" d="M8.46,24.91c3.74-1.81,7.12-4.35,10.45-6.8,7.37-5.08,16.63-5.29,25.26-5.21,2.89,0,5.89.02,8.71-.69,5.79-1.49,11.6-2.53,17.42-.54,3.81,1.21,7.48,3,11.32,4.13,4.37,1.56,8.66,3.51,13.07,4.98,5.37,1.88,11.04,2.83,16.55,4.2,3.04.79,5.97,2.2,8.71,3.7,1.65.42,3.54.12,5.23.21,12.77,0,25.56,0,38.33,0,2.97.05,2.97.26,5.23-2.12,1.6-1.56,3.4-3.21,5.23-4.5,2.72-1.98,6.27-2.82,9.58-2.19"/><path class="b" d="M8.46,16.57c3.58-1.72,6.98-3.92,10.45-5.83,4.91-2.25,10.48-1.44,15.68-.97,4.9.5,9.9.66,14.81.16,5.48-.82,10.94-2.62,16.55-2.07,3.52.24,6.99,1.19,10.45,1.8,2.57.47,5.31.24,7.84.94,4.42,1.09,8.67,2.93,13.07,4.09,4.24,1.18,8.68,1.7,13.07,1.93,4.1.04,7.94,1.92,11.32,4.11,1.75,1.01,3.37,2.6,5.23,3.41,13.35,0,26.72,0,40.07,0,5.01-3.95,9.41-9.96,16.55-9.08"/></svg>