<?xml version="1.0" encoding="UTF-8"?><svg id="a" xmlns="http://www.w3.org/2000/svg" width="1920" height="2400" viewBox="0 0 192 240"><defs><style>.b{fill:none;stroke:#fff;stroke-miterlimit:10;stroke-width:.4px;}.c{stroke-width:0px;}</style></defs><rect class="c" x="0" width="192" height="240"/><path class="b" d="M10.68,222.62c3.24,2.51,6.62,4.96,10.19,6.99.77.51,1.8,1.23,2.55,1.78.63.63,1.67.95,2.55.83,11.6,0,23.21,0,34.81,0,4.13-2.74,8.8-4.05,13.58-2.19,1.74.53,3.36,1.69,5.09,2.19,4.51,0,9.07,0,13.58,0,18.39,0,36.79,0,55.18,0,2.8,0,5.69,0,8.49,0,1.83.16,3.45-1.2,5.09-1.79,2.89-1.26,6.19-2.34,9.34-1.47,3.22,1.36,6.66,2.39,10.19,2.39"/><path class="b" d="M10.68,215.97c3.4,1.64,6.84,3.39,10.19,5.14,2.69,1.63,5.2,3.71,7.64,5.68,1.04,1.21,2.83.76,4.24.83,2.23,0,4.56,0,6.79,0,6.21,0,12.46,0,18.68,0,8.24-6.78,13.63-7.69,22.92-2.17,1.34.71,2.86,1.46,4.25,2.09,2.22.19,4.56.04,6.79.08,16.98,0,33.96,0,50.94,0,3.09,0,6.25,0,9.34,0,5.67-2.23,10.54-7.42,16.98-7.32,1.78.05,3.46,1.05,5.09,1.66,2.16.8,4.52,1.33,6.79,1.62"/><path class="b" d="M10.68,210.54c3.45.71,6.94,1.73,10.19,3.11,4.02,1.98,7.48,5,11.04,7.69.75.54,1.67,1.36,2.55,1.67,1.94,0,4,0,5.94,0,4.23,0,8.51,0,12.73,0,.76,0,1.79,0,2.55,0,1.57-.59,2.86-2.1,4.24-3.03,3.22-2.45,6.9-4.8,11.04-5.08,3.95-.31,7.66,1.49,11.04,3.33,2.82,1.46,5.73,2.96,8.49,4.53,1.59.5,3.45.15,5.09.25,3.09,0,6.25,0,9.34,0,8.76,0,17.55,0,26.32,0,3.94,0,7.94,0,11.89,0,1.65-.03,3.45.07,5.09-.07,1.1-.5,2.37-1.19,3.4-1.83,5.59-3.11,12.81-11.01,19.53-9.15,3.31,1.46,6.63,3.12,10.19,3.92"/><path class="b" d="M10.68,206.13c14.3.13,17.44,5.99,28.87,11.86,1.23.72,2.88.32,4.24.41,2.52,0,5.12,0,7.64,0,.89.12,1.81-.58,2.55-1,1.09-.66,2.34-1.5,3.4-2.22,3.2-2.19,6.48-4.52,10.19-5.77,4.94-1.81,9.98-.44,14.43,1.98,4.09,1.92,8.17,4.03,11.89,6.61.96.64,2.31.34,3.4.4,1.65,0,3.44,0,5.09,0,8.2,0,16.42,0,24.62,0,3.37,0,6.81,0,10.19,0,1.75.12,3.39-.21,5.09-.37,9.98-1.03,17.97-15.1,27.17-14.88,1.84.11,3.52,1.26,5.09,2.12,2.17,1.2,4.49,2.38,6.79,3.32"/><path class="b" d="M10.68,202.26c8.58-.36,13.35-.06,21.22,3.61,4.65,2.01,9.3,4.62,14.43,5.08,6.54.4,11.93-4.21,17.83-6.31,3.47-1.37,7.33-2.06,11.04-1.39,2.35.38,4.62,1.39,6.79,2.33,2.82,1.14,5.77,2.21,8.49,3.59,1.71.86,3.5,1.9,5.09,2.97,1.02.6,2.11,1.85,3.4,1.64,6.21,0,12.46,0,18.68,0,5.93-.05,11.91.11,17.83-.06,1.52-1,3.31-1.92,5.09-2.33,2.36-.25,4.76-.91,6.79-2.18,6.7-3.51,15.35-15.71,22.92-14,1.52.37,2.95,1.41,4.24,2.24,2.22,1.46,4.51,3.04,6.79,4.4"/><path class="b" d="M10.68,198.2c4.52-.07,9.06-.8,13.58-.7,6.1.13,11.95,2.1,17.83,3.5,4.19,1.1,8.59.96,12.73-.27,7.56-2.16,15.17-4.4,22.92-1.68,1.39.44,2.87,1.13,4.24,1.6,2.2.74,4.57,1.26,6.79,1.9,4.27,1.17,8.33,3.2,11.89,5.84.84.93,2.26.81,3.4.79,1.36,0,2.88,0,4.24,0,4.51,0,9.07,0,13.58,0,3.37,0,6.81,0,10.19,0,2-1.12,3.82-2.79,5.94-3.72,1.81-.99,4.02-1.01,5.94-1.61,5.35-1.98,9.34-6.42,13.58-10.05,11.37-10.03,13.4-6.38,23.77,1.9"/><path class="b" d="M10.68,193.07c5.43-.19,10.72-1.77,16.13-2.05,6-.4,11.93.96,17.83,1.85,6.22,1,12.45-.71,18.68-.8,6.15-.24,12.22,1.34,17.83,3.77,3.27,1.15,6.83,1.38,10.19,2.16,2.95.66,5.88,1.8,8.49,3.33,1.74.92,3.34,2.37,5.09,3.25,5.36,0,10.77,0,16.13,0,13.05-.14,5.82,1.24,16.13-4.79,1.01-.52,2.29-1.03,3.4-1.29,1.07-.2,2.37-.33,3.4-.7,5.37-2.02,9.34-6.5,13.58-10.17,11.12-10.04,13.96-6.89,23.77,2.28"/><path class="b" d="M10.68,188.35c4.34-.13,8.55-1.34,12.73-2.39,3.6-.84,7.34-1.37,11.04-1.46,4.23-.14,8.51.3,12.73.45,3.66.05,7.39-.1,11.04.34,6.78.69,13.22,3.13,19.53,5.56,5.93,2.63,12.66,2.15,18.68,4.47,2.98,1.1,5.84,2.71,8.49,4.46,1.61.38,3.44.11,5.09.19,2.8,0,5.69,0,8.49,0,2.52,0,5.12,0,7.64,0,1.36-.08,2.95.23,4.24-.27,2.18-1.45,4.46-2.97,6.79-4.15,2.08-1.19,4.58-1.52,6.79-2.36,4.61-2.09,8.21-5.92,11.89-9.29,4.16-3.64,9.2-9.29,15.28-7.84,4.03,1.45,7.1,4.82,10.19,7.65"/><path class="b" d="M10.68,184.77c2.85-.02,5.79-.35,8.49-1.29,3.33-1.11,6.76-2.14,10.19-2.92,5.28-1.22,10.72-1.79,16.13-2.04,6.06-.5,10.44-.16,16.13,2.17,5.46,2.13,10.56,5.23,16.13,7.07,4.69,1.45,9.72,1.59,14.43,2.95,2.6.7,5.21,1.7,7.64,2.84,1.64.66,3.23,2.03,5.09,1.8,3.09,0,6.25,0,9.34,0,3.94,0,7.94,0,11.89,0,1.36,0,2.89,0,4.24,0,1.11.03,2.45.06,3.4-.62,1.92-.99,3.96-2.03,5.94-2.89,2.02-.8,4.17-1.64,5.94-2.93,5.51-3.86,9.9-9.15,15.28-13.16,8.37-6.35,13.26-3.6,20.38,2.75"/><path class="b" d="M10.68,182.13c3.49.34,6.98-.33,10.19-1.69,3.04-1.06,6.21-1.98,9.34-2.76,6.96-1.63,14.07-3.18,21.22-3.52,5.21.22,9.93,2.87,14.43,5.27,3.79,2.03,7.65,4.23,11.89,5.15,3.37.53,6.89.47,10.19,1.47,3.2.84,6.34,2.13,9.34,3.52.75.35,1.78.84,2.55,1.17,1.36,0,2.88,0,4.24,0,11.6,0,23.21.02,34.81-.01,7.84-3.56,13.39-10.49,20.38-15.32,7.88-5.52,14.26-5.87,22.07.06"/><path class="b" d="M10.68,179.9c2.22.32,4.61.37,6.79-.23,2.78-.98,5.6-2.08,8.49-2.71,4.76-1.13,9.63-1.94,14.43-2.88,3.65-.62,7.33-1.59,11.04-1.81,6.45.08,12.05,3.86,17.83,6.25,2.68,1.14,5.56,2.12,8.49,2.3,1.37.11,2.88-.16,4.24-.17,3.57.02,7.02,1.38,10.19,2.91,1.07.53,2.34,1.19,3.4,1.75.71.4,1.7.96,2.55.81,4.8,0,9.64,0,14.43,0,10.46-.05,20.95.1,31.41-.06,5.18-3.93,10.15-8.38,16.13-11.08,4.22-1.93,8.96-2.76,13.58-2.6,2.65.2,5.27,1.18,7.64,2.35"/><path class="b" d="M10.68,177.23c2.5.49,5.22.58,7.64-.31,2.41-1.06,5.04-1.79,7.64-2.19,4.77-.75,9.65-.96,14.43-1.65,3.97-.43,7.9-1.6,11.89-1.82,6.77.02,12.95,3.41,19.53,4.55,3.07.6,6.3.52,9.34-.22,5.28-.67,10.05,2.48,14.43,4.99.41.25,1.26.73,1.7.94,1.36,0,2.88,0,4.24,0,2.8,0,5.69,0,8.49,0,8.48,0,16.99,0,25.47,0,2.52,0,5.12,0,7.64,0,1.67-.13,3.71.45,5.09-.72,2.38-1.54,4.98-2.96,7.64-3.94,4.31-1.66,9.01-1.95,13.58-2.16,1.65-.06,3.44-.37,5.09-.37,2.27.01,4.63.49,6.79,1.17"/><path class="b" d="M10.68,173.12c3.15.63,6.45.29,9.34-1.12,2.69-.98,5.64-1.28,8.49-1.29,5.08,0,10.2.6,15.28.26,2.54-.11,5.12-.6,7.64-.91,2.8-.27,5.7-.1,8.49.15,5.06.47,10.2,1.16,15.28.66,6.43-.76,7.73-2.52,14.43.44,3.48,1.55,6.76,3.67,10.19,5.34.72.34,1.77.27,2.55.27,1.36,0,2.88,0,4.25,0,3.94,0,7.94,0,11.89,0,10.18,0,20.38,0,30.56,0,1.09.06,2.37-.04,3.4-.44,1.33-.38,2.87-.69,4.24-.87,3.36-.44,6.82-.22,10.19-.07,2.52.2,5.13-.13,7.64-.26,2.27,0,4.62.42,6.79,1.05"/><path class="b" d="M10.68,167.86c1.95.1,4.03.02,5.94-.43,1.7-.39,3.37-1.28,5.09-1.57,7.95-1.42,15.26,3.2,22.92,4.4,3.93.69,7.97-.03,11.89-.5,5.75-.79,11.4-2.29,16.98-3.84,2.78-.7,5.62-1.67,8.49-1.92,1.69-.05,3.5.33,5.09.88,7.28,2.55,13.95,8.31,22.07,7.35,1.38-.19,2.86-.69,4.24-.84,2.24-.26,4.61-.02,6.79.51,2.65.78,5.72.27,8.49.41,4.51,0,9.07,0,13.58,0,13.01,0,26.04,0,39.05,0"/><path class="b" d="M10.68,162.36c2.26-.15,4.61-.48,6.79-1.11,2.16-.74,4.48-1.43,6.79-1.3,6.99.24,12.55,5.04,18.68,7.74,3.09,0,6.25,0,9.34,0,2.8-.02,5.69.04,8.49-.03,6.75-2.44,14.84-8.67,22.07-7.93,3.92.61,7.46,2.7,11.04,4.29,3.96,1.83,8.32,3.27,12.73,2.82,2.31-.17,4.57-1.06,6.79-1.66,2.74-.71,5.7-.92,8.49-.37,2.67.48,5.21,1.72,7.64,2.87,5.36,0,10.77,0,16.13,0,11.88,0,23.78,0,35.66,0"/><path class="b" d="M10.68,157.23c3.44-.32,6.84-1.22,10.19-2.03,8.19-1.73,14.84,3.66,21.22,7.88,7.63,0,15.29,0,22.92,0,5.11-2.51,10.18-6.39,16.13-6.12,5.17.64,9.52,4,14.43,5.48,1.6.62,3.4.71,5.09.64,1.65-.02,3.44.06,5.09-.05,3.54-.75,6.83-2.46,10.19-3.74,5.49-2.23,10.6-1.15,15.28,2.31.42.3,1.29.94,1.7,1.26.73.28,1.78.22,2.55.22,1.94,0,4,0,5.94,0,13.3,0,26.61,0,39.9,0"/><path class="b" d="M10.68,152.74c4-.1,7.96-.98,11.89-1.67,8.62-1.52,14.48,2.92,21.22,7.4,6.21,0,12.46,0,18.68,0,1.94,0,4,0,5.94,0,2.25-.68,4.49-1.76,6.79-2.3,2.47-.64,5.19-.84,7.64-.01,2.03.52,3.96,1.96,5.94,2.31,5.36,0,10.77,0,16.13,0,1.65,0,3.44,0,5.09,0,5.18-2.28,10.02-7.35,16.13-5.89,2.19.53,4.22,1.84,5.94,3.25,1.1.78,2.07,2.26,3.4,2.64,3.37,0,6.81,0,10.19,0,11.88,0,23.78,0,35.66,0"/><path class="b" d="M10.68,148.86c2.79.4,5.7.49,8.49.13,2.53-.35,5.1-1.03,7.64-1.32,4.72-.66,9.46.68,13.58,2.93,1.38.72,2.88,1.58,4.25,2.33.44.23,1.25.68,1.7.89.44.03,1.26.06,1.7.05,4.23,0,8.51,0,12.73,0,12.16,0,24.34,0,36.51,0,3.37,0,6.81,0,10.19,0,1.06,0,2.33,0,3.4,0,.79,0,1.86.1,2.55-.39,2.7-1.96,5.33-4.31,8.49-5.51,3.93-1.64,8.15.32,11.04,3.08,1.11.82,2.01,2.49,3.4,2.82,1.94,0,4,0,5.94,0,13.01,0,26.04,0,39.05,0"/><path class="b" d="M10.68,144.75c7.66,2.75,11.2,1.21,18.68.43,3.12-.25,6.34.13,9.34,1.04,2.58.77,5.13,1.89,7.64,2.83,1.04.34,2.33.17,3.4.2,7.91,0,15.86,0,23.77,0,12.73,0,25.48,0,38.2,0,.8.01,1.87.1,2.55-.43,1.34-1.02,2.84-2.18,4.24-3.11,6.72-4.67,11.89-2.01,16.98,3.42,5.34.35,10.77.03,16.13.13,9.9,0,19.82,0,29.71,0"/><path class="b" d="M10.68,139.99c9.45,4.18,12.43,3.23,22.07,3.51,2.83.13,5.71.61,8.49,1.14,5.65,0,11.33,0,16.98,0,9.05,0,18.12,0,27.17,0,6.21,0,12.46,0,18.68,0,2.8,0,5.69,0,8.49,0,1.81-.57,3.39-2.02,5.09-2.86,5.42-3.2,10.41-2.76,15.28,1.22.73.53,1.58,1.58,2.55,1.64,1.65,0,3.44,0,5.09,0,3.37,0,6.81,0,10.19,0,10.18,0,20.38,0,30.56,0"/><path class="b" d="M10.68,135.14c14.87,6.11,7.32,4.79,23.77,4.9,10.75,0,21.51,0,32.26,0,13.58,0,27.17,0,40.75,0,1.06-.03,2.35.1,3.4-.14,1.67-.68,3.43-1.53,5.09-2.23,6.98-3.18,12.61-2.16,18.68,2.38h46.69"/><path class="b" d="M10.68,130.71c3.34.9,6.5,2.52,9.34,4.49.76.29,1.76.23,2.55.23,1.37,0,2.88,0,4.24,0,3.66,0,7.38,0,11.04,0,13.01,0,26.04,0,39.05,0,9.61,0,19.25,0,28.87,0,.82.13,1.8-.37,2.55-.65,1.05-.4,2.32-.81,3.4-1.12,5.71-1.86,11.95-3.27,17.83-1.29,2.35.72,4.66,1.85,6.79,3.06,4.8,0,9.64,0,14.43,0,10.18,0,20.38,0,30.56,0"/><path class="b" d="M10.68,127.17c3.08.4,6.04,1.75,8.49,3.64,18.39,0,36.79,0,55.18,0,8.48,0,16.99,0,25.47,0,5.39-1,10.73-2.53,16.13-3.49,5.57-1.12,11.42-1.52,16.98-.15,2,.48,4.06,1.18,5.94,2,.76.33,1.81.82,2.55,1.19.34.28,1.25.53,1.7.45,2.52,0,5.12,0,7.64,0,10.18,0,20.38,0,30.56,0"/><path class="b" d="M10.68,124.86c2.04.03,4.01.83,5.94,1.34,5.08,0,10.2,0,15.28,0,11.03,0,22.08,0,33.11,0,4.12-1.46,8.33-3.07,12.73-3.34,3.68-.14,7.39.58,11.04.96,4.49.55,9.06.93,13.58.73,4.57-.19,9.16-.94,13.58-2.11,7.14-1.88,14.73-4.12,22.07-2.01,2.33.62,4.55,1.87,6.79,2.73,2.75,1.08,5.66,2,8.49,2.86,1.33.33,2.89.12,4.25.17,1.94,0,4,0,5.94,0,5.93,0,11.9,0,17.83,0"/><path class="b" d="M10.68,121.6c14.99,0,30,0,45,0,2.23,0,4.56,0,6.79,0,1.47-.15,2.89-1.13,4.24-1.66,2.48-1.13,5.05-2.3,7.64-3.15,4.93-1.82,10.28-1.1,15.28,0,5.02,1.08,10.11,2.38,15.28,2.37,11.92.55,21.86-11.03,33.96-7.34,5.77,2.08,10.84,5.78,16.13,8.81.38.25,1.29.74,1.7.96.74,0,1.8,0,2.55,0,1.65,0,3.44,0,5.09,0,5.65,0,11.33,0,16.98,0"/><path class="b" d="M10.68,116.99c17.54,0,35.1,0,52.64,0,1.07,0,2.33,0,3.4,0,1.38-.75,2.88-1.66,4.25-2.45,3.65-2.1,7.57-4.3,11.89-4.43,9.69-.25,19.22,5.89,28.87,2.45,9.62-3.84,17.61-13.47,28.87-8.05,4.86,2.37,8.7,6.42,12.73,9.94,1.03.82,2.09,2.17,3.4,2.54,2.52,0,5.12,0,7.64,0,5.65,0,11.33,0,16.98,0"/><path class="b" d="M10.68,112.38h61.13c6.71-4.93,10.92-7.45,19.53-6.06,5.87.85,11.93,2.63,17.83,1.06,8.28-2.32,13.88-11.04,22.92-11.28,5.13-.05,9.97,2.72,13.58,6.2,2.33,2.24,4.57,4.79,6.79,7.14,1.23,1.09,2.35,3.22,4.24,2.94,8.2,0,16.42,0,24.62,0"/><path class="b" d="M10.68,107.77c21.79,0,43.58,0,65.37,0,1.29-.07,2.3-1.4,3.4-1.98,1.53-1,3.33-1.85,5.09-2.35,8.87-2.46,18.71,1.81,27.17-2.73,5.48-2.99,9.87-8.2,16.13-9.64,4.51-1.08,9.01.95,12.73,3.35,5.45,3.3,8.97,8.93,13.58,13.19,3.34.39,6.82.05,10.19.16,5.65,0,11.33,0,16.98,0"/><path class="b" d="M10.68,103.16c22.35,0,44.72,0,67.07,0,1.07-.02,2.34.08,3.4-.13.73-.47,1.76-1.05,2.55-1.42,1.85-.87,3.93-1.48,5.94-1.83,6.47-1.09,13.31-.16,19.53-2.59,5.66-2.13,9.67-7.21,15.28-9.44,6.19-2.7,11.98.87,16.98,4.36,4.48,3.04,7.72,7.62,11.89,11.04,5.65.05,11.33,0,16.98.02,1.94-.05,4.01.12,5.94-.1,1.61-.63,3.39-1.22,5.09-1.52"/><path class="b" d="M10.68,98.55c23.2,0,46.41,0,69.62,0,1.36,0,2.88,0,4.24,0,2.39-1.1,5.04-1.81,7.64-2.18,5.65-.81,11.56-.56,16.98-2.59,5.66-2.02,9.69-7.04,15.28-9.22,5.79-2.49,11.35.46,16.13,3.7,4.71,2.79,8.2,7.27,12.73,10.29,5.93,0,11.9,0,17.83,0,3.33-1.17,6.67-2.67,10.19-3.19"/><path class="b" d="M10.68,93.94c18.39,0,36.79,0,55.18,0,5.65,0,11.33,0,16.98,0,2.52,0,5.12,0,7.64,0,1.36-.43,2.87-.93,4.25-1.29,5.93-1.61,12.26-2.23,17.83-4.98,2.62-1.42,5.08-3.31,7.64-4.84,6.6-4.18,12.14-3.71,18.68.31,5.57,2.84,9.83,7.67,15.28,10.68,5.06.3,10.21.02,15.28.11,3.91-.84,7.85-2.12,11.89-2.15"/><path class="b" d="M10.68,89.33c18.96,0,37.93,0,56.88,0,8.76,0,17.55,0,26.32,0,1.45-.17,2.86-1.12,4.24-1.56,1.91-.74,3.98-1.42,5.94-2.02,4.02-1.23,8.27-2.12,11.89-4.38,6.76-4.04,12.63-6.89,20.38-3.23,2.6,1.21,5.23,2.62,7.64,4.17,2.81,1.88,5.55,4.04,8.49,5.7.72.42,1.78.94,2.55,1.27.74.05,1.8.04,2.55.04,1.94,0,4,0,5.94,0,5.93,0,11.9,0,17.83,0"/><path class="b" d="M10.68,84.72c19.52,0,39.06,0,58.58,0,8.76,0,17.55,0,26.32,0,1.18.16,2.36-.63,3.4-1.07,1.62-.72,3.41-1.39,5.09-1.91,3.62-1.22,7.56-1.57,11.04-3.21,6.74-3.24,12.82-6.3,20.38-3.42,6.07,2.13,11.3,6.03,16.98,8.94,1.23.81,2.84.69,4.24.67,2.23,0,4.56,0,6.79,0,5.93,0,11.9,0,17.83,0"/><path class="b" d="M10.68,80.11c20.37,0,40.76,0,61.13,0,9.33,0,18.69,0,28.02,0,3.54-1.28,7.32-1.93,11.04-2.45,2.33-.34,4.62-1.26,6.79-2.13,5.67-2.48,11.74-4.16,17.83-2.11,5.04,1.57,9.63,4.36,14.43,6.52,1.33.33,2.89.12,4.24.18,2.23,0,4.56,0,6.79,0,6.78,0,13.6,0,20.38,0"/><path class="b" d="M10.68,75.5c23.2,0,46.41,0,69.62,0,7.91,0,15.86,0,23.77,0,3.66-.03,7.38.06,11.04-.04,1.67-.56,3.44-1.27,5.09-1.88,4.29-1.65,9.01-2.67,13.58-1.73,2.31.44,4.63,1.28,6.79,2.21,1.06.45,2.31,1.05,3.4,1.44.75,0,1.8,0,2.55,0,11.6,0,23.21,0,34.81,0"/><path class="b" d="M10.68,70.89h170.65"/><path class="b" d="M10.68,66.28h170.65"/><path class="b" d="M10.68,61.67h170.65"/><path class="b" d="M10.68,53.29c2.9-.02,5.86.64,8.49,1.87,1.1.52,2.35,1.24,3.4,1.86.77.05,1.78.04,2.55.04,6.5,0,13.03,0,19.53,0,3.37-.03,6.82.07,10.19-.05,1.35-.34,2.87-.67,4.25-.87,2.5-.37,5.15-.36,7.64.07,1.67.24,3.38,1,5.09.85,15.28,0,30.57,0,45.85,0,10.46,0,20.95,0,31.41,0,1.45.17,2.89-.6,4.24-1,1.61-.49,3.41-.81,5.09-.82,2.63-.05,5.24.82,7.64,1.81,5.08,0,10.2,0,15.28,0"/><path class="b" d="M10.68,45.53c3.65.09,7.15,1.58,10.19,3.52,1.36.84,2.85,1.8,4.25,2.58.74.41,1.67.97,2.55.82,4.23,0,8.51,0,12.73,0,2.65-.65,5-2.49,7.64-3.27,4.74-1.04,9.53-2.58,14.43-2.49,3.55.09,7.04,1.24,10.19,2.83,1.08.54,2.35,1.24,3.4,1.84.74.4,1.65,1.14,2.55,1.08,13.58,0,27.17,0,40.75,0,5.36-.02,10.77.03,16.13-.02,13.82-3.35,17.09-11.15,30.56.02h15.28"/><path class="b" d="M10.68,40.06c5.35.39,9.72,3.74,14.43,5.91,9.78,4.42,14.83-2.57,22.92-6.12,3.88-.94,7.89-1.91,11.89-2.17,5.56-.33,10.78,2.16,15.28,5.2,1.66,1.09,3.43,2.33,5.09,3.42,1.01.6,2.12,1.74,3.4,1.54,3.66,0,7.38,0,11.04,0,5.36,0,10.77,0,16.13,0,2.23-.02,4.56.05,6.79-.04,1.93-.48,4-.91,5.94-1.36,7.06-1.49,13.8-4.18,20.38-7.1,10.33-4.82,15.46,1.51,22.07,8.49h15.28"/><path class="b" d="M10.68,36.6c8.44.74,15.1,8.02,23.77,4.42,3.07-1.21,5.81-3.26,8.49-5.14,2.06-1.41,4.29-2.99,6.79-3.46,3.62-.7,7.32-1.66,11.04-1.46,9.31.49,16.22,7.66,23.77,12.28,9.05,0,18.12,0,27.17,0,1.07-.04,2.37.15,3.4-.23,1.95-.89,4.01-1.85,5.94-2.8,5.13-2.48,10.14-5.3,15.28-7.76,3.48-1.59,7.15-3.29,11.04-3.42,8.57.08,13.67,8.38,18.68,14.21h15.28"/><path class="b" d="M10.68,34.33c5.53.24,10.67,2.72,16.13,3.32,5.72.59,10.8-2.63,15.28-5.78,2.59-1.76,5.32-3.68,8.49-4.14,4.43-.98,9.15-1.57,13.58-.25,5.02,1.42,9.33,4.59,13.58,7.5,1.33.92,2.87,1.88,4.24,2.73.69.47,1.67,1.07,2.55.91,5.08,0,10.2,0,15.28,0,4.8,0,9.64,0,14.43,0,2.13-1.04,4.07-2.69,5.94-4.12,10.03-7.86,21.34-20.62,33.96-9.44,3.13,2.64,5.87,5.85,8.49,8.98,1.36,1.45,2.55,3.52,4.25,4.59h14.43"/><path class="b" d="M10.68,32.83c3.39-.06,6.83.26,10.19.72,3.61.53,7.45.84,11.04-.03,5.3-1.31,9.65-4.86,14.43-7.3,4.48-2.07,10.44-2.7,15.28-1.72,6.69,1.41,12.08,5.95,17.83,9.35,1.33.33,2.88.12,4.24.17,2.23,0,4.56,0,6.79,0,6.21,0,12.46,0,18.68,0,1.06,0,2.33,0,3.4,0,.78,0,1.83.08,2.55-.3,1.78-1.41,3.53-3.16,5.09-4.81,5.49-5.53,11.44-14.17,19.53-15.51,10.56-1.2,20.84,15.34,28.87,20.62,4.23,0,8.51,0,12.73,0"/><path class="b" d="M10.68,29.4c7.63,0,15.29,0,22.92,0,1.79.08,3.5-1.09,5.09-1.77,2.54-1.25,5.06-2.76,7.64-3.93,4.74-2.07,10.28-2.55,15.28-1.21,4.95,1.32,9.26,4.29,13.58,6.9,10.18,0,20.38,0,30.56,0,2.8,0,5.69,0,8.49,0,1.76-.55,2.96-2.51,4.25-3.75,2.01-2.3,4-4.85,5.94-7.21,3.71-4.29,7.69-9.51,13.58-10.6,5.36-.63,9.68,3.6,13.58,6.66,3.57,2.99,7.16,6.08,11.04,8.66,3.47,2.35,7.29,4.25,11.04,6.12,2.5.25,5.13.04,7.64.11"/></svg>