<?xml version="1.0" encoding="UTF-8"?><svg id="a" xmlns="http://www.w3.org/2000/svg" width="1920" height="2400" viewBox="0 0 192 240"><defs><style>.b{fill:none;stroke:#fff;stroke-miterlimit:10;stroke-width:.4px;}.c{stroke-width:0px;}</style></defs><rect class="c" width="192" height="240"/><path class="b" d="M8.39,228.3h89.79c3.79-3,6.87-6.9,10.46-10.13,1.28-1.2,2.94-2.22,4.36-3.25,1.76-1.35,3.53-2.96,5.23-4.38,8.06-7.05,13.78-6.19,20.92,1.47,2.79,2.96,5.54,6.16,7.85,9.52,1.1,1.56,2.39,3.43,3.49,4.99.27.53,1.16,1.57,1.74,1.78h31.38"/><path class="b" d="M8.39,223.57h89.79c3.8-2.98,6.77-7.03,10.46-10.14,1.27-1.15,2.93-2.07,4.36-3,1.44-.99,2.97-2.19,4.36-3.24,4.19-3.31,9.56-6.29,14.82-3.53,3.04,1.51,5.56,4.03,7.85,6.48,3.84,4.04,7.16,8.64,10.46,13.12,1.31.58,2.96.22,4.36.31,2.59,0,5.26,0,7.85,0,6.96,0,13.96,0,20.92,0"/><path class="b" d="M8.39,218.83c14.52,0,29.06,0,43.59,0,13.94,0,27.9,0,41.84,0,.78,0,1.86.06,2.62-.19,1.44-1.21,3-2.64,4.36-3.93,3.03-2.82,5.96-6,9.59-8.06,5.06-2.07,9.37-6.01,14.82-7.08,8.76-1.44,14.84,6.87,20.05,12.61,1.09,1.29,2.39,2.84,3.49,4.13.69.8,1.61,2.08,2.62,2.52h32.26"/><path class="b" d="M8.39,214.1c5.51,0,11.06,0,16.56,0,2.59-.16,5.24-.74,7.85-.65,2.32-.08,4.68.51,6.97.65,3.76,0,7.58,0,11.33,0,13.36,0,26.74,0,40.1,0,1.96-.69,3.57-2.45,5.23-3.67,3.42-2.79,6.72-5.89,10.46-8.26,2.33-1.62,5.23-2.05,7.85-2.97,3.67-1.32,7.38-2.98,11.33-3.15,11.72-.32,17.72,11.77,26.15,17.92,3.73.33,7.58.04,11.33.13,6.67,0,13.38,0,20.05,0"/><path class="b" d="M8.39,209.37c2.59,0,5.26,0,7.85,0,1.4-.07,3,.18,4.36-.21,4.19-1.45,8.57-3.02,13.08-2.59,2.38.2,4.78.9,6.97,1.82.79.32,1.77.85,2.62.98.79,0,1.83,0,2.62,0,12.2,0,24.42,0,36.61,0,.44,0,1.31,0,1.74,0,1.22-.25,2.43-1.12,3.49-1.74,2.07-1.31,4.16-2.86,6.1-4.35,4.86-3.61,9.64-8.03,15.69-9.42,2.28-.34,4.7-.31,6.97-.72,8.54-1.49,15.58-1.32,22.67,4.3,3.79,3.03,7.02,6.89,11.33,9.25,2.16,1.1,4.48,2.71,6.97,2.67,8.71,0,17.44,0,26.15,0"/><path class="b" d="M8.39,204.63c2.88,0,5.84,0,8.72,0,1.51-.1,2.98-1.1,4.36-1.67,1.95-.92,4.02-1.88,6.1-2.46,3.11-.92,6.54-.81,9.59.31,1.78.63,3.6,1.58,5.23,2.53.78.43,1.72,1.15,2.62,1.29.46,0,1.29,0,1.74,0,8.13,0,16.28,0,24.41,0,.44,0,1.3,0,1.74-.02,1.38-.6,2.93-1.24,4.36-1.72,1.37-.49,2.98-.73,4.36-1.2,1.81-.64,3.62-1.65,5.23-2.68,7-4.4,13.22-11.24,21.79-12.29,2.88-.17,5.83.46,8.72.55,5.31.34,10.76.92,15.69,3.03,2.8,1.18,5.49,2.85,7.85,4.76,2.64,2.33,5.35,4.83,8.72,6.08,4.68,1.89,9.86,1.95,14.82,2.41,2.31.2,4.71.58,6.97,1.07,4.05,0,8.16,0,12.2,0"/><path class="b" d="M8.39,199.9c2.59-.02,5.26.03,7.85-.02,2.08-.82,4.13-2.01,6.1-3.04,6.82-3.82,12.4-4.07,19.18-.04,1.11.62,2.4,1.41,3.49,2.06.45.26,1.29.77,1.74,1.01.46.02,1.29.05,1.74.04,5.8,0,11.64,0,17.44,0,3.57-1.42,6.87-3.65,10.46-5.05,1.35-.56,2.93-.95,4.36-1.23,1.47-.39,3.03-1.08,4.36-1.81,6.98-3.85,12.9-10.09,20.92-11.77,3.19-.7,6.47.11,9.59.77,5.07,1.08,10.12,2.58,14.82,4.78,3.7,1.72,7.26,3.93,10.46,6.47,3.97,3.57,7.55,5.79,13.08,5.85,5.23.11,10.46-1.1,15.69-.65,2.35.11,4.68.93,6.97,1.31,2.28.3,4.7.13,6.97-.13"/><path class="b" d="M8.39,195.17c3.76,0,7.58,0,11.33,0,3.38-1.54,6.75-3.42,10.46-4.05,3.8-.73,7.75,0,11.33,1.33,2.31.83,4.64,1.89,6.97,2.65,3.46.18,7,.02,10.46.07,5.9-1.59,10.99-5.23,16.56-7.62,1.91-.88,4.08-1.3,6.1-1.83,1.77-.55,3.59-1.4,5.23-2.27,7.16-3.8,14.18-9.33,22.67-9.17,12.15.69,23.57,10.86,33.13,17.74,7.33,6.06,16.57.55,24.41-1.35,1.67-.4,3.52-.68,5.23-.7,1.4-.03,2.96.25,4.36.19,2.32-.08,4.71-.59,6.97-1.07"/><path class="b" d="M8.39,190.43c4.92,0,9.9,0,14.82,0,2.57-.12,5.32.28,7.85-.22,3.98-.91,8.13-1.19,12.2-1,2.88.08,5.83.62,8.72.33,9.09-.94,16.78-6.5,25.28-9.35,10.68-2.52,20.26-9,31.38-9.69,5.83-.76,11.18,2.09,15.69,5.51,5.65,4.17,10.69,9.23,16.56,13.12.72.47,1.74,1.18,2.62,1.31.77,0,1.85,0,2.62,0,2.29,0,4.68,0,6.97,0,1.87.2,3.61-.96,5.23-1.72,2.6-1.33,5.22-2.86,7.85-4.14,1.92-.94,4.02-1.81,6.1-2.32,1.38-.35,2.98-.43,4.36-.8,2.34-.6,4.69-1.57,6.97-2.36"/><path class="b" d="M8.39,185.7c10.74,0,21.51,0,32.26,0,1.17.12,2.41-.47,3.49-.83,1.38-.46,2.93-.9,4.36-1.16,8.34-1.79,16.21-5.34,24.41-7.64,5.21-1.52,10.4-3.29,15.69-4.55,6.3-1.54,12.75-2.46,19.18-3.25,3.81-.57,6.83-1.02,10.46.76,8.24,3.97,13.93,11.69,21.79,16.24,0,0,.87.43.87.43h.87c1.09,0,2.4,0,3.49,0,2.58,0,5.26,0,7.85,0,1.54-.04,3-1.17,4.36-1.81,2.34-1.31,4.7-2.83,6.97-4.26,3.55-2.3,7.33-4.38,11.33-5.78,2.68-1.21,5.23-2.9,7.85-4.24"/><path class="b" d="M8.39,180.97c9.58,0,19.19,0,28.77,0,1.7,0,3.53,0,5.23,0,.88-.27,1.85-1.05,2.62-1.54,2.12-1.43,4.62-2.37,6.97-3.33,5-2.06,10.31-3.44,15.69-4.05,3.18-.4,6.47-.67,9.59-1.44,2.88-.81,5.72-2.04,8.72-2.41,6.91-1.07,14-.26,20.92-1.27,2.61-.26,5.2-1.4,7.85-1.25,9.82,1.03,16.44,10.6,25.28,14.21,9.51,3.59,19.07-2.53,27.02-7.24,2.84-1.77,5.84-3.44,8.72-5.14,2.69-1.77,5.19-4,7.85-5.81"/><path class="b" d="M8.39,176.23h34c1.83-1.09,3.38-2.88,5.23-3.96,4.47-2.69,9.57-4.58,14.82-4.75,4.35-.23,8.73.64,13.08.28,2.11-.12,4.15-.98,6.1-1.69,1.37-.42,2.94-.72,4.36-.86,8.11-.68,16.45,1.84,24.41-.67,5.21-2.2,10.93-.52,15.69,2.01,5.11,2.51,9.95,6.12,15.69,7.02,12.16,1.12,24.23-3.32,34-10.38,2.71-2.14,5.19-4.74,7.85-6.94"/><path class="b" d="M8.39,171.5c7.54,0,15.12,0,22.67,0,2.29,0,4.68,0,6.97,0,1.75-.11,3.96.5,5.23-1.04,4.29-3.91,9.83-6.61,15.69-6.81,6.15-.38,12.18,2.34,18.31,1.41,1.78-.29,3.49-1.25,5.23-1.68,7.17-1.83,14.54.6,21.79.19,2.98-.08,5.91-.92,8.72-1.86,3.99-1.08,8.26-.66,12.2.42,4.7,1.25,9.19,3.35,13.95,4.37,2.25.52,4.68.43,6.97.55,3.17.16,6.41.4,9.59.38,7.1.04,14.34-1.91,20.05-6.22,2.75-2.17,5.22-4.85,7.85-7.16"/><path class="b" d="M8.39,166.77c9.58,0,19.19,0,28.77,0,2.01.22,3.6-1.73,5.23-2.65,2.66-1.81,5.52-3.64,8.72-4.28,8.03-1.75,15.57,3.16,23.54,3.02,2.78.05,5.27-1.4,7.85-2.19,5.8-1.55,11.72.47,17.44,1.47,3.72.68,7.72.88,11.33-.41,9.48-3.7,16.18-4.3,26.15-2.24,2.85.59,5.85.72,8.72,1.2,3.2.58,6.41,1.49,9.59,2.17,6.71,1.6,14.17,1.32,20.05-2.62,2.75-1.84,5.26-4.2,7.85-6.26"/><path class="b" d="M8.39,162.03c8.13-.02,16.28.03,24.41-.02,3.7-1.87,7.44-3.87,11.33-5.34,4.21-1.7,7.92-1.85,12.2-.32,6.92,2.4,14.47,6.3,21.79,3.15,2.71-1.35,5.62-2.63,8.72-2.42,5.77.21,10.99,3.17,16.56,4.33,12,2.8,17.32-10.48,34-7.1,2.88.61,5.88,1.14,8.72,1.95,3.78,1.13,7.51,2.66,11.33,3.67,10.6,2.87,17.41.29,26.15-5.72"/><path class="b" d="M8.39,157.3c4.34,0,8.74,0,13.08,0,1.4,0,2.96,0,4.36,0,1.1-.04,2.43.15,3.49-.23,2.97-1.79,6.21-3.32,9.59-4.15,3.92-.86,8.26-1.37,12.2-.39,3.35,1.03,6.4,2.96,9.59,4.37,1.51.76,3.57.26,5.23.4,3.17,0,6.42,0,9.59,0,2.17-.07,4.09-2.03,6.1-2.76,4.87-2.11,10.24-.3,14.82,1.72.77.33,1.81.81,2.62,1.04.43,0,1.31,0,1.74,0,1.99,0,4.11,0,6.1,0,1.7,0,3.53,0,5.23,0,1.47.02,3.16.19,4.36-.86,4.71-3.04,9.83-6.49,15.69-6.07,3.31.19,6.5,1.45,9.59,2.56,4.05,1.34,8.07,2.96,12.2,4.02,1.65.52,3.53.31,5.23.35,2.29,0,4.69,0,6.97,0,1.69,0,3.54,0,5.23,0,4.22-.57,8.33-1.93,12.2-3.67"/><path class="b" d="M8.39,152.57c6.38,0,12.8,0,19.18,0,.54,0,1.34-.4,1.74-.74.76-.48,1.81-1.07,2.62-1.46,3.49-1.72,7.55-2.04,11.33-1.28,2.3.5,4.75.9,6.97,1.69.8.32,1.86.85,2.62,1.26.42.31,1.22.61,1.74.52,5.8,0,11.64,0,17.44,0,1.99,0,4.11,0,6.1,0,1.19-.38,2.34-1.38,3.49-1.87,1.86-.88,4.05-1.3,6.1-1.19,3.7.09,7.03,1.98,10.46,3.06,6.09-.01,12.22.02,18.31-.01,9.2-6.13,13.95-6.56,23.54-.9.43.23,1.3.69,1.74.91.78,0,1.84,0,2.62,0,1.7,0,3.53,0,5.23,0,6.96,0,13.96,0,20.92,0,4.36-.11,8.85.46,13.08-.85"/><path class="b" d="M8.39,147.83c5.22,0,10.48,0,15.69,0,1.1,0,2.39,0,3.49,0,.52-.02,1.34-.39,1.74-.69,1.05-.58,2.34-1.15,3.49-1.48,2.53-.75,5.32-.62,7.85.07,2.05.54,4.11,1.41,6.1,2.11.78,0,1.84,0,2.62,0,6.09,0,12.22,0,18.31,0,3.76-.04,7.58.09,11.33-.06,1.55-1.1,3.39-2.09,5.23-2.6,2.53-.71,5.3-.62,7.85-.03,2.67.61,5.3,1.68,7.85,2.66,2.58.06,5.26,0,7.85.02,1.7,0,3.53,0,5.23,0,.8,0,1.9.09,2.62-.34,7.66-4.27,12.59-4.79,20.05.34h47.95"/><path class="b" d="M8.39,143.1c6.09,0,12.22,0,18.31,0,2.22-.88,4.53-1.91,6.97-1.88,1.74-.03,3.59.33,5.23.87.8.26,1.84.67,2.62,1,.46,0,1.29,0,1.74,0,11.33,0,22.67,0,34,0,.45.02,1.3-.03,1.74-.1,1.05-.68,2.34-1.4,3.49-1.91,2.17-.96,4.6-1.55,6.97-1.64,7.16-.46,13.78,3.81,20.92,3.14,2.96-.45,5.8-1.78,8.72-2.41,3.16-.77,6.61-.53,9.59.82,1.82.65,3.24,2.33,5.23,2.09,16.56,0,33.13,0,49.69,0"/><path class="b" d="M8.39,138.37c4.92,0,9.9,0,14.82,0,1.17-.22,2.35-1.01,3.49-1.35,1.64-.56,3.5-.83,5.23-.7,2.43.13,4.75,1.17,6.97,2.05,3.46,0,7,0,10.46,0,9.29,0,18.61,0,27.9,0,1.23.17,2.44-.54,3.49-1.07,1.37-.66,2.93-1.36,4.36-1.9,8.07-3.23,14.54-1.67,22.67-.19,4.61.77,9.34-.44,13.95.37,2.08.33,4.21,1.04,6.1,1.96.41.23,1.31.64,1.74.83.77,0,1.84,0,2.62,0,12.78,0,25.58,0,38.36,0,.76-.12,1.84-.35,2.62-.4,1.4-.04,2.96.3,4.36.4,1.99,0,4.11,0,6.1,0"/><path class="b" d="M8.39,133.63c2.59,0,5.26,0,7.85,0,.8,0,1.84.04,2.62-.14.77-.52,1.8-1.19,2.62-1.63,1.33-.73,2.88-1.41,4.36-1.76,2.89-.73,6.01-.28,8.72.89,1.79.69,3.47,1.91,5.23,2.65,3.17,0,6.42,0,9.59,0,6.67,0,13.38,0,20.05,0,1.4,0,2.96,0,4.36,0,1.1-.04,2.43.14,3.49-.22,9.52-3.67,16.36-8.84,27.02-6.25,2.32.52,4.68,1.28,6.97,1.89,2.87.74,5.87,1.35,8.72,2.2,2.36.58,4.64,1.79,6.97,2.39,1.4,0,2.96,0,4.36,0,11.62,0,23.25,0,34.87,0,1.08,0,2.4.02,3.49-.02,1.03-.47,2.36-.9,3.49-1.06,3.49-.24,7.02.61,10.46,1.08"/><path class="b" d="M8.39,128.9c1.4,0,2.96,0,4.36,0,1.26-.1,2.45-1.12,3.49-1.77,1.63-1.19,3.41-2.44,5.23-3.34,5.33-2.83,10.8-1.54,15.69,1.51,1.42.84,2.96,1.84,4.36,2.7.74.47,1.71,1.05,2.62.89,4.92,0,9.9,0,14.82,0,4.04-.1,8.18.2,12.2-.13,3.44-1.16,6.99-2.21,10.46-3.26,5.71-2.25,11.06-6.25,17.44-6.18,4.69-.01,9.01,2.19,13.08,4.29,3.67,1.85,7.5,3.53,11.33,5.02,1.63.53,3.54.15,5.23.26,3.17,0,6.42,0,9.59,0,9,0,18.03,0,27.02,0,1.69,0,3.54,0,5.23,0,1.41-.18,2.91-.84,4.36-.82,1.7-.07,3.55.12,5.23.42,1.07.25,2.38.47,3.49.4"/><path class="b" d="M8.39,122.76c2.45-.37,4.87-1.33,6.97-2.62,2.49-1.65,4.99-3.54,7.85-4.52,9.43-3.41,15.39,4.46,23.54,6.87,3.13.49,6.43.25,9.59.2,8.51-.4,17-1.9,25.28-3.84,5.28-1.92,9.94-5.79,15.69-6.31,4.77-.5,9.26,1.82,13.08,4.44,3.04,2.11,6.22,4.2,9.59,5.76,1.07.5,2.38,1.04,3.49,1.43.77.01,1.84.01,2.62.01,19.17,0,38.36,0,57.54,0"/><path class="b" d="M8.39,116.28c5.39-.11,8.59-3.46,13.08-5.69,6.06-3.08,11.81-1.48,17.44,1.65,2.76,1.41,5.59,3.15,8.72,3.56,4.34.19,8.74,0,13.08-.28,4.36-.31,8.76-.82,13.08-1.52,2.89-.54,5.97-.83,8.72-1.95,5.83-2.56,11.55-7.21,18.31-5.92,4.64.83,8.48,3.88,12.2,6.58,3.47,2.47,7.26,4.68,11.33,5.97,2.76,1.1,5.82.69,8.72.76,4.34,0,8.74,0,13.08,0,12.49,0,25,0,37.49,0"/><path class="b" d="M8.39,110.46c5.88.25,9.52-3.43,14.82-4.89,10.1-2.77,15.67,4.14,24.41,5.73,6.39.37,12.87.17,19.18-.95,3.21-.56,6.46-1.36,9.59-2.26,2.02-.6,4.21-1.14,6.1-2.11,6.92-3.69,13.52-9.26,21.79-5.92,3.79,1.42,7.02,4.06,10.46,6.12,4.03,2.45,8.48,4.33,13.08,5.41,3.14.77,6.42,1.23,9.59,1.89,1.41.3,2.99.7,4.36,1.16,1.09.08,2.4.04,3.49.05,12.78,0,25.58,0,38.36,0"/><path class="b" d="M8.39,105.24c5.41.21,10.35-2.55,15.69-2.85,7.07-.6,13.52,2.81,20.05,4.94,3.35,1.07,6.98,1.05,10.46,1.2,7.93.33,15.62-2.2,22.67-5.65,4.4-1.78,8.23-4.69,12.2-7.22,9.69-6.09,15.28-3.45,24.41,1.68,3.05,1.51,6.34,2.72,9.59,3.72,8.03,2.4,16.45,4.18,23.54,8.88,12.2.04,24.42,0,36.61.01"/><path class="b" d="M8.39,101.02c4.05-.2,8.14-.82,12.2-.74,6.83.08,13.48,1.92,20.05,3.59,1.98.49,4.09.97,6.1,1.3,2.87.19,5.84.03,8.72.08,2.59,0,5.26,0,7.85,0,1.79-.23,3.59-1.07,5.23-1.78,5.21-2.56,10.1-5.89,14.82-9.26,5.35-4.05,11.19-8.91,18.31-8.46,5.26.24,9.81,3.3,14.82,4.55,7.46,1.84,15.08,3.58,21.79,7.48,2.67,1.47,5.34,3.14,7.85,4.87,1.64.93,3.2,2.79,5.23,2.59,10.74,0,21.51,0,32.26,0"/><path class="b" d="M8.39,97.81c2.87-.31,5.86-.49,8.72-.02,4.93.8,9.86,1.91,14.82,2.54,3.15.37,6.42.09,9.59.17,5.8,0,11.64,0,17.44,0,2,0,4.11,0,6.1,0,1.1-.04,2.43.15,3.49-.23,2.77-1.58,5.38-3.62,7.85-5.64,2.89-2.35,5.87-4.76,8.72-7.16,4.27-3.51,9.13-6.99,14.82-7.43,4.18-.36,8.26,1.03,12.2,2.22,3.4.9,7.01,1.09,10.46,1.75,6.09,1.04,11.64,4.07,16.56,7.69,2.6,1.87,5.23,3.89,7.85,5.74,1.06.75,2.37,1.6,3.49,2.27.67.47,1.78.9,2.62.78,6.38,0,12.8,0,19.18,0,1.99,0,4.11,0,6.1,0,.76,0,1.85,0,2.62,0,.8-.18,1.86-.66,2.62-1"/><path class="b" d="M8.39,95.26c1.99-.25,4.11-.37,6.1-.13,1.71.27,3.48.81,5.23.64,9.58,0,19.19,0,28.77,0,4.63,0,9.32,0,13.95,0,2.29-.07,4.7.16,6.97-.13,1.14-.76,2.43-1.74,3.49-2.61,6.37-5.26,11.89-11.78,19.18-15.83,4.22-2.35,9.26-2.87,13.95-1.83,2.31.43,4.66,1.17,6.97,1.56,2.57.38,5.27.43,7.85.75,9.96.87,16.94,8.21,24.41,14,2.14,1.57,4.48,3.15,6.97,4.08,2.88,0,5.84,0,8.72,0,2.29,0,4.69,0,6.97,0,1.4-.29,2.95-.72,4.36-.95,1.39-.25,2.99-.21,4.36-.54,2.42-.58,4.78-1.74,6.97-2.89"/><path class="b" d="M8.39,91.04c13.36.05,26.75-.07,40.1,0,4.34,0,8.74,0,13.08,0,1.7,0,3.53,0,5.23,0,1.86-.76,3.63-2.07,5.23-3.27,9.95-7.87,18.66-21.04,33.13-17.55,2.31.45,4.67,1.15,6.97,1.62,2.57.48,5.27.66,7.85,1.12,9.57,1.36,16.47,8.63,23.54,14.55,1.6,1.28,3.41,2.6,5.23,3.54,3.46,0,7,0,10.46,0,2.29-.06,4.7.14,6.97-.11,1.69-.69,3.5-1.47,5.23-2.05,1.64-.62,3.57-.75,5.23-1.29,2.44-.82,4.77-2.18,6.97-3.49"/><path class="b" d="M8.39,86.3c7.84,0,15.7,0,23.54,0,5.16-1.15,10.31-3.43,15.69-2.94,2.29.32,4.66.83,6.97,1.05,6.67.88,13.12-1.76,18.31-5.82,11.42-9.01,17.98-17.33,34-13.04,4.03,1.06,8.25,1.6,12.2,2.94,9.62,3.19,15.95,11.6,23.54,17.8,8.42-.04,16.87.07,25.28-.04,1.65-1.06,3.45-2.21,5.23-3.04,1.08-.48,2.43-.92,3.49-1.45,2.39-1.18,4.72-2.71,6.97-4.11"/><path class="b" d="M8.39,80.54c3.73-.65,7.56-.75,11.33-.6,3.19,0,6.45-.32,9.59-.85,4.94-.8,9.82-2.24,14.82-2.64,3.76-.29,7.57.69,11.33.24,5.61-.45,10.93-2.74,15.69-5.63,3.87-2.27,7.46-5.13,11.33-7.39,6.89-4.07,15.01-4.31,22.67-2.68,3.17.68,6.48,1.12,9.59,2.03,6.2,1.91,11.23,6.36,15.69,10.92,1.72,1.76,3.54,3.71,5.23,5.5.91.95,1.97,2.43,3.49,2.13,10.16,0,20.35,0,30.51,0,2.11-1.91,4.56-3.57,6.97-5.07,2.28-1.52,4.62-3.19,6.97-4.6"/><path class="b" d="M8.39,73.96c6.59-1.4,13.35-1.64,20.05-2.01,6.96-.37,13.96-.94,20.92-.48,6.19,0,11.97-2.75,17.44-5.39,16.93-8.54,17.72-10.54,37.49-7.97,3.47.54,7.11.72,10.46,1.83,8.38,3.12,14.04,10.59,20.05,16.84,11.61.15,23.25,0,34.87.05,1.02.22,2.01-.67,2.62-1.39.74-.75,1.81-1.75,2.62-2.43,2.7-2.33,5.57-4.66,8.72-6.35"/><path class="b" d="M8.39,68.03c4.05-.67,8.1-1.74,12.2-2.02,4.35-.29,8.76.13,13.08.66,5.48.6,11.03,1.75,16.56,1.41,4.03-.56,7.74-2.54,11.33-4.35,6.89-3.53,14.06-7.19,21.79-8.32,4.65-.39,9.33.42,13.95.83,4.91.54,9.92.57,14.82,1.25,7.35,1.3,13.06,6.69,18.31,11.63,1.08.93,2.16,2.38,3.49,2.97.77,0,1.85,0,2.62,0,3.17,0,6.42,0,9.59,0,8.42,0,16.86,0,25.28,0,1.57-1.27,2.88-3.16,4.36-4.54,2.28-2.27,4.89-4.44,7.85-5.77"/><path class="b" d="M8.39,63.1c4.95-.38,9.83-1.98,14.82-1.66,6.23.29,12.22,2.28,18.31,3.46,5.67,1.13,9.58,1.18,14.82-1.5,4.34-2.09,8.55-4.62,13.08-6.31,4.44-1.59,9.2-2.84,13.95-2.85,4.38.16,8.72,1.19,13.08,1.63,12.95,1.19,18.54-.96,30.51,6.88,2.37,1.39,4.52,3.42,6.97,4.62,5.22,0,10.48,0,15.69,0,6.38,0,12.8,0,19.18,0,.76,0,1.85,0,2.62,0,1.45-.69,2.37-2.52,3.49-3.62,2.41-2.72,5.27-5.35,8.72-6.66"/><path class="b" d="M8.39,58.47c3.48.22,7.01-.21,10.46-.57,2.59-.18,5.27-.04,7.85.27,7.85.86,15.57,3.82,23.54,3.23,3.61-.48,7.06-1.93,10.46-3.15,3.66-1.35,7.47-2.54,11.33-3.18,4.59-.67,9.31-1.45,13.95-.86,3.47.39,6.98.99,10.46,1.31,3.45.34,6.99.4,10.46.52,5.87.31,11.8,1.2,17.44,2.9,2.03.63,4.15,1.44,6.1,2.28,1.37.51,2.83,1.57,4.36,1.41,11.91,0,23.83,0,35.74,0,3.89-3.93,7.34-9.09,13.08-10.39"/><path class="b" d="M8.39,52.63c5.18,1.09,10.47.02,15.69.28,7.01.22,13.94,1.64,20.92,2.13,5.24.44,10.48-.46,15.69-.86,4.92-.42,9.9-.23,14.82-.17,3.18.04,6.41-.45,9.59-.33,6.67.23,13.38.61,20.05.95,4.96.31,9.87,1.45,14.82,1.94,1.7.22,3.54.47,5.23.76,1.39.21,2.94.65,4.36.58,12.49,0,25,0,37.49,0,5.24-3.78,9.16-10.84,16.56-10.16"/><path class="b" d="M8.39,45.66c3.12.69,6.39,1.01,9.59.78,3.17-.12,6.42-.07,9.59.09,5.52.27,11.05.96,16.56,1.26,4.93.19,9.93.04,14.82.83,5.82.78,11.56,2.46,17.44,2.79,3.18.14,6.42-.43,9.59-.61,4.62-.35,9.32-.51,13.95-.22,2.9.18,5.87.55,8.72,1.14,2.3.39,4.63,1.35,6.97,1.43,14.81,0,29.65,0,44.46,0,.76,0,1.85,0,2.62,0,1.6-.64,2.97-2.08,4.36-3.08,5.29-4.02,9.4-8.54,16.56-5.64"/><path class="b" d="M8.39,38.19c4.88.93,9.89.55,14.82.76,5.83.26,11.64,1.12,17.44,1.7,4.33.56,8.76.11,13.08.73,5.61.79,11.03,2.66,16.56,3.78,2.55.51,5.24.86,7.85.79,2.61-.1,5.27-.6,7.85-.97,4.88-.76,9.91-1.15,14.82-.39,2.94.43,5.89,1.21,8.72,2.11,2,.53,4.03,1.58,6.1,1.74,13.07,0,26.16,0,39.23,0,6.27.06,4.39.37,9.59-3.15,3.46-2.26,7.13-4.82,11.33-5.3,2.79-.1,5.48,1.23,7.85,2.58"/><path class="b" d="M8.39,31.32c6.39.2,12.87-.2,19.18,1.1,5.23.92,10.41,2.36,15.69,2.98,3.16.44,6.42.04,9.59.33,8.71.79,17.35,3.2,26.15,2.38,10.88-1.38,16-3.41,27.02.86,2.59.99,5.26,2.04,7.85,3.05,1.69.54,3.42,1.76,5.23,1.69,9.58,0,19.19,0,28.77,0,3.46,0,7,0,10.46,0,5.27-3.09,11.03-6.97,17.44-5.94,2.84.64,5.39,2.33,7.85,3.83"/><path class="b" d="M8.39,26.65c12.65-1.65,17.17.31,28.77,4.18,4.2,1.38,8.65,2.22,13.08,1.69,5.51-.3,11.07-.51,16.56-1.04,5.79-.62,11.64-1.11,17.44-1.73,12.59-1.82,17.8,2.07,28.77,6.45,2.29.91,4.67,1.88,6.97,2.75,1.39.05,2.96.02,4.36.03,9.29,0,18.61,0,27.9,0,1.69-.03,3.54.07,5.23-.07,2.78-1.21,5.72-2.32,8.72-2.84,3.15-.54,6.52-.49,9.59.43,1.78.6,3.59,1.57,5.23,2.47.76.02,1.85.02,2.62.02"/><path class="b" d="M8.39,23.76c8.68-2.43,14.54-1.11,22.67,2.15,4.75,1.8,9.66,3.82,14.82,3.83,5.33-.26,10.56-1.78,15.69-3.16,4.61-1.29,9.23-2.78,13.95-3.64,6.33-.98,13-1.16,19.18.72,5.46,1.6,10.36,4.7,15.69,6.63,3.14,1,6.4,1.88,9.59,2.7,2.56.62,5.19,1.43,7.85,1.24,8.71,0,17.44,0,26.15,0,2.86-.42,5.81-.94,8.72-.86,2.31.03,4.72.36,6.97.86,4.63,0,9.32,0,13.95,0"/><path class="b" d="M8.39,21.61c13.34-5.57,21.99,4.55,34.87,4.53,6.05-.18,11.79-2.85,17.43-4.8,9.35-3.49,19.71-7.83,29.64-4.04,6.97,2.29,12.88,7.26,20.05,8.97,4.02.64,8.16.85,12.2,1.38,4.36.48,8.72,1.35,13.08,1.85,4.05-.02,8.16.04,12.2-.03,1.99-.25,4.1-.5,6.1-.57,2.61-.16,5.27.28,7.85.6,7.25,0,14.54,0,21.79,0"/><path class="b" d="M8.39,19.92c3.56-1.39,7.54-2.13,11.33-1.34,7.48,1.7,14.77,5.79,22.67,4.38,3.33-.46,6.48-1.86,9.59-3.05,4-1.52,8.1-2.97,12.2-4.18,3.99-1.18,8.1-2.18,12.2-2.89,3.95-.82,7.53-.98,11.33.61,7.71,2.82,14.29,9.93,22.67,10.54,3.76-.1,7.56-.82,11.33-.8,3.5-.04,7.05.47,10.46,1.21,1.95.55,4.1.3,6.1.35,5.51-.02,11.07.14,16.56-.29,9.56.55,19.19.2,28.77.29"/><path class="b" d="M8.39,18.28c4.94-1.55,9.98-1.53,14.82.35,1.4.45,2.93,1.05,4.36,1.41.79,0,1.83,0,2.62,0,3.76,0,7.58,0,11.33,0,3.19.33,5.9-1.85,8.72-2.99,3.31-1.47,6.89-2.49,10.46-3.09,4.6-.79,9.31-.94,13.95-1.37,3.47-.22,7.04-1.54,10.46-.34,3.46,1.07,6.57,3.15,9.59,5.1.77.51,1.84,1.2,2.62,1.69.73.46,1.7,1.18,2.62,1,2.88,0,5.84,0,8.72,0,9,0,18.03,0,27.02,0,15.98,0,31.97,0,47.95,0"/></svg>