<?xml version="1.0" encoding="UTF-8"?><svg id="a" xmlns="http://www.w3.org/2000/svg" width="1920" height="2400" viewBox="0 0 192 240"><defs><style>.b{fill:none;stroke:#fff;stroke-miterlimit:10;stroke-width:.4px;}.c{stroke-width:0px;}</style></defs><rect class="c" width="192" height="240"/><path class="b" d="M8.12,230.46c17.78,0,35.57,0,53.34,0,8.44,0,16.92,0,25.36,0,1.99-.25,4.1-.65,6.12-.49,1.11.05,2.4.34,3.5.49,2.59,0,5.28,0,7.87,0,5.52,0,11.09,0,16.61,0,3.77,0,7.6,0,11.37,0,1.7,0,3.55,0,5.25,0,.93.09,1.85-.76,2.62-1.17,4.2-2.42,9.41-2.25,13.99-1.15,1.42.34,2.99.82,4.37,1.29,1.09.32,2.34,1,3.5,1.03,7.28,0,14.59,0,21.86,0"/><path class="b" d="M8.12,225.72c17.78,0,35.57,0,53.34,0,8.44,0,16.92,0,25.36,0,2.01.03,4.11-.44,6.12-.31,3.17.38,6.43.32,9.62.31,4.94,0,9.93,0,14.87,0,5.23,0,10.51,0,15.74,0,1.7,0,3.55,0,5.25,0,1.1-.04,2.44.15,3.5-.23,2.52-.73,5.28-.79,7.87-.49,2.01.22,4.08.88,6.12.72,9.32,0,18.66,0,27.98,0"/><path class="b" d="M8.12,220.97h175.76"/><path class="b" d="M8.12,216.22h175.76"/><path class="b" d="M8.12,211.47h175.76"/><path class="b" d="M8.12,206.72c58.61,0,117.18-.03,175.76,0"/><path class="b" d="M8.12,201.98c24.77,0,49.56,0,74.33,0,11.07,0,22.16,0,33.23,0,1.4,0,2.97,0,4.37,0,2.51-1.06,5.09-2.35,7.87-2.44,2.38-.14,4.84.46,7,1.43.43.2,1.33.63,1.75.86,1.07.24,2.4.12,3.5.15,14.57,0,29.15,0,43.72,0"/><path class="b" d="M8.12,197.23c24.19,0,48.39,0,72.58,0,11.36,0,22.74,0,34.1,0,1.54.12,2.97-1.07,4.37-1.57,2.47-1.1,5.16-2.01,7.87-2.19,2.98-.22,6.01.51,8.74,1.66,1.11.47,2.42,1.09,3.5,1.63,0,0,.87.44.87.44l.87.03c14.28,0,28.57,0,42.85,0"/><path class="b" d="M8.12,192.48c22.73,0,45.47,0,68.21,0,7.57,0,15.17,0,22.74,0,3.47,0,7.02,0,10.49,0,2.62-.66,5.27-1.57,7.87-2.3,5.08-1.51,10.51-2.08,15.74-1.11,3.53.61,7.02,1.71,10.49,2.55.78.22,1.85.6,2.62.86.41,0,1.33,0,1.75,0,11.94,0,23.91,0,35.85,0"/><path class="b" d="M8.12,187.73c20.11,0,40.23,0,60.34,0,6.98,0,14,0,20.99,0,4.36-.12,8.82.37,13.12-.49,2.29-.33,4.71-.57,7-.94,2.87-.56,5.82-1.12,8.74-1.26,7.56-.42,15.17-.11,22.74-.44,3.21-.22,6.52.02,9.62.92,2.36.52,4.64,1.77,7,2.22,8.74,0,17.5,0,26.23,0"/><path class="b" d="M8.12,182.98c18.94,0,37.9,0,56.84,0,6.4,0,12.84,0,19.24,0,2.89,0,5.86,0,8.74,0,1.45-.21,2.92-1.01,4.37-1.26,5.17-1.18,10.53.07,15.74-.79,5.24-.2,10.49,1.06,15.74.54,3.25-.26,6.51-1.06,9.62-2.04,3.41-1.07,6.89-2.34,10.49-2.45,4.54-.22,9.01,1.23,13.12,3.03,1.7.74,3.53,1.58,5.25,2.28.4.18,1.34.52,1.75.67.4.01,1.34.02,1.75.02,4.35,0,8.76,0,13.12,0"/><path class="b" d="M8.12,178.24c26.23,0,52.47,0,78.7,0,1.4,0,2.97,0,4.37,0,1.2-.04,2.36-.98,3.5-1.31,1.35-.49,2.94-.82,4.37-.91,3.21-.23,6.44.6,9.62.89,2,.2,4.12-.25,6.12,0,8.07,1.09,13.18,2.26,20.99-1.48,3.76-1.72,7.36-4.03,11.37-5.17,5.64-1.8,11.58.03,16.61,2.74,3.08,1.52,6.18,3.4,9.62,3.95,3.46.22,7.02.07,10.49.09"/><path class="b" d="M8.12,173.49c25.65,0,51.3,0,76.95,0,1.7,0,3.54,0,5.25,0,2.49-1.05,5.09-2.24,7.87-2.18,5.02-.07,9.81,2.37,14.87,1.61,8.17.3,13.09,1.63,20.99-2.3,4.1-1.93,7.88-4.73,12.24-6.09,6.04-2.06,12.3.47,17.49,3.57,3.04,1.68,6.13,3.69,9.62,4.27,3.46.21,7.02.03,10.49.08"/><path class="b" d="M8.12,168.74c25.06,0,50.14,0,75.2,0,1.7-.03,3.55.07,5.25-.07,2.12-1.12,4.59-1.81,7-1.77,2.69.04,5.36.9,7.87,1.8,2.59.08,5.28.01,7.87.03,4.06,0,8.18,0,12.24,0,7.54-1.56,13.61-7.04,20.99-9.03,5.39-1.34,10.92.52,15.74,2.89,3.96,1.85,7.87,4.24,12.24,4.95,3.75.29,7.6-.24,11.37-.19"/><path class="b" d="M8.12,163.99c25.65,0,51.3,0,76.95,0,1.52.15,2.93-.99,4.37-1.32,3.15-.96,6.59-.49,9.62.68,1.59.87,3.5.62,5.25.64,2.89,0,5.86,0,8.74,0,3.18,0,6.44,0,9.62,0,6.63-3.06,12.71-7.98,20.11-8.97,8.06-.53,15.11,4.48,22.74,6.27,2.53.65,5.25,1.03,7.87.91,3.47-.29,7.01-.7,10.49-.79"/><path class="b" d="M8.12,159.25c17.19,0,34.4,0,51.59,0,5.82,0,11.67,0,17.49,0,2.89-.03,5.86.06,8.74-.04,1.05-.54,2.35-1.06,3.5-1.35,2.26-.58,4.74-.52,7,.04,1.44.3,2.93,1.05,4.37,1.35,5.52,0,11.09,0,16.61,0,.77,0,1.85,0,2.62,0,1.82-.82,3.54-2.17,5.25-3.2,4.94-3.15,10.52-6.51,16.61-5.8,5.28.76,9.83,4,14.87,5.58,3.62,1.25,7.57,1.67,11.37,1.2,5.23-.71,10.44-2,15.74-2.09"/><path class="b" d="M8.12,154.5c22.44,0,44.89,0,67.33,0,3.77,0,7.6,0,11.37,0,1.47-.11,2.91-1.11,4.37-1.35,3.15-.8,6.52-.44,9.62.43,1.1.27,2.37.78,3.5.93.78,0,1.85,0,2.62,0,2.89,0,5.86,0,8.74,0,1.56-.37,3.01-1.53,4.37-2.35,2.56-1.68,5.16-3.52,7.87-4.94,4.5-2.54,10.1-3.27,14.87-1.02,4.75,2.14,8.86,5.78,13.99,7.08,5.39,1.55,10.75-.84,15.74-2.68,3.64-1.16,7.55-1.68,11.37-1.78"/><path class="b" d="M8.12,149.75c18.07,0,36.15,0,54.22,0,8.44,0,16.92,0,25.36,0,1.24.18,2.44-.66,3.5-1.16,1.62-.76,3.48-1.36,5.25-1.66,4.07-.72,8.2.21,12.24.62,6.94.97,12.26-4.67,18.36-6.93,6.52-2.83,12.87-.75,18.36,3.23,3.05,2.12,6.09,4.54,9.62,5.83,2.88.16,5.86.02,8.74.07,3.38-.74,6.36-2.9,9.62-4.02,3.36-1.06,6.98-1.53,10.49-1.51"/><path class="b" d="M8.12,145c26.23,0,52.47,0,78.7,0,.44,0,1.31,0,1.75,0,1.15-.59,2.37-1.53,3.5-2.16,2.15-1.25,4.57-2.28,7-2.84,5.74-1.46,11.95.39,17.49-2.02,8.19-3.38,14.24-5.86,22.74-1.34,2.73,1.4,5.37,3.16,7.87,4.93,1.93,1.19,3.87,2.95,6.12,3.42,2.59,0,5.28,0,7.87,0,2-.08,4.15.18,6.12-.15,1.7-.7,3.51-1.53,5.25-2.14,3.64-1.13,7.58-1.36,11.37-1.3"/><path class="b" d="M8.12,140.25c25.65,0,51.3,0,76.95,0,.78,0,1.85.04,2.62-.13.44-.3,1.31-.9,1.75-1.19,1.65-1.09,3.48-2.18,5.25-3.06,4.33-2.22,9.18-3.24,13.99-3.71,9.44-.76,15.52-6.05,25.36-1.75,4.01,1.72,7.64,4.33,11.37,6.56,1.36.84,2.93,1.74,4.37,2.44.73.35,1.77.91,2.62.83,4.94-.04,9.93.08,14.87-.05,1.97-.56,4.08-1.19,6.12-1.42,3.47-.2,7.02-.03,10.49.12"/><path class="b" d="M8.12,135.51c24.48,0,48.97,0,73.45,0,1.1-.01,2.41.05,3.5-.07,2.27-1.23,4.66-2.49,7-3.59,5-2.4,10.33-4.17,15.74-5.39,8.82-1.67,15.55-5.84,24.48-1.61,3.71,1.67,7.04,4.18,10.49,6.29,7.32,4.63,14.39,4.93,22.74,3.72,3.47-.44,7.08-.61,10.49.3,2.54.61,5.28.26,7.87.35"/><path class="b" d="M8.12,130.76c23.02,0,46.06,0,69.08,0,.78,0,1.85.03,2.62-.09.78-.3,1.84-.69,2.62-.96,1.99-.7,4.11-1.38,6.12-2.01,6.72-2.05,13.44-4.21,20.11-6.41,7.79-2.34,14.57-6.22,22.74-2.56,13.56,6.62,11.31,10.19,28.86,9.51,5.04-.12,10.25.33,14.87,2.51,2.89.02,5.86,0,8.74,0"/><path class="b" d="M8.12,126.01c6.4,0,12.84,0,19.24,0,2.27-.49,4.66-.95,7-.9,2.35-.08,4.69.69,7,.9,6.4,0,12.84,0,19.24,0,4.64-.09,9.36.18,13.99-.11,5.49-2.59,11.6-3.13,17.49-4.22,6.97-1.23,13.55-4.01,20.11-6.55,5.48-2.33,11.41-5.2,17.49-3.52,3.79.95,7.2,3.09,10.49,5.12,2.88,1.91,6.12,3.46,9.62,3.67,5.23.43,10.62-.14,15.74,1.28,2.4.62,4.81,1.62,7,2.78,1.1.47,2.24,1.64,3.5,1.55,2.59,0,5.28,0,7.87,0"/><path class="b" d="M8.12,120.8c2,.09,4.12.02,6.12,0,1.71-.02,3.56.14,5.25-.18,3.23-.58,6.39-1.78,9.62-2.36,3.16-.61,6.49-.55,9.62.16,3.24.69,6.38,2,9.62,2.7,3.15.39,6.45.05,9.62.16,3.48,0,7.02,0,10.49,0,2.02-.08,4.22.3,6.12-.51,7.06-2.59,14.77-2.58,21.86-5.07,5.99-2.03,11.64-5.01,17.49-7.37,3.09-1.43,6.25-3.03,9.62-3.71,8.9-1.85,14.48,4.03,21.86,7.24,5.63,1.89,11.81,1.06,17.49,2.77,4.75,1.26,9.02,3.88,13.12,6.5,2.56.35,5.28.06,7.87.15"/><path class="b" d="M8.12,113.69c2,.11,4.12.09,6.12.13,1.71.03,3.55.25,5.25-.03,3.83-.6,7.53-2.08,11.37-2.65,3.77-.63,7.68-.25,11.37.7,2.88.78,5.85,1.51,8.74,2.25,2.58.72,5.24,1.51,7.87,2.01,1.98.45,4.1.45,6.12.42,1.71-.01,3.56.09,5.25-.23,2.91-.44,5.85-1.2,8.74-1.72,4.73-.7,9.51-1.53,13.99-3.25,5.15-1.89,9.92-4.75,14.87-7.1,2.82-1.31,5.89-2.25,8.74-3.48,10.89-4.67,16.85-1.41,26.23,4.32,3.92,2.36,8.67,2.48,13.12,2.71,5.44.19,10.91,1.36,15.74,3.93,2.92,1.51,5.74,3.41,8.74,4.76,1.08.12,2.41.06,3.5.07"/><path class="b" d="M8.12,106.75c3.19.39,6.44.87,9.62,1.31,5.41.23,10.46-2.34,15.74-3.15,4.04-.73,8.25-.5,12.24.38,11.6,2.74,16.27,5.32,28.86,3.61,2.88-.4,5.87-.42,8.74-.79,2.98-.42,5.97-1.3,8.74-2.44,5.44-2.21,10.37-5.57,15.74-7.94,3.06-1.29,6.43-1.95,9.62-2.86,9.69-2.68,16.41.74,24.48,5.73,3.33,2.22,7.42,2.96,11.37,2.81,6.74-.3,13.82-.92,20.11,2.05,3.53,1.62,6.91,3.73,10.49,5.25"/><path class="b" d="M8.12,100.23c2.92.71,5.88,1.57,8.74,2.45,5.96,1.55,11.8-1.46,17.49-2.87,3.95-1.08,8.19-1.59,12.24-.79,5.45,1.34,10.96,2.89,16.61,2.98,6.12.2,12.25-.86,18.36-.34,10.03.13,18-6.9,27.11-9.97,1.66-.53,3.53-.73,5.25-1,2.87-.44,5.84-.84,8.74-.75,8.13.03,14.98,4.65,21.86,8.37,3.26,1.47,6.98,1.64,10.49,1.3,6.36-.64,13.03-2.27,19.24.05,3.33,1.25,6.43,3.2,9.62,4.77"/><path class="b" d="M8.12,94.26c3.27,1.02,6.42,2.58,9.62,3.78,5.28,1.67,10.73-.41,15.74-2.08,4.18-1.4,8.67-2.8,13.12-2.03,10.23,3.03,16.09,1.56,26.23.47,1.7-.13,3.55-.17,5.25,0,1.41.15,2.95.52,4.37.59,2.63.15,5.35-.26,7.87-.99,5.74-1.63,10.92-4.85,16.61-6.62,2.8-.93,5.84-.87,8.74-1.08,4.66-.32,9.44-.27,13.99.89,5.31,1.25,10.12,4,14.87,6.59,4.04,1.96,8.7,2.26,13.12,1.83,4.92-.43,9.92-1.52,14.87-.74,4.12.63,7.72,3.01,11.37,4.88"/><path class="b" d="M8.12,88.81c3.31,1.08,6.43,2.82,9.62,4.17,6.06,2.35,12.48-.04,18.36-1.79,3.64-1.07,7.61-1.95,11.37-.98,8.57,3.15,16.85-.6,25.36-1.77,2.93-.43,5.91.07,8.74.83,2.57.47,5.31.37,7.87-.13,6.06-1.16,11.54-4.3,17.49-5.81,3.12-.84,6.44-.5,9.62-.82,4.93-.38,9.96-.8,14.87.05,3,.5,6,1.47,8.74,2.76,2.88,1.41,5.68,3.21,8.74,4.23,3.63,1.3,7.53,1.89,11.37,2.07,10.98.42,13.5-.53,23.61,5.11"/><path class="b" d="M8.12,83.72c3.31.76,6.46,2.23,9.62,3.44,7.46,2.66,15.2-.27,22.74-.93,2.01-.15,4.15-.08,6.12.37,2.27.65,4.61,1.44,7,1.49,7.17.42,13.89-3,20.99-3.27,3-.24,5.83,1.11,8.74,1.51,8.7,1.16,16.34-4.18,24.48-6.19,3.15-.69,6.5-.45,9.62-1.35,7.09-1.77,14.67-4.34,21.86-1.64,3.4,1.23,6.43,3.43,9.62,5.09,4.42,2.44,9.12,4.53,13.99,5.9,4,1.16,8.18,1.84,12.24,2.76,1.77.39,3.5,1.4,5.25,1.87,1.09,0,2.41,0,3.5,0"/><path class="b" d="M8.12,79.19c4.47.21,8.7,2.02,13.12,2.53,4.92.59,9.93.14,14.87.09,3.2-.03,6.5.15,9.62.89,3.13.91,6.31,2,9.62,1.88,7.33.08,14.51-3.22,21.86-1.97,2.06.37,4.07,1.36,6.12,1.75,7.26,1.67,14.36-1.37,20.99-4.01,1.95-.74,4.06-1.46,6.12-1.82,2.43-.22,4.85-1.02,7-2.16,6.96-3.58,14.49-9.86,22.74-6.68,4.93,2.07,8.84,6.01,13.12,9.11,10.08,7.85,18.02,9.66,30.61,9.22"/><path class="b" d="M8.12,75.64c5.53-.44,11.08.66,16.61.38,4.94-.08,9.96-.13,14.87.63,3.88.48,7.6,1.9,11.37,2.83,4.31.89,8.78.51,13.12.08,16.4-1.97,14.28,2.98,26.23,3.61,6.88.12,12.92-3.65,19.24-5.83,7.14-1.37,11.7-7.61,17.49-11.47,4.91-3.55,10.55-4.63,15.74-.91,8.04,5.81,13.56,15.61,23.61,18.31,5.82,0,11.67,0,17.49,0"/><path class="b" d="M8.12,73.04c3.75-.6,7.61-.79,11.37-1.34,5.48-.88,11.04-1.97,16.61-1.53,2.93.21,5.91.79,8.74,1.57,2.58.72,5.2,1.69,7.87,2.04,6.65.98,13.47-.12,20.11.92,2.38.37,4.81,1.07,7,2.08,1.39.59,2.88,1.47,4.37,1.75.78,0,1.84,0,2.62,0,2.89,0,5.86,0,8.74,0,1.7-.08,3.59.21,5.25-.2,2.66-1.13,5.26-2.61,7.87-3.85,1.37-.69,3.03-1.16,4.37-1.89,3.29-1.95,5.97-4.91,8.74-7.5,4.95-4.83,11.37-9.8,18.36-5.71,7.16,4.18,11.07,12.1,17.49,17.19,1.02.71,2.18,1.96,3.5,1.97,2.3,0,4.7,0,7,0,5.23,0,10.51,0,15.74,0"/><path class="b" d="M8.12,70.87c3.52-.48,7.11-1.11,10.49-2.23,5.43-1.86,10.81-4.37,16.61-4.76,3.21-.25,6.5.14,9.62.92,2.59.65,5.21,1.58,7.87,1.93,6.66.99,13.53.41,20.11,1.98,2.71.62,5.41,1.66,7.87,2.97,1.63.68,3.46,2.11,5.25,2.1,3.18,0,6.44,0,9.62,0,1.4-.02,2.98.06,4.37-.07,2.72-1.23,5.32-2.92,7.87-4.46,1.93-1.25,4.26-2.07,6.12-3.44,3.09-2.3,5.78-5.24,8.74-7.69,7.8-6.73,13.83-5.3,20.99,1.41,4.4,4.35,7.69,9.82,12.24,14.03,1.65.44,3.55.12,5.25.21,3.18,0,6.44,0,9.62,0,2.59-.01,5.28.03,7.87-.02,1.67-.54,3.51-1.01,5.25-1.24"/><path class="b" d="M8.12,68.07c10.26-.24,16.83-7.53,26.23-10.07,3.69-1,7.66-.97,11.37-.1,2.58.65,5.21,1.47,7.87,1.72,6.99.79,14.23.25,20.99,2.49,6.43,2.01,12.1,7.4,19.24,6.35,4.95-.66,9.11-3.81,13.12-6.56,1.89-1.39,4.1-2.52,6.12-3.71,2.43-1.61,4.68-3.66,7-5.43,5.25-4.19,10.68-5.89,16.61-1.78,2.84,1.94,5.49,4.37,7.87,6.84,3.07,3.45,5.7,7.43,8.74,10.91.75.38,1.82.3,2.62.3,1.1,0,2.4,0,3.5,0,3.47,0,7.02,0,10.49,0,3.18,0,6.44,0,9.62,0,1.49-.3,2.93-1.28,4.37-1.76"/><path class="b" d="M8.12,63.43c3.95.2,7.95-.73,11.37-2.72,6.02-3.33,11.54-7.99,18.36-9.62,2.55-.61,5.29-.7,7.87-.25,2.31.44,4.65,1.25,7,1.5,5.5.72,11.12.29,16.61,1.01,2.98.38,6,1.14,8.74,2.37,4.67,2.28,9.44,5.37,14.87,4.87,5.31-.44,9.75-3.8,13.99-6.73,1.9-1.38,4.08-2.56,6.12-3.69,1.74-1.07,3.54-2.36,5.25-3.47,7.54-5.17,13.25-4.48,20.11,1.41,2.36,2.06,4.92,4.15,7,6.51,2.76,3.04,4.91,6.83,7.87,9.68,6.4,0,12.84,0,19.24,0,2.3,0,4.7,0,7,0,1.42-.12,3.21.4,4.37-.6"/><path class="b" d="M8.12,57.33c6.17,1.2,10.63-.52,15.74-3.82,7.87-4.92,16.34-12.4,26.23-8.9,7.75,1.77,15.83.96,23.61,2.48,6.13,1.04,11.29,5.21,17.49,5.99,5.69.83,11.06-1.95,15.74-4.87,2.52-1.6,5.27-3.02,7.87-4.48,3.96-2.24,8.45-4.35,13.12-3.62,4.62.68,8.55,3.56,12.24,6.23,1.71,1.28,3.71,2.49,5.25,3.99,2.81,2.74,5.28,5.98,7.87,8.93,1.33.53,2.97.2,4.37.28,2.3,0,4.7,0,7,0,6.4,0,12.84,0,19.24,0"/><path class="b" d="M8.12,50.8c3.39.9,7.05,1.62,10.49.59,9.06-2.46,15.5-10.38,24.48-12.96,3.82-1.08,7.61.75,11.37,1.3,7.77,1.66,15.85,1.19,23.61,2.84,7.32,1.91,13.94,6.45,21.86,4.66,8.05-1.57,14.36-8.23,22.74-8.65,6.27-.46,12.01,2.66,17.49,5.29,2.39,1.07,5,2,7,3.77,2.81,2.1,5.05,5.14,7.87,7.16h28.86"/><path class="b" d="M8.12,44.71c2.57.74,5.19,1.73,7.87,2,8.31.74,15.19-4.77,21.86-8.89,6.7-4.02,8.53-3.69,15.74-1.63,6.82,1.96,13.92,2.59,20.99,2.62,2.31.08,4.74.2,7,.74,2.66.65,5.29,1.71,7.87,2.59,4.44,1.58,9.32,2.53,13.99,1.44,8.16-1.91,10.39-6.68,20.11-5.58,6.56.69,12.68,3.67,19.24,4.4,5.56.43,9.51,4.93,13.99,7.65,9.03,0,18.08,0,27.11,0"/><path class="b" d="M8.12,39.81c2.34.66,4.67,1.66,7,2.36,6.85,2.08,13.28.25,19.24-3.34,3.86-2.09,7.7-5.07,12.24-5.27,4.77.47,9.27,2.66,13.99,3.47,5.46,1.2,11.1.77,16.61.33,3.55-.37,7.12.3,10.49,1.38,6.48,2.12,13.53,3.92,20.11,1.17,2.37-.85,4.52-2.51,7-3.08,6.54-1.45,12.9,1.76,19.24,2.92,2.27.45,4.68.73,7,.64,2.3-.19,4.73-.49,7,.15,2.44.59,4.82,1.73,7,2.97,1.09.55,2.26,1.58,3.5,1.78,5.23,0,10.51,0,15.74,0,2.88-.08,5.88.18,8.74-.13l.87-.71"/><path class="b" d="M8.12,36.71c3.82,1.11,7.42,3.09,11.37,3.81,2,.07,4.12.02,6.12.03,4.38.38,8.38-1.89,12.24-3.66,3.49-1.65,7.47-3.52,11.37-2.23,7.46,2.17,13.98,4.15,21.86,2.83,4.05-.53,8.12-1.74,12.24-1.44,6.39.53,12.82,2.46,19.24,1.12,8.61-1.47,9.82-6.73,19.24-3.66,6.28,2.06,12.41,5.69,19.24,5.14,2.29-.26,4.67-.8,7-.52,3.01.25,5.96,1.31,8.74,2.42,4.06,0,8.18,0,12.24,0,2.89,0,5.86,0,8.74,0,1.09,0,2.41,0,3.5,0,.85-.34,1.87-1.09,2.62-1.59"/><path class="b" d="M8.12,34.32c1.74.36,3.51,1.11,5.25,1.48,4.06,0,8.18,0,12.24,0,8.45,0,16.92-.02,25.36,0,7.86,0,15.75,0,23.61,0,1.14.06,2.39-.54,3.5-.77,1.68-.42,3.53-.67,5.25-.84,4.07-.38,8.22-.56,12.24-1.32,3.89-.71,7.74-1.97,11.37-3.54,2.03-.8,4.03-2.01,6.12-2.64,4.76-1.05,9.19,1.94,13.12,4.23,3.08,1.74,6.14,4.05,9.62,4.87,6.4,0,12.84,0,19.24,0,5.82,0,11.67,0,17.49,0,2.59,0,5.28,0,7.87,0,1.24.03,2.39-1.01,3.5-1.47"/><path class="b" d="M8.12,31.05c21.27,0,42.56,0,63.83,0,4.35,0,8.76,0,13.12,0,2.64-.73,5.32-1.66,7.87-2.65,5.03-1.94,9.91-4.38,14.87-6.49,5.82-2.73,8.57-2.32,13.99,1.12,3.88,2.5,7.4,5.66,11.37,8.02,10.78,0,21.58,0,32.35,0,3.47,0,7.02,0,10.49,0,1.7,0,3.54,0,5.25,0,.79-.23,1.85-.67,2.62-.95"/><path class="b" d="M8.12,26.31c18.36,0,36.73,0,55.09,0,7.86-.07,15.76.13,23.61-.08,5.63-2.75,10.94-6.23,16.61-8.91,7.54-3.4,11.11-4.51,18.36.39,2.67,1.76,5.28,3.82,7.87,5.69,1.37.98,2.9,2.09,4.37,2.9.42,0,1.33,0,1.75,0,4.94,0,9.93,0,14.87,0,6.98,0,14,0,20.99,0,2.3,0,4.7,0,7,0,1.7.04,3.54.09,5.25-.66"/><path class="b" d="M8.12,21.56c4.65,0,9.34,0,13.99,0,.84-.04,1.83-.53,2.62-.78,1.37-.43,2.94-.71,4.37-.69,1.45.02,3.02.36,4.37.87,1.05.57,2.34.66,3.5.59,8.15,0,16.33,0,24.48,0,5.52,0,11.09,0,16.61,0,1.7,0,3.54,0,5.25,0,1.13-.07,2.55.28,3.5-.49,4.66-2.74,9.14-5.89,13.99-8.29,7.24-3.48,12.76-4.68,20.11-.67,4.16,2.13,8.12,4.75,12.24,6.94,1.08.58,2.39,1.24,3.5,1.76.73.36,1.78.88,2.62.74,3.77,0,7.6,0,11.37,0,6.98,0,14,0,20.99,0,2.3,0,4.7,0,7,0,.76,0,1.86,0,2.62,0,.78-.22,1.86-.65,2.62-.93"/></svg>