<?xml version="1.0" encoding="UTF-8"?><svg id="a" xmlns="http://www.w3.org/2000/svg" width="1920" height="2400" viewBox="0 0 192 240"><defs><style>.b{fill:none;stroke:#fff;stroke-miterlimit:10;stroke-width:.4px;}.c{stroke-width:0px;}</style></defs><rect class="c" width="192" height="240"/><path class="b" d="M8.43,228.66c3.6-1.39,7.51-1.58,11.33-1.6,5.01-.24,10.18.18,14.81,2.23.46.19,1.3.59,1.74.8,1.1.1,2.39.05,3.49.06,2.29,0,4.68,0,6.97,0,12.48,0,24.98,0,37.47,0,1.07.2,2.03-.53,2.61-1.36,1.07-1.2,2.36-2.62,3.49-3.77,5.78-6.03,11.73-9.37,20.04-5.99,7.58,2.88,14.12,8.03,21.78,10.75,1.59.68,3.54.24,5.23.36,3.17,0,6.42,0,9.58,0,8.7,0,17.44,0,26.14,0,3.26-2.52,6.66-5.04,10.46-6.68"/><path class="b" d="M8.43,222.24c3.37-1.02,6.96-1.17,10.46-1.11,5.34-.09,10.81.61,15.68,2.9,1.39.62,2.75,1.63,4.36,1.38,2.58,0,5.26,0,7.84,0,13.64,0,27.31,0,40.95,0,15.39-18.95,21.52-12.13,40.08-3.18,2.53,1.16,5.21,2.22,7.84,3.12,4.92.16,9.89.01,14.81.06,4.92,0,9.89,0,14.81,0,2.57-.12,5.31.26,7.84-.19,3.14-2.49,6.63-4.75,10.46-6.02"/><path class="b" d="M8.43,216.07c3.44-.53,7-.24,10.46-.08,5.64.24,11.33,1.17,16.56,3.36,1.11.4,2.31,1.17,3.49,1.33,2.88,0,5.84,0,8.71,0,13.35,0,26.73,0,40.08,0,1.07.2,2.04-.52,2.61-1.35,1.05-1.17,2.35-2.53,3.49-3.62,6.28-6.12,12.41-8.23,20.91-5.39,6.77,2.16,13.28,5.18,20.04,7.37,1.99.67,4.11,1.36,6.1,2.02,1.09.31,2.34.96,3.49.97,8.99,0,18.02,0,27.01,0,3.83-2.52,7.7-5.25,12.2-6.41"/><path class="b" d="M8.43,211.1c2.91-.03,5.84.6,8.71.91,4.06.43,8.18.9,12.2,1.61,2.31.41,4.71.93,6.97,1.55,1.39.4,2.89.95,4.36.79,15.97,0,31.95,0,47.92,0,6.92-6.81,13.95-13.12,24.4-11.94,8.16.8,15.84,4.06,23.53,6.72,2.86,1.05,5.86,1.98,8.71,3.07,2,.65,3.99,1.96,6.1,2.15,4.05,0,8.15,0,12.2,0,1.39,0,2.96,0,4.36,0,1.15.08,2.49-.03,3.49-.67,3.96-2.06,7.84-4.5,12.2-5.65"/><path class="b" d="M8.43,207.63c2.34.24,4.69.94,6.97,1.45,1.98.41,4.1.68,6.1.97,7.79,1.11,15.67,1.29,23.53,1.17,13.35,0,26.73,0,40.08,0,1.56-.89,2.92-2.42,4.36-3.5,2.45-1.99,5.1-3.92,7.84-5.48,7.28-4.15,16.18-6.2,24.4-3.89,5.44,1.41,10.53,3.98,15.68,6.17,2.8,1.25,5.83,2.15,8.71,3.2,3.15,1.17,6.34,2.46,9.58,3.34,1.67.33,3.53.09,5.23.16,3.17,0,6.41,0,9.58,0,4.48-1.41,8.58-3.96,13.07-5.39"/><path class="b" d="M8.43,205.3c1.74.21,3.5.94,5.23,1.19,2.88,0,5.84,0,8.71,0,6.67,0,13.37,0,20.04,0,6.67,0,13.37,0,20.04,0,4.05,0,8.15,0,12.2,0,6.1.09,4.16.28,8.71-3.38,8.43-6.98,19.01-10.66,29.62-12.75,8.08-1.07,15.15,4.02,21.78,7.88,1.93,1.14,4.02,2.3,6.1,3.15,1.95.78,4.12,1.32,6.1,2.05,2.87,1,5.81,2.09,8.71,2.98,3.46.15,7,.02,10.46.06,3.17-.07,6.43.16,9.58-.11,2.6-1.06,5.24-2.29,7.84-3.34"/><path class="b" d="M8.43,201.76c22.07-.1,44.17.19,66.22-.1,2.64-2.16,5.13-4.67,7.84-6.74,5.83-4.54,12.9-7.12,20.04-8.76,2.58-.62,5.27-1.21,7.84-1.87,2.81-.92,5.93-.87,8.71.16,9.98,3.71,16.34,13.9,27.01,16.2,1.09.35,2.38.83,3.49,1.12,1.4,0,2.96,0,4.36,0,3.46,0,6.99,0,10.46,0,4.05,0,8.15,0,12.2,0,1.39,0,2.96,0,4.36,0,.83.13,1.86-.37,2.61-.67"/><path class="b" d="M8.43,197.03c21.2,0,42.41.01,63.61,0,3.83-2.75,7.34-6.06,11.33-8.6,5.87-3.81,12.49-6.36,19.17-8.33,3.44-.95,6.93-2.07,10.46-2.65,5.02-.44,9.45,2.72,13.07,5.84,5.03,4.29,9.2,9.72,14.81,13.28.95.74,2.37.4,3.49.47,1.4,0,2.96,0,4.36,0,11.61,0,23.24,0,34.85,0"/><path class="b" d="M8.43,192.3c16.26,0,32.53,0,48.79,0,4.63,0,9.31,0,13.94,0,2.67-1.44,5.23-3.27,7.84-4.81,2.81-1.66,5.79-3.2,8.71-4.65,4.3-2.12,8.67-4.22,13.07-6.12,3.91-1.63,7.97-3.31,12.2-3.82,11.17-.65,18.58,12.47,26.14,19.01.68.49,1.81.41,2.61.4,1.09,0,2.4,0,3.49,0,3.17,0,6.42,0,9.58,0,9.58,0,19.18,0,28.75,0"/><path class="b" d="M8.43,187.57c11.03,0,22.08,0,33.11,0,6.96,0,13.95,0,20.91,0,2.29,0,4.68,0,6.97,0,.78,0,1.84,0,2.61,0,.8-.22,1.85-.67,2.61-.99,4.86-2.07,9.99-3.59,14.81-5.76,5.04-2.19,9.84-4.99,14.81-7.31,17.04-7.89,24.07,2.66,34.85,13.85,1.94.46,4.11.11,6.1.21,3.17,0,6.41,0,9.58,0,9.58,0,19.18,0,28.75,0"/><path class="b" d="M8.43,182.84c20.33,0,40.67,0,60.99,0,2.58,0,5.26,0,7.84,0,5.02-.59,10.09-1.52,14.81-3.35,5.37-1.99,10.29-5.16,15.68-7.09,1.92-.71,4.09-.89,6.1-1.22,2.55-.44,5.25-.87,7.84-.58,5.15.53,9.45,3.92,13.07,7.39,1.75,1.51,3.26,3.64,5.23,4.86h43.57"/><path class="b" d="M8.43,178.11c23.23,0,46.47,0,69.71,0,5.5,0,11.05,0,16.56,0,2.66-.64,5.29-1.71,7.84-2.67,2.25-.86,4.61-1.76,6.97-2.25,2.33-.33,4.75-.69,6.97-1.51,10.07-3.8,15.29-.75,22.65,6.25,1.95.41,4.11.1,6.1.19,3.17,0,6.41,0,9.58,0,9.58,0,19.18,0,28.75,0"/><path class="b" d="M8.43,173.37c22.94,0,45.89,0,68.83,0,7.25,0,14.53,0,21.78,0,2.58,0,5.26,0,7.84,0,1.68-.33,3.52-.58,5.23-.73,2.7-.43,5.27-1.65,7.84-2.52,3.61-1.33,7.72-1.71,11.33-.17,2.19.76,4.03,2.46,6.1,3.42,4.92,0,9.89,0,14.81,0,10.45,0,20.92,0,31.37,0"/><path class="b" d="M8.43,168.64c13.35,0,26.73,0,40.08,0,4.63,0,9.31,0,13.94,0,1.99,0,4.1,0,6.1,0,1.12-.13,2.39-.58,3.49-.81,5.97-1.66,11.51-.63,17.43.61,1.37.32,2.96.17,4.36.21,2.29,0,4.68,0,6.97,0,5.21,0,10.47,0,15.68,0,1.44-.06,2.95-.73,4.36-1.02,2.24-.56,4.66-.9,6.97-.71,1.43.12,3,.47,4.36.94.77.27,1.77.82,2.61.79,4.92,0,9.89,0,14.81,0,11.32,0,22.66,0,33.98,0"/><path class="b" d="M8.43,163.91c13.06,0,26.15,0,39.21,0,6.09,0,12.21,0,18.3,0,2.66-.65,5.18-2.11,7.84-2.81,4.52-1.56,9.36-.73,13.94.07,4.92.89,9.86,2,14.81,2.72,8.41.05,16.86,0,25.27.02,18.58,0,37.18,0,55.76,0"/><path class="b" d="M8.43,159.18c13.35,0,26.73,0,40.08,0,6.38,0,12.79,0,19.17,0,2.6-.95,5.15-2.32,7.84-3.05,2.52-.81,5.24-.6,7.84-.51,3.47.11,7.01.3,10.46.68,5.85.61,11.63,1.9,17.43,2.82,6.66.13,13.37,0,20.04.05,17.42,0,34.86,0,52.28,0"/><path class="b" d="M8.43,154.45c6.96,0,13.95,0,20.91,0,.89.07,1.82-.6,2.61-.89,1.34-.53,2.91-.85,4.36-.84,1.43,0,3,.33,4.36.77,1.1.31,2.31,1.1,3.49.96,8.41,0,16.85,0,25.27,0,1.09,0,2.39.02,3.49-.03,1.65-.61,3.48-1.19,5.23-1.42,7.56-.03,15.08-1.92,22.65-1.25,4.99.41,9.93,1.57,14.81,2.65,5.79.14,11.63,0,17.43.05,16.84,0,33.7,0,50.54,0"/><path class="b" d="M8.43,149.72h16.55c5.08-4.16,9.64-5.65,15.68-2.35,1.44.68,2.85,1.81,4.36,2.35,1.1,0,2.39,0,3.49,0,11.03,0,22.08,0,33.11,0,1.99-.01,4.11.03,6.1-.03,4-.99,8.07-2.06,12.2-2.28,3.78-.23,7.63.27,11.33,1.03,2.58.47,5.18,1.48,7.84,1.27,21.49,0,42.99,0,64.48,0"/><path class="b" d="M8.43,144.99h13.07c6.36-5.43,11.4-8.02,19.17-3.28,1.72,1,3.5,2.2,5.23,3.19,3.45.22,7,.03,10.46.09,7.25,0,14.53,0,21.78,0,5.5,0,11.05,0,16.56,0,4.57-.88,9.29-1.35,13.94-.88,2.3.19,4.68.53,6.97.83,1.99.13,4.11.03,6.1.06,5.22,0,10.48.09,15.68-.31,1.71-.1,3.53.24,5.23.31,3.75,0,7.57,0,11.33,0,9.87,0,19.76,0,29.62,0"/><path class="b" d="M8.43,140.26c3.17,0,6.41,0,9.58,0,2.14-1.06,3.99-2.9,6.1-4.04,5.63-3.54,10.95-2.99,16.56.22,2.54,1.34,5.06,3.01,7.84,3.78,3.75.1,7.57.01,11.33.04,8.12,0,16.27,0,24.4,0,6.96,0,13.95,0,20.91,0,5.21-.31,10.47-.33,15.68-.59,5.52-.26,11.03-1.33,16.55-1.47,2.32-.03,4.76.23,6.97.97.78.26,1.86.67,2.61.99,1.08.17,2.4.08,3.49.1,6.96,0,13.95,0,20.91,0,2.29,0,4.68,0,6.97,0,1.7,0,3.56.1,5.23-.29"/><path class="b" d="M8.43,135.53c1.7,0,3.53,0,5.23,0,1.23-.13,2.41-1.08,3.49-1.62,1.69-.96,3.49-2.03,5.23-2.89,8.26-4.27,13.89-2.02,21.78,1.37,2.47,1.07,5.24,1.3,7.84,1.91,2.6.61,5.13,1.48,7.84,1.24,11.61,0,23.24,0,34.85,0,3.75-.08,7.59.17,11.33-.11,4.06-.7,8.11-1.72,12.2-2.26,7.76-1.01,15.72-2.14,23.53-1,4.18.61,8.1,2.47,12.2,3.37,5.79,0,11.63,0,17.43,0,1.78-.42,3.5-1.47,5.23-2.05,2.2-.77,4.64-1.19,6.97-1.19"/><path class="b" d="M8.43,130.8c2.74-.51,5.27-2.15,7.84-3.18,4.67-2.06,9.62-4.03,14.81-3.96,5.06-.04,9.88,1.85,14.81,2.69,2.58.34,5.28.25,7.84.76,5.52.94,10.98,2.45,16.56,3.09,3.74.48,7.57.48,11.33.4,2.29,0,4.68.24,6.97.21,3.46-.02,6.99.05,10.46-.03,3.23-.33,6.5-1.06,9.58-2.08,12.85-5.38,23.23-4.21,36.6-2.06,6.31,1.14,12.71,2.66,19.17,2.09,2.95-.24,5.94-.91,8.71-1.93,3.26-1.44,6.9-2.18,10.46-1.7"/><path class="b" d="M8.43,124.63c6.63-2.95,13.59-5.55,20.91-5.86,4.66-.25,9.32.55,13.94,1.02,4.04.44,8.17-.29,12.2.42,6.7.93,13.27,2.96,20.04,3.43,1.99.17,4.1.06,6.1.08,2,.07,4.11.34,6.1.6,7.5,1.2,14.83,1.01,21.78-2.37,8.63-4.78,15.88-4.54,25.27-2.49,4.85,1.14,9.87,1.42,14.81,1.89,6.35.62,12.85,1.14,19.17-.04,2.66-.41,5.25-1.5,7.84-2.17,2.25-.5,4.7-.5,6.97-.16"/><path class="b" d="M8.43,118.78c2.29-.91,4.62-2.01,6.97-2.75,5.09-1.36,10.41-2.15,15.68-2.06,4.94.05,9.87.97,14.81,1,3.47-.19,7.01-.42,10.46.24,7.29,1.18,14.35,3.9,21.78,4.17,4.09-.13,8.17.55,12.2,1.12,7.87,1.21,14.94-.43,21.78-4.4,7.58-4.05,15.58-2.48,23.53-.65,3.41.82,6.97.93,10.46.95,3.47.13,6.99.48,10.46.73,4.63.33,9.37.47,13.94-.46,2.04-.36,4.09-1.21,6.1-1.72,2.24-.53,4.68-.66,6.97-.48"/><path class="b" d="M8.43,112.45c3.35-1.36,6.82-2.68,10.46-2.96,4.31-.6,8.71-1.04,13.07-.99,5.51-.01,11.05.87,16.55.45,9.08-.47,16.75,5.56,25.27,7.65,11.03,0,22.08,0,33.11,0,1.55.06,2.99-1.27,4.36-1.91,2.15-1.27,4.56-2.34,6.97-3,3.95-1.1,8.15-1.1,12.2-.68,4.32.42,8.73,1.23,13.07.57,8.49-.94,16.79,2.56,25.27,1.87,2.69-.15,5.31-1.14,7.84-1.96,2.23-.64,4.65-.99,6.97-1.03"/><path class="b" d="M8.43,106.28c2.24-.77,4.61-1.53,6.97-1.84,2.29-.19,4.69-.24,6.97-.5,5.78-.6,11.61-1.17,17.43-1.26,3.46.01,7-.29,10.46-.15,6.92,1,12.45,5.86,18.3,9.32,15.1.05,30.21,0,45.31.02.86.14,1.87-.38,2.61-.76.76-.36,1.82-.81,2.61-1.1,3.05-1.14,6.34-1.76,9.58-1.99,3.75-.29,7.6-.11,11.33-.67,1.73-.23,3.51-.91,5.23-1.17,1.98-.3,4.12-.25,6.1,0,7.2.89,14.53,4.19,21.78,1.93,3.35-1.29,6.84-2.55,10.46-2.77"/><path class="b" d="M8.43,101.17c2.25-.55,4.65-.98,6.97-1.03,2,.03,4.11.15,6.1-.04,4.97-.39,9.89-1.48,14.81-2.23,4.58-.62,9.31-1.38,13.94-.98,6.47,1.35,11.41,6.3,16.55,10.13,4.9.31,9.9.03,14.81.12,8.99,0,18.02,0,27.01,0,3.46,0,6.99,0,10.46,0,1.09-.01,2.4.05,3.49-.07,1.07-.4,2.38-.81,3.49-1.1,5.15-1.41,10.68-1.4,15.68-3.34,3.74-1.95,8.06-2.45,12.2-1.8,6.59.9,13.58,3.3,20.04.55,3.02-1.37,6.26-2.55,9.58-2.86"/><path class="b" d="M8.43,97.59c1.99-.21,4.1-.29,6.1-.21,1.99.1,4.1.39,6.1.24,5.05-.29,9.95-1.84,14.81-3.14,16.92-4.63,18.17-1.64,31.37,7.93,20.33,0,40.67,0,60.99,0,1.74.14,3.54-.35,5.23-.72,2.33-.5,4.76-1.07,6.97-1.98,1.48-.58,2.97-1.56,4.36-2.31,1.6-.82,3.46-1.44,5.23-1.77,6.32-1.18,12.84.41,19.17-.7,5.16-.81,9.5-4.37,14.81-4.64"/><path class="b" d="M8.43,95.53c4.63,0,9.33,1.13,13.94.31,10.22-1.45,21.03-9.72,31.37-6,3.38,1.21,6.55,3.1,9.58,4.98,1.1.69,2.39,1.52,3.49,2.21.68.62,1.74.71,2.61.65,14.23,0,28.47,0,42.69,0,8.41,0,16.85,0,25.27,0,3.9-.99,6.81-4.07,10.46-5.61,6.31-2.89,13.42-3.13,20.04-4.98,5.39-1.29,10.04-5.02,15.68-5.37"/><path class="b" d="M8.43,92.95c5.8,0,11.63,0,17.43,0,.86.03,1.84-.46,2.61-.76,1.41-.58,2.96-1.27,4.36-1.9,5.76-2.55,11.82-5.64,18.3-5.05,7.78.75,14.65,4.94,21.78,7.72,9.87,0,19.76,0,29.62,0,12.48,0,24.98,0,37.47,0,.41,0,1.32,0,1.74,0,1.51-.73,2.9-2.05,4.36-2.89,3-1.91,6.29-3.47,9.58-4.79,4.89-1.96,9.96-3.6,14.81-5.65,4.26-1.76,8.4-4.25,13.07-4.69"/><path class="b" d="M8.43,88.22c7.54,0,15.11,0,22.65,0,6.44-3.09,12.66-7.62,20.04-7.97,7.23-.25,14.24,2.26,20.91,4.79,1.41.56,2.97,1.22,4.36,1.84,1.1.42,2.28,1.3,3.49,1.35,4.63,0,9.31,0,13.94,0,11.61,0,23.24,0,34.85,0,3.75,0,7.57,0,11.33,0,1.99-.04,4.11.09,6.1-.07.76-.48,1.84-1.11,2.61-1.56,5.94-3.4,12.12-6.44,18.3-9.37,5.32-2.42,10.73-5.07,16.56-5.94"/><path class="b" d="M8.43,83.49c5.21,0,10.47,0,15.68,0,1.7,0,3.53,0,5.23,0,1.42-.07,3.19.33,4.36-.7,7.13-4.37,14.7-10.06,23.53-9.03,5.4.5,10.61,2.32,15.68,4.13,4.16,1.58,8.59,2.86,12.2,5.57,20.04.08,40.08,0,60.12.03,1.09,0,2.39,0,3.49,0,1.84-.32,3.53-1.63,5.23-2.37,3.48-1.79,6.98-3.71,10.46-5.51,5.93-3.23,12.41-5.56,19.17-6.14"/><path class="b" d="M8.43,78.76c5.21,0,10.47,0,15.68,0,1.7,0,3.53,0,5.23,0,1.17.04,2.57.09,3.49-.78,3.44-2.32,6.94-4.7,10.46-6.9,2.5-1.5,5.05-3.24,7.84-4.15,7.75-2.29,15.42,1.75,22.65,4.11,3.1,1.19,6.52,1.62,9.58,2.91,1.77.76,3.59,1.79,5.23,2.81,1.1.62,2.25,1.66,3.49,2,16.55,0,33.11,0,49.67,0,2.29-.02,4.68.06,6.97-.04,2.63-.88,5.3-1.91,7.84-3.02,5.77-2.43,11.28-5.78,17.43-7.21,3.12-.66,6.41-.54,9.58-.41"/><path class="b" d="M8.43,74.03h20.91c6.43-4.18,12.86-8.42,19.17-12.79,7.08-4.97,15.57-.64,22.65,2.06,3.33,1.33,6.88,2.07,10.46,2.25,3.03.4,6,1.52,8.71,2.89,3.28,1.65,6.4,3.76,9.58,5.58,5.8,0,11.63,0,17.43,0,1.8.22,3.54-.61,5.23-1.1,2.24-.65,4.64-1.11,6.97-1.27,4.92-.4,9.9.61,14.81.05,4.71-.35,9.44-1.16,13.94-2.59,5.77-1.66,11.33-4.7,17.43-4.92,2.65.05,5.3.84,7.84,1.53"/><path class="b" d="M8.43,69.3c4.05,0,8.15,0,12.2,0,1.4,0,2.96,0,4.36,0,.46,0,1.29,0,1.74,0,.48-.17,1.32-.62,1.74-.9,4.93-2.94,10.05-5.68,14.81-8.89,4.14-2.68,7.76-6.53,13.07-6.43,7.87-.04,14.76,5.28,22.65,5.13,11.68-1.3,17.2,5.07,27.01,8.74,4.49,1.67,8.96-.81,13.07-2.44,4.4-1.87,9.12-3.33,13.94-3.29,7.83.24,15.7,2,23.53.7,6.18-.79,12.06-3.45,18.3-3.8,3.11.05,6,1.64,8.71,3"/><path class="b" d="M8.43,64.56c5.21,0,10.47,0,15.68,0,4.2-2.36,8.71-4.21,13.07-6.24,2.98-1.4,5.96-3,8.71-4.79,3.53-2.54,6.8-4.68,11.33-4.66,5.95-.08,11.56,2.45,17.43,3.1,3.48.52,6.98-.52,10.46-.45,3.87.01,7.73,1.02,11.33,2.39,3.71,1.36,7.37,3.23,11.33,3.75,3.98.5,7.72-1.54,11.33-2.92,9.28-4,14.69-3.72,24.4-1.96,5.16.84,10.48,1.35,15.68.54,5.56-.64,10.93-3.04,16.55-2.98,2.93.43,5.49,2.29,7.84,3.97"/><path class="b" d="M8.43,59.83c3.75-.04,7.58.08,11.33-.06,7.55-5.41,17.19-6.39,25.27-10.75,4.65-2.63,7.42-4.6,13.07-4.23,7.04.43,13.78,3.76,20.91,3.09,5.46-.84,11.07-1.35,16.55-.4,5.73.8,11.67,3.03,17.43,1.23,3.52-1.02,6.95-2.55,10.46-3.61,8.77-2.96,16.56-.9,25.27.83,4.29.81,8.75,1.03,13.07.34,4.4-.62,8.67-2.15,13.07-2.74,3.48-.07,6.3,2.61,8.71,4.8"/><path class="b" d="M8.43,55.1h8.71c5.87-4.52,13.05-6.59,20.04-8.7,2.62-.83,5.3-1.77,7.84-2.83,2.01-.79,4-1.96,6.1-2.49,8.28-1.99,16.23,2.61,24.4,3.27,5.53.45,11.03-1.08,16.56-1.22,5.79-.38,11.64.48,17.43-.04,4.46-.53,8.73-2.23,13.07-3.29,9.65-2.74,18.48-.89,27.88,1.72,4.24,1.06,8.73,1.47,13.07.77,3.23-.48,6.43-1.47,9.58-2.31,4.07-1.62,7.79,1.58,10.46,4.35"/><path class="b" d="M8.43,50.37h9.58c5.91-3.97,12.58-6.66,19.17-9.26,2.57-1.01,5.24-2.02,7.84-2.94,2.24-.78,4.58-1.68,6.97-1.86,7.78-.55,15.06,3.07,22.65,4.09,5.19.82,10.49.02,15.68-.37,5.49-.5,11.05-.51,16.56-.85,5.58-.37,11.01-2.03,16.55-2.71,9.41-1.35,19.03.2,27.88,3.52,4.18,1.38,8.68,2.17,13.07,1.55,2.95-.38,5.89-1.29,8.71-2.22,3.95-1.85,7.6.56,10.46,3.25"/><path class="b" d="M8.43,45.64c4.34,0,8.73,0,13.07,0,.95.1,1.85-.73,2.61-1.17,1.7-1.06,3.52-2.2,5.23-3.24,6.77-3.95,13.74-8.74,21.78-9.29,8.31-.23,16.22,3.06,24.4,4.03,5.47.75,11.05.59,16.56.65,5.21,0,10.48.2,15.68-.2,2.9-.23,5.82-.89,8.71-1.18,3.74-.42,7.57-.56,11.33-.37,5.56.3,11.15,1.17,16.56,2.5,3.26.98,6.39,2.57,9.58,3.72,3.86,1.45,8.09,2.2,12.2,1.56,7.66-.96,9.8-5.47,17.43-.2"/><path class="b" d="M8.43,40.91c5.5,0,11.05,0,16.55,0,1.36.22,2.47-1.02,3.49-1.73,1.1-.83,2.38-1.82,3.49-2.64,4.06-2.99,8.26-6.12,13.07-7.79,3.34-1.13,6.99-1,10.46-.74,4.66.41,9.31,1.25,13.94,1.88,6.07.86,12.22,1.4,18.3,2.18,5.78.7,11.59,1.74,17.43,1.86,2.91.11,5.85-.41,8.71-.86,2.86-.37,5.83-.47,8.71-.35,5.88.25,11.71,1.44,17.43,2.75,4.7.77,8.86,2.93,13.07,5.02,1.26.74,2.96.3,4.36.41,2.29,0,4.68,0,6.97,0,6.38,0,12.79,0,19.17,0"/><path class="b" d="M8.43,36.18c4.34,0,8.73,0,13.07,0,1.7,0,3.53,0,5.23,0,.82,0,1.88.09,2.61-.35,3.6-2.95,7.29-5.97,11.33-8.3,4.19-2.57,8.27-3.07,13.07-3.15,5.23-.15,10.5.21,15.68.85,11.39,1.42,22.58,4.33,33.98,5.66,3.47.45,7,.07,10.46-.28,2.89-.14,5.86.14,8.71.6,7.33,1.25,14.53,3.32,21.78,4.96,13.06,0,26.15,0,39.21,0"/><path class="b" d="M8.43,31.45c7.25-.05,14.54.1,21.78-.06,4.55-3.51,9.35-6.98,14.81-8.93,2.22-.79,4.66-1.1,6.97-1.5,4.29-.72,8.74-1.06,13.07-.49,6.93.75,13.24,4.06,20.04,5.35,6.91,1.2,13.93,1.88,20.91,2.5,2.58.25,5.26.05,7.84.25,2.94.31,5.88,1.14,8.71,1.96,1.09.3,2.37.75,3.49.92,1.99,0,4.11,0,6.1,0,4.34,0,8.73,0,13.07,0,12.77,0,25.56,0,38.34,0"/><path class="b" d="M8.43,26.72c6.38,0,12.79,0,19.17,0,1.63.15,2.97-1.44,4.36-2.1,1.94-1.17,4.05-2.3,6.1-3.26,5.25-2.48,10.92-4.09,16.55-5.42,7.35-1.76,13.83.79,20.04,4.57,3.5,2.08,7.19,4.22,11.33,4.61,5.48.64,11.05-.05,16.55.21,2.89.1,5.85.39,8.71.75,1.7.23,3.49.79,5.23.63,22.36,0,44.73,0,67.09,0"/><path class="b" d="M8.43,21.99c3.17,0,6.41,0,9.58,0,1.98-.12,4.17.28,6.1-.24,6.6-5.01,14.93-6.38,22.65-8.78,3.42-1.15,6.81-2.78,10.46-3.07,9.05-.75,15.07,7.3,21.78,12.01,34.84.23,69.71,0,104.56.08"/></svg>