<?xml version="1.0" encoding="UTF-8"?><svg id="a" xmlns="http://www.w3.org/2000/svg" width="1920" height="2400" viewBox="0 0 192 240"><defs><style>.b{fill:none;stroke:#fff;stroke-miterlimit:10;stroke-width:.4px;}.c{stroke-width:0px;}</style></defs><rect class="c" x="0" width="192" height="240"/><path class="b" d="M7.88,213.25c6.91,4.81,13.39,10.3,20.17,15.31,1.32.88,2.67,2.27,4.38,2,2.6,0,5.29,0,7.89,0,12.85,0,25.73,0,38.58,0,21.62,0,43.26,0,64.88,0,7.21-8.2,12.76-15.05,24.55-10.19,2.52.99,5.2,1.71,7.89,1.95,2.86.67,5.43,2.38,7.89,3.92"/><path class="b" d="M7.88,209.05c4.17,2.85,8.06,6.21,12.28,9.01,4.16,2.88,8.41,5.9,13.15,7.75,4.37,0,8.79,0,13.15,0,11.1,0,22.22,0,33.32,0,21.33,0,42.68,0,64.01,0,5.71-5.8,11.11-14.15,20.17-14.25,3.85-.08,7.58,1.33,11.4,1.62,3.41.62,6.17,3.11,8.77,5.25"/><path class="b" d="M7.88,203.9c5.73,3.33,10.81,7.76,16.66,10.9,8.71,5.09,18.99,6.54,28.93,6.23,10.22,0,20.47,0,30.69,0,20.45,0,40.92,0,61.38,0,5.4-5.27,10.31-11.68,17.54-14.52,4.15-1.59,8.86-1.53,13.15-.57,3.09,1.12,5.56,3.59,7.89,5.82"/><path class="b" d="M7.88,198.62c4.46,1.68,8.22,4.8,12.28,7.22,4.33,2.66,9.05,4.84,14.03,5.94,4.6,1.09,9.4,1.24,14.03,2.14,1.15.25,2.45.76,3.51,1.27.78.36,1.74,1.05,2.63,1.07,6.12,0,12.29,0,18.41,0,25.13,0,50.27,0,75.41,0,2.25-1.4,4.11-3.62,6.14-5.33,3.93-3.54,8.09-7.23,13.15-9.03,7.26-2.49,11.55.53,16.66,5.38"/><path class="b" d="M7.88,193.71c4.22.85,7.79,3.5,11.4,5.69,4.08,2.47,8.51,4.53,13.15,5.65,5.17,1.34,10.62,1.39,15.78,2.76,2.57.69,4.7,2.51,7.01,3.7,1.1,0,2.41,0,3.51,0,31.27-.09,62.56.18,93.82-.1,6.1-4.15,13.22-11.95,21.04-11.49,3.94.49,7.29,3.03,10.52,5.15"/><path class="b" d="M7.88,189.39c3.86.39,7.27,2.49,10.52,4.45,3.32,1.93,6.85,3.65,10.52,4.8,3.97,1.27,8.16,1.82,12.28,2.4,4.01.54,8.14,1.45,11.4,3.99.78.54,1.74,1.38,2.63,1.73,1.1,0,2.41,0,3.51,0,3.19,0,6.45,0,9.64,0,8.76,0,17.55,0,26.3,0,20.75,0,41.51,0,62.25,0,1.57-.19,2.98-1.44,4.38-2.09,3.27-1.77,6.73-3.71,10.52-3.94,1.77-.12,3.62.47,5.26,1.06,2.31.82,4.69,1.8,7.01,2.58"/><path class="b" d="M7.88,185.74c4.13.51,7.76,2.77,11.4,4.61,3.32,1.64,6.89,2.95,10.52,3.72,10.36,2.17,16.73.13,25.43,7.84,32.72.23,65.47,0,98.2.08,3.48,0,7.04,0,10.52,0,2.28-.5,4.66-1.11,7.01-1.12,2.08-.12,4.15.67,6.14,1.12,2.3,0,4.71,0,7.01,0"/><path class="b" d="M7.88,183.96c5.73,1.11,10.91,4.19,16.66,5.24,6.04,1.37,12.31.98,18.41,1.85,3.8.5,7.35,2.16,10.52,4.26.79.5,1.85,1.19,2.63,1.69,1.65.47,3.56.14,5.26.23,15.78,0,31.57,0,47.35,0,7.59,0,15.21,0,22.8,0,.81.09,1.86-.26,2.63-.45,1.08-.24,2.4-.38,3.51-.38,1.73.01,3.59.33,5.26.8,4.07.04,8.2,0,12.28.02,9.64,0,19.3,0,28.93,0"/><path class="b" d="M7.88,182.41c5.23,1.02,10.45,2.39,15.78,2.74,6.11.54,12.32.17,18.41,1,4.61.56,8.9,2.55,13.15,4.3,1.1.45,2.4.99,3.51,1.42.77.31,1.78.74,2.63.62,16.65,0,33.32,0,49.98,0,3.19,0,6.46,0,9.64,0,1.7-.07,3.58.17,5.26-.16,1.9-1.08,4.01-2.06,6.14-2.6,2.85-.74,5.96-.6,8.77.27,2.33.73,4.64,1.87,7.01,2.49,3.78,0,7.62,0,11.4,0,8.17,0,16.38,0,24.55,0"/><path class="b" d="M7.88,179.48c9.62.96,19.32-.74,28.93.45,4.77.43,9.42,1.76,14.03,3,3.47.79,7.06,1.34,10.52,2.15,2.03.47,4.16,1.06,6.14,1.72.79.26,1.84.64,2.63.91.79,0,1.85,0,2.63,0,15.49,0,30.99,0,46.47,0,1.21-.19,2.41-1.08,3.51-1.6,1.38-.72,2.94-1.49,4.38-2.08,6.88-2.91,12.05-1.75,18.41,1.67,1.66.76,3.51,1.47,5.26,2.01,1.4.02,2.98,0,4.38,0,9.64,0,19.3,0,28.93,0"/><path class="b" d="M7.88,174.7c4.14-.22,8.2-1.33,12.28-1.98,9.87-1.69,18.68,1.13,28.06,3.67,5.19,1.09,10.67.27,15.78,1.87,2.42.69,4.82,1.78,7.01,2.99.79.44,1.86,1.06,2.63,1.53,1.08.3,2.4.15,3.51.18,8.76,0,17.55,0,26.3,0,2.32-.63,4.55-2.02,7.01-2.21,3.65,0,7.16-1.22,10.52-2.53,6.2-2.52,12.94-4.11,19.29-1.13,2.09.9,4.08,2.28,6.14,3.25,3.28,1.54,6.84,2.93,10.52,2.62,9.05,0,18.13,0,27.18,0"/><path class="b" d="M7.88,168.68c3.85-.81,7.57-2.37,11.4-3.26,9.36-2.24,17.64,1.83,26.3,4.64,5.96,2.05,12.49-.1,18.41,2.18,3.88,1.23,7.09,3.91,10.52,5.95,7.88-.09,15.81.18,23.67-.11,3.85-2.76,7.46-6.59,12.28-7.52,1.71-.09,3.57-.1,5.26-.45,6.04-1.17,12.22-3.3,18.41-1.91,4.19.79,7.83,3.17,11.4,5.37,2.45,1.39,5.16,2.52,7.89,3.23,4.27,1.14,8.76,1.21,13.15,1.35,5.83.1,11.71,0,17.54.04"/><path class="b" d="M7.88,162.45c3.5-1.1,6.94-2.65,10.52-3.47,8.02-1.84,15.7,2.06,22.8,5.31,7.59,3.55,9.89,2.44,17.54,2.96,3.04.31,6.07,1.31,8.77,2.73,1.13.59,2.43,1.37,3.51,2.06.75.47,1.72,1.26,2.63,1.4,6.87-.11,14.27.22,21.04-.13,2.72-2.26,5.28-4.9,7.89-7.28,2.07-1.84,4.34-3.8,7.01-4.66,1.08-.33,2.4-.27,3.51-.32,1.72-.09,3.56-.34,5.26-.58,7.85-1.34,14.91-1.02,21.92,3.11,4.73,2.92,9.47,6.06,14.91,7.52,4.54,1.36,9.35,1.71,14.03,2.31,4.95.06,9.95,0,14.91.02"/><path class="b" d="M7.88,155.89c3.36-1.6,6.78-3.53,10.52-4.02,8.42-.77,15.14,5.51,21.92,9.53,3.4,2.16,7.3,3.81,11.4,3.64,4.68-.08,9.51-.32,14.03,1.16,1.44.44,3.01,1.05,4.38,1.65.77.32,1.76.94,2.63.82,6.42-.04,12.88.09,19.29-.05,5.87-3.87,10.25-9.92,16.66-12.96,1.34-.59,2.94-.68,4.38-.73,2.01-.13,4.13-.35,6.14-.47,7.3-.68,14.67.98,21.04,4.59,3.71,2.08,7.41,4.35,11.4,5.88,4.76,1.87,9.83,3.12,14.91,3.74,5.83,0,11.7,0,17.54,0"/><path class="b" d="M7.88,150.8c8.27-5.42,12.78-6.14,21.04-.2,6.12,4.12,12.6,12.11,20.17,12.76,4.66.3,9.37-.56,14.03-.16,2.03.06,4.12.65,6.14.72,5.25,0,10.54,0,15.78,0,1.41-.05,3,.13,4.38-.14,1.46-.67,3.02-1.55,4.38-2.4,4.17-2.58,7.99-5.83,12.28-8.22,2.37-1.42,5.16-2,7.89-2.13,2.89-.27,5.87-.44,8.77-.29,4.81.22,9.58,1.44,14.03,3.23,4.71,1.89,9.23,4.39,14.03,6.06,4.55,1.65,9.28,2.96,14.03,3.89,6.42,0,12.87,0,19.29,0"/><path class="b" d="M7.88,148.01c2.95-1.87,6.07-4.06,9.64-4.36,6.66-.14,11.78,5.11,16.66,8.97,1.96,1.63,4.03,3.36,6.14,4.8.77.52,1.81,1.18,2.63,1.61.79.16,1.84.12,2.63.12,11.68,0,23.39,0,35.07,0,1.98-.13,4.24.3,6.14-.26,5.52-1.69,10.64-4.51,15.78-7.08,2.23-1.1,4.61-2.19,7.01-2.87,3.98-.98,8.18-1.3,12.28-1.21,7.88.19,15.43,2.81,22.8,5.39,5.77,1.91,11.66,3.61,17.54,5.19,1.09.28,2.4.66,3.51.85,2,0,4.13,0,6.14,0,4.07,0,8.2,0,12.28,0"/><path class="b" d="M7.88,147.07c3.48-1.95,7.24-4.32,11.4-3.89,5.93.65,10.85,4.51,15.78,7.54,2.23,1.29,4.49,3.06,7.01,3.67,5.54,0,11.12,0,16.66,0,5.83,0,11.7,0,17.54,0,3.18-.11,6.49.24,9.64-.17,4.74-1.36,9.43-3.07,14.03-4.85,5.1-1.97,10.31-3.95,15.78-4.57,8.23-1.07,16.54.33,24.55,2.2,7.69,1.69,15.32,3.8,22.8,6.27,1.09.34,2.41.74,3.51,1.06,2.3.13,4.71.03,7.01.06,2,0,4.13,0,6.14,0,1.4-.08,3.06.24,4.38-.32"/><path class="b" d="M7.88,146.27c2.85-1.15,5.71-2.6,8.77-3.11,7.88-1.14,15.31,2.64,22.8,4.43,2.27.56,4.68,1,7.01,1.1,2.01.04,4.13-.04,6.14.14,2.02.14,4.14.47,6.14.8,4.37,0,8.79,0,13.15,0,5.25,0,10.54,0,15.78,0,1.8.04,3.57-1.06,5.26-1.58,2.91-1.12,5.87-2.35,8.77-3.51,6.12-2.55,12.61-4.44,19.29-4.53,5.87-.18,11.76.56,17.54,1.5,5.02.79,10.09,1.73,14.91,3.4,2.63.88,5.31,1.94,7.89,2.97,1.7.56,3.46,1.66,5.26,1.74,3.78,0,7.62,0,11.4,0,1.99-.15,4.27.39,6.14-.43"/><path class="b" d="M7.88,143.99c3.81-.86,7.52-2.35,11.4-2.94,5.48-.96,11.11-1.11,16.66-1.14,3.19-.02,6.46-.01,9.64-.11,2.61-.13,5.32-.26,7.89.31,3.02.61,5.97,1.77,8.77,3.03,1.69.67,3.36,1.96,5.26,1.73,3.19,0,6.45,0,9.64,0,4.66,0,9.37,0,14.03,0,1.85-.17,3.57-1.49,5.26-2.2,2.6-1.31,5.26-2.74,7.89-3.99,4.63-2.31,9.74-3.68,14.91-3.87,6.49-.32,12.95.95,19.29,2.19,3.49.71,7.12,1.16,10.52,2.28,4.24,1.32,8.3,3.29,12.28,5.24,1,.57,2.4.29,3.51.35,1.4,0,2.98,0,4.38,0,4.95,0,9.95,0,14.91,0"/><path class="b" d="M7.88,140.11c3.01.23,5.97-.64,8.77-1.65,3.49-1.24,7-2.62,10.52-3.75,5.38-1.77,11.01-2.83,16.66-3.2,3.5-.28,7.16-.57,10.52.67,3.73,1.24,7.18,3.34,10.52,5.38,4.6,2.78,3.38,2.64,8.77,2.56,4.66,0,9.37,0,14.03,0,1.41,0,2.98,0,4.38,0,1.12-.03,2.52.18,3.51-.47,5-2.35,9.72-5.44,14.91-7.39,9.38-3.54,18.05-1.22,27.18,1.72,2.84.92,5.87,1.39,8.77,2.05,2.98.72,5.96,1.79,8.77,3.02.76.34,1.82.86,2.63,1.07.77,0,1.86,0,2.63,0,2,0,4.13,0,6.14,0,5.83,0,11.7,0,17.54,0"/><path class="b" d="M7.88,135.35c4,.29,7.11-.76,10.52-2.74,3.45-1.89,6.9-3.96,10.52-5.52,4.67-2.09,9.81-3.04,14.91-3.13,2.6-.02,5.33-.35,7.89.26,6.2,1.51,11.32,5.63,16.66,8.92,1.08.68,2.38,1.46,3.51,2.06,2.57.36,5.3.06,7.89.16,5.25,0,10.54,0,15.78,0,1.1,0,2.41,0,3.51,0,2.42-.74,4.73-2.13,7.01-3.22,4.87-2.52,10.18-4.85,15.78-4.53,8.43.29,15.42,6.03,23.67,7.11,1.09.19,2.4.52,3.51.64,1.09,0,2.41,0,3.51,0,2.6,0,5.29,0,7.89,0,7.88,0,15.79,0,23.67,0"/><path class="b" d="M7.88,129.47c4.37.65,8.05-1.53,11.4-4.05,2.8-1.97,5.69-4.03,8.77-5.56,3.77-1.93,8.05-2.85,12.28-2.71,3.19.16,6.46.29,9.64.48,6.19.95,11.42,4.83,16.66,7.99,3.08,1.8,6.19,3.98,9.64,4.97,6.71,0,13.46,0,20.17,0,3.19,0,6.45,0,9.64,0,1.91.19,3.59-1.21,5.26-1.93,2.72-1.37,5.71-2.51,8.77-2.78,3.6-.35,7.25.61,10.52,2.08,1.11.5,2.42,1.14,3.51,1.7.75.37,1.74,1.09,2.63.92,15.78,0,31.57,0,47.35,0"/><path class="b" d="M7.88,123.56c5.5.59,9.2-3.25,13.15-6.37,4.92-4.03,10.98-7.35,17.54-6.59,2.92.22,5.85.96,8.77,1.15,9.06.09,17.4,7.59,25.43,11.33,2.76,1.23,5.65,2.97,8.77,2.75,9.34,0,18.71,0,28.06,0,1.7-.07,3.59.19,5.26-.18,2.45-1.12,5.18-1.9,7.89-1.88,2.38,0,4.82.63,7.01,1.54,1.29.73,2.97.47,4.38.52,16.65,0,33.32,0,49.98,0"/><path class="b" d="M7.88,118.94c5.53.29,9.27-3.81,13.15-7.09,4.84-4.23,10.86-7.92,17.54-7.2,2.92.2,5.85.96,8.77,1.17,8.93.08,17.55,8.38,25.43,12.31,2.74,1.3,5.64,3.17,8.77,2.94,9.64,0,19.3,0,28.93,0,2-.05,4.15.13,6.14-.11,2.46-1.05,5.21-1.71,7.89-1.57,1.43.07,3.01.37,4.38.79.78.24,1.84.66,2.63.88.42,0,1.33,0,1.75,0,16.95,0,33.91,0,50.86,0"/><path class="b" d="M7.88,113.11c5.27-.24,9.14-3.85,13.15-6.83,11.64-8.49,15.94-6.02,28.93-5.41,10.45,1.38,22.51,15.45,32.44,15.43,9.93,0,19.88,0,29.81,0,1.1,0,2.41.01,3.51-.02,1.06-.52,2.38-1.05,3.51-1.39,4.63-1.53,9.66-.58,14.03,1.33,5.82.22,11.71.01,17.54.08,2.3,0,4.71,0,7.01,0,2.54-.71,5.24-1.25,7.89-1.26,2.95-.07,5.91.61,8.77,1.27,3.19,0,6.46,0,9.64,0"/><path class="b" d="M7.88,106.19c6.65-1.26,11.95-5.96,18.41-7.77,5.36-1.75,11.08-1.8,16.66-1.66,3.19.15,6.5-.56,9.64.22,9.63,2.43,16.92,10.1,26.3,13.16,1.12.32,2.44.75,3.51,1.24,1.08.27,2.4.13,3.51.16,9.34,0,18.71,0,28.06,0,1.47-.37,2.92-1.35,4.38-1.77,3.95-1.4,8.33-1.1,12.28.14,2.3.65,4.56,1.92,7.01,1.63,2.89,0,5.87,0,8.77,0,1.09,0,2.41,0,3.51,0,.81-.17,1.86-.63,2.63-.94,8.07-3.49,13.59-3.4,21.92-.83,1.45.36,3.03.97,4.38,1.6,1.67.35,3.56.1,5.26.17"/><path class="b" d="M7.88,99.79c4.08-1.28,8.07-3.1,12.28-3.94,5.48-1.05,11.12-1.02,16.66-1.52,2.91-.24,5.89-.6,8.77-1.05,3.17-.64,6.5-.93,9.65-.02,6.31,1.66,11.77,5.51,17.54,8.42,1.66.84,3.5,1.68,5.26,2.28,2.07.59,4.25,1.26,6.14,2.33.95.75,2.38.43,3.51.49,2.01,0,4.13,0,6.14,0,6.12,0,12.29,0,18.41,0,8.78-6.2,15.31-3.38,24.55-.62,4.52,1.33,8.15.4,12.28-1.59,12.33-5.91,15.23-3.14,27.18.3,1.74.52,3.56,1.29,5.26,1.91.77,0,1.85,0,2.63,0"/><path class="b" d="M7.88,94.91c10.53-4.65,15.13-1.15,25.43-2.1,3.58-.36,7.11-1.38,10.52-2.48,2.82-.89,5.77-1.9,8.77-1.78,9.7.34,17.25,7.58,26.3,10.15,2.82.51,5.39,2,7.89,3.32,7,0,14.04,0,21.04,0,.43,0,1.32,0,1.75,0,1.52-.82,2.87-2.27,4.38-3.12,7.32-4.64,14.44-1.16,21.92.75,4.77,1.23,8.07-.04,12.28-2.23,9.22-4.82,13.88-3.51,22.8.96,1.9.93,4.08,1.45,6.14,1.89,2.29.54,4.69,1.12,7.01,1.48"/><path class="b" d="M7.88,91.97c9.19-4.08,13.83.47,22.8-.45,5.7-.56,10.63-3.74,15.78-5.94,11.38-5.02,21.26,5.15,31.57,8.33,1.73.42,3.64.75,5.26,1.52,1.44.51,2.85,1.66,4.38,1.83,6.12,0,12.29,0,18.41,0,1.36.22,2.51-1.07,3.51-1.81,1.39-1.15,2.85-2.56,4.38-3.52,7.57-4.97,15.03-.3,22.8,1.04,2.34.36,4.87.13,7.01-.92,3.69-1.7,7.28-4.07,11.4-4.59,6.97-1.02,12.33,4.48,18.41,6.77,3.39.89,7.03,1.14,10.52.91"/><path class="b" d="M7.88,90.24c5.08-1.77,8.03-1.44,13.15-.51,10.43,1.85,16.04-2.83,24.55-7.52,4.96-2.79,10.8-2.13,15.78.23,4.79,2.11,9.16,5.21,14.03,7.17,2.2.99,4.73,1.09,7.01,1.75,1.11.31,2.37.92,3.51,1.13,2.01,0,4.13,0,6.14,0,4.37,0,8.79,0,13.15,0,4.06-2.33,7.02-6.4,11.4-8.21,7.18-3.19,14.61,1.08,21.92,1.18,2.8.06,5.44-1.18,7.89-2.4,3.51-1.72,7.43-3.25,11.4-2.61,5.57.81,9.84,4.95,14.91,7.03,3.63,1.21,7.7.9,11.4.19"/><path class="b" d="M7.88,86.96c7.6-2.27,12.76.7,20.17.14,4.31-.3,8.43-1.93,12.28-3.82,3.63-1.73,7.31-3.87,11.4-4.22,7.13-.61,13.66,2.99,20.17,5.32,1.96.71,4.08,1.35,6.14,1.66,1.71.21,3.58.28,5.26.68,1.42.28,2.96.76,4.38,1,1.41,0,2.98,0,4.38,0,3.48,0,7.04,0,10.52,0,4.59-1.39,8.16-4.86,12.28-7.15,6.67-3.77,14.54-3.19,21.92-3.6,4.54-.12,8.72-2.21,13.15-2.9,3.91-.63,7.94.36,11.4,2.2,9.28,5.04,11.55,9.01,22.8,4.46"/><path class="b" d="M7.88,82.45c5.25-.89,10.56-.13,15.78.51,3.77-.03,7.64.17,11.4-.09,2.95-.43,5.91-1.21,8.77-2.05,2.29-.65,4.65-1.44,7.01-1.79,2.88-.42,5.88-.36,8.77-.08,7.29.78,14.54,2.51,21.92,2.2,5.83.13,11.7,1.02,17.54.53,3.27-.25,6.58-.95,9.64-2.1,2.93-1.15,5.81-2.65,8.77-3.72,8.54-3.13,17.3-5.98,26.3-7.38,6.2-1,12.31,1.3,17.54,4.49,3.11,1.77,6.2,3.88,9.64,4.94,4.62,1.44,9.28-1.16,13.15-3.47"/><path class="b" d="M7.88,77.57c4.66.07,9.37.46,14.03.65,5.83,0,11.7,0,17.54,0,6.72,0,13.46.11,20.17-.39,10.28-.34,20.52-1.55,30.69-2.99,5.52-.69,11.12-.35,16.66-.43,5.71-.21,11.34-1.83,16.66-3.83,4.12-1.58,8.12-3.61,12.28-5.1,7.18-2.92,13.67-.7,20.17,2.76,11.9,6.24,16.31,9.74,28.06.37"/><path class="b" d="M7.88,73.24c1.39.33,2.97.19,4.38.22,2.01,0,4.13,0,6.14,0,6.42,0,12.87,0,19.29,0,7.59,0,15.21,0,22.8,0,4.36-.1,8.81.22,13.15-.14,3.17-.82,6.53-1.17,9.64-2.2,6.36-2.33,12.37-4.65,19.29-3.56,2.61.32,5.27.94,7.89,1.23,2.89.27,5.89.26,8.77-.15,6.78-.84,12.71-4.65,19.29-6.19,3.26-.78,6.63.19,9.64,1.43,7.76,3.16,15.83,8.61,24.55,6.15,4.35-1.21,7.92-4.26,11.4-7"/><path class="b" d="M7.88,68.7c17.82,0,35.66,0,53.49,0,4.37,0,8.79,0,13.15,0,2-.08,4.16.18,6.14-.16,1.47-.47,3.03-1.23,4.38-1.97,3.65-1.99,7.3-4.27,11.4-5.2,6.5-1.58,12.88,1.36,19.29,2.12,3.75.6,7.65.64,11.4.03,3.8-.57,7.56-1.78,11.4-2.11,5.26-.45,10,2.56,14.91,3.98,11.98,4.17,21.41-.36,30.69-7.92"/><path class="b" d="M7.88,63.94c25.42-.02,50.86.04,76.28-.02,5.06-3.16,9.78-7.4,15.78-8.63,9.31-1.69,18.1,3.3,27.18,4.39,4.34.61,8.81.29,13.15.84,2.68.36,5.28,1.43,7.89,2.09,4.82,1.36,10,1.83,14.91.63,7.66-1.92,14.62-5.96,21.04-10.43"/><path class="b" d="M7.88,59.18c17.82,0,35.66,0,53.49,0,5.25,0,10.54,0,15.78,0,1.71,0,3.55,0,5.26,0,1.11-.05,2.48.2,3.51-.32,3.72-2.62,7.28-5.66,11.4-7.67,6.94-3.62,15.25-2.06,21.92,1.42,6.33,3.22,13.12,5.55,20.17,6.57,4.95,0,9.95,0,14.91,0,3.78,0,7.62,0,11.4,0,2.15-.39,4.15-1.77,6.14-2.63,4.2-1.94,8.27-4.29,12.28-6.6"/><path class="b" d="M7.88,54.42c25.72-.02,51.44.03,77.16-.02,6.41-3.9,12.37-9.57,20.17-10.29,6.76-.73,11.95,2.54,17.54,5.77,3.06,1.73,6.3,3.33,9.64,4.46,1.4.14,2.98.05,4.38.07,10.81,0,21.64,0,32.44,0,5.09-1.97,9.95-4.7,14.91-7"/><path class="b" d="M7.88,49.66c16.95,0,33.91,0,50.85,0,4.95,0,9.95,0,14.91,0,1.71,0,3.55,0,5.26,0,1.13.05,2.44-.02,3.51-.43,4.94-1.69,9.27-4.84,14.03-6.95,6.94-3.33,14.33-3.37,21.04.55,4.79,2.58,9.6,5.37,14.91,6.78,6.12.12,12.29,0,18.41.05,4.37,0,8.79,0,13.15,0,1.7,0,3.56,0,5.26,0,.78,0,1.89.07,2.63-.26,4.07-1.73,8.17-3.57,12.28-5.21"/><path class="b" d="M7.88,44.9c12.56,0,25.14,0,37.7,0,5.54,0,11.12,0,16.66,0,1.18-.1,2.38-.92,3.51-1.26,1.37-.48,2.95-.87,4.38-1.07,3.46-.52,7.04-.09,10.52-.4,4.88-.6,9.4-2.83,14.03-4.35,7.42-2.68,14.8-2.77,21.92.87,4.22,1.98,8.54,4.02,13.15,4.89,3.74.7,7.62.94,11.4,1.31,4.37,0,8.79,0,13.15,0,5.24-.06,10.54.11,15.78-.07,4.68-1.66,9.28-3.68,14.03-5.15"/><path class="b" d="M7.88,40.08c17.82.12,35.67.09,53.49,0,3.75-2.94,8.34-4.95,13.15-5.06,2.6-.13,5.3.13,7.89-.21,6.19-.84,12.14-3.25,18.41-3.56,10.01-.76,15.61,4.38,24.55,6.7,4.86,1.3,9.95.75,14.91,1.12,2.05.08,4.08,1.12,6.14,1.08,5.54,0,11.12,0,16.66,0,7.21-1.41,13.83-4.96,21.04-6.38"/><path class="b" d="M7.88,34.6c.96.81,2.32.83,3.51.77,1.1,0,2.41,0,3.51,0,3.78,0,7.62,0,11.4,0,11.1,0,22.22,0,33.32,0,4.34-3.48,9.17-6.26,14.91-6.16,2.9-.03,5.87.31,8.77.04,7.27-.66,14.62-2.33,21.92-1.06,6.7.95,12.67,4.6,19.29,5.86,6.05,1.4,12.38-.08,18.41,1.27,5.82.08,11.72.15,17.54-.03,8.01-2.35,15.12-7.71,23.67-8.04"/><path class="b" d="M7.88,30.61h49.1c4.75-3.76,9.4-7.08,15.78-6.81,2.91.07,5.86.62,8.77.72,7.9.34,15.89.29,23.67,1.89,5.88,1.13,11.57,3.34,17.54,4.04,4.64.4,9.37.06,14.03.17,8.17,0,16.38,0,24.55,0,.89.17,1.89-.5,2.63-.91,1.43-.81,3-1.79,4.38-2.68,4.81-3.21,9.74-6.24,15.78-5.71"/><path class="b" d="M7.88,25.85h44.72c5.19-4.15,10.36-8.99,17.54-8.49,2.95.14,5.87,1.02,8.77,1.53,7.7.99,15.23,3.02,22.8,4.69,3.47.77,7.02,1.52,10.52,2.18,2.59.2,5.29.03,7.89.08,8.17,0,16.38,0,24.55,0,6.12,0,12.29,0,18.41,0,.42,0,1.33,0,1.75,0,1.28-.45,2.43-1.65,3.51-2.45,4.5-3.76,9.51-7.9,15.78-7.09"/><path class="b" d="M7.88,21.09c9.34,0,18.71,0,28.06,0,14.44-.21,8.22,1.8,19.29-6.98,4.95-3.97,10.43-5.87,16.66-3.85,2.62.75,5.22,1.9,7.89,2.46,8.14,1.81,15.55,6.05,23.67,7.96,1.37.46,2.96.42,4.38.4,1.71,0,3.55,0,5.26,0,5.25,0,10.54,0,15.78,0,11.39,0,22.8,0,34.2,0,1.4,0,2.98,0,4.38,0,1.01-.21,1.89-1.3,2.63-1.94,3.82-3.66,8.43-7.4,14.03-7.14"/></svg>