<?xml version="1.0" encoding="UTF-8"?><svg id="a" xmlns="http://www.w3.org/2000/svg" width="1920" height="2400" viewBox="0 0 192 240"><defs><style>.b{fill:none;stroke:#fff;stroke-miterlimit:10;stroke-width:.4px;}.c{stroke-width:0px;}</style></defs><rect class="c" x="0" width="192" height="240"/><path class="b" d="M8.9,231.7c.79,0,1.82.02,2.6-.06,1.32-.88,2.84-1.78,4.33-2.33,5.9-1.44,12.12-3.3,18.2-1.9,3.39.76,6.6,2.38,9.53,4.2,1.39.16,2.94.06,4.33.09,10.1,0,20.23,0,30.33,0,10.39,0,20.81,0,31.2,0,.77,0,1.84.03,2.6-.1,1.55-.85,3.06-2.14,4.33-3.36,6.33-5.83,12.1-15.36,21.67-15.29,7.54.38,13.04,6.38,19.07,10.22,5.05,3.59,10.87,5.89,16.47,8.46,3.15.15,6.38.02,9.53.06"/><path class="b" d="M8.9,226.99c.86.02,1.9.11,2.6-.49,1.3-.99,2.81-2.01,4.33-2.61,3.34-.96,6.92-1.47,10.4-1.6,3.56-.07,7.16.73,10.4,2.18,1.44.63,2.98,1.46,4.33,2.26.76.33,1.8.26,2.6.26,1.39,0,2.94,0,4.33,0,10.39,0,20.81,0,31.2,0,10.68,0,21.38,0,32.07,0,1.36.21,2.49-.56,3.47-1.41,1.82-1.51,3.59-3.37,5.2-5.1,5.18-5.35,10.8-12.82,19.07-12.22,3.86.36,7.3,2.52,10.4,4.71,3.16,2.24,6.29,4.69,9.53,6.81,4.34,2.86,9.09,5.17,13.87,7.21,3.44,0,6.96,0,10.4,0"/><path class="b" d="M8.9,222.29c.43,0,1.3-.01,1.73-.04,3.56-2.87,6-3.27,10.4-3.47,5.55-.46,11.27.09,16.47,2.19,1.11.38,2.3,1.13,3.47,1.32,2.86,0,5.8,0,8.67,0,11.55,0,23.12,0,34.67,0,9.81,0,19.65,0,29.47,0,1.41.26,2.53-1.03,3.47-1.89,1.44-1.37,2.97-2.98,4.33-4.42,4.93-5.02,10.46-11.73,18.2-11.21,5.58.68,10.16,4.48,14.73,7.44,5.23,3.65,10.77,6.92,16.47,9.78,1.3.56,2.95.21,4.33.3,2.57,0,5.23,0,7.8,0"/><path class="b" d="M8.9,217.58c1.56.19,2.91-1.03,4.33-1.44,2.77-1.04,5.8-.4,8.67-.39,4.03.13,8.13.21,12.13.74,1.71.23,3.53.57,5.2,1,1.08.17,2.38.08,3.47.1,15.59,0,31.2,0,46.8,0,8.95,0,17.92,0,26.87,0,1-.07,1.87-1.11,2.6-1.7,1.42-1.26,2.96-2.73,4.33-4.04,5.15-4.78,11.42-10.87,19.07-9.23,6.96,1.77,12.94,6.08,19.07,9.64,1.97,1.19,4.08,2.43,6.07,3.59,1.07.56,2.26,1.51,3.47,1.73,4.02,0,8.11,0,12.13,0"/><path class="b" d="M8.9,212.7c3.87-1.61,7.36-.8,11.27,0,3.13.38,6.39.08,9.53.17,24.84,0,49.69,0,74.53,0,4.32,0,8.68,0,13,0,.94.09,1.86-.76,2.6-1.23,1.41-.98,2.95-2.12,4.33-3.13,4.44-3.22,9.16-6.71,14.73-7.46,10.06-.81,21.89,6.84,30.33,11.81,4.6.05,9.26,0,13.87.02"/><path class="b" d="M8.9,206.12c3.3-.23,6.48,1,9.53,2.05,9.24,0,18.5,0,27.73,0,20.8,0,41.6,0,62.4,0,3.15-.03,6.38.07,9.53-.05,7.93-2.96,15.5-8.07,24.27-7.87,5.63.13,11.27,1.34,16.47,3.51,2.03.84,4.13,1.85,6.07,2.88,1.08.48,2.24,1.54,3.47,1.53,4.89,0,9.84,0,14.73,0"/><path class="b" d="M8.9,198.36c3.98.51,7.55,2.62,11.27,3.98,1.65.62,3.41,1.33,5.2,1.13,14.44,0,28.89,0,43.33,0,16.75-.09,33.53.18,50.27-.1,6.94-1.01,13.78-2.92,20.8-3.41,8.49-.65,17.26-.03,25.13,3.46,6.05.14,12.15,0,18.2.05"/><path class="b" d="M8.9,191.66c3.31.74,6.4,2.36,9.53,3.6,3.34,1.35,6.86,2.46,10.4,3.11,1.96.47,4.07.4,6.07.39,2.57,0,5.23,0,7.8,0,8.08,0,16.19,0,24.27,0,7.5,0,15.03,0,22.53,0,2.01-.34,4.05-1.12,6.07-1.45,3.11-.61,6.38-.78,9.53-.44,3.2.29,6.37,1.23,9.53,1.73,2.26.33,4.66.1,6.93.16,4.89-.01,9.84.02,14.73-.01,4.9-.34,9.83-.89,14.73-1.08,3.78-.21,7.57.45,11.27,1.09,6.92,0,13.88,0,20.8,0"/><path class="b" d="M8.9,186.31c4.12,1.03,8.01,2.96,12.13,3.97,4.8,1.27,9.81,1.66,14.73,2.1,3.2.28,6.45.78,9.53,1.67,4.32,0,8.68,0,13,0,7.21,0,14.46,0,21.67,0,3.59.02,6.98-1.7,10.4-2.58,5.33-1.7,11.16-1.85,16.47.03,2.33.69,4.59,1.94,6.93,2.55,1.98,0,4.08,0,6.07,0,6.05,0,12.15,0,18.2,0,4.31,0,8.69,0,13,0,1.68-.17,3.51-.39,5.2-.4,2-.1,4.08.38,6.07.4,6.92,0,13.88,0,20.8,0"/><path class="b" d="M8.9,181.69c4.36.73,8.58,2.38,13,2.76,5.75.54,11.6-.06,17.33.71,2.64.35,5.34,1.02,7.8,2.04,1.72.61,3.38,1.91,5.2,2.14,4.9,0,9.84,0,14.73,0,1.69,0,3.51,0,5.2,0,.79,0,1.86.08,2.6-.27,3.06-1.13,6.44-1.03,9.53-1.99,5.29-1.65,10.91-3.6,16.47-2.08,2.4.59,4.77,1.68,6.93,2.87,1.08.48,2.22,1.65,3.47,1.47,8.95,0,17.92,0,26.87,0,4.31,0,8.69,0,13,0,2.56-.39,5.18-1.17,7.8-1.12,2.33-.05,4.72.42,6.93,1.12,5.76,0,11.57,0,17.33,0"/><path class="b" d="M8.9,177.24c4.06.02,8.09,1.02,12.13,1.06,4.33-.05,8.67-.83,13-.86,3.81-.06,7.68.52,11.27,1.82,4.38,1.61,8.43,4.24,13,5.38,1.69,0,3.51,0,5.2,0,2.28-.03,4.66.06,6.93-.05,1.09-.25,2.38-.58,3.47-.87,1.38-.36,2.93-.75,4.33-.98,1.7-.23,3.55-.34,5.2-.82,6.25-1.86,11.95-3.68,18.2-.58,7.53,3.9,2.95,3.3,12.13,3.3,6.05,0,12.15,0,18.2,0,5.76,0,11.57,0,17.33,0,1.77-.11,3.48-1.25,5.2-1.67,2.48-.8,5.19-1.28,7.8-1.04,2.76.21,5.4,1.4,7.8,2.71,4.31,0,8.69,0,13,0"/><path class="b" d="M8.9,172.47c1.98-.24,4.08-.41,6.07-.39,1.69.02,3.51.26,5.2.17,3.46-.14,6.94-.78,10.4-1,10.47-.81,16.14,3.08,25.13,7.01,2.74,1.1,5.7,1.89,8.67,1.68,2.6.08,5.28-.02,7.8-.72,1.98-.46,4.06-1.03,6.07-1.38,2.31-.28,4.71-.68,6.93-1.39,7.89-2.57,13.38-1.74,19.93,3.46,14.15.09,28.32,0,42.47.03,2.18.14,4.09-1.6,6.07-2.34,2.95-1.38,6.23-2.49,9.53-2.26,2.44.16,4.87,1.1,6.93,2.39,1.39.73,2.61,2.46,4.33,2.22,2.86,0,5.81,0,8.67,0"/><path class="b" d="M8.9,167.34c1.96-.43,4.06-.75,6.07-.82,2.28-.03,4.65.23,6.93.13,5.5-.17,11.13-.18,16.47,1.34,6.03,1.56,11.46,4.85,17.33,6.83,2.19.75,4.66.28,6.93.4,2.57-.06,5.24.14,7.8-.1,1.7-.42,3.51-.97,5.2-1.44,1.95-.59,4.07-.88,6.07-1.25,2.29-.52,4.63-1.3,6.93-1.76,3.14-.67,6.53-.56,9.53.62,2.52.86,4.65,2.66,6.93,3.93,6.63,0,13.3,0,19.93,0,7.5,0,15.03,0,22.53,0,.41,0,1.32,0,1.73,0,.42-.21,1.33-.67,1.73-.91,1.37-.77,2.92-1.62,4.33-2.32,8.35-4.08,13.08-2.45,19.93,3.23h7.8"/><path class="b" d="M8.9,162.86c4.27-1.11,8.7-.6,13,.02,5.86.72,11.7,1.91,17.33,3.67,4.07,1.2,8.05,2.84,12.13,3.98,3.74,0,7.53,0,11.27,0,2.28,0,4.66,0,6.93,0,1.99-.41,4.08-.91,6.07-1.3,1.96-.43,4.08-.61,6.07-.87,1.99-.3,4.07-.75,6.07-1.02,3.15-.45,6.48-.37,9.53.59,1.77.54,3.6,1.4,5.2,2.33,1.03.45,2.37.23,3.47.27,1.69,0,3.51,0,5.2,0,6.63,0,13.3,0,19.93,0,6.92,0,13.88,0,20.8,0,1.79-.51,3.48-1.71,5.2-2.43,3.21-1.5,6.81-2.72,10.4-2.29,2.15.25,4.29,1.16,6.07,2.38,1.33.81,2.71,2.29,4.33,2.33,1.68,0,3.52,0,5.2,0"/><path class="b" d="M8.9,158.73c5.3-.78,10.59.67,15.6,2.31,4.86,1.58,9.75,3.22,14.73,4.36,2.79.77,5.81.31,8.67.42,4.61,0,9.26,0,13.87,0,2.02.14,4.08-.48,6.07-.76,3.13-.5,6.36-.8,9.53-.85,5.19.11,10.42-.57,15.6-.19,2.01.16,4.12.52,6.07,1.07,1.36.48,2.88.88,4.33.73,11.55,0,23.12,0,34.67,0,6.05-.09,12.17.19,18.2-.11,2.82-1.16,5.7-2.44,8.67-3.19,3.52-.99,7.22-.57,10.4,1.23,2.44,1.07,5.14,1.79,7.8,2.04"/><path class="b" d="M8.9,154.5c4.16.24,8.31,1.36,12.13,2.99,1.71.74,3.51,1.62,5.2,2.39,1.08.43,2.28,1.22,3.47,1.23,9.24,0,18.5,0,27.73,0,1.18.14,2.38-.66,3.47-1.01,1.93-.74,4.03-1.37,6.07-1.7,5.2-.94,10.42.48,15.6.9,5.46.5,11,.27,16.47.71,2.32.12,4.66.76,6.93,1.1,5.47,0,10.99,0,16.47,0,11.26,0,22.54,0,33.8,0,1.39-.06,3.02.21,4.33-.36,3.12-1.06,6.25-2.43,9.53-2.89,2.01-.35,4.11.21,6.07.62,2.25.41,4.65.61,6.93.67"/><path class="b" d="M8.9,149.67c3.54.93,7.04,2.33,10.4,3.77,1.12.54,2.39,1.26,3.47,1.88.78.41,1.67,1.16,2.6,1.09,4.03,0,8.11,0,12.13,0,6.05,0,12.15,0,18.2,0,2.61-1.33,5.02-3.28,7.8-4.33,7.28-3.21,13.56.78,20.8,1.55,4.9.68,9.88.05,14.73-.7,14.37-2.39,10.58,4.81,25.13,2.07,2.56-.45,5.21-.98,7.8-1.28,3.73-.45,7.6-.33,11.27.49,2.6.61,5.19,1.6,7.8,2.19,1.08,0,2.39,0,3.47,0,1.98,0,4.09,0,6.07,0,3.57-.51,6.88-2.39,10.4-3.16,1.65-.43,3.51-.31,5.2-.26,2.27.04,4.66.03,6.93.04"/><path class="b" d="M8.9,143.72c2.64,1.01,5.21,2.4,7.8,3.52,2.77,1.07,5.32,2.83,7.8,4.43,6.63.07,13.3,0,19.93.03,2.28,0,4.66,0,6.93,0,1.44-.07,3.26.36,4.33-.86,4.04-3.23,8.43-6.98,13.87-7.12,3.27-.11,6.44,1.11,9.53,2.01,6.98,2.11,13.21,1.07,19.93-1.3,3.05-.96,6.3-2.02,9.53-1.54,1.8.24,3.46,1.37,5.2,1.83,6.29,1.56,12.72-.85,19.07-.72,4.1.03,8.32.65,12.13,2.17,4.46,1.96,8.85,4.75,13.87,4.82,4.52.17,8.71-1.95,13-3.02,3.68-.67,7.54-.5,11.27-.35"/><path class="b" d="M8.9,138.46c3.45,1.5,6.93,3.1,10.4,4.57,2.36,1.15,4.58,2.81,6.93,3.97,8.94-.07,17.93.14,26.87-.08,7.48-5.82,12.88-12.59,23.4-9.93,4.52,1.14,9.31,1.62,13.87.4,6.62-1.31,14.12-6.98,20.8-3.9,4.24,2.24,9.2,2.23,13.87,2.15,4.03-.07,8.15-.03,12.13.63,2.93.53,6,1.09,8.67,2.47,4.46,2.3,8.76,5.45,13.87,6.1,4.1.6,8.16-.71,12.13-1.55,3.69-.66,7.57-.5,11.27.1"/><path class="b" d="M8.9,135.55c2,.64,4.07,1.41,6.07,2.05,1.69.54,3.56.93,5.2,1.59,1.71.66,3.51,1.47,5.2,2.18,1.38.65,2.8,1.1,4.33.94,4.03,0,8.11,0,12.13,0,3.2-.05,6.68.44,9.53-1.35,6.45-3.85,11.46-10.41,19.07-12.14,4.54-1.16,9.28.12,13.87-.59,6.01-.81,11.48-3.73,17.33-5.14,7.66-1.86,9.76,1.67,16.47,3.6,3.93,1.22,8.06,1.92,12.13,2.51,3.15.45,6.39.86,9.53,1.35,2.36.32,4.84.77,6.93,1.97,3.23,1.71,6.26,3.95,9.53,5.59,10.27,5.46,16.73-.25,26.87,2.11"/><path class="b" d="M8.9,133.21c3.71.68,7.53.99,11.27,1.47,3.73.63,7.48,1.57,11.27,1.82,5.88.53,11.66-1.04,17.33-2.37,2.85-.71,5.4-2.46,7.8-4.09,3.08-2.15,6.19-4.45,9.53-6.18,2.7-1.41,5.68-2.43,8.67-2.98,3.15-.59,6.45-.75,9.53-1.69,7.04-2,14.16-5.66,21.67-4.25,4.45.82,8.16,3.73,12.13,5.72,5.1,2.78,10.66,4.91,16.47,5.54,3.14.45,6.4.25,9.53.67,3.5.82,6.54,3.05,9.53,4.94,3.96,2.58,8.23,5.11,13,5.74,1.98.05,4.09.1,6.07-.03,3.41-.55,6.97-.97,10.4-.31"/><path class="b" d="M8.9,130.15c5.49-.26,10.96-1.27,16.47-1.13,6.39.04,12.82-.51,19.07-1.91,2.9-.62,5.95-1.11,8.67-2.36,4.69-2.07,9.14-4.79,13.87-6.78,4.17-1.83,8.62-3.04,13-4.25,5.73-1.73,11.22-4.81,17.33-4.92,5.97-.18,11.6,2.58,16.47,5.81,4.22,2.88,8.27,6.22,13,8.25,3.24,1.42,6.87,2.03,10.4,1.87,2.57,0,5.24-.72,7.8-.35,5.16,1.08,9.34,4.7,13.87,7.19,1.03.53,2.25,1.48,3.47,1.31,1.98,0,4.09,0,6.07,0,4.89,0,9.84,0,14.73,0"/><path class="b" d="M8.9,125.53c5.74-1.5,11.35-3.77,17.33-4.19,6.34-.65,12.77-.87,19.07-1.94,5.02-.74,9.92-2.25,14.73-3.8,7.78-2.61,15.87-4.45,23.4-7.77,4.58-2.06,9.67-3.82,14.73-2.71,3.4.69,6.58,2.38,9.53,4.15,1.99,1.24,4.18,2.43,6.07,3.83,9.63,7.52,14.57,13.04,27.73,9.79,2.9-.75,5.99-.09,8.67,1.13,1.74.77,3.55,1.76,5.2,2.7.76.43,1.83,1.04,2.6,1.46.4,0,1.32,0,1.73,0,7.79,0,15.61,0,23.4,0"/><path class="b" d="M8.9,119.05c3.22-1.18,6.36-2.76,9.53-4.04,7.76-2.91,16.19-1.39,24.27-1.86,6.43-.4,12.7-2.25,19.07-3.18,4.92-.85,9.92-1.57,14.73-2.91,3.26-.87,6.38-2.38,9.53-3.58,7.82-3.17,14.04-1.29,20.8,3.2,2.88,1.89,6,3.61,8.67,5.81,4.44,3.5,8.99,7.54,14.73,8.57,2.85.53,5.85.18,8.67-.39,2.54-.51,5.22-1.15,7.8-.55,2.07.42,4.16,1.26,6.07,2.15,1.07.42,2.27,1.37,3.47,1.22,8.95,0,17.92,0,26.87,0"/><path class="b" d="M8.9,112.87c3.28-1.28,6.38-3.13,9.53-4.66,6.02-2.74,12.77-1.39,19.07-.56,3.42.44,6.99.68,10.4.04,5.69-1.31,11.49-2.38,17.33-2.6,8.64-.33,12.66-.24,20.8-3.78,8.42-3.48,14.78-2.66,22.53,1.92,8.14,4.01,14.03,12.44,23.4,13.83,3.73.59,7.54-.21,11.27-.39,3.57-.1,7.01,1.23,10.4,2.12,9.81,0,19.65,0,29.47,0"/><path class="b" d="M8.9,108.26c3.36-1.28,6.4-3.35,9.53-5.07,6.61-3.39,14-.69,20.8.56,5.48,1.08,8.73.21,13.87-1.42,5.88-1.84,12.11-2.12,18.2-1.35,6.8.86,10.28.03,16.47-2.68,8.13-3.59,15.28-4.9,23.4-.38,7.37,4.27,13.05,11.68,21.67,13.65,3.38.86,6.95.74,10.4.95,3.2.19,6.37,1.15,9.53,1.52,7.5,0,15.03,0,22.53,0,2.57-.34,5.2-.94,7.8-1.06"/><path class="b" d="M8.9,105.05c3.4-1.33,6.39-3.6,9.53-5.39,7.22-3.93,15.14,0,22.53,1.19,2.27.34,4.71.34,6.93-.3,4.08-1.33,7.92-3.54,12.13-4.47,3.39-.81,6.99-.69,10.4-.04,3.41.59,6.91,1.68,10.4,1.17,3.35-.51,6.51-2.01,9.53-3.46,7.59-3.81,15.59-7.57,23.4-1.98,6.97,4.85,13.15,11.44,21.67,13.5,2.53.68,5.23,1.02,7.8,1.48,2.58.48,5.23,1.14,7.8,1.67,1.67.35,3.5.68,5.2.9,1.68.07,3.51.02,5.2.03,2.57-.06,5.25.16,7.8-.16,4.57-.73,9.23-1.5,13.87-.85"/><path class="b" d="M8.9,102.38c3.38-1.46,6.32-3.86,9.53-5.61,6.95-3.73,14.59-.13,21.67,1.21,5.63,1.12,9.24-.69,13.87-3.59,16.52-10.54,19.64,1.91,32.93-3.51,6.97-2.64,13.05-8.57,20.8-8.65,2.86.07,5.47,1.61,7.8,3.12,5.62,3.79,10.93,8.31,17.33,10.77,3.62,1.47,7.54,2.19,11.27,3.29,4.05,1.26,8.03,2.91,12.13,4.01,3.36.99,6.9,1.4,10.4,1.24,2.88.08,5.82-.06,8.67-.44,2.59-.18,5.21.58,7.8.44"/><path class="b" d="M8.9,98.68c3-1.46,5.73-3.59,8.67-5.16,6.68-3.65,14.09-.35,20.8,1.43,4.69,1.28,9.06.86,13-2.13,6.07-4.38,11.85-9.63,19.93-7.78,2.88.53,5.73,1.68,8.67,1.86,6,.27,11.41-2.95,16.47-5.78,3.51-1.93,7.18-4.13,11.27-4.4,3.46-.18,6.59,1.8,9.53,3.35,4.2,2.37,8.44,4.86,13,6.49,3.93,1.47,8.13,2.24,12.13,3.47,5.57,1.84,10.37,5.47,15.6,8.03,1.35.68,2.91,1.38,4.33,1.89,1.98,0,4.09,0,6.07,0,4.89,0,9.84,0,14.73,0"/><path class="b" d="M8.9,92.29c3.99-1.83,7.62-4.97,12.13-5.38,8.67-.85,15.67,6.79,24.27,6.2,3.36-.37,6.09-2.73,8.67-4.73,4.87-4.05,10.63-8.29,17.33-7.29,2.88.29,5.76,1.23,8.67,1.33,4.18.09,8.32-1.12,12.13-2.76,6.07-2.37,12.25-7.08,19.07-5.6,4.38,1.23,8.59,3.14,13,4.28,16.48,3.89,16.37-.81,31.2,11.58,1.65,1.3,3.46,2.69,5.2,3.87.99.64,2.2,1.64,3.47,1.44,6.34,0,12.72,0,19.07,0"/><path class="b" d="M8.9,85.04c3.2-.88,6.27-2.48,9.53-3.13,8.13-1.46,14.76,4.57,21.67,7.78,1.31.71,2.86.96,4.33.84,1.39,0,2.94.03,4.33-.03,6.14-2.87,10.8-8.44,17.33-10.59,5.58-2.04,11.57-.42,17.33-1,6.92-.32,13.41-2.96,19.93-5.06,1.94-.57,4.04-1.05,6.07-1.1,2-.02,4.09.43,6.07.73,3.99.69,8.08,1.2,12.13,1.21,4.31.07,8.71-.46,13,.18,9.53,1.72,16.33,10.63,24.27,15.61,6.05.11,12.15,0,18.2.04"/><path class="b" d="M8.9,77.88c3.18.08,6.38-.56,9.53-.89,6.02-.67,11.67,2.11,16.47,5.48,1.7,1.07,3.37,2.52,5.2,3.36,4.03,0,8.11,0,12.13,0,.78,0,1.82,0,2.6,0,2.05-1.14,4.07-2.6,6.07-3.84,3.97-2.55,8.32-4.75,13-5.55,6.86-1.28,13.93.09,20.8-1.08,5.3-.76,10.31-2.98,15.6-3.74,4.3-.4,8.69-.08,13-.2,4.61-.05,9.26-.55,13.87-.62,7.6-.21,14.81,3.09,20.8,7.56,3.49,2.38,6.65,5.49,10.4,7.45,4.89,0,9.84,0,14.73,0"/><path class="b" d="M8.9,71.25c2.21.72,4.61,1.17,6.93,1.26,3.15.06,6.41-.28,9.53.33,3.81.68,7.3,2.66,10.4,4.9,1.11.79,2.38,1.77,3.47,2.6.67.72,1.67.87,2.6.79,4.61,0,9.26,0,13.87,0,1.39-.02,2.95.07,4.33-.07,1.7-1.03,3.51-2.19,5.2-3.23,3.51-2.16,7.22-4.29,11.27-5.26,6.32-1.53,12.69,1.33,19.07.7,5.12-.29,9.89-2.42,14.73-3.91,3.63-1.07,7.5-1.26,11.27-1.27,9.82.17,19.71.16,29.47,1.34,4.83.8,9.16,3.43,13,6.36,1.39,1.05,2.94,2.26,4.33,3.31,1.03.69,2.19,1.84,3.47,2.03,3.73,0,7.53,0,11.27,0"/><path class="b" d="M8.9,65.36c7.26,3.97,9.98,2.15,17.33,2.38,6.82.39,11.22,5.08,16.47,8.68h19.07c5.39-3.07,10.22-7.73,16.47-8.99,2.6-.42,5.29.27,7.8.93,3.65,1,7.45,1.98,11.27,1.65,5.26-.35,9.92-3.1,14.73-4.97,7.65-2.61,15.7.19,23.4,1.13,2.84.36,5.8.68,8.67.48,2.59-.27,5.2-1.01,7.8-1.2,5.58-.6,10.64,2.48,14.73,5.95,1.39,1.14,2.92,2.45,4.33,3.55.7.53,1.67,1.41,2.6,1.47,3.15,0,6.38,0,9.53,0"/><path class="b" d="M8.9,60.23c8.08,4.37,10.16,2.12,18.2,1.4,3.36-.18,6.71.96,9.53,2.74,3.6,2.18,6.68,5.29,10.4,7.28,2.57.13,5.23.02,7.8.06,1.09,0,2.38,0,3.47-.01,2.75-1.08,5.34-2.7,7.8-4.32,4.43-2.75,9.16-6.9,14.73-6.01,3.29.61,6.37,2.18,9.53,3.18,3.6,1.22,7.58,1.59,11.27.57,3.34-.87,6.44-2.59,9.53-4.08,6.97-3.44,14.7-.18,21.67,1.61,3.92.98,8.12,1.86,12.13.99,2.86-.68,5.71-1.86,8.67-2.1,7.59-.71,12.85,5.83,18.2,10.15h11.27"/><path class="b" d="M8.9,56.15c8.96,3.22,10.81.72,19.07-.65,3.59-.48,7.25.51,10.4,2.21,7.35,4.11,11,7.91,19.93,4.65,7.05-2.29,14.95-10.13,22.53-7.86,6.97,2.4,12.92,7.51,20.8,5.79,3.34-.65,6.46-2.23,9.53-3.63,6.82-3.17,14.18.35,20.8,2.39,3.61,1.14,7.45,2.06,11.27,1.75,2.91-.33,5.75-1.48,8.67-1.82,6.62-1.04,12.03,3.76,16.47,8.01h14.73"/><path class="b" d="M8.9,53.21c10.87,2.27,13-1.23,22.53-2.23,6-.61,11.52,2.33,17.33,3.11,8.69.54,15.87-5.88,24.27-7.01,8.47-1.46,14.62,6.27,22.53,7.65,3.78.79,7.71,0,11.27-1.36,2.8-1,5.61-2.53,8.67-2.42,9.24.47,16.69,7.85,26,8.11,5.24.09,10.34-2.98,15.6-1.41,2.9.76,5.51,2.53,7.8,4.41,2.12.51,4.7.11,6.93.23,3.73,0,7.53,0,11.27,0"/><path class="b" d="M8.9,50.63c3.44.19,6.97.27,10.4-.17,6.08-.9,12.06-2.6,18.2-3.1,4.59-.56,9.36-.19,13.87-1.32,5.28-1.58,10.12-4.64,15.6-5.56,12.67-2.36,18.97,8.45,30.33,9.25,5.11.36,9.86-2,14.73-3.11,7.63-1.02,14.87,5.76,21.67,8.55,3.22,1.44,6.85,2.47,10.4,1.98,4.84-.86,9.84-2.97,14.73-1.2.79.26,1.86.72,2.6,1.1,0,0,.87.48.87.48l.87.06c6.63,0,13.3,0,19.93,0"/><path class="b" d="M8.9,47.99c3.45-.16,6.96-.41,10.4-.62,4.33-.19,8.74-.36,13-1.21,6.22-1.25,12.2-3.58,18.2-5.59,3.52-1.56,6.79-3.82,10.4-5.18,14.04-5.79,24.19,11.54,38.13,9.54,3.53-.37,6.95-1.67,10.4-2.43,7.5-1.82,13.81,4.1,19.93,7.47,1.92,1.06,3.93,2.36,6.07,2.91,2.28,0,4.66,0,6.93,0,2.57-.01,5.23.03,7.8-.02,1.94-.52,4.05-.91,6.07-.85,1.42.04,2.99.34,4.33.8.75.1,1.84.08,2.6.08,6.63,0,13.3,0,19.93,0"/><path class="b" d="M8.9,45.29c3.43-.5,6.93-1.12,10.4-1.18,3.16.06,6.37.6,9.53.55,5.9.07,11.36-2.49,16.47-5.19,1.96-1.04,4.19-1.84,6.07-3.02,2.58-1.59,5.09-3.49,7.8-4.86,6.75-3.62,12.29-1.12,18.2,2.68,5.32,3.08,10.99,6.51,17.33,6.5,3.54.02,7.03-1.04,10.4-2.01,2.5-.7,5.19-1.37,7.8-.97,5.45.99,10,4.54,14.73,7.18,1.92,1.12,4.01,2.23,6.07,3.08,2.84.29,5.81.04,8.67.12,2.57,0,5.23,0,7.8,0,2.26-.47,4.59-1.22,6.93-1.16,2.05-.05,4.13.58,6.07,1.16,6.63,0,13.3,0,19.93,0"/><path class="b" d="M8.9,42.95c3.93-1.06,8.01-2.47,12.13-2.16,2.87.23,5.78.83,8.67.9,5.93.32,11.37-2.4,16.47-5.09,1.69-.86,3.62-1.59,5.2-2.65,2.87-1.86,5.6-4.12,8.67-5.66,6.33-3.36,11.72-.88,17.33,2.5,4.56,2.46,9.47,4.85,14.73,5.1,5.08.29,9.88-1.8,14.73-2.95,4.5-1.23,9.04.54,13,2.6,4,2.05,7.93,4.4,12.13,6,4.1,1.64,8.61,2.32,13,1.82,7.38-1.86,12.3-4.74,19.93-.98.75.35,1.76,1,2.6,1.1,1.38,0,2.95,0,4.33,0,3.73,0,7.53,0,11.27,0"/><path class="b" d="M8.9,38.77c2.86,0,5.8,0,8.67,0,1.39-.15,2.93-.33,4.33-.29,3.73.08,7.56.45,11.27-.23,4.27-.71,8.24-2.66,12.13-4.46,1.65-.8,3.56-1.35,5.2-2.17,2.7-1.42,5.2-3.36,7.8-4.94,6.22-4,11.5-4.01,18.2-1.21,5.82,2.09,11.93,4.24,18.2,3.9,3.79-.17,7.53-1.21,11.27-1.79,3.82-.74,7.69.25,11.27,1.58,4.02,1.45,8.01,3.16,12.13,4.3,4.76,1.32,9.79,1.92,14.73,1.72,2.6-.24,5.22-.97,7.8-1.36,4.41-.78,9.01,0,13,1.99,1.1.53,2.4,1.22,3.47,1.82.99.62,2.24,1.34,3.47,1.15,3.73,0,7.53,0,11.27,0"/><path class="b" d="M8.9,34.07c9.23-.1,18.52.2,27.73-.11,4.31-1.71,8.43-4.1,13-5.1,3.7-1.25,6.95-3.62,10.4-5.39,4.73-2.65,10.22-3.7,15.6-3.03,2.27.25,4.66.34,6.93.55,2.86.3,5.79.73,8.67.94,6.05.61,12.16-.46,18.2.14,7.24,1.37,14.26,4,21.67,4.58,4.59.42,9.26.59,13.87.74,4.03-.06,8.16-.3,12.13.54,3.6.71,7.07,2.17,10.4,3.67,2.23.9,4.52,2.21,6.93,2.47,2.86,0,5.81,0,8.67,0"/><path class="b" d="M8.9,29.36c9.81,0,19.65,0,29.47,0,.88.15,1.83-.45,2.6-.79,1.37-.63,2.9-1.29,4.33-1.76,2.22-.78,4.72-.71,6.93-1.51,5.88-2.06,11.3-5.38,17.33-7.05,2.54-.76,5.22-1.32,7.8-1.87,2.27-.5,4.61-1.16,6.93-1.36,6.33-.55,12.75-.13,19.07.37,6.23.41,12.11,2.75,18.2,3.94,6.83,1.5,13.87,1.79,20.8,2.62,5.24.66,10.52,1.44,15.6,2.89,9.04,2.54,15.49,5.64,25.13,2.94"/><path class="b" d="M8.9,24.65c11.26,0,22.54,0,33.8,0,1.42-.17,2.9-.82,4.33-.94,1.39-.14,2.95-.03,4.33-.23,2.95-.37,5.88-1.28,8.67-2.29,5.88-2.21,11.68-4.78,17.33-7.51,6.24-3.55,12.71-5.49,19.93-5.39,7.17-.11,14.12,1.96,20.8,4.37,5.71,1.96,11.48,3.89,17.33,5.37,3.71.98,7.56,1.66,11.27,2.63,4.88,1.28,9.76,2.82,14.73,3.72,3.11.55,6.39.16,9.53.27,1.38,0,2.95,0,4.33,0,2.62-.39,5.26-1.15,7.8-1.89"/></svg>