<?xml version="1.0" encoding="UTF-8"?><svg id="a" xmlns="http://www.w3.org/2000/svg" width="1920" height="2400" viewBox="0 0 192 240"><defs><style>.b{fill:none;stroke:#fff;stroke-miterlimit:10;stroke-width:.4px;}.c{stroke-width:0px;}</style></defs><rect class="c" width="192" height="240"/><path class="b" d="M8.45,232.81c15.68-.03,31.37.05,47.04-.03,4.78-5.33,9.33-11.99,16.55-14.06,6.29-1.54,12.54,1.22,18.29,3.5,5.07,2.09,10.41,3.57,15.68,5.04,3.01.83,5.93,2.17,8.71,3.58,1.67.68,3.35,2.09,5.23,1.97,2.88,0,5.84,0,8.71,0,18.29,0,36.59,0,54.88,0"/><path class="b" d="M8.45,228.08h45.3c2.31-1.58,4.03-4.17,6.1-6.06,3.75-3.81,8.37-7.5,13.94-7.73,6.45-.11,12.77,1.84,19.17,2.47,15.56,1.53,14.23.87,27.88,8.58,1.97.92,3.95,2.36,6.1,2.74,3.75,0,7.57,0,11.32,0,15.09,0,30.2,0,45.3,0"/><path class="b" d="M8.45,223.35c10.16,0,20.33,0,30.49,0,3.46,0,6.99,0,10.45,0,1.4,0,2.96,0,4.36,0,.53-.18,1.37-.85,1.74-1.26,4.75-4.58,10.41-9.41,17.42-9.08,2.89.04,5.82.66,8.71.58,4.73-.09,9.36-1.42,13.94-2.48,4.54-1.06,9.55-1.77,13.94.21,5.91,3.15,11.16,7.59,17.42,10.1,1.94.77,4.03,1.62,6.1,1.93,1.39,0,2.96,0,4.36,0,3.75,0,7.57,0,11.33,0,11.61,0,23.24,0,34.85,0"/><path class="b" d="M8.45,218.62h47.04c6.28-5.07,10.92-7.51,19.17-6,4.04.76,7.6.54,11.32-1.28,4.93-2.21,9.47-5.56,14.81-6.73,5.9-1.31,9.63,1.51,13.94,5.02,3.5,2.69,7.2,5.33,11.32,6.97,3.85,1.57,8.06,2.19,12.2,2.01,3.46,0,6.99,0,10.45,0,11.61,0,23.24,0,34.85,0"/><path class="b" d="M8.45,213.89c16.55-.03,33.11.06,49.66-.03,12.28-8.32,17.35,2.26,27.88-4.9,4.26-2.65,8.21-6.13,13.07-7.66,5.45-1.8,10.12.85,13.94,4.61,2.46,2.18,5.05,4.42,7.84,6.17,1.05.65,2.33,1.38,3.48,1.81,1.99,0,4.1,0,6.1,0,4.34,0,8.73,0,13.07,0,13.35,0,26.72,0,40.07,0"/><path class="b" d="M8.45,209.16c12.48,0,24.98,0,37.46,0,4.63,0,9.31,0,13.94,0,1.16-.19,2.35-.95,3.48-1.25,1.36-.42,2.93-.67,4.36-.69,2.91-.06,5.83.71,8.71,1.01,6.84.83,11.74-5.16,17.42-7.92,5.44-3.03,10.89-2.54,15.68,1.45,1.79,1.46,3.52,3.27,5.23,4.81,1.05.85,2.14,2.23,3.48,2.59,6.67,0,13.37,0,20.04,0,15.09,0,30.2,0,45.3,0"/><path class="b" d="M8.45,204.43c16.84,0,33.69,0,50.53,0,1.22.16,2.37-.88,3.48-1.24,1.62-.66,3.48-1.09,5.23-1.19,4.93-.34,10.07,1.95,14.81-.21,4.41-1.81,8.38-4.82,13.07-5.96,5-1.38,10.15.79,13.94,4.05,1.77,1.39,3.37,3.28,5.23,4.55h68.82"/><path class="b" d="M8.45,199.7c16.26,0,32.53,0,48.78,0,1.23.17,2.41-.74,3.48-1.2,1.9-.87,4.02-1.53,6.1-1.79,5.21-.71,10.54,1.3,15.68-.2,6.86-1.85,13.84-4.63,20.91-1.96,2.12.74,4.23,1.87,6.1,3.1,1.11.61,2.18,1.89,3.48,2.05,7.25,0,14.53,0,21.78,0,16.27.01,32.52-.05,48.78,0"/><path class="b" d="M8.45,194.97c15.97,0,31.95,0,47.91,0,.85.11,1.84-.39,2.61-.66,1.08-.38,2.37-.79,3.48-1.08,2.81-.74,5.81-1.03,8.71-.93,12.17,1.15,24.7-1.15,36.59,2.44,1.35.42,2.96.15,4.36.22,2.58,0,5.26,0,7.84,0,6.96,0,13.95,0,20.91,0,4.63,0,9.31,0,13.94,0,1.99,0,4.11,0,6.1,0,.78-.14,1.84-.53,2.61-.73,1.95-.49,4.11-.62,6.1-.31,1.44.15,2.93.91,4.36,1.03,3.17,0,6.41,0,9.58,0"/><path class="b" d="M8.45,187.25c2.47,1.24,5.09,2.56,7.84,2.99,2.29,0,4.68,0,6.97,0,2-.18,4.1-.55,6.1-.78,3.44-.44,7-.58,10.45-.25,2.9.16,5.8,1.13,8.71,1.03,4.64-.08,9.35.3,13.94-.49,4.6-.6,9.32-.67,13.94-.24,3.18.2,6.38.9,9.58.73,16.26,0,32.53,0,48.78,0,7.25,0,14.53,0,21.78,0,1.15-.24,2.37-.98,3.48-1.34,1.91-.7,4.06-1.15,6.1-1.17,2.03-.03,4.17.36,6.1.99,1.41.44,2.91,1.2,4.36,1.52,2.29,0,4.68,0,6.97,0"/><path class="b" d="M8.45,175.54c2.77,1.19,5.69,2.4,8.71,2.75,3.48.33,6.99-.56,10.45-.75,3.22-.23,6.55.19,9.58,1.29,4.57,1.58,8.56,4.54,13.07,6.25,1.33.59,2.94.4,4.36.43,2.29,0,4.68,0,6.97,0,6.67,0,13.37,0,20.04,0,19.16,0,38.33,0,57.5,0,3.17,0,6.41,0,9.58,0,.87.16,1.88-.45,2.61-.85,1.07-.56,2.38-1.19,3.48-1.66,3.26-1.41,6.9-2.21,10.45-1.87,7.17.62,10.58,4.69,18.29,2.91"/><path class="b" d="M8.45,163.84c2.86.64,5.79,1.39,8.71,1.65,2.29.17,4.68-.09,6.97-.08,10.14-.38,16.12,7.53,23.52,12.98,1.33.89,2.89,1.76,4.36,2.39,2.88,0,5.83,0,8.71,0,5.79,0,11.63,0,17.42,0,17.42-.01,34.85.04,52.27-.04,12.48.42,10.17-.41,20.91-5.17,8.4-3.63,14.66-1.39,22.65,1.82,3.03,1.21,6.47.95,9.58.21"/><path class="b" d="M8.45,154.97c3.47-.08,6.99.21,10.45.2,8.3-.4,13.56,2.86,19.17,8.62,5.09,4.88,10.4,12.89,18.29,12.25,5.21,0,10.47,0,15.68,0,15.97,0,31.95,0,47.91,0,1.46.15,2.99-.27,4.36-.76,1.37-.4,2.94-.75,4.36-.99,4.03-.72,8.26-.66,12.2-1.86,7.92-3.19,13.49-7.43,22.65-5.02,7.57,1.94,11.61,6.28,20.04,4.43"/><path class="b" d="M8.45,148.62c11.92-2.57,18.26-3.06,27.01,6.35,6.68,6.84,11,15.89,21.78,16.11,5.84.25,11.58-1.98,17.42-1.42,1.12.12,2.43.41,3.48.8.79.27,1.74.91,2.61.87,2.88,0,5.83,0,8.71,0,7.83,0,15.69,0,23.52,0,1.69-.11,3.61.28,5.23-.27,3.03-1.76,6.23-3.43,9.58-4.47,3.93-1.29,8.15-1.5,12.2-2.28,2.68-.53,5.25-1.76,7.84-2.57,5.31-1.87,11.21-2.12,16.55-.23,6.6,2.19,11.82,6.03,19.17,5.33"/><path class="b" d="M8.45,145.22c14.74-5.83,20.09-4.48,30.49,7.43,3.76,4.1,7.37,9.18,13.07,10.57,6.69,1.82,13.35-1.32,20.04-1.55,5.13-.25,8.28,2.06,12.2,4.92,6.38,0,12.79,0,19.17,0,2.29,0,4.68,0,6.97,0,.78,0,1.84.03,2.61-.11.8-.42,1.85-1.05,2.61-1.53,6.3-4.21,12.14-8.09,20.04-8.08,2.29-.09,4.7-.02,6.97-.37,5.44-1.01,10.99-2.31,16.55-1.61,8.61.77,15.88,6.37,24.39,7.47"/><path class="b" d="M8.45,144.66c14.51-6.34,19.55-9.31,32.23,2.52,6.85,6.49,11.35,8.71,20.91,7.2,6.41-1.06,13.53-2.5,19.16,1.71,2.64,1.81,5.14,3.98,7.84,5.7,1.69.14,3.53.04,5.23.07,2.58,0,5.26,0,7.84,0,1.69-.14,3.74.42,5.23-.56,2.81-1.65,6.02-2.7,8.71-4.56,4.31-2.83,8.68-6.17,13.94-6.85,4.4-.67,8.73.94,13.07,1.34,4.93.26,9.88-.59,14.81-.63,5.35-.12,10.75.85,15.68,2.93,3.51,1.45,6.83,3.52,10.45,4.7"/><path class="b" d="M8.45,145.98c3.9-1.54,7.68-3.54,11.32-5.6,5-3,10.76-5.32,16.55-3.21,3.71,1.22,7.01,3.5,10.45,5.28,9.63,5.36,20.66-.42,30.49,3.55,6.41,2.75,11.07,9.25,18.29,10.14,5.43.68,10.14-2.71,14.81-4.92,5.75-2.17,10.3-7.15,16.55-8.05,5.96-.97,11.05,3.02,16.55,4.46,3.7.86,7.6.52,11.32.03,6.64-.96,13.85-1.96,20.04,1.31,2.98,1.56,5.72,3.71,8.71,5.24"/><path class="b" d="M8.45,147.41c4.06-1.51,7.91-3.79,11.32-6.45,5.37-4.23,10.96-9.81,18.29-9.62,4.59.06,8.71,2.45,13.07,3.57,4.83,1.21,9.88,1.02,14.81,1.19,7.87.16,13.01,2.02,19.17,6.87,3.36,2.42,7.07,4.91,11.32,5.19,4.4.31,8.42-1.94,12.2-3.91,1.97-1.03,4.2-1.84,6.1-3.01,2.77-1.62,5.59-3.46,8.71-4.32,7.26-2.2,13.17,3.65,19.16,6.68,3.79,1.78,8.18,1.62,12.2.82,6.83-1.38,14.5-3.92,20.91.15,2.68,1.64,5.16,3.78,7.84,5.44"/><path class="b" d="M8.45,147.67c.88.11,1.84-.45,2.61-.8,1.77-.86,3.59-1.96,5.23-3.06,8.11-5.45,13.91-15.67,24.39-16.76,3.25-.33,6.46.68,9.58,1.41,1.97.39,4.09.56,6.1.6,11.03-.02,19.3-1.44,28.75,5.77,3.66,2.5,7.63,5.17,12.2,5.39,3.68.2,7.21-1.29,10.45-2.86,1.96-.99,4.15-1.8,6.1-2.82,3.79-2.02,7.73-4.56,12.2-4.38,5.07.22,9.18,3.71,13.07,6.61,12.04,9.94,20.89.51,33.1,3.38,4.18,1.19,7.51,4.3,11.32,6.24"/><path class="b" d="M8.45,142.94c2.29,0,4.68,0,6.97,0,1.44-.08,3.29.38,4.36-.85,8-6.41,15.05-16.45,26.13-17.03,2.59.03,5.26.46,7.84.06,4.95-.57,9.83-1.95,14.81-2.22,4.75-.27,9.7.49,13.94,2.71,3.19,1.69,6.24,3.83,9.58,5.23,5.11,2.36,10.61,1.68,15.68-.41,1.69-.66,3.55-1.28,5.23-1.96,2-.86,4.06-1.93,6.1-2.7,10.02-4.17,16.31,3.84,23.52,9.29,3.52,2.58,7.84,4.06,12.2,4.31,5.5.4,11.1-.79,16.55.28,3.03.6,5.82,2.2,8.71,3.25,1.08.03,2.4.02,3.48.02"/><path class="b" d="M8.45,138.21c4.34,0,8.73,0,13.07,0,1.7-.07,3.56.17,5.23-.17,1.41-1.13,2.96-2.41,4.36-3.55,4.05-3.25,8.19-6.68,13.07-8.6,3.06-1.21,6.52-.97,9.58-2.19,5.96-2.07,11.87-4.95,18.29-5.09,4.46-.13,9.02.68,13.07,2.6,11.51,5.55,15.8,5.4,27.88,1.76,5.8-2.18,11.35-4.83,17.42-1.73,5.02,2.46,8.77,6.83,13.07,10.29,4.03,3.23,8.79,5.86,13.94,6.68,1.39,0,2.96,0,4.36,0,7.25,0,14.53,0,21.78,0"/><path class="b" d="M8.45,133.48c9.28-.09,18.61.17,27.88-.1,3.04-2.32,6.12-4.82,9.58-6.5,1.34-.66,2.97-1,4.36-1.52,1.76-.68,3.57-1.63,5.23-2.53,9.69-5.58,15.77-7.38,27.01-5.69,4.08.81,8.07,2.26,12.2,2.84,4.63.74,9.37.2,13.94-.68,3.6-.44,7.04-1.57,10.45-2.73,6.14-2.09,11.6-.7,16.55,3.34,3.97,3.12,7.39,7,11.32,10.16,1.62,1.17,3.27,2.85,5.23,3.41,10.45,0,20.92,0,31.36,0"/><path class="b" d="M8.45,128.75c8.12,0,16.27,0,24.39,0,3.75,0,7.57,0,11.32,0,1.74-.71,3.35-1.92,5.23-2.55,6.61-3.25,12.52-8.43,20.04-9.49,2.85-.47,5.83-.42,8.71-.43,2.59-.11,5.26-.1,7.84.15,6.66.74,13.42.74,20.04-.4,2.57-.46,5.3-.51,7.84-1.11,2.91-.76,5.76-2.02,8.71-2.64,12.3-2.8,19.29,10.18,27.88,16.42,11.02.11,22.08,0,33.1.04"/><path class="b" d="M8.45,124.02c9.28,0,18.59,0,27.88,0,2.88,0,5.83,0,8.71,0,1.4,0,2.96,0,4.36,0,.88-.08,1.86-.71,2.61-1.11,5.62-3.26,11.62-6.53,18.29-6.56,2.29-.08,4.68.08,6.97.07,1.7.01,3.53-.26,5.23-.35,4.34-.2,8.75-.17,13.07-.7,5.83-.7,11.57-2.16,17.42-2.69,3.57-.78,6.9-2.6,10.45-3.43,9.25-2.52,15.89,4.91,21.78,10.82,1.05,1,2.36,2.15,3.48,3.05,0,0,.87.67.87.67l.87.22c3.46,0,6.99,0,10.45,0,7.54,0,15.11,0,22.65,0"/><path class="b" d="M8.45,119.29c14.51,0,29.04,0,43.56,0,1.69-.13,3.66.35,5.23-.37,3.04-1.21,6.31-2.04,9.58-2.23,4.05-.29,8.15.47,12.2.11,4.02-.62,8.16-.7,12.2-1.19,3.82-.44,7.63-1.35,11.32-2.4,3.41-1.05,6.94-1.84,10.45-2.38,2.37-.6,4.69-1.68,6.97-2.56,8.34-3.53,14.35-1.37,20.91,4.37,2.74,2.35,5.44,5.04,8.71,6.63,3.17,0,6.41,0,9.58,0,8.12,0,16.27,0,24.39,0"/><path class="b" d="M8.45,114.56c20.32,0,40.66,0,60.98,0,5.79,0,11.63,0,17.42,0,1.7,0,3.53,0,5.23,0,1.4-.03,3,.14,4.36-.29,3.86-.97,7.58-2.59,11.32-3.92,2.55-.92,5.34-1.33,7.84-2.4,6-2.54,11.96-4.58,18.29-1.75,5.28,2.12,9.42,6.45,14.81,8.34,11.61.07,23.24,0,34.85.02"/><path class="b" d="M8.45,109.83c21.77,0,43.56,0,65.34,0,9.86,0,19.75,0,29.62,0,1.84.08,3.53-1.3,5.23-1.89,2.55-1.06,5.28-1.89,7.84-2.93,4.95-2.01,10.56-2.82,15.68-.96,3,.98,5.87,2.53,8.71,3.87,1.9.84,3.99,1.86,6.1,1.9,12.19,0,24.4,0,36.59,0"/><path class="b" d="M8.45,105.1c22.36,0,44.72,0,67.08,0,7.83,0,15.69,0,23.52,0,3.17-.04,6.42.08,9.58-.06,2.5-1.24,5.2-2.31,7.84-3.22,4.18-1.45,8.81-1.69,13.07-.43,3.27.9,6.4,2.42,9.58,3.56,4.31.38,8.74.04,13.07.15,10.45,0,20.91,0,31.36,0"/><path class="b" d="M8.45,100.37c23.23,0,46.46,0,69.69,0,10.74,0,21.5,0,32.23,0,1.47-.23,2.93-1.14,4.36-1.56,2.21-.77,4.62-1.3,6.97-1.36,4.22-.12,8.32,1.34,12.2,2.86,2.28.14,4.68.03,6.97.06,3.75,0,7.57,0,11.32,0,2.29-.16,4.65-.78,6.97-.67,2.02-.06,4.1.53,6.1.67,6.08,0,12.21,0,18.29,0"/><path class="b" d="M8.45,95.64c30.78,0,61.56,0,92.34,0,2.88,0,5.84,0,8.71,0,1.72-.03,3.6.2,5.23-.49,3.63-1.13,7.58-1.44,11.32-.69,1.73.23,3.49,1.1,5.23,1.18,6.67,0,13.37,0,20.04,0,3.11-.88,6.31-1.86,9.58-1.8,3.33-.11,6.43,1.05,9.58,1.8,4.34,0,8.73,0,13.07,0"/><path class="b" d="M8.45,90.91c32.8-.08,65.62.04,98.44,0,1.99,0,4.1,0,6.1,0,2.26-.46,4.65-.87,6.97-.86,2.32-.04,4.71.39,6.97.86,4.34,0,8.73,0,13.07,0,4.34,0,8.73,0,13.07,0,1.44-.26,2.93-1.02,4.36-1.38,1.94-.57,4.07-.95,6.1-1,3.91-.19,7.68,1.19,11.32,2.38,2.88,0,5.84,0,8.71,0"/><path class="b" d="M8.45,86.18c2.38-.84,4.5-2.59,6.97-3.25,4-.79,8.11-1.61,12.2-1.8,6.14-.29,11.91,2.18,17.42,4.57,1.86.86,4.11.35,6.1.48,3.17,0,6.41,0,9.58,0,9.57,0,19.17,0,28.75,0,4.34,0,8.73,0,13.07,0,4.32-.65,8.69-1.4,13.07-1.41,3.51-.09,7.09.36,10.45,1.35,3.16.14,6.41.02,9.58.06,4.34,0,8.73,0,13.07,0,1.39,0,2.96,0,4.36,0,1.13.04,2.48.03,3.48-.57,5.41-2.49,11.77-3.61,17.42-1.25,1.4.56,2.96,1.25,4.36,1.82,1.69.01,3.53,0,5.23,0"/><path class="b" d="M8.45,80.17c1.98-1.06,4.03-2.26,6.1-3.15,1.64-.71,3.53-1.06,5.23-1.61,4.74-1.55,9.9-2.72,14.81-1.26,3.71,1.01,7.1,3.04,10.45,4.88,1.08.58,2.36,1.25,3.48,1.73.77.34,1.75.82,2.61.69,9.57,0,19.17,0,28.75,0,1.46-.08,2.93-.95,4.36-1.26,2.54-.72,5.23-1.23,7.84-1.63,5.18-.74,10.45-1.32,15.68-1.25,3.77.15,7.6.64,11.33,1.21,2.33.4,4.73,1.02,6.97,1.78,1.09.34,2.35.95,3.48,1.14.42,0,1.32,0,1.74,0,7.54,0,15.11,0,22.65,0,.41,0,1.33,0,1.74-.03,1.38-.69,2.94-1.46,4.36-2.07,3.26-1.42,6.86-2.52,10.45-2.14,4.61.42,8.49,3.83,13.07,4.25"/><path class="b" d="M8.45,76.05c2.91-1.19,5.74-2.76,8.71-3.79,2.61-.97,5.19-2.27,7.84-3.11,5.44-1.95,10.93-.61,15.68,2.41,9.88,6.08,5.84,5.14,17.42,5.16,5.79,0,11.63,0,17.42,0,1.48.06,2.99-1.27,4.36-1.8,1.96-.97,4.07-1.93,6.1-2.75,7.11-2.91,15-4.57,22.65-3.18,4.34.98,8.76,1.93,13.07,3.05,3.87,1.07,7.65,2.63,11.32,4.25.99.6,2.38.38,3.48.42,1.39,0,2.96,0,4.36,0,4.34,0,8.73,0,13.07,0,6.13-2.28,12.26-7.14,19.17-5.19,3.58,1.21,6.88,3.3,10.45,4.53"/><path class="b" d="M8.45,71.99c1.4,0,2.95,0,4.36,0,4.8-1.75,9.12-4.67,13.94-6.35,5.13-1.84,10.49-.01,14.81,2.93,1.11.71,2.39,1.6,3.48,2.34.75.48,1.66,1.28,2.61,1.08,3.46,0,6.99,0,10.45,0,4.92,0,9.89,0,14.81,0,.93.19,1.87-.57,2.61-1.02,1.38-.86,2.93-1.82,4.36-2.6,5.29-2.85,10.65-5.89,16.55-7.25,3.98-.93,8.22-.95,12.2,0,2.31.57,4.65,1.46,6.97,1.99,3.8.94,7.66,1.91,11.32,3.29,4.12,1.5,8.09,3.53,12.2,5.07,1.32.63,2.94.53,4.36.52,1.99,0,4.11,0,6.1,0,2.11.02,4.16-1.2,6.1-1.93,3.96-1.72,7.89-3.87,12.2-4.55,5.88-1.1,10.75,3.19,15.68,5.66"/><path class="b" d="M8.45,67.26c2.58,0,5.26,0,7.84,0,1.4-.11,3.07.31,4.36-.36,2.22-1.25,4.55-2.56,6.97-3.38,3.07-1.08,6.51-1.11,9.58-.03,1.79.6,3.6,1.54,5.23,2.49,1.03.63,2.2,1.48,3.48,1.28,7.54,0,15.11,0,22.65,0,1.4-.07,3.01.2,4.36-.22,2.27-1.5,4.59-3.15,6.97-4.48,7.33-4.09,14.84-9.08,23.52-9.23,5.13-.18,9.9,2.08,14.81,3.21,4.14,1.09,8.27,2.49,12.2,4.2,3.73,1.58,7.42,3.48,11.32,4.6,7.61,2.27,14.75-2.62,21.78-4.81,8.85-3.03,13.15.81,20.04,5.71"/><path class="b" d="M8.45,62.53c5.79,0,11.63,0,17.42,0,1.44-.24,2.91-1.04,4.36-1.31,2.55-.61,5.3-.58,7.84.05,1.73.34,3.42,1.43,5.23,1.26,4.05,0,8.15,0,12.2,0,3.75,0,7.57,0,11.32,0,1.09,0,2.39,0,3.48,0,.86.05,1.94,0,2.61-.6,3.66-2.39,7.57-4.48,11.32-6.71,4.22-2.55,8.45-5.3,13.07-7.08,6.97-2.7,11.5-1.88,18.29.56,7.2,2.19,13.99,5.54,20.91,8.45,10.93,4.89,15.98.17,26.13-3.1,9.49-3.01,14.1.6,20.91,6.75"/><path class="b" d="M8.45,57.8c20.9,0,41.82,0,62.72,0,1.22.1,2.4-.88,3.48-1.34,1.69-.86,3.52-1.8,5.23-2.63,6.94-3.41,12.82-8.8,20.04-11.69,6.57-2.69,11.16-1.34,17.42,1.21,6.43,2.53,12.58,5.87,19.17,8.02,8.6,2.98,12.85.88,20.91-2.05,5.82-2.17,12.65-3.2,18.29-.02,2.91,1.73,5.39,4.24,7.84,6.54"/><path class="b" d="M8.45,53.07c20.32,0,40.66,0,60.98,0,1.4-.05,2.98.13,4.36-.15,1.1-.38,2.4-.86,3.48-1.27,7.75-2.62,13.81-8.4,20.91-12.25,3.93-2.15,8.58-3.7,13.07-2.6,7.5,1.98,14.28,6.11,21.78,8.11,3.94,1.05,8.12,1.78,12.2,1.4,3.85-.49,7.56-1.91,11.33-2.78,6.36-1.69,13.32-1.06,19.17,2.03,2.88,1.7,5.36,4.15,7.84,6.36"/><path class="b" d="M8.45,48.34c15.39,0,30.79,0,46.17,0,5.21,0,10.47,0,15.68,0,2.29,0,4.68,0,6.97,0,1.46-.2,3-.8,4.36-1.35,8.96-3.85,16.11-12.11,26.13-13.27,2.95-.27,5.92.65,8.71,1.49,4.58,1.46,9.18,3.13,13.94,3.9,5.16.81,10.5.86,15.68.22,4.88-.79,9.85-1.93,14.81-1.23,4.26.53,8.31,2.21,12.2,3.94,3.59,1.37,6.6,3.94,9.58,6.29h.87"/><path class="b" d="M8.45,42.12c1.96.61,4.05,1.2,6.1,1.41,1.7.18,3.53-.09,5.23-.05,5.21.22,10.47.1,15.68.13,14.51,0,29.04,0,43.56,0,1.09-.02,2.4.05,3.48-.08,2.7-1.07,5.33-2.54,7.84-4,5.97-3.41,12.08-7.6,19.17-7.93,3.79,0,7.57.89,11.32,1.28,4.03.49,8.16.56,12.2.2,6.07-.6,12.19-1.38,18.29-1.34,4.23.08,8.42,1.3,12.2,3.19,4.11,2.06,8.03,4.63,12.2,6.58,1.11.61,2.37,1.5,3.48,2.12,1.39,0,2.96,0,4.36,0"/><path class="b" d="M8.45,36.21c2.22.93,4.58,1.84,6.97,2.23,3.16.37,6.4.5,9.58.44,4.92,0,9.89,0,14.81,0,10.16,0,20.33,0,30.49,0,3.46,0,6.99,0,10.45,0,1.99-.07,4.13.16,6.1-.14,6.43-2.43,12.54-5.79,19.17-7.69,4.8-1.39,9.92-1.21,14.81-2.11,8.76-1.21,17.18-5.05,26.13-4.59,10.65.22,17.72,8.81,26.13,14.03,1.21.86,2.96.37,4.36.49,1.99,0,4.11,0,6.1,0"/><path class="b" d="M8.45,31.69c1.66.87,3.48,1.76,5.23,2.44,2.29.04,4.68,0,6.97.02,5.21,0,10.47,0,15.68,0,15.68,0,31.37,0,47.04,0,3.75,0,7.57,0,11.32,0,5.68-1.32,11.03-3.93,16.55-5.77,6.51-2.17,12.75-5.15,19.17-7.57,7.13-2.65,15.48-5.13,22.65-1.33,6.82,3.49,11.62,9.77,17.42,14.59,4.33.22,8.73.02,13.07.09"/><path class="b" d="M8.45,28.14c.78.42,1.75,1.05,2.61,1.29.47,0,1.28,0,1.74,0,2,0,4.1,0,6.1,0,5.79,0,11.63,0,17.42,0,16.84,0,33.69,0,50.53,0,5.79,0,11.63,0,17.42,0,2.78-.95,5.3-2.8,7.84-4.23,8.17-5.15,16.49-10.63,26.13-12.45,3.7-.73,7.65-1.48,11.32-.23,8.51,2.97,13.62,11.07,20.04,16.91h13.94"/><path class="b" d="M8.45,24.69c27.29,0,54.59,0,81.89,0,5.5,0,11.05,0,16.55,0,.95-.13,1.88-1.05,2.61-1.6,1.41-1.13,2.96-2.44,4.36-3.59,5.39-4.5,11.36-8.71,18.29-10.34,2.83-.71,5.82-1.04,8.71-1.43,1.98-.29,4.09-.71,6.1-.49,7.35.77,12.6,6.8,17.42,11.82,1.07,1.15,2.38,2.53,3.48,3.66.69.66,1.6,1.83,2.61,1.97,4.34,0,8.73,0,13.07,0"/></svg>