<?xml version="1.0" encoding="UTF-8"?><svg id="a" xmlns="http://www.w3.org/2000/svg" width="1920" height="2400" viewBox="0 0 192 240"><defs><style>.b{fill:none;stroke:#fff;stroke-miterlimit:10;stroke-width:.4px;}.c{stroke-width:0px;}</style></defs><rect class="c" width="192" height="240"/><path class="b" d="M8.03,222.99c2.02.61,4.17,1.25,6.13,2.05,2.06.85,4.09,2.06,6.13,2.96,2.26.4,4.71.08,7,.18,4.36,0,8.77,0,13.13,0,6.99-.01,14.02.03,21.01-.02,4.88-1.83,9.86-3.51,14.88-4.9,5.18-1.54,10.48-2.77,15.76-3.91,4.34-.94,8.72-1.98,13.13-2.51,12.06-1.97,22.16,6.17,32.39,11.16,2.26.41,4.71.08,7,.18,4.36,0,8.77,0,13.13,0,7.49-.11,15.34.22,22.76-.13,1.08-.86,2.38-1.87,3.5-2.67"/><path class="b" d="M8.03,220.93c1.71.51,3.56,1.03,5.25,1.58,1.11.3,2.33,1.04,3.5.91,6.41,0,12.85,0,19.26,0,4.07-.02,8.19.05,12.26-.03,7.59-1.68,15.06-4.01,22.76-5.19,11.45-1.77,22.58-5.51,34.14-6.6,8.94-1.03,16.15,2.88,23.63,7.18,1.99,1.13,4.1,2.32,6.13,3.37,1.06.47,2.28,1.43,3.5,1.27,9.33,0,18.68,0,28.01,0,4.06,0,8.19,0,12.26,0,.48-.02,1.38-.4,1.75-.72,1.06-.65,2.38-1.37,3.5-1.91"/><path class="b" d="M8.03,218.67c9.62,0,19.27,0,28.89,0,.46,0,1.3,0,1.75,0,.79-.38,1.84-.91,2.63-1.3,2.24-1.09,4.61-2.19,7-2.9,4.52-1.37,9.28-2.13,14.01-2.12,4.95-.06,9.94.69,14.88.25,5.66-.72,11.07-2.85,16.63-4.01,9.78-2.3,18.89-1.8,28.01,2.58,4.06,1.78,8.12,3.74,12.26,5.35,2.26.76,4.61,1.98,7,2.16,4.65,0,9.35,0,14.01,0,6.11,0,12.27,0,18.38,0,3.45-1.25,6.82-3.01,10.5-3.54"/><path class="b" d="M8.03,213.92c8.16,0,16.35,0,24.51,0,1.7-.12,3.65.32,5.25-.31.79-.56,1.84-1.33,2.63-1.89,6.09-4.62,12.31-7.59,20.13-6.37,5.03.66,9.83,2.7,14.88,3.2,4.56.47,8.88-1.61,13.13-2.96,8.59-3.14,15.74-3.07,24.51-.75,4.11,1.1,8.16,2.63,12.26,3.78,3.99,1.15,8.14,1.93,12.26,2.53,6.36,1,12.78,2.34,19.26,1.75,9.14-.39,17.97-4.1,27.14-3.53"/><path class="b" d="M8.03,209.17h29.76c6.59-5.09,12.75-11.62,21.88-9.74,4.55.8,8.73,3,13.13,4.32,2.82.89,5.94,1.1,8.75.09,4.67-1.51,9.11-3.94,14.01-4.7,7.79-1.29,15.27,2.2,22.76,3.8,6,1.56,12.26,1.41,18.38.86,3.2-.35,6.44.17,9.63.26,5.85-.1,11.65-1.44,17.51-1.56,6.73-.16,13.49.59,20.13,1.59"/><path class="b" d="M8.03,204.41h31.51c7.83-5.89,12.93-12.04,23.63-8.69,4.4,1.25,8.55,3.6,13.13,4.19,5.64.57,10.48-3.29,15.76-4.63,5.94-1.92,11.8-.34,17.51,1.55,4.82,1.33,9.85,2.46,14.88,2.06,5.37-.32,10.45-2.5,15.76-3.19,2.3-.26,4.71.18,7-.12,4.64-.49,9.32-1.46,14.01-1.03,4.5.33,8.84,1.83,13.13,3.13,3.12.92,6.4,1.58,9.63,1.95"/><path class="b" d="M8.03,199.66c9.62,0,19.27,0,28.89,0,1.71,0,3.55,0,5.25,0,1.25-.5,2.42-1.63,3.5-2.4,5.54-4.65,11.09-7,18.38-5.43,5.47.98,10.99,3.87,16.63,2.47,3.28-.84,6.4-2.39,9.63-3.37,3.36-1.08,7.01-1.46,10.5-.9,2.95.43,5.86,1.42,8.75,2.12,4.28.89,8.77,1.4,13.13.88,5.76-.62,11.03-3.36,16.63-4.65,2.56-.6,5.28-.18,7.88-.41,4.66-.36,9.47-.55,14.01.78,8.02,2.28,13.94,7.2,22.76,7.13"/><path class="b" d="M8.03,194.91c12.25,0,24.52,0,36.77,0,1.32.21,2.47-.93,3.5-1.58,1.07-.72,2.36-1.5,3.5-2.09,3.77-1.96,8.02-3.01,12.26-3.21,5.52-.33,11.16.67,16.63-.4,10.23-2.44,14.13-3.1,24.51-.21,6.01,1.65,12.46.83,18.38-.8,4.49-1.29,8.73-3.41,13.13-4.94,2.78-1.06,5.81-1.32,8.75-1.19,2.3-.03,4.72-.04,7,.25,12.51,1.49,18.4,12.21,31.51,12.44"/><path class="b" d="M8.03,190.16c11.66,0,23.35,0,35.01,0,2.3,0,4.7,0,7,0,2.55-1.2,5.22-2.34,7.88-3.27,5.41-1.92,11.01-3.42,16.63-4.59,4.87-.97,9.9-1.82,14.88-1.33,5.7.45,11.03,2.85,16.63,3.78,3.58.67,7.15-.55,10.5-1.68,7.84-2.51,14.79-7.38,22.76-9.48,2.26-.57,4.7-.46,7-.45,4.6-.05,9.22,1.13,13.13,3.58,5.84,3.38,10.32,8.96,16.63,11.55,2.49,1.03,5.13,2.17,7.88,1.9"/><path class="b" d="M8.03,185.4c14,0,28.02,0,42.02,0,2,0,4.12,0,6.13,0,3.56-1.11,7.09-2.54,10.5-4.02,9.03-4.03,14.52-6.69,24.51-3.46,4.34,1.28,8.6,3.22,13.13,3.75,5.2.8,9.67-2.48,14.01-4.84,6.98-3.9,13.86-8.71,21.88-10.06,13.64-1.41,18.59,2.62,28.01,11.62,3.01,2.97,6.58,5.42,10.5,7.01,1.7,0,3.55,0,5.25,0"/><path class="b" d="M8.03,180.65c15.46,0,30.93,0,46.39,0,2.89,0,5.86,0,8.75,0,2.75-.68,5.32-2.23,7.88-3.41,3.29-1.6,6.76-3.41,10.5-3.47,7.28-.1,13.78,4.27,21.01,4.56,6.06.43,10.25-3.65,14.88-6.85,6.57-4.65,13.7-9.28,21.88-10.17,14.03-.92,18.3,1.46,28.01,11.35,3.06,3.15,6.45,6.21,10.5,8,2,0,4.13,0,6.13,0"/><path class="b" d="M8.03,175.9c16.63,0,33.27,0,49.9,0,3.19,0,6.44,0,9.63,0,.79,0,1.85.03,2.63-.09,1.1-.48,2.4-1.08,3.5-1.56,9.29-4.82,16-.18,25.39.06,7.28.16,11.33-3.51,16.63-7.77,6.31-4.95,13.67-9.27,21.88-9.52,2.6-.15,5.28.17,7.88.3,9.95-.09,15.34,4.76,21.88,11.54,2.67,2.53,5.23,5.73,8.75,7.06,2.59,0,5.28,0,7.88,0"/><path class="b" d="M8.03,171.14c15.17,0,30.35,0,45.52,0,5.24,0,10.52,0,15.76,0,2.3,0,4.7,0,7,0,1.08-.34,2.38-.7,3.5-.88,9.5-1.25,18.15.96,27.14-4.07,3.44-1.83,6.36-4.6,9.63-6.69,7.17-4.91,15.04-6.82,23.63-5.23,3.46.69,7.05,1,10.5,1.73,8.81,1.91,14.51,9.48,21.01,15.06,4.06.2,8.19.02,12.26.08"/><path class="b" d="M8.03,166.39c23.05,0,46.11,0,69.15,0,3.77,0,7.61,0,11.38,0,4.48-1.07,8.86-2.86,13.13-4.57,4.58-1.82,8.85-4.38,13.13-6.78,4.05-2.13,8.53-3.69,13.13-3.93,6.05-.42,11.86,1.69,17.51,3.58,4.16,1.18,8.42,2.37,12.26,4.41,4.01,2.02,7.62,4.86,11.38,7.29h14.88"/><path class="b" d="M8.03,161.64c19.55,0,39.1,0,58.65,0,4.94,0,9.94,0,14.88,0,1.71,0,3.55,0,5.25,0,.44,0,1.31,0,1.75,0,.46-.18,1.33-.62,1.75-.88,5.02-2.92,10.23-5.64,15.76-7.45,8.95-2.99,18.54-6.35,28.01-3.75,4.7,1.08,8.85,3.7,13.13,5.78,5.1,2.4,10.43,4.38,15.76,6.2,6.97.28,14.02.02,21.01.1"/><path class="b" d="M8.03,156.89h77.91c9.2-6.29,13.56-10.1,25.39-9.74,7.56-.11,15.3-1.83,22.76.17,3.48.9,6.79,2.64,9.63,4.84,1.66,1.23,3.49,2.52,5.25,3.6.74.43,1.72,1.16,2.63,1.13,10.79,0,21.6,0,32.39,0"/><path class="b" d="M8.03,152.13c17.5,0,35.02,0,52.52,0,4.65,0,9.35,0,14.01,0,2.29-.1,4.74.22,7-.18,1.16-.59,2.45-1.45,3.5-2.2,3.63-2.62,7.15-5.67,11.38-7.29,5.73-2.35,11.02-.13,16.63,1.21,5.19.99,10.52.14,15.76.21,4.66,0,9.43,1.25,13.13,4.16,1.77,1.22,3.24,3.28,5.25,4.09,1.4,0,2.98,0,4.38,0,8.45,0,16.93,0,25.39,0,2.29-.18,4.69-.52,7-.35"/><path class="b" d="M8.03,147.38c20.13,0,40.27,0,60.4,0,2.05.14,4.14-.43,6.13-.87,2.36-.57,4.85-1.2,7-2.36,4.97-2.83,9.15-7.4,14.88-8.73,6-1.5,11.31,2.43,16.63,4.49,3.06,1.06,6.42,1.23,9.63,1.08,9.76-.67,15.41-1.22,22.76,6.37,9.04.09,18.1,0,27.14.03,1.48-.21,2.91-1.22,4.38-1.58,2.23-.71,4.66-1.12,7-1.15"/><path class="b" d="M8.03,142.63c12.83,0,25.68,0,38.52,0,3.48,0,7.03,0,10.5,0,2.3-.12,4.8.36,7-.45,5.2-1.64,10.65-2.62,15.76-4.55,2.77-1.11,5.3-2.91,7.88-4.4,5.78-3.57,11.32-4.39,17.51-1.23,2.34,1.11,4.65,2.55,7,3.64,5.5,2.52,11.68,1.46,17.51,1.21,3.25-.12,6.66.22,9.63,1.64,1.18.55,2.49,1.39,3.5,2.21.74.61,1.72,1.56,2.63,1.92,1.7,0,3.55,0,5.25,0,6.7,0,13.43,0,20.13,0,3.91-2.57,8.45-4.25,13.13-4.61"/><path class="b" d="M8.03,137.88c16.63,0,33.27,0,49.9,0,1.2.14,2.41-.73,3.5-1.11,1.39-.59,2.96-1.23,4.38-1.77,3.98-1.54,8.16-2.71,12.26-3.88,8.31-2.5,14.64-6.59,23.63-3.39,3.93,1.27,7.51,3.58,11.38,5,11.48,3.32,20.47-4.08,31.51,5.1,7.57.16,15.18,0,22.76.06.92-.1,1.87-.89,2.63-1.35,1.07-.68,2.37-1.46,3.5-2.02,3.29-1.49,6.92-2.39,10.5-2.78"/><path class="b" d="M8.03,133.12c16.63,0,33.27,0,49.9,0,.87.13,1.88-.36,2.63-.77,1.4-.71,2.96-1.5,4.38-2.17,3.62-1.73,7.47-3.14,11.38-4.05,10.33-2.55,19.6-2.63,29.76.74,2.61.75,5.21,1.9,7.88,2.42,6.67,1.09,13.46-1.08,20.13.12,2.08.34,4.22,1.02,6.13,1.92,1.13.49,2.33,1.39,3.5,1.78,5.24,0,10.52,0,15.76,0,1.4,0,2.98,0,4.38,0,1.22-.26,2.42-1.2,3.5-1.78,1.37-.82,2.94-1.72,4.38-2.42,3.81-1.78,8.12-2.38,12.26-2.91"/><path class="b" d="M8.03,128.37c17.5,0,35.02,0,52.52,0,1.3.17,2.43-.41,3.5-1.05,1.09-.57,2.38-1.22,3.5-1.72,3.3-1.51,6.89-2.57,10.5-2.96,3.76-.48,7.62-.13,11.38.19,3.76.33,7.6.55,11.38.64,2.6.08,5.29.13,7.88.44,3.17.53,6.4,1.17,9.63.94,9.59-.51,13.84-.37,22.76,3.53,6.41,0,12.85,0,19.26,0,1.23.17,2.47-.7,3.5-1.26,1.39-.78,2.96-1.65,4.38-2.38,4.78-2.76,10.42-2.9,15.76-3.61"/><path class="b" d="M8.03,123.62c13.12,0,26.27,0,39.39,0,6.41,0,12.85,0,19.26,0,.85-.03,1.85-.55,2.63-.84,1.37-.51,2.94-.97,4.38-1.26,4.91-1.1,9.95-.22,14.88.19,3.8.28,7.68-.12,11.38-1.01,2.88-.65,5.8-1.56,8.75-1.82,2.01-.19,4.12.28,6.13.27,4.96.03,10.06-.17,14.88,1.23,1.75.48,3.59,1.16,5.25,1.89,1.1.41,2.3,1.31,3.5,1.36,7.28,0,14.6,0,21.88,0,1.25.17,2.41-.96,3.5-1.44,2.23-1.21,4.59-2.44,7-3.25,1.93-.7,4.1-.85,6.13-.98,2.31-.19,4.71-.46,7-.79"/><path class="b" d="M8.03,118.86c19.25,0,38.52,0,57.77,0,5.53,0,11.1,0,16.63,0,2,0,4.12,0,6.13,0,1.42.03,3,.02,4.38-.39,4.9-1.13,9.26-3.89,14.01-5.47,2.81-1.04,5.85-.4,8.75-.34,4.12.12,8.34.52,12.25,1.91,3.05,1.05,5.99,2.61,8.75,4.25,7.57.09,15.18,0,22.76.03,1.4,0,2.98,0,4.38,0,2.31-.89,4.59-2.18,7-2.83,1.94-.62,4.11-.69,6.13-.82,2.32-.19,4.73-.57,7-1.05"/><path class="b" d="M8.03,113.94c1.99-.31,4.13-.47,6.13-.16,1.68.45,3.53.31,5.25.32,15.46,0,30.93,0,46.39,0,9.32-.11,18.7.21,28.01-.12,4.23-1.98,8.03-4.87,12.25-6.85,1.33-.6,2.91-1.13,4.38-1.23,1.1-.04,2.41.1,3.5.16,3.86.23,7.79.86,11.38,2.34,3.42,1.38,6.63,3.41,9.63,5.53,1.97.38,4.13.09,6.13.17,3.18,0,6.44,0,9.63,0,6.11,0,12.27,0,18.38,0,1.44-.17,2.93-.89,4.38-1.08,3.54-.38,7.11-1,10.5-2.1"/><path class="b" d="M8.03,105.97c2.99.09,6.11.63,8.75,2.09.79.41,1.77,1.06,2.63,1.3,1.41,0,2.97,0,4.38,0,17.79,0,35.6,0,53.4,0,3.48,0,7.03,0,10.5,0,1.7,0,3.55,0,5.25,0,.85-.26,1.87-.92,2.63-1.38,4.29-2.56,8.31-5.91,13.13-7.43,3.42-.85,7.13-.25,10.5.57,5.28,1.45,9.85,4.77,14.01,8.23,10.2.04,20.43,0,30.64.02,4.36,0,8.77,0,13.13,0,2.45.16,4.76-1.19,7-1.99"/><path class="b" d="M8.03,98.9c4.2.91,8.09,2.95,11.38,5.7,18.67.02,37.35,0,56.02,0,3.48,0,7.03,0,10.5,0,1.4-.04,2.99.11,4.38-.12,1.1-.52,2.41-1.17,3.5-1.72,4.62-2.29,9.08-5.15,14.01-6.77,9.02-2.86,17.35,2.55,23.63,8.58,11.08.1,22.18,0,33.26.04,4.07,0,8.19,0,12.26,0,1.09,0,2.41,0,3.5,0,1.16.07,2.51,0,3.5-.69"/><path class="b" d="M8.03,92.54c4.28,1.57,8.04,4.26,11.38,7.31,19.55,0,39.1,0,58.65,0,1.1,0,2.4,0,3.5,0,2.04-.73,4.04-1.92,6.13-2.58,4.28-1.51,8.75-2.62,13.13-3.78,6.55-1.62,13.77-4.01,20.13-.53,3.24,1.62,6.12,4.04,8.75,6.52.71.47,1.82.38,2.63.37,1.09,0,2.41,0,3.5,0,3.48,0,7.03,0,10.5,0,12.54,0,25.1,0,37.64,0"/><path class="b" d="M8.03,86.3c2.81,1.23,5.56,2.87,7.88,4.88,1.49,1.15,2.72,3.01,4.38,3.92,17.21,0,34.44,0,51.65,0,1.23.16,2.47-.35,3.5-.96,1.81-.92,3.61-2.16,5.25-3.34,2.33-1.55,5.11-2.51,7.88-2.86,5.22-.65,10.52.19,15.76.16,1.71,0,3.55-.08,5.25-.26,2.29-.31,4.71-.64,7-.15,3.2.61,6.18,2.3,8.75,4.26,4.15,3.11,2.31,3.29,7.88,3.15,16.92,0,33.85,0,50.77,0"/><path class="b" d="M8.03,79.32c6.57,2.22,9.46,6.38,14.01,11.03,13.42,0,26.85,0,40.27,0,.79,0,1.84.02,2.63-.06,1.7-.86,3.54-1.75,5.25-2.58,3.93-1.77,7.68-4.02,11.38-6.21,8.97-4.15,19.19,3.34,28.89,2.32,4.59-.78,9.3.46,13.13,3.05,1.48.95,3.04,2.16,4.38,3.31,2.26.41,4.71.08,7,.18,16.34,0,32.69,0,49.02,0"/><path class="b" d="M8.03,72.1c6.91,1.96,11.39,7.89,15.76,13.18,1.6.64,3.56.19,5.25.32,2.89,0,5.86,0,8.75,0,6.99-.07,14.03.13,21.01-.08,5.01-3.84,10.66-6.84,16.63-8.87,3.14-1.06,6.22-2.84,9.63-2.74,4.53.02,8.87,1.71,13.13,3.07,4.51,1.5,9.22,2.71,14.01,2.66,3.4.14,6.74,1.41,9.63,3.16.8.48,1.87,1.2,2.63,1.75.67.58,1.7,1.22,2.63,1.05,3.18,0,6.44,0,9.63,0,15.75,0,31.52,0,47.27,0"/><path class="b" d="M8.03,65.95c7.94,2.51,12.38,8.73,17.51,14.78,9.6.3,19.27.01,28.89.11,4.77-4.12,9.38-9.08,15.76-10.59,3.7-.89,7.6-.82,11.38-1.03,4.81.11,9.45,1.77,14.01,3.17,4.59,1.48,9.28,2.81,14.01,3.75,2.68.47,5.42,1.18,7.88,2.38.8.38,1.86.94,2.63,1.38.73.45,1.73,1.1,2.63.93,3.18,0,6.44,0,9.63,0,17.21,0,34.44,0,51.65,0"/><path class="b" d="M8.03,61.45c9.09,3.65,12.06,7.79,18.38,14.64,5.53,0,11.1,0,16.63,0,1.71,0,3.55,0,5.25,0,1.12-.06,2.52.25,3.5-.42,3.82-4,7.32-8.68,12.26-11.38,4.12-2.37,8.93-1.47,13.13.2,2.28.82,4.72,1.48,7,2.28,7.15,2.6,14.52,4.61,21.88,6.49,1.73.48,3.58,1.06,5.25,1.72.79.31,1.86.77,2.63,1.12.78,0,1.85,0,2.63,0,22.46,0,44.94,0,67.4,0"/><path class="b" d="M8.03,58.41c3.25,1.53,6.57,3.14,9.63,5.04,3.16,2.24,5.85,5.22,8.75,7.77,3.46.27,7.03.03,10.5.11,3.77-.06,7.62.12,11.38-.08,6.54-5.45,12.47-18.9,22.76-14.61,2.85,1.24,5.34,3.34,7.88,5.09,3.03,2.03,6.29,3.89,9.63,5.37,4.19,1.88,8.69,3.06,13.13,4.19,3.77.1,7.61.01,11.38.04,23.63,0,47.27,0,70.9,0"/><path class="b" d="M8.03,55.89c3.47,1.55,7.17,2.83,10.5,4.66,2.74,1.72,5.24,3.96,7.88,5.82,1.95.45,4.13.11,6.13.21,3.19,0,6.44,0,9.63,0,.8,0,1.86.06,2.63-.21.81-.6,1.86-1.47,2.63-2.13,5.74-4.53,9.91-14.01,17.51-15.35,6.01-.39,9.97,5.28,14.01,8.87,2.95,2.71,6.19,5.25,9.63,7.32,1.07.53,2.25,1.61,3.5,1.5,9.91,0,19.85,0,29.76,0,20.71,0,41.44,0,62.15,0"/><path class="b" d="M8.03,53.02c4.81,1.09,9.81,2.08,14.01,4.8,2.76,1.51,5.58,3.57,8.75,4.01,2.3-.04,4.71.09,7-.07,1.15-.37,2.45-.99,3.5-1.59,3.48-2.15,6.78-4.83,9.63-7.77,3.81-3.81,7.4-9.16,13.13-9.94,6.15-.2,10.1,5.67,14.01,9.6,2.43,2.57,5.14,5.04,7.88,7.28,1.32.88,2.65,2.65,4.38,2.48,5.82,0,11.69,0,17.51,0,7.87,0,15.77,0,23.63,0,17.5,0,35.02,0,52.52,0"/><path class="b" d="M8.03,50.02c3.19-.15,6.49-.05,9.63.57,2.04.45,4.13,1.2,6.13,1.8,4.84,1.65,10.27,1.75,14.88-.65,4.7-2.42,9-5.73,13.13-9.01,3.82-3.2,8.78-6.99,14.01-4.94,3.9,1.52,6.84,4.81,9.63,7.8,2.68,3.03,5.61,5.99,8.75,8.55,1.07.88,2.38,1.9,3.5,2.72.76.29,1.83.23,2.63.22,16.34,0,32.69,0,49.02,0,5.82,0,11.69,0,17.51,0,2.3,0,4.7,0,7,0,1.4-.15,2.96-.44,4.38-.46,1.71-.07,3.57.15,5.25.46,1.4,0,2.98,0,4.38,0,2-.09,4.21.29,6.13-.43"/><path class="b" d="M8.03,46.51c2.83-.72,5.83-1.18,8.75-1.12,4.65.15,9.39.94,14.01,0,7.08-1.3,12.93-5.84,19.26-8.98,3.46-1.88,7.32-3.82,11.38-3.3,6.26.93,10.62,6.18,14.88,10.39,3.1,3.26,6.68,6.15,10.5,8.52,1.03.49,2.39.25,3.5.3,1.4,0,2.97,0,4.38,0,16.92,0,33.85,0,50.77,0,2.3,0,4.7,0,7,0,1.58.17,2.99-1.12,4.38-1.7,1.92-.94,4.04-1.78,6.13-2.28,4.03-1.02,8.33-.64,12.26.65,2.85.76,5.92.3,8.75-.32"/><path class="b" d="M8.03,42.39c6.46-2.41,13.47-1.99,20.13-3.42,4.21-.88,8.31-2.43,12.25-4.11,7.58-3.21,16.56-7.09,24.51-2.89,7.74,3.87,13.06,11.35,21.01,14.89,1.01.65,2.33.8,3.5.71,1.7,0,3.55,0,5.25,0,4.65,0,9.35,0,14.01,0,9.33,0,18.68,0,28.01,0,3.18,0,6.44,0,9.63,0,1.09,0,2.41,0,3.5,0,.46.09,1.36-.12,1.75-.4,5.5-4.8,12.5-9.45,20.13-7.65,1.73.32,3.51,1.09,5.25,1.35,2.29.34,4.72.12,7-.19"/><path class="b" d="M8.03,37.91c7.44-2.19,15.22-2.98,22.76-4.77,7.8-1.79,15.56-4.34,23.63-4.45,6.96-.26,13.52,2.65,19.26,6.35,3.15,1.93,6.21,4.22,9.63,5.68,1.97.76,4.04,1.76,6.13,2.1,3.48,0,7.03,0,10.5,0,7.58,0,15.18,0,22.76,0,6.7,0,13.43,0,20.13,0,11.05-.23,6,1.6,14.01-5.5,4.27-3.83,9.99-6.41,15.76-4.73,1.41.35,2.93,1,4.38,1.25,2.28.39,4.71.24,7,0"/><path class="b" d="M8.03,33.6c4.69-.68,9.32-1.89,14.01-2.57,7.25-.98,14.58-1.59,21.88-2.04,6.98-.04,14.08-1.17,21.01-.18,5.57.79,10.78,3.15,15.76,5.68,2.79,1.29,5.85,2.14,8.75,3.13,1.9.76,4.13.32,6.13.43,2.89,0,5.86,0,8.75,0,8.45,0,16.93,0,25.39,0,6.7,0,13.43,0,20.13,0,.41,0,1.33,0,1.75,0,.57-.17,1.39-.92,1.75-1.38,1.33-1.4,2.89-2.92,4.38-4.16,4.06-3.56,9.51-5.73,14.88-4.1,1.41.37,2.93,1.06,4.38,1.29,2.29.38,4.73.14,7-.23"/><path class="b" d="M8.03,30.27c2.32-.04,4.73-.25,7-.73,2.56-.66,5.23-1.27,7.88-1.45,6.4-.51,12.85.08,19.26.26,4.39.19,8.85.31,13.13-.85,7.18-1.81,13.96-2.6,21.01.26,3.45,1.42,6.9,3.03,10.5,4.04,1.72.43,3.48,1.39,5.25,1.51,4.07,0,8.19,0,12.26,0,9.33,0,18.68,0,28.01,0,4.94,0,9.94,0,14.88,0,2,0,4.13,0,6.13,0,1.28-.42,2.37-1.67,3.5-2.38,3.06-2.18,6.7-3.86,10.5-3.98,7.29-.1,8.37,3.32,16.63.52"/><path class="b" d="M8.03,27.14c2.01.2,4.15.16,6.13-.23,1.74-.34,3.5-1.13,5.25-1.45,3.73-.75,7.62-.55,11.38-.15,4.36.47,8.75,1.18,13.13,1.37,2.92.14,5.98.13,8.75-.93,3.76-1.31,7.43-3.16,11.38-3.86,5.81-1.2,11.48,1.16,16.63,3.61,3.08,1.31,6.4,2.18,9.63,3.04,15.17.05,30.35,0,45.52.02,6.99,0,14.02,0,21.01,0,2.75.24,5.15-1.01,7.88-1.16,3.8-.44,7.62.37,11.38.78,2.72.05,5.42-.96,7.88-2.05"/><path class="b" d="M8.03,23.26c2.93.42,6.06.09,8.75-1.17,2.46-1.04,5.22-1.42,7.88-1.33,8.71.25,17.63,4.62,26.26,1.77,3.56-1.43,6.83-3.7,10.5-4.87,10.27-3.4,15.84,5.07,24.51,6.15,32.68,0,65.36,0,98.04,0"/><path class="b" d="M8.03,18.2c2.33.23,4.81-.03,7-.88,1.94-.87,3.97-1.88,6.13-2.08,8.93-.89,17.28,5.03,26.26,3.4,4.21-.74,7.53-3.85,11.38-5.49,6.2-3.01,11.49-.42,16.63,3.27,1.37.89,2.85,2.03,4.38,2.63,1.1,0,2.4,0,3.5,0,33.55,0,67.11,0,100.67,0"/></svg>