<?xml version="1.0" encoding="UTF-8"?><svg id="a" xmlns="http://www.w3.org/2000/svg" width="1920" height="2400" viewBox="0 0 192 240"><defs><style>.b{fill:none;stroke:#fff;stroke-miterlimit:10;stroke-width:.4px;}.c{stroke-width:0px;}</style></defs><rect class="c" width="192" height="240"/><path class="b" d="M8.45,224.61c4.94-6.77,10.38-14.69,19.17-16.4,4.86-.89,9.59,1.15,13.94,3.09,1.66.72,3.47,1.49,5.23,1.95,1.39.34,2.98.47,4.36.85,4.58,1.16,8.66,3.86,12.2,6.92,2.42,2.09,4.76,4.48,6.97,6.79,1.28,1.73,2.47,1.35,4.36,1.37,1.99,0,4.1,0,6.1,0,14.51,0,29.04,0,43.56,0,19.74,0,39.5,0,59.24,0"/><path class="b" d="M8.45,219.81c5.38-6.98,11.91-15.91,21.78-15.19,5.67.47,10.43,4.02,15.68,5.86,2.53.81,5.32.94,7.84,1.82,7.11,2.19,12.92,7.17,18.29,12.13,37.17.02,74.34,0,111.51,0"/><path class="b" d="M8.45,213.59c6.17-7.12,14.01-15.45,24.39-12.46,5.48,1.4,10.13,5.16,15.68,6.3,9.67,1.44,16.75,4.48,24.39,10.58,2.21,1.9,2.41,1.74,5.23,1.69,1.99,0,4.1,0,6.1,0,5.5,0,11.05,0,16.55,0,4.63-.02,9.31.05,13.94-.03,4.15-1.52,8.64-2.42,13.07-2.03,3.83.23,7.55,1.52,11.32,2.06,6.96,0,13.95,0,20.91,0,4.63,0,9.31,0,13.94,0,1.99-.04,4.11.08,6.1-.07,1.08-.53,2.4-1.16,3.48-1.68"/><path class="b" d="M8.45,207.39c7.54-6.64,16.43-13.32,27.01-9.9,5.28,1.54,10.15,4.51,15.68,5.18,12.37,1.57,19.13,4.21,28.75,12.31,8.99,0,18.01,0,27.01,0,1.51-.07,2.89-1.26,4.36-1.62,2.22-.72,4.64-1.15,6.97-1.28,6.15-.39,12.19,1.3,18.29,1.67,1.7.09,3.55.03,5.23-.26,1.96-.47,4.08-.79,6.1-.62,3.82.27,7.57,1.37,11.32,2.03,2.87.2,5.84.03,8.71.08,6.63.5,10.16-1.85,15.68-5.04"/><path class="b" d="M8.45,202.45c3.43-1.82,6.97-3.58,10.45-5.31,5.1-2.58,10.75-4.65,16.55-4.17,6.24.4,12.06,3.23,18.29,3.66,14.23,1.04,18.99,3.64,29.62,12.76.89.94,2.3.92,3.48.86,1.09,0,2.39,0,3.48,0,3.75,0,7.57,0,11.32,0,2.28-.08,4.71.18,6.97-.14,3.01-1.23,6.36-1.57,9.58-1.31,6.93.58,14.1,2.3,20.91.02,2.38-.7,4.6-2.12,6.97-2.86,3.91-1.28,8.14-1.3,12.2-.87,5.75.55,11.7,2.05,17.42.56,2.79-.88,5.35-2.55,7.84-4.05"/><path class="b" d="M8.45,199.71c2.92-.59,5.95-1.15,8.71-2.28,4.74-1.99,9.12-4.87,13.94-6.7,3.85-1.51,8.07-2.25,12.2-1.89,2.91.19,5.81,1.07,8.71,1.32,3.46.32,7.01.31,10.45.79,10.91,1.4,15.68,7.01,23.52,13.56,1.2,1.27,2.78,1.03,4.36,1.02,2.29,0,4.68,0,6.97,0,6.96,0,13.95,0,20.91,0,4.34,0,8.73,0,13.07,0,1.39,0,2.96,0,4.36,0,.82.03,1.92.03,2.61-.5,3.58-1.86,6.74-4.57,10.45-6.19,8.71-4.08,15.54-1.66,24.39-1.42,3.8.09,7.2-2.03,10.45-3.73"/><path class="b" d="M8.45,199.63c2.59.16,5.33.2,7.84-.54,5.48-1.83,9.93-5.82,14.81-8.77,3.7-2.32,7.8-4.35,12.2-4.85,3.47-.44,6.98.48,10.45.35,6.18-.12,12.65-.04,18.29,2.82,3.54,1.7,6.72,4.21,9.58,6.88,2,1.7,3.84,3.92,6.1,5.28,16.84-.05,33.69.1,50.53-.05,10.1-7.19,16.38-12.5,29.62-11.1,7.31.73,8.8.59,15.68-2.07"/><path class="b" d="M8.45,196.06c4.05,0,8.15,0,12.2,0,2.04.19,3.62-1.72,5.23-2.71,2.29-1.69,4.63-3.52,6.97-5.14,3.43-2.38,7.2-4.57,11.32-5.45,2.84-.64,5.84-.23,8.71-.61,4.03-.42,8.14-1.07,12.2-.67,6.3.51,12,3.89,16.55,8.12,1.43,1.31,2.98,2.85,4.36,4.22.73.71,1.68,1.8,2.61,2.24,14.22,0,28.46,0,42.69,0,1.7,0,3.53,0,5.23,0,1.25-.32,2.39-1.4,3.48-2.04,3.61-2.33,7.39-4.56,11.32-6.29,5.71-2.59,12.13-3.18,18.29-2.3,2.29.24,4.66.76,6.97.72,2.31-.07,4.69-.56,6.97-.94"/><path class="b" d="M8.45,191.33c5.79-.08,11.64.16,17.42-.1,4.56-3.17,8.96-6.76,13.94-9.28,2.96-1.53,6.26-2.51,9.58-2.76,2.62-.36,5.27-1.1,7.84-1.7,9.36-2.51,17.04-1.1,24.39,5.37,3.1,2.55,5.6,5.96,8.71,8.46,13.06,0,26.14,0,39.2,0,1.4,0,2.96,0,4.36,0,2.1-.83,3.99-2.41,6.1-3.27,3.9-1.67,8.1-2.81,12.2-3.9,5.39-1.34,11.08-1.69,16.55-.66,2.63.41,5.23,1.38,7.84,1.88,2.27.37,4.68.34,6.97.22"/><path class="b" d="M8.45,186.6c4.34,0,8.73,0,13.07,0,2.28-.1,4.72.23,6.97-.18,4.53-2.9,9.01-6.04,13.94-8.22,3.02-1.46,6.43-1.9,9.58-2.93,4.3-1.43,8.55-3.35,13.07-3.99,7.14-1.23,14.11,2.23,19.16,7.08,3,2.58,5.57,5.85,8.71,8.24,8.12,0,16.27,0,24.39,0,2.58,0,5.26,0,7.84,0,1.69-.07,3.56.17,5.23-.16,3.38-2.2,7.23-4.08,11.33-4.27,4.05.05,8.15-.05,12.2-.21,5.24-.16,10.61-.09,15.68,1.38,3,.76,5.69,2.58,8.71,3.25,1.69.04,3.53.01,5.23.02"/><path class="b" d="M8.45,181.87c7.25,0,14.53,0,21.78,0,1.53-.45,2.96-1.59,4.36-2.33,2.54-1.48,5.18-2.98,7.84-4.24,3.62-1.8,7.68-2.61,11.32-4.33,7.05-3.29,14.9-6.74,22.65-3.61,7.99,3.15,13.69,10.08,20.91,14.51,6.67,0,13.37,0,20.04,0,9.79.14,4.96.11,13.07-3.56,3.54-1.54,7.64-1.83,11.33-.64,5.56,2.14,11.51,2.99,17.42,3.44,2.3.12,4.67.69,6.97.76,5.79,0,11.63,0,17.42,0"/><path class="b" d="M8.45,177.14c8.12,0,16.27,0,24.39,0,1.56-.31,2.95-1.58,4.36-2.28,2.52-1.48,5.17-2.97,7.84-4.16,2.24-1.02,4.73-1.71,6.97-2.75,3.73-1.67,7.41-3.63,11.32-4.84,7.28-2.4,13.59-.77,20.04,2.97,5.65,3.05,11.29,6.32,17.42,8.31,3.93,1.2,8.07,2.29,12.2,2.37,4.7-.54,8.65-3.63,13.07-5.11,3.61-1.35,7.72-1.46,11.32-.04,3.68,1.33,6.79,3.95,10.45,5.33,1.05.35,2.39.18,3.48.21,10.74,0,21.5,0,32.23,0"/><path class="b" d="M8.45,172.41c6.09,0,12.21,0,18.29,0,2.29,0,4.68,0,6.97,0,1.11-.06,2.49.24,3.48-.39,3.3-2.21,6.73-4.43,10.45-5.86,3.87-1.3,7.55-3.21,11.32-4.75,5.72-2.45,12.23-3.57,18.29-1.75,3.21.95,6.36,2.34,9.58,3.27,7.03,2.28,14.45,2.78,21.78,3.22,1.99.15,4.11.54,6.1.14,6.25-1.29,11.88-4,18.29-1.38,3.16,1.2,6.02,3.23,8.71,5.23,3.17,2.44,2.94,2.35,6.97,2.26,11.61,0,23.24,0,34.85,0"/><path class="b" d="M8.45,167.68c7.25,0,14.53,0,21.78,0,2.58,0,5.26,0,7.84,0,1.4-.05,2.98.15,4.36-.16,3.24-2.07,6.99-3.22,10.45-4.81,4.27-1.95,8.54-4.11,13.07-5.43,3.36-1,6.95-1.5,10.45-1.33,2.6.11,5.25.68,7.84.88,4.62.42,9.33.21,13.94-.29,4.91-.58,9.86-1.18,14.81-1.04,2.88-.16,5.82-.72,8.71-.57,4.93.15,9.4,2.77,13.07,5.9,2.69,2.13,5.03,4.9,7.84,6.87h40.94"/><path class="b" d="M8.45,162.95c9.28,0,18.59,0,27.88,0,3.17,0,6.41,0,9.58,0,2.01-.11,4.27.39,6.1-.65,7.68-3.5,15.22-7.63,23.52-9.5,5.77-1.19,11.69-1.76,17.42-3.14,6.64-1.44,13.24-3.35,20.04-3.88,10.05-1.69,15.46,2.7,21.78,9.87,1.41,1.59,2.95,3.41,4.36,5.01.7.74,1.57,2.02,2.61,2.29,13.93,0,27.88,0,41.81,0"/><path class="b" d="M8.45,158.22c12.48,0,24.98,0,37.46,0,4.05-.01,8.15.03,12.2-.02,7.59-3.34,15.06-7.04,22.65-10.39,6.16-2.63,12.69-4.38,19.17-6.06,5.19-1.27,10.41-2.73,15.68-3.62,8.96-1.47,15.17,6.62,20.04,12.92,1.94,2.28,3.69,5.4,6.1,7.16h41.81"/><path class="b" d="M8.45,153.49c13.06,0,26.14,0,39.2,0,5.79,0,11.63,0,17.42,0,3.37-1,6.53-2.89,9.58-4.6,3.26-1.87,6.24-4.34,9.58-6.06,6.5-3.43,13.85-4.69,20.91-6.47,6.01-1.18,12.11-5.29,18.29-2.81,8.64,3.94,12.7,13.43,19.17,19.88,13.63.2,27.3,0,40.94.07"/><path class="b" d="M8.45,148.76c13.06,0,26.14,0,39.2,0,6.09,0,12.21,0,18.29,0,2.58,0,5.26,0,7.84,0,1.49-.76,3.03-1.86,4.36-2.88,8.84-8.09,16.84-9.53,27.88-12.68,2.33-.7,4.73-1.57,6.97-2.53,3.25-1.4,6.89-2.7,10.45-1.8,9.05,2.62,14.03,13.72,20.91,19.72,1.66.36,3.53.1,5.23.17,2.88,0,5.83,0,8.71,0,8.41,0,16.85,0,25.26,0"/><path class="b" d="M8.45,139.99c4.04.57,8.22.72,12.2,1.66,1.72.44,3.55,1.05,5.23,1.64,1.06.43,2.32.86,3.48.73,16.84-.04,33.69.08,50.53-.05,8.01-7.03,18.13-10.91,27.88-14.87,5.84-1.99,11.95-6.21,18.29-3.88,4.6,1.72,8.06,5.55,11.32,9.07,2.98,3.4,6.28,6.64,9.58,9.72h36.59"/><path class="b" d="M8.45,131.18c6.23-1.11,12.38-.54,18.29,1.71,3.54,1.26,7.01,2.87,10.45,4.35,1.93.69,4.04,1.99,6.1,2.06,12.77,0,25.56,0,38.33,0,.78,0,1.85.04,2.61-.13.77-.5,1.84-1.17,2.61-1.65,1.69-1.05,3.53-2.18,5.23-3.22,7.25-4.41,14.36-9.37,22.65-11.61,7.73-2.83,13.6-1.68,20.04,3.39,3.25,2.52,6.35,5.38,9.58,7.92,2.06,1.66,3.97,3.74,6.1,5.31h33.1"/><path class="b" d="M8.45,123.41c2.24-.8,4.6-1.64,6.97-1.92,4.41-.3,8.95.42,13.07,2.04,4.66,1.83,8.84,4.74,13.07,7.38,2.44,1.45,5.02,3.11,7.84,3.66,1.7,0,3.53,0,5.23,0,5.21,0,10.47,0,15.68,0,6.08-.05,12.21.1,18.29-.06,3.96-2.36,7.68-5.21,11.32-8.01,3-2.25,6.07-4.66,9.58-6.05,4.75-1.38,9.86-2.19,14.81-1.66,5.33.61,10.25,3.11,14.81,5.82,5.2,2.89,10.11,6.33,14.81,9.96h29.62"/><path class="b" d="M8.45,116.93c2.23-1.08,4.54-2.32,6.97-2.88,5.3-.83,11-.25,15.68,2.53,6.13,3.42,10.62,9.13,16.55,12.81.96.71,2.37.38,3.48.45,1.4,0,2.96,0,4.36,0,4.63,0,9.31,0,13.94,0,7.54,0,15.11,0,22.65,0,5.89-3.6,12.64-12.46,19.16-13.52,8.3-.75,16.55,1.49,24.39,4,5.93,1.97,11.88,4.11,17.42,7.01,1.41.73,2.97,1.6,4.36,2.39,2.86.28,5.84.04,8.71.12,5.79,0,11.63,0,17.42,0"/><path class="b" d="M8.45,111.46c2.24-1.18,4.52-2.6,6.97-3.32,5.83-1.25,11.7-.7,16.55,3,3.57,2.59,6.59,5.98,9.58,9.2,1.65,1.56,3.13,3.82,5.23,4.77,7.54,0,15.11,0,22.65,0,8.41,0,16.85,0,25.26,0,4.85-3.43,8.51-8.63,13.94-11.25,2.17-1,4.7-.64,6.97-.24,3.84.75,7.58,2.11,11.32,3.22,3.99,1.22,8.11,2.18,12.2,2.98,4.6,1.08,9.34,1.69,13.94,2.73,1.73.42,3.56,1,5.23,1.62,1.07.38,2.31,1.07,3.48.94,7.25,0,14.53,0,21.78,0"/><path class="b" d="M8.45,106.16c2.25-1.15,4.53-2.55,6.97-3.26,5.01-1.08,10.56-.58,14.81,2.48,3.68,2.52,6.7,6.02,9.58,9.38,1.69,1.82,3.2,4.17,5.23,5.62,17.42-.08,34.86.16,52.27-.09,13.6-12.59,12.59-11.16,29.62-5.17,5.34,1.92,10.98,2.84,16.55,3.8,2.86.44,5.84.37,8.71.57,2.32.07,4.68.66,6.97.88,8.12,0,16.27,0,24.39,0"/><path class="b" d="M8.45,99.48c2.51-1.01,5.11-2.26,7.84-2.43,9.56-.5,16.32,7.14,21.78,13.97.78.96,1.83,2.27,2.61,3.23.36.52,1.07,1.31,1.74,1.41,3.17,0,6.41,0,9.58,0,15.39,0,30.79,0,46.17,0,3.55-2.76,6.32-6.74,10.45-8.75,5.85-2.77,15.19,3.57,20.91,5.6,3.36,1.34,6.88,2.54,10.45,3.15,1.4,0,2.96,0,4.36,0,13.06,0,26.14,0,39.2,0"/><path class="b" d="M8.45,91.95c5.54-1.27,10.05-.85,14.81,2.43,4.05,2.75,7.37,6.54,10.45,10.3,1.74,1.98,3.26,4.48,5.23,6.25,12.77,0,25.56,0,38.33,0,4.34,0,8.73,0,13.07,0,1.39,0,2.96,0,4.36,0,1.1-.04,2.44.16,3.48-.25,2.53-2.8,5.01-5.84,7.84-8.34,2.14-1.96,4.89-3.34,7.84-2.72,3.77.63,7.18,2.67,10.45,4.54,3.93,2.31,7.92,4.72,12.2,6.35,1.02.52,2.38.4,3.48.41,1.09,0,2.39,0,3.48,0,13.35,0,26.72,0,40.07,0"/><path class="b" d="M8.45,84.7c3.62.36,7.32,1.26,10.45,3.16,7.14,4.64,11.91,12.02,17.42,18.33,13.06,0,26.14,0,39.2,0,4.34,0,8.73,0,13.07,0,2.58-.09,5.29.21,7.84-.16,3.96-4.37,7.3-9.6,12.2-13.02,2.88-1.97,6.63-1.2,9.58.21,5.88,2.86,10.8,7.4,16.55,10.47,1.91,1,3.98,2.04,6.1,2.49,1.4,0,2.96,0,4.36,0,1.99-.02,4.11.05,6.1-.04,1.98-.31,4.1-.51,6.1-.39,3.44.55,6.98.44,10.45.43,5.21,0,10.47,0,15.68,0"/><path class="b" d="M8.45,78.73c3.66,1.54,7.25,3.52,10.45,5.87,5.91,4.82,10.45,11.12,15.68,16.62,1.64.49,3.54.14,5.23.24,2.58,0,5.26,0,7.84,0,8.12,0,16.27,0,24.39,0,4.92,0,9.89,0,14.81,0,1.4,0,2.96,0,4.36,0,1.48.06,2.51.08,3.48-1.2,3.02-3.09,5.8-6.57,8.71-9.77,2.76-2.92,6.05-6.59,10.45-6.12,4.27.45,7.92,3.16,11.32,5.56,3.67,2.67,7.3,5.57,11.32,7.7,6.23,3.29,9.1,2.62,15.68,1.54,2.28-.3,4.72-.28,6.97.24,1.12.26,2.43.7,3.48,1.16.42.19,1.33.6,1.74.82.41.04,1.33.08,1.74.06,5.79,0,11.63,0,17.42,0"/><path class="b" d="M8.45,74.91c5.49,3.73,11.04,7.57,15.68,12.35,2.27,2.23,4.61,4.6,6.97,6.74,1.07.9,2.21,2.13,3.48,2.74.46,0,1.29,0,1.74,0,10.16,0,20.33,0,30.49,0,4.63,0,9.31,0,13.94,0,2.54-.12,5.36.27,7.84-.2,7.18-3.79,12.08-10.56,18.29-15.58,7.85-6.9,16.82,1.65,23.52,6.1,4.19,2.83,8.77,5.8,13.94,6.19,2.61.07,5.25-.59,7.84-.82,2.93-.31,6,.09,8.71,1.26,1.13.48,2.44,1.17,3.48,1.82.74.43,1.7,1.29,2.61,1.23,5.5,0,11.05,0,16.55,0"/><path class="b" d="M8.45,73.36c2.34,1.61,4.65,3.47,6.97,5.11,2.36,1.56,4.77,3.27,6.97,5.05,2.38,1.77,10.46,8.68,13.07,8.48,8.7,0,17.43,0,26.13,0,4.63-.05,9.32.1,13.94-.06,2.34-.33,4.69-1.09,6.97-1.67,2.94-.71,5.96-1.51,8.71-2.78,6.46-2.82,11.34-8.21,17.42-11.64,5.47-3.13,11.69.06,16.55,2.93,4.26,2.49,8.45,5.29,13.07,7.09,6.53,2.73,9.28.94,15.68.74,2.36-.01,4.81.53,6.97,1.5,1.47.65,3.02,1.57,4.36,2.46.73.48,1.7,1.34,2.61,1.43,5.21,0,10.47,0,15.68,0"/><path class="b" d="M8.45,71.3c2.36,1.31,4.68,2.92,6.97,4.36,2.35,1.38,4.75,2.91,6.97,4.5,2.8,1.97,5.69,3.99,8.71,5.61,1.07.53,2.29,1.29,3.48,1.5.79,0,1.83,0,2.61,0,7.25,0,14.53,0,21.78,0,2.29,0,4.68,0,6.97,0,1.7-.05,3.57.18,5.23-.26,3.84-.72,7.61-1.9,11.32-3.07,3.48-.88,7.1-1.53,10.45-2.82,5.58-2.01,10.34-5.77,15.68-8.28,5.38-2.67,11.44-.49,16.55,1.81,4.56,2.03,9.11,4.29,13.94,5.62,1.95.52,4.06,1.07,6.1,1,3.18-.12,6.39-.96,9.58-.75,2.73.14,5.46,1.07,7.84,2.4,1.45.8,3,1.84,4.36,2.8.72.51,1.73,1.34,2.61,1.56,4.63,0,9.31,0,13.94,0"/><path class="b" d="M8.45,68.57c5.56,2.03,10.79,5.01,15.68,8.32,2.24,1.48,4.59,2.99,6.97,4.23.78.4,1.81.91,2.61,1.26.78.22,1.82.17,2.61.17,12.19,0,24.4,0,36.59,0,4.47-1.07,8.55-3.48,13.07-4.39,3.51-.83,7.09-1.69,10.45-3.01,3.56-1.36,6.99-3.19,10.45-4.76,3.23-1.53,6.88-2.42,10.45-1.79,6.91,1.14,13.23,4.54,20.04,6.11,2.54.57,5.22,1.22,7.84,1.1,2.89-.19,5.81-.92,8.71-.89,3.03-.01,6.07.91,8.71,2.36,2.71,1.46,5.25,3.4,7.84,5.06,1.64.44,3.54.13,5.23.22,2.58,0,5.26,0,7.84,0"/><path class="b" d="M8.45,65.46c8.57.78,15.32,6.59,22.65,10.48,1.37.67,2.88,1.49,4.36,1.88,1.7,0,3.53,0,5.23,0,4.05,0,8.15,0,12.2,0,7.54,0,15.11,0,22.65,0,2.95-1.04,5.69-2.83,8.71-3.7,6.12-1.8,12.41-3.22,18.29-5.77,3.4-1.32,6.82-2.98,10.45-3.55,7.67-.66,14.56,3.8,21.78,5.64,3.37.9,6.95,1.7,10.45,1.42,2.6-.28,5.23-.98,7.84-1.14,3.29-.25,6.66.57,9.58,2.08,2.7,1.36,5.25,3.2,7.84,4.75,1.62.56,3.54.16,5.23.27,2.58,0,5.26,0,7.84,0"/><path class="b" d="M8.45,62.26c8.75-.92,15.89,5.1,23.52,8.32,2.5,1.07,5.19,1.91,7.84,2.49,1.7.04,3.53.01,5.23.02,10.16,0,20.33,0,30.49,0,3.74-1.62,7.32-3.79,11.33-4.73,5.53-1.47,11.16-2.76,16.55-4.69,2.86-.96,5.77-2.07,8.71-2.78,1.99-.39,4.15-.16,6.1.36,8,2.32,14.99,7.95,23.52,8.43,2.94.25,5.87-.67,8.71-1.25,3.43-.76,7.14-.75,10.45.5,2.75.99,5.34,2.6,7.84,4.09,4.91.18,9.89.02,14.81.07"/><path class="b" d="M8.45,59.25c7.91-1.41,15.19,2.84,22.65,4.67,4.54,1.19,9.3,1.24,13.94,1.76,2.65.31,5.26,1.24,7.84,1.85,1.09.27,2.38.55,3.48.75,1.99.14,4.1.03,6.1.07,3.2-.04,6.52.31,9.58-.81,3.3-.92,6.43-2.5,9.58-3.81,2.22-.82,4.64-1.33,6.97-1.69,5.53-.79,11.15-1.42,16.55-2.89,2.6-.6,5.2-1.62,7.84-2.02,1.73-.15,3.6.23,5.23.82,7.47,2.68,14.55,10.2,22.65,10.41,1.39-.03,2.97.07,4.36-.08,3.73-.84,7.44-2.36,11.33-2.22,1.74.05,3.59.43,5.23,1.01,1.11.35,2.33,1.11,3.48,1.29,6.08,0,12.21,0,18.29,0"/><path class="b" d="M8.45,56.26c7-.83,13.94,1.18,20.91,1.42,5.84.31,11.59-1.71,17.42-1.29,6.89,1.36,13.81,3.29,20.91,2.76,2.91-.16,5.89-.66,8.71-1.39,2.01-.48,4.05-1.33,6.1-1.64,3.15-.49,6.42-.21,9.58.04,4.62.41,9.34.61,13.94-.12,6.08-.98,7.89-2.66,13.94.66,3.63,2,6.95,4.64,10.45,6.83,5.49.21,11.05.02,16.55.08,12.19,0,24.4,0,36.59,0"/><path class="b" d="M8.45,53.08c3.75-.25,7.57-.23,11.32-.28,3.75.15,7.59.42,11.32-.17,5.35-.68,10.3-3.33,15.68-3.79,2.29-.03,4.68.32,6.97.42,6.68.38,13.36,1.22,20.04,1.49,2.59.14,5.26-.18,7.84-.33,1.71-.01,3.55.23,5.23.56,5.47,1.12,10.92,2.84,16.55,2.93,2,.05,4.12-.08,6.1-.34,1.99-.36,4.15-.61,6.1.11,3.18,1.06,5.99,3.12,8.71,5.03,2.25.41,4.69.08,6.97.18,4.05,0,8.15,0,12.2,0,13.35,0,26.72,0,40.07,0"/><path class="b" d="M8.45,50.27c1.99-.24,4.1-.35,6.1-.53,1.7-.15,3.51-.52,5.23-.51,4.34.05,8.8.52,13.07-.55,4.55-1,8.66-3.42,13.07-4.84,1.37-.43,2.95-.59,4.36-.79,2.28-.34,4.66-.72,6.97-.88,6.59-.65,12.92,1.6,19.17,3.37,2.55.68,5.31.72,7.84,1.5,5.5,1.58,10.86,3.89,16.55,4.75,2.27.36,4.67.54,6.97.53,1.7.05,3.54-.22,5.23-.01,1.48.24,3.04.87,4.36,1.57.74.33,1.83.26,2.61.26,21.19,0,42.4,0,63.59,0"/><path class="b" d="M8.45,48.15c3.46-.59,6.98-1.33,10.45-1.78,3.18-.13,6.4.57,9.58.56,3.29.04,6.6-.78,9.58-2.15,3.81-1.71,7.32-4.21,11.32-5.48,3.38-1.27,6.81-2.8,10.45-3.09,6.08-.6,11.41,2.9,16.55,5.61,2.46,1.31,5.29,1.93,7.84,3.01,4.01,1.6,8.03,3.36,12.2,4.51,3.73.31,7.58.03,11.32.12,6.38,0,12.79,0,19.17,0,18.87,0,37.75,0,56.62,0"/><path class="b" d="M8.45,44.7c2.58,0,5.26,0,7.84,0,1.68-.39,3.52-.44,5.23-.21,2.85.41,5.84.13,8.71.21,1.4,0,2.96,0,4.36,0,.82-.2,1.85-.61,2.61-.96,3.09-1.42,5.89-3.52,8.71-5.39,3.41-2.03,6.84-4.24,10.45-5.9,10.85-4.77,16.93,5.8,26.13,9.2,1.99.95,4.09,1.97,6.1,2.87,1.37.34,2.96.12,4.36.18,1.99,0,4.1,0,6.1,0,6.96,0,13.95,0,20.91,0,21.19,0,42.4,0,63.59,0"/><path class="b" d="M8.45,39.97h31.36c2.13-1.39,4.1-3.25,6.1-4.82,1.93-1.54,4.13-2.96,6.1-4.45,5.62-4.26,11-6.38,17.42-2.27,2.74,1.67,5.24,3.89,7.84,5.77,1.58,1.17,3.51,2.05,5.23,2.97,1.7.9,3.51,1.93,5.23,2.8,1.7,0,3.53,0,5.23,0,4.63,0,9.31,0,13.94,0,25.55,0,51.11,0,76.66,0"/><path class="b" d="M8.45,35.24c11.03,0,22.08,0,33.1,0,.58-.04,1.37-.62,1.74-1.03,1.09-.97,2.37-2.14,3.48-3.1,3.13-2.49,6.18-5.27,9.58-7.38,6.39-4.04,11.91-1.62,17.42,2.5,1.66,1.18,3.43,2.5,5.23,3.46,1.39.68,2.98,1.37,4.36,2.08,2.31,1.08,4.58,2.55,6.97,3.46,10.16,0,20.33,0,30.49,0,20.9,0,41.82,0,62.72,0"/><path class="b" d="M8.45,30.51h35.72c7.43-5.62,14.71-16.24,25.26-11.19,3,1.3,5.75,3.27,8.71,4.66,3.14,1.23,6.49,2.15,9.58,3.51,2.31.94,4.68,2.03,6.97,3.03,5.5,0,11.05,0,16.55,0,24.1,0,48.21,0,72.3,0"/><path class="b" d="M8.45,25.78c11.9,0,23.82,0,35.72,0,.82,0,1.88.09,2.61-.33,1.11-1.02,2.39-2.28,3.48-3.32,2.12-2,4.43-4.02,6.97-5.48,6.89-4.09,12.57-1.09,19.17,1.66,2.19.91,4.66,1.06,6.97,1.45,2.63.45,5.32,1.11,7.84,1.97,2.97,1.01,5.91,2.35,8.71,3.76,1.32.53,2.96.2,4.36.29,26.42,0,52.85,0,79.27,0"/><path class="b" d="M8.45,21.05c8.41,0,16.85,0,25.26,0,2.88,0,5.84,0,8.71,0,1.69-.06,3.56.16,5.23-.15,6.38-6.72,12.83-12.28,22.65-9.22,3.13.82,6.29,2.17,9.58,2.09,9.4-.71,15.68,1.62,23.52,6.56.95.79,2.33.76,3.48.72,1.4,0,2.96,0,4.36,0,4.05,0,8.15,0,12.2,0,20.03,0,40.08,0,60.11,0"/></svg>