<?xml version="1.0" encoding="UTF-8"?><svg id="a" xmlns="http://www.w3.org/2000/svg" width="1920" height="2400" viewBox="0 0 192 240"><defs><style>.b{fill:none;stroke:#fff;stroke-miterlimit:10;stroke-width:.4px;}.c{stroke-width:0px;}</style></defs><rect class="c" width="192" height="240"/><path class="b" d="M8.53,230.56c13.05,0,26.12,0,39.16,0,.79,0,1.83.02,2.61-.07,1.09-.43,2.38-.94,3.48-1.36,2.81-1.06,5.76-2.01,8.7-2.62,6.58-1.38,13.39-.81,20.02-.08,6.16.95,12.15,2.91,18.28,4.03,8.39.26,16.84.01,25.24.1,19.14,0,38.3,0,57.44,0"/><path class="b" d="M8.53,225.84c6.08,0,12.2.09,18.28-.26,2-.03,4.1.16,6.09.26,3.75,0,7.56,0,11.31,0,1.1,0,2.39.02,3.48-.02,1.1-.4,2.38-.93,3.48-1.3,2.52-.88,5.19-1.58,7.83-1.96,6.66-1.07,13.38.2,20.02.79,3.49.18,7.02.66,10.44,1.34,2,.31,4.07,1.04,6.09,1.15,8.11,0,16.26,0,24.37,0,21.17,0,42.36,0,63.53,0"/><path class="b" d="M8.53,221.11c12.18,0,24.37,0,36.55,0,1.81.07,3.54-1.05,5.22-1.6,2.5-.91,5.19-1.54,7.83-1.86,5.49-.69,11.05-.08,16.54.28,2.87.23,5.83.1,8.7.15,2.91.08,5.89.46,8.7,1.19,2.04.43,4.06,1.43,6.09,1.85,6.95,0,13.94,0,20.89,0,21.46,0,42.94,0,64.4,0"/><path class="b" d="M8.53,216.39c11.89,0,23.79,0,35.68,0,1.5.13,3.02-.59,4.35-1.19,1.36-.62,2.92-1.2,4.35-1.61,3.94-1.14,8.1-1.53,12.18-1.76,4.33-.24,8.73-.35,13.05-.8,4.31-.5,8.78-1.28,13.05-.14,3.82.96,7.28,3.11,10.44,5.39,8.68.29,17.42.01,26.11.11,18.56,0,37.14,0,55.7,0"/><path class="b" d="M8.53,210.64c.78.29,1.82.67,2.61.91,1.09.18,2.39.09,3.48.11,2.29,0,4.68,0,6.96,0,6.66,0,13.36,0,20.02,0,1.4-.09,3.05.27,4.35-.33,2.58-1.07,5.12-2.48,7.83-3.2,5.68-1.65,11.63-2.32,17.41-3.56,17.51-3.59,20.14-7.45,33.94,7.03,26.1.17,52.22,0,78.33.06"/><path class="b" d="M8.53,204.35c2.22.92,4.57,1.87,6.96,2.17,1.99.12,4.11.02,6.09.28,6.93.36,13.94.03,20.89.14,3.73-.54,6.87-3.12,10.44-4.22,5.4-1.85,11.09-2.88,16.54-4.58,4.05-1.25,8.14-2.58,12.18-3.85,5.68-2.22,10.51-3.02,15.67.99,4.37,3.23,7.42,7.94,11.31,11.65h74.85"/><path class="b" d="M8.53,197.38c2.25.77,4.59,1.62,6.96,1.9,2.59.11,5.27.18,7.83.66,9.68,1.8,17.25,2.69,26.11-2.56,5.71-2.78,12.18-3.36,18.28-4.91,4.39-1.06,8.74-2.44,13.05-3.76,2.58-.91,5.13-2.24,7.83-2.8,7.46-1.69,12.97,4.96,17.41,9.93,2.13,2.18,4.13,5.12,6.96,6.37,19.43,0,38.88,0,58.31,0,1.08,0,2.4,0,3.48,0,.4-.2,1.33-.58,1.74-.77,2.17-.87,4.68-.98,6.96-.55"/><path class="b" d="M8.53,189.84c2.29.42,4.65,1,6.96,1.28,3.22.18,6.45.78,9.57,1.55,9.28,2.36,16.15,1.82,24.37-3.28,7.27-3.61,15.73-2.17,23.5-3.72,2.92-.54,5.93-1.18,8.7-2.24,3.37-1.39,6.72-3.38,10.44-3.56,7.87-.21,12.77,7.16,18.28,11.66,2.84,2.29,6.1,4.22,9.57,5.37,2.19.87,4.66.5,6.96.57,3.75,0,7.56,0,11.31,0,9.56-.1,19.16.06,28.72,0,1.08-.02,2.41.08,3.48-.11.4-.25,1.33-.75,1.74-1,3.34-2.14,7.45-2.84,11.31-1.92"/><path class="b" d="M8.53,182.7c4.09.23,8.25.82,12.18,1.98,9.13,3.14,15.53,4.67,24.37-.45,2.29-1.25,4.44-3,6.96-3.79,4.2-1.38,8.73-.87,13.05-.55,4.04.33,8.2.44,12.18-.41,4.57-.81,8.53-3.61,13.05-4.56,8.02-1.83,14.06,4.93,20.02,9.1,2.62,1.75,5.64,3.05,8.7,3.77,5.4,1.29,11.05.89,16.54.48,3.45-.18,7.02-.72,10.44-.06,5.44,1.21,10.86,3.39,16.54,2.72,8.37-.93,11.77-4.35,20.89-2.04"/><path class="b" d="M8.53,176.59c9.85-.59,14.8,5.41,23.5,6.05,7.14.45,12.61-4.74,18.28-8.23,3.18-1.67,6.93-1.88,10.44-1.51,4.33.43,8.68,1.38,13.05,1.16,9.69-.5,14.82-7.29,25.24-1.93,3.67,1.86,6.9,4.6,10.44,6.66,4.44,2.6,9.78,2.82,14.8,2.65,4.04-.15,8.14-.42,12.18-.6,3.17-.09,6.4-.51,9.57-.53,4.63.07,9.29.58,13.92.55,4.62.05,9.31-.45,13.93,0,3.25.36,6.41,1.51,9.57,2.28"/><path class="b" d="M8.53,171.79c9.11-.49,13.65,5.88,21.76,7.3,6.03.95,11.25-3.01,15.67-6.59,2.96-2.58,6.43-4.86,10.44-5.2,5.8-.64,11.6,1.06,17.41.64,4.77-.14,9.11-2.92,13.93-2.61,5.26.19,9.84,3.28,13.92,6.33,3,2.17,5.98,4.77,9.57,5.89,3.68,1,7.6.38,11.31-.14,4.59-.72,9.28-1.15,13.93-1.24,4.4-.03,8.81-.75,13.05-1.87,7.88-1.98,16.4-4.68,24.37-1.67,3.22,1.24,6.29,3.04,9.57,4.12"/><path class="b" d="M8.53,168.16c8.75.26,12.52,5.67,20.02,8.02,9.43,2.69,15.52-6.8,22.63-11.06,3.16-1.77,6.86-2.4,10.44-2.5,4.63-.14,9.35.23,13.92-.62,2.05-.31,4.09-1.14,6.09-1.67,3.25-.77,6.71.03,9.57,1.66,4.25,2.4,7.73,6,11.31,9.26,3.15,2.83,6.77,6.13,11.31,5.82,5.02-.24,9.82-2.14,14.8-2.74,6.72-1.04,13.9.38,20.02-3.26,7.43-3.84,15.59-10.91,24.37-7.04,3.6,1.71,6.79,4.35,10.44,5.97"/><path class="b" d="M8.53,165.4c3.3.58,6.59,1.64,9.57,3.17,3.14,1.65,6.17,3.76,9.57,4.86,1.92.7,4.09.36,6.09.43,7.07-1.18,11.51-7.67,17.41-11.13,3.95-2.33,8.56-3.25,13.05-3.79,4.65-.56,9.4-1,13.92-2.3,5.78-2.3,10.19-.65,14.8,3.15,3.11,2.56,5.89,5.65,8.7,8.53,1.34,1.37,2.87,2.87,4.35,4.08.94.81,2.16,1.69,3.48,1.46,4.04,0,8.14,0,12.18,0,3.45-.48,6.93-1.36,10.44-1.43,3.46-.2,7.02,0,10.44-.59,3.27-.6,6.11-2.67,8.7-4.64,3.44-2.67,6.73-5.7,10.44-8.01,9.77-6.1,13.61-.23,21.76,4.51"/><path class="b" d="M8.53,162.97c4.63,2.02,9.37,3.92,13.92,6.12,5.2.12,10.46,0,15.67.05.46,0,1.29,0,1.74-.04,1.13-.61,2.42-1.42,3.48-2.14,2.29-1.55,4.59-3.29,6.96-4.72,5.13-3.12,10.81-5.33,16.54-7.08,4.57-1.36,9.24-2.62,13.92-3.54,3.86-.48,7.5,1.61,10.44,3.9,5.26,4.1,9.41,9.55,14.8,13.49,3.44.31,6.99.04,10.44.13,6.08,0,12.2,0,18.28,0,3.46-.05,6.99.11,10.44-.07,1.84-.83,3.64-2.07,5.22-3.3,6.26-4.57,14.2-15.07,22.63-13.36,3.84,1.09,7.04,3.79,10.44,5.78"/><path class="b" d="M8.53,159.3c2.48,1.58,5.07,3.22,7.83,4.26,1.09.33,2.32.96,3.48.85,6.95,0,13.94,0,20.89,0,.79,0,1.83.01,2.61-.04.46-.2,1.29-.6,1.74-.81,1.7-.83,3.54-1.7,5.22-2.56,5.57-2.91,10.86-6.43,16.54-9.13,4.09-1.95,8.51-3.51,13.05-3.8,2.44-.15,4.88.81,6.96,2.02,6.58,3.92,11.57,10.1,18.28,13.83,1.23.83,2.95.41,4.35.5,1.99,0,4.1,0,6.09,0,5.79,0,11.62,0,17.41,0,4.62-.07,9.31.15,13.92-.1,8.26-3.88,16.27-14.23,25.24-15.04,4.14-.14,7.81,2.34,11.31,4.23"/><path class="b" d="M8.53,153.57c2.17,1.6,4.47,3.27,6.96,4.32,2.22.79,4.64,1.37,6.96,1.79,4.63,0,9.3,0,13.92,0,3.46-.03,6.99.06,10.44-.04,6.22-1.31,11.26-5.51,16.54-8.8,5.35-3.39,11.76-6.87,18.28-5.3,3.89,1.2,7.17,3.88,10.44,6.2,4.67,3.4,9.76,6.88,15.67,7.44,2.88.29,5.84-.25,8.7-.54,3.44-.39,6.99-.53,10.44-.23,5.48.35,11.09,2.15,16.54.68,6.75-1.64,13-4.83,19.15-7.98,7.84-3.9,12.53-5.7,20.89-1.56"/><path class="b" d="M8.53,145.9c3.53,2.57,6.91,4.61,11.31,5.18,5.2.97,10.47,1.85,15.67,2.88,1.99.36,4.08.81,6.09,1,1.99,0,4.1,0,6.09,0,.78,0,1.83,0,2.61,0,2.15-.36,4.2-1.52,6.09-2.56,3.51-2.03,6.87-4.45,10.44-6.36,7.2-3.88,13.2-4.27,20.02.58,14.97,10.36,17.67,6.82,33.94,4.34,5.78-.8,11.62.2,17.41.32,2.02.05,4.13-.35,6.09-.79,1.97-.35,4.09-.52,6.09-.66,5.58-.29,11.17-1.05,16.54-2.65,6.27-1.76,9.92-3.58,16.54-1.18"/><path class="b" d="M8.53,137.27c2.25,1.24,4.56,2.62,6.96,3.53,3.4,1.1,7.02,1.68,10.44,2.71,5.38,1.48,10.47,3.88,15.67,5.88.78.28,1.8.66,2.61.83.78,0,1.83,0,2.61,0,1.99,0,4.1,0,6.09,0,2.15.06,4.17-1.35,6.09-2.18,3.41-1.71,6.82-3.63,10.44-4.87,13.03-4.43,16.1,3.72,26.98,6.55,4.4,1.06,8.9-.24,13.05-1.68,5.75-1.69,11.42-3.95,17.41-4.68,4.89-.69,9.91-.19,14.8-.85,4.92-1.21,9.93.28,14.8,1.07,4.3.74,8.79.76,13.05-.23,5.54-1.36,7.89-2.88,13.93-1.13"/><path class="b" d="M8.53,128.5c2.34.74,4.68,1.78,6.96,2.67,3.53,1.25,7.12,2.59,10.44,4.32,5.67,2.84,10.84,6.67,16.54,9.47,1.82.97,4.11.4,6.09.55,3.17,0,6.41,0,9.57,0,1.75-.05,3.53-.9,5.22-1.29,2.83-.81,5.78-1.53,8.7-1.9,8.41-1,10.78.29,18.28,3.17,4.92.05,9.88,0,14.8.02,2.37-.26,4.65-1.57,6.96-2.14,5.53-1.88,10.86-4.48,16.54-5.92,3.4-.9,6.96-1.44,10.44-1.91,2.29-.27,4.65-.89,6.96-.77,6.22.38,12.06,3.11,18.28,3.6,3.79.43,7.62-.22,11.31-1.03,2.64-.31,5.38.38,7.83,1.32"/><path class="b" d="M8.53,120.28c9.75.8,17.06,8.23,24.37,13.97,2.2,1.76,4.55,3.55,6.96,5.03,1.06.55,2.24,1.54,3.48,1.5,6.95,0,13.94,0,20.89,0,9.57,0,19.15,0,28.72,0,4.33,0,8.72,0,13.05,0,4.05-1.01,8.24-1.75,12.18-3.16,9.29-3.06,18-8.48,27.85-9.56,4.73-.32,9.43.9,13.92,2.24,3.7,1.09,7.46,2.34,11.31,2.72,1.39.17,2.96.03,4.35.1,2.79.28,5.42,1.65,7.83,3"/><path class="b" d="M8.53,113.96c6.88-.56,12.11,4.84,16.54,9.37,4.12,4.23,8.13,8.78,13.05,12.11,1.17,1.01,2.93.5,4.35.62,2.58,0,5.25,0,7.83,0,7.24,0,14.52,0,21.76,0,6.95,0,13.94,0,20.89,0,2.87,0,5.83,0,8.7,0,1.99-.17,4.09-.46,6.09-.56,5.56-.27,11.28-.3,16.54-2.37,5.24-1.91,9.87-5.18,14.8-7.73,4.04-1.96,8.57-3.23,13.05-3.52,3.89-.18,7.78.92,11.31,2.48,3.17,1.36,6.26,3.13,9.57,4.14,3.97.68,7.29,3.16,10.44,5.52"/><path class="b" d="M8.53,109.91c7.4-.19,12.26,6.35,16.54,11.49,2.73,3.31,5.51,6.76,8.7,9.65,1.61.58,3.53.17,5.22.29,2.58,0,5.25,0,7.83,0,11.02,0,22.05,0,33.07,0,4.92,0,9.88,0,14.8,0,1.13.1,2.38-.48,3.48-.67,1.67-.35,3.52-.49,5.22-.44,2.9.1,5.83.7,8.7,1.1,2.29.03,4.68,0,6.96.01,2.28-.04,4.68.09,6.96-.07,1.13-.4,2.43-1.01,3.48-1.59,5.37-3.04,9.85-7.59,15.67-9.86,5.18-2.79,10.72-5.23,16.54-2.67,4.1,1.66,7.51,4.69,11.31,6.87,2.15,1.01,4.29,2.33,6.09,3.9,1.41,1.07,2.76,2.63,4.35,3.42"/><path class="b" d="M8.53,107.51c9.97,1.82,14.69,11.9,20.89,18.8,1.6.6,3.54.18,5.22.3,3.17,0,6.41,0,9.57,0,8.69,0,17.42,0,26.11,0,7.82,0,15.68,0,23.5,0,2.16-.98,4.57-1.68,6.96-1.59,2.68-.02,5.26,1.08,7.83,1.59,8.11,0,16.26,0,24.37,0,2.44-1.64,4.63-3.84,6.96-5.62,1.57-1.3,3.56-2.25,5.22-3.42,3.3-2.31,6.48-5.19,10.44-6.28,6.14-1.71,11.28,3.17,15.67,6.76,1.32,1.12,2.95,2.17,4.35,3.18,2.1,1.62,4.11,3.6,6.09,5.35.43.03,1.31.05,1.74.04"/><path class="b" d="M8.53,105.3c8.61,3.2,12.84,9.42,18.28,16.26.76.4,1.79.32,2.61.31,1.4,0,2.95,0,4.35,0,4.33,0,8.72,0,13.05,0,12.18,0,24.38,0,36.55,0,4.04,0,8.14,0,12.18,0,1.07-.27,2.38-.47,3.48-.47,1.42-.06,2.95.42,4.35.47,3.46,0,6.99,0,10.44,0,7.53-.01,15.1.02,22.63-.01,2.19-1.98,4.44-4.12,6.96-5.67,2.13-1.49,4.11-3.4,6.09-5.07,6.82-6.03,12.05-6.45,19.15-.54,2.5,2.13,5.22,4.16,7.83,6.15,2,1.66,4.02,3.54,6.09,5.11l.87.04"/><path class="b" d="M8.53,104.15c3.69,1.6,7.34,3.64,10.44,6.22,1.48,1.31,3.01,2.91,4.35,4.36.74.76,1.61,1.99,2.61,2.42,29.3,0,58.6,0,87.9,0,5.79,0,11.62,0,17.41,0,8.44.13,4.62.18,11.31-3.98,4.79-2.71,8.64-7.12,13.93-8.95,5.19-1.94,10.48.75,14.8,3.54,1.66,1.06,3.57,2,5.22,3.06,2.27,1.47,4.57,3.14,6.96,4.41"/><path class="b" d="M8.53,103.41c3.25,1.05,6.55,2.29,9.57,3.9,2.48,1.4,4.74,3.35,6.96,5.11,29.59,0,59.18,0,88.77,0,6.37,0,12.78,0,19.15,0,1.14.02,2.53.09,3.48-.65,1.66-.92,3.47-1.9,5.22-2.64,5.26-1.88,10.2-4.78,15.67-6.04,5.78-1.46,11.76-.24,17.41,1.21,2.95.79,5.81,2.12,8.7,3.06"/><path class="b" d="M8.53,101.77c4.11.47,8.35.97,12.18,2.63,1.44.6,3,1.38,4.35,2.16.47.25,1.29.78,1.74,1.04.47.07,1.28.13,1.74.1,12.76,0,25.53,0,38.29,0,18.56,0,37.14,0,55.7,0,1.69,0,3.53,0,5.22,0,3.1-1.19,6.31-2.38,9.57-3.05,5.7-1.32,11.62-.82,17.41-1.37,6.54-.49,12.72-2.98,19.15-4.04,3.16-.45,6.44-.07,9.57.42"/><path class="b" d="M8.53,98.61c6.08-.84,12.52-1.04,18.28,1.41,1.79.75,3.62,1.8,5.22,2.9,3.75.15,7.56.02,11.31.06,19.14,0,38.3,0,57.44,0,6.08,0,12.2,0,18.28,0,.43.03,1.32-.04,1.74-.14.42-.29,1.31-.86,1.74-1.14,1.61-1.02,3.44-2.02,5.22-2.71,3.85-1.57,8.17-1.55,12.18-.71,2.65.45,5.35,1.1,7.83,2.16,17.4,7.86,20.36-8.18,35.68-7.72"/><path class="b" d="M8.53,94.02c2.29-.5,4.64-1.22,6.96-1.6,3.14-.35,6.43-.69,9.57-.2,4.33.66,8.01,3.32,11.31,6.03,26.98,0,53.96.01,80.94,0,10.25-8.91,13.86-9.58,26.11-3.84,1.48.69,3,1.71,4.35,2.62.75.46,1.67,1.33,2.61,1.23,4.91-.09,9.9.19,14.8-.12,5.64-4.43,10.53-10.79,18.28-11.19"/><path class="b" d="M8.53,88.47c5.71-1.03,11.58-2.48,17.41-1.58,4.68.77,8.56,3.77,12.18,6.64h77.46c10.14-8.12,14.16-10.42,26.11-3.54,1.46.68,3.04,1.55,4.35,2.49.4.32,1.27.85,1.74,1.05.43,0,1.31,0,1.74,0,3.75,0,7.56,0,11.31,0,1.99-.07,4.13.17,6.09-.14,4.78-4.49,9.67-9.86,16.54-10.75"/><path class="b" d="M8.53,81.66c12.85-1.14,19.56,0,30.46,7.13,17.11.01,34.24,0,51.35,0,7.82,0,15.68,0,23.5,0,3.51-1.47,6.71-3.87,10.44-4.83,7.08-2.25,13.8,1.9,20.02,4.79,5.2.11,10.46,0,15.67.04,1.69,0,3.53,0,5.22,0,1.21.04,2.64.12,3.48-.96,4.19-3.87,8.98-7.64,14.8-8.47"/><path class="b" d="M8.53,74.92c2.59.12,5.29.18,7.83.77,5.14,1.3,9.94,3.74,14.8,5.8,2.25.94,4.61,1.94,6.96,2.59,1.99,0,4.1,0,6.09,0,15.95-.04,31.91,0,47.87,0,5.49-.1,11.06.21,16.54-.13,2.21-.89,4.67-1.31,6.96-1.91,5.37-1.37,11.06-2.01,16.54-.86,2.03.39,4.13.99,6.09,1.63,1.4.38,2.89,1.18,4.35,1.27,8.11,0,16.26,0,24.37,0,2.15-1.01,4.05-2.75,6.09-3.95,3.12-2,6.75-3.35,10.44-3.71"/><path class="b" d="M8.53,69.19c8.71.28,12.94,5.46,20.02,9.33.77.39,1.71.98,2.61.83,1.4,0,2.95,0,4.35,0,3.46,0,6.98,0,10.44,0,2.08-.19,4.12-1.27,6.09-1.92,2.77-1.05,5.72-2.01,8.7-2.08,2.67-.08,5.39.6,7.83,1.64,1.76.63,3.41,1.95,5.22,2.36,7.82,0,15.68,0,23.5,0,1.2.15,2.44-.44,3.48-.96,1.38-.63,2.93-1.32,4.35-1.87,5.51-2.39,11.64-1.34,17.41-.72,7.53,1.02,15.24,1.1,22.63,2.97,3.36,1,6.98.44,10.44.57,2.28,0,4.68,0,6.96,0,1.14-.03,2.41-.59,3.48-.95,6.19-2.33,10.38-5.49,17.41-5.25"/><path class="b" d="M8.53,64.78c5.91.17,9.86,3.51,13.92,7.37,1.08.79,2.07,2.35,3.48,2.47,1.99,0,4.1,0,6.09,0,4.62,0,9.3,0,13.92,0,4.32-2.15,8.32-5.24,13.05-6.42,6.86-1.77,12.62,3.23,18.28,6.26,1.37.3,2.96.11,4.35.16,2.29,0,4.68,0,6.96,0,2.14-.36,4.15-1.69,6.09-2.6,4.17-2.15,8.36-4.7,13.05-5.48,2.92-.51,5.92.22,8.7,1.05,3.12.93,6.33,1.92,9.57,2.32,6.08.95,12.21-1.12,18.28-.17,7.49.92,15.08,2.11,22.63,1.27,3.26-.25,6.41-1.4,9.57-2.09,2.27-.34,4.69-.17,6.96.1"/><path class="b" d="M8.53,61.35c6.96-.03,10.13,4.36,14.8,8.55,6.66,0,13.36,0,20.02,0,1.1-.04,2.41.13,3.48-.19,1.07-.77,2.4-1.58,3.48-2.33,6.52-4.75,12.12-8.29,20.02-3.97,3.19,1.59,6.12,3.94,9.57,4.94,8.32,1.9,16.56-7.24,24.37-9.58,3.38-1.25,7.12-.99,10.44.3,3.93,1.38,7.96,2.97,12.18,3.01,5.06.2,9.81-2.1,14.8-2.45,2-.01,4.11.25,6.09.49,7.03.81,13.81,3.32,20.89,3.75,2.33.16,4.71-.32,6.96-.83,2.59-.36,5.3.13,7.83.68"/><path class="b" d="M8.53,58.09c6.34-.13,9.54,3.25,13.92,7.08,7.53,0,15.1,0,22.63,0,.79,0,1.83,0,2.61,0,2.2-.9,4.12-2.62,6.09-3.93,8.6-6.25,13.34-5.8,22.63-1.46,4.62,2.2,8.67,1.43,13.05-.85,7.07-3.48,14.23-9.76,22.63-7.75,5.38,1.44,10.87,3.62,16.54,2.56,3.56-.53,6.96-1.98,10.44-2.8,4.04-.96,8.28.16,12.18,1.27,6.36,1.84,12.42,5.31,19.15,5.58,2.04.12,4.09-.63,6.09-.86,2.3-.2,4.71.16,6.96.61"/><path class="b" d="M8.53,54.32c5.01.11,9.43,2.87,13.05,6.12h29.59c6.13-3.77,12.46-8.08,20.02-7.41,2.89.15,5.81.8,8.7,1.01,5.08.18,9.54-2.89,13.92-5.06,17.32-9.31,19.23.27,33.94-1.82,5.55-.83,10.79-4.37,16.54-3.36,9.72,1.52,17.74,9.85,27.85,9.24,1.42-.14,2.95-.68,4.35-.91,2.26-.4,4.67-.46,6.96-.38"/><path class="b" d="M8.53,49.6c4.79.83,9.15,3.31,13.05,6.12,7.53.03,15.1,0,22.63.01,3.17-.04,6.41.08,9.57-.06,2.59-1.06,5.23-2.23,7.83-3.25,3.64-1.43,7.46-2.6,11.31-3.32,2.85-.61,5.86-.75,8.7-1.4,4.87-1.45,9.14-4.5,13.92-6.18,11.78-4.6,19.92,3.12,31.33,1.06,5.56-.79,10.81-4.12,16.54-3.45,9.59,1.66,16.97,10.15,26.98,10.25,2.05.03,4.14-.61,6.09-1.19,2.26-.64,4.65-1.25,6.96-1.67"/><path class="b" d="M8.53,43.88c3.62,1.24,7.03,3.2,10.44,4.9,1.39.72,2.92,1.58,4.35,2.22.46,0,1.28,0,1.74,0,5.5,0,11.04,0,16.54,0,6.11.13,12.28-.14,18.28-1.41,5.08-1.02,9.98-2.87,14.8-4.75,2.55-1.06,5.33-1.78,7.83-2.95,5.02-2.47,9.91-5.91,15.67-6.24,4.81-.37,9.36,1.62,13.93,2.82,6.45,1.92,12.69,2.12,19.15.09,3.41-.93,6.87-2.25,10.44-2.27,4.41.1,8.38,2.5,12.18,4.5,6.03,3.36,12.99,6.68,20.02,4.74,3.28-.88,6.39-2.47,9.57-3.63"/><path class="b" d="M8.53,37.59c8.01,4.43,15.62,9.23,25.24,7.77,4.39-.55,8.63-2.24,13.05-2.56,5.83-.12,11.54,2.27,17.41,1.45,6.57-.8,12.43-4.33,18.28-7.2,4.31-2.49,8.76-5.54,13.92-5.57,4.34-.07,8.33,2.02,12.18,3.77,5.96,2.63,12.74,3.76,19.15,2.25,4.08-.84,8.04-2.48,12.18-3,4.66-.63,9.01,1.73,13.05,3.71,7.19,3.79,14.57,6.24,22.63,3.52,2.69-.96,5.25-2.47,7.83-3.66"/><path class="b" d="M8.53,31.55c2.9,1.63,5.63,3.78,8.7,5.1,8.46,3.8,15.24,1.67,23.5-1.12,3.65-1.23,7.63-1.64,11.31-.32,4.26,1.32,8.52,3.17,13.05,3.19,3.95.07,7.8-1.3,11.31-2.98,2.63-1.24,5.34-2.56,7.83-4.08,11.41-7,15.71-3.29,26.11,2.45,10.49,4.84,16.89,1.79,26.98-1.48,4.61-1.5,8.76-.59,13.05,1.39,7.84,3.65,14.6,6.67,23.5,5,3.38-.52,6.45-2.34,9.57-3.62"/><path class="b" d="M8.53,25.77c2.86,1.67,5.59,3.82,8.7,5.02,8.25,3.3,15.43,1.02,23.5-1.28,3.69-1.04,7.69-1.27,11.31.14,3.73,1.29,7.39,3.07,11.31,3.74,7.38,1.39,14.45-2.24,20.89-5.41,17.09-9.41,20.81,6.38,35.68,6.71,6.59.03,12.29-3.79,18.28-6,4.42-1.81,8.83-.8,13.05,1.04,3.99,1.66,7.97,3.59,12.18,4.61,3.95.97,8.16,1.14,12.18.54,2.65-.51,5.26-1.59,7.83-2.38"/><path class="b" d="M8.53,20.07c2.29,1.28,4.56,2.83,6.96,3.89,7.78,3.01,16.27,2.14,24.37,1.31,4.38-.43,8.92-.24,13.05,1.42,7.11,2.79,13.27,4.8,20.89,2.42,5.32-1.43,10.31-4.03,15.67-5.3,5.56-1.3,11.07,1.05,15.67,4.05,2.53,1.45,4.98,3.5,7.83,4.23,4.04,0,8.14,0,12.18,0,1.84-.17,3.58-1.37,5.22-2.14,3.42-1.8,6.75-4.04,10.44-5.25,5.35-1.79,10.77.99,15.67,2.97,9.72,4.22,16.63,5.25,26.98,2.45"/><path class="b" d="M8.53,14.61c2.27,1.09,4.56,2.43,6.96,3.22,2.24.62,4.67.85,6.96,1.2,6.08.83,12.22,1.48,18.28,2.46,3.48.6,7.05,1.16,10.44,2.14,3.98,1.2,8,2.63,12.18,2.86,9.58.58,18.31-5.15,27.85-5.06,3.33.07,6.62,1.14,9.57,2.64,2.07.93,3.98,2.5,6.09,3.29,7.53,0,15.1,0,22.63,0,.42,0,1.32,0,1.74,0,1.5-.59,2.95-1.72,4.35-2.52,3.16-1.9,6.62-3.98,10.44-3.87,6.78.36,12.71,4.31,19.15,6.08,2.21.63,4.69.19,6.96.31,3.75,0,7.56,0,11.31,0"/><path class="b" d="M8.53,9.44c2.28.82,4.58,1.89,6.96,2.38,1.98.32,4.1.29,6.09.53,4.73.46,9.43,1.56,13.93,3.08,5.18,1.77,10.32,3.8,15.67,5.01,4.22,1.16,8.66,2.02,13.05,1.56,5.08-.43,9.84-2.54,14.8-3.56,9.09-1.73,15.58-.62,23.5,4.2,6.08,0,12.2,0,18.28,0,4.92,0,9.88,0,14.8,0,2.33-1.1,4.52-2.74,6.96-3.64,3.03-1.24,6.48-.95,9.57-.1,3.55.96,6.98,2.52,10.44,3.73,6.95,0,13.94,0,20.89,0"/></svg>