<?xml version="1.0" encoding="UTF-8"?><svg id="a" xmlns="http://www.w3.org/2000/svg" width="1920" height="2400" viewBox="0 0 192 240"><defs><style>.b{fill:none;stroke:#fff;stroke-miterlimit:10;stroke-width:.4px;}.c{stroke-width:0px;}</style></defs><rect class="c" x="0" width="192" height="240"/><path class="b" d="M8.39,228.59c1.1-.02,2.4.07,3.49-.11,1.1-.76,2.37-1.67,3.49-2.4,6.37-4.3,12.63-3.63,19.18-.2,1.71.84,3.51,1.82,5.23,2.63,3.16.18,6.42.02,9.59.07,1.4-.07,3,.19,4.36-.22,2.81-.92,5.77-1.7,8.72-1.95,5.27-.56,10.46.98,15.69,1.26,5.8-.34,11.73.77,17.43-.68,4.31-1.03,8.27-3.23,12.2-5.21,1.93-1.02,4.13-1.74,6.1-2.67,2.89-1.39,5.75-3.07,8.72-4.32,3.54-1.53,7.47-2.35,11.33-2.03,2.32.17,4.71.68,6.97,1.18,1.71.36,3.58.71,5.23,1.32,4.99,1.82,9.69,4.5,14.82,5.96,3.37,1,6.95,1.45,10.46,1.44,4.08-.15,8.27-.11,12.2,1.13"/><path class="b" d="M8.39,223.85c.48.03,1.28-.03,1.74-.13,1.12-.76,2.39-1.72,3.49-2.51,2.35-1.73,4.95-3.42,7.85-4.01,4.61-1.02,9.18,1,13.08,3.32,2.01,1.04,3.91,2.73,6.1,3.33,2.88,0,5.84,0,8.72,0,1.4,0,2.96,0,4.36,0,1.77-.34,3.51-1.3,5.23-1.84,3.35-1.22,6.9-2.09,10.46-2.36,2.58-.21,5.26-.13,7.85-.08,2,.03,4.12-.11,6.1.19,4.89.7,9.86,1.88,14.82,1.14,3.6-.47,7.1-1.76,10.46-3.08,2.34-.88,4.82-1.73,6.97-3.03,5.74-3.34,11.47-7.47,18.31-7.97,3.77-.24,7.69.16,11.33,1.14,8.06,2.93,14.83,9.15,23.54,10.36,2.56.46,5.26.28,7.85.3,2.32.08,4.73.47,6.97,1.04"/><path class="b" d="M8.39,218.17c8.31-5.44,13.23-10.98,23.54-5.47,2.39,1.26,4.71,2.86,6.97,4.31,1.36.73,2.77,2.05,4.36,2.11,3.46-.08,7.02.18,10.46-.12,7.71-3,15.12-7.43,23.54-8.08,7.45-.92,14.4,3,21.79,3.12,5.04.14,10.18-.96,14.82-2.91,6.9-3.41,13.07-8.81,20.92-9.9,3.43-.45,7.08-.49,10.46.33,8.56,2.88,15.25,10.19,24.41,11.58,2.27.44,4.68.2,6.97.25,2.33.11,4.73.6,6.97,1.23"/><path class="b" d="M8.39,210.72c10.83-6.8,15.69-10.85,27.9-3.36,5.75,3.42,9.49,6.64,16.56,4.99,8.03-1.54,14.85-6.56,22.66-8.74,12.23-3.37,23.31,8.53,38.36,2.94,5.37-2.15,10.22-5.54,15.69-7.48,5.35-1.91,12.92-3.02,18.31-.93,5.99,2.36,11.26,6.39,17.43,8.31,3.35,1.14,6.96,1.33,10.46,1.08,2.66.05,5.35.81,7.85,1.69"/><path class="b" d="M8.39,202.78c11.04-5.85,17.3-10.58,29.64-4.07,5.96,3.08,8.78,4.64,15.69,4.69,4.15.1,8.32-.79,12.2-2.21,4.04-1.41,7.96-3.45,12.2-4.17,11.54-1.44,21.59,8.01,33.13,6.41,4.22-.74,8.2-2.57,12.2-4.02,4.2-1.58,8.61-2.83,13.08-3.32,10.47-1.36,13.21.84,22.67,4.03,3.64,1.2,7.49,2.01,11.33,2.03,1.7.05,3.53-.23,5.23-.26,2.72.08,5.39,1.11,7.85,2.2"/><path class="b" d="M8.39,194.76c5.54-2.24,10.82-5.31,16.56-7.03,6.69-2.05,13.05.39,19.18,2.99,2.22.94,4.67,1.44,6.97,2.08,2.84.82,5.77,1.72,8.72,2.09,3.47.47,7.06.11,10.46-.67,3.43-.75,6.91-1.93,10.46-1.81,5.83.13,11.32,2.52,16.56,4.86,5.16,2.33,10.81,4.75,16.56,3.32,4.95-.92,9.84-2.35,14.82-3.13,5.74-.84,11.63-1.31,17.43-1.18,4.95.4,9.86,1.63,14.82,1.95,4.64.38,9.35-.09,13.95-.75,3.07-.23,6.04,1.14,8.72,2.49"/><path class="b" d="M8.39,187.1c3.53-1.28,7.08-2.74,10.46-4.37,4.36-2.13,9-4.26,13.95-4.23,4.21-.04,8.28,1.43,12.2,2.8,1.97.72,4.16,1.13,6.1,1.92,5.37,2.24,10.64,5.24,16.56,5.66,4.92.51,9.92-.83,14.82-.01,8.97,1.43,15.9,8.1,24.41,10.78,3.11.99,6.44.37,9.59-.1,6.91-1.19,13.89-2.25,20.92-2.34,2.58-.04,5.26-.22,7.85-.2,2.88.06,5.84.36,8.72.5,4.05.22,8.19.06,12.2-.56,7.69-1.03,9.79-3.26,17.43.74"/><path class="b" d="M8.39,178.8c3.51-1,7.07-2.09,10.46-3.44,5-2.07,10.18-4.34,15.69-4.29,3.55-.02,7.08.85,10.46,1.83,2,.61,4.17,1.07,6.1,1.89,4.42,1.9,8.56,4.55,13.08,6.24,5.55,2.33,11.64,2.24,17.43,3.5,6.1,1.68,11.28,5.57,16.56,8.9,1.35.7,2.75,2.16,4.36,2.02,2.88,0,5.84,0,8.72,0,6.38,0,12.8,0,19.18,0,13.65,0,27.32,0,40.97,0,1.7.08,3.54-.11,5.23-.22,2.28.23,4.68.25,6.97.22"/><path class="b" d="M8.39,171.11c4.04-.85,8.2-1.33,12.2-2.34,5.96-1.61,12.06-3.42,18.31-2.93,4.14.3,8.3,1.26,12.2,2.67,4.12,1.59,8.11,3.67,12.2,5.33,5.63,2.44,11.68,3.75,17.43,5.82,5.34,2.17,10,5.75,14.82,8.85,1.08.7,2.38,1.52,3.49,2.17.77.03,1.84.03,2.62.03,3.17,0,6.42,0,9.59,0,8.42,0,16.86,0,25.28,0,15.69,0,31.39,0,47.07,0"/><path class="b" d="M8.39,165.3c4.62-.75,9.32.02,13.95-.4,6.38-.57,12.74-2.14,19.18-1.81,3.27.1,6.49.98,9.59,1.95,3.17.93,6.41,1.84,9.59,2.74,5.59,1.59,11.26,3.17,16.56,5.59,4.34,1.93,8.26,4.74,12.2,7.34,1.95,1.29,4.05,2.61,6.1,3.75,1.07.53,2.28,1.38,3.49,1.54,4.63,0,9.32,0,13.95,0,23.53,0,47.08,0,70.61,0"/><path class="b" d="M8.39,161.68c2.3-.2,4.72-.09,6.97.39,2.55.66,5.2,1.32,7.85,1.46,5.54.42,11.06-.72,16.56-1.1,2.3-.15,4.72-.1,6.97.37,2.55.7,5.19,1.4,7.85,1.58,6.74.5,13.76.39,20.05,3.23,3.77,1.58,7.1,4.12,10.46,6.4,4.03,2.76,8.35,5.32,13.08,6.69,2.78.95,5.84.43,8.72.55,25.57,0,51.15,0,76.71,0"/><path class="b" d="M8.39,159.65c9.83-.5,10.56,5.49,26.15,3.4,3.45-.41,6.98-1.03,10.46-.73,2.63.23,5.17,1.45,7.85,1.37,5.23.04,10.44-1.48,15.69-.95,12.72,1.18,16.64,12.63,32.25,13.1,2.88.13,5.85-.05,8.72.27,3.13.65,6.41.33,9.59.4,21.5,0,43.01,0,64.51,0"/><path class="b" d="M8.39,157.8c2.02-.1,4.16.13,6.1.69,2.04.6,4.04,1.65,6.1,2.19,3.94,1.16,8.14,1.31,12.2.88,4.33-.41,8.71-1.43,13.08-.93,1.73.2,3.49.91,5.23,1.04,4.96.41,9.87-1.1,14.82-1.22,5.25-.27,10.47,1.4,14.82,4.3,4.53,2.82,9.44,5.4,14.82,6.01,4.04.53,8.16-.06,12.2,0,2.63-.05,5.23,1.03,7.85,1.02,22.66,0,45.33,0,68,0"/><path class="b" d="M8.39,155.48c3.85-.2,7.63.73,11.33,1.63,3.41.72,6.97,1.04,10.46.97,5.52-.05,11.04-1.21,16.56-.77,6.07,1.15,12.21-.22,18.31-.23,5.09-.04,10.18,1.12,14.82,3.18,5.24,2.34,10.8,4.2,16.56,4.55,4.04.32,8.16,0,12.2.32,4.33.41,8.74,1.87,13.08,1.94,20.63,0,41.27,0,61.89,0"/><path class="b" d="M8.39,152.74c4.05-.08,8.16-.19,12.2-.05,5.5.23,11.05.61,16.56.52,9.29-.03,18.63-1.28,27.9-.27,8.21,1.02,16.19,3.48,24.41,4.47,10.47,1.51,21.14,2.09,31.38,4.88,20.92.12,41.85,0,62.77.04"/><path class="b" d="M8.39,149.72c2.32-.13,4.72-.46,6.97-1.01,2.53-.75,5.2-1.34,7.85-1.39,6.12-.19,12.19,1.26,18.31,1.24,3.54.15,6.98-.97,10.46-1.37,8.09-.79,15.7,2.74,23.54,4.03,2.86.5,5.84.21,8.72.18,3.48-.05,7.04.17,10.46.8,6.16,1.08,12.07,3.52,18.31,4.21,1.72.28,3.53.81,5.23,1.17,1.7,0,3.53,0,5.23,0,20.05,0,40.1,0,60.15,0"/><path class="b" d="M8.39,146.69c3.38-.32,6.61-1.6,9.59-3.19,5.54-2.54,11.73-1.15,17.43,0,3.13.6,6.42,1.08,9.59.58,2.08-.27,4.04-1.39,6.1-1.75,6.77-1.16,12.98,2.65,19.18,4.74,7.44,2.7,9.53.6,16.56.09,3.22-.19,6.52.3,9.59,1.29,3.86,1.2,7.49,3.2,11.33,4.43,2.29,0,4.68,0,6.97,0,22.95,0,45.92,0,68.87,0"/><path class="b" d="M8.39,144.02c3.46-.57,6.66-2.2,9.59-4.06,5.12-2.88,11.17-1.68,16.56-.3,3.39.8,6.98,1.6,10.46.97,2.12-.31,4.01-1.65,6.1-2.04,6.69-1.12,12.49,3.46,18.31,6.01,2.96,1.35,6.3,2.47,9.59,1.91,1.7-.37,3.51-.92,5.23-1.19,2.56-.45,5.29-.5,7.85,0,2.71.51,5.37,1.61,7.85,2.81,1.4,0,2.96,0,4.36,0,26.44,0,52.89,0,79.33,0"/><path class="b" d="M8.39,141.68c3.42-.61,6.61-2.15,9.59-3.88,5.2-2.66,11.18-1.37,16.56-.03,3.11.73,6.38,1.44,9.59,1.11,2.13-.13,4.11-1.21,6.1-1.84,5.96-1.5,11.55,2.16,16.56,4.91,1.08.49,2.24,1.59,3.49,1.43,2.29,0,4.68,0,6.97,0,5.8,0,11.64,0,17.43,0,29.64,0,59.28,0,88.92,0"/><path class="b" d="M8.39,138.45c2.35-.29,4.76-.87,6.97-1.71,2.2-.97,4.55-1.86,6.97-1.99,7.68-.58,14.98,3.59,22.67,2.63,2.65-.33,5.14-1.74,7.85-1.78,2.66-.14,5.38.48,7.85,1.42,1.44.43,2.85,1.55,4.36,1.64,8.13,0,16.28,0,24.41,0,31.38,0,62.77,0,94.15,0"/><path class="b" d="M8.39,133.63c2.31-.05,4.71-.27,6.97-.72,2.82-.74,5.8-1.1,8.72-.79,3.51.3,7.01,1.15,10.46,1.8,4.63,0,9.32,0,13.95,0,1.72.03,3.51-.62,5.23-.68,2.61-.24,5.31.05,7.85.68,5.51,0,11.06,0,16.56,0,35.16,0,70.32,0,105.48,0"/><path class="b" d="M8.39,127.29c3.75.33,7.57.13,11.33.22,3.8.22,7.58,1.06,11.33,1.67,4.92,0,9.9,0,14.82,0,2.29,0,4.68,0,6.97,0,1.09-.21,2.38-.44,3.49-.58,1.99-.25,4.12-.29,6.1-.02,1.11.12,2.37.58,3.49.6,4.92,0,9.9,0,14.82,0,34.29,0,68.58,0,102.87,0"/><path class="b" d="M8.39,120.24c4.06.44,8.18.93,12.2,1.67,5.47,1.05,10.98,2.27,16.56,2.55,4.05-.06,8.17.17,12.2-.21,3.81-.54,7.48-2.11,11.33-2.46,2.62-.27,5.37.07,7.85.96,1.74.5,3.35,1.93,5.23,1.71,13.07,0,26.16,0,39.23,0,3.46,0,7,0,10.46,0,3.42-.71,6.99-1.02,10.46-.45,3.13.66,6.41.42,9.59.45,3.76-.04,7.59.14,11.33-.24,9.57.36,19.18.22,28.77.24"/><path class="b" d="M8.39,113.93c6.53.38,12.78,2.61,19.18,3.76,6.31,1.24,12.79,1.18,19.18.82,6.28.12,11.97-3.84,18.31-3.25,2.73.19,5.43,1.14,7.85,2.38.79.4,1.85,1,2.61,1.45.43.32,1.21.67,1.74.64,12.2,0,24.42,0,36.61,0,1.7-.04,3.55.11,5.23-.11,1.36-.72,2.92-1.48,4.36-2.04,3.29-1.32,6.93-1.88,10.46-1.52,3.51.29,6.96,1.43,10.46,1.77,3.75.25,7.58-.34,11.33,0,2.68.18,5.34,1,7.85,1.9,6.67,0,13.38,0,20.05,0"/><path class="b" d="M8.39,107.72c5.13.34,9.93,2.41,14.82,3.82,4.5,1.33,9.25,2,13.95,1.77,2.89-.12,5.84-.53,8.72-.86,1.7-.2,3.55-.28,5.23-.66,5.12-1.19,10.39-2.88,15.69-1.81,3.02.54,5.94,1.75,8.72,3.02,1.95.78,3.92,2.21,6.1,1.99,12.78-.07,25.59.14,38.36-.08,5.5-3.24,11.81-5.84,18.31-4.85,2.62.3,5.24,1.14,7.85,1.5,4.09.57,8.3,1.03,12.2,2.44.77.27,1.84.7,2.62.99,2.29,0,4.68,0,6.97,0,5.21,0,10.48,0,15.69,0"/><path class="b" d="M8.39,102.13c5.55.95,10.45,3.99,15.69,5.88,6.3,2.47,12.78,2.02,19.18.21,5.42-1.28,10.98-2.47,16.56-2.73,5.36-.2,10.58,1.39,15.69,2.8,2.84.82,5.9.93,8.72,1.82,4.26.38,8.78.04,13.08.15,7.84,0,15.7,0,23.54,0,.77,0,1.84,0,2.62,0,1.67-.91,3.5-1.88,5.23-2.68,3.51-1.62,7.43-2.81,11.33-2.38,3.87.6,7.64,2.06,11.33,3.32,1.71.49,3.42,1.81,5.23,1.75,9,0,18.02,0,27.02,0"/><path class="b" d="M8.39,98.17c3.37,1.12,6.5,2.99,9.59,4.72,1.7.83,3.35,2.33,5.23,2.63,7.25,0,14.54,0,21.79,0,2.77-1.09,5.76-1.84,8.72-2.15,7.32-.9,14.52,1.29,21.79,1.63,2.91.16,5.84-.58,8.72-.86,3.47-.37,7.07-.19,10.46.67.78.19,1.84.51,2.62.71,1.99,0,4.11,0,6.1,0,4.05,0,8.16,0,12.2,0,2.88,0,5.84,0,8.72,0,1.69-.07,3.56.18,5.23-.17,1.93-.99,4.02-1.97,6.1-2.59,2.83-.92,5.99-.82,8.72.4,1.74.66,3.57,1.49,5.23,2.34,3.75.07,7.58,0,11.33.03,7.54,0,15.12,0,22.67,0"/><path class="b" d="M8.39,96.08c2.77,1.25,5.15,3.36,7.85,4.71,5.51,0,11.06,0,16.56,0,11.91,0,23.83,0,35.74,0,3.76,0,7.58,0,11.33,0,2.19.13,4.11-1.51,6.1-2.2,3.52-1.59,7.64-2.25,11.33-.85,1.82.65,3.63,1.68,5.23,2.75,1.03.49,2.39.25,3.49.3,1.4,0,2.96,0,4.36,0,6.38,0,12.8,0,19.18,0,18.01,0,36.04,0,54.05,0"/><path class="b" d="M8.39,95.35c1.45,1.14,3.52.58,5.23.71,2.59,0,5.26,0,7.85,0,8.13,0,16.28,0,24.41,0,6.96,0,13.96,0,20.92,0,5.22,0,10.48,0,15.69,0,.95.02,1.86-.86,2.62-1.33,1.34-.91,2.88-1.87,4.36-2.53,3.35-1.65,7.37-1.25,10.46.78,1.51.84,2.84,2.27,4.36,3.07,2.58,0,5.26,0,7.85,0,6.09,0,12.22,0,18.31,0,17.72,0,35.46,0,53.18,0"/><path class="b" d="M8.39,91.32c18.88,0,37.78,0,56.66,0,4.05,0,8.16,0,12.2,0,1.99,0,4.11,0,6.1,0,.86-.25,1.85-.98,2.62-1.43,6.58-4.11,10.66-3.14,16.56,1.43h81.07"/><path class="b" d="M8.39,86.59c18.59,0,37.2,0,55.79,0,4.34,0,8.74,0,13.08,0,1.7,0,3.53,0,5.23,0,1.17-.25,2.39-1.03,3.49-1.48,5.13-2.41,9.37-1.73,13.95,1.48h83.69"/><path class="b" d="M8.39,81.86c16.56,0,33.13,0,49.69,0,7.54,0,15.12,0,22.66,0,2.81-.9,5.72-2.01,8.72-2.02,1.43,0,3.01.27,4.36.74,1.14.31,2.28,1.31,3.49,1.28,9.29,0,18.61,0,27.9,0,19.46,0,38.94,0,58.41,0"/><path class="b" d="M8.39,77.12c15.69,0,31.39,0,47.07,0,7.54,0,15.12,0,22.66,0,2.53-.72,5.2-1.38,7.85-1.49,1.41-.05,2.99.11,4.36.47,1.13.23,2.33.98,3.49,1.02,9.58,0,19.19,0,28.77,0,20.34,0,40.69,0,61.02,0"/><path class="b" d="M8.39,72.39c15.4,0,30.81,0,46.2,0,7.54,0,15.12,0,22.67,0,2.24-.68,4.6-1.31,6.97-1.28,1.42-.01,2.99.18,4.36.55.78.21,1.8.64,2.62.74.44,0,1.31,0,1.74,0,9.58,0,19.19,0,28.77,0,20.63,0,41.27,0,61.89,0"/><path class="b" d="M8.39,67.66c16.27,0,32.55,0,48.82,0,6.67,0,13.38,0,20.05,0,.84.06,1.82-.49,2.62-.67,1.67-.39,3.52-.6,5.23-.51,1.75.09,3.6.53,5.23,1.16,3.17.04,6.42,0,9.59.02,8.13,0,16.28,0,24.41,0,7.54-.1,15.14.26,22.66-.24,4.62.34,9.31.24,13.95.24,7.54,0,15.12,0,22.67,0"/><path class="b" d="M8.39,62.93c15.4,0,30.81,0,46.2,0,7.25,0,14.54,0,21.79,0,.88.16,1.83-.48,2.62-.78,1.35-.47,2.93-.76,4.36-.88,2.02-.15,4.17.11,6.1.71,1.1.29,2.31,1.08,3.49.95,7.54,0,15.12,0,22.67,0,6.09-.02,12.22.03,18.31-.02,3.47-2.05,7.23-4.16,11.33-4.45,3.32-.15,6.6.97,9.59,2.31,1.1.5,2.41,1.14,3.49,1.7,0,0,.87.45.87.45h.87c7.84,0,15.7,0,23.54,0"/><path class="b" d="M8.39,58.19c14.81,0,29.64,0,44.46,0,7.25,0,14.54,0,21.79,0,2.21-1.06,4.46-2.39,6.97-2.53,2.32-.26,4.77.07,6.97.81,1.46.41,2.89,1.38,4.36,1.72,6.67,0,13.38,0,20.05,0,4.34,0,8.74,0,13.08,0,1.4,0,2.96,0,4.36,0,.86.06,1.98,0,2.62-.66,3.5-2.31,7.17-4.78,11.33-5.65,6.69-.92,12.58,3.46,18.31,6.26,6.96.15,13.96,0,20.92.06"/><path class="b" d="M8.39,53.46c14.52,0,29.06,0,43.59,0,6.38,0,12.8,0,19.18,0,1.2-.13,2.38-1.03,3.49-1.48,1.89-.88,4-1.67,6.1-1.82,2.66-.2,5.4.45,7.85,1.46,1.45.48,2.85,1.62,4.36,1.84,7.25,0,14.54,0,21.79,0,5.51,0,11.06,0,16.56,0,.84.05,1.96.01,2.62-.6,1.08-.67,2.39-1.46,3.49-2.11,3.67-2.18,7.79-4.44,12.2-3.56,6.1,1.01,11.45,4.58,17.43,6.03,2.53.52,5.27.13,7.85.24,3-.56,5.9-1.85,8.72-2.99"/><path class="b" d="M8.39,48.73c18.88,0,37.78,0,56.66,0,1.1,0,2.39,0,3.49-.01,1.09-.43,2.38-.93,3.49-1.31,3.05-1.04,6.33-1.95,9.59-1.76,2.38.17,4.78.93,6.97,1.83,1.1.38,2.3,1.22,3.49,1.25,9.29,0,18.61,0,27.9,0,3.46,0,7,0,10.46,0,1.09,0,2.4,0,3.49,0,.79,0,1.88.08,2.62-.29,4.17-2.05,8.19-5.23,13.08-4.92,7.05.25,13.78,3.97,20.92,2.86,4.71-.73,8.73-3.67,13.08-5.44"/><path class="b" d="M8.39,43.99c18.88,0,37.78,0,56.66,0,1.1-.01,2.4.05,3.49-.08,1.09-.24,2.39-.47,3.49-.63,2.86-.41,5.83-.6,8.72-.54,2.03.1,4.14.56,6.1,1.08,1.07.28,2.39.14,3.49.17,9,0,18.02,0,27.02,0,7.54-.02,15.12.03,22.67-.02,2.5-1.34,4.97-3.08,7.85-3.51,7.51-1.22,15.32,2.14,22.67-.64,4.64-1.69,8.36-5.32,13.08-6.88"/><path class="b" d="M8.39,39.26c28.18,0,56.38,0,84.56,0,4.34,0,8.74,0,13.08,0,1.7-.01,3.53.03,5.23-.03.76-.18,1.83-.3,2.62-.3,1.1,0,2.4.18,3.49.33,2.29,0,4.68,0,6.97,0,5.51,0,11.06,0,16.56,0,2.23-1.14,4.43-2.67,6.97-3.03,8.03-1.25,15.76,2.44,23.54-1.84,4.12-2.31,7.53-6.05,12.2-7.32"/><path class="b" d="M8.39,34.53c31.09,0,62.19,0,93.28,0,2.29,0,4.68,0,6.97,0,1.99-.45,4.01-1.34,6.1-1.19,2.35,0,4.68.83,6.97,1.19,3.76,0,7.58,0,11.33,0,1.99,0,4.11,0,6.1,0,1.59.15,3.03-1.16,4.36-1.85,2.08-1.17,4.6-1.67,6.97-1.58,7.87.47,15.4,4.43,22.67-.83,3.32-2.54,6.47-5.6,10.46-7.08"/><path class="b" d="M8.39,29.79c32.25,0,64.51,0,96.76,0,2.29,0,4.68,0,6.97,0,1.39-.19,2.95-.46,4.36-.35,3.16.44,6.41.36,9.59.35,4.34,0,8.74,0,13.08,0,1.61.25,3.06-.82,4.36-1.62,2.87-1.67,6.4-1.84,9.59-1.17,6.5,1.37,13.88,5.13,20.05.84,3.48-2.6,6.59-5.88,10.46-7.95"/><path class="b" d="M8.39,25.06c31.67,0,63.35,0,95.02,0,12.78,0,25.58,0,38.36,0,.46.1,1.36-.14,1.74-.42.73-.42,1.81-.9,2.62-1.17,1.92-.63,4.1-.76,6.1-.52,2.96.3,5.83,1.46,8.72,2.11,3.76,0,7.58,0,11.33,0,1.63-.64,3.03-2.07,4.36-3.17,2.23-1.95,4.54-4.05,6.97-5.76"/><path class="b" d="M8.39,20.33c30.51,0,61.02,0,91.53,0,15.4,0,30.81,0,46.2,0,1.7-.28,3.48-.94,5.23-.97,2.92-.21,5.87.47,8.72.97,3.76,0,7.58,0,11.33,0,2.1.19,3.7-1.78,5.23-2.93,2.28-1.97,4.59-4.13,6.97-5.98"/></svg>