<?xml version="1.0" encoding="UTF-8"?><svg id="a" xmlns="http://www.w3.org/2000/svg" width="1920" height="2400" viewBox="0 0 192 240"><defs><style>.b{fill:none;stroke:#fff;stroke-miterlimit:10;stroke-width:.4px;}.c{stroke-width:0px;}</style></defs><rect class="c" x="0" width="192" height="240"/><path class="b" d="M8.14,228.95c13.69,0,27.4,0,41.09,0,6.4,0,12.83,0,19.23,0,1.26-.21,2.42-1.28,3.5-1.91,1.96-1.3,4.01-2.74,6.12-3.79,5.17-2.82,11.03-.26,15.74,2.34,2,1.08,4.09,2.27,6.12,3.28,1.99.18,4.12.04,6.12.08,5.52,0,11.09,0,16.61,0,11.36,0,22.74,0,34.1,0,2,0,4.12,0,6.12,0,2.01-.37,4.13-.86,6.12-1.32,2.29-.5,4.67-1.19,6.99-1.53,2.61-.26,5.31.26,7.87.75"/><path class="b" d="M8.14,224.21c7.86,0,15.75,0,23.6,0,4.64-.12,9.37.27,13.99-.21,2.89-.29,5.85.19,8.74.17,7.29.27,13.48-3.86,19.23-7.81,6.06-4.19,10.17-4.54,16.61-.84,4.99,2.79,9.45,6.71,14.86,8.7,8.44,0,16.91,0,25.35,0,12.52,0,25.07,0,37.59,0,2.29-.01,4.7.03,6.99-.02,2.86-.48,5.86-.39,8.74-.56"/><path class="b" d="M8.14,218.6c2.05-.03,4.13.48,6.12.86,6.11,0,12.25,0,18.36,0,1.83.22,3.57-.58,5.25-1.2,2.27-.83,4.65-1.7,6.99-2.29,3.13-.79,6.46-.74,9.62-1.36,6.03-.98,11.44-4.04,16.61-7.14,7.48-4.51,11.63-5.54,19.23-.47,5.73,3.63,10.75,8.93,17.49,10.66,1.98.53,4.11.03,6.12.12,2.08.12,4.21.73,6.12,1.54,4.33.34,8.77.03,13.11.13,16.89-.09,33.82.18,50.71-.1"/><path class="b" d="M8.14,210.53c3.56.56,6.98,1.96,10.49,2.71,8.11,1.86,16.16-1.06,23.61-4.06,5.71-2.22,11.86-3.23,17.49-5.72,6.33-2.43,12.38-6.19,19.23-6.91,7.87-.5,14.68,6.84,20.98,10.74,2.9,1.89,6.12,3.7,9.62,4.11,2.01.12,4.18-.09,6.12.61,1.14.35,2.44.92,3.5,1.47.76.39,1.75,1.09,2.62,1.21,5.81,0,11.67,0,17.49,0,6.4,0,12.84,0,19.23,0,2.3,0,4.7,0,6.99,0,2-.2,4.11-.45,6.12-.56,4.07-.31,8.28-.22,12.24-1.33"/><path class="b" d="M8.14,201.35c2.61.76,5.21,1.88,7.87,2.5,5.44,1.1,11.06,2.06,16.61,1.28,7.36-1.02,14.12-4.41,20.98-7.07,8.26-3.47,17.17-6.25,26.23-5.2,8.88,1.27,15.56,8.13,23.6,11.54,8.58,3.7,8.27-.29,18.36,5.56,9.61,0,19.24,0,28.85,0,8.11-4.61,13.17-6.53,22.73-6.27,3.48-.06,7.02.49,10.49.19"/><path class="b" d="M8.14,192.24c2.3.86,4.62,1.98,6.99,2.62,2,.43,4.15.71,6.12,1.26,4.84,1.25,9.82,2.62,14.86,2.26,7.59-.28,13.88-5.06,20.98-7.12,4.22-1.27,8.76-1.5,13.11-.85,4.09.67,8.2,1.55,12.24,2.47,9.22,2.61,17.43,8.53,27.1,9.54,1.71.14,3.57.12,5.25.54,2.36.52,4.72,1.45,6.99,2.27,6.98-.01,14,.02,20.98-.01,5.79-3.98,10.91-9.16,17.49-11.89,4.93-2.13,10.47-2.19,15.74-1.7,2.65.39,5.27,1.34,7.87,1.98"/><path class="b" d="M8.14,184.92c2.01.8,4.07,1.81,6.12,2.52,1.67.58,3.57.76,5.25,1.3,3.82,1.16,7.51,2.88,11.37,3.92,17.14,4.76,19.38-9.3,38.47-3.17,2.61.8,5.25,1.82,7.87,2.57,2.27.64,4.72.97,6.99,1.61,4.97,1.31,9.87,3.05,14.86,4.27,3.13.77,6.39,1.35,9.62,1.55,3.49.06,7.04.2,10.49.75,3.74.49,7.6.14,11.37.24,4.8-.44,9.29-2.88,13.11-5.7,5.94-4.51,11.26-10.23,18.36-12.92,4.42-1.68,9.33-1.83,13.99-1.33,2.8.58,5.38,2.13,7.87,3.48"/><path class="b" d="M8.14,179.79c2.63.85,5.22,2.1,7.87,2.9,3.34.83,6.5,2.43,9.62,3.85,6.75,3.27,13.78,4.9,20.98,2.01,3.58-1.56,7.41-2.88,11.37-2.78,5.5.01,10.67,2.25,15.74,4.12,4.46,1.78,9.34,2.07,13.99,3.15,5.19,1.08,10.44,2.16,15.74,2.57,4.93.26,9.96.23,14.86-.41,13.69-1.63,24.38-9.68,34.97-17.79,6.9-5.02,13.37-6.65,21.86-5.77,3.29.5,6.09,2.68,8.74,4.55"/><path class="b" d="M8.14,176.81c5.52,1.35,10.75,3.83,15.74,6.52,6.61,3.65,13.53,5.73,20.98,3.43,3.43-1.04,6.86-2.49,10.49-2.63,5.71-.42,11.26,1.44,16.61,3.17,1.97.62,4.08,1.24,6.12,1.59,2.88.38,5.86.58,8.74.97,5.79.76,11.64,1.31,17.49,1.12,3.18-.06,6.47.22,9.62-.39,7.3-1.5,13.72-5.66,20.11-9.3,5.49-3.28,11.33-6.03,16.61-9.64,6.25-4.17,13.31-7.28,20.98-6.49,5.25.06,8.24,2.19,12.24,5.32"/><path class="b" d="M8.14,175.7c6.88.87,12.27,5.67,18.36,8.54,2.45,1.15,5.11,2.25,7.87,1.98,2.85-.13,5.95.29,8.74-.24,4.86-1.31,9.76-2.95,14.86-2.77,6.2,0,12.24,1.78,18.36,2.52,2.58.31,5.28.16,7.87.25,3.77.09,7.6.22,11.37.22,3.77,0,7.6-.13,11.37-.4,2.3-.21,4.75-.24,6.99-.82,4.06-1.12,7.75-3.39,11.37-5.49,3.96-2.35,8-4.72,12.24-6.54,3.42-1.53,7.18-2.41,10.49-4.2,6.33-3.27,12.77-7.23,20.11-7.39,6.75-.19,10.39,1.56,15.74,5.51"/><path class="b" d="M8.14,175.71c4.65.39,8.53,3.18,12.24,5.76,25.06.04,50.13,0,75.19.02,3.77-.32,7.6-.77,11.37-1.19,2.6-.35,5.37-.38,7.87-1.24,4.56-1.57,8.71-4.2,13.11-6.12,3.33-1.5,6.9-2.65,10.49-3.3,3.53-.6,7.23-.87,10.49-2.5,7.7-3.52,15.59-9.11,24.48-7.21,3.8.74,7.19,2.91,10.49,4.84"/><path class="b" d="M8.14,175.51c1.45.22,3.01.68,4.37,1.23,2.89,0,5.85,0,8.74,0,6.4,0,12.83,0,19.23,0,18.65,0,37.31,0,55.95,0,2.35.18,4.7-.44,6.99-.87,2.87-.55,5.84-.99,8.74-1.33,4.84-.86,9.27-3.29,13.99-4.57,3.38-.99,6.97-1.43,10.49-1.38,2.88-.05,5.88.49,8.74-.01,7.04-1.66,12.49-7.06,19.23-9.48,7.45-2.97,12.74.33,19.23,3.72"/><path class="b" d="M8.14,171.99c31.18,0,62.37,0,93.55,0,2.96.18,5.82-1.06,8.74-1.35,4.81-.44,9.3-2.53,13.99-3.55,3.12-.71,6.42-.95,9.62-.69,3.49.2,6.99,1.2,10.49,1.2,2.13-.15,4.26-1.02,6.12-2.03,7.23-3.76,13.92-11.6,22.73-10.46,3.78.77,7.17,2.93,10.49,4.78"/><path class="b" d="M8.14,167.24c32.64,0,65.28,0,97.92,0,6.71.36,12.8-3.06,19.23-4.34,3.14-.62,6.46-.59,9.62-.05,8.58,1.61,10.85,3.68,19.23-1.26,6.29-3.45,12.44-9.57,20.11-8.77,3.5.59,6.66,2.55,9.62,4.42"/><path class="b" d="M8.14,162.5c34.39,0,68.78,0,103.16,0,4.85-.67,9.16-3.55,13.99-4.41,5.63-1.32,11.28.48,16.61,2.2,3.99,1.36,8.4.81,12.24-.79,3.64-1.46,7.04-3.57,10.49-5.42,2.97-1.56,6.2-3.13,9.62-3.19,3.49,0,6.75,1.78,9.62,3.6"/><path class="b" d="M8.14,157.75c23.89,0,47.8,0,71.69,0,6.69,0,13.42,0,20.11,0,2.3,0,4.7,0,6.99,0,1.4-.06,3,.16,4.37-.19,5.38-1.18,10.16-4.59,15.74-5.02,9.92-.9,16.59,7.16,27.1,4.83,6.94-1.3,12.51-6.24,19.23-8.14,3.58-.96,7.35.29,10.49,2.03"/><path class="b" d="M8.14,153c23.6,0,47.21,0,70.81,0,6.11,0,12.25,0,18.36,0,2,0,4.12,0,6.12,0,1.4-.05,3.01.17,4.37-.24,2.3-.58,4.77-.96,6.99-1.84,3.66-1.39,7.39-3.11,11.37-3.27,3.65-.19,7.25,1.06,10.49,2.65,1.1.53,2.4,1.19,3.5,1.73,1.02.54,2.3,1.12,3.5.97,2.89,0,5.86,0,8.74,0,3.18,0,6.44,0,9.62,0,1.88-.37,3.56-1.77,5.25-2.64,5.55-3.45,10.09-5.48,16.61-2.95"/><path class="b" d="M8.14,148.26c21.85,0,43.72,0,65.57,0,9.9,0,19.82,0,29.72,0,3.2-.59,6.43-1.42,9.62-2.06,2.59-.68,5.22-1.64,7.87-2.08,3.86-.72,7.9.07,11.37,1.85,1.7.65,3.39,2.43,5.25,2.29,3.47,0,7.02,0,10.49,0,6.11,0,12.25,0,18.36,0,.5-.02,1.38-.46,1.75-.81,1.06-.75,2.38-1.63,3.5-2.31,3.6-2.26,8.09-2.9,12.24-2.1"/><path class="b" d="M8.14,143.51c21.27,0,42.55,0,63.82,0,9.9,0,19.82,0,29.72,0,1.75.15,3.55-.41,5.25-.76,2.28-.51,4.7-.84,6.99-1.25,3.73-.73,7.71-1.07,11.37.2,1.76.42,3.38,1.94,5.25,1.81,7.27,0,14.58,0,21.86,0,4.35,0,8.76,0,13.11,0,.78,0,1.88.06,2.62-.21.74-.67,1.83-1.57,2.62-2.19,3.6-2.99,8.55-3.94,13.11-3.31"/><path class="b" d="M8.14,138.76c21.27,0,42.55,0,63.82,0,10.19,0,20.41,0,30.6,0,4.07-.38,8.14-1.46,12.24-1.66,2.01-.13,4.17.01,6.12.54,1.42.32,2.87,1.28,4.37,1.12,13.98,0,27.98,0,41.96,0,2.01-1.75,3.8-4.01,6.12-5.39,3.12-1.83,7.01-2.12,10.49-1.35"/><path class="b" d="M8.14,134.02c20.98,0,41.97,0,62.95,0,9.61,0,19.24.02,28.85,0,4.66-.2,9.34-.87,13.99-1.21,2.34-.09,4.81.26,6.99,1.12,1.69.22,3.55.06,5.25.11,13.69,0,27.4,0,41.09,0,4.63-5.59,8.91-9.46,16.61-7.05"/><path class="b" d="M8.14,129.27c22.73,0,45.46,0,68.19,0,.78,0,1.84,0,2.62,0,1.44-.32,2.91-1.11,4.37-1.38,2.83-.66,5.85-.7,8.74-.51,4.65.32,9.32,1.11,13.99,1.19,3.19.16,6.43-.55,9.62-.38,1.75.07,3.57.6,5.25,1.09,5.52,0,11.09,0,16.61,0,10.19-.1,20.43.19,30.6-.11,4.21-5.01,9.01-8.41,15.74-6.01"/><path class="b" d="M8.14,124.52c13.98,0,27.98,0,41.96,0,6.4-.08,12.85.16,19.23-.1,3.81-1.32,7.68-2.63,11.37-4.27,7.87-2.9,15.86,1.4,23.61,2.7,1.98.35,4.11.54,6.12.42,2-.18,4.11-.43,6.12-.27,1.43.1,3.01.41,4.37.86.77.26,1.78.8,2.62.66,14.57,0,29.15,0,43.71,0,.76,0,1.85,0,2.62,0,.9-.35,1.85-1.28,2.62-1.83,3.19-2.44,7.48-3.34,11.37-2.28"/><path class="b" d="M8.14,119.78c13.11,0,26.23,0,39.34,0,6.11,0,12.25,0,18.36,0,3.38-1.92,6.94-3.68,10.49-5.27,1.98-.85,4.01-1.97,6.12-2.45,5.37-1.17,10.72.96,15.74,2.67,3.65,1.26,7.47,2.5,11.37,2.51,2.89-.1,5.85-.66,8.74-.24,1.76.22,3.62.74,5.25,1.45,1.12.38,2.27,1.48,3.5,1.31,14.57,0,29.15,0,43.71,0,1.4,0,2.97,0,4.37,0,2.69-1.29,5.75-2.01,8.74-1.92"/><path class="b" d="M8.14,115.03c16.02,0,32.06,0,48.08,0,1.4,0,2.97,0,4.37,0,.96.1,1.98-.15,2.62-.9,3.73-3.08,7.83-5.83,12.24-7.84,2.23-.97,4.58-2.06,6.99-2.48,6.97-1.03,13.52,2.45,20.11,4.14,10.25,2.92,14.08-1.8,24.48,5.45.76.52,1.71,1.4,2.62,1.63.77,0,1.85,0,2.62,0,2,0,4.12,0,6.12,0,9.61,0,19.24,0,28.85,0,3.18,0,6.44,0,9.62,0,1.4,0,2.97,0,4.37,0,.76-.22,1.85-.55,2.62-.75"/><path class="b" d="M8.14,110.28h49.83c3.23-2.95,6.03-6.57,9.62-9.15,5.86-4.57,13.61-6.95,20.98-5.45,5.87,1.04,11.58,3.01,17.49,3.85,2.87.5,5.88.38,8.74.84,6.57,1.08,11.83,5.58,16.61,9.91,11.36,0,22.74,0,34.1,0,3.77,0,7.6,0,11.37,0,1.4,0,2.97,0,4.37,0,.81.02,1.91.05,2.62-.42"/><path class="b" d="M8.14,105.53h46.34c6.17-7.63,12.7-17.65,23.6-17.8,7.65-.31,15.16,1.82,22.73,2.57,4.06.52,8.22.74,12.24,1.5,8.16,1.84,14.26,8.12,20.11,13.7,10.77.08,21.57,0,32.35.03,3.77,0,7.6,0,11.37,0,1.4,0,2.97,0,4.37,0,.82.03,1.92.02,2.62-.46"/><path class="b" d="M8.14,100.79c9.32,0,18.66,0,27.98,0,3.18,0,6.44,0,9.62,0,1.4,0,2.97,0,4.37,0,1.14-.23,1.9-1.7,2.62-2.51,5.44-6.6,10.76-16.34,20.11-17.34,4.12-.25,8.19.99,12.24,1.56,4.6.78,9.32,1.11,13.99,1.1,4.36.03,8.85-.18,13.11.93,9.51,2.54,16.21,10.3,23.6,16.26,10.19,0,20.41,0,30.6,0,3.77,0,7.6,0,11.37,0,1.99-.12,4.21.33,6.12-.38"/><path class="b" d="M8.14,96.04c12.23,0,24.49,0,36.72,0,.47.04,1.31-.06,1.75-.22.77-.75,1.86-1.72,2.62-2.47,3.13-3.22,5.78-7.01,8.74-10.37,3.68-4.3,8.78-8.73,14.86-7.63,3.56.59,6.95,2.15,10.49,2.85,5.14,1.22,10.51,1.19,15.74.58,3.46-.35,7.02-.85,10.49-.39,11.94,2.13,20.9,11.1,30.6,17.65h43.71"/><path class="b" d="M8.14,91.29h35.84c3.06-2.53,6.08-5.35,8.74-8.31,4.69-5.07,9.83-11.98,17.49-11.61,3.65.21,7,1.99,10.49,2.9,3.96,1.09,8.14,1.58,12.24,1.34,5.26-.23,10.46-1.71,15.74-1.51,13.9,1.72,26.45,9.02,37.59,17.17,12.52.05,25.07,0,37.59.02"/><path class="b" d="M8.14,86.55c8.15,0,16.33,0,24.48,0,3.77,0,7.6,0,11.37,0,.97-.19,1.87-1.19,2.62-1.77.77-.62,1.84-1.42,2.62-2.02,8.12-6.82,14.29-15.37,26.23-12.72,4.87,1.03,9.89,1.42,14.86,1.23,5.52-.15,11.08-.83,16.61-.55,4.7.33,9.36,1.46,13.99,2.33,6.71,1.4,13.29,3.7,19.23,7.13,2.08,1.18,4.22,2.56,6.12,4.02,1.09.74,2.21,1.98,3.5,2.35.77,0,1.85,0,2.62,0,10.48,0,20.99,0,31.47,0"/><path class="b" d="M8.14,81.8c10.48,0,20.99,0,31.47,0,2.3-.03,4.7.08,6.99-.06,3.88-2.26,7.57-4.96,11.37-7.34,9.83-6.24,15.46-5.65,26.23-7.17,5.18-.84,10.51-1.32,15.74-.62,4.99.63,9.89,2.01,14.86,2.72,15.69,2.37,22.39,3.27,35.84,12.46,11.07.06,22.16,0,33.22.02"/><path class="b" d="M8.14,77.05c9.61,0,19.24,0,28.85,0,4.35,0,8.76,0,13.11,0,2.07-.53,4.1-1.59,6.12-2.29,7.04-2.64,14.03-5.5,20.98-8.36,5.11-1.89,10.18-4.6,15.74-4.73,5.9-.23,11.16,2.89,16.61,4.64,7.48,1.73,15.21,2.31,22.73,3.82,2.95.59,5.96,1.38,8.74,2.52,3.16,1.42,6.35,2.96,9.62,4.12,1.33.52,2.97.19,4.37.28,2.59,0,5.28,0,7.87,0,6.98,0,14,0,20.98,0"/><path class="b" d="M8.14,72.31c13.4,0,26.82,0,40.22,0,4.35,0,8.76,0,13.11,0,7.52-1.08,13.75-6.02,20.11-9.83,6.9-4.58,12.45-6.37,20.11-2.11,2.87,1.48,5.64,3.45,8.74,4.42,7.77,1.71,15.73,2.44,23.61,3.42,2.33.33,4.75.79,6.99,1.49,2.53.92,5.16,1.87,7.87,2.09,4.92.6,9.92.53,14.86.51,6.69,0,13.42,0,20.11,0"/><path class="b" d="M8.14,65.04c3.97,1.17,8.1,2.2,12.24,2.52,6.69,0,13.42,0,20.11,0,6.11,0,12.25,0,18.36,0,4.35,0,8.76,0,13.11,0,1.9-.63,3.59-2.1,5.25-3.2,2.32-1.66,4.67-3.49,6.99-5.14,5.39-3.94,10.67-4.92,16.61-1.44,2.94,1.59,5.66,3.78,8.74,5.1,4.18,1.32,8.76,1.63,13.11,1.99,4.93.31,9.94-.03,14.86.4,3.26.13,6.35,1.71,9.62,1.67,4.09-.04,8.15-1.14,12.24-1.11,2.02,0,4.16.26,6.12.76,1.1.25,2.36.85,3.5.96,4.94,0,9.92,0,14.86,0"/><path class="b" d="M8.14,59.2c4.04,1.25,8.13,2.54,12.24,3.53,6.1.21,12.25.01,18.36.08,13.11,0,26.23,0,39.34,0,5.39-3.38,10.56-9.01,17.49-8.15,4.53.57,8.28,3.5,12.24,5.53,5.24,2.66,13.47,2.23,19.23,1.59,3.76-.43,7.57-1.13,11.37-1.09,2.65-.09,5.24.99,7.87.98,4.7-.09,9.28-1.77,13.99-1.76,2.64-.04,5.37.42,7.87,1.27,1.44.42,2.91,1.3,4.37,1.62,3.77,0,7.6,0,11.37,0"/><path class="b" d="M8.14,55.27c1.72.52,3.55,1.13,5.25,1.72,1.39.47,2.86,1.23,4.37,1.07,7.57,0,15.16,0,22.73,0,7.27,0,14.58,0,21.86,0,6.69,0,13.42,0,20.11,0,3.12-1.63,6.08-3.9,9.62-4.59,6.28-1.53,11.84,2.52,17.49,4.55,2.59.09,5.28.01,7.87.04,3.77,0,7.6,0,11.37,0,3.47-.44,6.97-1.32,10.49-1.32,2.62-.08,5.25.85,7.87.56,4.38-.36,8.7-1.66,13.11-1.63,3.95-.12,7.68,1.19,11.37,2.39,4.06,0,8.18,0,12.24,0"/><path class="b" d="M8.14,51.85c1.43.4,2.99.91,4.37,1.43,1.41.08,2.97.03,4.37.04,4.06,0,8.18,0,12.24,0,6.11,0,12.25,0,18.36,0,.82.05,1.89-.05,2.62-.46,1.07-.38,2.37-.63,3.5-.67,2.37-.14,4.72.63,6.99,1.13,6.98,0,14,0,20.98,0,1.4-.02,2.97.06,4.37-.07,2.71-1.33,5.7-2.41,8.74-2.58,2.64-.16,5.36.37,7.87,1.17,1.71.41,3.46,1.52,5.25,1.48,8.15,0,16.33,0,24.48,0,2.59.03,5.28-.01,7.87-.12,2.88.16,5.85.13,8.74.12,2.9,0,5.84-.63,8.74-.62,2.31-.07,4.72.25,6.99.62,6.4,0,12.84,0,19.23,0"/><path class="b" d="M8.14,47.98c1.39.45,2.92.7,4.37.59,2,0,4.12,0,6.12,0,5.23,0,10.51,0,15.74,0,5.23,0,10.51,0,15.74,0,1.17-.07,2.36-.88,3.5-1.14,1.37-.39,2.95-.59,4.37-.57,1.73.03,3.58.37,5.25.84,1.11.25,2.34.91,3.5.87,4.94,0,9.92,0,14.86,0,1.7-.07,3.57.16,5.25-.16,2.79-.94,5.79-1.59,8.74-1.57,3.25,0,6.5.77,9.62,1.62,2.28.25,4.7.05,6.99.11,23.89,0,47.8,0,71.69,0"/><path class="b" d="M8.14,43.14c.8.16,1.84.41,2.62.63,1.4.1,2.97.03,4.37.05,2.89,0,5.85,0,8.74,0,8.73,0,17.49,0,26.23,0,1.1-.04,2.43.14,3.5-.21.77-.4,1.81-.89,2.62-1.19,3.92-1.52,8.28-1.14,12.24.03,1.41.39,2.96.88,4.37,1.27,2.87.24,5.86.04,8.74.1,3.45-.74,6.94-1.72,10.49-1.86,4.42-.27,8.84.68,13.11,1.73,2.57.3,5.28.05,7.87.13,23.6,0,47.21,0,70.82,0"/><path class="b" d="M8.14,37.31c2.68.19,5.3,1.07,7.87,1.77,6.69,0,13.42,0,20.11,0,6.11-.05,12.26.1,18.36-.06,2.12-1.3,4.53-2.36,6.99-2.8,5.32-1.08,10.49,1.23,15.74,1.64,2.04.13,4.13-.47,6.12-.79,2.86-.5,5.84-.82,8.74-.71,4.77.12,9.39,1.6,13.99,2.71,6.98,0,14,0,20.98,0,18.94,0,37.89,0,56.83,0"/><path class="b" d="M8.14,31.2c3.89-.1,8.12.44,11.37,2.74.76.48,1.77.39,2.62.39,1.41,0,2.97,0,4.37,0,9.9,0,19.82,0,29.72,0,1.82.14,3.5-1.09,5.25-1.45,2.24-.62,4.67-.85,6.99-.78,4.36.15,8.8,1.11,13.11.07,6.89-1.43,13.36-1.36,20.11.77,1.7.44,3.5,1.15,5.25,1.39,2.89,0,5.86,0,8.74,0,3.47-.03,7.02.07,10.49-.05,2.3-.45,4.69-1.02,6.99-1.48,3.42-.68,7.08-1.12,10.49-.15,2.02.47,4.11,1.16,6.12,1.68,3.47,0,7.02,0,10.49,0,7.86,0,15.75,0,23.61,0"/><path class="b" d="M8.14,26.01c3.18-.51,6.63-.44,9.62.87,1.52.67,2.94,1.89,4.37,2.7,13.98,0,27.98,0,41.96,0,2.61.13,5.26-.44,7.87-.54,3.79-.17,7.66-.33,11.37-1.23,6.02-1.49,12.32-2.07,18.36-.35,3.18.66,6.32,2.26,9.62,2.12,1.7,0,3.54,0,5.25,0,1.1-.03,2.43.11,3.5-.22,6.45-1.44,12.47-5.33,19.23-5.05,3.46.26,6.56,2.22,9.62,3.69,1.09.49,2.26,1.51,3.5,1.58,10.48,0,20.99,0,31.47,0"/><path class="b" d="M8.14,22.16c3.79-.98,7.96-.73,11.37,1.32.8.42,1.74,1.13,2.62,1.36.47,0,1.29,0,1.75,0,14.27,0,28.56,0,42.84,0,4.06,0,8.18,0,12.24,0,1.1,0,2.4.03,3.5-.04,1.73-.47,3.55-1.12,5.25-1.69,8.8-3.16,14.1-2,22.73.57,10.85,3.36,20.11-9.44,30.6-5.93,2.82,1.22,5.32,3.27,7.87,4.96,1.33.82,2.66,2.36,4.37,2.12,10.19,0,20.41,0,30.6,0"/><path class="b" d="M8.14,19.21c2.55-.61,5.34-.83,7.87-.05.8.25,1.82.7,2.62.93.79,0,1.83,0,2.62,0,16.9,0,33.81,0,50.71,0,4.93-.07,9.94.15,14.86-.09,1.98-1.02,4.06-2.13,6.12-2.98,8.04-3.33,12.42-1.19,20.11.85,9.8,1.23,18.21-10.5,27.98-5.62,2.51,1.46,4.68,3.65,6.99,5.4,1.07.79,2.24,1.96,3.5,2.44.41,0,1.33,0,1.75,0,10.19,0,20.41,0,30.6,0"/></svg>