<?xml version="1.0" encoding="UTF-8"?><svg id="a" xmlns="http://www.w3.org/2000/svg" width="1920" height="2400" viewBox="0 0 192 240"><defs><style>.b{fill:none;stroke:#fff;stroke-miterlimit:10;stroke-width:.4px;}.c{stroke-width:0px;}</style></defs><rect class="c" x="0" width="192" height="240"/><path class="b" d="M7.47,228.95c13.8,0,27.61,0,41.4,0,9.87,0,5.51.62,14.09-3.21,3.94-1.7,8.17-2.7,12.33-3.68,2.64-.52,5.2-1.9,7.93-1.87,5.6.18,11.09,2.62,16.74,1.56,4.78-.72,8.98-3.34,13.21-5.48,2.76-1.33,5.78-2.33,8.81-2.87,5.51-1.04,11.2-.34,16.74-1.11,3.59-.41,6.86-2.74,10.57-2.17,9.56,1.54,15.17,10.87,22.9,15.79,1.82,1.22,4.07,1.86,6.17,2.4,1.95.68,4.13.64,6.17.61"/><path class="b" d="M7.47,224.17c13.5,0,27.02,0,40.52,0,2.02-.04,4.16.09,6.17-.08,1.11-.66,2.41-1.45,3.52-2.09,3.6-2.12,7.43-4,11.45-5.17,3.75-1.09,7.67-1.71,11.45-2.68,3.29-.5,6.58.72,9.69,1.65,7.98,2.73,13.7,1.94,21.14-1.84,8.44-4.26,16.62-2.68,25.55-3.22,6.23-.36,9.25-4.12,15.86-1.83,8.13,2.97,13.15,10.7,20.26,15.24,3.8,0,7.66,0,11.45,0"/><path class="b" d="M7.47,219.39c13.8,0,27.61,0,41.4,0,1.69-.13,3.71.34,5.29-.33,2.6-1.77,5.23-3.7,7.93-5.31,5.02-3.18,10.87-4.66,16.74-5.16,5.15-.87,10.03,1.74,14.98,2.72,4.35,1.01,8.96.73,13.21-.58,2.62-.72,5.21-1.92,7.93-2.22,3.81-.46,7.69.21,11.45.79,7.55,1.25,12.19,1.29,19.38-1.67,9.84-3.35,17.39,5.49,23.79,11.58,1.68.39,3.57.11,5.29.19,3.2,0,6.49,0,9.69,0"/><path class="b" d="M7.47,214.6c15.56-.07,31.14.13,46.69-.07,10.42-8.14,16.14-12.2,29.95-9.58,4.9,1.1,9.91,2.35,14.98,1.92,4.47-.26,8.8-1.74,13.21-2.33,3.64-.27,7.18,1.12,10.57,2.26,3.94,1.38,8.11,2.62,12.33,2.42,4.02-.09,7.78-1.75,11.45-3.22,9.16-3.76,15.28,2.03,21.14,8.39,1.96.46,4.16.11,6.17.21,3.5,0,7.07,0,10.57,0"/><path class="b" d="M7.47,209.82c15.56,0,31.13,0,46.69,0,5.42-3.63,10.7-8.58,17.62-8.73,5.7-.17,11.1,2.25,16.74,2.74,3.8.43,7.71.09,11.45-.69,3.49-.69,7-1.76,10.57-1.98,3.78-.29,7.26,1.69,10.57,3.25,3.57,1.75,7.42,3.36,11.45,3.38,6.69.15,12.36-3.96,18.5-5.94,4.99-1.58,9.84,1.27,13.21,4.8.81.81,1.89,1.97,2.64,2.84.7.42,1.85.34,2.64.33,4.98,0,10,0,14.98,0"/><path class="b" d="M7.47,205.04c13.8,0,27.61,0,41.4,0,1.11,0,2.42,0,3.52,0,.9.13,1.95-.31,2.64-.86,3.52-2.32,7.23-4.76,11.45-5.51,5.22-1.02,10.19,1.4,14.98,3.14,3.09,1.03,6.44,1.52,9.69,1.31,5.13-.28,9.99-2.26,14.98-3.33,5.67-1.37,9.2.48,14.09,3.03,1.94.85,4.01,2.15,6.17,2.23,2.91-.01,5.9.02,8.81-.02,3.63-1.17,7.15-2.89,10.57-4.54,9.59-5.8,14.26-3.69,21.14,4.55,5.86.01,11.76,0,17.62,0"/><path class="b" d="M7.47,200.25c9.39,0,18.8,0,28.19,0,3.21,0,6.48,0,9.69,0,1.71-.07,3.6.17,5.29-.16,5.26-2.46,10.67-5.93,16.74-5.07,3.1.38,6.06,1.71,8.81,3.12,1.68.71,3.38,2.21,5.29,2.11,2.61,0,5.32,0,7.93,0,4.98,0,10,0,14.98,0,1.73,0,3.54-.61,5.29-.59,2.06-.2,4.12.69,6.17.59,7.33,0,14.69,0,22.02,0,2.55-1.42,5.3-2.65,7.93-3.91,3.47-1.85,7.39-4.09,11.45-2.99,2.33.61,4.43,2.15,6.17,3.77,1.15.91,2.08,2.68,3.52,3.13,5.86,0,11.76,0,17.62,0"/><path class="b" d="M7.47,195.47c4.09,0,8.24,0,12.33,0,1.72-.04,3.58.09,5.29-.08,1.08-.52,2.38-1.04,3.52-1.37,5.76-1.85,11.76.03,17.62-.2,7.66-1.12,13.16-3.67,21.14-1.1,1.45.45,3.02,1.07,4.4,1.7,1.07.49,2.3,1.22,3.52,1.06,16.44,0,32.89,0,49.33,0,4.68,0,9.41,0,14.09,0,1.14-.35,2.39-1.06,3.52-1.44,2.02-.6,4.15-1.26,6.17-1.87,2.83-.83,5.99-1.08,8.81-.06,1.17.41,2.49,1.09,3.52,1.77,1.02.69,2.17,1.83,3.52,1.59,6.74,0,13.52,0,20.26,0"/><path class="b" d="M7.47,190.69c4.98,0,10,0,14.98,0,9.27-5.69,13.39-5.31,23.79-4.24,6.69-.16,13.17,1.84,19.38,4.13,6.43.3,12.94.02,19.38.11,33.18,0,66.37,0,99.55,0"/><path class="b" d="M7.47,185.91c4.68,0,9.41,0,14.09,0,.95.18,1.93-.49,2.64-1.04,1.09-.76,2.38-1.62,3.52-2.3,4.98-3.14,10.97-4.25,16.74-3.02,1.73.34,3.62.63,5.29,1.22,3.09,1.17,5.94,3.07,8.81,4.7.99.7,2.39.38,3.52.44,1.41,0,2.99,0,4.4,0,4.39,0,8.83,0,13.21,0,34.94,0,69.89,0,104.83,0"/><path class="b" d="M7.47,181.12h16.74c5.59-4.03,11.03-8.87,18.5-7.79,6.28.77,9.42,4.13,14.09,7.79h127.73"/><path class="b" d="M7.47,176.34h18.5c1.26-.69,2.4-2.01,3.52-2.9,2.35-1.99,4.99-3.9,7.93-4.92,8.04-2.64,13.22,2.56,18.5,7.73,42.86.26,85.75,0,128.62.09"/><path class="b" d="M7.47,171.56c6.44-.1,12.95.2,19.38-.12,5.86-6.18,13.37-12.87,22.02-7.34,3.22,2.08,5.71,5.24,8.81,7.45h126.85"/><path class="b" d="M7.47,166.77h17.62c5.97-6.28,13.43-14.83,22.9-10.04,3.86,2,6.95,5.3,10.57,7.67,1.34.89,2.9,1.77,4.4,2.34,2.91.05,5.9,0,8.81.02,6.15,0,12.35,0,18.5,0,31.42,0,62.84,0,94.26,0"/><path class="b" d="M7.47,161.99h14.09c2.31-1.62,4.07-4.19,6.17-6.09,6.39-6.51,13.22-10.44,22.02-5.66,5.41,3.04,10.45,7.25,16.74,8.29,7.42,1.16,9.4-.31,16.74,3.45,5.27.03,10.59,0,15.86,0,28.48,0,56.97,0,85.45,0"/><path class="b" d="M7.47,157.21c2.02,0,4.15,0,6.17,0,1.51,0,3.31.27,4.4-1.02,9.13-7.92,16.14-19.33,29.95-14.12,4.84,1.71,9.26,4.55,14.1,6.3,4.27,1.68,8.89,2.41,13.21,3.93,2.55.86,4.83,2.49,7.05,3.96,1.46,1.31,3.5.89,5.29.94,2.61,0,5.32,0,7.93,0,29.66,0,59.32,0,88.97,0"/><path class="b" d="M7.47,152.42c1.11-.03,2.44.11,3.52-.16,3.35-3.02,7.33-5.39,10.57-8.54,5.53-5.13,12.14-11.01,20.26-9.75,7.1.95,13.66,4.04,20.26,6.65,4.43,1.78,9.05,3.36,13.21,5.73,2.88,1.58,5.37,3.91,7.93,5.94,4.07.34,8.25.03,12.33.13,7.62,0,15.28,0,22.9,0,22.02,0,44.05,0,66.07,0"/><path class="b" d="M7.47,147.39c2.3-1.98,4.6-4.19,7.05-6,1.74-1.17,3.67-2.36,5.29-3.7,5.41-4.31,11.14-9.65,18.5-9.59,2.66-.01,5.36.63,7.93,1.26,5.47,1.14,10.72,3.25,15.86,5.39,4.52,1.91,9.09,3.94,13.21,6.63,2.86,1.74,5.24,4.3,7.93,6.26,14.38,0,28.78,0,43.17,0,7.04,0,14.11,0,21.14,0,2.01-.37,4.1-.95,6.17-.92,2.93-.06,5.92.41,8.81.86,2.61.13,5.32.02,7.93.06,1.41,0,2.99,0,4.4,0,1.08-.28,2.4-.59,3.52-.62,2.05-.18,4.13.69,6.17.62"/><path class="b" d="M7.47,140.66c2.25-1.8,4.55-3.77,7.05-5.24,2.73-1.31,5.45-2.84,7.93-4.59,8.69-6.04,14.12-8.03,24.67-5.79,4.63.65,9,2.59,13.21,4.52,4.46,2.1,8.95,4.32,13.21,6.8,2.09,1.22,4.24,2.62,6.17,4.09,2.78,2.09,2.49,2.6,6.17,2.4,12.91,0,25.85,0,38.76,0,6.15,0,12.35,0,18.5,0,.87-.1,1.86-.77,2.64-1.12,1.35-.62,2.95-1.15,4.4-1.47,6.07-1.34,12.36-.21,18.5-.68,6.69-.4,8.75-3.57,15.86-.47"/><path class="b" d="M7.47,133.86c2.21-1.37,4.56-2.78,7.05-3.59,2.68-.63,5.42-1.37,7.93-2.52,6.21-2.74,12.52-5.75,19.38-6.32,4.12-.38,8.45-.51,12.33,1.15,7.41,3.06,14.04,7.77,21.14,11.45,1.71.94,3.58,1.92,5.29,2.87.45.25,1.32.79,1.76,1.05.78.16,1.85.12,2.64.12,17.61,0,35.24,0,52.86,0,2.55.34,4.76-1.25,7.05-2.1,2.51-.91,5.28-1.25,7.93-1.41,5.3-.25,10.71-.36,15.86-1.8,6.2-1.55,9.21-4.73,15.86-1.6"/><path class="b" d="M7.47,127.13c1.96-.64,4.1-1.13,6.17-1.23,1.72-.09,3.56.2,5.29.17,3.56,0,7.15-.63,10.57-1.6,6.51-1.74,12.66-5.02,19.38-5.95,4.1-.25,7.95,1.73,11.45,3.64,4.92,2.76,9.7,5.93,14.98,8,1.96.82,4.16,1.33,6.17,2,1.13.32,2.32,1.26,3.52,1.13,4.98,0,10,0,14.98,0,9.39,0,18.8,0,28.19,0,3.47-.78,7.03-1.48,10.57-1.84,2.35-.22,4.71-.97,7.05-1.2,3.51-.22,7.06.49,10.57.49,3.93.07,7.88-.89,11.45-2.51,5.87-2.48,10-6.69,16.74-3.68"/><path class="b" d="M7.47,120.85c3.64.11,7.17,1.31,10.57,2.52,6.24,2.32,12.38,2.59,18.5-.26,2.69-1.17,5.32-2.69,7.93-4.01,2.68-1.42,5.74-2.52,8.81-1.95,4.06.65,7.77,2.68,11.45,4.4,4.67,2.25,9.7,4.36,14.98,4.24,3.44-.14,6.56,1.61,9.69,2.73,8.51,0,17.04,0,25.55,0,1.41-.03,3,.09,4.4-.1,2.69-1.77,5.64-3.4,8.81-4.11,4.38-1.07,8.86.14,13.21.67,1.72.15,3.6.01,5.29.48,2.93.71,5.82,1.9,8.81,2.34,6.62,1.23,12.43-2.88,17.62-6.41,3.31-2.39,7.48-3.69,11.45-2.2"/><path class="b" d="M7.47,115.58c3.67,1.43,7.1,3.57,10.57,5.41,1.7.92,3.46,2.09,5.29,2.73,1.11,0,2.41,0,3.52,0,2.32,0,4.73,0,7.05,0,1.42-.1,3.16.33,4.4-.51,6.44-3.47,10.48-8.38,18.5-6.76,6.16,1.08,12.14,3.77,18.5,3.5,2.65.02,5.27-1.13,7.93-.8,2.77.31,5.45,1.49,7.93,2.71,1.42.56,2.84,1.82,4.4,1.86,3.5,0,7.07,0,10.57,0,2.61,0,5.32,0,7.93,0,1.96-.76,3.53-2.6,5.29-3.74,2.59-1.9,5.56-3.65,8.81-4.04,4.01-.51,7.83,1.29,11.45,2.76,1.93.89,4.19,1.08,6.17,1.8,2.08.82,4.14,2.01,6.17,2.94,1.05.43,2.42.22,3.52.26,1.71,0,3.57,0,5.29,0,1.41-.08,3.06.23,4.4-.27,3.46-1.87,6.41-4.68,9.69-6.83,2.8-1.87,6.37-2.83,9.69-1.99"/><path class="b" d="M7.47,112.04c3.9,2.1,7.41,5.11,11.45,6.9,4.39,0,8.83,0,13.21,0,4.09,0,8.24,0,12.33,0,1.46-.69,2.91-1.77,4.4-2.4,1.91-.84,4.09-1.29,6.17-1.44,6.15-.37,12.37.86,18.5-.11,6.97-1.05,8.41-3.62,15.86-.36,2.97,1.28,5.86,2.97,8.81,4.3,4.68,0,9.42.05,14.1-.02,5.83-3.91,11.59-10.82,19.38-8.82,3.43.81,6.47,2.84,9.69,4.19,1.07.46,2.44.72,3.52,1.12,1.81.72,3.6,1.82,5.29,2.78,1.76,1.26,4.14.63,6.17.77,3.2,0,6.49,0,9.69,0,5.82-3.46,10.96-10.28,18.5-8.8"/><path class="b" d="M7.47,108.34c1.76,1.18,3.56,2.58,5.29,3.81,1.08.7,2.25,1.73,3.52,2.02,7.33,0,14.69,0,22.02,0,4.68,0,9.41,0,14.1,0,2.61-.09,5.35.23,7.93-.24,4.43-.76,8.91-1.67,13.21-2.99,2.93-.77,5.79-2.21,8.81-2.63,6.57-.55,12.36,3.42,18.5,5.08,3.43,1,7.29,1.18,10.57-.4,7.43-3.9,12.92-9.89,22.02-6.24,2.68,1.01,5.26,2.52,7.93,3.56,1.69.61,3.63.9,5.29,1.63,1.72.69,3.54,1.53,5.29,2.15,2.01.16,4.15.04,6.17.07,1.71-.11,3.65.29,5.29-.28,7.05-3.11,12.59-10.94,21.14-8.26"/><path class="b" d="M7.47,103.6c2.61,1.87,4.97,4.46,7.93,5.78,6.45,0,12.93,0,19.38,0,8.8,0,17.63,0,26.43,0,2.31-.04,4.74.09,7.05-.07,5.19-1.96,10.26-4.82,15.86-5.41,6.9-.61,13.48,2.22,20.26,2.91,3.6.46,7.24-.31,10.57-1.67,6.81-2.74,12.42-3.52,19.38-.67,2.6.97,5.22,2.22,7.93,2.85,4.07.6,8.19,1.66,12.33,1.45,5.44-.22,10.31-3.01,14.98-5.56,5.18-2.96,9.47-3.75,14.98-.88"/><path class="b" d="M7.47,98.11c2.02,1.57,4.06,3.36,6.17,4.84,1.05.64,2.24,1.63,3.52,1.65,6.15,0,12.35,0,18.5,0,9.09,0,18.21,0,27.31,0,2.31-.09,4.77.21,7.05-.16,1.1-.51,2.41-1.11,3.52-1.59,4.45-2,9.24-3.4,14.1-3.91,7.68-.98,15.26,1.34,22.9,1.42,5.27-.27,10.62-.88,15.86.06,5.07.76,9.92,2.75,14.98,3.56,8.95,1.27,17.39-2.67,25.55-5.74,7.28-2.64,11.37-1.96,17.62,2.66"/><path class="b" d="M7.47,92.13c3.14,2.19,6.13,4.81,9.69,6.3,1.11.46,2.26,1.56,3.52,1.38,7.92,0,15.87,0,23.79,0,7.62,0,15.28,0,22.9,0,1.19-.02,2.42-.77,3.52-1.15,1.71-.68,3.55-1.41,5.29-2.01,4.31-1.38,8.76-2.57,13.21-3.39,6.79-1.29,13.64.21,20.26,1.72,5,.86,10.02,1.84,14.98,2.94,3.77.71,7.6,1.8,11.45,1.9,3.5-.01,7.07.02,10.57-.02,8.45-2.14,16.49-7.73,25.55-6.04,2.51.4,5,1.42,7.05,2.93.8.57,1.89,1.4,2.64,2.03.57.65,1.75,1.27,2.64,1.09"/><path class="b" d="M7.47,85.95c2.38,1.31,4.67,2.99,7.05,4.29,3.48,1.62,7.01,3.33,10.57,4.77,5.56.04,11.17,0,16.74.02,3.8,0,7.66,0,11.45,0,2.32-.05,4.77.19,7.05-.33,7.49-1.33,14.65-4.1,22.02-5.9,5.4-1.59,11.13-2.74,16.74-1.61,3.31.6,6.54,1.78,9.69,2.93,3.19,1.12,6.48,2.18,9.69,3.22,1.99.62,4.13,1.21,6.17,1.65,4.09.12,8.24.01,12.33.05,2.91,0,5.9,0,8.81,0,3.9-.94,7.57-2.84,11.45-3.86,4-1.14,8.37-1.18,12.33.14,1.78.57,3.63,1.41,5.29,2.28,1.08.5,2.24,1.64,3.52,1.44,2.01,0,4.15,0,6.17,0"/><path class="b" d="M7.47,79.69c2.41,1.03,4.72,2.49,7.05,3.67,5.27,2.4,10.86,4.7,16.74,4.77,4.76.12,9.41-1.26,14.09-1.82,5.26-.33,10.6.28,15.86-.27,5.99-.46,11.85-2,17.62-3.61,9.16-2.73,15.75-3.29,24.67.77,6.23,2.87,12.59,5.74,19.38,6.95,5.25.24,10.59.09,15.86.06,2.31-.3,4.75-.39,7.05-.77,2.33-.43,4.73-1.1,7.05-1.57,3.74-.81,7.73-1,11.45-.02,2.1.54,4.23,1.42,6.17,2.41,4.68,0,9.41,0,14.1,0"/><path class="b" d="M7.47,73.07c3.07.79,5.92,2.38,8.81,3.62,7.17,3.26,13.77,2.96,21.14.66,3.69-1.05,7.58-2.23,11.45-1.54,8.75,1.31,17.71,1.85,26.43,0,9.73-2.19,16-3.43,25.55.83,3.87,1.67,7.57,3.86,11.45,5.49,8.79,3.85,18.03,2.98,27.31,2.33,2.31-.14,4.74.03,7.05-.15,3.49-.26,7.06-.74,10.57-.51,2.68.14,5.4.78,7.93,1.65,6.45,0,12.93,0,19.38,0"/><path class="b" d="M7.47,67.03c8.81.99,11.29,6.41,22.02,4.05,5.34-1.1,10.32-4.1,15.86-4.21,2.97.13,5.87,1.28,8.81,1.69,4.34.79,8.81,1.16,13.21,1.06,12.18-.31,19.34-3.82,31.71.98,4.55,1.69,8.84,4.09,13.21,6.16,7.46,3.36,15.85,2.11,23.79,2.26,3.23-.02,6.49.53,9.69.92,2.6.23,5.32.2,7.93.27,2.62-.01,5.31.51,7.93.45,7.62,0,15.28,0,22.9,0"/><path class="b" d="M7.47,62.21c9.74-.4,10.39,6.6,23.79,2.67,4.87-1.35,9.79-4.01,14.98-3.12,9.24,3.32,15.95,3.09,25.55,2.1,9.41-1.08,19.11-.86,28.19,2.09,4.6,1.36,8.92,3.56,13.21,5.65,5.86,2.35,12.35,1.32,18.5,1.63,2.63.1,5.36.42,7.93.99,2.05.42,4.13,1.23,6.17,1.68,12.91,0,25.85,0,38.76,0"/><path class="b" d="M7.47,58.77c8.69-1.41,9.83,5.08,21.14,3.34,5.28-.71,10.45-3.15,15.86-2.52,2.46.28,4.64,1.81,7.05,2.29,7.72,1.75,15.32-1.63,22.9-2.62,3.78-.57,7.66-.11,11.45.17,5,.44,10.07.98,14.98,2.08,2.68.61,5.41,1.45,7.93,2.57,1.75.75,3.47,1.91,5.29,2.51,5.69,1.83,11.78.43,17.62,1.08,2.67.24,5.4.84,7.93,1.73,1.74.46,3.45,1.78,5.29,1.7,13.21,0,26.43,0,39.64,0"/><path class="b" d="M7.47,56.45c8.41-1.82,9.5,4.18,20.26,3.74,5.57-.1,11.17-2.13,16.74-1.03,2.15.38,4.06,1.77,6.17,2.29,7.15,1.66,13.74-2.79,20.26-5.01,5.23-2,8.73-1.59,14.1-1.02,4.39.42,8.84.76,13.21,1.35,3.58.49,7.23,1.25,10.57,2.69,1.46.6,2.96,1.56,4.4,2.18,2.48,1.01,5.28,1.16,7.93,1.06,3.5-.15,7.07-.53,10.57-.18,2.69.25,5.43.95,7.93,1.97,1.73.57,3.38,2.02,5.29,1.83,13.21,0,26.43,0,39.64,0"/><path class="b" d="M7.47,53.86c4.88-1.09,7.21.41,11.45,2.2,2.79,1.02,5.84,1.5,8.81,1.5,5.28.05,10.58-1.48,15.86-.76,2.48.23,4.65,1.76,7.05,2.26,6.78,1.08,12.67-3.53,18.5-6.25,3.01-1.47,6.29-2.81,9.69-2.85,5.61.24,11.2,1.32,16.74,2.2,4.15.73,8.38,1.53,12.33,3,1.78.62,3.54,1.66,5.29,2.37,1.65.6,3.54.86,5.29.89,4.1.04,8.23-.7,12.33-.41,2.68.16,5.41.75,7.93,1.67.79.29,1.88.74,2.64,1.09.74.36,1.78.93,2.64.78,13.5,0,27.02,0,40.52,0"/><path class="b" d="M7.47,49.68c4.51-.69,7.41.71,11.45,2.2,3.1.99,6.44,1.4,9.69,1.31,5.28-.08,10.58-1.54,15.86-.84,2.1.22,4.07,1.37,6.17,1.57,6.82.45,12.56-4.15,18.5-6.8,9.06-4.6,14.67-2.29,23.78.17,4.64,1.3,9.43,2.27,14.1,3.47,2.95.7,5.77,2.19,8.81,2.46,5.56.51,11.26-.23,16.74,1.12,2.7.5,5.29,1.75,7.93,2.43,4.68,0,9.41,0,14.1,0,9.98,0,19.98,0,29.95,0"/><path class="b" d="M7.47,44.48c4.89-.12,9.37,2.16,14.09,3.01,6.13,1.21,12.37.09,18.5-.57,2.93-.32,5.95-.14,8.81.59,6.3.81,11.99-2.9,17.62-5.15,8.76-3.71,14.09-4.16,22.9-.41,3.98,1.55,8.11,2.97,12.33,3.69,2.6.47,5.32.73,7.93,1.11,1.71.27,3.55.65,5.29.75,4.4.28,8.91.32,13.21,1.42,3,.73,5.96,1.87,8.81,3.03,4.97.05,10,0,14.98.02,10.86,0,21.74,0,32.59,0"/><path class="b" d="M7.47,39.02c3.56.64,7.05,1.88,10.57,2.68,7.26,1.92,14.68,1.46,22.02.35,2.01-.24,4.14-.45,6.17-.4,1.72.1,3.57.3,5.29,0,4.87-.76,9.41-2.94,14.09-4.36,5.08-1.57,10.55-2.51,15.86-1.84,3.38.68,6.52,2.36,9.69,3.67,3.34,1.42,6.93,2.52,10.57,2.75,5.56.26,11.17-.52,16.74-.24,6.26.14,12.08,2.76,17.62,5.45,16.13.31,32.31,0,48.45.11"/><path class="b" d="M7.47,34.14c2.33.8,4.69,1.81,7.05,2.51,4.33,1.08,8.76,2.1,13.21,2.5,4.69.43,9.45-.1,14.09-.75,3.19-.56,6.53-.39,9.69-1.06,4.46-1.02,8.76-2.85,13.21-3.91,3.72-.93,7.62-1.31,11.45-1.26,2.33.04,4.82-.04,7.05.75,4.71,1.62,9.1,4.39,14.1,5.11,5.36.94,10.61-1.04,15.86-1.82,8-1.49,14.15.77,21.14,4.43,1.39.61,2.89,1.56,4.4,1.78,2.31,0,4.73,0,7.05,0,3.5,0,7.07.02,10.57-.01,2.01-.18,4.15-.3,6.17-.29,7.32.45,14.69.29,22.02.31"/><path class="b" d="M7.47,30.81c2.3,1.06,4.65,2.3,7.05,3.13,2.6.77,5.32,1.43,7.93,2.17,2.29.6,4.7,1.14,7.05,1.45,2.9.17,5.9.03,8.81.07,2.03.03,4.16-.4,6.17-.67,2.02-.33,4.19-.47,6.17-1.01,4.19-1.15,8.18-3.1,12.33-4.38,4.24-1.38,8.76-1.98,13.21-1.87,2.33.06,4.81.01,7.05.8,5.44,1.89,10.78,5.02,16.74,4.5,3.63-.22,7.11-1.55,10.57-2.56,9.96-2.87,15.32-1.91,24.67,2.18,2.23.89,4.63,1.77,7.05,1.91,1.41.04,3-.17,4.4-.31,6.71-.77,13.51-1.77,20.26-.92,3.28.38,6.58,1.21,9.69,2.31,2.61,0,5.32,0,7.93,0"/><path class="b" d="M7.47,28.38c3.12,1.6,6.18,3.85,9.69,4.47,6.45,0,12.93,0,19.38,0,6.45,0,12.93,0,19.38,0,1.79-.29,3.55-1.28,5.29-1.79,2.55-.89,5.26-1.63,7.93-2.03,4.34-.59,8.87-.69,13.21-.09,5.21,1.07,10.46,2.92,15.86,2.18,3.62-.4,7.11-1.71,10.57-2.76,3.13-.89,6.45-1.43,9.69-1.71,3.53-.27,7.16.18,10.57,1.11,3.52.92,6.98,2.36,10.57,3.04,2.6.54,5.33.08,7.93-.18,3.79-.41,7.64-.85,11.45-.99,4.7-.18,9.5.12,14.09,1.16,2.35.52,4.74,1.32,7.05,2,1.4.11,3,.04,4.4.06"/><path class="b" d="M7.47,25.68c1.12.71,2.41,1.57,3.52,2.29,3.19.23,6.49.03,9.69.09,6.45,0,12.93,0,19.38,0,6.45,0,12.93,0,19.38,0,2.02,0,4.15,0,6.17,0,2.02-.19,4.13-.6,6.17-.7,6.44-.5,12.95.27,19.38-.3,5.75-.49,11.17-2.71,16.74-4.04,8.55-1.64,17.3.34,25.55,2.62,4,1.12,8.2,1.71,12.33,1.07,4.67-.42,9.41-.83,14.1-1.02,4.09-.16,8.26-.16,12.33.34,4.08.56,8.18,1.66,12.33,1.47"/><path class="b" d="M7.47,22.47c.68.73,1.7.89,2.64.81,1.11,0,2.41,0,3.52,0,3.8,0,7.66,0,11.45,0,10.27,0,20.56,0,30.83,0,5.86,0,11.76,0,17.62,0,3.49-.1,7.1.22,10.57-.15,5.72-1.02,11.16-3.25,16.74-4.79,7.07-2.11,11.58-1.16,18.5.65,6.09,1.55,12.2,3.44,18.5,3.9,2.91.26,5.9-.1,8.81-.3,3.2-.19,6.49-.29,9.69-.43,4.97-.19,10-.58,14.98-.52,4.39.16,8.86.83,13.21-.16"/><path class="b" d="M7.47,18.5c15.85,0,31.72,0,47.57,0,5.86,0,11.76,0,17.62,0,2.91-.37,5.92-.73,8.81-1.24,4.54-1.03,8.79-3.14,13.21-4.55,5.97-2.1,12.63-2.3,18.5.22,7.66,3.06,15.39,5.84,23.79,5.26,3.51-.13,7.06-.68,10.57-.66,7.64.17,15.29.06,22.9-.64,2.31-.19,4.74-.1,7.05-.18,2.35-.14,4.78-.56,7.05-1.16"/></svg>