<?xml version="1.0" encoding="UTF-8"?><svg id="a" xmlns="http://www.w3.org/2000/svg" width="1920" height="2400" viewBox="0 0 192 240"><defs><style>.b{fill:none;stroke:#fff;stroke-miterlimit:10;stroke-width:.4px;}.c{stroke-width:0px;}</style></defs><rect class="c" width="192" height="240"/><path class="b" d="M7.96,217.13c2.29.29,4.7.63,7.01.46,2.33-.25,4.7-.95,7.01-1.34,12.85-2.64,19.23,4.31,28.91,10.85,25.99,0,51.98,0,77.97,0,3.48-.07,7.04.14,10.51-.1,1.78-.58,3.55-1.57,5.26-2.31,2.47-.97,5.26-1.15,7.88-.94,7.85.82,15.73,3.15,23.65,1.79,2.69-.61,5.27-1.91,7.88-2.75"/><path class="b" d="M7.96,211.5c2.3.1,4.71.3,7.01.14,2.64-.24,5.29-.98,7.88-1.48,10.6-2.45,17.88.79,26.28,7.01,1.95,1.34,4.07,2.67,6.13,3.82,1.07.5,2.26,1.51,3.5,1.35,6.7,0,13.44,0,20.15,0,14.59,0,29.21,0,43.8,0,5.24-.06,10.53.11,15.77-.07,2.11-.6,4.16-1.68,6.13-2.59,1.63-.67,3.51-1.11,5.26-1.31,4.06-.45,8.2,0,12.26.19,3.77.21,7.62.2,11.39-.11,3.64-.11,7.04-1.73,10.51-2.62"/><path class="b" d="M7.96,207.47c4.37-.04,8.82.35,13.14-.51,6.9-1.21,14.09-3.25,21.02-1.21,3.52.94,6.63,3.05,9.64,5.04,3.46,2.27,6.94,4.67,10.51,6.78,21.9,0,43.81,0,65.7,0,2.89-.07,5.89.16,8.76-.11,3.97-.95,7.42-3.46,11.39-4.39,6.59-1.55,13.45-.77,20.15-1.09,2.6-.11,5.3-.25,7.88-.61,2.61-.44,5.25-1.2,7.88-1.51"/><path class="b" d="M7.96,204.98c3.49-.32,7.03.17,10.51.4,3.22.12,6.5-.34,9.64-1.05,4.63-1.01,9.23-2.71,14.02-2.71,3.53-.08,6.75,1.61,9.64,3.47,3.28,2.07,6.46,4.46,9.64,6.69.72.53,1.69,1.22,2.63,1.04,1.41,0,2.97,0,4.38,0,3.19,0,6.45,0,9.64,0,9.63,0,19.28,0,28.91,0,1.71-.04,3.53-.52,5.26-.35,2.3.18,4.69.46,7.01.35,3.77,0,7.61,0,11.39,0,2-.12,4.22.32,6.13-.35,3.02-.96,5.84-2.61,8.76-3.81,2.49-.95,5.23-1.49,7.88-1.73,5.82-.5,11.7.12,17.52-.12,4.38-.1,8.75-1.16,13.14-1.04"/><path class="b" d="M7.96,203.56c2.3-.3,4.73-.28,7.01.14,2.29.49,4.66,1.13,7.01,1.26,4.18.33,8.37-.7,12.26-2.15,3.67-1.28,7.42-3.09,11.39-2.9,2.16.14,4.23,1.2,6.13,2.16,2.69,1.42,5.33,3.15,7.88,4.8.45.28,1.3.85,1.75,1.13,1.1.09,2.4.04,3.5.05,2.6,0,5.29,0,7.88,0,7.87,0,15.78,0,23.65,0,1.4-.07,3.02.2,4.38-.23,2.79-.95,5.8-1.6,8.76-1.54,2.99,0,5.9,1.05,8.76,1.77,1.09,0,2.41,0,3.5,0,4.95-.03,9.95.07,14.89-.04,2.97-1.14,5.78-2.86,8.76-3.98,3.33-1.21,6.98-1.59,10.51-1.48,4.97.14,9.92,1.12,14.89,1.16,4.37-.05,8.78-1.01,13.14-.21"/><path class="b" d="M7.96,202.38c2.28-.44,4.74-.49,7.01.05,1.13.22,2.34.9,3.5.89,4.95,0,9.94,0,14.89,0,1.52.11,3-.88,4.38-1.39,3.02-1.28,6.26-2.9,9.64-2.53,2.39.42,4.77,1.34,7.01,2.24,1.42.51,2.88,1.44,4.38,1.68,2.01,0,4.13,0,6.13,0,9.92,0,19.86,0,29.78,0,1.46-.23,2.95-1.01,4.38-1.36,2.24-.65,4.67-1.06,7.01-1.1,3.92-.13,7.82.84,11.39,2.41,3.48.13,7.03.02,10.51.05,2.3,0,4.71,0,7.01,0,1.41-.12,3.12.34,4.38-.41,2.25-1.08,4.58-2.34,7.01-2.97,3.4-.92,7.05-.85,10.51-.32,4.68.69,9.28,2.16,14.02,2.44,2.01.17,4.13-.23,6.13-.38,2.31-.12,4.74.12,7.01.6"/><path class="b" d="M7.96,198.55c8.17,0,16.36,0,24.53,0,3.19,0,6.45,0,9.64,0,1.72-.19,3.48-1.03,5.26-.91,2.02.15,4.13.56,6.13.91,3.19,0,6.45,0,9.64,0,7.29,0,14.61,0,21.9,0,1.4-.03,2.98.08,4.38-.09,1.99-.65,4.1-1.3,6.13-1.78,4.28-1.04,8.79-1.18,13.14-.59,1.72.23,3.6.46,5.26,1.03,1.43.37,2.88,1.42,4.38,1.43,4.36,0,8.78,0,13.14,0,3.19,0,6.45,0,9.64,0,1.13-.27,2.38-.91,3.5-1.23,1.94-.59,4.1-.84,6.13-.79,2.33.06,4.75.49,7.01,1.04,1.41.28,2.94.94,4.38.98,7.29,0,14.61,0,21.9,0"/><path class="b" d="M7.96,193.8c24.53,0,49.06,0,73.59,0,3.51.09,7.04-.62,10.51-1.05,4.04-.56,8.18-.9,12.26-.89,3.18.1,6.5-.1,9.64.49,2.06.36,4,1.68,6.13,1.46,21.31,0,42.64,0,63.95,0"/><path class="b" d="M7.96,189.04c13.13,0,26.29,0,39.42,0,7.27-.71,14.56-2.06,21.9-1.57,4.4.18,8.79.93,13.14,1.57,2.89,0,5.87,0,8.76,0,5.24-.01,10.53.03,15.77-.02,2.01-.27,4.11-.78,6.13-.92,2.36-.17,4.71.6,7.01.94,6.7,0,13.44,0,20.15,0,14.6,0,29.21,0,43.8,0"/><path class="b" d="M7.96,184.28c11.67,0,23.37,0,35.04,0,1.52-.32,2.86-1.6,4.38-2,2.86-.76,5.83-1.44,8.76-1.88,5.88-.94,11.9-.08,17.52,1.77,2.01.63,4.12,1.37,6.13,2,3.76.29,7.62.03,11.39.11,7.87,0,15.78,0,23.65,0,23.04-.09,46.15.06,69.21,0"/><path class="b" d="M7.96,179.53h32.41c1.81-1.21,3.38-3.03,5.26-4.16,2.62-1.61,5.8-2.27,8.76-2.96,7.57-1.69,14.57,1.32,21.02,5.01,1.39.7,2.87,1.69,4.38,2.12,2.3,0,4.71,0,7.01,0,5.24,0,10.53,0,15.77,0,27.15-.02,54.31,0,81.47,0"/><path class="b" d="M7.96,174.77h30.66c6-6.28,7.71-8.46,16.64-10.19,7.88-1.52,14.9,3.23,21.02,7.56,1.38.89,2.85,2.03,4.38,2.63,2.3,0,4.71,0,7.01,0,5.24,0,10.53,0,15.77,0,5.83,0,11.69,0,17.52,0,1.4,0,2.98.01,4.38-.01,1.08-.21,2.4-.32,3.5-.32,6.97.6,14.03.24,21.02.33,11.38,0,22.78,0,34.17,0"/><path class="b" d="M7.96,170.02h29.79c2.95-2.45,5.39-5.71,8.76-7.67,3.28-1.61,6.91-2.79,10.51-3.38,6.36-1.03,12.44,1.95,17.52,5.49,2.61,1.82,5.39,3.58,7.88,5.55h101.62"/><path class="b" d="M7.96,165.26c9.63,0,19.28.02,28.91,0,3.12-2.2,6.18-4.7,9.64-6.35,4.49-1.69,9.19-3.31,14.02-3.6,5.28-.3,10.42,1.67,14.89,4.33,2.73,1.63,5.57,3.34,7.88,5.54,13.12.25,26.29,0,39.42.09,6.12,0,12.28,0,18.4,0,1.13-.03,2.39-.51,3.5-.66,1.09-.16,2.41-.2,3.5-.14,2.03.06,4.12.62,6.13.81,2.6,0,5.29,0,7.88,0,7.29,0,14.61,0,21.9,0"/><path class="b" d="M7.96,160.5c8.17-.04,16.36.07,24.53-.04,4.42-1.38,8.74-3.24,13.14-4.66,4.28-1.24,8.7-2.32,13.14-2.78,7.03-.79,14.11,1.21,20.15,4.78,1.47.77,2.9,1.97,4.38,2.7,2.6,0,5.29,0,7.88,0,14.59,0,29.21,0,43.8,0,2.6,0,5.29,0,7.88,0,1.13-.16,2.38-.77,3.5-1,1.67-.4,3.54-.57,5.26-.56,4.13-.06,8.19,1.19,12.26,1.56,6.7,0,13.44,0,20.15,0"/><path class="b" d="M7.96,155.75c3.48,0,7.03,0,10.51,0,3.72-1.05,7.56-1.91,11.39-2.48,4.93-.77,9.95-1.16,14.89-1.79,6.65-1.15,13.47-1.54,20.15-.39,3.25.51,6.54,1.33,9.64,2.45,1.12.4,2.42.94,3.5,1.43.77.35,1.75.94,2.63.79,7.87,0,15.78,0,23.65,0,12.84,0,25.7,0,38.55,0,.78,0,1.87.06,2.63-.19.75-.36,1.84-.78,2.63-1.05,1.94-.63,4.09-.98,6.13-.99,2.64-.01,5.34.49,7.88,1.16,1.41.31,2.94.97,4.38,1.06,5.83,0,11.69,0,17.52,0"/><path class="b" d="M7.96,150.99c2.29-.1,4.75.24,7.01-.19,4.64-1.5,9.21-3.43,14.02-4.34,5.17-1.09,10.52-.84,15.77-.82,2.31,0,4.7-.39,7.01-.15,4.18.4,8.27,1.7,12.26,2.94,2.61.82,5.28,1.73,7.88,2.56,2.6,0,5.29,0,7.88,0,7,0,14.03,0,21.02,0,14.01,0,28.04,0,42.05,0,.77,0,1.86,0,2.63,0,.82-.23,1.85-.83,2.63-1.17,2.17-.97,4.63-1.57,7.01-1.57,2.36,0,4.79.54,7.01,1.31,1.42.4,2.89,1.35,4.38,1.44,5.83,0,11.69,0,17.52,0"/><path class="b" d="M7.96,145.63c2.56.57,5.33.74,7.88.09,4.49-1.28,8.69-3.56,13.14-4.97,5.05-1.74,10.46-2.07,15.77-1.99,1.71.04,3.55-.17,5.26-.03,1.76.18,3.6.71,5.26,1.34,4.5,1.74,8.73,4.22,13.14,6.17,10.21,0,20.45,0,30.66,0,10.21,0,20.45,0,30.66,0,4.65,0,9.36,0,14.02,0,.89-.14,1.86-.88,2.63-1.3,1.05-.59,2.37-1.19,3.5-1.59,2.78-.98,5.9-1.11,8.76-.39,2.74.67,5.38,1.97,7.88,3.23,5.82.11,11.7,0,17.52.04"/><path class="b" d="M7.96,140.24c1.07.48,2.36.95,3.5,1.21,1.71.05,3.55.03,5.26.02,3.7-.95,7.09-2.94,10.51-4.58,4.9-2.48,10.25-4.23,15.77-4.45,2.89-.08,5.92-.45,8.76.24,7.1,1.92,13.25,6.32,20.15,8.79,23.06.01,46.14.06,69.21-.02,5.27-3.7,12.02-6,18.4-4.09,3.64.93,7,2.85,10.51,4.12,4.66,0,9.36,0,14.02,0"/><path class="b" d="M7.96,135.73c.78.37,1.77.85,2.63.99.8,0,1.84,0,2.63,0,1.71-.01,3.55.03,5.26-.03,3.38-1.25,6.47-3.31,9.64-5.01,4.54-2.56,9.64-4.34,14.89-4.38,2.3-.02,4.72-.03,7.01.2,2.36.3,4.75.98,7.01,1.69,6.03,2.01,12.14,3.91,18.4,5.04,2.89.54,5.81,1.37,8.76,1.49,2.89.17,5.87.15,8.76.42,1.72.09,3.54.61,5.26.58,5.24,0,10.53,0,15.77,0,7.58-.03,15.2.06,22.78-.03,2.73-1.53,5.67-2.88,8.76-3.48,4.28-1.02,8.78-1.29,13.14-.67,5.61.7,11,2.82,16.64,3.27,1.13.13,2.42.6,3.5.92,1.7,0,3.55,0,5.26,0"/><path class="b" d="M7.96,130.38c12.09,4.61,18.17-7.55,30.66-7.93,4.09-.14,8.21.6,12.26.99,4.07.58,8.17,1.35,12.26,1.67,4.06.36,8.2.29,12.26.5,2.33.08,4.7.61,7.01.86,2.89.29,5.87.33,8.76.53,5.92.3,11.72,1.78,17.52,2.86,3.16.5,6.44.68,9.64.74,4.41.06,8.85-.64,13.14-1.63,4.01-.87,8.13-2,12.26-1.62,4.96.41,9.93,1.21,14.89,1.68,4.93.5,9.94.68,14.89.86,1.75,0,3.64.28,5.26.98.76.32,1.8.92,2.63,1.08.76,0,1.86,0,2.63,0"/><path class="b" d="M7.96,123.62c3.52.44,7.2-.19,10.51-1.39,4.38-1.8,8.44-4.63,13.14-5.59,4.72-1.1,9.48.34,14.02,1.56,4.87,1.02,9.92,1.54,14.89,1.44,5.28-.09,10.5-1.33,15.77-1.5,3.49,0,7.01.76,10.51.75,7.02.13,14.05.78,21.02,1.54,7.96,1.05,15.75-1.61,23.65-1.97,8.7-.53,13.45,2.9,21.02,5.99,3.33,1.31,6.93,2.15,10.51,2.26,4.08.18,8.19-.61,12.26-.52,1.44.07,3.03.43,4.38.93,1.39.2,2.98.07,4.38.1"/><path class="b" d="M7.96,116.03c3.3-.41,6.49-1.66,9.64-2.68,2.36-.91,4.68-2.19,7.01-3.16,8.95-3.91,13.73-.36,21.9,2.62,7.14,1.79,14.65,2.01,21.9.77,2.88-.42,5.84-.95,8.76-1,3.19.06,6.44.56,9.64.46,8.17-.13,16.36-.29,24.53-.24,7.45-.28,14.31-4.91,21.9-3.88,8.08.8,13.77,7.17,20.15,11.47,1.05.7,2.37,1.47,3.5,2.03,2.89.1,5.87.02,8.76.04,6.12,0,12.28,0,18.4,0"/><path class="b" d="M7.96,109.29c2.4-.53,4.75-1.57,7.01-2.5,3.02-1.08,5.88-2.69,8.76-4.07,8.27-4.03,13.4-1.39,21.02,2.15,2.19.99,4.69,1.28,7.01,1.85,3.46.81,6.98,1.64,10.51,2.07,4.92.66,9.94.38,14.89.45,7.04.67,14.02-.09,21.02-.81,4.93-.55,9.95-.53,14.89-.9,8.32-1.75,15.5-8.8,24.53-5.59,4.94,1.68,8.67,5.63,12.26,9.23,2.19,2.2,4.53,4.48,7.01,6.36,2.26.42,4.71.08,7.01.18,6.7,0,13.44,0,20.15,0"/><path class="b" d="M7.96,104.16c4.02-.58,7.79-2.44,11.39-4.22,3.31-1.73,6.76-3.57,10.51-4.06,5.22-.78,10.1,1.65,14.89,3.3,2.53.87,5.33.84,7.88,1.63,4.4,1.22,8.7,2.95,13.14,4.01,5.41,1.32,11.1,1.7,16.64,1.28,4.69-.5,9.33-1.69,14.02-2.24,4.92-.65,9.94-.54,14.89-.31,9.04-.02,16.38-9.85,26.28-7.22,5.53,1.52,9.3,6.3,13.14,10.24,1.36,1.44,2.93,3.04,4.38,4.4.71.65,1.7,1.64,2.63,1.96,2.3,0,4.71,0,7.01,0,6.41,0,12.86,0,19.27,0"/><path class="b" d="M7.96,100.44c4.09.22,7.85-1.74,11.39-3.54,3.02-1.49,6.27-2.83,9.64-3.25,5.38-.78,10.56,1.31,15.77,2.25,1.99.39,4.13,0,6.13.23,2.68.29,5.35,1.14,7.88,2.01,6.96,2.54,14.44,5.08,21.9,3.36,9.27-2.51,14.3-5.71,24.53-3.69,4.08.75,8.18,2.06,12.26.55,5.3-1.64,10.16-4.91,15.77-5.5,5.14-.68,9.67,2.3,13.14,5.79,3.44,3.19,6.62,6.88,10.51,9.53h27.16"/><path class="b" d="M7.96,97.86c4.41.84,7.62-1.09,11.39-2.92,2.75-1.21,5.76-2.03,8.76-2.25,5.29-.47,10.5,1.12,15.77,1.26,2.06.11,4.13-.54,6.13-.9,2.01-.26,4.15-.09,6.13.27,7.73,1.55,15.81,5.12,23.65,2.14,9.76-4.22,14.22-8.94,25.4-4.08,4.31,1.9,8.3,3.7,13.14,2.83,5.85-.81,11.51-3.62,17.52-2.98,4.54.38,8.11,3.51,11.39,6.37,2.22,1.9,4.57,3.89,7.01,5.51,1.01.53,2.4.27,3.5.33,1.7,0,3.55,0,5.26,0,7,0,14.03,0,21.02,0"/><path class="b" d="M7.96,95.78c2.97.64,6.17.07,8.76-1.5,2.15-1.18,4.59-2.01,7.01-2.37,6.41-1.04,12.85,1.06,19.27.43,2.45-.17,4.74-1.27,7.01-2.11,3.38-1.06,7.04-.89,10.51-.49,6.4.85,13.35,1.81,19.27-1.43,2.71-1.45,5.22-3.44,7.88-4.97,8.4-5.09,13.91-.97,21.02,3.77,7.68,5.07,16.04,2.79,24.53,2.93,6.64.16,9.87,3.3,14.89,6.96.74.53,1.81,1.25,2.63,1.66,1.09,0,2.41,0,3.5,0,2.3,0,4.71,0,7.01,0,7.58,0,15.2,0,22.78,0"/><path class="b" d="M7.96,93.23c6.49.84,8.39-2.75,14.02-3.78,6.1-1.13,12.27.86,18.4.4,1.75-.13,3.61-.51,5.26-1.12,1.48-.53,2.94-1.48,4.38-2.09,2.74-1.16,5.8-1.58,8.76-1.63,13.07.15,16.46,1.03,27.16-7.51,6.35-4.69,11.46-4.36,17.52.58,2.32,1.81,4.56,3.95,7.01,5.6,5.99,3.81,13.2,4.69,20.15,4.98,3.25.22,6.63.62,9.64,1.94,1.85.79,3.6,2.1,5.26,3.21,4.05.28,8.2.03,12.26.11,8.75,0,17.53,0,26.28,0"/><path class="b" d="M7.96,88.89c2.39-.13,4.84-.71,7.01-1.73,1.68-.86,3.42-1.9,5.26-2.39,7.18-2.09,14.64.86,21.9-.29,2.81-.34,5.36-1.74,7.88-2.91,2.75-1.09,5.82-1.37,8.76-1.26,6.7.33,13.93,1.89,20.15-1.49,2.77-1.47,5.23-3.62,7.88-5.28,6.15-4.11,11.3-2.78,16.64,1.83,2.33,1.92,4.56,4.17,7.01,5.94,6.68,4.6,14.02,5.46,21.9,5.77,2.02.14,4.17.4,6.13.93,1.12.27,2.37.91,3.5,1.14.77,0,1.85,0,2.63,0,13.13,0,26.29,0,39.42,0"/><path class="b" d="M7.96,82.84c2.35-.56,4.78-1.3,7.01-2.24,2.21-1.04,4.57-2.03,7.01-2.36,8.42-1.31,17.16,2.46,25.4-.48,4.12-1.83,8.78-1.69,13.14-.92,6.31,1.1,13.12,2.85,19.27.14,2.41-1.05,4.69-2.6,7.01-3.82,6.01-3.39,11.2-2.69,16.64,1.37,2.65,1.88,5.14,4.17,7.88,5.91,2.96,1.75,6.22,3.38,9.64,3.96,6.12,0,12.28,0,18.4,0,14.89,0,29.79,0,44.68,0"/><path class="b" d="M7.96,76.64c4.36-1.16,8.68-2.77,13.14-3.54,7.29-1.15,14.61.6,21.9.65,3.8.06,7.58-1.14,11.39-.66,7.07.62,13.89,3.3,21.02,3.28,11,0,15.99-8.36,28.03-2.02,2.08,1.08,4.15,2.45,6.13,3.71,1.07.55,2.23,1.75,3.5,1.57,7.58,0,15.2,0,22.78,0,16.06,0,32.13,0,48.18,0"/><path class="b" d="M7.96,71.35c2.87-.57,5.87-.77,8.76-1.18,5.21-.76,10.5-1.38,15.77-1.29,4.08.04,8.2.47,12.26.83,2.89.24,5.88.34,8.76.72,7.02.88,14,2.31,21.02,3.15,2.88.31,5.86.79,8.76.49,4.36-.45,8.73-1.58,13.14-1.37,3.32.05,6.53,1.12,9.64,2.17,8.75,0,17.53,0,26.28,0,10.21,0,20.45,0,30.66,0,4.65,0,9.36,0,14.02,0,2.35-1,4.59-2.53,7.01-3.4"/><path class="b" d="M7.96,67.37c3.78.2,7.6.99,11.39.51,7.84-.98,15.7-3.26,23.65-2.03,3.52.44,6.98,1.56,10.51,1.96,4.92.65,9.94.66,14.89.96,3.22.19,6.5.58,9.64,1.35,2.6,0,5.29,0,7.88,0,18.39,0,36.8,0,55.19,0,6.41,0,12.86,0,19.27,0,2.3,0,4.71,0,7.01,0,1.4-.06,3.01.16,4.38-.19,3.56-3.2,7.77-5.89,12.26-7.57"/><path class="b" d="M7.96,64.43c1.11.3,2.36.84,3.5.94,1.41,0,2.97,0,4.38,0,2.89-.07,5.88.15,8.76-.11,6.22-1.92,12.65-4.42,19.27-3.41,3.25.45,6.34,1.95,9.64,2.14,6.13.6,12.27-.85,18.4-.55,1.73.09,3.59.37,5.26.84,1.41.38,2.87,1.27,4.38,1.08,9.92,0,19.86,0,29.78,0,12.26,0,24.54,0,36.79,0,4.36,0,8.78,0,13.14,0,2.29-.11,4.76.25,7.01-.2,4.03-5.11,9.31-9.72,15.77-11.27"/><path class="b" d="M7.96,60.62c6.7,0,13.44,0,20.15,0,1.12,0,2.48.11,3.5-.46,1.67-.67,3.51-1.31,5.26-1.75,2.83-.71,5.88-.93,8.76-.42,9.75,3,14.14.79,23.65-.41,6.59-.76,9.09.76,14.89,3,2.3.09,4.71.02,7.01.04,16.35,0,32.71,0,49.06,0,5.53,0,11.11,0,16.64,0,2,0,4.13,0,6.13,0,1.1-.05,2.47.18,3.5-.28,4.33-5.99,9.76-12.3,17.52-13.33"/><path class="b" d="M7.96,55.86c7,0,14.03,0,21.02,0,4.07-.08,8.22.24,12.26-.28,2.02-.21,4.13.14,6.13.28,2.3,0,4.71,0,7.01,0,1.71,0,3.55.02,5.26-.01,4.65-1.01,9.24-2.72,14.02-3.03,4.31-.39,8.36,1.48,12.26,3.04,6.12.03,12.28,0,18.4.01,20.44,0,40.89,0,61.32,0,2.46-3.29,4.85-6.87,7.88-9.67,2.97-2.47,6.59-4.61,10.51-4.96"/><path class="b" d="M7.96,51.1c13.72,0,27.45,0,41.17,0,6.41,0,12.86,0,19.27,0,2.6-.43,5.22-1.29,7.88-1.33,2.68-.18,5.34.62,7.88,1.33,8.46,0,16.95,0,25.4,0,18.68,0,37.38,0,56.07,0,1.09-.52,1.88-2.01,2.63-2.9,1.05-1.36,2.33-2.95,3.5-4.21,3.26-3.36,7.6-6.11,12.26-6.86"/><path class="b" d="M7.96,46.35h159.44c2.08-1.89,3.88-4.33,6.13-6.05,3.21-2.27,6.67-4.55,10.51-5.55"/><path class="b" d="M7.96,41.59c29.78,0,59.57,0,89.36,0,13.72,0,27.45,0,41.17,0,10.5,0,21.03,0,31.54,0,1.35-.13,2.36-1.53,3.5-2.16,3.42-2.01,6.79-4.37,10.51-5.79"/><path class="b" d="M7.96,36.83c30.66,0,61.32,0,91.98,0,14.3,0,28.62,0,42.93,0,7.87,0,15.78,0,23.65,0,2,0,4.13,0,6.13,0,1.4-.1,3.07.27,4.38-.32,2.27-1.23,4.6-2.64,7.01-3.6"/><path class="b" d="M7.96,32.08h176.08"/><path class="b" d="M7.96,27.32c25.69,0,51.4,0,77.09,0,12.26,0,24.54,0,36.79,0,1.42-.03,2.97-.49,4.38-.63,2.58-.36,5.28-.52,7.88-.57,2.3-.05,4.71-.05,7.01-.17,1.4-.07,2.98-.33,4.38-.09,1.46.24,3.03.8,4.38,1.41.77.07,1.86.05,2.63.05,10.5,0,21.03,0,31.54,0"/><path class="b" d="M7.96,22.57c25.11,0,50.23,0,75.34,0,11.09,0,22.2,0,33.29,0,2.63-.09,5.26-1.07,7.88-1.34,3.76-.58,7.61-.89,11.39-1.26,2.92-.2,5.86-.85,8.76-1.17,1.78-.02,3.64.53,5.26,1.24,1.13.5,2.44,1.19,3.5,1.81.65.53,1.8.81,2.63.72,9.34,0,18.7,0,28.03,0"/><path class="b" d="M7.96,17.81c35.62,0,71.25,0,106.88,0,3.19-.03,6.45.07,9.64-.05,4.37-.91,8.81-1.8,13.14-2.91,2.62-.56,5.21-1.73,7.88-1.94,3.09-.08,6.08,1.25,8.76,2.66,1.42.67,2.85,1.82,4.38,2.25,8.46,0,16.95,0,25.4,0"/></svg>