<?xml version="1.0" encoding="UTF-8"?><svg id="a" xmlns="http://www.w3.org/2000/svg" width="1920" height="2400" viewBox="0 0 192 240"><defs><style>.b{fill:none;stroke:#fff;stroke-miterlimit:10;stroke-width:.4px;}.c{stroke-width:0px;}</style></defs><rect class="c" width="192" height="240"/><path class="b" d="M8.22,230.57c6.39,0,12.82,0,19.22,0,2.37.13,2.61-.16,4.37-1.57,1.34-.97,2.89-1.97,4.37-2.71,4.47-2.25,11.07-3.38,15.72-1.14,3.11,1.42,5.67,3.98,8.73,5.42,6.68,0,13.41,0,20.09,0,1.52.12,2.95-1.02,4.37-1.44,1.94-.74,4.07-1.34,6.11-1.73,5.17-1.05,10.58-.78,15.72-2.01,4.59-.99,8.21-4.24,12.23-6.44,10.94-6.36,17.54,5.1,24.46,11.63,11.93-.09,23.9.18,35.81-.1,1.42-1.14,2.96-2.46,4.37-3.62"/><path class="b" d="M8.22,225.82c7.85,0,15.73,0,23.58,0,1.23-.21,2.37-1.22,3.49-1.72,1.63-.83,3.47-1.55,5.24-2.01,3.66-.8,7.78-1.38,11.36.04,9.51,4.49,3.48,3.64,14.85,3.68,5.23,0,10.5,0,15.72,0,3.93-1.72,7.98-3.36,12.23-4.12,4.93-1.02,10.09-1.26,14.85-2.99,3.66-1.35,6.85-3.86,10.48-5.28,9.73-4.19,16.87,5.94,22.71,12.14,1.05.41,2.39.2,3.49.25,1.4,0,2.97,0,4.37,0,4.93,0,9.92,0,14.85,0,3.18,0,6.43,0,9.61,0,1.33.2,2.48-1.04,3.49-1.72,1.72-1.32,3.52-2.81,5.24-4.13"/><path class="b" d="M8.22,221.08c6.39,0,12.82,0,19.22,0,2.59,0,5.27,0,7.86,0,1.99-.63,4.06-1.41,6.11-1.84,3.99-.79,8.29-1.76,12.23-.29,1.12.37,2.42.91,3.49,1.4.76.36,1.75.86,2.62.72,4.64,0,9.33,0,13.98,0,3.76,0,7.59,0,11.36,0,1.51-.33,2.96-1.39,4.37-2.01,2.54-1.26,5.22-2.48,7.86-3.5,4.27-1.68,8.75-2.91,13.1-4.36,3.43-1.16,6.84-2.76,10.48-3.11,7.05-.8,12.83,4.31,17.47,8.97,1.41,1.26,2.68,3.12,4.37,4.01,1.4,0,2.97,0,4.37,0,8.43,0,16.9,0,25.33,0,4.18-2.07,7.6-5.47,11.36-8.19"/><path class="b" d="M8.22,216.34c10.77,0,21.55,0,32.32,0,3.8-.51,7.49-2.19,11.36-2.2,3.31-.02,6.52,1.15,9.61,2.2,8.73,0,17.48,0,26.2,0,4.94-3.05,9.61-6.67,14.85-9.22,5.62-2.75,12.08-4.41,18.34-3.49,8.33,1.35,14.73,7.43,20.96,12.65,9.59.18,19.23,0,28.82.06,1.76.3,3.02-1.31,4.37-2.16,3-2.23,5.72-4.96,8.73-7.18"/><path class="b" d="M8.22,211.6c8.43,0,16.9,0,25.33,0,3.76,0,7.59,0,11.36,0,2.04-.55,4.06-1.55,6.11-2.06,3.12-.83,6.5-.81,9.61.04,1.76.47,3.59,1.19,5.24,1.95,3.76.18,7.59.02,11.36.07,2.59,0,5.27,0,7.86,0,1.1,0,2.4,0,3.49,0,.93-.21,1.88-1.09,2.62-1.65,6.88-5.23,14.21-12.54,23.58-11.24,6.95.88,13.25,4.39,19.22,7.88,1.72,1.03,3.56,2.17,5.24,3.25.77.5,1.85,1.19,2.62,1.69.77.09,1.85.07,2.62.07,9.6,0,19.22,0,28.82,0,1.74-.42,3.02-2.21,4.37-3.3,1.96-1.85,4-3.87,6.11-5.54"/><path class="b" d="M8.22,206.85c8.73,0,17.48,0,26.2,0,2.59,0,5.27,0,7.86,0,1.4-.05,2.99.14,4.37-.16,2.26-1.03,4.59-2.23,6.99-2.92,3.1-.95,6.53-.93,9.61.09,1.46.47,3.01,1.17,4.37,1.88.78.38,1.72,1.09,2.62,1.1,5.81,0,11.66,0,17.47,0,.8,0,1.87.08,2.62-.27.44-.31,1.31-.95,1.75-1.27,1.41-1.04,2.96-2.24,4.37-3.28,4.77-3.5,10.37-7.4,16.6-6.34,3.93.61,7.69,2.2,11.36,3.67,3.75,1.55,7.58,3.07,11.36,4.56,1.41.56,2.98,1.2,4.37,1.82.76.34,1.82.87,2.62,1.12.41,0,1.33,0,1.75,0,8.14,0,16.31,0,24.46,0,2.29,0,4.69,0,6.99,0,1.06-.19,1.88-1.4,2.62-2.09,1.65-1.71,3.44-3.56,5.24-5.11"/><path class="b" d="M8.22,202.11c8.73,0,17.48,0,26.2,0,3.76,0,7.59,0,11.36,0,.52.05,1.32-.19,1.75-.46,1.1-.52,2.39-1.15,3.49-1.65,3.51-1.62,7.51-2.63,11.36-1.76,2.44.51,4.82,1.63,6.99,2.84.45.24,1.31.74,1.75.99,1.1.06,2.4.03,3.49.04,2.59,0,5.27,0,7.86,0,3.18-.04,6.43.08,9.61-.05,6.98-3.77,14.47-8.31,22.71-6.28,3.5.66,7,1.63,10.48,2.36,3.45.75,7.01,1.28,10.48,1.93,1.72.33,3.57.75,5.24,1.29,1.06.41,2.33.89,3.49.75,11.06,0,22.14,0,33.19,0,2.26-1.56,3.96-4.07,6.11-5.79"/><path class="b" d="M8.22,197.37c10.47,0,20.97,0,31.45,0,1.1,0,2.4,0,3.49,0,.81-.18,1.84-.6,2.62-.88,3.12-1.11,6.32-2.33,9.61-2.83,3.86-.62,7.85.23,11.36,1.89,1.12.51,2.42,1.2,3.49,1.79,1.1.05,2.4.02,3.49.03,8.43,0,16.9,0,25.33,0,3.16-.74,6.34-1.82,9.61-1.97,4.36-.21,8.74.6,13.1.6,4.66.13,9.33-.52,13.98-.74,2.31-.08,4.76.04,6.99.71,1.44.33,2.84,1.55,4.37,1.4,5.23,0,10.5,0,15.72,0,4.93,0,9.92,0,14.85,0,1.07-.1,1.87-1.34,2.62-1.99,1.04-1.03,2.36-2.24,3.49-3.17"/><path class="b" d="M8.22,192.63c9.6,0,19.22,0,28.82,0,1.18-.02,2.4-.77,3.49-1.13,1.38-.53,2.94-1.08,4.37-1.46,4.24-1.03,8.78-1.26,13.1-.68,2.37.36,4.77,1.09,6.99,2,.79.33,1.85.8,2.62,1.17,1.09.17,2.4.08,3.49.1,11.93,0,23.88,0,35.81,0,6.39,0,12.82,0,19.22,0,3.24-.41,6.4-1.65,9.61-2.27,2.84-.6,5.94-.94,8.73.01,1.48.52,3.03,1.37,4.37,2.2,3.17.14,6.43.02,9.61.06,6.39,0,12.82,0,19.22,0,2.09-1.51,3.96-3.56,6.11-5"/><path class="b" d="M8.22,187.88c5.52,0,11.08,0,16.6,0,2.88-.1,5.88.22,8.73-.15,3.86-1.9,7.85-4.11,12.23-4.4,2.33-.1,4.71.55,6.99.99,3.85.83,7.69,2.02,11.36,3.46,14.83.3,29.71,0,44.55.11,7.27-.05,14.57.11,21.84-.06,3.43-1,6.9-2.29,10.48-2.65,3.45-.5,6.65,1.18,9.61,2.72,4.35,0,8.75,0,13.1,0,4.35,0,8.75,0,13.1,0,.94-.3,1.87-1.27,2.62-1.87,1.33-1.11,2.89-2.29,4.37-3.19"/><path class="b" d="M8.22,182.17c.8.23,1.84.58,2.62.85,1.98.27,4.12.06,6.11.12,4.06,0,8.17,0,12.23,0,4.34-1.79,8.39-4.6,13.1-5.36,3.04-.63,6,.5,8.73,1.72,2.86,1.16,5.82,2.31,8.73,3.34,1.03.5,2.38.25,3.49.31,2,0,4.11,0,6.11,0,14.84,0,29.7,0,44.55,0,6.98,0,13.99,0,20.96,0,2.61-.11,5.22-1.19,7.86-1.29,1.42-.13,3.01.13,4.37.55.77.24,1.8.73,2.62.74,9.02,0,18.06,0,27.08,0,2.31-1.62,4.5-3.64,6.99-5"/><path class="b" d="M8.22,175.15c3.3.7,6.36,2.42,9.61,3.25,2,0,4.11,0,6.11,0,3.65-.54,7.04-2.38,10.48-3.62,3.83-1.49,8.23-2.64,12.23-1.13,3.46,1.59,6.82,3.57,10.48,4.7,7.56.13,15.15,0,22.71.05,10.47,0,20.97,0,31.45,0,22.12,0,44.26,0,66.38,0,2.07-1.32,3.97-3.14,6.11-4.37"/><path class="b" d="M8.22,169.78c3.56.53,6.94,2.11,10.48,2.71,7.46.93,14.42-3.23,21.84-3.15,2.06.02,4.22.43,6.11,1.23,2.28,1.04,4.52,2.52,6.99,3.09,13.68,0,27.37,0,41.05,0,28.53-.05,57.07.1,85.6-.05,1.06-.88,2.36-1.9,3.49-2.69"/><path class="b" d="M8.22,165.49c3.77,0,7.58.72,11.36.54,4.66-.29,9.29-1.45,13.98-1.48,3.55-.06,7.18.57,10.48,1.88,1.13.44,2.43,1.05,3.49,1.62.76.42,1.72,1.03,2.62.87,5.81,0,11.66,0,17.47,0,3.41-.82,6.9-2.3,10.48-1.72,2.05.36,4.05,1.41,6.11,1.72,4.35,0,8.75,0,13.1,0,9.89,0,19.81,0,29.7,0,12.22,0,24.46,0,36.69,0,4.06,0,8.17,0,12.23,0,1.39,0,2.97,0,4.37,0,.4,0,1.34,0,1.75,0,.49-.1,1.37-.58,1.75-.92"/><path class="b" d="M8.22,162.88c4.37-.92,8.82-1.83,13.1-3.11,9.14-2.95,15.47-1.82,23.58,3.07,1.05.57,2.23,1.52,3.49,1.34,2,0,4.11,0,6.11,0,2.88,0,5.85,0,8.73,0,1.7-.08,3.58.2,5.24-.19,3.03-1.39,6.2-3.07,9.61-3.12,1.73.05,3.54.62,5.24.9,3.17.59,6.42,1.11,9.61,1.61,1.7.26,3.54.54,5.24.78,1.7.06,3.54.02,5.24.03,4.35,0,8.75,0,13.1,0,14.55,0,29.12,0,43.67,0,4.93,0,9.92,0,14.85,0,1.7,0,3.54,0,5.24,0,1.09-.04,2.43.13,3.49-.2"/><path class="b" d="M8.22,159.43c1.7-.08,3.58.21,5.24-.2,1.1-.6,2.38-1.31,3.49-1.87,7.41-4.18,13.47-7.98,21.84-3.38,3.07,1.51,5.7,3.93,8.73,5.46,6.39,0,12.82,0,19.22,0,1.1,0,2.4,0,3.49,0,2.33-.76,4.54-2.21,6.99-2.67,2.27-.47,4.69.02,6.99.02,5.87.13,11.74.8,17.47,2.09,2.82.82,5.83.51,8.73.56,4.64,0,9.33,0,13.98,0,12.51,0,25.05,0,37.56,0,4.35,0,8.75,0,13.1,0,2,0,4.12,0,6.11,0,.76-.37,1.85-.89,2.62-1.23"/><path class="b" d="M8.22,154.68h8.73c5.03-3.51,9.88-9.17,16.6-8.5,5.85.71,10.05,5.38,14.85,8.33,3.01.43,6.52.06,9.61.18,5.52,0,11.08,0,16.6,0,.82.09,1.85-.23,2.62-.48,1.07-.31,2.38-.46,3.49-.5,4.93-.43,9.88-1.45,14.85-1.08,3.83.22,7.63,1.16,11.36,2,2.88.15,5.85.02,8.73.06,4.35-.01,8.75.03,13.1-.02,4.89-.73,9.9-1.81,14.85-1.1,2.02.21,4.09.99,6.11,1.12,4.64,0,9.33,0,13.98,0,2.88,0,5.85,0,8.73,0,3.84-1.09,7.54-2.8,11.36-3.98"/><path class="b" d="M8.22,149.94c3.47,0,7.01,0,10.48,0,1.98-1.05,3.46-3.15,5.24-4.5,10.99-9.72,16.66-1.64,26.2,4.5,11.35,0,22.72,0,34.07,0,1.46.13,2.98-.39,4.37-.73,2.26-.56,4.66-1.01,6.99-1.15,4.72-.35,9.39.78,13.98,1.71,1.38.3,2.97.12,4.37.17,2-.02,4.12.05,6.11-.04,8.21-1.21,15.97-6.17,24.46-4.86,4.36.65,8.69,1.84,13.1,2.15,9.03.81,17.64-2.65,26.2-4.94"/><path class="b" d="M8.22,145.2c3.47,0,7.01,0,10.48,0,.99-.28,1.88-1.36,2.62-2.02,1.08-1.01,2.36-2.21,3.49-3.17,6.59-5.77,12.17-6.04,19.22-.87,1.71,1.21,3.52,2.56,5.24,3.76,1.1.73,2.25,1.83,3.49,2.29,3.18,0,6.43,0,9.61,0,8.14,0,16.31,0,24.46,0,.78,0,1.84.01,2.62-.04,1.09-.39,2.39-.83,3.49-1.16,2.81-.84,5.8-1.35,8.73-1.33,6.14-.02,12.19,2.49,18.34,1.18,7.83-1.16,14.75-6.06,22.71-6.45,6.11.08,12.22,1.19,18.34.74,7.73-.5,15.27-2.56,22.71-4.57"/><path class="b" d="M8.22,140.46c2,0,4.11,0,6.11,0,.8,0,1.85.06,2.62-.21.47-.27,1.31-.84,1.75-1.15,11.16-8.82,16.34-15.19,29.7-4.86,2.64,1.95,5.2,4.18,7.86,6.11,3.16.27,6.43.04,9.61.11,8.14,0,16.31,0,24.46,0,.86-.05,1.85-.64,2.62-.99,1.08-.5,2.38-1.06,3.49-1.47,3.04-1.14,6.35-1.82,9.61-1.73,3.52.03,6.97,1.22,10.48,1.36,4.47.27,8.95-.76,13.1-2.35,3.49-1.3,6.91-2.98,10.48-4.05,2.53-.75,5.27-.92,7.86-1.3,6.38-.83,12.81-1.56,19.22-2.2,2.88-.31,5.86-.53,8.73-.86,2.61-.36,5.28-1,7.86-1.5"/><path class="b" d="M8.22,135.71c2.14-.57,4.04-2.14,6.11-2.94,2.34-.94,4.87-1.69,6.99-3.1,6.54-4.12,13.75-9.94,21.84-6.35,6.66,2.79,11.13,9.15,17.47,12.39,5.23,0,10.5,0,15.72,0,3.18,0,6.43,0,9.61,0,1.7-.09,3.59.22,5.24-.21,2.53-1.39,5.16-2.82,7.86-3.85,3.03-1.16,6.37-1.77,9.61-1.43,2.64.28,5.25,1.19,7.86,1.61,3.14.57,6.47.66,9.61.01,4.94-.97,9.4-3.54,13.98-5.52,2.24-.96,4.73-1.57,6.99-2.48,4.81-1.86,9.71-3.81,14.85-4.5,4.62-.71,9.34-.27,13.98-.12,2.6.01,5.28-.26,7.86-.51"/><path class="b" d="M8.22,124.8c1.95-.78,4.05-1.55,6.11-1.96,1.09-.23,2.39-.27,3.49-.39,1.45-.2,3-.66,4.37-1.16,7.68-3.03,15.47-7.79,23.58-3.08,6.27,3.94,11.4,9.74,18.34,12.63,2.27.3,4.7.06,6.99.13,3.76,0,7.59,0,11.36,0,2.29-.04,4.7.08,6.99-.06,2.3-1.06,4.66-2.27,6.99-3.26,18.2-8.17,21.2,8.52,41.05-3.21,3.4-2.02,7.17-3.48,10.48-5.65,6.03-3.96,12.58-7.77,20.09-6.77,2.61.25,5.27.9,7.86,1.3,2.57.39,5.26.57,7.86.68"/><path class="b" d="M8.22,114.5c2.24-.64,4.65-1.08,6.99-.97,2.88.4,5.87.48,8.73-.09,8.1-1.56,16.2-4.33,23.58,1.05,6.01,4.62,12.38,9.48,20.09,10.61,3.15.53,6.43.52,9.61.7,2.89.3,5.87.63,8.73-.09,8.08-1.9,16-5.7,24.46-3.4,4.13,1.05,7.99,3.23,12.23,3.89,1.99-.02,4.15.2,6.11-.14,4.15-.89,7.8-3.3,11.36-5.51,1.67-1.07,3.62-2.01,5.24-3.16,2.67-1.89,5.21-4.15,7.86-6.06,6.21-4.66,11.8-5.66,19.22-3.24,3.71,1.1,7.54,2.01,11.36,2.69"/><path class="b" d="M8.22,107.32c1.96-.47,4.09-.76,6.11-.64,1.43.08,2.96.51,4.37.69,2.87.38,5.85.26,8.73.07,6.17-.47,12.83-.74,18.34,2.55,2.4,1.41,4.58,3.37,6.99,4.78,6.76,4.32,13.22,4.64,20.96,3.96,3.5-.39,6.99.54,10.48.5,4.66-.1,9.32-.98,13.98-1.06,4.1-.11,8.27.42,12.23,1.52,1.43.38,2.99.93,4.37,1.47.73.39,1.82.32,2.62.31,5.23,0,10.5,0,15.72,0,.9.18,1.87-.56,2.62-.97,1.42-.83,2.98-1.83,4.37-2.72,1.36-.9,3-1.73,4.37-2.61,1.8-1.21,3.59-2.73,5.24-4.13,14.04-12.47,18.28-6.86,34.07-3.11"/><path class="b" d="M8.22,103.29c2.57-.39,5.3-.48,7.86.06,3.13.79,6.4,1.25,9.61,1.5,6.46.53,13.24.57,19.22,3.41,2.42,1.1,4.58,2.88,6.99,4.01,4.29,2.18,9.3,2.61,13.98,1.66,4.06-.72,8.07-2.25,12.23-2.29,2.3.1,4.68.51,6.99.57,4.06.2,8.19.33,12.23.87,4.41.56,8.79,1.62,13.1,2.68,1.1.25,2.42.59,3.49.94,1.09.06,2.4.03,3.49.04,3.18,0,6.43,0,9.61,0,2.29,0,4.69,0,6.99,0,1.4-.06,3,.17,4.37-.2,1.98-.98,4.16-1.88,6.11-2.92,3.46-2.06,6.44-4.95,9.61-7.4,10.43-8.61,18.09-6.29,29.7-1.73"/><path class="b" d="M8.22,100.69c2.61-.07,5.32.07,7.86.69,3.73,1.02,7.54,2,11.36,2.65,5.21.96,10.58,1.26,15.72,2.55,3.04.66,5.77,2.38,8.73,3.23,4.62,1.36,9.56.46,13.98-1.22,3.74-1.35,7.4-3.25,11.36-3.94,2.28-.37,4.7-.03,6.99.13,3.81.34,7.64,1.02,11.36,1.93,5.52,1.32,10.94,3.28,16.6,3.97,2.33.25,4.65,1.3,6.99,1.32,8.14,0,16.31,0,24.46,0,.41,0,1.33,0,1.75,0,1.23-.34,2.45-1.27,3.49-1.97,2.07-1.47,4.14-3.2,6.11-4.8,9.62-7.94,17.31-11.57,28.82-4.4"/><path class="b" d="M8.22,98.45c2.62.15,5.33.43,7.86,1.13,4.32,1.29,8.63,2.86,13.1,3.54,4.89.85,9.91.49,14.85.73,2.64.08,5.24.99,7.86,1.22,5.45.55,10.81-1.26,15.72-3.46,5.36-2.43,10.53-4.94,16.6-4.11,8.22.72,15.57,5.05,23.58,6.65,2.56.51,5.28.29,7.86.62,3.54.38,7.08,1.23,10.48,2.24,1.63.53,3.55.15,5.24.26,2.88,0,5.85,0,8.73,0,3.76,0,7.59,0,11.36,0,7.31-4.25,13.8-12.89,22.71-13.58,3.53-.1,6.73,1.94,9.61,3.77"/><path class="b" d="M8.22,95.95c2.92.21,5.95.55,8.73,1.51,5.04,1.78,10.3,3.61,15.72,3.16,4.45-.25,8.72-1.84,13.1-2.53,3.75-.39,7.62-.12,11.36-.8,7.28-1.01,13.93-4.41,20.96-6.33,7.99-2.32,15.59,2.28,22.71,5.31,3.29,1.38,6.86,2.62,10.48,2.38,4.65-.47,9.48-.55,13.98.9,2.38.73,4.76,1.8,6.99,2.91,1.09.09,2.4.04,3.49.05,6.39,0,12.82,0,19.22,0,.41,0,1.33,0,1.75,0,.47-.2,1.35-.75,1.75-1.08,1.42-1.04,2.98-2.26,4.37-3.34,3.89-2.85,8.01-6.61,13.1-6.56,2.84.23,5.46,1.76,7.86,3.19"/><path class="b" d="M8.22,93.04c2.31.04,4.74.19,6.99.77,1.74.48,3.52,1.23,5.24,1.77,10.61,3.66,16.14-.84,25.33-4.91,2.76-1.07,5.82-1.37,8.73-1.79,3.78-.48,7.62-.96,11.36-1.72,3.51-.71,7.04-1.67,10.48-2.66,2.53-.71,5.19-1.64,7.86-1.3,7.49.96,13.29,6.48,20.09,9.29,4.87,2.22,8.14,1.1,13.1.53,4.83-.61,9.75.55,13.98,2.91,1.1.55,2.33,1.42,3.49,1.84.77,0,1.85,0,2.62,0,6.98,0,13.99,0,20.96,0,1.09,0,2.4,0,3.49,0,1.59-.46,2.96-1.85,4.37-2.69,6.66-4.58,9.81-5.86,17.47-2.18"/><path class="b" d="M8.22,90.21c2-.13,4.13-.16,6.11.18,1.76.3,3.53,1.09,5.24,1.57,6.63,2.18,12.66.55,18.34-3.16,2.89-1.77,5.69-3.88,8.73-5.37,6.33-2.74,13.4-3.03,20.09-4.38,3.21-.59,6.46-1.34,9.61-2.18,3.81-1.11,6.61-2.02,10.48-.34,8.23,3.17,15.74,14.15,24.46,14.34,6.93-.59,12.26-2.5,19.22.25,1.44.52,2.96,1.3,4.37,1.9,3.18,0,6.43,0,9.61,0,6.68,0,13.41,0,20.09,0,1.99-.1,4.16.23,6.11-.2,4.64-2.32,8.22-1.86,13.1-.68"/><path class="b" d="M8.22,88.29c4.93-.01,9.91,0,14.85,0,1.4-.05,2.98.13,4.37-.14,2.42-.74,4.8-1.9,6.99-3.16,4.67-2.62,8.94-6.14,13.98-8.07,4.82-1.75,9.87-2.96,14.85-4.19,4.92-1.18,9.88-2.42,14.85-3.39,4.23-1.25,8.06.52,11.36,3.11,4.05,3.13,7.55,7,11.36,10.41,2.58,2.14,5.34,4.82,8.73,5.43,2.59,0,5.27,0,7.86,0,3.44-.62,6.97-1.35,10.48-1.3,2.95-.05,5.88.73,8.73,1.3,3.47,0,7.01,0,10.48,0,12.22,0,24.46,0,36.69,0"/><path class="b" d="M8.22,83.55c6.1,0,12.24,0,18.34,0,1.25,0,2.41-1.03,3.49-1.56,1.71-.97,3.53-2.05,5.24-3.01,3.08-1.74,6.3-3.39,9.61-4.66,4.07-1.44,8.27-2.69,12.23-4.46,7.37-2.88,20.61-10.2,27.95-5.32,7.9,5.02,13.09,13.37,20.96,18.44.92.81,2.36.52,3.49.57,1.7,0,3.54,0,5.24,0,5.52,0,11.08,0,16.6,0,17.46,0,34.94,0,52.41,0"/><path class="b" d="M8.22,78.8c4.35,0,8.75,0,13.1,0,1.41,0,2.96,0,4.37,0,1.2.07,2.58.02,3.49-.87,3.91-2.76,8.36-4.89,13.1-5.71,2.29-.45,4.72-.68,6.99-1.25,1.79-.49,3.62-1.32,5.24-2.21,7.47-3.9,14.75-11.79,23.58-11.75,4.89.24,8.72,3.89,12.23,6.93,3.17,2.87,6.29,5.95,9.61,8.65,2.91,2.37,6.12,4.55,9.61,5.95,1.34.48,2.97.18,4.37.26,23.29,0,46.59,0,69.88,0"/><path class="b" d="M8.22,74.06c6.69,0,13.41,0,20.09,0,.52-.09,1.35-.58,1.75-.92,1.05-.71,2.33-1.47,3.49-1.98,4.4-2.13,9.31-1.05,13.98-1.06,10.42-.69,18.27-17.34,28.82-18.65,5.37-.36,10.71,5.04,14.85,8.02,5.52,4.47,11.66,8.23,18.34,10.69,2.95,1.13,5.88,2.54,8.73,3.89,6.98.02,13.99,0,20.96,0,14.84,0,29.7,0,44.55,0"/><path class="b" d="M8.22,69.32c6.97-.05,13.99.1,20.96-.06,9.23-6.7,13.69-.29,20.96-2.02,9.54-3.32,17.02-20.78,27.08-21.12,2.22.08,4.25,1.41,6.11,2.48,2.33,1.42,4.68,3.04,6.99,4.49,3.28,2.08,6.82,3.92,10.48,5.24,3.44,1.27,7.11,2.12,10.48,3.59,3.88,1.79,7.16,4.76,10.48,7.39,20.67.05,41.35,0,62.02.02"/><path class="b" d="M8.22,64.58h20.09c7.21-5.07,10.4-3.56,18.34-2.65,3.78.29,6.99-2.28,9.61-4.71,5.85-4.97,14.91-19.53,23.58-15.8,5.31,2.45,10.15,5.98,15.72,7.88,3.09,1.11,6.39,1.74,9.61,2.33,2.35.45,4.82,1,6.99,2.03,4.81,2.57,8.42,6.93,12.23,10.72,1.66.4,3.54.11,5.24.19,3.18,0,6.43,0,9.61,0,8.73,0,17.48,0,26.2,0,2.29,0,4.69,0,6.99,0,1.72,0,3.56.09,5.24-.33,2.02-.26,4.09.49,6.11.33"/><path class="b" d="M8.22,59.83h20.09c3.88-2.68,8.35-4.4,13.1-4.51,2.61-.17,5.4-.16,7.86-1.15,6.93-3.43,11.32-10.38,17.47-14.91,3.96-3.17,9.17-5.12,13.98-2.59,6.13,2.98,12.22,6.7,19.22,6.98,4.06.34,8.32-.2,12.23,1.18,7.05,2.95,11.32,9.84,16.6,15,12.8,0,25.63,0,38.43,0,1.09-.03,2.41.09,3.49-.14.42-.25,1.31-.72,1.75-.94,3.79-2.19,7.51-1.78,11.36.04"/><path class="b" d="M8.22,55.09c6.68,0,13.41,0,20.09,0,1.25.18,2.42-.84,3.49-1.34,1.37-.71,2.93-1.43,4.37-2,3.13-1.26,6.47-2.14,9.61-3.38,7.09-2.75,11.42-9.58,17.47-13.89,5.43-4.18,11.2-5.03,17.47-2.16,5.1,2.31,10,5.61,15.72,6.12,4.38.52,8.74-.77,13.1-.92,10.71.12,17.04,10.53,23.58,17.56,9.31,0,18.64,0,27.95,0,1.7,0,3.54,0,5.24,0,.43.02,1.32-.02,1.75-.08.42-.27,1.31-.79,1.75-1.04,4.78-2.88,9.05-2.36,13.98-.18"/><path class="b" d="M8.22,50.35c7.85-.05,15.74.1,23.58-.06,5.69-2.77,11.54-5.49,16.6-9.35,4.61-3.69,8.23-8.61,13.1-11.99,3-2.15,6.79-3.39,10.48-2.73,5.27,1.04,10.23,3.43,14.85,6.1,5.68,3.29,11.09,4.36,17.47,2.46,3.12-.89,6.34-1.78,9.61-1.71,10.85-.46,17.28,9.82,23.58,17.09,1.36.38,2.97.14,4.37.2,2,0,4.12,0,6.11,0,5.81,0,11.66,0,17.47,0,.79,0,1.86.06,2.62-.21.76-.38,1.82-.86,2.62-1.14,4.31-1.7,8.93.04,13.1,1.35"/><path class="b" d="M8.22,45.6c8.73,0,17.48,0,26.2,0,4.87-1.78,9.18-5.11,13.1-8.46,3.42-3,6.28-6.7,9.61-9.79,3.72-3.63,8.72-6.31,13.98-4.52,2.41.73,4.72,2,6.99,3.05,2.07.85,4.24,1.77,6.11,3,4.47,2.81,9.32,6.08,14.85,5.6,3.34-.24,6.51-1.64,9.61-2.81,1.96-.74,4.14-1.18,6.11-1.86,13.37-5.19,19.12,7.62,27.08,15.54.76.31,1.82.24,2.62.24,1.4,0,2.97,0,4.37,0,4.35,0,8.75,0,13.1,0,3.77.03,7.6.04,11.36-.25,3.45.46,7.01.19,10.48.25"/><path class="b" d="M8.22,40.86c8.14,0,16.31,0,24.46,0,1.4-.01,2.97.03,4.37-.04,1.13-.46,2.43-1.1,3.49-1.69,5.48-2.98,9.77-7.66,13.98-12.16,8.78-9,13.22-8.49,23.58-2.44,3.77,1.47,7.09,3.88,10.48,6.03,6.93,4.41,12.23,3.59,19.22-.07,2.24-1.15,4.78-1.93,6.99-3.15,4.3-2.42,9.24-4.59,13.98-1.93,4.24,2.3,7.32,6.27,10.48,9.81,1.84,1.97,3.7,4.36,6.11,5.64,12.8,0,25.63,0,38.43,0"/><path class="b" d="M8.22,36.12c5.81,0,11.66,0,17.47,0,6.86.17,13.22-.03,19.22-3.83,5.07-3.12,8.81-8.08,13.98-11.07,6.67-4.01,12.22-.99,18.34,2.25,1.97.97,4.22,1.61,6.11,2.76,3.86,2.17,7.72,4.9,12.23,5.44,4.35.56,8.51-1.42,12.23-3.46,2.27-1.28,4.81-2.3,6.99-3.74,4.86-3.23,10.09-6.21,15.72-2.73,6.37,3.72,9.98,11.09,16.6,14.39,12.22,0,24.46,0,36.69,0"/><path class="b" d="M8.22,31.38c2,0,4.11,0,6.11,0,1.18-.23,2.39-.99,3.49-1.43,1.64-.66,3.49-1.06,5.24-1.22,5.8-.49,11.7,1.01,17.47-.14,3.56-.62,6.75-2.49,9.61-4.62,2.94-2.03,6.11-4,9.61-4.86,5.76-1.54,11.37,1.16,16.6,3.28,1.94.82,4.15,1.1,6.11,1.84,2.63,1,5.22,2.36,7.86,3.33,4.81,1.96,10.21,1.69,14.85-.62,2.96-1.45,5.98-3.04,8.73-4.86,3.91-2.67,8.05-6.29,13.1-5.76,7.07,1.09,11.16,7.88,16.6,11.83,1.64,1.09,3.3,2.74,5.24,3.22,3.76,0,7.59,0,11.36,0,7.85,0,15.73,0,23.58,0"/><path class="b" d="M8.22,26.63c3.74.02,7.11-2.14,10.48-3.5,6.76-2.56,13.99-.2,20.96-.47,3.39-.09,6.72-1.15,9.61-2.9,2.69-1.4,5.71-2.34,8.73-2.54,6.33-.49,12.27,2.24,18.34,3.52,2.57.53,5.34.32,7.86,1.15,4.04,1.15,8.01,2.92,12.23,3.37,5.98.75,11.8-1.86,16.6-5.23,4.44-3.16,8.94-7.86,14.85-7.29,6.77.98,11,7.19,16.6,10.52,1.67,1.11,3.5,2.29,5.24,3.29,3.75.23,7.59.03,11.36.09,7.56,0,15.15,0,22.71,0"/><path class="b" d="M8.22,21.89c1.1,0,2.39,0,3.49,0,3.68-.73,6.8-3.22,10.48-3.98,5.72-1.45,11.66-.46,17.47-.55,8.8-.02,9.54-4.35,19.22-2.73,4.97.8,9.82,2.45,14.85,2.91,2.6.33,5.27-.06,7.86-.21,5.78.16,10.97,3.28,16.6,4.27,15.05,2.81,17.89-11.46,29.7-12.17,6.55.18,11.08,5.78,16.6,8.56,2.27,1.31,4.64,2.7,6.99,3.86,3.47.08,7.01.01,10.48.03,7.27,0,14.57,0,21.84,0"/></svg>