<?xml version="1.0" encoding="UTF-8"?><svg id="a" xmlns="http://www.w3.org/2000/svg" width="1920" height="2400" viewBox="0 0 192 240"><defs><style>.b{fill:none;stroke:#fff;stroke-miterlimit:10;stroke-width:.4px;}.c{stroke-width:0px;}</style></defs><rect class="c" width="192" height="240"/><path class="b" d="M8.08,232.23c5.53,0,11.1,0,16.62,0,2.13-1.13,4.07-2.85,6.12-4.13,3.66-2.46,7.51-4.78,11.37-6.9,3.65-1.85,7.2-4.44,11.37-4.88,8.35-.74,15.94,3.8,23.62,6.37,3.66,1.41,7.59,2.06,11.37,3.03,3.32.86,6.6,2.19,9.62,3.81,1.42.75,2.98,1.65,4.37,2.45.75.31,1.83.25,2.62.24,1.4,0,2.97,0,4.37,0,4.94,0,9.93,0,14.87,0,1.4-.05,3,.15,4.37-.17,3.11-1.22,6.35-2.38,9.62-3.06,2.56-.58,5.28-.64,7.87-.89,3.5-.34,7.03-.94,10.5-1.49,5.47-.84,11.26-1.65,16.62.18,3.35,1.41,6.9,2.49,10.5,3.07"/><path class="b" d="M8.08,227.48c3.18,0,6.44,0,9.62,0,1.41,0,2.97,0,4.37,0,.81-.4,1.84-1.03,2.62-1.47,5.89-3.36,12.19-5.99,18.37-8.75,2.33-1,4.65-2.29,7-3.25,4.72-1.8,9.95-1.58,14.87-.85,5.31.8,10.58,2.08,15.75,3.51,2.89.71,5.92,1.23,8.75,2.15,5.78,1.77,10.72,5.42,15.75,8.63,6.4.09,12.84,0,19.25.03,2.89,0,5.86,0,8.75,0,1.71-.22,3.53-.68,5.25-.9,2.87-.47,5.89-.33,8.75-.91,4.45-.85,8.74-2.52,13.12-3.63,12.51-3.22,12.96,1.69,23.62,2.96"/><path class="b" d="M8.08,222.73c2.3,0,4.7,0,7,0,1.4-.08,3.03.23,4.37-.26,2.55-1.16,5.24-2.23,7.87-3.2,4.92-1.81,9.97-3.39,14.87-5.24,2.94-1.02,5.78-2.55,8.75-3.47,5.1-1.43,10.5-1.27,15.75-1.34,4.36,0,8.8-.09,13.12.6,2.89.46,5.92.68,8.75,1.48,7.16,1.86,12.43,7.39,18.37,11.43,6.99,0,14.01,0,21,0,2.3,0,4.7,0,7,0,1.71-.03,3.57.13,5.25-.24,2.31-.37,4.77-.42,7-1.21,4.15-1.33,8.07-3.46,12.25-4.71,12.46-3.63,14.19,3.1,24.5,4.2"/><path class="b" d="M8.08,217.98c1.71,0,3.54,0,5.25,0,3.44-1.05,7.02-1.83,10.5-2.73,5.6-1.41,11.18-3.06,16.62-5,3.5-1.13,6.91-2.83,10.5-3.66,4.89-.88,9.94-.32,14.87-.77,5.25-.37,10.46-1.62,15.75-1.51,11.03-.97,15.89,4.01,23.62,10.72,4.46,3.77,4.11,2.86,9.62,2.95,4.94,0,9.93,0,14.87,0,2,0,4.12,0,6.12,0,1.12-.23,2.4-.75,3.5-1.07,2.88-.89,6.03-1.08,8.75-2.49,6.43-3.1,12.87-6.63,20.12-3.79,5.44,1.96,9.83,6.47,15.75,7.16"/><path class="b" d="M8.08,210.85c15.66.53,20.64-.85,34.99-6.72,4.29-1.73,7.53-2.94,12.25-2.19,4.33.57,8.76,1.29,13.12.68,2.94-.36,5.88-1.19,8.75-1.91,2.29-.53,4.71-.95,7-1.51,11.15-2.91,16.53,5.55,24.5,11.2,1.27.88,2.9,1.42,4.37,1.85,1.09.32,2.36.88,3.5.98,4.65,0,9.35,0,14,0,2.14-.31,4.15-1.61,6.12-2.45,1.94-.92,4.02-1.89,6.12-2.38,2.12-.4,4.19-1.39,6.12-2.32,13.56-7.32,18.17-.03,28.87,7.13,2,.05,4.12.01,6.12.02"/><path class="b" d="M8.08,203.46c3.49.67,6.98,1.73,10.5,2.25,8.39,1.14,16.19-2.91,23.62-6.22,4.11-1.78,7.73-3.34,12.25-1.95,4.02,1.05,8.04,2.63,12.25,2.62,3.61.05,7.15-1.06,10.5-2.3,2.02-.73,4.18-1.43,6.12-2.35,11.96-6.02,16.13.19,25.37,6.63,2.4,1.48,5.31,2.05,7.87,3.17,6.17,2.52,11.59,2.28,17.5-.85,2.3-1.13,4.61-2.5,7-3.44,1.06-.43,2.41-.67,3.5-1,1.43-.47,2.98-1.15,4.37-1.73,11.79-5.58,17.34,3.15,25.37,10.07,3.17.26,6.44.03,9.62.11"/><path class="b" d="M8.08,197.7c3.55.91,6.98,2.42,10.5,3.42,8.54,2.31,16.83-1.83,24.5-5.14,3.98-1.66,7.09-2.85,11.37-1.38,4.27,1.32,8.55,3.3,13.12,3.13,3.67-.07,7.2-1.48,10.5-2.99,3.41-1.35,6.44-3.59,9.62-5.37,8.01-4.58,13.27-.75,20.12,3.54,2.12,1.36,4.71,1.82,7,2.79,3.36,1.39,6.82,2.98,10.5,3.24,4.94.45,9.53-1.86,14-3.62,1.92-.82,4.13-1.01,6.12-1.53,2-.56,4.08-1.33,6.12-1.73,6.24-1.51,11.65,2.53,15.75,6.79,1.1,1.12,2.41,2.48,3.5,3.61,0,0,.87.89.87.89l.87.36c3.77,0,7.6,0,11.37,0"/><path class="b" d="M8.08,194.08c2.68.88,5.33,2.1,7.87,3.31,1.64.73,3.39,1.77,5.25,1.59,4.36,0,8.77,0,13.12,0,3.31-1.02,6.48-2.63,9.62-4.05,3.53-1.67,6.55-2.81,10.5-1.86,4.03.83,8.07,2.28,12.25,2.09,7.08-.37,13.56-4.53,19.25-8.45,7.82-5.44,12.59-5.01,21-1.21,2.18,1.03,4.68,1.26,7,1.78,2.65.73,5.26,1.85,7.87,2.69,5.87,2.11,11.49,1.62,17.5.53,1.69-.29,3.54-.29,5.25-.38,1.71-.16,3.54-.52,5.25-.74,8.56-1.48,14.44,4.08,20.12,9.59h14"/><path class="b" d="M8.08,191.32c1.13.48,2.42,1.12,3.5,1.7.79.4,1.73,1.09,2.62,1.2,4.94,0,9.93,0,14.87,0,4.06,0,8.18,0,12.25,0,1.1,0,2.4,0,3.5,0,1.5-.38,2.9-1.47,4.37-1.94,4.82-1.61,9.94.06,14.87,0,8.95.25,16.26-5.51,23.62-9.77,4.48-2.6,9.82-3.41,14.87-2.33,2.58.44,5.24,1.13,7.87,1.05,7.24-1.03,14.03,2.57,21,3.93,4.31.95,8.76,1.49,13.12,2.1,9.68.32,13.86.86,21.87,6.95,5.82.03,11.68,0,17.5.01"/><path class="b" d="M8.08,188.16c.8.42,1.74,1.12,2.62,1.32,2,0,4.12,0,6.12,0,4.06,0,8.18,0,12.25,0,7.57,0,15.17,0,22.75,0,1.42.04,2.96-.41,4.37-.46,2.59-.18,5.28-.1,7.87-.23,13.31-.34,17.26-8.27,28.87-10.11,4.92-.82,9.94.26,14.87-.25,2.11-.17,4.11-1.2,6.12-1.73,4.03-1.02,8.33-.43,12.25.83,5.98,1.89,11.49,5.14,17.5,6.96,3.46,1.01,7.09,1.73,10.5,2.92,1.11.38,2.42.89,3.5,1.35.73.34,1.79.85,2.62.71,7.86,0,15.76,0,23.62,0"/><path class="b" d="M8.08,183.87c.96.92,2.27.91,3.5.86,1.11,0,2.4,0,3.5,0,4.06,0,8.18,0,12.25,0,10.78-.11,21.6.24,32.37-.16,5.27-.19,10.73.04,15.75-1.84,2.75-.91,5.17-2.75,7.87-3.77,6.42-2.63,13.42-.97,20.12-1.27,2.07-.13,4.24-.59,6.12-1.46,1.47-.68,2.93-1.76,4.37-2.49,6.17-3.39,12.53-2.32,18.37,1.19,4.33,2.52,8.42,5.6,13.12,7.44,1.09.49,2.41,1.08,3.5,1.59.73.36,1.78.9,2.62.76,10.78,0,21.59,0,32.37,0"/><path class="b" d="M8.08,178.27c.8.54,1.66,1.47,2.62,1.7,1.71,0,3.54,0,5.25,0,4.36,0,8.77,0,13.12,0,7.28,0,14.59,0,21.87,0,1.48.16,2.95-.53,4.37-.78,2.28-.41,4.7-.34,7-.15,20.42,2.7,14.5-5.57,30.62-3.58,5.84.82,12.38,1.72,17.5-1.94,1.96-1.43,3.97-3.05,6.12-4.17,8.8-4.94,15.83.81,22.75,5.97,2.44,1.77,5.21,3.26,7.87,4.65,3.77,0,7.6,0,11.37,0,8.45,0,16.92,0,25.37,0"/><path class="b" d="M8.08,172.12c1.44.94,2.88,2.26,4.37,3.11h34.99c6.32-5.64,12.98-3.03,20.12-.99,3.1.83,6.46,1.38,9.62.59,2.63-.75,5.09-2.32,7.87-2.58,6.68-.95,13.51,1.57,20.12-.17,3.33-.76,6.07-2.98,8.75-4.97,5.05-3.69,10.8-5.27,16.62-2.31,4.72,2.25,8.56,6.01,13.12,8.53,1.11.56,2.23,1.71,3.5,1.88,12.24,0,24.5,0,36.74,0"/><path class="b" d="M8.08,167.41c2.03.95,4.01,2.33,6.12,3.07,2.6,0,5.28,0,7.87,0,6.4,0,12.84,0,19.25,0,1.52.1,2.39-.04,3.5-1.14,2.58-2.12,5.26-4.66,8.75-4.99,4.37-.46,8.46,1.73,12.25,3.61,2.23.97,4.47,2.71,7,2.52,3.18-.02,6.44.04,9.62-.03,1.68-.36,3.53-.59,5.25-.7,4.65-.3,9.39-.01,14-.79,2.72-.45,5.46-1.34,7.87-2.67,2.07-1.16,4.08-2.69,6.12-3.89,6.9-4.33,13.14-4.45,20.12-.19,2.93,1.77,5.87,3.72,8.75,5.57,1.14.78,2.32,1.98,3.5,2.7h35.87"/><path class="b" d="M8.08,164.12c2.28.58,4.65,1.23,7,1.45,4.64.25,9.35.13,14,.15,2.6,0,5.28,0,7.87,0,3.47-1.2,6.62-3.31,9.62-5.37,4.06-3.25,8.26-4.13,13.12-2.04,4.05,1.68,7.6,4.45,11.37,6.65.97.75,2.32.85,3.5.76,1.1,0,2.4,0,3.5,0,4.06,0,8.18,0,12.25,0,2.89-.02,5.86.04,8.75-.03,4.55-.82,9.05-2.3,13.12-4.51,5.64-3.08,11.65-6.96,18.37-6.02,4.82.64,9.12,3.29,13.12,5.89,1.94,1.25,3.4,3.34,5.25,4.66h34.99"/><path class="b" d="M8.08,160.98c2.3-.06,4.71.14,7-.11,1.98-.64,4.05-1.4,6.12-1.69,4.33-.69,8.8-.65,13.12-1.37,3.29-.52,6.59-1.49,9.62-2.88,2.09-.9,4.07-2.27,6.12-3.22,3.32-1.49,7.2-1.24,10.5.17,5.39,2.23,9.73,6.39,14.87,9.07,4.94.05,9.93,0,14.87.02,4.06-.06,8.19.12,12.25-.08,4.14-1.06,8.35-2.24,12.25-4.01,5.01-2.33,10.08-5.26,15.75-5.42,5.09-.15,10.04,2.11,14,5.19,1.55,1.23,2.87,3.06,4.37,4.32h34.99"/><path class="b" d="M8.08,156.23c2.3-.06,4.71.13,7-.1,3.22-2.17,6.69-4.13,10.5-5.03,5.43-1.43,11.15-1.26,16.62-2.44,7.08-1.54,10.23-5.82,18.37-3.57,7.75,2.14,13.17,9.14,21,11.04,2.58.25,5.28.04,7.87.11,5.23,0,10.51,0,15.75,0,3.51-.59,7.16-1.13,10.5-2.43,4.61-1.78,9.08-4.24,14-5.05,6.94-1.29,13.96,2.11,18.37,7.39,11.94.26,23.92,0,35.87.09"/><path class="b" d="M8.08,151.48c5,.03,4.85.45,8.75-2.9,2.8-2.4,6.09-4.39,9.62-5.49,5.93-1.96,12.31-.95,18.37-2.06,2.98-.58,5.75-2.15,8.75-2.69,9.08-2.15,16.4,4.23,23.62,8.62,3.78,2.11,8.04,3.44,12.25,4.4,4.92.32,9.94.03,14.87.12,2,0,4.12,0,6.12,0,1.41,0,3.02.11,4.37-.37,4.14-1.19,8.09-3.15,12.25-4.29,7.45-2.25,14.32-.4,20.12,4.66h36.74"/><path class="b" d="M8.08,145.95c4.08-1.12,7.36-3.89,10.5-6.58,4-3.13,8.95-4.96,14-5.37,4.05-.4,8.21-.13,12.25-.75,3.52-.57,6.89-2.2,10.5-2.31,9.74-.71,16.52,7.47,24.5,11.59,3.64,1.72,7.48,3.17,11.37,4.18,5.53,0,11.1,0,16.62,0,4.06-.05,8.19.1,12.25-.06,4.8-1.51,9.77-3.16,14.87-2.89,2.37.12,4.81.68,7,1.58,1.41.55,2.77,1.62,4.37,1.37,12.53,0,25.09,0,37.62,0"/><path class="b" d="M8.08,138.25c3.56-1.14,6.77-3.24,9.62-5.62,5.24-4.02,11.93-5.23,18.37-5.65,3.2-.26,6.48-.51,9.62-1.15,2.88-.63,5.77-1.66,8.75-1.67,9.45-.18,15.77,7.95,22.75,13.1,3.12,2.19,6.79,3.85,10.5,4.72,5.23,0,10.51,0,15.75,0,26.83-.01,53.66,0,80.49,0"/><path class="b" d="M8.08,130.78c2.07-.74,4.21-1.68,6.12-2.77,1.73-.98,3.43-2.31,5.25-3.12,5.74-2.63,12.24-2.52,18.37-3.5,2.92-.43,5.89-1.05,8.75-1.79,4.24-1.28,8.96-1.98,13.12-.05,5.99,2.67,10.24,7.99,14.87,12.44,2.05,2,4.35,3.99,7,5.14,1.4.17,2.97.06,4.37.09,9.62,0,19.26,0,28.87,0,23.03,0,46.08,0,69.11,0"/><path class="b" d="M8.08,123.89c3.28-1.13,6.52-2.58,9.62-4.13,5.27-2.1,11.11-1.12,16.62-1.81,5.39-.47,10.51-2.45,15.75-3.67,10.35-2.63,17.47,6.83,23.62,13.57,1.61,1.55,3.13,3.77,5.25,4.62,1.7,0,3.55,0,5.25,0,4.65,0,9.35,0,14,0,28.58,0,57.16,0,85.74,0"/><path class="b" d="M8.08,117.8c3.51-1.04,6.97-2.52,10.5-3.46,4.65-.74,9.34.75,14,.71,3.86.07,7.72-.83,11.37-2.01,3.4-1.06,6.9-2.29,10.5-2.39,8.46-.07,13.97,7.52,19.25,13.09,4.5,4.82,3.23,3.94,9.62,3.98,4.94,0,9.93,0,14.87,0,9.91,0,19.84,0,29.75,0,2.89-.05,5.87.1,8.75-.07,1.92-.72,4.06-1.31,6.12-1.25,2.06.09,4.17.69,6.12,1.31,3.18.02,6.44,0,9.62,0,8.45,0,16.92,0,25.37,0"/><path class="b" d="M8.08,112.66c3.2-.79,6.44-1.71,9.62-2.55,4.74-.71,9.34,1.41,14,1.9,3.8.52,7.71.03,11.37-1.04,14.76-4.62,18.29-5.19,29.75,6.15,1.38,1.34,2.91,2.85,4.37,4.09.98.76,2.14,1.98,3.5,1.76,5.82,0,11.68,0,17.5,0,8.16,0,16.34,0,24.5,0,3.48,0,7.02,0,10.5,0,1.99-.9,4.02-2.05,6.12-2.68,3.13-1.1,6.54-.43,9.62.51,2.58.76,5.23,1.64,7.87,2.14,2.3.08,4.7.01,7,.03,1.4,0,2.98.01,4.37-.02,1.7-.26,3.54-.59,5.25-.77,3.58-.08,7.02-1.37,10.5-2.02"/><path class="b" d="M8.08,108.66c3.47-.61,6.99-1.48,10.5-1.8,4.72-.01,9.29,1.73,14,1.94,4.43.33,8.84-.7,13.12-1.73,3.5-.63,6.99-1.62,10.5-2.16,8.38-1.38,14.88,4.8,21,9.53,2.08,1.58,4.49,2.93,7,3.68,2.28.25,4.7.05,7,.11,5.23,0,10.51,0,15.75,0,6.99,0,14.01,0,21,0,1.22-.06,2.41-.99,3.5-1.47,1.67-.85,3.5-1.74,5.25-2.4,3.33-1.39,7.07-1.48,10.5-.4,4.84,1.4,9.75,3.16,14.87,2.94,3.52-.07,7.02-.92,10.5-1.38,1.39-.18,2.98-.16,4.37-.37,2.3-.33,4.68-.9,7-1.14"/><path class="b" d="M8.08,105.19c3.43-.64,7-1.02,10.5-.85,4.94.37,9.91,1.29,14.87.83,4.11-.28,8.16-1.36,12.25-1.79,1.7-.17,3.55-.02,5.25-.25,2.89-.35,5.83-1.03,8.75-1.14,9.4-.64,16.44,6.57,24.5,10.14,1.08.47,2.35,1.08,3.5,1.33,2.59,0,5.28,0,7.87,0,6.11,0,12.26,0,18.37,0,2.3,0,4.7,0,7,0,4.63-2.04,9.04-4.8,14-6.01,5.21-1.45,10.01-.09,14.87,1.84,7.26,2.84,12.59,2.76,20.12,1.14,2.27-.48,4.69-.5,7-.53,2.3-.11,4.7-.32,7-.27"/><path class="b" d="M8.08,101.66c1.97-.43,4.1-.68,6.12-.58,2.03.11,4.11.65,6.12.86,3.46.44,7.04.42,10.5-.03,4.37-.52,8.71-1.79,13.12-1.94,2.35-.17,4.68.68,7,.8,2.61.1,5.29-.34,7.87-.65,7.87-1.19,14.15.67,21,4.45,1.74.92,3.55,2.04,5.25,3.03.44.25,1.31.75,1.75.99.77.18,1.84.14,2.62.14,6.11,0,12.26,0,18.37,0,1.7,0,3.55,0,5.25,0,3.2-.57,5.94-2.83,8.75-4.35,8.53-5.31,14.56-5.31,23.62-1.2,3.12,1.42,6.28,3.04,9.62,3.89,5.51,1.6,11.16-.08,16.62-1,1.69-.26,3.55-.12,5.25-.02,2.3.11,4.71.25,7,.56"/><path class="b" d="M8.08,97.72c2.54-.68,5.34-.88,7.87-.08,2.77,1.06,5.78,1.65,8.75,1.61,7.31.09,14.61-3.55,21.87-1.55,4.71,2.08,8.18,1.9,13.12.94,4.87-.94,9.97-1.79,14.87-.61,2.75.64,5.49,1.76,7.87,3.28.79.5,1.85,1.2,2.62,1.72.7.51,1.72,1.11,2.62.95,3.18,0,6.44,0,9.62,0,3.18,0,6.44,0,9.62,0,1.36-.72,2.91-1.5,4.37-1.99,6.47-2.29,11.11-9,18.37-9.2,4.18-.11,7.94,2.22,11.37,4.34,3.47,2,6.88,4.28,10.5,5.99,1.03.5,2.33,1,3.5.87,1.7,0,3.55,0,5.25,0,2.3-.04,4.71.09,7-.07,1.08-.27,2.4-.58,3.5-.78,4.36-.88,8.79.6,13.12.85"/><path class="b" d="M8.08,93.29c6.85-2.11,8.67,1.74,14.87,2.5,5.24.76,10.51-.45,15.75-.55,2.64-.05,5.41.29,7.87,1.29,2.87,1.49,5.46,2.44,8.75,1.89,7.06-1.11,13.63-5.61,21-4.56,4.33.41,7.68,3.42,11.37,5.37,3.18,0,6.44,0,9.62,0,1.1,0,2.4,0,3.5,0,.82,0,1.91.1,2.62-.39,2.03-1.31,4.06-2.89,6.12-4.15,1.7-.96,3.68-1.73,5.25-2.92,5.17-3.76,10.87-8.67,17.5-5.06,3.27,1.69,5.98,4.4,8.75,6.78,2.5,2,5.08,4.17,7.87,5.74,11.66,0,23.34,0,34.99,0"/><path class="b" d="M8.08,88.71c6.68-1.77,8.93,1.98,14.87,3.48,3.68,1.05,7.57,1.41,11.37,1.75,2.6.25,5.26.65,7.87.53,5.82,0,11.68,0,17.5,0,1.29.2,2.49-.69,3.5-1.36,1.39-.89,2.94-1.88,4.37-2.7,3.89-2.27,8.66-4.05,13.12-2.47,2.41.85,4.69,2.27,7,3.33,6.71,3.37,11.86,1.23,17.5-2.96,1.37-.97,2.91-2.08,4.37-2.92,1.35-.77,3.03-1.28,4.37-2.06,2.82-1.54,5.59-3.48,8.75-4.28,6.48-1.71,11.7,3.77,15.75,8.05,2.41,2.61,5.04,5.19,7.87,7.34h37.62"/><path class="b" d="M8.08,84.95c3.76-.65,7.1.09,10.5,1.71,2.84,1.12,5.82,2.07,8.75,2.92,4.03.37,8.19.04,12.25.14,7.28,0,14.59,0,21.87,0,4.54-3.98,8.82-9.05,14.87-10.65,9.02-1.61,13.28,7.13,26.25.07,2.28-1.19,4.58-2.63,7-3.54,1.66-.57,3.57-.77,5.25-1.29,4.67-1.44,9.64-1.97,14,.7,6.22,3.66,10.27,9.98,15.75,14.54,1.67.35,3.55.1,5.25.17,2.89,0,5.86,0,8.75,0,8.45,0,16.92,0,25.37,0"/><path class="b" d="M8.08,81.7c2.59-.16,5.3-.23,7.87.21,2.62.51,5.31,1.13,7.87,1.85,1.42.34,2.92,1.04,4.37,1.21,9.03,0,18.09,0,27.12,0,6.54.07,4.41.36,8.75-4.25,3.52-3.83,7.23-8.06,12.25-9.87,3.09-1.08,6.46-.3,9.62-.03,3.48.38,7.09.3,10.5-.53,4.7-1,9.12-3.59,14-3.7,16.17.74,21.41,8.01,32.37,18.2,1.67.37,3.55.1,5.25.18,3.18,0,6.44,0,9.62,0,8.74,0,17.51,0,26.25,0"/><path class="b" d="M8.08,78.44c5.51-.42,11.14-1.49,16.62-.25,1.43.3,3,.75,4.37,1.25,1.06.44,2.32.92,3.5.79,8.45,0,16.92,0,25.37,0,2.04-1.44,3.52-3.85,5.25-5.64,3.53-3.96,7.28-8.17,12.25-10.31,3.01-1.32,6.43-1.04,9.62-1.46,4.13-.43,8.23-1.39,12.25-2.41,4.52-1.1,9.49-2.37,14-.56,10.78,4.8,19.7,12.88,28.87,20.15,1.94.49,4.13.12,6.12.23,3.18,0,6.44,0,9.62,0,9.32,0,18.67,0,28,0"/><path class="b" d="M8.08,74.57c9.94-2,14.04-5.61,24.5-.87,1.11.5,2.42,1.15,3.5,1.72,2,.12,4.12.03,6.12.06,4.36,0,8.77,0,13.12,0,6.37-5.75,11.63-13.56,20.12-16.35,2.52-.86,5.3-.83,7.87-1.47,8.03-1.77,16.08-7.11,24.5-4.49,3.36,1.11,6.14,3.58,8.75,5.88,3.49,3.16,6.89,6.54,10.5,9.57,1.93,1.63,4.06,3.27,6.12,4.73,1.33.81,2.69,2.33,4.37,2.12,15.45,0,30.92,0,46.37,0"/><path class="b" d="M8.08,69.4c7.68-2.75,13.31-7.29,21.87-4.24,2.73.92,5.35,2.35,7.87,3.71,1.38.63,2.82,1.8,4.37,1.86,3.18-.07,6.45.14,9.62-.1,1.84-1.1,3.62-2.58,5.25-3.97,8.84-7.69,12.46-10.93,24.5-11.8,6.1-1.28,11.39-5.1,17.5-6.37,6.95-1.59,12.1,1.91,16.62,6.82,3.47,3.62,6.81,7.53,10.5,10.93,1.06.98,2.37,2.11,3.5,3,.41.34,1.32,1.01,1.75,1.33.41.11,1.32.19,1.75.15,5.23,0,10.51,0,15.75,0,11.66,0,23.34,0,34.99,0"/><path class="b" d="M8.08,62.55c6.35-3.48,12.62-7.31,20.12-5.03,5.9,1.56,10.73,5.82,16.62,7.34,3.06.8,6.16-.45,8.75-2.03,10.97-7.03,13.48-9.77,27.12-9.37,6.93-.73,12.55-5.64,19.25-7.23,3.88-1.05,8.19-.28,11.37,2.21,4.3,3.36,7.68,7.83,11.37,11.81,1.07,1.17,2.38,2.55,3.5,3.67.93.9,2.03,2.33,3.5,2.05,5.53,0,11.1,0,16.62,0,12.53,0,25.09,0,37.62,0"/><path class="b" d="M8.08,55.1c8.39-5.89,15.11-6.42,24.5-2.41,4.28,1.72,8.47,4.16,13.12,4.68,4.7.44,8.91-2.31,13.12-3.96,4.65-2.04,9.84-2.83,14.87-2.01,2.59.32,5.25,1.01,7.87.94,5.39-.37,10.06-3.54,14.87-5.7,4.62-2.26,10.36-3.56,14.87-.36,5.52,4.01,9.37,9.92,14,14.85,19.53.21,39.08,0,58.62.07"/><path class="b" d="M8.08,48.15c2.86-1.91,6.08-3.81,9.62-3.81,10.47-.26,20.08,6.12,30.62,5.12,2.97-.33,5.88-1.41,8.75-2.2,4.82-1.46,10.02-1.64,14.87-.25,4.92,1.33,9.69,3.57,14.87,2.11,6.01-1.36,11.34-5.09,17.5-5.88,8.96-1.21,13.54,8.18,19.25,13.24h60.37"/><path class="b" d="M8.08,42.36c2.36-1.45,5.04-2.82,7.87-2.84,5.31.33,10.46,2.08,15.75,2.59,6.1.69,12.29-.05,18.37-.6,3.51-.58,6.96-1.77,10.5-2.2,12.65-1.73,18.06,7.29,30.62,5.13,7.16-.96,15.17-4.89,21.87-.43,1.87,1.24,3.66,2.89,5.25,4.47,1.1,1.01,2.19,2.51,3.5,3.26h62.11"/><path class="b" d="M8.08,38.03c6.74-3.87,9.76-1.39,16.62-.43,3.17.47,6.47.43,9.62-.16,4.13-.72,8.1-2.38,12.25-2.97,4.81-.05,9.33-1.87,14-2.79,12.14-2.51,19.29,6.18,30.62,7.89,4.89.9,9.94.48,14.87.92,4.25.26,8.15,2.23,11.37,4.92.43.34,1.32,1.05,1.75,1.4,1.38.29,2.97.1,4.37.15,20.12,0,40.25,0,60.37,0"/><path class="b" d="M8.08,35.02c6.62-3.7,9.02-1.53,15.75-1.13,3.24.19,6.56-.32,9.62-1.38,4.15-1.35,8-3.7,12.25-4.75,1.68-.4,3.56-.23,5.25-.61,4.69-1.01,9.16-3.26,14-3.59,7.92-.73,14.5,4.44,21,8.17,5.64,3.38,11.92,5.59,18.37,6.83,2.32.5,4.75,1.03,7,1.83,1.47.44,2.89,1.48,4.37,1.82,6.99,0,14.01,0,21,0,15.74,0,31.5,0,47.24,0"/><path class="b" d="M8.08,32.23c2.7-1.32,5.69-2.53,8.75-2.35,4.39.25,8.91.07,13.12-1.31,5.42-1.59,10.21-5.01,15.75-6.21,1.99-.35,4.15,0,6.12-.5,5.77-1.27,11.45-4.11,17.5-3.23,6.75.86,12.02,5.61,17.5,9.23,5.88,4.11,12.39,7.31,19.25,9.43,1.07.29,2.4.14,3.5.18,2,0,4.12,0,6.12,0,5.82,0,11.68,0,17.5,0,16.91,0,33.83,0,50.74,0"/><path class="b" d="M8.08,29.29c2.25-.89,4.62-1.77,7-2.23,3.51-.47,7.11-.91,10.5-2.02,6.3-1.82,11.95-5.55,18.37-6.96,1.7-.36,3.54-.28,5.25-.04,1.41.1,2.98-.01,4.37-.21,7.44-1.29,14.58-3.63,21.87-.18,3.78,1.71,7.04,4.48,10.5,6.72,4.72,3.11,9.6,6.28,14.87,8.35,3.48,0,7.02,0,10.5,0,8.16,0,16.34,0,24.5,0,3.77-.07,7.62.15,11.37-.1,1.92-.97,4.03-1.88,6.12-2.38,2.55-.62,5.33-.6,7.87.02,1.44.35,3.01.91,4.37,1.49.75.32,1.79.89,2.62.96,5.23,0,10.51,0,15.75,0"/><path class="b" d="M8.08,26.31c3.17-.99,6.4-2.05,9.62-2.87,2.69-.79,5.35-1.94,7.87-3.14,6.64-3.03,13.37-7.74,21-6.98,2.29.44,4.65,1.04,7,1.05,3.77.13,7.6-.32,11.37-.31,7.01-.1,11.88,1.89,17.5,5.89,4.48,2.84,9.22,5.35,14,7.64.71.46,1.82.38,2.62.37,1.4,0,2.97,0,4.37,0,4.06,0,8.19,0,12.25,0,9.9-.1,19.86.2,29.75-.11,9.76-7.91,14.85-10.41,26.25-3.38,2.26,1.2,4.62,2.54,7,3.49,1.7,0,3.55,0,5.25,0"/><path class="b" d="M8.08,23.22c5.17-1.33,10.38-3.12,14.87-6.06,6.25-3.85,12.45-9.16,20.12-9.39,2.41-.09,4.76.75,7,1.53,1.68.52,3.52.96,5.25,1.28,5.78,1.09,11.78,1.01,17.5,2.48,3.83.85,7.11,3.14,10.5,4.99,2.53,1.32,5.24,2.5,7.87,3.59,1.4.51,2.89,1.38,4.37,1.59,16.33,0,32.67,0,48.99,0,1.35-.67,2.43-2.17,3.5-3.19,2.17-2.26,4.45-4.65,7-6.5,5.32-4,10.48-3.13,15.75.39,4.48,2.72,8.62,6.09,13.12,8.77"/></svg>