<?xml version="1.0" encoding="UTF-8"?><svg id="a" xmlns="http://www.w3.org/2000/svg" width="1920" height="2400" viewBox="0 0 192 240"><defs><style>.b{fill:none;stroke:#fff;stroke-miterlimit:10;stroke-width:.4px;}.c{stroke-width:0px;}</style></defs><rect class="c" x="0" width="192" height="240"/><path class="b" d="M8.11,228.02c2.02.2,4.15.56,6.12,1.04,1.7.42,3.49,1.04,5.25,1.19,3.18.32,6.47.13,9.62.72,3.47.13,7.02.02,10.49.05,13.4-.07,26.83.13,40.23-.07,8.32-5.62,20.21-14.27,30.61-13.35,5.8.73,10.46,4.83,15.74,7.02,5.17,2.47,11.06,2.75,16.62,1.67,6.13-1.19,11.23-4.17,17.49-1.14,1.84.85,3.66,2.1,5.25,3.36,1.11.76,2.16,2.17,3.5,2.5,4.94,0,9.93,0,14.87,0"/><path class="b" d="M8.11,224.86c2.01.41,4.09,1.11,6.12,1.42,2,0,4.12,0,6.12,0,5.23,0,10.51,0,15.74,0,14.86,0,29.74,0,44.6,0,8.59-5.52,19.15-12.12,29.73-11.29,5.07.54,9.41,3.64,13.99,5.64,4.35,2.05,9.17,3.23,13.99,3.01,11.28-.23,15.67-5.47,26.23,2.64h19.24"/><path class="b" d="M8.11,221.52c17.49,0,34.98,0,52.47,0,6.39-.1,12.86.21,19.24-.12,4.91-3.32,10.16-6.3,15.74-8.33,6.93-2.48,15.04-3.76,21.86-.3,4.39,2.06,8.57,4.7,13.12,6.42,6.1,2.44,12.83,2.73,19.24,1.58,1.99-.24,4.14-.3,6.12.02,1.41.21,2.92.88,4.37.74,7.86,0,15.75,0,23.61,0"/><path class="b" d="M8.11,216.78h69.08c6.12-4.32,12.74-8.25,20.11-9.95,3.41-.81,6.99-1.17,10.49-1.12,2.32.05,4.78.1,7,.87,6.01,2.12,11.05,6.29,16.62,9.3.43.24,1.3.7,1.75.9.43,0,1.31,0,1.75,0,1.7,0,3.54,0,5.25,0,4.65,0,9.35,0,13.99,0,9.9,0,19.83,0,29.73,0"/><path class="b" d="M8.11,212.03c5.52,0,11.09,0,16.62,0,2.3-.19,4.67-.79,7-.72,2.03-.04,4.14.36,6.12.72,2.89,0,5.86,0,8.74,0,9.32,0,18.66,0,27.98,0,12.99-10.61,22.06-12.38,38.48-10.85,6.42,1.31,11.47,5.98,16.62,9.74.4.34,1.27.91,1.75,1.11,1.4,0,2.97,0,4.37,0,2.89,0,5.86,0,8.75,0,13.11,0,26.24,0,39.35,0"/><path class="b" d="M8.11,207.28c3.77,0,7.6,0,11.37,0,4.58-1.22,9.19-2.87,13.99-2.88,4.5-.09,8.9,1.26,13.12,2.69,2.25.43,4.71.09,7,.19,4.06,0,8.18,0,12.24,0,1.4,0,2.97,0,4.37,0,.93.19,1.91-.55,2.62-1.06,10.66-8.22,17.71-11.66,31.48-9.68,2.87.41,5.85.53,8.74.73,6.53,1.11,11.63,5.93,16.62,9.95,18.06.19,36.15,0,54.22.07"/><path class="b" d="M8.11,202.53c2.59,0,5.28,0,7.87,0,.79,0,1.84,0,2.62,0,1.15-.17,2.41-.75,3.5-1.14,4.49-1.78,9.12-3.61,13.99-3.85,6.6-.28,13.09,1.64,19.24,3.85,1.38.45,2.94.86,4.37,1.08,1.4.13,2.97.05,4.37.07,2.43-.17,4.84-1.12,7-2.2,3.3-1.67,6.35-3.96,9.62-5.69,7.04-3.84,14.4-3.14,21.86-1.1,3.41.93,6.96,1.53,10.49,1.61,5.61.73,10.37,4.2,14.87,7.37h55.97"/><path class="b" d="M8.11,197.78c4.65,0,9.34,0,13.99,0,1.21,0,2.41-.89,3.5-1.35,1.69-.83,3.52-1.71,5.25-2.46,5.72-2.58,12.17-3.62,18.36-2.45,6.04,1.48,11.95,5.06,18.36,3.62,11.75-2.8,14.49-11.01,28.86-6.31,5.46,1.79,10.71,4.84,16.62,4.71,3.28.26,6.56,1.16,9.62,2.34,1.11.43,2.42.99,3.5,1.48.37.27,1.28.5,1.75.41,18.65,0,37.32,0,55.97,0"/><path class="b" d="M8.11,193.03c4.35,0,8.76,0,13.12,0,2,0,4.12,0,6.12,0,1.13-.55,2.4-1.32,3.5-1.94,6.27-3.53,13.61-7.52,20.99-5.37,4.04,1.19,7.98,3.13,12.24,3.44,12.16.9,16.75-10.69,29.73-5.95,5.71,1.88,10.61,6.02,16.62,7.02,3.48.21,7.04.32,10.49.88,2.92.44,5.9,1.11,8.75,1.9,5.82.05,11.67,0,17.49.02,12.24,0,24.49,0,36.73,0"/><path class="b" d="M8.11,188.29c7.86,0,15.75,0,23.61,0,3.26-1.71,6.27-4.06,9.62-5.63,2.94-1.45,6.31-2.55,9.62-1.97,7.16,1.46,12.61,4.59,20.11,1.75,9.6-3.76,13.07-10.01,24.49-4.92,5.28,2.25,9.88,6.58,15.74,7.21,3.77.15,7.62.29,11.37.75,2.92.35,5.89.9,8.75,1.6,1.41.34,2.98.77,4.37,1.17,1.09.06,2.41.03,3.5.04,14.86,0,29.74,0,44.6,0"/><path class="b" d="M8.11,183.54c9.32-.01,18.66.03,27.98-.01,3.81-2.44,7.68-5.37,12.24-6.14,3.22-.42,6.46.49,9.62.95,7.89,1.48,13.83-1.6,20.11-5.95,6.3-4.59,12.23-5.42,19.24-1.78,3.54,1.73,6.83,4.11,10.49,5.58,2.46,1.06,5.27.85,7.87,1.19,3.84.43,7.69,1.31,11.37,2.49,3.23,1.03,6.46,2.31,9.62,3.53,4.85.37,9.97.03,14.87.14,10.78,0,21.58,0,32.36,0"/><path class="b" d="M8.11,178.79c10.49,0,21,0,31.48,0,2.54-1.34,5.06-3,7.87-3.74,5.44-1.26,11.19.72,16.62-.9,4.58-1.18,8.53-4.04,12.24-6.87,4.45-3.56,9.74-7.22,15.74-6.25,5.76.81,10.45,4.65,15.74,6.74,2.76,1.13,5.92.78,8.75,1.69,4.69,1.29,8.99,3.78,13.12,6.3,1.4.86,2.97,1.83,4.37,2.68.71.42,1.83.34,2.62.33,4.65,0,9.35,0,13.99,0,11.07,0,22.16,0,33.23,0"/><path class="b" d="M8.11,174.04c11.07,0,22.16,0,33.23,0,1.2.15,2.44-.34,3.5-.84,1.36-.54,2.92-1,4.37-1.19,3.76-.43,7.63.1,11.37-.6,9.97-1.58,15.83-10.93,24.49-15.11,8.4-3.97,15.1,1.05,22.74,3.95,2.21.87,4.75.64,7,1.36,6.92,2.26,12.08,7.82,17.49,12.43h51.59"/><path class="b" d="M8.11,169.29c12.24,0,24.49,0,36.73,0,4.94,0,9.93,0,14.87,0,3.12-.42,6.13-1.82,8.74-3.53,9.69-6.6,17.21-18.49,30.61-15.61,4.38.81,8.61,2.75,13.12,2.81,7.78,1.15,13.44,9.36,18.36,14.88.26.46,1.19,1.33,1.75,1.45.42,0,1.33,0,1.75,0,1.4,0,2.97,0,4.37,0,3.77,0,7.6,0,11.37,0,11.36,0,22.74,0,34.11,0"/><path class="b" d="M8.11,164.55c14.28,0,28.57,0,42.85,0,3.77,0,7.6,0,11.37,0,5.26.07,4.55.31,8.74-2.99,7.28-6.13,13.89-14.27,23.61-16.38,4.02-.88,8.21-.36,12.24.14,2.58.44,5.37,0,7.87.86,3.45,1.22,6.28,3.85,8.74,6.48,3.49,3.68,6.3,8.08,9.62,11.9h50.72"/><path class="b" d="M8.11,159.8c13.11,0,26.24,0,39.35,0,4.94,0,9.93,0,14.87,0,2.3,0,4.7,0,7,0,1.34-.42,2.44-1.78,3.5-2.66,10.05-9.75,18.1-18.12,33.23-17.2,3.18.21,6.51-.44,9.62.44,5.89,1.8,10.11,6.78,13.99,11.29,2.34,2.61,4.34,5.82,7,8.12h47.22"/><path class="b" d="M8.11,155.05c13.69,0,27.41,0,41.1,0,5.23,0,10.51,0,15.74,0,1.1,0,2.4,0,3.5,0,.81,0,1.89.09,2.62-.33,1.45-1.32,3-2.87,4.37-4.27,5.61-5.81,12.08-11.47,20.11-13.42,3.98-1,8.17-.99,12.24-1.06,3.18-.04,6.44-.69,9.62-.19,10.12,1.54,15.98,10.99,23.61,16.79,1.28.96,2.89,1.8,4.37,2.42,1.7.12,3.55.03,5.25.06,3.47,0,7.02,0,10.49,0,1.15.1,2.41-.53,3.5-.83,2.26-.73,4.64-1.51,7-1.88,1.69-.3,3.55-.15,5.25-.15,2.3-.02,4.7-.15,7-.07"/><path class="b" d="M8.11,150.3c13.4,0,26.82,0,40.23,0,7.27-.1,14.61.2,21.86-.11,4.43-4.09,8.18-9.03,13.12-12.55,7.12-5.3,14.25-5.56,22.74-5.16,6.17.41,12.21-2.43,18.36-1.19,8.77,1.72,14.57,9.49,22.74,12.61,7.82,3.51,14.63,2.35,22.74,1.19,2.29-.32,4.7-.11,7-.06,2.3-.02,4.7-.24,7-.31"/><path class="b" d="M8.11,145.44c17.47.33,34.99.01,52.47.12,2.3,0,4.7,0,7,0,1.44.25,2.52-1.22,3.5-2.05,5.13-4.83,9.74-10.82,16.62-13.2,6.77-2.58,14.01-.5,20.99-.41,5.76.08,10.92-3.22,16.62-3.66,8.45-.89,15.32,5.05,22.74,8.05,3.34,1.44,6.9,2.55,10.49,3.12,3.74.62,7.59.65,11.37.81,2.31.04,4.69.5,7,.63,2.3.06,4.71-.23,7-.46"/><path class="b" d="M8.11,138.38c5.96-.86,11.72,1.25,17.49,2.41,8.74.06,17.5,0,26.23.02,4.94,0,9.93,0,14.87,0,.54,0,1.35-.42,1.75-.77,1.12-.78,2.42-1.76,3.5-2.6,3.4-2.63,6.67-5.63,10.49-7.62,12.1-6.29,23.03,1.34,33.23-2.33,5.46-2.08,10.63-5.47,16.62-5.77,4.27-.3,8.42,1.21,12.24,2.95,2.82,1.18,5.8,2.21,8.74,3.06,5.45,1.59,11.09,2.58,16.62,3.84,2.32.47,4.66,1.33,7,1.7,2.29.29,4.71.09,7-.16"/><path class="b" d="M8.11,131.19c3.11-.79,6.41-1.36,9.62-.98,6.64.8,12.86,3.56,19.24,5.42,1.07.42,2.37.48,3.5.43,1.71,0,3.54,0,5.25,0,4.65,0,9.34,0,13.99,0,1.4,0,2.97,0,4.37,0,1.43-.55,2.99-1.25,4.37-1.9,4.07-1.9,8.08-4.1,12.24-5.8,4.43-1.75,9.25-2.45,13.99-2.58,4.36-.12,8.77.16,13.12.37,1.7.05,3.55.24,5.25.07,2.1-.26,4.21-1.05,6.12-1.92,6.82-3.19,13.99-7.99,21.86-6.08,3.43,1.05,6.93,2.14,10.49,2.67,5.61.94,11.28,2.01,16.62,4.04,6.05,2.19,8.78,4.71,15.74,3.98"/><path class="b" d="M8.11,124.77c10.08-4.15,15.01-2.26,24.49,1.92,2.85,1.25,5.79,2.55,8.74,3.53,1.95.68,4.04,1.25,6.12,1.08,2.88-.1,5.89.23,8.74-.16,4.95-1.17,9.85-2.72,14.87-3.6,9.64-1.51,19.24-3.36,28.86-5.01,2.87-.43,5.84-.75,8.74-.67,2.01.05,4.11.51,6.12.27,7.92-.89,14.74-6.09,22.74-6.66,2.96-.35,5.84.8,8.74,1.12,3.76.34,7.61-.05,11.37.29,4.61.34,9.09,1.92,13.12,4.16,4.66,2.7,7.34,4.76,13.12,4.58"/><path class="b" d="M8.11,119.66c3.35-1.42,6.81-3.08,10.49-3.29,9.69-.12,17.74,6.7,27.11,8.24,3.81.84,7.69-.07,11.37-1.09,3.13-.84,6.38-1.6,9.62-1.79,4.08-.3,8.18.4,12.24.66,4.45.26,8.92-.68,13.12-2.09,5.98-1.87,11.92-5.21,18.36-4.56,4.3.94,8.78.92,13.12.2,4.93-.74,9.85-2.11,14.87-2.16,2.33-.12,4.69.62,7,.74,4.98,0,9.86-1.9,14.87-1.39,4.46.34,8.61,2.45,12.24,4.95,3.44,2.64,6.89,4.55,11.37,4.58"/><path class="b" d="M8.11,115.94c3.88-1.65,7.94-3.45,12.24-3.38,10.44.09,20.09,6.36,30.61,5.49,5.27-.86,10.34-3.1,15.74-3.1,3.82-.11,7.62.77,11.37,1.41,8.08,1.63,15.56-2.65,22.74-5.7,7.76-3.21,9.05-1.74,16.62-.6,5.49.76,11.09.57,16.62.52,2.3,0,4.71.06,7,.35,1.7.24,3.52.67,5.25.5,4.68-.42,9.24-2.28,13.99-1.93,4.49.24,8.64,2.42,12.24,4.98,3.43,2.71,6.83,4.71,11.37,4.67"/><path class="b" d="M8.11,112.12c3.72-1,7.51-2.09,11.37-2.32,9.98-.66,19.85,1.64,29.73,2.6,6.2.09,12.16-2.42,18.36-2.44,4.68-.24,9.33.88,13.99.98,8.93-.32,15.96-7.01,24.49-8.85,2.61-.62,5.32-.07,7.87.57,2.57.55,5.26,1.02,7.87,1.38,7.57,1.02,15.26,1.31,22.74,2.92,6.4.53,12.87-1.82,19.24-.21,4.09.89,7.87,2.96,11.37,5.21,2.6,1.57,5.73,2.26,8.75,2.32"/><path class="b" d="M8.11,107.27c10.5-.24,20.96-2.31,31.48-1.64,4.72.13,9.28,1.78,13.99,1.91,7.01.12,13.98-1.21,20.99-1.36,3.19-.18,6.52.28,9.62-.69,8.39-2.44,15.4-9.45,24.49-9.44,3.22.22,6.4,1.31,9.62,1.63,5.51.77,11.12,1.16,16.62,2.07,3.84.53,7.58,1.76,11.37,2.52,3.15.55,6.43.68,9.62.79,4.68.15,9.44.37,13.99,1.55,2.37.54,4.68,1.67,7,2.38,2.24.62,4.68.86,7,1.01"/><path class="b" d="M8.11,101.56c10.24,2.18,15.59-.05,25.36-1.46,4.35-.57,8.89-.51,13.12.74,12.03,4.42,17.46,3.97,29.73,1.38,2.3-.45,4.78-.43,7-1.24,6.86-2.46,12.79-7.42,20.11-8.65,1.98-.34,4.13-.38,6.12-.09,2.29.42,4.66,1.03,7,1.13,6.69.41,13.5-.24,20.11,1.14,5.98,1.1,11.49,4.05,17.49,5.09,5.48,1.11,11.09.31,16.62.16,2.02-.07,4.12.34,6.12.54,2.29.2,4.7.22,7,.41"/><path class="b" d="M8.11,95.71c11.66,4.08,15.23.81,26.23-1.56,4.34-.88,9-.77,13.12.97,9.41,4.5,14.73,7.7,25.36,4,1.7-.54,3.52-1.18,5.25-1.63,2.04-.44,4.21-.87,6.12-1.75,6.16-2.76,12.25-6.62,19.24-6.46,3.56-.09,7,1.15,10.49,1.58,3.51.27,7.05-.45,10.49-1,23.11-4.53,24.12,11.94,43.72,5.15,2.52-.83,5.2-1.56,7.87-1.63,2.58-.24,5.27-.55,7.87-.4"/><path class="b" d="M8.11,91.02c3.4,1.04,6.89,2.44,10.49,2.35,7.9-.54,14.7-6.12,22.74-5.94,5.96-.06,10.59,4.19,15.74,6.55,3.23,1.54,6.94,2.29,10.49,1.62,3.64-.62,7.01-2.37,10.49-3.51,4.85-1,9.28-3.38,13.99-4.82,3.66-1.11,7.62-1.29,11.37-.52,2.93.55,5.83,1.6,8.75,2.22,6.05.86,11.68-2.43,17.49-3.54,15.89-3.69,20.23,10.12,33.23,6.46,3.34-.97,6.39-2.87,9.62-4.13,1.35-.53,2.97-.78,4.37-1.11,2.27-.51,4.66-1.01,7-1.06"/><path class="b" d="M8.11,88.62c3.73.71,7.53,2.19,11.37,1.74,9.3-1.54,17.15-10.72,27.11-8.01,5.37,1.79,9.99,5.77,15.74,6.49,4.85.76,9.53-1.23,13.99-2.85,1.65-.62,3.52-.95,5.25-1.3,2.31-.54,4.68-1.27,7-1.77,4.31-1,8.88-.87,13.12.37,3.22.88,6.37,2.25,9.62,3,6.43,1.23,12.31-2.83,18.36-4.33,15.79-4.67,20.16,8.59,33.23,4.63,3.32-1.03,6.37-2.93,9.62-4.15,1.35-.51,2.98-.72,4.37-1.07,2.28-.56,4.66-1.22,7-1.51"/><path class="b" d="M8.11,86.13c3.77.03,7.61.92,11.37.49,9.3-1.63,17.23-9.57,27.11-8.01,5.26,1.12,10.26,3.74,15.74,3.78,5.11.21,9.96-1.75,14.87-2.85,6.35-.92,12.99-1.01,19.24.59,6.87,1.55,13.86,6.01,20.99,3.32,9.85-3.64,16.87-8.68,27.98-5.44,4.81,1.46,9.76,3.24,14.87,2.69,3.87-.31,7.59-1.74,11.37-2.55,1.67-.39,3.55-.33,5.25-.52,2.31-.28,4.7-.81,7-1.17"/><path class="b" d="M8.11,83.6c4.63-.61,9.42-.12,13.99-1.17,6.74-1.56,13.18-4.53,20.11-5.26,3.18-.41,6.44-.05,9.62.21,3.47.26,7.03.26,10.49-.11,4.09-.41,8.17-1.37,12.24-1.89,7.89-1.16,15.43,2.24,22.74,4.71,6.4,2.25,13.71,4.05,20.11.87,13.62-6.59,17.47-8.94,33.23-7.77,6.39.48,12.84.07,19.24.29,2.33.05,4.7.68,7,.99,2.29.23,4.71.08,7-.15"/><path class="b" d="M8.11,79.08c6.11,0,12.26.01,18.36,0,3.18-.46,6.43-.93,9.62-1.32,4.64-.6,9.36-.92,13.99-1.54,3.51-.54,7.02-1.44,10.49-2.19,7.72-1.72,16.23-2.63,23.61.81,2.04.92,4.12,2.04,6.12,3.04.77.38,1.82.91,2.62,1.21.44,0,1.31,0,1.75,0,4.94,0,9.93,0,14.87,0,2.29-.09,4.73.2,7-.16,1.1-.55,2.41-1.24,3.5-1.83,3.92-2.13,7.97-4.22,12.24-5.54,3.69-1.19,7.6-1.78,11.37-2.65,5.72-1.41,11.54-3.18,17.49-2.71,3.6.24,7.18,1.25,10.49,2.65,1.72.7,3.5,1.69,5.25,2.32,2.21.79,4.65,1.19,7,1.22"/><path class="b" d="M8.11,74.33c10.19,0,20.41,0,30.61,0,4.35,0,8.76,0,13.12,0,2.12.04,4.11-1.33,6.12-1.88,4.44-1.61,9.28-2.45,13.99-1.71,3.92.62,7.82,1.82,11.37,3.59,4.35,0,8.76,0,13.12,0,7.86,0,15.75,0,23.61,0,3.18-1.42,6.29-3.22,9.62-4.29,4.87-1.77,10.16-2.44,14.87-4.67,8.61-4.51,14.92-8.76,24.49-3.2,4.83,2.75,9.12,6.95,14.87,7.64"/><path class="b" d="M8.11,69.58c11.36,0,22.74,0,34.1,0,5.52,0,11.09,0,16.62,0,2-.36,4.07-1.02,6.12-1.07,1.71-.09,3.57.06,5.25.4,1.11.17,2.36.75,3.5.67,5.52,0,11.09,0,16.62,0,10.78,0,21.58,0,32.36,0,.78,0,1.86.04,2.62-.13,1.67-.67,3.52-1.28,5.25-1.77,3.47-.99,7.12-1.62,10.49-2.93,5.48-2.13,9.5-6.86,14.87-9.21,12-5.34,17.66,8.13,27.98,10.3"/><path class="b" d="M8.11,64.84c34.69,0,69.38,0,104.06,0,5.23,0,10.51,0,15.74,0,2.66.12,5.27-.13,7.87-.72,3.36-.6,6.81-1.58,9.62-3.59,8.33-6.05,15.39-14.77,26.23-7.67,3.86,2.59,7.55,5.84,12.24,6.79"/><path class="b" d="M8.11,60.09c36.43,0,72.88,0,109.31,0,6.4,0,12.84,0,19.24,0,5.72-.13,9.65-2.26,13.99-5.8,6.07-4.8,13.7-11.4,21.86-7.61,3.69,1.91,7.26,4.31,11.37,5.24"/><path class="b" d="M8.11,55.34c37.31,0,74.62,0,111.93,0,1.09,0,2.4,0,3.5,0,1.41-.16,2.95-.61,4.37-.77,2.87-.4,5.86-.37,8.75-.25,9.3.77,12.77-1.9,20.11-7.01,4.86-3.26,10.4-7.67,16.62-6.2,3.46,1.23,6.92,2.7,10.49,3.57"/><path class="b" d="M8.11,50.59c34.98,0,69.96,0,104.94,0,1.1-.02,2.41.08,3.5-.12.78-.27,1.85-.67,2.62-.96,2.54-.96,5.2-1.92,7.87-2.47,12.19-2.59,17.41,4.74,29.73-2.19,5.32-2.63,10.48-7.65,16.62-7.79,3.5.46,7.03,1.32,10.49,2.01"/><path class="b" d="M8.11,45.84c18.36,0,36.73,0,55.09,0,8.15,0,16.33,0,24.49,0,1.1-.03,2.42.12,3.5-.18,1.89-.96,4.03-1.72,6.12-2.07,3.76-.67,7.62.02,11.37.42,5.98.92,11.2-2.8,16.62-4.68,5.04-1.96,10.7-1.91,15.74.02,3.13,1.14,6.28,2.58,9.62,2.97,4.25.59,8.51-.79,12.24-2.74,3.4-1.66,6.69-3.99,10.49-4.58,3.47-.11,7.04.09,10.49.44"/><path class="b" d="M8.11,41.1c21.86,0,43.73,0,65.59,0,3.48,0,7.02,0,10.49,0,2.05-1.22,3.97-2.93,6.12-4,4.96-2.84,10.38-2.52,15.74-1.18,4.14,1.02,7.47.99,11.37-.92,7.58-3.66,14.22-7.72,22.74-3.83,5.24,2.33,9.87,6.44,15.74,7.12,5.57.77,10.62-2.25,15.74-3.9,1.65-.54,3.53-.58,5.25-.7,2.29-.18,4.69-.4,7-.41"/><path class="b" d="M8.11,36.35c21.28,0,42.56,0,63.84,0,9.44-.09,5.62,1.05,13.12-4.29,4.27-3.07,9.59-4.93,14.87-3.92,3.79.56,7.49,2.18,11.37,2.11,3.42-.18,6.58-1.88,9.62-3.31,6.17-3.15,12.67-5.1,19.24-1.79,4.64,2.24,8.49,5.91,13.12,8.18,6.32,3.32,11.85,2.02,18.36.27,1.67-.42,3.54-.54,5.25-.74,2.3-.29,4.69-.68,7-.93"/><path class="b" d="M8.11,31.6c21.86,0,43.73,0,65.59,0,1.36.23,2.49-.99,3.5-1.71,1.08-.82,2.38-1.77,3.5-2.52,4.14-2.87,8.84-5.47,13.99-5.56,4.78-.18,9.32,1.77,13.99,2.42,10.25,1,18.25-9.13,30.61-4.25,6.64,2.77,11.63,8.51,18.36,11.13,1.31.66,2.96.5,4.37.51,1.7,0,3.55,0,5.25,0,2.59-.05,5.29.1,7.87-.08,2.89-.36,5.85-.84,8.75-1.2"/><path class="b" d="M8.11,26.85c19.23,0,38.48,0,57.72,0,6.78-.03,4.93.69,10.49-3.17,5.25-3.48,11.11-6.66,17.49-7.16,5.58-.54,11.05,1.44,16.62,1.31,4.75-.35,9.34-1.98,13.99-2.91,10.74-2.32,16.77.31,25.36,6.53,1.95,1.33,4.05,2.7,6.12,3.83,1.06.56,2.33,1.27,3.5,1.57.41,0,1.33,0,1.75,0,7.57,0,15.17,0,22.74,0"/><path class="b" d="M8.11,22.1c17.78,0,35.57,0,53.34,0,2.88-.1,5.89.22,8.75-.16,1.42-.79,2.97-1.73,4.37-2.55,2.99-1.88,6.34-3.23,9.62-4.51,5.54-2.29,11.48-3.7,17.49-3.87,12.8.17,25.93-4.47,38.48-.31,5.34,1.9,9.94,5.42,14.87,8.13,2.22,1.22,4.58,2.49,7,3.26,2,0,4.12,0,6.12,0,5.23,0,10.51,0,15.74,0"/></svg>