<?xml version="1.0" encoding="UTF-8"?><svg id="a" xmlns="http://www.w3.org/2000/svg" width="1920" height="2400" viewBox="0 0 192 240"><defs><style>.b{fill:none;stroke:#fff;stroke-miterlimit:10;stroke-width:.4px;}.c{stroke-width:0px;}</style></defs><rect class="c" width="192" height="240"/><path class="b" d="M8.58,230.53c6.95,0,13.93,0,20.88,0,2.58-1.12,5.13-2.55,7.83-3.39,3.06-1.03,6.34-1.57,9.57-1.56,8.66.41,14.28.67,22.62-2.5,7.16-2.66,11.33-4.57,19.14-2.7,7.61,1.76,15.3,3.48,22.62-.35,2.74-1.39,5.21-3.42,7.83-5,8.32-5.42,14.19-1.14,20.01,5.33,2.76,3.02,5.41,6.35,8.7,8.83.39.32,1.32.93,1.74,1.22.75.18,1.84.14,2.61.14,10.43,0,20.89,0,31.32,0"/><path class="b" d="M8.58,225.81c7.82,0,15.67,0,23.49,0,3.31-1.41,6.84-2.55,10.44-2.91,3.16-.4,6.4.04,9.57.01,8.11.11,15.01-4.56,21.75-8.46,11.83-7.57,22.54,3.88,34.8.57,4.92-1.36,8.89-5.14,13.92-6.21,11.42-2.08,16.87,11.15,25.23,16.27,1.45,1.14,3.51.63,5.22.73,2.58,0,5.25,0,7.83,0,7.53,0,15.09,0,22.62,0"/><path class="b" d="M8.58,221.09c8.11,0,16.25,0,24.36,0,1.16.06,2.37-.68,3.48-.96,1.95-.61,4.06-1.06,6.09-1.24,2.89-.32,5.83.16,8.7.39,3.56.26,7.22-.42,10.44-1.98,12.52-6.28,15.16-16.21,31.32-10.28,5.06,1.69,10.18,4.37,15.66,3.86,3.31-.44,6.33-2.23,9.57-2.96,9.95-2.89,17.26,4.07,24.36,9.9,1.78,1.39,3.87,2.75,6.09,3.27,3.75,0,7.56,0,11.31,0,7.82,0,15.67,0,23.49,0"/><path class="b" d="M8.58,216.36c7.24,0,14.51,0,21.75,0,1.19.14,2.41-.48,3.48-.91,1.66-.66,3.48-1.26,5.22-1.65,3.41-.79,7.04-.73,10.44.09,12.69,3.32,17.86-3.88,26.97-10.73,4.19-3.08,9.84-3.75,14.79-2.39,4.25,1.11,8.13,3.37,12.18,5.01,5.49,2.24,6.83,1.17,12.18.45,3.77-.39,7.65-.02,11.31.97,3.91,1.04,7.68,2.73,11.31,4.49,2.81,1.3,5.58,3.07,8.7,3.48,4.89.66,9.88-.35,14.79,0,2.62.09,5.26.72,7.83,1.19,4.62,0,9.3,0,13.92,0"/><path class="b" d="M8.58,211c1.87.98,4.06.57,6.09.64,3.17,0,6.4,0,9.57,0,1.85.22,3.56-.85,5.22-1.5,2.25-.95,4.61-1.93,6.96-2.62,3.63-1.09,7.6-1.43,11.31-.49,2.92.74,5.74,2.1,8.7,2.68,8.06,1.9,14.26-4.65,20.01-9.2,5.71-4.36,13.26-6.12,20.01-3.16,4.66,1.73,8.84,5.19,13.92,5.59,2.29-.14,4.69-.16,6.96.27,4.08.7,8.12,1.89,12.18,2.71,3.72.79,7.55,1.29,11.31,1.83,3.49.8,6.96.4,10.44-.26,3.43-.58,7.03-.8,10.44,0,3.66.81,7.04,2.63,10.44,4.14,3.75,0,7.56,0,11.31,0"/><path class="b" d="M8.58,200.96c2.83,1.15,5.7,2.48,8.7,3.12,6.31,1.07,12.23-2.34,18.27-3.59,4.28-1.02,8.89-1.04,13.05.49,2.98,1.12,5.72,2.98,8.7,4.1,7.25,3.02,12.95-1.53,18.27-5.97,2.09-1.78,4.52-3.3,6.96-4.55,2.17-1.16,4.53-2.25,6.96-2.74,4.51-1,9.06.63,13.05,2.64,2.23,1.07,4.54,2.3,6.96,2.86,1.07.25,2.39.2,3.48.33,1.73.22,3.56.74,5.22,1.27,4.49,1.48,9.14,2.95,13.92,2.88,2.89,0,5.84-.46,8.7-.8,3.25-.13,6.45-1.01,9.57-1.88,4.01-1.11,8.41-.94,12.18.89,2.42,1.11,4.74,2.67,6.96,4.13,1.63.99,3.34,2.33,5.22,2.78,2.87,0,5.83,0,8.7,0"/><path class="b" d="M8.58,192.03c2.88,1.07,5.75,2.44,8.7,3.31,6.29,1.67,12.77-.51,19.14-.49,4.13-.08,8.32.67,12.18,2.15,3.31,1.34,6.24,3.62,9.57,4.9,1.04.46,2.38.23,3.48.28,1.69-.04,3.53.1,5.22-.09,3.97-1.54,7.13-4.61,10.44-7.18,1.87-1.49,4.09-2.72,6.09-4.02,4.1-2.66,8.91-4.95,13.92-4.14,3.94.53,7.53,2.53,11.31,3.64,1.95.58,4.14.46,6.09,1.06,4.06,1.15,7.98,3.03,12.18,3.69,6.15,1.07,12.28-.91,18.27-2.1,3.39-.99,6.85-2.33,10.44-2.12,6.53.35,11.36,5.38,16.53,8.78,1.59.98,3.43,1.94,5.22,2.49,1.99,0,4.1,0,6.09,0"/><path class="b" d="M8.58,185.42c4.12.78,8.07,2.47,12.18,3.29,5.8,1.11,11.73,1.81,17.4,3.5,4.95,1.56,10.05,2.95,14.79,5.11,2.55.34,5.25.06,7.83.15,2.87-.05,5.83.1,8.7-.07,1.46-.87,3-2,4.35-3.05,2.97-2.48,6.26-4.64,9.57-6.63,2.98-1.88,6.14-3.74,9.57-4.63,4.91-1.4,9.97-.02,14.79,1.07,1.96.48,4.11.35,6.09.7,2.34.44,4.7,1.28,6.96,2,3.9,1.3,8.04,2.24,12.18,2,5.3-.37,10.53-1.7,15.66-2.99,4.06-1.07,8.5-.7,12.18,1.37,5.57,2.83,9.64,8.27,15.66,10.23,2.28,0,4.68,0,6.96,0"/><path class="b" d="M8.58,181.84c7.56.04,14.9,2.68,21.75,5.7,2.61,1.19,5.26,2.55,7.83,3.82.78.38,1.82.89,2.61,1.25,1.08.21,2.38.1,3.48.13,8.11,0,16.25,0,24.36,0,.78,0,1.83.03,2.61-.08.45-.29,1.3-.87,1.74-1.17,1.98-1.36,4.03-2.88,6.09-4.12,11.65-6.68,16.01-8.41,29.58-7.63,1.99.03,4.1-.27,6.09,0,3.22.4,6.41,1.38,9.57,2.12,9.03,2.35,15.5.99,24.36-.67,4.21-.67,8.58.34,12.18,2.59,2.76,1.65,5.31,3.8,7.83,5.79,1.05.84,2.35,1.8,3.48,2.53,0,0,.87.52.87.52l.87.09c3.16,0,6.4,0,9.57,0"/><path class="b" d="M8.58,181.25c7.76-1.11,14.3,1.06,20.88,5.03.79.46,1.83,1.1,2.61,1.57,2.25.4,4.68.08,6.96.18,11.01,0,22.04,0,33.06,0,.56.11,1.3-.16,1.74-.49.78-.47,1.83-1.1,2.61-1.55,1.93-1.14,4.04-2.21,6.09-3.11,6.06-2.7,12.59-4.27,19.14-5.26,3.76-.54,7.56-1.21,11.31-1.81,5.58-.53,11.08,1.13,16.53,2.06,4.86.9,9.9,1.21,14.79.37,7.97-1.46,13.57.24,20.01,5.05,1.4,1.02,2.95,2.2,4.35,3.22.71.52,1.72,1.34,2.61,1.52,4.04,0,8.14,0,12.18,0"/><path class="b" d="M8.58,182.54c2.87-.2,5.83-.54,8.7-.27,2.33.17,4.59,1.27,6.96,1.03,9.27,0,18.57,0,27.84,0,5.5,0,11.03,0,16.53,0,2.29,0,4.67,0,6.96,0,1.72-.73,3.5-1.71,5.22-2.44,6.95-2.79,14.61-3.16,21.75-5.33,9.49-2.73,13.14-4.97,23.49-2.88,4.61.86,9.21,2.24,13.92,2.49,3.46.16,6.97-.6,10.44-.38,3.64.16,7.24,1.31,10.44,3.02,2.99,1.57,5.83,3.59,8.7,5.37,4.54.37,9.34.03,13.92.14"/><path class="b" d="M8.58,178.58c15.65,0,31.32,0,46.97,0,6.08,0,12.19,0,18.27,0,1.4,0,2.95,0,4.35,0,.86-.08,1.84-.68,2.61-1.02,1.06-.46,2.36-.9,3.48-1.19,6.08-1.42,12.42-2,18.27-4.33,7.2-2.73,12.8-6,20.88-4.84,5.33.62,10.39,2.69,15.66,3.6,4.01.71,8.14-.12,12.18.2,3.6.21,7.18,1.22,10.44,2.73,2.95,1.34,5.82,3.07,8.7,4.55,1.6.6,3.53.18,5.22.3,2.58,0,5.25,0,7.83,0"/><path class="b" d="M8.58,173.85c15.94,0,31.9,0,47.84,0,5.2,0,10.45,0,15.66,0,2.58-.02,5.25.05,7.83-.04,1.05-.6,2.35-1.22,3.48-1.66,5.73-2.13,11.81-3.38,17.4-5.91,6.38-2.72,12.8-6.62,20.01-5.72,6.96.58,13.19,4.26,20.01,5.49,3.43.52,6.99.11,10.44.28,3.85.12,7.72.93,11.31,2.32,4.37,1.65,8.52,4.03,13.05,5.24,2.58,0,5.25,0,7.83,0"/><path class="b" d="M8.58,169.13c18.26,0,36.54,0,54.8,0,5.2,0,10.45,0,15.66,0,.88-.14,1.84-.83,2.61-1.23,1.07-.58,2.37-1.22,3.48-1.73,5.22-2.35,10.53-4.63,15.66-7.19,7.55-3.71,13.32-6.47,21.75-3.3,6.83,2.33,12.84,6.96,20.01,8.32,4.3.65,8.72.54,13.05.94,6.48.45,12.76,2.36,19.14,3.41.78.17,1.83.6,2.61.8,1.99,0,4.1,0,6.09,0"/><path class="b" d="M8.58,164.41c15.65,0,31.32,0,46.97,0,7.53-.06,15.1.13,22.62-.08,3.64-2.28,7.54-4.24,11.31-6.29,3.73-1.98,7.49-4.04,11.31-5.84,3.29-1.52,6.79-2.94,10.44-3.2,10.04-.38,19.37,9.44,28.71,12.8,3.62,1.32,7.52,1.99,11.31,2.6,3.16,0,6.4,0,9.57,0,7.53,0,15.09,0,22.62,0"/><path class="b" d="M8.58,159.69c15.07,0,30.16,0,45.23,0,7.24,0,14.51,0,21.75,0,1.23-.4,2.35-1.51,3.48-2.1,2.28-1.22,4.69-2.45,6.96-3.7,7.14-3.71,14.36-8.44,22.62-8.88,5.43-.22,10.3,2.77,14.79,5.48,4.54,2.81,9.06,5.79,13.92,8.03.76.35,1.83.81,2.61,1.13,1.69.11,3.53.03,5.22.05,3.16,0,6.4,0,9.57,0,9.56,0,19.15,0,28.71,0"/><path class="b" d="M8.58,154.96c21.74-.02,43.5.03,65.24-.02,1.57-1.41,3.34-2.86,5.22-3.84,2.59-1.15,5.27-2.31,7.83-3.52,6.51-2.99,13.54-6.12,20.88-5.27,7.35.98,13.41,5.82,20.01,8.84,1.95.95,4.06,1.88,6.09,2.67,1.36.49,2.86,1.27,4.35,1.13,15.07,0,30.16,0,45.23,0"/><path class="b" d="M8.58,150.24c19.71,0,39.44,0,59.15,0,1.09,0,2.39,0,3.48,0,2.14-1.26,3.88-3.38,6.09-4.58,2.66-1.53,5.83-2.1,8.7-3.14,7.8-2.63,16.49-3.94,24.36-.83,4.39,1.69,8.6,3.97,13.05,5.5,4.2,1.52,8.66,2.31,13.05,3.03,15.65.07,31.32,0,46.97.02"/><path class="b" d="M8.58,145.26c1.63.51,3.53.15,5.22.25,3.17,0,6.4,0,9.57,0,8.98,0,17.99,0,26.97,0,3.75,0,7.56,0,11.31,0,1.4,0,2.95,0,4.35,0,.45,0,1.3,0,1.74,0,.52-.14,1.36-.71,1.74-1.08,2.94-2.33,5.96-4.92,9.57-6.13,7.65-1.9,15.78-2.58,23.49-.64,7.65,1.82,14.63,6.17,22.62,6.63,4.32.42,8.72-.04,13.05.18,1.41.08,2.98.3,4.35.66,1.03.43,2.38.39,3.48.38,12.46,0,24.94,0,37.41,0"/><path class="b" d="M8.58,139.76c.8.26,1.83.64,2.61.92.79.15,1.82.11,2.61.11,2.58,0,5.25,0,7.83,0,7.24,0,14.51,0,21.75,0,4.33,0,8.72,0,13.05,0,1.4,0,2.95,0,4.35,0,.83,0,1.9.1,2.61-.4,3.75-2.28,7.37-4.95,11.31-6.9,6.73-3.33,14.75-2.35,21.75-.41,7.06,1.89,13.6,5.68,20.88,6.75,6.08.89,12.21-.38,18.27-.85,2.58-.17,5.31-.14,7.83.53,1.42.42,2.79,1.51,4.35,1.27,11.88,0,23.78,0,35.67,0"/><path class="b" d="M8.58,135.33c.79.19,1.82.47,2.61.67,1.1.11,2.38.05,3.48.06,2.29,0,4.67,0,6.96,0,6.95,0,13.93,0,20.88,0,4.33,0,8.72,0,13.05,0,.87-.01,1.85-.61,2.61-.97,1.1-.54,2.39-1.21,3.48-1.76,3.11-1.58,6.3-3.18,9.57-4.42,6.71-2.63,13.16-3.2,20.01-.67,6.24,2.11,11.98,5.58,18.27,7.58,1.34.46,2.96.17,4.35.25,1.99,0,4.1,0,6.09,0,4.34,0,8.73.13,13.05-.42,2.57-.2,5.26-.25,7.83-.03,1.7.15,3.51.56,5.22.45,12.46,0,24.94,0,37.41,0"/><path class="b" d="M8.58,131.18c4.89.41,9.88.05,14.79.16,8.69,0,17.41,0,26.1,0,.78,0,1.83,0,2.61,0,1.49-.5,2.94-1.57,4.35-2.26,3.02-1.62,6.25-3.06,9.57-3.94,3.67-1,7.53-1.27,11.31-1.46,3.19-.31,6.5-.38,9.57.68,4.91,1.53,9.37,4.28,13.92,6.62,1,.59,2.37.31,3.48.36,1.99,0,4.1,0,6.09,0,5.49,0,11.03,0,16.53,0,18.84,0,37.7,0,56.54,0"/><path class="b" d="M8.58,126.46c14.2.37,28.42.08,42.62.17,8.38-5.75,13.52-6.79,23.49-5.05,2.28.4,4.66.32,6.96.32,3.7.26,7.21,1.86,10.44,3.58.77.39,1.73,1.07,2.61,1.15,1.99,0,4.1,0,6.09,0,4.62,0,9.3,0,13.92,0,22.9,0,45.82,0,68.72,0"/><path class="b" d="M8.58,120.38c2.86-.27,5.85-.48,8.7.02,1.48.25,2.94,1.07,4.35,1.5.44,0,1.3,0,1.74,0,9.27-.02,18.57.05,27.84-.03,5.21-3.87,11.08-5.37,17.4-3.57,3.17.78,6.31,2.07,9.57,2.43,1.4.12,2.96-.05,4.35.18,1.44.15,2.92.81,4.35.99,6.66,0,13.35,0,20.01,0,16.23,0,32.48,0,48.71,0,9.27-.07,18.57.16,27.84-.14"/><path class="b" d="M8.58,115.25c2.87-.14,5.86-.19,8.7.36,1.49.27,2.91,1.16,4.35,1.56,1.1,0,2.38,0,3.48,0,9.56,0,19.15,0,28.71,0,1.18.14,2.41-.27,3.48-.69,1.65-.51,3.49-.82,5.22-.87,2.31-.07,4.71.29,6.96.77,1.69.34,3.48.93,5.22.79,13.33,0,26.68,0,40.02,0,14.2,0,28.42,0,42.62,0,5.2,0,10.45,0,15.66,0,1.99-.01,4.1.03,6.09-.03,1.38-.18,2.96-.31,4.35-.37"/><path class="b" d="M8.58,111.48c2.29.27,4.68.58,6.96.97,1.99.01,4.1,0,6.09,0,6.37,0,12.77,0,19.14,0,12.17,0,24.36,0,36.54,0,2.59.08,5.25-.1,7.83-.24,1.4-.01,2.95.3,4.35.24,19.42,0,38.86,0,58.28,0,6.66,0,13.35,0,20.01,0,2.58-.01,5.25.02,7.83-.02,2.57-.28,5.25-.48,7.83-.74"/><path class="b" d="M8.58,107.73c16.52,0,33.06,0,49.58,0,6.08-.02,12.19.03,18.27-.02,3.98-1.36,7.9-3.44,12.18-3.58,2.4-.08,4.85.61,6.96,1.74,1.14.51,2.24,1.63,3.48,1.87,9.27,0,18.57,0,27.84,0,13.04,0,26.1,0,39.15,0,2.06.06,4.02-1.19,6.09-1.28,1.69-.18,3.53.11,5.22.15,1.99.07,4.11.02,6.09-.19"/><path class="b" d="M8.58,103.01c15.65,0,31.32,0,46.97,0,4.04,0,8.14,0,12.18,0,1.4,0,2.95,0,4.35,0,.84.02,1.92.11,2.61-.49,2.25-1.38,4.66-2.71,6.96-4,1.92-1.11,3.97-2.3,6.09-2.98,4.42-1.59,8.95.5,12.18,3.55.81.72,1.86,1.77,2.61,2.56.34.46,1.17,1.21,1.74,1.35,2.87,0,5.83,0,8.7,0,12.46,0,24.94,0,37.41,0,2.87-.05,5.84.11,8.7-.08,1.37-.66,2.93-1.36,4.35-1.91,9.23-3.67,11.43.4,20.01.17"/><path class="b" d="M8.58,98.28c17.1,0,34.22,0,51.32,0,3.46,0,6.98,0,10.44,0,.78,0,1.85.05,2.61-.15,1.1-.75,2.4-1.67,3.48-2.44,2.58-1.82,5.3-3.62,7.83-5.49,4.48-3.32,9.19-4.62,13.92-.89,1.91,1.45,3.68,3.37,5.22,5.2,1.1,1.16,2.06,2.98,3.48,3.77,11.88,0,23.78,0,35.67,0,2.28-.04,4.68.1,6.96-.08,1.7-.67,3.53-1.44,5.22-2.14,5.69-2.37,12.14-4.7,18.27-2.62,3.37,1.34,6.8,2.84,10.44,3.24"/><path class="b" d="M8.58,93.56c19.71,0,39.44,0,59.15,0,1.4,0,2.95,0,4.35,0,2.15-.95,4.13-2.51,6.09-3.79,4.89-2.96,9.38-8.67,15.66-7.75,5.83,1.36,9.35,6.93,13.05,11.19.72.44,1.81.36,2.61.35,1.39,0,2.96,0,4.35,0,4.04,0,8.14,0,12.18,0,2.87,0,5.83,0,8.7,0,1.09,0,2.39,0,3.48,0,.79-.23,1.83-.73,2.61-1,1.35-.48,2.96-.6,4.35-.9,1.71-.35,3.54-.84,5.22-1.3,5.63-1.57,11.49-3.37,17.4-2.54,3.76.42,7.09,2.41,10.44,4.01,1.65.64,3.41,1.78,5.22,1.74"/><path class="b" d="M8.58,87.34c2.01.07,4.12.32,6.09.71,1.1.21,2.37.6,3.48.79.78,0,1.83,0,2.61,0,12.75,0,25.52,0,38.28,0,3.16-.03,6.41.06,9.57-.04,2.04-.82,4.15-1.84,6.09-2.89,2.62-1.43,5.29-2.99,7.83-4.56,3.11-1.91,6.66-3.83,10.44-3.41,6.71.83,10.72,7.03,15.66,10.9,8.4,0,16.83,0,25.23,0,.88.16,1.84-.5,2.61-.83,1.63-.74,3.45-1.43,5.22-1.76,5.51-.52,10.99-1.73,16.53-1.95,5.42-.23,10.92.98,15.66,3.65.4.26,1.3.7,1.74.89.77,0,1.84,0,2.61,0,1.69,0,3.53,0,5.22,0"/><path class="b" d="M8.58,81.48c2.9-.25,5.94-.07,8.7.9,1.73.45,3.39,1.82,5.22,1.73,6.95,0,13.93,0,20.88,0,6.08,0,12.19,0,18.27,0,2.1-.49,4.09-1.77,6.09-2.56,3.72-1.67,7.52-3.34,11.31-4.84,6.89-2.94,13.16-3.8,20.01-.18,4.5,2.2,8.43,5.56,13.05,7.51,5.78.18,11.61.01,17.4.07,2.88-.51,5.8-1.26,8.7-1.66,2.56-.41,5.25-.42,7.83-.59,3.45-.23,6.98-.51,10.44-.33,2.62.14,5.31.56,7.83,1.28,1.42.31,2.89,1.2,4.35,1.29,4.91,0,9.88,0,14.79,0"/><path class="b" d="M8.58,76.79c2.89-.33,5.98-.23,8.7.91.8.33,1.84.83,2.61,1.23.48.35,1.16.55,1.74.46,6.08,0,12.19,0,18.27,0,4.04,0,8.14,0,12.18,0,2.24-.12,4.8.28,6.96-.23,3.29-2.41,6.75-4.77,10.44-6.53,8.2-3.84,14.88-4.29,23.49-1.59,6.05,1.77,12.04,3.95,18.27,5.05,5.16.88,10.47.58,15.66,1.13,5.81.46,11.55,2.05,17.4,2.01,2.87-.01,5.83-.19,8.7-.12,1.99.02,4.09.35,6.09.28,8.11,0,16.25,0,24.36,0"/><path class="b" d="M8.58,72.91c2.3-.15,4.74-.1,6.96.56,1.41.42,2.81,1.42,4.35,1.2,12.17-.02,24.36.03,36.54-.02,7.26-6.95,15.3-13.91,26.1-11.2,3.89,1.15,7.49,3.25,11.31,4.61,13.41,4.95,22.52-2.8,37.41,4.43,1.71.67,3.42,1.81,5.22,2.18.77,0,1.84,0,2.61,0,4.04,0,8.14,0,12.18,0,10.72,0,21.46,0,32.19,0"/><path class="b" d="M8.58,68.7c1.7-.04,3.54,0,5.22.32,1.42.21,2.88,1.07,4.35.93,11.59,0,23.2,0,34.8,0,8.49-7.57,15.3-15.64,27.84-11.95,4.06,1.38,7.48,4.21,11.31,6.07,6.4,3.37,11.58,2.45,18.27.86,8.04-1.63,13.7-1.23,20.88,3,1.1.62,2.39,1.38,3.48,2.02,2.87.02,5.83,0,8.7,0,13.33,0,26.68,0,40.02,0"/><path class="b" d="M8.58,63.51c2.01.07,4.14.23,6.09.73,1.14.22,2.31,1.01,3.48.99,7.82,0,15.67,0,23.49,0,1.4-.05,2.98.15,4.35-.17.79-.38,1.83-.92,2.61-1.32,3.96-2.16,7.45-5.18,11.31-7.49,6.9-4.38,13.25-4.53,20.88-2.08,4.07,1.56,7.47,4.52,11.31,6.53,7.35,4.1,12.36,2.52,20.01.98,4.27-.84,8.78-1.41,13.05-.21,3.05.78,5.92,2.32,8.7,3.76,5.2,0,10.45,0,15.66,0,11.3,0,22.62,0,33.93,0"/><path class="b" d="M8.58,57.98c3.23.62,6.41,1.69,9.57,2.52,4.62,0,9.3,0,13.92,0,1.45.1,2.97-.39,4.35-.77,2.01-.57,4.11-1.25,6.09-1.92,2.58-.9,5.28-1.78,7.83-2.77,2.9-1.17,5.79-2.56,8.7-3.7,6.95-2.93,14.56-3.4,21.75-1.03,9.45,4.14,14.22,11.65,26.1,9.32,5.72-1.02,11.55-3.11,17.4-1.86,1.43.29,3,.8,4.35,1.36,1.1.4,2.29,1.25,3.48,1.37,5.49,0,11.03,0,16.53,0,11.59,0,23.2,0,34.8,0"/><path class="b" d="M8.58,51.43c12.95,5.95,15.18,2.66,27.84-.3,4.27-1.01,8.7-1.38,13.05-1.85,4.07-.46,8.16-1.17,12.18-1.93,7.08-1.2,15.05-3.21,21.75.39,4.03,2,10.58,7.75,14.79,8.04,2.87,0,5.83,0,8.7,0,1.39-.02,2.96.05,4.35-.06.77-.2,1.84-.47,2.61-.66,3.95-1.06,8.23-1.43,12.18-.15.78.24,1.83.66,2.61.88,1.99,0,4.1,0,6.09,0,4.04,0,8.14,0,12.18,0,12.17,0,24.36,0,36.54,0"/><path class="b" d="M8.58,43.74c9.02,5.41,11.77,3.48,20.88.38,3.9-1.28,8.12-1.68,12.18-1.01,8.01,1.38,16.24,3.43,24.36,1.61,15.11-3.64,14.39-2.48,26.97,5.63,1.2.97,2.92.66,4.35.7,2.29,0,4.67,0,6.96,0,6.66.04,13.35-.08,20.01,0,19.71,0,39.44,0,59.15,0"/><path class="b" d="M8.58,35.45c2.87,1.69,6.13,3.47,9.57,3.12,2.71-.32,5.29-1.55,7.83-2.47,5.31-2.15,10.49-2.07,15.66.42,2.85,1.33,5.72,2.79,8.7,3.82,2.53,1,5.15,2.06,7.83,2.58,4.06.86,8.28.12,12.18-1.11,3.07-.89,6.33-2.12,9.57-1.53,3.21.7,6.02,2.7,8.7,4.5.75.5,1.72,1.29,2.61,1.54.78,0,1.83,0,2.61,0,2.29,0,4.67,0,6.96,0,7.24,0,14.51,0,21.75,0,20.29,0,40.6,0,60.89,0"/><path class="b" d="M8.58,27.74c2.96,1.33,6.26,2.69,9.57,2.16,2.69-.47,5.25-1.73,7.83-2.58,5.65-2.1,10.74-.9,15.66,2.31,3.06,2.04,6.28,3.96,9.57,5.62,3.03,1.71,6.16,3.54,9.57,4.4,5.62,1.61,10.98-.77,16.53-1.23,2.81-.18,5.5,1.09,7.83,2.54,1.17,1.01,2.93.57,4.35.66,2.58,0,5.25,0,7.83,0,7.53,0,15.09,0,22.62,0,21.16,0,42.34,0,63.5,0"/><path class="b" d="M8.58,21.85c9.86,3.27,11.24-.3,20.01-1.92,7.5-1.21,13.2,4.65,19.14,8.17,3.62,1.79,6.89,4.34,10.44,6.25,2.15,1.15,4.54,2.15,6.96,2.53,1.09,0,2.39,0,3.48,0,4.04,0,8.14,0,12.18,0,34.21,0,68.43,0,102.65,0"/><path class="b" d="M8.58,17.84c6.91,1.63,9.31.32,15.66-1.71,11.29-3.5,16.88,5.28,26.1,9.42,3.51,2.02,6.8,4.56,10.44,6.36.76.32,1.81.25,2.61.25,1.4,0,2.95,0,4.35,0,4.04,0,8.14,0,12.18,0,34.5,0,69.01,0,103.52,0"/><path class="b" d="M8.58,15.3c6.54,1.21,8.91-.43,14.79-2.29,8.35-2.68,14.25,1.57,20.88,5.99,2.12,1.48,4.69,2.28,6.96,3.45,2.96,1.47,5.63,3.76,8.7,4.99,6.37,0,12.77,0,19.14,0,21.74,0,43.5,0,65.24,0,8.4-.03,16.83.06,25.23-.04,2.28-.22,4.67.05,6.96.04,2.32-.01,4.73-.5,6.96-1.11"/><path class="b" d="M8.58,13.47c5.08.7,7.66-.31,12.18-2.26,9.09-3.82,14.84-.76,22.62,3.97,2.14,1.34,4.59,2.16,6.96,2.96,2.71,1.13,5.29,2.77,7.83,4.23,1.01.56,2.37.29,3.48.35,1.7,0,3.52,0,5.22,0,5.2,0,10.45,0,15.66,0,18.55,0,37.12,0,55.67,0,3.46-.03,6.99.07,10.44-.05,2-.74,4.1-1.57,6.09-2.32,5.52-2.07,11.43-3.97,17.4-3.26,1.7.21,3.5.74,5.22.86,1.99.18,4.12.07,6.09-.24"/></svg>