<?xml version="1.0" encoding="UTF-8"?><svg id="a" xmlns="http://www.w3.org/2000/svg" width="1920" height="2400" viewBox="0 0 192 240"><defs><style>.b{fill:none;stroke:#fff;stroke-miterlimit:10;stroke-width:.4px;}.c{stroke-width:0px;}</style></defs><rect class="c" x="0" width="192" height="240"/><path class="b" d="M8.39,232.43c36.32,0,72.65,0,108.97,0,16.85,0,33.71.01,50.56,0,5.22-1.4,10.09-4.93,15.69-4.33"/><path class="b" d="M8.39,227.7c36.61,0,73.23,0,109.84,0,9,0,18.02,0,27.02,0,2.88,0,5.84,0,8.72,0,1.99-.07,4.15.22,6.1-.28,3.84-.85,7.66-2.07,11.33-3.48,3.87-1.49,7.97-3.3,12.2-2.51"/><path class="b" d="M8.39,222.96c42.71,0,85.43,0,128.15,0,4.63,0,9.32,0,13.95,0,.86,0,1.86-.62,2.62-.96,1.08-.51,2.39-1.09,3.49-1.57,4.32-1.86,8.69-3.74,13.08-5.43,4.45-1.78,9.32-3.22,13.95-1.18"/><path class="b" d="M8.39,218.23c40.39,0,80.78,0,121.17,0,3.76,0,7.58,0,11.33,0,1.39,0,2.96,0,4.36,0,.8,0,1.9.09,2.62-.35,3.64-2.63,7.46-5.15,11.33-7.43,4.88-2.8,10.06-5.52,15.69-6.34,3.1-.35,6.19.95,8.72,2.65"/><path class="b" d="M8.39,213.5h135.12c8.88-6.5,17.5-14.8,28.77-16.59,4.35-.94,8.21,1.42,11.33,4.22"/><path class="b" d="M8.39,208.76c35.74,0,71.48,0,107.22,0,6.96,0,13.96,0,20.92,0,4-.83,7.19-3.92,10.46-6.2,7.81-5.9,16.87-11.42,27.02-10.87,3.81.07,6.92,2.86,9.59,5.29"/><path class="b" d="M8.39,204.03c33.12,0,66.25,0,99.38,0,6.38,0,12.8,0,19.18,0,4.31-1.86,8.85-3.34,13.08-5.39,2.71-1.4,5.17-3.43,7.85-4.89,5.27-3.08,11.31-4.95,17.43-5.05,3.46-.03,7.03.07,10.46.53,2.95.73,5.52,2.68,7.85,4.55"/><path class="b" d="M8.39,199.3c30.22,0,60.44,0,90.66,0,6.96,0,13.96,0,20.92,0,2.68-1.42,5.11-3.52,7.85-4.88,3.88-2.17,8.16-3.61,12.2-5.41,1.75-.76,3.49-1.91,5.23-2.69,2.44-1.08,5.18-1.7,7.85-1.84,5.59-.3,11.08,1.22,16.56,2.06,1.98.35,4.11.38,6.1.6,2.82.51,5.44,2.02,7.85,3.53"/><path class="b" d="M8.39,194.56c28.76,0,57.54,0,86.3,0,5.51,0,11.06,0,16.56,0,1.09,0,2.4,0,3.49,0,2.25-1,4.08-3.04,6.1-4.43,4.94-3.94,10.52-7.16,16.56-9.07,2.91-.83,5.72-2.36,8.72-2.83,5.44-.63,10.64,1.76,15.69,3.41,3.37,1.14,6.9,2.14,10.46,2.35,1.39.1,2.98-.06,4.36.2,2.43.45,4.79,1.54,6.97,2.66"/><path class="b" d="M8.39,189.83c28.18,0,56.38,0,84.56,0,5.8,0,11.64,0,17.43,0,1.24-.07,2.45-1.02,3.49-1.63,1.77-1.16,3.57-2.56,5.23-3.87,5.43-4.4,11.36-8.57,18.31-10.08,3.14-.6,6.37-1.8,9.59-1.28,5.19.9,9.82,3.74,14.82,5.26,4.19,1.39,8.7,1.79,13.08,1.31,3.07-.11,6.03,1.24,8.72,2.59"/><path class="b" d="M8.39,185.1c28.47,0,56.96,0,85.43,0,5.22,0,10.48,0,15.69,0,3.97-.85,7.24-3.84,10.46-6.17,7.91-6.28,14.06-9.41,24.41-9.16,3.65.37,7.04,2.07,10.46,3.27,3.33,1.22,6.9,2.07,10.46,2.02,8.2-.08,10.29-3.39,18.31,1.73"/><path class="b" d="M8.39,180.36c35.45,0,70.9.01,106.35,0,5.01-3.16,9.4-7.41,14.82-9.9,4.58-2.2,9.84-2.54,14.82-1.95,2.35.38,4.7,1.21,6.97,1.88,3.92,1.22,8.14,1.81,12.2,1.02,4.14-.64,8.02-2.76,12.2-3.07,2.92.1,5.54,1.82,7.85,3.47"/><path class="b" d="M8.39,175.63c37.48-.09,74.98.18,112.45-.09,11.21-8.83,17.86-9.39,31.38-5.97,3.73.75,7.68.61,11.33-.48,3.82-1.04,7.42-3.03,11.33-3.71,3.25-.32,6.21,1.69,8.72,3.53"/><path class="b" d="M8.39,170.9c35.16,0,70.32,0,105.48,0,4.92,0,9.9,0,14.82,0,3.05-1.21,6.28-2.21,9.59-2.34,2.58-.12,5.28-.17,7.85.23,4.02.66,8.1,1.65,12.2,1.33,5.78-.26,10.97-3.28,16.56-4.38,3.12-.38,6.14,1.19,8.72,2.77"/><path class="b" d="M8.39,166.16h175.22"/><path class="b" d="M8.39,161.43h175.22"/><path class="b" d="M8.39,153.6c2.97-.05,5.92.81,8.72,1.71,1.13.36,2.38.97,3.49,1.39,1.1,0,2.39,0,3.49,0,16.85,0,33.71,0,50.56,0,36.32,0,72.65,0,108.97,0"/><path class="b" d="M8.39,144.41c3.9-.14,7.8,1.16,11.33,2.72,3.24,1.47,6.26,3.58,9.59,4.84,3.76,0,7.58,0,11.33,0,18.01,0,36.03,0,54.05,0,29.64,0,59.28,0,88.92,0"/><path class="b" d="M8.39,137.1c6.59-.64,12.6,2.79,18.31,5.58,3.82,1.85,7.95,3.27,12.2,3.64,2.29.22,4.68.19,6.97.17,1.7-.02,3.54.1,5.23-.14,3.46-.46,6.95-1.39,10.46-1.21,2.71.09,5.4.95,7.85,2.09,2.59,0,5.26,0,7.85,0,35.45,0,70.9,0,106.35,0"/><path class="b" d="M8.39,130.52c6.93-1.53,13.3,2.34,19.18,5.47,4.31,2.26,9.06,3.89,13.95,4.09,2.88.13,5.84.05,8.72,0,3.17-.15,6.43-.41,9.59,0,2.68.33,5.38,1.15,7.85,2.26,1.38.29,2.96.1,4.36.15,37.19,0,74.39,0,111.58,0"/><path class="b" d="M8.39,125.27c9.3-2.64,15.78,3.95,23.54,7.61,6,3.01,11.8,2.96,18.31,2.59,4.72-.12,9.49.66,13.95,2.2,39.79.28,79.62,0,119.43.1"/><path class="b" d="M8.39,121.37c10.68-2.78,16.42,4.8,25.28,8.64,3.26,1.45,6.89,2.18,10.46,2.08,2.3-.01,4.67-.44,6.97-.38,1.71.05,3.55.3,5.23.63,1.4.27,2.92.79,4.36.68,40.97,0,81.95,0,122.92,0"/><path class="b" d="M8.39,118.27c3.46-.47,7.14-.24,10.46.87,7.27,3,13.55,8.87,21.79,9.11,3.49.29,6.98-.7,10.46-.65,1.72.04,3.53.46,5.23.71,3.17,0,6.42,0,9.59,0,5.51,0,11.06,0,16.56,0,1.7-.11,3.5-.7,5.23-.58,1.42,0,2.96.38,4.36.58,2.88,0,5.84,0,8.72,0,17.72,0,35.46,0,53.18,0,6.09,0,12.22,0,18.31,0,1.99,0,4.11,0,6.1,0,1.08-.02,2.41.06,3.49-.08.39-.3,1.34-.88,1.74-1.17"/><path class="b" d="M8.39,114.84c3.8.16,7.73.69,11.33,1.96,4.37,1.71,8.5,4.22,13.08,5.38,3.1.82,6.41.96,9.59.57,2.6-.26,5.23-.97,7.85-1.05,3.27-.01,6.47,1.01,9.59,1.86,2.88,0,5.84,0,8.72,0,2.59,0,5.26,0,7.85,0,.79,0,1.85.04,2.62-.15.78-.43,1.82-1.05,2.62-1.46,6.93-3.81,13.42-2.61,20.05,1.13.95.74,2.37.41,3.49.48,1.4,0,2.96,0,4.36,0,15.4,0,30.81,0,46.2,0,5.51,0,11.06,0,16.56,0,8.11.06,4.7.43,11.33-3.92"/><path class="b" d="M8.39,109.77c2.01.34,4.11.82,6.1,1.24,2.02.4,4.17.75,6.1,1.47,5.67,2.07,11.3,4.8,17.43,5.06,5.82.39,11.65-1.41,17.43-.17,10.23,1.84,16.74,2.95,26.15-2.56,7.93-4,15.09-1.9,22.67,1.65,1.96.86,4.04,1.76,6.1,2.33,2.58.1,5.26.02,7.85.04,5.8,0,11.64,0,17.43,0,6.67,0,13.38,0,20.05,0,5.51,0,11.06,0,16.56,0,3.86-2.24,7.39-5.21,11.33-7.35"/><path class="b" d="M8.39,103.75c2.29.52,4.66,1.13,6.97,1.49,2.02.24,4.15.54,6.1,1.16,5.86,1.82,11.43,4.63,17.43,5.99,4.55,1.16,9.29,1.08,13.95,1.21,8.32.5,16.66-.46,24.41-3.64,7.84-3.69,13.83-2.89,21.79-.14,3.15,1.05,6.34,2.26,9.59,3,2.57.48,5.27.82,7.85,1.29,5.8,0,11.64,0,17.43,0,7.84,0,15.7,0,23.54,0,2.88-.05,5.85.12,8.72-.08,5.66-3.38,11.44-6.66,17.43-9.41"/><path class="b" d="M8.39,97.77c1.99.35,4.09.72,6.1.9,2,.17,4.13.06,6.1.46,3.97.72,7.74,2.41,11.33,4.19,4.28,2.11,8.49,4.59,13.08,5.98,4.92.13,9.9.01,14.82.05,2.67.07,5.3-1.02,7.85-1.73,4.6-1.39,9.15-3.39,13.95-3.95,3.57-.23,7.12.87,10.46,2,2.58.89,5.23,1.88,7.85,2.66,1.95.59,4.04,1.18,6.1,1.02,8.71,0,17.44,0,26.15,0,8.42,0,16.86,0,25.28,0,1.2.08,2.39-.82,3.49-1.2,1.67-.71,3.52-1.43,5.23-2.04,5.82-1.97,11.71-3.89,17.43-6.13"/><path class="b" d="M8.39,92.65c2,.07,4.1.14,6.1.08,1.7-.05,3.52-.34,5.23-.28,2.98.06,5.99.84,8.72,2.04,4.02,1.76,7.67,4.37,11.33,6.76,1.37.89,2.91,1.85,4.36,2.6.77.37,1.73.95,2.62.8,5.51,0,11.06,0,16.56,0,5.2-1.16,10.31-3.24,15.69-3.43,2.71-.15,5.4.79,7.85,1.86,1.4.48,2.83,1.68,4.36,1.57,11.33,0,22.67,0,34,0,6.67,0,13.38,0,20.05,0,2.29,0,4.68,0,6.97,0,1.4-.09,3.04.26,4.36-.3,2.41-1.37,5.12-2.41,7.85-2.94,2.84-.57,5.84-.62,8.72-.96,3.56-.49,7.09-1.54,10.46-2.74"/><path class="b" d="M8.39,88.98c2.3-.27,4.69-.52,6.97-.89,1.99-.36,4.08-.78,6.1-.84,9.11-.56,16.07,6.1,23.54,10.21,4.54,2.37,9.81,2.56,14.82,2.44,4.05.02,8.16.02,12.2-.2,7.88.21,15.65.23,23.54.2,15.1,0,30.23,0,45.33,0,5.8,0,11.64,0,17.43,0,2.21-.77,4.62-1.33,6.97-1.26,2.59.02,5.25.54,7.85.56,3.59-.07,7.16-1.12,10.46-2.49"/><path class="b" d="M8.39,86.82c3.8-.6,7.62-1.41,11.33-2.42,5.14-1.39,10.69-1.42,15.69.52,3.57,1.27,6.94,3.2,10.46,4.58,1.65.65,3.53,1.03,5.23,1.53,4.39,1.2,8.68,2.97,13.08,4.13,6.09,0,12.22,0,18.31,0,33.7,0,67.42,0,101.12,0"/><path class="b" d="M8.39,84.45c2.93-.55,5.91-1.27,8.72-2.27,4.48-1.64,9.09-3.54,13.95-3.42,4.88.03,9.45,2.06,13.95,3.73,2.25.86,4.76,1.25,6.97,2.21,3.66,1.51,7.07,3.71,10.46,5.73h121.17"/><path class="b" d="M8.39,81.68c2.98-.63,5.96-1.65,8.72-2.96,4.43-2.14,8.94-4.68,13.95-5.01,4.85-.39,9.48,1.51,13.95,3.15,1.66.64,3.55.99,5.23,1.57,2.46.91,4.81,2.35,6.97,3.83,1.43.98,2.98,2.13,4.36,3.18,1.05.42,2.38.21,3.49.25,1.4,0,2.96,0,4.36,0,5.8,0,11.64,0,17.43,0,32.25,0,64.51,0,96.76,0"/><path class="b" d="M8.39,78.68c7.94-1.85,13.78-8.59,21.79-10.18,5.1-1.05,10.13.95,14.82,2.74,1.95.77,4.17,1.12,6.1,1.95,4.47,1.87,8.18,5.18,12.2,7.78h120.3"/><path class="b" d="M8.39,75.64c8.41-2.79,14.01-10.88,22.66-13.07,5.08-1.28,10.11.77,14.82,2.47,1.99.67,4.19,1.08,6.1,1.99,3.34,1.5,6.5,3.53,9.59,5.5,7.33,4.71,4.47,3.6,13.08,3.71,5.51,0,11.06,0,16.56,0,20.05,0,40.1,0,60.15,0,6.96,0,13.96,0,20.92,0,2.29,0,4.69,0,6.97,0,1.4-.11,3.1.33,4.36-.4"/><path class="b" d="M8.39,71.5c1.14-.04,2.57.24,3.49-.6,1.78-1.15,3.59-2.55,5.23-3.89,9.14-7.86,14.85-14.98,27.9-10.3,2.29.74,4.76,1.21,6.97,2.16,5.43,2.34,10.48,5.57,15.69,8.34,1.99,1.09,4.11,2.23,6.1,3.33.44.25,1.3.72,1.74.95.78,0,1.84,0,2.62,0,9.87,0,19.77,0,29.64,0,24.11,0,48.24,0,72.35,0,1.06-.85,2.34-1.83,3.49-2.57"/><path class="b" d="M8.39,66.77h4.36c7.16-4.75,11.95-12.4,19.18-17.07,3.57-2.37,7.97-3.38,12.2-2.75,3.26.43,6.6,1.09,9.59,2.53,7.22,3.48,13.94,8,20.92,11.92,2.03,1.18,4.14,2.49,6.1,3.77.77.48,1.83,1.11,2.62,1.55.78.08,1.84.06,2.62.06,11.62,0,23.25,0,34.87,0,19.75-.03,39.52.06,59.28-.03,1.06-.97,2.35-2.09,3.49-2.97"/><path class="b" d="M8.39,62.03c1.4,0,2.96,0,4.36,0,1.55-.84,2.99-2.24,4.36-3.35,4.31-3.81,8-8.37,12.2-12.29,6.16-6.03,13.91-9.97,22.67-7.81,5.05,1.36,9.56,4.25,13.95,7.01,8.34,5.59,17.16,10.48,25.28,16.4,19.75.12,39.52,0,59.28.04,6.67,0,13.38,0,20.05,0,2.58,0,5.26,0,7.85,0,2.86-.02,3.03.41,5.23-1.81"/><path class="b" d="M8.39,57.3c1.11-.06,2.47.21,3.49-.34,1.77-1.13,3.59-2.47,5.23-3.78,4.83-3.93,9.21-8.47,13.95-12.5,5.68-4.79,12.36-9.55,20.05-9.81,6.12.02,11.6,3.35,16.56,6.59,3.46,2.28,6.87,4.79,10.46,6.87,4.45,2.22,8.42,5.32,12.2,8.51,1.09.9,2.38,1.96,3.49,2.84.74.55,1.66,1.48,2.62,1.62,3.46,0,7,0,10.46,0,8.13,0,16.28,0,24.41,0,17.43,0,34.87,0,52.3,0"/><path class="b" d="M8.39,52.09c4.41-1.79,8.33-4.59,12.2-7.29,4.9-3.27,9.89-6.51,14.82-9.73,3.11-2.01,6.31-4.05,9.59-5.78,3.95-2.19,8.54-3.68,13.08-2.77,6.55,1.22,11.89,5.58,17.43,8.98,2.47,1.64,5.41,2.61,7.85,4.29,4.24,2.87,7.99,6.51,12.2,9.42,1.87,1.29,3.96,2.51,6.1,3.28,1.09.14,2.39.07,3.49.08,1.7,0,3.53,0,5.23,0,.82-.19,1.85-.69,2.62-1.03,7.32-3.46,13.57-4.15,20.92-.28.77.39,1.82.97,2.62,1.31.77,0,1.85,0,2.62,0,2.29,0,4.68,0,6.97,0,12.49,0,25,0,37.48,0"/><path class="b" d="M8.39,45.32c2.05-.64,4.18-1.41,6.1-2.36,2.29-1.19,4.53-2.71,6.97-3.59,5.22-1.97,10.72-3.34,15.69-5.92,2.98-1.48,5.9-3.28,8.72-5.06,4.14-2.73,8.82-5.33,13.95-4.96,5.79.34,10.75,3.73,15.69,6.43,2.47,1.47,5.4,2.2,7.85,3.72,3.6,2.19,6.88,4.98,10.46,7.19,4.6,3.02,10.49,4.68,15.69,2.17,3.55-1.67,6.7-4.31,10.46-5.57,8.95-3.28,15.61,5.41,21.79,10.42,13.94.13,27.9,0,41.84.05"/><path class="b" d="M8.39,40.02c2.04-.44,4.17-1,6.1-1.78,2-.83,3.96-2.08,6.1-2.56,3.98-1,8.2-.96,12.2-1.86,4.03-.84,7.88-2.6,11.33-4.81,8.92-6.12,14.89-11.18,26.15-6.59,2.32.9,4.66,2.05,6.97,2.98,2.32.88,4.85,1.51,6.97,2.83,5.08,2.88,9.81,6.92,15.69,8.05,8.53,1.64,13.03-4.84,20.05-7.72,8.4-3.36,14.78,5.03,20.05,10.28,1.6,1.46,3.26,3.33,5.23,4.26,1.7,0,3.53,0,5.23,0,11.03,0,22.09,0,33.13,0"/><path class="b" d="M8.39,34.81c2.02-.44,4.15-.95,6.1-1.64,1.99-.72,3.98-1.79,6.1-2.11,4.3-.73,8.76-.2,13.08-.82,4.35-.55,8.53-2.29,12.2-4.65,8.26-5.86,14.79-9.92,25.28-7.11,2.31.57,4.67,1.34,6.97,1.94,2.07.44,4.23,1,6.1,2.02,7.84,4.19,15.99,11.47,25.28,6.68,4.54-2.35,8.59-6.39,13.95-6.64,6.17-.15,10.7,4.93,14.82,8.86,2.36,2.47,5.19,4.57,7.85,6.7,1.31.57,2.96.21,4.36.31,2.29,0,4.68,0,6.97,0,8.71,0,17.44,0,26.15,0"/><path class="b" d="M8.39,29.47c2.01-.45,4.13-.94,6.1-1.53,1.99-.61,4.02-1.48,6.1-1.76,4.31-.66,8.75-.26,13.08-.68,4.24-.36,8.46-1.6,12.2-3.63,9.6-6.08,16.44-8.32,27.9-6.74,2.87.47,5.92.51,8.72,1.35,8.57,3.03,16.31,12.35,26.15,8.92,5.19-2.17,9.7-6.77,15.69-6.48,6.32.32,10.98,5.28,15.69,8.94,2.7,2.1,5.78,3.86,8.72,5.6,3.14.38,6.43.05,9.59.16,3.46,0,7,0,10.46,0,2.3.04,4.7.03,6.97-.34,2.6-.16,5.24.52,7.85.34"/><path class="b" d="M8.39,24.99c2.3-.35,4.71-.72,6.97-1.27,2.27-.62,4.64-1.27,6.97-1.64,6.09-1.03,12.35-1.43,18.31-3.17,4.27-1.06,8.05-3.51,12.2-4.89,7.59-2.35,15.67-2.3,23.54-2.5,2.62-.05,5.39-.15,7.85.91,7.64,2.89,13.96,10.43,22.67,9.76,2.55-.24,4.81-1.72,6.97-2.97,2.44-1.38,5.08-2.67,7.85-3.22,9.25-1.9,16.26,6.05,24.41,8.88,4.39,1.92,9.11,3.41,13.95,3.36,9.03-.12,14.16-3.57,23.54-.2"/><path class="b" d="M8.39,21.79c2.29.07,4.7.07,6.97-.27,4.47-.79,8.79-2.41,13.08-3.85,6.94-2.46,14.04-4.6,20.92-7.23,4.2-1.34,8.72-1.17,13.08-1.29,4.36-.07,8.76-.51,13.08-1.09,3.62-.53,7.04-.87,10.46.75,7.18,2.9,13.57,10.18,21.79,9.44,2.87-.38,5.28-2.31,7.85-3.5,5.04-2.68,10.97-3.89,16.56-2.38,3.25.77,6.4,2.12,9.59,3.1,4.98,1.29,9.84,3.14,14.82,4.43,4.25,1.11,8.68,1.72,13.08,1.92,4.69.09,9.43.34,13.95,1.71"/></svg>