<?xml version="1.0" encoding="UTF-8"?><svg id="a" xmlns="http://www.w3.org/2000/svg" width="1920" height="2400" viewBox="0 0 192 240"><defs><style>.b{fill:none;stroke:#fff;stroke-miterlimit:10;stroke-width:.4px;}.c{stroke-width:0px;}</style></defs><rect class="c" x="0" width="192" height="240"/><path class="b" d="M8.29,228.42c17.74,0,35.5,0,53.24,0,8.14,0,16.3,0,24.44,0,.44,0,1.31,0,1.75,0,.79-.33,1.84-.81,2.62-1.16,1.66-.73,3.49-1.44,5.24-1.94,3.95-1.18,8.28-1.22,12.22.06,2.93.86,5.65,2.7,8.73,3.04,6.97,0,13.98,0,20.95,0,15.41,0,30.84,0,46.26,0"/><path class="b" d="M8.29,223.68c16.29,0,32.59,0,48.88,0,7.55,0,15.14,0,22.69,0,1.47-.13,2.97-.9,4.36-1.36,1.98-.74,4.08-1.51,6.11-2.08,4.81-1.43,10.02-1.5,14.84-.08,3.55.93,6.88,2.74,10.47,3.52,7.26,0,14.56,0,21.82,0,15.41,0,30.84,0,46.26,0"/><path class="b" d="M8.29,218.94c15.12,0,30.26,0,45.38,0,6.97,0,13.98,0,20.95,0,3.43-1.64,6.84-3.53,10.47-4.72,5.61-2.05,11.81-1.84,17.46-.04,2.6.76,5.24,1.73,7.86,2.45,3.71.96,7.56,1.65,11.35,2.24,6.09.18,12.23.01,18.33.07,14.54,0,29.1,0,43.64,0"/><path class="b" d="M8.29,214.2c14.83,0,29.68,0,44.51,0,6.68,0,13.39,0,20.07,0,3.63-1.67,6.85-4.27,10.47-5.96,6.19-3.01,13-1.7,19.2.53,2.26.74,4.63,1.53,6.98,1.91,2.29.28,4.72.29,6.98.79,2.33.44,4.72,1.08,6.98,1.77,1.38.38,2.9,1.09,4.36.97,18.62,0,37.24,0,55.86,0"/><path class="b" d="M8.29,209.46c15.12,0,30.26,0,45.38,0,4.35,0,8.75,0,13.09,0,1.7,0,3.54,0,5.24,0,.82,0,1.9.1,2.62-.39,3.7-1.82,6.6-5.08,10.47-6.57,7.71-3.26,15.13,1.34,22.69,2.51,2,.34,4.11-.2,6.11-.16,2.05.07,4.18.61,6.11,1.3,1.74.63,3.57,1.46,5.24,2.28,1.03.56,2.28,1.2,3.49,1.03,18.32,0,36.66,0,54.99,0"/><path class="b" d="M8.29,204.72c18.03,0,36.08,0,54.11,0,3.18,0,6.43,0,9.6,0,4.25-.06,4.46.66,7.86-2.38,6.89-6.22,13.59-5.23,21.82-2.76,2.25.59,4.65,1.14,6.98,1.09,1.74,0,3.5-.75,5.24-.77,4.49,0,8.51,2.54,12.22,4.82,19.2,0,38.41,0,57.6,0"/><path class="b" d="M8.29,199.99c15.12,0,30.26,0,45.38,0,8.42-.1,16.9.21,25.31-.12,9.84-8.62,16.22-3.96,27.06-1.94,1.4.19,2.98.2,4.36-.06,1.96-.57,4.11-.85,6.11-.34,1.8.41,3.62,1.23,5.24,2.1,1.29.65,2.96.25,4.36.35,2,0,4.11,0,6.11,0,17.16,0,34.33,0,51.49,0"/><path class="b" d="M8.29,195.25c18.32,0,36.66,0,54.99,0,5.51,0,11.07,0,16.58,0,1.19-.2,2.35-1.13,3.49-1.51,2.18-.85,4.64-1.2,6.98-1.09,5.04.13,9.84,2.3,14.84,2.6,1.7-.02,3.54.06,5.24-.06,2.24-.68,4.7-.88,6.98-.25,1.05.4,2.39.3,3.49.31,1.7,0,3.54,0,5.24,0,4.93,0,9.91,0,14.84,0,14.25,0,28.52,0,42.77,0"/><path class="b" d="M8.29,190.51c16.29,0,32.59,0,48.88,0,6.1,0,12.23,0,18.33,0,2,0,4.11,0,6.11,0,1.39-.22,2.95-.52,4.36-.51,1.71-.02,3.55.18,5.24.44,1.39.13,2.96.05,4.36.07,9.01,0,18.05,0,27.06,0,20.36,0,40.73,0,61.1,0"/><path class="b" d="M8.29,185.77c58.48,0,116.95,0,175.43,0"/><path class="b" d="M8.29,181.03c14.54,0,29.1,0,43.64,0,4.35,0,8.75,0,13.09,0,3.42-.79,6.95-1.45,10.47-1.51,2-.02,4.14-.02,6.11.4,1.44.22,2.9,1.2,4.36,1.11,9.88-.09,19.81.18,29.67-.1,22.65.15,45.39.1,68.08.1"/><path class="b" d="M8.29,176.29c16,0,32.01,0,48,0,.83.1,1.84-.27,2.62-.5,1.4-.42,2.96-.9,4.36-1.3,3.39-.96,6.94-1.69,10.47-1.72,2.62,0,5.37.26,7.86,1.12,1.13.42,2.42,1.05,3.49,1.62.73.43,1.75.91,2.62.78,8.43,0,16.88,0,25.31,0,2.56-.51,5.23-1.05,7.86-.77,1.42.1,2.97.49,4.36.77.77,0,1.85,0,2.62,0,9.01,0,18.05,0,27.06,0,1.09-.04,2.44.14,3.49-.22,1.9-.84,4.04-1.5,6.11-1.74,3.86-.51,7.69.67,11.35,1.76,1.06.3,2.4.18,3.49.2,1.39-.03,2.98.07,4.36-.08"/><path class="b" d="M8.29,171.55c6.68,0,13.39,0,20.07,0,2.59-.27,5.26-.6,7.85-.77,2.88-.2,5.84-.27,8.73-.24,2.59.05,5.28.23,7.86-.2,4.39-.65,8.71-1.93,13.09-2.58,4.31-.68,8.78-.7,13.09.03,3.16.41,5.99,2.16,8.73,3.68,5.5.2,11.07.01,16.58.07,4.94-.01,9.92.14,14.84-.33,6.95.55,13.97.27,20.95.33,4.05,0,8.17,0,12.22,0,.79,0,1.88.08,2.62-.28.75-.56,1.84-1.3,2.62-1.82,3.57-2.39,7.85-4.15,12.22-3.69,2.37.16,4.68,1.1,6.98,1.61,2.26.45,4.7.46,6.98.16"/><path class="b" d="M8.29,166.81c5.51,0,11.07,0,16.58,0,3.46-.12,7.04.29,10.47-.26,6.63-1.23,13.4-1.61,20.07-2.56,4.03-.57,8.14-1.03,12.22-1.08,4.06-.08,8.17.23,12.22.35,2.43.09,4.81,1.1,6.98,2.13,1.1.45,2.28,1.36,3.49,1.42,4.35,0,8.75,0,13.09,0,13.67,0,27.35,0,41.02,0,3.17,0,6.43,0,9.6,0,1.61-.75,2.9-2.39,4.36-3.39,3.44-2.73,7.72-4.91,12.22-4.45,2.06.14,4.11.93,6.11,1.39,2.25.49,4.69.63,6.98.42"/><path class="b" d="M8.29,162.07c11.63,0,23.28,0,34.91,0,4.28-1.19,8.65-2.34,13.09-2.67,5.81-.54,11.65.27,17.46.39,1.4.01,2.97-.05,4.36-.21,1.4-.19,2.94-.56,4.36-.48,2.38.11,4.78.87,6.98,1.73,1.1.39,2.33,1.1,3.49,1.25,6.1,0,12.23,0,18.33,0,14.54-.07,29.11.14,43.64-.08,4.53-4.66,10.52-9.55,17.46-8,3.72.91,7.46,2.2,11.35,2.06"/><path class="b" d="M8.29,157.34c13.67,0,27.35,0,41.02,0,1.44.08,2.94-.62,4.36-.78,1.98-.32,4.11-.39,6.11-.3,5.79.22,11.69,1.92,17.46.58,2.59-.71,5.09-2.12,7.86-2.09,3.61-.13,7.18,1.06,10.47,2.44,1.97.35,4.12.08,6.11.16,17.74,0,35.5,0,53.24,0,5.28-5.02,10.67-9.06,18.33-6.84,3.44.95,6.89,2.28,10.47,2.62"/><path class="b" d="M8.29,152.6c16.87,0,33.75,0,50.62,0,6.97,0,13.98,0,20.95,0,1.22.07,2.36-.99,3.49-1.34,1.9-.77,4.06-1.21,6.11-1.17,3.36-.02,6.52,1.38,9.6,2.52,5.22,0,10.49,0,15.71,0,13.37-.1,26.79.2,40.15-.11,11.03-10.03,16.86-4.59,28.8-1.17"/><path class="b" d="M8.29,147.86c16.87,0,33.75,0,50.62,0,5.81,0,11.65,0,17.46,0,2.29,0,4.69,0,6.98,0,1.75-.32,3.43-1.43,5.24-1.67,2.28-.46,4.74-.31,6.98.27,1.44.32,2.93,1.08,4.36,1.4,5.8,0,11.65,0,17.46,0,8.14,0,16.3,0,24.44,0,2.88,0,5.85,0,8.73,0,1.79-.06,3.84.41,5.24-1.02,6.68-4.87,11.99-3.76,19.2-.87,1.42.54,2.95,1.32,4.36,1.9,1.39,0,2.97,0,4.36,0"/><path class="b" d="M8.29,143.12c44.85,0,89.59-.06,134.41,0,4.35,0,8.75,0,13.09,0,2.44-1.11,5.14-2,7.86-1.91,1.73.03,3.58.4,5.24.9,1.09.29,2.35.93,3.49,1.01,3.76,0,7.59,0,11.35,0"/><path class="b" d="M8.29,138.38h175.43"/><path class="b" d="M8.29,133.64h175.43"/><path class="b" d="M8.29,128.9h175.43"/><path class="b" d="M8.29,124.16h175.43"/><path class="b" d="M8.29,119.42h175.43"/><path class="b" d="M8.29,114.69c20.36,0,40.73,0,61.09,0,5.8-.02,11.65.05,17.46-.03,5.8-.49,11.64-1.05,17.46-1.18,3.8-.11,7.63.4,11.35,1.14,1.99.17,4.11.04,6.11.08,19.49,0,38.99,0,58.48,0,1.1-.74,2.38-1.64,3.49-2.36"/><path class="b" d="M8.29,109.95c5.22,0,10.49,0,15.71,0,.87.12,1.88-.3,2.62-.7,1.08-.5,2.36-1.02,3.49-1.38,5.07-1.73,10.51-1.12,15.71-.45,6.67.52,13.4.49,20.07.9,4.34.2,8.75.43,13.09.16,4.1-.26,8.19-1.03,12.22-1.81,6.56-1.25,13.52-2.67,20.07-.63,2.31.74,4.72,1.52,6.98,2.39,1.42.43,2.87,1.47,4.36,1.51,9.01,0,18.05,0,27.06,0,6.39,0,12.81,0,19.2,0,9.53-.1,6.61,1.09,14.84-4.29"/><path class="b" d="M8.29,105.21c4.35,0,8.75.01,13.09,0,5.27-3.92,11.65-6.72,18.33-6.08,2.89.16,5.83.71,8.73.76,4.06.03,8.16-.38,12.22-.41,4.07-.06,8.18.28,12.22.7,4.04.44,8.2.73,12.22-.04,7.17-1.24,14.53-3.85,21.82-1.97,2.45.57,4.74,1.85,6.98,2.95,3.12,1.47,6.35,2.94,9.6,4.1,2.29,0,4.69,0,6.98,0,8.43,0,16.88,0,25.31,0,6.09-.06,12.24.13,18.33-.08,3.51-.78,6.55-2.96,9.6-4.76"/><path class="b" d="M8.29,100.47c2.3,0,4.69,0,6.98,0,1.4-.07,3.01.19,4.36-.22,2.68-2.04,5.57-4,8.73-5.21,3.86-1.55,8.17-1.58,12.22-.87,10.81,2.38,13.49-.34,23.57-1.86,3.15-.45,6.43-.48,9.6-.27,3.17.19,6.42.68,9.6.35,8.36-1.01,16.38-3.63,24.44.47,2.13,1,4.1,2.54,6.11,3.74,2.7,1.6,5.69,2.85,8.73,3.63,1.06.35,2.4.23,3.49.25,1.7,0,3.54,0,5.24,0,4.93,0,9.91,0,14.84,0,6.68,0,13.39,0,20.07,0,1.99,0,4.11,0,6.11,0,4.07-.6,7.79-2.55,11.35-4.51"/><path class="b" d="M8.29,95.73c2.88,0,5.84,0,8.73,0,.57-.03,1.35-.53,1.75-.9.78-.57,1.81-1.32,2.62-1.84,2.62-1.7,5.61-3.07,8.73-3.44,6.34-.94,12.11,2.87,18.33,3.04,4.38-.18,8.3-2.58,12.22-4.31,4.1-1.93,8.53-3.44,13.09-3.67,3.47-.25,7.01.32,10.47-.07,6.07-.65,12.45-1.66,18.33.56,9.48,3.43,11.71,10.78,23.57,10.33,6.11-.16,12.23-2.83,18.33-1.26,1.74.36,3.47,1.38,5.24,1.56,3.76,0,7.59,0,11.35,0,3.17,0,6.43,0,9.6,0,1.73-.19,3.52-.87,5.24-1.18,2.69-.75,5.31-2,7.86-3.13"/><path class="b" d="M8.29,90.99c2,0,4.11,0,6.11,0,1.85-.83,3.49-2.34,5.24-3.35,2.12-1.3,4.52-2.38,6.98-2.81,5.53-1.04,10.76,1.62,15.71,3.72,3.31,1.47,7.06,2.22,10.47.64,6.07-2.62,11.17-7.22,17.46-9.42,2.22-.8,4.63-1.33,6.98-1.53,2.29-.16,4.7-.12,6.98-.44,5.48-.71,11.22-1.46,16.58.29,10.76,3.3,13.14,12.4,26.18,11.13,5.79-.48,11.65-3.1,17.46-1.4,2.04.58,4.12,1.47,6.11,2.22,1.07.36,2.34,1.02,3.49.95,1.99,0,4.11,0,6.11,0,2.29,0,4.69,0,6.98,0,1.11-.23,2.41-.69,3.49-1.02,1.95-.68,4.12-1.05,6.11-1.6,2.33-.69,4.7-1.64,6.98-2.47"/><path class="b" d="M8.29,85.24c2.36-.22,4.79-.75,6.98-1.66,2.53-1.17,5.1-2.52,7.86-3.09,7.48-1.86,14.33,2.44,20.95,5.26,1.6.77,3.52.43,5.24.5,1.1,0,2.39,0,3.49,0,.85-.1,1.86-.59,2.62-.96,6.77-3.51,12.64-8.9,20.07-11.07,1.95-.61,4.09-.88,6.11-1.18,2.3-.39,4.68-.92,6.98-1.3,7.07-1.37,14.15-.12,20.07,4.05,2.87,1.97,5.55,4.4,8.73,5.89,6.53,3.41,13.17,2.19,20.07,1.03,3.51-.6,7.13-.15,10.47,1,2.85.89,5.77,1.89,8.73,2.37,2.56.29,5.28.17,7.85.08,2.63-.37,5.28-1.12,7.86-1.77,3.81-.78,7.62-1.86,11.35-2.97"/><path class="b" d="M8.29,78.58c4.36-.6,8.72-1.59,13.09-2.06,3.79-.35,7.69.04,11.35,1.09,2.35.66,4.73,1.57,6.98,2.49,1.1.45,2.39.99,3.49,1.42.79,0,1.83,0,2.62,0,2.88,0,5.85,0,8.73,0,1.1,0,2.39,0,3.49,0,.46-.21,1.31-.66,1.75-.9,5.3-2.98,10.16-6.84,15.71-9.38,2.47-1.18,5.25-1.8,7.86-2.6,3.13-.95,6.35-1.91,9.6-2.3,7.42-1.1,14.36,2.02,20.07,6.54,9.9,7.27,15.09,8.18,27.06,6.14,3.18-.45,6.47-.05,9.6.59,14.29,3.36,20.2,1.22,34.04-1.64"/><path class="b" d="M8.29,72.88c5.52-1,11.08.44,16.58.91,3.49.4,7.04.9,10.47,1.64,2.31.38,4.61,1.49,6.98,1.35,4.64,0,9.33,0,13.96,0,1.4,0,2.96,0,4.36,0,1.13-.06,2.56.27,3.49-.54,4.43-2.69,8.54-6,13.09-8.48,5.81-2.69,11.89-5.52,18.33-6.17,12.35-1.01,18.43,7.46,27.93,12.98,1.61.88,3.45,1.66,5.24,2.11,1.38.21,2.97.08,4.36.11,1.7-.03,3.54.06,5.24-.06,1.4-.25,2.96-.57,4.36-.8,3.73-.61,7.6-.35,11.35.04,2.59.26,5.26.64,7.85.81,3.47-.04,7.01.08,10.47-.05,3.76-.58,7.57-1.3,11.35-1.78"/><path class="b" d="M8.29,68.38c2.32-.18,4.77.11,6.98.84,2.26.85,4.6,1.81,6.98,2.3,2.26.63,4.67.52,6.98.51,3.18,0,6.42,0,9.6,0,6.39,0,12.81,0,19.2,0,2.29,0,4.69,0,6.98,0,.79,0,1.84.03,2.62-.09.45-.32,1.31-.96,1.75-1.28,4.4-3.43,8.84-6.95,13.96-9.25,4.35-2.17,9.05-4.05,13.96-4.25,5.61-.25,11.14,1.86,15.71,5.01,4.19,3.07,7.79,7,12.22,9.75,4.04.28,8.17.03,12.22.11,5.51.02,11.07,0,16.58-.09,5.51.2,11.07.05,16.58.09,4.34-.09,8.77.22,13.09-.18"/><path class="b" d="M8.29,65.16c1.74.11,3.59.5,5.24,1.09,1.11.34,2.29,1.2,3.49,1.05,8.14,0,16.3,0,24.44,0,6.39,0,12.81,0,19.2,0,2,0,4.11,0,6.11,0,1.93,0,2.92.3,4.36-1.24,3.74-3.36,7.67-6.67,12.22-8.89,4.29-2.29,9.05-4.09,13.96-4.16,6.29-.04,12.6,2.45,17.46,6.39,2.06,1.73,4.1,3.74,6.11,5.53,1.05.78,2.1,2.3,3.49,2.38,19.78,0,39.57,0,59.35,0"/><path class="b" d="M8.29,62.56c13.38,0,26.77,0,40.15,0,4.64,0,9.33,0,13.96,0,2.56-.12,5.34.27,7.86-.2,5.01-5.2,9.67-9.45,16.58-12,8.06-3.26,16.25-1.3,23.56,2.85,4.63,2.29,7.94,6.58,12.22,9.35h61.1"/><path class="b" d="M8.29,57.82c13.38,0,26.77,0,40.15,0,4.64,0,9.33,0,13.96,0,1.4,0,2.97,0,4.36,0,1.1-.04,2.44.14,3.49-.22,7.42-8.76,17.66-16.24,29.67-12.67,4.66,1.39,9.01,3.83,13.09,6.42,2.96,2.03,5.69,4.56,8.73,6.47h61.97"/><path class="b" d="M8.29,53.08h61.97c7.46-7.99,18.11-16.18,29.67-12.96,4.71,1.29,9.02,3.84,13.09,6.47,2.88,1.99,5.68,4.29,8.73,6.05,1.24.79,2.96.31,4.36.44,2,0,4.11,0,6.11,0,3.47,0,7.01,0,10.47,0,2.59-.11,5.27-.42,7.86-.06,11.04.16,22.12,0,33.17.06"/><path class="b" d="M8.29,48.34h62.84c3.2-2.21,6.22-4.86,9.6-6.84,3.83-2.44,7.8-4.94,12.22-6.16,9.61-2.86,18.07,3.16,25.31,8.73,2.41,1.68,5,3.46,7.86,4.28,2.59,0,5.27,0,7.86,0,1.7-.03,3.54.07,5.24-.06,1.08-.23,2.39-.48,3.49-.61,3.18-.35,6.48-.05,9.6.64,10.46.1,20.96,0,31.42.04"/><path class="b" d="M8.29,43.6c14.83,0,29.68,0,44.51,0,4.93,0,9.91,0,14.84,0,2.29-.06,4.7.13,6.98-.11,1.42-.74,2.99-1.6,4.36-2.41,7.6-4.4,14.19-12.23,23.57-12.36,10.01.21,15.71,10.2,24.44,13.66,1.34.55,2.92,1.03,4.36,1.22,1.09,0,2.4,0,3.49,0,3.2.19,6.41-.56,9.6-.62,2.91-.16,5.84.64,8.73.62,10.17,0,20.37,0,30.55,0"/><path class="b" d="M8.29,38.86c15.71,0,31.43,0,47.13,0,5.81,0,11.65,0,17.46,0,2.29-.02,4.69.04,6.98-.03,2.17-1.29,4.22-3.02,6.11-4.69,5.65-4.79,11.25-11.57,19.2-11.87,5.32,0,9.36,4.08,13.09,7.37,3.45,3.09,7.04,6.31,11.35,8.16,1.05.44,2.36.9,3.49,1.06,1.7,0,3.54,0,5.24,0,3.76,0,7.59,0,11.35,0,11.34,0,22.7,0,34.04,0"/><path class="b" d="M8.29,34.13c25.31-.06,50.63.12,75.93-.07,6.54-5.3,12.56-14.27,20.95-16.4,3.89-.92,7.54,1.23,10.47,3.57,5.47,4.25,10.58,9.59,17.46,11.46,3.68,1.03,7.59.73,11.35.37,4.04-.38,8.15-.78,12.22-.77,9.07-.09,17.99,2.27,27.06,1.84"/><path class="b" d="M8.29,29.39c17.16,0,34.33,0,51.49,0,6.1,0,12.23,0,18.33,0,3.17-.11,6.46.24,9.6-.17,6.08-4.79,15.11-16.56,23.56-14.28,5.04,1.61,9.3,5.01,13.96,7.4,5.03,2.78,10.83,4.23,16.58,3.68,6.41-.51,12.72-2.48,19.2-2.12,5.32.25,10.61,1.49,15.71,2.97,1.11.4,2.42.95,3.49,1.45,1.04.48,2.29,1.23,3.49,1.07"/><path class="b" d="M8.29,24.65c7.26,0,14.56,0,21.82,0,2.88-.04,5.85.09,8.73-.06,1.66-.47,3.5-.86,5.24-.93,1.11-.04,2.42.08,3.49.35.78.22,1.8.64,2.62.64,3.47,0,7,0,10.47,0,9.88,0,19.79,0,29.67,0,6.21-3.54,12.78-10.76,20.07-11.34,6.01.23,11.67,2.76,17.46,4.17,5.09,1.35,10.46,2.03,15.71,1.38,13.27-2.5,16.52-3.97,29.67,1.7,2.04.79,4.16,1.74,6.11,2.75.77.39,1.85.94,2.62,1.34.41,0,1.33,0,1.75,0"/><path class="b" d="M8.29,19.91c9.01,0,18.05,0,27.06,0,1.18-.02,2.38-.81,3.49-1.14,1.65-.57,3.49-1.01,5.24-1.02,1.46,0,3.05.35,4.36.98,1.08.43,2.3,1.22,3.49,1.18,9.01,0,18.05,0,27.06,0,4.93,0,9.91,0,14.84,0,6.59-1.85,12.15-7.09,19.2-7.38,8.75-.91,17.46.92,26.18,1.17,4.44.17,8.75-1.23,13.09-1.87,3.8-.56,7.78-.14,11.35,1.28,4.63,1.69,8.57,4.94,13.09,6.8,2.29,0,4.69,0,6.98,0"/></svg>