<?xml version="1.0" encoding="UTF-8"?><svg id="a" xmlns="http://www.w3.org/2000/svg" width="1920" height="2400" viewBox="0 0 192 240"><defs><style>.b{fill:none;stroke:#fff;stroke-miterlimit:10;stroke-width:.4px;}.c{stroke-width:0px;}</style></defs><rect class="c" width="192" height="240"/><path class="b" d="M7.63,219.57c3.52-.02,7.06.78,10.55,1.11,3.51.61,7.01,1.64,10.55,2.03,3.49.42,7.08.19,10.55-.3,3.17-.39,6.51-1.01,9.67-.29,5.31,1.64,9.13,6.12,13.19,9.67,28.43,0,56.87,0,85.3,0,3.2-.07,6.49.14,9.67-.1,2.88-.97,5.86-1.9,8.79-2.69,6.07-1.63,12.36-2.47,18.47-3.96"/><path class="b" d="M7.63,214.3c2.35.08,4.74.68,7.03,1.13,3.78.58,7.6,1.37,11.43,1.5,4.17.16,8.32-.77,12.31-1.9,3.39-.89,7.06-2.01,10.55-1.08,6.11,2.25,10.44,8.42,14.95,12.89,2.87.39,5.9.06,8.79.16,5.26,0,10.57,0,15.83,0,15.24,0,30.49,0,45.73,0,8.78,0,17.6,0,26.38,0,3.23.17,6.49-.38,9.67-.87,4.81-.59,9.54-1.79,14.07-3.5"/><path class="b" d="M7.63,209.69c2.67.4,5.29,1.38,7.91,1.95,7.71,1.73,14.03.28,21.1-2.89,3.84-1.55,8.13-3.56,12.31-2.23,3.42,1.22,6.2,3.87,8.79,6.32,3.21,3.1,6.29,6.49,9.67,9.39,24.91,0,49.83,0,74.75,0,8.49,0,17.01,0,25.5,0,3.79,0,7.64,0,11.43,0,1.8-.19,3.57-1.19,5.28-1.78"/><path class="b" d="M7.63,205.24c2.66.65,5.26,1.79,7.91,2.46,5.66,1.47,11.57.02,16.71-2.51,5.42-2.39,11.5-6.92,17.59-4.15,4.61,2.13,8.35,5.8,12.31,8.9,3.76,2.91,7.71,6.11,12.31,7.52,2.61,0,5.31,0,7.91,0,3.79,0,7.64,0,11.43,0,2.31-.13,4.71-.58,7.03-.51,2.32,0,4.73.26,7.03.51,7.61,0,15.25,0,22.86,0,3.79,0,7.64,0,11.43,0,2.01-.18,4.11-.75,6.16-.56,1.42.06,3,.28,4.4.55,4.67.03,9.4,0,14.07.01,3.79,0,7.64,0,11.43,0,1.09,0,2.42,0,3.52,0,.79,0,1.9.08,2.64-.28"/><path class="b" d="M7.63,200.82c2.65.73,5.25,1.91,7.91,2.61,6.39,1.74,12.83-.82,18.47-3.71,4.09-1.94,8.5-4.53,13.19-3.76,6.14,1.56,11.09,5.95,16.71,8.69,3.85,2.03,8.06,3.44,12.31,4.35,2.3.49,4.67,1.17,7.03,1.24,5.56.14,11.14-.91,16.71-.59,4.69.25,9.4.86,14.07,1.28,3.79.56,7.6,1.48,11.43,1.74,2.91.04,5.92.12,8.79-.41,3.53-.52,7.02-1.66,10.55-2.13,2.96-.26,5.98.43,8.79,1.29,1.7.45,3.47,1.41,5.28,1.27,5.26,0,10.57,0,15.83,0,1.71,0,3.57,0,5.28,0,1.41-.01,3.03.11,4.4-.34"/><path class="b" d="M7.63,196.65c2.66.6,5.28,1.66,7.91,2.33,5.33,1.39,10.9-.03,15.83-2.18,4.54-1.83,9.05-4.53,14.07-4.58,2.77.06,5.42,1.31,7.91,2.38,3.45,1.57,6.94,3.28,10.55,4.46,4.25,1.44,8.77,1.95,13.19,2.6,2.02.32,4.11.91,6.16,1.07,3.19.31,6.47.25,9.67.35,5.3.09,10.58.87,15.83,1.53,5,.3,9.97,1.28,14.95,1.78,5.91.6,11.83-.49,17.59-1.71,3.77-.96,7.74-.5,11.43.61,2.92.82,5.85,1.88,8.79,2.62,2.01,0,4.15,0,6.16,0,2.9-.05,5.9.11,8.79-.08,2.56-.69,5.28-1.21,7.91-1.53"/><path class="b" d="M7.63,193.33c4.14.45,8.11,2.24,12.31,2.2,8.59.14,15.6-5.78,23.74-7.48,6.06-1.12,12.72,3.52,18.47,5.33,5.91,2.28,12.31,2.53,18.47,3.69,4.34.68,8.81.33,13.19.43,4.11.04,8.25.48,12.31,1.08,3.19.51,6.5.71,9.67,1.3,6.06,1.2,12.29,2.11,18.47,1.28,3.51-.37,7.03-1.22,10.55-1.45,2.02-.07,4.17.18,6.16.55,6.93,1.36,13.99,3.54,21.1,2.25,4.07-.86,8.12-2.12,12.31-2.29"/><path class="b" d="M7.63,191.83c3.26.24,6.44,1.34,9.67,1.73,8.8.98,16.06-4.99,23.74-8.22,2.19-.88,4.66-1.53,7.03-1.22,4.53.63,8.82,2.46,13.19,3.7,6.28,2.01,12.92,2.37,19.35,3.65,4.06.66,8.24.21,12.31-.05,3.78-.26,7.65-.35,11.43-.05,3.51.32,7.11.67,10.55,1.45,4.38,1.05,8.73,2.48,13.19,3.16,4.63.77,9.4.64,14.07.32,3.2-.27,6.49.02,9.67.44,5.52.75,11.13,1.52,16.71,1.02,5.32-.44,10.5-2.1,15.83-2.52"/><path class="b" d="M7.63,191.41c3.8.56,7.54,2.16,11.43,1.96,9.48-.57,16.12-8.51,24.62-11.71,2.52-.98,5.3-.7,7.91-.41,3.2.34,6.47.79,9.67,1.11,4.67.5,9.42.65,14.07,1.25,2.94.33,5.83,1.41,8.79,1.55,7.92.41,15.82-1.63,23.74-.82,8.57.59,16.26,5.02,24.62,6.65,6.63,1.44,13.51,1.12,20.23,1.91,10.58,1.13,21.21-.21,31.66-1.87"/><path class="b" d="M7.63,188.82h21.98c5.48-3.56,10.18-8.98,16.71-10.59,2.89-.32,5.9-.21,8.79-.62,6.7-.7,13.46-2.31,20.22-1.53,2.39.23,4.72,1.15,7.04,1.69,9.56,2.2,19.42-1.05,29.02.72,9.26,1.98,17.89,6.31,27.26,7.89,10.15,1.74,20.5,2.31,30.78,1.72,4.99-.13,10.03-.17,14.95-1.09"/><path class="b" d="M7.63,184.05c5.85,0,11.74,0,17.59,0,2.01,0,4.14,0,6.16,0,2.36.22,2.78-.52,4.4-1.94,3.38-2.84,6.93-6.19,11.43-6.99,2.35-.13,4.78-.54,7.03-1.23,7.67-2.23,15.57-6.5,23.74-4.37,5.11,1.8,10.38,3.35,15.83,3.6,6.14.46,12.43-.29,18.47,1.12,13.43,2.83,26.77,6.51,40.45,7.94,5.83.53,11.74.39,17.59.54,2.31.03,4.72.35,7.03.41,2.32.02,4.74-.24,7.04-.51"/><path class="b" d="M7.63,179.27c6.14,0,12.32,0,18.47,0,3.19-.08,6.49.18,9.67-.12,11.39-10.41,9.7-5.04,21.1-9.97,6.59-2.85,13.75-6.61,21.1-4.64,3.24.99,6.41,2.43,9.67,3.37,5.96,1.92,12.26,2.46,18.47,2.98,2.94.21,5.88,1,8.79,1.42,6.4.84,12.92.39,19.35.79,4.45.16,8.83,1.21,13.19,2.01,6.96,1.18,14.07,1.13,21.1,1.47,2.92.1,5.89.6,8.79.89,2.31.15,4.73.04,7.04-.11"/><path class="b" d="M7.63,174.5c9.37,0,18.77,0,28.14,0,1.36-.06,2.41-1.55,3.52-2.22,1.61-1.2,3.43-2.42,5.28-3.22,2.19-1.03,4.74-.9,7.03-1.52,2.97-.73,5.91-1.85,8.79-2.86,8.23-2.98,14.53-3.92,22.86-.65,4.04,1.36,8.15,2.71,12.31,3.63,4.33.99,8.81,1.5,13.19,2.21,7.99,2.01,13.33.44,21.1-1.2,4.31-.87,8.83-1.45,13.19-.6,8.08,1.79,16.4,1.96,24.62,2.4,3.22.14,6.48.65,9.67,1.02,2.3.19,4.73.16,7.04.11"/><path class="b" d="M7.63,169.72c9.37,0,18.77,0,28.14,0,1.31.2,2.46-.97,3.52-1.56,1.92-1.2,4.02-2.4,6.16-3.16,2.84-.9,5.92-1.15,8.79-1.93,4.65-1.08,9.33-2.29,14.07-2.89,8.01-1.24,16.05.37,23.74,2.59,6.38,1.77,12.82,3.48,19.35,4.66,7.64,1.38,14.79-2.71,21.98-4.61,2.54-.7,5.27-1.18,7.91-1.07,3.83.31,7.65,1.24,11.43,1.9,5.55,1.08,11.13,2.2,16.71,3.12,4.92.88,9.94,1.45,14.95,1.18"/><path class="b" d="M7.63,164.95c9.96,0,19.94,0,29.9,0,1.2-.15,2.41-.99,3.52-1.45,2.25-1.05,4.63-2.06,7.03-2.7,9.21-2.3,18.75-2.94,28.14-4.18,10.02-1.7,17.1.53,26.38,3.91,4.76,1.69,9.86,3.2,14.95,2.31,7.22-1.07,13.86-4.68,21.1-5.64,11.36-1.13,21.72,5.1,32.54,7.47,1.67.44,3.57.23,5.28.27,2.61,0,5.31,0,7.91,0"/><path class="b" d="M7.63,160.17c7.61,0,15.25,0,22.86,0,3.5,0,7.06,0,10.55,0,2.07-.53,4.14-1.49,6.16-2.2,5.29-2.14,11.11-2.22,16.71-2.84,5.38-.54,10.73-1.73,15.83-3.52,7.75-2.87,14.85-.78,21.98,2.64,3.61,1.63,7.39,3.39,11.43,3.39,8.93.39,17.56-2.54,26.38-3.35,4.42-.44,8.95.09,13.19,1.4,3.89,1.16,7.67,2.82,11.43,4.32,2.29.31,4.73.06,7.03.14,4.38,0,8.81,0,13.19,0"/><path class="b" d="M7.63,155.4c9.37,0,18.77,0,28.14,0,3.2,0,6.47,0,9.67,0,1.17-.24,2.41-.92,3.52-1.34,1.37-.51,2.95-.91,4.4-1.15,4.35-.7,8.85-.68,13.19-1.48,4.27-.74,8.44-2.26,12.31-4.2,6.09-3.43,12.11-3.9,18.47-.84,4.13,1.81,7.91,4.62,12.31,5.78,2.57.5,5.31.38,7.91.63,5.55.36,11.15.61,16.71.5,5.56,0,11.19-.93,16.71.05,1.73.28,3.59.72,5.28,1.2,1.1.26,2.37.88,3.52.85,8.2,0,16.42,0,24.62,0"/><path class="b" d="M7.63,150.62c11.72,0,23.46,0,35.17,0,1.41-.02,2.99.05,4.4-.05,2.45-1.19,5.21-1.82,7.91-2.05,10.58-.57,16.09-1.05,25.5-6.55,5.5-3.06,11.27-2.74,16.71.28,4.13,2.09,7.82,5.26,12.31,6.57,1.68.42,3.57.32,5.28.56,2.62.29,5.32.77,7.91,1.23,5.26.03,10.57,0,15.83.01,15.24,0,30.49,0,45.73,0"/><path class="b" d="M7.63,145.85c11.72,0,23.46,0,35.17,0,1.41-.04,3,.12,4.4-.13,2.47-1.11,5.22-1.7,7.91-1.88,10.01-.4,16.15-.17,25.5-4.8,5.14-2.4,10.88-1.92,15.83.72,2.39,1.19,4.74,2.7,7.03,4.07,1.37.71,2.82,1.9,4.4,2.02,8.2,0,16.42,0,24.62,0,17.29,0,34.59,0,51.88,0"/><path class="b" d="M7.63,141.08c10.84-3.04,11.35-4.47,22.86-.98,1.11.32,2.4.73,3.52.98,1.41,0,2.98,0,4.4,0,2.9,0,5.89,0,8.79,0,1.17.11,2.39-.67,3.52-.92,1.68-.48,3.54-.82,5.28-1.01,5.24-.58,10.58-.26,15.83-.73,3.58-.22,7.09-1.23,10.55-2.05,2.87-.57,5.92-.61,8.79-.05,4.32.81,8.34,2.82,12.31,4.64,3.47.33,7.06.04,10.55.13,5.85,0,11.74,0,17.59,0,11.72,0,23.46,0,35.17,0,.77,0,1.87,0,2.64,0,1.7-.37,3.53-.9,5.28-1.07,3.19-.35,6.49,0,9.67.29"/><path class="b" d="M7.63,133.46c3.54-.91,6.91-2.75,10.55-3.22,4.67-.37,9.05,1.87,13.19,3.74,1.98.79,4.01,2.1,6.16,2.32,2.31,0,4.72,0,7.03,0,1.72-.08,3.68.29,5.28-.49,6.12-2.45,12.83-3.02,19.35-2.28,2.9.26,5.88.65,8.79.66,2.9-.08,5.89-.34,8.79-.18,3.23.13,6.51.59,9.67,1.26,1.72.27,3.53,1.03,5.28,1.04,18.46,0,36.94,0,55.4,0,3.49,0,7.06,0,10.55,0,5.75-3.2,10.18-4.1,16.71-2.71"/><path class="b" d="M7.63,127.06c3.26-.87,6.37-2.49,9.67-3.18,7.81-.92,14.05,5.35,21.1,7.64,2.9.04,5.89,0,8.79.02.88.08,1.86-.5,2.64-.83,1.4-.62,2.96-1.3,4.4-1.83,3.89-1.49,8.17-2.19,12.31-1.6,3.58.45,7.06,1.69,10.55,2.56,2.27.56,4.71.78,7.03,1.04,5.54.65,11.14.73,16.71.66,6.14,0,12.32,0,18.47,0,14.36,0,28.73,0,43.09,0,1.09,0,2.42,0,3.52,0,.84.03,1.97.08,2.64-.55,5.21-3.23,9.66-4.79,15.83-3.26"/><path class="b" d="M7.63,122.47c6.27-1.62,10.03-4.7,16.71-2.07,3.33,1.2,6.47,3,9.67,4.49,1.38.64,2.94,1.29,4.4,1.74,1.1.21,2.41.1,3.52.12,1.71-.03,3.57.07,5.28-.06,1.45-.58,3-1.39,4.4-2.08,5.94-3.18,11.89-4.87,18.47-2.51,2.66.87,5.28,2.13,7.91,3.07,1.96.68,4.12,1.15,6.16,1.54,9.37.13,18.77-.01,28.14.04,14.65,0,29.32,0,43.97,0,3.49,0,7.06,0,10.55,0,.89.18,1.88-.55,2.64-.93.76-.42,1.86-.98,2.64-1.38,3.84-2.16,7.96-2.97,12.31-2.04"/><path class="b" d="M7.63,119.97c4.98-1.14,9.72-3.72,14.95-2.31,3,.65,5.93,1.86,8.79,2.95,1.4.47,2.91,1.25,4.4,1.37,2.9,0,5.89,0,8.79,0,1.11-.02,2.42.06,3.52-.09,1.44-.66,2.99-1.5,4.4-2.23,6.53-3.6,12.3-4.73,19.35-1.77,3.98,1.65,8,3.51,12.31,4.08,1.71,0,3.56,0,5.28,0,7.61,0,15.25,0,22.86,0,14.06,0,28.15,0,42.21,0,3.49,0,7.06,0,10.55,0,.84.08,1.88-.42,2.64-.72,1.11-.46,2.43-1.05,3.52-1.55,4.4-2.2,8.14-3.6,13.19-2.86"/><path class="b" d="M7.63,117.2c1.42,0,2.98,0,4.4,0,1.41-.38,2.96-.82,4.4-1.07,2.6-.43,5.33-.23,7.91.19,1.42.23,2.99.56,4.4.86,1.41.04,2.98.01,4.4.02,4.08,0,8.23,0,12.31,0,1.99.29,3.57-.88,5.28-1.69,1.96-1,4.06-2.02,6.16-2.71,5.76-2.09,11.49-.26,16.71,2.39,1.39.66,2.95,1.39,4.4,1.91,1.4.21,2.99.07,4.4.11,17.29,0,34.59,0,51.88,0,2.01-.06,4.16.15,6.16-.13,1.71-.36,3.52-1.02,5.28-1.15,3.83-.25,7.64.84,11.43,1.18,12.58,1.24,16.42-5.36,27.26-5.73"/><path class="b" d="M7.63,112.43c12.6,0,25.21,0,37.81,0,4.94-1.76,9.47-5.3,14.95-5.23,5.19-.1,9.63,2.97,14.07,5.23,6.73,0,13.5,0,20.23,0,10.54,0,21.11,0,31.66,0,4.93-1.22,9.96-2.22,14.95-3.18,5.5-1.8,9.74.38,14.95,1.88,11.2,3.55,17.89-2.64,28.14-5.17"/><path class="b" d="M7.63,107.65c10.84,0,21.7,0,32.54,0,1.71-.02,3.56.05,5.28-.05,1.14-.45,2.44-1.11,3.52-1.69,4.24-2.34,9.15-4.49,14.07-3.21,3.51.83,6.65,2.87,9.67,4.75,1.08.33,2.41.16,3.52.2,1.71,0,3.56,0,5.28,0,5.26,0,10.57,0,15.83,0,8.2,0,16.42,0,24.62,0,1.18.13,2.41-.68,3.52-1.01,1.68-.61,3.53-1.17,5.28-1.56,4.02-.96,8.24-1.03,12.31-1.7,3.97-.8,7.79,1.29,11.43,2.57,3.88,1.52,8.2,2.23,12.31,1.35,6.17-1.46,11.82-4.59,17.59-7.13"/><path class="b" d="M7.63,102.88c12.89,0,25.8,0,38.69,0,5.05-2.3,9.95-6.23,15.83-5.47,4.2.47,7.87,2.9,11.43,5,.97.74,2.38.4,3.52.47,1.71,0,3.56,0,5.28,0,5.55,0,11.15,0,16.71,0,7.32,0,14.67,0,21.98,0,7.51-2.92,10.36-3.33,18.47-2.81,1.72.12,3.56-.16,5.28-.19,3.34.19,6.49,1.73,9.67,2.63,1.94.65,4.14.3,6.16.38,1.71-.09,3.63.25,5.28-.28,3.32-1.01,6.43-2.79,9.67-4,3.03-1.26,5.87-3.14,8.79-4.62"/><path class="b" d="M7.63,97.84c2.03.1,4.17-.11,6.16-.54,2.28-.55,4.65-1.28,7.03-1.09,2.98.14,5.94.97,8.79,1.76,2,.27,4.14.06,6.16.12,3.79,0,7.64,0,11.43,0,1.89-.51,3.57-1.94,5.28-2.87,2.44-1.47,5.09-2.87,7.91-3.41,5.7-1.2,10.85,2.12,15.83,4.35,1.91.92,4.16,1.05,6.16,1.7,1.07.38,2.41.19,3.52.23,1.71,0,3.56,0,5.28,0,5.55,0,11.15,0,16.71,0,4.08,0,8.23,0,12.31,0,2.61-.66,5.18-1.88,7.91-2.04,4.44-.53,8.81.97,13.19,1.36,1.41.1,2.99-.17,4.4.02,1.43.09,2.97.72,4.4.66,2.9,0,5.89,0,8.79,0,1.71-.07,3.6.18,5.28-.17,3.04-1.25,5.87-3.13,8.79-4.61,1.36-.71,3.03-1.21,4.4-1.9,2.35-1.17,4.68-2.63,7.04-3.8"/><path class="b" d="M7.63,90.88c2.96.18,5.98-.39,8.79-1.29,2.26-.65,4.74-.58,7.03-.14,4.49.88,8.73,2.87,13.19,3.87,2.9.01,5.89,0,8.79,0,4.54-1.31,8.11-4.78,12.31-6.82,5.66-3.07,10.97-2.28,16.71,0,1.39.5,2.95,1.04,4.4,1.35,1.45.2,3.05.58,4.4,1.17,2.7,1.15,5.29,2.74,7.91,4.05,1.35.47,2.99.17,4.4.25,2.61,0,5.31,0,7.91,0,3.79,0,7.64,0,11.43,0,1.41-.01,2.99.04,4.4-.04,1.09-.39,2.4-.82,3.52-1.12,3.42-.95,7.1-.97,10.55-.21,2.02.39,4.12,1.07,6.16,1.37,1.1,0,2.42,0,3.52,0,3.79,0,7.64,0,11.43,0,1.41,0,2.99,0,4.4,0,.8.04,1.92-.02,2.64-.42,3.75-1.57,7.04-4.15,10.55-6.17,1.6-.98,3.56-1.52,5.28-2.24,2.32-1,4.67-2.22,7.04-3.1"/><path class="b" d="M7.63,83.58c2.32.21,4.77,0,7.03-.53,2.55-.75,5.25-1.24,7.91-1.02,7.94.49,15.72,4.53,23.74,2.69,3.41-.81,6.5-2.7,9.67-4.12,3.28-1.53,6.9-2.66,10.55-2.6,3.57,0,7.08,1.06,10.55,1.77,2.34.41,4.85.5,7.03,1.55,8.84,4.11,13.31,7.83,23.74,7.23,2.01-.04,4.17.05,6.16-.34,2.35-.49,4.71-1.36,7.03-1.97,7.62-2.19,12.2.19,19.35,1.83,2.59.42,5.31-.02,7.91.14,8.82.42,14.24-3.71,21.1-8.46,1.33-.87,2.9-1.78,4.4-2.32,1.07-.36,2.43-.58,3.52-.86,2.29-.57,4.68-1.21,7.04-1.44"/><path class="b" d="M7.63,75.94c5.35.84,10.52-1.34,15.83-1.48,7.04-.43,14.07.97,21.1.9,6.23-.09,12.24-2.31,18.47-2.57,4.1-.27,8.24.2,12.31.59,2.3.3,4.75.04,7.04.48,4.29.95,8.21,3.2,12.31,4.72,4.18,1.65,8.7,2.5,13.19,2.62,2.01.03,4.16.28,6.16-.04,3.81-.66,7.53-2.16,11.43-2.3,3.6-.2,7.19.81,10.55,1.99,1.68.57,3.52,1.2,5.28,1.49,1.4.23,2.99.11,4.4.06,6.56-.04,12.42-2.85,17.59-6.7,2.81-1.96,5.6-4.21,8.79-5.53,1.62-.71,3.54-.71,5.28-.72,2.31-.05,4.75.01,7.04.42"/><path class="b" d="M7.63,68.22c6.23.9,12.36-1,18.47-1.9,6.1-1,12.35-.91,18.47-.14,11.36,1.36,22.85,2.89,34.29,1.64,5.19-.76,10.16,1.55,14.95,3.19,4.8,1.76,9.84,3.03,14.95,3.47,1.71.15,3.56.4,5.28.18,2.64-.34,5.29-1.18,7.91-1.61,13.07-2.26,16.74,8.11,30.78,2.32,4.14-1.74,7.79-4.53,11.43-7.11,2.67-1.84,5.52-3.89,8.79-4.42,1.42-.21,3.01.17,4.4.43,2.35.45,4.79,1.05,7.04,1.89"/><path class="b" d="M7.63,60.72c3.2.27,6.49.22,9.67-.18,2.94-.41,5.89-1.19,8.79-1.8,5.47-1.23,11.21-1.56,16.71-.33,7.96,1.62,15.44,5.91,23.74,5.55,13.94-.85,12.96-5.14,28.14.78,5.93,2.16,12.1,4.29,18.47,4.49,2.95-.13,5.87-1.07,8.79-1.45,3.22-.48,6.6-.15,9.67.9,6.86,2.41,10.76,5.82,18.47,3.13,4.16-1.42,7.84-4.05,11.43-6.53,3.46-2.3,7.11-5.16,11.43-5.26,1.47,0,3.02.65,4.4,1.1,2.34.77,4.77,1.62,7.04,2.58"/><path class="b" d="M7.63,53.8c3.5.06,7.07,0,10.55-.37,3.5-.44,7.03-1.23,10.55-1.52,10.58-1.09,17.77,3.52,27.26,6.6,13.13,3.84,19.44-5.15,29.02-3.44,8.63,1.87,15.88,7.8,24.62,9.4,5.57,1.34,11.1-1.59,16.71-.8,5.06.5,9.41,3.42,14.07,5.18,1.92.8,4.13.62,6.16.61,9.64-1.04,17.97-12.26,26.38-11.83,1.49.13,3,.9,4.4,1.39,2.29.84,4.73,1.62,7.04,2.41"/><path class="b" d="M7.63,48.01c6.16.01,12.32-.84,18.47-.96,4.17-.02,8.37.75,12.31,2.1,6.63,2.17,13.02,6.22,20.23,5.79,4.36-.23,8.47-2.09,12.31-4.03,3.32-1.61,6.76-3.65,10.55-3.73,7.84.32,15.07,7.67,21.98,11.1,3.23,1.7,6.85,3.12,10.55,2.99,8.96-.83,12.42-1.79,21.1,2.27.77.35,1.86.82,2.64,1.15,1.41,0,2.99,0,4.4,0,2.9,0,5.89,0,8.79,0,5.95-2.02,10.78-6.57,16.71-8.7,2.89-1.14,6.01-.95,8.79.43,2.53.92,5.27,1.5,7.91,1.99"/><path class="b" d="M7.63,43.7c6.15-.04,12.31-1.02,18.47-.77,5.17.22,10.2,1.81,14.95,3.78,6.05,2.58,11.81,5.11,18.47,3.08,4.06-1.13,7.77-3.34,11.43-5.36,2.99-1.6,6.2-3.37,9.67-3.42,6.53.29,11.65,5.19,16.71,8.82,4.75,3.52,9.78,7.45,15.83,8.17,2.89.3,5.89.05,8.79.08,4.15-.03,8.32.73,12.31,1.82,4.67.02,9.4,0,14.07,0,1.84-.22,3.6-1.37,5.28-2.1,2.89-1.44,5.81-3.06,8.79-4.3,11.35-4.63,11.64,1.19,21.98,1.35"/><path class="b" d="M7.63,40.69c9.07-.15,18.36-2.3,27.26.37,6.97,1.74,13.68,6.13,21.1,4.75,7.81-1.16,14.22-6.69,21.98-7.94,10.61-1.23,21.52,12.47,31.66,16.14,1.37.5,2.93,1.07,4.4,1.13,2.31,0,4.72,0,7.03,0,5.85,0,11.74,0,17.59,0,1.41,0,2.99,0,4.4,0,.42,0,1.34,0,1.76,0,.43-.16,1.34-.52,1.76-.73,6.79-3.2,13.22-8.56,21.1-8.25,3.46.03,6.58,1.74,9.67,3.08,2.22.8,4.69,1.13,7.04,1.16"/><path class="b" d="M7.63,38.67c8.78-.19,17.63-2.38,26.38-.73,4.17.73,8.22,2.18,12.31,3.2,4.3,1.15,8.87.94,13.19.03,8.54-1.78,16.8-5.59,25.5-2.21,8.11,2.72,15.01,8.15,22.86,11.39,4.38,0,8.81,0,13.19,0,7.32-.03,14.67.05,21.98-.03,4.45-2.17,8.09-5.75,12.31-8.31,5.21-3.4,10.99-4.23,16.71-1.46,1.76.77,3.52,1.9,5.28,2.67,2.2.95,4.66,1.55,7.04,1.81"/><path class="b" d="M7.63,37.2c3.8-.24,7.64-.71,11.43-.97,3.48-.36,7.05-.74,10.55-.61,5.07.12,10.03,1.43,14.95,2.53,4.6,1.03,9.38,1.06,14.07.93,5.85-.17,11.76-.51,17.59.21,6.88.94,13.64,2.84,20.23,4.99,1.42.4,2.92,1.19,4.4,1.31,2.61,0,5.31,0,7.91,0,5.85,0,11.74,0,17.59,0,3.79,0,7.64,0,11.43,0,2-.11,4.2.27,6.16-.23,5.22-3.76,9.19-9.24,14.95-12.26,6.33-3.43,12.01-.45,17.59,2.87,2.48,1.34,5.21,2.44,7.91,3.23"/><path class="b" d="M7.63,35.71c3.78-.41,7.62-.88,11.43-.92,3.79-.2,7.66-.29,11.43.19,6.24.65,12.19,3.18,18.47,3.52,5.26.33,10.58.49,15.83,1.03,3.52.23,7.04,1.14,10.55,1.28,10.54,0,21.11,0,31.66,0,8.78,0,17.6,0,26.38,0,3.2,0,6.47,0,9.67,0,.77,0,1.86,0,2.64,0,1.37-.67,2.45-2.21,3.52-3.26,5.69-6.22,12.64-14.59,21.98-10.39,4.46,1.99,8.64,4.69,13.19,6.49"/><path class="b" d="M7.63,33.55c2.3-.34,4.7-.76,7.03-.85,4.39.03,8.86.33,13.19,1.13,2.96.51,5.89,1.5,8.79,2.2,1.71,0,3.56,0,5.28,0,22.86,0,45.73,0,68.59,0,12.59-.1,25.23.2,37.81-.11,6.03-6.32,12.84-16.22,22.86-13.52,4.59,1.32,8.83,3.74,13.19,5.65"/><path class="b" d="M7.63,31.24c2.29-.43,4.7-.86,7.03-.8,2.03.1,4.15.51,6.16.83,4.38,0,8.81,0,13.19,0,30.77,0,61.56,0,92.33,0,7.32,0,14.67,0,21.98,0,1.47-.25,2.42-1.97,3.52-2.86,1.93-1.92,4.02-3.93,6.16-5.62,8.94-7.37,16.64-5.03,26.38-.85"/><path class="b" d="M7.63,26.49h139.82c4.15-2.84,7.93-6.35,12.31-8.86,7.44-4.66,16.45-5.19,24.62-2.19"/><path class="b" d="M7.63,21.71c40.16,0,80.32,0,120.47,0,4.67,0,9.4,0,14.07,0,4.43-2.16,8.73-4.73,13.19-6.85,5.03-2.45,10.35-4.48,15.83-5.66,4.31-1.06,8.85-1.37,13.19-.33"/></svg>