<?xml version="1.0" encoding="UTF-8"?><svg id="a" xmlns="http://www.w3.org/2000/svg" width="1920" height="2400" viewBox="0 0 192 240"><defs><style>.b{fill:none;stroke:#fff;stroke-miterlimit:10;stroke-width:.3px;}.c{stroke-width:0px;}</style></defs><rect class="c" width="192" height="240"/><path class="b" d="M13.7,213.23c2.59,1.07,5.43,1.61,8.19,2.05,3.63.61,7.43-.06,10.65-1.85,2.96-1.64,5.64-3.95,9.01-4.76,3.28-1.02,6.8-1.69,9.83-3.39,5-2.71,8.83-7.96,14.74-8.77,1.88-.25,3.88.04,5.73.38,1.89.26,3.92.42,5.73,1.07,4.2,1.39,8.62,3.31,13.1,2.09,3.48-.64,6.34-3.19,9.83-3.78,6.44-1.03,12.34,7.96,16.38,12.08,2.06,2.23,4.54,4.26,7.37,5.43,1.87.81,3.96,1.42,5.73,2.43,6.39,3.95,11.25,11.09,19.65,7.51,7.77-2.8,11.29-1.66,18.84.93,3.73,1.72,6.71,4.76,9.83,7.36"/><path class="b" d="M13.7,211.81c2.42.33,4.94.1,7.37.2,4.42.16,9.11.12,13.1-2.02,2.15-1.2,4.19-2.82,6.55-3.63,3.47-1.4,7.27-2.07,10.65-3.71,6.41-2.96,11.01-10.57,18.84-9.58,2.98.35,6.04.56,9.01.93,3.79.44,7.65.86,11.47.46,3.39.07,6.53-1.49,9.83-2.01,8.07-1.17,12.85,8.34,18.02,13.1,2.93,3.06,6.55,5.42,9.83,8.07,2.88,2.31,5.25,5.35,8.19,7.59,6.86,5.29,10.83-.05,18.02-.76,4.63-.64,9.35.2,13.92.88,3.94,1.31,6.82,4.65,9.83,7.35"/><path class="b" d="M13.7,210.38c2.74-.16,5.45-1.07,8.19-1.27,3.52-.4,7.2-.19,10.65-1.12,2.71-.66,4.84-2.7,7.37-3.75,3.14-1.42,6.55-2.27,9.83-3.3,2.62-.93,5.18-2.32,7.37-4.04,3.52-2.84,7.48-6.05,12.28-5.61,2.43.2,4.93.67,7.37.36,5.42-.58,10.9-2.31,16.38-1.43,4.62.28,9.53-2.13,13.92.21,3.68,2,6.02,5.82,9.01,8.65,3.38,3.64,7.27,6.87,10.65,10.52,4.04,3.87,7.7,11.45,13.1,12.88,2.97.68,5.66-1.21,8.19-2.47,1.76-.81,3.8-1.19,5.73-1.25,4.63-.17,9.31.94,13.92.24,4.22-.05,7.51,3.23,10.65,5.65"/><path class="b" d="M13.7,207.52c3.05-.21,5.97-1.51,9.01-1.88,3.23-.54,6.61-.42,9.83-1.09,2.39-.41,4.36-2.04,6.55-2.96,2.34-.97,4.9-1.55,7.37-2.03,4.66-.6,8.61-2.38,12.28-5.28,3.33-2.54,7.21-4.19,11.47-3.47,2.15.31,4.44.51,6.55-.11,4.59-1.31,9.02-3.85,13.92-3.64,1.61.17,3.28.74,4.91.71,4.91-.03,9.96-1.21,13.92,2.58,2.37,2.46,4.67,5.15,7.37,7.27,2.98,2.55,6.37,4.77,9.01,7.69,2.45,2.65,4.55,5.79,6.55,8.79,1.76,2.5,3.69,5.34,6.55,6.65,5.63,2.1,8-4.26,14.74-3.67,4.07.12,8.25,1.1,12.28.21,4.46-1.85,8.63.76,12.28,3.16"/><path class="b" d="M13.7,202.5c3.3.09,6.55-1.11,9.83-1.4,3.8-.53,7.83-.34,11.47-1.75,3.83-2.1,7.13-2.68,11.47-2.49,2.16.09,4.44.21,6.55-.37,2.35-.62,4.45-2.08,6.55-3.23,2.24-1.26,4.78-2.24,7.37-2.35,2.98-.16,6.09.69,9.01-.21,4.77-1.44,8.94-4.66,13.92-5.49,1.32-.24,2.78.06,4.09.23,1.31.15,2.78.25,4.09.37,6.12.37,10.12,3.02,13.92,7.67,7.24,7.09,12.31,3.84,18.84,14.28,3.01,4.15,6.34,11.51,12.28,11.23,2.36-.24,4.36-1.85,6.55-2.59,4.23-1.28,8.78-.53,13.1-1.25,1.65-.2,3.37-.72,4.91-1.32,3.6-1.19,7.36.27,10.65,1.74"/><path class="b" d="M13.7,197.27c1.87.23,3.86-.03,5.73-.1,2.43-.15,4.94-.24,7.37-.36,2.45-.13,5.01-.33,7.37-1.03,1.64-.48,3.24-1.44,4.91-1.85,2.38-.63,4.97-.56,7.37-.08,2.14.43,4.35,1.16,6.55,1.16,1.97,0,3.91-.82,5.73-1.49,2.36-.9,4.85-1.73,7.37-2.04,3.52-.47,7.23.09,10.65-1.06,5.31-1.68,9.47-5.94,14.74-7.67,3.62-.58,7.5.06,10.65,1.96,3.82,2.24,6.71,5.76,9.83,8.83,2.04,1.88,4.68,3.12,7.37,3.73,1.89.48,3.99.67,5.73,1.61,6,3.46,8.49,10.71,13.92,14.85,5.05,3.95,7.84,1.21,13.1.2,4.13-.69,8.29-1.55,12.28-2.86,1.87-.59,3.8-1.43,5.73-1.81,2.67-.56,5.5-.46,8.19-.11"/><path class="b" d="M13.7,193.21c5.97.46,12.02,1.77,18.02.99,2.88-.33,5.48-1.81,8.19-2.69,2.36-.76,4.97-.88,7.37-.24,1.9.49,3.82,1.34,5.73,1.79,4.46.86,8.83-1.3,13.1-2.26,3.73-1.08,7.68-1.27,11.47-2.05,3.35-.82,6.3-2.86,9.01-4.91,3.92-3.38,7.74-6.36,13.1-3.95,6.17,3.16,9.41,10.06,15.56,13.31,2.51,1.5,5.38,2.41,8.19,3.16,4.65,1.56,7.86,5.58,11.47,8.7,4.22,3.72,8.79,7.43,14.74,5.51,5.18-.88,9.95-3.18,14.74-5.22,4.49-1.62,9.16-3.05,13.92-3.56"/><path class="b" d="M13.7,190.91c4.16.5,8.17,1.89,12.28,2.64,5.75,1.02,9.82-.51,14.74-3.24,2.25-1.11,4.88-1.75,7.37-1.19,1.94.41,3.84,1.32,5.73,1.9,3.59,1.13,7.36-.18,10.65-1.65,2.91-1.26,5.83-2.88,9.01-3.34,1.87-.21,3.87,0,5.73-.27,2.71-.36,5.25-1.77,7.37-3.44,3.63-3.14,7.75-8.02,13.1-6.17,4.74,1.76,7.43,6.52,11.47,9.31,3.09,2.14,5.9,4.8,9.01,6.91,1.8,1.23,3.89,2.22,5.73,3.39,2.12,1.28,4.28,2.75,6.55,3.76,4.08,1.66,8.05,3.81,12.28,5.05,4.18.92,8.56-.52,12.28-2.37,2.72-1.37,5.36-3.1,8.19-4.23,4.33-1.24,8.68-2.72,13.1-3.64"/><path class="b" d="M13.7,189.62c1.59.39,3.34.59,4.91,1.05,1.89.54,3.84,1.25,5.73,1.8,6.05,1.87,11.27,1.1,16.38-2.63,2.4-1.55,5.27-2.84,8.19-2.35,1.95.29,3.86,1.15,5.73,1.7,3.76,1.14,7.5-.9,10.65-2.8,3.01-1.74,6.16-4.23,9.83-3.89,1.6.16,3.3.58,4.91.65,2.62.14,5.28-.84,7.37-2.4,3.76-2.97,7.82-7.39,13.1-6.34,3.17.71,5.67,3.07,8.19,4.97,1.52,1.2,3.46,2.04,4.91,3.34,2.83,2.41,5.3,5.36,8.19,7.7,2.76,2.07,5.64,4.35,9.01,5.3,2.39.53,4.96.46,7.37.87,2.46.36,4.91,1.17,7.37,1.52,6.66.98,12.45-3.11,18.02-6.12,2.01-1.11,4.37-1.59,6.55-2.23,2.68-.77,5.44-1.57,8.19-2.06"/><path class="b" d="M13.7,188.53c1.58.43,3.34.66,4.91,1.12,2.43.71,4.88,1.64,7.37,2.13,5.89,1.2,10.85-.34,15.56-3.87,2.39-1.58,5.28-2.79,8.19-2.33,1.93.27,3.84,1.07,5.73,1.48,4.04.62,7.55-2.18,10.65-4.38,2.25-1.59,4.58-3.53,7.37-4.02,1.94-.23,3.9.54,5.73,1.07,4.25,1.39,7.84.69,11.47-1.84,2.51-1.54,5.23-3.13,8.19-3.55,3.92-.57,7.41,1.75,10.65,3.61,3.75,1.6,6.75,4.5,9.83,7.09,2.91,2.35,6.25,4.41,9.83,5.55,3.18.92,6.58.02,9.83.17,2.16.03,4.4.33,6.55.36,2.45-.02,4.97-.39,7.37-.88,4.59-.97,8.84-3.14,13.1-5,3.94-1.52,8.09-2.69,12.28-3.21"/><path class="b" d="M13.7,186.99c9.45,1.78,11.83,5.43,22.11,1.73,3.78-1.2,6.67-4.51,10.65-5.27,2.17-.49,4.46-.02,6.55.62,2.1.74,4.47,1,6.55.06,4.36-1.82,7.48-5.67,11.47-8.09,2.55-1.72,5.51-1.12,8.19-.08,2.35.83,4.85,1.67,7.37,1.69,2.26-.03,4.46-.92,6.55-1.68,5.76-2.31,10.03-2.08,15.56.71,3.13,1.25,6.13,2.93,9.01,4.67,2.52,1.47,5.35,2.52,8.19,3.18,1.85.41,3.83.84,5.73.81,2.44-.08,4.94-.5,7.37-.67,3.56-.17,7.16-.47,10.65-1.26,2.97-.38,6.05-.35,9.01-.84,3.8-.43,7.21-2.34,10.65-3.86,2.84-1.2,5.94-1.96,9.01-2.27"/><path class="b" d="M13.7,184.54c3.75.2,7.03,2.28,10.65,3.05,3.33.73,6.73-.21,9.83-1.4,1.95-.65,3.99-1.36,5.73-2.46,3.98-2.48,7.75-3.44,12.28-1.85,1.82.56,3.82,1.13,5.73.75,3.86-.77,6.88-3.65,9.83-6.08,1.94-1.58,4.02-3.44,6.55-3.9,3.6-.49,7.14.94,10.65,1.53,4.36,1.04,8.75-.48,13.1-.67,7.87-.46,14.63,4.5,22.11,6.03,7.59.99,15.37.24,22.93-.73,2.5-.29,4.88-1.48,7.37-1.8,2.98-.26,6.03.31,9.01.2,3.61.06,6.79-1.93,9.83-3.62,2.78-1.47,5.89-2.46,9.01-2.85"/><path class="b" d="M13.7,181.45c2.93-.15,5.58,1.21,8.19,2.33,3.78,1.69,7.76,1.19,11.47-.4,2.15-.84,4.5-1.44,6.55-2.53,2.76-1.39,5.94-2.2,9.01-1.46,2.96.66,5.89,2.2,9.01,1.69,6.25-.86,10.05-6.71,15.56-9.12,4.72-1.61,9.83-1.36,14.74-1.17,4.08.09,8.23-.07,12.28.47,3.9.51,7.7,1.79,11.47,2.89,2.9.95,5.93,1.89,9.01,1.96,3.84.16,7.64-.86,11.47-.99,5.57-.28,11.23-.39,16.38-2.8,3.45-1.07,7.13-.03,10.65-.1,3.64.15,6.85-1.87,9.83-3.71,2.76-1.62,5.84-2.84,9.01-3.35"/><path class="b" d="M13.7,178.78c2.58-.33,5.08.49,7.37,1.62,2.78,1.3,5.94,2.15,9.01,1.5,1.64-.31,3.33-.92,4.91-1.42,1.63-.44,3.36-.99,4.91-1.67,3.41-1.55,7.14-1.61,10.65-.33,6.32,2.56,11.2.92,16.38-3.09,2.75-2.13,5.62-4.3,9.01-5.3,4.2-1.6,8.58-2.96,13.1-3.08,1.88-.12,3.86.12,5.73.23,2.43.14,4.95.27,7.37.53,3.56.41,7.17.98,10.65,1.85,3.2.97,6.46,2.06,9.83,2.24,3.6.27,7.1-1.05,10.65-1.38,4.66-.5,9.52-.51,13.92-2.34,4.86-2.39,10.49-.49,15.56-1.97,2.6-.73,4.96-2.28,7.37-3.47,2.55-1.28,5.36-2.21,8.19-2.6"/><path class="b" d="M13.7,177.56c3.4-.62,5.88.22,9.01,1.38,2.34.8,4.9,1.24,7.37.93,3.58-.54,7.12-1.64,10.65-2.47,2.69-.65,5.55-.37,8.19.37,2.11.54,4.34,1.32,6.55,1.11,5.72-.26,10.36-3.97,14.74-7.28,2.24-1.72,4.92-2.91,7.37-4.29,9.51-5.59,13.22-4.93,23.75-4.01,2.43.23,4.94.55,7.37.76,1.6.14,3.34.14,4.91.48,4.29.83,8.69,2.41,13.1,1.65,2.18-.39,4.37-1.2,6.55-1.61,3.24-.68,6.6-1.07,9.83-1.82,2.49-.52,4.9-1.65,7.37-2.24,2.66-.59,5.48-.72,8.19-.98,3.66-.2,7.2-1.37,10.65-2.52,2.91-.9,5.98-1.45,9.01-1.73"/><path class="b" d="M13.7,176.62c5.49-1.62,8.64.47,13.92.71,4.41.23,8.7-1.5,13.1-1.4,4.97-.09,9.79,3.31,14.74,1.73,8.21-2.18,14.4-8.31,21.29-12.92,6.09-4.65,11.86-7.13,19.65-6.21,3.83.37,7.62,1.43,11.47,1.67,2.43.14,4.93-.4,7.37-.26,3.53,0,7.14.61,10.65.09,2.23-.35,4.4-1.28,6.55-1.91,3.77-1.14,7.68-1.96,11.46-3.05,3.51-1.05,7.01-2.41,10.65-3,3.76-.68,7.66-.55,11.47-.76,4.07-.27,8.21.1,12.28-.25"/><path class="b" d="M13.7,174.75c5.51-2.35,9.14-.92,14.74-.93,3,.04,6.02-.57,9.01-.76,1.63-.01,3.36.36,4.91.86,4.94,1.69,8.98,3.92,13.92.74,6.83-3.22,13.23-7.33,18.84-12.39,2.92-2.41,6.13-4.8,9.83-5.82,3.47-.72,7.09-1.4,10.65-1.33,3.87.2,7.61,1.59,11.47,1.85,2.79.25,5.49-.88,8.19-1.36,3.22-.73,6.58-.91,9.83-1.43,3.93-.81,7.62-2.64,11.47-3.76,3.81-1.22,7.67-2.48,11.47-3.73,2.41-.75,4.87-1.7,7.37-2.12,4.4-.78,8.84.48,13.1,1.47,3.17.92,6.49,1.87,9.83,1.56"/><path class="b" d="M13.7,171.22c5.49-3.1,10.46-1.67,16.38-1.82,2.44,0,4.94-.38,7.37-.42,3.76.27,7.01,2.61,10.65,3.41,4.39,1.06,7.11-1.87,10.65-3.76,4.76-2.55,9.83-4.77,13.92-8.37,4.17-4.12,8.66-7,14.74-6.6,3.3.18,6.53-1.03,9.83-.72,4.34.25,8.8,1.82,13.1.56,1.61-.55,3.31-1.23,4.91-1.79,3.69-1.44,7.68-1.97,11.47-3.05,4.11-1.41,8.15-3.17,12.28-4.51,3.52-1.22,7.1-2.44,10.65-3.57,2.86-1.05,5.91-2.13,9.01-1.83,3.43.35,6.67,1.9,9.83,3.2,3.05,1.48,6.35,3.01,9.83,2.65"/><path class="b" d="M13.7,166.15c5.33-3.36,10.57-1.42,16.38-1.29,2.72.2,5.49-.39,8.19-.24,3.63.45,6.96,2.5,10.65,2.69,4.14.27,7.05-3.18,10.65-4.62,3.22-1.45,6.72-2.46,9.83-4.15,2.09-1.06,3.94-2.71,5.73-4.19,7.25-5.33,11.04-1.28,18.02-2.92,4.84-1.04,9.89-.23,14.74-1.13,1.97-.35,3.88-1.29,5.73-2,2.37-.92,4.89-1.71,7.37-2.24,2.17-.44,4.45-.82,6.55-1.53,1.91-.65,3.83-1.59,5.73-2.26,4.3-1.58,8.73-2.94,13.1-4.28,4.57-1.16,9.09-3.72,13.92-2.66,2.83.59,5.57,1.86,8.19,3.04,3.03,1.57,6.31,3.24,9.83,2.96"/><path class="b" d="M13.7,161.27c5.07-2.96,10.9-.92,16.38-.88,2.99.19,6.03-.57,9.01-.34,3.56.35,7.04,1.85,10.65,1.66,2.38-.11,4.55-1.31,6.55-2.48,2.03-1.03,4.33-1.64,6.55-2.11,2.76-.58,5.63-1.17,8.19-2.4,2.77-1.4,5.16-3.65,8.19-4.55,3.4-1.25,7.1-.94,10.65-.99,1.9-.06,3.85-.57,5.73-.77,2.98-.37,6.06-.61,9.01-1.21,4.04-.66,7.59-2.9,11.47-4.06,3.43-1.12,7.13-1.09,10.65-1.73,2.54-.5,4.95-1.73,7.37-2.6,4.81-1.8,9.68-3.71,14.74-4.7,4.25-1.11,8.72-2.26,13.1-1.15,2.2.52,4.46,1.25,6.55,2.09,3.11,1.4,6.34,3.01,9.83,3.01"/><path class="b" d="M13.7,156.95c4.96-2.02,10.38-.59,15.56-.77,3,.02,6.02-.52,9.01-.72,3-.1,6.03.46,9.01.73,1.88.19,3.9.09,5.73-.43,1.63-.47,3.25-1.36,4.91-1.72,3.48-.84,7.15-.81,10.65-1.54,3.51-.58,6.57-2.6,9.83-3.9,3.63-1.5,7.55-2.33,11.47-2.59,9.77-.98,13.88-.14,22.93-5.35,2.54-1.29,5.35-2.27,8.19-2.58,2.98-.35,6.14-.09,9.01-1.1,4.97-1.62,9.69-4.09,14.74-5.48,2.1-.6,4.39-.67,6.55-.9,3.51-.37,7.13-.5,10.65-.11,2.17.27,4.45.62,6.55,1.24,3.21,1.06,6.42,2.49,9.83,2.75"/><path class="b" d="M13.7,152.76c4.31-.86,8.75-.21,13.1-.33,4.39,0,8.75-.88,13.1-1.34,3.8-.43,7.66.11,11.47-.12,1.92-.1,3.86-.72,5.73-1.07,2.14-.37,4.39-.51,6.55-.69,3.85-.31,7.77-.82,11.47-1.97,5.11-1.54,10.17-3.72,15.56-4.05,2.43-.24,4.94-.01,7.37.04,5.4.27,10.39-2.2,14.74-5.16,9.61-6.46,12.15-2.66,21.29-6.22,4.53-1.58,9.01-4.06,13.92-3.98,2.7.15,5.48.32,8.19.38,3.8.12,7.67-.27,11.47.09,3.57.5,7.05,1.79,10.65,2.16"/><path class="b" d="M13.7,148.24c5.72-.11,11.48.86,17.2.26,5.25-.37,10.31-2.19,15.56-2.53,5.2-.03,10.39-.67,15.56-1.15,2.99-.28,6.02-.72,9.01-1.02,2.43-.21,4.96-.33,7.37-.7,5.15-.72,10.32-2.08,15.56-1.61,7.23,1.07,11.18.41,17.2-3.93,6.72-5.11,9.09-7.75,18.02-8.21,5.29-.74,10.24-3.21,15.56-3.79,2.18-.25,4.41.29,6.55.62,2.41.37,4.94.57,7.37.39,2.99-.23,6-1.02,9.01-1.07,3.55,0,7.11.74,10.65.99"/><path class="b" d="M13.7,143.12c7.09.34,14.2,2.67,21.29,1.08,4.16-.79,8.07-2.77,12.28-3.36,4.33-.55,8.75-.72,13.1-1.09,3.8-.27,7.65-.85,11.47-.77,3.28.1,6.58.76,9.83,1.2,2.41.36,4.94.39,7.37.61,9.44.27,13.03,2.1,21.29-4.08,5.2-3.8,9.54-9.71,16.38-10.44,6.02-.54,11.95-2.3,18.02-2.26,3.31.11,6.51,1.41,9.83,1.46,3.92.29,7.68-1.18,11.47-1.94,4.04-.65,8.21-.32,12.28-.4"/><path class="b" d="M13.7,138.54c13.47,2.24,13.8,5.21,27.84-.35,6-2.28,12.54-2.19,18.84-2.97,5.17-.46,10.55-.7,15.56.89,2.76.9,5.44,2.26,8.19,3.2,2.12.64,4.36,1.28,6.55,1.58,1.31.15,2.78.09,4.09.17,4.33.38,8.72-.73,12.28-3.23,2.27-1.53,4.57-3.25,6.55-5.15,3.01-2.84,6-6.02,9.83-7.75,2.03-.91,4.36-1.17,6.55-1.41,2.42-.27,4.94-.51,7.37-.71,2.7-.2,5.49-.38,8.19-.11,2.46.26,4.9,1.11,7.37,1.32,4.54.65,8.85-1.22,13.1-2.51,3.99-1.01,8.19-1.08,12.28-1.27"/><path class="b" d="M13.7,134.36c8.47,1.89,12.37,5.95,21.29,2.14,2.92-1.17,5.93-2.36,9.01-3.04,2.66-.63,5.48-.68,8.19-.97,3.8-.44,7.61-1.42,11.47-1.33,4.45.1,8.98,1.05,13.1,2.74,2.75,1.21,5.39,2.85,8.19,3.95,1.84.66,3.8,1.39,5.73,1.72,1.3.2,2.78.16,4.09.23,3.08.15,6.26-.36,9.01-1.8,3.9-2.1,7.46-4.97,10.65-8.03,6.59-6.5,9.36-8.49,18.84-8.77,4.07-.15,8.21-.56,12.28-.36,1.9.11,3.86.63,5.73.95,3.53.68,7.27.5,10.65-.79,2.41-.83,4.86-1.88,7.37-2.36,2.94-.57,6.02-.66,9.01-.64"/><path class="b" d="M13.7,129.99c2.18.72,4.46,1.49,6.55,2.43,3.28,1.59,7.09,2.63,10.65,1.36,2.52-.79,4.87-2.25,7.37-3.11,4.19-1.58,8.71-1.43,13.1-1.61,3.31-.22,6.49-1.59,9.83-1.62,5.12-.18,9.93,2.05,14.74,3.5,5.83,2.27,11.63,5.29,18.02,5.44,7.6.96,12.41-2.64,18.02-7.14,4.47-3.78,8.64-8.81,14.74-9.76,3.77-.65,7.66-.54,11.47-.72,3.25-.12,6.58-.6,9.83-.22,4.31.66,8.77,1.97,13.1.71,2.49-.6,4.91-1.71,7.37-2.41,3.19-.82,6.58-.67,9.83-.31"/><path class="b" d="M13.7,124.75c2.18.79,4.47,1.64,6.55,2.67,3.23,1.74,7.09,2.88,10.65,1.44,2.78-.99,5.31-2.79,8.19-3.5,4.27-1.23,8.76-.3,13.1-.7,1.65-.16,3.32-.79,4.91-1.18,3.83-1.02,7.88-.27,11.47,1.27,2.88,1.28,5.95,2.23,9.01,2.99,3.22.91,6.53,1.75,9.83,2.37,2.67.65,5.47,1.04,8.19,1.41,3.34.51,6.85-.01,9.83-1.63,2.9-1.57,5.66-3.59,8.19-5.7,3.83-3.27,7.91-6.9,13.1-7.54,3.5-.6,7.11-.52,10.65-.49,2.98,0,6.03-.38,9.01-.4,4.16-.06,8.13,1.83,12.28,1.84,8.68-.46,9.07-4.3,19.65-2.01"/><path class="b" d="M13.7,118.65c2.19.75,4.49,1.53,6.55,2.57,3.22,1.75,6.99,3.19,10.65,2,2.52-.71,4.85-2.14,7.37-2.86,4.51-1.43,9.3-.7,13.92-1.25,1.64-.21,3.31-.84,4.91-1.21,3.57-.89,7.33-.17,10.65,1.29,6.14,3.03,13.02,3.82,19.65,5.19,3.26.75,6.56,1.6,9.83,2.3,3.02.61,6.25.18,9.01-1.19,3.57-1.72,6.77-4.23,9.83-6.73,3.29-2.7,7.15-4.96,11.47-5.38,3.5-.65,7.11-.38,10.65-.21,2.98.13,6.03-.08,9.01.06,4.18.17,8.09,2.27,12.28,2.3,8.55-.34,8.42-3.52,18.84-1.07"/><path class="b" d="M13.7,112.7c2.49.76,5.07,1.6,7.37,2.83,3.5,1.93,7.53,3.12,11.47,1.86,2.69-.81,5.41-1.78,8.19-2.27,3.23-.68,6.58-.92,9.83-1.45,6.59-1.39,9.65-3.46,16.38-.2,2.15,1,4.29,2.28,6.55,3.02,3.44,1.02,7.11,1.3,10.65,1.83,2.78.31,5.55,1.11,8.19,2.04,5.04,2,9.33,4.27,14.74,1.76,5.96-2.48,10.28-7.85,16.38-10.04,5-1.62,10.34-1.93,15.56-1.99,2.98-.06,6.05-.21,9.01.19,2.5.35,4.95,1.29,7.37,1.95,2.63.78,5.47.93,8.19.59,2.16-.22,4.36-.91,6.55-.84,2.76.04,5.53.73,8.19,1.4"/><path class="b" d="M13.7,107.44c3.72.78,7.15,2.52,10.65,3.92,3.42,1.34,7.16,1.02,10.65.12,2.41-.51,4.94-.82,7.37-1.21,4.13-.62,8.31-1.34,12.28-2.65,6.33-2.14,10.08-.75,15.56,2.55,4.63,3,10.31,2.66,15.56,3.44,2.56.43,5.09,1.45,7.37,2.68,5.26,3.19,9.45,5.8,15.56,2.68,5.42-2.48,9.74-7.09,15.56-8.75,6.44-1.58,12.98-3.43,19.65-3.49,3.37-.03,6.66,1.07,9.83,2.11,2.1.66,4.34,1.25,6.55,1.34,2.71.17,5.49-.2,8.19-.21,3.34.13,6.62,1.13,9.83,1.98"/><path class="b" d="M13.7,102.93c7.7,1.39,11.14,4.98,19.65,3.23,4.58-.82,9.31-.25,13.92-.78,3.64-.26,7.14-1.59,10.65-2.5,3.59-1.12,7.45-.35,10.65,1.52,1.85.99,3.75,2.18,5.73,2.88,6.49,1.98,11.9.48,18.02,4.78,7.72,5.67,10.48,8.05,19.65,2.94,2.99-1.65,5.86-3.69,9.01-5.04,2.86-1.26,6.04-1.79,9.01-2.73,5.01-1.68,10.15-4.02,15.56-3.3,4.46.68,8.61,2.87,13.1,3.39,3.24.39,6.59.13,9.83.53,3.3.46,6.58,1.43,9.83,2.15"/><path class="b" d="M13.7,98.92c2.21.17,4.43.83,6.55,1.41,4.34,1.34,8.74.97,13.1,0,5.49-1.12,10.88,1.54,16.38,1.36,2.2-.12,4.46-.66,6.55-1.32,2.86-1.04,5.91-2.29,9.01-1.75,4.07.67,7.43,3.51,11.47,4.32,9.13,1.67,11.61,1.8,18.84,8.21,6.78,5.82,10.79,3.84,18.02.3,2.39-1.25,4.84-2.6,7.37-3.53,2.65-.97,5.52-1.48,8.19-2.37,4.53-1.64,8.96-4.26,13.92-4.13,4.82.13,9.18,2.72,13.92,3.38,3.22.57,6.59.33,9.83.82,3.81.61,7.63,1.56,11.47,2.01"/><path class="b" d="M13.7,95.07c4.11,0,8.14,1.65,12.28,1.07,2.19-.21,4.41-.81,6.55-1.3,4.91-1.5,9.37.99,13.92,2.5,2.88,1.07,6.08,1.13,9.01.23,2.23-.72,4.33-2.02,6.55-2.76,4.59-1.78,8.84.46,13.1,2.02,10.3,2.72,12.36,2.82,20.47,10.33,6.64,5.9,10.63,3.97,18.02.95,2.41-1.09,4.86-2.32,7.37-3.17,2.39-.8,4.97-1.31,7.37-2.07,4.49-1.6,9.02-3.85,13.92-3.45,4.82.31,9.21,2.73,13.92,3.62,2.93.66,6.03.57,9.01.88,4.33.67,8.7,1.46,13.1,1.34"/><path class="b" d="M13.7,92.29c2.14-.46,4.39-.24,6.55-.3,2.75-.11,5.52-.7,8.19-1.33,9.05-2.42,10.23-.72,18.02,3.15,3.01,1.57,6.66,1.92,9.83.6,4.51-2.17,8.52-5.86,13.92-4.56,1.65.32,3.33.99,4.91,1.51,2.44.78,5,1.5,7.37,2.49,3.68,1.43,6.93,3.86,9.83,6.51,7.67,7.21,10.27,8.27,20.47,5.11,3.33-1.19,6.47-3.02,9.83-4.15,4.35-1.33,8.63-3.17,13.1-4.03,5.02-.93,10.1.54,14.74,2.39,2.38.93,4.86,1.89,7.37,2.4,2.4.48,4.94.43,7.37.6,4.33.59,8.76.77,13.1.16"/><path class="b" d="M13.7,90.09c2.62-1.01,5.52-1.19,8.19-2.02,4.23-1.26,8.64-2.51,13.1-2.08,4.28.19,7.69,3.18,11.47,4.85,3.28,1.72,7.36,1.77,10.65.06,3.63-1.98,7.1-5.06,11.47-5,2.23-.01,4.45.74,6.55,1.42,2.46.74,5.02,1.51,7.37,2.57,3.35,1.44,6.33,3.71,9.01,6.16,3.52,3.22,7.3,6.96,12.28,7.46,2.71.26,5.5-.3,8.19-.57,3.49-.7,6.6-2.68,9.83-4.08,5.2-2.19,10.68-4.24,16.38-4.42,3.63-.07,7.28.82,10.65,2.15,2.99,1.25,5.86,3.02,9.01,3.85,2.64.71,5.48.52,8.19.58,4.08.29,8.22.16,12.28-.27"/><path class="b" d="M13.7,87.95c2.08-1.03,4.39-1.73,6.55-2.55,2.36-.95,4.83-1.94,7.37-2.25,3.56-.39,7.25.35,10.65,1.37,2.21.86,4.36,2.1,6.55,3,3.84,1.77,7.55,1.68,11.47.24,3.95-1.74,7.73-4.74,12.28-4.3,2.51.17,4.95,1.1,7.37,1.67,3.05.71,6.19,1.48,9.01,2.89,3.74,1.79,6.67,4.88,9.83,7.49,3,2.48,6.7,4.3,10.65,4.43,1.31.07,2.78.03,4.09.01,1.32.02,2.8.07,4.09-.27,4.27-1.16,8.1-3.64,12.28-5.06,2.35-.91,4.92-1.35,7.37-1.9,3.47-.76,7.11-1.27,10.65-.74,5.21.48,9.13,4.38,13.92,6.02,2.89.97,6.03.5,9.01.42,3.81-.04,7.67.33,11.47.59"/><path class="b" d="M13.7,85.28c2.11-1.08,4.39-2.03,6.55-2.99,2.55-1.19,5.33-2.27,8.19-2.18,2.21.04,4.43.7,6.55,1.27,2.82.51,5.51,1.66,8.19,2.61,3.42,1.24,7.17,1.44,10.65.32,2.53-.5,4.94-1.68,7.37-2.51,4.54-1.69,8.71-.1,13.1,1.1,11.14,1.7,11.6.97,20.47,8.58,3.7,2.97,8.39,4.42,13.1,4.54,1.6.06,3.31.4,4.91.35,1.64-.09,3.36-.54,4.91-1.05,3.23-1.11,6.51-2.33,9.83-3.16,1.58-.38,3.34-.56,4.91-.98,3.77-.95,7.53-2.42,11.46-2.41,5.05-.21,8.74,3.77,13.1,5.61,3.35,1.55,7.11.73,10.65.6,3.63,0,7.18,1.16,10.65,2.11"/><path class="b" d="M13.7,82.13c3.5-1.49,6.98-3.26,10.65-4.32,2.67-.72,5.54-.47,8.19.21,2.97.77,6.08,1.19,9.01,2.12,4,1.19,8.28,1.31,12.28.06,5.28-1.18,9.26-3.03,14.74-1.13,2.39.73,4.84,1.72,7.37,1.83,5.38.1,10.14-.57,14.74,2.95,2.61,1.99,5.16,4.26,8.19,5.61,3.56,1.74,7.61,1.86,11.47,2.37,4.35.94,8.79-.24,13.1-.82,3.25-.64,6.67-.78,9.83-1.82,3.52-1.15,6.93-2.96,10.65-3.42,4.98-.81,8.81,3.17,13.1,4.93,3.6,1.73,7.65.81,11.47,1,3.43.34,6.66,1.83,9.83,3.07"/><path class="b" d="M13.7,79.09c4.06-1.34,7.99-3.47,12.28-3.94,2.74-.29,5.52.29,8.19.8,2.7.37,5.49.65,8.19,1.07,2.42.28,4.95.37,7.37.09,4.32-.65,8.69-1.92,13.1-1.57,3.66.27,7.04,2.05,10.65,2.63,3.55.45,7.1-.76,10.65-.62,4.13-.03,7.5,2.66,10.65,5,2.7,1.91,5.76,3.5,9.01,4.2,1.85.41,3.86.61,5.73.86,2.14.37,4.38.77,6.55.9,4.89.3,9.92.62,14.74-.46,5.83-1.48,10.88-6.55,17.2-5.69,4.39,1.03,7.93,4.29,12.28,5.45,2.9.9,6.04.6,9.01,1.06,3.12.53,6.12,1.84,9.01,3.08"/><path class="b" d="M13.7,76.12c4.09-1.06,8.03-2.97,12.28-3.37,2.71-.28,5.49.09,8.19.35,4.9.14,9.84.48,14.74.24,7.63-.86,12.06-1.53,19.65.75,6.02,1.83,9.02,0,14.74-.56,8.78-.7,12.87,8.03,22.93,9.36,4.11.53,8.22,1.37,12.28,2.16,4.58.94,9.52,1.42,13.92-.48,5.54-2.13,10.94-6.68,17.2-5.42,3.19.79,6.06,2.61,9.01,3.99,3.52,1.9,7.55,2.39,11.46,2.86,2.78.44,5.56,1.27,8.19,2.25"/><path class="b" d="M13.7,73.11c5.42-1.26,10.72-3.52,16.38-3.44,2.71,0,5.49-.03,8.19-.22,3.25-.07,6.57,0,9.83.08,4.08.09,8.21-.3,12.28.08,4.36.29,8.71,1.56,13.1,1.24,3.3-.3,6.51-1.6,9.83-1.8,9.19-.67,14.47,8.21,23.75,9.2,3.3.42,6.63,1.03,9.83,1.93,4.5,1.25,9.37,2.38,13.92.73,7.34-2.23,15.17-6.91,22.93-3.91,3.64,1.3,6.94,3.55,10.65,4.68,4.51,1.36,9.39.81,13.92,2.11"/><path class="b" d="M13.7,69.9c4.14-.83,8.15-2.37,12.28-3.18,4.03-.78,8.21-.92,12.28-1.36,6.29-.28,12.55.85,18.84.93,5.44.17,10.95,1.18,16.38.35,8.05-1.76,11.47-3.96,19.65,0,3.5,1.81,6.81,4.23,10.65,5.31,2.64.81,5.5.95,8.19,1.53,4.64.98,9.12,3.11,13.92,3.12,2.5.04,4.95-.87,7.37-1.38,2.94-.66,6.01-1.06,9.01-1.31,6.64-.6,9.93-1.39,16.38,1.54,9.83,4.77,10.22,2.59,19.65,3.6"/><path class="b" d="M13.7,66.62c4.19-.72,8.2-2.34,12.28-3.45,4.26-1.08,8.72-1.7,13.1-1.99,4.42-.11,8.77.98,13.1,1.64,6.77.65,13.71,1.72,20.47.6,2.78-.47,5.47-1.58,8.19-2.27,5.92-1.79,11.8.32,17.2,2.76,3.88,1.72,8.15,2.29,12.28,3.05,3.08.7,6.04,2.02,9.01,3.08,2.6.95,5.41,1.63,8.19,1.5,1.89-.11,3.84-.63,5.73-.73,3.8-.31,7.66.12,11.46.09,1.88-.01,3.86-.3,5.73-.35,2.46-.06,5,.27,7.37.94,3.23.99,6.46,2.27,9.83,2.74,3.52.37,7.13-.14,10.65.32"/><path class="b" d="M13.7,63.63c4.3-.39,8.26-2.32,12.28-3.71,2.64-.92,5.43-1.59,8.19-2.03,2.95-.57,6.03-.81,9.01-.28,3.07.45,6.04,1.59,9.01,2.44,4,1,8.16,1.75,12.28,1.88,6.27.24,12.03-2.6,18.02-3.92,6.26-1.28,12.6.66,18.84,1.24,3.3.43,6.7.84,9.83,2.03,3.87,1.5,7.46,3.82,11.47,4.98,3.71,1.24,7.65.47,11.46.76,5.16.5,10.38,1.16,15.56.44,2.7-.22,5.52-.22,8.19.27,2.72.57,5.45,1.43,8.19,1.9,4.03.81,8.22.35,12.28.72"/><path class="b" d="M13.7,60.83c4.34-.03,8.26-2.25,12.28-3.58,2.9-1.02,5.97-1.7,9.01-2.17,3.22-.61,6.61-.81,9.83-.07,2.82.6,5.5,1.9,8.19,2.89,3.7,1.2,7.54,2.53,11.47,2.58,6.01-.06,11.4-3.3,17.2-4.5,3.73-.93,7.65-.89,11.47-1.06,2.98-.26,6-.9,9.01-.82,7.67-.1,13.4,5.89,20.47,7.83,3.45.97,7.13.72,10.65,1.31,2.96.47,6,1,9.01,1.03,2.44.05,4.94-.29,7.37-.41,2.71-.16,5.53-.1,8.19.46,2.44.55,4.91,1.4,7.37,1.87,4.29.9,8.74.92,13.1,1.13"/><path class="b" d="M13.7,58.15c4.56.17,8.7-2.36,13.1-3.21,2.94-.71,6.02-.99,9.01-1.4,3.76-.65,7.73-1.2,11.47-.12,3.34,1,6.54,2.59,9.83,3.73,2.84,1.12,5.93,2.06,9.01,1.68,2.56-.28,5-1.38,7.37-2.32,2.92-1.12,5.96-2.17,9.01-2.88,3.49-.86,7.14-1.11,10.65-1.86,2.95-.78,5.9-2.09,9.01-2.06,4.23-.03,7.92,2.4,11.46,4.42,3.26,1.89,6.85,3.47,10.65,3.78,2.15.22,4.43.27,6.55.73,2.97.63,5.97,1.5,9.01,1.72,4.36.36,8.76-.74,13.1,0,4.01.45,7.63,2.44,11.46,3.53,4.53,1.07,9.28,1.4,13.92,1.49"/><path class="b" d="M13.7,55.42c2.23.19,4.44-.51,6.55-1.11,1.85-.49,3.83-.91,5.73-1.14,2.97-.38,6.03-.28,9.01-.54,2.74-.26,5.45-1.14,8.19-1.43,3.05-.4,6.16.29,9.01,1.37,6.28,2.21,11.24,5.6,18.02,2.68,3.75-1.58,7.56-3.17,11.47-4.32,3.21-.99,6.58-1.63,9.83-2.48,4.03-1.06,7.97-3.57,12.28-2.6,5.28,1.18,9.43,5.28,14.74,6.44,2.92.78,6.03.46,9.01.64,1.65.11,3.36.64,4.91,1.17,3.17,1.12,6.45,2.23,9.83,2.45,2.15.18,4.4-.03,6.55.16,2.22.19,4.49.79,6.55,1.61,3.05,1.17,5.87,3.07,9.01,4.01,1.82.57,3.85.64,5.73.83,2.69.24,5.49.38,8.19.23"/><path class="b" d="M13.7,52.45c3.04.11,5.99-1.06,9.01-1.23,3.53-.33,7.12.16,10.65.22,4.75.15,9.17-2.39,13.92-2.27,5.71.04,10.76,3.39,16.38,3.83,4.08.28,7.79-1.77,11.47-3.23,4.27-1.76,8.67-3.31,13.1-4.61,5.37-1.42,10.73-4.74,16.38-2.68,3.36,1.13,6.43,3.13,9.83,4.17,2.35.77,4.9,1.16,7.37,1.11,2.43-.06,4.97-.36,7.37.17,3.98,1.05,7.56,3.33,11.47,4.6,3.42,1.27,7.18,1.32,10.65,2.37,4.35,1.22,8.09,3.99,12.28,5.58,1.79.68,3.83.81,5.73.89,2.98.16,6.06.05,9.01-.47"/><path class="b" d="M13.7,49.39c2.72.04,5.46-.67,8.19-.58,3.83.03,7.64.91,11.47.99,4.77.13,9.18-2.36,13.92-2.55,5.85-.4,11.37,2.5,17.2,2.23,4.36-.23,8.27-2.47,12.28-3.95,4.85-1.93,9.87-3.56,14.74-5.45,7.77-3.47,11.53-1.12,18.84,1.44,3.73.97,7.6,1.7,11.47,1.74,3.59-.06,7.33.1,10.65,1.63,3.35,1.42,6.53,3.36,9.83,4.9,2.33,1.14,4.9,1.95,7.37,2.72,4.86,1.41,9.21,4.17,13.92,5.92,4.75,1.44,10.07,1.34,14.74-.35"/><path class="b" d="M13.7,46.36c2.71.08,5.49-.25,8.19.04,3.8.34,7.63,1.11,11.47.99,3.32-.09,6.57-1.15,9.83-1.73,2.67-.54,5.48-.59,8.19-.38,6.39.47,12.6,2.03,18.84-.36,5.38-2.16,10.91-3.98,16.38-5.9,4.02-1.35,7.86-4,12.28-3.48,3.35.25,6.55,1.59,9.83,2.22,2.69.4,5.5.3,8.19.76,4.64.67,9.39,1.02,13.92,2.28,5.05,1.41,9.42,4.52,13.92,7.09,3.07,1.77,6.5,2.92,9.83,4.07,7.48,2.77,16,6.8,23.75,2.67"/><path class="b" d="M13.7,43.25c2.15.2,4.4.24,6.55.44,3.52.37,7.1.86,10.65.72,5.21-.2,10.33-1.74,15.56-1.64,3.53.11,7.11.39,10.65.41,3.53.15,7.16.27,10.65-.43,3.66-.67,7.05-2.45,10.65-3.36,3.56-.97,7.21-1.89,10.65-3.26,4.34-1.89,6.5-3.11,11.47-2.44,3.51.41,7.1,1.35,10.65.76,6.14-.77,12.11,1.64,18.02,2.96,7.93,1.22,12.26,5.49,18.84,9.22,4.34,2.16,9.3,2.76,13.92,4.1,3.22.72,6.53,1.53,9.83,1.76,2.26.09,4.58-.6,6.55-1.7"/><path class="b" d="M13.7,39.78c5.41.69,10.9,1.69,16.38,1.36,3-.17,6.02-.81,9.01-1.1,3.25-.32,6.58-.29,9.83.03,2.98.33,6.03.14,9.01.13,4.08.07,8.28.27,12.28-.71,2.21-.51,4.35-1.53,6.55-2.07,3.24-.82,6.62-1.34,9.83-2.29,3.86-.99,7.37-3.41,11.47-3.41,3.26-.14,6.57.31,9.83.09,2.44-.16,4.9-1.01,7.37-.79,5.06.28,9.82,2.37,14.74,3.38,3.77.62,7.45,2.04,10.65,4.14,3.45,2.13,6.66,4.98,10.65,6.06,4.56,1.09,9.3,1.57,13.92,2.4,4.52.69,8.72,2.23,13.1-.11"/><path class="b" d="M13.7,35.56c4.57,1.01,9.24,1.96,13.92,2.19,3.55.13,7.12-.4,10.65-.7,6-.72,12.01.13,18.02-.1,5.17.16,10.48,1.34,15.56-.19,4.82-1.71,9.84-2.87,14.74-4.31,4.06-1.17,7.98-3.12,12.28-3.19,2.7-.18,5.5-.2,8.19-.5,2.18-.19,4.38-.85,6.55-1.04,5.88-.52,11.55,1.6,17.2,2.86,3.47.78,6.81,2.29,9.83,4.16,3.16,1.9,6.25,4.22,9.83,5.28,5.33,1.35,10.9,1.89,16.38,2.27,3.8.36,7.73,1.51,11.47.12"/><path class="b" d="M13.7,30.8c5.29,1.71,10.78,3.29,16.38,3.44,6.56.22,13.1-.93,19.65-.7,2.7.13,5.51,0,8.19.4,4.03.67,8.19,1.64,12.28.85,3.38-.66,6.61-2.12,9.83-3.3,5.81-2.18,11.76-4.5,18.02-4.87,13.53-.79,16.78-4.97,31.12-.3,6.49,1.48,11.92,5.64,18.02,8.09,3.93,1.46,8.15,2.15,12.28,2.72,2.97.46,6.03.17,9.01,0,3.25.1,6.58.75,9.83.19"/><path class="b" d="M13.7,26.01c4.21,1.77,8.6,3.38,13.1,4.21,4.04.61,8.21.75,12.28.72,4.07-.34,8.19-.96,12.28-.64,2.45.12,4.98.34,7.37.94,3.72.92,7.68,1.51,11.47.57,4.9-1.06,9.29-3.64,13.92-5.43,3.63-1.41,7.57-2.18,11.47-2.28,12.88.22,19.49-5.99,32.76-.97,5.2,1.46,9.73,4.61,14.74,6.55,2.6,1.05,5.46,1.55,8.19,2.18,2.96.67,5.98,1.43,9.01,1.71,1.59.13,3.34.05,4.91-.23,1.31-.25,2.75-.73,4.09-.84,2.97-.28,6.03.06,9.01-.13"/><path class="b" d="M13.7,21.3c3.94,1.87,8.01,3.69,12.28,4.68,2.67.62,5.47.83,8.19,1.07,1.6.14,3.3.47,4.91.39,3.81-.19,7.64-.96,11.47-.62,3.32.15,6.59,1.01,9.83,1.69,2.68.52,5.54.49,8.19-.19,4.52-1.14,8.83-3.03,13.1-4.84,3.36-1.37,7.03-1.96,10.65-2,3.8-.04,7.69.59,11.46-.13,7.8-1.65,15.11-3.98,22.93-.77,1.89.72,3.94,1.36,5.73,2.29,3.21,1.63,6.37,3.55,9.83,4.62,2.62.88,5.49.99,8.19,1.48,3.25.62,6.5,1.67,9.83,1.88,1.61.09,3.36-.11,4.91-.55,1.33-.39,2.74-1.06,4.09-1.38,2.92-.74,6.02-.78,9.01-.94"/><path class="b" d="M13.7,16.75c4.18,2.04,8.48,4.11,13.1,4.94,3.51.64,7.14.73,10.65,1.41,4.08.38,8.2-.56,12.28-.14,5.47.29,10.87,2.85,16.38,1.51,3.06-.68,5.98-2.07,9.01-2.86,4.46-1.57,9.14-2.93,13.92-2.58,1.87.11,3.87.09,5.73.29,2.96.36,6.04.68,9.01.22,7.49-1.4,14.61-3.9,22.11-.87,2.16.85,4.48,1.59,6.55,2.66,2.92,1.5,5.84,3.23,9.01,4.18,2.89.95,6.03.86,9.01,1.3,3.25.53,6.51,1.52,9.83,1.61,3.18.18,6.13-1.27,9.01-2.4,2.88-.98,5.99-1.37,9.01-1.69"/><path class="b" d="M13.7,12.33c3.95,1.72,7.96,3.56,12.28,4.13,2.69.43,5.49.54,8.19.93,1.88.3,3.82.89,5.73.92,3.53.13,7.13-.18,10.65.2,3.56.27,7.07,1.4,10.65,1.43,3.67.09,7.2-1.18,10.65-2.28,4.79-1.23,9.78-2.22,14.74-1.68,2.7.36,5.49.55,8.19.92,3.48.67,7.1,1.32,10.65.77,4.37-.63,8.7-1.88,13.1-2.28,3.06-.23,6.17.39,9.01,1.5,4.87,1.51,9,4.84,13.92,6.21,2.9.88,6.03.69,9.01,1.1,3.26.5,6.51,1.53,9.83,1.66,3.2.22,6.16-1.24,9.01-2.48,2.87-1.11,5.98-1.74,9.01-2.24"/><path class="b" d="M13.7,8c2.99.84,5.9,2.22,9.01,2.66,4.06.71,8.27.68,12.28,1.65,4.74,1.66,9.81,1.29,14.74,1.4,3.83.01,7.63,1.08,11.47.92,3.59-.07,7.13-1.01,10.65-1.65,4.87-.62,9.86-.97,14.74-.34,2.43.35,4.95.66,7.37,1.06,2.16.47,4.37,1.19,6.55,1.57,5.8,1.01,11.63-.79,17.2-2.23,3.83-1,7.88-.39,11.46,1.2,4.45,1.8,8.29,5.16,13.1,6.07,2.67.6,5.5.31,8.19.72,3.28.52,6.51,1.69,9.83,1.96,3.21.36,6.2-1.13,9.01-2.48,2.86-1.24,5.96-2.08,9.01-2.72"/></svg>