<?xml version="1.0" encoding="UTF-8"?><svg id="a" xmlns="http://www.w3.org/2000/svg" width="1920" height="2400" viewBox="0 0 192 240"><defs><style>.b{fill:none;stroke:#fff;stroke-miterlimit:10;stroke-width:.4px;}.c{stroke-width:0px;}</style></defs><rect class="c" width="192" height="240"/><path class="b" d="M8.18,230.84c4.94-.03,9.92.05,14.86-.03,15.84-14.38,19.78-1.43,36.7-3.01,8.69-.61,15.86-2.81,23.59,2.71.74.42,1.81.34,2.62.33,1.4,0,2.97,0,4.37,0,4.35,0,8.76,0,13.11,0,26.8,0,53.6,0,80.4,0"/><path class="b" d="M8.18,226.1c5.23-.06,10.51.12,15.73-.07,5.29-4.33,10.85-6.31,17.48-3.77,2.89,1.01,5.73,2.43,8.74,3.05,6.41,1.5,12.9-.31,19.22-1.39,2.57-.4,5.31-.57,7.86.03,1.85.34,3.5,1.54,5.24,2.15,4.06,0,8.18,0,12.23,0,29.71,0,59.43,0,89.13,0"/><path class="b" d="M8.18,221.35c5.23,0,10.5,0,15.73,0,2.04-.8,3.94-2.27,6.12-2.78,2.24-.65,4.73-.66,6.99-.1,2.1.51,4.18,1.45,6.12,2.4.99.68,2.36.45,3.5.48,2,0,4.12,0,6.12,0,3.47,0,7.01,0,10.49,0,2-.07,4.14.17,6.12-.14,3.06-.95,6.44-1.76,9.61-.9.81.23,1.86.68,2.62,1.04.44,0,1.31,0,1.75,0,33.5,0,67,0,100.49,0"/><path class="b" d="M8.18,216.61c5.23,0,10.5,0,15.73,0,2.43-1.27,5.08-2.45,7.86-2.53,2.06-.09,4.21.39,6.12,1.15,1.13.38,2.3,1.24,3.5,1.38,2.59,0,5.27,0,7.86,0,44.84-.03,89.7.02,134.57,0"/><path class="b" d="M8.18,211.86c4.64,0,9.34,0,13.98,0,2.03-.69,3.98-1.96,6.12-2.39,2.27-.56,4.75-.5,6.99.16,1.81.47,3.53,1.52,5.24,2.23,3.18,0,6.43,0,9.61,0,44.57,0,89.14,0,133.7,0"/><path class="b" d="M8.18,207.12c3.47,0,7.01,0,10.49,0,1.88.1,3.53-1.43,5.24-2.03,3.51-1.64,7.64-2.3,11.36-.96,1.81.61,3.64,1.6,5.24,2.64,1.29.66,2.97.25,4.37.36,2,0,4.12,0,6.12,0,7.27,0,14.58,0,21.85,0,36.99,0,73.99,0,110.98,0"/><path class="b" d="M8.18,202.37c2,0,4.12,0,6.12,0,.84-.02,1.84-.54,2.62-.8,10.67-4.59,14.28-6.4,24.47.8,16.89,0,33.79,0,50.68,0,7.85,0,15.74,0,23.59,0,1.12.09,2.4-.35,3.5-.52,1.09-.17,2.4-.27,3.5-.25,2.03-.03,4.11.56,6.12.77,5.81,0,11.67,0,17.48,0,12.52,0,25.06,0,37.58,0"/><path class="b" d="M8.18,197.63c2.4-.82,4.54-2.6,6.99-3.39,4.76-1.4,9.89-3.15,14.86-1.79,2.16.58,4.27,1.68,6.12,2.92,1.37.79,2.62,2.51,4.37,2.26,13.68,0,27.39,0,41.07,0,10.19,0,20.4,0,30.59,0,1.15-.25,2.37-.98,3.5-1.3,1.65-.53,3.51-.83,5.24-.84,3.28-.01,6.55.92,9.61,2.03,2.28.24,4.7.05,6.99.11,15.43,0,30.88,0,46.31,0"/><path class="b" d="M8.18,189.79c2.18-1.37,4.51-2.78,6.99-3.51,3.7-.84,7.73-.88,11.36.29,2.49.81,4.88,2.19,6.99,3.74,1.12.77,2.28,1.95,3.5,2.58,23.59,0,47.19,0,70.78,0,.78,0,1.85.02,2.62-.07.75-.52,1.81-1.18,2.62-1.59,3.19-1.67,6.95-2.17,10.49-1.57,2.36.37,4.74,1.14,6.99,1.93,1.4.42,2.9,1.22,4.37,1.3,3.77,0,7.59,0,11.36,0,2.62.14,5.28-.22,7.86-.59,7.53-.85,15.17-.57,22.72-.21,1.11.14,2.42.43,3.5.75,1.08.09,2.41.04,3.5.05"/><path class="b" d="M8.18,182.72c4.59-3.13,8.52-4.35,13.98-2.69,5.06,1.4,9.01,5.06,13.11,8.11,24.17,0,48.36,0,72.53,0,.44,0,1.31,0,1.75,0,.87-.32,1.83-1.14,2.62-1.61,1.84-1.12,3.99-1.97,6.12-2.32,8.83-1.66,17.58,5.15,26.22,1.48,7.91-3.02,15.01-5.07,23.59-3.99,2.88.36,5.88.55,8.74,1.04,2.39.52,4.78,1.48,6.99,2.5"/><path class="b" d="M8.18,177.37c2.35-1.52,5.01-3,7.86-3.12,7.17.07,12.89,5.11,18.35,9.15,25.63-.05,51.27.1,76.9-.05,7.11-5.23,14.56-3.86,22.72-3.5,3.64.13,7.32-.66,10.49-2.48,5.6-2.97,11.93-5.3,18.35-4.18,3.24.46,6.44,1.52,9.61,2.28,3.9.63,7.73,1.79,11.36,3.34"/><path class="b" d="M8.18,174.07c2.34-1.54,5-3.04,7.86-3.17,5.36.05,10.3,2.66,14.86,5.24,1.42.78,2.9,1.83,4.37,2.5,3.47,0,7.01,0,10.49,0,16.02,0,32.05,0,48.06,0,6.98,0,13.99,0,20.97,0,1.18-.07,2.38-.87,3.5-1.2,1.66-.58,3.51-1.04,5.24-1.36,4.33-.79,8.84-.92,13.11-2.06,5.42-1.26,9.52-5.53,14.86-7.02,6.7-2.24,13.17.97,19.22,3.59,1.92.84,4.1,1.25,6.12,1.75,2.32.63,4.69,1.46,6.99,2.15"/><path class="b" d="M8.18,172.49c2.57-1.79,5.51-3.6,8.74-3.63,6.26-.1,12.44,1.48,18.35,3.4,1.72.47,3.47,1.41,5.24,1.64,3.18,0,6.43,0,9.61,0,15.14,0,30.3,0,45.44,0,7.56,0,15.16,0,22.72,0,2.3,0,4.7,0,6.99,0,3.8-1.11,7.71-2.17,11.36-3.72,5.28-2.04,9.28-6.62,14.86-7.98,6.53-1.81,12.71,1.91,18.35,4.74,2.16,1.14,4.63,1.75,6.99,2.27,2.3.61,4.68,1.37,6.99,1.97"/><path class="b" d="M8.18,169.16c.8,0,1.84.05,2.62-.16,1.33-.74,2.88-1.43,4.37-1.76,6.07-.63,12.24-1.19,18.35-.97,2.92.15,5.92.58,8.74,1.36,1.43.39,3,.94,4.37,1.51.79.04,1.84.03,2.62.03,16.02,0,32.05,0,48.06,0,7.56,0,15.16,0,22.72,0,3.47,0,7.01,0,10.49,0,1.89-.51,3.55-2,5.24-2.94,5.18-3,9.62-7.82,15.73-8.86,6.73-1.15,12.66,3.08,18.35,6,2.15,1.17,4.61,1.86,6.99,2.35,2.29.55,4.68,1.17,6.99,1.61"/><path class="b" d="M8.18,164.42c1.99-.1,4.17.25,6.12-.21,2.26-.55,4.72-.47,6.99-1,4.91-.96,9.82-2.44,14.86-2.5,2.95-.04,5.99.46,8.74,1.53,1.47.56,3.01,1.38,4.37,2.17,1.1.01,2.4,0,3.5,0,14.85,0,29.72,0,44.57,0,7.85,0,15.74,0,23.59,0,2.59,0,5.27,0,7.86,0,1.09,0,2.4,0,3.5,0,.94-.31,1.87-1.3,2.62-1.91,9.05-7.74,15.82-13.17,27.96-7.58,3.2,1.39,6.33,3.17,9.61,4.37,3.65,1.19,7.55,1.82,11.36,2.26"/><path class="b" d="M8.18,159.67c1.1,0,2.39.02,3.5-.03.78-.3,1.81-.62,2.62-.8,1.68-.37,3.55-.24,5.24-.56,5.27-.91,10.34-3.13,15.73-3.4,3.6-.22,7.29.57,10.49,2.22.81.41,1.86,1.04,2.62,1.54.74.5,1.68,1.2,2.62,1.02,12.81,0,25.64,0,38.45,0,9.6,0,19.23,0,28.84,0,3.18,0,6.43,0,9.61,0,1.99-.12,4.19.29,6.12-.25,8.81-9.15,17.87-13.47,30.58-9.76,3.49.94,6.96,2.22,10.49,3.04,2.84.64,5.83.92,8.74.94"/><path class="b" d="M8.18,153.76c2.17-1.04,4.57-1.93,6.99-2.14,2.32-.01,4.73-.07,6.99-.63,10.12-2.58,17.11-4.36,26.22,2.35.77.52,1.68,1.42,2.62,1.59,1.7,0,3.54,0,5.24,0,4.06,0,8.18,0,12.23,0,22.13,0,44.28,0,66.41,0,2.63-1.86,4.92-4.41,7.86-5.83,7.06-3.49,14.76-6.19,22.72-6.21,3.52-.06,7.06.55,10.49,1.31,2.57.43,5.28.43,7.86.23"/><path class="b" d="M8.18,145.79c3-1.34,6.34-1.99,9.61-1.57,2.63.05,5.31-.53,7.86-1.07,12.33-2.93,17.49-.49,27.09,7.03h84.76c3.73-2.78,8.17-4.35,12.23-6.55,5.37-2.77,10.7-5.92,16.6-7.42,3.13-.84,6.46-.8,9.61-.13,2.58.33,5.29.16,7.86-.17"/><path class="b" d="M8.18,139.1c3.06-1.15,6.39-1.54,9.61-.96,2.63.17,5.32-.38,7.86-.99,8.75-2.39,15.82-3.28,23.59,2.34,1.73,1.19,3.54,2.56,5.24,3.79,1.08.71,2.22,1.83,3.5,2.16,27.67,0,55.35,0,83.02,0,1.54.2,3.05-.58,4.37-1.27,1.76-.91,3.59-2.04,5.24-3.14,5.9-3.82,11.44-8.71,18.35-10.59,2.56-.75,5.28-.35,7.86.01,2.29.19,4.7.1,6.99-.12"/><path class="b" d="M8.18,133.88c1.96-.48,4.09-.81,6.12-.72,1.42.04,2.95.48,4.37.54,2.95.13,5.93-.63,8.74-1.46,20.06-6.91,20.2.79,36.7,7.89,1.32.69,2.93.56,4.37.56,2,0,4.12,0,6.12,0,6.1,0,12.25,0,18.35,0,17.47,0,34.96,0,52.43,0,.8,0,1.91.09,2.62-.37,1.45-.98,3.01-2.17,4.37-3.27,3.14-2.52,6.26-5.22,9.61-7.47,9.7-6.43,11.82-2.79,21.85-2.51"/><path class="b" d="M8.18,129.9c1.99-.25,4.12-.35,6.12-.14,2.01.24,4.07.91,6.12.83,6.06-.1,11.64-2.94,17.48-4.22,3.73-.88,7.78-.94,11.36.55,4.68,1.8,9.18,4.22,13.98,5.71,4.22,1.38,8.69,1.95,13.11,2.25,2.3.15,4.69.53,6.99.36,4.93-.38,9.98-1.16,14.86.06,2.52.89,5.24.62,7.86.65,4.06,0,8.18,0,12.23,0,6.4,0,12.83,0,19.22,0,3.76-.1,7.62.21,11.36-.14,7.14-5.11,14.05-14.15,23.59-13.73,3.85.5,7.53,2.16,11.36,2.83"/><path class="b" d="M8.18,126.67c2.31-.02,4.72.1,6.99.55,2.27.55,4.64,1.09,6.99,1.06,7.78.11,14.99-3.76,22.72-4.02,4.19-.04,8.23,1.51,12.23,2.54,4.82,1.36,9.83,2.31,14.86,2.39,3.18.03,6.44,0,9.61-.27,2.9-.37,5.82-1.16,8.74-1.42,2.61-.26,5.34-.05,7.86.66,1.44.4,3.01,1.02,4.37,1.65,1.11.43,2.27,1.4,3.5,1.41,2,0,4.12,0,6.12,0,7.85,0,15.74,0,23.59,0,2.59,0,5.27,0,7.86,0,1.77-.06,3.84.4,5.24-.98,7.26-5.18,14.57-14.05,24.47-11.75,3.62.95,6.95,2.91,10.49,4.11"/><path class="b" d="M8.18,123.5c3.85.16,7.64,1.02,11.36,1.93,3.42.7,7,.93,10.49.71,5.56-.29,11.03-1.85,16.6-1.91,5.28.13,10.48,1.45,15.73,1.94,6.39.65,12.93.28,19.22-.98,2.62-.67,5.23-1.72,7.86-2.36,4.35-1.19,9.05-.68,13.11,1.26,1.12.51,2.42,1.18,3.5,1.78.39.29,1.25.63,1.75.61,3.18,0,6.43,0,9.61,0,5.81,0,11.67,0,17.48,0,2.59-.03,5.28.08,7.86-.06,1.5-.28,3.06-.98,4.37-1.75,7.78-4.74,15.27-13.71,25.34-10.94,4.06,1.05,7.55,3.64,11.36,5.3"/><path class="b" d="M8.18,119.57c4.13.2,8.24.99,12.23,2.06,2.29.19,4.7.04,6.99.08,17.18,0,34.38,0,51.56,0,2-.01,4.12.03,6.12-.02,3.84-1.79,7.89-3.75,12.23-3.65,4.05.03,7.83,1.87,11.36,3.68,4.06,0,8.18,0,12.23,0,5.52-.03,11.09.07,16.6-.04,1.64-.75,3.47-1.49,5.24-1.85,1.84-.28,3.67-1.17,5.24-2.14,7.36-4.71,14.9-12.78,24.47-9.9,4.06,1.1,7.54,3.74,11.36,5.4"/><path class="b" d="M8.18,116.1c3.18.28,6.44.46,9.61.87,6.4,0,12.83,0,19.22,0,13.1,0,26.22,0,39.32,0,3.77,0,7.59,0,11.36,0,3.04-1.64,6.17-3.41,9.61-4.02,6.58-1.38,12.29,2.36,18.35,4.02,2.3,0,4.7,0,6.99,0,2.59,0,5.27,0,7.86,0,1.7-.1,3.6.24,5.24-.23,1.98-.63,4.08-1.33,6.12-1.76,2.12-.28,4.27-1,6.12-2.1,7.82-4.59,15.43-12.87,25.34-10.5,3.66.85,6.96,2.91,10.49,4.15"/><path class="b" d="M8.18,112.22c21.26,0,42.53,0,63.79,0,3.77,0,7.59,0,11.36,0,1.4,0,2.97,0,4.37,0,1.18-.45,2.39-1.38,3.5-1.99,10.6-6.64,18.59-3.58,29.71-.79,5.69,1.43,11.65,1.83,17.48,1.1,2.61-.35,5.38-.49,7.86-1.41,8.89-3.42,16.22-11.41,26.22-11.56,3.93-.06,7.63,1.64,11.36,2.62"/><path class="b" d="M8.18,107.48c4.64,0,9.34,0,13.98,0,2.3-.14,4.68-.45,6.99-.32,6.96.57,13.99.25,20.97.32,11.06,0,22.14,0,33.21,0,1.1,0,2.4,0,3.5,0,2.13-.82,4.06-2.39,6.12-3.38,4.04-2.21,8.51-3.79,13.11-4.25,4.64-.51,9.41-.48,13.98.56,7.22,1.47,14.37,4.32,21.85,3.83,11.32-.84,20.46-8.91,31.46-10.9,3.5-.61,7.07.34,10.49,1.05"/><path class="b" d="M8.18,102.73c3.18,0,6.43,0,9.61,0,1.78-.28,3.48-1.43,5.24-1.86,2.52-.79,5.23-1.21,7.86-1.21,4.71-.04,9.33,1.26,13.98,1.84,1.7.25,3.54.1,5.24.26,1.75.1,3.5,1.02,5.24.98,8.44,0,16.9,0,25.34,0,1.99-.11,4.18.26,6.12-.22,3.11-1.64,6.34-3.25,9.61-4.54,3.94-1.57,8.11-2.66,12.23-3.6,3.69-.93,7.53-1.75,11.36-1.48,6.28.25,12.19,2.8,18.35,3.76,2.88.49,5.86-.05,8.74-.29,4.42-.38,8.88-1.08,13.11-2.44,5.31-1.57,10.3-4.33,15.73-5.49,2.6-.38,5.32.08,7.86.6"/><path class="b" d="M8.18,97.99c2.3-.01,4.69.03,6.99-.02,3.77-2.41,7.74-4.85,12.23-5.6,5.29-1.02,10.59.54,15.73,1.67,2.56.69,5.29.36,7.86.86,1.78.41,3.61,1.18,5.24,1.99.78.37,1.75.99,2.62,1.11,2,0,4.12,0,6.12,0,7.56,0,15.16,0,22.72,0,3.17-1.15,6.37-2.48,9.61-3.45,3.75-1.2,7.63-2.22,11.36-3.48,3.46-1.19,6.89-2.73,10.49-3.52,6.05-1.54,12.29-.45,18.35.42,3.17.54,6.43-.14,9.61.03,4.34.25,8.76.86,13.11.27,4.87-.58,9.46-2.55,13.98-4.34,3.03-1.31,6.5-.92,9.61-.12"/><path class="b" d="M8.18,93.25c2.96.09,7.04-3.01,9.61-4.51,8.29-5.14,15.07-3.35,23.59-.19,1.67.56,3.49,1.1,5.24,1.33,1.41.14,3,.1,4.37.53,1.47.42,3.03,1.14,4.37,1.87.78.39,1.69,1.17,2.62.98,9.02,0,18.07,0,27.09,0,2.3,0,4.69,0,6.99,0,1.4-.06,3,.17,4.37-.19,4.37-1.24,8.86-2.34,13.11-3.99,4.19-1.63,8.11-4.03,12.23-5.81,5.73-2.68,12.09-3.43,18.35-3.6,2-.1,4.11-.48,6.12-.3,3.21.24,6.42,1.02,9.61,1.39,3.77.48,7.68.29,11.36-.68,6.77-1.68,9.12-4.69,16.6-2.17"/><path class="b" d="M8.18,86.09c3.5-1.68,6.89-3.78,10.49-5.26,6.8-2.76,13.96.2,20.1,3.28,2.24,1.06,4.59,2.16,6.99,2.8,2.31.5,4.8.59,6.99,1.59,4.06,0,8.18,0,12.23,0,9.02,0,18.07,0,27.09,0,5.23,0,10.5,0,15.73,0,1.18.14,2.46-.47,3.5-.96,1.78-.84,3.59-1.95,5.24-3.01,4.23-2.74,8.44-5.7,13.11-7.67,4.95-2.09,10.39-3.03,15.73-3.37,3.49-.02,7.01.61,10.49.76,3.5.18,7.1-.17,10.49-1.07,6.93-1.7,9.92-5.04,17.48-2.45"/><path class="b" d="M8.18,78.32c11.06-6.33,17.37-4.52,27.96,1.34,2.55,1.37,5.17,2.83,7.86,3.9,1.07.34,2.39.17,3.5.2,14.85,0,29.72,0,44.57,0,4.94,0,9.92,0,14.86,0,1.7,0,3.54,0,5.24,0,.79,0,1.87.07,2.62-.24.43-.29,1.32-.87,1.75-1.16,5.02-3.47,10.01-7.24,15.73-9.5,4.17-1.64,8.66-2.55,13.11-3.03,2.59-.2,5.28-.14,7.86-.24,3.82-.12,7.7-.7,11.36-1.83,3.84-1.1,7.52-2.89,11.36-3.98,2.56-.6,5.34-.35,7.86.31"/><path class="b" d="M8.18,70.82c8.86-4.24,17.37.04,25.34,4.13,1.99,1.01,4.09,2.08,6.12,3.02.78.35,1.79.86,2.62,1.04.46,0,1.3,0,1.75,0,15.72,0,31.46,0,47.19,0,5.23,0,10.5,0,15.73,0,1.7,0,3.54,0,5.24,0,1.5.02,3.15.18,4.37-.89,4.45-2.86,9-5.76,13.98-7.6,6.72-2.39,13.89-3.46,20.97-4.06,4.44-.41,8.9-1.31,13.11-2.8,6.23-2.11,12.42-5.77,19.23-4.54"/><path class="b" d="M8.18,63.84c6.79-1.35,13.15,2.26,19.22,4.78,4.83,2.14,9.81,4.07,14.86,5.64,2.89.02,5.85,0,8.74,0,13.68,0,27.39,0,41.07,0,4.64,0,9.34,0,13.98,0,2,0,4.12,0,6.12,0,1.11-.58,2.4-1.33,3.5-1.94,7.36-4.31,14.26-6.41,22.72-7.27,2.61-.29,5.26-.99,7.86-1.31,3.76-.43,7.62-.55,11.36-1.14,4.17-.62,8.27-1.85,12.23-3.25,4.5-1.59,9.14-3.31,13.98-3.23"/><path class="b" d="M8.18,57.45c5.66.49,10.57,3.73,15.73,5.81,5.56,2.45,11.53,3.84,17.48,4.94,1.72.35,3.56.76,5.24,1.26,1.1.12,2.4.06,3.5.07,5.23,0,10.5,0,15.73,0,13.1,0,26.22,0,39.32,0,.78,0,1.85,0,2.62,0,.78-.44,1.84-1.06,2.62-1.5,2.26-1.29,4.64-2.61,6.99-3.72,5.43-2.68,11.46-3.96,17.48-4.27,2-.15,4.13-.28,6.12-.57,1.99-.33,4.08-.84,6.12-.83,5.23-.06,10.49.9,15.73.48,3.24-.21,6.5-.88,9.61-1.79,3.72-1.1,7.47-2.48,11.36-2.79"/><path class="b" d="M8.18,51.38c4,.78,7.67,2.74,11.36,4.39,3.91,1.72,8.05,3.07,12.23,3.93,4.62.99,9.41,1.39,13.98,2.62,2.14.47,4.13,1.63,6.12,2.46,1.1,0,2.4,0,3.5,0,10.77,0,21.56,0,32.33,0,3.77,0,7.59,0,11.36,0,1.4,0,2.97,0,4.37,0,.86.05,1.96.02,2.62-.63,6.35-3.93,12.86-8.02,20.1-10.08,4.53-1.28,9.32-1.35,13.98-1.74,2-.16,4.09-.74,6.12-.53,6.57.71,12.56,4.3,19.22,4.51,6.41.54,12.17-2.93,18.35-3.89"/><path class="b" d="M8.18,46.16c3.6.32,7.09,1.48,10.49,2.63,3.12.95,6.4,1.62,9.61,2.21,6.79,1.22,13.7,2.34,20.1,5.01,2.24.92,4.14,2.67,6.12,4.03,15.72,0,31.46,0,47.19,0,.9.16,1.91-.43,2.62-.91,1.4-.86,2.96-1.81,4.37-2.64,4.68-2.53,9.14-5.59,13.98-7.82,4.89-2.31,10.39-2.79,15.73-2.55,2.3.16,4.71-.28,6.99,0,4.99.95,9.23,4.12,13.98,5.77,9.97,3.76,15.44-.96,24.47-3.62"/><path class="b" d="M8.18,42.75c2.87-.37,5.87-.55,8.74-.11,2.58.34,5.27.35,7.86.46,6.66.1,13.22,1.78,19.22,4.62,1.7.79,3.58,1.58,5.24,2.46,2.22,1.31,4.24,3.18,6.12,4.93,1.96.38,4.12.09,6.12.18,3.18,0,6.43,0,9.61,0,9.6,0,19.23,0,28.84,0,1.21.15,2.42-.75,3.5-1.18,1.41-.66,2.98-1.42,4.37-2.11,5.25-2.32,9.78-5.98,14.86-8.6,7.85-4,12.98-1.79,20.97-1.19,4.46.65,8.17,3.64,12.23,5.37,10.58,5.18,18.41-1.74,27.96-5.29"/><path class="b" d="M8.18,41.39c3.34-1.44,6.86-2.52,10.49-2.85,3.17-.57,6.38-1.4,9.61-1.47,6.05-.27,11.55,2.7,16.6,5.69,2.34,1.35,4.96,2.48,6.99,4.31,1.13.95,2.42,2.15,3.5,3.16.75.4,1.8.33,2.62.32,11.35,0,22.73,0,34.08,0,2,0,4.12,0,6.12,0,4.46-.87,8.97-2.08,13.11-4,6.51-3.3,12.22-9.61,20.1-9.02,2.98.16,5.9,1.18,8.74,2.01,1.99.61,4.22.78,6.12,1.67,6.94,3.29,12.32,6.93,20.1,3.12,2.7-1.26,5.25-3.02,7.86-4.43,3.16-1.59,6.24-3.57,9.61-4.7"/><path class="b" d="M8.18,41.58c1.99-1.2,4.04-2.55,6.12-3.6,1.64-.83,3.57-1.36,5.24-2.12,4.35-1.97,9.1-4.1,13.98-3.14,4.18.76,7.83,3.22,11.36,5.45,1.65,1.1,3.62,1.98,5.24,3.1,1.81,1.31,3.59,2.95,5.24,4.44,8.14.23,16.32.01,24.47.08,2.89,0,5.85,0,8.74,0,2.58-.35,5.26-.63,7.86-.67,5.91-.14,12.29.02,17.48-3.25,2.9-1.76,5.67-3.92,8.74-5.39,6.26-3.18,11.56-1.05,17.48,1.61,1.65.73,3.58,1.09,5.24,1.77,2.57,1.06,5.14,2.43,7.86,3.07,7.36,1.94,13.18-4.12,18.35-8.38,1.56-1.31,3.47-2.41,5.24-3.4,2.18-1.25,4.54-2.49,6.99-3.09"/><path class="b" d="M8.18,41.05c1.42.21,2.43-.58,3.5-1.37,1.08-.75,2.37-1.62,3.5-2.28,5.58-2.62,10.33-7.36,16.6-8.29,4.72-.67,9.15,1.68,13.11,3.97,1.67,1.01,3.62,1.83,5.24,2.91,2.13,1.48,4.15,3.35,6.12,5.03,8.44.09,16.9,0,25.34.03,1.78.14,3.51-.82,5.24-1.1,2.55-.54,5.26-.69,7.86-.62,7.22.26,14.57,1.78,20.97-2.58,2.78-1.64,5.61-3.49,8.74-4.42,5.13-1.7,10.31.63,14.86,2.92,1.63.82,3.51,1.41,5.24,1.95,2.01.73,4.06,1.7,6.12,2.3,9.85,3.24,16.09-7.04,22.72-12.36,3.14-2.15,6.65-4.25,10.49-4.71"/><path class="b" d="M8.18,36.31c2,0,4.12,0,6.12,0,4.15-1.66,7.59-4.82,11.36-7.16,5.08-3.42,10.72-4.75,16.6-2.61,2.93,1.09,6.04,2.13,8.74,3.73,2.07,1.28,4.11,2.86,6.12,4.23,1.31.85,2.7,2.07,4.37,1.81,4.94,0,9.92,0,14.86,0,1.19-.13,2.4-.91,3.5-1.33,1.93-.83,4.05-1.51,6.12-1.91,4.32-.87,8.81-.48,13.11.27,7.74,1.37,11.89,2.43,19.22-1.41,2.76-1.27,5.69-2.49,8.74-2.79,5.91-.72,11.11,2.77,16.6,4.28,3.95,1.25,7.98,3.3,12.23,2.5,10.97-2.27,15.33-16.8,27.96-16.14"/><path class="b" d="M8.18,31.56c2.89,0,5.85,0,8.74,0,1.58-.24,2.99-1.53,4.37-2.29,1.98-1.26,4.06-2.62,6.12-3.76,7.75-4.57,15.25-4.67,23.59-1.7,4.3,1.66,8.5,3.9,13.11,4.57,8.41,1.42,16.13-3.72,24.47-3.69,6.73-.23,12.96,2.7,19.22,4.72,4.32,1.52,7.96.96,12.23-.36,3.95-1.16,8.09-2.18,12.23-1.83,4.78.4,9.4,2.08,13.98,3.41,1.08.34,2.39.71,3.5.94,1.4,0,2.97,0,4.37,0,4.35.32,8.1-2.66,11.36-5.18,5.43-4.57,10.61-9.56,18.35-7.57"/><path class="b" d="M8.18,26.82c3.47,0,7.01,0,10.49,0,4.99-2.13,9.77-4.86,14.86-6.77,4.43-1.71,9.2-2.93,13.98-2.67,5.8.47,11.64,1.33,17.48,1.1,7.01-.25,13.97-1.47,20.97-1.84,9.2-.71,15.98,3.57,23.59,7.94,4.5,2.88,9.83,2.52,14.86,1.55,4.59-.83,9.32-1.63,13.98-1.03,2.35.26,4.72.97,6.99,1.63,1.39.16,2.97.06,4.37.08,2.59-.03,5.28.07,7.86-.05,1.46-.52,3.03-1.29,4.37-2.07,7.56-4.49,12.2-10.15,21.85-6.76"/><path class="b" d="M8.18,22.07c4.06,0,8.18,0,12.23,0,6.6-1.83,12.92-4.55,19.22-7.2,1.96-.78,4.05-1.53,6.12-1.96,1.68-.36,3.55-.36,5.24-.62,3.21-.45,6.43-1.22,9.61-1.83,4.3-.85,8.72-1.37,13.11-1.3,4.06.07,8.17.66,12.23.28,13.6-.94,17.92,5.4,27.96,12.14,1.24.82,2.96.39,4.37.49,2.3,0,4.7,0,6.99,0,4.07.01,8.18.08,12.23-.29,5.22.38,10.49.29,15.73.29,1.7,0,3.54,0,5.24,0,1.45-.56,3-1.37,4.37-2.11,8.08-4.62,11.43-6.86,20.97-3.8"/></svg>