<?xml version="1.0" encoding="UTF-8"?><svg id="a" xmlns="http://www.w3.org/2000/svg" width="1920" height="2400" viewBox="0 0 192 240"><defs><style>.b{fill:none;stroke:#fff;stroke-miterlimit:10;stroke-width:.4px;}.c{stroke-width:0px;}</style></defs><rect class="c" x="0" width="192" height="240"/><path class="b" d="M8.6,231.37c13.91,0,27.83,0,41.74,0,4.04,0,8.14,0,12.17,0,2.28-.1,4.72.24,6.96-.19,3.2-1.79,6.32-3.9,9.57-5.6,5.67-3.3,12.45-1.79,18.26.34,3.93,1.33,7.97,2.91,12.17,2.88,1.7-.07,3.53-.45,5.22-.04,2.44.41,4.64,1.85,6.96,2.6,20.58,0,41.17,0,61.74,0"/><path class="b" d="M8.6,226.64c19.71,0,39.43,0,59.13,0,1.69,0,3.52.02,5.22-.02.79-.37,1.84-.9,2.61-1.31,4.11-2.28,8.31-4.67,13.04-5.31,5.45-.92,11.03-.33,16.52-.38,1.7-.02,3.53-.12,5.22-.34,1.69-.35,3.57-.34,5.22.22,3.47,1.14,6.52,3.38,9.57,5.33.76.5,1.83,1.17,2.61,1.64,1.66.35,3.53.1,5.22.17,3.16,0,6.4,0,9.57,0,13.62,0,27.25,0,40.87,0"/><path class="b" d="M8.6,221.92c22.03,0,44.06,0,66.09,0,1.1-.05,2.43.16,3.48-.26,1.96-1.03,4.03-2.14,6.09-2.97,4.47-1.84,9.22-3.08,13.91-4.21,3.74-.89,7.55-1.74,11.31-2.58,3.86-1.24,7.07-.27,10.44,1.78,4.4,2.62,8.38,6.05,13.04,8.22,4.62.05,9.29,0,13.91.02,12.17,0,24.36,0,36.52,0"/><path class="b" d="M8.6,217.2c6.95,0,13.92,0,20.87,0,.84.1,1.82-.34,2.61-.52,1.37-.34,2.93-.53,4.35-.54,2.92-.08,5.82.77,8.7,1.06,4.62,0,9.29,0,13.91,0,6.36,0,12.77,0,19.13,0,.87.03,1.85-.59,2.61-.94,1.37-.64,2.93-1.27,4.35-1.8,5.78-2.09,11.67-3.96,17.39-6.21,2.85-1.08,5.77-2.22,8.7-3.1,3.62-1.13,7.35.65,10.44,2.45,6.91,4.17,13.97,10.27,22.61,8.45,2.93-.28,5.86.57,8.7,1.14,10.14,0,20.3,0,30.44,0"/><path class="b" d="M8.6,212.48c5.2,0,10.45,0,15.65,0,.87.15,1.83-.42,2.61-.73.78-.3,1.81-.66,2.61-.87,3.69-1.05,7.65-.7,11.31.31,1.4.37,2.95.84,4.35,1.22,2.87.17,5.83.03,8.7.07,6.07,0,12.19,0,18.26,0,.78,0,1.83.03,2.61-.08.44-.16,1.3-.5,1.74-.68,1.99-.79,4.04-1.76,6.09-2.41,5.17-1.58,10.59-2.48,15.65-4.42,4.73-1.68,9.19-4.16,13.91-5.84,2.9-.84,6.01-.01,8.7,1.16,6.54,2.87,12.58,7.84,20,7.99,3.17-.19,6.43-.52,9.57.21,4.5.76,8.66,2.95,13.04,4.07,6.66,0,13.35,0,20,0"/><path class="b" d="M8.6,207.76c4.04-.04,8.14.09,12.17-.06,1.95-.86,4.03-1.75,6.09-2.33,3.08-.9,6.44-1.01,9.57-.28,2.67.6,5.28,1.69,7.83,2.65,3.16.06,6.4,0,9.57.03,3.16,0,6.4,0,9.57,0,2.04,0,4.23.23,6.09-.8,4.05-1.63,7.94-3.87,12.17-4.98,3.69-.88,7.57-.95,11.3-1.6,3.27-.54,6.53-1.53,9.57-2.86,3.24-1.37,6.36-3.19,9.57-4.62,2.18-.86,4.69-.86,6.96-.36,6.85,1.6,12.89,6.02,20,6.64,2.88.29,5.82-.5,8.7-.08,5.56.61,10.58,3.37,15.65,5.53,11.33,4.91,9.84-1.53,20,2.5"/><path class="b" d="M8.6,203.04c2.58,0,5.25,0,7.83,0,3.53-.93,6.86-2.74,10.44-3.54,3.12-.77,6.47-.73,9.57.11,2.05.54,4.14,1.39,6.09,2.22,1.09.41,2.31,1.11,3.48,1.22,5.78-.04,11.61.08,17.39-.05,6.55-2.25,12.19-7.03,19.13-8.11,3.15-.45,6.41-.42,9.57-.82,3.6-.43,7.17-1.51,10.44-3.07,3.28-1.53,6.38-3.58,9.57-5.29,2.67-1.31,5.84-1.35,8.7-.72,6.15,1.37,11.88,4.69,18.26,5.02,2.59.2,5.24-.63,7.83-.22,4.45.59,8.44,3,12.17,5.34,16.34,10.86,11.82,1.86,24.35,5.85"/><path class="b" d="M8.6,197.8c3.48-.08,7.02-.55,10.44-1.24,2.87-.63,5.78-1.44,8.7-1.81,15.08-1.83,20.13,8.52,37.39.66,5.7-2.46,11.07-6.3,17.39-6.93,3.16-.34,6.42-.29,9.57-.69,4.26-.49,8.41-1.94,12.17-3.95,2.95-1.5,5.74-3.5,8.7-5,6.71-3.07,14.08-.24,20.87,1.1,3.41.78,6.96.88,10.44.69,9.58.97,15.33,10.17,23.48,14.25,1.57.77,3.45,1.33,5.22,1.15,1.1-.15,2.37-.6,3.48-.69,2.3-.23,4.71.17,6.96.63"/><path class="b" d="M8.6,188.82c8.81,2.21,17.97,1.57,26.96,2.17,5.21.22,10.44.97,15.65.94,3.22-.11,6.48-.76,9.57-1.67,6.98-1.98,13.57-5.64,20.87-6.37,9.51-.56,15.58-.46,24.35-5.18,3.99-2.07,7.77-4.78,12.17-5.94,6.22-1.84,12.82-1.08,19.13-.19,5.95.78,8.65.33,13.91,4.11,6.38,4.1,14.13,14.3,21.74,14.35,1.39-.11,2.94-.48,4.35-.46,2-.02,4.11.24,6.09.51"/><path class="b" d="M8.6,178.76c4,1.79,8.04,3.6,12.17,5.06,4.43,1.77,9.1,3.33,13.91,3.46,3.78.15,7.58-.54,11.3-1.07,2.57-.33,5.26-.49,7.83-.89,7.22-1.06,14.46-2.31,21.74-2.94,5.19-.58,10.46-.6,15.65-1.16,10.08-.95,18.26-5.87,26.96-10.52,9.1-4.77,17.35-4.95,26.96-1.48,9.39,3.86,16.83,13.99,26.96,15.58,1.39.17,2.96-.07,4.35-.02,2.3.06,4.68.41,6.96.72"/><path class="b" d="M8.6,168.7c2.1,1.06,4.14,2.48,6.09,3.78,1.99,1.31,4.18,2.57,6.09,4.01,4.59,3.38,9.66,7.18,15.65,6.92,3.6-.1,7.02-1.51,10.44-2.5,3.66-.96,7.52-1.47,11.31-1.48,6.18-.07,12.18,1.72,18.26,2.49,4.61.43,9.33-.04,13.91-.61,7.89-1.12,15.58-3.77,22.61-7.51,6.6-3.83,12.8-9.74,20.87-9.79,4.65-.05,8.99,2.03,13.04,4.08,4.3,2.19,8.57,4.57,13.04,6.39,3.6,1.47,7.43,2.58,11.31,3.02,1.68.21,3.53.19,5.22.39,2.3.28,4.68.79,6.96,1.24"/><path class="b" d="M8.6,160.37c2.84,1.38,5.33,3.52,7.83,5.42,3.15,2.28,5.82,5.28,8.7,7.88,7.18,6.62,12.09,7.15,20.87,3.24,6.59-2.8,13.6-1.94,20,.93,1.41.48,2.84,1.53,4.35,1.6,3.46,0,6.98,0,10.44,0,5.49,0,11.03,0,16.52,0,1.14.11,2.41-.42,3.48-.76,1.4-.47,2.96-1.04,4.35-1.57,3.24-1.31,6.66-2.52,9.57-4.51,4.31-2.91,8.24-6.58,13.04-8.7,8.32-3.57,12.77.35,20,3.58,3.85,1.62,8.01,2.6,12.17,2.89,4.61.37,9.3-.08,13.91.29,3.24.27,6.44,1.28,9.57,2.14"/><path class="b" d="M8.6,155.54c2.19.77,4.23,2.14,6.09,3.51,1.76,1.29,3.66,2.7,5.22,4.24,3.68,3.38,9.68,10.99,14.78,11.42,2.58,0,5.25,0,7.83,0,2.34-.47,4.61-1.6,6.96-2.08,2.55-.56,5.28-.53,7.83.02,2.07.43,4.15,1.25,6.09,2.07,3.16,0,6.4,0,9.57,0,7.24,0,14.5,0,21.74,0,3.16,0,6.4,0,9.57,0,1.5.02,2.96-1.03,4.35-1.51,7.09-2.53,12.21-8.55,19.13-11.38,4.17-1.79,9-1.43,13.04.54,1.98.95,3.99,2.16,6.09,2.86,3.59,1.3,7.51,1.68,11.31,1.4,11.18-1.06,13.68-3.08,25.22.9"/><path class="b" d="M8.6,153.06c3.48.56,6.63,2.5,9.57,4.35,3.4,2.43,6.35,5.57,9.57,8.23,2.11,1.64,4.35,3.6,6.96,4.35,4.04,0,8.14,0,12.17,0,9.27,0,18.56,0,27.83,0,7.82,0,15.66,0,23.48,0,2.58,0,5.25,0,7.83,0,1.09,0,2.39,0,3.48,0,.48.08,1.33-.12,1.74-.38,6.08-2.79,10.95-7.91,17.39-9.98,3.65-1.24,7.72-1.04,11.3.32,2.02.72,4.01,1.89,6.09,2.47,3.65,1.08,7.58.97,11.3.37,12.48-2.34,13.16-3.46,26.09-.27"/><path class="b" d="M8.6,151.69c3.59-.06,7.19,1.07,10.44,2.51,2.76,1.38,5.33,3.3,7.83,5.1,3.06,2.1,6.07,4.66,9.57,5.96,1.69,0,3.52,0,5.22,0,24.35,0,48.7,0,73.05,0,10.61-6.59,16.69-11.79,29.57-6.59,3.66,1.03,7.59.77,11.3.16,4.89-.8,9.79-2.14,14.78-2.1,4.36.15,8.68,1.32,13.04,1.48"/><path class="b" d="M8.6,150.47c11.09-1.23,16.22,1.36,25.22,7.19,5.01,3.15,3.66,2.96,9.57,2.88,24.64,0,49.28,0,73.92,0,.92.12,1.85-.68,2.61-1.1,1.37-.83,2.93-1.72,4.35-2.46,5.98-3.29,12.53-4.24,19.13-2.35,3.12.66,6.42.45,9.57.08,5.18-.64,10.42-1.54,15.65-1.15,2.62.12,5.25.82,7.83,1.2,2.27.27,4.68.22,6.96.04"/><path class="b" d="M8.6,148.55c3.75-.57,7.54-1.31,11.3-1.73,8.01-.65,14.67,4.62,20.87,8.95,22.89.14,45.8,0,68.7.05,3.46,0,6.98,0,10.44,0,.83.05,1.93-.02,2.61-.56,1.07-.59,2.37-1.25,3.48-1.77,3-1.42,6.26-2.52,9.57-2.93,3.75-.59,7.55.32,11.3.19,5.2-.24,10.43-1.18,15.65-.82,4.43.19,8.76,1.39,13.04,2.4,2.57.42,5.28.14,7.83-.32"/><path class="b" d="M8.6,145.2c11.5-1.88,15.53-6.9,26.96.51,2.35,1.53,4.66,3.34,6.96,4.96,1.24.79,2.95.31,4.35.43,21.45,0,42.9,0,64.35,0,4.91,0,9.87,0,14.78,0,3.93-1.49,7.93-3.1,12.17-3.42,2.86-.32,5.84-.02,8.7-.38,4.89-.57,9.84-1.46,14.78-1.04,4.76.28,9.33,1.87,13.91,3.03,2.56.47,5.28.16,7.83-.31"/><path class="b" d="M8.6,139.79c3.82-1.05,7.53-2.58,11.3-3.76,8.3-2.43,15.39,3.03,21.74,7.61,1.87,1.13,3.75,3.03,6.09,2.74,3.75,0,7.56,0,11.3,0,8.98,0,17.98,0,26.96,0,16.81,0,33.63,0,50.44,0,1.99,0,4.1,0,6.09,0,1.09-.03,2.42.12,3.48-.18,3.8-.88,7.5-2.36,11.3-3.21,3.97-.93,8.17-1.07,12.17-.26,2.33.41,4.65,1.31,6.96,1.8,2.25.45,4.67.53,6.96.46"/><path class="b" d="M8.6,133.32c3.88-2,7.82-4.44,12.17-5.2,9.19-1.07,15.92,6.65,23.48,10.49,3.23,1.7,7.04,1.78,10.44,3.02,3.75.05,7.56,0,11.3.02,7.82,0,15.66,0,23.48,0,16.81,0,33.63,0,50.44,0,3.16,0,6.4,0,9.57,0,1.08,0,2.39,0,3.48,0,1.17-.43,2.38-1.32,3.48-1.9,11.83-6.6,15.54-2.48,26.96.61"/><path class="b" d="M8.6,127.26c8.46-6.61,12.95-8.63,22.61-2.66,5.04,2.94,9.76,7.06,15.65,8.1,2.27.25,4.67.07,6.96.21,4.09.16,8.22.78,12.17,1.84,1.41.37,2.96.85,4.35,1.3,1.09.29,2.32.98,3.48.88,13.33,0,26.67,0,40,0,10.72,0,21.46,0,32.18,0,1.99,0,4.1,0,6.09,0,.41,0,1.32,0,1.74,0,.94-.28,1.86-1.27,2.61-1.86,4.81-4.13,11.04-7.43,17.39-4.81,3.37,1.32,6.41,3.47,9.57,5.2"/><path class="b" d="M8.6,122.32c3.06-2.69,6.35-5.76,10.44-6.68,7.26-.97,14.8,7.04,21.74,9.27,5.9,2.41,10.63-.2,16.52-.37,6.87-.35,12.82,3.65,18.26,7.35,1.03.49,2.38.25,3.48.3,1.69,0,3.52,0,5.22,0,22.9,0,45.8,0,68.7,0,5.66-5.5,12.3-12.44,20.87-8.61,3.61,1.59,6.47,4.57,9.57,6.94"/><path class="b" d="M8.6,118.5c12.09-11.03,14.23-6.3,26.96-.46,3.51,1.54,7.5,2.34,11.3,1.58,2.91-.59,5.75-1.82,8.7-2.22,7.9-1.36,13.98,4.97,19.13,10,12.45.26,24.94,0,37.39.09,12.75-.08,25.53.15,38.26-.08,6.76-6.92,14.09-14.82,24.35-9.13,3.29,1.94,5.86,4.99,8.7,7.5"/><path class="b" d="M8.6,115.12c3.26-2.2,6.57-4.82,10.44-5.83,5.83-.83,11.02,2.95,16.52,4.22,3.67,1.01,7.63,1.06,11.3.08,2.86-.75,5.72-1.95,8.7-2.15,7.54-.54,12.85,6,17.39,11.1,1.05.38,2.38.19,3.48.23,1.69,0,3.52,0,5.22,0,5.49,0,11.03,0,16.52,0,15.65,0,31.31,0,46.96,0,5.19-3.68,9.52-8.92,15.65-11.1,4.98-1.83,10.44-.06,14.78,2.59,2.84,2,5.24,4.72,7.83,7.03"/><path class="b" d="M8.6,113.02c3.21-1.43,6.34-3.22,9.57-4.59,5.71-1.9,11.64.65,17.39,1.11,3.76.41,7.64.09,11.3-.83,3.12-.78,6.3-1.94,9.57-1.81,7.16.27,11.92,6.43,16.52,11.15,16.81,0,33.63,0,50.44,0,3.46,0,6.98,0,10.44,0,2.29-1.02,4.65-2.15,6.96-3.14,5.92-2.39,10.97-6.97,17.39-8.07,5.55-1.02,10.85,1.59,15.65,4.05,3.62,1.69,6.32,4.9,9.57,7.16"/><path class="b" d="M8.6,111.25c3.33-.88,6.47-2.48,9.57-3.95,5.22-2.16,11.02-1.46,16.52-1.39,3.47.08,7.01-.07,10.44-.62,6.23-1.02,12.15-3.6,18.26-.44,2.54,1.23,4.87,3.07,6.96,4.94.79.71,1.84,1.7,2.61,2.44.39.46,1.11,1.05,1.74,1.09,8.98,0,17.98,0,26.96,0,5.49,0,11.03,0,16.52,0,1.69,0,3.53,0,5.22,0,1.44-.05,3.22.32,4.35-.81,4.69-3.41,10.17-5.53,15.65-7.28,5.78-2.22,12.16-4.06,18.26-2.02,3.67,1.09,7.07,3.06,10.44,4.84,1.39.74,3.03,1.45,4.35,2.32,1.42.89,2.9,2.1,4.35,2.95h2.61"/><path class="b" d="M8.6,108.6c3.7-.78,7.02-2.77,10.44-4.29,5.2-2.17,10.97-2.31,16.52-2.15,4.04.1,8.16.27,12.17-.28,6.31-1.08,11.94-3.33,18.26-.61,4.16,1.68,7.71,4.6,11.31,7.21,7.79.33,15.67.02,23.48.12,7.24,0,14.5,0,21.74,0,.96-.14,1.85-1.09,2.61-1.63,1.05-.79,2.35-1.69,3.48-2.37,3.16-1.94,6.78-3.17,10.44-3.76,6.02-.93,12.14-2.58,18.26-1.55,4.59.7,8.92,2.65,13.04,4.7,2.92,1.43,5.97,2.81,8.7,4.6,1.39.01,2.95,0,4.35,0"/><path class="b" d="M8.6,103.88c1.11-.06,2.46.21,3.48-.34,2.32-1.04,4.62-2.39,6.96-3.39,7.35-3.3,14.95-2.07,22.61-.96,7.5,1.17,11.37-1.37,18.26-2.78,6.94-1.48,13.28,1.59,19.13,4.98,1.48.66,2.85,1.91,4.35,2.5.78,0,1.83,0,2.61,0,10.72,0,21.46,0,32.18,0,1.12-.07,2.53.27,3.48-.47,1.87-1.41,3.95-2.79,6.09-3.76,4.05-1.96,8.67-1.85,13.04-1.48,2.58.16,5.26-.08,7.83-.34,7.55-.97,15.42-1.17,22.61,1.69,2.38.87,4.76,2.04,6.96,3.31.39.24,1.33.73,1.74.97,1.07.15,2.4.07,3.48.09"/><path class="b" d="M8.6,99.16c1.1,0,2.38,0,3.48,0,2.01-.94,4.03-2.16,6.09-2.99,7.32-3.24,14.34-1.83,21.74.13,3.98,1.04,8.29,1.4,12.17-.2,5.08-1.88,10.11-4.58,15.65-4.57,3.27-.04,6.54.85,9.57,2.04,2.83.99,5.53,2.5,7.83,4.44.4.36,1.24.95,1.74,1.15.78,0,1.83,0,2.61,0,2.28,0,4.67,0,6.96,0,6.95,0,13.93,0,20.87,0,.42,0,1.31,0,1.74,0,1.45-.65,2.89-1.74,4.35-2.39,6.67-3.39,11.67-1.09,18.26.65,3.76.83,7.69-.04,11.3-1.13,6.67-2.06,14.02-5.04,20.87-2.06,3.27,1.43,6.28,3.54,9.57,4.94"/><path class="b" d="M8.6,94.44c2.87-.03,5.83.07,8.7-.05,2.49-.9,5.18-1.52,7.83-1.7,3.19-.23,6.44.17,9.57.79,1.99.33,4.05,1.05,6.09.96,2.87,0,5.82,0,8.7,0,1.47-.29,2.98-1.04,4.35-1.65,10.57-5.29,16.36-6.78,27.83-2.54,2.47,1.06,4.56,3.04,6.96,4.19,1.69,0,3.52,0,5.22,0,6.95,0,13.93,0,20.87,0,.83.07,1.93-.09,2.61-.63,1.07-.6,2.36-1.28,3.48-1.79,7.2-3.46,12.47-.86,19.13,2.16,1.04.42,2.39.21,3.48.25,1.99,0,4.1,0,6.09,0,2.13-.07,4.15-1.46,6.09-2.25,4.39-2.09,8.92-4.68,13.91-4.61,5.2.15,9.26,4.05,13.91,5.9"/><path class="b" d="M8.6,89.72c12.46,0,24.94,0,37.39,0,2.58,0,5.25,0,7.83,0,1.46-.41,2.95-1.25,4.35-1.84,5.43-2.54,11.34-4.4,17.39-4.14,3.28.04,6.66.38,9.57,2.02,2.6,1.27,5.12,2.92,7.83,3.96,1.99,0,4.1,0,6.09,0,2.28,0,4.67,0,6.96,0,.77,0,1.84,0,2.61,0,.81-.07,1.84-.48,2.61-.74,2.96-1,5.76-2.61,8.7-3.66,7.21-2.81,12.74.02,19.13,3.24,1.32.62,2.85,1.32,4.35,1.16,1.99-.02,4.1.05,6.09-.04,7.18-1.87,14.02-6.93,21.74-5.38,4.2,1.05,7.9,3.72,12.17,4.59"/><path class="b" d="M8.6,85c16.81,0,33.63,0,50.44,0,1.19-.09,2.39-.89,3.48-1.33,1.39-.63,2.94-1.34,4.35-1.94,4.42-1.86,9.09-3.53,13.91-3.87,5.51.16,10.28,3.63,15.65,4.54,5.62,1.22,11.25-.67,16.52-2.48,3.63-1.33,7.38-2.87,11.31-2.89,3.64-.07,7.19,1.21,10.44,2.73,2.8,1.27,5.62,2.86,8.7,3.35,6.16.81,12.15-1.72,18.26-2.06,3.19-.24,6.5.07,9.57,1,1.74.5,3.5,1.38,5.22,1.95,2.2.72,4.64,1.05,6.96.89"/><path class="b" d="M8.6,80.27c14.49,0,28.99,0,43.48,0,4.04,0,8.14,0,12.17,0,.94.19,1.87-.59,2.61-1.05.78-.5,1.83-1.2,2.61-1.71,3.04-1.98,6.16-4.07,9.57-5.39,5.43-2.16,11.09.79,16.52,1.52,3.44.57,7.04.42,10.44-.38,6.32-1.41,12.51-4.57,19.13-3.69,5.24.58,9.88,3.4,14.78,5.1,2.2.77,4.65.91,6.96.94,5.22-.02,10.56-.17,15.65,1.16,2.03.5,4.14,1.2,6.09,1.95,1.4.47,2.88,1.33,4.35,1.55,3.45,0,6.98,0,10.44,0"/><path class="b" d="M8.6,75.55c13.04,0,26.09,0,39.13,0,4.33,0,8.71,0,13.04,0,2.57-.08,5.27.19,7.83-.14,3.84-3.36,7.43-7.41,12.17-9.51,2.74-1.09,5.81-1.01,8.7-.73,3.73.38,7.55.88,11.3.56,9.87-.87,16.53-6.1,26.96-2.68,4.72,1.38,9.05,4.09,13.91,5,3.15.39,6.41.24,9.57.62,3.58.37,7.14,1.35,10.44,2.78,2.65,1.13,5.27,2.55,7.83,3.86,1.63.51,3.53.15,5.22.25,2.87,0,5.83,0,8.7,0"/><path class="b" d="M8.6,70.83h61.74c2.74-2.9,5.44-6.05,8.7-8.39,4.02-2.89,9.17-2.91,13.91-2.99,4.38-.05,8.82-.59,13.04-1.77,10.89-3.45,15.56-3.85,26.09,1.3,7.12,3.47,8.6,3.96,16.52,3.79,5.76-.05,11.43,1.53,16.52,4.17,1.7.84,3.52,1.8,5.22,2.65,1.06.45,2.28,1.32,3.48,1.24,1.69,0,3.53,0,5.22,0,.41,0,1.32,0,1.74,0,.82-.22,1.87-.75,2.61-1.16"/><path class="b" d="M8.6,66.11c13.62,0,27.25,0,40.87,0,4.91,0,9.87,0,14.78,0,1.39,0,2.96,0,4.35,0,1.09-.04,2.43.14,3.48-.22,9.22-10.01,12.65-9.27,25.22-11.34,3.52-.64,7.02-1.66,10.44-2.71,3.36-1.05,6.88-2.04,10.44-1.77,5.04.3,9.63,2.75,13.91,5.23,3.28,1.84,6.64,4.03,10.44,4.53,3.47.31,6.99-.39,10.44-.75,3.44-.4,7.01-.46,10.44.14,3.87.63,7.6,2.06,11.3,3.27,2.88.81,5.99.03,8.7-1.06"/><path class="b" d="M8.6,61.39c19.42,0,38.85,0,58.26,0,1.69,0,3.52,0,5.22,0,.99-.11,1.86-1.12,2.61-1.68,1.07-.87,2.36-1.88,3.48-2.67,4.78-3.6,10.77-4.89,16.52-6.05,4.06-.82,8.15-1.78,12.17-2.76,5.38-1.4,11.19-2.27,16.52-.21,4.05,1.43,7.69,3.89,11.3,6.16,3.15,1.96,6.6,4.04,10.44,4.01,5.73-.06,11.02-2.78,16.52-4.06,3.38-.84,6.98-1.21,10.44-.65,1.4.21,2.93.72,4.35.81,2.32.15,4.74-.33,6.96-.98"/><path class="b" d="M8.6,56.67c14.2,0,28.41,0,42.61,0,6.36,0,12.77,0,19.13,0,3.9-1.81,7.47-4.44,11.3-6.39,8.33-4.13,17.87-4.49,26.96-5.44,7.79-.87,13.82-.97,20.87,3.06,3.84,2.06,7.38,4.79,11.3,6.69,10.37,5.11,19.67-4.97,29.57-6.61,1.99-.39,4.1.1,6.09.17,2.32.02,4.73-.48,6.96-1.1"/><path class="b" d="M8.6,51.94c11.88,0,23.78,0,35.65,0,5.49,0,11.03,0,16.52,0,3.37-1.53,6.91-2.83,10.44-3.95,3.89-1.15,7.64-2.83,11.31-4.54,6.86-2.93,14.49-2.61,21.74-1.7,2.57.28,5.24.56,7.83.54,2.29-.03,4.67-.23,6.96-.2,8.93-.15,15.21,4.89,22.61,8.94,1.83,1.21,4.01.89,6.09.91,2.58,0,5.25,0,7.83,0,4.32-1.01,8.08-3.82,12.17-5.48,1.62-.7,3.45-1.31,5.22-1.46,1.08-.06,2.4.05,3.48-.06,2.35-.21,4.74-.9,6.96-1.69"/><path class="b" d="M8.6,47.22c9.56,0,19.14,0,28.7,0,3.16,0,6.4,0,9.57,0,1.09,0,2.39,0,3.48,0,.93.14,1.97-.31,2.61-.97,7.71-6.15,13.21-7,22.61-8.17,2.38-.33,4.68-1.33,6.96-2.02,3.36-.97,6.98-1.19,10.44-.67,6.54.84,12.52,4.35,19.13,4.79,2.88.1,5.82-.42,8.7-.58,7.05-.66,13.26,2.29,19.13,5.84,1.07.59,2.32,1.37,3.48,1.78,1.69,0,3.53,0,5.22,0,3.46,0,6.98,0,10.44,0,1.99-.02,4.1.05,6.09-.04,1.96-.86,4.03-1.81,6.09-2.41,1.64-.54,3.53-.48,5.22-.78,2.4-.46,4.77-1.45,6.96-2.52"/><path class="b" d="M8.6,42.5h38.26c4.22-3.36,8.03-7.49,13.04-9.74,4.84-2.44,10.37-2.33,15.65-2.27,2.62.06,5.23-.76,7.83-.95,7.89-.63,14.83,3.77,21.74,6.88,7.84,3.85,12.99.47,20.87.74,3.62.14,7.19,1.31,10.44,2.87,1.41.67,2.96,1.48,4.35,2.2.73.34,1.82.27,2.61.27,3.75,0,7.56,0,11.3,0,5.49,0,11.03,0,16.52,0,2.57-.1,5.28.22,7.83-.16,1.44-.62,3-1.47,4.35-2.28"/><path class="b" d="M8.6,37.78c11.3,0,22.62,0,33.91,0,.56-.02,1.35-.5,1.74-.87,1.12-.86,2.4-1.94,3.48-2.85,3.03-2.6,6.12-5.33,9.57-7.37,5.41-3.38,11.29-3.59,17.39-2.36,2.84.61,5.84.53,8.7,1.01,5.93,1.1,11.23,4.21,16.52,6.95,4.03,2.05,8.4,4.22,13.04,3.96,2.9-.17,5.81-.9,8.7-1.2,2.88-.33,5.89-.18,8.7.57,2.07.47,4.07,1.55,6.09,2.16.77,0,1.84,0,2.61,0,14.78,0,29.57,0,44.35,0"/><path class="b" d="M8.6,33.06c6.37,0,12.77,0,19.13,0,1.99,0,4.1,0,6.09,0,1.1,0,2.39.03,3.48-.04.46-.18,1.29-.57,1.74-.77,7.01-3.18,12.36-9.04,19.13-12.59,8.37-4.36,14.71-.53,22.61,2.37,7.02,2.83,12.99,7.83,20,10.7,1.01.56,2.38.29,3.48.34,1.69,0,3.52,0,5.22,0,4.62-.02,9.29.04,13.91-.03,20,.07,40.01,0,60,.03"/><path class="b" d="M8.6,28.34c4.91-.06,9.88.13,14.78-.08,7.31-1.87,15-2.82,21.74-6.44,5.57-2.77,10.26-7.58,16.52-8.82,5.78-1.18,11.13,2.17,15.65,5.36,2.01,1.39,4.2,2.79,6.09,4.37,2.31,1.8,4.5,4,6.96,5.61,31.01-.06,62.04.12,93.05-.06"/><path class="b" d="M8.6,23.61c1.7,0,3.52,0,5.22,0,1.53,0,3.01-.95,4.35-1.6,1.64-.81,3.47-1.54,5.22-2.09,5.91-1.92,12.22-1.99,18.26-3.26,2.38-.51,4.81-1.32,6.96-2.46,3.9-2.07,7.7-4.83,12.17-5.46,7.54-1.01,13.23,5.24,18.26,9.91,1.81,1.48,3.31,3.62,5.22,4.96,20.87,0,41.75,0,62.61,0,7.24,0,14.5,0,21.74,0,2.58,0,5.25,0,7.83,0,1.39-.08,3.01.21,4.35-.24.78-.86,1.84-2.04,2.61-2.9"/></svg>