<?xml version="1.0" encoding="UTF-8"?><svg id="a" xmlns="http://www.w3.org/2000/svg" width="1920" height="2400" viewBox="0 0 192 240"><defs><style>.b{fill:none;stroke:#fff;stroke-miterlimit:10;stroke-width:.4px;}.c{stroke-width:0px;}</style></defs><rect class="c" x="0" width="192" height="240"/><path class="b" d="M8.29,224.26c10.47,0,20.95,0,31.42,0,1.7,0,3.54,0,5.24,0,.91-.36,1.86-1.31,2.62-1.91,3.31-2.96,8.01-3.74,12.22-2.55,4.75,1.11,9.12,3.75,13.96,4.46,2,0,4.11,0,6.11,0,2.79-.65,5.24-2.45,7.85-3.57,6-2.85,10.28-.54,14.84,3.57,10.47,0,20.95,0,31.42,0,3.76,0,7.58,0,11.35,0,1.98-.12,4.2.3,6.11-.26,3.06-2,6.74-3.67,10.47-2.97,2.56.4,4.81,1.91,6.98,3.22,4.93,0,9.91,0,14.84,0"/><path class="b" d="M8.29,219.47c10.46.15,20.95,0,31.42.05,4.22-2.53,7.36-7.08,12.22-8.49,9.2-1.89,16.37,7.21,25.31,7.67,5.55.3,10.11-4.39,15.71-3.87,2.55.19,4.98,1.45,6.98,2.98,1.77,1.46,1.94,1.87,4.36,1.71,7.84,0,15.72,0,23.56,0,6.1,0,12.23,0,18.33,0,.8,0,1.9.09,2.62-.35,1.37-.98,2.92-2.08,4.36-2.97,7.99-5.1,13.43-2.08,20.07,3.31h10.47"/><path class="b" d="M8.29,214.54c3.47-.12,7-.43,10.47-.56,2.3.02,4.69.27,6.98.27,9.16.31,15.54-5.5,22.69-10.22,5.28-3.38,11.59-.63,16.58,1.97,3.88,1.94,7.84,4.19,12.22,4.7,2.62.31,5.29-.43,7.85-.86,6.43-1.28,10.83,1,15.71,4.94,13.67,0,27.35,0,41.02,0,4.65.05,4.05.33,7.85-2.44,3.46-2.48,7.04-5.31,11.35-6.05,5.69-.99,10.62,2.85,14.84,6.15,3.78,2.93,3.22,2.31,7.85,2.34"/><path class="b" d="M8.29,210.05c.79,0,1.83,0,2.62,0,1.12-.2,2.4-.59,3.49-.91,2.56-.84,5.21-1.75,7.85-2.31,4.72-1.04,9.5-2.14,13.96-4.05,4.51-1.82,8.71-4.42,13.09-6.5,6.46-2.61,13.19.84,19.2,3.15,4.15,1.69,8.57,2.99,13.09,2.82,7.65-.05,12.6,3.18,18.33,7.8,12.79,0,25.61,0,38.4,0,6.61.59,11.37-3.93,16.58-7.2,12.92-8.2,17.96,1.15,28.8,6.41"/><path class="b" d="M8.29,205.31c2-.03,4.12.08,6.11-.07,3.17-1.7,6.31-3.63,9.6-5.11,6.47-3.06,13.34-5.25,20.07-7.66,2.01-.69,4.07-1.64,6.11-2.23,4.88-1.32,10.03-.35,14.84.81,4.33,1.05,8.68,2.3,13.09,2.94,8.7.47,15.37,5.92,21.82,11.21,6.66.3,13.4.02,20.07.11,2.88,0,5.85,0,8.73,0,1.69-.12,3.62.3,5.24-.29,2.24-.82,4.63-1.57,6.98-2.01,2.04-.29,4.23-.54,6.11-1.46,5.44-2.43,10.43-6.52,16.58-6.89,4.46-.32,8.62,1.81,12.22,4.22,2.48,1.54,5.14,2.99,7.85,4.07"/><path class="b" d="M8.29,200.57c2.59,0,5.27,0,7.85,0,1.88-.83,3.5-2.46,5.24-3.55,2.76-1.93,5.7-3.77,8.73-5.24,4.94-2.47,10.39-3.7,15.71-5.07,6.9-2.45,12.93-2.29,20.07-1.24,3.48.48,7.01,1.09,10.47,1.68,2.32.41,4.78.71,6.98,1.58,4.78,1.85,8.94,5.03,13.09,7.97,1.95,1.32,3.94,2.92,6.11,3.87,1.4,0,2.97,0,4.36,0,2.88,0,5.85,0,8.73,0,1.7-.06,3.56.16,5.24-.15,3.99-1.47,8.06-2.98,12.22-3.91,2.26-.51,4.67-.87,6.98-1.07,2.31-.17,4.75-.18,6.98-.89,6.47-2.03,13.18-5.28,20.07-3.31,3.44.83,6.52,2.75,9.6,4.41,2.18,1.11,4.6,2.03,6.98,2.58"/><path class="b" d="M8.29,195.83c2.88,0,5.84,0,8.73,0,.59,0,1.34-.47,1.75-.85,1.1-.85,2.38-1.85,3.49-2.67,2.48-1.85,5.13-3.66,7.85-5.14,4.6-2.58,9.74-4.03,14.84-5.27,2.01-.48,4.07-1.25,6.11-1.61,2.56-.45,5.27-.47,7.85-.26,4.99.42,9.93,1.52,14.84,2.49,3.48.76,7.11,1.2,10.47,2.41,6.61,2.29,12.52,6.35,19.2,8.46,2.5.77,5.25,1.18,7.85.75,4.79-.88,9.32-2.92,13.96-4.31,3.67-1.14,7.51-1.94,11.35-2.26,2.87-.3,5.86-.18,8.73-.49,5.19-.72,10.45-2.13,15.71-1.26,3.67.54,7.21,2.02,10.47,3.74,3.77,2.15,7.78,4.26,12.22,4.37"/><path class="b" d="M8.29,191.09c2.88,0,5.84,0,8.73,0,.58.02,1.35-.41,1.75-.81.79-.59,1.82-1.38,2.62-1.95,2.5-1.82,5.15-3.6,7.85-5.11,4.64-2.64,9.76-4.4,14.84-6,3.43-1.09,6.81-2.76,10.47-2.82,7.37-.31,14.15,3.13,20.95,5.48,6.21,2.09,12.76,3.13,19.2,4.28,4.6.73,9.3,1.31,13.96,1.06,3.81-.24,7.6-1.15,11.35-1.83,7.46-1.55,15.1-1.84,22.69-2.01,6.09-.42,12.37-1.63,18.33.34,3.68,1.1,7.14,2.99,10.47,4.87,3.67,2.23,7.81,4.16,12.22,3.69"/><path class="b" d="M8.29,186.35c2.88-.09,5.87.19,8.73-.13,4.06-3.04,8.47-5.71,13.09-7.81,4.83-2.23,9.97-3.85,14.84-5.99,6.24-3.12,10.33-5.3,17.45-2.9,4.38,1.5,8.25,4.22,12.22,6.53,8.23,5.42,17.88,3.67,27.05,2.49,10.7-1.57,21.53-1.01,32.29-.96,5.54.09,11.08-.63,16.58-1.12,4.47-.31,9.02.56,13.09,2.43,4.8,2.05,9.03,5.39,13.96,7.12,1.92.64,4.12.25,6.11.35"/><path class="b" d="M8.29,181.62h6.98c2.76-1.9,5.62-3.84,8.73-5.14,3.94-1.75,8.15-2.94,12.22-4.34,2.97-1.02,5.98-2.24,8.73-3.78,6.51-4.03,11.23-8.21,19.2-4.38,9.83,5.04,13.4,14.13,26.18,12.25,6.13-.76,12.12-2.71,18.33-2.87,6.13-.12,12.2,1.31,18.33,1.39,5.84.2,11.69-.68,17.45-1.5,6.63-1.29,12.82-1.9,19.2.93,5.08,2.11,9.65,5.41,14.84,7.27,1.67.32,3.54.09,5.24.16"/><path class="b" d="M8.29,176.88c1.7,0,3.53,0,5.24,0,.92-.25,1.86-1.1,2.62-1.63,1.05-.76,2.33-1.56,3.49-2.13,4.35-2.17,9.28-2.77,13.96-3.85,3.98-.89,7.93-2.35,11.35-4.61,5.87-4.08,11.33-10.78,19.2-6.98,2.96,1.42,5.49,3.75,7.85,5.99,7.96,8.22,12.08,9.86,23.56,8.73,4.62-.44,9.33-.93,13.96-.46,3.19.34,6.4,1.05,9.6,1.33,3.47.33,7.06.15,10.47-.55,3.83-.76,7.57-2.15,11.35-3.11,4.35-.82,8.67-2.16,13.09-2.52,5.19-.45,10.29,1.31,14.84,3.67,2.56,1.34,5.26,2.65,7.85,3.93,1.38.71,2.94,1.5,4.36,2.11.75.12,1.85.09,2.62.09"/><path class="b" d="M8.29,172.14c1.41,0,2.96,0,4.36,0,.95-.15,1.86-1.06,2.62-1.59,1.31-.97,2.85-1.93,4.36-2.55,4.69-1.94,9.91-1.71,14.84-2.63,3.73-.65,7.38-2.11,10.47-4.31,6.73-5.03,12.65-13.97,21.82-7.63,3.93,2.7,6.97,6.57,10.47,9.76,7.05,6.5,17.24,6.41,26.18,7.79,2.3.31,4.68.81,6.98,1.16,3.47,0,7,0,10.47,0,1.09,0,2.4,0,3.49,0,3.39-.92,6.55-2.73,9.6-4.42,2.24-1.25,4.57-2.6,6.98-3.49,1.66-.59,3.55-.89,5.24-1.38,4.23-1.18,8.68-2.23,13.09-1.55,6.28.98,11.83,4.51,17.45,7.25,1.41.84,2.96,1.86,4.36,2.73.66.48,1.77,1.01,2.62.86"/><path class="b" d="M8.29,167.4c1.7,0,3.53,0,5.24,0,1.21-.42,2.37-1.45,3.49-2.04,1.32-.74,2.89-1.36,4.36-1.73,5.43-1.33,11.23-.73,16.58-2.47,3.18-.98,6.18-2.72,8.73-4.84,3.55-3.01,6.79-6.86,11.35-8.34,9.83-2.63,15.38,9.79,22.69,14.04,4.01,2.49,8.57,4.03,13.09,5.29,11.03.27,22.12,0,33.16.1,4.59-2.92,8.29-7.24,13.09-9.87,1.85-1.05,4.07-1.41,6.11-1.91,3.69-.87,7.6-1.31,11.35-.52,4.72.94,8.95,3.49,13.09,5.82,1.93,1.15,4.17,2.02,6.11,3.15,1.11.67,2.41,1.53,3.49,2.26.4.29,1.31.84,1.75,1.07.42,0,1.32,0,1.75,0"/><path class="b" d="M8.29,162.66c2.88-.06,5.86.13,8.73-.09,1.63-.71,3.48-1.17,5.24-1.4,4.04-.53,8.21-.34,12.22-1.14,4.13-.76,8.05-2.66,11.35-5.24,6.39-5.35,12.37-12.57,20.95-6.19,4.87,3.51,8.23,8.8,13.09,12.3,1.05.64,2.26,1.55,3.49,1.75,2.29,0,4.69,0,6.98,0,4.64,0,9.33,0,13.96,0,7.55,0,15.14,0,22.69,0,1.43-.57,2.42-2.25,3.49-3.3,2.24-2.5,4.52-5.18,6.98-7.47,2.96-2.95,6.33-4.19,10.47-4.39,4.64-.3,9.17,1.43,13.09,3.79,3.56,2.1,6.89,4.72,10.47,6.79,1.61.97,3.56,1.61,5.24,2.44,1.41.65,2.87,1.69,4.36,2.14.76,0,1.85,0,2.62,0"/><path class="b" d="M8.29,157.92c9.01,0,18.04,0,27.05,0,3.48-.38,6.75-2.3,9.6-4.24,2.41-1.69,4.57-3.92,6.98-5.62,7.15-5.29,12.88-2.02,18.33,3.71,1.12,1.15,2.41,2.56,3.49,3.75.72.76,1.64,1.95,2.62,2.41h51.49c1.38-.97,2.41-2.76,3.49-4.03,2.69-3.4,5.34-7.08,8.73-9.83,2.63-2.15,6.3-2.74,9.6-2.21,7.84,1.46,13.52,7.68,20.07,11.73,2.1,1.41,4.59,2.24,6.98,2.99,1.09.39,2.4.87,3.49,1.26,1.08.16,2.4.08,3.49.09"/><path class="b" d="M8.29,153.19c10.17,0,20.37,0,30.55,0,1.09,0,2.4,0,3.49,0,2.59-1.1,4.82-3.1,6.98-4.85,9.37-7.93,15.68-3.03,22.69,4.74,6.66.31,13.4.02,20.07.11,12.5,0,25.02,0,37.53,0,1.73-1.28,2.94-3.48,4.36-5.08,2.73-3.23,5.5-7.06,9.6-8.58,10.54-3.25,18.9,6.95,27.93,10.55,1.63.7,3.51,1.05,5.24,1.41,2.27.5,4.66.99,6.98,1.22"/><path class="b" d="M8.29,146.32c3.36,1.22,6.99.84,10.47,1.12,1.44.17,2.94.79,4.36,1.01,3.76,0,7.58,0,11.35,0,3.76,0,7.58,0,11.35,0,2.23-.94,3.97-3.01,6.11-4.15,3.36-2.18,7.76-2.77,11.35-.8,1.52.77,3.07,1.9,4.36,3,.76.61,1.63,1.7,2.62,1.94,6.68,0,13.39,0,20.07,0,14.25,0,28.51,0,42.76,0,2.64-2.4,4.88-5.43,7.85-7.48,5.37-3.81,12.45-2.83,18.33-.82,4.06,1.31,8.07,3.01,12.22,4.03,4,.87,8.15,1.31,12.22,1.66"/><path class="b" d="M8.29,139.21c3.73.71,7.69-.08,11.35.97,1.79.57,3.59,1.48,5.24,2.37.77.4,1.74,1.07,2.62,1.16,1.4,0,2.96,0,4.36,0,5.51,0,11.07,0,16.58,0,2.34-1.16,4.43-3.06,6.98-3.83,5.55-1.98,9.61.77,13.96,3.83,18.32,0,36.66,0,54.98,0,3.18,0,6.42,0,9.6,0,1.4-.09,3.05.27,4.36-.31.42-.37,1.31-1.09,1.75-1.43,11.26-8.17,30.7-5.65,43.64-3.04"/><path class="b" d="M8.29,133.33c3.46-.1,7.03-.92,10.47-.27,2.8.66,5.39,2.19,7.85,3.62,1.4.74,2.82,1.89,4.36,2.29,5.51,0,11.07,0,16.58,0,.87.05,1.95.03,2.62-.61,1.07-.67,2.35-1.41,3.49-1.94,5.55-2.8,10.91-1.44,15.71,2.12.98.69,2.37.37,3.49.43,1.7,0,3.54,0,5.24,0,5.51,0,11.07,0,16.58,0,15.7,0,31.42,0,47.13,0,9.3-4.75,18.96-10.23,29.67-10.34,4.25-.05,8.39,1.35,12.22,3.08"/><path class="b" d="M8.29,128.63c3.16-.42,6.39-1.14,9.6-1.09,7.13.48,13.17,5.07,20.07,6.53,2.26.36,4.69.07,6.98.16,2.14-.26,4.14-1.43,6.11-2.21,2.2-.91,4.6-1.67,6.98-1.85,3-.24,6.06.55,8.73,1.89.8.4,1.86,1,2.62,1.47.4.33,1.22.71,1.75.7,2,0,4.11,0,6.11,0,22.11,0,44.22,0,66.33,0,11.89-7.33,26.12-19.63,40.15-9.96"/><path class="b" d="M8.29,125.23c3.47-.54,6.97-1.34,10.47-1.65,3.18-.26,6.46-.02,9.6.54,4.96.84,9.81,2.56,14.84,3.07,4.69.53,9.26-1.48,13.96-1.24,2.66.04,5.38.61,7.85,1.57.79.3,1.85.77,2.62,1.15.75.38,1.74,1,2.62.84,2.59,0,5.27,0,7.85,0,21.23-.01,42.48.02,63.71-.01,8.22-5.93,16.77-12.48,27.05-14.01,5.27-.85,10.33-.13,14.84,2.85"/><path class="b" d="M8.29,122.8c5.02-.74,9.92-2.25,14.84-3.44,3.99-.92,8.2-1.05,12.22-.26,4.95.93,9.74,2.99,14.84,2.96,5.02.21,10.1.86,14.84,2.6,3.75.19,7.59.02,11.35.08,20.65,0,41.31,0,61.96,0,6.85-5.93,14.24-11.14,23.56-11.89,3.46-.36,7-.21,10.47-.16,3.84-.11,7.82.16,11.35,1.82"/><path class="b" d="M8.29,120.02c2.71.23,5.34-.78,7.85-1.65,9.25-3.81,14.35-6.96,24.44-2.8,2.29.88,4.62,1.96,6.98,2.62,3.15.7,6.4,1.47,9.6,1.82,3.76,0,7.58,0,11.35,0,22.11,0,44.22,0,66.33,0,3.62-2.6,6.65-6.12,10.47-8.47,7.83-4.95,15.48-1.75,23.56.35,4.85,1.37,9.93-.19,14.84.68"/><path class="b" d="M8.29,115.28c1.7-.06,3.55.14,5.24-.13,1.11-.49,2.4-1.09,3.49-1.62,6.2-3.27,12.17-6.12,19.2-3.4,3.62,1.28,6.92,3.47,10.47,4.91,1.93.51,4.12.12,6.11.24,3.76,0,7.58,0,11.35,0,23.27,0,46.55,0,69.82,0,3.48-2.84,6.63-6.26,10.47-8.63,6.61-4.06,13.95-.32,20.07,2.84,8.69,4.51,10.34,2.65,19.2,1.79"/><path class="b" d="M8.29,110.54c1.1-.03,2.41.1,3.49-.14,1.39-.82,2.94-1.71,4.36-2.46,3.23-1.73,6.75-3.35,10.47-3.47,3.71-.14,7.31,1.32,10.47,3.15,1.75.86,3.36,2.4,5.24,2.93,6.68,0,13.39,0,20.07,0,22.4,0,44.8,0,67.2,0,1.09,0,2.4,0,3.49,0,.48.1,1.36-.15,1.75-.45,3.07-2.22,6.07-4.82,9.6-6.27,5.76-2.27,11.74.89,16.58,3.92,1.39.86,2.95,1.84,4.36,2.68.75.15,1.85.12,2.62.12,5.22,0,10.49,0,15.71,0"/><path class="b" d="M8.29,105.8c1.34.23,2.47-.91,3.49-1.59,1.35-.93,2.91-1.91,4.36-2.67,8.55-4.73,15.55-.96,22.69,4.22,6.68.11,13.39,0,20.07.04,4.94-.03,9.93.18,14.84-.37,1.42-.07,2.96.3,4.36.37,5.51,0,11.07,0,16.58,0,11.34,0,22.7,0,34.04,0,1.4-.03,2.97.08,4.36-.09.78-.38,1.85-.91,2.62-1.29,3.76-1.88,7.9-3.87,12.22-3.1,3.84.5,7.12,2.77,10.47,4.48,8.43,0,16.88,0,25.31,0"/><path class="b" d="M8.29,100.61c7.3-6.12,13.73-8.91,22.69-4.11,1.76.91,3.58,2.04,5.24,3.12.78.48,1.71,1.25,2.62,1.44,5.8,0,11.65,0,17.45,0,2,0,4.11,0,6.11,0,.79,0,1.85.05,2.62-.15.45-.18,1.3-.53,1.75-.7,10.81-4.17,12.6.23,22.69.46,6.98.28,13.97-.8,20.95-.52,4.34.23,8.75.76,13.09.3,4.44-.39,8.76-1.73,13.09-2.72,3.43-.84,7.1-.9,10.47.22,2.43.7,4.74,1.98,6.98,3.12,2.59,0,5.27,0,7.85,0,7.26,0,14.56,0,21.82,0"/><path class="b" d="M8.29,94.31c9.29-7.4,16.13-6.38,26.18-1.24,2.29,1.06,4.56,2.53,6.98,3.26,1.7,0,3.54,0,5.24,0,4.05,0,8.16,0,12.22,0,3.45-1.22,6.89-2.73,10.47-3.56,2.54-.6,5.25-.89,7.85-.64,2.01.19,4.08.83,6.11.88,4.99.21,9.93-.98,14.84-1.71,4.6-.72,9.34-1.03,13.96-.42,4.03.48,8.17.69,12.22.35,4.36-.31,8.71-1.29,13.09-1.27,5.39,0,10.26,2.93,14.84,5.48.36.28,1.31.74,1.75.91.77,0,1.85,0,2.62,0,2.29,0,4.69,0,6.98,0,6.68,0,13.39,0,20.07,0"/><path class="b" d="M8.29,88c12.71-8.93,24.42-.15,37.53,2.1,4.37.85,8.84-.03,13.09-1.09,5.69-1.44,11.55-2.74,17.45-2.29,2.01.1,4.1.58,6.11.55,4.16-.08,8.22-1.38,12.22-2.4,3.97-1.05,8.09-1.89,12.22-1.88,3.19-.04,6.41.71,9.6.67,5.3.08,10.5-1.27,15.71-2.02,3.18-.44,6.61-.44,9.6.88,3.27,1.64,6.47,3.63,9.6,5.52,1.71,1.06,3.55,2.25,5.24,3.36.75.22,1.85.17,2.62.17,8.14,0,16.3,0,24.44,0"/><path class="b" d="M8.29,81.97c2.72-1.34,5.67-2.56,8.73-2.74,7.08-.44,14.06,1.3,20.95,2.71,4.58.91,9.27,1.88,13.96,1.77,4.36-.13,8.74-.78,13.09-.96,4.35-.23,8.76.01,13.09.43,7.79,1.14,15.12-2.6,22.69-3.71,2.56-.42,5.26-.61,7.85-.5,2.88.18,5.85.6,8.73.08,3.91-.58,7.66-2.07,11.35-3.42,3.05-1.1,6.31-2.2,9.6-1.97,3.64.23,6.58,2.79,9.6,4.56,2.62,1.67,5.3,3.47,7.85,5.24,1.71,1.07,3.37,2.61,5.24,3.39,7.55,0,15.14,0,22.69,0"/><path class="b" d="M8.29,77.41c2.24-.78,4.62-1.52,6.98-1.8,2.88-.21,5.85-.18,8.73-.25,9.63-.22,19.24.83,28.8,1.82,7.43.73,14.57,3.1,21.82,4.74,1.96.4,4.12.12,6.11.2,1.4-.03,2.97.08,4.36-.09,1.11-.25,2.41-.61,3.49-.95,6.27-2.01,12.54-4.6,19.2-4.88,2-.14,4.11.13,6.11.02,5.64-.32,10.74-3.11,15.71-5.56,3.73-1.79,8.06-3.8,12.22-2.35,7.62,3.5,14.05,9.12,20.95,13.81h20.95"/><path class="b" d="M8.29,73.46c2.28-.49,4.65-1.05,6.98-1.25,2.3-.09,4.69-.1,6.98-.33,4.34-.39,8.73-.85,13.09-.83,4.65,0,9.34.48,13.96.92,3.63.45,7.17,1.71,10.47,3.25,1.42.65,2.96,1.47,4.36,2.16,1.1,0,2.4,0,3.49,0,6.39,0,12.81,0,19.2,0,2.29,0,4.69,0,6.98,0,.78,0,1.84,0,2.62,0,.43-.2,1.31-.58,1.75-.77,3.06-1.31,6.3-2.43,9.6-2.92,2.57-.42,5.28-.17,7.85-.6,3-.44,5.98-1.46,8.73-2.72,5.4-2.26,10.48-6.5,16.58-6.29,2.14.22,4.21,1.29,6.11,2.23,3.36,1.77,6.54,4.03,9.6,6.27,1.39,1.03,2.96,2.18,4.36,3.19,1,.68,2.18,1.82,3.49,1.6,6.39,0,12.81,0,19.2,0"/><path class="b" d="M8.29,69.36c2.3-.3,4.67-.78,6.98-.95,2-.07,4.11-.03,6.11-.18,7-.59,14.06-.19,20.95,1.21,2.57.51,5.26.71,7.85,1.05,2.08.37,4.19,1.11,6.11,1.99,3.15.35,6.43.05,9.6.14,5.8,0,11.65,0,17.45,0,6.39,0,12.81,0,19.2,0,1.16-.09,2.38-.8,3.49-1.11,1.65-.54,3.5-.94,5.24-1.08,5.04-.25,10.15-.91,14.84-2.87,3.83-1.49,7.46-3.61,11.35-4.96,6.89-2.63,13.64,2.02,19.2,5.67,1.39.94,2.96,2.01,4.36,2.94.73.48,1.75,1.22,2.62,1.41.4,0,1.33,0,1.75,0,6.1,0,12.23,0,18.33,0"/><path class="b" d="M8.29,64.78c2.3-.23,4.67-.74,6.98-.9,6.19-.17,12.51.43,18.33,2.67,1.11.4,2.39.93,3.49,1.34.79,0,1.83,0,2.62,0,2.88,0,5.84,0,8.73,0,17.45,0,34.91,0,52.36,0,2.59,0,5.27,0,7.85,0,1.39-.29,2.95-.58,4.36-.65,4.37-.23,8.85-.18,13.09-1.39,3.3-.88,6.49-2.34,9.6-3.71,3-1.32,6.26-2.63,9.6-2.31,6.78.69,12.35,5.17,18.33,8.02,3.76.09,7.59,0,11.35.04,1.69-.04,3.55.11,5.24-.1,1.07-.47,2.39-1.02,3.49-1.44"/><path class="b" d="M8.29,59.81c2.3-.3,4.66-.87,6.98-1.04,3.87-.17,7.82.7,11.35,2.29,1.46.56,2.85,1.7,4.36,2.08,1.1,0,2.39,0,3.49,0,28.8,0,57.6,0,86.4,0,2.29,0,4.69,0,6.98,0,7.79-2.14,14.13-8.73,22.69-6.47,7.89,1.6,15.2,7.85,23.56,5.89,3.3-.96,6.35-2.78,9.6-3.87"/><path class="b" d="M8.29,54.78c8.87-1.56,12.36-1.44,20.07,3.64,32.58,0,65.17,0,97.74,0,.77,0,1.84,0,2.62,0,1.54-.26,2.99-1.37,4.36-2.07,4.85-2.83,9.84-6.32,15.71-6.12,8.31-.07,16.07,4.9,24.44,3.71,3.59-.65,6.94-2.41,10.47-3.28"/><path class="b" d="M8.29,50.12c7.64-.24,11.56-1.09,18.33,3.56,28.51,0,57.02,0,85.53,0,4.64,0,9.33,0,13.96,0,.49,0,1.35-.34,1.75-.64,1.1-.64,2.41-1.43,3.49-2.09,3.09-1.88,6.22-3.93,9.6-5.28,4.99-1.81,10.46-2.1,15.71-1.71,4.65.34,9.3,1.27,13.96,1.51,4.41.33,8.76-.91,13.09-1.49"/><path class="b" d="M8.29,46.34c3.73.66,7.62.32,11.35,1,1.79.27,3.48,1.29,5.24,1.6,2.29,0,4.69,0,6.98,0,24.72,0,49.46,0,74.18,0,5.51,0,11.07,0,16.58,0,1.29.21,2.5-.64,3.49-1.34,1.08-.71,2.39-1.55,3.49-2.23,3.27-2.01,6.74-3.95,10.47-4.95,1.96-.54,4.11-.63,6.11-.95,4.9-.75,9.86-1.62,14.84-1.66,4.97-.11,9.93.7,14.84,1.37,2.58.26,5.27.19,7.85.13"/><path class="b" d="M8.29,43.59c1.68.5,3.49.7,5.24.61,2.3,0,4.69,0,6.98,0,6.68,0,13.39,0,20.07,0,19.49,0,38.99,0,58.47,0,4.93,0,9.91,0,14.84,0,2.29,0,4.69,0,6.98,0,1.32.21,2.46-1.01,3.49-1.64,4.41-3.04,9.39-5.71,14.84-6.06,2.29-.21,4.69.25,6.98,0,5.6-.61,10.95-2.82,16.58-3.24,3.2-.28,6.52.03,9.6.94,3.64,1.31,7.43,2.47,11.35,2.38"/><path class="b" d="M8.29,39.46c29.67,0,59.35,0,89.02,0,5.51,0,11.07,0,16.58,0,8.81-.02,4.84.68,12.22-3.35,3.98-2.11,8.66-2.85,13.09-1.97,2.3.36,4.63,1.28,6.98,1.13,5.76-.37,10.92-3.52,16.58-4.44,10.09-1.82,12.16,4.45,20.95,4.13"/><path class="b" d="M8.29,34.72c33.45,0,66.91,0,100.36,0,3.76-.03,7.59.06,11.35-.04,1.92-1,4.02-1.96,6.11-2.56,2.8-.81,5.87-.9,8.73-.31,2.97.59,5.85,1.84,8.73,2.75,1.94.27,4.21.3,6.11-.18,7.65-2.19,15.49-7.89,23.56-3.95,3.15,1.83,6.77,3.25,10.47,2.62"/><path class="b" d="M8.29,29.98c24.72,0,49.46,0,74.18,0,11.63,0,23.28,0,34.91,0,1.47.1,2.96-.77,4.36-1.09,1.95-.55,4.08-.91,6.11-.88,3,0,5.94.96,8.73,1.97,1.4,0,2.97,0,4.36,0,4.64,0,9.33,0,13.96,0,1.99,0,4.11,0,6.11,0,1.4-.2,2.95-.65,4.36-.77,1.39-.15,2.98-.14,4.36.06,1.11.12,2.37.67,3.49.71,3.47,0,7.01,0,10.47,0"/><path class="b" d="M8.29,25.25c23.85,0,47.71,0,71.56,0,11.63,0,23.28,0,34.91,0,1.44.07,2.96-.59,4.36-.85,1.96-.46,4.09-.79,6.11-.8,1.72,0,3.57.25,5.24.69,1.11.25,2.34.91,3.49.96,3.76,0,7.58,0,11.35,0,12.79,0,25.61,0,38.4,0"/><path class="b" d="M8.29,20.51c23.85,0,47.71,0,71.56,0,10.76,0,21.53,0,32.29,0,3.82.25,7.54-1.16,11.35-1.21,2.63-.1,5.37.33,7.85,1.2,2.59.02,5.27,0,7.85,0,14.83,0,29.68,0,44.51,0"/><path class="b" d="M8.29,15.77c58.47,0,116.95,0,175.42,0"/></svg>