<?xml version="1.0" encoding="UTF-8"?><svg id="a" xmlns="http://www.w3.org/2000/svg" width="1920" height="2400" viewBox="0 0 192 240"><defs><style>.b{fill:none;stroke:#fff;stroke-miterlimit:10;stroke-width:.4px;}.c{stroke-width:0px;}</style></defs><rect class="c" x="0" width="192" height="240"/><path class="b" d="M8.38,227.69c9.43-3.98,12.74-4.96,22.67-1.41,2,.71,4.1,1.52,6.1,2.23,1.36.57,2.89.89,4.36.77,12.2,0,24.42,0,36.62,0,3.76,0,7.58,0,11.33,0,.86-.04,1.85-.65,2.62-1,1.37-.65,2.93-1.34,4.36-1.86,5.93-2.31,11.94-1.72,17.44,1.43.77.4,1.84.94,2.62,1.32,1.08.18,2.4.09,3.49.11,2.29,0,4.68,0,6.97,0,3.86.07,3.87.25,6.97-2.32,3.35-2.78,6.26-6.18,9.59-8.98,8.14-6.92,14.91-8.06,25.28-6.66,6.98.66,7.85-1,14.82,3.03"/><path class="b" d="M8.38,223.29c2.9-.76,5.79-1.87,8.72-2.54,6.64-1.41,13.02,1.76,19.18,3.8,4.63,0,9.32,0,13.95,0,11.91,0,23.84,0,35.74,0,1.21.12,2.41-.78,3.49-1.21,1.69-.81,3.51-1.7,5.23-2.46,8.23-3.7,14.11-3.29,21.8,1.37,1.65.84,3.41,1.9,5.23,2.3,2.58,0,5.26,0,7.85,0,3.22.12,7.14-3.58,9.59-5.5,8.62-7.85,15.89-12.03,27.9-11.58,2.88.09,5.84-.05,8.72-.17,2.79.16,5.46,1.44,7.85,2.81"/><path class="b" d="M8.38,219.81c2.64-.05,5.26-1.1,7.85-1.6,2.25-.54,4.68-.64,6.97-.39,2.94.31,5.89,1.1,8.72,1.93,1.7.13,3.53.04,5.23.06,7.84,0,15.7,0,23.54,0,2.61.06,5.23-.79,7.85-.78,4.93-.37,9.92,1.05,14.82.24,8.27-1.67,15.68-7.48,24.41-6.74,3.74.27,7.14,2.14,10.46,3.72,6.08,3.09,12.04,4.12,18.31.8,3.35-1.64,6.32-4.09,9.59-5.87,5.61-3.1,11.99-4.52,18.31-5.27,3.76-.42,7.57-.89,11.33-1.25,2.67-.08,5.39.65,7.85,1.67"/><path class="b" d="M8.38,215.08c2.29-.03,4.69.07,6.97-.05,1.68-.39,3.51-.66,5.23-.67,3.5-.09,6.96.97,10.46.72,9.58,0,19.19,0,28.77,0,3.43-.74,6.91-1.73,10.46-1.59,3.79-.02,7.56.9,11.33,1.14,8.17.22,15.56-4.12,23.54-5.14,4.79-.77,9.46.91,13.95,2.37,4.2,1.35,8.64,2.42,13.08,2.06,4.29-.26,8.34-1.97,12.21-3.74,2.49-.99,5.21-1.59,7.85-2.06,4.94-.83,9.94-1.6,14.82-2.73,5.41-1.2,10.98-2.71,16.56-1.88"/><path class="b" d="M8.38,210.35c2.88-.08,5.89.28,8.72-.39,3.17-.52,6.45-.14,9.59.39,7.84,0,15.7,0,23.54,0,3.76,0,7.58,0,11.33,0,1.4-.11,2.95-.43,4.36-.47,2.31-.17,4.69.27,6.97.47,5.22,0,10.48,0,15.69,0,4.34-.02,8.74.04,13.08-.03,2.27-.49,4.66-.95,6.97-1.08,2.89-.13,5.84.34,8.72.5,5.2.39,10.47.75,15.69.55,2.6-.11,5.29-.38,7.85-.9,2.54-.64,5.21-1.15,7.85-1.09,4.65.04,9.39.16,13.95-.93,3.23-.71,6.42-1.88,9.59-2.79,3.78-.84,7.53-2.12,11.33-2.83"/><path class="b" d="M8.38,205.61c1.11-.04,2.42.14,3.49-.22,2.24-.71,4.61-1.42,6.97-1.49,2.32-.08,4.73.32,6.97.91.8.21,1.84.52,2.62.77.79.04,1.83.03,2.62.03,13.65,0,27.32,0,40.98,0,20.63,0,41.27,0,61.9,0,9,0,18.03,0,27.03,0,3.46,0,7,0,10.46,0,1.66-.62,3.57-.93,5.23-1.56,2.33-.9,4.65-2.13,6.97-3.06"/><path class="b" d="M8.38,200.61c9.3-3.78,11.79-3.81,20.92.27,5.51,0,11.06,0,16.56,0,45.91-.1,91.85.19,137.75-.1"/><path class="b" d="M8.38,193.78c5.07-2.26,9.42-4.48,14.82-1.66,1.47.7,3.02,1.67,4.36,2.59.47.31,1.29.93,1.74,1.25.78.24,1.82.18,2.62.18,6.96,0,13.96,0,20.92,0,43.59,0,87.18,0,130.77,0"/><path class="b" d="M8.38,188.06c10.09-5.16,12.6-3.4,20.92,3.35h154.31"/><path class="b" d="M8.38,185.06c9.29-4.27,10.89-3.65,19.18,1.62,2.59,0,5.26,0,7.85,0,49.4,0,98.81,0,148.21,0"/><path class="b" d="M8.38,181.95h175.23"/><path class="b" d="M8.38,177.21h175.23"/><path class="b" d="M8.38,172.48c29.06,0,58.12,0,87.18,0,9.87,0,19.77,0,29.64,0,3.76,0,7.58,0,11.33,0,1.39-.02,2.97.05,4.36-.06.74-.25,1.83-.44,2.62-.49,2.28-.2,4.69-.26,6.97,0,1.7.23,3.5.68,5.23.55,9.29,0,18.61,0,27.9,0"/><path class="b" d="M8.38,167.74c37.2-.05,74.38,0,111.59,0,4.63,0,9.32,0,13.95,0,1.25-.29,2.37-1.4,3.49-2,2.31-1.48,5.08-2.37,7.85-2.14,2.68.1,5.4.81,7.85,1.88.78.35,1.86.87,2.62,1.29.73.4,1.72,1.15,2.62.96,8.42,0,16.86,0,25.28,0"/><path class="b" d="M8.38,163.01c8.42,0,16.86,0,25.28,0,2.05-.42,4.03-1.55,6.1-1.97,2.82-.73,5.81-1.02,8.72-.91,8.18.43,16.19,2.96,24.41,2.88,4.05,0,8.16,0,12.21,0,1.99-.09,4.1-.35,6.1-.28,5.2.46,10.47.24,15.69.28,7.84,0,15.7,0,23.54,0,8.66-5.85,12.47-8.74,22.67-3.37,1.76.95,3.58,2.11,5.23,3.23.77.18,1.83.14,2.62.14,7.55,0,15.12,0,22.67,0"/><path class="b" d="M8.38,158.28c6.09-.02,12.22.03,18.31-.02,2.46-1.48,5.11-2.86,7.85-3.74,4.2-1.41,8.73-1.32,13.08-.78,5.83.63,11.58,2.09,17.44,2.48,3.75.31,7.58.28,11.33.52,3.17.27,6.39.84,9.59.79,3.19,0,6.43.35,9.59.75,6.09,0,12.22,0,18.31,0,4.34,0,8.74,0,13.08,0,.91.02,1.86-.74,2.62-1.16,1.08-.64,2.39-1.4,3.49-2.01,8.4-4.89,13.45-3.79,21.8.44,1.71.85,3.54,1.82,5.23,2.7.76.05,1.85.03,2.62.03,6.96,0,13.96,0,20.92,0"/><path class="b" d="M8.38,153.54c2.59,0,5.26,0,7.85,0,1.1,0,2.39,0,3.49,0,.55.09,1.29-.12,1.74-.39,2.79-1.8,5.64-3.72,8.72-5.01,3.54-1.54,7.54-1.95,11.33-1.32,6.66,1.16,13.31,2.74,20.05,3.4,5.78.61,11.72-.21,17.44,1.04,3.1.92,6.38,1.34,9.59,1.67,2.29.22,4.66.71,6.97.61,7.55,0,15.12,0,22.67,0,2.29,0,4.68,0,6.97,0,1.5-.26,2.95-1.25,4.36-1.81,2.23-1.02,4.61-2,6.97-2.67,7.31-2.41,14.66.86,21.8,2.35,4.86,1.11,9.9,1.36,14.82,2.06,3.46.16,7,.02,10.46.06"/><path class="b" d="M8.38,148.81c2.88,0,5.84,0,8.72,0,4.3-1.9,7.86-5.32,12.21-7.18,3.78-1.8,8.13-2.18,12.21-1.31,6.89,1.5,13.88,2.88,20.92,3.44,6.1.47,12.55-.4,18.31,2.11,2.52.91,5.23,1.53,7.85,2.09,1.98.41,4.06,1.01,6.1.86,7.55,0,15.12,0,22.67,0,2.88,0,5.84,0,8.72,0,5.29-2.13,10.75-4.43,16.56-4.36,6.09.2,12.24,1.14,18.31.1,3.47-.47,6.96-1.34,10.46-1.55,1.7-.12,3.54.17,5.23.3,2.29.17,4.7.28,6.97.6"/><path class="b" d="M8.38,144.08c3.17,0,6.42,0,9.59,0,3.16-1.25,5.81-3.74,8.72-5.47,3.64-2.37,7.8-4.26,12.21-4.38,2.6-.11,5.27.31,7.85.64,3.46.35,6.99.72,10.46.97,5.5.45,11.1-.01,16.56.78,2.77.38,5.42,1.52,7.85,2.87,2.56,1.29,5.25,2.54,7.85,3.74.44.2,1.31.6,1.74.8.78.07,1.84.06,2.62.05,1.99,0,4.11,0,6.1,0,5.8,0,11.64,0,17.44,0,2.58,0,5.26,0,7.85,0,1.4-.1,3.05.28,4.36-.32,3.3-1.53,6.84-2.8,10.46-3.28,2.57-.34,5.27-.22,7.85-.42,3.84-.24,7.69-1.06,11.33-2.3,4.84-1.52,9.62-4.14,14.82-3.91,3.2.33,6.49.73,9.59,1.65"/><path class="b" d="M8.38,139.34c4.05-.01,8.16.02,12.21-.01,3.83-2.25,7.37-5.09,11.33-7.11,3.73-1.98,7.98-3,12.21-2.95,4.93.16,9.91.19,14.82-.41,5.77-.56,11.92-1.47,17.44.84,4.94,2.26,8.83,6.35,13.08,9.64,9,0,18.03,0,27.03,0,3.17,0,6.42,0,9.59,0,1.09,0,2.39,0,3.49,0,.49.09,1.32-.12,1.74-.38,4.36-2.05,9.2-2.56,13.95-2.83,3.29-.38,6.55-1.37,9.59-2.67,6.05-2.38,11.61-6.91,18.31-7.1,3.55.29,7.11,1.24,10.46,2.43"/><path class="b" d="M8.38,134.61c4.05,0,8.16,0,12.21,0,1.89-.36,3.57-1.79,5.23-2.71,2.55-1.6,5.16-3.31,7.85-4.68,3.24-1.68,6.82-2.89,10.46-3.3,2.58-.33,5.28-.17,7.85-.62,8.92-1.58,18-5.74,26.15.56,2.6,1.98,4.84,4.59,6.97,7.05,1.08,1.16,2.13,2.84,3.49,3.7,9,0,18.03,0,27.03,0,3.17,0,6.42,0,9.59,0,1.4-.02,2.97.07,4.36-.07.76-.36,1.82-.8,2.62-1.08,3.89-1.45,8.12-1.45,12.21-1.75,3.33-.4,6.58-1.61,9.59-3.05,6.19-2.74,12.1-7.64,19.18-7.28,3.58.55,7.08,1.86,10.46,3.14"/><path class="b" d="M8.38,127.09c9.91,5.4,15.83-.16,24.41-4.75,3.29-1.8,6.8-3.39,10.46-4.24,2.25-.58,4.68-.64,6.97-.97,5.3-.96,10.26-3.63,15.69-3.89,6.43-.49,11.98,3.77,15.69,8.65,1.14,1.45,2.43,3.23,3.49,4.73.72.99,1.6,2.51,2.62,3.24,8.42,0,16.86,0,25.28,0,2.88,0,5.84,0,8.72,0,1.4-.08,3.01.21,4.36-.24.75-.46,1.81-1.03,2.62-1.4,9.49-4.08,13.09.79,25.28-4.69,6.08-2.41,12.41-6.11,19.18-4.88,3.58.88,7.02,2.47,10.46,3.77"/><path class="b" d="M8.38,119.19c3.26,1.43,6.85,2.74,10.46,2.36,7.59-1.13,13.81-6.28,20.92-8.82,1.94-.74,4.06-1.36,6.1-1.73,2.31-.35,4.75-.52,6.97-1.28,4.25-1.28,8.55-3.11,13.08-2.87,10.28.68,15.54,10.87,20.92,18.29,7.84,0,15.7,0,23.54,0,2.59,0,5.26,0,7.85,0,2.91.05,2.96.21,5.23-1.67,10.06-7.37,15.34-1.22,26.15-3.98,7.68-1.63,15.69-4.71,23.54-2.33,3.58,1.14,6.98,2.96,10.46,4.35"/><path class="b" d="M8.38,112.84c3.1.91,6.34,1.84,9.59,1.82,7.59-.49,13.95-5.42,20.92-7.96,2.23-.87,4.62-1.61,6.97-2.04,1.99-.34,4.14-.47,6.1-.99,3.98-.96,8.05-2.31,12.21-1.99,10.32.93,16.39,10.72,21.8,18.45,1.05.44,2.38.22,3.49.27,1.4,0,2.96,0,4.36,0,4.63,0,9.32,0,13.95,0,2.29,0,4.68,0,6.97,0,1.11-.06,2.48.22,3.49-.36,1.61-1.47,3.41-3.01,5.23-4.23,3.27-2.28,7.36-3.43,11.33-2.86,2.6.29,5.23,1.07,7.85,1.23,3.77.13,7.59-.33,11.33-.68,12.98-1.3,18.33.25,29.64,6.31"/><path class="b" d="M8.38,107.1c3.15.38,6.41.78,9.59.6,7.58-.83,14.4-4.79,21.8-6.42,3.13-.79,6.39-1.24,9.59-1.62,2.3-.34,4.67-.89,6.97-1.21,13.3-2.38,21.34,8.02,28.77,17.23,9,0,18.03,0,27.03,0,2.33.18,2.73-.35,4.36-1.81,1.92-1.66,3.97-3.41,6.1-4.79,4.53-3.12,9.59-3.61,14.82-2.15,3.95,1.17,8.11,1.36,12.21,1.53,4.65.23,9.37.54,13.95,1.41,3.85.72,7.69,1.84,11.33,3.29,1.76.68,3.48,1.82,5.23,2.52,1.09,0,2.4,0,3.49,0"/><path class="b" d="M8.38,102.47c3.48-.07,7.04-.25,10.46-.89,4.37-.87,8.68-2.22,13.08-2.95,4.59-.83,9.31-.93,13.95-1.31,2.9-.25,5.83-.93,8.72-1.3,12.61-2.12,20.82,6.32,28.77,14.7,1.06.36,2.39.18,3.49.22,2,0,4.11,0,6.1,0,5.8,0,11.64,0,17.44,0,8.81-5.3,14.55-13.76,26.15-10.5,3.98,1.19,8.1,1.94,12.21,2.56,4.68.8,9.39,1.8,13.95,3.12,4.73,1.31,9.35,3.14,13.95,4.82,2.29,0,4.68,0,6.97,0"/><path class="b" d="M8.38,100.01c6.6-.34,12.73-3.13,19.18-4.23,5.77-1.1,11.64-.1,17.44-.09,3.53-.07,6.97-1.26,10.46-1.63,7.86-1.23,14.94,1.98,20.92,6.87,1.43,1.12,2.98,2.45,4.36,3.64.75.57,1.59,1.66,2.62,1.65,4.63,0,9.32,0,13.95,0,3.17,0,6.42,0,9.59,0,.92-.05,1.85-.87,2.62-1.32.75-.47,1.83-1.05,2.62-1.46,5.19-2.99,9.74-7.45,15.69-8.9,5-1.33,10.04.52,14.82,1.88,5.23,1.29,10.53,2.54,15.69,4.07,5.59,1.64,11.12,3.62,16.56,5.7,2.88.06,5.84,0,8.72.03"/><path class="b" d="M8.38,99.67c4.61-.14,8.86-2.12,13.08-3.79,3.6-1.39,7.46-2.35,11.33-2.39,5.22-.19,10.52,1.54,15.69.39,11.62-3.23,18.37-3.72,28.77,3.27,1.42.94,2.96,2.06,4.36,3.04.75.48,1.66,1.36,2.62,1.28,4.63,0,9.32,0,13.95,0,1.7,0,3.53,0,5.23,0,.79,0,1.87.07,2.62-.26,3.07-1.91,6.56-3.21,9.59-5.18,4.11-2.61,8.23-5.64,13.08-6.71,4.71-1.12,9.51.33,13.95,1.86,3.99,1.3,8.13,2.33,12.21,3.36,5.26,1.32,10.56,2.73,15.69,4.48,1.4.48,2.98,1.03,4.36,1.56.75.3,1.79.84,2.62.88,1.99,0,4.11,0,6.1,0"/><path class="b" d="M8.38,96.74c3.47,0,7,0,10.46,0,.87.12,1.88-.3,2.62-.72,1.09-.54,2.37-1.15,3.49-1.62,3.29-1.41,6.88-2.27,10.46-2.37,3.47-.15,7,.36,10.46.07,2.06-.17,4.14-.88,6.1-1.48,8.7-2.99,15.94-3.98,24.41.4,3.26,1.6,6.32,3.74,9.59,5.31,1.26.74,2.96.29,4.36.4,2.29,0,4.68,0,6.97,0,1.99,0,4.11,0,6.1,0,2.06-.76,4.11-1.86,6.1-2.75,7.33-2.63,13.04-8.96,20.92-10.15,6.73-1.1,12.79,2.86,19.18,4.18,6.93,1.64,14.09,2.45,20.92,4.51,2.34.69,4.74,1.56,6.97,2.54,1.08.47,2.4,1.04,3.49,1.5.74.21,1.85.17,2.62.16"/><path class="b" d="M8.38,92.01c4.34,0,8.74,0,13.08,0,1.4,0,2.96,0,4.36,0,1.13.02,2.48.07,3.49-.53,3.03-1.3,6.32-2.09,9.59-2.43,3.78-.39,7.71-.45,11.33-1.71,9.04-3.11,16.66-6.12,26.15-2.38,3.9,1.44,7.49,3.72,11.33,5.29,7.41,3.22,13.9,1.76,20.92-1.59,7.96-2.75,14.06-9.86,22.67-10.82,6.47-.78,12.13,3.19,18.31,4.3,6.34,1.33,12.89,1.7,19.18,3.27,5.13,1.14,9.85,3.63,14.82,5.24"/><path class="b" d="M8.38,87.27c5.8,0,11.64,0,17.44,0,3.16-.11,6.46.24,9.59-.16,5.96-2.02,12.37-2.43,18.31-4.56,8.35-2.76,17.41-5.61,26.15-2.95,3.59,1.06,6.98,2.85,10.46,4.18,6.7,2.78,13.42,2.77,20.05-.2,7.43-3.1,13.46-9.7,21.8-10.48,6.03-.76,11.53,2.58,17.44,3.06,6.1.66,12.33.7,18.31,2.19,5.39,1.18,10.37,3.78,15.69,5.18"/><path class="b" d="M8.38,82.54c11.04,0,22.09,0,33.13,0,2.34-.01,4.67-1.02,6.97-1.39,4.07-.87,8.2-1.76,12.21-2.87,7.63-1.89,15.6-5.78,23.54-3.43,3.88,1.12,7.55,2.99,11.33,4.37,5.74,2.26,11.99,2.73,17.44-.59,7.57-4.36,15.18-10.33,24.41-9.58,2.91.1,5.81.99,8.72,1.15,6.68.22,13.49-.7,20.05,1.02,5.95,1.34,11.45,4.28,17.44,5.5"/><path class="b" d="M8.38,77.81c14.82,0,29.65,0,44.46,0,2.29-.03,4.69.07,6.97-.05,2.97-.53,5.93-1.46,8.72-2.59,3.46-1.37,6.85-3.16,10.46-4.13,6.66-1.78,13.09,1.74,19.18,4,8.16,3.04,11.13,2.04,18.31-2.33,6.41-3.79,13.36-7.22,20.92-7.55,2.88-.24,5.85.15,8.72-.17,3.47-.38,6.96-1.17,10.46-1.3,9.59-.68,17.83,5.34,27.03,6.89"/><path class="b" d="M8.38,73.07c17.14,0,34.3,0,51.44,0,3.17,0,6.42,0,9.59,0,1.1,0,2.39,0,3.49,0,1.15-.46,2.39-1.27,3.49-1.85,7.84-4.64,14.56-2.99,22.67-.32,10.55,3.39,11.95-.33,20.92-4.36,4.16-1.96,8.57-3.54,13.08-4.51,3.71-.85,7.58-1.16,11.33-1.74,4.89-1.04,9.73-3.03,14.82-2.71,4.93.2,9.49,2.41,13.95,4.31,3.36,1.37,6.9,2.53,10.46,3.21"/><path class="b" d="M8.38,68.34c16.27,0,32.55,0,48.82,0,7.84,0,15.7,0,23.54,0,2.81-.95,5.72-1.96,8.72-2.12,6.68-.72,13.48,2.49,20.05.47,3.52-1.51,6.85-3.61,10.46-4.93,7.24-3.01,15.05-4.18,22.67-5.78,4.97-1.16,9.63-3.83,14.82-4.04,5.26-.35,10.17,2.02,14.82,4.17,3.64,1.58,7.48,2.88,11.33,3.84"/><path class="b" d="M8.38,63.61c26.73,0,53.47,0,80.21,0,2.6.1,5.26-.25,7.85-.33,3.47-.12,7.04.03,10.46-.64,4.05-.8,7.49-3.39,11.33-4.78,7.23-3.07,15.05-4.3,22.67-6.03,5.05-1.08,9.69-3.76,14.82-4.53,5.43-.94,10.79,1.01,15.69,3.17,3.99,1.62,8.13,3.05,12.21,4.45"/><path class="b" d="M8.38,58.87c27.6,0,55.22,0,82.82,0,3.76,0,7.58,0,11.33,0,1.4,0,2.96,0,4.36,0,.8.02,1.88.01,2.62-.34,3.8-1.49,7.51-3.38,11.33-4.8,6.48-2.58,13.31-4.2,20.05-5.96,4.65-1.21,9.17-3.17,13.95-3.85,5.61-.91,11.25.49,16.56,2.22,4.12,1.15,8.27,2.43,12.21,4.12"/><path class="b" d="M8.38,54.14c29.64,0,59.28-.02,88.93,0,6.38-.04,12.8.08,19.18-.05,2.89-1.25,5.83-2.62,8.72-3.87,5.08-2.23,10.36-4.1,15.69-5.64,4.82-1.46,9.78-2.75,14.82-3.11,4.94-.39,9.94.1,14.82.84,4.47.53,8.94,1.46,13.08,3.29"/><path class="b" d="M8.38,49.41c13.94-.07,27.91.13,41.85-.07,5.96-4.65,12.07-6.99,19.18-3.22,1.13.56,2.42,1.33,3.49,2,1.04.72,2.15,1.5,3.49,1.29,6.09,0,12.22,0,18.31,0,6.67,0,13.38,0,20.05,0,2.29,0,4.68,0,6.97,0,1.09-.01,2.4.04,3.49-.06.43-.24,1.31-.7,1.74-.94,12.81-6.94,19.66-8.21,34-8.87,7.55-.38,15.4-1.49,22.67,1.21"/><path class="b" d="M8.38,44.67h40.1c7.23-6.92,13.3-12.95,22.67-5.04,1.78,1.45,3.56,3.18,5.23,4.75,1.32.54,2.96.2,4.36.29,13.94,0,27.9,0,41.85,0,2.88,0,5.84,0,8.72,0,.49,0,1.35-.32,1.74-.61,1.07-.58,2.38-1.23,3.49-1.74,2.76-1.25,5.73-2.3,8.72-2.83,5.48-.87,11.11-.94,16.56-2.05,7.82-1.58,13.63-3.41,21.8-1.72"/><path class="b" d="M8.38,39.94c8.71,0,17.45,0,26.15,0,4.63-.09,9.34.2,13.95-.12,4.59-4.45,10.25-11.7,17.44-8.72,4.26,1.84,7.23,5.67,10.46,8.84,17.72,0,35.46,0,53.18,0,2.88-.05,5.85.12,8.72-.08,3.85-1.7,8.06-2.44,12.21-2.97,3.51-.48,7.06-1.16,10.46-2.15,3.48-.99,6.94-2.33,10.46-3.19,3.97-.9,8.15-.87,12.21-.77"/><path class="b" d="M8.38,35.2c12.78,0,25.58,0,38.36,0,1.64-.8,2.96-2.47,4.36-3.61,2.57-2.29,5.35-4.72,8.72-5.7,5.04-1.51,9.67,2.02,13.08,5.36,1.45,1.2,2.64,3.16,4.36,3.95,3.76,0,7.58,0,11.33,0,15.11,0,30.23,0,45.33,0,1.99-.02,4.11.05,6.1-.04,3.63-1.39,7.54-2.01,11.33-2.78,6.55-1.16,12.77-3.69,19.18-5.37,4.27-.93,8.74-.76,13.08-1.12"/><path class="b" d="M8.38,30.47c7.84,0,15.7,0,23.54,0,2.59,0,5.26,0,7.85,0,1.75-.08,3.85.42,5.23-.94,5.01-3.29,9.64-7.94,15.69-9.15,5.36-.94,10.12,2.52,13.95,5.85,1.1.95,2.39,2.12,3.49,3.09.65.66,1.64,1.34,2.62,1.16,5.8,0,11.64,0,17.44,0,12.78,0,25.58,0,38.36,0,1.18,0,2.38-.81,3.49-1.15,1.37-.51,2.94-.96,4.36-1.31,6.98-1.59,13.99-3.18,20.92-4.94,2.55-.58,5.23-1.1,7.85-1.17,3.47.09,7.01-.04,10.46-.43"/><path class="b" d="M8.38,25.74c9.87,0,19.77,0,29.64,0,3.98-2.22,8.08-4.35,12.21-6.28,4.33-2.18,8.96-4.53,13.95-4.27,5.24.23,9.84,3.22,13.95,6.21,1.1.8,2.41,1.76,3.49,2.6,1,.73,2.12,1.97,3.49,1.74,7.25,0,14.54,0,21.8,0,6.09,0,12.22,0,18.31,0,2.88-.06,5.85.13,8.72-.1,1.66-.8,3.49-1.57,5.23-2.17,3.96-1.33,8.14-2.11,12.21-3.06,5.17-1.12,10.41-2.24,15.69-2.61,3.18-.3,6.43.09,9.59.4,2.29.11,4.7-.07,6.97-.34"/><path class="b" d="M8.38,21c7.84,0,15.7,0,23.54,0,.94.18,1.84-.63,2.62-1.03,1.37-.76,2.92-1.54,4.36-2.16,3.61-1.61,7.53-2.51,11.33-3.54,5.93-1.79,12.01-4.14,18.31-3.44,4.75.47,9.2,2.62,13.08,5.32,1.42.97,2.97,2.11,4.36,3.13,1.02.67,2.15,1.93,3.49,1.71,7.25,0,14.54,0,21.8,0,6.09,0,12.22,0,18.31,0,2.91-.79,5.75-2.17,8.72-2.84,5.49-1.27,11.05-2.43,16.56-3.55,4.86-.9,9.9-1.29,14.82-.69,2.32.22,4.67.93,6.97,1.23,2.28.25,4.7.1,6.97-.19"/></svg>