<?xml version="1.0" encoding="UTF-8"?><svg id="a" xmlns="http://www.w3.org/2000/svg" width="1920" height="2400" viewBox="0 0 192 240"><defs><style>.b{fill:none;stroke:#fff;stroke-miterlimit:10;stroke-width:.4px;}.c{stroke-width:0px;}</style></defs><rect class="c" width="192" height="240"/><path class="b" d="M7.78,217.2c3.55,1.28,6.68,3.53,9.66,5.8,5.38,3.69,12.04,1.38,17.56-.75,3.65-1.35,7.47-2.75,11.41-2.81,3.2.16,6.48.41,9.66-.15,3.28-.5,6.52-1.58,9.66-2.63,3.09-1,6.36-2.1,9.66-1.8,3.59.33,6.38,3.03,9.66,4.28,6.04,2.6,12.06,5.41,17.56,9.07,2.01,1.26,4.07,2.7,6.14,3.84,3.49,0,7.05,0,10.53,0,7.3,0,14.64,0,21.95,0,10.53,0,21.08,0,31.6,0,.4,0,1.34,0,1.76,0,1.13-.4,2.41-1.06,3.51-1.52,1.94-.84,4.07-1.61,6.14-2.06"/><path class="b" d="M7.78,213.85c3.52,1.09,6.67,3.15,9.66,5.25,6.73,4.14,14.43.07,21.07-2.23,2.53-.88,5.22-1.65,7.9-1.86,3.22-.05,6.53-.17,9.66-1.02,6.48-1.42,12.51-5.63,19.31-5.2,3.59.37,6.38,3.07,9.66,4.35,3.49,1.6,7.11,3.09,10.53,4.83,3.88,1.93,7.64,4.22,11.41,6.35,1.95,1.08,4.05,2.2,6.14,2.96,2.31,0,4.72,0,7.02,0,5.25,0,10.55,0,15.8,0,16.09,0,32.19,0,48.28,0"/><path class="b" d="M7.78,211.22c3.38.86,6.6,2.39,9.66,4.05,2.98,1.4,6.4,1.79,9.66,1.46,5.41-.55,10.58-2.5,15.8-3.89,2.86-.83,5.91-1.23,8.78-2.04,3.26-.92,6.49-2.2,9.66-3.39,4.97-1.84,10.55-3.83,15.8-2.01,2.45.91,4.65,2.6,7.02,3.68,6.64,3.18,13.47,6.04,20.19,9.06,3.96,1.78,8.21,2.93,12.29,4.37,22.53,0,45.06,0,67.59,0"/><path class="b" d="M7.78,209.03c5.57,1.22,10.95,3.54,16.68,4,7.1.66,14.37-.37,21.07-2.81,4.52-1.65,8.74-4.12,13.17-5.99,6.84-3.09,14.45-3.91,21.07.2,8.54,4.9,17.54,9.47,27.21,11.61,3.73.79,7.63.74,11.41,1.2,4.92.81,9.96.4,14.92.49,16.97,0,33.95,0,50.91,0"/><path class="b" d="M7.78,207.31c4.56,1.37,9.38,1.37,14.04,2.11,5.5.84,11.09,2.08,16.68,1.43,7.59-.6,12.8-6.53,19.31-9.73,6.38-3.41,12.98-3.06,19.31.24,7.38,3.68,14.05,8.9,21.95,11.52,3.18.23,6.47.03,9.66.09,2.6,0,5.3,0,7.9,0,4.25-1.16,8.77-2.13,13.17-1.21,1.44.25,2.98.84,4.39,1.21,1.1,0,2.41,0,3.51,0,4.37,0,8.8,0,13.17,0,11.11,0,22.25,0,33.36,0"/><path class="b" d="M7.78,206.42c1.95.65,4.09,1.07,6.14,1.09,2.02-.01,4.12-.43,6.14-.25,2.34.07,4.7.76,7.02.95,4.96,0,9.96,0,14.92,0,3.22.45,5.6-2.28,7.9-4.11,2.73-2.3,5.59-4.67,8.78-6.31,6.3-3.43,12.49-1.8,18.43,1.45,3.02,1.49,6.02,3.21,8.78,5.14,2.01,1.23,3.93,2.99,6.14,3.83,6.13,0,12.3,0,18.43,0,2.01,0,4.14,0,6.14,0,1.11-.05,2.48.19,3.51-.31,3.71-2.02,8.12-3.29,12.29-2.06,1.81.49,3.65,1.37,5.27,2.32,4.95.12,9.97,0,14.92.05,10.53,0,21.08,0,31.6,0"/><path class="b" d="M7.78,203.45c11.99,0,24,0,35.99,0,1.7-.09,3.61.23,5.27-.22,1.69-1.5,3.51-3.14,5.27-4.55,5.36-4.46,11.54-7.08,18.43-4.55,3.31,1.2,6.61,2.72,9.66,4.47,2.41,1.44,4.66,3.34,7.02,4.84,10.23,0,20.49,0,30.72,0,1.25.18,2.45-.67,3.51-1.18,1.89-.89,4.05-1.51,6.14-1.49,1.77.01,3.64.47,5.27,1.16,1.14.41,2.3,1.36,3.51,1.51,2.01,0,4.14,0,6.14,0,13.16,0,26.34,0,39.5,0"/><path class="b" d="M7.78,198.68h45.65c4.43-3.26,9.27-6.6,14.92-7.07,4.21-.39,8.43.83,12.29,2.4,2.51,1.14,4.85,2.87,7.02,4.56,8.46.28,16.98.01,25.46.1,4.08,0,8.21,0,12.29,0,1.71-.26,3.5-.94,5.27-.84,1.77-.09,3.54.73,5.27.84,5.25,0,10.55,0,15.8,0,10.82,0,21.66,0,32.48,0"/><path class="b" d="M7.78,193.91c16.97,0,33.95,0,50.91,0,.79,0,1.85,0,2.63,0,1.38-.66,2.95-1.36,4.39-1.89,2.79-1.03,5.8-1.75,8.78-1.82,2.67-.05,5.48.33,7.9,1.5.81.39,1.88,1,2.63,1.48.41.34,1.21.75,1.76.73,9.06,0,18.15,0,27.21,0,23.4,0,46.82,0,70.22,0"/><path class="b" d="M7.78,189.15c14.33,0,28.68,0,43.01,0,6.72,0,13.47,0,20.19,0,2.37.22,4.67-.88,7.02-.94,1.76-.1,3.64.26,5.27.9,1.1.06,2.41.03,3.51.04,10.23,0,20.49,0,30.72,0,22.23,0,44.48,0,66.71,0"/><path class="b" d="M7.78,184.38c25.75,0,51.5,0,77.25,0,9.65,0,19.32,0,28.97,0,3.49,0,7.05,0,10.53,0,2.26-.74,4.63-1.54,7.02-1.67,2.62-.19,5.34.17,7.9.75,1.41.27,2.95.86,4.39.92,13.45,0,26.93,0,40.38,0"/><path class="b" d="M7.78,179.62c35.4,0,70.81,0,106.22,0,.78,0,1.85,0,2.63,0,1.7-.91,3.49-2.01,5.27-2.79,4.62-2.19,9.91-2.81,14.92-1.87,3.52.66,7.09,1.45,10.53,2.42,2.62.66,5.23,1.84,7.9,2.23,9.65,0,19.32,0,28.97,0"/><path class="b" d="M7.78,174.85c21.94,0,43.89,0,65.84,0,7.6,0,15.23,0,22.82,0,2.6,0,5.3,0,7.9,0,1.72-.08,3.7.32,5.27-.56,8.57-4.97,14.92-9.72,25.46-7.1,3.83,1,7.68,2.22,11.41,3.54,3.23,1.26,6.44,2.8,9.66,4.12,9.35,0,18.74,0,28.09,0"/><path class="b" d="M7.78,170.08c14.92,0,29.85,0,44.77,0,7.01,0,14.06,0,21.07,0,2.6-.47,5.22-1.39,7.9-1.4,9.1-.52,18.67.53,27.21-3.31,3.27-1.46,6.32-3.55,9.66-4.88,6.12-2.72,12.51-2.07,18.43.82,5.44,2.49,10.73,5.38,15.8,8.55,1.36.39,2.99.14,4.39.21,2.3,0,4.72,0,7.02,0,6.72,0,13.47,0,20.19,0"/><path class="b" d="M7.78,165.32c11.11,0,22.24,0,33.36,0,1.51.17,2.98-.64,4.39-1.03,1.96-.57,4.11-.83,6.14-.94,4.07-.2,8.21-.03,12.29-.22,4.09-.15,8.21-.67,12.29-1,5.24-.36,10.57.17,15.8-.46,4.82-.51,9.57-1.86,14.04-3.7,3.84-1.52,7.55-3.51,11.41-4.96,7.85-3.1,14.54-.67,21.07,4.05,2.32,1.66,4.78,3.36,7.02,5.13.78.63,1.86,1.51,2.63,2.16.56.7,1.75,1.09,2.63.96,11.11,0,22.25,0,33.36,0"/><path class="b" d="M7.78,160.55c10.82,0,21.66,0,32.48,0,.55.1,1.32-.15,1.76-.47,1.08-.58,2.37-1.19,3.51-1.62,2.53-.91,5.29-1.34,7.9-1.94,6.33-1.35,12.84-2.05,19.31-1.74,6.13.19,12.3,1.54,18.43.65,8.43-1.12,15.64-6.12,23.7-8.5,9.21-3.5,15.61-1.41,22.82,4.93,3,2.65,6.03,5.46,8.78,8.38,1.02.51,2.41.26,3.51.31,1.4,0,2.99,0,4.39,0,9.94,0,19.91,0,29.85,0"/><path class="b" d="M7.78,155.79c10.53,0,21.07,0,31.6,0,1.7-.11,3.63.28,5.27-.27,2.19-1.12,4.75-1.54,7.02-2.47,14.08-5.93,16.67-6.08,31.6-3.7,6.09.81,12.19-.89,17.56-3.71,2.59-1.28,5.21-2.74,7.9-3.8,1.65-.67,3.55-.99,5.27-1.42,3.69-.94,7.63-1.76,11.41-.87,6.15,1.44,10.78,6.25,14.92,10.73,1.1,1.22,2.43,2.7,3.51,3.94,0,0,.88,1.05.88,1.05l.88.51h38.62"/><path class="b" d="M7.78,151.02c14.62-.03,29.27.06,43.89-.03,6.03-3.05,11.58-7.55,18.43-8.58,3.78-.65,7.66-.05,11.41.46,5.77.83,11.62-.61,16.68-3.41,3.48-1.79,6.83-4.07,10.53-5.4,1.65-.6,3.55-.7,5.27-.94,2.29-.32,4.71-.61,7.02-.45,10.89.76,16.92,11.21,23.7,18.35h39.5"/><path class="b" d="M7.78,146.25c10.82,0,21.66,0,32.48,0,3.78,0,7.63,0,11.41,0,1.1,0,2.41,0,3.51,0,1.48-.78,2.98-1.91,4.39-2.82,18.31-12.83,21.19-.53,37.75-10.83,4.75-2.7,9.2-7.03,14.92-7.2,2.6-.15,5.31-.35,7.9.02,7.96,1.09,13.61,7.61,18.43,13.49,2.06,2.34,3.8,5.28,6.14,7.34h39.5"/><path class="b" d="M7.78,141.49c11.7,0,23.42,0,35.11,0,4.37,0,8.8,0,13.17,0,1.59-.36,2.99-1.67,4.39-2.45,2.24-1.42,4.61-2.87,7.02-3.99,11.73-5.59,16.58,1.28,28.97-7.14,4.87-2.96,9.9-8.65,15.8-8.82,2.6-.17,5.32-.34,7.9.13,8.21,1.57,13.55,8.84,18.43,15.02,1.09,1.42,2.4,3.13,3.51,4.54.7.85,1.58,2.26,2.63,2.72h39.5"/><path class="b" d="M7.78,136.72c11.7,0,23.42,0,35.11,0,4.66-.02,9.38.04,14.04-.03,3.8-1.96,7.47-4.33,11.41-6.02,11.37-5.17,16.97,1.12,28.09-6.27,4.48-2.8,8.23-6.94,13.17-8.96,1.94-.63,4.13-.65,6.14-.89,13.66-1.39,20.26,13.55,28.09,22.13,13.45.09,26.93,0,40.38.03"/><path class="b" d="M7.78,131.96c11.11,0,22.24,0,33.36,0,5.25,0,10.55,0,15.8,0,2.76-.84,5.29-2.55,7.9-3.76,4.1-2.07,8.53-3.89,13.17-4.12,2.61-.14,5.29.32,7.9.43,6.28.52,11.92-2.82,16.68-6.57,2.46-1.8,4.97-3.88,7.9-4.86,3.44-.67,7-1.64,10.53-1.25,8.5,1.29,13.39,9.49,18.43,15.62,1.05,1.35,2.36,2.94,3.51,4.21.72.37,1.84.3,2.63.29,12.87,0,25.76,0,38.62,0"/><path class="b" d="M7.78,127.19c11.4,0,22.83,0,34.23,0,5.55,0,11.13,0,16.68,0,2.45-.79,4.71-2.4,7.02-3.52,18.52-10.47,20.39,3.71,35.99-6.47,2.58-1.65,5.1-3.65,7.9-4.91,1.35-.59,2.99-.83,4.39-1.25,1.97-.56,4.09-1.15,6.14-1.27,10.66-.52,15.89,11.47,22.82,17.43,13.75-.01,27.51.02,41.26-.01"/><path class="b" d="M7.78,122.42c17.55,0,35.12,0,52.67,0,.89.09,1.96-.15,2.63-.76,1.1-.73,2.4-1.61,3.51-2.32,3.45-2.19,7.25-4.33,11.41-4.63,3.94-.28,7.61,1.68,11.41,2.38,7.1,1.62,12.64-2.56,18.43-5.91,1.59-.93,3.5-1.46,5.27-1.9,2.29-.7,4.64-1.62,7.02-1.98,8.35-1.43,14.19,6.09,19.31,11.48,1.05,1.12,2.35,2.43,3.51,3.44,1.37.38,2.98.14,4.39.2,8.77,0,17.57,0,26.33,0,1.62.18,3.08-1.13,4.39-1.91,2-1.34,4.07-2.85,6.14-4.08"/><path class="b" d="M7.78,117.66c14.33,0,28.68,0,43.01,0,3.78,0,7.63,0,11.41,0,.97.19,1.95-.56,2.63-1.16.78-.62,1.84-1.46,2.63-2.05,2.41-1.8,5.04-3.56,7.9-4.56,5.31-2.12,10.57,1.02,15.8,1.82,5.96,1.14,11.49-1.82,16.68-4.33,1.63-.79,3.52-1.25,5.27-1.66,1.71-.47,3.54-1.08,5.27-1.48,8.76-2.37,14.95,3.61,21.07,8.87,1.32,1.11,2.88,2.28,4.39,3.14,1.04.58,2.24,1.61,3.51,1.42,3.78,0,7.63,0,11.41,0,2.3-.11,4.77.25,7.02-.2,2.63-1.74,5.15-3.84,7.9-5.39,3.52-1.61,6.93-3.65,10.53-5.07"/><path class="b" d="M7.78,112.89c12.58,0,25.17,0,37.75,0,5.84,0,11.72,0,17.56,0,1.02-.02,1.88-1.09,2.63-1.66,1.66-1.37,3.48-2.82,5.27-4.02,11.65-8.26,16.93.24,28.97-1.97,3.58-.61,7.01-2.07,10.53-2.92,9.11-2,14.26-3.01,22.82,1.88,3.41,1.83,6.71,4.22,10.53,5.11,11.63,3.27,17.34-.4,27.21-5.79,1.9-1.01,4.08-1.7,6.14-2.3,2.26-.7,4.66-1.38,7.02-1.66"/><path class="b" d="M7.78,108.12c17.55,0,35.12,0,52.67,0,1.11-.05,2.48.19,3.51-.31,1.4-1.07,2.96-2.25,4.39-3.27,3.24-2.29,6.73-4.48,10.53-5.68,6.35-1.98,12.89.97,19.31,1.07,6.49.42,12.85-1.61,19.31-1.73,7.04-.31,13.55,2.74,20.19,4.56,3.15.91,6.5.5,9.66-.17,3.55-.71,7.1-1.76,10.53-2.9,4.35-1.43,8.71-3.06,13.17-4.11,4.29-.94,8.78-1.4,13.17-1.14"/><path class="b" d="M7.78,103.36c18.14,0,36.29,0,54.42,0,.94.11,1.86-.7,2.63-1.12,1.4-.84,2.97-1.76,4.39-2.56,2.55-1.43,5.23-2.82,7.9-4.01,1.94-.86,4.02-1.78,6.14-2.02,7.14-.75,14,2.35,21.07,2.86,4.37.55,8.8-.5,13.17.04,5.34.54,10.5,2.36,15.8,3.13,4.24.72,8.57-.03,12.29-2.18,4.55-2.32,9.08-4.92,14.05-6.26,4.26-1.21,8.78-1.29,13.17-1.02,3.79.18,7.65.38,11.41.94"/><path class="b" d="M7.78,98.59c15.21,0,30.44,0,45.65,0,2.9-.03,5.88.06,8.78-.04,2-.92,4.12-1.86,6.14-2.73,4.4-1.79,8.76-3.85,13.17-5.6,3.72-1.16,7.76-.51,11.41.59,4.67,1.4,9.21,3.5,14.05,4.32,3.17.6,6.48-.05,9.66.52,6.68.95,13.38,3.68,20.19,2.27,6.16-1.23,10.52-6.25,15.8-9.25,5.9-3.71,11.78-4.14,18.43-2.39,4.31,1.04,8.77,1.63,13.17,2.11"/><path class="b" d="M7.78,93.83c14.92,0,29.85,0,44.77,0,2.9,0,5.88,0,8.78,0,2.64-.88,5.26-2.14,7.9-3.02,4.11-1.39,8.2-3.07,12.29-4.5,7.59-1.7,14.35,3.51,21.07,6.2,1.08.45,2.39.94,3.51,1.27.78.07,1.85.05,2.63.05,2.6,0,5.3,0,7.9,0,7.01,0,14.06,0,21.07,0,.78,0,1.86.04,2.63-.11,1.51-.79,3.06-1.91,4.39-2.96,2.84-2.22,5.68-4.62,8.78-6.49,11.76-7.18,18.47.52,30.72.09"/><path class="b" d="M7.78,89.06c14.33,0,28.68,0,43.01,0,2.9-.03,5.88.06,8.78-.04,2.23-1.09,4.65-2.03,7.02-2.76,3.73-1.16,7.65-1.86,11.41-2.92,7.52-3.19,14.47,1.27,21.07,4.58.76.38,1.8.93,2.63,1.14,1.1,0,2.41,0,3.51,0,2.6,0,5.3,0,7.9,0,7.6,0,15.23,0,22.82,0,1.1-.03,2.44.11,3.51-.17,2.16-1.03,4.22-2.53,6.14-3.95,3.53-2.56,7.23-5.18,11.41-6.54,10.41-3.4,16.74,3.5,27.21,1.45"/><path class="b" d="M7.78,84.29c13.16,0,26.34,0,39.5,0,2.01,0,4.13,0,6.14,0,.8,0,1.86.05,2.63-.15.45-.3,1.3-.87,1.76-1.15,5.22-3.44,11.43-4.48,17.56-4.84,3.21-.22,6.43-1.47,9.66-.7,5.34,1.09,10.03,4.14,14.92,6.38,1.27.75,2.98.37,4.39.46,2.01,0,4.14,0,6.14,0,6.13,0,12.3,0,18.43,0,1.71,0,3.56,0,5.27,0,4.48-.77,8.45-3.3,12.29-5.6,9.12-5.39,16.25-5.63,26.33-3.01,3.72,1.08,7.7.91,11.41-.11"/><path class="b" d="M7.78,79.53c14.92-.02,29.85.04,44.77-.02,5.75-5.73,11.79-9.59,20.19-8.97,2.01.07,4.14.22,6.14.07,2.33-.38,4.79-.13,7.02.63,4.31,1.45,8.23,3.92,12.29,5.91,1.96.85,4,2.16,6.14,2.37,3.19,0,6.46,0,9.66,0,4.07-.12,8.25.27,12.29-.21,4.1-.68,8.29-1.28,12.29-2.45,2.74-.74,5.29-2.21,7.9-3.29,6.63-2.78,14.01-3.24,21.07-2.23,3.21.34,6.43,1.19,9.66,1.34,2.33.02,4.75-.42,7.02-.92"/><path class="b" d="M7.78,74.76h42.13c5.33-6,11.36-13.51,20.19-13.2,2.92.02,5.86.73,8.78.76,6.29-.51,11.53,3.82,16.68,6.8,5.27,3.27,11.18,6.2,17.56,5.63,5.3.06,10.53-1.36,15.8-1.73,3.49-.36,7.08-.53,10.53-1.22,2.69-.5,5.24-1.79,7.9-2.41,7.15-1.74,14.64-1.64,21.95-1.25,2.61.11,5.29.56,7.9.65,2.31.03,4.72-.23,7.02-.41"/><path class="b" d="M7.78,70h40.38c5.4-6.05,10.12-14.12,18.43-16.33,3.17-.77,6.49-.2,9.66.28,1.4.23,2.97.28,4.39.3,1.48.13,3.06.69,4.39,1.34,7.91,4.13,13.95,11.74,22.82,14.03,1.96.56,4.13.33,6.14.37,4.97-.09,9.94-1.05,14.92-.95,3.78-.04,7.65.26,11.41-.29,1.76-.24,3.56-.94,5.27-1.39,2.27-.6,4.7-1.03,7.02-1.36,5.81-.78,11.69-1.44,17.56-1.59,2.31-.07,4.72.2,7.02.33,2.3.1,4.72.11,7.02.33"/><path class="b" d="M7.78,65.23c13.16-.09,26.35.17,39.5-.1,5.62-6.14,10.31-14.14,18.43-17.22,3.08-1.1,6.46-.94,9.66-.57,1.71.21,3.55.26,5.27.24,1.49.11,3.07.67,4.39,1.35,8.21,4.5,13.87,12.96,22.82,16.24,11.11.18,22.25,0,33.36.07,1.1-.01,2.42.04,3.51-.05,1.09-.31,2.41-.65,3.51-.93,2.88-.71,5.87-1.35,8.78-1.95,4.62-.92,9.32-1.87,14.04-1.96,4.4.07,8.86.76,13.17,1.67"/><path class="b" d="M7.78,60.46h38.62c2.96-2.3,5.2-5.62,7.9-8.22,4.44-4.71,9.99-9.05,16.68-9.48,2.3-.22,4.72-.12,7.02-.25,3.56-.56,6.48-.17,9.66,1.59,8.34,4.3,15.24,14.09,24.58,15.76,3.75.61,7.62.64,11.41.6,4.37,0,8.8,0,13.17,0,2.6,0,5.3,0,7.9,0,4.7-.91,9.35-2.36,14.04-3.33,10.14-2.35,15.84-1.78,25.46,2.25"/><path class="b" d="M7.78,55.7h39.5c9.24-8.78,14.78-14.37,28.09-15.8,2.64-.31,5.24-1.35,7.9-1.51,6.71-.37,12.47,3.89,17.56,7.74,7.22,5.69,10.78,7.99,20.19,8.66,6.7.43,13.49.76,20.19.22,4.46-.46,8.84-1.73,13.17-2.86,6.8-1.83,14.32-3.49,21.07-.59,1.76.73,3.6,1.66,5.27,2.57,1.09.5,2.26,1.57,3.51,1.59"/><path class="b" d="M7.78,50.93c9.35,0,18.73,0,28.09,0,2.9,0,5.88,0,8.78,0,1.11,0,2.41,0,3.51,0,.93.11,1.99-.18,2.63-.87,8.08-6.4,14.88-8.52,24.58-11.12,8.32-2.77,13-6.64,21.95-1.94,3.79,2.03,7.08,4.95,10.53,7.47,6.42,5.18,14.97,5.4,22.82,4.63,4.37-.37,8.79-.81,13.17-1.1,2.97-.28,5.93-1.12,8.78-1.98,7.02-2.24,15.03-4.56,21.95-.8,3.09,1.58,5.83,3.91,8.78,5.7h.88"/><path class="b" d="M7.78,46.16c15.5,0,31.02,0,46.52,0,1.21.07,2.4-.86,3.51-1.24,1.39-.59,2.96-1.19,4.39-1.68,4.07-1.43,8.29-2.58,12.29-4.2,4.95-1.83,9.05-5.47,14.04-7.18,11.33-3.87,17.69,9.01,27.21,12.05,7.54,2.35,15.29-.66,22.82-1.57,2-.29,4.14-.26,6.14-.34,1.75-.15,3.6-.61,5.27-1.15,5.98-1.91,11.96-5.26,18.43-4.4,6.38.86,10.78,6.2,15.8,9.71"/><path class="b" d="M7.78,41.4c12.87,0,25.76,0,38.62,0,4.37,0,8.8,0,13.17,0,1.71,0,3.56,0,5.27,0,1.13-.25,2.42-.73,3.51-1.1,3.99-1.38,7.93-3.16,11.41-5.57,4.02-2.75,8.09-6.29,13.17-6.61,10.95-.26,16.18,13.67,27.21,13.29,8.07.35,15.6-4.09,23.7-3.42,6.08-.15,11.17-4.12,16.68-6.2,11.37-4.68,15.47,2.46,23.7,8.52"/><path class="b" d="M7.78,36.63c18.14,0,36.29,0,54.42,0,2.6,0,5.3,0,7.9,0,2.44-.96,4.81-2.39,7.02-3.8,6.27-4.23,12.87-11.44,21.07-7.55,5.59,2.11,12.61,11.34,17.56,11.34,3.49-.04,7.05.09,10.53-.06,2.03-.51,4.14-1.18,6.14-1.77,2.55-.75,5.24-1.44,7.9-1.63,1.41-.13,2.98.07,4.39.08,1.43-.04,3.02-.34,4.39-.75,7.69-2.2,15.42-8.79,23.7-5.36,4.17,2.04,7.55,5.47,11.41,8.01"/><path class="b" d="M7.78,31.87c19.6,0,39.21,0,58.81,0,1.71-.02,3.56.06,5.27-.05,1.76-1.07,3.61-2.33,5.27-3.55,5.09-3.65,9.93-9.25,16.68-9.16,6.8.4,11.47,6.15,16.68,9.84,3.95,3.14,9.32,3.54,14.05,2.16,5.55-1.43,10.85-4.3,16.68-4.43,2.01.02,4.13.42,6.14.3,3.55-.11,7.1-.91,10.53-1.74,13.59-3.5,14.91-1.46,26.33,5.27"/><path class="b" d="M7.78,27.1c21.65-.08,43.32.15,64.96-.08,3.32-2.42,6.51-5.18,9.66-7.82,4.27-3.69,10.02-7.23,15.8-5,3.96,1.41,7.23,4.28,10.53,6.78,4.55,3.79,9.14,5.05,14.92,3.53,6.14-1.47,11.96-5.03,18.43-4.67,2.33.23,4.71.79,7.02,1.16,3.74.65,7.61.97,11.41.88,12.18-.58,12.31-.33,23.7,4.03"/><path class="b" d="M7.78,22.33h65.84c7.22-4.93,14.85-16.23,24.58-14.1,4.3.98,7.87,3.87,11.41,6.34,4.12,3.26,8.94,4.29,14.04,3.1,7.47-1.61,15.15-6.05,22.82-2.9,4.88,1.76,9.7,4.05,14.92,4.59,3.77.48,7.63.07,11.41.21,3.79.37,7.64.88,11.41,1.46"/></svg>