<?xml version="1.0" encoding="UTF-8"?><svg id="a" xmlns="http://www.w3.org/2000/svg" width="1920" height="2400" viewBox="0 0 192 240"><defs><style>.b{fill:none;stroke:#fff;stroke-miterlimit:10;stroke-width:.4px;}.c{stroke-width:0px;}</style></defs><rect class="c" width="192" height="240"/><path class="b" d="M8.18,225.72c2.89,0,5.85,0,8.74,0,.86-.12,1.83-.74,2.62-1.05,1.07-.43,2.36-.78,3.5-.93,2.91-.4,5.93.1,8.74.86,1.7.4,3.46,1.26,5.24,1.13,2.89,0,5.85,0,8.74,0,1.69-.12,3.63.3,5.24-.29,7.1-3.97,12.5-7.47,20.97-7.67,2.6-.15,5.34-.2,7.86-.92,6.91-2.07,13.6-5.64,20.97-5.66,12.2-.33,19.58,10.78,30.59,14.09,2.49.84,5.28.3,7.86.45,3.17-.11,6.47.25,9.61-.17,4.84-2,9.56-4.74,14.86-5.29,6.73-.78,13.36,2.01,20.1,1.01"/><path class="b" d="M8.18,220.98c1.1,0,2.39,0,3.5,0,1.24.09,2.54,0,3.5-.9,4.58-3.57,10.01-5.04,15.73-3.87,6.02.99,12.27,4.28,18.35,1.95,9.2-3.7,13.13-6.26,23.59-6.36,6.41.12,12.13-3.02,18.35-4.04,8.58-1.77,17.33,1.17,24.47,5.9,4.68,2.87,10.14,6.91,15.73,7.33,3.47,0,7.01,0,10.49,0,2.01-.11,4.27.39,6.12-.6,3.61-1.7,6.92-4.11,10.49-5.88,8.53-4.64,16.34-2.33,25.34-1.21"/><path class="b" d="M8.18,216.23c.78,0,1.85.03,2.62-.08,11.01-8.43,15.76-11.37,29.71-7.34,5.34,1.52,8.75.87,13.98-.39,3.74-.87,7.55-1.7,11.36-2.22,3.47-.49,7.03-.75,10.49-1.34,2.64-.43,5.25-1.4,7.86-1.96,3.41-.77,7.03-1.02,10.49-.42,6.66,1.14,12.46,4.93,18.35,8.01,3.38,1.93,6.77,4.1,10.49,5.34,1.91.7,4.12.3,6.12.4,2.29-.1,4.74.24,6.99-.2,2.56-.67,5.27-1.12,7.86-1.6,3.19-.95,6-3.01,8.74-4.85,3.78-2.59,7.76-5.21,12.23-6.4,6.05-1.57,12.56-.94,18.35,1.33"/><path class="b" d="M8.18,211.49c.94.13,1.96-.3,2.62-.95,1.11-.86,2.39-1.89,3.5-2.75,3.6-2.73,7.24-5.63,11.36-7.54,6.73-3.2,12.6-1.05,19.22.94,3.96,1,8.18.89,12.23.8,8.99-.25,17.55-3.22,26.22-5.26,10.13-2.28,17.4,3.21,25.34,8.5,2.24,1.42,4.71,2.68,6.99,4.03,1.65.79,3.37,2.17,5.24,2.23,4.06,0,8.18,0,12.23,0,2.68-.93,5.24-2.43,7.86-3.5,2.03-.76,4.26-1.37,6.12-2.55,4.97-2.96,9.48-6.84,14.86-9.07,3.56-1.54,7.5-2.16,11.36-2.35,3.63-.46,7.27.64,10.49,2.27"/><path class="b" d="M8.18,206.75c.78,0,1.85.04,2.62-.12,3.18-2.55,6.5-5.07,9.61-7.71,3.59-2.99,7.49-6.21,12.23-7.02,4.91-.87,9.52,1.54,13.98,3.2,6.44,2.12,13.45,3.61,20.1,1.56,3.57-.97,6.99-2.58,10.49-3.78,2.24-.74,4.67-1.21,6.99-1.65,9.09-1.84,15.78,2.79,22.72,7.92,1.9,1.4,4.05,2.67,6.12,3.81,1.98,1.18,4.04,2.49,6.12,3.49,1.04.45,2.39.23,3.5.27,1.7,0,3.54,0,5.24,0,1.69-.14,3.72.4,5.24-.49,3.87-2.06,7.36-4.9,11.36-6.72,7.03-4.13,13.54-9.77,21.85-11.08,3.16-.54,6.43-.85,9.61-1.18,2.71-.07,5.43.8,7.86,1.94"/><path class="b" d="M8.18,202h5.24c9.27-6.06,15.97-19.76,28.84-13.89,6.4,2.67,12.93,6.57,20.1,5.99,5.65-.46,10.43-3.9,15.73-5.54,6-1.09,12.32-3.14,18.35-1.15,4.13,1.28,7.77,3.84,11.36,6.18,1.64,1.11,3.54,2.1,5.24,3.1,2.02,1.25,4.06,2.71,6.12,3.9.75.43,1.82.97,2.62,1.31.77.12,1.85.1,2.62.09,2.3,0,4.7,0,6.99,0,3.61-1.16,6.54-3.94,9.61-6.08,6.5-4.16,12.56-9.46,20.1-11.63,3.38-.99,6.99-1.22,10.49-1.53,1.71-.12,3.53-.57,5.24-.64,2.34-.08,4.77.39,6.99,1.11"/><path class="b" d="M8.18,197.26c2.88-.1,5.89.21,8.74-.15,9.39-8.43,14.65-19.03,28.84-11.88,5.34,2.06,10.72,5.01,16.6,4.79,4.92-.13,9.37-2.56,13.98-3.98,2.23-.73,4.71-.51,6.99-1.01,5.13-1.13,10.53-2.51,15.73-.94,4.04,1.09,7.68,3.36,11.36,5.26,3.77,1.69,6.94,4.55,10.49,6.62.75.43,1.82.98,2.62,1.29.77,0,1.85,0,2.62,0,2,0,4.12,0,6.12,0,1.93-.06,3.65-1.61,5.24-2.57,2.33-1.67,4.67-3.54,6.99-5.22,5.36-4.1,10.79-8.62,17.48-10.28,3.4-.9,7-.97,10.49-1.23,3.75-.5,7.61-.76,11.36-.05"/><path class="b" d="M8.18,192.51c3.47-.04,7.02.09,10.49-.06,5.71-5.05,11.74-11.99,20.1-11.31,2.98.21,5.88,1.25,8.74,2.05,6.03,1.69,12.13,3.19,18.35,1.5,4.08-.92,8.02-2.84,12.23-3.12,1.41-.05,2.96.24,4.37.19,5.23-.18,10.52-1.21,15.73-.22,3.29.55,6.51,1.71,9.61,2.88,1.99.79,4.19,1.37,6.12,2.31,4.02,1.97,7.8,4.73,12.23,5.74,1.4.12,2.97.04,4.37.06,1.13.07,2.44-.09,3.5-.51,7.19-2.69,12.76-8.34,19.22-12.3,4.91-3.2,10.75-4.8,16.6-4.67,4.64.02,9.34-.21,13.98.09"/><path class="b" d="M8.18,187.77c3.76-.04,7.6.08,11.36-.05,6.19-4.46,13.07-8.45,20.97-7.9,3.48.15,7,.71,10.49.77,5.64.28,11.24-.9,16.6-2.56,9.22-2.76,9.46-1.96,18.35-.13,4.37.82,8.79,1.69,13.11,2.73,4.59,1.12,9.26,2.2,13.98,2.56,10.82,2.01,17.93,5.61,28.84.14,8.57-4.56,15.85-11.03,26.22-10.62,5.24.17,10.47,1.22,15.73,1.22"/><path class="b" d="M8.18,183.02c3.47,0,7.01,0,10.49,0,5.92-2.43,12.01-4.61,18.35-5.69,6.98-1.28,14.17-1.7,20.97-3.85,7.92-2.27,16.62-5.67,24.47-1.37,8.81,4.18,17.7,10.69,27.96,9.07,4.9-.92,9.85-2.03,14.86-2.19,4.93-.27,9.95.34,14.86-.41,4.03-.66,7.7-2.73,11.36-4.43,4.13-1.98,8.5-3.8,13.11-4.21,6.58-.81,12.73,2.43,19.23,2.78"/><path class="b" d="M8.18,178.28c2.3,0,4.69,0,6.99,0,2-.51,4.08-1.16,6.12-1.54,5.29-1.04,10.65-2.12,15.73-3.97,5.21-1.95,10.44-3.94,15.73-5.66,5.07-1.8,10.3-3.62,15.73-3.75,10.4-.17,15.24,4.51,22.72,10.6,1.35,1.05,2.91,2.18,4.37,3.08,1.01.61,2.25,1.42,3.5,1.25,4.35-.04,8.76.08,13.11-.05,2.35-1.12,4.67-2.55,6.99-3.73,8.04-4.24,12.58-2.94,20.97-1.75,3.92.4,7.77-1.07,11.36-2.47,6.83-2.84,14.48-5.86,21.85-3.2,3.41,1.31,6.86,2.81,10.49,3.43"/><path class="b" d="M8.18,173.53c1.11-.02,2.4.07,3.5-.1,1.95-.7,4.06-1.28,6.12-1.54,5.34-.62,10.81-1.24,15.73-3.55,4.26-1.87,8.15-4.56,12.23-6.75,5.7-2.75,11.93-5.16,18.35-4.95,4.23.14,8.38,1.48,12.23,3.15,2.4,1.04,4.95,2.12,6.99,3.8,2.71,2.14,5.24,4.67,7.86,6.92,1.57,1.12,3.13,3.21,5.24,3.02,3.77,0,7.59,0,11.36,0,4.59-.05,4.08.63,7.86-2.35,5.07-3.99,10.72-7.8,17.48-5.95,2.64.62,5.23,1.78,7.86,2.43,3.82.95,7.79-.27,11.36-1.63,6.58-2.58,13.87-6.31,20.97-3.49,3.43,1.52,6.82,3.4,10.49,4.33"/><path class="b" d="M8.18,168.79c2.4.24,4.66-.66,6.99-1.02,2.89-.36,5.9-.48,8.74-1.2,7.01-1.62,12.69-6.32,18.35-10.49,4.48-3.45,10.02-5.71,15.73-5.59,6.96.1,13.13,3.78,19.22,6.73,1.7.82,3.64,1.5,5.24,2.52,4.14,2.57,7.83,5.99,12.23,8.13,1.03.5,2.31,1.07,3.5.94,1.7,0,3.54,0,5.24,0,1.1-.03,2.42.1,3.5-.14,2.78-1,5.43-2.54,7.86-4.19,10.74-7.49,14.26-6,25.34-.62,3.96,1.84,8.46.7,12.23-1.06,6.53-2.88,13.58-7.86,20.97-5.15,3.42,1.5,6.81,3.37,10.49,4.19"/><path class="b" d="M8.18,164.03c8.7-1.16,12.86,1.45,20.97-4.07,3.82-2.58,7.14-5.93,10.49-9.07,3.25-3.02,6.79-6.33,11.36-6.97,8.08-1.34,15.19,3.81,21.85,7.6,2.73,1.65,5.72,2.93,8.74,3.93,2.04.83,4.12,1.89,6.12,2.83,9.51,4.77,15.89,4.09,25.34-.27,4.59-2.14,9.82-3.84,14.86-2.3,5.27,1.36,9.57,5.25,14.86,6.51,2.69.54,5.48-.42,7.86-1.62,7.12-3.51,14.14-10.99,22.72-8.31,3.39,1.42,6.81,3.07,10.49,3.59"/><path class="b" d="M8.18,157.98c2.03.3,4.13.8,6.12,1.28,3.17.03,6.45.16,9.61-.06,9.13-3.89,13.84-13.58,21.85-19,6.16-3.68,13.55-.39,19.23,2.74,3.73,2.04,7.4,4.38,11.36,5.97,2.5,1.02,5.28,1.43,7.86,2.16,7.07,2.04,14.54,3.16,21.85,1.76,3.77-.59,7.52-1.76,11.36-1.8,7.97-.34,14.75,4.4,21.85,7.24,5.04,2.12,8.81.55,13.11-2.32,5.18-3.32,10.2-7.92,16.6-8.42,2.75-.25,5.38.9,7.86,1.92,2.22.81,4.64,1.38,6.99,1.58"/><path class="b" d="M8.18,151.63c2.06.83,4.03,2.18,6.12,2.92,3.77,0,7.59,0,11.36,0,3.48.57,11.26-9.15,13.98-11.72,2.29-2.29,4.73-4.85,7.86-5.94,4.04-1.04,8.32-.19,12.23.98,5.56,1.7,10.92,4.17,16.6,5.45,5.45,1.1,11.08,1.38,16.6,1.9,6.96.66,14,.76,20.97,1.14,8.85,1.18,16.62,6.28,25.34,7.98,1.38.31,2.97.18,4.37.2,1.12.04,2.45,0,3.5-.47,7.06-2.84,12.97-9.12,20.97-9.22,3.03-.12,5.94,1.08,8.74,2.08,2.23.71,4.65,1.15,6.99,1.26"/><path class="b" d="M8.18,145.52c2.08,1.28,3.89,3.3,6.12,4.29,5.52-.01,11.08.03,16.6-.02,3.76-2.67,6.97-6.14,10.49-9.11,2.97-2.56,5.62-4.02,9.61-3.98,8.15-.2,16.32.55,24.47.46,6.98.28,14.06.01,20.97,1.15,5.6.94,11.07,2.66,16.6,3.87,3.58,1.04,7,2.71,10.49,4.01,4.99,1.97,10.37,2.98,15.73,2.88,1.7-.04,3.55.02,5.24-.2,1.77-.29,3.6-.97,5.24-1.66,7.97-3.66,13.98-6,22.72-2.81,3.64,1.38,7.45,2.54,11.36,2.72"/><path class="b" d="M8.18,140.42c1.75,1.45,3.51,3.17,5.24,4.64,4.94,0,9.92,0,14.86,0,1.7,0,3.54,0,5.24,0,.46,0,1.29,0,1.75,0,.49-.21,1.34-.78,1.75-1.12,3.49-2.5,6.93-5.9,11.36-6.49,4.7-.44,9.42-1.21,13.98-2.41,4.64-1.16,9.24-2.79,13.98-3.53,2.28-.36,4.69-.26,6.99-.32,4.08-.09,8.25.09,12.23,1.04,4.2.96,8.24,2.69,12.23,4.27,1.97.81,4.14,1.41,6.12,2.19,2.6,1.04,5.22,2.27,7.86,3.2,5.29,2.02,11.07,2.12,16.6,1.2,2.88-.48,5.91-.43,8.74-1.19,5.38-1.47,11.03-3.09,16.6-1.69,4.83,1.03,9.19,3.69,13.98,4.85,2,0,4.12,0,6.12,0"/><path class="b" d="M8.18,137.03c1.12.95,2.41,2.13,3.5,3.12,1.38.32,2.97.11,4.37.17,2,0,4.12,0,6.12,0,5.81,0,11.66,0,17.48,0,.92.17,1.88-.47,2.62-.93,1.06-.62,2.35-1.28,3.5-1.71,1.35-.54,2.95-.66,4.37-.89,1.74-.3,3.58-.79,5.24-1.35,6.39-2.12,12.07-5.96,18.35-8.34,3.04-1.23,6.38-1.41,9.61-1.25,6.41.06,12.65,2.03,18.35,4.87,4.23,2.15,8.59,4.11,13.11,5.58,4.45,1.68,9.17,3.09,13.98,2.88,3.83-.1,7.61-1.11,11.36-1.76,1.98-.35,4.13-.35,6.12-.7,4.88-.87,9.94-1.79,14.86-.64,2.69.57,5.35,1.61,7.86,2.7,1.39.5,2.86,1.52,4.37,1.55,3.47,0,7.01,0,10.49,0"/><path class="b" d="M8.18,134.66c1.13,1.23,2.88.87,4.37.91,1.71,0,3.54,0,5.24,0,5.81,0,11.66,0,17.48,0,4.94,0,9.92,0,14.86,0,4.89-.94,9.1-4.09,13.11-6.88,5.7-3.95,11.74-9.66,19.23-8.36,6.07.7,11.55,3.77,16.6,7.04,4.43,2.82,8.82,6.06,13.98,7.42,2.53,1.01,5.21.79,7.86.79,3.18,0,6.43,0,9.61,0,2.05-.01,4.12-.94,6.12-1.37,2.54-.72,5.23-1.18,7.86-1.29,5.49-.62,11.09-1.62,16.6-.59,3.87.63,7.63,2.02,11.36,3.19,3.76.14,7.6.02,11.36.06"/><path class="b" d="M8.18,130.83c10.48,0,20.98,0,31.46,0,4.64,0,9.34,0,13.98,0,1.24-.2,2.44-1.17,3.5-1.81,1.77-1.18,3.59-2.59,5.24-3.93,5.41-4.1,11.81-11.22,19.22-9.68,6.76,1.35,12.19,6.06,17.48,10.18,1.38,1.1,2.94,2.32,4.37,3.36,1.06.64,2.18,1.9,3.5,1.88,10.19,0,20.4,0,30.58,0,1.72.05,3.52-.59,5.24-.65,4.66-.27,9.32-1.15,13.98-1.37,4.66-.26,9.38.18,13.98.92,4.31.78,8.72,1.24,13.11,1.1"/><path class="b" d="M8.18,126.09c13.1,0,26.22,0,39.32,0,1.4,0,2.97,0,4.37,0,4.18-1.5,7.81-4.29,11.36-6.9,4.3-3.09,8.61-6.89,13.98-7.81,9.27-.82,18.23,9.72,25.34,14.71,17.76,0,35.54,0,53.31,0,4.35-.31,8.72-1.25,13.11-1.35,2.59-.17,5.27.05,7.86-.01,2.3-.1,4.69-.41,6.99-.54"/><path class="b" d="M8.18,121.34c11.06,0,22.14,0,33.21,0,1.85.24,3.5-.98,5.24-1.37,4.26-.64,8.43-1.96,12.23-4,6.36-3.01,12.7-8.16,20.1-7.41,8.5,1.65,14.75,8.35,21.85,12.79,15.14,0,30.3,0,45.44,0,6.97-.1,14.02.21,20.97-.12,3.14-.7,6.43-.8,9.61-1.11,2.32-.36,4.69-1.03,6.99-1.47"/><path class="b" d="M8.18,116.6c9.9,0,19.82,0,29.71,0,1.27.19,2.44-.77,3.5-1.33,1.36-.75,2.9-1.52,4.37-2.02,2.24-.74,4.72-.83,6.99-1.44,3.84-.89,7.62-2.23,11.36-3.44,7.3-2.42,12.89-3.57,20.1-.09,5.45,2.33,10.42,5.73,15.73,8.33,5.52,0,11.08,0,16.6,0,7.85,0,15.74,0,23.59,0,9.31,0,18.65,0,27.96,0,2.88,0,5.85,0,8.74,0,1.39,0,2.97,0,4.37,0,.76-.21,1.85-.53,2.62-.74"/><path class="b" d="M8.18,111.85c9.31,0,18.65,0,27.96,0,1.25.17,2.44-.71,3.5-1.24,1.94-1.03,4.03-2.09,6.12-2.79,1.95-.65,4.12-.85,6.12-1.3,3.19-.65,6.43-1.47,9.61-2.19,8.32-1.92,14.83-2.45,22.72,1.37,2.63,1.15,5.3,2.48,7.86,3.77,1.7.75,3.42,1.97,5.24,2.38,9.02,0,18.07,0,27.09,0,19.8,0,39.62,0,59.42,0"/><path class="b" d="M8.18,105.04c1.4.67,2.9,1.56,4.37,2.06,1.71,0,3.54,0,5.24,0,3.77,0,7.59,0,11.36,0,2.59-.03,5.28.07,7.86-.05,2.01-.77,4.1-1.67,6.12-2.44,4.21-1.64,8.78-2.29,13.11-3.54,7.08-1.88,14.71-3.02,21.85-.79,4.91,1.52,9.46,4.08,13.98,6.47,1.3.63,2.97.24,4.37.34,2,0,4.12,0,6.12,0,6.4,0,12.83,0,19.23,0,20.68,0,41.37,0,62.04,0"/><path class="b" d="M8.18,98.43c2.76,1.55,5.62,3.26,8.74,3.94,3.77,0,7.59,0,11.36,0,3.77,0,7.59,0,11.36,0,4.93-1.44,9.96-2.74,14.86-4.32,6.71-2.31,14.02-3.5,20.97-1.54,2.67.69,5.37,1.62,7.86,2.8,2.06.88,4.03,2.25,6.12,3.06,9.9,0,19.82,0,29.71,0,21.55,0,43.11,0,64.67,0"/><path class="b" d="M8.18,93.05c3.19,2.11,6.66,3.97,10.49,4.56,4.06.02,8.18,0,12.23,0,4.06,0,8.18,0,12.23,0,1.4-.04,2.98.12,4.37-.13,1.73-.43,3.56-1.04,5.24-1.63,6.43-2.46,13.25-4.16,20.1-2.49,2.93.66,5.9,1.56,8.74,2.54,1.43.47,2.89,1.39,4.37,1.71,10.48,0,20.98,0,31.46,0,22.13,0,44.28,0,66.41,0"/><path class="b" d="M8.18,88.43c2.68,1.81,5.52,3.76,8.74,4.44,3.47,0,7.01,0,10.49,0,8.15,0,16.32,0,24.47,0,1.79.19,3.55-.48,5.24-.95,2.25-.6,4.66-1.04,6.99-1.13,2.92-.12,5.91.31,8.74.99,2,.44,4.04,1.28,6.12,1.09,34.95,0,69.91,0,104.86,0"/><path class="b" d="M8.18,83.2c8.55,6.08,9.42,4.83,19.22,4.92,7.56,0,15.16,0,22.72,0,13.98,0,27.97,0,41.95,0,30.58,0,61.17,0,91.76,0"/><path class="b" d="M8.18,76.38c2.24,1.34,4.56,2.78,6.99,3.75,3.71,1.23,7.57,2.21,11.36,3.19,4.64.17,9.34.01,13.98.07,10.19,0,20.4,0,30.58,0,7.56,0,15.16,0,22.72,0,1.7-.07,3.57.18,5.24-.17.43-.27,1.31-.79,1.75-1.05,6.78-3.96,9.18-3.79,16.6-2.01,4.3.97,8.69,1.88,13.11,2.11,4.36.27,8.77-.18,13.11-.65,1.74-.09,3.61.33,5.24.93,1.05.46,2.32.99,3.5.84,10.48,0,20.98,0,31.46,0"/><path class="b" d="M8.18,69.3c2.28,1.06,4.62,2.24,6.99,3.09,3.44,1.07,7.03,1.92,10.49,2.95,2.6.75,5.28,1.55,7.86,2.34,1.67.54,3.46,1.14,5.24.96,18.64,0,37.29,0,55.93,0,4.52-3.83,9.4-10.93,15.73-11.32,4.59.46,8.77,2.83,13.11,4.22,6.18,2.32,12.79,2.41,19.22,1.22,5.06-.9,9.94,1.62,13.98,4.41.43.3,1.32.93,1.75,1.24,1.35.42,2.97.15,4.37.22,6.98,0,13.99,0,20.97,0"/><path class="b" d="M8.18,63.13c2.3.78,4.66,1.71,6.99,2.39,3.78.96,7.67,1.76,11.36,3.03,2.96.98,5.92,2.22,8.74,3.54,1.68.68,3.34,2.02,5.24,1.79,11.35,0,22.73,0,34.08,0,3.77,0,7.59,0,11.36,0,2.24-.12,4.84.28,6.99-.23,4.58-4.57,9.63-12.5,15.73-14.67,3.68-.93,7.29,1.68,10.49,3.19,4.57,2.48,9.54,4.77,14.86,4.63,3.54-.01,7.02-1.02,10.49-1.57,7.54-1.32,14.08,3.64,19.22,8.56,6.68.24,13.41.01,20.1.09"/><path class="b" d="M8.18,58.75c2.3.59,4.67,1.34,6.99,1.86,2.59.52,5.31.87,7.86,1.54,4.29,1.05,8.43,2.88,12.23,5.1,1.1.59,2.29,1.54,3.5,1.9,2.3,0,4.69,0,6.99,0,14.85,0,29.72,0,44.57,0,1.98-1.16,3.59-3.16,5.24-4.73,3.56-3.53,6.86-7.68,11.36-10.06,3.25-1.82,6.72-.07,9.61,1.62,5.53,3.37,11.57,7.23,18.35,6.16,5-.67,9.79-2.75,14.86-3.04,5.06-.31,9.58,2.64,13.11,5.98,1.46,1.24,2.76,3.02,4.37,4.06h16.6"/><path class="b" d="M8.18,56.66c2.29.55,4.66,1.22,6.99,1.59,3.78.44,7.68.6,11.36,1.67,2.39.65,4.79,1.64,6.99,2.77,1.12.51,2.28,1.45,3.5,1.71.79,0,1.84,0,2.62,0,10.48,0,20.98,0,31.46,0,3.47,0,7.01,0,10.49,0,1.1,0,2.4,0,3.5,0,1.15.06,2.51.02,3.5-.68,3.79-2.06,7.14-4.93,10.49-7.62,3.68-2.79,8.15-6.89,13.11-5.19,4.34,1.61,7.98,4.76,12.23,6.55,7.27,3.36,12.99.49,20.1-1.25,11.59-4.03,15.76.21,23.59,8.19h15.73"/><path class="b" d="M8.18,55.99c2.27.63,4.64,1.3,6.99,1.55,3.47.21,7.03-.06,10.49.41,1.42.17,2.99.48,4.37.85,1.12.24,2.34.91,3.5.88,7.85,0,15.74,0,23.59,0,5.52,0,11.08,0,16.6,0,2,0,4.12,0,6.12,0,3.31-.37,6.6-1.41,9.61-2.82,3.94-1.84,7.59-4.36,11.36-6.52,4.11-2.4,8.6-4.13,13.11-1.62,4.06,1.98,7.83,4.79,12.23,6.01,5.25,1.66,10.63-.24,15.73-1.54,3.18-.51,6.37-1.52,9.61-1.57,6.06-.2,10.67,4.27,14.86,8.05h17.48"/><path class="b" d="M8.18,54.32c2.21.87,4.67.54,6.99.59,3.18,0,6.43,0,9.61,0,9.9,0,19.82,0,29.71,0,7.27,0,14.58,0,21.85,0,7.51-1.3,14.18-5.38,20.97-8.63,6.72-3.16,11.69-4.16,18.35-.18,5.84,3.3,11.51,5.83,18.35,4.24,2.6-.51,5.23-1.38,7.86-1.72,4.38-.36,9.03-.5,13.11,1.39,1.83.81,3.66,1.99,5.24,3.21.74.55,1.66,1.56,2.62,1.69,6.98,0,13.99,0,20.97,0"/><path class="b" d="M8.18,50.17c16.31,0,32.63,0,48.94,0,4.64,0,9.34,0,13.98,0,1.7,0,3.54,0,5.24,0,.81,0,1.88.08,2.62-.3,4.98-2.08,9.28-5.52,13.98-8.12,5.99-3.52,12.81-4.95,19.23-1.61,11.96,6.29,13.89,6.88,27.09,3.63,3.82-.71,7.83.22,11.36,1.69,1.8.78,3.63,1.86,5.24,2.98,1.03.65,2.16,1.95,3.5,1.73,8.15,0,16.32,0,24.47,0"/><path class="b" d="M8.18,45.43c16.6,0,33.21,0,49.81,0,7.27,0,14.58,0,21.85,0,1.63-.5,3.03-1.94,4.37-2.94,2.57-2.13,5.13-4.48,7.86-6.4,6.36-4.66,12.4-4.91,19.22-1.02,10.74,6.19,14.18,6.94,26.22,3.71,3.56-.93,7.3-.12,10.49,1.6,2.13,1.1,4.22,2.54,6.12,4,.31.36,1.29.92,1.75,1.06.77,0,1.85,0,2.62,0,8.44,0,16.9,0,25.34,0"/><path class="b" d="M8.18,40.68h73.4c6.52-5.14,12.31-14.95,21.85-13.17,4.51.98,8.22,4.02,12.23,6.13,4.47,2.57,9.8,3.65,14.86,2.44,10-2.5,12.05-3.67,20.97,2.82.76.55,1.75,1.41,2.62,1.77,1.7,0,3.54,0,5.24,0,8.15,0,16.32,0,24.47,0"/><path class="b" d="M8.18,35.94c24.76-.04,49.53.09,74.28-.05,5.92-4.95,12.23-13.51,20.97-10.67,4.12,1.35,7.6,4.19,11.36,6.26,3.92,2.3,8.53,3.79,13.11,3.1,8.79-1.35,12.06-5.4,20.97-.25.79.42,1.86,1.03,2.62,1.49,1.98.25,4.12.06,6.12.12,8.73,0,17.49,0,26.22,0"/><path class="b" d="M8.18,31.19c25.05-.03,50.11.06,75.15-.03,5.94-4.16,12.34-9.72,20.1-7.11,4.01,1.25,7.58,3.68,11.36,5.44,1.64.69,3.41,1.8,5.24,1.7,3.18,0,6.43,0,9.61,0,1.7-.05,3.55.11,5.24-.11,1.97-.43,4.09-.86,6.12-.85,2.06-.1,4.09.97,6.12.96,12.23,0,24.47,0,36.7,0"/><path class="b" d="M8.18,25.83c2.59.37,5.24.77,7.86.62,3.77,0,7.59,0,11.36,0,10.19,0,20.4,0,30.59,0,9.02,0,18.07,0,27.09,0,1.19.12,2.4-.75,3.5-1.13,1.95-.81,4.06-1.58,6.12-2.05,4.32-1.06,8.9-.54,13.11.78,1.71.51,3.54,1.14,5.24,1.68,1.36.5,2.91.84,4.37.71,6.69,0,13.41,0,20.1,0,15.43,0,30.88,0,46.31,0"/><path class="b" d="M8.18,19.74c2.97.29,5.85,1.37,8.74,1.96,5.81,0,11.66,0,17.48,0,12.81,0,25.64,0,38.45,0,36.99,0,73.99,0,110.98,0"/><path class="b" d="M8.18,14.28c1.74.3,3.58.8,5.24,1.41,1.12.36,2.32,1.12,3.5,1.27,5.81,0,11.66,0,17.48,0,5.81,0,11.66,0,17.48,0,2.75-1.22,5.7-2.31,8.74-2.5,2.64-.19,5.36.29,7.86,1.11,1.43.37,2.89,1.31,4.37,1.39,11.35,0,22.73,0,34.08,0,25.63,0,51.27,0,76.9,0"/></svg>