<?xml version="1.0" encoding="UTF-8"?><svg id="a" xmlns="http://www.w3.org/2000/svg" width="1920" height="2400" viewBox="0 0 192 240"><defs><style>.b{fill:none;stroke:#fff;stroke-miterlimit:10;stroke-width:.4px;}.c{stroke-width:0px;}</style></defs><rect class="c" x="0" width="192" height="240"/><path class="b" d="M9.41,232.21c5.15.05,10.35,0,15.51.02,1.68,0,3.49,0,5.17,0,1.4-.01,2.98.13,4.31-.39,3.69-1.1,7.43-2.28,11.2-3.09,3.14-.64,6.41-1.01,9.48-1.96,6.36-1.77,12.42-4.74,18.96-5.88,7.58-1.48,14.63,2.52,21.54,5.01,3.6,1.34,7.37,2.44,11.2,2.83,2.55.32,5.21-.02,7.75.24,3.8.38,7.54,1.5,11.2,2.56,1.62.62,3.45.76,5.17.67,1.97,0,4.06,0,6.03,0,2.26,0,4.63,0,6.89,0,1.38-.11,3.07.33,4.31-.41,16.16-8.63,17.27-6.41,34.46-4.8"/><path class="b" d="M9.41,227.55c9.47,0,18.96,0,28.43,0,3.14,0,6.34,0,9.48,0,1.97-.07,4.09.17,6.03-.15,7.2-2.66,13.37-7.63,20.68-10.02,4.22-1.49,8.77-.7,12.92.63,4.33,1.35,8.57,3.14,12.92,4.4,3.06.89,6.29,1.53,9.48,1.61,3.77-.17,7.58.25,11.2,1.33,2.58.64,5.15,1.67,7.75,2.2,4,0,8.06,0,12.06,0,1.97,0,4.06,0,6.03,0,3.51-1.26,6.79-3.26,10.34-4.44,3.56-1.29,7.42-1.86,11.2-1.65,4.88.33,9.77,1.07,14.65,1.42"/><path class="b" d="M9.41,222.87c16.08,0,32.17,0,48.25,0,.89.15,1.87-.42,2.58-.89,1.09-.66,2.37-1.45,3.45-2.11,3.83-2.34,7.75-4.8,12.06-6.15,9.62-2.99,18.65,3.32,27.57,5.98,1.93.59,4.02,1.06,6.03,1.2,1.68.09,3.5-.05,5.17.16,2.9.3,5.81,1.04,8.62,1.79,2.55.05,5.2,0,7.75.02,3.71,0,7.49,0,11.2,0,1.07,0,2.37,0,3.45,0,.78,0,1.87.08,2.58-.31,4.42-1.85,8.99-3.66,13.79-4.15,3.12-.36,6.35-.19,9.48.06,3.73.2,7.5.63,11.2,1.14"/><path class="b" d="M9.41,218.19c16.94,0,33.89,0,50.84,0,.9.18,1.82-.54,2.58-.9,1.38-.72,2.92-1.51,4.31-2.19,4.11-2.01,8.41-3.88,12.92-4.74,9.46-1.81,17.35,5.06,25.85,7.84,3.42,0,6.92,0,10.34,0,10.04,0,20.11,0,30.16,0,.82.13,1.83-.36,2.58-.63.75-.28,1.82-.64,2.58-.89,2.5-.81,5.15-1.48,7.75-1.85,3.69-.54,7.49-.47,11.2-.35,1.67.07,3.5-.01,5.17.15,2.29.24,4.65.78,6.89,1.31"/><path class="b" d="M9.41,213.52c17.8,0,35.62,0,53.42,0,1.73-.13,3.48-.94,5.17-1.32,2.84-.79,5.78-1.56,8.62-2.38,4.49-1.45,8.2-2.56,12.92-1.19,2.38.64,4.72,1.73,6.89,2.89,1.36.58,2.83,1.96,4.31,2,10.62,0,21.26,0,31.88,0,4-.03,8.06.06,12.06-.04,3.34-1.31,6.82-2.47,10.34-3.2,4.79-1.03,9.76-1.13,14.65-1.14,1.67.02,3.5-.14,5.17-.09,2.67.2,5.29,1.2,7.75,2.18"/><path class="b" d="M9.41,208.84c14.93,0,29.87,0,44.8,0,5.73,0,11.5,0,17.23,0,1.38-.01,2.93.03,4.31-.04,2.35-.43,4.6-1.54,6.89-2.13,3.11-.78,6.47-.48,9.48.56,1.43.4,2.85,1.35,4.31,1.61,5.15,0,10.35,0,15.51,0,6.31,0,12.65,0,18.96,0,2.26,0,4.63,0,6.89,0,.41,0,1.31,0,1.72-.03.76-.34,1.83-.81,2.58-1.17,7.76-3.79,16.38-5.43,24.99-5.41,7.32-.09,8.71-1.13,15.51,3.04"/><path class="b" d="M9.41,204.16c16.37,0,32.75,0,49.11,0,5.73,0,11.5,0,17.23,0,3.43-.06,6.95.23,10.34-.38,2.29-.32,4.63.33,6.89.38,5.44,0,10.93,0,16.37,0,5.73,0,11.5,0,17.23,0,8.22.03,5.64.5,12.92-3.33,8.48-4.82,16.94-7,26.71-6.64,8.1.31,9.36-.99,16.37,4.39"/><path class="b" d="M9.41,199.48c31.88,0,63.76,0,95.64,0,5.73,0,11.5,0,17.23,0,2.55-.1,5.24.22,7.75-.17,1.7-1.13,3.5-2.41,5.17-3.6,9.75-7.27,17.88-10.41,30.16-8.19,3.12.57,6.35.92,9.48,1.38,2.91.82,5.41,2.82,7.75,4.65"/><path class="b" d="M9.41,194.8c26.99,0,54,0,80.99,0,10.33,0,20.69,0,31.02,0,1.68,0,3.49,0,5.17,0,.76,0,1.82,0,2.58,0,.52-.13,1.36-.72,1.72-1.1,5.53-4.79,10.77-10.6,18.09-12.52,6.7-1.98,13.51.55,19.82,2.76,1.92.7,4.06,1.08,6.03,1.59,2.85,1,5.35,2.95,7.75,4.74"/><path class="b" d="M9.41,190.12c40.49,0,80.99,0,121.49,0,3.41-2.72,6.08-6.45,9.48-9.21,7.86-6.44,15.27-6.62,24.13-2.08,3.33,1.67,6.74,3.35,10.34,4.36,2.77,1.13,5.29,2.97,7.75,4.63"/><path class="b" d="M9.41,185.45c15.79,0,31.6,0,47.39,0,1.67-.09,3.57.26,5.17-.31,3.34-1.05,6.81-2.13,10.34-2.15,1.71-.01,3.56.29,5.17.87,1.14.38,2.33,1.18,3.45,1.59,3.42,0,6.92,0,10.34,0,14.07,0,28.15,0,42.22,0,4.66-4.96,8.74-10.14,15.51-12.33,6.65-2.39,13.31,1.11,18.96,4.42,2.42,1.48,5.17,2.47,7.75,3.6,2.36,1.19,4.65,2.74,6.89,4.12"/><path class="b" d="M9.41,180.77c8.89,0,17.82,0,26.71,0,2.31.14,4.57-.93,6.89-.92,1.39-.07,2.94.05,4.31.32,1.08.22,2.33.7,3.45.6,1.68-.05,3.51.12,5.17-.11,2.02-.43,4.09-1.13,6.03-1.8,8.24-2.86,12.6-3.79,19.82,1.91h54.28c4.88-5.51,11.26-11.07,18.96-11.47,4.99-.15,9.53,2.38,13.79,4.68,2.45,1.45,5.27,2.36,7.75,3.74,1.1.62,2.38,1.42,3.45,2.09.69.47,1.7,1.12,2.58.95"/><path class="b" d="M9.41,175.91c2.54.33,5.2.12,7.75.18,4.58,0,9.21,0,13.79,0,3.66-.92,7.38-2.08,11.2-2.08,2.61-.08,5.25.46,7.75,1.12,4.06.77,8.17-.47,12.06-1.54,4.43-1.26,9.34-2.41,13.79-.61,1.16.46,2.45,1.2,3.45,1.95.67.57,1.64,1.38,2.58,1.18,5.73,0,11.5,0,17.23,0,12.92,0,25.85,0,38.77,0,4.54-4.03,9.57-7.99,15.51-9.68,4.95-1.41,10.13.07,14.65,2.18,2.52,1.22,5.24,2.22,7.75,3.44,2.37,1.14,4.47,3.05,6.89,4.06"/><path class="b" d="M9.41,167.71c4.67-.25,9.12,1.86,13.79,1.72,7.19-.04,14.33-1.71,21.54-1.3,3.43.19,6.9.83,10.34.46,5.42-.39,10.98-1.43,16.37-.2,2.41.54,4.81,1.56,6.89,2.9,4.56.31,9.21.03,13.79.12,14.93,0,29.87,0,44.8,0,1.38-.07,2.97.19,4.31-.21.74-.47,1.82-1.06,2.58-1.48,2.72-1.49,5.61-2.9,8.62-3.72,6.69-2.03,13.57.22,19.82,2.67,2.05.67,4.14,1.59,6.03,2.62,1.36.24,2.93.09,4.31.13"/><path class="b" d="M9.41,159.33c3.76-.3,7.51.75,11.2,1.31,4.83.84,9.74,1.54,14.65,1.68,8.63.46,17.24-1.63,25.85-.65,3.52.4,7.05,1.32,10.34,2.63,1.1.44,2.38,1.01,3.45,1.53.77.35,1.7,1.04,2.58.9,3.42,0,6.92,0,10.34,0,13.78,0,27.58,0,41.36,0,6.31,0,12.65,0,18.96,0,2.28.11,4.62-.47,6.89-.51,2.86-.21,5.78.35,8.62.51,6.31,0,12.65,0,18.96,0"/><path class="b" d="M9.41,151.52c2.29-.02,4.64.44,6.89.81,2,.26,4.1.6,6.03,1.18,6.4,1.95,13.02,4.3,19.82,3.27,4.93-.59,9.59-3.11,14.65-2.56,5.19.34,10.06,2.53,14.65,4.82,1.97.98,4.03,2.05,6.03,2.97,1.68.09,3.49.02,5.17.04,33.31,0,66.63,0,99.95,0"/><path class="b" d="M9.41,144.63c2.3.31,4.61,1.02,6.89,1.42,2.02.22,4.13.54,6.03,1.3,6.28,2.49,12.85,6.1,19.82,4.41,4.5-.82,8.28-4.04,12.92-4.25,8.52-.56,15.47,5.42,23.26,7.8,2.57.63,5.26,1.15,7.75,2.04,3.13.04,6.34,0,9.48.02,7.46,0,14.95,0,22.4,0,21.54,0,43.08,0,64.62,0"/><path class="b" d="M9.41,138.64c1.99.51,4.03,1.28,6.03,1.78,1.67.42,3.54.4,5.17.99,3.86,1.29,7.37,3.57,11.2,4.94,4.74,1.88,10.13,1.54,14.65-.79,2.49-1.26,4.97-2.84,7.75-3.4,6.84-1.6,13.46,1.59,19.82,3.69,1.92.61,4.01,1.14,6.03,1.26,2.05.11,4.14.72,6.03,1.49,1.73.7,3.53,1.62,5.17,2.49,1.08.52,2.25,1.41,3.45,1.61,2.26,0,4.63,0,6.89,0,26.99,0,54,0,80.99,0"/><path class="b" d="M9.41,133.62c2.29.58,4.58,1.5,6.89,2,2.34.29,4.74.8,6.89,1.78,5.92,2.63,12.29,5.95,18.96,4.28,3.04-.63,5.84-2.17,8.62-3.48,2.17-.95,4.55-1.68,6.89-2.04,5.76-.95,11.56.37,17.23,1.27,2.53.5,5.23.26,7.75.73,5.11,1.2,9.39,4.54,13.79,7.23,4.71,2.92,3.99,2.7,9.48,2.63,3.71-.02,7.49.03,11.2-.02,3.57-1.22,7.42-2.08,11.2-1.56,2.04.22,4.07,1.01,6.03,1.58,5.15,0,10.35,0,15.51,0,10.91,0,21.83,0,32.74,0"/><path class="b" d="M9.41,129.7c2.3.43,4.61,1.22,6.89,1.69,1.99.31,4.1.61,6.03,1.21,7.64,2.43,14.41,4.56,22.4,2.06,5.41-1.73,10.7-4.09,16.37-4.87,4.82-.8,9.78-.71,14.65-.56,3.47.07,7.09-.21,10.34,1.24,7.24,2.82,13.11,8.6,20.68,10.64,2.52.7,5.22.38,7.75-.08,5.37-1,10.94-1.95,16.37-.79,3.27.58,6.37,1.98,9.48,3.09,3.71,0,7.49,0,11.2,0,10.33,0,20.69,0,31.02,0"/><path class="b" d="M9.41,126.44c3.73.6,7.43,1.65,11.2,2.06,5.11.86,10.31,1.75,15.51,1.6,8.84-.18,17.32-3.03,25.85-5.07,4.51-1.05,9.16-1.74,13.79-1.97,4.34-.33,8.79-.18,12.92,1.3,7.03,2.23,13.39,6.45,20.68,7.87,4.55.63,9.21.66,13.79,1.05,4.61.34,9.29.86,13.79,1.97,3.24.79,6.48,1.93,9.48,3.4,1.38,0,2.93,0,4.31,0,10.62,0,21.26,0,31.88,0"/><path class="b" d="M9.41,123.46c2.3.28,4.63.9,6.89,1.35,2.24.42,4.62.64,6.89.8,9.46.5,19.01.14,28.43-.7,7.01-1.07,13.7-3.71,20.68-4.91,3.67-.69,7.47-.84,11.2-.8,6.67-.06,13.36.8,19.82,2.48,3.43.9,6.94,1.78,10.34,2.77,4.26,1.35,8.53,2.89,12.92,3.75,4.25.89,8.65,1.11,12.92,1.81,3.56.62,7.06,1.87,10.34,3.37,1.51.93,3.48.52,5.17.6,2.26,0,4.63,0,6.89,0,6.88,0,13.8,0,20.68,0"/><path class="b" d="M9.41,120.36c3.15.59,6.28,1.69,9.48,2.03,5.13.58,10.36.36,15.51.56,3.43.11,6.92.36,10.34.63,2.84.21,5.78.52,8.62.1,5.61-.77,10.94-2.94,16.37-4.46,3.9-1.18,7.99-1.77,12.06-1.89,10.45-1.33,18.63-5.07,29.3-.96,6.36,2.6,12.03,7.08,18.96,8.21,4.24.85,8.67.43,12.92,1.2,2.58.44,5.25.96,7.75,1.74,1.72.45,3.44,1.41,5.17,1.79,8.89,0,17.82,0,26.71,0"/><path class="b" d="M9.41,116.86c2.55.78,5.13,1.82,7.75,2.34,5.7.89,11.54,1.09,17.23,2.06,5.44.78,10.85,2.35,16.37,2.46,3.85-.08,7.62-1.31,11.2-2.65,4.26-1.6,8.5-3.5,12.92-4.62,2.79-.81,5.8-.72,8.62-1.36,5.52-1.31,10.73-3.91,16.37-4.71,12.67-2.09,18.23,7.68,29.3,10.39,3.36.84,6.91.75,10.34.7,4.58.21,9.23.21,13.79.69,3.23.4,6.45,1.29,9.48,2.46,6.59.01,13.22,0,19.82,0"/><path class="b" d="M9.41,114.45c2.22.87,4.54,1.81,6.89,2.26,4,.51,8.11.59,12.06,1.46,2.3.43,4.63,1.17,6.89,1.77,2.27,0,4.63,0,6.89,0,6.59,0,13.22,0,19.82,0,.78,0,1.82.04,2.58-.14.78-.38,1.82-.9,2.58-1.29,2.24-1.13,4.58-2.31,6.89-3.26,3.83-1.72,8.15-1.92,12.06-3.39,8.11-2.93,15.7-5.16,24.13-1.83,5.97,2.26,10.89,6.96,17.23,8.36,4.55,1.15,9.24.08,13.79-.53,5.8-.32,11.38-2.61,17.23-2.37,6.29.11,12.09,2.95,18.09,4.46,1.97,0,4.06,0,6.03,0"/><path class="b" d="M9.41,113.54c2.19.81,4.55,1.5,6.89,1.6,2.56,0,5.19-.36,7.75-.19,4.28.49,8.63.29,12.92.32,6.59,0,13.22,0,19.82,0,3.42,0,6.92,0,10.34,0,1.38,0,2.93,0,4.31,0,.46-.17,1.31-.61,1.72-.88,1.63-.94,3.42-1.9,5.17-2.61,1.96-.72,4.09-1.31,6.03-2.07,4.66-1.76,9.61-3.34,14.65-2.88,4.81.42,9.4,2.3,13.79,4.23,2.59,1.29,5.13,2.9,7.75,4.11,3.99.23,8.06.02,12.06.09,1.38,0,2.93,0,4.31,0,1.08-.41,2.36-.92,3.45-1.31,2.6-.82,5.28-1.7,7.75-2.87,4.82-2.21,10.16-3.97,15.51-2.98,2.94.47,5.82,1.54,8.62,2.51,3.47,1.1,6.93,2.42,10.34,3.67"/><path class="b" d="M9.41,110.59c17.8,0,35.62,0,53.42,0,3.42,0,6.92,0,10.34,0,1.08-.01,2.37.04,3.45-.06,1.05-.64,2.32-1.35,3.45-1.84,7.75-3.64,13.89-6.47,22.4-2.95,3.77,1.46,7.35,3.59,11.2,4.85,5.44,0,10.93,0,16.37,0,1.68,0,3.49,0,5.17,0,1.13-.01,2.55.18,3.45-.66,2.46-1.64,5.25-2.93,7.75-4.49,3.69-2.22,7.67-4.47,12.06-4.7,4.23-.27,8.27,1.47,12.06,3.14,4.03,1.62,8.13,3.2,12.06,5.06"/><path class="b" d="M9.41,105.92c16.08,0,32.17,0,48.25,0,7.17,0,14.37,0,21.54,0,1.23.18,2.43-.66,3.45-1.23,1.64-.91,3.43-1.87,5.17-2.57,3.52-1.48,7.57-1.77,11.2-.54,2.07.66,4.13,1.69,6.03,2.73.76.42,1.82,1,2.58,1.41.74.26,1.82.2,2.58.2,8.89-.06,17.82.12,26.71-.07,2.71-2.42,5.64-4.71,8.62-6.8,3.08-2.21,6.49-4.4,10.34-4.82,5.42-.61,10.16,2.71,14.65,5.26,1.6.94,3.47,1.66,5.17,2.39,2.28,1.01,4.62,2.15,6.89,3.16"/><path class="b" d="M9.41,101.24h74.96c6.94-4.4,12.51-5.06,19.82-1,.76.37,1.7,1.08,2.58,1,1.68,0,3.49,0,5.17,0,8.03,0,16.09,0,24.13,0,1.55-1.12,2.91-2.8,4.31-4.09,2.13-2.04,4.49-4.05,6.89-5.77,5.94-4.33,11.36-3.89,17.23.27,2.3,1.56,4.55,3.42,6.89,4.93,1.58,1.02,3.48,1.76,5.17,2.58,1.93.76,3.87,2.25,6.03,2.09"/><path class="b" d="M9.41,96.56c25.27,0,50.55,0,75.82,0,1.38-.03,2.93.07,4.31-.08,2.14-.95,4.54-1.58,6.89-1.54,2.35.03,4.74.7,6.89,1.6,3.13.06,6.34,0,9.48.02,7.74,0,15.52,0,23.26,0,1.72-.79,2.9-2.76,4.31-3.99,1.86-1.88,3.95-3.75,6.03-5.37,12.42-9.62,18.16,2.24,28.43,7.23,1.37.68,2.92,1.44,4.31,2.07,1.07.1,2.37.05,3.45.06"/><path class="b" d="M9.41,91.88h125.8c5.35-4.92,10.56-11.39,18.09-12.76,5.15-.77,9.81,2.3,13.79,5.19,2.93,2.25,6.12,4.25,9.48,5.8,1.07.54,2.36,1.18,3.45,1.68.76.12,1.82.09,2.58.09"/><path class="b" d="M9.41,87.2c41.36-.04,82.72.08,124.07-.04,5.22-4.86,10.78-10.28,18.09-11.5,5.22-.88,10.28,1.43,14.65,4.07,3.06,1.88,6.22,3.75,9.48,5.27,1.38.71,2.91,1.53,4.31,2.2.76,0,1.82,0,2.58,0"/><path class="b" d="M9.41,82.52c7.17,0,14.37,0,21.54,0,1.46-.04,2.88-1.2,4.31-1.56,2.18-.76,4.58-1.15,6.89-1.06,2.92.11,5.86.87,8.62,1.81.77.26,1.78.68,2.58.81,1.08,0,2.36,0,3.45,0,14.93,0,29.87,0,44.8,0,8.89,0,17.82,0,26.71,0,1.08-.04,2.4.13,3.45-.2.41-.35,1.31-1.04,1.72-1.38,1.91-1.52,3.96-3.1,6.03-4.37,9.99-6.16,19.66-2.81,29.3,2.09,1.66.81,3.47,1.66,5.17,2.39,1.08.44,2.28,1.29,3.45,1.47,1.67,0,3.5,0,5.17,0"/><path class="b" d="M9.41,77.85c6.88,0,13.8,0,20.68,0,2.5-1.31,5.02-2.85,7.75-3.64,3.32-1.05,6.98-1.13,10.34-.18,3.75,1.11,7.41,2.73,11.2,3.71,8.3.31,16.67.01,24.99.11,10.04,0,20.11,0,30.16,0,3.42,0,6.92,0,10.34,0,1.38,0,2.93,0,4.31,0,.82-.34,1.83-1.03,2.58-1.49,3.95-2.39,8.25-4.68,12.92-5.08,8.78-.5,16.91,3.74,24.99,6.57,4.29,0,8.63,0,12.92,0"/><path class="b" d="M9.41,73.17c6.59,0,13.22,0,19.82,0,.54.01,1.31-.35,1.72-.66,1.06-.63,2.33-1.35,3.45-1.89,4.21-2.12,9.18-3.16,13.79-1.81,4.59,1.42,9.05,3.43,13.79,4.36,1.68,0,3.49,0,5.17,0,17.8,0,35.62,0,53.42,0,1.38,0,2.93,0,4.31,0,2.03-.49,4.03-1.55,6.03-2.16,4.68-1.53,9.7-2.8,14.65-2.33,4.81.64,9.3,2.76,13.79,4.5,7.74,0,15.52,0,23.26,0"/><path class="b" d="M9.41,68.49c6.88-.05,13.8.09,20.68-.05,2.44-1.27,5.07-2.4,7.75-3.04,3.08-.75,6.39-.79,9.48-.06,2.92.72,5.77,1.96,8.62,2.93,1.62.46,3.5.13,5.17.23,2.56,0,5.2,0,7.75,0,9.76,0,19.54,0,29.3,0,1.41.05,2.93-.48,4.31-.68,2.25-.42,4.61-.79,6.89-.95,5.21-.04,10.35-1.15,15.51-1.7,4.56-.5,9.21-.33,13.79-.06,2.26.16,4.66-.02,6.89.49,1.73.38,3.54,1.03,5.17,1.72.76.33,1.83.81,2.58,1.17.4,0,1.31.01,1.72,0,9.18,0,18.39,0,27.57,0"/><path class="b" d="M9.41,63.81c6.59,0,13.22,0,19.82,0,1.42-.14,2.9-.79,4.31-1.04,1.95-.43,4.04-.69,6.03-.74,3.8-.13,7.58.71,11.2,1.78,1.97,0,4.06,0,6.03,0,8.03,0,16.09,0,24.13,0,2.56,0,5.2,0,7.75,0,1.67-.1,3.59.3,5.17-.36,5.68-2.03,11.25-4.66,17.23-5.68,4.81-.83,9.76-1.79,14.65-.99,5.93.76,11.29,3.96,17.23,4.62,1.43.22,2.98.72,4.31,1.26.77.32,1.82.82,2.58,1.14.4,0,1.31,0,1.72,0,10.33,0,20.69,0,31.02,0"/><path class="b" d="M9.41,59.13c5.73,0,11.5,0,17.23,0,1.41.06,2.92-.5,4.31-.65,1.96-.3,4.05-.48,6.03-.51,3.45-.05,6.97.32,10.34,1.03,1.95.29,4.06.07,6.03.13,7.46,0,14.94,0,22.4,0,3.99-.11,8.09.23,12.06-.15,7.06-1.84,13.87-4.58,20.68-7.19,6.99-2.56,13.33-5.4,20.68-2.09,3.59,1.48,6.83,3.8,10.34,5.43,1.59.79,3.51,1.07,5.17,1.69,1.75.57,3.41,1.77,5.17,2.3,10.91,0,21.84,0,32.74,0"/><path class="b" d="M9.41,54.46c4.87,0,9.78,0,14.65,0,8.17-1.67,16.7-3,24.99-1.23,1.11.25,2.39.68,3.45,1.08,1.07.24,2.36.12,3.45.15,3.71,0,7.49,0,11.2,0,3.42,0,6.92,0,10.34,0,1.15-.19,2.35-.93,3.45-1.31,1.63-.61,3.46-1.08,5.17-1.39,4.26-.76,8.66-.94,12.92-1.73,4.19-.74,8.33-2.14,12.06-4.18,6.66-3.9,12.21-7.46,19.82-3.18,3.58,1.89,6.67,4.73,10.34,6.46,2.02.74,4.16,1.54,6.03,2.61,1.71.8,3.34,2.21,5.17,2.71,10.04,0,20.11,0,30.16,0"/><path class="b" d="M9.41,49.78c5.15-.04,10.36.08,15.51-.05,7.55-2.11,15.3-5.24,23.26-4.31,4,.57,7.46,3,11.2,4.36,3.71,0,7.49,0,11.2,0,1.13.06,2.45,0,3.45-.62,1.73-.85,3.52-1.94,5.17-2.93,6.18-4.37,13.8-1.43,20.68-1.27,3.26.08,6.62-.64,9.48-2.25,7.28-4.45,13.02-12.68,22.4-7.33,3.31,1.8,6.16,4.48,9.48,6.28,5.35,2.16,10.21,5.45,15.51,7.73.98.57,2.36.38,3.45.41,1.97,0,4.06,0,6.03,0,5.44,0,10.93,0,16.37,0"/><path class="b" d="M9.41,45.1c4,0,8.06,0,12.06,0,1.39,0,2.92,0,4.31,0,.8,0,1.84.08,2.58-.29,3.71-1.67,7.38-3.6,11.2-5,3.82-1.43,8.24-2.15,12.06-.36,3.77,1.67,7.22,4.21,11.2,5.41.75.3,1.8.24,2.58.24,1.38,0,2.93,0,4.31,0,2.14-.19,4.19-1.37,6.03-2.41,2.58-1.45,4.86-3.69,7.75-4.53,7.43-2,14.97,3.19,22.4.75,5.21-1.57,8.6-6.24,12.92-9.26,2.46-1.79,5.51-3.19,8.62-2.78,4.69.64,8.28,4.13,12.06,6.66,1.82,1.29,4.06,2.06,6.03,3.07,3.09,1.55,6.23,3.23,9.48,4.43,5.47,2.2,11.44,2.24,17.23,2.57,2.04.12,4.14.72,6.03,1.49,1.38,0,2.93,0,4.31,0"/><path class="b" d="M9.41,40.42c6.59,0,13.22,0,19.82,0,.89.1,1.92-.2,2.58-.79,1.08-.72,2.35-1.57,3.45-2.26,3.83-2.38,8.24-4.91,12.92-4.23,4.9.98,8.56,4.88,12.92,7.06,1.62.46,3.5.13,5.17.22,2.56,0,5.2,0,7.75,0,.9.01,1.85-.7,2.58-1.14,2.02-1.25,3.88-3.01,6.03-4.05,8.29-3.88,17.33,1.17,25.85-3.92,5.33-3.1,9.24-8.83,15.51-10.22,5.57-1.17,10.31,2.83,14.65,5.71,2.06,1.49,4.59,2.32,6.89,3.35,4.97,2.31,10.03,4.8,15.51,5.6,4.82.9,9.83-.02,14.65.77,2.37.56,4.69,1.64,6.89,2.65"/><path class="b" d="M9.41,35.74c7.46,0,14.94,0,22.4,0,1.22-.48,2.35-1.58,3.45-2.28,1.59-1.1,3.39-2.19,5.17-2.96,3.24-1.46,7.17-1.73,10.34.05,1.8.97,3.56,2.34,5.17,3.59.73.54,1.64,1.47,2.58,1.59,6.88,0,13.8,0,20.68,0,8.64-7.17,17.21-5.43,26.71-9.55,7.25-3.1,12.85-11.44,21.54-10.11,4.43.68,8.15,3.48,12.06,5.46,2.45,1.22,5.27,1.75,7.75,2.89,4.49,1.88,9,3.98,13.79,4.97,4.51,1.06,9.2.76,13.79.69,2.67.21,5.29,1.23,7.75,2.23"/><path class="b" d="M9.41,31.06c7.46,0,14.94,0,22.4,0,.89.16,1.88-.46,2.58-.92,1.04-.62,2.33-1.28,3.45-1.74,5.32-2.35,11.17-1.2,15.51,2.57,9.74.27,19.54.01,29.3.1,1.27.06,2.35-1.21,3.45-1.73,1.63-.98,3.45-1.93,5.17-2.73,4.51-2.12,9.29-3.77,13.79-5.92,5.89-2.6,10.75-7.53,17.23-8.72,5.74-1.16,11.17,1.64,16.37,3.67,2.18.9,4.65,1.09,6.89,1.76,3.52,1.06,6.93,2.65,10.34,4,4.11,1.64,8.47,2.99,12.92,3.18,2.27.18,4.63-.32,6.89-.27,2.33.13,4.69.8,6.89,1.52"/><path class="b" d="M9.41,26.39c7.46,0,14.94,0,22.4,0,.82.1,1.83-.28,2.58-.53,1.35-.41,2.9-.68,4.31-.73,2.32-.08,4.72.42,6.89,1.22,1.68.09,3.49.02,5.17.04,11.77-.04,23.56.08,35.33-.05,6.11-4.6,12.98-8.1,19.82-11.47,4.8-2.34,9.3-5.64,14.65-6.65,5.8-1.29,11.63.49,17.23,1.88,2.22.6,4.63.63,6.89.94,7.5,1.37,14.05,5.91,21.54,7.35,1.66.32,3.48.48,5.17.38,1.39-.07,2.91-.46,4.31-.47,2.31-.03,4.68.48,6.89,1.09"/></svg>