<?xml version="1.0" encoding="UTF-8"?><svg id="a" xmlns="http://www.w3.org/2000/svg" width="1920" height="2400" viewBox="0 0 192 240"><defs><style>.b{fill:none;stroke:#fff;stroke-miterlimit:10;stroke-width:.4px;}.c{stroke-width:0px;}</style></defs><rect class="c" width="192" height="240"/><path class="b" d="M9.83,232.23c7.99,0,16.01,0,24.01,0,2.25,0,4.61,0,6.86,0,2.28.19,2.63-.4,4.29-1.7,1.28-.94,2.78-1.89,4.29-2.4,6.27-2.5,11.18-8.01,18-9.24,3.42-.68,6.98-.04,10.29.92,2.34.61,4.75,1.36,6.86,2.56,8.85,5.09,13.37,5.62,22.29.27,8.43-5.35,14.64-2.94,22.29,2.29,3.5,2.27,6.97,5.09,11.15,5.96,1.36.25,2.92,0,4.29.22,1.71.14,3.44,1.05,5.14,1.11,5.99,0,12.02,0,18,0,5.54-2.84,9.45-7.97,14.58-11.37"/><path class="b" d="M9.83,227.57c9.14,0,18.3,0,27.44,0,3.12,0,6.31,0,9.43,0,1.96-.07,4.06.16,6-.14,4.88-3.15,9.12-7.47,14.58-9.67,4.61-1.93,9.9-1.49,14.58,0,2.05.78,4.06,1.95,6,2.96,6.87,3.79,11.96,3.52,18.86.05,2.93-1.41,6.1-2.84,9.43-2.49,5.53.53,10.14,4.1,14.58,7.14,1.05.7,2.26,1.64,3.43,2.15,1.37,0,2.91,0,4.29,0,3.69,0,7.45,0,11.15,0,5.7,0,11.45,0,17.15,0,.75,0,1.82,0,2.57,0,1.13-.6,2.38-1.5,3.43-2.23,3.16-2.18,5.99-5.01,9.43-6.77"/><path class="b" d="M9.83,222.92c11.42,0,22.87,0,34.29,0,3.12,0,6.31,0,9.43,0,1.08,0,2.35,0,3.43,0,.8,0,1.85.09,2.57-.34,2.69-2.27,5.49-4.6,8.57-6.33,4.34-2.51,9.82-3.38,14.58-1.55,4.58,1.84,8.77,4.91,13.72,5.76,4.35.85,8.73-.48,12.86-1.77,6.02-2.31,12.15.84,17.15,4.11,6.54.32,13.16.02,19.72.12,4.84,0,9.73,0,14.58,0,1.37,0,2.92,0,4.29,0,1.09-.03,2.47.19,3.43-.46,4.53-2.02,8.84-4.86,13.72-5.96"/><path class="b" d="M9.83,218.26h52.3c5.27-3.92,10.9-9.21,18-8.3,3.98.59,7.51,2.82,11.15,4.39,5.42,2.61,11.24,3.31,17.15,2.3,4.16-.82,7.35-.39,11.15,1.5,13.69.3,27.45,0,41.15.11,2.05.05,4.01-1.3,6-1.75,4.98-1.43,10.23-2.72,15.43-2.03"/><path class="b" d="M9.83,213.61h52.3c6.02-4.15,12.6-10.74,20.58-8.17,5.26,1.52,10.12,4.32,15.43,5.68,4.45,1.26,9.13,1.31,13.72,1.28,1.76.03,3.45.95,5.14,1.21,3.98,0,8.02,0,12,0,8.56,0,17.16,0,25.72,0,1.22.19,2.42-.59,3.43-1.16,1.32-.68,2.86-1.33,4.29-1.74,2.75-.81,5.73-.92,8.57-.73,3.81.07,7.58.97,11.15,2.29"/><path class="b" d="M9.83,208.95h48.87c5.15-2.99,9.8-7.05,15.43-9.16,5.14-2.09,10.55.25,15.43,1.99,4.73,1.78,9.57,3.49,14.58,4.3,2.81.55,5.76.54,8.57,1,1.78.31,3.4,1.53,5.14,1.87,5.99,0,12.02,0,18,0,5.42,0,10.87,0,16.29,0,8.58-5.88,11.7-5.49,21.43-2.74,1.71.45,3.51,1.16,5.14,1.83,1.02.44,2.28,1.04,3.43.9"/><path class="b" d="M9.83,204.3c8.28,0,16.58,0,24.86,0,6.01-.08,12.15.47,18-1.18,7.33-2.17,13.34-7.38,20.58-9.75,3.75-1.33,7.5-.69,11.15.6,4.02,1.33,7.97,3.02,12,4.33,3.61,1.19,7.38,2.09,11.15,2.57,1.66.25,3.5.26,5.14.63,1.78.46,3.56,1.36,5.14,2.27,1.17.91,2.91.4,4.29.53,2.54,0,5.17,0,7.72,0,6.85,0,13.73,0,20.58,0,1.48-.58,2.84-1.8,4.29-2.47,2.59-1.38,5.64-2.12,8.57-1.75,4.12.56,7.96,2.47,12,3.4.75.24,1.82.57,2.57.82,1.37,0,2.92,0,4.29,0"/><path class="b" d="M9.83,199.64c9.14,0,18.3,0,27.44,0,.93-.04,1.82-.91,2.57-1.37,1.32-.87,2.85-1.76,4.29-2.42,2.93-1.46,6.3-1.66,9.43-2.47,5.87-1.42,11.39-4.04,17.15-5.81,6.77-2.25,11.57-.79,18,1.52,7.31,2.64,14.49,6.14,22.29,7.04,3.09.33,5.91,1.99,8.57,3.47,4.27.11,8.59.01,12.86.04,5.13,0,10.3,0,15.43,0,1.93-.95,3.93-2.1,6-2.73,3.02-1.01,6.38-.97,9.43-.1,2.88.77,5.67,2.12,8.57,2.81,3.41.06,6.88,0,10.29.03"/><path class="b" d="M9.83,194.99c8.27-.09,16.6.17,24.86-.1,3.89-3.42,7.91-7.1,12.86-8.88,3.03-.95,6.3-1.2,9.43-1.61,3.43-.41,6.91-.96,10.29-1.66,3.39-.67,6.83-1.51,10.29-1.7,4.96-.1,9.95,1.05,14.58,2.78,5.56,2.05,10.65,5.31,16.29,7.16,1.64.54,3.52.68,5.14,1.28,2.04.71,4.03,1.87,6,2.74,4.84,0,9.73,0,14.58,0,3.12,0,6.31,0,9.43,0,2.24-.86,4.5-2.01,6.86-2.56,2.77-.72,5.78-.75,8.57-.11,2.91.52,5.74,2.15,8.57,2.67,4.84-.05,9.74.09,14.58-.06"/><path class="b" d="M9.83,190.33c7.71-.01,15.44.03,23.15-.02,5.29-4.2,10.35-9.58,17.15-11.17,3.37-.66,6.88-.3,10.29-.26,4.02.11,8.08-.34,12-1.18,6.42-1.45,13.37-2.23,19.72-.05,4.65,1.59,8.71,4.55,12.86,7.09,2.1,1.29,4.42,2.47,6.86,2.95,2.07.6,4.1,1.65,6,2.63,3.41.01,6.88,0,10.29,0,4.56,0,9.16,0,13.72,0,2-.51,3.95-1.62,6-1.99,3.07-.72,6.37-.6,9.43.12,2,.46,4.06,1.15,6,1.79,2.24.2,4.61.04,6.86.09,1.96,0,4.04,0,6,0,2.01-.47,4.03-1.38,6-1.99"/><path class="b" d="M9.83,185.68c7.7-.09,15.46.18,23.15-.1,4.56-2.82,8.84-6.24,13.72-8.51,5.09-2.71,10.86-.89,16.29-.84,3.48.07,6.98-.63,10.29-1.68,4.7-1.54,9.6-2.96,14.58-3.07,2.99,0,5.98.93,8.57,2.38,3.97,2.18,7.35,5.37,11.15,7.81,1.52,1.05,3.42,1.62,5.14,2.21,1.11.46,2.39,1.13,3.43,1.73,4.83.19,9.73.02,14.58.07,5.13,0,10.3,0,15.43,0,1.94-.4,4.02-.72,6-.66,1.98.02,4.05.36,6,.66,4.84,0,9.73,0,14.58,0,1.2.16,2.39-.79,3.43-1.26,1.93-1,3.99-2.06,6-2.89"/><path class="b" d="M9.83,181.02c8.28,0,16.58,0,24.86,0,1.19.08,2.37-.81,3.43-1.24,2.26-1.1,4.58-2.31,6.86-3.36,2.93-1.41,6.12-2.59,9.43-2.32,10.74.96,13.51.11,23.15-4.41,8.02-2.98,13.75-5.28,21.43.08,3.25,2.17,6.13,4.99,9.43,7.08,1.26.85,2.9,1.31,4.29,1.9,1.46.58,2.77,1.88,4.29,2.26,4.27,0,8.59,0,12.86,0,7.13,0,14.3,0,21.43,0,7.13-.08,14.31.15,21.43-.09,3.12-1.82,6.15-3.95,9.43-5.48"/><path class="b" d="M9.83,175.83c1.35.58,2.85.58,4.29.53,2.25,0,4.6,0,6.86,0,6.56,0,13.16,0,19.72,0,1.16.13,2.38-.54,3.43-.94,1.66-.67,3.45-1.37,5.14-1.94,2.46-.79,5.16-.75,7.72-.78,7.36.2,12.64-2.22,18.86-5.78,2.14-1.22,4.57-2.06,6.86-2.95,2.72-1.1,5.61-2.2,8.57-2.27,5.94-.19,10.74,3.89,15.43,6.98,1.79,1.29,3.98,2.06,6,2.87,1.83.95,3.58,2.36,5.14,3.69,1.34,1.6,3.31,1.03,5.14,1.12,2.25,0,4.61,0,6.86,0,7.13,0,14.3,0,21.43,0,7.13,0,14.3,0,21.43,0,1.25-.05,2.37-1.15,3.43-1.72,1.93-1.22,3.98-2.52,6-3.58"/><path class="b" d="M9.83,170.32c1.1.41,2.25,1.24,3.43,1.39,1.96,0,4.04,0,6,0,4.56,0,9.16,0,13.72,0,5.13,0,10.3,0,15.43,0,4.86.03,9.81.03,14.58-1.02,6.74-1.44,12.3-5.92,18.86-7.85,4.41-1.78,8.83-4.23,13.72-4.18,4.22-.02,8.18,1.8,12,3.39,1.91.88,4.19,1.16,6,2.26,1.86,1.14,3.6,2.77,5.14,4.3,1.3,1.04,2.38,3.34,4.29,3.1,11.42,0,22.87,0,34.29,0,5.42,0,10.87,0,16.29,0,2.92-1.14,5.68-2.88,8.57-4.09"/><path class="b" d="M9.83,163.99c1.42.84,2.93,1.88,4.29,2.81,1.04.41,2.34.21,3.43.25,1.67,0,3.47,0,5.14,0,6.28,0,12.59,0,18.86,0,7.99,0,16.01,0,24.01,0,1.8.22,3.53-.56,5.14-1.26,1.96-.82,4.01-1.76,6-2.51,2.49-.96,5.27-1.3,7.72-2.42,5.46-2.35,11.05-5.14,17.15-4.95,3.45.05,6.91.78,10.29,1.42,3.08.97,5.5,3.44,7.72,5.68,4.69,5,2.54,3.95,9.43,4.04,10.28,0,20.58,0,30.86,0,4.84,0,9.73,0,14.58,0,2.56-.63,5.16-1.51,7.72-2.2"/><path class="b" d="M9.83,156.78c2.33,1.75,4.55,3.84,6.86,5.61,15.71.02,31.44,0,47.15,0,1.67,0,3.47,0,5.14,0,1.11.07,2.4-.05,3.43-.5,1.93-.64,4-1.28,6-1.66,1.67-.27,3.51-.39,5.14-.85,4.93-1.29,9.62-3.49,14.58-4.7,4.71-1.14,9.78-1.68,14.58-.76,4.49,1.5,7.84,5.25,11.15,8.46,19.43.02,38.87,0,58.3,0"/><path class="b" d="M9.83,149.02c2.32,2.06,4.52,4.46,6.86,6.51,1.24.95,2.57,2.46,4.29,2.22,8.28,0,16.58,0,24.86,0,7.99,0,16.01,0,24.01,0,2.31.04,4.57-1.02,6.86-1.25,2.52-.41,5.18-.18,7.72-.45,9.18-.77,18.17-3.71,27.44-3.5,4.17.36,7.82,2.84,11.15,5.2h59.16"/><path class="b" d="M9.83,141.45c3.82,3.82,7.34,8.1,12,10.95,1.41,1.15,3.47.56,5.14.7,12.28,0,24.58,0,36.87,0,1.96,0,4.04,0,6,0,2.54-.5,5.11-1.38,7.72-1.55,5.14-.27,10.31.77,15.43,1.08,5.98.52,12.02.39,18,.08,1.68-.11,3.49.15,5.14.39,7.13,0,14.3,0,21.43,0,14.86,0,29.73,0,44.58,0"/><path class="b" d="M9.83,134.51c2.3,2.18,4.5,4.66,6.86,6.77,1.84,1.58,3.97,3.02,6,4.35,1.35.86,2.87,1.75,4.29,2.48.75.4,1.76.32,2.57.32,10.57,0,21.16,0,31.72,0,3.69,0,7.45,0,11.15,0,2.52-.57,5.1-1.38,7.72-1.34,2.87.02,5.79.57,8.57,1.26,1.66.17,3.48.05,5.14.08,29.43,0,58.87,0,88.31,0"/><path class="b" d="M9.83,128.44c3.51,2.95,7.01,6.04,11.15,8.1,4.49,2.51,8.98,5.21,13.72,7.24,11.42,0,22.87,0,34.29,0,4.56,0,9.17.08,13.72-.17,8.27.38,16.59.07,24.86.17,18.86,0,37.73,0,56.59,0,1.1.08,2.4-.07,3.43-.49,1.35-.41,2.9-.81,4.29-1.09,3.36-.72,6.87-.83,10.29-1.07"/><path class="b" d="M9.83,123.79c2.23,1.24,4.51,2.64,6.86,3.64,2.26.85,4.67,1.59,6.86,2.61,4.48,1.99,8.7,4.64,12.86,7.22,3.27,2.11,3.07,1.91,6.86,1.87,2.83,0,5.74,0,8.57,0,8.28,0,16.58,0,24.86,0,13.43,0,26.87,0,40.3,0,15.43,0,30.87,0,46.3,0,2.88-1.38,5.63-3.26,8.57-4.53,3.26-1.47,6.77-2.53,10.29-3.17"/><path class="b" d="M9.83,120.54c1.95.49,4.01,1,6,1.31,1.67.26,3.48.27,5.14.57,5.77.94,10.81,4.22,15.43,7.63,1.38,1,2.89,2.14,4.29,3.12.76.48,1.63,1.31,2.57,1.31,5.13,0,10.3,0,15.43,0,20.29,0,40.59,0,60.87,0,9.42,0,18.87,0,28.29,0,3.12,0,6.31,0,9.43,0,1.07,0,2.36,0,3.43,0,.78,0,1.87.09,2.57-.35,5.93-4.35,11.63-9.52,18.86-11.57"/><path class="b" d="M9.83,118.03c9.17-.26,13.6-3.05,22.29,2.31,3,1.83,5.79,4.13,8.57,6.25,1.6,1.13,3.27,2.59,5.14,3.23,2.25,0,4.61,0,6.86,0,21.43,0,42.87,0,64.3,0,9.99,0,20.01,0,30.01,0,3.41,0,6.88,0,10.29,0,1.07,0,2.36,0,3.43,0,.78,0,1.86.08,2.57-.31,6.2-4.68,11.41-11.11,18.86-13.88"/><path class="b" d="M9.83,115.05c3.72-.71,7.41-1.87,11.15-2.46,7.92-1.23,14.55,4.07,20.58,8.41,1.85,1.27,3.86,2.58,6,3.29.76.24,1.8.39,2.57.56.45.17,1.24.33,1.71.31,5.13,0,10.3,0,15.43,0,7.13,0,14.3,0,21.43,0,1.11.1,2.35-.42,3.43-.63,1.65-.34,3.47-.47,5.14-.37,2.29.04,4.59.85,6.86,1,6.28,0,12.59,0,18.86,0,13.43,0,26.87,0,40.3,0,6.62-4.07,11.51-10.85,18.86-13.77"/><path class="b" d="M9.83,111.92c13.69-3.08,16.93-3.48,29.15,4.18,8.48,5.27,8.53,4.38,18,4.41,8.28,0,16.58,0,24.86,0,1.46-.09,2.88-1.06,4.29-1.43,1.91-.65,3.99-1.12,6-1.27,3.45-.29,6.94.36,10.29,1.13,3.35.81,6.87,1.43,10.29.7,3.96-.54,8.03-.65,12-.26,3.14.2,6.29,1.06,9.43,1.14,9.71,0,19.44,0,29.15,0,.83.14,1.85-.38,2.57-.75,1.1-.55,2.39-1.29,3.43-1.95,4.29-2.67,8.18-6.17,12.86-8.19"/><path class="b" d="M9.83,108.78c12.82-1.09,15.09-.54,26.58,5.13,1.37.65,2.87,1.41,4.29,1.94,1.08,0,2.35,0,3.43,0,7.42,0,14.87,0,22.29,0,2.25,0,4.61,0,6.86,0,1.49.13,2.93-.85,4.29-1.33,1.91-.8,3.97-1.57,6-2.02,3.35-.76,6.9-.75,10.29-.27,5.12.65,10.22,2.48,15.43,1.93,1.97-.29,4-.95,6-1.08,7.27-.78,14.27,2.01,21.43,2.67,3.74.42,7.41-.99,11.15-.85,7.99.1,16.36,1.98,24.01-1.23,3.55-1.45,6.8-3.68,10.29-5.27"/><path class="b" d="M9.83,105.48c2.28.19,4.61.69,6.86,1.06,2.01.23,4.11.61,6,1.33,2.61.94,5.19,2.2,7.72,3.33,1.67,0,3.47,0,5.14,0,8.28,0,16.58,0,24.86,0,2.54-.01,5.17.02,7.72-.02,3.12-1.08,6.27-2.32,9.43-3.3,9.14-3.51,18.19,2.61,27.44,2.08,4.19-.03,7.81-2.52,12-2.45,7.59-.2,14.67,4.19,22.29,3.33,2.64-.36,5.14-1.63,7.72-2.25,3.88-1.09,8.02-1.33,12-.7,10.99,1.94,12.31,3.72,23.15-1.54"/><path class="b" d="M9.83,102.21c2.01.55,4.05,1.42,6,2.14,1.97.7,4.13,1.21,6,2.16,7.13.08,14.3,0,21.43.03,7.13,0,14.3,0,21.43,0,5.59-1.57,11.32-3.2,17.15-3.52,4.46.2,8.58,2.32,12.86,3.38,3.38.36,6.89.04,10.29.14,2.42-.02,4.7-1.46,6.86-2.42,1.58-.7,3.42-1.11,5.14-1.19,7.02-.28,13.54,3.79,20.58,3.2,5.36-.49,9.48-4.63,14.58-6.02,8.26-2.56,13.29,2.82,20.58,4.54,3.2.51,6.45-.51,9.43-1.58"/><path class="b" d="M9.83,99.52c1.73.65,3.45,1.66,5.14,2.37,3.41,0,6.88,0,10.29,0,7.42,0,14.87,0,22.29,0,4.56,0,9.16,0,13.72,0,2.26-.15,4.59-.65,6.86-.73,3.12-.2,6.31-.13,9.43-.21,1.67-.03,3.48-.3,5.14,0,1.41.15,2.87.94,4.29.93,5.13,0,10.3,0,15.43,0,2.25,0,4.61,0,6.86,0,1.92-.96,3.85-2.23,6-2.64,3.09-.69,6.36-.31,9.43.28,11.71,2.41,14.17,2.63,24.01-4.52,9.94-6.63,14.53-1.06,23.15,3.75,3.17,1.59,6.94,1.31,10.29.47"/><path class="b" d="M9.83,97.23c12.57,0,25.16,0,37.72,0,1.38,0,2.91,0,4.29,0,2.51-.51,5.15-.86,7.72-.84,3.16-.12,6.3.81,9.43.84,10.57,0,21.16,0,31.72,0,3.41,0,6.88,0,10.29,0,1.63-.75,3.38-1.6,5.14-1.98,3.06-.74,6.31-.69,9.43-.48,9.58.79,14.18.89,22.29-4.94,10.56-7.08,15.15-1.38,24.01,4.36,3.07,1.81,6.81,2.15,10.29,1.79"/><path class="b" d="M9.83,92.57c8.28,0,16.58,0,24.86,0,3.41,0,6.88,0,10.29,0,1.9-.93,3.89-1.98,6-2.33,3.08-.67,6.36-.61,9.43.08,2.01.44,4.08,1.15,6,1.9,1,.55,2.34.3,3.43.35,7.42,0,14.87,0,22.29,0,6.56,0,13.16,0,19.72,0,1.13.12,2.37-.45,3.43-.76,1.35-.4,2.9-.76,4.29-1.01,4.23-.76,8.58-.89,12.86-1.2,3.74-.29,7.59-.68,11.15-1.95,5.17-2.13,10.46-5.63,16.29-4.18,4.43.99,8.1,3.93,12,6.08,3.17,1.57,6.71,2.99,10.29,3.01"/><path class="b" d="M9.83,87.92c8.28,0,16.58,0,24.86,0,2.83-.05,5.75.12,8.57-.08,2.1-1.39,4.4-2.75,6.86-3.36,3.34-.91,6.95-.86,10.29.05,2.65.71,5.25,1.88,7.72,3.08,1.57.63,3.48.19,5.14.31,3.12,0,6.31,0,9.43,0,7.13,0,14.3,0,21.43,0,2.54,0,5.17,0,7.72,0,.76,0,1.81,0,2.57,0,1.08-.23,2.36-.57,3.43-.82,7.84-1.99,15.9-3.3,24.01-3.33,4.36-.05,8.54-1.73,12.86-2.13,3.45-.38,7.02.08,10.29,1.21,4.08,1.43,7.98,3.49,12,5.07,1.67,0,3.48,0,5.14,0"/><path class="b" d="M9.83,83.26c10.28,0,20.58,0,30.87,0,.78,0,1.81.04,2.57-.12,1.34-.74,2.87-1.53,4.29-2.11,2.71-1.07,5.66-1.8,8.57-1.96,3.81-.21,7.62.75,11.15,2.13,1.69.62,3.43,1.51,5.14,2.06,1.08,0,2.35,0,3.43,0,12.28-.02,24.59.05,36.87-.03,8.93-.8,17.46-5.4,26.58-4.06,2.84.44,5.68,1.31,8.57,1.41,4.84.32,9.75.02,14.58.51,3.49.27,6.94,1.19,10.29,2.17,3.12,0,6.31,0,9.43,0"/><path class="b" d="M9.83,78.61c11.42,0,22.87,0,34.29,0,1.15.02,2.35-.67,3.43-.99,1.66-.57,3.46-1.17,5.14-1.69,4.68-1.51,9.73-2.1,14.58-1.09,3.18.6,6.31,1.72,9.43,2.59,5.88,1.87,12.06.49,18-.32,3.67-.5,7.45-.76,11.15-.46,2.28.13,4.6.69,6.86.97,6.19.4,11.97-2.57,18-3.45,8.67-1.5,12.06,2.45,19.72,4.44,10.57,0,21.16,0,31.72,0"/><path class="b" d="M9.83,73.95c12-.04,24.02.08,36.01-.04,6.34-1.59,12.23-5.1,18.86-5.42,3.16-.19,6.38.31,9.43,1.09,2.82.67,5.66,1.7,8.57,1.89,3.72.21,7.46-.54,11.15-.97,3.96-.5,8.06-.58,12,.11,2.3.34,4.59,1.15,6.86,1.61,6.79.9,13.05-3.01,19.72-3.54,3.54-.37,7.21.38,10.29,2.17,1.37.74,2.9,1.58,4.29,2.3.71.38,1.73.95,2.57.8,10.85,0,21.73,0,32.58,0"/><path class="b" d="M9.83,69.3c5.7,0,11.44,0,17.15,0,5.43.07,10.92-.04,16.29-.89,7.41-.95,13.91-5.53,21.43-5.91,3.47-.22,6.98.47,10.29,1.45,2.53.71,5.09,1.72,7.72,2.04,5.71.62,11.43-.76,17.15-.66,4.36-.08,8.64.94,12.86,1.89,6.83.73,13.06-3.23,19.72-4,6.07-.94,10.28,1.53,15.43,4.23,1.35.62,2.81,1.55,4.29,1.84,1.37,0,2.92,0,4.29,0,8.56,0,17.16,0,25.72,0"/><path class="b" d="M9.83,64.64c1.96,0,4.04,0,6,0,1.13-.16,2.34-.76,3.43-1.07,1.35-.4,2.89-.68,4.29-.83,5.12-.51,10.3.18,15.43.01,3.76-.1,7.59-.69,11.15-1.93,9.27-3.56,15.01-5.62,24.86-2.19,10.83,4.24,16.47,2.35,27.44,2.23,1.97,0,4.05.09,6,.31,1.67.17,3.46.61,5.14.62,6.48-.03,12.48-3.13,18.86-3.89,7.16-1.16,12.55,1.9,18.86,4.62,2.73,1.09,5.56,2.44,8.57,2.12,7.42,0,14.87,0,22.29,0"/><path class="b" d="M9.83,57.65c2.83-.66,5.72-1.48,8.57-2.03,6.01-.99,12.01.99,18,1.28,4.31.3,8.72-.19,12.86-1.43,11.33-3.95,15.69-5.61,27.44-1.14,9.17,3.55,17.88,3.04,27.44,2.04,3.69-.45,7.46.05,11.15-.28,4.9-.51,9.7-1.91,14.58-2.59,12.39-1.82,16.48,1.72,27.44,4.86,4.45,1.21,9.13,1.46,13.72,1.44,3.7.1,7.46-.02,11.15-.28"/><path class="b" d="M9.83,49.11c11.29-2.64,13.59-.14,24.01,1.95,3.95.73,8.07.69,12-.09,7.13-1.32,13.99-5.22,21.43-3.93,3.83.53,7.48,2.05,11.15,3.22,4.2,1.18,8.51,2.29,12.86,2.65,5.48.49,10.92-.71,16.29-1.61,2.52-.42,5.18-.42,7.72-.69,3.98-.39,8.01-.91,12-1.17,5.69-.32,11.48-.41,17.15.24,5.22.95,10.19,3.13,15.43,4,7.45,1.52,14.87-.42,22.29-.98"/><path class="b" d="M9.83,41.12c3.36-.64,6.93-1.05,10.29-.2,3.52.89,6.87,2.51,10.29,3.7,3.55,1.27,7.36,2.07,11.15,1.94,3.46-.13,6.96-.81,10.29-1.73,4.17-1.23,8.46-2.58,12.86-2.4,4.43.1,8.66,1.71,12.86,2.96,5.92,1.32,11.87,3.31,18,3.1,4.67-.13,9.17-1.66,13.72-2.56,5.08-.82,10.3-.9,15.43-.69,4.28.19,8.59.66,12.86.87,2.25.16,4.61-.05,6.86.15,4.39.51,8.58,2.2,12.86,3.2,4.18,1.03,8.6,1.38,12.86.68,4-.64,7.92-2.15,12-2.22"/><path class="b" d="M9.83,33.23c4.87-1.01,9.32-.54,13.72,1.84,9.79,5.2,15.96,8.72,27.44,6.18,6.28-1.66,12.28-3.67,18.86-2.36,4.3.82,8.5,2.05,12.86,2.58,4.77.98,9.68,2.01,14.58,1.4,4.07-.42,8-1.8,12-2.56,2.8-.49,5.74-.5,8.57-.33,6.36.4,12.56,2.14,18.86,2.97,2.53.41,5.18.21,7.72.47,2.63.37,5.23,1.29,7.72,2.17,1.57.7,3.47.37,5.14.44,2.83,0,5.74,0,8.57,0,3.98,0,8.02,0,12,0,1.38-.12,2.9-.55,4.29-.6"/><path class="b" d="M9.83,25.22c5.95-1.71,10.26-.68,15.43,2.47,7.57,4.6,15.54,10.23,24.86,9.14,5.16-.64,10.18-2.55,15.43-2.55,5.2-.17,10.27,1.48,15.43,1.76,4.54.42,9.16,1.06,13.72.51,6.88-.67,13.58-3.98,20.58-2.48,8.27,1.36,15.78,5.57,24.01,7.12,1.94.34,4.04.1,6,.17,3.12,0,6.31,0,9.43,0,9.14,0,18.3,0,27.44,0"/><path class="b" d="M9.83,18.41c6.08-2.55,10.68-1.77,16.29,1.4,8.64,4.66,16.85,13.01,27.44,11.54,4.26-.51,8.55-1.43,12.86-1.42,4.3-.07,8.59.8,12.86,1.1,3.99.18,8.07.08,12-.65,6.57-.99,12.96-4.59,19.72-3.61,7.78,1.64,14.39,6.44,21.43,9.87,16.56.2,33.16,0,49.73.07"/><path class="b" d="M9.83,13.69c9.31-4.83,16.87-1.49,24.86,4.01,13.82,9.67,13.36,9.67,30.01,8.09,17.15-.48,15.62,3.34,33.44-4.49,3.75-1.49,7.96-2.95,12-1.82,7.61,2.75,13.78,8.35,20.58,12.57h51.44"/><path class="b" d="M9.83,11.13c12.2-5.8,19.73-3.85,30.01,4.28,3.88,2.88,7.87,6.34,12.86,6.88,6.28.64,12.57-.97,18.86-.82,9.71.1,11.52,1.43,20.58-3.76,5.83-3.23,13.18-8.45,19.72-4.04,4.51,2.75,8.64,6.16,12.86,9.32,1.36,1.03,2.9,2.16,4.29,3.15.41.3,1.3.9,1.71,1.19.41.06,1.3.11,1.71.09,16.57,0,33.16,0,49.73,0"/></svg>