<?xml version="1.0" encoding="UTF-8"?><svg id="a" xmlns="http://www.w3.org/2000/svg" width="1920" height="2400" viewBox="0 0 192 240"><defs><style>.b{fill:none;stroke:#fff;stroke-miterlimit:10;stroke-width:.3px;}.c{stroke-width:0px;}</style></defs><rect class="c" x="0" width="192" height="240"/><path class="b" d="M8.51,227.88c5.77.75,11.62.44,17.41.78,4.94.21,9.84,1.69,14.8,1.27,3.97-.28,7.69-1.93,11.32-3.43,3.12-1.21,6.47-2.01,9.58-3.27,3.37-1.33,6.6-3.21,9.58-5.26,2.54-1.77,5.06-3.78,7.84-5.18,3.18-1.77,6.91-1.82,10.45-1.7,1.4.03,2.96-.18,4.35-.24,1.99-.05,4.1.06,6.09.03,6.27.03,12.2-2.37,18.28-3.5,4.8-.8,9.03,2.04,13.06,4.18,2.16,1.04,4.59,1.74,6.96,2.01,3.74.45,7.57-.1,11.32-.05,1.41.04,2.95.45,4.35.62,1.98.25,4.11.27,6.09.11,2.87-.21,5.81-.78,8.71-.72,1.74.02,3.5.81,5.22.92,3.17.24,6.48-.31,9.58.6"/><path class="b" d="M8.51,224.64c2.89-.07,5.83.39,8.71.47,3.75.16,7.57.11,11.32.28,2.3.07,4.67.45,6.96.55,2.6.1,5.29-.12,7.84-.63,3.25-.61,6.41-1.82,9.58-2.74,3.22-.85,6.57-1.64,9.58-3.12,5.55-2.65,10.13-7.03,15.67-9.69,1.61-.75,3.45-1.34,5.22-1.54,2.57-.25,5.27,0,7.84-.33,8.39-1.43,16.89-2.42,25.25-4.03,7.57-1.65,12.47,3.25,19.15,5.43,4.22,1.49,8.8.96,13.06-.05,2.25-.52,4.7-.34,6.96-.8,4-.71,8.15-1.61,12.19-.71,2.4.45,4.58,1.92,6.96,2.42,2.84.68,5.88.77,8.71,1.56"/><path class="b" d="M8.51,221.43c4.04-.44,8.13.49,12.19.24,3.17-.06,6.4-.38,9.58-.41,2.58.05,5.26.27,7.84-.01,4.69-.39,9.34-1.45,13.93-2.46,3.84-.72,7.84-1.27,11.32-3.18,6.3-3.37,11.77-8.98,19.15-9.85,2.87-.29,5.86.08,8.71-.52,6.01-1.61,12.03-3.54,18.28-3.95,11.19-.93,11.71-2.84,22.64,2.8,6.47,3.4,10.62,3.67,17.41.85,1.66-.58,3.56-.85,5.22-1.44,3.33-1.1,6.95-2.23,10.45-1.22,3.2.78,5.88,2.93,8.71,4.49,3.02,1.65,6.4,2.69,9.58,3.97"/><path class="b" d="M8.51,218.8c3.15-.62,6.41.03,9.58-.26,3.79-.23,7.56-1.13,11.32-1.6,3.16-.31,6.43-.08,9.58-.63,5.81-.73,11.57-2.07,17.41-2.55,7.22-.41,12.11-4.94,18.28-7.94,2.44-1.16,5.13-2.04,7.84-2.27,2.28-.17,4.69.05,6.96-.29,4.18-.7,8.06-2.77,12.19-3.7,3.96-1.1,8.14-1.07,12.19-1.54,5.05-.97,9.1-1.36,13.93.87,4.56,1.84,8.79,5.33,13.93,5.14,2.75-.1,5.38-1.3,7.84-2.44,1.95-.81,4.14-1.36,6.09-2.17,7.07-2.96,11.12-.23,16.54,4.27,3.53,2.84,7.42,5.3,11.32,7.6"/><path class="b" d="M8.51,216.89c3.13-.68,6.43-.22,9.58-.81,3.84-.6,7.54-2.03,11.32-2.91,2.26-.54,4.69-.46,6.96-.88,4.64-.8,9.28-1.87,13.93-2.57,4.3-.81,8.81-.23,13.06-1.41,5.1-1.42,9.73-4.24,14.8-5.74,3.64-1.28,7.58-1.03,11.32-1.72,4.7-1.07,9.16-3.22,13.93-4.06,3.13-.66,6.41-.84,9.58-1.26,2.56-.4,5.23-.97,7.84-.79,8.59.54,15.41,9.7,24.38,6.78,1.75-.51,3.53-1.37,5.22-2.02,1.08-.36,2.42-.69,3.48-1.1,2.5-.91,5.13-2,7.84-1.97,4.54.11,8.05,3.55,11.32,6.3,3.37,2.88,6.94,5.66,10.45,8.37"/><path class="b" d="M8.51,214.83c2.84-.66,5.84-.46,8.71-.94,3.29-.52,6.49-1.71,9.58-2.91,3.04-1.35,6.37-1.81,9.58-2.57,5.69-1.58,11.52-2.84,17.41-3.28,3.17-.17,6.43-.11,9.58-.55,5.91-.84,11.69-2.48,17.41-4.14,2.25-.64,4.69-.93,6.96-1.47,3.5-.84,6.98-2,10.45-2.96,5.69-1.6,11.58-2.53,17.41-3.39,11.03-1.91,19.38,10.44,30.47,7.4,2.58-.74,5.24-1.53,7.84-2.22,2.83-.93,5.69-2.26,8.71-2.36,4.49-.16,8.06,3.06,11.32,5.73,3.24,2.6,6.53,5.3,9.58,8.12"/><path class="b" d="M8.51,212.13c4.3-.87,8.84-.42,13.06-1.77,2.98-.84,5.84-2.26,8.71-3.39,2.25-.84,4.7-1.41,6.96-2.21,5.58-2.03,11.55-2.37,17.41-2.86,4.33-.36,8.72-.81,13.06-1.06,2.88-.16,5.86.04,8.71-.54,4.97-1.04,9.93-2.35,14.8-3.75,5.25-1.18,10.48-2.65,15.67-4.07,4.51-1.18,9.27-2.51,13.93-1.48,7.93,2.09,14.97,7.93,23.51,7.53,2.02-.07,4.12-.53,6.09-.96,1.72-.27,3.57-.66,5.22-1.19,4.17-1.38,8.85-2.88,13.06-.8,1.84.83,3.55,2.21,5.22,3.31,3.38,2.25,6.71,4.77,9.58,7.66"/><path class="b" d="M8.51,208.8c4.01-.77,8.18-.27,12.19-.98,4.61-.76,8.66-3.34,13.06-4.77,4.7-1.9,9.7-3.16,14.8-3.01,5.89.26,11.56-1.86,17.41-2.08,3.2-.21,6.39.7,9.58.73,3.21.01,6.43-.71,9.58-1.28,2.01-.4,4.08-1.06,6.09-1.47,3.52-.52,7.08-1.3,10.45-2.47,6.4-2.27,13.1-5.36,20.02-3.66,6.12,1.7,11.95,4.61,18.28,5.59,5.51.96,11.1-.31,16.54-1.19,4.3-.85,8.98-1.43,13.06.57,4.85,2.67,10.06,5.07,13.93,9.14"/><path class="b" d="M8.51,205.38c4.03-.64,8.16-.07,12.19-.56,3.36-.43,6.53-1.86,9.58-3.26,3.08-1.31,6.3-2.57,9.58-3.3,3.71-.84,7.56-.33,11.32-.23,2.34.05,4.72-.53,6.96-1.13,3.93-1.09,8.11-1.99,12.19-1.22,2.85.59,5.78,1.23,8.71,1.2,3.78.01,7.61-.35,11.32-1.08,2.91-.35,5.92-.69,8.71-1.64,3.56-1.11,6.95-2.86,10.45-4.13,2.77-.95,5.79-1.41,8.71-1.56,4.14-.23,8.2,1.03,12.19,1.99,4.53,1.16,9.23,2.11,13.93,1.92,2.9-.05,5.82-.71,8.71-.94,3.47-.23,7.06.02,10.45.85,3.41.81,6.52,2.63,9.58,4.26,3.78,1.69,7.56,3.69,10.45,6.72"/><path class="b" d="M8.51,202.39c4.62-.51,9.38-.03,13.93-1.07,4.51-1.07,8.6-3.49,13.06-4.73,4.85-1.71,9.81-1.25,14.8-.66,5.36.51,10.38-2.19,15.67-2.47,4.41-.35,8.67,1.43,13.06,1.5,3.75.18,7.58.17,11.32-.29,3.85-.14,7.73-.81,11.32-2.28,2.88-1.09,5.73-2.52,8.71-3.37,3.13-.68,6.39-1.23,9.58-1.53,4.99-.41,9.94.84,14.8,1.73,3.14.51,6.43.53,9.58.05,2.6-.35,5.22-1.17,7.84-1.45,6.58-.32,12.14,4.11,17.41,7.47,4.6,2.91,10,4.53,13.93,8.47"/><path class="b" d="M8.51,199.62c5.24-.36,10.59-.76,15.67-2.14,5.19-1.49,10.24-3.84,15.67-4.3,4.07-.41,8.14.65,12.19.8,3.83,0,7.56-1.28,11.32-1.85,1.98-.31,4.1-.46,6.09-.3,1.71.13,3.52.55,5.22.71,2.58.24,5.25.16,7.84.09,2.58-.01,5.26-.11,7.84-.26,2.3-.02,4.71-.03,6.96-.55,4.78-.92,9.13-3.5,13.93-4.29,5.21-.46,10.4-2.04,15.67-1.39,2.63.16,5.26.93,7.84,1.4,3.16.57,6.49.38,9.58-.47,5.29-1.47,8.56-3.7,13.93-.5,4.4,2.47,7.94,6.3,12.19,8.99,4.4,2.34,9.17,4.22,13.06,7.42"/><path class="b" d="M8.51,196.6c2.63,0,5.26-.67,7.84-1.12,3.17-.57,6.42-1.15,9.58-1.82,4.9-.95,9.77-2.58,14.8-2.72,3.78-.15,7.56.64,11.32.82,3.5.04,7-.75,10.45-1.23,2.56-.37,5.25-.58,7.84-.38,2.87.37,5.84.4,8.71-.03,3.44-.49,6.97-.73,10.45-.81,2.88.03,5.86.28,8.71-.36,3.54-.67,6.94-2.1,10.45-2.89,1.67-.42,3.52-.33,5.22-.43,2.6-.23,5.24-.82,7.84-1.05,2.58-.23,5.28-.1,7.84.33,6.39,1.56,10,2.94,16.54.21,2.22-.84,4.53-2.07,6.96-2,5.87.51,10.13,5.34,14.8,8.43,2.07,1.55,4.66,2.39,6.96,3.5,2.99,1.43,5.92,3.19,8.71,4.98"/><path class="b" d="M8.51,192.98c2.96.03,5.82-1.1,8.71-1.62,3.71-.75,7.55-.98,11.32-1.25,3.2-.19,6.39-.96,9.58-1.28,3.16-.31,6.42-.25,9.58.01,8.43,1.22,16.8-1.52,25.25-.71,4.41-.03,8.65-1.8,13.06-1.98,4.34-.47,8.76.68,13.06-.31,3.2-.58,6.36-1.72,9.58-2.22,2.28-.39,4.68.16,6.96-.15,8.4-1.16,11.84-1.33,20.02,1.39,3.77,1.11,7.8.38,11.32-1.24,1.91-.81,3.98-1.74,6.09-1.68,5.1.13,9.47,3.28,13.93,5.41,2.16,1.19,4.69,1.7,6.96,2.6,3.33,1.42,6.41,3.5,9.58,5.24"/><path class="b" d="M8.51,188.52c2.05.01,4.13-.57,6.09-1.09,1.96-.46,4.08-.75,6.09-.83,3.17-.14,6.41.23,9.58.21,2.01-.01,4.1-.4,6.09-.62,3.44-.42,6.98-.51,10.45-.38,2.58.15,5.24.5,7.84.41,4.06-.1,8.14-.74,12.19-.98,2.87-.25,5.85.21,8.71-.24,4.02-.7,8.07-1.78,12.19-1.64,2-.03,4.1.31,6.09.44,2.01.08,4.13-.17,6.09-.58,3.17-.64,6.33-1.79,9.58-2.01,1.41-.11,2.95.25,4.35.26,2.31,0,4.68-.43,6.96-.71,3.15-.39,6.45-.48,9.58.13,3.17.7,6.28,2.15,9.58,2.18,5.8.14,9.66-3.96,15.67-2.71,4.47.7,8.66,2.71,13.06,3.73,1.68.42,3.59.5,5.22,1.1,3.36,1.21,6.39,3.29,9.58,4.86"/><path class="b" d="M8.51,183.76c3.51.02,6.93-1.25,10.45-1.23,4.36-.18,8.71.88,13.06.92,4.92-.18,9.88-.56,14.8-.69,3.46.01,6.98.4,10.45.19,3.46-.15,6.98-.5,10.45-.57,3.47,0,7,.25,10.45-.31,3.44-.47,6.99-.58,10.45-.28,1.7.1,3.52.43,5.22.45,1.72,0,3.57-.33,5.22-.79,3.75-.98,7.38-2.89,11.32-2.97,1.4.04,2.94.4,4.35.36,4.94-.1,9.85-1.35,14.8-1.16,4.11.2,8.05,1.94,12.19,1.98,3.79.18,7.53-1.16,11.32-.9,6.4.35,12.74,1.68,19.15,1.98,4.18.8,7.6,3.69,11.32,5.58"/><path class="b" d="M8.51,179.16c4.35.18,8.71-.81,13.06-.54,5.52.23,11,1.5,16.54,1.49,4.66.21,9.27-1.06,13.93-.83,4.62.22,9.3.08,13.93.26,4.63.26,9.29.57,13.93.25,3.17-.13,6.42.11,9.58.36,2.29.22,4.72.4,6.96-.23,4.74-1.11,8.98-4.24,13.93-4.51,3.16.25,6.39.74,9.58.48,3.78-.11,7.55-.89,11.32-1.1,5-.09,9.9,1.37,14.8,2.13,4.3.71,8.69,1.38,13.06,1.26,2.88-.02,5.83-.16,8.71-.31,2.99-.25,6.08.18,8.71,1.7,2.31,1.19,4.61,2.66,6.96,3.76"/><path class="b" d="M8.51,174.87c6.09.84,12.19-.69,18.28-.29,5.53.27,10.95,2.6,16.54,1.7,2.58-.43,5.21-1.16,7.84-1.22,4.64.09,9.33.51,13.93,1.11,2.58.33,5.24.81,7.84,1.04,3.16.25,6.41.17,9.58.21,3.75.01,7.57.39,11.32.12,2.7-.34,5.33-1.38,7.84-2.4,8.81-3.85,9.52-2.23,18.28-1.33,3.49.34,7.04-.18,10.45-.95,6.32-1.47,11.63-.23,17.41,2.43,3.52,1.63,7.44,2.41,11.32,2.25,4.91.07,9.98-1.28,14.8.05,3.19.91,6.31,2.38,9.58,3.03"/><path class="b" d="M8.51,170.79c1.99.28,4.08.71,6.09.67,4.95-.17,9.81-2,14.8-1.5,2.96.25,5.78,1.55,8.71,2.01,3.87.85,7.56-.56,11.32-1.27,2.28-.41,4.68-.07,6.96.13,5.6.48,11.02,2.17,16.54,3.12,4.02.57,8.14.49,12.19.43,3.17-.12,6.43-.09,9.58-.54,3.83-.62,7.54-2.03,11.32-2.88,2.83-.67,5.86-.82,8.71-.14,11.25,2.85,11.28,1.29,21.76-.82,7.19-1.21,11.8,4.34,18.28,5.83,4.83,1.14,9.87,1.07,14.8,1.22,4.62.39,9.32,1.39,13.93.37"/><path class="b" d="M8.51,166.65c8.54,2.18,11.25-.59,19.15-1.26,5.06-.39,9.71,2.79,14.8,2.15,2.63-.26,5.21-1.29,7.84-1.57,3.76-.23,7.61.4,11.32,1.01,4.69.82,9.21,2.62,13.93,3.29,6.63.86,13.39.45,20.02-.1,5.5-.55,11-1.68,16.54-1.62,4.39.26,8.63,2.07,13.06,1.92,6.17-.07,12.09-4.12,18.28-2.3,2.45.7,4.74,2.1,6.96,3.3,1.91,1,4.05,1.83,6.09,2.5,5.32,1.76,10.95,2.53,16.54,2.58,3.68-.03,7.25-1.42,10.45-3.16"/><path class="b" d="M8.51,163.17c8.96,2.21,11.72-.45,20.02-1.05,3.53-.21,6.94,1.22,10.45,1.36,3.85.35,7.53-1.23,11.32-1.57,2-.14,4.1.22,6.09.26,4.07.17,8.22.43,12.19,1.43,3.16.83,6.31,2.02,9.58,2.37,4.89.67,9.88.48,14.8.48,4.64.13,9.29.85,13.93.89,2.29.08,4.68-.17,6.96-.11,2.59.14,5.25.57,7.84.73,6.18.69,12.18-1.57,18.28-1.94,3.73-.08,7.22,1.62,10.45,3.33,7.24,3.72,15.4,5.97,23.51,4.12,3.47-.93,6.6-2.93,9.58-4.87"/><path class="b" d="M8.51,160.32c2.29.3,4.65.91,6.96.94,4.38.08,8.71-1.13,13.06-1.45,3.47-.29,6.98.6,10.45.26,3.82-.18,7.5-1.68,11.32-1.82,2.29,0,4.66.44,6.96.29,3.75-.11,7.61-.48,11.32.26,2.95.6,5.72,2.12,8.71,2.6,4.86.97,9.88.95,14.8,1.37,3.53.36,6.96,1.58,10.45,2.17,3.13.57,6.42.62,9.58.18,5.77-.63,11.63-.26,17.41-.76,6.63-.27,12.01-1.05,18.28,1.95,5,2.25,10.07,5,15.67,5.16,3.54.03,7.15-.88,10.45-2.13,3.33-1.43,6.45-3.48,9.58-5.28"/><path class="b" d="M8.51,157.62c2.89.28,5.79,1.1,8.71,1.1,3.78.09,7.57-.62,11.32-1.05,2.87-.37,5.86-.04,8.71-.59,3.51-.54,6.94-1.76,10.45-2.28,2.89-.51,5.82.36,8.71.23,4.04-.11,8.17-.96,12.19-.2,3,.58,5.69,2.39,8.71,2.95,4.85,1.13,9.92,1.26,14.8,2.26,12.09,3.33,12.22,2.87,24.38.66,8.34-1.33,17.07-1.04,25.25,1.15,5.98,1.65,11.41,4.97,17.41,6.53,8.96,2.04,16.45-5.02,24.38-7.95"/><path class="b" d="M8.51,154.58c3.77.37,7.49,1.59,11.32,1.4,3.2-.04,6.42-.63,9.58-1.09,2.29-.35,4.72-.31,6.96-.94,7.14-2,10.59-3.92,18.28-2.73,5.2.26,10.64-1.04,15.67.77,1.44.52,2.91,1.4,4.35,1.9,5.91,2.08,12.35,2.18,18.28,4.22,6.77,2.33,10.97,1.16,17.41-1.22,3.69-1.01,7.5-1.99,11.32-2.35,4.66-.18,9.42.37,13.93,1.56,5.66,1.56,11.06,4,16.54,6.06,5.61,2.51,10.42,5.11,16.54,2.11,4.9-2.29,9.42-5.63,14.8-6.74"/><path class="b" d="M8.51,150.81c3.77.51,7.46,1.93,11.32,1.74,3.21-.03,6.43-.71,9.58-1.29,2.28-.43,4.73-.47,6.96-1.17,6.67-2.15,11.07-3.94,18.28-3.13,4.93.18,10.05-.25,14.8,1.33,2.05.67,4.02,1.88,6.09,2.5,5.72,1.75,11.82,2.27,17.41,4.49,8.97,3.16,13.58-3.37,21.76-4.85,2.54-.61,5.22-1.13,7.84-1.11,4.08.23,8.21.94,12.19,1.85,5.9,1.49,11.73,3.44,17.41,5.6,5.24,2.48,10.37,7.29,16.54,4.74,5.02-2.1,9.37-5.82,14.8-6.95"/><path class="b" d="M8.51,147.06c3.44.84,6.85,2.29,10.45,2.25,3.53.08,7.02-.82,10.45-1.53,1.98-.44,4.13-.44,6.09-.94,9.47-2.81,13.14-4.72,23.51-3.55,3.21.33,6.48.88,9.58,1.82,2.62.79,5.16,2.09,7.84,2.73,3.7.96,7.57,1.45,11.32,2.18,2.62.41,5.18,1.56,7.84,1.68,5.1.25,9.5-2.82,13.93-4.88,3.58-1.43,7.48-2.38,11.32-2.76,2.61-.2,5.28.4,7.84.89,3.16.67,6.39,1.39,9.58,1.93,4.08.73,8.28,1.3,12.19,2.74,6.67,2.19,11.19,11.85,19.15,8.78,4.79-2.2,8.84-5.97,13.93-7.59"/><path class="b" d="M8.51,143.27c8.94,3.6,11.7,3.25,20.89,1.14,2.27-.49,4.72-.37,6.96-.99,5.19-1.42,10.28-3.51,15.67-4.07,4.99-.36,9.97.87,14.8,1.96,4.65,1.11,9.21,2.8,13.93,3.62,2.85.54,5.82.83,8.71,1.12,2.57.33,5.26.76,7.84.22,5.71-1.08,10.9-4.02,16.54-5.36,3.63-1.13,7.49-2.33,11.32-1.57,2.93.44,5.82,1.41,8.71,2.05,2.55.54,5.24.78,7.84.98,9.52.67,11.01,2.25,17.41,8.86,4.6,4.53,8.48,5.51,13.93,1.47,3.31-2.25,6.69-4.62,10.45-6.1"/><path class="b" d="M8.51,139.07c8.33,3.55,11.27,3.55,20.02,1.61,2.55-.6,5.28-.32,7.84-.87,3.82-.83,7.53-2.31,11.32-3.25,5.97-2.06,12.24-.48,18.28.33,2.59.38,5.29.75,7.84,1.4,2.6.69,5.22,1.63,7.84,2.25,3.96.98,8.14,1.04,12.19.7,3.49-.42,6.98-1.28,10.45-1.81,2.59-.43,5.29-.74,7.84-1.39,2.62-.71,5.19-1.91,7.84-2.55,4.71-1.31,9.44.66,13.93,1.93,3.68.95,7.56.94,11.32,1.38,2.76.35,5.63,1.2,7.84,2.95,4.13,3.2,7.32,9.01,13.06,9.21,2.95-.13,5.44-2.12,7.84-3.65,2.97-1.98,6.18-3.78,9.58-4.92"/><path class="b" d="M8.51,134.67c8.92,3.29,10.66,3.37,20.02,1.65,2.56-.51,5.26-.11,7.84-.51,4.12-.68,8.13-2.11,12.19-3.08,5.38-1.53,11.04-.35,16.54-.59,9.92-.4,9.69,1.03,18.28,3.86,5.66,1.84,10.89-.32,16.54-.61,4.05-.29,8.17,1.01,12.19.27,2.67-.6,5.21-1.89,7.84-2.63,4.67-1.55,9.47.23,13.93,1.62,3.1.84,6.39,1.08,9.58,1.36,2.67.24,5.44.77,7.84,2.03,4.85,2.61,8.58,9.07,14.8,7.88,2.88-.7,5.28-2.73,7.84-4.13,2.93-1.7,6.24-2.86,9.58-3.48"/><path class="b" d="M8.51,130.1c2.05.33,4.09,1.14,6.09,1.64,4.3,1.06,8.77.34,13.06-.39,2.57-.53,5.24-.26,7.84-.35,2.32-.14,4.7-.64,6.96-1.14,2.87-.56,5.81-1.23,8.71-1.61,2.28-.21,4.68-.09,6.96-.16,4.07-.02,8.13-.84,12.19-1.06,3.41-.33,6.59,1.23,9.58,2.66,3.24,1.55,6.79,2.91,10.45,2.69,3.74-.39,7.54-1.31,11.32-.76,4.03.41,8.14,2.17,12.19.97,3.15-.82,6.28-2.19,9.58-2.3,5.07-.15,9.8,2.22,14.8,2.65,3.75.47,7.68.35,11.32,1.52,2.55.76,4.78,2.45,6.96,3.89,4.99,3.4,8.87,3.38,13.93.05,3.87-2.53,8.46-3.76,13.06-3.77"/><path class="b" d="M8.51,126.24c2.89.3,5.79,1.14,8.71,1.25,3.19.18,6.43-.25,9.58-.74,2.56-.47,5.24-.58,7.84-.64,2.01-.15,4.11-.52,6.09-.87,4.87-.9,9.85-1.32,14.8-1.28,3.49-.09,7-.64,10.45-1.16,10.32-1.99,13.46,3.12,22.64,4.62,3.44.42,7-.16,10.45.36,4.07.4,8.08,1.8,12.19,1.84,2.95-.06,5.83-1.14,8.71-1.66,2.26-.45,4.68-.46,6.96-.16,3.19.43,6.4,1.26,9.58,1.78,2.85.5,5.82.74,8.71,1,2.02.19,4.16.52,6.09,1.13,2.32.75,4.61,1.91,6.96,2.54,2.82.78,5.96.77,8.71-.28,6.44-2.83,9.22-4.06,16.54-3.13"/><path class="b" d="M8.51,122.94c4.91.33,9.9.46,14.8.02,3.76-.4,7.56-.99,11.32-1.4,2.58-.39,5.23-.98,7.84-1.22,4.33-.4,8.73.26,13.06.1,4.06-.22,8.12-1.11,12.19-1.3,6.22-.35,12.26,1.58,18.28,2.84,3.14.72,6.43.97,9.58,1.62,4.3.92,8.65,1.99,13.06,2.17,5.58.52,10.97-1.88,16.54-1.41,5.25.36,10.45,1.51,15.67,2.13,2.57.28,5.26.31,7.84.52,2.31.19,4.67.74,6.96,1.03,5.24.76,10.58.16,15.67-1.19,3.99-.9,8.16-.78,12.19-.21"/><path class="b" d="M8.51,119.8c2.31.12,4.67-.34,6.96-.53,3.46-.23,7-.18,10.45-.51,4.69-.32,9.27-1.71,13.93-2.24,5.58-.65,10.96,2.09,16.54,1.53,3.46-.26,6.97-.82,10.45-.71,2.89.03,5.81.69,8.71.68,4.63-.06,9.34-.52,13.93.39,2.98.49,5.84,1.71,8.71,2.6,4.77,1.67,9.87,1.03,14.8.77,3.46-.33,6.95-1.14,10.45-1.06,5.82.14,11.62,1.12,17.41,1.56,4.34.13,8.72-.36,13.06-.09,2.58,0,5.26-.09,7.84.02,2.58.15,5.25.44,7.84.43,4.63.1,9.29-.61,13.93-.51"/><path class="b" d="M8.51,116.34c1.74-.05,3.56-.43,5.22-.89,1.68-.37,3.51-.52,5.22-.56,3.17-.08,6.42.02,9.58-.35,2.63-.25,5.24-1.09,7.84-1.51,2.89-.49,5.95-.21,8.71.8,8.95,3.67,9.06,2.82,18.28,2.55,2,0,4.11.18,6.09.48,1.69.25,3.51.63,5.22.46,2.95-.29,5.81-1.42,8.71-1.96,2.86-.52,5.94-.51,8.71.44,8.96,3.61,9.68,3.64,19.15,2.18,3.77-.08,7.54-.93,11.32-.9,4.05.03,8.14.54,12.19.72,2.57.23,5.26.34,7.84.07,2.88-.28,5.8-.96,8.71-1.05,3.46-.08,7.02-.39,10.45.3,11.36,2.96,10.06,3.06,21.76.57"/><path class="b" d="M8.51,111.91c2.63-.41,5.18-1.57,7.84-1.82,3.45-.35,6.99.03,10.45-.05,4.38.11,8.68-1.83,13.06-1,7.08,1.38,10.21,6.31,18.28,5.91,2.88,0,5.84-.04,8.71.24,2.29.16,4.66.71,6.96.6,3.31-.31,6.39-1.91,9.58-2.73,2.81-.7,5.88-.94,8.71-.18,4.21,1.32,8.59,2.82,13.06,2.03,1.7-.23,3.52-.65,5.22-.86,1.39-.14,2.96-.09,4.35-.21,7.24-.83,14.51.16,21.77.24,4.4.16,8.72-1.04,13.06-1.54,4.06-.24,8.27-.13,12.19,1.02,10.94,3.91,10.45,4.04,21.76.64"/><path class="b" d="M8.51,106.92c7.14-3.07,9.95-2.7,17.41-1.71,1.69.19,3.52.32,5.22.23,1.99-.18,4.09-.5,6.09-.29,4.72.34,8.84,2.93,13.06,4.81,2.45,1.08,5.19,1.55,7.84,1.85,2.88.32,5.83.64,8.71,1,3.48.51,7.12.68,10.45-.65,3.12-1.11,6.27-2.44,9.58-2.84,4.34-.77,8.71.5,13.06.47,4.94.02,9.86-1.25,14.8-.6,10.45,1.07,20.92-.07,31.34-.89,4.38-.21,8.85.3,13.06,1.51,4.64,1.25,9.01,4,13.93,3.94,3.55-.17,7-1.45,10.45-2.21"/><path class="b" d="M8.51,102.19c7.79-4.36,12.76-2.55,20.89-1.25,2.28.32,4.69,0,6.96.38,3.9.57,7.64,2.07,11.32,3.44,4.77,1.81,9.86,2.68,14.8,3.87,10.56,2.75,12.21.12,21.76-2.47,3.71-.86,7.55-1.3,11.32-1.78,4.59-.67,9.28-1.32,13.93-.99,3.54.16,6.97,1.37,10.45,1.92,6.17.93,12.17-1.73,18.28-2.15,5.03-.58,9.97.87,14.8,2.05,6.96,1.64,13.56,5.77,20.89,5.21,3.2-.32,6.4-1.12,9.58-1.58"/><path class="b" d="M8.51,98.04c6.67-3.49,12.83-3.49,20.02-1.96,1.98.41,4.11.47,6.09.8,2.95.59,5.84,1.7,8.71,2.59,3.95,1.36,8.14,1.98,12.19,2.94,3.5.87,6.94,2.21,10.45,3.04,1.67.38,3.52.62,5.22.39,1.12-.18,2.4-.59,3.48-.9,3.15-.92,6.35-2.02,9.58-2.67,2.91-.53,5.88-1.21,8.71-2.1,2.28-.77,4.62-1.72,6.96-2.26,4.02-1.03,8.22-.3,12.19.61,2.35.56,4.63,1.71,6.96,2.33,5.41,1.65,10.49-1.8,15.67-2.83,4.1-1.13,8.47-.3,12.19,1.66,2.75,1.51,5.79,2.58,8.71,3.72,4.17,1.69,8.54,3.17,13.06,3.47,4.96.44,9.88-.9,14.8-1.33"/><path class="b" d="M8.51,94.21c8.83-2.98,14.23-4.15,23.51-2.44,4.01.45,7.55,2.71,11.32,3.99,3.89,1.55,8.15,1.74,12.19,2.68,4.39,1.05,8.54,3.25,13.06,3.77,2.38.32,4.71-.66,6.96-1.25,3.42-.93,6.95-1.69,10.45-2.28,2.37-.48,4.78-1.26,6.96-2.31,2.54-1.25,5.08-2.79,7.83-3.5,4.35-1.15,8.89.28,13.06,1.54,2.77,1.11,5.63,2.65,8.71,2.46,2.75-.21,5.31-1.58,7.84-2.58,3.29-1.2,6.97-2.26,10.45-1.26,3.58.99,6.47,3.58,9.58,5.47,7.23,3.73,12.57,5.8,20.89,5.01,4.08-.32,8.12-1.43,12.19-1.83"/><path class="b" d="M8.51,89.95c4.41-.58,8.68-2.06,13.06-2.79,3.15-.52,6.43-.41,9.58.08,4.52.4,8.18,3.42,12.19,5.25,3.52,1.79,7.46,2.48,11.32,3.07,2.62.52,5.27,1.32,7.84,2.08,2.79.8,5.77,1.66,8.71,1.34,2.87-.58,5.81-1.23,8.71-1.65,3.81-.63,7.79-1,11.32-2.7,2.95-1.36,5.66-3.4,8.71-4.57,4.46-1.85,9.42-.71,13.93.37,3.6,1.27,7.53,2.68,11.32,1.3,3.93-1.31,7.96-2.89,12.19-2.66,5.12.23,9.04,3.97,13.06,6.69,7.84,4.58,12.63,6.02,21.77,4.77,3.84-.65,7.51-2.22,11.32-3.02"/><path class="b" d="M8.51,84.94c4.39.14,8.72-.95,13.06-1.35,4.08-.35,8.27.24,12.19,1.39,1.79.66,3.57,1.71,5.22,2.66,4.5,2.79,9.54,4.73,14.8,5.45,4.35.69,8.71,1.65,13.06,2.3,2.28.37,4.68.33,6.96.02,2.29-.19,4.68-.25,6.96-.43,13.16-.32,15.64-9.41,27.86-8.59,4.36.07,8.7,1.19,13.06.98,2.61-.19,5.23-1.02,7.84-1.26,2.88-.21,5.89.02,8.71.63,5.93,1.31,10.4,5.79,15.67,8.5,2.94,1.61,6.2,2.9,9.58,3.11,3.46.1,7.1-.09,10.45-1.02,3.23-1.11,6.31-2.82,9.58-3.84"/><path class="b" d="M8.51,79.89c4.61.55,9.31.21,13.93.54,3.86.34,7.67,1.43,11.32,2.68,2.64,1.06,5.2,2.54,7.84,3.6,6.39,2.4,13.27,3.41,20.02,4.2,4.32.56,8.69,1.16,13.06,1.23,16.59,1.63,16.54-5.45,29.6-8.61,3.71-.72,7.57-.58,11.32-1.01,4.04-.27,8.13-1.15,12.19-.9,2.06.16,4.14.86,6.09,1.49,2.31.72,4.72,1.5,6.96,2.4,3,1.19,5.97,2.71,8.71,4.41,3.28,2.04,6.65,4.21,10.45,5.13,4.27.99,8.82.36,13.06-.5,3.6-1.23,6.81-3.54,10.45-4.7"/><path class="b" d="M8.51,75.6c2.32.16,4.67.76,6.96,1.1,3.49.47,7.07.92,10.45,1.94,5.57,1.55,10.78,4.5,16.54,5.36,3.76.43,7.64.36,11.32,1.38,4.31.8,8.75,1.15,13.06,1.96,5.43.82,11.05,2.38,16.54,1.29,6.01-1.32,10.76-5.72,16.54-7.67,3.89-1.49,8.09-2.05,12.19-2.63,2.32-.4,4.66-1.2,6.96-1.66,7.46-1.6,10.3.86,16.54,4.11,4.78,2.49,10.12,3.85,14.8,6.53,8.32,5.45,12.94,5.89,22.64,3.79,3.56-1.29,6.75-3.64,10.45-4.6"/><path class="b" d="M8.51,72.87c2.68.12,5.22,1.31,7.84,1.75,3.77.67,7.66,1.14,11.32,2.31,4.56,1.41,9.02,3.83,13.93,3.58,2.3-.05,4.66-.57,6.96-.66,2.03-.16,4.12.32,6.09.72,2.29.41,4.69.81,6.96,1.29,10.69,2.18,17.68,6.51,27.86-.3,4.55-2.89,9.52-5.24,14.8-6.42,2.84-.7,5.84-1.05,8.71-1.66,2-.53,4.06-1.33,6.09-1.75,7.66-1.78,11.37,3.03,17.41,6.43,4.9,2.99,10.86,3.72,15.67,6.86,3.63,2.26,7.86,3.88,12.19,3.65,1.71-.07,3.54-.35,5.22-.64,1.42-.22,3.03-.45,4.35-1.04,3.14-1.34,6.17-3.25,9.58-3.88"/><path class="b" d="M8.51,71.9c2.4.36,4.6,1.69,6.96,2.15,4.3.75,8.74-.27,13.06.34,2.97.32,5.76,1.72,8.71,2.18,4.06.81,8.14-.44,12.19-.63,4.72.06,9.4,1.39,13.93,2.63,8.63,2.71,15.23,5.27,23.51-.21,5.52-3.72,11.63-6.75,18.28-7.72,4.05-.62,8.2-.91,12.19-1.92,8.52-1.66,11.6,1.85,18.28,5.91,4.55,2.87,9.96,3.85,14.8,6.07,3.97,2.29,8.4,4.11,13.06,4.03,2.01.01,4.12-.29,6.09-.61,1.42-.21,3.01-.45,4.35-.98,3.13-1.21,6.21-2.89,9.58-3.36"/><path class="b" d="M8.51,71.1c2.63.96,4.98,2.94,7.84,3.21,5.37.52,10.29-3.24,15.67-2.39,3.11.74,6.36,1.27,9.58,1.16,2.29-.04,4.67-.36,6.96-.31,2.32.02,4.71.39,6.96.9,5.55,1.22,10.94,3.31,16.54,4.3,3.57.65,7.28-.29,10.45-1.96,2.69-1.4,5.2-3.31,7.84-4.79,7.69-4.17,14.95-4.82,23.51-4.59,4.94-.05,10.16-.2,14.8,1.75,3.24,1.42,6.32,3.37,9.58,4.77,3.07,1.39,6.38,2.37,9.58,3.43,2.61.85,5.13,2.25,7.84,2.8,5.41,1.13,11.06,1.17,16.54.64,3.82-.62,7.46-2.28,11.32-2.76"/><path class="b" d="M8.51,69.19c4.57,2.7,7.35,5.56,13.06,3.8,4.75-1.47,7.81-3.9,13.06-3.04,3.76.16,7.56-.27,11.32-.28,2.91.05,5.87.53,8.71,1.16,6.52,1.57,13.26,3.56,20.02,3.32,3.1-.42,6.03-1.9,8.71-3.45,3.55-2.23,7.22-4.43,11.32-5.49,5.86-1.99,12.2-2.64,18.28-1.38,4.03.8,8.07,1.91,12.19,2.14,4.6.37,8.88,2.33,13.06,4.16,3.97,1.74,8.08,3.3,12.19,4.68,4.15,1.61,8.73.76,13.06,1.28,2.87.27,5.81.8,8.71.79,3.83-.08,7.59-1.21,11.32-1.97"/><path class="b" d="M8.51,65.7c5.75,3.63,9.25,7.24,16.54,4.76,2-.63,4.04-1.54,6.09-1.96,1.7-.25,3.55-.28,5.22-.69,5.51-1.32,10.04-2.33,15.67-.85,2.88.61,5.79,1.49,8.71,1.9,2.56.38,5.25.42,7.84.37,2.9-.03,5.94.23,8.71-.87,5.59-1.97,10.63-5.45,16.54-6.49,7.66-2.29,14.14-3.95,21.76-.33,1.94.81,4.02,1.63,6.09,2.01,1.68.32,3.53.22,5.22.23,7.71-.4,14.08,4.64,20.89,7.45,4.79,2.22,7.3,1.21,12.19.88,2.94-.15,5.88.63,8.71,1.35,4.92,1.42,10.12.42,14.8-1.38"/><path class="b" d="M8.51,61.38c4.65,2.24,8.54,6.55,13.93,6.99,3.87.32,7.55-1.43,11.32-1.99,3.31-.95,6.3-2.93,9.58-3.97,6.11-2.25,12.14,1.47,18.28,1.59,2.59.13,5.26-.2,7.84-.43,1.69-.17,3.54-.02,5.22-.29,4.16-.69,8.15-2.32,12.19-3.46,2.83-.84,5.89-1.02,8.71-1.91,3.96-1.19,7.98-2.82,12.19-2.67,5.08,0,9.07,3.84,13.93,4.73,2.57.46,5.26-.14,7.84-.23,7.66-.31,13.23,6.15,20.02,8.65,4.25,1.76,8.69-.97,13.06-.29,2.36.29,4.7,1.17,6.96,1.86,4.7,1.62,9.72.19,13.93-2.11"/><path class="b" d="M8.51,57.43c8.98,3.46,11.32,9.65,22.64,6.73,5.89-.8,9.88-6.2,15.67-7.32,4.12-.83,8.1,1.26,12.19,1.4,4.94.38,9.86-.96,14.8-.59,4.4-.15,8.76-1.22,13.06-2.07,2.57-.53,5.29-.65,7.84-1.29,4.33-1.12,8.53-3.2,13.06-3.42,6.79-.33,10.98,5.3,18.28,4.39,2.28-.11,4.7-.42,6.96.02,6.13,1.3,10.82,5.97,16.54,8.24,2.47,1.07,5.26.68,7.84.32,1.98-.25,4.13-.27,6.09.14,9.15,2.41,11.05,4.06,20.02-1.34"/><path class="b" d="M8.51,53.92c6.6,1.66,12.06,7.08,19.15,7.01,7.67.22,10.39-4.23,16.54-7.32,4.88-2.32,7.43-.56,12.19-.19,4.66.29,9.27-1.2,13.93-1.04,2.58.24,5.23.75,7.84.57,3.52-.07,7-.94,10.45-1.57,2.88-.49,5.88-.73,8.71-1.47,3.47-.82,6.92-2.06,10.45-2.62,6.09-1.23,11.44,3.1,17.41,3.29,2.87.25,5.86.05,8.71.51,5.97.99,10.96,4.78,16.54,6.85,4.2,1.37,8.8.54,13.06,1.69,8.56,2.31,12.16,2.78,20.02-2.2"/><path class="b" d="M8.51,51.11c7.77,2.06,16.23,6.71,24.38,4.76,4.98-1.54,8.71-5.99,13.93-6.96,2.31-.51,4.71.02,6.96.53,1.39.2,2.96.16,4.35.02,4.02-.44,8.13-1.6,12.19-.88,2,.4,4.04,1.19,6.09,1.35,5.1.74,9.89-1.57,14.8-2.48,3.45-.5,7.03-.59,10.45-1.35,3.48-.68,6.9-2.03,10.45-2.37,3.24-.22,6.46.75,9.58,1.5,3.4.8,6.95,1.38,10.45,1.43,3.23.05,6.52.56,9.58,1.62,3.26,1.08,6.37,2.75,9.58,3.95,2.81.98,5.82,1.55,8.71,2.23,2.57.58,5.22,1.28,7.84,1.6,5.4.78,10.93-.53,15.67-3.16"/><path class="b" d="M8.51,48.8c3.78,1.87,8.06,2.06,12.19,2.39,3.74.25,7.59.76,11.32.12,5.01-.99,8.88-5.07,13.93-5.96,1.69-.31,3.55-.28,5.22.07,1.38.35,2.92.76,4.35.74,3.47.01,6.97-.86,10.45-.65,2.73.07,5.35,1.1,7.84,2.11,1.92.66,4.07.96,6.09.74,4.28-.4,7.96-3.15,12.19-3.8,3.15-.4,6.43.03,9.58-.46,3.62-.47,7-2.1,10.45-3.19,5.17-1.62,10.53.07,15.67.96,2.56.51,5.25.21,7.84.22,2.94,0,5.95.54,8.71,1.57,2.66.97,5.23,2.38,7.84,3.46,4.47,1.84,9.09,3.69,13.93,4.2,2.28.24,4.69.05,6.96-.15,3.52-.21,7.12-.73,10.45-1.95"/><path class="b" d="M8.51,46.37c3.22,2.12,6.75,2.15,10.45,1.89,3.17-.2,6.41-.31,9.58-.48,6.96,0,10.39-4.47,16.54-6.15,1.67-.39,3.53-.45,5.22-.16,1.42.24,2.92.85,4.35,1.03,2.86.38,5.84.13,8.71.42,2.36.22,4.79.83,6.96,1.78,2.47,1.16,5.04,2.53,7.84,2.55,4.77.23,8.64-3.1,13.06-4.29,3.99-.88,8.24.18,12.19-1.04,4.27-1.12,7.91-3.98,12.19-5.07,5.15-1.54,10.46.35,15.67.11,4.07-.55,8.35-.54,12.19,1.08,6.86,3,13.33,7.42,20.89,8.46,2.87.41,5.84.04,8.71-.1,3.47-.04,7.04.11,10.45-.67"/><path class="b" d="M8.51,43.37c3.07,2.09,6.84,2.39,10.45,2.46,4.35.05,8.85.02,13.06-1.18,5.13-1.57,8.6-6.58,13.93-7.73,3.6-.92,7,.93,10.45,1.63,4.46.89,8.97,1.96,13.06,4,6.15,3.44,10.06,4.23,16.54.9,2.71-1.33,5.64-2.52,8.71-2.5,2.92-.07,5.98-.27,8.71-1.41,2.77-1.1,5.3-2.92,7.84-4.45,3.2-1.88,6.72-3.54,10.45-3.95,2.28-.26,4.68-.08,6.96-.12,1.71.02,3.53-.32,5.22-.42,6.46-.46,11.93,3.51,17.41,6.32,4.5,2.02,9.01,4.38,13.93,5.16,2.85.5,5.83.22,8.71.27,3.17.1,6.43.24,9.58-.25"/><path class="b" d="M8.51,40.81c2.93,1.7,6.34,2.41,9.58,3.26,20.19,4.94,19.79-16.42,34.82-10.23,4.08,1.47,8.26,2.87,12.19,4.73,3.22,1.38,6.23,3.47,9.58,4.53,5.69,1.7,10.49-1.89,15.67-3.51,3.99-1.03,8.4-.22,12.19-2.17,2.85-1.31,5.35-3.42,7.84-5.29,3.03-2.09,6.13-4.34,9.58-5.69,3.3-1.32,6.97-.99,10.45-1.1,5.85-.83,11.43,1.63,16.54,4.19,2.24,1.16,4.67,2.17,6.96,3.2,2.59,1.22,5.21,2.63,7.84,3.77,3.53,1.59,7.45,2.34,11.32,2.13,3.46-.02,7-.1,10.45-.49"/><path class="b" d="M8.51,39.74c2.25,1.02,4.73,1.74,6.96,2.78,3.21,1.53,6.82,3.19,10.45,2.25,11-2.91,13.42-17.56,24.38-13.83,4.97,1.68,9.96,3.47,14.8,5.51,2.92,1.16,5.74,2.78,8.71,3.81,5.48,1.67,10.6-1.63,15.67-3.2,3.96-1.19,8.38-.09,12.19-1.95,2.94-1.31,5.43-3.58,7.84-5.66,1.91-1.65,4.11-3.18,6.09-4.75,4.2-3.31,7.69-4.48,13.06-3.86,1.99.21,4.13.06,6.09.47,3.24.66,6.43,1.81,9.58,2.81,3.19,1.07,6.49,2.06,9.58,3.4,3.25,1.46,6.34,3.41,9.58,4.91,6.88,3.46,12.81,1.51,20.02.86"/><path class="b" d="M8.51,40.33c2.03.61,4.2,1.23,6.09,2.21,4.84,2.76,8.89,5.02,13.93,1.17,2.56-1.95,4.93-4.36,6.96-6.84,2.88-3.34,6.3-8.15,11.32-7.27,2.95.59,5.75,2.03,8.71,2.64,4.31,1.11,8.79,1.77,13.06,3.07,1.73.5,3.49,1.34,5.22,1.79,5.16,1.13,9.99-1.67,14.8-3.06,4.57-1.46,9.62.28,13.93-2.22,2.58-1.37,4.82-3.49,6.96-5.44,1.62-1.5,3.56-2.89,5.22-4.34,3.12-2.72,6.96-5.39,11.32-4.67,2.59.37,5.26.83,7.84,1.24,2.59.59,5.22,1.41,7.84,1.87,4.37.76,8.94.97,13.06,2.77,6.18,2.4,12.2,6.97,19.15,5.79,3.17-.48,6.37-1.35,9.58-1.62"/><path class="b" d="M8.51,41.67c2.04.4,4.2.89,6.09,1.77,2.45,1.14,5.05,2.59,7.84,2.38,5.07-.58,8.87-5.86,12.19-9.34,2.64-2.94,5.35-6.87,9.58-7.36,3.39-.17,6.31,2.1,9.58,2.61,4,.8,8.14.38,12.19.57,2.35.08,4.75.62,6.96,1.4,4.73,1.25,9.47-.82,13.93-2.2,1.94-.58,4.06-1.07,6.09-1.14,2.29-.03,4.72.21,6.96-.37,5.33-1.38,8.79-6.12,13.06-9.25,3.08-2.51,6.26-5.73,10.45-5.98,2.35-.08,4.71.68,6.96,1.21,3.51.51,6.93,1.77,10.45,2.22,4.33.49,8.81-.11,13.06,1.1,6.61,1.28,13.17,4.55,20.02,3.4,3.16-.57,6.35-1.46,9.58-1.6"/><path class="b" d="M8.51,42.62c1.71.09,3.55.23,5.22.59,2.53.59,5.22,1.38,7.84.84,7.89-1.73,12.64-12.76,20.02-15.18,3.04-.86,5.97.84,8.71,1.94,6.64,2.79,13.28-2.43,20.02-1.55,8.73,2.48,13.43.08,21.76-1.72,3.18-.52,6.56-.49,9.58-1.76,2.85-1.13,5.4-3.06,7.84-4.9,1.98-1.46,4.17-2.87,6.09-4.42,2.74-2.11,5.97-4.19,9.58-3.97,4.13.33,8.24,1.47,12.19,2.7,4.77,1.62,9.88,1.17,14.8,1.84,6.07.47,12.2-.42,18.28-.52,4.35-.08,8.7-1.03,13.06-.81"/><path class="b" d="M8.51,41.9c3.15-.56,6.41-.48,9.58-.81,7.36-.86,11.91-7.33,17.41-11.53,3.56-2.78,7.29-3.16,11.32-1.15,6.12,3.19,8.88,2.03,14.8-.68,5.74-2.64,7.83-2.98,13.93-1.51,7.99,1.54,12.76-.57,20.02-3.22,5.96-1.96,11.7-4.62,17.41-7.18,2.35-1.23,4.6-2.88,6.96-4.08,8.11-4.5,15.46.98,23.51,2.3,1.98.35,4.1.53,6.09.78,2.59.47,5.31.47,7.84-.35,3.76-1.1,7.46-2.67,11.32-3.4,4.88-.69,9.91-.15,14.8.2"/></svg>