<?xml version="1.0" encoding="UTF-8"?><svg id="a" xmlns="http://www.w3.org/2000/svg" width="1920" height="2400" viewBox="0 0 192 240"><defs><style>.b{fill:none;stroke:#fff;stroke-miterlimit:10;stroke-width:.4px;}.c{stroke-width:0px;}</style></defs><rect class="c" x="0" width="192" height="240"/><path class="b" d="M8.39,230.35c3.8-.78,7.38-2.72,10.46-5.04,2.83-2.21,5.51-4.83,8.72-6.5,7.56-4.05,12.73,1.95,19.18,4.82,2.48.89,5.28.8,7.85.38,4.26-.75,8.22-2.68,12.2-4.28,3.01-1.19,6.3-2.32,9.59-1.93,4.59.62,7.89,4.39,11.33,7.15,9.18,7.86,13.68,7.57,24.41,3.01,2.97-1.31,5.69-3.3,8.72-4.48,7.67-3.31,13.54,2.52,19.18,6.89.37.32,1.3.89,1.74,1.11,1.09,0,2.4,0,3.49,0,2.58,0,5.26,0,7.85,0,1.52-.25,2.98-1.27,4.36-1.9,2.76-1.41,5.65-2.9,8.72-3.47,5.52-1.15,9.05,2.25,13.08,5.37h4.36"/><path class="b" d="M8.39,225.99c3.38.22,6.76-.96,9.59-2.74,4.24-2.74,7.96-6.83,13.08-7.9,4.76-.99,9.07,1.83,13.08,3.99,9.82,5.65,19-3.88,27.9-7.04,2.5-.87,5.41-1.08,7.85.09,3.83,1.92,6.94,5.09,10.46,7.49,7.11,5.1,12.34,4.43,20.05,1.24,3.35-1.05,6.35-3.08,9.59-4.37,8.13-3.51,14.01,2.05,20.05,6.71,3.59,2.89,7.67,3.84,12.2,3.05,6.58-1.1,13.43-4.42,20.05-1.78,1.15.45,2.45,1.19,3.49,1.85,2.55.36,5.27.06,7.85.15"/><path class="b" d="M8.39,222.01c2.88,0,5.84,0,8.72,0,4.39-1.57,7.83-5.2,12.2-6.88,3.89-1.73,8.32-1.28,12.2.23,2.8,1,5.68,2.32,8.72,2.23,8.65-.33,14.86-7.48,22.67-10.29,4.78-1.82,8.4.25,12.2,3.02,7.48,5.52,13.14,9.23,22.67,5.88,13.8-4.15,16.53-9.06,30.51-.13,3.65,2.36,7.88,3.77,12.2,4.14,5.2.53,10.49.11,15.69.59,2.33.16,4.7.74,6.97,1.2,3.46,0,7,0,10.46,0"/><path class="b" d="M8.39,217.28c3.17,0,6.42,0,9.59,0,1.1,0,2.39,0,3.49,0,.83,0,1.89.1,2.62-.4,2.51-1.39,5.12-2.84,7.85-3.76,3.34-1.16,7-1.26,10.46-.69,2.58.37,5.23,1.07,7.85.97,8.3-.53,14.45-7,21.79-10.13,4.08-1.82,7.6-1.36,11.33.98,5.89,3.55,11.89,8.34,19.18,7.77,9.05-.77,17.81-5.75,27.02-3.51,3.86.79,7.54,2.43,11.33,3.46,7.31,1.31,14.53,3.21,21.79,4.73,2.83.73,5.82.57,8.72.57,4.05,0,8.16,0,12.2,0"/><path class="b" d="M8.39,212.55c6.09,0,12.22,0,18.31,0,1.21.15,2.42-.59,3.49-1.05,1.38-.61,2.93-1.23,4.36-1.68,2.79-.9,5.79-1.36,8.72-1.38,2.29-.06,4.68.27,6.97.16,6.14-.48,11.39-4.17,16.56-7.17,8.34-4.89,11.72-5.36,20.05-.2,6.78,4.14,12.84,6.68,20.92,5.09,4.01-.74,8.11-1.44,12.2-1.32,5.87.05,11.63,1.49,17.43,2.14,3.17.48,6.43-.26,9.59.25,5.43.88,10.43,3.48,15.69,4.98,1.36.35,2.96.13,4.36.18,2.58,0,5.26,0,7.85,0,2.93.1,5.83-1.26,8.72-1.87"/><path class="b" d="M8.39,207.81c6.96,0,13.96,0,20.92,0,1.49-.1,2.95-1.04,4.36-1.47,2.24-.84,4.62-1.57,6.97-2.02,2.85-.57,5.83-.62,8.72-.59,5.42-.23,10.28-3.09,14.82-5.81,4.52-2.6,9.33-6.18,14.82-5.58,2.78.48,5.38,1.9,7.85,3.19,9.5,5.36,14.45,6.6,25.28,4.84,4.1-.36,8.22.54,12.2,1.39,4.56.99,9.26,1.96,13.95,1.55,2.04-.12,4.11-.79,6.1-1.2,2.95-.43,5.97.4,8.72,1.42,4.03,1.39,7.93,3.79,12.2,4.27,2.29,0,4.69,0,6.97,0,1.48-.24,2.98-1.08,4.36-1.65,2.24-.98,4.62-1.95,6.97-2.64"/><path class="b" d="M8.39,203.08c6.96,0,13.96,0,20.92,0,3.73-1.06,7.47-2.39,11.33-2.94,2.86-.48,5.83-.52,8.72-.56,5.92-.44,10.94-4.11,15.69-7.34,4.18-2.75,8.66-6.39,13.95-6.07,3.42.47,6.54,2.29,9.59,3.8,5.34,2.87,11.27,5.11,17.43,4.67,2.89-.08,5.83-.81,8.72-.53,4.17.38,8.18,1.88,12.2,2.93,16.7,4.52,14.26-4.46,27.9,1.1,5.99,2.41,12.81,5.69,19.18,2.69,3.05-1.5,6.25-2.96,9.59-3.69"/><path class="b" d="M8.39,198.35c2.01.09,4.1-.28,6.1-.2,3.16.35,6.42.15,9.59.2,4.94-.55,9.83-1.9,14.82-2.15,3.46-.28,7-.16,10.46-.44,7.1-.88,12.74-5.81,18.31-9.88,10.19-7.82,13.23-6.18,24.41-1.72,4.19,1.68,8.57,3.16,13.08,3.67,3.75.53,7.63-.1,11.33.82,10.96,2.73,16.68,5.62,27.9.82,4.24-1.03,8.45,1.04,12.2,2.8,5.31,2.6,11.59,5.63,17.43,2.91,3.02-1.49,6.25-2.81,9.59-3.32"/><path class="b" d="M8.39,193.61c2.92.25,5.79-1,8.72-.66,5.52.2,11.04-.99,16.56-.81,7.79.17,14.32,1.72,21.79-1.69,5.14-2.21,9.55-5.84,13.95-9.23,4.72-3.65,8.57-6.36,14.82-5.95,7.41.18,14.12,3.7,20.92,6.25,2.77,1.12,5.8,1.6,8.72,2.15,3.18.75,6.37,1.83,9.59,2.42,3.73.72,7.66.65,11.33-.33,2.05-.53,4.16-1.33,6.1-2.18,2.15-1.05,4.54-2.02,6.97-1.55,8.49,1.49,15.26,10.33,24.41,8.16,1.47-.38,2.96-1.23,4.36-1.81,2.2-.92,4.61-1.62,6.97-1.92"/><path class="b" d="M8.39,188.88c2.88-.05,5.85.11,8.72-.08,4.33-.44,8.71-1.14,13.08-.82,2.31.12,4.69.56,6.97.89,2.59,0,5.26,0,7.85,0,2-.01,4.11.03,6.1-.02,2.99-.77,5.99-1.85,8.72-3.32,6.39-3.32,11.4-8.71,17.43-12.56,3.44-1.94,7.39-3.28,11.33-3.59,6.98-.44,12.72,4.2,18.31,7.7,2.11,1.4,4.59,2.29,6.97,3.1,3.08,1.13,6.29,2.28,9.59,2.53,3.58.31,7.21-.59,10.46-2.06,2.35-1.04,4.69-2.37,6.97-3.55,2.09-1.18,4.55-2.07,6.97-1.56,8.45,1.69,15.21,10.58,24.41,8.33,1.47-.39,2.96-1.23,4.36-1.79,2.2-.9,4.62-1.56,6.97-1.87"/><path class="b" d="M8.39,184.15c11.03,0,22.09,0,33.13,0,5.22,0,10.48,0,15.69,0,3.17-.71,6.06-2.71,8.72-4.51,5.68-4.12,10.41-9.55,16.56-13.02,2.62-1.63,5.56-3.19,8.72-3.3,7.74-.03,12.53,7.23,18.31,11.31,3.47,2.14,7.32,4.05,11.33,4.9,3.55.7,7.28-.15,10.46-1.79,2.71-1.36,5.28-3.19,7.85-4.79,2.1-1.29,4.44-2.68,6.97-2.68,3.73,0,7.18,1.89,10.46,3.48,4.3,2.13,9.02,4.39,13.95,3.62,2.13-.28,4.14-1.39,6.1-2.21,2.21-.89,4.62-1.55,6.97-1.91"/><path class="b" d="M8.39,179.42c12.2,0,24.42,0,36.61,0,4.05,0,8.16,0,12.2,0,1.4,0,2.96,0,4.36,0,1.95-.45,3.62-2.05,5.23-3.17,5.49-4.39,10.05-9.9,15.69-14.12,2.55-2.05,5.39-4.22,8.72-4.7,7.96-.73,12.83,8.05,18.31,12.49,2.63,2.03,5.68,3.69,8.72,5,8.56,3.64,14.92-2.16,21.79-6.38,3.46-2.25,7.48-2.34,11.33-1.11,7.12,2.25,14.34,5.76,21.79,2.56,3.31-1.57,6.82-2.93,10.46-3.48"/><path class="b" d="M8.39,174.68c18.01,0,36.04,0,54.05,0,7.86-5.42,13.3-13.61,20.92-19.33,6.15-5.16,11.39-5.51,17.43.02,3.02,2.66,5.64,5.91,8.72,8.51,1.56,1.27,3.51,2.25,5.23,3.28,2.69,1.53,5.62,2.94,8.72,3.34,8.56,1.19,14.11-5.84,21.79-6.39,4.12-.16,8.17,1.09,12.2,1.69,3.73.61,7.66.63,11.33-.33,2.71-.64,5.28-1.98,7.85-3.01,2.21-.83,4.63-1.39,6.97-1.67"/><path class="b" d="M8.39,169.95c11.33,0,22.67,0,34,0,3.76,0,7.58,0,11.33,0,1.4,0,2.96,0,4.36,0,1.41.09,2.46-.01,3.49-1.07,8.51-6.59,16.46-19.51,27.02-22.04,8.57-1.31,13.95,7.19,20.05,11.69,1.78,1.4,4.04,2.22,6.1,3.08,3.31,1.35,6.87,2.39,10.46,2.49,5.05.22,9.92-1.52,14.82-2.45,6.35-1.01,12.83,1.04,19.18-.28,4.26-.73,8.3-2.5,12.2-4.3,3.77-1.89,7.94-3.16,12.2-2.95"/><path class="b" d="M8.39,165.22h48.82c2.59-1.66,4.7-4.21,6.97-6.27,4.95-4.76,9.73-9.98,15.69-13.5,5.93-3.56,11.91-2.43,17.43,1.26,4.11,2.56,7.74,6.05,12.2,8.01,1.62.66,3.51.91,5.23,1.14,7.52.92,15.13-.09,22.66.48,5.82.38,11.56,2.78,17.43,1.57,6.81-1.18,12.17-5.95,18.31-8.74,3.26-1.44,6.99-1.58,10.46-.98"/><path class="b" d="M8.39,160.48h46.2c6.32-5.38,11.82-11.96,19.18-16.05,3.46-1.88,7.28-3.87,11.33-3.5,6.96.68,12.74,5.19,19.18,7.51,7.83,3.32,14.02-.73,21.79-1.21,8.4-.67,14.27,3.81,21.79,6.09,9.9,2.83,16.41-4.84,24.41-8.89,3.52-1.65,7.65-1.35,11.33-.41"/><path class="b" d="M8.39,153.82c2.01.16,4.14.41,6.1.91,1.41.32,2.87,1.18,4.36,1.01,11.03,0,22.09,0,33.13,0,5.13-4.18,9.64-9.39,15.69-12.34,2.98-1.52,6.3-2.39,9.59-2.93,2.86-.62,5.87-.9,8.72-.07,6.56,1.8,13.08,4.87,20.05,4.02,13.74-1.16,17.45-12.34,32.25-2.5,9.17,6.1,15.62,10.46,26.15,3.83,7.31-4.55,10.25-6.62,19.18-4.31"/><path class="b" d="M8.39,147.38c2.64.04,5.4.39,7.85,1.45,1.47.57,2.85,1.72,4.36,2.18,5.51,0,11.06,0,16.56,0,4.05,0,8.16,0,12.2,0,1.65-.51,2.97-2.1,4.36-3.08,2.45-1.97,5.05-3.96,7.85-5.43,4.81-2.73,10.33-2.75,15.69-2.46,2,.03,4.11-.28,6.1,0,3.18.39,6.38,1.22,9.59,1.44,5.13.48,10.19-1.1,14.82-3.19,1.68-.76,3.57-1.43,5.23-2.25,2.35-1.23,4.63-2.83,6.97-4.07,6.95-3.94,12.44-1.77,18.31,2.85,3.31,2.57,6.81,5.04,10.46,7.1,10.32,5.65,15.14-.05,24.41-3.16,3.42-.8,7.06-.32,10.46.33"/><path class="b" d="M8.39,141.4c4.12-.46,7.85.51,11.33,2.72,1.39.65,2.81,2.07,4.36,2.16,2.59,0,5.26,0,7.85,0,5.8,0,11.64,0,17.43,0,2.61-1.48,5.15-3.28,7.85-4.61,5.59-3,11.32-3.08,17.43-2.07,3.44.57,6.99.18,10.46.25,9.22.28,15.1-3.38,22.66-7.94,2.2-1.31,4.76-2.18,6.97-3.47,3.03-1.7,6.14-3.62,9.59-4.31,5.83-1.28,11.12,2.32,15.69,5.47,4.01,2.47,8.01,5.12,12.2,7.26,7.26,3.61,12.77,1.67,20.05-.32,3.69-.81,7.58-.66,11.33-.47"/><path class="b" d="M8.39,135.63c2.55-.53,5.32-.78,7.85-.03,2.98,1,5.88,2.44,8.72,3.77,1.69.71,3.42,1.81,5.23,2.17,2.59,0,5.26,0,7.85,0,4.63,0,9.32,0,13.95,0,2.06-.44,4.06-1.56,6.1-2.11,2.8-.89,5.78-1.45,8.72-1.54,4.07-.17,8.15.59,12.2.68,12.28.35,18.49-5.8,27.9-12.19,2.1-1.44,4.6-2.33,6.97-3.21,2.55-1.03,5.18-2.16,7.85-2.86,5.21-1.52,10.76-.54,15.69,1.5,2.56,1.07,5.3,1.95,7.85,3.03,2.67,1.23,5.27,2.82,7.85,4.22,4.04,2.23,8.44,4.11,13.08,4.57,5.81.5,11.68-.37,17.43-1.06"/><path class="b" d="M8.39,130.36c4.14-1.21,7.21-1.22,11.33-.07,4.83,1.05,9.52,2.81,13.95,4.98,1.1.49,2.33,1.22,3.49,1.55.79,0,1.83,0,2.62,0,2.59,0,5.26,0,7.85,0,4.92,0,9.9,0,14.82,0,3.46-.42,6.95-1.25,10.46-1.37,7.4-.39,11.3.73,18.31-3.14,4.02-2.16,7.64-5.08,11.33-7.74,3.14-2.28,6.56-4.48,10.46-5.1,7.99-1.83,16.2-2.83,24.41-2.69,2.29.06,4.7.03,6.97.28,2.09.31,4.2,1.09,6.1,1.98,7.25,3.35,13.66,9.12,21.79,10.22,3.79.34,7.66-.46,11.33-1.35"/><path class="b" d="M8.39,125.69c3.41-.84,6.95-1.28,10.46-.96,2.59.03,5.3.03,7.85.56,4.89.97,9.11,3.91,13.08,6.79,6.96.02,13.96,0,20.92,0,3.17-.06,6.43.13,9.59-.09,1.67-.53,3.5-1.04,5.23-1.35,1.98-.41,4.1-.3,6.1-.33,2.37-.14,4.78-.8,6.97-1.7,4.63-1.9,8.79-4.83,13.08-7.37,3.69-2.24,7.8-4.17,12.2-4.1,4.94-.1,10,0,14.82-1.26,11.08-2.8,16.42-8.67,27.9-1.81,5.51,3,10.26,7.91,16.56,9.2,3.48.36,7.06-.33,10.46-1.06"/><path class="b" d="M8.39,121.59c2-.13,4.1-.4,6.1-.59,2-.15,4.13-.2,6.1-.62,8.87-2.07,13.64.92,20.05,6.65,1.03.52,2.38.27,3.49.32,1.4,0,2.96,0,4.36,0,4.63,0,9.32,0,13.95,0,2.29,0,4.68,0,6.97,0,.88.03,1.84-.59,2.62-.93,1.64-.75,3.46-1.45,5.23-1.79,2.27-.4,4.7,0,6.97-.47,6.14-1.04,11.69-4.13,17.43-6.38,3.85-1.53,8.03-2.71,12.2-2.22,12.65,1.94,15.84-.58,26.15-7.11,7.78-4.68,14.59-3.33,21.79,1.65,3.38,2.16,6.6,4.88,10.46,6.14,3.67.86,7.6.24,11.33.1"/><path class="b" d="M8.39,117.91c3.44.34,7.04.37,10.46-.13,2.88-.61,5.75-1.76,8.72-1.92,4.21-.31,8.12,1.83,11.33,4.35,1.34.89,2.57,2.67,4.36,2.4,6.67,0,13.38,0,20.05,0,2,0,4.11,0,6.1,0,2.61-.93,5.08-2.57,7.85-3.11,2.85-.52,5.88-.19,8.72-.92,5.06-1.03,9.9-3.01,14.82-4.53,4.2-1.28,8.67-2.34,13.08-1.73,6.92,1.23,11.92,1.89,18.31-1.88,5.78-3.42,10.38-7.7,17.43-8.42,7.2-.89,13.22,3.91,19.18,7.17,2.11,1.17,4.54,1.95,6.97,1.9,2.59.13,5.27.35,7.85.65"/><path class="b" d="M8.39,115.34c3.28,1.23,6.97,1.97,10.46,1.4,2.65-.54,5.23-1.69,7.85-2.36,3.12-.86,6.54-.82,9.59.29,8.94,3.65,3.39,3.27,13.95,3.22,6.67,0,13.38,0,20.05,0,.83.04,1.84-.37,2.62-.61,1.38-.43,2.94-.85,4.36-1.13,2.87-.49,5.88-.52,8.72-1.21,5.96-1.24,11.64-3.64,17.43-5.45,3.36-1.01,6.93-1.9,10.46-1.62,6.74.84,11.81,1.93,18.31-1.18,2.97-1.34,5.79-3.18,8.72-4.61,4.84-2.23,10.47-3.39,15.69-1.89,4.92,1.3,9.19,4.34,13.95,6.04,1.91.74,4.09.71,6.1.72,2.32.1,4.73.47,6.97,1.06"/><path class="b" d="M8.39,112.86c1.33.54,2.96.2,4.36.29,2.29,0,4.68,0,6.97,0,2.88,0,5.84,0,8.72,0,1.7-.28,3.5-.71,5.23-.75,2.63-.2,5.26.47,7.85.75,2.59,0,5.26,0,7.85,0,5.8,0,11.64,0,17.43,0,3.46-.1,7.02.22,10.46-.17,4.98-.76,10.02-1.6,14.82-3.15,4.75-1.48,9.31-3.64,13.95-5.42,3.04-1.16,6.3-2.15,9.59-1.88,2.88.17,5.83.68,8.72.71,2.93.06,5.93-.42,8.72-1.31,8.83-3.11,14.65-6.95,24.41-3.51,4.45,1.48,8.52,4.09,13.08,5.25,1.96.56,4.11.24,6.1.05,2.31-.15,4.75.07,6.97.72"/><path class="b" d="M8.39,108.42c15.69,0,31.39,0,47.07,0,6.38,0,12.8,0,19.18,0,1.4,0,2.96.02,4.36-.02,2.27-.57,4.67-1.05,6.97-1.5,5.79-1.04,11.38-3.13,16.56-5.91,5.59-2.86,9.95-5.87,16.56-4.86,5.48.69,11.09,1.54,16.56.36,6.43-1.28,10.64-3.8,17.43-1.56,6.34,1.81,11.67,6.59,18.31,7.41,1.74.19,3.56-.4,5.23-.81,2.24-.53,4.69-.8,6.97-.41"/><path class="b" d="M8.39,103.68c16.56,0,33.13,0,49.69,0,2.3-.03,4.7.13,6.97-.24,2.58-.27,5.26-.27,7.85-.34,1.71-.05,3.55-.18,5.23-.52,1.99-.49,4.06-1.2,6.1-1.48,10.2-1.3,14.96-3.55,23.54-9,5.63-3.72,9.24-3.83,15.69-2.32,5.96,1.47,12.24,2.65,18.31,1.11,7.03-2.41,13.56,2.37,19.18,6.04,3.18,2,6.59,4.27,10.46,4.44,1.8.08,3.61-.71,5.23-1.41,2.2-.92,4.57-1.85,6.97-2"/><path class="b" d="M8.39,98.95c16.85,0,33.71,0,50.56,0,1.4-.04,2.97.11,4.36-.12,1.65-.72,3.49-1.34,5.23-1.77,3.72-.95,7.68-1.15,11.33-2.41,3.06-1.07,6.4-1.08,9.59-1.38,2.95-.26,5.96-.86,8.72-1.95,3.38-1.32,6.54-3.3,9.59-5.25,2.17-1.33,4.41-2.97,6.97-3.39,6.08-.88,11.67,2.57,17.43,3.89,2.53.64,5.24.96,7.85.69,2.01-.18,4.06-1.06,6.1-.82,5.84.75,10.27,5.22,14.82,8.57,1.89,1.44,3.95,2.92,6.1,3.94,2.58,0,5.26,0,7.85,0,1.23-.12,2.41-1.07,3.49-1.61,1.62-.92,3.43-1.87,5.23-2.41"/><path class="b" d="M8.39,94.22c18.01,0,36.04,0,54.05,0,.92-.15,1.85-.97,2.62-1.44,1.62-1.04,3.46-2.01,5.23-2.75,2.23-.94,4.65-1.63,6.97-2.28,1.98-.56,4.03-1.35,6.1-1.46,4.63-.27,9.37.51,13.95-.54,3.7-.77,7.18-2.48,10.46-4.3,2.21-1.17,4.44-2.74,6.97-3.05,6.49-.63,12.19,3.5,18.31,4.96,2.24.59,4.67.89,6.97.67,1.73-.12,3.49-.86,5.23-.88,7.52.29,13.12,7.31,19.18,11.05,4.63.07,9.32,0,13.95.03,1.66-.91,3.44-1.95,5.23-2.58"/><path class="b" d="M8.39,89.48c17.72,0,35.46,0,53.18,0,.94-.27,1.85-1.22,2.62-1.79,1.61-1.25,3.44-2.47,5.23-3.43,3.8-2,8.03-3.29,12.2-4.22,3.47-.48,7.01.24,10.46.51,6.84.8,13.09-1.34,19.18-4.23,3.56-1.67,7.69-1.03,11.33.05,4.85,1.42,9.7,3.43,14.82,3.51,5.15.12,7.65-2.27,13.08-.22,4.76,1.73,8.79,5.02,13.08,7.63,1.34.8,2.87,1.71,4.36,2.2,1.39,0,2.97,0,4.36,0,1.39-.03,2.97.09,4.36-.1,2.25-.85,4.6-1.84,6.97-2.29"/><path class="b" d="M8.39,84.75c15.69,0,31.39,0,47.07,0,1.69-.09,3.58.23,5.23-.22.77-.64,1.82-1.49,2.62-2.09,2.89-2.18,6.15-4.03,9.59-5.2,10.48-3.42,11.46-2.37,21.79-.93,3.16.37,6.45.33,9.59-.25,6.7-1.27,9.12-3.67,16.56-2.48,5.77.82,11.56,2.37,17.43,1.81,2.63-.15,5.22-1.14,7.85-1.31,3.59-.23,7.2.8,10.46,2.22,5.94,2.38,11.59,7.13,18.31,6.44,2.86-.34,5.84-.67,8.72-.38"/><path class="b" d="M8.39,80.02c16.56,0,33.13.01,49.69,0,4.82-3.82,10.45-6.75,16.56-7.74,3.16-.48,6.37-1.4,9.59-1.16,5.86.46,11.54,2.51,17.43,2.65,2.3.09,4.71-.08,6.97-.47,2-.34,4.07-.95,6.1-1.14,4.91-.51,9.9,0,14.82-.09,3.49-.04,7.04-.35,10.46-1.04,3.99-.92,8.07-2.01,12.2-1.59,6.15.42,11.71,3.38,17.43,5.36,2.21.82,4.66,1.04,6.97,1.34,2.36.4,4.75,1.15,6.97,2.02"/><path class="b" d="M8.39,75.29c12.78,0,25.58,0,38.36,0,2.59,0,5.26,0,7.85,0,1.27-.2,2.38-1.36,3.49-1.95,5.53-3.66,11.74-5.16,18.31-5.35,2-.08,4.1-.48,6.1-.43,2.32.06,4.72.51,6.97,1.05,5.45,1.33,10.91,3.11,16.56,3.21,2.91.12,5.84-.49,8.72-.81,4.04-.42,8.16-.62,12.2-1.06,4.69-.5,9.39-1.38,13.95-2.58,5.09-1.41,10.35-2.98,15.69-2.4,4.86.44,9.42,2.42,13.95,4.11,1.94.78,4.14,1.18,6.1,1.91,2.41.95,4.75,2.34,6.97,3.67"/><path class="b" d="M8.39,70.55c12.2,0,24.42,0,36.61,0,2.59,0,5.26,0,7.85,0,1.3-.07,2.39-1.33,3.49-1.92,8.85-5.85,14.38-5.51,24.41-5.63,5.77.07,11.15,2.57,16.56,4.27,4.19,1.36,8.64,2.42,13.08,2.07,5.5-.65,11.08-.95,16.56-1.76,4.41-.65,8.82-1.67,13.08-2.98,3.75-1.13,7.47-2.64,11.33-3.34,8.99-1.85,16.23,2.71,24.41,5.45,1.46.61,3.01,1.48,4.36,2.31,1.04.56,2.22,1.71,3.49,1.52"/><path class="b" d="M8.39,65.82c15.1-.03,30.23.07,45.33-.04,4.56-3.16,9.39-6.23,14.82-7.61,2.82-.74,5.81-1.01,8.72-1.04,3.23-.15,6.53.17,9.59,1.27,6.49,2.16,12.42,6.02,19.18,7.38,3.17.07,6.42.07,9.59,0,6.12-.26,12.33-.46,18.31-1.9,4.8-1.04,9.35-3.04,13.95-4.7,11.4-4.11,18.25.36,28.77,4.1,1.43.66,2.99,1.52,4.36,2.3.73.3,1.84.23,2.62.23"/><path class="b" d="M8.39,61.09c12.2,0,24.42,0,36.61,0,2.29,0,4.68,0,6.97,0,2.06-.77,4.1-1.9,6.1-2.8,8.59-3.98,18.3-8.37,27.9-5.69,5.59,1.55,10.54,4.76,15.69,7.32.76.38,1.82.88,2.62,1.17.43,0,1.31,0,1.74,0,1.99,0,4.11,0,6.1,0,5.51,0,11.06,0,16.56,0,2.29-.04,4.69.1,6.97-.08,3.87-1.09,7.65-2.66,11.33-4.25,11.66-5.22,18.17-3.32,29.64,1.08,1.12.54,2.42,1.27,3.49,1.92,1,.62,2.23,1.53,3.49,1.33"/><path class="b" d="M8.39,56.35c5.8,0,11.64,0,17.43,0,1.16.11,2.39-.46,3.49-.74,1.09-.3,2.38-.57,3.49-.73,5.48-.89,11.1.63,16.56-.41,5.58-.68,11.25-1.38,16.56-3.33,3.76-1.27,7.45-2.99,11.33-3.88,10.34-2.03,17.76,2.66,26.15,7.79.75.43,1.79,1.03,2.62,1.31.77,0,1.84,0,2.62,0,2.29,0,4.68,0,6.97,0,6.38,0,12.8,0,19.18,0,.77,0,1.85.02,2.62-.06,1.4-.49,2.97-1.07,4.36-1.6,4.44-1.56,8.6-3.94,13.08-5.4,6.86-2.48,14.27-1.25,20.92,1.31,2.8,1.28,5.32,3.27,7.85,5"/><path class="b" d="M8.39,51.62c4.34,0,8.73,0,13.08,0,1.53-.66,2.94-1.91,4.36-2.78,2.41-1.59,5.05-3.09,7.85-3.88,5.19-1.59,10.5.19,15.69.79,5.15,1.02,10.38,3.05,15.69,1.81,4.29-.84,8.12-3.2,12.2-4.65,2.5-.82,5.25-1.01,7.85-1.28,5.99-.63,11.68,1.91,16.56,5.16,2.78,1.72,5.56,3.74,8.72,4.71,3.15.3,6.42.04,9.59.12,4.05,0,8.16,0,12.2,0,2.93-.86,5.84-2.05,8.72-3.08,3.57-1.1,7.06-2.63,10.46-4.18,8.03-3.73,15.07-4.4,23.54-1.56,3.28,1.27,5.97,3.8,8.72,5.91"/><path class="b" d="M8.39,46.89c2.29,0,4.68,0,6.97,0,.79,0,1.83.02,2.62-.07.83-.44,1.87-1.15,2.62-1.72,5.13-3.91,9.79-9.57,16.56-10.37,2.96-.32,5.95.52,8.72,1.5,1.4.5,3.01.95,4.36,1.58,2.05.98,4.08,2.26,6.1,3.29,7.92,4.29,12.85,1.54,20.05-2.27,1.88-.99,4.08-1.38,6.1-1.94,3.09-.89,6.34-1.82,9.59-1.61,5.2.28,9.65,3.37,13.95,5.99,2.36,1.54,5.08,2.57,7.85,3.07,12.53,3.03,17.6-.98,28.77-4.45,5.89-1.45,11.38-4.45,17.43-5.27,5.24-.76,10.71.04,15.69,1.77,2.91,1.39,5.36,3.71,7.85,5.72"/><path class="b" d="M8.39,41.9c3.89-.7,8.01-1.65,11.33-3.87,5.69-4,10.72-10.73,18.31-10.56,3.38.11,6.53,1.65,9.59,2.95,5.47,2.08,9.66,7.18,15.69,7.85,4.83.55,9.04-2.41,13.08-4.6,2.14-1.25,4.71-1.69,6.97-2.63,3.06-1.21,6.26-2.53,9.59-2.66,5.8-.33,10.7,3.27,15.69,5.67,1.61.78,3.5,1.2,5.23,1.6,2.55.6,5.23,1.08,7.85,1.15,4.15.15,8.3-.84,12.2-2.18,2.28-.77,4.64-1.66,6.97-2.28,1.98-.49,4.12-.78,6.1-1.27,4.84-1.13,9.83-2.11,14.82-1.74,4.71.36,9.41,1.48,13.95,2.74,2.86,1.2,5.34,3.3,7.85,5.08"/><path class="b" d="M8.39,33.15c3.23-.58,6.5-1.44,9.59-2.54,2.76-1.19,5.27-3.04,7.85-4.56,6.25-3.92,11.6-4.24,18.31-1.27,2.26,1,4.76,1.73,6.97,2.84,2.82,1.42,5.64,3.15,8.72,3.97,5.99,1.82,11.49-1.68,16.56-4.4,2.97-1.47,6.46-2.04,9.59-3.23,9.33-3.18,14.22-.25,22.67,3.07,2.5.85,5.24,1.06,7.85,1.4,4.64.53,9.39.26,13.95-.7,5.18-1.14,10.35-2.6,15.69-2.67,3.76-.25,7.61-.26,11.33.33,3.84.58,7.63,1.76,11.33,2.9,2.53.89,5.32,1.23,7.85,2.12,2.39.99,4.68,2.46,6.97,3.64"/><path class="b" d="M8.39,25.03c3.48-.47,7.05-1,10.46-1.84,2.61-.73,5.22-1.73,7.85-2.39,6.33-1.82,12.23-.42,18.31,1.55,1.67.52,3.53.83,5.23,1.22,2,.49,4.08,1.09,6.1,1.48,8.15,1.76,13.69-1.76,20.92-4.51,1.93-.67,4.1-.87,6.1-1.22,3.72-.6,7.58-.88,11.33-.4,4.73.53,9.26,2.27,13.95,3,11.06.88,22.06-2.38,33.13-1.85,4.67.32,9.41.79,13.95,1.99,4.45,1.14,8.75,2.94,13.08,4.47,2.5.99,5.28,1.38,7.85,2.15,2.33.82,4.64,2,6.97,2.82"/><path class="b" d="M8.39,19.3c6.97.34,13.95-.56,20.92-.4,6.13.1,12.19,1.53,18.31,1.68,4.94-.03,9.96-.21,14.82-1.2,5.27-.98,10.38-2.93,15.69-3.71,9.08-1.07,17.97,2.3,27.02,2.3,7.14.11,13.83-3.09,20.92-3.52,5.58-.51,11.17.61,16.56,1.98,3.46.84,7.02,1.52,10.46,2.42,7.68,1.86,14.89,5.42,22.67,6.9,1.43.41,2.98,1.03,4.36,1.57.39.17,1.34.5,1.74.64.4,0,1.34,0,1.74,0"/><path class="b" d="M8.39,16.39c4.54,1.31,9.28,1.8,13.95,2.39,8.08,1.26,16.37,1.49,24.41-.22,5.02-.9,9.87-2.69,14.82-3.88,4.54-1.13,9.27-1.71,13.95-1.71,2.59.01,5.29-.05,7.85.46,5.45,1.11,10.93,2.96,16.56,2.4,4.54-.38,8.88-2.05,13.08-3.72,4.42-1.85,9.06-3.78,13.95-3.56,7.79.29,14.25,5.51,21.79,6.94,4.03.95,8.17,1.67,12.2,2.6,4.06.91,8.14,2.04,12.2,2.92,2.41.34,4.73,1.36,6.97,2.23,1.08,0,2.4,0,3.49,0"/></svg>