<?xml version="1.0" encoding="UTF-8"?><svg id="a" xmlns="http://www.w3.org/2000/svg" width="1920" height="2400" viewBox="0 0 192 240"><defs><style>.b{fill:none;stroke:#fff;stroke-miterlimit:10;stroke-width:.4px;}.c{stroke-width:0px;}</style></defs><rect class="c" x="0" width="192" height="240"/><path class="b" d="M7.88,226.79c3.92.04,7.77,1.17,11.4,2.56,2,.21,4.13.05,6.14.1,2.89-.05,5.88.11,8.77-.08,10-5.31,9.89-8.87,22.8-8.84,5.07.06,10.07,1.28,14.91,2.73,4.01,1.17,8.07,2.58,12.28,2.83,3.49.26,7.08.39,10.52,1.12,1.43.3,3,.72,4.38,1.18,1.11.31,2.34,1.02,3.51,1.05,5.25,0,10.54,0,15.78,0,3.19,0,6.46,0,9.64,0,1.7-.09,3.61.24,5.26-.26,2.54-.66,5.26-1.07,7.89-1.01,2.01.09,4.13.41,6.14.19,3.96-.34,7.78-1.8,11.4-3.38,4.93-2.05,10.3-5.15,15.78-3.57,3.08,1.13,6.38,1.91,9.64,2.24"/><path class="b" d="M7.88,221.74c2.61-.1,5.32.08,7.89.59,3.46.71,6.95,1.82,10.52,1.75,7.68.07,13.39-5.79,20.17-8.42,2.52-.74,5.28-.91,7.89-1.01,8.18-.27,15.97,2.63,23.67,4.99,3.08,1.04,6.42,1.24,9.65,1.07,4.96-.26,10.01-.47,14.91.55,4.43.7,8.64,2.85,13.15,2.96,5.61.02,11.08-1.74,16.66-2.16,2.59-.23,5.3-.22,7.89.03,2.01.18,4.11.64,6.14.64,3.57.05,7.15-.79,10.52-1.9,5.62-1.73,11.55-4.92,17.54-3.13,3.07,1.15,6.37,1.89,9.64,2.08"/><path class="b" d="M7.88,218.11c2.59-.44,5.27-.88,7.89-1,4.69-.07,9.48-.17,14.03-1.42,5.4-1.33,10.37-4.13,15.78-5.39,4.61-.75,9.4-.47,14.03,0,7.58.79,14.69,3.72,21.92,5.9,4.37.9,8.88-.13,13.15-1.1,4.02-.92,8.13-1.85,12.28-1.86,2.92-.06,5.85.73,8.77.67,4.37-.03,8.79-.47,13.15-.06,4.76.37,9.4,1.74,14.03,2.83,4.61,1.1,9.46.6,14.03-.48,5.7-1.24,11.73-3.57,17.54-1.65,3.06,1.19,6.36,2.01,9.64,2.2"/><path class="b" d="M7.88,214.94c2.33-.84,4.69-1.92,7.01-2.77,2.31-.77,4.74-1.52,7.01-2.37,5.97-2.18,12.05-4.45,18.41-5.08,4.67-.55,9.38.23,14.03.65,7.77.72,15.54,2.17,22.8,5.1,8.25,4.07,13.83,2.65,21.92-.83,3.39-1.41,6.85-3.02,10.52-3.53,2.6-.2,5.3-.2,7.89-.51,8.99-1.05,14.75,1.22,22.8,4.69,4.4,1.87,9.3,2.38,14.03,1.88,6.38-.54,12.95-2.59,19.29-.75,3.39,1.24,6.89,2.51,10.52,2.81"/><path class="b" d="M7.88,210.4c.91.1,1.95-.19,2.63-.79,1.11-.75,2.39-1.67,3.51-2.42,6.98-3.92,13.57-10.09,21.92-10.46,3.89-.17,7.7,1.02,11.4,2.06,2.57.71,5.27,1.24,7.89,1.7,6.17,1.06,12.47,1.9,18.41,3.97,4.48,1.39,8.44,4.4,13.15,5.03,7.4,1.19,13.81-3.48,20.17-6.48,3-1.48,6.46-1.69,9.64-2.58,10.32-2.8,15.64.26,24.55,4.85,3.79,1.86,8.08,2.6,12.28,2.6,5.54.05,11.14-.91,16.66-.08,3.05.3,5.82,1.98,8.77,2.6,1.7,0,3.56,0,5.26,0"/><path class="b" d="M7.88,205.64l.88-.1c2.06-1.73,4.08-3.74,6.14-5.47,2.04-1.59,4.2-3.25,6.14-4.96,5.64-4.93,11.61-9.01,19.29-5.98,3.25,1.19,6.33,2.99,9.64,4.02,4.84,1.62,9.93,2.53,14.91,3.62,4.49.98,9.02,2.23,13.15,4.27,2.32,1.16,4.63,2.6,7.01,3.64,1.34.65,2.88,1.12,4.38.95,9.46,0,8.09.7,16.66-3.9,2.44-1.43,5.23-2.28,7.89-3.17,2.3-.89,4.65-1.97,7.01-2.71,8.11-2.77,14.15.94,21.04,4.74,3.5,1.86,7.47,2.81,11.4,3.13,4.94.43,9.98.13,14.91.83,1.74.2,3.55.76,5.26,1.09,3.48,0,7.04,0,10.52,0"/><path class="b" d="M7.88,199.08c2.37-2.17,4.61-4.69,7.01-6.83,2.03-1.65,4.21-3.34,6.14-5.11,5.66-5.11,11.57-9.21,19.29-5.65,2.96,1.26,5.75,3.09,8.77,4.24,5.39,2.17,11.07,3.61,16.66,5.16,4.79,1.34,9.62,2.9,14.03,5.23,2.03,1.08,4.1,2.37,6.14,3.44.77.4,1.83.92,2.63,1.26.78.06,1.85.05,2.63.05,3.78,0,7.62,0,11.4,0,2.09-.61,4.13-1.76,6.14-2.59,1.67-.76,3.6-1.26,5.26-2.06,3.2-1.51,6.28-3.48,9.64-4.61,7.6-2.8,13.79,1.26,20.17,4.92,3.78,2,8.05,3.03,12.28,3.55,4.06.48,8.18.93,12.28.8,5.25,0,10.54,0,15.78,0"/><path class="b" d="M7.88,191.73c2.31-2.37,4.54-5.02,7.01-7.23,1.68-1.38,3.61-2.71,5.26-4.13,4.59-3.89,10.26-8.33,16.66-6.65,4.09.96,7.57,3.55,11.4,5.15,6.04,2.5,12.24,4.68,18.41,6.82,5.02,1.79,10.14,3.54,14.91,5.94,2.62,1.4,5.22,3.07,7.89,4.38,1.09.18,2.41.09,3.51.11,4.07,0,8.2,0,12.28,0,1.4,0,2.98,0,4.38,0,2.12-.41,4.25-1.3,6.14-2.33,3.42-1.87,6.77-4.12,10.52-5.3,7.45-2.47,13.08,1.45,19.29,4.94,3.27,1.51,6.86,2.92,10.52,2.7,9.34,0,18.71,0,28.06,0"/><path class="b" d="M7.88,185.78c2.27-2.45,4.49-5.18,7.01-7.38,1.65-1.32,3.59-2.54,5.26-3.84,4.45-3.43,9.93-6.92,15.78-5.39,4.09.95,7.6,3.49,11.4,5.16,6.12,2.37,12.25,4.8,18.41,7.07,5.21,1.97,10.59,3.62,15.78,5.63,2.06.9,4.15,2.05,6.14,3.08.77.4,1.82.95,2.63,1.25.44,0,1.32,0,1.75,0,8.17-.03,16.38.07,24.55-.04,3.99-2.05,7.87-4.6,12.28-5.67,5.68-1.53,11.06.77,15.78,3.81,1.35.71,2.9,1.53,4.38,1.91,1.4,0,2.98,0,4.38,0,10.22,0,20.47,0,30.69,0"/><path class="b" d="M7.88,181.6c2.27-2.36,4.48-4.99,7.01-7.08,1.34-1.04,2.98-1.97,4.38-2.92,3.89-2.58,8.31-5.2,13.15-4.79,4.83.37,8.94,3.29,13.15,5.4,4.81,2.09,9.95,3.5,14.91,5.2,6.34,2.04,12.81,3.75,19.29,5.27,3.59.87,7.05,2.38,10.52,3.62,1.04.48,2.4.25,3.51.3,2.01,0,4.13,0,6.14,0,5.54,0,11.12,0,16.66,0,.43,0,1.32,0,1.75,0,1.16-.25,2.41-.93,3.51-1.38,2.24-.97,4.63-1.93,7.01-2.51,5.07-1.38,10.54-.28,14.91,2.58.75.43,1.81,1.02,2.63,1.31,2,0,4.13,0,6.14,0,10.51,0,21.05,0,31.57,0"/><path class="b" d="M7.88,178.92c2.3-2.11,4.53-4.5,7.01-6.39,1.91-1.33,4.1-2.49,6.14-3.61,5.53-3.07,11.05-3.29,16.66-.31,2.96,1.46,5.75,3.41,8.77,4.74,10.42,3.65,21.55,4.57,32.44,5.91,5.84.77,11.67,1.95,17.54,2.5,2.89.15,5.87.02,8.77.06,3.19-.02,6.46.05,9.65-.03,2.64-.46,5.31-1.24,7.89-1.94,7.03-2.09,14.52-2.94,21.04,1.14.38.25,1.32.67,1.75.83.41,0,1.33,0,1.75,0,1.7,0,3.56,0,5.26,0,10.51,0,21.05,0,31.57,0"/><path class="b" d="M7.88,176.79c3.15-2.4,6.05-5.34,9.64-7.1,5.2-2.97,10.89-4.76,16.66-2.25,4.93,1.89,8.94,5.79,14.03,7.3,11.19,3.04,22.82.27,34.2,1.19,7.32.11,14.62-.89,21.92-1.2,3.48-.22,7.04,0,10.52-.18,4.1-.27,8.19-1.04,12.28-1.45,4.38-.45,8.96-.39,13.15,1.11,2.11.7,4.09,2.02,6.14,2.86,4.07,0,8.2,0,12.28,0,8.47,0,16.96,0,25.43,0"/><path class="b" d="M7.88,172.31c1.17,0,2.61.17,3.51-.74,1.67-1.16,3.44-2.44,5.26-3.36,5.1-2.81,10.89-5.08,16.66-2.89,3.11,1.07,5.97,2.92,8.77,4.62,1.37.83,2.91,1.72,4.38,2.34.79.04,1.84.03,2.63.03,7.3,0,14.62,0,21.92,0,2.3-.25,4.7-.62,7.01-.67,2.01-.02,4.14.04,6.14-.16,7.04-.63,13.98-2.33,21.04-2.73,3.48-.28,7.04.07,10.52-.13,4.68-.25,9.35-1.09,14.03-1.32,5.12-.33,10.39.51,14.91,3.03,1.41.61,2.86,1.69,4.38,1.96,3.48,0,7.04,0,10.52,0,8.17,0,16.38,0,24.55,0"/><path class="b" d="M7.88,167.55c1.11,0,2.4,0,3.51,0,1.22.11,2.46-.09,3.51-.74,5.25-2.39,10.66-5.72,16.66-4.97,4.78.54,8.93,3.25,13.15,5.34.75.46,1.79.38,2.63.37,1.1,0,2.4,0,3.51,0,7.59,0,15.21,0,22.8,0,2.6,0,5.29,0,7.89,0,2.04.05,4.17.05,6.14-.55,5.17-1.22,10.45-2.38,15.78-2.39,4.38-.13,8.77.78,13.15.61,6.75-.15,13.4-2.14,20.17-1.86,4.69.11,8.91,2.45,13.15,4.19,11.39,0,22.8,0,34.2,0"/><path class="b" d="M7.88,162.79c2.3-.06,4.72.13,7.01-.11,1.77-.55,3.58-1.37,5.26-2.14,9.85-4.84,15.02-3.92,24.55.81,1.08.49,2.38,1.04,3.51,1.4,1.1.05,2.4.02,3.51.03,2.6,0,5.29,0,7.89,0,7.59,0,15.21,0,22.8,0,2.3-.02,4.71.05,7.01-.04,3.38-1.06,6.97-1.79,10.52-1.7,3.86,0,7.62,1.18,11.4,1.74,4.66-.06,9.38.12,14.03-.08,5.75-1.03,11.67-3.3,17.54-1.87,1.4.39,2.98.83,4.38,1.23,1.38.43,2.92.86,4.38.72,10.81,0,21.64,0,32.44,0"/><path class="b" d="M7.88,155.53c11.46,3.76,16.95-7.92,30.69-3.29,2.38.78,4.73,1.92,7.01,2.94,2.01.89,4.21,1.64,6.14,2.7,2.57.33,5.3.06,7.89.14,4.66,0,9.37,0,14.03,0,5.83,0,11.7,0,17.54,0,1.12.08,2.41-.18,3.51-.38,1.7-.23,3.56-.22,5.26.04,1.68.43,3.54.34,5.26.34,2.3,0,4.71,0,7.01,0,6.71,0,13.46,0,20.17,0,17.23-.07,34.49.04,51.73,0"/><path class="b" d="M7.88,146.25c2.48.91,5.23,1.63,7.89,1.21,4.98-1.04,9.72-3.58,14.91-3.53,4.68-.07,9.08,1.95,13.15,4.05,3.24,1.65,6.75,2.96,9.64,5.22,43.54.21,87.1,0,130.64.07"/><path class="b" d="M7.88,137.13c6.49,2.05,8.67.87,14.91-.4,7.68-1.64,13.89,1.4,20.17,5.47,3.42,2.21,7.37,3.67,10.52,6.31h130.64"/><path class="b" d="M7.88,129.54c2,.25,4.12.5,6.14.47,1.73-.02,3.55-.44,5.26-.63,6.88-1.08,13.01,1.51,18.41,5.58,2.89,2.06,5.69,4.43,8.77,6.21.77.43,1.84.92,2.63,1.3.79.39,1.76,1.07,2.63,1.27,4.66,0,9.37,0,14.03,0,39.45,0,78.91,0,118.37,0"/><path class="b" d="M7.88,123.69c3.5-.04,7.04-.24,10.52-.6,5.92-.32,11.31,2.81,15.78,6.4,4.07,3.14,7.73,7.01,12.28,9.5,4.66,0,9.37,0,14.03,0,41.21,0,82.42,0,123.63,0"/><path class="b" d="M7.88,119.69c3.47-.37,7.03-.82,10.52-.9,5.41.3,10,3.73,14.03,7.05,2.34,1.95,4.68,4.11,7.01,6.06.78.64,1.82,1.49,2.63,2.08.77.32,1.82.25,2.63.25,3.78,0,7.62,0,11.4,0,42.67,0,85.34,0,128.01,0"/><path class="b" d="M7.88,117.18c3.46-.41,7.03-.95,10.52-.88,8.49,1.18,14.21,8.76,21.04,13.17h144.67"/><path class="b" d="M7.88,115.36c3.48-.26,7.04-.78,10.52-.7,5.34.68,9.75,4.24,14.03,7.24,1.4.9,2.78,2.3,4.38,2.81,1.11,0,2.4,0,3.51,0,3.48,0,7.04,0,10.52,0,44.42,0,88.85,0,133.28,0"/><path class="b" d="M7.88,113.07c3.19-.2,6.46-.45,9.64-.69,6.29.2,11.47,4.47,16.66,7.56h149.93"/><path class="b" d="M7.88,111.28c2.31.07,4.71.13,7.01-.05,2-.25,4.13-.44,6.14-.1,2.7.4,5.38,1.34,7.89,2.37,1.42.5,2.88,1.48,4.38,1.68,2.31,0,4.71,0,7.01,0,47.93,0,95.87,0,143.8,0"/><path class="b" d="M7.88,110.05c2.86.57,5.87.37,8.77.33,2.87-.44,5.87-.51,8.77-.25,5.22.6,10.54.18,15.78.3,8.76,0,17.55,0,26.3,0,24.84,0,49.69,0,74.53,0,6.42,0,12.87,0,19.29,0,2.61-.75,5.17-2.05,7.89-2.44,3.66-.8,7.19.87,10.52,2.17,1.34.49,2.98.18,4.38.26"/><path class="b" d="M7.88,105.66c37.12,0,74.24,0,111.35,0,8.47,0,16.96,0,25.43,0,4.07-.08,8.22.17,12.28-.11,1.69-.96,3.52-2,5.26-2.87,6.7-3.31,10.28-3.39,16.66.73,1.66.82,3.3,2.44,5.26,2.25"/><path class="b" d="M7.88,100.9c36.24,0,72.49,0,108.72,0,8.17,0,16.38,0,24.55,0,3.77-.1,7.65.21,11.4-.14,2.04-1.11,4.13-2.41,6.14-3.57,5.54-3.31,11.78-5.73,17.54-1.39,1.43.95,2.99,2.09,4.38,3.09,1.06.67,2.24,1.79,3.51,2.01"/><path class="b" d="M7.88,96.14c34.19,0,68.39,0,102.59,0,3.78,0,7.62,0,11.4,0,3.77-.53,7.56-1.48,11.4-1.44,3.81-.13,7.62.67,11.4.87,2.09-.06,4.23-.76,6.14-1.59,7.09-3.09,14.81-9.46,22.8-5.58,3.75,1.96,6.88,5.05,10.52,7.19"/><path class="b" d="M7.88,91.38c31.27,0,62.55,0,93.82,0,3.78,0,7.62,0,11.4,0,1.4,0,2.98,0,4.38,0,1.74-.35,3.56-.94,5.26-1.44,4.25-1.32,8.68-2.39,13.15-2.33,3.51-.13,7.03,1.03,10.52.69,8.42-1.18,15.71-8.12,24.55-6.53,4.95.97,8.73,4.76,13.15,6.93"/><path class="b" d="M7.88,86.62c30.39,0,60.79,0,91.19,0,1.71-.03,3.56.08,5.26-.07,1.08-.29,2.4-.57,3.51-.72,2.29-.37,4.72.1,7.01-.22,5.29-.72,10.42-2.63,15.78-2.88,3.5-.23,7.07.16,10.52.69,3.18.62,6.52.54,9.64-.35,7.78-1.97,15.38-7.27,23.67-5.26,3.25.91,6.39,2.42,9.64,3.33"/><path class="b" d="M7.88,81.86c28.93,0,57.87,0,86.8,0,.78,0,1.85,0,2.63-.02.78-.21,1.85-.48,2.63-.66,2.28-.54,4.69-.99,7.01-1.26,2.59-.34,5.3-.18,7.89-.49,3.77-.45,7.59-1.15,11.4-1.15,5.34-.1,10.55,1.44,15.78,2.25,3.18.44,6.5.29,9.64-.37,7.59-1.43,14.22-6.19,21.92-7.13,3.48-.16,7.04.2,10.52.18"/><path class="b" d="M7.88,77.1c25.42,0,50.86,0,76.28,0,2.68.18,5.26-1.1,7.89-1.42,4.03-.72,8.19-.82,12.28-.78,2.6.01,5.3.03,7.89-.23,4.06-.44,8.19-1.08,12.28-.74,3.26.23,6.52,1.04,9.64,1.96,1.98.53,4.05,1.41,6.14,1.22,3.19,0,6.46,0,9.64,0,1.7-.08,3.61.22,5.26-.25,5.99-1.56,11.13-5.25,16.66-7.88,3.93-1.64,8.17-2.65,12.28-3.76"/><path class="b" d="M7.88,72.34c16.36,0,32.74,0,49.1,0,6.71,0,13.46,0,20.17,0,3.62-1.63,7.4-3.22,11.4-3.56,6.6-.77,12.85,2.07,19.29,2.88,2.63.32,5.31-.35,7.89-.73,2.87-.46,5.87-.72,8.77-.49,2.03.15,4.16.54,6.14,1.03,1.4.3,2.93.97,4.38.87,4.95,0,9.95,0,14.91,0,2.89-.08,5.9.18,8.77-.13,4.81-1.94,8.89-5.33,13.15-8.22,3.9-2.41,8.04-4.68,12.28-6.47"/><path class="b" d="M7.88,67.58c4.37-.03,8.79.06,13.15-.04,5.34-1.81,11.06-2.21,16.66-2.14,2.6,0,5.29.06,7.89-.09,2.61-.28,5.32-.51,7.89.18,2.9.64,5.82,1.57,8.77,1.98,2.88.2,5.94.31,8.77-.38,3.92-.87,7.53-2.9,11.4-3.93,6.48-1.73,12.82,1.38,18.41,4.37,6.12.13,12.29,0,18.41.05,8.47-.03,16.96,0,25.43,0,3.78,0,7.62.02,11.4-.01,2.11-.5,4.25-1.4,6.14-2.47,3.75-2.12,7.07-5.04,10.52-7.59,3.65-2.45,7.34-5.08,11.4-6.82"/><path class="b" d="M7.88,62.82c2.31,0,4.71,0,7.01,0,1.41-.07,3.02.19,4.38-.22,2.83-1.27,5.8-2.42,8.77-3.31,7.09-2.07,14.56-3.03,21.92-3.39,3.93.31,7.62,2.02,11.4,3,14,3.93,18.02-4.6,28.93.73,1.79.86,3.62,1.98,5.26,3.09,2.88.23,5.88.04,8.77.1,6.12,0,12.29,0,18.41,0,3.48,0,7.04,0,10.52,0,3.79-.46,7.65-.87,11.4-1.57,4.06-.43,8.26.04,12.28-.87,5.58-1.15,10.33-4.58,14.91-7.79,3.9-2.55,7.86-5.3,12.28-6.88"/><path class="b" d="M7.88,58.06c2.31,0,4.71,0,7.01,0,1.41-.06,3.07.23,4.38-.42,9.14-3.44,18.21-7.83,28.06-8.72,5.41-.44,10.54,1.94,15.78,2.84,4.89,1.02,9.95.76,14.91.53,4.13-.39,8.07,1.39,11.4,3.7,2.98,2.1,2.36,2.18,6.14,2.07,13.15-.03,26.31.05,39.46-.03,2.29-.67,4.72-1.26,7.01-1.94,2.51-.88,5.24-1.3,7.89-1.44,7.97-.23,14.03-1.6,21.04-5.56,4.3-2.21,8.46-5,13.15-6.3"/><path class="b" d="M7.88,53.29c2.9,0,5.87,0,8.77,0,4.55-.61,8.95-2.31,13.15-4.1,6.43-2.67,12.95-6.67,20.17-5.94,5.26.47,10.5,1.57,15.78,1.92,4.96.45,10.12.28,14.91,1.81,3.28,1.24,6.1,3.59,8.77,5.81.44.33,1.2.6,1.75.49.78,0,1.85,0,2.63,0,9.93,0,19.88,0,29.81,0,3.19,0,6.46,0,9.64,0,1.4-.02,2.99.07,4.38-.07,1.1-.37,2.42-.82,3.51-1.23,7.41-3.64,15.77-2.99,23.67-4.59,3.28-.66,6.56-1.69,9.65-2.99,3.13-1.33,6.29-2.89,9.64-3.56"/><path class="b" d="M7.88,48.24c3.46-.71,7.03-.52,10.52-.31,7.01.09,13.26-3.56,19.29-6.7,3.24-1.62,6.8-3.33,10.52-3.01,4.65.42,9.36.6,14.03.65,4.68.08,9.5.09,14.03,1.41,4.9,1.27,8.66,4.92,12.28,8.26,11.39,0,22.8,0,34.2,0,4.07,0,8.2,0,12.28,0,1.1,0,2.41,0,3.51,0,1.17.1,2.48-.08,3.51-.67,9.33-5.11,17.13-4.27,27.18-5.06,5.15-.37,9.83-2.95,14.91-3.72"/><path class="b" d="M7.88,41.47c9.24-1.24,11.16,4.39,21.92-.34,5.37-2.27,9.98-6.47,15.78-7.65,2.3-.33,4.7.32,7.01.28,3.49.1,7.04-.14,10.52-.23,11.51-.36,16.55,2.14,24.55,10.17,16.94.21,33.91,0,50.85.07,1.1,0,2.41.03,3.51-.04,1.41-.67,2.95-1.52,4.38-2.14,2.76-1.24,5.76-2.18,8.77-2.59,5.53-.85,11.12.41,16.66.29,4.16-.17,8.14-1.85,12.28-2.27"/><path class="b" d="M7.88,35.05c9.33-.39,11.05,6.46,21.92,1.67,5.71-2.42,10.37-7.49,16.66-8.44,1.41-.1,2.98.22,4.38.29,2,.13,4.13.16,6.14.16,6.46-.03,13.18-.25,19.29,2.18,4.44,1.6,7.92,4.96,11.4,8.02,9.92.27,19.89.01,29.81.1,4.37,0,8.79,0,13.15,0,2.6-.08,5.32.22,7.89-.25,3.07-.49,5.87-2.08,8.77-3.1,3.07-1.1,6.38-1.76,9.65-1.74,5.63-.07,11.05,2.14,16.66,2.11,3.52-.19,7.01-1.22,10.52-1.51"/><path class="b" d="M7.88,31.01c2.07.21,4.22.74,6.14,1.55,1.44.46,2.81,1.84,4.38,1.7,2.01,0,4.13,0,6.14,0,1.11-.03,2.42.1,3.51-.15,1.15-.52,2.45-1.26,3.51-1.94,3.9-2.51,7.34-5.82,11.4-8.1,1.84-1.04,4.02-1.64,6.14-1.4,2.01.07,4.13.09,6.14.13,10.34.15,21.54,1.62,29.81,8.34,1.41.98,2.75,2.52,4.38,3.12,3.19,0,6.45,0,9.64,0,5.54,0,11.12,0,16.66,0,1.14-.04,2.4-.61,3.51-.86,1.69-.44,3.54-.81,5.26-1.08,7-1.02,14.17-.97,21.04-2.79,4.92-1.03,10.09-.74,14.91.69,11.52,3.53,11.15,4.7,23.67,2.8"/><path class="b" d="M7.88,28.94c1.38.46,2.94.64,4.38.55,1.71,0,3.55,0,5.26,0,4.95,0,9.95,0,14.91,0,4.68-3.41,8.51-8.35,14.03-10.45,7.48-1.31,15.39-1.77,22.8.25,4.14,1.16,8.3,2.6,12.28,4.23,3.36,1.68,6.41,4.07,9.64,5.96,7.88.02,15.79,0,23.67,0,5.51-1.9,10.88-4.49,16.66-5.56,6.04-1.23,12.35-1.14,18.41-.1,5.54.95,10.69,3.4,15.78,5.66,6.12,0,12.29,0,18.41,0"/><path class="b" d="M7.88,24.73c9.05,0,18.13,0,27.18,0,1.76,0,3.08.28,4.38-1.15,1.9-1.58,3.95-3.25,6.14-4.43,2.17-1.12,4.72-1.52,7.01-2.28,4.79-1.48,9.92-2.33,14.91-1.42,2.96.49,5.9,1.45,8.77,2.33,1.99.65,4.18,1.02,6.14,1.74,4.13,1.54,8.05,3.76,12.28,5.04,2.85.41,5.88.06,8.77.17,2.89-.12,5.92.27,8.77-.22,7.84-2,14.58-7.5,22.8-8.17,5.54-.59,10.72,1.99,15.78,3.85,2.03.81,4.16,1.73,6.14,2.66,1.41.57,2.87,1.61,4.38,1.89,7.59,0,15.21,0,22.8,0"/><path class="b" d="M7.88,19.97c12.27,0,24.56,0,36.83,0,1.71-.03,3.56.07,5.26-.07,3.46-1.68,6.85-3.73,10.52-4.93,5.42-1.97,11.22-.89,16.66.39,4.67.69,9.36,1.59,14.03,2.33,5.22.79,10.55.57,15.78.04,2.9-.32,5.97-.14,8.77-1.1,6.39-2.05,12.35-6.27,19.29-6.08,3.85.01,7.32,1.91,10.52,3.86,2.55,1.42,5.26,2.75,7.89,3.99,1.09.5,2.37,1.16,3.51,1.55,2.89,0,5.87,0,8.77,0,6.12,0,12.29,0,18.41,0"/></svg>