<?xml version="1.0" encoding="UTF-8"?><svg id="a" xmlns="http://www.w3.org/2000/svg" width="1920" height="2400" viewBox="0 0 192 240"><defs><style>.b{fill:none;stroke:#fff;stroke-miterlimit:10;stroke-width:.4px;}.c{stroke-width:0px;}</style></defs><rect class="c" width="192" height="240"/><path class="b" d="M8.84,231.55c21.95-.06,43.94.03,65.91,0,7.51,0,15.04,0,22.55,0,3.15-.06,6.4.13,9.54-.09,2.33-.99,4.6-2.39,6.94-3.35,5.68-2.47,11.54-.74,16.48,2.54,1.23,1.09,2.82.93,4.34.91,1.98,0,4.09,0,6.07,0,6.06,0,12.16,0,18.21,0,5.77,0,11.58,0,17.35,0,.93-.36,1.86-1.36,2.6-1.99,1.34-1.18,2.9-2.47,4.34-3.55"/><path class="b" d="M8.84,226.84c20.81,0,41.63,0,62.45,0,8.95,0,17.93,0,26.89,0,4.88-.66,9.44-2.9,13.88-4.94,6.29-2.96,12.51-1.5,18.21,2.03,1.1.65,2.39,1.46,3.47,2.14.64.55,1.76.87,2.6.77,4.32,0,8.69,0,13.01,0,6.06,0,12.16,0,18.21,0,4.11-.05,3.61.61,6.94-2.38,2.69-2.25,5.57-4.49,8.67-6.15"/><path class="b" d="M8.84,222.13c17.92,0,35.85,0,53.77,0,7.22,0,14.47,0,21.68,0,2.29-.05,4.65-.66,6.94-.89,5.61-.71,11.15-2.08,16.48-3.96,8.27-3.29,13.75-2.87,21.68,1.14,2.3,1.15,4.64,2.48,6.94,3.65,5.18.17,10.42.01,15.61.06,3.15,0,6.39,0,9.54,0,1.08,0,2.39,0,3.47,0,.82.02,1.93.11,2.6-.49,4.99-3.5,9.55-8.02,15.61-9.59"/><path class="b" d="M8.84,217.42c17.05,0,34.12,0,51.17,0,7.22,0,14.47,0,21.68,0,7.24-1.72,14.51-3.6,21.68-5.64,9.46-2.83,14.25-2.66,23.42,1.16,2.29.94,4.66,2.02,6.94,3,1.37.49,2.85,1.47,4.34,1.47,8.66,0,17.35,0,26.02,0,1.22-.21,2.41-1.14,3.47-1.73,2.31-1.43,4.64-3.06,6.94-4.51,2.59-1.59,5.66-2.48,8.67-2.75"/><path class="b" d="M8.84,210.51c2.02-.08,4.17.2,6.07.91,1.19.33,2.24,1.45,3.47,1.3,11.85,0,23.71,0,35.56,0,6.06,0,12.16,0,18.21,0,1.99,0,4.09,0,6.07,0,1.1-.05,2.44.18,3.47-.28,6.47-2.01,12.7-4.78,19.08-7.03,9.07-3.26,13.92-2.24,22.55,1.48,5.09,2.16,10.27,4.25,15.61,5.73,8.94.25,17.94.01,26.89.09,1.17.15,2.45-.42,3.47-.94,1.4-.67,2.96-1.47,4.34-2.19,2.86-1.64,6.28-2.11,9.54-2.13"/><path class="b" d="M8.84,202.43c4.34.03,8.34,2.3,11.27,5.4,1.07.3,2.37.15,3.47.18,1.99,0,4.08,0,6.07,0,5.77,0,11.58,0,17.35,0,5.19,0,10.42,0,15.61,0,1.64-.52,3.48-.84,5.2-.85,3.18-.06,6.36.81,9.54.81,7.35-.55,15.03-6.22,21.68-9.3,7.7-3.78,12.31-3.82,19.95.09,4.51,2.21,9.06,4.53,13.88,6.03,2.54.82,5.23,1.46,7.81,2.14,1.4.3,2.9,1.03,4.34,1.07,12.71,0,25.45,0,38.16,0"/><path class="b" d="M8.84,193.83c6.46-.01,10.87,4.69,14.74,9.27,1.36.36,2.94.13,4.34.19,2.28,0,4.66,0,6.94,0,6.64,0,13.31,0,19.95,0,1.39-.02,2.95.05,4.34-.05,2.38-1.29,5.09-2.18,7.81-2.31,6.92-.19,10.42,2.5,17.35-1.05,8-3.49,16.38-12.53,25.15-12.56,5.72.47,10.54,4.2,15.61,6.54,5.19,2.71,10.88,4.27,16.48,5.86,1.74.52,3.57,1.26,5.2,2.05,1.09.47,2.28,1.33,3.47,1.51,2.57,0,5.23,0,7.81,0,8.37,0,16.78,0,25.15,0"/><path class="b" d="M8.84,185.04c9.5-.75,14.54,8,20.81,13.55,8.95,0,17.93,0,26.89,0,1.17.13,2.4-.27,3.47-.7,1.36-.45,2.92-.82,4.34-1.01,4.03-.59,8.11.29,12.14.3,4.86-.02,9.14-2.9,13.01-5.56,4-2.81,7.84-6.03,12.14-8.38,3.84-2.17,7.93-2.96,12.14-1.36,4.68,1.51,9.2,3.64,13.88,5.17,4.55,1.58,9.34,2.57,13.88,4.21,2.8.99,5.41,2.66,7.81,4.39.77.56,1.84,1.35,2.6,1.93.61.6,1.71,1.16,2.6,1,9.53,0,19.09,0,28.62,0"/><path class="b" d="M8.84,177.5c3.17-.48,6.58-.33,9.54,1.01,5.56,2.66,9.89,7.29,14.74,10.99,2.16,1.6,4.41,3.43,6.94,4.38,1.69,0,3.51,0,5.2,0,6.93,0,13.89,0,20.81,0,4.32-.14,8.8.46,13.01-.72,7.24-2.28,12.72-8,19.08-11.89,4.06-2.59,9-4.78,13.88-3.48,3.43.72,6.94,1.4,10.41,1.94,11.24,1.75,18.83,1.97,27.75,10.04,1.71,1.3,3.3,3.11,5.2,4.11,2.86,0,5.81,0,8.67,0,6.35,0,12.73,0,19.08,0"/><path class="b" d="M8.84,172.2c11.93-3.34,19.89,2.12,28.62,9.51,4.98,4.15,9.62,7.89,16.48,7.46,6.35,0,12.73,0,19.08,0,1.99,0,4.09,0,6.07,0,3.07-1.1,5.94-2.89,8.67-4.65,4.43-2.85,8.86-5.98,13.88-7.71,2.47-.85,5.19-1.3,7.81-1.1,2.85.38,5.78.86,8.67.74,7.23-.17,14.84-1.29,21.68,1.7,5.54,2.39,9.91,6.79,14.74,10.29,1.09,1.13,2.93.63,4.34.73,1.98,0,4.09,0,6.07,0,6.06,0,12.16,0,18.21,0"/><path class="b" d="M8.84,169.24c4.23-1.36,8.59-2.45,13.01-2.96,6.98-1.03,12.69,3.3,17.35,7.95,3.43,3.34,6.77,7.05,11.28,8.91.78.4,1.8.98,2.6,1.32,2.28,0,4.66,0,6.94,0,5.19,0,10.42,0,15.61,0,1.09-.01,2.38.05,3.47-.07,2.04-.89,4.13-1.96,6.07-3.04,4.42-2.43,8.94-4.95,13.88-6.14,2.81-.69,5.79-.91,8.67-.69,2,.11,4.07.63,6.07.67,3.49.05,6.98-.75,10.41-1.26,13.71-2.3,18.01,3.3,28.62,9.86.92.76,2.35.69,3.47.67,1.69,0,3.52,0,5.2,0,7.22,0,14.47,0,21.68,0"/><path class="b" d="M8.84,167.8c3.17-1.01,6.37-2.19,9.54-3.2,1.98-.73,4.02-1.65,6.07-2.18,8.61-2.52,14.66,5.67,19.95,11.08,1.52,1.59,3.31,3.14,5.2,4.27,1.1.62,2.19,1.8,3.47,1.99,4.61,0,9.27,0,13.88,0,2.28,0,4.66,0,6.94,0,1.41-.12,3.2.37,4.34-.48,12.18-6.08,18.16-9.17,32.09-6.36,4.32.9,8.73-.21,13.01-.83,4.01-.61,8.22-.67,12.14.48,3.4.94,6.55,2.75,9.54,4.59,1.37.82,2.92,1.71,4.34,2.44.75.2,1.83.16,2.6.16,10.4,0,20.82,0,31.22,0"/><path class="b" d="M8.84,166.63c3.46-1.03,7-2.09,10.41-3.28,2.78-1.1,5.64-2.48,8.67-2.66,7.9-.34,12.81,7.06,18.21,11.66,3.82,3.25,3.97,2.68,8.67,2.69,3.74,0,7.54,0,11.27,0,2.86,0,5.81,0,8.67,0,1.49-.56,2.89-1.7,4.34-2.37,8.33-3.99,15.7-7.12,25.15-5.43,3.45.49,6.91,1.49,10.41,1.57,5.48.08,11.07-.57,16.48.62,3.28.67,6.5,1.87,9.54,3.26,1.4.64,2.95,1.39,4.34,2.06.71.38,1.82.3,2.6.3,11.85,0,23.71,0,35.56,0"/><path class="b" d="M8.84,165.49c4.27-1.27,8.69-2.12,13.01-3.19,9.21-2.51,15,2.27,21.68,7.77,1.91.55,4.1.13,6.07.26,3.74,0,7.54,0,11.27,0,2.57,0,5.23,0,7.81,0,1.09,0,2.38,0,3.47,0,.48-.18,1.33-.68,1.73-.99,3.15-2.34,6.8-3.91,10.41-5.38,5.69-2.53,11.96-4.19,18.21-3.35,3.49.39,6.96,1.33,10.41,1.96,4.34.77,8.76,1.43,13.01,2.61,3.22.87,6.43,2.03,9.54,3.23,1.97.61,3.97,1.93,6.07,1.91,13.87,0,27.76,0,41.63,0"/><path class="b" d="M8.84,163.39c6.16-1.65,12.87-2.18,19.08-.52,2.39.61,4.68,1.79,6.94,2.75,1.09,0,2.38,0,3.47,0,10.69,0,21.4,0,32.09,0,1.63.19,2.98-1.28,4.34-1.97,2.15-1.35,4.56-2.42,6.94-3.28,10.48-4.61,17.09-7.22,28.62-3.87,4.73,1.22,9.38,2.93,13.88,4.83,3.46,1.39,6.86,3.14,10.41,4.29,10.4,0,20.82,0,31.22,0,3.74,0,7.54,0,11.27,0,1.98-.09,4.13.21,6.07-.18"/><path class="b" d="M8.84,159.97c3.37-.81,6.99-.91,10.41-.29,2.02.35,3.97,1.48,6.07,1.23,7.8,0,15.62,0,23.42,0,8.37,0,16.78,0,25.15,0,2.59-.85,5.2-1.95,7.81-2.79,2.92-1.14,5.79-2.62,8.67-3.84,7.21-3.27,14.27-3.69,21.68-.76,3.85,1.43,7.58,3.33,11.27,5.1,1.08.52,2.38,1.13,3.47,1.63.72.37,1.78.77,2.6.66,4.03,0,8.11,0,12.14,0,5.77,0,11.58,0,17.35,0,4.32,0,8.69,0,13.01,0,1.68,0,3.52,0,5.2,0,2.1-.53,4.2-1.53,6.07-2.61"/><path class="b" d="M8.84,155.66c2.27-.39,4.67-.3,6.94.03,1.41.2,2.9.64,4.34.51,13,0,26.02,0,39.03,0,8.37,0,16.78,0,25.15,0,1.53-.08,2.95-1.25,4.34-1.83,1.95-.99,4.03-2,6.07-2.78,5.58-2.3,11.91-2.16,17.35.48,2.91,1.26,5.77,2.86,8.67,4.13,6.93,0,13.89,0,20.82,0,6.63-.07,13.32.15,19.95-.09,3.1-1.22,6.28-2.5,9.54-3.22,1.66-.39,3.52-.45,5.2-.68,2.32-.33,4.71-.94,6.94-1.66"/><path class="b" d="M8.84,151.5c19.08,0,38.16,0,57.24,0,8.66,0,17.36,0,26.02,0,1.45-.29,2.91-1.14,4.34-1.53,1.92-.62,4.05-1.03,6.07-1.05,2.34-.03,4.76.45,6.94,1.29.79.3,1.85.79,2.6,1.17,1.07.21,2.38.1,3.47.13,14.45,0,28.92.01,43.36,0,10.49-6.78,11.76-7.58,24.28-8.04"/><path class="b" d="M8.84,146.79c19.37,0,38.74,0,58.11,0,7.51,0,15.04,0,22.55,0,2.28,0,4.66,0,6.94,0,1.69-.21,3.49-.68,5.2-.61,2.02-.07,4.05.75,6.07.61,6.06,0,12.16,0,18.21,0,11.55-.09,23.15.17,34.69-.1,7.79-6.21,12.09-9.65,22.55-8.2"/><path class="b" d="M8.84,142.08c25.15,0,50.31,0,75.45,0,3.16,0,6.38,0,9.54,0,2.73-1.03,5.77-1.61,8.67-1.03,1.12.2,2.42.6,3.47,1.03,1.69.01,3.52,0,5.2,0,4.03,0,8.11,0,12.14,0,11.56,0,23.13,0,34.69,0,1.69,0,3.52,0,5.2,0,.87-.37,1.85-1.23,2.6-1.8,5.32-4.17,10.42-6.8,17.35-5"/><path class="b" d="M8.84,137.37h78.92c6.76-4.72,11.8-6.18,19.08-1.38.77.46,1.66,1.31,2.6,1.38,1.99,0,4.09,0,6.07,0,4.32,0,8.69,0,13.01,0,11.27,0,22.56,0,33.82,0,1.69,0,3.52,0,5.2,0,1.2-.46,2.37-1.49,3.47-2.14,3.63-2.51,7.78-3.72,12.14-2.57"/><path class="b" d="M8.84,132.66h72.85c3.18-2.41,6.03-5.45,9.54-7.4,7.57-4.47,13.68,1.52,19.08,6.36.63.68,1.65,1.2,2.6,1.04,1.09,0,2.38,0,3.47,0,3.16,0,6.38,0,9.54,0,15.03,0,30.07,0,45.1,0,1.29.22,2.46-.6,3.47-1.29,2.56-1.55,5.71-2.17,8.67-1.76"/><path class="b" d="M8.84,127.95c15.03,0,30.07,0,45.1,0,6.06,0,12.16,0,18.21,0,1.92.2,3.61-1.17,5.2-2.05,3.17-1.87,5.92-4.46,8.67-6.86,5.4-4.76,10.51-6.39,16.48-1.42,3.7,3.08,6.83,6.89,10.41,10.1,1.63.48,3.52.14,5.2.24,2.86,0,5.81,0,8.67,0,6.93,0,13.89,0,20.81,0,8.95,0,17.93,0,26.89,0,1.15-.35,2.33-1.22,3.47-1.62,1.61-.63,3.48-.99,5.2-1.01"/><path class="b" d="M8.84,123.24c13.29,0,26.6,0,39.9,0,4.61,0,9.27,0,13.88,0,1.69,0,3.51,0,5.2,0,2.08-.74,4.17-1.78,6.07-2.9,2.98-1.8,5.97-3.78,8.67-5.98,3.3-2.64,6.8-5.98,11.27-6.08,8.23.18,13.05,11.17,19.08,14.97,20.23-.08,40.49.16,60.71-.09,2.71-2.18,6.05-3.75,9.54-4.01"/><path class="b" d="M8.84,116.21c2.2.71,4.62,1.14,6.94.96,1.69-.19,3.5-.58,5.2-.64,3.47-.19,7.01.27,10.41.99,1.4.29,2.95.68,4.34,1.01,3.16,0,6.38,0,9.54,0,6.64,0,13.31,0,19.95,0,5.97-1.98,11.08-5.9,16.48-9.02,4.29-2.86,9.58-5.93,14.74-3.42,5.67,2.7,9.31,8.2,13.88,12.3,2.55.3,5.24.05,7.81.13,4.61,0,9.27,0,13.88,0,13.29,0,26.6,0,39.9,0,1.49-.83,2.85-2.2,4.34-3.04,2.08-1.27,4.51-2.2,6.94-2.51"/><path class="b" d="M8.84,108.39c4.35,1.73,7.71,1.11,12.14.57,3.46-.32,7.04-.09,10.41.77,3.87.95,7.56,2.65,11.27,4.05,5.77.12,11.58,0,17.35.04,1.69-.07,3.54.17,5.2-.16,3.63-1.45,7.02-3.57,10.41-5.49,15.73-8.56,20.26-4.79,32.96,5.63,15.32.05,30.65,0,45.97.02,4.03,0,8.11,0,12.14,0,1.39,0,2.95,0,4.34,0,.9.11,2-.18,2.6-.9,2.75-2.25,6.01-4.14,9.54-4.79"/><path class="b" d="M8.84,101.24c4.22,1.43,8.73.79,13.01.04,6.75-1.26,12.44.35,18.21,3.84,2.52,1.39,5.03,3.13,7.81,3.99,4.03,0,8.11,0,12.14,0,1.69-.07,3.54.17,5.2-.16,1.11-.43,2.4-1.01,3.47-1.54,7.79-4.07,12.47-6.89,21.68-5.17,5.85,1.15,11.1,4.17,16.48,6.59.74.34,1.81.27,2.6.27,1.39,0,2.95,0,4.34,0,4.32,0,8.69,0,13.01,0,7.8,0,15.62,0,23.42,0,8.08-.1,16.22.2,24.28-.11,2.54-1.99,5.49-3.72,8.67-4.41"/><path class="b" d="M8.84,94.86c3.42.56,7,.26,10.41-.27,2-.41,4.06-1.02,6.07-1.38,9.58-1.97,15.1,5.01,22.55,9.28,1.63.76,3.43,1.57,5.2,1.93,1.39,0,2.94,0,4.34,0,1.39,0,2.94,0,4.34,0,1.1-.04,2.43.16,3.47-.25,3.55-1.12,6.91-2.93,10.41-4.17,7.18-2.65,14.6,1.04,21.68,2.37,4.54,1.02,9.23,1.43,13.88,1.59,1.11,0,2.37.39,3.47.47,1.69,0,3.52,0,5.2,0,19.08,0,38.17,0,57.24,0,1.83-1.17,3.94-2.15,6.07-2.58"/><path class="b" d="M8.84,89.09c3.17.06,6.39-.55,9.54-.82,2.34-.41,4.65-1.36,6.94-1.96,8.78-2.69,14.47,3.35,20.81,8.26,5.43,3.9,12.45,6.19,19.08,4.44,3.83-.87,7.45-2.64,11.27-3.51,6.2-1.36,12.1,2.2,18.21,2.7,3.75.46,7.6.01,11.27-.76,3.69-.8,7.6-1.74,11.27-.37,1.12.36,2.42.92,3.47,1.45,1.03.53,2.24,1.37,3.47,1.19,12.42,0,24.87,0,37.29,0,4.32,0,8.69,0,13.01,0,1.68,0,3.52,0,5.2,0,1.06-.35,2.36-.76,3.47-.91"/><path class="b" d="M8.84,83.45c2-.04,4.09-.36,6.07-.58,1.7-.18,3.55-.11,5.2-.57,6.36-1.88,11.12-3.73,17.35-.05,4.28,2.41,7.71,6.23,12.14,8.39,7.12,3.8,13.34,3.77,20.82,1.07,3.34-1.08,6.84-2.43,10.41-2,10.57,1.84,13.89,4.2,25.15.76,8.96-3.07,13.64-1.4,21.68,2.98.77.42,1.83,1,2.6,1.43,1.97.26,4.09.06,6.07.12,4.03,0,8.11,0,12.14,0,7.22,0,14.47,0,21.68,0,4.32-.07,8.7.17,13.01-.13"/><path class="b" d="M8.84,77.4c1.99.12,4.08.09,6.07.16,1.69.06,3.51.38,5.2.11,4.02-.58,8.03-2.06,12.14-1.56,5.58.57,10.09,4.26,14.74,7.04,3.44,1.95,7.3,3.45,11.27,3.72,6.98.62,13.18-3.45,19.95-4.22,5.58-.17,10.89,2.47,16.48,2.49,7.46.46,14.25-3.89,21.68-3.58,8.83.19,15.99,6.22,24.28,8.37,1.95.47,4.08.35,6.07.36,3.15,0,6.39,0,9.54,0,8.95,0,17.93,0,26.89,0"/><path class="b" d="M8.84,71.28c3.47.72,6.92,1.91,10.41,2.51,3.18.28,6.39-.46,9.54-.76,2.87-.31,5.86-.23,8.67.44,6.85,1.54,12.71,6.57,19.95,6.49,4.18.07,8.25-1.25,12.14-2.64,4.13-1.52,8.61-2.94,13.01-1.75,4.84,1.08,9.72,2.64,14.74,2.33,4.13-.17,8.14-1.46,12.14-2.38,6-1.3,12.43-1.54,18.21.8,4.2,1.57,8.06,4.01,12.14,5.83,1.64.76,3.56,1.19,5.2,1.93,1.1.43,2.27,1.36,3.47,1.49,11.56,0,23.13,0,34.69,0"/><path class="b" d="M8.84,65.47c3.18,1.47,6.26,3.38,9.54,4.62,6.53,2,13.3-.83,19.95-.4,3.24.11,6.5.83,9.54,1.95,3.26,1.36,6.9,1.94,10.41,1.49,6.03-.68,11.44-3.88,17.35-5.06,2.58-.55,5.29-.13,7.81.54,5.35,1.47,10.88,3,16.48,2.3,4.94-.6,9.79-1.99,14.74-2.49,5.25-.95,10.82-.62,15.61,1.89,4.55,2.19,8.5,5.54,13.01,7.8,1.74.79,3.36,2.28,5.2,2.76,11.56,0,23.13,0,34.69,0"/><path class="b" d="M8.84,60.25c10.75,8.09,12.64,9.14,26.02,5.89,3.38-.76,6.94-1.4,10.41-.96,2.05.21,4.05,1.14,6.07,1.48,6.31,1.14,12.4-1.56,18.21-3.65,3.03-1.07,6.29-2.05,9.54-1.76,6.38,1.01,12.5,3.93,19.08,3.55,4.67-.09,9.23-1.49,13.88-1.83,3.44-.41,6.92-1.33,10.41-1.11,9.52.57,15.68,8.94,23.42,13.44,1.42,1.23,3.48.79,5.2.86,2.86,0,5.81,0,8.67,0,7.8,0,15.62,0,23.42,0"/><path class="b" d="M8.84,55.82c2.57,1.99,5.03,4.33,7.81,6.05,5.92,3.77,13.03,1.42,19.08-.75,3.32-1.11,6.86-2.21,10.41-1.85,2.03.23,4.03,1.14,6.07,1.29,5.38.59,10.6-1.35,15.61-3.05,3.33-1.11,6.85-2.22,10.41-2.01,3.25.29,6.39,1.53,9.54,2.32,3.37.91,6.92,1.45,10.41,1.3,4.95-.22,9.8-1.62,14.74-1.91,3.71-.56,7.5-1.61,11.27-1.03,8.94,1.35,14.34,9.58,21.68,14,.72.44,1.77,1.07,2.6,1.27,1.08,0,2.39,0,3.47,0,2.57,0,5.24,0,7.81,0,2.86,0,5.81,0,8.67,0,1.38-.19,2.94-.45,4.34-.41,1.09.03,2.39.25,3.47.4,2.28,0,4.66,0,6.94,0"/><path class="b" d="M8.84,51.99c2.56,1.64,5.05,3.61,7.81,4.93,6.52,3.11,13.62.11,19.95-2.04,3.05-1,6.3-1.9,9.54-1.64,1.43.1,2.94.63,4.34.88,1.38.24,2.94.34,4.34.28,7.41-.24,14.25-4.1,21.68-4.14,3.29,0,6.44,1.29,9.54,2.24,3.35,1.08,6.87,1.95,10.41,2.04,3.78.13,7.57-.65,11.27-1.3,2.26-.43,4.68-.44,6.94-.89,5.72-1.25,11.17-1.71,16.48,1.27,6.11,3.13,10.69,8.94,17.35,11.05,9.11,2.91,15.89-3.25,24.28-3.58,3.5.23,6.99,1.1,10.41,1.85"/><path class="b" d="M8.84,48.87c10.65,4.32,15.13,3.62,26.02.86,3.39-.83,6.9-1.66,10.41-1.7,2.3-.05,4.64.62,6.94.47,6.79-.34,13.16-3.39,19.95-3.81,7.7-.84,13.74,3.82,20.81,5.77,4.8,1.41,9.89.95,14.74.12,2.85-.43,5.83-.55,8.67-1.03,9.48-1.66,15.3.85,23.42,5.35,7.33,4.35,13.47,2.73,20.82-.54,3.61-1.52,7.31-3.31,11.27-3.57,3.83-.06,7.63,1.18,11.27,2.24"/><path class="b" d="M8.84,47.25c10.51.09,20.87-1.76,31.22-3.32,1.98-.26,4.08-.49,6.07-.59,2.3-.06,4.71-.03,6.94-.67,8.38-2.41,15.31-6.03,24.28-3.38,6.25,1.59,11.24,6.12,17.35,8.08,4.17,1.46,8.7,1.32,13.01.69,2.85-.39,5.8-.55,8.67-.7,3.75-.18,7.58,0,11.27.66,3.78.65,7.53,1.77,11.27,2.6,7,1.96,12.09-.71,18.21-3.79,10-5.14,15.27-6.47,26.02-2.05"/><path class="b" d="M8.84,47.23c4-1.45,7.98-3.17,12.14-4.11,7.7-1.83,15.62-2.67,23.42-3.96,2.29-.4,4.74-.6,6.94-1.41,4.65-1.74,8.95-4.61,13.88-5.58,5.99-1.27,12.13.97,17.35,3.81,4.02,2.42,7.77,5.48,12.14,7.27,7.06,3.11,12.85.56,19.95.82,7.58.35,14.93,2.98,22.55,2.88,7.28.17,12.21-3.7,18.21-7.11,9.01-5.39,18.35-5.72,27.75-1.02"/><path class="b" d="M8.84,47.9c1.55-.09,2.98-1.57,4.34-2.26,2.17-1.4,4.54-2.67,6.94-3.63,6.69-2.75,13.84-4.18,20.82-5.98,4.1-1.14,8.47-1.9,12.14-4.17,9.99-6.25,14.87-8.6,26.02-2.88,8.84,4.2,14.13,11.89,25.15,10.81,2.58-.19,5.22-.74,7.81-.77,2.33.02,4.71.58,6.94,1.22,7.82,2.49,15.55,5.19,23.42,1.14,3.38-1.7,6.39-4.17,9.54-6.23,3.86-2.59,8.29-4.7,13.01-4.8,2.89-.11,5.83.44,8.67.88,3.36.42,6.56,1.87,9.54,3.42"/><path class="b" d="M8.84,43.19c3.15-.06,6.4.14,9.54-.09,6.17-3.33,12.63-6.18,19.08-8.9,2.56-1.07,5.22-2.15,7.81-3.14,2.33-.89,4.83-1.67,6.94-3.05,4.83-2.98,9.65-7.04,15.61-7.08,4.01-.04,7.75,1.8,11.27,3.52,4.58,2.04,8.45,5.46,13.01,7.55,5.38,2.68,10.79,2.04,16.48,1.03,10.98-1.87,19.12,9.56,31.22,4.33,6.99-3.31,12.15-10.12,19.95-11.81,3.72-.87,7.61-.19,11.27.66,1.67.41,3.55.6,5.2,1.09,2.4.72,4.76,1.91,6.94,3.14"/><path class="b" d="M8.84,38.48c4.03,0,8.11,0,12.14,0,1.69,0,3.51,0,5.2,0,1.11-.57,2.38-1.28,3.47-1.87,4.6-2.52,9.17-5.22,13.88-7.55,2.5-1.33,5.34-2.15,7.81-3.55,4.24-2.47,8.19-5.79,13.01-7.09,4.72-1.37,9.59.29,13.88,2.28,4.52,1.75,8.53,4.66,13.01,6.5,5.82,2.56,11.32,1.62,17.35.74,11-1.5,19.17,11.23,31.22,5.75,7.12-3.63,12.07-10.91,19.95-13.21,3.95-1.23,8.2-.58,12.14.34,4.08.57,7.89,2.33,11.27,4.63"/><path class="b" d="M8.84,33.77c7.8,0,15.62,0,23.42,0,3.84-1.94,7.48-4.38,11.28-6.4,2.47-1.45,5.31-2.34,7.81-3.71,4.75-2.72,9.23-6.43,14.74-7.45,3.79-.74,7.7.17,11.27,1.45,4.2,1.27,8.13,3.37,12.14,5.12,3.54,1.52,7.41,2.45,11.27,2.45,8.43-.12,11.07-1.61,19.08,2.84,6.94,3.77,14.26,7.29,21.68,2.43,6.66-4.42,11.45-11.61,19.08-14.57,3.57-1.42,7.58-1.25,11.27-.42,4.19.58,7.94,2.78,11.27,5.28"/><path class="b" d="M8.84,29.06c6.64,0,13.31,0,19.95,0,2.28,0,4.66,0,6.94,0,1.12-.07,2.53.28,3.47-.48,2.27-1.26,4.6-2.63,6.94-3.77,2.31-1.05,4.8-1.98,6.94-3.38,5.32-3.31,10.83-7.26,17.35-7.34,3.82-.06,7.63.94,11.27,1.97,3.23,1.08,6.36,2.64,9.54,3.86,3.32,1.31,6.86,2.27,10.41,2.7,8.92.91,10.68.14,19.08,4.62,1.37.62,2.84,1.55,4.34,1.82,2.57,0,5.23,0,7.81,0,2.28,0,4.66,0,6.94,0,1.24-.33,2.45-1.29,3.47-2.03,5.91-4.66,10.45-11.21,17.35-14.55,4.6-2.3,10.02-1.69,14.74-.1,2.81,1.09,5.38,2.93,7.81,4.68"/><path class="b" d="M8.84,24.35c11.85-.04,23.72.09,35.56-.05,2.51-1.36,5.36-2.21,7.81-3.69,3.76-2.2,7.33-4.88,11.27-6.75,6.42-3.22,14.14-3.01,20.82-.7,5.81,2.23,11.32,5.33,17.35,7,3.39,1.01,6.96,1.61,10.41,2.38,1.11.29,2.4.73,3.47,1.15.74.3,1.78.78,2.6.65,8.08,0,16.2,0,24.28,0,5.63-3.83,9.77-9.62,15.61-13.19,5.2-3.4,10.77-3.23,16.48-1.34,3.11,1.05,5.92,2.99,8.67,4.75"/></svg>