<?xml version="1.0" encoding="UTF-8"?><svg id="a" xmlns="http://www.w3.org/2000/svg" width="1920" height="2400" viewBox="0 0 192 240"><defs><style>.b{fill:none;stroke:#fff;stroke-miterlimit:10;stroke-width:.4px;}.c{stroke-width:0px;}</style></defs><rect class="c" width="192" height="240"/><path class="b" d="M8.18,214.32c4.99,4.31,9.5,9.24,13.98,14.07,6.4,0,12.83,0,19.22,0,2.3,0,4.69,0,6.99,0,2.45.27,2.84-.74,4.37-2.31,7.03-7.77,13.88-16.29,23.59-20.81,4.05-2.03,8.45-4.13,13.11-3.53,7.65.96,13.32,6.85,19.22,11.25,2.58,2.03,5.56,3.68,8.74,4.53,5.91,1.54,12.06,2.61,17.48,5.59,3,1.54,5.89,3.45,8.74,5.23,5.23.11,10.5,0,15.73.04,1.21.16,2.44-.72,3.5-1.2,1.68-.85,3.5-1.79,5.24-2.5,1.89-.77,4.06-1.36,6.12-1.11,3.18.54,6.39,1.38,9.61,1.62"/><path class="b" d="M8.18,207.73c3.85,2.14,7.39,5.01,10.49,8.13,2.45,2.41,4.4,5.54,6.99,7.78h27.09c1-.55,1.89-1.86,2.62-2.71,1.11-1.36,2.4-2.99,3.5-4.36,3.47-4.33,7.08-8.73,11.36-12.29,6.09-4.95,14.1-8.95,21.85-5.41,8.24,3.43,13.8,11.15,21.85,14.88,4.44,1.87,9.35,2.32,13.98,3.55,4.88,1.22,9.54,3.35,13.98,5.68,1.51,1.02,3.53.58,5.24.66,2.59,0,5.27,0,7.86,0,4.14-1.35,7.58-4.42,11.36-6.51,2.12-1.22,4.51-2.39,6.99-2.49,3.51.18,6.98,1.31,10.49,1.61"/><path class="b" d="M8.18,202.96c10.32,2.5,14.21,8.73,20.97,15.94h25.34c1.47-.8,2.42-2.71,3.5-3.95,1.69-2.24,3.5-4.68,5.24-6.88,5.57-7.18,13.62-15.5,23.59-12.97,9.23,2.32,16.17,9.43,24.47,13.69,6.05,3.05,12.8,4.36,19.22,6.4,2.6.79,5.27,1.66,7.86,2.48,1.39.42,2.94.95,4.37,1.23.77,0,1.85,0,2.62,0,2.01-.09,4.22.32,6.12-.5,5.74-2.18,10.4-6.44,15.73-9.39,1.86-1.02,3.98-1.92,6.12-2.1,3.49-.06,7.01.79,10.49,1.06"/><path class="b" d="M8.18,200.48c9.74.31,13.06,2.08,20.1,8.63,1.41,1.3,2.96,2.77,4.37,4.06.85,1.14,2.23,1.01,3.5.98,6.1,0,12.25,0,18.35,0,2.4-1.95,4.12-4.9,6.12-7.25,4.04-5.05,8.1-10.63,13.98-13.66,4.76-2.51,10.27-.94,14.86,1.19,4.41,2.01,8.7,4.4,13.11,6.41,4.27,2,8.78,3.61,13.11,5.47,6.84,2.89,13.62,6.3,20.97,7.68,2.86.36,5.86.09,8.74.14,7.14-1.64,12.9-6.58,19.22-9.99,7.16-4.13,11.36-3.54,19.23-2.86"/><path class="b" d="M8.18,199.91c3.21-.21,6.44-.83,9.61-1.26,5.76-.68,11.15,2.15,15.73,5.35,9.57,6.54,6.02,5.34,17.48,5.4,8.74-5.64,15.19-19.78,26.22-20.89,3.42-.18,6.65,1.45,9.61,2.98,3.69,1.97,7.41,4.1,11.36,5.52,4.5,1.73,9.38,2.19,13.98,3.54,4.66,1.57,8.78,4.44,13.11,6.7,1.37.72,2.93,1.47,4.37,2.05,1.08.2,2.4.1,3.5.12,3.47,0,7.01,0,10.49,0,.86.14,1.87-.41,2.62-.77.78-.38,1.86-.93,2.62-1.34,3.21-1.74,6.39-3.7,9.61-5.41,7.86-4.37,16.34-6.58,25.34-5.52"/><path class="b" d="M8.18,199.97c5.03-.59,9.36-3.45,13.98-5.27,12.59-4.88,18.33,5.82,27.09,4.64,4.48-1.16,7.87-4.71,11.36-7.55,6.28-5.47,13.59-10.75,21.85-5.73,10.29,6.45,13.19,10.14,26.22,10.59,3.1.14,6.11,1.24,8.74,2.84,2.93,1.56,5.66,3.98,8.74,5.17,2.3,0,4.7,0,6.99,0,17.04-.06,8.32,1.24,22.72-6.51,4.87-2.6,10.29-4.08,15.73-4.92,4.01-.84,8.16-1.27,12.23-.67"/><path class="b" d="M8.18,198.7c6.38-1.71,11.17-6.54,16.6-9.99,12.44-7.76,17.94,2.58,27.09-.49,4.7-1.77,8.63-5.14,13.11-7.36,12.39-6.31,18.05,1.43,27.09,8.46,3.1,2.35,6.66,4.31,10.49,5.13,4.02.98,8.39.47,12.23,2.15,8.09,3.72,3.52,3.37,13.11,3.31,4.06,0,8.18,0,12.23,0,1.4,0,2.97,0,4.37,0,.82.01,1.94.11,2.62-.46,6.97-5.04,14.08-8.94,22.72-10.15,2.3-.34,4.68-.91,6.99-1.15,2.3-.18,4.72.05,6.99.46"/><path class="b" d="M8.18,195.17c1.11-.05,2.47.2,3.5-.32,2.1-1.24,4.22-2.7,6.12-4.23,7.26-6.21,13.72-14.75,24.47-12.49,2.3.37,4.66,1.04,6.99,1.17,5.82.05,11.05-3.11,16.6-4.41,13.73-3.51,19.26,5.33,28.84,12.69,4.1,3.21,8.9,5.54,13.98,6.7,1.09.28,2.41.57,3.5.87,1.4.02,2.97,0,4.37,0,8.15,0,16.32,0,24.47,0,2,0,4.12,0,6.12,0,1.23-.27,2.4-1.27,3.5-1.85,6.1-3.77,13.01-6.06,20.1-7.08,2-.3,4.1-.82,6.12-1.04,2.3-.21,4.72-.02,6.99.4"/><path class="b" d="M8.18,190.43h5.24c8.43-4.71,13.12-14.2,21.85-18.5,6.91-3.4,12.29.2,19.22.29,9.01.21,18.65-2.31,27.09,1.98,8.46,4.46,15.15,11.72,23.59,16.23,3.18,0,6.43,0,9.61,0,11.35,0,22.73,0,34.08,0,.84.14,1.87-.38,2.62-.71,1.38-.58,2.95-1.18,4.37-1.66,3.39-1.15,6.96-1.98,10.49-2.63,5.79-.86,11.56-2.75,17.48-2.2"/><path class="b" d="M8.18,185.68c1.4,0,2.97,0,4.37,0,.45,0,1.3,0,1.75,0,.47-.22,1.32-.73,1.75-1.02,6.41-4.15,10.56-10.99,16.6-15.59,3.85-3.18,9.08-4.94,13.98-3.4,4.06,1.28,8.06,2.97,12.23,3.9,4.28,1.03,8.73,1.31,13.11,1.55,6.73.23,13.29,2.46,19.22,5.57,4.68,2.48,8.9,5.81,13.11,9,18.06,0,36.12,0,54.18,0,4.66-.8,9.35-1.74,13.98-2.71,3.76-.81,7.53-1.95,11.36-2.41"/><path class="b" d="M8.18,180.94c2-.08,4.15.19,6.12-.16,2.12-1.12,4.33-2.36,6.12-3.98,6.73-5.58,13.05-15.32,22.72-15.03,3.48.2,6.61,2.05,9.61,3.67,3.33,1.83,6.8,3.66,10.49,4.67,4.24,1.24,8.74,1.1,13.11,1.22,2.61.09,5.25.77,7.86.85,8.34.2,13.96,2.98,20.1,8.47.74.36,1.82.29,2.62.29,1.09,0,2.4,0,3.5,0,3.18,0,6.43,0,9.61,0,9.9,0,19.82,0,29.71,0,7.56,0,15.16,0,22.72,0,3.93-.72,7.62-2.5,11.36-3.83"/><path class="b" d="M8.18,176.19c1.41,0,2.96,0,4.37,0,.82-.28,1.84-.82,2.62-1.19,10.4-4.27,17.78-19.09,30.58-15.21,6.52,2.4,11.57,7.86,18.35,9.71,3.95,1.22,8.16.94,12.23.81,1.71-.08,3.54.25,5.24.3,1.72-.02,3.55-.31,5.24-.54,5.95-1.05,11.08.37,15.73,4.21.77.59,1.7,1.55,2.62,1.9,1.4,0,2.97,0,4.37,0,12.52,0,25.06,0,37.58,0,6.98,0,13.99,0,20.97,0,2.88,0,5.85,0,8.74,0,2.44-.8,4.7-2.36,6.99-3.51"/><path class="b" d="M8.18,171.45c1.4,0,2.97,0,4.37,0,.82-.23,1.85-.72,2.62-1.06,8.84-3.4,14.75-12.64,24.47-14.07,5.14-.76,9.83,2,13.98,4.66,3.78,2.37,7.8,4.68,12.23,5.51,3.43.7,7.01.43,10.49.41,2.31-.06,4.68.61,6.99.32,8.63-1.3,12.94-1.64,20.1,4.22,16.89,0,33.79,0,50.68,0,5.52,0,11.08,0,16.6,0,2.3,0,4.7,0,6.99,0,2.17-.69,4.14-2.23,6.12-3.34"/><path class="b" d="M8.18,166.71c2.59-.03,5.28.08,7.86-.06,7.71-2.71,13.95-8.62,21.85-10.9,3.09-.91,6.49-1.08,9.61-.21,5.02,1.53,9.71,4.2,14.86,5.36,4.27,1.07,8.74.97,13.11,1.06,2.62-.01,5.25.82,7.86.74,7.05-.44,11.53-.38,17.48,4.02,27.09,0,54.18,0,81.27,0,.44-.29,1.32-.87,1.75-1.17"/><path class="b" d="M8.18,161.96c2.59,0,5.27,0,7.86,0,1.7-.07,3.57.18,5.24-.17,4.76-1.44,9.38-3.43,13.98-5.31,4.41-1.76,9.15-3.58,13.98-2.93,4.08.44,8.16,1.24,12.23,1.73,4.04.52,8.18.74,12.23,1.12,2.63.19,5.28.82,7.86,1.3,2.58.34,5.29.3,7.86.74,3.14.45,6.05,1.93,8.74,3.54,1.7,0,3.54,0,5.24,0,26.8,0,53.6,0,80.4,0"/><path class="b" d="M8.18,157.22c4.94,0,9.92,0,14.86,0,1.71,0,3.54,0,5.24,0,1.46.11,3.01-.15,4.37-.69,4.52-1.49,8.64-4.09,13.11-5.72,2.22-.77,4.67-1.03,6.99-1.31,9.45-1.1,18.91.81,27.96,3.44,4.07.86,8.41.98,12.23,2.78,1.13.41,2.26,1.45,3.5,1.49,2.89,0,5.85,0,8.74,0,6.69,0,13.41,0,20.1,0,19.51,0,39.04,0,58.55,0"/><path class="b" d="M8.18,152.47c6.4,0,12.83,0,19.22,0,2,0,4.12,0,6.12,0,.79,0,1.83,0,2.62,0,.81-.36,1.86-.94,2.62-1.38,2.63-1.53,5.18-3.4,7.86-4.83,2.18-1.09,4.62-1.9,6.99-2.49,7.93-2.09,15.49.8,22.72,3.84,3.59,1.6,7.53,2.14,11.36,2.83,1.43.3,3.01.75,4.37,1.28.78.3,1.76.9,2.62.75,9.31,0,18.65,0,27.96,0,20.39,0,40.78,0,61.17,0"/><path class="b" d="M8.18,147.73c2.93.24,5.81-.81,8.74-.68,1.44.03,2.96.49,4.37.68,1.71,0,3.54,0,5.24,0,2.3,0,4.69,0,6.99,0,.79,0,1.83,0,2.62-.01.81-.38,1.86-.98,2.62-1.45,4.79-3.08,9.14-7.25,14.86-8.53,6.44-1.75,12.85,1.13,18.35,4.31,3.31,1.82,6.7,3.88,10.49,4.48,2.88.43,5.87.69,8.74,1.2,2.89,0,5.85,0,8.74,0,7.27,0,14.58,0,21.85,0,20.68,0,41.37,0,62.04,0"/><path class="b" d="M8.18,142.78c8.69-3.29,10.99-1.29,19.22-.14,3.27.35,6.66-.32,9.61-1.75,6.09-2.78,11.19-8.7,18.35-8.4,8.48.3,14.55,7.16,21.85,10.5,2.89,0,5.85,0,8.74,0,15.43,0,30.88,0,46.31,0,5.23,0,10.5,0,15.73,0,2.59,0,5.27,0,7.86,0,1.11-.1,2.39-.53,3.5-.67,1.98-.3,4.13-.28,6.12,0,1.41.13,2.95.73,4.37.67,4.64,0,9.34,0,13.98,0"/><path class="b" d="M8.18,138.24c1.16-.03,2.39-.68,3.5-.98,1.96-.62,4.07-1.17,6.12-1.42,4.63-.47,9.38.09,13.98-.73,5.55-.85,10.59-3.51,15.73-5.61,8.79-3.62,16.68,4.33,23.59,8.7,21.55.12,43.11,0,64.67.04,2.89,0,5.85,0,8.74,0,1.7-.09,3.59.22,5.24-.21,2.29-.91,4.66-1.96,6.99-2.76,5.01-1.86,10.51-2.14,15.73-1.06,3.72.7,7.55,1.67,11.36,1.18"/><path class="b" d="M8.18,133.49c1.1-.01,2.4.04,3.5-.06.8-.32,1.83-.76,2.62-1.08,2.26-.93,4.66-1.83,6.99-2.56,6.23-2.01,12.75-3,19.23-3.79,2.9-.33,5.85-.86,8.74-1.28,6.3-.08,11.52,4.85,16.6,8,.69.59,1.73.87,2.62.77,1.1,0,2.4,0,3.5,0,3.47,0,7.01,0,10.49,0,9.6,0,19.23,0,28.84,0,7.27,0,14.58,0,21.85,0,1.77.19,3.52-.64,5.24-.89,1.99-.4,4.12-.11,6.12.09,3.99.06,7.76-1.68,11.36-3.2,5.73-2.54,11.99-4.94,18.35-3.78,3.18.57,6.36,1.69,9.61,1.83"/><path class="b" d="M8.18,128.75c1.41,0,2.96,0,4.37,0,1.44-.72,2.98-1.65,4.37-2.46,3.66-2.19,7.29-4.68,11.36-6.06,5.39-2.02,11.14-.82,16.6.19,1.69.33,3.56.16,5.24.49,4.53,1.14,8.26,4.27,12.23,6.57.76.44,1.74,1.12,2.62,1.27,1.4,0,2.97,0,4.37,0,3.18,0,6.43,0,9.61,0,9.31,0,18.65,0,27.96,0,6.39-.04,12.83.09,19.22-.05,4.22-2.32,9.11-4.14,13.98-3.2,2.04.34,4.02,1.43,6.12,1.51,3.67.21,7.24-1.27,10.49-2.83,5.73-2.68,11.74-6.8,18.35-5.44,2.91.66,5.77,1.9,8.74,2.32"/><path class="b" d="M8.18,124c.8,0,1.83,0,2.62,0,1.89-.66,3.58-2.13,5.24-3.22,8.76-6.5,13.9-12.53,25.34-7.01,1.68.73,3.48,1.56,5.24,2.07,1.41.35,3.03.5,4.37,1.09,3.35,1.38,6.39,3.54,9.61,5.16,1.36.69,2.92,1.37,4.37,1.84,1.7.16,3.54.05,5.24.08,3.47,0,7.01,0,10.49,0,9.02,0,18.07,0,27.09,0,3.18,0,6.43,0,9.61,0,1.09,0,2.4,0,3.5,0,0,0,.87,0,.87,0l.87-.47c4.71-3.47,10.68-6.49,16.6-4.53,2.11.56,4.04,1.9,6.12,2.52,3.83,1.12,7.89-.15,11.36-1.84,5.84-2.62,11.56-7.76,18.35-6.47,2.94.69,5.76,2.09,8.74,2.6"/><path class="b" d="M8.18,117.92c5.44-2.61,9.99-6.74,14.86-10.23,5.98-4.33,11.2-4.22,17.48-.6,1.97,1.06,4,2.29,6.12,3.04,1.71.49,3.62.78,5.24,1.57,4.28,1.92,8.4,4.55,13.11,5.3,4.06.74,8.19-.2,12.23-.58,2.89-.15,5.86.27,8.74.53,3.32.28,6.45,1.45,9.61,2.31,4.35,0,8.76,0,13.11,0,2.3,0,4.7,0,6.99,0,1.4-.08,3.03.23,4.37-.26,1.95-1.48,4.02-3.05,6.12-4.31,4.12-2.63,9.4-3.6,13.98-1.6,2.04.78,3.97,2.16,6.12,2.66,3.83.98,7.85-.17,11.36-1.75,5.81-2.42,11.74-7.22,18.35-5.34,2.6.74,5.18,1.92,7.86,2.37"/><path class="b" d="M8.18,110.28c4.01-1.83,7.73-4.38,11.36-6.86,3.4-2.38,7.11-4.88,11.36-5.23,4.37-.39,8.4,1.75,12.23,3.55,1.36.62,2.9,1.26,4.37,1.56,1.43.18,3,.51,4.37.98,3.72,1.28,7.42,2.98,11.36,3.48,4.39.66,8.78-.5,13.11-1.09,2.6-.34,5.29.16,7.86.5,5.26.73,10.21,2.9,14.86,5.39,1.39.64,2.85,1.69,4.37,1.95,1.09,0,2.4,0,3.5,0,2.88-.1,5.88.21,8.74-.15,4.86-2.67,9.37-6.34,14.86-7.66,4.75-1.28,9.59.23,13.98,2.03,5.2,1.71,10.79.34,15.73-1.58,4.25-1.56,8.51-3.67,13.11-3.84,3.55-.04,6.97,1.4,10.49,1.68"/><path class="b" d="M8.18,103.52c3.65-1.21,7.16-2.99,10.49-4.9,4.3-2.54,8.86-5.28,13.98-5.45,4.5-.24,8.77,1.57,13.11,2.45,1.99.36,4.15.24,6.12.72,3.47.74,6.94,1.84,10.49,2.14,2.89.28,5.88.03,8.74-.4,2.86-.41,5.85-1,8.74-.57,6.17.77,12.09,2.92,17.48,5.99,3.84,1.98,7.77,4.63,12.23,4.68,2.1-.08,4.17-.98,6.12-1.69,12.5-5.28,16.36-5.75,29.71-3.53,4.37.46,8.86,0,13.11-1.09,4.99-1.22,9.8-3.28,14.86-4.2,3.44-.61,7.02-.27,10.49-.47"/><path class="b" d="M8.18,97.42c4.27-.59,8.38-2.12,12.23-4.02,4.41-2.09,9.07-3.96,13.98-4.35,3.47-.33,7.01.03,10.49.14,2.01.1,4.11-.28,6.12-.13,4.39.36,8.71,1.6,13.11,1.86,4.35.37,8.76-.24,13.11-.06,5.74.57,11.4,2.36,16.6,4.82,6.01,2.65,12.38,7.69,19.22,5.09,7.94-2.33,16.27-2.35,24.47-2.25,4.37-.03,8.76-.75,13.11-1.16,5.05-.56,10.07-1.7,14.86-3.39,6.03-2.17,12.01-4.7,18.35-5.86"/><path class="b" d="M8.18,91.78c2.31.04,4.73-.04,6.99-.55,4.11-1.13,8.12-2.82,12.23-3.95,6.53-2.01,13.4-2.46,20.1-3.61,6.17-1.41,12.3,1.26,18.35,2.21,3.74.71,7.6,1.02,11.36,1.59,3.22.56,6.47,1.42,9.61,2.32,3.88,1.15,7.66,2.77,11.36,4.37,4.09,1.69,8.62,3.75,13.11,2.56,3.37-1.03,7-1.13,10.49-.94,6.38.38,12.97,1.43,19.22-.43,3.7-1.33,7.51-2.52,11.36-3.37,5.73-1.35,11.37-3.25,16.6-5.97,4.94-2.46,9.59-5.69,14.86-7.46"/><path class="b" d="M8.18,86.38c2.28.29,4.7.5,6.99.15,3.49-.77,6.98-1.85,10.49-2.56,5.2-1.16,10.51-2.05,15.73-3.12,2.92-.51,5.82-1.52,8.74-2.01,3.58-.34,7.14.82,10.49,1.97,3.46,1.22,6.96,2.54,10.49,3.56,6.07,1.74,12.3,3,18.35,4.81,4.7,1.38,9.25,3.42,13.98,4.7,2.24.58,4.69.92,6.99.5,1.96-.51,4.08-.94,6.12-.89,5.83.06,11.63,1.75,17.48,1.07,2.38-.25,4.81-.91,6.99-1.88,1.73-.79,3.5-1.87,5.24-2.63,4.59-2.06,9.45-3.64,13.98-5.84,4.59-2.18,8.94-4.95,13.11-7.84,3.35-2.29,6.68-4.86,10.49-6.36"/><path class="b" d="M8.18,80.98c2.28.27,4.7.49,6.99.15,2.02-.38,4.09-1.03,6.12-1.38,4.32-.83,8.75-1.26,13.11-1.76,3.49-.39,7.05-.86,10.49-1.63,1.42-.3,2.96-.79,4.37-1.11,1.7-.31,3.57-.15,5.24.25,5.49,1.41,10.44,4.41,15.73,6.37,5.08,2,10.47,3.16,15.73,4.57,4.15,1.11,8.23,2.64,12.23,4.17,1.96.38,4.12.09,6.12.17,11.35-.04,22.73.08,34.08-.05,3.06-1.12,5.83-3.05,8.74-4.49,5.34-2.68,10.76-5.35,15.73-8.69,3.87-2.54,7.61-5.41,11.36-8.12,3-2.14,6.11-4.41,9.61-5.66"/><path class="b" d="M8.18,75.65c2.28.35,4.68.7,6.99.54,2.31-.27,4.68-.79,6.99-1.04,5.52-.69,11.11-1.12,16.6-1.96,3.51-.48,7.02-1.34,10.49-2.06,2.71-.31,5.44.67,7.86,1.8,5.52,2.69,10.73,6.18,16.6,8.09,3.41,1.19,7.05,1.8,10.49,2.88,1.11.34,2.41.8,3.5,1.21,1.07.39,2.32,1.08,3.5.94,8.73,0,17.49,0,26.22,0,5.52,0,11.08,0,16.6,0,1.7,0,3.54,0,5.24,0,1.11-.06,2.48.21,3.5-.35,7.28-3.98,14.54-8.13,20.97-13.4,6.38-4.81,12.25-11.06,20.1-13.38"/><path class="b" d="M8.18,71.45c1.99.46,4.09,1,6.12,1.24,1.7.21,3.54.05,5.24-.04,5.59-.33,11.17-1.28,16.6-2.6,2.89-.69,5.84-1.46,8.74-2.1,3.01-.74,5.81-1.17,8.74.15,4.61,1.93,8.64,5.11,13.11,7.34,4.07,2.15,8.59,3.38,13.11,4.14,2.08.3,4.09,1.27,6.12,1.74,3.47,0,7.01,0,10.49,0,7.85,0,15.74,0,23.59,0,5.52,0,11.08,0,16.6,0,2,0,4.12,0,6.12,0,1.12-.07,2.53.26,3.5-.44,7.34-3.72,13.94-8.75,20.1-14.18,5.23-4.36,10.49-9.64,17.48-10.81"/><path class="b" d="M8.18,68.73c2.58.84,5.19,1.93,7.86,2.44,5.92,1.03,11.96-.4,17.48-2.54,4.84-1.78,9.64-4.24,14.86-4.64,3.52-.09,6.68,1.97,9.61,3.68,3.34,2.04,6.77,4.17,10.49,5.46,3.63,1.32,7.55,1.63,11.36,2.02,1.78.17,3.55.92,5.24,1.41,8.44,0,16.9,0,25.34,0,11.06,0,22.15,0,33.21,0,1.09,0,2.4,0,3.5,0,.8,0,1.91.1,2.62-.37,4.67-2.28,9.06-5.24,13.11-8.48,2.92-2.32,5.82-4.85,8.74-7.17,3.5-2.88,7.59-5.46,12.23-5.77"/><path class="b" d="M8.18,67c3.18,1.31,6.24,3.16,9.61,3.95,9.03,2.05,16.65-4.52,24.47-7.85,7.54-3.47,11.86.57,18.35,3.82,3.24,1.66,6.83,2.86,10.49,3.06,5.22.31,9.98-.96,14.86,1.7,4.91.34,9.93.03,14.86.13,17.47,0,34.96,0,52.43,0,6.85-2.34,12.58-7.25,18.35-11.49,3.52-2.81,7.61-5.26,12.23-5.38"/><path class="b" d="M8.18,64.92c1.12.54,2.41,1.24,3.5,1.84.77.39,1.79.31,2.62.31,1.1,0,2.39,0,3.5,0,4.06,0,8.18,0,12.23,0,.79,0,1.83,0,2.62,0,1.15-.5,2.41-1.3,3.5-1.92,2.77-1.61,5.63-3.36,8.74-4.23,3.93-1.25,7.85.61,11.36,2.27,3.04,1.42,6.25,2.79,9.61,3.2,2.89.38,5.89.01,8.74-.51,2.85-.52,5.88-1.08,8.74-.29,1.45.33,2.94,1.08,4.37,1.48,2.89,0,5.85,0,8.74,0,6.1,0,12.25,0,18.35,0,10.19,0,20.4,0,30.58,0,3.47,0,7.01,0,10.49,0,1.4,0,2.97,0,4.37,0,.8-.3,1.87-.83,2.62-1.22,3.34-1.74,6.53-3.93,9.61-6.09,3.29-2.53,7.15-4.5,11.36-4.73"/><path class="b" d="M8.18,62.27c9.89.13,19.82,0,29.71.05,1.21.11,2.39-.86,3.5-1.24,2.18-.93,4.59-1.72,6.99-1.69,3.63.15,7.03,1.79,10.49,2.76,1.38.31,2.97.11,4.37.17,2.59,0,5.27,0,7.86,0,3.25.26,6.37-1.25,9.61-1.21,2.05,0,4.18.48,6.12,1.12,1.09.16,2.4.08,3.5.09,13.68,0,27.39,0,41.07,0,7.56,0,15.16,0,22.72,0,2.59,0,5.27,0,7.86,0,1.75-.04,3.73.31,5.24-.79,3.3-1.69,6.34-3.99,9.61-5.72,2.16-1.06,4.61-1.75,6.99-2.08"/><path class="b" d="M8.18,57.58c8.44,0,16.9,0,25.34,0,2.89,0,5.85,0,8.74,0,1.1,0,2.4.02,3.5-.03.78-.2,1.83-.4,2.62-.5,2.9-.34,5.87.19,8.74.53,2.59,0,5.27,0,7.86,0,2.3-.02,4.7.04,6.99-.03,4.02-.66,8.17-1.51,12.23-.73,1.11.18,2.4.5,3.5.76,1.4,0,2.97,0,4.37,0,3.77,0,7.59,0,11.36,0,10.19,0,20.4,0,30.59,0,11.35,0,22.73,0,34.08,0,2.73-.81,5.26-2.43,7.86-3.57,2.48-1.08,5.21-1.79,7.86-2.28"/><path class="b" d="M8.18,52.83c13.98,0,27.97,0,41.95,0,2.31.06,4.68-.55,6.99-.62,3.76-.23,7.59-.24,11.36-.32,5.23-.07,10.53-.34,15.73.36,1.41.14,2.95.63,4.37.58,3.47,0,7.01,0,10.49,0,16.6,0,33.21,0,49.81,0,6.98,0,13.99,0,20.97,0,2.03-.43,4.11-1.22,6.12-1.76,2.56-.69,5.26-1.14,7.86-1.62"/><path class="b" d="M8.18,48.09c14.27,0,28.55,0,42.82,0,1.76-.25,3.49-1.22,5.24-1.57,2.54-.66,5.24-1,7.86-1,6.49-.03,12.79,1.98,19.22,2.49,12.51.21,25.06,0,37.58.08,11.94,0,23.89,0,35.83,0,5.23,0,10.5,0,15.73,0,3.76-.29,7.61-.51,11.36-.91"/><path class="b" d="M8.18,43.34c14.27,0,28.55,0,42.82,0,.53.02,1.33-.31,1.75-.6,1.07-.57,2.36-1.19,3.5-1.62,2.75-1.06,5.8-1.57,8.74-1.32,4.55.33,8.78,2.29,13.11,3.54,11.35,0,22.73,0,34.08,0,23.88,0,47.77,0,71.66,0"/><path class="b" d="M8.18,38.6c14.56,0,29.13,0,43.69,0,1.92.24,3.5-1.28,5.24-1.84,2.19-.86,4.64-1.33,6.99-1.23,3.99.07,7.65,1.89,11.36,3.07,11.64,0,23.31,0,34.95,0,24.46,0,48.94,0,73.4,0"/><path class="b" d="M8.18,33.85c15.14,0,30.3,0,45.44,0,.79,0,1.84.01,2.62-.03.77-.41,1.81-.91,2.62-1.23,2.19-.86,4.64-1.32,6.99-1.24,2.98.09,5.93.97,8.74,1.9,1.63.75,3.5.6,5.24.6,3.47,0,7.01,0,10.49,0,3.75-.45,7.61-1.04,11.36-.22,1.37.35,2.97.19,4.37.22,2,0,4.12,0,6.12,0,6.1,0,12.25,0,18.35,0,17.76,0,35.54,0,53.31,0"/><path class="b" d="M8.18,29.11c15.72,0,31.46,0,47.19,0,.86.05,1.94.02,2.62-.59,1.06-.61,2.35-1.25,3.5-1.67,3.03-1.16,6.42-1.39,9.61-.91,2.92.4,5.83,1.28,8.74,1.71,4.14.51,8.18-1.13,12.23-1.68,2.87-.45,5.91-.4,8.74.3,1.44.35,3,.89,4.37,1.47,1.1.42,2.32,1.19,3.5,1.38,2.59,0,5.27,0,7.86,0,9.6,0,19.23,0,28.84,0,2.29,0,4.7,0,6.99,0,2.54-.72,5.23-1.3,7.86-1.48,5.57-.45,11.11.76,16.6,1.48,2.29,0,4.7,0,6.99,0"/><path class="b" d="M8.18,24.36c13.68,0,27.39,0,41.07,0,2,0,4.12,0,6.12,0,.9-.27,1.85-1.13,2.62-1.63,1.6-1.07,3.43-2.05,5.24-2.68,4.78-1.78,9.95-.9,14.86-.24,2.61.4,5.31,0,7.86-.57,6.36-1.55,11.73-1.26,17.48,2.08,1.11.61,2.41,1.39,3.5,2.06.41.27,1.3.77,1.75.99.43,0,1.32,0,1.75,0,5.52,0,11.08,0,16.6,0,4.35,0,8.76,0,13.11,0,2-.01,4.12.03,6.12-.02.76-.35,1.84-.8,2.62-1.11,6.61-2.79,13.91-3.23,20.97-2.48,2.29.25,4.71.21,6.99.56,2.4.44,4.79,1.37,6.99,2.4"/><path class="b" d="M8.18,19.62c12.52,0,25.06,0,37.58,0,2.3,0,4.69,0,6.99,0,1.02-.11,1.86-1.22,2.62-1.8,7.73-6.49,13.34-5.97,22.72-4.99,2.93.23,5.87-.51,8.74-.95,5.86-1.09,11.15,1,15.73,4.58,1.43.97,2.8,2.42,4.37,3.16.43,0,1.32,0,1.75,0,4.06,0,8.18,0,12.23,0,4.94,0,9.92,0,14.86,0,1.7,0,3.54,0,5.24,0,.77,0,1.86.04,2.62-.12.41-.25,1.33-.74,1.75-.98,7.35-4.13,15.33-4.8,23.59-4.36,2.59.15,5.28-.12,7.86,0,2.39.2,4.81.98,6.99,1.96"/></svg>