<?xml version="1.0" encoding="UTF-8"?><svg id="a" xmlns="http://www.w3.org/2000/svg" width="1920" height="2400" viewBox="0 0 192 240"><defs><style>.b{fill:none;stroke:#fff;stroke-miterlimit:10;stroke-width:.4px;}.c{stroke-width:0px;}</style></defs><rect class="c" x="0" width="192" height="240"/><path class="b" d="M8.64,212.66c3.43.89,6.86,2.23,10.43,2.44,6.94.38,13.93-.45,20.86.32,3.74.43,7.58.65,11.3,1.26,4.35.93,8.62,2.44,13.04,3.08,6.04.92,12.21.29,18.25,1.23,4.16.23,8.45.81,12.17,2.82,1.8.93,3.61,2.16,5.22,3.39.75.55,1.67,1.49,2.61,1.72,1.99,0,4.1,0,6.08,0,7.81,0,15.66,0,23.47,0,4.91,0,9.87,0,14.78,0,1.69,0,3.52,0,5.22,0,1.15.04,2.54.06,3.48-.72,11.38-6.71,16.07-4.27,27.82-1.6"/><path class="b" d="M8.64,205.99c2.57.92,5.16,2.09,7.82,2.74,5.19,1.08,10.5,1.79,15.65,3.05,4.34,1,8.65,2.32,13.04,3.1,1.68.31,3.52.4,5.22.58,2.29.27,4.67.71,6.95,1.05,6.64,1.2,13.31.49,19.99.69,2,.13,4.08.61,6.08.69,4.44.18,9.02.68,13.04,2.73,2.12.95,4.05,2.49,6.08,3.58,5.2,0,10.45,0,15.65,0,10.42,0,20.87,0,31.29,0,6.75-4.78,13.74-11.08,22.6-10.43,3.8.28,7.53,1.42,11.3,1.9"/><path class="b" d="M8.64,201.11c2.54,1.25,5.12,2.67,7.82,3.54,4.14,1.12,8.23,2.61,12.17,4.29,7.49,3.15,15.09,7.24,23.47,6.57,7.6.01,15.02-2.18,22.6-2.39,3.23-.12,6.38,1.02,9.56,1.36,3.51.43,7.11.94,10.43,2.2,1.44.54,3,1.26,4.35,1.99.72.43,1.74.96,2.61.82,12.16,0,24.34,0,36.51,0,1.69,0,3.52,0,5.22,0,3.03-1.72,5.85-3.96,8.69-5.97,5.88-4.28,12.52-8.26,19.99-8.47,3.75-.09,7.55.35,11.3.3"/><path class="b" d="M8.64,197.18c2.52,1.43,5.11,2.98,7.82,4.03,3.61,1.22,7.09,2.97,10.43,4.79,7.5,3.95,15.45,9.41,24.34,8.07,7.91-1.21,15.3-5.57,23.47-5.09,3.59.15,6.93,1.79,10.43,2.45,2.6.59,5.29,1.2,7.82,2.03,1.42.34,2.87,1.35,4.35,1.3,11,0,22.03,0,33.03,0,11.56-.04,5.76,1.01,14.78-5.26,14.21-10.2,21.3-11.5,38.25-13.26"/><path class="b" d="M8.64,193.38c2.83,1.52,5.7,3.18,8.69,4.35,3,1.23,5.89,2.9,8.69,4.52,5.31,2.97,12.09,7.44,18.25,7.79,1.69,0,3.52,0,5.22,0,1.11.03,2.42.02,3.48-.37,7.34-2.39,14.67-6.32,22.6-4.24,2.07.46,4.12,1.38,6.08,2.15,2.53.94,5.23,1.68,7.82,2.43,4.04.08,8.13,0,12.17.03,11.58-.03,23.19.06,34.77-.03,5.89-7.23,12.79-12.45,21.73-15.32,4.25-1.43,8.69-2.41,13.04-3.48,4.01-1.01,8.06-2.17,12.17-2.76"/><path class="b" d="M8.64,188.82c4.65,2.08,9.45,3.98,13.91,6.45,7.77,4.39,15.98,9.23,25.21,8.93,3.88-.02,7.59-1.55,11.3-2.48,3.65-.98,7.57-1.38,11.3-.62,3.97.73,7.61,2.67,11.3,4.22,4.91,0,9.87,0,14.78,0,13.03-.06,26.09.11,39.12-.06,8.35-10.8,13.6-14.73,26.95-18.18,3.18-.87,6.43-1.74,9.56-2.77,3.64-1.29,7.41-2.56,11.3-2.75"/><path class="b" d="M8.64,182.7c3.88.99,7.71,2.42,11.3,4.18,6.51,3.29,12.81,7.33,19.99,9.02,3.39.8,6.96,1.14,10.43.94,4.03-.3,8.13-1.02,12.17-.51,2.67.3,5.35,1.1,7.82,2.15,1.11.47,2.4,1.08,3.48,1.61.4.27,1.25.56,1.74.52,5.2,0,10.45,0,15.65,0,9.55,0,19.13,0,28.68,0,3.16,0,6.4,0,9.56,0,1.98-.08,4.13.19,6.08-.16,9.2-11.44,15.01-15.41,28.68-20.72,2.57-1.01,5.24-2.01,7.82-2.96,3.56-1.43,7.44-2.43,11.3-1.91"/><path class="b" d="M8.64,176.14c9.6-.25,17.07,6.71,25.21,10.77,14.24,7.77,20.33,2.32,33.03,7.9.78.33,1.78.88,2.61,1.07,1.69,0,3.52,0,5.22,0,3.75,0,7.55,0,11.3,0,11.29,0,22.61,0,33.9,0,4.91,0,9.87,0,14.78,0,1.02-.3,1.87-1.47,2.61-2.18,1.66-1.73,3.45-3.62,5.22-5.25,6.37-5.75,14.07-9.82,21.73-13.57,5.94-2.71,12.43-6.17,19.12-4.34"/><path class="b" d="M8.64,171.05c4.33-1.18,8.33-.34,12.17,1.83,4.22,2.25,8.14,5.13,12.17,7.7,4.31,2.76,8.91,5.34,13.91,6.61,3.41.84,6.99,1.12,10.43,1.83,2.65.44,5.24,1.48,7.82,2.15,6.07,0,12.18,0,18.25,0,11.29,0,22.61,0,33.9,0,4.04,0,8.13,0,12.17,0,5.65.06,4.36.38,8.69-3.31,6.3-5.83,14.16-9.49,21.73-13.36,7.24-3.52,15.14-8.45,23.47-5.99"/><path class="b" d="M8.64,168.15c2.73-1.03,5.86-1.64,8.69-.69,5,1.62,9.47,4.61,13.91,7.35,6.72,4.26,13.78,8.45,21.73,9.83,1.99.39,4.1.76,6.08,1.17,1.39.28,2.91.74,4.35.63,8.1,0,16.24,0,24.34,0,9.84,0,19.71,0,29.55,0,3.16,0,6.4,0,9.56,0,1.09,0,2.39,0,3.48,0,.79,0,1.88.09,2.61-.32,3.46-2.18,6.76-4.78,10.43-6.61,4.77-2.3,9.92-3.83,14.78-5.93,8.33-3.48,15.76-8.29,25.21-6.16"/><path class="b" d="M8.64,167.04c2.19-.82,4.59-1.51,6.95-1.36,4.21.57,8.25,2.3,12.17,3.86,7.24,3.05,14.36,6.47,21.73,9.2,5.32,1.76,11.03,2,16.52,2.98,6.36,0,12.76,0,19.12,0,14.48,0,28.98,0,43.46,0,1.91.2,3.58-1.24,5.22-2.02,2.25-1.23,4.59-2.54,6.95-3.54,5-2.03,10.52-2.36,15.65-3.97,10.74-3.27,14.63-7.39,26.95-6.22"/><path class="b" d="M8.64,166.17c6.22-2.09,8.66-1.01,14.78-.31,5.51.66,11.09,1.15,16.52,2.34,2.33.51,4.73,1.2,6.95,2.06,2.22.95,4.57,1.89,6.95,2.36,5.73,1.19,11.66,1.34,17.38,2.53,2.62.43,5.22,1.37,7.82,1.85,2.58,0,5.25,0,7.82,0,2.58,0,5.25,0,7.82,0,2.84-.54,5.79-1.08,8.69-1.08,2.41-.11,4.65.64,6.95,1.08,4.91,0,9.87,0,14.78,0,.77,0,1.84,0,2.61,0,1.12-.38,2.4-.99,3.48-1.47,2.55-1.17,5.17-2.44,7.82-3.38,5.01-1.81,10.5-1.4,15.65-2.61,6.35-1.2,11.97-4.83,18.25-6.2,3.43-.43,6.97-.62,10.43-.53"/><path class="b" d="M8.64,164.04c2.26-.52,4.63-1.07,6.95-1.17,2.59.05,5.26.08,7.82-.35,5.79-.84,11.49-2.76,17.38-2.69,2.03.03,4.16.36,6.08,1.01,2.27.88,4.59,1.92,6.95,2.53,6.63,1.77,13.46,2.85,19.99,4.99,2.6.77,5.21,1.83,7.82,2.53,5.46,1.29,11.07-.06,16.52-.77,3.14-.41,6.44-.58,9.56.11,2.39.33,4.52,2.14,6.95,2.07,2.58,0,5.25,0,7.82,0,1.39-.05,3,.17,4.35-.27,4.38-1.19,8.62-3.02,13.04-4.06,3.41-.78,7.01-.81,10.43-1.56,3.62-.73,7.14-2.11,10.43-3.76,9.52-4.95,11.28-6.54,22.6-5.48"/><path class="b" d="M8.64,162.38c2.29-.3,4.66-.74,6.95-1.06,2.35-.22,4.76-.73,6.95-1.62,6.31-2.41,12.21-6.59,19.12-7.02,4.36-.41,8.11,2.2,12.17,3.27,6.32,1.77,12.88,2.73,19.12,4.79,2.92.89,5.81,2.12,8.69,3.12,5.91,1.94,12.21,1.08,18.25.38,3.15-.33,6.44-.51,9.56.18,11.73,4.28,21.26.84,33.03-.29,10.39-.48,17.49-7.76,26.08-12.47,4.51-2.53,9.99-1.71,14.78-.46"/><path class="b" d="M8.64,160.08c12.57-1.08,15.84-6.64,26.08-11.47,3.77-1.71,8.21-2.35,12.17-.88,2.53,1.06,5.12,2.22,7.82,2.78,7.51,1.64,15.41,1.8,22.6,4.75,10.66,5,15.34,5.45,26.95,3.88,1.69-.18,3.52-.29,5.22-.2,2.58.25,5.22.77,7.82.88,5.77.34,11.6.3,17.38.36,5.93,0,11.15.44,16.52-2.69,6.99-3.59,12.4-10.07,19.99-12.47,4.03-.89,8.36.31,12.17,1.63"/><path class="b" d="M8.64,156.46c10.26-1.35,15.61-8.79,24.34-12.97,4.62-2.29,10.14-2.29,14.78-.05,7.23,3.85,15.66,2.45,23.47,3.76,2.36.4,4.77,1.1,6.95,2.1,2.34,1.11,4.63,2.55,6.95,3.7,9.41,4.87,14.61,3.24,24.34,1.62,5.2-.28,10.44-.74,15.65-.76,4.05,0,8.14.41,12.17.76,4.1.42,8.39.46,12.17-1.41,7.68-3.25,14.04-10.25,22.6-11.13,3.81.04,7.67.96,11.3,2.06"/><path class="b" d="M8.64,151.7c3.38-1.13,6.7-2.74,9.56-4.87,5.21-3.8,10.07-8.74,16.52-10.32,8.31-1.91,12.59,3.3,19.99,4.35,6.91,1,14.16-.56,20.86,1.85,3.86,1.31,7.06,4.03,10.43,6.23,3.85,2.56,8.28,4.89,13.04,4.47,3.88.26,7.59-1.29,11.3-2.2,5.2-1.07,10.33-2.76,15.65-3.2,4.92-.49,9.88.23,14.78.6,3.85.39,7.71-.54,11.3-1.86,6.44-2.3,12.98-5.47,19.99-4.87,3.73.59,7.54,1.06,11.3,1.45"/><path class="b" d="M8.64,146.82c4.03-2.13,7.89-4.74,11.3-7.78,4.6-3.91,9.42-8.48,15.65-9.37,7.16-1.07,13.09,4.25,19.99,4.99,7.91,1.08,16.56.33,23.47,5.02,4.2,2.77,7.77,6.54,12.17,9.01,2.58,0,5.25,0,7.82,0,3.45,0,6.98,0,10.43,0,4.22-.81,8.1-3.09,12.17-4.43,4.15-1.52,8.61-2.35,13.04-2.24,3.75.04,7.55.66,11.3.49,5.49-.26,11-1.13,16.52-.9,4.39.09,8.74,1,13.04,1.77,2.58.28,5.27-.06,7.82-.4"/><path class="b" d="M8.64,142.63c3.61-2.39,7.23-4.96,10.43-7.9,4.33-3.91,8.5-8.36,13.91-10.79,6.99-3.15,12.46-.2,19.12,1.81,9.27,2.33,19.01,2.99,26.95,8.94,3.93,2.85,7.34,6.47,11.3,9.28,8.39.01,16.81.01,25.21,0,4.27-1.99,8.5-4.27,13.04-5.6,6.19-1.96,12.77-1.36,19.12-.74,6.17.55,12.26,1.89,18.25,3.43,7.22,1.72,10.11,2.89,17.38,0"/><path class="b" d="M8.64,138.5c4.3-2.87,8.49-6.05,12.17-9.68,6.34-6.13,13.87-13.5,23.47-12.08,3.5.48,6.95,1.56,10.43,2.18,7.64,1.45,15.27,3.77,21.73,8.24,5.28,3.49,9.63,8.27,14.78,11.93,2.25.37,4.68.07,6.95.16,7.52-.11,15.1.21,22.6-.12,4.51-2.09,9.06-4.34,13.91-5.54,6.96-1.92,14.2-.14,20.86,2.11,2.57.85,5.23,1.78,7.82,2.56,1.66.47,3.46,1.12,5.22.99,3.16,0,6.4,0,9.56,0,1.75-.67,3.55-1.61,5.22-2.48"/><path class="b" d="M8.64,134.27c3.32-2.03,6.67-4.24,9.56-6.86,5.89-5.16,11.54-11.23,19.12-13.83,4.47-1.59,9.3-1.17,13.91-.55,5.63.56,11.34,1.54,16.52,3.92,9.51,4.13,16.43,12.27,25.21,17.57,10.13.02,20.29,0,30.42,0,1.09-.03,2.41.11,3.48-.17.78-.34,1.83-.81,2.61-1.16,2.25-1,4.61-2.03,6.95-2.78,4.52-1.66,9.44-1.1,13.91.43,3.76,1.17,7.47,2.73,11.3,3.67,2.28,0,4.67,0,6.95,0,9.22-.05,6.73.87,14.78-4"/><path class="b" d="M8.64,129.7c4.11-1.98,7.89-4.62,11.3-7.63,4.53-3.72,9.3-7.4,14.78-9.61,4.93-2.07,10.36-2.41,15.65-2.33,4.06-.05,8.22.06,12.17,1.08,8.07,1.92,14.4,7.54,20.86,12.39,3.54,2.35,7.26,4.82,11.3,6.2,4.62,0,9.29,0,13.91,0,6.07,0,12.18,0,18.25,0,1.69,0,3.52,0,5.22,0,.85-.02,1.85-.59,2.61-.91,1.36-.6,2.92-1.24,4.35-1.67,3.38-1.14,7.07-.57,10.43.35,2.88.69,5.75,1.89,8.69,2.23,4.32-.08,8.73.17,13.04-.11,4.58-1.06,8.22-4.24,12.17-6.6"/><path class="b" d="M8.64,124.48c2.05-.89,4.19-1.88,6.08-3.06,2.09-1.31,4.04-3.07,6.08-4.44,3.72-2.59,7.82-4.76,12.17-6.07,4.49-1.39,9.24-1.78,13.91-2.1,3.45-.24,6.96-.72,10.43-.63,9.77.05,17.04,5.81,24.34,11.54,3.9,2.66,8.49,4.21,13.04,5.36,3.45,0,6.98,0,10.43,0,7.23,0,14.5,0,21.73,0,3.45,0,6.98.01,10.43,0,1.35-.57,2.9-1.13,4.35-1.4,3.48-.57,7.03.37,10.43,1.06,1.66.47,3.51.34,5.22.35,2.58,0,5.25,0,7.82,0,3.05-.14,5.97-1.8,8.69-3.08,3.39-1.74,6.23-4.5,9.56-6.33"/><path class="b" d="M8.64,118.28c2.04-.89,4.18-1.86,6.08-3,1.77-1.06,3.46-2.51,5.22-3.6,6.76-4.49,14.68-5.35,22.6-5.23,4.35.08,8.7-.74,13.04-.86,10.87-.42,18.02,5.77,26.08,11.95,2.09,1.34,4.54,2.27,6.95,2.8,1.69.08,3.52.02,5.22.04,4.04,0,8.13,0,12.17,0,7.23,0,14.5,0,21.73,0,3.45-.07,6.99.16,10.43-.1,1.34-.55,2.9-1.07,4.35-1.26,3.49-.41,7.02.53,10.43,1.14,1.96.41,4.1.18,6.08.23,1.98-.09,4.14.23,6.08-.2,3.69-.93,7.22-2.66,10.43-4.68,2.63-1.8,5.08-4.04,7.82-5.67"/><path class="b" d="M8.64,112.43c2.02-.83,4.16-1.72,6.08-2.75,1.75-.93,3.45-2.21,5.22-3.11,7.44-4.1,16.13-3.6,24.34-3.53,3.76,0,7.54-.72,11.3-.72,10.06-.34,17.95,6.22,25.21,12.35,1.39,1.39,3.45.93,5.22.99,2.28,0,4.67,0,6.95,0,7.23,0,14.5,0,21.73,0,6.07,0,12.18,0,18.25,0,2.28-.83,4.61-1.9,6.95-2.56,3.4-1.09,7.06-.52,10.43.42,9.22,2.76,15.62,3.35,24.34-1.56,3.01-1.76,5.69-4.2,8.69-5.97"/><path class="b" d="M8.64,107.6c2.61-.88,5.33-1.76,7.82-2.94,3.26-1.67,6.83-2.83,10.43-3.5,6.01-1.13,12.17-1.29,18.25-1.74,4.33-.22,8.7-1.04,13.04-.76,5.46.3,10.52,2.91,14.78,6.2,1.75,1.33,3.56,2.88,5.22,4.34.44.38,1.3,1.16,1.74,1.54.44.14,1.28.24,1.74.19,8.97,0,17.97,0,26.95,0,4.33-.06,8.72.12,13.04-.07,2.89-.7,5.84-1.56,8.69-2.41,4.52-1.27,9.16-2.84,13.91-2.69,2.68.21,5.32,1.18,7.82,2.08,7.94,3.15,14.65,4.27,22.6.26,2.96-1.48,5.72-3.51,8.69-4.97"/><path class="b" d="M8.64,103.59c3.77-.87,7.56-1.92,11.3-2.92,4.01-.96,8.14-1.68,12.17-2.54,5.47-1.1,10.93-2.65,16.52-3.07,3.45-.27,6.95-.98,10.43-.8,8.46.27,15.02,6.39,20.86,11.86,10.99.26,22.03,0,33.03.09.87.15,1.85-.42,2.61-.77,1.09-.5,2.38-1.1,3.48-1.58,3.06-1.35,6.29-2.54,9.56-3.25,3.4-.75,6.96-.98,10.43-.94,2.59.04,5.32-.07,7.82.74,7.43,2.42,14.45,6.88,22.6,5.15,4.88-.89,9.23-3.56,13.91-5.09"/><path class="b" d="M8.64,100c6.91-1.35,14.08-1.29,20.86-3.31,6.45-1.67,12.41-5.38,19.12-5.94,4.62-.37,9.24-1.92,13.91-1.23,4.98.64,9.32,3.57,13.04,6.79,1.12.96,2.4,2.14,3.48,3.15.76.65,1.61,1.76,2.61,2.04,7.52,0,15.08,0,22.6,0,2.28,0,4.67,0,6.95,0,2.71-1.42,5.14-3.54,7.82-5.03,7.89-4.77,13.28-3.62,21.73-1.68,7.06.46,13.14,4.59,19.99,5.92,3.42.68,7.04.57,10.43-.22,4.04-1.02,8.03-2.48,12.17-3.08"/><path class="b" d="M8.64,96.17c4.01-.74,8.12-.49,12.17-.48,4.83-.1,9.57-1.56,13.91-3.62,3.98-1.8,7.85-4.2,12.17-5.09,4.71-.26,9.22-2.03,13.91-2.4,8.9-.67,15.86,6.21,21.73,12,1.06.33,2.38.16,3.48.2,1.99,0,4.1,0,6.08,0,5.78,0,11.6,0,17.38,0,5.9-4.34,11.95-10.96,19.99-9.63,3.35.51,6.46,2.13,9.56,3.4,1.9.86,4.08,1.16,6.08,1.65,2.02.54,4.11,1.3,6.08,1.97,6.5,2.42,13.21,3.27,19.99,1.49,3.97-1.06,8.05-1.96,12.17-2.1"/><path class="b" d="M8.64,91.65c3.73-.63,7.56-.41,11.3-.04,5.39.4,10.77-.93,15.65-3.15,3.43-1.48,6.8-3.34,10.43-4.31,1.37-.38,2.96-.41,4.35-.67,2.03-.41,4.11-1.13,6.08-1.73,3.9-1.24,8.2-1.88,12.17-.6,6.11,2.02,11.03,6.58,15.65,10.9,7.52,0,15.08,0,22.6,0,1.37-.3,2.36-1.81,3.48-2.59,2.2-1.72,4.54-3.46,6.95-4.87,4.67-2.86,9.88-3.06,14.78-.62,2.93,1.33,5.7,3.2,8.69,4.41,1.93.72,4.12,1.01,6.08,1.61,2.84.78,5.77,1.61,8.69,2.04,2.87.03,5.82,0,8.69.01,3.53-.12,7-1.38,10.43-2.12,2.83-.64,5.8-.95,8.69-1.11"/><path class="b" d="M8.64,87.33c3.75,0,7.55,0,11.3,0,3.48.06,7.04.04,10.43-.85,4.78-1.08,9.28-3.19,13.91-4.77,1.65-.58,3.5-.95,5.22-1.26,1.76-.43,3.56-1.2,5.22-1.93,4.83-2.27,10.3-4.35,15.65-2.7,4.14,1.22,7.84,3.73,11.3,6.24,2.28,1.73,4.5,3.78,6.95,5.27,4.91,0,9.87,0,14.78,0,.92-.11,1.86-.89,2.61-1.38,1.09-.75,2.37-1.66,3.48-2.39,2.4-1.56,5.08-2.88,7.82-3.71,4.92-1.57,10.21-.44,14.78,1.72,2.86,1.27,5.7,2.85,8.69,3.8,6.5,1.53,13.37,1.64,19.99.94,7.53-.85,14.96-2.98,22.6-2.58"/><path class="b" d="M8.64,82.61c4.33,0,8.71,0,13.04,0,3.48,0,7.03.18,10.43-.69,6.19-1.31,12.26-3.33,18.25-5.3,4.16-1.87,7.85-4.81,12.17-6.34,11.26-4.3,20.28,6.41,30.42,9.17,10.78,2.57,16.29-6.17,27.82-3.63,8.16,1.44,15.89,5.72,24.34,5.3,5.54-.37,10.98-1.9,16.52-2.35,7.22-.54,14.53-.47,21.73.19"/><path class="b" d="M8.64,77.89c6.94,0,13.92,0,20.86,0,6.49-.67,13.06-1.8,19.12-4.28,4.68-2.13,8.43-5.95,13.04-8.22,7.19-3.83,12.96-1.21,19.99,1.17,5.57,1.94,11.44,3.39,17.38,3.15,4.33-.07,8.7-.92,13.04-.66,5.49.73,10.29,3.97,15.65,5.23,5.1,1.43,10.46.77,15.65.27,3.56-.46,6.95-1.92,10.43-2.72,5.86-1.6,11.69-.36,17.38,1.26,3.98.9,8.12,1.34,12.17,1.75"/><path class="b" d="M8.64,73.18c6.07,0,12.18,0,18.25,0,3.17.07,6.4-.08,9.56-.41,5.18-.42,10.54-1.55,14.78-4.72,4.92-3.53,9.49-8.25,15.65-9.47,4.09-.85,8.21.42,12.17,1.33,2.83.6,5.81.76,8.69.72,8.37-.11,17.16-1.64,25.21,1.36,2.73,1.23,5.24,3.09,7.82,4.59,6.37,3.91,11.4,3.73,18.25,1.25,1.94-.7,4.11-.98,6.08-1.56,3.14-1,6.26-2.42,9.56-2.8,6.44-.94,11.89,3.24,17.38,5.87,3.53,1.46,7.5,1.95,11.3,1.94"/><path class="b" d="M8.64,68.46c7.81,0,15.66,0,23.47,0,10.21,0,14.73-.55,22.6-7.4,4.23-3.44,9.09-6.93,14.78-6.89,2.92-.03,5.84.74,8.69,1.24,4.38.84,8.82-.41,13.04-1.53,7.04-2.06,15.02-3.14,21.73.5,3.61,2.13,6.7,5.19,10.43,7.13,4.98,2.77,9.89,1.62,14.78-.66,2.74-1.33,5.84-1.79,8.69-2.79,10.69-4.07,15.4.97,23.47,7.04,3.66,2.81,8.58,3.52,13.04,2.66"/><path class="b" d="M8.64,63.74c10.42-.02,20.88.13,31.29-.33,3.66-.22,7.37-1.2,10.43-3.25,6.12-4.12,12.1-9.95,19.99-9.7,4.06-.03,8.11,1.42,12.17.79,4.87-.81,9.29-3.27,13.91-4.88,7.04-2.65,14.02-2.54,19.99,2.43,5.87,4.54,11.32,8.62,19.12,6.27,1.7-.45,3.51-1.07,5.22-1.51,1.67-.4,3.54-.53,5.22-.9,4.79-1.11,9.67-.91,13.91,1.82,2.47,1.49,4.77,3.47,6.95,5.34,1.06.92,2.36,2,3.48,2.84.65.52,1.71,1.25,2.61,1.06,3.45,0,6.98,0,10.43,0"/><path class="b" d="M8.64,59.02c6.36,0,12.76,0,19.12,0,2.29-.19,4.66-.55,6.95-.61,5.24-.27,10.78-.03,15.65-2.3,6.59-3.34,12.44-8.63,19.99-9.7,4-.75,8.17-.05,12.17-.78,9.36-2.03,17.76-10.04,27.82-7.67,6.35,1.83,11.07,7.18,17.38,9.16,3.88,1.4,8.11,1.22,12.17,1.08,2.58-.02,5.24.32,7.82.42,4.69.23,9.24,1.94,13.04,4.67,1.75,1.21,3.56,2.66,5.22,4,.95.78,2.12,1.97,3.48,1.72,4.62,0,9.29,0,13.91,0"/><path class="b" d="M8.64,54.3c6.94,0,13.92,0,20.86,0,2.3-.02,4.65-.78,6.95-.9,3.44-.34,6.98-.3,10.43-.46,4.09.02,7.85-1.9,11.3-3.9,5.01-2.9,10.02-6.08,15.65-7.64,3.97-1.18,8.27-1.06,12.17-2.55,7.69-2.5,15.07-7.63,23.47-6.77,3.04.4,5.94,1.74,8.69,3.03,4.52,2.19,9.1,4.44,13.91,5.96,2.85.93,5.84,1.67,8.69,2.57,2.56.88,5.22,1.8,7.82,2.55,3.9,1.17,7.76,2.75,11.3,4.78,1.1.62,2.41,1.4,3.48,2.07.97.69,2.21,1.46,3.48,1.25,5.49,0,11.03,0,16.52,0"/><path class="b" d="M8.64,49.58c8.1,0,16.24,0,24.34,0,1.12.08,2.39-.28,3.48-.48,1.39-.25,2.94-.41,4.35-.45,2-.05,4.11.11,6.08.41,2.27.47,4.71.6,6.95-.1,7.76-2.42,13.59-8.63,20.86-12.04,3.51-1.79,7.57-1.92,11.3-3.02,4.67-1.23,9.25-2.96,13.91-4.22,3.09-.82,6.36-1.42,9.56-1.15,5,.71,9.97,2.03,14.78,3.58,4.8,1.6,9.49,3.72,13.91,6.18,4.24,2.44,8.41,5.17,13.04,6.84,3.99,1.57,8.13,2.95,12.17,4.39,6.65.15,13.34,0,19.99.06"/><path class="b" d="M8.64,44.86c14.19,0,28.4,0,42.59,0,2.58,0,5.25,0,7.82,0,4.22-1.86,7.63-5.33,11.3-8.06,3.1-2.39,6.46-4.94,10.43-5.55,6.97-1.23,13.89-2.88,20.86-4.1,2.26-.36,4.66-.6,6.95-.51,2.01.08,4.08.59,6.08.7,5.28.3,10.73.5,15.65,2.66,3.42,1.43,6.61,3.52,9.56,5.74,3.22,2.52,6.53,5.17,10.43,6.55,4.41,1.69,9.23,2.02,13.91,2.24,3.45.26,6.97.39,10.43.32,2.87-.07,5.84.15,8.69-.11"/><path class="b" d="M8.64,40.14c12.45,0,24.92,0,37.38,0,4.04,0,8.13,0,12.17,0,6.03-.06,4.79.78,9.56-3.11,3.52-2.76,6.99-6,11.3-7.46,2.25-.59,4.67-.95,6.95-1.37,6.64-1.04,13.26-2.7,19.99-2.97,3.5-.19,6.93,1.06,10.43.88,6.96-.33,12.96-.23,19.12,3.54,3.41,1.9,6.33,4.65,9.56,6.81,7.24,4.71,14.71,2.5,22.6,1.59,2.61-.3,5.3.06,7.82.72,2.59.43,5.32.03,7.82-.69"/><path class="b" d="M8.64,35.42c13.03,0,26.08,0,39.12,0,4.62,0,9.29,0,13.91,0,6.3-.03,4.43.67,9.56-2.93,2.16-1.46,4.49-2.92,6.95-3.78,3.12-.89,6.43-1.34,9.56-2.18,6.31-1.44,12.58-3.82,19.12-3.76,2.05,0,4.12.61,6.08,1.12,1.67.35,3.51.53,5.22.63,11.47.3,16.71,2.55,26.08,8.93,1.84,1,3.97,1.88,6.08,1.97,1.99-.06,4.12.16,6.08-.18,3.82-.69,7.51-2.15,11.3-2.95,1.66-.35,3.52-.55,5.22-.4,1.09.12,2.38.42,3.48.51,2.28.2,4.69.02,6.95-.33"/><path class="b" d="M8.64,30.7c19.7,0,39.41,0,59.11,0,1.25.18,2.45-.56,3.48-1.14,1.64-.86,3.46-1.71,5.22-2.31,2.51-.89,5.28-1.04,7.82-1.78,3.23-.85,6.43-2.06,9.56-3.21,5.21-1.88,10.98-4.05,16.52-2.28,2.81,1.12,5.75,2.13,8.69,2.86,4.65,1.2,9.39,2.31,13.91,3.94,2.02.72,4.13,1.58,6.08,2.46,1.09.45,2.31,1.22,3.48,1.46,4.91,0,9.87,0,14.78,0,.76,0,1.84,0,2.61,0,1.09-.4,2.4-.93,3.48-1.37,2.23-.9,4.59-1.82,6.95-2.32,1.96-.47,4.09-.3,6.08-.21,2.28.05,4.67-.03,6.95-.14"/><path class="b" d="M8.64,25.98c18.25,0,36.51,0,54.76,0,1.4,0,2.95,0,4.35,0,1.17-.09,2.38-.82,3.48-1.17,1.37-.5,2.93-.96,4.35-1.28,2.54-.63,5.28-.63,7.82-1.27,3.9-.95,7.61-2.67,11.3-4.2,4.34-1.78,9.18-3.56,13.91-2.35,2.15.56,4.13,1.87,6.08,2.86,5.3,2.84,10.8,5.43,16.52,7.3,9.54.27,19.14.01,28.68.1,1.08,0,2.39.02,3.48-.03,2.25-1,4.6-2.06,6.95-2.79,4.19-1.23,8.71-1.16,13.04-1.38"/><path class="b" d="M8.64,21.26c12.16,0,24.34,0,36.51,0,4.04,0,8.13,0,12.17,0,1.99-.04,4.1.09,6.08-.08,1.07-.51,2.36-1.07,3.48-1.48,4.69-1.91,9.8-2,14.78-2.28,3.6-.46,7.07-1.83,10.43-3.14,6.39-2.63,13.82-5.24,19.99-.66,3.76,2.49,7.38,5.31,11.3,7.55,6.93.23,13.92.01,20.86.08,7.23,0,14.5,0,21.73,0,.83,0,1.85-.52,2.61-.83,1.07-.44,2.38-.93,3.48-1.29,3.65-1.1,7.5-1.79,11.3-2.11"/></svg>