<?xml version="1.0" encoding="UTF-8"?><svg id="a" xmlns="http://www.w3.org/2000/svg" width="1920" height="2400" viewBox="0 0 192 240"><defs><style>.b{fill:none;stroke:#fff;stroke-miterlimit:10;stroke-width:.4px;}.c{stroke-width:0px;}</style></defs><rect class="c" x="0" width="192" height="240"/><path class="b" d="M9.28,218.16c2.7.9,5.17,2.55,7.77,3.69,4.6,1.96,9.72,2.51,14.67,2.02,4.27-.33,8.73-1.26,12.94-.05,4.64,1.42,7.91,5.58,12.08,7.87,4.01,0,8.07,0,12.08,0,24.16,0,48.33,0,72.48,0,8.33,0,16.69,0,25.02,0,3.72,0,7.5,0,11.22,0,1.7.03,3.49-.56,5.18-.73"/><path class="b" d="M9.28,213.31c2.65.88,5.14,2.4,7.77,3.34,4.14,1.38,8.61,1.68,12.94,1.36,4.57-.27,9.3-1.18,13.81,0,2.59.63,4.85,2.26,6.9,3.88,2.25,1.69,4.62,3.44,6.9,5.1,41.7.01,83.42,0,125.12,0"/><path class="b" d="M9.28,209.85c2.84.98,5.62,2.53,8.63,2.95,8.58,1.21,17.52-2.41,25.89.69,3.91,1.42,7,4.44,10.35,6.79,1.08.65,2.13,1.98,3.45,2.04,3.72,0,7.5,0,11.22,0,37.97,0,75.94,0,113.9,0"/><path class="b" d="M9.28,206.91c3.04.99,6.24,2.21,9.49,1.83,9.08-1.07,16.19-3.88,25.02.77,4.04,2.09,7.5,5.22,11.22,7.82.75.37,1.78.3,2.59.29,1.09,0,2.37,0,3.45,0,3.43,0,6.93,0,10.35,0,37.1,0,74.21,0,111.31,0"/><path class="b" d="M9.28,203.77c4.35,1.05,7.83,1.1,12.08-.34,8.11-2.67,14.16-3.06,21.57,1.73,2.36,1.48,4.67,3.26,6.9,4.92,1.38.92,2.75,2.29,4.31,2.86,6.6,0,13.24,0,19.85,0,36.24,0,72.49,0,108.73,0"/><path class="b" d="M9.28,199.86c2.57.12,5.26.08,7.77-.53,2.32-.59,4.63-1.56,6.9-2.27,12.34-4.39,19.16,5.21,28.48,11.18,43.43.07,86.88-.04,130.3.02"/><path class="b" d="M9.28,194.82c2.87-.36,5.83-.77,8.63-1.53,2.56-.71,5.14-1.7,7.77-2.19,10.64-2.32,17.67,7.5,25.89,12.3,1.94.37,4.07.09,6.04.17,3.72,0,7.5,0,11.22,0,10.06,0,20.14,0,30.2,0,7.47,0,14.97,0,22.44,0,1.08,0,2.37,0,3.45,0,1.92-1.14,3.82-2.64,6.04-3.16,3.97-1.17,8.07.35,12.08.26,5.46-.14,10.93-1.11,16.39-.85,2.91.13,5.89.65,8.63,1.65,1.11.41,2.41.99,3.45,1.55,0,0,.86.48.86.48,0,0,.86.07.86.07,3.14,0,6.35,0,9.49,0"/><path class="b" d="M9.28,189.57c4.45-1.65,9.2-2.29,13.81-3.34,9.79-2.28,16.08,3,23.3,8.63,2.14,1.48,4.38,3.29,6.9,4.02,3.72,0,7.5,0,11.22,0,12.36,0,24.74,0,37.1,0,4.3,0,8.65,0,12.94,0,2.55-.09,5.24.21,7.77-.15,5.86-6.93,9.9-8.98,18.98-8.11,6.33-.14,12.76-.28,18.98,1.04,4.19.86,8.32,2.35,12.08,4.39,5.78,3.29,3.53,2.86,10.35,2.83"/><path class="b" d="M9.28,184.99c3.18-1.84,6.71-2.68,10.35-2.81,3.13-.37,6.34-.91,9.49-.66,6.96.43,12.62,4.94,18.12,8.77,2.38,1.58,4.97,3.21,7.77,3.91,3.43,0,6.93,0,10.35,0,18.12,0,36.25,0,54.36,0,1.69-1.09,2.85-3.36,4.31-4.77,2.96-3.31,6.72-6.31,11.22-7.04,3.11-.46,6.36-.4,9.49-.64,4.06-.08,8.16.61,12.08,1.64,5.93,1.58,11.68,3.9,17.26,6.43,1.73.82,3.51,1.87,5.18,2.81,1.06.53,2.25,1.43,3.45,1.56"/><path class="b" d="M9.28,181.33c2.09-1.23,4.46-2.28,6.9-2.48,2.56.02,5.21.05,7.77-.22,10.02-1.1,16.08,2.08,24.16,7.43,2.37,1.45,4.99,2.99,7.77,3.45,3.14,0,6.35,0,9.49,0,17.83-.06,35.68.11,53.5-.06,4.12-5.19,8.8-10.85,15.53-12.47,2.23-.55,4.63-.67,6.9-.94,3.4-.66,6.96-.58,10.35.13,5.3,1.07,10.41,3.03,15.53,4.74,2.54.89,5.22,1.65,7.77,2.52,2.65,1.03,5.2,2.52,7.77,3.74"/><path class="b" d="M9.28,178.42c6.03-3.17,7.85-1.26,13.81-1.73,10.88-1.21,16.58-.27,25.89,5.72,1.6.93,3.37,1.97,5.18,2.43,3.72,0,7.5,0,11.22,0,17.54,0,35.1,0,52.64,0,1.89-1.39,3.36-3.55,5.18-5.05,2.48-2.27,5.4-4.27,8.63-5.3,2.76-.92,5.77-1.08,8.63-1.5,1.69-.27,3.46-.83,5.18-.94,2.57-.22,5.23.03,7.77.45,4.92.84,9.78,2.19,14.67,3.17,2.54.59,5.26.84,7.77,1.57,2.34.74,4.66,1.88,6.9,2.86"/><path class="b" d="M9.28,175.65c2.17-.82,4.57-1.4,6.9-1.29,2.26.28,4.63.53,6.9.24,10.49-1.45,16.52-2.04,25.89,3.94.75.46,1.8,1.05,2.59,1.45,1.36.31,2.93.11,4.31.16,2.85,0,5.78,0,8.63,0,18.12,0,36.25,0,54.36,0,4.46-4.2,9.23-7.72,15.53-8.3,2.56-.33,5.27-.4,7.77-1.12,6.95-2.24,14.41-1.31,21.57-1.02,3.72.25,7.52.3,11.22.81,2.68.53,5.26,1.73,7.77,2.79"/><path class="b" d="M9.28,171.98c1.93-.55,4.03-.96,6.04-1,1.98,0,4.06.39,6.04.19,4.88-.37,9.75-1.64,14.67-1.22,4.97.32,9.62,2.43,13.81,5,.96.73,2.33.46,3.45.51,1.98,0,4.06,0,6.04,0,5.74,0,11.52,0,17.26,0,14.38,0,28.77,0,43.14,0,1.51-.82,2.84-2.25,4.31-3.14,3.05-2.07,6.69-3.28,10.35-3.63,2.87-.31,5.9-.39,8.63-1.42,6.41-2,13.2-2.61,19.85-3.32,3.99-.33,8.1-.72,12.08-.12,2.71.55,5.29,1.84,7.77,3.02"/><path class="b" d="M9.28,166.92c1.96-.33,4.05-.53,6.04-.49,2.56.13,5.2.49,7.77.38,8.32-.35,16.37-.59,24.16,2.89.77.32,1.79.82,2.59,1.07,1.38,0,2.93,0,4.31,0,2.85,0,5.78,0,8.63,0,12.07,0,24.17,0,36.24,0,4.3,0,8.65,0,12.94,0,2.26-.09,4.67.21,6.9-.16,4.97-4.59,10.43-7.33,17.26-7.6,1.69-.14,3.52-.28,5.18-.64,1.39-.35,2.91-.85,4.31-1.15,5.97-1.28,12.08-2.04,18.12-2.9,7.91-1.03,11.67-1.06,18.98,2.48"/><path class="b" d="M9.28,161.3c5.51-.56,10.98.73,16.39,1.54,6.89,1.08,13.85,1.96,20.71,3.25,16.39,0,32.79,0,49.19,0,4.59,0,9.22,0,13.81,0,2.23-.12,4.74.28,6.9-.22,1.07-.91,2.35-1.99,3.45-2.86,5.52-4.56,10.95-6.67,18.12-6.92,2.3-.1,4.65-.63,6.9-1.06,1.96-.32,4.06-.52,6.04-.7,6.92-.43,13.78-1.87,20.71-2.08,3.88-.11,7.63,1.3,11.22,2.63"/><path class="b" d="M9.28,155.75c4.38-.24,8.84.52,12.94,2.06,2.28.82,4.62,1.77,6.9,2.57,1.36.44,2.86,1.13,4.31,1.02,26.46-.03,52.93.06,79.39-.03,6.61-4.33,12.57-10.46,20.71-11.68,3.4-.56,6.94-.54,10.35-.99,5.16-.34,10.39-.03,15.53-.67,9.95-1.2,13.29-2.71,23.3.83"/><path class="b" d="M9.28,150.61c4.47-.3,9.06.73,12.94,2.98,1.1.6,2.37,1.36,3.45,2,1.09.71,2.11,1.3,3.45,1.13,21.57,0,43.15,0,64.72,0,4.3,0,8.65,0,12.94,0,3.39-.27,6.69-1.63,9.49-3.52,12.98-9.17,15.84-10.31,31.93-9.59,4.02.19,8.12.03,12.08-.74,9.62-1.96,12.52-3.6,22.44-.11"/><path class="b" d="M9.28,145.96c4.6-.38,9.24,1.1,12.94,3.81,1.1.69,2.22,1.8,3.45,2.26.46,0,1.27,0,1.73,0,21.57,0,43.15,0,64.72,0,1.72.14,3.49-.37,5.18-.6,2.55-.32,5.21-.25,7.77-.19,6.93.4,9.86-1.22,15.53-4.85,10.72-6.89,14.63-6.31,26.75-5.55,4.09.13,8.23-.58,12.08-1.97,9.55-3.49,12.91-6.73,23.3-2.23"/><path class="b" d="M9.28,141.19c5.74-.18,10.33,2.78,14.67,6.16,20.99,0,42,0,62.99,0,3.14,0,6.35.02,9.49-.01,2.52-.54,5.2-.6,7.77-.47,10.4.98,11.56-.85,20.71-4.58,3.28-1.31,6.81-2.23,10.35-2.39,5.46-.27,11.03,1.21,16.39-.36,7.32-1.79,12.87-7.45,19.85-10,3.75-1.28,7.79.06,11.22,1.69"/><path class="b" d="M9.28,135.67c5.3.36,9.83,3.62,13.81,6.88,5.72.3,11.52.02,17.26.11,10.06,0,20.14,0,30.2,0,8.33,0,16.69,0,25.02,0,1.12.1,2.38-.23,3.45-.53,1.36-.3,2.92-.48,4.31-.52,4.03-.17,8.05.96,12.08.75,5.5-.27,10.93-1.59,16.39-2.16,14.7-1.49,17.34,1.92,31.06-7.79,6.59-4.55,11.51-9.02,19.85-5.16"/><path class="b" d="M9.28,129.63c4.29.62,7.9,3.32,11.22,5.93,2.72,2.04,2.49,2.63,6.04,2.42,18.69,0,37.4,0,56.09,0,2.56,0,5.21,0,7.77,0,1.38-.09,3,.24,4.31-.28,1.86-1.08,3.95-2.01,6.04-2.51,2.8-.69,5.83-.62,8.63.05,3.17.78,6.29,2.05,9.49,2.75,5.45,0,10.94,0,16.39,0,5.77.01,11.67.28,17.26-1.41,5.33-1.48,10.09-4.52,14.67-7.54,4.93-3.25,9.33-6.31,15.53-4.44"/><path class="b" d="M9.28,123.5c4.41.74,7.82,3.89,11.22,6.54,1.07.82,2.34,1.76,3.45,2.52.48.38,1.12.73,1.73.72,2.56,0,5.21,0,7.77,0,10.06,0,20.14,0,30.2,0,6.32,0,12.67,0,18.98,0,9.74-.1,5.17,1.02,12.94-3.98,6.53-4.05,12.65-3.74,18.98.5,1.99,1.1,3.88,2.77,6.04,3.48,1.68,0,3.5,0,5.18,0,4.87,0,9.8,0,14.67,0,3.72,0,7.5,0,11.22,0,1.68,0,3.5,0,5.18,0,1.73-.24,3.54-.86,5.18-1.47,3.33-1.28,6.5-3.12,9.49-5.05,3.27-2.35,7.07-4.34,11.22-4"/><path class="b" d="M9.28,117.95c5.9.78,9.67,6,14.67,8.69,1.07.63,2.34,1.34,3.45,1.89.78.11,1.81.09,2.59.09,9.48,0,18.99,0,28.48,0,5.74,0,11.52,0,17.26,0,2.56,0,5.21,0,7.77,0,1.61-.3,2.96-1.94,4.31-2.81,4.6-3.46,9.56-7.41,15.53-7.78,5.03-.33,9.4,2.75,12.94,5.99,1.07.94,2.36,2.07,3.45,2.99.72.56,1.62,1.54,2.59,1.61,3.43,0,6.93,0,10.35,0,7.76,0,15.54,0,23.3,0,2.56,0,5.21,0,7.77,0,1.67-.12,3.59.3,5.18-.29,2.46-1.23,4.63-3.14,6.9-4.66,2.06-1.32,4.47-2.31,6.9-2.66"/><path class="b" d="M9.28,113.79c4.42-.12,7.79,3.02,11.22,5.33,3.2,2.04,6.75,3.63,10.35,4.8,8.33,0,16.69,0,25.02,0,6.6,0,13.24,0,19.85,0,1.17-.46,2.34-1.41,3.45-1.98,1.72-.86,3.55-1.85,5.18-2.88,5.34-3.26,10.79-7.29,17.26-7.61,7.71-.4,12.97,5.26,18.12,10.12,3.12,2.95,2.77,2.3,6.9,2.35,15.24-.09,30.51.17,45.73-.09,3.05-2.48,6.41-4.89,10.35-5.64"/><path class="b" d="M9.28,110.53c4.29-.85,7.66,1.48,11.22,3.42,3.54,1.79,7.38,3.05,11.22,4.04,1.68.42,3.48.91,5.18,1.25,3.72,0,7.5,0,11.22,0,7.76,0,15.54,0,23.3,0,2.27-1.52,4.53-3.29,6.9-4.66,2.26-1.23,4.68-2.39,6.9-3.69,6.18-3.6,13.52-6.87,20.71-4.42,2.77.89,5.49,2.3,7.77,4.11,3.53,2.74,6.56,6.28,10.35,8.66,12.07,0,24.17,0,36.24,0,2.85,0,5.78,0,8.63,0,1.68-.09,3.54.22,5.18-.21,2.58-1.73,5.55-3.06,8.63-3.56"/><path class="b" d="M9.28,107.81c3.92-1.29,7.53-.06,11.22,1.29,3.65,1.19,7.44,2.09,11.22,2.74,3.13.55,6.36.96,9.49,1.53,2,.23,4.06,1.15,6.04,1.19,6.6-.01,13.24.02,19.85-.01,3.27-1.51,6.39-3.49,9.49-5.33,2.51-1.5,5.23-2.84,7.77-4.3,4.51-2.54,9.38-5.04,14.67-5.17,5.23-.11,10.35,1.98,14.67,4.8,4.13,2.9,7.81,6.51,12.08,9.21,1.18,1.01,2.88.8,4.31.81,1.97,0,4.07,0,6.04,0,5.74,0,11.52,0,17.26,0,7.18,0,14.39,0,21.57,0,2.46-.94,5.14-1.56,7.77-1.76"/><path class="b" d="M9.28,105.63c5.02-1.84,10.4-.66,15.53-.03,5.13.7,10.36.94,15.53,1.01,2.27.05,4.65.13,6.9.42,2.27.33,4.62.84,6.9,1.08,5.2.65,10.57.2,15.53-1.52,4.55-1.55,8.83-3.92,12.94-6.38,5.23-3.19,10.93-6.52,17.26-6.26,4.84.21,9.53,2.09,13.81,4.26,4.76,2.68,9.07,6.18,13.81,8.89,1.91.99,3.9,2.37,6.04,2.76,1.08,0,2.37,0,3.45,0,4.01,0,8.07,0,12.08,0,7.18,0,14.39,0,21.57,0,1.69.06,3.49-.35,5.18-.46,2.26-.18,4.64-.2,6.9-.11"/><path class="b" d="M9.28,103.84c3.63-1.03,7.46-1.64,11.22-1.96,4.29-.24,8.66-.09,12.94-.46,4.61-.33,9.2-1.28,13.81-1.62,2.85-.18,5.79.06,8.63.3,8.42.93,16.78.74,24.16-3.93,3.65-2.22,7.23-4.76,11.22-6.37,3.79-1.58,8.06-2.01,12.08-1.15,4.12.93,8.19,2.37,12.08,3.99,6.47,2.85,12.55,6.6,18.98,9.52,2.49,1.14,5.14,2.19,7.77,2.98,1.68.06,3.5.02,5.18.03,1.97,0,4.07,0,6.04,0,3.46-.58,6.89-1.62,10.35-2.17,2.53-.43,5.2-.66,7.77-.47,3.76.35,7.5,1.29,11.22,1.9"/><path class="b" d="M9.28,100.5c2.27,0,4.63,0,6.9,0,2.27-.49,4.58-1.31,6.9-1.61,3.73-.61,7.54-1.12,11.22-2,3.76-.87,7.48-2.14,11.22-3.12,6.76-1.95,13.82-.44,20.71-.52,12.78.09,16.06-7.19,26.75-10.28,6.12-1.77,12.29.54,18.12,2.3,6.72,1.72,13.44,3.67,19.85,6.35,4.28,1.67,8.5,3.77,12.94,4.98,3.13.66,6.43.09,9.49-.65,6.15-1.57,12.67-3.66,18.98-1.72,3.46,1.14,6.87,2.64,10.35,3.71"/><path class="b" d="M9.28,95.81c4.87,0,9.8,0,14.67,0,5.93-1.22,11.64-3.55,17.26-5.79,4.37-1.91,9.06-2.96,13.81-3.35,6.98-.69,14.16-1.22,20.71-3.93,4.69-1.89,8.88-5.05,13.81-6.39,7.87-2.41,14.26,1.26,21.57,3.38,7.11,1.63,14.49,1.98,21.57,3.76,2.58.6,5.22,1.33,7.77,2.05,2.48.81,5.16,1.29,7.77.95,6.88-.82,13.7-3.84,20.71-2.36,4.93,1,9.24,3.91,13.81,5.88"/><path class="b" d="M9.28,91.13c6.31-.05,12.67.11,18.98-.06,4.9-1.83,9.74-3.92,14.67-5.68,2.76-1.05,5.75-1.54,8.63-2.12,2.62-.6,5.26-1.47,7.77-2.44,8.28-3.21,15.88-8.01,24.16-11.23,9.78-3.92,16.06-.75,25.02,3.02,5.23,1.92,10.88,2.46,16.4,2.93,4.29.33,8.65.51,12.94.9,2.85.2,5.77.9,8.63.44,4.07-.58,8.01-2.07,12.08-2.69,9.72-1.73,16.48,3.14,24.16,8.17"/><path class="b" d="M9.28,86.44c6.03,0,12.09,0,18.12,0,2.06-.39,4.03-1.59,6.04-2.22,3.36-1.24,6.85-2.35,10.35-3.11,2.53-.63,5.24-.66,7.77-1.3,9.17-2.73,15.87-10.19,24.16-14.62,2.4-1.34,5.13-2.15,7.77-2.85,4.19-1.16,8.7-1.48,12.94-.4,4.51,1.07,8.65,3.37,12.94,5.05,7.72,2.75,15.94,4.51,24.16,3.6,3.43-.35,6.93-.69,10.35-1.04,2.65-.47,5.24-1.55,7.77-2.45,4.36-1.64,9.2-2.67,13.81-1.45,6.68,1.66,12.1,6.16,17.26,10.48"/><path class="b" d="M9.28,81.76c4.59,0,9.22,0,13.81,0,.82,0,1.86.09,2.59-.35,1.36-.7,2.9-1.42,4.31-2,3.03-1.24,6.26-2.18,9.49-2.71,3.4-.6,6.92-.63,10.35-.76,2.42-.24,4.79-1.22,6.9-2.39,7.8-4.24,13.75-11.85,22.44-14.43,17.15-3.84,19.93-.77,35.38,5.14,7.37,3.23,13.68,4.59,21.57,2.18,3.13-1,6.47-1.66,9.49-2.97,3.41-1.56,6.71-3.6,10.35-4.59,5.4-1.66,10.99.47,15.53,3.41,4.29,2.36,7.7,6.03,11.22,9.36"/><path class="b" d="M9.28,77.07c3.43,0,6.92,0,10.35,0,1.32.2,2.42-.55,3.45-1.25,1.07-.65,2.34-1.39,3.45-1.97,3.22-1.69,6.74-2.98,10.35-3.48,4.28-.67,8.65-.09,12.94.07,2.68-.04,5.35-.91,7.77-2.02,7.07-3.19,13.02-8.94,20.71-10.68,2.56-.35,5.23-.55,7.77-1.07,10.49-2.16,17.15-.55,26.75,3.76,3.66,1.74,7.23,3.94,11.22,4.86,6.37,1.69,12.46-1.55,18.12-4.08,5.57-2.26,10.17-7.11,16.4-7.63,4.8-.42,9.15,2.29,12.94,4.92,4.37,2.61,7.71,6.58,11.22,10.2"/><path class="b" d="M9.28,72.39c2.84-.1,5.81.22,8.63-.16,5.11-3.38,10.31-7.1,16.39-8.45,3.95-.92,8.09-.64,12.08-.14,3.42.52,6.97.5,10.35-.28,5.89-1.25,11.42-3.88,17.26-5.34,3.07-.91,6.36-.7,9.49-1.16,6.8-1.3,13.78-3.48,20.71-1.73,3.27.76,6.52,1.99,9.49,3.55,4.53,2.44,9.31,5.42,14.67,4.97,5.7-.48,10.48-4.09,15.53-6.44,3.96-2.27,7.59-5.44,12.08-6.61,5.36-1.51,10.52,1.58,14.67,4.68,1.68,1.26,3.63,2.46,5.18,3.9,2.4,2.23,4.61,4.84,6.9,7.18"/><path class="b" d="M9.28,67.7c1.68,0,3.49,0,5.18,0,2.43-1.05,4.69-2.66,6.9-4.09,5.42-3.64,11.43-7.07,18.12-7.26,4.9-.22,9.77,1.03,14.67.97,6.35.05,12.67-1.02,18.98-1.59,4.29-.48,8.69.05,12.94-.77,12.13-2.42,18.97-2.23,30.2,3.44,7.21,3.59,12.89,3.39,19.85-.68,3.35-2.04,7.01-3.66,10.35-5.69,3.65-2.23,7.64-4.67,12.08-4.42,4.6.27,8.49,3.18,12.08,5.79,1.65,1.26,3.61,2.41,5.18,3.78,2.37,2.09,4.6,4.55,6.9,6.72"/><path class="b" d="M9.28,63.02c.47,0,1.27,0,1.73-.03.47-.21,1.27-.63,1.73-.85,1.1-.55,2.38-1.21,3.45-1.8,6.04-3.27,11.4-8.06,18.12-9.96,6.82-2.12,13.83.28,20.71.71,8.61.66,17.31.38,25.89,1.45,6.59.62,13.26.13,19.85.73,3.47.3,6.99.88,10.35,1.79,2.3.62,4.62,1.56,6.9,2.25,7.06,2.37,12.91.44,18.98-3.37,2.75-1.75,5.76-3.22,8.63-4.76,7.69-4.54,13.14-5.19,20.71.14,1.7,1.16,3.48,2.5,5.18,3.66,1.35.93,3.01,1.75,4.31,2.75,2.35,1.77,4.59,3.89,6.9,5.71"/><path class="b" d="M9.28,57.63c3.7-2.09,7.59-4,11.22-6.22,4.12-2.6,8.23-5.53,12.94-6.96,6.08-2.03,12.11-.09,18.12,1.04,5.41.84,10.95.88,16.4,1.33,5.23.38,10.46,1.27,15.53,2.61,5.08,1.31,10.28,2.4,15.53,2.71,4.87.38,9.86.02,14.67.99,15.45,4.23,18.03.34,31.06-6.52,9.55-5.46,14.95-3.38,23.3,2.86,1.34.95,2.87,2,4.31,2.78,1.07.54,2.42,1.07,3.45,1.68,2.34,1.32,4.53,3.13,6.9,4.39"/><path class="b" d="M9.28,51.33c3.64-2.19,7.5-4.11,11.22-6.17,3.59-2.11,7.2-4.47,11.22-5.7,6.75-2.22,12.55.4,18.98,2.09,7.67,1.53,15.61.12,23.3,1.55,13.07,2.46,16.66,8.88,31.93,5.96,2.25-.35,4.62-.8,6.9-.69,2.6.16,5.22.89,7.77,1.42,11.53,2.74,17.11-2.43,26.75-7.05,9.09-4.18,15.18,1.52,22.44,6.18,2.06,1.4,4.66,1.83,6.9,2.83,1.09.49,2.38,1.14,3.45,1.68.72.29,1.83.23,2.59.22"/><path class="b" d="M9.28,44.91c3.6-2.22,7.42-4.15,11.22-5.98,4.53-2.42,9.38-5,14.67-4.76,5.85.1,10.84,3.64,16.39,4.93,7.69,1.44,15.63-.89,23.3.86,7.44,1.41,13.71,7.28,21.57,6.71,5.15-.22,9.73-2.99,14.67-4.13,3.83-.76,7.63.9,11.22,2.05,10.67,3.7,14.88,1.27,24.16-3.74,10.12-4.88,15.75,1.62,24.16,5.87,1.57.79,3.5.88,5.18,1.3,1.09.26,2.34.83,3.45.96,1.07,0,2.38,0,3.45,0"/><path class="b" d="M9.28,38.28c4.56-3.03,9.62-5.24,14.67-7.31,5.84-2.49,11.64-2.12,17.26.73,2.59,1.22,5.13,2.75,7.77,3.88,6.27,2.62,13.24,1.59,19.85,2.19,3.21.26,6.47.91,9.49,2.03,2.88,1.09,5.68,2.63,8.63,3.54,12.7,4.11,18.82-7.83,27.61-6.87,5.23.93,9.6,4.43,14.67,5.9,3.34,1.07,7.07,1.08,10.35-.18,2.38-.88,4.59-2.39,6.9-3.43,5.13-2.58,10.47-2.37,15.53.29,3.15,1.5,6.12,3.61,9.49,4.61,3.66.76,7.5.6,11.22.61"/><path class="b" d="M9.28,30.77c3.22-1.92,6.73-3.43,10.35-4.39,2.79-.87,5.7-1.75,8.63-1.98,5.19-.5,10.21,1.47,14.67,3.94,2.8,1.52,5.65,3.16,8.63,4.29,4.16,1.64,8.57,2.69,12.94,3.58,3.14.64,6.37,1.25,9.49,1.97,2,.35,4.02,1.26,6.04,1.41,3.72,0,7.5,0,11.22,0,1.08,0,2.37,0,3.45,0,.82.02,1.89.07,2.59-.45,3-1.54,5.8-3.6,8.63-5.42,2.09-1.29,4.4-2.71,6.9-2.89,6.36.01,12.18,6.35,18.12,8.6,1.95.33,4.07.08,6.04.15,1.08,0,2.37,0,3.45,0,.79,0,1.87.09,2.59-.33,4.05-1.92,8.35-3.97,12.94-3.78,4.88.11,9.26,2.63,13.81,4.1,4.3.03,8.65,0,12.94.01"/><path class="b" d="M9.28,22.76c3.27-1.38,6.85-1.86,10.35-2.11,2.26-.22,4.63-.45,6.9-.48,13.46-.37,24.45,8.66,36.24,13.79.76.32,1.78.75,2.59.94,1.08,0,2.37,0,3.45,0,2.56,0,5.21,0,7.77,0,4.01,0,8.07,0,12.08,0,1.38,0,2.93,0,4.31,0,.79,0,1.86.08,2.59-.3,5.32-2.33,13.52-9.62,18.98-8.75,4.95.88,8.87,4.49,12.94,7.2.75.52,1.81,1.22,2.59,1.71,1.06.25,2.37.12,3.45.15,2.85,0,5.78,0,8.63,0,2.56,0,5.21,0,7.77,0,2.81-.69,5.7-1.53,8.63-1.47,3.5-.1,6.93,1,10.35,1.47,4.58,0,9.22,0,13.81,0"/><path class="b" d="M9.28,15.07c3.45-.53,6.95.31,10.35.77,4.58.66,9.24,1.15,13.81,1.92,5.96,1.03,12.02,2.58,17.26,5.7,3.27,2.04,6.26,4.66,9.49,6.75,10.35,0,20.72,0,31.06,0,4.95-1.89,9.75-4.3,14.67-6.28,5.65-2.33,8.87-3.52,14.67-.58,3.62,1.8,6.93,4.3,10.35,6.44.69.53,1.78.44,2.59.42,1.38,0,2.93,0,4.31,0,4.3,0,8.65,0,12.94,0,1.38,0,2.93,0,4.31,0,2.79-.75,5.74-1.19,8.63-1.22,3.15-.05,6.35.36,9.49.44,3.15.04,6.36-.2,9.49-.51"/><path class="b" d="M9.28,8.32c3.02.36,5.8,1.89,8.63,2.92,4.2,1.57,8.52,3,12.94,3.79,6.64,1.34,14.02.95,19.85,4.85,2.43,1.65,4.6,3.84,6.9,5.65,9.48,0,18.99,0,28.48,0,1.16-.18,2.36-.93,3.45-1.34,1.36-.57,2.91-1.13,4.31-1.58,3.92-1.27,8.04-1.95,12.08-2.7,2.31-.39,4.64-1.12,6.9-1.69,4.08-.86,8.32.16,12.08,1.77,2.63,1.11,5.23,2.53,7.77,3.82,1.62.76,3.31,1.96,5.18,1.72,4.59,0,9.22,0,13.81,0,3.11-1.03,6.28-2.17,9.49-2.86,4.51-1.07,9.21-.92,13.81-.82,2.61-.11,5.25-.75,7.77-1.39"/></svg>