<?xml version="1.0" encoding="UTF-8"?><svg id="a" xmlns="http://www.w3.org/2000/svg" width="1920" height="2400" viewBox="0 0 192 240"><defs><style>.b{fill:none;stroke:#fff;stroke-miterlimit:10;stroke-width:.4px;}.c{stroke-width:0px;}</style></defs><rect class="c" width="192" height="240"/><path class="b" d="M8.84,223.87c2.63.64,5.17,1.87,7.81,2.48,3.69.72,7.54.87,11.27.53,3.46-.29,6.95-1,10.41-1.32,1.98-.17,4.11-.17,6.07.24.8.17,1.85.51,2.6.83.41.28,1.24.52,1.73.44,14.16,0,28.34,0,42.5,0,6.03-5.59,11.27-9.68,19.95-7.51,3.5.79,6.89,2.22,10.41,2.93,3.11.67,6.38.73,9.54.49,3.44-.23,7.13-.71,10.41.67,2.06.97,4.05,2.37,6.07,3.42,11.85,0,23.71,0,35.56,0"/><path class="b" d="M8.84,219.48c2.61.44,5.19,1.39,7.81,1.8,5.78.76,11.63-.07,17.35-.99,3.41-.5,7-.93,10.41-.19,1.82.38,3.65,1.23,5.2,2.23,4.61.09,9.27,0,13.88.04,9.24-.07,18.52.14,27.75-.08,10.7-8.73,17.51-6.05,29.49-2.54,3.37.86,6.94,1.06,10.41.78,4.37-.39,9.09-1,13.01,1.43.4.28,1.25.51,1.73.41,1.09,0,2.38,0,3.47,0,2.86,0,5.81,0,8.67,0,8.37,0,16.78,0,25.15,0"/><path class="b" d="M8.84,216.97c2.57.02,5.23.26,7.81.13,2.91-.18,5.85-.78,8.67-1.48,7.01-1.68,14.59-4.49,21.68-1.75,2.4.98,4.7,2.47,6.94,3.76,2.28.02,4.66,0,6.94,0,8.09,0,16.2,0,24.28,0,1.39-.08,3.02.24,4.34-.28,2.19-1.25,4.54-2.47,6.94-3.29,3.87-1.38,8.1-1.46,12.14-.95,3.55.23,7.04,1.12,10.41,2.25,4.46,1.45,9.21,2.03,13.88,1.56,2.56-.2,5.24-.55,7.81-.25,1.12.13,2.41.52,3.47.91.76.07,1.84.05,2.6.05,12.14,0,24.29,0,36.43,0"/><path class="b" d="M8.84,212.94c2.87,0,5.81,0,8.67,0,2.68-.7,5.25-2.04,7.81-3.08,12.76-5.55,18.25-5.23,30.36,1.28,1.38.61,2.85,1.51,4.34,1.8,2.28,0,4.66,0,6.94,0,4.9,0,9.85,0,14.74,0,1.39-.07,2.99.18,4.34-.21,2.83-1.12,5.73-2.31,8.67-3.1,5.06-1.47,10.4-1.26,15.61-1.07,3.59-.17,7.04,1.19,10.41,2.24,3.34,1.07,6.89,1.78,10.41,1.69,3.46-.03,6.95-.79,10.41-.71,2.03.07,4.13.58,6.07,1.16.76,0,1.84,0,2.6,0,10.98,0,21.98,0,32.96,0"/><path class="b" d="M8.84,208.24c2.87,0,5.81,0,8.67,0,1.63.2,3-1.15,4.34-1.86,12.97-8.37,20.15-7.29,33.82-1.48,3.09,1.27,6.29,2.51,9.54,3.31,5.77.08,11.58.01,17.35.03,4.35-1.07,8.62-2.65,13.01-3.6,3.97-.9,8.09-1.28,12.14-1.52,1.69-.07,3.51-.36,5.2-.3,3.3.26,6.42,1.69,9.54,2.69,3.87,1.33,8.06,1.95,12.14,1.45,4.87-.61,9.88-1.96,14.74-.53,1.43.37,2.99.94,4.34,1.55.72.35,1.83.28,2.6.28,8.95,0,17.93,0,26.89,0"/><path class="b" d="M8.84,203.53c1.99,0,4.08,0,6.07,0,1.39-.07,2.99.19,4.34-.21,1.94-1.42,4-2.9,6.07-4.12,6.61-4.05,12.73-4,19.95-1.81,2.27.64,4.69,1.1,6.94,1.8,3.46,1.05,6.93,2.34,10.41,3.33,1.38.37,2.91.85,4.34,1,2.86,0,5.81,0,8.67,0,2.57,0,5.23,0,7.81,0,2.02-.39,4.1-1.08,6.07-1.67,5.39-1.72,10.88-3.34,16.48-4.25,2.56-.34,5.21-1.08,7.81-.85,4.51.65,8.57,3.11,13.01,4.09,6,1.61,11.52-.36,17.35-1.53,4.09-.69,8.34.04,12.14,1.62,1.1.45,2.4,1.04,3.47,1.56.74.36,1.76.97,2.6,1.02,6.93,0,13.89,0,20.82,0"/><path class="b" d="M8.84,198.82c1.99,0,4.08,0,6.07,0,1.39-.07,2.98.18,4.34-.2,2.16-1.59,4.5-3.15,6.94-4.27,6.93-3.34,13.06-1.27,19.95.69,3.45.71,7.01,1.21,10.41,2.18,2.28.53,4.62,1.29,6.94,1.61,1.09,0,2.38,0,3.47,0,5.77,0,11.58,0,17.35,0,1.48.15,2.98-.5,4.34-.99,1.7-.62,3.52-1.34,5.2-1.98,4.76-1.85,9.69-3.43,14.74-4.24,3.95-.86,6.73-.34,10.41,1.23,5.16,2.25,10.78,4.33,16.48,3.14,6.86-1.42,11.69-4.16,19.08-2.43,6.27,1.13,12.7,6.04,19.08,4.87,3.09-.86,6.33-1.48,9.54-1.7"/><path class="b" d="M8.84,194.11c4.32,0,8.69,0,13.01,0,2.28-.99,4.5-2.4,6.94-3.03,3.92-1.21,8.15-1.02,12.14-.28,3.13.62,6.35,1.13,9.54,1.26,2.91.3,5.85.99,8.67,1.73,1.92.58,4.09.23,6.07.32,3.45,0,6.96,0,10.41,0,4.03,0,8.11,0,12.14,0,1.23.17,2.43-.75,3.47-1.29,1.97-1.1,4.05-2.28,6.07-3.29,4.54-2.3,9.6-3.96,14.74-3.81,3.38.31,6.46,2.09,9.54,3.38,8.54,3.89,13.34,2.09,21.68-.7,3.91-1.15,8.14-1.37,12.14-.54,6.06,1.01,11.93,4.83,18.21,3.52,3.07-.94,6.34-1.43,9.54-1.48"/><path class="b" d="M8.84,189.4c6.35,0,12.73,0,19.08,0,1.15.11,2.39-.38,3.47-.67,1.38-.37,2.93-.67,4.34-.86,3.72-.51,7.54-.36,11.27-.51,3.17-.29,6.44-.18,9.54.57,1.1.25,2.39.6,3.47.92.78.23,1.77.66,2.6.55,8.09,0,16.2,0,24.28,0,1.12-.07,2.53.28,3.47-.49,1.68-1.21,3.48-2.53,5.2-3.68,5.2-3.6,11.95-6.29,18.21-4,3.83,1.48,7.31,3.93,11.27,5.08,6.16,2.03,11.64-.75,17.35-2.73,3.9-1.21,8.13-1.42,12.14-.72,5.79.86,11.39,3.77,17.35,3.13,1.43-.18,2.93-.81,4.34-1.1,2.24-.48,4.66-.56,6.94-.41"/><path class="b" d="M8.84,184.69c8.95,0,17.93,0,26.89,0,1.45.11,2.95-.46,4.34-.77,2.27-.55,4.65-1.04,6.94-1.48,3.97-.96,8.18-.96,12.14.04,2.33.54,4.69,1.41,6.94,2.21,3.45,0,6.96,0,10.41,0,2.57,0,5.23,0,7.81,0,1.71-.13,3.86.49,5.2-.87,7.32-5.76,14.83-11.24,24.28-6.38,5.62,3.12,11.37,7.73,18.21,5.98,3.31-.72,6.36-2.46,9.54-3.58,3.88-1.31,8.14-1.33,12.14-.63,5.21.84,10.28,2.93,15.61,2.91,2.07.03,4.15-.65,6.07-1.32,2.51-.69,5.26-.56,7.81-.12"/><path class="b" d="M8.84,179.98c9.82,0,19.67,0,29.49,0,1.82.2,3.54-.47,5.2-1.08,2.26-.76,4.62-1.55,6.94-2.11,4.25-1.02,8.76-.92,13.01.08,3.51.79,6.95,2.09,10.41,3.09,1.39.02,2.95,0,4.34.01,1.98-.02,4.09.05,6.07-.04,1.13-.54,2.41-1.3,3.47-1.97,8.32-5.64,14.42-9.45,24.28-4.27,2.41,1.3,4.65,3.09,6.94,4.58,1.04.61,2.23,1.6,3.47,1.71,2.57,0,5.23,0,7.81,0,1.68-.08,3.55.19,5.2-.18,1.98-.89,4.01-2,6.07-2.71,3.91-1.25,8.17-.94,12.14-.16,5.15.97,10.3,2.85,15.61,2.48,2.08-.1,4.14-.92,6.07-1.62,2.54-.71,5.31-.32,7.81.38"/><path class="b" d="M8.84,175.27c8.09,0,16.2,0,24.28,0,3.73-.06,7.55.14,11.27-.09,2.57-.88,5.21-1.84,7.81-2.65,4.18-1.32,8.62-2.07,13.01-1.76,3.79.22,7.54,1.14,11.27,1.77,3.47.7,6.33.46,9.54-1.07,7.78-3.73,13.32-6.33,21.68-2.08,1.73.86,3.59,1.81,5.2,2.88,1.43.9,2.81,2.27,4.34,3.01,7.8,0,15.62,0,23.42,0,2.29.02,4.63-.74,6.94-.56,2.59.04,5.21.72,7.81.56,9.25.05,18.52-.09,27.75,0"/><path class="b" d="M8.84,170.56c13.58,0,27.18,0,40.76,0,1.17.13,2.4-.62,3.47-.99,1.39-.55,2.93-1.16,4.34-1.66,3.6-1.3,7.44-2.2,11.27-2.34,2.58-.1,5.24.1,7.81.38,1.98.19,4.08.57,6.07.31,5.8-.92,11.42-3.35,17.35-1.55,4.04,1.09,7.63,3.45,11.27,5.42.96.68,2.36.36,3.47.43,1.39,0,2.95,0,4.34,0,4.9,0,9.85,0,14.74,0,16.47,0,32.96,0,49.44,0"/><path class="b" d="M8.84,165.85c13.29,0,26.6,0,39.9,0,.85.12,1.84-.34,2.6-.63,1.1-.43,2.38-.97,3.47-1.43,3.09-1.31,6.28-2.62,9.54-3.43,4.23-1.08,8.7-1.14,13.01-.54,3.42.6,6.94.79,10.41.97,5.52.28,10.83,2.2,15.61,4.91,2.83.35,5.82.05,8.67.15,23.7,0,47.42,0,71.12,0"/><path class="b" d="M8.84,161.15c11.26-.08,22.57.16,33.82-.09,2.86-.83,5.84-1.55,8.67-2.47,3.45-1.17,6.89-2.61,10.41-3.56,6.83-2.06,14.06-1.19,20.82.71,4.81,1.22,9.48,3.12,13.88,5.4,9.24.05,18.51,0,27.75.02,19.65,0,39.32,0,58.98,0"/><path class="b" d="M8.84,156.44c9.24,0,18.51,0,27.75,0,2.96-.72,5.75-2.31,8.67-3.21,1.94-.7,4.08-1.09,6.07-1.62,2.86-.76,5.77-1.63,8.67-2.2,7.55-1.67,15.41-.24,22.55,2.45,2.34.92,4.7,2.1,6.94,3.26.77.4,1.81.96,2.6,1.32.43,0,1.3,0,1.73,0,9.24,0,18.51,0,27.75,0,20.52,0,41.06,0,61.58,0"/><path class="b" d="M8.84,151.73c8.66,0,17.35,0,26.02,0,1.22.06,2.39-.92,3.47-1.39,2.24-1.17,4.58-2.42,6.94-3.35,3.61-1.3,7.53-1.81,11.27-2.61,10.8-2.2,21.68,1.17,31.22,6.17.76.38,1.79.92,2.6,1.17,1.69,0,3.51,0,5.2,0,3.45,0,6.96,0,10.41,0,4.9,0,9.85,0,14.74,0,2.53-.71,5.14-1.61,7.81-1.58,1.41-.01,2.98.19,4.34.56,1.11.24,2.32.95,3.47,1.02,3.74,0,7.54,0,11.27,0,11.85,0,23.71,0,35.56,0"/><path class="b" d="M8.84,147.02c8.95,0,17.93,0,26.89,0,3.76-1.58,7.36-3.74,11.27-4.94,6-1.35,12.02-3.21,18.21-3.27,5.97-.06,11.84,1.69,17.35,3.88,3.94,1.64,7.91,3.5,12.14,4.27,1.68.12,3.52.03,5.2.06,2.61.09,5.28-.05,7.81-.77,2.92-.66,5.91-1.41,8.67-2.59,8.88-3.81,14.24-2.59,21.68,3.36h45.1"/><path class="b" d="M8.84,142.19c3.45-.5,6.96.09,10.41.12,6.06,0,12.15,0,18.21,0,1.39-.05,2.97.15,4.34-.16,2.57-.76,5.21-1.61,7.81-2.29,7.69-2.46,15.09-6.86,23.42-6.41,4.78.11,9.28,2.02,13.88,3.12,4.51,1.14,9.28,1.4,13.88.62,4.35-.75,8.67-1.95,13.01-2.75,3.38-.78,6.94-1.49,10.41-.89,5.86.91,10.32,5.19,14.74,8.77h44.23"/><path class="b" d="M8.84,134.98c3.45-.26,7.04-.14,10.41.68,2.05.44,4.02,1.57,6.07,1.94,3.74,0,7.54,0,11.27,0,4.9,0,9.85,0,14.74,0,1.24.17,2.45-.59,3.47-1.19,1.1-.63,2.38-1.4,3.47-2.06,5.55-3.35,11.54-6.87,18.21-6.91,2.3-.04,4.65.55,6.94.72,7.3.7,14.55-.93,21.68-2.26,15.77-2.86,22.81.96,34.69,10.79.58.67,1.73,1.02,2.6.9,1.08,0,2.39,0,3.47,0,3.15,0,6.39,0,9.54,0,9.24,0,18.51,0,27.75,0"/><path class="b" d="M8.84,129.65c3.46.12,7.05.37,10.41,1.29,1.12.36,2.41.9,3.47,1.41.71.47,1.78.61,2.6.55,10.11-.01,20.24.02,30.36-.01,6.48-4.35,12.9-9.65,20.81-10.96,2.56-.41,5.25-.1,7.81-.59,4.37-.7,8.66-2.05,13.01-2.86,4.26-.83,8.68-1.11,13.01-.74,10.91.95,20.92,7.6,30.36,12.72.77.44,1.84,1.04,2.6,1.49.72.43,1.71,1.14,2.6.96,3.74,0,7.54,0,11.27,0,8.66,0,17.36,0,26.02,0"/><path class="b" d="M8.84,126.56c2.88.44,5.79,1.2,8.67,1.62,6.64,0,13.31,0,19.95,0,4.03,0,8.11,0,12.14,0,1.69,0,3.51,0,5.2,0,1.2-.43,2.39-1.38,3.47-2.03,4.91-3.15,10.02-6.23,15.61-8.02,2.79-.99,5.83-1.23,8.67-1.96,5.17-1.52,10.16-4.03,15.61-4.42,3.48-.3,7.03.25,10.41,1.09,2.64.6,5.34,1.36,7.81,2.5,6.43,3.04,12.97,5.99,19.95,7.54,2.61.68,5.34,1.37,7.81,2.5,1.78.74,3.44,2.06,5.2,2.8,11.27,0,22.56,0,33.82,0"/><path class="b" d="M8.84,123.47c9.82,0,19.67,0,29.49,0,4.32,0,8.69,0,13.01,0,1.77-.66,3.49-1.8,5.2-2.58,7.64-3.94,16.02-5.99,24.28-8.15,4.91-1.67,9.48-4.64,14.74-5.11,5.82-.67,11.18,2.19,16.48,4.12,5.19,2.18,9.99,5.54,15.61,6.6,5.7,1.32,11.79-.5,17.35,1.59,1.76.64,3.58,1.55,5.2,2.48.74.4,1.69,1.22,2.6,1.06,10.11,0,20.24,0,30.36,0"/><path class="b" d="M8.84,118.76c8.66,0,17.35,0,26.02,0,2.86,0,5.81,0,8.67,0,1.39,0,2.94,0,4.34,0,.84-.26,1.83-.89,2.6-1.29,4.83-2.55,10.22-3.92,15.61-4.65,4.04-.58,8.19-.95,12.14-2.02,2.39-.61,4.73-1.71,6.94-2.79,8.53-4.38,14-4.31,22.55-.05,3.18,1.43,6.5,2.73,9.54,4.47,6.45,3.59,11.78,4.64,19.08,3.38,3.15-.52,6.45-.57,9.54.32,2.63.66,5.28,1.64,7.81,2.61,3.15.03,6.39,0,9.54.01,4.32,0,8.69,0,13.01,0,1.38,0,2.95,0,4.34,0,.77,0,1.87.07,2.6-.25"/><path class="b" d="M8.84,114.05c8.66,0,17.35,0,26.02,0,2.28,0,4.66,0,6.94,0,1.39-.11,3.06.31,4.34-.37,1.87-1.18,3.94-2.28,6.07-2.89,3.35-.99,6.94-1.08,10.41-.96,6.1.26,12.55.69,18.21-2.03,2.64-1.24,5.18-2.88,7.81-4.15,7.76-3.98,13.41-2.08,20.82,1.38,3.91,1.39,7.53,3.57,11.27,5.32,6.32,3.03,11.59,2.39,18.21,1.17,3.74-.6,7.58.1,11.27.66,7.12,1.21,14.48,2.79,21.68,1.32,3.84-.87,7.45-2.7,11.27-3.6"/><path class="b" d="M8.84,109.35c8.09,0,16.2,0,24.28,0,2.28,0,4.66,0,6.94,0,1.39-.06,2.98.18,4.34-.2,1.93-.97,3.97-2.04,6.07-2.57,3.13-.72,6.42-.22,9.54.32,7.29,1.5,14.18,1.93,20.81-2.03,2.93-1.7,5.69-3.84,8.67-5.45,7.28-4.13,12.82-2.31,19.95.87,11.71,4.25,14.7,9.99,28.62,6.52,3.96-.97,8.11-.83,12.14-.54,6.62.48,13.38,1.39,19.95.01,4.39-.94,8.51-3.09,13.01-3.58"/><path class="b" d="M8.84,104.64c11.85,0,23.71,0,35.56,0,1.45.14,2.96-.28,4.34-.69,1.37-.35,2.94-.39,4.34-.25,1.71.17,3.52.59,5.2.94,3.74,0,7.54,0,11.27,0,.78,0,1.83,0,2.6,0,1.13-.33,2.41-.9,3.47-1.42,4.7-2.24,8.64-5.78,13.01-8.54,6.74-4.32,12.21-3.25,19.08,0,2.85,1.25,5.97,2.07,8.67,3.65,6.18,3.46,11.9,5.83,19.08,3.98,2.58-.57,5.18-1.45,7.81-1.8,2.56-.33,5.24-.29,7.81-.11,6.04.44,12.19,1.53,18.21.4,2.37-.39,4.69-1.38,6.94-2.18,2.21-.74,4.61-1.24,6.94-1.37"/><path class="b" d="M8.84,99.93h63.31c4.18-2.74,8.11-5.97,12.14-8.92,5.29-4.09,10.84-6.43,17.35-3.55,2.65,1.08,5.18,2.64,7.81,3.78,2,.77,4.18,1.38,6.07,2.42,5.31,2.83,11.13,5.89,17.35,4.69,3.85-.59,7.45-2.37,11.27-3.06,7.57-1.18,14.98,2.11,22.55,1.76,3.33-.02,6.49-1.28,9.54-2.5,2.2-.73,4.62-1.12,6.94-1.16"/><path class="b" d="M8.84,95.22h61.58c3.8-3.24,7.14-7.13,11.27-9.98,3.71-2.79,8.16-5.63,13.01-4.81,5.31.89,9.34,4.87,13.88,7.44,2.17,1.22,4.76,1.72,6.94,2.93,3.59,1.76,7.23,3.94,11.28,4.42,2.28-.09,4.71.26,6.94-.33,4.67-1.1,8.97-3.92,13.88-3.87,7.57-.07,14.96,3.56,22.55,2.04,2.09-.35,4.08-1.42,6.07-2.09,2.2-.7,4.63-.99,6.94-.94"/><path class="b" d="M8.84,90.51c19.37,0,38.74,0,58.11,0,1.46.26,2.52-1.24,3.47-2.1,1.42-1.41,2.95-3.05,4.34-4.5,3.97-4.14,8.82-8.47,14.74-9.12,7.25-.3,12.14,6.16,17.35,10.23,1.74,1.5,3.9,2.56,6.07,3.25,1.73.63,3.42,1.8,5.2,2.24,4.61,0,9.27,0,13.88,0,2.57-.05,5.24.11,7.81-.08,3.25-1.47,6.84-2.26,10.41-2.15,6.06.09,12.16,1.55,18.21.59,2.7-.32,5.25-1.54,7.81-2.39,2.21-.64,4.65-.8,6.94-.64"/><path class="b" d="M8.84,85.8c18.5,0,37.01,0,55.51,0,.82,0,1.89.1,2.6-.4,1.14-.95,2.42-2.15,3.47-3.19,4.96-4.91,9.89-11.34,17.35-12.07,6.6-.28,11.31,5.39,15.61,9.63,2.12,1.95,5.64,6.36,8.67,6.02,3.16,0,6.39,0,9.54,0,4.61,0,9.27,0,13.88,0,2.87-.07,5.87.29,8.67-.48,7.18-1.13,14.48.77,21.68-.14,3.26-.32,6.48-1.27,9.54-2.39,2.49-.78,5.2-1.14,7.81-1.13"/><path class="b" d="M8.84,81.09c17.92,0,35.85,0,53.77,0,.45,0,1.29,0,1.73,0,.47-.21,1.33-.75,1.73-1.07,1.46-1.06,3-2.37,4.34-3.59,4.6-4.19,9.12-9.44,15.61-10.39,6.47-.86,11.48,4.39,15.61,8.62,1.93,2.01,3.93,4.2,6.07,6,.96.68,2.36.36,3.47.43,1.69,0,3.52,0,5.2,0,6.93,0,13.89,0,20.81,0,3.17.17,6.38-.43,9.54-.22,3.44.35,6.96.18,10.41.22,4.03-.05,8.12.11,12.14-.07,4.63-1.02,9.17-2.65,13.88-3.28"/><path class="b" d="M8.84,76.38c9.24,0,18.51,0,27.75,0,5.48,0,11,0,16.48,0,1.69,0,3.51,0,5.2,0,1.52.04,2.95.09,4.34-.68,6.25-2.68,10.74-8.11,16.48-11.58,13.55-7.68,20.12,4.93,29.49,12.19,8.66.2,17.36,0,26.02.07,2.3.08,4.63-.66,6.94-.55,2.3.03,4.63.72,6.94.55,6.35,0,12.73,0,19.08,0,2.57-.04,5.24.08,7.81-.06,2.61-.64,5.24-1.57,7.81-2.34"/><path class="b" d="M8.84,71.67c9.82,0,19.67,0,29.49,0,4.04.03,8.14.09,12.14-.57,2.87-.24,5.85-.24,8.67-.85,4.84-.97,9.1-3.74,13.01-6.62,4.3-3.31,9.17-6.43,14.74-6.7,7.07-.3,12.42,5.21,17.35,9.54,2.33,2.02,4.79,4.3,7.81,5.21,1.69,0,3.52,0,5.2,0,4.98-.06,9.82.32,14.74-.64,2.55-.33,5.23-.51,7.81-.27,1.72.09,3.5.73,5.2.91,7.8,0,15.62,0,23.42,0,3.15,0,6.39,0,9.54,0,1.82.18,3.55-.89,5.2-1.5"/><path class="b" d="M8.84,66.96c5.77,0,11.58,0,17.35,0,1.99,0,4.08,0,6.07,0,1.69-.24,3.49-.69,5.2-.8,3.44-.32,6.98.01,10.41-.41,3.71-.67,7.6-.54,11.27-1.44,6.63-1.48,11.8-6.18,17.35-9.79,3.09-1.94,6.76-3.14,10.41-3.37,8.65-.28,14.43,7.28,20.81,11.95,8.04,5.94,18.58,2.21,27.75,3.19,1.7.09,3.51.52,5.2.67,1.98,0,4.09,0,6.07,0,5.19,0,10.42,0,15.61,0,4.03,0,8.11,0,12.14,0,1.98,0,4.09,0,6.07,0,.79-.21,1.85-.66,2.6-.97"/><path class="b" d="M8.84,62.26c7.22,0,14.47,0,21.68,0,2.27-.33,4.63-.78,6.94-.76,3.16-.06,6.38.37,9.54.19,4.03-.57,8.22-.65,12.14-1.8,6.7-1.92,11.72-7.05,17.35-10.87,3.05-2.01,6.76-3.18,10.41-3.37,7.91-.16,13.48,6.43,19.08,11.09,1.3,1.09,2.82,2.26,4.34,3.04,1.88.9,4.03,1.46,6.07,1.87,3.4.76,6.95.6,10.41.6,5.48,0,11,0,16.48,0,8.08,0,16.2,0,24.28,0,3.45,0,6.96,0,10.41,0,1.76.11,3.53-.73,5.2-1.13"/><path class="b" d="M8.84,57.55c6.35,0,12.73,0,19.08,0,2.57-.25,5.2-.83,7.81-.67,2.29.05,4.67.38,6.94.66,1.39.02,2.94,0,4.34.01,4.33,0,8.81.09,13.01-1.14,10.7-3.29,14.85-12.82,26.89-14.08,7.37-.81,13.08,4.89,18.21,9.34,1.84,1.57,3.84,3.26,6.07,4.25,1.65.61,3.43,1.47,5.2,1.62,1.98,0,4.09,0,6.07,0,6.06,0,12.16,0,18.21,0,10.4,0,20.82,0,31.22,0,1.42.07,2.96-.45,4.34-.73,2.26-.52,4.63-1.04,6.94-1.27"/><path class="b" d="M8.84,52.84c3.74,0,7.54,0,11.27,0,2.27-.1,4.7.23,6.94-.18,2.82-.59,5.8-.82,8.67-.57,2.3.12,4.63.88,6.94.75,4.32,0,8.69,0,13.01,0,2.56-.11,5.28.24,7.81-.18,5.49-2.08,9.71-6.45,14.74-9.32,6.43-2.95,12.51-5.24,19.08-1.25,4.78,2.44,10.99,10.1,15.61,10.75,4.32,0,8.69,0,13.01,0,6.64,0,13.31,0,19.95,0,7.51,0,15.04,0,22.55,0,.84.14,1.87-.39,2.6-.74.75-.35,1.83-.8,2.6-1.1,3.01-1.14,6.31-1.84,9.54-1.7"/><path class="b" d="M8.84,48.13c5.19,0,10.42,0,15.61,0,2-.26,4.05-.91,6.07-1.05,3.47-.38,7.02.07,10.41.83,1.07.31,2.37.21,3.47.23,1.99,0,4.09,0,6.07,0,5.77,0,11.58,0,17.35,0,1.6-.07,2.99-1.5,4.34-2.26,2.51-1.67,5-3.63,7.81-4.79,6.34-2.77,11.62-5.29,18.21-1.37,3.78,2.17,6.92,5.39,10.41,7.97.96.7,2.36.38,3.47.44,1.39,0,2.95,0,4.34,0,4.32,0,8.69,0,13.01,0,10.11,0,20.24,0,30.36,0,2.28,0,4.66,0,6.94,0,5.36-2.46,10.19-6.5,16.48-5.52"/><path class="b" d="M8.84,43.42c5.19,0,10.42,0,15.61,0,3.08-.93,6.3-1.74,9.54-1.76,3.83-.13,7.56,1.07,11.27,1.76,8.95,0,17.93,0,26.89,0,2.01-1.2,4.01-2.68,6.07-3.81,2.83-1.34,5.74-2.75,8.67-3.86,8.14-3.12,14.19,2.67,19.95,7.57,6.91.25,13.89.01,20.81.09,5.77-.1,11.6.22,17.35-.18,6.31.27,12.76.25,19.08.12,3.07-1.09,5.94-2.86,8.67-4.61,2.99-2.14,6.7-3.5,10.41-2.89"/><path class="b" d="M8.84,38.71c4.9,0,9.84,0,14.74,0,2.01-.54,4.03-1.47,6.07-1.94,3.96-1.06,8.19-.93,12.14.09,2.3.53,4.62,1.4,6.94,1.85,4.61,0,9.27,0,13.88,0,2.28,0,4.66,0,6.94,0,1.39-.12,3.13.37,4.34-.45,2.19-1.46,4.48-3.02,6.94-4,5.93-2.93,11.16-5.12,17.35-1.3,1.82,1.07,3.6,2.5,5.2,3.87.97.79,2.06,2.15,3.47,1.89,7.51,0,15.04,0,22.55,0,4.03,0,8.11,0,12.14,0,1.39-.15,2.91-.63,4.34-.56,1.7.01,3.53.28,5.2.53,2.86.06,5.81,0,8.67.03,4.12.15,7.92-2.5,11.28-4.63,3.71-2.7,7.27-5.25,12.14-4.51"/><path class="b" d="M8.84,34c5.77,0,11.58,0,17.35,0,4.12-1.81,8.39-3.81,13.01-3.62,3.57.07,7.1,1.14,10.41,2.39.79.33,1.84.83,2.6,1.22,1.39.03,2.95,0,4.34.01,3.74,0,7.54,0,11.27,0,1.69,0,3.52,0,5.2,0,.45-.23,1.32-.75,1.73-1.04,3.72-2.54,7.91-4.47,12.14-5.97,7.69-2.64,13.47,2.56,19.08,7.01,17.34,0,34.7,0,52.04,0,1.39-.07,3.03.24,4.34-.36,3.39-1.29,6.53-3.29,9.54-5.27,3.36-2.47,7.04-4.1,11.27-3.15"/><path class="b" d="M8.84,29.29c6.64,0,13.31,0,19.95,0,1.24-.16,2.37-1.22,3.47-1.75,1.62-.91,3.43-1.76,5.2-2.31,3.07-.98,6.49-.96,9.54.1,2.81.82,5.14,2.87,7.81,3.97,6.06,0,12.16,0,18.21,0,.91.18,1.88-.51,2.6-.97.77-.48,1.81-1.11,2.6-1.55,8.02-4,14-7.33,22.55-2.21,2.35,1.33,4.63,2.99,6.94,4.39,1,.56,2.37.29,3.47.35,7.51,0,15.04,0,22.55,0,8.95,0,17.93,0,26.89,0,4.24-1.57,8.09-4.18,12.14-6.16,3.14-1.86,7.01-2.01,10.41-.79"/><path class="b" d="M8.84,24.58c6.64,0,13.31,0,19.95,0,.78,0,1.85.06,2.6-.21,1.35-.97,2.89-2.01,4.34-2.82,8.14-4.59,12.25-1.91,19.08,3.03,4.61,0,9.27,0,13.88,0,2.56-.1,5.27.23,7.81-.17,2.19-1.36,4.65-2.45,6.94-3.61,3.98-2.04,8.47-3.71,13.01-3.02,3.99.54,7.63,2.52,11.27,4.1,1.9.89,4.09,1.3,6.07,1.94.44.15,1.3.47,1.73.63.77.16,1.83.12,2.6.12,1.69,0,3.52,0,5.2,0,4.9,0,9.85,0,14.74,0,6.06,0,12.16,0,18.21,0,.76,0,1.84,0,2.6,0,1.75-.71,3.5-1.79,5.2-2.61,3.57-1.74,7.3-3.61,11.27-4.14,2.7-.19,5.39.79,7.81,1.91"/><path class="b" d="M8.84,19.87c5.19,0,10.42,0,15.61,0,2.56-.11,5.28.26,7.81-.19,1.36-.91,2.89-1.88,4.34-2.64,3.13-1.68,6.98-2.71,10.41-1.33,2.2.9,4.17,2.51,6.07,3.91,1.62.5,3.52.15,5.2.25,2.86,0,5.81,0,8.67,0,4.02-.1,8.14.2,12.14-.13,3.17-1.58,6.28-3.48,9.54-4.89,6.57-3,12.43-1.98,19.08,0,3.16.81,6.53,1.09,9.54,2.47,1.72.7,3.54,1.56,5.2,2.38,1.36.32,2.95.12,4.34.17,2.28,0,4.66,0,6.94,0,6.64,0,13.31,0,19.95,0,1.12-.03,2.55.21,3.47-.59,1.66-.99,3.48-2.03,5.2-2.89,3.99-1.97,8.5-3.54,13.01-3.11,2.78.44,5.37,1.88,7.81,3.22"/></svg>