<?xml version="1.0" encoding="UTF-8"?><svg id="a" xmlns="http://www.w3.org/2000/svg" width="1920" height="2400" viewBox="0 0 192 240"><defs><style>.b{fill:none;stroke:#fff;stroke-miterlimit:10;stroke-width:.4px;}.c{stroke-width:0px;}</style></defs><rect class="c" width="192" height="240"/><path class="b" d="M8.51,230.34c14.5,0,29.02,0,43.53,0,4.92,0,9.88,0,14.8,0,1.7,0,3.53,0,5.22,0,1.44.04,3,.05,4.35-.49,2.87-.76,5.83.3,8.71.49,4.04,0,8.14,0,12.19,0,18.57,0,37.15,0,55.71,0,1.99,0,4.1,0,6.09,0,1.99-1.13,4.09-2.37,6.09-3.49,5.53-3.24,11.77-5.68,18.28-5.4"/><path class="b" d="M8.51,225.62c14.79,0,29.6,0,44.4,0,6.66,0,13.36,0,20.02,0,2.28-.79,4.43-2.19,6.96-2.1,4.7.06,9.34,1.18,13.93,2.1,10.44,0,20.9,0,31.34,0,13.34,0,26.7,0,40.05,0,2.31-.9,4.63-2.07,6.96-2.9,3.74-1.24,7.55-2.51,11.32-3.65"/><path class="b" d="M8.51,218.85c1.11.63,2.25,1.67,3.48,2.04,1.99,0,4.1,0,6.09,0,4.92,0,9.88,0,14.8,0,13.63-.04,27.29.08,40.92-.05,5.2-4.39,12.09-4.54,18.28-2.35,1.75.6,3.57,1.4,5.22,2.22,1.07.3,2.39.15,3.48.18,12.76,0,25.54,0,38.3,0,8.12,0,16.26,0,24.38,0,11.35-.09,9.7,1.09,20.02-4.73"/><path class="b" d="M8.51,211.83c1.76,1.33,3.5,2.96,5.22,4.33,13.34,0,26.7,0,40.04,0,4.63,0,9.3,0,13.93,0,2.57-.1,5.29.22,7.83-.16,4.77-4.51,12.09-6.95,18.28-3.97,1.48.65,3.03,1.57,4.35,2.48,1.03.67,2.14,1.88,3.48,1.66,9.28,0,18.58,0,27.86,0,10.44,0,20.9,0,31.34,0,4.92,0,9.88,0,14.8,0,2.76-1.27,5.33-3.11,7.83-4.81"/><path class="b" d="M8.51,205.39c2.09,1.88,3.88,4.33,6.09,6.05h62.68c10.27-8.6,15.98-9.98,26.12-.21,1.94.46,4.11.11,6.09.21,3.46,0,6.99,0,10.45,0,11.6,0,23.22,0,34.82,0,4.92,0,9.88,0,14.8,0,1.48-.14,2.96-1.03,4.35-1.5,3.45-1.3,6.49-3.6,9.58-5.57"/><path class="b" d="M8.51,200.27c1.74,1.99,3.51,4.23,5.22,6.24,2.24.45,4.69.09,6.96.2,3.75,0,7.57,0,11.32,0,11.02,0,22.06,0,33.08,0,3.17,0,6.41,0,9.58,0,1.09,0,2.39,0,3.48,0,.95.13,2.01-.22,2.61-.99,11.48-11.1,15.92-9.25,26.99.93,16.24.17,32.51,0,48.75.06,1.09-.02,2.4.05,3.48-.08,2.63-.76,5.3-1.73,7.83-2.76,2.59-1.08,5.28-2.19,7.83-3.37,2.65-1.33,5.22-3.02,7.83-4.41"/><path class="b" d="M8.51,197.19c5.01,6.29,2.49,4.57,10.45,4.8,5.5,0,11.04,0,16.54,0,15.08,0,30.18,0,45.27,0,3.55-2.61,6.35-6.45,10.45-8.35,6.93-3.58,12.85,2.35,18.28,5.93,1.61.93,3.43,1.91,5.22,2.42,3.17,0,6.41,0,9.58,0,4.92,0,9.88,0,14.8,0,5.37-1.53,11.07-1.37,16.54-2.37,10.01-1.61,19.14-6.32,27.86-11.29"/><path class="b" d="M8.51,195.3c.39.53,1.26,1.51,1.74,1.95h71.38c6.25-5.29,11.93-12.19,20.89-7.93,3.74,1.75,7.24,4.2,11.32,5.17,4.74,1.57,9.85,2.4,14.8,1.42,5.55-.96,10.8-3.75,16.54-3.54,5.21,0,10.52.31,15.67-.71,5.18-.98,10.14-3.07,14.8-5.51,2.64-1.49,5.2-3.32,7.83-4.84"/><path class="b" d="M8.51,192.53h73.13c6.16-4.6,11.69-10.1,20.02-7.18,3.22,1,6.24,2.87,9.58,3.49,5.18.85,10.54.9,15.67-.27,5.49-1.08,10.86-3.58,16.54-3.23,4.93.38,9.83,1.66,14.8,1.52,6.18-.07,12.12-2.42,17.41-5.47,2.69-1.66,5.24-3.72,7.83-5.5"/><path class="b" d="M8.51,187.8c17.12,0,34.25,0,51.36,0,4.63,0,9.3,0,13.93,0,1.4,0,2.96,0,4.35,0,1.15.02,2.55.11,3.48-.69,3.52-2.18,7.15-4.62,11.32-5.26,5.2-.9,10.01,1.77,14.8,3.32,3.08,1.01,6.44.46,9.58.03,7.63-1.09,14.87-4.53,22.63-4.73,5.38,0,10.4,2.5,15.67,3.25,10.74,1.92,20.09-4.36,27.86-11.03"/><path class="b" d="M8.51,183.08c21.18,0,42.37,0,63.55,0,1.99-.1,4.15.23,6.09-.19,4.3-2.27,8.95-4.65,13.93-4.6,4.98.04,9.39,2.71,13.93,4.4,1.61.65,3.53.31,5.22.39,3.9.15,7.61-1.6,11.32-2.59,6.15-1.91,12.7-3.64,19.15-2.37,5.06,1.04,9.69,3.72,14.8,4.62,10.4,2.04,19.62-4.91,26.99-11.4"/><path class="b" d="M8.51,178.35c9.28,0,18.58,0,27.86,0,1.14.05,2.38-.54,3.48-.77,1.96-.48,4.08-.81,6.09-.81,1.1,0,2.41.11,3.48.38,1.13.27,2.33,1.03,3.48,1.2,7.53,0,15.1,0,22.63,0,6.22-4,13.86-6.11,20.89-2.95,2.05.84,4.12,1.95,6.09,2.94,1.7.02,3.53,0,5.22,0,3.75-.09,7.59.18,11.32-.12,5.05-1.59,10.34-2.9,15.67-2.62,2.63.12,5.32.62,7.83,1.39,1.43.34,2.88,1.27,4.35,1.35,4.92,0,9.88,0,14.8,0,3.46,0,6.99,0,10.45,0,1.58-.31,3.02-1.56,4.35-2.42,2.35-1.71,4.66-3.7,6.96-5.48"/><path class="b" d="M8.51,173.62c7.24,0,14.52,0,21.76,0,3.48-.91,6.9-2.3,10.45-2.98,3.11-.59,6.52-.94,9.58.07,2.12.68,3.99,2.23,6.09,2.91,4.92,0,9.88,0,14.8,0,.78,0,1.83,0,2.61,0,1.51-.38,2.92-1.5,4.35-2.1,3.27-1.39,6.87-2.39,10.45-2.35,4.72.02,8.95,2.42,13.06,4.45,5.79,0,11.62,0,17.41,0,2.61.17,5.25-.42,7.83-.63,2.88-.21,5.86-.05,8.71.47,2.84.39,5.84.06,8.71.16,5.21,0,10.46,0,15.67,0,3.17,0,6.41,0,9.58,0,1.98-.11,4.16.25,6.09-.22,2.61-1.69,5.18-3.63,7.83-5.24"/><path class="b" d="M8.51,167.71c2.28-.3,4.71-.34,6.96.15,1.11.25,2.36.71,3.48.89,1.09.2,2.38.13,3.48.14,9.44-.19,18.27-7.73,27.86-5.56,4.23,1.4,7.85,4.37,12.19,5.5,1.39.11,2.96.04,4.35.06,1.09-.02,2.4.07,3.48-.1,2.36-.62,4.68-1.7,6.96-2.56,3.57-1.28,7.56-1.8,11.32-1.14,2.09.38,4.2,1.19,6.09,2.15,1.11.49,2.26,1.46,3.48,1.65,8.99,0,18,0,26.99,0,8.12,0,16.26,0,24.38,0,8.12,0,16.26,0,24.38,0,1.58.22,3.01-.91,4.35-1.57,1.64-.86,3.48-1.71,5.22-2.33"/><path class="b" d="M8.51,161.43c3.59-.15,7.03.85,10.45,1.76,8.71,1.56,16.34-4.1,24.38-6.38,2.51-.69,5.3-1.14,7.83-.34,5,1.63,9.46,4.98,14.8,5.56,4.11.57,8.18-.7,12.19-1.42,6.11-.95,10.43.71,15.67,3.56,2.58,0,5.25,0,7.84,0,13.63,0,27.28,0,40.92,0,9.57,0,19.16,0,28.73,0,1.39,0,2.96.01,4.35-.01,2.47-1.08,5.16-1.95,7.83-2.36"/><path class="b" d="M8.51,155.34c3.56.54,6.98,1.91,10.45,2.82,8.47,1.87,16.04-3.44,23.5-6.55,7.24-3.17,10.76-.91,17.41,1.93,3.57,1.52,7.43,2.55,11.32,2.63,3.17.12,6.42-.29,9.58.13,2.06.26,4.19.85,6.09,1.67,1.12.41,2.28,1.32,3.48,1.48,1.99,0,4.1,0,6.09,0,18.57,0,37.15,0,55.71,0,6.37,0,12.78,0,19.15,0,4.05-.05,8.17.22,12.19-.42"/><path class="b" d="M8.51,149.29c3.51,1.14,6.89,2.85,10.45,3.83,8.76,2.45,16.72-2.99,24.38-6.42,6.39-2.99,10.53-1.06,16.54,1.5,3.62,1.54,7.42,2.86,11.32,3.51,4.67.76,9.54,1.05,13.93,2.98,10.44.11,20.9,0,31.34.04,22.34,0,44.69,0,67.03,0"/><path class="b" d="M8.51,142.95c3.5,1.32,6.87,3.17,10.45,4.28,8.49,2.79,15.87-.86,23.5-4.21,5.71-2.48,9.17-2.37,14.8.19,3.16,1.38,6.33,2.95,9.58,4.12,3.09,1.14,6.37,1.95,9.58,2.66,6.08,0,12.2,0,18.28,0,9.28,0,18.58,0,27.86,0,20.31,0,40.63,0,60.94,0"/><path class="b" d="M8.51,136.14c3.55.94,6.96,2.49,10.45,3.63,8.86,3,16.52.94,25.25-1.02,4.7-1.07,7.89-.63,12.19,1.49,3.49,1.58,6.83,3.73,10.45,5.03,7.24,0,14.52,0,21.76,0,10.15,0,20.32,0,30.47,0,21.47,0,42.95,0,64.42,0"/><path class="b" d="M8.51,129.89c5.03.37,9.84,2.14,14.8,2.92,8.35,1.32,16.82,2,25.25,2.63,3.41.31,6.58,1.95,9.58,3.49.78.41,1.83.97,2.61,1.39,1.35.41,2.96.15,4.35.22,39.46,0,78.93,0,118.39,0"/><path class="b" d="M8.51,125.09c1.99-.16,4.1-.32,6.09-.26,1.71.05,3.52.36,5.22.44,3.47.19,7.02.28,10.45.91,5.75.94,11.02,3.6,16.54,5.32,3.99.79,7.67,2.59,11.32,4.3,5.5,0,11.04,0,16.54,0,36.27,0,72.55,0,108.82,0"/><path class="b" d="M8.51,121.96c1.99-.44,4.08-1,6.09-1.32,1.39-.23,2.96-.18,4.35-.34,2.88-.35,5.8-1.03,8.71-1.1,6.81-.36,12.57,3.72,18.28,6.84,3.72,1.71,7.65,3.12,11.32,4.97,6.66.18,13.36.01,20.02.07,35.4,0,70.81,0,106.21,0"/><path class="b" d="M8.51,120.04c3.14-.99,6.28-2.28,9.58-2.66,2.67-.63,5.23-1.91,7.83-2.76,10.09-3.57,15.29,3.28,23.5,7.17,3.43,1.58,6.91,3.23,10.45,4.56,7.24,0,14.52,0,21.76,0,33.95,0,67.9,0,101.85,0"/><path class="b" d="M8.51,118.26c2.02-.62,4.08-1.49,6.09-2.12,2.01-.56,4.24-.8,6.09-1.84,5.07-2.65,10.54-6.47,16.54-4.72,3.13.82,5.95,2.64,8.71,4.28,2.47,1.47,5.2,2.69,7.83,3.84,3.4,1.45,6.95,2.73,10.45,3.94,6.66,0,13.36,0,20.02,0,20.31,0,40.63,0,60.94,0,7.82,0,15.68,0,23.5,0,2.29,0,4.68,0,6.96,0,2.55-.66,5.23-1.23,7.83-1.6"/><path class="b" d="M8.51,116.04c2.03-.35,4.11-.98,6.09-1.5,2.05-.47,4.26-.81,6.09-1.9,5.22-2.87,10.23-7.32,16.54-7.09,3.34.08,6.53,1.42,9.58,2.66,3.16,1.22,6.42,2.41,9.58,3.65,4.07,1.58,8.21,3.15,12.19,4.94,5.77.31,11.63.02,17.41.12,25.82,0,51.66,0,77.48,0,.76,0,1.85,0,2.61,0,.87-.32,1.85-1.13,2.61-1.64,4.18-3.29,9.63-3.98,14.8-3.94"/><path class="b" d="M8.51,112.18c11.63.45,14.07-4.07,23.5-8.25,4.09-1.78,8.68-2.08,13.06-1.43,2.6.35,5.3.62,7.83,1.33,4.54,1.23,8.88,3.23,13.06,5.35,1.1.56,2.39,1.24,3.48,1.81,1.04.55,2.25,1.37,3.48,1.2,5.21,0,10.46,0,15.67,0,8.7,0,17.42,0,26.12,0,1.48-.03,2.93-1,4.35-1.34,1.93-.61,4.06-1,6.09-1,3.34-.1,6.49,1.28,9.58,2.34,8.99,0,18,0,26.99,0,8.76-6.09,10.01-9.36,21.76-7.8"/><path class="b" d="M8.51,106.61c8.31,1.92,15.79-3.27,23.5-5.43,5.07-1.61,10.43-2.05,15.67-2.76,9.31-1.86,17.38,4.44,25.25,8.39,1,.66,2.33.69,3.48.64,1.7,0,3.53,0,5.22,0,4.63,0,9.3,0,13.93,0,3.75,0,7.57,0,11.32,0,4.15-1.22,8.03-3.45,12.19-4.67,4.86-1.61,10.21-1,14.8,1.17,2.34,1.04,4.67,2.35,6.96,3.49,3.17.02,6.41,0,9.58,0,2.29,0,4.68,0,6.96,0,1.23-.04,2.42-1,3.48-1.54,2.01-1.18,4.08-2.53,6.09-3.71,5.86-3.72,9.97-3.35,16.54-2.07"/><path class="b" d="M8.51,99.09c2.51.71,5.27,1.01,7.83.43,3.1-.87,6.36-1.39,9.58-1.61,7.89-.53,16.14-.01,23.5-3.4,3.65-1.32,7.72-.95,11.32.34,6.4,2.04,12.18,7.23,19.15,6.93,8.99-.73,18.22.19,26.99-2.35,5.39-1.37,10.22-4.5,15.67-5.67,8.6-2,15.07,3.07,22.63,5.93,4.16,1.47,8.74,1.66,13.06.81,11.33-2.43,12.87-5.18,25.25-2.18"/><path class="b" d="M8.51,91.08c2.25.51,4.68.79,6.96.4,2.25-.59,4.62-1.12,6.96-.8,6.17.67,11.99,3.77,18.28,3.51,7.53-.25,9.67-5.52,18.28-4.7,6.3.45,11.93,4.32,18.28,4.32,2.06-.06,4.08-.94,6.09-1.28,8.02-1.67,16.36-.31,24.38-1.98,7.36-1.64,13.9-7.02,21.76-6.15,4.65.39,8.91,2.6,13.06,4.58,4.19,1.98,8.54,3.81,13.06,4.91,5.96,1.54,12.18,1.48,18.28,1.84,3.22.22,6.41,1.17,9.58,1.73"/><path class="b" d="M8.51,84.02c3.21.32,6.48.02,9.58-.85,6.63-.77,12.2,3.96,18.28,5.78,3.97,1.39,8.56,1.33,12.19-.95,7.19-4.31,13.79-4.12,21.76-2.89,2.86.35,5.9.55,8.71-.27,4.17-1.58,8.61-2.55,13.06-2.89,4.91-.43,9.92-.33,14.8-1.14,3.61-.54,7.04-2.03,10.45-3.27,8.03-3.09,14.37-1.91,21.76,2.15,6.07,3.07,12.03,6.49,18.28,9.18,4.99,2.13,10.31,3.54,15.67,4.34,3.45.12,6.99.02,10.45.05"/><path class="b" d="M8.51,76.07c3.18-.05,6.42-.2,9.58-.55,6.23.32,11.04,5.08,16.54,7.48,3.74,1.83,8.23,2.67,12.19,1.03,6.86-3.51,12.14-5.63,20.02-5.43,3.75,0,7.63.38,11.32-.49,3.43-1.08,6.89-2.33,10.45-2.95,5.17-1.03,10.47-1.5,15.67-2.36,5.62-.72,10.9-3.18,16.54-3.72,6.64-.69,12.76,2.58,18.28,5.86,3.36,1.95,6.99,3.57,10.45,5.34,5.98,2.95,11.99,6.02,18.28,8.25,5.21,0,10.46,0,15.67,0"/><path class="b" d="M8.51,67.86c2.89-.06,5.83.44,8.71.69,5.65,1.02,9.87,5.5,14.8,8.12,6.42,3.74,11.8,3.61,18.28.2,9.25-4.27,14.73-3.53,24.38-3.4,4.48-.07,8.68-2.03,13.06-2.75,6.38-1.3,12.83-2.41,19.15-3.97,7.21-1.87,13.6-3.78,20.89-.83,6.39,2.44,11.74,7.07,18.28,9.18,7.38,2.53,14.78,5.13,21.76,8.63,5.2.19,10.46.01,15.67.07"/><path class="b" d="M8.51,60.16c2.06.29,4.15,1.01,6.09,1.74,1.74.65,3.65,1.26,5.22,2.26,4.14,2.56,7.78,6.03,12.19,8.16,10.02,5.05,17.17-2.7,26.99-3.69,5.53-.79,11.04.61,16.54.95,3.81.18,7.55-1.08,11.32-1.43,6.15-.78,12.29-1.87,18.28-3.46,7.38-1.99,14.27-3.87,21.76-1.04,6.06,2.03,11.23,6.24,17.41,7.91,3.11.76,6.41.9,9.58,1.32,3.25.41,6.54,1.21,9.58,2.47,2.38.97,4.75,2.24,6.96,3.54,1.65.41,3.53.12,5.22.2,2.58,0,5.26,0,7.83,0"/><path class="b" d="M8.51,53.36c2.13.84,4.17,2.14,6.09,3.37,2.04,1.27,4.24,2.53,6.09,4.08,5.77,4.74,12.01,10.27,20.02,7.71,4.65-1.47,9.08-3.83,13.93-4.67,4.31-.88,8.81-.5,13.06.54,4.27.99,8.62,2.58,13.06,1.98,6.37-.36,12.84.1,19.15-1.03,6.41-.98,12.64-3.3,19.15-3.57,5.08-.25,10.1,1.12,14.8,2.95,3.94,1.41,7.91,3.46,12.19,3.38,5.81-.33,11.71-2.15,17.41-.06,2.78.92,5.43,2.45,7.83,4.1,1.35.78,2.66,2.42,4.35,2.22,2.58,0,5.26,0,7.83,0"/><path class="b" d="M8.51,47.47c2.45,1.53,4.7,3.56,6.96,5.35,2.06,1.51,4.19,3.17,6.09,4.88,6.6,5.89,12.19,9.4,20.89,5.16,4.88-2.41,10.17-4.34,15.67-4.47,6.06-.22,11.68,2.4,17.41,3.94,3.1.86,6.42.45,9.58,1,6.61,1.04,13.37,1.97,20.02.79,14.62-2.63,18.42-5.2,33.95-1.69,1.68.3,3.51.7,5.22.69,1.73-.06,3.57-.51,5.22-.99,12.89-4.54,18.06-.8,27.86,7.46,1.99.12,4.1.03,6.09.06"/><path class="b" d="M8.51,42.25c2.41,1.75,4.65,3.9,6.96,5.76,2.68,1.92,5.31,4.1,7.83,6.22,6.7,5.58,12.07,6.95,20.02,2.88,6.65-3.3,14.34-5.66,21.76-3.89,3.86.83,7.53,2.49,11.32,3.56,3.14.82,6.51.86,9.58,2,9.2,3.15,16.28,5.49,26.12,3.13,4.93-1.13,9.78-2.83,14.8-3.59,4.59-.76,9.3-.7,13.93-.55,4.28.48,8.26-1.43,12.19-2.84,11.69-4.5,18.59,3.36,26.99,9.99h3.48"/><path class="b" d="M8.51,37.66c2.35,1.7,4.59,3.74,6.96,5.4,3.28,1.95,6.39,4.32,9.58,6.42,7.25,4.78,12.7,3.79,20.02-.04,5.42-2.48,11.32-5,17.41-4.38,4.95.48,9.41,2.95,13.93,4.83,1.64.72,3.53,1.13,5.22,1.67,1.44.51,3,1.23,4.35,1.94,3.18,1.66,6.32,3.59,9.58,5.12,1.07.5,2.37,1.05,3.48,1.44,1.08.21,2.39.1,3.48.12,4.33,0,8.72,0,13.06,0,4.93-1.21,9.84-2.69,14.8-3.76,2.86-.63,5.82-1.18,8.71-1.65,2.31-.41,4.8-.62,6.96-1.61,3.77-1.65,7.29-4.08,11.32-5.1,10.08-2.56,17.79,6.82,25.25,12.03l.87.1"/><path class="b" d="M8.51,33.63c2.57,1.62,5.06,3.57,7.83,4.84,3.34,1.27,6.38,3.32,9.58,4.88,8.29,4.29,14.05,1.99,21.76-1.94,5.37-2.56,11.36-5.38,17.41-3.58,4.09,1.1,7.69,3.55,11.32,5.64,3.17,1.75,6.67,3.05,9.58,5.27,3.16,2.2,6.28,4.63,9.58,6.62,2.87.19,5.83.03,8.71.08,5.79,0,11.62,0,17.41,0,2.58-.02,5.26.04,7.83-.03,1.7-.49,3.54-1.05,5.22-1.61,3.47-1.25,7.16-2.25,10.45-3.94,3.8-2.17,7.22-5.16,11.32-6.8,5.5-2.4,11.03-.21,15.67,3.01,3.75,2.45,7.41,5.18,11.32,7.39"/><path class="b" d="M8.51,30.13c2.26,1.08,4.57,2.35,6.96,3.1,2.03.48,4.18.97,6.09,1.84,6.96,3.15,13.25,6.03,20.89,3.03,7.57-2.73,14.99-9.94,23.5-6.38,4.21,1.63,7.69,4.71,11.32,7.32,1.63,1.2,3.58,2.22,5.22,3.4,2.05,1.45,4.12,3.12,6.09,4.68,1.67,1.18,3.29,2.89,5.22,3.62,3.46,0,6.99,0,10.45,0,7.24,0,14.52,0,21.76,0,2.29,0,4.68,0,6.96,0,1.09-.03,2.41.09,3.48-.13.42-.21,1.32-.63,1.74-.85,2.99-1.53,6.1-3.1,8.71-5.25,4.75-3.71,10.03-8.61,16.54-7.51,3.84.64,7.18,2.95,10.45,4.93,3.02,1.83,6.27,3.46,9.58,4.71"/><path class="b" d="M8.51,27.11c1.97.62,4.05,1.33,6.09,1.69,1.69.3,3.55.12,5.22.57,2.99.71,5.84,2.1,8.71,3.19,20.01,8.53,24.37-13.84,40.04-4.19,3.78,2.41,6.93,5.76,10.45,8.52,2.65,1.91,5.28,4.03,7.83,6.06,1.37,1,2.78,2.37,4.35,3.05,4.92,0,9.88,0,14.8,0,6.95,0,13.94,0,20.89,0,3.17,0,6.41,0,9.58,0,.5.05,1.36-.29,1.74-.62.78-.49,1.85-1.18,2.61-1.69,8.36-5.1,15.06-16.12,26.12-10.6,2.68,1.24,5.2,3.01,7.83,4.35,2.72,1.37,5.74,2.28,8.71,2.93"/><path class="b" d="M8.51,24.57c2.26.49,4.64,1.05,6.96,1.07,2.33-.22,4.75-.13,6.96.69,5.17,1.76,10.08,4.87,15.67,5.04,12.46.5,17.89-15.49,31.34-5.75,4.59,3.45,8.43,7.88,13.06,11.28,1.08.88,2.38,1.91,3.48,2.76.75.54,1.68,1.42,2.61,1.6,6.08,0,12.2,0,18.28,0,8.99,0,18,0,26.99,0,0,0,.87-.04.87-.04l.87-.54c1.11-.71,2.41-1.6,3.48-2.36,2.33-1.69,4.78-3.45,6.96-5.33,7.53-6.59,13.18-10.15,22.63-4.2,2.24,1.32,4.53,2.84,6.96,3.8,2.49,1,5.21,1.61,7.83,2.09"/><path class="b" d="M8.51,22.15c3.18.19,6.42.23,9.58-.25,5.96,0,10.96,3.98,16.54,5.55,3.97,1.29,8.43,1.19,12.19-.7,8.05-4.65,13.79-8.84,22.63-2.68,4.04,2.78,7.42,6.51,11.32,9.49.77.6,1.83,1.41,2.61,1.99.68.56,1.69,1.17,2.61,1,6.95,0,13.94,0,20.89,0,7.82,0,15.68,0,23.5,0,.85.08,1.86-.48,2.61-.82,1.43-.68,3-1.53,4.35-2.35,3.29-2,6.52-4.29,9.58-6.63,5.52-4.31,11.34-7.18,18.28-4.15,2.96,1.18,5.75,2.97,8.71,4.16,3.04,1.18,6.36,1.71,9.58,2.13"/><path class="b" d="M8.51,20.44c3.16-.62,6.41-1.15,9.58-1.7,5.82-.45,11.11,2.72,16.54,4.3,3.62,1.13,7.61,1.68,11.32.65,2.37-.67,4.61-1.96,6.96-2.68,5.17-1.89,10.97-1.2,15.67,1.61,4.36,2.45,8.13,5.9,12.19,8.78.98.66,2.37.35,3.48.42,1.7,0,3.53,0,5.22,0,4.92,0,9.88,0,14.8,0,4.33,0,8.72,0,13.06,0,5.22-.67,10.57-.94,15.67-2.31,5.35-1.31,10.14-4.17,14.8-7,9.9-5.84,14.97-4.18,25.25-.99,3.39.85,6.97.99,10.45,1.17"/><path class="b" d="M8.51,19.92c10.84-4.16,15.9-3.61,26.99-1.78,3.72.54,7.59.9,11.32.28,12.24-3.51,22.16,1.87,32.21,8.32.44.24,1.24.44,1.74.36,1.09,0,2.39,0,3.48,0,3.17,0,6.41,0,9.58,0,3.75,0,7.57,0,11.32,0,1.09,0,2.39,0,3.48,0,.79,0,1.87.08,2.61-.27,7.61-3.64,16.2-3.03,24.38-3.79,5.87-.47,10.99-3.7,16.54-5.33,6.44-2.17,13.33-1.98,20.02-1.5,3.75.18,7.57-.05,11.32.03"/><path class="b" d="M8.51,20.44c3.35-1.44,6.92-2.48,10.45-3.38,3.17-.91,6.38-1.99,9.58-2.82,5.1-1.38,10.4-1.97,15.67-2.14,2.58-.06,5.26-.42,7.83-.05,3.88.54,7.65,1.89,11.32,3.22,4.07,1.51,8.19,3.06,12.19,4.76,1.73.67,3.47,1.73,5.22,2.34,2.58,0,5.25,0,7.83,0,5.79,0,11.62,0,17.41,0,1.39-.03,2.96.07,4.35-.08,1.38-.74,2.93-1.56,4.35-2.22,3.55-1.66,7.41-2.83,11.32-3.18,4.32-.45,8.73.09,13.06-.14,2.34-.1,4.69-.81,6.96-1.32,6.62-1.47,13.35-2.64,20.02-3.86,5.74-.98,11.56-2.33,17.41-1.8"/></svg>