<?xml version="1.0" encoding="UTF-8"?><svg id="a" xmlns="http://www.w3.org/2000/svg" width="1920" height="2400" viewBox="0 0 192 240"><defs><style>.b{fill:none;stroke:#fff;stroke-miterlimit:10;stroke-width:.4px;}.c{stroke-width:0px;}</style></defs><rect class="c" width="192" height="240"/><path class="b" d="M10.17,231.73c22.49,0,44.98,0,67.47,0,6.25,0,12.54,0,18.79,0,1.95,0,4.02,0,5.98,0,1.69.03,3.51.06,5.12-.5,1.97-.53,4.08-1.04,5.98-1.79,3.61-1.44,7.21-3.28,11.1-3.82,6.68-1.11,12.63,2.78,18.79,4.62,1.64.54,3.42,1.16,5.12,1.47,1.06,0,2.35,0,3.42,0,1.37-.07,2.96.2,4.27-.24,4.63-1.47,8.33-4.89,11.96-7.98,4.16-3.7,7.77-6.3,13.66-5.44"/><path class="b" d="M10.17,227.09c20.49,0,41,0,61.49,0,1.96.03,4.03,0,5.98-.27,1.95-.21,4-.62,5.98-.52,2.26.07,4.6.42,6.83.77,2.24.06,4.59.01,6.83.03,3.96-.07,8,.14,11.96-.09,6.91-1.34,13.22-5.74,20.5-5.04,8.25.69,16.43,5.67,24.77,2.85,5.28-1.78,9.45-5.77,13.66-9.25,4.31-3.68,7.81-5.93,13.66-3.98"/><path class="b" d="M10.17,222.46c20.78,0,41.56,0,62.34,0,1.37-.02,2.9.05,4.27-.06,1.66-.28,3.45-.67,5.12-.86,2.82-.27,5.74.02,8.54.44,3.35.71,6.84.43,10.25.48,4.82,0,9.69,0,14.52,0,2.58-.28,5.13-1.38,7.69-1.86,3.61-.84,7.39-1.21,11.1-1.1,10.44.62,15.39,1.37,24.77-4.68,4.86-3.02,9.17-7.13,14.52-9.32,2.8-1,5.92-.23,8.54.95"/><path class="b" d="M10.17,217.82c37.29.01,74.58-.03,111.87,0,2.24-.01,4.59.03,6.83-.02,2.53-.48,5.15-.98,7.69-1.43,2.52-.5,5.19-.75,7.69-1.4,2.66-.75,5.26-2.01,7.69-3.33,5.65-3.08,11-6.9,17.08-9.13,4.63-1.84,8.3-1.53,12.81.6"/><path class="b" d="M10.17,213.18c36.72,0,73.45,0,110.17,0,5.11,0,10.26,0,15.37,0,2.57-.73,5.15-1.8,7.69-2.65,2.37-1.01,4.66-2.45,6.83-3.82,4.01-2.55,8.18-5.13,12.81-6.39,6.17-1.66,12.81-1.24,18.79.95"/><path class="b" d="M10.17,208.55c35.58,0,71.17,0,106.75,0,6.54,0,13.11,0,19.64,0,1.48-.18,2.89-1.23,4.27-1.75,3.05-1.17,5.83-3.06,8.54-4.86,5.42-3.72,11.26-6.18,17.93-4.73,4.82.98,9.65,2.18,14.52,2.89"/><path class="b" d="M10.17,201.48c.8.44,1.82,1.12,2.56,1.64.66.69,1.65.87,2.56.79,3.68,0,7.42,0,11.1,0,8.53,0,17.09,0,25.62,0,13.94,0,27.9,0,41.85,0,1.37,0,2.9,0,4.27,0,1.63-.51,3.42-.98,5.12-1.14,3.41-.33,6.93.12,10.25.92,1.61.44,3.47.13,5.12.22,2.82,0,5.72,0,8.54,0,2.53-.05,5.16.12,7.69-.09,1.38-.57,2.91-1.27,4.27-1.89,2.27-1.03,4.7-1.97,6.83-3.28,5.44-3.34,11.34-6.59,17.93-4.91,2.9.63,5.71,1.88,8.54,2.76,3.03.9,6.23,1.52,9.39,1.64"/><path class="b" d="M10.17,194.42c1.77.85,3.55,2,5.12,3.18.78.53,1.62,1.45,2.56,1.67,6.25,0,12.54,0,18.79,0,13.37,0,26.76,0,40.14,0,6.54,0,13.11,0,19.64,0,.89-.06,1.81-.82,2.56-1.22,1.31-.73,2.84-1.43,4.27-1.88,3.01-.98,6.32-.99,9.39-.33,7.08,1.63,13.25,3.18,20.5,1.07,2.28-.6,4.6-1.43,6.83-2.16,1.98-.61,4.08-1.24,5.98-2.09,6.68-3.05,12.43-4.76,19.64-2.09,2.56.86,5.1,2.04,7.69,2.84,2.74.84,5.68,1.29,8.54,1.33"/><path class="b" d="M10.17,188.1c3.99,1.57,7.72,3.92,11.1,6.54,22.2,0,44.41,0,66.61,0,1.95,0,4.02,0,5.98,0,1.08-.05,2.4.18,3.42-.28,1.81-1.52,3.85-3,5.98-4.05,2.09-1.02,4.5-1.66,6.83-1.55,5.94.68,11.94,1.77,17.93,1.08,3.42-.31,6.86-1.03,10.25-1.6,2.52-.45,5.19-.56,7.69-1.14,6.24-1.52,12.5-2.52,18.79-.57,3.16.86,6.25,2.2,9.39,3.12,2.47.68,5.13.99,7.69,1.08"/><path class="b" d="M10.17,182.85c4.98,1.84,10.06,3.73,14.52,6.68.94.74,2.31.4,3.42.47,1.37,0,2.9,0,4.27,0,4.54,0,9.13,0,13.66,0,17.08,0,34.16,0,51.24,0,4.34-3.25,8.64-7.04,14.52-6.1,4.83.44,9.73-.09,14.52-.75,3.95-.53,7.96-1.15,11.96-1.13,2.54-.01,5.14.53,7.69.5,4.82,0,9.7-.48,14.52-.01,4.36.37,8.67,1.5,12.81,2.88,2.74.84,5.69,1.15,8.54,1.35"/><path class="b" d="M10.17,178.62c1.92.78,3.98,1.53,5.98,2.07,1.96.5,4.09.78,5.98,1.53,2.37.77,4.52,2.27,6.83,3.14,1.67,0,3.46,0,5.12,0,19.07,0,38.15,0,57.22,0,2.24,0,4.59,0,6.83,0,1.29-.07,2.31-1.4,3.42-1.97,1.55-1,3.35-1.92,5.12-2.44,3.04-.97,6.3,0,9.39-.62,4.6-.69,9.07-2.28,13.66-3.01,3.08-.51,6.32-.61,9.39-.02,1.7.31,3.45.99,5.12,1.4,1.92.48,4.01.79,5.98.97,5.67.51,11.43.1,17.08.88,2.6.29,5.16,1.17,7.69,1.79,2.22.46,4.58.65,6.83.87"/><path class="b" d="M10.17,174.95c2.12,1.12,4.45,2.09,6.83,2.44,2.9.15,5.86.56,8.54,1.75,1.1.44,2.33,1.11,3.42,1.58,1.96,0,4.02,0,5.98,0,4.25,0,8.56,0,12.81,0,16.79,0,33.59,0,50.39,0,.76,0,1.8,0,2.56,0,1.94-.8,3.89-1.93,5.98-2.36,2.78-.77,5.74.04,8.54-.6,6.58-1.35,12.76-5.01,19.64-4.61,3.31.07,6.4,1.45,9.39,2.7,2.99,1.11,6.22,1.75,9.39,1.99,4.82.39,9.71-.11,14.52.36,2.3.16,4.59.96,6.83,1.44,2.22.41,4.59.51,6.83.66"/><path class="b" d="M10.17,171.25c2.06,1.34,4.38,2.55,6.83,2.94,1.37.17,2.91.11,4.27.38,1.73.28,3.48.94,5.12,1.53,1.96,0,4.02,0,5.98,0,5.39,0,10.83,0,16.23,0,17.08,0,34.16,0,51.24,0,.76,0,1.8,0,2.56,0,1.67-.41,3.4-1.11,5.12-1.31,1.65-.28,3.46-.1,5.12-.12,1.39-.07,2.92-.35,4.27-.7,6.92-1.94,14.05-5.32,21.35-3.31,3.2.84,6.15,2.61,9.39,3.35,4.71,1.26,9.67,1.34,14.52,1.34,3.12,0,6.32.17,9.39.75,3.39,0,6.86,0,10.25,0"/><path class="b" d="M10.17,167.92c2.04,1.42,4.36,2.7,6.83,3.11,2.82.28,5.7.51,8.54.42,5.39,0,10.83,0,16.23,0,17.36,0,34.73,0,52.09,0,2.53,0,5.15,0,7.69,0,1.34-.47,2.88-.93,4.27-1.23,3.06-.77,6.32-.49,9.39-1.17,6.72-1.5,13.5-4.08,20.5-2.97,4.11.49,7.9,2.46,11.96,3.19,5.04,1.03,10.25.93,15.37.9,3.71-.07,7.47.26,11.1,1.05,2.52.32,5.16.03,7.69-.18"/><path class="b" d="M10.17,164.96c1.04.66,2.29,1.36,3.42,1.84.78.02,1.79.02,2.56.02,2.53,0,5.15,0,7.69,0,7.39,0,14.81,0,22.2,0,11.66,0,23.35,0,35.01,0,3.97,0,7.99,0,11.96,0,1.37,0,2.9,0,4.27,0,1.09.02,2.39.04,3.42-.4,4.44-1.49,9.09-2.32,13.66-3.25,5.85-1.4,11.88-2.74,17.93-2.16,4.61.31,9.1,1.75,13.66,2.37,4.8.64,9.7.52,14.52.33,3.96-.14,8.01-.3,11.96.14,3.11.46,6.31-.18,9.39-.54"/><path class="b" d="M10.17,162.18c29.6,0,59.21,0,88.82,0,9.04-2.36,17.77-6.94,27.33-6.56,4.59.09,9.13,1.15,13.66,1.77,3.37.43,6.85.45,10.25.35,5.4-.18,10.83-.72,16.23-.97,2.53-.15,5.16-.1,7.69-.17,2.56-.19,5.15-.85,7.69-1.21"/><path class="b" d="M10.17,157.54c19.92,0,39.86,0,59.78,0,6.82,0,13.67,0,20.5,0,2.53,0,5.15,0,7.69,0,1.37-.07,2.94.19,4.27-.21,8.23-3.05,13.7-7.44,23.06-6.68,4.6.27,9.09,1.6,13.66,2.07,4.83.34,9.71-.39,14.52-.76,6.53-.65,13.11-1.12,19.64-1.74,2.87-.37,5.7-1.36,8.54-1.88"/><path class="b" d="M10.17,152.91c17.36,0,34.73,0,52.09,0,8.25,0,16.52,0,24.77,0,5.97,0,11.97,0,17.93,0,2.68-1,5.14-2.7,7.69-3.99,4.43-2.3,9.59-3.04,14.52-2.36,4.28.5,8.49,1.83,12.81,2.04,5.12-.05,10.26-.83,15.37-1.18,5.97-.53,12.02-.8,17.93-1.82,2.89-.59,5.69-1.82,8.54-2.56"/><path class="b" d="M10.17,148.27c17.93,0,35.87,0,53.8,0,8.25,0,16.52,0,24.77,0,4.25,0,8.56,0,12.81,0,1.37,0,2.9,0,4.27,0,.78,0,1.84.08,2.56-.28,2.74-1.66,5.46-3.58,8.54-4.56,4.68-1.64,9.79-1.15,14.52.02,2.8.65,5.67,1.47,8.54,1.74,5.11.18,10.27-.4,15.37-.73,6-.51,12.06-1.06,17.93-2.4,2.93-.77,5.7-2.24,8.54-3.25"/><path class="b" d="M10.17,143.63c18.21,0,36.44,0,54.66,0,8.25,0,16.52,0,24.77,0,4.25,0,8.56,0,12.81,0,1.37,0,2.9,0,4.27,0,.77,0,1.83.07,2.56-.23,2.89-2.11,5.89-4.34,9.39-5.3,6.09-1.89,12.23.72,17.93,2.73,2.98,1.12,6.24,1.32,9.39,1.32,3.4.05,6.87-.1,10.25-.47,6.07-.7,12.12-2.02,17.93-3.91,2.6-1,5.12-2.44,7.69-3.53"/><path class="b" d="M10.17,138.99c32.73-.1,65.49.19,98.21-.1,6.4-5.24,11.7-9.88,20.5-6.87,3.82,1.26,7.29,3.51,11.1,4.79,6.65,1.63,13.74,2.12,20.5.88,4.68-.89,9.25-2.47,13.66-4.23,2.58-1.16,5.1-2.68,7.69-3.84"/><path class="b" d="M10.17,134.36c18.21,0,36.44,0,54.66,0,8.53,0,17.09,0,25.62,0,3.97,0,7.99,0,11.96,0,1.37-.04,2.92.11,4.27-.12,1.46-1.02,2.98-2.3,4.27-3.52,2.29-2.2,4.81-4.4,7.69-5.81,5.94-3.09,11.87-.35,17.08,2.85,2.64,1.63,5.52,2.98,8.54,3.72,3.06.93,6.22,1.85,9.39,2.26,6.78,1.02,13.53-1.09,19.64-3.9,2.88-1.33,5.64-3.1,8.54-4.38"/><path class="b" d="M10.17,129.72c17.93,0,35.87,0,53.8,0,9.96,0,19.93,0,29.89,0,3.39,0,6.85,0,10.25,0,2.3-.78,4.18-2.78,5.98-4.36,2.65-2.66,5.32-5.52,8.54-7.5,6.4-4.12,12.23-1.41,17.93,2.41,3.69,2.55,7.99,4.07,11.96,6.11,2.98,1.43,6.13,2.77,9.39,3.34,1.95,0,4.03,0,5.98,0,6.62-.2,12.08-4.78,17.93-7.34"/><path class="b" d="M10.17,125.08c20.78,0,41.56,0,62.34,0,7.39,0,14.81,0,22.2,0,3.11,0,6.29,0,9.39,0,2.6-1.27,4.79-3.47,6.83-5.49,4.41-4.47,9.36-10.3,16.23-9.95,4.49.33,8.27,3.18,11.96,5.49,1.6,1.06,3.49,1.92,5.12,2.92,2.6,1.61,5.13,3.5,7.69,5.18,1.03.63,2.22,1.58,3.42,1.85.75,0,1.81,0,2.56,0,2.53,0,5.15,0,7.69,0,3.1-.1,6.32.22,9.39-.15,2.23-1.26,4.52-2.66,6.83-3.76"/><path class="b" d="M10.17,120.45c25.33,0,50.67,0,76.01,0,4.54,0,9.13,0,13.66,0,1.95,0,4.02,0,5.98,0,1.18-.56,2.4-1.54,3.42-2.35,5.73-4.69,10.83-11.8,18.79-12.34,4.36-.18,8.34,2.13,11.96,4.32,5.12,2.64,9.08,6.99,13.66,10.37,5.97,0,11.97,0,17.93,0,1.95,0,4.02,0,5.98,0,1.37-.06,2.93.16,4.27-.18"/><path class="b" d="M10.17,115.81c25.62,0,51.24,0,76.86,0,4.82,0,9.69,0,14.52,0,2.24,0,4.59,0,6.83,0,.81-.34,1.84-.98,2.56-1.48,6.51-4.46,12.78-11.5,21.35-10.82,4.81.51,9.16,3.23,12.81,6.27,2.35,1.84,4.34,4.4,6.83,6.02h29.89"/><path class="b" d="M10.17,111.17c26.47,0,52.95,0,79.42,0,5.11,0,10.26,0,15.37,0,2.24,0,4.59,0,6.83,0,1.47-.41,2.93-1.37,4.27-2.08,7.67-4.48,16.19-9.58,24.77-4.05,2.82,1.65,5.05,4.27,7.69,6.13h33.31"/><path class="b" d="M10.17,106.54c24.19,0,48.4,0,72.59,0,11.38,0,22.78,0,34.16,0,4.54-1.15,8.96-3.13,13.66-3.6,2.87-.32,5.91.03,8.54,1.27.8.37,1.84.99,2.56,1.51.58.65,1.72.92,2.56.82,12.52,0,25.06,0,37.58,0"/><path class="b" d="M10.17,101.9c17.36.01,34.74-.02,52.09,0,7.11,0,14.24,0,21.35,0,1.45-.11,2.88-1.01,4.27-1.41,2.16-.76,4.53-1.3,6.83-1.28,2.3,0,4.66.55,6.83,1.3,1.38.41,2.83,1.22,4.27,1.39,7.39,0,14.81,0,22.2,0,17.93,0,35.87,0,53.8,0"/><path class="b" d="M10.17,97.26c12.52,0,25.06,0,37.58,0,1.47.11,2.84-1.07,4.27-1.33,1.91-.52,4.01-.67,5.98-.63,3.98.1,7.98.73,11.96.81,5.18.11,10.45-.46,15.37-2.13,4.68-1.62,9.86-2,14.52-.1,1.7.62,3.47,1.44,5.12,2.17,1.32.54,2.8,1.34,4.27,1.21,7.39,0,14.81,0,22.2,0,16.79,0,33.6,0,50.39,0"/><path class="b" d="M10.17,92.63c10.81,0,21.64,0,32.45,0,1.21.16,2.38-.67,3.42-1.16,1.37-.67,2.87-1.45,4.27-2.05,3.22-1.32,6.8-1.61,10.25-1.63,5.97.06,11.98.23,17.93-.23,4.82-.2,9.7-1.35,14.52-.47,5.4.8,10.1,3.95,15.37,5.17,2.79.5,5.72-.14,8.54.02,1.96.02,4.03.17,5.98.36,1.95,0,4.02,0,5.98,0,17.64,0,35.3,0,52.95,0"/><path class="b" d="M10.17,87.99c9.95-.09,19.95.18,29.89-.1,4.23-2.78,8.66-5.65,13.66-6.78,4.75-1.04,9.69-.94,14.52-.96,5.11.04,10.28-.05,15.37.47,4.38.42,8.69,1.63,12.81,3.15,3.87,1.35,7.79,3.12,11.96,3.18,3.16-.11,6.23-1.42,9.39-1.62,3.41-.37,6.96-.08,10.25.91,2.01.44,3.91,1.91,5.98,1.75,15.94,0,31.89,0,47.82,0"/><path class="b" d="M10.17,83.35c8.25,0,16.52,0,24.77,0,.77,0,1.8,0,2.56,0,1.16-.6,2.34-1.63,3.42-2.37,5.77-4.36,11.52-6.76,18.79-7.17,3.96-.29,7.99-.24,11.96-.06,3.7.21,7.49.44,11.1,1.33,5.54,1.43,10.68,4.18,16.23,5.58,6.35,1.59,9.65.56,15.37-2.13,9.01-3.9,15.72-.79,23.06,4.76,14.79.19,29.61,0,44.41.07"/><path class="b" d="M10.17,78.72h26.47c3.6-2.45,7.14-5.18,11.1-7.03,5.87-2.6,12.44-3.11,18.79-3.08,5.14.11,10.39.46,15.37,1.79,4.06,1.27,7.87,3.39,11.96,4.6,5.4,1.81,11.41,1.01,16.23-2.01,3.21-1.98,6.48-4.24,10.25-4.95,3.92-.81,7.91.7,11.1,2.91,2.38,1.61,4.64,3.59,6.83,5.44.74.63,1.79,1.47,2.56,2.06.72.34,1.79.27,2.56.26,12.8,0,25.63,0,38.43,0"/><path class="b" d="M10.17,74.08c9.1-.03,18.23.06,27.33-.03,8.29-4.78,13.32-7.38,23.06-8.5,7.93-.82,16.29-1.07,23.91,1.59,6.14,2.34,12.42,4.29,18.79,1.47,4.99-1.94,8.83-5.99,13.66-8.2,11.28-5.01,18.33,8.41,26.47,13.68h38.43"/><path class="b" d="M10.17,69.04c.41.31,1.21.47,1.71.4,1.08,0,2.34,0,3.42,0,2.82,0,5.72,0,8.54,0,3.68,0,7.42,0,11.1,0,2.18-.12,4.74.28,6.83-.22,5.52-2.28,11.28-3.99,17.08-5.38,5.06-1.22,10.18-2.46,15.37-2.94,5.5-.72,10.84,1.1,16.23,1.81,6.06.87,12.07-1.28,17.08-4.6,3.54-2.21,6.9-5.15,11.1-5.98,7.6-1.4,13.16,5.46,17.93,10.31,2.29,2.57,5.06,4.79,7.69,7,12.52-.08,25.07.16,37.58-.09"/><path class="b" d="M10.17,64.44c1,.59,2.32.31,3.42.36,1.37,0,2.9,0,4.27,0,4.25,0,8.56,0,12.81,0,4.25,0,8.56,0,12.81,0,2.27-.26,4.58-.95,6.83-1.31,5.56-1.02,11.01-2.73,16.23-4.89,4.9-1.93,9.97-4.32,15.37-3.89,3.96.18,7.99.65,11.96.34,4.77-.32,9.42-1.84,13.66-3.98,5.37-2.83,10.8-6.5,17.08-4.02,7.59,3.09,12.28,10.4,18.79,15.07,3.27,2.81,2.32,2.79,6.83,2.68,7.96,0,15.95,0,23.91,0,1.13.13,2.33-.63,3.42-.83,1.34-.31,2.9-.37,4.27-.24"/><path class="b" d="M10.17,60.02c2.5.36,5.16.06,7.69.15,4.82,0,9.69,0,14.52,0,1.98.11,4.03-.17,5.98-.52,1.95-.28,4.02-.49,5.98-.6,5.72-.27,11.64.05,17.08-2.08,4.8-1.71,9.08-4.65,13.66-6.84,4.2-2.14,9.08-1.87,13.66-2.24,6.3-.34,12.7-.72,18.79-2.47,5.71-1.81,10.93-4.47,17.08-2.59,4.88,1.43,8.94,4.78,12.81,7.95,3.92,3.17,7.95,6.33,11.96,9.39,6.82,0,13.68,0,20.5,0,1.24.04,2.34-1.09,3.42-1.59,2.59-1.41,5.75-1.44,8.54-.65"/><path class="b" d="M10.17,55c1.61.63,3.43.55,5.12.53,2.25,0,4.59,0,6.83,0,4.07-.66,7.9-2.64,11.96-3.47,3.89-.94,8-1.08,11.96-.5,3.68.49,7.37,1.54,11.1,1.49,7.46.07,13.36-5.02,19.64-8.31,2.36-1.24,5.12-1.57,7.69-2.12,3.64-.73,7.39-1.24,11.1-1.38,5.98-.23,12.06.32,17.93-1.12,14.58-3.18,22.93,4.92,34.16,12.41,1.85,1.15,3.86,2.42,5.98,3.01,1.06,0,2.35,0,3.42,0,1.66,0,3.46,0,5.12,0,1.07-.05,2.4.16,3.42-.25,6.24-2.29,9.11-5.57,16.23-2.95"/><path class="b" d="M10.17,48.79c1.96.06,4.03-.1,5.98-.31,2.3-.18,4.69-.54,6.83-1.44,5.72-2.34,11.54-5.6,17.93-4.88,7.97.55,14.88,6.87,23.06,5.44,5.03-.86,9.18-4.12,13.66-6.31,1.58-.79,3.45-1.2,5.12-1.73,10.63-3.58,14.78-3.21,25.62-2.04,5.68.2,11.43-.8,17.08.14,4.8.69,9.43,2.5,13.66,4.84,4.48,2.46,8.71,5.63,13.66,7.09,6.82,2.22,13.25-.67,19.64-2.82,3.05-1.01,6.39-.43,9.39.47"/><path class="b" d="M10.17,40.94c1.97-.5,4.01-1.15,5.98-1.65,2.28-.51,4.69-.94,6.83-1.92,7.42-3.32,13.39-5.8,21.35-2.24,2.62,1.14,5.25,2.52,7.69,4.02,2.96,1.83,6,3.82,9.39,4.73,5.71,1.69,11.19-1.33,16.23-3.69,1.61-.74,3.48-1.18,5.12-1.82,2.82-1.08,5.66-2.37,8.54-3.3,5.76-2.07,11.96-1.72,17.93-1,4.82.35,9.73.23,14.52.96,5.65.78,11.13,2.69,16.23,5.21,6.76,3.53,13.46,7.09,21.35,5.39,8.21-1.69,11.42-4.68,20.5-2.9"/><path class="b" d="M10.17,32.76c2.19-1.25,4.46-2.59,6.83-3.46,2.57-.75,5.18-1.62,7.69-2.56,5.49-2.1,11.03-2.13,16.23.79,4.47,2.52,8.74,5.57,12.81,8.69,2.86,2.11,5.85,4.64,9.39,5.41,2.82-.06,5.73.13,8.54-.09,2.31-.71,4.58-1.8,6.83-2.65,1.36-.5,2.93-.9,4.27-1.44,3.43-1.33,6.78-3.03,10.25-4.27,5.7-2.21,11.9-2.44,17.93-2.12,7.53.02,15.11,1.01,22.2,3.62,8.56,3.06,17.12,7.41,26.47,5.87,4.02-.51,7.95-1.76,11.96-2.34,3.38-.48,6.86-.13,10.25.05"/><path class="b" d="M10.17,26.15c2.11-1.8,4.35-3.68,6.83-4.96,1.62-.75,3.46-1.35,5.12-2,5.22-2.11,10.5-2.28,15.37.78,3.44,2.05,6.4,4.9,9.39,7.52,2.23,1.92,4.65,3.82,6.83,5.8,1.05.91,2.31,1.98,3.42,2.83.43.34,1.15.83,1.71.87,2.24,0,4.59,0,6.83,0,3.97,0,7.99,0,11.96,0,4.06-.88,8.02-2.52,11.96-3.87,6.03-2.21,12.37-3.64,18.79-4.08,3.96-.33,7.99-.64,11.96-.32,5.85.39,11.48,2.23,17.08,3.83,4.69,1.37,9.65,1.78,14.52,1.54,5.69-.24,11.38-1.23,17.08-1.31,4.27-.06,8.55.78,12.81.91"/><path class="b" d="M10.17,21.79c2.09-2.1,4.31-4.29,6.83-5.86,1.6-.92,3.44-1.69,5.12-2.44,4.97-2.28,9.99-2.19,14.52,1.02,3.52,2.4,6.45,5.68,9.39,8.72,3,3.06,6.26,6,9.39,8.91,1.33.39,2.9.14,4.27.21,2.24,0,4.59,0,6.83,0,5.97-.01,11.97.02,17.93-.01,3.94-.88,7.98-1.6,11.96-2.31,3.97-.71,8-1.45,11.96-2.26,3.93-.83,7.93-1.72,11.96-1.78,5.19-.17,10.31,1.07,15.37,2.02,3.94.83,8.05.63,11.96-.32,7.53-1.83,14.54-2.96,22.2-.92,3.92,1.03,7.89,2.21,11.96,2.46"/><path class="b" d="M10.17,19.48c2.11-2.12,4.35-4.32,6.83-6.02,1.61-1.03,3.44-1.99,5.12-2.9,5.31-2.98,10.42-3.22,15.37.59,4.85,3.64,8.43,8.73,12.81,12.88.77.77,1.79,1.83,2.56,2.59.38.49,1.08,1.04,1.71,1.09,5.39,0,10.83,0,16.23,0,7.39,0,14.81,0,22.2,0,2.53,0,5.15,0,7.69,0,1.07,0,2.35.03,3.42-.05,1.08-.24,2.36-.58,3.42-.89,2.84-.83,5.67-1.97,8.54-2.68,3.32-.86,6.82-1.22,10.25-1.07,3.69.13,7.41.83,11.1.91,6.42.34,11.81-3.95,17.93-5.13,10.29-2.28,16.75,5.42,26.47,6.29"/></svg>