<?xml version="1.0" encoding="UTF-8"?><svg id="a" xmlns="http://www.w3.org/2000/svg" width="1920" height="2400" viewBox="0 0 192 240"><defs><style>.b{fill:none;stroke:#fff;stroke-miterlimit:10;stroke-width:.4px;}.c{stroke-width:0px;}</style></defs><rect class="c" width="192" height="240"/><path class="b" d="M8.49,224.83c2.92-.9,5.85-2.04,8.71-3.12,5.39-1.85,11.07.06,16.54.43,3.81.33,7.77-.09,11.32-1.54,2.09-.8,4.05-2.14,6.09-3.04,4.51-2.17,9.69-1.78,13.93.83,5.12,2.95,9.09,7.55,13.93,10.88,2.54.44,5.26.08,7.84.19,4.63,0,9.3,0,13.93,0,9.86-.02,19.75.04,29.6-.02,3.84-2.14,7.89-4.17,12.19-5.18,10.19-2.18,21.25-4.98,31.35-1,3.33,1.32,5.96,4,8.71,6.21h.87"/><path class="b" d="M8.49,223.39c2.93-1.08,5.85-2.43,8.71-3.67,5.28-2.15,11.06-.63,16.54-.48,3.83.16,7.77-.37,11.32-1.85,2.38-.95,4.6-2.47,6.97-3.45,4.42-2.04,9.64-1.89,13.93.42,5.02,2.49,9.05,6.62,13.93,9.31.75.39,1.78.89,2.61,1.06,1.99,0,4.1,0,6.09,0,4.63,0,9.3,0,13.93,0,6.08,0,12.2,0,18.29,0,.87-.07,1.86-.71,2.61-1.12,1.41-.79,2.97-1.72,4.35-2.55,3.62-2.16,7.34-4.36,11.32-5.81,8.08-2.85,16.95-2.04,25.25-.72,3.82.72,7.77,1.55,11.32,3.17,2.91,1.6,5.39,4.04,7.84,6.25"/><path class="b" d="M8.49,220c.9.14,1.84-.49,2.61-.84,1.7-.81,3.51-1.72,5.22-2.48,5.78-2.79,12.23-.58,18.29-.25,3.83.27,7.78-.24,11.32-1.77,8.04-4.08,13.53-7.43,22.64-3.46,3.59,1.52,6.9,3.76,10.45,5.36,7.7,3.34,16.29,1.12,24.38,1.26,3.17-.1,6.41.29,9.58.26,4.12-.37,7.84-2.55,11.32-4.63,4.25-2.59,8.44-5.48,13.06-7.4,8.7-4,16.66-.27,25.25,1.89,4.28,1.23,8.78,1.82,13.06,3.04,2.98,1.25,5.46,3.57,7.84,5.7"/><path class="b" d="M8.49,215.27c1.24.17,2.4-.91,3.48-1.38,1.38-.73,2.91-1.52,4.35-2.11,6.84-2.82,13.95,1.19,20.9,1.47,8.5.72,12.58-4.09,20.03-6.3,8.45-2.62,14.78,1.24,22.64,3.28,2.83.61,5.83.58,8.71.4,5.49-.41,11.03-1.05,16.54-.9,6.11.13,9,1,14.8-2.05,8.11-3.97,15.68-11.17,25.25-10.61,6.39.99,11.98,4.78,18.29,6.16,3.96,1.09,8.14.94,12.19,1.29,2.98.68,5.52,2.72,7.84,4.61"/><path class="b" d="M8.49,210.01c11.67-7.6,14.03-4.29,26.12-1.16,3.99.98,8.35,1.02,12.19-.57,7.72-3.78,13.7-6.9,22.64-5.56,3.47.43,6.94,1.36,10.45,1.47,6.98,0,13.9-1.61,20.9-1.41,4.05-.04,8.15.53,12.19.37,2.72-.27,5.38-1.31,7.84-2.45,7.43-3.44,14.93-8.78,23.51-7.83,2.75.49,5.35,1.83,7.84,3.04,3.83,1.91,7.88,3.74,12.19,4.1,3.49.34,7.03-.35,10.45-.96,3.17-.34,6.17,1.4,8.71,3.12"/><path class="b" d="M8.49,204.06c2.94-1.76,6.05-3.84,9.58-4.04,9.52-.07,17.47,8.24,27.86,4.89,2.67-.91,5.19-2.44,7.84-3.43,4.66-1.92,9.78-2.69,14.8-2.38,2.88.13,5.83.5,8.71.42,2.62-.08,5.27-.75,7.84-1.25,4.85-1.02,9.83-1.74,14.8-1.65,4.63-.03,9.31.84,13.93.38,8.04-1.22,15.31-5.78,23.51-6.28,8.3-.86,12.05,3.35,19.16,6.08,3.3,1.26,6.99,1.6,10.45.84,6.89-1.49,9.2-4.81,16.54-1.01"/><path class="b" d="M8.49,199.18c2.45-1.3,5.04-2.72,7.84-3.06,5.28-.36,10.05,2.54,14.8,4.4,1.86.94,4.09.47,6.1.57,3.17,0,6.41,0,9.58,0,.45,0,1.29,0,1.74,0,1.12-.42,2.38-1.05,3.48-1.49,1.94-.8,4.05-1.5,6.1-1.97,5.12-1.26,10.46-.8,15.67-.87,3.95.05,7.67-1.46,11.32-2.77,4.21-1.5,8.6-2.75,13.06-3.19,5.48-.66,11.06.18,16.54-.34,6.09-.68,12.12-2.28,18.29-2.17,4.11.1,8.38.65,12.19,2.28,3.81,1.78,7.32,4.34,11.32,5.71,6.55,2.46,12.35-.31,18.29-2.96,2.78-1.06,5.94-.66,8.71.24"/><path class="b" d="M8.49,194.04c6.5-3,10.36-2.43,16.54.82.79.4,1.83.97,2.61,1.4,2.28.24,4.68.05,6.97.1,6.66,0,13.36,0,20.03,0,3.74-.11,7.6.25,11.32-.18,4.74-.79,9.65-1.56,13.93-3.84,9.82-5.48,16.48-7.81,27.86-7.49,5.5-.01,11.04-.7,16.54-.46,5.92.18,11.81,1.37,17.41,3.25,10.12,3.5,15.81,11.07,27.86,7.62,5.65-1.74,7.57-3.15,13.93-1.98"/><path class="b" d="M8.49,188.4c4.98-1.45,9.41-1.01,13.93,1.56.79.42,1.85,1.04,2.61,1.52.77.19,1.83.15,2.61.15,15.96,0,31.93.02,47.89,0,7.76-5.21,13.62-10.66,23.51-11.5,3.16-.32,6.41-.18,9.58-.29,2.88-.16,5.82-.66,8.71-.48,6.56.26,12.96,2.1,19.16,4.16,2.88.99,5.88,1.95,8.71,3.08,3.22,1.34,6.39,2.98,9.58,4.39,1.29.78,2.91.67,4.35.65,1.99,0,4.1,0,6.09,0,6.08,0,12.2,0,18.29,0"/><path class="b" d="M8.49,182.76c3.85-.16,7.82.5,11.32,2.15,1.13.52,2.42,1.23,3.48,1.88,1.09.19,2.38.09,3.48.11,11.02,0,22.07,0,33.09,0,3.75,0,7.57,0,11.32,0,1.4,0,2.96,0,4.35,0,.82,0,1.9.1,2.61-.39,5.27-5.25,11.5-10.32,19.16-11.14,3.44-.46,6.99-.17,10.45-.32,1.72-.04,3.53-.45,5.22-.71,1.69-.2,3.54-.14,5.22.1,9.09,1.49,17.29,6.18,26.12,8.63,2.6.78,5.29,1.6,7.84,2.53,1.4.4,2.87,1.41,4.35,1.31,8.99,0,18,0,26.99,0"/><path class="b" d="M8.49,177.53c3.25.7,6.47,1.83,9.58,3.01,1.43.43,2.84,1.6,4.35,1.64,5.21,0,10.46,0,15.67,0,8.7,0,17.42,0,26.12,0,3.17,0,6.41,0,9.58,0,1.69-.07,3.56.17,5.22-.16,4.61-5.24,10.27-10.34,17.41-11.44,3.14-.54,6.41-.36,9.58-.42,2.35.04,4.7-.55,6.97-1.08,3.24-.48,6.56.38,9.58,1.51,8.32,3.29,16.19,8.26,25.25,9.28,3.26.39,6.47,1.29,9.58,2.3,8.7,0,17.42,0,26.12,0"/><path class="b" d="M8.49,173.06c3.45,1.46,6.88,3.15,10.45,4.3,7.24.22,14.53.01,21.77.08,6.37,0,12.78,0,19.16,0,6.08,0,12.2,0,18.29,0,1.6.33,2.54-1.32,3.48-2.29,1.04-1.12,2.34-2.41,3.48-3.42,4.06-3.71,9.27-6.22,14.8-6.52,3.16-.26,6.45-.08,9.58-.7,1.41-.29,2.91-.93,4.35-1.01,4.02-.26,7.84,1.61,11.32,3.43,5.37,2.88,10.64,6.21,16.54,7.9,2.78.91,5.82.8,8.71.88,2.64.07,5.37.49,7.84,1.45,1.02.46,2.39.23,3.48.28,1.69,0,3.53,0,5.22,0,5.5,0,11.04,0,16.54,0"/><path class="b" d="M8.49,169.59c2.27,1.06,4.55,2.44,6.97,3.13,1.4,0,2.96,0,4.35,0,5.21,0,10.46,0,15.67,0,14.8,0,29.61,0,44.41,0,.95-.49,1.86-1.63,2.61-2.36,1.06-1.06,2.34-2.27,3.48-3.24,3.96-3.44,8.74-6.04,13.93-6.97,4.04-.78,8.28-.89,12.19-2.27,7.18-1.55,14.25,5.18,20.03,8.67,4.46,2.78,9.36,5.9,14.8,5.79,2.58-.05,5.25-.39,7.84-.23,2.01.09,4.07.78,6.1.62,7.54,0,15.1,0,22.64,0"/><path class="b" d="M8.49,166.62c.79.39,1.82.92,2.61,1.3,1.1.11,2.38.06,3.48.07,2.29,0,4.68,0,6.97,0,7.54,0,15.1,0,22.64,0,6.95,0,13.94,0,20.9,0,4.34,0,8.73,0,13.06,0,3.88.13,3.25-.04,6.1-2.42,2.49-2.09,5.14-4.19,7.84-6.01,6.26-4.29,13.56-6.92,20.9-8.67,9.07-.94,18.94,11.96,26.99,16.19.4.24,1.31.7,1.74.9,1.39,0,2.96,0,4.35,0,3.17,0,6.41,0,9.58,0,9.28,0,18.58,0,27.86,0"/><path class="b" d="M8.49,163.26c16.83,0,33.67,0,50.5,0,7.25,0,14.52,0,21.77,0,1.9-.41,3.56-1.95,5.22-2.91,2.93-1.95,5.85-4.1,8.71-6.15,5.65-3.87,12.15-9,19.16-9.63,9.94.1,18.4,12.28,26.12,17.76.62.59,1.74,1.07,2.61.93,1.09,0,2.4,0,3.48,0,3.17,0,6.41,0,9.58,0,9.28,0,18.58,0,27.86,0"/><path class="b" d="M8.49,158.54c12.18,0,24.39,0,36.57,0,1.74.06,3.53-.59,5.22-.9,2.85-.62,5.8-1.15,8.71-1.37,5.22-.46,10.47.36,15.67.59,7.62.36,14.79-3.18,20.9-7.42,5.05-3.3,9.71-7.76,15.67-9.34,13.56-2.66,21.77,11.48,31.35,18.43h40.92"/><path class="b" d="M8.49,153.81c7.25,0,14.52,0,21.77,0,2.58,0,5.25,0,7.84,0,1.4-.05,2.98.15,4.35-.17,2.89-.9,5.92-1.69,8.71-2.88,3.98-1.79,7.88-4.04,12.19-4.94,4.93-1.16,9.95.09,14.8,1,3.43.51,7.02.73,10.45.15,7.8-1.16,13.7-7.01,20.9-9.69,2.79-.79,5.82-1.01,8.71-.88,7.29.4,13.18,5.37,18.29,10.12,2.8,2.46,5.4,5.45,8.71,7.23,6.08.12,12.22.17,18.29-.15,6.65.38,13.36.15,20.03.21"/><path class="b" d="M8.49,149.08c5.21,0,10.46,0,15.67,0,3.17-.07,6.44.22,9.58-.29,3.88-.58,7.67-1.86,11.32-3.24,2.01-.79,4.23-1.42,6.09-2.53,5.29-3.1,10.19-7.67,16.54-8.28,3.24-.33,6.51.5,9.58,1.44,2.28.68,4.68,1.32,6.97,2,8.97,2.78,14.34.71,22.64-2.53,2.48-.97,5.23-1.17,7.84-1.54,4.02-.64,8.28-.9,12.19.47,4.61,1.55,8.52,4.71,12.19,7.81,3.77,3.29,6.8,6.16,12.19,5.91,4.94-.15,9.84-1.72,14.8-1.15,2.4.18,4.73,1.14,6.97,1.93,3.46,0,6.99,0,10.45,0"/><path class="b" d="M8.49,144.35c2,0,4.11.06,6.09-.19,2.01-.26,4.08-.87,6.1-1.12,4.38-.61,8.84-1.16,13.06-2.53,3.88-1.21,7.61-3.01,11.32-4.67,1.98-.92,4.21-1.58,6.09-2.7,3.52-2.07,6.77-4.73,10.45-6.53,4.59-2.44,9.94-2.4,14.8-.81,3.86,1.02,7.65,2.39,11.32,3.96,5.2,2.21,10.93,3.17,16.54,2.36,4.03-.62,8.15-.78,12.19-1.29,10.7-1.71,16.96,1.98,25.25,8.14,3.52,2.96,7.8,3.42,12.19,2.49,7.3-1.58,13.99-3.35,20.9.8,1.11.61,2.32,1.58,3.48,2.08,1.69,0,3.53,0,5.22,0"/><path class="b" d="M8.49,139.63c3.87-.49,7.6-1.83,11.32-2.94,5.68-1.51,11.35-3.31,16.54-6.1,2.91-1.5,5.8-3.22,8.71-4.71,2.25-1.18,4.79-2.02,6.97-3.34,4.42-2.56,8.81-5.62,13.93-6.57,5.55-1.02,11.17.68,16.54,1.92,5.33,1.74,10.3,4.57,15.67,6.21,4.48,1.45,9.24,1.98,13.93,2.16,3.76.12,7.6.01,11.32.6,5.59.81,10.8,3.27,15.67,6.03,1.96,1.04,3.95,2.4,6.09,3.04,6.52,1.68,12.8-2.08,19.16-2.96,7.92-1.42,12.75,2.18,19.16,6.03"/><path class="b" d="M8.49,134.9c1.15.05,2.47.02,3.48-.59,1.7-.76,3.51-1.62,5.22-2.34,3.76-1.53,7.66-2.89,11.32-4.66,6.1-2.83,11.55-6.9,17.41-10.15,5.71-2.58,11.24-5.93,17.41-7.3,4.29-.95,8.75-.51,13.06.01,2.88.33,5.88.26,8.71,1,6.95,1.65,13.29,5.19,20.03,7.47,2.79,1.01,5.79,1.55,8.71,2.02,2.91.54,5.88,1.27,8.71,2.16,7.46,2.21,14.37,6,21.77,8.34,4.67,1.11,9.47-.32,13.93-1.67,10.37-3.34,15.15-3.87,25.25.92"/><path class="b" d="M8.49,130.17c.79,0,1.82,0,2.61,0,.88.05,1.93,0,2.61-.62,2.44-1.56,5.2-2.72,7.84-3.9,5.13-2.24,10.13-4.9,14.8-7.99,5.52-3.68,11.07-7.5,17.41-9.61,7.27-2.79,14.21-2.19,21.77-1.73,2.3.12,4.68-.21,6.97-.43,2.58-.21,5.27-.18,7.84.21,8.01,1.1,14.85,5.94,22.64,7.82,8.66,2.94,16.39,8.27,25.25,10.71,17.59,5.67,27.79-6.19,45.28-2.04"/><path class="b" d="M8.49,125.44c2,0,4.1,0,6.1,0,.88-.13,1.83-.83,2.61-1.2,1.39-.69,2.95-1.41,4.35-2.06,4.46-2.01,8.9-4.21,13.06-6.77,4.36-2.62,8.54-5.67,13.06-8.03,9.91-5.17,17.62-2.53,27.86-2.44,3.27-.02,6.44-1.13,9.58-1.92,8.16-2.29,14.35-.51,21.77,3.01,2.81,1.34,5.96,2.09,8.71,3.56,4.11,2.13,8.03,4.76,12.19,6.8,5.37,2.79,11.39,4.08,17.41,4.35,4.91.42,9.9.58,14.8.03,7.89-.81,15.56-3.38,23.51-3.67"/><path class="b" d="M8.49,120.71c2,0,4.1,0,6.1,0,1.1-.03,2.41.12,3.48-.18,1.39-.65,2.95-1.33,4.35-1.94,4.13-1.74,8.28-3.62,12.19-5.81,4.1-2.26,8.07-4.89,12.19-7.11,5.78-3.37,12.65-3.79,19.16-2.94,4.02.42,8.16,1.04,12.19.38,5-.97,9.66-3.57,14.8-3.92,5.17-.51,10.15,1.44,14.8,3.47,1.95.87,4.13,1.52,6.1,2.37,2.95,1.31,5.83,2.96,8.71,4.41,4.1,2.09,8.5,3.81,13.06,4.52,3.72.65,7.59.51,11.32,1.1,4.91.76,9.82,1.87,14.8,2.03,3.78.15,7.62-.24,11.32-.99,3.47-.69,6.94-1.77,10.45-2.27"/><path class="b" d="M8.49,115.99c3.46,0,6.99,0,10.45,0,2.58-1.15,5.23-2.4,7.84-3.51,5.25-2.27,10.49-4.7,15.67-7.12,4.92-2.35,10.11-4.56,15.67-4.42,5.54-.07,11.02,1.3,16.54,1.38,3.89.15,7.67-1.08,11.32-2.29,7.82-2.74,13.97-2.61,21.77.1,6.13,1.7,12.06,4.23,18.29,5.57,4.85,1.04,9.87.94,14.8.91,4.19-.13,8.29,1.1,12.19,2.5,6.64,2.41,13.76,4.9,20.9,3.39,3.19-.67,6.38-1.71,9.58-2.35"/><path class="b" d="M8.49,111.26c2.88,0,5.83,0,8.71,0,5.05-2.82,10.17-5.7,15.67-7.57,3.95-1.4,8.1-2.35,12.19-3.23,3.98-.98,8.07-1.78,12.19-1.51,7.26.27,14.47,2.29,21.77,1.66,5.03-.49,9.84-2.35,14.8-3.22,4.58-.88,9.33-.88,13.93-.18,6.07.89,12.11,2.48,18.29,2.47,6.11.18,12.19-1.49,18.29-1.04,9.23,1.33,16.66,8.65,26.12,9.09,4.47.13,8.72-1.79,13.06-2.6"/><path class="b" d="M8.49,106.53c1.1,0,2.39,0,3.48,0,1.83-.56,3.65-1.54,5.22-2.62,3.11-2.11,6.23-4.38,9.58-6.09,6.26-3.39,12.3-3.25,19.16-2.76,9.34-.42,18.57,1.46,27.86,1.97,3.75.19,7.59.34,11.32-.16,6.71-.85,13.28-2.74,20.03-3.34,5.21-.56,10.46.18,15.67.33,5.23.2,10.49-.35,15.67-1.01,3.74-.44,7.65-.94,11.32.15,8.05,2.16,14.96,8.17,23.51,8.45,4.13-.11,8.11-1.75,12.19-2.29"/><path class="b" d="M8.49,98.31c6.09.12,10.22-4.6,14.8-7.87,8.39-6.15,13.42-5.02,22.64-1.96,6,1.27,12.17,1.99,18.29,2.45,4.04.26,8.15.26,12.19.52,3.17.21,6.39.8,9.58.82,5.9.16,11.73-1.13,17.41-2.57,3.12-.76,6.35-1.52,9.58-1.65,4.06-.15,8.15.38,12.19.7,6.07.58,12.21.42,18.29.07,3.85-.08,7.68.89,11.32,2.05,5.92,1.84,11.95,4.63,18.29,3.87,3.45-.64,6.93-1.52,10.45-1.73"/><path class="b" d="M8.49,89.7c2.78-.19,5.59-1.14,7.84-2.8,3.46-2.66,6.6-5.91,10.45-8.02,6.66-3.81,12.22-.79,18.29,2.39,3.24,1.6,6.92,2.26,10.45,2.9,6.61,1.18,13.36.37,20.03.68,2.64.12,5.27.86,7.84,1.43,2.83.62,5.8,1.06,8.71,1.05,3.83,0,7.66-.82,11.32-1.92,3.15-.9,6.32-2.11,9.58-2.52,3.51-.35,7.08.46,10.45,1.37,4.86,1.34,9.75,2.94,14.8,3.31,2.29.21,4.68-.01,6.97-.11,2.29-.07,4.69.03,6.97.23,5.8.47,11.58,1.8,17.41,1.68,2.33-.01,4.7-.58,6.97-1.05,2.26-.42,4.67-.64,6.97-.6"/><path class="b" d="M8.49,82.66c8.87-1.12,13.2-10.6,21.77-12.3,5.54-1.02,10.3,2.7,14.8,5.34,2.38,1.45,5.16,2.22,7.84,2.88,3.68.9,7.54,1.26,11.32,1.23,3.75,0,7.57-.36,11.32-.05,2.68.17,5.3,1.11,7.84,1.9,2.81.87,5.77,1.63,8.71,1.9,4.72.47,9.47-.54,13.93-2,4.64-1.52,8.11-2.97,13.06-1.44,7.34,2.09,13.95,6.94,21.77,7.21,4.05-.07,8.14-.63,12.19-.71,4.92-.21,9.89-.12,14.8-.51,5.27-.33,10.34-2.44,15.67-1.87"/><path class="b" d="M8.49,76.48c9.4-1.99,13.5-12.09,22.64-12.84,5.46-.16,9.69,3.92,13.93,6.79,2.33,1.67,5.13,2.68,7.84,3.54,3.64,1.15,7.51,1.71,11.32,1.77,3.75.1,7.58-.23,11.32.22,3.04.31,5.88,1.7,8.71,2.77,3.61,1.39,7.43,2.54,11.32,2.76,4.42.29,8.85-.7,13.06-1.96,1.96-.57,4.03-1.33,6.1-1.22,5.69.33,10.61,3.7,15.67,5.98,5.65,2.74,10.29,3.69,16.54,2.62,7.29-1.03,14.55-2.49,21.77-3.94,2.6-.5,5.23-1.3,7.84-1.78,2.27-.36,4.7-.32,6.97.03"/><path class="b" d="M8.49,71.39c9.49-2.71,13.86-13.25,22.64-13.92,5.66-.07,9.78,4.55,13.93,7.76,2.3,1.91,5.12,3.2,7.84,4.39,3.58,1.54,7.44,2.56,11.32,2.95,3.74.42,7.61.3,11.32.99,2.77.45,5.31,1.88,7.84,3.02,3.33,1.51,6.84,2.84,10.45,3.47,5.21.98,10.59.25,15.67-1.07,4.47-1.56,8.8-.65,13.06,1.09,2.31.87,4.64,2.01,6.97,2.82,1.39,0,2.96,0,4.35,0,5.79,0,11.62,0,17.41,0,2.29,0,4.68,0,6.97,0,3.17-.84,6.41-1.75,9.58-2.62,2.87-.73,5.78-1.73,8.71-2.23,2.28-.32,4.71-.17,6.97.29"/><path class="b" d="M8.49,67.46c6.81-2.54,11.02-8.59,16.54-12.92,8.09-6.3,14.04.12,20.03,5.59,1.79,1.67,3.99,3.02,6.1,4.25,2.49,1.49,5.14,2.91,7.84,3.98,5.26,2.23,11.07,2.5,16.54,3.91,4,1.11,7.4,3.8,11.32,5.15,1.6.81,3.48.79,5.22.74,1.99,0,4.1,0,6.09,0,5.5-.05,11.06.18,16.54-.27,6.36.48,12.78.21,19.16.27,10.15,0,20.32,0,30.48,0,1.43.08,2.97-.48,4.35-.79,2.29-.55,4.66-1.26,6.97-1.79,2.55-.5,5.28-.42,7.84.01"/><path class="b" d="M8.49,64.32c14.01-6.34,18.5-27.36,33.96-11.76,2.88,2.96,6.13,5.6,9.58,7.88,3.29,2.34,6.75,4.6,10.45,6.25,4.46,2.08,9.39,2.96,13.93,4.81.8.34,1.86.86,2.61,1.3.42.32,1.2.69,1.74.64,3.46,0,6.99,0,10.45,0,8.12,0,16.26,0,24.38,0,17.99,0,35.99,0,53.99,0,1.99,0,4.1,0,6.1,0,2.54-.54,5.25-.67,7.84-.54"/><path class="b" d="M8.49,61.18c4.26-2.56,8.04-6,11.32-9.72,7.56-8.71,12.94-13.75,22.64-4.02,2.68,2.71,5.6,5.3,8.71,7.51,3.35,2.61,6.77,5.29,10.45,7.42,4.36,2.63,9.3,4.16,13.93,6.22,4.31.31,8.73.03,13.06.12,7.54,0,15.1,0,22.64,0,6.95,0,13.94,0,20.9,0,2.29,0,4.68.02,6.97-.01,1.38-.26,2.95-.45,4.35-.45,1.71-.02,3.54.25,5.22.46,3.46,0,6.99,0,10.45,0,8.12,0,16.26,0,24.38,0"/><path class="b" d="M8.49,57.57c4.84-3.26,9.22-7.28,13.06-11.67,8.23-9.27,13.34-10.61,22.64-1.68,2.66,2.55,5.82,4.65,8.71,6.94,4.35,3.44,8.91,6.76,13.93,9.16,1.68.82,3.52,1.63,5.22,2.39,1.37.6,2.79,1.51,4.35,1.28,12.47,0,24.97,0,37.44,0,6.08,0,12.2,0,18.29,0,3.76-.67,7.43-2.31,11.32-2.33,2.34-.04,4.76.5,6.97,1.25,1.09.32,2.33,1.03,3.48,1.08,9.86,0,19.74,0,29.6,0"/><path class="b" d="M8.49,53.63c3.25-2.16,6.51-4.48,9.58-6.88,2.37-2,4.6-4.36,6.97-6.38,9.04-7.94,14.41-3.8,22.64,2.3,6.76,4.45,12.8,10.04,20.03,13.78,1.68.92,3.53,1.85,5.22,2.74,2.28.15,4.68.03,6.97.07,9.28,0,18.58,0,27.86,0,4.91-.09,9.91.19,14.8-.12,3.79-.74,7.6-1.76,11.32-2.8,3.4-.89,6.9-1.99,10.45-2.04,3.08.08,6.05,1.36,8.71,2.83.78.44,1.85,1.07,2.61,1.54,0,0,.87.55.87.55,0,0,.87.04.87.04,8.7,0,17.42,0,26.12,0"/><path class="b" d="M8.49,48.79c4.59-2.72,9.7-4.65,13.93-7.96,8.3-6.3,13.96-8.57,23.51-2.97,6.89,3.5,12.64,8.82,19.16,12.91,1.96,1.26,4.08,2.51,6.09,3.67,1.98.19,4.1.04,6.1.09,12.18,0,24.39,0,36.57,0,7.82-1.6,15.71-3.21,23.51-4.95,2.27-.46,4.65-1.07,6.97-1.22,5.26-.06,9.81,3.22,13.93,6.11,8.4.17,16.85,0,25.25.06"/><path class="b" d="M8.49,43.05c2.23-.9,4.62-1.69,6.97-2.23,2.39-.41,4.78-1.18,6.97-2.23,9-4.46,15.43-7.26,25.25-2.88,4.73,1.99,8.84,5.26,13.06,8.11,3.12,2.03,6.2,4.41,9.58,5.99,3.17,0,6.41,0,9.58,0,12.18,0,24.39,0,36.57,0,5.12-1.41,10.43-2.08,15.67-2.85,4.07-.55,8.15-1.45,12.19-2.15,3.28-.36,6.63.58,9.58,1.98,7.33,3.75,3.5,2.97,12.19,3.02,5.79,0,11.62,0,17.41,0"/><path class="b" d="M8.49,36.97c1.97-.45,4.08-.73,6.1-.76,2.6.06,5.29.19,7.84-.42,4.95-1.04,9.76-2.93,14.8-3.5,10.46-1.46,17.73,4.27,26.12,9.38,1.99,1.12,3.97,2.58,6.1,3.42,2.29,0,4.68,0,6.97,0,5.5,0,11.04,0,16.54,0,8.99,0,18,0,26.99,0,4.91-.09,9.9.2,14.8-.14,2-.21,4.12-.51,6.1-.91,2.83-.67,5.77-1.38,8.71-1.22,3.59.02,7.04,1.32,10.45,2.27,7.83,0,15.68,0,23.51,0"/><path class="b" d="M8.49,31.64c3.51-.41,7.01.28,10.45.87,2.29.24,4.69.09,6.97-.21,13.59-2.2,19.34-4.22,32.22,2.7,3.45,1.73,6.96,3.5,10.45,5.16,2.25.4,4.68.08,6.97.18,3.75,0,7.57,0,11.32,0,20.6,0,41.22,0,61.82,0,7.25,0,14.52,0,21.77,0,2.29,0,4.68,0,6.97,0,.76,0,1.85,0,2.61,0,1.11-.16,2.41-.6,3.48-.91"/><path class="b" d="M8.49,26.32c2-.09,4.13.03,6.09.42,1.72.34,3.5,1,5.22,1.33,2.84.58,5.82.78,8.71.74,15.67-.53,19.54-2.97,34.83,3.93,2.01.85,4.11,1.79,6.1,2.69,2.54.43,5.26.07,7.84.18,5.79,0,11.62,0,17.41,0,16.83,0,33.67,0,50.5,0,4.63,0,9.31,0,13.93,0,3.17-.06,6.43.17,9.58-.23,5.02-.52,9.88-2.17,14.8-3.23"/><path class="b" d="M8.49,21.45c3.59-.21,7.16.58,10.45,1.99,3.37,1.26,6.89,2.38,10.45,2.94,4.31.7,8.76.49,13.06-.21,4.02-.62,8.1-1.78,12.19-1.18,3.61.44,7.15,1.67,10.45,3.17,1.11.5,2.4,1.14,3.48,1.7.77.38,1.72,1.06,2.61,1.03,15.67,0,31.35,0,47.02,0,14.8,0,29.61,0,44.41,0,6.99-2.17,13.87-4.78,20.9-6.81"/><path class="b" d="M8.49,18.15c7.1-.1,11.29,3.27,17.41,5.98,2.73,1.15,5.7,2.21,8.71,2.03,2.64.11,5.34-.07,7.84-1.02,3.55-1.09,6.78-3.24,10.45-3.96,5.16-1.11,10.41.78,14.8,3.42.78.46,1.81,1.13,2.61,1.55,1.99,0,4.1,0,6.09,0,12.18,0,24.39,0,36.57,0,16.54,0,33.09,0,49.63,0,3.03-.94,5.82-2.79,8.71-4.1,4.03-1.85,8.14-3.68,12.19-5.47"/><path class="b" d="M8.49,16.52c2.64.45,5.38.99,7.84,2.09,1.79.75,3.45,2.06,5.22,2.83,8.7,0,17.42,0,26.12,0,7.44-5.43,13.34-5.6,20.9-.3,1.04.48,2.38.24,3.48.3,1.7,0,3.53,0,5.22,0,16.83,0,33.67,0,50.5,0,12.18,0,24.39,0,36.57,0,2.77-1.05,5.23-3,7.84-4.39,3.87-1.95,7.62-4.24,11.32-6.49"/></svg>