<?xml version="1.0" encoding="UTF-8"?><svg id="a" xmlns="http://www.w3.org/2000/svg" width="1920" height="2400" viewBox="0 0 192 240"><defs><style>.b{fill:none;stroke:#fff;stroke-miterlimit:10;stroke-width:.4px;}.c{stroke-width:0px;}</style></defs><rect class="c" width="192" height="240"/><path class="b" d="M7.59,227.79c2.03-.42,4.14-1.01,6.16-1.48,1.72-.4,3.61-.61,5.28-1.21,4-1.38,8-3.36,12.32-3.38,5.46-.12,10.21,2.99,14.95,5.27,5.32,2.06,10.79,5.42,16.71,4.27,11.85-2.53,16.79-16.72,30.79-10.97,5.6,2.19,10.3,6.22,15.83,8.54,3.73,1.26,7.62,2.29,11.44,3.28,4.36.29,8.82.03,13.19.11,9.11.54,15.49-8.3,22.87-12.36,6.17-3.71,11.77-3.14,18.47-1.53,3.1.45,6.16-.96,8.8-2.44"/><path class="b" d="M7.59,220.44c2.02-.46,4.12-1.04,6.16-1.42,1.71-.31,3.59-.33,5.28-.76,4.02-.98,8.11-2.44,12.32-2.06,5.14.37,9.6,3.25,14.07,5.53,5.52,2.29,11.45,5.48,17.59,4.16,6.5-1.44,11.18-6.62,16.71-9.94,4.04-2.53,9.15-1.85,13.19.31,4.03,2.02,7.64,4.89,11.44,7.31,3.97,2.67,8.37,4.25,13.19,3.88,4.67,0,9.4,0,14.07,0,4.68-.84,9.16-2.98,13.19-5.47,4.43-2.95,8.42-6.68,13.19-9.1,5.69-3.08,11.45-2.64,17.59-1.54,3.21.24,6.21-1.51,8.8-3.21"/><path class="b" d="M7.59,214.05c2-.51,4.11-1.08,6.16-1.33,1.71-.21,3.57,0,5.28-.24,4.35-.56,8.81-1.58,13.19-.76,5.39.88,10,4.07,14.95,6.13,14.37,5.82,18.75,1.91,30.79-5.58,5.02-3.33,10.28-1.42,14.95,1.49,4.67,2.82,9,6.39,14.07,8.52,1.31.65,2.99.33,4.4.4,2.01,0,4.15,0,6.16,0,3.49-.04,7.06.08,10.56-.05,4.84-.95,9.65-2.46,14.07-4.67,3.68-1.84,7.06-4.33,10.56-6.47,4.03-2.51,8.47-4.62,13.19-5.37,8.88-1.4,10.34,1.72,18.47-4.82"/><path class="b" d="M7.59,209.11c1.99-.49,4.1-1.02,6.16-1.15,1.72-.11,3.55.28,5.28.22,3.5-.06,7.06-.52,10.56-.21,5.3.37,10.19,2.67,14.95,4.84,11.99,5.37,19.03,2.69,29.91-3.19,2.97-1.44,6.29-3.22,9.68-2.28,5.51,1.51,9.93,5.51,14.95,8.08,2.19,1.04,4.55,2.48,7.04,2.47,4.67,0,9.4,0,14.07,0,5.57-.62,11.21-1.15,16.71-2.23,5.04-.95,9.51-3.66,14.07-5.85,4.24-2.08,8.65-3.99,13.19-5.32,4-1.28,8.25-1.78,12.32-2.74,2.98-1.1,5.5-3.29,7.92-5.28"/><path class="b" d="M7.59,205.48c1.99-.43,4.11-.87,6.16-.91,2.03,0,4.12.56,6.16.55,5.29.06,10.7-.13,15.83,1.38,10.29,2.96,15.04,7.7,26.39,3.72,4.19-1.4,8.17-3.51,12.32-5.04,4.16-1.55,7.4-2.1,11.44.17,5.41,2.77,10.43,7.29,16.71,7.77,2.31-.04,4.73.1,7.04-.08,4.65-.76,9.34-1.75,14.07-1.68,4.4-.02,8.8.83,13.19.98,3.38.24,6.57-.92,9.68-2.09,3.18-1.08,6.48-2.09,9.68-3.11,5.6-1.77,11.17-3.77,16.71-5.73,4.51-1.13,8.04-4.32,11.44-7.32"/><path class="b" d="M7.59,202.4c2.29-.41,4.7-.86,7.04-.76,2.01.2,4.13.57,6.16.57,6.21,0,12.54.24,18.47,2.26,3.23.98,6.41,2.36,9.68,3.22,7.49,1.6,14.4-2.82,21.11-5.45,13.98-5.88,14.83,1.66,26.39,5.82,1.06.41,2.41.24,3.52.27,1.41,0,2.99,0,4.4,0,2.4-.07,4.74-1.25,7.04-1.84,5.12-1.64,10.71-1.83,15.83-.12,1.74.53,3.58,1.23,5.28,1.88.77.11,1.86.08,2.64.08,4.08,0,8.23,0,12.32,0,2.62,0,5.35.15,7.92-.48,6.77-1.15,13.16-3.82,19.35-6.71,3.71-1.62,6.62-4.7,9.68-7.27"/><path class="b" d="M7.59,198.5c2.3-.43,4.69-.95,7.04-1,2.02.06,4.14.25,6.16.16,3.5-.09,7.07-.24,10.56.18,3.28.37,6.56,1.22,9.68,2.29,2.91.93,5.79,2.27,8.8,2.86,7.91,1.08,14.76-4.14,21.99-6.41,8.08-2.67,11.08-.41,17.59,3.99,2.16,1.23,4.43,3.13,7.04,3.01,2.01,0,4.14,0,6.16,0,1.41-.06,3.07.21,4.4-.38,3.93-1.51,8.01-3.24,12.32-2.95,2.39.12,4.83.78,7.04,1.7.79.33,1.87.82,2.64,1.21.37.28,1.29.53,1.76.43,7.32,0,14.67,0,21.99,0,5.85,0,11.74,0,17.59,0,1.18.15,2.48-.46,3.52-.96,4.1-1.61,7.27-4.91,10.56-7.74"/><path class="b" d="M7.59,193.15c2.31-.28,4.71-.69,7.04-.83,1.72-.06,3.57-.04,5.28-.21,5.54-.55,11.21-1.1,16.71.06,3.9.75,7.69,2.16,11.44,3.43,7.39,2.44,14.88-.91,21.99-2.79,8.28-2.15,11.54-1.21,18.47,3.48,1.38.86,2.92,1.82,4.4,2.51.44,0,1.32,0,1.76,0,4.38,0,8.81,0,13.19,0,1.11-.02,2.47.13,3.52-.32,1.66-.51,3.53-.83,5.28-.84,1.42,0,3.01.19,4.4.53,1.38.46,2.94.75,4.4.63,10.25,0,20.53,0,30.79,0,5.56,0,11.16,0,16.71,0,2.3-.12,4.79.28,7.04-.22,1.44-1.14,3-2.49,4.4-3.69"/><path class="b" d="M7.59,187.31c3.8-.19,7.66-.4,11.44-.86,4.09-.61,8.18-1.59,12.32-1.88,3.81-.3,7.72.03,11.44.95,2.96.67,5.84,1.92,8.8,2.59,6.64,1.62,13.52.68,20.23.13,6.54-.53,10.16.2,15.83,3.49,1.4.75,2.96,1.59,4.4,2.26.44.02,1.32.04,1.76.03,4.09,0,8.23,0,12.32,0,17,0,34.02,0,51.02,0,5.85,0,11.74,0,17.59,0,2.01,0,4.15,0,6.16,0,1.1-.05,2.47.17,3.52-.27"/><path class="b" d="M7.59,181.77c4.11,0,8.32-.16,12.32-1.18,7.47-1.91,15.01-5.12,22.87-4.01,3.65.44,7.08,2.03,10.56,3.15,3.98,1.34,8.14,2.37,12.32,2.88,6.13.86,12.58.27,18.47,2.43,3.82,1.32,7.53,3.16,11.44,4.2,3.79,0,7.65,0,11.44,0,25.8,0,51.61,0,77.41,0"/><path class="b" d="M7.59,177.03c9.59-.22,13.47-2,21.99-5.75,4.95-2.09,10.4-4.05,15.83-3.03,2.74.54,5.36,1.84,7.92,2.91,4.53,2,9.2,3.89,14.07,4.86,4.62.99,9.43,1.1,14.07,1.94,9.1,1.87,17.98,4.98,27.27,5.9,1.41.19,3.01.24,4.4.58,2.61.05,5.31,0,7.92.02,5.26,0,10.57,0,15.83,0,15.83,0,31.67,0,47.5,0"/><path class="b" d="M7.59,173.28c4.76-.85,9.69-1.4,14.07-3.59,6.42-2.87,12.31-7.35,19.35-8.6,4.68-.95,9.04,1.42,13.19,3.23,4.49,2.02,9.19,3.77,14.07,4.51,3.76.62,7.66.68,11.44,1.16,7.07.91,14.14,2.08,21.11,3.56,3.78.81,7.64,1.58,11.44,2.31,2.55.71,4.87,2.3,7.04,3.79,21.69.09,43.4,0,65.09.03"/><path class="b" d="M7.59,169.87c4.95-1.85,10.3-2.71,14.95-5.3,6.5-3.18,12.77-7.95,20.23-8.36,2.76-.16,5.41.89,7.92,1.91,2.85,1.11,5.81,2.19,8.8,2.88,5.46,1.37,11.14,1.02,16.71,1,2.63.01,5.31.5,7.92.72,3.49.33,7.06.58,10.56.91,6.17.67,12.46,1.25,18.47,2.78,3.23,1.27,6.01,3.58,8.8,5.58,4.91,3.59,3.73,2.88,9.68,2.91,4.38,0,8.82,0,13.19,0,13.19,0,26.4,0,39.58,0"/><path class="b" d="M7.59,165.23c4.63-2.91,10.13-3.95,14.95-6.45,7.52-3.67,16.13-8.52,24.63-5.21,6.38,2.9,13.19,4.67,20.23,3.91,3.2-.24,6.46-.78,9.68-.79,3.5.18,7.05.72,10.56.32,7.61-.56,15.19-2.95,22.87-1.99,3.61.38,6.75,2.56,9.68,4.54,3.86,2.65,7.79,5.53,12.32,6.93,2.52.78,5.29,1.02,7.92.71,3.19-.46,6.42-1.41,9.68-.98,2.4.24,4.84,1,7.04,1.98,1.45.53,2.86,1.74,4.4,1.94,7.61,0,15.26,0,22.87,0"/><path class="b" d="M7.59,160.39c2.9-2.14,6.23-3.74,9.68-4.77,2.37-.86,4.74-1.98,7.04-3,21.62-10.06,22.01,4.44,40.46,2.15,3.81-.45,7.6-1.53,11.44-1.81,1.72-.16,3.56.12,5.28.25,2.03.1,4.18-.14,6.16-.58,7.24-1.5,13.66-6.1,21.11-6.68,4.48-.25,8.55,2.14,12.32,4.27,4.21,2.43,8.49,5.03,13.19,6.38,3.4,1.05,7.04,1.12,10.56.88,2.66-.01,5.4.52,7.92,1.38,4.32,1.48,8.3,3.87,12.32,5.99.65.53,1.84.53,2.64.49,1.4,0,2.99,0,4.4,0,4.08,0,8.23,0,12.32,0"/><path class="b" d="M7.59,156.28c1.9-1.29,4.02-2.48,6.16-3.31,2-.75,4.2-1.28,6.16-2.16,5.79-2.53,11.98-5.57,18.47-4.32,3.44.6,6.69,2.17,9.68,3.94,2.67,1.56,5.71,2.67,8.8,2.94,6.38.65,12.33-2.29,18.47-3.41,2.6-.56,5.3.1,7.92-.06,8.47-.46,15.12-6.49,22.87-9.16,3.46-1.28,7.19-.41,10.56.75,6.55,2.24,12.7,5.66,19.35,7.65,2.83.9,5.85,1.39,8.8,1.72,2.36.37,4.78,1.05,7.04,1.82,7.58,2.54,14.78,6.76,22.87,7.43,3.2.19,6.48-.1,9.68-.33"/><path class="b" d="M7.59,153.45c1.95-.94,4.08-1.76,6.16-2.35,2.36-.59,4.83-1.17,7.04-2.21,6.57-3.05,13.05-5.9,20.23-2.9,7.83,3.24,10.53,8.26,20.23,5.9,5.74-1.37,10.8-5.08,16.71-5.78,2.01-.12,4.15.18,6.16-.04,3.33-.27,6.63-1.28,9.68-2.62,5.65-2.26,11.25-6.91,17.59-6.38,6.59.93,13.08,2.61,19.35,4.82,3.2,1.1,6.44,2.32,9.68,3.32,2.3.71,4.75,1.26,7.04,2,5.21,1.65,10.46,3.43,15.83,4.47,6.95,1.36,14.06,1.88,21.11,2.38"/><path class="b" d="M7.59,151.03c2.61-.03,5.31.07,7.92-.05,5.33-.63,9.81-4.09,14.95-5.39,3.45-.97,7.22-.81,10.56.49,3.16,1.11,5.87,3.27,8.8,4.84,2,.25,4.15.06,6.16.11,1.11,0,2.41,0,3.52,0,.85-.12,1.88-.63,2.64-1,5.66-2.72,10.39-7.72,16.71-8.89,2.31-.18,4.73-.14,7.04-.37,3.58-.3,7.16-1.12,10.56-2.27,4.59-1.45,9.15-3.83,14.07-3.72,2.02.2,4.14.52,6.16.72,4.73.5,9.5,1.26,14.07,2.62,7.67,2.35,15.14,5.43,22.87,7.59,5.71,1.65,11.7,2.13,17.59,2.68,4.4.52,8.81,1.43,13.19,2.09"/><path class="b" d="M7.59,146.26c18.76,0,37.54,0,56.3,0,1,.12,2.01-.21,2.64-1,1.11-1.01,2.41-2.24,3.52-3.25,3.27-2.97,6.84-6.25,11.44-6.7,4.08-.66,8.26-1.12,12.32-1.95,4.09-.78,8.17-1.94,12.32-2.44,3.83-.54,7.67.53,11.44,1.11,10.29,1.57,19.98,5.52,29.91,8.46,7.12,2.3,14.57,3.35,21.99,4.17,2.64.32,5.35.9,7.92,1.59,2.31.02,4.73,0,7.04,0"/><path class="b" d="M7.59,141.48h61.58c7.73-8.66,8.44-9.1,19.35-12.98,6.19-2.12,12.73-4.11,19.35-3.55,3.01.27,5.96,1.34,8.8,2.34,8.11,3.03,16.16,6.39,24.63,8.28,8.66,2.14,17.54,3.18,26.39,4.15,2.95.33,5.92,1.07,8.8,1.76,2.61,0,5.31,0,7.92,0"/><path class="b" d="M7.59,136.71h65.09c2.15-2.46,4.33-5.15,7.04-7.02,3.54-2.38,6.94-5.09,10.56-7.34,9.28-5.97,17.01-5.94,26.39-.27,6.28,3.68,12.88,7.26,20.23,8.06,9.4.96,18.85,1.9,28.15,3.61,4.16.68,8.26,1.88,12.32,2.95,2.31,0,4.73,0,7.04,0"/><path class="b" d="M7.59,131.93c14.66,0,29.33,0,43.98,0,5.26,0,10.57,0,15.83,0,1.71,0,3.57,0,5.28,0,1.11-.05,2.47.17,3.52-.26,1.81-2.21,4.15-4.12,6.16-6.14,2.62-2.65,5.19-5.55,7.92-8.1,8.83-8.47,15.82-8.29,25.51-1.28,5.22,3.7,10.95,7.56,17.59,7.53,3.52.09,7.05-.73,10.56-.76,6.96-.07,13.75,1.98,20.23,4.33,4.33,1.68,8.83,3.06,13.19,4.63,2.31.08,4.73.02,7.04.04"/><path class="b" d="M7.59,127.15h70.37c7.78-6.02,14.37-22.28,25.51-21.86,5.83.54,10.25,4.97,14.95,8,5.67,3.92,11.11,4.8,17.59,2.31,2.84-.98,5.75-2.27,8.8-2.33,10.08-.11,17.78,7.59,26.39,11.72,1.93.91,4.07,1.73,6.16,2.17,2.31,0,4.73,0,7.04,0"/><path class="b" d="M7.59,122.38h70.37c8.27-6.92,15.89-25.58,29.03-19.41,4.9,2.28,8.9,6.35,14.07,8.07,10.85,3.57,16.51-7.68,25.51-6.66,10.79,1.87,17.5,13.66,27.27,17.9,3.48.24,7.06.03,10.56.09"/><path class="b" d="M7.59,117.6h69.49c8.94-6.67,16.75-21.68,29.91-15.05,4.56,2.18,8.79,5.77,14.07,5.87,10.61.41,17.01-12.3,26.39-9.52,6.29,1.9,11,6.93,15.83,11.11,3.25,2.79,6.52,6,10.56,7.59,3.5,0,7.06,0,10.56,0"/><path class="b" d="M7.59,112.83h69.49c9.41-6.52,17.42-15.26,29.91-10.43,4.57,1.74,8,4.23,13.19,3.24,4.85-.85,9.04-3.73,13.19-6.21,3.66-2.23,7.91-4.52,12.32-3.36,10.98,2.82,18.61,12.45,29.03,16.55,1.06.34,2.42.17,3.52.21,2.01,0,4.15,0,6.16,0"/><path class="b" d="M7.59,108.05c15.83,0,31.67,0,47.5,0,5.26,0,10.57,0,15.83,0,2.3-.1,4.77.23,7.04-.18,1.4-.78,2.97-1.62,4.4-2.33,7.8-3.93,16.77-6.61,25.51-4.74,1.75.32,3.54,1.05,5.28,1.42,2.64.47,5.42-.09,7.92-.96,6.12-2.11,11.83-6.03,18.47-6.23,4.29-.02,8.35,1.88,12.32,3.31,4.95,1.96,9.95,3.96,14.95,5.78,2.01.74,4.16,1.53,6.16,2.31,1.41.5,2.92,1.34,4.4,1.62,2.31,0,4.73,0,7.04,0"/><path class="b" d="M7.59,103.27c15.83,0,31.67,0,47.5,0,7.61,0,15.26,0,22.87,0,4.05-1.19,8.18-2.39,12.32-3.29,5.24-1.18,10.46-2.81,15.83-3.28,1.41-.1,3-.08,4.4.14,1.69.38,3.56.59,5.28.31,6.43-1.13,12.67-4.41,19.35-3.2,4.35.59,8.25,2.83,12.32,4.31,4.49,1.65,9.31,2.35,14.07,2.49,3.8.16,7.74.1,11.44,1.14,1.13.32,2.43.89,3.52,1.33,2.6.13,5.31.02,7.92.06"/><path class="b" d="M7.59,98.5c21.99,0,43.99,0,65.97,0,1.41-.02,2.99.06,4.4-.07,1.41-.27,2.98-.57,4.4-.78,3.52-.5,7.13-1.03,10.56-2,5.04-1.31,9.79-3.81,14.95-4.61,2.61-.41,5.3.53,7.92.09,5.66-.84,11.21-2.03,16.71.35,3.1,1.23,5.99,3.12,8.8,4.9,1.62.93,3.29,2.42,5.28,2.13,12.6,0,25.22,0,37.83,0"/><path class="b" d="M7.59,93.72c19.35,0,38.71,0,58.06,0,2.31-.04,4.73.1,7.04-.08,1.68-.5,3.54-.87,5.28-1.13,4.08-.62,8.29-.87,12.32-1.82,6.01-1.22,11.51-4.44,17.59-5.33,1.73-.25,3.58.14,5.28.42,1.4.17,2.99.21,4.4.24,8.23-.14,13.85,2.73,20.23,7.65,15.53.15,31.09,0,46.62.05"/><path class="b" d="M7.59,88.94c20.23,0,40.47,0,60.7,0,.45,0,1.31,0,1.76,0,.79-.37,1.84-.94,2.64-1.3,1.37-.63,2.95-1.22,4.4-1.63,2.87-.77,5.91-1.16,8.8-1.85,3.24-.72,6.51-1.66,9.68-2.64,9.77-2.98,12.23-3.76,21.99-.07,4.48,1.63,8.61,4.24,12.32,7.21,1.04.45,2.41.23,3.52.28,1.41,0,2.99,0,4.4,0,15.54,0,31.09,0,46.62,0"/><path class="b" d="M7.59,84.17c20.81-.09,41.66.18,62.46-.1,2.69-2.02,5.62-3.93,8.8-5.1,4.09-1.31,8.19-2.76,12.32-3.96,12.59-3.74,21.25-2.01,30.79,7.13.44.41,1.33,1.25,1.76,1.67,1.3.67,2.99.26,4.4.36,2.61,0,5.31,0,7.92,0,16.12,0,32.26,0,48.38,0"/><path class="b" d="M7.59,79.39c16.42,0,32.85,0,49.26,0,3.2,0,6.48,0,9.68,0,1.1,0,2.42,0,3.52,0,.92-.36,1.88-1.31,2.64-1.92,3.12-2.69,6.78-4.71,10.56-6.31,4.12-1.9,8.59-3.52,13.19-3.41,4.32.06,8.49,1.62,12.32,3.52,4.12,1.77,7.62,4.72,10.56,8.07,21.69.14,43.4,0,65.09.05"/><path class="b" d="M7.59,74.62h63.33c2.96-2.11,5.61-4.85,8.8-6.67,4.72-2.85,10.14-5.78,15.83-4.57,6.06,1.24,10.73,5.68,15.83,8.85,3.8,2.54,2.2,2.47,7.04,2.38,3.5,0,7.06,0,10.56,0,18.47,0,36.95,0,55.42,0"/><path class="b" d="M7.59,69.84c17,0,34.02,0,51.02,0,2.9,0,5.89,0,8.8,0,4.16-.04,3.72.56,7.04-2.22,15.4-12.16,20.3-10.51,34.31,2.09,3.18.3,6.48.04,9.68.12,5.56,0,11.16,0,16.71,0,16.42,0,32.85,0,49.26,0"/><path class="b" d="M7.59,65.06c14.66,0,29.33,0,43.98,0,4.38,0,8.81,0,13.19,0,2.3-.12,4.8.28,7.04-.22,3.48-2.24,6.88-4.78,10.56-6.7,4.79-2.69,10.11-3.19,14.95-.33,2.19,1.22,4.27,2.87,6.16,4.5,1.1.86,2.19,2.24,3.52,2.75,8.2,0,16.43,0,24.63,0,17.59,0,35.19,0,52.78,0"/><path class="b" d="M7.59,60.29c14.66,0,29.33,0,43.98,0,4.38,0,8.81,0,13.19,0,2.3-.12,4.78.27,7.04-.22,3.4-2.05,6.88-4.14,10.56-5.67,4.69-2.2,10.21-2.84,14.95-.42,2.17,1.02,4.27,2.48,6.16,3.96,1.11.72,2.14,2.21,3.52,2.35,8.2,0,16.43,0,24.63,0,17.59,0,35.19,0,52.78,0"/><path class="b" d="M7.59,55.51c16.71,0,33.43,0,50.14,0,2.9,0,5.89,0,8.8,0,1.41,0,2.99,0,4.4,0,.87-.22,1.87-.91,2.64-1.34,4.06-2.41,8.71-3.67,13.19-5.01,8.74-2.52,15.29,1.02,21.99,6.35h75.65"/><path class="b" d="M7.59,50.74c16.71,0,33.43,0,50.14,0,3.2,0,6.48,0,9.68,0,1.1,0,2.42,0,3.52,0,1.14-.56,2.38-1.42,3.52-1.99,2.15-1.2,4.64-1.75,7.04-2.16,1.74-.41,3.58-1.01,5.28-1.56,11.63-4.07,17.35-2.27,26.39,5.71,14.95,0,29.91,0,44.86,0,4.97,0,9.99,0,14.95,0,2.31,0,4.73,0,7.04,0,1.44-.17,2.96-.81,4.4-.99"/><path class="b" d="M7.59,45.96c16.42,0,32.85,0,49.26,0,3.2,0,6.48,0,9.68,0,1.41,0,2.99,0,4.4,0,.85-.31,1.85-1.03,2.64-1.46,1.33-.74,2.91-1.4,4.4-1.72,1.09-.23,2.42-.23,3.52-.44,2.42-.46,4.8-1.47,7.04-2.47,5.99-2.83,13.1-5.92,19.35-2.06,3.35,1.99,5.9,5.17,8.8,7.73.69.54,1.82.45,2.64.43,1.1,0,2.42,0,3.52,0,3.2,0,6.48,0,9.68,0,6.44,0,12.91,0,19.35,0,7.61-.07,15.27.14,22.87-.08,3.07-1.75,6.24-3.58,9.68-4.5"/><path class="b" d="M7.59,41.18c14.95,0,29.91,0,44.86,0,4.38,0,8.81,0,13.19,0,2.31-.09,4.76.2,7.04-.16,1.61-.92,3.46-1.73,5.28-2.1,1.41-.26,3.02-.24,4.4-.67,3.45-1.01,6.57-3.03,9.68-4.79,5.91-3.53,12.57-6.06,18.47-1.02,2.34,2.06,4.62,4.42,7.04,6.4,1.05.79,2.21,1.99,3.52,2.34,5.56,0,11.16,0,16.71,0,8.49,0,17.02,0,25.51,0,1.41-.07,3.04.19,4.4-.22,1.71-1.16,3.53-2.47,5.28-3.56,3.58-2.03,7.4-3.98,11.44-4.89"/><path class="b" d="M7.59,36.41c16.12,0,32.26,0,48.38,0,6.14,0,12.33,0,18.47,0,.84.12,1.85-.35,2.64-.57,1.08-.31,2.41-.5,3.52-.66,5.14-1.11,9.44-4.47,14.07-6.78,6.23-3.35,12.22-3.8,17.59,1.38,5.03,4.22,9.92,7.21,16.71,6.63,3.88.23,7.63-1.23,11.44-1.71,3.21-.48,6.49.27,9.68.56,2.92.29,5.98.13,8.8-.72,4.75-1.37,8.83-4.38,13.19-6.59,1.61-.84,3.53-1.35,5.28-1.84,2.27-.66,4.68-1.3,7.04-1.51"/><path class="b" d="M7.59,31.63c17.59,0,35.19,0,52.78,0,4.67,0,9.4,0,14.07,0,2.92-.12,6.05.47,8.8-.78,5.09-1.92,9.73-5.02,14.95-6.61,12.25-3.61,13.01,5.57,23.75,5.6,6.7.08,12.75-3.63,19.35-4.16,2.91-.12,5.88.53,8.8.53,3.58.1,7.22-.61,10.56-1.9,4.13-1.51,7.98-3.98,12.32-4.9,1.39-.28,2.99-.13,4.4-.21,2.31-.11,4.72-.39,7.04-.42"/><path class="b" d="M7.59,26.85c17.3,0,34.6,0,51.9,0,7.91,0,15.84,0,23.75,0,1.5-.19,3-1.04,4.4-1.56,2.3-.96,4.69-1.99,7.04-2.82,17.46-6.11,15.05,5.68,29.03.6,5.76-2.03,11.31-5.48,17.59-5.44,2.32.09,4.71.66,7.04.68,3.56.14,7.18-.51,10.56-1.61,5.12-1.48,10.37-4.67,15.83-3.23,3.06,1.15,6.44,1.29,9.68,1.41"/><path class="b" d="M7.59,22.08c24.33,0,48.68,0,73.01,0,2.03-.09,4.27.35,6.16-.58,3.75-1.43,7.54-2.97,11.44-3.95,3.13-.78,6.48-1.16,9.68-.57,1.47.26,3.03.86,4.4,1.43,3.26,1.09,6.73-.21,9.68-1.63,6.05-3.01,12.28-7.19,19.35-6.28,2.31.34,4.68,1.02,7.04,1.03,3.87.14,7.74-.79,11.44-1.87,16.1-5.06,11.94,1.42,24.63,2.62"/></svg>