<?xml version="1.0" encoding="UTF-8"?><svg id="a" xmlns="http://www.w3.org/2000/svg" width="1920" height="2400" viewBox="0 0 192 240"><defs><style>.b,.c{stroke-width:0px;}.c{fill:#f63;}</style></defs><rect class="b" x="0" width="192" height="240"/><path class="c" d="M8.37,227.04c2.82.19,6.13-.11,8.72,1.12,3.84-1.46,8.16-1.24,12.21-1.3,1.4.03,2.97.11,4.36.31.82.09,1.78.67,2.62.39,3.5-1.71,26.87-2.87,29.65-.67,1.42-1.15,3.5-1.16,5.23-1.46,2.57-.32,5.26-.51,7.85-.62,5.04-.09,15.93-.58,20.06,1.83,2.47-2.18,12.1-2.29,15.7-2.55,8.42-.32,16.88.02,25.29.61,5.8.4,11.63,1.01,17.44,1.22,8.71.29,17.45.11,26.16.22"/><path class="c" d="M8.37,224.99c2.88-.02,5.85.04,8.72.36,1.13.03,2.36.68,3.49.57,3-.99,11.14-1.26,13.95.12,2.43-2.11,25.13-3.08,27.9-1.28,4.7-2.32,30.67-3.21,34.88-.37.49-.06,1.33-.39,1.74-.64,1.07-.37,2.37-.64,3.49-.82,4.6-.72,9.31-.98,13.95-1.13,9.89-.28,19.8.33,29.65,1.18,12.45,1.35,25,.95,37.5.85"/><path class="c" d="M8.37,222.99c3.17-.16,6.42-.14,9.59.04,2.3.23,4.89.15,6.98,1.25,1.26-.73,2.95-.63,4.36-.67,1.43.03,3.07.1,4.36.76,2.01-1.3,4.67-1.27,6.98-1.63,3.16-.33,6.41-.52,9.59-.56,2,.02,4.15-.06,6.1.42,1.13.15,2.35-.57,3.49-.64,8.65-1.14,17.44-1.57,26.16-1.28,2,.08,4.12.22,6.1.47,1.49.24,3.35.35,4.36,1.61,1.06-1.23,2.86-1.48,4.36-1.79,2.27-.41,4.67-.66,6.98-.86,8.98-.76,18.04-.67,27.03-.12,7.85.41,15.69,1.46,23.54,1.85,8.42.29,16.87-.15,25.29-.28"/><path class="c" d="M8.37,221.08c6.06-.69,12.25-.42,18.31.16,1.41.16,2.98.37,4.36.69.81.16,1.76.76,2.62.66,1.05-.38,2.38-.47,3.49-.52,2.03.01,4.14-.13,6.1-.64,2.28-.44,4.68-.81,6.98-1.11,7.22-.96,14.53-1.39,21.8-1.65,4.91-.05,20.22-.7,23.54,1.95,2.12-2.35,13.84-2.65,17.44-2.94,10.76-.55,21.56.04,32.26,1.09,4.92.45,9.88,1.18,14.82,1.28,7.84.06,15.71-.5,23.54-.71"/><path class="c" d="M8.37,219.49c1.58-.78,3.51-.81,5.23-.94,1.99-.11,4.11-.15,6.1-.13,4.64.14,9.48,0,13.95,1.41,1.57-.82,3.52-.89,5.23-1.15,2.58-.31,5.26-.56,7.85-.8,6.37-.57,12.79-1.03,19.18-1.22,5.8-.18,11.64-.24,17.44,0,3.79.27,7.83.17,11.34,1.82.93-.8,2.32-1.11,3.49-1.36,1.69-.34,3.52-.58,5.23-.78,4.62-.51,9.31-.78,13.95-.91,13.12-.3,26.29.82,39.24,2.9,3.45.68,7-.09,10.46-.25,5.51-.35,11.06-.75,16.57-.98"/><path class="c" d="M8.37,216.7c.43.21,1.26.39,1.74.33.43-.17,1.29-.4,1.74-.45,1.09-.16,2.39-.27,3.49-.33,4.05-.22,8.16-.2,12.21.02,1.4.08,2.97.21,4.36.43.79.11,1.81.54,2.62.58,1.59-.76,3.51-.88,5.23-1.14,2.29-.28,4.68-.5,6.98-.69,6.37-.52,12.79-.89,19.18-.98,5.51-.08,11.06-.02,16.57.25,3.8.26,7.78.31,11.34,1.79,1.98-1.39,4.66-1.45,6.98-1.86,3.74-.49,7.57-.78,11.34-.99,8.13-.48,16.31-.32,24.42.35,3.18.26,6.43.58,9.59,1.02,2.01.35,4.27.46,6.1,1.42,2.52-.72,5.25-.64,7.85-.55,2,.18,4.31.06,6.1,1.09,2.43-1.04,5.26-1.01,7.85-1.33,3.17-.27,6.41-.56,9.59-.71"/><path class="c" d="M8.37,214.34c.49.06,1.34.44,1.74.72,1.83-.96,4.09-.95,6.1-1.13,2.58-.16,5.26-.21,7.85-.19,2.29.02,4.69.09,6.98.29,1.43.18,3.16.19,4.36,1.1,1.24-.83,2.92-1.01,4.36-1.24,2.28-.32,4.68-.55,6.98-.74,5.5-.45,11.05-.73,16.57-.83,5.8-.08,11.65.07,17.44.39,4.09.31,8.36.35,12.21,1.89,2-1.35,4.66-1.41,6.98-1.82,3.16-.41,6.41-.7,9.59-.92,8.12-.58,16.3-.63,24.42,0,2.89.21,5.85.49,8.72.87,2.01.32,4.23.49,6.1,1.35,1.12.08,2.36-.52,3.49-.53,2.87-.25,5.84-.22,8.72-.11,1.7.07,3.54.2,5.23.41,1.16.16,2.6.31,3.49,1.16,1.43-1.13,3.51-1.11,5.23-1.41,2.87-.35,5.83-.64,8.72-.82"/><path class="c" d="M8.37,212.11c.49.06,1.35.45,1.74.73,1.83-.98,4.09-1,6.1-1.21,2.87-.21,5.84-.28,8.72-.28,2.59.01,5.27.08,7.85.32,1.44.19,3.22.18,4.36,1.2,1.69-1.28,4.09-1.23,6.1-1.57,3.16-.36,6.41-.6,9.59-.78,8.12-.47,16.3-.46,24.42.08,4.94.46,10.15.35,14.82,2.2,2-1.34,4.67-1.38,6.98-1.79,3.16-.42,6.41-.72,9.59-.96,8.11-.63,16.3-.8,24.42-.13,2.59.2,5.27.46,7.85.82,1.72.3,3.69.45,5.23,1.35,4.79-1.36,9.9-1.02,14.82-.99,2.29.07,4.69.2,6.98.45,1.46.22,3.26.26,4.36,1.37,1.08-1.14,2.9-1.2,4.36-1.49,2.28-.35,4.68-.59,6.98-.78"/><path class="c" d="M8.37,210.01c.42.18,1.29.41,1.74.46,3.47-1.84,25.31-2.09,28.78-.2,4.79-1.38,9.86-1.61,14.82-1.9,6.96-.36,13.98-.36,20.93.17,3.18.23,6.43.55,9.59.96,2.34.31,4.81.66,6.98,1.67,2.01-1.32,4.67-1.33,6.98-1.76,3.16-.43,6.41-.78,9.59-1.06,7.82-.69,15.71-1,23.54-.38,2.3.17,4.69.4,6.98.71,1.73.29,3.7.44,5.23,1.36,5.34-1.54,11.06-1.17,16.57-1.22,2.88.05,5.85.15,8.72.41,1.72.22,3.73.25,5.23,1.22,3.01-1.28,6.37-1.54,9.59-1.88"/><path class="c" d="M8.37,208.08l.87.32c2.69-2.13,29.9-2.6,32.26-.07,1.41-1.17,3.5-1.15,5.23-1.44,2.58-.3,5.26-.48,7.85-.6,7.55-.37,15.16-.24,22.67.7,2.01.25,4.13.56,6.1.98,1.45.35,3.19.62,4.36,1.62.8-.38,1.84-.03,2.62.25,1.18-.97,2.9-1.17,4.36-1.37,1.4-.1,3.05-.38,4.36.26,1.48-1.02,3.51-1.1,5.23-1.45,2.86-.44,5.83-.76,8.72-.99,5.79-.47,11.65-.58,17.44-.11,2,.15,4.12.37,6.1.66,1.43.25,3.1.44,4.36,1.22,2.51-.8,5.22-1.07,7.85-1.19,3.46-.19,7-.25,10.46-.25,3.47.01,7.01.07,10.46.34,2.01.28,4.48.11,6.1,1.51,2.21-1.61,5.25-1.56,7.85-1.98"/><path class="c" d="M8.37,206.1c2.14-.99,4.67-1.02,6.98-1.3,3.17-.27,6.42-.41,9.59-.47,6.4-.05,12.98-.13,19.18,1.48,1.3-.67,2.94-.83,4.36-1.03,2.28-.27,4.68-.43,6.98-.53,4.92-.2,9.91-.23,14.82.19,3.19.35,6.58.5,9.59,1.71.79.29,1.81-.18,2.62-.2,2.31-.1,4.84-.07,6.98.94.94-.76,2.33-1.01,3.49-1.21,1.69-.28,3.53-.44,5.23-.54,3.77-.21,7.64-.22,11.34.61,2.42-1.06,5.25-1.07,7.85-1.35,4.04-.31,8.17-.27,12.21.07,1.7.14,3.54.34,5.23.62,1.15.21,2.55.44,3.49,1.19,2.39-1.17,5.25-1.11,7.85-1.35,3.46-.21,7-.31,10.46-.38,5.51-.07,11.09-.17,16.57.45.78.1,1.86.29,2.62.51.39.24,1.28.49,1.74.46,1.8-1.05,4.08-1.2,6.1-1.52"/><path class="c" d="M8.37,203.46c7.15-1.39,14.54-1.41,21.8-1.45,3.18.04,6.43.15,9.59.44,2.01.28,4.35.26,6.1,1.4,4.65-2.28,25.98-2.3,30.52.18,2.26-.53,4.65-.75,6.98-.61,1.73.11,3.71.13,5.23,1.06,2.8-2.5,22.53-2.55,26.16-.87.83.11,1.81-.41,2.62-.52,2.27-.38,4.68-.5,6.98-.44,3.81.11,7.72.41,11.34,1.66,2.69-1.15,5.85-.95,8.72-1.23,4.05-.21,8.16-.37,12.21-.52,4.05-.14,8.16-.23,12.21-.11,3.22.12,6.58.24,9.59,1.49,1.47-1.06,3.5-1.22,5.23-1.53"/><path class="c" d="M8.37,201.04c7.49-1.11,15.11-1.32,22.67-1.28,3.18.04,6.43.17,9.59.44,2.64.22,5.37.55,7.85,1.54,2.95-1.95,22.66-2.02,25.29.43,1.93-1.33,4.72-.97,6.98-1.11,1.4,0,2.97.07,4.36.23.85.08,1.96.32,2.62.92,2.62-2.74,29.63-2.76,32.26,0,1.83-1.5,9.32-.79,11.34.39,5.97-1.51,12.24-.43,18.31-1.12,6.65-.72,13.36-1.27,20.06-1.1,2.3.07,4.72.19,6.98.66.81.14,1.76.81,2.62.68,1.26-.78,2.92-1.03,4.36-1.3"/><path class="c" d="M8.37,198.72c9.82-1.16,19.77-1.43,29.65-.93,2.59.15,5.28.36,7.85.75,1.47.27,3.28.4,4.36,1.56.86-.94,2.29-1.08,3.49-1.23,1.4-.16,2.96-.25,4.36-.29,4.04.03,8.36-.3,12.21,1.11.5.13,1.3-.02,1.74-.27.44-.11,1.3-.27,1.74-.32,2.86-.34,5.84-.38,8.72-.25,1.1.06,2.41.17,3.49.38.43.17,1.28.35,1.74.33,1.02-.52,2.37-.73,3.49-.9,4.02-.54,8.15-.67,12.21-.68,6.71,0,13.49.44,20.06,1.9,2.55.57,5.34.22,7.85.99,1.24-.84,2.92-1.05,4.36-1.33,2.28-.38,4.68-.63,6.98-.8,5.49-.27,11.19-.71,16.57.66,1.59-.72,3.52-.74,5.23-.9,2.29-.15,4.68-.18,6.98-.1,1.71.07,3.55.2,5.23.51,1.03.14,2.02.56,2.62,1.46.91-1.43,2.84-1.6,4.36-1.93"/><path class="c" d="M8.37,196.48c8.68-.9,17.44-1.25,26.16-.98,3.18.11,6.43.3,9.59.64,2.65.27,5.38.69,7.85,1.73,2.37-1.18,5.27-.9,7.85-1,1.7.02,3.55.08,5.23.33.81.1,1.79.61,2.62.5,3.11-1.41,17.19-1.84,20.06-.17,1.48-1.01,3.51-.99,5.23-1.24,2.58-.24,5.26-.35,7.85-.39,6.4-.04,12.88.18,19.18,1.31,1.45.18,2.93.94,4.36,1.08,2.2-.78,4.68-.87,6.98-1.23,6.64-.85,13.36-1.3,20.06-1.22,2.29.03,4.69.12,6.98.32,1.72.22,3.72.23,5.23,1.17,2.71-1.1,5.84-.87,8.72-.87,2.3.23,5.13-.01,6.98,1.58,1.2-.96,2.89-1.31,4.36-1.6"/><path class="c" d="M8.37,194.36c10.42-.99,20.94-1.34,31.39-.61,2.59.19,5.28.45,7.85.87,1.76.36,3.86.53,5.23,1.8,1.65-1.32,4.12-.93,6.1-.89.82.04,1.8.55,2.62.24,4.49-1.26,9.31-1.35,13.95-1.57,4.64-.07,9.41-.19,13.95.86,3.85-1.74,25.39-1.58,28.78.72,1.31-.61,2.94-.68,4.36-.79,2-.13,4.11-.27,6.1-.44,5.5-.48,11.05-.96,16.57-1.1,4.63-.12,9.33-.08,13.95.27,1.7.13,3.54.32,5.23.59,1.15.2,2.56.42,3.49,1.19,1.47-1.01,3.53-.73,5.23-.77,2.04.13,4.4.17,6.1,1.43,1.11-1.12,2.89-1.34,4.36-1.66"/><path class="c" d="M8.37,192.58c10.12-1.07,20.36-1.46,30.52-.72,2.6.2,5.28.47,7.85.92,1.76.4,3.95.55,5.23,1.96l.87-.41c.43.06,1.31.18,1.74.24,3.37-2.17,9.11-1.92,13.08-2.33,5.21-.33,10.48-.45,15.7-.3,3.17.2,6.55.02,9.59,1,2.53-.67,5.25-.65,7.85-.66,2.59.09,5.35,0,7.85.78,5.17-.83,10.47-.75,15.7-.89,12.19-.62,24.42-1.74,36.62-.74,4.39.38,8.94.72,13.08,2.32,1.07-.32,2.42-.17,3.49.1.38.21,1.3.48,1.74.51,1.23-.87,2.92-1.17,4.36-1.49"/><path class="c" d="M8.37,190.19c4.35-.17,8.77-.01,13.08.51,2.53-.58,5.26-.5,7.85-.52,2.29.08,4.75.04,6.98.67,3.73-.47,7.57-.62,11.34-.49,2.87.19,6.03-.01,8.72,1.16,4.18-1.46,8.7-1.37,13.08-1.62,6.38-.29,12.8-.29,19.18-.18,11.33.26,22.68-.2,34.01-.07,12.49-.27,25-1.51,37.5-.64,4.65.28,9.36.71,13.95,1.55,1.1.21,2.43.49,3.49.87,0,0,.87.45.87.45h.87c1.26-.74,2.93-.94,4.36-1.14"/><path class="c" d="M8.37,187.38c9.87-.42,19.77-.3,29.65-.23,4.34.06,8.74.16,13.08.44,2.86.33,6.09.16,8.72,1.46,3-1.2,6.42-.94,9.59-1.23,5.21-.26,10.48-.38,15.7-.47,12.78-.26,25.58-.38,38.37-.15,12.49-.24,25-1.27,37.5-.46,3.47.19,7.01.48,10.46.9,2.31.37,4.88.46,6.98,1.59.5.06,1.33-.2,1.74-.48,1.06-.35,2.38-.59,3.49-.75"/><path class="c" d="M8.37,184.81c11.9-.56,23.84-.6,35.75-.26,5.52.17,11.08.52,16.57,1.1,2.57.38,5.4.09,7.85,1.04,3.03-1.08,6.42-.94,9.59-1.25,4.63-.28,9.32-.47,13.95-.61,10.75-.38,21.52-.13,32.26.04,6.39-.03,12.8-.47,19.18-.58,8.42-.17,16.89,0,25.29.74,3.18.41,6.64.38,9.59,1.72,0,0,.87.02.87.02l.87-.44c1.06-.36,2.39-.6,3.49-.77"/><path class="c" d="M8.37,182.36c11.9-.62,23.84-.75,35.75-.4,7.85.21,15.7.95,23.54,1.16,2.59.18,5.34.11,7.85.85,1.12.05,2.36-.53,3.49-.6,3.16-.4,6.41-.59,9.59-.75,10.45-.51,20.94-.41,31.39-.09,13.37.27,26.73-.97,40.11-.28,3.76.15,7.59.37,11.34.73,2.64.22,5.36.62,7.85,1.54,1.23-.84,2.92-1.05,4.36-1.3"/><path class="c" d="M8.37,179.99c16.26-.95,32.58-.94,48.83.06,4.34.28,8.74.3,13.08.54,2.59.23,5.4.14,7.85,1.11,5.67-1.42,11.62-1.39,17.44-1.62,10.17-.33,20.35.26,30.52.35,11.33-.2,22.68-.77,34.01-.31,3.47.12,7,.29,10.46.56,2.6.26,5.35.36,7.85,1.19l.87.96c.88-1.47,2.84-1.54,4.36-1.84"/><path class="c" d="M8.37,177.69c11.02-.69,22.09-.98,33.14-.74,9.3.22,18.61.8,27.9,1.1,2.3.13,4.7.29,6.98.62.8.11,1.87.34,2.62.66.53.16,1.28.02,1.74-.26,5.42-1.14,11.06-1.06,16.57-1.25,12.21-.29,24.42.89,36.62.38,11.03-.35,22.11-.45,33.14.11,3.18.17,6.44.35,9.59.82.79.12,1.9.37,2.62.75.44.06,1.37-.17,1.74-.43.74-.23,1.84-.46,2.62-.58"/><path class="c" d="M8.37,175.43c15.67-1.11,31.41-1.22,47.09-.37,5.21.3,10.49.32,15.7.69,1.7.12,3.54.29,5.23.54,1.14.18,2.54.38,3.49,1.09,2.14-1.04,4.65-1.13,6.98-1.35,3.17-.24,6.42-.35,9.59-.4,10.17-.25,20.35.61,30.52.67,11.33-.18,22.68-.63,34.01-.3,3.76.09,7.58.22,11.34.46,2.58.31,5.52.09,7.85,1.37,1.05-.48,2.35-.89,3.49-1.06"/><path class="c" d="M8.37,173.22c15.37-1.18,30.82-1.37,46.22-.55,5.21.3,10.49.34,15.7.71,3.18.36,6.65.28,9.59,1.65,5.36-1.42,11.03-1.44,16.57-1.54,10.18-.21,20.35.79,30.52.89,11.62-.19,23.26-.62,34.88-.36,3.76.07,7.58.16,11.34.36,2.59.24,5.42.11,7.85,1.14.81-.08,1.82-.55,2.62-.7"/><path class="c" d="M8.37,171.06c15.36-1.29,30.82-1.51,46.22-.69,5.21.3,10.49.35,15.7.75,3.18.38,6.67.33,9.59,1.77,5.35-1.46,11.03-1.43,16.57-1.49,5.51-.02,11.07.18,16.57.53,4.63.28,9.31.76,13.95.74,11.62-.28,23.25-.72,34.88-.57,4.05.03,8.16.08,12.21.23,2.87.24,6.02-.02,8.72,1.1l.87-.24"/><path class="c" d="M8.37,168.94c15.36-1.41,30.82-1.67,46.22-.82,5.21.3,10.49.36,15.7.8,2,.18,4.12.41,6.1.77,1.15.22,2.55.49,3.49,1.24,3.53-1.52,7.56-1.33,11.34-1.54,5.22-.13,10.49-.01,15.7.28,4.37.26,8.81.57,13.08,1.52,1.93-.57,4.11-.45,6.1-.49,2.6,0,5.29.19,7.85.68,3.67-.87,7.58-.68,11.34-.9,7.25-.2,14.54-.26,21.8-.29,5.51.04,11.08-.1,16.57.48"/><path class="c" d="M8.37,166.86c15.35-1.54,30.82-1.82,46.22-.94,5.22.31,10.49.38,15.7.87,1.7.16,3.55.38,5.23.67,1.46.27,3.16.58,4.36,1.53,2.38-2.72,29.22-1.7,33.14-.11,1.12.11,2.36-.51,3.49-.53,4.62-.42,9.32-.25,13.95-.13,2.88.1,5.84.25,8.72.47,2,.25,4.29.11,6.1,1.07,1.82-.92,4.11-.68,6.1-.89,2.88-.14,5.84-.24,8.72-.33,7.84-.22,15.7-.5,23.54-.36"/><path class="c" d="M8.37,164.81c15.05-1.64,30.23-1.98,45.34-1.11,5.22.33,10.49.43,15.7.9,3.18.44,6.73.43,9.59,2.03,4.77-1.4,9.87-1.31,14.82-1.28,4.93.21,10.07.05,14.82,1.54,2.67-1.21,5.85-.96,8.72-1.17,4.63-.1,9.32.03,13.95.16,5.22.16,10.48.4,15.7.7,3.47.29,7.09.2,10.46,1.14,1.32-.57,2.95-.62,4.36-.78,1.99-.18,4.11-.33,6.1-.45,5.21-.33,10.47-.58,15.7-.69"/><path class="c" d="M8.37,162.81c15.04-1.8,30.23-2.14,45.34-1.22,4.92.32,9.91.46,14.82.9,3.53.37,7.21.71,10.46,2.21,2.56-2.01,21.38-1.56,24.42.03,3.09-.9,6.38-1.15,9.59-1.25,4.92-.18,9.9-.04,14.82.08,11.04.35,22.11.75,33.14,1.35,1.42.01,2.95.49,4.36.53,1.63-.6,3.52-.73,5.23-.95,4.33-.47,8.73-.76,13.08-.97"/><path class="c" d="M8.37,160.84c15.02-1.97,30.23-2.31,45.34-1.32,4.92.35,9.91.51,14.82.99,1.7.18,3.55.42,5.23.74,1.47.29,3.17.65,4.36,1.63,1.15-1.02,2.91-1.05,4.36-1.22,2.29-.19,4.68-.21,6.98-.17,2,.05,4.12.15,6.1.38,1.15.15,2.58.28,3.49,1.09,1.43-1.13,3.5-1.13,5.23-1.38,2.29-.22,4.68-.33,6.98-.39,6.68-.15,13.38.14,20.06.35,7.26.25,14.54.64,21.8.86,2.88.09,5.84.14,8.72.24,2.31.09,4.74.15,6.98.8,1.84-.94,4.09-1.01,6.1-1.33,2.87-.35,5.84-.59,8.72-.79"/><path class="c" d="M8.37,158.91c14.71-2.12,29.65-2.48,44.47-1.48,4.92.36,9.91.59,14.82,1.06,3.21.47,6.79.56,9.59,2.35.93-.78,2.33-.92,3.49-1.05,1.69-.17,3.53-.21,5.23-.2,2.87.16,6.1-.1,8.72,1.26,1.7-1.25,4.09-1.19,6.1-1.48,3.16-.29,6.42-.39,9.59-.42,8.13-.03,16.29.39,24.42.73,6.96.31,13.95.92,20.93.95,2.88.02,5.84-.03,8.72.02,1.97.18,4.46-.24,6.1,1.03,1.36-1.25,3.5-1.27,5.23-1.63,2.57-.38,5.26-.65,7.85-.87"/><path class="c" d="M8.37,157.02c14.69-2.34,29.65-2.66,44.47-1.57,5.51.47,11.09.67,16.57,1.42,1.41.21,2.99.49,4.36.89.81.2,1.76.87,2.62.89,1.84-.91,4.1-.82,6.1-.9,2.61.01,5.38.04,7.85.99,1.23-.86,2.92-1.03,4.36-1.26,1.69-.23,3.53-.39,5.23-.49,4.92-.29,9.9-.27,14.82-.12,9.59.45,19.26.53,28.78,1.9.79.13,1.82.52,2.62.59,1.04-.44,2.38-.53,3.49-.6,3.49-.19,7.08-.03,10.46.85,1.9-.71,4.1-.68,6.1-.78,1.7,0,3.61-.09,5.23.51,1.14-.13,2.35-.83,3.49-.99,2.85-.61,5.83-.94,8.72-1.24"/><path class="c" d="M8.37,155.16c14.37-2.53,29.07-2.83,43.6-1.72,3.47.26,7,.6,10.46.89,2.6.19,5.29.48,7.85.98,1.5.34,3.35.58,4.36,1.86,1.35-1.28,3.5-1.1,5.23-1.2,2.03-.06,4.16.19,6.1.78,1.24-.84,2.92-1.06,4.36-1.31,1.69-.26,3.53-.43,5.23-.56,5.21-.36,10.48-.36,15.7-.19,4.93.18,9.9.48,14.82.78,4.09.25,8.26.51,12.21,1.58,4.32-2.08,24.71-1.92,28.78.71,1.53-.81,3.61-.78,5.23-.24,3.6-1.39,7.49-2.01,11.34-2.43"/><path class="c" d="M8.37,153.35c14.04-2.76,28.5-3.02,42.73-1.89,4.06.32,8.16.8,12.21,1.18,2.01.19,4.13.48,6.1.91,1.16.26,2.56.62,3.49,1.4,2.79-1.04,5.88-.86,8.72-.17,1.51-.99,3.49-1.2,5.23-1.51,2.86-.42,5.83-.64,8.72-.77,7.26-.31,14.56,0,21.8.54,5.23.48,10.63.42,15.7,1.92,4.98-2.7,34.37-2.91,38.37,1.08.46-.16,1.3-.11,1.74.1,2.92-2.25,6.96-2.36,10.46-3.02"/><path class="c" d="M8.37,151.6c14.26-3.19,29.1-3.26,43.6-1.93,3.18.31,6.42.72,9.59,1.11,2,.23,4.13.47,6.1.93,1.18.28,2.61.65,3.49,1.55,1.28-.73,2.93-.79,4.36-.62.45.16,1.28.28,1.74.23,1.26-.82,2.91-1.14,4.36-1.43,2.27-.42,4.67-.69,6.98-.87,8.7-.67,17.48-.38,26.16.42,4.65.52,9.45.63,13.95,1.97,1.54-.89,3.51-1.04,5.23-1.33,2.87-.39,5.83-.65,8.72-.82,7.47-.38,25.42-.87,31.39,3.06.46-.2,1.29-.17,1.74.05,2.05-1.91,5.23-2.04,7.85-2.64"/><path class="c" d="M8.37,150.02c6.18-1.94,12.75-2.5,19.18-2.91,8.72-.46,17.5-.12,26.16.95,2.59.32,5.27.73,7.85,1.14,2.68.36,5.46.86,7.85,2.19.75-.4,1.83-.45,2.62-.16,4.62-2.11,9.8-2.56,14.82-2.94,7.25-.49,14.56-.36,21.8.25,3.18.27,6.43.66,9.59,1.14,2.01.39,4.33.41,6.1,1.53,1.45-1.09,3.51-1.13,5.23-1.47,2.28-.33,4.68-.61,6.98-.83,8.68-.82,17.46-1.04,26.16-.33,2.3.2,4.71.47,6.98.91,1.45.31,3.13.62,4.36,1.5,1.1-.11,2.37-.5,3.49-.4.79,0,1.82.34,2.62.28.98-.68,2.35-1.04,3.49-1.31"/><path class="c" d="M8.37,148.05l.87.31c5.49-2.23,11.55-2.75,17.44-3.16,8.42-.5,16.92-.23,25.29.87,2.9.39,5.86.9,8.72,1.53,2.08.56,4.72.7,6.1,2.57l.87-.07c1.88-2.82,10.57-3.37,13.95-3.8,10.44-.89,21.03-.65,31.39.92,1.41.23,2.98.52,4.36.89.8.19,1.77.77,2.62.78,3.37-.94,7.01-1,10.46-1.54,10.39-1.31,20.93-1.9,31.39-1.21,2.6.18,5.28.44,7.85.87,1.76.34,3.78.62,5.23,1.77,1.72-1.16,4.12-.91,6.1-.85.81.05,1.8.55,2.62.4"/><path class="c" d="M8.37,145.21c.78.03,1.85.12,2.62.27.42.2,1.28.36,1.74.31,1.26-.81,2.92-1.12,4.36-1.42,2.27-.43,4.67-.72,6.98-.92,8.11-.68,16.33-.55,24.42.4,3.72.57,11.31,1.32,13.95,3.85.45-.15,1.3-.15,1.74,0,2.5-2.23,8.03-2.63,11.34-3.18,9.24-1.11,18.63-1.16,27.9-.35,2.6.24,5.28.57,7.85,1.05,1.77.43,4.01.55,5.23,2.06,1.3-1.37,3.51-.94,5.23-1.06,2-.03,4.12-.21,6.1-.47,8.65-1.28,17.4-2.15,26.16-2.1,4.06,0,8.17.17,12.21.57,2.9.39,6.08.5,8.72,1.87.82.13,1.81-.38,2.62-.47,1.98-.29,4.12-.32,6.1-.07"/><path class="c" d="M8.37,142.62c2,.09,4.27-.04,6.1.88,4.14-1.62,8.67-1.98,13.08-2.25,5.8-.31,11.66-.19,17.44.37,3.2.33,6.47.79,9.59,1.59,1.55.45,3.48.85,4.36,2.35l.87-.59c1.35.49,2.29-.43,3.49-.79,1.38-.41,2.95-.75,4.36-1.01,6.89-1.24,13.94-1.68,20.93-1.72,4.93-.01,9.92.21,14.82.75,3.84.44,7.79.99,11.34,2.6,1.86-.79,4.19-.64,6.1-.1.81,0,1.82-.43,2.62-.54,1.97-.23,4.17-.54,6.1.05,9.26-3.2,37.22-3.94,46.22-.28,2.39-1.12,5.27-.93,7.85-.88"/><path class="c" d="M8.37,140.12c1.7.01,3.54.07,5.23.25,1.15.12,2.53.34,3.49,1.04,2.71-2.44,15.17-2.27,19.18-2.24,5.25.16,10.57.57,15.7,1.75,1.46.37,3.12.82,4.36,1.71.74.33,1.84.22,2.62.39,2.13-1.79,5.23-1.77,7.85-2.3,4.61-.69,9.3-1.11,13.95-1.31,7.84-.32,15.76-.15,23.54.9,1.71.24,3.56.56,5.23.98,1.23.31,2.71.72,3.49,1.81,1.32-1.35,3.6-.89,5.23-.41,2.28-1.4,5.26-1.24,7.85-1.52,1.4-.07,2.96-.11,4.36-.06,1.12.06,2.51.07,3.49.7,1.52-.95,3.5-1.11,5.23-1.4,2.28-.32,4.68-.54,6.98-.69,6.08-.39,12.23-.42,18.31-.02,2.6.19,5.29.43,7.85.94,1.24.13,2.35.97,3.49.9,2.45-.96,5.26-.88,7.85-.87"/><path class="c" d="M8.37,137.68c2,.01,4.11.08,6.1.26,1.43.17,3.12.25,4.36,1.06,4.92-2.86,33.6-2.53,36.62,2.36,1.53-.29,2.81-1.6,4.36-1.9,4.83-1.17,9.88-1.5,14.82-1.94,7.24-.52,14.56-.57,21.8-.06,5.3.44,10.79.88,15.7,3.06,1.03-.47,2.39-.46,3.49-.26l.87.75c.93-1.41,2.84-1.51,4.36-1.77,1.99-.26,4.1-.41,6.1-.5,2.29-.09,4.69-.12,6.98.05.8.06,1.87.21,2.62.52.46-.04,1.32-.27,1.74-.46,8.55-1.72,17.48-1.6,26.16-1.21,2,.13,4.12.32,6.1.61,1.45.25,3.18.45,4.36,1.42.91-.8,2.34-.93,3.49-1.08,1.69-.21,3.53-.26,5.23-.22"/><path class="c" d="M8.37,135.29c2.29.02,4.69.1,6.98.29,1.72.2,3.68.27,5.23,1.1.82-.09,1.81-.58,2.62-.73,1.38-.27,2.95-.43,4.36-.54,4.04-.28,8.16-.23,12.21.04,3.63.37,13.1.83,14.82,4.21,2.68-3.14,7.55-3.03,11.34-3.61,4.04-.45,8.15-.77,12.21-.94,9.01-.32,18.13-.18,27.03,1.38,1.1.21,2.42.51,3.49.85.81.22,1.74.97,2.62.92,1.35-.45,3.11-.53,4.36.22,1.49-1.04,3.47-1.3,5.23-1.53,1.99-.22,4.1-.37,6.1-.46,2.29-.1,4.69-.14,6.98-.07,1.71.1,3.62.07,5.23.72,2.81-.81,5.79-1.2,8.72-1.38,4.33-.31,8.74-.38,13.08-.26,2.59.08,5.27.23,7.85.53,1.74.27,3.79.33,5.23,1.46.92-.8,2.34-.92,3.49-1.07,1.98-.25,4.1-.34,6.1-.3"/><path class="c" d="M8.37,132.95c2.88.03,5.85.14,8.72.43,1.72.24,3.72.29,5.23,1.24,4.3-2.29,27.78-1.76,30.52,2.3l.87-.44.87.14c3.27-2.27,7.52-2.34,11.34-2.81,4.62-.47,9.31-.77,13.95-.89,5.51-.13,11.07-.02,16.57.43,4.08.41,8.32.74,12.21,2.13.68.58,1.81.65,2.62.28,1.42-.14,3.18-.28,4.36.66,1.92-2.05,9.26-1.86,12.21-2.13,3.46-.13,7-.17,10.46.07.78.05,1.84.17,2.62.31.78.33,1.86.35,2.62-.05,5.14-1.03,10.48-1.02,15.7-1.03,2.59.03,5.27.13,7.85.37,1.72.2,3.65.3,5.23,1.06,3.69-.82,7.54-1.24,11.34-1.13"/><path class="c" d="M8.37,130.66c2.88.03,5.85.15,8.72.41,2.33.23,4.81.47,6.98,1.43,3.48-2.21,24.16-1.32,27.03,1.75,1.33-.53,3.08-.96,4.36-.09,2.18-2.08,7.49-2.1,10.46-2.52,4.91-.47,9.89-.76,14.82-.83,5.22-.08,10.49.06,15.7.51,3.79.39,7.72.71,11.34,1.96,0,0,.87.48.87.48h.87c.41-.16,1.31-.34,1.74-.36,1.41-.06,3.05-.08,4.36.53,4.43-1.64,9.29-1.52,13.95-1.78,5.2-.05,10.57-.39,15.7.66.5.18,1.29.07,1.74-.19.77-.18,1.83-.33,2.62-.41,3.16-.32,6.42-.41,9.59-.4,2.29.02,4.69.09,6.98.3,1.43.18,3.15.21,4.36,1.1,1.46-1.04,3.52-.93,5.23-1.18,2.58-.24,5.26-.4,7.85-.34"/><path class="c" d="M8.37,128.41c3.47.05,7.01.21,10.46.58,2.01.35,4.52.23,6.1,1.68,2.22-2.44,17.4-1.11,20.93-.29.8.16,1.86.45,2.62.76.44.34,1.19.62,1.74.53.73-.38,1.8-.58,2.62-.63,1.1-.07,2.43-.07,3.49.31.85,0,1.81-.6,2.62-.78,4.84-1.08,9.89-1.26,14.82-1.6,7.25-.36,14.56-.32,21.8.26,2.3.19,4.7.45,6.98.83,1.74.34,3.74.56,5.23,1.58,1.66-.49,3.51-.66,5.23-.55,1.13.07,2.5.16,3.49.75,2.15-1.01,4.64-1.17,6.98-1.35,3.17-.24,6.42-.38,9.59-.45,3.76-.08,7.58-.06,11.34.09,2.59.16,5.34.16,7.85.91,2.46-.87,5.27-.64,7.85-.72,1.99.12,4.29-.13,6.1.82,2.12-1,4.69-.87,6.98-1.16,3.46-.25,6.99-.53,10.46-.44"/><path class="c" d="M8.37,126.2c3.18.04,6.43.19,9.59.49,2.63.26,5.38.56,7.85,1.58,3.06-1.81,20.04-1.11,22.67,1.43,1.14-1.04,2.91-1.08,4.36-1.21,2.02-.15,4.15,0,6.1.54,1.53-.92,3.5-1.04,5.23-1.29,2.28-.28,4.68-.49,6.98-.64,6.95-.45,13.97-.48,20.93-.08,4.95.44,10.19.45,14.82,2.42,1.56-.8,3.53-.64,5.23-.66,1.1.03,2.4.12,3.49.28.8.1,1.8.53,2.62.55,1.86-.89,4.1-.85,6.1-1.06,2.88-.22,5.84-.36,8.72-.45,9.29-.37,18.61.07,27.9.09,7.55-.02,15.12-.86,22.67-.77"/><path class="c" d="M8.37,124.04c3.84.14,14.65.23,17.44,2.25,2.94-1.81,18.14-1.19,20.93.89.83-.08,1.8-.62,2.62-.76,1.68-.32,3.52-.44,5.23-.47,1.4-.02,2.97.03,4.36.21.8.08,1.8.52,2.62.48,2.71-1.12,5.84-1.13,8.72-1.46,4.04-.31,8.15-.43,12.21-.42,4.64.02,9.33.21,13.95.66,2.94.23,5.91.78,8.72,1.62,3.31-1.04,7.05-.56,10.46-.32.79.09,1.85.25,2.62.44.79.36,1.84.53,2.62.07,4.29-.78,8.74-.82,13.08-1.06,7.54-.32,15.12-.36,22.67-.37,9.01.11,18.03-.52,27.03-.5"/><path class="c" d="M8.37,121.92c3.47.05,7.01.23,10.46.59,2.3.37,4.98.34,6.98,1.66,1.58-.78,3.5-.86,5.23-.95,2-.08,4.11-.04,6.1.07,1.71.1,3.55.27,5.23.57,1.19.21,2.64.52,3.49,1.46.82-.99,2.29-1.22,3.49-1.4,1.39-.2,2.96-.32,4.36-.37,3.49-.12,7.1-.05,10.46.97,4.11-2.4,33.74-2.26,37.5.47,2.71-1.71,17.07-.79,20.06.72,3.69-.88,7.56-.99,11.34-1.23,5.21-.29,10.48-.5,15.7-.63,6.96-.18,13.96-.23,20.93-.37,4.63-.05,9.32-.36,13.95-.23"/><path class="c" d="M8.37,119.85c3.47.04,7.01.23,10.46.61,2.32.33,4.91.46,6.98,1.67.96-.68,2.35-.77,3.49-.87,1.7-.13,3.53-.14,5.23-.1,2.6.08,5.3.25,7.85.79.81.15,1.77.76,2.62.74,1.26-.78,2.92-.96,4.36-1.16,1.99-.23,4.1-.34,6.1-.37,2.59-.02,5.28.07,7.85.44.44.06,1.31.25,1.74.37.45.28,1.22.45,1.74.3,4.26-1.84,25.55-1.7,29.65.3,2.78-.9,5.83-.84,8.72-.88,4.06.02,8.18.26,12.21.77,1.71.22,3.55.51,5.23.89.46.09,1.32.39,1.74.58.81.13,1.82-.28,2.62-.36,10.15-.75,20.34-1.5,30.52-1.85,8.71-.2,17.45-.59,26.16-.5"/><path class="c" d="M8.37,117.82c3.18.03,6.43.19,9.59.52,2.31.33,4.9.39,6.98,1.55,3.08-.92,6.4-.88,9.59-.8,1.7.06,3.54.19,5.23.43,1.14.17,2.54.4,3.49,1.11,3.8-1.69,8.13-1.64,12.21-1.78,4.37.03,8.94,0,13.08,1.57,1.27-.74,2.93-.83,4.36-.98,1.69-.14,3.53-.21,5.23-.22,4.08-.01,8.25.1,12.21,1.1,1.59-.74,3.52-.78,5.23-.94,2.29-.15,4.68-.2,6.98-.17,4.06.05,8.18.3,12.21.78,2.93.36,5.96.8,8.72,1.89,1.08-.34,2.44-.29,3.49.14,3.88-1.43,8.12-1.56,12.21-1.74,4.36-.13,8.8-.1,13.08.76,1.9-.73,4.1-.79,6.1-1.01,2.58-.21,5.26-.35,7.85-.46,5.8-.17,11.64-.45,17.44-.3"/><path class="c" d="M8.37,115.84c4.06.04,8.19.26,12.21.88.79.13,1.85.35,2.62.59.42.27,1.25.48,1.74.39,3.34-1.01,7.02-.68,10.46-.59,2.3.28,5.11.06,6.98,1.63,1.06-1.19,2.88-1.31,4.36-1.57,2.28-.32,4.68-.47,6.98-.54,5.56-.13,11.28,0,16.57,1.78,2.69-1.23,10.24-1.14,13.08-.16,1.15.09,2.34-.7,3.49-.78,5.17-.81,10.48-.84,15.7-.71,3.18.1,6.43.32,9.59.7,2.31.35,4.86.5,6.98,1.56,2.27-.4,4.66-.63,6.98-.42,1.13-.02,2.37.58,3.49.45,5.12-2.2,27.06-2.37,32.26-.22,2.66-1.23,5.85-1.01,8.72-1.29,4.34-.18,8.74-.36,13.08-.2"/><path class="c" d="M8.37,113.91c3.77.01,7.61.21,11.34.78.79.12,1.85.34,2.62.58.44.3,1.22.48,1.74.34,3.07-.9,6.43-.65,9.59-.61,1.71.08,3.55.22,5.23.54.81.13,1.78.7,2.62.62,3.97-2.37,26.52-2.63,29.65.77.94-.75,2.34-.86,3.49-.89,1.43-.11,2.97.26,4.36.49,4.66-3.14,34.02-3.08,38.37.34,1.7-1.22,4.12-.86,6.1-1.01,2.28.1,4.92-.21,6.98.93,2.09-1.17,4.65-1.28,6.98-1.57,3.16-.31,6.41-.45,9.59-.49,4.35-.05,8.75.08,13.08.46,1.71.16,3.55.36,5.23.71.8.15,1.8.63,2.62.7,2.15-.94,4.68-.85,6.98-1.03,2.88-.13,5.84-.19,8.72-.07"/><path class="c" d="M8.37,112.05c2.88-.02,5.85.11,8.72.43,1.73.28,3.81.29,5.23,1.43,1.24-.81,2.93-.82,4.36-.94,1.7-.09,3.53-.1,5.23-.05,1.4.04,2.97.14,4.36.31,1.17.15,2.61.31,3.49,1.18,1.15-1.03,2.89-1.24,4.36-1.49,2.28-.33,4.68-.51,6.98-.6,5.11-.13,17.07-.35,20.93,2.86.79-.24,1.87-.34,2.62.11,2.53-2.68,11.9-3.01,15.7-3.31,5.21-.25,10.49-.17,15.7.26,3.54.26,7.12.8,10.46,1.94,2.36-1.15,12.48-1.22,14.82,0,2.78-.98,5.78-1.4,8.72-1.61,3.75-.31,7.58-.41,11.34-.37,7,.17,14.2.3,20.93,2.33,1.31-.61,2.94-.67,4.36-.78,2.29-.14,4.69-.15,6.98-.04"/><path class="c" d="M8.37,110.28c3.18-.07,6.45.07,9.59.54,1.14.07,2.35.81,3.49.72,3.18-1.01,13.61-.99,16.57.43,4.75-1.49,9.84-1.77,14.82-1.83,4.93.07,14.52-.1,18.31,3.08l.87-.28.87.51c3.02-5.15,38.19-5.04,42.73-1.29.91-.81,2.33-.92,3.49-1.04,1.39-.13,2.96-.19,4.36-.21,1.7-.02,3.54,0,5.23.15,1.14.11,2.53.22,3.49.91,1.8-1.09,4.07-1.28,6.1-1.56,2.58-.3,5.26-.47,7.85-.56,5.8-.19,11.66-.02,17.44.51,4.1.44,8.34.81,12.21,2.34,2.42-1.01,5.28-.65,7.85-.63"/><path class="c" d="M8.37,108.68c2.58-.19,5.28-.09,7.85.23.45.06,1.31.22,1.74.33.45.25,1.24.4,1.74.27,3.96-.91,8.18-.64,12.21-.46,1.1.08,2.41.23,3.49.49.43.24,1.26.41,1.74.29,4.6-2.26,26.56-2.67,30.52.44,1.67-.41,3.61-.8,5.23-.02.84-.17,1.8-.82,2.62-1.06,1.66-.52,3.51-.87,5.23-1.13,4.31-.63,8.73-.89,13.08-.94,5.82-.03,11.71.21,17.44,1.25.79.15,1.86.41,2.62.68.39.27,1.26.55,1.74.53,2.41-1.07,5.26-.86,7.85-1.01,3.2-.07,6.5.03,9.59.9,1.8-1.05,4.08-1.16,6.1-1.46,2.87-.32,5.83-.49,8.72-.56,6.1-.14,12.25.11,18.31.8,4.42.52,8.91,1.18,13.08,2.76,1.34-.5,2.96-.37,4.36-.27"/><path class="c" d="M8.37,107.02c.44.12,1.31.37,1.74.51,1.05-.4,2.39-.37,3.49-.31.86.03,1.97.19,2.62.81.91-.8,2.35-.78,3.49-.9,1.4-.11,2.96-.17,4.36-.19,2-.03,4.11.01,6.1.16,1.43.15,3.13.17,4.36.99,3.66-2.47,27.52-3.1,30.52.05.9-.84,2.33-.92,3.49-.98,1.41-.03,3.06-.06,4.36.57.5-.04,1.33-.38,1.74-.65.76-.3,1.82-.59,2.62-.77,5.43-1.14,11.04-1.43,16.57-1.5,5.82,0,11.71.25,17.44,1.33.79.16,1.86.43,2.62.71.41.32,1.21.58,1.74.46,2.71-1.12,5.84-.89,8.72-1.03,1.7-.01,3.54.03,5.23.18,1.15.12,2.57.27,3.49,1.05,1.98-1.99,10.05-2.07,13.08-2.31,6.97-.27,14,0,20.93.85,2.9.36,5.87.85,8.72,1.52,1.74.46,3.7.84,5.23,1.82.8,0,1.87-.1,2.62.26"/><path class="c" d="M8.37,104.53c4.61.69,9.31.55,13.95.47,3.16.12,6.59-.19,9.59.94,5.03-1.59,10.43-1.82,15.7-1.93,4.97-.06,10.07.07,14.82,1.52,1.86-.83,4.1-.81,6.1-.85,1.45.07,3.25-.03,4.36,1.05,2.44-2.49,12.02-2.81,15.7-3.09,5.51-.25,11.08-.15,16.57.38,2.61.27,5.32.6,7.85,1.29.81.2,1.77.85,2.62.9,2.65-1.27,5.85-.97,8.72-1.14,1.7-.02,3.54.02,5.23.17,1.15.11,2.54.29,3.49,1,1.13-1.07,2.9-1.23,4.36-1.51,2.28-.36,4.68-.57,6.98-.7,6.67-.37,13.41-.2,20.06.5,2.6.28,5.28.66,7.85,1.18,1.74.4,3.73.7,5.23,1.72,1.96-.5,4.1-.44,6.1-.37"/><path class="c" d="M8.37,102.38c4.04.46,8.15.71,12.21.73,1.7.03,3.54.09,5.23.23,1.14.12,2.54.2,3.49.91,3.61-2.61,25.61-3.11,29.65-.92.82.04,1.82-.46,2.62-.57,1.39-.23,2.96-.34,4.36-.39,2,.03,4.31-.2,6.1.81,3.49-1.75,7.51-2.09,11.34-2.51,6.36-.58,12.81-.6,19.18-.14,2.6.2,5.28.49,7.85.94,1.77.39,3.93.6,5.23,1.99.85-.97,2.29-1.13,3.49-1.27,1.39-.15,2.96-.22,4.36-.26,2.29-.05,4.7-.04,6.98.28.81.09,1.79.59,2.62.5,6.82-3.31,35.14-2.58,41.86,1.02,2.85-.56,5.83-.52,8.72-.38"/><path class="c" d="M8.37,100.39c3.17.33,6.41.7,9.59.86,2.58.24,5.41,0,7.85.96,5.3-1.79,11.02-1.98,16.57-2.21,2.88-.07,5.85-.05,8.72.15,2.03.18,4.27.32,6.1,1.3,2.02-1.24,4.68-1.07,6.98-1.26,2.28.04,4.98-.33,6.98.99,1.09-1.16,2.88-1.42,4.36-1.77,1.98-.4,4.1-.69,6.1-.9,7.81-.78,15.73-.76,23.54.02,3.49.49,7.32.61,10.46,2.32.85.23,1.79-.43,2.62-.54,1.38-.25,2.96-.34,4.36-.4,3.16-.01,6.63-.38,9.59.93,5.31-3.67,35.4-2.97,40.98.65,1.25-.78,2.94-.68,4.36-.75,2-.03,4.11.06,6.1.15"/><path class="c" d="M8.37,98.56c2.59.29,5.26.68,7.85.98,1.99.33,4.29.14,6.1,1.13,3.85-2.52,29.91-4.09,33.14-1.04,1.62-1.38,4.1-1.18,6.1-1.42,2.6-.09,5.38-.24,7.85.72,3.03-2.22,11.74-2.63,15.7-2.98,7.25-.42,14.58-.27,21.8.6,3.19.54,6.79.66,9.59,2.41.82-.03,1.81-.55,2.62-.65,1.68-.26,3.53-.34,5.23-.37,1.4-.02,2.97.02,4.36.19.8.08,1.8.54,2.62.47,1.27-.77,2.92-1.03,4.36-1.3,2.28-.38,4.68-.61,6.98-.77,8.42-.46,17-.34,25.29,1.37,1.16.16,2.33,1,3.49,1.04.74-.32,1.82-.47,2.62-.52,3.17-.19,6.43-.01,9.59.2"/><path class="c" d="M8.37,96.94c2.02.35,4.27.55,6.1,1.53.78-.15,1.84-.16,2.62,0,.44.18,1.28.35,1.74.32,1.33-.69,2.95-.36,4.36-.58,2.2-.83,4.66-1.08,6.98-1.4,4.61-.54,9.31-.78,13.95-.72,3.49.13,7.2.04,10.46,1.43.98-.65,2.35-.83,3.49-.97,1.69-.19,3.53-.27,5.23-.19.8.03,1.87.17,2.62.48.52.06,1.33-.24,1.74-.53,11.41-3.8,39.57-3.98,50.58.77,1.55-.85,3.52-.79,5.23-.9,1.09-.03,2.4-.02,3.49.09.8.06,1.81.47,2.62.44,5.93-3.32,33.39-3.42,39.24.04,4.81-1.27,9.93-.65,14.82-.23"/><path class="c" d="M8.37,95.58c1.47.15,2.88,1.28,4.36,1.1.84-.07,1.81-.64,2.62-.82,3.12-.71,6.41-.88,9.59-.88,1.1,0,2.4.06,3.49.22.78.29,1.86.24,2.62-.09,4-.75,8.15-.83,12.21-.84,2.3.03,4.7.13,6.98.44,1.22.18,2.72.37,3.49,1.46,1-1.28,2.88-1.24,4.36-1.39,1.44,0,3.29-.34,4.36.84.6-.8,1.67-1.29,2.62-1.5,1.38-.39,2.95-.73,4.36-1,6.03-1.11,12.19-1.63,18.31-1.79,7.57-.17,15.2.2,22.67,1.41,1.71.29,3.56.65,5.23,1.11,1.23.34,2.71.77,3.49,1.86.85-.94,2.31-1.01,3.49-1.09,1.42-.12,2.99.07,4.36.43,2.77-1.72,6.43-1.82,9.59-2.32,6.93-.75,13.98-.82,20.93-.24,2.01.18,4.13.43,6.1.83,1.22.25,2.71.55,3.49,1.61,1.49-1.5,4.14-1.08,6.1-1.24,3.47.03,7.04.18,10.46.82"/><path class="c" d="M8.37,93.53c.79.1,1.83.42,2.62.5,1.3-.67,2.93-.85,4.36-1.06,2.28-.29,4.68-.46,6.98-.55,4.62-.09,9.4-.29,13.95.65.82.27,1.8-.18,2.62-.23,1.69-.17,3.53-.19,5.23-.16,2.3.06,4.72.21,6.98.73.83.16,1.74.85,2.62.74.76-.32,1.82-.28,2.62-.31,1-.64,2.35-1.02,3.49-1.31,4.86-1.17,9.86-1.97,14.82-2.54,10.41-1.13,20.99-1.17,31.39.09,2.9.37,5.88.85,8.72,1.55,1.76.47,3.74.94,5.23,2.04.43.11,1.32.05,1.74-.11.42.05,1.32.05,1.74,0,.68-.52,1.8-.96,2.62-1.2,2.53-.75,5.24-1.18,7.85-1.52,6.06-.74,12.22-.94,18.31-.68,4.4.23,8.94.5,13.08,2.11,3.23-1.61,14.65-.83,18.31.19"/><path class="c" d="M8.37,90.86c.81.11,1.88.37,2.62.73.98-.65,2.35-.8,3.49-.97,1.69-.22,3.53-.37,5.23-.48,4.34-.26,8.74-.3,13.08-.2,4.05.1,8.16.33,12.21.6,1.4.09,2.97.2,4.36.35,1.14.14,2.54.25,3.49.96,1.8-1.13,4.06-1.47,6.1-1.89,2.87-.53,5.83-.97,8.72-1.39,8.36-1.19,16.85-1.71,25.29-1.48,5.38.17,21.74,1.07,25.29,4.55,1.04-.62,2.43-.32,3.49.12,4.76-4.17,35.6-5.09,40.98-1.62,3.31-1.24,6.99-1.05,10.46-1.04,3.47.16,7.08.23,10.46,1.08"/><path class="c" d="M8.37,88.32c1.14.17,2.58.23,3.49,1.03.91-.81,2.33-.92,3.49-1.09,1.99-.25,4.1-.4,6.1-.5,5.21-.27,10.48-.28,15.7-.17,3.17.07,6.42.18,9.59.41,2,.29,4.51.01,6.1,1.44,1.6-1.47,4.07-1.52,6.1-1.98,2.87-.47,5.84-.85,8.72-1.22,10.68-1.34,21.53-1.71,32.26-.76,2.89.26,5.87.64,8.72,1.2,1.74.39,3.72.73,5.23,1.72.8.07,1.82-.31,2.62-.32,1.71-.06,3.58.06,5.23.53l.87.96c.85-1.54,2.81-1.73,4.36-2.09,2.56-.51,5.25-.83,7.85-1.06,5.2-.44,10.48-.55,15.7-.28,3.5.26,7.21.36,10.46,1.83,3.78-2.12,18.01-1.03,22.67-.24"/><path class="c" d="M8.37,85.83c1.71.2,3.63.22,5.23.89,3.08-.93,6.4-1.04,9.59-1.24,4.05-.21,8.16-.28,12.21-.27,3.47.02,7,.08,10.46.29,2.29.28,5,.03,6.98,1.38,2.04-1.32,4.64-1.5,6.98-1.92,3.16-.45,6.41-.83,9.59-1.16,9.55-.98,19.21-1.22,28.78-.39,2.6.24,5.29.56,7.85,1.07,1.46.34,3.22.6,4.36,1.66,2.36-1.22,5.28-.79,7.85-.7,1.74.27,4.02.03,5.23,1.53,1.86-3.61,31.67-3.85,34.88-1.14,3.31-1.26,6.97-1.22,10.46-1.31,4.93-.01,9.92.22,14.82.8"/><path class="c" d="M8.37,83.38c2.9.14,5.87.41,8.72.94,3.04-1.01,6.42-.92,9.59-1.17,5.21-.25,10.48-.31,15.7-.17,2,.06,4.11.15,6.1.34,1.42.16,3.08.28,4.36.98,5.02-1.69,10.43-2.08,15.7-2.63,8.1-.78,16.29-1.04,24.42-.57,2.89.18,5.86.44,8.72.9,1.76.39,4.01.45,5.23,1.95.84-.95,2.3-1.04,3.49-1.14,1.4-.1,2.96-.11,4.36-.07,3.19.21,6.62.15,9.59,1.45,1.46-1.08,3.5-1.19,5.23-1.48,2.57-.34,5.26-.53,7.85-.63,3.46-.13,7-.12,10.46.08,2.93.19,5.98.41,8.72,1.54,1.25-.8,2.93-.91,4.36-1.09,1.99-.21,4.11-.3,6.1-.34,5.51-.08,11.08.17,16.57.64"/><path class="c" d="M8.37,80.98c4.06.21,8.23.16,12.21,1.06,2.17-.84,4.68-.82,6.98-1.05,3.46-.23,7-.34,10.46-.36,2.88-.01,5.84.03,8.72.21,2.32.2,4.88.23,6.98,1.36,1.94-1.45,4.67-1.45,6.98-1.88,3.16-.4,6.41-.72,9.59-.97,7.82-.6,15.72-.72,23.54-.07,2,.18,4.13.42,6.1.8,1.24.24,2.75.53,3.49,1.67.78-1.09,2.27-1.2,3.49-1.32,1.99-.18,4.11-.2,6.1-.16,2.3.06,4.69.23,6.98.48,1.42.18,3.07.29,4.36.98,5.33-1.54,11.01-1.74,16.57-1.73,2.59.01,5.27.11,7.85.36,1.73.23,3.74.28,5.23,1.29,3.82-1.58,8.14-1.41,12.21-1.62,5.8-.1,11.65.12,17.44.5"/><path class="c" d="M8.37,78.63c5.23.11,10.55.16,15.7,1.05,1.91-.68,4.1-.74,6.1-.93,3.17-.23,6.42-.33,9.59-.34,2.59,0,5.27.04,7.85.21,2.01.2,4.28.19,6.1,1.16.84-.05,1.8-.64,2.62-.82,3.12-.76,6.4-1.04,9.59-1.35,6.36-.6,12.8-.86,19.18-.68,3.18.09,6.44.28,9.59.7,1.75.33,3.95.34,5.23,1.74,1.98-2.08,11.71-1.41,14.82-1.32,2,.12,4.11.31,6.1.55,1.45.18,3.14.36,4.36,1.23,1.16-.99,2.91-1.08,4.36-1.3,2.28-.27,4.68-.4,6.98-.45,2.88-.06,5.85-.02,8.72.18,2.34.16,4.8.43,6.98,1.35,1.5-.98,3.5-1.05,5.23-1.29,2.28-.24,4.68-.36,6.98-.43,6.38-.16,12.81.03,19.18.37"/><path class="c" d="M8.37,76.31c6.06.21,12.4-.29,18.31,1.21,1.86-.85,4.1-.84,6.1-1.05,3.17-.23,6.42-.31,9.59-.3,2.29.02,4.69.09,6.98.28,1.73.23,3.85.17,5.23,1.38,3.51-3.3,38.24-4.21,41.86-.88,3.89-2.09,14.5-1.38,19.18-1.12,1.7.13,3.54.32,5.23.51,1.44.2,3.18.28,4.36,1.23,2.79-2.09,21.5-2.04,24.42-.07,4.44-1.59,9.28-1.61,13.95-1.83,6.67-.17,13.39-.04,20.06.26"/><path class="c" d="M8.37,74.03c5.51,0,11.08-.07,16.57.45.78.08,1.85.23,2.62.42.44.26,1.26.38,1.74.22,2.2-.74,4.68-.79,6.98-.97,3.17-.18,6.42-.22,9.59-.13,2,.06,4.12.18,6.1.44,1.2.17,2.68.38,3.49,1.38.99-1.31,2.86-1.44,4.36-1.74,2.28-.37,4.68-.58,6.98-.77,5.2-.4,10.48-.53,15.7-.33,2,.08,4.12.23,6.1.47,1.43.21,3.09.38,4.36,1.14.82-.05,1.81-.55,2.62-.68,1.68-.31,3.53-.46,5.23-.56,4.34-.22,8.75-.14,13.08.16,2,.14,4.11.35,6.1.58,1.73.27,3.83.2,5.23,1.39,1.2-.92,2.92-.98,4.36-1.16,2.28-.21,4.68-.27,6.98-.25,2.29.02,4.69.12,6.98.37,1.46.2,3.22.31,4.36,1.36,1.32-1.33,3.49-1.32,5.23-1.63,2.87-.35,5.83-.52,8.72-.63,7.25-.22,14.55-.14,21.8.15"/><path class="c" d="M8.37,71.79c4.63-.06,9.32-.11,13.95.09,2.92.08,5.9.41,8.72,1.15,1.87-.84,4.1-.85,6.1-1.04,2.87-.19,5.84-.25,8.72-.19,2,.04,4.12.14,6.1.36,1.47.21,3.3.28,4.36,1.47,1.02-1.27,2.87-1.4,4.36-1.69,2.57-.39,5.25-.61,7.85-.77,4.04-.24,8.16-.29,12.21-.11,3.21.19,6.59.28,9.59,1.57,1.24-.84,2.92-.97,4.36-1.17,1.69-.19,3.53-.31,5.23-.37,7.85-.22,15.81.12,23.54,1.54.77.37,1.85.57,2.62.1,1.08-.25,2.39-.38,3.49-.46,5.53-.29,11.23-.3,16.57,1.2,1.81-1.03,4.08-1.14,6.1-1.43,2.87-.32,5.84-.49,8.72-.59,7.54-.23,15.13-.21,22.67.07"/><path class="c" d="M8.37,69.58c4.92-.11,9.9-.2,14.82,0,3.21.1,6.5.38,9.59,1.27,1.86-.87,4.1-.87,6.1-1.06,2.58-.16,5.26-.21,7.85-.16,2,.04,4.12.14,6.1.36,1.46.22,3.27.28,4.36,1.4,2.39-2.86,26.48-3.12,29.65-.89,5.02-1.68,10.45-1.6,15.7-1.68,6.7.05,13.48.45,20.06,1.76.75.47,1.84.34,2.62.02,1.38-.26,2.96-.36,4.36-.42,2.88-.1,5.85-.04,8.72.21,1.72.2,3.72.26,5.23,1.2,2.21-.86,4.61-1.37,6.98-1.58,3.45-.38,6.99-.57,10.46-.69,7.54-.19,15.13-.25,22.67.03"/><path class="c" d="M8.37,67.4c6.96-.22,13.98-.42,20.93.25,1.1.12,2.41.29,3.49.58.42.24,1.26.43,1.74.35,3.61-1.53,20.37-1.69,23.54.38,4.7-1.72,9.86-1.73,14.82-1.83,2.29,0,4.69.08,6.98.31,1.44.2,3.19.27,4.36,1.24,3.83-3.05,33.75-2.49,37.5.54.9-.82,2.34-.85,3.49-.96,1.99-.15,4.11-.17,6.1-.12,2,.05,4.12.16,6.1.39,1.47.23,3.31.28,4.36,1.48,1.91-2.32,13.16-2.41,16.57-2.67,8.41-.28,16.87-.4,25.29-.09"/><path class="c" d="M8.37,65.26c5.5-.24,11.06-.41,16.57-.21,2,.07,4.12.2,6.1.42,1.43.2,3.12.31,4.36,1.12,3.85-1.44,8.16-1.2,12.21-1.29,4.08.11,8.36.09,12.21,1.6,2.45-1.99,19.44-2.39,21.8-.26,1.8-1.09,4.06-1.31,6.1-1.58,2.87-.32,5.84-.47,8.72-.53,4.34-.08,8.75.04,13.08.41,3.22.27,6.52.66,9.59,1.7,1.03-.49,2.37-.54,3.49-.61,1.99-.1,4.11-.1,6.1-.04,3.74.27,7.93.05,11.34,1.81,2.49-2.14,13.67-2.23,17.44-2.52,8.7-.29,17.46-.5,26.16-.14"/><path class="c" d="M8.37,63.14c5.79-.32,11.64-.52,17.44-.32,3.73.28,7.9.05,11.34,1.67,2.46-1.98,21.17-1.76,23.54.42,2.96-1.39,6.39-1.38,9.59-1.49,2.87.08,6.05-.16,8.72,1.05.48-.02,1.33-.3,1.74-.54.76-.24,1.83-.48,2.62-.61,5.17-.81,10.47-.95,15.7-.91,3.47.05,7.01.22,10.46.59,2.33.29,4.84.5,6.98,1.55,1.25-.78,2.94-.77,4.36-.85,1.7-.04,3.53-.02,5.23.05,3.19.16,6.47.37,9.59,1.06.81.16,1.78.76,2.62.78,2.06-1.19,4.67-1.22,6.98-1.55,3.75-.37,7.57-.58,11.34-.75,8.99-.32,18.04-.63,27.03-.19"/><path class="c" d="M8.37,61.05c6.08-.4,12.22-.65,18.31-.45,2.3.08,4.69.21,6.98.48,1.42.19,3.07.36,4.36,1.04,4.24-1.08,8.71-1.18,13.08-1.06,2,.06,4.12.19,6.1.43,1.75.23,3.71.49,5.23,1.46,1.96-1.38,4.68-1.16,6.98-1.34,2.59.05,5.51-.16,7.85,1.13,3.06-3.19,33.5-3.31,36.62-.19,2.18-2.24,19.28-.98,21.8.96.48-.01,1.33-.28,1.74-.51,1.07-.32,2.38-.52,3.49-.66,4.91-.55,9.9-.7,14.82-.95,9.28-.37,18.62-.83,27.9-.28"/><path class="c" d="M8.37,58.98c6.37-.5,12.8-.78,19.18-.58,2.3.07,4.69.21,6.98.46,1.74.22,3.69.42,5.23,1.31,2.97-2.1,20.21-1.44,23.54.46.92.28,1.73-.37,2.62-.48,1.68-.28,3.53-.33,5.23-.26.78.04,1.85.16,2.62.34.82.47,1.86.4,2.62-.15,6.48-2.24,28.82-2.72,34.88,0,4.24-1.13,8.72-1.07,13.08-.74,2.01.16,4.13.41,6.1.81,1.17.25,2.6.57,3.49,1.43,2.35-1.33,5.23-1.27,7.85-1.46,3.76-.16,7.58-.09,11.34-.31,10.14-.63,20.37-1.4,30.52-.62"/><path class="c" d="M8.37,56.93c6.65-.6,13.38-.93,20.06-.72,2.29.07,4.69.21,6.98.45,1.72.25,3.74.31,5.23,1.3,3.75-1.89,21.04-1.49,24.42.94,2.48-.75,5.4-1.16,7.85-.11,6.06-2.33,12.75-2.44,19.18-2.61,3.17-.03,6.43.06,9.59.32,2.63.24,5.41.47,7.85,1.55,2.72-1.91,20.95-1.46,22.67,1.58,1-1.29,2.87-1.29,4.36-1.46,2.28-.13,4.74-.28,6.98.26,4.54-.98,9.3-1.26,13.95-.82.79.07,1.82.39,2.62.44,1.91-.68,4.1-.71,6.1-.89,5.79-.27,11.68-.51,17.44.18"/><path class="c" d="M8.37,54.9c6.65-.69,13.37-1.04,20.06-.88,2.59.06,5.27.2,7.85.47,1.72.23,3.68.34,5.23,1.18,4.8-1.29,9.9-1.07,14.82-.81,2.01.14,4.13.37,6.1.73,1.5.32,3.35.57,4.36,1.86.86-.95,2.31-.92,3.49-.77.45.2,1.27.29,1.74.17,2.33-1.37,5.23-1.6,7.85-2.01,5.48-.67,11.06-.82,16.57-.61,2,.08,4.12.23,6.1.48,1.43.21,3.09.38,4.36,1.12,3.65-1.08,7.55-1.12,11.34-1.04,4.11.18,8.48.27,12.21,2.19,1.74-1.16,4.09-1.03,6.1-1.14,1.42.05,3.15-.14,4.36.74,2.64-2.35,20.24-2.3,23.54-.56,2.68-1.16,5.85-.85,8.72-1.03,3.47.03,7.07-.13,10.46.66"/><path class="c" d="M8.37,52.89c6.93-.8,13.95-1.18,20.93-1,2.59.07,5.27.21,7.85.49,1.72.25,3.74.3,5.23,1.3,4.33-1.79,13.51-1.04,18.31-.51,1.72.23,3.58.55,5.23,1.09,1.12.33,2.25,1.45,3.49,1l.87.84c1.15-4.66,31.53-4.98,34.88-2.2,1.57-.82,3.5-.96,5.23-1.09,1.99-.14,4.11-.16,6.1-.12,2.89.08,5.88.23,8.72.83.44.09,1.32.35,1.74.5.4.29,1.24.59,1.74.53,2.27-1.16,8.11-1.36,10.46-.42,5.26-1.87,11.05-1.73,16.57-1.76,2.3.05,4.7.18,6.98.46,1.43.21,3.1.36,4.36,1.14,2.79-.88,5.83-.83,8.72-.82,2.6.13,5.53-.11,7.85,1.27"/><path class="c" d="M8.37,50.87c6.93-.88,13.95-1.26,20.93-1.11,2.59.06,5.27.19,7.85.45,1.72.21,3.63.36,5.23,1.06,1.13.16,2.35-.55,3.49-.56,3.45-.36,7-.31,10.46-.11,2.9.19,5.89.5,8.72,1.19,1.68.41,3.6,1.08,4.36,2.78.78-1.69,2.67-2.37,4.36-2.8,2.54-.66,5.24-1.01,7.85-1.26,4.33-.39,8.74-.48,13.08-.29,2.89.23,6.03.17,8.72,1.36,1.13-.02,2.35-.63,3.49-.68,2.86-.34,5.84-.37,8.72-.29,2,.07,4.12.21,6.1.45,1.45.22,3.16.44,4.36,1.35,2.21-.82,4.62-1.17,6.98-1.16,1.7.07,3.77-.2,5.23.85,2.81-2.83,29.05-2.99,31.39.25.64-.67,1.73-.89,2.62-.94,1.09-.09,2.39-.12,3.49-.1,2,.16,4.42-.15,6.1,1.12.4-.29,1.27-.77,1.74-.93"/><path class="c" d="M8.37,48.85c6.92-.93,13.95-1.33,20.93-1.19,2.59.06,5.27.18,7.85.45,1.72.25,3.75.27,5.23,1.28,1.84-.94,4.09-.93,6.1-1.06,2.59-.1,5.27-.06,7.85.1,3.2.22,6.49.53,9.59,1.4,1.49.32,2.78,1.62,4.36,1.53,2.32-1.51,5.14-2.09,7.85-2.48,3.44-.5,6.99-.72,10.46-.77,2.88-.04,5.85.04,8.72.31,1.72.21,3.68.31,5.23,1.15,4.23-1.17,8.72-1.12,13.08-.94,1.7.09,3.54.25,5.23.5,1.2.18,2.65.44,3.49,1.4,1.88-1.55,4.67-1.33,6.98-1.53,1.99.08,4.42-.32,6.1.93.9-.85,2.31-1.12,3.49-1.34,1.98-.36,4.1-.57,6.1-.71,7.54-.4,15.28-.38,22.67,1.31.8.19,1.78.78,2.62.84.41-.17,1.3-.37,1.74-.4,2.31-.15,4.8-.1,6.98.76.67-.58,1.77-.99,2.62-1.19"/><path class="c" d="M8.37,46.83c6.34-.9,12.78-1.29,19.18-1.25,4.65.13,9.49.05,13.95,1.51,3.92-1.97,25.04-1.28,27.9,2.21l.87-.35.87.39c2.73-3.8,27.63-4.31,31.39-1.68,3.07-1.69,17.3-1.54,20.06.62.9-.83,2.32-1.03,3.49-1.2,1.39-.19,2.96-.29,4.36-.32,1.97.11,4.51-.33,6.1,1.03,3.57-3.64,33.7-3.03,37.5.62,1.88-.84,4.23-.6,6.1.14.9-.85,2.32-1.23,3.49-1.5"/><path class="c" d="M8.37,44.81c6.04-.91,12.2-1.28,18.31-1.26,4.38,0,8.84.21,13.08,1.28,4.36-1.9,27.83-1.47,30.52,2.44l.87-.36.87.74c.93-1.93,3.36-2.14,5.23-2.58,3.72-.69,7.56-.93,11.34-1,2.88-.04,5.85.04,8.72.32,1.74.28,3.94.17,5.23,1.54.86-.92,2.31-1.01,3.49-1.13,1.39-.13,2.96-.18,4.36-.18,2,0,4.12.11,6.1.38,1.19.17,2.64.4,3.49,1.34.84-.96,2.3-1.14,3.49-1.34,1.69-.26,3.53-.4,5.23-.45,1.4-.04,2.97-.02,4.36.11.91.04,2.02.32,2.62,1.07,1.51-2.58,14.99-2.61,18.31-2.65,5.53.05,11.13.39,16.57,1.44,1.11.22,2.42.54,3.49.9.81.25,1.77.92,2.62,1.08.78-.26,1.87-.2,2.62.15,1.4-.51,2.86-1.36,4.36-1.6"/><path class="c" d="M8.37,42.81c7.18-1.18,14.53-1.49,21.8-1.21,1.7.08,3.55.21,5.23.5.81.11,1.78.66,2.62.48,5.77-2,29.49-1.53,34.01,2.44l.87-.27.87.31c2.21-2.35,8.99-2.47,12.21-2.75,5.23-.15,10.66-.3,15.7,1.26,2.41-1.2,12.74-1.3,14.82.41,2.89-1.55,6.4-1.41,9.59-1.68,1.7-.07,3.54-.08,5.23.03,1.17.1,2.63.15,3.49,1.06.85-.96,2.29-1.23,3.49-1.47,1.98-.37,4.1-.61,6.1-.78,7.54-.58,15.17-.44,22.67.5,3.88.55,7.96,1.12,11.34,3.24.88.14,1.93-.34,2.62-.86.74-.35,1.82-.7,2.62-.9"/><path class="c" d="M8.37,40.86c6.86-1.34,13.96-1.55,20.93-1.31,1.4.07,2.97.18,4.36.4,1.16.21,2.35.86,3.49.17,6.91-1.59,31.3-1.48,36.62,2.63.78-.25,1.84-.39,2.62-.06,3.45-1.8,7.53-1.85,11.34-2.06,3.78-.08,7.69-.03,11.34,1.05,2.16-.87,4.68-.75,6.98-.83,2.32.05,4.85.03,6.98,1.07,1.19-.95,2.91-1.14,4.36-1.39,2.28-.33,4.68-.46,6.98-.55,1.99-.07,4.11-.08,6.1.07,1.14.1,2.54.19,3.49.9,2.31-1.41,5.23-1.51,7.85-1.88,3.74-.39,7.57-.54,11.34-.54,5.53.02,11.1.35,16.57,1.21,3.65.62,7.53,1.26,10.46,3.67.74-1.16,2.21-1.79,3.49-2.13"/><path class="c" d="M8.37,39.02c4.12-1.52,22.71-2.65,26.16-.41,1.19-.93,2.92-.97,4.36-1.18,2.28-.25,4.68-.39,6.98-.47,6.1-.19,12.25,0,18.31.66,2.3.26,4.7.6,6.98,1.04,1.74.38,3.71.7,5.23,1.68,1.4-.09,2.93-.51,4.36-.34.82.02,1.82.48,2.62.1,2.22-.64,4.68-.66,6.98-.54.79.04,1.82.39,2.62.27,2.51-.72,5.25-.76,7.85-.86,2.62-.1,5.32.11,7.85.79,3.2-2.15,21.02-3.08,24.42-1.24,7.78-3.52,42-3.27,47.96,2.75.61-.76,1.69-1.49,2.62-1.78"/><path class="c" d="M8.37,37.02c1.14,0,2.34-.72,3.49-.81,3.14-.53,6.41-.75,9.59-.86,4.05-.04,8.29-.28,12.21.93,1.56-.83,3.51-.9,5.23-1.12,2.87-.28,5.84-.42,8.72-.49,6.98-.14,14,.2,20.93,1.04,2.3.28,4.7.62,6.98,1.02,1.73.39,3.8.5,5.23,1.65,1.25-.79,2.93-.79,4.36-.92,1.7-.11,3.53-.19,5.23-.25,3.75-.05,7.64-.4,11.34.36l.87.8c.97-1.36,2.86-1.43,4.36-1.76,2.57-.45,5.25-.76,7.85-.99,4.91-.39,9.91-.57,14.82-.1,1.19.02,2.35.74,3.49.61,8.31-3.61,41.56-2.76,48.83,2.7.5-.13,1.35-.64,1.74-.97"/><path class="c" d="M8.37,34.43c.43.14,1.3.35,1.74.42,2.7-1.71,20.21-2.5,22.67-.57,2.06-1.18,4.67-1.13,6.98-1.43,3.17-.27,6.42-.4,9.59-.44,9.91-.16,19.81.82,29.65,1.95,3.75.39,7.56.94,11.34,1.02,2.3.01,4.69-.29,6.98-.56,6.94-.84,13.93-1.63,20.93-1.86,4.63,0,9.51-.44,13.95,1.1,1.75-1.17,4.08-1.27,6.1-1.6,2.87-.36,5.83-.56,8.72-.67,8.44-.28,16.95.12,25.29,1.52,3.55.76,7.54,1.1,10.46,3.44l.87-.18"/><path class="c" d="M8.37,32.06c.8.1,1.8.52,2.62.49.42-.22,1.28-.52,1.74-.6,1.68-.35,3.52-.54,5.23-.67,3.17-.24,6.42-.31,9.59-.17,1.72.2,3.9-.06,5.23,1.22,1.32-1.33,3.5-1.18,5.23-1.49,3.16-.34,6.41-.51,9.59-.6,9.31-.29,18.63.43,27.9,1.12,7.24.56,14.55.84,21.8.36,5.15-.13,32.17-2.94,34.01.61.58-.87,1.62-1.32,2.62-1.49,1.38-.31,2.95-.54,4.36-.71,6.06-.69,12.22-.81,18.31-.6,6.42.24,12.88.87,19.18,2.16,1.71.37,3.58.76,5.23,1.36,1.07.31,2.1,1.09,2.62,2.09"/><path class="c" d="M8.37,29.78c.82.09,1.91.3,2.62.75,3.23-1.45,6.99-1.37,10.46-1.62,2.88-.1,5.85-.1,8.72.19.45.04,1.3.19,1.74.28.48.23,1.23.36,1.74.24,1.91-.73,4.09-.85,6.1-1.08,3.17-.29,6.42-.44,9.59-.51,11.34-.28,22.67.86,34.01,1.09,9.88.26,19.77-.5,29.65-.77,3.46-.09,7-.13,10.46.02,2.3.21,4.91.05,6.98,1.22,4.94-1.99,10.45-2,15.7-2.32,7.26-.25,14.58.03,21.8.9,2.9.35,5.86.82,8.72,1.4,2.34.51,4.9.93,6.98,2.2"/><path class="c" d="M8.37,27.56c.81.09,1.87.28,2.62.61.84.01,1.81-.5,2.62-.64,1.09-.22,2.38-.39,3.49-.5,3.16-.31,6.42-.42,9.59-.36,2.29.12,4.81.02,6.98.9,5.09-1.32,10.45-1.5,15.7-1.67,10.17-.28,20.35.47,30.52.61,10.17.22,20.36-.26,30.52-.48,5.22-.07,10.5-.19,15.7.33.77.09,1.86.26,2.62.47.35.23,1.31.45,1.74.42,1.81-1.04,4.08-1.2,6.1-1.52,2.87-.36,5.83-.57,8.72-.68,7.85-.3,15.75.03,23.54,1.01,4.93.77,10.19,1.25,14.82,3.18"/><path class="c" d="M8.37,25.38c.8.09,1.87.28,2.62.6.84.04,1.81-.5,2.62-.64,1.08-.22,2.39-.4,3.49-.51,3.45-.35,7-.46,10.46-.38,2.61.08,5.36.17,7.85,1.07,2.1-1.09,4.68-1.05,6.98-1.34,3.75-.31,7.57-.44,11.34-.48,9.88-.04,19.77.45,29.65.36,9.59,0,19.19-.37,28.78-.39,3.47,0,7,.03,10.46.23,2.32.22,4.94.17,6.98,1.45,2.28-2.02,10.66-2.18,13.95-2.46,8.43-.4,16.92-.08,25.29.97,4.95.76,10.11,1.25,14.82,3.01"/><path class="c" d="M8.37,23.24c.81.09,1.89.3,2.62.68,4.45-1.54,9.29-1.59,13.95-1.73,3.74.09,7.76-.21,11.34,1.05,1.14.03,2.35-.65,3.49-.73,2.86-.43,5.83-.61,8.72-.75,8.71-.4,17.45,0,26.16-.06,11.33,0,22.68-.34,34.01-.34,4.05,0,8.16.06,12.21.26,1.4.07,2.97.19,4.36.37,1.16.17,2.58.36,3.49,1.18,1.76-1.2,4.05-1.44,6.1-1.77,2.87-.39,5.83-.61,8.72-.75,8.43-.38,16.92-.04,25.29,1,4.95.76,10.09,1.23,14.82,2.93"/><path class="c" d="M8.37,21.13c.86.08,1.97.34,2.62.96,2.38-2.61,23.67-2.76,27.03-.93.83.01,1.81-.48,2.62-.61,1.09-.21,2.39-.37,3.49-.47,5.78-.54,11.64-.59,17.44-.58,13.66.1,27.33-.4,40.98-.43,4.93-.01,9.9.04,14.82.24,3.44.29,7.28-.02,10.46,1.45.51.03,1.33-.26,1.74-.53,1.07-.37,2.38-.63,3.49-.81,6.33-.96,12.79-1.15,19.18-1.08,6.7.1,13.43.64,20.06,1.63,3.77.67,7.74,1.03,11.34,2.43"/><path class="c" d="M8.37,19.05c.8.1,1.84.45,2.62.65,1.52-.96,3.5-1.09,5.23-1.36,2.58-.32,5.26-.48,7.85-.56,4.34-.1,8.77-.07,13.08.53,1.15.07,2.35.77,3.49.76,2.15-.94,4.67-.96,6.98-1.2,3.75-.28,7.58-.37,11.34-.42,14.53-.02,29.07-.75,43.6-.67,4.93.02,9.9.11,14.82.37,3.5.24,7.19.21,10.46,1.62,1.72-1.25,4.07-1.36,6.1-1.71,3.16-.42,6.41-.66,9.59-.79,8.72-.35,17.5.04,26.16,1.17,2.6.34,5.27.77,7.85,1.24,2.03.38,4.22.71,6.1,1.59"/><path class="c" d="M8.37,16.99c.46.05,1.32.31,1.74.51.85.02,1.81-.56,2.62-.73,1.97-.46,4.1-.69,6.1-.87,4.62-.39,9.32-.47,13.95-.26,3.2.23,6.63.21,9.59,1.58,2.04-1.21,4.68-1.09,6.98-1.37,3.75-.27,7.58-.36,11.34-.43,8.13-.07,16.29-.5,24.42-.7,8.71-.22,17.45-.29,26.16.02,3.18.12,6.43.29,9.59.56,1.09.09,2.41.24,3.49.45.96.12,2.06.57,2.62,1.42,1.14-1.64,3.44-1.68,5.23-2.06,3.15-.49,6.41-.76,9.59-.93,9.01-.46,18.08-.12,27.03,1,2.89.36,5.85.83,8.72,1.35,2.03.39,4.26.68,6.1,1.67"/><path class="c" d="M8.37,14.94c.48.05,1.34.39,1.74.66,4-2.73,30.33-3.23,34.01-.35,1.83-1.01,4.07-1.1,6.1-1.32,3.17-.27,6.42-.37,9.59-.46,6.97-.12,13.96-.54,20.93-.81,9.58-.37,19.2-.48,28.78-.12,3.18.12,6.43.3,9.59.57,2.3.3,4.96.19,6.98,1.48,2.19-.96,4.6-1.52,6.98-1.79,3.45-.46,6.99-.71,10.46-.84,8.72-.32,17.5.07,26.16,1.21,2.6.34,5.27.78,7.85,1.25,2.03.42,4.33.63,6.1,1.79"/></svg>