<?xml version="1.0" encoding="UTF-8"?><svg id="a" xmlns="http://www.w3.org/2000/svg" width="1920" height="2400" viewBox="0 0 192 240"><defs><style>.b,.c{stroke-width:0px;}.c{fill:#f63;}</style></defs><rect class="b" width="192" height="240"/><path class="c" d="M8.42,225.16c9.86-.47,19.75-1.21,29.63-1.01,3.17.05,6.42.16,9.59.41,2.3.29,4.93.2,6.97,1.4,2.98-1.28,6.4-1.22,9.59-1.41,4.93-.13,9.91.14,14.81.55,2.59.22,5.27.5,7.84.84,1.71.29,3.69.37,5.23,1.24,4.47-1.41,9.31-1.38,13.94-1.9,4.62-.28,19.39-1.65,22.66.83,2.67-1.87,10.49-1.57,13.94-1.61,3.18.07,6.44.29,9.59.76,2.74.44,5.71.98,7.84,2.89.85-.38,1.75-1.26,2.61-1.61,1.91-.81,4.07-1.29,6.1-1.67,4.87-.9,9.87-1.16,14.81-1.28"/><path class="c" d="M8.42,223.34c9.86-.68,19.74-1.44,29.63-1.29,3.47.04,7,.15,10.46.41,2.3.26,4.84.26,6.97,1.25,6.22-1.63,12.8-1.22,19.17-.84,2.3.17,4.69.39,6.97.72,1.45.28,3.29.29,4.36,1.46.64-.69,1.72-.94,2.61-1.03,1.39-.19,2.96-.32,4.36-.42,3.46-.25,6.99-.47,10.46-.69,4.59-.16,23.67-1.75,26.14,1.23,1.04-1.22,2.89-1.22,4.36-1.44,2.28-.24,4.68-.32,6.97-.33,3.96.08,16.21.19,18.3,3.56l.87-.59.87.36c3.38-3.7,17.49-4.12,22.66-4.29"/><path class="c" d="M8.42,222.28c3.32-1.15,6.99-1.21,10.46-1.59,5.49-.45,11.05-.67,16.56-.7,4.34-.02,8.74.06,13.07.33,1.7.11,3.54.27,5.23.49,1.14.17,2.54.33,3.49,1.05,1.27-.77,2.92-.87,4.36-1.01,1.99-.17,4.1-.19,6.1-.14,2.89.08,5.86.27,8.71.71,1.15.07,2.35.8,3.49.68,1.92-.65,4.1-.67,6.1-.85,2.88-.18,5.84-.31,8.71-.44,6.67-.28,13.37-.64,20.04-.71,3.76-.02,7.6,0,11.33.47.78.1,1.85.3,2.61.51.39.26,1.27.46,1.74.37,4.44-2,24.45-1.61,27.89,1.65.76-.23,1.81-.48,2.61-.35l.87.62c2.49-3.46,17.32-3.97,21.79-4.1"/><path class="c" d="M8.42,219.04c1.1.03,2.4.12,3.49.26.8.09,1.8.51,2.61.46,1.61-.67,3.52-.8,5.23-1.01,5.49-.56,11.05-.76,16.56-.81,5.22-.04,10.48.08,15.69.47,1.4.11,2.97.26,4.36.44,1.2.18,2.7.27,3.49,1.32,1.21-1.41,3.53-1.04,5.23-1.18,2.62-.04,5.31.23,7.84.9,3.59-1.16,7.59-.93,11.33-1.22,5.79-.23,11.63-.39,17.43-.58,5.5-.16,11.05-.3,16.56-.19,4.09.11,8.32.19,12.2,1.59,4.2-2.13,16.87-1.33,21.79-.57,1.74.31,3.72.6,5.23,1.59.46.11,1.32-.02,1.74-.24,1.1-.18,2.47-.21,3.49.31,2.45-1.19,5.14-1.94,7.84-2.32,4.3-.71,8.72-.97,13.07-1.08"/><path class="c" d="M8.42,216.58c2.87.14,5.99-.01,8.71,1.02,5.38-1.27,11.02-1.47,16.56-1.63,6.67-.17,13.38-.06,20.04.36,4.34.17,8.72,1.02,13.07.79,11.88-.99,23.82-1.16,35.73-1.41,5.21-.09,10.47-.15,15.69,0,4.1.1,8.3.33,12.2,1.62,1.54-.86,3.51-.94,5.23-1.12,2.28-.18,4.68-.23,6.97-.2,4.97.18,10.21.23,14.81,2.3.99-.6,2.36-.69,3.49-.7,1.15,0,2.56.09,3.49.87,2.6-2.86,15.05-3.22,19.17-3.39"/><path class="c" d="M8.42,214.26c2.88.03,5.85.13,8.71.51,1.15.06,2.35.71,3.49.7,1.88-.8,4.09-.86,6.1-1.09,2.87-.24,5.83-.36,8.71-.44,5.8-.14,11.64-.05,17.43.18,4.92.17,9.89.56,14.81.32,12.18-.65,24.4-.93,36.6-1.01,4.92-.03,9.9,0,14.81.21,2,.08,4.12.21,6.1.46,1.43.21,3.1.4,4.36,1.17,4.76-1.46,9.86-1.45,14.81-1.32,2.3.08,4.7.25,6.97.57,1.76.29,3.78.53,5.23,1.66,1.17-.97,2.92-.93,4.36-1.01,1.74-.09,3.58.21,5.23.75,3.51-2.42,12.99-2.63,17.43-2.86"/><path class="c" d="M8.42,212.03c2.88,0,5.84.1,8.71.36,1.72.21,3.7.26,5.23,1.15,2.21-.81,4.64-1.04,6.97-1.22,3.17-.24,6.41-.35,9.59-.4,11.32-.22,22.67.68,33.99-.07,11.6-.5,23.24-.69,34.86-.59,4.05.05,8.16.15,12.2.38,2,.11,4.12.28,6.1.61,1.22.21,2.71.47,3.49,1.55.98-1.32,2.87-1.35,4.36-1.59,2.86-.33,5.83-.4,8.71-.37,2.89.05,5.86.21,8.71.62,1.5.28,3.38.38,4.36,1.71,1.22-1.48,3.49-1.21,5.23-1.37,2.34-.11,4.75.16,6.97.89,3.38-2.22,11.51-2.34,15.69-2.58"/><path class="c" d="M8.42,209.86c5.53.05,11.21.03,16.56,1.55,1.86-.86,4.09-.87,6.1-1.09,2.58-.19,5.26-.3,7.84-.36,7.25-.18,14.54.01,21.79,0,6.09.02,12.21-.43,18.3-.6,8.41-.27,16.86-.37,25.27-.28,6.67.12,13.41.21,20.04.95,1.1.15,2.42.38,3.49.73,0,0,.87.43.87.43,0,0,.87-.02.87-.02,3.27-1.92,22.99-2.07,25.27.55,1.61-1.4,4.1-1.1,6.1-1.29,2.9-.01,6.02-.1,8.71,1.14,2.81-2.12,10.31-2.19,13.94-2.44"/><path class="c" d="M8.42,207.77c3.47-.03,7,.06,10.46.32,2.62.22,5.38.41,7.84,1.4,2.1-1.07,4.68-.95,6.97-1.2,3.46-.22,6.99-.3,10.46-.35,9.58-.1,19.19,0,28.76-.54,11.6-.51,23.25-.66,34.86-.34,4.05.12,8.16.31,12.2.62,1.7.12,3.55.3,5.23.59,1.17.2,2.57.54,3.49,1.36,1.11-1.1,2.9-1.2,4.36-1.43,1.99-.24,4.1-.37,6.1-.42,4.95-.06,10.05-.1,14.81,1.35,2.97-1.22,6.43-.93,9.59-1,1.4.03,2.97.12,4.36.29,1.19.15,2.64.37,3.49,1.31,1.01-1.27,2.87-1.45,4.36-1.75,2.56-.43,5.25-.63,7.84-.74"/><path class="c" d="M8.42,205.74c6.69,0,13.55-.03,20.04,1.66,2.16-.9,4.68-.85,6.97-1.06,3.17-.19,6.41-.27,9.59-.34,8.12-.16,16.28-.17,24.4-.57,12.18-.62,24.41-.86,36.6-.44,4.34.15,8.74.38,13.07.74,2.88.37,6.18.2,8.71,1.79,3.83-1.59,8.12-1.56,12.2-1.71,2.29-.03,4.69.01,6.97.18,1.73.15,3.65.29,5.23,1.06,2.22-1.65,19.05-1.73,20.91.4,3.08-1.87,6.98-1.74,10.46-2.06"/><path class="c" d="M8.42,203.78c4.34-.09,8.74.03,13.07.35,1.4.11,2.97.26,4.36.46,1.15.18,2.58.34,3.49,1.16,1.73-1.19,4.1-1.01,6.1-1.26,3.17-.22,6.41-.32,9.59-.4,8.12-.22,16.28-.34,24.4-.76,11.89-.64,23.83-.86,35.73-.37,4.64.19,9.32.5,13.94.95,2,.2,4.14.41,6.1.89.8.17,1.79.77,2.61.84,1.25-.8,2.92-.97,4.36-1.18,1.69-.21,3.53-.34,5.23-.41,4.06-.16,8.22-.16,12.2.68,3.88-1.49,21.84-1.62,25.27.45.84-.05,1.8-.64,2.61-.81,1.96-.46,4.09-.65,6.1-.79"/><path class="c" d="M8.42,201.92c4.34-.12,8.74-.02,13.07.27,1.7.12,3.54.28,5.23.52,1.14.17,2.53.38,3.49,1.08,2.01-1.25,4.69-.96,6.97-1.24,3.75-.22,7.57-.31,11.33-.44,9.29-.29,18.6-.7,27.89-1.17,10.74-.44,21.52-.41,32.24.33,3.47.24,7.01.57,10.46,1.01,1.4.18,2.97.39,4.36.68,1.22.25,2.7.6,3.49,1.65,1.46-1.66,4.08-1.41,6.1-1.71,1.39-.1,2.96-.16,4.36-.14.81,0,1.9.05,2.61.5.69-.53,1.78-.72,2.61-.83,1.39-.2,2.96-.35,4.36-.46,3.46-.27,6.99-.41,10.46-.46,4.93-.05,9.91.03,14.81.56,1.1.13,2.42.33,3.49.63.4.22,1.29.47,1.74.49,1.79-1.07,4.08-1.12,6.1-1.35"/><path class="c" d="M8.42,200.19c4.05-.16,8.16-.09,12.2.14,3.19.24,6.54.33,9.59,1.42,1.86-.85,4.1-.76,6.1-.96,2.88-.17,5.84-.26,8.71-.37,7.54-.3,15.12-.67,22.66-1.05,10.14-.63,20.34-.94,30.5-.52,3.76.16,7.59.4,11.33.81,2.91.34,5.94.67,8.71,1.68,1.35-.44,2.96-.36,4.36-.29,1.14.1,2.52.27,3.49.95,3.53-1.61,7.5-1.9,11.33-2.22,5.2-.39,10.47-.46,15.69-.44,5.22.03,10.48.13,15.69.43,3.48.32,7.22.23,10.46,1.7,1.19-.93,2.91-1.05,4.36-1.24"/><path class="c" d="M8.42,198.69c6.67-.29,13.52-.34,20.04,1.16,2.2-.73,4.68-.64,6.97-.8,3.75-.15,7.58-.19,11.33-.38,9.58-.57,19.18-1.24,28.76-1.73,8.12-.36,16.29-.4,24.4.2,2,.16,4.12.36,6.1.73.79.13,1.79.63,2.61.52,2.81-.67,5.84-.44,8.71-.41,2.93.08,5.95.26,8.71,1.3,1.22-.89,2.91-1.13,4.36-1.39,2.28-.36,4.67-.57,6.97-.7,5.79-.33,11.64-.26,17.43,0,4.92.23,9.89.56,14.81.82,2,.11,4.11.25,6.1.44,1.73.2,3.67.35,5.23,1.21.67-.55,1.77-.86,2.61-.98"/><path class="c" d="M8.42,197.85c1.39.49,2.94-.26,4.36-.24,2.58-.09,5.33-.18,7.84.46,2.57-.27,5.24-.59,7.84-.53,1.7.07,3.64-.14,5.23.57,1.53-.89,3.52-.84,5.23-1.07,2.87-.25,5.83-.37,8.71-.33,1.41.05,3.02.03,4.36.51,1.38-.35,2.93-.7,4.36-.84,9.54-.95,19.16-1.66,28.76-1.69,3.17,0,6.42.08,9.59.29,2.29.25,4.86.16,6.97,1.2,1.92-.69,4.09-.73,6.1-.82,2.58-.08,5.26-.05,7.84.05,1.7.07,3.54.19,5.23.35,1.47.18,3.27.25,4.36,1.38,3.95-3.49,26.41-2.56,32.24-1.72,1.43.07,2.94.71,4.36.74,2.55-.49,5.27-.23,7.84-.03,1.72.2,3.63.37,5.23,1.09,2.29-.06,4.82-.45,6.97.56.46-.02,1.33-.27,1.74-.47"/><path class="c" d="M8.42,195.15c2.28.29,4.66.78,6.97.72,4.05-.3,8.15-.78,12.2-1.08,9.55-.69,19.2-1.38,28.76-.6,1.13.04,2.37.59,3.49.59.42-.18,1.29-.44,1.74-.51,2.86-.45,5.83-.75,8.71-1.01,5.2-.43,10.47-.62,15.69-.56,4.07.09,8.25.14,12.2,1.19,1.6-.67,3.52-.69,5.23-.83,2.58-.15,5.26-.18,7.84-.14,3.76.1,7.61.21,11.33.82.81.13,1.79.69,2.61.73,3.95-2.67,26.96-2.73,31.37-.62,5.32-1.64,21.54-.64,26.14,2.43l.87-.19"/><path class="c" d="M8.42,191.95c12.48.69,24.98-.65,37.47-.66,3.46-.03,7,0,10.46.17,2.59.2,5.38.18,7.84,1.08.51.16,1.29,0,1.74-.29.76-.22,1.83-.43,2.61-.55,4.02-.58,8.14-.79,12.2-.89,2.88-.06,5.84-.03,8.71.14,1.71.17,3.67.14,5.23.94,2.47-.91,5.24-.97,7.84-1.13,3.46-.16,7-.17,10.46-.05,2.29.08,4.69.22,6.97.46,1.43.16,3.1.28,4.36,1.06,1.15-.1,2.32-.88,3.49-1.01,3.71-.71,7.56-.9,11.33-.99,5.23-.03,10.61-.05,15.69,1.33,5.91-2.07,22.68-.58,28.76,1.53"/><path class="c" d="M8.42,189.26c12.78.49,25.57-.47,38.34-.44,4.63,0,9.32.08,13.94.4,1.7.13,3.55.27,5.23.62.8.14,1.79.7,2.61.71,3.18-1.43,7.03-1.26,10.46-1.53,4.34-.1,8.82-.29,13.07.76,3.82-1.89,28.58-1.97,32.24.17,1.17.02,2.23-.83,3.49-.96,4.28-.81,8.72-.97,13.07-.99,2.59.01,5.27.11,7.84.38,1.45.21,3.24.22,4.36,1.29.9-.83,2.32-.99,3.49-1.14,1.99-.23,4.1-.33,6.1-.36,7-.13,14.03.58,20.91,1.8"/><path class="c" d="M8.42,186.77c13.36.37,26.73-.46,40.09-.3,4.34.04,8.74.16,13.07.45,3.2.31,6.72.29,9.59,1.91,1.45-1.09,3.5-1.09,5.23-1.32,2.28-.2,4.68-.27,6.97-.23,1.1.03,2.4.1,3.49.27.79.33,1.86.26,2.61-.11,6.57-1.28,13.37-1.23,20.04-1.24,2.88.04,5.84.15,8.71.37,2.35.15,4.8.39,6.97,1.34,2.35-2.38,25-3.01,27.01-.37.85-.94,2.3-1.09,3.49-1.26,1.98-.26,4.1-.38,6.1-.44,7.28-.26,14.57.46,21.79,1.36"/><path class="c" d="M8.42,184.42c13.65.28,27.31-.5,40.96-.21,4.93.09,9.9.27,14.81.69,2.31.22,4.73.51,6.97,1.1.81.19,1.77.83,2.61.87,1.28-.71,2.93-.81,4.36-.93,1.4-.06,2.99-.13,4.36.21,6.79-1.69,13.92-1.93,20.91-2.1,4.34-.07,8.74-.02,13.07.22,1.7.1,3.54.23,5.23.42,1.16.15,2.59.37,3.49,1.19,3.02-2.55,22.85-2.95,26.14-.81,3.84-1.51,8.13-1.43,12.2-1.6,6.69-.17,13.39.45,20.04,1.07"/><path class="c" d="M8.42,182.17c15.97.21,31.97-.79,47.93.09,3.77.2,7.6.46,11.33,1.04,2.76.43,5.71.95,7.84,2.9.7-1.25,2.17-1.8,3.49-2.11,1.67-.43,3.52-.74,5.23-.97,5.19-.68,10.46-.98,15.69-1.14,5.21-.15,10.48-.13,15.69.11,3.5.21,7.16.16,10.46,1.5,3.22-2.4,21.68-2.67,25.27-.59,1.21-.89,2.92-1.03,4.36-1.25,2.28-.29,4.68-.44,6.97-.52,6.97-.28,13.97.26,20.91.77"/><path class="c" d="M8.42,180.02c12.49.13,24.99-.6,37.47-.26,4.05.1,8.16.26,12.2.6,2.58.35,5.52.23,7.84,1.53,2.17-.85,4.7-.51,6.97-.38,1.49.2,3.39.22,4.36,1.54,1.7-3.29,24.22-3.22,28.76-3.29,4.05,0,8.16.1,12.2.32,2.59.25,5.53,0,7.84,1.36,3.85-1.52,8.09-1.74,12.2-1.89,4.37-.13,8.86-.04,13.07,1.14,1.55-.88,3.5-1.01,5.23-1.26,2.28-.26,4.68-.4,6.97-.49,6.68-.27,13.38.18,20.04.57"/><path class="c" d="M8.42,177.98c11.32.07,22.66-.7,33.99-.42,3.47.07,7,.2,10.46.46,2.3.25,4.81.26,6.97,1.15,3.41-.75,6.97-.86,10.46-.65,2.93.17,6.01.37,8.71,1.6.94-.75,2.33-1.03,3.49-1.24,1.69-.29,3.52-.49,5.23-.64,4.33-.36,8.73-.49,13.07-.55,4.92-.06,9.89,0,14.81.18,3.46.23,7.13-.02,10.46,1.1l.87,1.05.87-1.06c3.87-1.36,8.14-1.35,12.2-1.51,3.79-.05,7.69.04,11.33,1.17,1.53-.92,3.5-1.06,5.23-1.32,2.28-.28,4.68-.44,6.97-.54,6.67-.32,13.38.05,20.04.36"/><path class="c" d="M8.42,176.1c10.45,0,20.91-.95,31.37-.7,2.88.04,5.84.14,8.71.34,2.31.21,4.8.29,6.97,1.18,3.27-1.63,21.89-1.64,24.4.96,2.79-1.77,6.41-1.58,9.59-1.95,4.62-.3,9.31-.35,13.94-.34,4.63.02,9.31.11,13.94.27,3.51.13,7.16.07,10.46,1.41,2.3-2.11,21.6-2.9,23.53-.4.84-.96,2.29-1.2,3.49-1.42,1.98-.34,4.1-.55,6.1-.7,7.53-.58,15.12-.29,22.66.01"/><path class="c" d="M8.42,174.89c1.39-.16,3-.26,4.36.14,2.51-.75,5.25-.84,7.84-1.11,3.75-.31,7.57-.5,11.33-.58,5.21-.1,10.49-.09,15.69.41.78.08,1.85.23,2.61.41.43.24,1.27.37,1.74.22,5.13-1.33,24.76-1.82,28.76,1.08,3.21-1.58,6.96-1.52,10.46-1.78,4.63-.21,9.31-.19,13.94-.13,4.34.07,8.73.18,13.07.29,3.16.2,6.68-.19,9.59,1.27.85-.04,1.8-.63,2.61-.8,3.12-.71,6.4-.91,9.59-1.03,2.88-.07,5.85-.05,8.71.31,1.22.04,2.34.8,3.49.69,1.56-.84,3.5-1.02,5.23-1.28,2.28-.29,4.68-.48,6.97-.6,6.37-.36,12.8-.15,19.17.05"/><path class="c" d="M8.42,171.69c4.63-.03,9.38-.22,13.94.71,1.9-.72,4.1-.73,6.1-.92,2.58-.17,5.26-.25,7.84-.25,2.29,0,4.69.05,6.97.21,1.72.15,3.65.21,5.23.97,1.55-.83,3.52-.78,5.23-.99,2.29-.18,4.68-.29,6.97-.37,4.63-.2,9.33-.11,13.94.4,1.41.16,2.98.38,4.36.69.44.1,1.32.38,1.74.56,0,0,.87,1.01.87,1.01.73-1.23,2.19-1.45,3.49-1.65,1.69-.25,3.53-.39,5.23-.48,6.08-.3,12.22-.12,18.3.05,3.46.1,6.99.18,10.46.24,2,.02,4.12.04,6.1.29,1.19.15,2.65.35,3.49,1.3,2.09-2.64,20.6-3,23.53-1.2.83-.05,1.81-.61,2.61-.78,2.83-.64,5.82-.89,8.71-1.11,6.66-.49,13.37-.33,20.04-.17"/><path class="c" d="M8.42,169.18c3.46-.06,7-.06,10.46.07,2.59.16,5.35.12,7.84.94,2.7-1.33,16.4-1.38,19.17-.09,4.23-1.12,8.72-1.07,13.07-1.31,4.63-.2,9.32-.23,13.94.19,2.89.36,6.1.39,8.71,1.79.85.08,1.8-.53,2.61-.67,1.38-.29,2.95-.44,4.36-.54,6.66-.44,13.38-.11,20.04.15,3.46.14,6.99.22,10.46.22,3.5-.03,7.14-.08,10.46,1.16,1.23-.87,2.91-1.08,4.36-1.33,2.28-.34,4.67-.53,6.97-.63,4.37-.16,8.86-.18,13.07,1.03,1.26-.78,2.92-.99,4.36-1.23,2.28-.34,4.67-.56,6.97-.71,6.08-.42,12.21-.32,18.3-.21"/><path class="c" d="M8.42,166.82c4.34-.08,8.74-.07,13.07.13,2.58.23,5.4.07,7.84,1.02,3.63-1.09,7.59-.83,11.33-.72.78.05,1.84.16,2.61.29.78.3,1.85.35,2.61,0,5.74-.94,11.63-.94,17.43-1.14,4.94-.07,9.94.18,14.81,1,.78.14,1.86.39,2.61.64.38.26,1.28.55,1.74.54,1.27-.74,2.93-.88,4.36-1.05,1.99-.19,4.1-.27,6.1-.3,5.51-.07,11.06.31,16.56.64,3.75.22,7.57.24,11.33.12,1.7-.06,3.54-.03,5.23.13,1.14.12,2.52.29,3.49.96,4.34-1.91,9.28-1.91,13.94-2.15,2.29-.05,4.69-.02,6.97.16,1.43.15,3.11.23,4.36,1.04,3.55-1.51,7.53-1.67,11.33-2,5.79-.43,11.63-.36,17.43-.3"/><path class="c" d="M8.42,164.54c4.63-.1,9.32-.09,13.94.13,1.7.08,3.54.2,5.23.39,1.13.15,2.54.21,3.49.94,1.73-1.13,4.11-.79,6.1-.94,2.28.11,4.9-.2,6.97.89,1.51-.93,3.52-.84,5.23-1.08,2.58-.23,5.26-.36,7.84-.47,5.21-.21,10.49-.33,15.69.17,2.89.38,6.12.39,8.71,1.85,3.67-1.14,7.49-1.31,11.33-1.29,6.41-.05,12.81.69,19.17,1.34,6.07.5,12.4-1.54,18.3.56,3.14-2.42,22.74-3.17,26.14-1.04,3.32-1.27,6.94-1.6,10.46-1.88,5.49-.44,11.05-.41,16.56-.39"/><path class="c" d="M8.42,162.34c4.63-.11,9.32-.11,13.94.11,2.88.23,5.96.15,8.71,1.09,2.26-.51,4.66-.72,6.97-.68,2,.04,4.17.03,6.1.6.47.12,1.31,0,1.74-.21.77-.16,1.83-.32,2.61-.4,4.61-.48,9.31-.62,13.94-.74,3.76-.11,7.59.05,11.33.44,2.64.32,5.48.56,7.84,1.87,3.03-2.42,22.41-1.4,26.14.39,2.17-1.07,9.16-.84,11.33.27,2.23-.67,4.64-.96,6.97-.87,1.44.09,3.22.02,4.36,1.05,1.38-1.25,3.47-1.44,5.23-1.78,2.28-.36,4.67-.58,6.97-.72,3.17-.18,6.42-.23,9.59-.08,2.34.12,4.8.32,6.97,1.26,1.22-.88,2.92-1.06,4.36-1.31,1.69-.25,3.53-.43,5.23-.56,4.91-.39,9.89-.38,14.81-.41"/><path class="c" d="M8.42,160.2c4.34-.13,8.74-.14,13.07.05,2.88.2,5.93.19,8.71,1.03.82.16,1.81-.31,2.61-.39,1.98-.26,4.1-.31,6.1-.29,2.29.14,4.88-.07,6.97.99,3.84-1.35,8.18-1.12,12.2-1.41,4.92-.2,9.91-.27,14.81.25,2.63.33,5.5.51,7.84,1.86,2.71-2.27,20.13-1.48,23.53.13.82.09,1.81-.38,2.61-.47,1.98-.27,4.1-.31,6.1-.28,2.3.05,4.71.19,6.97.62.8.14,1.79.68,2.61.69,1.31-.58,2.95-.61,4.36-.62,1.12.03,2.5.09,3.49.68,4.87-2.2,10.44-2.22,15.69-2.56,4.05-.12,8.18-.13,12.2.43,1.15.06,2.34.81,3.49.79,2.65-1.3,5.83-1.29,8.71-1.62,4.33-.35,8.73-.36,13.07-.42"/><path class="c" d="M8.42,158.12c4.34-.15,8.74-.18,13.07.04,2.57.27,5.5.03,7.84,1.26,2.61-1.55,15.73-1.56,18.3.05,3.59-1.27,7.57-1.1,11.33-1.35,4.34-.17,8.75-.21,13.07.24,2.31.31,4.9.39,6.97,1.57,4.21-1.23,8.7-1.27,13.07-1.12,2,.07,4.11.21,6.1.46,1.43.21,3.1.36,4.36,1.14,3.89-1.33,8.15-1.07,12.2-.98,1.7.08,3.54.22,5.23.46,1.47.23,3.2.46,4.36,1.48.66-.58,1.76-.79,2.61-.81,1.12-.04,2.5-.05,3.49.57,2.06-1.27,4.62-1.61,6.97-1.99,3.15-.45,6.41-.7,9.59-.83,5.82-.16,11.83-.27,17.43,1.36,2.09-1.12,4.66-1.17,6.97-1.46,4.04-.38,8.15-.41,12.2-.5"/><path class="c" d="M8.42,156.12c3.75-.16,7.57-.21,11.33-.06,2.58.2,5.42.08,7.84,1.11,5.62-1.58,11.65-1.3,17.43-.87,1.11.11,2.41.3,3.49.59.77.5,1.82.38,2.61.02,2.84-.58,5.83-.64,8.71-.77,3.46-.13,7-.16,10.46.15,1.71.15,3.56.37,5.23.76.46.1,1.33.44,1.74.68.48.07,1.33-.14,1.74-.39,3.96-.93,8.16-.78,12.2-.68,2.6.12,5.29.31,7.84.83.8.14,1.78.7,2.61.66,1.58-.75,3.52-.79,5.23-.93,2.29-.13,4.68-.12,6.97-.04,4.12.17,8.35.45,12.2,1.99,1.33-.65,2.96-.39,4.36-.15,4.87-3.34,31.34-4.17,36.6-1.23,3.08-2.08,12.52-1.74,16.56-2.01"/><path class="c" d="M8.42,154.18c3.46-.19,7-.26,10.46-.12,2.29.19,4.88.04,6.97,1.11,4.12-1.57,8.72-1.38,13.07-1.48,4.37.12,8.94.1,13.07,1.67,2.67-1.61,21.7-1.93,23.53.68,1.94-2.52,22.05-1.99,24.4.17,1.85-.94,4.07-1.04,6.1-1.18,2.88-.15,5.84-.11,8.71.06,4.09.36,8.52.3,12.2,2.35.73-.43,1.81-.31,2.61-.32,5.43-3.31,22.02-3.45,28.76-3.22,2.3.1,4.69.26,6.97.57,1.47.26,3.3.36,4.36,1.54,1.35-1.29,3.48-1.31,5.23-1.58,2.87-.3,5.84-.38,8.71-.52"/><path class="c" d="M8.42,152.33c3.16-.22,6.42-.31,9.59-.18,2.02.14,4.27.12,6.1,1.1,2.78-2.54,27.27-2.54,29.63.45.91-.81,2.33-.95,3.49-1.08,1.39-.14,2.96-.21,4.36-.25,2.29-.08,4.69-.05,6.97.2,1.44.19,3.15.31,4.36,1.19,2.13-1.06,4.64-1.24,6.97-1.41,3.17-.2,6.42-.18,9.59-.02,2,.11,4.12.29,6.1.61,1.23.2,2.74.43,3.49,1.55,1.19-1.54,3.48-1.3,5.23-1.54,3.17-.2,6.42-.15,9.59.04,2.3.14,4.69.39,6.97.68,2.07.32,4.5.57,6.1,2.06l.87-.07c4.67-4.64,38.64-5.29,44.44-1.98,3.62-1.22,7.53-1.33,11.33-1.56"/><path class="c" d="M8.42,150.59c2.58-.25,5.26-.35,7.84-.27,1.71.13,3.74,0,5.23.99,4.86-3.02,28.99-2.8,33.99.12.82.05,1.81-.42,2.61-.51,1.69-.23,3.53-.28,5.23-.3,1.4,0,2.97.08,4.36.29.9.09,2.02.44,2.61,1.17,1.9-2.37,12.44-2.02,15.69-2.02,2.59.08,5.27.25,7.84.61,1.49.27,3.38.33,4.36,1.66.59-.77,1.68-1.13,2.61-1.21,1.39-.2,2.96-.3,4.36-.34,6.11-.06,12.44.21,18.3,2.05,1.4-.51,2.96.05,4.36.21,1.99-1.41,4.64-1.67,6.97-2.15,3.73-.61,7.56-.96,11.33-1.18,5.79-.31,11.64-.31,17.43.05,4.12.24,8.29.68,12.2,2.01,2.38-1.17,5.26-1.03,7.84-1.35"/><path class="c" d="M8.42,149.01c1.98-.29,4.1-.41,6.1-.37,1.43.07,3.14.04,4.36.91,1.12-1.09,2.89-1.28,4.36-1.58,2.56-.44,5.25-.7,7.84-.86,7.03-.35,20.95-.49,27.02,2.71,1.25-.77,2.94-.72,4.36-.78,1.74-.07,3.59.19,5.23.78,3.39-2.7,26.17-2.63,29.63,0,3.52-1.5,7.59-1.1,11.33-1.07,1.4.07,2.97.2,4.36.39,1.15.18,2.57.34,3.49,1.13,1.23-.83,2.93-.75,4.36-.74,1.71.09,3.56.17,5.23.58.45.25,1.24.43,1.74.33.72-.46,1.79-.83,2.61-1.03,10.84-2.28,22.09-2.32,33.12-1.8,2.89.17,5.85.43,8.71.84,2.04.34,4.33.56,6.1,1.72,1.45-1.08,3.5-1.11,5.23-1.36"/><path class="c" d="M8.42,147.74c2.24-.61,4.73-.66,6.97-.06,6.24-3.98,38.73-4.2,44.44.52,1.04-.43,2.37-.59,3.49-.45.43.14,1.29.27,1.74.25,3.57-2.14,10.6-2.11,14.81-2.29,4.64-.03,9.36.11,13.94.91,1.15.1,2.34.88,3.49.87,3.07-1.27,12.67-1.11,15.69.27.81-.02,1.82-.47,2.61-.57,1.68-.24,3.53-.28,5.23-.18,2.01.29,4.66-.01,6.1,1.66,1.17-1.58,3.45-1.62,5.23-2.03,3.15-.52,6.4-.84,9.59-1.06,7.82-.52,15.71-.5,23.53.06,5.25.49,10.71.73,15.69,2.58.7-.47,1.79-.75,2.61-.86"/><path class="c" d="M8.42,147.05l.87.33c4.97-6.2,48.79-7,53.16.17,1.63-3.9,14.33-3.83,18.3-3.93,3.55.09,13.14.04,15.69,2.07,2.06-1.17,4.68-.93,6.97-1.02,2.63.02,5.35.21,7.84,1.1,2.13-1.52,13.34-1.79,14.81.55,1.18-1.56,3.46-1.58,5.23-1.97,3.44-.54,6.98-.83,10.46-1.03,8.41-.46,16.88-.32,25.27.45,4.07.39,8.19.92,12.2,1.73,1.17.16,2.35.93,3.49,1.16l.87-.36"/><path class="c" d="M8.42,143.46c.46.11,1.33.46,1.74.7,1.38-1.27,3.47-1.54,5.23-1.98,2.27-.48,4.67-.84,6.97-1.11,8.66-.98,17.47-1.08,26.14-.18,2.3.25,4.71.6,6.97,1.11,1.8.41,3.76.96,5.23,2.12.72-.48,1.8-.53,2.61-.32l.87.71c1.59-2.63,10.84-2.7,13.94-2.89,6.12-.1,12.41.01,18.3,1.71,1.89-.74,4.1-.64,6.1-.66,2.32.07,4.83.13,6.97,1.13,2.26-1.79,13.58-2.07,15.69-.03,1.46-1.11,3.47-1.34,5.23-1.65,2.28-.35,4.67-.59,6.97-.77,6.37-.47,12.8-.54,19.17-.28,3.77.16,7.59.45,11.33.93,2.6.38,5.37.66,7.84,1.61.77.32,1.82-.06,2.61-.05,1.74.07,4.01-.21,5.23,1.27"/><path class="c" d="M8.42,140.7c.86.12,1.95.46,2.61,1.04,1.31-1.37,3.47-1.54,5.23-1.96,2.56-.48,5.25-.82,7.84-1.07,8.1-.74,16.31-.77,24.4.1,2.01.23,4.13.54,6.1.97,1.49.36,3.26.74,4.36,1.89.89-.85,2.33-.87,3.49-.85,1.12.05,2.48.15,3.49.69,4.67-1.85,9.85-1.84,14.81-1.93,2.88,0,5.85.13,8.71.42,2.04.21,4.21.51,6.1,1.35,2.29-1.16,9.88-.96,12.2.21.84-.01,1.81-.58,2.61-.73,1.97-.42,4.09-.6,6.1-.66,2-.05,4.13.02,6.1.39.8.12,1.79.66,2.61.66,6.49-3.27,36.55-3.11,43.57-.37.45.09,1.32,0,1.74-.18.77-.12,1.84-.19,2.61-.21,3.46.02,7.11-.09,10.46.88"/><path class="c" d="M8.42,138.22c1.14.13,2.45.49,3.49,1,.93-.8,2.32-1.12,3.49-1.38,1.98-.42,4.09-.72,6.1-.96,7.51-.84,15.12-.99,22.66-.48,2.6.19,5.28.47,7.84.92,1.77.4,3.98.55,5.23,2.02,1.36-1.25,3.51-1.03,5.23-1.08,2.03.07,4.19.23,6.1.97,1.23-.85,2.92-.99,4.36-1.2,2.28-.27,4.68-.38,6.97-.41,4.94.05,10.08-.02,14.81,1.57,2.44-1.03,9.84-.91,12.2.31.83-.05,1.81-.61,2.61-.77,1.96-.44,4.09-.63,6.1-.72,2.87,0,6.07-.26,8.71,1.01.83-.08,1.81-.63,2.61-.8,1.97-.47,4.09-.73,6.1-.94,4.91-.49,9.89-.65,14.81-.6,3.47.04,7.01.19,10.46.53,2.32.29,4.86.43,6.97,1.51,2.66-1.59,14.96-.84,18.3-.07"/><path class="c" d="M8.42,135.87c.78.09,1.85.26,2.61.46.41.21,1.27.44,1.74.43,5.31-3.19,38.31-3.94,42.7.19,2.5-1.79,8.28-1.01,11.33-.83.79.08,1.85.23,2.61.42.78.48,1.83.26,2.61-.1,4.81-1.04,16.4-1.16,20.91.55,2.56-.42,5.23-.69,7.84-.53,1.4.06,2.98.18,4.36.51.4.19,1.3.42,1.74.46,3.07-1.82,14.23-2.26,17.43-.63.49,0,1.33-.26,1.74-.5,1.07-.34,2.38-.58,3.49-.74,6.04-.85,12.2-1.04,18.3-.96,3.18.06,6.43.22,9.59.59,1.74.32,3.96.22,5.23,1.63.84-.96,2.3-1.04,3.49-1.17,1.39-.13,2.96-.2,4.36-.22,4.34,0,8.78.04,13.07.76"/><path class="c" d="M8.42,133.62c1.42.17,3.07.28,4.36.97.83-.07,1.81-.63,2.61-.8,2.26-.54,4.67-.82,6.97-1.05,4.91-.47,9.89-.63,14.81-.54,3.18.07,6.43.24,9.59.6,2.34.33,4.93.52,6.97,1.8,1.2-.9,2.92-.9,4.36-1.04,2.29-.14,4.68-.07,6.97.06,2.58.25,5.42.14,7.84,1.17,3.06-1.01,6.4-.96,9.59-.97,3.2.06,6.5.2,9.59,1.11,2.47-.83,5.27-.61,7.84-.61,2,.18,4.42-.02,6.1,1.25,2.51-1.64,5.82-1.55,8.71-1.85,3.48-.15,7.14-.25,10.46.97,4.27-2.76,31.27-3.06,35.73-.45,3.35-1.08,6.97-1.11,10.46-1.15,4.05.03,8.18.11,12.2.69"/><path class="c" d="M8.42,131.44c1.71.21,3.69.22,5.23,1.08,3.3-1.33,6.95-1.56,10.46-1.87,4.62-.35,9.31-.44,13.94-.29,2.59.09,5.27.25,7.84.57,1.74.31,3.9.31,5.23,1.62,2.07-1.79,9.31-1.3,12.2-1.28,3.18.15,6.43.33,9.59.73,1.12.05,2.36.67,3.49.54,2.22-.62,4.68-.54,6.97-.54,2.32-.01,4.71.34,6.97.78,2.51-.7,5.26-.57,7.84-.6,2.61.08,5.41.09,7.84,1.17,2.64-2.03,16.25-2.56,19.17-.86,2.78-.99,5.78-1.43,8.71-1.65,3.75-.33,7.57-.45,11.33-.43,2.88.02,5.85.14,8.71.41,2.01.27,4.31.3,6.1,1.37,3.33-1.17,6.96-1.2,10.46-1.29,4.34-.03,8.76.08,13.07.59"/><path class="c" d="M8.42,129.33c2,.2,4.21.21,6.1.97.84.06,1.81-.48,2.61-.63,2.26-.46,4.67-.67,6.97-.84,4.62-.32,9.31-.39,13.94-.19,2,.09,4.12.24,6.1.52,1.14.17,2.53.37,3.49,1.06,1.87-.87,4.08-.96,6.1-1.1,2.87-.16,5.84-.17,8.71-.06,5.82.23,11.7.64,17.43,1.54,2.56-.53,5.29-.26,7.84.16,2.81-.71,5.84-.61,8.71-.68,3.21-.03,6.5.17,9.59,1.07,2.97-1.85,17.07-2.57,20.04-.72,2.44-1.09,5.22-1.33,7.84-1.6,3.16-.29,6.41-.42,9.59-.43,3.17-.01,6.42.08,9.59.35,2.34.2,4.8.5,6.97,1.46,1.24-.82,2.92-.92,4.36-1.11,1.69-.17,3.53-.27,5.23-.32,4.63-.1,9.33.02,13.94.47"/><path class="c" d="M8.42,127.26c2,.12,4.12.24,6.1.52,1.12.14,2.42.81,3.49.14,4.27-.9,8.73-.93,13.07-.99,3.77.07,7.7-.03,11.33,1.12,1.86-.86,4.1-.83,6.1-1.04,2.87-.19,5.84-.26,8.71-.24,7.85.11,15.71.71,23.53,1.4,5.21.51,10.47-.32,15.69-.19,3.2.05,6.53.06,9.59,1.12,1.24-.82,2.92-1.01,4.36-1.25,1.69-.24,3.53-.41,5.23-.51,2.88-.16,5.85-.18,8.71.12,1.14.03,2.36.67,3.49.62,1.86-.87,4.09-.98,6.1-1.23,2.87-.28,5.83-.41,8.71-.45,5.83-.02,11.83,0,17.43,1.68,2.94-1.34,6.42-1.15,9.59-1.38,4.63-.14,9.32,0,13.94.35"/><path class="c" d="M8.42,125.24c3.76.14,7.58.28,11.33.5,3.17.21,6.42.43,9.59.04,13.02-1.34,26.16-1.56,39.22-.61,6.67.31,13.36,1.15,20.04.9,3.75-.11,7.58-.22,11.33-.05,2,.24,4.52-.1,6.1,1.35.86-.94,2.29-1.18,3.49-1.39,1.98-.34,4.1-.55,6.1-.69,3.46-.22,7.01-.28,10.46.08,1.14,0,2.36.71,3.49.55,1.89-.79,4.09-.89,6.1-1.11,2.87-.24,5.83-.35,8.71-.35,5.24.11,10.71-.03,15.69,1.77,2.6-1.4,5.84-1.22,8.71-1.5,4.92-.25,9.9-.1,14.81.15"/><path class="c" d="M8.42,123.26c11.33.19,22.66-.75,33.99-.88,10.17-.24,20.35.38,30.5,1.04,5.21.3,10.46.79,15.69.63,6.09-.05,12.35-.63,18.3.84,1.28-.73,2.93-.93,4.36-1.16,2.28-.32,4.67-.53,6.97-.65,4.65-.25,9.39-.17,13.94.75,2.45-.94,5.25-.91,7.84-1.12,3.46-.16,7-.16,10.46,0,2,.1,4.12.27,6.1.58,1.23.2,2.73.43,3.49,1.54,1.8-3,19.52-2.12,23.53-2.11"/><path class="c" d="M8.42,121.32c11.62-.33,23.23-1.35,34.86-1.22,11.05-.06,22.09.94,33.12,1.6,4.62.31,9.31.64,13.94.41,5.79-.12,11.75-.62,17.43.73,1.56-.84,3.5-1,5.23-1.27,2.57-.33,5.25-.54,7.84-.66,5.52-.24,11.14-.15,16.56.8,3.64-.99,7.58-.76,11.33-.79,2.89.07,5.86.21,8.71.68,1.18.08,2.34.89,3.49.85,2.65-1.31,5.83-1.27,8.71-1.57,4.62-.35,9.31-.21,13.94-.27"/><path class="c" d="M8.42,119.41c12.75-.91,25.55-1.84,38.34-1.42,7.27.14,14.54.77,21.79,1.33,6.38.48,12.88.77,19.17,1.66,1.03-.48,2.38-.49,3.49-.61,1.99-.17,4.1-.28,6.1-.34,2.29-.07,4.68-.08,6.97.04,1.42.13,3.13.09,4.36.92,1.53-.93,3.49-1.15,5.23-1.43,2.28-.32,4.68-.55,6.97-.71,6.37-.42,12.8-.43,19.17-.11,2.59.14,5.27.34,7.84.71,1.12.09,2.36.65,3.49.63,1.68-.31,3.54-.19,5.23-.08,1.44.16,3.16.24,4.36,1.15,2.63-1.46,5.79-1.64,8.71-2,4.62-.5,9.31-.42,13.94-.66"/><path class="c" d="M8.42,117.54c12.43-1.35,24.96-2.06,37.47-1.64,10.19.27,20.35,1.49,30.5,2.31,1.1.09,2.4.33,3.49.54,1.05-.36,2.39-.43,3.49-.51,3.75-.15,7.61-.32,11.33.28.79.35,1.81-.14,2.61-.2,1.69-.19,3.53-.27,5.23-.3,1.39-.02,2.96,0,4.36.08,1.13.09,2.52.16,3.49.81,4.71-3.29,48.73-4.39,51.42.43.77-1.08,2.26-1.24,3.49-1.36,1.4-.09,3.02-.25,4.36.26,1.52-.92,3.51-.97,5.23-1.22,2.87-.3,5.84-.36,8.71-.66"/><path class="c" d="M8.42,115.72c15.85-2.25,31.98-2.48,47.93-1.13,3.76.32,7.58.78,11.33,1.21,2.57.41,5.4.33,7.84,1.29,1.58-.74,3.53-.65,5.23-.84,2.29-.16,4.68-.28,6.97-.35,2.58-.07,5.26-.08,7.84.02,1.7.11,3.6.1,5.23.68,1.97-.41,4.09-.58,6.1-.57,1.7.03,3.6-.02,5.23.56.86.12,1.81-.5,2.61-.67,1.68-.41,3.52-.7,5.23-.94,8.36-1.11,16.84-1.47,25.27-1.27,3.62.2,15.45.33,17.43,2.89,1.27-1.41,3.49-1.26,5.23-1.47,2.59-.15,5.3-.14,7.84.44,2.45-.96,5.27-.86,7.84-1.31"/><path class="c" d="M8.42,114.01c8.03-1.5,16.25-1.98,24.4-2.13,10.78-.17,21.58.56,32.24,2.14,1.41.23,3,.48,4.36.95,3.44.07,7.02-.09,10.46-.48,5.19-.58,10.46-.94,15.69-.95,3.46.09,7.12-.12,10.46.89,1.69-.21,3.51-.5,5.23-.39,1.14.05,2.56.1,3.49.86,1.11-1.12,2.89-1.31,4.36-1.65,2.56-.51,5.25-.87,7.84-1.16,6.64-.71,13.37-.96,20.04-.78,3.47.11,7.01.33,10.46.8,2.05.43,4.73.37,6.1,2.18.59-.82,1.64-1.2,2.61-1.3,1.08-.17,2.39-.27,3.49-.31,2.57.02,5.44-.28,7.84.76,1.91-.75,4.09-1,6.1-1.33"/><path class="c" d="M8.42,112.24c1.11-.05,2.49-.28,3.49.33,1.17-.97,2.92-1.01,4.36-1.28,2.57-.37,5.25-.59,7.84-.75,6.08-.29,12.25-.46,18.3.26,1.08.4,2.39.03,3.49-.04,1.69-.11,3.53-.12,5.23-.1,4.06.08,8.19.31,12.2.99,1.71.34,3.64.48,5.23,1.24,2.81-.79,5.8-.99,8.71-1.01,2.61-.1,5.28.2,7.84.61,4.56-1.6,21.81-1.97,26.14-.03,1.6-.55,3.79-.68,5.23.34,1.17-1.03,2.89-1.38,4.36-1.74,1.98-.45,4.09-.79,6.1-1.06,8.07-1.06,16.27-1.32,24.4-.88,2.59.15,5.28.39,7.84.8,1.76.37,3.95.48,5.23,1.9.89-.85,2.31-1.07,3.49-1.2,1.39-.15,2.96-.21,4.36-.19,1.97.16,4.51-.18,6.1,1.17,1.36-1.25,3.51-1.24,5.23-1.63"/><path class="c" d="M8.42,109.42c10.68-1.31,21.49-1.76,32.24-1.86,6.39.02,12.84.22,19.17,1.1,1.41.2,2.98.5,4.36.87.79.19,1.79.73,2.61.78,2.98-1.19,6.43-.92,9.59-1.1,4.07-.09,8.22.07,12.2.89,2.17-.87,4.67-.89,6.97-1.1,3.46-.22,7-.27,10.46-.13,2.89.2,6.01.21,8.71,1.37,1.1.17,2.43-.09,3.49.41,5.55-4.6,41.24-5.57,47.06-1.27,2.42-1.11,5.23-1.11,7.84-1.06,1.72.15,3.82-.02,5.23,1.13,1.39-1.21,3.5-1.26,5.23-1.65"/><path class="c" d="M8.42,106.9c13.84-1.8,27.89-2.38,41.83-1.6,3.54.35,12.39.65,14.81,2.87,1.21-.9,2.91-.99,4.36-1.15,2.28-.2,4.68-.28,6.97-.31,4.63.08,9.49-.26,13.94,1.19,1.54-.88,3.51-.92,5.23-1.14,2.87-.27,5.83-.38,8.71-.37,3.47.03,7.04.15,10.46.8.8.16,1.87.46,2.61.8.39.31,1.27.83,1.74,1.01,5.11-5.58,40.65-6,47.06-1.92,1.12-.1,2.34-.7,3.49-.72,2.57-.15,5.4-.31,7.84.63.82,0,1.82-.49,2.61-.66,1.08-.26,2.39-.52,3.49-.71"/><path class="c" d="M8.42,104.46c13.27-1.73,26.72-2.38,40.09-1.65,3.79.35,12.98.67,15.69,2.92,1.83-.98,4.07-1.04,6.1-1.2,2.29-.14,4.68-.2,6.97-.21,2.88-.02,5.84.04,8.71.25,1.72.21,3.77.13,5.23,1.18,1.51-.97,3.5-1.07,5.23-1.3,2.58-.27,5.25-.39,7.84-.43,3.62.07,13.52-.23,15.69,2.66,1.47-.51,2.85-1.59,4.36-2.02,3.37-1.06,6.96-1.56,10.46-1.94,7.22-.72,14.55-.78,21.79-.12,2.6.25,5.3.59,7.84,1.23.82.2,1.91.59,2.61,1.07.47.11,1.33-.06,1.74-.3,1.96-.42,4.12-.39,6.1-.15.8.08,1.79.61,2.61.44,1.88-.83,4.1-1.04,6.1-1.45"/><path class="c" d="M8.42,102.09c10.97-1.37,22.06-2.1,33.12-1.88,4.64.11,9.34.37,13.94.96,2.01.27,4.15.6,6.1,1.16.81.22,1.79.84,2.61.99,1.54-.88,3.51-.87,5.23-1.04,2.58-.17,5.26-.24,7.84-.27,2.88-.02,5.84.02,8.71.2,2.01.23,4.37.11,6.1,1.3,1.15-1.01,2.91-1.08,4.36-1.31,2.57-.32,5.25-.47,7.84-.53,3.17-.07,6.43-.01,9.59.31,2.4.2,4.85.72,6.97,1.88.76-.48,1.85-.56,2.61-.04.83-1.01,2.27-1.46,3.49-1.79,1.67-.46,3.51-.81,5.23-1.06,7.19-1.04,14.54-1.21,21.79-.78,3.78.26,7.65.64,11.33,1.58.44.12,1.32.41,1.74.59.37.32,1.24.64,1.74.57,1.02-.48,2.37-.55,3.49-.55,1.12.02,2.49.1,3.49.69,2.45-1.09,5.23-1.35,7.84-1.83"/><path class="c" d="M8.42,99.8c12.71-1.46,25.55-2.34,38.34-1.62,3.18.18,6.43.46,9.59.92,2.33.42,4.94.65,6.97,1.95,1.14.04,2.33-.69,3.49-.71,3.74-.42,7.57-.48,11.33-.54,2.58-.02,5.26.01,7.84.16,2.01.18,4.24.17,6.1,1.02,5.06-1.43,10.43-1.64,15.69-1.64,2.88.02,5.86.14,8.71.58,1.53.28,3.45.5,4.36,1.93.99-1.25,3.02-1.37,4.36-.63,5.99-4.49,37.5-4.56,43.57-.16.79-.12,1.81-.48,2.61-.49,1.12-.1,2.4.26,3.49.47,1.22-.88,2.91-1.12,4.36-1.34,1.4-.22,2.96-.48,4.36-.7"/><path class="c" d="M8.42,97.6c11.57-1.19,23.22-2.18,34.86-1.74,5.53.22,11.14.58,16.56,1.75.79.18,1.86.49,2.61.79.36.29,1.27.63,1.74.62,1.56-.81,3.51-.81,5.23-.98,2.58-.18,5.26-.28,7.84-.34,5.23-.07,10.6-.24,15.69,1.08,3.13-1.97,26.23-2.91,27.89.64.59-.76,1.68-1.13,2.61-1.17,1.11-.09,2.46-.11,3.49.38,3.53-1.64,7.48-2.14,11.33-2.5,4.91-.44,9.89-.51,14.81-.26,4.8.39,12.68.68,16.56,3.5,1-.72,2.39-.46,3.49-.16,1.16-1.01,2.89-1.33,4.36-1.61,1.99-.3,4.11-.56,6.1-.88"/><path class="c" d="M8.42,95.58c13.31-1.24,26.71-2.55,40.09-1.53,3.44.35,13.84.87,15.69,3.51,1.08-1.16,2.89-1.14,4.36-1.32,2.29-.2,4.68-.35,6.97-.47,5.8-.22,11.76-.56,17.43.81,1.56-.84,3.51-.98,5.23-1.23,2.57-.3,5.25-.46,7.84-.52,4.95-.02,10.18-.22,14.81,1.73,1.24-.82,2.92-.88,4.36-.94,1.43-.09,2.97.25,4.36.56,5-3.54,36.82-3.67,40.09,1.82,1.16-.42,2.34-1.33,3.49-1.77,3.34-1.18,6.99-1.24,10.46-1.8"/><path class="c" d="M8.42,93.88c4.95-.18,9.88-1.07,14.81-1.46,6.65-.6,13.37-.81,20.04-.6,5.83.23,11.75.6,17.43,2,.8.21,1.87.57,2.61.92.37.33,1.23.7,1.74.65,2.18-.83,4.69-.67,6.97-1.06,4.32-.51,17.63-1.73,20.91.33,1.79-1.1,4.07-1.23,6.1-1.51,3.16-.35,6.41-.5,9.59-.5,2.29,0,4.69.09,6.97.37,1.51.24,3.39.36,4.36,1.7,1.18-1.55,3.47-1.4,5.23-1.57,1.99.03,4.38-.28,6.1.91,4.58-3.54,34.07-3.27,37.47,1.66l.87.17c2.79-3.33,9.85-2.93,13.94-3.7"/><path class="c" d="M8.42,91.56c4.01-.33,8.22-.93,12.2-.16,3.68-.94,7.55-1.17,11.33-1.37,8.13-.33,16.36-.19,24.4,1.16,1.74.33,3.65.71,5.23,1.54.39.25,1.28.42,1.74.3.4.17,1.3.33,1.74.32,2.21-1.51,7.99-1.68,10.46-.71,3.07-.99,6.39-1.08,9.59-1.17,2.29-.03,4.7,0,6.97.3.8.09,1.8.53,2.61.48,2.91-1.73,22.73-2.83,24.4.19,1.44-1.68,4.07-1.46,6.1-1.69,2.58-.02,5.42-.24,7.84.77,5.85-1.88,12.18-1.91,18.3-1.75,4.47.29,11.99.52,15.69,2.99.79.1,1.86-.14,2.61.19.49-.08,1.34-.49,1.74-.78.75-.33,1.82-.66,2.61-.85,3.12-.74,6.42-.82,9.59-1.28"/><path class="c" d="M8.42,89.07c4.33-.42,8.73-.66,13.07-.66,2.57.12,5.39-.19,7.84.71,4.13-1.52,20.21-1.04,24.4.6,1.99-.12,4.1-.29,6.1-.06,1.43.15,3.09.27,4.36,1,.85.03,1.79-.61,2.61-.76,1.08-.23,2.38-.37,3.49-.43,2.29-.11,4.7-.07,6.97.27.8.1,1.79.6,2.61.49,3.32-1.08,7-.89,10.46-.91,1.09.03,2.4.1,3.49.23.88.07,2,.32,2.61,1.01.83-.97,2.3-1.15,3.49-1.35,1.98-.3,4.1-.47,6.1-.56,4.08-.18,8.28-.13,12.2,1.06,2.64-1.32,5.83-1.26,8.71-1.38,2-.01,4.12.06,6.1.36.8.11,1.8.57,2.61.58,4.29-2.44,27.1-2.13,30.5,1.45,1.28-.74,3.21-.77,4.36.23,2.27-2.67,9.59-2.34,13.07-3.01"/><path class="c" d="M8.42,86.79c11-1.11,22.08-.89,33.12-.6,4.63.1,9.32.16,13.94.47,1.7.12,3.54.29,5.23.56,1.21.2,2.69.44,3.49,1.47.81-1.01,2.27-1.29,3.49-1.46,1.69-.24,3.53-.32,5.23-.32,3.22-.05,6.49.32,9.59,1.17,2.43-.99,5.26-.85,7.84-.98,2.29-.02,4.7.03,6.97.33.8.09,1.8.53,2.61.44,2.44-.98,5.25-.97,7.84-1.13,2.91-.09,5.93-.01,8.71.89,3.19-1.5,6.99-1.45,10.46-1.6,3.5-.03,7.1.09,10.46,1.14,4.15-2.31,24.06-1.76,27.89,1.11,1.08-.26,2.37-.49,3.49-.39.8.03,1.81.42,2.61.43,3.62-2.13,8.18-1.62,12.2-2.36"/><path class="c" d="M8.42,84.63c10.71-1.05,21.5-1.22,32.24-1.07,6.39.14,12.84.23,19.17,1.16.79.13,1.86.35,2.61.61.39.29,1.26.53,1.74.42,3-1.89,17.16-1.69,20.04.22,3.57-1.34,7.57-1.08,11.33-1.12,2.87.18,6.02-.04,8.71,1.1,1.8-1,4.11-.81,6.1-.83,1.13-.07,2.37.55,3.49.34,5.84-1.89,18.57-2.47,24.4-.58.49.15,1.32-.02,1.74-.3.76-.21,1.83-.39,2.61-.48,3.45-.38,7-.39,10.46-.23,2.3.11,4.7.33,6.97.69,1.76.31,3.73.64,5.23,1.68,1.25-.78,2.95-.63,4.36-.55.8.05,1.8.51,2.61.38,3.44-1.81,7.6-1.35,11.33-2.06"/><path class="c" d="M8.42,82.57c10.99-1.11,22.07-1.52,33.12-1.37,4.34.07,8.74.22,13.07.6,2.91.37,6.16.36,8.71,1.95,2.22-1.93,8.36-1.61,11.33-1.69,2.89.05,5.86.22,8.71.7,1.18.08,2.33.88,3.49.78,2.45-.94,5.26-.83,7.84-.97,5.51-.21,11.05.48,16.56.23,6.66-.56,13.34-1.64,20.04-1.21,2.87.26,6.09.07,8.71,1.39,2.19-.87,4.64-1.04,6.97-1.14,2.88-.11,5.84-.05,8.71.17,2.01.16,4.13.39,6.1.79,1.2.25,2.68.55,3.49,1.56.87-.91,2.32-.87,3.49-.89,1.43-.02,3.02.15,4.36.67,1.46-1.06,3.49-1.17,5.23-1.38,1.71-.11,3.54-.34,5.23-.6"/><path class="c" d="M8.42,80.61c10.98-1.22,22.06-1.82,33.12-1.7,4.05.15,18.57.12,20.91,2.62,2.97-2.81,21.39-2.06,25.27-.27.53.17,1.28.03,1.74-.25,1.08-.27,2.38-.42,3.49-.51,7.53-.59,15.13.19,22.66-.47,8.67-.81,17.64-1.35,26.14.72,3.54-1.28,7.61-.92,11.33-.93,4.4.19,8.94.46,13.07,2.08,2.73-.92,5.95-.6,8.71.08,1.26-.76,2.93-.85,4.36-.93,1.41-.1,2.97-.37,4.36-.62"/><path class="c" d="M8.42,78.77c10.68-1.42,21.47-2.15,32.24-2.1,4.05.02,8.16.16,12.2.5,2.89.38,6.13.32,8.71,1.81,4.42-1.61,9.26-1.66,13.94-1.61,2.59.04,5.27.17,7.84.43,2.01.25,4.23.39,6.1,1.24.86.29,1.78-.34,2.61-.45,1.39-.24,2.95-.36,4.36-.44,7.83-.35,15.71.06,23.53-.69,6.08-.48,12.25-.41,18.3.34.78.11,1.85.29,2.61.5.39.23,1.29.43,1.74.36,3.51-1.59,22.01-1.12,24.4,1.55.9-.83,2.34-.82,3.49-.89,1.7-.07,3.53-.01,5.23.03,2.59.15,5.3-.8,7.84-.1"/><path class="c" d="M8.42,77.39c4.52-1.24,9.29-1.6,13.94-2.1,6.94-.63,13.95-.89,20.91-.78,4.64.1,9.35.29,13.94,1.02,1.58.16,2.92.88,4.36,1.23,4.36-2.75,22.44-1.7,27.89-.53.81.15,1.77.72,2.61.68,1.31-.61,2.94-.72,4.36-.86,4.33-.34,8.73-.29,13.07-.34,7.55-.02,15.11-1.05,22.66-.56,2,.1,4.12.26,6.1.51,1.45.25,3.24.29,4.36,1.36.91-.82,2.33-.94,3.49-1.07,1.99-.2,4.1-.24,6.1-.23,3.18.03,6.43.21,9.59.58,2.33.33,4.88.55,6.97,1.73,2.09-1.07,4.69-.72,6.97-1.01,2.59-.2,5.24-.66,7.84-.72"/><path class="c" d="M8.42,74.74c1.69,0,3.65-.33,5.23.41,4.95-2.98,43.44-4.41,47.06-.18,2.52-3.43,24.98-2.05,29.63-1.1.8.14,1.88.41,2.61.76.52.17,1.28.04,1.74-.24.77-.19,1.83-.35,2.61-.42,3.45-.33,6.99-.35,10.46-.4,8.42.06,16.85-1.04,25.27-.43,2,.12,4.12.3,6.1.6,1.13.18,2.52.38,3.49,1.06,3.7-2.02,24.42-1.14,27.89,1.19,1.91-.76,4.09-.91,6.1-1.19,2.28-.32,4.67-.69,6.97-.85"/><path class="c" d="M8.42,72.42c2.85-.11,5.94-.62,8.71.2,6.11-2.6,37.66-3.76,42.7-.14,2.42-1.18,5.19-1.48,7.84-1.67,3.46-.26,6.99-.3,10.46-.23,3.18.07,6.42.23,9.59.53,2.63.28,5.4.52,7.84,1.6,2.6-1.26,5.89-.95,8.71-1.17,4.34-.12,8.74-.1,13.07-.3,5.5-.35,11.06-.51,16.56-.07,1.7.13,3.54.3,5.23.57,1.16.19,2.58.41,3.49,1.23,2.09-2.55,27.64-1.08,30.5,1,1.21-.9,2.93-1.03,4.36-1.34,1.98-.37,4.09-.7,6.1-.92"/><path class="c" d="M8.42,70.24c2.28-.25,4.68-.41,6.97-.41,1.41.03,3.04-.03,4.36.53,2.77-1.03,5.8-1.35,8.71-1.64,4.04-.38,8.15-.56,12.2-.59,3.76-.01,7.58.1,11.33.45,1.71.17,3.56.39,5.23.8.81.18,1.8.74,2.61.91,3.52-2.97,33.45-2.28,37.47.29,2.49-.89,5.23-.93,7.84-1.05,3.75-.13,7.57-.13,11.33-.26,6.96-.41,13.99-.6,20.91.31,1.1.14,2.42.35,3.49.66.42.27,1.25.46,1.74.32,1.9-.7,4.1-.71,6.1-.83,3.17-.12,6.42-.07,9.59.05,5.81.36,11.75.45,17.43,1.75,2.37-1.25,5.24-1.49,7.84-1.94"/><path class="c" d="M8.42,68.15c4.59-.63,9.37-.99,13.94-.08,4.55-2.39,33.02-3.14,36.6.26,3.92-2.7,19.08-2.13,24.4-2.03,3.47.14,7.01.36,10.46.77,2.01.34,4.37.33,6.1,1.52,2.11-1.04,4.67-.89,6.97-1.06,3.17-.12,6.42-.13,9.59-.24,5.21-.26,10.47-.55,15.69-.12,3.23.18,6.5.62,9.59,1.56,2.43-1.01,5.26-.83,7.84-.98,3.76-.08,7.58.04,11.33.2,3.17.14,6.41.3,9.59.41,2.29.18,4.82-.04,6.97.86,1.96-.67,4.02-1.43,6.1-1.69"/><path class="c" d="M8.42,66.18c2.54-.57,5.24-.77,7.84-.87,2.6-.08,5.32-.08,7.84.64,4.7-2.53,30.34-2.82,34.86.21,2.52-2.12,12.87-1.95,16.56-2.12,5.51-.06,11.06.11,16.56.53,3.8.31,7.69.65,11.33,1.82,1.88-.77,4.1-.67,6.1-.81,2.88-.11,5.84-.14,8.71-.28,7.54-.45,15.35-.6,22.66,1.5,2.44-.97,5.26-.78,7.84-.91,4.34-.07,8.73.19,13.07.34,6.08.36,12.32-.79,18.3.58.96-.7,2.34-1.04,3.49-1.3"/><path class="c" d="M8.42,64.43c2.43-1.04,5.24-1.1,7.84-1.3,3.19-.2,6.46-.07,9.59.59,1.85-.91,4.09-1.02,6.1-1.28,3.16-.32,6.41-.46,9.59-.48,4.64,0,9.37.11,13.94.96.45.09,1.31.32,1.74.47.42.29,1.23.56,1.74.47,4.4-3.03,43.75-2.34,47.93.82,1.53-.9,3.52-.77,5.23-.92,2.29-.11,4.68-.18,6.97-.32,4.04-.34,8.16-.36,12.2-.01,2.6.3,5.45.36,7.84,1.52.8.01,1.82-.39,2.61-.46,1.39-.16,2.96-.21,4.36-.2,1.99.11,4.27-.11,6.1.8,2.62-1.44,12.91-1.52,15.69-.32,3.11-.77,6.39-.96,9.59-.89,1.11.03,2.46.09,3.49.59.87.03,1.8-.66,2.61-.86"/><path class="c" d="M8.42,62.16l.87.29c2.56-1.49,5.84-1.32,8.71-1.57,1.99-.07,4.11-.06,6.1.12.44.04,1.31.17,1.74.26.45.24,1.26.35,1.74.19,4.89-1.98,26.17-2.29,30.5.42.85-.02,1.8-.64,2.61-.8,2.55-.56,5.25-.71,7.84-.9,5.21-.31,10.47-.39,15.69-.32,5.51.08,11.07.34,16.56.87,3.46.47,7.21.49,10.46,1.88,2.26-.49,4.66-.69,6.97-.82,3.45-.32,6.99-.53,10.46-.28,1.7.1,3.54.29,5.23.56,1.46.27,3.18.51,4.36,1.48,1.51-1,3.55-.57,5.23-.3,4.19-2.39,22.43-2.77,27.01-.93.47.14,1.32.01,1.74-.23.43-.1,1.31-.25,1.74-.3,2.85-.17,6.11-.74,8.71.69l.87-.69"/><path class="c" d="M8.42,59.56c.45.16,1.32.54,1.74.75,2.01-1.93,16-2.29,18.3-.72,4.27-2.31,25.51-2.32,29.63.22.87.09,1.79-.58,2.61-.73,2.26-.5,4.67-.65,6.97-.83,5.79-.39,11.63-.52,17.43-.49,6.1.05,12.23.31,18.3.88,4.38.45,8.85.87,13.07,2.18,3.9-1.5,17.16-1.83,20.04,1.38,3.82-2.53,8.65-2.67,13.07-3.18,4.04-.34,8.15-.47,12.2-.37,3.18.12,6.49.22,9.59,1.03.4.23,1.28.47,1.74.47.73-.36,1.81-.57,2.61-.66,1.39-.16,2.96-.23,4.36-.17,1.17.06,2.6.21,3.49,1.06"/><path class="c" d="M8.42,57.19c.82.15,1.76.8,2.61.73,2.43-1.65,16.97-2.21,19.17-.31,1.15-1,2.91-1.04,4.36-1.26,2.57-.28,5.25-.4,7.84-.42,3.17-.02,6.43.09,9.59.42,2.37.19,4.79.7,6.97,1.64,1.22-.89,2.91-1.05,4.36-1.24,1.99-.23,4.1-.38,6.1-.51,5.21-.32,10.47-.5,15.69-.52,7.26-.03,14.56.25,21.79,1.02,2.59.28,5.27.63,7.84,1.06,1.71.35,3.68.46,5.23,1.31,2.83-1.26,8.61-1.19,11.33.3,1.1-.19,2.46-.58,3.49.06,4.22-3.48,34.85-4.63,39.22-1.29,2.72-1.19,6.76-1.39,9.59-.45"/><path class="c" d="M8.42,54.94c.92.14,2.02.6,2.61,1.35.79-1.05,2.27-1.29,3.49-1.48,1.69-.26,3.53-.4,5.23-.48,4.03-.04,8.33-.39,12.2.96,3.1-2.03,24.55-1.85,27.01.94,2.28-1.47,5.24-1.33,7.84-1.64,4.04-.32,8.15-.55,12.2-.72,10.16-.4,20.4-.29,30.5.96,2.9.36,5.85.88,8.71,1.46,1.7.43,3.77.33,5.23,1.43.76-.41,1.84-.42,2.61-.04,1.85-.78,4.14-1.26,6.1-.68,2.71-1.24,5.8-1.59,8.71-2.05,4.32-.59,8.72-.92,13.07-1.06,4.34-.14,8.74-.1,13.07.24,2.96.19,5.95.69,8.71,1.76,2.37-1.1,5.34-1.01,7.84-.46"/><path class="c" d="M8.42,52.8c.45.09,1.32.35,1.74.53l.87,1.03c.72-1.24,2.18-1.49,3.49-1.69,1.69-.27,3.53-.42,5.23-.51,2.58-.13,5.26-.14,7.84-.01,2.01.16,4.26.14,6.1,1.05,1.24-.8,2.93-.83,4.36-.99,2.28-.19,4.68-.23,6.97-.2,2.88.04,5.85.21,8.71.58,2.06.3,4.34.58,6.1,1.79,1.66-1.34,4.09-1.13,6.1-1.41,2.88-.24,5.84-.47,8.71-.68,10.14-.76,20.37-.99,30.5-.06,2.3.22,4.7.51,6.97.92,1.47.34,3.31.47,4.36,1.68,1.13-1.07,2.93-.75,4.36-.65,1.39.2,2.95.29,4.36.32,3.81.2,7.58-.87,11.33-1.39,9.5-1.41,19.17-1.91,28.76-1.41,2.3.14,4.7.35,6.97.73,1.48.3,3.29.5,4.36,1.68,1.88-1.4,4.78-1.18,6.97-.75"/><path class="c" d="M8.42,50.79c.81.16,1.79.72,2.61.8,3.33-2.19,20.51-2.2,24.4-.69,4.26-.97,8.72-.88,13.07-.68,4.1.32,8.49.43,12.2,2.4,1.22-.87,2.92-.81,4.36-.91,1.7-.06,3.54-.17,5.23-.4,6.63-.99,13.34-1.61,20.04-1.69,4.63-.07,9.33.05,13.94.46,3.2.38,6.67.48,9.59,1.99,1.78-1.05,4.11-.78,6.1-.75,2.58.25,5.25.43,7.84.31,6.4-.42,12.76-1.66,19.17-1.99,8.11-.52,16.32-.65,24.4.36,1.41.19,2.99.46,4.36.85.81.2,1.75.91,2.61.87,1.58-.7,3.58-.71,5.23-.22"/><path class="c" d="M8.42,48.95c.44.17,1.31.53,1.74.71,3.28-2.63,24.59-2.41,28.76-.72,1.31-.6,2.95-.54,4.36-.61,2.29-.05,4.69.04,6.97.24,2.93.29,6.04.59,8.71,1.91.86-.22,1.96.05,2.61.65.79-1.05,2.25-1.48,3.49-1.74,1.38-.3,2.95-.48,4.36-.59,2.56-.06,5.41-.44,7.84.52,2.18-.89,4.65-1.08,6.97-1.31,3.16-.27,6.41-.39,9.59-.39,4.64.02,9.35.19,13.94.91.79.13,1.85.36,2.61.61.44.28,1.22.51,1.74.39,3.88-1.39,8.18-.54,12.2-.4,3.77.18,7.59-.17,11.33-.63,10.39-1.24,20.92-1.85,31.37-1.14,2.6.19,5.29.47,7.84.98,1.51.35,3.38.64,4.36,1.98,1.11-1.11,3.11-1.07,4.36-.21"/><path class="c" d="M8.42,47.64c4.1-1.7,8.69-1.74,13.07-1.99,6.09-.22,12.23,0,18.3.44,4.33.37,8.73.45,13.07.53,3.16.23,6.66-.04,9.59,1.33.85-.06,1.8-.68,2.61-.86,2.53-.62,5.24-.79,7.84-.87,2.87.06,6.05-.26,8.71.97,3.24-2.24,24.42-1.97,27.89.21.83-.01,1.81-.52,2.61-.63,1.68-.29,3.52-.38,5.23-.38,3.47.02,6.98.57,10.46.5,7.28-.19,14.51-1.54,21.79-1.76,7.54-.35,15.16-.35,22.66.61,2.02.28,4.17.65,6.1,1.32,2.24.95,2.84,2.18,5.23.28"/><path class="c" d="M8.42,45.1c3.94-1.1,8.14-1.27,12.2-1.51,6.08-.28,12.21-.16,18.3-.02,5.21.12,10.48.16,15.69.43,3.17.3,6.64.16,9.59,1.47,1.15-.03,2.32-.83,3.49-.92,2.27-.39,4.67-.52,6.97-.56,1.7-.02,3.54.03,5.23.16,1.43.14,3.09.25,4.36,1,1.48-1.01,3.51-.96,5.23-1.17,2.58-.19,5.26-.24,7.84-.18,2,.05,4.12.17,6.1.42,1.47.24,3.32.3,4.36,1.51.86-.95,2.28-1.16,3.49-1.32,1.98-.26,4.1-.35,6.1-.33,5.5.2,11.05,1.09,16.56.34,9.82-1.16,19.74-1.88,29.63-1.45,4.36.21,8.81.52,13.07,1.56.8.2,1.87.56,2.61.92.63.59,1.76.95,2.61,1.01.36-.45,1.2-1.19,1.74-1.4"/><path class="c" d="M8.42,42.75c10.91-1.91,22.08-1.59,33.12-1.63,5.22.04,10.48.14,15.69.49,1.7.12,3.54.27,5.23.48,1.44.2,3.13.35,4.36,1.19,3.3-1.29,6.95-1.33,10.46-1.32,2,.03,4.12.14,6.1.46.8.11,1.79.61,2.61.52,3.13-1.34,16.56-1.53,19.17.53,1.91-1.48,4.67-1.31,6.97-1.6,6.98-.66,13.94,1.11,20.91.46,10.12-1.09,20.32-1.9,30.5-1.38,2.89.14,5.86.37,8.71.81,2.04.38,4.38.61,6.1,1.88,1.1-.18,2.42-.49,3.49-.02.5-.06,1.35-.48,1.74-.79"/><path class="c" d="M8.42,40.51c12.09-1.83,24.4-1.85,36.6-1.79,5.22.07,10.48.26,15.69.65,2,.15,4.12.31,6.1.66,1.16.21,2.6.47,3.49,1.32,2.04-1.75,13.49-1.55,15.69-.03,2.43-1.07,5.24-1.02,7.84-1.09,2.61.03,5.4.03,7.84,1.07.96-.71,2.34-.95,3.49-1.15,1.69-.28,3.52-.46,5.23-.58,4.93-.41,9.9-.05,14.81.41,5.22.5,10.48-.1,15.69-.56,8.11-.65,29.05-1.65,35.73,1.97,1.55-.76,3.62-.7,5.23-.13.5-.03,1.35-.41,1.74-.71"/><path class="c" d="M8.42,38.3c13.25-1.91,26.72-2.16,40.09-1.91,4.63.11,9.32.34,13.94.64,4.4.29,8.92.68,13.07,2.22,1.87-.81,4.11-.59,6.1-.52,1.46.17,3.3.11,4.36,1.29,1.07-1.16,2.9-1.09,4.36-1.23,1.99,0,4.35-.32,6.1.81.9-.85,2.31-1.1,3.49-1.33,1.98-.37,4.1-.62,6.1-.8,6.37-.64,12.81-.45,19.17.16,4.92.39,9.9.05,14.81-.32,6.95-.48,13.95-.71,20.91-.39,2.59.12,5.27.32,7.84.67,1.73.29,3.73.47,5.23,1.45,1.37-.36,2.94-.57,4.36-.51,1.16.04,2.59.07,3.49.91.36-.44,1.18-1.12,1.74-1.25"/><path class="c" d="M8.42,36.06c14.7-2.13,29.62-2.43,44.44-1.89,7.27.31,14.59.57,21.79,1.65,2,.29,4.12.65,6.1,1.04,1.42.33,3.12.52,4.36,1.36,3-1.27,6.4-1.51,9.59-2.07,5.47-.78,11.03-1.25,16.56-1.41,6.69-.32,13.36.73,20.04.65,8.71-.2,17.43-.96,26.14-.61,4.96.22,10.08.36,14.81,1.99,1.33-.53,2.95-.5,4.36-.5,1.43.07,3.16.02,4.36.94.61-.72,1.72-1.22,2.61-1.45"/><path class="c" d="M8.42,33.8c14.98-2.21,30.2-2.54,45.32-1.91,6.68.3,13.4.53,20.04,1.31,3.5.41,7.1.77,10.46,1.85,2.13-.99,4.68-.97,6.97-1.31,3.75-.4,7.57-.73,11.33-.97,4.91-.31,9.89-.47,14.81-.33,4.63.19,9.3.65,13.94.58,8.12-.08,16.28-.61,24.4-.29,2.88.1,5.85.28,8.71.63,1.73.27,3.71.39,5.23,1.34,1.65-.53,3.51-.6,5.23-.57,1.42.06,3.06.07,4.36.72,1.4-.46,2.88-1.22,4.36-1.47"/><path class="c" d="M8.42,31.52c15.27-2.26,30.78-2.6,46.19-1.87,5.8.28,11.65.46,17.43,1.04,3.5.35,7.1.68,10.46,1.76,2.13-.98,4.68-.94,6.97-1.23,3.46-.31,6.99-.55,10.46-.75,5.5-.3,11.05-.48,16.56-.35,4.92.15,9.88.59,14.81.54,7.83-.02,15.7-.35,23.53,0,2.59.12,5.27.3,7.84.61,1.73.29,3.77.35,5.23,1.42,1.57-.78,3.52-.65,5.23-.66,1.42.08,3.1.06,4.36.82,1.86-.99,4.04-1.48,6.1-1.87"/><path class="c" d="M8.42,29.24c15.28-2.25,30.78-2.62,46.19-1.83,5.21.28,10.48.44,15.69.9,1.7.15,3.54.35,5.23.58,1.43.24,3.11.37,4.36,1.17,2.46-.98,5.23-1.07,7.84-1.31,3.17-.25,6.41-.43,9.59-.59,6.08-.29,12.21-.46,18.3-.33,4.63.1,9.31.48,13.94.49,11.6.2,23.38-.64,34.86,1.43.44.09,1.33.39,1.74.59.79.17,1.83-.22,2.61-.26,2.32-.18,4.75-.01,6.97.67,2.28-1.47,5.25-1.56,7.84-2.09"/><path class="c" d="M8.42,26.96c14.99-2.17,30.2-2.61,45.32-1.79,4.63.26,9.32.45,13.94.79,3.17.38,6.62.32,9.59,1.6,6.23-1.52,12.78-1.42,19.17-1.78,10.74-.53,21.51-.13,32.24.23,7.54.11,15.12-.02,22.66.38,2.59.13,5.27.33,7.84.63,2.02.29,4.25.47,6.1,1.38,1.1.06,2.37-.36,3.49-.29,1.44.04,3.19-.02,4.36.95,1.06-1.2,2.88-1.42,4.36-1.76,1.98-.38,4.1-.68,6.1-.93"/><path class="c" d="M8.42,24.69c14.71-2.08,29.62-2.58,44.44-1.74,4.34.24,8.74.5,13.07.8,2.88.35,6.06.26,8.71,1.54,2.79-.9,5.8-1.12,8.71-1.31,3.46-.23,6.99-.38,10.46-.5,10.74-.41,21.51-.2,32.24.22,8.12.18,16.29.08,24.4.56,2.88.17,5.85.41,8.71.81,2.04.31,4.27.63,6.1,1.64,1.58-.62,3.87-.66,5.23.45,1.26-1.46,3.46-1.61,5.23-2.02,2.57-.46,5.25-.76,7.84-1.05"/><path class="c" d="M8.42,22.44c14.13-1.94,28.46-2.52,42.7-1.73,4.05.21,8.15.53,12.2.82,1.7.12,3.54.29,5.23.54,1.14.18,2.54.37,3.49,1.1,2.37-1.23,5.25-1.15,7.84-1.44,3.75-.28,7.57-.43,11.33-.55,10.16-.32,20.35-.22,30.5.17,12.48.44,25.08-.06,37.47,1.79,2.14.27,4.1.97,6.1,1.72.78-.23,1.88-.06,2.61.29,2.75-2.45,11.8-2.8,15.69-3.28"/><path class="c" d="M8.42,20.21c13.27-1.77,26.71-2.42,40.09-1.76,4.35.2,8.74.54,13.07.94,1.4.13,2.97.26,4.36.47,1.16.18,2.59.35,3.49,1.19.94-.78,2.32-.97,3.49-1.15,1.39-.2,2.95-.34,4.36-.46,3.75-.29,7.57-.45,11.33-.56,11.03-.35,22.09-.11,33.12.26,9,.24,18.03.19,27.01.84,3.48.26,7.03.59,10.46,1.25,1.43.29,3.04.67,4.36,1.32.35.32,1.3.84,1.74,1.02,2.62-3.09,14.06-3.48,18.3-3.92"/><path class="c" d="M8.42,17.99c12.41-1.61,24.96-2.29,37.47-1.78,4.35.17,8.74.47,13.07.92,2.58.41,5.5.25,7.84,1.52,2.74-1.11,5.81-1.24,8.71-1.51,3.75-.29,7.57-.45,11.33-.56,10.45-.31,20.93-.08,31.37.29,12.2.4,24.48.09,36.6,1.72,1.71.25,3.57.57,5.23,1.08.8.22,1.77.9,2.61.99.75-.33,1.87-.31,2.61.06,2.95-2.53,14.08-2.91,18.3-3.27"/><path class="c" d="M8.42,15.8c11.55-1.45,23.22-2.14,34.86-1.77,4.05.12,8.16.36,12.2.75,3.21.33,6.53.63,9.59,1.7,2.36-1.22,5.26-1.15,7.84-1.49,3.75-.32,7.57-.5,11.33-.62,10.45-.35,20.93-.11,31.37.3,11.03.39,22.12.18,33.12,1.25,2.6.26,5.29.58,7.84,1.17.43.1,1.33.37,1.74.52,0,0,.87.46.87.46,0,0,.87.03.87.03,1.61-.57,3.63-.69,5.23-.04,2.44-1.14,5.2-1.56,7.84-1.91,3.45-.45,6.99-.69,10.46-.85"/><path class="c" d="M8.42,13.62c11.26-1.38,22.64-2.04,33.99-1.69,6.99.3,14.17.44,20.91,2.36,2.4-1.14,5.25-1.14,7.84-1.47,3.75-.34,7.57-.54,11.33-.67,10.74-.39,21.51-.09,32.24.37,8.7.35,17.45.22,26.14.76,3.18.19,6.43.45,9.59.88,2.02.34,4.29.52,6.1,1.58,1.12,0,2.35-.6,3.49-.6,2.02-.23,4.12.06,6.1.41,2.09-1.12,4.66-1.26,6.97-1.62,3.45-.41,6.99-.64,10.46-.75"/></svg>