<?xml version="1.0" encoding="UTF-8"?><svg id="a" xmlns="http://www.w3.org/2000/svg" width="1920" height="2400" viewBox="0 0 192 240"><defs><style>.b,.c{stroke-width:0px;}.c{fill:#f63;}</style></defs><rect class="b" width="192" height="240"/><path class="c" d="M8.42,224.61c3.25.32,11.37.64,13.07,3.55,1.7-1.5,3.9-2.29,6.1-2.69,2.56-.53,5.24-.86,7.84-1.11,9.55-.85,19.21-.77,28.76.1,7.23.67,14.52,1.2,21.79.97,6.68-.18,13.37-.74,20.04-.94,2.29-.07,4.68-.1,6.97-.02,1.71.14,3.75-.02,5.23.97,2.31-1.38,5.25-1.43,7.84-1.9,4.32-.58,8.72-.95,13.07-1.2,14.81-.92,29.65.25,44.45.87"/><path class="c" d="M8.42,222.78c3.21.25,6.54.58,9.59,1.65.85.29,1.77,1.11,2.61,1.42,2.51-3.05,13.34-3.48,17.43-3.87,6.95-.43,13.96-.41,20.92.03,5.52.37,11.05,1.07,16.56,1.47,8.71.77,17.44-.3,26.14-.67,4.34-.14,8.8-.5,13.07.41,2.42-1.08,5.25-1.17,7.84-1.6,4.03-.53,8.14-.94,12.2-1.23,16.26-1.28,32.56-.13,48.8.71"/><path class="c" d="M8.42,221.09c1.71.13,3.55.35,5.23.68,1.49.32,3.22.71,4.36,1.78l.87.08c2.86-2.75,12.44-3.18,16.56-3.61,8.11-.57,16.29-.56,24.4.05,2.59.2,5.27.5,7.84.82,2.02.27,4.19.5,6.1,1.25,1.58-.76,3.52-.69,5.23-.84,2.29-.12,4.68-.18,6.97-.23,8.12-.22,16.3.19,24.4-.57,11.59-1.14,23.2-2.59,34.86-2.78,12.79-.33,25.58.59,38.34,1.33"/><path class="c" d="M8.42,219.97c1.13,0,2.37.57,3.49.49,1.75-.23,3.55.23,5.23.62,6.89-4.36,44.39-4.55,52.29-1.34,5.38-1.37,11.04-1.2,16.56-1.45,8.7-.27,17.45-.19,26.14-.62,11.04-.61,22.05-1.97,33.12-2.1,12.79-.29,25.59.58,38.34,1.48"/><path class="c" d="M8.42,217.17c1.4.15,2.98.34,4.36.64.81.15,1.79.7,2.61.75,2.61-1.44,5.83-1.45,8.71-1.91,4.33-.49,8.72-.79,13.07-.97,5.5-.22,11.06-.24,16.56.01,4.06.24,8.23.43,12.2,1.4.45.22,1.25.44,1.74.43.74-.38,1.8-.63,2.61-.75,2.28-.35,4.68-.51,6.97-.66,10.44-.62,20.92-.61,31.37-.81,11.63-.17,23.23-1.6,34.86-1.82,13.37-.33,26.77.45,40.09,1.64"/><path class="c" d="M8.42,214.88c1.11.15,2.42.38,3.49.72.41.26,1.26.52,1.74.49,2.65-1.32,5.83-1.27,8.71-1.64,4.04-.35,8.15-.58,12.2-.74,9.57-.26,19.29-.59,28.76,1.04.82.14,1.76.74,2.61.62,1.02-.54,2.36-.76,3.49-.94,2.86-.41,5.83-.62,8.71-.8,10.73-.66,21.5-.62,32.24-.75,11.05-.1,22.07-1.32,33.12-1.51,13.37-.25,26.81.36,40.09,1.91"/><path class="c" d="M8.42,212.79c.82.14,1.89.45,2.61.87.52.1,1.31-.12,1.74-.4,1.07-.33,2.38-.54,3.49-.68,4.03-.48,8.15-.62,12.2-.76,7.25-.21,14.54-.41,21.79-.2,2.88.09,5.85.24,8.71.57,1.74.26,3.78.36,5.23,1.47,1.88-1.55,4.67-1.4,6.97-1.8,3.74-.41,7.57-.65,11.33-.83,11.02-.56,22.08-.31,33.12-.5,12.49-.38,24.97-1.55,37.47-1.24,6.39.09,12.81.43,19.17.96,3.76.41,7.66.43,11.33,1.38"/><path class="c" d="M8.42,210.93c1.29.93,2.2.06,3.49-.23,1.38-.3,2.95-.48,4.36-.61,6.07-.52,12.21-.4,18.3-.4,6.09,0,12.22-.16,18.3.11,2.59.13,5.29.29,7.84.8.8.14,1.79.7,2.61.69,2.35-1.28,5.24-1.33,7.84-1.72,3.74-.42,7.57-.68,11.33-.87,11.89-.65,23.83-.18,35.73-.4,14.8-.62,29.63-1.63,44.45-.7,4.35.23,8.74.58,13.07,1.05,1.7.2,3.55.36,5.23.71.8.15,1.79.71,2.61.74"/><path class="c" d="M8.42,209.08c3.24-1.4,6.99-1.26,10.46-1.51,6.09-.25,12.22.18,18.3.46,8.41.15,17.09-1.07,25.27,1.22,2.34-1.31,5.24-1.4,7.84-1.83,3.74-.46,7.57-.75,11.33-.95,12.18-.73,24.41-.15,36.6-.26,14.22-.48,28.47-1.48,42.7-.65,4.64.24,9.33.59,13.94,1.16,1.4.18,2.97.4,4.36.66.79.14,1.8.68,2.61.73.41-.26,1.27-.62,1.74-.72"/><path class="c" d="M8.42,206.25c5.71-1.12,11.64-1.09,17.43-.85,2.03.02,4.11.49,6.1.73.75-.27,1.82-.41,2.61-.48,4.35-.3,8.83-.17,13.07.86,2.23-.61,4.69-.45,6.97-.42,2.32.17,4.96.1,6.97,1.41,1.61-1.46,4.07-1.51,6.1-1.94,3.44-.54,6.98-.88,10.46-1.13,8.98-.64,18.02-.65,27.02-.46,8.13.25,16.28.23,24.4-.24,10.44-.49,20.93-.71,31.37-.15,6.41.47,13.02.59,19.17,2.56.98-.65,2.35-.9,3.49-1.11"/><path class="c" d="M8.42,203.78c5.46-.8,11.06-.9,16.56-.51.78.07,1.85.2,2.61.36.46.25,1.24.34,1.74.16,3.31-1.2,19.54-1.28,21.79,1.15,1.18-.94,2.94-.69,4.36-.73,1.72.1,3.69.11,5.23.98,5.79-2.19,12.15-2.55,18.3-3.05,9.27-.63,18.6-.53,27.89-.24,8.13.35,16.28.22,24.4-.22,9.86-.43,19.77-.59,29.63-.03,3.47.2,7.01.47,10.46.91,2.33.36,4.9.53,6.97,1.75,1.46-1.07,3.5-1.15,5.23-1.47"/><path class="c" d="M8.42,201.46c3.56-.45,15.67-1.33,18.3.56,2.85-2.31,23.35-1.74,26.14.74,1.3-.64,2.95-.53,4.36-.46,1.15.09,2.56.24,3.49,1,2.04-1.35,4.61-1.7,6.97-2.12,3.44-.56,6.98-.91,10.46-1.16,9.27-.66,18.6-.55,27.89-.18,7.83.4,15.7.47,23.53.01,9.86-.45,19.77-.7,29.63-.19,3.47.18,7.01.44,10.46.85,2.31.36,4.87.47,6.97,1.58.84.07,1.81-.49,2.61-.63,1.39-.29,2.95-.52,4.36-.69"/><path class="c" d="M8.42,199.27c3.45-.39,6.99-.54,10.46-.45,2.01.12,4.25.05,6.1.95,1.22-.86,2.92-.94,4.36-1.14,1.99-.21,4.1-.32,6.1-.35,3.47-.06,7.01.07,10.46.44,2.64.3,5.42.66,7.84,1.81,1.03-.46,2.38-.43,3.49-.38,1.14.08,2.53.22,3.49.91,2.39-1.32,5.17-1.8,7.84-2.21,3.73-.57,7.56-.91,11.33-1.13,10.15-.61,20.35-.24,30.5.3,12.2.79,24.4-.64,36.6-.58,7.26,0,14.57.24,21.79,1.08,1.71.21,3.56.47,5.23.88.8.17,1.76.84,2.61.71,2.14-.96,4.68-1.01,6.97-1.35"/><path class="c" d="M8.42,197.2c2.57-.28,5.25-.41,7.84-.4,2,.07,4.21-.03,6.1.71,5.62-1.63,11.61-1.58,17.43-1.45,2.59.1,5.27.3,7.84.67,1.73.3,3.7.52,5.23,1.45,1.98-.35,4.1-.49,6.1-.14.81.1,1.79.62,2.61.65,2-1.37,4.65-1.55,6.97-2,3.44-.52,6.98-.85,10.46-1.06,9.57-.58,19.2-.29,28.76.33,7.53.61,15.12.62,22.66.12,9.57-.5,19.19-.76,28.76-.24,3.47.19,7.01.47,10.46.94,2.03.4,4.53.37,6.1,1.86.91-.82,2.32-1.04,3.49-1.21,1.39-.21,2.96-.4,4.36-.54"/><path class="c" d="M8.42,195.29c2.28-.24,4.68-.36,6.97-.31,1.43.1,3.2-.06,4.36.92,1.1-1.12,2.9-1.19,4.36-1.45,1.98-.28,4.1-.45,6.1-.56,5.86-.2,16.63-.41,21.79,2.08,2.01-1,7.65-.72,9.59.44,5.77-2.29,12.15-2.55,18.3-2.95,9.58-.49,19.2-.09,28.76.68,7.24.73,14.54.69,21.79.14,9.56-.58,19.18-.88,28.76-.36,3.18.17,6.43.43,9.59.84,2.31.41,4.97.47,6.97,1.81,2.47-.99,5.23-1.17,7.84-1.44"/><path class="c" d="M8.42,193.64c2.28-.18,4.75-.42,6.97.27,1.51-.98,3.5-1.14,5.23-1.46,2.86-.42,5.83-.66,8.71-.79,6.96-.18,14.23-.31,20.92,1.8,2.18-.79,4.69-.57,6.97-.52,1.1.06,2.4.2,3.49.4.81.13,1.79.67,2.61.7,2.02-1.31,4.65-1.46,6.97-1.86,3.45-.46,6.99-.71,10.46-.85,9.59-.39,19.22.12,28.76,1.08,3.16.3,6.41.64,9.59.68,3.76.01,7.58-.32,11.33-.58,9.56-.71,19.18-1.06,28.76-.55,3.73.3,15.17.74,17.43,3.03,1.99-1.32,4.68-1.16,6.97-1.45"/><path class="c" d="M8.42,192.53l.87.24c6.14-3.85,31.06-4.29,38.35-2.07.77.52,1.79.46,2.61.11.78-.14,1.83-.25,2.61-.28,2.88-.12,5.86-.02,8.71.4.45.07,1.31.26,1.74.37.46.26,1.22.46,1.74.36,2.08-1.18,4.65-1.33,6.97-1.68,6.64-.75,13.37-.85,20.04-.63,5.52.19,11.08.66,16.56,1.39,3.17.39,6.39,1.01,9.59,1.16,2,.08,4.11-.14,6.1-.31,10.99-1.2,22.06-2.09,33.12-1.62,4.06.16,8.18.46,12.2,1.03,2.62.47,5.54.7,7.84,2.14.81.08,1.81-.34,2.61-.36,1.2.27,2.4-.44,3.49-.8"/><path class="c" d="M8.42,189.94c9.05-2.42,18.56-2.92,27.89-2.73,2.29.07,4.69.22,6.97.5,1.73.27,3.75.37,5.23,1.39,3.58-1.3,7.59-.89,11.33-.78,1.4.09,2.97.24,4.36.46.87.11,1.98.44,2.61,1.09,3.48-3.79,40.22-2.94,43.57.89.67-.65,1.73-.82,2.61-.82,1.4-.06,2.96,0,4.36.12,2.59.28,5.3.53,7.84,1.07.54.14,1.3-.07,1.74-.37,1.07-.36,2.38-.66,3.49-.88,7.74-1.44,15.67-1.86,23.53-1.84,4.35.03,8.75.23,13.07.73,2.93.39,6.04.71,8.71,2.07,1.14-.42,2.65-.33,3.49.65.97-1.35,2.85-1.67,4.36-2.07"/><path class="c" d="M8.42,187.84c3.05-1.11,6.38-1.53,9.59-1.98,4.32-.54,8.72-.82,13.07-.89,6.12-.01,12.43,0,18.3,1.8,3-1.12,6.43-.79,9.59-.83,3.8.1,7.68.32,11.33,1.42,4.21-2.55,29.09-2.12,33.12.73,1.61-.67,3.51-.7,5.23-.69,1.71.07,3.64.07,5.23.8,4.49-1.39,9.35-1.18,13.94-.36.8.15,1.86.43,2.61.73.42.31,1.21.63,1.74.57.86.2,1.88-.31,2.61-.71.76-.29,1.82-.58,2.61-.75,5.71-1.16,11.61-1.43,17.43-1.48,3.57.08,15.18.02,17.43,2.21.91-.81,2.34-.76,3.49-.79,1.74-.07,3.57.27,5.23.76.68-.54,1.78-.95,2.61-1.16"/><path class="c" d="M8.42,186.14c3.72-1.94,8.1-2.17,12.2-2.71,5.77-.58,11.63-.77,17.43-.54,2.89.13,5.87.33,8.71.84,1.15.09,2.33.91,3.49.84.42-.18,1.29-.43,1.74-.49,4.31-.57,8.74-.39,13.07-.2,3.17.28,6.58.2,9.59,1.36,3.96-.97,8.12-1.11,12.2-.93,1.7.07,3.54.2,5.23.43,1.14.17,2.54.35,3.49,1.08,1.84-.92,4.1-.81,6.1-.9,2.62-.07,5.32.15,7.84.88,4.89-2.71,23.24-1.98,27.89,1.21.74-.43,1.8-.25,2.61-.31.72-.47,1.79-.84,2.61-1.03,3.41-.78,6.97-1.04,10.46-1.2,3.17-.13,6.42-.11,9.59.08,2.3.2,4.81.24,6.97,1.14.8.05,1.82-.34,2.61-.42,1.39-.16,2.96-.2,4.36-.18,1.71.08,3.69.01,5.23.88.47-.07,1.34-.42,1.74-.66"/><path class="c" d="M8.42,183.13c.49.1,1.35.53,1.74.83,1.34-1.32,3.47-1.49,5.23-1.88,2.27-.41,4.67-.7,6.97-.91,5.49-.5,11.05-.64,16.56-.42,4.08.25,8.36.31,12.2,1.85,1.27-.73,2.93-.78,4.36-.92,2.29-.16,4.68-.18,6.97-.16,6.1.06,12.22.51,18.3.81,4.92.25,9.89,0,14.82.02,3.16.16,6.63-.2,9.59,1.06,2.84-.99,5.71-1.53,8.71-1.75,5.2-.48,10.49-.37,15.69.16,2.6.27,5.29.63,7.84,1.2,1.5.38,3.32.7,4.36,1.96.43-.37,1.17-.71,1.74-.64.45.11,1.3.12,1.74.02,2.66-1.3,5.81-1.39,8.71-1.67,2.87-.19,5.84-.22,8.71-.08,2.02.13,4.22.22,6.1,1.05,2.38-1.11,5.27-.86,7.84-.99,1.4,0,2.97.05,4.36.24.99.09,2.01.44,2.61,1.28"/><path class="c" d="M8.42,180.59c1.16.04,2.34.8,3.49.76,5.48-3.26,34.44-3.94,40.09-.92,3.64-1.13,7.55-1.07,11.33-1.11,4.92,0,9.89.14,14.82.25,4.63.11,9.31.14,13.94.26,3.48.16,7.15.06,10.46,1.3,2.56-1.53,5.83-1.49,8.71-1.92,4.03-.39,8.15-.56,12.2-.44,5.21.24,17.73.94,21.79,3.66,1.1-.12,2.39-.35,3.49-.02,2.8-2.06,15.98-2.46,19.17-.99,2.51-.8,5.23-.97,7.84-1.06,2.59-.06,5.31-.12,7.84.48"/><path class="c" d="M8.42,178.2c1.43.16,3.13.25,4.36,1.1,3.51-1.67,7.51-1.96,11.33-2.37,5.2-.47,10.47-.61,15.69-.47,2.88.08,5.85.25,8.71.6,1.73.29,3.79.33,5.23,1.45,2.62-1.37,5.84-1.09,8.71-1.3,4.34-.1,8.73-.07,13.07-.03,4.63.05,9.31.1,13.94.26,3.5.11,7.09.3,10.46,1.3,1.53-.93,3.5-1.11,5.23-1.41,2.57-.37,5.25-.62,7.84-.8,7.25-.52,14.57-.28,21.79.59,2.9.35,5.87.79,8.71,1.44,1.8.49,4.04.79,5.23,2.37l.87-.51c.87.28,1.84-.34,2.61-.66.76-.26,1.82-.5,2.61-.63,4.58-.62,9.43-1,13.94.19,1.85-.87,4.09-.88,6.1-1.08,2.87-.18,5.85-.26,8.71.12"/><path class="c" d="M8.42,175.89c2.01.25,4.55-.01,6.1,1.5,3.27-3.8,36.62-4.02,40.96-1.11,3.02-1.17,6.4-1.07,9.59-1.23,4.34-.12,8.73-.14,13.07-.12,3.76.03,7.58.08,11.33.28,1.4.08,2.97.19,4.36.37,1.17.16,2.6.34,3.49,1.2.86-.94,2.3-1.19,3.49-1.42,1.69-.31,3.52-.55,5.23-.73,4.9-.52,9.88-.8,14.82-.82,5.46-.06,27.77,1.12,30.5,5.27,2.64-2.21,6.31-2.34,9.59-2.61,1.7-.09,3.53-.11,5.23,0,1.13.09,2.5.16,3.49.78,1.85-.92,4.08-1.02,6.1-1.23,2.58-.2,5.26-.27,7.84-.06"/><path class="c" d="M8.42,173.66c2.3.12,4.77.14,6.97.87l.87.94c.57-.94,1.58-1.39,2.61-1.59,1.39-.33,2.95-.58,4.36-.76,4.9-.62,9.88-.85,14.81-.89,4.64-.02,9.33.13,13.94.63,1.1.12,2.4.31,3.49.53.81.14,1.78.66,2.61.67,1.03-.5,2.36-.66,3.49-.78,8.1-.62,16.28-.62,24.4-.38,2.3.1,4.7.22,6.97.61.8.12,1.79.64,2.61.59.72-.42,1.81-.71,2.61-.87,12.64-2.05,25.63-2.31,38.35-.82,2.89.35,5.86.78,8.71,1.39,2.06.53,4.53.81,6.1,2.37.92-.59,1.81-.44,2.61.26,2.05-2.08,6.77-2,9.59-2.23,1.4-.04,2.96-.03,4.36.07,1.18.1,2.65.15,3.49,1.1,1.05-1.19,2.9-1.17,4.36-1.41,2.57-.29,5.26-.39,7.84-.28"/><path class="c" d="M8.42,171.5c2,.03,4.11.1,6.1.32,1.15.14,2.58.3,3.49,1.1,4.34-3.46,36.78-3.6,41.83-.86,3.34-1.11,6.98-1.05,10.46-1.26,4.63-.18,9.31-.23,13.94-.09,2,.07,4.12.18,6.1.44.81.1,1.88.32,2.61.68.49.06,1.32-.16,1.74-.41,5.39-1.35,11.04-1.55,16.56-1.95,8.41-.51,16.9-.39,25.27.61,2.89.34,5.86.77,8.71,1.37,1.76.46,3.91.68,5.23,2.04,1.23-.86,2.96-.61,4.36-.37.43.21,1.27.39,1.74.34,2.53-1.68,14.16-2.29,16.56-.44,1.16-.99,2.91-1.06,4.36-1.27,1.99-.23,4.1-.31,6.1-.28"/><path class="c" d="M8.42,169.38c3.17,0,6.44-.01,9.59.48.8.11,1.79.61,2.61.61,5.44-3.03,35.94-3.12,41.83-.56,5.1-1.25,10.46-1.23,15.69-1.35,4.64.05,9.46-.19,13.94,1.17,2.09-1.12,4.67-1.17,6.97-1.53,3.45-.4,6.99-.68,10.46-.89,8.41-.51,16.89-.58,25.27.32,4.95.66,10.27.9,14.82,3.13,2.05-1.04,6.77-.67,8.71.56,1.91-1.49,4.67-1.35,6.97-1.6,3.19-.12,6.54-.19,9.59.9,2.61-1.36,5.84-1.19,8.71-1.34"/><path class="c" d="M8.42,167.33c4.94-.13,10.02-.26,14.82.99,5.49-2.94,36.84-2.95,42.7-.35,2.22-1.71,22.01-2.04,24.4-.39,3.05-1.11,6.38-1.39,9.59-1.74,4.33-.43,8.73-.71,13.07-.89,7.25-.32,14.56-.28,21.79.49,2.6.27,5.28.61,7.84,1.09,1.74.38,3.75.64,5.23,1.71,2.22-.71,4.66-.76,6.97-.59,1.75.22,3.98.11,5.23,1.55,1.49-1.61,4.08-1.41,6.1-1.67,3.15-.05,6.64-.4,9.59.89.81-.09,1.81-.58,2.61-.72,1.68-.33,3.52-.46,5.23-.52"/><path class="c" d="M8.42,165.33c3.46-.2,6.99-.29,10.46-.19,2.3.15,4.82.06,6.97.98.48,0,1.33-.23,1.74-.46.77-.22,1.83-.44,2.61-.56,5.75-.83,11.62-1.01,17.43-1.05,4.34,0,8.74.13,13.07.45,2.59.28,5.39.22,7.84,1.17,3.67-.95,7.54-1.11,11.33-1.17,3.15.09,6.6-.27,9.59.89,3.08-.99,6.38-1.34,9.59-1.65,4.62-.45,9.31-.73,13.94-.91,7.25-.3,14.56-.29,21.79.48,2.9.31,5.88.69,8.71,1.36,1.15.18,2.34.97,3.49,1.11,2.37-1.28,12.81-.98,14.81.84,2.33-1.34,5.24-1.26,7.84-1.36,2.62,0,5.39.1,7.84,1.13,1.76-1.13,4.09-1.08,6.1-1.29"/><path class="c" d="M8.42,163.39c4.33-.4,8.73-.57,13.07-.5,2.87.18,6.05-.08,8.71,1.13,2.5-.88,5.21-1.25,7.84-1.46,3.46-.3,6.99-.45,10.46-.5,7.25,0,14.61,0,21.79,1.11,1.09.6,2.38,0,3.49-.2,1.08-.17,2.39-.29,3.49-.36,2.58-.16,5.26-.21,7.84-.08,1.43.13,3.16.06,4.36.95,2.29-1.38,5.26-1.26,7.84-1.68,3.75-.39,7.57-.66,11.33-.85,7.83-.37,15.71-.63,23.53.04,4.38.5,9.07.6,13.07,2.61,2.36-1.84,15.85-1.21,18.3.6,2.49-.87,5.21-1.14,7.84-1.08,2.29.16,5.1-.11,6.97,1.43,1.32-1.33,3.49-1.25,5.23-1.5"/><path class="c" d="M8.42,161.52c4.45-.7,24.14-2.03,27.02.58,2.42-2.02,13.78-1.91,17.43-2.05,4.05-.03,8.16.08,12.2.28,2.89.19,5.93.24,8.71,1.12,2.69-1.14,5.84-.93,8.71-1.09,1.4-.02,2.96.01,4.36.11,1.14.1,2.55.17,3.49.91.67-.59,1.75-.87,2.61-1,1.39-.25,2.95-.44,4.36-.6,4.04-.43,8.15-.7,12.2-.89,8.12-.35,16.3-.61,24.4.25,3.2.47,6.8.48,9.59,2.28,2.47-2.32,18.75-1.4,21.79.39.49.15,1.32-.01,1.74-.29,1.07-.28,2.38-.4,3.49-.45,1.7-.07,3.54-.02,5.23.18,1.17.14,2.57.41,3.49,1.19,1.12-1.08,2.9-1.16,4.36-1.39"/><path class="c" d="M8.42,159.76c7.43-1.45,15.11-1.6,22.66-1.45,2,.07,4.12.19,6.1.46,1.18.17,2.64.33,3.49,1.27,1.89-2.14,14.08-1.88,17.43-1.97,3.17.02,6.42.09,9.59.25,2.3.19,4.81.17,6.97,1.06,2.3-1.49,14.96-1.7,17.43-.39,2.79-.93,5.8-1.2,8.71-1.47,4.04-.36,8.15-.58,12.2-.72,6.77-.18,23.26-.84,28.76,2.36,2.34-2.48,24.03-1.78,26.14.99,1.35-1.26,3.51-1.03,5.23-1.13,2.36-.06,4.76.34,6.97,1.14.97-.67,2.35-.91,3.49-1.09"/><path class="c" d="M8.42,158.23c2.13-1.02,4.66-1.16,6.97-1.51,3.45-.41,6.99-.64,10.46-.76,5.22-.14,10.51-.12,15.69.55.79.11,1.85.31,2.61.53.41.23,1.27.47,1.74.45,1.85-.89,4.09-.92,6.1-1.13,2.58-.19,5.26-.25,7.84-.26,4.92.1,10.02-.21,14.82,1.09,3.21-1.66,17.56-1.85,20.92-.28,2.36-1.21,5.26-1.11,7.84-1.45,3.75-.32,7.57-.49,11.33-.61,5.21-.15,10.48-.29,15.69.12,3.24.23,6.57.62,9.59,1.86,4.1-2.64,25.18-1.7,29.63.7.51.18,1.27.09,1.74-.18.42-.09,1.31-.2,1.74-.22,2.3-.03,4.95-.15,6.97,1.1,1.07-.42,2.34-.95,3.49-1.12"/><path class="c" d="M8.42,156.13l.87.16c2.08-1.17,4.66-1.31,6.97-1.71,3.74-.5,7.56-.78,11.33-.92,6.09-.18,12.26-.14,18.3.75.79.13,1.86.35,2.61.6.41.29,1.25.52,1.74.4,3.56-1.32,7.58-1.03,11.33-1.2,4.05.06,8.29-.24,12.2.97,2.87-1.9,22.63-2.4,25.27-.26,2.09-1.12,4.66-1.12,6.97-1.4,3.16-.27,6.41-.41,9.59-.5,4.63-.13,9.32-.28,13.94.07,2.6.29,5.5.27,7.84,1.55,1.15-.03,2.32-.83,3.49-.93,4.01-.68,8.15-.77,12.2-.75,6.11.18,12.42.37,18.3,2.18.39.26,1.27.56,1.74.58.74-.31,1.82-.41,2.61-.41,1.1,0,2.42.13,3.49.43.39.22,1.28.45,1.74.41.71-.47,1.79-.82,2.61-.99"/><path class="c" d="M8.42,154.07l.87.32c3.83-1.65,8.09-2.07,12.2-2.52,5.78-.56,11.63-.71,17.43-.51,2.88.11,5.85.31,8.71.68,2.05.29,4.29.59,6.1,1.67.95-.72,2.34-.88,3.49-1.02,1.69-.18,3.53-.26,5.23-.3,1.99-.05,4.11-.05,6.1.09,1.12.09,2.5.17,3.49.79,4.25-2.45,27.17-2.9,31.37-.37,1.49-1,3.51-.98,5.23-1.21,2.87-.26,5.83-.38,8.71-.47,3.69-.03,16.05-.75,18.3,1.8,3.91-3.91,35.79-2.63,40.09,1.11,1.06-.4,2.4-.39,3.49-.14.42.19,1.28.38,1.74.36.69-.52,1.78-.92,2.61-1.13"/><path class="c" d="M8.42,152.4l.87.21c4.04-1.98,8.65-2.46,13.07-2.97,6.06-.61,12.21-.75,18.3-.52,3.18.13,6.43.37,9.59.8,2.35.34,4.87.71,6.97,1.88,2.03-1.22,4.69-.96,6.97-1.13,1.99.08,4.38-.29,6.1.89,1.36-1.26,3.49-1.31,5.23-1.66,2.57-.38,5.25-.61,7.84-.76,4.63-.26,9.32-.27,13.94,0,3.51.23,7.14.46,10.46,1.72,1.27-.72,2.93-.81,4.36-.97,2.28-.21,4.68-.3,6.97-.38,4.95-.21,10.05-.28,14.82,1.13,5.75-3.6,42.51-2.98,46.19,2.84.92-.94,2.22-1.78,3.49-2.14"/><path class="c" d="M8.42,150.56l.87.58c5.54-4.55,25.6-4.52,33.12-4.18,4.95.27,9.98.67,14.82,1.83,1.23.19,2.34,1.1,3.49,1.1,1.02-.47,2.37-.58,3.49-.64,1.13-.02,2.55-.09,3.49.67,1.09-1.15,2.89-1.35,4.36-1.69,1.98-.39,4.1-.67,6.1-.88,6.64-.68,13.38-.8,20.04-.46,2.59.14,5.27.36,7.84.71,1.72.27,3.65.49,5.23,1.28.83.26,1.8-.34,2.61-.44,1.08-.18,2.39-.29,3.49-.37,4.32-.18,8.85-.71,13.07.44l.87.98c1.03-1.78,3.42-1.8,5.23-2.21,3.15-.51,6.4-.79,9.59-.95,6.96-.33,13.99-.14,20.92.67,4.43.59,9.05,1.13,13.07,3.18.42-.24,1.26-.46,1.74-.43.45.17,1.29.16,1.74-.03"/><path class="c" d="M8.42,147.83c1.11-.29,2.38.16,3.49.13,1.24-.89,2.9-1.26,4.36-1.6,2.27-.49,4.67-.83,6.97-1.08,8.96-.91,18.06-.86,27.02.12,3.35.52,11.14,1.13,13.07,3.89,5.74-6.14,44.85-5.93,52.29-1.93,2.24-.65,4.65-.9,6.97-.98,1.99,0,4.29-.22,6.1.75,9.51-4.45,40.95-4.04,50.55.46,1.26-.76,2.94-.75,4.36-.61"/><path class="c" d="M8.42,144.89c1.41-.03,3.06-.04,4.36.58.86-.05,1.8-.71,2.61-.92,2.53-.73,5.24-1.09,7.84-1.39,5.48-.59,11.05-.74,16.56-.58,3.77.12,7.6.38,11.33.9,2.32.42,4.94.57,6.97,1.85,1.37-.39,2.94-.5,4.36-.39,1.13.09,2.5.19,3.49.8,4.3-2.1,9.25-2.38,13.94-2.9,8.98-.76,18.06-.66,27.02.28,2.6.28,5.28.66,7.84,1.16,1.75.43,3.89.57,5.23,1.89.66-.64,1.73-.9,2.61-.95,1.1-.1,2.44-.13,3.49.29.86-.08,1.8-.74,2.61-.97,1.08-.34,2.38-.66,3.49-.88,6.01-1.18,12.18-1.61,18.3-1.74,5.59-.1,23.01.27,27.02,3.33,1.87-.9,4.06-1.1,6.1-.98"/><path class="c" d="M8.42,142.23c2,.06,4.31-.11,6.1.92,3.25-1.52,6.92-1.9,10.46-2.25,4.91-.45,9.89-.55,14.82-.37,2.89.11,5.85.32,8.71.71,1.74.32,3.82.4,5.23,1.58,2.33-1.28,5.28-.86,7.84-.89,2.31.19,4.89.11,6.97,1.26,2.99-2.53,16.52-2.83,20.92-2.97,8.74-.09,17.57.41,26.14,2.17,2.02.49,4.26.89,6.1,1.9.44-.06,1.33.08,1.74.26,7.22-5.82,44.91-6.24,53.16-1.68,1.99-1.31,4.68-1.15,6.97-1.2"/><path class="c" d="M8.42,139.71c2.58.11,5.54-.19,7.84,1.16,2.42-1.19,5.18-1.6,7.84-1.89,3.45-.38,6.99-.53,10.46-.54,2.88,0,5.85.1,8.71.37,2.02.25,4.25.35,6.1,1.27,1.13.04,2.35-.61,3.49-.65,2.86-.32,5.84-.32,8.71-.2,1.7.08,3.54.22,5.23.42,1.17.16,2.62.31,3.49,1.21,2.18-2.18,11.46-2.33,14.82-2.59,5.8-.24,11.65-.14,17.43.36,4.11.36,8.31.85,12.2,2.27,2.17-.83,4.69-.52,6.97-.44,1.43.14,3.2.01,4.36,1,2.49-2.18,10.45-2.73,13.94-3.19,6.94-.66,13.96-.77,20.92-.37,2.89.17,5.86.44,8.71.89,1.74.32,3.72.55,5.23,1.54.84.04,1.8-.54,2.61-.68,1.97-.39,4.1-.52,6.1-.5"/><path class="c" d="M8.42,137.28c1.7-.02,3.54.04,5.23.19,1.44.17,3.13.29,4.36,1.14,4.9-2.08,10.45-1.96,15.69-2.11,2.29,0,4.69.08,6.97.28,1.72.22,3.72.27,5.23,1.22,2.18-.89,4.64-1.11,6.97-1.25,3.17-.18,6.42-.17,9.59,0,2,.12,4.12.27,6.1.53,1.17.17,2.62.33,3.49,1.22,2.19-2.04,10.7-2.03,13.94-2.25,4.63-.14,9.32-.04,13.94.33,3.23.25,6.53.67,9.59,1.78,1.29-.66,2.94-.7,4.36-.81,1.99-.1,4.11-.09,6.1-.01,2.58.23,5.44-.04,7.84,1.06,4.14-1.63,8.66-2.07,13.07-2.49,6.07-.52,12.21-.64,18.3-.37,3.18.15,6.44.39,9.59.87,1.75.35,3.89.45,5.23,1.77,1.19-.95,2.9-1.15,4.36-1.35,1.69-.21,3.53-.3,5.23-.3"/><path class="c" d="M8.42,134.92c2.29-.03,4.69.05,6.97.3,1.44.19,3.13.35,4.36,1.2,3.84-1.57,8.1-1.69,12.2-1.8,2.59-.03,5.28.04,7.84.38.44.06,1.31.23,1.74.35.43.25,1.25.44,1.74.33,2.7-1.16,5.83-1.13,8.71-1.38,4.34-.23,8.74-.15,13.07.19,1.7.13,3.54.29,5.23.53,1.23.18,2.74.34,3.49,1.47.74-1.15,2.24-1.34,3.49-1.53,2.28-.33,4.68-.49,6.97-.58,4.05-.15,8.16-.1,12.2.2,2.61.28,5.49.31,7.84,1.59,1.76-1.11,4.1-.96,6.1-1.17,2.87-.15,5.84-.15,8.71-.06,2,.07,4.11.16,6.1.33,1.43.17,3.14.2,4.36,1.07,5.65-3.4,38.07-3.92,43.57-.3,1.17-.98,2.91-1.09,4.36-1.3,1.98-.24,4.1-.36,6.1-.37"/><path class="c" d="M8.42,132.62c2.59-.05,5.27.04,7.84.31,1.73.24,3.74.36,5.23,1.37,3.03-1.16,6.35-1.46,9.59-1.51,1.7-.03,3.54,0,5.23.16,1.14.12,2.53.26,3.49.95,3.2-1.58,6.97-1.58,10.46-1.9,5.21-.32,10.48-.23,15.69.19,2,.15,4.12.34,6.1.63,1.17.19,2.63.34,3.49,1.24.88-.89,2.31-1.04,3.49-1.19,1.99-.24,4.1-.34,6.1-.38,4.64.02,9.49-.16,13.94,1.34,2.11-1.03,4.68-.95,6.97-1.19,3.17-.2,6.41-.26,9.59-.23,2.88.03,5.84.13,8.71.31,2.33.15,4.79.33,6.97,1.23,1.49-1.02,3.5-1.15,5.23-1.45,2.57-.35,5.25-.57,7.84-.72,6.95-.37,13.98-.36,20.92.36,2.02.28,4.27.41,6.1,1.39.49.1,1.34-.11,1.74-.39.42-.13,1.31-.34,1.74-.41,2.85-.47,5.83-.64,8.71-.68"/><path class="c" d="M8.42,130.37c3.88,0,11.62-.12,14.82,1.87,2.49-.9,5.19-1.26,7.84-1.24,2,.05,4.26-.09,6.1.82,3.6-1.37,7.51-1.75,11.33-2.03,5.2-.37,10.48-.39,15.69-.01,4.34.42,8.88.41,13.07,1.67.46.13,1.32.01,1.74-.22,1.08-.23,2.39-.34,3.49-.39,3.45-.02,7.2-.36,10.46.95,2.36-1.2,5.27-1.04,7.84-1.35,4.33-.31,8.73-.42,13.07-.4,3.76.02,7.58.11,11.33.35,2.29.27,4.94.11,6.97,1.35,2.95-1.4,6.39-1.47,9.59-1.8,4.91-.37,9.89-.47,14.82-.34,2.88.08,5.85.24,8.71.57,1.74.3,3.89.29,5.23,1.59,1.4-1.2,3.48-1.27,5.23-1.53,2.57-.29,5.25-.44,7.84-.48"/><path class="c" d="M8.42,128.16c4.14-.06,13.22-.11,16.56,2.11,1.66-.55,3.47-.99,5.23-.98,1.72,0,3.7-.08,5.23.83,1.15-1.05,2.89-1.27,4.36-1.59,2.27-.42,4.67-.69,6.97-.89,9-.83,18.05-.24,27.02.7,3.18.27,6.4.89,9.59,1.04,2.6-.07,5.26-.53,7.84-.72,8.39-.76,16.85-1.01,25.27-.88,5.82.15,11.79.07,17.43,1.59,2.12-1.03,4.67-1.06,6.97-1.34,3.16-.27,6.41-.4,9.59-.44,5.22-.03,10.52.02,15.69.81.44.07,1.32.28,1.74.4.4.27,1.26.48,1.74.39,1.84-.92,4.09-1.02,6.1-1.27,2.58-.24,5.26-.38,7.84-.42"/><path class="c" d="M8.42,126.01c4.35-.13,14.93-.1,18.3,2.4,2.2-.86,4.72-1,6.97-.23,1.46-1.12,3.48-1.38,5.23-1.75,2.86-.52,5.82-.84,8.71-1.06,8.13-.69,16.3-.16,24.4.6,6.66.75,13.37.67,20.04.16,8.7-.5,17.44-.69,26.14-.52,3.47.06,7,.16,10.46.47,2.01.3,4.45.15,6.1,1.49,1.44-1.11,3.5-1.12,5.23-1.37,2.87-.29,5.83-.42,8.71-.49,4.63-.08,9.33-.04,13.94.42,1.1.12,2.41.3,3.49.58.4.2,1.29.45,1.74.48,1.81-1.01,4.08-1.08,6.1-1.35,3.16-.32,6.41-.47,9.59-.52"/><path class="c" d="M8.42,123.9c4.53-.22,16.77-.11,20.04,2.82,1.08-.46,2.54-.75,3.49.13,1.74-2.36,9.21-2.88,12.2-3.32,8.69-.99,17.46-.7,26.14.17,6.95.71,13.95.6,20.92.21,8.99-.4,18.02-.57,27.02-.43,3.47.04,7,.13,10.46.4,2.62.24,5.41.38,7.84,1.45,2.65-1.95,25.95-2.03,28.76-.11,5.85-1.93,12.19-1.79,18.3-2.04"/><path class="c" d="M8.42,121.84c4.41-.33,19.54-.24,21.79,3.72,1.88-1.81,4.46-2.59,6.97-3.08,2.56-.53,5.24-.89,7.84-1.15,8.11-.87,16.3-.62,24.4.22,7.82.81,15.7.43,23.53.14,9.28-.3,18.6-.36,27.89-.27,3.76.05,7.59.2,11.33.57,1.09.11,2.41.27,3.49.47.9.12,2.03.48,2.61,1.23,1.05-1.2,2.9-1.09,4.36-1.29,1.99-.17,4.1-.25,6.1-.29,2.58-.04,5.26-.02,7.84.12,2,.18,4.25.13,6.1,1.01,2.51-.83,5.2-1.32,7.84-1.53,4.33-.43,8.73-.57,13.07-.65"/><path class="c" d="M8.42,119.83c4.43-.44,17.87-.3,20.92,2.78.42-.23,1.27-.4,1.74-.32l.87.73c.88-1.54,2.77-1.93,4.36-2.35,2.84-.69,5.81-1.09,8.71-1.4,8.41-.95,16.88-.55,25.27.35,7.82.72,15.7.15,23.53.03,9.29-.17,18.6-.22,27.89-.24,4.05.03,8.17.19,12.2.57,1.4.14,2.97.32,4.36.58.88.13,2,.47,2.61,1.15.9-.85,2.32-.91,3.49-1.03,1.4-.12,2.96-.18,4.36-.21,3.45.07,7.15-.25,10.46.86,7.87-2.16,16.25-2.14,24.4-2.34"/><path class="c" d="M8.42,117.88c3.63-.56,18.01-.52,20.04,2.45.62-.71,1.72-.89,2.61-.84.84-.01,1.92.19,2.61.69,2.08-2.19,9.1-2.6,12.2-3.02,4.62-.43,9.31-.61,13.94-.42,3.77.17,7.57.72,11.33.99,8.98.6,18.02-.17,27.02-.02,9.87.17,19.76-.44,29.63-.22,3.18.1,6.43.29,9.59.63,2.31.35,4.93.37,6.97,1.6,1.63-.58,3.51-.66,5.23-.68,2.03-.05,4.14.18,6.1.69,1.25-.81,2.92-1.04,4.36-1.31,1.98-.33,4.1-.57,6.1-.75,5.78-.54,11.63-.66,17.43-.73"/><path class="c" d="M8.42,116.02c3.6-.78,16.67-.74,19.17,1.79.94-.73,2.34-.79,3.49-.83,1.43-.04,3.02.1,4.36.65,1.43-1.16,3.48-1.39,5.23-1.76,2.57-.45,5.25-.74,7.84-.93,4.04-.29,8.16-.38,12.2-.14,4.06.28,8.14.98,12.2,1.18,6.96.23,13.96-.24,20.92.02,4.05.15,8.2.2,12.2.88,1.1.15,2.41-.29,3.49.15,6.67-2.31,33.42-2.27,39.22,1.42.78.01,1.84.14,2.61-.03.42-.29,1.26-.73,1.74-.87,1.66-.54,3.51-.89,5.23-1.16,8.35-1.27,16.84-1.39,25.27-1.44"/><path class="c" d="M8.42,114.35c3.6-1.33,14.95-.95,18.3.89,3.42-.75,7.04-.89,10.46-.01,1.51-.99,3.49-1.22,5.23-1.55,2.57-.41,5.25-.66,7.84-.82,3.75-.21,7.58-.26,11.33.06,3.47.34,6.97,1.03,10.46,1.27,4.63.2,9.31-.19,13.94-.03,1.4.03,2.96.1,4.36.22,1.14.12,2.55.19,3.49.92,2.55-2.24,21.36-2.53,24.4-.8,4.47-1.35,9.32-.97,13.94-.94,4.98.23,10.12.49,14.82,2.25,2.16-.98,4.73-.63,6.97-.14,1.25-.82,2.92-1.07,4.36-1.34,2.27-.39,4.67-.65,6.97-.84,6.07-.53,12.21-.49,18.3-.5"/><path class="c" d="M8.42,112.33l.87.15c2.95-1.49,14.67-1.07,17.43.8,1.88-1.29,9.13-1.18,11.33-.36.51.06,1.32-.19,1.74-.46.76-.26,1.82-.51,2.61-.65,5.16-.89,10.46-1.15,15.69-1.01,3.21.07,6.45.6,9.59,1.27,1.42.21,2.91.99,4.36.92,2.86-.28,5.82-.67,8.71-.59,2.29.09,4.84-.1,6.97.84,5.25-1.97,11.01-2.07,16.56-2.31,5.81-.04,11.81-.2,17.43,1.45,2.96-1.44,18.46-1.15,20.92.98,3.08-1.72,12.47-1.77,15.69-.28,1.22-.88,2.92-1.03,4.36-1.28,1.69-.24,3.53-.41,5.23-.52,5.21-.38,10.47-.24,15.69-.22"/><path class="c" d="M8.42,109.94c.47.11,1.34.5,1.74.76,1.99-1.29,4.69-.94,6.97-1.05,3.22.04,6.54.27,9.59,1.36,2.23-1.08,10.88-1.26,13.07-.09,5.16-2.35,22.06-3.07,27.02-.29,1.01-.55,2.37-.5,3.49-.47,1.72.09,3.62.23,5.23.91.79.18,1.82-.18,2.61-.2,1.7-.04,3.65-.13,5.23.61.48-.08,1.33-.42,1.74-.67,1.06-.39,2.37-.69,3.49-.9,4.58-.83,9.29-1.15,13.94-1.3,4.05-.11,8.16-.05,12.2.25,2.93.2,5.93.61,8.71,1.53,2.47-1.25,13.57-1.13,15.69.65,3.48-2.25,19-2.41,22.66-.5,7.04-1.97,14.53-1.41,21.79-1.34"/><path class="c" d="M8.42,107.76c.9.13,2.02.48,2.61,1.21.61-.73,1.71-1.02,2.61-1.09,1.39-.16,2.96-.21,4.36-.19,1.7.02,3.54.13,5.23.35,1.15.16,2.54.38,3.49,1.1,1.74-1.14,4.11-.9,6.1-1.08,2.89-.08,5.91-.1,8.71.69,1.26-.77,2.93-.96,4.36-1.19,1.98-.27,4.1-.44,6.1-.53,4.35-.08,8.99-.38,13.07,1.37,2.41-1.1,10.13-.35,12.2,1.34.79-.23,1.87-.23,2.61.16,2.94-1.58,6.3-2.22,9.59-2.65,4.03-.55,8.14-.82,12.2-.94,4.34-.11,8.74-.03,13.07.33,3.22.31,6.58.55,9.59,1.82,2.11-1.01,4.69-.75,6.97-.73,1.1.06,2.41.2,3.49.48.41.23,1.27.45,1.74.42,1.51-.97,3.49-1.18,5.23-1.46,2.86-.38,5.83-.55,8.71-.59,5.36-.05,10.57.14,15.69,1.72,1.84-.91,4.09-.9,6.1-1.06,3.75-.21,7.57.03,11.33.11"/><path class="c" d="M8.42,105.68c1.13.16,2.45.49,3.49.98,2.06-1.15,4.69-.87,6.97-.96,2.92,0,5.92.31,8.71,1.17,2.16-.87,4.68-.76,6.97-.88,2.6-.01,5.34-.07,7.84.73,1.26-.78,2.93-.94,4.36-1.16,1.69-.22,3.53-.36,5.23-.43,3.17-.11,6.45-.14,9.59.41.81.13,1.78.68,2.61.69,3.06-.99,10.69-.26,13.07,2,1.21-.23,2.31-1.26,3.49-1.59,1.66-.57,3.51-.95,5.23-1.25,5.74-.95,11.61-1.29,17.43-1.33,4.39.03,17.8.18,20.92,2.54,2.21-.95,6.65-1.16,8.71.16,5.28-3.53,30.24-3.66,35.73-.56,4.8-1.3,9.88-.87,14.81-.65"/><path class="c" d="M8.42,103.71c1.12.16,2.48.34,3.49.92,3.06-1.01,6.39-.99,9.59-.88,1.4.06,2.97.19,4.36.41.87.11,1.98.41,2.61,1.04.67-.57,1.76-.81,2.61-.89,1.39-.17,2.96-.24,4.36-.27,1.4-.02,2.96,0,4.36.12.83.05,1.93.23,2.61.76,2.01-1.98,19.18-2.67,20.92-.31,1.46-1.07,3.53-.73,5.23-.68,2.09.12,4.22.66,6.1,1.57,1.24-.74,3.11-1.05,4.36-.19,2.23-2.38,12.98-2.9,16.56-3.19,6.96-.37,13.99-.27,20.92.55,2.6.48,5.67.42,7.84,2.08,1.76-.72,4.66-1.13,6.1.36,3.12-4.69,38.36-4.76,41.83-.41,1.06-1.19,2.9-1.06,4.36-1.16,2.29-.05,4.69.11,6.97.26"/><path class="c" d="M8.42,101.85c1.12.13,2.48.3,3.49.85,3.34-1.11,6.97-1.1,10.46-.99,1.4.06,2.97.18,4.36.36,1.15.17,2.57.34,3.49,1.12,1.79-1.04,4.1-.86,6.1-.97,1.7.05,3.67-.12,5.23.66,3.52-1.9,18.39-2.55,21.79-.47,2.85-.52,6.19-.63,8.71,1.02.9-.83,2.32-1.03,3.49-1.14,1.1-.08,2.45-.15,3.49.31,7.7-3.64,37.96-3.94,45.32.31,1.07-.57,2.58-.56,3.49.31.78-1.12,2.23-1.64,3.49-1.99,1.67-.48,3.51-.84,5.23-1.11,7.19-1.08,14.53-1.26,21.79-.87,3.18.18,6.44.5,9.59,1.01,2.33.45,4.91.75,6.97,2,.81.14,1.81-.33,2.61-.37,1.99-.15,4.11,0,6.1.17"/><path class="c" d="M8.42,100.17c1.14.08,2.51.26,3.49.9.92-.8,2.33-.98,3.49-1.14,1.69-.21,3.53-.28,5.23-.29,4.08.07,8.35.11,12.2,1.58,2.17-.9,4.72-.59,6.97-.21,1.28-.73,2.93-.94,4.36-1.18,2.28-.33,4.67-.54,6.97-.64,4.67-.14,9.58-.29,13.94,1.58,1.4-.4,3.17-.25,4.36.64,2.07-1.21,4.62-1.44,6.97-1.45.79,0,1.82.28,2.61.19.43-.21,1.28-.53,1.74-.63,9.99-2.05,20.37-2.06,30.5-1.26,2.3.22,4.7.53,6.97,1,1.79.4,3.85.8,5.23,2.11l.87-.29.87.19c2.44-2.58,8.72-3.16,12.2-3.75,9.24-1.15,18.64-1.12,27.89-.07,2.9.35,5.88.82,8.71,1.52,1.51.43,3.41.74,4.36,2.13,1.31-1.35,3.53-.79,5.23-.76"/><path class="c" d="M8.42,99.27c.84-.47,1.88-.34,2.61.26,2.45-2.91,21.92-2.33,24.4.65,1.81-1.18,3.97-1.83,6.1-2.15,2.85-.49,5.82-.77,8.71-.92,5.56-.1,12.8-.65,17.43,2.86,1.78-1.22,3.96-1.77,6.1-1.83,1.12-.05,2.46.3,3.49-.3,4.53-1.2,9.29-1.55,13.94-1.87,5.79-.32,11.65-.3,17.43.19,3.74.46,10.33.77,13.07,3.37l.87-.07c2.73-2.71,8.48-3.3,12.2-4,9.51-1.36,19.21-1.45,28.76-.55,3.83.42,16.04,1.81,18.3,4.42.4-.32,1.23-.64,1.74-.59"/><path class="c" d="M8.42,96.32c.48.2,1.35.76,1.74,1.1.73-.48,1.8-.29,2.61-.35,2.1-1.09,4.66-1.1,6.97-1.24,2-.06,4.11-.01,6.1.16,1.42.17,3.11.23,4.36,1.02,1.32-.58,2.94-.58,4.36-.59,1.11.03,2.47.06,3.49.57,4.38-1.75,9.29-1.82,13.94-2.07,4.7-.11,9.58-.05,13.94,1.85,2.12-1.01,4.68-.88,6.97-1.22,3.17-.34,6.41-.77,9.59-1.07,8.39-.79,16.88-.99,25.27-.19,3.21.36,6.57.73,9.59,1.97.9.35,1.69,1.44,2.61,1.76.91-1.99,3.34-2.41,5.23-3.04,4.25-1.19,8.69-1.85,13.07-2.31,15.13-1.4,30.69-.58,45.32,3.72"/><path class="c" d="M8.42,94.21l.87.43c1.27-.73,2.94-.62,4.36-.64,2.88.02,5.84.49,8.71.18,3.74-.37,7.57-.63,11.33-.6,2.28.13,4.88-.15,6.97.9,3.69-1.97,20.23-2.67,23.53-.06,1.73-1.17,4.1-1.01,6.1-1.3,2.88-.25,5.84-.47,8.71-.68,7.54-.58,30-1.77,35.73,2.31.76-.44,1.81-.41,2.61-.11.55.05,1.33-.3,1.74-.63,4.17-1.56,8.69-2.26,13.07-2.97,17.11-2.46,34.6-1.28,51.42,2.54"/><path class="c" d="M8.42,92.56c1.34-1.28,3.51-.95,5.23-1.1,2.58-.05,5.26-.04,7.84-.12,6.66-.13,13.44-.75,20.04.3.77.45,1.85.23,2.61-.12,1.37-.33,2.95-.51,4.36-.64,2.87-.24,5.84-.31,8.71-.14,1.72.15,3.68.22,5.23,1.08.82,0,1.81-.46,2.61-.58,1.98-.33,4.1-.47,6.1-.61,4.63-.29,9.31-.5,13.94-.62,4.34-.1,8.74-.1,13.07.17,3.21.25,6.57.42,9.59,1.64,1.33-.54,2.95-.45,4.36-.42,1.13.06,2.49.17,3.49.76,3.01-1.39,6.34-1.89,9.59-2.46,4.6-.82,9.29-1.42,13.94-1.78,8.69-.66,17.47-.56,26.14.31,6.13.59,12.23,1.74,18.3,2.75"/><path class="c" d="M8.42,89.78c2.49-.81,5.26-.59,7.84-.73,3.46-.07,6.99-.19,10.46-.28,3.46-.08,7-.11,10.46.03,2.28.23,4.96-.06,6.97,1.19,1.88-1.8,15.25-1.91,17.43-.32,5.34-1.56,11.05-1.29,16.56-1.52,3.46-.05,7-.04,10.46.1,2.3.14,4.75.16,6.97.81,1.11.13,2.37-.38,3.49-.39,2.28-.18,4.68-.21,6.97-.16,2.58.18,5.5-.06,7.84,1.18,3-1.37,6.34-1.8,9.59-2.24,4.03-.61,8.14-1.16,12.2-1.52,9.26-.84,18.62-.86,27.89-.07,6.71.54,13.38,1.74,20.04,2.66"/><path class="c" d="M8.42,87.45c2.53-.61,5.26-.53,7.84-.66,3.46-.11,6.99-.24,10.46-.32,3.46-.08,7-.09,10.46.04,2.6.13,5.35.21,7.84,1.04,2.39-1.1,5.26-.94,7.84-1.09,2-.02,4.12.03,6.1.33.8.11,1.81.57,2.61.62,1.58-.75,3.51-.82,5.23-1,2.29-.18,4.68-.27,6.97-.3,2.29-.03,4.68,0,6.97.11,1.71.14,3.63.1,5.23.8,4.5-1.27,9.31-1.07,13.94-1.17,2.29,0,4.69.08,6.97.25,1.72.18,3.67.25,5.23,1.07.88.06,1.79-.64,2.61-.83,1.96-.53,4.09-.83,6.1-1.07,4.92-.58,9.88-1.24,14.81-1.62,9.27-.74,18.62-.75,27.89.03,6.7.52,13.37,1.68,20.04,2.46"/><path class="c" d="M8.42,85.25c2.84-.57,5.84-.52,8.71-.68,3.75-.15,7.57-.31,11.33-.36,3.17-.04,6.42-.03,9.59.13,2.3.2,4.85.11,6.97,1.12,2.33-1.25,5.27-.98,7.84-1.16,2-.02,4.12.04,6.1.36.82.1,1.77.71,2.61.48,3.88-1.25,8.16-1.02,12.2-1.1,1.4.02,2.96.07,4.36.19,1.19.12,2.69.14,3.49,1.18.99-1.29,2.88-1.22,4.36-1.47,2.57-.29,5.25-.43,7.84-.5,3.17-.08,6.42-.06,9.59.11,2.63.16,5.41.32,7.84,1.42,1.19-.96,2.9-1.2,4.36-1.49,1.69-.29,3.52-.52,5.23-.68,4.05-.38,8.15-.86,12.2-1.18,9.55-.79,19.19-.91,28.76-.21,7.29.47,14.53,1.69,21.79,2.45"/><path class="c" d="M8.42,83.12c6.33-.86,12.8-.85,19.17-1.09,3.17-.06,6.42-.04,9.59.11,2.29.18,4.8.13,6.97.97,2.82-.7,5.8-1.01,8.71-.99,2.92-.05,5.93.13,8.71,1.02,2.69-1.43,14.74-1.64,17.43-.16,2.58-2.31,28.06-2.81,30.5-.28,3.15-1.75,6.96-1.81,10.46-2.24,4.05-.32,8.15-.72,12.2-1.02,9.85-.74,19.78-.86,29.63-.15,7.28.46,14.52,1.66,21.79,2.32"/><path class="c" d="M8.42,81.07c6.62-.86,13.37-1.02,20.04-1.21,2.88-.03,5.84,0,8.71.16,2,.17,4.21.16,6.1.93,3.39-.87,6.96-1.09,10.46-1.05,2.58.14,5.51-.09,7.84,1.17,3.6-1.26,7.57-1.15,11.33-1.01.78.05,1.85.17,2.61.33.43.21,1.27.36,1.74.29,4.43-2.26,27.07-2.83,31.37-.33,1.19-.97,2.9-1.18,4.36-1.46,1.69-.28,3.52-.49,5.23-.65,4.63-.36,9.31-.69,13.94-1.01,9.85-.64,19.78-.73,29.63-.02,7.28.45,14.52,1.65,21.79,2.23"/><path class="c" d="M8.42,79.07c6.91-.91,13.94-1.25,20.92-1.35,2.59,0,5.26.04,7.84.22,1.71.22,3.81.05,5.23,1.18,1.17-.98,2.92-.98,4.36-1.18,1.99-.19,4.1-.27,6.1-.27,2,0,4.12.08,6.1.33,1.24.16,2.76.34,3.49,1.49l.87-.87c2.8-.75,5.84-.69,8.71-.52,1.13.01,2.37.55,3.49.61,2.63-1.37,5.82-1.41,8.71-1.78,4.62-.4,9.31-.52,13.94-.37,2.3.1,4.71.23,6.97.67,1.35.29,2.15,1.13,3.49.17,4.21-1.26,8.72-1.42,13.07-1.72,4.63-.27,9.31-.6,13.94-.8,9.28-.41,18.62-.33,27.89.4,6.69.46,13.35,1.61,20.04,2.04"/><path class="c" d="M8.42,77.16c6.62-.98,13.35-1.46,20.04-1.54,3.17-.01,6.43.04,9.59.39,1.13.04,2.36.62,3.49.59,3.72-1.48,18.56-1.79,21.79.42,1.48-.99,3.51-.87,5.23-.96,1.72.07,3.8-.11,5.23,1.02,2.54-3.15,28.66-3.69,32.24-1.41,1.15-.07,2.33-.86,3.49-.99,2.85-.56,5.82-.83,8.71-1.04,5.21-.29,10.47-.56,15.69-.79,9.87-.4,19.78-.35,29.63.44,6.69.43,13.34,1.69,20.04,2.02"/><path class="c" d="M8.42,75.4c7.16-1.39,14.5-1.96,21.79-1.87,2,.03,4.11.11,6.1.31,1.18.14,2.66.2,3.49,1.17.82-1,2.29-1.1,3.49-1.27,1.99-.25,4.1-.38,6.1-.44,4.93,0,10.18-.34,14.81,1.6,1-.58,2.36-.67,3.49-.71,1.41-.01,3.06-.03,4.36.6.85-.11,1.8-.71,2.61-.91,2.53-.69,5.24-1.01,7.84-1.28,4.91-.46,9.89-.61,14.82-.41,2,.09,4.13.23,6.1.61.82.13,1.76.75,2.61.61.43-.24,1.27-.59,1.74-.7,5.99-1.33,12.2-1.32,18.3-1.62,8.12-.36,16.28-.6,24.4-.4,6.39.15,12.82.54,19.17,1.25,4.64.43,9.27,1.55,13.94,1.5"/><path class="c" d="M8.42,73.35c.78-.1,1.84-.03,2.61.13,4.25-2.22,22.36-2.76,27.02-1.14,1.13.02,2.35-.62,3.49-.69,3.44-.47,6.99-.59,10.46-.58,4.39.06,8.95.16,13.07,1.8,1.02-.5,2.37-.54,3.49-.5.86.01,1.95.25,2.61.83,2.58-3.51,30.36-4.4,33.99-1.69,1.17-.99,2.9-1.15,4.36-1.41,2.28-.34,4.67-.55,6.97-.71,6.08-.33,12.21-.46,18.3-.62,10.46-.22,20.96-.06,31.37.97,3.48.43,7.12.63,10.46,1.76.79.16,1.83-.19,2.61-.2,1.4-.04,2.99.03,4.36.35"/><path class="c" d="M8.42,70.79c1.41-.14,3.03-.15,4.36.4,2.39-1.98,22.19-2.74,24.4-.63.94-.76,2.33-.94,3.49-1.11,1.69-.23,3.53-.37,5.23-.45,5.79-.19,11.76-.31,17.43,1.03.82.2,1.75.86,2.61.87.43-.16,1.29-.32,1.74-.3.45-.01,1.32.14,1.74.3.52.06,1.34-.26,1.74-.58.42-.18,1.3-.48,1.74-.6,6.81-1.68,13.93-1.95,20.92-1.94,3.42.19,7.27-.08,10.46,1.31,1.14-.06,2.34-.8,3.49-.91,3.72-.66,7.56-.88,11.33-1.04,5.8-.16,11.63-.3,17.43-.37,7.25-.07,14.55.04,21.79.51,2.88.19,5.85.43,8.71.8,1.72.27,3.65.41,5.23,1.19,3.69-.87,7.59-.73,11.33-.26"/><path class="c" d="M8.42,68.42c1.72-.2,3.55.04,5.23.43,3.59-1.92,18.82-2.23,22.66-.61,3.87-2.21,26.21-2.16,29.63.82.81,0,1.88-.21,2.61.25,4.47-3.19,16.12-3.49,21.79-3.7,2.88-.04,5.84,0,8.72.24,1.72.2,3.7.25,5.23,1.14,4.17-1.48,8.69-1.61,13.07-1.86,5.79-.2,11.63-.23,17.43-.28,6.67-.03,13.38.06,20.04.43,2.59.15,5.27.34,7.84.64,1.72.25,3.67.34,5.23,1.16,2.23-.68,4.65-.82,6.97-.86,2.88-.05,5.85.05,8.71.43"/><path class="c" d="M8.42,66.12c1.71.01,3.97-.37,5.23,1.04.78-1.07,2.27-1.25,3.49-1.45,1.69-.26,3.53-.42,5.23-.51,4.33-.09,8.9-.47,13.07.88,2.09-1.1,4.68-1.03,6.97-1.29,3.46-.23,6.99-.28,10.46-.16,2.89.11,5.86.32,8.71.83,1.9.41,4.32.71,5.23,2.67.53-.2,1.38-.92,1.74-1.35.73-.44,1.8-.86,2.61-1.1,3.95-1.13,8.12-1.58,12.2-1.91,5.49-.39,11.07-.49,16.56,0,1.1.11,2.41.28,3.49.57.4.22,1.29.44,1.74.43,3.23-1.41,7-1.27,10.46-1.58,5.5-.25,11.05-.19,16.56-.21,6.09.01,12.22.08,18.3.38,4.36.26,8.85.37,13.07,1.58,2.71-1.08,5.84-.87,8.71-1.04,3.76-.06,7.6.02,11.33.52"/><path class="c" d="M8.42,63.87c1.72-.03,3.7-.07,5.23.82,1.84-2,18.95-2.48,20.92-.6,1.74-1.16,4.09-1.1,6.1-1.36,2.87-.24,5.83-.32,8.71-.3,3.47.04,7.02.22,10.46.71,1.42.21,3,.51,4.36.98.84.27,1.81,1.02,2.61,1.37.82-.36,1.77-1.15,2.61-1.46,1.92-.75,4.07-1.18,6.1-1.53,4.02-.66,8.14-.99,12.2-1.14,3.46-.12,7-.11,10.46.1,2.3.24,4.89.17,6.97,1.28,3.06-1.08,6.37-1.3,9.59-1.47,4.63-.24,9.31-.16,13.94-.14,9,.17,18.08.01,27.02,1.23.45.07,1.33.33,1.74.52.45,0,1.33-.19,1.74-.37,1.67-.36,3.52-.51,5.23-.62,6.37-.34,12.84-.41,19.17.43"/><path class="c" d="M8.42,61.66c1.41,0,3.04.04,4.36.62.48,0,1.33-.24,1.74-.46,1.07-.31,2.38-.52,3.49-.65,5.48-.5,11.19-.85,16.56.52,4.57-2.12,26.57-1.97,30.5,1.15.78,0,1.84-.04,2.61-.09,5.1-3.49,21.36-3.74,27.89-3.59,2.59.08,5.28.23,7.84.62,1.15.07,2.34.8,3.49.75,1.87-.83,4.09-.88,6.1-1.07,6.95-.46,13.96-.15,20.92-.01,3.46.1,7,.22,10.46.45,2.3.21,4.77.23,6.97.98,1.13.16,2.35-.57,3.49-.62,3.44-.47,6.99-.63,10.46-.74,6.09-.12,12.26-.16,18.3.73"/><path class="c" d="M8.42,59.49c1.44-.05,2.96.4,4.36.67,1.27-.76,2.92-.95,4.36-1.16,1.99-.25,4.1-.38,6.1-.44,3.77-.04,7.69-.14,11.33.96,4.15-2.09,26.22-1.9,29.63,1.22.44-.17,1.28-.36,1.74-.37.46.13,1.29.12,1.74-.02.99-.67,2.34-1.09,3.49-1.38,4.55-1.11,9.28-1.55,13.94-1.84,4.63-.25,9.32-.27,13.94-.01,2.88.28,6.05.2,8.71,1.44,6.22-1.64,12.8-1.11,19.17-1.01,3.46.11,7,.25,10.46.46,2.59.23,5.36.21,7.84,1.03.48.09,1.32-.07,1.74-.3.77-.19,1.83-.37,2.61-.47,4.32-.53,8.73-.73,13.07-.87,6.96-.12,14.03-.25,20.92.9"/><path class="c" d="M8.42,57.38c1.14-.03,2.36.57,3.49.54,1.56-.84,3.5-1.01,5.23-1.24,3.45-.37,6.99-.47,10.46-.36,2.29.17,4.85.03,6.97,1.03,4.66-1.91,25-1.9,28.76,1.23,1.09-.42,2.56-.69,3.49.21,3.68-4.76,38.08-5.13,43.57-2.04,1.52-.92,3.52-.83,5.23-.99,2.88-.14,5.84-.07,8.71.04,5.22.34,10.61.22,15.69,1.6,2.41-1.07,5.26-1.01,7.84-1.33,4.04-.34,8.15-.56,12.2-.68,7.82-.11,15.83-.45,23.53,1.12"/><path class="c" d="M8.42,55.39c.51.02,1.35.41,1.74.73,2.87-2.58,21.71-2.75,25.27-1,3.09-.91,6.38-1.06,9.59-1.12,4.06-.05,8.18.11,12.2.7,1.74.3,3.7.59,5.23,1.52.44.12,1.31.09,1.74-.06.52-.1,1.34.21,1.74.55,1.86-2.49,10.7-3.14,13.94-3.56,6.65-.62,13.38-.72,20.04-.38,2.59.14,5.27.36,7.84.7,1.72.29,3.72.4,5.23,1.36,3.89-1.27,8.18-.65,12.2-.51,1.7.12,3.54.28,5.23.5,1.13.17,2.53.3,3.49.98,1.27-.73,2.93-.83,4.36-1.02,1.69-.19,3.53-.35,5.23-.48,5.21-.41,10.47-.72,15.69-.88,4.92-.14,9.9-.17,14.82.1,2,.11,4.12.28,6.1.57,1.13.18,2.52.39,3.49,1.06"/><path class="c" d="M8.42,53.9c4.16-2.33,13.38-2.18,18.3-2.21,2,.04,4.11.14,6.1.33,1.44.2,3.2.2,4.36,1.19.93-.77,2.34-.88,3.49-1.02,1.99-.2,4.1-.26,6.1-.25,4.27.13,12.2.13,15.69,2.5.45-.02,1.3,0,1.74.04.86-.18,1.79-.89,2.61-1.16,1.36-.49,2.94-.87,4.36-1.16,6.3-1.22,12.77-1.64,19.17-1.75,5.51-.07,11.07.15,16.56.71,2,.21,4.12.48,6.1.83,1.43.29,3.13.47,4.36,1.32,1.32-.59,2.95-.48,4.36-.43,2.04.06,4.13.47,6.1.93,2.22-.67,4.68-.59,6.97-.79,3.17-.18,6.42-.38,9.59-.6,7.82-.56,15.69-1.04,23.53-.92,2.88.05,5.85.17,8.71.48,1.72.24,3.69.33,5.23,1.22.45-.09,1.32-.35,1.74-.51"/><path class="c" d="M8.42,50.86c5.39-1.32,11.03-1.47,16.56-1.53,4.94.09,10.04.04,14.82,1.46,3.59-1.56,19.98-.98,22.66,1.97l.87.04c3.68-3.54,18.13-4.2,23.53-4.47,11.39-.5,22.76.7,33.99,2.48,4.61.58,9.4.14,13.94,1.24,1.3-.62,2.94-.67,4.36-.77,1.7-.06,3.58-.11,5.23.4,1.86-.88,4.1-.93,6.1-1.22,3.16-.34,6.41-.56,9.59-.68,3.75-.14,7.58-.15,11.33.06,2.93.14,5.93.49,8.71,1.43,1.01-.55,2.37-.73,3.49-.89"/><path class="c" d="M8.42,48.18c8.04-1.34,16.28-1.41,24.4-1,2,.12,4.11.29,6.1.55,1.46.27,3.34.22,4.36,1.46.64-.74,1.69-.92,2.61-.95,1.09-.08,2.39-.09,3.49-.07,2,.04,4.12.2,6.1.49,1.45.24,3.14.51,4.36,1.41,1.29-.72,2.99-.46,4.36-.12,3.61-2.65,14.44-3.27,19.17-3.64,10.17-.57,20.42-.1,30.5,1.34,2.29.32,4.68.71,6.97,1.04,1.71.3,3.67.36,5.23,1.18,4.72-1.65,9.87-1.66,14.82-1.87,4.93,0,10.06-.23,14.82,1.22,1.57-.78,3.52-.8,5.23-.96,2.29-.15,4.68-.19,6.97-.13,1.7.05,3.54.16,5.23.37,1.2.17,2.7.32,3.49,1.37.6-.75,1.7-1.04,2.61-1.1,1.39-.17,2.96-.31,4.36-.43"/><path class="c" d="M8.42,45.59c14.18-1.87,28.58-1,42.7.93,2.87.25,5.84.07,8.71.12,1.7.09,3.62-.09,5.23.56,5.25-1.99,10.97-2.56,16.56-2.95,8.12-.53,16.31-.39,24.4.39,3.18.31,6.43.73,9.59,1.26,2.31.47,4.91.63,6.97,1.87,3.71-2.97,36.19-3.15,40.09-.18,1.56-.8,3.52-.69,5.23-.69,1.1.03,2.41.14,3.49.37.42.18,1.29.38,1.74.39,3.26-1.41,7.01-.72,10.46-.88"/><path class="c" d="M8.42,43.07c13.61-1.54,27.35-.8,40.96.33,3.46.25,6.99.38,10.46.49,2.28.18,4.84-.18,6.97.82,6.07-2.29,12.74-2.49,19.17-2.81,8.72-.27,17.51.16,26.14,1.49,2.31.44,4.86.67,6.97,1.77.85.16,1.8-.45,2.61-.59,1.97-.4,4.1-.61,6.1-.8,9.55-.84,19.21-.92,28.76-.07,2.3.21,4.7.5,6.97.92,1.75.36,3.77.66,5.23,1.78,1.52-.95,3.54-.43,5.23-.76,3.14-.74,6.35-1.61,9.59-1.81"/><path class="c" d="M8.42,40.6c13.33-1.31,26.75-.73,40.09.15,4.04.24,8.15.41,12.2.54,2.58.17,5.46-.18,7.84.97,4.15-1.55,8.66-1.98,13.07-2.27,6.08-.39,12.22-.35,18.3.04,3.18.21,6.43.54,9.59,1.01,2.31.45,4.96.59,6.97,1.93,7.96-2.82,41.25-3.17,48.8.31,2.39-1.12,5.27-.84,7.84-1.17,3.47-.26,6.98-.84,10.46-1.05"/><path class="c" d="M8.42,38.18c13.33-1.16,26.75-.63,40.09.08,4.05.2,8.15.36,12.2.48,3.16.2,6.65-.23,9.59,1.14,3.64-1.3,7.47-1.75,11.33-1.98,5.5-.36,11.06-.34,16.56-.01,3.18.2,6.43.5,9.59.99,2.03.41,4.42.54,6.1,1.85,2.68-1.27,5.82-1.22,8.71-1.55,4.62-.38,9.31-.62,13.94-.7,5.22-.09,10.48.02,15.69.42,3.52.26,7.11.66,10.46,1.78,2.99-1.17,6.43-.89,9.59-1.24,3.76-.22,7.57-.71,11.33-.92"/><path class="c" d="M8.42,35.8c13.34-1.04,26.74-.56,40.09.04,4.34.17,8.73.34,13.07.44,2,.03,4.11.06,6.1.26,1.43.17,3.1.29,4.36,1.06,3.32-1.25,6.93-1.61,10.46-1.81,4.63-.27,9.32-.26,13.94,0,2.89.16,5.85.42,8.71.83,2.03.38,4.39.51,6.1,1.78,2.73-1.16,5.81-1.2,8.71-1.47,4.04-.33,8.15-.57,12.2-.7,5.21-.16,10.48-.13,15.69.16,3.77.26,7.66.44,11.33,1.42.4.23,1.28.48,1.74.47.41-.2,1.29-.47,1.74-.54,1.08-.19,2.39-.32,3.49-.41,5.8-.35,11.63-.84,17.43-1.24"/><path class="c" d="M8.42,33.47c13.63-.97,27.32-.46,40.96.03,4.63.15,9.31.32,13.94.38,2,.03,4.11.13,6.1.35,1.44.2,3.15.32,4.36,1.2,4.94-2.85,29.93-2.36,34.86.51.84.05,1.8-.5,2.61-.62,2.56-.46,5.25-.58,7.84-.77,5.5-.41,11.05-.7,16.56-.74,4.63-.03,9.32.08,13.94.44,3.18.38,6.67.33,9.59,1.76,3.67-.95,7.54-1.17,11.33-1.36,4.35-.22,8.73-.68,13.07-.91"/><path class="c" d="M8.42,31.18c13.92-.9,27.9-.37,41.83.02,4.05.11,8.15.23,12.2.29,2.88.02,5.85.14,8.71.5,1.48.25,3.36.3,4.36,1.58.99-1.31,2.87-1.35,4.36-1.6,2.28-.28,4.68-.4,6.97-.44,3.76-.07,7.59.06,11.33.41,2.93.33,6.07.53,8.71,1.94,1.22-.87,2.92-.95,4.36-1.14,1.99-.21,4.1-.34,6.1-.46,4.92-.32,9.89-.66,14.82-.75,5.51-.11,11.06-.02,16.56.4,2,.16,4.12.37,6.1.69,1.46.25,3.14.53,4.36,1.42,1.18-.95,2.92-.99,4.36-1.19,1.99-.21,4.1-.34,6.1-.46,4.64-.23,9.31-.72,13.94-.97"/><path class="c" d="M8.42,28.93c13.35-.79,26.73-.34,40.09-.05,4.34.09,8.73.2,13.07.27,4.64.09,9.42.08,13.94,1.22.39.24,1.28.48,1.74.45.39-.23,1.29-.55,1.74-.63,1.68-.34,3.52-.49,5.23-.59,4.05-.2,8.16-.12,12.2.23,2.6.32,5.49.37,7.84,1.63,1.13-.02,2.34-.69,3.49-.76,3.15-.44,6.41-.56,9.59-.75,5.5-.35,11.04-.72,16.56-.75,5.22-.05,10.49.1,15.69.57,1.7.16,3.54.37,5.23.65,1.46.26,3.16.55,4.36,1.5,1.16-.99,2.91-1.03,4.36-1.24,1.99-.21,4.1-.35,6.1-.47,4.64-.24,9.31-.75,13.94-1"/><path class="c" d="M8.42,26.72c13.64-.73,27.31-.23,40.96-.06,5.5.11,11.05.17,16.56.29,2.29.09,4.69.25,6.97.54,1.74.26,3.74.43,5.23,1.46,2.49-2.38,21.43-1.67,24.4.33,4.23-1.12,8.7-1.29,13.07-1.5,5.5-.3,11.04-.76,16.56-.82,5.51-.09,11.07.04,16.56.51,2,.17,4.12.41,6.1.74,1.44.28,3.14.51,4.36,1.4,3.61-1.29,7.55-1.27,11.33-1.58,4.35-.25,8.73-.76,13.07-1"/><path class="c" d="M8.42,24.55c13.64-.66,27.31-.13,40.96-.08,5.8.08,11.64.1,17.43.28,2.3.11,4.69.29,6.97.59,1.74.25,3.68.5,5.23,1.41,2.59-2.15,19.84-1.51,22.66.59,2.01-1.27,4.68-1.08,6.97-1.37,3.17-.23,6.42-.36,9.59-.55,9.85-.74,19.78-1.04,29.63-.23,2.59.22,5.28.5,7.84.97,1.51.33,3.4.52,4.36,1.88.78-1.08,2.26-1.26,3.49-1.43,1.99-.26,4.1-.41,6.1-.56,4.64-.29,9.3-.88,13.94-1.15"/><path class="c" d="M8.42,22.43c13.06-.59,26.15,0,39.22-.1,6.09.02,12.22.05,18.3.2,2.59.1,5.27.29,7.84.61,1.72.27,3.69.41,5.23,1.31,3.64-1.14,7.55-1.13,11.33-1.03,2,.07,4.12.22,6.1.49,1.45.21,3.12.48,4.36,1.32,1.99-1.31,4.68-1.09,6.97-1.39,3.46-.25,7-.38,10.46-.61,9.85-.79,19.78-1.07,29.63-.24,2.59.22,5.28.51,7.84.96,1.77.37,3.86.61,5.23,1.9,1.11-1.1,2.9-1.13,4.36-1.35,1.69-.19,3.53-.32,5.23-.46,4.35-.31,8.72-.95,13.07-1.21"/><path class="c" d="M8.42,20.34c12.77-.53,25.57.2,38.34-.08,6.38-.06,12.8-.04,19.17.12,2.59.1,5.27.3,7.84.63,1.73.28,3.72.4,5.23,1.37,3.31-1.22,6.98-1.11,10.46-1.08,2.89.09,5.88.27,8.71.87.8.15,1.78.72,2.61.72,2.42-1.04,5.26-.96,7.84-1.22,3.76-.24,7.58-.4,11.33-.69,9.84-.83,19.79-.93,29.63.03,2.6.26,5.28.6,7.84,1.13,1.52.36,3.43.61,4.36,2.02.79-1.06,2.27-1.25,3.49-1.41,1.69-.22,3.53-.36,5.23-.51,4.35-.36,8.71-1.15,13.07-1.42"/><path class="c" d="M8.42,18.29c11.32-.51,22.66.46,33.99.06,6.67-.2,13.37-.28,20.04-.17,5.55.1,11.25.27,16.56,1.98,1.56-.83,3.51-.84,5.23-.98,2.58-.13,5.26-.09,7.84.07,1.7.11,3.54.29,5.23.57,1.2.21,2.67.46,3.49,1.47.63-.72,1.69-1.05,2.61-1.15,1.39-.22,2.95-.36,4.36-.47,3.17-.23,6.42-.38,9.59-.61,10.13-.93,20.36-1.28,30.5-.36,2.89.26,5.86.61,8.71,1.13,2.05.45,4.41.73,6.1,2.06,3.07-1.04,6.4-.95,9.59-1.43,3.75-.59,7.53-1.4,11.33-1.64"/><path class="c" d="M8.42,16.29c5.21-.17,10.48-.12,15.69.15,4.63.23,9.31.72,13.94.39,7.53-.52,15.11-.86,22.66-.73,3.47.01,7.01.11,10.46.49,2.02.27,4.24.42,6.1,1.32.47.14,1.33-.03,1.74-.31.42-.12,1.31-.29,1.74-.35,3.44-.43,7-.4,10.46-.24,2.3.13,4.7.33,6.97.74,1.24.22,2.76.49,3.49,1.64.65-.88,1.58-1.16,2.61-1.29,1.39-.22,2.95-.36,4.36-.47,3.46-.25,7-.45,10.46-.76,10.12-1.01,20.38-1.15,30.5-.08,4.1.5,8.34.98,12.2,2.51.85.33,1.72,1.25,2.61,1.49,1.25-1.49,3.41-1.85,5.23-2.17,1.99-.32,4.12-.35,6.1.06,2.35-1.29,5.22-1.47,7.84-1.77"/><path class="c" d="M8.42,14.34c3.46-.09,7-.08,10.46.12,2.31.18,4.8.23,6.97,1.13,2.44-1.5,13.1-1.44,15.69-.12,5.65-1.47,11.62-1.33,17.43-1.41,3.86.1,14.72-.18,17.43,2.12,3.63-2.56,18.85-1.35,23.53-.39,1.16.12,2.32.96,3.49.95.73-.37,1.81-.61,2.61-.72,3.16-.43,6.42-.57,9.59-.86,9.25-.97,18.59-1.6,27.89-.94,2.89.18,5.85.47,8.71.91,2.35.39,4.87.78,6.97,1.97,1.02-.53,2.38-.45,3.49-.35.85.07,1.94.37,2.61.91,2.1-1.2,4.59-1.63,6.97-1.81,1.98-.02,4.42-.51,6.1.76,1.38-1.23,3.49-1.27,5.23-1.55"/><path class="c" d="M8.42,12.45c2.29-.04,4.68-.03,6.97.11,1.72.18,3.79.08,5.23,1.18,2.11-2.5,22.91-2.56,25.27-.18,1.54-.89,3.5-1.01,5.23-1.18,2.58-.21,5.26-.28,7.84-.29,3.17,0,6.43.01,9.59.32,2.02.25,4.28.36,6.1,1.35,1.14,0,2.33-.75,3.49-.82,2.57-.38,5.25-.47,7.84-.48,5.23.04,10.55.32,15.69,1.37.82.17,1.9.51,2.61.96,1.14.07,2.34-.66,3.49-.72,2.57-.36,5.26-.54,7.84-.8,8.95-1.06,18-1.71,27.02-1.08,2.59.17,5.28.42,7.84.85,1.46.3,3.27.45,4.36,1.59,1.43-1.12,3.52-.87,5.23-.92,2.33.14,5.03.12,6.97,1.59,1.56-1.52,4.06-1.5,6.1-1.77,2.62-.26,5.32-.05,7.84.68.71-.43,1.8-.7,2.61-.82"/></svg>