<?xml version="1.0" encoding="UTF-8"?><svg id="a" xmlns="http://www.w3.org/2000/svg" width="1920" height="2400" viewBox="0 0 192 240"><defs><style>.b,.c{stroke-width:0px;}.c{fill:#f63;}</style></defs><rect class="b" width="192" height="240"/><path class="c" d="M8.62,224.22c6.95-.06,13.93.3,20.87.7,5.21.46,10.65.36,15.65,2.04,2.66-1.2,5.84-.91,8.69-.98,1.7.04,3.54.17,5.22.47,1.24.21,2.71.64,3.48,1.72.85-.34,1.74-1.23,2.61-1.55,2.75-1.05,5.78-1.45,8.69-1.75,2.28-.21,4.67-.31,6.96-.25,1.42.07,3.08.08,4.35.81,3.23-2.88,36.26-3.54,38.26.48.61-.81,1.65-1.13,2.61-1.23,1.39-.2,2.95-.31,4.35-.38,3.74-.17,7.56-.18,11.3-.14,5.21.07,10.46.24,15.65.63,3.78.38,7.76.48,11.3,1.97,2.12-1,4.68-.79,6.96-1.08,2.58-.23,5.23-.63,7.83-.62"/><path class="c" d="M8.62,222.02c6.95-.12,13.93.2,20.87.6,5.52.41,11.18.52,16.52,2.05,2.77-1.31,14.13-1.38,16.52.56.77-.26,1.82-.49,2.61-.23.85-.09,1.8-.75,2.61-.98,1.07-.33,2.37-.61,3.48-.8,3.56-.52,11.67-1.46,14.78.03,1.86-.94,4.05-1.2,6.09-1.48,2.86-.36,5.82-.56,8.69-.68,6.37-.2,12.83-.17,19.13.88.79.15,1.85.41,2.61.67.41.27,1.24.54,1.74.5,2.98-1.18,6.41-.92,9.56-1.13,8.11-.17,16.26,0,24.35.64,2.29.2,4.69.45,6.96.86,1.25.23,2.77.47,3.48,1.65l.87-.86c2.24-.54,4.67-.51,6.96-.69,2.28-.18,4.66-.45,6.96-.38"/><path class="c" d="M8.62,219.85c7.24-.18,14.51.14,21.74.56,5.51.43,11.18.53,16.52,2.07,2.14-.92,4.67-.79,6.96-.9,1.99,0,4.12.06,6.09.38.8.12,1.8.59,2.61.66,1.55-.78,3.63-.83,5.22-.13.83-.12,1.8-.7,2.61-.9,2.24-.59,4.65-.86,6.96-1.04,3.46-.25,7.04-.32,10.43.46,4.49-2.5,33.21-3.31,36.52.45,1.56-1.47,4.09-1.16,6.09-1.43,3.45-.21,6.98-.25,10.43-.24,5.5.03,11.04.18,16.52.6,2.29.18,4.69.42,6.96.78,1.43.25,3.08.49,4.35,1.24.8,0,1.82-.38,2.61-.45,1.69-.18,3.52-.2,5.22-.23,1.39,0,2.95-.14,4.35-.09.79.01,1.82.33,2.61.2"/><path class="c" d="M8.62,217.71c7.53-.25,15.09.08,22.61.52,3.17.2,6.41.44,9.56.78,2.32.26,4.77.51,6.96,1.36,2.11-1.01,4.67-.82,6.96-.93,2.28.11,4.94-.16,6.96,1.1,1.16-.98,2.9-1.08,4.35-1.12,1.44.04,3.23-.01,4.35,1.05,2.11-2.25,15.42-2.81,18.26-1.52,2.51-.84,5.19-1.33,7.83-1.55,4.02-.4,8.13-.57,12.17-.55,4.19.15,12.19.04,15.65,2.17,2.75-1.04,5.79-1.09,8.69-1.23,4.04-.16,8.13-.16,12.17-.1,4.92.09,9.88.28,14.78.76,3.18.44,6.73.46,9.56,2.14.97-.64,2.35-.66,3.48-.7,1.41-.06,2.97.14,4.35.4,1.84-.92,4.08-1.05,6.09-1.38"/><path class="c" d="M8.62,215.59c8.11-.33,16.25.04,24.35.54,3.17.21,6.41.46,9.56.81,2,.32,4.32.3,6.09,1.4,1.74-1.13,4.1-.88,6.09-1.02,1.99.08,4.34-.21,6.09.9,2.04-1.24,4.63-1.32,6.96-1.28,1.1.04,2.41.17,3.48.44.41.2,1.28.46,1.74.51,2.26-1.71,15.07-2.46,17.39-.88,4.68-2.76,29.23-3.09,33.91-.21,5.07-1.3,10.43-1.2,15.65-1.28,6.95-.02,13.95.13,20.87.83,2.3.25,4.72.55,6.96,1.16.46.11,1.33.48,1.74.72.45.11,1.31.03,1.74-.15.77-.1,1.84-.11,2.61-.01.43.2,1.3.24,1.74.05,2.4-1.15,5.22-1.32,7.83-1.68"/><path class="c" d="M8.62,213.5c8.39-.41,16.83-.02,25.22.51,3.17.21,6.41.47,9.56.81,1.99.34,4.36.22,6.09,1.39,1.49-.97,3.51-.84,5.22-.96,1.7.01,3.63-.11,5.22.6,2.76-1.01,5.75-1.47,8.69-1.32,2.01.18,4.52,0,6.09,1.48,1.14-1.04,2.88-1.26,4.35-1.49,1.68-.23,3.52-.36,5.22-.42,1.39-.04,2.96-.04,4.35.04,1.14.09,2.56.12,3.48.89,3.31-2.85,28.52-3.04,32.17-.27,2.79-.86,5.78-1.07,8.69-1.18,3.74-.16,7.56-.19,11.3-.17,5.7.16,21.94.1,26.08,3.04,1.1-.26,2.48-.52,3.48.16,2.69-1.98,6.37-2.04,9.56-2.52"/><path class="c" d="M8.62,211.43c8.39-.48,16.83-.09,25.22.43,3.46.23,6.99.5,10.43.86,1.99.33,4.34.22,6.09,1.33,1.78-1.04,4.1-.82,6.09-.87,1.12-.06,2.37.47,3.48.34,3.85-1.66,12.81-2.02,16.52-.06.84-.01,1.8-.6,2.61-.75,2.25-.48,4.66-.65,6.96-.72,1.39-.04,2.96-.03,4.35.05,1.13.09,2.52.14,3.48.81,3.08-2.41,28.48-3.17,30.43.34.62-.79,1.66-1.09,2.61-1.19,1.39-.2,2.95-.32,4.35-.41,3.74-.21,7.56-.27,11.3-.28,5.39.1,25.68-.16,28.69,3.47l.87-.37.87.2c3.08-1.97,6.88-2.37,10.43-2.8"/><path class="c" d="M8.62,209.38c8.1-.54,16.25-.18,24.35.3,6.08.51,12.32.56,18.26,2.05,1.31-.57,2.94-.59,4.35-.63,1.13.02,2.55-.04,3.48.71.89-.85,2.33-1.06,3.48-1.33,1.96-.45,4.08-.6,6.09-.62,2.59,0,5.29.13,7.83.68.81.16,1.76.77,2.61.76,2.65-1.62,13.63-1.95,16.52-.72,3.9-1.28,8.09-1.49,12.17-1.65,4.91-.06,10.02-.19,14.78,1.18.74.54,1.82.52,2.61.09,1.07-.25,2.38-.4,3.48-.5,3.74-.3,7.55-.38,11.3-.44,5.6.05,29.88-.64,32.17,3.91.85-.39,1.72-1.35,2.61-1.68,2.74-1.11,5.77-1.58,8.69-1.89"/><path class="c" d="M8.62,207.35c8.38-.63,16.84-.22,25.22.29,3.46.23,6.98.49,10.43.83,2.3.28,4.78.38,6.96,1.22,1.28-.67,2.94-.65,4.35-.71,1.12,0,2.5-.03,3.48.61.93-.77,2.34-1,3.48-1.27,2.53-.59,5.23-.7,7.83-.69,2.59.05,5.29.21,7.83.77.81.16,1.77.77,2.61.78,2.35-1.24,5.24-1.15,7.83-1.36,3.17-.09,6.49-.18,9.56.71,1.27-.73,2.92-.87,4.35-1.07,2.27-.27,4.67-.4,6.96-.45,3.46-.05,7.02.02,10.43.61,1.15.12,2.34.83,3.48.94,3-1.13,6.41-.9,9.56-1.15,4.33-.16,8.71-.22,13.04-.23,5.5,0,11.05.09,16.52.65,3.61.43,7.55.76,10.43,3.2,1.71-2.67,7.45-3.16,10.43-3.59"/><path class="c" d="M8.62,205.34c8.38-.71,16.84-.28,25.22.25,3.17.21,6.41.47,9.56.77,2.29.31,4.81.28,6.96,1.2,3.07-1.05,6.42-.79,9.56-.48,4.35-1.82,9.28-1.73,13.91-1.55,2.59.25,5.49.23,7.83,1.52.84.03,1.8-.55,2.61-.7,2.25-.45,4.66-.59,6.96-.66,2.29-.05,4.68-.03,6.96.25.8.08,1.8.52,2.61.39,3.8-1.48,17.43-1.8,20.87.25,3.66-1.01,7.54-1.02,11.3-1.17,4.91-.15,9.87-.25,14.78-.28,6.95.03,14.04-.02,20.87,1.45.8.19,1.87.53,2.61.88.63.61,1.78.81,2.61.99,1.99-2.32,6.65-2.71,9.56-3.15"/><path class="c" d="M8.62,203.33c8.08-.77,16.26-.35,24.35.17,3.46.24,6.98.53,10.43.89,1.99.32,4.33.2,6.09,1.32,1.19-.92,2.92-.89,4.35-1.05,2.3-.21,4.7-.14,6.96.32,4.36-2.1,10.03-1.7,14.78-1.54,1.7.12,3.54.31,5.22.66.44.09,1.32.36,1.74.53,0,0,.87,1.03.87,1.03l.87-1c3.43-1.28,15.92-1.69,19.13-.11,2.42-1.59,13.95-1.5,16.52-.04,3.97-.9,8.12-.93,12.17-1.06,5.2-.12,10.45-.27,15.65-.38,4.91-.08,9.88-.06,14.78.35,3.55.36,7.33.66,10.43,2.59.46-.22,1.28-.23,1.74-.03,2.27-2.11,5.76-2.34,8.69-2.8"/><path class="c" d="M8.62,201.33c7.79-.82,15.68-.41,23.48.12,3.17.24,6.41.53,9.56.87,2,.3,4.24.3,6.09,1.2,2.48-.89,5.22-1.04,7.83-1.19,1.98.02,4.29-.36,6.09.62,1.78-1.12,4.03-1.38,6.09-1.57,2.28-.19,4.67-.21,6.96-.13,1.7.06,3.53.19,5.22.42,1.44.22,3.13.4,4.35,1.27,4.39-1.68,9.28-1.46,13.91-1.51,1.99.03,4.1.13,6.09.32,1.14.14,2.58.17,3.48.99,1.16-.98,2.92-.77,4.35-.85,1.1,0,2.4.07,3.48.26.44.16,1.27.31,1.74.28,3.07-.83,6.4-.66,9.56-.83,4.91-.1,9.87-.09,14.78-.31,6.87-.21,26.26-1.49,31.3,2.42.77-.14,1.83-.2,2.61-.15,2.16-1.73,5.17-2.07,7.83-2.46"/><path class="c" d="M8.62,199.32c7.5-.85,15.1-.45,22.61.12,2.88.24,5.83.54,8.69.9,2,.34,4.27.35,6.09,1.33,2.73-1.09,5.8-1.18,8.69-1.44,2.86-.12,5.95-.52,8.69.5,2.27-2.16,19.73-2.05,21.74.35,1.18-.97,2.89-1.14,4.35-1.34,2.28-.27,4.67-.39,6.96-.44,7.53-.19,15.08.71,22.61.34,7.53-.23,15.1.56,22.61-.09,6.34-.61,27.97-2.06,32.17,2.21.43-.23,1.26-.37,1.74-.26.49-.11,1.34-.55,1.74-.85,1.87-.91,4.04-1.3,6.09-1.57"/><path class="c" d="M8.62,197.29c7.2-.86,14.53-.48,21.74.16,2.88.28,5.84.65,8.69,1.14,1.72.39,3.84.44,5.22,1.67.88-.87,2.32-.99,3.48-1.19,1.69-.27,3.52-.51,5.22-.7,2.28-.25,4.66-.45,6.96-.49,1.72,0,3.69-.04,5.22.87,2.21-2.14,17.53-1.84,20,.04,2.17-.93,4.62-1.21,6.96-1.39,3.16-.24,6.4-.31,9.56-.3,6.94.13,13.93.16,20.87.42,2.58.19,5.34.08,7.83.88.8-.05,1.82-.48,2.61-.6,1.38-.23,2.95-.35,4.35-.4,2.29-.02,4.77-.16,6.96.62,1.83-.92,4.09-.89,6.09-1.13,3.16-.24,6.4-.32,9.56-.25,4.06.13,8.24.35,12.17,1.44.85.24,1.94.73,2.61,1.31.47,0,1.34.3,1.74.55,1.45-2.23,4.55-2.44,6.96-2.89"/><path class="c" d="M8.62,195.23c6.62-.82,13.38-.5,20,.16,3.18.49,6.73.54,9.56,2.18,1.37-.72,2.94.03,4.35.06,2.68-1.34,8.41-1.59,11.3-.8,1.13.03,2.35-.6,3.48-.68,3.43-.42,7.16-.81,10.43.52,2.45-1.68,13.9-1.48,16.52,0,2.79-.88,5.76-1.32,8.69-1.46,4.61-.31,9.29-.33,13.91-.28,4.04.06,8.14.09,12.17.27,2.55.28,5.48.1,7.83,1.23,2.95-1.38,6.37-1.41,9.56-1.61,2.87-.1,5.84-.09,8.69.27.79.09,1.8.5,2.61.46,4.35-1.71,26.54-1.91,28.69,2.57,1.83-1.87,4.42-2.64,6.96-2.96"/><path class="c" d="M8.62,193.12c4.88-.63,9.88-.51,14.78-.16,3.5.33,7.16.59,10.43,1.97,1.03-.46,2.37-.43,3.48-.38.83.04,1.92.23,2.61.72,3.19-2.11,16.61-2.61,20-.81,3.68-.98,7.7-.95,11.3.36,2.26-1.18,9.07-1.12,11.3.16.93-.76,2.33-.98,3.48-1.19,1.98-.32,4.09-.52,6.09-.67,4.9-.35,9.87-.41,14.78-.39,3.46.02,6.98.06,10.43.22,2.6.2,5.45.21,7.83,1.38,2.91-2.41,19.7-2.47,23.48-1.09.48.13,1.31,0,1.74-.25.77-.18,1.83-.34,2.61-.42,3.15-.32,6.4-.36,9.56-.27,4.19.26,10.38.31,13.91,2.62,1.11.31,2.6.31,3.48-.54,1.03-.49,2.36-.81,3.48-1.01"/><path class="c" d="M8.62,190.98c5.23-.69,18.18-.71,22.61,1.83,1.26-.75,2.94-.61,4.35-.54.81.05,1.79.54,2.61.35,1.56-.85,3.49-1.09,5.22-1.36,2.56-.35,5.24-.54,7.83-.62,4.65,0,9.65-.25,13.91,1.89,1.3-.63,2.95-.47,4.35-.41,2.06.11,4.17.57,6.09,1.32,1.06-.49,2.37-.17,3.48-.15,1.55-.88,3.49-1.12,5.22-1.42,6.03-.88,12.17-1.1,18.26-1.2,3.75-.05,7.56-.03,11.3.08,3.2.12,6.55.14,9.56,1.34,1.48-1.04,3.49-1.17,5.22-1.45,2.27-.29,4.66-.46,6.96-.55,3.75-.12,7.58-.1,11.3.35,1.13.04,2.35.72,3.48.62,4.56-1.68,23.48-1.51,26.95,1.77,1.22-.86,3.14-.83,4.35.03.39-.33,1.24-.81,1.74-.93"/><path class="c" d="M8.62,188.83c4.64-.65,17.09-.68,20.87,1.8,1.94-.7,4.14-.63,6.09-.01,1.47-1.08,3.48-1.31,5.22-1.66,2.56-.42,5.24-.68,7.83-.84,4.03-.23,8.15-.26,12.17.15,2.89.32,5.81.98,8.69,1.37,2.56.39,5.24.54,7.83.76.79.07,1.86.21,2.61.48,1.13-.06,2.35-.7,3.48-.81,7.17-1.15,14.49-1.29,21.74-1.38,3.16-.01,6.4.01,9.56.16,2.33.06,4.74.36,6.96,1.1,3.86-2.52,23.33-2.84,27.82-1.09,1.13.14,2.34-.59,3.48-.63,3.72-.47,7.56-.51,11.3-.4,3.47.14,7.04.39,10.43,1.16,1.16.17,2.33,1,3.48,1.15,1.58-.72,3.52-.53,5.22-.5"/><path class="c" d="M8.62,186.71c4.66-.68,16.14-.66,20,1.87,1.08-.21,2.37-.51,3.48-.26l.87.86c.69-1.3,2.15-1.68,3.48-2,2.25-.55,4.65-.9,6.96-1.16,7.21-.77,14.55-.95,21.74.11,4.03.52,8.12.92,12.17,1.2,2.86.33,6,.11,8.69,1.23,1.79-1.03,4.09-.94,6.09-1.2,3.45-.28,6.98-.41,10.43-.47,3.16-.05,6.4-.05,9.56.05,2.29.15,4.8.04,6.96.93.5.07,1.33-.21,1.74-.5.42-.16,1.3-.41,1.74-.5,4.56-.92,9.27-1.18,13.91-1.28,2.58-.03,5.25.02,7.83.22,1.72.23,3.83.13,5.22,1.32,2.47-2.68,25.71-1.88,28.69.62.46.03,1.32-.15,1.74-.34,1.08-.21,2.38-.28,3.48-.32"/><path class="c" d="M8.62,184.63c5.24-.82,15.5-.65,20,2.2l.87-.28.87.2c2.06-1.34,4.57-1.94,6.96-2.38,2.56-.48,5.23-.81,7.83-1.04,4.9-.43,9.87-.59,14.78-.32,3.47.21,6.98.71,10.43,1.01,4.32.41,8.71.72,13.04,1.04,2.86.34,5.99.16,8.69,1.23,3.9-1.17,8.14-.93,12.17-1.11,4.35-.07,8.8-.08,13.04.84,2.64-1.36,5.79-1.59,8.69-1.99,4.31-.47,8.71-.66,13.04-.58,1.99.04,4.11.14,6.09.38,1.16.15,2.6.31,3.48,1.17,2.4-2.84,27.47-2.11,30.43.5.46,0,1.32-.18,1.74-.37.77-.16,1.83-.28,2.61-.33"/><path class="c" d="M8.62,182.67c4.12-1.01,16.17-.78,19.13,2.38l.87-.08c2.97-2.87,11.48-3.46,15.65-3.99,5.18-.48,10.45-.67,15.65-.43,7.24.53,14.49,1.38,21.74,1.87,6.08.52,12.27.68,18.26,1.89,1.64-.5,3.52-.49,5.22-.56,2.28-.03,4.7-.07,6.96.31,1.45.74,2.87-.51,4.35-.68,2.27-.5,4.66-.93,6.96-1.25,4.59-.6,9.28-.86,13.91-.82,3.49.03,7.08.19,10.43,1.2,1.82-.98,4.08-1.02,6.09-1.27,3.16-.27,6.4-.35,9.56-.32,4.64.09,9.36.3,13.91,1.24,1.16.16,2.32.99,3.48,1.1.73-.37,1.8-.58,2.61-.66"/><path class="c" d="M8.62,181.19c.91-.8,2.32-.91,3.48-1.01,1.39-.1,2.95-.09,4.35-.02,3.27.17,6.64.63,9.56,2.17.47-.17,1.3-.08,1.74.15,2.08-1.34,4.54-2.08,6.96-2.54,3.13-.64,6.38-1.06,9.56-1.36,5.19-.48,10.45-.67,15.65-.44,5.79.35,11.6,1.04,17.39,1.5,6.07.54,12.19,1.01,18.26,1.57,3.18.33,6.47.56,9.56,1.38.49.11,1.35.57,1.74.89,0,0,.87.06.87.06,1.15-1.05,2.89-1.35,4.35-1.7,1.98-.43,4.09-.78,6.09-1.11,6.3-1.1,12.73-1.64,19.13-1.5,1.7.04,3.53.13,5.22.32,1.13.14,2.52.3,3.48.99,4.08-2.68,32.59-2.72,35.65.93.38-.36,1.21-.84,1.74-.88"/><path class="c" d="M8.62,178.23c.43.16,1.31.48,1.74.64,1.82-.93,4.1-.68,6.09-.64,2.37.08,4.75.64,6.96,1.46,1.36-.44,3.15-.48,4.35.39,3.58-2.67,11.16-3.17,15.65-3.76,5.18-.5,10.44-.72,15.65-.55,4.63.18,9.29.74,13.91,1.13,5.2.49,10.45.99,15.65,1.53,3.76.46,7.68.63,11.3,1.82,1.88-.75,4.09-.62,6.09-.73,2.29-.03,4.72-.08,6.96.52,1.83-.98,4.08-1.12,6.09-1.52,3.14-.54,6.38-.95,9.56-1.15,5.51-.34,11.17-.41,16.52.88,5.67-2.78,33.01-2.52,38.26.9"/><path class="c" d="M8.62,175.69c1.44.16,2.92.87,4.35,1.03,2.23-.52,4.9-.4,6.96.67,1.28-.69,2.94-.58,4.35-.58,1.17.05,2.63.13,3.48,1.05,2.19-2.44,9.7-3.03,13.04-3.56,8.35-.97,16.84-1.21,25.22-.34,5.5.49,11.04,1.04,16.52,1.66,3.77.51,7.72.68,11.3,2.03,1.29-.67,2.93-.69,4.35-.82,1.99-.13,4.1-.2,6.09-.23,3.16-.03,6.41-.05,9.56.19,1.12,0,2.36.58,3.48.45,4.66-1.98,21.8-3.2,26.08-.77,2.41-1.95,10.57-2,13.91-2.24,8.72-.27,17.54.02,26.08,1.87"/><path class="c" d="M8.62,173.28c3.15.43,6.36,1.15,9.56,1.05,1.99-.03,4.1-.09,6.09.07,1.23.09,2.73.24,3.48,1.36,1.07-1.75,3.4-1.97,5.22-2.46,2.84-.62,5.81-1.03,8.69-1.35,5.76-.62,11.6-.88,17.39-.7,5.22.21,10.46.82,15.65,1.34,3.76.42,7.58.83,11.3,1.47,1.12.21,2.47.46,3.48,1.01,1.42-.12,2.86-.72,4.35-.75,5.19-.44,10.45-.44,15.65-.39,1.99.03,4.1.09,6.09.24,1.43.15,3.16.14,4.35,1.06,1.78-2.24,19.89-2.93,21.74-.68,2.64-2.15,11.16-2.23,14.78-2.5,9-.38,18.05.12,26.95,1.53"/><path class="c" d="M8.62,170.94c3.44.44,6.96.86,10.43.9,2.87.2,6.15-.23,8.69,1.33,1.08-1.19,2.86-1.54,4.35-1.93,1.97-.46,4.08-.81,6.09-1.09,8.05-1.06,16.24-1.46,24.35-.9,4.92.41,9.88.91,14.78,1.52,1.7.22,3.53.47,5.22.76,1.43.28,3.12.49,4.35,1.35,2.18-.87,4.63-1.05,6.96-1.2,2.87-.18,5.82-.25,8.69-.29,6.07.05,12.27-.22,18.26.84.76.47,1.86.37,2.61-.07,1.07-.31,2.38-.5,3.48-.62,2.57-.26,5.25-.33,7.83-.22,1.71.13,3.7.11,5.22,1.01,2.19-.93,4.59-1.48,6.96-1.73,3.44-.44,6.97-.66,10.43-.77,8.71-.32,17.44.28,26.08,1.36"/><path class="c" d="M8.62,168.66c3.16.35,6.39.69,9.56.81,3.2.13,6.53.14,9.56,1.27,3.21-2.5,13.89-3.17,18.26-3.58,8.11-.63,16.28-.27,24.35.72,4.96.58,10.05,1.02,14.78,2.65,2.37-1.17,5.24-1.04,7.83-1.3,3.74-.22,7.55-.29,11.3-.3,3.75,0,7.56.06,11.3.26,2.58.25,5.44.1,7.83,1.25.83.01,1.8-.5,2.61-.62,2.84-.47,5.83-.52,8.69-.32.79.06,1.84.21,2.61.4.44.26,1.24.43,1.74.31,2.08-1.17,4.64-1.36,6.96-1.72,3.15-.4,6.39-.62,9.56-.75,9.29-.43,18.59.2,27.82,1.15"/><path class="c" d="M8.62,166.43c3.45.36,6.97.67,10.43.83,2.58.24,5.45.03,7.83,1.2.54.05,1.33-.29,1.74-.61.44-.18,1.28-.49,1.74-.61,4.24-1.13,8.68-1.62,13.04-2.02,8.09-.71,16.28-.67,24.35.32,2.88.31,5.84.67,8.69,1.12,2.02.4,4.35.53,6.09,1.74,3.29-1.32,6.94-1.37,10.43-1.6,4.62-.24,9.29-.3,13.91-.25,3.75.05,7.56.17,11.3.46,1.4.11,2.97.27,4.35.53.92.13,2.04.56,2.61,1.33,1.26-1.4,3.49-1.18,5.22-1.34,2.33-.12,4.73.17,6.96.87,1.99-1.37,4.64-1.52,6.96-1.93,3.44-.47,6.97-.72,10.43-.87,9.57-.46,19.16.19,28.69,1.02"/><path class="c" d="M8.62,164.25c3.45.35,6.97.64,10.43.83,1.4.09,2.96.19,4.35.36,1.16.15,2.57.34,3.48,1.14,1.76-1.24,4.01-1.71,6.09-2.12,2.56-.49,5.23-.84,7.83-1.11,8.95-.91,18.03-.97,26.95.2,2.59.3,5.26.65,7.83,1.1,1.76.41,4,.47,5.22,1.97.62-.72,1.69-1.13,2.61-1.27,1.38-.27,2.95-.44,4.35-.57,3.45-.3,6.97-.45,10.43-.53,5.49-.13,11.03-.07,16.52.23,2.29.13,4.68.3,6.96.61,1.44.23,3.1.47,4.35,1.26,1.41-.17,2.89-.7,4.35-.63,1.73.02,3.76-.03,5.22,1.03,2.21-2.35,11.35-2.71,14.78-3.06,11.01-.79,22.06-.1,33.04.72"/><path class="c" d="M8.62,162.11c3.45.34,6.97.63,10.43.85,2.61.24,5.46.2,7.83,1.48,2.9-2.71,16.44-3.39,20.87-3.67,6.67-.32,13.39-.08,20,.84,2.29.3,4.69.63,6.96,1.09,1.47.3,3.16.67,4.35,1.65.88-.88,2.3-1.12,3.48-1.31,1.68-.27,3.52-.44,5.22-.58,4.9-.37,9.87-.54,14.78-.56,6.37,0,12.8.18,19.13.98,1.1.16,2.41.4,3.48.7.81.19,1.74.9,2.61.82,1.04-.42,2.38-.45,3.48-.39.87.03,1.97.28,2.61.92,2.7-2.57,11.77-2.92,15.65-3.31,11.3-.81,22.63-.09,33.91.63"/><path class="c" d="M8.62,160.02c3.45.33,6.98.64,10.43.89,2.29.29,4.95.12,6.96,1.39,2.42-1.25,5.15-1.84,7.83-2.24,3.43-.54,6.97-.89,10.43-1.12,7.23-.45,14.55-.43,21.74.58,3.81.54,7.77.96,11.3,2.57,1.74-1.18,4.07-1.2,6.09-1.5,2.86-.31,5.82-.51,8.69-.66,7.23-.36,14.51-.4,21.74.05,2.58.17,5.26.39,7.83.75,2.04.36,4.35.62,6.09,1.83,1.41-.12,3.05-.55,4.35.26,2.68-1.41,5.7-2.09,8.7-2.48,3.73-.53,7.55-.82,11.3-.98,10.44-.52,20.89.22,31.3.75"/><path class="c" d="M8.62,157.97c4.32.45,8.72.74,13.04,1.21.78.1,1.85.28,2.61.49.4.24,1.27.48,1.74.45,1.75-1.19,4.05-1.45,6.09-1.86,3.14-.54,6.39-.89,9.56-1.14,9.27-.71,18.68-.6,27.82,1.19,1.73.37,3.7.65,5.22,1.62.51.12,1.32-.11,1.74-.41.43-.14,1.3-.36,1.74-.44,2.27-.41,4.66-.64,6.96-.84,9.82-.82,19.73-1.08,29.56-.33,2.59.21,5.27.47,7.83.92,2.08.4,4.39.86,6.09,2.22l.87-.28c.43.14,1.29.19,1.74.1,3.6-2.59,11.99-2.92,16.52-3.35,11.88-.82,23.78,0,35.65.52"/><path class="c" d="M8.62,155.96c3.16.31,6.4.64,9.56.93,1.4.14,2.97.29,4.35.56.8.13,1.8.63,2.61.74,1.99-1.38,4.64-1.56,6.96-2.02,3.15-.49,6.39-.82,9.56-1.05,7.81-.5,15.74-.59,23.48.74,2.6.57,5.64.7,7.83,2.36,2.44-1.1,5.19-1.37,7.83-1.65,2.87-.3,5.82-.56,8.69-.77,8.67-.61,17.42-.73,26.08.09,3.72.51,10.53.73,13.04,3.64l.87-.06c2.39-3.05,11.77-3.47,15.65-3.88,12.74-.98,25.52-.06,38.26.4"/><path class="c" d="M8.62,154.02c2.87.29,5.82.62,8.69.93,2,.29,4.26.29,6.09,1.25,1.16-.11,2.32-.95,3.48-1.12,3.4-.81,6.96-1.23,10.43-1.57,6.63-.6,13.35-.8,20-.34,2.9.2,5.86.62,8.69,1.27,1.81.5,4.14.73,5.22,2.46.64-.91,1.55-1.25,2.61-1.38,1.09-.19,2.38-.34,3.48-.45,2.58-.27,5.25-.58,7.83-.85,9.8-1.06,19.74-1.4,29.56-.45,3.5.5,11.07.83,13.04,3.89,1.9-1.76,4.45-2.54,6.96-2.98,2.84-.55,5.81-.87,8.69-1.09,13.32-1.01,26.68.03,40,.38"/><path class="c" d="M8.62,152.14c2.58.28,5.25.61,7.83.94,2.04.23,4.17.58,6.09,1.33,2.25-1.5,5.23-1.59,7.83-2.1,3.73-.54,7.54-.88,11.3-1.08,5.2-.26,10.46-.28,15.65.19,4.2.36,8.49,1.16,12.17,3.27.74-.42,1.82-.53,2.61-.17,2.34-1.7,9.5-2.34,12.17-1.26,2.05-1.19,4.66-1.18,6.96-1.54,3.73-.39,7.55-.57,11.3-.59,4.92,0,9.91.24,14.78.95,2.32.36,4.77.77,6.96,1.66.87.34,1.8,1.22,2.61,1.68,5.77-6.93,46.12-3.34,56.52-3.46"/><path class="c" d="M8.62,150.34c2.29.27,4.68.61,6.96.99,1.42.26,3.06.45,4.35,1.15.85,0,1.8-.6,2.61-.79,1.08-.29,2.38-.55,3.48-.74,6.59-1.13,13.32-1.64,20-1.72,4.99.09,18.1-.21,20.87,4.22,2.62-3.06,7.57-3.11,11.3-3.55,4.05-.28,8.22-.32,12.17.66,4.74-2.3,32.56-2.17,34.78,3.13,2.65-5.41,26.96-4.58,33.04-4.44,8.39.28,16.82.67,25.22.78"/><path class="c" d="M8.62,148.66c1.7.23,3.54.53,5.22.9,1.15.26,2.55.55,3.48,1.32,7.31-3.14,40.25-5.77,46.08-.56.46,0,1.32.21,1.74.41,2.22-3.04,11.09-3.3,14.78-3.56,3.46-.13,6.99-.09,10.43.29.78.09,1.85.26,2.61.46.43.26,1.25.42,1.74.28,1.9-.72,4.08-.76,6.09-.9,2.87-.13,5.83-.08,8.69.11,2.59.18,5.28.48,7.83,1.01,2.17.41,4.4,1.16,6.09,2.64,6.11-5.54,30.52-4.01,39.13-3.56,6.94.37,13.92.48,20.87.59"/><path class="c" d="M8.62,147.29c1.48.31,3.33.49,4.35,1.74,1.14-1.01,2.95-.78,4.35-.59,1.67-.2,3.6-1.06,5.22-.21,1.2-.92,2.92-1.02,4.35-1.32,1.98-.34,4.09-.6,6.09-.8,8.07-.68,16.35-1.04,24.35.51,1.15.26,2.52.67,3.48,1.39.76.3,1.83.24,2.61.07.92-.83,2.3-1.35,3.48-1.68,7.06-1.81,14.49-1.91,21.74-1.63,2,.11,4.11.28,6.09.58,1.18.2,2.65.38,3.48,1.34.85-.94,2.3-.99,3.48-1.1,1.69-.13,3.52-.15,5.22-.1,3.6.22,11.54.43,13.91,3.22l.87-.4.87.21c2.36-2.42,8.01-2.73,11.3-3.21,8.95-.91,18-.57,26.95.16,7.51.7,15.08.55,22.61.76"/><path class="c" d="M8.62,145.24c1.7.24,3.65.2,5.22.98,2.07-1.62,12.27-1.96,14.78-1,5.05-1.44,10.43-1.44,15.65-1.5,4.97.12,10.21.13,14.78,2.31.77-.3,1.81-.02,2.61-.08,6.12-4.81,33.4-4.43,40.87-1.69.8.26,1.81-.21,2.61-.25,1.69-.13,3.53-.07,5.22.08,2.32.33,5.09.36,6.96,1.94,1.03-.5,2.41-.5,3.48-.11,1.17-.23,2.29-1.16,3.48-1.4,2.81-.82,5.79-1.23,8.69-1.53,6.05-.6,12.19-.64,18.26-.36,5.51.21,11.02,1,16.52,1.36,5.2.24,10.45.05,15.65.37"/><path class="c" d="M8.62,142.55c1.1.17,2.43.36,3.48.77.84.2,1.8-.38,2.61-.5,1.08-.2,2.38-.35,3.48-.45,5.18-.31,10.57-.69,15.65.53,3.59-1.43,17.58-1.34,20.87.65,1.69-.17,3.74-.75,5.22.39,3.21-2.62,9.81-3.06,13.91-3.56,10.42-.9,20.97-.38,31.3,1.2,2.57.39,5.23.81,7.83.97,2.29.26,4.93-.03,6.96,1.23,3.72-3.4,19.81-3.63,25.22-3.58,4.63.07,9.31.36,13.91.9,3.18.33,6.38,1.01,9.56,1.27,4.91.13,9.88-.31,14.78.12"/><path class="c" d="M8.62,139.99c1.43.14,2.94.68,4.35.91,1.3-.64,2.93-.75,4.35-.92,2.28-.22,4.67-.31,6.96-.35,6.09-.12,12.21.28,18.26.96,3.74.61,14.27-1.3,16.52,1.12.78-1.11,2.24-1.53,3.48-1.87,2.25-.62,4.65-1.03,6.96-1.34,9.21-1.17,18.58-1.05,27.82-.31,4.05.33,8.14.83,12.17,1.29,2.86.46,6.04.32,8.69,1.58.85-.09,1.79-.73,2.61-.94,2.81-.8,5.79-1.26,8.69-1.59,5.76-.64,11.6-.78,17.39-.59,3.46.12,6.99.37,10.43.8,2.31.37,4.87.5,6.96,1.65,1.28-.69,2.94-.52,4.35-.51,2.04.09,4.19.39,6.09,1.18,2.73-.93,5.84-.65,8.69-.59"/><path class="c" d="M8.62,137.45c1.73.19,3.55.58,5.22,1.07,2.96-1.24,6.41-.99,9.56-1.23,4.91-.16,9.87-.05,14.78.1,4.04.13,8.14.22,12.17.36,1.39.06,2.96.14,4.35.28,1.15.13,2.56.27,3.48,1.05,1.48-1.11,3.45-1.53,5.22-1.92,2.26-.48,4.66-.84,6.96-1.09,10.39-1.12,20.91-.79,31.3.18,3.17.3,6.41.64,9.56,1.05,1.09.14,2.4.33,3.48.55.44.08,1.32.34,1.74.51,0,0,.87.98.87.98.72-1.25,2.17-1.59,3.48-1.87,1.97-.43,4.08-.77,6.09-1.03,6.9-.86,13.92-1.02,20.87-.69,2.58.13,5.26.34,7.83.66,2.01.31,4.24.49,6.09,1.4.8.06,1.82-.34,2.61-.4,1.98-.19,4.1-.13,6.09,0,2.57.34,5.71.27,7.83,1.92,1.55-.84,3.5-.81,5.22-.84"/><path class="c" d="M8.62,134.94c2.32.22,4.71.58,6.96,1.19,2.7-1.09,5.83-.91,8.69-1.14,4.33-.17,8.71-.16,13.04-.11,4.04.06,8.14.14,12.17.33,2.94.1,5.89.4,8.69,1.28,1.74-1.22,4.06-1.44,6.09-1.87,3.14-.55,6.39-.91,9.56-1.14,8.39-.59,16.84-.38,25.22.27,3.17.25,6.41.56,9.56.94,2.63.33,5.41.61,7.83,1.77,1.42-1.17,3.47-1.35,5.22-1.69,2.27-.38,4.66-.69,6.96-.91,7.21-.67,14.52-.71,21.74-.15,2,.16,4.11.39,6.09.72,1.45.26,3.12.54,4.35,1.41,2.62-2,17.27-.77,20,1.23.82.11,1.81-.37,2.61-.44"/><path class="c" d="M8.62,132.45c2.87.35,5.96.29,8.69,1.31,2.82-.7,5.79-.99,8.69-1.09,4.33-.2,8.71-.24,13.04-.2,3.75.04,7.56.12,11.3.37,2.3.24,4.87.18,6.96,1.27,1.16-.1,2.31-.95,3.48-1.12,3.12-.72,6.38-1.13,9.56-1.45,7.5-.71,15.09-.73,22.61-.38,4.34.21,8.72.55,13.04,1.01,2.29.26,4.7.52,6.96,1.05.8.17,1.79.74,2.61.85,1.21-.91,2.9-1.17,4.35-1.45,1.98-.34,4.09-.61,6.09-.83,7.49-.79,15.09-.91,22.61-.39,3.78.39,7.84.44,11.3,2.15,3.25-2.16,20.15-.8,23.48,1.44"/><path class="c" d="M8.62,130.01c2.29.16,4.68.33,6.96.57,1.42.19,3.08.26,4.35.99,2.44-.99,5.23-.99,7.83-1.2,3.74-.21,7.56-.28,11.3-.27,3.75.02,7.56.1,11.3.37,2.3.26,4.89.21,6.96,1.35.86-.05,1.79-.7,2.61-.9,3.67-.95,7.53-1.32,11.3-1.67,7.51-.62,15.09-.59,22.61-.22,4.05.21,8.15.51,12.17.95,2.94.3,5.96.7,8.69,1.86,1.44-1.12,3.48-1.32,5.22-1.65,2.28-.35,4.66-.62,6.96-.83,6.63-.59,13.35-.69,20-.28,2.59.17,5.27.41,7.83.84,1.5.31,3.41.45,4.35,1.82.6-.81,1.65-1.16,2.61-1.25,1.39-.2,2.95-.29,4.35-.32,5.81-.06,11.71.35,17.39,1.64"/><path class="c" d="M8.62,127.61c4.64.29,9.39.37,13.91,1.53,2.15-.91,4.66-.87,6.96-1.09,3.45-.21,6.98-.29,10.43-.29,4.92.05,9.91.1,14.78.86,1.28.1,2.34.92,3.48.85,1.78-1.11,4.06-1.29,6.09-1.63,2.86-.41,5.81-.7,8.69-.89,8.1-.52,16.25-.37,24.35.13,3.17.21,6.41.46,9.56.84,2.32.41,5.11.35,6.96,1.99,1.04-1.24,2.86-1.46,4.35-1.78,2.27-.41,4.66-.66,6.96-.89,6.63-.63,13.35-.78,20-.44,2.59.14,5.26.36,7.83.73,1.73.29,3.69.51,5.22,1.43.84.09,1.8-.49,2.61-.61,1.97-.35,4.09-.44,6.09-.47,5.51-.04,11.08.38,16.52,1.25"/><path class="c" d="M8.62,125.27c5.23.25,10.57.31,15.65,1.59,2.15-.92,4.66-.9,6.96-1.12,3.16-.2,6.4-.27,9.56-.27,3.46.01,6.99.12,10.43.41,2.33.24,4.88.41,6.96,1.6,1.64-1.39,4.06-1.44,6.09-1.82,2.57-.36,5.24-.62,7.83-.8,8.09-.55,16.25-.42,24.35.04,3.17.19,6.41.43,9.56.78,2.3.38,4.99.35,6.96,1.75,4.02-1.97,8.66-2.06,13.04-2.54,6.35-.52,12.77-.63,19.13-.27,2.59.15,5.26.38,7.83.77,1.77.37,4.02.42,5.22,1.95,2.37-3.1,20.88-1.26,25.22-.76"/><path class="c" d="M8.62,122.97c3.46.11,6.99.23,10.43.52,2,.27,4.34.19,6.09,1.32,2.39-1.17,5.23-1.14,7.83-1.38,3.45-.21,6.98-.26,10.43-.21,2.87.05,5.83.18,8.69.46,2.02.31,4.45.26,6.09,1.63,1.75-1.22,4.03-1.47,6.09-1.77,2.57-.35,5.24-.61,7.83-.78,7.81-.51,15.67-.39,23.48.01,3.46.19,6.99.43,10.43.81,2.34.32,4.92.49,6.96,1.8,2.25-2.12,9.79-2.29,13.04-2.69,6.93-.54,13.94-.6,20.87-.09,3.79.39,7.86.48,11.3,2.28,3.76-2.59,20.06-1.14,25.22-.75"/><path class="c" d="M8.62,120.71c3.46.07,6.98.17,10.43.43,2.3.25,4.83.25,6.96,1.25,5.35-1.39,11-1.42,16.52-1.42,5.54.1,11.25.14,16.52,1.91,1.23-.85,2.9-1.08,4.35-1.32,1.69-.25,3.52-.46,5.22-.62,5.48-.5,11.02-.63,16.52-.57,6.37.09,12.78.36,19.13.93,2,.2,4.13.42,6.09.9.82.16,1.74.88,2.61.74,2.03-1.28,4.64-1.44,6.96-1.82,3.44-.43,6.97-.71,10.43-.86,5.49-.24,11.04-.19,16.52.22,2.89.24,5.88.53,8.69,1.25.81.19,1.77.81,2.61.91,1.24-.8,2.92-.94,4.35-1.11,1.98-.2,4.09-.28,6.09-.3,4.92-.03,9.88.19,14.78.53"/><path class="c" d="M8.62,118.5c4.92.07,9.9.14,14.78.76.79.1,1.85.3,2.61.52.43.27,1.24.46,1.74.33,3.63-1.86,28.94-2.11,31.3.94,1.4-1.22,3.46-1.4,5.22-1.67,2.57-.36,5.24-.6,7.83-.76,7.52-.45,15.09-.32,22.61,0,3.46.16,6.99.36,10.43.69,2.3.32,4.92.33,6.96,1.56.5,0,1.33-.33,1.74-.62,1.06-.41,2.37-.7,3.48-.9,5.44-.9,11.01-1.21,16.52-1.35,5.21-.09,10.47.05,15.65.6,2.01.22,4.13.5,6.09,1.02.81.19,1.76.84,2.61.88,1.25-.79,2.92-.93,4.35-1.11,1.98-.21,4.09-.29,6.09-.33,4.91-.06,9.88.09,14.78.35"/><path class="c" d="M8.62,116.34c3.75,0,7.56.06,11.3.31,2.59.28,5.46.21,7.83,1.4,5.32-1.57,11.01-1.46,16.52-1.47,5.24.17,10.7.18,15.65,2.05,1.22-.88,2.91-1.05,4.35-1.28,1.98-.28,4.09-.49,6.09-.64,5.48-.4,11.03-.44,16.52-.33,4.91.1,9.88.3,14.78.61,1.99.13,4.11.3,6.09.56,1.43.21,3.09.41,4.35,1.18.53.08,1.33-.23,1.74-.55.76-.3,1.81-.59,2.61-.75,6-1.14,12.17-1.41,18.26-1.53,4.62-.05,9.31.09,13.91.53,3.24.3,6.58.74,9.56,2.09,1.22-.86,2.91-1,4.35-1.19,1.98-.22,4.09-.31,6.09-.36,4.91-.09,9.87,0,14.78.19"/><path class="c" d="M8.62,114.23c4.2.07,17.04-.3,20,1.86,3.53-2.4,28.19-2.26,31.3.57,3.47-1.67,7.54-1.61,11.3-1.99,5.48-.35,11.03-.33,16.52-.2,4.91.13,9.87.3,14.78.59,3.5.27,7.19.31,10.43,1.8,4.04-3.82,41.37-4.2,45.21-.09,1.08-1.15,2.88-1.24,4.35-1.46,2.28-.26,4.67-.36,6.96-.42,4.62-.08,9.29-.06,13.91.06"/><path class="c" d="M8.62,112.16c4.36.02,17.84-.45,20.87,1.91,1.14-1.03,2.9-1.09,4.35-1.31,2.57-.29,5.24-.4,7.83-.44,5,.06,14.99-.09,19.13,2.33,1.16-1.01,2.9-1.1,4.35-1.35,1.98-.28,4.09-.47,6.09-.59,5.78-.35,11.61-.26,17.39-.1,4.91.16,9.87.28,14.78.53,1.99.11,4.11.25,6.09.54,1.17.18,2.6.41,3.48,1.28,4.43-4.07,40.49-4.21,45.21-.47,3.53-1.53,7.53-1.44,11.3-1.63,4.62-.11,9.29-.15,13.91-.09"/><path class="c" d="M8.62,110.14c5.49-.15,11.05-.17,16.52.41,1.1.13,2.41.32,3.48.62.4.22,1.28.46,1.74.48,4.21-2.2,26.5-1.89,30.43.77,3.62-1.14,7.5-1.52,11.3-1.68,6.07-.3,12.19-.06,18.26.16,4.62.18,9.29.2,13.91.35,3.2.19,6.62.13,9.56,1.56,4.48-4.07,39.99-3.94,45.21-.26,1.18-.95,2.9-1.06,4.35-1.26,1.69-.19,3.52-.3,5.22-.37,4.91-.17,9.87-.26,14.78-.27"/><path class="c" d="M8.62,108.18c4.33-.18,8.72-.23,13.04-.02,2.87.29,6.11.09,8.69,1.5,2.46-.99,5.2-1.2,7.83-1.36,3.16-.18,6.4-.19,9.56-.08,2.88.11,5.84.33,8.69.76,1.76.32,3.81.54,5.22,1.75.88-.89,2.31-1.07,3.48-1.26,1.39-.21,2.95-.37,4.35-.47,6.94-.5,13.94-.07,20.87.47,8.09.61,16.48-1.05,24.35,1.11,2.28-1.46,5.21-1.61,7.83-2,3.73-.44,7.55-.66,11.3-.75,6.96-.12,13.99.07,20.87,1.16,1.11.19,2.42.47,3.48.85.39.3,1.24.58,1.74.5,2.94-1.34,6.41-1.12,9.56-1.39,4.62-.16,9.29-.33,13.91-.38"/><path class="c" d="M8.62,106.28c5.07-.21,18.61-.91,22.61,1.44,3.2-2.6,27.12-1.91,30.43.78,4.17-1.41,8.68-1.49,13.04-1.48,1.7.03,3.53.11,5.22.29,1.19.15,2.67.23,3.48,1.24.8-1.03,2.28-1.16,3.48-1.31,1.39-.16,2.95-.24,4.35-.27,2.29-.03,4.68.06,6.96.33,1.44.2,3.14.38,4.35,1.28,1.81-1.41,10.2-1.18,12.17.05.53.03,1.33-.3,1.74-.61,1.05-.43,2.36-.74,3.48-.95,5.73-.96,11.59-1.22,17.39-1.26,6.38.03,12.84.26,19.13,1.4.79.15,1.86.42,2.61.7.43.32,1.19.58,1.74.46,2.96-1.27,6.41-1.07,9.56-1.33,4.33-.16,8.71-.4,13.04-.5"/><path class="c" d="M8.62,104.45c6.35-.44,12.79-.63,19.13.08.78.1,1.85.28,2.61.49.43.27,1.24.45,1.74.31,1.88-.79,4.08-.85,6.09-1.03,2.87-.19,5.82-.22,8.69-.14,5.28.17,10.69.53,15.65,2.37,2.67-1.41,12.07-1.74,14.78-.39,5.51-2.03,11.59-1.91,17.39-1.82,2.59.1,5.27.31,7.83.74,1.46.29,3.2.52,4.35,1.55,2.11-1.04,4.69-.8,6.96-.54.82.1,1.77.71,2.61.54,5.96-3.9,38.66-3.48,45.21.07,1.23-.82,2.92-.92,4.35-1.1,1.69-.17,3.52-.27,5.22-.36,4.04-.18,8.13-.5,12.17-.64"/><path class="c" d="M8.62,102.7c4.68-.45,20-1.43,23.48.99,1.16-.98,2.91-1.01,4.35-1.21,2.57-.26,5.24-.34,7.83-.33,3.76.02,7.58.22,11.3.72,2.39.26,4.75.92,6.96,1.84,2.06-1.17,8.36-1.5,10.43-.34,6.11-2.97,18.32-2.8,25.22-2.4,3.32.37,9.76.6,12.17,2.87.66-.6,1.75-.78,2.61-.77,1.45-.09,2.98.32,4.35.76,4.89-4.12,39.74-3.64,45.21,0,3.06-1.01,6.36-1.13,9.56-1.31,3.75-.21,7.55-.64,11.3-.82"/><path class="c" d="M8.62,101.07c4.59-.61,9.28-.85,13.91-.8,1.7.02,3.53.1,5.22.24,1.42.16,3.08.24,4.35.96,5.33-2.04,24.71-1.64,29.56,1.25.83.23,1.8-.35,2.61-.43,1.69-.19,3.68-.39,5.22.49,3.91-3.5,22.18-3.67,27.82-3.28,3.65.3,13.38.8,15.65,3.48,1.2-.92,2.97-.73,4.35-.37l.87.97c.8-1.61,2.75-1.89,4.35-2.23,2.26-.44,4.66-.72,6.96-.92,8.09-.64,16.28-.5,24.35.35,2,.22,4.11.52,6.09.91,1.44.32,3.13.62,4.35,1.51,2.8-.81,5.79-.91,8.69-1.13,3.46-.31,6.96-.92,10.43-1.13"/><path class="c" d="M8.62,99.62c5.13-.98,10.43-1.24,15.65-1.17,2.57.17,5.45-.06,7.83,1.06,3.9-1.93,27.46-1.76,29.56,2.1,1.04-1.24,2.96-1.05,4.35-.56,7.07-5.35,42.25-5.51,49.56-.14,1.03-.58,2.47-.47,3.48.12,3.19-1.69,6.89-2.09,10.43-2.46,5.18-.49,10.45-.57,15.65-.38,4.64.19,9.34.57,13.91,1.39,1.72.32,3.58.73,5.22,1.38.84.3,1.72,1.18,2.61,1.37,2.07-2.19,7.64-2.37,10.43-1.62,1.79-1.07,4.07-1.15,6.09-1.43"/><path class="c" d="M8.62,99.04c2.43-2.36,19.74-3.19,22.61-1.4,3.92-2.15,26.67-1.6,29.56,2,.88-.03,1.98-.16,2.61-.86,1.32-.69,2.91-1.18,4.35-1.57,8.21-2.07,16.77-2.62,25.22-2.56,5.49.12,20.56.79,24.35,4.39.42-.18,1.28-.34,1.74-.3.43.16,1.29.27,1.74.22,5.87-3.93,33.44-3.49,40-.32,1.02-.51,2.37-.53,3.48-.53,1.74,0,3.6.27,5.22.93,1.99-1.51,10.44-1.93,12.17-.02.37-.4,1.18-.97,1.74-1.01"/><path class="c" d="M8.62,96.16c2.84-.34,5.88-.56,8.69.03,1.66-.44,3.5-.69,5.22-.72,1.1,0,2.46-.08,3.48.41,4.29-2.06,29.19-2.16,32.17,1.58l.87-.23.87.45c1.1-1.2,2.83-1.72,4.35-2.13,2.26-.63,4.65-1.15,6.96-1.56,10.31-1.76,20.89-2.05,31.3-1.1,3.57.43,14.98,1.49,16.52,4.64l.87-.66c.45.02,1.32.19,1.74.34,3.18-3.69,31.13-4.01,34.78-.93,2.21-1.65,13.27-1.27,15.65.2,3.63-1.23,7.53-.8,11.3-.73"/><path class="c" d="M8.62,94.54c.94-.75,2.33-.92,3.48-1.07,1.39-.17,2.95-.27,4.35-.34,4.04-.19,8.13-.28,12.17-.42,4.91-.15,9.88-.25,14.78.03,2,.12,4.11.3,6.09.63,1.13.2,2.51.44,3.48,1.1,1.94-.46,4.45-.59,6.09.71,1.24-1.51,3.44-1.73,5.22-2.19,2.85-.64,5.8-1.19,8.69-1.61,10.93-1.53,22.09-1.69,33.04-.36,2.9.37,5.86.86,8.69,1.58,2.1.55,4.37,1.2,6.09,2.6l.87-.21.87.37c3.15-3.61,26.44-4.02,30.43-1.56,4.09-1.8,19.58-1.6,23.48.49,2.25-.51,4.66-.62,6.96-.75"/><path class="c" d="M8.62,91.51l.87.51c1.14,0,2.33-.72,3.48-.78,3.72-.5,7.55-.55,11.3-.61,6.07,0,12.22-.1,18.26.64.44.05,1.32.27,1.74.43,1.09-.08,2.38-.32,3.48-.32,3.45.02,7.23-.29,10.43,1.22,1.88-1.6,4.64-1.67,6.96-2.22,3.72-.7,7.53-1.29,11.3-1.69,10.97-1.13,22.12-1.07,33.04.57,2.6.41,5.29.93,7.83,1.63,1.78.55,3.87,1.04,5.22,2.41l.87-.29.87.26c2.41-2.46,9.6-2.56,13.04-2.81,3.16-.1,6.42-.08,9.56.31.44.06,1.31.22,1.74.33.46.28,1.23.42,1.74.25,6.08-2.1,26.25-1.58,32.17.95l.87-.41"/><path class="c" d="M8.62,88.94c.81.21,1.8.78,2.61,1.01,2.27-1.85,19.75-1.71,22.61-.43,1.3-.63,2.94-.59,4.35-.71,1.99-.1,4.1-.13,6.09-.12,4.34.18,8.96-.15,13.04,1.54,1.93-1.49,4.64-1.58,6.96-2.05,3.44-.58,6.96-1.12,10.43-1.51,11.83-1.31,23.87-1.27,35.65.47,2.6.4,5.27.91,7.83,1.54,2.07.55,4.38,1.03,6.09,2.4l.87-.3.87.17c3.43-1.86,7.48-2.07,11.3-2.27,1.69-.06,3.53-.05,5.22.07,1.14.1,2.56.17,3.48.94,1.19-.94,2.91-1.06,4.35-1.3,1.98-.27,4.09-.44,6.09-.56,8.97-.4,18.12-.32,26.95,1.4"/><path class="c" d="M8.62,86.57c1.16.21,2.4.83,3.48,1.26.97-.66,2.34-.83,3.48-.96,1.69-.18,3.52-.24,5.22-.25,1.39,0,2.96.04,4.35.14,1.12.1,2.5.15,3.48.77,1.53-.88,3.5-.88,5.22-1.06,2.57-.19,5.25-.24,7.83-.23,2.58.02,5.25.1,7.83.29,2.33.19,4.82.39,6.96,1.44,2.19-1.62,5.23-1.61,7.83-2.1,3.45-.51,6.97-1.02,10.43-1.38,11.84-1.24,23.85-1.21,35.65.42,3.78.53,7.59,1.26,11.3,2.16.79.2,1.86.53,2.61.85.69.52,1.8.86,2.61.42.77-.11,1.85-.08,2.61.14.8-.11,1.81-.6,2.61-.75,1.67-.34,3.51-.5,5.22-.52,1.12.02,2.53-.04,3.48.66,1.68-1.28,4.09-1.22,6.09-1.61,3.44-.44,6.97-.71,10.43-.86,8.69-.32,17.48-.14,26.08,1.17"/><path class="c" d="M8.62,84.32c.79.16,1.85.44,2.61.73.4.28,1.25.59,1.74.59,2.27-1.18,9.83-1.25,12.17-.2,2.47-.95,5.21-1.15,7.83-1.34,3.16-.2,6.4-.24,9.56-.17,2.58.06,5.26.19,7.83.47,1.74.22,3.72.4,5.22,1.42,1.87-1.57,4.65-1.55,6.96-1.99,2.87-.36,5.82-.78,8.7-1.12,10.37-1.24,20.88-1.57,31.3-.81,5.23.38,10.49,1.06,15.65,2.01,1.7.32,3.54.63,5.22,1.04,1.26.3,2.78.69,3.48,1.89l.87-.85c3.95-.85,8.17-.79,12.17-1.46,14.39-1.85,29.07-2.34,43.47-.41"/><path class="c" d="M8.62,82.16c1.45.31,3.16.61,4.35,1.56,1.64-.56,3.48-.85,5.22-.81,1.42.05,3.14-.06,4.35.79,3.85-2.87,26.51-2.53,31.3-.69l.87,1.02.87-1.05c.44-.18,1.28-.46,1.74-.56,1.68-.38,3.51-.64,5.22-.84,3.46-.38,6.97-.85,10.43-1.2,12.12-1.26,24.4-1.34,36.52,0,3.47.38,6.99.91,10.43,1.47,2.59.53,5.59.59,7.83,2.13,2.73-1.14,5.8-1.22,8.69-1.61,3.74-.42,7.55-.83,11.3-1.13,11.85-.9,23.85-1.03,35.65.55"/><path class="c" d="M8.62,80.08c1.77.35,3.74.75,5.22,1.85.68-.52,1.77-.71,2.61-.73,1.11-.04,2.46-.02,3.48.49,2.71-1.23,5.76-1.62,8.69-1.89,4.03-.37,8.13-.47,12.17-.38,2.58.06,5.26.2,7.83.48,1.73.26,3.77.31,5.22,1.4,3.46-1.73,7.54-1.66,11.3-2.16,4.9-.54,9.86-1.08,14.78-1.39,10.71-.69,21.51-.46,32.17.78,3.17.36,6.4.83,9.56,1.27,2.3.45,4.99.49,6.96,1.9,2.69-1.26,5.79-1.38,8.69-1.78,4.03-.46,8.13-.84,12.17-1.1,11.28-.69,22.69-.74,33.91.79"/><path class="c" d="M8.62,78.06c1.75.37,3.75.69,5.22,1.78.44,0,1.31-.13,1.74-.24.79-.07,1.83.19,2.61.25,5.22-3.29,23.03-2.88,29.56-2.19,1.1.12,2.4.3,3.48.54.82.15,1.75.81,2.61.64,1.56-.82,3.5-.98,5.22-1.23,2.86-.35,5.83-.56,8.69-.86,13.85-1.5,27.85-1.94,41.74-.64,3.76.33,7.56.81,11.3,1.26,1.7.2,3.54.45,5.22.78,1.23.24,2.74.53,3.48,1.66.75-1.13,2.23-1.38,3.48-1.6,1.39-.25,2.95-.46,4.35-.63,4.03-.48,8.13-.83,12.17-1.08,11.29-.62,22.7-.66,33.91.96"/><path class="c" d="M8.62,76.11c2.11.38,4.32,1.01,6.09,2.28h.87c2.54-1.74,5.71-2.22,8.69-2.65,4.3-.56,8.7-.76,13.04-.76,3.17.01,6.41.14,9.56.46,2.03.28,4.36.35,6.09,1.56,1.16-1.01,2.9-1.11,4.35-1.35,2.28-.3,4.67-.48,6.96-.66,5.2-.44,10.44-.97,15.65-1.27,11.29-.69,22.65-.46,33.91.67,4.33.48,8.75.78,13.04,1.57,1.15.12,2.33.9,3.48.94,2.63-1.35,5.82-1.37,8.69-1.81,4.32-.48,8.7-.8,13.04-.99,10.43-.38,20.98-.35,31.3,1.31"/><path class="c" d="M8.62,74.23c1.84.44,4.15.8,5.22,2.55.58-.03,1.37-.63,1.74-1.05.42-.25,1.27-.66,1.74-.81,4.75-1.48,9.84-1.77,14.78-2.01,4.04-.15,8.14-.1,12.17.18,2.59.29,5.46.27,7.83,1.47,5.62-1.57,11.6-1.44,17.39-2.03,10.69-.92,21.45-1.42,32.17-1.02,5.8.2,11.62.67,17.39,1.23,2.29.21,4.68.43,6.96.78,1.5.29,3.41.38,4.35,1.76,1.14-1.62,3.45-1.59,5.22-1.97,3.15-.48,6.39-.78,9.56-1.03,7.51-.56,15.08-.7,22.61-.4,5.22.25,10.52.54,15.65,1.6"/><path class="c" d="M8.62,72.46c1.17.25,2.45.83,3.48,1.42.73-.45,1.79-.54,2.61-.3,1.42-.4,2.86-1.22,4.35-1.44,5.41-1.13,11.01-1.41,16.52-1.47,3.46-.01,6.99.1,10.43.44,2.01.34,4.55.17,6.09,1.7,1.35-1.27,3.49-1.16,5.22-1.42,2.87-.27,5.82-.38,8.69-.58,6.94-.49,13.91-1.04,20.87-1.25,9.27-.3,18.58-.06,27.82.66,3.16.26,6.41.48,9.56.83,2.01.32,4.37.32,6.09,1.54,2.14-1.06,4.61-1.45,6.96-1.76,2.57-.34,5.24-.59,7.83-.78,7.51-.54,15.09-.64,22.61-.28,5.22.35,10.59.52,15.65,1.95"/><path class="c" d="M8.62,70.86c.41.24,1.27.57,1.74.65,1.56-.82,3.54-.7,5.22-.33,4.53-3.09,31.97-3.72,36.52-.68,1.46-1.06,3.5-.96,5.22-1.18,2.87-.23,5.82-.31,8.69-.47,6.94-.4,13.92-.93,20.87-1.16,9.27-.33,18.57-.17,27.82.44,3.16.22,6.41.41,9.56.73,2.01.28,4.3.33,6.09,1.4,4.42-1.62,9.23-1.99,13.91-2.38,6.64-.5,13.34-.62,20-.37,3.76.14,7.57.4,11.3.85,2.64.35,5.45.65,7.83,1.94"/><path class="c" d="M8.62,69.34c2.09-.93,4.74-1.11,6.96-.54,3.32-1.22,6.92-1.64,10.43-1.95,4.61-.39,9.29-.49,13.91-.35,2.58.09,5.26.26,7.83.59,1.45.25,3.23.32,4.35,1.37,1.44-1.09,3.5-.95,5.22-1.15,2.87-.19,5.82-.24,8.69-.37,6.95-.31,13.92-.8,20.87-1.06,8.97-.35,17.99-.31,26.95.15,3.16.17,6.41.34,9.56.6,2.3.3,4.91.26,6.96,1.45,3.34-1.26,6.88-1.77,10.43-2.1,5.18-.51,10.44-.74,15.65-.74,4.92,0,9.89.2,14.78.67,3.52.36,7.15.74,10.43,2.11.41-.25,1.27-.59,1.74-.65"/><path class="c" d="M8.62,66.69c2.52-.46,5.3-.86,7.83-.25,1.68-.47,3.48-.99,5.22-1.18,5.74-.79,11.6-.99,17.39-.87,4.66.14,9.44.31,13.91,1.68,1.89-.74,4.09-.66,6.09-.8,3.16-.11,6.4-.15,9.56-.27,7.82-.26,15.66-.82,23.48-1.06,7.81-.25,15.67-.2,23.48.15,2.87.14,5.83.26,8.69.52,2.01.28,4.37.23,6.09,1.44,2.39-1.27,5.19-1.59,7.83-1.95,3.73-.46,7.55-.73,11.3-.87,6.07-.22,12.2-.13,18.26.37,3.18.29,6.46.61,9.56,1.39.8.19,1.78.77,2.61.83,1-.56,2.36-.74,3.48-.87"/><path class="c" d="M8.62,64.41c3.42-.67,6.98-.8,10.43-.42,2.74-.99,5.81-1.08,8.69-1.37,5.19-.38,10.45-.43,15.65-.16,1.99.11,4.11.28,6.09.55,1.43.23,3.14.38,4.35,1.26,2.01-1.14,4.71-.74,6.96-.92,3.16-.05,6.4-.07,9.56-.11,7.25-.05,14.5-.68,21.74-1.01,8.1-.38,16.24-.43,24.35-.13,2.87.11,5.83.22,8.69.51,1.76.29,4.05.16,5.22,1.73.75-1.15,2.22-1.47,3.48-1.72,1.68-.35,3.51-.6,5.22-.8,7.49-.83,15.08-1,22.61-.66,4.64.27,9.38.56,13.91,1.68.81.19,1.75.85,2.61.79,1.58-.74,3.51-.81,5.22-.97"/><path class="c" d="M8.62,62.24c3.68-.82,7.54-1.05,11.3-.98,1.11-.06,2.39.45,3.48.21,5.95-1.62,26.86-1.87,32.17.68,3.38-.85,6.98-.55,10.43-.57,3.45.18,7.08.03,10.43.92,1.06-.33,2.4-.41,3.48-.09,3.3-1.17,6.98-1.19,10.43-1.61,5.48-.47,11.02-.7,16.52-.76,4.62-.05,9.3.02,13.91.22,2.29.12,4.7.24,6.96.67.8.13,1.79.67,2.61.71,1.77-1.13,4.06-1.3,6.09-1.66,2.86-.41,5.81-.67,8.69-.85,6.07-.36,12.2-.35,18.26.07,4.39.39,8.97.62,13.04,2.42,2.07-1.11,4.67-.93,6.96-1.15"/><path class="c" d="M8.62,60.06c4.08-1.25,16.1-2.13,20-.76,3.03-1.03,6.4-.89,9.56-1.06,4.33-.08,8.73.05,13.04.49,1.7.18,3.54.42,5.22.81.8.16,1.79.67,2.61.71,1.36-.4,2.95-.35,4.35-.37,1.7.05,3.61.03,5.22.65.46-.03,1.33-.27,1.74-.48,1.07-.29,2.38-.5,3.48-.63,3.44-.39,6.98-.5,10.43-.43,2.29.13,4.83,0,6.96.99.97-.66,2.35-.81,3.48-.98,1.69-.23,3.52-.38,5.22-.5,4.32-.29,8.71-.4,13.04-.41,3.16,0,6.4.05,9.56.23,2.29.27,5.01.02,6.96,1.42,5.61-3.81,39.66-4.14,45.21-.25,2.73-1.09,5.8-1.03,8.69-1.17"/><path class="c" d="M8.62,57.75c5.62-1.56,11.6-1.6,17.39-1.62,1.39.02,2.96.09,4.35.2,1.12.11,2.5.17,3.48.79,3.9-1.9,24.2-.98,27.82,1.53.78-.09,1.82-.27,2.61-.22.81.01,1.8.47,2.61.27,2.36-1.23,5.22-1.35,7.83-1.67,4.32-.39,8.71-.48,13.04-.34,2.88.21,6.03.04,8.69,1.28,1.77-1.09,4.09-1.01,6.09-1.28,3.16-.27,6.4-.4,9.56-.46,4.62-.05,9.32-.1,13.91.44,1.14.06,2.35.7,3.48.79,5.72-3.45,39.23-4.05,44.34.08,2.9-1.48,6.41-1.03,9.56-1.22"/><path class="c" d="M8.62,55.33c6.5-1.6,13.33-1.7,20-1.6,1.7.05,3.53.15,5.22.33,1.13.14,2.51.26,3.48.91,1.51-.92,3.52-.74,5.22-.89,2.58-.09,5.25-.04,7.83.11,3.78.25,7.66.62,11.3,1.71,1.23.27,2.33,1.28,3.48,1.72,2.78-3.24,16.36-3.11,20.87-3.19,2.87.02,5.83.12,8.69.38,1.72.24,3.79.2,5.22,1.31,1.66-1.31,4.09-1.13,6.09-1.43,2.86-.24,5.82-.36,8.69-.41,2.87-.04,5.83-.03,8.69.16,1.74.23,4,.01,5.22,1.5.76-1.12,2.24-1.44,3.48-1.71,1.68-.36,3.51-.64,5.22-.85,7.2-.86,14.5-1.05,21.74-.67,3.77.23,7.62.56,11.3,1.41.44.1,1.32.38,1.74.54.38.31,1.24.6,1.74.51,2.99-1.16,6.42-.73,9.56-.82"/><path class="c" d="M8.62,52.9c5.68-1.27,11.58-1.54,17.39-1.59,2.58,0,5.25.08,7.83.29,1.71.18,3.61.27,5.22.94,4.27-.82,8.71-.76,13.04-.46,4.13.34,8.45.72,12.17,2.67,1.03-.59,2.37-.32,3.48-.27,3.75-2.67,31.09-3.02,34.78-.39,1.18-.94,2.91-1,4.35-1.21,2.28-.25,4.67-.39,6.96-.47,2.87-.1,5.83-.12,8.69.03,1.71.15,3.69.11,5.22.99,4.1-1.75,8.65-2.12,13.04-2.56,6.35-.54,12.77-.62,19.13-.2,2.59.18,5.27.45,7.83.89,1.75.36,3.81.59,5.22,1.79,3.25-1.38,6.99-.92,10.43-.83"/><path class="c" d="M8.62,50.5c7.42-1.46,15.07-1.7,22.61-1.42,1.99.09,4.11.24,6.09.51,1.14.17,2.54.33,3.48,1.05,2.86-1.8,20.5-.89,22.61,1.86,2-1.25,4.77-1.02,6.96-.42,2.6-1.38,5.82-1.26,8.69-1.58,4.61-.29,9.29-.3,13.91-.12,2.29.1,4.68.25,6.96.51,1.44.23,3.23.25,4.35,1.31,1.15-1.01,2.9-1.08,4.35-1.29,1.98-.23,4.09-.36,6.09-.44,4.35-.16,8.82-.25,13.04.82,6.99-3.74,38.41-4.26,45.21-.17.82.08,1.8-.43,2.61-.51,2.57-.26,5.29-.21,7.83.26"/><path class="c" d="M8.62,48.16c6.29-1.18,12.74-1.52,19.13-1.47,2.58.03,5.25.14,7.83.38,2.01.23,4.21.35,6.09,1.15,1.11.12,2.35-.48,3.48-.47,2.57-.2,5.25-.14,7.83.02,2,.14,4.12.37,6.09.75,1.49.32,3.28.63,4.35,1.82,1.1-1.11,2.9-1.01,4.35-1.11,1.09-.02,2.39.02,3.48.17.45.16,1.27.26,1.74.19,2.18-.83,4.66-.9,6.96-1.1,3.16-.21,6.4-.26,9.56-.23,3.17.04,6.41.17,9.56.44,2,.23,4.21.3,6.09,1.11,1.13.07,2.34-.65,3.48-.71,2.85-.41,5.82-.57,8.69-.64,1.99-.04,4.1-.02,6.09.13,1.21.1,2.71.18,3.48,1.25.95-1.38,2.84-1.57,4.35-1.94,2.27-.47,4.66-.8,6.96-1.05,8.36-.88,16.85-.98,25.22-.13,2,.22,4.12.51,6.09.93,1.47.35,3.24.67,4.35,1.78,1.55-.86,3.5-.87,5.22-.79,1.12.07,2.5.12,3.48.75l.87-.47"/><path class="c" d="M8.62,45.9c7.72-1.41,15.65-1.68,23.48-1.35,1.99.1,4.1.25,6.09.5,1.73.24,3.67.46,5.22,1.33,2.8-1.74,17.47-.74,20,1.49,1.92-.68,4.06-.89,6.09-.83,1.41.06,3.08,0,4.35.71,2.63-2.28,29.31-1.91,32.17.28,3.02-1.64,16.72-2.15,20-.86.55.11,1.3-.14,1.74-.46.76-.29,1.82-.58,2.61-.75,7.12-1.5,14.47-1.94,21.74-1.96,6.1.04,12.27.37,18.26,1.6,1.11.24,2.43.59,3.48,1.04.36.29,1.27.66,1.74.69,1.02-.49,2.37-.51,3.48-.44.86.02,1.96.24,2.61.86.36-.43,1.18-1.07,1.74-1.18"/><path class="c" d="M8.62,43.76c7.7-1.52,15.65-1.74,23.48-1.46,4.04.3,8.35.27,12.17,1.72,1.11.17,2.35-.47,3.48-.45,2.28-.16,4.68-.1,6.96.07,2,.16,4.12.42,6.09.87,1.18.27,2.59.69,3.48,1.57,1.13-1.04,2.91-.95,4.35-1.02,1.41.03,3.09-.08,4.35.66,1.46-1.04,3.5-1,5.22-1.25,2.86-.27,5.82-.36,8.69-.38,3.75-.02,7.56.09,11.3.36,2.91.19,5.9.51,8.69,1.37,1.28-.69,2.93-.8,4.35-.98,1.98-.2,4.09-.32,6.09-.37,1.69-.04,3.53-.03,5.22.08,1.13.09,2.53.15,3.48.87,1.76-1.2,4.04-1.53,6.09-1.95,2.56-.47,5.23-.81,7.83-1.06,8.37-.77,16.86-.8,25.22.12,4.15.53,8.5,1.04,12.17,3.18,1.04-.56,2.38-.26,3.48-.04.67-.59,1.76-1.06,2.61-1.29"/><path class="c" d="M8.62,41.81c7.07-1.76,14.49-1.86,21.74-1.78,5.54.19,11.22.42,16.52,2.1,2.74-.94,5.85-.55,8.69-.42,2.31.2,4.73.52,6.96,1.19.81.23,1.78.86,2.61,1.01,1.59-.77,3.54-.53,5.22-.24,5.13-2.72,31.73-2.22,37.39.06,1.54-.85,3.5-.86,5.22-1.05,2.57-.2,5.25-.29,7.83-.2,1.1.04,2.4.12,3.48.33.81.43,1.87.31,2.61-.21,5.03-1.6,10.41-2.06,15.65-2.52,7.22-.52,14.53-.5,21.74.2,3.95.53,12.45,1.12,14.78,4.43,1.21-1.1,2.74-2.05,4.35-2.43"/><path class="c" d="M8.62,40.8c3.09-4.32,35.17-3.4,40-.62,4.28-.88,8.8-.44,13.04.51.81.2,1.86.57,2.61.94.41.4,1.16.76,1.74.76.86-.17,1.78-.89,2.61-1.13,3.92-1.15,8.11-1.36,12.17-1.59,7.53-.31,15.11-.12,22.61.65,1.71.22,3.61.37,5.22,1.03.82.14,1.81-.36,2.61-.46,1.68-.26,3.52-.37,5.22-.43,1.99-.06,4.1-.06,6.09.15.79.06,1.8.49,2.61.4.4-.24,1.29-.61,1.74-.73,11.76-3.17,39.59-4.31,50.43.83,1.32-.61,3.15-.65,4.35.26.41-.3,1.28-.81,1.74-1.01"/><path class="c" d="M8.62,37.16c.81.14,1.76.76,2.61.74,5.72-3.46,34.73-2.5,40.87.56,2.72-.68,8.1-.38,10.43,1.22,1.09-.35,2.51-.38,3.48.31,5.04-3.47,24.57-2.83,31.3-2.52,2.88.16,5.83.38,8.69.72,1.71.27,3.69.32,5.22,1.21,2.16-.9,4.66-.82,6.96-.89,1.7.06,3.68-.11,5.22.73,1.83-1.02,4.06-1.35,6.09-1.76,2.85-.52,5.81-.92,8.69-1.22,7.79-.78,15.67-.95,23.48-.39,2.89.22,5.85.54,8.69,1.1,1.53.36,3.45.59,4.35,2.04l.87-.86c2.5-.6,5.4-.71,7.83.25"/><path class="c" d="M8.62,34.45c1.54.25,3.49.37,4.35,1.87.87-1.5,2.8-1.66,4.35-1.94,2.56-.39,5.24-.57,7.83-.67,9.59-.34,19.23.44,28.69,2.01,2.56.43,5.23.65,7.83.73,1.72.14,3.8-.06,5.22,1.09,1.84-2.01,9.29-2.13,12.17-2.42,10.14-.55,20.35-.2,30.43.97,2.02.2,4.11.64,6.09,1.1.75-.27,1.82-.36,2.61-.36.79-.01,1.86.06,2.61.31,1.99-.46,4.06-1.08,6.09-1.38,10.59-1.91,21.43-2.59,32.17-2.05,2.59.14,5.26.37,7.83.77,1.76.35,3.93.47,5.22,1.87,1.07-1.16,2.89-1.11,4.35-1.27,2.28-.15,4.69-.15,6.96.25"/><path class="c" d="M8.62,31.91c2.02.28,4.36.36,6.09,1.57,3.56-1.44,7.49-1.67,11.3-1.82,5.2-.19,10.46-.03,15.65.35,4.92.35,9.87,1,14.78,1.46,3.75.42,7.66.24,11.3,1.34,2.05-1.21,4.65-1.27,6.96-1.61,3.15-.33,6.4-.5,9.56-.59,8.99-.24,18.01.24,26.95,1.13,2.86.26,5.81.65,8.69.56,3.48-.16,6.98-.84,10.43-1.27,7.48-1.01,15.06-1.55,22.61-1.47,4.92.14,10.01.15,14.78,1.47.71.52,1.86.57,2.61.08.75-.2,1.83-.37,2.61-.45,3.44-.33,6.99-.43,10.43-.03"/><path class="c" d="M8.62,29.47c2.01.18,4.13.43,6.09.93.82.18,1.74.87,2.61.83,2.87-1.51,6.4-1.32,9.56-1.59,5.2-.2,10.46-.03,15.65.31,4.92.32,9.87.83,14.78,1.19,1.99.15,4.1.28,6.09.42,1.41.13,3.05.21,4.35.84,5.58-1.76,11.56-1.9,17.39-2.11,8.7-.23,17.42.22,26.08.96,3.16.25,6.39.55,9.56.49,3.18-.07,6.41-.51,9.56-.86,7.49-.86,15.06-1.4,22.61-1.25,3.17.07,6.43.21,9.56.72,1.14.08,2.34.85,3.48.82,2.41-1.06,5.24-1.01,7.83-1.22,3.16-.14,6.41-.21,9.56.11"/><path class="c" d="M8.62,27.11c3.53.28,7.18.65,10.43,2.11,1.22-.88,2.91-1.03,4.35-1.23,1.98-.23,4.09-.33,6.09-.39,5.5-.13,11.04.12,16.52.47,4.62.31,9.29.65,13.91.93,1.69.11,3.53.19,5.22.36,1.19.14,2.67.23,3.48,1.24,1.23-1.47,3.47-1.42,5.22-1.76,3.15-.42,6.39-.63,9.56-.76,8.69-.36,17.42-.03,26.08.62,6.35.53,12.77.97,19.13.24,6.93-.64,13.91-1.22,20.87-1.18,2.29.01,4.68.08,6.96.28,1.73.18,3.69.31,5.22,1.22.94-.74,2.33-.93,3.48-1.11,1.68-.24,3.52-.4,5.22-.51,4.32-.24,8.72-.38,13.04-.03"/><path class="c" d="M8.62,24.81c4.09.38,8.42.55,12.17,2.38.96-.73,2.32-.95,3.48-1.11,1.69-.22,3.52-.34,5.22-.4,4.62-.16,9.3-.02,13.91.19,6.66.33,13.34.72,20,1.07,1.4.08,2.97.2,4.35.51.79.44,1.85.37,2.61-.1,5.94-1.46,12.18-1.49,18.26-1.69,10.74-.28,21.46.86,32.17,1.36,7.83.11,15.65-.98,23.48-1.03,2.28-.04,4.68-.02,6.96.1,1.71.15,3.67.12,5.22.96,3.86-1.41,8.11-1.46,12.17-1.78,4.9-.24,9.88-.41,14.78-.05"/><path class="c" d="M8.62,22.57c4.68.4,9.57.64,13.91,2.55,1.23-.84,2.91-.95,4.35-1.13,1.69-.16,3.52-.24,5.22-.28,4.62-.09,9.29.06,13.91.24,4.62.19,9.29.39,13.91.6,3.17.24,6.56-.03,9.56,1.17,2.02-1.26,4.66-1.25,6.96-1.61,3.15-.34,6.39-.53,9.56-.64,9.57-.35,19.16.15,28.69.9,10.42,1.1,20.87-.39,31.3-.02,1.41.09,3.02.13,4.35.64.81,0,1.82-.48,2.61-.62,2.26-.45,4.66-.7,6.96-.92,7.79-.65,15.67-1.01,23.48-.56"/><path class="c" d="M8.62,20.38c5.28.36,10.68.88,15.65,2.65,2.92-1.35,6.41-1.03,9.56-1.22,4.62-.07,9.29.07,13.91.2,4.33.13,8.71.26,13.04.43,1.69.07,3.53.11,5.22.27,1.14.11,2.52.26,3.48.94,1.66-1.31,4.08-1.27,6.09-1.64,3.44-.42,6.97-.65,10.43-.79,9.85-.4,19.74.1,29.56.91,5.77.54,11.6.59,17.39.45,2.28-.03,4.67-.05,6.96.04,1.44.14,3.28-.1,4.35,1.06,1.26-1.41,3.49-1.27,5.22-1.64,3.15-.43,6.39-.72,9.56-.96,8.09-.55,16.25-.9,24.35-.45"/><path class="c" d="M8.62,18.24c3.17.21,6.42.53,9.56.99,2.31.42,4.9.6,6.96,1.82.83.03,1.8-.5,2.61-.61,1.68-.28,3.52-.38,5.22-.44,4.91-.15,9.87-.03,14.78.04,4.33.07,8.71.16,13.04.3,2.88.13,5.93-.02,8.69.94,2.06-1.18,4.66-1.22,6.96-1.58,3.15-.36,6.39-.58,9.56-.71,8.98-.38,18-.06,26.95.67,4.9.41,9.86.88,14.78.93,2.28.05,4.67.06,6.96.17,1.42.13,3.15,0,4.35.91.66-.62,1.74-.93,2.61-1.08,1.39-.28,2.95-.5,4.35-.68,3.44-.43,6.97-.75,10.43-1,8.96-.6,17.98-.98,26.95-.5"/><path class="c" d="M8.62,16.16c3.76.25,7.58.65,11.3,1.21,2.3.48,5.01.55,6.96,1.99,2.38-1.18,5.23-1.03,7.83-1.18,4.04-.1,8.13-.06,12.17-.05,4.33.02,8.71.05,13.04.16,2.86.19,5.97-.23,8.69.8,5.3-1.73,10.99-1.92,16.52-2.29,8.39-.42,16.84-.23,25.22.41,4.92.36,9.86.95,14.78,1.23,1.99.11,4.1.2,6.09.33,1.42.15,3.14.07,4.35.93,2.27-1.45,5.24-1.4,7.83-1.87,3.74-.47,7.55-.8,11.3-1.07,9.54-.62,19.14-.99,28.69-.5"/><path class="c" d="M8.62,14.12c4.05.28,8.16.72,12.17,1.33,2.6.53,5.6.61,7.83,2.17,1.7-1.23,4.09-.94,6.09-1.13,2.87-.11,5.82-.11,8.69-.14,7.52-.04,15.09-.2,22.61.21.47.03,1.31.24,1.74.4.48-.02,1.31-.25,1.74-.46,1.66-.46,3.51-.73,5.22-.97,6.04-.78,12.17-1.09,18.26-1.15,9.29-.11,18.59.61,27.82,1.64,2.28.24,4.67.42,6.96.61,1.7.17,3.59.21,5.22.8.47.09,1.34-.12,1.74-.38.75-.24,1.83-.47,2.61-.61,5.45-.94,11.01-1.41,16.52-1.81,9.83-.63,19.72-.96,29.56-.46"/><path class="c" d="M8.62,12.14c4.64.34,9.32.87,13.91,1.6,2.65.36,5.3,1.04,7.83,1.87,1.88-.78,4.09-.65,6.09-.78,3.16-.09,6.4-.15,9.56-.23,4.33-.11,8.71-.18,13.04-.08,2.58.1,5.28-.08,7.83.48,3.24-1.38,6.97-1.48,10.43-1.97,5.18-.54,10.44-.8,15.65-.86,9-.11,18.03.52,26.95,1.65,4.04.59,8.24.61,12.17,1.79,2.34-1.29,5.24-1.35,7.83-1.81,4.02-.54,8.12-.92,12.17-1.22,10.41-.71,20.88-1,31.3-.48"/></svg>