<?xml version="1.0" encoding="UTF-8"?><svg id="a" xmlns="http://www.w3.org/2000/svg" width="1920" height="2400" viewBox="0 0 192 240"><defs><style>.b{fill:none;stroke:#fff;stroke-miterlimit:10;stroke-width:.3px;}.c{stroke-width:0px;}</style></defs><rect class="c" x="0" width="192" height="240"/><path class="b" d="M9.41,222.51h125.79c3.51,2.24,7.25,4.31,11.2,5.65,5.29,1.76,10.83,3.03,16.37,3.71,6.59,0,13.22,0,19.82,0"/><path class="b" d="M9.41,220.34c33.6,0,67.2,0,100.8,0,6.59,0,13.22,0,19.82,0,1.28.13,2.36,1.33,3.45,1.93,1.35.88,2.9,1.83,4.31,2.6,4.26,2.38,8.99,3.96,13.78,4.82,2.84,0,5.77,0,8.62,0,7.46,0,14.94,0,22.4,0"/><path class="b" d="M9.41,218.18c32.16,0,64.33,0,96.49,0,5.15,0,10.35,0,15.51,0,1.67.06,3.52-.16,5.17.15,1.67,1.2,3.46,2.51,5.17,3.66,3.48,2.19,7.15,4.63,11.2,5.54,4,0,8.06,0,12.06,0,9.18,0,18.39,0,27.57,0"/><path class="b" d="M9.41,216.01h112.86c3.14,2.2,6.23,4.64,9.48,6.69,1.63.93,3.33,2.22,5.17,2.66,3.42,0,6.91,0,10.34,0,11.77,0,23.56,0,35.32,0"/><path class="b" d="M9.41,213.85c29.86,0,59.74,0,89.6,0,4.58,0,9.21,0,13.78,0,6.88.04,4.81-.75,10.34,3.42,2.76,2.07,5.63,4.16,8.62,5.9,5.44.08,10.93,0,16.37.03,11.48,0,22.98,0,34.46,0"/><path class="b" d="M9.41,211.68c29,0,58.01,0,87.02,0,4.58,0,9.21,0,13.78,0,1.68.06,3.51-.14,5.17.13,1.39,1.07,2.93,2.28,4.31,3.35,1.65,1.29,3.46,2.67,5.17,3.88,1.05.66,2.19,1.77,3.45,1.99,5.73,0,11.5,0,17.23,0,12.34,0,24.7,0,37.05,0"/><path class="b" d="M9.41,209.51h102.52c3.02,1.94,5.7,4.56,8.62,6.67,1.06.81,2.34,1.75,3.45,2.51.76.23,1.8.18,2.58.18,4.87,0,9.78,0,14.65,0,13.78,0,27.58,0,41.35,0"/><path class="b" d="M9.41,207.35h99.94c2.62,2,5.17,4.28,7.75,6.32,1.36,1,2.74,2.38,4.31,3.04,6.02,0,12.07,0,18.09,0,14.35,0,28.72,0,43.08,0"/><path class="b" d="M9.41,205.18h97.35c2.7,1.91,5.16,4.34,7.75,6.39,1.36.95,2.66,2.55,4.31,2.97,6.31,0,12.65,0,18.95,0,14.93,0,29.87,0,44.8,0"/><path class="b" d="M9.41,203.02c26.71,0,53.42,0,80.12,0,4.87,0,9.78,0,14.65,0,1.32.36,2.38,1.73,3.45,2.53,1.95,1.69,4.02,3.49,6.03,5.11.72.57,1.67,1.46,2.58,1.71,2.26,0,4.63,0,6.89,0,5.15,0,10.35,0,15.51,0,14.64,0,29.3,0,43.94,0"/><path class="b" d="M9.41,200.85h93.05c3.83,2.94,7.31,6.45,11.2,9.34,22.97.05,45.95,0,68.92.02"/><path class="b" d="M9.41,200.01c1.69-.38,3.47-.98,5.17-1.33,2.85,0,5.77,0,8.62,0,6.59,0,13.22,0,19.82,0,19.24,0,38.49-.02,57.72.01,3.71,3.09,7.23,6.58,11.2,9.34h70.65"/><path class="b" d="M9.41,199.92c3.78-.88,7.56-2.04,11.2-3.4,8.61,0,17.24,0,25.85,0,17.51,0,35.04-.01,52.55,0,3.68,3.14,7.3,6.47,11.2,9.34,24.12.02,48.25,0,72.37,0"/><path class="b" d="M9.41,199.81c3.48-.8,6.99-1.83,10.34-3.07,2.02-.65,3.99-1.83,6.03-2.38,6.31,0,12.65,0,18.95,0,17.51,0,35.04,0,52.55,0,2.68,1.96,5.13,4.4,7.75,6.44,1.35.96,2.69,2.44,4.31,2.91,6.88,0,13.8,0,20.68,0,7.17,0,14.37,0,21.54,0,4.58-.07,9.23.22,13.78-.29,3.71-.28,7.51-.21,11.2.28,1.97.02,4.06,0,6.03,0"/><path class="b" d="M9.41,199.62c6.57-1.51,13.09-3.68,18.95-7.04,1.25-.71,2.92-.28,4.31-.39,1.97,0,4.06,0,6.03,0,10.33,0,20.68,0,31.02,0,6.02,0,12.07,0,18.09,0,2.55,0,5.2,0,7.75,0,1.31.39,2.37,1.73,3.45,2.53,1.93,1.64,4,3.35,6.03,4.87,1.05.66,2.15,1.89,3.45,1.96,4.87,0,9.78,0,14.65,0,10.62,0,21.26,0,31.88,0,1.4.1,2.93-.28,4.31-.52,1.67-.28,3.49-.51,5.17-.67,6.02-.55,12.2-.35,18.09,1.09"/><path class="b" d="M9.41,199.29c7.9-1.75,15.79-4.47,22.4-9.23,20.96-.08,41.93,0,62.89-.03,2.86,2.26,5.66,4.75,8.62,6.87,1.34.84,2.71,2.21,4.31,2.48,6.59,0,13.22,0,19.82,0,8.32,0,16.67,0,24.98,0,9.88-1.92,20.19-3.23,30.15-1.06"/><path class="b" d="M9.41,197.22c1.39,0,2.92,0,4.31,0,.8,0,1.83.07,2.58-.25,5.16-1.5,10.23-3.61,14.65-6.71,1.12-.7,2.2-1.9,3.45-2.39,2.56,0,5.2,0,7.75,0,14.07,0,28.15,0,42.22,0,3.13.11,6.38-.23,9.48.16,1.67,1.37,3.47,2.84,5.17,4.16,2.43,1.83,4.97,3.78,7.75,5.03,3.42,0,6.92,0,10.34,0,10.62,0,21.26,0,31.88,0,11.03-1.94,22.45-3.82,33.6-1.73"/><path class="b" d="M9.41,195.05c3.42,0,6.91,0,10.34,0,5.04-1.35,9.82-3.99,13.78-7.38.78-.61,1.59-1.7,2.58-1.97,1.97,0,4.06,0,6.03,0,10.33,0,20.68,0,31.02,0,5.73,0,11.5,0,17.23,0,.78,0,1.84-.07,2.58.24.43.35,1.29,1.03,1.72,1.38,1.36,1.08,2.9,2.28,4.31,3.3,2.41,1.69,4.97,3.46,7.75,4.45,2.55,0,5.2,0,7.75,0,10.33,0,20.68,0,31.02,0,5.95-1.2,12.05-1.85,18.09-2.39,6.29-.53,12.71-.84,18.95.24"/><path class="b" d="M9.41,192.88c3.13,0,6.34,0,9.48,0,1.67-.08,3.53.2,5.17-.19,5.07-1.88,9.25-5.29,12.92-9.16,12.63,0,25.28,0,37.91,0,3.71,0,7.49,0,11.2,0,1.97.09,4.1-.21,6.03.18,3.03,2.37,6.14,4.8,9.48,6.72,1.87,1,3.91,2.16,6.03,2.46,1.68,0,3.49,0,5.17,0,4,0,8.06,0,12.06,0,5.15,0,10.35.01,15.51,0,2.24-.5,4.61-.88,6.89-1.14,5.71-.64,11.5-.94,17.23-1.36,6.01-.39,12.12-.76,18.09.15"/><path class="b" d="M9.41,190.72c4.87,0,9.78,0,14.65,0,.78,0,1.83.06,2.58-.19,1.12-.53,2.41-1.25,3.45-1.93,3.03-1.85,5.33-4.72,7.75-7.23h53.42c5.19,3.92,10.64,8.18,17.23,9.25,2.25.23,4.63.05,6.89.1,4.58,0,9.21,0,13.78,0,3.48.18,6.95-.43,10.34-1.17,7.1-1.22,14.37-.82,21.54-1.15,7.16-.23,14.4-1.02,21.54-.07"/><path class="b" d="M9.41,188.55c5.73,0,11.5,0,17.23,0,2.71.38,6.82-3.78,8.62-5.71,3.64-4.41,2.01-3.6,7.75-3.65,4.29,0,8.63,0,12.92,0,7.46,0,14.94,0,22.4,0,2.55,0,5.2,0,7.75,0,1.66.13,3.61-.33,5.17.32,4.7,3.43,9.67,7.05,15.51,8.15,6.56,1.28,13.25.44,19.82-.33,2.26-.23,4.64-.12,6.89-.39,3.13-.42,6.3-1.15,9.48-1.19,6.31-.2,12.64.55,18.95.46,6.88,0,13.82-.77,20.68.05"/><path class="b" d="M9.41,186.39h19.82c3.97-2.15,6.54-6.07,9.48-9.35,12.06,0,24.13,0,36.18,0,3.42,0,6.91,0,10.34,0,1.08,0,2.36,0,3.45,0,.84-.02,1.9-.11,2.58.48,2.99,2.11,6.12,4.22,9.48,5.72,5.35,2.47,11.48,2.44,17.23,1.87,2.86-.31,5.77-.87,8.62-1.24,1.96-.28,4.06-.26,6.03-.48,2.27-.24,4.61-.8,6.89-.91,3.14-.21,6.36.02,9.48.37,5.14.6,10.33,1.25,15.51,1.27,6.02.09,12.1-.47,18.09.21"/><path class="b" d="M9.41,184.22c6.59,0,13.22,0,19.82,0,2.7-.29,7.52-7.01,9.48-9.19,1.65-.34,3.49-.09,5.17-.16,2.56,0,5.2,0,7.75,0,7.74,0,15.52,0,23.26,0,3.42,0,6.91,0,10.34,0,1.08,0,2.36,0,3.45,0,.83-.02,1.9-.11,2.58.47,2.99,2.02,6.13,4.01,9.48,5.4,5.4,2.36,11.51,2.11,17.23,1.33,2.86-.41,5.77-1.09,8.62-1.58,1.96-.36,4.06-.42,6.03-.69,4.82-.97,9.8-1.16,14.65-.26,5.71.96,11.43,2.23,17.23,2.45,6.01.32,12.1-.21,18.09.44"/><path class="b" d="M9.41,182.06c6.88-.09,13.81.18,20.68-.1,2.5-2.02,4.77-4.51,6.89-6.92,2.14-2.55,1.89-2.39,5.17-2.33,4,0,8.06,0,12.06,0,6.02,0,12.07,0,18.09,0,4,0,8.06,0,12.06,0,1.38,0,2.93,0,4.31,0,1.18-.09,2.52.03,3.45.84,3.49,2.21,7.2,4.31,11.2,5.45,5.9,1.7,12.2.73,18.09-.55,3.4-.82,6.86-1.63,10.34-2.01,2.82-.5,5.73-1.11,8.62-.97,4.98.13,9.82,1.64,14.65,2.74,4.22,1,8.59,1.63,12.92,1.8,4.86.22,9.8,0,14.65.56"/><path class="b" d="M9.41,179.89c6.59,0,13.22,0,19.82,0,2.96-1.8,5.34-4.64,7.75-7.09.77-.71,1.53-1.95,2.58-2.26,1.38,0,2.92,0,4.31,0,3.14,0,6.34,0,9.48,0,12.34,0,24.7,0,37.05,0,.91-.04,1.83.72,2.58,1.13,1.36.79,2.9,1.63,4.31,2.32,3.75,1.83,7.87,3.1,12.06,3.24,5.87.13,11.61-1.56,17.23-3.04,2.83-.67,5.78-1.16,8.62-1.79,8.31-1.57,16.19,2.4,24.12,4.17,7.61,1.91,15.53,1.31,23.26,2.2"/><path class="b" d="M9.41,177.73c4.29,0,8.63,0,12.92,0,1.39,0,2.92,0,4.31,0,1.3.08,2.47.02,3.45-.95,2.11-1.61,4.15-3.55,6.03-5.42,1.09-.93,2.08-2.46,3.45-2.98,5.44,0,10.93,0,16.37,0,10.04,0,20.11,0,30.15,0,1.68.01,3.49-.03,5.17.03.76.43,1.81,1,2.58,1.41,5.53,2.95,11.75,5.09,18.09,4.73,5-.32,9.86-1.84,14.65-3.24,3.12-.79,6.32-1.64,9.48-2.3,8.43-1.41,16.19,3.21,24.12,5.24,7.28,2.11,14.95,1.81,22.4,2.81"/><path class="b" d="M9.41,175.56c4.29,0,8.63,0,12.92,0,6.41-.04,5.3.75,10.34-3.43,1.41-1.22,2.93-2.65,4.31-3.91.77-.64,1.6-1.7,2.58-2.01,5.73,0,11.5,0,17.23,0,9.47,0,18.96,0,28.43,0,1.97.02,4.06-.06,6.03.05.76.39,1.81.92,2.58,1.29,6.12,2.94,12.97,4.98,19.82,4.25,7.38-.89,14.31-4.01,21.54-5.58,3.13,0,6.34,0,9.48,0,5.36,1.11,10.29,3.85,15.51,5.45,7.21,2.52,14.93,2.56,22.4,3.73"/><path class="b" d="M9.41,173.4h18.09c2.78-1.64,5.33-3.82,7.75-5.94,1.39-1.08,2.71-2.65,4.31-3.42,2.27,0,4.63,0,6.89,0,7.74,0,15.52,0,23.26,0,4.58,0,9.21,0,13.78,0,2.55.09,5.23-.21,7.75.16,3.31,1.55,6.8,2.91,10.34,3.85,12.09,3.39,19.71-.51,31.02-3.93,3.42-.18,6.92-.02,10.34-.07,1.68,0,3.49,0,5.17,0,.77.27,1.83.68,2.58.99,5.08,2.15,10.13,4.6,15.51,5.94,3.09.8,6.32,1.31,9.48,1.74,2.26.29,4.6.8,6.89.68"/><path class="b" d="M9.41,171.23c5.44,0,10.93,0,16.37,0,2,.19,3.61-1.57,5.17-2.57,2.91-2.15,5.61-4.77,8.62-6.78,16.65,0,33.32,0,49.97,0,.85-.14,1.82.4,2.58.7,1.37.55,2.91,1.11,4.31,1.57,3.9,1.28,7.97,2.29,12.06,2.6,7.47.78,14.57-2.04,21.54-4.31,1.34-.61,2.86-.6,4.31-.56,1.68,0,3.49,0,5.17,0,2.26,0,4.63,0,6.89,0,1.38.05,2.95-.15,4.31.17,2.29.99,4.63,2.16,6.89,3.22,5.18,2.5,10.71,4.34,16.37,5.36,2.8.73,5.75.63,8.62.61"/><path class="b" d="M9.41,169.07c5.44,0,10.93,0,16.37,0,.88.15,1.89-.41,2.58-.9,1.12-.72,2.39-1.66,3.45-2.46,2.54-1.99,5.21-4.01,7.75-5.99,16.36-.01,32.74,0,49.11,0,.83-.12,1.82.34,2.58.6,1.37.48,2.91.99,4.31,1.4,4.47,1.33,9.11,2.38,13.78,2.62,7.49.58,14.58-2.23,21.54-4.59,3.71-.08,7.49,0,11.2-.03,3.13,0,6.34,0,9.48,0,2.1.58,4.06,1.94,6.03,2.85,5.43,2.88,11.22,5.15,17.23,6.49,2.55.04,5.2,0,7.75.02"/><path class="b" d="M9.41,166.9c5.73,0,11.5,0,17.23,0,1.86-.76,3.53-2.23,5.17-3.37,2.25-1.7,4.6-3.46,6.89-5.09.92-.96,2.22-.95,3.45-.9,1.38,0,2.92,0,4.31,0,4.58,0,9.21,0,13.78,0,9.46.1,18.98-.19,28.43.11,9.94,3.03,20.65,5.82,31.02,3.36,3.8-.85,7.44-2.5,11.2-3.47,6.88,0,13.8,0,20.68,0,1.91-.27,3.55,1.13,5.17,1.93,2.24,1.24,4.59,2.54,6.89,3.67,3.03,1.48,6.25,2.74,9.48,3.72,3.13.07,6.34,0,9.48.03"/><path class="b" d="M9.41,164.74c4.87,0,9.78,0,14.65,0,.77,0,1.82,0,2.58,0,1.9-.61,3.51-2.21,5.17-3.29,2.8-2.06,5.69-4.18,8.62-6.07,14.93,0,29.87,0,44.8,0,1.12-.09,2.38.3,3.45.59,1.67.43,3.48.86,5.17,1.24,5.37,1.18,10.86,2.22,16.37,2.37,6.86.37,13.46-1.82,19.82-4.12,5.15-.2,10.36-.02,15.51-.08,2.84.08,5.79-.18,8.62.13,2.59,1.42,5.19,3.04,7.75,4.49,3.3,1.78,6.7,3.76,10.34,4.74,3.42,0,6.92,0,10.34,0"/><path class="b" d="M9.41,162.57c5.73,0,11.5,0,17.23,0,.57.03,1.31-.35,1.72-.7,1.1-.74,2.37-1.66,3.45-2.43,2.5-1.86,5.17-3.65,7.75-5.38.94-.89,2.24-.89,3.45-.84,1.68,0,3.49,0,5.17,0,4.58,0,9.21,0,13.78,0,4.87,0,9.78,0,14.65,0,2.84.12,5.83-.33,8.62.35,5.41,1.15,10.9,2.13,16.37,2.9,6.55.9,13.37,1.27,19.82-.5,2-.53,4.08-1.21,6.03-1.89,1.07-.32,2.31-.98,3.45-.87,7.46,0,14.94,0,22.4,0,.86-.16,1.88.44,2.58.89,1.39.84,2.93,1.81,4.31,2.67,3.31,2.08,6.76,4.11,10.34,5.7,3.99.23,8.06.02,12.06.09"/><path class="b" d="M9.41,160.4c5.73,0,11.5,0,17.23,0,.93.19,1.88-.57,2.58-1.07,1.09-.76,2.37-1.69,3.45-2.46,2.77-2.03,5.77-3.89,8.62-5.81,12.34-.03,24.7,0,37.05,0,3.44.23,6.9,1.13,10.34,1.49,7.43.94,14.89,2.21,22.4,2.29,3.46.01,6.99-.33,10.34-1.22,2.9-.66,5.72-1.97,8.62-2.57,6.02,0,12.07,0,18.09,0,1.38,0,2.93,0,4.31,0,.79,0,1.87-.09,2.58.34,4.89,2.95,9.52,6.45,14.65,8.99,4.29.05,8.63,0,12.92.02"/><path class="b" d="M9.41,158.24c6.02,0,12.07,0,18.09,0,.94-.06,1.84-.92,2.58-1.41,1.38-.99,2.91-2.1,4.31-3.08,2.53-1.63,5.05-3.55,7.75-4.86,6.31,0,12.65,0,18.95,0,2.85,0,5.77,0,8.62,0,1.68.03,3.51-.13,5.17.25,7.11,1.23,14.37,1.56,21.54,2.27,8.86.83,18.05,2.02,26.71-.69,1.99-.54,4.03-1.33,6.03-1.83,1.68,0,3.49,0,5.17,0,5.15,0,10.35,0,15.51,0,1.38,0,2.93,0,4.31,0,1.44.76,2.96,1.79,4.31,2.69,3.37,2.28,6.74,4.74,10.34,6.66,4.58,0,9.21,0,13.78,0"/><path class="b" d="M9.41,156.07c4.29,0,8.63,0,12.92,0,1.39,0,2.92,0,4.31,0,.85.02,1.9.11,2.58-.48,3.08-2.23,6.23-4.54,9.48-6.52,1.38-.75,2.73-2.1,4.31-2.35,5.44,0,10.93,0,16.37,0,3.13,0,6.34,0,9.48,0,2.53.58,5.17,1.1,7.75,1.39,5.71.67,11.5.54,17.23.87,8.02.36,16.13,1.6,24.12.37,3.51-.49,6.89-1.85,10.34-2.63,8.03,0,16.09,0,24.12,0,.83-.11,1.92.24,2.58.75,1.1.68,2.39,1.53,3.45,2.27,3.11,2.13,6.17,4.51,9.48,6.33,4.87,0,9.78,0,14.65,0"/><path class="b" d="M9.41,153.91c6.59-.09,13.24.19,19.82-.11,4.42-3.3,9.03-6.43,13.78-9.22,4.87-.05,9.78,0,14.65-.02,2.85,0,5.77-.01,8.62,0,2.79.83,5.72,1.5,8.62,1.84,5.71.69,11.5.12,17.23.2,7.46,0,14.94,1.01,22.4.46,2.9-.21,5.83-.8,8.62-1.61,1.07-.29,2.36-.66,3.45-.89,1.08,0,2.37,0,3.45,0,7.46,0,14.94,0,22.4,0,.48-.02,1.35.31,1.72.62,1.1.66,2.39,1.51,3.45,2.24,3.14,2.13,6.18,4.61,9.48,6.49,5.15,0,10.35,0,15.51,0"/><path class="b" d="M9.41,151.74c6.59,0,13.22,0,19.82,0,1.88-.74,3.46-2.41,5.17-3.47,3.07-2.03,6.15-4.29,9.48-5.88,4,0,8.06,0,12.06,0,2.85,0,5.77,0,8.62,0,2.85.59,5.69,1.67,8.62,1.98,5.43.81,10.93.03,16.37-.23,8.03-.49,16.1.6,24.12.1,3.49-.18,6.95-1.04,10.34-1.85,3.13,0,6.34,0,9.48,0,4.29,0,8.63,0,12.92,0,1.67,0,3.49,0,5.17,0,.9-.09,1.85.66,2.58,1.09,2.64,1.65,5.22,3.58,7.75,5.39,1.35.95,2.86,2.07,4.31,2.87.4,0,1.32,0,1.72,0,4.87,0,9.78,0,14.65,0"/><path class="b" d="M9.41,149.58h20.68c4.51-3.11,8.95-6.48,13.78-9.1,1.04-.41,2.35-.21,3.45-.25,1.39,0,2.92,0,4.31,0,4.29,0,8.63,0,12.92,0,2.3.34,4.57,1.34,6.89,1.64,3.1.56,6.34.61,9.48.33,4.57-.45,9.18-1.07,13.79-1.11,5.16-.1,10.35.29,15.51.19,3.46.03,6.93-.65,10.34-1.05,5.44,0,10.93,0,16.37,0,4.86.05,9.79-.1,14.65.06,4.54,2.54,8.59,5.94,12.92,8.8.63.59,1.78.51,2.58.49,1.38,0,2.93,0,4.31,0,3.71,0,7.49,0,11.2,0"/><path class="b" d="M9.41,147.41c7.17-.04,14.37.09,21.54-.05,3.04-2.32,6.25-4.57,9.48-6.62,1.35-.86,2.88-1.78,4.31-2.5.77-.23,1.8-.18,2.58-.18,6.31,0,12.65,0,18.95,0,1.71.06,3.46.82,5.17,1.01,2.82.47,5.78.49,8.62.2,3.14-.32,6.33-.91,9.48-1.18,5.44-.09,10.93,0,16.37-.03,11.48,0,22.98,0,34.46,0,3.42.05,6.92-.12,10.34.08,3.3,1.86,6.41,4.21,9.48,6.42.75.55,1.82,1.29,2.58,1.82.68.48,1.69,1.23,2.58,1.04,5.73,0,11.5,0,17.23,0"/><path class="b" d="M9.41,145.25c5.15,0,10.35,0,15.51,0,2.26-.1,4.67.23,6.89-.18,1.37-1.03,2.9-2.18,4.31-3.16,2.22-1.53,4.56-3.12,6.89-4.48.76-.43,1.79-.99,2.58-1.37.77-.21,1.8-.16,2.58-.16,32.16,0,64.33,0,96.49,0,1.07,0,2.37,0,3.45,0,.82-.06,1.93.04,2.58.61,4.49,2.6,8.38,6.28,12.92,8.75,6.31,0,12.65,0,18.95,0"/><path class="b" d="M9.41,143.08c5.44,0,10.93,0,16.37,0,8.53.03,5.25.57,12.06-4.02,1.93-1.32,3.98-2.69,6.03-3.82,1.31-.65,2.77-1.67,4.31-1.51,32.16,0,64.33,0,96.49,0,4.51-.05,3.93-.29,7.75,2.36,2,1.38,4.06,2.92,6.03,4.34,1.36.87,2.74,2.21,4.31,2.66,6.59,0,13.22,0,19.82,0"/><path class="b" d="M9.41,140.92c5.44,0,10.93,0,16.37,0,2.27,0,4.63,0,6.89,0,1.85-.81,3.45-2.43,5.17-3.48,2.9-1.88,8.64-6.13,12.06-5.87,31.59,0,63.18,0,94.77,0,1.08.03,2.39-.1,3.45.15.41.28,1.31.85,1.72,1.14,2.31,1.57,4.64,3.33,6.89,4.98,1.35.99,2.9,2.07,4.31,2.98,2.25.24,4.63.05,6.89.11,4.87,0,9.78,0,14.65,0"/><path class="b" d="M9.41,138.75c5.44,0,10.93,0,16.37,0,2.56,0,5.2,0,7.75,0,1.49-.76,2.9-2.02,4.31-2.92,3.85-2.55,9.09-6.15,13.78-6.44,30.73,0,61.46,0,92.19,0,1.08.04,2.4-.13,3.45.2,2.31,1.59,4.65,3.36,6.89,5.05,1.94,1.37,3.89,3.05,6.03,4.1,1.97,0,4.06,0,6.03,0,5.44,0,10.93,0,16.37,0"/><path class="b" d="M9.41,136.59h24.98c6.68-4.71,13.11-8.86,21.54-9.28,11.76-.21,23.56,0,35.32-.08,16.65,0,33.32,0,49.97,0,1.67.12,3.59-.31,5.17.3.77.57,1.83,1.37,2.58,1.95,3.09,2.38,6.21,4.88,9.48,7.02,8.02.21,16.09.01,24.12.08"/><path class="b" d="M9.41,134.42c7.46,0,14.94,0,22.4,0,1.4-.1,3.19.38,4.31-.67,2.19-1.47,4.53-2.94,6.89-4.12,6.48-3.45,13.58-3.21,20.68-3.51,2.59-.08,5.2-.73,7.75-1.05,7.74,0,15.52,0,23.26,0,16.08,0,32.17,0,48.25,0,.41,0,1.31,0,1.72,0,1.22.59,2.38,1.74,3.45,2.56,2.23,1.81,4.56,3.7,6.89,5.38.39.3,1.31.91,1.72,1.2.73.28,1.82.22,2.58.22,1.97,0,4.06,0,6.03,0,5.73,0,11.5,0,17.23,0"/><path class="b" d="M9.41,132.26c8.61,0,17.24,0,25.85,0,1.2-.32,2.36-1.28,3.45-1.85,2.16-1.24,4.51-2.39,6.89-3.15,6.39-2.17,13.23-1.01,19.82-1.68,2.61-.27,5.27-.86,7.75-1.69.78-.26,1.82-.64,2.58-.94,1.08-.05,2.37-.03,3.45-.03,21.54,0,43.08,0,64.62,0,2.54,2.16,5.14,4.43,7.75,6.5,1.35.94,2.7,2.38,4.31,2.85,8.89,0,17.81,0,26.71,0"/><path class="b" d="M9.41,130.09c8.61,0,17.24,0,25.85,0,.54.06,1.3-.24,1.72-.55.77-.42,1.8-.95,2.58-1.33,2.17-1.03,4.54-1.87,6.89-2.32,6.54-1.3,13.25.43,19.82-.48,3.25-.42,6.47-1.44,9.48-2.73.78-.33,1.82-.8,2.58-1.16.76-.34,1.72-.95,2.58-.79,3.42,0,6.91,0,10.34,0,11.19,0,22.41,0,33.6,0,3.71,0,7.49,0,11.2,0,1.38,0,2.93,0,4.31,0,.79,0,1.87-.09,2.58.33,2.51,2.27,5.11,4.63,7.75,6.75,1.28.89,2.6,2.5,4.31,2.27,9.18,0,18.39,0,27.57,0"/><path class="b" d="M9.41,127.92c6.02,0,12.07,0,18.09,0,2.84-.03,5.77.07,8.62-.05,1.63-.79,3.43-1.55,5.17-2.08,7.89-2.65,16.09.66,24.12-.13,4.54-.42,8.87-2.18,12.92-4.2,1.98-.93,3.99-2.11,6.03-2.9,1.08,0,2.37,0,3.45,0,17.8,0,35.61,0,53.42,0,2.52,2.35,5.09,4.83,7.75,7.02,1.27.91,2.58,2.57,4.31,2.34,9.76,0,19.54,0,29.29,0"/><path class="b" d="M9.41,125.76c6.59,0,13.22,0,19.82,0,1.97,0,4.06,0,6.03,0,1.94-.7,3.99-1.43,6.03-1.77,3.7-.67,7.54-.22,11.2.51,3.39.69,6.85,1.46,10.34,1.26,1.99.02,4.1.09,6.03-.47,3.61-.86,7.05-2.51,10.34-4.2,2.88-1.49,5.87-2.95,8.62-4.68,17.23,0,34.47,0,51.69,0,2.74,2.05,5.05,4.84,7.75,6.97,1.27.93,2.57,2.62,4.31,2.38,10.33,0,20.68,0,31.02,0"/><path class="b" d="M9.41,123.59c7.74,0,15.52,0,23.26,0,1.14.07,2.35-.6,3.45-.83,1.93-.51,4.03-.8,6.03-.77,3.22-.05,6.35,1.04,9.48,1.6,3.71,0,7.49,0,11.2,0,3.71-.02,7.49.04,11.2-.03,2.32-1,4.65-2.22,6.89-3.38,3.27-1.6,6.44-3.56,9.48-5.57.39-.25,1.26-.47,1.72-.38,1.08,0,2.37,0,3.45,0,3.13,0,6.34,0,9.48,0,10.91,0,21.83,0,32.74,0,1.29.67,2.37,2.07,3.45,3.02,1.35,1.29,2.89,2.71,4.31,3.93,1.27.93,2.56,2.64,4.31,2.41,10.91,0,21.83,0,32.74,0"/><path class="b" d="M9.41,121.43c6.59,0,13.22,0,19.82,0,1.16.1,2.33-.73,3.45-.96,1.93-.54,4.03-.87,6.03-.85,2,.01,4.1.37,6.03.9,1.09.26,2.32.85,3.45.91,5.15,0,10.35,0,15.51,0,4.29,0,8.63,0,12.92,0,2.15.17,4.11-1.51,6.03-2.32,2.64-1.38,5.25-3.05,7.75-4.66,1.38-.74,2.73-2.16,4.31-2.38,2.84,0,5.77,0,8.62,0,10.91,0,21.83,0,32.74,0,2.66,2.17,5.08,4.8,7.75,6.96,1.05.8,2.17,1.99,3.45,2.39.77,0,1.82,0,2.58,0,10.91,0,21.83,0,32.74,0"/><path class="b" d="M9.41,119.26c5.44,0,10.93,0,16.37,0,.87.11,1.89-.24,2.58-.75,1.04-.59,2.3-1.19,3.45-1.54,3.08-.86,6.45-.5,9.48.4,1.74.46,3.45,1.4,5.17,1.89,3.42,0,6.91,0,10.34,0,8.03,0,16.09,0,24.12,0,1.81-.48,3.52-1.67,5.17-2.53,2.88-1.65,5.76-3.47,8.62-5.16.76-.45,1.81-1.07,2.58-1.5.76-.2,1.81-.15,2.58-.15,2.55,0,5.2,0,7.75,0,6.88,0,13.8,0,20.68,0,1.68,0,3.49,0,5.17,0,.95.25,1.85,1.25,2.58,1.87,1.95,1.72,4,3.55,6.03,5.18,1.28.88,2.61,2.52,4.31,2.31,12.06,0,24.13,0,36.18,0"/><path class="b" d="M9.41,117.1h15.51c6.48-4.68,8.7-5.77,16.37-2.34,1.11.52,2.38,1.2,3.45,1.8.7.57,1.74.58,2.58.54,4.58,0,9.21,0,13.78,0,5.15,0,10.35,0,15.51,0,1.97,0,4.06,0,6.03,0,1.2.16,2.41-.66,3.45-1.17,5.15-2.67,10.21-5.66,15.51-8.03,3.39-.38,6.92-.05,10.34-.16,6.31,0,12.65,0,18.95,0,3,1.95,5.73,4.45,8.62,6.57,1.35.93,2.75,2.23,4.31,2.78,3.42,0,6.91,0,10.34,0,5.44,0,10.93,0,16.37,0,2.55,0,5.2,0,7.75,0,1.37-.37,2.92-.74,4.31-1.03"/><path class="b" d="M9.41,114.93c4.29,0,8.63,0,12.92,0,.99.15,1.99-.31,2.58-1.09,1.03-.98,2.3-2.11,3.45-2.95,1.71-1.24,3.86-2.35,6.03-2.05,4.17.94,7.7,3.71,11.2,6.02,13.2.18,26.43,0,39.63.06,6.65-2.55,12.99-6.08,19.82-8.23,1.37-.41,2.88-1,4.31-1.13,2.55,0,5.2,0,7.75,0,1.97,0,4.06,0,6.03,0,1.77-.02,3.6-.16,5.17.83,4.79,2.37,8.93,6.41,13.78,8.52,3.42,0,6.92,0,10.34,0,6.88,0,13.8,0,20.68,0,3.1-.9,6.29-1.81,9.48-2.38"/><path class="b" d="M9.41,112.77c4,0,8.06,0,12.06,0,1.07.22,1.99-.64,2.58-1.41.46-.47,1.26-1.39,1.72-1.84,1.72-1.73,3.67-3.58,6.03-4.38,2.52-.9,4.91.68,6.89,2.07,2.34,1.65,4.62,3.58,6.89,5.33,1.05.37,2.36.19,3.45.23,1.68,0,3.49,0,5.17,0,4.87,0,9.78,0,14.65,0,5.73,0,11.5,0,17.23,0,3.16-.67,6.35-2.19,9.48-3.13,7.24-2.42,14.71-4.7,22.4-4.8,7-.17,11.37,2.01,17.23,5.45,1.66.83,3.35,2.06,5.17,2.48,1.38,0,2.93,0,4.31,0,7.74,0,15.52,0,23.26,0,4.82-1.45,9.63-3.22,14.65-3.91"/><path class="b" d="M9.41,110.6h12.06c1.42-.7,2.35-2.51,3.45-3.61,1.52-1.73,3.22-3.57,5.17-4.81,1.26-.88,2.82-1.03,4.31-.93,1.67.32,3.05,1.69,4.31,2.73,2,1.75,4.02,3.7,6.03,5.44,1.37,1.47,2.5,1.19,4.31,1.19,2.26,0,4.63,0,6.89,0,10.04,0,20.11,0,30.15,0,6.88-1.39,13.71-3.36,20.68-4.4,7.09-1.09,14.59-1.82,21.54.36,2.31.82,4.64,1.88,6.89,2.85,1.07.4,2.26,1.28,3.45,1.2,8.32,0,16.67,0,24.99,0,6.17-2.28,12.36-4.82,18.95-5.59"/><path class="b" d="M9.41,108.44h11.2c1.38-.89,2.36-2.69,3.45-3.89,1.53-1.87,3.24-3.87,5.17-5.33,1.07-.21,2.37-.1,3.45-.13,1.38.04,2.94-.11,4.31.12,3.2,2.98,5.98,6.58,9.48,9.24,12.34,0,24.7,0,37.05,0,7.72-1.11,15.49-2.13,23.26-2.77,7.71-.53,15.71-1.27,23.26.76,1.71.53,3.51,1.25,5.17,1.93,2.54.2,5.2.03,7.75.09,5.44,0,10.93,0,16.37,0,1.18.14,2.39-.67,3.45-1.08,1.96-.88,4.04-1.8,6.03-2.61,4.4-1.79,9.06-3.1,13.78-3.63"/><path class="b" d="M9.41,106.27h10.34c1.76-1.98,3.41-4.34,5.17-6.33,1.01-1,2.01-2.65,3.45-3.02,1.97,0,4.06,0,6.03,0,1.08.04,2.4-.13,3.45.2,2.75,3.1,5.3,6.62,8.62,9.16,9.76,0,19.54,0,29.29,0,1.4.05,2.92-.39,4.31-.54,1.96-.27,4.05-.48,6.03-.61,6.87-.43,13.8-.33,20.68-.43,6.59-.01,13.23-.28,19.82.07,2.04.14,4.13.73,6.03,1.47,4.58.1,9.21,0,13.78.04,2.55,0,5.2,0,7.75,0,1.38-.09,3.01.26,4.31-.3,7.64-3.86,15.44-7.99,24.12-8.68"/><path class="b" d="M9.41,104.11c2.84,0,5.77,0,8.62,0,1.5-.58,2.36-2.51,3.45-3.63,1.59-1.93,3.28-4.07,5.17-5.73h11.2c2.66,3.22,5.13,6.84,8.62,9.26,7.73.26,15.52.02,23.26.09,9.02-2.51,18.34-2.35,27.57-1.45,8.87.83,17.8,1.11,26.71.94,2.28-.06,4.63.45,6.89.51,7.74,0,15.52,0,23.26,0,.77,0,1.85.06,2.58-.22.76-.41,1.83-.98,2.58-1.41,1.67-.94,3.48-1.97,5.17-2.88,3.81-1.98,7.8-4.08,12.06-4.84,1.97,0,4.06,0,6.03,0"/><path class="b" d="M9.41,101.94c2.55-.05,5.21.11,7.75-.08,2.82-3.05,5.25-6.8,8.62-9.27,4,.07,8.08-.16,12.06.1,2.66,2.97,5.16,6.34,8.62,8.44,1.23.98,2.84.83,4.31.81,4.29,0,8.63,0,12.92,0,4.84-1.06,9.67-2.54,14.65-2.88,9.27-.85,18.42,1.47,27.57,2.54,3.98.57,8.06.26,12.06.33,10.62,0,21.26,0,31.88,0,6.23-.03,4.9.63,10.34-2.79,2.51-1.55,5.13-3.16,7.75-4.51,1.64-.72,3.36-1.92,5.17-2.05,3.13,0,6.34,0,9.48,0"/><path class="b" d="M9.41,99.78c1.97,0,4.06.02,6.03-.01,3.12-3.08,5.84-6.86,9.48-9.34h12.92c1.28.8,2.4,2.23,3.45,3.29,1.75,1.78,3.79,3.48,6.03,4.59,2.11,1.06,4.53,1.62,6.89,1.47,2.9.16,5.81-.42,8.62-1.1,4.81-1.16,9.69-2.43,14.65-2.74,9.06-.71,17.9,1.91,26.71,3.61,3.38.51,6.92.11,10.34.23,5.73,0,11.5,0,17.23,0,7.17,0,14.37,0,21.54,0,.41,0,1.31,0,1.72,0,1.43-.8,2.94-1.84,4.31-2.74,3.34-2.22,6.74-4.51,10.34-6.3,1.58-.63,3.5-.19,5.17-.31,2.55,0,5.2,0,7.75,0"/><path class="b" d="M9.41,97.61c4.39.02,3.71.41,6.89-2.66,2.45-2.29,4.94-4.74,7.75-6.58,4.85-.3,9.78-.02,14.65-.11,1.27.69,2.38,2.02,3.45,2.98,1.52,1.38,3.31,2.71,5.17,3.59,5.13,2.52,11.03,1.45,16.37.26,4.52-1,9.14-1.99,13.78-2.14,9.16-.48,17.9,2.72,26.71,4.67,11.19,0,22.41,0,33.6,0,3.71,0,7.49,0,11.2,0,1.38,0,2.93,0,4.31,0,.84.06,1.95-.03,2.58-.68,4.25-2.92,8.39-6.14,12.92-8.63,4.57-.13,9.21-.01,13.78-.05"/><path class="b" d="M9.41,95.44c1.33.23,2.48-.76,3.45-1.52,1.68-1.28,3.47-2.7,5.17-3.97,1.59-1.18,3.38-2.37,5.17-3.24.97-.68,2.32-.67,3.45-.63,4.57.09,9.23-.18,13.78.11,9.83,9.8,17.2,6.61,29.29,4.61,5.98-.98,12.17-.87,18.09.44,4.95,1.05,9.8,2.67,14.65,4.09,4.28.25,8.64.02,12.92.1,13.2-.08,26.44.16,39.63-.09,4.27-3.09,8.4-6.51,12.92-9.23,4.86-.09,9.78,0,14.65-.04"/><path class="b" d="M9.41,91.93c4.53-2.66,9.19-5.21,13.78-7.77,1.05-.39,2.35-.19,3.45-.23,1.38,0,2.92,0,4.31,0,2.26,0,4.63,0,6.89,0,1.38.07,2.97-.19,4.31.21,1.55,1.38,3.31,2.78,5.17,3.72,6.46,3.36,13.88,1.34,20.68.37,10.07-1.72,18.91-.09,28.43,3.25,1.68.56,3.49,1.18,5.17,1.74,2.84.16,5.77.02,8.62.07,14.93,0,29.87,0,44.8,0,2.91-2.11,5.71-4.53,8.62-6.64,1.35-.9,2.75-2.2,4.31-2.71,4.87,0,9.78,0,14.65,0"/><path class="b" d="M9.41,87.71c4.19-1.51,8.23-3.52,12.06-5.78,2.23-.37,4.63-.07,6.89-.17,4.29,0,8.63,0,12.92,0,2.35-.18,2.59.35,4.31,1.66,3.22,2.33,7.25,3.38,11.2,3.29,4.61-.07,9.2-1.06,13.78-1.46,9.86-1.17,19.32,1.72,28.43,5.17,1.64.81,3.39.73,5.17.7,2.55,0,5.2,0,7.75,0,7.46,0,14.94,0,22.4,0,6.88,0,13.8,0,20.68,0,1.58-.73,2.92-2.23,4.31-3.26,2.48-2.03,5.09-4.1,7.75-5.88,1.92-.46,4.07-.11,6.03-.21,3.13,0,6.34,0,9.48,0"/><path class="b" d="M9.41,83.71c3.27-1.03,6.45-2.51,9.48-4.09,8.03-.05,16.09,0,24.12-.02.45,0,1.28,0,1.72,0,1.42.76,2.81,1.95,4.31,2.59,4.55,2.18,9.77,1.83,14.65,1.25,12.69-1.81,19.94-.75,31.88,3.77,1.38.51,2.93,1.09,4.31,1.61,2.53.32,5.2.05,7.75.14,12.63,0,25.28,0,37.91,0,3.13,0,6.34,0,9.48,0,.54-.02,1.37-.56,1.72-.96.75-.65,1.83-1.54,2.58-2.19,2.47-2.09,5.08-4.2,7.75-6.03,1.93-.39,4.07-.09,6.03-.18,3.13,0,6.34,0,9.48,0"/><path class="b" d="M9.41,79.19c1.71-.48,3.52-1.12,5.17-1.76,3.42,0,6.91,0,10.34,0,7.17.06,14.38-.13,21.54.07,7.67,6.19,17.81,2.71,26.71,2.69,5.27-.11,10.52.98,15.51,2.61,3.77,1.15,7.47,2.72,11.2,3.98,6.02,0,12.07,0,18.09,0,12.63-.05,25.28.1,37.91-.05,2.53-2.2,5.12-4.51,7.75-6.59.76-.6,1.8-1.39,2.58-1.95.38-.35,1.19-.77,1.72-.75,4.87,0,9.78,0,14.65,0"/><path class="b" d="M9.41,75.26c12.06,0,24.13,0,36.18,0,.44,0,1.28,0,1.72,0,1.39.7,2.82,1.71,4.31,2.22,6.94,2.55,14.39.19,21.54.35,6.22-.07,12.27,1.78,18.09,3.8,1.68.59,3.5,1.25,5.17,1.88,1.35.47,2.83,1.26,4.31,1.11,18.38,0,36.76,0,55.14,0,3.65-3.15,7.23-6.54,11.2-9.29,5.15-.16,10.35-.01,15.51-.06"/><path class="b" d="M9.41,73.1c12.34,0,24.7,0,37.05,0,.8,0,1.85-.08,2.58.29,1.29.84,2.84,1.57,4.31,2.01,7.04,2,14.38-.43,21.54.16,5.94.34,11.64,2.44,17.23,4.32,1.68.59,3.49,1.24,5.17,1.85,1.04.41,2.3.86,3.45.74,18.38,0,36.76,0,55.14,0,2.55-2.27,5.11-4.69,7.75-6.85,1.05-.82,2.25-1.9,3.45-2.5.77,0,1.82,0,2.58,0,4.29,0,8.63,0,12.92,0"/><path class="b" d="M9.41,70.93c12.63,0,25.28,0,37.91,0,.79,0,1.83-.06,2.58.22,1.29.81,2.84,1.51,4.31,1.92,6.49,1.73,13.23-.34,19.82.11,6.55.36,12.76,2.9,18.95,4.87,1.38.47,2.93,1,4.31,1.47,1.05.36,2.31.88,3.45.76,11.77,0,23.56,0,35.32,0,4.29,0,8.63,0,12.92,0,2.26-.08,4.66.18,6.89-.14,2.52-2.35,5.11-4.8,7.75-7.01.75-.63,1.8-1.46,2.58-2.06.76-.19,1.81-.14,2.58-.14,4.58,0,9.21,0,13.78,0"/><path class="b" d="M9.41,68.77c13.2,0,26.43,0,39.63,0,1.87-.2,3.41,1.35,5.17,1.75,3.04.96,6.33.93,9.48.71,5.15-.42,10.44-.89,15.51.42,4.62,1.25,9.22,2.77,13.78,4.23,1.68.54,3.49,1.12,5.17,1.65,1.05.38,2.32.7,3.45.6,17.51,0,35.04,0,52.55,0,.97.21,1.98-.63,2.58-1.3,1.07-1.03,2.36-2.25,3.45-3.26,1.05-.99,2.35-2.14,3.45-3.08.7-.58,1.65-1.54,2.58-1.72,5.44,0,10.93,0,16.37,0"/><path class="b" d="M9.41,66.6c13.2,0,26.43,0,39.63,0,1.13-.04,2.48-.06,3.45.64,1.31.64,2.87,1.13,4.31,1.38,5.71.93,11.5-.66,17.23-.11,3.85.26,7.53,1.67,11.2,2.76,5.14,1.57,10.32,3.2,15.51,4.61,10.61.2,21.26,0,31.88.07,4.87,0,9.78,0,14.65,0,2.55-.1,5.24.23,7.75-.17,1.97-1.9,4.03-3.95,6.03-5.81,1.36-1.08,2.62-2.83,4.31-3.37,5.73,0,11.5,0,17.23,0"/><path class="b" d="M9.41,64.44c13.49,0,27,0,40.49,0,.78,0,1.83-.05,2.58.17.43.22,1.27.61,1.72.78,1.34.5,2.89.85,4.31.99,4.87.46,9.78-.65,14.65-.28,4.17.21,8.1,1.87,12.06,3.01,5.41,1.62,10.88,3.19,16.37,4.5,2.51.44,5.21.08,7.75.19,4.29,0,8.63,0,12.92,0,10.62-.04,21.26.08,31.88-.05,3.12-3.05,6.2-6.27,9.48-9.15,2.23-.35,4.63-.07,6.89-.16,4,0,8.06,0,12.06,0"/><path class="b" d="M9.41,62.27c13.49,0,27,0,40.49,0,1.08.03,2.38-.1,3.45.15,1.59.76,3.42,1.27,5.17,1.47,4.29.48,8.63-.38,12.92-.25,4.49-.04,8.69,1.76,12.92,3.01,5.39,1.6,10.88,3.03,16.37,4.22,1.08.23,2.37.51,3.45.73,1.68.05,3.49.01,5.17.02,4,0,8.06,0,12.06,0,10.61-.09,21.27.18,31.88-.1,3.17-3.02,6.07-6.5,9.48-9.25h19.82"/><path class="b" d="M9.41,60.11c14.07,0,28.15,0,42.22,0,.78,0,1.82-.03,2.58.1.44.18,1.27.49,1.72.63,1.35.4,2.9.63,4.31.71,4.29.19,8.64-.63,12.92-.17,4.46.45,8.59,2.51,12.92,3.56,6.79,1.9,13.74,3.3,20.68,4.53,9.76,0,19.54,0,29.29,0,3.42,0,6.92,0,10.34,0,1.07,0,2.37,0,3.45,0,.79,0,1.88.09,2.58-.34,2-2,4.06-4.18,6.03-6.21,1.05-.88,2.02-2.59,3.45-2.8,6.88,0,13.8,0,20.68,0"/><path class="b" d="M9.41,57.94c14.35,0,28.72,0,43.08,0,.77,0,1.81-.01,2.58.03,1.05.4,2.34.73,3.45.9,2.83.42,5.77.17,8.62.03,2.85-.15,5.83-.1,8.62.59,2.31.59,4.6,1.57,6.89,2.22,4.79,1.44,9.73,2.55,14.65,3.48,3.99.76,8.07,1.38,12.06,2.11,4,.01,8.06,0,12.06,0,9.76,0,19.54,0,29.29,0,2.1-1.89,4.07-4.14,6.03-6.17,1.06-1.01,2.12-2.51,3.45-3.18h22.4"/><path class="b" d="M9.41,55.78c14.35,0,28.72,0,43.08,0,1.7.01,3.53-.14,5.17.41,1.94.42,4.05.48,6.03.42,11.7-.74,11.19.73,21.54,3.57,6.22,1.62,12.61,2.66,18.95,3.64,2.86.33,5.75,1.18,8.62,1.3,12.06,0,24.13,0,36.19,0,1.3-.72,2.4-2.15,3.45-3.17,2-1.99,3.86-4.38,6.03-6.18h24.12"/><path class="b" d="M9.41,53.61c10.62,0,21.26,0,31.88,0,4.87,0,9.78,0,14.65,0,1.7-.09,3.47.49,5.17.52,6.89.13,11.38-.84,18.09,2.02,11.13,3.83,23.01,4.39,34.46,6.81,11.19,0,22.41,0,33.6,0,3.61-2.52,6.2-6.43,9.48-9.35h25.85"/><path class="b" d="M9.41,52.41c.79-.27,1.8-.7,2.58-.96,1.97,0,4.06,0,6.03,0,4.58,0,9.21,0,13.78,0,8.61,0,17.24,0,25.85,0,1.69-.04,3.48.32,5.17.29,2.26.02,4.63-.11,6.89,0,3.27.05,6.45,1.06,9.48,2.21,2.51.83,5.17,1.52,7.75,2.07,8.82,1.92,17.89,2.5,26.71,4.43,1.64.51,3.48.34,5.17.36,2.26,0,4.63,0,6.89,0,6.59,0,13.22,0,19.82,0,3.43-2.78,6.25-6.36,9.48-9.35h27.57"/><path class="b" d="M9.41,52.2c1.76-.81,3.52-1.92,5.17-2.92,15.5,0,31.02,0,46.52,0,4,.17,8.11-.21,12.06.56,2.04.37,4.06,1.25,6.03,1.87,2.23.71,4.6,1.31,6.89,1.79,7.96,1.67,16.12,2.3,24.12,3.74,2.28.35,4.61,1.06,6.89,1.4,4.87,0,9.78,0,14.65,0,3.71,0,7.49,0,11.2,0,2.27-1.27,4.16-3.39,6.03-5.17,1.4-1.31,2.72-3.1,4.31-4.18h29.29"/><path class="b" d="M9.41,51.78c1.45-.84,2.98-1.91,4.31-2.93.78-.55,1.65-1.46,2.58-1.74,6.02,0,12.07,0,18.09,0,6.59,0,13.22,0,19.82,0,3.71,0,7.49,0,11.2,0,1.68.03,3.5-.08,5.17.09,2.34.21,4.7.9,6.89,1.73,9.45,3.16,19.51,3.7,29.29,5.21,4.04.54,8.07,1.54,12.06,2.32,3.71,0,7.49,0,11.2,0,3.13,0,6.34,0,9.48,0,.49.02,1.35-.32,1.72-.63,1.14-.73,2.42-1.71,3.45-2.58,8.85-7.77,3.25-5.93,15.51-6.14,7.46,0,14.94,0,22.4,0"/><path class="b" d="M9.41,51.05c1.78-1.21,3.57-2.7,5.17-4.14.77-.63,1.58-1.7,2.58-1.96,2.27,0,4.63,0,6.89,0,8.03,0,16.09,0,24.12,0,4.87,0,9.78,0,14.65,0,2.84.08,5.79-.17,8.62.14,3.24.46,6.3,1.9,9.48,2.61,4.23,1.05,8.6,1.69,12.92,2.25,6.9.87,13.85,1.6,20.68,2.95,2.27.44,4.63.94,6.89,1.38,3.71.06,7.49,0,11.2.02,6.71.48,11.79-5.21,16.37-9.35h33.6"/><path class="b" d="M9.41,49.91c2.8-2.07,5.28-4.69,7.75-7.12,17.51,0,35.04,0,52.55,0,2.65-.04,5.25,1,7.75,1.74,2.23.65,4.6,1.18,6.89,1.59,8.55,1.49,17.26,2.04,25.85,3.35,8.94,1.27,17.98,3.77,26.71.11,2.5-.99,4.81-2.62,6.89-4.3.78-.64,1.84-1.54,2.58-2.21.71-.36,1.81-.28,2.58-.28,11.19,0,22.41,0,33.6,0"/><path class="b" d="M9.41,48.44c2.74-2.34,5.36-5.01,7.75-7.7,6.29-.31,12.65-.02,18.95-.12,11.19,0,22.41,0,33.6,0,2.34-.03,4.67.82,6.89,1.45,1.95.55,4.04,1.01,6.03,1.37,7.4,1.3,14.94,1.8,22.4,2.65,9.41.87,19.16,3.24,28.43.31,2.39-.66,4.81-1.62,6.89-2.98.78-.5,1.84-1.23,2.58-1.79.62-.59,1.7-1.17,2.58-1.01,12.34,0,24.7,0,37.05,0"/><path class="b" d="M9.41,47.33c2.73-2.72,5.26-5.81,7.75-8.75,6.28-.33,12.65-.02,18.95-.12,11.19,0,22.41,0,33.6,0,3.8.19,7.43,1.82,11.2,2.33,6.25,1.09,12.64,1.53,18.95,2.1,9.72.65,19.65,2.49,29.29.33,2.89-.7,5.9-1.42,8.62-2.65,1.71-.65,3.23-2.33,5.17-2.1,13.2,0,26.43,0,39.63,0"/><path class="b" d="M9.41,45.64l.86-.11c2.4-2.8,4.68-5.92,6.89-8.87,1.26-.7,2.92-.27,4.31-.38,2.27,0,4.63,0,6.89,0,6.31,0,12.65,0,18.95,0,6.88,0,13.8,0,20.68,0,3.52-.18,6.91,1.14,10.34,1.72,6.81,1.24,13.78,1.6,20.68,2.08,6.58.39,13.22.95,19.82.57,5.28-.25,10.42-1.73,15.51-3.03,1.72-.32,3.38-1.49,5.17-1.34,14.35,0,28.72,0,43.08,0"/><path class="b" d="M9.41,43.48h1.72c2.62-2.78,4.41-6.45,6.89-9.35,16.94,0,33.89,0,50.83,0,3.18.25,6.33,1.17,9.48,1.61,3.98.6,8.05.91,12.06,1.16,8.88.44,17.83,1.1,26.71.31,3.18-.31,6.39-.93,9.48-1.72,2.53-.59,5.12-1.54,7.75-1.36,16.08,0,32.17,0,48.25,0"/><path class="b" d="M9.41,41.31h2.58c1.83-1.51,2.93-4.1,4.31-6.01.72-1.02,1.45-2.71,2.58-3.35,16.36.07,32.75-.14,49.11.08,2.87.19,5.77.81,8.62,1.22,3.12.43,6.33.68,9.48.85,8.6.39,17.25.74,25.85.16,4.35-.31,8.7-1.11,12.92-2.2,2.25-.23,4.63-.05,6.89-.1,16.94,0,33.89,0,50.83,0"/><path class="b" d="M9.41,39.15h3.45c1.21-.5,1.86-2.28,2.58-3.28,1.08-1.76,2.36-3.86,3.45-5.61,1.15-.82,2.95-.34,4.31-.46,1.97,0,4.06,0,6.03,0,6.02,0,12.07,0,18.09,0,6.31.08,12.66-.2,18.95.2,5.46.28,10.89,1.36,16.37,1.51,8.02.32,16.1.44,24.12.02,4.33-.24,8.69-.81,12.92-1.72,5.15,0,10.35,0,15.51,0,15.79,0,31.59,0,47.38,0"/><path class="b" d="M9.41,36.98c1.67-.13,3.59.32,5.17-.31,1.41-2.28,2.92-4.86,4.31-7.15,1.14-2.37,2.05-1.86,4.31-1.89,3.14,0,6.34,0,9.48,0,5.73,0,11.5,0,17.23,0,3.72.05,7.5-.18,11.2.27,2.84.21,5.77.25,8.62.45,2.56.19,5.19.51,7.75.63,6.59.33,13.22.28,19.82.14,4.01-.1,8.07-.29,12.06-.71,2.85-.29,5.74-.94,8.62-.77,21.54,0,43.08,0,64.62,0"/><path class="b" d="M9.41,34.82c1.97,0,4.06.01,6.03-.01,1.09-1.79,2.37-3.95,3.45-5.75.71-1.1,1.49-2.81,2.58-3.59,10.33,0,20.68,0,31.02,0,1.41-.07,2.93.11,4.31.39,1.67.25,3.48.39,5.17.46,7.17.1,14.36.7,21.54.58,6.6-.07,13.23-.2,19.82-.62,3.72-.16,7.47-.92,11.2-.81,22.68,0,45.38,0,68.06,0"/><path class="b" d="M9.41,32.65h6.89c2.29-2.79,3.9-6.36,6.03-9.29,9.17-.18,18.39,0,27.57-.07,1.13-.1,2.36.42,3.45.64,1.37.31,2.91.53,4.31.66,5.72.4,11.5.1,17.23.27,8.9-.06,17.82-.38,26.71-.81,4.3-.15,8.62-.87,12.92-.76,22.68,0,45.38,0,68.06,0"/><path class="b" d="M9.41,30.49c1.68,0,3.49,0,5.17,0,1.1-.06,2.47.23,3.45-.38,1.9-2.98,3.78-6.25,6.03-8.97,7.46,0,14.94,0,22.4,0,.84-.01,1.81.48,2.58.73,1.36.45,2.9.83,4.31,1.07,4.25.72,8.63.52,12.92.36,12.92-.33,25.85-.89,38.77-1.38,5.16-.15,10.34-.86,15.51-.79,3.13,0,6.34,0,9.48,0,1.96.3,4.05.77,6.03.3,1.92-.52,4.06-.23,6.03-.3,3.42,0,6.92,0,10.34,0,10.04,0,20.11,0,30.15,0"/><path class="b" d="M9.41,28.32h9.48c2.49-2.75,4.25-6.35,6.89-9.01,1.28-.64,2.92-.24,4.31-.35,4.29,0,8.63,0,12.92,0,2.94,1.53,6.19,2.6,9.48,3.04,5.13.71,10.36.16,15.51-.16,7.17-.38,14.36-.88,21.54-1.11,6.88-.23,13.8-.22,20.68-.33,5.16-.05,10.35-.37,15.51-.37,1.38.01,2.94.1,4.31.31,1.95.43,4.1.63,6.03,0,1.13-.3,2.32-1.06,3.45-1.37,1.07,0,2.37,0,3.45,0,3.42,0,6.92,0,10.34,0,9.76,0,19.54,0,29.29,0"/><path class="b" d="M9.41,26.15h11.2c2.67-3.17,4.98-6.97,8.62-9.16,1.64-.39,3.49-.11,5.17-.19,1.08,0,2.36,0,3.45,0,1.12.38,2.37,1,3.45,1.48,2.71,1.29,5.64,2.35,8.62,2.81,6.57,1.06,13.25-.1,19.82-.62,7.44-.63,14.93-1.19,22.4-1.22,7.46-.07,14.94.39,22.4.47,4.29.07,8.63-.21,12.92-.35,5.62.05,6.89,1.01,12.06-2.55,14.35-.04,28.72,0,43.08-.01"/><path class="b" d="M9.41,23.99h12.92c1.28-.89,2.3-2.49,3.45-3.55,2.07-2.06,4.73-3.97,7.75-4.04,2.41-.08,4.7,1.06,6.89,1.91,2.46,1.04,5.1,1.89,7.75,2.27,6.88,1.06,13.84-.33,20.68-1.09,11.71-1.44,23.56-1.69,35.32-.66,7.74.68,15.6.95,23.26-.58,1.66-.28,3.49-.38,5.17-.45,2.52-.31,4.84-1.75,6.89-3.17h43.08"/><path class="b" d="M9.41,21.82c5.15-.02,10.35.03,15.51-.02,9.05-9.27,13.23-1.8,23.26-1.19,5.77.46,11.55-.56,17.23-1.44,9.95-1.59,20.09-2.38,30.15-1.64,9.45.59,19.14,2.59,28.43-.18,1.97-.5,4.04-1.11,6.03-1.51,1.37-.3,2.97-.36,4.31-.82,1.14-.39,2.42-1.04,3.45-1.68.66-.51,1.72-1.02,2.58-.87,14.07,0,28.15,0,42.22,0"/><path class="b" d="M9.41,19.66c5.73,0,11.5,0,17.23,0,.86.09,1.88-.19,2.58-.67,1.03-.51,2.3-.92,3.45-1.04,2.67-.33,5.26.77,7.75,1.56,1.65.33,3.49.09,5.17.16,3.14,0,6.34,0,9.48,0,2.28,0,4.66.13,6.89-.42,7.1-1.35,14.3-2.54,21.54-2.78,6.32-.26,12.67.26,18.95.86,6.93.79,14.05.6,20.68-1.77,2.27-.74,4.58-1.73,6.89-2.34,1.36-.39,2.96-.48,4.31-.93,1.47-.44,2.88-1.44,4.31-1.97.76,0,1.82,0,2.58,0,13.78,0,27.58,0,41.35,0"/><path class="b" d="M9.41,17.49c18.66,0,37.34,0,56,0,1.08,0,2.36,0,3.45,0,1.38-.25,2.92-.53,4.31-.74,2.83-.44,5.76-.78,8.62-.97,7.17-.54,14.38.11,21.54.46,7.99.45,15.12-1.1,22.4-4.33,2.46-1.05,5.1-1.88,7.75-2.27,1.46-.27,2.86-1.28,4.31-1.51,4.58,0,9.21,0,13.78,0,10.33,0,20.68,0,31.02,0"/></svg>