<?xml version="1.0" encoding="UTF-8"?><svg id="a" xmlns="http://www.w3.org/2000/svg" width="1920" height="2400" viewBox="0 0 192 240"><defs><style>.b{fill:none;stroke:#fff;stroke-miterlimit:10;stroke-width:.3px;}.c{stroke-width:0px;}</style></defs><rect class="c" width="192" height="240"/><path class="b" d="M9.41,231.86c11.19,0,22.41,0,33.6,0,4.87,0,9.78,0,14.65,0,3.32-1.5,6.39-4.05,9.48-6.02,5.58-3.73,3.61-3.39,10.34-3.33,4.58,0,9.21,0,13.78,0,30.44,0,60.89,0,91.32,0"/><path class="b" d="M9.41,229.7c11.48,0,22.98,0,34.46,0,5.15,0,10.35,0,15.51,0,3.58-1.59,7-3.68,10.34-5.71,1.39-.85,2.93-1.82,4.31-2.68.42-.28,1.26-.77,1.72-.96.44,0,1.29,0,1.72,0,5.73,0,11.5,0,17.23,0,20.67,0,41.36,0,62.03,0,3.74-.18,7.48.4,11.2.64,4.86.29,9.79.11,14.65-.28"/><path class="b" d="M9.41,227.53c11.77,0,23.56,0,35.32,0,5.44-.05,10.93.1,16.37-.06,4.17-1.48,8.21-3.46,12.06-5.62,1.39-.78,2.93-1.67,4.31-2.48.75-.42,1.69-1.15,2.58-1.19,5.73,0,11.5,0,17.23,0,18.95,0,37.91,0,56.86,0,1.7-.08,3.51.08,5.17.48,1.96.36,4.05.68,6.03.9,5.7.66,11.51.62,17.23.17"/><path class="b" d="M9.41,225.36c12.34,0,24.7,0,37.05,0,5.15,0,10.35,0,15.51,0,4.78-1.05,9.42-2.83,13.78-5.03,2.61-1.31,5.23-2.8,7.75-4.26,5.44-.15,10.93-.01,16.37-.06,17.51,0,35.04,0,52.55,0,1.73-.16,3.51.39,5.17.79,2.24.52,4.61,1,6.89,1.34,5.97.93,12.08,1.02,18.09.57"/><path class="b" d="M9.41,223.2c12.34,0,24.7,0,37.05,0,4.86-.05,9.79.11,14.65-.07,4.99-.39,9.98-1.43,14.65-3.27,3.88-1.51,7.61-3.51,11.2-5.6.7-.51,1.77-.42,2.58-.41,1.08,0,2.37,0,3.45,0,3.71,0,7.49,0,11.2,0,15.79,0,31.59,0,47.38,0,1.75-.14,3.5.68,5.17,1.09,2.24.62,4.61,1.19,6.89,1.62,6.22,1.21,12.64,1.47,18.95,1.03"/><path class="b" d="M9.41,221.03c11.77,0,23.56,0,35.32,0,3.4-.49,6.88-.96,10.34-.87,10.66.25,19.47.35,29.29-4.58,1.72-.83,3.52-1.81,5.17-2.77.75-.41,1.67-1.19,2.58-1.12,6.31,0,12.65,0,18.95,0,13.49,0,27,0,40.49,0,1.45-.05,2.92.82,4.31,1.16,2.52.8,5.17,1.53,7.75,2.09,6.2,1.36,12.63,1.73,18.95,1.33"/><path class="b" d="M9.41,218.87c10.33,0,20.68,0,31.02,0,.5.07,1.28-.09,1.72-.31,1.07-.38,2.34-.76,3.45-1.01,2.51-.58,5.18-.84,7.75-.88,11.05.03,21.19,2.41,31.88-2.1,2.35-.94,4.71-2.15,6.89-3.42,1.09-.51,2.19-1.71,3.45-1.63,7.74,0,15.52,0,23.26,0,10.91,0,21.83,0,32.74,0,1.46-.01,2.92.91,4.31,1.29,2.52.88,5.16,1.68,7.75,2.29,6.18,1.49,12.61,1.94,18.95,1.58"/><path class="b" d="M9.41,216.7c9.76,0,19.54,0,29.29,0,1.48-.13,2.89-1.18,4.31-1.58,2.47-.89,5.14-1.49,7.75-1.77,10.06-1.11,20.1,2.21,30.15.85,3.89-.51,7.71-1.77,11.2-3.55,1.1-.56,2.39-1.28,3.45-1.93,1.01-.62,2.18-1.57,3.45-1.37,6.31,0,12.65,0,18.95,0,11.19,0,22.41,0,33.6,0,1.79-.11,3.5,1.04,5.17,1.53,2.23.81,4.6,1.55,6.89,2.14,6.16,1.59,12.61,2.09,18.95,1.74"/><path class="b" d="M9.41,214.54c6.59,0,13.22,0,19.82,0,1.97,0,4.06,0,6.03,0,.78,0,1.81,0,2.58,0,.85-.15,1.82-.78,2.58-1.15,12.6-6.39,23.93-3.01,37.05-1.85,8.14.74,15.72-1.44,22.4-6.11,1.32-.47,2.93-.17,4.31-.25,2.55,0,5.2,0,7.75,0,11.48,0,22.98,0,34.46,0,2.26,0,4.63,0,6.89,0,1.13.23,2.37.86,3.45,1.24,8.19,3.23,17.07,4.6,25.85,4.04"/><path class="b" d="M9.41,212.37c9.47-.04,18.96.07,28.43-.04,3.48-2.11,7.27-3.86,11.2-4.93,5.87-1.63,12.08-1.66,18.09-.91,13.51,1.77,23.07,5.16,35.32-3.47,16.94,0,33.89,0,50.83,0,1.58-.21,2.89.5,4.31,1.06,2.22.84,4.59,1.61,6.89,2.19,5.88,1.51,12.04,1.9,18.09,1.52"/><path class="b" d="M9.41,210.21c9.18,0,18.39,0,27.57,0,.93.07,1.82-.73,2.58-1.14,1.64-.96,3.44-1.91,5.17-2.7,4.07-1.86,8.47-3.15,12.92-3.65,6.03-.71,12.15,0,18.09,1.08,5.67.98,11.45,2.4,17.23,1.66,2.68-.34,5.36-1.23,7.75-2.47,1.12-.58,2.4-1.36,3.45-2.06.42-.05,1.3-.09,1.72-.07,13.49,0,27,0,40.49,0,3.42,0,6.92,0,10.34,0,1.94.74,4.03,1.5,6.03,2.06,6.4,1.88,13.18,2.32,19.82,1.82"/><path class="b" d="M9.41,208.04c9.47,0,18.96,0,28.43,0,4.37-2.67,8.9-5.26,13.78-6.87,6.33-2.19,13.17-2.75,19.82-2.03,12.28,1.06,23.06,7.52,34.46-.43,16.94-.04,33.89,0,50.83-.01.76,0,1.82,0,2.58.02.42.15,1.3.44,1.72.58,1.94.61,4.03,1.15,6.03,1.52,5.09.96,10.36.99,15.51.53"/><path class="b" d="M9.41,205.88c9.47,0,18.96,0,28.43,0,.55.01,1.32-.38,1.72-.71.77-.5,1.8-1.16,2.58-1.63,2.75-1.65,5.66-3.22,8.62-4.48,2.48-1.04,5.12-1.99,7.75-2.53,5.15,0,10.35,0,15.51,0,2.26.07,4.65-.16,6.89.13,6.51,1.25,13.11,4.05,19.82,2.71,2.45-.44,4.7-1.73,6.89-2.83,6.31,0,12.65,0,18.95,0,11.48,0,22.98,0,34.46,0,1.42-.13,2.94.26,4.31.59,1.36.29,2.92.53,4.31.69,4.28.49,8.65.31,12.92-.14"/><path class="b" d="M9.41,203.71c9.76,0,19.54,0,29.29,0,1.56-.37,2.91-1.75,4.31-2.5,2.21-1.4,4.56-2.77,6.89-3.95,2.2-1.11,4.55-2.14,6.89-2.91.77,0,1.81,0,2.58,0,5.15,0,10.35,0,15.51,0,2.85,0,5.77,0,8.62,0,1.67.09,3.55-.25,5.17.26,5.53,1.6,11.63,3.58,17.23,1.21,1.12-.38,2.27-1.29,3.45-1.47,2.55,0,5.2,0,7.75,0,5.44,0,10.93,0,16.37,0,16.37-.02,32.74.03,49.11,0"/><path class="b" d="M9.41,201.55c9.18,0,18.39,0,27.57,0,3.49.15,3.29-.16,6.03-2.02,1.94-1.3,4.01-2.63,6.03-3.8,1.64-.94,3.45-1.89,5.17-2.67,1.04-.51,2.27-1.01,3.45-.87,5.73,0,11.5,0,17.23,0,5.73,0,11.5,0,17.23,0,1.74.06,3.47,1,5.17,1.35,2.49.67,5.19,1.07,7.75.63,1.78-.3,3.61-1.03,5.17-1.94,1.38-.09,2.93-.03,4.31-.05,6.59,0,13.22,0,19.82,0,16.08,0,32.17,0,48.25,0"/><path class="b" d="M9.41,199.38c9.18,0,18.39,0,27.57,0,1.38-.08,2.98.21,4.31-.24,2.81-1.97,5.69-4,8.62-5.79,1.91-1.17,4.01-2.28,6.03-3.25,1.67-.14,3.49-.04,5.17-.07,4.87,0,9.78,0,14.65,0,6.59,0,13.22,0,19.82,0,1.45,0,2.91.85,4.31,1.17,2.2.64,4.61,1.04,6.89.72,1.79-.24,3.61-1,5.17-1.89.76,0,1.82,0,2.58,0,6.88,0,13.8,0,20.68,0,15.79,0,31.59,0,47.38,0"/><path class="b" d="M9.41,197.22c9.18,0,18.39,0,27.57,0,1.67-.12,3.59.31,5.17-.3,2.81-2.02,5.7-4.09,8.62-5.95,6-3.66,4.32-3.11,11.2-3.11,4.87,0,9.78,0,14.65,0,6.88,0,13.8,0,20.68,0,1.46-.11,2.92.79,4.31,1.14,2.19.69,4.59,1.2,6.89.88,1.12-.15,2.42-.56,3.45-1.04.44-.21,1.31-.69,1.72-.94.42-.03,1.3-.05,1.72-.04,7.17,0,14.37,0,21.54,0,15.22,0,30.45,0,45.66,0"/><path class="b" d="M9.41,195.05h32.74c3.18-2.1,6.22-4.55,9.48-6.54,1.08-.68,2.36-1.48,3.45-2.15.4-.34,1.21-.65,1.72-.66,11.19,0,22.41,0,33.6,0,2.85,0,5.77,0,8.62,0,4.02,1.63,8.58,3.45,12.92,1.99,1.16-.39,2.44-1.08,3.45-1.76.74-.3,1.8-.23,2.58-.23,1.38,0,2.93,0,4.31,0,5.15,0,10.35,0,15.51,0,14.93,0,29.87,0,44.8,0"/><path class="b" d="M9.41,192.88c10.33,0,20.68,0,31.02,0,.44,0,1.29,0,1.72,0,1.23-.45,2.37-1.57,3.45-2.29,2.21-1.63,4.57-3.27,6.89-4.74,1.08-.69,2.36-1.5,3.45-2.17,1.94-.33,4.06-.08,6.03-.15,4,0,8.06,0,12.06,0,8.03,0,16.09,0,24.12,0,.88-.17,1.83.52,2.58.88,1.05.52,2.34,1.08,3.45,1.47,5.34,1.84,9.31.97,13.78-2.35h64.62"/><path class="b" d="M9.41,190.72h32.74c3.22-2.06,6.2-4.65,9.48-6.65.77-.5,1.81-1.17,2.58-1.66.75-.44,1.65-1.23,2.58-1.04,10.33,0,20.68,0,31.02,0,2.26,0,4.63,0,6.89,0,1.74.05,3.74-.36,5.17.89,7.05,4.64,13.39,5.31,19.82-.82,20.95-.21,41.93,0,62.89-.07"/><path class="b" d="M9.41,188.55c10.62,0,21.26,0,31.88,0,1.9-.72,3.47-2.46,5.17-3.56,2.74-2.05,5.71-3.95,8.62-5.76,9.76-.07,19.54,0,29.29-.03,4.29,0,8.63,0,12.92,0,2.39,1.25,4.47,3.26,6.89,4.48,3.41,2.02,7.67,2.58,11.2.52,1.5-.81,3.03-1.95,4.31-3.07.76-.61,1.54-1.83,2.58-1.93,6.31,0,12.65,0,18.95,0,13.78,0,27.58,0,41.35,0"/><path class="b" d="M9.41,186.39h31.02c3.5-2.33,6.75-5.19,10.34-7.41,3.27-2.23,3.02-1.99,6.89-1.95,12.92,0,25.85,0,38.77,0,11.22,9.39,15.99,13.01,26.71.27,1.03-.44,2.36-.22,3.45-.27,1.38,0,2.93,0,4.31,0,4.29,0,8.63,0,12.92,0,12.92,0,25.85,0,38.77,0"/><path class="b" d="M9.41,184.22h29.29c3.23-2.16,6.25-4.76,9.48-6.93,1.36-.79,2.73-2.15,4.31-2.42,10.04,0,20.11,0,30.15,0,2.84,0,5.77,0,8.62,0,1.08,0,2.37,0,3.45,0,.57.04,1.37.63,1.72,1.06,3.03,2.79,6,5.84,9.48,8.08,1.33.41,2.93.15,4.31.22,1.97,0,4.06,0,6.03,0,3.59-2.26,6.03-6.08,8.62-9.35h57.72"/><path class="b" d="M9.41,182.06c8.32,0,16.67,0,24.98,0,.44,0,1.29,0,1.72,0,.83-.42,1.83-1.19,2.58-1.73,1.98-1.45,4.05-3.02,6.03-4.47,1.35-.99,2.89-2.07,4.31-2.96,2.22-.42,4.64-.08,6.89-.19,12.63,0,25.28,0,37.91,0,3.18,3.05,6.18,6.43,9.48,9.35,3.42,0,6.91,0,10.34,0,1.96-.11,4.12.26,6.03-.22,1.52-1.76,3.02-3.89,4.31-5.83.73-1,1.48-2.65,2.58-3.3h56"/><path class="b" d="M9.41,179.89h24.12c2.21-1.75,4.61-3.46,6.89-5.12,1.97-1.38,3.92-3.06,6.03-4.23,3.42,0,6.91,0,10.34,0,11.77,0,23.56,0,35.32,0,2.17,1.84,4.07,4.22,6.03,6.28,1.07.96,1.99,2.71,3.45,3.08,6.59,0,13.22,0,19.82,0,2.28-2.85,3.78-6.49,6.03-9.35h55.14"/><path class="b" d="M9.41,177.73c7.17-.04,14.37.08,21.54-.05,3.46-3.16,7.42-5.83,11.2-8.59.65-.68,1.7-.79,2.58-.72.77,0,1.82,0,2.58,0,3.13,0,6.34,0,9.48,0,11.19,0,22.41,0,33.6,0,3.16,2.76,5.67,6.37,8.62,9.35h23.26c1.28-.52,1.86-2.49,2.58-3.55,1.06-1.82,2.15-4.12,3.45-5.8h54.28"/><path class="b" d="M9.41,175.56c6.3-.08,12.66.17,18.95-.1,3.46-3.29,7.23-6.35,11.2-9,1.61-.52,3.5-.15,5.17-.26,3.13,0,6.34,0,9.48,0,11.48,0,22.98,0,34.46,0,1.81,1.74,3.52,3.87,5.17,5.76,1.08,1.12,2.05,2.85,3.45,3.59h25.85c.77-.23,1.41-1.45,1.72-2.1,1.38-2.31,2.54-5.2,4.31-7.25h53.42"/><path class="b" d="M9.41,173.4c5.44-.08,10.94.16,16.37-.09,2.21-2.13,4.54-4.32,6.89-6.28,1.34-.99,2.69-2.48,4.31-2.98,4.87,0,9.78,0,14.65,0,7.46,0,14.94,0,22.4,0,2.55,0,5.2,0,7.75,0,1.67.07,3.52-.18,5.17.17,2.66,2.9,5.24,6.05,7.75,9.07,9.74.31,19.54.01,29.29.11,1.7-2.1,2.87-4.96,4.31-7.25.3-.61,1.07-1.82,1.72-2.1h52.55"/><path class="b" d="M9.41,171.23c4.58-.04,9.21.08,13.78-.05,3.33-3.17,6.6-6.61,10.34-9.3h50.83c2.01,1.43,3.51,3.78,5.17,5.59,1.08,1.18,2.1,2.87,3.45,3.76h31.02c1.26-.54,1.85-2.49,2.58-3.55,1.04-1.79,2.31-3.92,3.45-5.65,2.23-.36,4.63-.07,6.89-.16,4,0,8.06,0,12.06,0,11.19,0,22.41,0,33.6,0"/><path class="b" d="M9.41,169.07c3.71,0,7.49,0,11.2,0,2.26-2.19,4.59-4.5,6.89-6.64,1.06-.87,2.12-2.25,3.45-2.71.44,0,1.29,0,1.72,0,4.58,0,9.21,0,13.78,0,7.74,0,15.52,0,23.26,0,2.55,0,5.2,0,7.75,0,1.67.09,3.55-.24,5.17.23,2.64,2.92,5.24,6.06,7.75,9.09,7.17.09,14.37,0,21.54.03,2.55,0,5.2,0,7.75,0,1.08,0,2.37,0,3.45,0,.49.1,1.33-.15,1.72-.45,1.93-2.92,3.57-6.4,6.03-8.91h51.69"/><path class="b" d="M9.41,166.9c2.84-.01,5.77.02,8.62-.02,2.28-2.17,4.61-4.49,6.89-6.67.76-.72,1.81-1.71,2.58-2.41.75-.33,1.79-.26,2.58-.26,4.29,0,8.63,0,12.92,0,12.34,0,24.7,0,37.05,0,2.91,2.57,5.17,6.05,7.75,8.95,1.24.74,2.92.29,4.31.4,10.62,0,21.26,0,31.88,0,1.06-.71,1.85-2.29,2.58-3.3,1.31-1.92,2.82-4.04,4.31-5.83.75-.3,1.8-.23,2.58-.23,1.38,0,2.93,0,4.31,0,3.71,0,7.49,0,11.2,0,11.19,0,22.41,0,33.6,0"/><path class="b" d="M9.41,164.74c1.97-.06,4.08.15,6.03-.12,3.18-2.94,6.31-6.08,9.48-9.04,2.22-.44,4.64-.09,6.89-.19,4,0,8.06,0,12.06,0,11.48,0,22.98,0,34.46,0,2.77,2.89,5.03,6.42,7.75,9.35,8.03,0,16.09,0,24.12,0,4.57-.1,9.23.21,13.78-.13,2.44-3.1,4.66-6.73,7.75-9.22h50.83"/><path class="b" d="M9.41,162.57c.77,0,1.82,0,2.58,0,1.34-.4,2.38-1.83,3.45-2.69,2.28-2.12,4.62-4.38,6.89-6.51,2.24-.34,4.63-.07,6.89-.15,4,0,8.06,0,12.06,0,11.77,0,23.56,0,35.32,0,1.66,1.43,2.92,3.61,4.31,5.29,1.07,1.28,2.09,3.07,3.45,4.07h38.77c1.93-2.25,3.94-4.67,6.03-6.78.74-.74,1.77-1.71,2.58-2.36.75-.27,1.8-.21,2.58-.21,4.29,0,8.63,0,12.92,0,11.77,0,23.56,0,35.32,0"/><path class="b" d="M9.41,160.4c3.62-2.82,6.93-6.18,10.34-9.27,11.18-.24,22.41,0,33.6-.09,4.87,0,9.78,0,14.65,0,1.68,0,3.49,0,5.17,0,.78,0,1.86-.08,2.58.29,2.29,2.94,4.31,6.37,6.89,9.06,8.61,0,17.24,0,25.85,0,2.84,0,5.77,0,8.62,0,1.67-.07,3.52.17,5.17-.16,2.08-2.02,8.57-9.19,11.2-9.19,4.58,0,9.21,0,13.78,0,11.77,0,23.56,0,35.32,0"/><path class="b" d="M9.41,155.83c2.56-2.28,5.2-4.66,7.75-6.95h56.86c1.05.66,1.86,2.18,2.58,3.15,1.36,1.94,2.9,4.11,4.31,6.02,1.64.38,3.5.11,5.17.19,2.85,0,5.77,0,8.62,0,8.61,0,17.24,0,25.85,0,4.17-3.19,7.99-7.14,12.92-9.2,1.65-.31,3.49-.09,5.17-.15,2.85,0,5.77,0,8.62,0,11.77,0,23.56,0,35.32,0"/><path class="b" d="M9.41,151.19c1.67-1.46,3.36-3.18,5.17-4.47h58.59c2.59,2.8,4.38,6.48,6.89,9.35,8.61,0,17.24,0,25.85,0,2.85,0,5.77,0,8.62,0,1.38,0,2.93,0,4.31,0,.48-.2,1.33-.78,1.72-1.12,5.47-4.01,11.84-8.75,18.95-8.23,14.35,0,28.72,0,43.08,0"/><path class="b" d="M9.41,146.7c.73-.68,1.7-1.65,2.58-2.15h60.31c2.57,2.81,4.33,6.51,6.89,9.35h37.91c12.13-8.54,19.96-9.57,34.46-9.35,10.33,0,20.68,0,31.02,0"/><path class="b" d="M9.41,142.49c20.66-.3,41.36,0,62.03-.1,2.59,2.74,4.49,6.41,6.89,9.35,8.03,0,16.09,0,24.12,0,2.56,0,5.2,0,7.75,0,1.67-.1,3.55.25,5.17-.24,5.96-3.85,12.71-6.72,19.82-7.42,7.73-.8,15.55-.67,23.26-1.7,8.03,0,16.09,0,24.12,0"/><path class="b" d="M9.41,140.22h61.17c1.05.66,1.86,2.17,2.58,3.13,1.35,1.91,2.88,4.03,4.31,5.89,1.51.66,3.53.2,5.17.33,2.55,0,5.2,0,7.75,0,7.46,0,14.94,0,22.4,0,12.56-7.98,22.17-6.92,36.19-7.56,5.2-.2,10.39-.93,15.51-1.79,6.02,0,12.07,0,18.09,0"/><path class="b" d="M9.41,138.06h60.31c1.1.49,1.86,2.01,2.58,2.91,1.66,2.09,3.16,4.67,5.17,6.44,8.32,0,16.67,0,24.98,0,2.56,0,5.2,0,7.75,0,1.2-.23,2.35-1.17,3.45-1.68,1.63-.86,3.44-1.68,5.17-2.31,4.39-1.63,9.12-2.36,13.78-2.47,8.32-.18,16.7.03,24.98-.99,3.46-.41,6.96-1.04,10.34-1.89,4.87-.02,9.78,0,14.65,0"/><path class="b" d="M9.41,135.89c13.78,0,27.58,0,41.35,0,6.02,0,12.07,0,18.09,0,1.14.35,1.85,1.86,2.58,2.7,1.63,2.14,3.42,4.43,5.17,6.47,1.35.35,2.92.13,4.31.19,1.97,0,4.06,0,6.03,0,6.31,0,12.65,0,18.95,0,.77,0,1.81,0,2.58,0,1.14-.43,2.35-1.24,3.45-1.77,2.18-1.12,4.55-2.12,6.89-2.82,4.72-1.46,9.74-1.75,14.65-1.6,8.61.2,17.29.31,25.85-.77,4.07-.43,8.08-1.51,12.06-2.39,3.71,0,7.49,0,11.2,0"/><path class="b" d="M9.41,133.73c13.78,0,27.58,0,41.35,0,5.73,0,11.5,0,17.23,0,1.14.25,1.85,1.73,2.58,2.53,1.93,2.25,3.72,4.96,6.03,6.83,10.04,0,20.11,0,30.15,0,3.64-1.75,7.25-3.82,11.2-4.84,5.02-1.47,10.33-1.54,15.51-1.21,9.46.47,19.02.58,28.43-.68,4.09-.46,8.08-1.71,12.06-2.62,2.84,0,5.77,0,8.62,0"/><path class="b" d="M9.41,131.56c13.49,0,27,0,40.49,0,5.73,0,11.5,0,17.23,0,1.47.43,2.37,2.38,3.45,3.41,1.62,1.9,3.41,3.94,5.17,5.71,1.33.43,2.93.16,4.31.23,1.97,0,4.06,0,6.03,0,5.73,0,11.5,0,17.23,0,.78,0,1.83.06,2.58-.21.77-.41,1.81-.97,2.58-1.36,2.47-1.25,5.11-2.39,7.75-3.21,5.27-1.68,10.9-1.83,16.37-1.36,10.02.66,20.16.91,30.15-.23,4.38-.54,8.75-1.55,12.92-2.98,2.26,0,4.63,0,6.89,0"/><path class="b" d="M9.41,129.4c13.49,0,27,0,40.49,0,4.58,0,9.21,0,13.78,0,3.2-.08,3.08-.17,5.17,2.32,2.2,2.37,4.36,5.03,6.89,7.04,9.47,0,18.96,0,28.43,0,3.66-1.73,7.31-3.7,11.2-4.87,5.54-1.83,11.47-2.04,17.23-1.47,10.59.71,21.3,1.21,31.88.16,3.48-.41,6.99-1.15,10.34-2.21.76-.24,1.83-.6,2.58-.88,1.67-.18,3.49-.05,5.17-.09"/><path class="b" d="M9.41,127.23c15.22,0,30.45,0,45.66,0,2.26,0,4.63,0,6.89,0,1.39.12,3.17-.37,4.31.47,1.95,2.06,4,4.25,6.03,6.22,1.25,1.05,2.46,2.95,4.31,2.66,8.61,0,17.24,0,25.85,0,1.52.12,2.94-1.11,4.31-1.63,1.94-.93,4.02-1.86,6.03-2.62,4.38-1.68,9.09-2.67,13.78-2.72,5.45.03,10.92.73,16.37.88,8.02.25,16.12.93,24.12-.03,2.89-.37,5.84-1.01,8.62-1.9,1.08-.35,2.38-.8,3.45-1.22,1.06-.19,2.37-.09,3.45-.12"/><path class="b" d="M9.41,125.07h55.14c3.59,2.87,6.57,6.66,10.34,9.35,6.02,0,12.07,0,18.09,0,1.97,0,4.06,0,6.03,0,1.38-.07,2.97.19,4.31-.21,4.2-2,8.46-4.05,12.92-5.4,3.33-1.02,6.85-1.64,10.34-1.76,3.14-.11,6.35.21,9.48.38,5.15.31,10.36.55,15.51.91,5.43.36,10.94.81,16.37.24,2.9-.3,5.84-.93,8.62-1.82,1.99-.5,3.92-1.86,6.03-1.7"/><path class="b" d="M9.41,122.9c18.09.02,36.19-.04,54.28.02,2.26,2.06,4.58,4.25,6.89,6.26,1.35,1.01,2.65,2.62,4.31,3.07,4.29,0,8.63,0,12.92,0,4.58,0,9.21,0,13.78,0,.84.12,1.85-.33,2.58-.69,1.08-.5,2.36-1.09,3.45-1.58,3.07-1.39,6.25-2.73,9.48-3.72,3.33-1.03,6.85-1.7,10.34-1.85,3.43-.13,6.92.15,10.34.31,4.3.23,8.64.51,12.92.96,4.57.46,9.18,1.12,13.78,1.19,6.24.18,12.46-1.31,18.09-3.96"/><path class="b" d="M9.41,122.62c.32-.58,1.09-1.63,1.72-1.88,12.63,0,25.28,0,37.91,0,4.29,0,8.63,0,12.92,0,1.63.62,2.92,2.24,4.31,3.27,2.49,2.07,5.01,4.34,7.75,6.08,6.31,0,12.65,0,18.95,0,1.97,0,4.06,0,6.03,0,1.38-.07,2.97.19,4.31-.22,5.09-2.25,10.16-4.74,15.51-6.35,6.94-2.3,14.34-1.98,21.54-1.51,8.4.33,16.62,2.45,24.98,3.02,5.93.38,11.89-.99,17.23-3.55"/><path class="b" d="M9.41,122.95c1.07-1.35,1.88-3.56,3.45-4.38,14.93,0,29.87,0,44.8,0,2.6.03,3.11-.38,5.17,1.43,2.27,1.73,4.6,3.6,6.89,5.31,1.06.79,2.34,1.71,3.45,2.44,2.23.39,4.64.08,6.89.17,5.15,0,10.35,0,15.51,0,1.68,0,3.49,0,5.17,0,.77,0,1.82,0,2.58,0,.43-.18,1.3-.54,1.72-.73,5.65-2.49,11.25-5.26,17.23-6.88,4.74-1.36,9.75-1.56,14.65-1.35,4.9.16,9.84.71,14.65,1.67,11.29,2.4,19.97,4.92,31.02-.57"/><path class="b" d="M9.41,123.52c1.7-2.28,3.07-5.18,5.17-7.12,12.92,0,25.85,0,38.77,0,1.97.09,4.1-.21,6.03.18,1.1.69,2.38,1.55,3.45,2.28,3.44,2.23,6.65,5.1,10.34,6.89,2.26,0,4.63,0,6.89,0,5.44,0,10.93,0,16.37,0,1.68,0,3.49,0,5.17,0,1.52.03,2.94.11,4.31-.69,6.23-2.71,12.35-5.92,18.95-7.65,3.35-.99,6.88-1.12,10.34-1.02,4.91-.17,9.86.26,14.65,1.41,11.83,2.81,20.87,6.99,32.74.93"/><path class="b" d="M9.41,123.59c1.08-.62,1.86-2.17,2.58-3.13,1.35-1.97,2.86-4.18,4.31-6.09,4.26-.35,8.64-.03,12.92-.14,7.46,0,14.94,0,22.4,0,1.68.01,3.49-.03,5.17.03,1.72.87,3.52,1.9,5.17,2.9,3.46,2.07,6.81,4.47,10.34,6.42,2.85,0,5.77,0,8.62,0,5.44,0,10.93,0,16.37,0,1.97,0,4.06,0,6.03,0,.77,0,1.82.03,2.58-.09.43-.19,1.3-.56,1.72-.75,6.25-2.75,12.34-6.1,18.95-7.92,3.32-1.05,6.91-.45,10.34-.6,3.74,0,7.57-.25,11.2.84,12.28,3.08,21.89,9.07,34.46,2.42"/><path class="b" d="M9.41,121.43c.78,0,1.83.06,2.58-.19,2.27-3,4.32-6.41,6.89-9.17,10.04,0,20.11,0,30.15,0,1.38,0,2.92,0,4.31,0,2.37.72,4.68,1.94,6.89,3.03,2.6,1.34,5.22,2.87,7.75,4.34.77.44,1.81,1.04,2.58,1.47.44.33,1.18.58,1.72.51,3.13,0,6.34,0,9.48,0,5.73,0,11.5,0,17.23,0,2.26,0,4.63,0,6.89,0,1.53.22,2.97-.56,4.31-1.2,6.22-2.86,12.28-6.34,18.95-8.08,5.14-.14,10.36-.12,15.51-.01,13.39,2.75,24.09,11.79,37.91,4.21"/><path class="b" d="M9.41,119.26h4.31c2.86-2.79,4.75-6.68,7.75-9.35,8.61,0,17.24,0,25.85,0,.78,0,1.81-.02,2.58.08.78.25,1.81.61,2.58.88,2,.71,4.09,1.52,6.03,2.37,2.6,1.13,5.24,2.44,7.75,3.75,1.08.56,2.36,1.24,3.45,1.79.45.28,1.19.56,1.72.48,4.29,0,8.63,0,12.92,0,5.73,0,11.5,0,17.23,0,1.97,0,4.06,0,6.03,0,.77,0,1.83.05,2.58-.17.43-.2,1.3-.6,1.72-.81,4.02-1.93,7.98-4.12,12.06-5.93,2.47-.96,5.07-2.37,7.75-2.44,4,.1,8.09-.2,12.06.13,13.54,2.89,24.7,13.2,38.77,5.23"/><path class="b" d="M9.41,117.1c2.24-.12,4.71.28,6.89-.22,2.47-3.06,4.88-6.38,7.75-9.08,5.44-.15,10.93-.01,16.37-.06,1.68,0,3.49,0,5.17,0,2.63.51,5.21,1.62,7.75,2.44,3.48,1.22,6.98,2.61,10.34,4.12,1.39.62,2.93,1.35,4.31,2,.76.34,1.71.95,2.58.8,5.44,0,10.93,0,16.37,0,8.52-.11,17.39.21,25.85-.12,6.5-2.97,15.35-9.26,22.4-9.23,9.89-.81,18.56,4.69,27.57,7.84,1.92.65,4.02,1.19,6.03,1.46,1.67.12,3.49.03,5.17.06,3.01-.28,5.98-1.41,8.62-2.86"/><path class="b" d="M9.41,114.93h8.62c2.46-2.24,4.41-5.22,6.89-7.45,1.52-1.4,2.15-2.12,4.31-1.9,4.58,0,9.21,0,13.78,0,6.41,1.84,12.72,4.23,18.95,6.6,2.29.83,4.56,2.06,6.89,2.75,1.38,0,2.93,0,4.31,0,5.73,0,11.5,0,17.23,0,5.73,0,11.5,0,17.23,0,1.68,0,3.49,0,5.17,0,.76,0,1.82,0,2.58,0,.44-.18,1.31-.61,1.72-.85,5.04-2.65,9.94-5.99,15.51-7.41,11.09-2.24,20.89,4.99,31.02,8.18,3.41.19,6.92.02,10.34.08,1.67-.05,3.51.12,5.17-.11,1.11-.43,2.41-1.05,3.45-1.64"/><path class="b" d="M9.41,112.77c3.42,0,6.91,0,10.34,0,1.43-.44,2.37-2.17,3.45-3.14,2.27-2.35,4.68-4.95,7.75-6.21,3.14,0,6.34,0,9.48,0,2.31.49,4.66,1.24,6.89,2.01,4.59,1.62,9.21,3.29,13.78,4.96,1.39.51,2.93,1.1,4.31,1.64.77.29,1.74.8,2.58.74,6.59,0,13.22,0,19.82,0,10.04,0,20.11,0,30.15,0,1.55-.18,2.92-1.47,4.31-2.14,2.78-1.58,5.64-3.25,8.62-4.42,6.57-2.35,13.66-.11,19.82,2.49,2.27.95,4.62,2.02,6.89,2.97.75.32,1.82.74,2.58,1.03.75.11,1.83.08,2.58.08,4,0,8.06,0,12.06,0,1.38,0,2.93,0,4.31,0,1.14.08,2.49-.03,3.45-.74"/><path class="b" d="M9.41,110.6c2.55,0,5.2,0,7.75,0,1.67-.07,3.52.17,5.17-.16,3.16-2.98,6.2-6.55,10.34-8.17,5.44-1.64,11.2.33,16.37,2.11,5.74,2.04,11.45,4.32,17.23,6.22,6.31,0,12.65,0,18.95,0,8.32,0,16.67,0,24.98,0,3.71,0,7.49,0,11.2,0,2.31-1.19,4.57-2.72,6.89-3.9,6.36-3.92,14.18-2.2,20.68.47,1.98.78,4.06,1.67,6.03,2.49,1.04.41,2.29,1.08,3.45.95,8.03,0,16.09,0,24.12,0"/><path class="b" d="M9.41,108.44c4.58,0,9.21,0,13.78,0,1.36-.18,2.37-1.68,3.45-2.45,1.59-1.36,3.35-2.78,5.17-3.82,7.12-4,15.42-.17,22.4,2.32,2.26.85,4.62,1.72,6.89,2.54,1.39.44,2.86,1.21,4.31,1.41,3.42,0,6.91,0,10.34,0,8.89,0,17.81,0,26.71,0,7.17,0,14.37,0,21.54,0,2.64-1.12,5-3.09,7.75-4.01,3.88-1.36,8.16-.91,12.06.14,2.6.69,5.23,1.62,7.75,2.55,1.38.41,2.85,1.3,4.31,1.32,8.89,0,17.81,0,26.71,0"/><path class="b" d="M9.41,106.27c4.87,0,9.78,0,14.65,0,1.33.21,2.42-1.12,3.45-1.78,1.35-1.01,2.86-2.11,4.31-2.96,5.73-3.72,12.91-2.42,18.95-.21,3.15,1.1,6.34,2.34,9.48,3.49,1.66.51,3.39,1.57,5.17,1.46,11.19,0,22.41,0,33.6,0,6.88,0,13.8,0,20.68,0,1.97,0,4.06,0,6.03,0,.89.03,1.83-.72,2.58-1.12,1.32-.75,2.84-1.52,4.31-1.94,3.63-1.07,7.55-.7,11.2.07,2.29.49,4.65,1.16,6.89,1.83,1.38.36,2.88,1.06,4.31,1.15,9.18,0,18.39,0,27.57,0"/><path class="b" d="M9.41,104.11c5.15,0,10.35,0,15.51,0,.92.18,1.85-.52,2.58-.97,1.37-.86,2.89-1.82,4.31-2.6,5.91-3.51,12.63-3.33,18.95-1.14,2.88.92,5.78,2.01,8.62,3.06,1.96.62,3.92,1.86,6.03,1.65,11.19,0,22.41,0,33.6,0,7.17,0,14.37,0,21.54,0,2.26-.01,4.63.03,6.89-.02,1.86-1.1,3.92-2.16,6.03-2.66,3.65-.9,7.53-.58,11.2.05,3.75.65,7.51,1.62,11.2,2.57,2.26.15,4.63.03,6.89.07,4.29,0,8.63,0,12.92,0,1.38,0,2.93,0,4.31,0,.78,0,1.89.09,2.58-.36"/><path class="b" d="M9.41,101.9c5.44.11,10.93.02,16.37.04,2.6-1.08,5.15-2.52,7.75-3.59,10.7-4.36,18.33-.67,28.43,2.96.44.16,1.28.48,1.72.63.44,0,1.28,0,1.72,0,1.38,0,2.93,0,4.31,0,4.29,0,8.63,0,12.92,0,12.06,0,24.13,0,36.19,0,2.55,0,5.2,0,7.75,0,.48,0,1.34-.36,1.72-.65,1.04-.58,2.33-1.22,3.45-1.62,2.45-.89,5.16-1.24,7.75-1.24,6.43.06,12.73,1.78,18.95,3.24,2.5.56,5.21.15,7.75.27,3.13,0,6.34,0,9.48,0,1.07,0,2.37,0,3.45,0,1.17-.18,2.4-.92,3.45-1.44"/><path class="b" d="M9.41,96.52c5.14,2.08,10.83,3.65,16.37,2.35,3.21-.67,6.31-2.01,9.48-2.83,2.8-.62,5.75-1.09,8.62-1.28,2.89-.09,5.84.49,8.62,1.24,3.78,1.04,7.53,2.39,11.2,3.76,6.88.03,13.8,0,20.68.01,7.17,0,14.37,0,21.54,0,6.59,0,13.22,0,19.82,0,1.51-.33,2.88-1.52,4.31-2.09,2.13-1,4.55-1.61,6.89-1.82,7.27-.56,14.47,1.33,21.54,2.75,1.96.4,4.05.86,6.03,1.16,1.97,0,4.06,0,6.03,0,1.97,0,4.06,0,6.03,0,2.07-.63,4.13-1.66,6.03-2.68"/><path class="b" d="M9.41,90.78c10.46,4.16,14.74,5.1,25.85,2.97,3.7-.39,7.48-.84,11.2-.79,5.64.37,11.07,2.34,16.37,4.16,1.03.5,2.33.52,3.45.48,1.38,0,2.93,0,4.31,0,4.29,0,8.63,0,12.92,0,12.63,0,25.28,0,37.91,0,1.38-.07,2.98.2,4.31-.23.75-.46,1.81-1.05,2.58-1.46,4.16-2.35,9.07-2.99,13.78-2.67,6.96.42,13.8,2.02,20.68,3.08,7.47,1.18,13.15,1.54,19.82-2.72"/><path class="b" d="M9.41,86.09c1.09,0,2.36,0,3.45,0,.78.27,1.81.65,2.58.93,2.52.9,5.15,1.81,7.75,2.44,5.62,1.42,11.49,1.1,17.23,1.28,4.32-.1,8.73-.21,12.92,1.02,4.08.96,8.06,2.48,12.06,3.68,8.03,0,16.09,0,24.12,0,9.76,0,19.54,0,29.29,0,1.68,0,3.49,0,5.17,0,.87-.1,1.83-.8,2.58-1.2,5.29-3.19,11.16-3.95,17.23-3.41,6.63.48,13.21,1.71,19.82,2.46,6.77.82,13.1.88,18.95-3.17"/><path class="b" d="M9.41,83.93c3.42,0,6.91,0,10.34,0,1.97.09,4.14-.29,6.03.4,5.05,1.51,10.3,2.5,15.51,3.25,3.12.43,6.37.23,9.48.72,5.57,1.2,10.95,3.26,16.37,4.98,3.13,0,6.34,0,9.48,0,15.22,0,30.45,0,45.66,0,.83.09,1.91-.19,2.58-.69,1.06-.59,2.35-1.25,3.45-1.76,2.67-1.3,5.65-2.13,8.62-2.38,8.06-.6,16.11.88,24.12,1.55,7.26.69,15.29,1.27,21.54-3.21"/><path class="b" d="M9.41,81.76c6.88,0,13.8,0,20.68,0,1.68,0,3.49,0,5.17,0,2.61.49,5.13,1.75,7.75,2.25,4.54,1.11,9.43.63,13.78,2.53,2.84,1.02,5.77,2.03,8.62,3.04,1.39.47,2.89,1.15,4.31,1.54,1.08,0,2.36,0,3.45,0,11.48,0,22.98,0,34.46,0,3.13,0,6.34,0,9.48,0,1.96-.12,4.13.29,6.03-.25,2.74-1.47,5.63-2.89,8.62-3.8,4.45-1.29,9.2-1.21,13.78-1,5.16.26,10.35.73,15.51,1.05,7.26.39,15.26.87,21.54-3.43"/><path class="b" d="M9.41,79.6c10.91,0,21.83,0,32.74,0,1.46-.13,2.92.69,4.31,1.01,2.22.61,4.61.88,6.89,1.13,5.14.83,9.76,3.57,14.65,5.23,1.39.54,2.94,1.17,4.31,1.77.75.28,1.8.22,2.58.22,15.5,0,31.02,0,46.52,0,3.88-1.83,7.82-3.84,12.06-4.67,8.24-1.4,16.68-.2,24.98-.04,8.08.18,16.93,1.05,24.12-3.35"/><path class="b" d="M9.41,77.43c9.47,0,18.96,0,28.43,0,4.29,0,8.63,0,12.92,0,1.68.2,3.49.5,5.17.74,5.48,1.14,10.34,4.22,15.51,6.26,1.09.48,2.37,1.06,3.45,1.56.76.35,1.72.95,2.58.79,12.63,0,25.28,0,37.91,0,1.38,0,2.93,0,4.31,0,2.33-.71,4.57-2.05,6.89-2.83,4.09-1.66,8.51-2.53,12.92-2.58,7.46-.15,14.94.32,22.4.35,6.95-.02,14.38.16,20.68-3.2"/><path class="b" d="M9.41,75.26c16.65,0,33.32,0,49.97,0,1.53-.17,2.95.31,4.31.96,1.71.74,3.52,1.64,5.17,2.52,2.53,1.34,5.2,2.6,7.75,3.89,1.39.62,2.82,1.63,4.31,1.98,10.91,0,21.83,0,32.74,0,1.38,0,2.93,0,4.31,0,2.01-.64,4.03-1.66,6.03-2.35,4.41-1.67,9.05-2.94,13.78-3.08,8.6-.32,17.24.17,25.85.04,6.36-.12,13.03-.08,18.95-2.72"/><path class="b" d="M9.41,73.1c14.64,0,29.3,0,43.94,0,4.29,0,8.63,0,12.92,0,.87-.15,1.85.41,2.58.79,1.4.72,2.95,1.57,4.31,2.37,3.37,1.94,6.86,3.83,10.34,5.56,1.25.82,2.89.62,4.31.63,1.97,0,4.06,0,6.03,0,6.02,0,12.07,0,18.09,0,1.08,0,2.37,0,3.45,0,2.33-.54,4.6-1.68,6.89-2.36,4.73-1.59,9.64-2.91,14.65-3.1,8.89-.34,17.82.05,26.71-.09,6.33-.12,12.9.03,18.95-2.11"/><path class="b" d="M9.41,70.93c15.22,0,30.45,0,45.66,0,5.73.06,11.51-.12,17.23.07,4.85,2.76,9.52,5.96,14.65,8.21,1.06.41,2.27,1.2,3.45,1.07,1.97,0,4.06,0,6.03,0,4.87,0,9.78,0,14.65,0,1.13.1,2.39-.32,3.45-.66,1.68-.52,3.49-1.1,5.17-1.61,5.05-1.49,10.24-2.84,15.51-3.15,9.46-.42,18.96-.01,28.43-.14,6.32-.09,12.8.19,18.95-1.47"/><path class="b" d="M9.41,68.77c15.79,0,31.59,0,47.38,0,4.29,0,8.63,0,12.92,0,1.38,0,2.93,0,4.31,0,1.21-.1,2.47.06,3.45.84,3.89,2.39,7.79,4.94,12.06,6.6,1.91.76,4.01,1.41,6.03,1.8,1.66.22,3.49.06,5.17.11,2.86-.02,5.82.19,8.62-.54,8.27-1.82,16.47-4.44,24.99-4.86,9.75-.34,19.54.03,29.29,0,6.31-.03,12.73.37,18.95-.86"/><path class="b" d="M9.41,66.6c15.79,0,31.59,0,47.38,0,7.46.03,14.95-.05,22.4.03,3.61,2.16,7.28,4.4,11.2,5.95,5.99,2.43,12.64,2.6,18.95,1.53,8.28-1.4,16.55-3.32,24.99-3.53,9.76-.14,19.54.18,29.29.28,6.3.06,12.69.56,18.95-.33"/><path class="b" d="M9.41,64.44c16.36,0,32.74,0,49.11,0,7.46,0,14.94,0,22.4,0,1.21.12,2.36,1.09,3.45,1.59,1.92,1.01,4.01,1.98,6.03,2.76,5.98,2.45,12.6,2.72,18.95,1.98,9.43-1.14,18.9-2.5,28.43-2.26,8.61.18,17.24.38,25.85.63,6.3.15,12.66.74,18.95.11"/><path class="b" d="M9.41,62.27c16.08,0,32.17,0,48.25,0,5.73,0,11.5,0,17.23,0,1.68,0,3.49,0,5.17,0,1.41.03,3.08-.22,4.31.63,7.39,3.86,15.84,5.32,24.12,4.73,11.18-.76,22.4-1.54,33.6-.92,7.46.31,14.95.52,22.4.88,6.01.24,12.08.85,18.09.4"/><path class="b" d="M9.41,60.11c17.23,0,34.47,0,51.69,0,7.46,0,14.94,0,22.4,0,1.75.38,3.44,1.47,5.17,1.97,2.49.87,5.15,1.51,7.75,1.91,5.97.92,12.07.68,18.09.57,6.3-.11,12.65-.16,18.95-.03,9.76.39,19.54,1.03,29.29,1.53,6.59.33,13.22,1.08,19.82.7"/><path class="b" d="M9.41,57.94c16.36,0,32.74,0,49.11,0,5.73,0,11.5,0,17.23,0,1.97,0,4.06,0,6.03,0,.43,0,1.29,0,1.72,0,.82.15,1.82.66,2.58.96,7.09,2.83,14.87,2.98,22.4,3.09,6.88.06,13.8.25,20.68.45,11.21.41,22.4,1.59,33.6,2.27,6.58.42,13.21,1.17,19.82.8"/><path class="b" d="M9.41,55.78c16.08,0,32.17,0,48.25,0,5.44,0,10.93,0,16.37,0,1.97,0,4.06,0,6.03,0,1.09.06,2.45-.21,3.45.34,6.96,3.32,14.85,3.31,22.4,3.45,7.17.1,14.37.47,21.54.83,11.8.57,23.54,2.24,35.32,3.09,6.58.51,13.21,1.2,19.82.78"/><path class="b" d="M9.41,53.61c16.36,0,32.74,0,49.11,0,7.17,0,14.37,0,21.54,0,.51-.09,1.31.18,1.72.47.75.38,1.8.86,2.58,1.17,2.18.87,4.57,1.47,6.89,1.79,5.98.78,12.08.32,18.09.49,7.47.17,14.96.66,22.4,1.25,12.35,1.29,24.65,3.26,37.05,4.06,4.57.28,9.21.06,13.78.13"/><path class="b" d="M9.41,51.45c22.97,0,45.95,0,68.92,0,7.64,4.78,14.56,4.92,23.26,4.42,6.02-.29,12.08-.24,18.09.14,12.18.42,24.13,2.97,36.18,4.49,3.4.52,6.91.23,10.34.3,5.44,0,10.93,0,16.37,0"/><path class="b" d="M9.41,49.28c14.93,0,29.87,0,44.8,0,6.88,0,13.8,0,20.68,0,.93-.05,1.83.8,2.58,1.23,1.61,1,3.41,1.96,5.17,2.67,5.44,2.29,11.48,2.02,17.23,1.48,4.28-.38,8.62-.7,12.92-.69,6.03.03,12.11.35,18.09,1.14,6.34.88,12.64,2.31,18.95,3.34,3.97.42,8.07.06,12.06.17,6.88,0,13.8,0,20.68,0"/><path class="b" d="M9.41,47.12c14.35,0,28.72,0,43.08,0,6.59,0,13.22,0,19.82,0,3.09,1.87,6.05,4.18,9.48,5.46,5.44,2.3,11.5,1.97,17.23,1.17,9.11-1.34,18.39-1.89,27.57-.89,6.39.69,12.66,2.31,18.95,3.57,12.34.11,24.7,0,37.05.04"/><path class="b" d="M9.41,44.95c13.78,0,27.58,0,41.35,0,4,0,8.06,0,12.06,0,1.38,0,2.92,0,4.31,0,.79,0,1.84-.07,2.58.24,2.95,2.31,6.09,4.57,9.48,6.2,5.04,2.54,10.86,2.93,16.37,2.07,4.59-.65,9.18-1.65,13.78-2.16,5.99-.68,12.11-.79,18.09.01,4.94.61,9.75,2.19,14.65,2.98,13.49,0,27,0,40.49,0"/><path class="b" d="M9.41,42.78h56.86c3.31,2.6,6.6,5.41,10.34,7.4,1.6.74,3.36,1.97,5.17,1.95,5.73,0,11.5,0,17.23,0,3.72-.62,7.45-1.61,11.2-2.11,5.4-.8,10.95-1.04,16.37-.32,3.77.51,7.51,1.5,11.2,2.4,3.71.07,7.49,0,11.2.03,11.19,0,22.41,0,33.6,0"/><path class="b" d="M9.41,40.62c18.08.09,36.2-.18,54.28.1,3.69,3.41,7.62,6.76,12.06,9.16,3.12.23,6.34.03,9.48.09,4.58,0,9.21,0,13.78,0,1.97,0,4.06,0,6.03,0,1.39-.25,2.92-.63,4.31-.89,5.37-1.05,10.93-1.5,16.37-.85,2.89.33,5.8,1.04,8.62,1.72,4.87.04,9.78,0,14.65.02,11.19,0,22.41,0,33.6,0"/><path class="b" d="M9.41,38.45c17.22.07,34.48-.14,51.69.08,1.92,1.8,9.72,9.77,12.06,9.28,8.89,0,17.81,0,26.71,0,3.42,0,6.91,0,10.34,0,4.24-.79,8.6-1.31,12.92-1.05,2.58.1,5.22.6,7.75,1.05,5.44,0,10.93,0,16.37,0,11.77,0,23.56,0,35.32,0"/><path class="b" d="M9.41,36.29h49.11c3.4,3.11,6.52,6.72,10.34,9.35,37.91-.02,75.81,0,113.72,0"/><path class="b" d="M9.41,34.12c11.77,0,23.56,0,35.32,0,3.71,0,7.49,0,11.2,0,1.4.51,2.35,2.16,3.45,3.11,2.19,2.11,4.31,4.62,6.89,6.24h116.31"/><path class="b" d="M9.41,31.96h44.8c3.03,3.19,6.06,6.57,9.48,9.35h118.89"/><path class="b" d="M9.41,29.79h42.22c.97.45,1.83,1.63,2.58,2.35,1.08,1.1,2.35,2.4,3.45,3.48.77.75,1.8,1.76,2.58,2.48.37.47,1.13.97,1.72,1.04,6.59,0,13.22,0,19.82,0,8.89,0,17.81,0,26.71,0,7.74,0,15.52,0,23.26,0,5.16-.09,10.39.3,15.51-.46,6.28-.78,12.63-1.18,18.95-1,5.44.05,10.92.76,16.37.41"/><path class="b" d="M9.41,27.63c8.61,0,17.24,0,25.85,0,3.13,0,6.34,0,9.48,0,1.67.09,3.55-.24,5.17.23,3.06,3.09,6.19,6.28,9.48,9.12,19.81,0,39.64,0,59.45,0,4.29-.03,8.64.07,12.92-.05,2.27-.45,4.63-.94,6.89-1.4,7.36-1.52,14.86-2.83,22.4-2.68,7.2-.01,14.34,1.44,21.54,1.56"/><path class="b" d="M9.41,25.46c12.63.08,25.29-.15,37.91.08,1.96,1.86,4.07,3.78,6.03,5.64.77.71,1.8,1.68,2.58,2.37.69.63,1.57,1.47,2.58,1.26,7.74,0,15.52,0,23.26,0,13.2,0,26.43,0,39.63,0,1.08,0,2.37,0,3.45,0,2.32-.39,4.66-1.14,6.89-1.87,3.4-1.09,6.88-2.2,10.34-3.08,7.28-1.92,14.91-2.52,22.4-1.69,6.06.58,12.03,2.07,18.09,2.57"/><path class="b" d="M9.41,23.3c11.77.07,23.57-.14,35.32.08,2.29,1.93,4.66,3.97,6.89,5.96.78.67,1.8,1.59,2.58,2.25.67.66,1.61,1.23,2.58,1.06,9.18,0,18.39,0,27.57,0,7.46,0,14.94,0,22.4,0,3.42,0,6.91,0,10.34,0,1.7-.2,3.5-.59,5.17-.96,7.46-1.64,14.06-5.94,21.54-7.54,3.36-.9,6.89-.92,10.34-.85,3.13.07,6.36-.15,9.48.11,6.41.72,12.6,2.78,18.95,3.81"/><path class="b" d="M9.41,21.13c9.18,0,18.39,0,27.57,0,5.54.06,4.28-.71,8.62,2.8,2.58,2.06,5.17,4.28,7.75,6.34,2.2.49,4.64.1,6.89.22,10.04,0,20.11,0,30.15,0,4.58,0,9.21,0,13.78,0,2.84-.34,5.75-.87,8.62-1.06,4.69-.53,9.4-1.56,13.78-3.34,3.76-1.54,7.2-4.02,11.2-4.96,8.32,0,16.67,0,24.99,0,3.13.01,6.34-.03,9.48.02,3.45.79,6.91,1.84,10.34,2.71"/><path class="b" d="M9.41,18.97c6.59,0,13.22,0,19.82,0,2.56,0,5.2,0,7.75,0,.78,0,1.82-.04,2.58.12.79.53,1.82,1.27,2.58,1.83,2.3,1.68,4.64,3.51,6.89,5.26,2.81,2.21,2.42,2.25,6.03,2.15,9.76,0,19.54,0,29.29,0,4,0,8.06,0,12.06,0,2.07.21,4.05-.83,6.03-1.26,6.21-1.71,12.82-1.59,18.95-3.64,2.99-.88,5.86-2.31,8.62-3.73,1.53-.97,3.44-.7,5.17-.72,9.18,0,18.39,0,27.57,0,4.29,0,8.63,0,12.92,0,2.31.34,4.63,1.23,6.89,1.8"/><path class="b" d="M9.41,16.8c9.18,0,18.39-.02,27.57,0,3.24,2.04,6.4,4.37,9.48,6.64,1.08.79,2.36,1.73,3.45,2.51,1.06.32,2.36.16,3.45.2,13.49,0,27,0,40.49,0,3.95-1.47,7.92-3.08,12.06-3.96,3.68-.9,7.52-1.24,11.2-2.12,3.23-.74,6.36-2.05,9.48-3.13,1.65-.31,3.49-.09,5.17-.15,10.33,0,20.68,0,31.02,0,3.71,0,7.49,0,11.2,0,1.38.01,2.93-.03,4.31.03,1.38.39,2.93.84,4.31,1.25"/><path class="b" d="M9.41,14.64c5.73,0,11.5,0,17.23,0,2.56,0,5.2,0,7.75,0,1.21.31,2.39,1.26,3.45,1.89,2.3,1.49,4.65,3.13,6.89,4.71,1.38.88,2.76,2.18,4.31,2.75.45,0,1.28,0,1.72,0,12.63,0,25.28,0,37.91,0,.77,0,1.82.02,2.58-.05,1.07-.52,2.36-1.14,3.45-1.63,2.5-1.15,5.14-2.23,7.75-3.1,5.32-1.82,10.92-2.76,16.37-4.1,1.35-.44,2.9-.53,4.31-.47,1.97,0,4.06,0,6.03,0,11.19,0,22.41,0,33.6,0,3.71,0,7.49,0,11.2,0,1.67,0,3.49,0,5.17,0,1.09.22,2.38.65,3.45.98"/><path class="b" d="M9.41,12.47c5.44,0,10.93,0,16.37,0,8.02.11,6.08-.97,12.92,3.47,2.29,1.49,4.63,3.12,6.89,4.65.45.29,1.28.87,1.72,1.15,1.08.14,2.36.07,3.45.08,12.06,0,24.13,0,36.18,0,.43,0,1.29,0,1.72,0,.43-.23,1.29-.69,1.72-.92,1.07-.58,2.36-1.25,3.45-1.81,3.33-1.7,6.82-3.27,10.34-4.53,2.22-.8,4.59-1.51,6.89-2.05,1.97-.11,4.06-.02,6.03-.05,4.87,0,9.78,0,14.65,0,10.62,0,21.26,0,31.88,0,3.71,0,7.49,0,11.2,0,1.38,0,2.93,0,4.31,0,1.11.11,2.38.62,3.45.94"/><path class="b" d="M9.41,10.3c4.87,0,9.78,0,14.65,0,2.55.07,5.22-.17,7.75.12,5.11,2.66,9.82,6.1,14.65,9.22,11.77.02,23.56,0,35.32,0,1.98-.14,4.32.5,6.03-.77,3.37-1.97,6.82-3.97,10.34-5.67,2.21-1.06,4.57-2.06,6.89-2.84,3.99-.18,8.06-.02,12.06-.07,13.78,0,27.58,0,41.35,0,4.58,0,9.21,0,13.78,0,2.26.04,4.64-.08,6.89.06,1.08.33,2.38.75,3.45,1.12"/><path class="b" d="M9.41,8.14c6.88,0,13.8,0,20.68,0,1.83.44,3.52,1.7,5.17,2.57,3.2,1.92,6.34,4.1,9.48,6.13.69.61,1.7.71,2.58.65,1.38,0,2.92,0,4.31,0,7.17,0,14.37,0,21.54,0,2.55,0,5.2,0,7.75,0,1.38-.09,3,.24,4.31-.28,3.68-2.22,7.38-4.56,11.2-6.54,1.93-.9,3.93-2.14,6.03-2.54,6.02,0,12.07,0,18.09,0,7.74,0,15.52,0,23.26,0,7.74,0,15.52,0,23.26,0,3.42,0,6.92,0,10.34,0,1.72.36,3.51,1.06,5.17,1.64"/></svg>