<?xml version="1.0" encoding="UTF-8"?><svg id="a" xmlns="http://www.w3.org/2000/svg" width="1920" height="2400" viewBox="0 0 192 240"><defs><style>.b{fill:none;stroke:#fff;stroke-miterlimit:10;stroke-width:.3px;}.c{stroke-width:0px;}</style></defs><rect class="c" width="192" height="240"/><path class="b" d="M9.41,222.51h81.85c2.14,1.9,4.03,4.28,6.03,6.32,1.26,1.1,2.38,3.31,4.31,3.03,8.61,0,17.24,0,25.85,0,1.81-.96,3.4-2.58,5.17-3.62,4.1-2.73,8.87-4.5,13.78-4.91,12.23-.72,24.73.96,36.18,5.37"/><path class="b" d="M9.41,220.34c15.22,0,30.45,0,45.66,0,7.17,0,14.37,0,21.54,0,4,0,8.06,0,12.06,0,.76,0,1.82,0,2.58,0,1.36.63,2.37,2.19,3.45,3.2,1.93,2.03,3.99,4.18,6.03,6.09,6.3.17,12.65.01,18.95.06,10.44,0,5.35.75,13.78-4.19,6.47-3.87,14.18-4.39,21.54-3.96,9.5.27,18.89,2.48,27.57,6.35"/><path class="b" d="M9.41,218.18c17.8,0,35.61,0,53.42,0,6.31,0,12.65,0,18.95,0,1.97,0,4.06,0,6.03,0,1.38.06,2.97-.18,4.31.2,3.1,3.06,6.06,6.44,9.48,9.15h24.98c8.25-5.76,14.88-7.99,24.98-7.69,11.32-.14,20.89,2.42,31.02,7.37"/><path class="b" d="M9.41,216.01h82.71c3.45,3.06,6.53,6.73,10.34,9.35,7.74,0,15.52,0,23.26,0,1.49-.51,2.9-1.64,4.31-2.34,1.9-1.03,3.99-1.97,6.03-2.69,4.66-1.7,9.72-2.01,14.65-2.03,5.19-.07,10.47.26,15.51,1.6,3.23.84,6.43,2.05,9.48,3.4,1.39.61,2.94,1.34,4.31,2,.76.09,1.82.07,2.58.07"/><path class="b" d="M9.41,213.85c15.5,0,31.02,0,46.52,0,7.46,0,14.94,0,22.4,0,4.58,0,9.21,0,13.78,0,1.3.58,2.37,1.97,3.45,2.88,2.46,2.24,4.98,4.62,7.75,6.48,7.17,0,14.37,0,21.54,0,.88-.01,1.83-.68,2.58-1.06,1.35-.72,2.89-1.47,4.31-2.05,3.56-1.47,7.36-2.51,11.2-2.87,7.45-.58,15.14-.95,22.4,1.13,3.86,1.09,7.61,2.74,11.2,4.51.7.42,1.8.34,2.58.33,1.08,0,2.37,0,3.45,0"/><path class="b" d="M9.41,211.68c18.09,0,36.19,0,54.28,0,6.31,0,12.65,0,18.95,0,3.42.11,6.95-.23,10.34.16,3.57,3.17,7.17,6.48,11.2,9.07,3.11.31,6.35.04,9.48.13,3.42,0,6.91,0,10.34,0,.86.15,1.83-.44,2.58-.77.76-.35,1.81-.81,2.58-1.13,3.03-1.22,6.26-2.16,9.48-2.75,3.68-.64,7.48-.79,11.2-.99,6.13-.42,12.39.24,18.09,2.61,2.33.85,4.59,2.14,6.89,3.03,2.55,0,5.2,0,7.75,0"/><path class="b" d="M9.41,209.51h83.57c4.24,3.14,8.09,7.1,12.92,9.35,2.26,0,4.63,0,6.89,0,3.71,0,7.49,0,11.2,0,2.04-.39,4.02-1.47,6.03-1.99,3.36-.98,6.86-1.72,10.34-2.12,5.14-.45,10.34-1.1,15.51-.94,4.16.18,8.27,1.34,12.06,3.01,1.4.61,2.95,1.35,4.31,2.04,3.42,0,6.92,0,10.34,0"/><path class="b" d="M9.41,207.35c18.95,0,37.91,0,56.86,0,8.89,0,17.81,0,26.71,0,1.29.35,2.37,1.61,3.45,2.35,2.2,1.7,4.53,3.45,6.89,4.91,1.33.75,2.79,1.78,4.31,2.09,1.38,0,2.93,0,4.31,0,3.71,0,7.49,0,11.2,0,1.44.1,2.94-.61,4.31-.94,1.94-.55,4.04-.98,6.03-1.32,6.26-1.03,12.64-1.6,18.95-2.19,3.77-.23,7.64.3,11.2,1.57,2.35.74,4.59,2.05,6.89,2.88,4,0,8.06,0,12.06,0"/><path class="b" d="M9.41,205.18c28.14.06,56.3-.12,84.43.06,3.06,2.28,6.2,4.62,9.48,6.58,1.88,1.03,3.9,2.31,6.03,2.71,4.87,0,9.78,0,14.65,0,1.99-.16,4.04-.83,6.03-1.06,2.84-.4,5.77-.71,8.62-1.06,6.87-.49,13.79-2.87,20.68-1.37,3.31.64,6.39,2.2,9.48,3.48,4.58,0,9.21,0,13.78,0"/><path class="b" d="M9.41,203.02c18.38,0,36.76,0,55.14,0,6.59,0,13.22,0,19.82,0,2.26,0,4.63,0,6.89,0,1.11.07,2.51-.27,3.45.48,5.12,3.41,10.27,7.49,16.37,8.88,3.71,0,7.49,0,11.2,0,4.02.16,8.05-.5,12.06-.73,5.52-.38,10.95-1.62,16.37-2.63,3.13-.48,6.42-.34,9.48.51,2.35.64,4.7,1.64,6.89,2.69,1.94.35,4.07.08,6.03.16,3.13,0,6.34,0,9.48,0"/><path class="b" d="M9.41,200.85c28.14,0,56.29,0,84.43,0,2.13.85,4.02,2.53,6.03,3.64,3.76,2.33,7.75,4.55,12.06,5.66,4,.12,8.06.01,12.06.05,4.29-.08,8.65.17,12.92-.11,4.4-.45,8.64-1.91,12.92-2.89,3.1-.66,6.4-.65,9.48.14,2.67.6,5.2,1.93,7.75,2.85,5.15,0,10.35,0,15.51,0"/><path class="b" d="M9.41,198.69c28.14,0,56.29,0,84.43,0,.88.14,1.84.86,2.58,1.31,1.37.84,2.92,1.78,4.31,2.6,3.79,2.22,7.79,4.29,12.06,5.41,4,.09,8.06,0,12.06.03,5.15-.03,10.36.07,15.51-.04,3.19-.8,6.27-2.22,9.48-2.96,3.09-.76,6.41-.7,9.48.12,2.65.67,5.24,1.84,7.75,2.89,5.15,0,10.35,0,15.51,0"/><path class="b" d="M9.41,196.52c18.66,0,37.34,0,56,0,6.31,0,12.65,0,18.95,0,2.26,0,4.63,0,6.89,0,1.44,0,3.11-.2,4.31.77,3.66,2.13,7.37,4.34,11.2,6.15,2.19.93,4.51,2.15,6.89,2.43,4.29,0,8.63,0,12.92,0,4.87,0,9.78,0,14.65,0,2.86-1.05,5.65-2.54,8.62-3.3,3.07-.84,6.41-.74,9.48.06,2.93.75,5.82,1.95,8.62,3.08,1.65.31,3.5.09,5.17.15,3.13,0,6.34,0,9.48,0"/><path class="b" d="M9.41,194.36c15.79,0,31.59,0,47.38,0,7.17,0,14.37,0,21.54,0,5.15,0,10.35,0,15.51,0,3.5,1.69,6.86,3.83,10.34,5.58,2.76,1.43,5.67,2.78,8.62,3.77,5.73.01,11.5,0,17.23,0,2.55,0,5.2,0,7.75,0,1.39-.11,3.08.34,4.31-.45,2.48-1.29,5.05-2.68,7.75-3.45,3.35-.99,6.99-.74,10.34.15,3.52.9,6.99,2.23,10.34,3.63,3.98.29,8.07.03,12.06.12"/><path class="b" d="M9.41,192.19c19.24,0,38.49,0,57.72,0,5.73,0,11.5,0,17.23,0,3.13.1,6.37-.22,9.48.15,5.16,2.66,10.21,5.64,15.51,8,1.06.42,2.29,1.11,3.45,1.2,2.26,0,4.63,0,6.89,0,4.87,0,9.78,0,14.65,0,1.97,0,4.06,0,6.03,0,3.12-1.61,6.05-3.82,9.48-4.8,3.9-1.2,8.18-.78,12.06.32,3.8,1.19,7.41,3.07,11.2,4.29,1.04.33,2.37.16,3.45.2,1.97,0,4.06,0,6.03,0"/><path class="b" d="M9.41,190.03c23.26,0,46.53,0,69.79,0,4.58.04,9.21-.08,13.78.05,1.98.98,4.07,2.05,6.03,3.08,4.25,2.11,8.4,4.76,12.92,6.23,9.18-.02,18.39.05,27.57-.03,5.8-4.11,11.44-8.03,18.95-6.59,3.9.86,7.45,2.95,11.2,4.27,4.11,1.46,8.55,2.35,12.92,2.35"/><path class="b" d="M9.41,187.86c19.52,0,39.06,0,58.59,0,8.03.05,16.1-.1,24.12.06,3.77,1.76,7.52,3.71,11.2,5.63,2.53,1.24,5.07,2.78,7.75,3.66,8.61,0,17.24,0,25.85,0,1.71.22,3.03-1.43,4.31-2.32,1.6-1.27,3.39-2.59,5.17-3.6,10.84-6.37,15.66,1.47,25.85,3.52,3.37.7,6.91.72,10.34.74"/><path class="b" d="M9.41,185.7c2.27.02,4.63-.05,6.89.04,3.68.77,7.53.75,11.2-.04,13.2,0,26.43,0,39.63,0,5.15,0,10.35,0,15.51,0,2.84.1,5.81-.22,8.62.16,6.15,2.7,12.03,6.05,18.09,8.93,1.02.44,2.36.22,3.45.27,1.97,0,4.06,0,6.03,0,5.73,0,11.5,0,17.23,0,2.01-.57,3.54-2.5,5.17-3.74,2.09-1.79,4.42-3.53,6.89-4.75.99-.54,2.3-.98,3.45-.86,1.38,0,2.93,0,4.31,0,3.63,1.05,6.84,3.3,10.34,4.67,5.15,2.25,10.91,1.83,16.37,1.36"/><path class="b" d="M9.41,183.53c2.05-.2,4.05.73,6.03,1.11,2.8.62,5.76.91,8.62.56,2.03-.24,4.12-.82,6.03-1.54,1.07-.2,2.36-.1,3.45-.12,12.63,0,25.28,0,37.91,0,4.29,0,8.63,0,12.92,0,1.68,0,3.49,0,5.17,0,1.42.49,2.93,1.25,4.31,1.86,3.18,1.46,6.37,3.08,9.48,4.68,1.96.93,3.95,2.19,6.03,2.82,4.87,0,9.78,0,14.65,0,3.42,0,6.92,0,10.34,0,1.95-.78,3.58-2.48,5.17-3.81,2.13-1.97,4.41-4.01,6.89-5.53,2.26-.03,4.63,0,6.89-.01,1.38.08,2.98-.21,4.31.24,10.33,6.12,13.19,6.47,24.98,4.42"/><path class="b" d="M9.41,181.86c7.05,2.43,13.64,3.53,20.68.38.45-.18,1.28-.56,1.72-.76.77-.15,1.81-.11,2.58-.11,1.68,0,3.49,0,5.17,0,9.76,0,19.54,0,29.29,0,4.58,0,9.21,0,13.78,0,1.97.05,4.07-.12,6.03.11,1.38.6,2.93,1.28,4.31,1.9,3.18,1.43,6.37,3.01,9.48,4.59,1.97.9,3.94,2.2,6.03,2.76,4.29,0,8.63,0,12.92,0,3.42,0,6.92,0,10.34,0,1.64-.06,3-1.63,4.31-2.5,2.65-2.14,5.07-4.73,7.75-6.83,4.29-.04,8.63,0,12.92-.02,2.09.92,3.97,2.52,6.03,3.53,6.47,3.73,13.07,1.73,19.82.14"/><path class="b" d="M9.41,180.61c8.73,3.14,14.99,3.28,23.26-1.2,1.92-.45,4.07-.11,6.03-.21,3.14,0,6.34,0,9.48,0,8.89,0,17.81,0,26.71,0,3.42,0,6.91,0,10.34,0,2.16-.29,4.11.96,6.03,1.76,5.24,2.28,10.33,4.98,15.51,7.4,1.05.31,2.36.16,3.45.19,1.68,0,3.49,0,5.17,0,4.87-.02,9.78.04,14.65-.03,2.85-1.44,5.42-3.56,7.75-5.72,1.37-1.15,2.68-2.82,4.31-3.61,2.84,0,5.77,0,8.62,0,1.07,0,2.37,0,3.45,0,.78,0,1.87-.08,2.58.3,1.06.77,2.35,1.7,3.45,2.43,7.78,5.56,14.15,2.83,22.4.37"/><path class="b" d="M9.41,179.21c9.42,3.43,15.46,2.88,24.12-2.06,5.42-.3,10.93-.02,16.37-.11,8.32,0,16.67,0,24.98,0,3.71,0,7.49,0,11.2,0,2.02.74,4.06,1.78,6.03,2.63,2.87,1.3,5.79,2.71,8.62,4.1,1.96.85,3.93,2.16,6.03,2.62,2.55,0,5.2,0,7.75,0,3.13,0,6.34,0,9.48,0,1.08,0,2.37.02,3.45-.03,1.1-.57,2.4-1.27,3.45-1.92,2.12-1.35,4.17-3.07,6.03-4.77,1.27-1.03,2.45-2.94,4.31-2.63,3.13,0,6.34,0,9.48,0,1.07,0,2.37,0,3.45,0,0,0,.86,0,.86,0,0,0,.86.45.86.45,10.34,9.03,14.83,6.87,26.71,2.58"/><path class="b" d="M9.41,177.67c8.29,3,14.67,2.86,22.4-1.52.77-.4,1.76-1,2.58-1.28,1.68,0,3.49,0,5.17,0,7.46,0,14.94,0,22.4,0,5.15,0,10.35,0,15.51,0,1.97,0,4.06,0,6.03,0,.42,0,1.3,0,1.72,0,.82.18,1.83.71,2.58,1.05,5.49,2.47,10.9,5.2,16.37,7.71.99.59,2.33.64,3.45.59,1.68,0,3.49,0,5.17,0,4,0,8.06,0,12.06,0,4.83-2.23,9.09-5.59,12.92-9.24,5.42-.29,10.93-.02,16.37-.11,11.32,10.66,14.95,8.85,28.43,3.42"/><path class="b" d="M9.41,175.96c8.31,2.9,14.73,2.54,22.4-1.85.77-.42,1.81-.99,2.58-1.4,1.38-.02,2.92,0,4.31,0,6.59,0,13.22,0,19.82,0,6.02,0,12.07,0,18.09,0,1.97,0,4.06,0,6.03,0,.77,0,1.82,0,2.58.02.42.21,1.3.64,1.72.84,5.45,2.58,10.87,5.33,16.37,7.8,1.06.58,2.23.79,3.45.68,1.68,0,3.49,0,5.17,0,3.42,0,6.92,0,10.34,0,1.87-.37,3.53-1.78,5.17-2.7,3.08-1.86,5.98-4.15,8.62-6.6,5.44-.13,10.93,0,16.37-.05,1.04.09,1.85,1.26,2.58,1.89,1.33,1.29,2.84,2.71,4.31,3.84,7.74,6.4,15.35,1.72,23.26-1.51"/><path class="b" d="M9.41,174.26c7.34,2.45,13.78,2.37,20.68-1.31,5.17-2.74,3.59-2.45,9.48-2.41,4.29,0,8.63,0,12.92,0,6.88,0,13.8,0,20.68,0,2.55,0,5.2,0,7.75,0,1.38.08,2.99-.23,4.31.27,5.97,2.98,11.94,6.08,18.09,8.66,1,.54,2.35.42,3.45.42,1.68,0,3.49,0,5.17,0,2.84-.01,5.77.03,8.62-.02,4.99-2.43,9.48-5.86,13.78-9.33,3.71,0,7.49,0,11.2,0,1.38,0,2.93,0,4.31,0,.83-.01,1.9-.11,2.58.46,3.18,3.03,6.81,7.85,11.2,8.9,2.84,0,5.77,0,8.62,0,3.56-.95,6.95-2.67,10.34-4.1"/><path class="b" d="M9.41,172.66c8.34,2.65,14.9,1.66,22.4-2.69,1.08-.52,2.24-1.42,3.45-1.6,1.97,0,4.06,0,6.03,0,10.33,0,20.68,0,31.02,0,2.55,0,5.2,0,7.75,0,1.38.08,2.98-.21,4.31.24,4.79,2.55,9.69,5,14.65,7.22,1.36.6,2.91,1.23,4.31,1.72,2.23.38,4.64.08,6.89.17,2.55,0,5.2,0,7.75,0,1.46-.54,2.98-1.4,4.31-2.21,2.36-1.45,4.7-3.18,6.89-4.87,1.32-.86,2.56-2.55,4.31-2.27,5.73,0,11.5,0,17.23,0,1.68,1,2.9,2.96,4.31,4.31,1.81,1.8,3.65,4.03,6.03,5.05,4.86-.08,9.8.17,14.65-.1,2.29-.91,4.65-1.95,6.89-2.96"/><path class="b" d="M9.41,171.16c8.36,2.51,15.01,1.09,22.4-3.26,1.08-.55,2.28-1.36,3.45-1.7,1.68,0,3.49,0,5.17,0,9.47,0,18.96,0,28.43,0,4.58,0,9.21,0,13.78,0,4.59,2.23,9.07,4.84,13.78,6.83,2.22.94,4.55,1.96,6.89,2.53.76,0,1.82,0,2.58,0,3.13,0,6.34,0,9.48,0,4.87-1.73,8.95-5.13,12.92-8.33.32-.35,1.26-.9,1.72-1.02.41,0,1.31,0,1.72,0,1.38,0,2.93,0,4.31,0,4,0,8.06,0,12.06,0,.4,0,1.31,0,1.72,0,1.42.67,2.37,2.4,3.45,3.49,1.84,2.02,3.68,4.42,6.03,5.87,4.29,0,8.63,0,12.92,0,1.68,0,3.49,0,5.17,0,1.77-.4,3.5-1.4,5.17-2.08"/><path class="b" d="M9.41,169.74c8.39,2.35,15.13.44,22.4-3.91,1.07-.58,2.32-1.32,3.45-1.79,1.97,0,4.06,0,6.03,0,10.33,0,20.68,0,31.02,0,1.97,0,4.06,0,6.03,0,1.39.12,3.15-.39,4.31.52,5.49,3.15,11.21,6.09,17.23,8.08,2.73,1.1,5.75.68,8.62.75,1.38-.03,2.94.09,4.31-.1,3.46-1.05,6.67-3.02,9.48-5.27,1.4-1.13,2.93-2.44,4.31-3.59.67-.49,1.8-.4,2.58-.39,4.29,0,8.63,0,12.92,0,1.67,0,3.49,0,5.17,0,.78,0,1.87-.08,2.58.31,2.48,2.96,4.9,6.19,7.75,8.81.74.31,1.8.24,2.58.24,1.38,0,2.93,0,4.31,0,3.42,0,6.92,0,10.34,0,1.68-.03,3.5.07,5.17-.07.77-.33,1.82-.79,2.58-1.13"/><path class="b" d="M9.41,168.36c8.42,2.15,15.23-.3,22.4-4.64,1.07-.6,2.34-1.31,3.45-1.84,1.97,0,4.06,0,6.03,0,10.04,0,20.11,0,30.15,0,1.97,0,4.06,0,6.03,0,1.42.03,3.12-.25,4.31.73,4.39,2.61,8.99,5,13.78,6.78,2.2.8,4.57,1.51,6.89,1.84,1.38,0,2.93,0,4.31,0,4.41.24,8.6-2,12.06-4.53,1.11-.84,2.39-1.92,3.45-2.84.98-.77,2.05-2.22,3.45-1.98,7.74.02,15.52-.03,23.26.02,2.49,3.09,4.91,6.44,7.75,9.22,5.14.29,10.36.02,15.51.11,1.97,0,4.06,0,6.03,0,1.39-.08,3.05.27,4.31-.45"/><path class="b" d="M9.41,166.99c5.19,1.15,10.7.51,15.51-1.75,3.57-1.56,6.83-3.86,10.34-5.53,3.42,0,6.91,0,10.34,0,9.76,0,19.54,0,29.29,0,1.08,0,2.37,0,3.45,0,.48-.09,1.32.12,1.72.39,2.76,1.71,5.68,3.36,8.62,4.75,7.83,3.79,17,6.11,24.98,1.44,3.19-1.7,5.71-4.5,8.62-6.58h25.85c2.82,2.78,4.88,6.47,7.75,9.23,3.11.31,6.35.04,9.48.13,5.73,0,11.5,0,17.23,0"/><path class="b" d="M9.41,165.56c5.27.99,10.75-.03,15.51-2.43,12.72-6.61,5.84-5.54,20.68-5.58,9.47,0,18.96,0,28.43,0,1.38,0,2.93,0,4.31,0,3.07,1.84,6.21,3.74,9.48,5.22,6.89,3.25,15.24,5.15,22.4,1.67,3.57-1.63,6.37-4.58,9.48-6.89,8.89,0,17.81,0,26.71,0,1.72-.36,2.56,1.6,3.45,2.69,1.59,2.14,3.35,4.44,5.17,6.39,1.32.5,2.93.18,4.31.27,1.97,0,4.06,0,6.03,0,5.73,0,11.5,0,17.23,0"/><path class="b" d="M9.41,163.98c7.47,1.2,14.55-2.2,20.68-6.13,1.37-.82,2.9-1.73,4.31-2.47,1.97,0,4.06,0,6.03,0,10.62,0,21.26,0,31.88,0,1.68,0,3.49,0,5.17,0,2,1.08,4.01,2.4,6.03,3.43,6.02,3.17,12.93,5.66,19.82,4.46,5.01-.88,9.19-4.16,12.92-7.42,0,0,.86-.47.86-.47h.86c.76,0,1.82,0,2.58,0,2.26,0,4.63,0,6.89,0,6.59,0,13.22,0,19.82,0,1.68,2.22,3.41,4.68,5.17,6.84.71.81,1.56,2.09,2.58,2.52h27.57"/><path class="b" d="M9.41,162.17c7.57.89,14.53-2.9,20.68-6.87,1.08-.65,2.35-1.42,3.45-2.04,1.97-.11,4.06-.03,6.03-.05,11.19,0,22.41,0,33.6,0,1.38.07,2.97-.19,4.31.21,1.93,1.15,4.01,2.33,6.03,3.33,5.53,2.71,11.9,4.83,18.09,3.43,3.11-.7,6.04-2.29,8.62-4.13.78-.56,1.84-1.37,2.58-1.98,0,0,.86-.71.86-.71l.86-.15c10.62,0,21.26,0,31.88,0,2.88,2.76,4.74,6.68,7.75,9.35h28.43"/><path class="b" d="M9.41,160.16c7.29.52,13.91-3.19,19.82-7.03,1.08-.66,2.34-1.47,3.45-2.08,1.97,0,4.06,0,6.03,0,12.06,0,24.13,0,36.18,0,.77,0,1.83-.05,2.58.16.43.24,1.29.72,1.72.95,1.36.73,2.9,1.51,4.31,2.15,5.06,2.31,10.86,3.72,16.37,2.3,2.75-.68,5.39-2,7.75-3.54.78-.51,1.84-1.25,2.58-1.81,1.04-.35,2.37-.17,3.45-.21,6.88,0,13.8,0,20.68,0,2.55,0,5.2,0,7.75,0,1.38.11,3.05-.31,4.31.37,2.17,2.95,4.41,6.07,6.89,8.77,1.34.41,2.93.15,4.31.22,1.97,0,4.06,0,6.03,0,6.31,0,12.65,0,18.95,0"/><path class="b" d="M9.41,157.96c5.21.08,10.22-1.89,14.65-4.5,1.71-.99,3.5-2.16,5.17-3.21.76-.46,1.7-1.17,2.58-1.37.45,0,1.28,0,1.72,0,5.73,0,11.5,0,17.23,0,8.89,0,17.81,0,26.71,0,1.19-.16,2.4.61,3.45,1.07,1.06.48,2.35,1.01,3.45,1.4,4.09,1.49,8.61,2.2,12.92,1.32,3.04-.6,5.97-1.93,8.62-3.52,1.6-.55,3.5-.16,5.17-.27,11.48.03,22.98-.07,34.46.04,2.47,3.05,4.68,6.87,7.75,9.32h29.29"/><path class="b" d="M9.41,155.52c7.76-.24,14.31-4.86,20.68-8.8,15.22,0,30.45,0,45.66,0,2.26,0,4.63,0,6.89,0,3.08.81,6.26,1.67,9.48,1.56,2.62-.03,5.3-.57,7.75-1.46,2.25-.23,4.63-.04,6.89-.1,12.63,0,25.28,0,37.91,0,2.68,2.93,4.92,6.44,7.75,9.24,10.03.3,20.12.01,30.15.11"/><path class="b" d="M9.41,152.82c7.03-.62,13.15-4.52,18.95-8.23,38.48-.09,76.97,0,115.45-.03,1.37.91,2.36,2.68,3.45,3.89,1.61,1.81,3.11,4.15,5.17,5.47h30.15"/><path class="b" d="M9.41,149.83c6.31-.86,11.88-4.2,17.23-7.44,12.92,0,25.85,0,38.77,0,12.63,0,25.28,0,37.91,0,10.04,0,20.11,0,30.15,0,2.26,0,4.63,0,6.89,0,1.11.07,2.51-.27,3.45.46,2.46,2.96,4.97,6.08,7.75,8.74,1.65.3,3.49.09,5.17.15,2.84,0,5.77,0,8.62,0,5.73-.08,11.51.16,17.23-.1"/><path class="b" d="M9.41,146.58c3.28-.62,6.49-1.82,9.48-3.29,2.04-.87,3.92-2.41,6.03-3.07,14.64,0,29.3,0,43.94,0,11.77,0,23.56,0,35.32,0,11.48,0,22.98,0,34.46,0,1.38.1,3.03-.29,4.31.34.4.49,1.31,1.48,1.72,1.97,2.17,2.38,4.29,5.11,6.89,7.04,6.59,0,13.22,0,19.82,0,2.26,0,4.63,0,6.89,0,1.43.02,3.05.15,4.31-.68"/><path class="b" d="M9.41,143.1c2.64-.59,5.29-1.53,7.75-2.63,1.72-.69,3.41-1.84,5.17-2.41,8.89,0,17.81,0,26.71,0,19.52,0,39.06,0,58.59,0,10.91,0,21.83,0,32.74,0,.43-.06,1.32.09,1.72.29,0,0,.86.92.86.92.76.83,1.82,1.96,2.58,2.78,1.33,1.42,2.87,2.97,4.31,4.27.28.38,1.25.99,1.72,1.09.4,0,1.31,0,1.72,0,6.02,0,12.07,0,18.09,0,2.55,0,5.2,0,7.75,0,1.18-.09,2.38-.89,3.45-1.35"/><path class="b" d="M9.41,139.44c2.32-.59,4.69-1.41,6.89-2.34,1.37-.58,2.76-1.43,4.31-1.21,9.76,0,19.54,0,29.29,0,20.67,0,41.36,0,62.03,0,6.31,0,12.65,0,18.95,0,1.97,0,4.06,0,6.03,0,1.38.09,3-.25,4.31.29,3.06,3.03,6.07,6.27,9.48,8.91,1.35.3,2.93.11,4.31.16,2.26,0,4.63,0,6.89,0,3.71,0,7.49,0,11.2,0,1.67-.05,3.51.11,5.17-.11,1.39-.61,2.94-1.32,4.31-1.98"/><path class="b" d="M9.41,135.65c1.4-.38,2.94-.87,4.31-1.36.77-.29,1.75-.67,2.58-.57,5.73,0,11.5,0,17.23,0,12.63,0,25.28,0,37.91,0,11.77,0,23.56,0,35.32,0,10.62,0,21.26,0,31.88,0,1.84-.26,3.03,1.75,4.31,2.75,2.45,2.28,5,4.63,7.75,6.54,5.72.17,11.5.01,17.23.06,2.84-.1,5.81.23,8.62-.16,1.99-.85,4.08-1.8,6.03-2.73"/><path class="b" d="M9.41,131.82c1.61-.51,3.5-.16,5.17-.26,2.56,0,5.2,0,7.75,0,8.03,0,16.09,0,24.12,0,22.4,0,44.8,0,67.2,0,5.73,0,11.5,0,17.23,0,2.55,0,5.2,0,7.75,0,1.56.82,2.93,2.32,4.31,3.41,2.44,2.08,5.01,4.22,7.75,5.89,3.42.13,6.92.02,10.34.05,4.29,0,8.63,0,12.92,0,2.92-1.05,5.8-2.44,8.62-3.72"/><path class="b" d="M9.41,129.4c42.79.03,85.58-.05,128.37.03,3.16,2.33,6.23,4.92,9.48,7.13,1.05.71,2.33,1.5,3.45,2.09,1.07.18,2.37.09,3.45.11,3.71,0,7.49,0,11.2,0,2.26-.09,4.67.22,6.89-.17,3.48-1.32,6.95-2.86,10.34-4.4"/><path class="b" d="M9.41,127.23c33.6,0,67.2,0,100.8,0,6.02,0,12.07,0,18.09,0,2.55,0,5.2,0,7.75,0,1.85.74,3.5,2.25,5.17,3.32,3.28,2.17,6.54,4.88,10.34,6.03,2.84,0,5.77,0,8.62,0,2.84,0,5.77,0,8.62,0,4.7-1.17,9.29-3.56,13.78-5.41"/><path class="b" d="M9.41,125.07c33.02,0,66.05,0,99.08,0,6.02,0,12.07,0,18.09,0,2.84.11,5.82-.25,8.62.18,1.7,1.01,3.5,2.16,5.17,3.21,3.55,2.25,7.2,4.58,11.2,5.95,2.84.02,5.77,0,8.62.01,2.25-.11,4.68.24,6.89-.19,5.29-1.61,10.4-3.9,15.51-6.01"/><path class="b" d="M9.41,122.9c32.74,0,65.48,0,98.22,0,5.73,0,11.5,0,17.23,0,2.84.11,5.81-.23,8.62.17,1.71.86,3.51,1.9,5.17,2.86,4.37,2.48,8.82,5.25,13.78,6.33,1.67,0,3.49,0,5.17,0,2.56-.09,5.28.31,7.75-.5,5.89-1.67,11.53-4.21,17.23-6.42"/><path class="b" d="M9.41,120.74c32.16,0,64.33,0,96.49,0,5.73,0,11.5,0,17.23,0,2.55,0,5.2,0,7.75,0,2.05.72,4.1,1.79,6.03,2.79,4.93,2.61,9.95,5.46,15.51,6.43,1.36.25,2.93.09,4.31.13,1.69.02,3.52.05,5.17-.36,7.14-1.55,13.82-4.75,20.68-7.2"/><path class="b" d="M9.41,118.57c31.59,0,63.18,0,94.77,0,5.73,0,11.5,0,17.23,0,1.97,0,4.06,0,6.03,0,3,.44,5.88,1.82,8.62,3.07,4.45,2.14,8.92,4.56,13.78,5.61,6.37,1.53,12.95-.08,18.95-2.31,4.58-1.67,9.17-3.5,13.78-5.08"/><path class="b" d="M9.41,116.41c31.01,0,62.03,0,93.05,0,5.73,0,11.5,0,17.23,0,1.67.07,3.52-.16,5.17.16,3.2.72,6.47,1.52,9.48,2.84,4.26,1.81,8.43,4.05,12.92,5.26,6.88,2.03,14.14.43,20.68-2.07,4.85-1.78,9.71-3.7,14.65-5.26"/><path class="b" d="M9.41,114.24c30.44,0,60.89,0,91.32,0,6.31,0,12.65-.02,18.95,0,4.34.73,8.77,1.5,12.92,2.97,4.61,1.71,9.02,4.12,13.78,5.4,7.2,2.16,14.75.18,21.54-2.48,4.82-1.83,9.69-3.71,14.65-5.14"/><path class="b" d="M9.41,112.08c17.51,0,35.04,0,52.55,0,1.72-.14,3.48.41,5.17.62,1.96.26,4.05.36,6.03.39,10.05-.01,20.11-.6,30.15-.61,5.15-.03,10.36-.08,15.51.19,4.94.62,9.98,1.48,14.65,3.27,4.82,1.89,9.51,4.4,14.65,5.35,1.65.3,3.5.09,5.17.15,1.69.04,3.52.02,5.17-.43,8.25-2.01,15.87-6.12,24.12-8.15"/><path class="b" d="M9.41,109.91c10.33,0,20.68,0,31.02,0,5.15.04,10.36-.07,15.51.05,1.91.8,3.98,1.51,6.03,1.84,5.98.95,12.09.09,18.09-.18,7.45-.42,14.94-.53,22.4-.64,5.73-.03,11.51-.18,17.23.03,4.07.44,8.18,1.23,12.06,2.54,4.92,1.77,9.54,4.5,14.65,5.73,2.55,0,5.2,0,7.75,0,1.38-.01,2.93.04,4.31-.04,2.92-.72,5.82-1.83,8.62-2.95,5.05-2.06,10.2-4.07,15.51-5.36"/><path class="b" d="M9.41,107.74c13.2,0,26.43,0,39.63,0,1.85-.14,3.5,1.21,5.17,1.82,2.15.91,4.56,1.42,6.89,1.54,6.06.23,12.07-1.15,18.09-1.57,6.87-.58,13.79-.5,20.68-.59,4.87-.06,9.78-.09,14.65-.02,5.24-.1,10.5.42,15.51,2.06,5.06,1.53,9.54,4.79,14.65,6.11,4.58,0,9.21,0,13.78,0,1.44.12,2.99-.18,4.31-.77,1.69-.63,3.5-1.38,5.17-2.08,4.74-2.01,9.61-3.89,14.65-5.04"/><path class="b" d="M9.41,105.58c8.32,0,16.67,0,24.98,0,2.56,0,5.2,0,7.75,0,1.38.06,2.96-.18,4.31.2,1.96,1.03,3.97,2.27,6.03,3.08,3.55,1.38,7.5,1.28,11.2.66,4.87-.83,9.72-2.09,14.65-2.61,5.42-.63,10.92-.56,16.37-.51,6.88.1,13.8-.09,20.68.19,4.03.15,8.16.25,12.06,1.4,3.64.92,7.05,2.71,10.34,4.48,1.07.57,2.36,1.24,3.45,1.77.7.38,1.76.82,2.58.7,3.42,0,6.92,0,10.34,0,1.97,0,4.06,0,6.03,0,1.08-.04,2.41.14,3.45-.22,6.21-2.58,12.34-5.57,18.95-6.98"/><path class="b" d="M9.41,103.41c8.32,0,16.67,0,24.98,0,2.85.03,5.77-.06,8.62.04,2.51,1.52,4.98,3.37,7.75,4.39,3.59,1.32,7.57.94,11.2,0,5.14-1.35,10.22-3.21,15.51-3.95,4.25-.72,8.63-.41,12.92-.47,4.29-.05,8.63.17,12.92.19,7.47.06,15.04.05,22.4,1.43,4.01.85,7.73,2.79,11.2,4.92,1.67.91,3.34,2.25,5.17,2.81.76,0,1.82,0,2.58,0,7.14-.11,14.44.21,21.54-.12,5.29-2.42,10.66-4.9,16.37-6.18"/><path class="b" d="M9.41,101.25c7.17,0,14.37,0,21.54,0,3.14,0,6.34,0,9.48,0,1.83.88,3.45,2.43,5.17,3.51,5.83,4.1,11.99,2.66,18.09.12,3.1-1.22,6.26-2.52,9.48-3.41,1.34-.4,2.93-.15,4.31-.21,7.74,0,15.52,0,23.26,0,4.58,0,9.21,0,13.78,0,2.57-.03,5.23-.05,7.75.48,2.3.38,4.71.78,6.89,1.64,4.41,1.65,8.1,4.78,12.06,7.23,9.18,0,18.39,0,27.57,0,1.76-.5,3.47-1.56,5.17-2.23,2.76-1.2,5.69-2.25,8.62-2.99"/><path class="b" d="M9.41,99.08c9.47,0,18.96,0,28.43,0,1.73-.21,3.04,1.49,4.31,2.41,1.54,1.31,3.31,2.6,5.17,3.4,3.57,1.62,7.68,1.06,11.2-.39,3.8-1.51,7.42-3.61,11.2-5.16,1.85-.56,4.1-.14,6.03-.26,3.71,0,7.49,0,11.2,0,8.32,0,16.67,0,24.98,0,2.84,0,5.77,0,8.62,0,1.08,0,2.37,0,3.45,0,.76.19,1.82.46,2.58.66,3.86.85,7.26,3.11,10.34,5.5,1.39,1,2.79,2.37,4.31,3.19,1.07,0,2.37,0,3.45,0,9.18,0,18.39,0,27.57,0,1.46-.34,2.91-1.27,4.31-1.81,1.92-.83,4.02-1.6,6.03-2.19"/><path class="b" d="M9.41,96.92c8.61,0,17.24,0,25.85,0,1.63-.26,3.04.75,4.31,1.62,1.98,1.38,3.91,3.09,6.03,4.26,6.11,3.57,12.72-.29,18.09-3.46,1.37-.79,2.91-1.66,4.31-2.39,1.08-.06,2.37-.03,3.45-.03,13.2,0,26.43,0,39.63,0,4.29,0,8.63,0,12.92,0,7.05-.62,12.27,5.2,17.23,9.35,8.03,0,16.09,0,24.12,0,2.26,0,4.63,0,6.89,0,1.38-.05,2.95.15,4.31-.17,1.93-.94,4.01-1.85,6.03-2.57"/><path class="b" d="M9.41,96.03c1.96-.48,4.04-.91,6.03-1.23,4-.13,8.06-.01,12.06-.05,2.26.11,4.71-.32,6.89.42,6.77,1.98,12.11,9.49,19.82,6.6,3.41-1.15,6.47-3.28,9.48-5.21.77-.49,1.81-1.17,2.58-1.64,1.36-.31,2.93-.11,4.31-.17,18.38,0,36.76,0,55.14,0,1.38.05,2.96-.15,4.31.17,4.05,1.68,7.29,4.84,10.34,7.91.28.43,1.23,1.13,1.72,1.28.41,0,1.31,0,1.72,0,1.68,0,3.49,0,5.17,0,6.88,0,13.8,0,20.68,0,2.55,0,5.2,0,7.75,0,.76,0,1.84.05,2.58-.18.74-.35,1.82-.81,2.58-1.12"/><path class="b" d="M9.41,95.24c7.84-1.79,16.17-2.91,24.12-1.19,3.08.67,5.85,2.37,8.62,3.8,8.77,4.77,13.28,1.91,20.68-3.35.77-.54,1.81-1.28,2.58-1.81,2.25-.23,4.63-.05,6.89-.1,4.58,0,9.21,0,13.78,0,13.49,0,27,0,40.49,0,1.68,0,3.49-.01,5.17.01,1.11.63,2.43,1.41,3.45,2.19,1.83,1.42,3.6,3.21,5.17,4.91,1.57,1.69,1.7,2.47,4.31,2.25,12.63,0,25.28,0,37.91,0"/><path class="b" d="M9.41,94.06c8.13-1.79,16.78-2.97,24.98-1.04,3.59.94,6.83,3,10.34,4.16,3.95,1.44,8.46,1.1,12.06-1.11,1.76-.99,3.54-2.25,5.17-3.45,1.08-.7,2.17-1.89,3.45-2.2,7.17,0,14.37,0,21.54,0,15.5,0,31.02,0,46.52,0,2.17,1.34,4.3,3.02,6.03,4.9,1.46,1.35,2.61,3.41,4.31,4.45h38.77"/><path class="b" d="M9.41,92.52c7.59-1.66,15.53-2.67,23.26-1.47,3.61.57,6.95,2.26,10.34,3.52,8.87,3.5,14.82-1.01,21.54-6.29,16.08-.1,32.17,0,48.25-.04,6.88,0,13.8,0,20.68,0,.42-.04,1.31.04,1.72.16.42.3,1.31.92,1.72,1.23,3.05,2.1,5.32,5.23,7.75,7.97h37.91"/><path class="b" d="M9.41,90.69c7.87-1.66,16.13-2.72,24.12-1.36,3.57.63,6.91,2.26,10.34,3.37,8.25,2.82,14.44-1.86,20.68-6.61,19.81,0,39.63,0,59.45,0,3.71,0,7.49,0,11.2,0,.93-.19,1.89.58,2.58,1.1.78.58,1.84,1.4,2.58,2.03,1.54,1.36,3.03,3.12,4.31,4.72.96,1.54,1.73,1.59,3.45,1.5,2.84,0,5.77,0,8.62,0,8.61,0,17.24,0,25.85,0"/><path class="b" d="M9.41,88.62c7.88-1.63,16.11-2.68,24.12-1.43,3.57.55,6.94,2.02,10.34,3.17,8.05,2.84,14.55-1.73,20.68-6.43,16.65,0,33.32,0,49.97,0,7.17,0,14.37,0,21.54,0,1.68-.2,3.03,1.37,4.31,2.22,2.7,1.9,4.78,4.64,6.89,7.13h35.32"/><path class="b" d="M9.41,86.36c7.89-1.6,16.1-2.64,24.12-1.52,3.87.5,7.52,2.05,11.2,3.27,7.48,2.53,14.11-1.87,19.82-6.27,20.38-.23,40.79,0,61.17-.08,4,0,8.06,0,12.06,0,1.89.71,3.55,2.26,5.17,3.44,8.87,7.62.89,5.65,15.51,5.91,8.03,0,16.09,0,24.12,0"/><path class="b" d="M9.41,83.95c8.74-1.71,17.88-2.89,26.71-1.18,4.7.75,8.96,3.56,13.78,3.62,3.72.07,7.26-1.59,10.34-3.55,1.1-.7,2.38-1.58,3.45-2.34.4-.34,1.2-.83,1.72-.91,12.92,0,25.85,0,38.77,0,8.32,0,16.67,0,24.98,0,3.13,0,6.34,0,9.48,0,4.35,2.25,8.21,5.49,11.2,9.35h32.74"/><path class="b" d="M9.41,81.45c9.31-1.8,19.06-3.01,28.43-1.01,3.23.7,6.29,2.18,9.48,3.01,6.83,1.88,12.74-2.37,18.09-6.02,20.67,0,41.36,0,62.03,0,3.71,0,7.49,0,11.2,0,2.53.62,4.76,2.44,6.89,3.87,8.96,6.93.95,5.29,14.65,5.49,7.46,0,14.94,0,22.4,0"/><path class="b" d="M9.41,78.9c9.32-1.77,19.02-3,28.43-1.24,4.4.8,8.45,3.22,12.92,3.64,3.66.31,7.25-1.13,10.34-2.98,1.11-.66,2.39-1.5,3.45-2.22.4-.33,1.2-.78,1.72-.83,13.2,0,26.43,0,39.63,0,8.03,0,16.09,0,24.12,0,3.13.05,6.35-.11,9.48.08,4.99,1.92,9.61,5.05,12.92,9.28h30.15"/><path class="b" d="M9.41,76.34c8.48-1.6,17.22-2.76,25.85-1.85,3.86.32,7.57,1.65,11.2,2.92,7.7,3.2,13.49.08,19.82-4.3,20.96-.03,41.93,0,62.89,0,3.42.03,6.92-.06,10.34.04,2.72.74,5.37,2.02,7.75,3.52,1.9,1.13,3.78,2.6,5.17,4.33,1.13,1.87,2.43,1.43,4.31,1.46,8.61,0,17.24,0,25.85,0"/><path class="b" d="M9.41,73.81c9.61-1.75,19.56-3.18,29.29-1.65,4.42.81,8.54,2.88,12.92,3.8,3.89.71,7.84-.64,11.2-2.55.78-.44,1.83-1.07,2.58-1.54.71-.49,1.69-1.1,2.58-.94,12.92,0,25.85,0,38.77,0,7.74,0,15.52,0,23.26,0,1.97,0,4.06,0,6.03,0,1.38.06,2.96-.16,4.31.19,4.05.94,7.93,2.9,11.2,5.46,1.2,1.05,2.33,2.59,3.45,3.71h27.57"/><path class="b" d="M9.41,71.34c9.9-1.72,20.13-3.43,30.15-1.84,4.4.86,8.56,2.81,12.92,3.81,3.86.79,7.82-.48,11.2-2.32,1.68-.73,3.22-2.43,5.17-2.22,12.92,0,25.85,0,38.77,0,7.74,0,15.52,0,23.26,0,3.42.11,6.95-.24,10.34.17,5.7,1.15,11.36,4.02,14.65,8.96,1.04.37,2.36.19,3.45.23,1.97,0,4.06,0,6.03,0,5.73,0,11.5,0,17.23,0"/><path class="b" d="M9.41,68.96c6.55-1.06,13.16-2.48,19.82-2.36,2.27,0,4.63,0,6.89,0,1.39,0,2.95-.08,4.31.26,4.68.92,9.1,3.03,13.78,3.94,3.24.5,6.57-.42,9.48-1.82,1.11-.52,2.39-1.22,3.45-1.83.43-.34,1.17-.62,1.72-.55,13.2,0,26.43,0,39.63,0,8.61,0,17.24,0,25.85,0,2.55,0,5.2,0,7.75,0,2.36.31,4.75,1.11,6.89,2.15,1.8.91,3.76,1.96,5.17,3.44,1.18,1.09,2.06,2.94,3.45,3.77h24.98"/><path class="b" d="M9.41,66.7c4.57-.79,9.19-1.59,13.78-2.19,3.99-.19,8.06-.02,12.06-.07,2.26.01,4.63-.02,6.89.02,3.77.89,7.47,2.27,11.2,3.31,3.71,1.16,7.74.37,11.2-1.24.78-.35,1.83-.87,2.58-1.27.73-.42,1.71-.97,2.58-.82,8.89,0,17.81,0,26.71,0,11.48,0,22.98,0,34.46,0,3.13,0,6.34,0,9.48,0,1.97.09,4.12-.27,6.03.32,2.74.86,5.53,2.16,7.75,4,1.62,1.41,2.78,3.56,4.31,5.04h24.12"/><path class="b" d="M9.41,64.57c4.58-.76,9.19-1.66,13.78-2.29,4.29,0,8.63,0,12.92,0,2.84.04,5.77-.08,8.62.06,3.74.96,7.43,2.36,11.2,3.21,3.2.59,6.53-.2,9.48-1.47,1.68-.6,3.29-2.01,5.17-1.8,9.76,0,19.54,0,29.29,0,11.48,0,22.98,0,34.46,0,4.58,0,9.21,0,13.78,0,2.45.88,4.99,2.11,6.89,3.91,1.61,1.56,2.82,3.79,4.31,5.45h23.26"/><path class="b" d="M9.41,62.58c4.59-.76,9.2-1.71,13.78-2.47,4.58,0,9.21,0,13.78,0,3.42.11,6.95-.23,10.34.16,3.43.87,6.84,2.21,10.34,2.79,2.61.32,5.31-.23,7.75-1.14.78-.29,1.83-.73,2.58-1.07.75-.35,1.73-.88,2.58-.74,11.19,0,22.41,0,33.6,0,11.19,0,22.41,0,33.6,0,4.29,0,8.63,0,12.92,0,2.29,1.06,4.54,2.56,6.03,4.63,1.16,1.41,2.15,3.43,3.45,4.72h22.4"/><path class="b" d="M9.41,60.74c4.89-.78,9.76-2.02,14.65-2.8,5.15,0,10.35,0,15.51,0,3.13.03,6.35-.07,9.48.05,3.71.84,7.36,2.51,11.2,2.57,2.34-.02,4.72-.65,6.89-1.47,1.37-.52,2.79-1.36,4.31-1.15,12.06,0,24.13,0,36.19,0,10.91,0,21.83,0,32.74,0,2.84,0,5.77,0,8.62,0,3.4-.04,4.3-.34,6.89,2.43,1.24,1.39,2.47,3.25,3.45,4.84,0,0,.86,1.43.86,1.43l.86.65h21.54"/><path class="b" d="M9.41,59.04c5.2-.86,10.33-2.29,15.51-3.26,4.87,0,9.78,0,14.65,0,2.56,0,5.2,0,7.75,0,1.38.05,2.95-.15,4.31.17,3.39.78,6.79,2.27,10.34,1.99,2.66-.18,5.31-1.05,7.75-2.06,1.96-.22,4.06-.05,6.03-.1,10.91,0,21.83,0,32.74,0,10.62,0,21.26,0,31.88,0,3.71,0,7.49,0,11.2,0,.75,0,1.83,0,2.58,0,.54.2,1.36.92,1.72,1.35,2.02,2.32,3.65,5.24,5.17,7.89,7.15.3,14.37.02,21.54.11"/><path class="b" d="M9.41,57.46c5.51-1,10.93-2.57,16.37-3.85,7.46,0,14.94,0,22.4,0,1.97.09,4.11-.24,6.03.28,1.68.4,3.47.97,5.17,1.3,1.97.33,4.09.2,6.03-.23,1.1-.25,2.38-.64,3.45-1.01.43-.22,1.24-.39,1.72-.33,4.29,0,8.63,0,12.92,0,9.47,0,18.96,0,28.43,0,10.33,0,20.68,0,31.02,0,3.71,0,7.49,0,11.2,0,1.67-.35,2.63,1.52,3.45,2.65,1.53,2.04,2.52,4.89,4.31,6.7h20.68"/><path class="b" d="M9.41,55.99c4.06-.79,8.09-1.94,12.06-3.06,2.53-.66,5.1-1.7,7.75-1.48,8.61,0,17.24,0,25.85,0,2.83.56,5.69,1.63,8.62,1.22,1.72-.17,3.53-.62,5.17-1.15,2.84-.16,5.77-.02,8.62-.07,6.88,0,13.8,0,20.68,0,19.24,0,38.49,0,57.72,0,1.13.62,1.9,2.26,2.58,3.29,1.13,1.87,2.31,4.2,3.45,6.06h20.68"/><path class="b" d="M9.41,54.57c6.44-1.26,12.58-3.83,18.95-5.29,9.18,0,18.39,0,27.57,0,1.43-.13,2.92.28,4.31.55,1.97.3,4.09.15,6.03-.24,1.64-.47,3.48-.28,5.17-.31,2.26,0,4.63,0,6.89,0,6.88,0,13.8,0,20.68,0,19.24.02,38.49-.05,57.72.03,1.89,2.85,3.57,6.15,5.17,9.16,2.52.39,5.21.07,7.75.17,4.29,0,8.63,0,12.92,0"/><path class="b" d="M9.41,53.18c6.75-1.48,13.15-4.3,19.82-6.07,13.49,0,27,.01,40.49,0,29,0,58.01,0,87.02,0,2.11,2.66,3.51,6.14,5.17,9.09,1.03.43,2.36.21,3.45.26,1.38,0,2.93,0,4.31,0,4.29,0,8.63,0,12.92,0"/><path class="b" d="M9.41,51.78c6.77-1.61,13.15-4.59,19.82-6.55,1.04-.4,2.35-.25,3.45-.28,1.68,0,3.49,0,5.17,0,5.15,0,10.35,0,15.51,0,10.91,0,21.83,0,32.74,0,23.55,0,47.1,0,70.65,0,2.1,2.72,3.47,6.27,5.17,9.25,6.86.29,13.8.02,20.68.11"/><path class="b" d="M9.41,50.31c7.09-1.78,13.68-5.15,20.68-7.21,1.05-.4,2.35-.32,3.45-.32,1.68,0,3.49,0,5.17,0,4.87,0,9.78,0,14.65,0,10.91,0,21.83,0,32.74,0,23.55,0,47.1,0,70.65,0,1.83,2.95,3.25,6.46,5.17,9.35h20.68"/><path class="b" d="M9.41,48.75c7.68-2.01,14.73-5.97,22.4-8.03,7.15-.28,14.37-.01,21.54-.1,10.91,0,21.83,0,32.74,0,23.26,0,46.53,0,69.79,0,.71.26,1.43,1.58,1.72,2.22.43.81,1.3,2.45,1.72,3.27.72,1.15,1.31,3.21,2.58,3.86h20.68"/><path class="b" d="M9.41,47.06c8.28-2.13,15.73-6.9,24.12-8.61,6.59,0,13.22,0,19.82,0,11.48,0,22.98,0,34.46,0,14.64,0,29.3,0,43.94,0,5.15,0,10.35,0,15.51,0,2.82.12,5.83-.25,8.62.18,1.72,2.95,3.18,6.39,5.17,9.17h21.54"/><path class="b" d="M9.41,45.24c8.58-2.2,16.26-7.24,24.98-8.95,6.31,0,12.65,0,18.95,0,11.19,0,22.41,0,33.6,0,14.64,0,29.3,0,43.94,0,5.15,0,10.35,0,15.51,0,1.67,0,3.49,0,5.17,0,1.08.03,2.4-.12,3.45.19,1.69,2.97,3.37,6.26,5.17,9.16h22.4"/><path class="b" d="M9.41,43.26c8.89-2.18,16.81-7.45,25.85-9.14,3.71,0,7.49,0,11.2,0,12.92,0,25.85,0,38.77,0,22.68,0,45.38,0,68.06,0,1.2.69,1.86,2.57,2.58,3.67,1.05,1.79,2.21,4,3.45,5.68h23.26"/><path class="b" d="M9.41,41.15c9.22-2.05,17.37-7.51,26.71-9.2,2.85,0,5.77,0,8.62,0,13.78,0,27.58,0,41.35,0,14.35,0,28.72,0,43.08,0,4.87,0,9.78,0,14.65,0,1.67,0,3.49,0,5.17,0,1.08.04,2.4-.14,3.45.21,1.09,1.78,2.36,3.92,3.45,5.71.71,1.05,1.44,2.77,2.58,3.44h24.12"/><path class="b" d="M9.41,38.93c9.56-1.79,17.97-7.4,27.57-9.14,1.97,0,4.06,0,6.03,0,14.35,0,28.72,0,43.08,0,14.07,0,28.15,0,42.22,0,4.87,0,9.78,0,14.65,0,1.67,0,3.49,0,5.17,0,.78,0,1.87-.09,2.58.33,2.01,2.92,3.73,6.33,6.03,9.02h25.85"/><path class="b" d="M9.41,36.61c9.07-1.13,16.99-6.33,25.85-8.32,1.66-.49,3.44-.78,5.17-.66,1.97,0,4.06,0,6.03,0,5.44,0,10.93,0,16.37,0,28.43,0,56.86,0,85.29,0,2.57,2.8,4.11,6.79,6.89,9.35h27.57"/><path class="b" d="M9.41,34.22c7.6-.35,14.43-4.2,21.54-6.51,2.8-.89,5.72-1.75,8.62-2.25,2.26,0,4.63,0,6.89,0,33.02,0,66.05,0,99.08,0,2.46,2.92,4.49,6.39,6.89,9.35h30.15"/><path class="b" d="M9.41,31.78c8.23.31,15.6-4.05,23.26-6.37,2.53-.81,5.23-1.3,7.75-2.12,3.42,0,6.91,0,10.34,0,18.09,0,36.19,0,54.28,0,9.18,0,18.39,0,27.57,0,2.26,0,4.63,0,6.89,0,1.11.07,2.52-.28,3.45.5,2.37,2.82,4.39,6.15,6.89,8.86h32.74"/><path class="b" d="M9.41,29.29c7.23,1,14.05-2.31,20.68-4.68,3.91-1.47,8.09-2.22,12.06-3.47,2.26,0,4.63,0,6.89,0,17.51,0,35.04,0,52.55,0,8.89,0,17.81,0,26.71,0,2.26,0,4.63,0,6.89,0,1.38.12,3.11-.37,4.31.45,2.36,2.74,4.66,5.73,6.89,8.57,1.49.67,3.54.21,5.17.33,2.55,0,5.2,0,7.75,0,7.74,0,15.52,0,23.26,0"/><path class="b" d="M9.41,26.72c7.76,1.89,15.22-1.89,22.4-4.34,2.49-.91,5.19-1.38,7.75-2.02,1.42-.35,2.89-1.07,4.31-1.39,2.85,0,5.77,0,8.62,0,27.57,0,55.14,0,82.71,0,1.32.82,2.39,2.38,3.45,3.5,1.73,1.85,3.25,4.2,5.17,5.85h38.77"/><path class="b" d="M9.41,24.03c8.87,3.17,17.42-2.1,25.85-4.28,3.52-.66,7.06-1.48,10.34-2.95,3.71,0,7.49,0,11.2,0,24.98,0,49.97,0,74.95,0,3.06,2.82,5.83,6.12,8.62,9.21,4.77.36,9.83.03,14.65.14,9.18,0,18.39,0,27.57,0"/><path class="b" d="M9.41,21.17c10.77,4.72,19.48-2.62,30.15-3.75,2.94-.59,5.85-1.64,8.62-2.78,4.29,0,8.63,0,12.92,0,22.4,0,44.8,0,67.2,0,3.27,2.96,6.18,6.45,9.48,9.35h44.8"/><path class="b" d="M9.41,18.36c7.64,4.27,14.69,1.79,22.4-.57,2.5-.77,5.17-1.05,7.75-1.36,2-.32,4.09-.84,6.03-1.41,1.4-.43,2.96-.94,4.31-1.5.77-.33,1.74-.92,2.58-1.05,4.29,0,8.63,0,12.92,0,19.81,0,39.63,0,59.45,0,2.38,1.97,4.59,4.35,6.89,6.42,1.08.92,2.15,2.31,3.45,2.94,4.29,0,8.63,0,12.92,0,11.48,0,22.98,0,34.46,0"/><path class="b" d="M9.41,15.55c7.31,4.86,13.59,3.78,21.54,1.61,3.08-.86,6.33-1,9.48-1.46,3.17-.64,6.48-1.27,9.48-2.51,1.12-.48,2.39-1.15,3.45-1.76.77-.41,1.66-1.19,2.58-1.13,4,0,8.06,0,12.06,0,17.23,0,34.47,0,51.69,0,.42,0,1.3,0,1.72,0,.51.2,1.35.84,1.72,1.24,1.08.98,2.37,2.16,3.45,3.14,1.35,1.24,2.91,2.59,4.31,3.77.34.37,1.26,1,1.72,1.2.41,0,1.31,0,1.72,0,16.08,0,32.17,0,48.25,0"/><path class="b" d="M9.41,12.84c7.92,5.89,14.22,5.07,23.26,3.02,4.29-.78,8.7-1.11,12.92-2.24,3.97-1.02,7.67-3.02,11.2-5.06,1.23-.76,2.92-.3,4.31-.41,2.26,0,4.63,0,6.89,0,6.59,0,13.22,0,19.82,0,10.04,0,20.11,0,30.15,0,1.67.43,2.94,2.11,4.31,3.09,2.53,2.09,5.02,4.44,7.75,6.26h52.55"/></svg>