<?xml version="1.0" encoding="UTF-8"?><svg id="a" xmlns="http://www.w3.org/2000/svg" width="1920" height="2400" viewBox="0 0 192 240"><defs><style>.b{fill:none;stroke:#fff;stroke-miterlimit:10;stroke-width:.3px;}.c{stroke-width:0px;}</style></defs><rect class="c" x="0" width="192" height="240"/><path class="b" d="M8.17,228.72h175.65"/><path class="b" d="M8.17,226.52c18.35,0,36.71,0,55.06,0,8.15,0,16.32,0,24.47,0,3.46.38,6.99.85,10.49.83,3.5.08,7.03-.4,10.49-.83,6.98,0,13.99,0,20.97,0,18.06,0,36.13,0,54.18,0"/><path class="b" d="M8.17,224.33c23.3,0,46.61,0,69.91,0,1.7,0,3.54,0,5.24,0,1.4.31,2.96.63,4.37.9,4.01.77,8.14,1.3,12.23,1.28,3.51,0,7.08-.43,10.49-1.24,1.1-.26,2.4-.65,3.5-.94,1.7,0,3.54,0,5.24,0,21.55,0,43.12,0,64.67,0"/><path class="b" d="M8.17,222.13c16.31,0,32.63,0,48.94,0,7.85.03,15.74-.05,23.6.03,3.74,1.01,7.55,2.03,11.36,2.71,5.46.99,11.15,1.19,16.6.03,3-.53,5.87-1.83,8.74-2.78,7.27,0,14.58,0,21.85,0,14.85,0,29.72,0,44.57,0"/><path class="b" d="M8.17,219.93c16.02,0,32.05,0,48.06,0,7.56.05,15.16-.09,22.72.05,4.32,1.37,8.68,2.82,13.11,3.79,6,1.35,12.38,1.68,18.35,0,3.04-.83,6.02-2.17,8.74-3.75,6.97-.24,14-.01,20.97-.09,14.56,0,29.14,0,43.69,0"/><path class="b" d="M8.17,217.74c18.64,0,37.29,0,55.93,0,4.35,0,8.76,0,13.11,0,2.06.49,4.11,1.46,6.12,2.12,13.34,5.01,25.39,7.04,37.58-2.06,20.96-.2,41.95,0,62.92-.07"/><path class="b" d="M8.17,215.54c16.6,0,33.21,0,49.81,0,4.06,0,8.18,0,12.23,0,1.4,0,2.97,0,4.37,0,.8,0,1.87-.07,2.62.26,5.18,2.11,10.35,4.41,15.73,5.96,6.21,1.83,13.07,2.42,19.23.07,3.51-1.29,6.75-3.41,9.61-5.81.67-.59,1.8-.5,2.62-.48,1.4,0,2.97,0,4.37,0,4.06,0,8.18,0,12.23,0,14.27,0,28.55,0,42.82,0"/><path class="b" d="M8.17,213.35c18.06,0,36.13,0,54.18,0,3.47,0,7.01,0,10.49,0,.78,0,1.84,0,2.62,0,1.48.36,2.97,1.23,4.37,1.82,16.18,7.49,29.48,12.61,43.69-1.82h60.3"/><path class="b" d="M8.17,211.15c17.76,0,35.54,0,53.31,0,3.18,0,6.43,0,9.61,0,1.4.05,2.99-.14,4.37.16,1.1.52,2.4,1.16,3.5,1.69,5.94,2.89,11.95,5.89,18.35,7.61,2.59.07,5.27.01,7.87.03,2,0,4.12,0,6.12,0,5.28-1.45,9.5-5.51,13.11-9.46,19.8-.07,39.62,0,59.43-.03"/><path class="b" d="M8.17,208.95c17.47,0,34.96,0,52.43,0,3.18,0,6.43,0,9.61,0,1.4.01,2.97-.04,4.37.04,1.1.54,2.4,1.2,3.5,1.76,5.46,2.64,10.81,5.84,16.6,7.69,3.47,0,7.01,0,10.49,0,3.18,0,6.43,0,9.61,0,4.21-2.17,7.49-5.9,10.49-9.49h58.55"/><path class="b" d="M8.17,206.76c17.18,0,34.38,0,51.56,0,3.18,0,6.43,0,9.61,0,1.4,0,2.97,0,4.37,0,1.14.43,2.41,1.16,3.5,1.72,3.19,1.68,6.42,3.46,9.61,5.12,1.09.56,2.39,1.22,3.5,1.76.75.35,1.75.96,2.62.89,4.06,0,8.18,0,12.23,0,2.59,0,5.27,0,7.86,0,1.4-.08,3.04.24,4.37-.27,3.41-2.52,5.98-6.07,8.74-9.22h57.68"/><path class="b" d="M8.17,204.56c18.35,0,36.71,0,55.06,0,3.18,0,6.43,0,9.61,0,2.11.78,4.12,2.13,6.12,3.17,2.59,1.45,5.26,2.98,7.86,4.41,1.36.6,2.86,1.94,4.37,1.9,9.02,0,18.07,0,27.09,0,2.1-1.24,3.67-3.52,5.24-5.34,1.14-1.25,2.04-3.24,3.5-4.15h56.8"/><path class="b" d="M8.17,202.36c16.6,0,33.21,0,49.81,0,3.18,0,6.43,0,9.61,0,1.4,0,2.97,0,4.37,0,.8.35,1.85.94,2.62,1.37,4.69,2.59,9.3,5.45,13.98,8.07,5.22.14,10.5.01,15.73.05,4.35,0,8.76,0,13.11,0,2.54.2,2.77-.39,4.37-2.27,1.85-2.19,3.65-4.73,5.24-7.12,18.91-.3,37.88,0,56.8-.11"/><path class="b" d="M8.17,200.17c16.31,0,32.63,0,48.94,0,3.18,0,6.43,0,9.61,0,1.4.06,3.01-.18,4.37.2.78.42,1.85,1.01,2.62,1.45,4.41,2.48,8.75,5.22,13.11,7.8,3.47.1,7.01.01,10.49.04,4.64,0,9.34,0,13.98,0,2,0,4.12,0,6.12,0,1.12-.06,2.52.25,3.5-.43,1.51-1.74,3.06-3.81,4.37-5.71.72-1.01,1.56-2.64,2.62-3.35h55.93"/><path class="b" d="M8.17,197.97c17.18,0,34.38,0,51.56,0,3.17.09,6.46-.2,9.61.14,1.71.95,3.56,1.98,5.24,2.98,3.52,2.03,6.97,4.34,10.49,6.37,2.3,0,4.7,0,6.99,0,9.6,0,19.23,0,28.84,0,2.77-2.72,4.71-6.38,6.99-9.49h55.93"/><path class="b" d="M8.17,195.77c15.73,0,31.47,0,47.19,0,3.47,0,7.01,0,10.49,0,1.98-.25,3.59,1.34,5.24,2.19,4.1,2.34,8.06,5.09,12.23,7.3,4.06,0,8.18,0,12.23,0,4.64,0,9.34,0,13.98,0,3.77,0,7.6,0,11.36,0,1.16-.35,1.9-1.89,2.62-2.76,1.47-2.05,3.02-4.41,4.37-6.54,2.25-.43,4.7-.09,6.99-.19,4.35,0,8.76,0,13.11,0,11.94,0,23.89,0,35.83,0"/><path class="b" d="M8.17,193.58c16.31,0,32.63,0,48.94,0,2.59,0,5.27,0,7.87,0,.89.11,1.87.83,2.62,1.27,1.41.85,2.97,1.83,4.37,2.71,3.14,1.87,6.31,3.95,9.61,5.51,4.35,0,8.76,0,13.11,0,5.81,0,11.67,0,17.48,0,2,0,4.12,0,6.12,0,1.1-.04,2.45.16,3.5-.25,2.16-2.78,4.21-5.91,6.12-8.87.74-.46,1.8-.37,2.62-.37,1.4,0,2.97,0,4.37,0,4.35,0,8.76,0,13.11,0,11.94,0,23.89,0,35.83,0"/><path class="b" d="M8.17,191.38c16.02,0,32.05,0,48.06,0,2.3,0,4.7,0,6.99,0,4.17,2.21,8.04,5.08,12.23,7.27,1.4.71,2.88,1.71,4.37,2.22,1.09,0,2.4,0,3.5,0,3.47,0,7.01,0,10.49,0,6.1,0,12.25,0,18.35,0,2,0,4.12,0,6.12,0,1.1-.05,2.45.16,3.5-.25,2.14-2.79,4.2-5.89,6.12-8.83.73-.5,1.79-.41,2.62-.4,1.4,0,2.97,0,4.37,0,4.35,0,8.76,0,13.11,0,11.94,0,23.89,0,35.83,0"/><path class="b" d="M8.17,189.19c15.14,0,30.3,0,45.44,0,2.58.12,5.32-.26,7.87.19,5.12,3.18,10.31,6.35,15.73,9.01,1.33.53,2.97.2,4.37.28,2.3,0,4.7,0,6.99,0,6.4,0,12.83,0,19.23,0,3.47,0,7.01,0,10.49,0,3.47.1,3.2.11,5.24-2.78,1.44-2.02,2.99-4.32,4.37-6.38.74-.42,1.81-.33,2.62-.33,1.4,0,2.97,0,4.37,0,4.35,0,8.76,0,13.11,0,11.94,0,23.89,0,35.83,0"/><path class="b" d="M8.17,186.99c15.73,0,31.47,0,47.19,0,1.1.02,2.41-.07,3.5.1,1.71,1.01,3.53,2.14,5.24,3.13,3.68,2.15,7.51,4.18,11.36,6.01,1.93.54,4.13.13,6.12.25,3.18,0,6.43,0,9.61,0,9.9,0,19.82,0,29.71,0,1.04-.64,1.9-2.1,2.62-3.04,1.43-1.99,2.98-4.25,4.37-6.26,2.25-.42,4.7-.08,6.99-.19,4.35,0,8.76,0,13.11,0,11.94,0,23.89,0,35.83,0"/><path class="b" d="M8.17,184.79c15.43,0,30.88,0,46.32,0,1.29-.19,2.46.47,3.5,1.14,1.39.8,2.96,1.69,4.37,2.47,2.55,1.4,5.24,2.79,7.86,4.04,1.66.67,3.38,1.97,5.24,1.84,15.14,0,30.3,0,45.44,0,2.54-2.91,4.7-6.35,6.99-9.46,18.64-.07,37.29,0,55.93-.03"/><path class="b" d="M8.17,182.6c14.85,0,29.72,0,44.57,0,1.82.57,3.53,1.82,5.24,2.64,2.85,1.52,5.81,3.02,8.74,4.37,1.69.78,3.53,1.59,5.24,2.31.76.21,1.84.17,2.62.16,15.43-.02,30.88.03,46.32-.02,2.33-3.08,4.6-6.43,6.99-9.47h55.93"/><path class="b" d="M8.17,180.4c9.31,0,18.65,0,27.96,0,3.18,0,6.43,0,9.61,0,1.4.03,2.97-.07,4.37.08.44.22,1.31.66,1.75.88,4.31,2.19,8.67,4.4,13.11,6.31,1.69.73,3.53,1.49,5.24,2.16,1.09.1,2.4.05,3.5.06,15.72-.08,31.48.16,47.19-.09,2.3-3.08,4.54-6.43,6.99-9.4h55.93"/><path class="b" d="M8.17,178.2c8.73,0,17.49,0,26.22,0,4.06,0,8.18,0,12.23,0,2.02.89,4.11,1.94,6.12,2.87,4.57,2.18,9.24,4.28,13.98,6.08,2.16.97,4.7.4,6.99.54,15.73,0,31.47,0,47.19,0,2.29-3.11,4.61-6.41,6.99-9.46,18.64-.09,37.29,0,55.93-.03"/><path class="b" d="M8.17,176.01c11.06,0,22.15,0,33.21,0,2.2-.28,4.17,1.06,6.12,1.88,2.87,1.35,5.82,2.74,8.74,3.98,1.99.86,4.1,1.73,6.12,2.52,1.09.37,2.33,1.06,3.5,1.1,2.3,0,4.7,0,6.99,0,16.02,0,32.05,0,48.06,0,2.39-2.98,4.58-6.33,6.99-9.3,2.25-.43,4.7-.08,6.99-.19,4.35,0,8.76,0,13.11,0,11.94,0,23.89,0,35.83,0"/><path class="b" d="M8.17,173.81c10.19.02,20.4-.03,30.59.02,5.12,1.65,9.94,4.2,14.86,6.37,2.56,1.09,5.22,2.22,7.87,3.1,2.89,0,5.85,0,8.74,0,16.89,0,33.8,0,50.69,0,2.39-2.95,4.55-6.29,6.99-9.21.75-.36,1.81-.29,2.62-.28,1.4,0,2.97,0,4.37,0,4.35,0,8.76,0,13.11,0,11.94,0,23.89,0,35.83,0"/><path class="b" d="M8.17,171.61c7.85.01,15.74-.03,23.6.02,6.4,1.39,12.45,3.98,18.35,6.76,1.98.91,4.09,1.85,6.12,2.66,3.47.13,7.01.02,10.49.05,18.06,0,36.13,0,54.18,0,1.75-2.23,3.48-4.77,5.24-6.99.74-.8,1.46-2.27,2.62-2.5,5.52,0,11.08,0,16.6,0,12.81,0,25.64,0,38.45,0"/><path class="b" d="M8.17,169.42c5.23,0,10.5,0,15.73,0,2.35.33,4.69,1.29,6.99,1.85,4.76,1.27,9.48,2.89,13.98,4.89,2.01.87,4.12,1.82,6.12,2.7,3.76.12,7.6.01,11.36.05,19.51-.03,39.04.05,58.55-.03,1.68-2.28,3.47-4.75,5.24-6.95.92-1.03,1.87-2.82,3.5-2.51,5.23,0,10.5,0,15.73,0,12.81,0,25.64,0,38.45,0"/><path class="b" d="M8.17,167.22c2.3,0,4.69,0,6.99,0,1.4.08,3.03-.24,4.37.27,6.34,2.37,12.87,4.28,19.23,6.59,2.02.76,4.13,1.63,6.12,2.46,3.44.39,7.02.05,10.49.16,14.27,0,28.55,0,42.82,0,4.94,0,9.92,0,14.86,0,2.58-.1,5.31.21,7.87-.16,1.38-1.85,2.93-3.92,4.37-5.72,1.04-1.17,2.08-2.86,3.5-3.61h55.06"/><path class="b" d="M8.17,165.03c2,0,4.12,0,6.12,0,1.12.36,2.41.88,3.5,1.32,4.89,2.12,9.8,4.32,14.86,6.03,1.71.61,3.55,1.29,5.24,1.94,1.07.32,2.39.16,3.5.19,2,0,4.12,0,6.12,0,15.73,0,31.47,0,47.19,0,5.52,0,11.08,0,16.6,0,2,0,4.12,0,6.12,0,1.1-.05,2.46.19,3.5-.29,2.47-3.11,4.83-6.6,7.86-9.2h55.06"/><path class="b" d="M8.17,162.83c1.11.04,2.44-.16,3.5.24,2.04.83,4.15,1.82,6.12,2.81,4.27,2.27,8.59,4.56,13.11,6.31,7.54.32,15.16.02,22.72.12,13.69,0,27.39,0,41.07,0,5.52,0,11.08,0,16.6,0,2,0,4.12,0,6.12,0,1.91-.05,3.22.45,4.37-1.51,1.62-2.05,3.42-4.24,5.24-6.11.7-.65,1.57-1.83,2.62-1.86,5.52,0,11.08,0,16.6,0,12.52,0,25.06,0,37.58,0"/><path class="b" d="M8.17,160.63c5.99,1.94,11.08,6.07,16.6,9.01,1.22.85,2.96.35,4.37.48,2.3,0,4.69,0,6.99,0,6.4,0,12.83,0,19.23,0,10.48,0,20.98,0,31.46,0,10.77,0,21.56,0,32.33,0,1.06.24,2.09-.73,2.62-1.54.4-.52,1.33-1.56,1.75-2.06,1.82-2.09,3.85-4.26,6.12-5.88h54.18"/><path class="b" d="M8.17,159.1c3.34,1.68,6.55,3.77,9.61,5.92.79.54,1.83,1.29,2.62,1.83.75.49,1.67,1.28,2.62,1.08,5.52,0,11.08,0,16.6,0,8.44,0,16.9,0,25.34,0,18.35,0,36.71,0,55.06,0,1.4-.7,2.38-2.4,3.5-3.46,2.05-2.24,4.41-4.41,6.99-6.02,17.76,0,35.54,0,53.31,0"/><path class="b" d="M8.17,157.71c4.03,2.27,7.57,5.41,11.36,8.02,27.38,0,54.77,0,82.15,0,4.35,0,8.76,0,13.11,0,1.7,0,3.54,0,5.24,0,1.37-.65,2.38-2.25,3.5-3.24,2.55-2.42,5.37-5.08,8.74-6.25,5.52,0,11.08,0,16.6,0,11.65,0,23.31,0,34.96,0"/><path class="b" d="M8.17,156.26c2.09,1.4,4.19,3.05,6.12,4.66,1.11.82,2.17,2.15,3.5,2.61.47,0,1.29,0,1.75,0,3.47,0,7.01,0,10.49,0,10.48,0,20.98,0,31.46,0,18.06,0,36.13,0,54.18,0,6.25.12,4.19.2,8.74-3.69,2.57-2.25,5.65-3.99,8.74-5.41.69-.48,1.82-.4,2.62-.39,1.4,0,2.97,0,4.37,0,3.77,0,7.6,0,11.36,0,10.77,0,21.56,0,32.33,0"/><path class="b" d="M8.17,154.75c2.78,1.95,5.15,4.59,7.86,6.58,22.72,0,45.45,0,68.16,0,7.85,0,15.74,0,23.6,0,4.34-.11,8.79.23,13.11-.14,3.32-3.06,7.17-5.64,11.36-7.34,1.69-.65,3.43-1.75,5.24-2,4.94,0,9.92,0,14.86,0,7.27,0,14.58,0,21.85,0,3.16.51,6.42.84,9.61.95"/><path class="b" d="M8.17,153.2c1.46,1.2,3.01,2.63,4.37,3.95.79.66,1.54,1.84,2.62,1.99,4.94,0,9.92,0,14.86,0,11.35,0,22.73,0,34.08,0,18.06,0,36.13,0,54.18,0,1.1-.05,2.47.2,3.5-.32,1.62-1.25,3.46-2.48,5.24-3.49,4.18-2.17,8.69-3.83,13.11-5.46,1.05-.37,2.4-.18,3.5-.22,1.7,0,3.54,0,5.24,0,5.52,0,11.08,0,16.6,0,2.32.16,4.68.86,6.99,1.15,3.74.58,7.58.91,11.36.92"/><path class="b" d="M8.17,151.61c1.79,1.57,3.56,3.43,5.24,5.12,1.37.39,2.97.14,4.37.21,2.3,0,4.69,0,6.99,0,6.69,0,13.41,0,20.1,0,19.22,0,38.46,0,57.68,0,6.4,0,12.83,0,19.23,0,1.27-.05,2.38-1.21,3.5-1.73,1.35-.77,2.92-1.55,4.37-2.13,3.76-1.41,7.53-3,11.36-4.23,2.24-.65,4.63-1.48,6.99-1.4,3.76.12,7.64-.32,11.36.35,8.08,1.47,16.21,3.27,24.47,2.97"/><path class="b" d="M8.17,150.03c1.14,1.06,2.41,2.39,3.5,3.49.62.83,1.57,1.38,2.62,1.22,5.23,0,10.5,0,15.73,0,11.65,0,23.31,0,34.96,0,19.22,0,38.46,0,57.68,0,.83.09,1.93-.16,2.62-.65,1.07-.55,2.38-1.16,3.5-1.61,5.48-1.91,10.89-4.31,16.6-5.43,6.4-1.29,12.92.26,19.23,1.38,6.32,1.21,12.79,1.98,19.23,1.64"/><path class="b" d="M8.17,148.45c1.41,1.3,2.79,3.01,4.37,4.1,31.46,0,62.92,0,94.38,0,6.4,0,12.83,0,19.23,0,4.55-1.85,9.3-3.38,13.98-4.89,7.83-2.6,14.87-1.13,22.72.33,6.89,1.33,13.96,2.13,20.97,1.55"/><path class="b" d="M8.17,146.76c1.06,1.1,2.4,2.34,3.5,3.41,1.37.35,2.97.13,4.37.19,2.59,0,5.27,0,7.87,0,7.56,0,15.16,0,22.72,0,21.84,0,43.7,0,65.54,0,5.52,0,11.08,0,16.6,0,5.22-1.48,10.31-3.68,15.73-4.37,6.46-.76,12.89,1.14,19.23,2.14,6.61,1.23,13.4,1.69,20.1.98"/><path class="b" d="M8.17,144.88c1.05,1.07,2.31,2.35,3.5,3.28,26.21,0,52.44,0,78.65,0,9.02,0,18.07,0,27.09,0,3.18,0,6.43,0,9.61,0,1.99-.11,4.2.3,6.12-.34,12.46-4.23,16.52-2.29,28.84-.02,2.84.63,5.85.28,8.74.36,4.35,0,8.76,0,13.11,0"/><path class="b" d="M8.17,142.78c1.06,1.04,2.27,2.35,3.5,3.18,27.09,0,54.18,0,81.27,0,9.31,0,18.65,0,27.96,0,4.64,0,9.34,0,13.98,0,1.68-.44,3.52-.88,5.24-1.14,2.57-.39,5.3-.41,7.87.04,2.3.29,4.66,1.11,6.99,1.1,9.6,0,19.23,0,28.84,0"/><path class="b" d="M8.17,140.45c1.07,1.04,2.37,2.25,3.5,3.23,40.19.24,80.4,0,120.6.08,2,0,4.12.02,6.12-.01,2.58-.42,5.28-.31,7.87.01,12.52,0,25.06,0,37.58,0"/><path class="b" d="M8.17,137.91c1.37,1.2,2.87,2.61,4.37,3.66h171.28"/><path class="b" d="M8.17,135.18c1.1.86,2.39,1.87,3.5,2.71.79.52,1.62,1.48,2.62,1.48,3.47,0,7.01,0,10.49,0,7.86,0,15.74,0,23.6,0,14.27,0,28.55,0,42.82,0,30.88,0,61.76,0,92.63,0"/><path class="b" d="M8.17,132.31c1.72,1.09,3.55,2.29,5.24,3.41.79.48,1.69,1.28,2.62,1.46,3.18,0,6.43,0,9.61,0,7.86,0,15.74,0,23.6,0,14.27,0,28.55,0,42.82,0,30.58,0,61.18,0,91.76,0"/><path class="b" d="M8.17,129.37c2.36,1.05,4.76,2.28,6.99,3.57,1.12.61,2.31,1.55,3.5,2.04.47,0,1.29,0,1.75,0,10.19,0,20.4,0,30.59,0,13.98,0,27.97,0,41.95,0,30.29,0,60.59,0,90.89,0"/><path class="b" d="M8.17,126.43c3.01.66,6.02,1.72,8.74,3.17,1.15.61,2.45,1.43,3.5,2.2.35.44,1.22.88,1.75.99,10.77,0,21.56,0,32.33,0,13.69,0,27.39,0,41.07,0,29.42,0,58.85,0,88.26,0"/><path class="b" d="M8.17,123.56c6.24-.32,12.53,2.23,16.6,7,23.01.07,46.03,0,69.04.02,8.44,0,16.9,0,25.34,0,3.77,0,7.59,0,11.36,0,1.39-.26,2.96-.48,4.37-.49,1.72-.05,3.55.27,5.24.49,4.35,0,8.76,0,13.11,0,10.19,0,20.4,0,30.59,0"/><path class="b" d="M8.17,120.79c5-1.65,10.75-.99,14.86,2.44,1.22.97,2.49,2.33,3.5,3.52.33.5,1.19,1.4,1.75,1.64,21.84,0,43.7,0,65.54,0,9.9,0,19.82,0,29.71,0,1.09-.01,2.41.04,3.5-.06,2.27-.54,4.65-1.16,6.99-1.22,2.01-.07,4.14.2,6.12.59,1.69.4,3.49.84,5.24.7,12.81,0,25.64,0,38.45,0"/><path class="b" d="M8.17,118.12c1.06-.53,2.28-1.35,3.5-1.41,2.3,0,4.7,0,6.99,0,1.11.05,2.47-.2,3.5.32,3.77,2.07,6.09,5.94,8.74,9.17,20.68,0,41.37,0,62.05,0,9.6,0,19.23,0,28.84,0,4.08-.54,8.09-2.02,12.23-2.11,2.62-.03,5.33.35,7.86,1.02,1.42.28,2.91,1.16,4.37,1.08,12.52,0,25.06,0,37.58,0"/><path class="b" d="M8.17,115.51c.99-1.02,2.17-1.08,3.5-1,1.1,0,2.4,0,3.5,0,3.77.03,7.6-.06,11.36.04,2.7,2.78,4.83,6.25,6.99,9.45,16.02,0,32.05,0,48.06,0,3.18-.06,6.42-.45,9.61-.2,4.35.31,8.76.18,13.11.2,3.76-.09,7.61.21,11.36-.18,3.49-.42,7.02-1,10.49-1.6,2.58-.42,5.24-1.08,7.87-1.08,2.63-.05,5.35.35,7.86,1.13,1.74.42,3.47,1.5,5.24,1.72,12.23,0,24.48,0,36.7,0"/><path class="b" d="M8.17,112.89l.87-.58c4.35,0,8.76,0,13.11,0,2.58.11,5.32-.25,7.86.18,2.16,2.94,4.1,6.27,6.12,9.3,12.81,0,25.64,0,38.45,0,1.1-.05,2.45.16,3.5-.26,1.92-.76,4.06-1.26,6.12-1.5,4.63-.53,9.35-.08,13.98.2,8.15.64,16.36.32,24.47-.59,5.8-.49,11.74-2.31,17.48-.5,2.07.59,4.18,1.5,6.12,2.43,1.36.4,2.97.15,4.37.21,2.59,0,5.27,0,7.86,0,8.44,0,16.9,0,25.34,0"/><path class="b" d="M8.17,110.17c8.14-.15,16.32,0,24.47-.05,2.12,3,3.75,6.71,6.12,9.49,11.94,0,23.89,0,35.83,0,.51-.05,1.34-.42,1.75-.72,1.06-.58,2.36-1.17,3.5-1.56,2.5-.87,5.23-1.27,7.86-1.38,6.41-.2,12.82.7,19.23.86,6.1.18,12.26.13,18.35-.2,2.9-.11,5.84-.77,8.74-.79,2.68,0,5.41.69,7.86,1.74.79.34,1.86.84,2.62,1.23.72.4,1.76.97,2.62.82,12.23,0,24.48,0,36.7,0"/><path class="b" d="M8.17,107.92c8.15,0,16.32,0,24.47,0,2.06-.13,2.54.09,3.5,1.96,1.53,2.34,2.72,5.28,4.37,7.53h33.21c9.28-7.62,21.34-4.98,32.33-4.32,6.39.41,12.82,1,19.23,1.09,3.49.11,7.01-.95,10.49-.35,3.09.48,6.03,1.88,8.74,3.41,1.37.33,2.97.12,4.37.17,11.65,0,23.31,0,34.96,0"/><path class="b" d="M8.17,105.72c6.1,0,12.25,0,18.35,0,2,0,4.12,0,6.12,0,1.4.08,3.04-.24,4.37.27,1.18,2.06,2.45,4.58,3.5,6.71.29.69,1.01,2.19,1.75,2.5h30.59c6.88-6.3,14.63-7.3,23.6-6.54,6.42.49,12.86,1.29,19.23,2.24,3.75.54,7.56,1.25,11.36,1.27,2.6,0,5.28-.63,7.87-.13,2.43.4,4.83,1.4,6.99,2.55,1.22.9,2.95.55,4.37.61,12.52,0,25.06,0,37.58,0"/><path class="b" d="M8.17,103.53h29.71c2.29,2.69,3.12,6.68,5.24,9.49,9.31,0,18.65,0,27.96,0,1.44.25,2.47-1.24,3.5-2,1.83-1.5,3.94-2.88,6.12-3.83,7.15-3.11,15.22-2.17,22.72-1.14,7.09.9,13.94,3.14,20.97,4.33,2.58.45,5.27.04,7.87.12,1.75.1,3.61.54,5.24,1.16,1.12.37,2.33,1.16,3.5,1.36,14.27,0,28.55,0,42.82,0"/><path class="b" d="M8.17,101.33h30.59c2.17,2.79,2.98,6.79,5.24,9.49h27.96c3.93-3.77,8.55-7.12,13.98-8.2,11.58-2.25,23.21,1.67,34.08,5.32,1.96.61,4.07,1.17,6.12,1.36,2,.18,4.13.05,6.12.28,1.44.18,3.01.6,4.37,1.09,1.08.24,2.4.12,3.5.15,14.56,0,29.14,0,43.69,0"/><path class="b" d="M8.17,99.13h30.59c.79.26,1.43,1.56,1.75,2.24,1.12,2.19,2.4,4.82,3.5,7.02,1.35.43,2.97.15,4.37.23,2,0,4.12,0,6.12,0,5.81-.01,11.67.02,17.48-.01,5.91-6.14,13.19-9.85,21.85-9.42,8.93.19,17.26,3.76,25.34,7.21,2.76,1.15,5.75,1.92,8.74,2.13,2.88.21,5.86.04,8.74.09,15.73,0,31.47,0,47.19,0"/><path class="b" d="M8.17,96.94c6.69,0,13.41,0,20.1,0,2.3,0,4.7,0,6.99,0,1.4.12,3.13-.36,4.37.43,1.15,2.01,2.43,4.45,3.5,6.51.31.7,1.1,2.11,1.75,2.54h27.09c5.24-4.93,11.72-9.56,19.23-9.49,9.27-.66,17.34,3.12,25.34,7.29,1.93.83,3.94,2.29,6.12,2.19,3.77,0,7.59,0,11.36,0,16.6,0,33.21,0,49.81,0"/><path class="b" d="M8.17,94.74c6.69,0,13.41,0,20.1,0,2.3,0,4.7,0,6.99,0,1.4.11,3.1-.33,4.37.4,1.82,2.87,3.55,6.11,5.24,9.05,5.81.1,11.67,0,17.48.04,2,0,4.12,0,6.12,0,1.4-.09,3.05.25,4.37-.29,3.56-3.3,7.6-6.32,12.23-7.91,5.92-2.08,12.53-1.55,18.35.62,4.62,1.67,8.85,4.31,13.11,6.72.42.25,1.29.69,1.75.86.43,0,1.31,0,1.75,0,1.4,0,2.97,0,4.37,0,4.06,0,8.18,0,12.23,0,15.73,0,31.47,0,47.19,0"/><path class="b" d="M8.17,92.55c6.69,0,13.41,0,20.1,0,2.3,0,4.7,0,6.99,0,1.4.1,3.08-.3,4.37.35,2.15,2.88,3.79,6.41,6.12,9.14,6.1,0,12.25,0,18.35,0,2,0,4.12,0,6.12,0,1.11-.06,2.48.21,3.5-.34,3.61-3.12,7.66-5.99,12.23-7.5,5.38-1.84,11.36-1.44,16.6.64,4.36,1.67,8.32,4.3,12.23,6.8.99.63,2.38.33,3.5.39,1.4,0,2.97,0,4.37,0,4.35,0,8.76,0,13.11,0,16.02,0,32.05,0,48.06,0"/><path class="b" d="M8.17,90.35c6.69,0,13.41,0,20.1,0,2.3,0,4.7,0,6.99,0,1.4.06,3.01-.17,4.37.2,1.44,1.91,2.99,4.1,4.37,6.05.74.99,1.58,2.53,2.62,3.24,9.31-.05,18.66.11,27.96-.06,12.82-10.37,23.37-10.58,36.7-1.01.73.5,1.68,1.26,2.62,1.07,1.4,0,2.97,0,4.37,0,3.47,0,7.01,0,10.49,0,18.35,0,36.71,0,55.06,0"/><path class="b" d="M8.17,88.15h31.46c2.83,2.92,4.96,6.66,7.87,9.49,9.31,0,18.65,0,27.96,0,.55.01,1.34-.39,1.75-.73.78-.5,1.83-1.17,2.62-1.63,2.19-1.28,4.57-2.46,6.99-3.23,4.82-1.62,10.2-1.35,14.86.67,3.12,1.19,5.84,3.33,8.74,4.92,7.86,0,15.74,0,23.6,0,16.6,0,33.21,0,49.81,0"/><path class="b" d="M8.17,85.96c9.9,0,19.82,0,29.71,0,.8,0,1.89-.09,2.62.32.79.88,1.86,2.11,2.62,3.02,1.69,1.99,3.52,4.16,5.24,6.12,8.15.08,16.32,0,24.47.03,1.7,0,3.54,0,5.24,0,.83-.25,1.85-.85,2.62-1.23,9.36-4.83,17.4-4.68,26.22,1.23h76.9"/><path class="b" d="M8.17,83.76c7.27,0,14.58,0,21.85,0,3.47,0,7.01,0,10.49,0,1.4.65,2.42,2.29,3.5,3.34,1.09,1.21,2.38,2.65,3.5,3.84.96.93,1.95,2.59,3.5,2.31,5.81,0,11.67,0,17.48,0,2.89,0,5.85,0,8.74,0,1.7-.1,3.6.24,5.24-.23,6.95-2.77,13.26-2.91,20.1.23,27.09,0,54.18,0,81.27,0"/><path class="b" d="M8.17,81.56c10.48,0,20.98,0,31.46,0,.43,0,1.32,0,1.75,0,1.38.63,2.42,2.2,3.5,3.22,1.96,2.08,4.05,4.26,6.12,6.23,44.27.09,88.56,0,132.83.03"/><path class="b" d="M8.17,79.37c7.56,0,15.16,0,22.72,0,2.59,0,5.27,0,7.86,0,3.53.08,3.64-.65,6.12,2.16,1.69,1.73,3.5,3.61,5.24,5.28.97.86,2.03,2.32,3.5,2.05,6.4,0,12.83,0,19.23,0,36.99,0,73.99,0,110.99,0"/><path class="b" d="M8.17,77.17c11.06,0,22.15,0,33.21,0,.8,0,1.88-.08,2.62.28.78.77,1.85,1.84,2.62,2.63,2.25,2.21,4.47,4.68,6.99,6.58h130.21"/><path class="b" d="M8.17,74.97c7.85,0,15.74,0,23.6,0,2.59,0,5.27,0,7.86,0,1.7.09,3.59-.22,5.24.21,3.18,3.07,6.18,6.49,9.61,9.28h129.34"/><path class="b" d="M8.17,72.78c8.15,0,16.32,0,24.47,0,2.59,0,5.27,0,7.86,0,1.7.09,3.59-.22,5.24.21,3.21,3.01,6.03,6.71,9.61,9.27h128.46"/><path class="b" d="M8.17,70.58c9.9,0,19.82,0,29.71,0,2.59,0,5.27,0,7.86,0,1.45.41,2.42,2.1,3.5,3.07,1.96,2.08,4.03,4.29,6.12,6.24,1.96.39,4.12.09,6.12.18,3.47,0,7.01,0,10.49,0,9.6,0,19.23,0,28.84,0,27.67,0,55.35,0,83.02,0"/><path class="b" d="M8.17,68.39h38.45c2.32,1.67,4.09,4.28,6.12,6.29,1.28,1.11,2.44,3.42,4.37,3.2,8.44,0,16.9,0,25.34,0,10.48,0,20.98,0,31.46,0,23.3,0,46.61,0,69.91,0"/><path class="b" d="M8.17,66.19c13.1.06,26.23-.12,39.33.06,2.98,3.01,5.49,6.7,8.74,9.42h127.59"/><path class="b" d="M8.17,63.99h39.33c1.37.82,2.42,2.48,3.5,3.64,1.68,1.91,3.33,4.16,5.24,5.85h127.59"/><path class="b" d="M8.17,61.8c8.73,0,17.49,0,26.22,0,2.89,0,5.85,0,8.74,0,1.69.12,3.63-.3,5.24.29,2.66,2.97,5.02,6.4,7.86,9.2h127.59"/><path class="b" d="M8.17,59.6c13.39.07,26.82-.15,40.2.08,2.66,3.04,5.01,6.54,7.86,9.41h127.59"/><path class="b" d="M8.17,57.4h40.2c2.68,3.05,4.99,6.61,7.86,9.49h127.59"/><path class="b" d="M8.17,55.21h40.2c2.66,3.07,4.99,6.61,7.86,9.49,42.53,0,85.06,0,127.59,0"/><path class="b" d="M8.17,53.01c13.39.02,26.81-.05,40.2.03,2.56,3.12,4.96,6.58,7.86,9.4,7.27.18,14.58,0,21.85.06,1.47-.16,2.95-.99,4.37-1.36,2.53-.8,5.22-1.37,7.87-1.6,5.55-.52,11.16.17,16.6,1.25,1.71.34,3.55.73,5.24,1.12,1.39.34,2.93.72,4.37.6,6.98,0,13.99,0,20.97,0,15.43,0,30.88,0,46.32,0"/><path class="b" d="M8.17,50.81c8.73,0,17.49,0,26.22,0,2.89,0,5.85,0,8.74,0,1.7.08,3.58-.2,5.24.19,2.5,3.05,4.86,6.45,7.86,9.04,1.93.55,4.13.13,6.12.25,3.18,0,6.43,0,9.61,0,1.53.11,2.98-1.11,4.37-1.63,2.24-1.06,4.63-2.08,6.99-2.83,7.32-2.48,15.27-2.25,22.72-.5,5.89,1.31,11.63,3.3,17.48,4.77,1.66.38,3.55.11,5.24.18,2.59,0,5.27,0,7.87,0,15.73,0,31.47,0,47.19,0"/><path class="b" d="M8.17,48.62c12.23,0,24.48,0,36.7,0,3.43-.12,3.15-.05,5.24,2.61,2.05,2.48,4.18,5.23,6.99,6.88,3.76-.08,7.61.17,11.36-.11,7.36-3.47,14.45-8.16,22.72-9.05,11.28-1.47,21.89,3.57,32.33,7.04,2.83.85,5.78,1.89,8.74,2.13,5.23,0,10.5,0,15.73,0,11.94,0,23.89,0,35.83,0"/><path class="b" d="M8.17,46.42h39.33c3.35,3.17,5.85,7.78,10.49,9.31,1.67.35,3.55.12,5.24.16,1.79-.42,3.61-1.22,5.24-2.04,4.68-2.4,9.1-5.44,13.98-7.43,5.23,0,10.5,0,15.73,0,3.77,0,7.59,0,11.36,0,4.51,1.18,8.75,3.51,13.11,5.16,4.49,1.88,9.23,3.26,13.98,4.32,4.94,0,9.92,0,14.86,0,10.77,0,21.56,0,32.33,0"/><path class="b" d="M8.17,44.23c8.44,0,16.9,0,25.34,0,4.64.09,9.36-.19,13.98.12,6.22,7.67,10.52,11.39,20.1,5.92,2.34-1.31,4.7-2.83,6.99-4.22,1.08-.6,2.27-1.54,3.5-1.82,7.27,0,14.58,0,21.85,0,4.94,0,9.92,0,14.86,0,.88-.09,1.86.53,2.62.88,1.1.53,2.4,1.16,3.5,1.69,3.11,1.51,6.34,3,9.61,4.12,3.12,1.09,6.36,2.1,9.61,2.75,4.64.1,9.34,0,13.98.04,9.9,0,19.82,0,29.71,0"/><path class="b" d="M8.17,42.03h38.45c1.96,1.32,3.34,3.65,5.24,5.09,5.76,5.07,12.04,1.61,17.48-1.97,1.41-.92,2.96-1.97,4.37-2.89,1.06-.37,2.39-.19,3.5-.23,1.7,0,3.54,0,5.24,0,11.94,0,23.89,0,35.83,0,1.24-.17,2.41.91,3.5,1.39,1.68.91,3.52,1.87,5.24,2.69,5.52,2.56,11.37,4.82,17.48,5.36,2.59.07,5.28.09,7.86,0,2.88-.19,5.85-.51,8.74-.44,3.77.06,7.6.16,11.36.49,3.77.02,7.6,0,11.36,0"/><path class="b" d="M8.17,39.83c12.81.09,25.66-.18,38.45.1,9.08,11,14.56,6.59,24.47-.1,11.06,0,22.15,0,33.21,0,3.77,0,7.59,0,11.36,0,1.4,0,2.97,0,4.37,0,.85-.03,1.94-.08,2.62.53,6.97,4.04,14.49,8.06,22.72,8.31,6.14.19,12.22-1.21,18.35-1.35,6.73-.49,13.47.29,20.1,1.44"/><path class="b" d="M8.17,37.64h37.58c2.06,1.57,3.73,3.88,6.12,5.04,4.79,2.58,10.07-.52,13.98-3.35.77-.53,1.75-1.33,2.62-1.68,1.1,0,2.4,0,3.5,0,2.89,0,5.85,0,8.74,0,14.27.01,28.55-.03,42.82.01,5.91,3.64,12.17,7.45,19.23,8.11,7.06.65,14-1.5,20.97-2.2,6.71-.96,13.55-.39,20.1,1.28"/><path class="b" d="M8.17,35.44c8.73,0,17.49,0,26.22,0,2.3,0,4.69,0,6.99,0,1.4.09,3.05-.27,4.37.31,1.53,1.56,3.24,3.25,5.24,4.19,2.78,1.31,6.1.78,8.74-.62,7.39-4.1,3.19-4,12.23-3.88,6.1,0,12.25,0,18.35,0,11.06,0,22.15,0,33.21,0,1.64-.17,3,1.38,4.37,2.08,2.49,1.54,5.13,3.06,7.87,4.12,15.88,5.95,28.1-7.37,48.06-.72"/><path class="b" d="M8.17,33.24c12.23.03,24.48-.06,36.7.03,6.38,6.94,11.59,5.08,18.35-.03h62.05c4.6,3.02,9.27,6.46,14.86,7.29,5.32.88,10.67-.61,15.73-2.12,9.52-3.05,18.25-5.07,27.96-1.38"/><path class="b" d="M8.17,31.05h35.83c5.74,5.06,9.5,5.16,15.73.82,1.17-1.11,2.9-.78,4.37-.82,2.3,0,4.69,0,6.99,0,11.06,0,22.15,0,33.21,0,6.69,0,13.41,0,20.1,0,1.33-.22,2.48.93,3.5,1.62,1.08.76,2.38,1.66,3.5,2.37,3.12,1.98,6.76,3.4,10.49,3.53,5.48.2,10.67-2.04,15.73-3.85,8.55-3.28,17.44-5.14,26.22-1.47"/><path class="b" d="M8.17,28.85c11.06,0,22.15,0,33.21,0,1.38-.08,2.5-.02,3.5,1.06,1.71,1.34,3.9,2.38,6.12,2.29,2.92-.15,5.39-1.99,7.86-3.35,4.06,0,8.18,0,12.23,0,11.35,0,22.73,0,34.08,0,6.69,0,13.41,0,20.1,0,2.2,1,4.04,2.95,6.12,4.2,2.83,1.89,6.18,3.25,9.61,3.39,8.13.16,15.14-4.86,22.72-7.09,1.33-.57,2.95-.52,4.37-.49,2,0,4.12,0,6.12,0,1.7,0,3.54,0,5.24,0,1.45-.08,3.05.04,4.37.72"/><path class="b" d="M8.17,26.65h34.96c3.59,3.15,7.22,3.49,11.36,1.15.78-.39,1.71-1.14,2.62-1.15,1.7,0,3.54,0,5.24,0,3.77,0,7.59,0,11.36,0,17.18,0,34.38,0,51.56,0,2.37,1.53,4.56,3.54,6.99,4.98,6.38,3.99,12.73,2.98,19.23-.09,2.31-1.03,4.68-2.2,6.99-3.24,1.66-.65,3.4-1.79,5.24-1.65,6.69,0,13.41,0,20.1,0"/><path class="b" d="M8.17,24.46c10.19,0,20.4,0,30.59,0,1.1,0,2.4,0,3.5,0,.89.18,1.81.97,2.62,1.34,1.04.47,2.35.74,3.5.68,2.17-.08,4.15-1.24,6.12-2.01,5.81,0,11.67,0,17.48,0,12.52,0,25.06,0,37.58,0,4.64,0,9.34,0,13.98,0,1.71-.28,3.06,1.12,4.37,1.99,3.8,2.89,8.14,5.74,13.11,5.63,7.04-.21,12.96-4.7,19.23-7.38,1.04-.4,2.4-.2,3.5-.24,1.7,0,3.54,0,5.24,0,4.94,0,9.92,0,14.86,0"/><path class="b" d="M8.17,22.26c7.86,0,15.74,0,23.6,0,3.47,0,7.01,0,10.49,0,1.38.51,2.86,1.26,4.37,1.25,1.13.02,2.43-.23,3.5-.59.79-.27,1.76-.79,2.62-.66,6.4,0,12.83,0,19.23,0,13.39,0,26.81,0,40.2,0,3.77,0,7.59,0,11.36,0,1.28-.2,2.5.72,3.5,1.39,1.1.72,2.41,1.6,3.5,2.35,3.06,2.13,6.68,3.85,10.49,3.79,6.76-.19,12.43-4.55,18.35-7.32,1.05-.36,2.4-.18,3.5-.22,1.7,0,3.54,0,5.24,0,5.23,0,10.5,0,15.73,0"/><path class="b" d="M8.17,20.07c35.55.06,71.03-.01,106.62,0,3.18,0,6.43,0,9.61,0,.89.1,1.87.83,2.62,1.27,1.1.68,2.41,1.51,3.5,2.2,3.37,2.18,7.23,4.14,11.36,3.87,6.11-.42,11.29-4.23,16.6-6.9.95-.71,2.39-.38,3.5-.45,1.7,0,3.54,0,5.24,0,5.52,0,11.08,0,16.6,0"/><path class="b" d="M8.17,17.87c35.83,0,71.66,0,107.49,0,2.89,0,5.85,0,8.74,0,.91-.17,1.87.6,2.62,1.01,1.1.64,2.41,1.42,3.5,2.08,3.69,2.2,7.8,4.4,12.23,3.99,5.78-.54,10.7-4.07,15.73-6.64.96-.7,2.39-.37,3.5-.44,1.7,0,3.54,0,5.24,0,5.52,0,11.08,0,16.6,0"/><path class="b" d="M8.17,15.67c35.83,0,71.66,0,107.49,0,3.18,0,6.43,0,9.61,0,1.87.37,3.54,1.77,5.24,2.59,3.76,2.05,7.83,4.28,12.23,4.16,6.11-.26,11.3-4.05,16.6-6.7,8.14-.16,16.32,0,24.47-.06"/><path class="b" d="M8.17,13.48c35.83,0,71.66,0,107.49,0,3.18,0,6.43,0,9.61,0,1.21-.17,2.47.57,3.5,1.11,1.09.56,2.4,1.24,3.5,1.79,3.53,1.71,7.37,3.39,11.36,3.34,4.05-.11,7.84-1.96,11.36-3.79,1.71-.76,3.39-2.14,5.24-2.45,7.85,0,15.74,0,23.6,0"/><path class="b" d="M8.17,11.28c35.83,0,71.66,0,107.49,0,3.47,0,7.01,0,10.49,0,1.19-.15,2.46.45,3.5.97,1.09.51,2.4,1.12,3.5,1.62,3.55,1.61,7.43,2.9,11.36,2.95,3.69-.03,7.23-1.53,10.49-3.13,1.71-.74,3.42-1.99,5.24-2.41,7.85,0,15.74,0,23.6,0"/></svg>