<?xml version="1.0" encoding="UTF-8"?><svg id="a" xmlns="http://www.w3.org/2000/svg" width="1920" height="2400" viewBox="0 0 192 240"><defs><style>.b{fill:none;stroke:#fff;stroke-miterlimit:10;stroke-width:.3px;}.c{stroke-width:0px;}</style></defs><rect class="c" x="0" width="192" height="240"/><path class="b" d="M7.36,227.55c5.87,0,11.77,0,17.64,0,2.32.14,4.73.44,7.06.37,14.1-.57,28.22-.34,42.33-.37,9.1,0,18.24,0,27.34,0,.79,0,1.87-.04,2.65.15.78.28,1.86.65,2.65.92,2,.67,4.13,1.31,6.17,1.82,5.44,1.36,11.22,2.03,16.76.84,3.92-.83,7.7-2.38,11.47-3.73,2.91,0,5.91,0,8.82,0,11.46,0,22.94,0,34.4,0"/><path class="b" d="M7.36,225.33c4.1,0,8.25,0,12.35,0,2.61.1,5.31.45,7.94.33,15.27-.63,30.58-.23,45.86-.33,9.1,0,18.24,0,27.34,0,1.55-.19,2.98.4,4.41.91,2.29.76,4.71,1.5,7.06,2.1,5.72,1.45,11.8,2.28,17.64,1.09,2.98-.63,5.97-1.64,8.82-2.7,1.1-.41,2.43-.93,3.53-1.36.78-.04,1.87-.03,2.65-.03,13.22,0,26.46,0,39.69,0"/><path class="b" d="M7.36,223.12c1.42.03,3-.09,4.41.1,2.25.72,4.69,1.11,7.06,1.07,5.89-.09,11.74-1.4,17.64-1.16,20.58,0,41.16,0,61.74,0,1.42.03,3.07-.17,4.41.42,2.3.77,4.72,1.54,7.06,2.2,5.99,1.67,12.29,2.93,18.52,2.18,5.52-.68,10.66-3.05,15.88-4.8,13.52,0,27.05,0,40.57,0"/><path class="b" d="M7.36,222.74c2.12-.07,4.13.83,6.17,1.18,6.88.26,13.38-3.34,20.29-3.01,20.87,0,41.75,0,62.62,0,1.41.07,3.04-.2,4.41.22,2.6.85,5.3,1.72,7.94,2.48,6.55,1.85,13.45,3.39,20.28,2.5,5.81-.84,11.28-3.22,16.76-5.2,12.93,0,25.88,0,38.81,0"/><path class="b" d="M7.36,222.36c1.47.16,3.03.6,4.41,1.11,3.33,1.02,6.64-.78,9.7-1.9,3.11-1.22,6.37-2.45,9.7-2.88,2.62,0,5.32,0,7.94,0,18.22,0,36.46,0,54.68,0,1.72.02,3.58-.04,5.29.04,2.91.93,5.89,1.89,8.82,2.75,7.12,2.05,14.6,3.94,22.05,2.93,6.43-.91,12.39-3.74,18.52-5.71,12.05,0,24.11,0,36.16,0"/><path class="b" d="M7.36,221.82c1.45.27,3.01.77,4.41,1.21,4.23,1.12,7.87-2.02,11.47-3.72,2.49-1.23,5.17-2.46,7.94-2.84,2.32,0,4.74,0,7.06,0,17.63,0,35.28,0,52.92,0,2.02,0,4.16,0,6.17,0,3.26.72,6.48,2,9.7,2.9,7.68,2.26,15.74,4.57,23.81,3.48,7.03-1.05,13.62-3.97,20.29-6.3,11.16-.19,22.35,0,33.51-.07"/><path class="b" d="M7.36,221.1c1.74.36,3.54,1.02,5.29,1.32,4.47.42,7.86-3.14,11.47-5.18,6.18-3.68,7.38-2.95,14.11-2.98,17.34,0,34.7,0,52.04,0,2.02.02,4.16-.06,6.17.05,3.22.96,6.49,2.01,9.7,3,8.25,2.48,16.86,5.28,25.58,4.16,7.95-1.13,15.36-4.52,22.93-7.04,1.38-.32,3-.11,4.41-.17,2.02,0,4.16,0,6.17,0,6.45,0,12.95,0,19.4,0"/><path class="b" d="M7.36,220.18c1.73.35,3.55.91,5.29,1.19,4.96.36,8.5-3.85,12.35-6.3,5.82-3.8,6.76-2.97,13.23-3.04,17.05,0,34.11,0,51.15,0,1.72,0,3.57,0,5.29,0,3.53,1,7.09,2.14,10.58,3.26,8.82,2.71,17.97,6.05,27.34,4.96,9.19-1.2,17.67-5.29,26.46-8,1.06-.36,2.42-.18,3.53-.22,1.71,0,3.58,0,5.29,0,5.57,0,11.19,0,16.76,0"/><path class="b" d="M7.36,219.06c2.27.59,4.74.25,7.06.34.8,0,1.86.04,2.65-.12.48-.22,1.32-.7,1.76-.97,2.16-1.37,4.14-3.23,6.17-4.78,2.11-1.55,4.48-3.1,7.06-3.7,2.02,0,4.15,0,6.17,0,17.05,0,34.11,0,51.15,0,1.11,0,2.42,0,3.53.01.79.21,1.86.51,2.65.74,2.63.76,5.33,1.62,7.94,2.48,9.7,3.04,19.63,7.17,29.99,6.16,7.95-.88,15.42-4.03,22.93-6.6,2-.7,4.14-1.41,6.17-2.03,1.08-.3,2.38-.86,3.53-.76,6.16,0,12.36,0,18.52,0"/><path class="b" d="M7.36,217.18c3.21,0,6.49,0,9.7,0,1.35.21,2.53-.6,3.53-1.4,1.79-1.34,3.54-3.01,5.29-4.4,2.09-1.58,4.45-3.24,7.06-3.78,2.02,0,4.15,0,6.17,0,4.69-.06,9.43.05,14.11.19,11.74-.44,23.53-.07,35.28-.19,1.78-.14,3.61.25,5.29.79,2.03.57,4.17,1.22,6.17,1.87,6.75,2.17,13.41,4.76,20.29,6.53,1.96.62,4.15.31,6.17.38,2.91,0,5.91,0,8.82,0,2.02-.05,4.17.11,6.17-.1,2.35-.57,4.76-1.3,7.06-2.06,5.88-1.96,11.7-4.22,17.64-5.99,2-.49,4.1-1.42,6.17-1.43,4.1,0,8.25,0,12.35,0"/><path class="b" d="M7.36,214.96c4.1,0,8.25,0,12.35,0,2.94-1.63,5.23-4.39,7.94-6.37,1.84-1.36,3.94-2.64,6.17-3.21,1.72,0,3.57,0,5.29,0,2.91,0,5.91,0,8.82,0,2.02.18,4.15.39,6.17.36,7.91-.6,15.88-.3,23.81-.36,3.5,0,7.08,0,10.58,0,4.77,1.08,9.49,2.61,14.11,4.2,5.28,1.77,10.49,3.96,15.88,5.37,2.91,0,5.91,0,8.82,0,6.75,0,13.54,0,20.29,0,7.71-2.31,15.17-5.48,22.93-7.64,2.59-.73,5.3-1.38,7.94-1.88,2.01-.1,4.16-.02,6.17-.05"/><path class="b" d="M7.36,212.74c4.39,0,8.84,0,13.23,0,1-.05,1.9-1.05,2.65-1.62,1.13-.96,2.42-2.14,3.53-3.11,2.3-2.01,4.97-3.85,7.94-4.72,1.4-.22,2.99-.08,4.41-.12,2.91,0,5.91,0,8.82,0,2.31.28,4.73.54,7.06.52,2.34.07,4.74-.45,7.06-.52,7.63,0,15.3,0,22.93,0,2.99.06,5.94,1.25,8.82,1.98,5.66,1.68,11.22,3.82,16.76,5.86,1.71.56,3.5,1.45,5.29,1.73,3.8,0,7.67,0,11.47,0,8.22,0,16.47,0,24.69,0,1.83.21,3.6-.69,5.29-1.25,2.32-.82,4.74-1.7,7.06-2.52,6.58-2.32,13.35-4.32,20.28-5.24"/><path class="b" d="M7.36,210.53h14.99c4.54-3.32,8.34-8.22,14.11-9.44,2.3-.3,4.74-.06,7.06-.13,4.13-.24,8.23.67,12.35.68,2.64.04,5.33-.38,7.94-.68,1.72,0,3.57,0,5.29,0,4.98.04,10.02-.09,14.99.05,3.55.75,7.13,1.72,10.58,2.83,4.45,1.42,8.87,3.11,13.23,4.79,1.72.62,3.52,1.46,5.29,1.9,1.72,0,3.57,0,5.29,0,13.52,0,27.05,0,40.57,0,3.27-.87,6.47-2.31,9.7-3.33,5.16-1.77,10.48-3.28,15.88-4.13"/><path class="b" d="M7.36,208.31c5.28,0,10.6,0,15.88,0,.98-.19,1.9-1.18,2.65-1.79,1.12-.96,2.39-2.15,3.53-3.09,2.54-2.12,5.56-3.81,8.82-4.48,2.87-.49,5.92-.11,8.82-.22,3.5.28,7.05.93,10.58.83,2.63-.04,5.34-.38,7.94-.77,2.61-.13,5.32-.02,7.94-.06,2.62,0,5.32,0,7.94,0,2.35.34,4.76,1.02,7.06,1.62,7.53,2.05,14.79,5.05,22.05,7.88,8.51.21,17.06,0,25.58.08,9.4,0,18.82,0,28.22,0,2.68-.61,5.3-1.84,7.94-2.62,4.02-1.33,8.18-2.48,12.35-3.23"/><path class="b" d="M7.36,206.09h17.64c2.66-2.05,5.09-4.6,7.94-6.4,5.55-3.7,12.18-3.58,18.52-2.65,3.49.44,7.08.62,10.58.3,2.33-.19,4.74-.55,7.06-.82,1.72,0,3.57,0,5.29,0,1.72,0,3.57,0,5.29,0,1.44.18,3,.59,4.41.92,6.62,1.63,13.08,4,19.4,6.52,1.72.68,3.57,1.43,5.29,2.1,2.91.07,5.91,0,8.82.03,15.58,0,31.17,0,46.74,0,2.32-.13,4.86.39,7.06-.51,4.32-1.47,8.75-2.81,13.23-3.7"/><path class="b" d="M7.36,203.88c5.57,0,11.19,0,16.76,0,.84,0,1.91.1,2.65-.38,1.14-.9,2.43-2.03,3.53-2.97,3.92-3.39,8.86-5.87,14.11-6.08,5.89-.17,11.74,1.4,17.64.92,8.68-.64,15.16-2.15,23.81.7,4.77,1.36,9.49,3.08,14.11,4.9,1.42.56,3,1.19,4.41,1.75,1.1.38,2.34,1.12,3.53,1.14,5.28,0,10.6,0,15.87,0,8.22,0,16.47,0,24.69,0,8.52,0,17.06,0,25.58,0,1.47.09,3-.7,4.41-1.03,2-.58,4.14-1.12,6.17-1.56"/><path class="b" d="M7.36,201.66c6.74-.09,13.55.19,20.28-.11,5.7-4.8,11.53-9.41,19.4-9.16,4.41.08,8.82.99,13.23,1,4.41.08,8.83-.56,13.23-.72,8.96-.53,17.38,3.15,25.58,6.28,2.32.88,4.69,1.96,7.06,2.72,4.98,0,10.01,0,14.99,0,13.22,0,26.46,0,39.69,0,4.39,0,8.84,0,13.23,0,2.02,0,4.16,0,6.17,0,1.43-.24,2.99-.72,4.41-1.02"/><path class="b" d="M7.36,199.44h21.17c5.87-4.47,11.55-9.33,19.4-9.15,4.41.04,8.82.94,13.23,1.02,4.1.13,8.25-.29,12.35-.39,9.05-.5,17.34,2.95,25.58,6.21,1.41.55,2.99,1.17,4.41,1.72,1.05.52,2.37.67,3.53.59,5.28,0,10.6,0,15.88,0,20.57,0,41.16,0,61.74,0"/><path class="b" d="M7.36,197.23h22.05c5.64-3.9,11.27-8.96,18.52-9.06,4.42-.15,8.83.8,13.23,1.03,4.68.31,9.42-.08,14.11,0,8.66-.06,16.76,3.29,24.69,6.36,1.41.53,2.99,1.12,4.41,1.62,2.02.1,4.16.02,6.17.04,4.1,0,8.25,0,12.35,0,20.57,0,41.16,0,61.74,0"/><path class="b" d="M7.36,195.01c7.34,0,14.71,0,22.05,0,.97.07,1.89-.77,2.65-1.27,1.41-1.02,2.97-2.16,4.41-3.13,3.64-2.53,7.84-4.59,12.35-4.69,5.6-.13,11.16,1.28,16.76,1.35,4.39.16,8.85-.02,13.23.4,3.88.35,7.76,1.23,11.47,2.42,4.72,1.52,9.37,3.44,14.11,4.92,8.52,0,17.06,0,25.58,0,18.22,0,36.46,0,54.68,0"/><path class="b" d="M7.36,192.79c4.98,0,10.01,0,14.99,0,1.72,0,3.57,0,5.29,0,1.13-.07,2.55.26,3.53-.45,5.57-3.4,10.79-8.35,17.64-8.74,5.62-.34,11.17,1.22,16.76,1.52,7.37.46,14.88.37,22.05,2.39,5.65,1.47,11.12,3.68,16.76,5.17,8.2.3,16.48.01,24.69.11,18.52,0,37.05,0,55.56,0"/><path class="b" d="M7.36,190.58c5.57,0,11.19,0,16.76,0,8.38-.02,5.43.72,12.35-3.8,3.47-2.4,7.21-4.82,11.47-5.47,5.61-.84,11.21.87,16.76,1.45,6.74.82,13.63.83,20.28,2.3,6.85,1.41,13.41,4.05,20.29,5.35,3.47.41,7.09.06,10.58.17,4.1-.05,8.26.13,12.35-.12,18.8.21,37.64.09,56.45.12"/><path class="b" d="M7.36,187.27c.43.3,1.3.85,1.76,1.09.44,0,1.32,0,1.76,0,1.72,0,3.57,0,5.29,0,4.98-.02,10.01.03,14.99-.02,5.21-3.67,10.37-8.16,16.76-9.54,2.62-.01,5.32-.04,7.94.01,1.73.25,3.58.6,5.29.91,9.95,1.87,20.22,2.02,29.99,4.88,7.46,2.03,15.12,4.13,22.93,3.36,7.33-.58,14.66-2.86,22.05-1.61,1.74.26,3.6.67,5.29,1.14,1.4.39,2.93,1.02,4.41.87,12.93,0,25.88,0,38.81,0"/><path class="b" d="M7.36,183.31c1.38.96,2.86,2.17,4.41,2.83,2.02,0,4.16,0,6.17,0,4.39,0,8.84,0,13.23,0,1.87-1.08,3.59-2.7,5.29-4.02,1.64-1.24,3.53-2.38,5.29-3.42,1.36-.78,2.92-1.54,4.41-2.04,1.41-.18,2.99-.06,4.41-.1,2.62,0,5.32,0,7.94,0,3.52.57,7.05,1.48,10.58,2,6.77,1.03,13.62,1.86,20.29,3.49,7.48,1.77,15.19,3.8,22.93,2.69,9.13-1.29,17.06-5,26.46-2.36,3.31.82,6.57,2.1,9.7,3.44,1.61.66,3.58.2,5.29.33,10.28,0,20.59,0,30.87,0"/><path class="b" d="M7.36,179.07c1.67,1.3,3.51,2.66,5.29,3.81.76.45,1.7,1.25,2.65,1.05,5.28,0,10.6,0,15.88,0,3.72-2.31,6.62-5.88,10.58-7.86,1.35-.67,2.83-1.85,4.41-1.72,5.28.05,10.6-.09,15.88.06,8.71,2.2,17.68,3.25,26.46,5.14,8.7,1.94,17.69,3.56,26.46,1.04,3.83-.98,7.59-2.44,11.47-3.24,7.28-1.67,14.67.78,21.17,3.98,1.73.82,3.56,1.78,5.29,2.6,1.41,0,3,0,4.41,0,9.1,0,18.24,0,27.34,0"/><path class="b" d="M7.36,174.62c3.33,2.56,6.67,5.48,10.58,7.09,2.91,0,5.91,0,8.82,0,1.11,0,2.42,0,3.53,0,2.04-.5,3.7-2.3,5.29-3.59,2.38-2.24,4.94-4.49,7.94-5.87,1.4-.23,2.99-.08,4.41-.12,3.8,0,7.66,0,11.47,0,2.32.1,4.81-.3,7.06.37,6.67,1.72,13.52,2.82,20.29,4.11,7.52,1.42,15.31,2.86,22.93,1.32,5.78-.97,11.05-3.85,16.76-5.05,6.59-1.16,13.46.42,19.4,3.32,2.36,1.18,4.76,2.57,7.06,3.87,1.08.54,2.28,1.54,3.53,1.63,9.4,0,18.82,0,28.22,0"/><path class="b" d="M7.36,170.03c4.41,3.44,8.79,7.32,14.11,9.26,1.97.45,4.16.1,6.17.21,5.27.24,9.87-6.55,14.11-9.24,1.54-.67,3.62-.21,5.29-.34,4.69,0,9.42,0,14.11,0,3.22.11,6.6-.41,9.7.64,4.93,1.25,9.98,2.2,14.99,3.07,5.23.88,10.56,1.7,15.88,1.5,6.14-.12,11.98-2.22,17.64-4.42,2.5-1.09,5.29-.75,7.94-.79,3.8,0,7.67,0,11.47,0,7.23,1.16,13.23,5.87,19.4,9.49,8.8.23,17.65.01,26.46.08"/><path class="b" d="M7.36,167.7c1.13.07,2.54-.26,3.53.43,1.98,1.54,4.08,3.16,6.17,4.55,5.22,3.57,11.16,5.5,16.76,1.49,2.75-1.95,5.2-4.49,7.94-6.46,6.75,0,13.54,0,20.29,0,2.32,0,4.74,0,7.06,0,1.43,0,3.03-.1,4.41.37,9.77,2.27,19.93,4.35,29.99,3.13,2.67-.36,5.39-1.04,7.94-1.91,1.72-.48,3.48-1.6,5.29-1.6,5.87,0,11.77,0,17.64,0,2.02,0,4.16,0,6.17,0,1.11.04,2.45-.13,3.53.19,5.14,1.76,9.7,4.84,14.11,7.94,1,.69,2.23,1.65,3.53,1.44,2.02,0,4.16,0,6.17,0,5.57,0,11.19,0,16.76,0"/><path class="b" d="M7.36,165.49h6.17c5.55,3.8,12.35,9.5,19.4,6.09,2.89-1.41,5.32-3.77,7.94-5.61,1.14-.85,3.03-.36,4.41-.48,2.02,0,4.15,0,6.17,0,7.93,0,15.89,0,23.81,0,4.09.65,8.2,1.72,12.35,2.08,4.67.52,9.45.67,14.11,0,3-.33,5.91-1.39,8.82-2.09,8.22,0,16.47,0,24.7,0,3.8.08,7.68-.18,11.47.12,2.75,1.09,5.46,2.55,7.94,4.18,1.77,1.16,3.58,2.57,5.29,3.81.41.31,1.34.95,1.76,1.25.74.28,1.86.22,2.65.21,6.75,0,13.54,0,20.28,0"/><path class="b" d="M7.36,163.27c3.21,0,6.49,0,9.7,0,4.33,2.44,8.8,6.02,14.11,5.22,2.61-.34,4.9-1.9,7.06-3.3,3.34-2.31,3.14-1.93,7.06-1.92,2.91,0,5.91,0,8.82,0,8.22,0,16.47,0,24.69,0,3.11.21,6.42,1.05,9.7,1.15,3.5.24,7.1.2,10.58-.25,1.74-.18,3.57-.67,5.29-.91,1.41,0,3,0,4.41,0,12.34,0,24.7,0,37.04,0,.77,0,1.87,0,2.65,0,1.49.5,3.04,1.35,4.41,2.1,3.8,2.04,7.04,5.07,10.58,7.47h21.17"/><path class="b" d="M7.36,161.05c4.69,0,9.42,0,14.11,0,1.66.95,3.47,1.94,5.29,2.56,2.52.89,5.4,1.05,7.94.11,2.09-.71,4.02-2.21,6.17-2.67,4.98,0,10.01,0,14.99,0,8.81,0,17.65,0,26.46,0,2.61.08,5.31.48,7.94.41,2.33.04,4.74-.27,7.06-.41,5.87,0,11.77,0,17.64,0,11.16,0,22.35,0,33.51,0,1.96-.29,3.65.82,5.29,1.74,3.81,2.14,7.19,5.07,10.58,7.79,6.75.13,13.54,0,20.28.05"/><path class="b" d="M7.36,158.84c6.16,0,12.36,0,18.52,0,.85-.12,1.85.35,2.65.58,1.09.31,2.4.54,3.53.57,1.13.02,2.45-.17,3.53-.49.79-.25,1.8-.68,2.65-.66,5.28,0,10.6,0,15.88,0,11.16.06,22.36-.15,33.51.12,11.16-.27,22.35-.06,33.51-.12,9.99,0,20,0,29.99,0,1.92.25,3.64,1.68,5.29,2.62,3.11,2.02,5.99,4.53,8.82,6.91,6.45.11,12.95,0,19.4.04"/><path class="b" d="M7.36,156.62c15.87,0,31.76,0,47.63,0,7.34,0,14.71,0,22.05,0,2.61.17,5.3.76,7.94.68,2.93.08,5.91-.43,8.82-.68,8.52,0,17.06,0,25.58,0,10.87,0,21.76,0,32.63,0,0,0,.88.01.88.01l.88.44c1.14.6,2.46,1.4,3.53,2.13,3.11,2.05,5.9,4.7,8.82,6.99h18.52"/><path class="b" d="M7.36,154.4c19.4,0,38.81,0,58.21,0,2.31.07,4.76-.16,7.06.13,3.69,1.16,7.58,1.94,11.47,1.85,4.48.04,8.87-1.17,13.23-1.98,10.87,0,21.76,0,32.63,0,5.28,0,10.6,0,15.88,0,1.71,0,3.58,0,5.29,0,.77,0,1.87,0,2.65,0,.43.23,1.35.71,1.76.96,3.83,2.27,7.25,5.28,10.58,8.2.67.51,1.85.42,2.65.41,1.41,0,3,0,4.41,0,3.8,0,7.67,0,11.47,0"/><path class="b" d="M7.36,152.19c13.81,0,27.64,0,41.45,0,6.46.02,12.95-.03,19.4.02,2.91.93,5.87,2.01,8.82,2.81,6.75,1.76,13.8.19,20.28-1.91.78-.25,1.86-.6,2.65-.86,1.1-.1,2.42-.05,3.53-.06,2.61,0,5.32,0,7.94,0,7.63,0,15.3,0,22.93,0,6.45,0,12.95,0,19.4,0,.48-.05,1.39.27,1.76.58,1.14.67,2.46,1.55,3.53,2.33,2.74,2.02,5.37,4.38,7.94,6.61,5.86.15,11.77.01,17.64.06"/><path class="b" d="M7.36,149.97c19.4,0,38.81,0,58.21,0,.87-.13,1.89.35,2.65.71,1.41.62,2.98,1.29,4.41,1.86,3.89,1.66,8.08,2.93,12.35,2.63,4.24-.22,8.39-1.53,12.35-3.01,2.04-.65,4.06-1.85,6.17-2.19,13.22,0,26.46,0,39.69,0,3.8,0,7.67,0,11.47,0,2.98,1.07,5.46,3.47,7.94,5.39,1.73,1.27,3.34,3.32,5.29,4.18,5.57,0,11.19,0,16.76,0"/><path class="b" d="M7.36,147.75c13.52,0,27.05,0,40.57,0,6.16,0,12.36,0,18.52,0,2.87,1.58,5.81,3.24,8.82,4.54,6.93,3.4,14.3,2.31,21.17-.64,2.96-1.19,5.89-2.65,8.82-3.9,6.75,0,13.54,0,20.28,0,6.75,0,13.54,0,20.29,0,3.21.03,6.5-.07,9.7.05,4.55,2.54,8.24,6.4,12.35,9.53h16.76"/><path class="b" d="M7.36,145.54c13.52,0,27.05,0,40.57,0,6.16,0,12.36,0,18.52,0,3,1.54,5.8,3.62,8.82,5.12,6.96,3.87,14.09,3.34,21.17.12,3.59-1.56,7.08-3.49,10.58-5.23,6.16-.02,12.36,0,18.52,0,6.16,0,12.36,0,18.52,0,3.8,0,7.67,0,11.47,0,4.59,2.41,8.31,6.3,12.35,9.5,5.56.2,11.19.01,16.76.08"/><path class="b" d="M7.36,143.32c18.81,0,37.63,0,56.45,0,.79,0,1.86,0,2.65,0,1.84.78,3.57,2.15,5.29,3.15,3.53,2.28,7.27,4.57,11.47,5.33,6.18,1.23,12.3-1.29,17.64-4.21,1.73-.93,3.58-1.99,5.29-2.95,1.05-.55,2.27-1.5,3.53-1.32,4.98,0,10.01,0,14.99,0,9.4,0,18.82,0,28.22,0,.77,0,1.87,0,2.65,0,1.58.6,3.05,1.86,4.41,2.85,2.67,2.07,5.28,4.42,7.94,6.52,1.97.45,4.16.11,6.17.21,3.5,0,7.08,0,10.58,0"/><path class="b" d="M7.36,141.1c18.81,0,37.63,0,56.45,0,1.11.04,2.45-.14,3.53.21,1.4.97,2.98,2.04,4.41,2.96,3.6,2.25,7.32,4.63,11.47,5.7,6.81,1.89,13.65-1.12,19.4-4.6,1.73-1.02,3.57-2.16,5.29-3.2.76-.42,1.71-1.23,2.65-1.08,3.8,0,7.67,0,11.47,0,9.69,0,19.41,0,29.1,0,5.18-.06,4.52-.35,8.82,2.89,1.75,1.35,3.58,2.9,5.29,4.3,1.07.78,2.2,2.08,3.53,2.38,5.28,0,10.6,0,15.88,0"/><path class="b" d="M7.36,138.89h59.97c5.33,3.97,11.14,7.76,17.64,9.47,1.41.2,2.99.07,4.41.1,1.11-.02,2.43.08,3.53-.12,6.56-1.57,11.98-5.92,17.64-9.37,6.45-.21,12.95-.01,19.4-.08,8.22,0,16.47,0,24.69,0,0,0,.88.02.88.02,0,0,.88.53.88.53.8.51,1.88,1.25,2.65,1.82,2.67,1.99,5.28,4.25,7.94,6.26.92.95,2.27,1.04,3.53.95,1.1,0,2.43,0,3.53,0,3.5,0,7.08,0,10.58,0"/><path class="b" d="M7.36,136.67c15.87,0,31.76,0,47.63,0,3.21,0,6.49,0,9.7,0,.78,0,1.86,0,2.65,0,1.21.62,2.41,1.73,3.53,2.49,4.26,3.08,9.13,5.39,14.11,7.02,3.2.16,6.49.03,9.7.06,6.25-1.8,11.35-6.15,16.76-9.57,12.34,0,24.7,0,37.04,0,2.02,0,4.16,0,6.17,0,1.95.57,3.64,2.14,5.29,3.27,1.73,1.32,3.56,2.8,5.29,4.12,1.07.73,2.22,1.92,3.53,2.19,5.28,0,10.6,0,15.88,0"/><path class="b" d="M7.36,134.45c19.1,0,38.22,0,57.33,0,.79,0,1.86,0,2.65,0,1.86.97,3.49,2.63,5.29,3.72,3.8,2.45,8.07,4.29,12.35,5.73,3.19.3,6.5.04,9.7.12,3.59.21,8.48-3.53,11.47-5.48,2.04-1.29,3.94-3.16,6.17-4.09,2.91,0,5.91,0,8.82,0,9.4,0,18.82,0,28.22,0,5.59-.06,4.96-.36,9.7,2.98,2.92,2.11,5.78,4.49,8.82,6.43,1.99.35,4.16.08,6.17.16,3.5,0,7.08,0,10.58,0"/><path class="b" d="M7.36,132.24h59.97c2.01,1.46,4.03,3.14,6.17,4.41,3.61,2.05,7.52,3.77,11.47,5.06,4.08.26,8.25.03,12.35.1,5.6-2.1,10.11-6.26,14.99-9.58,13.22,0,26.46,0,39.69,0,2.32-.12,4.28,1.76,6.17,2.87,3.22,2.2,6.33,4.74,9.7,6.71h16.76"/><path class="b" d="M7.36,130.02c15.58,0,31.17,0,46.74,0,3.21,0,6.49,0,9.7,0,.78,0,1.86,0,2.65,0,1.27.48,2.41,1.68,3.53,2.42,2.41,1.82,5.18,3.25,7.94,4.46,2.27,1,4.64,2.11,7.06,2.7,4.39-.03,8.84.05,13.23-.03,5.24-2.22,9.54-6.17,14.11-9.45,11.45-.24,22.94,0,34.4-.09,1.72.06,3.59-.14,5.29.13,1.81.72,3.65,1.77,5.29,2.82,3.24,2.08,6.36,4.49,9.7,6.4,1.96.5,4.16.12,6.17.23,3.8,0,7.67,0,11.47,0"/><path class="b" d="M7.36,127.8h58.21c3.13,2.14,6.15,4.69,9.7,6.15,2.87,1.2,5.75,2.84,8.82,3.43,4.39,0,8.84,0,13.23,0,3.68.31,11.63-7.24,14.99-9.5,10.86-.2,21.76,0,32.63-.07,1.41.04,3.01-.11,4.41.13,2.48.61,4.87,1.83,7.06,3.12,3.55,2,6.81,4.78,10.58,6.33,5.87,0,11.77,0,17.64,0"/><path class="b" d="M7.36,125.59c14.99,0,29.99,0,44.98,0,2.62,0,5.32,0,7.94,0,1.1,0,2.42,0,3.53,0,.86.42,1.87,1.25,2.65,1.81,4.45,3.49,9.73,5.74,14.99,7.69,5.56.19,11.19.01,16.76.07.49.09,1.37-.16,1.76-.47,1.15-.64,2.46-1.49,3.53-2.26,3.01-2.12,5.78-4.75,8.82-6.84,6.46,0,12.95,0,19.4,0,2.32,0,4.74,0,7.06,0,1.42,0,3.01-.05,4.41.27,1.71.29,3.6.28,5.29.66,2.12.47,4.25,1.39,6.17,2.39,3.58,1.87,6.98,4.22,10.58,6.06,2.27.45,4.75.09,7.06.2,4.1,0,8.25,0,12.35,0"/><path class="b" d="M7.36,123.37c16.75,0,33.52,0,50.27,0,1.41.08,3.05-.22,4.41.25,2.56,1.87,5.2,3.84,7.94,5.44,2.49,1.45,5.29,2.49,7.94,3.59,1.34.56,3,.21,4.41.3,5.57,0,11.19,0,16.76,0,4.64-2.2,8.26-6.21,12.35-9.27.74-.39,1.84-.31,2.65-.31,1.41,0,3,0,4.41,0,4.39,0,8.84,0,13.23,0,1.41,0,3,0,4.41,0,.8-.01,1.91-.05,2.65.34,2.52.93,5.29,1.18,7.94,1.44,1.77.28,3.64.88,5.29,1.58,3.95,1.67,7.63,4.02,11.47,5.91,1.03.5,2.42.26,3.53.31,1.41,0,3,0,4.41,0,4.39,0,8.84,0,13.23,0"/><path class="b" d="M7.36,122.83c3.22-.21,6.51-.5,9.7-.95,1.73-.17,3.55-.75,5.29-.73,8.81,0,17.65,0,26.46,0,3.21,0,6.49,0,9.7,0,1.2.57,2.43,1.58,3.53,2.32,4.1,2.81,8.33,6.09,13.23,7.25,4.69,0,9.42,0,14.11,0,3.21,0,6.49,0,9.7,0,1.68-.35,3.05-1.93,4.41-2.9,2.66-2.14,5.13-4.72,7.94-6.67,7.63,0,15.3,0,22.93,0,.89-.09,1.86.58,2.65.91,1.37.61,2.95,1.16,4.41,1.48,2.62.48,5.41.53,7.94,1.47,4.28,1.41,8.26,3.71,12.35,5.59,7.61.33,15.3.02,22.93.12"/><path class="b" d="M7.36,123.32c5.02-.3,10.08-.83,14.99-1.94,1.74-.39,3.6-.9,5.29-1.45,1.12-.3,2.35-1.01,3.53-1,7.63,0,15.3,0,22.93,0,.93-.19,1.91.57,2.65,1.04.79.51,1.87,1.24,2.65,1.77,3.15,2.16,6.32,4.51,9.7,6.31,1.25.82,2.99.34,4.41.46,2.32,0,4.74,0,7.06,0,6.45-.04,12.95.08,19.4-.05,3.72-2.89,6.98-6.45,10.58-9.47,4.68-.16,9.43-.01,14.11-.06,1.72,0,3.57,0,5.29,0,1.12.05,2.5-.2,3.53.33,2.17,1.37,4.56,2.66,7.06,3.31,1.69.44,3.59.47,5.29.89,3.66.83,7.17,2.39,10.58,3.9,1.09.4,2.32,1.29,3.53,1.15,2.32,0,4.74,0,7.06,0,5.87,0,11.77,0,17.64,0"/><path class="b" d="M7.36,123.56c6.54-.36,13.14-1.21,19.4-3.2,2.06-.65,4.2-1.47,6.17-2.35.8-.35,1.87-.86,2.65-1.25.79-.05,1.86-.04,2.65-.04,4.1,0,8.25,0,12.35,0,3.76,1.73,7.2,4.19,10.58,6.55,5.11,3.52,3.51,3.05,9.7,3.03,9.69,0,19.41,0,29.1,0,3.57-2.66,6.32-6.47,9.7-9.38,2.56-.46,5.33-.08,7.94-.2,4.39,0,8.84,0,13.23,0,2.91,1.6,5.52,4.03,8.82,4.92,3.25.71,6.58,1.22,9.7,2.46,1.11.4,2.43.9,3.53,1.33,1.06.45,2.34,1,3.53.86,9.4,0,18.82,0,28.22,0"/><path class="b" d="M7.36,123.46c6.54-.44,13.14-1.3,19.4-3.3,3.64-1.1,7.13-2.78,10.58-4.35,2.77-1.11,5.93-1.29,8.82-.56,3.85.96,7.34,3.12,10.58,5.33,1.12.77,2.43,1.7,3.53,2.5.67.58,1.73,1.16,2.65,1,8.22,0,16.47,0,24.69,0,2.61,0,5.32,0,7.94,0,1.71-.12,3.66.29,5.29-.29,2.64-2.91,5.17-6.11,7.94-8.92,1.02-.6,2.4-.32,3.53-.37,2.02,0,4.15,0,6.17,0,2.91,0,5.91,0,8.82,0,.81,0,1.9-.08,2.65.29.78.65,1.85,1.54,2.65,2.18,1.6,1.27,3.42,2.54,5.29,3.36,2.23.93,4.78,1.17,7.06,1.98,1.74.52,3.55,1.27,5.29,1.76.78,0,1.86,0,2.65,0,10.58,0,21.17,0,31.75,0"/><path class="b" d="M7.36,121.86c3.5-.07,7.09.14,10.58-.1,6.7-1.32,13.19-3.58,19.4-6.37,4.03-1.54,8.57-.81,12.35,1.1,2.81,1.37,5.47,3.23,7.94,5.13,1.66.47,3.58.13,5.29.23,2.61,0,5.32,0,7.94,0,9.99,0,20,0,29.99,0,2.81-2.97,4.8-6.94,7.94-9.58h19.4c3.09,2.55,5.91,5.75,9.7,7.3,1.4.51,3.01.89,4.41,1.39.79.27,1.84.67,2.65.88,1.11,0,2.42,0,3.53,0,2.32,0,4.74,0,7.06,0,9.69,0,19.41,0,29.1,0"/><path class="b" d="M7.36,119.65c3.51,0,7.08,0,10.58,0,2.01-.11,4.21.25,6.17-.22,4.15-1.35,8.27-2.98,12.35-4.53,3.7-1.43,7.91-1.08,11.47.6,1.49.67,3.07,1.59,4.41,2.51.77.52,1.73,1.37,2.65,1.64,4.69,0,9.42,0,14.11,0,10.58,0,21.17,0,31.75,0,1.14-.58,1.91-2.23,2.65-3.21,1.37-2.03,2.9-4.31,4.41-6.24,2.89-.28,5.91-.04,8.82-.12,3.5.04,7.08-.09,10.58.06,2.76,2.69,5.44,5.74,8.82,7.67,1.35.72,3,1.2,4.41,1.8,4.09.13,8.25.01,12.35.05,10.58,0,21.17,0,31.75,0"/><path class="b" d="M7.36,117.43c6.46,0,12.95,0,19.4,0,2.98-.94,5.88-2.38,8.82-3.44,3.06-1.26,6.6-1.24,9.7-.11,1.49.53,3.08,1.34,4.41,2.19.78.46,1.68,1.37,2.65,1.36,5.57,0,11.19,0,16.76,0,7.04,0,14.12,0,21.17,0,2.32,0,4.74,0,7.06,0,1.41-.1,3.1.3,4.41-.35,2.06-2.97,3.69-6.59,6.17-9.23h18.52c3.72,3.52,7.06,8.43,12.35,9.58,4.1,0,8.25,0,12.35,0,11.16,0,22.35,0,33.51,0"/><path class="b" d="M7.36,115.21c7.34,0,14.71,0,22.05,0,3.48-1.16,6.82-3.32,10.58-3.36,2.11-.02,4.29.62,6.17,1.55,1.15.49,2.28,1.58,3.53,1.81,4.1,0,8.25,0,12.35,0,8.52,0,17.06,0,25.58,0,2.91,0,5.91,0,8.82,0,1.71-.09,3.63.23,5.29-.22,1.12-1.85,2.42-4.08,3.53-5.94.73-1.03,1.38-2.91,2.65-3.41,3.8,0,7.66,0,11.47,0,2.31.11,4.79-.25,7.06.2,2.93,3.41,6.9,8.45,11.47,9.37,4.39,0,8.84,0,13.23,0,11.16,0,22.35,0,33.51,0"/><path class="b" d="M7.36,113c7.93,0,15.89,0,23.81,0,2.67-.44,5.14-2.22,7.94-2.24,2.9-.24,5.4,1.12,7.94,2.24,5.87,0,11.77,0,17.64,0,7.93,0,15.89,0,23.81,0,2.61,0,5.32,0,7.94,0,1.71-.11,3.66.29,5.29-.28,1.73-2.95,3.52-6.18,5.29-9.1,2.57-.45,5.33-.08,7.94-.19,3.8.05,7.67-.11,11.47.07,1.8,2.33,3.83,4.73,6.17,6.52,1.36,1,3.02,1.92,4.41,2.89,4.68.23,9.43.02,14.11.09,11.16,0,22.35,0,33.51,0"/><path class="b" d="M7.36,110.78c7.63,0,15.3,0,22.93,0,1.11,0,2.42,0,3.53,0,1.71-.44,3.5-1.18,5.29-1.14,1.81-.08,3.59.68,5.29,1.14,6.16,0,12.36,0,18.52,0,12.63,0,25.29,0,37.92,0,1.31-.51,1.9-2.52,2.65-3.59,1.09-1.89,2.32-4.17,3.53-5.99,4.39,0,8.84,0,13.23,0,1.41,0,3,0,4.41,0,.83,0,1.93-.1,2.65.41,2.71,3.88,6.97,6.19,10.58,9.09,15.57.22,31.17,0,46.74.08"/><path class="b" d="M7.36,108.56c31.16,0,62.32,0,93.49,0,2.53-2.73,3.75-6.74,6.17-9.58h21.17c1.59,1.58,3.47,3.07,5.29,4.37,2.09,1.62,4.07,3.6,6.17,5.2h44.98"/><path class="b" d="M7.36,106.35c31.16-.05,62.33.1,93.49-.06,1.13-1.79,2.43-3.96,3.53-5.78.74-1.14,1.55-2.89,2.65-3.74,7.93,0,15.89,0,23.81,0,1.68.61,3.11,2.11,4.41,3.29,2.02,1.99,4.12,4.15,6.17,6.1,1.68.36,3.58.1,5.29.18,3.21,0,6.49,0,9.7,0,9.4,0,18.82,0,28.22,0"/><path class="b" d="M7.36,104.13h92.61c1.78-1.71,2.99-4.3,4.41-6.31.74-1,1.43-2.76,2.65-3.26h27.34c3.77,2.51,6.38,6.54,9.7,9.58h40.57"/><path class="b" d="M7.36,101.91h91.72c2.65-2.87,4.61-6.54,7.06-9.58h30.87c3.78,2.48,6.45,6.48,9.7,9.58h37.92"/><path class="b" d="M7.36,99.7c16.75,0,33.52,0,50.27,0,7.34,0,14.71,0,22.05,0,5.87,0,11.77,0,17.64,0,1.15-.28,1.9-1.76,2.65-2.58,1.73-2.2,3.56-4.62,5.29-6.81,1.38-.35,3-.12,4.41-.18,2.62,0,5.32,0,7.94,0,7.34,0,14.71,0,22.05,0,3.65,2.6,6.54,6.23,9.7,9.36,1.37.4,3,.14,4.41.21,2.62,0,5.32,0,7.94,0,7.63,0,15.3,0,22.93,0"/><path class="b" d="M7.36,97.48c16.46,0,32.93,0,49.39,0,7.34,0,14.71,0,22.05,0,5.57,0,11.19,0,16.76,0,1.46-.56,2.44-2.29,3.53-3.35,1.73-1.97,3.56-4.13,5.29-6.1,4.37-.31,8.84-.03,13.23-.12,8.22,0,16.47,0,24.69,0,2.15,1.61,4.26,3.52,6.17,5.4,1.43,1.32,2.77,3.11,4.41,4.17h31.75"/><path class="b" d="M7.36,95.26c28.81,0,57.62.02,86.43,0,3.36-3.01,6.32-6.59,9.7-9.57,13.81,0,27.64,0,41.45,0,2.47,1.74,4.86,3.79,7.06,5.86.8.75,1.86,1.8,2.65,2.56.38.44,1.16,1.08,1.76,1.15,9.4,0,18.82,0,28.22,0"/><path class="b" d="M7.36,93.05c27.93-.03,55.86.06,83.79-.03,3.62-2.98,7.1-6.26,10.58-9.4,3.77-.38,7.67-.04,11.47-.15,7.04,0,14.12,0,21.17,0,4.39,0,8.84,0,13.23,0,4.24,2.52,7.84,6.09,11.47,9.4,2.87.42,5.92.06,8.82.18,5.57,0,11.19,0,16.76,0"/><path class="b" d="M7.36,90.83c17.93,0,35.87,0,53.8,0,7.04,0,14.12,0,21.17,0,1.72,0,3.57,0,5.29,0,1.29-.38,2.44-1.57,3.53-2.33,1.43-1.1,3.01-2.36,4.41-3.5,1.11-.89,2.42-1.96,3.53-2.85.37-.38,1.2-.91,1.76-.9,4.1,0,8.25,0,12.35,0,8.52,0,17.06,0,25.58,0,2.61,0,5.32,0,7.94,0,1.76.09,3.85-.42,5.29.85,2.44,1.62,4.83,3.53,7.06,5.42.78.67,1.87,1.61,2.65,2.29.54.73,1.75,1.16,2.65,1.01,6.75,0,13.54,0,20.28,0"/><path class="b" d="M7.36,88.61c17.63,0,35.28,0,52.92,0,7.93,0,15.89,0,23.81,0,1.94-.56,3.58-2.19,5.29-3.23,2.94-2.05,5.9-4.24,8.82-6.32,18.52-.06,37.05,0,55.56-.02,3.08,1.82,6.02,4.04,8.82,6.26,1.42,1.05,2.85,2.46,4.41,3.31.44,0,1.32,0,1.76,0,5.28,0,10.6,0,15.88,0"/><path class="b" d="M7.36,86.4c15.87,0,31.76,0,47.63,0,5.57,0,11.19,0,16.76,0,2.02,0,4.16,0,6.17,0,1.13-.07,2.55.27,3.53-.45,3.28-1.86,6.54-3.94,9.7-5.99,1.73-.98,3.39-2.54,5.29-3.14,11.46,0,22.94,0,34.4,0,8.22,0,16.47,0,24.69,0,.85-.1,1.97.22,2.65.74,1.12.68,2.45,1.53,3.53,2.28,2.04,1.4,4.16,2.95,6.17,4.38,1.07.71,2.28,1.78,3.53,2.17,4.39,0,8.84,0,13.23,0"/><path class="b" d="M7.36,84.18c22.63,0,45.28,0,67.91,0,1.55-.01,3.01-1.19,4.41-1.78,2.66-1.36,5.35-2.88,7.94-4.38,1.42-.82,3-1.75,4.41-2.57.72-.47,1.76-.99,2.65-.85,4.69,0,9.42,0,14.11,0,14.69,0,29.4,0,44.1,0,2.32,0,4.74,0,7.06,0,1.78.89,3.6,2.06,5.29,3.11,3.7,2.31,7.31,5.01,11.47,6.45,2.61.04,5.32,0,7.94.02"/><path class="b" d="M7.36,81.96c13.81,0,27.64,0,41.45,0,4.69,0,9.42,0,14.11,0,1.42,0,2.99,0,4.41,0,1.11-.04,2.46.15,3.53-.22,4.55-1.57,8.95-3.69,13.23-5.88,2.34-1.07,4.6-2.7,7.06-3.47,3.5,0,7.08,0,10.58,0,20.28,0,40.57,0,60.86,0,3.4,1.31,6.47,3.59,9.7,5.26,3.76,2.05,8.05,3.27,12.35,3.27"/><path class="b" d="M7.36,79.75c12.34,0,24.7,0,37.04,0,5.28,0,10.6,0,15.88,0,3.28-.19,6.56-1.17,9.7-2.1,3.9-1.25,7.74-2.86,11.47-4.54,1.42-.64,3-1.38,4.41-2.05.78-.35,1.76-.99,2.65-.88,4.39,0,8.84,0,13.23,0,20.87,0,41.75,0,62.62,0,1.23-.16,2.47.74,3.53,1.24,1.72.88,3.56,1.88,5.29,2.73,3.55,1.71,7.52,2.7,11.47,2.79"/><path class="b" d="M7.36,77.53c8.81,0,17.65,0,26.46,0,3.18-.54,6.47-.9,9.7-.91,15.27.17,23.82-1.45,37.92-7.41.79-.33,1.86-.78,2.65-1.11.78-.19,1.85-.15,2.65-.15,2.62,0,5.32,0,7.94,0,6.75,0,13.54,0,20.28,0,17.34,0,34.69,0,52.04,0,2.7.98,5.25,2.56,7.94,3.58,3.07,1.2,6.41,1.87,9.7,2.02"/><path class="b" d="M7.36,75.31c7.93,0,15.89,0,23.81,0,1.46.05,2.97-.77,4.41-.96,2-.4,4.14-.65,6.17-.82,6.17-.48,12.42-.64,18.52-1.75,6.63-1.15,13.1-3.24,19.4-5.58,1.9-.81,4.16-.33,6.17-.45,2.91,0,5.91,0,8.82,0,9.1,0,18.24,0,27.34,0,15.28,0,30.58,0,45.86,0,2.65,1,5.24,2.44,7.94,3.35,2.82.97,5.85,1.53,8.82,1.72"/><path class="b" d="M7.36,73.1c7.63,0,15.3,0,22.93,0,3.4-1.26,6.99-2.09,10.58-2.52,5.86-.75,11.81-1.16,17.64-2.2,6.28-1.08,12.48-2.82,18.52-4.84,15.28-.05,30.58,0,45.86-.02,14.69,0,29.4,0,44.1,0,2.74.54,5.28,2.2,7.94,3.07,3.09,1.13,6.42,1.78,9.7,2.04"/><path class="b" d="M7.36,70.88c7.04,0,14.12,0,21.17,0,1.18-.08,2.41-.83,3.53-1.16,1.97-.7,4.12-1.22,6.17-1.61,5.25-1,10.61-1.55,15.88-2.42,5.64-.9,11.26-2.16,16.76-3.71,2.52-.98,5.3-.61,7.94-.67,3.5,0,7.08,0,10.58,0,10.28,0,20.59,0,30.87,0,14.99,0,29.99,0,44.98,0,3.05.58,5.9,2.29,8.82,3.33,3.37,1.29,7,2.03,10.58,2.36"/><path class="b" d="M7.36,68.66c6.75,0,13.54,0,20.28,0,2.58-1.01,5.23-2.12,7.94-2.75,10.21-2.35,20.73-3.34,30.87-6.06.79-.2,1.86-.48,2.65-.69,1.71-.16,3.57-.04,5.29-.08,3.8,0,7.66,0,11.47,0,10.87,0,21.76,0,32.63,0,14.69,0,29.4,0,44.1,0,4.23,1.15,8.22,3.22,12.35,4.67,3.11,1.06,6.44,1.68,9.7,2"/><path class="b" d="M7.36,66.45c6.16,0,12.36,0,18.52,0,.86-.06,1.86-.6,2.65-.91,1.4-.57,2.97-1.14,4.41-1.59,9.82-2.82,20.08-3.81,29.99-6.31,1.11-.24,2.4-.66,3.53-.76,1.72,0,3.57,0,5.29,0,3.8,0,7.66,0,11.47,0,11.16,0,22.35,0,33.51,0,14.1.1,28.24-.19,42.33.1,5.45,1.49,10.57,4.05,15.88,5.92,3.12,1.01,6.44,1.6,9.7,1.93"/><path class="b" d="M7.36,64.23c5.86-.1,11.79.2,17.64-.12,2.56-1.1,5.27-2.09,7.94-2.87,9.27-2.58,18.89-3.76,28.22-6.07,2.54-.8,5.31-.44,7.94-.51,4.1,0,8.25,0,12.35,0,12.05,0,24.11,0,36.16,0,10.87,0,21.76,0,32.63,0,4.03-.33,7.72,1.06,11.47,2.38,4.15,1.49,8.19,3.45,12.35,4.93,3.4,1.14,7.02,1.77,10.58,2.1"/><path class="b" d="M7.36,62.01c4.98,0,10.01,0,14.99,0,3.46-1.3,7.01-2.53,10.58-3.48,9.02-2.35,18.3-3.6,27.34-5.86,1.38-.41,2.99-.19,4.41-.24,2.02,0,4.15,0,6.17,0,6.46,0,12.95,0,19.4,0,17.93,0,35.87,0,53.8,0,1.41.01,3-.04,4.41.04,1.73.3,3.6.72,5.29,1.18,6.71,1.78,12.92,5.07,19.4,7.47,1.65.64,3.52,1.02,5.29.87,2.01,0,4.16,0,6.17,0"/><path class="b" d="M7.36,59.8c3.8-.02,7.67.04,11.47-.02,4.63-1.5,9.37-2.84,14.11-3.95,6.11-1.46,12.37-2.44,18.52-3.7,2.63-.53,5.33-1.14,7.94-1.78,1.4-.24,2.99-.09,4.41-.13,17.63,0,35.28,0,52.92,0,6.16,0,12.36,0,18.52,0,2.61,0,5.32,0,7.94,0,1.73.26,3.59.6,5.29.99,4.86,1.1,9.57,2.94,14.11,4.96,1.72.76,3.57,1.6,5.29,2.35,1.08.43,2.35,1.16,3.53,1.27,4.39,0,8.84,0,13.23,0"/><path class="b" d="M7.36,57.58c1.42,0,2.99,0,4.41,0,1.75-.23,3.56-.88,5.29-1.23,3.78-.88,7.66-1.66,11.47-2.42,7.01-1.45,14.12-2.6,21.17-3.86,2.03-.38,4.16-.83,6.17-1.29,1.41-.29,2.95-.86,4.41-.77,19.99,0,39.99,0,59.97,0,6.45.04,12.95-.07,19.4.04,4.17.66,8.36,1.62,12.35,3.03,5.13,1.79,10.05,4.26,14.99,6.49,5.87.05,11.77,0,17.64.02"/><path class="b" d="M7.36,54.11c7.46-2.09,15.29-2.39,22.93-3.49,6.46-.96,12.96-1.83,19.4-2.89,2.03-.36,4.17-.79,6.17-1.25,1.41-.34,2.94-.81,4.41-.68,21.46,0,42.93,0,64.38,0,4.09.04,8.26-.08,12.35.05,6.69,1.12,13.25,3.12,19.4,5.99,1.73.78,3.58,1.67,5.29,2.5,1.03.53,2.32,1.19,3.53,1.03,6.45,0,12.95,0,19.4,0"/><path class="b" d="M7.36,49.11c6.64-1.48,13.53-1.04,20.28-1.4,4.12-.15,8.26-.67,12.35-1.1,6.22-.59,12.48-1.38,18.52-3.01,19.1-.05,38.22,0,57.33-.02,6.45.09,12.97-.19,19.4.11,6.04,1.15,12.02,2.9,17.64,5.44,2.04.9,4.17,1.93,6.17,2.91,1.04.51,2.31,1.29,3.53,1.12,7.34,0,14.71,0,22.05,0"/><path class="b" d="M7.36,44.18c6.71-1.19,13.54-.04,20.28.15,6.46.21,12.96-.41,19.4-.86,3.55-.33,7.13-.95,10.58-1.83,1.96-.54,4.16-.19,6.17-.28,14.11,0,28.23,0,42.33,0,7.04,0,14.12,0,21.17,0,1.72,0,3.58,0,5.29,0,3.87.62,7.74,1.69,11.47,2.89,5.17,1.7,10.13,4.09,14.99,6.5,2.76.45,5.98.07,8.82.19,5.57,0,11.19,0,16.76,0"/><path class="b" d="M7.36,39.44c6.48-.97,12.98.54,19.4,1.3,5.25.74,10.59.49,15.88.49,3.52-.02,7.11-.2,10.58-.79,2.35-.26,4.69-1.3,7.06-1.3,13.22,0,26.46,0,39.69,0,7.04,0,14.12,0,21.17,0,3.21,0,6.49,0,9.7,0,2.96.42,5.94,1.27,8.82,2.05,6.11,1.71,11.95,4.34,17.64,7.12.98.65,2.41.35,3.53.41,2.02,0,4.16,0,6.17,0,5.87,0,11.77,0,17.64,0"/><path class="b" d="M7.36,36.92c5.87,0,11.77,0,17.64,0,2.63.16,5.29.96,7.94,1.12,4.39.29,8.84.53,13.23.66,2.93.03,5.94-.18,8.82-.72,1.74-.22,3.54-1.04,5.29-1.06,15.58,0,31.17,0,46.74,0,7.34,0,14.71,0,22.05,0,4.16.71,8.32,1.79,12.35,3.03,5.45,1.7,10.71,4.07,15.88,6.48,9.1.19,18.24,0,27.34.07"/><path class="b" d="M7.36,34.7c8.22,0,16.47,0,24.69,0,5.57.48,11.16,1.46,16.76,1.6,2.64.03,5.36-.23,7.94-.79,1.71-.39,3.51-.98,5.29-.81,15.58,0,31.17,0,46.74,0,6.16.01,12.36-.03,18.52.02,4.42.93,8.9,1.83,13.23,3.13,5.73,1.65,11.26,4.04,16.76,6.34,9.09.24,18.24.01,27.34.09"/><path class="b" d="M7.36,32.49c10.58,0,21.17,0,31.75,0,3.79.54,7.61,1.44,11.47,1.46,2.34.04,4.77-.22,7.06-.72,1.73-.46,3.48-.9,5.29-.74,14.99,0,29.99,0,44.98,0,5.57,0,11.19,0,16.76,0,4.98,1.09,10.07,1.9,14.99,3.23,6.6,1.59,12.85,4.46,19.4,6.19,2.88.37,5.91.06,8.82.15,5.57,0,11.19,0,16.76,0"/><path class="b" d="M7.36,30.27c11.46,0,22.94,0,34.4,0,1.45-.08,2.99.46,4.41.69,2,.38,4.14.65,6.17.67,2.65.03,5.38-.4,7.94-1.11,1.36-.47,3-.18,4.41-.25,13.52,0,27.05,0,40.57,0,5.28,0,10.6,0,15.88,0,2.04.22,4.14.87,6.17,1.18,2.91.53,5.92.98,8.82,1.57,5.36,1,10.63,2.55,15.87,3.98,4.05.99,8.25,1.58,12.35,2.33,2.57.68,5.3.52,7.94.52,4.1,0,8.25,0,12.35,0"/><path class="b" d="M7.36,28.05c12.05,0,24.11,0,36.16,0,1.47-.13,3,.26,4.41.61,1.99.42,4.14.69,6.17.67,2.05-.02,4.19-.34,6.17-.84,1.38-.5,2.96-.47,4.41-.44,11.46,0,22.94,0,34.4,0,6.16,0,12.36,0,18.52,0,3.22.52,6.45,1.45,9.7,1.85,7.39.89,14.73,2.21,22.05,3.53,4.67.64,9.46.76,14.11,1.57,3.58.53,7.1,1.67,10.58,2.63,3.5,0,7.08,0,10.58,0"/><path class="b" d="M7.36,25.84c12.64,0,25.29,0,37.92,0,2.08-.19,4.14.62,6.17.91,2.3.36,4.75.38,7.06.03,1.44-.19,2.99-.65,4.41-.94,2.91,0,5.91,0,8.82,0,6.46,0,12.95,0,19.4,0,7.63.03,15.3-.06,22.93.03,3.75.98,7.61,1.84,11.47,2.31,3.49.43,7.08.63,10.58.95,3.21.25,6.48.71,9.7.81,5.57.11,11.23-.31,16.76.59,5.21.77,10.22,2.64,14.99,4.81,2.31.14,4.74.03,7.06.06"/><path class="b" d="M7.36,23.62c13.22,0,26.46,0,39.69,0,2.08-.19,4.13.65,6.17.9,2.31.33,4.76.26,7.06-.14,1.12-.18,2.42-.54,3.53-.76,2.91,0,5.91,0,8.82,0,6.16,0,12.36,0,18.52,0,6.16,0,12.36,0,18.52,0,4.32,1.27,8.75,2.4,13.23,2.87,6.13.56,12.37.52,18.52.37,4.4-.32,8.82-1.05,13.23-1.21,6.04-.32,12.14.91,17.64,3.42,2.68,1.19,5.37,2.62,7.94,4.03,1.4.18,3,.06,4.41.09"/><path class="b" d="M7.36,21.41c13.52,0,27.05,0,40.57,0,.79,0,1.85,0,2.65,0,1.11.26,2.4.59,3.53.76,2.6.42,5.35.32,7.94-.18,1.42-.3,2.95-.73,4.41-.59,2.32,0,4.74,0,7.06,0,5.87,0,11.77,0,17.64,0,4.69,0,9.42,0,14.11,0,4.4,1.01,8.71,2.73,13.23,3.3,6.13.91,12.41.28,18.52-.46,4.41-.72,8.81-1.84,13.23-2.54,3.76-.57,7.67-.23,11.47-.27,4.35.64,8.52,2.37,12.35,4.49,2.06,1.13,4.18,2.44,6.17,3.69.4.27,1.35.84,1.76,1.11.72.33,1.87.26,2.65.26"/><path class="b" d="M7.36,19.19c13.81,0,27.64,0,41.45,0,1.11,0,2.42-.01,3.53.02,1.1.3,2.4.58,3.53.73,2.61.35,5.36.18,7.94-.31,3.43-.81,7.08-.29,10.58-.43,5.57,0,11.19,0,16.76,0,3.5,0,7.08,0,10.58,0,4.07,1.28,8.17,2.7,12.35,3.56,7.95,1.8,16.15.1,23.81-2.21,1.41-.41,3-.87,4.41-1.28,2.61-.16,5.32-.03,7.94-.07,5.57,0,11.19,0,16.76,0,.41,0,1.35,0,1.76,0,.43.17,1.36.57,1.76.8,1.45.74,3.03,1.67,4.41,2.54,2.06,1.31,4.18,2.8,6.17,4.21,1.08.65,2.22,1.91,3.53,2.03"/><path class="b" d="M7.36,16.97c14.99,0,29.99,0,44.98,0,1.76-.14,3.55.52,5.29.67,2.02.22,4.17.16,6.17-.1,1.11-.14,2.42-.41,3.53-.56,2.02,0,4.16,0,6.17,0,4.1,0,8.25,0,12.35,0,3.8,0,7.66,0,11.47,0,3.55.89,7.05,2.23,10.58,3.18,5.12,1.47,10.62,2.18,15.87.98,3-.64,5.93-1.85,8.82-2.86,1.69-.55,3.46-1.49,5.29-1.3,11.46,0,22.94,0,34.4,0,4.34,2.65,8.29,5.99,12.35,9.03"/><path class="b" d="M7.36,14.76c15.28,0,30.58,0,45.86,0,1.75-.09,3.58.1,5.29.43,1.71.21,3.57.25,5.29.14,2.33-.13,4.72-.69,7.06-.57,5.28,0,10.6,0,15.88,0,2.02,0,4.16-.02,6.17.01,4.14,1.02,8.23,2.44,12.35,3.56,7.48,2.18,14.2,2.11,21.17-1.67,1.4-.63,2.91-1.53,4.41-1.9,2.61,0,5.32,0,7.94,0,5.87,0,11.77,0,17.64,0,5.87,0,11.77,0,17.64,0,.52,0,1.4.48,1.76.86.78.61,1.88,1.46,2.65,2.08,2.03,1.65,4.15,3.44,6.17,5.09"/><path class="b" d="M7.36,12.54c11.46,0,22.94,0,34.4,0,7.34.06,14.73-.22,22.05.34,2.02.02,4.16-.14,6.17-.34,2.02,0,4.16,0,6.17,0,4.09.1,8.28-.2,12.35.13,5.07.93,10,2.65,14.99,3.87,4.89,1.23,10.21,1.67,14.99-.21,2.45-.92,4.77-2.39,7.06-3.65,1.99-.31,4.16-.07,6.17-.14,3.5,0,7.08,0,10.58,0,11.46.06,22.94-.12,34.4.07,2.67,2.2,5.32,4.61,7.94,6.87"/><path class="b" d="M7.36,10.32c17.63,0,35.28,0,52.92,0,4.98,0,10.01,0,14.99,0,2.91.06,5.92-.17,8.82.2,5.38.62,10.62,2.21,15.88,3.44,4.89,1.16,10.2,1.74,14.99-.13,1.49-.56,3.05-1.41,4.41-2.23.76-.44,1.74-1.2,2.65-1.28,6.16,0,12.36,0,18.52,0,12.63.08,25.3-.16,37.92.09,2.05,1.82,4.16,3.81,6.17,5.66"/><path class="b" d="M7.36,8.28c1.98-.38,4.16-.09,6.17-.18,3.8,0,7.66,0,11.47,0,10.58,0,21.17,0,31.75,0,7.93.01,15.89-.03,23.81.02,4.44.4,8.88,1.31,13.23,2.27,7.03,1.64,14.69,2.82,21.17-1.22.44-.25,1.33-.77,1.76-1.03,1.41-.07,3-.02,4.41-.04,2.61,0,5.32,0,7.94,0,8.22,0,16.47,0,24.69,0,6.16,0,12.36,0,18.52,0,2.32,0,4.74,0,7.06,0,0,0,.88.25.88.25,0,0,.88.84.88.84,1.1,1.06,2.43,2.33,3.53,3.4"/></svg>