<?xml version="1.0" encoding="UTF-8"?><svg id="a" xmlns="http://www.w3.org/2000/svg" width="1920" height="2400" viewBox="0 0 192 240"><defs><style>.b{fill:none;stroke:#fff;stroke-miterlimit:10;stroke-width:.3px;}.c{stroke-width:0px;}</style></defs><rect class="c" width="192" height="240"/><path class="b" d="M9.39,222.54c29.59,0,59.18,0,88.77,0,5.44,0,10.93,0,16.37,0,.42-.01,1.3.02,1.72.06.41.27,1.3.79,1.72,1.04,1.05.61,2.35,1.3,3.45,1.83,3.27,1.63,6.85,2.65,10.34,3.67,2.6.78,5.18,1.94,7.76,2.77,10.33,0,20.69,0,31.03,0,1.32-.71,2.42-2.17,3.45-3.23,1.72-1.93,3.5-4.09,5.17-6.06,1.08-.11,2.37-.05,3.45-.07"/><path class="b" d="M9.39,220.37c29.59,0,59.18,0,88.77,0,7.46,0,14.95,0,22.41,0,2.83,1.17,5.64,2.69,8.62,3.51,5.05,1.46,9.87,3.7,14.65,5.85,5.16,0,10.36,0,15.51,0,3.42,0,6.92,0,10.34,0,2.86,0,3.06.42,5.17-2.18,2.01-2.28,4.04-4.79,6.03-7.08.43-.07,1.29-.12,1.72-.1"/><path class="b" d="M9.39,218.21c31.02,0,62.05,0,93.08,0,6.31,0,12.65,0,18.96,0,1.38,0,2.93,0,4.31,0,2.55.93,5.23,1.81,7.76,2.79,2.89,1.14,5.86,2.34,8.62,3.79,1.09.56,2.38,1.27,3.45,1.87.71.41,1.72,1.08,2.59.91,4.29,0,8.64,0,12.93,0,3.42,0,6.92,0,10.34,0,2.97.04,3.03.31,5.17-2.29,1.97-2.24,4-4.66,6.03-6.84"/><path class="b" d="M9.39,216.04c35.62,0,71.25,0,106.86,0,5.16.03,10.36-.07,15.51.04,4.71,1.88,9.49,3.8,13.79,6.51,1.4.85,2.94,1.85,4.31,2.75,2.84.14,5.77.02,8.62.06,5.73,0,11.5,0,17.24,0,2.54-2.01,4.55-4.85,6.89-7.09"/><path class="b" d="M9.39,213.87c37.06,0,74.12,0,111.17,0,5.16,0,10.36,0,15.51,0,4.65,1.59,8.95,4.18,12.93,7.04,1.07.72,2.25,1.8,3.45,2.32,2.84,0,5.77,0,8.62,0,5.44-.04,10.93.07,16.37-.05,1.68-1.64,3.47-3.45,5.17-5.07"/><path class="b" d="M9.39,211.71c35.33,0,70.67,0,106,0,5.73,0,11.5,0,17.24,0,2.55.02,5.2-.04,7.76.03,2.06.97,4.15,2.2,6.03,3.49,1.74,1.2,3.54,2.6,5.17,3.93.73.6,1.72,1.5,2.59,1.9.4,0,1.31,0,1.72,0,2.84,0,5.77,0,8.62,0,3.71,0,7.49,0,11.2,0,1.08-.04,2.41.16,3.45-.24,1.07-.94,2.37-2.07,3.45-3"/><path class="b" d="M9.39,209.54c37.63,0,75.27,0,112.9,0,6.88,0,13.8,0,20.68,0,1.23.28,2.41,1.28,3.45,1.95,2.07,1.47,4.13,3.2,6.03,4.89,2.74,2.38,2.12,2.67,6.03,2.52,2.84,0,5.77,0,8.62,0,3.13,0,6.35,0,9.48,0,1.38-.06,2.97.18,4.31-.2.39-.33,1.32-.97,1.72-1.29"/><path class="b" d="M9.39,207.38h136.17c2.44,1.65,4.75,3.69,6.89,5.7,1.4,1.14,2.64,2.92,4.31,3.66,8.61,0,17.25,0,25.85,0"/><path class="b" d="M9.39,205.21c40.5,0,81.01,0,121.52,0,5.16,0,10.36,0,15.51,0,1.37.13,2.4,1.59,3.45,2.37,1.73,1.56,3.51,3.34,5.17,4.97.7.66,1.61,1.78,2.59,2.02.4,0,1.31,0,1.72,0,1.97,0,4.06,0,6.03,0,5.73,0,11.5,0,17.24,0"/><path class="b" d="M9.39,203.04c29.87,0,59.75,0,89.63,0,10.62,0,21.27,0,31.89,0,3.71,0,7.49,0,11.2,0,1.97.08,4.1-.2,6.03.17,3.31,2.84,6.28,6.18,9.48,9.13,8.32.14,16.67,0,24.99.05"/><path class="b" d="M9.39,200.88h138.75c2.5,1.91,4.63,4.47,6.89,6.64,1.06.86,2.03,2.48,3.45,2.71,8.03,0,16.1,0,24.13,0"/><path class="b" d="M9.39,198.71h138.75c3.25,2.98,6.22,6.39,9.48,9.36h24.99"/><path class="b" d="M9.39,196.55h137.89c1.29.72,2.39,2.15,3.45,3.16,1.97,2.02,4.02,4.19,6.03,6.17,8.61.07,17.25,0,25.85.02"/><path class="b" d="M9.39,194.38h137.03c2.13,1.85,4.09,4.13,6.03,6.17,1.27,1.1,2.37,3.43,4.31,3.19,8.61,0,17.25,0,25.85,0"/><path class="b" d="M9.39,192.21c39.07,0,78.14,0,117.21,0,6.02,0,12.08,0,18.1,0,.98.4,1.86,1.54,2.59,2.26,1.72,1.81,3.5,3.85,5.17,5.71,0,0,.86.95.86.95l.86.44c.76,0,1.83,0,2.59,0,2.26,0,4.63,0,6.89,0,6.31,0,12.65,0,18.96,0"/><path class="b" d="M9.39,190.05h133.58c3.26,2.48,5.81,6.29,8.62,9.3,10.33.16,20.69,0,31.03.06"/><path class="b" d="M9.39,187.88c43.95.1,87.92-.19,131.86.1,2.11,2.09,4.14,4.49,6.03,6.78,2.07,2.59,1.83,2.57,5.17,2.48,10.05,0,20.12,0,30.16,0"/><path class="b" d="M9.39,185.72h129.27c1.88,1.62,3.58,3.71,5.17,5.6,1.09,1.17,2.05,2.95,3.45,3.76h35.33"/><path class="b" d="M9.39,183.55c42.23.05,84.46-.1,126.69.06,1.84,1.62,3.6,3.6,5.17,5.48,1.09,1.18,2.07,2.94,3.45,3.82h37.92"/><path class="b" d="M9.39,181.38h123.24c2.31,1.44,4.24,3.66,6.03,5.68,1.1,1.12,2.04,2.91,3.45,3.68h40.51"/><path class="b" d="M9.39,179.22c33.03,0,66.07,0,99.11,0,6.31,0,12.65,0,18.96,0,1.27-.19,2.45.84,3.45,1.48,2.23,1.5,4.26,3.52,6.03,5.54.42.49,1.31,1.51,1.72,2.02,1.58.64,3.5.19,5.17.31,3.13,0,6.35,0,9.48,0,9.76,0,19.54,0,29.3,0"/><path class="b" d="M9.39,177.69c3.98-.69,8.04-.68,12.07-.64,4.58,0,9.21,0,13.79,0,3.43.26,6.91-.02,10.34,0,8.03,0,16.1,0,24.13,0,9.47,0,18.97,0,28.44,0,8.32,0,16.67,0,24.99,0,.87-.13,1.96.27,2.59.9.75.57,1.82,1.33,2.59,1.88,2.88,1.78,5.42,4.15,7.76,6.58h46.54"/><path class="b" d="M9.39,177.45c6.52-1.12,13.25-.61,19.82-.21,6.01.47,12.12,1.03,18.1-.1,4.01-.69,8.05-1.56,12.07-2.25,6.31,0,12.65,0,18.96,0,14.07,0,28.16,0,42.23,0,2.29,1.74,4.58,3.69,6.89,5.4,1.7,1.26,3.64,2.48,5.17,3.95,16.66.04,33.33,0,49.98.01"/><path class="b" d="M9.39,177.68c3.95-.84,8.07-.45,12.07-.14,7.44.51,14.93,1.99,22.41,1.23,10.16-1.34,20.17-3.84,30.16-6.05,6.31,0,12.65,0,18.96,0,7.75,0,15.52,0,23.27,0,1.56.72,2.95,2.12,4.31,3.15,2.52,2.07,5.1,4.24,7.76,6.13,18.09.2,36.2,0,54.29.07"/><path class="b" d="M9.39,178.46c6.88-1.27,13.84.43,20.68,1.2,3.69.49,7.49.17,11.2.26,4.96.29,9.83-.94,14.65-1.95,9.02-1.79,17.7-5.04,26.72-6.81,1.66-.45,3.45-.71,5.17-.59,1.97,0,4.06,0,6.03,0,6.02,0,12.08,0,18.1,0,4.13,2.11,7.57,5.49,11.2,8.34.33.37,1.23.91,1.72,1.01.42,0,1.3,0,1.72,0,1.08,0,2.37,0,3.45,0,3.42,0,6.92,0,10.34,0,14.07,0,28.16,0,42.23,0"/><path class="b" d="M9.39,177.74c11.2,0,22.41,0,33.61,0,3.71,0,7.49,0,11.2,0,2.26-.07,4.65.17,6.89-.13,4.93-1.37,9.78-3.13,14.65-4.68,3.39-1.02,6.92-1.8,10.34-2.73,2.26-.59,4.62-1.22,6.89-1.72,2.25-.19,4.63-.04,6.89-.09,1.97,0,4.06,0,6.03,0,1.16-.04,2.4.64,3.45,1.08,4.12,1.97,7.69,5,11.2,7.86.68.52,1.78.43,2.59.42,1.38,0,2.93,0,4.31,0,3.71,0,7.49,0,11.2,0,14.65,0,29.31,0,43.95,0"/><path class="b" d="M9.39,175.58c18.38,0,36.77,0,55.16,0,1.08,0,2.37,0,3.45,0,2.33-.5,4.61-1.65,6.89-2.34,4.26-1.36,8.63-2.56,12.93-3.82,6.38-1.87,13.46-3.5,19.82-.69,3.79,1.58,7.15,4.16,10.34,6.7,2.24.34,4.64.07,6.89.15,4.29,0,8.64,0,12.93,0,14.93,0,29.88,0,44.81,0"/><path class="b" d="M9.39,173.41c15.22,0,30.46,0,45.68,0,6.31,0,12.65,0,18.96,0,5.2-1.51,10.3-3.56,15.51-5.04,5.55-1.7,11.73-2.63,17.24-.3,3.1,1.24,5.96,3.19,8.62,5.2,2.53.33,5.21.06,7.76.14,4.58,0,9.21,0,13.79,0,15.22,0,30.46,0,45.68,0"/><path class="b" d="M9.39,171.25c15.79,0,31.6,0,47.4,0,7.46,0,14.95,0,22.41,0,3.74-1.24,7.41-2.9,11.2-3.98,4.71-1.46,9.9-2.12,14.65-.46,1.77.59,3.58,1.48,5.17,2.44,1.1.6,2.24,1.64,3.45,2.01,7.46,0,14.95,0,22.41,0,15.51,0,31.03,0,46.54,0"/><path class="b" d="M9.39,169.08c16.66,0,33.33,0,49.98,0,7.46,0,14.95,0,22.41,0,1.18.14,2.38-.67,3.45-1.05,1.94-.8,4.02-1.58,6.03-2.17,4.16-1.26,8.74-1.66,12.93-.29,1.76.55,3.58,1.41,5.17,2.34.75.41,1.67,1.22,2.59,1.17,7.46,0,14.95,0,22.41,0,16.08,0,32.18,0,48.26,0"/><path class="b" d="M9.39,166.91c16.66,0,33.33,0,49.98,0,5.73,0,11.5,0,17.24,0,2.56,0,5.2,0,7.76,0,1.47-.21,2.9-1.14,4.31-1.59,4.34-1.68,9.2-2.65,13.79-1.47,1.76.43,3.57,1.17,5.17,2.01.76.38,1.69,1.12,2.59,1.06,6.6,0,13.23,0,19.82,0,7.46,0,14.95,0,22.41,0,6.02,0,12.08,0,18.1,0,2.84,0,5.77,0,8.62,0,1.15-.31,2.39-1.05,3.45-1.58"/><path class="b" d="M9.39,164.75c17.23,0,34.48,0,51.71,0,6.02,0,12.08,0,18.1,0,2.26,0,4.63,0,6.89,0,1.95-.78,3.99-1.7,6.03-2.24,3.93-1.13,8.24-1.08,12.07.4,1.44.46,2.85,1.46,4.31,1.83,4.87,0,9.78,0,14.65,0,11.48,0,22.99,0,34.47,0,5.44-.01,10.93.03,16.37-.02,2.89-1.21,5.84-2.54,8.62-4"/><path class="b" d="M9.39,162.58c17.23,0,34.48,0,51.71,0,8.03,0,16.1,0,24.13,0,.43,0,1.29,0,1.72,0,.43-.2,1.29-.58,1.72-.76,1.63-.67,3.44-1.26,5.17-1.58,3.13-.61,6.48-.34,9.48.74,1.44.38,2.82,1.52,4.31,1.62,6.88,0,13.8,0,20.68,0,12.06,0,24.14,0,36.2,0,1.07-.02,2.38.07,3.45-.1,1.38-.56,2.93-1.19,4.31-1.75,3.48-1.42,7-2.94,10.34-4.68"/><path class="b" d="M9.39,160.42c17.23,0,34.48,0,51.71,0,6.31,0,12.65,0,18.96,0,2.26,0,4.63,0,6.89,0,1.96-.72,3.97-1.67,6.03-2.08,3.11-.7,6.46-.53,9.48.49,1.44.37,2.84,1.41,4.31,1.58,6.6,0,13.23,0,19.82,0,11.48,0,22.99,0,34.47,0,1.16-.14,2.37-.9,3.45-1.31,1.37-.59,2.93-1.23,4.31-1.78,4.63-1.85,9.34-3.7,13.79-5.98"/><path class="b" d="M9.39,158.25c17.23,0,34.48,0,51.71,0,8.32,0,16.67,0,24.99,0,1.18.15,2.36-.75,3.45-1.1,1.62-.62,3.44-1.11,5.17-1.29,2.59-.28,5.31.11,7.76.98,1.4.39,2.81,1.53,4.31,1.4,12.92,0,25.86,0,38.78,0,2.26,0,4.63,0,6.89,0,1.71-.07,3.69.35,5.17-.72,4.41-2.38,9.12-4.26,13.79-6.06,2.25-.75,4.61-2.1,6.89-2.57,1.38,0,2.93,0,4.31,0"/><path class="b" d="M9.39,156.09c23.84,0,47.69,0,71.53,0,1.68,0,3.49,0,5.17,0,.85-.03,1.82-.63,2.59-.95,4.61-2.09,10.03-2.13,14.65-.06.76.32,1.76.88,2.59,1.01,1.38,0,2.93,0,4.31,0,3.42,0,6.92,0,10.34,0,10.05,0,20.12,0,30.16,0,1.26.2,2.45-.79,3.45-1.41,1.35-.85,2.9-1.74,4.31-2.49,3.85-2.05,7.98-3.66,12.07-5.18,1.31-.52,2.93-.19,4.31-.28,2.55,0,5.2,0,7.76,0"/><path class="b" d="M9.39,153.92c17.23,0,34.48,0,51.71,0,8.03,0,16.1,0,24.13,0,1.21.16,2.34-.89,3.45-1.25,1.33-.56,2.88-1.03,4.31-1.27,2.86-.5,5.89-.15,8.62.81,1.72.46,3.34,1.86,5.17,1.71,6.6,0,13.23,0,19.82,0,4.87,0,9.78,0,14.65,0,1.68,0,3.49,0,5.17,0,.41,0,1.31,0,1.72,0,.48-.18,1.34-.73,1.72-1.06,4.49-3.35,9.38-6.35,14.65-8.29,6.02,0,12.08,0,18.1,0"/><path class="b" d="M9.39,151.75c18.09,0,36.2,0,54.29,0,6.88,0,13.8,0,20.68,0,1.53.14,2.9-1.17,4.31-1.62,2.15-.88,4.56-1.42,6.89-1.39,2.34.03,4.74.61,6.89,1.48,1.1.42,2.34,1.12,3.45,1.52.42,0,1.3,0,1.72,0,12.63-.07,25.29.13,37.92-.07,2.76-2.3,5.62-4.67,8.62-6.66,1.05-.7,2.34-1.49,3.45-2.1.41-.3,1.21-.59,1.72-.52,7.75,0,15.52,0,23.27,0"/><path class="b" d="M9.39,149.59c18.67,0,37.35,0,56.02,0,6.31,0,12.65,0,18.96,0,1.45-.5,2.86-1.52,4.31-2.03,2.16-.86,4.57-1.34,6.89-1.27,2.34.07,4.73.69,6.89,1.57,1.7.6,3.28,1.99,5.17,1.72,11.77-.05,23.57.1,35.33-.06,3.61-3.2,7.19-6.59,11.2-9.3,9.47,0,18.97,0,28.44,0"/><path class="b" d="M9.39,147.42c16.66,0,33.33,0,49.98,0,6.02,0,12.08,0,18.1,0,1.97,0,4.06,0,6.03,0,.87-.14,1.82-.86,2.59-1.26,1.04-.56,2.33-1.12,3.45-1.49,3.31-1.12,7-1.11,10.34-.12,2.06.6,4.14,1.53,6.03,2.54,1.28.61,2.93.23,4.31.33,1.97,0,4.06,0,6.03,0,8.03,0,16.1,0,24.13,0,1.59-.94,2.93-2.59,4.31-3.82,1.92-1.85,3.97-3.8,6.03-5.49,10.62-.13,21.27,0,31.89-.05"/><path class="b" d="M9.39,145.26c16.37,0,32.75,0,49.12,0,6.02,0,12.08,0,18.1,0,9.54.02,4.25.49,12.07-2.85,3.56-1.34,7.57-1.38,11.2-.28,2.37.69,4.72,1.8,6.89,2.97,2.81.39,5.78.06,8.62.16,7.75,0,15.52,0,23.27,0,3.27-2.96,6.19-6.42,9.48-9.35h34.47"/><path class="b" d="M9.39,143.09c24.41-.02,48.84.03,73.25-.02,7.6-5.53,15.19-5.18,23.27-.89.43.22,1.3.67,1.72.9.43,0,1.29.01,1.72.01,1.38,0,2.93,0,4.31,0,7.74-.07,15.53.14,23.27-.08,3.04-2.78,5.8-6.01,8.62-9,1.6-.56,3.5-.16,5.17-.27,10.62,0,21.27,0,31.89,0"/><path class="b" d="M9.39,140.92c16.37,0,32.75,0,49.12,0,5.44,0,10.93,0,16.37,0,1.68,0,3.49,0,5.17,0,.81.01,1.89.1,2.59-.42,1.31-.89,2.85-1.78,4.31-2.41,3.76-1.67,8.09-2,12.07-.96,2.04.51,4.13,1.32,6.03,2.21,1.37.54,2.77,1.74,4.31,1.59,8.61,0,17.25,0,25.85,0,3.12-2.78,5.87-6.12,8.62-9.26,12.91-.26,25.86,0,38.78-.09"/><path class="b" d="M9.39,138.76c16.08,0,32.18,0,48.26,0,5.44,0,10.93,0,16.37,0,2.55-.1,5.24.22,7.76-.16,1.31-.92,2.86-1.85,4.31-2.54,3.71-1.81,8.03-2.36,12.07-1.45,2.35.5,4.71,1.39,6.89,2.38,1.4.51,2.8,1.66,4.31,1.78,8.03,0,16.1,0,24.13,0,3.41-2.38,5.92-6.03,8.62-9.14,1.63-.45,3.5-.13,5.17-.22,3.14,0,6.34,0,9.48,0,8.61,0,17.25,0,25.85,0"/><path class="b" d="M9.39,136.59c16.08,0,32.18,0,48.26,0,5.44,0,10.93,0,16.37,0,1.68,0,3.49,0,5.17,0,.82.01,1.9.1,2.59-.43,1.31-.91,2.86-1.84,4.31-2.51,3.99-1.93,8.66-2.27,12.93-1.12,2.35.6,4.7,1.55,6.89,2.56,1.36.54,2.78,1.66,4.31,1.51,4.87,0,9.78,0,14.65,0,2.55-.1,5.24.22,7.76-.16,1.84-1.56,3.62-3.49,5.17-5.34,1.1-1.19,2.08-2.95,3.45-3.85h41.37"/><path class="b" d="M9.39,134.43c23.84-.07,47.7.14,71.53-.08,6.31-4.82,13.21-6.07,20.68-3.24,1.72.61,3.52,1.39,5.17,2.15,1.06.43,2.25,1.31,3.45,1.16,6.6,0,13.23,0,19.82,0,1.42.26,2.53-1.08,3.45-1.95,2.18-2.16,4.19-4.73,6.03-7.18,1.91-.49,4.07-.12,6.03-.23,3.14,0,6.34,0,9.48,0,9.18,0,18.39,0,27.58,0"/><path class="b" d="M9.39,132.26c16.08,0,32.18,0,48.26,0,7.46,0,14.95,0,22.41,0,1.22-.35,2.33-1.42,3.45-2,1.58-.92,3.4-1.74,5.17-2.22,4.26-1.21,8.83-.52,12.93.97,2.63.88,5.17,2.25,7.76,3.25,4.29,0,8.64,0,12.93,0,2.55,0,5.2,0,7.76,0,1.35-.49,2.44-1.89,3.45-2.86,1.84-1.97,3.6-4.29,5.17-6.47,14.64-.07,29.31,0,43.95-.02"/><path class="b" d="M9.39,130.09h70.67c6.69-4.71,12.81-6.13,20.68-3.39,1.71.57,3.52,1.32,5.17,2.05,1.08.43,2.28,1.19,3.45,1.34,6.31,0,12.65,0,18.96,0,1.42.27,2.55-.88,3.45-1.8,2.24-2.22,4.24-4.91,6.03-7.5,14.93-.16,29.88,0,44.81-.06"/><path class="b" d="M9.39,127.93c23.55-.06,47.12.11,70.67-.06,10.16-7.45,17.99-4.53,28.44.06,6.88,0,13.8,0,20.68,0,3.17-2.35,5.54-5.8,7.76-9.02.73-.43,1.78-.34,2.59-.34,1.08,0,2.37,0,3.45,0,3.42,0,6.92,0,10.34,0,9.76,0,19.54,0,29.3,0"/><path class="b" d="M9.39,125.76c15.79,0,31.6,0,47.4,0,5.16,0,10.36,0,15.51,0,2.55-.1,5.24.22,7.76-.16,1.04-.71,2.32-1.49,3.45-2.06,3.94-2.06,8.59-2.66,12.93-1.73,3.9.74,7.54,2.51,11.2,3.95,7.17-.1,14.4.21,21.55-.12,1.93-1.66,3.69-3.78,5.17-5.84.75-1.02,1.61-2.56,2.59-3.39h45.68"/><path class="b" d="M9.39,123.6c15.79,0,31.6,0,47.4,0,7.46,0,14.95,0,22.41,0,.9-.06,1.83-.83,2.59-1.24,1.59-.9,3.41-1.69,5.17-2.16,3.95-1.1,8.2-.66,12.07.55,2.32.71,4.67,1.69,6.89,2.65,1.63.41,3.5.12,5.17.2,2.84,0,5.77,0,8.62,0,1.97,0,4.06,0,6.03,0,1.08-.04,2.41.16,3.45-.24,2.74-2.5,4.95-5.72,6.89-8.86,1.9-.55,4.07-.13,6.03-.25,3.42,0,6.92,0,10.34,0,10.05,0,20.12,0,30.16,0"/><path class="b" d="M9.39,121.43c15.79,0,31.6,0,47.4,0,7.17,0,14.37,0,21.55,0,1.3.19,2.38-.48,3.45-1.11,1.32-.7,2.87-1.34,4.31-1.76,4.22-1.26,8.79-.77,12.93.58,2.01.63,4.08,1.5,6.03,2.29,4.58,0,9.21,0,13.79,0,1.97,0,4.06,0,6.03,0,1.38-.09,3.02.27,4.31-.31,2.78-2.55,4.75-5.99,6.89-9.05h46.54"/><path class="b" d="M9.39,119.26c15.79,0,31.6,0,47.4,0,5.73,0,11.5,0,17.24,0,1.97,0,4.06,0,6.03,0,1.6-.89,3.41-1.73,5.17-2.25,4.2-1.31,8.77-.94,12.93.36,1.09.33,2.38.78,3.45,1.19.75.28,1.75.82,2.59.7,4.87,0,9.78,0,14.65,0,2.26,0,4.63,0,6.89,0,1.09-.06,2.47.23,3.45-.38,1.59-1.54,3.09-3.51,4.31-5.35.73-1.08,1.56-2.78,2.59-3.62h46.54"/><path class="b" d="M9.39,117.1c16.37,0,32.75,0,49.12,0,7.17,0,14.37,0,21.55,0,1.15-.16,2.34-.93,3.45-1.27,1.9-.68,4.01-1.1,6.03-1.18,2.59-.1,5.27.34,7.76,1.05,1.7.37,3.41,1.46,5.17,1.39,8.61,0,17.25,0,25.85,0,2.2-1.36,3.71-3.9,5.17-5.97.76-1,1.36-2.86,2.59-3.39h46.54"/><path class="b" d="M9.39,114.93c6.02,0,12.08,0,18.1,0,2.85,0,5.77,0,8.62,0,1.08-.21,2.34-.5,3.45-.5,1.1-.02,2.38.24,3.45.5,3.42,0,6.92,0,10.34,0,8.9,0,17.82,0,26.72,0,1.15.13,2.39-.41,3.45-.77,1.63-.51,3.46-.86,5.17-.95,2.28-.12,4.68.17,6.89.71,1.4.24,2.88,1.08,4.31,1.01,9.47-.06,18.97.11,28.44-.06,2.85-2.46,5.03-5.78,6.89-9.02.74-.34,1.79-.27,2.59-.27,1.08,0,2.37,0,3.45,0,3.71,0,7.49,0,11.2,0,10.05,0,20.12,0,30.16,0"/><path class="b" d="M9.39,112.77c7.46,0,14.95,0,22.41,0,1.5.15,2.92-.86,4.31-1.27,2.18-.77,4.66-1.09,6.89-.4,1.15.34,2.42.96,3.45,1.57.44.07,1.28.11,1.72.09,10.62,0,21.27,0,31.89,0,1.08-.03,2.39.11,3.45-.17,1.92-.53,4.04-.8,6.03-.77,2,.03,4.1.36,6.03.86,1.07.14,2.37.07,3.45.09,9.47,0,18.97,0,28.44,0,3.31-2.35,5.7-5.91,7.76-9.36h47.4"/><path class="b" d="M9.39,110.6c6.88,0,13.8,0,20.68,0,.87.16,1.84-.45,2.59-.82.76-.38,1.81-.87,2.59-1.21,5.63-2.55,8.99-1.42,13.79,2.03,25.85,0,51.71,0,77.56,0,1.9-1.28,3.64-3.12,5.17-4.81,1.18-1.35,2.26-3.21,3.45-4.55h47.4"/><path class="b" d="M9.39,108.43c6.02,0,12.08,0,18.1,0,.78,0,1.84.07,2.59-.24,1.39-.69,2.92-1.51,4.31-2.2,7.12-3.68,10.46-2.44,16.37,2.45h74.98c2.19-1.56,4.2-3.63,6.03-5.58,1.16-1.11,2.05-2.96,3.45-3.77,9.47,0,18.97,0,28.44,0,4,0,8.06,0,12.07,0,2.18.9,4.54,1.63,6.89,1.84"/><path class="b" d="M9.39,106.27c4.29,0,8.64,0,12.93,0,1.38,0,2.93,0,4.31,0,.8,0,1.86.08,2.59-.31,3.43-1.6,6.67-3.83,10.34-4.87,3.79-1.27,7.54.77,10.34,3.22,1.61,1.35,2.03,2.21,4.31,1.96,23.55-.06,47.12.11,70.67-.06,3.38-2.77,6.66-5.82,9.48-9.17,4.27-.32,8.64-.03,12.93-.13,7.75,0,15.52,0,23.27,0,.85-.09,1.93.14,2.59.72.74.45,1.8,1.01,2.59,1.36,2.14.95,4.55,1.53,6.89,1.7"/><path class="b" d="M9.39,104.1c5.44,0,10.93,0,16.37,0,.78,0,1.84.07,2.59-.23,1.73-.75,3.52-1.72,5.17-2.63,9.17-5.26,12.33-4.46,19.82,2.74,16.06.31,32.18,0,48.26.11,7.17,0,14.37,0,21.55,0,1.9-.96,3.5-2.71,5.17-4.02,2.08-1.62,3.95-3.73,6.03-5.34,11.48,0,22.99,0,34.47,0,1.57.49,2.83,2,4.31,2.73,2.84,1.71,6.17,2.71,9.48,2.85"/><path class="b" d="M9.39,101.94c6.02-.08,12.09.15,18.1-.09,3.9-1.45,7.39-3.92,11.2-5.55,3.07-1.45,6.56-1.75,9.48.2,2.56,1.41,4.44,3.94,6.89,5.45,4.58,0,9.21,0,13.79,0,16.66,0,33.33,0,49.99,0,.76,0,1.82,0,2.59,0,1.61-.51,2.93-2.02,4.31-2.96,2.24-1.8,4.74-3.46,6.89-5.37,0,0,.86-.79.86-.79,0,0,.86-.24.86-.24,1.07,0,2.37,0,3.45,0,2.26,0,4.63,0,6.89,0,7.46,0,14.95,0,22.41,0,5.04,3.97,8.7,6.94,15.51,7.17"/><path class="b" d="M9.39,99.59c1.93.4,4.07.1,6.03.18,3.42,0,6.92,0,10.34,0,1.48-.04,2.97-.91,4.31-1.48,3.19-1.52,6.21-3.56,9.48-4.91,7.16-3.4,11.43,2.07,16.37,6.36,17.81.08,35.63,0,53.43.03,3.42,0,6.92,0,10.34,0,.52-.04,1.35-.49,1.72-.83,1.08-.77,2.36-1.69,3.45-2.44,2.29-1.57,4.77-3.09,6.89-4.89.35-.38,1.24-1.01,1.72-1.2.76,0,1.82,0,2.59,0,1.97,0,4.06,0,6.03,0,5.16,0,10.36,0,15.51,0,2.84.09,5.8-.19,8.62.14,4.33,4.47,9.96,8.21,16.37,8.26"/><path class="b" d="M9.39,97.26c1.94.52,4.05.3,6.03.34,3.14,0,6.34,0,9.48,0,7.2-1.02,15.24-10.34,22.41-7.57,2.98,1.24,5.35,3.68,7.76,5.76,2.12,2.06,2.34,1.85,5.17,1.81,17.52,0,35.05,0,52.57,0,6.75-.03,4.63.67,10.34-2.96,2.34-1.38,4.69-3,6.89-4.59.75-.55,1.72-1.44,2.59-1.8,1.07,0,2.37,0,3.45,0,9.76.07,19.55-.13,29.3.08,4.51,4.84,10.35,9.16,17.24,9.24"/><path class="b" d="M9.39,95.03c1.94.49,4.05.42,6.03.41,2.85-.01,5.77.03,8.62-.02,3.7-.87,7.11-2.77,10.34-4.7,12.74-7.96,14.09-2.98,24.13,4.72,16.37,0,32.75,0,49.12,0,1.97,0,4.06,0,6.03,0,1.09-.04,2.41.16,3.45-.25,1.65-1.02,3.49-2.03,5.17-3,2.03-1.21,4.1-2.64,6.03-4.01,1.09-.65,2.17-1.88,3.45-2.1,1.97,0,4.06,0,6.03,0,8.9,0,17.82,0,26.72,0,1.56,1.03,2.85,2.76,4.31,3.93,2.28,2,4.9,3.8,7.76,4.87,1.87.86,4.04.49,6.03.56"/><path class="b" d="M9.39,92.87c3.38.7,6.91.3,10.34.4,6.8.35,12.4-4.34,18.1-7.36,9.55-5.45,13.61,1.14,20.68,6.51.65.65,1.68.96,2.59.85,1.08,0,2.37,0,3.45,0,3.71,0,7.49,0,11.2,0,10.62,0,21.27,0,31.89,0,2.26,0,4.63,0,6.89,0,4.18-2.03,8.3-4.35,12.07-7.09,1.07-.72,2.28-1.71,3.45-2.26,1.68,0,3.49,0,5.17,0,9.76,0,19.54,0,29.3,0,3.45,3.69,7.27,7.39,12.07,9.23,1.95.27,4.06.06,6.03.13"/><path class="b" d="M9.39,90.76c2.82.52,5.77.31,8.62.35,6.01.21,11.44-3.07,16.37-6.13,1.9-1.17,3.94-2.38,6.03-3.19,2.55-.06,5.2-.08,7.76,0,4.82,2.29,8.39,6.58,12.93,9.31,12.35,0,24.71,0,37.06,0,4.58,0,9.21,0,13.79,0,2.66-.91,5.28-2.34,7.76-3.69,2.97-1.68,5.74-3.84,8.62-5.67,7.75,0,15.52,0,23.27,0,2.56,0,5.2,0,7.76,0,1.67.07,3.52-.17,5.17.16,3.22,3.52,6.8,7.02,11.2,9.02,2.22.41,4.64.08,6.89.18"/><path class="b" d="M9.39,88.66c7.13.87,13.55.12,19.82-3.56,3.19-1.74,6.18-4,9.48-5.51,3.43,0,6.92,0,10.34,0,1.59.42,2.99,1.72,4.31,2.64,3.08,2.27,5.99,5.09,9.48,6.72,5.73,0,11.5,0,17.24,0,6.02,0,12.08,0,18.1,0,3.71,0,7.49,0,11.2,0,2.91-1.08,5.88-2.34,8.62-3.81,2.98-1.62,5.8-3.67,8.62-5.54,10.91,0,21.84,0,32.75,0,1.67.11,3.58-.29,5.17.28,1.59,1.76,3.37,3.59,5.17,5.14,1.8,1.52,3.85,3.02,6.03,3.94,2.26,0,4.63,0,6.89,0"/><path class="b" d="M9.39,86.54c6.94.72,13.88-.78,19.82-4.47,1.7-.99,3.49-2.15,5.17-3.18,1.05-.54,2.2-1.65,3.45-1.48,2.85,0,5.77,0,8.62,0,3.71.05,3.84-.53,6.89,1.88,3.6,2.62,7.1,5.66,11.2,7.47,7.17,0,14.37,0,21.55,0,6.6,0,13.23,0,19.82,0,1.14-.16,2.37-.81,3.45-1.19,1.69-.62,3.53-1.27,5.17-2.02,3.65-1.63,7.03-3.93,10.34-6.14,11.48,0,22.99,0,34.47,0,1.08,0,2.37,0,3.45,0,.48-.09,1.32.12,1.72.39,1.59,1.76,3.37,3.61,5.17,5.17,1.81,1.43,3.76,3.21,6.03,3.8,2.26,0,4.63,0,6.89,0"/><path class="b" d="M9.39,84.36c6.31.32,12.65-1.2,18.1-4.4,1.71-.96,3.51-2.09,5.17-3.13.76-.47,1.81-1.11,2.59-1.56.43-.01,1.3-.03,1.72-.02,4.87,0,9.78,0,14.65,0,5.07,3.17,9.68,7.68,15.51,9.36,5.16,0,10.36,0,15.51,0,6.31,0,12.65,0,18.96,0,.82.08,1.83-.39,2.59-.65,1.37-.49,2.91-1.03,4.31-1.45,5.27-1.51,10.12-4.23,14.65-7.25h40.51c1.65.97,2.85,2.89,4.31,4.13,2.04,1.97,4.37,3.84,6.89,5.16,2.55.15,5.2.02,7.76.06"/><path class="b" d="M9.39,82.09c5.71-.05,11.38-1.56,16.37-4.33,1.72-.92,3.51-2.02,5.17-3.04.78-.47,1.8-1.11,2.59-1.57.45-.04,1.28-.08,1.72-.06,5.44,0,10.93,0,16.37,0,.91-.17,1.88.48,2.59.99.77.52,1.81,1.25,2.59,1.77,2.45,1.68,5.07,3.32,7.76,4.59,1.9.77,3.95,1.99,6.03,2,4,0,8.06,0,12.07,0,4.87,0,9.78,0,14.65,0,2.3-.57,4.61-1.49,6.89-2.13,2.27-.64,4.67-1.22,6.89-2.03,2.35-.84,4.72-1.95,6.89-3.18.77-.44,1.83-1.06,2.59-1.53,0,0,.86-.49.86-.49h.86c2.84,0,5.77,0,8.62,0,10.91,0,21.84,0,32.75,0,3.53,3.28,6.69,7.36,11.2,9.36,2.56,0,5.2,0,7.76,0"/><path class="b" d="M9.39,79.68c5.1-.36,10.13-1.84,14.65-4.21,2.02-1.04,4.09-2.28,6.03-3.45.45-.26,1.28-.78,1.72-1.03.78-.09,1.81-.07,2.59-.07,5.73,0,11.5,0,17.24,0,.79,0,1.84-.07,2.59.22.77.49,1.81,1.17,2.59,1.67,1.64,1.06,3.45,2.16,5.17,3.08,4.01,2.13,8.42,3.73,12.93,4.38,2.26,0,4.63,0,6.89,0,1.97,0,4.06,0,6.03,0,1.7.06,3.52-.02,5.17-.51,2.87-.67,5.76-1.64,8.62-2.37,2.85-.69,5.83-1.27,8.62-2.18,2.98-.95,5.91-2.33,8.62-3.89.37-.27,1.27-.49,1.72-.4,1.08,0,2.37,0,3.45,0,2.84,0,5.77,0,8.62,0,10.33.02,20.69-.05,31.03.03,2.89,3.12,7.13,8.02,11.2,9.33,2.56,0,5.2,0,7.76,0"/><path class="b" d="M9.39,77.12c4.8-.63,9.5-2.2,13.79-4.44,1.71-.88,3.51-1.92,5.17-2.89.46-.25,1.27-.76,1.72-1.01.46-.02,1.27-.04,1.72-.03,7.17,0,14.37,0,21.55,0,.45,0,1.28,0,1.72,0,1.09.62,2.36,1.41,3.45,2.03,1.92,1.11,4,2.2,6.03,3.07,6.47,2.78,13.67,3.9,20.68,3.29,4.38-.36,8.68-1.57,12.93-2.63,3.7-.86,7.55-1.34,11.2-2.4,11.46-3.65,3.67-3.45,17.24-3.35,10.33,0,20.69,0,31.03,0,1.67,0,3.5,0,5.17,0,1.05.29,1.84,1.56,2.59,2.28,2.53,2.68,5.37,5.29,8.62,7.07,2.84.03,5.77,0,8.62.01"/><path class="b" d="M9.39,74.38c4.49-.84,8.87-2.46,12.93-4.55,2.01-.99,4.02-2.25,6.03-3.24.78,0,1.81,0,2.59,0,5.44,0,10.93,0,16.37,0,3.13.08,6.37-.18,9.48.12,3.55,1.99,7.3,3.81,11.2,4.98,8.1,2.56,16.82,2.15,24.99.13,4.81-1.17,9.81-1.6,14.65-2.63,1.71-.38,3.53-.91,5.17-1.52.77-.29,1.83-.73,2.59-1.07.42-.02,1.3-.03,1.72-.02,15.22,0,30.46,0,45.68,0,3.38,3.36,6.68,7.55,11.2,9.36,2.85,0,5.77,0,8.62,0"/><path class="b" d="M9.39,71.47c4.17-1,8.24-2.6,12.07-4.54,5.77-3.02,3.86-2.51,10.34-2.51,8.61,0,17.25,0,25.85,0,1.5.05,2.91,1.18,4.31,1.64,2.2.93,4.57,1.74,6.89,2.32,7.63,2.03,15.63,1.25,23.27-.32,4.83-.93,9.8-1.22,14.65-2.02,1.4-.25,2.95-.61,4.31-1.02,1.05-.4,2.31-.72,3.45-.6,15.79,0,31.6,0,47.4,0,1.65.96,2.86,2.86,4.31,4.09,2.06,1.98,4.38,3.9,6.89,5.27,3.14,0,6.34,0,9.48,0"/><path class="b" d="M9.39,68.4c3.23-.91,6.44-2.15,9.48-3.57,1.1-.51,2.37-1.14,3.45-1.68.79-.36,1.68-1.07,2.59-.89,4.58,0,9.21,0,13.79,0,7.17,0,14.37,0,21.55,0,1.74.28,3.46,1.21,5.17,1.63,2.5.75,5.16,1.29,7.76,1.58,7.22.88,14.41-.7,21.55-1.54,4.86-.6,9.86-.53,14.65-1.63,4.29-.1,8.64,0,12.93-.04,10.91,0,21.84,0,32.75,0,1.97,0,4.06,0,6.03,0,1.43.4,2.34,2.11,3.45,3.02,2.32,2.32,4.91,4.56,7.76,6.2,3.4.34,6.92.04,10.34.14"/><path class="b" d="M9.39,65.21c4.14-1.3,8.18-3.04,12.07-4.97,2.24-.34,4.63-.07,6.89-.15,3.71,0,7.49,0,11.2,0,8.03,0,16.1,0,24.13,0,1.41.06,2.91.66,4.31.87,2.53.5,5.18.78,7.76.84,7.21.15,14.35-1.37,21.55-1.64,15.22-.19,30.46-.01,45.68-.07,5.73,0,11.5,0,17.24,0,.58.07,1.39.75,1.72,1.2.74.78,1.81,1.82,2.59,2.57,2.08,1.98,4.42,3.9,6.89,5.36,1.33.42,2.93.15,4.31.22,2.26,0,4.63,0,6.89,0"/><path class="b" d="M9.39,61.94c3.53-1.07,6.88-2.82,10.34-4.02,6.31,0,12.65,0,18.96,0,13.78-.01,27.58.02,41.37,0,22.69,0,45.39,0,68.08,0,3.42,0,6.92,0,10.34,0,1.88-.22,2.98,2.03,4.31,3.03,1.59,1.52,3.4,3.09,5.17,4.39,1.02.68,2.2,1.74,3.45,1.94,3.71,0,7.49,0,11.2,0"/><path class="b" d="M9.39,58.67c2.6-.84,5.17-2.03,7.76-2.91,5.16,0,10.36,0,15.51,0,10.62,0,21.27,0,31.89,0,31.31.01,62.63-.02,93.94.01,3.44,3.37,7.05,6.75,11.2,9.24,4.27.27,8.64.03,12.93.11"/><path class="b" d="M9.39,55.45c1.4-.48,2.93-1.04,4.31-1.56.76-.38,1.77-.3,2.59-.3,4.58,0,9.21,0,13.79,0,10.91,0,21.84,0,32.75,0,31.31,0,62.63,0,93.94,0,3.96,3.12,7.49,7.1,12.07,9.36,4.58,0,9.21,0,13.79,0"/><path class="b" d="M9.39,52.37c.78-.26,1.81-.62,2.59-.89,1.68-.12,3.49-.03,5.17-.06,3.71,0,7.49,0,11.2,0,10.91,0,21.84,0,32.75,0,31.31,0,62.63,0,93.94,0,3.89,3.24,7.68,6.77,12.07,9.36h15.51"/><path class="b" d="M9.39,49.49c1.91-.5,4.07-.12,6.03-.23,3.43,0,6.92,0,10.34,0,9.47,0,18.97,0,28.44,0,27.58,0,55.16,0,82.73,0,3.71,0,7.49,0,11.2,0,5.73,0,4.17-.6,8.62,3.17,2.71,2.21,5.57,4.46,8.62,6.19,5.73,0,11.5,0,17.24,0"/><path class="b" d="M9.39,47.09c47.11.04,94.23-.08,141.34.04,2.76,2.36,5.63,4.77,8.62,6.85,1.35.82,2.73,2.16,4.31,2.47,6.31,0,12.65,0,18.96,0"/><path class="b" d="M9.39,44.93h138.75c2.77,2.38,5.61,4.84,8.62,6.92,1.35.81,2.73,2.14,4.31,2.44,7.17,0,14.37,0,21.55,0"/><path class="b" d="M9.39,42.76h136.17c2.81,2.42,5.57,5.07,8.62,7.2,1.32.76,2.69,2.3,4.31,2.16,8.03,0,16.1,0,24.13,0"/><path class="b" d="M9.39,40.98c2.2-.67,4.63-.29,6.89-.38,3.43,0,6.92,0,10.34,0,10.05,0,20.12,0,30.16,0,28.72,0,57.46,0,86.18,0,2.68,2.14,5.02,4.88,7.76,6.97,1.3.84,2.65,2.53,4.31,2.39,9.18,0,18.39,0,27.58,0"/><path class="b" d="M9.39,39.6c1.7-.32,3.46-.99,5.17-1.17,1.97,0,4.06,0,6.03,0,4.58,0,9.21,0,13.79,0,13.78,0,27.58,0,41.37,0,11.2,0,22.41,0,33.61,0,10.05,0,20.12,0,30.16,0,1.92-.24,3.03,2.04,4.31,3.12,2.15,2.15,4.3,4.62,6.89,6.23h31.89"/><path class="b" d="M9.39,38.42c2.89-.53,5.75-1.55,8.62-2.15,4,0,8.06,0,12.07,0,9.47,0,18.97,0,28.44,0,26.71.07,53.44-.14,80.15.07,2.88,3.03,5.55,6.43,8.62,9.28,11.77,0,23.56,0,35.33,0"/><path class="b" d="M9.39,37.31c4.15-.73,8.06-2.09,12.07-3.21,4,0,8.06,0,12.07,0,12.06,0,24.14,0,36.2,0,11.2,0,22.41,0,33.61,0,10.33,0,20.69,0,31.03,0,2.48-.27,2.8.75,4.31,2.47,2,2.2,3.67,5.06,6.03,6.88h37.92"/><path class="b" d="M9.39,36.16c3.47-.64,6.97-1.49,10.34-2.53,1.1-.34,2.38-.82,3.45-1.27.46-.24,1.21-.47,1.72-.43,11.77,0,23.56,0,35.33,0,24.7,0,49.41,0,74.12,0,2.99,2.69,4.84,6.63,7.76,9.36h40.51"/><path class="b" d="M9.39,34.83c4.05-.68,8.13-1.59,12.07-2.78,1.41-.43,2.95-1.02,4.31-1.61.75-.35,1.74-.8,2.59-.68,10.62,0,21.27,0,31.89,0,24.13.07,48.27-.13,72.39.07,2.56,2.81,4.71,6.16,6.89,9.26,14.36.09,28.73,0,43.09.03"/><path class="b" d="M9.39,33.19c4.92-.72,9.87-1.66,14.65-3.07,1.41-.43,2.95-1.02,4.31-1.61.77-.32,1.73-.89,2.59-.92,8.61,0,17.25,0,25.85,0,16.08,0,32.18,0,48.26,0,5.44,0,10.93,0,16.37,0,3.13.09,6.37-.19,9.48.13,2.64,2.74,4.4,6.4,6.89,9.23h44.81"/><path class="b" d="M9.39,31.13c5.78-.7,11.61-1.47,17.24-3,1.41-.4,2.95-.96,4.31-1.52,1.09-.37,2.26-1.25,3.45-1.18,1.68,0,3.49,0,5.17,0,29.87.03,59.76-.05,89.63.03,1.52,1.74,3.06,3.83,4.31,5.77.74,1.07,1.55,2.73,2.59,3.56h46.54"/><path class="b" d="M9.39,28.55c6.33-.54,12.74-.9,18.96-2.25,2.02-.44,4.11-1.12,6.03-1.88.78-.3,1.82-.74,2.59-1.07.77-.1,1.81-.08,2.59-.08,29.3,0,58.61,0,87.9,0,2.92,2.5,4.61,6.32,6.89,9.36h48.26"/><path class="b" d="M9.39,25.47c7.17-.45,14.44-.05,21.55-1.29,2.63-.42,5.26-1.24,7.76-2.13.77-.27,1.81-.62,2.59-.87,1.08-.14,2.36-.07,3.45-.08,27.29,0,54.58,0,81.87,0,1.49,1.84,3.04,4,4.31,5.99.75,1,1.37,2.84,2.59,3.36h49.12"/><path class="b" d="M9.39,22.18c7.75-.57,15.53.75,23.27-.03,6.4-.46,12.5-3.35,18.96-3.21,4.87.02,9.78-.04,14.65.03,3.42.3,6.91.66,10.34.61,2.28.01,4.64-.34,6.89-.64,3.71,0,7.49,0,11.2,0,10.33,0,20.69,0,31.03,0,2.29,2.67,4.21,5.9,6.03,8.89.7.57,1.75.48,2.59.46,1.38,0,2.93,0,4.31,0,3.71,0,7.49,0,11.2,0,10.91,0,21.84,0,32.75,0"/><path class="b" d="M9.39,18.83c4-.25,8.08-.16,12.07.23,4,.38,8.04,1.02,12.07.96,7.51-.06,14.88-2.16,22.41-2.08,6.6-.13,13.22.85,19.82.55,1.99-.1,4.09-.37,6.03-.83,1.68-.45,3.39-1.09,5.17-.9,12.92,0,25.86,0,38.78,0,2.36,2.79,3.97,6.36,6.03,9.36h50.85"/><path class="b" d="M9.39,15.52c4.58-.35,9.24-.23,13.79.44,4.29.59,8.59,1.65,12.93,1.85,5.46.26,10.93-.57,16.37-.71,5.45-.2,10.93.16,16.37.3,3.73.08,7.57-.05,11.2-.98,1.1-.28,2.39-.7,3.45-1.13.42-.18,1.3-.53,1.72-.69.42,0,1.3,0,1.72,0,13.21,0,26.43,0,39.64,0,1.84,2.81,3.6,6,5.17,8.97.72.48,1.77.39,2.59.39,1.38,0,2.93,0,4.31,0,3.71,0,7.49,0,11.2,0,10.91,0,21.84,0,32.75,0"/><path class="b" d="M9.39,12.47c2.55-.08,5.2-.01,7.76-.03,2.28-.06,4.65.03,6.89.47,4.33.7,8.59,2,12.93,2.64,3.11.44,6.34.4,9.48.33,4.58-.12,9.21-.23,13.79-.05,5.15.16,10.39.59,15.51-.21,2.03-.32,4.13-.91,6.03-1.69,1.1-.41,2.3-1.19,3.45-1.49,2.85,0,5.77,0,8.62,0,11.2,0,22.41,0,33.61,0,2.18,2.55,3.54,6.05,5.17,8.97.72.48,1.77.39,2.59.38,1.38,0,2.93,0,4.31,0,3.71,0,7.49,0,11.2,0,10.62,0,21.27,0,31.89,0"/><path class="b" d="M9.39,10.27c3.71,0,7.49,0,11.2,0,1.97.09,4.1-.21,6.03.18,4.04.84,8.02,2.2,12.07,2.99,3.67.65,7.48.68,11.2.72,4.58.02,9.21.06,13.79.26,7.1.43,14.59-.14,20.68-4.15,9.76,0,19.54,0,29.3,0,3.14,0,6.34,0,9.48,0,1.96.1,4.11-.24,6.03.2,1.14,1.99,2.41,4.42,3.45,6.47.31.72,1.11,2.18,1.72,2.68h48.26"/><path class="b" d="M9.39,8.11c4.29,0,8.64,0,12.93,0,2.26.11,4.69-.27,6.89.25,3.46.85,6.88,2.09,10.34,2.9,3.09.69,6.32.95,9.48,1.09,4.29.18,8.64.22,12.93.31,3.71.06,7.52.26,11.2-.34,2.67-.42,5.36-1.3,7.76-2.55.78-.41,1.84-1.02,2.59-1.49,1.36-.3,2.93-.11,4.31-.16,14.07,0,28.16,0,42.23,0,.68.33,1.43,1.67,1.72,2.33,1.1,2.11,2.37,4.64,3.45,6.76,1.32.49,2.93.18,4.31.26,1.97,0,4.06,0,6.03,0,5.73,0,11.5,0,17.24,0,4,0,8.06,0,12.07,0,1.38,0,2.93,0,4.31,0,1.16.13,2.42-.24,3.45-.74"/></svg>