<?xml version="1.0" encoding="UTF-8"?><svg id="a" xmlns="http://www.w3.org/2000/svg" width="1920" height="2400" viewBox="0 0 192 240"><defs><style>.b{fill:none;stroke:#fff;stroke-miterlimit:10;stroke-width:.3px;}.c{stroke-width:0px;}</style></defs><rect class="c" width="192" height="240"/><path class="b" d="M9.41,222.51c4,0,8.06,0,12.06,0,.6,0,1.33.49,1.72.9,1.04.85,2.31,1.8,3.45,2.52,5.06,3.31,9.65,3.75,15.51,3.11,10.86-1.19,21.84-1.77,32.74-.61,5.56.5,11.04,1.81,16.37,3.43,2.84.01,5.77,0,8.62,0,1.97,0,4.06,0,6.03,0,2.51-1.08,4.89-2.78,6.89-4.63,1.51-1.4,2.86-3.28,4.31-4.73h65.48"/><path class="b" d="M9.41,220.34h13.78c3.83,2.88,7.97,5.88,12.92,6.27,7.74.31,15.51-.58,23.26-.29,6.32.15,12.69.44,18.95,1.34,3.47.43,6.9,1.44,10.34,2.03,4.58,0,9.21,0,13.78,0,1.91.23,3.6-1.1,5.17-2,3.08-1.83,5.29-4.84,7.75-7.35h67.2"/><path class="b" d="M9.41,218.18c5.15.02,10.36-.05,15.51.03,5.15,4.37,9.66,5.97,16.37,5.89,5.73.15,11.5.21,17.23.51,6.32.33,12.69.64,18.95,1.52,2.57.36,5.21.87,7.75,1.39,5.44.03,10.93,0,16.37,0,5.1-1.42,8.55-5.71,12.06-9.35h68.92"/><path class="b" d="M9.41,216.01c5.73.04,11.5-.08,17.23.05,5.46,4.41,9.62,5.03,16.37,5.47,5.44.44,10.93.84,16.37,1.25,6.03.46,12.11.81,18.09,1.7,2.27.27,4.59.98,6.89.88,4.87,0,9.78,0,14.65,0,1.84.05,3.63-1.21,5.17-2.11,2.96-1.93,5.28-4.78,7.75-7.24h70.65"/><path class="b" d="M9.41,213.85h18.95c5.31,3.62,8.44,4.13,14.65,4.98,6,.87,12.06,1.55,18.09,2.07,5.74.49,11.54.93,17.23,1.88,2.24.51,4.61.45,6.89.43,3.13,0,6.34,0,9.48,0,1.38-.09,3.02.26,4.31-.33,4.52-1.81,7.95-5.54,11.2-9.02h72.37"/><path class="b" d="M9.41,211.68c6.88,0,13.8,0,20.68,0,.91,0,1.82.78,2.58,1.17,1.59.86,3.41,1.57,5.17,1.98,8.19,2.05,16.58,3.3,24.98,4.03,5.76.49,11.54,1.14,17.23,2.16,5.15.02,10.35,0,15.51,0,4.89-.73,9.62-5.74,12.92-9.21,1.95-.31,4.06-.07,6.03-.14,3.13,0,6.34,0,9.48,0,9.47,0,18.96,0,28.43,0,6.31,0,12.65,0,18.95,0,2.26,0,4.63,0,6.89,0,1.39.06,3.01-.22,4.31.39"/><path class="b" d="M9.41,209.51c5.15,0,10.35,0,15.51,0,1.68,0,3.49,0,5.17,0,1.41.03,3.09-.24,4.31.65,5.71,2.57,11.96,3.92,18.09,5.06,6.26,1.08,12.66,1.39,18.95,2.23,2.86.38,5.77.9,8.62,1.38,2.26.07,4.63.01,6.89.03,1.68,0,3.49,0,5.17,0,1.46.12,3.01-.16,4.31-.84,2.87-1.32,5.45-3.37,7.75-5.5,3.79-3.74,2.48-2.96,7.75-3.01,3.71,0,7.49,0,11.2,0,7.46,0,14.94,0,22.4,0,7.17,0,14.37,0,21.54,0,3.42,0,6.92,0,10.34,0,1.72.32,3.47,1.16,5.17,1.61"/><path class="b" d="M9.41,207.35c8.61,0,17.24,0,25.85,0,1.17.04,2.35.85,3.45,1.21,1.66.66,3.47,1.33,5.17,1.88,4.46,1.45,9.13,2.41,13.78,2.98,5.44.66,10.97,1.04,16.37,2.01,2.27.39,4.62.85,6.89,1.22,3.13.15,6.34.02,9.48.06,5.86-.04,11.51-5.46,15.51-9.33,15.21-.07,30.45,0,45.66-.02,7.17,0,14.37,0,21.54,0,1.14.02,2.36.69,3.45.99,1.94.65,4.04,1.24,6.03,1.72"/><path class="b" d="M9.41,205.18c9.47,0,18.96,0,28.43,0,1.19-.1,2.36.83,3.45,1.21,1.93.83,4.02,1.61,6.03,2.22,4.74,1.46,9.72,2.11,14.65,2.59,4.32.42,8.67.99,12.92,1.85,5.34,1.06,10.97,2.28,16.37.98,5.44-1.37,9.57-5.42,13.78-8.85,15.22,0,30.45,0,45.66,0,6.02,0,12.07,0,18.09,0,1.73.31,3.47,1.17,5.17,1.62,2.8.86,5.74,1.54,8.62,2.06"/><path class="b" d="M9.41,203.02c10.04,0,20.11,0,30.15,0,1.54-.19,2.94.82,4.31,1.36,2.2.94,4.57,1.73,6.89,2.29,5.92,1.46,12.1,1.56,18.09,2.57,7.91,1.19,16.3,4.68,24.12,1.31,3.14-1.31,6.01-3.38,8.62-5.54.75-.62,1.69-1.58,2.58-1.99,1.68,0,3.49,0,5.17,0,4,0,8.06,0,12.06,0,6.59,0,13.22,0,19.82,0,7.46,0,14.94,0,22.4,0,.81-.06,1.83.42,2.58.68,1.36.49,2.92.99,4.31,1.39,3.93,1.14,8.02,1.89,12.06,2.44"/><path class="b" d="M9.41,200.85c10.62,0,21.26,0,31.88,0,.44,0,1.29,0,1.72,0,.76.36,1.8.83,2.58,1.15,2.19.89,4.57,1.6,6.89,2.07,5.68,1.14,11.56,1.23,17.23,2.42,7.31,1.46,15.07,4.46,22.4,1.51,4.2-1.53,7.63-4.58,11.2-7.15,18.09,0,36.19,0,54.28,0,1.48-.18,2.95.51,4.31,1,1.66.58,3.47,1.15,5.17,1.6,5.06,1.37,10.3,2.08,15.51,2.6"/><path class="b" d="M9.41,198.69c11.48,0,22.98,0,34.46,0,1.48-.14,2.93.78,4.31,1.17,1.64.54,3.47.98,5.17,1.28,4.84.83,9.83.98,14.65,1.99,15.39,3.69,20.92,6.67,34.46-4.4,16.65-.12,33.32,0,49.97-.04,1.79-.15,3.5.89,5.17,1.38,2.23.77,4.6,1.46,6.89,1.99,5.92,1.41,12.04,1.89,18.09,2.36"/><path class="b" d="M9.41,198.36l.86-1.38c1.16-.82,2.95-.34,4.31-.46,2.56,0,5.2,0,7.75,0,7.46,0,14.94,0,22.4,0,.78,0,1.81,0,2.58,0,.79.15,1.81.49,2.58.69,1.94.5,4.04.84,6.03,1.07,3.72.42,7.53.7,11.2,1.51,3.48.73,6.9,1.93,10.34,2.82,7.85,2.09,13.89,1.23,20.68-3.28,1.43-.83,2.78-2.18,4.31-2.81.77,0,1.82,0,2.58,0,14.07,0,28.15,0,42.22,0,2.09-.07,4.05,1.24,6.03,1.77,2.79.95,5.73,1.74,8.62,2.31,6.79,1.39,13.78,1.54,20.68,2.05"/><path class="b" d="M9.41,199.72c1.11-1.66,2.3-3.72,3.45-5.36,8.89,0,17.81,0,26.71,0,4,0,8.06,0,12.06,0,2.54.45,5.19.65,7.75.9,3.48.32,7,.94,10.34,1.97,3.97,1.22,7.93,2.78,12.06,3.36,5.04.98,10.24-.23,14.65-2.75,1.11-.6,2.4-1.4,3.45-2.11.98-.72,2.14-1.6,3.45-1.38,4,0,8.06,0,12.06,0,6.31,0,12.65,0,18.95,0,1.97,0,4.06,0,6.03,0,1.39.05,3.03-.22,4.31.47,5.76,2.4,11.89,4.02,18.09,4.7,6.57.76,13.23.67,19.82,1.25"/><path class="b" d="M9.41,200.89c1.15-1.58,2.42-3.53,3.45-5.18.73-1.06,1.45-2.82,2.58-3.52,10.33,0,20.68,0,31.02,0,3.71,0,7.49,0,11.2,0,1.97.07,4.09-.17,6.03.18,7.05,1.28,13.45,5.16,20.68,5.69,4.85.5,9.64-1.2,13.78-3.61,1.1-.64,2.38-1.44,3.45-2.13,1.06-.23,2.37-.11,3.45-.14,4.87,0,9.78,0,14.65,0,6.31,0,12.65,0,18.95,0,1.75.18,3.46,1.41,5.17,1.93,2.77,1.07,5.71,1.91,8.62,2.49,9.92,2.04,20.15.98,30.15,2.19"/><path class="b" d="M9.41,199.38h1.72c2.31-2.76,4.12-6.16,6.03-9.2,2.23-.36,4.63-.07,6.89-.16,3.71,0,7.49,0,11.2,0,10.62,0,21.26,0,31.88,0,.83-.08,1.83.37,2.58.65,1.69.64,3.49,1.41,5.17,2.08,3.56,1.38,7.38,2.4,11.2,2.61,3.56.15,7.13-.86,10.34-2.35,1.11-.52,2.39-1.2,3.45-1.81.75-.41,1.7-1.12,2.58-1.19,6.31,0,12.65,0,18.95,0,4.86.08,9.8-.17,14.65.1,2.46,1.29,5.1,2.44,7.75,3.28,3.89,1.21,8,1.85,12.06,2.11,8.89.54,17.89-.26,26.71,1.26"/><path class="b" d="M9.41,197.22c1.38-.07,2.97.2,4.31-.22,2.16-2.86,3.81-6.33,6.03-9.13,16.65,0,33.32,0,49.97,0,1.19-.15,2.41.51,3.45.99,1.07.48,2.35,1.04,3.45,1.47,3.83,1.37,7.96,2.47,12.06,2.26,2.96-.18,5.92-1.06,8.62-2.27,1.72-.71,3.41-1.84,5.17-2.45,6.88,0,13.8,0,20.68,0,2.26,0,4.63,0,6.89,0,1.41.04,3.11-.26,4.31.68,2.16,1.2,4.53,2.26,6.89,2.98,4.16,1.27,8.58,1.74,12.92,1.81,9.48.09,19.12-.81,28.43,1.42"/><path class="b" d="M9.41,195.05h6.03c1.87-1.47,2.95-4.11,4.31-6.03.72-1.01,1.39-2.79,2.58-3.33,16.65,0,33.32,0,49.97,0,.85-.13,1.85.35,2.58.73,1.06.5,2.34,1.06,3.45,1.46,3.86,1.26,7.97,2.31,12.06,1.88,2.64-.27,5.31-1.04,7.75-2.06,1.09-.45,2.38-1.04,3.45-1.54.41-.26,1.24-.51,1.72-.46,7.46,0,14.94,0,22.4,0,1.68,0,3.49,0,5.17,0,1.39.72,2.87,1.68,4.31,2.32,3.22,1.53,6.8,2.34,10.34,2.67,6.01.54,12.08-.13,18.09-.21,6.37-.13,12.85.38,18.95,2.29"/><path class="b" d="M9.41,192.88c2.84,0,5.77.01,8.62,0,2.08-2.94,4.03-6.23,6.03-9.23,6-.31,12.08-.02,18.09-.12,10.62,0,21.26,0,31.88,0,.82-.05,1.88.06,2.58.52,1.06.49,2.33,1.02,3.45,1.37,3.6,1.09,7.41,1.98,11.2,1.61,2.63-.22,5.29-.93,7.75-1.86,1.96-.65,3.89-1.92,6.03-1.65,5.44,0,10.93,0,16.37,0,1.68,0,3.49,0,5.17,0,1.1.06,2.49-.25,3.45.42,8.04,5.7,18.3,4.47,27.57,3.84,8.41-.54,17.09-.11,24.98,3.08"/><path class="b" d="M9.41,190.72h10.34c1.09-.64,1.87-2.23,2.58-3.22,1.37-1.97,2.66-4.38,4.31-6.13,16.65,0,33.32,0,49.97,0,.85-.14,1.83.38,2.58.7.76.31,1.8.67,2.58.88,3.61,1.06,7.44,1.75,11.2,1.33,3.86-.32,7.52-1.81,11.2-2.9,7.17,0,14.37,0,21.54,0,.78,0,1.85-.07,2.58.23,1.07.61,2.33,1.4,3.45,1.94,2.4,1.15,5.11,1.8,7.75,2.07,6.03.56,12.08-.52,18.09-.77,8.5-.5,17.29.43,24.98,4.28"/><path class="b" d="M9.41,188.55c2.55,0,5.2,0,7.75,0,1.67-.1,3.55.24,5.17-.23,1.41-1.98,2.91-4.26,4.31-6.25.7-.91,1.5-2.37,2.58-2.87,16.36,0,32.74,0,49.11,0,.81-.06,1.86.12,2.58.49,1.06.39,2.35.73,3.45,1,3.35.86,6.89,1.24,10.34.87,3.51-.35,6.96-1.41,10.34-2.35,6.88-.03,13.8,0,20.68-.01,2.14.27,3.99,1.87,6.03,2.51,3.27,1.22,6.87,1.52,10.34,1.39,14.27-.98,27.4-3.38,40.49,4.41"/><path class="b" d="M9.41,186.39c4.87-.04,9.78.08,14.65-.05,1.42-1.88,2.89-4.05,4.31-5.93,1.02-1.09,1.9-3.03,3.45-3.37,5.73,0,11.5,0,17.23,0,7.46,0,14.94,0,22.4,0,2.56,0,5.2,0,7.75,0,.77,0,1.81,0,2.58,0,.77.24,1.8.58,2.58.77,8.22,2.29,14.35,1.03,22.4-.77,6.01.09,12.09-.17,18.09.1,2.88.86,5.64,2.38,8.62,2.93,5.98,1.12,12.09-.06,18.09-.4,10.95-.84,21.74-.04,31.02,6.44"/><path class="b" d="M9.41,184.22c3.42,0,6.91,0,10.34,0,1.97-.09,4.1.2,6.03-.17,1.96-2.44,3.86-5.18,6.03-7.45,1.56-1.64,2.08-1.85,4.31-1.73,4.29,0,8.63,0,12.92,0,11.77.07,23.57-.14,35.32.08,9.26,2.73,15.85,1.29,24.98-.08,4.29.04,8.64-.08,12.92.05,3.8.62,7.4,2.32,11.2,2.89,5.43.71,10.94-.14,16.37-.39,11.69-.64,22.01-.35,31.88,6.8h.86"/><path class="b" d="M9.41,182.06h17.23c2.02-1.42,3.4-3.88,5.17-5.6,1.6-1.7,3.58-3.56,6.03-3.72,3.71-.09,7.49-.01,11.2-.04,10.91,0,21.83,0,32.74,0,1.38,0,2.93,0,4.31,0,1.67.33,3.47.74,5.17.96,3.69.53,7.49.51,11.2.17,6-.57,12.07-1.52,18.09-.76,4.39.36,8.58,2.02,12.92,2.6,5.43.54,10.93-.06,16.37-.18,7.19-.13,14.63-.35,21.54,1.93,2.07.7,4.16,1.7,6.03,2.83.77.47,1.84,1.17,2.58,1.69.74.15,1.83.12,2.58.12"/><path class="b" d="M9.41,179.89c4,0,8.06,0,12.06,0,2.21-.12,4.76.28,6.89-.23,2.65-2.71,5.05-6.18,8.62-7.73,1.07-.32,2.34-.63,3.45-.78,1.09-.09,2.39-.1,3.45-.43,1.06-.31,2.36-.15,3.45-.18,1.97,0,4.06,0,6.03,0,10.33,0,20.68,0,31.02,0,1.38,0,2.93,0,4.31,0,2.79.67,5.75.94,8.62,1.07,6.03.24,12.07-.67,18.09-.62,3.45.02,6.96.38,10.34,1.06,3.96.92,7.97,1.94,12.06,1.89,10.6.08,21.49-1.43,31.88,1.3,2.72.8,5.39,2.11,7.75,3.67,1.42,1.35,3.38.92,5.17.97"/><path class="b" d="M9.41,177.73c6.59-.07,13.23.14,19.82-.08,4.01-4.08,6.96-7.47,12.92-8.36,1.13-.07,2.41-.46,3.45-.91,4,0,8.06,0,12.06,0,10.33,0,20.68,0,31.02,0,1.71-.1,3.49.13,5.17.43,1.67.21,3.49.32,5.17.37,5.44.17,10.93-.34,16.37-.19,3.45.1,6.95.46,10.34,1.12,2.84.57,5.7,1.46,8.62,1.57,8.6.27,17.25-.77,25.85.01,7.2.4,12.18,1.75,18.09,6.05h4.31"/><path class="b" d="M9.41,175.56c6.88-.08,13.81.17,20.68-.1,3.44-3.43,7.31-6.6,12.06-7.95,1.44-.25,2.97-.72,4.31-1.3,4,0,8.06,0,12.06,0,10.04,0,20.11,0,30.15,0,1.68,0,3.49,0,5.17,0,2.55.24,5.19.57,7.75.59,5.73.13,11.51-.19,17.23.26,4.34.27,8.64,1.19,12.92,1.84,2.83.3,5.77.23,8.62.16,9.18-.25,18.52-.59,27.57,1.23,3.46.81,6.7,2.6,9.48,4.79,0,0,.86.49.86.49,0,0,.86,0,.86,0,1.07,0,2.37,0,3.45,0"/><path class="b" d="M9.41,173.4c6.31,0,12.65,0,18.95,0,1.32.04,2.54.12,3.45-.99,1.33-1.16,2.84-2.42,4.31-3.4,1.91-1.18,3.96-2.4,6.03-3.28,1.38-.51,3.02-.78,4.31-1.53,1.66-.3,3.49-.09,5.17-.15,10.33,0,20.68,0,31.02,0,7.17.01,14.38-.13,21.54.32,6.02.16,12.09-.04,18.09.48,3.74.25,7.46,1.17,11.2,1.38,5.73.24,11.5-.09,17.23,0,6.33.11,12.82.15,18.95,1.87,3.21,1.05,6.11,3.06,8.62,5.29,1.38.04,2.93.01,4.31.02"/><path class="b" d="M9.41,171.23c6.59,0,13.22,0,19.82,0,.46,0,1.27,0,1.72,0,.5-.19,1.34-.79,1.72-1.16,1.32-1.08,2.83-2.23,4.31-3.09,1.71-.95,3.42-2.19,5.17-3.07.75-.37,1.78-.76,2.58-.96.8-.27,1.78-.82,2.58-1.07,1.68,0,3.49,0,5.17,0,14.93,0,29.87,0,44.8,0,5.15,0,10.35,0,15.51,0,3.42.04,6.93-.13,10.34.21,3.45.26,6.89,1.08,10.34,1.31,6.87.39,13.8.13,20.68.22,5.76.15,11.8.11,17.23,2.25,1.83.81,3.63,2.04,5.17,3.32.73.62,1.71,1.62,2.58,2.05h3.45"/><path class="b" d="M9.41,169.07c7.46,0,14.94,0,22.4,0,2.34-2.07,5.13-3.65,7.75-5.32,1.06-.73,2.31-1.56,3.45-2.14,1.06-.52,2.41-.87,3.45-1.44.96-.71,2.33-.38,3.45-.45,1.38,0,2.92,0,4.31,0,11.48,0,22.98,0,34.46,0,11.77,0,23.56,0,35.32,0,2-.11,4.08.18,6.03.59,1.95.34,4.05.53,6.03.65,6.3.36,12.65.2,18.95.08,5.75,0,11.9-.25,17.23,2.2,2.22,1.13,4.26,2.84,6.03,4.59,0,0,.86.87.86.87l.86.38c.75,0,1.83,0,2.58,0"/><path class="b" d="M9.41,166.9c6.88,0,13.8,0,20.68,0,1.32.08,2.47,0,3.45-.99,1.32-1.01,2.84-2.04,4.31-2.81,1.74-1.02,3.42-2.42,5.17-3.42,1.35-.75,3.02-1.21,4.31-2.08,2.55-.1,5.2-.02,7.75-.04,23.83,0,47.68,0,71.51,0,2.59-.13,5.17.83,7.75.99,4.27.46,8.63.55,12.92.43,7.16-.11,14.44-1.42,21.54,0,3.74.62,6.9,3.1,9.48,5.76.41.45,1.32,1.38,1.72,1.85.68.4,1.82.33,2.58.32"/><path class="b" d="M9.41,164.74h23.26c2.38-1.99,5.25-3.4,7.75-5.21,1.06-.77,2.29-1.68,3.45-2.3,1.1-.51,2.44-1.04,3.45-1.73,3.69-.3,7.49-.03,11.2-.12,12.34,0,24.7,0,37.05,0,10.62,0,21.26,0,31.88,0,1.71.02,3.47.78,5.17.98,2.82.48,5.76.73,8.62.8,4.59.13,9.23-.28,13.78-.83,6.24-.64,13.3-1.93,18.95,1.51,1.89,1.22,3.65,2.93,5.17,4.59.92.98,1.83,2.62,3.45,2.3"/><path class="b" d="M9.41,162.57c7.46,0,14.94,0,22.4,0,.93.15,1.92-.4,2.58-.99.76-.55,1.78-1.26,2.58-1.73,2.1-1.14,4.06-2.75,6.03-4.08,1.32-.88,3.01-1.44,4.31-2.36,1.93-.41,4.07-.1,6.03-.19,3.14,0,6.34,0,9.48,0,15.22,0,30.45,0,45.66,0,6.02,0,12.07,0,18.09,0,3.66,1,7.39,2.04,11.2,2.26,7.53.73,15.02-.78,22.4-2.13,2.24-.31,4.63-.06,6.89-.14,1.69.04,3.58-.23,5.17.51,2.71,1.11,4.95,3.27,6.89,5.4,1.1,1.03,2,2.9,3.45,3.45"/><path class="b" d="M9.41,160.4c8.03-.02,16.09.04,24.12-.03,1.85-1.52,4.07-2.75,6.03-4.11,1.91-1.37,3.85-2.95,6.03-3.87.8-.4,1.7-1.16,2.58-1.35,5.73,0,11.5,0,17.23,0,14.07,0,28.15,0,42.22,0,5.73.05,11.51-.1,17.23.06,2.54.83,5.14,1.82,7.75,2.39,3.93.87,8.05,1.1,12.06.78,5.27-.38,10.41-1.87,15.51-3.16,3.42-.17,6.92-.02,10.34-.07.75,0,1.83,0,2.58,0,.87.21,1.88.91,2.58,1.44,2.62,2.04,4.82,4.77,6.89,7.35"/><path class="b" d="M9.41,158.24c7.74,0,15.52,0,23.26,0,.93.16,1.92-.43,2.58-1.02,1.05-.78,2.36-1.58,3.45-2.31,1.4-.97,2.88-2.15,4.31-3.08,1.35-.85,3.03-1.51,4.31-2.49.72-.55,1.74-.47,2.58-.45,1.08,0,2.36,0,3.45,0,3.42,0,6.91,0,10.34,0,19.24,0,38.49,0,57.72,0,1.15-.12,2.38.59,3.45.95,1.67.64,3.47,1.36,5.17,1.92,3.58,1.18,7.43,1.71,11.2,1.64,6.23-.07,12.26-2,18.09-4.04,1.02-.46,2.35-.53,3.45-.47,1.67,0,3.49,0,5.17,0,2.26,0,4.63,0,6.89,0,1.33.37,2.45,1.64,3.45,2.54,1.48,1.49,3,3.3,4.31,4.93"/><path class="b" d="M9.41,156.07c8.32-.02,16.67.04,24.98-.02,2.78-2.11,5.73-4.17,8.62-6.14,1.74-.92,3.66-1.85,5.17-3.15,23.26-.11,46.53,0,69.79-.04,1.55-.16,2.92.28,4.31.94,1.98.83,4.04,1.76,6.03,2.57,4.33,1.8,9.11,2.57,13.78,2.24,6.66-.39,12.89-3.06,18.95-5.63,5.13-.31,10.36-.02,15.51-.12,2.37,1.52,4.21,3.98,6.03,6.09"/><path class="b" d="M9.41,153.91c7.74,0,15.52,0,23.26,0,.46,0,1.28,0,1.72,0,.51-.14,1.34-.68,1.72-1.04,1.37-1,2.94-2.05,4.31-3.07,2.4-1.88,5.47-2.83,7.75-4.87,1.26-.7,2.92-.27,4.31-.38,2.56,0,5.2,0,7.75,0,13.2,0,26.43,0,39.63,0,6.01.1,12.1-.21,18.09.13,2.9,1.18,5.78,2.64,8.62,3.96,12.63,6.25,23.71,2.11,35.32-4.02,3.13-.15,6.34-.02,9.48-.06,2.26.09,4.66-.2,6.89.16,1.51,1.32,3.01,2.99,4.31,4.51"/><path class="b" d="M9.41,151.74h25.85c2.21-1.65,4.56-3.34,6.89-4.82,2.45-1.16,4.89-2.56,6.89-4.43,14.34-.31,28.73,0,43.08-.11,5.15,0,10.35,0,15.51,0,1.97,0,4.06,0,6.03,0,.43,0,1.29,0,1.72,0,.79.26,1.83.74,2.58,1.09,9.06,4.36,15.12,8.92,25.85,7.08,4.55-.75,8.89-2.58,12.92-4.76,1.39-.75,2.94-1.63,4.31-2.42.41-.24,1.31-.74,1.72-.98.41,0,1.31,0,1.72,0,4.87,0,9.78,0,14.65,0,1.3.74,2.42,2.18,3.45,3.25"/><path class="b" d="M9.41,149.58c8.61,0,17.24,0,25.85,0,.95,0,1.82-.93,2.58-1.39,1.07-.74,2.34-1.62,3.45-2.3,1.03-.65,2.39-1.15,3.45-1.74,1.83-1.06,3.53-2.6,5.17-3.92,14.35,0,28.72,0,43.08,0,6.59,0,13.22,0,19.82,0,1.18,0,2.38.8,3.45,1.24,2.31,1.1,4.65,2.39,6.89,3.62,3.26,1.8,6.66,3.64,10.34,4.42,2.26.17,4.63.03,6.89.07,1.68-.04,3.53.16,5.17-.31,4.28-1.04,8.32-3.03,12.06-5.3,1.39-.85,2.94-1.83,4.31-2.72.38-.28,1.3-.8,1.72-1.02.41,0,1.31,0,1.72,0,3.13,0,6.34,0,9.48,0,1.97.08,4.09-.18,6.03.15.44.41,1.31,1.26,1.72,1.7"/><path class="b" d="M9.41,147.41c8.89,0,17.81,0,26.71,0,.51,0,1.34-.42,1.72-.75,1.06-.71,2.33-1.54,3.45-2.15,1.4-.69,3.04-1.33,4.31-2.27,1.78-1.22,3.48-2.84,5.17-4.18,14.35,0,28.72,0,43.08,0,5.73,0,11.5,0,17.23,0,1.81.23,3.52,1.43,5.17,2.16,3.49,1.78,6.87,3.92,10.34,5.74,1.05.52,2.29,1.22,3.45,1.45,1.68,0,3.49,0,5.17,0,4,0,8.06,0,12.06,0,1.48.1,2.97-.85,4.31-1.38,2.68-1.26,5.31-2.88,7.75-4.55,1.7-1.07,3.35-2.56,5.17-3.42,1.38,0,2.93,0,4.31,0,2.84,0,5.77,0,8.62,0,1.07,0,2.37,0,3.45,0,0,0,.86,0,.86,0,0,0,.86.5.86.5"/><path class="b" d="M9.41,145.25c8.89,0,17.81,0,26.71,0,.43,0,1.3,0,1.72,0,.78-.41,1.81-1.05,2.58-1.46,1.38-.7,3.03-1.26,4.31-2.15,2.44-1.63,4.68-3.73,6.89-5.64,13.48-.29,27,0,40.49-.1,6.02.05,12.08-.1,18.09.06,4.79,2.08,9.3,4.83,13.78,7.48,1.06.6,2.31,1.36,3.45,1.82,2.26,0,4.63,0,6.89,0,4.58,0,9.21,0,13.78,0,.76,0,1.82.01,2.58-.03,1.74-.79,3.55-1.79,5.17-2.81,2.04-1.29,4.11-2.79,6.03-4.25,1.06-.72,2.18-1.93,3.45-2.27,5.73,0,11.5,0,17.23,0"/><path class="b" d="M9.41,143.08c10.04,0,20.11,0,30.15,0,5.58-1.47,9.23-6.21,13.78-9.35,12.92,0,25.85,0,38.77,0,5.44,0,10.93,0,16.37,0,4.85,1.9,9.32,4.77,13.78,7.42,1.07.63,2.31,1.44,3.45,1.93,2.55,0,5.2,0,7.75,0,5.44,0,10.93,0,16.37,0,.76,0,1.82,0,2.58-.02,1.11-.58,2.4-1.33,3.45-2.01,3.31-2.13,6.41-4.72,9.48-7.17,1.94-.32,4.06-.07,6.03-.15,3.71,0,7.49,0,11.2,0"/><path class="b" d="M9.41,140.92c11.19,0,22.41,0,33.6,0,4.42-2.52,7.79-6.63,12.06-9.35,14.07,0,28.15,0,42.22,0,3.13,0,6.34,0,9.48,0,1.8.32,3.52,1.43,5.17,2.18,2.62,1.34,5.24,2.9,7.75,4.43,1.08.66,2.36,1.45,3.45,2.1.37.3,1.23.66,1.72.65,4.87,0,9.78,0,14.65,0,4.58,0,9.21,0,13.78,0,1.56-.4,2.97-1.64,4.31-2.49,2.99-2.08,5.75-4.63,8.62-6.87h16.37"/><path class="b" d="M9.41,138.75c11.77,0,23.56,0,35.32,0,.55-.03,1.34-.52,1.72-.88,1.1-.87,2.37-1.95,3.45-2.85,1.36-1.15,2.89-2.43,4.31-3.51,1.05-.71,2.18-1.83,3.45-2.1,12.06,0,24.13,0,36.19,0,4,.03,8.06-.07,12.06.04,3.88,1.52,7.63,3.5,11.2,5.62,1.98,1.17,4.05,2.47,6.03,3.65,3.71.09,7.49.01,11.2.04,4.58,0,9.21,0,13.78,0,1.38,0,2.93,0,4.31,0,1.14.03,2.54.1,3.45-.72,2.71-1.75,5.32-3.87,7.75-5.98,1.06-.84,2.16-2.16,3.45-2.65.75,0,1.83,0,2.58,0,4.29,0,8.63,0,12.92,0"/><path class="b" d="M9.41,136.59h37.91c3.2-2.32,6.13-5.15,9.48-7.28,1.58-.94,3.21-2.37,5.17-2.07,11.19,0,22.41,0,33.6,0,2.84,0,5.77,0,8.62,0,2.93,1.04,5.86,2.35,8.62,3.79,3.21,1.68,6.37,3.62,9.48,5.47,6.01.23,12.08.02,18.09.09,4.87,0,9.78,0,14.65,0,1.59-.41,2.97-1.76,4.31-2.66,2.67-2.03,5.24-4.38,7.75-6.59,5.14-.25,10.36-.02,15.51-.09"/><path class="b" d="M9.41,134.42c8.61,0,17.24,0,25.85,0,4.86-.1,9.8.2,14.65-.13,3.25-2.62,6.63-5.27,10.34-7.23,1.62-.74,3.36-1.88,5.17-2,6.02,0,12.07,0,18.09,0,6.3.06,12.66-.12,18.95.07,6.4,1.94,12.35,5.16,18.09,8.53.95.75,2.29.83,3.45.75,1.38,0,2.93,0,4.31,0,4.58,0,9.21,0,13.78,0,4.29,0,8.63,0,12.92,0,.92.19,1.87-.59,2.58-1.07,1.11-.76,2.4-1.72,3.45-2.56,2.37-1.75,4.42-4.16,6.89-5.72,4.87,0,9.78,0,14.65,0"/><path class="b" d="M9.41,132.26c9.18,0,18.39,0,27.57,0,5.15-.09,10.37.19,15.51-.12,5.35-4.19,11.43-7.61,18.09-9.14,5.72-.24,11.5-.02,17.23-.09,4,.04,8.07-.09,12.06.06,5.39,1.31,10.59,3.47,15.51,6.02,1.99,1.03,4.07,2.17,6.03,3.25.76.04,1.82.03,2.58.03,5.73,0,11.5,0,17.23,0,4.87,0,9.78,0,14.65,0,4.52-2.14,8.26-6.06,12.06-9.27,4.85-.23,9.78-.02,14.65-.09"/><path class="b" d="M9.41,130.09c14.35,0,28.72,0,43.08,0,.78,0,1.81,0,2.58,0,1.45-.72,2.89-1.85,4.31-2.64,2.71-1.6,5.65-2.98,8.62-4.02,3.61-1.26,7.41-2.14,11.2-2.67,4.58-.08,9.21,0,13.78-.03,3.8-.16,7.57.92,11.2,1.95,6.02,1.74,11.59,4.75,17.23,7.41,4.29,0,8.63,0,12.92,0,7.17,0,14.37,0,21.54,0,3.19-1.36,5.92-3.84,8.62-5.99,1.4-1.04,2.68-2.69,4.31-3.37,4.58,0,9.21,0,13.78,0"/><path class="b" d="M9.41,127.92c15.79,0,31.59,0,47.38,0,.44,0,1.28,0,1.72,0,1.11-.54,2.35-1.33,3.45-1.9,2.19-1.17,4.56-2.25,6.89-3.12,6.86-2.55,14.21-3.95,21.54-3.81,8.98.13,17.73,2.86,25.85,6.56,1.69.72,3.44,1.66,5.17,2.27,1.97,0,4.06,0,6.03,0,4.58,0,9.21,0,13.78,0,4.87-.02,9.78.05,14.65-.03,4.76-2.41,8.76-6.07,12.92-9.32h13.78"/><path class="b" d="M9.41,125.76c16.65,0,33.32,0,49.97,0,.77,0,1.81,0,2.58,0,1.78-.45,3.45-1.67,5.17-2.33,3.59-1.61,7.38-2.94,11.2-3.88,8.74-2.23,18.02-2.05,26.71.3,3.8.99,7.56,2.34,11.2,3.78,1.08.43,2.37.95,3.45,1.39.75.3,1.75.82,2.58.74,5.44,0,10.93,0,16.37,0,5.44-.01,10.93.03,16.37-.02,5.07-2.27,9.5-5.78,13.78-9.26,4.57-.19,9.21-.02,13.78-.07"/><path class="b" d="M9.41,123.59c18.66,0,37.34,0,56,0,1.2.15,2.38-.71,3.45-1.14,1.37-.62,2.91-1.27,4.31-1.81,4.42-1.7,9.08-2.97,13.78-3.53,8.12-1.02,16.36.31,24.12,2.7,3.75,1.13,7.49,2.5,11.2,3.74,1.97.06,4.06.01,6.03.03,8.03,0,16.09,0,24.12,0,1.48.1,2.97-.86,4.31-1.39,2.06-.96,4.14-2.16,6.03-3.41,1.41-.94,2.95-2.06,4.31-3.08.71-.51,1.65-1.46,2.58-1.48,4.29,0,8.63,0,12.92,0"/><path class="b" d="M9.41,121.43c19.81,0,39.63,0,59.45,0,1.27.14,2.34-.27,3.45-.84,1.37-.6,2.91-1.23,4.31-1.74,4.42-1.63,9.09-2.76,13.78-3.16,7.85-.71,15.72.77,23.26,2.83,3.43.92,6.89,1.97,10.34,2.81,2.83.24,5.77.04,8.62.1,5.73,0,11.5,0,17.23,0,4.22-.86,8.33-2.49,12.06-4.65,2.35-1.35,4.68-2.96,6.89-4.51,1.63-.4,3.5-.11,5.17-.19,2.84,0,5.77,0,8.62,0"/><path class="b" d="M9.41,119.26c21.25,0,42.51,0,63.75,0,1.18.14,2.38-.65,3.45-1.04,1.36-.56,2.91-1.13,4.31-1.59,4.16-1.36,8.55-2.19,12.92-2.42,9.34-.55,18.49,1.85,27.57,3.65,4.51.98,9.18,1.13,13.78,1.05,8.14-.04,16.56-.32,24.12-3.65,3.31-1.4,6.46-3.31,9.48-5.24,4.56-.32,9.21-.03,13.78-.12"/><path class="b" d="M9.41,117.1c22.11,0,44.23,0,66.34,0,1.23.11,2.35-.1,3.45-.66,1.36-.54,2.91-1.09,4.31-1.52,4.17-1.28,8.56-2.01,12.92-2.2,8.97-.45,17.82,1.48,26.71,2.32,5.15.52,10.35-.13,15.51-.12,7.87-.06,15.98-.39,23.26-3.68,2.34-.99,4.66-2.3,6.89-3.49,4.58,0,9.21,0,13.78,0"/><path class="b" d="M9.41,114.93c22.11,0,44.23,0,66.34,0,1.68-.03,3.5.08,5.17-.08,1.65-.66,3.46-1.27,5.17-1.75,3.64-1.02,7.44-1.66,11.2-1.94,8.61-.67,17.24.46,25.85.51,3.44.09,6.91-.46,10.34-.71,3.71-.27,7.49-.22,11.2-.22,8.13.17,16-1.24,23.26-5.01,1.65-.29,3.5-.08,5.17-.14,3.13,0,6.34,0,9.48,0"/><path class="b" d="M9.41,112.77c17.51,0,35.04,0,52.55,0,7.17,0,14.37,0,21.54,0,4.49-1.44,9.07-2.82,13.78-3.28,10.02-1.01,20.17-.47,30.15-1.86,3.68-.66,7.45-1.2,11.2-1.18,5.15-.03,10.36.5,15.51.1,2.89-.21,5.84-.73,8.62-1.55,1.71-.4,3.43-1.39,5.17-1.59,4.87,0,9.78,0,14.65,0"/><path class="b" d="M9.41,110.6c21.82,0,43.66,0,65.48,0,3.71,0,7.49,0,11.2,0,3.63-1.29,7.37-2.48,11.2-3.03,4.26-.67,8.64-.84,12.92-1.28,4.89-.53,9.81-1.31,14.65-2.19,4.27-.81,8.54-2.03,12.92-2.01,5.46-.09,10.91.82,16.37.77,2.57-.01,5.23-.25,7.75-.73,1.39-.21,2.9-.79,4.31-.89,5.44,0,10.93,0,16.37,0"/><path class="b" d="M9.41,107.47c1.06.41,2.27,1.1,3.45.97,1.97,0,4.06,0,6.03,0,5.15,0,10.35,0,15.51,0,14.64,0,29.3,0,43.94,0,3.13-.03,6.34.06,9.48-.04,3.02-1.31,6.25-2.34,9.48-2.99,4.25-.87,8.64-1.23,12.92-1.89,4.06-.59,8.1-1.61,12.06-2.66,1.68-.43,3.49-.9,5.17-1.33,1.05-.34,2.34-.53,3.45-.45,5.73,0,11.5,0,17.23,0,3.43-.11,6.91.25,10.34.17,8.02-.39,16.09-.08,24.12-.17"/><path class="b" d="M9.41,103.31c3.65,1.21,7.46,2.06,11.2,2.93,6.59.07,13.22,0,19.82.03,14.07,0,28.15,0,42.22,0,1.97-.04,4.07.09,6.03-.08,3-1.46,6.23-2.61,9.48-3.4,4.54-1.1,9.24-1.7,13.78-2.75,3.78-.79,7.48-2.15,11.2-3.13,19.81,0,39.64,0,59.45,0"/><path class="b" d="M9.41,98.93c5.11,1.23,10.4,1.75,15.51,3,2.3.56,4.65,1.32,6.89,2.09,1.67.18,3.49.05,5.17.09,11.19,0,22.41,0,33.6,0,4,0,8.06,0,12.06,0,1.38,0,2.93,0,4.31,0,.8,0,1.87.09,2.58-.35,5.86-3.28,12.5-4.69,18.95-6.27,3.18-.73,6.32-1.92,9.48-2.73,1.38,0,2.93,0,4.31,0,20.1,0,40.21,0,60.31,0"/><path class="b" d="M9.41,94.38c5.43.82,11.02.91,16.37,2.25,3.83.94,7.49,2.64,11.2,3.94,1.11.42,2.19,1.56,3.45,1.37,11.77,0,23.56,0,35.32,0,2.85,0,5.77,0,8.62,0,1.08,0,2.37,0,3.45,0,.85.11,1.91-.23,2.58-.75,6.87-4.23,14.88-5.93,22.4-8.6,23.26-.01,46.53,0,69.79,0"/><path class="b" d="M9.41,90.42c2.55,0,5.2,0,7.75,0,2.57-.04,5.24-.03,7.75.56,3.62.7,7.05,2.31,10.34,3.92,1.41.63,3.06,1.18,4.31,2.11,1.16.76,2.24,2.07,3.45,2.76h46.52c6.04-4.16,12.88-7.05,19.82-9.35,7.74,0,15.52,0,23.26,0,16.65,0,33.32,0,49.97,0"/><path class="b" d="M9.41,88.26c7.17,0,14.37,0,21.54,0,2.18-.15,4.07,1.47,6.03,2.2,3.66,1.19,6.28,4.25,8.62,7.16,14.93-.07,29.88.13,44.8-.07,3.46-2.68,7.27-5,11.2-6.9,1.08-.53,2.36-1.13,3.45-1.62.76-.33,1.72-.91,2.58-.76,7.74,0,15.52,0,23.26,0,17.23,0,34.47,0,51.69,0"/><path class="b" d="M9.41,86.09c7.74,0,15.52,0,23.26,0,2.26.09,4.66-.2,6.89.15,3.81,1.94,6.1,5.91,8.62,9.2,14.35-.07,28.73.14,43.08-.08,2.95-2.46,6.17-4.73,9.48-6.67,1.66-.86,3.34-2.16,5.17-2.6,8.03,0,16.09,0,24.12,0,17.51,0,35.04,0,52.55,0"/><path class="b" d="M9.41,83.93c11.48.04,22.98-.07,34.46.04,2.39,2.57,4.29,5.81,6.03,8.83.44.33,1.17.59,1.72.48,1.08,0,2.37,0,3.45,0,3.13,0,6.34,0,9.48,0,9.18,0,18.39,0,27.57,0,2.74-2.34,5.61-4.68,8.62-6.68.77-.51,1.8-1.19,2.58-1.68.75-.44,1.66-1.18,2.58-.99,7.74,0,15.52,0,23.26,0,17.8,0,35.61,0,53.42,0"/><path class="b" d="M9.41,81.76h37.05c1.47,1.33,2.44,3.58,3.45,5.26.74,1.22,1.43,3.19,2.58,4.09h40.49c1.54-.94,2.89-2.48,4.31-3.58,2.45-2.04,5.06-4.06,7.75-5.77h77.54"/><path class="b" d="M9.41,79.6c13.2.04,26.43-.07,39.63.04,1.16,2.01,2.42,4.48,3.45,6.56.31.74,1.1,2.23,1.72,2.75,9.47,0,18.96,0,28.43,0,3.13,0,6.34,0,9.48,0,2.45.18,2.67-.36,4.31-1.93,1.63-1.51,3.44-3.1,5.17-4.5,1.35-.96,2.7-2.44,4.31-2.93.77,0,1.82,0,2.58,0,3.42,0,6.91,0,10.34,0,21.25,0,42.51,0,63.75,0"/><path class="b" d="M9.41,77.43h41.35c2.18,2.72,2.91,6.72,5.17,9.35,13.2,0,26.43.01,39.63,0,2.2-2.16,4.53-4.38,6.89-6.36,1.35-.97,2.66-2.57,4.31-2.98,7.74,0,15.52,0,23.26,0,17.51,0,35.04,0,52.55,0"/><path class="b" d="M9.41,75.26h43.08c1.54,1.74,2.38,4.52,3.45,6.57.29.74,1.04,2.32,1.72,2.79h38.77c1.59-.96,2.89-2.66,4.31-3.85,2.18-1.88,4.33-4.16,6.89-5.5,7.74,0,15.52,0,23.26,0,17.23,0,34.47,0,51.69,0"/><path class="b" d="M9.41,73.1h44.8c1.55,1.78,2.38,4.6,3.45,6.68.28.72,1,2.3,1.72,2.68,8.89,0,17.81,0,26.71,0,2.56,0,5.2,0,7.75,0,1.38-.07,2.97.2,4.31-.22,1.93-1.88,3.99-3.84,6.03-5.6,1.05-.9,2.33-1.93,3.45-2.75.4-.35,1.17-.79,1.72-.78,4,0,8.06,0,12.06,0,20.39,0,40.78,0,61.17,0"/><path class="b" d="M9.41,70.93h46.52c1.47,1.89,2.38,4.69,3.45,6.82.28.7.93,2.24,1.72,2.54h37.91c2.58-2.19,5.05-4.69,7.75-6.73,1.33-.89,2.69-2.34,4.31-2.62,6.59,0,13.22,0,19.82,0,6.59,0,13.22,0,19.82,0,4.87-.04,9.79-.04,14.65.38,3.42.17,6.93.17,10.34-.26,2.25-.26,4.63-.05,6.89-.12"/><path class="b" d="M9.41,68.77h48.25c1.69,2.65,2.91,6.01,4.31,8.82l.86.54c9.18,0,18.39,0,27.57,0,14.24-.05,7.09,1.19,18.09-6.68,1.35-.91,2.84-1.96,4.31-2.68,1.08,0,2.37,0,3.45,0,3.42,0,6.91,0,10.34,0,5.73,0,11.5,0,17.23,0,3.71.07,7.51-.2,11.2.25,5.71.53,11.49,1.04,17.23.76,2.28-.13,4.66-.43,6.89-.95,1.07-.1,2.37-.05,3.45-.06"/><path class="b" d="M9.41,66.6h49.97c1.51,2.8,2.91,6.07,4.31,8.93.44.29,1.21.52,1.72.43,1.08,0,2.37,0,3.45,0,2.85,0,5.77,0,8.62,0,8.03,0,16.09,0,24.12,0,4.34-3.43,8.76-6.98,13.78-9.35,4,0,8.06,0,12.06,0,4,0,8.06,0,12.06,0,2.86-.02,5.79-.07,8.62.39,8,.78,16.08,1.63,24.12,1.23,1.99-.13,4.08-.4,6.03-.82,1.38-.25,2.88-.9,4.31-.8"/><path class="b" d="M9.41,64.44c11.19,0,22.41,0,33.6,0,3.71,0,7.49,0,11.2,0,2.26.08,4.66-.18,6.89.14,1.39,2.84,2.9,6.05,4.31,8.89,1.54.65,3.51.2,5.17.33,3.13,0,6.34,0,9.48,0,7.74-.06,15.53.12,23.26-.07,4.74-3.67,9.84-7.17,15.51-9.24,3.71-.11,7.49-.01,11.2-.04,2.55.07,5.22-.15,7.75.11,4.55.71,9.19,1.19,13.78,1.53,10.31.61,21.06,2,31.02-1.51"/><path class="b" d="M9.41,62.27h52.55l.86.51c1.38,2.77,2.89,5.87,4.31,8.62,1.63.45,3.5.13,5.17.22,2.84,0,5.77,0,8.62,0,8.03,0,16.09,0,24.12,0,6.09-4.41,13-8.59,20.68-9.08,4.32-.21,8.64.8,12.92,1.24,7.14.85,14.36,1.19,21.54,1.49,7.51.32,15.26.28,22.4-2.36"/><path class="b" d="M9.41,60.11h54.28c.62.48,1.41,1.91,1.72,2.62,1.06,2.09,2.34,4.57,3.45,6.64,10.89.26,21.84,0,32.74.09,1.08,0,2.37,0,3.45,0,.81,0,1.88.1,2.58-.39,2.92-2.02,6.18-3.68,9.48-5,5.69-2.36,11.23-2.39,17.23-1.57,8,.9,16.08,1.18,24.12,1.41,8.09.25,16.46.29,24.12-2.66"/><path class="b" d="M9.41,57.94h56c1.8,2.97,3.37,6.39,5.17,9.35,9.47,0,18.96,0,28.43,0,15.87,0,5.86.74,18.95-4.06,6.08-2.21,11.79-1.86,18.09-1.3,7.44.54,14.94.61,22.4.71,8.11.12,16.49,0,24.12-3.08"/><path class="b" d="M9.41,55.78c12.34,0,24.7,0,37.05,0,4.29,0,8.63,0,12.92,0,1.68,0,3.49,0,5.17,0,.82-.02,1.91-.11,2.58.47,1.67,2.88,3.19,6.2,5.17,8.88,9.76,0,19.54,0,29.29,0,3.42-.01,6.92.03,10.34-.02,2.69-1.43,5.66-2.44,8.62-3.14,5.91-1.56,12.07-.84,18.09-.66,6.88.21,13.8.14,20.68.12,7.85-.02,15.94-.43,23.26-3.53"/><path class="b" d="M9.41,53.61h58.59c2.22,2.87,3.45,6.79,6.03,9.35,9.76,0,19.54,0,29.29,0,3.71,0,7.49,0,11.2,0,1.14-.05,2.35-.7,3.45-.96,1.65-.46,3.48-.82,5.17-1.09,6.26-.98,12.65-.26,18.95-.41,6.02-.05,12.08-.17,18.09-.32,7.6-.18,15.38-.87,22.4-3.99"/><path class="b" d="M9.41,51.45h59.45c1.17.66,1.86,2.46,2.58,3.52,1.05,1.74,2.33,3.8,3.45,5.5,1.51.66,3.54.2,5.17.33,2.85,0,5.77,0,8.62,0,8.61,0,17.24,0,25.85,0,1.68,0,3.49,0,5.17,0,1.96-.35,4.05-.66,6.03-.84,3.7-.34,7.49-.22,11.2-.28,7.17-.08,14.37-.39,21.54-.65,8.19-.3,16.61-1.03,24.12-4.56"/><path class="b" d="M9.41,49.28c13.2,0,26.43,0,39.63,0,4.58,0,9.21,0,13.78,0,1.68,0,3.49,0,5.17,0,.79,0,1.87-.09,2.58.33,1.94,2.96,3.77,6.29,6.03,9.03,20.1,0,40.21,0,60.31,0,6.89.1,13.8-.39,20.68-.74,8.51-.43,17.24-1.33,24.98-5.14"/><path class="b" d="M9.41,47.12c13.49,0,27,0,40.49,0,4.58,0,9.21,0,13.78,0,2.54.11,5.25-.25,7.75.19,1.37,2.05,2.88,4.33,4.31,6.34,1.49,1.92,1.55,3.11,4.31,2.82,8.32,0,16.67,0,24.98,0,8.61,0,17.24,0,25.85,0,7.17,0,14.37,0,21.54,0,10.27.3,20.86-.74,30.15-5.43"/><path class="b" d="M9.41,44.95c20.96.06,41.94-.12,62.89.07,2.18,3.06,4.47,6.25,6.89,9.12,2.52.39,5.21.07,7.75.17,4.58,0,9.21,0,13.78,0,13.2,0,26.43,0,39.63,0,8.61,0,17.24,0,25.85,0,5.71-.33,11.26-2.51,16.37-4.98"/><path class="b" d="M9.41,42.78h63.75c2.53,3.06,4.98,6.37,7.75,9.22,2.53.31,5.2.05,7.75.13,4.58,0,9.21,0,13.78,0,13.2,0,26.43,0,39.63,0,7.46,0,14.94,0,22.4,0,1.97,0,4.06,0,6.03,0,4.21-.79,8.23-2.64,12.06-4.52"/><path class="b" d="M9.41,40.62h64.62c2.18,1.89,3.94,4.47,6.03,6.47,1.25,1.07,2.43,3.14,4.31,2.89,8.32,0,16.67,0,24.98,0,9.18,0,18.39,0,27.57,0,8.32,0,16.67,0,24.99,0,3.71,0,7.49.01,11.2,0,3.25-1.05,6.44-2.48,9.48-4.03"/><path class="b" d="M9.41,38.45c14.35,0,28.72,0,43.08,0,4.87,0,9.78,0,14.65,0,1.68,0,3.49,0,5.17,0,1.09.05,2.44-.2,3.45.32,2.18,2.3,4.5,4.66,6.89,6.74,1.26.98,2.53,2.6,4.31,2.3,4.87,0,9.78,0,14.65,0,16.65,0,33.32,0,49.97,0,6.02,0,12.07,0,18.09,0,1.67-.02,3.5.04,5.17-.04,2.62-1,5.26-2.23,7.75-3.5"/><path class="b" d="M9.41,36.29h67.2c2.88,2.31,5.56,5.04,8.62,7.15,1.29.75,2.74,2.35,4.31,2.21,7.74,0,15.52,0,23.26,0,9.18,0,18.39,0,27.57,0,8.03,0,16.09,0,24.12,0,3.71,0,7.49,0,11.2,0,2.39-.61,4.66-2,6.89-3.03"/><path class="b" d="M9.41,34.12h68.92c4.56,3.5,9.19,7.37,14.65,9.35,7.74,0,15.52,0,23.26,0,8.32,0,16.67,0,24.98,0,8.32,0,16.67,0,24.98,0,3.71-.04,7.49.08,11.2-.05,1.7-.75,3.51-1.61,5.17-2.43"/><path class="b" d="M9.41,31.96c22.4,0,44.8,0,67.2,0,1.08,0,2.37,0,3.45,0,2.11.96,3.99,2.63,6.03,3.75,3.76,2.28,7.82,4.25,12.06,5.46,1.95.32,4.06.07,6.03.15,16.65,0,33.32,0,49.97,0,5.44,0,10.93,0,16.37,0,2.55,0,5.2,0,7.75,0,1.43-.47,2.94-1.29,4.31-1.92"/><path class="b" d="M9.41,29.79c22.4,0,44.8,0,67.2,0,1.97,0,4.06,0,6.03,0,2.64,1.11,5.11,2.86,7.75,4.01,5.13,2.5,10.69,4.21,16.37,4.88,5.7.78,11.5.36,17.23.46,9.18,0,18.39,0,27.57,0,6.31,0,12.65,0,18.95,0,2.26,0,4.63,0,6.89,0,.76,0,1.84.04,2.58-.15.75-.35,1.83-.82,2.58-1.18"/><path class="b" d="M9.41,27.63c22.11,0,44.23,0,66.34,0,3.42,0,6.91,0,10.34,0,2.33.79,4.58,2.13,6.89,2.99,3.6,1.48,7.38,2.68,11.2,3.44,4.53.92,9.2,1.22,13.78,1.78,2.58.2,5.18,1.08,7.75,1.15,8.32,0,16.67,0,24.98,0,6.59,0,13.22,0,19.82,0,2.26,0,4.63,0,6.89,0,1.73-.02,3.63.24,5.17-.71"/><path class="b" d="M9.41,25.46c22.68,0,45.38,0,68.06,0,4.58.07,9.22-.14,13.78.09,2.23.91,4.6,1.79,6.89,2.52,6.68,2.25,13.76,2.86,20.68,4,2.29.4,4.67.96,6.89,1.66,1.38.37,2.85,1.22,4.31,1.09,17.51-.08,35.05.16,52.55-.09"/><path class="b" d="M9.41,23.3c25.27,0,50.55,0,75.82,0,4,.01,8.06-.03,12.06.02,5.03,1.68,10.28,2.79,15.51,3.65,4.06.69,8.18,1.46,12.06,2.85,1.4.5,2.95,1.13,4.31,1.75,1.04.45,2.27,1.23,3.45,1.08,16.65,0,33.32,0,49.97,0"/><path class="b" d="M9.41,21.13c27.85,0,55.72,0,83.57,0,4,0,8.06,0,12.06,0,5.17,1.08,10.43,2.06,15.51,3.54,4.53,1.27,8.62,3.76,12.92,5.6,1.92.47,4.07.11,6.03.21,14.35,0,28.72,0,43.08,0"/><path class="b" d="M9.41,18.97c29.58,0,59.16,0,88.74,0,5.15,0,10.35,0,15.51,0,3.54.69,7.05,1.97,10.34,3.43,3.99,1.96,7.88,4.27,12.06,5.82,4.56.26,9.21.02,13.78.1,10.91,0,21.83,0,32.74,0"/><path class="b" d="M9.41,16.8c30.44,0,60.89,0,91.32,0,5.44,0,10.93,0,16.37,0,1.16-.13,2.42.25,3.45.78,1.72.75,3.54,1.68,5.17,2.62,4.03,2.49,8.49,4.3,12.92,5.94,4.58.03,9.21,0,13.78,0,10.04,0,20.11,0,30.15,0"/><path class="b" d="M9.41,14.64c30.73,0,61.46,0,92.19,0,4.58,0,9.21,0,13.78,0,1.68,0,3.49,0,5.17,0,1.73.85,3.52,1.94,5.17,2.95,4.81,2.87,10.24,4.57,15.51,6.39,3.71.03,7.49,0,11.2,0,10.04,0,20.11,0,30.15,0"/><path class="b" d="M9.41,12.47c37.33.01,74.67-.03,112,.01,4.74,3.21,10.02,5.51,15.51,7.09,1.67.52,3.49,1.07,5.17,1.57,1.06.32,2.32.78,3.45.68,12.34,0,24.7,0,37.05,0"/><path class="b" d="M9.41,10.36c30.72-.15,61.46,0,92.19-.05,4.87,0,9.78,0,14.65,0,7.12-.09,4.28-.24,10.34,2.84,3.8,1.88,7.97,3.05,12.06,4.13,3.14.76,6.31,1.74,9.48,2.38,11.48,0,22.98,0,34.46,0"/><path class="b" d="M9.41,11.63c3.17-1.06,6.25-2.68,9.48-3.49,6.02,0,12.07,0,18.09,0,12.92,0,25.85,0,38.77,0,15.22,0,30.45,0,45.66,0,3.03,1.7,6.16,3.41,9.48,4.48,6.73,2.2,13.8,3.23,20.68,4.87,10.33,0,20.68,0,31.02,0"/></svg>