<?xml version="1.0" encoding="UTF-8"?><svg id="a" xmlns="http://www.w3.org/2000/svg" width="1920" height="2400" viewBox="0 0 192 240"><defs><style>.b{fill:none;stroke:#fff;stroke-miterlimit:10;stroke-width:.3px;}.c{stroke-width:0px;}</style></defs><rect class="c" width="192" height="240"/><path class="b" d="M9.41,222.51c6.31,0,12.65,0,18.95,0,1.97,0,4.06,0,6.03,0,1.38.07,2.97-.19,4.31.21,6.05,1.97,12.03,4.24,18.09,6.18,2.25.75,4.61,1.51,6.89,2.13,1.94.6,4,.97,6.03.82,4.58,0,9.21,0,13.78,0,8.76-1.83,16.75-6.96,25.85-7.3,7.19,0,14.37,1.06,21.54,1.58,5.72.43,11.51.26,17.23.64,4.9.27,9.73,1.55,14.65,1.62,6.68.23,13.35-.87,19.82-2.48"/><path class="b" d="M9.41,220.34c6.31,0,12.65,0,18.95,0,2.27,0,4.63,0,6.89,0,1.38.06,2.96-.16,4.31.18,9.97,3.23,19.82,7.22,30.15,9.12,2.55.12,5.2.02,7.75.05,2.27-.03,4.67.18,6.89-.41,8.44-1.74,16.28-6.17,24.98-6.63,7.19-.07,14.38,1.02,21.54,1.61,5.72.49,11.5.39,17.23.67,4.88.18,9.75,1.26,14.65,1.11,6.69-.08,13.33-1.4,19.82-2.98"/><path class="b" d="M9.41,218.18c6.59,0,13.22,0,19.82,0,3.71.09,7.51-.18,11.2.12,5.42,1.8,10.89,3.6,16.37,5.21,4.79,1.45,9.67,2.86,14.65,3.49,6.04.82,12.23.15,18.09-1.45,6.56-1.71,12.98-4.4,19.82-4.81,7.48-.13,14.96,1.07,22.4,1.71,5.72.5,11.5.44,17.23.66,4.58.14,9.19.91,13.78.57,6.7-.39,13.3-1.92,19.82-3.47"/><path class="b" d="M9.41,216.01c10.62.01,21.26-.03,31.88.01,5.12,1.64,10.32,3.19,15.51,4.61,5.08,1.44,10.25,2.85,15.51,3.44,6.03.73,12.19.15,18.09-1.23,6.57-1.46,13.04-3.82,19.82-4.08,7.78,0,15.52,1.27,23.26,1.93,6.58.53,13.22.39,19.82.67,9.94.95,19.71-1.71,29.29-3.99"/><path class="b" d="M9.41,213.85c10.91,0,21.83,0,32.74,0,2.89.5,5.75,1.63,8.62,2.3,7.68,1.92,15.34,4.32,23.26,5.01,6.33.59,12.74-.08,18.95-1.36,6.26-1.23,12.53-3.03,18.95-2.97,7.78.26,15.51,1.49,23.26,2.14,8.02.49,16.1.52,24.12.4,7.91-.56,15.56-2.99,23.26-4.75"/><path class="b" d="M9.41,211.68c11.76.1,23.57-.19,35.32.1,4.27,1.15,8.64,2.1,12.92,3.16,6.22,1.53,12.54,2.93,18.95,3.27,6.34.37,12.71-.31,18.95-1.35,6.25-.99,12.59-2.37,18.95-1.86,7.49.45,14.93,1.65,22.4,2.21,7.73.42,15.54.46,23.26-.14,7.61-.96,14.94-3.49,22.4-5.17"/><path class="b" d="M9.41,209.51c12.34,0,24.7,0,37.05,0,10.85,2.16,21.61,5.4,32.74,5.7,6.33.23,12.68-.37,18.95-1.12,6.27-.76,12.64-1.59,18.95-.83,6.9.49,13.77,1.64,20.68,2.13,8.02.43,16.18.4,24.12-.85,4.65-.87,9.23-2.3,13.78-3.54,2.25-.51,4.57-1.49,6.89-1.49"/><path class="b" d="M9.41,207.35c13.49.05,27.01-.11,40.49.06,11.11,2.13,22.2,4.99,33.6,4.86,8.91.13,17.81-1,26.71-1.23,3.73-.1,7.49.38,11.2.72,6.03.53,12.04,1.57,18.09,1.88,6.89.37,13.86.01,20.68-1.05,4.67-.85,9.24-2.34,13.78-3.65,2.8-.78,5.66-1.86,8.62-1.59"/><path class="b" d="M9.41,205.18c14.64,0,29.3,0,43.94,0,6.6,1.09,13.15,2.73,19.82,3.41,7.71.87,15.51.84,23.26.72,5.73-.07,11.5-.35,17.23-.13,8.06.5,16.08,1.76,24.12,2.46,8.35.64,16.84.03,24.99-1.92,3.75-.95,7.49-2.19,11.2-3.29,1.37-.41,2.92-.84,4.31-1.21,1.37-.08,2.93-.03,4.31-.04"/><path class="b" d="M9.41,203.02c10.91,0,21.83,0,32.74,0,5.15,0,10.35,0,15.51,0,3.14.53,6.33,1.21,9.48,1.7,17.65,2.9,35.68,1.32,53.42,3.22,6.32.51,12.62,1.55,18.95,1.93,5.46.33,10.99-.03,16.37-1.01,5.28-.84,10.42-2.53,15.51-4.13,1.96-.59,4.03-1.27,6.03-1.71,1.67,0,3.49,0,5.17,0"/><path class="b" d="M9.41,200.85c16.94,0,33.89,0,50.83,0,1.71-.11,3.5.28,5.17.57,2.55.43,5.19.82,7.75,1.11,6.57.77,13.22.98,19.82,1.41,9.76.76,19.56,1.32,29.29,2.34,7.74.6,15.47,2.05,23.26,1.69,6.74-.31,13.4-1.84,19.82-3.85,3.42-1.07,6.88-2.22,10.34-3.16,2.25-.25,4.63-.05,6.89-.11"/><path class="b" d="M9.41,198.69c18.09,0,36.19,0,54.28,0,2.88-.17,5.77.38,8.62.75,3.7.46,7.48.76,11.2,1.02,9.52.49,18.97,1.98,28.43,3.06,5.73.54,11.5,1.11,17.23,1.6,4.28.44,8.62.93,12.92.92,7.65.05,15.16-1.87,22.4-4.17,3.41-1.09,6.88-2.24,10.34-3.17,2.55-.03,5.2,0,7.75-.01"/><path class="b" d="M9.41,196.52c14.35,0,28.72,0,43.08,0,6.88,0,13.8-.02,20.68.01,3.7.45,7.48.75,11.2,1.05,4.6.37,9.24.86,13.78,1.64,4.59.77,9.18,1.82,13.78,2.48,8.85,1.13,17.8,1.71,26.71,2.27,8.55.45,16.94-1.76,24.99-4.43,3.12-1.01,6.31-2.07,9.48-2.93,3.12-.24,6.35-.03,9.48-.1"/><path class="b" d="M9.41,194.36c16.08,0,32.17,0,48.25,0,5.44,0,10.93,0,16.37,0,4.3-.03,8.65-.07,12.92.51,4.33.45,8.69,1.14,12.92,2.15,4.29,1,8.58,2.29,12.92,3.07,7.67,1.32,15.51,1.31,23.26,1.8,4.6.19,9.28-.06,13.78-1.01,5.57-1.15,10.96-3.13,16.37-4.85,1.96-.57,4.01-1.38,6.03-1.68,3.42,0,6.92,0,10.34,0"/><path class="b" d="M9.41,192.19c17.51,0,35.04,0,52.55,0,6.02,0,12.07,0,18.09,0,3.42.09,6.94-.21,10.34.15,8,1.06,15.45,4.42,23.26,6.25,6.5,1.39,13.22,1.02,19.82,1.25,5.18.15,10.44-.1,15.51-1.27,5.86-1.31,11.5-3.53,17.23-5.28,1.07-.33,2.37-.71,3.45-1.01,1.37-.17,2.93-.06,4.31-.09,2.84,0,5.77,0,8.62,0"/><path class="b" d="M9.41,190.03c28.14.05,56.29-.1,84.43.05,7.72,1.7,14.64,5.99,22.4,7.5,5.11.9,10.36.41,15.51.33,5.19-.07,10.44-.37,15.51-1.56,6.15-1.4,12.05-3.8,18.09-5.59.75-.23,1.82-.53,2.58-.73,1.38,0,2.93,0,4.31,0,3.42,0,6.92,0,10.34,0"/><path class="b" d="M9.41,187.86c29,.09,58.03-.17,87.02.09,7.61,2.46,14.29,7.79,22.4,8.61,4.01.35,8.07-.21,12.06-.53,5.2-.39,10.45-.91,15.51-2.24,6.11-1.56,12.01-3.94,18.09-5.62,2.19-.62,4.64-.2,6.89-.32,3.71,0,7.49,0,11.2,0"/><path class="b" d="M9.41,185.7c19.52,0,39.06,0,58.59,0,6.59,0,13.22,0,19.82,0,2.26,0,4.63,0,6.89,0,1.08.03,2.38-.1,3.45.16.43.2,1.3.61,1.72.82,6.12,2.83,12.92,8.79,19.82,8.37,1.68-.02,3.5.06,5.17-.06,1.68-.22,3.49-.55,5.17-.81,4.9-.74,9.86-1.51,14.65-2.86,5.79-1.59,11.43-3.79,17.23-5.32,2.49-.63,5.21-.18,7.75-.31,4.29,0,8.63,0,12.92,0"/><path class="b" d="M9.41,183.53c1.68,0,3.49,0,5.17,0,1.38.2,2.92.35,4.31.35,2.27-.04,4.61-.49,6.89-.35,14.64,0,29.3,0,43.94,0,6.59,0,13.22,0,19.82,0,2.84,0,5.77,0,8.62,0,1.58.07,2.96,1.46,4.31,2.18,3.07,1.78,9.72,7.3,12.92,7.18,2.55,0,5.2,0,7.75,0,2,.01,4.11.12,6.03-.55,4.89-1.19,9.85-2.34,14.65-3.87,5.15-1.61,10.26-3.51,15.51-4.76,2.81-.4,5.78-.06,8.62-.17,4.87,0,9.78,0,14.65,0"/><path class="b" d="M9.41,181.37c3.16-.2,6.32.52,9.48.49,1.4-.01,2.94-.23,4.31-.49,1.09,0,2.36,0,3.45,0,14.64,0,29.3,0,43.94,0,7.46,0,14.94,0,22.4,0,1.97,0,4.06,0,6.03,0,1.27.28,2.39,1.42,3.45,2.12,1.69,1.27,3.48,2.69,5.17,3.96,5.56,4.2,4.53,3.16,11.2,3.27,1.97,0,4.06,0,6.03,0,1.42.04,2.99.08,4.31-.57,8.91-2.85,17.61-6.5,26.71-8.74,8.89-.12,17.81,0,26.71-.04"/><path class="b" d="M9.41,179.2c2.86-.1,5.77.15,8.62.29,1.98.03,4.05-.4,6.03-.29,12.06,0,24.13,0,36.18,0,7.74,0,15.52,0,23.26,0,4.58,0,9.21,0,13.78,0,.76,0,1.83-.04,2.58.13,1.1.87,2.39,1.94,3.45,2.85,2.5,2.15,5.03,4.47,7.75,6.34,5.44,0,10.94.17,16.37-.07,4.53-2.09,9.15-4.1,13.78-5.95,2.52-1,5.15-1.95,7.75-2.71,1.62-.62,3.46-.65,5.17-.59,9.47,0,18.96,0,28.43,0"/><path class="b" d="M9.41,177.03c16.65,0,33.32,0,49.97,0,7.74,0,15.52,0,23.26,0,5.44,0,10.93,0,16.37,0,1.38.27,2.39,1.8,3.45,2.64,2.23,2.1,4.51,4.37,6.89,6.29.96.67,2.35.36,3.45.42,1.97,0,4.06,0,6.03,0,1.68,0,3.49,0,5.17,0,1.13.02,2.51.09,3.45-.66,3.91-2.25,7.94-4.44,12.06-6.28,2.22-.86,4.52-2.13,6.89-2.41,12.05.07,24.14-.13,36.18.07"/><path class="b" d="M9.41,174.87h89.6c2.41,2.07,4.59,4.6,6.89,6.78,2.65,2.49,2.28,2.71,6.03,2.57,4.29-.01,8.63.03,12.92-.02,3.36-2.29,6.78-4.63,10.34-6.61,1.07-.6,2.35-1.28,3.45-1.81.75-.35,1.73-.92,2.58-.91,3.71,0,7.49,0,11.2,0,5.73,0,11.5,0,17.23,0,2.55.02,5.2-.05,7.75.04,1.67.28,3.49.58,5.17.83"/><path class="b" d="M9.41,172.7h88.74c3.32,2.86,6.07,6.52,9.48,9.3,4.86.13,9.78.01,14.65.05,1.33-.13,2.37-1.52,3.45-2.22,1.65-1.31,3.44-2.71,5.17-3.92,5.8-4.08,4.35-3.14,11.2-3.22,7.74,0,15.52,0,23.26,0,2.84.02,5.77-.04,8.62.03,2.83.61,5.76,1.14,8.62,1.61"/><path class="b" d="M9.41,170.54h87.88c2.25,1.59,3.99,4.07,6.03,5.93,1.33,1.13,2.59,2.94,4.31,3.42,2.26,0,4.63,0,6.89,0,1.38,0,2.93,0,4.31,0,.82.01,1.9.11,2.58-.46,3.4-2.96,6.67-6.21,10.34-8.85,11.48-.11,22.98,0,34.46-.04,1.97.08,4.12-.25,6.03.31,3.39.85,6.89,1.5,10.34,2.06"/><path class="b" d="M9.41,168.37c18.95,0,37.91,0,56.86,0,6.59,0,13.22,0,19.82,0,2.26,0,4.63,0,6.89,0,1.38.07,2.97-.2,4.31.22,3.05,3.07,6,6.43,9.48,9.04,3.99.24,8.06.02,12.06.1,2.59-1.78,4.62-4.44,6.89-6.59,1.26-1.08,2.41-3.08,4.31-2.76,4.87,0,9.78,0,14.65,0,7.74,0,15.52,0,23.26,0,1.73.04,3.47.94,5.17,1.24,3.1.76,6.32,1.33,9.48,1.82"/><path class="b" d="M9.41,166.21h87.02c3.43,3.08,6.44,6.82,10.34,9.35h10.34c2.39-1.39,4.2-3.82,6.03-5.85,1.05-1.12,2.09-2.73,3.45-3.5,13.2,0,26.43,0,39.63,0,.83-.11,1.82.39,2.58.65,1.06.37,2.36.76,3.45,1.04,3.37.88,6.89,1.46,10.34,1.94"/><path class="b" d="M9.41,164.04h86.15c3.6,2.73,6.45,6.58,10.34,9,.42.24,1.24.43,1.72.35,1.08,0,2.37,0,3.45,0,1.67-.07,3.52.18,5.17-.17,3.49-2.38,5.63-6.31,8.62-9.18,13.49,0,27,0,40.49,0,.84,0,1.82.53,2.58.82,1.06.41,2.35.85,3.45,1.16,3.64,1.01,7.45,1.58,11.2,2.06"/><path class="b" d="M9.41,161.88h85.29c3.84,2.91,6.94,6.95,11.2,9.35,3.13-.09,6.37.2,9.48-.14,1.97-1.36,3.69-3.32,5.17-5.19,1.11-1.23,2-3.16,3.45-4.03,13.49,0,27,0,40.49,0,.84-.13,1.85.37,2.58.72,1.34.6,2.89,1.17,4.31,1.57,3.64,1,7.46,1.52,11.2,1.96"/><path class="b" d="M9.41,159.71c28.14.04,56.29-.09,84.43.05,3.38,2.97,6.58,6.33,10.34,8.84.43.32,1.19.58,1.72.47,1.08,0,2.37,0,3.45,0,1.68,0,3.49,0,5.17,0,1.36-.41,2.47-1.77,3.45-2.74,1.86-2,3.48-4.48,5.17-6.61,13.78,0,27.58,0,41.35,0,1.19-.16,2.4.63,3.45,1.08,1.05.46,2.34.93,3.45,1.25,3.64,1,7.46,1.5,11.2,1.92"/><path class="b" d="M9.41,157.55h82.71c3.92,2.74,7.15,6.55,11.2,9.16,1.64.4,3.5.11,5.17.2,2.26-.1,4.67.23,6.89-.18,3.15-2.48,5.22-6.14,7.75-9.17,14.07,0,28.15,0,42.22,0,.85-.14,1.85.39,2.58.75,1.05.47,2.34.96,3.45,1.29,3.64,1.01,7.46,1.52,11.2,1.96"/><path class="b" d="M9.41,155.38h80.99c3.98,2.62,7.29,6.29,11.2,9.02,1.52.66,3.52.2,5.17.33,1.97,0,4.06,0,6.03,0,1.1-.06,2.48.24,3.45-.41,2.67-2.53,4.84-5.74,6.89-8.77,1.64-.36,3.49-.1,5.17-.18,3.13,0,6.34,0,9.48,0,9.18,0,18.39,0,27.57,0,.77,0,1.83-.03,2.58.11,1.33.62,2.88,1.2,4.31,1.57,3.37.86,6.89,1.39,10.34,1.83"/><path class="b" d="M9.41,153.22c20.39,0,40.78,0,61.17,0,4,0,8.06,0,12.06,0,1.38,0,2.93,0,4.31,0,.86-.07,1.96.02,2.58.7,2.35,1.7,4.67,3.66,6.89,5.51,1.36,1.02,2.71,2.51,4.31,3.14,2.26,0,4.63,0,6.89,0,1.97,0,4.06,0,6.03,0,1.09-.06,2.46.22,3.45-.36,2.61-2.67,4.7-5.98,6.89-8.99,14.07,0,28.15,0,42.22,0,1.08,0,2.37,0,3.45,0,1.07.35,2.35.79,3.45,1.04,3.1.76,6.32,1.32,9.48,1.78"/><path class="b" d="M9.41,151.05c10.33,0,20.68,0,31.02,0,1.17-.14,2.34.72,3.45.97,1.35.38,2.91.55,4.31.48,1.4-.06,2.95-.34,4.31-.68,1.09-.23,2.32-.82,3.45-.78,5.44,0,10.93,0,16.37,0,3.71,0,7.49,0,11.2,0,.76,0,1.82,0,2.58,0,1.45.8,2.97,1.87,4.31,2.85,1.72,1.27,3.51,2.72,5.17,4.07,1.06.78,2.17,2.01,3.45,2.43,6.31-.03,12.65.05,18.95-.03,2.56-2.8,4.78-6.09,6.89-9.23,10.61-.25,21.26,0,31.88-.09,5.44,0,10.93,0,16.37,0,3.12.68,6.32,1.41,9.48,1.93"/><path class="b" d="M9.41,148.89c8.61,0,17.24,0,25.85,0,1.09.05,2.42-.18,3.45.28,1.76,1.29,3.87,2.32,6.03,2.7,5.04.86,9.96-1.27,14.65-2.84,1.95-.3,4.06-.07,6.03-.14,4,0,8.06,0,12.06,0,1.08,0,2.37,0,3.45,0,1.11,0,2.48-.12,3.45.55,2.72,1.41,5.33,3.23,7.75,5.09,1.69,1.13,3.28,3,5.17,3.71,3.13,0,6.34,0,9.48,0,4,0,8.06,0,12.06,0,1.53-.59,2.41-2.54,3.45-3.71,1.45-1.74,2.54-4.21,4.31-5.64,11.48,0,22.98,0,34.46,0,4,0,8.06,0,12.06,0,1.68,0,3.49,0,5.17,0,1.39.25,2.93.62,4.31.89"/><path class="b" d="M9.41,146.72c8.03,0,16.09,0,24.12,0,2.36-.13,2.59.15,4.31,1.6,1.98,1.53,4.39,2.71,6.89,3.04,6.94.8,13.22-3.21,19.82-4.64,3.42,0,6.91,0,10.34,0,1.38,0,2.93,0,4.31,0,1.13.22,2.39.75,3.45,1.2,4.39,1.95,8.3,4.91,12.06,7.85,1.01.49,2.36.25,3.45.3,1.97,0,4.06,0,6.03,0,5.44,0,10.93,0,16.37,0,1.02-.57,1.87-1.94,2.58-2.83,1.44-1.92,2.96-4.14,4.31-6.12.72-.49,1.76-.4,2.58-.39,1.38,0,2.93,0,4.31,0,4.29,0,8.63,0,12.92,0,11.77,0,23.56,0,35.32,0"/><path class="b" d="M9.41,144.55c6.59,0,13.22,0,19.82,0,1.38.05,2.95-.14,4.31.15.44.35,1.28,1.04,1.72,1.39,5.44,4.73,10.36,5.73,17.23,3.59,8.4-2.71,16.87-6.59,25.85-4.06,5.44,1.41,10.22,4.63,14.65,7.99,1.3.56,2.93.21,4.31.3,1.97,0,4.06,0,6.03,0,6.31,0,12.65,0,18.95,0,1.02-.59,1.87-1.98,2.58-2.88,1.42-1.93,2.94-4.13,4.31-6.1.72-.47,1.77-.38,2.58-.37,1.38,0,2.93,0,4.31,0,4,0,8.06,0,12.06,0,11.48,0,22.98,0,34.46,0"/><path class="b" d="M9.41,142.39c5.44,0,10.93,0,16.37,0,1.08,0,2.36,0,3.45,0,.91-.1,1.96.14,2.58.84,5.06,4,9.48,7.69,16.37,6.42,4.44-.73,8.64-2.61,12.92-3.93,4.69-1.5,9.74-2.37,14.65-1.57,5.72.88,10.88,3.88,15.51,7.24,1.27.64,2.93.24,4.31.34,2.55,0,5.2,0,7.75,0,6.88,0,13.8,0,20.68,0,1.49-.75,2.4-2.71,3.45-3.95,1.41-1.68,2.48-4.16,4.31-5.4h50.83"/><path class="b" d="M9.41,140.22c5.73,0,11.5,0,17.23,0,.91-.12,1.95.24,2.58.89,1.07.82,2.35,1.79,3.45,2.58,3.76,2.77,8.04,5.57,12.92,5.11,4.48-.28,8.71-2.07,12.92-3.46,4.69-1.6,9.65-2.87,14.65-2.54,3.9.23,7.74,1.45,11.2,3.24,1.42.73,2.97,1.65,4.31,2.53.69.49,1.69,1.18,2.58,1.01,7.46,0,14.94,0,22.4,0,2.55,0,5.2,0,7.75,0,1.66-.13,3.61.33,5.17-.32,2.3-2.93,4.49-6.16,6.89-9.02,16.36-.04,32.74,0,49.11-.01"/><path class="b" d="M9.41,138.06c4.87,0,9.78,0,14.65,0,.91-.16,1.92.41,2.58.98.77.56,1.81,1.33,2.58,1.89,2.46,1.77,5.06,3.52,7.75,4.92,2.09,1.17,4.51,1.75,6.89,1.56,2.62.17,5.27-.35,7.75-1.16,14.39-5.01,23.25-7.89,37.05,1.15,8.32.03,16.67,0,24.98.01,4.86-.09,9.8.18,14.65-.11,2.51-3.07,4.79-6.59,7.75-9.24h46.52"/><path class="b" d="M9.41,135.89h12.92c3.46,2.19,6.76,4.8,10.34,6.82,1.06.61,2.34,1.29,3.45,1.81.76.34,1.73.86,2.58.72,3.71-.04,7.49.09,11.2-.06,3.75-1.05,7.44-2.52,11.2-3.55,5.29-1.52,11-2.06,16.37-.67,2.36.59,4.73,1.53,6.89,2.63,1.36.62,2.72,1.86,4.31,1.65,2.55,0,5.2,0,7.75,0,11.19,0,22.41,0,33.6,0,2.8-3.11,5.34-6.72,8.62-9.35h43.94"/><path class="b" d="M9.41,133.73c3.42.11,6.95-.23,10.34.16,4.51,2.9,8.93,6.11,13.78,8.43.76.34,1.72.92,2.58.77,1.38,0,2.92,0,4.31,0,3.71-.09,7.51.19,11.2-.12,6.15-1.98,12.4-4.37,18.95-4.31,3.51,0,7.07.72,10.34,1.99,1.1.43,2.39,1.01,3.45,1.54.75.36,1.7,1.08,2.58.9,14.93,0,29.87,0,44.8,0,3.25-2.94,5.96-6.64,9.48-9.33,13.78-.08,27.58,0,41.35-.03"/><path class="b" d="M9.41,131.56c2.27,0,4.63,0,6.89,0,1.45.69,2.93,1.7,4.31,2.52,3.36,2.08,6.77,4.25,10.34,5.97,1.89,1.2,3.92.82,6.03.86,5.15-.08,10.37.16,15.51-.1,6.11-2.01,12.43-4.1,18.95-3.76,3.22.15,6.47.88,9.48,2.04,1.7.51,3.34,1.92,5.17,1.81,13.49,0,27,0,40.49,0,1.68,0,3.49,0,5.17,0,.41,0,1.31,0,1.72,0,.56-.14,1.37-.85,1.72-1.29,2.14-2.22,4.45-4.49,6.89-6.37.72-.55,1.76-1.3,2.58-1.69.41,0,1.31,0,1.72,0,12.06,0,24.13,0,36.18,0"/><path class="b" d="M9.41,129.4c1.09,0,2.36,0,3.45,0,1.79.59,3.51,1.76,5.17,2.64,3.67,2.1,7.35,4.34,11.2,6.1,1.81,1.01,4.05.5,6.03.61,3.42,0,6.91,0,10.34,0,1.97,0,4.06,0,6.03,0,1.13.11,2.38-.43,3.45-.74,5.81-1.85,11.97-3.27,18.09-2.5,2.32.27,4.7.85,6.89,1.64,1.42.42,2.85,1.36,4.31,1.6,4.58,0,9.21,0,13.78,0,8.03,0,16.09,0,24.12,0,2.84,0,5.77,0,8.62,0,1.67-.07,3.52.17,5.17-.16,3.17-3,6.49-6.06,10.34-8.18.43-.23,1.28-.67,1.72-.88,1.36-.26,2.93-.09,4.31-.14,10.04,0,20.11,0,30.15,0"/><path class="b" d="M9.41,127.25c4.14,1.68,8.12,3.84,12.06,5.94,1.37.72,2.91,1.51,4.31,2.17,1.07.44,2.26,1.23,3.45,1.23,5.44,0,10.93,0,16.37,0,2.26,0,4.63,0,6.89,0,2.01-.35,4.04-1.18,6.03-1.63,5.3-1.41,10.95-2,16.37-.95,1.71.32,3.53.83,5.17,1.42,1.09.34,2.29,1.09,3.45,1.16,5.73,0,11.5,0,17.23,0,12.34,0,24.7,0,37.05,0,4.62-3.81,9.56-7.95,15.51-9.35,9.76,0,19.54,0,29.29,0"/><path class="b" d="M9.41,126.69c4.11,1.55,8.11,3.53,12.06,5.44,1.66.79,3.46,1.6,5.17,2.28,1.09.02,2.36,0,3.45.01,7.46,0,14.94,0,22.4,0,5.61-1.52,11.35-3.16,17.23-2.86,2.9.11,5.85.63,8.62,1.49,1.1.34,2.38.81,3.45,1.25.76.15,1.81.12,2.58.12,15.5,0,31.02,0,46.52,0,1.97,0,4.06,0,6.03,0,1.11-.07,2.52.28,3.45-.48,3.67-2.89,7.67-5.53,12.06-7.18,1.93-.65,3.95-1.77,6.03-1.7,8.03,0,16.09,0,24.12,0"/><path class="b" d="M9.41,125.97c3.49,1.21,6.96,2.65,10.34,4.14,1.08.46,2.35,1.01,3.45,1.45.78.29,1.73.79,2.58.69,3.42,0,6.91,0,10.34,0,5.44-.07,10.94.14,16.37-.08,5.3-1.54,10.81-2.82,16.37-2.61,2.89.09,5.84.58,8.62,1.38,1.1.32,2.38.76,3.45,1.17,1.07.24,2.36.12,3.45.14,16.36,0,32.74,0,49.11,0,2.55,0,5.2,0,7.75,0,1.5-.65,2.9-1.9,4.31-2.72,4.46-2.93,9.58-4.73,14.65-6.29,1.02-.43,2.36-.34,3.45-.34,1.67,0,3.49,0,5.17,0,4.58,0,9.21,0,13.78,0"/><path class="b" d="M9.41,125.08c4.65,1.42,9.21,3.25,13.78,4.91,7.15.27,14.37.01,21.54.1,2.54-.13,5.27.33,7.75-.32,5.31-1.46,10.84-2.58,16.37-2.25,3.81.2,7.63,1.06,11.2,2.39,1.93.38,4.06.09,6.03.18,16.36,0,32.74,0,49.11,0,2.55,0,5.2,0,7.75,0,3.35-1.96,6.67-4.18,10.34-5.54,3.64-1.44,7.47-2.57,11.2-3.75,6.01-.19,12.08-.01,18.09-.07"/><path class="b" d="M9.41,124.03c4.33,1.16,8.62,2.65,12.92,3.9,8.03,0,16.09,0,24.12,0,1.08,0,2.36,0,3.45,0,1.98-.42,4.04-1.03,6.03-1.44,3.94-.85,8.03-1.33,12.06-1.09,4.13.16,8.15,1.33,12.06,2.53,2.26,0,4.63,0,6.89,0,16.65,0,33.32,0,49.97,0,2.26,0,4.63,0,6.89,0,1.22-.15,2.36-1.17,3.45-1.7,2.18-1.24,4.54-2.41,6.89-3.29,4.45-1.55,9.25-3.2,13.78-4.36,4.87,0,9.78,0,14.65,0"/><path class="b" d="M9.41,122.81c2.55.66,5.2,1.3,7.75,1.95,1.39.31,2.88.92,4.31,1,8.32,0,16.67,0,24.98,0,2.63.18,5.19-.92,7.75-1.38,3.94-.86,8.03-1.38,12.06-1.21,4.09.16,8.19,1.02,12.06,2.36,1.91.5,4.07.12,6.03.23,17.8,0,35.61,0,53.42,0,2.26,0,4.63,0,6.89,0,1.53-.23,2.91-1.43,4.31-2.03,2.19-1.13,4.55-2.17,6.89-2.94,4.55-1.53,9.26-2.71,13.78-4.33,4.28-.15,8.64-.01,12.92-.06"/><path class="b" d="M9.41,121.43c2.26.52,4.62,1.03,6.89,1.48,1.39.22,2.89.74,4.31.68,8.03,0,16.09,0,24.12,0,2.63.15,5.19-.96,7.75-1.4,3.94-.86,8.02-1.41,12.06-1.28,3.18.09,6.41.6,9.48,1.41,1.4.35,2.91.91,4.31,1.27,1.08,0,2.37,0,3.45,0,18.66,0,37.34,0,56,0,2.26,0,4.63,0,6.89,0,1.53.12,2.93-1.17,4.31-1.7,1.92-.94,4.01-1.85,6.03-2.56,5.39-1.8,11.04-2.93,16.37-4.94,1.35-.3,2.93-.11,4.31-.16,2.26,0,4.63,0,6.89,0"/><path class="b" d="M9.41,119.89c2.83.56,5.75,1.18,8.62,1.54,2.27,0,4.63,0,6.89,0,6.02,0,12.07,0,18.09,0,2.61.02,5.19-1.05,7.75-1.49,3.66-.79,7.45-1.35,11.2-1.34,3.46,0,6.98.49,10.34,1.35,2.28.49,4.51,1.71,6.89,1.47,19.52,0,39.06,0,58.59,0,2.26,0,4.63,0,6.89,0,.46.08,1.34-.16,1.72-.44.75-.37,1.82-.87,2.58-1.23,1.93-.89,4.01-1.75,6.03-2.4,5.09-1.61,10.45-2.46,15.51-4.18,1.08-.33,2.33-.92,3.45-1.1,2.84,0,5.77,0,8.62,0"/><path class="b" d="M9.41,118.18c1.97.38,4.05.74,6.03,1.04,2.55.1,5.2.02,7.75.04,5.73,0,11.5,0,17.23,0,2.62.1,5.2-.96,7.75-1.42,3.66-.82,7.44-1.48,11.2-1.56,3.75-.1,7.56.39,11.2,1.31,2.29.42,4.59,1.77,6.89,1.67,19.52,0,39.06,0,58.59,0,2.55,0,5.2,0,7.75,0,1.5.05,2.92-1.08,4.31-1.55,2.49-1.09,5.13-2.1,7.75-2.8,4.54-1.2,9.27-1.8,13.78-3.1,2.02-.47,4.01-1.52,6.03-1.91,2.26,0,4.63,0,6.89,0"/><path class="b" d="M9.41,116.29c1.68.29,3.47.67,5.17.81,2.56,0,5.2,0,7.75,0,5.44,0,10.93,0,16.37,0,2.31-.03,4.63-.94,6.89-1.36,3.66-.85,7.43-1.6,11.2-1.78,4.04-.21,8.15.26,12.06,1.27,1.4.36,2.94.83,4.31,1.29.76.26,1.76.7,2.58.58,18.95,0,37.91,0,56.86,0,3.13,0,6.34,0,9.48,0,1.78-.09,3.49-1.23,5.17-1.77,2.78-1.11,5.69-2.15,8.62-2.79,4.54-1,9.26-1.35,13.78-2.45,2.32-.56,4.69-1.36,6.89-2.27,1.96-.15,4.06-.03,6.03-.07"/><path class="b" d="M9.41,114.18c3.96.96,8.03.75,12.06.75,5.15,0,10.35,0,15.51,0,6.31-1,12.49-3.27,18.95-3.38,4.05-.16,8.17.43,12.06,1.55,1.09.31,2.38.72,3.45,1.1,1.05.41,2.29.87,3.45.74,16.94,0,33.89,0,50.83,0,4.58,0,9.21,0,13.78,0,5.17-1.52,10.17-3.83,15.51-4.79,5.11-.97,10.42-.91,15.51-2.03,2.64-.55,5.26-1.52,7.75-2.54,1.38,0,2.93,0,4.31,0"/><path class="b" d="M9.41,111.84c1.97.34,4.04.78,6.03.93,1.97,0,4.06,0,6.03,0,4.58,0,9.21,0,13.78,0,6.32-1.11,12.49-3.34,18.95-3.57,4.06-.2,8.18.39,12.06,1.54,1.09.32,2.38.75,3.45,1.14,1.06.38,2.29,1.01,3.45.88,14.93,0,29.87,0,44.8,0,5.73-.03,11.5.06,17.23-.04,2.81-.99,5.76-1.81,8.62-2.65,3.1-.94,6.27-1.93,9.48-2.45,5.68-.98,11.55-.36,17.23-1.31,2.32-.39,4.7-1.08,6.89-1.95.74-.3,1.79-.79,2.58-.96.75,0,1.83,0,2.58,0"/><path class="b" d="M9.41,109.28c2.84.45,5.75.97,8.62,1.3,1.68.03,3.49,0,5.17.01,3.71-.11,7.52.25,11.2-.2,6.86-1.25,13.61-3.75,20.68-3.57,3.5.05,7.02.74,10.34,1.84,1.1.36,2.38.84,3.45,1.27.76.31,1.74.78,2.58.66,16.08,0,32.17,0,48.25,0,1.97,0,4.06,0,6.03,0,1.09,0,2.41.07,3.45-.34,5.4-1.58,10.9-2.92,16.37-4.23,4.2-1.07,8.58-1.68,12.92-1.54,5.16.15,10.45.72,15.51-.58,1.72-.42,3.54-1.06,5.17-1.75,1.02-.48,2.28-1.07,3.45-.92"/><path class="b" d="M9.41,106.7c7.72.75,15.49,2.46,23.26,1.39,4.65-.58,9.17-2.1,13.78-2.88,4.53-.84,9.29-.93,13.78.16,2.02.48,4.11,1.18,6.03,1.97,1.08.37,2.26,1.23,3.45,1.09,7.74,0,15.52,0,23.26,0,6.31,0,12.65,0,18.95,0,2.84,0,5.77,0,8.62,0,1.37-.52,2.91-1.1,4.31-1.55,5.04-1.6,10.31-2.55,15.51-3.5,4.53-.88,9.14-1.93,13.78-1.8,11.73.61,16.78,3.43,28.43-2.43"/><path class="b" d="M9.41,104.18c3.43.18,6.92.33,10.34.66,3.41.37,6.9.8,10.34.69,5.57-.03,10.91-1.92,16.37-2.72,3.98-.63,8.13-.65,12.06.29,2.97.67,5.85,1.91,8.62,3.17,6.02,0,12.07,0,18.09,0,9.47,0,18.96,0,28.43,0,1.21.16,2.39-.76,3.45-1.21,1.64-.79,3.46-1.56,5.17-2.17,4.14-1.53,8.58-2.15,12.92-2.75,5.15-.62,10.3-1.88,15.51-1.77,12.96.65,18.38,6.09,31.88-.61"/><path class="b" d="M9.41,101.8c4.29-.03,8.64-.17,12.92.03,3.14.11,6.33.58,9.48.54,4.93,0,9.77-1.37,14.65-1.92,3.71-.45,7.58-.34,11.2.64,1.73.45,3.54,1.13,5.17,1.85.78.34,1.79.87,2.58,1.17.44,0,1.28,0,1.72,0,8.03,0,16.09,0,24.12,0,5.73,0,11.5,0,17.23,0,.42,0,1.3,0,1.72,0,.8-.42,1.82-1.11,2.58-1.59,1.9-1.18,3.98-2.33,6.03-3.21,4.86-2.22,10.25-2.78,15.51-3.3,4.56-.5,9.18-1.32,13.78-1.11,13.81,1.02,19.67,8.76,34.46,1.48"/><path class="b" d="M9.41,99.67c4.58-.29,9.19-.83,13.78-.95,4.01-.18,8.06.18,12.06.17,5.44-.2,10.92-1.26,16.37-.83,2.63.23,5.31.91,7.75,1.9.79.32,1.83.79,2.58,1.17.75.38,1.71.97,2.58.82,7.46,0,14.94,0,22.4,0,5.73,0,11.5,0,17.23,0,1.1-.06,2.48.25,3.45-.41,1.63-1.31,3.42-2.69,5.17-3.85,4.8-3.16,10.56-5.35,16.37-5.09,5.15,0,10.35,0,15.51,0,1.68,0,3.49,0,5.17,0,1.08.04,2.41-.15,3.45.24,11.31,4.1,17.3,7.89,29.29,2.12"/><path class="b" d="M9.41,97.88c5.74-.68,11.46-1.87,17.23-2.32,8.01-.58,16.12-.61,24.12,0,2.65.32,5.33,1.1,7.75,2.21,1.43.54,2.8,1.7,4.31,2,6.31,0,12.65,0,18.95,0,6.88,0,13.8,0,20.68,0,.78,0,1.85.07,2.58-.24,1.35-1.27,2.88-2.66,4.31-3.85,2.57-2.14,5.48-4.05,8.62-5.23,1.97-.08,4.06-.02,6.03-.04,8.32,0,16.67,0,24.99,0,1.67.07,3.52-.18,5.17.17,1.08.48,2.37,1.08,3.45,1.58,9.07,4.48,15.52,5.6,24.98,1.18"/><path class="b" d="M9.41,96.51c4.63-.73,9.2-1.99,13.78-2.92,5.38-1.07,10.88-1.92,16.37-2.2,1.99-.03,4.06.33,6.03.58,2.57.37,5.26.75,7.75,1.49,3.09.84,5.81,2.71,8.62,4.15,1.38,0,2.93,0,4.31,0,9.76,0,19.54,0,29.29,0,1.38,0,2.93,0,4.31,0,1.09-.05,2.42.17,3.45-.27,2.35-2.38,8.08-8.63,11.2-9.09,5.44,0,10.93,0,16.37,0,7.17,0,14.37,0,21.54,0,.4,0,1.31,0,1.72,0,.81.26,1.84.84,2.58,1.23,1.36.72,2.91,1.5,4.31,2.15,7.49,3.65,14,3.31,21.54-.03"/><path class="b" d="M9.41,95.44c5.29-.68,10.35-2.8,15.51-4.11,3.39-.94,6.89-1.76,10.34-2.46,2.52-.52,5.16-1.05,7.75-.94,2.03.06,4.09.66,6.03,1.22,2.33.68,4.75,1.46,6.89,2.6,1.12.59,2.4,1.38,3.45,2.09,1,.67,2.12,1.82,3.45,1.59,12.92,0,25.85,0,38.77,0,3.16-3.05,5.87-6.75,9.48-9.34,11.77-.04,23.56,0,35.32-.02,2.84.08,5.79-.18,8.62.13,1.08.61,2.36,1.33,3.45,1.92,8.48,4.79,15.09,5.28,24.12,1.57"/><path class="b" d="M9.41,93.28c2.26-.11,4.68.24,6.89-.19,4.59-1.57,9.16-3.36,13.78-4.83,5.58-1.57,11.33-4.17,17.23-3.21,3.05.62,5.94,2.17,8.62,3.72,2.13,1.26,4.05,3.05,6.03,4.51h38.77c2.84-3.07,5.2-6.87,8.62-9.35,12.34,0,24.7,0,37.05,0,2.84,0,5.77,0,8.62,0,1.1.56,2.36,1.33,3.45,1.93,8.4,4.86,15.08,5.22,24.12,1.83"/><path class="b" d="M9.41,91.11c3.42,0,6.91,0,10.34,0,1.78-.18,3.49-1.32,5.17-1.9,3.96-1.67,8.02-3.25,12.06-4.73,3.56-1.3,7.35-2.68,11.2-2.32,5.61.57,9.94,4.85,13.78,8.61,1.48.67,3.54.21,5.17.34,2.84,0,5.77,0,8.62,0,8.03,0,16.09,0,24.12,0,2.73-2.88,4.86-6.5,7.75-9.26,12.9-.26,25.86,0,38.77-.09,2.84,0,5.77,0,8.62,0,1.19.29,2.36,1.21,3.45,1.76,8.37,4.84,15.06,5.07,24.12,2.02"/><path class="b" d="M9.41,88.95c4.87,0,9.78,0,14.65,0,.86.03,1.83-.56,2.58-.9,1.08-.5,2.36-1.1,3.45-1.59,3.98-1.78,8-3.61,12.06-5.19,9.53-3.77,14.73.4,20.68,7.55,3.4.32,6.92.04,10.34.13,5.73,0,11.5,0,17.23,0,1.97,0,4.06,0,6.03,0,2.01-.05,3.21.47,4.31-1.64,1.86-2.6,3.78-5.43,6.03-7.71,13.2,0,26.43,0,39.63,0,2.26,0,4.63,0,6.89,0,.77,0,1.82-.02,2.58.08.76.45,1.81,1.04,2.58,1.46,8.35,4.74,15.07,4.83,24.12,2.16"/><path class="b" d="M9.41,86.78c6.02,0,12.07,0,18.09,0,1.21.16,2.42-.48,3.45-1.03,1.38-.68,2.92-1.44,4.31-2.1,12.39-6.14,18.79-9.73,28.43,3.06,11.76.21,23.56,0,35.32.08,2.41-2.94,4.37-6.45,6.89-9.31,13.49-.11,27,0,40.49-.04,3.13,0,6.34,0,9.48,0,1.13.44,2.36,1.22,3.45,1.74,7.96,4.21,14.75,3.98,23.26,1.82"/><path class="b" d="M9.41,84.62c7.17,0,14.37,0,21.54,0,.43,0,1.29,0,1.72,0,.82-.24,1.83-.81,2.58-1.19,1.68-.85,3.51-1.77,5.17-2.66,10.62-6,16.28-6.27,24.12,3.85,11.48-.1,23,.19,34.46-.11,1.35-2.09,2.87-4.42,4.31-6.45.7-.89,1.48-2.35,2.58-2.8,13.78,0,27.58,0,41.35,0,2.55,0,5.2,0,7.75,0,1.56-.22,2.96.84,4.31,1.45,7.94,4.02,14.8,3.71,23.26,1.91"/><path class="b" d="M9.41,82.45c8.32,0,16.67,0,24.98,0,.77,0,1.82.02,2.58-.05.43-.22,1.3-.68,1.72-.92,1.69-.93,3.49-1.99,5.17-2.93,5.2-3.02,11.14-5.2,16.37-.97,1.91,1.33,3.36,3.44,5.17,4.87,7.17,0,14.37,0,21.54,0,2.55,0,5.2,0,7.75,0,1.38-.11,3.05.31,4.31-.37,1.87-2.91,3.86-5.99,6.03-8.68,1.58-.61,3.5-.18,5.17-.3,3.13,0,6.34,0,9.48,0,9.18,0,18.39,0,27.57,0,2.26,0,4.63,0,6.89,0,.76,0,1.82,0,2.58,0,.79.28,1.82.8,2.58,1.15,7.92,3.79,14.85,3.44,23.26,1.98"/><path class="b" d="M9.41,80.29c8.32,0,16.67,0,24.98,0,1.97,0,4.06.02,6.03-.02.77-.46,1.82-1.09,2.58-1.55,9.09-5.66,14.68-7.35,22.4,1.5,6.88.17,13.8,0,20.68.06,2.55,0,5.2,0,7.75,0,1.64-.13,3.66.33,5.17-.33,1.34-2.05,2.85-4.33,4.31-6.3.7-.87,1.51-2.27,2.58-2.72,14.07,0,28.15,0,42.22,0,2.26,0,4.63,0,6.89,0,.77,0,1.82-.02,2.58.07.76.35,1.81.8,2.58,1.11,7.44,3.2,14.58,2.74,22.4,1.67"/><path class="b" d="M9.41,78.12c8.89,0,17.81,0,26.71,0,1.68,0,3.49,0,5.17,0,1.17.09,2.51-.04,3.45-.83,7.97-5.01,13.48-6.75,20.68.67,1.36.29,2.93.1,4.31.15,2.55,0,5.2,0,7.75,0,7.17,0,14.37,0,21.54,0,2.17-3.08,4.34-6.4,6.89-9.18,1.94-.37,4.06-.09,6.03-.17,3.71,0,7.49,0,11.2,0,10.62,0,21.26,0,31.88,0,.76,0,1.82,0,2.58,0,.82.08,1.82.56,2.58.83,2.2.82,4.57,1.49,6.89,1.88,5.12.89,10.37.27,15.51-.16"/><path class="b" d="M9.41,75.96c9.47,0,18.96,0,28.43,0,1.68,0,3.49,0,5.17,0,1.42-.03,3.12.25,4.31-.72,6.81-4.11,11.83-4.87,18.09.72,7.46,0,14.94,0,22.4,0,2.85,0,5.77,0,8.62,0,3.61.15,3.17-.08,5.17-2.83,1.04-1.4,2.3-3.04,3.45-4.36.71-.73,1.52-1.95,2.58-2.17,4.58,0,9.21,0,13.78,0,11.77,0,23.56,0,35.32,0,1.44-.14,2.97.22,4.31.76,1.93.62,4.03,1.13,6.03,1.44,5.12.82,10.36.3,15.51.02"/><path class="b" d="M9.41,73.79c12.34,0,24.7,0,37.05,0,.79,0,1.83.06,2.58-.2.76-.41,1.79-.93,2.58-1.28,1.87-.82,3.98-1.45,6.03-1.38,1.78.07,3.62.69,5.17,1.54.78.41,1.69,1.18,2.58,1.31,6.31,0,12.65,0,18.95,0,3.71,0,7.49,0,11.2,0,5.68.01,4.23.6,7.75-3.78,1.02-1.25,2.29-2.69,3.45-3.81.9-.91,2.04-2.02,3.45-1.76,15.5,0,31.02,0,46.52,0,1.71-.06,3.55-.02,5.17.61,1.94.53,4.04.94,6.03,1.18,4.85.6,9.78.19,14.65.07"/><path class="b" d="M9.41,71.63c10.04,0,20.11,0,30.15,0,3.71,0,7.49,0,11.2,0,.83-.06,1.82-.58,2.58-.85,1.33-.48,2.89-.83,4.31-.86,1.42-.02,2.98.29,4.31.79.77.28,1.74.87,2.58.92,3.42,0,6.91,0,10.34,0,5.73,0,11.5,0,17.23,0,3.13-.1,6.38.23,9.48-.16,2.18-2.47,7.77-9.73,11.2-9.2,6.02,0,12.07,0,18.09,0,9.47,0,18.96,0,28.43,0,1.42-.12,2.94.23,4.31.56,1.66.34,3.48.61,5.17.76,4.57.43,9.21.13,13.78.13"/><path class="b" d="M9.41,69.46c10.04,0,20.11,0,30.15,0,4.87,0,9.78,0,14.65,0,1.35-.38,2.9-.68,4.31-.63,1.42-.03,2.91.51,4.31.63,2.26,0,4.63,0,6.89,0,5.73,0,11.5,0,17.23,0,3.71,0,7.49,0,11.2,0,1.38,0,2.93,0,4.31,0,1.01-.35,1.84-1.56,2.58-2.27,2.26-2.38,4.89-4.55,7.75-6.16.41-.25,1.29-.72,1.72-.93.76,0,1.82,0,2.58,0,1.68,0,3.49,0,5.17,0,5.44,0,10.93,0,16.37,0,7.74,0,15.52,0,23.26,0,2.86.05,5.74.83,8.62.87,4,.22,8.06.05,12.06.14"/><path class="b" d="M9.41,67.3c26.13,0,52.27,0,78.4,0,5.44,0,10.93,0,16.37,0,1-.21,1.84-1.32,2.58-1.95,1.03-.94,2.31-2.01,3.45-2.83,1.62-1.13,3.45-2.23,5.17-3.2.75-.42,1.81-.99,2.58-1.37.42,0,1.3,0,1.72,0,6.59,0,13.22,0,19.82,0,8.89,0,17.81,0,26.71,0,5.43.37,10.92.37,16.37.49"/><path class="b" d="M9.41,65.13h97.35c4.41-3.76,9.49-6.73,14.65-9.33,6.31-.05,12.65,0,18.95-.02,14.07,0,28.15,0,42.22,0"/><path class="b" d="M9.41,62.96c27.28,0,54.57,0,81.85,0,5.44,0,10.93,0,16.37,0,.43.03,1.3-.04,1.72-.13.42-.32,1.29-.94,1.72-1.25,1.05-.74,2.35-1.54,3.45-2.21,3.36-2.02,6.74-4.21,10.34-5.77,6.02,0,12.07,0,18.09,0,13.2,0,26.43,0,39.63,0"/><path class="b" d="M9.41,60.8c28.14,0,56.29,0,84.43,0,5.44,0,10.93,0,16.37,0,1.27.21,2.45-.63,3.45-1.3,1.08-.65,2.37-1.42,3.45-2.08,3.35-2.06,6.79-4.13,10.34-5.82,2.23-.36,4.63-.07,6.89-.16,3.71,0,7.49,0,11.2,0,12.34,0,24.7,0,37.05,0"/><path class="b" d="M9.41,58.63c28.72,0,57.44,0,86.15,0,4.87,0,9.78,0,14.65,0,1.08,0,2.37,0,3.45,0,2.11-.77,4.07-2.24,6.03-3.33,3.62-2.13,7.27-4.5,11.2-6.03,5.44,0,10.93,0,16.37,0,11.77,0,23.56,0,35.32,0"/><path class="b" d="M9.41,56.47c29.29,0,58.59,0,87.88,0,5.44,0,10.93,0,16.37,0,.76,0,1.82.02,2.58-.06,2-1.05,4.09-2.24,6.03-3.39,3.61-2.13,7.35-4.22,11.2-5.89,5.15-.04,10.35,0,15.51-.02,11.19,0,22.41,0,33.6,0"/><path class="b" d="M9.41,54.3c29.86,0,59.74,0,89.6,0,5.15,0,10.35,0,15.51,0,1.08-.01,2.37.04,3.45-.06,2.01-.94,4.09-2.06,6.03-3.14,3.92-2.17,7.94-4.33,12.06-6.11,4.57-.11,9.21-.01,13.78-.04,10.91,0,21.83,0,32.74,0"/><path class="b" d="M9.41,52.14c30.44,0,60.89,0,91.32,0,5.73,0,11.5,0,17.23,0,1.17.13,2.4-.61,3.45-1.02,1.7-.76,3.51-1.66,5.17-2.5,4.01-1.91,7.92-4.21,12.06-5.83,4,0,8.06,0,12.06,0,10.62,0,21.26,0,31.88,0"/><path class="b" d="M9.41,49.97c31.01,0,62.03,0,93.05,0,5.44,0,10.93,0,16.37,0,3.27-.64,6.42-2.15,9.48-3.45,2.62-1.12,5.23-2.48,7.75-3.79,1.07-.55,2.36-1.19,3.45-1.71.35-.26,1.28-.5,1.72-.4,2.84,0,5.77,0,8.62,0,10.91,0,21.83,0,32.74,0"/><path class="b" d="M9.41,47.81c10.91,0,21.83,0,32.74,0,3.71,0,7.49,0,11.2,0,2.85,0,5.78.1,8.62-.3,8.29-.8,16.66-1.24,24.98-.85,6.32.24,12.62,1.4,18.95,1.15,3.71,0,7.49,0,11.2,0,4.7-.74,9.38-1.97,13.78-3.77,3.85-1.57,7.36-4.03,11.2-5.58,3.42,0,6.92,0,10.34,0,10.04,0,20.11,0,30.15,0"/><path class="b" d="M9.41,45.64c9.47,0,18.96,0,28.43,0,3.14,0,6.34,0,9.48,0,2.27,0,4.65.09,6.89-.32,11.16-1.37,22.33-3.27,33.6-3.41,7.81-.12,15.52,1.44,23.26,2.26,6.61.64,13.44.19,19.82-1.72,3.01-1.04,5.85-2.7,8.62-4.25,1.07-.6,2.35-1.34,3.45-1.9.76,0,1.82,0,2.58,0,12.34,0,24.7,0,37.05,0"/><path class="b" d="M9.41,43.48c7.46,0,14.94,0,22.4,0,5.16-.07,10.38.28,15.51-.47,7.2-.83,14.4-1.93,21.54-3.17,6.84-1.17,13.72-2.55,20.68-2.78,12.54-.73,24.52,4.79,37.05,3.97,6.49.15,11.81-3.92,17.23-6.9,12.92,0,25.85,0,38.77,0"/><path class="b" d="M9.41,41.31c7.46,0,14.94,0,22.4,0,6.85-.99,13.82-1.23,20.68-2.21,11.05-1.34,21.77-4.53,32.74-6.31,6.57-1.02,13.33-.79,19.82.69,6.05,1.3,11.96,3.38,18.09,4.31,8.24,1.29,11.06.53,18.09-3.93,1.07-.6,2.22-1.64,3.45-1.9,1.97,0,4.06,0,6.03,0,10.62,0,21.26,0,31.88,0"/><path class="b" d="M9.41,39.15c4,0,8.06,0,12.06,0,1.39,0,2.92,0,4.31,0,1.41-.27,2.89-.94,4.31-1.19,2.81-.62,5.76-.63,8.62-.84,4.01-.26,8.08-.54,12.06-1.09,6.39-.83,12.73-2.18,18.95-3.81,2.27-.59,4.63-1.22,6.89-1.81,1.64-.55,3.45-.7,5.17-.61,9.18.04,18.39-.09,27.57.05,4.62,1.34,9.16,3.09,13.78,4.38,8.64,2.42,11.36,2.21,18.95-2.8.75-.5,1.78-1.22,2.58-1.63,2.26,0,4.63,0,6.89,0,10.33,0,20.68,0,31.02,0"/><path class="b" d="M9.41,36.98c4,0,8.06,0,12.06,0,4.08-1.78,8.42-3.33,12.92-3.22,8.68.24,17.39-.91,25.85-2.8,2.87-.65,5.79-1.43,8.62-2.23,1.08-.31,2.37-.68,3.45-1,1.07-.17,2.37-.08,3.45-.1,12.06,0,24.13,0,36.18,0,1.08,0,2.37,0,3.45,0,2.33.65,4.62,1.76,6.89,2.58,10.71,4.19,12.83,4.18,22.4-2.58h37.91"/><path class="b" d="M9.41,34.82c2.55-.04,5.21.1,7.75-.07,3.83-1.85,7.88-3.44,12.06-4.3,3.4-.69,6.92-.08,10.34.07,2.57.04,5.21-.32,7.75-.6,4.93-.61,9.85-1.6,14.65-2.87,1.99-.45,4.02-1.27,6.03-1.58,1.97,0,4.06,0,6.03,0,13.78,0,27.58,0,41.35,0,1.38,0,2.93,0,4.31,0,1.43.46,2.93,1.23,4.31,1.81,9.55,4.45,11.92,4.48,20.68-1.81h37.91"/><path class="b" d="M9.41,32.65c1.09,0,2.36,0,3.45,0,1.69-.77,3.46-1.7,5.17-2.44,3.56-1.59,7.35-2.85,11.2-3.47,3.43-.65,6.93.15,10.34.5,2.27.19,4.64-.06,6.89-.38,5.53-.74,11.02-1.98,16.37-3.54,2.84-.05,5.77,0,8.62-.02,15.5,0,31.02,0,46.52,0,1.67.07,3.52-.17,5.17.16,1.08.5,2.37,1.12,3.45,1.64,7.9,4.31,10.96,3.12,18.09-1.8h37.91"/><path class="b" d="M9.41,30.37c7.96-3.97,16.69-8.41,25.85-7.12,2.25.37,4.59.9,6.89.88,2.59.04,5.22-.47,7.75-.95,2.87-.56,5.8-1.26,8.62-2.03,3.71-.06,7.49,0,11.2-.02,8.61,0,17.24,0,25.85,0,9.47,0,18.96,0,28.43,0,1.52.06,2.94,1.2,4.31,1.78,2.35,1.29,5.01,2.5,7.75,2.2,2.86-.32,5.46-1.94,7.75-3.58,1.25-.72,2.93-.28,4.31-.39,11.48,0,22.98,0,34.46,0"/><path class="b" d="M9.41,26.52c7.96-3.91,16.76-7.91,25.85-6.58,5.04,1.17,9.58,1.54,14.65.2,1.69-.34,3.47-.91,5.17-1.18,4.29,0,8.63,0,12.92,0,9.47,0,18.96,0,28.43,0,9.47,0,18.96,0,28.43,0,1.2-.09,2.39.81,3.45,1.26,1.88.98,3.9,2.06,6.03,2.33,2.39.35,4.85-.48,6.89-1.67,1.11-.55,2.2-1.71,3.45-1.93,12.63,0,25.28,0,37.91,0"/><path class="b" d="M9.41,22.96c7.02-3.27,14.48-6.63,22.4-6.15,1.09,0,2.36,0,3.45.01,1.98.32,4.03.89,6.03,1.06,3.16.32,6.42-.04,9.48-.86,1.63-.45,3.5-.13,5.17-.22,15.79,0,31.6,0,47.39,0,7.17,0,14.37,0,21.54,0,3.01.53,5.61,2.68,8.62,3.3,2.64.67,5.46-.11,7.75-1.47,1.11-.51,2.17-1.8,3.45-1.83,12.63,0,25.28,0,37.91,0"/><path class="b" d="M9.41,19.72c4.45-1.99,9.03-3.87,13.78-4.99,5.43-.21,10.93-.1,16.37-.05,1.95.33,4.05.46,6.03.33,1.39-.06,2.91-.44,4.31-.38,4.29,0,8.63,0,12.92,0,14.93,0,29.87,0,44.8,0,5.44.05,10.93-.1,16.37.06,3.65,1.32,7.26,3.39,11.2,3.64,2.11.05,4.24-.77,6.03-1.84.79-.48,1.85-1.2,2.58-1.76.4-.07,1.31-.12,1.72-.1,12.34,0,24.7,0,37.05,0"/><path class="b" d="M9.41,16.55c3.64-1.55,7.39-3.01,11.2-4.07,5.15-.03,10.35,0,15.51-.01,11.48,0,22.98,0,34.46,0,16.65,0,33.32,0,49.97,0,1.51-.13,2.93,1.02,4.31,1.49,3.55,1.36,7.31,3.07,11.2,2.59,2.89-.38,5.49-2.06,7.75-3.81,1.31-.51,2.93-.19,4.31-.27,11.48,0,22.98,0,34.46,0"/><path class="b" d="M9.41,13.32c2.81-1.07,5.67-2.4,8.62-3.01,1.39,0,2.92,0,4.31,0,6.02,0,12.07,0,18.09,0,16.08,0,32.17,0,48.25,0,9.76,0,19.54,0,29.29,0,.83-.07,1.93.07,2.58.65,1.05.63,2.34,1.33,3.45,1.85,8.68,4.03,13.2,3.63,20.68-2.5h37.91"/><path class="b" d="M9.41,10.03c1.67-.65,3.46-1.37,5.17-1.89,2.56,0,5.2,0,7.75,0,5.73,0,11.5,0,17.23,0,17.23,0,34.47,0,51.69,0,5.73,0,11.5,0,17.23,0,1.97,0,4.06,0,6.03,0,1.09.05,2.45-.21,3.45.33,4.73,3.33,10.35,6.81,16.37,6.18,4.43-.65,7.74-4,11.2-6.51h37.05"/></svg>