<?xml version="1.0" encoding="UTF-8"?><svg id="a" xmlns="http://www.w3.org/2000/svg" width="1920" height="2400" viewBox="0 0 192 240"><defs><style>.b{fill:none;stroke:#fff;stroke-miterlimit:10;stroke-width:.3px;}.c{stroke-width:0px;}</style></defs><rect class="c" x="0" width="192" height="240"/><path class="b" d="M8.31,227.31c26.46,0,52.93,0,79.4,0,3.47.02,7-.04,10.47.02,1.38.31,2.95.56,4.36.66,1.7.13,3.55.06,5.24-.18,1.4-.23,2.93-.64,4.36-.51,14.25,0,28.51,0,42.75,0,5.8,0,11.65,0,17.45,0,3.71,1.04,7.5,2.09,11.34,2.47"/><path class="b" d="M8.31,225.12c28.21,0,56.42,0,84.63,0,1.4,0,2.96-.03,4.36.03.77.22,1.83.49,2.62.65,2.84.6,5.86.73,8.73.27,1.42-.19,2.95-.71,4.36-.95,3.47,0,7,0,10.47,0,7.55,0,15.13,0,22.69,0,9.01,0,18.04,0,27.05,0,1.44.02,2.95.75,4.36,1.02,1.97.49,4.09.9,6.11,1.14"/><path class="b" d="M8.31,222.93c24.43,0,48.86,0,73.29,0,4.93,0,9.9,0,14.83,0,3.61,1.27,7.51,2.08,11.34,1.69,2.36-.22,4.76-.86,6.98-1.67,1.09-.02,2.4-.01,3.49-.01,9.01,0,18.04,0,27.05,0,9.01,0,18.04,0,27.05,0,1.09.01,2.41-.05,3.49.07,2.54.74,5.23,1.35,7.85,1.7"/><path class="b" d="M8.31,220.73c20.06,0,40.14,0,60.2,0,9.01,0,18.04,0,27.05,0,3.35,1.23,6.86,2.4,10.47,2.4,2.33.03,4.75-.37,6.98-1.03,1.43-.35,2.9-1.18,4.36-1.37,9.01,0,18.04,0,27.05,0,7.55,0,15.13,0,22.68,0,3.47,0,7,0,10.47,0,1.97.52,4.09.98,6.11,1.27"/><path class="b" d="M8.31,218.54c20.65,0,41.3,0,61.95,0,8.13,0,16.3,0,24.43,0,3.91,1.5,7.93,3.2,12.22,3.09,4.27.06,8.29-1.62,12.21-3.09,7.26,0,14.55,0,21.81,0,8.72,0,17.46,0,26.18,0,3.17,0,6.42,0,9.6,0,1.08,0,2.4,0,3.49.01,1.08.25,2.4.5,3.49.67"/><path class="b" d="M8.31,216.35c19.19,0,38.39,0,57.59,0,8.42,0,16.88,0,25.3,0,1.1.04,2.44-.16,3.49.25,2.21,1.1,4.59,2.14,6.98,2.79,3.97,1.14,8.28.96,12.21-.26,1.43-.43,2.99-1.02,4.36-1.61,1.09-.38,2.29-1.32,3.49-1.17,6.39,0,12.81,0,19.19,0,14.25,0,28.51,0,42.75,0"/><path class="b" d="M8.31,214.16c19.19,0,38.39,0,57.59,0,8.72,0,17.46,0,26.18,0,1.23-.17,2.45.63,3.49,1.16,1.93.98,4.03,1.91,6.11,2.53,4.24,1.33,8.89,1.1,13.09-.29,1.74-.55,3.57-1.3,5.24-2.06,1.09-.42,2.28-1.33,3.49-1.34,6.39,0,12.81,0,19.2,0,13.66,0,27.34,0,41.01,0"/><path class="b" d="M8.31,211.96c18.9,0,37.81,0,56.71,0,8.72,0,17.46,0,26.18,0,1.59-.18,2.99,1.12,4.36,1.74,1.93,1.01,4.03,1.98,6.11,2.63,4.52,1.51,9.5,1.2,13.96-.36,2.99-1,5.92-2.41,8.72-3.82,2.25-.43,4.7-.09,6.98-.19,4.05,0,8.16,0,12.22,0,13.37,0,26.76,0,40.14,0"/><path class="b" d="M8.31,209.77c18.61,0,37.23,0,55.84,0,9.01,0,18.04,0,27.05,0,3.41,1.8,6.74,3.98,10.47,5.1,4.81,1.64,10.11,1.23,14.83-.5,3.29-1.15,6.5-2.74,9.6-4.33.73-.35,1.83-.28,2.62-.27,1.4,0,2.97,0,4.36,0,3.76,0,7.58,0,11.34,0,13.08,0,26.18,0,39.26,0"/><path class="b" d="M8.31,207.58c18.61,0,37.23,0,55.84,0,8.71.07,17.47-.13,26.18.08,3.31,2.1,6.76,4.2,10.47,5.51,5.34,2.01,11.31,1.57,16.58-.45,3.59-1.3,7.07-3.06,10.47-4.8.71-.42,1.82-.34,2.62-.33,1.09,0,2.4,0,3.49,0,3.76,0,7.58,0,11.34,0,12.79,0,25.6,0,38.39,0"/><path class="b" d="M8.31,205.38c18.32,0,36.65,0,54.97,0,8.42,0,16.88,0,25.3,0,4.01,2.18,7.79,5.03,12.22,6.41,5.66,2.03,11.93,1.32,17.45-.82,3.88-1.45,7.65-3.35,11.34-5.22.7-.45,1.82-.37,2.62-.36,1.09,0,2.4,0,3.49,0,3.47,0,7,0,10.47,0,12.5,0,25.02,0,37.52,0"/><path class="b" d="M8.31,203.19c18.03,0,36.07,0,54.1,0,5.51,0,11.07,0,16.58,0,1.7,0,3.54,0,5.23,0,1.1.05,2.45-.18,3.49.28,3.83,2.58,7.82,5.17,12.22,6.69,5.93,2.19,12.5,1.44,18.32-.73,3.26-1.16,6.48-2.66,9.6-4.17,1.69-.65,3.37-2.14,5.24-2.06,3.76,0,7.58,0,11.34,0,13.08,0,26.18,0,39.26,0"/><path class="b" d="M8.31,201c17.74,0,35.49,0,53.22,0,5.22,0,10.49,0,15.71,0,1.7,0,3.54,0,5.23,0,1.1.05,2.46-.19,3.49.31,3.84,2.64,7.83,5.29,12.22,6.95,6.44,2.6,13.67,1.85,20.07-.5,3.55-1.24,7.06-2.81,10.47-4.41,1.71-.74,3.45-1.82,5.24-2.34,1.09,0,2.4,0,3.49,0,15.41,0,30.83,0,46.24,0"/><path class="b" d="M8.31,198.81h75.04c3.97,2.53,7.83,5.42,12.22,7.23,11.17,5.13,22.74.33,33.16-4.34,2-.9,4.12-1.87,6.11-2.79,2.87-.24,5.85-.04,8.72-.1,13.37,0,26.76,0,40.14,0"/><path class="b" d="M8.31,196.61c17.45,0,34.9,0,52.35,0,4.64,0,9.32,0,13.96,0,2,0,4.11,0,6.11,0,1.26.32,2.4,1.45,3.49,2.12,3.54,2.42,7.29,4.72,11.34,6.18,1.37.48,2.93.93,4.36,1.18,1.7,0,3.54,0,5.24,0,1.7-.03,3.54.07,5.23-.07,2.33-.42,4.73-1.07,6.98-1.8,4.43-1.45,8.8-3.26,13.09-5.09,1.09-.47,2.4-1.04,3.49-1.52,1.05-.46,2.3-1.14,3.49-1,15.41,0,30.83,0,46.24,0"/><path class="b" d="M8.31,194.42c16.86,0,33.74,0,50.61,0,4.34,0,8.74,0,13.09,0,2,0,4.11,0,6.11,0,1.27.29,2.4,1.45,3.49,2.11,3.55,2.44,7.3,4.78,11.34,6.31,1.07.39,2.37.83,3.49,1.05,2.29,0,4.69,0,6.98,0,2.29,0,4.69,0,6.98,0,2.02-.42,4.14-1,6.11-1.61,4.71-1.48,9.37-3.3,13.96-5.13,2.32-.82,4.6-2.14,6.98-2.73,15.41,0,30.83,0,46.24,0"/><path class="b" d="M8.31,192.23c16.57,0,33.16,0,49.73,0,3.76,0,7.58,0,11.34,0,1.4,0,2.96,0,4.36,0,.84-.01,1.92-.11,2.62.46,4.38,3.12,8.91,6.24,13.96,8.16.77.29,1.83.64,2.62.86.78,0,1.84,0,2.62,0,2,0,4.11,0,6.11,0,2.59,0,5.27,0,7.85,0,1.73-.31,3.55-.85,5.24-1.34,7.68-2.33,15.22-5.19,22.68-8.14,15.41,0,30.83,0,46.24,0"/><path class="b" d="M8.31,190.03c15.99,0,32,0,47.99,0,5.22,0,10.49,0,15.71,0,.53.03,1.36.49,1.75.83,1.09.77,2.38,1.68,3.49,2.42,3.01,2.03,6.22,3.95,9.6,5.29.77.3,1.83.68,2.62.92.78,0,1.84,0,2.62,0,2.29,0,4.69,0,6.98,0,2.88,0,5.84,0,8.73,0,1.72-.32,3.55-.86,5.23-1.34,8.23-2.4,16.34-5.36,24.43-8.14,15.41,0,30.83,0,46.24,0"/><path class="b" d="M8.31,187.84c15.41,0,30.83,0,46.24,0,4.64,0,9.32,0,13.96,0,.55,0,1.35.42,1.75.77,1.09.76,2.39,1.67,3.49,2.41,3.02,2.04,6.22,3.99,9.6,5.38.77.31,1.82.71,2.62.91.78,0,1.84,0,2.62,0,2.29,0,4.69,0,6.98,0,3.17,0,6.42,0,9.6,0,1.42-.28,2.97-.72,4.36-1.11,9.06-2.6,18.05-5.65,27.05-8.37,15.7,0,31.42,0,47.12,0"/><path class="b" d="M8.31,185.65c15.41,0,30.83,0,46.24,0,3.47,0,7,0,10.47,0,1.9.6,3.52,2.24,5.23,3.24,3.03,2.03,6.22,3.99,9.6,5.39.76.31,1.8.74,2.62.85.78,0,1.84,0,2.62,0,2.29,0,4.69,0,6.98,0,3.17,0,6.42,0,9.6,0,1.42-.27,2.97-.73,4.36-1.12,9.57-2.8,19.12-6.05,28.79-8.35,16.28,0,32.58,0,48.86,0"/><path class="b" d="M8.31,183.46h53.22c4.07,2.45,7.95,5.36,12.22,7.49,1.36.68,2.92,1.36,4.36,1.87,1.09.2,2.39.1,3.49.12,5.51-.09,11.08.17,16.58-.11,6.17-1.62,12.2-3.84,18.32-5.63,4.6-1.37,9.3-2.57,13.96-3.69,1.99-.1,4.11-.02,6.11-.04,15.7,0,31.42,0,47.11,0"/><path class="b" d="M8.31,181.26c15.12,0,30.25,0,45.37,0,1.1,0,2.39,0,3.49,0,1.53.48,2.98,1.6,4.36,2.39,3.38,2.1,6.82,4.31,10.47,5.92,1.35.56,2.86,1.31,4.36,1.17,2.29,0,4.69,0,6.98,0,2.29,0,4.69,0,6.98,0,.78,0,1.84,0,2.62,0,1.12-.18,2.4-.6,3.49-.92,6.71-2.09,13.29-4.67,20.07-6.56,1.69-.48,3.53-.96,5.24-1.38,1.08-.23,2.37-.7,3.49-.61,19.48,0,38.98,0,58.46,0"/><path class="b" d="M8.31,179.07c14.25,0,28.51,0,42.75,0,.79,0,1.85-.05,2.62.17,1.75.81,3.57,1.82,5.24,2.78,3.12,1.8,6.28,3.72,9.6,5.15,1.07.46,2.37.95,3.49,1.29,2.58.18,5.27.03,7.85.08,2.59,0,5.27,0,7.85,0,1.44-.17,2.98-.71,4.36-1.11,5.59-1.74,11.05-3.97,16.58-5.88,2.56-.89,5.23-1.77,7.85-2.48,1.4,0,2.97,0,4.36,0,20.94,0,41.88,0,62.82,0"/><path class="b" d="M8.31,176.88c13.66,0,27.34,0,41.01,0,5.82,1.91,10.86,5.73,16.58,7.91,1.65.64,3.48,1.25,5.23,1.56,1.7,0,3.54,0,5.24,0,2,0,4.11,0,6.11,0,1.72-.31,3.56-.77,5.24-1.27,5.04-1.5,9.94-3.55,14.83-5.46,2.58-.89,5.17-2.25,7.85-2.75,4.64,0,9.32,0,13.96,0,19.77,0,39.56,0,59.33,0"/><path class="b" d="M8.31,174.68c12.79,0,25.6,0,38.39,0,6.09,1.8,11.4,5.73,17.45,7.71,6.74,2.51,14.19,2.04,20.94-.15,6.26-1.94,12.25-4.73,18.32-7.17,1.01-.57,2.38-.35,3.49-.38,1.7,0,3.54,0,5.23,0,4.93,0,9.9,0,14.83,0,18.9,0,37.81,0,56.71,0"/><path class="b" d="M8.31,172.49c12.5,0,25.02-.02,37.52,0,5.28,2.23,10.27,5.25,15.71,7.13,6.74,2.5,14.2,2.11,20.94-.17,5.68-1.82,11.11-4.42,16.58-6.78,1.07-.32,2.39-.16,3.49-.19,2,0,4.11,0,6.11,0,5.51,0,11.07,0,16.58,0,19.48,0,38.98,0,58.46,0"/><path class="b" d="M8.31,170.3c11.92,0,23.85,0,35.77,0,.88-.02,1.85.59,2.62.95,1.1.54,2.39,1.2,3.49,1.76,3.1,1.56,6.3,3.13,9.6,4.22,6.19,2.18,13.01,1.91,19.2-.13,5.41-1.7,10.56-4.25,15.71-6.61,1.37-.36,2.96-.13,4.36-.19,2,0,4.11,0,6.11,0,6.39,0,12.81,0,19.19,0,12.79,0,25.6,0,38.39,0,4.34,0,8.74,0,13.09,0,1.69,0,3.54,0,5.23,0,.78,0,1.89-.08,2.62.27"/><path class="b" d="M8.31,168.11c11.34,0,22.69,0,34.03,0,.9-.16,1.86.46,2.62.84.79.4,1.83.96,2.62,1.37,2.54,1.32,5.19,2.67,7.85,3.74,6.33,2.71,13.53,3.06,20.07.9,5.15-1.58,10.01-4.07,14.83-6.43.97-.68,2.37-.36,3.49-.43,1.7,0,3.54,0,5.23,0,5.51,0,11.07,0,16.58,0,9.3,0,18.62,0,27.92,0,7.84,0,15.72,0,23.56,0,3.75.09,7.61-.2,11.34.13,1.7.79,3.54,1.66,5.23,2.47"/><path class="b" d="M8.31,165.91c10.75,0,21.53,0,32.28,0,1.85.31,3.53,1.69,5.24,2.45,2.54,1.34,5.18,2.7,7.85,3.76,7.12,3.03,14.72,2.75,21.81-.21,4.19-1.65,8.22-3.83,12.22-5.92,9.58-.22,19.21,0,28.79-.08,8.72,0,17.46,0,26.18,0,8.13,0,16.3,0,24.43,0,2.29,0,4.69,0,6.98,0,3.22,1.48,6.43,3.17,9.6,4.76"/><path class="b" d="M8.31,163.72c6.68,0,13.39,0,20.07,0,2.29,0,4.69,0,6.98,0,1.12.06,2.51-.25,3.49.42,4.9,2.39,9.64,5.3,14.83,7.04,8.15,2.94,16.18.79,23.56-3.15,2.63-1.34,5.28-2.86,7.85-4.3,3.17-.02,6.42,0,9.6,0,7.55,0,15.13,0,22.68,0,8.72,0,17.46,0,26.18,0,9.01,0,18.04,0,27.05,0,1.84.38,3.54,1.67,5.24,2.45,2.59,1.38,5.27,2.83,7.85,4.22"/><path class="b" d="M8.31,161.53c5.8,0,11.65,0,17.45,0,1.7,0,3.53,0,5.24,0,.79,0,1.83,0,2.62,0,.46.21,1.3.65,1.75.88,5.83,2.53,11.32,6,17.45,7.8,3.08.98,6.41.88,9.6.74,4.33-.61,8.41-2.47,12.21-4.55,1.72-.94,3.55-2.03,5.24-3.04,1.34-.72,2.73-2.03,4.36-1.83,19.19,0,38.39,0,57.59,0,9.01,0,18.04,0,27.05,0,5.1,2.39,9.89,5.54,14.83,8.24"/><path class="b" d="M8.31,159.33c6.97,0,13.97,0,20.94,0,.58-.04,1.34.36,1.74.75.77.54,1.81,1.23,2.62,1.7,2.19,1.29,4.7,2.18,6.98,3.29,1.98.92,4.08,1.91,6.11,2.72.78.3,1.82.69,2.62.95.78.07,1.83.06,2.62.06,2.88,0,5.84,0,8.72,0,1.75-.01,3.64.21,5.24-.66,4.32-1.77,8.3-4.37,12.22-6.88,1.09-.62,2.24-1.67,3.49-1.94,1.7,0,3.54,0,5.24,0,18.61,0,37.23,0,55.84,0,8.42,0,16.88,0,25.3,0,5.32,2.96,10.47,6.32,15.71,9.42"/><path class="b" d="M8.31,157.14h18.32c2.29,1.71,4.45,3.82,6.98,5.2,3.04,1.67,6.43,2.79,9.6,4.18,4.63.23,9.33.02,13.96.09,2.58-.09,5.29.2,7.85-.15,4.94-2.43,9.39-5.8,13.96-8.84.95-.77,2.36-.42,3.49-.49,1.7,0,3.54,0,5.24,0,4.93,0,9.9,0,14.83,0,16.86,0,33.74,0,50.61,0,4.92.09,9.92-.18,14.83.11,3.22,1.96,6.45,4.06,9.6,6.13,1.08.71,2.4,1.57,3.49,2.27.66.49,1.74,1.13,2.62.96"/><path class="b" d="M8.31,154.95h15.71c3.89,3.66,7.78,7.97,13.09,9.47,4.64,0,9.32,0,13.96,0,4.63-.11,9.36.23,13.96-.14,4.54-2.71,8.72-6.07,13.09-9.04,1.04-.48,2.38-.24,3.49-.29,1.7,0,3.54,0,5.24,0,5.51,0,11.07,0,16.58,0,19.19,0,38.39,0,57.59,0,1.7,0,3.54,0,5.23,0,.8,0,1.91-.09,2.62.37,2.92,1.91,5.87,3.96,8.73,5.96,1.08.76,2.4,1.67,3.49,2.42.58.63,1.8.81,2.62.73"/><path class="b" d="M8.31,152.76c2.88,0,5.84,0,8.72,0,1.1,0,2.39,0,3.49,0,.59-.1,1.28.13,1.74.47,1.82,1.95,7.88,9.38,10.47,9.01,7.26,0,14.55,0,21.81,0,3.17,0,6.42,0,9.6,0,1.91-.73,3.55-2.36,5.23-3.5,2.57-1.93,5.2-3.97,7.85-5.79,1.95-.41,4.12-.1,6.11-.19,3.17,0,6.42,0,9.6,0,15.12,0,30.25,0,45.37,0,9.01,0,18.04,0,27.05,0,1.4.08,3.03-.24,4.36.27,1.72,1.2,3.55,2.53,5.24,3.78,1.7,1.26,3.53,2.63,5.23,3.89.96.74,2.17,1.77,3.49,1.54"/><path class="b" d="M8.31,150.56h11.34c3.05,2.94,5.45,6.7,8.72,9.45,11.91,0,23.86.14,35.77-.05,2.93-2.17,5.82-4.55,8.72-6.74,1.08-.81,2.37-1.75,3.49-2.51.78-.19,1.83-.15,2.62-.15,4.93,0,9.9,0,14.83,0,8.13,0,16.3,0,24.43,0,17.45,0,34.9,0,52.35,0,3.06,1.93,5.84,4.47,8.72,6.65.77.61,1.84,1.44,2.62,2.04.4.39,1.16.83,1.75.78"/><path class="b" d="M8.31,148.37h9.6c2.06,1.64,3.45,4.27,5.24,6.21,1.05,1.04,1.97,2.92,3.49,3.27,2.59,0,5.27,0,7.85,0,9.59,0,19.2,0,28.79,0,2.99-2.12,5.77-4.7,8.72-6.87.78-.58,1.82-1.35,2.62-1.89.42-.38,1.18-.73,1.74-.71,5.8,0,11.65,0,17.45,0,8.13,0,16.3,0,24.43,0,18.03,0,36.07,0,54.1,0,3.93,2.85,7.5,6.29,11.34,9.25"/><path class="b" d="M8.31,146.18c1.7,0,3.54,0,5.23,0,1.1.04,2.44-.15,3.49.23,2.27,2.98,4.54,6.17,6.98,9.01,1.64.46,3.54.13,5.23.23,2.88,0,5.84,0,8.73,0,8.13,0,16.3,0,24.43,0,3.06-2.03,5.72-4.8,8.73-6.93.77-.57,1.82-1.33,2.62-1.87.42-.38,1.18-.71,1.74-.68,6.09,0,12.23,0,18.32,0,8.42,0,16.88,0,25.3,0,18.32,0,36.65,0,54.97,0,3.39,2.44,6.34,5.61,9.6,8.24"/><path class="b" d="M8.31,143.98h6.98c1.47.91,2.41,2.88,3.49,4.19,1.38,1.69,2.58,3.99,4.36,5.29,12.5,0,25.02,0,37.52,0,1.8.2,3.03-1.8,4.36-2.73,1.66-1.43,3.48-2.94,5.23-4.26,1.07-.79,2.36-1.7,3.49-2.4,1.69-.18,3.54-.05,5.24-.09,18.03,0,36.07,0,54.1,0,10.17,0,20.37,0,30.54,0,4.05,0,8.16,0,12.22,0,1.3.64,2.41,2.01,3.49,2.95,1.38,1.31,2.95,2.77,4.36,4.05"/><path class="b" d="M8.31,141.79h6.11c2.11,1.77,3.5,4.59,5.24,6.72,1.54,1.95,1.57,3.02,4.36,2.75,4.34,0,8.74,0,13.09,0,6.97,0,13.97,0,20.94,0,.78,0,1.84,0,2.62,0,1.68-.64,2.94-2.4,4.36-3.46,1.65-1.43,3.46-2.93,5.23-4.2.77-.54,1.82-1.26,2.62-1.74.45-.05,1.3-.08,1.75-.07,11.04,0,22.11,0,33.16,0,15.7,0,31.42,0,47.11,0,6.09,0,12.23,0,18.32,0,1.39,0,2.97,0,4.36,0,.99.35,1.87,1.47,2.62,2.16,1.08,1.07,2.39,2.35,3.49,3.41"/><path class="b" d="M8.31,139.6c1.09,0,2.4,0,3.49,0,.84-.02,1.93-.11,2.62.49,1.43,1.91,2.97,4.1,4.36,6.04.72.91,1.51,2.44,2.62,2.94,8.42,0,16.88,0,25.3,0,2.88,0,5.84,0,8.72,0,1.7-.06,3.56.16,5.24-.15,2.78-2.58,5.64-5.23,8.72-7.44,1.3-.88,2.68-2.14,4.36-1.88,10.17,0,20.37,0,30.54,0,11.04,0,22.11,0,33.15,0,9.59,0,19.2,0,28.79,0,4.34,0,8.74,0,13.09,0,1.74.81,2.94,2.77,4.36,4.02"/><path class="b" d="M8.31,137.41h5.23c2.39,3.03,4.54,6.47,6.98,9.47h39.26c2.95-2.34,5.59-5.23,8.73-7.35,1.32-.78,2.73-2.26,4.36-2.12,9.59,0,19.2,0,28.79,0,10.75,0,21.53,0,32.28,0,10.75,0,21.53,0,32.28,0,3.47,0,7,0,10.47,0,1.39,0,2.97,0,4.36,0,1.02.39,1.87,1.6,2.62,2.34"/><path class="b" d="M8.31,135.21c1.09,0,2.4,0,3.49,0,.48-.08,1.33.11,1.75.35,1.45,1.88,2.98,4.04,4.36,5.98.73.97,1.59,2.45,2.62,3.15,8.42,0,16.88,0,25.3,0,4.63-.1,9.35.2,13.96-.13,2.52-2.38,9.7-9.42,13.09-9.35,7.26,0,14.55,0,21.81,0,9.01,0,18.04,0,27.05,0,20.35,0,40.72,0,61.08,0l.87.59"/><path class="b" d="M8.31,133.02c1.09,0,2.4,0,3.49,0,.5-.09,1.33.13,1.75.41,1.45,1.86,2.99,4,4.36,5.92.73.97,1.59,2.45,2.62,3.15,8.72,0,17.46,0,26.18,0,4.05,0,8.16,0,12.22,0,.62-.05,1.37-.65,1.74-1.11.77-.73,1.82-1.72,2.62-2.42,2.12-1.87,4.48-3.68,6.98-5.02.77-.39,1.71-1.1,2.62-.92,5.8,0,11.65,0,17.45,0,31.12,0,62.24,0,93.36,0"/><path class="b" d="M8.31,130.83c1.69.08,3.58-.2,5.23.19,2.42,2.95,4.57,6.32,6.98,9.28,8.42,0,16.88,0,25.3,0,2.88,0,5.84,0,8.72,0,1.69-.08,3.57.19,5.24-.18,3.13-3.08,6.52-6.13,10.47-8.13,1.05-.54,2.25-1.33,3.49-1.16,7.26,0,14.55,0,21.81,0,9.01,0,18.04,0,27.05,0,20.35,0,40.72,0,61.08,0"/><path class="b" d="M8.31,128.63h5.23c2.03,1.82,3.56,4.44,5.24,6.58.73.9,1.48,2.45,2.62,2.9h38.39c3.22-2.93,6.48-6.07,10.47-7.96,1.36-.6,2.8-1.7,4.36-1.52,6.97,0,13.97,0,20.94,0,9.01,0,18.04,0,27.05,0,20.35,0,40.72,0,61.08,0"/><path class="b" d="M8.31,126.44c2,.01,4.11-.03,6.11.02,2.44,2.9,4.73,6.14,6.98,9.19,1.06.43,2.38.22,3.49.26,2,0,4.11,0,6.11,0,5.51,0,11.07,0,16.58,0,4.05,0,8.16,0,12.22,0,1.04-.12,1.86-1.3,2.62-1.92,1.06-.96,2.34-2.06,3.49-2.91,2.62-1.98,5.7-3.4,8.72-4.64,5.8,0,11.65,0,17.45,0,30.53,0,61.08,0,91.61,0"/><path class="b" d="M8.31,124.25c2.29.04,4.69-.08,6.98.07,2.45,2.87,4.74,6.08,6.98,9.11,1.05.48,2.38.24,3.49.29,2,0,4.11,0,6.11,0,5.51,0,11.07,0,16.58,0,4.05,0,8.16,0,12.22,0,.96-.37,1.86-1.43,2.62-2.08,1.33-1.18,2.87-2.42,4.36-3.4,1.6-1.07,3.47-1.94,5.24-2.68,1.09-.43,2.31-1.16,3.49-1.31,5.51,0,11.07,0,16.58,0,30.24,0,60.5,0,90.74,0"/><path class="b" d="M8.31,122.06h7.85c1.92,1.92,3.59,4.36,5.24,6.52.74.91,1.52,2.43,2.62,2.96h37.52c.93-.43,1.85-1.46,2.62-2.11,1.33-1.16,2.87-2.36,4.36-3.3,1.6-1.03,3.47-1.85,5.24-2.54,1.4-.5,2.88-1.37,4.36-1.53,6.68,0,13.39,0,20.07,0,9.01,0,18.04,0,27.05,0,19.48,0,38.98,0,58.46,0"/><path class="b" d="M8.31,119.86c2,0,4.11,0,6.11,0,1.12.07,2.53-.27,3.49.46,2.47,2.82,4.66,6.08,6.98,9.01,8.72,0,17.46,0,26.18,0,2.59,0,5.26,0,7.85,0,1.4-.12,3.16.37,4.36-.45,1.86-1.74,3.94-3.47,6.11-4.8,1.87-1.18,4.04-2.03,6.11-2.78,1.39-.47,2.9-1.21,4.36-1.43,4.93,0,9.9,0,14.83,0,29.66,0,59.33,0,89,0"/><path class="b" d="M8.31,117.67h10.47c1.93,1.9,3.6,4.33,5.24,6.48.73.92,1.56,2.39,2.62,2.99,9.01,0,18.04,0,27.05,0,15.02-.15,6.2,1.39,17.45-5.58,3.27-1.74,6.93-2.83,10.47-3.89,4.93,0,9.9,0,14.83,0,29.08,0,58.17,0,87.25,0"/><path class="b" d="M8.31,115.48c2.59,0,5.27,0,7.85,0,1.4.05,2.99-.15,4.36.16,2.46,2.8,4.72,5.98,6.98,8.94.73.46,1.8.37,2.62.36,1.09,0,2.4,0,3.49,0,3.17,0,6.42,0,9.6,0,4.64,0,9.32,0,13.96,0,2.58-.09,5.3.21,7.85-.16,5.78-5.57,10.79-7.22,18.32-9.23,3.17-.2,6.42-.03,9.6-.08,7.84,0,15.72,0,23.56,0,2.88.05,5.85-.11,8.72.09,2.88.29,5.85.09,8.73-.09,16.57,0,33.16,0,49.73,0"/><path class="b" d="M8.31,113.28c3.47,0,7,0,10.47,0,3.31-.09,3.2-.13,5.24,2.48,1.74,2.18,3.54,4.6,5.23,6.81,1.66.38,3.54.11,5.24.18,2.59,0,5.27,0,7.85,0,7.84,0,15.72,0,23.56,0,3.08-2.79,6.54-5.35,10.47-6.79,1.96-.72,4.1-1.26,6.11-1.8,1.39-.3,2.92-.89,4.36-.88,7.84,0,15.72,0,23.56,0,2.59.04,5.27-.09,7.85.07,4.31.67,8.72,1.28,13.09.95,2.32-.12,4.69-.66,6.98-1.02,4.64,0,9.32,0,13.96,0,10.46,0,20.95,0,31.41,0"/><path class="b" d="M8.31,111.09h14.83c1.39.86,2.44,2.58,3.49,3.8,1.42,1.8,2.96,3.84,4.36,5.65,11.92.06,23.86,0,35.77.02,1.77-1.17,3.41-2.81,5.24-3.92,2.89-1.91,6.22-3.23,9.6-3.98,2.28-.55,4.67-1.07,6.98-1.49,3.17-.18,6.42-.02,9.6-.08,4.34,0,8.74,0,13.09,0,2.32-.07,4.69.54,6.98.87,5.16.91,10.5,1.52,15.71.64,2.33-.31,4.69-1.03,6.98-1.52,4.64,0,9.32,0,13.96,0,9.59,0,19.2,0,28.79,0"/><path class="b" d="M8.31,108.9h16.58c2.86,2.88,5.11,6.49,7.85,9.47,11.63,0,23.27,0,34.9,0,1.58-.69,2.88-2.24,4.36-3.14,2.38-1.65,5.08-3,7.85-3.85,4.25-1.23,8.7-1.91,13.09-2.46,3.17-.05,6.42,0,9.6-.02,10.27-.61,20.26,4,30.54,2.35,3.25-.43,6.46-1.45,9.6-2.35,3.47,0,7,0,10.47,0,10.17,0,20.37,0,30.54,0"/><path class="b" d="M8.31,106.71c5.8,0,11.65,0,17.45,0,1.49.49,2.44,2.3,3.49,3.39,1.11,1.36,2.41,3.01,3.49,4.41.31.51,1.16,1.46,1.75,1.68,11.34,0,22.69,0,34.03,0,.56-.06,1.37-.61,1.75-1,.76-.61,1.81-1.41,2.62-1.96,2.38-1.63,5.09-2.94,7.85-3.78,7.34-2,15.09-2.72,22.69-2.43,14.49.69,22.5,5.99,37.52.68.78-.26,1.85-.63,2.62-.91,1.39-.16,2.97-.06,4.36-.08,2.88,0,5.84,0,8.72,0,9.01,0,18.04,0,27.05,0"/><path class="b" d="M8.31,104.51c6.38.09,12.83-.19,19.19.11,2.88,2.83,5.36,6.2,7.85,9.36,11.34,0,22.69,0,34.03,0,.6.01,1.35-.47,1.74-.88,1.06-.83,2.35-1.75,3.49-2.45,2.41-1.48,5.12-2.62,7.85-3.36,7.09-1.76,14.53-2.23,21.81-1.89,16.31,1.28,22.23,6.21,39.26-.49,1.59-.72,3.54-.29,5.24-.4,3.17,0,6.42,0,9.6,0,8.42,0,16.88,0,25.3,0"/><path class="b" d="M8.31,102.32c6.39,0,12.81,0,19.19,0,2.23.26,7.06,7.19,8.73,9.16,1.6.63,3.54.19,5.23.31,2.88,0,5.84,0,8.73,0,6.97-.08,13.98.16,20.94-.09,6.09-5.19,13.98-7.22,21.81-7.78,8.17-.86,16.4,0,24.43,1.56,5.74,1.05,11.73,1.52,17.45.13,3.58-.71,7-2.23,10.47-3.29,2.59,0,5.27,0,7.85,0,10.17,0,20.37,0,30.54,0"/><path class="b" d="M8.31,100.13c6.68,0,13.39,0,20.07,0,2.24,1.62,4.32,3.7,6.11,5.81.45.53,1.32,1.6,1.75,2.14.59.93,1.43,1.72,2.62,1.52,11.04-.02,22.11.03,33.16-.02,5.92-4.77,13.48-6.73,20.94-7.34,8.16-.91,16.38-.16,24.43,1.27,5.75.96,11.74,1.34,17.45-.09,2.03-.47,4.14-1.12,6.11-1.82,1.41-.43,2.9-1.26,4.36-1.48,2.88,0,5.84,0,8.72,0,9.88,0,19.78,0,29.67,0"/><path class="b" d="M8.31,97.93c5.8,0,11.65,0,17.45,0,.43,0,1.31,0,1.75,0,.84.35,1.88,1.04,2.62,1.56,3.01,2.1,5.59,4.93,7.85,7.8,11.61.3,23.28,0,34.9.11,5.86-4.23,12.95-6.18,20.07-6.85,8.13-1.02,16.36-.5,24.43.75,5.77.84,11.75,1.13,17.45-.33,3.27-.7,6.41-2.09,9.6-3.05,3.47,0,7,0,10.47,0,9.59,0,19.2,0,28.79,0"/><path class="b" d="M8.31,95.74c5.8.07,11.66-.15,17.45.09,4.31,1.68,8.28,4.42,11.34,7.89,1.11,1.46,1.74,1.59,3.49,1.49,1.4,0,2.96,0,4.36,0,9.59,0,19.2,0,28.79,0,1.8-.62,3.45-1.99,5.24-2.69,2.76-1.26,5.76-2.14,8.72-2.75,6.01-1.18,12.19-1.76,18.32-1.69,4.95.06,9.91.78,14.83,1.21,4.35.36,8.82.26,13.09-.73,2.03-.46,4.14-1.09,6.11-1.76,1.09-.33,2.34-.99,3.49-1.07,3.76,0,7.58,0,11.34,0,9.59,0,19.2,0,28.79,0"/><path class="b" d="M8.31,93.74c1.68-.34,3.54-.14,5.23-.19,2.59,0,5.27,0,7.85,0,6.61,1.15,12.93,4.5,17.45,9.47,12.21,0,24.44,0,36.65,0,.53.03,1.33-.29,1.75-.6,1.07-.59,2.37-1.22,3.49-1.69,2.78-1.17,5.78-2.01,8.73-2.62,6.87-1.39,13.93-2.08,20.94-1.78,6.96.28,14,1.48,20.94.32,2.64-.43,5.32-1.16,7.85-2,1.68-.6,3.41-1.31,5.24-1.1,13.08,0,26.18,0,39.26,0"/><path class="b" d="M8.31,92.44c8.45-1.72,16.78-.11,24.43,3.69,2.22,1.09,4.38,2.6,6.11,4.37,1.3.61,2.96.23,4.36.33,11.92,0,23.86,0,35.77,0,5.18-2.62,10.87-4.14,16.58-5.09,7.48-1.35,15.13-1.42,22.69-.9,4.93.27,9.98.28,14.83-.78,2.94-.63,5.9-1.58,8.72-2.61,4.04-.24,8.17-.02,12.22-.1,9.88,0,19.78,0,29.67,0"/><path class="b" d="M8.31,91.03c6.69-1.36,13.68-.68,20.07,1.71,4.06,1.32,8.12,3.03,11.34,5.9,13.95,0,27.93,0,41.88,0,1.19.14,2.4-.66,3.49-1.04,1.38-.54,2.94-1.07,4.36-1.5,5.1-1.51,10.41-2.5,15.71-2.97,7.54-.74,15.15.3,22.68-.39,3.24-.28,6.5-1.01,9.6-1.96,1.72-.45,3.48-1.32,5.24-1.62,13.66,0,27.34,0,41.01,0"/><path class="b" d="M8.31,89.52c4.29-.86,8.77-1.1,13.09-.32,4.77.92,9.47,2.53,13.96,4.37,1.15.51,2.46,1.24,3.49,1.97.69.65,1.68,1.02,2.62.89,14.54,0,29.09,0,43.63,0,1.18.13,2.43-.26,3.49-.74,1.08-.4,2.39-.84,3.49-1.18,3.97-1.22,8.1-2.11,12.21-2.65,7.51-1.08,15.15-.33,22.68-.99,3.53-.29,7.08-1.05,10.47-2.1,1.1-.34,2.41-.77,3.49-1.15.76-.26,1.79-.75,2.62-.66,13.37,0,26.76,0,40.14,0"/><path class="b" d="M8.31,87.92c10.2-2.41,17.56.13,27.05,3.58,1.14.45,2.44,1.07,3.49,1.71.45.29,1.27.82,1.75,1.04.46,0,1.29,0,1.75,0,15.99,0,32,0,47.99,0,.83,0,1.85-.47,2.62-.73,1.38-.48,2.95-.96,4.36-1.35,3.69-1.01,7.53-1.72,11.34-2.11,6.95-.71,14.02-.29,20.94-1.34,3.24-.48,6.49-1.36,9.6-2.39,1.09-.36,2.41-.82,3.49-1.22.37-.22,1.31-.41,1.74-.34,13.08,0,26.18,0,39.26,0"/><path class="b" d="M8.31,86.25c10.13-2.63,16.68-.54,26.18,2.74,2.1.73,4.26,1.67,6.11,2.92,1.68.31,3.54.09,5.24.15,11.04,0,22.11,0,33.16,0,3.76,0,7.58,0,11.34,0,1.4,0,2.96,0,4.36,0,1.14-.11,2.39-.69,3.49-.99,4.81-1.47,9.83-2.34,14.83-2.73,7.28-.54,14.72-.54,21.81-2.49,3.23-.85,6.47-1.97,9.6-3.15,3.45-.28,7.01-.03,10.47-.11,9.59,0,19.2,0,28.79,0"/><path class="b" d="M8.31,84.51c10.96-3.13,17.62-.91,27.92,2.76,1.79.65,3.58,1.65,5.23,2.6,2.88,0,5.84,0,8.73,0,11.34,0,22.69,0,34.03,0,4.93,0,9.9,0,14.83,0,3.17-.71,6.36-1.78,9.6-2.23,7.21-1.2,14.62-1.14,21.81-2.48,3.54-.66,7.07-1.7,10.47-2.86,1.09-.38,2.41-.85,3.49-1.26.75-.28,1.79-.77,2.62-.64,12.21,0,24.44,0,36.65,0"/><path class="b" d="M8.31,82.73c5.34-1.61,11.06-2.53,16.58-1.36,5.68,1.36,11.54,2.89,16.58,5.93.49.25,1.21.45,1.75.36,1.1,0,2.39,0,3.49,0,2.59,0,5.26,0,7.85,0,12.79,0,25.6,0,38.39,0,3.47,0,7,0,10.47,0,4.07-.79,8.03-1.83,12.22-2.19,6.12-.71,12.34-1.14,18.32-2.69,3.23-.82,6.47-1.87,9.6-3,1.7-.49,3.44-1.65,5.24-1.59,11.63,0,23.27,0,34.9,0"/><path class="b" d="M8.31,80.92c4.77-1.5,9.81-2.69,14.83-2.18,3.25.32,6.48,1.22,9.6,2.15,3.33,1.02,6.68,2.31,9.6,4.24,1.49.67,3.6.21,5.24.34,2.88,0,5.84,0,8.72,0,11.92,0,23.86,0,35.77,0,5.51,0,11.07,0,16.58,0,3.44-.7,6.98-1.28,10.47-1.7,6.16-.75,12.38-1.63,18.32-3.48,2.62-.78,5.3-1.69,7.85-2.65,1.7-.49,3.43-1.7,5.24-1.65,11.04,0,22.11,0,33.15,0"/><path class="b" d="M8.31,79.09c4.5-1.46,9.19-2.79,13.96-2.69,6.87.36,14.17,2.32,20.07,5.93.45.3,1.23.79,1.75.95,1.4,0,2.96,0,4.36,0,2.88,0,5.84,0,8.72,0,12.79,0,25.6,0,38.39,0,5.8,0,11.65,0,17.45,0,2.61.01,5.26-.73,7.85-1.02,6.49-.88,12.97-2.17,19.19-4.23,2.61-.84,5.29-1.79,7.85-2.79,1.4-.43,2.87-1.46,4.36-1.43,10.46,0,20.95,0,31.41,0"/><path class="b" d="M8.31,77.23c4.23-1.4,8.61-2.76,13.09-3.01,6.26-.22,12.65,1.14,18.32,3.8,1.81.81,3.49,2.15,5.24,3.06,3.76,0,7.58,0,11.34,0,14.25,0,28.51,0,42.75,0,4.93,0,9.9,0,14.83,0,3.19-.03,6.47.2,9.6-.52,6.81-1.09,13.55-2.84,20.07-5.09,2.01-.69,4.13-1.48,6.11-2.27,1.4-.49,2.88-1.37,4.36-1.6,9.88,0,19.78,0,29.67,0"/><path class="b" d="M8.31,75.38c4.25-1.39,8.61-2.8,13.09-3.21,8.91-.74,17.21,1.45,24.43,6.73,23.26,0,46.54,0,69.8,0,3.46-.06,7.01.13,10.47-.09,4.4-.86,8.79-2.01,13.09-3.28,5.65-1.63,11.15-3.86,16.58-6.1,9.3,0,18.62,0,27.92,0"/><path class="b" d="M8.31,73.54c13.68-4.67,26.25-6.07,38.39,3.17,24.14,0,48.28,0,72.42,0,3.47,0,7,0,10.47,0,4.09-.96,8.2-2.1,12.22-3.33,5.35-1.65,10.61-3.72,15.71-6.04,8.7-.28,17.46-.01,26.18-.1"/><path class="b" d="M8.31,71.77c11.27-3.43,24.15-6.81,34.9-.11,1.48.79,2.83,2.16,4.36,2.85,2.29,0,4.69,0,6.98,0,24.43,0,48.86,0,73.29,0,1.7-.02,3.54.06,5.24-.06,1.7-.45,3.54-.94,5.23-1.41,4.11-1.14,8.24-2.45,12.22-3.99,2.02-.78,4.13-1.68,6.11-2.57,1.08-.46,2.34-1.17,3.49-1.44.41,0,1.33,0,1.75,0,7.26,0,14.55,0,21.81,0"/><path class="b" d="M8.31,70.13c6.63-1.64,13.23-3.85,20.07-4.4,4.46-.32,9.04.54,13.09,2.45,1.48.7,3.04,1.64,4.36,2.59.79.51,1.63,1.49,2.62,1.54,1.7,0,3.53,0,5.23,0,25.01,0,50.03,0,75.04,0,2.54-.12,5.39.27,7.85-.2,5.3-1.4,10.62-2.96,15.7-5.01,2.02-.81,4.13-1.74,6.11-2.66,1.09-.5,2.38-1.15,3.49-1.6.4,0,1.33,0,1.74,0,6.68,0,13.39,0,20.07,0"/><path class="b" d="M8.31,68.73c15.5-3.76,25.71-9.75,40.14,1.4,26.46,0,52.93,0,79.4,0,3.47,0,7,0,10.47,0,4.13-.89,8.24-2.23,12.22-3.65,4.17-1.53,8.24-3.45,12.21-5.43.98-.64,2.38-.34,3.49-.4,1.39,0,2.97,0,4.36,0,4.34,0,8.74,0,13.09,0"/><path class="b" d="M8.31,67.34c7.03-1.56,13.75-4.57,20.94-5.4,6.87-.79,13.9,1.54,19.2,5.94,27.33.16,54.68,0,82.02.05,3.47,0,7,0,10.47,0,4.15-.87,8.26-2.28,12.22-3.81,3.86-1.53,7.64-3.44,11.34-5.32.7-.44,1.83-.36,2.62-.35,1.39,0,2.97,0,4.36,0,4.05,0,8.16,0,12.22,0"/><path class="b" d="M8.31,65.74c6.51-1.23,12.66-4.08,19.19-5.26,7.31-1.45,15.13.52,20.94,5.17,28.2.27,56.43,0,84.63.09,3.47,0,7,0,10.47,0,4.15-1.07,8.29-2.43,12.21-4.14,3.54-1.53,7.03-3.35,10.47-5.08,1.92-.55,4.12-.13,6.11-.25,3.76,0,7.58,0,11.34,0"/><path class="b" d="M8.31,63.55c.78,0,1.84,0,2.62,0,1.1-.28,2.4-.65,3.49-.97,2.89-.86,5.83-1.86,8.73-2.69,8.66-2.79,17.93-1.92,25.3,3.67,29.08,0,58.17,0,87.25,0,3.17,0,6.42,0,9.6,0,4.79-1.23,9.5-2.96,13.96-5.09,2.89-1.38,5.85-2.85,8.72-4.27,5.2-.32,10.49-.02,15.71-.12"/><path class="b" d="M8.31,61.36c1.4,0,2.96.01,4.36-.01,2.61-.7,5.27-1.56,7.85-2.36,5.32-1.68,10.99-3.07,16.58-2.05,2.7.43,5.43,1.26,7.85,2.52,1.14.54,2.31,1.48,3.49,1.9,1.1,0,2.39,0,3.49,0,29.95,0,59.91,0,89.87,0,1.69-.08,3.58.21,5.24-.2,3.86-1.03,7.69-2.42,11.34-4.05,2.61-1.15,5.25-2.47,7.85-3.64.76-.34,1.86-.81,2.62-1.17,0,0,.87-.42.87-.42h.87c4.34,0,8.74,0,13.09,0"/><path class="b" d="M8.31,59.16c1.7,0,3.53,0,5.23,0,2.04-.42,4.11-1.16,6.11-1.74,5.33-1.65,10.95-3.19,16.58-2.4,2.99.4,6.02,1.21,8.72,2.58.81.4,1.86,1.01,2.62,1.5,1.4.13,2.96.05,4.36.07,30.53,0,61.08,0,91.61,0,3.31.27,6.5-1.03,9.6-2.03,6.21-2.19,12.12-5.23,18.32-7.45,4.05,0,8.16,0,12.21,0"/><path class="b" d="M8.31,56.97c2-.05,4.12.13,6.11-.11,1.41-.39,2.96-.85,4.36-1.26,5.35-1.62,10.94-3.23,16.58-2.61,2.97.33,6,1.06,8.72,2.29,1.13.47,2.32,1.31,3.49,1.69,1.1,0,2.39,0,3.49,0,30.53,0,61.08,0,91.61,0,3.88.14,7.67-1.42,11.34-2.52,3.82-1.29,7.57-2.96,11.34-4.37,2.54-.95,5.27-1.62,7.85-2.43,3.44-.35,7.01-.04,10.47-.14"/><path class="b" d="M8.31,54.78c1.4,0,2.96,0,4.36,0,1.12-.18,2.4-.59,3.49-.89,4.29-1.23,8.63-2.66,13.09-3.13,4.1-.46,8.32.12,12.22,1.43,1.78.61,3.62,1.48,5.24,2.45.78.18,1.83.14,2.62.14,29.37,0,58.75,0,88.12,0,1.4,0,2.97.03,4.36-.03,1.7-.32,3.55-.69,5.24-1.07,6.27-1.35,12.24-3.86,18.32-5.84,5.92-1.64,12.17-2.51,18.32-2.34"/><path class="b" d="M8.31,52.59c1.45.09,2.98-.38,4.36-.73,2.01-.52,4.11-1.15,6.11-1.72,7.26-2.25,14.51-3.27,21.81-.59,2.1.72,4.22,1.77,6.11,2.95,3.16.23,6.43.03,9.6.09,24.72,0,49.45,0,74.16,0,1.99-.03,4.12.08,6.11-.07,1.69-.33,3.54-.65,5.23-.95,5-.85,10-2.04,14.83-3.59,3.44-1.06,6.92-2.31,10.47-2.96,5.49-.84,11.18-.49,16.58.76"/><path class="b" d="M8.31,49.32c11.98-2.81,20.88-7.69,33.15-2.09,1.13.5,2.43,1.18,3.49,1.82.79.44,1.69,1.24,2.62,1.34,4.34,0,8.74,0,13.09,0,21.81,0,43.63,0,65.44,0,1.7-.05,3.55.12,5.24-.12,1.96-.59,4.09-1.06,6.11-1.43,5.24-.92,10.56-1.72,15.71-3.1,4.62-1.15,9.21-2.77,13.96-3.25,5.7-.42,11.39,1.19,16.58,3.42"/><path class="b" d="M8.31,45.08c5.51-1.38,10.91-3.51,16.58-4.18,7.85-1.03,15.64,2.14,21.81,6.82.73.6,1.75.49,2.62.48,1.1,0,2.39,0,3.49,0,3.47,0,7,0,10.47,0,20.06,0,40.14,0,60.2,0,1.09,0,2.4.03,3.49-.04,2.51-1.04,5.19-1.96,7.85-2.52,5.48-1.16,11.11-1.74,16.58-2.98,14.19-3.32,19.06-5.02,32.28,3.23"/><path class="b" d="M8.31,40.11c4.32-1.25,8.63-2.84,13.09-3.58,1.4,0,2.96,0,4.36,0,2.01.05,4.17-.22,6.11.4,5.89,1.6,11.14,5.08,15.71,9.04,20.06.1,40.14,0,60.2.03,5.22,0,10.49.01,15.7,0,1.96-.96,4.07-1.93,6.11-2.7,4.17-1.61,8.68-2.26,13.09-2.88,3.78-.53,7.6-1.18,11.34-1.92,13.62-2.97,18.73-1.63,29.67,7.1"/><path class="b" d="M8.31,34.53c2.74-.45,5.92-.07,8.72-.19,5.51,0,11.07,0,16.58,0,.43,0,1.31,0,1.75,0,1.14.58,2.43,1.4,3.49,2.11,3.1,2.09,6.03,4.61,8.73,7.21,2.26.35,4.69.07,6.98.16,4.34,0,8.74,0,13.09,0,12.5,0,25.02,0,37.52,0,4.05,0,8.16,0,12.22,0,1.09-.02,2.41.08,3.49-.13,1.39-.76,2.95-1.6,4.36-2.31,2.76-1.39,5.71-2.65,8.73-3.38,3.7-.92,7.57-1.31,11.34-1.82,5.51-.63,11-2.07,16.58-1.84,1.7.02,3.54-.06,5.23.05,3.86.75,7.39,2.85,10.47,5.24,1.12.88,2.43,2,3.49,2.96.56.68,1.68,1.41,2.62,1.22"/><path class="b" d="M8.31,32.15c9.3,0,18.62,0,27.92,0,1.75-.17,3.05,1.74,4.36,2.66,2.41,2.07,4.69,4.47,6.98,6.66,2.26.35,4.69.07,6.98.15,4.05,0,8.16,0,12.22,0,11.34,0,22.69,0,34.03,0,4.05,0,8.16,0,12.22,0,1.7,0,3.54,0,5.24,0,.44-.24,1.32-.73,1.75-.99,4.18-2.4,8.42-4.97,13.09-6.28,4.53-1.27,9.31-1.58,13.96-2.15,3.17-.12,6.42-.02,9.6-.05,2.59,0,5.27,0,7.85,0,1.39.05,2.99-.14,4.36.16,4.76,1.89,8.69,5.46,12.22,9.09.75.29,1.83.23,2.62.22"/><path class="b" d="M8.31,29.96h29.67c3.42,2.83,6.19,6.49,9.6,9.34,2.27.3,4.69.06,6.98.13,4.34,0,8.74,0,13.09,0,11.92,0,23.86,0,35.77,0,4.34-.05,8.75.1,13.09-.06,2.01-1.17,4.11-2.47,6.11-3.68,4.3-2.56,8.9-5.21,13.96-5.73,4.93,0,9.9,0,14.83,0,3.76,0,7.58,0,11.34,0,1.4,0,2.97,0,4.36,0,.81,0,1.91-.1,2.62.39,2.89,1.51,5.53,3.67,7.85,5.95,1.11.95,2.1,2.59,3.49,3.14.76,0,1.85,0,2.62,0"/><path class="b" d="M8.31,27.76h29.67c2.63,2.58,4.98,5.63,7.85,7.95,2.02,1.91,2.68,1.5,5.24,1.52,10.17,0,20.37,0,30.54,0,7.26,0,14.55,0,21.81,0,2.59,0,5.27,0,7.85,0,1.4-.11,3.08.3,4.36-.36,3.23-1.87,6.39-4.02,9.6-5.94,2.19-1.19,4.48-2.78,6.98-3.18,2.88,0,5.84,0,8.72,0,5.22,0,10.49,0,15.71,0,4.05,0,8.16,0,12.22,0,4.48,2.14,7.96,5.94,11.34,9.47h3.49"/><path class="b" d="M8.31,25.57h28.79c2.66,2.37,4.86,5.44,7.85,7.47,2.56,1.84,2.95,2.17,6.11,2.01,10.17,0,20.37,0,30.54,0,7.26,0,14.55,0,21.81,0,2.29,0,4.69,0,6.98,0,1.74-.07,3.76.36,5.24-.79,2.95-1.73,5.84-3.72,8.72-5.56,1.94-1.08,3.9-2.72,6.11-3.12,3.76,0,7.58,0,11.34,0,4.93,0,9.9,0,14.83,0,4.05.08,8.18-.17,12.22.11,2.51,1.4,4.89,3.27,6.98,5.24,1.47,1.24,2.72,3.12,4.36,4.12h3.49"/><path class="b" d="M8.31,23.38c6.09,0,12.23,0,18.32,0,2,0,4.11,0,6.11,0,1.1.04,2.43-.14,3.49.22,3.55,3.98,7.82,7.85,13.09,9.26,2,0,4.11,0,6.11,0,8.42,0,16.88,0,25.3,0,7.55,0,15.13,0,22.69,0,2.59,0,5.27,0,7.85,0,.78,0,1.84,0,2.62,0,1.21-.33,2.42-1.24,3.49-1.86,4.08-2.48,7.88-5.58,12.21-7.61,5.8,0,11.65,0,17.45,0,6.97.02,13.97-.03,20.94.02,3.19,1.68,6.12,4,8.73,6.48,3.28,3.18,2.17,3.07,6.98,2.97"/><path class="b" d="M8.31,21.18c6.09,0,12.23,0,18.32,0,10.03.22,5.06-1.38,12.21,4.36,5.39,4.31,12.48,5.39,19.2,5.11,4.34,0,8.74,0,13.09,0,13.37,0,26.76,0,40.14,0,1.09,0,2.4,0,3.49,0,1.53-.54,2.99-1.67,4.36-2.51,3.44-2.24,6.8-4.79,10.47-6.67.72-.38,1.83-.3,2.62-.3,1.4,0,2.97,0,4.36,0,4.34,0,8.74,0,13.09,0,5.51,0,11.07,0,16.58,0,1.9.35,3.62,1.72,5.24,2.71,2.8,1.92,5.43,4.28,7.85,6.66,1.39.19,2.96.07,4.36.1"/><path class="b" d="M8.31,18.99c6.97,0,13.97,0,20.94,0,.84,0,1.9-.1,2.62.41,1.29,1.38,2.77,2.87,4.36,3.9,3.37,2.23,7.3,3.71,11.34,3.97,3.76.28,7.58-.08,11.34.11,2.92.04,5.84.76,8.72,1.07,8.72,0,17.46,0,26.18,0,4.93,0,9.9,0,14.83,0,2.29,0,4.69,0,6.98,0,1.28.19,2.45-.96,3.49-1.55,4.26-2.74,8.32-6.05,13.09-7.87,6.09-.15,12.23,0,18.32-.06,3.17,0,6.42,0,9.6,0,1.39,0,2.97,0,4.36,0,1.14.37,2.43.99,3.49,1.54,3.1,1.62,6.04,3.73,8.73,5.96.73.61,1.74,1.57,2.62,1.97,1.39,0,2.97,0,4.36,0"/><path class="b" d="M8.31,16.8c4.34,0,8.74,0,13.09,0,2.29.07,4.71-.17,6.98.13,3.11,3.4,5.73,6.43,10.47,7.4,6.03,1.74,12.23,0,18.32-.3,4.44-.22,8.89.7,13.09,2.07,2.26.39,4.69.08,6.98.17,13.66,0,27.34,0,41.01,0,1.29-.05,2.41-1.25,3.49-1.86,2.26-1.52,4.6-3.16,6.98-4.48,2.7-1.45,5.7-2.62,8.72-3.13,2.59,0,5.27,0,7.85,0,5.22.05,10.49-.1,15.71.06,6.45,1.72,12.19,5.4,17.45,9.41h5.23"/><path class="b" d="M8.31,14.61c3.47,0,7,0,10.47,0,1.99.08,4.14-.18,6.11.15,3.26,3.13,5.98,7.47,10.47,8.92,1.95.6,4.1.36,6.11.4,3.26.08,6.46-1.04,9.6-1.78,4.81-1.34,9.98-1.8,14.83-.41,1.43.37,2.98.9,4.36,1.42.78.28,1.77.78,2.62.78,5.51,0,11.07,0,16.58,0,6.97,0,13.97,0,20.94,0,2.29,0,4.69,0,6.98,0,1.4-.09,3.04.24,4.36-.28,4.09-2.76,8.29-5.59,13.09-6.96,9.31-2.68,19.54-3.08,28.79.05,4.62,1.55,8.98,3.95,13.09,6.54.6.62,1.8.7,2.62.64,1.39,0,2.97,0,4.36,0"/><path class="b" d="M8.31,12.41c4.05,0,8.16,0,12.22,0,1.39.46,2.43,2.01,3.49,2.96,1.71,1.76,3.51,3.7,5.23,5.44.44.48,1.08,1.01,1.75,1.07,1.1,0,2.39,0,3.49,0,4.34,0,8.74,0,13.09,0,1.79-.2,3.51-1.32,5.23-1.84,4.14-1.62,8.79-2.06,13.09-.78,2.38.62,4.71,1.71,6.98,2.62,5.8,0,11.65,0,17.45,0,7.26,0,14.55,0,21.81,0,2.59,0,5.27,0,7.85,0,1.4-.08,3.02.21,4.36-.24,11.13-7.83,26.39-9.42,39.26-5.48,4.54,1.4,8.89,3.48,13.09,5.67,2.29.12,4.69.02,6.98.05"/><path class="b" d="M8.31,10.22c1.7,0,3.53,0,5.23,0,1.1.04,2.42-.13,3.49.19,3.5,2.56,6.58,5.77,9.6,8.86,1.25.77,2.96.3,4.36.42,2.59,0,5.26,0,7.85,0,4.05,0,8.16,0,12.22,0,1.49-.28,2.92-1.28,4.36-1.75,2.19-.85,4.62-1.37,6.98-1.29,3.7.05,7.1,1.73,10.47,3.04,2,0,4.11,0,6.11,0,15.12,0,30.25,0,45.37,0,.77,0,1.85,0,2.62,0,.77-.42,1.84-1.03,2.62-1.43,2.2-1.11,4.62-2.03,6.98-2.72,8.77-2.55,18.26-2.54,27.05-.1,4.17,1.07,8.18,2.82,12.21,4.26,2.59,0,5.27,0,7.85,0"/></svg>