<?xml version="1.0" encoding="UTF-8"?><svg id="a" xmlns="http://www.w3.org/2000/svg" width="1920" height="2400" viewBox="0 0 192 240"><defs><style>.b{fill:none;stroke:#fff;stroke-miterlimit:10;stroke-width:.3px;}.c{stroke-width:0px;}</style></defs><rect class="c" x="0" width="192" height="240"/><path class="b" d="M9.31,225.32c5.42,2.29,11.03,4.21,16.39,6.63,6.31.13,12.66,0,18.98.05,15.23,0,30.48,0,45.72,0,4.58,0,9.22,0,13.8,0,1.66-.56,2.92-2.26,4.31-3.29,2.43-2.1,5.06-4.16,7.76-5.92,1.94-.35,4.07-.08,6.04-.16,3.43,0,6.92,0,10.35,0,10.06,0,20.14,0,30.19,0,2.89-.19,5.77.54,8.63.87,3.7.45,7.49.64,11.21.6"/><path class="b" d="M9.31,222.23c5.09,2.6,10.38,4.92,15.53,7.41,1.06.33,2.36.16,3.45.2,1.97,0,4.06,0,6.04,0,5.45,0,10.94,0,16.39,0,18.11-.06,36.24.12,54.35-.06,2.8-2.35,5.63-4.83,8.63-6.92,1.35-.79,2.71-2.21,4.31-2.38,6.03,0,12.09,0,18.12,0,8.91,0,17.84,0,26.74,0,2.57.18,5.19.88,7.76,1.09,3.99.47,8.06.64,12.08.57"/><path class="b" d="M9.31,219.08c3.39,2,6.89,3.96,10.35,5.83,1.68.9,3.47,1.9,5.18,2.75,1.09,0,2.36,0,3.45,0,14.08,0,28.18,0,42.27,0,11.21,0,22.44,0,33.64,0,.96.2,1.92-.61,2.59-1.2.76-.63,1.82-1.49,2.59-2.11,2.42-1.95,5.06-3.83,7.76-5.38,1.47-1.07,3.48-.59,5.18-.68,2.85,0,5.78,0,8.63,0,7.75,0,15.54,0,23.29,0,2.26,0,4.64,0,6.9,0,2.26.42,4.62.82,6.9,1.1,4.84.62,9.78.82,14.66.67"/><path class="b" d="M9.31,216.13c1.21.39,2.37,1.39,3.45,2.04,1.67,1.09,3.49,2.26,5.18,3.33,2.26,1.29,4.46,3.08,6.9,4,4.3,0,8.64,0,12.94,0,7.47,0,14.96,0,22.43,0,9.77,0,19.56,0,29.33,0,5.44-.1,10.96.21,16.39-.13,4.29-3.47,8.75-6.95,13.8-9.24,5.16,0,10.37,0,15.53,0,7.47,0,14.96,0,22.43,0,3.44.31,6.9,1.17,10.35,1.43,4.85.51,9.79.6,14.66.4"/><path class="b" d="M9.31,213.96h1.73c3.14,2.26,6.31,4.63,9.49,6.84,1.08.75,2.35,1.63,3.45,2.35,1.07.29,2.36.14,3.45.17,12.65,0,25.31,0,37.96,0,13.22,0,26.46,0,39.68,0,.91.16,1.94-.41,2.59-1.02.76-.58,1.81-1.37,2.59-1.94,2.95-2.17,6.15-4.15,9.49-5.64.41-.19,1.3-.56,1.73-.73,1.08-.08,2.37-.04,3.45-.05,1.97,0,4.07,0,6.04,0,6.6,0,13.24,0,19.84,0,1.38,0,2.93,0,4.31,0,3.12.54,6.34,1.05,9.49,1.4,6,.68,12.09.76,18.12.41"/><path class="b" d="M9.31,211.79c.79,0,1.81,0,2.59,0,1.57.73,2.93,2.19,4.31,3.21,1.67,1.35,3.47,2.8,5.18,4.11,1.07.66,2.11,2.05,3.45,2.05,16.39,0,32.78,0,49.17,0,7.47,0,14.96,0,22.43,0,2.27,0,4.63,0,6.9,0,1.8-.06,3.77.4,5.18-1.02,4.97-3.56,10.38-6.92,16.39-8.35,8.62,0,17.26,0,25.88,0,10.53,1.81,21.25,2.68,31.92,1.76"/><path class="b" d="M9.31,209.63c4.37-.06,3.66-.28,6.9,2.63,2.53,2.23,5.13,4.56,7.76,6.67,25.29.2,50.61,0,75.91.07,1.68,0,3.5,0,5.18,0,1.09-.04,2.4.14,3.45-.21,1.64-1.12,3.46-2.27,5.18-3.27,5.03-2.94,10.63-4.98,16.39-5.88,4.58-.03,9.22,0,13.8,0,3.73.33,7.49.91,11.21,1.33,9.15,1.17,18.43,1.21,27.6.33"/><path class="b" d="M9.31,207.46c1.08,0,2.37,0,3.45,0,.49-.09,1.31.13,1.73.41,3.14,2.94,6.25,6.06,9.49,8.89,25.87.21,51.76,0,77.64.07,2.56,0,5.21,0,7.76,0,1.76-.71,3.45-1.95,5.18-2.77,5.1-2.68,10.69-4.5,16.39-5.37,8.6-1.21,17.28.36,25.88.93,8.61.7,17.3.31,25.88-.63"/><path class="b" d="M9.31,205.29h5.18c3.34,2.63,6.25,6.4,9.49,9.26,26.15.29,52.34,0,78.5.1,1.97,0,4.06,0,6.04,0,1.41-.03,3.08.22,4.31-.63,5.94-3.02,12.38-5.15,18.98-6.15,8.58-1.19,17.27.06,25.88.24,8.36.29,16.73-.43,25.02-1.46"/><path class="b" d="M9.31,203.12c1.97,0,4.06,0,6.04,0,2.87,3.02,5.69,6.26,8.63,9.21,3.4.37,6.93.05,10.35.15,6.03,0,12.09,0,18.12,0,17.25,0,34.51,0,51.76,0,3.42-.1,6.96.22,10.35-.15,5.52-2.32,11.35-4.02,17.25-5.06,8.55-1.36,17.26-.55,25.88-.72,8.38-.07,16.73-1.09,25.02-2.24"/><path class="b" d="M9.31,200.95c1.38,0,2.93,0,4.31,0,.82-.01,1.9-.1,2.59.43,2.57,2.86,5.12,5.92,7.76,8.73,1.35.39,2.93.14,4.31.21,2.27,0,4.63,0,6.9,0,6.89,0,13.81,0,20.7,0,19.84,0,39.68,0,59.52,0,1.09,0,2.42.08,3.45-.36,1.67-.52,3.49-1.04,5.18-1.48,4.52-1.18,9.14-2.18,13.8-2.56,7.45-.64,14.97-.51,22.43-1.1,7.51-.54,14.99-1.74,22.43-2.86"/><path class="b" d="M9.31,198.79h6.9c2.57,2.98,5.13,6.16,7.76,9.09,1.32.51,2.93.19,4.31.27,2.56,0,5.2,0,7.76,0,6.89,0,13.81,0,20.7,0,20.41,0,40.83,0,61.25,0,1.38,0,2.93,0,4.31,0,1.39-.28,2.93-.67,4.31-.97,3.68-.86,7.46-1.58,11.21-1.99,7.45-.83,14.99-1.13,22.43-2.05,7.51-.88,14.97-2.32,22.43-3.53"/><path class="b" d="M9.31,196.62h6.9c.96.62,1.86,1.93,2.59,2.79,1.67,2.04,3.44,4.26,5.18,6.24,1.29.62,2.93.23,4.31.33,10.34,0,20.71,0,31.05,0,11.49,0,23.01,0,34.51,0,10.92,0,21.86,0,32.78,0,1.41.09,2.94-.32,4.31-.58,1.67-.31,3.49-.6,5.18-.83,6.01-.82,12.1-1.37,18.11-2.22,9.55-1.27,18.98-3.45,28.47-5.1"/><path class="b" d="M9.31,194.45c2.27,0,4.63,0,6.9,0,1.49.59,2.37,2.56,3.45,3.68,1.08,1.34,2.35,2.94,3.45,4.27.41.55,1.05,1.25,1.73,1.42,4.87,0,9.79,0,14.66,0,18.4,0,36.81,0,55.21,0,8.62,0,17.26,0,25.88,0,5.45-.14,10.98.38,16.39-.42,7.21-.86,14.45-1.83,21.57-3.31,8.06-1.62,16.06-3.72,24.15-5.17"/><path class="b" d="M9.31,192.28c1.38,0,2.93,0,4.31,0,1.09.04,2.41-.15,3.45.23,1.67,2.15,3.46,4.47,5.18,6.59,1.53,1.79,1.71,2.81,4.31,2.55,3.43,0,6.92,0,10.35,0,10.06,0,20.14,0,30.19,0,15.52,0,31.06,0,46.58,0,6.03,0,12.09,0,18.12,0,4.6,0,9.26.18,13.8-.66,12.58-1.77,24.62-6.1,37.09-8.41"/><path class="b" d="M9.31,190.11c2.55.07,5.22-.16,7.76.12,1.67,2.16,3.44,4.52,5.18,6.64.72.82,1.56,2.15,2.59,2.61,6.03,0,12.09,0,18.11,0,2.85,0,5.78,0,8.63,0,1.09-.15,2.34-.47,3.45-.44,1.11,0,2.36.3,3.45.44,1.98,0,4.06,0,6.04,0,4.87,0,9.79,0,14.66,0,13.22,0,26.46,0,39.68,0,6.03,0,12.09,0,18.11,0,4.01-.07,8.12.3,12.08-.57,11.4-2.1,22.24-6.58,33.64-8.67"/><path class="b" d="M9.31,187.95c2.56.05,5.21-.11,7.76.08,2.55,3.03,4.7,6.76,7.76,9.28,7.75,0,15.54,0,23.29,0,.88.16,1.83-.45,2.59-.8,1.32-.57,2.87-.95,4.31-.97,1.42-.02,2.97.28,4.31.71,1.11.29,2.28,1.1,3.45,1.05,4.87,0,9.79,0,14.66,0,12.07,0,24.16,0,36.23,0,7.75,0,15.54,0,23.29,0,2.56,0,5.21,0,7.76,0,1.99.05,4.09-.01,6.04-.48,10.84-2.18,20.99-7.08,31.92-8.89"/><path class="b" d="M9.31,185.78c2.55.07,5.22-.15,7.76.11,2.55,3.05,4.78,6.61,7.76,9.26,6.89,0,13.81,0,20.7,0,1.66.26,2.92-1.2,4.31-1.85,4.08-2.35,8.87-1.46,12.94.43,1.09.44,2.31,1.13,3.45,1.41,2.85,0,5.78,0,8.63,0,6.6,0,13.24,0,19.84,0,6.6-.07,13.25.14,19.84-.08,4.25-.75,8.62-1.26,12.94-1.11,3.74.1,7.5.73,11.21,1.11,2.26.19,4.64.04,6.9.08,2.89.14,5.83-.35,8.63-1.05,6.45-1.61,12.63-4.25,18.98-6.18,3.09-.82,6.26-2.13,9.49-2.13"/><path class="b" d="M9.31,183.61c2.55.11,5.25-.25,7.76.19,2.55,3.02,4.93,6.38,7.76,9.15,6.6.08,13.24,0,19.84.03,8.23-6.7,12.3-6.11,21.57-1.87,1.37.6,2.91,1.26,4.31,1.79,1.97.17,4.06.04,6.04.08,9.48,0,18.99,0,28.47,0,5.14-1.05,10.28-2.44,15.53-2.92,3.42-.34,6.95-.26,10.35.3,5.43.88,10.84,2.45,16.39,2.32,8.47-.11,16.26-3.96,24.15-6.59,3.64-1.12,7.34-2.74,11.21-2.47"/><path class="b" d="M9.31,181.44c1.68,0,3.5,0,5.18,0,.79,0,1.86-.08,2.59.29,2.57,2.87,4.95,6.1,7.76,8.75,1.29.61,2.93.23,4.31.33,1.98,0,4.06,0,6.04,0,2.27,0,4.63,0,6.9,0,1.25-.56,2.37-1.77,3.45-2.58,2.04-1.67,4.34-3.31,6.9-4.06,7.13-2.04,14.71,3.86,21.57,5.67,1.07.33,2.36.67,3.45.91,1.97.15,4.06.04,6.04.07,4.3,0,8.64.02,12.94-.01,7.83-1.29,15.4-4.03,23.29-5.04,3.41-.44,6.97-.43,10.35.23,6.3,1.29,12.47,3.77,18.98,3.7,7.57-.02,14.56-3.39,21.57-5.87,2.53-.86,5.14-1.86,7.76-2.38,1.38,0,2.93,0,4.31,0"/><path class="b" d="M9.31,179.27c2.27,0,4.63,0,6.9,0,1.42.51,2.39,2.18,3.45,3.19,1.88,2.07,3.83,4.33,6.04,6.06,1.96.25,4.07.06,6.04.12,2.56-.03,5.21.07,7.76-.06,3.53-2.47,6.53-5.81,10.35-7.86,5.33-3.06,11.32-.62,16.39,1.76,3.88,1.77,7.9,3.48,12.08,4.41,11.78,2.88,23.22-1.2,34.5-4.2,14.54-3.82,16.97-.98,30.19,2.66,4.78,1.23,9.88,1.35,14.66.1,6.18-1.57,12.01-4.36,18.12-6.17,2.26-.05,4.64,0,6.9-.02"/><path class="b" d="M9.31,177.11c9.64.03,6.02-.94,12.94,5.53,1.54,1.41,3.2,3.07,5.18,3.84,1.09,0,2.36,0,3.45,0,4.69.06,4.82.33,8.63-2.61,2.6-2.06,5.06-4.47,7.76-6.4,1.27-.66,2.93-.25,4.31-.36,2.56,0,5.21,0,7.76,0,1.68.09,3.54-.22,5.18.21,2.55,1.22,5.16,2.56,7.76,3.66,15.7,7.02,27.92.9,43.13-3.31,2.2-.75,4.61-.55,6.9-.56,2.85,0,5.78-.01,8.63,0,4.69,1.21,9.09,3.48,13.8,4.6,4.21,1.05,8.68,1.27,12.94.36,5.34-1.06,10.33-3.44,15.53-4.97,3.14,0,6.35,0,9.49,0"/><path class="b" d="M9.31,174.94c2.27,0,4.63,0,6.9,0,1.58.78,2.94,2.28,4.31,3.37,2.55,2.12,5.23,4.69,8.63,5.25,6.1.31,10.32-5.14,14.66-8.61,8.04,0,16.11,0,24.15,0,6.94,3.63,13.52,6.46,21.57,5.64,7.14-.7,13.96-3.28,20.7-5.61,5.45-.07,10.94,0,16.39-.03,3.72,0,7.5,0,11.21,0,1.15.13,2.37.81,3.45,1.19,1.93.75,4.01,1.45,6.04,1.85,3.67.72,7.53.8,11.21.09,3.83-.6,7.47-2.27,11.21-3.13,4.29,0,8.64,0,12.94,0"/><path class="b" d="M9.31,172.77c2.27,0,4.63,0,6.9,0,1.85.74,3.49,2.26,5.18,3.31,9.5,6.6,11.44,2.65,18.98-3.31,10.06,0,20.14,0,30.19,0,1.73.33,3.46,1.74,5.18,2.33,2.45,1.05,5.12,1.81,7.76,2.09,5.26.58,10.54-.71,15.53-2.27,2-.62,4.07-1.44,6.04-2.15,1.38,0,2.93,0,4.31,0,11.49,0,23.01,0,34.51,0,1.44-.13,2.93.53,4.31.82,1.94.43,4.05.58,6.04.58,1.99,0,4.09-.23,6.04-.61,1.39-.19,2.9-.84,4.31-.79,6.03,0,12.09,0,18.12,0"/><path class="b" d="M9.31,170.6c2.55.09,5.23-.19,7.76.14,7.91,4.09,12.55,7.12,19.84-.14,11.78,0,23.58,0,35.37,0,1.84-.1,3.45,1.4,5.18,1.89,2.72,1.04,5.71,1.56,8.63,1.46,3.21-.11,6.43-.85,9.49-1.79,1.09-.34,2.38-.8,3.45-1.21.43-.23,1.24-.42,1.73-.34,7.18,0,14.39,0,21.57,0,20.12,0,40.26,0,60.38,0"/><path class="b" d="M9.31,168.43c2.85.06,5.79-.14,8.63.1,3.29,1.12,6.83,2.35,10.35,1.8,1.14-.18,2.43-.64,3.45-1.17.46-.28,1.2-.66,1.73-.73,3.14,0,6.35,0,9.49,0,7.47,0,14.96,0,22.43,0,3.43.04,6.93-.09,10.35.06,2.4,1.14,5.1,1.87,7.76,1.96,3.51.14,7.04-.71,10.35-1.82,1.63-.42,3.5-.12,5.18-.21,27.89,0,55.79,0,83.67,0"/><path class="b" d="M9.31,166.27c15.23,0,30.48,0,45.72,0,6.03,0,12.09,0,18.12,0,1.68,0,3.5,0,5.18,0,1.37.3,2.91.57,4.31.58,2,.05,4.07-.34,6.04-.58,1.08,0,2.37,0,3.45,0,9.48,0,18.99,0,28.47,0,20.7,0,41.41,0,62.11,0"/><path class="b" d="M9.31,164.1h173.39"/><path class="b" d="M9.31,161.93h173.39"/><path class="b" d="M9.31,159.76h173.39"/><path class="b" d="M9.31,157.59c29.61,0,59.24,0,88.85,0,13.8,0,27.61,0,41.41,0,6.6,0,13.24,0,19.84,0,7.94-.18,16.24.22,23.29,4.28"/><path class="b" d="M9.31,155.43c26.45,0,52.91,0,79.36,0,12.36,0,24.73,0,37.09,0,7.18,0,14.39,0,21.57,0,1.42.07,2.92.66,4.31.92,1.96.44,4.05.83,6.04,1.13,8.76,1.19,17.31,2.18,25.02,6.94"/><path class="b" d="M9.31,153.26c42.84,0,85.69,0,128.53,0,2.56.03,5.21-.07,7.76.05,1.07.38,2.37.82,3.45,1.18,5.08,1.72,10.34,2.98,15.53,4.29,3.8.97,7.62,2.14,11.21,3.72,2.24.29,4.64.06,6.9.13"/><path class="b" d="M9.31,151.09c41.12,0,82.23.03,123.36,0,2.56,0,5.21,0,7.76,0,1.67.08,3.54-.21,5.18.2,2.55,1,5.19,2.04,7.76,2.98,5.71,2.12,11.59,3.89,17.25,6.16,4,.07,8.07,0,12.08.03"/><path class="b" d="M9.31,148.92c14.08,0,28.18,0,42.27,0,6.6,0,13.24,0,19.84,0,1.67.25,3.49.35,5.18.32,7.46-.4,14.96-.34,22.43-.32,11.49,0,23.01,0,34.51,0,4.29.09,8.66-.18,12.94.12,3.43,1.44,6.91,2.93,10.35,4.34,4.02,1.6,8.05,3.33,12.08,4.91,4.58,0,9.22,0,13.8,0"/><path class="b" d="M9.31,146.75c13.8,0,27.61,0,41.41,0,6.31,0,12.66,0,18.98,0,1.68.06,3.48.43,5.18.3,7.74-.49,15.53-.24,23.29-.3,12.36,0,24.73,0,37.09,0,4.29,0,8.64,0,12.94,0,2.03.7,4.06,1.75,6.04,2.58,5.17,2.24,10.33,4.62,15.53,6.79,4.29,0,8.64,0,12.94,0"/><path class="b" d="M9.31,144.59c39.97,0,79.93,0,119.9,0,4.87,0,9.79,0,14.66,0,1.68,0,3.5,0,5.18,0,.76,0,1.83-.03,2.59.08.4.19,1.31.57,1.73.76,6.31,2.79,12.64,5.61,18.98,8.34,1.35.35,2.93.13,4.31.19,1.97,0,4.07,0,6.04,0"/><path class="b" d="M9.31,142.42c29.33,0,58.66,0,87.99,0,17.25,0,34.51,0,51.76,0,1.97,0,4.07,0,6.04,0,2.91.99,5.76,2.4,8.63,3.53,3.41,1.41,6.89,2.84,10.35,4.12,1.66.61,3.48,1.22,5.18,1.71,1.07.03,2.38.01,3.45.02"/><path class="b" d="M9.31,140.7c3.98-.65,8.06-.42,12.08-.45,5.74,0,11.51,0,17.25,0,17.25,0,34.51,0,51.76,0,14.37,0,28.76,0,43.13,0,8.9.03,17.84-.05,26.74.03,7.33,2.65,14.65,5.81,22.43,6.82"/><path class="b" d="M9.31,139.31c2-.25,4.09-.68,6.04-1.23,2.85,0,5.78,0,8.63,0,6.89,0,13.81,0,20.7,0,19.55,0,39.11,0,58.66,0,19.55,0,39.11,0,58.66,0,1.38,0,2.93,0,4.31,0,1.42.16,2.93.78,4.31,1.12,3.93,1.08,7.99,2.1,12.08,2.33"/><path class="b" d="M9.31,137.75c2.61-.38,5.2-1.25,7.76-1.84,6.31,0,12.66,0,18.98,0,13.22,0,26.46,0,39.68,0,22.71,0,45.43,0,68.15,0,7.75,0,15.54,0,23.29,0,5.16.02,10.37-.12,15.53.24"/><path class="b" d="M9.31,136.07c2.92-.52,5.74-1.77,8.63-2.33,5.74,0,11.51,0,17.25,0,12.65,0,25.31,0,37.96,0,36.52,0,73.04,0,109.55,0"/><path class="b" d="M9.31,134.32c2.91-.71,5.75-1.91,8.63-2.74,5.74,0,11.51,0,17.25,0,12.65,0,25.31,0,37.96,0,36.52,0,73.04,0,109.55,0"/><path class="b" d="M9.31,132.52c2.9-.89,5.78-2.08,8.63-3.11,5.74,0,11.51,0,17.25,0,12.65,0,25.31,0,37.96,0,36.52,0,73.04,0,109.55,0"/><path class="b" d="M9.31,130.72c2-.7,4.08-1.55,6.04-2.36,1.09-.38,2.28-1.13,3.45-1.12,2.56,0,5.2,0,7.76,0,8.04,0,16.11,0,24.15,0,14.08,0,28.18,0,42.27,0,29.9,0,59.81,0,89.71,0"/><path class="b" d="M9.31,128.94c10.97-4.38,6.13-3.92,18.11-3.87,8.04,0,16.11,0,24.15,0,13.8,0,27.61,0,41.41,0,29.9,0,59.81,0,89.71,0"/><path class="b" d="M9.31,127.2c2-.84,4.07-1.81,6.04-2.71,1.38-.51,2.81-1.57,4.31-1.58,2.27,0,4.63,0,6.9,0,8.33,0,16.69,0,25.02,0,13.8,0,27.61,0,41.41,0,29.9,0,59.81,0,89.71,0"/><path class="b" d="M9.31,125.49c3.45-1.53,6.86-3.33,10.35-4.76,1.39,0,2.93,0,4.31,0,9.19,0,18.41,0,27.6,0,13.8,0,27.61,0,41.41,0,29.9,0,59.81,0,89.71,0"/><path class="b" d="M9.31,123.83c2.57-1.2,5.19-2.53,7.76-3.74,1.08-.5,2.35-1.09,3.45-1.53.78,0,1.81,0,2.59,0,9.77,0,19.56,0,29.33,0,13.8,0,27.61,0,41.41,0,29.61,0,59.24,0,88.85,0"/><path class="b" d="M9.31,122.21c2.57-1.23,5.19-2.57,7.76-3.79,1.66-.66,3.37-1.86,5.18-2.02,10.06,0,20.14,0,30.19,0,13.8,0,27.61,0,41.41,0,29.61,0,59.24,0,88.85,0"/><path class="b" d="M9.31,120.62c4.57-2.14,9.03-4.73,13.8-6.38,10.06,0,20.14,0,30.19,0,13.8,0,27.61,0,41.41,0,29.33,0,58.66,0,87.99,0"/><path class="b" d="M9.31,119.03c3.43-1.65,6.88-3.43,10.35-4.99,1.67-.66,3.39-1.69,5.18-1.97,10.06,0,20.14,0,30.19,0,3.14,0,6.35,0,9.49,0,1.95.4,4.04.75,6.04.76,2,.05,4.09-.31,6.04-.76,5.45,0,10.94,0,16.39,0,29.9,0,59.81,0,89.71,0"/><path class="b" d="M9.31,117.44c5.4-2.59,10.78-5.35,16.39-7.46,10.33-.22,20.71,0,31.05-.08,2.27.04,4.64-.09,6.9.07,2.78.83,5.71,1.51,8.63,1.53,2.95.12,5.82-.85,8.63-1.6,3.14,0,6.35,0,9.49,0,30.76,0,61.54,0,92.3,0"/><path class="b" d="M9.31,115.81c5.96-2.82,11.91-5.8,18.11-8.06,10.63-.06,21.29,0,31.92-.02,1.08,0,2.37,0,3.45,0,2.8.92,5.69,1.9,8.63,2.27,2.86.39,5.87.1,8.63-.73,2.05-.56,3.83-1.82,6.04-1.53,32.2,0,64.41,0,96.61,0"/><path class="b" d="M9.31,114.13c6.52-3.02,13-6.31,19.84-8.57,11.21.05,22.44-.11,33.64.06,6.88,2.71,13.54,4.66,20.7,1.61,1.43-.43,2.81-1.62,4.31-1.67,3.14,0,6.35,0,9.49,0,7.47,0,14.96,0,22.43,0,20.99,0,41.98,0,62.97,0"/><path class="b" d="M9.31,112.33c4.85-2.25,9.7-4.59,14.66-6.58,2.25-.81,4.54-1.96,6.9-2.36,1.39,0,2.93,0,4.31,0,6.31,0,12.66,0,18.98,0,2.27,0,4.63,0,6.9,0,1.5-.19,2.96.53,4.31,1.07,5.68,2.35,12.11,4.11,18.11,1.89,2.07-.7,4.15-1.74,6.04-2.83,3.11-.32,6.36-.04,9.49-.13,7.18,0,14.39,0,21.57,0,20.7,0,41.41,0,62.11,0"/><path class="b" d="M9.31,110.41c7.06-3.26,14.13-6.66,21.57-8.98,1.34-.4,2.93-.14,4.31-.21,2.27,0,4.63,0,6.9,0,6.31,0,12.66,0,18.98,0,.42,0,1.3,0,1.73,0,.43.17,1.3.51,1.73.68,1.67.68,3.48,1.43,5.18,2.06,8.46,3.37,14.92,2.17,22.43-2.73,11.78-.03,23.58,0,35.37-.01,4.87,0,9.79,0,14.66,0,2.25.39,4.62.69,6.9.67,2.59.11,5.21-.54,7.76-.67,8.62,0,17.26,0,25.88,0"/><path class="b" d="M9.31,108.42c7.61-3.46,15.2-7.17,23.29-9.37,4.01,0,8.07,0,12.08,0,4.58,0,9.22,0,13.8,0,1.39,0,2.93,0,4.31,0,2.05.56,4.06,1.62,6.04,2.38,5.37,2.35,11.53,4.03,17.25,1.92,1.76-.6,3.57-1.48,5.18-2.41,1.1-.57,2.24-1.57,3.45-1.89,7.75,0,15.54,0,23.29,0,6.89,0,13.81,0,20.7,0,3.94.92,8,1.74,12.08,1.49,3.2-.04,6.38-.87,9.49-1.49,7.47,0,14.96,0,22.43,0"/><path class="b" d="M9.31,106.25c2.95-.95,5.75-2.59,8.63-3.76,5.02-2.23,10.19-4.28,15.53-5.61,3.72,0,7.5,0,11.21,0,6.03,0,12.09,0,18.12,0,1.16.08,2.38.78,3.45,1.19,1.68.72,3.48,1.52,5.18,2.21,5.12,2.23,11.04,3.44,16.39,1.3,2.09-.77,4.16-1.91,6.04-3.09,1.05-.57,2.17-1.79,3.45-1.6,8.33,0,16.69,0,25.02,0,5.16,0,10.37,0,15.53,0,4.94,1.75,10.31,2.37,15.53,1.87,2-.19,4.1-.56,6.04-1.06,1.08-.23,2.33-.81,3.45-.81,6.6,0,13.24,0,19.84,0"/><path class="b" d="M9.31,104.09c1.19.05,2.37-.82,3.45-1.23,1.38-.63,2.93-1.33,4.31-1.96,4.75-2.13,9.63-4.17,14.66-5.52,1.65-.55,3.44-.76,5.18-.65,1.97,0,4.06,0,6.04,0,6.31,0,12.66,0,18.98,0,1.5-.2,2.97.5,4.31,1.09,1.98.85,4.05,1.8,6.04,2.64,10.5,4.72,16.86,2.72,25.88-3.73,12.93,0,25.88,0,38.82,0,1.73-.03,3.46.99,5.18,1.25,2.8.64,5.75.96,8.63.94,4.4.03,8.75-.94,12.94-2.19,6.31,0,12.66,0,18.98,0"/><path class="b" d="M9.31,101.92c1.19.15,2.41-.48,3.45-.97,1.39-.63,2.93-1.33,4.31-1.95,4.21-1.88,8.51-3.73,12.94-5.06,1.66-.5,3.48-.96,5.18-1.33,2.84-.16,5.78-.02,8.63-.07,5.74,0,11.52,0,17.25,0,.77,0,1.82,0,2.59,0,.77.29,1.83.71,2.59,1.03,1.99.84,4.06,1.8,6.04,2.67,11.34,5.35,17.81,3.54,27.6-3.68,12.93-.06,25.88,0,38.82-.02,1.72.11,3.46.94,5.18,1.18,2.53.5,5.19.75,7.76.75,2.58,0,5.24-.28,7.76-.79,1.71-.24,3.46-1.08,5.18-1.13,6.03,0,12.09,0,18.12,0"/><path class="b" d="M9.31,99.75c.79,0,1.82.06,2.59-.19.79-.34,1.81-.8,2.59-1.14,1.97-.88,4.05-1.81,6.04-2.66,5.51-2.45,11.31-4.3,17.25-5.37,8.04,0,16.11,0,24.15,0,1.51-.19,2.95.38,4.31.95,2.3.91,4.64,1.98,6.9,2.97,5.6,2.6,12.1,4.51,18.12,2.16,3.75-1.35,7.13-3.68,10.35-5.98,6.3-.28,12.67-.02,18.98-.11,7.18,0,14.39,0,21.57,0,3.13.45,6.3,1.24,9.49,1.23,2.57.07,5.23-.11,7.76-.52,1.39-.16,2.91-.76,4.31-.71,6.31,0,12.66,0,18.98,0"/><path class="b" d="M9.31,97.58c1.09-.02,2.37.06,3.45-.09,2.27-.96,4.63-1.99,6.9-2.96,5-2.15,10.16-4.11,15.53-5.12,1.98-.38,4.08-.71,6.04-1.16,4.29-.07,8.64,0,12.94-.03,2.85,0,5.78,0,8.63,0,3.9.67,7.56,2.59,11.21,4.04,5.89,2.64,12.69,4.64,18.98,2.14,2.41-.87,4.76-2.2,6.9-3.6,1.41-.77,2.72-2.24,4.31-2.59,8.33,0,16.69,0,25.02,0,8.33.06,16.7-.19,25.02.21,9.47-.4,18.99-.15,28.47-.21"/><path class="b" d="M9.31,95.41c1.39,0,2.93,0,4.31,0,1.72-.59,3.49-1.4,5.18-2.07,3.66-1.51,7.4-3.02,11.21-4.11,3.92-1.19,8.06-1.59,12.08-2.31,1.68-.32,3.49-.63,5.18-.86,2.56-.05,5.21,0,7.76-.02,2.27.01,4.63-.03,6.9.03,4.15.7,8.18,2.17,12.08,3.72,6.22,2.55,13.16,5,19.84,2.75,4.08-1.27,7.73-3.69,11.21-6.11.98-.62,2.35-.32,3.45-.38,1.68,0,3.5,0,5.18,0,5.45,0,10.94,0,16.39,0,17.54,0,35.08,0,52.62,0"/><path class="b" d="M9.31,93.25c1.97-.07,4.09.16,6.04-.14,4.57-1.7,9.11-3.63,13.8-4.98,3.91-1.16,8.03-1.63,12.08-2.03,3.43-.46,6.9-1.15,10.35-1.48,6.65-.73,13.47-.19,19.84,1.89,15.88,5.48,21.52,7.71,36.23-2.64h75.05"/><path class="b" d="M9.31,91.08c2.27-.02,4.63.04,6.9-.03,4.83-1.64,9.66-3.53,14.66-4.58,5.37-1.26,10.98-.92,16.39-1.93,10.87-1.91,19.59-1.87,30.19,1.46,6.65,1.99,13.85,4,20.7,1.73,4.03-1.24,7.71-3.5,11.21-5.79,1.04-.36,2.37-.18,3.45-.22,1.68,0,3.5,0,5.18,0,4.87,0,9.79,0,14.66,0,16.67,0,33.36,0,50.03,0"/><path class="b" d="M9.31,88.91c2.56,0,5.2,0,7.76,0,5.67-1.61,11.37-3.43,17.25-4.04,3.7-.46,7.5-.17,11.21-.5,4.31-.51,8.62-1.39,12.94-1.85,7.81-.85,15.7.14,23.29,2.02,6.18,1.47,12.79,2.61,18.98.58,4.01-1.21,7.65-3.44,11.21-5.57,7.47,0,14.96,0,22.43,0,16.1,0,32.21,0,48.31,0"/><path class="b" d="M9.31,86.74c3.14-.05,6.36.12,9.49-.08,3.13-.69,6.33-1.43,9.49-1.97,3.11-.54,6.33-.88,9.49-.9,2.56-.01,5.2.24,7.76.21,6.68-.24,13.17-2.37,19.84-2.69,7.52-.67,15.04.35,22.43,1.66,5.42.91,11.13,1.1,16.39-.73,2.36-.78,4.72-1.9,6.9-3.09,1.08-.55,2.27-1.44,3.45-1.77,7.18,0,14.39,0,21.57,0,15.52,0,31.06,0,46.58,0"/><path class="b" d="M9.31,84.57c3.72,0,7.5,0,11.21,0,4.28-.59,8.61-1.32,12.94-1.54,5.76-.53,11.51,1.13,17.25.43,5.52-.61,10.88-2.37,16.39-3.04,7.44-1.07,14.99-1.04,22.43.02,6.63.92,13.58,1,19.84-1.68,1.41-.56,2.96-1.28,4.31-1.98,1.08-.5,2.26-1.39,3.45-1.6,6.89,0,13.81,0,20.7,0,14.95,0,29.91,0,44.86,0"/><path class="b" d="M9.31,82.41c5.45,0,10.94,0,16.39,0,2.85-.17,5.77-.4,8.63-.39,2.28-.04,4.64.19,6.9.39,4.87,0,9.79,0,14.66,0,1.43.12,2.95-.24,4.31-.64,1.98-.52,4.05-1.12,6.04-1.61,4.53-1.04,9.18-1.81,13.8-2.28,15.38-1.13,22.49,3.99,37.96-4.15.97-.66,2.31-.78,3.45-.7,1.68,0,3.5,0,5.18,0,4.87,0,9.79,0,14.66,0,13.8,0,27.61,0,41.41,0"/><path class="b" d="M9.31,80.24c13.8,0,27.61,0,41.41,0,4.87,0,9.79,0,14.66,0,4.81-1.45,9.73-2.75,14.66-3.73,16.53-3.32,24.2,3.39,41.41-5.21.96-.65,2.35-.38,3.45-.43,1.38,0,2.93,0,4.31,0,4.58,0,9.22,0,13.8,0,13.22,0,26.46,0,39.68,0"/><path class="b" d="M9.31,77.63c2.82.58,5.77.43,8.63.44,3.72,0,7.5,0,11.21,0,10.92,0,21.86,0,32.78,0,3.14,0,6.35,0,9.49,0,1.37-.47,2.92-.94,4.31-1.33,10.51-3.36,15.73-4.05,26.74-3.31,4.91.24,9.93-.07,14.66-1.49,2.01-.58,4.1-1.36,6.04-2.16.76-.32,1.82-.77,2.59-1.08.42,0,1.31,0,1.73,0,18.4,0,36.81,0,55.21,0"/><path class="b" d="M9.31,74.71c2.54.5,5.15,1.34,7.76,1.2,4.58,0,9.22,0,13.8,0,11.21,0,22.44,0,33.64,0,4-.07,8.08.14,12.08-.09,6.45-2.17,12.94-4.8,19.84-4.93,4.59-.18,9.22.35,13.8.25,5.31-.05,10.58-1.27,15.53-3.15,1.39-.43,2.85-1.32,4.31-1.45,2.85,0,5.78,0,8.63,0,14.66,0,29.33,0,43.99,0"/><path class="b" d="M9.31,71.73c2.55.69,5.17,1.51,7.76,2.01,3.72,0,7.5,0,11.21,0,8.04,0,16.11,0,24.15,0,9.19,0,18.41,0,27.6,0,2.06-.39,4.05-1.5,6.04-2.16,3.32-1.26,6.82-2.3,10.35-2.72,7.16-.89,14.4.65,21.57-.19,3.51-.37,7.01-1.25,10.35-2.37,1.08-.36,2.38-.82,3.45-1.23.42-.16,1.31-.5,1.73-.67.41-.01,1.31-.03,1.73-.02,15.81,0,31.63,0,47.44,0"/><path class="b" d="M9.31,68.72c3.13.93,6.27,2.32,9.49,2.85,6.31,0,12.66,0,18.98,0,13.8,0,27.61,0,41.41,0,1.97-.12,4.21.39,6.04-.54,3.63-1.55,7.34-3.12,11.21-3.94,6.81-1.56,13.82-.23,20.7-.24,4.66,0,9.35-.78,13.8-2.16,1.4-.43,2.95-.97,4.31-1.5,1.06-.37,2.29-1.12,3.45-.98,14.66,0,29.33,0,43.99,0"/><path class="b" d="M9.31,65.71c3.42,1.24,6.86,2.68,10.35,3.69,6.03,0,12.09,0,18.12,0,12.93,0,25.88,0,38.82,0,3.43,0,6.92.01,10.35,0,1.97-.87,4.04-1.82,6.04-2.61,9.18-3.89,16.42-2.43,25.88-1.87,5.23.24,10.54-.45,15.53-2.04,1.71-.54,3.53-1.23,5.18-1.95,1.02-.53,2.27-1.04,3.45-.88,13.22,0,26.46,0,39.68,0"/><path class="b" d="M9.31,62.71c3.71,1.5,7.45,3.1,11.21,4.45,4.87.18,9.79.02,14.66.07,10.63,0,21.29,0,31.92,0,5.16,0,10.37,0,15.53,0,1.68,0,3.5,0,5.18,0,.43,0,1.29,0,1.73,0,.43-.19,1.3-.58,1.73-.78,12.74-6.23,17.87-4.35,31.05-3.27,4.93.28,9.96-.3,14.66-1.84,1.72-.56,3.54-1.28,5.18-2.04,1.35-.58,2.76-1.65,4.31-1.44,12.07,0,24.16,0,36.23,0"/><path class="b" d="M9.31,59.75c4.29,1.76,8.51,3.92,12.94,5.31,4.3,0,8.64,0,12.94,0,11.21,0,22.43,0,33.64,0,5.45,0,10.94,0,16.39,0,2.26-.06,4.65.13,6.9-.1,1.67-.78,3.47-1.63,5.18-2.35,10.98-4.9,18.32-1.57,29.33-.92,6.59.33,13.18-1.39,18.98-4.47.77-.4,1.84-.98,2.59-1.41,1.96-.24,4.07-.06,6.04-.11,9.48,0,18.99,0,28.47,0"/><path class="b" d="M9.31,56.83c3.15,1.37,6.33,2.87,9.49,4.22,1.67.62,3.4,1.63,5.18,1.84,4.3,0,8.64,0,12.94,0,11.78,0,23.58,0,35.37,0,7.18,0,14.39,0,21.57,0,3.67-1.53,7.29-3.47,11.21-4.31,8.36-2.05,16.66,1.54,25.02,1.74,6.7.27,13.25-1.96,18.98-5.3.76-.44,1.82-1.06,2.59-1.5,1.68,0,3.5,0,5.18,0,8.62,0,17.26,0,25.88,0"/><path class="b" d="M9.31,53.97c3.45,1.5,6.9,3.16,10.35,4.64,1.95.73,3.96,1.86,6.04,2.12,4.3,0,8.64,0,12.94,0,12.65,0,25.31,0,37.96,0,6.31,0,12.66,0,18.98,0,2.05-.62,4.02-1.82,6.04-2.55,2.73-1.1,5.68-1.93,8.63-2.12,7.9-.52,15.4,3.16,23.29,3,6.47.02,12.63-2.53,18.11-5.77,1.08-.6,2.31-1.45,3.45-1.92,1.38,0,2.93,0,4.31,0,7.75,0,15.54,0,23.29,0"/><path class="b" d="M9.31,51.16c4.03,1.71,8.02,3.66,12.08,5.31,2.21.76,4.55,2.03,6.9,2.09,4.3,0,8.64,0,12.94,0,13.8,0,27.61,0,41.41,0,4.87,0,9.79,0,14.66,0,6.65-2.66,11.4-5.36,18.98-4.22,6.36.92,12.48,3.58,18.98,3.49,5.45.03,10.75-1.84,15.53-4.35,2-1.03,4.07-2.22,6.04-3.3.4-.23,1.31-.7,1.73-.92.75-.07,1.83-.06,2.59-.06,7.18,0,14.39,0,21.57,0"/><path class="b" d="M9.31,48.4c7.36,2.88,14.48,7.05,22.43,7.99,4.3-.02,8.65.08,12.94-.13,5.74-.22,11.52.04,17.25.13,8.33,0,16.69,0,25.02,0,3.72,0,7.5,0,11.21,0,.85.14,1.84-.4,2.59-.73,1.37-.61,2.91-1.27,4.31-1.79,3.27-1.25,6.85-1.93,10.35-1.61,7.33.63,14.1,4.68,21.57,4.13,5.79.36,11.31-2.04,16.39-4.56,3.87-1.83,7.78-4.23,12.08-4.81,5.74,0,11.52,0,17.25,0"/><path class="b" d="M9.31,45.67c7.12,2.62,13.98,6.37,21.57,7.48,4.87.75,9.79-.4,14.66-.64,7.45-.55,14.97-.68,22.43-.2,4.63.26,9.27.92,13.8,1.91,6.03,0,12.09,0,18.12,0,2.07-.39,4.03-1.63,6.04-2.28,3-1.14,6.27-1.85,9.49-1.65,5.08.3,9.82,2.49,14.66,3.84,1.67.17,3.5.05,5.18.08,2.56,0,5.21,0,7.76,0,.76,0,1.83,0,2.59,0,1.11-.17,2.39-.65,3.45-1.02,3.48-1.25,6.87-2.95,10.35-4.22,3.58-1.31,7.4-2.13,11.21-2.29,4.01-.18,8.08.28,12.08.53"/><path class="b" d="M9.31,42.96c6.33,2.1,12.42,5.13,18.98,6.5,5.16,1.25,10.37.14,15.53-.49,6.28-.75,12.64-1.28,18.98-1.21,6.09.08,12.29.64,18.11,2.49,1.42.46,2.97,1.06,4.31,1.7,3.41.28,6.93.03,10.35.11,1.38,0,2.93,0,4.31,0,.8.03,1.87,0,2.59-.41,4.87-2.08,10.15-4.1,15.53-3.09,2.64.43,5.26,1.35,7.76,2.27,1.37.41,2.85,1.32,4.31,1.23,4.29,0,8.64,0,12.94,0,2.55-.11,5.25.25,7.76-.18,13.89-5.15,17.49-4.75,31.92-4.25"/><path class="b" d="M9.31,40.52c1.75-.04,3.51.93,5.18,1.4,2.84.98,5.75,2.06,8.63,2.94,7.39,2.3,11.55,2.05,18.98.7,5.99-.89,12.05-1.67,18.12-1.88,6.67-.21,13.51.24,19.84,2.48,2.38.79,4.64,2.12,6.9,3.19,1.55.86,3.49.47,5.18.55,2.27,0,4.63,0,6.9,0,1.08-.02,2.38.08,3.45-.11,1.69-.62,3.48-1.36,5.18-1.97,6.86-2.71,12.42-1.54,18.98,1.28.75.3,1.77.79,2.59.8,1.68,0,3.5,0,5.18,0,4.01,0,8.07,0,12.08,0,2.85,0,5.78,0,8.63,0,3.09-.78,6.31-1.39,9.49-1.69,6.01-.61,12.09.1,18.12-.21"/><path class="b" d="M9.31,38.35c1.09.01,2.37-.05,3.45.07,1.39.4,2.93.89,4.31,1.32,3.11.98,6.29,2.01,9.49,2.67,2.81.58,5.77.87,8.63.62,2.58-.27,5.2-.84,7.76-1.2,5.99-.92,12.05-1.78,18.12-2.01,6.4-.22,12.99.31,18.98,2.7,2.97,1.16,5.68,3.05,8.63,4.27,1.32.63,2.84,1.08,4.31.92,2.85,0,5.78,0,8.63,0,2.07-.06,4.07-1.29,6.04-1.89,2.74-1.02,5.68-1.85,8.63-1.79,4.25.07,8.24,1.9,12.08,3.56,1.66.23,3.5.07,5.18.11,16.39,0,32.78,0,49.17,0"/><path class="b" d="M9.31,36.18c2.26.09,4.67-.2,6.9.16,5.08,1.39,10.22,3.04,15.53,3.25,4.06.19,8.08-.87,12.08-1.38,6.57-.94,13.2-1.9,19.84-1.95,5.87-.03,11.9.78,17.25,3.3,4.45,2.23,8.81,5.15,13.8,5.98,2.27,0,4.63,0,6.9,0,5.23-.98,10.05-4.17,15.53-3.86,4.31.11,8.18,2.29,12.08,3.86,1.97,0,4.07,0,6.04,0,15.81,0,31.63,0,47.44,0"/><path class="b" d="M9.31,34.02c3.43,0,6.92,0,10.35,0,4.26.87,8.55,2.06,12.94,2.05,2.58.06,5.21-.41,7.76-.75,3.42-.45,6.92-.87,10.35-1.27,6.31-.08,12.66,0,18.98-.03,4.92-.43,9.58,1.55,13.8,3.89,4.84,2.49,9.96,5.14,15.53,5.24,8.46.09,14.4-6.32,23.29-3.11,2.36.78,4.68,1.96,6.9,3.06,1.31.54,2.93.2,4.31.29,1.97,0,4.07,0,6.04,0,14.37,0,28.76,0,43.13,0"/><path class="b" d="M9.31,31.85c5.45,0,10.94,0,16.39,0,2.84.26,5.75.81,8.63.67,2.57-.08,5.2-.49,7.76-.67,5.74,0,11.52,0,17.25,0,3.72,0,7.5,0,11.21,0,2.28.11,4.75-.38,6.9.56,8.57,3.3,17.11,9.61,26.74,7.44,10.82-2.9,12.93-6.03,24.15.04.76.4,1.81.97,2.59,1.33,1.08,0,2.37,0,3.45,0,2.27,0,4.64,0,6.9,0,13.8,0,27.61,0,41.41,0"/><path class="b" d="M9.31,29.68c15.23,0,30.48,0,45.72,0,7.18.05,14.39-.09,21.57.05,3.5,1.2,6.92,2.8,10.35,4.17,5.94,2.51,12.55,4.59,18.98,2.79,2.91-.7,5.72-1.99,8.63-2.71,4.45-1.23,9.06.24,12.94,2.47,1.08.59,2.37,1.33,3.45,1.92.67.48,1.77.76,2.59.66,16.39,0,32.78,0,49.17,0"/><path class="b" d="M9.31,27.51c15.52,0,31.06,0,46.58,0,4.3,0,8.64,0,12.94,0,2.55.09,5.23-.19,7.76.14,4.92,1.55,9.75,3.5,14.66,5.07,6,2.04,12.11,2.39,18.11.15,3.07-1,6.2-2.38,9.49-2.33,3.76.04,7.21,1.92,10.35,3.81,1.07.65,2.36,1.42,3.45,2.04,0,0,.86.48.86.48h.86c16.1,0,32.21,0,48.31,0"/><path class="b" d="M9.31,25.34c19.55,0,39.11,0,58.66,0,2.27,0,4.63,0,6.9,0,6.97,1.6,13.7,4.24,20.7,5.66,12.59,2.64,18.05-5.23,26.74-3.12,3.47.93,6.5,3.12,9.49,5.03.75.49,1.82,1.15,2.59,1.61,1.35.35,2.93.13,4.31.19,14.66,0,29.33,0,43.99,0"/><path class="b" d="M9.31,23.18c20.99.03,41.99-.07,62.97.04,4.92.81,9.83,1.92,14.66,3.13,4.79,1.16,9.69,2.47,14.66,2.29,3.55-.11,7.04-1.16,10.35-2.36,4.2-1.62,8.68-2.8,12.94-.67,3.72,1.72,6.9,4.51,10.35,6.69,1.62.49,3.5.14,5.18.24,2.56,0,5.21,0,7.76,0,11.49,0,23.01,0,34.5,0"/><path class="b" d="M9.31,21.01c16.96,0,33.93,0,50.89,0,6.94-.19,13.86.87,20.7,1.94,13.13,2.17,19.64,5.3,32.78-.12,5.02-1.93,9.2-2.06,13.8,1.04,2.96,1.94,5.72,4.34,8.63,6.36,1.65.3,3.5.09,5.18.15,2.85,0,5.78,0,8.63,0,10.92,0,21.86,0,32.78,0"/><path class="b" d="M9.31,18.84c15.23,0,30.48,0,45.72,0,3.43.12,6.91.73,10.35.9,6.32.5,12.69.86,18.98,1.75,7.69,1.01,15.65,2.89,23.29.62,3.2-.87,6.29-2.31,9.49-3.15,1.06-.2,2.37-.1,3.45-.12.76,0,1.83,0,2.59,0,1.85.41,3.64,1.48,5.18,2.56,2.95,2.11,5.65,4.73,8.63,6.81h45.72"/><path class="b" d="M9.31,16.67c14.08,0,28.18,0,42.27,0,1.74-.15,3.51.3,5.18.71,1.96.41,4.05.7,6.04.91,6.59.62,13.25.51,19.84,1.08,14.36,1.2,18.76,3.13,32.78-2.61,3.12-.24,6.35-.03,9.49-.1,1.96.35,3.63,1.94,5.18,3.1,1.7,1.42,3.5,3.01,5.18,4.46.72.6,1.64,1.6,2.59,1.8,4.58,0,9.22,0,13.8,0,10.34,0,20.71,0,31.05,0"/><path class="b" d="M9.31,14.5c13.8,0,27.61,0,41.41,0,.44,0,1.29,0,1.73,0,.81.13,1.82.58,2.59.84,1.36.46,2.91.88,4.31,1.16,4.24.84,8.63.88,12.94.92,4.87,0,9.8.07,14.66.39,5.15.3,10.38.89,15.53.25,4.19-.47,8.17-2.07,12.08-3.56,2.56,0,5.21,0,7.76,0,1.08,0,2.37,0,3.45,0,0,0,.86,0,.86,0l.86.44c3.73,2.56,6.93,5.94,10.35,8.87,14.94.14,29.91,0,44.86.05"/><path class="b" d="M9.31,12.34c14.37.02,28.76-.03,43.13.02,8.95,4.98,19.52,3.35,29.33,3.47,9.98-.01,19.86,1.57,29.33-2.57,1.05-.39,2.29-1.06,3.45-.92,1.97,0,4.07,0,6.04,0,1.68,0,3.5,0,5.18,0,.42,0,1.31,0,1.73,0,.49.16,1.34.71,1.73,1.05,2.06,1.7,4.1,3.67,6.04,5.5,1.05.9,2.13,2.31,3.45,2.81.41,0,1.31,0,1.73,0,3.43,0,6.92,0,10.35,0,10.63,0,21.29,0,31.92,0"/><path class="b" d="M9.31,10.17c12.65,0,25.31,0,37.96,0,1.68.05,3.51-.11,5.18.11,2.91,1.7,6.16,2.99,9.49,3.55,4.82.84,9.79.59,14.66.42,4.58-.19,9.22-.25,13.8-.23,7.64.15,14.52-.5,21.57-3.73,5.43-.32,10.95-.02,16.39-.12,3.87,2.54,6.64,6.62,10.35,9.37h43.99"/><path class="b" d="M9.31,8c13.22,0,26.46,0,39.68,0,1.08.02,2.37-.06,3.45.09.76.45,1.8,1.04,2.59,1.44,2.41,1.25,5.09,2.16,7.76,2.62,8.27,1.31,16.7-.02,25.02-.07,8.39-.11,15.51-.52,23.29-4.09,6.02.04,12.09-.09,18.12.05,3.28,2.94,6.19,6.4,9.49,9.31h43.99"/></svg>