<?xml version="1.0" encoding="UTF-8"?><svg id="a" xmlns="http://www.w3.org/2000/svg" width="1920" height="2400" viewBox="0 0 192 240"><defs><style>.b{fill:none;stroke:#fff;stroke-miterlimit:10;stroke-width:.3px;}.c{stroke-width:0px;}</style></defs><rect class="c" width="192" height="240"/><path class="b" d="M9.41,223.38c44.22,0,88.45,0,132.68,0,5.15.07,10.36-.14,15.51.09,2.74,1.71,5.66,3.31,8.62,4.6,3.01,1.29,6.23,2.39,9.48,2.88,2.48.27,4.97-.86,6.89-2.35"/><path class="b" d="M9.41,221.22c49.11,0,98.22,0,147.32,0,1.07,0,2.37,0,3.45,0,1.73.64,3.45,1.69,5.17,2.38,3.3,1.42,6.8,2.6,10.34,3.22,2.44.36,4.94-.62,6.89-2.03"/><path class="b" d="M9.41,219.05c50.26,0,100.52,0,150.77,0,1.38.06,2.96-.15,4.31.17,1.06.46,2.36.97,3.45,1.37,2.78.98,5.69,1.96,8.62,2.34,2.11.16,4.28-.65,6.03-1.8"/><path class="b" d="M9.41,216.89c51.12,0,102.24,0,153.36,0,1.97.06,4.08-.14,6.03.12,2.51.85,5.13,1.75,7.75,2.19,2.07.24,4.25-.43,6.03-1.48"/><path class="b" d="M9.41,214.72c45.95,0,91.9,0,137.85,0,7.74,0,15.52,0,23.26,0,.75,0,1.83,0,2.58.03.75.24,1.82.54,2.58.74,1.35.34,2.95.33,4.31,0,.76-.19,1.8-.65,2.58-.77"/><path class="b" d="M9.41,212.56h173.17"/><path class="b" d="M9.41,210.39h173.17"/><path class="b" d="M9.41,208.22h173.17"/><path class="b" d="M9.41,206.06h173.17"/><path class="b" d="M9.41,203.89h173.17"/><path class="b" d="M9.41,201.73h173.17"/><path class="b" d="M9.41,199.56h173.17"/><path class="b" d="M9.41,197.4h173.17"/><path class="b" d="M9.41,195.23h173.17"/><path class="b" d="M9.41,194.52c5.63,1.24,11.63,1.91,17.23.2,1.43-.41,2.94-1.08,4.31-1.66,3.71,0,7.49,0,11.2,0,29.86,0,59.74,0,89.6,0,10.33,0,20.68,0,31.02,0,5.15,0,10.35,0,15.51,0,1.38.11,2.92.41,4.31.38"/><path class="b" d="M9.41,194.74c6.51,1.56,13.59,1.83,19.82-.93,1.77-.75,3.58-1.77,5.17-2.85,1.08-.1,2.36-.05,3.45-.06,18.66,0,37.34,0,56,0,18.09,0,36.19,0,54.28,0,8.61,0,17.24,0,25.85,0,1.11-.1,2.39.32,3.45.62,1.64.42,3.47.71,5.17.76"/><path class="b" d="M9.41,194.49c10.36,2.44,19.1.69,27.57-5.76,29.86,0,59.74,0,89.6,0,14.07,0,28.15,0,42.22,0,1.07,0,2.37-.02,3.45.04.75.28,1.82.65,2.58.9,2.48.8,5.14,1.43,7.75,1.55"/><path class="b" d="M9.41,193.7c11.31,2.33,20.32-.02,29.29-7.13,29.29,0,58.59,0,87.88,0,13.78,0,27.58,0,41.35,0,1.75.19,3.48,1.16,5.17,1.62,3.05,1.01,6.26,1.89,9.48,2.1"/><path class="b" d="M9.41,192.37c10.55,1.9,22.26-.39,30.15-7.96,28.43,0,56.86,0,85.29,0,12.92,0,25.85,0,38.77,0,6.26,1.82,12.41,4.45,18.95,5.04"/><path class="b" d="M9.41,190.54c7.5.95,15.37.29,22.4-2.58,3.22-1.28,6.01-3.48,8.62-5.71,27.85,0,55.72,0,83.57,0,10.9.1,21.85-.2,32.74.11,4.62,1.03,9.22,2.37,13.78,3.64,3.95,1.1,7.97,2.29,12.06,2.68"/><path class="b" d="M9.41,188.32c4.86.43,9.82.19,14.65-.52,6.03-.82,12.14-2.96,16.37-7.51,1.34-.41,2.92-.15,4.31-.22,1.97,0,4.06,0,6.03,0,6.02,0,12.07,0,18.09,0,17.51,0,35.04,0,52.55,0,5.73,0,11.5,0,17.23,0,5.44.71,10.94,1.32,16.37,2.12,4.91.79,9.82,1.84,14.65,3.01,4.26,1.02,8.56,2.25,12.92,2.72"/><path class="b" d="M9.41,185.83c4.87.22,9.8-.09,14.65-.62,6.02-.58,12.35-2.31,16.37-7.13,1.36-.32,2.92-.11,4.31-.17,2.27,0,4.63,0,6.89,0,6.31,0,12.65,0,18.95,0,18.09,0,36.19,0,54.28,0,1.08,0,2.37,0,3.45,0,1.7.35,3.47,1.01,5.17,1.38,3.66.91,7.45,1.51,11.2,1.93,6.61.69,13.27,1.25,19.82,2.41,6.05.99,12,2.75,18.09,3.53"/><path class="b" d="M9.41,183.16c4.3.02,8.64-.26,12.92-.55,4.05-.35,8.36-.53,12.06-2.37,1.56-.8,3.08-2.06,4.31-3.3.97-1.3,1.97-1.26,3.45-1.2,25.84,0,51.7,0,77.54,0,.76,0,1.82-.02,2.58.05,1.08.36,2.37.8,3.45,1.17,2.25.77,4.6,1.57,6.89,2.19,5.89,1.62,12.02,2.24,18.09,2.66,5.46.39,10.96.82,16.37,1.7,2.86.44,5.78,1.04,8.62,1.58,2.26,0,4.63,0,6.89,0"/><path class="b" d="M9.41,180.42c3.43-.1,6.92-.33,10.34-.52,3.14-.2,6.37-.26,9.48-.79,2.15-.41,4.3-1.38,6.03-2.71,1.13-.82,2.24-2.1,3.45-2.82,21.54,0,43.08,0,64.62,0,4.29,0,8.63,0,12.92,0,2.05.28,4.07,1.3,6.03,1.95,5.03,1.92,10.19,3.68,15.51,4.57,6.24,1.12,12.64,1.24,18.95,1.63,4.01.24,8.08.63,12.06,1.21,4.58,0,9.21,0,13.78,0"/><path class="b" d="M9.41,177.58c4.58-.29,9.2-.63,13.78-.89,5.11-.09,9.18-1.83,12.92-5.28,20.96,0,41.93,0,62.89,0,4.29.07,8.64-.14,12.92.09,2.3.66,4.66,1.52,6.89,2.38,4.49,1.77,9.06,3.53,13.78,4.56,5.07,1.14,10.32,1.53,15.51,1.79,11.47.71,22.98.53,34.46.54"/><path class="b" d="M9.41,174.57c3.71-.32,7.48-.68,11.2-.96,4.36-.17,8.64-1.62,12.06-4.35,20.96-.04,41.93,0,62.89-.01,3.42,0,6.91,0,10.34,0,3.22.64,6.42,1.72,9.48,2.89,4.23,1.63,8.48,3.43,12.92,4.42,5.65,1.16,11.48,1.48,17.23,1.83,4.86.33,9.78.17,14.65.21,7.46,0,14.94,0,22.4,0"/><path class="b" d="M9.41,171.37c4.29-.59,8.7-.77,12.92-1.75,1.44-.37,2.99-.96,4.31-1.64.46-.24,1.26-.7,1.72-.9.46,0,1.27,0,1.72,0,20.1,0,40.21,0,60.31,0,2.84.06,5.78-.14,8.62.1,4.7.59,9.35,1.83,13.78,3.51,3.95,1.45,7.91,3.15,12.06,3.96,5.1.85,10.36.74,15.51,1.09,14.05,1,28.14.64,42.22.69"/><path class="b" d="M9.41,167.95c2.85-.45,5.8-.81,8.62-1.42,1.75-.33,3.46-1.2,5.17-1.61,4.87,0,9.78,0,14.65,0,16.08,0,32.17,0,48.25,0,2.29-.13,4.63.27,6.89.58,3.15.4,6.38.83,9.48,1.53,5,1.07,9.78,3.04,14.65,4.57,4.42,1.52,9.17,1.49,13.78,1.25,4-.15,8.06-.11,12.06.07,7.18.33,14.38.8,21.54,1.36,6.02,0,12.07,0,18.09,0"/><path class="b" d="M9.41,164.3c2.28-.44,4.67-.88,6.89-1.55,3.42,0,6.91,0,10.34,0,7.74,0,15.52,0,23.26,0,10.33,0,20.68,0,31.02,0,1.73-.13,3.48.57,5.17.85,2.54.5,5.2.86,7.75,1.24,4.65.66,9.3,1.65,13.78,3.05,5.29,1.69,10.74,3.47,16.37,2.79,4.58-.43,9.18-1.17,13.78-1.2,8.05-.13,16.11.63,24.12,1.24,4.3.34,8.65.83,12.92,1.39,2.55,0,5.2,0,7.75,0"/><path class="b" d="M9.41,160.59c21.82,0,43.66,0,65.48,0,.77,0,1.81,0,2.58.01.43.16,1.28.46,1.72.61,1.94.63,4.03,1.16,6.03,1.56,6.01,1.17,12.16,1.85,18.09,3.39,7.2,1.88,12.23,3.5,19.82,1.96,4.27-.8,8.57-1.81,12.92-2.09,6.3-.49,12.66-.09,18.95.38,9.22.74,18.49,1.46,27.57,3.32"/><path class="b" d="M9.41,158.42c20.67,0,41.36,0,62.03,0,.44,0,1.29,0,1.72,0,.44.21,1.28.62,1.72.82,1.63.7,3.46,1.28,5.17,1.77,5.07,1.42,10.34,2.09,15.51,3.02,9.05,1.54,15.65,4.25,24.99,1.79,4.57-1.1,9.1-2.62,13.78-3.2,6.27-.88,12.66-.73,18.95-.31,9.79.75,19.67,1.44,29.29,3.5"/><path class="b" d="M9.41,156.26c19.52,0,39.06,0,58.59,0,.45-.03,1.29.03,1.72.12.43.27,1.28.78,1.72,1.03,1.32.73,2.87,1.39,4.31,1.86,4.73,1.63,9.72,2.56,14.65,3.37,5.44.8,10.88,2.05,16.37,2.42,3.46.15,6.99-.33,10.34-1.2,3.77-.97,7.46-2.43,11.2-3.51,3.91-1.1,8.01-1.76,12.06-2.07,7.17-.54,14.39,0,21.54.6,6.92.63,13.9,1.3,20.68,2.9"/><path class="b" d="M9.41,154.09h56.86c7.16,5.41,16.37,6.66,24.98,8.1,8.88,1.47,16.3,2.15,24.98-.91,4.05-1.32,7.99-3.11,12.06-4.38,4.19-1.25,8.57-2.03,12.92-2.42,7.16-.64,14.39-.23,21.54.37,6.64.59,13.34,1.29,19.82,2.92"/><path class="b" d="M9.41,151.93c18.08.09,36.2-.18,54.28.1,5.08,4.41,10.79,6.23,17.23,7.64,3.11.67,6.32,1.27,9.48,1.62,2.56,0,5.2,0,7.75,0,2.84-.05,5.78.1,8.62-.07,6.32-1.22,12.17-4.1,18.09-6.5,3.04-1.23,6.27-2.15,9.48-2.78,1.68,0,3.49,0,5.17,0,7.74,0,15.52,0,23.26,0,3.42,0,6.92-.02,10.34.01,3.16.46,6.39,1.06,9.48,1.89"/><path class="b" d="M9.41,149.76h51.69c2.3,1.54,4.41,3.59,6.89,4.89,3.97,2.19,8.53,3.21,12.92,4.2,1.65.42,3.49.23,5.17.27,2.85,0,5.77,0,8.62,0,3.42,0,6.91,0,10.34,0,6.35-1.34,12.17-4.5,18.09-7.05,1.93-.84,4.01-1.68,6.03-2.28,3.13-.04,6.34,0,9.48-.02,9.47,0,18.96,0,28.43,0,3.13,0,6.34,0,9.48,0,1.96.11,4.12-.27,6.03.26"/><path class="b" d="M9.41,147.6c16.36,0,32.74,0,49.11,0,1.41-.25,2.45,1.2,3.45,1.96,1.05.88,2.32,1.87,3.45,2.65,2.82,2.02,6.15,3.26,9.48,4.16,1.91.7,4.03.61,6.03.59,2.85,0,5.77,0,8.62,0,3.13,0,6.34,0,9.48,0,1.97-.09,4.14.29,6.03-.41,4.75-1.5,9.31-3.68,13.78-5.84,1.66-.8,3.47-1.65,5.17-2.38.41-.18,1.3-.54,1.72-.71.42,0,1.3,0,1.72,0,18.38,0,36.76,0,55.14,0"/><path class="b" d="M9.41,145.43h49.11c4.71,4.18,9.99,8.31,16.37,9.35,4.29,0,8.63,0,12.92,0,4.58,0,9.21.02,13.78-.01,6-1.79,11.63-4.69,17.23-7.45,1.37-.62,2.85-1.49,4.31-1.89,1.08,0,2.37,0,3.45,0,3.13,0,6.34,0,9.48,0,15.5,0,31.02,0,46.52,0"/><path class="b" d="M9.41,143.27h48.25c4.92,3.89,9.98,8.26,16.37,9.35,3.71,0,7.49,0,11.2,0,4.29,0,8.63,0,12.92,0,2.36-.22,4.67-1.39,6.89-2.19,3.8-1.55,7.53-3.44,11.2-5.28,1.38-.61,2.82-1.61,4.31-1.89,1.08,0,2.37,0,3.45,0,3.13,0,6.34,0,9.48,0,16.36,0,32.74,0,49.11,0"/><path class="b" d="M9.41,141.1c15.5,0,31.02,0,46.52,0,.94-.09,1.94.13,2.58.85,1.07.85,2.34,1.84,3.45,2.63,2.89,2.08,6.05,4,9.48,5.03,1.99.71,3.93.96,6.03.84,2.26,0,4.63,0,6.89,0,2.55,0,5.2,0,7.75,0,1.71.04,3.55.05,5.17-.57,4.76-1.4,9.34-3.5,13.78-5.69,1.97-.97,4.05-2.03,6.03-2.99,1.07-.17,2.37-.08,3.45-.1,20.67,0,41.36,0,62.03,0"/><path class="b" d="M9.41,138.93c16.07.08,32.18-.15,48.25.08,8.44,6.44,14.98,9.83,25.85,9.27,1.97,0,4.06,0,6.03,0,7.3-1.02,14.12-4.09,20.68-7.31,1.38-.65,2.88-1.48,4.31-2.04,1.08,0,2.37,0,3.45,0,3.42,0,6.91,0,10.34,0,18.09,0,36.19,0,54.28,0"/><path class="b" d="M9.41,136.77c15.22,0,30.45,0,45.66,0,.77,0,1.81,0,2.58,0,1.55.42,2.9,1.76,4.31,2.52,2.96,1.86,6.13,3.59,9.48,4.63,6.98,1.97,14.52,1.98,21.54.19,4.14-1.05,8.18-2.67,12.06-4.44,1.39-.63,2.93-1.36,4.31-2.02.75-.34,1.72-.96,2.58-.88,4.29,0,8.63,0,12.92,0,19.24,0,38.49,0,57.72,0"/><path class="b" d="M9.41,134.6c13.2,0,26.43,0,39.63,0,3.14,0,6.34,0,9.48,0,.54-.07,1.31.26,1.72.58.77.46,1.81,1.07,2.58,1.51,2.73,1.54,5.63,2.98,8.62,3.93,6.39,1.91,13.35,1.68,19.82.21,5.69-1.33,11.08-3.74,16.37-6.17,6.87-.19,13.8-.01,20.68-.07,18.09,0,36.19,0,54.28,0"/><path class="b" d="M9.41,132.44c12.06,0,24.13,0,36.18,0,3.42,0,6.91,0,10.34,0,1.08,0,2.36,0,3.45,0,.83-.01,1.89-.1,2.58.46,3.04,1.6,6.21,3.15,9.48,4.21,6.09,2.05,12.76,1.61,18.95.21,4.75-1.1,9.31-2.97,13.78-4.88,8.03,0,16.09,0,24.12,0,18.09,0,36.19,0,54.28,0"/><path class="b" d="M9.41,130.27c12.34,0,24.7,0,37.05,0,5.73,0,11.5,0,17.23,0,3.08,1.34,6.23,2.75,9.48,3.63,5.04,1.53,10.42,1.28,15.51.15,4.14-.8,8.09-2.47,12.06-3.78,8.89,0,17.81,0,26.71,0,18.38,0,36.76,0,55.14,0"/><path class="b" d="M9.41,129.29c.79-.34,1.81-.8,2.58-1.14.78-.06,1.8-.04,2.58-.04,2.27,0,4.63,0,6.89,0,6.88,0,13.8,0,20.68,0,7.74,0,15.52,0,23.26,0,1.52-.15,2.93.26,4.31.85,1.65.59,3.46,1.16,5.17,1.57,4.49,1.14,9.28,1.26,13.78.11,2-.46,4.09-1.07,6.03-1.72,1.34-.54,2.85-.96,4.31-.81,8.61,0,17.24,0,25.85,0,19.24,0,38.49,0,57.72,0"/><path class="b" d="M9.41,129.48c2.28-1.12,4.63-2.34,6.89-3.48,4.57-.14,9.21-.01,13.78-.05,9.76,0,19.54,0,29.29,0,4.29,0,8.63,0,12.92,0,5.27,1.58,10.9,2.58,16.37,1.55,2.03-.29,4.03-1.18,6.03-1.55,2.84,0,5.77,0,8.62,0,6.88,0,13.8,0,20.68,0,19.52,0,39.06,0,58.59,0"/><path class="b" d="M9.41,129.65c2.29-1.24,4.64-2.59,6.89-3.88,1.09-.62,2.36-1.34,3.45-1.95.78-.06,1.81-.04,2.58-.04,10.04,0,20.11,0,30.15,0,8.32,0,16.67,0,24.98,0,2-.1,4.04.5,6.03.6,2.85.22,5.82.05,8.62-.55,30.15-.15,60.31,0,90.46-.05"/><path class="b" d="M9.41,129.76c2.89-1.67,5.79-3.52,8.62-5.3,1.08-.68,2.36-1.48,3.45-2.14.36-.35,1.23-.66,1.72-.7,10.04,0,20.11,0,30.15,0,13.49,0,27,0,40.49,0,29.58,0,59.16,0,88.74,0"/><path class="b" d="M9.41,128.8c.85.06,1.93-.02,2.58-.64,1.09-.7,2.37-1.55,3.45-2.28,3.14-2.13,6.3-4.37,9.48-6.43,52.55-.01,105.11,0,157.66,0"/><path class="b" d="M9.41,126.63c4.59-.06,4.06.62,7.75-2.25,3.14-2.31,6.29-4.75,9.48-6.99,4.27-.3,8.64-.03,12.92-.12,17.8,0,35.62,0,53.42,0,29.86,0,59.74,0,89.6,0"/><path class="b" d="M9.41,124.47c2.26,0,4.63,0,6.89,0,4.26-2.7,7.93-6.43,12.06-9.35h154.22"/><path class="b" d="M9.41,122.3c3.13-.1,6.37.21,9.48-.14,2.3-1.92,4.63-4.01,6.89-5.97,1.08-.93,2.34-2.01,3.45-2.9.75-.43,1.76-.34,2.58-.34,10.62,0,21.26,0,31.88,0,12.06,0,24.13,0,36.18,0,27.57,0,55.14,0,82.71,0"/><path class="b" d="M9.41,120.14c3.71-.04,7.49.09,11.2-.06,3.47-3.01,6.65-6.55,10.34-9.29,50.54,0,101.09,0,151.63,0"/><path class="b" d="M9.41,117.97c2.55,0,5.2,0,7.75,0,1.67-.08,3.53.2,5.17-.19,3.14-3.02,6.21-6.26,9.48-9.14,15.5-.08,31.02,0,46.52-.03,5.73,0,11.5,0,17.23,0,1.4-.05,2.91.51,4.31.66,1.96.3,4.05.45,6.03.44,3.17.02,6.37-.54,9.48-1.1,6.59,0,13.22,0,19.82,0,15.79,0,31.59,0,47.38,0"/><path class="b" d="M9.41,115.81c4.58,0,9.21,0,13.78,0,1.36-.59,2.37-2.15,3.45-3.13,1.65-1.71,3.43-3.56,5.17-5.18.44-.47,1.07-.98,1.72-1.04,1.09,0,2.36,0,3.45,0,12.92,0,25.85,0,38.77,0,6.02,0,12.07,0,18.09,0,2.83.73,5.7,1.64,8.62,1.98,4.27.58,8.68.4,12.92-.37,2.01-.37,4.11-.91,6.03-1.6.76,0,1.82,0,2.58,0,19.52,0,39.06,0,58.59,0"/><path class="b" d="M9.41,113.64h15.51c3.26-2.94,5.92-6.74,9.48-9.35,13.2,0,26.43,0,39.63,0,6.02,0,12.07,0,18.09,0,3.34,1.29,6.81,2.45,10.34,3.06,4.82.85,9.83.76,14.65-.08,2.01-.35,4.12-.89,6.03-1.61,1.11-.37,2.29-1.16,3.45-1.37,5.73,0,11.5,0,17.23,0,12.92,0,25.85,0,38.77,0"/><path class="b" d="M9.41,111.48c5.73-.01,11.5.02,17.23-.01,2.73-3.06,5.54-6.22,8.62-8.94,1.24-.74,2.92-.29,4.31-.4,2.27,0,4.63,0,6.89,0,6.02,0,12.07,0,18.09,0,5.73,0,11.5,0,17.23,0,2.56,0,5.2,0,7.75,0,1.18-.07,2.36.78,3.45,1.15,8.61,3.78,18.36,4.96,27.57,2.9,3.05-.67,6.08-1.9,8.62-3.76.72-.38,1.8-.3,2.58-.3,1.08,0,2.37,0,3.45,0,3.13,0,6.34,0,9.48,0,12.63,0,25.28,0,37.91,0"/><path class="b" d="M9.41,109.31c6.31-.03,12.65.06,18.95-.03,2.97-3.22,5.85-6.83,9.48-9.32,15.5,0,31.02,0,46.52,0,1.38.05,2.94-.13,4.31.14,1.37.65,2.91,1.36,4.31,1.96,3.04,1.32,6.24,2.5,9.48,3.25,6.47,1.46,13.33,1.56,19.82.14,2.42-.57,4.85-1.58,6.89-3,1.39-.78,2.54-2.74,4.31-2.5,2.84,0,5.77,0,8.62,0,13.49,0,27,0,40.49,0"/><path class="b" d="M9.41,107.15h20.68c2.38-2.12,4.44-4.78,6.89-6.84,1.27-.93,2.59-2.7,4.31-2.52,7.46,0,14.94,0,22.4,0,5.15,0,10.35,0,15.51,0,1.68,0,3.49,0,5.17,0,.43,0,1.3,0,1.72,0,.44.16,1.31.54,1.72.76,8.5,4.29,17.05,7.39,26.71,7.22,8.45.03,14.05-1.51,19.82-7.98h48.25"/><path class="b" d="M9.41,104.98c7.74-.1,15.54.2,23.26-.11,2.15-2.2,9.04-9.66,12.06-9.24,6.88,0,13.8,0,20.68,0,4,0,8.06,0,12.06,0,1.97,0,4.06,0,6.03,0,.8.26,1.83.77,2.58,1.13,9.56,4.79,19.24,8.74,30.15,8.22,4.77.21,9.83-.45,13.78-3.35,2.31-1.6,4.11-3.99,6.03-6h46.52"/><path class="b" d="M9.41,102.82c8.6-.08,17.25.16,25.85-.09,2.85-2.87,5.99-5.61,9.48-7.68,1.3-.73,2.73-1.79,4.31-1.58,8.89,0,17.81,0,26.71,0,1.38,0,2.93,0,4.31,0,1.75.47,3.5,1.42,5.17,2.13,3.97,1.82,7.96,3.76,12.06,5.27,2.49.8,5.1,2,7.75,1.96,4.58,0,9.21,0,13.78,0,2.84,0,5.77.01,8.62,0,2.7-1.19,5.01-3.31,6.89-5.54,1.1-1.16,2.07-2.94,3.45-3.8h44.8"/><path class="b" d="M9.41,100.65h28.43c4.58-3.94,9.64-7.63,15.51-9.35,3.13,0,6.34,0,9.48,0,4.29.05,8.64-.1,12.92.06,3.52,1.08,6.98,2.54,10.34,4.02,4.23,1.87,8.51,3.81,12.92,5.23,5.15.1,10.35,0,15.51.04,4.58,0,9.21,0,13.78,0,.41,0,1.31,0,1.72,0,.95-.29,1.88-1.25,2.58-1.91,2.2-2.21,4.14-4.9,6.03-7.37,14.63-.2,29.3,0,43.94-.07"/><path class="b" d="M9.41,98.49c9.76,0,19.54,0,29.29,0,.79,0,1.84.07,2.58-.23.76-.59,1.79-1.38,2.58-1.92,1.88-1.31,3.96-2.55,6.03-3.53,7.72-3.78,16.76-4.33,24.98-1.95,4.42,1.2,8.7,3.01,12.92,4.76,2.54.96,5.09,2.32,7.75,2.88,3.13,0,6.34,0,9.48,0,5.15,0,10.35,0,15.51,0,2.84,0,5.77,0,8.62,0,.76,0,1.83,0,2.58,0,1.49-.37,2.44-2.14,3.45-3.19,1.11-1.38,2.39-3.07,3.45-4.49,0,0,.86-1.15.86-1.15,0,0,.86-.53.86-.53h42.22"/><path class="b" d="M9.41,96.32c11.19,0,22.41,0,33.6,0,1.92.22,3.5-1.61,5.17-2.37,2.43-1.36,5.08-2.51,7.75-3.29,6.15-1.83,12.78-1.61,18.95.01,3.8.97,7.54,2.38,11.2,3.78,1.96.6,3.95,1.89,6.03,1.87,13.78,0,27.58,0,41.35,0,3.08-2.56,4.98-6.48,7.75-9.35h41.35"/><path class="b" d="M9.41,94.16c9.18,0,18.39,0,27.57,0,3.71,0,7.49,0,11.2,0,2.43-1.38,5.08-2.58,7.75-3.4,5.84-1.84,12.16-1.77,18.09-.42,2.59.57,5.23,1.36,7.75,2.2,1.69.49,3.43,1.35,5.17,1.62,6.31,0,12.65,0,18.95,0,5.44,0,10.93,0,16.37,0,3.42,0,6.92,0,10.34,0,2.67.22,2.73-.49,4.31-2.46,1.69-2.17,3.46-4.56,5.17-6.7,1.64-.38,3.5-.11,5.17-.19,3.13,0,6.34,0,9.48,0,8.61,0,17.24,0,25.85,0"/><path class="b" d="M9.41,91.99c14.07,0,28.15,0,42.22,0,1.74.05,3.46-1.14,5.17-1.49,2.77-.79,5.73-1.22,8.62-1.23,3.46-.03,6.97.5,10.34,1.3,2.56.55,5.09,1.7,7.75,1.42,11.19,0,22.41,0,33.6,0,6.3-.1,12.67.19,18.95-.12,1.42-1.72,2.94-3.69,4.31-5.44,1.05-1.2,2.04-2.97,3.45-3.79h38.77"/><path class="b" d="M9.41,89.82c11.48,0,22.98,0,34.46,0,4.87,0,9.78,0,14.65,0,2.26-.21,4.6-.71,6.89-.66,2.57-.04,5.21.29,7.75.66,6.59,0,13.22,0,19.82,0,14.64,0,29.3,0,43.94,0,2.58-3.04,5.05-6.37,7.75-9.31,12.63-.12,25.28,0,37.91-.04"/><path class="b" d="M9.41,87.66h128.37c1.78-1.85,3.46-4.08,5.17-6,1.04-1.08,2.1-2.64,3.45-3.35h36.18"/><path class="b" d="M9.41,85.49h129.23c2.96-2.9,5.52-6.36,8.62-9.14,1.92-.47,4.07-.11,6.03-.22,9.76,0,19.54,0,29.29,0"/><path class="b" d="M9.41,83.33h130.09c3.29-2.91,6.03-6.58,9.48-9.35h33.6"/><path class="b" d="M9.41,81.16h130.96c1.62-1,2.9-2.79,4.31-4.07,1.9-1.79,3.79-3.93,6.03-5.29h31.88"/><path class="b" d="M9.41,79c37.62,0,75.24,0,112.86,0,6.31,0,12.65,0,18.95,0,1.34-.55,2.37-2.02,3.45-2.94,1.63-1.58,3.44-3.26,5.17-4.74.4-.36,1.31-1.07,1.72-1.41,1.02-.43,2.37-.22,3.45-.26,2.26,0,4.63,0,6.89,0,6.88,0,13.8,0,20.68,0"/><path class="b" d="M9.41,76.83c24.12,0,48.25,0,72.37,0,10.62,0,21.26,0,31.88,0,9.47,0,18.96,0,28.43,0,.55-.08,1.37-.7,1.72-1.11.75-.71,1.82-1.69,2.58-2.39,2.19-2,4.49-4.1,6.89-5.85h29.29"/><path class="b" d="M9.41,74.67c38.77,0,77.54,0,116.31,0,5.73,0,11.5,0,17.23,0,1.38-.2,2.37-1.73,3.45-2.52,1.66-1.49,3.46-3.09,5.17-4.52,1.05-.75,2.12-2.1,3.45-2.32,2.84,0,5.77,0,8.62,0,6.31,0,12.65,0,18.95,0"/><path class="b" d="M9.41,72.5c29.29,0,58.59,0,87.88,0,10.04,0,20.11,0,30.15,0,3.71,0,7.49,0,11.2,0,1.97-.08,4.09.18,6.03-.15,2.28-1.93,4.61-4.02,6.89-5.95.76-.65,1.81-1.52,2.58-2.15.66-.6,1.65-1.28,2.58-1.1,8.61,0,17.24,0,25.85,0"/><path class="b" d="M9.41,70.34c29.58,0,59.16,0,88.74,0,10.04,0,20.11,0,30.15,0,5.72-.1,11.52.21,17.23-.13,3.77-2.97,7.23-6.52,11.2-9.23h25.85"/><path class="b" d="M9.41,68.17c24.69,0,49.4,0,74.09,0,10.91,0,21.83,0,32.74,0,9.76,0,19.54,0,29.29,0,0,0,.86-.14.86-.14,0,0,.86-.69.86-.69.76-.63,1.83-1.5,2.58-2.15,2.55-2.09,5.04-4.48,7.75-6.37h24.98"/><path class="b" d="M9.41,65.62c1.36.46,2.9.41,4.31.39,1.97,0,4.06,0,6.03,0,5.73,0,11.5,0,17.23,0,16.65,0,33.32,0,49.97,0,1.68,0,3.49,0,5.17,0,2.78-.78,5.72-1.34,8.62-1.34,2.59-.01,5.26.4,7.75,1.11,1.33.43,2.93.16,4.31.23,10.91,0,21.83,0,32.74,0,.87.11,1.99-.19,2.58-.87.76-.62,1.83-1.48,2.58-2.11,2.56-2.09,5.07-4.44,7.75-6.37h24.12"/><path class="b" d="M9.41,63.16c.79.14,1.82.39,2.58.61,1.68.15,3.49.04,5.17.07,3.42,0,6.91,0,10.34,0,9.76,0,19.54,0,29.29,0,6.88,0,13.8,0,20.68,0,3.13-.05,6.35.1,9.48-.07,1.92-.82,4.01-1.59,6.03-2.13,5.06-1.4,10.54-1.24,15.51.45,1.41.46,2.96,1.08,4.31,1.7,2.26.12,4.63.02,6.89.05,4.87,0,9.78,0,14.65,0,2.84,0,5.77,0,8.62,0,1.67-.11,3.57.28,5.17-.27,3.83-2.87,7.36-6.23,11.2-9.08h23.26"/><path class="b" d="M9.41,60.79c1.71.15,3.45.94,5.17.88,4.29,0,8.63,0,12.92,0,9.18,0,18.39,0,27.57,0,8.89,0,17.81,0,26.71,0,1.21.15,2.36-.89,3.45-1.3,2.19-1.05,4.55-2,6.89-2.65,6.27-1.88,13.09-.99,18.95,1.79,1.41.63,2.95,1.42,4.31,2.16,1.97.01,4.06,0,6.03,0,4.58,0,9.21,0,13.78,0,4.29,0,8.63,0,12.92,0,1.59-.63,2.95-2.07,4.31-3.07,2.56-2.06,5.12-4.32,7.75-6.28h22.4"/><path class="b" d="M9.41,58.49c1.71.17,3.52.53,5.17,1.02,4.29,0,8.63,0,12.92,0,8.61,0,17.24,0,25.85,0,8.61-.05,17.25.1,25.85-.06,3.55-2.09,7.26-4.1,11.2-5.36,6.18-2.1,13.04-1.56,18.95,1.14,1.72.75,3.53,1.69,5.17,2.6,1.07.53,2.25,1.47,3.45,1.68,6.02,0,12.07,0,18.09,0,4.29,0,8.63,0,12.92,0,4.28-2.69,7.98-6.34,12.06-9.31,7.17-.12,14.37,0,21.54-.04"/><path class="b" d="M9.41,56.23c2.32.08,4.62.81,6.89,1.12,3.42,0,6.91,0,10.34,0,8.89,0,17.81,0,26.71,0,4.87,0,9.78,0,14.65,0,1.68,0,3.49,0,5.17,0,1.1-.06,2.49.26,3.45-.44,4.07-2.59,8.31-5.14,12.92-6.64,5.87-2,12.4-1.68,18.09.73,4.24,1.63,8.01,4.35,12.06,6.34,10.04,0,20.11,0,30.15,0,4.15-2.84,7.99-6.23,12.06-9.18,2.51-.4,5.21-.07,7.75-.17,4.29,0,8.63,0,12.92,0"/><path class="b" d="M9.41,53.97c2.6.12,5.23.61,7.75,1.21,5.15,0,10.35,0,15.51,0,11.48,0,22.98,0,34.46,0,6.85-.08,4.66.81,10.34-2.97,4.25-2.74,8.82-5.26,13.78-6.38,3.71,0,7.49-.03,11.2.01,3.63.84,7.1,2.46,10.34,4.27,2.9,1.59,5.71,3.51,8.62,5.07,1.68,0,3.49,0,5.17,0,8.03-.09,16.11.18,24.12-.1,2.64-1.76,5.23-3.8,7.75-5.72,1.66-1.16,3.3-2.73,5.17-3.53,6.31,0,12.65,0,18.95,0"/><path class="b" d="M9.41,51.68c1.98.12,4.07.31,6.03.66,1.39.22,2.89.76,4.31.67,10.04,0,20.11,0,30.15,0,4.29,0,8.63,0,12.92,0,1.38,0,2.92,0,4.31,0,1.09-.04,2.41.15,3.45-.24,3.64-2.51,7.29-5.16,11.2-7.25,1.35-.67,2.83-1.54,4.31-1.86,1.38,0,2.93,0,4.31,0,3.71,0,7.49,0,11.2,0,1.68.06,3.51-.14,5.17.13,1.1.45,2.39,1.04,3.45,1.58,4.45,2.25,8.6,5.17,12.92,7.64,4.29.01,8.63,0,12.92,0,4.29,0,8.63,0,12.92,0,.77,0,1.84.06,2.58-.18,1.09-.71,2.39-1.6,3.45-2.36,2.84-2.04,5.69-4.24,8.62-6.16.59-.61,1.78-.71,2.58-.65,1.38,0,2.93,0,4.31,0,4,0,8.06,0,12.06,0"/><path class="b" d="M9.41,49.35c2.27.17,4.64.34,6.89.69,1.7.18,3.46.85,5.17.81,8.89,0,17.81,0,26.71,0,6.31,0,12.65,0,18.95,0,1.55-.55,2.93-1.87,4.31-2.75,2.23-1.58,4.56-3.22,6.89-4.64,1.06-.64,2.34-1.36,3.45-1.92,1.97-.1,4.06-.02,6.03-.05,4,0,8.06,0,12.06,0,2.84,0,5.77,0,8.62,0,1.53.13,2.95,1.28,4.31,1.94,2.31,1.32,4.65,2.82,6.89,4.24,1.65,1.05,3.46,2.18,5.17,3.14,3.13.08,6.34.01,9.48.03,4,0,8.06,0,12.06,0,1.67,0,3.49,0,5.17,0,.89-.12,1.85-.87,2.58-1.34,2.59-1.71,5.18-3.62,7.75-5.35,1.05-.71,2.35-1.53,3.45-2.18,0,0,.86-.48.86-.48h.86c5.15,0,10.35,0,15.51,0"/><path class="b" d="M9.41,46.95c2.85.28,5.78.45,8.62.82,1.99.18,4.04.8,6.03.91,7.74,0,15.52,0,23.26,0,5.73,0,11.5,0,17.23,0,3.6-2.05,6.86-4.8,10.34-7.04,1.06-.7,2.34-1.51,3.45-2.15,2.23-.37,4.63-.07,6.89-.16,4.58,0,9.21,0,13.78,0,2.55,0,5.2,0,7.75,0,1.65.13,3.64-.33,5.17.33,5.02,2.73,9.65,6.22,14.65,8.99,2.55.09,5.2.02,7.75.04,4,0,8.06,0,12.06,0,1.38,0,2.93,0,4.31,0,.77,0,1.85.07,2.58-.25,3.21-1.91,6.32-4.14,9.48-6.13,1.05-.67,2.35-1.43,3.45-2.03.71-.38,1.73-1.03,2.58-.95,4.58,0,9.21,0,13.78,0"/><path class="b" d="M9.41,44.48c3.7.5,7.49.6,11.2.96,2.86.21,5.76.81,8.62,1.08,6.88,0,13.8,0,20.68,0,3.71,0,7.49,0,11.2,0,1.89-.42,3.53-1.93,5.17-2.91,3.14-2.13,6.21-4.51,9.48-6.44,8.32,0,16.67,0,24.98,0,2.85,0,5.77,0,8.62,0,1.69.11,3.72-.41,5.17.69,3.2,1.9,6.34,4.07,9.48,6.08,1.36.87,2.89,1.8,4.31,2.57.77.02,1.82.01,2.58.01,4.87,0,9.78,0,14.65,0,1.68,0,3.49,0,5.17,0,1.08-.04,2.4.14,3.45-.22,4.06-2.29,7.93-5.05,12.06-7.21,1.34-.7,2.88-1.42,4.31-1.92.76,0,1.82,0,2.58,0,3.13,0,6.34,0,9.48,0"/><path class="b" d="M9.41,41.94c5.96,1.05,12.08.59,18.09,1.11,2.87.22,5.81.6,8.62,1.23,1.97.16,4.06.04,6.03.07,5.15,0,10.35,0,15.51,0,3.4-1.25,6.49-3.39,9.48-5.41,7.14-4.9,4.37-3.87,12.92-3.95,5.73,0,11.5,0,17.23,0,6.01.08,12.09-.15,18.09.09,3.5,2.11,6.91,4.52,10.34,6.74,1.35.85,2.86,1.84,4.31,2.52,1.08,0,2.37,0,3.45,0,6.31,0,12.65,0,18.95,0,.76,0,1.84.05,2.58-.16.76-.41,1.83-1,2.58-1.44,1.68-.97,3.49-2.05,5.17-3.01,3.5-2,7.24-3.85,11.2-4.73,2.84-.05,5.77,0,8.62-.02"/><path class="b" d="M9.41,39.35c7.07,1.67,14.38.08,21.54.61,3.23.11,6.33,1.24,9.48,1.83,3.11.56,6.34.37,9.48.4,4.62-.19,9.03-2.13,12.92-4.52,2.63-1.46,5.02-3.59,7.75-4.83,15.5.03,31.02-.05,46.52.03,2.9,1.81,5.78,3.83,8.62,5.74,1.93,1.22,3.89,2.75,6.03,3.58,5.15,0,10.35,0,15.51,0,2.84-.05,5.78.1,8.62-.07,1.4-.7,2.94-1.53,4.31-2.29,6.76-3.75,14.44-7.82,22.4-6"/><path class="b" d="M9.41,36.74c7.07,2.11,14.37-.22,21.54-.13,2.95-.05,5.78,1.01,8.62,1.66,3.39.56,6.93.55,10.34.15,4.28-.51,8.37-2.21,12.06-4.38,1.71-.99,3.51-2.13,5.17-3.18,1.05-.31,2.36-.15,3.45-.19,16.08,0,32.17,0,48.25,0,4.67,2.87,8.96,6.47,13.78,9.09,1.03.43,2.36.22,3.45.26,1.68,0,3.49,0,5.17,0,5.15,0,10.35,0,15.51,0,8.08-3.76,16.52-9.38,25.85-7.37"/><path class="b" d="M9.41,34.17c7.4,2.52,14.18-.46,21.54-.79,1.4-.02,2.95.13,4.31.45,1.39.35,2.88.98,4.31,1.17,2.83.42,5.79.24,8.62-.15,4.21-.58,8.32-2.06,12.06-4.06,1.4-.69,2.86-1.69,4.31-2.3,1.68,0,3.49,0,5.17,0,16.94,0,33.89,0,50.83,0,4.71,2.83,8.86,6.66,13.78,9.14,1.05.35,2.36.17,3.45.21,1.68,0,3.49,0,5.17,0,4.87,0,9.78,0,14.65,0,2.96-.95,5.73-2.66,8.62-3.81,5.1-2.22,10.8-3.79,16.37-2.67"/><path class="b" d="M9.41,31.67c9.41,3.3,15.5-1.97,24.12-1.33,1.76.15,3.47.99,5.17,1.36,3.42.62,6.99,0,10.34-.78,3.88-.95,7.66-2.51,11.2-4.34,1.04-.39,2.36-.19,3.45-.24,1.38,0,2.93,0,4.31,0,4.87,0,9.78,0,14.65,0,8.89,0,17.81,0,26.71,0,2.84,0,5.77,0,8.62,0,1.38,0,2.93,0,4.31,0,.82.41,1.84,1.15,2.58,1.68,2.58,1.8,5.11,3.86,7.75,5.56,1.32.76,2.77,1.85,4.31,2.11,7.17,0,14.37,0,21.54,0,1.16-.06,2.38-.81,3.45-1.23,1.67-.73,3.48-1.53,5.17-2.19,4.88-1.95,10.25-3.25,15.51-2.33"/><path class="b" d="M9.41,29.16c8.08,3.56,14.61-1.36,22.4-1.94,2.07-.13,4.12.53,6.03,1.23,3.43.89,7.04-.03,10.34-1.04,2.94-.82,5.73-2.32,8.62-3.24,2.56,0,5.2,0,7.75,0,7.74,0,15.52,0,23.26,0,8.03,0,16.09,0,24.12,0,2.84,0,5.77,0,8.62,0,4.09-.09,3.59-.17,6.89,2.31,3.52,2.53,6.99,5.79,11.2,7.04,6.88,0,13.8,0,20.68,0,1.16.08,2.38-.7,3.45-1.07,1.67-.68,3.48-1.42,5.17-2.04,4.64-1.72,9.69-2.82,14.65-2.11"/><path class="b" d="M9.41,26.5c7.15,4.06,13.63-.42,20.68-1.97,1.67-.32,3.52-.35,5.17.07,1.1.29,2.31.89,3.45,1.07,3.25.5,6.51-.71,9.48-1.9,1.68-.56,3.34-1.88,5.17-1.76,13.49,0,27,0,40.49,0,7.46,0,14.94,0,22.4,0,3.13,0,6.34,0,9.48,0,1.9.8,3.5,2.49,5.17,3.68,2.93,2.15,5.97,4.6,9.48,5.68,6.59,0,13.22,0,19.82,0,1.15.12,2.38-.63,3.45-.97,1.67-.64,3.48-1.34,5.17-1.92,4.4-1.52,9.12-2.5,13.78-2.01"/><path class="b" d="M9.41,23.7c7.88,4.68,12.28.74,19.82-1.65,6.49-1.93,7.03,1.26,12.06.72,2.75-.38,5.27-1.78,7.75-2.92,1.08,0,2.36,0,3.45,0,14.93,0,29.87,0,44.8,0,7.46,0,14.94,0,22.4,0,11.5,0,6.32-.82,15.51,5.57,2.13,1.45,4.45,2.92,6.89,3.79.76,0,1.82,0,2.58,0,5.15,0,10.35,0,15.51,0,1.13.11,2.41-.19,3.45-.65,1.67-.61,3.48-1.28,5.17-1.86,4.41-1.52,9.1-2.6,13.78-2.33"/><path class="b" d="M9.41,20.75c8.09,4.73,11.27,2.52,18.95-.88,2.42-.97,5.19-1.57,7.75-.83,1.35.48,2.84,1.08,4.31.94,1.45-.1,3-.62,4.31-1.23.78-.35,1.72-.99,2.58-1.07,1.38,0,2.92,0,4.31,0,15.79,0,31.59,0,47.38,0,8.03,0,16.09,0,24.12,0,1.97,0,4.06,0,6.03,0,1.33.19,2.37,1.55,3.45,2.27,1.63,1.29,3.43,2.65,5.17,3.79,1.86,1.24,3.96,2.36,6.03,3.21,1.07.14,2.37.07,3.45.08,4.58,0,9.21,0,13.78,0,1.13.11,2.4-.38,3.45-.75,1.67-.59,3.49-1.25,5.17-1.81,4.15-1.41,8.52-2.47,12.92-2.47"/><path class="b" d="M9.41,17.67c4.45,2.8,9.63,4.23,14.65,2.03,2.02-.8,3.99-1.99,6.03-2.75,2.16-.83,4.65-1.19,6.89-.47,1.04.42,2.31.79,3.45.72,1.82-.07,3.54-.99,5.17-1.7,4.29,0,8.63,0,12.92,0,24.41.07,48.83-.13,73.23.07,4.51,3.58,9.13,7.39,14.65,9.28,4.87,0,9.78,0,14.65,0,1.13.1,2.4-.29,3.45-.67,1.68-.57,3.49-1.22,5.17-1.81,4.16-1.47,8.5-2.71,12.92-2.99"/><path class="b" d="M9.41,14.77c7.96,4.7,12.66,3.94,20.68.17,2.13-.93,4.59-1.52,6.89-.93,1.07.33,2.31.79,3.45.72,1.48-.06,3-.71,4.31-1.37,1.97,0,4.06,0,6.03,0,16.65,0,33.32,0,49.97,0,8.03,0,16.09,0,24.12,0,12.39.04,6.49-1.05,16.37,5.57,1.6,1.04,3.42,2.02,5.17,2.78,1.04.4,2.3,1.07,3.45,1,4.28-.11,8.66.23,12.92-.14,6.61-1.89,12.94-4.95,19.82-5.87"/><path class="b" d="M9.41,12.13c9.31,4.99,13.15,3.31,22.4.14,1.64-.45,3.49-.7,5.17-.36,1.36.4,2.88.86,4.31.54,1.15-.2,2.37-.86,3.45-1.28,1.68,0,3.49,0,5.17,0,4,0,8.06,0,12.06,0,24.69,0,49.4,0,74.09,0,4.99,3.79,10.1,7.91,16.37,9.28,2.84.17,5.77.03,8.62.07,7.43-1.25,14.18-5.1,21.54-6.69"/><path class="b" d="M9.41,9.72c5.14,2.57,10.77,3.67,16.37,1.98,2.55-.65,5.12-1.62,7.75-1.88,1.09-.1,2.38-.03,3.45.23,1.34.47,2.89.85,4.31.5.81-.18,1.85-.6,2.58-1,.44-.35,1.17-.61,1.72-.53,6.31,0,12.65,0,18.95,0,24.69,0,49.4,0,74.09,0,18.05,14.62,24.69,8.92,43.94,1.8"/></svg>