<?xml version="1.0" encoding="UTF-8"?><svg id="a" xmlns="http://www.w3.org/2000/svg" width="1920" height="2400" viewBox="0 0 192 240"><defs><style>.b{fill:none;stroke:#fff;stroke-miterlimit:10;stroke-width:.3px;}.c{stroke-width:0px;}</style></defs><rect class="c" width="192" height="240"/><path class="b" d="M9.15,223.03c5.75,0,11.54,0,17.28,0,1.19-.09,2.52.02,3.46.85,1.38.88,2.92,1.85,4.32,2.69,6.54,3.75,12.28,7.46,19.88,4.05,10.47-4.82,15.56-8.48,27.65-5.21,10.63,2.79,21.74,9.03,32.84,4.89,4.5-1.53,8.23-4.65,12.1-7.27h56.17"/><path class="b" d="M9.15,220.85c4.01,0,8.08,0,12.1,0,1.09,0,2.37,0,3.46,0,1.19-.08,2.52.02,3.46.83,3.34,2.11,6.82,4.18,10.37,5.92,4.23,2.12,9.2,3.6,13.83,1.93,4.45-1.47,8.49-4.1,12.96-5.51,14.45-4.81,27.91,6.53,42.35,5.88,4.92-.14,9.7-1.95,13.83-4.57,2.06-1.28,4.13-2.8,6.05-4.27,1.64-.41,3.51-.12,5.19-.2,16.7,0,33.42,0,50.12,0"/><path class="b" d="M9.15,218.68c5.17,0,10.39,0,15.56,0,2.41,1.02,4.59,2.78,6.91,3.98,2.5,1.42,5.13,2.82,7.78,3.95,1.63.61,3.42,1.43,5.19,1.45,1.39,0,2.93,0,4.32,0,1.09-.04,2.41.15,3.46-.23,4.71-1.53,9.01-4.26,13.83-5.48,7.21-2.01,14.66.09,21.6,2.18,4.81,1.42,9.69,2.88,14.69,3.43,1.97.2,4.07.06,6.05.1,4.58-.22,9.03-1.93,12.96-4.23,2.7-1.49,5.14-3.59,7.78-5.16,17.86,0,35.72,0,53.58,0"/><path class="b" d="M9.15,216.51c4.59,0,9.23,0,13.83,0,5.92,3.28,11.63,7.24,18.15,9.3,3.13.21,6.36.03,9.51.09,1.45.07,3.01,0,4.32-.68,1.99-.79,4.06-1.74,6.05-2.53,5.7-2.47,12.1-2.93,18.15-1.56,6.38,1.31,12.58,3.55,19.01,4.64,2.83.3,5.79.05,8.64.13,1.68-.02,3.51.04,5.19-.04,6.79-1.33,12.64-5.34,18.15-9.33,17.57-.04,35.15,0,52.72-.01"/><path class="b" d="M9.15,214.34h12.1c3.96,2.37,7.94,4.86,12.1,6.89,1.94.88,3.95,2.05,6.05,2.49.78,0,1.82,0,2.59,0,2.56,0,5.21,0,7.78,0,1.68-.08,3.54.19,5.19-.18,3.13-1.15,6.26-2.57,9.51-3.41,5.37-1.49,11.06-.96,16.42.29,4.6,1.04,9.19,2.39,13.83,3.29,6.04.06,12.11,0,18.15.02,6.76-1.26,12.6-5.51,18.15-9.37,17.28-.04,34.57,0,51.85-.02"/><path class="b" d="M9.15,212.17c2.27,0,4.64,0,6.91,0,1.4.1,3.15-.37,4.32.59,5.28,3.23,10.67,6.46,16.42,8.79,2.56,0,5.21,0,7.78,0,3.72-.01,7.51.03,11.23-.02,4.72-1.71,9.6-3.49,14.69-3.47,6.77-.05,13.31,2.1,19.88,3.45,7.77.1,15.57,0,23.33.04,1.46-.05,2.97-.82,4.32-1.32,2.68-1.12,5.32-2.59,7.78-4.14,1.4-.88,2.95-1.91,4.32-2.84.68-.51,1.68-1.28,2.59-1.08,16.7,0,33.42,0,50.12,0"/><path class="b" d="M9.15,209.99c2.85.09,5.81-.19,8.64.14,1.98,1.19,4.06,2.46,6.05,3.63,2.23,1.31,4.59,2.64,6.91,3.79,1.37.61,2.83,1.55,4.32,1.82,2.85,0,5.79,0,8.64,0,4.59-.09,9.26.19,13.83-.12,6.56-2.32,13.02-3.04,19.88-1.68,2.87.5,5.79,1.18,8.64,1.79,6.32.03,12.69,0,19.01.01,1.98,0,4.07,0,6.05,0,1.38-.06,2.97.16,4.32-.17,5.92-2.08,11.32-5.52,16.42-9.14,16.98-.2,34,0,50.99-.07"/><path class="b" d="M9.15,207.82c2.26.1,4.68-.22,6.91.17,1.39.83,2.93,1.76,4.32,2.59,2.81,1.69,5.72,3.4,8.64,4.89,1.08.55,2.36,1.18,3.46,1.68.78.06,1.81.05,2.59.05,7.48,0,14.99,0,22.47,0,2.32,0,4.61-1.02,6.91-1.23,3.12-.47,6.38-.43,9.51-.05,2.59.28,5.21.9,7.78,1.29,5.46,0,10.96,0,16.42,0,3.72,0,7.51,0,11.23,0,2.58-.12,5.4.46,7.78-.79,3.62-1.48,7.08-3.49,10.37-5.59,1.4-.9,2.99-1.89,4.32-2.89,1.07-.18,2.38-.09,3.46-.11,15.84,0,31.69,0,47.53,0"/><path class="b" d="M9.15,205.65c1.09,0,2.37,0,3.46,0,.86-.08,1.91.14,2.59.67,3.43,2.02,6.88,4.16,10.37,6.08,1.66.9,3.45,1.88,5.19,2.63,2.85,0,5.79,0,8.64,0,6.9,0,13.84,0,20.74,0,2.27-.17,4.62-.75,6.91-.75,3.16-.12,6.39.27,9.51.75,1.68,0,3.5,0,5.19,0,10.94,0,21.9,0,32.84,0,6.28-1.92,11.77-5.91,17.28-9.38h50.99"/><path class="b" d="M9.15,203.48c1.09.02,2.38-.08,3.46.12,1.4.79,2.94,1.7,4.32,2.52,3.4,2.02,6.85,4.11,10.37,5.93.46.23,1.26.64,1.73.82,1.39,0,2.93,0,4.32,0,3.43,0,6.94,0,10.37,0,9.79.04,19.6-.09,29.38,0,9.21,0,18.44,0,27.65,0,3.14,0,6.36,0,9.51,0,1.38-.03,2.94.08,4.32-.08.77-.31,1.83-.75,2.59-1.09,4.54-2.05,8.79-4.8,12.96-7.5.62-.62,1.75-.79,2.59-.71,1.38,0,2.94,0,4.32,0,15.26,0,30.54,0,45.8,0"/><path class="b" d="M9.15,201.31c.47,0,1.27,0,1.73.02.47.24,1.27.72,1.73.97,1.1.62,2.37,1.37,3.46,2.01,3.69,2.18,7.41,4.43,11.23,6.36,14.11.07,28.24,0,42.35.03,9.79,0,19.6,0,29.38,0,3.14,0,6.36,0,9.51,0,2.31-.08,4.83.4,6.91-.82,3.59-1.58,7.07-3.59,10.37-5.7,1.39-.89,2.94-1.89,4.32-2.79,1.38-.14,2.94-.05,4.32-.07,16.13,0,32.27,0,48.39,0"/><path class="b" d="M9.15,199.13c3.88,1.79,7.51,4.23,11.23,6.31,1.97,1,3.9,2.52,6.05,3.07,13.53,0,27.08,0,40.62,0,10.07,0,20.17,0,30.25,0,3.43,0,6.94,0,10.37,0,1.38,0,2.94,0,4.32,0,.81-.17,1.84-.65,2.59-.98,4.86-2.18,9.4-5.1,13.83-8.03.99-.59,2.36-.31,3.46-.36,1.38,0,2.94,0,4.32,0,15.55,0,31.12,0,46.67,0"/><path class="b" d="M9.15,197.61c5.26,2.73,10.3,5.96,15.56,8.7,9.78.11,19.6,0,29.38.04,9.21,0,18.44,0,27.65,0,9.5,0,19.02,0,28.52,0,2.12-.35,4.11-1.66,6.05-2.56,3.89-1.98,7.53-4.53,11.23-6.83h55.31"/><path class="b" d="M9.15,196.11c4.96,2.53,9.72,5.55,14.69,8.07,10.07,0,20.17,0,30.25,0,8.92,0,17.87,0,26.79,0,9.21,0,18.44,0,27.65,0,2.12-.32,4.11-1.66,6.05-2.54,3.9-1.98,7.55-4.51,11.23-6.85h57.04"/><path class="b" d="M9.15,194.54c3.49,1.75,6.94,3.74,10.37,5.62,1.08.59,2.36,1.27,3.46,1.83,1.39.03,2.93.01,4.32.02,13.25,0,26.51,0,39.75,0,9.21,0,18.44,0,27.65,0,4.01,0,8.09,0,12.1,0,2.42-.53,4.7-1.97,6.91-3.04,3.59-1.84,6.91-4.3,10.37-6.34,6.04,0,12.11,0,18.15,0,13.53,0,27.08,0,40.62,0"/><path class="b" d="M9.15,192.9c2.9,1.41,5.8,3.01,8.64,4.53,1.68.77,3.35,2.09,5.19,2.41,3.44,0,6.94,0,10.37,0,11.8,0,23.63,0,35.43,0,9.21,0,18.44,0,27.65,0,2.85,0,5.79,0,8.64,0,4.6-1.53,8.86-4.16,12.96-6.72,1.4-.82,2.79-2.09,4.32-2.66,1.98,0,4.07,0,6.05,0,4.59,0,9.24,0,13.83,0,13.53,0,27.08,0,40.62,0"/><path class="b" d="M9.15,191.18c4.36,2.03,8.6,4.45,12.96,6.47,4.59,0,9.23,0,13.83,0,12.09,0,24.2,0,36.3,0,10.36,0,20.75,0,31.11,0,5.55-2.04,10.68-5.21,15.56-8.52.89-.87,2.29-.94,3.46-.87,1.68,0,3.5,0,5.18,0,4.59,0,9.24,0,13.83,0,13.82,0,27.66,0,41.48,0"/><path class="b" d="M9.15,189.4c4.06,1.82,8.05,3.92,12.1,5.76.76.41,1.77.33,2.59.32,1.39,0,2.93,0,4.32,0,4.3,0,8.66,0,12.96,0,14.4,0,28.81,0,43.21,0,5.75,0,11.54,0,17.28,0,3.94-1.37,7.67-3.51,11.23-5.67,1.1-.68,2.39-1.53,3.46-2.25.74-.49,1.69-1.31,2.59-1.46,21.31,0,42.64,0,63.95,0"/><path class="b" d="M9.15,187.55c4.34,1.83,8.6,3.97,12.96,5.74,6.9.08,13.84,0,20.74.03,14.97,0,29.96,0,44.94,0,4.01,0,8.09,0,12.1,0,2.43-.47,4.7-1.93,6.91-2.99,2.34-1.26,4.71-2.71,6.91-4.18,1.09-.69,2.28-1.69,3.46-2.21.42,0,1.31,0,1.73,0,21.31,0,42.64,0,63.95,0"/><path class="b" d="M9.15,185.63c4.32,1.69,8.59,3.67,12.96,5.25,1.04.43,2.36.21,3.46.26,1.39,0,2.93,0,4.32,0,4.59,0,9.23,0,13.83,0,15.26,0,30.54,0,45.8,0,3.14,0,6.36,0,9.51,0,3.05-.8,5.88-2.58,8.64-4.08,1.72-1.01,3.54-2.17,5.18-3.29.77-.53,1.83-1.27,2.59-1.82.75-.25,1.82-.2,2.59-.2,21.6,0,43.21,0,64.81,0"/><path class="b" d="M9.15,183.65c4.88,1.75,9.7,3.81,14.69,5.21,7.17.31,14.42.02,21.6.12,15.26,0,30.54,0,45.8,0,2.56,0,5.22,0,7.78,0,3.28-1.37,6.5-3.11,9.51-5,2.03-1.28,4.12-2.72,6.05-4.14,1.33-.45,2.94-.16,4.32-.24,21.31,0,42.64,0,63.95,0"/><path class="b" d="M9.15,181.6c5.69,1.83,11.36,4,17.28,5,3.4.45,6.94.09,10.37.2,5.75,0,11.54,0,17.28,0,8.06,0,16.14,0,24.2,0,6.9,0,13.84,0,20.74,0,5.63-2.24,10.69-5.83,15.56-9.38h68.27"/><path class="b" d="M9.15,179.49c4.57,1.27,9.15,2.73,13.83,3.54,3.69.67,7.5.79,11.23.87,2.86.03,5.78.61,8.64.51,3.73-.09,7.5-.71,11.23-.77,3.18-.09,6.38.53,9.51.98,4.59,0,9.24,0,13.83,0,7.48,0,14.99,0,22.47,0,5.3-2.34,10.11-5.77,14.69-9.28,22.74-.3,45.52,0,68.27-.1"/><path class="b" d="M9.15,177.34c5.68,1.33,11.42,2.81,17.28,2.96,3.44.12,6.93-.26,10.37-.35,3.15-.04,6.36.25,9.51.07,2.56-.11,5.21-.29,7.78-.15,3.49.23,7,.94,10.37,1.86,1.36.44,2.87.88,4.32.73,1.98,0,4.07,0,6.05,0,5.46,0,10.96,0,16.42,0,3.43-.09,6.96.19,10.37-.13,4.95-2.5,9.48-5.84,13.83-9.26h67.41"/><path class="b" d="M9.15,175.18c5.4,1.02,10.89,2.13,16.42,2,4.92-.06,9.78-1.25,14.69-1.5,5.45,0,11.02-.47,16.42.53,4.47.75,8.79,2.32,12.96,4.04,2.27.07,4.64.01,6.91.03,5.75,0,11.54,0,17.28,0,1.98,0,4.07,0,6.05,0,1.11-.07,2.51.27,3.46-.47,4.29-2.38,8.3-5.37,12.1-8.46.94-.72,2.35-.39,3.46-.45,1.38,0,2.94,0,4.32,0,4.3,0,8.66,0,12.96,0,15.55,0,31.12,0,46.67,0"/><path class="b" d="M9.15,173.06c5.98.93,12.09,1.83,18.15,1.1,4.65-.52,9.19-1.92,13.83-2.51,6.33-.66,12.89-.41,19.01,1.46,3.87,1.15,7.59,2.95,11.23,4.66.72.41,1.8.33,2.59.33,1.38,0,2.94,0,4.32,0,3.72,0,7.51,0,11.23,0,4.3,0,8.66,0,12.96,0,1.88-.48,3.54-1.92,5.19-2.9,3.01-1.93,5.71-4.47,8.64-6.48h66.54"/><path class="b" d="M9.15,171.01c12.45,1.71,17.46,1.27,29.38-2.29,7.04-2.13,14.67-1.76,21.6.6,4.83,1.61,9.29,4.23,13.83,6.5,9.19.31,18.45.01,27.65.11.86.12,1.9-.31,2.59-.79,1.11-.66,2.4-1.5,3.46-2.23,1.73-1.2,3.55-2.59,5.19-3.92,1.09-.76,2.12-2.15,3.46-2.44,3.72,0,7.51,0,11.23,0,18.43,0,36.88,0,55.31,0"/><path class="b" d="M9.15,168.99c16.17,1.94,19.02.14,33.7-4.59,4.3-.06,8.66,0,12.96-.02,6.56,1.39,12.33,5.06,18.15,8.23.76.39,1.74.99,2.59,1.15.44,0,1.29,0,1.73,0,1.98,0,4.07,0,6.05,0,5.46,0,10.96,0,16.42,0,.83.06,1.92-.06,2.59-.6,1.11-.64,2.4-1.47,3.46-2.19,1.74-1.2,3.55-2.59,5.19-3.92,1.09-.83,2.23-2.05,3.46-2.67,2.27,0,4.64,0,6.91,0,20.16,0,40.33,0,60.49,0"/><path class="b" d="M9.15,167.01c7.47.89,15.25,1.28,22.47-1.21,3.21-1,6.32-2.52,9.51-3.59,6.33,0,12.69,0,19.01,0,4.61,1.54,8.75,4.33,12.96,6.7,1.66.91,3.41,2.02,5.19,2.68,1.08,0,2.38,0,3.46,0,6.33,0,12.69,0,19.01,0,1.89-.34,3.56-1.81,5.19-2.78,3.04-1.93,5.69-4.59,8.64-6.61h68.27"/><path class="b" d="M9.15,165.02c7.46.97,15.28,1.4,22.47-1.21,2.03-.7,4.1-1.6,6.05-2.49,1.09-.42,2.26-1.28,3.46-1.28,7.19,0,14.41,0,21.61,0,3.64,1.49,6.97,3.79,10.37,5.74,1.37.81,2.91,1.69,4.32,2.41,1.06.46,2.25,1.38,3.46,1.23,5.75,0,11.54,0,17.28,0,.43,0,1.3,0,1.73,0,.79-.36,1.84-.91,2.59-1.33,3.05-1.74,5.93-3.93,8.64-6.16.74-.6,1.69-1.53,2.59-1.89,1.68,0,3.5,0,5.19,0,21.31,0,42.64,0,63.95,0"/><path class="b" d="M9.15,163c7.73,1.23,15.93,1.72,23.33-1.29,1.72-.66,3.53-1.49,5.19-2.32,1.09-.49,2.27-1.32,3.46-1.53,5.17,0,10.39,0,15.56,0,1.68,0,3.5,0,5.19,0,.78,0,1.82,0,2.59,0,.46.15,1.31.57,1.73.82,3.47,1.94,6.87,4.16,10.37,6.06,1.91.91,3.92,2.27,6.05,2.5,4.88,0,9.81,0,14.69,0,1.19.04,2.41-.76,3.46-1.23,2.08-1.06,4.16-2.41,6.05-3.78,1.1-.8,2.39-1.79,3.46-2.65.74-.57,1.65-1.53,2.59-1.73,3.43,0,6.94,0,10.37,0,19.87,0,39.76,0,59.63,0"/><path class="b" d="M9.15,160.94c12.95,2.57,20.6,1.65,31.98-5.1,2.53-.34,5.22-.06,7.78-.15,4.88,0,9.81,0,14.69,0,.78,0,1.83-.04,2.59.14.78.44,1.82,1.05,2.59,1.5,1.98,1.17,4.05,2.45,6.05,3.58,2.99,1.69,6.17,3.28,9.51,4.16,3.43,0,6.94,0,10.37,0,1.47-.01,2.98-.78,4.32-1.31,2.73-1.2,5.36-2.85,7.78-4.58,1.1-.79,2.39-1.77,3.46-2.6.35-.38,1.2-.88,1.73-.9,1.38,0,2.94,0,4.32,0,22.18,0,44.37,0,66.54,0"/><path class="b" d="M9.15,158.82c8.25,2.12,17.14,2.87,25.06-.84,1.74-.76,3.54-1.77,5.19-2.72,1.09-.56,2.24-1.51,3.46-1.74,5.75,0,11.54,0,17.28,0,7.68.05,5.48-.75,12.1,3.17,6.2,3.71,13.32,7.2,20.74,5.87,4.71-.78,9.04-3.11,12.96-5.75,5.22-3.46,2.97-3.4,9.51-3.29,22.47,0,44.94,0,67.41,0"/><path class="b" d="M9.15,156.64c14,4.17,21.6,3.16,33.7-4.86.43-.32,1.2-.51,1.73-.43,1.09,0,2.37,0,3.46,0,2.56,0,5.21,0,7.78,0,3.43,0,6.94,0,10.37,0,.91-.17,1.83.57,2.59.95,1.68.94,3.49,1.97,5.19,2.88,4.77,2.59,10.03,4.86,15.56,4.77,4.91-.04,9.64-1.94,13.83-4.39,1.42-.83,2.97-1.82,4.32-2.75.43-.3,1.3-.9,1.73-1.21.73-.33,1.81-.26,2.59-.26,23.62,0,47.25,0,70.86,0"/><path class="b" d="M9.15,154.42c10.77,3.93,20.38,4.89,30.25-1.85,1.69-1.05,3.49-2.22,5.19-3.25,2.53-.34,5.22-.06,7.78-.15,4.3,0,8.66,0,12.96,0,1.23-.17,2.44.44,3.46,1.05,1.38.74,2.93,1.58,4.32,2.3,4.31,2.24,8.93,4.26,13.83,4.65,5.78.52,11.46-1.54,16.42-4.35,7.74-4.46,3.77-3.62,12.96-3.66,22.18,0,44.37,0,66.54,0"/><path class="b" d="M9.15,152.39c12.28,4.93,20.86,5.81,31.98-2.22,1.68-1.03,3.38-2.37,5.19-3.17,1.39,0,2.93,0,4.32,0,4.59,0,9.23,0,13.83,0,.44,0,1.29.01,1.73.04.44.22,1.29.67,1.73.9,1.38.73,2.93,1.54,4.32,2.24,3.81,1.92,7.85,3.65,12.1,4.31,5.94.99,11.99-.63,17.28-3.31,10.23-5.3,4.39-4.06,16.42-4.18,21.6,0,43.21,0,64.81,0"/><path class="b" d="M9.15,150.67c3.35,1.4,6.82,2.75,10.37,3.53,1.69.04,3.5.01,5.19.02,1.98-.01,4.07.03,6.05-.03,1.76-.46,3.59-1.21,5.19-2.08,2.66-1.5,5.23-3.34,7.78-5.02,1.07-.71,2.35-1.53,3.46-2.17,1.08-.13,2.37-.07,3.46-.08,4.3,0,8.66,0,12.96,0,1.23-.17,2.44.4,3.46,1.01,1.08.56,2.37,1.24,3.46,1.79,3.82,1.93,7.86,3.7,12.1,4.46,7.16,1.41,14.42-.86,20.74-4.14,2.02-.92,3.96-2.36,6.05-3.11,3.14,0,6.36,0,9.51,0,21.31,0,42.64,0,63.95,0"/><path class="b" d="M9.15,149.21c2.53,1,5.11,2.28,7.78,2.84,1.98,0,4.07,0,6.05,0,2.27,0,4.64,0,6.91,0,1.39-.1,3.06.31,4.32-.4,3.38-1.6,6.41-3.99,9.51-6.05,1.36-.92,2.89-1.92,4.32-2.73.76-.27,1.8-.21,2.59-.21,4.01,0,8.08,0,12.1,0,1.23-.17,2.43.62,3.46,1.17,1.38.73,2.92,1.54,4.32,2.24,3.81,1.88,7.87,3.5,12.1,4.08,6.86,1.02,13.73-1.09,19.88-4,2.31-1.07,4.66-2.3,6.91-3.48,3.14,0,6.36,0,9.51,0,21.31,0,42.64,0,63.95,0"/><path class="b" d="M9.15,147.95c1.68.64,3.43,1.54,5.18,1.92,2.27,0,4.64,0,6.91,0,4.59-.07,9.25.15,13.83-.1,3.62-2.01,6.9-4.72,10.37-6.97,1.35-.8,2.77-1.96,4.32-2.32.78,0,1.82,0,2.59,0,3.43,0,6.94,0,10.37,0,6.56,3.39,13.17,7.45,20.74,7.85,6.92.49,13.66-1.91,19.88-4.71,2.3-.96,4.57-2.3,6.91-3.14,2.56,0,5.22,0,7.78,0,21.6,0,43.21,0,64.81,0"/><path class="b" d="M9.15,146.82c.78.29,1.77.74,2.59.88,1.69,0,3.5,0,5.19,0,4.01,0,8.08,0,12.1,0,1.39,0,2.93,0,4.32,0,1.13-.04,2.55.25,3.46-.6,3.19-2.15,6.27-4.61,9.51-6.69,3.57-2.3,3.65-2.17,7.78-2.1,2.56.01,5.22-.03,7.78.02,1.39.77,2.93,1.65,4.32,2.42,5.54,3.14,11.67,5.77,18.15,5.69,6.3,0,12.39-2.15,18.15-4.53,1.99-.82,4.08-1.74,6.05-2.61,1.04-.45,2.28-1.14,3.46-1,23.62,0,47.25,0,70.86,0"/><path class="b" d="M9.15,145.53c8.63,0,17.29,0,25.93,0,1.33.22,2.47-.83,3.46-1.55,1.39-1.02,2.93-2.19,4.32-3.21,2.43-1.71,4.95-3.62,7.78-4.63,1.68,0,3.5,0,5.19,0,1.68.03,3.51-.07,5.19.06,1.7.93,3.49,2.03,5.19,2.97,5.98,3.51,12.86,5.96,19.88,5.18,6.3-.6,12.3-2.93,18.15-5.22,1.68-.67,3.5-1.4,5.19-2.08,1.05-.41,2.29-1.06,3.46-.93,23.33,0,46.67,0,70,0"/><path class="b" d="M9.15,143.36c8.63,0,17.29,0,25.93,0,1.36.23,2.47-.78,3.46-1.54,1.39-1.05,2.92-2.24,4.32-3.28,2.41-1.72,4.94-3.62,7.78-4.56,1.68,0,3.5,0,5.19,0,1.39.02,2.94-.06,4.32.07,1.74.88,3.49,2.05,5.19,3,6.18,3.78,13.43,6.26,20.74,5.2,6.57-.82,12.82-3.28,19.01-5.52,1.68-.62,3.5-1.29,5.19-1.9,1.06-.36,2.31-.97,3.46-.85,23.04,0,46.09,0,69.14,0"/><path class="b" d="M9.15,141.19c8.34,0,16.72,0,25.06,0,.46,0,1.28,0,1.73,0,.48-.21,1.33-.77,1.73-1.12,1.39-1.08,2.92-2.29,4.32-3.36,2.41-1.82,4.98-3.65,7.78-4.82,1.97-.19,4.07-.04,6.05-.09,1.09,0,2.37,0,3.46,0,1.76.84,3.5,2.05,5.19,3.02,6.17,3.87,13.39,6.37,20.74,5.29,9.86-1.32,18.98-5.73,28.52-8.32,23.04,0,46.09,0,69.14,0"/><path class="b" d="M9.15,139.01c8.06,0,16.14,0,24.2,0,1.27.07,2.51.02,3.46-.93,1.4-1.09,2.92-2.33,4.32-3.41,2.41-1.86,4.98-3.74,7.78-4.95,1.97-.18,4.07-.04,6.05-.08,1.09,0,2.37,0,3.46,0,1.84.6,3.5,1.99,5.19,2.91,6.2,3.94,13.33,6.44,20.74,5.34,10.39-1.41,20.05-6.09,30.25-8.25,22.47,0,44.94,0,67.41,0l.86.62"/><path class="b" d="M9.15,136.84c7.77,0,15.57,0,23.33,0,.46,0,1.28,0,1.73,0,.49-.15,1.33-.67,1.73-1,1.42-1.07,2.93-2.34,4.32-3.43,2.41-1.83,4.92-3.88,7.78-4.95,1.98,0,4.07,0,6.05,0,1.39.04,2.95-.11,4.32.12,1.41.8,2.93,1.8,4.32,2.63,6.24,3.98,13.28,6.43,20.74,5.32,5-.63,9.87-2.18,14.69-3.62,5.42-1.6,10.89-3.28,16.42-4.45,22.17.1,44.38-.19,66.54.1.43.4,1.3,1.21,1.73,1.62"/><path class="b" d="M9.15,134.67c7.48,0,14.99,0,22.47,0,1.7.28,3.04-1.06,4.32-1.96,1.99-1.53,4.01-3.25,6.05-4.72,1.33-.96,2.86-1.95,4.32-2.68,1.98-.05,4.07-.01,6.05-.02,6.05.04,4.38-.63,9.51,2.57,6.26,3.99,13.26,6.35,20.74,5.2,5.29-.7,10.43-2.36,15.56-3.8,5.12-1.48,10.34-2.78,15.56-3.87,21.87-.3,43.79,0,65.68-.1,1.24.64,2.39,1.88,3.46,2.76"/><path class="b" d="M9.15,132.5c6.61,0,13.26,0,19.88,0,.8,0,1.84.07,2.59-.23,1.13-.64,2.41-1.49,3.46-2.25,2.85-2.1,5.59-4.54,8.64-6.36.95-.77,2.32-.52,3.46-.55,1.98,0,4.07,0,6.05,0,1.09,0,2.37,0,3.46,0,1.84.59,3.47,2.02,5.19,2.9,7.46,4.56,14.8,5.84,23.33,3.88,9.23-2.12,18.28-5.12,27.65-6.63,2.53-.35,5.22-.06,7.78-.15,4.3,0,8.66,0,12.96,0,7.48,0,14.99,0,22.47,0,5.17,0,10.39,0,15.56,0,1.97,0,4.07,0,6.05,0,.51.08,1.37.59,1.73.96,1.08.86,2.38,1.89,3.46,2.76"/><path class="b" d="M9.15,130.33c6.33,0,12.69,0,19.01,0,1.22-.05,2.41-.96,3.46-1.5,2.08-1.23,4.15-2.74,6.05-4.23,1.07-.82,2.34-1.78,3.46-2.52.76-.45,1.64-1.27,2.59-1.13,3.14,0,6.36,0,9.51,0,1.09.03,2.39-.1,3.46.15,1.95,1.19,4.02,2.44,6.05,3.5,7.54,4.16,15.14,4.31,23.33,2.24,8.58-2.15,17.14-4.6,25.93-5.78,6.59-.32,13.27-.02,19.88-.12,7.19,0,14.41,0,21.6,0,6.04,0,12.11,0,18.15,0,1.68.1,3.57-.25,5.19.24,1.99,1.4,4.07,2.93,6.05,4.35"/><path class="b" d="M9.15,128.15c5.46,0,10.96,0,16.42,0,5.84-1.88,10.47-6.14,15.56-9.38,4.3,0,8.66,0,12.96,0,.46-.02,1.28.02,1.73.07.45.26,1.28.77,1.73,1.02,1.08.62,2.35,1.35,3.46,1.92,3.73,1.97,7.86,3.41,12.1,3.66,6.77.41,13.37-1.71,19.88-3.27,7.92-1.89,16.02-3.69,24.2-3.39,12.96,0,25.93,0,38.89,0,6.04,0,12.11,0,18.15,0,3.02,1.45,5.75,3.65,8.64,5.34"/><path class="b" d="M9.15,125.98c4.3,0,8.66,0,12.96,0,6.43-1.71,11.81-5.8,17.28-9.38,4.59,0,9.23,0,13.83,0,.46,0,1.28,0,1.73.03.45.25,1.28.73,1.73.97,1.08.6,2.35,1.28,3.46,1.82,3.5,1.73,7.33,2.99,11.23,3.27,8.85.56,17.32-2.83,25.93-4.33,4.27-.82,8.63-1.37,12.96-1.74,4.59-.07,9.24,0,13.83-.03,11.23,0,22.48,0,33.7,0,3.14,0,6.36,0,9.51,0,1.68.08,3.55-.21,5.19.2,3.47,1.85,6.89,3.94,10.37,5.78"/><path class="b" d="M9.15,123.81c3.14,0,6.36,0,9.51,0,7-1.52,13.08-5.57,19.01-9.38,4.88,0,9.81,0,14.69,0,.46,0,1.28,0,1.73.02.45.23,1.28.69,1.73.92,1.08.56,2.35,1.2,3.46,1.7,3.26,1.49,6.79,2.57,10.37,2.85,8.82.64,17.31-2.63,25.93-3.95,9.4-1.73,19-1.58,28.52-1.54,11.8,0,23.63,0,35.43,0,3.14,0,6.36,0,9.51,0,4.71,1.9,9.16,4.51,13.83,6.5"/><path class="b" d="M9.15,121.64c2.56-.01,5.21.03,7.78-.02,1.71-.5,3.53-1.12,5.19-1.79,3.29-1.31,6.48-3.03,9.51-4.86,1.09-.66,2.37-1.46,3.46-2.13.48-.36,1.13-.65,1.73-.59,5.17,0,10.39,0,15.56,0,1.21-.11,2.37.87,3.46,1.28,1.93.9,4.01,1.77,6.05,2.39,10,3.28,20.29-.49,30.25-2.06,8.84-1.53,17.85-1.47,26.79-1.42,6.9-.05,13.84-.29,20.74-.2,5.75,0,11.54,0,17.28,0,1.68,0,3.5,0,5.19,0,1.4.01,3-.14,4.32.44,5.56,1.89,10.87,4.56,16.42,6.46"/><path class="b" d="M9.15,119.47c2.27-.01,4.64.03,6.91-.02,3.57-1.17,7.07-2.73,10.37-4.52,1.71-.93,3.52-2,5.19-3,1.33-.71,2.71-2.03,4.32-1.83,5.46,0,10.96-.01,16.42,0,5.15,2.4,10.68,4.37,16.42,4.39,5.24.08,10.43-1.04,15.56-1.96,4.84-.89,9.77-1.57,14.69-1.8,9.21-.46,18.44.35,27.65.31,7.21.06,14.4-1.13,21.61-.95,3.14,0,6.36,0,9.51,0,8.69,1.03,16.66,5.01,25.06,7.17"/><path class="b" d="M9.15,117.29c2.27-.04,4.65.09,6.91-.07,3.9-1.45,7.66-3.39,11.23-5.5,1.4-.82,2.93-1.76,4.32-2.6.77-.43,1.69-1.14,2.59-1.22,5.17,0,10.39,0,15.56,0,1.83-.25,3.52.7,5.19,1.29,1.94.71,4.03,1.35,6.05,1.79,6.56,1.48,13.33.47,19.88-.59,4.85-.78,9.78-1.43,14.69-1.61,14.41-.49,28.8,1.82,43.21.8,6.89-.37,13.88-.99,20.74.1,7.92,1.17,15.46,4.14,23.33,5.56"/><path class="b" d="M9.15,115.12c2.27,0,4.64,0,6.91,0,6.21-2.21,11.48-6.4,17.28-9.38,4.3,0,8.66,0,12.96,0,1.39,0,2.93,0,4.32,0,1.44.21,2.92.91,4.32,1.29,3.34,1.04,6.87,1.78,10.37,1.96,8.69.38,17.26-1.85,25.93-2.04,14.71-.46,29.36,1.97,44.07,1.78,7.77-.09,15.59-.88,23.33.08,8.14.93,16.05,3.42,24.2,4.34"/><path class="b" d="M9.15,112.95c2.56-.08,5.24.18,7.78-.13,5.51-2.36,10.4-5.97,15.56-8.96,1.31-.53,2.93-.2,4.32-.29,1.98,0,4.07,0,6.05,0,2.56,0,5.21,0,7.78,0,4.25,1.12,8.55,2.41,12.96,2.7,7.79.6,15.56-.93,23.33-1.12,7.49-.28,15,.35,22.47.92,8.05.59,16.13,1.16,24.2,1.41,8.06.17,16.16-.48,24.2.28,8.39.72,16.65,2.72,25.06,3.2"/><path class="b" d="M9.15,110.78c2.56,0,5.21,0,7.78,0,3.97-1.65,7.63-4.06,11.23-6.37,1.65-1.03,3.4-2.22,5.19-3.01,2.56,0,5.21,0,7.78,0,3.43.07,6.95-.15,10.37.1,3.68.93,7.45,1.79,11.23,2.14,7.47.7,14.99-.33,22.47-.33,8.08-.07,16.15.77,24.2,1.33,8.34.55,16.71.98,25.06,1.33,7.77.2,15.58-.04,23.33.57,8.35.61,16.67,2.05,25.06,2.16"/><path class="b" d="M9.15,108.61c2.56,0,5.21,0,7.78,0,3.03-1.14,5.9-2.86,8.64-4.56,2.81-1.62,5.5-3.9,8.64-4.82,1.98,0,4.07,0,6.05,0,4.01.06,8.09-.13,12.1.08,3.69.81,7.47,1.57,11.23,1.91,8.04.69,16.15,0,24.2.46,7.2.34,14.41,1.07,21.6,1.44,13.24.58,26.51,1,39.75,1.47,11.24.3,22.44,1.98,33.7,1.82"/><path class="b" d="M9.15,106.43c2.27,0,4.64,0,6.91,0,6-1.57,10.92-5.77,16.42-8.46.76-.35,1.76-.81,2.59-.93.78,0,1.81,0,2.59,0,1.69,0,3.5,0,5.18,0,3.43,0,6.94,0,10.37,0,4.01.64,8.04,1.57,12.1,1.89,8.91.73,17.89.63,26.79,1.44,6.6.52,13.25.97,19.88,1.1,8.06.15,16.15.06,24.2.49,7.77.38,15.57.85,23.33,1.37,7.75.53,15.56,1.04,23.33.73"/><path class="b" d="M9.15,104.26c1.98,0,4.07,0,6.05,0,7.17-1.74,12.95-6.81,19.88-9.12,1.32-.5,2.93-.18,4.32-.26,2.27,0,4.64,0,6.91,0,3.14.02,6.36-.05,9.51.04,3.7.75,7.48,1.44,11.23,1.86,9.77.95,19.6,1.52,29.38,2.29,12.94,1.01,25.94-.06,38.89.46,15.83.86,31.65,3.07,47.53,2.21"/><path class="b" d="M9.15,102.09c10.2.85,18.23-6.88,27.65-9.38,4.88,0,9.81,0,14.69,0,1.98,0,4.07,0,6.05,0,4,.78,8.05,1.61,12.1,2.11,9.47,1.13,19,2,28.52,2.49,12.67.72,25.36-.68,38.02-.24,7.5.4,14.98,1.41,22.47,1.96,8.04.64,16.14.82,24.2.36"/><path class="b" d="M9.15,99.92c5.71-.16,11.26-2.23,16.42-4.56,2.52-1.18,5.16-2.34,7.78-3.29,1.66-.53,3.41-1.59,5.19-1.53,6.33,0,12.69,0,19.01,0,1.73-.12,3.51.45,5.19.77,2.55.52,5.2,1,7.78,1.39,10.02,1.42,20.13,2.4,30.25,2.68,7.19.15,14.42-.05,21.61-.35,5.17-.21,10.39-.61,15.56-.25,7.21.45,14.4,1.53,21.61,2.06,7.75.63,15.57.68,23.33.2"/><path class="b" d="M9.15,97.3c4.71-.39,9.41-1.41,13.83-3.07,3.43-1.32,6.89-2.75,10.37-3.95,1.97-.61,3.98-1.76,6.05-1.92,6.61,0,13.26,0,19.88,0,1.71.02,3.5.67,5.19.94,2.55.53,5.2,1.01,7.78,1.41,9.72,1.45,19.55,2.4,29.38,2.6,6.9.13,13.84.05,20.74-.28,5.17-.22,10.38-.8,15.56-.49,7.22.36,14.4,1.49,21.61,2.02,7.75.63,15.58.59,23.33.08"/><path class="b" d="M9.15,94.52c3.77-.25,7.58-.79,11.23-1.78,3.5-.92,6.92-2.29,10.37-3.36,1.99-.64,4.07-1.4,6.05-2.09,1.37-.41,2.86-1.19,4.32-1.1,6.04,0,12.11,0,18.15,0,2.02-.07,4.07.67,6.05,1,2.84.59,5.77,1.13,8.64,1.57,9.43,1.42,18.98,2.33,28.52,2.57,6.61.17,13.27.15,19.88-.2,5.17-.25,10.37-.95,15.56-.67,7.22.31,14.4,1.44,21.61,1.91,7.76.57,15.58.45,23.33-.1"/><path class="b" d="M9.15,91.72c11.45-.22,22.01-4.54,32.84-7.7,5.46,0,10.96,0,16.42,0,2.33-.16,4.66.51,6.91.96,2.84.59,5.78,1.14,8.64,1.6,9.43,1.47,18.97,2.49,28.52,2.82,6.61.23,13.27.22,19.88-.17,5.17-.28,10.36-1.1,15.56-.84,7.21.28,14.4,1.41,21.61,1.81,7.76.49,15.59.25,23.33-.39"/><path class="b" d="M9.15,88.91c11.58.06,22.7-3.54,33.7-6.72,1.92-.58,4.07-.27,6.05-.34,2.85,0,5.79,0,8.64,0,2.32-.17,4.66.37,6.91.84,3.14.63,6.35,1.25,9.51,1.77,9.44,1.49,18.97,2.67,28.52,3.05,6.61.26,13.27.25,19.88-.19,5.17-.31,10.36-1.24,15.56-.99,7.21.25,14.39,1.38,21.61,1.67,7.77.39,15.59,0,23.33-.75"/><path class="b" d="M9.15,86.07c8.76.23,17.45-1.24,25.93-3.33,4.01-1,8.02-2.28,12.1-3.01,3.14-.14,6.36-.02,9.51-.06,2.3-.11,4.66.47,6.91.85,3.14.59,6.35,1.21,9.51,1.74,9.73,1.56,19.53,2.93,29.38,3.36,6.61.28,13.28.25,19.88-.26,5.17-.36,10.35-1.37,15.56-1.15,7.21.22,14.39,1.32,21.61,1.5,7.78.26,15.6-.31,23.33-1.17"/><path class="b" d="M9.15,83.21c8.7.43,17.4-.49,25.93-2.22,6.85-1.35,13.67-3.81,20.74-3.3,5.81.4,11.54,1.72,17.28,2.61,9.74,1.5,19.53,2.98,29.38,3.45,6.61.3,13.28.23,19.88-.36,5.17-.42,10.34-1.51,15.56-1.31,6.92.16,13.82,1.17,20.74,1.26,8.09.19,16.18-.59,24.2-1.61"/><path class="b" d="M9.15,80.32c8.94.66,17.94.18,26.79-1.25,6.88-1.05,13.71-3.32,20.74-2.88,5.51.34,10.97,1.44,16.42,2.23,10.04,1.41,20.11,3.04,30.25,3.51,6.33.27,12.71.13,19.01-.51,4.89-.43,9.76-1.54,14.69-1.5,7.2,0,14.4,1.04,21.61.99,8.1.03,16.19-.97,24.2-2.11"/><path class="b" d="M9.15,77.41c4.3.31,8.65.69,12.96.69,4.89-.05,9.83-.38,14.69-.91,6.91-.75,13.74-2.81,20.74-2.42,6.66.4,13.26,1.61,19.88,2.42,9.19,1.1,18.39,2.65,27.65,2.94,6.04.19,12.14-.06,18.15-.78,4.6-.52,9.18-1.58,13.83-1.59,7.2-.09,14.4.85,21.61.63,8.12-.15,16.19-1.36,24.2-2.63"/><path class="b" d="M9.15,74.47c4.3.4,8.65.93,12.96,1.13,5.17.19,10.4.06,15.56-.26,6.92-.44,13.78-2.27,20.74-1.9,9.53.61,19.02,2.02,28.52,3.03,6.31.74,12.65,1.7,19.01,1.82,5.76.16,11.57-.16,17.28-.93,4.6-.58,9.18-1.71,13.83-1.8,7.19-.2,14.41.58,21.61.2,8.13-.35,16.19-1.76,24.2-3.14"/><path class="b" d="M9.15,71.51c4.6.51,9.22,1.24,13.83,1.62,5.16.38,10.39.49,15.56.41,7.21-.15,14.38-1.81,21.6-1.32,9.23.56,18.46,1.49,27.65,2.42,6.32.65,12.65,1.69,19.01,1.8,5.48.13,11-.25,16.42-1.06,4.6-.65,9.17-1.85,13.83-2.03,7.19-.35,14.42.25,21.61-.32,8.14-.56,16.19-2.16,24.2-3.64"/><path class="b" d="M9.15,68.52c4.9.62,9.79,1.57,14.69,2.17,5.44.61,10.95,1.01,16.42,1.11,4.61.06,9.23-.5,13.83-.75,3.43-.17,6.94-.01,10.37.15,8.06.45,16.16.87,24.2,1.63,6.62.57,13.22,1.75,19.88,1.77,5.2.05,10.44-.44,15.56-1.32,5.15-.94,10.3-2.2,15.56-2.31,7.78-.26,15.61-.11,23.33-1.24,4.04-.54,8.1-1.29,12.1-2.07,2.55-.48,5.16-1.22,7.78-1.02"/><path class="b" d="M9.15,65.52c5.2.73,10.37,1.92,15.56,2.77,5.43.84,10.94,1.51,16.42,1.87,4.88.29,9.81-.17,14.69-.26,6.04-.03,12.11.23,18.15.38,6.62.17,13.28.46,19.88,1.14,6.31.63,12.65,1.63,19.01,1.27,7.33-.18,14.44-2.15,21.61-3.42,6-.88,12.11-.82,18.15-1.29,6.09-.43,12.17-1.41,18.15-2.62,1.38-.27,2.94-.61,4.32-.87,2.56,0,5.22,0,7.78,0"/><path class="b" d="M9.15,62.51c5.52.82,10.96,2.27,16.42,3.42,5.42,1.09,10.92,2.04,16.42,2.65,4.87.51,9.81.25,14.69.29,9.5.15,19.02-.09,28.52.12,5.18.14,10.4.58,15.56,1.15,6.01.79,12.14,1.02,18.15.15,5.55-.66,10.92-2.42,16.42-3.33,6.28-1,12.7-1.15,19.01-1.93,5.21-.6,10.43-1.57,15.56-2.67,4.3-.13,8.66-.01,12.96-.05"/><path class="b" d="M9.15,60.13c2.01-.04,4.11-.06,6.05.54,3.17.74,6.37,1.64,9.51,2.48,6.82,1.75,13.74,3.41,20.74,4.23,7.74.64,15.57.62,23.33.44,7.48-.22,14.99-.7,22.47-.38,6.06.17,12.1,1.08,18.15,1.47,4.62.2,9.3-.3,13.83-1.24,4.34-.87,8.6-2.31,12.96-3.06,5.71-1.02,11.55-1.46,17.28-2.3,4.04-.57,8.11-1.34,12.1-2.18,5.75,0,11.54,0,17.28,0"/><path class="b" d="M9.15,57.96c2.27,0,4.64,0,6.91,0,2.61.55,5.23,1.49,7.78,2.27,5.67,1.87,11.47,3.48,17.28,4.84,12.47,2.78,25.39,1.99,38.02,1.05,6.89-.51,13.85-.61,20.74-.05,4.02.25,8.07.89,12.1.97,4.06.05,8.16-.52,12.1-1.45,4.61-1.09,9.15-2.69,13.83-3.53,7.46-1.41,15.05-2.29,22.47-3.91,2.52-.43,5.22-.08,7.78-.19,4.88,0,9.81,0,14.69,0"/><path class="b" d="M9.15,55.78c3.15,0,6.36,0,9.51,0,3.83.94,7.5,2.68,11.23,3.95,6.21,2.14,12.52,4.25,19.01,5.32,3.13.28,6.37.04,9.51.11,6.04-.03,12.11.06,18.15-.04,6.02-.63,12.09-1.22,18.15-1.15,6.06-.01,12.11.8,18.15,1.1,4.07.08,8.17-.58,12.1-1.61,4.32-1.16,8.59-2.73,12.96-3.69,6.59-1.45,13.26-2.72,19.88-4,8.34,0,16.72,0,25.06,0"/><path class="b" d="M9.15,53.61c2.56,0,5.21,0,7.78,0,1.67.13,3.62-.34,5.19.36,7.37,3.16,14.75,6.4,22.47,8.63,1.35.5,2.91.39,4.32.39,1.68,0,3.5,0,5.18,0,10.07,0,20.17,0,30.25,0,4.58-.34,9.22-.83,13.83-.71,6.34.03,12.67.9,19.01.71,3.21-.18,6.43-.99,9.51-1.9,9.01-3.2,18.32-5.46,27.65-7.48,9.5,0,19.02,0,28.52,0"/><path class="b" d="M9.15,51.44c3.15,0,6.36,0,9.51,0,1.09,0,2.37,0,3.46,0,.54-.08,1.28.12,1.73.38,6.75,3.3,13.51,6.86,20.74,9,3.43,0,6.94,0,10.37,0,14.97-.08,29.97.23,44.94-.24,4.88.02,9.81.34,14.69.24,1.98-.05,4.08.11,6.05-.1,2.01-.34,4.11-.9,6.05-1.53,8.2-3.03,16.56-5.69,25.06-7.76,10.36,0,20.75,0,31.11,0"/><path class="b" d="M9.15,49.27c5.17.07,10.4-.15,15.56.09,6.16,3.37,12.28,7.19,19.01,9.29,3.43,0,6.94,0,10.37,0,15.26,0,30.54,0,45.8,0,5.17,0,10.39,0,15.56,0,2.27-.06,4.66.13,6.91-.1,1.71-.38,3.53-.93,5.19-1.52,7.09-2.8,14.27-5.46,21.61-7.57,1.35-.37,2.94-.14,4.32-.2,2.56,0,5.22,0,7.78,0,7.19,0,14.41,0,21.6,0"/><path class="b" d="M9.15,47.1c5.46,0,10.96,0,16.42,0,2.7,1.27,5.16,3.22,7.78,4.67,3.02,1.79,6.28,3.34,9.51,4.71,3.43,0,6.94,0,10.37,0,15.55,0,31.12,0,46.67,0,5.46,0,10.96,0,16.42,0,2.27,0,4.64,0,6.91,0,1.43-.26,2.96-.81,4.32-1.3,6.85-2.8,13.69-5.75,20.74-8.02,11.51-.17,23.05,0,34.57-.06"/><path class="b" d="M9.15,44.92c5.75,0,11.54,0,17.28,0,.93.08,1.84.92,2.59,1.41,1.09.75,2.36,1.64,3.46,2.37,3.25,2.15,6.74,4.17,10.37,5.6,3.43,0,6.94,0,10.37,0,15.84,0,31.69,0,47.53,0,5.46,0,10.96,0,16.42,0,2.56-.03,5.22.08,7.78-.06,1.1-.34,2.39-.81,3.46-1.25,6.29-2.77,12.55-5.71,19.01-8.04,11.8-.12,23.63,0,35.43-.04"/><path class="b" d="M9.15,42.75c6.32.08,12.7-.16,19.01.09,3.32,2.51,6.7,5.1,10.37,7.09,1.07.59,2.36,1.23,3.46,1.77.42.32,1.22.5,1.73.43,10.94,0,21.9,0,32.84,0,15.55,0,31.12,0,46.67,0,.77,0,1.83,0,2.59,0,2.38-.68,4.68-1.92,6.91-2.96,3.97-1.93,8.02-3.85,12.1-5.55.74-.31,1.77-.8,2.59-.87,1.08,0,2.38,0,3.46,0,2.56,0,5.22,0,7.78,0,8.06,0,16.14,0,24.2,0"/><path class="b" d="M9.15,40.58h19.88c3.51,2.86,7.18,5.7,11.23,7.75,1.36.57,2.79,1.76,4.32,1.64,10.65,0,21.32,0,31.98,0,15.84,0,31.69,0,47.53,0,1.08-.03,2.4.12,3.46-.18,1.72-.72,3.52-1.64,5.19-2.49,3.69-1.9,7.45-3.82,11.23-5.53.76-.35,1.83-.82,2.59-1.15,1.08-.04,2.38-.02,3.46-.02,2.85,0,5.79,0,8.64,0,8.06,0,16.14,0,24.2,0"/><path class="b" d="M9.15,38.41h20.74c3.54,2.79,7.13,5.69,11.23,7.63,1.64.72,3.31,1.97,5.19,1.75,10.65,0,21.32,0,31.98,0,15.55,0,31.12,0,46.67,0,1.08-.03,2.39.09,3.46-.13,1.72-.8,3.52-1.79,5.19-2.68,3.4-1.84,6.88-3.7,10.37-5.37.76-.37,1.82-.86,2.59-1.19,1.08,0,2.38,0,3.46,0,2.85,0,5.79,0,8.64,0,8.06,0,16.14,0,24.2,0"/><path class="b" d="M9.15,36.24h21.6c1.5.88,2.88,2.27,4.32,3.24,2.14,1.54,4.52,2.93,6.91,4.04,1.93.77,3.89,2.24,6.05,2.1,10.94,0,21.9,0,32.84,0,15.26,0,30.54,0,45.8,0,.77,0,1.83.04,2.59-.12,1.7-.89,3.51-1.92,5.19-2.87,3.39-1.92,6.87-3.83,10.37-5.54.41-.21,1.31-.63,1.73-.83,1.08-.03,2.38-.01,3.46-.02,2.85,0,5.79,0,8.64,0,8.06,0,16.14,0,24.2,0"/><path class="b" d="M9.15,34.06c6.9,0,13.84,0,20.74,0,2.26-.21,2.68.45,4.32,1.73,1.61,1.2,3.42,2.38,5.19,3.32,3.33,1.63,6.79,3.36,10.37,4.33,2.85,0,5.79,0,8.64,0,15.55,0,31.12,0,46.67,0,5.46,0,10.96,0,16.42,0,2.84-.11,5.83.25,8.64-.18,3.72-2.14,7.45-4.41,11.23-6.43,1.07-.58,2.37-1.25,3.46-1.8.73-.36,1.74-.97,2.59-.98,11.8,0,23.63,0,35.43,0"/><path class="b" d="M9.15,31.89c7.19,0,14.41,0,21.6,0,.79,0,1.83-.05,2.59.16.46.33,1.27.96,1.73,1.27,1.61,1.12,3.42,2.19,5.18,3.04,4.17,1.94,8.55,3.58,12.96,4.86,3.14.15,6.36.02,9.51.06,22.18,0,44.37,0,66.54,0,1.25.19,2.44-.79,3.46-1.38,1.07-.66,2.37-1.45,3.46-2.09,3.36-2,6.85-3.92,10.37-5.62,1.6-.58,3.51-.17,5.19-.29,2.56,0,5.22,0,7.78,0,7.77,0,15.57,0,23.33,0"/><path class="b" d="M9.15,29.72h25.06c7.5,4.98,16.39,7.33,25.06,9.36,7.48.07,14.99,0,22.47.02,16.41-.04,32.85.08,49.26-.05,3.62-2.39,7.39-4.69,11.23-6.71,1.08-.57,2.36-1.22,3.46-1.76.76-.35,1.72-.97,2.59-.87,11.52,0,23.05,0,34.57,0"/><path class="b" d="M9.15,27.55c8.63,0,17.29,0,25.93,0,1.48.43,2.88,1.51,4.32,2.05,3.62,1.52,7.43,2.77,11.23,3.74,3.98,1.02,8.07,1.86,12.1,2.67,1.68.3,3.48.77,5.19.93,1.68,0,3.5,0,5.19,0,19.3,0,38.6,0,57.9,0,3.64-2.35,7.33-4.78,11.23-6.7,1.96-.9,3.95-2.16,6.05-2.68,11.52,0,23.05,0,34.57,0"/><path class="b" d="M9.15,25.38c8.92,0,17.87,0,26.79,0,.85.05,1.82.64,2.59.95,1.37.55,2.92,1.11,4.32,1.57,3.65,1.2,7.47,2.03,11.23,2.74,4.88.91,9.81,1.76,14.69,2.68,3.71.64,7.44,1.69,11.23,1.44,16.99,0,34,0,50.99,0,3.48-2.64,7.28-4.96,11.23-6.81,1.37-.66,2.92-1.35,4.32-1.94.74-.34,1.76-.74,2.59-.63,11.23,0,22.48,0,33.7,0"/><path class="b" d="M9.15,23.2c6.33,0,12.69,0,19.01,0,1.98,0,4.07,0,6.05,0,.78,0,1.81,0,2.59,0,.8.2,1.82.62,2.59.9,8.59,3.13,17.86,3.43,26.79,5.04,4.03.67,8.1,1.42,12.1,2.27,1.69.35,3.5.79,5.19,1.18,1.68,0,3.5,0,5.19,0,9.21,0,18.44,0,27.65,0,3.14,0,6.36,0,9.51,0,1.67-.12,3.6.32,5.19-.31,3.52-3.13,7.76-5.44,12.1-7.22,1.66-.63,3.43-1.5,5.19-1.85.76,0,1.83,0,2.59,0,10.65,0,21.32,0,31.98,0"/><path class="b" d="M9.15,21.03c8.92,0,17.87,0,26.79,0,1.45.12,2.91.97,4.32,1.32,2.22.69,4.61,1.19,6.91,1.51,5.15.69,10.4.85,15.56,1.45,6.98.79,13.97,2,20.74,3.9,1.4.34,2.89,1.05,4.32,1.21,1.38,0,2.94,0,4.32,0,3.43,0,6.94,0,10.37,0,6.04,0,12.11,0,18.15,0,3.14-.11,6.4.24,9.51-.17,4.5-4.9,10.9-7.74,17.28-9.21,3.43,0,6.94,0,10.37,0,8.34,0,16.72,0,25.06,0"/><path class="b" d="M9.15,18.86c8.06,0,16.14,0,24.2,0,1.17-.13,2.37.67,3.46,1.01,1.64.64,3.46,1.2,5.18,1.56,4.53.96,9.23.87,13.83.91,4.6.02,9.26.24,13.83.84,4.36.57,8.75,1.43,12.96,2.69,1.4.42,2.96.95,4.32,1.48,1.04.44,2.29,1.02,3.46.88,8.34,0,16.72,0,25.06,0,2.85,0,5.79,0,8.64,0,1.68-.09,3.56.24,5.19-.23,3.62-5.06,9.45-8.27,15.56-9.15,3.72,0,7.51,0,11.23,0,8.92,0,17.87,0,26.79,0"/><path class="b" d="M9.15,16.69c7.19,0,14.41,0,21.6,0,11.23,6.61,19.14,4.08,31.11,3.8,5.5-.1,11.06.41,16.42,1.65,2.62.61,5.29,1.42,7.78,2.44,1.1.43,2.36,1.07,3.46,1.49.43,0,1.3,0,1.73,0,12.09,0,24.2,0,36.3,0,1.07-.59,1.84-2.14,2.59-3.06.96-1.24,2.22-2.61,3.46-3.57,2.24-1.72,4.89-3.09,7.78-2.75,3.14,0,6.36,0,9.51,0,10.65,0,21.32,0,31.98,0"/><path class="b" d="M9.15,14.52h18.15c11.93,9.53,19.1,6.75,32.84,5.05,5.73-.65,11.62-.58,17.28.59,2.63.53,5.29,1.33,7.78,2.33,1.1.41,2.32,1.12,3.46,1.42.77,0,1.83,0,2.59,0,11.8-.1,23.65.2,35.43-.11,1.98-3.11,3.93-6.59,6.91-8.85.97-.67,2.35-.35,3.46-.42,4.01,0,8.09,0,12.1,0,11.23,0,22.48,0,33.7,0"/><path class="b" d="M9.15,12.34h15.56c.94.54,1.82,1.74,2.59,2.48,1.25,1.24,2.85,2.37,4.32,3.32,3.1,1.93,6.6,3.9,10.37,3.59,1.98-.04,4.08.1,6.05-.08,4.33-.71,8.63-1.88,12.96-2.59,5.12-.87,10.42-1.1,15.56-.26,2.32.38,4.7.99,6.91,1.78.78.28,1.83.7,2.59,1.03,1.07.19,2.37.09,3.46.11,11.8,0,23.63,0,35.43,0,2.17-2.91,3.72-6.5,6.05-9.31,17.27-.21,34.57,0,51.85-.07"/><path class="b" d="M9.15,10.17c20.73.33,8.07-2.21,21.6,7.96.74.51,1.67,1.29,2.59,1.42,1.39,0,2.93,0,4.32,0,3.14,0,6.36,0,9.51,0,3.72,0,7.51,0,11.23,0,4.8-1.1,9.74-2.07,14.69-1.82,2.29.09,4.68.42,6.91.95,1.67.45,3.43,1.06,5.19.87,12.67,0,25.36,0,38.02,0,2.04-2.65,3.39-6.1,5.19-8.93.71-.56,1.75-.47,2.59-.46,1.39,0,2.93,0,4.32,0,4.01,0,8.09,0,12.1,0,11.8,0,23.63,0,35.43,0"/><path class="b" d="M9.15,8c2.27,0,4.64,0,6.91,0,1.38.09,3.01-.25,4.32.29,2.46,3.33,5.36,6.46,8.64,8.99,30.8.3,61.65,0,92.47.1,2.08-2.78,3.45-6.37,5.19-9.38h56.17"/></svg>