<?xml version="1.0" encoding="UTF-8"?><svg id="a" xmlns="http://www.w3.org/2000/svg" width="1920" height="2400" viewBox="0 0 192 240"><defs><style>.b{fill:none;stroke:#fff;stroke-miterlimit:10;stroke-width:.3px;}.c{stroke-width:0px;}</style></defs><rect class="c" width="192" height="240"/><path class="b" d="M8,225.71c4.07,0,8.19,0,12.26,0,.88.23,1.81,1.02,2.63,1.4,2.15,1.03,4.67,1.09,7,.84,3.47-.37,7-1.17,10.51-.93,6.74.52,13.32,2.86,20.14,2.42,3.54-.15,7.11-.82,10.51-1.81,2.05-.47,4.07-1.63,6.13-1.92,4.95,0,9.94,0,14.89,0,30.64,0,61.3,0,91.94,0"/><path class="b" d="M8,223.51c3.19,0,6.45,0,9.63,0,1.71.11,3.74-.38,5.25.61,4.69,2.04,9.96.53,14.89.86,3.85.2,7.63,1.3,11.38,2.08,3.71.8,7.58,1.23,11.38.98,3.86-.24,7.72-1.1,11.38-2.31,2.05-.6,4.07-1.67,6.13-2.23,4.36,0,8.77,0,13.13,0,30.94,0,61.88,0,92.82,0"/><path class="b" d="M8,221.31c5.24.04,10.53-.08,15.76.05,4.77,1.64,9.98.77,14.89,1.71,6.4,1.23,12.65,3.78,19.26,3.62,6.99-.03,13.84-2.17,20.14-5.08,1.04-.49,2.39-.25,3.5-.3,2,0,4.13,0,6.13,0,32.1,0,64.21,0,96.32,0"/><path class="b" d="M8,219.11c6.12,0,12.27,0,18.39,0,2.6.25,5.28.74,7.88,1.07,7.43,1.02,14.31,4.81,21.89,4.98,5.67.23,11.35-1.06,16.64-3.04,2.37-.84,4.69-2.05,7.01-3.01,1.71,0,3.55,0,5.25,0,32.98,0,65.97,0,98.95,0"/><path class="b" d="M8,216.91c5.24,0,10.52,0,15.76,0,2.89.13,5.94-.35,8.76.38,7.47,1.43,14.26,5.49,21.89,6.18,6.25.61,12.57-.8,18.39-3.02,2.68-.98,5.29-2.37,7.88-3.54,1.1,0,2.4,0,3.5,0,33.27,0,66.55,0,99.82,0"/><path class="b" d="M8,214.71c5.53,0,11.11,0,16.64,0,2.88.1,5.9-.22,8.76.15,7.06,2.12,13.56,6.25,21.01,6.94,6.26.65,12.57-.8,18.39-3.04,2.05-.79,4.17-1.76,6.13-2.76.78-.39,1.81-.98,2.63-1.3.78,0,1.85,0,2.63,0,33.27,0,66.55,0,99.82,0"/><path class="b" d="M8,212.51c5.82,0,11.69,0,17.51,0,2.01,0,4.12,0,6.13,0,1.12.06,2.49-.22,3.5.36,6.3,2.64,12.33,6.47,19.26,7.18,6.57.75,13.2-.87,19.26-3.32,2.05-.83,4.17-1.84,6.13-2.88,1.07-.5,2.25-1.52,3.5-1.34,33.56,0,67.13,0,100.7,0"/><path class="b" d="M8,210.3c6.12,0,12.27,0,18.39,0,2.01,0,4.12,0,6.13,0,1.5-.03,3.08-.14,4.38.77,5.56,2.93,11.15,6.35,17.51,7.12,10.26,1.32,20.11-3.08,28.9-7.89,33.56,0,67.13,0,100.7,0"/><path class="b" d="M8,208.1c6.41,0,12.85,0,19.26,0,2.01,0,4.12,0,6.13,0,1.49-.02,3.15-.17,4.38.84,5.17,3.13,10.54,6.44,16.64,7.32,10.19,1.44,20.27-2.67,28.9-7.76,1.27-.74,2.97-.29,4.38-.4,2.6,0,5.28,0,7.88,0,7.58,0,15.19,0,22.77,0,21.89,0,43.78,0,65.67,0"/><path class="b" d="M8,205.9c6.41,0,12.85,0,19.26,0,2.3,0,4.7,0,7.01,0,.79,0,1.84,0,2.63,0,.49.16,1.34.65,1.75.96,4.82,3.23,9.95,6.42,15.76,7.4,10.14,1.68,20.27-2.35,28.9-7.39.43-.27,1.29-.76,1.75-.97,1.1,0,2.4,0,3.5,0,2.6,0,5.28,0,7.88,0,7.58,0,15.19,0,22.77,0,21.59,0,43.2,0,64.8,0"/><path class="b" d="M8,203.7c9.62,0,19.27,0,28.9,0,.95-.2,1.91.61,2.63,1.13.77.55,1.84,1.3,2.63,1.83,2.71,1.83,5.66,3.51,8.76,4.6,12.01,4.18,24.8-1.22,35.02-7.55h98.07"/><path class="b" d="M8,201.5c10.21.02,20.44-.04,30.65.02,4.7,3.71,9.82,7.31,15.76,8.63,9.66,2.13,19.59-1.34,28.02-5.96,1.43-.79,2.99-1.73,4.38-2.59,1.99-.24,4.13-.06,6.13-.11,4.95,0,9.94,0,14.89,0,25.39,0,50.79,0,76.18,0"/><path class="b" d="M8,199.3c6.99,0,14.02,0,21.01,0,2.3,0,4.7,0,7.01,0,1.5,0,3.3-.28,4.38,1.01,4.36,3.58,9.29,6.83,14.89,8,7.7,1.54,15.7-.34,22.77-3.49,3.32-1.47,6.56-3.3,9.63-5.22.74-.39,1.82-.31,2.63-.3,1.4,0,2.97,0,4.38,0,4.07,0,8.19,0,12.26,0,7.87,0,15.77,0,23.64,0,17.8,0,35.61,0,53.41,0"/><path class="b" d="M8,197.1h31.52c4.84,4.17,10.21,8.22,16.64,9.42,3.47.2,7.03.02,10.51.08,7.52-1.15,14.56-4.47,21.02-8.39.45-.27,1.31-.81,1.75-1.08.45-.02,1.31-.04,1.75-.03,1.71,0,3.55,0,5.25,0,4.95,0,9.94,0,14.89,0,24.22,0,48.45,0,72.68,0"/><path class="b" d="M8,194.9c6.99,0,14.02,0,21.01,0,2.3,0,4.7,0,7.01,0,.79,0,1.84,0,2.63,0,.56-.11,1.32.16,1.75.5,4.28,3.91,9.15,7.62,14.89,9.01,4.65,0,9.36,0,14.01,0,3.29-.61,6.55-1.77,9.63-3.05,3.94-1.67,7.74-3.81,11.38-6.05.72-.5,1.8-.41,2.63-.4,1.4,0,2.97,0,4.38,0,3.77,0,7.61,0,11.38,0,7.87,0,15.77,0,23.64,0,17.22,0,34.45,0,51.66,0"/><path class="b" d="M8,192.7c6.99,0,14.02,0,21.01,0,2.3,0,4.7,0,7.01,0,1.41.12,3.12-.34,4.38.41,4.05,3.72,8.54,7.79,14.01,9.1,4.95,0,9.94,0,14.89,0,3.36.3,6.55-1.15,9.63-2.32,2.98-1.21,5.95-2.7,8.76-4.28,1.73-.89,3.44-2.2,5.25-2.91,5.53,0,11.11,0,16.64,0,7.87,0,15.77,0,23.64,0,16.92,0,33.86,0,50.79,0"/><path class="b" d="M8,190.5c6.99,0,14.02,0,21.01,0,2.3,0,4.7,0,7.01,0,1.1,0,2.4,0,3.5,0,.52.21,1.38.91,1.75,1.34,2.7,2.5,9.4,8.68,13.13,8.17,4.65,0,9.36,0,14.01,0,2,0,4.13,0,6.13,0,1.73-.53,3.58-1.19,5.25-1.87,5.2-2.03,10-4.99,14.89-7.64,5.24,0,10.52,0,15.76,0,7.87,0,15.77,0,23.64,0,16.63,0,33.28,0,49.91,0"/><path class="b" d="M8,188.3h31.52c3.8,3.43,7.5,7.43,12.26,9.51,4.07,0,8.19,0,12.26,0,4.36-.02,8.78.04,13.13-.02,6.12-2.09,11.9-5.15,17.51-8.35,1.03-.64,2.24-1.32,3.5-1.14,1.71,0,3.55,0,5.25,0,4.36,0,8.77,0,13.13,0,9.33.06,18.7-.19,28.02.24,5.23-.31,10.52-.24,15.76-.24,7.87,0,15.77,0,23.64,0"/><path class="b" d="M8,186.1h30.65c1.6.94,2.96,2.57,4.38,3.75,2.18,1.95,4.53,3.92,7.01,5.49,1.63.54,3.55.16,5.25.26,2.89,0,5.86,0,8.76,0,5.24-.03,10.52.06,15.76-.03,5.75-2.17,11.24-5.08,16.64-8,.78-.42,1.84-.98,2.63-1.39,2.29-.19,4.71-.04,7.01-.08,4.65,0,9.36,0,14.01,0,4.07,0,8.19,0,12.26,0,3.15.63,6.41,1.21,9.63,1.19,5.83-.3,11.65-1.32,17.51-1.06,4.07.04,8.19.14,12.26.08,4.07-.14,8.19-.26,12.26-.21"/><path class="b" d="M8,183.9c9.92.02,19.86-.05,29.77.03,2.66,2.09,5.26,4.45,7.88,6.59,1.08.87,2.37,1.88,3.5,2.67.78.28,1.82.22,2.63.22,4.36,0,8.77,0,13.13,0,5.82-.03,11.69.05,17.51-.03,5.69-2.31,11.15-5.23,16.64-7.98,1.09-.5,2.32-1.25,3.5-1.5,2,0,4.13,0,6.13,0,4.36,0,8.77,0,13.13,0,1.7.01,3.55-.03,5.25.02,3.44.91,6.96,1.83,10.51,2.17,4.7.51,9.35-.95,14.01-1.26,10.8-.74,21.61,1.86,32.4.52"/><path class="b" d="M8,181.7c8.46,0,16.94,0,25.39,0,.46,0,1.3,0,1.75,0,1.14.56,2.44,1.32,3.5,2.02,3.33,2.21,6.42,4.91,9.63,7.28,2.25.45,4.71.09,7,.2,6.99,0,14.02,0,21.02,0,2.89-.02,5.87.04,8.76-.03,2.62-1.13,5.3-2.39,7.88-3.63,2.88-1.38,5.83-2.84,8.76-4.13,1.95-.78,3.96-1.97,6.13-1.72,4.95,0,9.94,0,14.89,0,2.62.64,5.23,1.69,7.88,2.26,3.98,1.09,8.19,1.63,12.26.72,4.6-.92,9.3-1.76,14.01-1.36,9.04.64,18.03,3,27.14,2.11"/><path class="b" d="M8,179.49c7.87,0,15.77,0,23.64,0,.58-.04,1.35.36,1.75.74.77.52,1.8,1.16,2.63,1.57,3.8,1.49,7.29,3.76,10.51,6.26,1.15,1.2,2.88.92,4.38.93,1.71,0,3.55,0,5.25,0,10.5-.04,21.03.07,31.52-.04,4.66-2.07,9.3-4.35,14.01-6.31,3.36-1.38,6.89-2.63,10.51-3.12,2.59.02,5.33-.27,7.88.26,3.28.65,6.39,2.17,9.63,2.99,1.97.52,4.08,1.11,6.13,1.21,2.02.11,4.15-.19,6.13-.58,3.73-.79,7.55-1.66,11.38-1.52,10.3.44,20.24,4.65,30.65,3.67"/><path class="b" d="M8,177.29h22.77c1.71,1.19,3.35,2.75,5.25,3.65,1.63.86,3.59,1.22,5.25,1.99,1.48.67,3.03,1.61,4.38,2.52.79.47,1.64,1.4,2.63,1.34,6.7,0,13.44,0,20.14,0,7.28-.08,14.62.17,21.89-.1,4.32-1.94,8.68-3.95,13.13-5.56,6.11-2.31,12.87-3.4,19.26-1.64,2.65.63,5.25,1.75,7.88,2.42,5.24,1.54,10.58-.08,15.76-1.01,4.06-.68,8.27-.36,12.26.56,8.34,1.97,16.69,4.97,25.39,4.22"/><path class="b" d="M8,175.09c7.29,0,14.6,0,21.89,0,.99.21,1.86,1.28,2.63,1.88,1.05.86,2.32,1.81,3.5,2.47,2.11,1.33,4.75,1.44,7,2.39,1.49.63,3.04,1.55,4.38,2.45,1.03.52,2.39.27,3.5.32,2.01,0,4.12,0,6.13,0,11.67,0,23.36,0,35.03,0,1.78-.43,3.53-1.45,5.25-2.08,3.12-1.28,6.37-2.49,9.63-3.36,5.11-1.41,10.57-1.71,15.76-.58,4.03.87,8.09,2.23,12.26,2.16,3.53-.04,7.02-.99,10.51-1.43,2.88-.39,5.9-.31,8.76.26,5.67,1.14,11.03,3.55,16.64,4.91,4.34.3,8.78.03,13.13.12"/><path class="b" d="M8,172.89c4.95,0,9.94,0,14.89,0,2.59.09,5.32-.21,7.88.16,9.52,8.75,9.58,3.99,17.51,8.91.98.7,2.37.38,3.5.44,1.41,0,2.97,0,4.38,0,4.65,0,9.36,0,14.01,0,7.87,0,15.77,0,23.64,0,1.19.06,2.4-.76,3.5-1.13,1.98-.79,4.1-1.57,6.13-2.2,12.7-4.23,19.22-.94,31.52-.65,2.92-.03,5.87-.6,8.76-.94,6.37-.99,12.59,1.15,18.39,3.57,1.09.43,2.4.94,3.5,1.34,2,0,4.13,0,6.13,0,4.07,0,8.19,0,12.26,0"/><path class="b" d="M8,170.69c7.87.08,15.78-.16,23.64.09,11.06,9.58,10.25,3.66,19.26,9.41,14.88,0,29.78,0,44.66,0,.86.14,1.85-.42,2.63-.7,1.09-.42,2.39-.9,3.5-1.27,3.67-1.23,7.52-2.16,11.38-2.54,6.98-.68,14.02.01,21.02-.04,4.67.21,9.34-1.02,14.01-.55,5.28.49,10.09,3.04,14.89,5.11,6.99,0,14.02,0,21.01,0"/><path class="b" d="M8,168.49c8.16,0,16.35,0,24.52,0,.58.02,1.36.52,1.75.9,1.07.83,2.37,1.76,3.5,2.49,1.6,1.03,3.4,2.06,5.25,2.54,1.39.34,3,.26,4.38.66,1.84.51,3.66,1.51,5.25,2.56,1.02.57,2.38.3,3.5.35,2.01,0,4.12,0,6.13,0,11.38,0,22.77,0,34.15,0,1.17.13,2.44-.39,3.5-.82,1.68-.62,3.53-1.22,5.25-1.71,4.55-1.29,9.29-2.02,14.01-2.3,6.11-.25,12.27-.55,18.39-.65,4.07-.14,8.26-.63,12.26.38,4,.95,7.72,2.95,11.38,4.76,1.01.54,2.4.28,3.5.33,1.4,0,2.98,0,4.38,0,4.95,0,9.94,0,14.89,0"/><path class="b" d="M8,166.29h27.14c2.6,1.6,5.04,3.7,7.88,4.91,1.62.77,3.51.85,5.25,1.03,1.84.26,3.67,1.1,5.25,2.04.79.46,1.76,1.21,2.63,1.53,2.01,0,4.12,0,6.13,0,4.65,0,9.36,0,14.01,0,6.99,0,14.02,0,21.01,0,1.18.01,2.4-.74,3.5-1.08,1.39-.51,2.96-1.03,4.38-1.45,3.98-1.19,8.13-2,12.26-2.48,5.81-.62,11.69-1.03,17.51-1.5,4.94-.11,10.07-.49,14.89.87,4.02,1.16,7.71,3.34,11.38,5.29,1,.58,2.4.3,3.5.36,1.4,0,2.98,0,4.38,0,4.95,0,9.94,0,14.89,0"/><path class="b" d="M8,164.09h29.77c2.3,1.43,4.49,3.28,7,4.35,1.61.77,3.52.84,5.25,1.03,3.28.32,6.09,2.36,8.76,4.13,12.54,0,25.11,0,37.65,0,1.5.07,2.96-1.02,4.38-1.42,1.98-.75,4.1-1.46,6.13-2.03,5.13-1.46,10.47-2.23,15.76-2.84,8.69-.91,17.65-2.75,26.27-.44,4.38,1.25,8.32,3.74,12.26,5.95.96.74,2.34.87,3.5.78,1.7,0,3.55,0,5.25,0,4.65,0,9.36,0,14.01,0"/><path class="b" d="M8,161.89c9.04,0,18.1,0,27.14,0,1.71,0,3.55,0,5.25,0,3.01,1.8,5.93,4.47,9.63,4.57,3.58.07,6.77,1.4,9.63,3.5,1.03.76,2.13,1.67,3.5,1.44,2.89,0,5.86,0,8.76,0,7.87,0,15.77,0,23.64,0,1.49-.24,2.96-1.19,4.38-1.69,2.26-.92,4.66-1.78,7.01-2.46,5.99-1.73,12.22-2.59,18.39-3.46,9.67-1.49,18.85-3.06,28.02,1.6,2.37,1.17,4.73,2.61,7.01,3.96.76.46,1.85,1.08,2.63,1.52,0,0,.88.48.88.48l.88.04c6.41,0,12.86,0,19.26,0"/><path class="b" d="M8,159.69c7.87,0,15.77,0,23.64,0,2.6,0,5.28,0,7.88,0,1.1,0,2.41,0,3.5,0,.46.23,1.34.79,1.75,1.1,5.61,4.15,7.84,1.84,13.13,4.03,2.5,1.11,4.72,2.92,7.01,4.38,9.62,0,19.27,0,28.9,0,.51.06,1.33-.2,1.75-.47,1.09-.52,2.39-1.13,3.5-1.61,2.54-1.11,5.22-2.14,7.88-2.92,6.57-1.91,13.4-2.87,20.14-3.96,2.86-.63,5.84-.58,8.76-.55,3.48,0,7.03,0,10.51,0,6.15.99,11.31,5.05,16.64,8.02.76.44,1.84,1.03,2.63,1.44,2,.09,4.13.02,6.13.04,4.07,0,8.19,0,12.26,0"/><path class="b" d="M8,157.49h37.65c1.91,1.18,3.89,2.6,6.13,3.04,2.92.36,6.08.17,8.76,1.6,2.46,1.2,4.75,2.91,7,4.44.45.31,1.22.5,1.75.42,1.1,0,2.4,0,3.5,0,2.6,0,5.28,0,7.88,0,4.07,0,8.19,0,12.26,0,2.59-1.24,5.24-2.59,7.88-3.71,6.93-3.04,14.48-4.31,21.89-5.6,3.15-.44,6.45-.09,9.63-.19,5.82,0,11.69,0,17.51,0,1.85.18,3.6,1.42,5.25,2.21,3.24,1.79,6.39,3.89,9.63,5.67,1.07.56,2.32,1.33,3.5,1.63,1.4,0,2.98,0,4.38,0,3.77,0,7.61,0,11.38,0"/><path class="b" d="M8,155.29c9.04,0,18.1,0,27.14,0,4.07,0,8.19,0,12.26,0,.56-.08,1.33.25,1.75.62.74.46,1.81,1.01,2.63,1.32,2.2.8,4.71.51,7,.78,5.01.65,8.85,4.45,13.13,6.79,6.41-.02,12.86.04,19.26-.03,5.72-2.71,11.35-5.82,17.51-7.41,3.15-.83,6.41-1.58,9.63-2.07,6.12,0,12.27,0,18.39,0,5.24,0,10.52,0,15.76,0,1.22.12,2.43,1.01,3.5,1.54,1.42.79,2.98,1.73,4.38,2.57,3.36,1.99,6.81,4.09,10.51,5.4,4.36,0,8.77,0,13.13,0"/><path class="b" d="M8,153.09c9.62,0,19.27,0,28.9,0,4.36,0,8.77,0,13.13,0,.5.04,1.34.4,1.75.67,1.04.52,2.34.98,3.5,1.07,2,.07,4.13,0,6.13.2,5.55,1.05,9.72,5.44,14.89,7.46,3.76.28,7.61.03,11.38.11,1.18.13,2.43-.6,3.5-1.01,1.73-.75,3.56-1.64,5.25-2.47,4.2-2.1,8.57-4.03,13.13-5.18,1.09-.29,2.4-.6,3.5-.84,1.09-.02,2.41-.01,3.5-.01,2.6,0,5.28,0,7.88,0,8.16,0,16.35,0,24.52,0,2,0,4.13,0,6.13,0,1.44.69,2.99,1.6,4.38,2.4,4.73,2.76,9.57,5.59,14.89,7.04,3.18.18,6.45.02,9.63.07"/><path class="b" d="M8,150.89c14.3,0,28.61,0,42.91,0,.46,0,1.3,0,1.75,0,.8.22,1.82.67,2.63.87,1.39.3,2.97.12,4.38.12,6.92-.95,11.59,3.98,17.51,6.51,7.02,3.3,13.72.4,20.14-2.79,3.93-1.84,7.97-3.86,12.26-4.7,8.16,0,16.35,0,24.52,0,4.95,0,9.94,0,14.89,0,1.7,0,3.55,0,5.25,0,1.11.06,2.48-.21,3.5.33,8.19,4.6,16.56,9.32,26.27,9.13"/><path class="b" d="M8,148.68c14,0,28.03,0,42.03,0,1.71,0,3.55,0,5.25,0,.79.12,1.83.35,2.63.35,2.6-.16,5.27-.43,7.88-.35,4.47.74,8.16,3.77,12.26,5.51,6.32,3.06,12.34,1.57,18.39-1.31,2-.9,4.11-1.9,6.13-2.77,1.38-.51,2.89-1.36,4.38-1.44,7.87,0,15.77,0,23.64,0,9.04,0,18.11,0,27.14,0,1.57-.17,3.02,1.02,4.38,1.63,1.98,1.02,4.09,2.08,6.13,2.97,4.95,2.19,10.34,3.56,15.76,3.64"/><path class="b" d="M8,146.48c14.59,0,29.19,0,43.78,0,6.41,0,12.85,0,19.26,0,1.22-.1,2.43.82,3.5,1.29,1.69.87,3.5,1.83,5.25,2.57,5.12,2.38,10.66,1.92,15.76-.23,2.03-.79,4.13-1.74,6.13-2.6,1.07-.42,2.32-1.16,3.5-1.02,7.58,0,15.19,0,22.77,0,9.92,0,19.86,0,29.77,0,1.1.04,2.45-.16,3.5.24,2.28,1.09,4.67,2.22,7,3.18,4.99,2.07,10.35,3.41,15.76,3.59"/><path class="b" d="M8,144.28c15.46,0,30.94,0,46.41,0,6.7,0,13.44,0,20.14,0,1.13,0,2.52-.12,3.5.55,1.67.82,3.49,1.67,5.25,2.26,5.52,2.06,11.44.44,16.64-1.8.77-.31,1.83-.77,2.63-1.01,1.7,0,3.55,0,5.25,0,4.07,0,8.19,0,12.26,0,11.96,0,23.94,0,35.9,0,2,0,4.13,0,6.13,0,2.37.64,4.66,1.92,7,2.68,4.76,1.75,9.81,2.88,14.89,3.13"/><path class="b" d="M8,142.08c16.63,0,33.28,0,49.91,0,7.58,0,15.19,0,22.77,0,1.19-.15,2.44.32,3.5.8,1.36.51,2.94.96,4.38,1.17,2.6.39,5.35.09,7.88-.6,1.73-.34,3.47-1.43,5.25-1.37,6.99,0,14.02,0,21.02,0,13.71,0,27.44,0,41.15,0,2.65.6,5.23,1.86,7.88,2.51,3.97,1.15,8.13,1.89,12.26,2.16"/><path class="b" d="M8,139.88c26.56,0,53.12,0,79.68,0,1.42-.02,2.95.58,4.38.59,2.02.14,4.16-.15,6.13-.59,4.36,0,8.77,0,13.13,0,17.8,0,35.61,0,53.41,0,2.39-.1,4.69,1.14,7,1.59,4,1.03,8.14,1.72,12.26,2.02"/><path class="b" d="M8,137.68c35.61,0,71.22,0,106.83,0,17.22,0,34.45,0,51.66,0,2.36-.17,4.7.8,7.01,1.18,3.44.7,7,1.2,10.51,1.47"/><path class="b" d="M8,135.48c36.19,0,72.39,0,108.58,0,14.3,0,28.61,0,42.91,0,3.77,0,7.61,0,11.38,0,4.32.84,8.74,1.46,13.13,1.8"/><path class="b" d="M8,133.28c36.77,0,73.55,0,110.33,0,12.54,0,25.11,0,37.65,0,5.82,0,11.69,0,17.51,0,3.48.27,7.01.85,10.51,1.05"/><path class="b" d="M8,131.08c37.65,0,75.31,0,112.96,0,12.84,0,25.69,0,38.53,0,8.16.12,16.38-.34,24.52.41"/><path class="b" d="M8,128.88h176"/><path class="b" d="M8,126.68h176"/><path class="b" d="M8,124.48h176"/><path class="b" d="M8,122.28h176"/><path class="b" d="M8,120.08h176"/><path class="b" d="M8,117.88h176"/><path class="b" d="M8,115.67c58.67,0,117.33,0,176,0"/><path class="b" d="M8,113.47c44.95,0,89.9,0,134.85,0,3.44.62,7.02.85,10.51.65,2.61-.06,5.28-.59,7.88-.65,7.58,0,15.19,0,22.77,0"/><path class="b" d="M8,111.27c43.2,0,86.4,0,129.59,0,1.44-.13,2.99.25,4.38.61,1.68.37,3.53.64,5.25.76,4.68.32,9.4-.34,14.01-1.09,2.85-.54,5.87-.18,8.76-.28,4.65,0,9.36,0,14.01,0"/><path class="b" d="M8,109.38c16.04-.54,32.11-.24,48.16-.31,26.85,0,53.71,0,80.56,0,2.32.47,4.63,1.48,7,1.79,6.73,1.19,13.55-.29,20.14-1.61,2.26-.4,4.71-.08,7-.18,4.36,0,8.77,0,13.13,0"/><path class="b" d="M8,108.53c5.59.11,11.13-.9,16.64-1.66,10.21,0,20.44,0,30.65,0,26.27,0,52.54,0,78.81,0,1.18-.14,2.43.55,3.5.95,1.37.52,2.95,1.02,4.38,1.35,6.68,1.64,13.59.21,20.14-1.35,1.4-.3,2.96-.77,4.38-.95,1.7,0,3.55,0,5.25,0,4.07,0,8.19,0,12.26,0"/><path class="b" d="M8,107.3c6.21-.06,12.32-1.42,18.39-2.6,4.07-.07,8.19,0,12.26-.03,25.97,0,51.96,0,77.93,0,5.53,0,11.11,0,16.64,0,4.18,1.8,8.5,3.68,13.13,3.84,6.89.38,13.56-1.91,20.14-3.62,1.95-.47,4.13-.11,6.13-.22,3.77,0,7.61,0,11.38,0"/><path class="b" d="M8,105.63c6.25-.2,12.27-2.2,18.39-3.16,7.87,0,15.77,0,23.64,0,21.89,0,43.78,0,65.67,0,5.24,0,10.52,0,15.76,0,4.6,2.47,9.59,4.63,14.89,4.79,7.25.26,14.17-2.48,21.01-4.51,1.92-.59,4.14-.15,6.13-.28,3.48,0,7.03,0,10.51,0"/><path class="b" d="M8,103.5c5.05-.51,9.98-1.96,14.89-3.19,9.33-.1,18.69,0,28.02-.04,20.72,0,41.45,0,62.17,0,4.65,0,9.36,0,14.01,0,.81,0,1.91-.1,2.63.38,1.39.75,2.95,1.58,4.38,2.25,3.29,1.57,6.86,2.79,10.51,3.11,6,.57,11.91-1.31,17.51-3.27,1.4-.49,2.98-1.05,4.38-1.55,1.08-.32,2.34-1.04,3.5-.92,4.65,0,9.36,0,14.01,0"/><path class="b" d="M8,100.97c2.94-.5,5.9-1.3,8.76-2.14.8-.23,1.83-.54,2.63-.76,1.11,0,2.4,0,3.5,0,11.96,0,23.94,0,35.9,0,10.79,0,21.61,0,32.4,0,1.43-.1,2.98.27,4.38.51,1.99.33,4.12.57,6.13.69,4.67.3,9.38-.27,14.01-.89,3.77-.48,7.77-.62,11.38.75,2.69.96,5.22,2.53,7.88,3.56,3.31,1.36,6.91,2.3,10.51,2.38,5.77.15,11.34-1.82,16.64-3.91,1.71-.67,3.55-1.43,5.25-2.11,1.06-.4,2.33-1.11,3.5-.98,4.36,0,8.77,0,13.13,0"/><path class="b" d="M8,98.16c2.64-.6,5.28-1.53,7.88-2.29,5.53,0,11.11,0,16.64,0,11.96,0,23.94,0,35.9,0,4.06.07,8.21-.15,12.26.1,7.82,2.97,16.08,5.27,24.52,4.96,5.3-.07,10.5-1.47,15.76-1.93,2.32-.18,4.78,0,7,.72,2.05.67,4.09,1.73,6.13,2.42,4.17,1.52,8.69,2.38,13.13,1.98,5.52-.47,10.75-2.65,15.76-4.89,1.7-.77,3.55-1.61,5.25-2.39,1.03-.5,2.32-1.12,3.5-.97,4.07,0,8.19,0,12.26,0"/><path class="b" d="M8,95.31c1.73-.46,3.52-1.21,5.25-1.65,4.07,0,8.19,0,12.26,0,8.46,0,16.94,0,25.39,0,4.95,0,9.94,0,14.89,0,1.71,0,3.55,0,5.25,0,.8,0,1.87-.07,2.63.26,6.35,2.61,12.49,5.96,19.26,7.37,5.43,1.21,11.1,1.56,16.64.98,4.68-.45,9.3-1.74,14.01-1.9,3.95-.26,7.62,1.51,11.38,2.38,2.54.7,5.28.34,7.88.42,2-.03,4.13.06,6.13-.05,3.63-.74,7.16-2.13,10.51-3.7,2.63-1.23,5.3-2.62,7.88-3.94,1.39-.57,2.84-1.79,4.38-1.82,4.07,0,8.19,0,12.26,0"/><path class="b" d="M8,92.6c1.11-.34,2.36-.92,3.5-1.13.8,0,1.84,0,2.63,0,2.6,0,5.28,0,7.88,0,7.87,0,15.77,0,23.64,0,4.95,0,9.94,0,14.89,0,1.41,0,2.97,0,4.38,0,1.11.03,2.47-.15,3.5.36,4.88,1.86,9.3,4.81,14.01,7.04,1.67.76,3.47,1.66,5.25,2.11.78,0,1.85,0,2.63,0,3.77,0,7.61,0,11.38,0,10.5,0,21.02,0,31.52,0,6.99-.08,14.03.16,21.01-.09,4.23-1.82,8.27-4.19,12.26-6.48,1.08-.63,2.41-1.37,3.5-1.98.73-.39,1.74-1.13,2.63-.95,3.77,0,7.61,0,11.38,0"/><path class="b" d="M8,90.14c.8-.28,1.79-.73,2.63-.87,1.11,0,2.4,0,3.5,0,2.3,0,4.7,0,7.01,0,7.58,0,15.19,0,22.77,0,6.41.07,12.87-.15,19.26.09,5.08,1.59,9.51,4.72,14.01,7.46,1.36.68,2.78,2.09,4.38,1.95,2.89,0,5.87,0,8.76,0,6.12,0,12.27,0,18.39,0,14,0,28.03,0,42.03,0,1.4,0,2.98,0,4.38,0,.79,0,1.89.07,2.63-.26,1.42-.82,2.99-1.79,4.38-2.67,3.48-2.17,6.91-4.6,10.51-6.58,3.77,0,7.61,0,11.38,0"/><path class="b" d="M8,88.06c.8-.3,1.82-.75,2.63-.99.8,0,1.84,0,2.63,0,2.3,0,4.7,0,7.01,0,6.99,0,14.02,0,21.01,0,5.53,0,11.11,0,16.64,0,5.26.29,11.42,5.12,15.76,8.01.76.5,1.71,1.3,2.63,1.5.78,0,1.84,0,2.63,0,2,0,4.13,0,6.13,0,6.41,0,12.85,0,19.26,0,16.05,0,32.11,0,48.16,0,2.3,0,4.71,0,7.01,0,1.87-.84,3.55-2.39,5.25-3.53,2.86-2.01,5.69-4.29,8.76-5.98,3.48,0,7.03,0,10.51,0"/><path class="b" d="M8,86.47c1.41-.51,2.9-1.31,4.38-1.6,2.6,0,5.28,0,7.88,0,5.82,0,11.69,0,17.51,0,5.53,0,11.11,0,16.64,0,5.59.27,11.35,4.8,15.76,8,2.13,1.85,2.6,1.5,5.25,1.51,2,0,4.13,0,6.13,0,6.41,0,12.85,0,19.26,0,17.8,0,35.61,0,53.41,0,9.16-.19,5.85,1.34,13.13-4.47,2.26-1.68,4.47-3.79,7.01-5.04,3.18,0,6.45,0,9.63,0"/><path class="b" d="M8,85.46c1.7-.66,3.53-1.39,5.25-1.98,1.38-.52,2.89-.97,4.38-.81,6.12,0,12.27,0,18.39,0,5.24,0,10.52,0,15.76,0,6,.75,11.11,4.71,15.76,8.31.42.36,1.25.97,1.75,1.19.78,0,1.84,0,2.63,0,2,0,4.13,0,6.13,0,6.41,0,12.85,0,19.26,0,19.84,0,39.7,0,59.54,0,2,0,4.13,0,6.13,0,1.33-.49,2.41-1.86,3.5-2.71,1.38-1.22,2.96-2.58,4.38-3.77,1.37-.98,2.71-2.6,4.38-3.03,2.89,0,5.87,0,8.76,0"/><path class="b" d="M8,85.13c4.35-1.52,8.74-3.13,13.13-4.54,4.92-.33,9.95-.03,14.89-.13,4.36,0,8.77,0,13.13,0,5.22.86,9.9,3.76,14.01,6.97,1.11.78,2.22,2.03,3.5,2.53,2,0,4.13,0,6.13,0,4.65,0,9.36,0,14.01,0,25.97-.02,51.96.04,77.93-.02,3.41-3.22,6.82-6.59,10.51-9.49h8.76"/><path class="b" d="M8,85.36c3.57-1.4,7.02-3.26,10.51-4.86,2.22-.88,4.59-2.17,7-2.23,3.19,0,6.45,0,9.63,0,3.77.04,7.61-.08,11.38.05,4.07.77,7.98,2.5,11.38,4.85,2.12,1.35,4.03,3.24,6.13,4.6h101.57c2.44-2.08,4.63-4.64,7.01-6.79,1.07-.88,2.14-2.31,3.5-2.71,2.6,0,5.28,0,7.88,0"/><path class="b" d="M8,85.05c6.13-2.88,11.64-7.33,18.39-8.74,1.67-.41,3.55-.2,5.25-.25,2.3,0,4.7,0,7,0,8.6-.61,16.55,3.78,22.77,9.38,4.34.33,8.78.03,13.13.13,7.87,0,15.77,0,23.64,0,22.76,0,45.54,0,68.3,0,3.31-3,6.09-6.76,9.63-9.51h7.88"/><path class="b" d="M8,83.37c.87.1,1.93-.23,2.63-.73,1.12-.65,2.42-1.46,3.5-2.16,3.02-1.95,6.2-3.86,9.63-4.99,6.5-2.1,15.29-1.93,21.89-.23,5.32,1.38,9.76,4.78,14.01,8.11h107.7c2.86-3.14,5.72-6.45,8.76-9.42,2.59-.2,5.29-.03,7.88-.09"/><path class="b" d="M8,81.17c.8,0,1.84.03,2.63-.1,1.44-.83,2.99-1.86,4.38-2.77,2.46-1.6,5.11-3.12,7.88-4.11,3.9-1.42,8.14-1.74,12.26-1.69,6.53-.18,13.09,1.64,18.39,5.51,1.47.93,2.83,2.37,4.38,3.16,2.3,0,4.7,0,7.01,0,5.53,0,11.11,0,16.64,0,18.68,0,37.36,0,56.04,0,6.41,0,12.86,0,19.26,0,3.7-.11,7.75.24,11.38-.16,2.56-3,5.16-6.16,7.88-9.03,1.03-.52,2.39-.26,3.5-.32,1.4,0,2.97,0,4.38,0"/><path class="b" d="M8,78.97c.8,0,1.84,0,2.63,0,.84-.34,1.86-.99,2.63-1.46,2.23-1.43,4.57-2.92,7.01-4,4.09-1.88,8.67-2.48,13.13-2.48,3.51-.04,7.13.06,10.51,1.09,4.2,1.23,8.02,3.63,11.38,6.37.72.57,1.77.48,2.63.47,1.1,0,2.4,0,3.5,0,19.84,0,39.7,0,59.54,0,11.38,0,22.77,0,34.15,0,4.07,0,8.19,0,12.26,0,1.64.34,2.6-1.46,3.5-2.51,2-2.27,3.78-5.07,6.13-6.99h7"/><path class="b" d="M8,76.77c.79,0,1.85.05,2.63-.15,1.13-.53,2.43-1.23,3.5-1.87,2.46-1.5,5.12-2.91,7.88-3.79,3.65-1.19,7.57-1.45,11.38-1.42,2.6.01,5.32,0,7.88.56,4.91.95,9.18,3.75,13.13,6.67h114.71c1.04-.54,1.89-1.92,2.63-2.79,1.69-2.14,3.5-4.45,5.25-6.54,2.26-.4,4.71-.08,7-.18"/><path class="b" d="M8,74.56c4.97-1.03,9.07-4.45,14.01-5.59,3.98-1.05,8.17-1.08,12.26-.98,5.59-.18,11.15,1.39,15.76,4.57,1.13.59,2.17,1.98,3.5,2.01,2.6,0,5.28,0,7.88,0,6.12,0,12.27,0,18.39,0,30.06,0,60.13,0,90.19,0,2.95-2.8,4.95-6.68,7.88-9.51h6.13"/><path class="b" d="M8,71.08c4.95-.35,9.16-3.45,14.01-4.24,3.73-.72,7.61-.65,11.38-.51,5.34-.05,10.32.96,14.89,3.83,1.13.64,2.32,1.65,3.5,2.2,2.89,0,5.86,0,8.76,0,5.82,0,11.69,0,17.51,0,30.94,0,61.88,0,92.82,0,1.87-2.03,3.55-4.52,5.25-6.7.73-.88,1.53-2.34,2.63-2.81h5.25"/><path class="b" d="M8,67.24c4.58.41,8.71-1.98,13.13-2.6,3.75-.56,7.61-.36,11.38-.13,3.84.18,7.81.38,11.38,1.95,2.14.87,4.25,2.1,6.13,3.43,1.05.44,2.39.22,3.5.27,7.29,0,14.6,0,21.89,0,32.1,0,64.21,0,96.32,0,2.43-2.9,4.67-6.17,7.01-9.15.42-.24,1.27-.43,1.75-.35,1.1,0,2.41,0,3.5,0"/><path class="b" d="M8,63.14c1.98.37,4.13.43,6.13.15,2.59-.45,5.22-1.25,7.88-1.27,3.79-.15,7.62.3,11.38.64,5.33.21,10.43,1.46,14.89,4.49,1.18,1.09,2.91.77,4.38.8,2.3,0,4.7,0,7.01,0,6.41,0,12.85,0,19.26,0,12.25,0,24.52,0,36.78,0,4.61-.91,9.31-1.6,14.01-1.83,2.03-.17,4.19.09,6.13.7,1.12.29,2.33,1.08,3.5,1.13,11.08,0,22.19,0,33.27,0,2.44-2.91,4.67-6.21,7-9.2,1.32-.57,2.97-.21,4.38-.31"/><path class="b" d="M8,58.84c2.23.71,4.66,1.09,7,.99,2.01-.13,4.11-.58,6.13-.51,4.69.07,9.36,1,14.01,1.52,3.64.3,7.29,1.27,10.51,3.03,1.13.54,2.29,1.54,3.5,1.89,1.71,0,3.55,0,5.25,0,12.54,0,25.11,0,37.65,0,6.12,0,12.27,0,18.39,0,2.89-.67,5.81-1.64,8.76-2.12,2.87-.54,5.85-.9,8.76-1.13,2.61-.26,5.37-.27,7.88.62,1.13.37,2.45.95,3.5,1.52.43.24,1.34.75,1.75,1.01.41.07,1.33.13,1.75.1,10.21,0,20.44,0,30.65,0,1.92-2.01,3.54-4.58,5.25-6.77,2.05-2.76,1.72-2.86,5.25-2.73"/><path class="b" d="M8,54.44c2.47,1.06,5.18,1.84,7.88,1.95,2.01.03,4.13-.18,6.13.09,3.81.42,7.61,1.31,11.38,1.94,5.71.72,10.05,1.82,14.89,5.13,15.76,0,31.53,0,47.28,0,4.07,0,8.19,0,12.26,0,1.7-.57,3.53-1.24,5.25-1.74,6.23-1.76,12.78-2.87,19.26-2.74,3.88.32,7.32,2.41,10.51,4.48h31.52c1.42-.97,2.42-2.85,3.5-4.16,1.4-1.71,2.65-3.95,4.38-5.35h1.75"/><path class="b" d="M8,51.85c1.41.03,2.98-.08,4.38.08,1.08.38,2.37.74,3.5.93,1.99.35,4.14.22,6.13.61,2.93.5,5.87,1.32,8.76,2,2.86.77,5.89,1.12,8.76,1.85,2.44.67,4.85,1.78,7.01,3.11.45.3,1.24.77,1.75.92.45,0,1.3,0,1.75,0,1.71,0,3.55,0,5.25,0,4.65,0,9.36,0,14.01,0,11.96,0,23.94,0,35.9,0,1.18.13,2.41-.66,3.5-1,1.39-.52,2.96-1.04,4.38-1.47,4.54-1.36,9.29-2.18,14.01-2.57,5.84-.78,10.11.45,14.89,3.9.69.52,1.7,1.34,2.63,1.14,1.4,0,2.98,0,4.38,0,5.82,0,11.69,0,17.51,0,2,0,4.13,0,6.13,0,1.1-.05,2.47.19,3.5-.3,2.31-2.97,4.62-6.14,7-9.05l.88-.16"/><path class="b" d="M8,49.65c4.96.06,10.04-.36,14.89.91,3.51.89,7,2.12,10.51,3.04,2.6.67,5.38,1,7.88,2.01,9.87,4.31,2.82,3.51,14.89,3.54,15.46,0,30.94,0,46.41,0,.77,0,1.85.01,2.63-.04,1.08-.46,2.4-.99,3.5-1.4,2.26-.84,4.67-1.59,7-2.17,5.42-1.27,11.07-2.11,16.64-1.92,4.27.44,8.08,2.86,11.38,5.47,11.08.16,22.19,0,33.27.06,2.52-2.63,4.59-5.87,7-8.6"/><path class="b" d="M8,47.45c3.19,0,6.45,0,9.63,0,2,.1,4.18-.25,6.13.21,4.64,1.51,9.2,3.47,14.01,4.39,2.09.54,4.22,1.37,6.13,2.38,1.47.71,2.89,1.87,4.38,2.53,2,0,4.12,0,6.13,0,15.46,0,30.94,0,46.41,0,1.09,0,2.41,0,3.5,0,.81-.17,1.86-.64,2.63-.95,2.54-.99,5.24-1.87,7.88-2.54,5.69-1.37,11.65-2.23,17.51-2,4.29.44,8.02,2.97,11.38,5.49,7.58,0,15.19,0,22.77,0,2.6,0,5.28,0,7.88,0,1.4-.05,3,.14,4.38-.16,1.69-2.11,3.5-4.4,5.25-6.46"/><path class="b" d="M8,45.25c3.77,0,7.61,0,11.38,0,2.27.12,4.8-.28,7,.23,3.69,1.55,7.47,3.06,11.38,3.95,3.79,1.06,7.33,3.03,10.51,5.33,13.42,0,26.86,0,40.28,0,5.24,0,10.52,0,15.76,0,4.04-1.29,8.06-2.93,12.26-3.71,3.44-.73,7-1.16,10.51-1.36,2.92-.21,5.99-.28,8.76.82,2.52.93,4.89,2.46,7,4.09,2.27.36,4.71.07,7.01.16,3.77,0,7.61,0,11.38,0,4.65,0,9.36,0,14.01,0,6.67.08,4.35.33,8.76-4.5"/><path class="b" d="M8,43.05c4.36,0,8.77,0,13.13,0,1.41,0,2.97,0,4.38,0,1.12.01,2.5-.14,3.5.47,1.97.87,4.07,1.75,6.13,2.4,2.04.58,4.2,1.22,6.13,2.12,1.79.82,3.63,1.88,5.25,2.98.45.3,1.31.92,1.75,1.24.76.36,1.82.29,2.63.28,14.88,0,29.78,0,44.66,0,3.19,0,6.45,0,9.63,0,2.57-.89,5.23-1.82,7.88-2.47,5.42-1.39,11.05-2,16.64-2.07,4.49-.24,8.75,1.85,12.26,4.48,8.16.16,16.36,0,24.52.06,3.19,0,6.45,0,9.63,0,1.1,0,2.41,0,3.5,0,.8,0,1.89.08,2.63-.29.43-.5,1.31-1.5,1.75-1.99"/><path class="b" d="M8,40.85c7.29,0,14.6,0,21.89,0,3.07,1.54,6.44,2.48,9.63,3.7,3.46,1.43,6.67,3.53,9.63,5.8,14.3,0,28.61,0,42.91,0,4.65,0,9.36,0,14.01,0,1.75-.26,3.53-1.05,5.25-1.43,2.56-.67,5.26-1.21,7.88-1.57,2.87-.39,5.86-.58,8.76-.62,2.02-.04,4.17-.04,6.13.52,2.15.58,4.27,1.65,6.13,2.86,1.64.5,3.56.14,5.25.25,2.89,0,5.87,0,8.76,0,9.92,0,19.86.02,29.77,0"/><path class="b" d="M8,38.65c7.58,0,15.19,0,22.77,0,1.51-.1,2.96,1.04,4.38,1.45,4.75,1.5,9.2,3.93,13.13,6.98.44.35,1.21.91,1.75,1.08.79,0,1.84,0,2.63,0,2.3,0,4.7,0,7.01,0,6.41,0,12.85,0,19.26,0,9.62,0,19.27,0,28.9,0,1.44.03,2.96-.67,4.38-.91,2.28-.52,4.69-.94,7.01-1.22,4.33-.45,8.8-.7,13.13-.2,2.12.36,4.26,1.21,6.13,2.26,4.94.17,9.94.01,14.89.07,10.21,0,20.44,0,30.65,0"/><path class="b" d="M8,36.45c8.16,0,16.35,0,24.52,0,1.19-.14,2.4.7,3.5,1.05,3.4,1.2,6.67,2.97,9.63,5.02,1.45,1,3.01,2.19,4.38,3.29,2.27.35,4.71.07,7,.15,5.53,0,11.11,0,16.64,0,12.54,0,25.11,0,37.65,0,4.62-.71,9.3-1.57,14.01-1.48,2.3.03,4.73.02,7.01.42,1.78.3,3.4,1.3,5.25,1.06,15.46,0,30.94,0,46.41,0"/><path class="b" d="M8,34.25c9.04,0,18.11,0,27.14,0,5.87,2.03,10.88,5.79,15.76,9.51,15.17,0,30.36,0,45.53,0,6.7,0,13.44,0,20.14,0,2.6-.12,5.27-.49,7.88-.42,2.31,0,4.71.2,7.01.42,5.24,0,10.52,0,15.76,0,12.25,0,24.52,0,36.78,0"/><path class="b" d="M8,32.05c6.41,0,12.85,0,19.26,0,3.18.06,6.46-.12,9.63.08,1.77.76,3.61,1.74,5.25,2.75,2.09,1.28,4.2,2.8,6.13,4.31,1.11.73,2.16,2.1,3.5,2.37,6.12,0,12.27,0,18.39,0,37.94,0,75.89,0,113.83,0"/><path class="b" d="M8,29.85c9.62,0,19.27,0,28.9,0,.89-.16,1.88.46,2.63.86.79.43,1.86,1.07,2.63,1.55,3.39,2.06,6.42,4.78,9.63,7.09h132.22"/><path class="b" d="M8,27.65c9.92,0,19.86,0,29.77,0,.51-.08,1.35.2,1.75.51,1.12.64,2.43,1.45,3.5,2.18,3.02,2.05,5.94,4.42,8.76,6.74,44.06.22,88.15,0,132.22.07"/><path class="b" d="M8,25.45c9.92,0,19.86,0,29.77,0,1.98-.13,3.64,1.62,5.25,2.55,3.01,2.09,5.93,4.49,8.76,6.81,1.98.31,4.13.07,6.13.14,3.48,0,7.03,0,10.51,0,9.92,0,19.86,0,29.77,0,28.6,0,57.21,0,85.81,0"/><path class="b" d="M8,23.25c9.92,0,19.86,0,29.77,0,1.99-.13,3.64,1.65,5.25,2.6,3,2.13,5.91,4.55,8.76,6.88,44.07.09,88.15,0,132.22.03"/><path class="b" d="M8,21.04c6.7,0,13.44,0,20.14,0,3.19,0,6.45,0,9.63,0,1.58,0,3.05,1.51,4.38,2.26,2.07,1.44,4.17,3.09,6.13,4.68,1.1.81,2.22,2.05,3.5,2.56,6.41,0,12.85,0,19.26,0,37.65,0,75.31,0,112.96,0"/><path class="b" d="M8,18.84c9.62,0,19.27,0,28.9,0,1.93.29,3.62,1.82,5.25,2.82,3.03,2.02,5.75,4.65,8.76,6.69,44.37,0,88.72-.02,133.09,0"/><path class="b" d="M8,17.61c1.09-.36,2.37-.76,3.5-.96,1.41,0,2.97,0,4.38,0,2.89,0,5.86,0,8.76,0,3.48,0,7.03,0,10.51,0,2.49.84,4.87,2.21,7,3.72,1.76,1.23,3.58,2.66,5.25,4,1.01.76,2.11,2.03,3.5,1.78,7.29,0,14.6,0,21.89,0,13.13,0,26.27,0,39.4,0,1.7,0,3.55,0,5.25,0,2.87-.49,5.81-1.23,8.76-1.17,2.36-.04,4.76.51,7.01,1.17,4.95,0,9.94,0,14.89,0,11.96,0,23.94,0,35.9,0"/><path class="b" d="M8,16.77c3.9-1.43,8.13-1.87,12.26-1.63,3.19.25,6.45.07,9.63-.16,3.34.11,6.71,1.22,9.63,2.83,3.11,1.71,5.83,4.17,8.76,6.15,16.92,0,33.86,0,50.79,0,5.24,0,10.52,0,15.76,0,1.45-.02,2.96-.74,4.38-1.01,2.55-.61,5.25-1.04,7.88-1.07,2.67-.04,5.41.49,7.88,1.5,1.57.87,3.53.51,5.25.58,14.59,0,29.19,0,43.78,0"/><path class="b" d="M8,15.55c5.99-2.32,11.35-1.54,17.51-1.08,9.27-.12,12.75.77,20.14,6.46,1.3,1.33,3.55.66,5.25.81,2.3,0,4.7,0,7,0,7.58,0,15.19,0,22.77,0,8.16,0,16.35,0,24.52,0,2.89,0,5.87.01,8.76,0,2.55-.84,5.24-1.59,7.88-2.11,3.72-.72,7.66-1.13,11.38-.27,2.1.48,4.23,1.35,6.13,2.35,4.94.1,9.94,0,14.89.04,9.92,0,19.86,0,29.77,0"/><path class="b" d="M8,13.96c6.92-2.65,12.28-1.24,19.26-.66,8.71.72,11.16.79,18.39,6.21,15.17.1,30.36,0,45.53.03,6.99,0,14.02,0,21.01,0,1.46-.09,2.96-.84,4.38-1.17,2.27-.65,4.68-1.23,7-1.67,4.32-.83,8.9-1.19,13.13.22,2.1.63,4.17,1.66,6.13,2.62,4.36,0,8.77,0,13.13,0,9.33,0,18.69,0,28.02,0"/><path class="b" d="M8,12.11c5.44-2.1,11.02-1.75,16.64-.75,4.36.61,8.85,1.01,13.13,2.02,1.83.6,3.64,1.62,5.25,2.65.79.46,1.66,1.33,2.63,1.32,2.3,0,4.7,0,7,0,13.42,0,26.86,0,40.28,0,4.65,0,9.36,0,14.01,0,1.7,0,3.55.02,5.25-.01,1.69-.55,3.54-1.1,5.25-1.56,4.86-1.23,9.85-2.45,14.89-2.61,3.93,0,7.82,1.18,11.38,2.78,1.1.43,2.31,1.29,3.5,1.4,2,0,4.13,0,6.13,0,10.21,0,20.44,0,30.65,0"/></svg>