<?xml version="1.0" encoding="UTF-8"?><svg id="a" xmlns="http://www.w3.org/2000/svg" width="1920" height="2400" viewBox="0 0 192 240"><defs><style>.b{fill:none;stroke:#fff;stroke-miterlimit:10;stroke-width:.3px;}.c{stroke-width:0px;}</style></defs><rect class="c" x="0" width="192" height="240"/><path class="b" d="M9.31,228.84c3.76.04,7.57.59,11.21,1.5,2.57.52,5.09,1.88,7.76,1.66,11.78,0,23.59,0,35.37,0,6.31-.09,12.68.19,18.98-.11,3.48-2.97,6.9-6.16,10.35-9.16,22.12-.26,44.29,0,66.42-.09,1.24-.18,2.43.74,3.45,1.3,1.67.96,3.48,1.98,5.18,2.89,2.79,1.5,5.71,2.96,8.63,4.2.75.32,1.8.76,2.59.97,1.08,0,2.37,0,3.45,0"/><path class="b" d="M9.31,225.71c4.36-.01,8.75.71,12.94,1.91,1.4.4,2.94.89,4.31,1.36,1.07.33,2.3.98,3.45.86,17.82,0,35.66,0,53.48,0,3.63-2.79,6.86-6.23,10.35-9.2,2.23-.37,4.64-.07,6.9-.16,4.01,0,8.07,0,12.08,0,11.21,0,22.44,0,33.64,0,6.03,0,12.09,0,18.11,0,.89.05,1.84.79,2.59,1.21,1.07.64,2.37,1.41,3.45,2.04,3.89,2.24,7.89,4.47,12.08,6.12"/><path class="b" d="M9.31,222.48c4.97-.09,9.95.89,14.66,2.43,1.7.55,3.51,1.2,5.18,1.83,1.07.38,2.28,1.05,3.45.92,16.39,0,32.78,0,49.17,0,.77,0,1.82,0,2.59,0,1.29-.57,2.38-1.92,3.45-2.82,2.26-2.09,4.6-4.3,6.9-6.36,1.93-.42,4.07-.1,6.04-.19,3.14,0,6.35,0,9.49,0,14.08,0,28.18,0,42.27,0,3.72,0,7.5,0,11.21,0,2.26.11,4.68-.25,6.9.19,3.94,2.51,7.94,5.08,12.08,7.26"/><path class="b" d="M9.31,219.2c5.6-.17,11.16,1.18,16.39,3.1,1.7.61,3.51,1.33,5.18,2.01,1.36.54,2.8,1.38,4.31,1.19,15.23,0,30.48,0,45.72,0,1.08,0,2.37,0,3.45,0,.49.08,1.31-.12,1.73-.38,3.16-2.88,6.31-5.94,9.49-8.8,1.05-.32,2.37-.16,3.45-.19,1.97,0,4.06,0,6.04,0,23.57.05,47.16-.1,70.74.06,2.25,1.54,4.6,3.14,6.9,4.6"/><path class="b" d="M9.31,215.88c6.26-.25,12.38,1.62,18.11,3.94,1.99.8,4.07,1.69,6.04,2.55.76.32,1.76.84,2.59.95.77,0,1.82,0,2.59,0,9.48,0,18.99,0,28.47,0,6.31,0,12.66,0,18.98,0,1.68-.68,2.93-2.46,4.31-3.59,1.96-1.85,4.04-3.81,6.04-5.62,1.66-.32,3.5-.09,5.18-.15,2.56,0,5.21,0,7.76,0,7.47,0,14.96,0,22.43,0,16.38.06,32.79-.12,49.17.07.43.32,1.29.95,1.73,1.27"/><path class="b" d="M9.31,212.57c6.62-.3,13,2.02,18.98,4.61,1.98.85,4.07,1.79,6.04,2.67,1.35.57,2.79,1.49,4.31,1.3,9.48,0,18.99,0,28.47,0,6.6,0,13.24,0,19.84,0,1.64-.79,2.93-2.5,4.31-3.66,1.96-1.85,4.04-3.81,6.04-5.62,28.45-.23,56.94,0,85.4-.08"/><path class="b" d="M9.31,209.63c1.97.06,4.08-.14,6.04.11,6.38,1.23,12.24,4.29,18.12,6.94,1.68.75,3.46,1.65,5.18,2.31,2.27,0,4.63,0,6.9,0,14.08,0,28.18,0,42.27,0,3.68-2.79,6.81-6.39,10.35-9.37h84.54"/><path class="b" d="M9.31,207.46c3.14.05,6.36-.1,9.49.07,5.07,1.69,9.83,4.25,14.66,6.5,1.97.92,4.06,1.9,6.04,2.8,2.27,0,4.63,0,6.9,0,14.08,0,28.18,0,42.27,0,3.51-3,6.7-6.55,10.35-9.37h83.67"/><path class="b" d="M9.31,205.29c2.56,0,5.2,0,7.76,0,1.38.1,3.02-.28,4.31.32,4.67,2.04,9.18,4.56,13.8,6.7,1.71.7,3.43,1.75,5.18,2.34.78,0,1.81,0,2.59,0,8.33,0,16.69,0,25.02,0,6.89,0,13.81,0,20.7,0,.57-.03,1.36-.61,1.73-1.02.77-.7,1.82-1.66,2.59-2.37,1.98-1.83,4.06-3.78,6.04-5.6.41-.25,1.25-.46,1.73-.37,1.08,0,2.37,0,3.45,0,26.16,0,52.34,0,78.5,0"/><path class="b" d="M9.31,203.12c4.01,0,8.07,0,12.08,0,1.83.31,3.5,1.61,5.18,2.37,2.54,1.35,5.17,2.75,7.76,3.99,1.98.96,4.13,1.84,6.04,2.93,2.26.17,4.64.03,6.9.07,14.08,0,28.18,0,42.27,0,3.69-2.73,6.9-6.24,10.35-9.27,27.59-.27,55.21,0,82.81-.09"/><path class="b" d="M9.31,200.95c4.3,0,8.64,0,12.94,0,1.53.23,2.93,1.41,4.31,2.07,2.53,1.41,5.16,2.86,7.76,4.11,1.37.67,2.94,1.34,4.31,2,.77.37,1.75.99,2.59,1.19,2.27,0,4.63,0,6.9,0,9.19,0,18.41,0,27.6,0,3.14,0,6.35,0,9.49,0,1.68-.07,3.53.18,5.18-.17,2.3-2.01,4.66-4.18,6.9-6.25,1.07-.93,2.2-2.25,3.45-2.94h81.95"/><path class="b" d="M9.31,198.79c4.3,0,8.64,0,12.94,0,1.91-.11,3.52,1.57,5.18,2.34,2.51,1.45,5.14,2.89,7.76,4.12,2,.9,4.12,1.84,6.04,2.91,2.27,0,4.63,0,6.9,0,14.08,0,28.18,0,42.27,0,3.67-2.76,6.94-6.17,10.35-9.24,3.41-.31,6.93-.04,10.35-.13,6.31,0,12.66,0,18.98,0,17.54,0,35.08,0,52.62,0"/><path class="b" d="M9.31,196.62c4.87.07,9.8-.13,14.66.08,3.09,1.88,6.25,3.82,9.49,5.43,2.53,1.27,5.3,2.29,7.76,3.71,2.53.35,5.21.06,7.76.15,4.58,0,9.22,0,13.8,0,6.31,0,12.66,0,18.98,0,1.97,0,4.06,0,6.04,0,1.53-.02,3.22.3,4.31-1.05,2-1.75,4.09-3.64,6.04-5.44,1.08-.9,2.15-2.29,3.45-2.87.43,0,1.3,0,1.73,0,26.45,0,52.91,0,79.36,0"/><path class="b" d="M9.31,194.45c4.87,0,9.79,0,14.66,0,3.72,2.04,7.29,4.52,11.21,6.2,2.32.93,4.63,2.14,6.9,3.17,2.27,0,4.63,0,6.9,0,14.08-.06,28.19.11,42.27-.06,3.54-2.96,6.91-6.24,10.35-9.31h81.09"/><path class="b" d="M9.31,192.28c3.14,0,6.35,0,9.49,0,1.97.11,4.13-.27,6.04.23,3.29,2.15,6.75,4.2,10.35,5.79,2.31.97,4.72,1.98,6.9,3.21,2.24.3,4.64.06,6.9.13,14.08,0,28.18,0,42.27,0,3.69-2.7,6.97-6.1,10.35-9.18,1.35-.36,2.93-.13,4.31-.19,1.98,0,4.06,0,6.04,0,6.03,0,12.09,0,18.12,0,17.54,0,35.08,0,52.62,0"/><path class="b" d="M9.31,190.11c5.16.02,10.37-.04,15.53.03,2.75,1.82,5.65,3.57,8.63,4.98,3.15,1.42,6.46,2.67,9.49,4.36,4.87,0,9.79,0,14.66,0,5.74,0,11.52,0,17.25,0,5.45,0,10.94,0,16.39,0,1.33-.37,2.39-1.75,3.45-2.58,2-1.77,4.09-3.69,6.04-5.52.37-.41,1.2-1.08,1.73-1.27.43,0,1.3,0,1.73,0,1.38,0,2.93,0,4.31,0,4.01,0,8.07,0,12.08,0,20.7,0,41.41,0,62.11,0"/><path class="b" d="M9.31,187.95c3.43,0,6.92,0,10.35,0,1.08,0,2.37,0,3.45,0,.81,0,1.87-.09,2.59.36,3.5,2.32,7.29,4.34,11.21,5.83,8.68,3.54,3.71,3.25,13.8,3.18,13.8-.04,27.61.08,41.41-.04,3.52-2.99,6.94-6.21,10.35-9.32h80.22"/><path class="b" d="M9.31,185.78c5.45.05,10.95-.1,16.39.06,2.45,1.61,5.09,3.12,7.76,4.32,3.47,1.49,7.16,2.72,10.35,4.8,1.93.4,4.07.09,6.04.19,3.72,0,7.5,0,11.21,0,10.06,0,20.14,0,30.19,0,1.79.2,3.01-1.78,4.31-2.72,2.29-2.04,4.64-4.21,6.9-6.27,1.26-.68,2.93-.26,4.31-.37,1.97,0,4.06,0,6.04,0,6.03,0,12.09,0,18.12,0,17.25,0,34.51,0,51.76,0"/><path class="b" d="M9.31,183.61c3.72,0,7.5,0,11.21,0,1.96.12,4.13-.28,6.04.24,3.98,2.68,8.53,4.35,12.94,6.15,1.75.81,3.59,1.81,5.18,2.91,2.55.14,5.21.02,7.76.06,13.51-.03,27.04.05,40.54-.03,3.47-3.01,6.91-6.19,10.35-9.24,26.44-.29,52.91,0,79.36-.1"/><path class="b" d="M9.31,181.44c5.74,0,11.51,0,17.25,0,2.33.96,4.52,2.53,6.9,3.43,4.17,1.63,8.45,3.23,12.08,5.94,11.49,0,23.01,0,34.51,0,2.85,0,5.78,0,8.63,0,1.67-.11,3.58.28,5.18-.27,3.43-3.01,6.85-6.16,10.35-9.08,26.16-.02,52.34,0,78.5,0"/><path class="b" d="M9.31,179.27c6.03,0,12.09,0,18.11,0,.86.14,1.83.8,2.59,1.19,1.35.71,2.9,1.42,4.31,2,4.28,1.51,8.42,3.48,12.08,6.18,11.78,0,23.58,0,35.37,0,2.56,0,5.21,0,7.76,0,1.08,0,2.37,0,3.45,0,.49.1,1.33-.15,1.73-.44,3.38-2.98,6.78-6.08,10.35-8.82,9.47-.27,18.99-.01,28.47-.1.43,0,1.29,0,1.73,0,.78.25,1.81.68,2.59.92,1.63.51,3.47.81,5.18.78,1.72-.03,3.55-.39,5.18-.92.43-.14,1.3-.46,1.73-.64.76-.19,1.82-.14,2.59-.14,10.06,0,20.14,0,30.19,0"/><path class="b" d="M9.31,177.11c6.6,0,13.24,0,19.84,0,2.99,1.7,6.3,2.92,9.49,4.18,3.05,1.36,5.95,3.19,8.63,5.18h47.44c2.43-1.67,4.56-3.97,6.9-5.76,1.63-1.21,3.27-2.85,5.18-3.6,1.98,0,4.06,0,6.04,0,4.01,0,8.07,0,12.08,0,1.97.05,4.08-.12,6.04.1,1.06.54,2.34,1.13,3.45,1.55,3.54,1.41,7.56,1.66,11.21.55,1.75-.51,3.56-1.3,5.18-2.15,3.42-.13,6.92-.02,10.35-.05,7.18,0,14.39,0,21.57,0"/><path class="b" d="M9.31,174.94c7.18.04,14.39-.09,21.57.05,2.47,1.29,5.19,2.27,7.76,3.34,3.33,1.6,6.61,3.59,9.49,5.92,15.81.16,31.64,0,47.44.06,3.13-2.52,6.12-5.38,9.49-7.59.76-.5,1.79-1.15,2.59-1.59.76-.24,1.8-.19,2.59-.19,5.45,0,10.94,0,16.39,0,.85-.04,1.84.5,2.59.84,1.35.64,2.89,1.31,4.31,1.77,3.6,1.22,7.61,1.24,11.21.03,2.08-.61,4.06-1.79,6.04-2.64,3.14,0,6.35,0,9.49,0,7.47,0,14.96,0,22.43,0"/><path class="b" d="M9.31,172.77c7.47,0,14.96,0,22.43,0,1.5-.14,2.94.9,4.31,1.37,3.4,1.2,6.5,3.19,9.49,5.17,1.46.79,2.74,2.3,4.31,2.83,2.56,0,5.21,0,7.76,0,12.93-.05,25.89.09,38.82-.05,3.25-2.81,10.34-9.35,14.66-9.31,4.58.07,9.23-.15,13.8.09,2.62.74,5.16,2,7.76,2.78,3.34,1.01,7,1.07,10.35.08,2.07-.59,4.15-1.53,6.04-2.54,1.24-.75,2.93-.29,4.31-.41,1.97,0,4.06,0,6.04,0,7.75,0,15.54,0,23.29,0"/><path class="b" d="M9.31,170.6c8.62,0,17.26,0,25.88,0,3.13.73,5.97,2.59,8.63,4.34,2.29,1.6,4.77,3.15,6.9,4.95,8.9.18,17.84,0,26.74.07,4.3,0,8.64,0,12.94,0,2.26-.08,4.66.19,6.9-.15,4.49-3.99,9.47-8.06,15.53-9.21,3.14.04,6.36-.09,9.49.06,2.94.48,5.83,1.49,8.63,2.48,3.59,1.2,7.56,1.41,11.21.36,2.38-.65,4.73-1.72,6.9-2.88,3.14-.07,6.35,0,9.49-.03,8.04,0,16.11,0,24.15,0"/><path class="b" d="M9.31,168.43c9.77,0,19.56,0,29.33,0,2.81,1.14,5.29,3.16,7.76,4.88,1.99,1.43,4.19,2.83,6.04,4.44,10.63.13,21.29,0,31.92.05,4.01,0,8.07,0,12.08,0,1.83.33,2.99-1.47,4.31-2.41,1.86-1.51,3.92-2.99,6.04-4.12,4.43-2.42,9.69-3.02,14.66-2.53,7.35.69,12.09,4.71,19.84,2.66,2.7-.6,5.23-1.92,7.76-2.96,1.68,0,3.5,0,5.18,0,9.48,0,18.99,0,28.47,0"/><path class="b" d="M9.31,166.27c7.18,0,14.39,0,21.57,0,2.56,0,5.21,0,7.76,0,.77,0,1.82,0,2.59,0,1.22.39,2.4,1.41,3.45,2.11,3.08,2.38,6.5,4.46,9.49,6.95.73.39,1.8.31,2.59.31,1.08,0,2.37,0,3.45,0,12.65,0,25.31,0,37.96,0,1.23-.64,2.35-1.87,3.45-2.69,1.84-1.47,3.91-2.89,6.04-3.91,7.31-3.4,15.88-2.96,23.29-.1,3.61,1.15,7.58,1.13,11.21.1,2.35-.64,4.71-1.62,6.9-2.69,3.42-.17,6.93-.02,10.35-.07,7.75,0,15.54,0,23.29,0"/><path class="b" d="M9.31,164.1c11.21,0,22.44,0,33.64,0,.91-.17,1.91.49,2.59,1.03,1.08.79,2.37,1.75,3.45,2.54,2.58,1.85,5.42,3.51,7.76,5.67,3.69.32,7.5.04,11.21.13,6.6,0,13.24,0,19.84,0,3.43,0,6.92,0,10.35,0,1.24-.61,2.35-1.88,3.45-2.69,1.84-1.47,3.9-2.89,6.04-3.89,4.56-1.99,9.71-2.89,14.66-2.34,8.02.96,10.65,4.82,19.84,2.59,2.98-.62,5.77-2.09,8.63-3.03,1.38,0,2.93,0,4.31,0,9.19,0,18.41,0,27.6,0"/><path class="b" d="M9.31,161.93c8.04,0,16.11,0,24.15,0,2.85,0,5.78,0,8.63,0,1.09,0,2.37,0,3.45,0,.54-.1,1.29.14,1.73.43,2.73,2.1,5.8,3.87,8.63,5.83,1.13.84,2.4,1.91,3.45,2.85,1.04.42,2.36.21,3.45.26,11.49,0,23.01,0,34.5,0,1.37-.13,2.35-1.7,3.45-2.43,1.84-1.51,3.9-2.99,6.04-4.05,5.06-2.34,10.87-3.4,16.39-2.45,2.98.49,5.78,1.86,8.63,2.8,3.9,1.21,8.16,1,12.08-.01,2.02-.51,4.11-1.24,6.04-2.01.76-.31,1.83-.76,2.59-1.1.75-.14,1.83-.11,2.59-.11,9.19,0,18.41,0,27.6,0"/><path class="b" d="M9.31,159.76c10.06,0,20.14,0,30.19,0,3.14,0,6.35,0,9.49,0,1.85.58,3.42,2.14,5.18,2.96,3.2,1.61,5.91,4.13,8.63,6.4,10.92,0,21.86,0,32.78,0,1.79.23,2.98-1.73,4.31-2.62,2.34-1.92,4.94-3.73,7.76-4.86,3.29-1.23,6.82-2.08,10.35-1.88,2.01-.07,4.12.02,6.04.68,3.24.89,6.22,2.72,9.49,3.5,7.65,1.79,15.5-.97,22.43-4.09,8.89-.23,17.84,0,26.74-.08"/><path class="b" d="M9.31,157.59c10.63,0,21.29,0,31.92,0,3.72,0,7.5,0,11.21,0,5.28,1.92,9.64,5.69,13.8,9.37,6.31,0,12.66,0,18.98,0,2.27,0,4.63,0,6.9,0,1.12-.07,2.52.28,3.45-.49,3.89-3.25,7.98-6.69,12.94-8.1,2.24-.76,4.56-.85,6.9-.77,1.97.06,4.08-.14,6.04.12,3.92.96,7.42,3.21,11.21,4.53,9.33,2.94,19.17-.58,27.6-4.65,7.47,0,14.96,0,22.43,0"/><path class="b" d="M9.31,155.43c11.78,0,23.58,0,35.37,0,4.3,0,8.64-.01,12.94,0,4.83,2.31,8.61,6.31,12.94,9.36,7.18-.07,14.4.13,21.57-.08,4.9-3.46,9.58-7.74,15.53-9.25,2.85-.1,5.78-.01,8.63-.04,1.38.02,2.93-.07,4.31.07,4.81,1.47,8.95,4.67,13.8,6.01,5.64,1.53,11.68.96,17.25-.57,3.92-1.09,7.71-2.81,11.21-4.87.91-.78,2.33-.65,3.45-.65,1.38,0,2.93,0,4.31,0,4.01,0,8.07,0,12.08,0"/><path class="b" d="M9.31,153.26c14.95,0,29.91,0,44.86,0,2.56,0,5.21,0,7.76,0,1.62.2,2.96,1.72,4.31,2.55,3.51,2.55,7.04,5.42,11.21,6.81,1.97.01,4.06,0,6.04,0,.77,0,1.82.02,2.59-.06.79-.26,1.84-.69,2.59-1.05,5.03-2.43,9.41-6.19,14.66-8.16,5.15-.25,10.37-.02,15.53-.1,1.82.18,3.54,1.36,5.18,2.11,3.39,1.75,6.67,3.98,10.35,5.09,11.27,3.41,23.57-.24,32.78-7.14,5.15-.18,10.37-.01,15.53-.07"/><path class="b" d="M9.31,151.09c16.67,0,33.36,0,50.03,0,2.56,0,5.21,0,7.76,0,1.55.39,2.91,1.68,4.31,2.41,2.39,1.42,5.01,2.73,7.76,3.27,6.52,1.38,12.44-2.5,18.11-5.12.99-.6,2.33-.61,3.45-.57,1.08,0,2.37,0,3.45,0,4.58,0,9.22,0,13.8,0,2.47.57,4.68,2.29,6.9,3.49,3.79,2.31,7.69,4.71,12.08,5.68,1.64.4,3.5.12,5.18.2,2.85,0,5.78,0,8.63,0,5.4-.09,11.19-3.46,15.53-6.49.77-.56,1.84-1.35,2.59-1.94.56-.65,1.73-1.07,2.59-.93,3.72,0,7.5,0,11.21,0"/><path class="b" d="M9.31,148.92c20.7,0,41.41,0,62.11,0,1.09.03,2.39-.1,3.45.16,2.17.86,4.56,1.45,6.9,1.52,3.25.19,6.39-.94,9.49-1.68,2.27,0,4.63,0,6.9,0,4.87,0,9.79,0,14.66,0,1.38,0,2.93,0,4.31,0,2.16.68,4.1,2.26,6.04,3.4,3.33,2.13,6.67,4.45,10.35,5.92,4.58.11,9.22,0,13.8.04,3.72,0,7.5,0,11.21,0,5.28-1.77,9.61-5.73,13.8-9.27,3.41-.25,6.93-.03,10.35-.1"/><path class="b" d="M9.31,146.75c29.61,0,59.24,0,88.85,0,4.3,0,8.64,0,12.94,0,1.68,0,3.5,0,5.18,0,1.53.55,2.95,1.76,4.31,2.62,2.25,1.56,4.59,3.22,6.9,4.69,1.64.94,3.16,2.35,5.18,2.05,8.62,0,17.26,0,25.88,0,1.38,0,2.93,0,4.31,0,1.48-.76,2.99-1.88,4.31-2.89,2.38-1.85,4.7-4,6.9-6.07.95-.66,2.36-.35,3.45-.41,1.68,0,3.5,0,5.18,0"/><path class="b" d="M9.31,147.32c4.1-.49,8.08-1.84,12.08-2.73,7.47,0,14.96,0,22.43,0,16.1,0,32.21,0,48.31,0,5.16,0,10.37,0,15.53,0,1.68,0,3.5,0,5.18,0,1.1.06,2.48-.24,3.45.4,4.32,2.92,8.27,6.63,12.94,8.97,3.72,0,7.5,0,11.21,0,4.87,0,9.79,0,14.66,0,3.43,0,6.92,0,10.35,0,1.66-.46,2.98-2.05,4.31-3.07,1.42-1.26,2.96-2.74,4.31-4.08.7-.7,1.67-1.79,2.59-2.22h6.04"/><path class="b" d="M9.31,149.33c6.27-1.5,12.24-4.07,18.11-6.67,1.05-.39,2.36-.2,3.45-.24,1.68,0,3.49,0,5.18,0,20.7,0,41.41,0,62.11,0,5.45,0,10.94,0,16.39,0,2.19,1.14,4.05,3.1,6.04,4.55,1.36,1.08,2.9,2.27,4.31,3.27.99.67,2.16,1.75,3.45,1.54,6.03,0,12.09,0,18.12,0,7.18,0,14.39,0,21.57,0,3.61-2.36,6.43-5.95,9.49-8.96,0,0,.86-.41.86-.41h.86c1.07,0,2.38,0,3.45,0"/><path class="b" d="M9.31,149.61c1.09-.01,2.37.04,3.45-.07,2.01-.76,4.09-1.65,6.04-2.55,4.38-2.04,8.69-4.37,12.94-6.67,19.54-.22,39.11,0,58.66-.08,5.16,0,10.37,0,15.53,0,1.68,0,3.5,0,5.18,0,1.1.06,2.5-.26,3.45.44,3.67,3.01,7.15,6.47,11.21,8.93,4.58,0,9.22,0,13.8,0,5.45,0,10.94,0,16.39,0,4.01,0,8.07,0,12.08,0,.78,0,1.87.08,2.59-.29.78-.72,1.85-1.73,2.59-2.48,2.03-2.05,4.07-4.34,6.04-6.45,1.07-.23,2.37-.11,3.45-.14"/><path class="b" d="M9.31,147.45c2.85,0,5.78,0,8.63,0,5.74-2.51,11.02-6.15,16.39-9.37,14.95,0,29.91,0,44.86,0,7.18,0,14.39,0,21.57,0,2.56,0,5.21,0,7.76,0,1.08,0,2.37,0,3.45,0,.47-.1,1.34.14,1.73.43,3.33,3.04,6.71,6.19,10.35,8.87,11.49.18,23.01,0,34.51.07,4.3,0,8.64,0,12.94,0,1.43-.34,2.4-1.99,3.45-2.92,2.04-2.03,3.83-4.59,6.04-6.44h1.73"/><path class="b" d="M9.31,145.28c4.01-.03,8.07.05,12.08-.04,3.52-2.01,7-4.25,10.35-6.53,1.4-.88,2.8-2.12,4.31-2.8,2.27,0,4.63,0,6.9,0,13.8,0,27.61,0,41.41,0,6.03,0,12.09,0,18.12,0,2.27,0,4.63,0,6.9,0,1.1.06,2.48-.25,3.45.41,2.23,2.16,4.56,4.41,6.9,6.44,1.28.93,2.56,2.73,4.31,2.52,5.16,0,10.37,0,15.53,0,5.74,0,11.52,0,17.25,0,5.45,0,10.94,0,16.39,0,1.37-.63,2.4-2.18,3.45-3.22,1.71-1.9,3.49-4,5.18-5.92l.86-.22"/><path class="b" d="M9.31,143.11c4.58,0,9.22.01,13.8,0,2.94-1.76,5.86-3.73,8.63-5.74,1.72-1.11,3.31-2.78,5.18-3.62,8.04,0,16.11,0,24.15,0,8.33,0,16.69,0,25.02,0,8.33,0,16.69,0,25.02,0,1.43.35,2.31,2.08,3.45,2.99,2.17,2.16,4.51,4.35,6.9,6.27,17.81.3,35.66,0,53.48.11,2.83-2.6,5.24-5.79,7.76-8.67"/><path class="b" d="M9.31,140.94c4.87-.02,9.79.05,14.66-.03,4.58-2.69,8.77-6.07,12.94-9.33,24.72.04,49.46-.08,74.19.04,2.83,3.36,5.97,6.68,9.49,9.32,12.07,0,24.16,0,36.23,0,4.3,0,8.64,0,12.94,0,1.38,0,2.93,0,4.31,0,.78,0,1.85.07,2.59-.25,2.08-2.17,4.12-4.61,6.04-6.92"/><path class="b" d="M9.31,138.77c4.87,0,9.79.01,14.66,0,2.68-1.54,5.32-3.35,7.76-5.25,1.74-1.25,3.36-2.97,5.18-4.11h73.32c1.29.98,2.34,2.65,3.45,3.82,1.83,1.94,3.76,4.13,6.04,5.54h57.8c1.98-1.48,3.53-3.76,5.18-5.59"/><path class="b" d="M9.31,136.61c4.58,0,9.22,0,13.8,0,4.78-2.29,9.03-5.69,12.94-9.23,4.84-.36,9.8-.03,14.66-.14,8.62,0,17.26,0,25.88,0,7.18,0,14.39,0,21.57,0,2.56,0,5.21,0,7.76,0,1.38.07,2.97-.19,4.31.21,2.56,3.27,5.26,6.68,8.63,9.15,12.93,0,25.88,0,38.82,0,4.58,0,9.22,0,13.8,0,2.55-.08,5.23.17,7.76-.13,1.12-1.17,2.4-2.62,3.45-3.86"/><path class="b" d="M9.31,134.44c4.01,0,8.07,0,12.08,0,2.75-.96,5.35-2.58,7.76-4.2,1.44-1,2.98-2.21,4.31-3.35.97-.84,2.01-2.09,3.45-1.81,2.85,0,5.78,0,8.63,0,21.27,0,42.56,0,63.83,0,1.73,1.12,2.86,3.32,4.31,4.77,1.52,1.52,3.12,3.84,5.18,4.59,4.58,0,9.22,0,13.8,0,7.18,0,14.39,0,21.57,0,5.74,0,11.52,0,17.25,0,2.27,0,4.64,0,6.9,0,2.45.27,2.8-.72,4.31-2.37"/><path class="b" d="M9.31,132.27c2.85,0,5.78,0,8.63,0,3.67-.76,7.19-2.49,10.35-4.47,9.56-6.5,2.6-4.62,15.53-4.89,21.85,0,43.71,0,65.56,0,2.24,1.87,3.9,4.62,6.04,6.63,1.03.92,2.07,2.38,3.45,2.74,6.31,0,12.66,0,18.98,0,14.66,0,29.33,0,43.99,0l.86-.75"/><path class="b" d="M9.31,129.9c9.59-.59,16.8-2.78,24.15-9.16,14.37,0,28.76,0,43.13,0,7.47,0,14.96,0,22.43,0,3.43,0,6.92,0,10.35,0,1.43.65,2.34,2.44,3.45,3.5,1.84,2.04,3.82,4.23,6.04,5.86h63.83"/><path class="b" d="M9.31,125.85c5.26-.21,10.67-.7,15.53-2.88,1.77-.78,3.59-1.83,5.18-2.93.45-.31,1.3-.95,1.73-1.29.76-.23,1.81-.18,2.59-.18,25.3,0,50.61,0,75.91,0,2.87,3.33,5.87,6.83,9.49,9.36h62.97"/><path class="b" d="M9.31,121.85c4.93-.13,10.01-.37,14.66-2.14,2.1-.78,4.19-1.9,6.04-3.16,1.36-.28,2.93-.1,4.31-.15,16.67,0,33.36,0,50.03,0,5.74,0,11.52,0,17.25,0,1.97,0,4.07,0,6.04,0,1.09.05,2.43-.17,3.45.27,2.1,2.43,4.46,4.81,6.9,6.9,1.03.75,2.12,2.05,3.45,2.19,6.31,0,12.66,0,18.98,0,14.08,0,28.18,0,42.27,0"/><path class="b" d="M9.31,117.99c4.32-.14,8.75-.32,12.94-1.46,2.08-.48,4.05-1.58,6.04-2.3,1.98,0,4.06,0,6.04,0,16.67,0,33.36,0,50.03,0,6.03,0,12.09,0,18.12,0,1.97,0,4.07,0,6.04,0,1.08.04,2.41-.15,3.45.23,2.07,2.21,9.11,9.63,12.08,9.13,5.74,0,11.52,0,17.25,0,13.8,0,27.61,0,41.41,0"/><path class="b" d="M9.31,114.23c3.44-.16,6.95-.34,10.35-.93,2.02-.22,4.01-1.25,6.04-1.24,5.45,0,10.94,0,16.39,0,23.58,0,47.16,0,70.74,0,2.94,2.82,5.94,5.77,9.49,7.83,1.03.59,2.29,1.26,3.45,1.54.77,0,1.82,0,2.59,0,4.87,0,9.79,0,14.66,0,13.22,0,26.46,0,39.68,0"/><path class="b" d="M9.31,110.49c2.56-.14,5.2-.43,7.76-.59,4.01,0,8.07,0,12.08,0,8.62,0,17.26,0,25.88,0,12.93,0,25.88,0,38.82,0,4.29,0,8.64,0,12.94,0,2.55.1,5.24-.23,7.76.17,4.4,4.39,9.37,7.87,15.53,9.19,5.16,0,10.37,0,15.53,0,12.36,0,24.73,0,37.09,0"/><path class="b" d="M9.31,107.73c23,0,46.01,0,69.01,0,8.04,0,16.11,0,24.15,0,4.58.1,9.24-.2,13.8.12,7.16,6.62,10.34,6.39,18.98,9.24,4.87,0,9.79,0,14.66,0,10.92,0,21.86,0,32.78,0"/><path class="b" d="M9.31,105.56h108.69c2.27,1.45,4.39,3.36,6.9,4.43,2.46,1.05,5.22,1.51,7.76,2.31,1.7.51,3.52,1.16,5.18,1.81.44.17,1.29.53,1.73.71.76.14,1.82.11,2.59.11,13.51,0,27.03,0,40.54,0"/><path class="b" d="M9.31,103.39c37.09,0,74.19,0,111.28,0,1.59,1.14,3.37,2.29,5.18,3.03,2.2.87,4.63,1.31,6.9,1.95,3.58,1.01,7.07,2.54,10.35,4.28,13.21.28,26.46,0,39.68.1"/><path class="b" d="M9.31,101.23c31.91,0,63.84,0,95.75,0,5.74,0,11.52,0,17.25,0,1.49-.13,2.84,1.23,4.31,1.62,2.51.88,5.22,1.45,7.76,2.23,2.68.83,5.32,2.05,7.76,3.41,1.66.79,3.22,2.39,5.18,2.11,11.78,0,23.58,0,35.37,0"/><path class="b" d="M9.31,99.06c33.64,0,67.29,0,100.93,0,5.45,0,10.94,0,16.39,0,4.93,1.59,10.14,2.67,14.66,5.3,2.03,1.13,4.1,2.47,6.04,3.76,1.3.55,2.93.21,4.31.3,2.26,0,4.64,0,6.9,0,8.04,0,16.11,0,24.15,0"/><path class="b" d="M9.31,96.89c35.08,0,70.16,0,105.24,0,5.45,0,10.94,0,16.39,0,4.89,1.18,9.65,3.3,13.8,6.15,1.09.73,2.38,1.64,3.45,2.41,0,0,.86.62.86.62,0,0,.86.18.86.18,3.43,0,6.92,0,10.35,0,7.47,0,14.96,0,22.43,0"/><path class="b" d="M9.31,94.72c35.94,0,71.89,0,107.83,0,5.74,0,11.52,0,17.25,0,4.69,1.5,9.05,4.01,12.94,7.01,1.33.83,2.6,2.56,4.31,2.35,3.14,0,6.35,0,9.49,0,7.18,0,14.39,0,21.57,0"/><path class="b" d="M9.31,92.55c36.52,0,73.04,0,109.55,0,5.74,0,11.52,0,17.25,0,4.44,1.4,8.44,4.12,12.08,6.98,1.07.75,2.16,2.03,3.45,2.39.4,0,1.31,0,1.73,0,2.85,0,5.78,0,8.63,0,6.89,0,13.81,0,20.7,0"/><path class="b" d="M9.31,90.38c23.29,0,46.58,0,69.87,0,10.34,0,20.71,0,31.05,0,8.9,0,17.84,0,26.74,0,5.55,1.57,10.26,5.69,14.66,9.31,10.34.16,20.71,0,31.05.06"/><path class="b" d="M9.31,88.22c37.09,0,74.19,0,111.28,0,5.74,0,11.52,0,17.25,0,4.08,1.56,7.86,4.06,11.21,6.84,1.08.78,2.15,2.13,3.45,2.53,3.14,0,6.35,0,9.49,0,6.89,0,13.81,0,20.7,0"/><path class="b" d="M9.31,86.05c37.09,0,74.19,0,111.28,0,5.74,0,11.52,0,17.25,0,4.39,1.69,8.48,4.41,12.08,7.43.73.61,1.69,1.57,2.59,1.94.76,0,1.83,0,2.59,0,2.56,0,5.21,0,7.76,0,6.6,0,13.24,0,19.84,0"/><path class="b" d="M9.31,83.88c36.8,0,73.61,0,110.42,0,6.02.06,12.1-.11,18.11.07,3.92,1.86,7.81,4.03,11.21,6.74,1.09.78,2.17,2.1,3.45,2.56,3.14,0,6.35,0,9.49,0,6.89,0,13.81,0,20.7,0"/><path class="b" d="M9.31,81.71c23,0,46.01,0,69.01,0,10.34,0,20.71,0,31.05,0,8.91,0,17.84,0,26.74,0,2.45.46,4.71,2.04,6.9,3.2,3.02,1.75,6.02,3.73,8.63,6.05,10.32.32,20.72.01,31.05.11"/><path class="b" d="M9.31,79.54c35.94,0,71.89,0,107.83,0,5.74,0,11.52,0,17.25,0,4.71,1.08,8.88,3.98,12.94,6.5,1.45.81,2.76,2.27,4.31,2.86,3.14,0,6.35,0,9.49,0,7.18,0,14.39,0,21.57,0"/><path class="b" d="M9.31,77.38c35.37,0,70.74,0,106.1,0,5.45,0,10.94,0,16.39,0,4.94,1.1,9.58,3.42,13.8,6.17,1.71.98,3.34,2.48,5.18,3.2,3.43,0,6.92,0,10.35,0,7.18,0,14.39,0,21.57,0"/><path class="b" d="M9.31,75.21c21.85,0,43.71,0,65.56,0,9.77,0,19.56,0,29.33,0,7.18,0,14.39,0,21.57,0,4.11.26,8.24,1.46,12.08,2.92,4,1.59,7.66,4.01,11.21,6.41,11.2.12,22.44,0,33.64.04"/><path class="b" d="M9.31,73.04c32.49,0,64.99,0,97.48,0,3.72.02,7.5-.05,11.21.03,1.67.29,3.5.48,5.18.7,4.93.75,10,1.38,14.66,3.24,2.37.92,4.74,2.14,6.9,3.47.77.47,1.83,1.15,2.59,1.65.72.34,1.82.27,2.59.27,10.92,0,21.86,0,32.78,0"/><path class="b" d="M9.31,70.87c29.61,0,59.24,0,88.85,0,6.08-.24,12.1,1.03,18.12,1.7,6.03.71,12.21.8,18.12,2.32,2.65.7,5.32,1.72,7.76,2.97.77.4,1.84.98,2.59,1.42.7.43,1.71,1.13,2.59.96,11.78,0,23.58,0,35.37,0"/><path class="b" d="M9.31,68.7c5.45,0,10.94,0,16.39,0,2.85.15,5.77.49,8.63.2,3.13-.34,6.35-.16,9.49-.2,5.16,0,10.37,0,15.53,0,8.62.09,17.28-.26,25.88.34,9.25.43,18.41,2.03,27.6,3.04,6.29.76,12.7.45,18.98,1.36,2.94.47,5.89,1.33,8.63,2.49,1.1.47,2.4,1.09,3.45,1.65,0,0,.86.47.86.47l.86.02c12.36,0,24.73,0,37.09,0"/><path class="b" d="M9.31,66.54c4.58,0,9.22,0,13.8,0,1.1-.05,2.36.32,3.45.43,1.97.26,4.06.36,6.04.32,3.44-.07,6.91-.59,10.35-.66,5.16-.17,10.37,0,15.53.16,10.08.24,20.17.66,30.19,1.76,8.38.8,16.63,2.74,25.02,3.49,6.87.69,13.89-.33,20.7.99,2.95.59,5.9,1.6,8.63,2.87,3.43,0,6.92,0,10.35,0,9.77,0,19.56,0,29.33,0"/><path class="b" d="M9.31,64.37c4.01,0,8.07,0,12.08,0,3.13.45,6.31,1.14,9.49,1.14,3.44.12,6.92-.3,10.35-.42,4.58-.16,9.22,0,13.8.19,9.77.54,19.6.56,29.33,1.69,9.32.77,18.37,3.32,27.6,4.58,5.14.73,10.36.27,15.53.17,2.86-.09,5.82.06,8.63.68,2.01.3,3.99,1.42,6.04,1.34,13.51,0,27.03,0,40.54,0"/><path class="b" d="M9.31,62.2c3.43,0,6.92,0,10.35,0,3.69.67,7.44,1.43,11.21,1.47,5.16.13,10.36-.5,15.53-.29,10.06.29,20.13,1.07,30.19,1.46,6.36.34,12.74,1.07,18.98,2.36,5.76,1.18,11.43,2.98,17.25,3.81,5.71.92,11.52.09,17.25-.14,2.58-.12,5.23.28,7.76.69,1.38,0,2.93,0,4.31,0,13.51,0,27.03,0,40.54,0"/><path class="b" d="M9.31,60.03c2.85,0,5.78,0,8.63,0,4.54.91,9.16,1.75,13.8,1.77,5.45.03,10.94-.42,16.39-.11,10.35.5,20.7,1.36,31.05,1.69,6.37.31,12.79,1.05,18.98,2.64,2.87.73,5.78,1.63,8.63,2.45,1.07.31,2.36.66,3.45.92.76,0,1.82,0,2.59,0,23.29,0,46.59,0,69.87,0"/><path class="b" d="M9.31,57.86c2.84.12,5.84-.32,8.63.33,5.09,1.08,10.32,1.69,15.53,1.68,6.89-.19,13.82-.21,20.7.37,8.89.74,17.82,1.31,26.74,1.46,6.08.19,12.23.7,18.12,2.33,2.3.62,4.65,1.41,6.9,2.18.77.26,1.82.62,2.59.88,1.07.21,2.37.1,3.45.13,23.58,0,47.16,0,70.74,0"/><path class="b" d="M9.31,55.7c1.68.01,3.49-.03,5.18.03,3.4.69,6.9,1.28,10.35,1.66,6,.75,12.09.39,18.11.47,8.07.13,16.11,1.14,24.15,1.7,5.73.42,11.51.33,17.25.35,5.5.05,11.1.41,16.39,1.99,2.01.59,4.09,1.35,6.04,2.11.77.3,1.82.72,2.59,1.02.76.06,1.82.05,2.59.05,23.58,0,47.16,0,70.74,0"/><path class="b" d="M9.31,53.53c2.6-.17,5.21.47,7.76.84,3.99.6,8.05,1.08,12.08,1.3,4,.26,8.07.13,12.08.19,4.3.08,8.66.37,12.94.79,7.16.71,14.35,1.7,21.57,1.61,7.18-.04,14.41-1.01,21.57-.03,4.84.63,9.4,2.61,13.8,4.64,6.31.06,12.66,0,18.98.02,17.54,0,35.08,0,52.62,0"/><path class="b" d="M9.31,51.44c6.86.94,13.78,1.8,20.7,2.14,6.31.29,12.68.09,18.98.74,7.49.62,14.92,2.1,22.43,2.44,6.06.32,12.11-.57,18.12-1.18,5.17-.47,10.58-.5,15.53,1.3,2.99.94,5.71,2.77,8.63,3.84,5.74,0,11.52,0,17.25,0,6.6,0,13.24,0,19.84,0,6.6,0,13.24,0,19.84,0,2.26,0,4.64,0,6.9,0,.75,0,1.83.02,2.59-.06.75-.36,1.83-.84,2.59-1.2"/><path class="b" d="M9.31,49.75c7.17.65,14.37,1.32,21.57,1.66,6.03.25,12.12.25,18.12,1.01,16.11,2.01,22.9,5.2,39.68,1.29,5.64-1.13,11.67-1.93,17.25-.12,3.36,1.1,6.47,2.99,9.49,4.79,2.23.4,4.64.08,6.9.18,4.29,0,8.64,0,12.94,0,6.31,0,12.66,0,18.98,0,5.45,0,10.94,0,16.39,0,1.97,0,4.07.02,6.04-.01,1.99-.83,4.07-1.8,6.04-2.69"/><path class="b" d="M9.31,47.99c6.89.3,13.81.74,20.7,1.09,4.58.26,9.23.3,13.8.78,7.28.67,14.41,2.5,21.57,3.89,6.26,1.26,12.8,1.24,18.98-.48,7.27-1.93,14.83-5.15,22.43-3.05,4.13,1.17,7.69,3.8,11.21,6.14,12.65.06,25.31,0,37.96.02,5.73-.1,11.54.21,17.25-.13,3.24-.98,6.39-2.44,9.49-3.8"/><path class="b" d="M9.31,46.16c10.92.07,21.89.36,32.78,1.33,5.25.58,10.45,1.76,15.53,3.19,11.86,3.49,19.24,5.19,31.05.05,6.21-2.62,13.02-5.62,19.84-3.61,2.83.81,5.41,2.49,7.76,4.2,1.39.91,2.73,2.35,4.31,2.91,1.97,0,4.07,0,6.04,0,7.75,0,15.54,0,23.29,0,5.74,0,11.52,0,17.25,0,5.34-.98,10.57-2.69,15.53-4.91"/><path class="b" d="M9.31,44.24c6.89-.31,13.82-.35,20.7-.07,5.48.24,11.02.53,16.39,1.73,4.1.88,8.14,2.21,12.08,3.64,2.55.83,5.12,2.06,7.76,2.51,4.87,0,9.79,0,14.66,0,.77,0,1.82,0,2.59-.02,1.73-.63,3.54-1.46,5.18-2.29,6.37-3.24,13.22-7.94,20.7-5.91,3.62.84,6.67,3.23,9.49,5.54,1.28.97,2.67,2.42,4.31,2.68.76,0,1.82,0,2.59,0,7.18,0,14.39,0,21.57,0,5.73-.09,11.53.18,17.25-.11,6.1-1.59,12.25-3.24,18.12-5.56"/><path class="b" d="M9.31,42.24c6.87-.62,13.81-.93,20.7-.73,5.2.17,10.48.51,15.53,1.83,3.84.97,7.6,2.44,11.21,4.05,1.09.48,2.37,1.07,3.45,1.56,1.04.51,2.26,1.07,3.45.92,5.16,0,10.37,0,15.53,0,1.68,0,3.5,0,5.18,0,1.09-.05,2.43.18,3.45-.28,5.41-3.02,10.26-7.45,16.39-8.97,1.95-.18,4.09-.23,6.04.03,2.87.65,5.52,2.23,7.76,4.11,2.35,1.94,4.76,4.28,7.76,5.11,3.43,0,6.92,0,10.35,0,5.74,0,11.52,0,17.25,0,3.13-.11,6.39.23,9.49-.16,4.4-.91,8.69-2.46,12.94-3.9,2.25-.76,4.67-1.38,6.9-2.2"/><path class="b" d="M9.31,40.16c10.82-1.36,21.99-2.42,32.78-.32,5.83,1.24,11.25,3.95,16.39,6.9.45.24,1.28.73,1.73.98,1.68,0,3.49,0,5.18,0,3.72,0,7.5,0,11.21,0,4.3,0,8.64,0,12.94,0,1.61-.5,2.94-2,4.31-2.94,2.97-2.3,6.02-4.73,9.49-6.24,2.51-.43,5.21-.08,7.76-.19,4.22-.46,7.3,3.19,10.35,5.55,2.48,1.76,5.48,3.81,8.63,3.81,6.89,0,13.81,0,20.7,0,2.26,0,4.64,0,6.9,0,1.69-.02,3.53.13,5.18-.32,6.86-1.3,13.18-4.49,19.84-6.45"/><path class="b" d="M9.31,37.98c3.98-.73,8.05-1.35,12.08-1.77,3.14-.08,6.35-.01,9.49-.03,2.56,0,5.2,0,7.76,0,3.89.56,7.72,1.87,11.21,3.66,2.99,1.53,5.87,3.43,8.63,5.33.73.47,1.77.38,2.59.37,1.08,0,2.37,0,3.45,0,3.72,0,7.5,0,11.21,0,5.16,0,10.37,0,15.53,0,1.59-.83,2.92-2.4,4.31-3.52,2.41-2.1,4.95-4.28,7.76-5.82,2.85-.05,5.78,0,8.63-.02,1.08,0,2.37,0,3.45,0,1.95.59,3.63,2.15,5.18,3.43,2.98,2.54,6.55,4.5,10.35,5.49,1.63.54,3.48.46,5.18.45,1.97,0,4.07,0,6.04,0,6.31,0,12.66,0,18.98,0,7.58-.87,14.53-4.36,21.57-7.07"/><path class="b" d="M9.31,35.71c2.84-.6,5.74-1.37,8.63-1.7,5.45,0,10.94,0,16.39,0,2.85,0,5.78,0,8.63,0,5.89,1.68,10.77,5.68,15.53,9.37,8.33,0,16.69,0,25.02,0,1.98,0,4.06,0,6.04,0,1.11-.06,2.49.25,3.45-.42,2.25-2.15,4.54-4.45,6.9-6.49,1.03-.83,2.2-1.96,3.45-2.46,1.68,0,3.5,0,5.18,0,1.97,0,4.06,0,6.04,0,1.09.05,2.44-.2,3.45.31,6.49,5,10.58,7.79,18.98,8.98,4,.18,8.07.02,12.08.07,4.58,0,9.22,0,13.8,0,7-.87,13.5-3.95,19.84-6.86"/><path class="b" d="M9.31,33.34c1.97-.5,4.02-1.21,6.04-1.49,3.72,0,7.5,0,11.21,0,4.3,0,8.64,0,12.94,0,1.38,0,2.93,0,4.31,0,.8,0,1.86-.09,2.59.32,3.12,1.63,6,3.87,8.63,6.19,1.09.88,2.18,2.23,3.45,2.85.77,0,1.82,0,2.59,0,10.63,0,21.29,0,31.92,0,2.75-2.26,5.07-5.2,7.76-7.54,2.09-2.03,2.37-1.87,5.18-1.82,4.3,0,8.64,0,12.94,0,6.67,5.37,13.87,8.52,22.43,9.37,3.72,0,7.5,0,11.21,0,4.58-.03,9.22.07,13.8-.04,5.76-1.09,11.2-3.49,16.39-6.16"/><path class="b" d="M9.31,30.86c1.94-.66,3.96-1.4,6.04-1.18,2.85,0,5.78,0,8.63,0,7.47,0,14.96,0,22.43,0,1.31-.21,2.48.87,3.45,1.59,1.79,1.37,3.58,3.03,5.18,4.62,1.09.97,2.11,2.52,3.45,3.16.43,0,1.3,0,1.73,0,7.18,0,14.39,0,21.57,0,2.56,0,5.21,0,7.76,0,1.38-.07,2.97.18,4.31-.21,2.83-2.94,5.6-6.11,8.63-8.85,1.02-.5,2.35-.26,3.45-.31,1.38,0,2.93,0,4.31,0,15.52-.06,5.69-.55,18.98,5.49,4.38,1.9,9.09,3.18,13.8,3.88,8.62,0,17.26,0,25.88,0,1.74-.03,3.53-.8,5.18-1.3,2.96-1.04,5.87-2.43,8.63-3.91"/><path class="b" d="M9.31,28.26c1.86-.95,4.02-.76,6.04-.75,2.85,0,5.78,0,8.63,0,8.33.02,16.69-.03,25.02.02,2.15,1.7,4.2,3.77,6.04,5.81,1.1,1.09,2.09,2.76,3.45,3.54h35.37c2.99-2.83,5.63-6.19,8.63-9.02.74-.43,1.78-.35,2.59-.34,1.38,0,2.93,0,4.31,0,18.05,0,6.41-.89,21.57,5.51,2.78,1.14,5.72,2.11,8.63,2.88,1.66.38,3.45,1.03,5.18.97,6.6,0,13.24,0,19.84,0,2.85,0,5.78,0,8.63,0,3.3-.89,6.49-2.38,9.49-4.01"/><path class="b" d="M9.31,25.56c1.63-.45,3.5-.13,5.18-.22,3.14,0,6.35,0,9.49,0,8.62,0,17.26,0,25.88,0,3.31,2.65,5.58,6.49,8.63,9.37h35.37c1.32-.76,2.39-2.29,3.45-3.36,1.66-1.83,3.44-3.82,5.18-5.58.72-.52,1.76-.44,2.59-.42,1.08,0,2.37,0,3.45,0,4.3,0,8.64,0,12.94,0,.88.32,1.8,1.19,2.59,1.67,2.47,1.38,5.17,2.54,7.76,3.65,2.8,1.15,5.73,2.2,8.63,3.06,1.07.32,2.36.68,3.45.95,1.08.06,2.37.03,3.45.04,6.6,0,13.24,0,19.84,0,3.14,0,6.35,0,9.49,0,2.06-.67,4.13-1.68,6.04-2.7"/><path class="b" d="M9.31,23.18c8.91,0,17.84,0,26.74,0,3.14,0,6.35,0,9.49,0,1.67.1,3.56-.26,5.18.25,1.78,1.81,3.49,3.95,5.18,5.85,1.07,1.03,2,2.77,3.45,3.27,3.72,0,7.5,0,11.21,0,4.87,0,9.79,0,14.66,0,2.85,0,5.78,0,8.63,0,1.73-.85,2.94-2.83,4.31-4.15,1.69-1.66,3.15-3.96,5.18-5.22h18.98c2.59,1.98,5.65,3.26,8.63,4.54,3.93,1.7,7.98,3.27,12.08,4.52,1.9.6,4.07.2,6.04.31,3.43,0,6.92,0,10.35,0,4.58,0,9.22,0,13.8,0,1.97,0,4.06,0,6.04,0,1.19-.08,2.4-.88,3.45-1.38"/><path class="b" d="M9.31,21.01c13.79.09,27.62-.18,41.41.1,2.88,2.88,5.73,5.94,8.63,8.81,1.16.83,2.94.34,4.31.46,2.56,0,5.21,0,7.76,0,4.3,0,8.64,0,12.94,0,3.14,0,6.35,0,9.49,0,1.38-.56,2.4-2.12,3.45-3.11,2.01-2,3.78-4.54,6.04-6.25,4.3,0,8.64,0,12.94,0,2.26.08,4.66-.18,6.9.15,1.72,1.53,3.95,2.46,6.04,3.36,1.97.87,4.05,1.78,6.04,2.61,2.81,1.17,5.73,2.3,8.63,3.24,1.38,0,2.93,0,4.31,0,7.47,0,14.96,0,22.43,0,4-.1,8.1.21,12.08-.14"/><path class="b" d="M9.31,18.84c13.8,0,27.61,0,41.41,0,3.54,2.98,6.83,6.37,10.35,9.36h32.78c1.32-.66,2.4-2.1,3.45-3.11,2.02-2,3.84-4.46,6.04-6.26h19.84c2.78,2.26,6.28,3.42,9.49,4.91,3.68,1.55,7.36,3.41,11.21,4.45,12.93,0,25.88,0,38.82,0"/><path class="b" d="M9.31,16.67h41.41c2.68,1.89,5.26,4.12,7.76,6.24.77.66,1.82,1.55,2.59,2.2.39.39,1.15.92,1.73.93,10.34,0,20.71,0,31.05,0,3.5-2.7,6.17-6.48,9.49-9.37h19.84c3.08,2.39,6.86,3.69,10.35,5.35,1.96.89,4.05,1.82,6.04,2.64,1.37.46,2.84,1.44,4.31,1.37,12.93,0,25.88,0,38.82,0"/><path class="b" d="M9.31,14.5c11.49,0,23.01,0,34.5,0,2.26.08,4.66-.18,6.9.14,2.04,1.28,4.12,2.77,6.04,4.23,1.39,1.06,2.93,2.28,4.31,3.36.74.55,1.66,1.45,2.59,1.64,5.74,0,11.52,0,17.25,0,2.56,0,5.21,0,7.76,0,1.67-.08,3.53.2,5.18-.19,3.41-2.74,6.16-6.37,9.49-9.18,6.6.01,13.24-.02,19.84.01,2.95,2.6,6.89,3.79,10.35,5.55,1.96.9,4.05,1.84,6.04,2.67,1.34.55,2.81,1.31,4.31,1.13,12.93,0,25.88,0,38.82,0"/><path class="b" d="M9.31,12.34c12.07,0,24.16,0,36.23,0,1.08,0,2.37,0,3.45,0,.51-.08,1.32.21,1.73.52,3.3,1.8,6.45,4.02,9.49,6.22.76.55,1.82,1.31,2.59,1.86.36.34,1.21.78,1.73.76,2.85,0,5.78,0,8.63,0,6.6,0,13.24,0,19.84,0,3.5-2.52,6.44-5.89,9.49-8.92.71-.54,1.75-.46,2.59-.44,1.38,0,2.93,0,4.31,0,2.85,0,5.78,0,8.63,0,1.68.09,3.54-.22,5.18.21,1.47,1.34,3.39,2.26,5.18,3.08,2.26,1.08,4.62,2.18,6.9,3.21,2.24.99,4.59,2.03,6.9,2.87,2.56,0,5.21,0,7.76,0,10.92,0,21.86,0,32.78,0"/><path class="b" d="M9.31,10.17c11.21,0,22.43,0,33.64,0,1.68,0,3.5,0,5.18,0,.86.08,1.83.71,2.59,1.09,1.72.85,3.54,1.87,5.18,2.88,2.91,1.67,5.6,3.97,8.63,5.4,5.16,0,10.37,0,15.53,0,4.01,0,8.07,0,12.08,0,3.93-2.42,7.03-6.13,10.35-9.29,6.59-.2,13.24-.01,19.84-.08,1.22.41,2.28,1.59,3.45,2.13,2.83,1.36,5.76,2.69,8.63,3.97,2.53,1.12,5.17,2.23,7.76,3.2,1.67.15,3.5.04,5.18.07,11.78,0,23.58,0,35.37,0"/><path class="b" d="M9.31,8c11.21,0,22.43,0,33.64,0,1.38.04,2.94-.11,4.31.12.77.38,1.82.9,2.59,1.28,2.93,1.34,5.87,2.87,8.63,4.54,1.98,1.1,3.94,2.57,6.04,3.42,2.56,0,5.21,0,7.76,0,6.31,0,12.66,0,18.98,0,2.85-1.72,5.36-4.15,7.76-6.43,1.09-.92,2.09-2.42,3.45-2.94.77,0,1.82,0,2.59,0,3.72,0,7.5,0,11.21,0,1.38,0,2.93,0,4.31,0,.83-.01,1.9-.1,2.59.45,3.29,2.55,7.48,3.72,11.21,5.47,2.82,1.19,5.74,2.37,8.63,3.4,2.26.1,4.64.02,6.9.04,10.92,0,21.86,0,32.78,0"/></svg>