<?xml version="1.0" encoding="UTF-8"?><svg id="a" xmlns="http://www.w3.org/2000/svg" width="1920" height="2400" viewBox="0 0 192 240"><defs><style>.b{fill:none;stroke:#fff;stroke-miterlimit:10;stroke-width:.3px;}.c{stroke-width:0px;}</style></defs><rect class="c" x="0" width="192" height="240"/><path class="b" d="M9.36,231.93c7.17,0,14.38,0,21.55,0,2.89-1.13,5.7-2.71,8.62-3.79,3.92-1.59,7.99-2.97,12.07-4.08,1.43-.35,2.84-1.34,4.31-1.49,4.87,0,9.79,0,14.66,0,37.35,0,74.72,0,112.07,0"/><path class="b" d="M9.36,229.76c7.46,0,14.95,0,22.41,0,2.03-.52,4.03-1.57,6.03-2.2,3.4-1.2,6.91-2.28,10.34-3.35,3.24-.96,6.59-1.91,9.48-3.73,5.72-.23,11.51-.02,17.24-.08,25,0,50,0,75,0,7.17,0,14.38,0,21.55,0,1.39-.04,2.92.39,4.31.5,2.25.25,4.63.32,6.9.18"/><path class="b" d="M9.36,227.6c8.04,0,16.1,0,24.14,0,4.3-1.18,8.62-2.59,12.93-3.76,3.46-1.11,7.13-1.98,10.34-3.73,1.11-.55,2.26-1.5,3.45-1.87,1.97,0,4.06,0,6.03,0,4.58,0,9.21,0,13.79,0,21.84,0,43.68,0,65.52,0,7.75,0,15.53,0,23.28,0,1.72.04,3.47.91,5.17,1.18,2.8.62,5.75.96,8.62.93"/><path class="b" d="M9.36,225.43c9.19-.06,18.41.12,27.59-.07,7.86-2.24,16.39-3.6,23.28-8.24.43-.3,1.25-.83,1.72-1.05.44,0,1.28,0,1.72,0,1.68,0,3.49,0,5.17,0,5.16,0,10.36,0,15.52,0,22.41,0,44.83,0,67.24,0,5.16,0,10.36,0,15.52,0,2.03.43,4.01,1.49,6.03,1.99,3.05.9,6.3,1.46,9.48,1.51"/><path class="b" d="M9.36,223.26c10.34,0,20.7,0,31.03,0,5.31-.97,10.51-2.7,15.52-4.69,2.78-1.15,5.28-3,7.76-4.67,25.28,0,50.58,0,75.86,0,8.61,0,17.25,0,25.86,0,2.05.57,4,1.79,6.03,2.44,3.57,1.33,7.39,2.2,11.21,2.29"/><path class="b" d="M9.36,221.1c11.2,0,22.42,0,33.62,0,3.28.19,6.43-1.28,9.48-2.29,1.99-.77,4.12-1.55,6.03-2.51,2.41-1.25,4.72-2.91,6.9-4.51,28.73-.14,57.48,0,86.21-.05,3.71,0,7.49,0,11.21,0,1.21-.18,2.44.51,3.45,1.08,1.35.69,2.9,1.41,4.31,1.99,3.81,1.57,7.94,2.57,12.07,2.65"/><path class="b" d="M9.36,218.93c9.47,0,18.97,0,28.45,0,3.71-.05,7.5.1,11.21-.06,5.76-1.88,11.52-4.14,16.38-7.84.44-.31,1.29-.93,1.72-1.25.76-.27,1.8-.21,2.59-.21,1.68,0,3.49,0,5.17,0,5.16,0,10.36,0,15.52,0,23.56,0,47.13,0,70.69,0,.4,0,1.32,0,1.72.01.39.25,1.32.74,1.72.98,1.35.75,2.9,1.53,4.31,2.17,4.31,1.96,9.04,3.21,13.79,3.21"/><path class="b" d="M9.36,216.76c10.05,0,20.12,0,30.17,0,4,0,8.07,0,12.07,0,5.47-1.86,10.86-4.23,15.52-7.69.76-.52,1.74-1.3,2.59-1.66,2.27,0,4.63,0,6.9,0,4.58,0,9.21,0,13.79,0,23.27,0,46.56,0,69.83,0,1.23-.19,2.44.66,3.45,1.24,1.63.92,3.45,1.83,5.17,2.57,4.32,1.87,9.07,2.95,13.79,2.85"/><path class="b" d="M9.36,214.6c10.34,0,20.7,0,31.03,0,4.58-.01,9.21.03,13.79-.02,5.13-1.94,10.21-4.17,14.66-7.42.77-.52,1.81-1.25,2.59-1.77,2.24-.33,4.64-.06,6.9-.14,4.29,0,8.64,0,12.93,0,22.41,0,44.83,0,67.24,0,.4,0,1.32,0,1.72,0,.8.32,1.83.94,2.59,1.36,1.63.9,3.45,1.8,5.17,2.51,4.6,1.94,9.66,2.95,14.66,2.73"/><path class="b" d="M9.36,212.43c12.06,0,24.14,0,36.21,0,3.43,0,6.92,0,10.34,0,2.94-.85,5.85-2.21,8.62-3.52,3.29-1.68,6.33-3.94,9.48-5.84,27.87,0,55.75,0,83.62,0,.42,0,1.3,0,1.72,0,.79.34,1.82.93,2.59,1.33,1.64.86,3.45,1.71,5.17,2.39,4.9,1.95,10.25,2.84,15.52,2.51"/><path class="b" d="M9.36,210.26c11.2,0,22.42,0,33.62,0,5.15-.09,10.38.19,15.52-.12,4.15-1.56,8.33-3.26,12.07-5.67,1.39-.85,2.93-1.83,4.31-2.7.7-.49,1.7-1.02,2.59-.87,5.16,0,10.36,0,15.52,0,21.26,0,42.53,0,63.79,0,.4,0,1.31,0,1.72,0,.81.22,1.83.8,2.59,1.17,1.92.94,4.01,1.83,6.03,2.51,4.96,1.68,10.3,2.32,15.52,1.91"/><path class="b" d="M9.36,208.1c11.49,0,23,0,34.48,0,5.16,0,10.36,0,15.52,0,1.15-.07,2.37-.71,3.45-1.07,2.02-.73,4.13-1.59,6.03-2.58,3.23-1.66,6.35-3.68,9.48-5.5,1.92-.45,4.07-.11,6.03-.21,3.43,0,6.92,0,10.35,0,20.4,0,40.81,0,61.21,0,.76,0,1.83-.03,2.59.09.75.37,1.82.84,2.59,1.17,1.64.7,3.46,1.37,5.17,1.88,5.28,1.59,10.9,2.08,16.38,1.6"/><path class="b" d="M9.36,205.93c12.06,0,24.14,0,36.21,0,5.16,0,10.36,0,15.52,0,2.93-.73,5.87-1.89,8.62-3.14,3.84-1.8,7.47-4.12,11.21-6.12,5.14-.26,10.36-.02,15.52-.1,19.82,0,39.66,0,59.48,0,.76,0,1.84-.05,2.59.18.75.31,1.82.72,2.59,1,1.65.59,3.47,1.14,5.17,1.55,5.34,1.27,10.92,1.58,16.38,1.06"/><path class="b" d="M9.36,203.76c12.35,0,24.72,0,37.07,0,5.45-.04,10.94.07,16.38-.04,3.19-.99,6.47-2,9.48-3.47,3.8-1.77,7.42-4.05,11.21-5.85,5.16,0,10.36,0,15.52,0,18.67,0,37.36,0,56.03,0,1.39.03,3-.17,4.31.41,2.22.73,4.6,1.36,6.9,1.79,5.38,1,10.94,1.17,16.38.6"/><path class="b" d="M9.36,201.6c12.64,0,25.29,0,37.93,0,5.45-.03,10.94.06,16.38-.03,4.76-1.22,9.45-2.87,13.79-5.18,2.85-1.34,5.6-3.22,8.62-4.14,5.16,0,10.36,0,15.52,0,18.1,0,36.21,0,54.31,0,1.41-.04,2.97-.05,4.31.44,1.95.5,4.04.91,6.03,1.2,5.41.76,10.96.82,16.38.19"/><path class="b" d="M9.36,199.43c12.64,0,25.29,0,37.93,0,5.45,0,10.93,0,16.38,0,5.7-1.05,11.23-3.04,16.38-5.7,2.53-1.26,5.13-2.61,7.76-3.66,5.45,0,10.93,0,16.38,0,17.24,0,34.49,0,51.72,0,1.07,0,2.37,0,3.45,0,2.25.41,4.61.85,6.9,1.07,5.43.56,10.97.52,16.38-.18"/><path class="b" d="M9.36,197.26c12.64,0,25.29,0,37.93,0,5.16,0,10.36,0,15.52,0,6.93-.72,13.64-3.1,19.83-6.25,2.23-1.08,4.57-2.21,6.9-3.07,5.16-.1,10.36,0,15.52-.04,2.86-.14,5.77.28,8.62.33,2.27.03,4.62-.41,6.9-.33,11.49,0,23,0,34.48,0,1.97,0,4.06,0,6.03,0,2.26.17,4.62.52,6.9.59,4.88.26,9.81.02,14.66-.59"/><path class="b" d="M9.36,195.1c12.64,0,25.29,0,37.93,0,4.58,0,9.21,0,13.79,0,7.46-.54,14.85-2.29,21.55-5.67,2.82-1.28,5.65-2.79,8.62-3.69,4.29,0,8.64,0,12.93,0,1.38,0,2.93,0,4.31,0,1.96.32,4.05.56,6.03.56,4.02-.03,8.04-.77,12.07-.56,18.67,0,37.36,0,56.03,0"/><path class="b" d="M9.36,192.93c13.79-.05,27.6.2,41.38-.3,12.39.03,22.25.03,33.62-5.73,2.52-1.16,5.12-2.41,7.76-3.3,4-.08,8.07,0,12.07-.03,1.68.02,3.5-.06,5.17.06,1.95.34,4.05.58,6.03.61,4.88-.03,9.77-.78,14.66-.66,17.52,0,35.06,0,52.59,0"/><path class="b" d="M9.36,190.76c7.46,0,14.95,0,22.41,0,4.84-.77,9.74-1.51,14.66-1.44,13.58.17,24.11,2.25,37.07-3.91,3.13-1.34,6.22-3.03,9.48-4.01,3.71,0,7.49,0,11.21,0,1.97,0,4.06,0,6.03,0,1.96.29,4.05.6,6.03.63,3.43.09,6.92-.37,10.34-.41,1.69.04,3.48-.32,5.17-.22,16.95,0,33.91,0,50.86,0"/><path class="b" d="M9.36,188.6c5.16,0,10.36,0,15.52,0,5.64-1.33,11.46-2.17,17.24-2.52,10.06-.5,20.14,2.26,30.17.65,7.05-.96,13.34-4.49,19.83-7.17,1.01-.52,2.36-.26,3.45-.32,1.68,0,3.49,0,5.17,0,3.71,0,7.49,0,11.21,0,3.7.39,7.48.65,11.21.33,8.03-.44,16.09-.33,24.14-.33,11.78,0,23.57,0,35.34,0"/><path class="b" d="M9.36,186.43c2.27,0,4.63,0,6.9,0,1.39-.07,2.99.21,4.31-.29,5.86-1.82,12.03-2.38,18.1-2.99,9.81-1.09,19.51,1.77,29.31,1.51,5.65-.11,11.23-1.6,16.38-3.9,2.57-1.11,5.17-2.4,7.76-3.48,1.34-.41,2.93-.15,4.31-.22,28.73.08,57.47-.03,86.21,0"/><path class="b" d="M9.36,184.26c1.98,0,4.06,0,6.03,0,1.69-.47,3.47-1.13,5.17-1.57,4.2-1.16,8.59-1.68,12.93-1.96,4.57-.33,9.2-.83,13.79-.48,6.04.37,12.05,1.6,18.1,1.81,9.82.52,17.26-2.73,25.86-6.87,1.3-.55,2.93-.21,4.31-.3,2.26,0,4.63,0,6.9,0,6.89,0,13.8,0,20.69,0,19.82,0,39.66,0,59.48,0"/><path class="b" d="M9.36,182.1c1.09-.01,2.36.04,3.45-.06,1.08-.41,2.35-.87,3.45-1.23,2.78-.92,5.72-1.63,8.62-2.03,3.41-.49,6.91-.52,10.34-.64,3.14-.17,6.34-.55,9.48-.49,6.06.04,12.08,1.16,18.1,1.63,6.71.6,13.59-.23,19.83-2.83,1.71-.68,3.51-1.51,5.17-2.29,1.08-.46,2.27-1.25,3.45-1.41,2.26,0,4.63,0,6.9,0,7.46,0,14.95,0,22.41,0,20.69,0,41.38,0,62.07,0"/><path class="b" d="M9.36,179.93c1.17.13,2.37-.66,3.45-.99,1.94-.72,4.02-1.4,6.03-1.88,4.49-1.15,9.18-1.26,13.79-1.19,4.3.02,8.62-.74,12.93-.63,5.18.03,10.37.77,15.52,1.25,6.05.59,12.28.41,18.1-1.45,2.33-.72,4.69-1.69,6.9-2.7,1.39-.53,2.81-1.61,4.31-1.76,9.76,0,19.55,0,29.31,0,20.97,0,41.96,0,62.93,0"/><path class="b" d="M9.36,177.24c9.36-4.02,14.34-3.92,24.14-3.73,4.01-.08,8.05-.79,12.07-.72,5.18-.05,10.37.6,15.52,1.07,5.74.54,11.66.48,17.24-1.1,2.33-.64,4.69-1.53,6.9-2.5,1.67-.59,3.34-1.97,5.17-1.86,9.76,0,19.55,0,29.31,0,20.97,0,41.96,0,62.93,0"/><path class="b" d="M9.36,174.19c9.63-4.1,14.33-3.11,24.14-3.07,4.3-.18,8.62-.89,12.93-.81,5.18-.04,10.37.59,15.52,1.04,5.75.52,11.66.4,17.24-1.22,2.32-.65,4.69-1.55,6.9-2.52,1.35-.54,2.79-1.54,4.31-1.37,9.76,0,19.55,0,29.31,0,20.97,0,41.96,0,62.93,0"/><path class="b" d="M9.36,171.15c8.89-3.78,14.22-2.5,23.28-2.49,4.59-.15,9.19-.9,13.79-.85,5.47-.08,10.94.6,16.38,1.08,6.05.56,12.28.34,18.1-1.5,2.94-.84,5.78-2.22,8.62-3.32,1.68,0,3.49,0,5.17,0,8.32,0,16.68,0,25,0,20.97,0,41.96,0,62.93,0"/><path class="b" d="M9.36,168.1c8.04-3.42,14.15-2.01,22.41-2.03,5.17-.08,10.34-.87,15.52-.78,5.76-.03,11.51.81,17.24,1.31,5.77.52,11.69.21,17.24-1.52,2.94-.78,5.73-2.29,8.62-3.17,2.27,0,4.63,0,6.9,0,7.75,0,15.53,0,23.28,0,20.69,0,41.38,0,62.07,0"/><path class="b" d="M9.36,165c7.32-3.15,14.75-1.62,22.41-1.65,5.45-.02,10.92-.75,16.38-.58,5.48.06,10.94.91,16.38,1.48,6.04.66,12.26.45,18.1-1.35,2.62-.77,5.25-1.82,7.76-2.88,1.31-.53,2.93-.2,4.31-.29,8.61,0,17.25,0,25.86,0,20.69,0,41.38,0,62.07,0"/><path class="b" d="M9.36,161.84c7.41-3.13,15.52-1.19,23.28-1.25,5.45,0,10.93-.56,16.38-.28,5.49.19,10.94,1.16,16.38,1.8,6.03.74,12.26.54,18.1-1.22,2.01-.58,4.09-1.33,6.03-2.11.77-.31,1.82-.73,2.59-1.05.76-.21,1.81-.16,2.59-.16,9.19,0,18.4,0,27.59,0,20.11,0,40.23,0,60.35,0"/><path class="b" d="M9.36,158.66c7.43-3.04,15.54-.93,23.28-.86,5.45.13,10.94-.27,16.38.09,5.49.28,10.94,1.36,16.38,2.11,6,.87,12.22.84,18.1-.77,3.84-.89,7.45-2.73,11.21-3.83,9.47,0,18.97,0,28.45,0,19.82,0,39.66,0,59.48,0"/><path class="b" d="M9.36,155.46c7.44-2.98,15.56-.73,23.28-.47,5.44.29,10.94.07,16.38.54,5.5.4,10.94,1.59,16.38,2.46,6.27,1.05,12.8,1.12,18.97-.56,4.11-1.05,8.09-2.72,12.07-4.18,9.19-.04,18.4,0,27.59-.02,19.54,0,39.08,0,58.62,0"/><path class="b" d="M9.36,152.26c1.35-.51,2.89-.95,4.31-1.18,1.39,0,2.92,0,4.31,0,5.2-.21,10.35.83,15.52,1.2,5.44.42,10.96.44,16.38,1.09,5.21.58,10.36,1.8,15.52,2.73,6.54,1.23,13.37,1.36,19.83-.4,4.69-1.19,9.18-3.18,13.79-4.61,7.46,0,14.95,0,22.41,0,1.97.17,4.06.36,6.03.29,2.26-.08,4.63-.34,6.9-.27,2.27-.02,4.63.34,6.9.44,1.39,0,2.94-.21,4.31-.45,4,0,8.07,0,12.07,0,8.32,0,16.68,0,25,0"/><path class="b" d="M9.36,149.07c1.94-.36,4.07-.08,6.03-.16,3.43,0,6.92,0,10.34,0,4.03-.13,8.05.85,12.07,1.09,4.88.43,9.82.79,14.66,1.64,4.9.83,9.76,2.12,14.66,2.95,6.56,1.2,13.41,1.01,19.83-.87,4.94-1.35,9.69-3.47,14.66-4.71,4.56-.29,9.22-.03,13.79-.11,2.58-.03,5.19.73,7.76.88,3.14.34,6.35-.02,9.48-.18,3.14-.13,6.36.09,9.48.4,1.69.08,3.52-.16,5.17-.5,1.08-.19,2.34-.69,3.45-.6,10.62,0,21.27,0,31.9,0"/><path class="b" d="M9.36,146.74c7.46,0,14.95,0,22.41,0,6.02.76,12.1,1.54,18.1,2.48,5.5.92,10.91,2.45,16.38,3.51,7.12,1.47,14.57,1.33,21.55-.76,7.89-2.28,15.71-6.11,24.14-5.11,3.74.34,7.47,1.2,11.21,1.53,3.43.39,6.92-.1,10.35-.24,3.43-.14,6.93.09,10.34.36,3.22.08,6.41-.91,9.48-1.77,9.76,0,19.55,0,29.31,0"/><path class="b" d="M9.36,144.57c8.32,0,16.68,0,25,0,5.44,1.02,10.96,1.83,16.38,2.93,5.19,1.05,10.32,2.54,15.52,3.56,7.41,1.56,15.17,1.29,22.41-.94,7.86-2.36,15.75-5.87,24.14-4.61,3.73.42,7.46,1.3,11.21,1.56,3.14.29,6.35-.18,9.48-.33,4.01-.22,8.07.01,12.07.22,3.55-.05,7.02-1.26,10.34-2.39,8.9,0,17.83,0,26.72,0"/><path class="b" d="M9.36,142.4c8.61,0,17.25,0,25.86,0,5.15,1.14,10.37,2.19,15.52,3.34,4.88,1.11,9.75,2.52,14.66,3.51,8.7,1.94,17.45,1.23,25.86-1.63,7.36-2.45,14.54-4.89,22.41-3.52,3.72.52,7.45,1.41,11.21,1.62,3.43.23,6.91-.37,10.35-.45,4-.21,8.07.03,12.07.07,2.33-.13,4.7-.78,6.9-1.52,1.4-.39,2.85-1.3,4.31-1.43,8.04,0,16.1,0,24.14,0"/><path class="b" d="M9.36,140.24c8.61,0,17.25,0,25.86,0,4.59,1.06,9.19,2.4,13.79,3.43,5.45,1.32,10.87,2.92,16.38,3.98,14.03,2.77,21.57-.72,34.48-4.46,10.99-3.05,17.34,1.12,27.59,1.23,4-.19,8.06-.63,12.07-.66,3.42-.18,6.94.21,10.35-.21,2.34-.38,4.71-1.19,6.9-2.09,1.08-.37,2.27-1.24,3.45-1.21,7.46,0,14.95,0,22.41,0"/><path class="b" d="M9.36,138.07c8.61,0,17.25,0,25.86,0,4.83,1.51,9.74,2.97,14.66,4.22,5.13,1.35,10.29,2.82,15.52,3.72,7.14,1.3,14.56.96,21.55-.99,5.18-1.35,10.23-3.41,15.52-4.33,3.69-.66,7.53-.54,11.21.15,5.12.94,10.26,2.48,15.52,2.1,4.57-.38,9.21-.64,13.79-.77,3.14-.17,6.42.14,9.48-.71,3-.71,5.78-2.27,8.62-3.39,7.17,0,14.38,0,21.55,0"/><path class="b" d="M9.36,135.9c8.32,0,16.68,0,25,0,1.16.03,2.37.73,3.45,1.08,1.37.51,2.91,1.04,4.31,1.49,7.64,2.32,15.37,4.63,23.28,5.87,6.88,1.07,13.98.6,20.69-1.23,6.3-1.61,12.42-4.33,18.97-4.77,5.88-.47,11.55,1.55,17.24,2.64,3.39.7,6.92.61,10.34.29,4-.28,8.06-.53,12.07-.74,3.16-.2,6.46-.08,9.48-1.16,2.68-.84,5.25-2.23,7.76-3.47,6.89,0,13.8,0,20.69,0"/><path class="b" d="M9.36,133.74c8.04,0,16.1,0,24.14,0,1.18-.14,2.38.7,3.45,1.08,1.94.84,4.03,1.63,6.03,2.31,7.3,2.39,14.77,4.54,22.41,5.48,6.92.85,14,.14,20.69-1.77,6.8-1.83,13.52-4.84,20.69-4.63,6.5.11,12.55,3.05,18.97,3.72,3.71.36,7.5-.19,11.21-.39,4.87-.4,9.8-.68,14.66-1.19,4.02-.65,7.64-2.76,11.21-4.6,6.6,0,13.23,0,19.83,0"/><path class="b" d="M9.36,131.57c7.75,0,15.53,0,23.28,0,1.53-.15,2.95.93,4.31,1.48,1.93.91,4.02,1.77,6.03,2.49,7.5,2.64,15.32,4.74,23.28,5.31,6.99.47,14.01-.58,20.69-2.64,6.99-2.07,14.13-5,21.55-3.99,6.17.74,11.9,3.69,18.1,4.24,4.29.28,8.65-.33,12.93-.64,4.58-.52,9.27-.72,13.79-1.6,3.36-.89,6.52-2.59,9.48-4.36.7-.37,1.82-.3,2.59-.29,1.38,0,2.93,0,4.31,0,4.29,0,8.64,0,12.93,0"/><path class="b" d="M9.36,129.4c7.46,0,14.95,0,22.41,0,1.57-.21,2.97.83,4.31,1.47,2.21,1.13,4.57,2.2,6.9,3.08,7.44,2.68,15.32,4.87,23.28,4.82,2.26-.04,4.64.1,6.9-.08,4.68-.44,9.31-1.56,13.79-2.93,7.22-2.23,14.76-5.09,22.41-3.46,5.85,1.1,11.29,3.98,17.24,4.62,4.58.37,9.23-.31,13.79-.74,4.58-.62,9.3-.9,13.79-2.01,3.36-1.04,6.51-2.86,9.48-4.71,6.3-.15,12.66,0,18.97-.06"/><path class="b" d="M9.36,127.24c7.17,0,14.38,0,21.55,0,.46,0,1.27,0,1.72,0,1.09.57,2.36,1.28,3.45,1.86,2.2,1.19,4.56,2.31,6.9,3.22,7.4,2.84,15.31,4.66,23.28,4.29,7.05.38,14-1.21,20.69-3.32,7.93-2.54,15.84-5.13,24.14-2.52,5.46,1.52,10.66,4.25,16.38,4.7,5.18.23,10.39-.58,15.52-1.24,4-.69,8.19-.97,12.07-2.22,3.03-1.1,5.91-2.79,8.62-4.51.71-.32,1.82-.25,2.59-.25,1.38,0,2.93,0,4.31,0,4,0,8.07,0,12.07,0"/><path class="b" d="M9.36,125.07c7.17,0,14.38,0,21.55,0,1.6-.2,2.97,1.06,4.31,1.73,1.93,1.09,4,2.2,6.03,3.07,5.2,2.25,10.76,3.75,16.38,4.45,3.12.26,6.35.04,9.48.11,7.68.25,15.13-2.21,22.41-4.36,7.6-2.43,14.71-3.61,22.41-.8,5.37,1.78,10.62,4.52,16.38,4.73,5.49.03,10.98-.9,16.38-1.8,3.73-.76,7.66-1.07,11.21-2.53,1.74-.73,3.55-1.69,5.17-2.66,1.08-.6,2.26-1.56,3.45-1.94,6.02,0,12.08,0,18.1,0"/><path class="b" d="M9.36,122.9c7.17,0,14.38,0,21.55,0,1.49-.15,2.98,1.39,4.31,2,1.92,1.12,3.99,2.25,6.03,3.13,4.91,2.15,10.19,3.54,15.52,4.16,3.42.17,6.92.02,10.34.07,5.55.04,11.04-1.4,16.38-2.78,5.11-1.37,10.22-3.14,15.52-3.63,5.32-.57,10.62.86,15.52,2.85,3.36,1.31,6.78,2.76,10.34,3.43,2.53.29,5.21.05,7.76.13,2.87-.22,5.79-.74,8.62-1.24,2.85-.53,5.78-1.14,8.62-1.74,3-.5,5.97-1.5,8.62-2.99,1.1-.59,2.39-1.35,3.45-2.01.99-.63,2.19-1.59,3.45-1.39,5.73,0,11.51,0,17.24,0"/><path class="b" d="M9.36,120.74c7.17,0,14.38,0,21.55,0,1.26-.08,2.37,1.13,3.45,1.66,1.93,1.16,3.99,2.34,6.03,3.28,5.14,2.38,10.74,3.83,16.38,4.36,3.13.14,6.35.02,9.48.06,6.72-.19,13.34-1.89,19.83-3.53,6.43-1.69,13.19-3.33,19.83-1.88,5.07,1.01,9.76,3.41,14.66,4.99,2.17.77,4.64.3,6.9.42,3.13-.05,6.35.11,9.48-.08,3.74-.68,7.51-1.57,11.21-2.43,2.6-.6,5.34-1.12,7.76-2.3,2.68-1.24,5.29-2.85,7.76-4.46,6.3-.26,12.66-.02,18.97-.1"/><path class="b" d="M9.36,118.57c6.89,0,13.8,0,20.69,0,.46-.02,1.27.02,1.72.09.78.49,1.8,1.15,2.59,1.62,2.19,1.34,4.54,2.64,6.9,3.66,7.56,3.31,15.95,4.36,24.14,3.91,6.39-.33,12.73-1.54,18.97-2.92,7.95-1.86,16.18-3.32,24.14-.65,3.49,1.03,6.88,2.57,10.34,3.65,1.38,0,2.93,0,4.31,0,3.14,0,6.35,0,9.48,0,1.97-.07,4.09.17,6.03-.14,3.15-.74,6.35-1.6,9.48-2.4,2.95-.68,5.96-1.5,8.62-2.97,1.41-.73,2.96-1.64,4.31-2.47.99-.62,2.19-1.57,3.45-1.37,6.02,0,12.08,0,18.1,0"/><path class="b" d="M9.36,116.4c7.46.02,14.95-.04,22.41.02,19.26,13.25,37.28,8.97,58.62,5.69,8.91-1.29,15.85.35,24.14,3.45,1.93.42,4.07.1,6.03.19,3.14,0,6.35,0,9.48,0,2.85-.04,5.78.08,8.62-.06,2.56-.71,5.2-1.5,7.76-2.22,2.89-.82,5.94-1.46,8.62-2.85,1.73-.84,3.53-1.88,5.17-2.88.73-.44,1.73-1.17,2.59-1.34,6.6,0,13.23,0,19.83,0"/><path class="b" d="M9.36,114.24c6.89,0,13.8,0,20.69,0,.46,0,1.27,0,1.72,0,1.16.47,2.36,1.36,3.45,1.96,2.18,1.27,4.54,2.44,6.9,3.35,6.28,2.47,13.1,3.39,19.83,3.41,11.25.19,22.38-2.43,33.62-2.17,3.17.12,6.4.59,9.48,1.35,2,.36,4.01,1.38,6.03,1.46,7.46,0,14.95,0,22.41,0,1.67-.08,3.54.21,5.17-.2,3.13-1.02,6.32-2.09,9.48-2.99,3.02-.72,5.93-2.04,8.62-3.57,1.09-.61,2.38-1.38,3.45-2.03,0,0,.86-.53.86-.53l.86-.04c6.89,0,13.8,0,20.69,0"/><path class="b" d="M9.36,112.07c6.89,0,13.8,0,20.69,0,.78,0,1.81-.03,2.59.1.77.47,1.8,1.08,2.59,1.52,2.18,1.23,4.55,2.35,6.9,3.24,6.03,2.3,12.54,3.21,18.97,3.39,10.92.36,21.85-1.24,32.76-.37,2.28.19,4.65.53,6.9.96,1.66.43,3.46.62,5.17.52,10.34,0,20.7,0,31.03,0,2.83-1.05,5.74-2.15,8.62-3.07,1.98-.63,4.14-1.16,6.03-2.03,1.73-.76,3.53-1.72,5.17-2.66,1.07-.51,2.21-1.63,3.45-1.6,7.46,0,14.95,0,22.41,0"/><path class="b" d="M9.36,109.9c5.16,0,10.36,0,15.52,0,1.68,0,3.49,0,5.17,0,1.42.03,3.11-.24,4.31.7,11.37,6.64,24.24,7.27,37.07,7.24,7.48.01,15.01.29,22.41,1.42,5.73,0,11.51,0,17.24,0,5.45,0,10.93,0,16.38,0,1.68,0,3.5,0,5.17,0,.76,0,1.82,0,2.59,0,.41-.17,1.31-.53,1.72-.71,3.9-1.73,8.02-3.07,12.07-4.4,3-1.09,5.74-2.94,8.62-4.24,8.32,0,16.68,0,25,0"/><path class="b" d="M9.36,107.74c8.04,0,16.1,0,24.14,0,1.79.37,3.44,1.64,5.17,2.24,3.31,1.41,6.83,2.51,10.34,3.27,11.91,2.51,24.24,1.56,36.21,3.69,3.39.4,6.93.06,10.34.17,6.31,0,12.66,0,18.97,0,4,0,8.07,0,12.07,0,1.38,0,2.93,0,4.31,0,1.12.04,2.47.04,3.45-.6,4.15-2.07,8.51-3.77,12.93-5.15,2.68-.92,5.14-2.58,7.76-3.61,9.19,0,18.4,0,27.59,0"/><path class="b" d="M9.36,105.57c8.61,0,17.25-.02,25.86.01,3.84,1.83,7.94,3.25,12.07,4.27,7.9,1.95,16.09,2.27,24.14,3.18,2.86.32,5.8.75,8.62,1.31,2.28.64,4.55.63,6.9.59,9.47,0,18.97,0,28.45,0,3.43,0,6.92,0,10.34,0,1.97-.16,4.29.49,6.03-.66,3.06-1.66,6.23-3.3,9.48-4.54,3.58-1.12,6.99-2.47,10.34-4.16,10.34,0,20.7,0,31.03,0"/><path class="b" d="M9.36,103.4c6.31,0,12.66,0,18.97,0,2.84.06,5.79-.13,8.62.1,1.37.54,2.91,1.11,4.31,1.57,8.89,3.07,18.33,3.84,27.59,5.09,3.16.45,6.38,1.03,9.48,1.8,1.09.24,2.33.71,3.45.8,1.38,0,2.93,0,4.31,0,9.19,0,18.4,0,27.59,0,3.14,0,6.35,0,9.48,0,1.08,0,2.37,0,3.45,0,.46.08,1.33-.12,1.72-.37,4.86-3.06,9.97-5.83,15.52-7.42,1.68-.54,3.34-1.77,5.17-1.56,11.2,0,22.42,0,33.62,0"/><path class="b" d="M9.36,101.24c6.31,0,12.66,0,18.97,0,2.27,0,4.63,0,6.9,0,1.38.09,3-.25,4.31.28,9.18,3.22,18.9,4.32,28.45,5.87,3.17.55,6.4,1.24,9.48,2.16,1.09.31,2.35.78,3.45,1.05,1.38,0,2.93,0,4.31,0,8.61,0,17.25,0,25.86,0,2.85,0,5.77,0,8.62,0,1.68-.06,3.52.16,5.17-.15,4.87-3.26,9.81-6.8,15.52-8.43.76-.24,1.8-.65,2.59-.78.76,0,1.83,0,2.59,0,12.35,0,24.72,0,37.07,0"/><path class="b" d="M9.36,99.07c10.34,0,20.7,0,31.03,0,1.43.05,2.92.73,4.31,1.03,2.25.6,4.62,1.16,6.9,1.63,5.71,1.2,11.53,1.97,17.24,3.17,2.89.61,5.83,1.39,8.62,2.35,1.09.35,2.33.92,3.45,1.18,1.08,0,2.37,0,3.45,0,12.35,0,24.72,0,37.07,0,3.25-2,6.15-4.73,9.48-6.63,1.88-1.02,3.87-2.47,6.03-2.73,3.43,0,6.92,0,10.35,0,11.78,0,23.57,0,35.34,0"/><path class="b" d="M9.36,96.9c11.2,0,22.42,0,33.62,0,1.72.11,3.49.81,5.17,1.14,2.54.6,5.19,1.16,7.76,1.66,5.76,1.13,11.62,2.05,17.24,3.78,2.62.73,5.18,1.94,7.76,2.78,4,0,8.07,0,12.07,0,8.61,0,17.25,0,25.86,0,3.92-3.18,7.62-6.82,12.07-9.29,4.86-.18,9.79-.02,14.66-.07,12.35,0,24.72,0,37.07,0"/><path class="b" d="M9.36,94.74c8.04,0,16.1,0,24.14,0,2.85,0,5.77,0,8.62,0,2-.02,4.11-.11,6.03.52,10.39,2.54,21.23,3.77,31.03,8.26,1.53.89,3.48.5,5.17.58,2.85,0,5.77,0,8.62,0,7.75,0,15.53,0,23.28,0,2.66-2.25,5.08-4.96,7.76-7.19.75-.64,1.79-1.48,2.59-2.06.77-.14,1.81-.11,2.59-.11,4.58,0,9.21,0,13.79,0,13.21,0,26.44,0,39.66,0"/><path class="b" d="M9.36,92.57c12.64,0,25.29,0,37.93,0,2.81.21,5.81,1.28,8.62,1.77,4.9,1.08,9.87,2.15,14.66,3.7,3.22,1.04,6.43,2.35,9.48,3.8,6.59.24,13.23.01,19.83.09,3.71,0,7.49,0,11.21,0,.76,0,1.83,0,2.59,0,1.36-.6,2.39-2.13,3.45-3.13,1.92-2.03,3.95-4.19,6.03-6.06,2.52-.41,5.21-.07,7.76-.17,4.29,0,8.64,0,12.93,0,12.93,0,25.87,0,38.79,0"/><path class="b" d="M9.36,90.4c13.21,0,26.44,0,39.66,0,2.61-.11,5.21.87,7.76,1.35,4.04.92,8.13,1.92,12.07,3.22,2.61.85,5.25,1.88,7.76,3,1.4.54,2.83,1.53,4.31,1.79,10.34,0,20.7,0,31.03,0,2.28-1.63,4.07-4.11,6.03-6.09,1.05-1.04,2.11-2.57,3.45-3.27h61.21"/><path class="b" d="M9.36,88.24c13.21,0,26.44,0,39.66,0,1.97.08,4.1-.21,6.03.23,4.05.88,8.13,1.9,12.07,3.2,4.74,1.55,9.34,3.65,13.79,5.9,5.44.07,10.93,0,16.38.02,3.71,0,7.49,0,11.21,0,.41,0,1.31,0,1.72,0,1.34-.57,2.4-2.03,3.45-3,1.99-2.06,3.99-4.35,6.03-6.36h62.93"/><path class="b" d="M9.36,86.07c14.36,0,28.74,0,43.1,0,1.68.02,3.49-.04,5.17.03,3.79.85,7.58,1.96,11.21,3.34,2.91,1.11,5.83,2.45,8.62,3.84.77.38,1.82.91,2.59,1.31.74.37,1.72,1.01,2.59.84,5.73,0,11.51,0,17.24,0,3.13-.08,6.37.18,9.48-.12,3.36-2.82,6.33-6.2,9.48-9.24h63.79"/><path class="b" d="M9.36,84.1c1.64-.4,3.5-.12,5.17-.2,3.14,0,6.35,0,9.48,0,8.9,0,17.82,0,26.72,0,3.14,0,6.35,0,9.48,0,8.01,1.51,15.19,5.79,22.41,9.36,8.32,0,16.68,0,25,0,2.3-1.07,4.12-3.24,6.03-4.87,1.69-1.43,3.22-3.43,5.17-4.49,6.02,0,12.08,0,18.1,0,15.22,0,30.47,0,45.69,0"/><path class="b" d="M9.36,82.84c1.98-.33,4.03-.96,6.03-1.11,4,0,8.07,0,12.07,0,9.19,0,18.4,0,27.59,0,2.84.08,5.79-.17,8.62.12,2.33.69,4.69,1.63,6.9,2.63,4.4,1.98,8.61,4.48,12.93,6.61,4.58,0,9.21,0,13.79,0,3.14,0,6.35,0,9.48,0,4.43-2.5,7.89-6.5,12.07-9.36,13.79,0,27.59,0,41.38,0,4.58,0,9.21,0,13.79,0,1.68,0,3.49,0,5.17,0,.42,0,1.3,0,1.72,0,.42.21,1.31.67,1.72.91"/><path class="b" d="M9.36,81.54c3.73-.59,7.47-1.4,11.21-1.95,3.14-.05,6.35,0,9.48-.02,9.19,0,18.4,0,27.59,0,2.55.06,5.22-.14,7.76.1,2.34.75,4.7,1.78,6.9,2.88,4.05,2.01,7.98,4.4,12.07,6.35,4.87.06,9.79,0,14.66.02,2.26,0,4.63,0,6.9,0,4.96-2.49,9.03-6.54,13.79-9.36,12.93,0,25.87,0,38.79,0,4.58,0,9.21,0,13.79,0,1.68,0,3.49,0,5.17,0,1.7.86,3.49,1.9,5.17,2.8"/><path class="b" d="M9.36,80.15c6.32-.79,12.6-2.19,18.97-2.62,11.76-.34,23.57-.02,35.35-.13.77,0,1.81,0,2.59.02,2.03.66,4.12,1.55,6.03,2.5,4.33,2.18,8.5,4.82,12.93,6.79,3.13.12,6.35.02,9.48.05,3.43,0,6.92,0,10.34,0,1.83-.48,3.53-1.73,5.17-2.65,3.12-1.9,6.2-4.05,9.48-5.67.74-.36,1.79-.83,2.59-1.04.76,0,1.82,0,2.59,0,2.26,0,4.63,0,6.9,0,6.89,0,13.8,0,20.69,0,7.17,0,14.38,0,21.55,0,1.18.27,2.38,1.12,3.45,1.66,1.67.91,3.49,1.89,5.17,2.78"/><path class="b" d="M9.36,78.64c4.9-.37,9.78-1.29,14.66-1.9,4.57-.61,9.22-.86,13.79-1.41,8.6-.26,17.25-.01,25.86-.1,1.09.03,2.38-.1,3.45.15,1.72.56,3.54,1.31,5.17,2.09,4.64,2.23,9.01,5.14,13.79,7.06,3.13.16,6.35.02,9.48.06,2.85,0,5.77,0,8.62,0,1.81-.03,3.53-1.31,5.17-1.99,3.13-1.57,6.25-3.37,9.48-4.73,1.06-.45,2.38-.87,3.45-1.29,1.09-.39,2.29-1.16,3.45-1.35,1.97,0,4.06,0,6.03,0,6.02,0,12.08,0,18.1,0,7.17,0,14.38,0,21.55,0,3.75,1.85,7.47,3.93,11.21,5.82"/><path class="b" d="M9.36,76.97c5.77-.18,11.51-1.16,17.24-1.81,3.42-.4,6.92-.7,10.35-1.11,2.56-.25,5.19-.86,7.76-.98,6.6,0,13.23,0,19.83,0,6.56-.13,15.79,7.14,22.41,9.28,3.42.2,6.92.02,10.34.08,1.68,0,3.49,0,5.17,0,1.44.09,2.99-.07,4.31-.69,3.18-1.16,6.32-2.62,9.48-3.83,2.22-.9,4.68-1.42,6.9-2.32,1.72-.69,3.52-1.56,5.17-2.4,1.95-.26,4.07-.06,6.03-.12,5.16,0,10.36,0,15.52,0,6.31.08,12.67-.16,18.97.1,4.63,2.17,9.2,4.61,13.79,6.87"/><path class="b" d="M9.36,75.09c5.76.09,11.53-.63,17.24-1.26,6.91-.69,13.84-1.52,20.69-2.67,3.1-.5,6.35-.15,9.48-.25,1.97,0,4.06,0,6.03,0,1.09.01,2.39-.08,3.45.23,4.21,1,8.23,2.85,12.07,4.81,3.32,1.61,6.68,3.66,10.34,4.32,3.43,0,6.92,0,10.34,0,1.97-.02,4.06.05,6.03-.04,3.18-.8,6.35-1.89,9.48-2.85,2.52-.84,5.23-1.29,7.76-2.07,2.96-.97,5.83-2.41,8.62-3.77,1.52-.93,3.48-.55,5.17-.62,2.26,0,4.63,0,6.9,0,6.6,0,13.23,0,19.83,0,.75,0,1.83,0,2.59,0,2.06.57,4.08,1.66,6.03,2.51,3.74,1.74,7.48,3.61,11.21,5.37"/><path class="b" d="M9.36,72.96c6.03.37,12.1-.08,18.1-.67,4.59-.45,9.23-.86,13.79-1.56,8.79-1.4,17.93-3.25,26.72-.9,4.49,1.15,8.75,3.16,12.93,5.12,1.93.92,4,1.81,6.03,2.47,1.06.33,2.32.77,3.45.68,3.71,0,7.49,0,11.21,0,1.38-.03,2.94.08,4.31-.09,3.73-.7,7.47-1.66,11.21-2.34,2.61-.4,5.29-.9,7.76-1.87,3.49-1.29,6.84-3.11,10.35-4.38,1.31-.64,2.88-.75,4.31-.67,1.68,0,3.5,0,5.17,0,5.45,0,10.93,0,16.38,0,1.13-.11,2.4.41,3.45.77,1.39.49,2.94,1.09,4.31,1.65,4.64,1.91,9.22,4.12,13.79,6.19"/><path class="b" d="M9.36,70.55c10.62,1.05,21.35.09,31.9-1.23,9.66-1.54,19.72-3.45,29.31-.47,3.82,1.09,7.54,2.67,11.21,4.2,3.29,1.3,6.76,2.84,10.35,2.88,4,0,8.07,0,12.07,0,3.46.13,6.92-.6,10.34-.98,2.85-.39,5.84-.45,8.62-1.25,5.6-1.56,10.74-4.52,16.38-5.99,1.65-.46,3.47-.87,5.17-1.14,1.68-.01,3.5,0,5.17,0,2.84.1,5.82-.28,8.62.31,8.44,1.67,16.27,5.49,24.14,8.85"/><path class="b" d="M9.36,67.84c9.99,1.45,20.15,1.25,30.17.18,9.41-1.18,18.98-3.26,28.45-1.37,8.01,1.34,15.28,5.45,23.28,6.83,1.66.35,3.49.28,5.17.28,2.56,0,5.2,0,7.76,0,6.02-.05,12.13.17,18.1-.65,6.25-1.23,11.93-4.43,18.1-5.97,10.14-2.99,20.41-1.65,30.17,2.05,2.58.93,5.22,1.99,7.76,3.03,1.38.48,2.84,1.39,4.31,1.54"/><path class="b" d="M9.36,64.82c4.28.65,8.61,1.37,12.93,1.67,5.15.37,10.37.28,15.52-.04,9.45-.77,18.94-2.78,28.45-1.52,4.67.55,9.29,1.76,13.79,3.09,4.23,1.28,8.52,2.67,12.93,3.16,4.27.63,8.64.35,12.93.41,6.31,0,12.66,0,18.97,0,4.68-.83,9.19-3.11,13.79-4.37,7.48-2.38,15.53-3.28,23.28-1.77,4.4.8,8.73,2.19,12.93,3.72,1.38.51,2.94,1.09,4.31,1.63,1.02.45,2.31.91,3.45.79"/><path class="b" d="M9.36,61.52c8.25,1.54,16.56,3.19,25,3.02,8.35.08,16.64-1.57,25-1.36,6.38,0,12.75.93,18.97,2.32,5.43,1.2,10.82,2.8,16.38,3.31,4.85.68,9.77.66,14.66.62,6.02,0,12.08,0,18.1,0,.76,0,1.82,0,2.59,0,1.99-.56,4.06-1.29,6.03-1.9,4.22-1.34,8.54-2.58,12.93-3.22,6.9-1.07,14-.33,20.69,1.57,2.29.63,4.65,1.4,6.9,2.18,1.93.67,3.93,1.62,6.03,1.37"/><path class="b" d="M9.36,57.96c7.74,1.43,15.37,3.74,23.28,4.12,8.04.65,16.09-.58,24.14-.35,7.5.04,15.01.71,22.41,1.89,5.45.88,10.88,2.14,16.38,2.68,2.56.29,5.2.67,7.76.97,2.56,0,5.2,0,7.76,0,6.6,0,13.23,0,19.83,0,1.38-.04,2.95.11,4.31-.13,1.68-.5,3.49-1.04,5.17-1.51,4.22-1.2,8.56-2.23,12.93-2.63,5.77-.56,11.64.09,17.24,1.52,2.29.57,4.65,1.28,6.9,2.01.74.24,1.8.63,2.59.74.75,0,1.83,0,2.59,0"/><path class="b" d="M9.36,55.74c2.27,0,4.63,0,6.9,0,.78.21,1.81.49,2.59.7,5.35,1.49,10.83,2.72,16.38,3.17,5.15.48,10.36.22,15.52.31,6.6.2,13.23.58,19.83.96,6.34.34,12.7.93,18.97,1.97,4.59.61,9.25,1.12,13.79,2,1.65.39,3.49.2,5.17.24,2.26,0,4.63,0,6.9,0,7.17,0,14.38,0,21.55,0,1.08-.04,2.4.13,3.45-.2,2.25-.62,4.62-1.25,6.9-1.76,5.06-1.15,10.33-1.75,15.52-1.38,3.77.25,7.56.98,11.21,1.93,1.69.41,3.47,1.04,5.17,1.41,1.07,0,2.38,0,3.45,0"/><path class="b" d="M9.36,53.57c4,0,8.06,0,12.07,0,2.29.48,4.6,1.35,6.9,1.86,6.75,1.76,13.76,1.99,20.69,2.39,5.73.43,11.49,1.14,17.24,1.3,5.73.25,11.52.06,17.24.44,5.17.48,10.39,1.06,15.52,1.9,3.16.45,6.26,1.71,9.48,1.46,12.06-.02,24.15.04,36.21-.02,7.28-1.92,14.89-3.14,22.41-2.2,3.48.4,6.97,1.16,10.35,2.06,1.65.31,3.5.09,5.17.15"/><path class="b" d="M9.36,51.4c5.45,0,10.93,0,16.38,0,.83-.09,1.81.33,2.59.56,1.38.42,2.91.84,4.31,1.18,5.36,1.31,10.93,1.7,16.38,2.47,6.56,1.01,13.17,2.11,19.83,1.96,4.59-.02,9.21-.46,13.79-.45,4.6.06,9.24.55,13.79,1.18,2.29.35,4.66.84,6.9,1.42,1.39.3,2.89.93,4.31,1.04,5.73,0,11.51,0,17.24,0,8.04,0,16.1,0,24.14,0,3.99-.57,8.01-1.58,12.07-1.67,4.02-.19,8.11.16,12.07.89,1.08.2,2.38.47,3.45.72,1.97.12,4.06.03,6.03.05"/><path class="b" d="M9.36,49.24c6.89,0,13.8,0,20.69,0,1.44-.04,2.92.76,4.31,1.04,2.24.6,4.62,1.07,6.9,1.5,6.06,1,12.03,2.69,18.1,3.63,7.75,1.25,15.54-.19,23.28-.71,7.54-.25,15.2.59,22.41,2.83,1.08.32,2.36.76,3.45,1.06,1.08,0,2.37,0,3.45,0,3.14,0,6.35,0,9.48,0,8.61,0,17.25,0,25.86,0,2.55-.02,5.21.05,7.76-.04,3.39-.6,6.9-.96,10.34-.93,3.16.02,6.38.37,9.48.93,2.55.08,5.2.01,7.76.03"/><path class="b" d="M9.36,47.07c8.32,0,16.68,0,25,0,4.3,1.1,8.65,2.24,12.93,3.42,3.71,1.02,7.42,2.34,11.21,3.05,4.82.95,9.82.83,14.66.09,5.69-.92,11.45-1.92,17.24-1.5,4.36.16,8.75.88,12.93,2.14,1.69.5,3.51,1.11,5.17,1.7,1.02.49,2.35.48,3.45.45,10.91,0,21.85,0,32.76,0,6.31-.1,12.67.22,18.97-.19,2.85-.19,5.78.02,8.62.19,3.42,0,6.92,0,10.34,0"/><path class="b" d="M9.36,44.9c6.31,0,12.66,0,18.97,0,1.98,0,4.06,0,6.03,0,1.38.08,2.99-.23,4.31.26,3.45,1.09,6.95,2.26,10.34,3.53,3.1,1.14,6.24,2.41,9.48,3.09,4.52,1.02,9.26.86,13.79,0,5.69-1.1,11.4-2.58,17.24-2.4,4.66-.02,9.35.69,13.79,2.07,1.7.52,3.51,1.15,5.17,1.77,1.35.51,2.82,1.22,4.31,1.04,23.27,0,46.56,0,69.83,0"/><path class="b" d="M9.36,42.74c6.89,0,13.8,0,20.69,0,2.27,0,4.63,0,6.9,0,1.4.03,3.02-.18,4.31.48,6.06,2.21,11.75,5.66,18.1,7.01,10.27,2.25,19.94-3.68,30.17-3.54,4.96-.18,9.95.63,14.66,2.19,2,.65,4.08,1.43,6.03,2.19,1.35.54,2.81,1.23,4.31,1.04,22.7,0,45.41,0,68.1,0"/><path class="b" d="M9.36,40.57c6.89,0,13.8,0,20.69,0,2.56,0,5.2,0,7.76,0,1.39.09,3.06-.3,4.31.44,5.71,2.52,11.06,6.2,17.24,7.48,6.43,1.4,12.84-.77,18.97-2.56,3.91-1.15,8-1.83,12.07-1.97,5.28-.25,10.57.84,15.52,2.61,1.99.7,4.07,1.51,6.03,2.29,1.35.54,2.82,1.26,4.31,1.07,22.12,0,44.26,0,66.38,0"/><path class="b" d="M9.36,38.4c7.17,0,14.38,0,21.55,0,2.27,0,4.63,0,6.9,0,1.71.06,3.68-.33,5.17.73,5.58,2.87,10.89,6.86,17.24,7.76,5.92.91,11.7-1.27,17.24-3.06,4.44-1.46,9.12-2.42,13.79-2.63,5.6-.28,11.17,1.1,16.38,3.06,1.98.73,4.06,1.56,6.03,2.33,1.35.48,2.83,1.3,4.31,1.17,21.55,0,43.11,0,64.66,0"/><path class="b" d="M9.36,36.24c7.17,0,14.38,0,21.55,0,2.27,0,4.63,0,6.9,0,1.74.05,3.71-.33,5.17.84,5.72,3.26,11.29,7.7,18.1,8.12,5.7.4,11.1-1.93,16.38-3.72,4.98-1.69,10.23-2.95,15.52-3.04,5.64-.1,11.16,1.53,16.38,3.52,1.98.74,4.06,1.57,6.03,2.31,1.37.45,2.86,1.24,4.31,1.33,20.97,0,41.96,0,62.93,0"/><path class="b" d="M9.36,34.07c7.17,0,14.38,0,21.55,0,2.27,0,4.63,0,6.9,0,1.09.02,2.37-.06,3.45.09.45.26,1.28.79,1.72,1.05,5.61,3.45,11.22,7.99,18.1,8.1,5.42.15,10.52-2.12,15.52-3.92,5.8-2.06,11.9-3.85,18.1-3.7,9.74.14,18.35,5.42,27.59,7.73,20.11,0,40.23,0,60.35,0"/><path class="b" d="M9.36,31.9h31.03c4.87,2.8,9.28,6.66,14.66,8.5,9.55,3.2,18.61-2.98,27.59-5.45,7.29-2.44,15.06-2.68,22.41-.36,4.95,1.44,9.75,3.48,14.66,5.04,1.95.62,4.03,1.22,6.03,1.62,1.38,0,2.93,0,4.31,0,17.52,0,35.06,0,52.59,0"/><path class="b" d="M9.36,29.74c8.61,0,17.25,0,25.86,0,1.39,0,2.93,0,4.31,0,1.46.74,2.94,1.83,4.31,2.72,4.23,2.8,8.6,6.05,13.79,6.64,1.68-.02,3.49.04,5.17-.04,5.41-.85,10.4-3.37,15.52-5.19,6.55-2.53,13.62-4.41,20.69-3.42,10.11,1.34,19.22,6.68,29.31,8.15,3.11.57,6.33.53,9.48.5,3.71,0,7.49,0,11.21,0,11.2,0,22.42,0,33.62,0"/><path class="b" d="M9.36,27.57c7.46,0,14.95,0,22.41,0,1.68,0,3.49,0,5.17,0,.45,0,1.28,0,1.72,0,.47.2,1.31.69,1.72.98,7.52,4.82,12.8,9.84,22.41,8.12,7.17-1.54,13.7-5.17,20.69-7.29,2.78-.86,5.72-1.52,8.62-1.79,2.55.02,5.22-.16,7.76.15,6.84.92,13.26,3.68,19.83,5.66,4.46,1.47,9.16,2.12,13.79,2.75,1.39.21,2.92.59,4.31.78,1.08,0,2.37,0,3.45,0,3.71,0,7.49,0,11.21,0,10.05,0,20.12,0,30.17,0"/><path class="b" d="M9.36,25.4c6.89,0,13.8,0,20.69,0,1.68,0,3.49,0,5.17,0,1.1.06,2.45-.22,3.45.35,8.31,5.2,14.46,11.04,25,8.07,8.51-2.2,16.24-7.13,25-8.42,4.29,0,8.64,0,12.93,0,2.63-.06,5.24.94,7.76,1.61,4.01,1.21,8.02,2.64,12.07,3.75,5.91,1.75,12.19,1.85,18.1,3.59,1.9.67,4.06.34,6.03.41,3.14,0,6.35,0,9.48,0,9.19,0,18.4,0,27.59,0"/><path class="b" d="M9.36,23.24c7.17,0,14.38,0,21.55,0,1.39,0,2.93,0,4.31,0,1.13.02,2.54-.2,3.45.62,8.53,5.44,14.32,10.26,25,7.12,7.35-2.04,14.11-5.92,21.55-7.7,6.31-.09,12.66,0,18.97-.03,2.66-.2,5.25.84,7.76,1.55,3.7,1.13,7.45,2.37,11.21,3.29,3.94,1.06,8.1,1.27,12.07,2.17,1.69.37,3.51.85,5.17,1.36,1.37.38,2.85,1.12,4.31.99,12.64,0,25.29,0,37.93,0"/><path class="b" d="M9.36,21.07c7.75,0,15.53,0,23.28,0,5.18.02,4.28-.54,8.62,2.32,8,5.31,13.81,7.37,23.28,4.32,5.83-1.85,11.36-4.67,17.24-6.39,1.04-.41,2.36-.21,3.45-.25,1.68,0,3.49,0,5.17,0,5.45,0,10.93,0,16.38,0,2.67-.26,5.25.68,7.76,1.44,3.68,1.11,7.43,2.25,11.21,3.03,4,.78,8.15,1.13,12.07,2.34,1.7.48,3.52,1.08,5.17,1.71.41.16,1.31.5,1.72.68.74.21,1.82.17,2.59.16,11.78,0,23.57,0,35.34,0"/><path class="b" d="M9.36,18.9c8.32,0,16.68,0,25,0,1.09.02,2.37-.06,3.45.09,1.09.66,2.36,1.45,3.45,2.11,8.72,5.69,15.23,6.5,25,2.87,4.6-1.63,9.08-3.78,13.79-5.07,10.34,0,20.7,0,31.03,0,1.43-.12,2.95.39,4.31.77,1.97.57,4.05,1.2,6.03,1.72,3.93,1.15,8.06,1.67,12.07,2.43,2.91.63,5.85,1.54,8.62,2.63,2.05.7,3.77,2.08,6.03,1.8,11.49,0,23,0,34.48,0"/><path class="b" d="M9.36,16.74c8.04,0,16.1,0,24.14,0,5.44-.1,4.05-.16,8.62,2.45,10.63,6.56,18.59,3.88,29.31-.43,1.96-.68,3.98-1.66,6.03-2.02,4.29,0,8.64,0,12.93,0,5.45,0,10.93,0,16.38,0,3.13.09,6.37-.2,9.48.14,3.43.87,6.88,1.96,10.34,2.69,3.14.66,6.41,1.08,9.48,2.02,2.63.77,5.28,1.79,7.76,2.96,1.36.55,2.77,1.73,4.31,1.56,11.49,0,23,0,34.48,0"/><path class="b" d="M9.36,14.57c6.31,0,12.66,0,18.97,0,1.98,0,4.06,0,6.03,0,1.38.06,2.96-.16,4.31.17,4.25,2.48,8.78,5,13.79,5.32,5.36.43,10.58-1.4,15.52-3.26,1.97-.74,4.04-1.53,6.03-2.2,1.68-.09,3.49-.02,5.17-.04,8.9,0,17.82,0,26.72,0,2.85,0,5.77,0,8.62,0,2.3-.01,4.69-.15,6.9.61,5.11,1.51,10.47,2.21,15.52,3.92,2.33.8,4.7,1.82,6.9,2.95.77.4,1.83.98,2.59,1.42,0,0,.86.47.86.47h.86c11.49,0,23,0,34.48,0"/><path class="b" d="M9.36,12.4c9.47,0,18.97,0,28.45,0,1.58-.19,2.96,1,4.31,1.61,1.89.97,3.97,1.84,6.03,2.36,3.65.95,7.56.81,11.21-.06,4.12-.91,8.03-2.73,12.07-3.91,5.16,0,10.36,0,15.52,0,7.75,0,15.53,0,23.28,0,3.71,0,7.49,0,11.21,0,1.69.32,3.5.78,5.17,1.21,4.36,1.08,8.83,2.11,12.93,4,1.72.76,3.54,1.7,5.17,2.65,1.06.5,2.2,1.68,3.45,1.5,11.49,0,23,0,34.48,0"/><path class="b" d="M9.36,10.24c7.75,0,15.53,0,23.28,0,2.27,0,4.63,0,6.9,0,1.2-.05,2.36.92,3.45,1.33,1.35.61,2.88,1.18,4.31,1.56,3.93,1.08,8.14.9,12.07-.08,2.01-.49,4.08-1.16,6.03-1.84,1.36-.47,2.83-1.13,4.31-.97,8.32,0,16.68,0,25,0,6.6,0,13.23,0,19.83,0,2.85.01,5.77-.03,8.62.02,2.57.52,5.23,1.12,7.76,1.83,3.24.94,6.47,2.16,9.48,3.68,2.34,1.12,4.57,2.69,6.9,3.83,11.78,0,23.57,0,35.34,0"/><path class="b" d="M9.36,8.07c10.63,0,21.27,0,31.9,0,1.46.14,2.89,1.1,4.31,1.46,2.2.7,4.59,1.11,6.9,1.12,4.45.12,8.69-1.49,12.93-2.58,12.06,0,24.14,0,36.21,0,5.73,0,11.51,0,17.24,0,1.68.06,3.52-.16,5.17.16,3.17.59,6.44,1.21,9.48,2.32,2.96,1.1,5.89,2.52,8.62,4.11,1.69.86,3.36,2.2,5.17,2.78,11.78,0,23.57,0,35.35,0"/></svg>