<?xml version="1.0" encoding="UTF-8"?><svg id="a" xmlns="http://www.w3.org/2000/svg" width="1920" height="2400" viewBox="0 0 192 240"><defs><style>.b{fill:none;stroke:#fff;stroke-miterlimit:10;stroke-width:.3px;}.c{stroke-width:0px;}</style></defs><rect class="c" width="192" height="240"/><path class="b" d="M9.1,223.55h39.77c.92.44,1.83,1.49,2.59,2.15,1.31,1.15,2.83,2.34,4.32,3.24,7.53,4.86,15.46,1.09,22.48-2.74,1.7-.81,3.36-2.15,5.19-2.65,1.39,0,2.94,0,4.32,0,4.31,0,8.66,0,12.97,0,19.88,0,39.78,0,59.66,0,.42-.03,1.32.03,1.73.13.39.27,1.31.78,1.73,1,1.67.85,3.49,1.76,5.19,2.55,4.38,2.03,9.04,3.67,13.83,4.37"/><path class="b" d="M9.1,221.38h41.5c10.23,9.22,17.09,8.5,28.53,1.89,1.09-.59,2.34-1.35,3.46-1.89,1.98,0,4.07,0,6.05,0,4.31,0,8.66,0,12.97,0,19.88,0,39.78,0,59.66,0,1.24-.17,2.39.94,3.46,1.42,1.37.76,2.92,1.6,4.32,2.3,4.33,2.19,9.01,3.87,13.83,4.47"/><path class="b" d="M9.1,219.2h43.23c9.55,8.3,17.1,7.43,27.67,1.65,1.09-.52,2.28-1.36,3.46-1.65,1.98,0,4.07,0,6.05,0,4.59,0,9.24,0,13.83,0,19.59,0,39.2,0,58.8,0,1.23.2,2.38,1.2,3.46,1.77,1.36.81,2.91,1.7,4.32,2.43,4.03,2.1,8.44,3.64,12.97,4.13"/><path class="b" d="M9.1,217.03c14.98,0,29.98-.02,44.96,0,9.48,7.82,17.42,6.48,27.67,1.13,1.04-.51,2.24-1.3,3.46-1.14,1.98,0,4.07,0,6.05,0,4.88,0,9.82,0,14.7,0,18.73,0,37.47,0,56.2,0,1.28-.19,2.4,1.03,3.46,1.6,1.36.87,2.91,1.81,4.32,2.59,3.98,2.21,8.42,3.8,12.97,4.24"/><path class="b" d="M9.1,214.86c15.55.09,31.15-.18,46.69.1,9.9,7.75,18.14,5.64,28.53.4.98-.67,2.34-.47,3.46-.49,1.69,0,3.5,0,5.19,0,5.17,0,10.39,0,15.56,0,18.15,0,36.32,0,54.47,0,1.27.18,2.38,1.34,3.46,1.96,1.35.9,2.9,1.86,4.32,2.65,3.71,2.06,7.87,3.49,12.11,3.88"/><path class="b" d="M9.1,212.68c10.95,0,21.91,0,32.86,0,4.88,0,9.82,0,14.7,0,.89.23,1.83,1.05,2.59,1.53,1.32.86,2.86,1.7,4.32,2.3,4.37,1.87,9.36,1.75,13.83.31,2.03-.62,4.12-1.47,6.05-2.33,1.4-.55,2.84-1.51,4.32-1.81,8.06,0,16.15,0,24.21,0,17.29,0,34.59,0,51.88,0,5.85,4.04,11.71,7.94,19.02,8.52"/><path class="b" d="M9.1,210.51c10.95,0,21.91,0,32.86,0,5.17,0,10.39,0,15.56,0,.97,0,1.83.94,2.59,1.43,1.05.72,2.33,1.5,3.46,2.07,7.07,3.79,14.72,1.94,21.62-1.25,1.7-.69,3.43-1.73,5.19-2.25,3.44,0,6.94,0,10.38,0,7.77,0,15.57,0,23.35,0,11.81,0,23.64,0,35.45,0,6.41-.12,4.27-.15,9.51,3.27,4.13,2.75,8.87,4.77,13.83,5.26"/><path class="b" d="M9.1,208.34c11.52,0,23.06,0,34.59,0,3.15,0,6.36,0,9.51,0,1.97.12,4.15-.29,6.05.25,2.33,1.93,4.96,3.72,7.78,4.85,4.68,1.96,9.99,1.56,14.7-.08,3.85-1.28,7.56-3.12,11.24-4.83,1.05-.32,2.37-.16,3.46-.2,1.68,0,3.5,0,5.19,0,4.88,0,9.82,0,14.7,0,16.14,0,32.29,0,48.42,0,5.48,4,11.21,7.82,18.16,8.49"/><path class="b" d="M9.1,206.16h50.15c11.7,10.53,19.6,8.83,32.86,2.39,1.09-.51,2.37-1.13,3.46-1.64.75-.36,1.73-.89,2.59-.75,4.59,0,9.24,0,13.83,0,17.58,0,35.17,0,52.74,0,.94.11,1.85,1.02,2.59,1.54,1.34.99,2.89,2.03,4.32,2.88,3.42,2.04,7.29,3.47,11.24,3.98"/><path class="b" d="M9.1,203.99h50.15c1.28.67,2.34,2.08,3.46,2.97,1.57,1.37,3.37,2.72,5.19,3.72,9.7,5.7,20.45-.51,29.4-4.82,1.39-.59,2.82-1.61,4.32-1.87,1.08,0,2.37,0,3.46,0,3.15,0,6.37,0,9.51,0,17,0,34.01,0,51.01,0,5.12,3.88,10.8,7.41,17.29,8.24"/><path class="b" d="M9.1,201.82h50.15c1.63,1.02,2.85,2.92,4.32,4.15,2.04,1.91,4.38,3.72,6.92,4.91.75.41,1.78.33,2.59.33,1.09,0,2.37,0,3.46,0,2.85-.04,5.8.1,8.65-.07,5.7-1.93,11.05-4.85,16.43-7.53,1.09-.55,2.37-1.21,3.46-1.76,1.68-.06,3.5-.02,5.19-.03,3.44,0,6.94,0,10.38,0,14.98,0,29.98,0,44.96,0,.91.19,1.85,1.06,2.59,1.57,1.05.75,2.35,1.6,3.46,2.27,3.43,2.06,7.28,3.55,11.24,4.14"/><path class="b" d="M9.1,199.64h50.15c3.12,3.14,5.71,6.83,9.51,9.3,3.13.22,6.37.03,9.51.09,4.02,0,8.09,0,12.11,0,5.06-2.02,9.87-4.76,14.7-7.26,1.66-.72,3.29-2.27,5.19-2.13,3.44,0,6.94,0,10.38,0,15.27.02,30.56-.03,45.83.02,4.84,3.64,10.36,6.7,16.43,7.56"/><path class="b" d="M9.1,197.47h50.15c1.9,2.5,3.86,5.18,6.05,7.44,1.6,1.69,1.92,2.12,4.32,1.95,3.73,0,7.51,0,11.24,0,4.88-.07,9.83.15,14.7-.09,4.98-2.43,9.9-5.1,14.7-7.88.76-.44,1.78-1.08,2.59-1.42,1.39,0,2.94,0,4.32,0,3.15,0,6.37,0,9.51,0,13.25,0,26.52,0,39.77,0,2.1.91,3.97,2.58,6.05,3.56,3.21,1.72,6.76,2.95,10.38,3.43"/><path class="b" d="M9.1,195.3c10.66,0,21.34,0,31.99,0,3.73,0,7.51,0,11.24,0,1.38,0,2.94,0,4.32,0,.8,0,1.88-.09,2.59.35,2.08,3.1,4.28,6.38,6.92,9.03,8.06,0,16.15,0,24.21,0,3.15,0,6.37,0,9.51,0,3.2-1.64,6.42-3.42,9.51-5.26,8.17-4.72,4.25-4.15,13.83-4.13,14.69,0,29.4,0,44.1,0,4.65,3.13,9.91,5.67,15.56,6.19"/><path class="b" d="M9.1,193.13h49.29c2.51,2.87,4.04,6.82,6.92,9.39,8.64,0,17.3,0,25.94,0,2.86,0,5.79,0,8.65,0,1.39-.02,2.94.06,4.32-.06.78-.42,1.83-1.01,2.59-1.45,4.14-2.37,8.2-5.01,12.11-7.75,2.25-.27,4.65-.05,6.92-.12,13.83,0,27.67,0,41.5,0,.89-.18,1.87.53,2.59.97,1.05.61,2.35,1.28,3.46,1.77,2.97,1.32,6.25,2.18,9.51,2.31"/><path class="b" d="M9.1,190.95c10.66,0,21.34,0,31.99,0,3.73,0,7.51,0,11.24,0,1.08,0,2.38,0,3.46,0,.79,0,1.87-.08,2.59.31,1.04,1.83,2.32,3.99,3.46,5.76.71,1.03,1.54,2.6,2.59,3.32,9.5,0,19.03,0,28.53,0,3.15,0,6.37,0,9.51,0,1.09,0,2.37,0,3.46,0,.81,0,1.88.1,2.59-.39,3.25-1.91,6.46-4.06,9.51-6.26,4.5-3.37,3.06-2.7,8.65-2.74,14.12,0,28.25,0,42.37,0,.47-.09,1.35.16,1.73.46,1.05.54,2.35,1.1,3.46,1.51,2.74,1,5.73,1.55,8.65,1.48"/><path class="b" d="M9.1,188.78h48.42c1.19,1.78,2.34,4.06,3.46,5.87.71,1.08,1.49,2.77,2.59,3.51,15.85-.02,31.71.04,47.56-.02,4.55-2.76,8.73-6.17,12.97-9.36,15.85,0,31.71,0,47.56,0,1.44-.1,2.92.71,4.32.96,2.23.5,4.64.67,6.92.46"/><path class="b" d="M9.1,186.61h47.56c1.39,1.59,2.34,3.99,3.46,5.77.71,1.11,1.44,2.89,2.59,3.62,12.1,0,24.22,0,36.32,0,4.88-.05,9.82.11,14.7-.07,4.24-2.79,8.21-6.08,12.11-9.32h57.07"/><path class="b" d="M9.1,184.43h46.69c1.7,2.14,2.86,5.05,4.32,7.36.3.6,1.04,1.8,1.73,2.03,17.86-.04,35.75.08,53.61-.04,2.67-1.82,5.31-3.89,7.78-5.97,1.42-1.04,2.69-2.71,4.32-3.38.77,0,1.82,0,2.59,0,4.31,0,8.66,0,12.97,0,13.25,0,26.52,0,39.77,0"/><path class="b" d="M9.1,182.26h45.83c1.64,2.99,3.41,6.23,5.19,9.14.75.32,1.8.25,2.59.25,1.39,0,2.94,0,4.32,0,4.31,0,8.66,0,12.97,0,12.1,0,24.22.02,36.32,0,2.68-1.8,5.32-3.86,7.78-5.94,1.1-.93,2.39-2.06,3.46-3.03.71-.51,1.77-.42,2.59-.41,4.31,0,8.66,0,12.97,0,13.25,0,26.52,0,39.77,0"/><path class="b" d="M9.1,180.09h44.1c2.32,2.82,3.66,6.62,6.05,9.39,13.25,0,26.52,0,39.77,0,5.46,0,10.97,0,16.43,0,.51.05,1.35-.32,1.73-.65,1.1-.71,2.4-1.6,3.46-2.38,2.67-1.96,5.31-4.16,7.78-6.36h54.47"/><path class="b" d="M9.1,177.91h42.37c1.97,3.04,4,6.3,6.05,9.29,13.24.28,26.53,0,39.77.1,5.46,0,10.97,0,16.43,0,1.83-.43,3.55-1.64,5.19-2.53,3.36-1.96,6.42-4.52,9.51-6.86h54.47"/><path class="b" d="M9.1,175.74c8.64,0,17.3,0,25.94,0,2.85,0,5.79,0,8.65,0,1.68.08,3.55-.21,5.19.2,2.32,2.97,4.6,6.19,6.92,9.16,12.39.07,24.79,0,37.18.03,5.17-.01,10.39.02,15.56-.02,6.71-2.26,13.32-5.12,19.02-9.37h55.34"/><path class="b" d="M9.1,173.57c11.81.04,23.64-.08,35.45.05,3.1,2.72,5.88,5.94,8.65,8.98.75.45,1.77.37,2.59.36,1.09,0,2.37,0,3.46,0,6.33,0,12.69,0,19.02,0,4.59,0,9.24,0,13.83,0,2.27-.02,4.65.06,6.92-.04,1.38-.47,2.93-.97,4.32-1.4,5.49-1.73,11.08-3.3,16.43-5.42,1.71-.68,3.54-1.48,5.19-2.31,1.05-.33,2.37-.16,3.46-.2,1.68,0,3.5,0,5.19,0,16.42,0,32.86,0,49.29,0"/><path class="b" d="M9.1,171.39c4.88,0,9.82,0,14.7,0,1.99.2,4.05.78,6.05.9,2.27.22,4.65-.03,6.92.21,5.65.49,9.54,5.15,13.83,8.27,12.68,0,25.37,0,38.04,0,.84-.04,1.83-.56,2.59-.86,1.38-.56,2.92-1.16,4.32-1.66,3.68-1.33,7.48-2.48,11.24-3.53,4.02-1.09,8.08-2.25,12.11-3.33,2.56,0,5.22,0,7.78,0,18.73,0,37.47,0,56.2,0"/><path class="b" d="M9.1,169.22c2.65-.21,5.27.52,7.78,1.27,3.42,1.02,6.87,2.22,10.38,2.93,3.96,1.01,8.22.7,12.11,2.01,2.12.76,4.08,2.12,6.05,3.18,8.93,0,17.88,0,26.8,0,1.98,0,4.07,0,6.05,0,1.09-.04,2.41.15,3.46-.23,1.66-.89,3.48-1.81,5.19-2.6,4.18-1.96,8.56-3.6,12.97-4.95,1.67-.52,3.5-1.04,5.19-1.49,1.07-.19,2.38-.09,3.46-.11,24.78,0,49.58,0,74.36,0"/><path class="b" d="M9.1,168.71c4.1.93,8.18,2.25,12.11,3.76,3.93,1.53,7.87,3.46,12.11,3.96,6.04,0,12.12,0,18.16,0,7.77,0,15.57,0,23.35,0,4.01-2.19,7.9-4.78,12.11-6.62,1.37-.63,2.92-1.29,4.32-1.84,1.06-.38,2.3-1.04,3.46-.92,5.17,0,10.39,0,15.56,0,24.21,0,48.42,0,72.63,0"/><path class="b" d="M9.1,168.35c3.29.76,6.5,2.05,9.51,3.57,1.1.54,2.37,1.22,3.46,1.79.73.51,1.73.61,2.59.55,4.02,0,8.09,0,12.1,0,6.04,0,12.12,0,18.16,0,3.15,0,6.37,0,9.51,0,1.97-.11,4.13.26,6.05-.22,3.35-2.4,6.79-4.8,10.38-6.83,1.36-.77,2.91-1.58,4.32-2.25,1.97-.2,4.08-.05,6.05-.09,4.59,0,9.24,0,13.83,0,25.94,0,51.88,0,77.82,0"/><path class="b" d="M9.1,167.77c2.98,1.06,5.89,2.54,8.65,4.1.77.29,1.79.23,2.59.22,1.39,0,2.93,0,4.32,0,4.02,0,8.09,0,12.11,0,5.75,0,11.54,0,17.29,0,17.75-.22,8.47,1.9,22.48-7.54,1.06-.62,2.22-1.64,3.46-1.85,2.27,0,4.65,0,6.92,0,4.59,0,9.24,0,13.83,0,27.38,0,54.76,0,82.14,0"/><path class="b" d="M9.1,167.4c1.72.74,3.51,1.67,5.19,2.51,1.69,0,3.5,0,5.19,0,4.88,0,9.82,0,14.7,0,5.75,0,11.54,0,17.29,0,3.44,0,6.94,0,10.38,0,2.31.25,2.75-.63,4.32-2.02,1.93-1.73,4-3.51,6.05-5.1,1.06-.75,2.22-1.84,3.46-2.27,2.27,0,4.65,0,6.92,0,4.88,0,9.82,0,14.7,0,28.53,0,57.07,0,85.6,0"/><path class="b" d="M9.1,166.92c.44.19,1.29.59,1.73.8.44.02,1.29.03,1.73.03,1.39,0,2.94,0,4.32,0,3.73,0,7.51,0,11.24,0,11.23,0,22.49,0,33.72,0,3.31-3.21,6.69-6.51,10.38-9.29,36.87-.29,73.79,0,110.68-.1"/><path class="b" d="M9.1,165.57c17,0,34.01.01,51.01,0,2.23-2.25,4.56-4.6,6.92-6.72,1.29-.95,2.55-2.85,4.32-2.66,7.48,0,15,0,22.48,0,9.21,0,18.45,0,27.67,0,20.46,0,40.93,0,61.39,0"/><path class="b" d="M9.1,163.4c16.42,0,32.86.02,49.29,0,3.43-3.1,6.52-6.8,10.38-9.38h114.13"/><path class="b" d="M9.1,161.22c10.66,0,21.34,0,31.99,0,4.88,0,9.82,0,14.7,0,2.23-1.18,4.11-3.21,6.05-4.81,1.66-1.47,3.44-3.06,5.19-4.41,1.65-.34,3.51-.1,5.19-.17,5.17,0,10.39,0,15.56,0,31.7,0,63.41,0,95.11,0"/><path class="b" d="M9.1,159.05c11.81,0,23.64,0,35.45,0,2.56-.02,5.22.05,7.78-.04,5.02-2.42,9.33-6.12,13.83-9.35h116.73"/><path class="b" d="M9.1,156.47c6.93-.82,13.7-3.5,20.75-2.96,7.44.56,13.01,3.48,20.75,1.24,3.35-.92,6.53-2.56,9.51-4.31,1.09-.64,2.38-1.42,3.46-2.08.72-.48,1.7-1.02,2.59-.87,3.73,0,7.51,0,11.24,0,35.16,0,70.33,0,105.49,0"/><path class="b" d="M9.1,152.67c8.28-2.37,16.19-6.93,25.07-4.91,6.5,1.6,12.29,3.25,19.02,1.49,3.28-.8,6.46-2.18,9.51-3.6,1.58-.65,3.51-.19,5.19-.32,11.52,0,23.06,0,34.59,0,26.8,0,53.61,0,80.41,0"/><path class="b" d="M9.1,148.5c2.61-1.1,5.23-2.41,7.78-3.62,1.64-.67,3.35-1.87,5.19-1.73,5.75,0,11.54,0,17.29,0,2.84.63,5.73,1.45,8.65,1.62,4.4.45,8.74-.61,12.97-1.62,6.62,0,13.27,0,19.89,0,8.93,0,17.88,0,26.8,0,1.42-.1,2.94.39,4.32.66,1.67.34,3.49.63,5.19.8,4.3.4,8.69.38,12.97-.21,1.42-.21,2.98-.65,4.32-1.16,1.07-.16,2.38-.08,3.46-.1,14.98,0,29.98,0,44.96,0"/><path class="b" d="M9.1,144.09c1.71-.92,3.51-1.98,5.19-2.95,1.07-.29,2.36-.14,3.46-.17,1.98,0,4.07,0,6.05,0,6.62,0,13.27,0,19.89,0,19.88,0,39.78,0,59.66,0,1.45-.11,2.95.6,4.32.97,1.96.58,4.05,1.14,6.05,1.56,6.76,1.2,14.06,2.11,20.75.15,2.06-.65,4.15-1.61,6.05-2.63,4.59-.13,9.24-.01,13.83-.05,9.5,0,19.03,0,28.53,0"/><path class="b" d="M9.1,139.57c.96-.83,2.27-.82,3.46-.77,1.39,0,2.93,0,4.32,0,4.31,0,8.66,0,12.97,0,12.39,0,24.79,0,37.18,0,11.52,0,23.06,0,34.59,0,5.07,1.83,10.23,3.63,15.56,4.47,6.24,1.1,12.88,1.93,19.02-.08,3.31-1.04,6.48-2.67,9.51-4.34,1.97-.14,4.08-.03,6.05-.06,10.37,0,20.76,0,31.13,0"/><path class="b" d="M9.1,136.62c20.46,0,40.93,0,61.39,0,9.5,0,19.03,0,28.53,0,1.77.26,3.5,1.25,5.19,1.83,2.81,1.1,5.73,2.19,8.65,2.97,7.29,1.76,15.02,3.21,22.48,1.76,5.51-1.12,10.54-3.84,15.56-6.24,1.29-.59,2.94-.22,4.32-.31,2.27,0,4.65,0,6.92,0,6.91,0,13.85,0,20.75,0"/><path class="b" d="M9.1,134.45c19.88,0,39.78,0,59.66,0,6.62,0,13.27,0,19.89,0,3.15,0,6.37,0,9.51,0,1.42.47,2.94,1.18,4.32,1.76,10.21,4.75,21.52,8.02,32.86,6.37,8.24-1.03,15.46-5.55,23.35-7.82,1.03-.39,2.37-.3,3.46-.31,1.68,0,3.51,0,5.19,0,5.17,0,10.39,0,15.56,0"/><path class="b" d="M9.1,132.28c28.24,0,56.49,0,84.74,0,1.39.05,2.96-.13,4.32.14,3.2,1.34,6.36,2.95,9.51,4.39,4.43,1.99,9.09,3.68,13.83,4.74,2.84.28,5.8.04,8.65.12,2.56-.06,5.24.17,7.78-.2,6.59-.83,12.71-3.65,19.02-5.55,4.76-1.47,9.76-2.18,14.7-2.78,3.71-.52,7.48-1.12,11.24-.8"/><path class="b" d="M9.1,130.1c26.51,0,53.03,0,79.55,0,1.98,0,4.07,0,6.05,0,1.39.08,3.06-.28,4.32.43,4.94,2.25,9.66,5.08,14.7,7.1,1.37.59,2.92,1.23,4.32,1.74,1.67.22,3.51.06,5.19.11,7.48-.08,15.01.17,22.48-.1,4.06-.97,8.07-2.36,12.11-3.43,3.68-.99,7.49-1.7,11.24-2.32,4.59-.68,9.15-2.06,13.83-1.9"/><path class="b" d="M9.1,127.93c25.07,0,50.15,0,75.22,0,4.59,0,9.24,0,13.83,0,.86-.05,1.84.55,2.59.9,1.1.54,2.39,1.23,3.46,1.82,3.11,1.74,6.3,3.51,9.51,5.06,1.07.52,2.32,1.23,3.46,1.6,2.27,0,4.65,0,6.92,0,5.46,0,10.97,0,16.43,0,2.56,0,5.22,0,7.78,0,1.99-.03,4.14.21,6.05-.49,5.4-1.49,10.94-2.62,16.43-3.75,4-.86,7.99-2.13,12.11-2.26"/><path class="b" d="M9.1,125.76c24.78,0,49.58,0,74.36,0,4.02,0,8.09,0,12.11,0,1.39,0,2.94,0,4.32,0,1.8.6,3.54,1.74,5.19,2.65,2.55,1.52,5.19,3.1,7.78,4.54,1.39.69,2.78,1.9,4.32,2.2,7.19,0,14.42,0,21.62,0,6.91,0,13.85.02,20.75-.01,4.01-.99,8.11-1.87,12.11-2.91,3.69-1.01,7.41-2.23,11.24-2.61"/><path class="b" d="M9.1,123.59c24.78,0,49.58,0,74.36,0,4.31,0,8.66,0,12.97,0,1.68,0,3.5,0,5.19,0,1.48.56,2.97,1.54,4.32,2.33,3.77,2.27,7.44,4.85,11.24,7.06,7.77,0,15.57,0,23.35,0,8.35-.08,16.74.16,25.07-.09,5.82-1.35,11.4-3.72,17.29-4.72"/><path class="b" d="M9.1,121.41c25.07,0,50.15,0,75.22,0,4.31,0,8.66,0,12.97,0,1.98,0,4.07,0,6.05,0,1.21.28,2.4,1.2,3.46,1.81,2.3,1.47,4.69,3.06,6.92,4.65.77.56,1.83,1.34,2.59,1.9.66.55,1.69,1.21,2.59,1.03,4.59,0,9.24,0,13.83,0,5.75,0,11.54,0,17.29,0,6.33-.05,12.7.1,19.02-.06,4.61-1.36,9.11-3.26,13.83-4.21"/><path class="b" d="M9.1,119.24c17.87,0,35.74,0,53.61,0,8.06,0,16.15,0,24.21,0,6.04,0,12.12,0,18.16,0,.49-.07,1.35.26,1.73.59.77.48,1.84,1.16,2.59,1.67,3.34,2.1,6.31,4.86,9.51,7.13,12.39,0,24.79,0,37.18,0,4.88,0,9.82,0,14.7,0,4.04-1.19,7.98-2.94,12.11-3.87"/><path class="b" d="M9.1,117.07c26.24-.04,52.47.08,78.68,0,4.59,0,9.24,0,13.83,0,1.98,0,4.07,0,6.05,0,1.21.41,2.4,1.39,3.46,2.07,2.11,1.42,4.14,3.2,6.05,4.87.76.67,1.82,1.57,2.59,2.23.74.28,1.82.22,2.59.22,3.73,0,7.51,0,11.24,0,6.04,0,12.12,0,18.16,0,6.9-.06,13.85.12,20.75-.07,3.41-1.22,6.87-2.55,10.38-3.47"/><path class="b" d="M9.1,114.89c11.52,0,23.06,0,34.59,0,5.46,0,10.97,0,16.43,0,.81-.08,1.87.16,2.59.53,1.05.4,2.35.77,3.46.96,3.49.63,7.09-.17,10.38-1.35,2.54-.32,5.22-.05,7.78-.14,8.35,0,16.73,0,25.07,0,0,0,.86.08.86.08,0,0,.86.57.86.57.78.53,1.85,1.27,2.59,1.86,2.69,2.12,5.15,4.69,7.78,6.88,11.81,0,23.64,0,35.45,0,5.46-.04,10.97.08,16.43-.05,3.12-1.12,6.31-2.31,9.51-3.19"/><path class="b" d="M9.1,112.72c11.23,0,22.49,0,33.72,0,5.17,0,10.39,0,15.56,0,1.88,1.12,3.93,2.24,6.05,2.83,4.02,1.25,8.32.29,12.11-1.29,1.1-.44,2.39-1.02,3.46-1.52,2.27-.03,4.65,0,6.92-.01,4.59,0,9.24,0,13.83,0,3.73,0,7.51,0,11.24,0,4.35,2.24,7.34,6.52,11.24,9.39,11.52,0,23.06,0,34.59,0,5.46-.09,10.98.17,16.43-.11,2.84-.98,5.75-2.02,8.65-2.84"/><path class="b" d="M9.1,110.55h46.69c9.71,7.02,14.78,6.65,25.07.94.43-.24,1.29-.72,1.73-.94,1.08,0,2.37,0,3.46,0,2.56,0,5.22,0,7.78,0,6.62,0,13.27,0,19.89,0,1.34.2,2.42,1.54,3.46,2.32,2.65,2.22,5,5,7.78,7.06,11.23,0,22.49,0,33.72,0,5.17,0,10.39,0,15.56,0,2.9-.7,5.76-1.86,8.65-2.64"/><path class="b" d="M9.1,108.37c10.66,0,21.34,0,31.99,0,2.86,0,5.79,0,8.65,0,1.39.05,2.96-.15,4.32.17.43.37,1.29,1.09,1.73,1.44,2.1,1.7,4.42,3.35,6.92,4.43,3.85,1.79,8.31,1.28,12.11-.38,2.39-.99,4.73-2.37,6.92-3.75.77-.49,1.83-1.17,2.59-1.68.74-.3,1.82-.23,2.59-.23,9.79.07,19.62-.13,29.4.08,3.62,2.86,6.82,6.34,10.38,9.28,10.94.09,21.91,0,32.86.03,5.17,0,10.39,0,15.56,0,2.56-.75,5.21-1.55,7.78-2.28"/><path class="b" d="M9.1,106.2c11.52,0,23.06,0,34.59,0,2.56,0,5.22,0,7.78,0,1.35.38,2.37,1.84,3.46,2.65,2.11,1.82,4.42,3.64,6.92,4.89,4.33,2.38,9.56,1.7,13.83-.46,2.73-1.31,5.33-3.08,7.78-4.84,1.33-.8,2.64-2.45,4.32-2.25,10.08,0,20.18,0,30.26,0,3.61,2.8,6.74,6.3,10.38,9.06.73.41,1.79.33,2.59.32,1.39,0,2.94,0,4.32,0,6.62,0,13.27,0,19.89,0,6.33,0,12.69,0,19.02,0,1.12.09,2.4-.17,3.46-.51,1.68-.45,3.5-.93,5.19-1.37"/><path class="b" d="M9.1,104.03c11.23,0,22.49,0,33.72,0,2.27,0,4.65,0,6.92,0,1.39.32,2.37,1.9,3.46,2.76,2.14,1.99,4.44,4.03,6.92,5.6.42.26,1.29.76,1.73.98.43.04,1.3.07,1.73.05,1.39,0,2.94,0,4.32,0,1.68,0,3.5,0,5.19,0,1.2.15,2.45-.44,3.46-1.02,2.73-1.48,5.33-3.4,7.78-5.3,1.39-.96,2.73-2.45,4.32-3.07,10.37,0,20.76,0,31.13,0,3.97,2.71,7.12,6.66,11.24,9.21,2.23.41,4.65.08,6.92.18,3.73,0,7.51,0,11.24,0,6.33,0,12.69,0,19.02,0,2.85-.03,5.79.07,8.65-.05,1.97-.48,4.07-.97,6.05-1.43"/><path class="b" d="M9.1,101.85c13.25.03,26.52-.05,39.77.03,3.32,3.21,6.58,6.67,10.38,9.32,4.01.1,8.09,0,12.11.04,1.98,0,4.07,0,6.05,0,.81-.42,1.84-1.11,2.59-1.62,2.37-1.65,4.7-3.57,6.92-5.41,1.08-.75,2.11-2.15,3.46-2.36,9.21,0,18.45,0,27.67,0,1.08,0,2.38,0,3.46,0,.96.22,1.86,1.21,2.59,1.8,2.5,2.13,5.02,4.44,7.78,6.23.73.47,1.72,1.17,2.59,1.36.42,0,1.3,0,1.73,0,1.98,0,4.07,0,6.05,0,8.06,0,16.15,0,24.21,0,3.73,0,7.52,0,11.24,0,1.68-.34,3.51-.72,5.19-1.07"/><path class="b" d="M9.1,99.68c11.52,0,23.06,0,34.59,0,1.39.11,3.05-.3,4.32.36.43.42,1.31,1.28,1.73,1.71,2.49,2.47,5.04,5.07,7.78,7.26,7.19.17,14.42,0,21.62.06,1.6-.52,2.97-1.95,4.32-2.92,2.62-2.07,5.15-4.43,7.78-6.47,6.91,0,13.85,0,20.75,0,4.01.09,8.11-.19,12.11.12,4.07,3.35,8.19,6.83,12.97,9.15,4.86.29,9.82.02,14.7.11,6.33,0,12.69,0,19.02,0,4.03-.07,8.15.33,12.11-.64"/><path class="b" d="M9.1,97.51c11.52,0,23.06,0,34.59,0,.77,0,1.83,0,2.59,0,1.38.48,2.39,2.02,3.46,2.95,2.23,2.15,4.42,4.6,6.92,6.44h24.21c2.77-1.75,5.27-4.1,7.78-6.2.77-.66,1.82-1.56,2.59-2.22.62-.7,1.67-1.11,2.59-.97,10.66,0,21.34,0,31.99,0,3.39,2.42,6.67,5.14,10.38,7.09,1.64.81,3.37,1.96,5.19,2.3,3.15,0,6.37,0,9.51,0,6.91,0,13.85,0,20.75,0,3.72-.1,7.54.23,11.24-.17"/><path class="b" d="M9.1,95.33c12.39.03,24.79-.05,37.18.03,2.31,2.18,4.62,4.57,6.92,6.77.77.72,1.8,1.68,2.59,2.37.77.29,1.8.22,2.59.22,5.17,0,10.39,0,15.56,0,1.69,0,3.5,0,5.19,0,1.11-.07,2.51.27,3.46-.46,2.66-1.98,5.26-4.21,7.78-6.35,1.07-.82,2.17-2.09,3.46-2.57.77,0,1.82,0,2.59,0,4.31,0,8.66,0,12.97,0,6.04,0,12.12,0,18.16,0,1.82.85,3.45,2.36,5.19,3.37,2.73,1.73,5.67,3.32,8.65,4.6,1.06.46,2.36.96,3.46,1.34,1.07.13,2.38.07,3.46.08,2.85,0,5.79,0,8.65,0,8.64,0,17.3,0,25.94,0"/><path class="b" d="M9.1,93.16c10.66,0,21.34,0,31.99,0,1.68.1,3.56-.24,5.19.23,2.31,2.15,4.62,4.51,6.92,6.67,1.05.8,2.06,2.38,3.46,2.49,2.85,0,5.79,0,8.65,0,5.75-.05,11.55.11,17.29-.06,2.66-1.88,5.27-4.03,7.78-6.11.78-.63,1.82-1.5,2.59-2.13.68-.61,1.64-1.26,2.59-1.09,10.66,0,21.34,0,31.99,0,.43,0,1.3,0,1.73,0,.47.17,1.33.65,1.73.94,1.36.87,2.91,1.78,4.32,2.56,4.38,2.39,9.02,4.47,13.83,5.79,11.22.26,22.49,0,33.72.09"/><path class="b" d="M9.1,90.99h36.32c3.51,3.01,6.61,6.7,10.38,9.39,6.04,0,12.12,0,18.16,0,1.98,0,4.07,0,6.05,0,1.11-.06,2.48.24,3.46-.41,2.65-1.86,5.26-3.96,7.78-5.98.77-.62,1.82-1.46,2.59-2.06.65-.64,1.67-1.08,2.59-.94,10.95,0,21.91,0,32.86,0,.43,0,1.3.01,1.73.05.42.26,1.3.75,1.73,1,1.07.6,2.37,1.29,3.46,1.86,4.16,2.13,8.5,4.08,12.97,5.47,1.37.37,2.89.98,4.32,1.01,2.85,0,5.79,0,8.65,0,6.91,0,13.85,0,20.75,0"/><path class="b" d="M9.1,88.82c11.81.07,23.65-.14,35.45.08,3.5,3.01,6.77,6.43,10.38,9.31,9.21,0,18.45,0,27.67,0,1.92-.61,3.53-2.28,5.19-3.39,2.58-1.95,5.19-4.05,7.78-5.98,11.23-.06,22.49,0,33.72-.02.77,0,1.82,0,2.59,0,1.69.84,3.49,1.8,5.19,2.62,3.93,1.91,7.97,3.74,12.11,5.17,1.66.57,3.48,1.12,5.19,1.55,3.14.13,6.37.02,9.51.05,6.33,0,12.69,0,19.02,0"/><path class="b" d="M9.1,86.64c10.95,0,21.91,0,32.86,0,.94-.18,1.96.5,2.59,1.13.78.67,1.83,1.6,2.59,2.29,2.24,1.99,4.5,4.19,6.92,5.97,6.33,0,12.69,0,19.02,0,1.98,0,4.07,0,6.05,0,1.39-.09,3.01.25,4.32-.29,2.95-1.93,5.83-4.12,8.65-6.24.77-.58,1.82-1.36,2.59-1.93.67-.59,1.69-1.07,2.59-.92,10.95,0,21.91,0,32.86,0,.77,0,1.83-.04,2.59.12,1.67.83,3.5,1.7,5.19,2.5,4.24,1.99,8.55,3.97,12.97,5.52,1.37.45,2.9,1.03,4.32,1.25,2.85,0,5.79,0,8.65,0,6.33,0,12.69,0,19.02,0"/><path class="b" d="M9.1,84.47c9.21,0,18.45,0,27.67,0,1.68.09,3.55-.23,5.19.22,3.56,2.73,6.85,5.92,10.38,8.7.95.74,2.34.41,3.46.47,1.69,0,3.5,0,5.19,0,7.19,0,14.42,0,21.62,0,3.62-2.06,6.97-4.72,10.38-7.12,1.07-.73,2.26-1.76,3.46-2.26,3.15,0,6.37,0,9.51,0,6.62,0,13.27,0,19.89,0,2.27.03,4.65-.06,6.92.05,4.57,2.16,9.21,4.32,13.83,6.36,2.52,1.09,5.17,2.14,7.78,2.97,1.08,0,2.38,0,3.46,0,8.35,0,16.73,0,25.07,0"/><path class="b" d="M9.1,82.3c8.35,0,16.73,0,25.07,0,1.97.1,4.12-.24,6.05.21,3.91,2.72,7.43,6.06,11.24,8.92,1.04.43,2.36.22,3.46.26,1.69,0,3.5,0,5.19,0,7.19,0,14.42,0,21.62,0,1.87-.59,3.52-2.05,5.19-3.05,2.58-1.74,5.21-3.61,7.78-5.36.4-.3,1.26-.81,1.73-.98.77,0,1.82,0,2.59,0,2.27,0,4.65,0,6.92,0,6.62,0,13.27,0,19.89,0,2.27.09,4.68-.2,6.92.15,4.58,2.16,9.25,4.27,13.83,6.42,2.24.99,4.57,2.1,6.92,2.82,1.08,0,2.38,0,3.46,0,8.64,0,17.3,0,25.94,0"/><path class="b" d="M9.1,80.12c9.5,0,19.03,0,28.53,0,1.89.66,3.56,2.18,5.19,3.32,2.57,1.96,5.14,4.12,7.78,5.99,6.32.22,12.7.01,19.02.08,2.56,0,5.22,0,7.78,0,1.39-.09,3.01.25,4.32-.29,3.23-1.86,6.41-3.98,9.51-6.04,1.08-.72,2.37-1.57,3.46-2.27.68-.54,1.72-.91,2.59-.79,10.95,0,21.91,0,32.86,0,1.19-.16,2.44.38,3.46.93,1.08.51,2.37,1.12,3.46,1.6,4.36,1.86,8.65,4.03,12.97,5.98.41.19,1.31.57,1.73.75,1.07.22,2.38.11,3.46.13,2.27,0,4.65,0,6.92,0,6.91,0,13.85,0,20.75,0"/><path class="b" d="M9.1,77.95c8.93,0,17.88,0,26.8,0,4.98,2.53,9.18,6.36,13.83,9.39,6.62,0,13.27,0,19.89,0,2.27,0,4.64,0,6.92,0,1.39-.12,3.12.36,4.32-.49,3.23-1.76,6.4-3.77,9.51-5.74,1.08-.68,2.37-1.49,3.46-2.16.75-.43,1.67-1.2,2.59-1.01,10.66,0,21.34,0,31.99,0,.43,0,1.3.01,1.73.04.42.21,1.3.62,1.73.83,1.38.66,2.93,1.39,4.32,2.03,4.3,1.91,8.68,3.81,12.97,5.76,1.54.97,3.45.7,5.19.72,2.27,0,4.65,0,6.92,0,7.19,0,14.42,0,21.62,0"/><path class="b" d="M9.1,75.78c8.35,0,16.73,0,25.07,0,5.17,2.65,9.79,6.3,14.7,9.39,6.62,0,13.27,0,19.89,0,2.27,0,4.64,0,6.92,0,1.11-.06,2.49.25,3.46-.42,3.52-1.79,6.98-3.86,10.38-5.88,1.08-.64,2.37-1.41,3.46-2.04.76-.4,1.68-1.14,2.59-1.05,10.37,0,20.76,0,31.13,0,1.21-.16,2.41.72,3.46,1.2,1.38.68,2.93,1.44,4.32,2.1,4.25,2.01,8.64,3.85,12.97,5.68,1.55.76,3.51.29,5.19.41,2.56,0,5.22,0,7.78,0,7.48,0,15,0,22.48,0"/><path class="b" d="M9.1,73.6c8.06.02,16.15-.04,24.21.02,2.96,2.27,6.46,3.85,9.51,5.99,1.08.7,2.36,1.54,3.46,2.21.77.43,1.69,1.13,2.59,1.17,1.39,0,2.93,0,4.32,0,5.17,0,10.39,0,15.56,0,2.27,0,4.64,0,6.92,0,1.18-.14,2.39-.93,3.46-1.41,3.2-1.59,6.39-3.39,9.51-5.14,1.08-.6,2.37-1.32,3.46-1.91.76-.38,1.7-1.09,2.59-.93,4.31,0,8.66,0,12.97,0,5.75,0,11.54,0,17.29,0,5.38,2.84,10.82,5.68,16.43,8.07,1.07.44,2.31,1.11,3.46,1.32,1.08,0,2.38,0,3.46,0,2.85,0,5.79,0,8.65,0,8.64,0,17.3,0,25.94,0"/><path class="b" d="M9.1,71.43h23.35c2.86,2.41,6.36,3.96,9.51,5.94,1.94,1.18,4.01,2.4,6.05,3.39,1.39.11,2.93.04,4.32.06,4.88,0,9.81,0,14.7,0,1.98,0,4.07,0,6.05,0,1.17-.14,2.39-.85,3.46-1.29,3.5-1.59,6.97-3.42,10.38-5.2,1.97-.95,3.96-2.26,6.05-2.9,4.31,0,8.66,0,12.97,0,5.17,0,10.39,0,15.56,0,.89.02,1.85.72,2.59,1.13,1.08.63,2.37,1.39,3.46,2.02,3.36,1.93,6.87,3.74,10.38,5.39.42.2,1.31.6,1.73.79,1.68.11,3.51.03,5.19.05,3.15,0,6.37,0,9.51,0,9.5,0,19.03,0,28.53,0"/><path class="b" d="M9.1,69.26c6.91,0,13.85,0,20.75,0,.46,0,1.28,0,1.73,0,1.51.73,2.85,2.09,4.32,2.89,3.45,1.8,6.88,3.81,10.38,5.54.45.21,1.28.61,1.73.8,1.07.26,2.37.13,3.46.15,2.56,0,5.22,0,7.78,0,3.73-.04,7.52.08,11.24-.05,1.71-.61,3.52-1.35,5.19-2.08,4.07-1.78,8.09-3.82,12.11-5.74,1.08-.5,2.33-1.15,3.46-1.52,1.68,0,3.5,0,5.19,0,4.88,0,9.82,0,14.7,0,1.68,0,3.5,0,5.19,0,1.1.06,2.49-.25,3.46.42,4.89,2.87,9.62,6.14,14.7,8.7.72.34,1.82.27,2.59.27,1.38,0,2.94,0,4.32,0,13.83,0,27.67,0,41.5,0"/><path class="b" d="M9.1,67.08c7.48.02,15-.04,22.48.02,3.04,2.67,6.8,4.31,10.38,6.12,1.66.84,3.46,1.74,5.19,2.45,1.05.47,2.29.91,3.46.79,3.73,0,7.51,0,11.24,0,1.39,0,2.94,0,4.32,0,1.12-.19,2.38-.67,3.46-1.03,6.81-2.3,13.14-5.95,19.89-8.36,3.73,0,7.51,0,11.24,0,4.88,0,9.82,0,14.7,0,1.87.45,3.54,1.89,5.19,2.84,3.15,2.06,6.27,4.33,9.51,6.24.72.39,1.81.31,2.59.31,1.38,0,2.94,0,4.32,0,4.02,0,8.09,0,12.11,0,11.23,0,22.49,0,33.72,0"/><path class="b" d="M9.1,64.91c6.91,0,13.85,0,20.75,0,.91-.09,1.95.13,2.59.8,1.05.78,2.31,1.65,3.46,2.28,3.99,1.83,7.95,3.94,12.11,5.4,2.78,1.16,5.71.89,8.65.9,1.68-.04,3.51.11,5.19-.1,1.71-.35,3.53-.85,5.19-1.39,6.78-2.21,13.23-5.36,19.89-7.9,7.19,0,14.42,0,21.62,0,1.38,0,2.94,0,4.32,0,2.69,1.4,5.31,3.15,7.78,4.9,1.98,1.4,4.06,2.93,6.05,4.31,1.36.31,2.94.11,4.32.16,17.29,0,34.59,0,51.88,0"/><path class="b" d="M9.1,62.74c6.62,0,13.27,0,19.89,0,.79,0,1.82-.04,2.59.13,1.59,1.18,3.38,2.36,5.19,3.18,11.98,5.37,17.19,7.73,30.26,3.22,5.54-1.88,10.94-4.25,16.43-6.24,1.02-.49,2.36-.25,3.46-.3,1.39,0,2.94,0,4.32,0,4.88,0,9.82,0,14.7,0,1.08,0,2.38,0,3.46,0,1.54.32,2.98,1.45,4.32,2.21,2.35,1.48,4.69,3.19,6.92,4.86,1.07.74,2.22,1.87,3.46,2.32,19.59,0,39.2,0,58.8,0"/><path class="b" d="M9.1,60.56h22.48c3.32,2.59,7.41,3.84,11.24,5.45,6.6,2.86,13.02,3.2,19.89,1.1,6.46-1.76,12.58-4.78,19.02-6.55,4.31,0,8.66,0,12.97,0,4.02,0,8.09,0,12.11,0,4.72,2.12,8.85,5.46,12.97,8.55.84.97,2.29.87,3.46.84,1.68,0,3.5,0,5.19,0,4.59,0,9.24,0,13.83,0,13.54,0,27.1,0,40.64,0"/><path class="b" d="M9.1,58.39c7.19,0,14.42,0,21.62,0,.91-.15,1.9.38,2.59.91.76.48,1.78,1.07,2.59,1.44,3.99,1.4,7.96,3.14,12.11,4.08,9.28,2.06,18.19-2.5,26.8-5.32,1.08-.36,2.36-.82,3.46-1.11,2.56,0,5.22,0,7.78,0,5.46,0,10.97,0,16.43,0,.43,0,1.3,0,1.73.02.78.38,1.84.93,2.59,1.36,2.37,1.36,4.72,2.98,6.92,4.6,1.4,1.03,2.95,2.22,4.32,3.29,1.07.2,2.38.1,3.46.12,20.46,0,40.93,0,61.39,0"/><path class="b" d="M9.1,56.22h23.35c2.54,1.92,5.66,2.83,8.65,3.77,4.69,1.65,9.72,2.84,14.7,2,4.45-.67,8.73-2.28,12.97-3.73,1.39-.48,2.93-1.01,4.32-1.46,1.06-.42,2.32-.68,3.46-.58,5.46,0,10.97,0,16.43,0,1.98,0,4.07,0,6.05,0,1.11.03,2.49-.18,3.46.49,4.64,2.36,8.84,5.58,12.97,8.73,2.24.37,4.65.07,6.92.17,4.31,0,8.66,0,12.97,0,15.85,0,31.71,0,47.56,0"/><path class="b" d="M9.1,54.05c7.48,0,15,0,22.48,0,1.93-.24,3.4,1.45,5.19,1.97,4.21,1.4,8.52,2.89,12.97,3.21,5.35.4,10.57-1.33,15.56-3.03,1.97-.67,4.06-1.38,6.05-2,1.07-.24,2.37-.12,3.46-.14,5.17,0,10.39,0,15.56,0,1.98,0,4.07,0,6.05,0,1.11,0,2.48-.13,3.46.52,4.63,2.32,8.84,5.49,12.97,8.58,1.02.46,2.37.23,3.46.28,1.38,0,2.94,0,4.32,0,4.3,0,8.66,0,12.97,0,16.42,0,32.86,0,49.29,0"/><path class="b" d="M9.1,51.87c7.77,0,15.57,0,23.35,0,.87-.12,1.88.3,2.59.77.76.39,1.78.84,2.59,1.09,3.89,1.36,7.94,2.67,12.11,2.75,6,.22,11.69-2.09,17.29-3.91,2.44-1.05,5.2-.61,7.78-.69,4.88,0,9.82,0,14.7,0,1.68,0,3.5,0,5.19,0,1.2-.15,2.44.44,3.46,1,4.28,2.21,8.23,5.11,12.11,7.96.96.68,2.35.37,3.46.43,1.38,0,2.94,0,4.32,0,4.88,0,9.82,0,14.7,0,16.71,0,33.44,0,50.15,0"/><path class="b" d="M9.1,52.17c2.34-3.23,2.39-2.37,6.05-2.47,2.86,0,5.79,0,8.65,0,3.44,0,6.94,0,10.38,0,2.8,1.2,5.71,2.36,8.65,3.21,5.06,1.62,10.54,1.22,15.56-.33,2.88-.83,5.78-1.89,8.65-2.78,5.74-.27,11.55-.02,17.29-.1,2.85,0,5.79,0,8.65,0,5.71,2.09,10.59,5.99,15.56,9.39h74.36"/><path class="b" d="M9.1,53.2c1.33-1.8,2.85-3.78,4.32-5.46,1.06-.34,2.36-.17,3.46-.21,1.39,0,2.93,0,4.32,0,4.31,0,8.66,0,12.97,0,1.19-.15,2.38.65,3.46,1.02,2.24.88,4.58,1.83,6.92,2.43,3.37.9,6.99.89,10.38.11,4.12-.81,8.01-2.75,12.11-3.57,2.56,0,5.22,0,7.78,0,4.88,0,9.82,0,14.7,0,3.09.65,5.92,2.54,8.65,4.07,1.72,1.05,3.53,2.26,5.19,3.39,1.31.85,2.62,2.22,4.32,1.92,8.06,0,16.15,0,24.21,0,17,0,34.01,0,51.01,0"/><path class="b" d="M9.1,54.44c2.18-3.01,4.4-6.21,6.92-8.95,2.25-.31,4.65-.06,6.92-.13,4.31,0,8.66,0,12.97,0,6.82,2.44,11.33,5.44,19.02,3.68,4.11-.89,8.06-2.56,12.11-3.67,2.27-.04,4.65,0,6.92-.02,4.02,0,8.09,0,12.11,0,5.67,1.47,10.7,4.83,15.56,7.98.75.47,1.7,1.26,2.59,1.41.77,0,1.83,0,2.59,0,1.98,0,4.07,0,6.05,0,6.04,0,12.12,0,18.16,0,17.29,0,34.59,0,51.88,0"/><path class="b" d="M9.1,52.57c2.89.28,2.79-.89,4.32-2.86,1.56-2.17,3.31-4.48,5.19-6.39,3.12-.34,6.37-.05,9.51-.14,3.14.11,6.4-.24,9.51.16,5.54,2.57,11.02,5.26,17.29,3.88,6.11-1.07,11.83-4.5,18.16-4.04,2.85.05,5.8-.11,8.65.08,6.94,1.44,13.11,5.21,19.02,8.97,1.28.63,2.94.24,4.32.34,1.98,0,4.07,0,6.05,0,6.04,0,12.12,0,18.16,0,17.87,0,35.74,0,53.61,0"/><path class="b" d="M9.1,50.39h4.32c1.1-.56,1.86-2.11,2.59-3.04,1.53-2.12,3.27-4.36,5.19-6.15,2.51-.46,5.23-.08,7.78-.2,3.14.09,6.39-.18,9.51.13,4.87,2.34,9.96,5.21,15.56,4.54,6.17-.66,11.93-3.6,18.16-3.99,6.29-.55,12.57,1.27,18.16,4.05,2.02.99,4.11,2.16,6.05,3.3,1.03.56,2.21,1.55,3.46,1.37,27.67,0,55.34,0,83.01,0"/><path class="b" d="M9.1,48.22h6.92c1.92-1.91,3.32-4.57,5.19-6.55,1.01-.97,2.01-2.55,3.46-2.84,2.27,0,4.64,0,6.92,0,2.27,0,4.64,0,6.92,0,1.84.22,3.51,1.58,5.19,2.3,2.43,1.24,5.06,2.35,7.78,2.73,4.69.68,9.32-.92,13.83-1.97,5.36-1.35,11.08-1.53,16.43-.01,3.28.88,6.48,2.25,9.51,3.78,1.71.77,3.4,2,5.19,2.56,2.86,0,5.79,0,8.65,0,25.94,0,51.88,0,77.82,0"/><path class="b" d="M9.1,46.05h9.51c2.3-3.2,4.61-6.67,7.78-9.08,1.3-.57,2.94-.21,4.32-.31,2.27,0,4.64,0,6.92,0,.79,0,1.82-.03,2.59.11,1.42.68,2.94,1.53,4.32,2.27,2.68,1.46,5.59,2.79,8.65,3.2,4.36.6,8.71-.64,12.97-1.4,3.97-.75,8.12-.96,12.11-.25,3.26.56,6.48,1.64,9.51,2.94,1.1.47,2.38,1.06,3.46,1.57.76.35,1.73.97,2.59.96,2.86,0,5.79,0,8.65,0,26.8,0,53.61,0,80.41,0"/><path class="b" d="M9.1,43.87c2.57,0,5.22,0,7.78,0,1.09,0,2.37,0,3.46,0,.7-.17,1.38-1.15,1.73-1.71,1.99-2.59,4.61-6.57,7.78-7.68,3.44,0,6.94,0,10.38,0,.89-.07,1.84.55,2.59.93,1.4.75,2.92,1.64,4.32,2.39,5.72,3.29,10.94,3.47,17.29,2.4,4.27-.64,8.68-1.01,12.97-.32,4.18.63,8.24,2.08,12.11,3.74,1.91.53,4.08.13,6.05.24,12.96,0,25.95,0,38.91,0,8.06-.07,16.16.2,24.21-.22,2.86-.12,5.79.1,8.65.22,5.17,0,10.39,0,15.56,0"/><path class="b" d="M9.1,41.7h13.83c2.43-3.4,4.97-7.11,8.65-9.26,3.41-.32,6.94-.04,10.38-.13,6.23,2.91,10.78,7.01,18.16,6.97,3.73.06,7.51-.5,11.24-.47,4.7-.03,9.4.91,13.83,2.42,1.04.47,2.34.52,3.46.47,1.39,0,2.94,0,4.32,0,4.02,0,8.09,0,12.11,0,8.93,0,17.88,0,26.8,0,2.85-.3,5.78-.7,8.65-.96,5.16-.61,10.36-1.4,15.56-1.53,5.51-.17,11.08.49,16.43,1.8,1.08.22,2.34.73,3.46.69,2.27,0,4.65,0,6.92,0"/><path class="b" d="M9.1,39.53h15.56c2.3-2.65,6.49-9.43,10.38-9.39,2.57,0,5.22,0,7.78,0,1.54.19,2.98,1.3,4.32,2.01,9.61,6.13,13.36,5.67,24.21,5.76,3.79.08,7.56.8,11.24,1.62,1.98,0,4.07,0,6.05,0,8.93,0,17.88,0,26.8,0,3.73,0,7.51,0,11.24,0,2.51-.84,5.16-1.57,7.78-1.96,9.99-1.49,20.16-3.52,30.26-1.79,3.51.55,7.02,1.51,10.38,2.67,1.08.34,2.33.93,3.46,1.09,1.38,0,2.94,0,4.32,0"/><path class="b" d="M9.1,37.35h17.29c2.21-2.85,6.47-9.31,10.38-9.39,2.57,0,5.22,0,7.78,0,1.86.37,3.54,1.72,5.19,2.62,6.83,4.45,11.85,5.66,19.89,6.01,2.58.12,5.22.54,7.78.75,4.59,0,9.24,0,13.83,0,10.66,0,21.34,0,31.99,0,2-.62,4.02-1.59,6.05-2.11,2.23-.65,4.64-1.04,6.92-1.49,10.48-2.24,21.5-3.41,31.99-.62,2.62.66,5.27,1.56,7.78,2.56,1.39.5,2.88,1.33,4.32,1.66.75,0,1.84,0,2.59,0"/><path class="b" d="M9.1,35.18c5.75,0,11.54,0,17.29,0,1.74.34,2.52-1.77,3.46-2.83,1.25-1.62,2.74-3.33,4.32-4.62,2.89-2.52,3.38-1.87,6.92-1.93,1.39,0,2.93,0,4.32,0,.84-.04,1.9-.02,2.59.51,4.5,2.55,8.79,5.75,13.83,7.16,3.07.9,6.33,1.37,9.51,1.73,1.98,0,4.07,0,6.05,0,4.88,0,9.82,0,14.7,0,6.62,0,13.27,0,19.89,0,3.14-.08,6.39.17,9.51-.12,1.36-.65,2.91-1.32,4.32-1.84,3.34-1.24,6.93-1.86,10.38-2.69,9.86-2.42,20.31-3.18,30.26-.81,3.54.83,7.04,2.06,10.38,3.49,1.39.6,2.95,1.31,4.32,1.97.39,0,1.33,0,1.73,0"/><path class="b" d="M9.1,33.01c4.31,0,8.66,0,12.97,0,1.39,0,2.94,0,4.32,0,.8,0,1.87.09,2.59-.34,2.41-3.36,5.16-6.69,8.65-8.99,3.72-.16,7.52-.02,11.24-.06.89.11,1.85.8,2.59,1.24,1.4.86,2.92,1.86,4.32,2.72,2.95,1.82,6.17,3.36,9.51,4.32,1.37.4,2.92.77,4.32,1.06,2.56.12,5.22.02,7.78.05,5.46,0,10.97,0,16.43,0,5.75,0,11.54,0,17.29,0,1.98,0,4.07,0,6.05,0,.77,0,1.83.03,2.59-.08.42-.21,1.3-.62,1.73-.81,3.81-1.88,8.03-2.74,12.11-3.81,7.84-2.24,16.06-3.44,24.21-2.72,5.31.42,10.59,1.64,15.56,3.52,2.01.76,4.11,1.66,6.05,2.57,1.07.43,2.27,1.32,3.46,1.34"/><path class="b" d="M9.1,30.84h19.89c2.16-2.03,3.78-4.82,6.05-6.77,1.26-.99,2.54-2.83,4.32-2.62,2.86,0,5.79,0,8.65,0,3.91-.05,3.69-.25,6.92,1.95,4.99,3.29,10.46,6.48,16.43,7.43,8.06,0,16.15,0,24.21,0,7.48,0,15,0,22.48,0,2.33-.71,4.56-2.03,6.92-2.7,3.72-1.06,7.54-1.97,11.24-3.1,16.13-4.66,31.92-1.98,46.69,5.56"/><path class="b" d="M9.1,28.66h19.89c2.58-2.69,4.87-5.84,7.78-8.2.46-.38,1.16-1.01,1.73-1.19.46,0,1.28,0,1.73,0,3.15,0,6.36,0,9.51,0,1.39,0,2.93,0,4.32,0,.88.24,1.84.99,2.59,1.48,3.54,2.41,7.25,4.73,11.24,6.32,1.65.58,3.42,1.5,5.19,1.59,7.48,0,15,0,22.48,0,7.19,0,14.42,0,21.62,0,2.34-.56,4.57-1.89,6.92-2.48,4.02-1.12,8.14-2.1,12.11-3.44,15.82-5.04,31.98-1.86,46.69,5.04"/><path class="b" d="M9.1,26.49h19.89c1.35-1.08,2.33-2.96,3.46-4.26,1.44-1.87,3.36-3.54,5.19-5.02,4.29-.28,8.67-.03,12.97-.11,1.39,0,2.93,0,4.32,0,.45,0,1.28,0,1.73,0,.49.15,1.33.65,1.73.96,5.04,3.49,10.44,6.88,16.43,8.43,2.27,0,4.64,0,6.92,0,10.66,0,21.34,0,31.99,0,1.08,0,2.38,0,3.46,0,2.27-.73,4.59-1.69,6.92-2.27,2.54-.77,5.23-1.35,7.78-2.06,2.57-.79,5.18-1.79,7.78-2.48,14.47-4.16,29.67-.29,43.23,5.23"/><path class="b" d="M9.1,24.32c4.31,0,8.66,0,12.97,0,1.68,0,3.5,0,5.19,0,.79,0,1.86.08,2.59-.29,2.11-3.06,4.14-6.46,6.92-8.97,2.54-.32,5.22-.05,7.78-.14,4.59,0,9.24,0,13.83,0,.94-.19,1.88.56,2.59,1.07,1.37.96,2.91,2,4.32,2.89,3.24,2.04,6.77,3.76,10.38,5.04,1.59.67,3.51.3,5.19.39,8.35,0,16.73,0,25.08,0,2.86,0,5.79,0,8.65,0,1.08-.02,2.38.07,3.46-.1.76-.25,1.82-.58,2.59-.8,3.98-1.21,8.1-2.12,12.11-3.25,3.15-1.01,6.29-2.32,9.51-3.13,13.65-3.63,27.67.65,40.64,4.98"/><path class="b" d="M9.1,22.14h20.75c1.07-.72,1.87-2.32,2.59-3.35,1.29-1.95,2.75-4.14,4.32-5.87,2.82-.39,5.8-.06,8.65-.17,5.46,0,10.97,0,16.43,0,3.95,2.52,7.78,5.4,12.11,7.28,1.65.76,3.47,1.48,5.19,2.06.78.05,1.82.04,2.59.04,8.35,0,16.73,0,25.08,0,2.86,0,5.79,0,8.65,0,1.08,0,2.38,0,3.46,0,.77-.19,1.83-.48,2.59-.69,3.69-1.16,7.54-1.93,11.24-3.02,3.18-1.03,6.31-2.41,9.51-3.36,13.57-4.17,27.48.82,40.64,4.23"/><path class="b" d="M9.1,19.97h21.62c2.64-2.77,4.29-6.58,6.92-9.39,6.04,0,12.12,0,18.16,0,1.98,0,4.07,0,6.05,0,1.11.06,2.49-.25,3.46.42,4.03,2.97,8.34,5.71,12.97,7.64,1.07.45,2.36.94,3.46,1.32.78.02,1.82.01,2.59.01,8.06,0,16.15,0,24.21,0,2.85,0,5.79,0,8.65,0,1.71-.01,3.57.17,5.19-.49,3.11-.97,6.38-1.7,9.51-2.59,3.49-1.13,6.9-2.69,10.38-3.85,13.52-4.63,27.31,1.34,40.64,3.78"/><path class="b" d="M9.1,16.28c.43.35,1.3,1.07,1.73,1.43,6.9.23,13.85.01,20.75.08,1.04-.67,1.88-2.19,2.59-3.17,1.33-1.92,2.78-4.09,4.32-5.85,1.27-.68,2.93-.26,4.32-.37,1.98,0,4.07,0,6.05,0,4.02,0,8.09,0,12.11,0,1.98,0,4.07,0,6.05,0,.92.2,1.84,1.06,2.59,1.58,4.49,3.24,9.41,6.08,14.7,7.81,5.46,0,10.97,0,16.43,0,7.19-.05,14.43.09,21.62-.05,3.12-1,6.39-1.77,9.51-2.74,3.19-1.13,6.34-2.57,9.51-3.75,13.72-5.53,27.77,1.82,41.5,3.32"/></svg>