<?xml version="1.0" encoding="UTF-8"?><svg id="a" xmlns="http://www.w3.org/2000/svg" width="1920" height="2400" viewBox="0 0 192 240"><defs><style>.b{fill:none;stroke:#fff;stroke-miterlimit:10;stroke-width:.3px;}.c{stroke-width:0px;}</style></defs><rect class="c" x="0" width="192" height="240"/><path class="b" d="M8.72,230.45c2.31-.39,4.77-.15,6.95.74,3.16,0,6.39,0,9.55,0,22.87,0,45.74,0,68.61,0,2.24-2.27,4.77-4.44,6.95-6.77,2.64-3.03,5.29-6.88,9.55-7.54,2.62-.42,5.24.56,7.82.81,5.44.49,7.62-6.05,12.16-7.85,3.61-1.49,6.63,1.96,8.68,4.49,2.35,2.84,4.54,6.01,6.95,8.79,4.77,5.25,7.48,3.68,13.03.94,1.91-.73,4.11-.36,6.08-.13,7.9,1.43,12.44.14,18.24-5.47"/><path class="b" d="M8.72,229.69c1.96-.4,4.12-.57,6.08-.08.46.11,1.3.4,1.74.57,1.09.04,2.38.02,3.47.02,24.89-.01,49.8.03,74.69-.01,2.6-2.61,5.54-5.07,7.82-7.98,4.05-5.04,7.55-6.59,13.9-4.95,6.69,1.84,8.59-5.17,13.9-7.22,3.71-1.24,6.6,2.36,8.68,4.91,2.33,2.85,4.54,6.01,6.95,8.8,4.76,5.26,7.56,3.65,13.03.75,1.88-.81,4.1-.56,6.08-.39,7.99,1.16,12.34-.11,18.24-5.7"/><path class="b" d="M8.72,228.85c2.24-.54,4.67-.93,6.95-.44.8.17,1.83.53,2.61.79,1.39,0,2.95,0,4.34,0,24.31,0,48.64,0,72.95,0,2.09-1.77,4.25-3.73,6.08-5.77,2.75-3.51,6.46-7.22,11.29-6.77,2.29.11,4.65.88,6.95.52,4.44-.96,6.62-6.45,11.29-6.92,3.48-.05,5.82,3.25,7.82,5.67,2.85,3.43,5.32,7.43,8.68,10.39,4.06,3.42,7.47.71,11.29-1.39,1.85-.9,4.08-.78,6.08-.63,8.19,1.08,12.12.1,18.24-5.6"/><path class="b" d="M8.72,227.98c3.37-.98,7.08-1.6,10.42-.19,1.56.75,3.53.28,5.21.4,13.89,0,27.8,0,41.69,0,7.52,0,15.06,0,22.58,0,2.58,0,5.24,0,7.82,0,.96-.21,1.87-1.18,2.61-1.78,1.89-1.56,3.52-3.66,5.21-5.42,2.68-2.87,6.46-4.61,10.42-4.13,1.98.14,4.15.46,6.08-.17,2.31-.87,4.08-2.9,6.08-4.27,4.71-3.59,8.33-.19,11.29,3.67,3.1,3.77,5.82,8.13,9.55,11.32.61.6,1.76.89,2.61.78,1.08,0,2.39,0,3.47,0,1.92-.32,3.49-1.96,5.21-2.81,1.8-1.01,4.07-1.01,6.08-.85,8.44,1.14,11.78.67,18.24-5.28"/><path class="b" d="M8.72,227.11c4.44-1.36,8.63-2.39,13.03-.21.76.38,1.79.3,2.61.3,1.09,0,2.38,0,3.47,0,16.5,0,33.01,0,49.5,0,4.91,0,9.86,0,14.76,0,1.39,0,2.95,0,4.34,0,1.26.06,2.56.06,3.47-.97,4.03-3.68,7.06-8.48,13.03-9.08,2.27-.29,4.7.02,6.95-.46,4.08-.88,6.78-5.77,11.29-5.06,3.53.88,5.69,4.34,7.82,7.03,2.2,2.84,4.49,5.84,6.95,8.46,2.57.16,5.24.03,7.82.07,1.09-.03,2.4.11,3.47-.16.74-.54,1.78-1.24,2.61-1.64,1.88-.82,4.09-.74,6.08-.49,8.23,1.4,11.16.75,17.37-4.92"/><path class="b" d="M8.72,226.19c6.03-1.53,9.54-3.47,15.63-.14,2.84.34,5.82.05,8.68.14,22.58,0,45.16,0,67.74,0,1.57-1.14,2.87-2.92,4.34-4.19,2.41-2.24,5.41-4.03,8.68-4.58,2.28-.43,4.74-.43,6.95-1.18,3.43-1.23,6.45-5.03,10.42-3.77,3.95,1.57,6.15,5.71,8.68,8.88,1.37,1.55,2.62,3.67,4.34,4.83,4.91,0,9.86,0,14.76,0,1.58-.8,3.42-1.32,5.21-1.17,2.6.16,5.21.96,7.82,1.1,4.85.41,7.89-2.41,11.29-5.35"/><path class="b" d="M8.72,225.18c2.09.08,4.09-1.14,6.08-1.64,2.5-.78,5.3-1.06,7.82-.22,1.17.38,2.48,1.03,3.47,1.76,1.68.22,3.52.06,5.21.1,15.63,0,31.27,0,46.9,0,5.49,0,11.01,0,16.5,0,1.69,0,3.52,0,5.21,0,1.1-.06,2.47.22,3.47-.35,5.57-5.65,8.96-6.81,16.5-8.44,2.15-.57,4.08-1.95,6.08-2.85,7.5-3.31,11.38,7.19,15.63,11.45,1.65.39,3.52.11,5.21.19,3.16,0,6.39,0,9.55,0,7.51-.06,15.07.11,22.58-.07,1.47-1.04,2.93-2.45,4.34-3.56"/><path class="b" d="M8.72,224.18c3.08.34,5.77-1.61,8.68-2.28,2.57-.72,5.48-.56,7.82.81.81.44,1.64,1.42,2.61,1.47,2.58,0,5.24,0,7.82,0,23.16,0,46.32,0,69.48,0,1.22-.63,2.35-1.84,3.47-2.62,1.58-1.18,3.41-2.28,5.21-3.07,3.39-1.48,7.15-2.18,10.42-3.93,7.62-4.16,11.55,4.9,15.63,9.62,9.26,0,18.54,0,27.79,0,3.16,0,6.39,0,9.55,0,1.09,0,2.39,0,3.47,0,.91-.37,1.84-1.32,2.61-1.91"/><path class="b" d="M8.72,223.18c1.09,0,2.39,0,3.47,0,1.13-.34,2.39-.94,3.47-1.39,4.51-2.02,8.44-2.3,12.16,1.39,20.84,0,41.69,0,62.53,0,4.03,0,8.13,0,12.16,0,1.69,0,3.52,0,5.21,0,.9-.31,1.84-1.21,2.61-1.75,3.84-3.01,8.52-4.61,13.03-6.28,7.33-3.61,10.89,3.03,14.76,8.04,9.83,0,19.69,0,29.53,0,3.16,0,6.39,0,9.55,0,1.09,0,2.39,0,3.47,0,.8,0,1.88.09,2.61-.33"/><path class="b" d="M8.72,222.18c1.69,0,3.52,0,5.21,0,4.9-2.28,9.42-4.82,13.9-.16,2.54.38,5.25.07,7.82.16,4.91,0,9.86,0,14.76,0,13.6,0,27.22,0,40.82,0,4.32,0,8.7,0,13.03,0,1.39,0,2.95,0,4.34,0,.42,0,1.31,0,1.74,0,.51-.13,1.36-.67,1.74-1.03,4.03-3.17,8.88-5.34,13.9-6.39,4.75-.66,7.94,3.88,10.42,7.25,1.95.38,4.1.09,6.08.17,3.45,0,6.97,0,10.42,0,10.12,0,20.27,0,30.4,0"/><path class="b" d="M8.72,221.18c2.28,0,4.67,0,6.95,0,4.44-2.14,8-4.08,12.16-.1,28.35.3,56.75,0,85.11.1,2.25-1.46,4.41-3.32,6.95-4.31,2.47-.84,5.17-1.86,7.82-1.47,2.02.37,3.82,1.77,5.21,3.23.77.77,1.58,2.1,2.61,2.56h47.77"/><path class="b" d="M8.72,220.18c1.99,0,4.09,0,6.08,0,.78,0,1.82,0,2.61,0,.85-.13,1.83-.71,2.61-1.03,1.92-.87,4.23-1.01,6.08.12.74.47,1.7,1.07,2.61.91,18.52,0,37.06,0,55.58,0,6.94,0,13.91,0,20.84,0,3.16,0,6.39,0,9.55,0,1.29-.2,2.33-1.48,3.47-2.06,2.56-1.51,5.72-2.25,8.68-2.18,2.84.22,4.98,2.4,6.95,4.24h49.5"/><path class="b" d="M8.72,219.18c3.74,0,7.55,0,11.29,0,1.1-.21,2.33-.76,3.47-.74.83.02,1.86.36,2.61.69,1.69.1,3.52.03,5.21.05,28.66,0,57.32,0,85.98,0,1.97-1.58,4.48-2.26,6.95-2.52,2.85-.53,5.71.61,7.82,2.52h51.24"/><path class="b" d="M8.72,218.17c24.31,0,48.64,0,72.95,0,8.68,0,17.38,0,26.05,0,3.74,0,7.55,0,11.29,0,.45.02,1.33-.19,1.74-.39,1.37-.3,2.95-.45,4.34-.57.77-.04,1.85.03,2.61.2.79.18,1.79.69,2.61.77,5.49,0,11.01,0,16.5,0,12.15,0,24.32,0,36.48,0"/><path class="b" d="M8.72,217.17h174.56"/><path class="b" d="M8.72,216.17h174.56"/><path class="b" d="M8.72,215.17h174.56"/><path class="b" d="M8.72,214.17h174.56"/><path class="b" d="M8.72,213.17h174.56"/><path class="b" d="M8.72,212.16h174.56"/><path class="b" d="M8.72,211.16h174.56"/><path class="b" d="M8.72,210.16h174.56"/><path class="b" d="M8.72,209.16h174.56"/><path class="b" d="M8.72,208.16h174.56"/><path class="b" d="M8.72,207.16c14.18,0,28.38,0,42.55,0,1.69,0,3.52,0,5.21,0,.9.03,1.85-.73,2.61-1.12,3.09-1.82,5.37-1.55,7.82,1.12h116.37"/><path class="b" d="M8.72,206.16c10.12,0,20.27,0,30.4,0,.43,0,1.31,0,1.74,0,1.06-.45,2.4-.64,3.47-.13,1.97.28,4.1.06,6.08.13,1.39-.06,2.99.18,4.34-.2.44-.25,1.32-.8,1.74-1.09,2.82-1.91,6.36-5.15,9.55-2.07,1.21.93,2.16,2.57,3.47,3.36h113.77"/><path class="b" d="M8.72,205.15c10.41,0,20.85,0,31.26,0,3.17-3.24,5.27.08,8.68,0,5.85.78,8.42-4.09,13.03-6.45,4.43-1.76,6.84,4.07,9.55,6.45h112.03"/><path class="b" d="M8.72,204.15h30.4c.86-.47,1.74-1.49,2.61-1.94,1.1-.58,2.43-.22,3.47.29,1.06.44,2.34.9,3.47,1.08,3.86.63,6.97-2.35,9.55-4.8,1.68-1.46,3.62-3.73,6.08-3.28,4.06,1.35,5.79,5.9,8.68,8.65h110.29"/><path class="b" d="M8.72,203.15h30.4c1.24-1.5,3.07-3.55,5.21-2.58,2.68,1.25,5.91,2.45,8.68.77,3.42-1.92,5.57-5.52,8.68-7.82,3.96-2.61,7.37,2.59,9.55,5.3,1.11,1.33,2.02,3.34,3.47,4.32h108.56"/><path class="b" d="M8.72,202.15c10.12-.1,20.29.19,30.4-.11,1.02-1.39,2.43-3.19,4.34-3.05,2.77.89,5.7,2.97,8.68,1.58,6.68-2.84,9.06-15.15,16.5-7.87,1.94,1.9,3.65,4.3,5.21,6.5.76.91,1.42,2.53,2.61,2.95,6.65,0,13.33,0,19.97,0,28.89-.08,57.88.05,86.85,0"/><path class="b" d="M8.72,201.15c6.36,0,12.75,0,19.11,0,2.28,0,4.67,0,6.95,0,1.39-.07,2.99.19,4.34-.21,1.13-1.62,3.03-3.82,5.21-2.77,2.71,1.37,5.82,3,8.68,1.04,3.62-2.44,5.61-6.68,8.68-9.67,5.92-5.25,12.47,7.5,15.63,11.32,1.03.48,2.37.25,3.47.3,1.99,0,4.09,0,6.08,0,6.07,0,12.17,0,18.24,0,4.47-3.51,6.89-4.05,11.29,0h66.87"/><path class="b" d="M8.72,200.15c6.36,0,12.75,0,19.11,0,2.28,0,4.67,0,6.95,0,1.39-.06,2.99.18,4.34-.2,1.13-1.6,3.07-3.73,5.21-2.64,2.69,1.43,5.8,3.31,8.68,1.22,3.72-2.7,5.63-7.24,8.68-10.56,6.71-6.32,13.62,7.79,17.37,11.99,2.76.44,5.86.07,8.68.19,5.2,0,10.44,0,15.63,0,5.9-6.36,8.87-8.16,14.76-.42.72.53,1.77.44,2.61.42,1.09,0,2.38,0,3.47,0,3.45,0,6.97,0,10.42,0,16.21,0,32.43,0,48.63,0"/><path class="b" d="M8.72,199.14c10.12-.09,20.29.17,30.4-.1,1.15-1.58,3.13-3.53,5.21-2.4,3.28,1.88,6.25,3.86,9.55.74,3.53-3.3,5.28-8.19,8.68-11.59,7.74-5.14,13.7,8.73,18.24,13.1.75.31,1.81.24,2.61.24,1.39,0,2.95,0,4.34,0,4.32,0,8.7,0,13.03,0,1.12.23,2.05-.67,2.61-1.53,1.05-1.35,2.3-2.97,3.47-4.21,3.96-4.3,7.29-2.73,10.42,1.44,1.15,1.28,1.96,3.41,3.47,4.3h62.53"/><path class="b" d="M8.72,198.14h30.4c3.59-4.14,4.83-1.94,8.68,0,1.09,0,2.38,0,3.47,0,.94.16,1.98-.38,2.61-1.04,2.51-2.51,4.22-5.92,6.08-8.9,1.24-2,2.74-4.36,5.21-4.87,8.31-1.86,12.14,11.23,18.24,14.76,5.77.15,11.59.01,17.37.05,3.9-3.68,8.3-15.77,14.76-9.29,1.65,1.71,3.08,3.96,4.34,5.96.71,1.02,1.45,2.72,2.61,3.33h60.79"/><path class="b" d="M8.72,197.14h30.4c1.58-1.14,3.22-2.57,5.21-1.35.77.44,1.69,1.25,2.61,1.35,2.27-.1,4.71.24,6.95-.19,3.98-3.98,5.37-10.13,9.55-13.89,8.45-5.39,13.21,6.18,18.24,10.95,1.05.93,2.48,1.8,3.47,2.81,1.29.61,2.95.23,4.34.33,1.99,0,4.09,0,6.08,0,1.39-.06,2.99.18,4.34-.2,2.15-2.77,4.17-5.88,6.08-8.82,2.89-4.32,6.28-7.56,10.42-2.35,2.9,3.47,4.57,8.05,7.82,11.23,2.55.34,5.25.06,7.82.14,4.32,0,8.7,0,13.03,0,12.73,0,25.48,0,38.21,0"/><path class="b" d="M8.72,196.14c6.94,0,13.91,0,20.84,0,3.16,0,6.39,0,9.55,0,1.17-.21,2.21-1.32,3.47-1.23.47.03,1.33.33,1.74.59.39.35,1.19.72,1.74.64,1.69,0,3.52,0,5.21,0,1.09-.04,2.43.15,3.47-.24,2.39-3.12,4.09-6.96,6.08-10.33,1.37-2.68,4-4.63,6.95-5.21,5.67-.69,8.88,5.55,12.16,9.16.95,1.15,2.21,2.44,3.47,3.24,1.19.94,2.42,2.26,3.47,3.34,3.74.1,7.55.01,11.29.04,1.56-.73,2.43-2.84,3.47-4.14,2.96-3.92,4.74-9.06,8.68-12.15,6.53-4.1,10.39,12.88,16.5,15.7.69.53,1.77.64,2.61.58,1.39,0,2.95,0,4.34,0,4.32,0,8.7,0,13.03,0,12.15,0,24.32,0,36.48,0"/><path class="b" d="M8.72,195.14c6.94,0,13.91,0,20.84,0,2.28,0,4.67,0,6.95,0,1.09,0,2.39,0,3.47,0,.41-.2,1.29-.5,1.74-.6.83-.12,1.88.21,2.61.6,3.45,0,6.97,0,10.42,0,1.26-.5,1.92-2.39,2.61-3.45,1.66-2.98,3.11-6.44,5.21-9.15,5.21-4.67,9.22-4.79,13.9.6,1.72,1.91,3.37,4.16,5.21,5.96,2.21,1.63,4.23,3.68,6.08,5.71,1.01.54,2.37.28,3.47.33,1.99,0,4.09,0,6.08,0,1.42-1.05,2.47-2.94,3.47-4.36,1.5-2.22,3.08-4.76,4.34-7.12,2.96-5.23,6.84-12.53,12.16-4.68,3.62,5.26,5.96,12.14,12.16,14.97,1.05.47,2.31,1.08,3.47,1.2,2.28,0,4.67,0,6.95,0,5.2,0,10.44,0,15.63,0,9.26,0,18.54,0,27.79,0"/><path class="b" d="M8.72,194.14c15.64,0,31.27-.02,46.9,0,2.83-3.6,4.14-8.43,6.95-12.07,1.67-1.66,3.85-3.12,6.08-3.9,6.38-1.49,9.58,6.52,13.9,9.74,2.69,1.56,4.23,4.8,6.95,6.23,2.28-.04,4.67.09,6.95-.07,3.57-3.79,6.19-8.6,8.68-13.15,2.73-5,6.75-13.62,12.16-5.64,4.14,6.25,6.63,13.37,13.9,16.83,1.36.7,2.93,1.35,4.34,1.93,2.27.23,4.67.04,6.95.1,4.61,0,9.28,0,13.9,0,8.97,0,17.96,0,26.92,0"/><path class="b" d="M8.72,193.14c10.41,0,20.85,0,31.26,0,3.45,0,6.97,0,10.42,0,1.09,0,2.39,0,3.47,0,.8,0,1.89.09,2.61-.35,1.5-2.65,2.9-5.74,4.34-8.42.99-1.94,2.47-3.79,4.34-4.91,2.17-1.68,5.11-3.17,7.82-1.84,3.23,1.59,5.36,4.79,7.82,7.29.71.72,1.73,1.61,2.61,2.13,1.2.93,2.42,2.27,3.47,3.36,3.25,3.47,3.42,2.68,7.82,2.74,2.82-1.4,4.37-4.72,6.08-7.22,1.89-2.9,3.67-6.18,5.21-9.27,2.05-3.81,5.8-11.41,10.42-5.82,3.85,4.79,5.85,11.05,10.42,15.3,3.16,3.16,7.33,5.07,11.29,7.01,1.99,0,4.09,0,6.08,0,13.02,0,26.06,0,39.08,0"/><path class="b" d="M8.72,192.13h47.77c2.77-3.95,3.83-9.52,7.82-12.52,2.2-1.68,4.89-3.7,7.82-2.91,3.72,1.19,6,4.79,8.68,7.39.96,1.02,2.38,1.84,3.47,2.7,1.13.98,2.36,2.26,3.47,3.26,4.97,4.66,8.41.85,11.29-3.66,2.47-3.89,4.95-8.02,6.95-12.18,2.46-4.68,6.26-12.33,11.29-5.2,5.36,8.2,7.17,14.35,16.5,19.53,2.28,1.17,4.55,2.74,6.95,3.6,2.87,0,5.82,0,8.68,0,11.28,0,22.59,0,33.87,0"/><path class="b" d="M8.72,191.13h47.77c.8-.26,1.42-1.56,1.74-2.25.46-.86,1.28-2.6,1.74-3.46.94-1.75,1.99-3.93,3.47-5.28,1.62-1.19,3.31-2.6,5.21-3.32,4.84-1.74,8.32,3.24,11.29,6.23,1.19,1.36,2.85,2.4,4.34,3.35,1.41,1.1,2.84,2.49,4.34,3.46,4.61,3.23,8.27-2.15,10.42-5.67,3.18-4.97,5.95-10.35,8.68-15.56,3.98-7.05,7.27-6.7,11.29.09,4.38,7.98,8.27,13.67,16.5,18.12,1.68.97,3.53,1.97,5.21,2.95.74.45,1.8,1,2.61,1.32.42,0,1.31,0,1.74,0,12.73,0,25.48,0,38.21,0"/><path class="b" d="M8.72,190.13h48.63c2.1-2.57,3.11-6.19,5.21-8.79,2.24-2.14,5.4-4.76,8.68-4.46,4.14.75,6.59,4.76,9.55,7.36.95.93,2.35,1.57,3.47,2.23,1.65,1.09,3.3,2.53,5.21,3.15,5.17,1.32,8.14-5.51,10.42-9.05,1.36-2.43,3.09-5.02,4.34-7.51,1.6-3.11,3.16-6.58,5.21-9.43,4.32-6.02,7.83-.82,10.42,3.5,3.08,5.54,6.9,10.88,12.16,14.54,2.18,1.57,4.6,2.99,6.95,4.3,1.91,1.08,3.93,2.26,6.08,2.78,2.52.67,5.25.68,7.82,1.06,3.1.66,6.4.21,9.55.33,6.94,0,13.91,0,20.84,0"/><path class="b" d="M8.72,189.13h49.5c1.85-2.51,2.88-5.92,5.21-8.08,3.04-2.42,6.63-4.93,10.42-2.43,3.54,2.09,5.65,6.3,9.55,7.79,2.46,1.09,4.96,3.27,7.82,2.5,4.74-1.84,7.01-7.97,9.55-12.04,3.54-5.26,5.63-11.58,9.55-16.58,4.81-5.67,8.93,2.94,11.29,6.58,3.62,5.97,8.74,11.06,14.76,14.59,2.74,1.6,5.61,3.28,8.68,4.14,3.98,1.18,8.48.75,12.16,2.89.88.86,2.35.61,3.47.64,1.99,0,4.09,0,6.08,0,5.49,0,11.02,0,16.5,0"/><path class="b" d="M8.72,188.13h50.37c1.51-1.93,2.49-4.6,4.34-6.26,2.62-2.12,6.15-4.54,9.55-2.71,3.7,1.81,5.86,5.87,9.55,7.65,1.12.29,2.39.81,3.47,1.23,1.68.17,3.52.07,5.21.06,1.78-.91,3.21-2.68,4.34-4.28,1.91-2.81,3.56-6.1,5.21-9.06,1.07-1.89,2.5-4.05,3.47-5.99,2.3-4.11,3.97-9.19,7.82-12.15,4.41-2.43,7.43,4.32,9.55,7.17,1.98,3.04,4.35,6.01,6.95,8.55,4.2,4.09,9.24,7.45,14.76,9.47,3.62,1.43,7.59,1.78,11.29,2.93,1.16.38,2.47,1.02,3.47,1.72.46.32,1.34,1.06,1.74,1.46.4.15,1.31.27,1.74.22,7.23,0,14.49,0,21.71,0"/><path class="b" d="M8.72,187.13h51.24c1.31-1.17,2.11-3.18,3.47-4.32,3.66-3,7.15-4.72,11.29-1.41,2.42,1.69,4.22,4.53,6.95,5.73,1.09,0,2.38,0,3.47,0,1.99,0,4.09,0,6.08,0,3.61-2.2,5.75-7.54,7.82-11.14,1.79-3.67,4.27-7.23,6.08-10.89,2.11-3.57,5.86-13.92,11.29-10.39,3.28,2.54,5.16,6.57,7.82,9.69,3.86,4.77,8.46,9.16,13.9,12.07,2.46,1.27,5.23,2.09,7.82,3.05,5.98,2.06,11.15,2.58,15.63,7.61h21.71"/><path class="b" d="M8.72,186.12c11.28,0,22.59,0,33.87,0,4.03,0,8.13,0,12.16,0,1.39,0,2.95,0,4.34,0,.79,0,1.88.08,2.61-.31,2.17-2.99,6.58-6.28,10.42-4.75,2.75.98,4.53,3.62,6.95,5.06,3.45,0,6.97,0,10.42,0,.83,0,1.9.1,2.61-.43.88-.96,1.91-2.42,2.61-3.52,2.54-4.1,4.52-8.76,6.95-12.93,2.59-3.86,4.51-8.34,6.95-12.29,2.91-4.71,6.22-7.04,10.42-1.99,3.56,4.48,7,9.21,11.29,13.03,3.04,2.75,6.45,5.44,10.42,6.67,2.68.67,5.27,1.88,7.82,2.93,2.28.96,4.71,1.87,6.95,2.93,1.49.71,3.08,1.67,4.34,2.74,1.05.93,2.26,2.14,3.47,2.87h19.97"/><path class="b" d="M8.72,185.12c13.6,0,27.22,0,40.82,0,2.87,0,5.82,0,8.68,0,1.39,0,2.95,0,4.34,0,.5-.16,1.35-.72,1.74-1.07,4.59-3.7,8.07-2.68,12.16,1.07,3.74,0,7.55,0,11.29,0,1.09,0,2.38,0,3.47,0,1.66-.64,2.49-2.96,3.47-4.34,2.16-3.78,4.02-8.02,6.08-11.86,1.35-2.4,3.09-4.94,4.34-7.4,2.14-3.53,4.91-10.7,9.55-11.01,3.99.55,6.12,4.9,8.68,7.56,3.41,3.93,7.06,7.84,11.29,10.9,1.56,1.1,3.37,2.14,5.21,2.69,1.09.28,2.42.45,3.47.86,3.3,1.28,6.39,3.22,9.55,4.78,2.02,1.04,4.19,2.12,6.08,3.4,1.41.99,2.85,2.28,4.34,3.15.73.44,1.79,1.01,2.61,1.27,1.69,0,3.52,0,5.21,0,4.03,0,8.13,0,12.16,0"/><path class="b" d="M8.72,184.12c12.44,0,24.9,0,37.34,0,4.62,0,9.28,0,13.9,0,1.69,0,3.52,0,5.21,0,1.08-.48,2.29-1.21,3.47-1.41,1.81-.34,3.72.36,5.21,1.36.78.05,1.83.04,2.61.04,3.16,0,6.39,0,9.55,0,1.09,0,2.39,0,3.47,0,.83.01,1.91.1,2.61-.44,3.5-5.09,5.78-11.08,8.68-16.5,1-1.84,2.45-3.88,3.47-5.71,1.86-3.22,3.65-6.8,6.08-9.65,5.46-6.48,10.02,1.22,13.9,5.13,4.19,4.31,8.33,9.18,13.9,11.72,1.32.61,2.94.65,4.34.9,1.5.4,3.03,1.24,4.34,2.05,3.69,2.41,7.45,4.84,11.29,7,1.42.82,2.89,1.96,4.34,2.72,2.16,1.11,4.62,1.82,6.95,2.5,1.62.54,3.53.22,5.21.3,2.87,0,5.82,0,8.68,0"/><path class="b" d="M8.72,183.12h82.5c1.24-.54,1.92-2.42,2.61-3.49,1.17-2.15,2.43-4.78,3.47-6.99,1.32-2.8,2.76-5.95,4.34-8.61,1.14-1.7,2.45-3.76,3.47-5.53,3.91-6.4,8.07-14.8,15.63-6.72,3.75,3.63,7.34,7.56,11.29,10.98,2.04,1.71,4.33,3.45,6.95,4.14,1.07.3,2.39.11,3.47.29,3.36.89,5.95,3.57,8.68,5.57,2.68,2.12,5.68,3.96,8.68,5.59,3.11,2.01,6.98,2.2,10.42,3.32,1.41.4,2.91,1.13,4.34,1.47,2.87,0,5.82,0,8.68,0"/><path class="b" d="M8.72,182.12h82.5c1.63-1.26,2.46-3.79,3.47-5.54,1.45-2.91,2.94-6.23,4.34-9.16,2.08-4.55,5.19-8.71,7.82-12.94,5.86-8.77,9.22-8.36,16.5-1.35,2.61,2.38,5.17,5,7.82,7.34,2.05,1.78,4.32,3.64,6.95,4.47,1.67.64,3.55-.18,5.21.4,3.4,1.43,5.89,4.48,8.68,6.79,2.8,2.45,6.04,4.57,9.55,5.83,3.44.81,7.18.52,10.42,2.14,1.43.57,2.86,1.6,4.34,2.02,2.28,0,4.67,0,6.95,0"/><path class="b" d="M8.72,181.12h82.5c3.72-5.04,5.72-11.39,8.68-16.89,2.18-4.14,5.08-8.06,7.82-11.85,6.04-7.89,10.21-4.54,16.5.7,4.35,3.45,9.16,9.77,14.76,10.68.79.08,1.85-.09,2.61-.32.82-.12,1.88.17,2.61.56,5.36,3.43,8.69,9.64,14.76,12.1,3.25,1.73,7,.2,10.42,1.08,1.5.37,3.04,1.15,4.34,1.97,1.08.61,2.22,1.71,3.47,1.97,1.99,0,4.09,0,6.08,0"/><path class="b" d="M8.72,180.11h82.5c5.03-8.13,7.77-17.68,13.9-25.14,2.09-2.73,4.39-5.93,7.82-6.99,4.74-1.47,12.19,5.4,15.63,8.4,14.73,13.85,10.34-1.28,20.84,11.18,3.42,3.77,7.39,8.88,13.03,8.52,2.55-.42,5.26-1.35,7.82-.42,2.64.85,4.64,3.05,6.95,4.47h6.08"/><path class="b" d="M8.72,179.11c4.61-.1,9.31.21,13.9-.13,1.04-.48,2.35-.55,3.47-.58,1.09-.07,2.39-.1,3.47.03.8.1,1.86.37,2.61.67.44,0,1.3.01,1.74.01,12.44,0,24.9,0,37.34,0,4.32,0,8.7,0,13.03,0,1.39,0,2.95,0,4.34,0,.8,0,1.89.09,2.61-.36,4.91-8.04,7.66-17.49,13.9-24.69,2.06-2.47,4.51-5.22,7.82-5.83,2.8-.46,5.46,1.03,7.82,2.36,3.55,1.75,6.56,4.5,9.55,7.05,12.68,11.05,9.1-3.52,19.11,9.27,1.84,2.25,3.79,4.7,6.08,6.52,6.92,5.48,9.39-1.67,15.63,1.02,2.31,1.07,4.05,3.2,6.08,4.67h6.08"/><path class="b" d="M8.72,178.11c3.74,0,7.55,0,11.29,0,1.24.18,2.33-1.02,3.47-1.36,2.49-.63,5.33-.84,7.82-.05.82.28,1.88.82,2.61,1.3,1.97.24,4.09.05,6.08.11,4.32,0,8.7,0,13.03,0,12.44,0,24.9,0,37.34,0,2.29-2.45,3.59-6.05,5.21-8.96,3.06-6.24,6.02-12.9,11.29-17.62,3.82-3.55,7.73-3.5,12.16-1.11,1.68.88,3.61,1.6,5.21,2.63,2.11,1.36,4.13,3.1,6.08,4.68,13.24,11.15,8.76-5.48,19.97,9.92,1.77,2.26,3.68,4.71,6.08,6.34,5.89,4.02,8.41-2.66,13.9-1.21,2.87.88,4.6,3.7,6.95,5.34h6.08"/><path class="b" d="M8.72,177.11c3.45,0,6.97,0,10.42,0,1.58-.33,2.84-1.82,4.34-2.39,2.17-.74,4.7-.98,6.95-.47,1.93.45,3.59,1.81,5.21,2.87,18.23-.1,36.5.2,54.71-.11,3.28-5.02,5.86-10.63,8.68-15.91,2.45-4.46,5.51-9.41,10.42-11.4,2.58-.94,5.42-.19,7.82.94,2.22,1.17,4.74,1.94,6.95,3.11,2.45,1.42,4.69,3.37,6.95,5.07,11.78,9.21,8.51-5.98,18.24,7.56,2.05,2.69,4.11,5.71,6.95,7.64,1.49.97,3.5,1.5,5.21.84,2.79-1.2,5.38-4.16,8.68-3.2,1.68.53,3.15,1.89,4.34,3.14.73.72,1.56,2.03,2.61,2.31,1.99,0,4.09,0,6.08,0"/><path class="b" d="M8.72,176.11c3.16,0,6.39.01,9.55,0,1.72-1.11,3.39-2.6,5.21-3.55,5.22-2.03,9.28-.49,13.03,3.41,2.26.32,4.67.06,6.95.14,4.03,0,8.12,0,12.16,0,11.28,0,22.59,0,33.87,0,1.49-1.18,2.45-3.36,3.47-4.92,2.09-3.57,4.07-7.48,6.08-11.09,3.87-6.99,8.79-13.5,17.37-8.73,2.19,1.2,4.58,2.16,6.95,2.92,2.17.96,4.19,2.49,6.08,3.91,14.62,11.86,9.35-7.04,20.84,9.4,1.74,2.32,3.62,4.88,6.08,6.49,8.49,5,9.56-11.63,19.97,1.96,2.28.15,4.67.03,6.95.07"/><path class="b" d="M8.72,175.07c2.28.08,4.67.02,6.95.04,2.34-.39,4.17-2.45,6.08-3.74,1.69-1.39,3.93-1.98,6.08-2.08,3.92-.22,7.06,2.66,9.55,5.34.44.33,1.19.59,1.74.48,1.09,0,2.39,0,3.47,0,10.12,0,20.27,0,30.4,0,3.45,0,6.97,0,10.42,0,1.98-.11,4.15.27,6.08-.23,3.29-4.41,5.98-9.41,8.68-14.18,2.85-4.97,6.98-12.78,13.9-10.27,2.75.95,5.17,2.8,7.82,3.97,1.05.47,2.4.67,3.47,1.07,1.5.58,3.03,1.53,4.34,2.44,2.24,1.53,4.46,3.37,6.95,4.49,8.28,3.24,5.96-7.93,14.76,4.2,1.81,2.41,3.68,5.08,6.08,6.95,6.82,5.05,8.78-4.68,14.76-3.55,2.65.76,4.06,3.5,6.08,5.12h6.95"/><path class="b" d="M8.72,172.88c7.33,2.11,9.26-1.57,14.76-5.07,7.33-3.06,10.99,1.46,15.63,6.3h49.5c4.22-4.63,7.12-10.45,10.42-15.74,2.93-4.81,6.6-10.83,13.03-7.38,2.7,1.35,5.07,3.48,7.82,4.75.74.33,1.81.59,2.61.72,1.15.29,2.44.88,3.47,1.47,4.4,2.29,9.65,8.57,14.76,4.6,3.3-3.55,6.7,1.88,8.68,4.29,1.81,2.33,3.68,4.91,6.08,6.67.64.59,1.77.69,2.61.63,1.08,0,2.39.02,3.47-.02,1.51-.98,2.9-2.45,4.34-3.52,3.98-3.18,7.12.15,9.55,3.35,2.53.45,5.25.08,7.82.19"/><path class="b" d="M8.72,170.44c7.43,1.82,9.18-1.75,14.76-5.24,7.66-3.18,11.94,2.53,16.5,7.67,1.35.42,2.95.15,4.34.22,2.28,0,4.66,0,6.95,0,6.94,0,13.91,0,20.84,0,3.74,0,7.55,0,11.29,0,1.39,0,2.95,0,4.34,0,1.08-.34,1.89-1.71,2.61-2.51,2.88-3.6,5.39-7.68,7.82-11.6,2.34-3.31,4.34-8.23,8.68-9.15,4.94-.3,8.19,4.45,12.16,6.65,1.82,1.16,4.2,1.06,6.08,2.11,3.02,1.49,5.65,3.81,8.68,5.27,1.87.93,4.25,1.23,6.08.04.8-.52,1.7-1.52,2.61-1.88,1.67-.44,3.23.91,4.34,2,2.94,2.91,5.1,6.89,8.68,9.07,2.28-.07,4.69.16,6.95-.12,2.66-2.24,5.95-6.08,9.55-3.21,1.24.88,2.24,2.44,3.47,3.33h7.82"/><path class="b" d="M8.72,167.93c5.39,1.02,8.01-.27,12.16-3.56,2.58-2.24,6.3-2.96,9.55-1.94,4.48,1.66,7.21,5.99,10.42,9.26.42.27,1.23.51,1.74.41,1.09,0,2.39,0,3.47,0,13.89,0,27.8.01,41.69,0,3.66-3.71,6.74-8.07,9.55-12.44,1.36-2.08,2.85-4.42,4.34-6.42,1.8-2.61,4.61-4.66,7.82-3.11,3.65,1.73,6.21,5.16,9.55,7.34,1.78,1.26,4.19,1.13,6.08,2.18,2.71,1.33,5.15,3.32,7.82,4.73,8.62,4.52,7.58-5.71,13.9.02,2.66,2.44,4.78,5.69,7.82,7.7h7.82c1.21-.67,2.34-1.91,3.47-2.69,3.5-2.7,6.44-.27,8.68,2.64,2.86.13,5.82.02,8.68.05"/><path class="b" d="M8.72,165.61c3.45.4,6.59.28,9.55-1.72,1.7-1.04,3.38-2.43,5.21-3.23,5.32-1.62,9.51.73,13.03,4.61,1.71,1.79,3.4,3.88,5.21,5.56,1.62.54,3.53.16,5.21.27,11.57,0,23.17,0,34.74,0,1.69,0,3.52,0,5.21,0,2.05-1.14,3.61-3.33,5.21-5.03,2.5-2.95,4.76-6.31,6.95-9.5,1.94-2.52,3.63-6.1,6.95-6.96,4.92-.57,8.58,5.34,12.16,7.99.7.58,1.77,1.26,2.61,1.6.75.26,1.85.42,2.61.68,2.15.76,4.17,2.13,6.08,3.36,2.77,1.75,6.2,4.07,9.55,2.56,1.55-.65,2.58-2.56,4.34-2.71,2.1.06,3.77,1.83,5.21,3.18,1.63,1.62,3.34,3.45,5.21,4.81,2.87.04,5.82,0,8.68.02,1.58-.64,2.79-2.25,4.34-2.98,1.33-.72,3.06-.69,4.34.13,1.27.69,2.16,2.27,3.47,2.84,2.87,0,5.82,0,8.68,0"/><path class="b" d="M8.72,163.51c4.63.21,7.32-.16,11.29-2.71,1.57-.92,3.33-2.04,5.21-2,8.04-.69,11.87,7.04,17.37,11.31,14.76-.08,29.54.16,44.29-.09,4.39-3.5,8.07-7.89,11.29-12.47,4.01-5.38,7.02-11.46,13.9-5.24,2.9,2.46,5.24,5.84,8.68,7.59,2.11.58,4.25,1.39,6.08,2.62,3.58,2.11,7.79,5.89,12.16,3.81,1.54-.71,2.58-2.61,4.34-2.84,3.63.12,6.56,4.63,9.55,6.52,2.85.25,5.82.04,8.68.1,1.38.24,2.47-1.04,3.47-1.77,3.58-2.81,6.03-1.21,8.68,1.77h9.55"/><path class="b" d="M8.72,161.62c3.22-.18,6.6-.2,9.55-1.69,2.2-.93,4.46-2.49,6.95-2.26,5.37.03,9.52,3.81,13.03,7.46,1.06,1.05,2.31,2.3,3.47,3.23.41.42,1.15.77,1.74.74,5.2,0,10.44,0,15.63,0,8.39,0,16.8,0,25.19,0,.44,0,1.3,0,1.74,0,.9-.27,1.86-1.12,2.61-1.67,4.08-3.04,7.37-7.11,10.42-11.14,4.49-6.07,7.41-9.18,13.9-2.95,2.28,2.14,4.37,4.74,6.95,6.55.98.7,2.38,1.03,3.47,1.5,1.47.67,2.99,1.64,4.34,2.52,3.24,2.1,7.41,4.95,11.29,2.76,1.53-.77,2.57-2.67,4.34-2.95,3.5.04,5.9,3.52,8.68,5.23,1.66.33,3.52.09,5.21.16,1.39,0,2.95,0,4.34,0,.94.2,1.94-.6,2.61-1.18,2.54-2.17,5.27-2.8,7.82-.16,0,0,.87.92.87.92l.87.41s.87,0,.87,0c2.87,0,5.82,0,8.68,0"/><path class="b" d="M8.72,159.93c2.56-.48,5.3-.41,7.82-1.14,2.58-.63,5.1-2.1,7.82-2.06,5.16.37,9.42,3.61,13.03,7.06,1.07.98,2.33,2.15,3.47,3.05.74.52,1.63,1.37,2.61,1.25,3.45,0,6.97,0,10.42,0,7.23,0,14.49,0,21.71,0,3.45,0,6.97,0,10.42,0,1.47-.78,3-1.84,4.34-2.81,3.33-2.46,6.09-5.73,8.68-8.93,2.96-3.63,6.19-8.28,11.29-4.9,3.91,2.52,6.5,6.76,10.42,9.25,2.09.9,4.22,2.03,6.08,3.36,2.38,1.57,4.92,3.37,7.82,3.75,5.44.53,6.09-4.37,9.55-4.06,1.59.27,3.07,1.35,4.34,2.27.75.57,1.83,1.35,2.61,1.88,1.05.32,2.39.16,3.47.19,2.57,0,5.24,0,7.82,0,4-3.36,6.72-4.7,10.42-.03,3.45.06,6.97,0,10.42.03"/><path class="b" d="M8.72,158.45c1.94-.61,4.08-.73,6.08-1.03,2.01-.28,4.09-.82,6.08-1.21,7.6-1.36,13.54,5.32,19.11,9.44.75.52,1.71,1.23,2.61,1.45,1.4,0,2.95,0,4.34,0,3.45,0,6.97,0,10.42,0,8.97,0,17.96,0,26.92,0,.43,0,1.3,0,1.74,0,1.14-.47,2.41-1.21,3.47-1.83,4.53-2.62,7.86-6.84,11.29-10.69,4.92-5.98,9.02-4.27,13.9.63,2.42,2.33,4.69,5.17,7.82,6.58,2.68,1.5,5.1,3.62,7.82,5.06,1.33.47,2.95.17,4.34.25,1.39-.1,3.06.29,4.34-.34,1.47-.91,2.56-2.8,4.34-3.15,3.06-.32,5.12,2.77,7.82,3.49,1.99,0,4.09,0,6.08,0,1.68-.1,3.58.25,5.21-.24,4.34-3.57,6.33-4.2,10.42.24h10.42"/><path class="b" d="M8.72,157.14c2.99-1.27,6.37-1.33,9.55-1.75,8.71-1.72,14.97,5.78,21.71,9.91,1.49,1.13,3.47.73,5.21.79,2.58,0,5.24,0,7.82,0,8.1,0,16.22,0,24.32,0,2.87,0,5.82,0,8.68,0,4.87-1.04,8.83-4.81,12.16-8.35,3.93-4.31,7.86-9.21,13.9-4.8,2.86,2.03,5.18,4.87,7.82,7.16,1.29,1.12,3,2.01,4.34,3.07,4.3,3.28,3.23,2.99,8.68,2.93,1.99,0,4.09,0,6.08,0,2.04-.59,2.67-3.15,5.21-2.85,1.91.29,3.61,1.59,5.21,2.59,1.32.5,2.95.18,4.34.27,2.57,0,5.24,0,7.82,0,2.37-1.36,4.82-4.38,7.82-2.9,1.32.63,2.3,2.09,3.47,2.9h10.42"/><path class="b" d="M8.72,156.01c3.65-2.02,8.1-2.07,12.16-1.73,7.39.97,12.49,7.86,19.11,10.78,5.48.1,11.02,0,16.5.04,6.94,0,13.91,0,20.84,0,2.28,0,4.67,0,6.95,0,1.09,0,2.39,0,3.47,0,.82-.14,1.86-.59,2.61-.95,3.37-1.61,6.11-4.36,8.68-7,2-2.02,4.16-4.31,6.95-5.19,5.44-1.5,9.49,3.77,13.03,7.06,2.13,2.07,4.72,3.82,6.95,5.78,1.59.63,3.53.19,5.21.31,2.87,0,5.82,0,8.68,0,2.61-2.3,3.52-3.29,6.95-1.42.77.43,1.77,1.12,2.61,1.42.77,0,1.83,0,2.61,0,3.15-.1,6.42.21,9.55-.15,2.5-1.9,5.59-4.97,8.68-2.31.83.67,1.68,1.89,2.61,2.46h10.42"/><path class="b" d="M8.72,155.02c4.25-3.07,10.14-2.71,14.76-.68,5.05,2.47,8.85,6.98,13.9,9.47,1.04.46,2.37.24,3.47.28,1.99,0,4.09,0,6.08,0,6.07,0,12.17,0,18.24,0,8.1,0,16.22,0,24.32,0,3.85-.22,8.41-5.77,11.29-8.22,5.56-4.99,10.17-5.15,15.63.12,2.82,2.73,5.67,5.58,8.68,8.1,4.61,0,9.28,0,13.9,0,1,.21,2.01-.57,2.61-1.3.4-.31,1.23-.74,1.74-.8,1.91-.14,3.65,1.12,5.21,2.06,1.09.07,2.39.03,3.47.04,1.99,0,4.09,0,6.08,0,1.11-.06,2.49.24,3.47-.39,2.51-2,5.57-5.05,8.68-2.24.83.72,1.71,1.98,2.61,2.63h10.42"/><path class="b" d="M8.72,154.15c4.55-4.2,10.91-2.98,15.63.25,3.95,2.6,7.03,6.56,11.29,8.7,4.91,0,9.86,0,14.76,0,1.39-.14,2.94-.31,4.34-.21,1.69.24,3.51.22,5.21.21,8.68,0,17.38,0,26.05,0,1.99,0,4.09,0,6.08,0,1.31-.16,2.45-1.35,3.47-2.1,1.75-1.46,3.48-3.21,5.21-4.68,11.48-9.24,15.21-.62,23.45,6.78,5.2,0,10.44,0,15.63,0,.57-.12,1.38-.8,1.74-1.24.67-.54,1.74-.89,2.61-.74,1.55.26,2.91,1.43,4.34,1.97,4.03,0,8.13,0,12.16,0,2.23-1.39,4.1-4.09,6.95-4.1,2.36.22,3.72,2.56,5.21,4.11h10.42"/><path class="b" d="M8.72,153.37c5.72-6.05,12.17-2.63,17.37,2.06,1.72,1.59,3.45,3.44,5.21,4.99.74.59,1.62,1.54,2.61,1.66,4.62,0,9.28,0,13.9,0,1.94-.66,3.99-1.49,6.08-1.51,2.1-.08,4.19.67,6.08,1.51,5.2,0,10.44,0,15.63,0,4.03,0,8.13,0,12.16,0,2.28-.08,4.69.19,6.95-.15,3.15-2.47,5.9-5.61,9.55-7.39,9-5.99,13.47,1.3,19.11,7.52,3.74.05,7.55,0,11.29.02,1.69,0,3.52,0,5.21,0,.92-.36,1.71-1.46,2.61-1.87,2.26-.86,4.08,1.3,6.08,1.87.77,0,1.83,0,2.61,0,3.15-.1,6.42.21,9.55-.15,5.32-4.45,7.47-6.9,12.16.15h10.42"/><path class="b" d="M8.72,152.64c8.21-10.04,16.55,2.04,22.58,7.95.45.35,1.17.6,1.74.49.78,0,1.83,0,2.61,0,1.99,0,4.09,0,6.08,0,1.69,0,3.52.02,5.21-.01,3.48-2.23,7.34-3.92,11.29-1.75,1.41.66,2.65,2.05,4.34,1.76,2.87,0,5.82,0,8.68,0,6.94,0,13.91,0,20.84,0,1.08,0,2.39,0,3.47,0,.99-.21,1.87-1.25,2.61-1.87,1.03-.93,2.3-2.02,3.47-2.76,4.03-1.93,8.34-6.1,13.03-3.63,2.43,1.26,4.36,3.48,6.08,5.55.71.84,1.56,2.25,2.61,2.71h16.5c1.69-1.46,2.77-2.99,5.21-1.86,1.16.47,2.23,1.63,3.47,1.86,1.39,0,2.95,0,4.34,0,1.39,0,2.95,0,4.34,0,1.09-.04,2.43.16,3.47-.24,5.17-4.57,7.5-7.32,12.16-.12,1.28.67,2.95.26,4.34.36,1.99,0,4.09,0,6.08,0"/><path class="b" d="M8.72,151.93c6.29-8.55,11.87-3.36,17.37,2.65,1.1,1.28,2.37,2.86,3.47,4.13.34.46,1.15,1.24,1.74,1.36,4.91,0,9.86,0,14.76,0,6.36-4.92,9.4-5.91,15.63-.02,11.86.05,23.74,0,35.61.02,1.1-.87,2.32-2.03,3.47-2.83,1.68-1,3.64-1.78,5.21-2.97,7.87-5.88,11.86-.81,16.5,5.67,2.84.31,5.82.05,8.68.13,2.86-.07,5.83.15,8.68-.11,1.85-2.33,3.37-3.29,6.08-1.46.77.49,1.68,1.37,2.61,1.57,1.39,0,2.95,0,4.34,0,1.69,0,3.52,0,5.21,0,.79,0,1.87.08,2.61-.28,2.63-2.14,5.95-7.03,9.55-3.77,1.31,1.08,2.21,2.94,3.47,4.06h9.55"/><path class="b" d="M8.72,151.2c5.54-8.19,10.02-5.75,15.63.65,2.19,2.18,3.75,5.2,6.08,7.23h14.76c3.32-2.27,6.75-7.05,11.29-4.87,1.23.59,2.5,1.63,3.47,2.57.76.71,1.64,1.87,2.61,2.3,9.83,0,19.69,0,29.53,0,1.99,0,4.09,0,6.08,0,1.21-.51,2.28-1.71,3.47-2.26,2.93-.93,5.18-3.28,7.82-4.75,6.01-3.55,9.9,2.81,13.03,7.01h16.5c1.85-.95,2.64-3.65,5.21-2.75,1.6.55,2.81,2.1,4.34,2.75,1.09,0,2.39,0,3.47,0,1.69,0,3.52,0,5.21,0,1.1-.05,2.44.17,3.47-.27,5.86-5.89,7.9-8.17,13.03.22,3.16.12,6.39.02,9.55.05"/><path class="b" d="M8.72,150.4c6.55-10.78,11.55-4.89,17.37,2.5.78,1.07,1.83,2.55,2.61,3.62.33.53,1.07,1.44,1.74,1.56,4.61,0,9.28,0,13.9,0,1.97-1.19,3.42-3.33,5.21-4.75,5.53-5.04,9.54.55,13.03,4.75,10.12,0,20.27,0,30.4,0,1.39,0,2.95,0,4.34,0,.79,0,1.86.07,2.61-.26.95-.8,2.33-1.28,3.47-1.7,2.77-1.46,4.92-4.07,7.82-5.32,5.52-2.27,8.32,3.95,11.29,7.29h16.5c1.06-1.05,2.03-2.7,3.47-3.26,2.51-.43,4.13,2.17,6.08,3.26,2.58,0,5.24,0,7.82,0,1.39-.06,2.99.18,4.34-.2,2.91-2.63,6.33-8.54,10.42-4.1,1.27,1.2,2.07,3.24,3.47,4.29h8.68"/><path class="b" d="M8.72,149.47c6.58-11.66,11.34-5.98,17.37,2.16.78,1.13,1.83,2.69,2.61,3.82.33.56,1.04,1.49,1.74,1.63,4.32,0,8.7,0,13.03,0,5.26-4.06,8.84-12.97,15.63-4.94.82.95,1.86,2.31,2.61,3.32.36.56,1.07,1.43,1.74,1.62,1.39,0,2.95,0,4.34,0,4.61,0,9.28,0,13.9,0,4.32,0,8.7,0,13.03,0,1.69,0,3.52,0,5.21,0,.47-.04,1.34-.36,1.74-.62.81-.2,1.9-.58,2.61-1.04,3.8-2.55,8.2-8.61,13.03-4.53,1.31,1.08,2.55,2.7,3.47,4.12.23.61,1.16,1.76,1.74,2.07,3.45,0,6.97,0,10.42,0,1.98-.1,4.14.25,6.08-.21,3.93-5.81,5.27-3.34,9.55.21,4.03-.06,8.13.12,12.16-.08,1.49-1.41,2.85-3.27,4.34-4.67,4.2-4.19,7.51,1.24,9.55,4.67,2.86.2,5.82.03,8.68.08"/><path class="b" d="M8.72,148.36c5.33-9.81,9.29-9.51,15.63-.74,2.2,2.6,3.65,6.07,6.08,8.45,4.03-.07,8.14.15,12.16-.1,2.84-2.48,4.97-5.81,7.82-8.26,5.99-4.72,9.76,4.74,13.03,8.36,10.41,0,20.85,0,31.26,0,3.17-.16,6.71.6,9.55-1.13,2.14-1.43,3.96-3.52,6.08-4.97,5.11-3.79,8.96,1.54,11.29,5.69.71.52,1.78.43,2.61.42,1.09,0,2.39,0,3.47,0,3.45,0,6.97,0,10.42,0,1.45-.69,2.18-2.65,3.47-3.59,2.82-1.59,4.96,2.14,6.95,3.59h12.16c2.66-2.13,4.65-7.33,8.68-6.55,2.91,1.1,4.05,4.48,6.08,6.55h7.82"/><path class="b" d="M8.72,147.02c2.55-4.87,6.63-11.63,12.16-5.68,2.64,2.81,4.93,6.15,6.95,9.43,3.19,4.82,2.03,4.35,7.82,4.3,1.69,0,3.52,0,5.21,0,1.01-.39,1.87-1.61,2.61-2.35,1.87-1.8,3.49-4.1,5.21-6.04,5.28-6.19,8.96-1.05,12.16,3.9,1.05,1.41,1.92,3.58,3.47,4.49,10.12,0,20.27,0,30.4,0,1.69,0,3.52,0,5.21,0,1.45.08,3.1-.09,4.34-.91,2.16-1.43,3.96-3.54,6.08-5.02,5.17-3.91,9,1.65,11.29,5.84,5.47.24,11.02.02,16.5.09,1.36-.9,2.17-2.79,3.47-3.79,2.89-1.56,4.92,2.35,6.95,3.79h12.16c1.73-1.22,2.86-3.43,4.34-4.92,4.59-5.29,7.95.59,10.42,4.48.96.7,2.36.37,3.47.44,1.39,0,2.95,0,4.34,0"/><path class="b" d="M8.72,145.37c5.64-11.22,9.51-11.33,16.5-1.03,2.29,3.17,3.96,7.14,6.95,9.74,1.69,0,3.52,0,5.21,0,1.46.06,2.53.09,3.47-1.17,1.7-1.92,3.62-3.92,5.21-5.92,2.13-2.5,4.82-7.05,8.68-5.55,3.24,1.77,4.98,5.48,6.95,8.44.99,1.35,1.85,3.51,3.47,4.19,2.58,0,5.24,0,7.82,0,8.1,0,16.22,0,24.32,0,3.25.09,6.17.13,8.68-2.3,2.51-2.01,5.12-5.3,8.68-4.73,3.38.87,5,4.47,6.95,7.03h16.5c1.39-.86,2.16-2.79,3.47-3.78,2.94-1.57,4.79,2.52,6.95,3.78,4.03,0,8.12,0,12.16,0,.62-.16,1.41-1.05,1.74-1.57.75-1.01,1.79-2.4,2.61-3.37,4.97-6.15,8.49.77,11.29,4.89,2.28.1,4.67.02,6.95.05"/><path class="b" d="M8.72,143.35c7.95-16.84,13.06-7.11,19.97,3.6,1.83,2.59,4.12,6.6,7.82,6,2.59-.73,4.37-3.15,6.08-5.07,2.4-2.54,4.44-5.6,6.95-8.03,7.5-6.65,11.44,9.97,16.5,13.17,9.54.16,19.12,0,28.66.06,1.69,0,3.52,0,5.21,0,.46-.08,1.33-.4,1.74-.63.81-.14,1.89-.42,2.61-.85,4-2.53,8.25-8.35,13.03-3.71.9.84,1.93,2.18,2.61,3.21.27.58,1.09,1.75,1.74,1.98,3.74,0,7.55,0,11.29,0,1.09,0,2.39,0,3.47,0,.81,0,1.89.1,2.61-.38,2.11-3.14,3.66-5.09,6.95-1.77.98.95,1.89,2.46,3.47,2.15,2.58,0,5.24,0,7.82,0,1.39-.07,2.99.18,4.34-.21,2.51-2.92,5.86-10.29,10.42-6.27,2.05,1.8,3.33,4.54,5.21,6.48h6.08"/><path class="b" d="M8.72,140.92c5.15-10.52,9-13.84,16.5-2.64,2.25,3.26,4.1,7.07,6.95,9.87,4.1,4.01,7.78-.44,10.42-3.68,1.41-1.65,3.01-3.49,4.34-5.2,1.39-1.64,3-3.64,5.21-4.11,6.1-.36,9.15,12.24,13.9,15.56.7.53,1.7,1.24,2.61,1.35.77,0,1.83,0,2.61,0,2.28,0,4.67,0,6.95,0,6.36,0,12.75,0,19.11,0,.42,0,1.32,0,1.74,0,1.14-.41,2.21-1.51,3.47-1.61,2.31-.53,4.14-2.39,6.08-3.63,5.79-4.1,9.07.71,12.16,5.24,3.74,0,7.55,0,11.29,0,2.27-.11,4.71.25,6.95-.2,3.3-5.32,5.12-3.82,8.68.19,4.61,0,9.28,0,13.9,0,4.47-4.67,6.77-12.03,13.03-3.84,1.08,1.19,1.95,3.18,3.47,3.84,1.69,0,3.52,0,5.21,0"/><path class="b" d="M8.72,138.18c4.92-10.19,8.79-14.94,16.5-3.37,2.25,3.26,4.09,7.09,6.95,9.89,5.35,5.07,9.72-3.51,13.03-6.89,2.08-2.34,4.22-6.24,7.82-5.92,5.14,1.6,7.78,10.74,11.29,14.75,1.76,2.06,4.22,3.99,6.95,4.43,2.57,0,5.24,0,7.82,0,5.49,0,11.01,0,16.5,0,4.24.28,2.89-.76,6.08-2.4,2.58-.43,4.7-2.22,6.95-3.42,5.09-2.96,8.81,1.55,11.29,5.58,1.05.41,2.38.2,3.47.25,1.39,0,2.95,0,4.34,0,3.74-.08,7.57.17,11.29-.11,3.69-5.52,4.69-3.34,8.68.11h14.76c2.46-3.1,5.91-9.66,10.42-5.64,1.89,1.61,3.38,3.88,5.21,5.55,1.68.19,3.52.05,5.21.09"/><path class="b" d="M8.72,135.23c5.46-11.67,9.42-15.27,17.37-2.69,2.09,3.18,3.9,6.94,6.95,9.32,5.04,3.51,9.15-4.7,12.16-7.72,2.2-2.74,5.73-7.83,9.55-4.61,5.69,5.33,6.89,14.48,13.9,18.61,1.32.74,2.82,1.69,4.34,1.93,2.57,0,5.24,0,7.82,0,5.2,0,10.44,0,15.63,0,1.03.22,2.05-.65,2.61-1.44.37-.44,1.29-1.23,1.74-1.59,1.27-.85,3.04-1.02,4.34-1.83,4.3-2.52,7.61-3.32,11.29.79,1.21,1.16,2.04,3.17,3.47,4.07,6.35-.07,12.76.15,19.11-.09,1.66-2.34,3.33-4.6,6.08-2.03,1.03.92,1.87,2.42,3.47,2.12,4.91,0,9.86.02,14.76,0,5.38-7.53,7.46-7.9,13.9-1.16.39.35,1.26.96,1.74,1.17,1.39,0,2.95,0,4.34,0"/><path class="b" d="M8.72,132.15c5.32-11.49,9.25-16.15,17.37-3.18,2.09,3.2,3.89,6.98,6.95,9.39,3.39,2.56,6.66-1.02,8.68-3.57,1.97-2.41,4.01-5.01,6.08-7.33,3.25-3.57,6.08-2.77,8.68.95,4.08,5.87,6.07,13.51,12.16,17.79,1.59,1.06,3.34,2.38,5.21,2.88,1.09,0,2.39,0,3.47,0,4.32,0,8.7,0,13.03,0,1.39,0,2.95,0,4.34,0,.78,0,1.87.08,2.61-.26,1.22-1.59,2.58-3.47,4.34-4.49,2.05-.61,4.05-1.69,6.08-2.37,5.35-1.8,8.5,3.57,11.29,7.13,6.64-.08,13.34.16,19.97-.1,2.99-4.35,4.68-3.51,7.82.1h17.37c2.14-2.45,5.05-6.18,8.68-4.23,1.84.93,3.41,2.56,5.21,3.56.73.39,1.8.5,2.61.31.78-.04,1.84.09,2.61.25"/><path class="b" d="M8.72,129.03c5.22-11.39,9.12-16.79,17.37-3.53,2.09,3.22,3.89,7.03,6.95,9.47,3.39,2.6,6.67-1.03,8.68-3.6,2.25-2.71,4.4-5.75,6.95-8.18,3.74-3.43,6.79.42,8.68,3.66,4.99,9.15,6.76,15.55,16.5,21.16,7.51.13,15.06,0,22.58.05,1.61-2.01,3.02-4.56,5.21-6.01,1.38-.57,2.95-1.15,4.34-1.68,5.61-2.31,9.58,3.28,12.16,7.45,1.05.39,2.38.2,3.47.24,1.69,0,3.52,0,5.21,0,4.03-.08,8.14.16,12.16-.1,3.53-4.51,4.19-2.73,7.82.1,6.07,0,12.17,0,18.24,0,.57-.12,1.38-.8,1.74-1.23.94-.87,2.21-1.75,3.47-2.03,3.22-.69,5.69,2.27,8.68,2.75,1.4-.1,2.91-.61,4.34-.45"/><path class="b" d="M8.72,125.93c5.19-11.4,9.03-17.2,17.37-3.71,2.1,3.25,3.89,7.09,6.95,9.56,3.39,2.64,6.68-1.02,8.68-3.6,2.25-2.72,4.38-5.78,6.95-8.21,3.79-3.45,6.91.91,8.68,4.12,2.65,4.7,4.49,10.09,7.82,14.38,1.73,2.31,3.84,4.55,6.08,6.36,1.04.75,2.18,1.94,3.47,2.23,6.94,0,13.91,0,20.84,0,1.12-.64,1.86-2.3,2.61-3.3,1.62-2.45,3.15-4.24,6.08-5.06,7.25-3.15,10.2,3.67,13.9,8.36,6.93-.07,13.92.14,20.84-.08,2.56-3.26,4.27-3.12,6.95-.07,2.25.34,4.67.07,6.95.15,4.03,0,8.13,0,12.16,0,.78,0,1.85.06,2.61-.21,1.21-.92,2.8-1.64,4.34-1.63,2.64-.07,5.19,1.92,7.82,1.08,1.03-.48,2.35-.85,3.47-1.02"/><path class="b" d="M8.72,122.93c5.2-11.5,8.98-17.35,17.37-3.72,2.31,3.5,4.12,7.94,7.82,10.21,3.27,1.58,5.98-1.88,7.82-4.13,2.53-2.95,4.68-6.55,7.82-8.9,3.61-2.26,6.32,2.38,7.82,5.07,2.14,3.94,3.81,8.42,6.08,12.29,3.01,4.64,6.55,9.36,11.29,12.33,6.94-.02,13.91.05,20.84-.03,1.85-2.83,3.47-6.2,6.08-8.43,2.57-1.5,5.99-2.62,8.68-.81,2.17,1.4,3.82,3.73,5.21,5.86.76,1.01,1.36,2.9,2.61,3.41,6.94,0,13.91.01,20.84,0,3.04-3.29,3.83-2.33,6.95,0,7.81,0,15.64,0,23.45,0,1.11.08,2.38-.2,3.47-.31,1.69-.09,3.52.27,5.21.06,1.85-.32,3.43-1.73,5.21-2.27"/><path class="b" d="M8.72,120.06c8.88-21.1,13.29-9.45,21.71,3.4,2.29,3.23,5.25,5.42,8.68,2.15,2.55-2.51,4.67-5.63,6.95-8.38,1.79-2.34,4.82-5.85,7.82-3.17,4.25,4.33,5.86,10.69,8.68,15.93,3.16,5.59,7.03,11.08,12.16,15.02,6.64.11,13.33,0,19.97.04,1.16-.72,1.88-2.54,2.61-3.64.99-1.66,2.2-3.64,3.47-5.11,8.02-7.17,12.93,2.06,16.5,8.5,1.05.4,2.38.2,3.47.24,1.39,0,2.95,0,4.34,0,4.61,0,9.28,0,13.9,0,2.42-2.01,3.71-2.32,6.08,0,7.52,0,15.06,0,22.58,0,3.45,0,6.97,0,10.42,0,1.97-.41,3.44-2.28,5.21-3.18"/><path class="b" d="M8.72,117.38c5.43-12.04,8.96-16.85,17.37-3.22,2.33,3.56,4.11,8.07,7.82,10.44,3.26,1.67,5.99-1.84,7.82-4.1,1.36-1.79,2.98-3.72,4.34-5.51,1.19-1.49,2.55-3.29,4.34-4.09,4.07-1.23,6.27,4.63,7.82,7.43,2.71,6.19,5.47,12.45,9.55,17.88,1.27,1.77,2.8,3.68,4.34,5.22,1.01.89,2.12,2.27,3.47,2.61,6.36,0,12.75,0,19.11,0,2.3-3.46,3.99-7.63,6.95-10.6,7.77-6.09,12.52,4.86,15.63,10.47,4.59.33,9.29.03,13.9.13,2.58,0,5.24,0,7.82,0,.84-.18,1.77-.89,2.61-1.08.48-.04,1.32.17,1.74.4.41.37,1.17.74,1.74.68,3.45,0,6.97,0,10.42,0,7.81,0,15.64,0,23.45,0,1.57-.98,2.9-2.61,4.34-3.76"/><path class="b" d="M8.72,114.93c2.36-4.98,6.71-16.31,13.03-8.65,3.83,4.22,6.13,9.65,9.55,14.16,2.79,3.54,5.66,3.69,8.68.32,2.09-2.4,4.13-5.1,6.08-7.61,1.73-2.33,4.74-6.28,7.82-3.64,3.89,3.91,5.46,9.69,7.82,14.55,1.39,3.14,3.39,6.28,5.21,9.18,2.35,3.64,5.09,7.3,8.68,9.8,6.07.06,12.17,0,18.24.02,1.24-.58,1.89-2.47,2.61-3.54,1.31-2.29,2.72-4.91,4.34-7,7.76-8.57,13.33,4.35,16.5,10.35,1.65.41,3.52.12,5.21.2,2.58,0,5.24,0,7.82,0,2.28,0,4.67,0,6.95,0,1.42.03,2.98.04,4.34-.4.46.02,1.32.22,1.74.4,1.39,0,2.95,0,4.34,0,3.16,0,6.39,0,9.55,0,5.2,0,10.44,0,15.63,0,1.99,0,4.09,0,6.08,0,0,0,.87-.31.87-.31,0,0,.87-.97.87-.97.76-.89,1.82-2.11,2.61-2.99"/><path class="b" d="M8.72,112.72c2.12-4.37,6.22-15.22,12.16-9.02,4.31,4.43,6.78,10.32,10.42,15.23,2.77,3.56,5.64,3.79,8.68.39,2.09-2.42,4.15-5.11,6.08-7.66,2.06-2.87,5.33-7.18,8.68-3.23,3.61,4.53,5.27,10.45,7.82,15.58,3.72,6.53,7.25,14.01,13.9,18.04h17.37c2.54-3.53,4.33-7.78,6.95-11.26,7.71-9.1,13.38,4.89,16.5,10.8.96.72,2.35.39,3.47.46,1.39,0,2.95,0,4.34,0,4.61,0,9.28,0,13.9,0,13.6,0,27.22,0,40.82,0,1.16-1.41,2.39-3.21,3.47-4.68"/><path class="b" d="M8.72,110.78c6.13-13.49,9.39-13.94,17.37-1.32,2.36,3.65,4.12,8.24,7.82,10.76,3.24,1.79,6.01-1.74,7.82-4.01,1.37-1.82,3.04-3.77,4.34-5.64,1.22-1.67,2.56-3.67,4.34-4.79,4.03-2,6.31,3.9,7.82,6.66,2.4,5.38,4.66,11.07,7.82,16.07,2.82,4.75,5.99,9.99,11.29,12.23.71.4,1.81.34,2.61.33,1.08,0,2.39,0,3.47,0,3.16,0,6.39,0,9.55,0,1.14-.6,1.91-2.27,2.61-3.3,1.95-3.14,3.62-6.76,6.08-9.55,5.96-5.91,10.41,1.96,13.03,6.86,1.13,1.83,1.89,4.5,3.47,5.99h61.66c1.44-1.28,2.4-3.45,3.47-5.02"/><path class="b" d="M8.72,109.11c1.87-3.53,5.19-12.69,10.42-9.2,2.5,1.93,4.21,4.88,6.08,7.37,2.82,4.02,4.56,9.28,8.68,12.2,3.23,1.83,6.01-1.71,7.82-3.98,1.38-1.83,3.06-3.78,4.34-5.69,1.24-1.76,2.57-3.84,4.34-5.12,3.92-2.37,6.34,3.36,7.82,6.12,2.43,5.38,4.69,11.08,7.82,16.12,2.3,3.89,4.76,8.15,8.68,10.6,2.1,1.29,4.68,1.66,6.95,2.53,1.39,0,2.95,0,4.34,0,1.39,0,2.95,0,4.34,0,.79,0,1.88.09,2.61-.32,3.36-3.95,5.33-9.05,8.68-12.99,8.21-8.07,13.01,8.07,16.5,13.31h61.66c.7-.24,1.44-1.49,1.74-2.11.43-.79,1.31-2.38,1.74-3.18"/><path class="b" d="M8.72,107.72c6.1-12.75,8.95-12.25,16.5-.91,3.39,4.49,7.85,18.19,14.76,10.36,2.1-2.46,4.24-5.15,6.08-7.81,1.47-2.1,2.9-4.72,5.21-5.99,4.99-2.08,8.62,10.45,10.42,13.81,2.19,4.71,4.83,9.45,7.82,13.69,3.36,4.52,5.9,5.43,11.29,6.25,1.55.27,2.84,1.59,4.34,1.94.77,0,1.84,0,2.61,0,1.09,0,2.39,0,3.47,0,.53-.18,1.37-.84,1.74-1.26,4.17-3.93,7.3-14.21,13.03-14.78,4.75.17,7.46,6.89,9.55,10.47.41.83,1.32,2.54,1.74,3.37,0,0,.87,1.65.87,1.65l.87.55c13.31,0,26.64,0,39.95,0,4.61,0,9.28,0,13.9,0,1.69,0,3.52,0,5.21,0,.79,0,1.88.09,2.61-.31.81-1.52,1.85-3.63,2.61-5.17"/><path class="b" d="M8.72,106.59c5.57-11.43,8.6-11.98,15.63-1.17,3.51,3.82,8.09,18.7,14.76,12.45,2.24-2.19,4.15-4.95,6.08-7.41,1.38-2.02,2.74-4.41,4.34-6.26,5.62-6.42,9.31,5.71,11.29,9.59,2.11,4.95,4.82,9.86,7.82,14.33,3.86,5.28,5.86,5.86,12.16,6.12,4.08.86,6.74,5.31,11.29,2.22,3.78-2.88,5.82-7.51,8.68-11.19,8.62-11.04,14.22,6.86,18.24,12.79,20.55-.06,41.12.11,61.66-.06.82-1.64,1.85-3.91,2.61-5.58"/><path class="b" d="M8.72,105.7c5.03-10.11,8.24-11.68,14.76-1.47,1.92,2.5,3.67,5.42,5.21,8.16,1.92,3.14,5.18,9.21,9.55,6.19,1.68-1.22,3.08-3.11,4.34-4.74,2.29-2.66,4.15-5.87,6.08-8.79,5.31-8.06,8.9.42,11.29,5.52,1.94,4.58,4.29,9.23,6.95,13.44,2.16,3.38,5.09,7.45,9.55,7.33,1.69,0,3.53-.44,5.21-.11,3.43,1.13,6.52,5.05,10.42,2.94,4.25-2.53,6.29-7.49,9.55-11.02,9.08-9.29,13.48,8.97,18.24,13.9h60.79c.88-1.65,1.87-4.03,2.61-5.75"/><path class="b" d="M8.72,105.04c6.83-13.62,9.93-7.44,16.5,1.73,2.73,3.37,6.71,14.75,12.16,12.42,2.18-1.12,3.73-3.36,5.21-5.24,1.14-1.45,2.55-3.15,3.47-4.76,6.94-12.78,9.74-8.9,14.76,2.15,2.38,5.01,6.88,14.98,12.16,17,2.87,1.08,5.79-.8,8.68-.53,3.36.87,5.79,4.62,9.55,4.16,4.9-1.14,7.1-6.54,10.42-9.82,6.92-7.29,11.5,2.04,14.76,7.6.74,1.33,1.8,3.15,2.61,4.44,0,0,.87,1.3.87,1.3l.87.55h59.92c.93-1.65,1.87-4.09,2.61-5.84"/><path class="b" d="M8.72,104.56c3.18-6.01,6.71-11.33,12.16-3.63,1.96,2.87,4.28,5.74,6.08,8.72,2.12,3.14,5.02,10.47,9.55,9.92,2.7-.75,4.41-3.45,6.08-5.52,1.15-1.46,2.56-3.17,3.47-4.8,3.33-5.58,6.98-13.62,12.16-4.19,3.29,5.68,7.92,19.35,14.76,20.91,3.56.75,7.03-3.2,10.42-1.13,2.03,1.26,3.85,3.11,6.08,4.04,5.5,2.02,8.78-4.52,12.16-7.66,7.95-8.04,12.73,3.9,16.5,9.67.98,1.34,1.85,3.51,3.47,4.14,3.16,0,6.39,0,9.55,0,16.5,0,33.01,0,49.5,0,.92-1.69,1.87-4.16,2.61-5.93"/><path class="b" d="M8.72,104.21c7.38-14.36,11.17-3.79,17.37,4.1,2.44,3.4,5.09,10.54,9.55,11.29,2.69,0,4.52-2.57,6.08-4.45,1.42-1.89,3.18-3.88,4.34-5.96,2.15-3.25,5.7-12.62,10.42-7.4,4.55,5.21,8.63,21.34,16.5,21.66,3.88-.02,7.63-5.14,11.29-1.79,2.96,2.26,6.28,6.39,10.42,4.56,3.45-1.63,5.55-5.19,8.68-7.25,7.52-5.31,12.06,6.74,15.63,11.5.92,1.23,1.95,3.04,3.47,3.56,2.57,0,5.24,0,7.82,0,16.79,0,33.59,0,50.37,0,.85-1.76,1.86-4.24,2.61-6.05"/><path class="b" d="M8.72,103.94c7.11-13.09,10.36-4.55,16.5,3.1,2.91,3.53,5.68,11.6,10.42,12.49,2.68.06,4.53-2.48,6.08-4.33,1.43-1.88,3.19-3.88,4.34-5.96,1.9-2.79,5.16-11.65,9.55-8.69,5.31,4.17,9,21.95,17.37,20.43,3.84-.72,7.38-6.67,11.29-3.17,4.31,3.66,7.98,9.29,13.9,4.49,2.46-1.91,4.75-4.43,7.82-5.35,6.38-1.55,10.48,8.83,13.9,12.87,3.26,4.11,3.94,3.14,8.68,3.23,11.28,0,22.59,0,33.87,0,3.74,0,7.55,0,11.29,0,1.39,0,2.95,0,4.34,0,.78,0,1.88.08,2.61-.29.82-1.74,1.85-4.16,2.61-5.93"/><path class="b" d="M8.72,103.72c4.36-7.57,7.68-8.89,13.03-1.19,1.59,2.34,3.74,4.53,5.21,6.95,2.08,3.18,3.82,7.04,6.95,9.34,2.59,1.79,5.27-.34,6.95-2.35,1.43-1.74,3.06-3.68,4.34-5.54,2.43-3.52,3.95-8.71,7.82-10.9,7.59-2.34,10.79,27.2,22.58,16.93,1.89-1.45,3.63-3.67,6.08-4.13,1.77-.03,3.17,1.59,4.34,2.72,1.86,1.93,3.7,4.2,6.08,5.52,4.57,2.52,8.38-2.36,12.16-4.24,9.43-5.09,12.78,11.73,20.84,15.2h54.71c1.73-1.52,2.39-4.47,3.47-6.46"/><path class="b" d="M8.72,103.54c7.4-12.52,11.25-2.26,17.37,4.43,2.63,3.35,5.67,11.44,10.42,11.54,2.67-.34,4.46-2.87,6.08-4.78,1.19-1.44,2.58-3.18,3.47-4.82,3.42-5.85,7.19-15.62,13.03-5.33,2.69,4.08,6.59,15.54,13.03,12.5,2.76-1.53,4.65-4.34,6.95-6.43,2.86-2.74,4.67-1.36,6.95,1.14,4.19,4.69,7.91,10.78,14.76,6.18,2.4-1.34,4.93-3.24,7.82-3.02,6.5,1.23,8.94,9.57,13.9,13.24,1.37.93,2.76,2.31,4.34,2.86,1.99,0,4.09,0,6.08,0,15.63,0,31.27,0,46.9,0,1.27-2,2.43-4.6,3.47-6.72"/><path class="b" d="M8.72,103.39c7.39-11.55,11.23-1.86,17.37,4.4,2.79,3.34,6.69,13.76,12.16,11.38,2.91-1.65,4.97-4.69,6.95-7.3,2.61-3.5,6.64-16.15,12.16-9.74,3.79,4.33,5.11,11.14,10.42,14.01,3.86,1.3,6.56-3,8.69-5.54,1.67-1.88,3.28-5.02,6.08-5.11,1.82.52,3.16,2.29,4.34,3.66,1.64,2.03,3.31,4.33,5.21,6.12,7.01,6.75,11.35-2.95,18.24-1.01,5.43,2.19,7.7,8.37,12.16,11.82,1.09.87,2.41,1.89,3.47,2.8.6.65,1.67,1.35,2.61,1.16,16.79,0,33.59,0,50.37,0,2.04-1.68,2.98-4.76,4.34-6.98"/><path class="b" d="M8.72,103.27c5.31-7.49,8.76-5.4,13.9.73,1.81,1.9,3.91,3.81,5.21,6.13,2.04,3.06,3.82,6.76,6.95,8.87,4.26,2.5,8.15-3.7,10.42-6.59,2.4-3.42,4.6-10.38,8.68-11.75,4.76-.44,7.81,10.17,11.29,13.1,6.41,6.16,10.93-6.75,14.76-10.28,2.31-2.55,4.27-.96,6.08,1.16,3.29,3.73,5.64,8.96,10.42,11.03,3.66,1.31,7.02-1.49,10.42-2.41,5.89-1.54,9.6,4.68,13.03,8.39,2.37,2.62,5.5,4.6,7.82,7.28,9.81.32,19.7.01,29.53.11,4.61,0,9.28,0,13.9,0,1.69,0,3.52,0,5.21,0,.79,0,1.87.07,2.61-.26,1.51-2.16,3.04-4.68,4.34-6.97"/><path class="b" d="M8.72,103.17c7.01-8.85,10.55-1.6,16.5,3.36,3.84,3.87,5.49,10.05,10.42,12.81,3.99,1.57,7.45-3.68,9.55-6.4,2.3-3.17,5.23-11.97,9.55-11.99,4.03.95,6.2,7.39,8.69,10.45,7.69,10.34,12.45-7.49,17.37-11.65,2.3-2.14,4.7.95,6.08,2.7,3.2,4,5.58,9.36,10.42,11.64,3.59,1.47,6.98-1.27,10.42-1.9,5.38-.91,8.9,4.35,12.16,7.75,1.54,1.7,3.57,3.17,5.21,4.76,1.15.98,2.14,2.62,3.47,3.34h49.5c1.74-2.38,3.65-4.93,5.21-7.44"/><path class="b" d="M8.72,103.1c4.23-4.67,7.72-4.44,12.16-.23,1.58,1.61,3.61,2.96,5.21,4.53,3.39,3.74,5.53,10.26,10.42,12.19,3.74.77,6.7-3.57,8.68-6.17,2.55-3.37,6.61-16.17,12.16-10.88,3.35,3.2,4.72,8.35,8.68,10.91,6.83,3.05,10.77-14.01,15.63-17.03,2.67-1.14,4.66,2.47,6.08,4.21,1.7,2.44,3.39,5.17,5.21,7.52,9.06,11.98,13.14-2.69,22.58,5.93,2.1,1.87,3.98,4.21,6.08,6.08,2.57,1.97,4.74,4.55,6.95,6.87h48.63c2.07-2.41,4.19-5.04,6.08-7.59"/><path class="b" d="M8.72,103.05c4.32-4.06,7.93-3.24,12.16.36,1.89,1.77,4.49,2.91,6.08,4.99,2.98,3.48,5.64,10.32,10.42,11.31,3.5.08,5.92-3.39,7.82-5.91,3.78-5.63,7.72-19.14,14.76-8.13,4.1,6.36,7.53,11.63,13.03,2.72,1.54-2.5,2.99-5.46,4.34-8.06,1.28-2.05,3.17-7.11,6.08-6.61,2.34.96,3.8,3.48,5.21,5.46,1.93,2.91,3.82,6.11,6.08,8.79,7.62,9.21,11.73-1.83,19.97,4.47,2.19,1.66,4.11,3.88,6.08,5.78,2.85,2.36,5.46,4.96,7.82,7.82h47.77c1.04-.62,1.82-2.11,2.61-2.99,1.43-1.47,3.04-3.1,4.34-4.7"/><path class="b" d="M8.72,103.01c4.34-3.34,8.17-2,12.16,1.03,1.58,1.3,3.63,2.17,5.21,3.44,3.65,3.27,7.29,13.3,13.03,12.06,7.83-2.24,10.71-20.93,17.37-17.65,3.41,2.19,4.93,6.42,7.82,9.15,8.46,7.66,12.96-20.05,19.11-19.53,4.12,1.37,8.12,10.74,11.29,14.35,8.01,10.63,11.77-1.13,20.84,6.56,2.11,1.75,4.02,3.96,6.08,5.76,2.58,1.95,4.76,4.5,6.95,6.84,10.41,0,20.85,0,31.26,0,3.45,0,6.97,0,10.42,0,1.09,0,2.39,0,3.47,0,.81,0,1.9.1,2.61-.38.71-1.06,1.73-2.47,2.61-3.4,1.42-1.24,3.05-2.56,4.34-3.94"/><path class="b" d="M8.72,103c4.26-2.55,8.41-.75,12.16,1.77,1.58,1.16,3.63,1.78,5.21,2.91,3.91,3.18,7.8,13.89,13.9,11.54,7.31-2.83,10.37-21.97,17.37-16.96,3.08,2.4,4.58,6.51,7.82,8.73,8.38,4.97,12.78-24.12,19.11-21.04,2.28,1.28,3.78,3.82,5.21,5.93,2.44,3.74,4.66,7.89,7.82,11.1,3.18,3.22,5.51,2.54,9.55,1.99,5.46-.75,9.53,3.65,13.03,7.18,1.59,1.6,3.58,3.03,5.21,4.57,1.15.96,2.14,2.6,3.47,3.32,15.63-.01,31.27.02,46.9-.01.97-1.48,2.18-3.23,3.47-4.45,1.41-1.01,3.07-2.02,4.34-3.22"/><path class="b" d="M8.72,103c4.21-1.73,8.52.49,12.16,2.57,1.68,1.07,3.63,1.4,5.21,2.39,4.55,3.38,8.65,15.33,15.63,10.09,5.69-3.47,9.41-22.07,16.5-15.53,2.75,2.42,4.3,6.47,7.82,7.94,7.94,2.3,12.1-24.47,18.24-22.1,2.3,1.09,3.8,3.55,5.21,5.57,2.25,3.42,4.35,7.18,6.95,10.37,7.13,8.86,10.54-1.47,20.84,9.13,1.38,1.35,2.87,2.94,4.34,4.19,2.07,1.65,4.31,3.38,6.08,5.36,15.63.09,31.27,0,46.9.03,1.56-1.47,2.6-3.73,4.34-5.03,1.41-.79,3.08-1.49,4.34-2.54"/><path class="b" d="M8.72,103.04c4.01-.81,7.81,1.3,11.29,3.02,1.07.52,2.34,1.1,3.47,1.44,1.21.23,2.57.66,3.47,1.55,3.55,3.15,5.69,8.4,10.42,9.99,7.55.93,10.38-12.17,14.76-16.61,7.18-7.74,10.89,13.1,18.24,5.39,4.35-5.07,6.2-11.88,9.55-17.58,2.93-5.38,5.77-3.1,8.68.8,2.42,3.34,4.52,7.12,6.95,10.46,1.92,2.54,4.33,5.63,7.82,5.64,6.92-.1,10.2,2.49,14.76,7.34,2.49,2.88,5.78,5,8.68,7.41,3.43.3,6.97.04,10.42.12,5.78,0,11.59,0,17.37,0,4.32,0,8.7,0,13.03,0,1.39,0,2.95,0,4.34,0,.79,0,1.88.08,2.61-.3,1.4-2.01,2.82-4.64,5.21-5.56,1.2-.2,2.46-.9,3.47-1.54"/><path class="b" d="M8.72,103.09c4.1-.04,7.66,2.4,11.29,3.98,1.06.47,2.34.94,3.47,1.19.8.13,1.88.23,2.61.64,3.08,2.02,5.05,5.46,7.82,7.85,5.66,5.4,10.53-1.15,13.03-6.15,1.96-3.25,4.44-10.23,8.68-10.62,5.41.48,7.75,11.32,13.9,7.56,4.76-4.24,6.53-10.95,9.55-16.39,1.23-2.15,2.99-6.17,6.08-4.65,3.54,2.17,5.51,6.27,7.82,9.58,9.78,15.66,9.67,6.04,19.97,13.71,2.83,2.32,5.17,5.33,7.82,7.85,1.53,1.27,3.28,2.82,5.21,3.39,1.39,0,2.95,0,4.34,0,3.74,0,7.55,0,11.29,0,10.7,0,21.43,0,32.13,0,1.94-1.97,3.15-5.36,6.08-6.07,1.18,0,2.47-.55,3.47-1.12"/><path class="b" d="M8.72,103.18c5.83,1,10.38,6.13,16.5,6.06,1.72.42,3.13,1.89,4.34,3.09,2.29,2.26,4.52,5.26,7.82,6.01,4.06.5,6.89-3.58,8.68-6.67,2.38-3.88,4.43-10.36,8.68-12.4,5.9-1.48,9.05,12.01,15.63,6.44,4.07-4.14,5.94-10.04,8.68-15.05,1.27-2.17,2.94-6.12,6.08-4.93,4.83,2.5,8.38,10.79,12.16,15.04,1.38,1.62,3.07,3.43,5.21,3.96,8.46,1.34,12.01,7,17.37,12.83.97.89,2.09,2.3,3.47,2.47,1.69,0,3.52,0,5.21,0,3.74,0,7.55,0,11.29,0,7.23,0,14.49,0,21.71,0,2.57,0,5.24,0,7.82,0,1.39-.07,3,.19,4.34-.21,1.58-2.18,3.13-5.56,6.08-5.94,1.15.18,2.47-.24,3.47-.78"/><path class="b" d="M8.72,103.3c4.07,1.28,7.31,4.43,11.29,5.94,1.62.65,3.47.91,5.21.81,1.27.19,2.51,1.08,3.47,1.88,6.46,6.11,10.35,9.49,16.5.57,2.85-4.28,4.97-11.75,9.55-14.22,3.82-1.11,6.12,3.41,8.69,5.42,3.92,3.49,6.95,1.83,9.55-2.08,2.67-3.99,4.54-8.68,6.95-12.82,2.02-3.6,4.37-5.21,7.82-1.95,3.06,3.01,5.29,6.91,7.82,10.35,1.68,2.25,3.53,4.78,6.08,6.09,6.45,1.74,9.83,4.85,13.9,9.99,1.67,1.85,3.07,4.42,5.21,5.74h52.11c2.31-1.78,3.5-6.19,6.95-6.14,1.12.34,2.46.02,3.47-.51"/><path class="b" d="M8.72,103.47c4.8,2.13,8.46,6.87,13.9,7.52.78.08,1.83.02,2.61-.05.85.06,1.89.51,2.61.95,4.88,3.37,9.12,8.82,14.76,3.08,5.11-4.8,6.28-14.11,12.16-17.88,4.21-1.57,7.03,4.51,10.42,6.16,5.57,3.38,9.06-4.34,11.29-8.26,1.84-3.22,3.28-7.13,6.08-9.67,4.52-2.73,8.93,5.35,11.29,8.3,2.05,2.81,4.11,5.95,6.95,8.04,1.28.86,2.99,1.22,4.34,1.95,2.7,1.35,5.01,3.58,6.95,5.87,1.47,1.75,2.99,3.81,4.34,5.65.69.9,1.55,2.36,2.61,2.88h53.84c1.84-2.1,3.66-6.42,6.95-6.04,1.09.46,2.46.23,3.47-.33"/><path class="b" d="M8.72,103.69c5.31,2.95,9.67,9.6,16.5,8.23,4.8.47,7.67,6.01,13.03,5.04,9-2.95,9.4-16.28,16.5-21.18,6.5-3.14,11.23,15.42,19.97,1.64,5.5-8.22,7.65-20.2,17.37-7.04,2.5,3.21,4.78,6.84,7.82,9.58,1.44,1.36,3.57,1.83,5.21,2.86,5.4,3.36,8.4,9.3,12.16,14.21,11.86,0,23.74,0,35.61,0,4.32,0,8.7,0,13.03,0,1.39,0,2.95,0,4.34,0,.78,0,1.86.07,2.61-.25,6.64-9.67,5.79-3.61,10.42-5.86"/><path class="b" d="M8.72,103.97c4.67,2.89,8.04,8.59,13.9,9.19,1.41.09,2.96-.48,4.34.02,1.48.47,2.97,1.38,4.34,2.11.74.41,1.74.86,2.61.73,1.69,0,3.52,0,5.21,0,.9-.33,1.91-1.15,2.61-1.8,4.19-3.88,5.94-9.67,8.68-14.52,1.11-1.92,2.43-4.16,4.34-5.37,6.09-3.48,11.19,13.39,19.11,3.45,2.31-2.94,4.08-6.51,6.08-9.65,2.24-3.74,4.95-5.44,8.68-2.2,4.31,3.83,7.01,9.24,11.29,13.1,1.76,1.58,4.31,2.11,6.08,3.69,2.79,2.28,4.98,5.4,6.95,8.39,1.1,1.51,2.02,3.7,3.47,4.91h55.58c1.05-.57,1.84-2.03,2.61-2.9,1.26-1.44,3.07-3.57,5.21-2.78,1.06.63,2.47.43,3.47-.23"/><path class="b" d="M8.72,104.31c4.25,2.88,7.17,7.82,12.16,9.58.75.24,1.81.39,2.61.35,1.09-.13,2.38-.4,3.47-.1.79.2,1.83.61,2.61.87,1.09,0,2.39,0,3.47,0,2.28-.02,4.67.05,6.95-.04,2.04-1.61,3.87-3.81,5.21-6.02,2.68-4,6.58-17.54,12.16-16.76,1.67.35,3.11,1.66,4.34,2.76,1.56,1.4,3.36,2.81,5.21,3.79,6.92,3.34,10.9-9.46,14.76-13.33,3.57-4.08,8.02.62,10.42,3.6,2.28,2.76,4.42,5.86,6.95,8.42,1.61,1.86,4.16,2.54,6.08,3.97,2.86,2.22,5.02,5.4,6.95,8.43,1.11,1.59,2.02,3.87,3.47,5.18h56.45c8.23-10.29,6.56-2.95,11.29-5.79"/><path class="b" d="M8.72,104.82c3.79,2.64,6.35,6.94,10.42,9.2,6.94,0,13.91,0,20.84,0,7.25-4.16,10.41-24.15,17.37-23.64,1.66.25,3.11,1.51,4.34,2.58,1.59,1.39,3.4,2.8,5.21,3.88,6.62,3.65,10.49-7.03,13.9-10.98,6.04-8.38,13.22,6.03,17.37,9.95.97,1.05,2.23,2.22,3.47,2.93.79.36,1.88.86,2.61,1.35,4.79,3.43,7.33,9.1,10.42,13.93,12.44,0,24.9,0,37.34,0,4.32,0,8.7,0,13.03,0,1.39,0,2.95,0,4.34,0,.79,0,1.88.08,2.61-.3,7.88-9.74,6.71-2.52,11.29-5.57"/><path class="b" d="M8.72,105.64c2.93,2.03,5,5.22,7.82,7.37h23.45c2.17-1.55,3.78-4.24,5.21-6.46,2.85-4.65,6.06-16.55,11.29-18.12,2-.35,3.78,1.14,5.21,2.34,1.33,1.16,2.92,2.32,4.34,3.37,6.46,5.11,10.58-3.54,13.9-7.95,1.92-2.79,4.46-4.99,7.82-2.8,4.25,2.93,6.91,7.67,10.42,11.35.97,1.04,2.23,2.21,3.47,2.92,1.17.51,2.51,1.23,3.47,2.08,2.48,2.17,4.39,5.14,6.08,7.95,1.14,1.59,1.86,4.16,3.47,5.32h56.45c9.45-10.85,7.44-2.82,12.16-6.38"/><path class="b" d="M8.72,106.7c1.21.84,2.46,2.07,3.47,3.13.75.7,1.54,1.96,2.61,2.18,1.99,0,4.09,0,6.08,0,6.36,0,12.75,0,19.11,0,2.4-2.49,4.55-5.59,6.08-8.7,2.49-4.59,5.42-15.08,10.42-16.89,1.96-.45,3.78.95,5.21,2.11,1.35,1.13,2.95,2.27,4.34,3.35,4.87,3.91,8.15,1.02,11.29-3.17,1.86-2.29,3.41-5.32,6.08-6.78,5.12-1.99,10,6.34,13.03,9.54,1.27,1.49,2.76,3.14,4.34,4.31,1.03.74,2.47,1.24,3.47,2.02,4.38,3.59,6.88,9.03,9.55,13.9.75.38,1.8.3,2.61.3,1.39,0,2.95,0,4.34,0,4.32,0,8.7,0,13.03,0,12.15,0,24.32,0,36.48,0,2.9-2.02,4.8-6.31,8.68-6.57,1.96.57,2.69.81,4.34-.68"/><path class="b" d="M8.72,107.89c1.21.82,2.46,2.04,3.47,3.09,5.78.06,11.59,0,17.37.02,3.45-.09,6.99.18,10.42-.12,1.78-2.37,3.72-4.95,5.21-7.52,2.73-5.17,4.54-11.06,7.82-15.95,4.32-6.26,7.77-1.51,12.16,1.55,4.32,3.7,7.46,3.93,11.29-.53,2.03-2.24,3.7-5.08,6.08-6.99,5.4-3.56,10.67,5.2,13.9,8.56,1.28,1.48,2.77,3.1,4.34,4.27,1.04.75,2.48,1.28,3.47,2.1,4.39,3.82,6.86,9.45,9.55,14.49,2.26.3,4.67.06,6.95.13,4.32,0,8.7,0,13.03,0,11.86,0,23.74,0,35.61,0,3.09-1.74,6.26-8.33,10.42-7.31,1.24.6,2.61-.23,3.47-1.12"/><path class="b" d="M8.72,109.14c.94.93,2.25.92,3.47.86,1.4,0,2.95,0,4.34,0,4.62,0,9.28,0,13.9,0,2.87,0,5.82,0,8.68,0,1.56-.67,2.42-2.98,3.47-4.26,3.86-5.12,5.73-11.54,8.68-17.16,5.4-10.33,8.51-5.53,15.63-.39,5.79,4.59,9.52-1.02,13.03-5.22,2.76-3.54,5.71-4.81,9.55-1.8,4.52,3.5,7.37,8.91,12.16,12.09,6.09,2.95,9.06,10.94,12.16,16.61,2.26.33,4.67.06,6.95.14,4.03,0,8.12,0,12.16,0,11.28,0,22.59,0,33.87,0,2.4.26,2.82-.7,4.34-2.28,2.12-2.16,4.07-4.96,6.95-6.13,2.5-.48,2.87,1.03,5.21-1.42"/><path class="b" d="M8.72,109h30.4c1.45-1.18,2.4-3.3,3.47-4.79,1.64-2.32,3.24-5.06,4.34-7.69,2.26-4.25,6.42-18.95,13.03-15.14,2.06,1.27,4.16,2.75,6.08,4.23,3.1,2.57,6.23,3.71,9.55.76,2.52-2.12,4.35-5.14,6.95-7.17,5.23-3.35,9.81,3.19,13.03,6.57,1.59,1.79,3.31,3.76,5.21,5.23,1.05.78,2.5,1.4,3.47,2.29,4.37,4.21,6.81,10.1,9.55,15.4.75.38,1.8.3,2.61.29,1.39,0,2.95,0,4.34,0,4.03,0,8.12,0,12.16,0,11.57,0,23.17,0,34.74,0,3.87-2.35,6.8-8.75,11.29-9.86,2.13.24,2.85.04,4.34-1.57"/><path class="b" d="M8.72,108h30.4c1.31-1.47,2.39-3.58,3.47-5.21,1.61-2.33,3.24-5.07,4.34-7.69,2.28-4.28,6.41-18.77,13.03-15.17,2.06,1.2,4.18,2.6,6.08,4.04,3.06,2.49,6.19,3.79,9.55.96,2.53-2.02,4.38-4.96,6.95-6.95,5.12-3.41,9.83,2.72,13.03,6.12,1.61,1.78,3.33,3.75,5.21,5.24,1.05.8,2.51,1.47,3.47,2.4,4.34,4.35,6.78,10.32,9.55,15.71l.87.54h52.11c2.66-1.95,4.77-4.72,6.95-7.15,1.46-1.57,3.06-3.52,5.21-4.12.43-.04,1.31-.05,1.74-.02.97-.23,1.97-1.13,2.61-1.86"/><path class="b" d="M8.72,107h30.4c1.23-1.61,2.38-3.76,3.47-5.46,1.59-2.34,3.24-5.05,4.34-7.66,1.86-4.06,3.58-8.52,6.08-12.24,1.96-2.89,4.57-4.49,7.82-2.36,1.69,1.09,3.6,2.15,5.21,3.37,3.67,2.88,6.79,3.63,10.42.2,2.09-1.89,3.84-4.38,6.08-6.1,5.97-3.89,11.05,3.9,14.76,7.63,1.02,1.12,2.3,2.42,3.47,3.38,1.06.83,2.51,1.55,3.47,2.51,2.98,2.99,5.01,6.97,6.95,10.67,1.12,1.85,1.84,4.61,3.47,6.07,15.34,0,30.69,0,46.03,0,5.12,0,4.9.6,8.68-3.25,2.94-2.94,5.17-6.83,8.68-9.14.7-.4,1.81-.54,2.61-.55.97-.31,1.96-1.25,2.61-2"/><path class="b" d="M8.72,106h30.4c1.24-1.62,2.37-3.79,3.47-5.51,2.03-2.89,3.83-6.25,5.21-9.5,2.15-4.26,4.21-10.97,8.68-13.2,2.17-.78,4.3.67,6.08,1.76,5.08,2.71,8.42,7.2,13.9,2.04,2.09-1.89,3.84-4.37,6.08-6.11,5.94-3.97,11.09,3.49,14.76,7.31,1.74,2.01,3.82,3.88,6.08,5.28,5.39,4.74,7.43,12.11,11.29,17.92,15.05,0,30.11,0,45.16,0,1.39-.03,2.96.07,4.34-.08,1.55-.82,3.09-2.05,4.34-3.28,3.4-3.23,5.77-7.65,9.55-10.47.69-.46,1.79-.7,2.61-.78.96-.38,1.95-1.35,2.61-2.12"/><path class="b" d="M8.72,105h30.4c1.68-1.91,2.86-4.58,4.34-6.65,2.55-3.52,4.19-7.87,6.08-11.75,1.86-3.4,4.08-9.45,8.68-9.36,2.51.46,4.7,2.18,6.95,3.3,4.89,3.39,7.96,3.52,12.16-.95,1.95-1.95,3.65-4.49,6.08-5.89,5.84-2.79,10.37,3.96,13.9,7.63,1.03,1.16,2.31,2.52,3.47,3.54,1.06.9,2.51,1.7,3.47,2.72,4.62,4.97,7.03,11.63,10.42,17.41,10.41,0,20.85,0,31.26,0,3.45,0,6.97,0,10.42,0,1.09,0,2.39,0,3.47,0,1.12.03,2.49.07,3.47-.57,6.52-3.05,9.49-10.21,14.76-14.69.67-.5,1.78-.86,2.61-1.02.94-.44,1.94-1.44,2.61-2.22"/><path class="b" d="M8.72,104h30.4c1.58-1.03,2.36-3.38,3.47-4.85,3.65-4.88,5.72-10.83,8.68-16.1,5.04-8.56,7.42-5.94,14.76-2.16,5.86,3.7,9.28.11,13.03-4.32,7.57-10.04,13.18-2.29,19.11,4.43,1.01,1.14,2.28,2.45,3.47,3.4.83.55,1.91,1.37,2.61,2.1,4.52,5.05,7.19,11.57,10.42,17.45,10.12.16,20.27,0,30.4.06,3.45,0,6.97,0,10.42,0,1.39,0,2.95,0,4.34,0,.82-.21,1.84-.77,2.61-1.14,6.62-2.92,10.03-9.69,14.76-14.74.89-.93,2.22-1.71,3.47-2.01.92-.5,1.93-1.5,2.61-2.29"/><path class="b" d="M8.72,102.99c10.41-.05,20.86.1,31.26-.06,2.23-3.73,5.11-7.28,6.95-11.24,2.28-4.36,4.08-9.47,7.82-12.84,2.13-1.82,4.76-1.08,6.95.21,1.96.95,4.06,1.91,6.08,2.72,7.47,2.4,10.38-7.31,15.63-10.47,6.94-3.62,12.26,6.46,16.5,10.49,1.24,1.38,3.06,2.43,4.34,3.77,4.45,5,7.15,11.39,10.42,17.16,1.04.44,2.37.22,3.47.27,1.99,0,4.09,0,6.08,0,5.78,0,11.59,0,17.37,0,3.74,0,7.55,0,11.29,0,1.39,0,2.95,0,4.34,0,.88.07,1.98-.04,2.61-.74,1.63-1.08,3.58-1.95,5.21-3.02,4.36-2.82,7.26-7.36,10.42-11.36.96-1.2,2.19-2.62,3.47-3.49.4-.22,1.3-.63,1.74-.79.9-.54,1.91-1.55,2.61-2.33"/><path class="b" d="M8.72,101.99h31.26c1.15-.52,1.87-2.18,2.61-3.14,1.15-1.62,2.56-3.53,3.47-5.31,2.59-4.28,5.84-14.34,11.29-15.02,1.85-.08,3.6.98,5.21,1.74,1.96.72,3.99,1.73,6.08,2.02,7.4.43,9.75-9.87,15.63-12.49,6.64-2.44,11.64,7.22,15.63,11.16,1.55,1.74,3.78,3.01,5.21,4.87,3.82,4.79,6.49,10.53,9.55,15.81.46.25,1.22.45,1.74.37,1.09,0,2.38,0,3.47,0,3.16,0,6.39,0,9.55,0,9.26,0,18.54,0,27.79,0,1.55-.6,2.78-2.24,4.34-3,3.2-1.71,6.34-3.8,8.68-6.61,2.72-3.03,4.9-6.7,7.82-9.55.66-.63,1.77-1.27,2.61-1.62.88-.57,1.9-1.58,2.61-2.35"/><path class="b" d="M8.72,100.99h32.13c1.04-.64,1.87-2.14,2.61-3.08,1.29-1.6,2.52-3.73,3.47-5.56,2.4-4.01,5.63-13.28,11.29-12.68,1.49.24,2.98,1.08,4.34,1.68,1.93.66,4.01,1.49,6.08,1.49,7.62-.52,9.94-12.46,16.5-14.35,6.3-1.31,10.98,7.94,14.76,11.83,1.53,1.79,3.76,3.11,5.21,4.98,3.76,4.68,6.46,10.25,9.55,15.37,1.59.64,3.53.19,5.21.32,3.16,0,6.39,0,9.55,0,8.97,0,17.96,0,26.92,0,1.75-1.35,3.29-3.25,5.21-4.39,2.72-1.6,5.62-3.17,7.82-5.47,3.18-3.14,5.55-7.16,8.68-10.34.67-.66,1.76-1.35,2.61-1.76.86-.59,1.88-1.58,2.61-2.33"/><path class="b" d="M8.72,99.99c10.7,0,21.43,0,32.13,0,1.19.21,2.02-.64,2.61-1.55,1.69-2.03,3.09-4.65,4.34-6.97,1.51-2.76,3.1-5.82,5.21-8.18,2.68-2.99,5.38-2.69,8.68-.94,4.83,2.04,8.54,2.18,12.16-2.04,2.9-3.23,4.94-7.31,7.82-10.56,5.3-5.53,10.49.07,13.9,4.6,1.66,2.14,3.36,4.54,5.21,6.52,1.37,1.35,3.16,2.58,4.34,4.12,3.7,4.56,6.43,9.96,9.55,14.91,7.21.25,14.49.01,21.71.09,6.35-.1,12.77.2,19.11-.12,1.87-2.02,3.79-4.28,6.08-5.85,2.62-1.63,5.57-2.97,7.82-5.14,3.24-2.96,5.63-6.84,8.68-9.96.68-.67,1.76-1.41,2.61-1.86.84-.61,1.87-1.57,2.61-2.3"/><path class="b" d="M8.72,98.99h34.74c4.56-4.1,7.86-18.53,15.63-16.12,2.74,1.1,5.63,2.56,8.68,2.06,7.43-1.7,9.91-13.3,15.63-17.32,6.84-3.96,11.99,6.79,15.63,11.05,1.93,2.74,5.01,4.57,6.95,7.3,3.25,4.04,5.49,8.98,8.68,13.03h39.08c2.82-2.26,4.78-5.69,7.82-7.75,2.52-1.62,5.52-2.66,7.82-4.64,3.29-2.67,5.72-6.34,8.68-9.32,1.62-1.45,3.7-2.56,5.21-4.15"/><path class="b" d="M8.72,97.99c7.81,0,15.64,0,23.45,0,4.32-.1,8.73.2,13.03-.13,3.03-4.04,6.38-13.65,12.16-13.61,1.82.12,3.54,1.14,5.21,1.76,4.43,1.49,7.79-.38,10.42-3.94,3.56-4.48,5.56-10.26,9.55-14.41,5.29-4.48,10.16,2.05,13.03,6.11,1.65,2.31,3.33,4.89,5.21,7.02,1.33,1.4,3.13,2.65,4.34,4.18,3.27,3.91,5.87,8.5,8.68,12.74,1.04.45,2.37.23,3.47.27,1.69,0,3.52,0,5.21,0,5.2,0,10.44,0,15.63,0,3.16,0,6.39,0,9.55,0,1.39,0,2.95,0,4.34,0,.59-.14,1.39-.9,1.74-1.37,3.01-3.21,5.49-7.39,9.55-9.37,2.02-.9,4.25-1.7,6.08-2.97,3.34-2.25,5.81-5.64,8.68-8.41,1.62-1.41,3.66-2.56,5.21-4.07"/><path class="b" d="M8.72,96.99h37.34c1.52-1.15,2.35-3.44,3.47-4.96,1.7-2.48,3.72-5.62,6.95-6.06,2.15-.19,4.13,1.08,6.08,1.77,3.27,1.09,6.55-.2,8.68-2.79,3.23-3.77,5.36-8.5,7.82-12.77,4.41-8.41,9.34-8.28,14.76-.78,2.35,3.13,4.39,6.71,6.95,9.68,1.32,1.42,3.12,2.66,4.34,4.18,1.88,2.19,3.62,4.79,5.21,7.2,1.09,1.39,1.91,3.63,3.47,4.54,8.97,0,17.96,0,26.92,0,2.28,0,4.67,0,6.95,0,1.12-.07,2.53.28,3.47-.48,2.48-2.48,4.67-5.44,6.95-8.1,4.38-5.57,6.82-4.05,12.16-6.95,2.95-1.74,5.28-4.46,7.82-6.73,1.64-1.34,3.62-2.49,5.21-3.9"/><path class="b" d="M8.72,95.98h39.08c2.39-3.32,4.79-8.58,9.55-8.4,1.81.19,3.51,1.21,5.21,1.79,2.85.93,5.91-.27,7.82-2.47,3.36-3.77,5.46-8.63,7.82-13.05,3.27-6.73,7.52-12.08,13.9-4.52,4.01,4.62,6.35,10.78,11.29,14.57,2.33,2.19,4.28,4.99,6.08,7.61,1.1,1.37,1.92,3.57,3.47,4.47,7.52,0,15.06,0,22.58,0,2.58,0,5.24,0,7.82,0,1.69-.08,3.56.2,5.21-.19,3.41-2.69,5.96-6.42,8.68-9.76,1.51-1.77,3.07-3.93,5.21-4.98,2.46-1.04,5.34-.79,7.82-1.79,2.97-1.12,5.37-3.43,7.82-5.38,1.67-1.22,3.6-2.35,5.21-3.65"/><path class="b" d="M8.72,94.98c8.68,0,17.38,0,26.05,0,3.16,0,6.39,0,9.55,0,1.09,0,2.39,0,3.47,0,.48.09,1.33-.12,1.74-.39,1.95-2.81,4.81-6.46,8.68-5.43,1.45.36,2.93,1.16,4.34,1.62,3.52,1.11,6.73-1.19,8.68-3.97,7.82-10.19,11.06-33.89,24.32-12.23,2.28,3.48,4.38,7.42,7.82,9.92,3.1,2.91,5.45,6.68,7.82,10.18,1.03.5,2.37.26,3.47.31,1.39,0,2.95,0,4.34,0,4.61,0,9.28,0,13.9,0,1.39,0,2.95.01,4.34-.01.43-.18,1.28-.41,1.74-.46,1.43-.16,2.91.63,4.34.48,6.33-.23,11.55-10.42,15.63-14.71,3.91-5.04,7.03-2.37,12.16-3.34,2.55-.56,4.81-2.16,6.95-3.58,1.72-1.04,3.6-2.11,5.21-3.32"/><path class="b" d="M8.72,93.98c13.6,0,27.22,0,40.82,0,1.03.21,2.03-.6,2.61-1.37.4-.41,1.26-1.13,1.74-1.44,5.74-3.53,9.28,4.76,15.63-1.51,3.91-4.22,6.08-9.87,8.68-14.92,1.41-2.61,2.73-5.83,5.21-7.61,6.65-4.21,12.31,9.43,15.63,13.57,1.3,2.12,3.41,3.73,5.21,5.38,2.3,2.34,4.1,5.32,6.08,7.91,8.39,0,16.8,0,25.19,0,.87-.22,1.79-.99,2.61-1.33,1.05-.45,2.39-.5,3.47-.16,1.11.21,2.44.01,3.47-.43,6.54-3.4,9.72-11.06,14.76-16.17,3.37-4.12,7.91-.38,12.16-.78,2.14-.15,4.21-1.14,6.08-2.13,1.75-.83,3.59-1.82,5.21-2.89"/><path class="b" d="M8.72,92.98h44.29c8.35-6.58,11.61,9.92,22.58-12.26,2.14-4.01,3.84-8.65,6.95-12.03,6.41-5.39,11.68,6.1,14.76,10.36,1,1.55,2.25,3.37,3.47,4.75.98,1.09,2.47,2.01,3.47,3.07,1.2,1.25,2.47,2.9,3.47,4.31.26.54,1.14,1.59,1.74,1.79h26.05c2.49-2.18,3.58-2.95,6.95-2.53,7.85-1.06,12.85-14.75,19.11-19.03,1.98-.98,4.22.04,6.08.84,1.62.7,3.43,1.38,5.21,1.47,3.7.05,7.21-1.76,10.42-3.41"/><path class="b" d="M8.72,91.98h59.06c6.18-4.49,8.73-13.86,13.03-20.08,6.67-9.93,13.58,4.23,17.37,9.44,1.37,2.07,3.15,4.08,5.21,5.49,1.62,1.44,3.05,3.41,4.34,5.15h27.79c2.43-2.34,3.42-3.42,6.95-3.32,7.69-1.89,12.68-15.5,19.11-19.86,3.6-1.49,7.58,3.11,11.29,3.76,3.54.84,7.19-.55,10.42-1.9"/><path class="b" d="M8.72,90.98c10.7,0,21.43,0,32.13,0,6.07,0,12.17,0,18.24,0,1.99,0,4.09,0,6.08,0,1.39-.08,3.01.23,4.34-.26,5.65-5.56,7.64-13.91,13.03-19.65,6.52-5.13,12.23,7.1,15.63,11.22,1.38,2,3.19,3.88,5.21,5.23,1.22.95,2.13,2.68,3.47,3.45h28.66c1.71-1.13,3.01-3.24,5.21-3.55,1.17-.01,2.48-.42,3.47-1.04,6.34-3.68,12.8-18.41,18.24-20.12,1.91-.2,3.69,1.04,5.21,2.05,1.88,1.3,3.88,2.74,6.08,3.45,3.13,1.02,6.5.19,9.55-.71"/><path class="b" d="M8.72,89.97c13.31,0,26.64,0,39.95,0,4.61,0,9.28,0,13.9,0,1.39,0,2.95,0,4.34,0,1.09-.04,2.42.14,3.47-.21,3.16-3.41,5.4-7.72,7.82-11.66,1.43-2.22,2.89-4.91,5.21-6.3,6.07-3.09,11.45,7.56,14.76,11.35.98,1.25,2.23,2.7,3.47,3.69,1.25.76,2.56,1.91,3.47,3.05,5.18.23,10.44.02,15.63.09,5.19-.07,10.45.15,15.63-.09,1.14-1.38,2.59-2.87,4.34-3.39,1.6-.2,3.15-1.12,4.34-2.17,5.17-4.1,12.33-18.57,17.37-19.95,1.96-.16,3.72,1.2,5.21,2.3,1.91,1.47,3.89,3.13,6.08,4.17,2.97,1.49,6.39,1.12,9.55.63"/><path class="b" d="M8.72,88.97c10.7,0,21.43,0,32.13,0,9.54,0,19.11,0,28.66,0,1.06.2,2.04-.54,2.61-1.38.82-1,1.88-2.43,2.61-3.5,2.25-3.21,4.22-6.88,6.95-9.72,6.52-6.11,12.59,5.33,16.5,9.47,1.63,2.07,3.83,3.78,6.08,5.13,8.1,0,16.22,0,24.32,0,1.69,0,3.52,0,5.21,0,1.11-.06,2.49.24,3.47-.4.69-.78,1.72-1.74,2.61-2.27.74-.42,1.86-.71,2.61-1.11,1.65-.96,3.12-2.53,4.34-3.97,3.68-4.49,6.7-9.62,10.42-14.09,2.54-2.83,4.67-6.07,8.68-3.2,6.57,4.9,8.32,8.31,17.37,7.94"/><path class="b" d="M8.72,87.97c2.58,0,5.24,0,7.82,0,3.28-1.21,7.46-2.62,10.42,0h44.29c8.94-8.23,10.91-22.56,23.45-7.55,2.39,2.63,4.66,5.73,7.82,7.5,1.39.08,2.95.03,4.34.04,7.23,0,14.49,0,21.71,0,2.87,0,5.82,0,8.68,0,.95-.29,1.8-1.35,2.61-1.89,1.09-.67,2.52-1.23,3.47-2.12,4.87-4.64,7.98-10.88,12.16-16.1,1.52-1.96,3.3-4,5.21-5.59,1.53-1.29,3.72-.72,5.21.36,6.91,5.22,7.9,8.45,17.37,9.59"/><path class="b" d="M8.72,86.97c1.69,0,3.52,0,5.21,0,3.17-2.29,7.49-4.08,11.29-2.32.89.56,1.8,1.67,2.61,2.32,9.54,0,19.11,0,28.66,0,3.16,0,6.39,0,9.55,0,1.98-.1,4.14.23,6.08-.2,3.37-3.27,5.94-7.46,9.55-10.48,3.87-3.31,8.4.17,11.29,3.07,2.56,2.46,4.95,5.3,7.82,7.4,1.64.43,3.52.12,5.21.21,10.99-.1,22.03.2,33-.11.98-.95,2.41-1.67,3.47-2.51,2.02-1.78,3.69-4.19,5.21-6.39,3.29-4.85,6.37-10.04,10.42-14.31,2.44-2.52,4.35-4.48,7.82-2.14,3.91,2.7,6.97,6.68,11.29,8.79,1.88.99,4.12,1.38,6.08,2.17"/><path class="b" d="M8.72,85.97c1.09,0,2.39,0,3.47,0,1.54-.79,2.8-2.35,4.34-3.15,4.15-2.54,8.88-1.54,11.29,2.78.73.48,1.79.39,2.61.38,1.09,0,2.38,0,3.47,0,3.16,0,6.39,0,9.55,0,9.54,0,19.11,0,28.66,0,3.4-2.72,5.97-6.54,9.55-9.06,6.34-4.51,13.25,5.85,18.24,8.97,9.53.24,19.12,0,28.66.09,3.74,0,7.55,0,11.29,0,4.21-1.32,8.59-10.51,11.29-14.22,2.26-3.46,4.78-6.98,7.82-9.81,2.62-2.7,4.68-3.08,7.82-.8,3.02,2.24,5.62,5.16,8.68,7.35,2.32,1.82,5.26,2.74,7.82,4.14"/><path class="b" d="M8.72,84.97c1.11-.06,2.49.24,3.47-.4,1.24-1.48,2.74-3.05,4.34-4.14,2.63-1.92,6.16-1.73,8.68.27,1.34,1.13,2.25,3.04,3.47,4.26,10.12,0,20.27,0,30.4,0,4.32,0,8.7,0,13.03,0,2.87-1.74,5.08-4.6,7.82-6.55,3.61-2.96,6.72-2.55,10.42-.02,2.07,1.38,4.1,3.08,6.08,4.58,1.05.68,2.16,1.94,3.47,1.99,4.03,0,8.13,0,12.16,0,9.83,0,19.69,0,29.53,0,1.95-1.12,3.07-3.64,4.34-5.42,2.28-3.68,4.48-7.63,6.95-11.19,1.74-2.51,3.8-5.03,6.08-7.06,1.72-1.65,3.63-3.03,6.08-1.94,3.69,1.72,6.41,5.05,9.55,7.54,2.58,2.33,5.86,3.79,8.68,5.77"/><path class="b" d="M8.72,83.97h2.61c2.09-2.38,3.91-5.43,6.95-6.7,5-1.81,8.28,2.94,10.42,6.7,10.12,0,20.27,0,30.4,0,4.32,0,8.7,0,13.03,0,2.5-1.33,4.56-3.6,6.95-5.12,4.15-3.02,7-2.91,11.29-.22,2.92,1.67,5.55,4.11,8.68,5.35,4.91,0,9.86,0,14.76,0,6.36,0,12.75,0,19.11,0,2.28,0,4.67,0,6.95,0,1.1-.06,2.49.24,3.47-.4,4.89-7.3,8.22-15.92,14.76-22,1.9-1.74,4.16-3.96,6.95-2.87,3.74,1.47,6.51,4.69,9.55,7.2,2.66,2.47,5.95,4.29,8.68,6.67"/><path class="b" d="M8.72,82.96h2.61c2.13-3.19,4.44-7.69,8.68-8.1,4.37.21,6.84,4.63,8.68,8.06,14.47.12,28.95,0,43.42.04,3.96-2.34,8.12-6.79,13.03-6.49,3.84.67,7.02,3.29,10.42,5.02,1.06.52,2.27,1.34,3.47,1.46,2.58,0,5.24,0,7.82,0,12.15,0,24.32,0,36.48,0,1.3-.51,1.89-2.54,2.61-3.63,1.66-3.08,3.4-6.44,5.21-9.44,2.1-3.48,4.65-6.9,7.82-9.49,1.24-1.02,2.66-2.3,4.34-2.42,4.5,0,8.03,4.25,11.29,6.89,2.76,2.59,6.04,4.76,8.68,7.48"/><path class="b" d="M8.72,81.96c.77,0,1.83.02,2.61-.05,6.04-11.64,11.32-11.71,17.37-.03,9.83.21,19.7,0,29.53.08,4.61-.1,9.31.21,13.9-.13,2.2-1.56,4.52-3.18,6.95-4.38,3.96-2.02,6.54-1.86,10.42.2,3.09,1.57,6.21,3.32,9.55,4.31,4.61,0,9.28,0,13.9,0,10.41,0,20.85,0,31.26,0,1.17-.96,1.89-3.01,2.61-4.29,1.06-2.1,2.33-4.59,3.47-6.64,2.92-5.19,6.71-10.53,12.16-13.23,4.76-1.21,8.8,3.26,12.16,6.01,2.88,2.69,6.12,5.19,8.68,8.19"/><path class="b" d="M8.72,80.96h2.61c6.19-12.66,10.96-12.13,17.37,0,9.83,0,19.69,0,29.53,0,4.32,0,8.7,0,13.03,0,2.35-1.26,4.48-3.15,6.95-4.23,3.77-1.82,6.61-2.17,10.42-.21,3.86,1.91,7.89,3.69,12.16,4.44,4.32,0,8.7,0,13.03,0,10.41,0,20.85,0,31.26,0,3.72-6.71,6.39-14.43,12.16-19.75,1.83-1.5,3.71-3.46,6.08-4.02,4.86-.68,8.76,3.4,12.16,6.3,2.68,2.53,5.56,5.08,7.82,8.01"/><path class="b" d="M8.72,79.96h2.61c2.12-3.25,4.59-10.73,9.55-9.34,3.85,1.74,5.54,6.08,7.82,9.34,14.18-.06,28.38.11,42.55-.06,3.89-3.04,8.68-6.63,13.9-5.72,3.58,1,6.8,3.19,10.42,4.08,2.55.69,5.29.94,7.82,1.7,1.69,0,3.52,0,5.21,0,8.1,0,16.22,0,24.32,0,2.57,0,5.24,0,7.82,0,1.08,0,2.39,0,3.47,0,.48.1,1.35-.14,1.74-.44,3.4-7.18,6.49-15.22,13.03-20.17,1.52-1.19,3.22-2.57,5.21-2.77,4.9-.34,8.8,3.59,12.16,6.65,2.44,2.38,4.96,4.92,6.95,7.7"/><path class="b" d="M8.72,78.96h2.61c2.55-3.6,5.62-13.1,11.29-8.1,1.29,1.18,2.55,2.85,3.47,4.33.76,1.12,1.46,2.98,2.61,3.77,11.86,0,23.74,0,35.61,0,1.99,0,4.09,0,6.08,0,1.34-.31,2.36-1.74,3.47-2.48,1.56-1.21,3.37-2.38,5.21-3.1,5.6-2.39,8.86.85,13.9,2.63,1.92.69,4.06,1.07,6.08,1.3,1.09.13,2.41.3,3.47.59.42.26,1.32.79,1.74,1.05h41.69c3.91-7.3,6.65-15.95,13.9-20.77,5.01-4.51,10.51-1.58,14.76,2.33,3.17,2.92,6.23,6.17,8.68,9.72"/><path class="b" d="M8.72,77.96h2.61c.68-.42,1.45-1.92,1.74-2.64.68-1.32,1.69-3.09,2.61-4.26,4.9-6.59,9.83,2.63,12.16,6.75,3.42.37,6.98.05,10.42.15,6.36,0,12.75,0,19.11,0,2.87,0,5.82,0,8.68,0,1.09,0,2.38,0,3.47,0,.51.1,1.32-.14,1.74-.42,1.83-1.83,3.85-3.71,6.08-5.04,4.67-2.72,7.64-1.93,12.16.47,1.9.93,3.99,1.77,6.08,2.17,1.97.39,4.1.43,6.08.76.49.03,1.35.41,1.74.71.57.75,1.6,1.56,2.61,1.35,13.31,0,26.64,0,39.95,0,.84-.33,1.44-1.94,1.74-2.69.43-.97,1.28-2.9,1.74-3.86,1.44-3.05,3.14-6.3,5.21-8.97,1.43-1.86,3.32-3.55,5.21-4.93,1.9-1.61,4.41-2.8,6.95-2.39,6.39,1.07,12.88,9.3,16.5,14.39"/><path class="b" d="M8.72,76.95c1.11-.06,2.48.23,3.47-.38,2.26-4.8,5.99-12.37,11.29-5.67,1.64,1.76,2.66,4.35,4.34,6.05,12.15,0,24.32,0,36.48,0,1.99,0,4.09,0,6.08,0,1.07-.29,1.85-1.6,2.61-2.33,1.52-1.62,3.29-3.29,5.21-4.44,5.84-3.58,9.43.62,14.76,2.53,2.19.81,4.63,1.07,6.95,1.24,2.68.12,3.7.73,5.21,2.99,8.97,0,17.96,0,26.92,0,4.9-.1,9.88.2,14.76-.13,3.66-8.68,7.8-19.16,17.37-22.61,7.36-1.66,15.3,9.19,19.11,14.51"/><path class="b" d="M8.72,75.95h3.47c5.31-11.17,8.97-9.98,14.76,0,9.54.02,19.11,0,28.66,0,3.16,0,6.39,0,9.55,0,1.98-.08,4.12.19,6.08-.16,12.78-16.9,13.77-5.72,26.05-3.68,2.35.46,5.4-.07,6.95,2.15.33.57,1.03,1.55,1.74,1.69,2.28,0,4.67,0,6.95,0,11.28,0,22.59,0,33.87,0,3.15-7.06,5.86-15.05,12.16-19.97,1.54-1.23,3.23-2.63,5.21-3.03,7.22-1.58,15.31,9.8,19.11,14.99"/><path class="b" d="M8.72,74.95h3.47c2.3-2.96,4.88-9.9,9.55-6.1,1.29,1.1,2.52,2.73,3.47,4.12.3.59,1.11,1.7,1.74,1.98h44.29c3.28-3.92,6.94-11.42,13.03-10.35,3.72,1.14,6.72,4.01,10.42,5.24,1.64.59,3.49.93,5.21,1.16,1.13.19,2.54.27,3.47,1,.88.79,1.62,2.27,2.61,2.95h40.82c3.07-7.23,5.82-15.37,12.16-20.43,1.74-1.42,3.73-2.97,6.08-3.03,6.73-.28,14.44,10.73,18.24,15.75"/><path class="b" d="M8.72,73.95h3.47c.74-.24,1.43-1.48,1.74-2.12.39-.65,1.25-1.89,1.74-2.47,4.11-5.07,8.13.92,10.42,4.47,5.47.3,11.02.02,16.5.11,9.54,0,19.11,0,28.66,0,1.4-1.24,2.34-3.35,3.47-4.83,2-2.69,4.3-6.02,7.82-6.67,3.28-.22,5.98,2.29,8.68,3.8,2.88,1.84,6.2,2.99,9.55,3.59,3,.31,3.41,2.22,5.21,4.11,8.68,0,17.38,0,26.05,0,3.16,0,6.39,0,9.55,0,1.09,0,2.39,0,3.47,0,.51.11,1.32-.15,1.74-.48,3.04-7.21,5.72-15.43,12.16-20.36,1.74-1.36,3.76-2.82,6.08-2.75,6.74.11,14.31,11.25,18.24,16.31"/><path class="b" d="M8.72,72.95c1.39-.02,2.96.07,4.34-.08,4.61-8.66,8.01-7.2,13.03.08h45.16c1.21-.59,1.86-2.45,2.61-3.49,1.7-2.69,3.56-5.61,6.08-7.6,4.06-3.33,8.6.87,12.16,2.97,2.91,1.88,6.22,3.17,9.55,4.06,2.08.36,3.02,2.68,4.34,4.06h39.95c1.54-2.11,2.32-5.26,3.47-7.59,2.36-5.35,5.21-11.07,10.42-14.15,5.39-4.26,10.97.13,14.76,4.27,3.09,3.36,5.99,7.07,8.68,10.75"/><path class="b" d="M8.72,71.95h4.34c5.07-8,7.67-7.17,13.03,0,9.83,0,19.69,0,29.53,0,3.45,0,6.97,0,10.42,0,1.09,0,2.39,0,3.47,0,.8,0,1.88.09,2.61-.32,2.58-4.15,5.56-10.93,10.42-12.59,3.59-.58,6.68,2.14,9.55,3.89,2.7,1.8,5.63,3.45,8.68,4.59.82.3,1.94.67,2.61,1.26.88.85,1.73,2.32,2.61,3.18,13.31-.08,26.65.15,39.95-.08,3.18-7.32,5.76-17,13.03-21.27,1.81-1.09,3.9-2.13,6.08-1.81,7.28,1.13,13.88,11.58,18.24,17.14"/><path class="b" d="M8.72,70.94h4.34c1.3-1.12,2.16-3.05,3.47-4.17,3.67-3.54,7.51,1.19,9.55,4.17,15.34,0,30.69,0,46.03,0,2.62-4.3,5.58-11.25,10.42-13.25,3.51-.84,6.76,1.59,9.55,3.39,2.79,1.9,5.64,3.91,8.68,5.39.8.38,1.93.84,2.61,1.45.85.83,1.66,2.29,2.61,3.03h39.08c1.17-1.4,1.87-3.93,2.61-5.57,2.03-4.73,4.05-9.96,7.82-13.61,1.21-1.11,2.82-1.97,4.34-2.55,1.86-.9,4.08-1.23,6.08-.65,7.47,2.47,12.73,11.16,17.37,17.16"/><path class="b" d="M8.72,69.94h4.34c1.44-.86,2.16-2.9,3.47-3.95,3.57-3.55,7.44.59,9.55,3.63.74.42,1.8.33,2.61.33,1.09,0,2.38,0,3.47,0,3.45,0,6.97,0,10.42,0,9.83,0,19.69,0,29.53,0,2.62-3.76,4.52-8.26,7.82-11.54,3.22-3.55,7.85-1.98,11.29.35,3.25,2.11,6.24,4.73,9.55,6.75.79.47,1.92,1.02,2.61,1.65.83.78,1.54,2.28,2.61,2.78,8.39,0,16.8,0,25.19,0,2.87,0,5.82,0,8.68,0,1.68-.12,3.62.32,5.21-.31,2.8-6.32,5.37-15.9,11.29-19.85,2.62-1.27,5.77-2.16,8.68-1.55,8.31,2.3,13.33,10.91,18.24,17.4"/><path class="b" d="M8.72,68.94h4.34c.67-.18,1.42-1.24,1.74-1.81.39-.54,1.25-1.57,1.74-2.03,4.3-4,7.57.89,10.42,3.84h45.16c1.54-1.23,2.35-3.62,3.47-5.21,2.31-3.47,4.84-8.33,9.55-8.48,5.26-.01,9.2,4.22,13.03,7.3,2.28,2.09,5.33,3.36,6.95,6.12,1.61.55,3.53.16,5.21.27,2.87,0,5.82,0,8.68,0,8.39,0,16.8,0,25.19,0,3.4-6.34,4.86-14.32,10.42-19.27,1.45-1.15,3.4-1.54,5.21-1.59,1.09-.12,2.39-.18,3.47-.05,9.41,1.5,14.84,10.5,19.97,17.62"/><path class="b" d="M8.72,67.94h4.34c.66-.2,1.42-1.25,1.74-1.81.67-.91,1.69-2.08,2.61-2.74,3.71-2.71,7.65,1.41,9.55,4.44,3.14.3,6.4.04,9.55.12,5.78,0,11.59,0,17.37,0,4.03,0,8.13,0,12.16,0,1.39,0,2.95,0,4.34,0,.79,0,1.87.08,2.61-.27,2.77-4.3,5.12-9.52,9.55-12.37,4.34-2.25,8.83-.16,12.16,2.86,2.05,1.76,4.03,3.85,6.08,5.61,1.58,1.15,3.21,2.55,4.34,4.16h38.21c.8-.38,1.46-2.13,1.74-2.89.44-1.06,1.29-3.19,1.74-4.25,1.99-4.34,3.72-9.61,7.82-12.42,1.55-.92,3.5-.8,5.21-.52,2.34.17,4.77.61,6.95,1.5,7.56,2.91,12.14,9.98,16.5,16.4"/><path class="b" d="M8.72,66.94h4.34c.59-.31,1.41-1.37,1.74-1.94.9-1.2,2.12-2.56,3.47-3.25,2.48-1.3,5.18.38,6.95,2.12.83.87,1.65,2.33,2.61,3.07h45.16c2.91-3.68,4.99-8.26,8.68-11.28,2.68-1.98,6.47-2.91,9.55-1.3,3.1,1.58,5.46,4.38,7.82,6.86,1.27,1.44,2.93,2.8,4.34,4.09.34.47,1.23,1.34,1.74,1.63,12.73-.01,25.48.03,38.21-.01,2.57-4.97,6.56-20.14,13.03-19.92,1.76.13,3.5,1,5.21,1.38,3.62.96,7.29,2.21,10.42,4.31,5,3.19,8.01,8.51,11.29,13.27"/><path class="b" d="M8.72,65.94h4.34c1.65-1.79,2.95-4.25,5.21-5.4,4-1.97,7.77,1.97,9.55,5.23,1.07.29,2.38.14,3.47.18,1.99,0,4.09,0,6.08,0,5.49,0,11.01,0,16.5,0,4.32,0,8.7,0,13.03,0,1.39,0,2.95,0,4.34,0,.79,0,1.87.08,2.61-.3,3.03-4.14,5.67-9.19,10.42-11.57,2.35-1.37,5.38-1.89,7.82-.45,2.79,1.58,4.89,4.26,6.95,6.65,1.51,1.95,3.61,3.62,5.21,5.48,1.66.38,3.52.11,5.21.18,2.87,0,5.82,0,8.68,0,8.1,0,16.22,0,24.32,0,3.49-4.36,6.97-22.65,14.76-19.17,1.7.81,3.43,1.91,5.21,2.55,2.87,1.13,5.94,2.01,8.68,3.43,3.11,1.58,5.8,4.09,7.82,6.92,1.45,1.97,2.67,4.48,4.34,6.27"/><path class="b" d="M8.72,64.94c1.39-.01,2.95.04,4.34-.05,2.9-4.72,6.85-8.67,12.16-4.35,1.33,1.19,2.21,3.16,3.47,4.39h45.16c1.06-.54,1.87-2,2.61-2.89,1.57-2.05,3.29-4.28,5.21-6.03,2.88-2.2,6.64-5.26,10.42-3.46,5.17,2.82,7.54,8.87,12.16,12.38,8.1,0,16.22,0,24.32,0,2.87,0,5.82,0,8.68,0,1.09,0,2.39,0,3.47,0,.49.1,1.34-.15,1.74-.44,2.67-4.76,5.99-17.38,11.29-18.86,2.39-.34,4.31,1.67,6.08,2.98,1.54,1.15,3.41,2.08,5.21,2.75,4.92,1.63,9.73,3.02,13.03,7.35,1.59,1.86,2.71,4.41,4.34,6.22h.87"/><path class="b" d="M8.72,63.93h3.47c1.07-.59,1.82-2.12,2.61-3.01.93-1.11,2.18-2.33,3.47-3,2.24-1.21,4.99-.46,6.95.96,1.4,1.25,2.55,3.21,3.47,4.83,1.93.47,4.1.11,6.08.22,3.45,0,6.97,0,10.42,0,9.83,0,19.69,0,29.53,0,1.02-.5,1.87-1.82,2.61-2.65,1.33-1.59,2.83-3.36,4.34-4.78,2.98-2.23,6.31-6.25,10.42-4.87,5.09,2.45,7.24,8.38,11.29,12.05,1.62.51,3.53.15,5.21.25,2.87,0,5.82,0,8.68,0,8.1,0,16.22,0,24.32,0,3.08-4.01,6.92-20.51,13.03-18.92,2.11.77,3.64,2.75,5.21,4.25,1.45,1.42,3.31,2.62,5.21,3.35,2.52.98,5.33,1.35,7.82,2.4,1.99.83,3.84,2.3,5.21,3.95,1.25,1.44,2.24,3.51,3.47,4.96h1.74"/><path class="b" d="M8.72,62.93c1.09,0,2.39.03,3.47-.05,2.95-4.71,7.29-9.29,13.03-5.62,1.86,1.44,2.74,4.03,4.34,5.67,10.12,0,20.27,0,30.4,0,3.45,0,6.97,0,10.42,0,1.98-.11,4.15.26,6.08-.23,2.69-3.06,5.61-6.03,8.68-8.7,2.83-2.78,6.1-4.83,9.55-1.65,3.41,3.02,5.26,7.57,8.68,10.57h37.34c3.74-2.88,6.94-19.78,13.03-18.65,3.5,1.3,5.06,5.3,7.82,7.59,3.05,2.92,7.45,2.92,11.29,3.93,3.6.96,5.88,4.17,7.82,7.12h2.61"/><path class="b" d="M8.72,61.93h2.61c2.46-2.8,4.67-6.66,8.68-7.3,5.47-.59,7.31,3.07,9.55,7.25,11.28.13,22.59,0,33.87.05,4.61,0,9.28,0,13.9,0,1.35-.64,2.39-2.17,3.47-3.17,2.04-1.96,4.14-4.07,6.08-6.12,3.47-3.53,6.49-3.14,9.55.61,1.53,1.84,2.96,4.11,4.34,6.06,1.41,1.85,1.74,2.9,4.34,2.62,2.87,0,5.82,0,8.68,0,8.96-.09,17.97.17,26.92-.1,2.14-3.12,3.58-6.98,5.21-10.37,1.62-3,4.3-10.14,8.68-7.08,3.16,2.62,4.68,6.88,7.82,9.53,2.85,2.6,6.87,2.25,10.42,2.75,3.03.45,5.32,2.82,6.95,5.26h3.47"/><path class="b" d="M8.72,60.93h1.74c1.36-.98,2.27-2.86,3.47-4.03,2.73-3.1,6.42-4.58,10.42-3.03,2.07.72,3.25,3.09,4.34,4.83.28.64,1.06,1.94,1.74,2.23h48.63c1.32-.66,2.39-2.14,3.47-3.12,2.16-2.02,3.85-4.72,6.08-6.68,6.39-5.44,10.29,5.97,13.9,9.61,1.66.37,3.52.1,5.21.18,2.58,0,5.24,0,7.82,0,8.1,0,16.22,0,24.32,0,4.53-3.02,8.32-24.63,15.63-15.7,3.19,3.83,4.71,9.62,9.55,11.78,5.62,1.88,9.02-1.67,13.9,3.92h4.34"/><path class="b" d="M8.72,59.93h.87c1.42-.88,2.27-2.82,3.47-3.96,1.98-2.2,4.74-4.1,7.82-3.99,6.25.1,6.44,3.79,9.55,7.95,13.6,0,27.22,0,40.82,0,2.28,0,4.67,0,6.95,0,3.15.12,3.07.02,5.21-2.28,2.29-2.58,4.02-5.96,6.95-7.9,5.41-3,9.1,7.08,12.16,10.15,12.45.08,24.9,0,37.34.03,2.53-3.33,4.22-7.44,6.08-11.15,2.98-5.9,6.11-9.46,10.42-2.06,2.61,4,4.09,9.58,8.68,11.78,2.78,1.17,5.81-.09,8.68.01.81.04,1.88.33,2.61.7.37.32,1.24.72,1.74.71,1.69,0,3.52,0,5.21,0"/><path class="b" d="M8.72,58.93c1.07-.59,1.83-2.11,2.61-3.01,1.79-2.19,4.11-4.32,6.95-4.95,1.68-.37,3.55-.18,5.21.22,3.73.59,5.13,4.92,6.95,7.73h52.11c2.84-2.31,4.25-6.18,6.95-8.67,5.87-5.56,9.68,5.23,13.03,8.65,4.03.06,8.13,0,12.16.02,3.3-2.36,5.67-3.93,8.68-.14,3.42.35,6.98.04,10.42.14,1.39,0,2.95,0,4.34,0,1.29.22,2.04-.7,2.61-1.69,2.1-2.88,3.53-6.49,5.21-9.61,1.96-3.68,4.99-8.47,8.68-3.33,3.34,4.49,4.6,10.57,8.68,14.51,6.62.32,13.33.02,19.97.12"/><path class="b" d="M8.72,57.23c3.2-5.03,7.55-8.98,13.9-7.23.78.18,1.85.43,2.61.7,2.41,1.6,3.76,4.6,5.21,7.01,1.35.4,2.95.15,4.34.21,2.28,0,4.67,0,6.95,0,6.36,0,12.75,0,19.11,0,4.91,0,9.86,0,14.76,0,1.69,0,3.52,0,5.21,0,1.1-.06,2.47.22,3.47-.36,2.77-3.63,6.72-13.25,12.16-7.74,2.3,2.34,3.92,5.46,6.08,7.92,1.06.3,2.38.15,3.47.18,1.99,0,4.09,0,6.08,0,1.68-.56,2.89-2.34,4.34-3.32,4.2-3.51,6.18-.17,8.68,3.14,1.65.38,3.52.11,5.21.18,2.87,0,5.82,0,8.68,0,3.57-3.52,5.18-8.66,7.82-12.83,3.2-5.24,5.95-4.26,8.68.66,2.19,3.87,3.71,8.39,6.08,12.16,7.23.03,14.49,0,21.71.01"/><path class="b" d="M8.72,54.91c3.48-5.21,7.6-7.81,13.9-5.77.78.21,1.85.48,2.61.75,2.37,1.52,3.75,4.41,5.21,6.73,1.59.62,3.53.18,5.21.31,3.16,0,6.39,0,9.55,0,9.26,0,18.54,0,27.79,0,2.57,0,5.24,0,7.82,0,1.09,0,2.39,0,3.47,0,.72-.19,1.42-1.29,1.74-1.89,3.17-5.12,6.75-11.38,12.16-4.25,1.72,1.94,2.97,4.75,5.21,6.14,1.69,0,3.52,0,5.21,0,.83.01,1.91.1,2.61-.44,2.63-1.91,6.04-7.56,9.55-6.7,2.75,1.5,4.16,4.79,6.08,7.14,4.03-.03,8.13.07,12.16-.04,1.11-1.52,2.52-3.29,3.47-4.92,1.68-2.92,3.15-6.29,5.21-8.97,6.18-7.66,10.31,10.39,13.03,13.93h22.58"/><path class="b" d="M8.72,52.71c3.36-4.85,7.3-6.77,13.03-4.63,1.08.37,2.39.75,3.47,1.12,2.32,1.45,3.73,4.21,5.21,6.42.75.38,1.8.31,2.61.3,1.39,0,2.95,0,4.34,0,4.03,0,8.12,0,12.16,0,11.86,0,23.74,0,35.61,0,4.27-5.35,7.03-14.08,13.9-5.24,1.57,1.76,2.91,4.36,5.21,5.24,1.39,0,2.95.02,4.34-.02,4.13-2.16,7.01-8.82,11.29-9.7,3.44.13,6.18,7.39,8.68,9.72h9.55c3.64-2.76,5.42-7.54,7.82-11.33,2.12-3.47,4.79-6.07,7.82-1.71,2.59,3.91,4.17,8.68,6.08,12.94,7.79.27,15.65.01,23.45.1"/><path class="b" d="M8.72,50.62c5.31-7.24,9.37-4.92,16.5-2.4,1.83,1.07,3.14,3.12,4.34,4.81.3.56,1.12,1.64,1.74,1.89h54.71c2.44-3.63,6.08-11.78,11.29-7.11,2.15,1.83,3.73,4.5,6.08,6.1,3.37,2.13,6.65-1.29,8.68-3.74,2.19-2.47,3.99-5.7,6.95-7.33,2.93-1.15,4.65,2.65,6.08,4.56,1.58,2.45,3.18,5.22,5.21,7.34,2.24.4,4.67.08,6.95.18,1.07-.21,1.9-1.45,2.61-2.19,2.09-2.23,3.67-5.13,5.21-7.74,5.07-8.89,8.27-4.01,11.29,2.85.44,1.03,1.32,3.14,1.74,4.18.27.75.92,2.54,1.74,2.9h23.45"/><path class="b" d="M8.72,48.65c4.12-5.65,8.03-5.29,13.9-2.59.76.31,1.83.65,2.61.91,2.64,1.58,4.22,4.59,6.08,6.94,11.86,0,23.74,0,35.61,0,4.32,0,8.7,0,13.03,0,2.28-.08,4.7.19,6.95-.15,3.52-5.93,6.75-11.49,13.03-4.45,4.42,5.08,7.39,3.91,11.29-.91,2.3-2.8,4.19-6.21,6.95-8.61,3.07-2.68,5.43,1.46,6.95,3.75,1.63,2.56,3.24,5.44,5.21,7.76,3.23,3.85,6.37,3.15,9.55-.3,2.83-2.69,4.46-6.51,6.95-9.47,6.31-7.09,9.68,8.67,12.16,12.37h24.32"/><path class="b" d="M8.72,46.78c5.17-6.91,9.08-4.04,15.63-1.54,3.62,1.13,5.18,5.28,7.82,7.68,11.86,0,23.74,0,35.61,0,4.32,0,8.7,0,13.03,0,1.39,0,2.95,0,4.34,0,.81,0,1.9.1,2.61-.4,8.91-15.58,11.55.17,18.24-2.02,4.48-2.24,6.61-7.39,9.55-11.19,4.78-6.85,6.86-4.11,10.42,1.7,2.62,3.81,6.33,12.73,12.16,9.44,3.45-2.04,5.4-5.79,7.82-8.84,6.28-7.94,10.15,6.62,12.16,10.99,1.02.5,2.37.26,3.47.31,1.69,0,3.52,0,5.21,0,5.49,0,11.01,0,16.5,0"/><path class="b" d="M8.72,45.01c4.7-6.39,8.63-4.35,14.76-1.67,4.45.96,6.46,5.69,9.55,8.57,4.62,0,9.28,0,13.9,0,1.32-.59,2.86-1.21,4.34-1.03,1.19.06,2.3,1.02,3.47,1.03,3.45,0,6.97,0,10.42,0,7.52,0,15.06,0,22.58,0,1.12-.6,1.82-2.28,2.61-3.24,2.84-3.85,5.62-4.59,9.55-1.66,2.84,2.15,5.02,2.74,7.82.12,3.2-3.15,5.3-7.37,7.82-11.04,4.55-6.82,6.61-5.25,10.42.97,2.77,4,6.85,14.04,13.03,10.69,2.96-1.63,4.7-4.8,6.95-7.2,6.62-6.77,9.45,7.53,12.16,11.35h25.19"/><path class="b" d="M8.72,43.35c3.78-5.31,7.6-5.09,13.03-2.4,1.06.48,2.35.92,3.47,1.21,2.5,1.2,4.23,3.72,6.08,5.7,1.02,1.02,2.07,2.56,3.47,3.06,2.58,0,5.24,0,7.82,0,.79,0,1.85.06,2.61-.22,1.77-1.13,3.91-2.27,6.08-1.86,1.23.24,2.51,1,3.47,1.78.73.38,1.81.3,2.61.3,10.41,0,20.85,0,31.26,0,1.95-1.98,3.27-5.01,6.08-5.97,4.67-1.39,7.64,4.88,12.16.69,4.1-3.87,6.33-9.37,9.55-13.91,3.36-4.8,5.46-4.69,8.68.15,3.06,4.02,7.15,14.58,13.03,13.89,7.76-1.72,10.12-19.01,19.11,4.85,1.03.48,2.37.24,3.47.29,1.99,0,4.09,0,6.08,0,5.49,0,11.01,0,16.5,0"/><path class="b" d="M8.72,41.78c3.79-5.37,7.5-5.2,13.03-2.56,1.06.46,2.35.87,3.47,1.13,2.46,1.07,4.23,3.43,6.08,5.29,1.52,1.58,3.23,3.28,5.21,4.27,1.99-.02,4.09.04,6.08-.03,4.44-2.37,7.55-5.23,12.16-1.08.95,1.2,2.07,1.17,3.47,1.11,1.69,0,3.52,0,5.21,0,8.68,0,17.38,0,26.05,0,9.78-14.58,11.43,5.3,21.71-12.43,2.49-3.92,4.41-8.56,7.82-11.8,3.71-3.11,6.91,4.08,8.68,6.53,2.05,3.27,4.03,6.92,6.95,9.51,7.38,6.29,10.39-8.5,16.5-2.95,2.93,3.05,4.05,7.53,6.08,11.13h26.05"/><path class="b" d="M8.72,40.3c2.19-3.29,5.54-5.51,9.55-4.11,2.02.61,4.01,1.68,6.08,2.15,2.08.3,3.75,1.98,5.21,3.37,1.64,1.61,3.35,3.43,5.21,4.78,2.2,1.7,5.23,2.38,7.82,1.18,6.26-3.37,8.5-4.97,13.9,1.09,2.25.35,4.67.07,6.95.16,4.03,0,8.13,0,12.16,0,3.16,0,6.39,0,9.55,0,1.68-.11,3.6.29,5.21-.28,1.5-2.13,3.41-4.49,6.08-5.07,4.64-.58,6.46,1.96,10.42-2.38,2.82-3.17,4.85-7.16,6.95-10.82,1.67-2.54,4.31-8.75,7.82-8.46,3.8,1.57,6.34,7.53,8.69,10.83,2.26,3.19,5.02,8.51,9.55,8.13,2-.41,3.55-2.08,5.21-3.15,4.74-3.44,7.84,2.73,9.55,6.35.77,1.38,1.24,3.91,2.61,4.85h26.05"/><path class="b" d="M8.72,38.89c4.18-6.05,7.78-5.28,13.9-2.79,1.07.4,2.43.48,3.47.95,2.97,1.6,5.17,4.44,7.82,6.49,2.14,1.76,5.01,3.12,7.82,2.33,1.83-.47,3.5-1.69,5.21-2.45,4.4-2.19,7.81,1.31,10.42,4.49h33c2.48-2.34,4-5.03,7.82-5.37,1.7-.17,3.62.04,5.21-.7,7.25-3.61,11.21-19.87,17.37-22.63,4.05-.62,8.25,8.43,10.42,11.34,2.21,3.06,5.14,8.62,9.55,8.02,1.83-.53,3.42-1.93,5.21-2.54,5.65-1.75,8.6,7.85,10.42,11.74,3.13.35,6.4.05,9.55.14,5.78,0,11.59,0,17.37,0"/><path class="b" d="M8.72,37.55c4.13-6.08,7.68-5.47,13.9-3.1,1.07.37,2.42.41,3.47.82,2.98,1.43,5.22,4.13,7.82,6.1,2.17,1.72,4.98,3.18,7.82,2.56,2.15-.45,4.02-1.95,6.08-2.65,4.63-1.71,7.64,2.76,10.42,5.64,6.94,0,13.91,0,20.84,0,2.57,0,5.24,0,7.82,0,1.39-.06,2.99.17,4.34-.19,1.88-2.6,4.56-4.84,7.82-5.32,1.45-.26,3.08-.58,4.34-1.38,7.19-4.52,11.23-20,17.37-23.14,4.41-1.01,8.98,8.59,11.29,11.67,2.13,2.92,4.65,7.8,8.68,7.97,1.78-.26,3.44-1.38,5.21-1.69,5.84-.66,8.15,8.04,10.42,12.08h26.92"/><path class="b" d="M8.72,36.26c4.13-6.12,7.57-5.61,13.9-3.37,1.07.34,2.41.33,3.47.69,3.31,1.42,5.75,4.36,8.68,6.37,2.21,1.61,5.08,2.81,7.82,2,2.08-.63,3.95-2.11,6.08-2.62,4.78-1.17,7.45,3.87,10.42,6.57h32.13c1.94-2.16,4.11-4.4,6.95-5.32,1.76-.62,3.73-1.21,5.21-2.39,5.09-4.21,7.88-10.56,11.29-16.07,1.66-2.56,3.27-5.76,6.08-7.21,4.89-1.41,9.68,8.52,12.16,11.86,2.03,2.74,4.74,8.06,8.68,7.69,1.69-.29,3.47-1.01,5.21-.78,5.45,1.31,6.88,8.09,9.55,12.24h26.92"/><path class="b" d="M8.72,35.01c4.11-6.14,7.52-5.65,13.9-3.55,1.07.31,2.4.26,3.47.56,3.32,1.23,5.82,4.06,8.68,6.04,2.21,1.6,5.02,3,7.82,2.32,2.39-.63,4.46-2.45,6.95-2.8,4.9-.62,7.27,4.65,10.42,7.32h31.26c1.72-1.42,3.21-3.39,5.21-4.47,2.29-1.33,5.01-2.21,6.95-4.09,4.4-4.06,7.31-9.53,10.42-14.57,1.75-2.76,3.49-5.9,6.08-7.97,5.6-3.74,11.21,7.76,13.9,11.42,1.94,2.61,4.2,7.2,7.82,7.39,1.69-.06,3.54-.47,5.21-.04,5.33,1.78,6.72,8.14,9.55,12.32h26.92"/><path class="b" d="M8.72,33.79c4.15-6.18,7.47-5.58,13.9-3.6,1.07.28,2.4.19,3.47.44,3.67,1.19,6.38,4.28,9.55,6.33,2.23,1.53,5.12,2.75,7.82,1.8,2.3-.88,4.42-2.62,6.95-2.79,4.91-.12,7.21,5.15,10.42,7.93h30.4c1.74-1.41,3.25-3.35,5.21-4.51,2.38-1.48,5.05-2.78,6.95-4.91,5.96-5.94,9.42-13.88,14.76-20.3,6.76-7.84,13.06,4.8,16.5,9.78,1.86,2.52,3.6,6.25,6.95,6.91,1.7.16,3.58.03,5.21.63,5.14,2.11,6.71,8.16,9.55,12.4h26.92"/><path class="b" d="M8.72,32.57c4.2-6.2,7.5-5.36,13.9-3.48,1.08.27,2.39.14,3.47.33,3.68,1,6.44,3.99,9.55,6.04,2.23,1.54,5.06,2.96,7.82,2.1,2.08-.74,3.95-2.26,6.08-2.87,5.65-1.48,8.75,4.92,12.16,8.22h29.53c1.58-1.64,3.3-3.4,5.21-4.66,2.48-1.6,5.09-3.28,6.95-5.61,5.24-5.64,9.09-12.45,13.9-18.43,7.64-9.71,14.17,2.53,18.24,8.81,1.78,2.5,3.56,6.03,6.95,6.42,1.42.22,3.02.44,4.34,1.02,4.96,2.36,6.83,8.09,9.55,12.45h26.92"/><path class="b" d="M8.72,31.34c4.3-6.23,7.57-4.95,13.9-3.14,1.08.26,2.39.09,3.47.24,4.03.91,7.01,4.2,10.42,6.31,2.24,1.48,5.21,2.69,7.82,1.41,2-.96,3.9-2.49,6.08-3.05,5.64-1.11,8.69,5.26,12.16,8.55,1.05.39,2.37.2,3.47.24,1.99,0,4.09,0,6.08,0,5.78,0,11.59,0,17.37,0,1.09.16,1.99-.4,2.61-1.25,1.01-1.05,2.31-2.19,3.47-3.05,1.7-1.26,3.65-2.46,5.21-3.89,1.21-1.13,2.4-2.71,3.47-3.97,3.61-4.24,7.01-8.79,10.42-13.19,11.31-15.21,16.46-1.44,23.45,8.32,5.79,7.43,8.88-1.89,18.24,17.04h26.92"/><path class="b" d="M8.72,30.07c4.38-6.2,7.77-4.32,13.9-2.56,1.08.26,2.38.07,3.47.17,4.37.8,7.55,4.38,11.29,6.52,2.91,1.81,5.83,2.15,8.68.03,9.5-7.15,11.71,1.35,18.24,6.67,8.68,0,17.38,0,26.05,0,2.66-3.21,6.37-5.35,9.55-7.96,1.98-1.74,3.49-4.17,5.21-6.14,4-4.62,7.88-9.48,12.16-13.85,11.62-11.11,16.08,5.42,22.58,12.43,1.62,1.56,4.09,1.86,6.08,2.76,5.15,2.29,7.9,7.75,10.42,12.49,1.04.45,2.38.23,3.47.28,1.99,0,4.09,0,6.08,0,5.78,0,11.59,0,17.37,0"/><path class="b" d="M8.72,28.75c4.49-6.12,8.05-3.43,13.9-1.68,1.08.27,2.38.06,3.47.12,4.35.6,7.61,4.03,11.29,6.12,3.6,2.18,6.26,2.05,9.55-.59,4.04-3.13,7.3-4.07,11.29-.2,2.33,2.38,4.7,4.93,6.95,7.39h24.32c2.94-3.45,7.02-5.63,10.42-8.53,1.98-1.84,3.43-4.4,5.21-6.41,2.71-3.15,5.74-6.17,8.68-9.1,3.61-3.5,8.41-8.34,13.9-6.49,5.44,2.84,7.58,9.33,11.29,13.89,1.59,2.34,4.5,3.03,6.95,4.08,3.34,1.45,5.87,4.39,7.82,7.39,1.17,1.55,1.94,3.95,3.47,5.18h26.05"/><path class="b" d="M8.72,27.34c4.12-5.43,7.96-2.81,13.03-.73,1.35.56,2.93.39,4.34.35,4.3.41,7.64,3.63,11.29,5.62,2.89,1.72,5.95,2.16,8.68-.13,2.7-2.02,5.92-5.16,9.55-3.62,2.44,1.08,4.29,3.29,6.08,5.2.75.83,1.87,1.89,2.61,2.73.32.58,1.23,1.7,1.74,2.13,4.91,0,9.86,0,14.76,0,2.57-.1,5.28.22,7.82-.17,1.52-1.69,3.34-3.33,5.21-4.62,2.01-1.39,4.29-2.68,6.08-4.37,1.66-1.55,2.92-3.78,4.34-5.53,2.02-2.5,4.5-4.79,6.95-6.87,4.44-3.54,10.35-9.54,16.5-8.29,5.08,2.07,7.33,8,10.42,12.17,1.79,2.86,3.83,4.04,6.95,5.11,5.84,2.01,9.05,7.64,12.16,12.57h26.05"/><path class="b" d="M8.72,25.83c4.24-5.21,8.42-1.31,13.03.79,1.62.81,3.5.28,5.21.48,3.52.54,6.5,2.79,9.55,4.46,2.59,1.51,6.04,2.64,8.68.66,3.13-2.1,6.18-6.32,10.42-5.04,2.45.87,4.33,3,6.08,4.83,1.61,1.58,3.32,3.43,4.34,5.48.98.66,2.36.35,3.47.41,1.39,0,2.95,0,4.34,0,4.32,0,8.7,0,13.03,0,1.84-1.26,3.3-3.31,5.21-4.53,2.51-1.84,5.54-3.13,7.82-5.29,1.99-1.89,3.32-4.61,5.21-6.59,2.25-2.46,5.06-4.49,7.82-6.33,3.93-2.53,9.92-6.8,14.76-6.06,6.29,2.12,8.36,10.56,13.03,14.76,1.77,1.33,4.08,1.9,6.08,2.78,4.77,2.04,7.82,6.62,10.42,10.89.99.61,2.37.32,3.47.38,1.99,0,4.09,0,6.08,0,5.49,0,11.01,0,16.5,0"/><path class="b" d="M8.72,24.19c4.28-4.82,8.95.59,13.03,2.68,1.87,1.08,4.08.24,6.08.68,2.76.53,5.32,1.98,7.82,3.21,2.9,1.51,6.68,2.79,9.55.56,3.16-2.21,6.05-6.65,10.42-5.71,2.46.7,4.35,2.78,6.08,4.55.77.81,1.88,1.88,2.61,2.73.84,1.14,1.78,2.85,2.61,4,6.35-.08,12.77.17,19.11-.1,1.95-2.36,4.29-4.59,6.95-6.13,2.31-1.36,4.96-2.44,6.95-4.29,1.32-1.2,2.45-3.01,3.47-4.45,1.19-1.58,2.75-3.15,4.34-4.32,2.4-1.75,5.17-3.11,7.82-4.44,3.29-1.62,6.78-3.21,10.42-3.82,6.63-.36,9.94,9.53,13.9,13.68,1.53,1.75,3.94,2.44,6.08,3.08,6.26,1.77,8.41,6.24,12.16,10.8h25.19"/><path class="b" d="M8.72,22.52c2.46-2.44,5.51-1.16,7.82.77,2.42,1.77,4.63,4.67,7.82,4.88,1.39-.19,2.96-.18,4.34.09,3.87.69,7.38,2.91,11.29,3.4,6.62,1.08,9.14-8.49,15.63-7.63,3.66,1,6.08,4.44,8.68,6.98,1.25,1.41,1.92,3.8,3.47,4.89h16.5c.98-.56,1.84-1.84,2.61-2.63,1.5-1.62,3.31-3.18,5.21-4.31,2.91-1.71,6.4-2.78,8.68-5.39,1.2-1.35,2.26-3.24,3.47-4.58,1.19-1.32,2.76-2.55,4.34-3.37,2.18-1.13,4.63-1.88,6.95-2.65,3.12-1.05,6.35-2.05,9.55-2.81,7.26-1.26,10.61,9.06,14.76,13.39,5.99,5.46,9.57-.47,18.24,12.3,8.38.1,16.8,0,25.19.04"/><path class="b" d="M8.72,20.87c5.21-3.72,9.65,5.71,13.9,7.66,1.03.57,2.35.43,3.47.31,1.4-.06,2.96.07,4.34.3,3.44.54,6.89,1.86,10.42,1.58,7.7-.56,10.46-13.74,19.11-6,1.44,1.33,3.01,2.86,4.34,4.29,1.26,1.65,2.46,3.83,3.47,5.63,1.91.55,4.1.13,6.08.26,3.16,0,6.39,0,9.55,0,8.31-11.2,12.61-7.74,18.24-14.54,2.79-4.55,5.96-6.63,11.29-7.12,4.07-.45,8.16-1.2,12.16-2.07,8.61-1.25,11,12.36,17.37,15.26,2.19.87,4.7.8,6.95,1.45,2.71.74,5.07,2.6,6.95,4.64,1.66,1.8,1.56,2.61,4.34,2.38,7.52,0,15.06,0,22.58,0"/><path class="b" d="M8.72,19.27c4.85-2.85,9.53,6.98,13.03,9.42.94.76,2.25,1.36,3.47,1.1,1.39-.13,2.95-.18,4.34-.15,3.74.05,7.58.74,11.29.01,7.56-1.05,10.7-14.07,19.11-6.83,1.45,1.27,3.02,2.76,4.34,4.17,1.61,2.06,2.98,4.66,4.34,6.9,2.87.02,5.82,0,8.68,0,1.09,0,2.39,0,3.47,0,.48.08,1.32-.11,1.74-.35,2.66-3.47,5.68-6.94,9.55-9.09,2.59-1.46,5.59-2.47,7.82-4.52,2.84-2.74,4.21-6.8,8.68-7.33,2.58-.34,5.24.22,7.82.36,2.89.23,5.84-.13,8.68-.62,8.36-.73,10.73,11.16,16.5,15.03,2.08,1.19,4.64,1.04,6.95,1.21,2.48.14,4.97,1.05,6.95,2.55,1.17.77,2.19,2.19,3.47,2.75,7.81,0,15.64,0,23.45,0l.87-.82"/><path class="b" d="M8.72,17.74c5.21-2.16,9.81,9.79,13.9,12.27.98.73,2.32.72,3.47.54,1.39-.13,2.95-.27,4.34-.4,4.08-.39,8.34-.63,12.16-2.26,4.24-1.67,6.39-6.33,10.42-8.33,4.12-2.03,7.66,1.99,10.42,4.54,2.5,2.47,4.03,5.95,6.08,8.78h11.29c1.39-.86,2.35-2.67,3.47-3.83,1.78-2.07,3.83-4.12,6.08-5.66,4.36-2.89,9.29-4.21,12.16-9,1.49-2.29,4.16-3.89,6.95-3.28,2.35.41,4.65,1.44,6.95,2.06,2.8.86,5.8.81,8.68.46,8.71-.46,10.99,12.82,17.37,15.8,3.34,1.22,7.01-.17,10.42.62,1.86.38,3.7,1.34,5.21,2.49,1,.57,2.37.3,3.47.35,4.32,0,8.7,0,13.03,0,1.98-.09,4.13.21,6.08-.17.8-.61,1.86-1.51,2.61-2.18"/><path class="b" d="M8.72,16.29c4.49-1.28,8.76,8.49,11.29,11.46,1.12,1.42,2.45,3.27,4.34,3.63,3.21-.1,6.45-.84,9.55-1.63,3.89-1.09,7.96-2.3,11.29-4.65,2.11-1.78,3.92-4.11,6.08-5.84,4.3-3.59,7.87-1.07,11.29,2.2,3.34,2.76,5.11,7.02,7.82,10.33,3.15.21,6.4.03,9.55.09,3.37-3.54,6.29-7.74,10.42-10.49,3.8-2.65,8.46-4.37,11.29-8.23,1.88-2.92,4.22-4.95,7.82-3.46,5.85,2.61,8.61,5.87,15.63,5.22,8.77.08,10.97,13.24,17.37,16.3,3.67,1.36,7.54-.67,11.29-.44,1.12.04,2.43.31,3.47.71.7.45,1.81.42,2.61.4,6.07-.04,12.17.08,18.24-.05,1.56-1.39,3.58-2.46,5.21-3.77"/></svg>