<?xml version="1.0" encoding="UTF-8"?><svg id="a" xmlns="http://www.w3.org/2000/svg" width="1920" height="2400" viewBox="0 0 192 240"><defs><style>.b{fill:none;stroke:#fff;stroke-miterlimit:10;stroke-width:.3px;}.c{stroke-width:0px;}</style></defs><rect class="c" x="0" width="192" height="240"/><path class="b" d="M8.74,222.41c6.63-3.74,9.5,3.55,12.16,8.28,6.64,0,13.32,0,19.97,0,1.69,0,3.52,0,5.21,0,1.71-.6,3.32-1.89,5.21-1.95,2.19-.22,4.26.88,6.08,1.95.77,0,1.83,0,2.6,0,5.77,0,11.59,0,17.36,0,3.1-.11,6.51.25,9.55-.17,2.26-3.45,4.15-7.41,6.08-11.05,1.69-2.78,4.16-8.85,7.81-9.01,3.17.71,6.46,8.33,8.68,11.03,2.62,3.73,5.61,6.37,10.42,4.86.77-.19,1.84-.36,2.6-.58,1.61-.78,2.98-2.29,4.34-3.42,6.06-5.65,9.77,3.97,12.16,8.35h44.28"/><path class="b" d="M8.74,221.32c6.85-3.5,9.08,3.93,12.16,8.36h26.05c2.94-2,6.18-3.14,9.55-1.39.79.38,1.77,1.09,2.6,1.39.44,0,1.3,0,1.74,0,5.48,0,11.01,0,16.5,0,1.99,0,4.09,0,6.08,0,1.09-.05,2.43.17,3.47-.26,2.26-3.54,4.15-7.58,6.08-11.3,1.68-2.82,4.14-9,7.81-9.21,3.21.7,6.51,8.55,8.68,11.3,2.48,3.72,5.58,6.86,10.42,5.64,3.97-.19,4.87-2.18,7.81-4.28,3.89-2.88,6.83.98,8.68,4.15.76,1.16,1.41,3.16,2.6,3.97h44.28"/><path class="b" d="M8.74,220.57c4.61-2.23,7.19.27,9.55,4.09.78,1.18,1.5,3.09,2.6,4.03,8.38,0,16.8,0,25.18,0,1.34.23,2.43-.7,3.47-1.37,1.28-.75,2.85-1.33,4.34-1.37,2.2-.06,4.34,1,6.08,2.26.94.77,2.35.42,3.47.49,4.9,0,9.86,0,14.76,0,1.69,0,3.52,0,5.21,0,1.11-.07,2.52.26,3.47-.45,2.25-3.6,4.14-7.68,6.08-11.44,1.67-2.82,4.13-9.01,7.81-9.18,3.25.72,6.53,8.71,8.68,11.53,2.42,3.74,5.53,7.17,10.42,6.19,3.49-.05,4.34-1.21,6.95-3.2,5.61-4.53,8.68,2.56,11.29,6.56h45.15"/><path class="b" d="M8.74,220.08c4.55-2.14,7.15.18,9.55,3.95.78,1.07,1.38,3,2.6,3.66h26.92c5.48-4.42,9.33-4.59,14.76,0h23.44c1.62-1.21,2.45-3.69,3.47-5.38,1.69-3.26,3.38-6.85,5.21-10.04,2.57-4.3,5.71-8.95,9.55-2.68,3.33,4.76,5.43,10.94,10.42,14.28,1.53.91,3.47,1.05,5.21.87,1.1-.11,2.45.04,3.47-.46,2.04-1.02,3.8-2.89,6.08-3.37,3.91-.48,6.06,3.92,7.81,6.72,15.33.19,30.69,0,46.02.07"/><path class="b" d="M8.74,219.79c5.83-2.8,8.73,2.06,11.29,6.51.99.61,2.36.32,3.47.38,1.39,0,2.95,0,4.34,0,4.9,0,9.86,0,14.76,0,1.09,0,2.39,0,3.47,0,.83.01,1.92.11,2.6-.46,3.06-2.73,7.3-5.11,11.29-2.78,1.59.78,2.86,2.33,4.34,3.24h21.71c3.55-4.75,5.58-10.67,8.68-15.72,2.64-4.35,5.79-8.51,9.55-2.35,3.34,4.82,5.42,11.06,10.42,14.48,1.53.93,3.46,1.1,5.21.96,1.09-.08,2.43.13,3.47-.28,1.74-.72,3.38-2.04,5.21-2.55,3.6-.96,6.12,2.7,7.81,5.31,1.96.35,4.1.08,6.08.16,3.45,0,6.97,0,10.42,0,10.12,0,20.27,0,30.39,0"/><path class="b" d="M8.74,219.65c5.72-2.64,8.58,1.51,11.29,5.94,6.63.25,13.33.02,19.97.09,1.69,0,3.52,0,5.21,0,1.1-.05,2.45.2,3.47-.31,1.57-1.41,3.32-2.91,5.21-3.87,2.15-1.15,4.87-1.15,6.95.18,6.06,4.47,1.98,4.04,10.42,4,4.9-.07,9.87.15,14.76-.09,2.93-4.57,5.14-9.76,7.81-14.47,2.6-4.47,6.3-10.33,10.42-3.43,3.33,4.85,5.4,11.13,10.42,14.57,2.34,1.44,5.22.84,7.81,1.03,1.8-.25,3.47-1.39,5.21-1.87,3.32-1.07,6.09,1.76,7.81,4.25,15.91.03,31.84,0,47.75,0"/><path class="b" d="M8.74,219.6c5.78-2.45,8.05.91,11.29,5.08,6.64,0,13.32,0,19.97,0,1.69,0,3.52,0,5.21,0,1.1-.04,2.41.13,3.47-.2,1.34-1.26,2.85-2.66,4.34-3.74,1.95-1.43,4.57-2.49,6.95-1.55,1.29.5,2.55,1.56,3.47,2.57.99,1.01,2.08,2.47,3.47,2.92,2.87,0,5.82,0,8.68,0,3.16,0,6.39,0,9.55,0,.75-.19,1.41-1.29,1.74-1.91.45-.77,1.32-2.36,1.74-3.15,1.68-3.21,3.39-6.74,5.21-9.88,2-3.42,5.85-9.36,9.55-4.15,2.88,3.93,4.84,8.67,7.81,12.54,2.18,2.96,4.93,4.56,8.68,4.17.77-.03,1.84.07,2.6.13,1.12-.06,2.4-.49,3.47-.8,4.05-1.27,5.84.54,8.68,3.05h48.62"/><path class="b" d="M8.74,219.59c3.36-1.28,6.09-1.14,8.68,1.55.79.75,1.58,2.08,2.6,2.53,6.06,0,12.17,0,18.23,0,3.44-.1,7,.2,10.42-.14,3.37-3.1,8.15-8.8,13.02-5.26,1.88,1.52,3.35,3.74,5.21,5.29,6.05.28,12.17.02,18.23.11,1.51-1.41,2.46-3.8,3.47-5.57,1.66-3.19,3.36-6.7,5.21-9.78,2.84-4.68,6.47-8.96,10.42-2.43,3.36,4.83,5.7,12.27,11.29,14.88,1.34.5,2.94.5,4.34.44,1.1-.06,2.38.26,3.47.19,3.84-.61,6.58-.85,9.55,2.14,5.99.35,12.21.02,18.23.13,10.7,0,21.42,0,32.13,0"/><path class="b" d="M8.74,219.59c4.64-1.63,7.26-.48,10.42,3.09,9.83-.1,19.71.19,29.52-.11,3.45-2.98,8-9.34,13.02-5.89,1.95,1.61,3.38,4,5.21,5.74.75.33,1.81.26,2.6.25,1.39,0,2.95,0,4.34,0,3.74,0,7.55,0,11.29,0,3-4.48,5.09-9.71,7.81-14.36,2.85-4.9,6.89-10.61,11.29-3.38,3.31,4.75,5.69,12.32,11.29,14.72,1.64.57,3.51.31,5.21.35,1.09.13,2.37.37,3.47.33,1.73-.03,3.63.12,5.21.9.8.39,1.74,1.18,2.6,1.44,6.64,0,13.32,0,19.97,0,10.41,0,20.85,0,31.26,0"/><path class="b" d="M8.74,219.54c3.75-1.12,6.67-.81,9.55,2.01,4.88.33,9.86.03,14.76.13,5.19-.1,10.46.2,15.63-.12,3.47-2.79,8.08-9.65,13.02-6.18,2,1.72,3.4,4.28,5.21,6.2,3.43.27,6.97.03,10.42.11,1.39,0,2.95,0,4.34,0,1.09-.04,2.42.14,3.47-.21,2.55-4.17,4.59-8.86,6.95-13.13,2.8-5.09,7.37-12.34,12.16-4.43,3.26,4.75,5.22,11.15,10.42,14.18,1.87.93,4.08.53,6.08.55,3.28.55,6.89.81,9.55,3.03,17.65.02,35.31,0,52.96,0"/><path class="b" d="M8.74,219.42c3.13-.72,5.98-.7,8.68,1.25,8.96,0,17.95,0,26.92,0,1.39-.06,2.98.16,4.34-.18,1.75-1.45,3.47-3.21,5.21-4.67,2.65-2.31,5.97-3.75,8.68-.65,1.49,1.68,2.6,4.06,4.34,5.5,3.74,0,7.55,0,11.29,0,1.39,0,2.95,0,4.34,0,.83.01,1.92.11,2.6-.46,2.51-4.29,4.55-9.08,6.95-13.43,2.89-5.26,7.36-11.8,12.16-4.01,3.21,4.65,5.22,11.18,10.42,13.99,1.9.85,4.08.34,6.08.37,3.1.45,6.21,1.57,8.68,3.54h53.83"/><path class="b" d="M8.74,219.19c1.39-.14,2.95-.33,4.34-.18.8.09,1.84.41,2.6.66.44,0,1.3,0,1.74,0,7.51,0,15.06,0,22.57,0,1.69,0,3.52,0,5.21,0,1.47-.02,3.24.28,4.34-.93,3.37-2.44,7.67-8.51,12.16-5.09,1.75,1.59,2.94,4.01,4.34,5.89,6.03.35,12.18.02,18.23.13.74-.28,1.42-1.57,1.74-2.22.81-1.55,1.85-3.7,2.6-5.27,2.82-5.49,8.94-21.39,15.63-10.64,3.11,4.42,5.73,12.45,11.29,14.05,1.69.37,3.51-.12,5.21-.08,1.47.16,3.02.8,4.34,1.46.83.44,1.88,1.15,2.6,1.74.61.72,1.67,1.11,2.6.97,7.51,0,15.06,0,22.57,0,10.12,0,20.27,0,30.39,0"/><path class="b" d="M8.74,218.67c10.41,0,20.85,0,31.26,0,1.69,0,3.52,0,5.21,0,.77,0,1.83,0,2.6,0,.47-.16,1.34-.65,1.74-.96,3.69-2.54,8.89-8.8,13.02-3.58,1.21,1.32,1.87,3.67,3.47,4.54h18.23c3.98-3.48,9.16-24.88,16.5-21.91,1.96.91,3.25,3.05,4.34,4.82,1.66,2.8,3.28,5.93,5.21,8.55,3.56,4.56,5.18,4.1,10.42,3.64,3.13.39,5.7,2.71,7.81,4.9h54.7"/><path class="b" d="M8.74,217.67c6.35,0,12.75,0,19.1,0,2.87,0,5.82,0,8.68,0,1.12.1,2.37-.41,3.47-.48,1.42-.15,2.94.37,4.34.48,1.09-.03,2.4.1,3.47-.14.45-.18,1.32-.6,1.74-.85,3.6-1.94,8.05-7.3,12.16-3.61,1.37,1.23,2.14,3.36,3.47,4.6h19.1c.72-.29,1.46-1.74,1.74-2.42.45-.93,1.31-2.82,1.74-3.76,2.16-4.12,6.96-18.71,13.02-16.19,1.95.91,3.26,3.03,4.34,4.8,1.65,2.78,3.27,5.91,5.21,8.51,1.44,1.91,3.53,3.83,6.08,3.78,1.4-.01,2.94-.46,4.34-.43,3.37.4,5.62,3.43,7.81,5.7h54.7"/><path class="b" d="M8.74,216.67c8.38,0,16.8,0,25.18,0,.9.17,1.87-.51,2.6-.95,1.56-.84,3.51-1.06,5.21-.59,3.66,1.29,4.91,2.05,8.68.09,6.47-3.69,9.23-6.29,13.89,1.44h19.97l.87-.5c2.13-4.36,3.98-9.17,6.08-13.55,2-3.98,6.02-12.61,11.29-7.66,3.48,3.88,5.19,9.2,8.68,13.09,1.74,2.06,4.29,3.06,6.95,2.38,1.08-.21,2.39-.44,3.47-.17,3.07,1.04,4.93,4.07,6.95,6.42h54.7"/><path class="b" d="M8.74,215.67c5.48,0,11.01,0,16.5,0,2.86-.11,5.86.24,8.68-.17,1.98-2.14,4.93-3.66,7.81-2.42,1.43.52,2.83,1.56,4.34,1.84,1.75.3,3.62-.24,5.21-.94,5.24-2.52,8.53-4.18,12.16,1.7,4.61,0,9.28,0,13.89,0,2.57-.1,5.28.23,7.81-.17,2.13-4.55,3.98-9.55,6.08-14.11,1.97-4.01,5.87-13,11.29-8.07,3.49,3.85,5.19,9.17,8.68,13.03,1.78,2.07,4.28,2.98,6.95,2.25,1.07-.23,2.39-.48,3.47-.2,3.21,1.23,5,4.64,6.95,7.27h54.7"/><path class="b" d="M8.74,214.66h24.31c4.32-5.31,6.66-5.13,12.16-1.59,1.59.74,3.52.78,5.21.37,4.92-1.32,8.27-3.65,12.16,1.23h22.57c3.21-4.7,9.17-30.57,17.36-23.07,3.52,3.81,5.18,9.15,8.68,12.99,1.78,2.08,4.29,2.94,6.95,2.19,1.07-.24,2.39-.49,3.47-.2,3.32,1.43,5.09,5.15,6.95,8.05,18.23.11,36.47,0,54.7.04"/><path class="b" d="M8.74,213.66c5.48,0,11.01,0,16.5,0,2.28,0,4.66,0,6.95,0,.72-.12,1.38-1.01,1.74-1.58.41-.51,1.25-1.48,1.74-1.91,2.07-1.98,4.63-2.01,6.95-.41,5.53,4.37,7.74,2.52,13.89,1.93,1.16-.03,2.49.31,3.47.93.65.58,1.69,1.21,2.6,1.04,7.51,0,15.06,0,22.57,0,3.61-4.06,8.48-29.25,16.5-24.46,1.95,1.26,3.17,3.66,4.34,5.59,1.55,2.69,3.14,5.69,5.21,8.02,1.78,2.08,4.28,2.97,6.95,2.21,1.07-.24,2.39-.49,3.47-.19,3.41,1.57,5.08,5.55,6.95,8.59.76.3,1.81.23,2.6.23,1.39,0,2.95,0,4.34,0,4.32,0,8.7,0,13.02,0,11.57-.01,23.16,0,34.73,0"/><path class="b" d="M8.74,212.66c5.48,0,11.01,0,16.5,0,2.28,0,4.66,0,6.95,0,1.16-.43,1.81-2.09,2.6-2.96,1.72-2.21,4.28-3.68,6.95-2.08,1.17.65,2.37,1.71,3.47,2.46,3.06,2.16,6.91,1.61,10.42,1.5,1.48-.05,2.98.58,4.34,1.08,2.57,0,5.24,0,7.81,0,3.74,0,7.55,0,11.29,0,2.28-.08,4.69.17,6.95-.14,2.04-5.21,3.9-10.84,6.08-15.99,1.78-3.74,5.11-12.61,10.42-8.45,3.59,3.75,5.21,9.12,8.68,12.98,1.76,2.1,4.26,3.05,6.95,2.33,1.08-.23,2.39-.45,3.47-.14,3.46,1.69,5.07,5.84,6.95,8.98,1.24.78,2.95.31,4.34.43,2.57,0,5.24,0,7.81,0,2.86-.11,5.86.24,8.68-.17.67-.58,1.7-1.15,2.6-1.17,1.27-.03,2.29,1.12,3.47,1.34,2.87,0,5.82,0,8.68,0,6.35,0,12.75,0,19.1,0"/><path class="b" d="M8.74,211.08l.87.58c4.9,0,9.86,0,14.76,0,1.69,0,3.52,0,5.21,0,1.09-.05,2.43.17,3.47-.26,2.04-3.54,5.22-7.93,9.55-4.63,1.62,1.23,3.27,2.73,5.21,3.44,2.18.88,4.64.91,6.95,1.06,1.1.06,2.37.45,3.47.38,9.25,0,18.53,0,27.78,0,3.26-4.36,8.33-31.52,16.5-25.3,3.64,3.72,5.25,9.12,8.68,13.02,1.71,2.11,4.25,3.22,6.95,2.56,1.08-.2,2.4-.39,3.47-.07,2.45,1.08,3.86,3.83,5.21,6,.75,1.1,1.32,3.18,2.6,3.79,4.03,0,8.12,0,12.16,0,2.27-.1,4.71.23,6.95-.19,2.58-3.37,5.22-2.82,7.81.17,8.96.05,17.95,0,26.92.02"/><path class="b" d="M8.74,209.16c.36.46,1.21,1.24,1.74,1.5h22.57c2.3-3.23,4.99-8.31,9.55-5.05,1.65,1.23,3.3,2.77,5.21,3.6,3.24,1.54,6.91,1.52,10.42,1.45,9.54-.1,19.13.2,28.65-.11,1.98-5.62,3.84-11.66,6.08-17.18,1.6-3.38,4.6-11.99,9.55-8.67,3.7,3.66,5.29,9.1,8.68,13.03,1.66,2.12,4.22,3.44,6.95,2.9,1.09-.15,2.41-.29,3.47.05,2.44,1.13,3.86,3.89,5.21,6.09.75,1.14,1.36,3.18,2.6,3.89h18.23c3.75-4.32,5.43-5,9.55-.49.69.6,1.76.51,2.6.49,1.09,0,2.38,0,3.47,0,6.64,0,13.32,0,19.97,0"/><path class="b" d="M8.74,207.11c.45.55,1.32,1.69,1.74,2.27,1.32.51,2.95.19,4.34.28,2.57,0,5.24,0,7.81,0,2.28,0,4.66,0,6.95,0,1.39-.11,3.08.32,4.34-.38,1.71-3.1,4.75-7.54,8.68-4.81,1.94,1.41,3.83,3.17,6.08,4.09,1.05.45,2.33.95,3.47,1.09,1.99,0,4.09,0,6.08,0,9.54,0,19.11,0,28.65,0,3.01-4.36,7.94-31.29,15.63-26.52,3.77,3.51,5.35,8.91,8.68,12.8,1.64,2.12,4.2,3.64,6.95,3.29,1.1-.07,2.42-.13,3.47.26,2.45,1.22,3.86,4.04,5.21,6.28.75,1.13,1.32,3.24,2.6,3.89h18.23c2.03-2.66,4.32-5.86,7.81-3.09,1.18.87,2.24,2.3,3.47,3.09h24.31"/><path class="b" d="M8.74,205.03c.78,1.07,1.66,2.68,2.6,3.63h22.57c2.05-2.35,3.91-7.06,7.81-5.76,2.48,1.16,4.4,3.46,6.95,4.57,1.05.47,2.28,1.23,3.47,1.19,1.99,0,4.09,0,6.08,0,6.35,0,12.75,0,19.1,0,2.28,0,4.67,0,6.95,0,1.11-.06,2.5.25,3.47-.42,2.05-5,7.47-28.41,13.89-26.94,3.39,1.19,6.22,8.57,8.68,11.56,1.64,2.31,3.96,4.62,6.95,4.79,1.4.11,3.02.03,4.34.6,3.47,2.15,5.03,6.52,6.95,9.95.7.56,1.77.47,2.6.45,1.39,0,2.95,0,4.34,0,4.03,0,8.12,0,12.16,0,2.18-2.42,4.1-6.03,7.81-3.55,1.53.98,2.75,2.69,4.34,3.55h23.44"/><path class="b" d="M8.74,202.99c.84,1.34,1.88,3.24,2.6,4.65,4.9.04,9.86,0,14.76.01,2.86-.08,5.84.18,8.68-.13,1.51-2.73,4.09-7.26,7.81-5.44,2.31,1.47,4.44,3.46,6.95,4.64,1.04.62,2.24,1.09,3.47.93,1.69,0,3.52,0,5.21,0,9.83,0,19.69,0,29.52,0,2.69-5.36,7.26-27.86,13.89-27.62,3.34.75,6.36,8.04,8.68,10.79,3.47,4.64,5.08,4.8,10.42,5.82,3.93,1.58,5.87,7.31,7.81,10.82,1.65.38,3.52.11,5.21.18,2.57,0,5.24,0,7.81,0,1.39,0,2.95,0,4.34,0,.84.02,1.92.11,2.6-.49.65-.99,1.65-2.27,2.6-3,1.57-1.27,3.74-.81,5.21.38,1.42.94,2.66,2.64,4.34,3.1,2.28,0,4.67,0,6.95,0,5.19,0,10.43,0,15.63,0"/><path class="b" d="M8.74,201.07c.84,1.5,1.88,3.62,2.6,5.18.98.65,2.36.34,3.47.4,1.69,0,3.52,0,5.21,0,4.9,0,9.86,0,14.76,0,1.58-1.56,2.46-4.06,4.34-5.36,2.2-1.63,4.31-.24,6.08,1.27,1.34,1.01,2.9,2.03,4.34,2.88.75.42,1.73,1.09,2.6,1.22.44,0,1.3,0,1.74,0,1.69,0,3.52,0,5.21,0,9.54,0,19.11,0,28.65,0,.75-.6,1.49-2.88,1.74-3.79.77-2.35,1.81-5.56,2.61-7.9,1.81-4.6,4.16-13.58,8.68-15.91,3.47-1.15,6.75,6.2,8.68,8.5,3.76,5.26,5.29,5.99,11.29,7.78,4.13,2.16,5.58,7.52,7.81,11.32h19.97c4.28-5.93,6.25-4.28,11.29-.51,1.5.93,3.53.37,5.21.51,6.06,0,12.17,0,18.23,0"/><path class="b" d="M8.74,199.32c.46.9,1.33,2.74,1.74,3.66.29.73.92,2.37,1.74,2.68,4.9,0,9.86,0,14.76,0,1.69,0,3.52,0,5.21,0,1.09-.04,2.43.16,3.47-.24,1.44-2.52,3.41-6.79,6.95-6,1.24.45,2.4,1.53,3.47,2.27,1.94,1.37,4.05,2.74,6.08,3.98,7.8,0,15.64,0,23.44,0,2.57,0,5.24,0,7.81,0,1.68-.11,3.59.28,5.21-.27,2.91-8.2,5.03-17.09,9.55-24.6,4.24-6.52,7.49-.31,10.42,3.53,3.19,4.55,5.94,7.39,11.29,9.27,4.83,2.12,5.94,8.07,8.68,12.06,4.32,0,8.7,0,13.02,0,1.69,0,3.52,0,5.21,0,.8,0,1.87.08,2.6-.3,3.69-4.98,6.18-2.96,10.42-.19,1.83.91,4.1.35,6.08.49,5.77,0,11.59,0,17.36,0"/><path class="b" d="M8.74,197.78c.46.97,1.33,2.94,1.74,3.92.27.76.95,2.55,1.74,2.95h23.44c2.18-3.56,4.84-9.54,9.55-5.23,1.97,1.41,4.1,2.85,6.08,4.26.4.34,1.23.84,1.74.97.44,0,1.3,0,1.74,0,1.69,0,3.52,0,5.21,0,9.54,0,19.11,0,28.65,0,3.04-6.28,6.95-24.88,13.02-27.63,3.42-.92,7.91,7.23,10.42,9.48,2.36,2.73,5.66,4.4,8.68,6.24,2.49,1.64,3.89,4.68,5.21,7.25.75,1.36,1.37,3.64,2.6,4.66,6.93,0,13.9,0,20.84,0,.53-.21,1.37-.93,1.74-1.37.91-.8,2.24-1.43,3.47-1.29,2.79.35,4.86,3.15,7.81,2.66,6.93,0,13.9,0,20.84,0"/><path class="b" d="M8.74,196.49c.45,1.02,1.32,3.09,1.74,4.13.27.77.93,2.65,1.74,3.03h23.44c2.4-3.15,4.63-10.19,9.55-5.98,2.65,1.82,5.36,3.75,7.81,5.83,4.18.38,8.78.04,13.02.15,7.51,0,15.06,0,22.57,0,.71-.63,1.48-2.76,1.74-3.65.77-2.23,1.82-5.27,2.61-7.49,2.11-5.31,3.71-11.53,7.81-15.7,3.68-2.99,8.03,4.36,10.42,6.6,9.18,9.84,10.45,4.95,16.5,19.77.45.33,1.19.57,1.74.47,1.09,0,2.38,0,3.47,0,3.16,0,6.39,0,9.55,0,2.57,0,5.24,0,7.81,0,1.38-.67,2.67-2.03,4.34-1.89,1.85.08,3.5,1.32,5.21,1.89.77,0,1.83,0,2.6,0,6.93,0,13.9,0,20.84,0"/><path class="b" d="M8.74,195.46c.82,1.92,1.87,4.59,2.6,6.55l.87.64h23.44c2.19-2.43,4.2-10.1,8.68-7.41,3.4,2.13,6.6,4.7,9.55,7.41,7.51,0,15.06,0,22.57,0,2.57,0,5.24,0,7.81,0,1.09,0,2.39,0,3.47,0,.48.1,1.33-.13,1.74-.41,3.27-8.31,5.44-17.47,10.42-24.97,3.69-5.27,8.44,1.22,11.29,4.05,9.28,9.85,11.01,7.4,16.5,21.33,5.48.02,11.01,0,16.5,0,2.28,0,4.66,0,6.95,0,1.16-.14,2.26-1.1,3.47-1.05,1.49-.07,2.91.85,4.34,1.05,1.99,0,4.09,0,6.08,0,6.06,0,12.17,0,18.23,0"/><path class="b" d="M8.74,194.71c.82,1.95,1.87,4.64,2.6,6.62,1.02.51,2.37.26,3.47.32,1.69,0,3.52,0,5.21,0,5.19,0,10.43,0,15.63,0,2.1-2.48,4.21-10.77,8.68-8.35,2.45,1.46,4.85,3.24,6.95,5.17,1.13.95,2.19,2.42,3.47,3.18h34.73c3.06-7.09,5.21-14.81,8.68-21.73,3.58-7.31,6.72-6.87,12.16-1.5,4.04,4.23,8.48,8.24,12.16,12.8,2.14,3.15,3.4,7.11,5.21,10.43,13.62.01,27.21-.06,40.81,0,1.39,0,2.95,0,4.34,0,1.08-.18,2.37-.47,3.47-.43.79.02,1.82.37,2.6.43,1.39,0,2.95,0,4.34,0"/><path class="b" d="M8.74,194.22c.79,1.9,1.81,4.53,2.6,6.42h24.31c2.09-3.22,3.04-8.25,6.95-9.78,2.26-.11,6.07,3.3,7.81,4.77,1.51,1.38,3.05,3.07,4.34,4.66.43.24,1.25.43,1.74.35,1.09,0,2.38,0,3.47,0,9.83,0,19.69,0,29.52,0,1.64-2.17,2.39-5.51,3.47-7.99,1.59-4.19,3.27-8.74,5.21-12.78,2.28-4.75,5.03-8.73,10.42-4.76,2.57,1.89,4.81,4.39,6.95,6.75,2.36,2.7,4.87,5.5,6.95,8.43,2.13,3.12,3.11,7.34,5.21,10.34,12.44,0,24.9,0,37.33,0,1.09,0,2.39,0,3.47,0,3.61-1.47,8.1-3.47,11.29-.1,1.08.16,2.38.08,3.47.1"/><path class="b" d="M8.74,193.98c.75,1.68,1.54,4.14,2.6,5.66h24.31c1.53-3.13,4.79-13.66,9.55-10.06,4.24,2.38,7.6,6.14,10.42,10.03,11.28.07,22.58,0,33.86.03l.87-.55c2.39-5.64,4.52-11.69,6.95-17.32,2.06-4.61,5.04-11.98,11.29-8.29,2.73,1.63,4.93,4.19,6.95,6.6,2.39,2.98,4.82,6.17,6.95,9.35,1.28,2.19,2.5,4.98,3.47,7.33.23.69.96,2.55,1.74,2.89,10.12,0,20.27,0,30.39,0,1.99,0,4.09,0,6.08,0,.77,0,1.83,0,2.6-.02.43-.24,1.31-.73,1.74-.98,4.97-2.87,8.04-3.74,12.16,1h2.6"/><path class="b" d="M8.74,193.96c.44,1.01,1.31,3.06,1.74,4.07l.87.61h23.44c1.42-.86,1.82-3.44,2.61-4.8,1.28-2.5,2.53-5.82,5.21-7.12,1.91-.33,3.68,1.34,5.21,2.29,3.56,2.52,5.9,6.39,8.68,9.63h33.86c2.51-5.44,4.6-11.35,6.95-16.86,1.82-3.74,3.35-9,7.81-10.26,5.67-.95,10.1,6.56,13.02,10.49,1.41,2.1,3.01,4.43,4.34,6.58,1.65,2.98,3.06,6.54,4.34,9.69.44.25,1.24.44,1.74.36,1.09,0,2.38,0,3.47,0,2.87,0,5.82,0,8.68,0,8.38,0,16.8,0,25.18,0,5.65-4.19,9.95-7.59,14.76-.09.77.12,1.83.09,2.6.09"/><path class="b" d="M8.74,194.11c.38.9,1.24,2.69,1.74,3.53h24.31c2.25-4.12,3.42-9.3,6.95-12.6,1.38-1.19,3.01-.3,4.34.49,3.16,1.85,5.69,4.76,7.81,7.69.44.62,1.32,1.9,1.74,2.55.3.58,1.04,1.68,1.74,1.87h32.99c2.64-4.15,4.08-9.32,6.08-13.81,1.7-3.87,3.17-8.35,6.08-11.5,6.02-5.97,11.63,2.16,14.76,7,1.73,2.72,3.56,5.69,5.21,8.46,1.62,3.05,3.03,6.66,4.34,9.85,9.83,0,19.69,0,29.52,0,1.99,0,4.09,0,6.08,0,1.1-.06,2.46.21,3.47-.33,5.78-5.47,9.94-8.15,14.76.16.76.23,1.82.18,2.6.18"/><path class="b" d="M8.74,194.38l.87,1.8c.96.72,2.36.39,3.47.46,1.69,0,3.52,0,5.21,0,5.19,0,10.43,0,15.63,0l.87-.67c1.62-3.47,4.61-13.29,8.68-13.84,6.7,2.05,10.42,8.91,13.89,14.51h32.99c.73-.32,1.46-1.87,1.74-2.57.45-.99,1.32-2.99,1.74-3.99,2.24-5.25,4.19-10.92,6.95-15.93,6.34-10.06,12.1-3.71,16.5,3.82,1.72,2.91,3.53,6.09,5.21,9.03,1.59,3,2.83,6.6,4.34,9.63h38.2c1.82-1.38,3.33-3.41,5.21-4.74,4.79-3.76,8.22.59,10.42,4.72.77.02,1.83.01,2.6.01"/><path class="b" d="M8.74,194.7l.87.94h24.31c1.87-4.29,3.56-9,6.08-12.97,1.82-2.6,3.11-3.64,6.08-1.79,3.75,2.15,6.4,5.87,8.68,9.45,1.14,1.62,2,3.96,3.47,5.3,6.93,0,13.9,0,20.84,0,2.57,0,5.24,0,7.81,0,1.39-.09,3.03.25,4.34-.29,3.59-6.98,5.91-14.74,9.55-21.69,6.48-10.68,11.79-5.47,16.5,3.04,2,3.7,4.24,7.55,6.08,11.34,1.15,2.35,2.09,5.39,3.47,7.61,12.73-.03,25.48.06,38.2-.03,6.71-7.62,9.72-9.9,15.63.03h2.6"/><path class="b" d="M8.74,194.64h24.31c2.58-3.9,5.68-16.09,10.42-17.02,7.28,1.94,11.3,10.82,14.76,16.89,4,.35,8.13.04,12.16.14,6.93,0,13.9,0,20.84,0,4.02-7.39,6.23-15.83,10.42-23.13,6.7-9.89,11.43-3.82,15.63,3.99,1.99,3.85,4.2,7.88,6.08,11.79,1.14,2.26,1.95,5.32,3.47,7.36,8.09,0,16.22,0,24.31,0,2.87,0,5.82,0,8.68,0,1.68-.12,3.6.29,5.21-.29,3.14-3.55,7.59-9.78,12.16-4.33.49.56,1.35,1.79,1.74,2.43.28.63,1.06,1.91,1.74,2.19h2.6"/><path class="b" d="M8.74,193.64h23.44c2.93-3.76,6.38-17.38,11.29-18.21,4.78,1.11,7.89,5.64,10.42,9.53,1.16,1.87,2.44,4.18,3.47,6.13.29.68,1.13,2.11,1.74,2.56h32.13c4.25-7.24,6.27-15.75,10.42-23.04,6.76-10.38,11.35-4.52,15.63,3.76,1.97,3.97,4.15,8.14,6.08,12.14,1.14,2.19,1.86,5.25,3.47,7.14h37.33c1.98-1.31,3.3-3.69,5.21-5.13,4.9-4.22,8.16,1.15,10.42,5.13h3.47"/><path class="b" d="M8.74,192.63h22.57c2.23-3.03,3.45-7.07,5.21-10.39,1.62-3.02,3.02-6.88,6.08-8.73,1.51-.53,3.1.63,4.34,1.39,5.84,4.38,8.65,11.56,12.16,17.73h32.13c4.64-7.66,6.39-16.96,11.29-24.47,6.68-9.5,11.15-1.94,14.76,5.12,1.96,4.06,4.12,8.32,6.08,12.37,1.13,2.13,1.83,5.18,3.47,6.98,12.44,0,24.9,0,37.33,0,5.85-6.5,9.51-9.9,14.76-.42,1.24.78,2.95.31,4.34.43"/><path class="b" d="M8.74,191.63h21.71c3.75-4.87,7.07-17.18,12.16-20.07,7.11-.59,13.63,14.36,16.5,19.79,1.32.53,2.95.2,4.34.28,2.28,0,4.66,0,6.95,0,6.93,0,13.9,0,20.84,0,2.82-5.03,4.77-10.77,6.95-16.09,1.39-3.36,2.83-7.14,5.21-9.94,6.94-8.97,11.82,2.61,14.76,8.44,1.61,3.51,3.54,7.22,5.21,10.71,1.12,2.12,1.88,5.07,3.47,6.88,9.54,0,19.11,0,28.65,0,1.69,0,3.52,0,5.21,0,1.12-.07,2.53.28,3.47-.48,3.07-2.86,7.16-7.78,11.29-3.61,1.3,1.11,2.07,3.14,3.47,4.09h4.34"/><path class="b" d="M8.74,190.63h20.84c3.52-4.18,9.12-20.64,13.89-20.71,5.45,1.54,8.56,7.1,11.29,11.66,1.14,2.04,2.42,4.51,3.47,6.6.26.66,1.05,2.13,1.74,2.45,10.41-.03,20.85.07,31.26-.04,2.74-5.23,4.77-11.07,6.95-16.54,1.53-3.79,3.13-8,6.08-10.95,6.65-6.96,11.38,5.28,13.89,10.14,1.6,3.51,3.51,7.22,5.21,10.68,1.1,2.08,1.94,4.91,3.47,6.72,7.8,0,15.64,0,23.44,0,1.71.04,3.5-.63,5.21-.23,1.37.33,2.95.22,4.34.23.77,0,1.83,0,2.6,0,.47-.2,1.34-.76,1.74-1.08,2.96-2.4,6.75-5.95,10.42-2.65,1.29.99,2.12,2.85,3.47,3.73h5.21"/><path class="b" d="M8.74,189.63c6.35,0,12.75,0,19.1,0,.63-.12,1.41-.97,1.74-1.48.85-1.14,1.89-2.78,2.6-4,2.57-4.3,4.68-9.12,7.81-13.05.86-.97,2.08-2.15,3.47-2.14,1.96.41,3.76,1.73,5.21,3.06,5.1,4.88,7.59,11.79,11.29,17.63,10.41-.09,20.86.18,31.26-.1,2.35-4.64,4.23-9.85,6.08-14.71,2.24-5.26,3.91-12.26,9.55-14.87,5.78-1.53,9.97,10.49,12.16,14.54,1.29,2.84,2.94,5.91,4.34,8.69,1.08,2.01,2.01,4.68,3.47,6.45,7.22,0,14.48,0,21.71,0,.53.09,1.33-.23,1.74-.56.73-.39,1.79-.76,2.6-.88,2.94-.52,5.77,1.43,8.68.95,3.29-.98,5.87-4.43,9.55-4.01,1.28.2,2.56,1.06,3.47,1.95.8.74,1.53,2.17,2.6,2.56,1.99,0,4.09,0,6.08,0"/><path class="b" d="M8.74,188.63c3.74,0,7.55,0,11.29,0,1.39,0,2.95,0,4.34,0,.81,0,1.88.09,2.6-.35,4.29-3.37,6.61-8.7,9.55-13.17,1.64-2.4,3.26-5.49,6.08-6.64,1.17-.31,2.46.37,3.47.9,6.87,4.24,10.03,12.35,13.89,19.09,1.66.35,3.52.1,5.21.17,2.87,0,5.82,0,8.68,0,5.77-.09,11.61.18,17.37-.11,2.34-4.78,4.21-10.11,6.08-15.09,2.03-4.79,4.36-13.99,10.42-14.68,5.35.59,8.97,11,11.29,15.32,1.27,2.77,2.91,5.76,4.34,8.45,1.06,1.92,2.1,4.39,3.47,6.11,6.64,0,13.32,0,19.97,0,1.32.23,2.4-1,3.47-1.56,2.67-1.62,5.87-.96,8.68-.12,6.31,1.8,9.6-7.38,16.5,1.43,1.04.42,2.38.21,3.47.26,1.39,0,2.95,0,4.34,0"/><path class="b" d="M8.74,187.63c4.03,0,8.12,0,12.16,0,.83.11,1.87-.27,2.6-.62,1.11-.33,2.49-.5,3.47-1.16,6.04-4.22,8.4-11.95,13.89-16.72,1.27-1.05,2.86-1.27,4.34-.51,1.94.78,3.76,2.16,5.21,3.66,2.77,2.89,4.94,6.5,6.95,9.95,1.1,1.66,1.92,4.11,3.47,5.41,10.12-.04,20.27.08,30.39-.05,2.33-4.9,4.2-10.36,6.08-15.44,1.88-4.76,5.95-18.4,13.02-12.92,3.62,3.43,5.6,8.38,7.81,12.75,2.56,5.32,5.41,10.75,8.68,15.66,6.64,0,13.32,0,19.97,0,.89-.37,1.82-1.28,2.6-1.81,1.73-1.22,3.95-1.93,6.08-1.64,2.02.21,4.03,1.19,6.08,1.18,1.75-.16,3.5-.98,5.21-1.34,3.11-.82,6.02,1.17,7.81,3.58,2.86.1,5.82.01,8.68.04"/><path class="b" d="M8.74,186.63c3.74,0,7.55,0,11.29,0,1.18-.43,2.29-1.47,3.47-1.9,1.85-.47,3.74-1.02,5.21-2.32,4.7-3.81,7.4-9.67,12.16-13.4,1.93-1.52,4.11-.76,6.08.24,6.65,3.73,9.93,11.22,13.89,17.38h30.39c2.37-4.95,4.18-10.5,6.08-15.65,1.99-5.51,6.59-19.49,13.89-11.2,3.33,4.06,5.45,9.14,7.81,13.79,2.23,4.48,4.95,8.91,7.81,13.01,6.06.16,12.17.01,18.23.06.45.05,1.31-.06,1.74-.22.42-.39,1.29-1.13,1.74-1.49,1-.78,2.28-1.6,3.47-2.04,3.17-1.31,6.41.38,9.55.82,5.77-.48,7.56-1.92,12.16,2.92h9.55"/><path class="b" d="M8.74,185.63h10.42c1.09-.8,2.29-1.88,3.47-2.56,1.01-.62,2.37-.86,3.47-1.21,2.31-.86,4.34-2.58,6.08-4.29,3.13-2.78,7.01-9.02,11.29-9.38,6.4.73,10.57,6.42,13.89,11.39.78,1.19,1.84,2.84,2.6,4.04.27.58,1.13,1.72,1.74,2h29.52c2.84-5.67,4.66-12.1,6.95-18,2.93-8.43,7.79-16.6,14.76-5.51,3.77,5.96,6.3,12.78,10.42,18.53.74,1.09,1.79,2.56,2.6,3.59.36.52,1.05,1.31,1.74,1.39,6.06,0,12.17,0,18.23,0,2.54-1.59,4.67-4.1,7.81-4.59,2.98-.66,5.78,1.12,8.68,1.33,5.02-.23,6.51-.19,10.42,3.26h10.42"/><path class="b" d="M8.74,184.62h9.55c1.42-1.08,2.79-2.54,4.34-3.43,1-.63,2.35-.94,3.47-1.26,1.49-.5,3.05-1.33,4.34-2.23,3.7-2.5,6.59-6.18,10.42-8.5,1.84-1.18,4.13-.78,6.08-.11,6.99,2.58,10.57,9.85,14.76,15.52,9.83.04,19.69,0,29.52.01,3.01-5.5,4.61-12,6.95-17.81,2.67-7.58,7.04-15.68,13.89-5.8,5.32,7.73,8.22,17.48,15.63,23.61,6.06,0,12.17,0,18.23,0,2.08-1.19,3.82-3.18,6.08-4.11,3.25-1.59,6.39-.44,9.55.67,2.28.44,4.8.19,6.95,1.21,1.22.5,2.29,1.68,3.47,2.23,3.74,0,7.55,0,11.29,0"/><path class="b" d="M8.74,183.62h8.68c1.85-1.11,3.29-3.08,5.21-4.13,1.28-.81,2.93-1.1,4.34-1.58,2.12-.72,4.23-1.84,6.08-3.1,3.42-2.08,7.07-6.37,11.29-6.17,6.12.24,10.49,5.11,13.89,9.69,1.42,1.65,2.54,4.02,4.34,5.29h28.65c1.21-1.35,1.92-3.88,2.6-5.53,1.43-3.79,2.9-8.09,4.34-11.88,3.5-9.83,7.88-14.4,14.76-3.56,4.62,6.92,7.98,16.88,15.63,20.96,3.74,0,7.55,0,11.29,0,2.27-.1,4.71.24,6.95-.19,2.31-1.87,4.81-3.96,7.81-4.51,1.4-.24,3-.04,4.34.42,1.09.39,2.33,1.04,3.47,1.27,1.7.34,3.6.51,5.21,1.2,1.19.39,2.22,1.64,3.47,1.81,4.03,0,8.12,0,12.16,0"/><path class="b" d="M8.74,182.62c2.57,0,5.24,0,7.81,0,1.4-.29,2.35-1.92,3.47-2.72,1.92-1.8,4.39-2.95,6.95-3.5,5.1-1.2,9.32-4.46,13.89-6.82,2.41-1.2,5.31-.91,7.81-.19,6.24,2.19,9.74,8.39,13.89,13.12,9.53.29,19.11.01,28.65.11,1.4-.98,1.9-3.61,2.6-5.08,1.12-2.94,2.38-6.47,3.47-9.41,3.12-8.54,6.82-17.56,14.76-6.24,5.03,7.11,8.23,16.33,16.5,20.42.73.4,1.8.33,2.6.32,1.39,0,2.95,0,4.34,0,3.74,0,7.55,0,11.29,0,.93-.17,1.85-1.07,2.6-1.6,1.54-1.11,3.34-2.2,5.21-2.61,2.42-.6,4.84.43,6.95,1.52,1.35.51,2.96.77,4.34,1.18,1.15.31,2.38,1.04,3.47,1.51,4.61,0,9.28,0,13.89,0"/><path class="b" d="M8.74,181.62c2.57-.01,5.24.03,7.81-.02,2.32-2.21,4.78-4.61,7.81-5.8,2.23-.77,4.69-1.13,6.95-1.84,2.07-.63,4.16-1.58,6.08-2.57,6.11-3.62,11.9-3.78,17.36,1.14,1.85,1.64,3.6,3.67,5.21,5.55,1.05,1.13,2.11,2.76,3.47,3.55,6.06,0,12.17,0,18.23,0,1.99,0,4.09,0,6.08,0,1.39-.1,3.04.28,4.34-.33,2.51-5.71,4.5-11.93,6.95-17.66,4.03-10.13,8.84-7.37,13.89.14,3.76,5.2,6.49,11.73,12.16,15.19,1.89,1.06,3.99,2.09,6.08,2.66,1.69,0,3.52,0,5.21,0,4.03-.05,8.13.1,12.16-.06,2.92-2.18,6.67-4.6,10.42-3.09,1.13.45,2.32,1.31,3.47,1.7,1.07.37,2.39.69,3.47,1.04,1.02.51,2.37.4,3.47.41,1.09,0,2.39,0,3.47,0,3.45,0,6.97,0,10.42,0"/><path class="b" d="M8.74,180.62h6.95c11.04-9.81,11.24-4.82,22.57-9.77,12.7-6.41,17.03,1.57,25.18,9.68,9.53.26,19.11.01,28.65.1,2.65-5.36,4.47-11.37,6.95-16.81,4.15-10.05,8.98-6.08,13.89.71,2.78,3.74,5.26,7.95,8.68,11.15,1.69,1.53,3.93,2.46,6.08,3.14,1.72.52,3.5,1.28,5.21,1.82,3.16,0,6.39,0,9.55,0,2.57-.06,5.26.14,7.81-.11,1.56-1.02,3.35-2.04,5.21-2.36,1.44-.25,3.07.08,4.34.8,1.01.65,2.24,1.51,3.47,1.67,6.64,0,13.33,0,19.97,0"/><path class="b" d="M8.74,179.62h6.08c4.2-3.01,8.46-6.77,13.89-7.01,2.92-.21,5.93-.58,8.68-1.64,2.83-1.04,5.63-2.55,8.68-2.8,7.7-.85,12.18,6.75,17.37,11.08,1.27.68,2.95.26,4.34.37,1.99,0,4.09,0,6.08,0,6.06,0,12.17,0,18.23,0,1.2-1.22,1.91-3.58,2.6-5.11,1.37-3.31,2.81-7.06,4.34-10.31,3.8-8.78,8.15-5.93,13.02.06,2.8,3.39,5.36,7.19,8.68,10.11,1.66,1.52,3.9,2.32,6.08,2.74,2.39.49,4.83,1.28,6.95,2.5,2.57,0,5.24,0,7.81,0,3.45,0,6.97,0,10.42,0,1.13-.2,2.33-.92,3.47-1.09.77-.14,1.84-.11,2.6.08.81.21,1.78.84,2.6,1.01,7.51,0,15.06,0,22.57,0"/><path class="b" d="M8.74,178.62c1.69,0,3.52,0,5.21,0,2.71-1.98,5.59-3.92,8.68-5.25,1.62-.73,3.41-1.49,5.21-1.58,3.18-.16,6.5-.1,9.55-1.18,2.61-.84,5.12-2.25,7.81-2.84,7.49-1.86,12.39,5.41,17.37,9.67.39.35,1.27.96,1.74,1.18,1.09,0,2.39,0,3.47,0,2.28,0,4.67,0,6.95,0,3.74,0,7.55,0,11.29,0,1.39,0,2.95,0,4.34,0,.79,0,1.88.08,2.6-.31,2.67-5.37,4.55-11.4,7.81-16.45,3.88-5.5,9.28,1.22,12.16,4.38,3.62,3.85,7.27,9.11,13.02,9.4,1.73.17,3.6.47,5.21,1.16,1.15.45,2.31,1.38,3.47,1.81,7.22,0,14.48,0,21.71,0,8.96,0,17.95,0,26.92,0"/><path class="b" d="M8.74,177.62c1.09,0,2.38,0,3.47,0,1.48-.61,2.92-1.7,4.34-2.43,2.73-1.54,5.79-2.59,8.68-3.77,2.78-.9,5.82-.27,8.68-.61,3.7-.3,7-2.25,10.42-3.51,8.19-3.1,13.35,5.75,19.1,9.85.67.58,1.78.5,2.6.48,1.09,0,2.39,0,3.47,0,7.8,0,15.64,0,23.44,0,2.51-3.61,3.88-8.2,6.08-12.01,2.46-4.8,5.1-6.06,9.55-2.44,4.3,3.54,7.82,8.31,13.02,10.62,1.31.59,2.93.62,4.34.6,3.33-.2,6.17,1.14,8.68,3.22h48.62"/><path class="b" d="M8.74,176.61c1.25.16,2.43-.33,3.47-.95,1.37-.71,2.91-1.47,4.34-2.06,1.94-.81,4.08-1.4,6.08-2.03,1.4-.43,2.86-1.24,4.34-1.39,3.45-.26,7.07.41,10.42-.79,2.98-.89,5.65-2.83,8.68-3.57,7.62-1.38,11.73,6.96,17.37,10.45,1.57.66,3.53.2,5.21.33,2.57,0,5.24,0,7.81,0,3.74,0,7.55,0,11.29,0,1.98-.07,4.11.16,6.08-.14,2.29-4.07,4.06-8.71,6.95-12.41,2.13-2.75,5.59-1.19,7.81.59,4.08,3.15,7.9,7.1,13.02,8.5,1.36.41,2.95.19,4.34.04,3.37-.54,6.39,1.05,8.68,3.42h48.62"/><path class="b" d="M8.74,175c2.3-.85,4.6-2,6.95-2.71,1.95-.62,4.08-.97,6.08-1.38,1.46-.25,2.93-.99,4.34-1.39,1.97-.41,4.09-.14,6.08-.15,2.7.04,5.42-.71,7.81-1.93,1.98-.94,3.93-2.28,6.08-2.81,5.5-1.12,9.49,3.98,13.02,7.38,1.28,1.27,2.76,2.68,4.34,3.56,3.16.11,6.39.01,9.55.04,6.93,0,13.9,0,20.84,0l.87-.51c1.95-2.87,4.99-10.88,8.68-11.01,3.37.12,5.98,2.81,8.68,4.51,2.58,1.81,5.55,3.26,8.68,3.77,1.7.44,3.54.05,5.21-.32,3.48-.86,6.45,1.01,8.68,3.55h48.62"/><path class="b" d="M8.74,172.78c2.26-.78,4.59-1.72,6.95-2.15,1.97-.39,4.09-.46,6.08-.72,1.78-.15,3.45-1.2,5.21-1.42,1.98-.21,4.09.04,6.08-.1,2.42-.14,4.83-1,6.95-2.16,1.98-1.01,3.9-2.5,6.08-3.04,5.68-.97,9.45,4.72,13.02,8.21,1.27,1.12,2.56,3.01,4.34,3.21,1.99,0,4.09,0,6.08,0,1.08-.12,2.39-.24,3.47-.05,7.22.14,14.48,0,21.71.05,1.57-.85,2.37-3.25,3.47-4.63,4.27-7.03,7.38-3.89,13.02-.7,2.62,1.54,5.63,2.54,8.68,2.62,2.05.26,4.14-.22,6.08-.86,3.59-1.15,6.44.96,8.68,3.57h48.62"/><path class="b" d="M8.74,170.69c2.24-.72,4.59-1.48,6.95-1.69,2.28-.24,4.68.02,6.95-.28,1.45-.19,2.88-1.06,4.34-1.2,2.57-.27,5.28.09,7.81-.53,2.49-.56,4.81-1.91,6.95-3.27,2.31-1.57,5.01-3.08,7.81-1.8,3.61,1.63,6.09,5.06,8.68,7.92.74.84,1.79,1.97,2.6,2.74.6.7,1.68,1.18,2.6,1.02,1.99,0,4.09.02,6.08-.01,1.06-.33,2.36-.56,3.47-.48,1.1.11,2.35.61,3.47.5,2.57,0,5.24,0,7.81,0,2.57,0,5.24,0,7.81,0,1.39-.08,3.02.24,4.34-.27,6.09-9.08,7.13-6.08,15.63-2.48,2.46.97,5.22,1.13,7.81.8,2.09-.05,4.15-.73,6.08-1.51,3.66-1.41,6.4.81,8.68,3.46h48.62"/><path class="b" d="M8.74,168.83c2.23-.68,4.6-1.32,6.95-1.39,1.99-.09,4.09.19,6.08.15,1.79.04,3.47-.97,5.21-1.19,1.98-.24,4.1-.11,6.08-.43,4.29-.59,7.68-3.55,11.29-5.68,7.37-3.62,12.33,9.17,17.37,12.32,2.57,0,5.24,0,7.81,0,1.06-.38,2.34-.78,3.47-.81,1.14-.03,2.44.36,3.47.81,1.39,0,2.95,0,4.34,0,5.48,0,11.01,0,16.5,0,1.45-1.1,2.6-2.91,4.34-3.6,1.41-.41,3.02.08,4.34.59,1.97.79,4,1.8,6.08,2.29,2.26.56,4.71.36,6.95-.18,7.35-1.05,9.32-6.36,15.63.9h48.62"/><path class="b" d="M8.74,167.2c2.23-.67,4.6-1.28,6.95-1.31,1.99-.05,4.09.29,6.08.3,1.47.06,2.96-.55,4.34-.94,1.67-.34,3.52-.32,5.21-.5,4.66-.32,8.43-3.35,12.16-5.86,7.22-4.93,12.85,8.89,17.36,12.72,2.87,0,5.82,0,8.68,0,1.41-.28,2.86-1.11,4.34-1.03,1.16.02,2.47.46,3.47,1.03,4.32.02,8.7,0,13.02,0,2.87,0,5.82,0,8.68,0,.8-.34,1.76-1.06,2.6-1.31,1.76-.29,3.59.5,5.21,1.1,1.05.35,2.38.17,3.47.21,1.39,0,2.95,0,4.34,0,1.39,0,2.95,0,4.34,0,.79-.14,1.83-.54,2.6-.77,1.49-.42,2.95-1.38,4.34-2.04,3.48-1.84,6.46.03,8.68,2.81h48.62"/><path class="b" d="M8.74,165.69c2.22-.71,4.6-1.37,6.95-1.39,2-.04,4.09.33,6.08.39,1.46.1,2.96-.46,4.34-.83,1.08-.22,2.38-.32,3.47-.41,5.6-.18,9.47-3.29,13.89-6.25,6.53-4.6,12.69,9.48,16.5,13.34,3.44.17,6.97.02,10.42.07,1.31-.64,2.85-1.26,4.34-1.17,1.17.07,2.47.59,3.47,1.17,2.57,0,5.24,0,7.81,0,6.06,0,12.17,0,18.23,0,3.74,0,7.55,0,11.29,0,1.39,0,2.95,0,4.34,0,.8.04,1.89-.02,2.6-.44,4.97-2.98,7.67-4.84,12.16.31,5.75.35,11.6.02,17.37.13,10.41,0,20.85,0,31.26,0"/><path class="b" d="M8.74,164.28c5.03-1.99,7.84-1.74,13.02-1.14,1.76.18,3.5-.61,5.21-.86,6.52-.51,9.43-1.77,14.76-5.49,3.5-2.54,5.63-2.42,8.68.71,3.33,3.57,5.7,8.06,8.68,11.9,1.35.4,2.95.14,4.34.21,1.99,0,4.09,0,6.08,0,1.83.22,3.38-1.29,5.21-1.27.81-.03,1.85.17,2.6.46.79.32,1.72.97,2.6.81,6.35,0,12.75,0,19.1,0,5.77,0,11.59,0,17.36,0,1.39,0,2.95,0,4.34,0,.81,0,1.89.09,2.6-.37,1.34-.9,2.81-1.99,4.34-2.55,2.16-.85,4.51.2,6.08,1.74.33.45,1.17,1.11,1.74,1.18.43,0,1.31,0,1.74,0,15.33,0,30.68,0,46.02,0"/><path class="b" d="M8.74,162.96c3.67-1.69,7.29-2.36,11.29-1.58,1.69.26,3.57.41,5.21-.17,3.78-.77,7.82-.88,11.29-2.78,2.94-1.32,5.52-3.76,8.68-4.54,5.11-.06,9.93,10.64,13.02,14.37,1.29.62,2.95.24,4.34.34,2.28,0,4.66,0,6.95,0,.44,0,1.3,0,1.74,0,1.34-.62,2.83-1.38,4.34-1.34,1.51-.01,2.97.82,4.34,1.34,1.69,0,3.52,0,5.21,0,6.06,0,12.17,0,18.23,0,6.64,0,13.32,0,19.97,0,2.42-1.28,4.81-3.84,7.81-2.85,1.68.46,2.87,2.05,4.34,2.85h47.75"/><path class="b" d="M8.74,161.71c3.18-1.68,6.81-2.8,10.42-2.06,1.68.25,3.51.66,5.21.37,3.44-.85,7.12-.97,10.42-2.34,2.38-.92,4.68-2.29,6.95-3.46,2.18-1.16,3.98-1.82,6.08-.08,4.04,3.57,6.4,8.73,9.55,13.03.97.69,2.36.37,3.47.43,1.39,0,2.95,0,4.34,0,1.99,0,4.09,0,6.08,0,.49-.01,1.34-.34,1.74-.63.73-.36,1.79-.67,2.6-.73,1.13-.07,2.45.25,3.47.71.71.42,1.78.75,2.6.65,14.18,0,28.37,0,42.54,0,4.64-3.42,6.75-4.14,11.29,0h47.75"/><path class="b" d="M8.74,160.54c3.11-1.89,6.74-3.3,10.42-2.45,1.68.29,3.5.79,5.21.57,3.47-.71,7.1-1.12,10.42-2.44,3.21-1.16,6.21-3.08,9.55-3.87,1.74-.19,3.24,1.2,4.34,2.38,1.95,2.22,3.62,4.95,5.21,7.43,1.07,1.37,1.85,3.66,3.47,4.45,2.87,0,5.82,0,8.68,0,1.99,0,4.09,0,6.08,0,1.3-.71,2.83-1.39,4.34-1.37,1.14.01,2.44.39,3.47.85.7.46,1.79.58,2.6.52,14.18,0,28.37,0,42.54,0,3.74-3.15,6.7-3.69,10.42-.14,1.96.31,4.09.07,6.08.14,3.74,0,7.55,0,11.29,0,10.12,0,20.27,0,30.39,0"/><path class="b" d="M8.74,159.41c4.1-2.79,7.25-3.89,12.16-2.45,1.67.48,3.52.54,5.21.11,2.92-.49,5.9-1.21,8.68-2.24,2.57-.92,5.16-2.12,7.81-2.79,4.21-1.44,6.63,3.55,8.68,6.36,1.09,1.69,2.37,3.73,3.47,5.41.27.53,1.11,1.62,1.74,1.79,5.19,0,10.43,0,15.63,0,1.66-.57,3.37-1.55,5.21-1.32,1.14.09,2.43.5,3.47.93.43.25,1.24.46,1.74.39,4.61,0,9.28,0,13.89,0,9.83,0,19.69,0,29.52,0,2.16-1.95,5.09-3.23,7.81-1.59.81.44,1.74,1.27,2.6,1.59,1.69,0,3.52,0,5.21,0,13.89,0,27.79,0,41.68,0"/><path class="b" d="M8.74,158.32c6.45-4.73,7.62-3.73,14.76-2.15,2.63.02,5.3-.8,7.81-1.49,4.01-1.16,7.94-3.08,12.16-3.35,2.31-.25,3.94,1.96,5.21,3.57,1.5,2.05,2.98,4.47,4.34,6.61.73.96,1.39,2.67,2.6,3.1,3.45,0,6.97,0,10.42,0,2.28-.08,4.69.17,6.95-.14.73-.4,1.79-.81,2.6-.98,1.39-.28,2.99-.11,4.34.28,1.09.27,2.32.96,3.47.84,14.47,0,28.95,0,43.41,0,3.17-2.78,6.33-2.66,9.55-.05,15.62.14,31.26,0,46.89.05"/><path class="b" d="M8.74,157.24c2.95-2.48,6.42-4.78,10.42-3.45,1.68.46,3.44,1.29,5.21,1.32,3.28-.24,6.46-1.46,9.55-2.49,3.35-1.04,9.19-3.16,12.16-.59,3.2,3.18,5.21,7.51,7.81,11.15,1.25.76,2.95.3,4.34.41,2.58,0,5.24,0,7.81,0,2.28-.03,4.67.07,6.95-.06,1.3-.67,2.88-1.12,4.34-1.11,2.04,0,4.09.74,6.08,1.1,4.61.17,9.28.01,13.89.07,10.12,0,20.27,0,30.39,0,3.62-2.72,5.88-2.05,9.55,0,1.69,0,3.52,0,5.21,0,13.6,0,27.21,0,40.81,0"/><path class="b" d="M8.74,156.17c2.88-2.63,6.35-5.2,10.42-3.64,1.4.46,2.9,1.19,4.34,1.52,2.98.41,5.92-1.01,8.68-1.94,3.29-1.23,6.88-2.31,10.42-1.71,2.32.14,3.98,2.02,5.21,3.81,1.78,2.56,3.45,5.49,5.21,8.06.76.43,1.78.34,2.6.34,1.09,0,2.38,0,3.47,0,3.45,0,6.97,0,10.42,0,1.09,0,2.38.02,3.47-.04,1.59-.73,3.46-1.08,5.21-.96,1.71.11,3.5.58,5.21.68,1.4.03,2.95-.18,4.34-.21,1.11-.02,2.42.15,3.47.5.78.04,1.83.03,2.6.03,6.06,0,12.17,0,18.23,0,5.48,0,11.01,0,16.5,0,1.56-.9,3.35-1.84,5.21-1.54,1.82.11,3.39,1.67,5.21,1.54,4.61,0,9.28,0,13.89,0,10.12,0,20.27,0,30.39,0"/><path class="b" d="M8.74,155.09c2.85-2.78,6.26-5.56,10.42-3.73,1.41.54,2.89,1.38,4.34,1.8,2.68.58,5.37-.79,7.81-1.72,4.06-1.82,8.85-2.87,13.02-.79,3.56,2.6,5.26,7.18,7.81,10.66.76.37,1.79.29,2.6.29,1.4,0,2.95,0,4.34,0,4.03,0,8.12,0,12.16,0,1.75.15,3.46-.8,5.21-.81,2.29-.15,4.66.48,6.95.34,2.84-.41,5.88-1.85,8.68-.47.45.23,1.3.7,1.74.94,1.09,0,2.38,0,3.47,0,7.51,0,15.06,0,22.57,0,3.16,0,6.39,0,9.55,0,1.37-.54,2.8-1.46,4.34-1.43,1.79-.04,3.6.73,5.21,1.43,4.61,0,9.28,0,13.89,0,10.12,0,20.27,0,30.39,0"/><path class="b" d="M8.74,153.97c2.45-2.52,5.79-5.56,9.55-4.05,1.77.63,3.44,1.83,5.21,2.45,2.36.7,4.81-.53,6.95-1.45,4.7-2.33,9.17-3.39,13.89-.42,3.06,2.55,4.69,6.58,6.95,9.79.76.39,1.79.31,2.6.31,1.4,0,2.95,0,4.34,0,3.74,0,7.55,0,11.29,0,.78,0,1.82,0,2.6,0,1.07-.3,2.36-.57,3.47-.63,1.99-.12,4.09.24,6.08.25,3.94.06,7.37-3.99,11.29-1.36.48.31,1.34,1.04,1.74,1.44,1.6.59,3.53.17,5.21.29,3.74,0,7.55,0,11.29,0,4.61,0,9.28,0,13.89,0,1.96-.12,4.2.3,6.08-.26.71-.43,1.78-.87,2.6-1.02,2.36-.44,4.72.54,6.95,1.18,1.08.18,2.39.09,3.47.11,13.02,0,26.05,0,39.07,0"/><path class="b" d="M8.74,152.8c2.38-2.59,5.8-5.76,9.55-3.96,1.78.75,3.42,2.09,5.21,2.83,2.03.77,4.25-.23,6.08-1.12,5.32-2.9,9.5-4.21,14.76-.24,2.59,2.41,4.14,5.92,6.08,8.83.73.58,1.75.46,2.6.46,1.09,0,2.38,0,3.47,0,3.45,0,6.97,0,10.42,0,1.09,0,2.38,0,3.47,0,1.4-.17,2.92-.59,4.34-.55,2.29-.04,4.66.5,6.95.37,3.93-.18,7.23-5.42,11.29-2.78,1.37.75,2.08,2.45,3.47,2.96,2.28,0,4.66,0,6.95,0,5.48,0,11.01,0,16.5,0,3.74,0,7.55,0,11.29,0,.84-.17,1.81-.81,2.6-1.09,1.64-.57,3.53-.47,5.21-.13,1.43.26,3.04.53,4.34,1.22,4.32,0,8.7,0,13.02,0,8.96,0,17.95,0,26.92,0"/><path class="b" d="M8.74,151.56c2.87-3.18,6.16-6.11,10.42-3.28,1.41.86,2.84,2.05,4.34,2.75,2.39,1.03,4.89-.55,6.95-1.67,5.68-3.52,10.05-3.4,14.76,1.6,1.96,2.25,3.08,5.63,5.21,7.63,5.48,0,11.01,0,16.5,0,1.73.09,3.48-.74,5.21-.72,2.01-.08,4.1.33,6.08.64,2.01.11,4.35.41,6.08-.84,5.35-4.28,7.87-6.03,12.16.75,3.05.42,6.45.06,9.55.17,5.48,0,11.01,0,16.5,0,3.16,0,6.39,0,9.55,0,1.89-.95,3.89-1.95,6.08-1.8,1.73.11,3.71.08,5.21,1.07,1.12,1.1,2.92.63,4.34.72,11.86,0,23.74,0,35.6,0"/><path class="b" d="M8.74,150.22c5.61-6.32,7.88-5.03,13.89-.29,2.21,1.73,4.87.57,6.95-.77,3.37-2.2,7.35-4.57,11.29-2.23,4.25,2.19,6.24,6.82,8.68,10.65,5.19-.02,10.44.05,15.63-.03,2.66-1.35,5.81-1.59,8.68-.89,1.4.25,2.91.93,4.34.92,1.09,0,2.39,0,3.47,0,.88.13,1.95-.28,2.6-.87,2.47-1.88,5.14-6.17,8.68-4.29,1.91,1.16,2.96,3.49,4.34,5.15,11.86,0,23.74.01,35.6,0,1.93-1.56,4.48-2.33,6.95-2.24,1.96-.2,3.81.76,5.21,2.06,1.06.3,2.38.15,3.47.18,1.99,0,4.09,0,6.08,0,9.54,0,19.11,0,28.65,0"/><path class="b" d="M8.74,148.78c5.77-6.59,8.17-4.35,13.89.52,2.29,1.92,4.83.66,6.95-.83,5.8-4.31,9.49-5.22,14.76.5,1.29,1.53,2.47,3.62,3.47,5.35.28.63,1.14,1.89,1.74,2.27,4.32,0,8.7,0,13.02,0,1.84-1.1,3.86-2.27,6.08-2.27,2.72-.08,5.33,1.12,7.81,2.08,1.06.32,2.38.16,3.47.19,1.09-.01,2.39.04,3.47-.06,1.92-1.43,3.38-3.61,5.21-5.14,4.07-3.61,7.04,1.61,8.68,4.91,1.03.47,2.37.24,3.47.29,1.99,0,4.09,0,6.08,0,6.06,0,12.17,0,18.23,0,1.69,0,3.52,0,5.21,0,1.1-.06,2.48.23,3.47-.37,2.16-1.77,5.05-2.53,7.81-2.38,1.67.28,3.13,1.56,4.34,2.66,12.42.27,24.9,0,37.33.1"/><path class="b" d="M8.74,147.19c5.94-6.79,8.51-3.44,13.89,1.44,2.35,2.1,4.81.73,6.95-.9,6.58-5.43,10.29-5.52,15.63,1.5.83,1.25,1.86,3.04,2.6,4.35.3.6.98,1.79,1.74,2,2.57,0,5.24,0,7.81,0,1.39-.07,3,.21,4.34-.23,4.66-5.44,9.56-2.82,14.76.05,2.24.41,4.67.08,6.95.18,2.91-1.87,4.25-6.1,7.81-7.02,1.92-.23,3.37,1.56,4.34,2.98.81,1.17,1.49,3.11,2.6,4.04,7.51,0,15.06,0,22.57,0,4.32-.1,8.73.21,13.02-.13,2.27-2.06,5.59-3.58,8.68-2.9,1.63.59,2.98,2.02,4.34,3.03h36.47"/><path class="b" d="M8.74,145.45c6.08-6.86,8.86-2.33,13.89,2.44,2.37,2.27,4.84.75,6.95-1,5.7-5.05,9.38-6.68,14.76-.06,1.25,1.65,2.44,3.84,3.47,5.63.26.61,1.09,1.85,1.74,2.12,3.45,0,6.97,0,10.42,0,1.44-.56,2.22-2.42,3.47-3.29,4.03-3.25,8.66.11,12.16,2.5.93.82,2.31.84,3.47.78,1.39,0,2.95,0,4.34,0,.6-.13,1.4-.93,1.74-1.42,1.07-1.36,2.28-3.03,3.47-4.29,4.8-5.02,7.31,2.32,9.55,5.7h35.6c2.12-1.97,4.84-3.57,7.81-3.57,2.07.26,3.73,1.94,5.21,3.27,1.31.55,2.95.21,4.34.3,1.99,0,4.09,0,6.08,0,3.16,0,6.39,0,9.55,0,1.31-.58,2.9-.94,4.34-.89,1.43.04,2.98.43,4.34.83,2.57.16,5.24.03,7.81.07"/><path class="b" d="M8.74,143.53c6.18-6.8,9.21-1.09,13.89,3.5,2.4,2.41,4.87.75,6.95-1.12,2.82-2.44,6.32-6.45,10.42-4.56,4.82,2.47,6.54,8.12,9.55,12.24,3.16,0,6.39,0,9.55,0,1.15-.34,1.86-1.88,2.6-2.72,1.38-1.87,3.64-3.48,6.08-3.01,3.39.71,5.93,3.45,8.68,5.36,1,.58,2.37.3,3.47.36,1.39-.07,3,.2,4.34-.22,2.24-2.37,3.74-6.03,6.95-7.24,3.9-.33,5.12,4.91,6.95,7.47h35.6c2.45-1.94,5.32-4.3,8.68-3.61,2.02.65,3.46,2.52,5.21,3.61,5.77-.06,11.6.12,17.37-.07,4.14-2.91,7.49-2.61,12.16-1.44,1.08.24,2.38.2,3.47.14.88.14,1.91.74,2.6,1.28"/><path class="b" d="M8.74,141.4c2.16-2.22,4.97-3.88,7.81-1.72,1.62,1.19,3.04,2.95,4.34,4.46,1.31,1.43,3,3.68,5.21,3,3.76-1.61,5.9-5.71,9.55-7.53,3.4-1.87,6.7.85,8.68,3.5,2.26,2.91,3.52,6.82,6.08,9.47,1.69,0,3.52,0,5.21,0,1.11-.06,2.49.24,3.47-.41,2.21-2.72,4.48-7.29,8.68-6.28,3.84,1.06,6.28,4.66,9.55,6.69,2.28-.01,4.67.03,6.95-.02,2.42-2.34,5.46-9.6,9.55-6.48,1.96,1.67,2.83,4.5,4.34,6.5h35.6c.88-.45,1.8-1.43,2.6-2,1.49-1.05,3.38-1.78,5.21-1.83,2.46.27,4.19,2.46,6.08,3.83,5.48-.03,11.01.06,16.5-.03,4.3-3.57,7.55-4.43,13.02-3.35,2.56.35,3.89-.56,6.08,1.46"/><path class="b" d="M8.74,139.09c2.35-2.23,5.11-3.24,7.81-.92,2.78,1.98,5.46,7.72,8.68,8.03,3.7-.61,6.39-5.63,9.55-7.68,8.54-5.68,11.77,8.77,16.5,13.06h6.08c2.54-2.26,3.95-5.9,6.95-7.64,5.33-2.15,9.12,5.26,13.02,7.64h6.95c2.74-1.71,4.64-7.94,8.68-6.5,1.53.82,2.64,2.64,3.47,4.11.29.68.99,2.09,1.74,2.39,9.25,0,18.53,0,27.78,0,1.69,0,3.52,0,5.21,0,1.12-.07,2.52.27,3.47-.46,1.82-1.86,4.29-3.36,6.95-3.42,2.43.28,4.29,2.33,6.08,3.82,5.19.16,10.44.01,15.63.06,4.05-3.43,7.38-6.06,13.02-5.27,1.39.17,2.95.13,4.34.08.91.2,1.93.93,2.6,1.56"/><path class="b" d="M8.74,136.7c9.02-7.48,11.93,11.54,18.23,7.75,3.79-2.49,5.97-7.33,10.42-8.85,8.25-1.84,10.44,15.75,17.36,14.85,4.35-1.54,5.58-7.12,9.55-9.16,4.77-1.58,9.08,6.08,12.16,8.88.97.65,2.37.35,3.47.41,1.69,0,3.52,0,5.21,0,5.25-6.91,7.55-8.83,12.16,0,8.09,0,16.22,0,24.31,0,3.45,0,6.97,0,10.42,0,.81,0,1.89.1,2.6-.38.7-.73,1.75-1.63,2.6-2.18,1.76-1.05,4.11-1.89,6.08-.93,1.91.81,3.32,2.71,5.21,3.49,4.61,0,9.28,0,13.89,0,3.81-3.21,7.6-7.27,13.02-6.96,1.69.07,3.52.09,5.21.04.93.23,1.94,1.04,2.6,1.71"/><path class="b" d="M8.74,134.28c8.52-5.92,11.6,10.88,17.37,9.33,4.48-2.19,6.49-7.85,11.29-9.59,7.82-1.92,9.87,13.32,16.5,13.7,3.69-.69,5.44-4.8,7.81-7.3,5.39-6.77,11.28,5.55,14.76,9.02,1.67.29,3.52.08,5.21.14,1.39-.07,3,.2,4.34-.23,3.92-5.33,6.81-6.99,10.42-.24.96.74,2.35.4,3.47.47,1.69,0,3.52,0,5.21,0,4.9,0,9.86,0,14.76,0,4.61,0,9.28,0,13.89,0,.59-.06,1.39-.74,1.74-1.18.7-.66,1.75-1.44,2.6-1.89,1.86-.99,4.23-1.32,6.08-.11,1.15.66,2.42,1.62,3.47,2.42.36.36,1.19.81,1.74.77,4.03-.07,8.14.15,12.16-.1,4.15-3.42,8.04-8.36,13.89-8.35,1.69,0,3.52-.02,5.21,0,.95.27,1.95,1.15,2.6,1.86"/><path class="b" d="M8.74,131.91c8.01-4.32,10.94,9.71,16.5,10.56,4.19-.75,7.13-7.57,11.29-9.57,7.91-3.5,10.01,10.77,16.5,11.96,4-.11,6.13-5.05,8.68-7.56,5.57-6.45,11.25,8.19,14.76,11.28,3.16,0,6.39,0,9.55,0,1.4-.52,2.23-2.26,3.47-3.06,3.54-2.37,4.73,1.12,6.95,3.06,8.09,0,16.22,0,24.31,0,2.87,0,5.82,0,8.68,0,1.68-.1,3.58.26,5.21-.25,3.18-3.56,7.11-5.25,11.29-2.15,1.63.91,3.2,2.64,5.21,2.39,2.28,0,4.66,0,6.95,0,.43,0,1.3,0,1.74-.04.83-.45,1.88-1.2,2.6-1.82,3.81-3.32,7.59-7.74,13.02-7.92,1.69-.04,3.52-.07,5.21,0,.96.32,1.96,1.26,2.6,2.01"/><path class="b" d="M8.74,129.64c7.96-3.1,10.92,10.55,16.5,11.45,4.16-.72,7.16-7.57,11.29-9.59,7.74-3.57,9.78,10.28,16.5,10.52,4.05-.77,5.9-5.27,8.68-7.86,4.39-4.51,8.31,4.17,10.42,7.21.76,1.27,1.82,3.02,2.6,4.28.24.53,1.15,1.7,1.74,1.93,3.16,0,6.39,0,9.55,0,1.81.26,2.77-1.95,4.34-2.49,2.27-.95,3.7,1.22,5.21,2.49,8.38,0,16.8,0,25.18,0,2.87,0,5.82,0,8.68,0,1.69-.09,3.57.23,5.21-.22,2.07-2.42,5.36-4.71,8.68-3.71,3,.99,5.58,3.19,8.68,3.92,1.39,0,2.95,0,4.34,0,1.84-.35,3.66-1.35,5.21-2.36,4.31-3.25,8.06-8.29,13.89-8.54,1.69-.05,3.53-.07,5.21.07.97.36,1.96,1.35,2.6,2.13"/><path class="b" d="M8.74,127.51c7.6-1.58,10.11,9.08,15.63,12,3.65,1.17,7.99-6.94,11.29-8.81,7.54-5,10.01,7.96,16.5,8.6,3.58-.28,5.61-3.99,7.81-6.4,3.67-4.68,5.87-2.84,8.68,1.35,2.48,3.85,4.51,8.2,6.95,12.08,1.34.45,2.95.16,4.34.24,1.99,0,4.09,0,6.08,0,.44,0,1.3,0,1.74,0,1.17-.38,2.19-1.54,3.47-1.61,1.33-.09,2.37,1.09,3.47,1.61,4.61,0,9.28,0,13.89,0,5.48,0,11.01,0,16.5,0,1.99,0,4.09,0,6.08,0,1.09-.04,2.42.14,3.47-.22,2.07-2.49,5.31-4.7,8.68-3.89,2.94.75,5.65,2.53,8.68,2.97,3.36.54,6.71-.86,9.55-2.54,4.16-2.89,7.67-7.47,13.02-8.06,1.98-.18,4.11-.1,6.08.11.98.39,1.96,1.43,2.6,2.24"/><path class="b" d="M8.74,125.57c7.83-.75,10.91,11.59,16.5,12.63,3.82-.52,6.92-6.67,10.42-8.76,7.4-4.89,9.84,7.82,16.5,7.25,3.92-1.01,5.9-5.18,8.68-7.77,3.48-3.75,6.07.84,7.81,3.72,2.43,4.17,4.32,8.89,6.95,12.94,4.32,0,8.7,0,13.02,0,.84.07,1.78-.55,2.6-.58.49,0,1.33.3,1.74.55.44.02,1.3.03,1.74.03,8.67,0,17.37,0,26.05,0,2.87,0,5.82,0,8.68,0,1.68-.1,3.58.26,5.21-.25,6.42-7.33,9.88-2.79,17.37-2.14,3.67.1,7.32-1.39,10.42-3.25,3.96-2.85,7.79-6.88,13.02-6.86,1.69.02,3.54.09,5.21.36.98.43,1.96,1.5,2.6,2.32"/><path class="b" d="M8.74,123.82c7.89.07,12,13.91,17.36,12.74,3.89-1.76,5.95-6.11,9.55-8.34,7.3-4.69,9.74,7.8,16.5,5.94,4.12-1.65,6.01-6.28,9.55-8.71,3.43-1.95,5.53,3.48,6.95,5.76,1.46,2.85,2.94,6.12,4.34,9,.68,1.32,1.5,3.34,2.6,4.37,17.94,0,35.89,0,53.83,0,7.2.12,3.54.11,8.68-3.36,1.8-1.05,4.03-1.36,6.08-1.07,6.44,1.13,9.48,1.17,15.63-1.42,4.13-1.39,7.13-5.05,11.29-6.43,2.19-.79,4.66-.74,6.95-.43,2.55.11,3.63.61,5.21,2.74"/><path class="b" d="M8.74,122.3c7.6.96,12.23,13.83,17.36,12.76,3.87-1.64,5.96-5.9,9.55-8,7.52-4.61,10.05,8.97,17.36,4.18,1.98-1.37,3.62-3.43,5.21-5.22,1.19-1.28,2.55-2.94,4.34-3.32,4.86-.55,9.69,18.69,13.02,20.87,17.07,0,34.16,0,51.23,0,2.28,0,4.66,0,6.95,0,1.36-.5,2.24-2.14,3.47-2.88,1.48-1.08,3.39-1.7,5.21-1.8,2.28-.14,4.67.1,6.95-.06,2.03-.13,4.15-.6,6.08-1.25,2.26-.86,4.74-1.5,6.95-2.48,2.84-1.48,5.53-3.57,8.68-4.36,2.25-.59,4.69-.35,6.95.07,2.54.23,3.64.74,5.21,2.89"/><path class="b" d="M8.74,121.01c7.66,1.76,13.19,15.03,18.23,12.23,3.53-2.06,5.75-6.03,9.55-7.7,6.64-2.76,8.98,8.12,15.63,3.92,3.67-2.28,5.61-6.84,9.55-8.71,3.74-1.04,6.42,7.55,7.81,10.18,1.61,3.73,3.29,7.81,5.21,11.41,1.05.39,2.38.19,3.47.24,1.39,0,2.95,0,4.34,0,4.32,0,8.7,0,13.02,0,12.73,0,25.47,0,38.2,0,1.29-.67,2.24-2.2,3.47-2.97,3.79-2.64,8.76-1.78,13.02-3.02,3.55-.81,6.86-2.62,10.42-3.38,3.84-1.01,7.2-3.77,11.29-3.95,2.02-.14,4.12.31,6.08.76,2.52.36,3.66.9,5.21,3.01"/><path class="b" d="M8.74,119.94c3.75,1.46,6.75,4.38,9.55,7.18,2.5,2.24,5.91,6.86,9.55,4.18,2.99-2.07,5.24-5.37,8.68-6.78,7.18-2.53,8.87,8.9,16.5,2.09,2.67-2.05,6.07-8.12,9.55-7.77,4.27,1.17,8.9,18.05,12.16,22.72h59.04c.89-.59,1.79-1.72,2.6-2.4.97-.81,2.27-1.57,3.47-1.96,4.08-1.01,8.31-1.72,12.16-3.5,1.98-.84,4.04-1.83,6.08-2.51,1.35-.48,2.97-.56,4.34-.96,2.28-.68,4.58-1.69,6.95-2.02,2.93-.46,5.9.39,8.68,1.24.77.22,1.85.44,2.6.69.95.5,1.95,1.57,2.6,2.41"/><path class="b" d="M8.74,119.08c3.22,1.53,6.05,3.88,8.68,6.25,1.63,1.45,3.37,3.07,5.21,4.27,1.67,1.13,3.46,1.56,5.21.34,3.22-2.07,5.66-5.71,9.55-6.61,7-.96,7.89,8.62,15.63,1.24,2.47-2.05,6.04-8.18,9.55-7.19,4.68,2.46,8.27,18.48,12.16,23.2h59.04c1.54-1.52,3.15-3.27,5.21-4.09,3.17-1.08,6.56-1.75,9.55-3.34,3.18-1.49,6.2-3.53,9.55-4.63,1.35-.46,2.95-.41,4.34-.64,1.98-.36,4.06-.91,6.08-1,2.99-.18,5.94.85,8.68,1.93,1.06.43,2.39.76,3.47,1.12.94.5,1.94,1.55,2.6,2.37"/><path class="b" d="M8.74,118.41c3.74,2.03,7.08,4.81,10.42,7.42,1.83,1.37,3.82,2.92,6.08,3.5,1.62.15,3.13-.96,4.34-1.9,2.59-2.03,5.17-4.91,8.68-5.08,7.06.35,6.97,8.61,15.63-.56,3.44-3.66,7.65-9.69,11.29-2.49,2.34,4.43,4.08,9.47,6.08,14.07,1,1.93,1.73,4.81,3.47,6.2h59.04c2.32-2.98,5.09-4.37,8.68-5.25,2.77-.96,5.37-2.55,7.81-4.15,2.72-1.72,5.48-3.8,8.68-4.48,1.08-.19,2.38-.05,3.47-.13,2.57-.18,5.28-.42,7.81.2,2.41.56,4.72,1.75,6.95,2.78,1.05.51,2.38.91,3.47,1.29.92.5,1.93,1.51,2.6,2.31"/><path class="b" d="M8.74,117.89c4.16,2.47,8.05,5.49,12.16,8.04,4.99,3.12,6.02,2.58,10.42-1.01,2.2-1.77,4.83-3.76,7.81-3.36,6.26,1.23,6.3,7.14,13.89-.55,2.63-2.42,6.61-8.98,10.42-4.95,4.62,6.68,6.25,15.15,10.42,22.11.99.65,2.36.34,3.47.4,1.69,0,3.52,0,5.21,0,5.48,0,11.01,0,16.5,0,7.51,0,15.06,0,22.57,0,2.57,0,5.24,0,7.81,0,1.39-.06,2.98.15,4.34-.17,2.36-2.99,5.18-4.11,8.68-5.18,2.16-.91,4.21-2.33,6.08-3.73,3.25-2.33,6.37-5.47,10.42-6.25,1.69-.15,3.52.23,5.21.26,4.44.11,8.46,2.2,12.16,4.47,1.31.79,2.89,1.45,4.34,1.94.91.49,1.93,1.46,2.6,2.23"/><path class="b" d="M8.74,117.48c4.53,2.87,9.06,5.87,13.89,8.22,1.05.46,2.29,1.2,3.47,1.15,2.35-.35,4.21-2.23,6.08-3.55,2.18-1.68,4.99-3.18,7.81-2.39,1.88.44,3.49,1.8,5.21,2.6,3.64,1,6.39-2.66,8.68-4.92,4.31-4.72,7.79-7.63,11.29-.2,3.04,6.22,5.03,13.16,8.68,19.08,9.81.31,19.69.01,29.52.11,9.54,0,19.11,0,28.65,0,1.04.18,2.02-.47,2.6-1.27.96-.95,2.26-1.91,3.47-2.49,1.34-.66,2.98-1.05,4.34-1.68,1.86-.91,3.64-2.29,5.21-3.62,3.65-2.84,7.95-8.31,13.02-7.49,7.01.94,9.99,2.8,15.63,6.82,1.28.89,2.87,1.65,4.34,2.15.89.48,1.92,1.41,2.6,2.14"/><path class="b" d="M8.74,117.13c3.83,2.56,7.95,4.79,12.16,6.68,4.39,1.97,5.28,3.17,9.55-.08,2.92-2.25,6.56-4.91,10.42-3.4,1.79.52,3.32,2.09,5.21,2.26,4.39-.31,7.18-5.3,10.42-7.81,5.82-5.25,8.47,2.93,10.42,7.29,2.1,4.83,3.85,10.21,6.95,14.52,9.83,0,19.69,0,29.52,0,9.54,0,19.11,0,28.65,0,1.01.22,2-.65,2.6-1.37.7-.66,1.76-1.45,2.6-1.93,1.6-.93,3.57-1.37,5.21-2.21,2.25-1.25,4.24-3.16,6.08-4.94,2.88-2.67,5.65-6.07,9.55-7.2,1.73-.42,3.55.33,5.21.75,5.05,1.31,9.02,4.91,13.02,8.05,1.25.98,2.83,1.83,4.34,2.34.88.47,1.91,1.35,2.6,2.05"/><path class="b" d="M8.74,116.77c3.74,2.56,7.95,4.45,12.16,6.1,1.72.57,3.4,1.8,5.21,2.04,1.96-.1,3.67-1.5,5.21-2.59,3.97-3.1,7.49-4.51,12.16-1.77,5.36,3.46,9.72-5.09,13.89-7.37,5.47-3.3,7.77,5.07,9.55,8.71,2.08,4.55,3.64,9.84,6.95,13.67,19.67-.02,39.36,0,59.04,0,1.47-.93,2.73-2.48,4.34-3.23,1.63-.89,3.6-1.36,5.21-2.29,3.69-2.36,6.42-6.02,9.55-9.02,1.93-1.82,4.18-3.9,6.95-4.11,6.2.71,11.23,5.06,15.63,9.18,1.3,1.16,2.79,2.45,4.34,3.27,1.57.56,3.17,1.46,4.34,2.67"/><path class="b" d="M8.74,116.35c3.71,2.53,7.97,4.16,12.16,5.71,1.76.55,3.41,1.83,5.21,2.16,5.84-.64,8.61-8.57,16.5-5.14,1.32.63,2.83,1.47,4.34,1.03,4.2-1.36,6.61-5.65,10.42-7.69,4.73-2.48,7.12,3.92,8.68,7.26,1.37,3.12,2.82,6.66,4.34,9.72.91,1.7,1.97,3.89,3.47,5.15,3.74,0,7.55,0,11.29,0,1.43-.16,2.84-1.18,4.34-.95.84.11,1.81.71,2.6.95,1.39,0,2.95,0,4.34,0,3.16,0,6.39,0,9.55,0,8.96,0,17.95,0,26.92,0,1.45-.92,2.75-2.39,4.34-3.12,1.35-.7,2.97-1.23,4.34-1.89,1.21-.64,2.48-1.69,3.47-2.63,3-2.88,5.56-6.35,8.68-9.11,2.84-2.46,5.18-3.33,8.68-1.53,5.62,2.22,9.53,7.06,13.89,11.01.98.85,2.25,1.79,3.47,2.25,1.26.38,2.51,1.34,3.47,2.21"/><path class="b" d="M8.74,115.76c5.05,3.47,11.25,4.68,16.5,7.78,4.58,1.39,8.73-6.88,14.76-6.18,1.81.1,3.5,1.12,5.21,1.59,4.93.27,7.93-5.39,12.16-7.18,4.8-2.05,7.05,4.27,8.68,7.62,2.3,4.76,3.99,10.36,7.81,14.17,3.16-.06,6.4.13,9.55-.09,2.27-.55,4.52-2.43,6.95-1.52.86.34,1.78,1.21,2.6,1.62,13.31,0,26.63,0,39.94,0,1.51-.75,2.77-2.25,4.34-2.93,1.67-.86,3.65-1.44,5.21-2.52,5.23-3.8,8.25-10.17,13.89-13.46,2.6-1.55,5.46.05,7.81,1.33,5.14,2.85,8.61,7.83,13.02,11.57.95.8,2.29,1.49,3.47,1.87.85.42,1.89,1.19,2.6,1.82"/><path class="b" d="M8.74,115.09c4.3,2.82,9.33,4.3,13.89,6.6,1.36.65,2.71,2.03,4.34,1.74,4.27-1.24,6.86-5.81,11.29-6.81,2.03-.5,4.2.07,6.08.88,5.13,1.35,8.59-4.68,13.02-6.2,4.81-1.64,6.98,4.46,8.68,7.81,2.25,4.51,3.99,9.82,7.81,13.28,1.96.35,4.1.08,6.08.16.78-.23,1.8-.66,2.6-.8.45-.01,1.31-.17,1.74-.31,3.47-1.47,5.92-2.39,8.68.94,2.53.41,5.25.07,7.81.18,4.9,0,9.86,0,14.76,0,3.74,0,7.55,0,11.29,0,1.39,0,2.95,0,4.34,0,.79,0,1.86.07,2.6-.26,2.66-2.72,6.74-3.33,9.55-5.81,3.5-3.11,6.2-7.14,9.55-10.4,3.01-2.87,5.63-4.36,9.55-1.99,6.02,2.86,9.84,8.61,14.76,12.86.95.8,2.29,1.49,3.47,1.85.85.4,1.89,1.17,2.6,1.78"/><path class="b" d="M8.74,114.42c3.83,2.4,8.11,4.08,12.16,6.07,1.46.72,2.98,1.7,4.34,2.59,2.7,1.05,5.03-1.62,6.95-3.15,9.9-8.99,10.23-.67,17.36-4.41,2.62-1.37,4.94-3.57,7.81-4.44,3.99-1.15,6.31,3.19,7.81,6.15,1.66,3.26,3.27,6.89,5.21,10,1.25,1.71,2.8,4.46,5.21,4.33,1.42,0,3.05.16,4.34-.56,1.36-.72,2.87-.8,4.34-1.02,1.93-.57,4.07-1.63,6.08-.79.93.39,1.95,1.29,2.6,2.04.39.22,1.28.42,1.74.34,4.03,0,8.12,0,12.16,0,8.96-.03,17.95.06,26.92-.04,2.72-2.68,6.79-3.4,9.55-6.01,4.36-3.47,11.12-16.23,17.36-13.13,3.22,1.48,6.18,3.65,8.68,6.14,2.63,2.54,5,5.52,7.81,7.86.96.8,2.28,1.47,3.47,1.82.85.4,1.89,1.15,2.6,1.76"/><path class="b" d="M8.74,113.72c4.19,2.57,8.77,4.56,13.02,7.01,1.44.73,2.76,2.13,4.34,2.54,2.88.05,4.91-2.69,6.95-4.37,8.54-7.8,9.27-1.72,15.63-3.9,2.69-1,5.08-2.88,7.81-3.79,4.35-1.57,6.98,2.66,8.68,5.97,1.63,3.03,3.25,6.39,5.21,9.22,3.13,4.4,5.54,4.92,10.42,2.75,1.35-.53,2.97-.16,4.34-.57,3.1-1,5.61-.77,7.81,1.84,4.88.31,9.86.03,14.76.12,8.67,0,17.37,0,26.05,0,1.13-.64,2.31-1.63,3.47-2.22,1.73-.92,3.71-1.75,5.21-3.04,4.74-4.06,7.69-10.11,13.02-13.5,2.52-1.51,4.66-.72,6.95.76,5.14,2.89,8.91,7.61,13.02,11.72.99.95,2.25,2.03,3.47,2.67,1.53.53,3.14,1.3,4.34,2.42"/><path class="b" d="M8.74,113.01c3.72,2.2,7.58,4.3,11.29,6.52,1.12.67,2.41,1.51,3.47,2.25,1.29,1.02,2.67,2,4.34,1.2,5.63-3.17,8.78-10.73,16.5-8.48,5.62,1.26,10.3-4.8,15.63-3.19,5.95,2.52,8.27,16.7,15.63,17.66,2.08.17,4.06-.97,6.08-1.27,1.1-.06,2.38.27,3.47.06,1.69-.27,3.6-.52,5.21.23.83.38,1.74,1.24,2.6,1.56,4.03,0,8.12,0,12.16,0,6.93,0,13.9,0,20.84,0,1.69,0,3.52,0,5.21,0,1.09-.05,2.44.17,3.47-.26,2.38-1.94,5.53-2.9,7.81-4.97,4.59-3.82,9.53-13.84,15.63-14.23,1.94.04,3.62,1.46,5.21,2.43,4.99,3.21,8.68,8.04,13.02,12.01.96.84,2.25,1.76,3.47,2.18,1.25.33,2.5,1.25,3.47,2.07"/><path class="b" d="M8.74,112.27c4.12,2.4,8.21,4.98,12.16,7.66,4.09,2.63,5.09,5.36,9.55,1.17,3.29-3.01,6.43-7.38,11.29-7.53,1.41-.04,2.94.38,4.34.35,3.01-.04,5.86-1.38,8.68-2.27,6.82-2.41,9.08,3.43,12.16,8.15,2.45,3.88,6,9.03,11.29,7.48,1.08-.24,2.36-.57,3.47-.59.79.02,1.82.4,2.6.47,1.69.1,3.56-.14,5.21.38.46.15,1.33.57,1.74.83.75.23,1.83.18,2.6.18,13.6,0,27.21,0,40.81,0,1.84-1.47,4.12-2.51,6.08-3.8,4.83-3.58,7.63-9.31,12.16-13.22,3.49-2.99,6.01-2.86,9.55-.07,4.21,2.79,7.78,6.51,11.29,10.11,1.55,1.53,3.26,3.22,5.21,4.22,1.55.51,3.15,1.32,4.34,2.46"/><path class="b" d="M8.74,111.51c4.24,2.42,8.23,5.38,12.16,8.28,4.87,3.65,5.51,5.33,10.42.38,2.35-2.35,4.67-5.11,7.81-6.41,2.76-1.18,5.81-.13,8.68-.52,3.51-.32,6.86-2.12,10.42-2.01,3.28.14,5.29,3.11,6.95,5.58,1.79,2.56,3.65,5.37,6.08,7.37,3.05,2.57,5.96,1.82,9.55,1.61,1.17-.03,2.38.62,3.47.92,1.69.3,3.53.5,5.21.83,5.48,0,11.01,0,16.5,0,6.64,0,13.33,0,19.97,0,1.99,0,4.09,0,6.08,0,1.1-.06,2.49.24,3.47-.39,1.93-1.39,4.25-2.45,6.08-4,4.79-3.93,9.29-13.98,15.63-14.64,2.01-.08,3.69,1.41,5.21,2.53,3.42,2.47,6.6,5.41,9.55,8.41,1.88,1.85,3.84,3.9,6.08,5.33.69.45,1.82.86,2.6,1.13.81.4,1.8,1.21,2.6,1.63"/><path class="b" d="M8.74,110.71c4.05,2.26,7.68,5.32,11.29,8.21,1.39,1.12,2.93,2.36,4.34,3.44,1.66,1.56,3.73.64,5.21-.67,2.89-2.5,5.26-5.84,8.68-7.69,2.92-1.66,6.37-.87,9.55-1.13,3.21-.19,6.34-1.38,9.55-1.58,3.62-.3,5.92,2.47,7.81,5.14,1.55,1.99,3.26,4.14,5.21,5.75,3.36,2.87,6.42,2.36,10.42,2.81,1.2.19,2.38,1.01,3.47,1.48,2.27.2,4.67.04,6.95.09,4.9,0,9.86,0,14.76,0,6.64,0,13.33,0,19.97,0,3.15-.1,6.42.22,9.55-.15,1.64-1.21,3.59-2.24,5.21-3.47,5.38-4.22,8.27-12.31,14.76-14.95,2.23-.75,4.47.56,6.08,2.04,1.4,1.12,2.98,2.37,4.34,3.54,3.89,3.21,7.24,7.18,11.29,10.2,1.55,1.19,3.71,1.53,5.21,2.8h.87"/><path class="b" d="M8.74,109.89c4.18,2.29,7.7,5.67,11.29,8.76,1.37,1.19,2.9,2.49,4.34,3.59,1.66,1.54,3.74.59,5.21-.71,3.89-3.43,7.33-8.57,13.02-8.73,3.46-.12,7.02-.07,10.42-.84,8.27-1.89,8.77.11,13.89,5.78,4.3,4.55,7.21,5.07,13.02,6.26,1.18.28,2.34,1.14,3.47,1.54,1.39,0,2.95,0,4.34,0,4.03,0,8.12,0,12.16,0,11.86,0,23.74,0,35.6,0,2.03-1.35,4.28-2.66,6.08-4.32,4.05-4,6.68-9.46,11.29-12.91,4.45-3.14,7.11-.02,10.42,2.85,3.26,2.72,6.45,5.68,9.55,8.58,2.29,2.11,4.77,4.32,7.81,5.24.65.61,1.77.6,2.6.56"/><path class="b" d="M8.74,109.05c6.32,3.41,10.61,9.57,16.5,13.56,3.4,1.45,7.7-5.12,10.42-6.92,3.34-2.95,7.94-2.99,12.16-3.11,2.91-.08,5.83-.77,8.68-1.28,3.2-.63,5.79.36,7.81,2.89,1.79,1.87,3.85,3.71,6.08,5.05,2.39,1.48,5.19,2.29,7.81,3.25,1.55.46,2.87,1.67,4.34,2.04,7.8,0,15.64,0,23.44,0,6.93,0,13.9,0,20.84,0,2.87,0,5.82,0,8.68,0,2.19-1.02,4.29-2.67,6.08-4.3,4.18-3.93,8.61-13.97,14.76-14.02,2.54.16,4.32,2.36,6.08,3.94,3.16,2.84,6.42,5.71,9.55,8.57,3.21,2.75,6.7,6.4,11.29,5.81"/><path class="b" d="M8.74,108.19c4.42,2.32,7.74,6.29,11.29,9.7,1.85,1.61,3.65,3.94,6.08,4.61,3.46-.1,6.66-4.96,9.55-6.81,3.43-2.68,8-2.78,12.16-3.05,2.93-.09,5.85-.8,8.68-1.48,4.13-.99,5.84.14,8.68,2.95,2.31,1.97,5.06,3.51,7.81,4.76,1.72.79,3.58,1.63,5.21,2.59,1.15.57,2.21,1.79,3.47,2.08,8.09,0,16.22,0,24.31,0,6.93,0,13.9,0,20.84,0,2.87,0,5.82,0,8.68,0,.94-.05,1.86-.93,2.6-1.42,1.16-.8,2.49-1.85,3.47-2.86,4.01-3.88,8.57-14.35,14.76-13.79,2.58.42,4.3,2.76,6.08,4.46,3.36,3.21,6.91,6.34,10.42,9.38,1.85,1.55,3.87,3.19,6.08,4.21,1.39.04,2.95.01,4.34.02"/><path class="b" d="M8.74,107.32c3.78,1.89,6.66,5.25,9.55,8.24,1.62,1.71,3.38,3.56,5.21,5.05.94.78,2.18,1.67,3.47,1.36,2.02-.56,3.65-2.22,5.21-3.54,2.45-2.21,5.32-4.31,8.68-4.74,1.7-.2,3.51-.56,5.21-.75,2.3-.17,4.72-.36,6.95-.98,5.39-1.44,7.46-3.38,12.16.96,2.66,1.89,5.84,3.06,8.68,4.62,1.47.8,3.04,1.85,4.34,2.91.77.62,1.72,1.62,2.6,2.09,18.52-.03,37.05.06,55.57-.04,3.01-1.99,5.81-4.48,7.81-7.51,2.79-3.6,5.18-8.27,9.55-10.13,3.23-1.13,5.91,1.68,7.81,3.92,1.33,1.43,2.9,2.96,4.34,4.28,3.59,3.22,7.2,6.62,11.29,9.2.73.35,1.82.28,2.6.27,1.09,0,2.39,0,3.47,0"/><path class="b" d="M8.74,106.44c6.74,3.34,10.19,10.87,16.5,14.78,3.07.91,5.51-2.23,7.81-3.77,1.78-1.37,3.86-2.6,6.08-3.06,2.28-.36,4.68-.67,6.95-1.12,2-.23,4.14-.45,6.08-1.05,3.16-.81,6.17-3.18,9.55-2.67,1.26.3,2.38,1.39,3.47,2.02,1.04.6,2.36,1.18,3.47,1.63,4.45,1.61,8.34,4.55,11.29,8.23,6.62.32,13.33.02,19.97.12,12.15,0,24.32,0,36.47,0,3.15-1.85,5.79-4.6,7.81-7.63,2.55-3.41,4.8-7.61,8.68-9.67,4.15-1.92,7.16,2.53,9.55,5.23,2.14,2.32,4.56,4.56,6.95,6.63,2.19,1.88,4.52,3.8,6.95,5.36,2.27.21,4.67.04,6.95.09"/><path class="b" d="M8.74,105.56c6.85,3.24,10.09,11.08,16.5,14.92,2.39.46,4.25-.81,6.08-2.15,2.08-1.49,4.39-2.99,6.95-3.47,2.28-.39,4.72-.31,6.95-1.04,2.3-.44,4.76-.71,6.95-1.6,3.21-1.1,6.03-3.89,9.55-3.84.88.1,1.9.7,2.6,1.2,1.03.59,2.35,1.08,3.47,1.44,6.04,1.73,8.32,5.06,12.16,9.52,18.81,0,37.63,0,56.44,0,7.68-3.14,12.44-20.16,19.97-17.27,2.2.95,3.76,3.09,5.21,4.9,1.3,1.57,2.87,3.24,4.34,4.65,2.97,2.75,6.07,5.62,9.55,7.71,2.57,0,5.24,0,7.81,0"/><path class="b" d="M8.74,104.7c4.38,1.9,7.27,6.09,10.42,9.49,1.8,1.91,3.64,4.24,6.08,5.34,1.46.03,3.08.13,4.34-.76,2.46-1.41,4.95-3.15,7.81-3.57,2.27-.39,4.74.1,6.95-.68,2.91-.8,6.06-1.21,8.68-2.81,2.63-1.4,4.92-3.7,7.81-4.55,1.18-.31,2.49.19,3.47.83,1.33.63,2.94.96,4.34,1.37,3.2.85,5.85,3.17,7.81,5.76,1.17,1.31,1.99,3.43,3.47,4.41,18.81,0,37.63,0,56.44,0,7.22-2.44,11.74-19.05,19.1-17.32,3.17,1.02,4.9,4.29,6.95,6.68,2.56,3.06,5.57,5.88,8.68,8.37,1.05.76,2.19,1.93,3.47,2.27,2.87,0,5.82,0,8.68,0"/><path class="b" d="M8.74,103.87c6.06,1.8,12.76,14.8,17.36,14.67.44,0,1.3,0,1.74,0,.83-.13,1.86-.64,2.6-1.01,1.62-.82,3.41-1.69,5.21-2.03,2.27-.47,4.66.07,6.95-.06,1.13-.11,2.38-.67,3.47-.94,6.54-1.37,8.8-4.95,13.89-8.25,1.01-.56,2.39-.85,3.47-.32,1.01.56,2.35.9,3.47,1.1,6.03.64,9.47,6.23,12.16,11.06,1.23.82,2.94.32,4.34.45,2.58,0,5.24,0,7.81,0,6.93,0,13.9,0,20.84,0,5.48,0,11.01,0,16.5,0,1.69,0,3.52,0,5.21,0,1.44-.06,3.24.33,4.34-.84,5.77-3.36,10.52-18.37,17.36-16.27,3.18,1.24,4.88,4.61,6.95,7.1,2.76,3.42,6.05,6.54,9.55,9.21,1.09,1.16,2.92.71,4.34.79,2.28,0,4.67,0,6.95,0"/><path class="b" d="M8.74,103.08c6.57,1.83,12.88,15.3,18.23,14.45,2.42.04,4.59-1.63,6.95-2.03,3.16-.87,6.39.73,9.55.23,1.09-.37,2.38-.83,3.47-1.17,5.44-1.47,8.75-6.34,13.02-9.61,1.31-.96,2.91-1.13,4.34-.32,1.06.33,2.38.48,3.47.66,5.93.94,8.71,7.19,11.29,11.93,1.03.5,2.37.26,3.47.31,1.39,0,2.95,0,4.34,0,4.9,0,9.86,0,14.76,0,11.86-.07,23.75.15,35.6-.08,5.5-3.52,7.79-10.08,12.16-14.69,5.77-6.1,9.68.79,13.02,5.33,2.74,3.5,6.01,6.7,9.55,9.39,3.74.12,7.55.01,11.29.05"/><path class="b" d="M8.74,102.35c6.73,1.71,12.34,14.17,18.23,14.16,2.34-.21,4.59-1.39,6.95-1.58,3.24-.47,6.34,1.58,9.55,1.1,1.1-.37,2.39-.87,3.47-1.27,5.63-1.93,8.75-7.38,13.02-11.12,1.24-1.06,2.84-1.46,4.34-.67,1.07.28,2.39.36,3.47.51,6.19.98,8.7,7.89,11.29,12.79,1.04.43,2.37.21,3.47.26,1.39,0,2.95,0,4.34,0,4.32,0,8.7,0,13.02,0,12.44,0,24.9,0,37.33,0,5.59-3.41,7.74-10.15,12.16-14.71,5.82-6.09,9.76,1.28,13.02,5.76,2.49,3.28,5.47,6.33,8.68,8.9,4.03.13,8.12.01,12.16.05"/><path class="b" d="M8.74,101.7c7.06,1.51,12.8,14.56,19.1,13.47,2.55-.43,5.2-1.31,7.81-.77,1.12.21,2.4.63,3.47,1.01.77.15,1.83.11,2.6.11,1.09,0,2.39.03,3.47-.04,1.12-.42,2.43-.98,3.47-1.57,5.12-2.88,7.67-8.66,12.16-12.24.69-.47,1.77-.81,2.6-.55.74.3,1.81.48,2.6.53,7.39-.15,10.28,7.99,13.02,13.53,1.53.66,3.55.2,5.21.33,2.58,0,5.24,0,7.81,0,8.09,0,16.22,0,24.31,0,4.61,0,9.28,0,13.89,0,2.28,0,4.66,0,6.95,0,.9-.34,1.9-1.18,2.6-1.81,4.48-3.54,9.49-18.7,16.5-14.17,2.61,1.84,4.19,4.92,6.08,7.41,2.26,3.03,4.94,5.91,7.81,8.37,1.65.41,3.52.12,5.21.2,2.57,0,5.24,0,7.81,0"/><path class="b" d="M8.74,101.14c6.97,1.77,10.27,9.42,16.5,12.46,1.95.67,4.1,0,6.08-.21,1.4-.16,2.98-.06,4.34.32.78.22,1.81.65,2.6.82.43,0,1.3,0,1.74,0,2.28,0,4.66,0,6.95,0,1.21-.46,2.48-1.35,3.47-2.17,4.09-3.37,6.41-8.51,10.42-11.93.68-.5,1.76-.9,2.6-.65.74.29,1.82.45,2.6.49,7.47-.23,10.27,8.15,13.02,13.7l.87.56c10.12,0,20.27,0,30.39,0,8.96,0,17.95,0,26.92,0,4.97-1.64,8.19-10.67,12.16-14.4,5.24-5.57,9.25.43,12.16,4.89,2.52,3.39,5.22,7.05,8.68,9.51h13.02"/><path class="b" d="M8.74,100.58c7.3,1.07,12.78,12.45,19.1,11.97,1.98-.14,4.1-.51,6.08-.14,1.13.2,2.42.66,3.47,1.13,1.09,0,2.38,0,3.47,0,2.28,0,4.66,0,6.95,0,3.74-2.02,6.21-5.83,8.68-9.17,1.49-1.97,3-4.37,5.21-5.6.76-.36,1.85-.19,2.6.12,1.07.23,2.39.24,3.47.35,4.29.41,6.79,4.58,8.68,7.99,1.17,1.91,1.92,4.66,3.47,6.29h58.17c5.98-3.35,8.8-15.69,15.63-16.48,3.8.33,5.81,4.36,7.81,7.13,2.03,2.91,4.42,5.77,6.95,8.27.59.78,1.62,1.24,2.6,1.09,1.09,0,2.39,0,3.47,0,2.87,0,5.82,0,8.68,0"/><path class="b" d="M8.74,99.74c4.57.72,7.94,4.39,11.29,7.27,1.82,1.54,3.73,3.43,6.08,4.1,1.68.34,3.52.05,5.21.06,1.75,0,3.61.41,5.21,1.1,1.33.48,2.95.18,4.34.26,1.99,0,4.09,0,6.08,0,4.43-.13,9.71-10.67,13.02-13.71,1.19-1.22,2.69-1.92,4.34-1.12,1.07.24,2.39.27,3.47.38,6.81.95,9.14,9.29,12.16,14.44,9.83,0,19.69,0,29.52,0,9.25,0,18.53,0,27.78,0,3.68.67,8.04-9.15,10.42-11.85,5.75-7.95,9.69-3.96,13.89,2.63,2.28,3.27,4.92,6.47,7.81,9.22h13.89"/><path class="b" d="M8.74,98.63c4.93.7,8.53,4.66,12.16,7.72,1.79,1.47,3.7,3.31,6.08,3.66,3.19.26,6.56-.08,9.55,1.33,1.06.31,2.38.15,3.47.19,1.99,0,4.09,0,6.08,0,4.77.48,10.38-10.92,13.89-14.01,1.21-1.2,2.72-1.81,4.34-.98,1.07.26,2.38.32,3.47.45,4.74.48,7.43,5.11,9.55,8.87.44.82,1.32,2.5,1.74,3.34,0,0,.87,1.74.87,1.74l.87.59h58.17c1.89-1.03,3.15-3.21,4.34-4.93,2.36-3.52,4.37-7.68,7.81-10.28,4.6-3.15,8.2,2.84,10.42,6.15,2.33,3.15,4.67,6.68,7.81,9.07h13.89"/><path class="b" d="M8.74,97.3c7.27.98,11.14,8.35,17.36,11.34,2.79.85,5.88.38,8.68,1.23.44.12,1.31.39,1.74.54,1.08.19,2.38.09,3.47.11,1.99,0,4.09,0,6.08,0,5.04-.91,9.98-10.92,13.89-14.33,1.24-1.16,2.77-1.63,4.34-.78,1.06.3,2.38.4,3.47.55,7.15,1.1,9.6,9.21,13.02,14.55,19.67-.08,39.37.15,59.04-.08,4.37-3.51,8.98-18.14,15.63-15.49,2.73,1.36,4.4,4.28,6.08,6.69,1.82,2.63,3.88,5.34,6.08,7.66.58.78,1.59,1.4,2.6,1.22,1.09,0,2.39,0,3.47,0,3.16,0,6.39,0,9.55,0"/><path class="b" d="M8.74,95.79c4.94.7,8.64,4.52,12.16,7.75,1.82,1.62,3.69,3.61,6.08,4.34,1.94.55,4.09.57,6.08.88,1.1.17,2.4.46,3.47.76,1.09,0,2.38,0,3.47,0,1.98-.08,4.12.18,6.08-.15,3.98-2.22,6.82-6.05,9.55-9.59,1.92-2.21,3.77-5.6,6.95-5.96,1.11.23,2.33.86,3.47.98,6.18.39,9.22,4.6,12.16,9.51,1.12,1.59,1.89,4.04,3.47,5.21,9.83,0,19.69,0,29.52,0,8.96,0,17.95,0,26.92,0,2.62.3,2.97-.92,4.34-2.8,1.74-2.64,3.39-5.63,5.21-8.22,5.66-8.23,9.6-4.36,13.89,2.39,2.06,3,4.34,6.06,6.95,8.61,4.9.06,9.86,0,14.76.02"/><path class="b" d="M8.74,94.13c5.42.89,9.27,5.3,13.02,8.93,2.52,2.6,4.95,4.44,8.68,4.75,1.69.22,3.52.45,5.21.71,2.87,0,5.82,0,8.68,0,6.11-2.53,9.46-8.81,13.89-13.36,4-3.9,4.25-1.86,8.68-1,7.54.92,11.03,8.56,14.76,14.22,2.55.33,5.24.06,7.81.14,4.61,0,9.28,0,13.89,0,12.44-.01,24.9.02,37.33-.01,4.31-4.45,9.64-21.61,17.36-13.01,2.54,2.93,4.49,6.52,6.95,9.51,1.01,1.16,2.07,2.81,3.47,3.51h14.76"/><path class="b" d="M8.74,92.36c5.07.97,8.76,5,12.16,8.59,1.84,1.89,3.68,4.12,6.08,5.3,3.78,1.82,8.11,1.16,12.16,1.27,1.69-.1,3.67.34,5.21-.53,6.2-3.09,9.58-9.59,14.76-13.9,1.62-1.28,3.43-1.6,5.21-.41,1.05.45,2.37.79,3.47,1.07,7.28,1.49,10.38,8.67,14.76,13.77h58.17c1.57-1.03,2.45-3.26,3.47-4.78,2-3.27,3.86-7.05,6.95-9.44,4.62-3.17,8.18,3.08,10.42,6.34,1.82,2.68,3.8,5.52,6.08,7.83,5.19.15,10.44.01,15.63.06"/><path class="b" d="M8.74,90.51c5.16,1.21,8.82,5.45,12.16,9.27,2.25,2.53,4.51,5.51,7.81,6.67,4.31.11,8.71.13,13.02,0,8.5-2.16,14.99-16.58,20.84-15.27,1.93.95,4,1.85,6.08,2.44,3.87,1.2,7.03,4.02,9.55,7.11,1.12,1.34,2.39,2.99,3.47,4.37.94,1.53,1.83,1.49,3.47,1.43,5.77,0,11.59,0,17.36,0,8.38,0,16.8,0,25.18,0,2.87,0,5.82,0,8.68,0,1.68-.08,3.56.2,5.21-.19,4.17-5.5,9.49-21.62,17.36-10.89,1.79,2.35,3.45,5.09,5.21,7.47,1.01,1.17,1.96,3.05,3.47,3.61,5.19,0,10.43,0,15.63,0"/><path class="b" d="M8.74,88.63c7.99,2.33,11.53,10.72,17.37,15.9,1.19,1.22,2.79,1.01,4.34,1,2.28,0,4.66,0,6.95,0,1.09-.01,2.39.03,3.47-.05,2.14-.86,4.31-2.04,6.08-3.53,2.47-2.05,4.7-4.56,6.95-6.84,1.76-1.74,3.69-3.71,6.08-4.53,1.49-.52,3.12.07,4.34.96,1.04.58,2.36,1.12,3.47,1.55,7.62,2.61,10.32,7.25,15.63,12.45h58.17c3.8-4.13,8.3-19.4,15.63-12.43,3.7,3.66,5.68,8.95,9.55,12.43h16.5"/><path class="b" d="M8.74,86.74c8.15,2.87,11.54,11.67,17.37,17.34.71.54,1.77.46,2.6.44,1.09,0,2.38,0,3.47,0,2.86-.11,5.86.24,8.68-.17,3.58-1.85,6.82-4.37,9.55-7.34,2.83-2.71,5.57-6.27,9.55-7.21,2.65-.48,4.65,1.87,6.95,2.77,7.2,3,11.11,6.5,16.5,11.95h58.17c1.2-.67,1.89-2.52,2.6-3.63,1.54-2.67,3.14-5.63,5.21-7.94,4.15-4.67,7.74-.83,10.42,3.03,1.98,2.79,3.8,5.96,6.08,8.54h17.36"/><path class="b" d="M8.74,84.88c5.45,2.23,8.93,7.37,12.16,12.04,1.61,2.19,3.08,4.88,5.21,6.6,4.61,0,9.28,0,13.89,0,1.3-.13,2.38-1.4,3.47-2.02,4.32-2.64,7.33-6.97,11.29-10.05,2.14-1.72,5.18-3.1,7.81-1.67,1.41.86,2.88,1.98,4.34,2.77,2.88,1.61,5.93,3.12,8.68,4.95,2.76,1.74,5.23,4.05,7.81,6.02,12.73,0,25.47,0,38.2,0,4.32,0,8.7,0,13.02,0,1.69,0,3.52,0,5.21,0,.79,0,1.87.07,2.6-.26,2.85-4.07,7.49-17,13.89-11.52,3.54,3.29,5.71,7.89,8.68,11.65,4.3.32,8.71.03,13.02.13.92.19,1.87-.59,2.6-1.03.75-.33,1.82-.37,2.6-.14"/><path class="b" d="M8.74,83.09c7.96,3.89,11.23,12.82,16.5,19.38,5.19.08,10.44.11,15.63-.01,2.2-2,4.91-3.57,6.95-5.76,3.7-3.44,8.12-9.74,13.89-7.55,1.85.88,3.47,2.44,5.21,3.5,2.79,1.84,5.8,3.49,8.68,5.17,2.36,1.38,4.78,2.91,6.95,4.58,3.43.29,6.97.03,10.42.12,16.49,0,33,0,49.49,0,2.8-3.97,4.84-10.38,9.55-12.37,4.93-1.27,9.44,8.77,12.16,12.06,1.59.62,3.53.18,5.21.3,2.87,0,5.82,0,8.68,0,1.56-1.15,3.03-3.08,5.21-2.73"/><path class="b" d="M8.74,81.39c5.09,2.77,8.35,7.88,11.29,12.69,1.08,1.78,2.34,3.91,3.47,5.65.3.54,1.09,1.62,1.74,1.78h15.63c2.28-1.98,4.87-3.8,6.95-6.01,3.72-3.88,9.03-10.07,14.76-6.01,3.62,2.78,7.25,5.72,11.29,7.89,2.57,1.37,5.21,2.83,7.81,4.13,3.16,0,6.39,0,9.55,0,17.07,0,34.16,0,51.23,0,4.89-6.48,8.38-18.56,16.5-6.88,1.45,2.01,2.96,4.34,4.34,6.4.42.32,1.21.59,1.74.48,1.09,0,2.39,0,3.47,0,1.99,0,4.09,0,6.08,0,1.8-.04,3.23.41,4.34-1.4,1.07-1.3,2.55-2.71,4.34-2.77"/><path class="b" d="M8.74,79.81c7.65,4.69,10.65,13.72,15.63,20.71,3.74,0,7.55,0,11.29,0,1.69,0,3.52,0,5.21,0,1.01-.27,1.82-1.45,2.6-2.08,4.13-2.85,6.81-7.58,11.29-9.96,4.34-2.32,8.2,1.13,11.29,3.9,2.67,2.3,5.54,4.55,8.68,6.17,1.36.69,2.91,1.44,4.34,1.97,2.28,0,4.66,0,6.95,0,4.61,0,9.28,0,13.89,0,14.18,0,28.37,0,42.54,0,1.21-.68,1.87-2.59,2.6-3.69,1.6-2.57,3.25-5.7,6.08-7.07,5.36-1.94,8.93,8.31,12.16,10.76h13.89c1.95-1.81,3.21-4.89,6.08-5.46"/><path class="b" d="M8.74,78.39c7.17,4.92,10.42,13.44,14.76,20.63.69.6,1.76.51,2.6.49,1.39,0,2.95,0,4.34,0,3.74,0,7.55,0,11.29,0,1.83-2.06,4.31-3.66,6.08-5.79,3.03-3.29,7.22-8.13,12.16-5.78,4.34,2.2,7.36,6.35,11.29,9.15,1.31.89,2.76,2.1,4.34,2.41.78,0,1.83,0,2.6,0,3.16,0,6.39,0,9.55,0,11.86,0,23.74,0,35.6,0,4.32,0,8.7,0,13.02,0,1.39,0,2.95,0,4.34,0,.79,0,1.89.09,2.6-.34,2.72-4.51,7.18-14.32,13.02-7.56,1.22,1.34,2.45,3.11,3.47,4.6.74,1,1.56,2.57,2.6,3.29h14.76c1.77-2.31,3.18-5.48,6.08-6.56"/><path class="b" d="M8.74,77.15c7.18,5.25,10.26,14.03,14.76,21.36,6.06,0,12.17,0,18.23,0,4.06-2.39,6.75-6.72,10.42-9.65,3.57-2.94,7.12-2.02,10.42.78,3.37,2.66,6.1,6.19,9.55,8.76,8.94.32,17.96.01,26.92.12,14.75-.02,29.53.04,44.28-.02,2.84-4.74,7.22-13.85,13.02-6.74,1.9,2.02,3.16,4.9,5.21,6.76h15.63c1.7-2.62,3.17-5.94,6.08-7.43"/><path class="b" d="M8.74,76.13c4.64,3.59,7.72,8.83,10.42,13.94.78,1.48,1.83,3.51,2.6,4.99.29.66,1.1,2.05,1.74,2.45h19.1c3.35-2.23,5.73-5.66,8.68-8.33,1.84-1.67,4.44-2.98,6.95-2.12,5.07,1.98,8.33,6.75,12.16,10.38,24.3.2,48.63,0,72.93.07,2.86-3.93,6.67-12.45,12.16-6.57,1.99,1.89,3.18,4.76,5.21,6.57h16.5c1.74-2.78,3.18-6.25,6.08-8.04"/><path class="b" d="M8.74,75.36c6.61,5.34,9.93,13.51,13.89,20.79,1,.59,2.37.3,3.47.36,1.39,0,2.95,0,4.34,0,4.32,0,8.7,0,13.02,0,3.41-2.09,5.49-5.88,8.68-8.25,4.53-3.65,8.6-.26,12.16,2.87,1.83,1.61,3.27,3.91,5.21,5.37h73.8c1.04-.81,1.84-2.47,2.6-3.52,1.43-1.94,3.36-4.56,6.08-4.21,3.81.95,5.18,5.32,7.81,7.73h17.36c1.9-2.79,3.2-6.38,6.08-8.37"/><path class="b" d="M8.74,74.85c6.54,5.34,9.92,13.4,13.89,20.62,6.64.1,13.33,0,19.97.04.8,0,1.87.08,2.6-.3,1.5-1.36,2.95-3.11,4.34-4.58,3.29-3.61,6.86-5.63,11.29-2.38,1.46,1.05,3.09,2.25,4.34,3.55,1.13,1.13,2.23,2.71,3.47,3.72,18.81,0,37.63,0,56.44,0,4.03,0,8.12,0,12.16,0,1.39,0,2.95,0,4.34,0,.83.02,1.93.11,2.6-.49,2.28-3.64,5.99-9.25,10.42-4.78,1.64,1.48,2.76,3.76,4.34,5.27h18.23c1.09-1.01,1.83-2.97,2.6-4.21.88-1.46,2.11-3.12,3.47-4.16"/><path class="b" d="M8.74,74.61c6.46,5.15,9.8,12.96,13.89,19.9,7.8,0,15.64.02,23.44,0,3.27-3.04,6.2-8.36,11.29-7.93,1.55.23,3.08,1.12,4.34,2,2.33,1.5,4.38,3.58,6.08,5.76,1.36.34,2.95.12,4.34.18,2.58,0,5.24,0,7.81,0,7.51,0,15.06,0,22.57,0,8.96,0,17.95,0,26.92,0,4.9-.1,9.88.2,14.76-.12,5.55-8.53,8.28-7.51,13.89.12,4.32,0,8.7,0,13.02,0,1.39,0,2.95,0,4.34,0,.83.02,1.92.11,2.6-.47,1.34-2.67,2.86-5.66,5.21-7.58"/><path class="b" d="M8.74,74.32c3.48,2.92,6.36,6.65,8.68,10.54,1.78,2.75,3.2,6.06,5.21,8.65h24.31c1-.46,1.87-1.7,2.6-2.48,1.48-1.61,3.18-3.35,5.21-4.24,2.69-1.22,5.59.19,7.81,1.76,2.04,1.21,3.69,3.18,5.21,4.96h76.41c1.68-1.59,2.95-3.98,5.21-4.88,3.55-1.23,5.72,2.75,7.81,4.88,6.93-.04,13.91.08,20.84-.05,1.33-2.72,2.86-5.77,5.21-7.75"/><path class="b" d="M8.74,73.9c3.41,3.06,6.3,6.81,8.68,10.71,1.12,1.8,2.39,3.97,3.47,5.79.3.6,1.1,1.81,1.74,2.11,5.48,0,11.01,0,16.5,0,3.15-.09,6.42.19,9.55-.13,2.51-2.81,5.35-6.73,9.55-6.44,3.95.62,7.2,3.5,9.55,6.58,16.78,0,33.58,0,50.36,0,5.77,0,11.59,0,17.37,0,3.15-.08,6.41.18,9.55-.13,1.78-2.4,4.82-5.14,7.81-2.95,1.27.77,2.16,2.39,3.47,3.08h21.71c1.48-2.62,2.86-5.7,5.21-7.69"/><path class="b" d="M8.74,73.39c5.36,5.15,9.05,11.75,13.02,17.96,3.42.37,6.98.05,10.42.15,5.77,0,11.59,0,17.36,0,2.31-2.3,4.41-5.46,7.81-6.16,4.27-.55,8.02,2.69,10.42,5.9,1.04.43,2.37.22,3.47.26,1.69,0,3.52,0,5.21,0,5.19,0,10.43,0,15.63,0,14.47,0,28.95,0,43.41,0,2.87,0,5.82,0,8.68,0,.43.05,1.32-.06,1.74-.22.37-.41,1.29-1.15,1.74-1.47,2.54-1.78,5.09-.33,6.95,1.69h23.44c1.61-2.55,2.86-5.69,5.21-7.68"/><path class="b" d="M8.74,72.82c2.87,3.13,5.5,6.67,7.81,10.22,1.72,2.38,3.1,5.4,5.21,7.46h28.65c2.7-2.55,5.27-6.67,9.55-6.09,1.87.31,3.79,1.21,5.21,2.47,1.19,1.04,2.22,2.66,3.47,3.62,17.07,0,34.16,0,51.23,0,6.06,0,12.17,0,18.23,0,2.87,0,5.82,0,8.68,0,.74-.37,1.77-.89,2.6-1.01,1.19-.15,2.47.43,3.47,1.01,1.99,0,4.09,0,6.08,0,6.35,0,12.75,0,19.1,0,1.7-2.5,2.84-5.72,5.21-7.73"/><path class="b" d="M8.74,72.2c4.51,5.34,8.06,11.5,12.16,17.14,3.71.39,7.55.04,11.29.16,6.35,0,12.75,0,19.1,0,1.87-1.96,3.54-4.47,6.08-5.66,4.61-2.09,8.79,1.89,11.29,5.4,1.62.53,3.53.15,5.21.26,2.87,0,5.81,0,8.68,0,8.09,0,16.22,0,24.31,0,23.73,0,47.47,0,71.2,0,1.78-2.46,2.82-5.77,5.21-7.8"/><path class="b" d="M8.74,71.56c2.75,3.64,5.3,7.61,7.81,11.41,1.35,1.77,2.46,4.27,4.34,5.52,6.64,0,13.32,0,19.97,0,3.74-.1,7.57.2,11.29-.14,6.18-8.84,11.14-8.16,17.37.14h108.53c.61-.58,1.42-2.16,1.74-2.94.87-1.68,2.07-3.63,3.47-4.91"/><path class="b" d="M8.74,70.93c3.87,5.4,6.9,11.56,11.29,16.56h32.13c2.61-2.48,4.6-6.62,8.68-6.83,4.41-.16,6.76,4.18,9.55,6.83h107.66c.67-.49,1.44-2.08,1.74-2.83.86-1.71,2.06-3.71,3.47-5.03"/><path class="b" d="M8.74,70.32c3.44,5.3,6.36,11.13,10.42,16,2.24.39,4.67.08,6.95.17,4.03,0,8.12,0,12.16,0,3.16,0,6.39,0,9.55,0,1.09,0,2.39,0,3.47,0,.47.09,1.33-.12,1.74-.37,3.02-4.67,7.55-9.65,13.02-4.97,1.93,1.5,3.33,3.81,5.21,5.34h106.79c.79-.33,1.45-1.92,1.74-2.65.86-1.75,2.05-3.8,3.47-5.15"/><path class="b" d="M8.74,69.75c2.31,3.85,4.49,8.01,6.95,11.77,1.01,1.28,1.9,3.33,3.47,3.98.78,0,1.83,0,2.6,0,10.41-.1,20.86.2,31.26-.11,2.91-4.6,7.33-10.34,13.02-5.88,2.29,1.64,4.02,4.11,6.08,5.99,23.15,0,46.31,0,69.46,0,8.09,0,16.22,0,24.31,0,2.57,0,5.24,0,7.81,0,1.08,0,2.39,0,3.47,0,.45.09,1.35-.12,1.74-.37,1.05-2.5,2.39-5.33,4.34-7.26"/><path class="b" d="M8.74,69.23c1.71,3.04,3.44,6.39,5.21,9.39,1.26,1.95,2.49,4.4,4.34,5.87h34.73c7.13-11.8,11.94-9.14,19.97-.06,35.3.18,70.62,0,105.93.06,1.09-2.51,2.39-5.38,4.34-7.35"/><path class="b" d="M8.74,68.78c2.72,4.93,5.03,10.37,8.68,14.7,11.86.02,23.74,0,35.6,0,4.25-6.68,8.02-11.39,15.63-5.37,2.19,1.52,3.94,3.81,6.08,5.37h104.19c1.43-2.2,2.44-5.06,4.34-6.93"/><path class="b" d="M8.74,68.41c2.44,4.6,4.57,9.64,7.81,13.75,1.53.67,3.55.2,5.21.33,3.16,0,6.39,0,9.55,0,7.22-.1,14.5.19,21.71-.11,2.49-3.74,5.97-9.59,11.29-7.93,4,1.17,7.45,3.86,10.42,6.71,1.32,1.68,2.46,1.32,4.34,1.33,1.69,0,3.52,0,5.21,0,5.77,0,11.59,0,17.37,0,25.76,0,51.52,0,77.27,0,.75-.31,1.45-1.83,1.74-2.52.64-1.22,1.65-2.84,2.6-3.84"/><path class="b" d="M8.74,68.12c1.39,2.74,2.86,5.84,4.34,8.53.97,1.58,1.96,3.71,3.47,4.84,2.87,0,5.82,0,8.68,0,1.07-.47,2.26-1.22,3.47-1.23,1.19-.02,2.49.51,3.47,1.15,2.57.19,5.24.03,7.81.08,2.57,0,5.24,0,7.81,0,1.68-.13,3.63.33,5.21-.32,2.55-3.72,6.01-9.27,11.29-7.8,3.44.73,6.77,2.28,9.55,4.43,1.52,1.03,2.76,2.77,4.34,3.69h101.59c.94-1.85,2.06-4.09,3.47-5.63"/><path class="b" d="M8.74,67.92c2.13,4.18,4.05,8.78,6.95,12.51,2.86.14,5.82.02,8.68.06,2.49-2.14,4.59-3.79,7.81-1.77,1.06.65,2.09,2.02,3.47,1.77,5.48,0,11.01,0,16.5,0,1.09-.55,1.85-2.09,2.6-2.99,1.78-2.24,3.97-4.75,6.95-5.22,1.41-.17,2.96.24,4.34.44,2.36.39,4.82,1.02,6.95,2.14,1.54.8,3.09,1.97,4.34,3.18.78.73,1.65,1.95,2.6,2.46h99.85c.69-.31,1.44-1.65,1.74-2.3.38-.64,1.24-1.87,1.74-2.42"/><path class="b" d="M8.74,67.81c1.36,2.74,2.82,5.84,4.34,8.5.68,1,1.4,2.71,2.6,3.18h7.81c1.36-.66,2.19-2.38,3.47-3.19,3.25-2.47,6.59.42,8.68,2.96,1.93.49,4.1.12,6.08.23,3.45,0,6.97,0,10.42,0,2.76-2.99,5.16-7.29,9.55-7.96,8.77.45,13.55-.25,19.1,7.56.99.64,2.36.34,3.47.4,1.69,0,3.52,0,5.21,0,5.19,0,10.43,0,15.63,0,25.18,0,50.36,0,75.54,0,.84-1.04,1.74-2.64,2.6-3.65"/><path class="b" d="M8.74,67.81c1.86,3.54,3.45,7.62,6.08,10.68,2.86-.12,5.86.25,8.68-.18,2.36-3.18,5.33-7.43,9.55-4.15,1.65,1.14,2.72,3.21,4.34,4.33,3.16,0,6.39,0,9.55,0,1.69-.06,3.54.15,5.21-.15,2.51-3.08,5.33-6.88,9.55-7.42,1.69-.09,3.52.28,5.21.02,8.47-1.29,10.9.96,15.63,7.55h98.98c.41-.61,1.28-1.82,1.74-2.4"/><path class="b" d="M8.74,67.9c1.58,3.08,3.18,6.49,5.21,9.3,1.03.46,2.38.23,3.47.28,1.69,0,3.52,0,5.21,0,1.93-1.7,3.01-4.49,5.21-5.94,4.65-2.98,7.58,3.35,10.42,5.94h13.02c1.35-.72,2.33-2.34,3.47-3.34,1.87-1.83,4.25-3.52,6.95-3.7,1.7-.02,3.54.27,5.21-.21,2.26-.51,4.6-1.38,6.95-1.25,4.76.26,7.3,4.91,9.55,8.49h98.98l.87-.98"/><path class="b" d="M8.74,68.08c1.62,2.73,2.81,6.27,5.21,8.4,1.69,0,3.52,0,5.21,0,1.09-.04,2.42.13,3.47-.2,2.78-3.7,6.08-10.71,11.29-5.76,1.24,1.17,2.48,2.8,3.47,4.19.31.55,1.11,1.56,1.74,1.77h12.16c3.03-3.09,6.6-6.71,11.29-6.37,1.74.26,3.59-.03,5.21-.7,4.41-1.88,8.42-3.53,12.16.63,1.79,1.79,2.73,4.54,4.34,6.43h98.98"/><path class="b" d="M8.74,68.36c1.3,2.33,2.67,5.03,4.34,7.12h8.68c1.93-1.23,2.83-3.91,4.34-5.59,5.28-6.87,9.87,1.26,13.02,5.59,3.45,0,6.97,0,10.42,0,1.55.26,2.44-.9,3.47-1.81,2.8-2.58,6.55-4.31,10.42-3.66,7.44.34,13.23-11.96,20.84,5.36,11.55.32,23.17.01,34.73.11,21.41,0,42.84,0,64.25,0"/><path class="b" d="M8.74,68.57c1.03,1.8,2.27,3.94,3.47,5.62,1.03.47,2.38.24,3.47.29,1.99,0,4.09,0,6.08,0,1.77-1.55,2.84-4.07,4.34-5.86,5.25-6.81,9.86,1.15,13.02,5.48.73.47,1.79.38,2.6.37,1.39,0,2.95,0,4.34,0,1.09,0,2.38,0,3.47,0,.93.16,1.97-.4,2.6-1.04,2.67-2.2,6-3.93,9.55-3.67,1.41.1,3,.32,4.34-.25,3.73-1.35,7.01-5.26,11.29-4.33,2.35.68,4,2.92,5.21,4.93.81,1.25,1.39,3.42,2.6,4.35h98.11"/><path class="b" d="M8.74,68.56c1.03,1.56,1.97,3.75,3.47,4.92h9.55c2.98-2.77,4.55-9.12,9.55-8.46,2.67.81,4.44,3.41,6.08,5.51.73.91,1.53,2.4,2.6,2.95,2.87,0,5.82,0,8.68,0,.79,0,1.86.07,2.6-.25.75-.54,1.8-1.23,2.6-1.69,2.33-1.38,5.11-2.04,7.81-1.86,1.41.11,3.02.24,4.34-.38,2.76-1.22,5.06-3.46,7.81-4.69,6.06-2.82,9.12,4.58,11.29,8.88h98.11"/><path class="b" d="M8.74,68.36c.74,1.21,1.78,2.85,2.6,4,3.43.29,6.97.04,10.42.12,2.71-2.54,3.96-7.06,7.81-8.25,4.86-.78,7.28,5.77,10.42,8.25,3.74-.02,7.55.05,11.29-.03,3.85-2.48,7.64-3.17,12.16-2.85,2.29,0,4.3-1.56,6.08-2.85,8.31-6.91,11.77-3.61,15.63,5.16l.87.56h97.24"/><path class="b" d="M8.74,67.97c.71,1.08,1.57,2.69,2.6,3.5h10.42c2.37-1.91,3.47-5.31,6.08-7.05,5.41-3.54,8.69,4.29,12.16,7.05,4.03-.09,8.14.18,12.16-.12,1.89-.87,4.01-1.53,6.08-1.77,1.98-.27,4.11-.09,6.08-.38,3.35-.95,5.81-3.78,8.68-5.6,7.17-4.89,10.19,2.49,13.02,7.87h97.24"/><path class="b" d="M8.74,67.43c.42.67,1.29,1.99,1.74,2.63.71.51,1.78.42,2.6.41,1.09,0,2.38,0,3.47,0,1.09,0,2.38,0,3.47,0,.82,0,1.9.1,2.6-.41,3.08-4.34,6.69-10.13,12.16-4.97,1.88,1.55,3.2,4,5.21,5.37,4.32,0,8.7,0,13.02,0,1.68-.41,3.49-.88,5.21-1.05,1.98-.25,4.13-.22,6.08-.68,4.82-1.61,7.85-6.88,13.02-7.66,3.22-.27,5.53,2.68,6.95,5.2.78,1.21,1.34,3.38,2.6,4.18h96.38"/><path class="b" d="M8.74,66.75c.42.66,1.29,1.97,1.74,2.61,4,.24,8.15.12,12.16.05,4.93-6.97,8.28-9.66,14.76-2.28.74.74,1.57,1.98,2.6,2.34,1.69,0,3.52,0,5.21,0,5.79-.03,11.65.31,17.37-.88,3.77-.65,6.55-3.67,9.55-5.8,7.74-6.03,11.49-.51,14.76,6.52,1.37.32,2.95.12,4.34.17,2.58,0,5.24,0,7.81,0,7.22,0,14.48,0,21.71,0,20.83,0,41.68,0,62.51,0"/><path class="b" d="M8.74,65.96c.4.65,1.27,1.91,1.74,2.52h12.16c1.29-.98,2.29-2.67,3.47-3.77,4.6-4.64,8.58-1.1,12.16,2.62.94,1.26,2.05,1.2,3.47,1.15,1.39,0,2.95,0,4.34,0,3.16,0,6.39,0,9.55,0,2.29-.08,4.75.3,6.95-.47,4-1.16,7-4.37,10.42-6.58,7.83-5.35,11.37.47,14.76,7.05h95.51"/><path class="b" d="M8.74,65.06c.38.64,1.24,1.86,1.74,2.41,2.57,0,5.24,0,7.81,0,1.69-.1,3.58.24,5.21-.23,5.85-7.38,9.5-5.75,15.63.11,7.2.33,14.49.02,21.71.12,3.4.06,7.56-3.91,10.42-5.7,8.96-6.35,12.81-2.99,17.36,5.7h94.64"/><path class="b" d="M8.74,64.08c.37.64,1.23,1.85,1.74,2.39h13.02c1.46-1.04,2.72-2.67,4.34-3.5,4.1-2.47,8.17,1.03,11.29,3.5,7.22,0,14.48,0,21.71,0,1.63.26,3.04-.84,4.34-1.66,1.7-1.1,3.51-2.34,5.21-3.44,3.75-2.4,8.59-5.1,13.02-2.9,2.73,1.76,4.41,4.93,6.08,7.62,1.27.71,2.95.27,4.34.38,2.58,0,5.24,0,7.81,0,6.93,0,13.9,0,20.84,0,20.26,0,40.52,0,60.78,0"/><path class="b" d="M8.74,63.04c.38.64,1.24,1.87,1.74,2.43,4.61-.03,9.28.07,13.89-.04,3.3-3.31,7.06-4.7,11.29-2.09,1.4.64,2.7,2.29,4.34,2.13,3.16,0,6.39,0,9.55,0,2.87,0,5.82,0,8.68,0,1.39-.05,2.97.13,4.34-.14.44-.29,1.31-.89,1.74-1.2,5.51-3.62,12.19-8.35,19.1-7.14,3.73,1.43,5.48,5.54,7.81,8.49,30.67-.01,61.35,0,92.03,0"/><path class="b" d="M8.74,61.96c.39.65,1.26,1.92,1.74,2.51,4.32,0,8.7,0,13.02,0,.9.1,1.96-.17,2.6-.82.73-.5,1.77-1.09,2.6-1.41,1.63-.63,3.55-.65,5.21-.13,1.48.46,3,1.29,4.34,2.05,1.02.5,2.37.26,3.47.31,1.69,0,3.52,0,5.21,0,3.16,0,6.39,0,9.55,0,1.09,0,2.39,0,3.47,0,.8,0,1.88.09,2.6-.32,5.79-4.95,13.29-7.88,20.84-8.61,4.76.52,6.63,5.88,9.55,8.92,5.48,0,11.01,0,16.5,0,1.39,0,2.95,0,4.34-.01.74-.38,1.78-.64,2.6-.53.45.11,1.31.38,1.74.54.78,0,1.83,0,2.6,0,1.69,0,3.52,0,5.21,0,4.9,0,9.86,0,14.76,0,14.18,0,28.37,0,42.54,0"/><path class="b" d="M8.74,60.84c.41.67,1.28,1.99,1.74,2.63,4.9,0,9.86,0,14.76,0,.89-.04,1.82-.76,2.6-1.11,1.31-.61,2.89-.99,4.34-.94,2.45.01,4.67,1.37,6.95,2.05,7.51,0,15.06,0,22.57,0,2-1.44,3.78-3.44,6.08-4.47,4.93-2.35,10.52-2.97,15.63-4.85,5.61-1.04,8.2,5.98,11.29,9.32,5.77,0,11.59,0,17.37,0,.87.16,1.82-.46,2.6-.75.78-.24,1.83-.23,2.6.04,1.01.65,2.31.8,3.47.71,1.69,0,3.52,0,5.21,0,4.9,0,9.86,0,14.76,0,14.18,0,28.37,0,42.54,0"/><path class="b" d="M8.74,59.71c.42.67,1.29,2.01,1.74,2.67,5.18.22,10.44.02,15.63.09.86.08,1.82-.54,2.6-.81,1.05-.38,2.36-.64,3.47-.67,1.42-.04,2.99.25,4.34.66,1.08.29,2.32.94,3.47.82,4.61,0,9.28,0,13.89,0,2.57-.09,5.27.2,7.81-.15,6.5-7.35,10.14-5.06,18.23-7.84,1.77-.59,3.38-1.9,5.21-2.32,5.63-.65,8.34,6.68,11.29,10.3,4.9,0,9.86,0,14.76,0,.86.14,1.87-.39,2.6-.78,1.72-.82,3.76-.39,5.21.78h64.25"/><path class="b" d="M8.74,58.59c.42.67,1.29,2,1.74,2.66,1.93.48,4.1.11,6.08.22,3.16,0,6.39,0,9.55,0,1.18.1,2.38-.12,3.47-.56,1.36-.39,2.93-.59,4.34-.53,2.03.06,4.09.72,6.08,1.09,3.16,0,6.39,0,9.55,0,2.57,0,5.24,0,7.81,0,3.58-.04,3.64.59,6.08-2.39,3.81-4.7,8.71-3.46,13.89-4.48,1.49-.33,3.07-1.01,4.34-1.85,1.36-.94,2.74-2.24,4.34-2.78,5.71-1.65,9.4,7.63,12.16,11.35,4,.36,8.13.04,12.16.14.88.17,1.84-.51,2.6-.85,1.98-.96,4.44-.71,6.08.8,21.41.13,42.84,0,64.25.05"/><path class="b" d="M8.74,57.48c.42.66,1.29,1.98,1.74,2.63,1.28.66,2.95.25,4.34.35,2.57,0,5.24,0,7.81,0,1.99,0,4.09,0,6.08,0,1.95-.52,4.04-1.02,6.08-.94,2.31.03,4.66.58,6.95.83,6.34.19,12.75.09,19.1.12,2.65-2.64,4.48-6.15,8.68-6.36,2.57-.21,5.27.32,7.81-.23,1.94-.4,3.79-1.52,5.21-2.88,1.49-1.48,3.12-3.28,5.21-3.85,6-.99,9.19,9.99,13.02,13.33,2.86-.08,5.84.17,8.68-.12,3.09-1.47,6.76-2.53,9.55.12,21.41,0,42.84,0,64.25,0"/><path class="b" d="M8.74,56.41c.73.95,1.4,2.63,2.6,3.05,1.39,0,2.95,0,4.34,0,3.45,0,6.97,0,10.42,0,1.09-.01,2.39.04,3.47-.06,1.07-.33,2.37-.64,3.47-.8,2.27-.34,4.67-.2,6.95.01,1.69.23,3.52.05,5.21.16.45.1,1.32.42,1.74.63.43.05,1.31.08,1.74.07,2.57,0,5.24,0,7.81,0,1.39-.08,3.01.22,4.34-.25,2.47-2.7,4.47-6.62,8.68-6.44,2.29,0,4.65.68,6.95.46,6.75-.23,8.8-10.98,14.76-8.82,4.11,2.38,5.87,7.36,8.68,10.97,1.55,2.43,4.2,3.16,6.95,2.87,4.58-.54,8.09-2,12.16,1.21h64.25"/><path class="b" d="M8.74,55.38c.71.96,1.48,2.54,2.6,3.08,5.77,0,11.59,0,17.37,0,1.71-.32,3.48-.99,5.21-1.21,1.97-.31,4.09-.34,6.08-.27,1.97.22,4.26-.35,6.08.36.79.33,1.72,1.07,2.6,1.11,3.74,0,7.55,0,11.29,0,1.84-1.02,2.92-3.33,4.34-4.83,2.93-3.31,6.71-1.79,10.42-1.27,2.6.38,5.22-.76,6.95-2.7,3.05-3.29,6.88-12.29,12.16-7.05,7.9,8.97,4.22,11.92,18.23,12.97,1.45.2,3.05.64,4.34,1.34.8.42,1.71,1.29,2.6,1.54.43,0,1.3,0,1.74,0,20.83,0,41.68,0,62.51,0"/><path class="b" d="M8.74,54.42c.71.96,1.55,2.42,2.6,3.04,5.48,0,11.01,0,16.5,0,4.18-1.43,8.58-2.38,13.02-2.23,2.03.05,4.31-.45,6.08.83.77.45,1.67,1.32,2.6,1.39,3.45,0,6.97,0,10.42,0,1.75-1.26,2.93-3.47,4.34-5.07,2.95-3.37,6.75-1.54,10.42-.94,4.59.8,7.53-3.27,9.55-6.77,4.36-7.14,7.61-10.04,13.02-1.64,1.89,2.77,3.63,6.13,6.95,7.38,4.59,2.34,10.1,3.19,13.89,6.91,2.84.31,5.82.05,8.68.13,4.9,0,9.86,0,14.76,0,13.89,0,27.79,0,41.68,0"/><path class="b" d="M8.74,53.53c.71.93,1.61,2.28,2.6,2.93,4.61-.03,9.28.07,13.89-.04,3.49-.75,6.87-2.18,10.42-2.69,1.97-.31,4.09-.38,6.08-.39,1.41.02,3.05-.28,4.34.44.83.44,1.87,1.21,2.6,1.8.35.38,1.2.88,1.74.88,3.16,0,6.39,0,9.55,0,3.22-2.45,4.56-7.79,9.55-6.98,5.08.98,8.38,2.57,12.16-2.23,3.66-4.56,8.01-18.47,14.76-9.29,2.22,2.67,3.78,6.3,6.95,8.02,5.03,3.29,10.55,6.1,14.76,10.47h65.12"/><path class="b" d="M8.74,52.66c.71.89,1.69,2.11,2.6,2.79,3.45,0,6.97,0,10.42,0,.45-.14,1.32-.5,1.74-.71.75-.29,1.82-.41,2.6-.56,3.18-.7,6.32-1.89,9.55-2.37,2.84-.47,5.81-.39,8.68-.44,2.45.35,4.22,2.54,6.08,3.99,2.27.22,4.67.04,6.95.1,3.26.14,3.24-.05,5.21-2.55,1.13-1.53,2.45-3.35,4.34-3.95,4.6-1.16,8.71,2.74,13.02-1.16,4.26-3.1,7.78-17.88,13.89-15.45,3.42,1.91,5.04,5.95,7.81,8.58,6.02,4.18,11.56,9.11,16.5,14.53h65.12"/><path class="b" d="M8.74,51.54c1,.99,1.99,2.7,3.47,2.92,2.28,0,4.66,0,6.95,0,1.26.19,2.4-.94,3.47-1.43,1.01-.57,2.35-.69,3.47-.8,3.2-.51,6.35-1.6,9.55-2.08,1.97-.32,4.08-.45,6.08-.48,1.09.02,2.41-.16,3.47.15,2.38.95,3.95,3.33,6.08,4.64,3.15-.1,6.42.21,9.55-.15,2.58-2.65,4.32-6.69,8.68-6.28,5.44.69,8.5,1.56,12.16-3.48,3.14-4.15,5.52-12.95,10.42-14.87,3.13-.54,5.17,2.79,6.95,4.84.72.92,1.75,2.15,2.6,2.95,1.78,1.27,3.65,2.69,5.21,4.23,4.15,3.86,7.63,8.47,11.29,12.76h65.12"/><path class="b" d="M8.74,50.14c1.41,1.39,3,3.55,5.21,3.31,1.39-.02,2.95.06,4.34-.07,2.01-.92,3.84-2.61,6.08-2.96,3.81.05,7.55-1.1,11.29-1.67,1.97-.32,4.08-.52,6.08-.6,1.09-.01,2.41-.21,3.47.11,2.41,1.09,4.13,3.42,6.08,5.12,3.15.16,6.39.02,9.55.07,3.6-2.71,3.67-6.38,9.55-6.12,6.01.75,8.92-.09,12.16-5.45,2.78-4.53,4.43-10.29,8.68-13.72,2.58-1.77,5.28.62,6.95,2.54,1.06,1.19,2.28,2.66,3.47,3.72,1.85,1.23,3.71,2.75,5.21,4.38,4.28,4.42,7.55,9.8,11.29,14.64h65.12"/><path class="b" d="M8.74,48.5c3.06,3.3,6.27,4.8,10.42,2.28,1.62-.87,3.31-2.15,5.21-2.27,6.7.63,13.28-1.74,19.97-1.77,2.98.58,4.79,3.63,6.95,5.53,1.36.35,2.95.13,4.34.18,1.99,0,4.09.02,6.08-.02,4.93-6.25,5.38-5.8,13.02-5.98,4.92-.37,7.59-5.17,9.55-9.13,2.11-3.67,4.35-10.13,8.68-11.44,2.5-.35,4.46,1.83,6.08,3.43,1.95,2.35,4.89,3.7,6.95,5.93,4.89,5.06,8.23,11.44,12.16,17.21h65.12"/><path class="b" d="M8.74,46.64c7.88,7.81,10.65-.93,16.5.17,6.08,1.27,12.19-.57,18.23-1.15,3.36-.38,5.6,3.64,7.81,5.62,3.12.39,6.4.05,9.55.16,3.39.39,2.68-5.64,11.29-5.92,6.7-.01,9.45-4.01,12.16-9.51,2.82-5.01,6.93-16.05,13.89-9.44,1.08.93,2.31,2.12,3.47,2.95,1.16.65,2.5,1.51,3.47,2.43,5.63,5.47,9.06,12.81,13.02,19.47h65.12"/><path class="b" d="M8.74,44.58c5.66,5.27,7.96,2.48,13.89.32,1.45-.39,2.96.37,4.34.7,2.23.58,4.64.84,6.95.7,2.31-.14,4.68-.65,6.95-1.1,1.38-.21,2.96-.69,4.34-.33,2.51,1.13,4.19,3.68,6.08,5.58,3.74,0,7.55,0,11.29,0,2.86-3.01,4.24-5.05,8.68-5.83,2.34-.41,4.89-.68,6.95-1.97,2.85-1.77,4.56-5,6.08-7.89,1.76-3.23,3.49-6.82,6.08-9.48,4.14-4.19,7.66-.01,11.29,2.39,7.65,3.46,12.53,15.45,16.5,22.6,2.83.41,5.82.06,8.68.17,4.9,0,9.86,0,14.76,0,13.89,0,27.79,0,41.68,0"/><path class="b" d="M8.74,42.36c2.75,2.63,5.96,3.66,9.55,2.07,1.65-.63,3.4-1.58,5.21-1.53,1.48.22,2.93,1.16,4.34,1.63,2.18.84,4.6,1.35,6.95,1.23,2.03-.09,4.12-.61,6.08-1.1,1.66-.35,3.64-1.12,5.21-.1,2.01,1.23,3.35,3.5,5.21,4.89,4.03-.11,8.15.22,12.16-.14,5.41-7.44,9.71-4.69,15.63-8.7,5.63-4.63,6.68-13.35,13.02-17.3,3.83-1.98,7.07,1.93,10.42,3.19,6.03,2.77,9.1,9.82,12.16,15.34.78,1.55,1.84,3.68,2.6,5.24,0,0,.87,1.77.87,1.77l.87.59h64.25"/><path class="b" d="M8.74,40.01c7.18,6.28,10.15-.34,15.63,1.33,3.23,1.83,6.56,4.12,10.42,4.13,2.04.03,4.14-.55,6.08-1.14,1.36-.36,2.92-1.01,4.34-.71,2.15.84,3.69,2.92,5.21,4.56,1.62.54,3.53.16,5.21.26,2.57,0,5.24,0,7.81,0,.95-.57,1.81-1.82,2.6-2.57,1.46-1.43,3.31-2.67,5.21-3.43,2.95-1.16,6.31-1.8,8.68-4.04,4.69-4.58,6.2-12.19,12.16-15.55,3.66-1.83,7.03,1.37,10.42,2.34,6.19,2.14,9.26,9.42,12.16,14.81,1.46,2.66,2.51,6.03,4.34,8.45,9.54,0,19.11,0,28.65,0,1.39,0,2.95,0,4.34,0,1.25.19,2.39-.83,3.47-1.28,1.03-.45,2.34-.77,3.47-.75,1.92-.03,3.62,1.12,5.21,2.03,6.35,0,12.75,0,19.1,0"/><path class="b" d="M8.74,37.56c7.22,6.42,11.31-1.22,16.5,2.67,3.08,2.29,6.35,5.18,10.42,5.12,2.07-.02,4.15-.79,6.08-1.47,1.35-.46,3-1.06,4.34-.24,1.65.92,2.86,2.69,4.34,3.81,4.61-.06,9.29.13,13.89-.08,6.42-8.48,10.93-5.99,16.5-11.32,1.7-1.83,2.96-4.35,4.34-6.41,3.99-5.94,7.35-9.65,14.76-6.21,1.98.77,4.34.85,6.08,2.2,6.46,5.16,9.37,14.61,13.02,21.83h32.13c1.71-1.17,3.25-2.86,5.21-3.65,3.86-1.82,6.93,1.18,9.55,3.65h17.36"/><path class="b" d="M8.74,35.05c6.95,6.15,11.52-.93,16.5,3.61,3.07,2.67,6.07,6.41,10.42,6.7,1.76.08,3.59-.52,5.21-1.18,1.35-.49,2.87-1.32,4.34-1.1,1.73.51,3.12,2.06,4.34,3.32,4.9.09,9.86,0,14.76.03,1.28-.94,2.31-2.58,3.47-3.66,1.49-1.49,3.32-2.86,5.21-3.8,2.66-1.31,5.7-2.28,7.81-4.46,2.56-2.79,4.2-6.53,6.95-9.18,5.66-5.7,9.11-2.46,15.63-1.89,6.45,1.26,9.47,9.29,12.16,14.54.78,1.71,1.84,4.07,2.6,5.79.23.65,1,2.35,1.74,2.66,10.12-.06,20.27.12,30.39-.07,3.51-4.01,7.98-9.15,13.02-4.01.81.75,1.86,1.85,2.6,2.68.57.78,1.57,1.62,2.6,1.4,4.9,0,9.86,0,14.76,0"/><path class="b" d="M8.74,32.52c6.43,5.58,10.79.14,15.63,3.77,3.56,3.14,6.22,8.37,11.29,9.16,3.12.38,5.78-1.69,8.68-2.42,1.7-.15,3.18,1.21,4.34,2.28,3.13.33,6.4.04,9.55.14,1.39,0,2.95,0,4.34,0,.8,0,1.88.09,2.6-.32,7.45-10.27,10.74-7.23,16.5-13.05,1.92-2.48,3.6-5.43,6.08-7.43,4.07-3.53,8.2-2.54,13.02-1.9,3.76-.08,5.98.04,8.68,3.02,4.86,5.66,6.97,13.18,10.42,19.67,9.83-.09,19.71.19,29.52-.11,3.04-3.64,7.87-11.49,13.02-6.44,2.21,1.93,3.9,4.59,6.08,6.55h14.76"/><path class="b" d="M8.74,30c5.61,4.68,8.73,1.53,13.89,3.41,1.81.89,3.12,2.8,4.34,4.34,1.81,2.32,3.62,4.99,6.08,6.68,2.57,0,5.24,0,7.81,0,2.88-1.06,4.15-2.32,6.95,0,5.77,0,11.59,0,17.37,0,2.38-3.4,5.06-6.91,8.68-9.05,1.94-1.16,4.23-1.97,6.08-3.29,1.78-1.23,3.05-3.3,4.34-4.98,1.76-2.16,4.17-4.05,6.95-4.61,2.84-.61,5.82-.04,8.68,0,2,.07,4.09-.69,6.08-.26,5.51,1.58,8.08,8.98,10.42,13.67.78,1.76,1.83,4.17,2.6,5.93,0,0,.87,1.92.87,1.92l.87.67h27.78c2.88-3.27,7.82-13.31,13.02-8.94,2.94,2.56,5.09,6.05,7.81,8.81,4.59.32,9.28.03,13.89.13"/><path class="b" d="M8.74,27.54c2.6,2.34,6.15,3.02,9.55,2.96,2.74-.05,5.4,1.26,6.95,3.54,2.34,3.04,4.17,6.72,6.95,9.39,11.01-.04,21.97,0,32.99,0,3.01-3.93,5.78-8.48,10.42-10.69,1.73-.88,3.7-1.68,5.21-2.92,1.64-1.34,2.76-3.48,4.34-4.87,3.5-3.41,8.6-2.48,13.02-2.42,1.41-.01,2.98-.2,4.34-.58,1.64-.49,3.56-.88,5.21-.22,6.37,3.06,9.57,15.62,13.02,21.71h26.92c3.7-3.53,8.72-16.74,14.76-9.66,2.97,3.07,5.1,7.24,8.68,9.66h12.16"/><path class="b" d="M8.74,25.18c2.38,2.09,5.58,2.92,8.68,3.05,2.16.12,4.47.69,6.08,2.22,3.21,3.37,5,7.99,7.81,11.67,1.31.58,2.95.22,4.34.31,2.57,0,5.24,0,7.81,0,7.22,0,14.48,0,21.71,0,3.03-3.69,5.26-8.39,9.55-10.89,1.93-1.19,4.26-1.93,6.08-3.3,1.3-.97,2.35-2.6,3.47-3.75,2.97-3.11,7.47-2.18,11.29-1.86,2.01.13,4.16-.07,6.08-.69,2.19-.76,4.63-2.08,6.95-1.06,4.61,2.55,6.47,8.43,8.68,12.91.76,1.75,1.82,4.15,2.6,5.89.24.71,1.12,2.29,1.74,2.75h25.18c1.48-1.02,2.43-3.08,3.47-4.51,2.21-3.09,4.1-7.26,7.81-8.75,3.28-.68,5.92,4.51,7.81,6.64,2.41,2.95,5.24,7.14,9.55,6.62,2.57,0,5.24,0,7.81,0"/><path class="b" d="M8.74,22.98c2.39,2.09,5.59,2.86,8.68,3.12,2.21.21,4.52,1.01,6.08,2.66,3.3,3.68,4.89,8.74,7.81,12.68h33.86c1.39-1.34,2.34-3.5,3.47-5.05,1.64-2.42,3.6-4.9,6.08-6.5,1.89-1.24,4.22-1.91,6.08-3.2,1.3-.89,2.33-2.46,3.47-3.51,3.5-3.03,8.14-.36,12.16-.41,2.07.03,4.22-.57,6.08-1.46,1.85-.91,3.93-2.2,6.08-1.64,6.06,2.13,9.62,15.91,13.02,21.45,1.01.54,2.37.28,3.47.33,1.69,0,3.52,0,5.21,0,5.19,0,10.43,0,15.63,0,3.92-2.09,9.16-18.26,14.76-14.06,3.87,3.45,5.99,8.75,10.42,11.63,4.71,3.01,8.17-1.45,12.16,2.25"/><path class="b" d="M8.74,20.97c2.39,2.09,5.61,2.77,8.68,3.11,8.46.78,9.44,10.93,13.89,16.35h33.86c1.42-1.39,2.34-3.66,3.47-5.27,1.81-2.82,3.98-5.74,6.95-7.42,1.96-1.11,4.34-1.74,6.08-3.23,1.1-.99,2.1-2.52,3.47-3.18,3.75-1.53,7.48,1.54,11.29,1.36,2.12,0,4.25-.8,6.08-1.83,2.07-1.19,4.42-3.12,6.95-2.21,6.2,3.11,8.86,16.06,13.02,21.78,4.03,0,8.12,0,12.16,0,1.11.09,2.36-.43,3.47-.37,2.25.53,4.64.36,6.95.37,4.43-2.09,9.91-19.84,15.63-15.31,3.8,3.52,5.85,8.93,10.42,11.65,4.71,2.64,8.18-2.47,12.16,1.64"/><path class="b" d="M8.74,19.22c2.4,2.08,5.63,2.64,8.68,3,6.56.62,8.82,7.69,11.29,12.76.7,1.33,1.38,3.49,2.6,4.45h33.86c3.55-4.63,5.63-11.05,11.29-13.71,2.52-1.07,5.28-2.11,6.95-4.42,3.86-3.8,8.63,1.45,13.02,1.12,5.66.03,8.86-5.98,13.02-5.07,6.5,2.38,9.11,17.48,13.89,22.08,2.87,0,5.82,0,8.68,0,2.18-.87,4.5-2.34,6.95-1.69.87.23,1.9.88,2.6,1.43,1.12.49,2.55.27,3.47-.52,4.81-3.9,7.68-14.15,13.02-16.45,2.86-.46,4.52,3.18,6.08,5.03,1.54,2.14,3.18,4.53,5.21,6.24,5.8,4.83,9.36-2.72,13.89,2.22"/><path class="b" d="M8.74,17.77c2.4,2.06,5.65,2.46,8.68,2.77,6.71.61,8.85,8.05,11.29,13.23.71,1.38,1.34,3.67,2.6,4.67h33.86c3.51-4.79,5.57-11.38,11.29-14.15,1.7-.81,3.7-1.36,5.21-2.53.82-.67,1.71-1.83,2.6-2.42,3.78-2.04,7.91,2.85,12.16,2.51,5.67-.1,8.83-6.41,13.02-5.8,6.71,1.82,9.49,19.25,14.76,22.39,1.69,0,3.52,0,5.21,0,2.69-.74,4.91-3.08,7.81-3.26,1.19-.09,2.52.36,3.47,1.06.66.6,1.68,1.21,2.6,1.09,5.57-1.71,8.63-13.53,13.89-16.85,2.69-1.56,4.67,1.76,6.08,3.59,1.6,2.23,3.24,4.73,5.21,6.66,6.36,6.17,9.96-2.93,14.76,2.49"/><path class="b" d="M8.74,16.67c2.41,2.03,5.68,2.22,8.68,2.39,8.83.61,9.58,12.75,13.89,18.37h33.86c3.29-4.69,5.28-10.86,10.42-13.97,1.61-.95,3.58-1.45,5.21-2.35,1.29-.69,2.28-2.14,3.47-2.95,3.32-1.61,6.42,1.68,9.55,2.42,3.07,1.01,6.22-.43,8.68-2.24,2.09-1.45,4.15-3.98,6.95-3.62,5.04,1.43,8.05,11.73,10.42,16.17,1.35,2.43,2.72,6.67,6.08,6.54.43,0,1.31,0,1.74,0,1.2-.28,2.44-1.07,3.47-1.72,2.3-1.44,4.94-3.48,7.81-2.71,1.26.33,2.28,1.56,3.47,2.02,2.29.42,3.96-1.9,5.21-3.48,2.44-3.38,4.4-7.31,6.95-10.62,2.86-3.62,5.04-3.89,7.81.04,3.14,3.79,6.19,11.11,12.16,9.84,3.37-.9,5.78-3.18,8.68.24"/><path class="b" d="M8.74,15.98c2.44,1.99,5.72,1.88,8.68,1.83,4.42-.17,7.06,3.56,8.68,7.19,1.81,3.65,3.1,7.94,5.21,11.43h33.86c3.22-4.78,5.28-10.93,10.42-14.07,1.61-.95,3.58-1.44,5.21-2.34,1.29-.69,2.28-2.14,3.47-2.95,3.28-1.63,6.41,1.57,9.55,2.22,3.12.91,6.22-.65,8.68-2.46,2.06-1.44,4.18-3.95,6.95-3.45,5.02,1.66,8.01,12,10.42,16.54,2.34,5.03,4.8,8.91,10.42,4.68,1.66-1.16,3.36-2.58,5.21-3.45,5.58-2.57,5.74,4.5,10.42.23,3.16-3.27,5.16-7.62,7.81-11.28,2.84-3.9,5.35-5.87,8.68-1.03,2.98,3.62,5.83,10.39,11.29,10.12,3.65-.46,6.39-3.63,9.55.05"/><path class="b" d="M8.74,15.37c2.48,1.94,5.76,1.54,8.68,1.29,4.48-.48,7.05,3.24,8.68,6.86,1.78,3.82,3.37,8.11,5.21,11.9h33.86c4.39-6.99,6.12-13.19,14.76-15.96,1.3-.58,2.57-1.72,3.47-2.81,2.8-2.81,6.52-.08,9.55.82,2.97,1.04,6.17.06,8.68-1.66,2.23-1.29,4.2-3.71,6.95-3.77,5.14.57,8.27,10.91,10.42,15.06,2.09,4.48,4.61,11.13,10.42,6.54,3.45-2.5,7.95-7.97,12.16-3.7,4.48,2.99,9.63-8.76,12.16-11.57,2.87-3.79,5.4-5.62,8.68-.93,3.02,3.63,5.84,10.34,11.29,10.22,3.62-.36,6.38-3.45,9.55.04"/><path class="b" d="M8.74,14.69c2.52,1.89,5.79,1.25,8.68.87,4.47-.71,7.06,3,8.68,6.6,1.79,3.83,3.4,8.12,5.21,11.95,1.3.6,2.95.23,4.34.32,2.57,0,5.24,0,7.81,0,7.22,0,14.48,0,21.71,0,3.07-4.79,5.4-10.67,10.42-13.8,1.62-.98,3.6-1.56,5.21-2.56,1.29-.78,2.3-2.28,3.47-3.19,3.04-1.97,6.44.54,9.55,1.06,3.05.71,6.13-.52,8.68-2.13,2.06-1.27,4.35-3.39,6.95-2.56,4.76,2.19,7.23,10.36,9.55,14.87,2.2,4.61,4.66,10.89,10.42,5.93,3.34-2.6,7.79-8.72,12.16-4.51,4.52,2.93,9.53-7.79,12.16-10.56,2.89-3.59,5.46-5.26,8.68-.82,3.25,3.78,6.21,10.91,12.16,10.07,3.26-.66,5.75-2.82,8.68.11"/><path class="b" d="M8.74,13.95c2.85,2.04,6.39.75,9.55.46,6.44-.27,8.14,7.81,10.42,12.42.42,1.01,1.3,3.05,1.74,4.05.27.67.94,2.26,1.74,2.55h32.99c3.05-4.7,5.52-10.33,10.42-13.42,1.64-1.01,3.62-1.71,5.21-2.8,1.29-.86,2.31-2.42,3.47-3.42,2.85-2.23,6.45-.32,9.55.24,2.96.65,6.05-.14,8.68-1.52,2.1-1.1,4.47-2.9,6.95-1.97,4.79,2.41,7.12,9.94,9.55,14.51,1.92,3.85,4.46,10.17,9.55,6.05,2.7-2.05,4.83-5.02,7.81-6.7,4.89-2.52,5.22,4.23,10.42-.3,2.28-2.09,4.13-4.83,6.08-7.21,1.82-2.16,4.81-5.86,7.81-3.53,4.32,3.57,6.74,11.38,13.02,11.75,3.47-.1,6.41-2.91,9.55-.01"/><path class="b" d="M8.74,13.16c2.61,1.76,5.84.81,8.68.31,5.23-1.09,7.79,4.09,9.55,8.08,1.11,2.5,2.36,5.52,3.47,8.01.28.74,1.09,2.36,1.74,2.86h32.99c4.96-7.51,6.29-11.12,14.76-15.35,3.62-2.37,4.24-6.48,9.55-5.84,3.71.56,7.55,1.8,11.29.66,2.35-.52,4.5-2.14,6.95-2.19,5.28.37,8.16,8.44,10.42,12.49,1.96,3.4,4.39,11.3,9.55,7.89,2.59-1.77,4.58-4.43,6.95-6.46,8.57-7.01,5.27,8.06,18.23-7.73,1.91-2.03,4.87-5.26,7.81-3.23,4.67,3.53,7.09,11.59,13.89,11.32,3.06-.36,5.84-2.3,8.68-.01"/><path class="b" d="M8.74,12.34c2.65,1.68,5.84.64,8.68.15,4.39-.89,7,2.57,8.68,6.1,2.14,4.11,3.55,8.94,6.08,12.82h32.99c2.84-3.59,5.06-7.91,8.68-10.85,1.83-1.56,4.13-2.69,6.08-4.08,2.83-1.98,4.18-5.99,7.81-6.81,4.05-.86,8.08,1.21,12.16.94,2.36.02,4.63-1.07,6.95-1.31,5.41-.11,8.04,6.23,10.42,10.18,1.06,1.97,2.3,4.34,3.47,6.25,1.26,2.16,3.36,4.57,6.08,3.17,2.39-1.26,4.21-3.55,6.08-5.45,9.92-10.58,6.86,5.29,19.1-7.55,2.27-2.07,5.34-5.65,8.68-3.8,4.78,3.28,7.28,10.9,13.89,10.89,2.94-.18,5.93-1.97,8.68-.08"/></svg>