<?xml version="1.0" encoding="UTF-8"?><svg id="a" xmlns="http://www.w3.org/2000/svg" width="1920" height="2400" viewBox="0 0 192 240"><defs><style>.b{fill:none;stroke:#fff;stroke-miterlimit:10;stroke-width:.3px;}.c{stroke-width:0px;}</style></defs><rect class="c" x="0" width="192" height="240"/><path class="b" d="M11.74,229.65c4.85-.19,9.49,1.66,14.25,2.18,2.51.22,5.05-.55,7.55-.63,3.06.15,6.18.18,9.22-.31,2.78-.42,5.63-.07,8.38.41,2.19.27,4.51.25,6.71-.03,3.61-.75,7.31-.25,10.9.37,2.19.32,4.5.19,6.71.22,1.66.04,3.46-.1,5.03-.68,1.65-.59,3.3-1.59,5.03-1.94,1.38-.23,2.89.22,4.19.64,1.6.53,3.36,1.04,5.03,1.31,4.69.79,9.52.83,14.25.41,3.06-.47,6.16.21,9.22.26,4.18-.2,8.41-.54,12.58-.9,1.63-.13,3.4-.21,5.03-.07,2.75.34,5.61.83,8.38.34,3.6-.56,6.56-3.11,10.06-3.99,1.89-.52,4-.52,5.87-1.13,1.82-.8,3.84-1.65,5.87-1.59,3.06.03,5.74,1.77,8.38,3.08,1.91.63,4.03,1.02,5.87,1.85"/><path class="b" d="M11.74,227.79c3.05.26,6.21.33,9.22.92,2.74.6,5.63,1.44,8.38.44,1.33-.38,2.8-.84,4.19-.88,2.21.08,4.49.51,6.71.29,2.2-.14,4.51-.38,6.71-.1,3.03.56,6.11,1.26,9.22,1.11,2.21.02,4.5-.23,6.71-.18,3.05.13,6.17.35,9.22.21,3.36.03,6.18.35,9.22-1.47,6.07-3.61,6.8-.96,12.58.53,4.39.97,8.96.74,13.41.96,3.61-.02,7.3.13,10.9-.09,1.65-.17,3.39-.65,5.03-.9,1.62-.19,3.4-.3,5.03-.35,2.77-.06,5.63-.02,8.38.32,2.73.57,5.6.98,8.38.58,3.4-.37,6.06-2.92,9.22-3.98,1.86-.64,3.97-.53,5.87-.96,1.86-.67,3.86-1.41,5.87-1.44,1.67-.07,3.47.22,5.03.82,1.08.4,2.26,1.17,3.35,1.52,1.89.51,4.01.56,5.87,1.2"/><path class="b" d="M11.74,226.11c2.76.33,5.62.27,8.38.59,2.76.35,5.71,1.34,8.38.04,4.81-2.25,5.34-1.12,10.06-.72,2.49.08,5.06-.28,7.55,0,1.97.19,3.91,1.02,5.87,1.28,2.2.26,4.5.01,6.71.05,5.3.16,10.63-.15,15.93.07,2.36.14,4.65-.78,6.71-1.84,8.37-4.08,7.02,1.72,19.28,1.32,1.92-.1,3.95-.25,5.87-.07,2.76.32,5.6.63,8.38.48,1.66-.05,3.45-.3,5.03-.79,1.87-.64,3.86-1.36,5.87-1.38,3.64-.09,7.3.61,10.9,1.03,3.24.95,6.7,1.46,10.06.92,3.17-.51,5.51-3.09,8.38-4.3,1.55-.67,3.39-.77,5.03-1.08,1.33-.37,2.8-.91,4.19-1.01,1.92-.14,3.98-.22,5.87.22,1.41.29,2.83,1.1,4.19,1.52,1.9.45,4.01.49,5.87,1.13"/><path class="b" d="M11.74,224.64c4.18.12,8.41.17,12.58.59,2.38.09,4.5-1.32,6.71-1.98,2.23-.72,4.5.3,6.71.53,2.49.23,5.06-.19,7.55-.02,2.29.08,4.45,1.22,6.71,1.45,2.53.16,5.02-.98,7.55-.89,3.05.22,6.17.38,9.22.59,2.48.16,5.07.5,7.55.19,3.67-.7,7.04-3.02,10.9-2.72,1.98.34,3.89,1.38,5.87,1.74,2.45.45,5.07.52,7.55.34,2.47-.36,5.06-.72,7.55-.21,5.06,1.05,9.6.76,14.25-1.59,2.39-.98,5.11-.58,7.55,0,2.18.54,4.48,1.03,6.71,1.37,3.75,1.17,7.89,1.6,11.74.72,3.13-1.02,5.3-3.94,8.38-5.07,1.01-.37,2.3-.58,3.35-.78,1.03-.25,2.28-.6,3.35-.68,2.48.09,5.08-.15,7.55.24,1.06.17,2.3.61,3.35.82,1.95.3,4.05.52,5.87,1.34"/><path class="b" d="M11.74,222.9c3.9-.06,7.85-.26,11.74.09,2.59.26,5.06-.87,7.55-1.39,2.22-.47,4.5.25,6.71.35,2.21.07,4.5-.38,6.71-.42,1.69-.04,3.46.39,5.03.96,5.77,2.13,6.77-3.53,13.41-1.41,4.9,1.14,10.04,2.52,15.09,1.65,2.49-.58,4.97-1.61,7.55-1.8,3.14-.42,6.09,1.43,9.22,1.48,1.91.12,3.95.17,5.87.04,1.92-.18,3.94-.51,5.87-.47,6.88.52,9.58.97,15.93-2.5,2.1-1.03,4.6-.68,6.71.17,2.69,1.14,5.5,2.13,8.38,2.65,2.98.79,6.17.76,9.22.56,4.96-.23,7.73-5.54,12.58-6.15,1.33-.22,2.84-.54,4.19-.38,1.61.37,3.38.58,5.03.52,1.92-.06,3.95.07,5.87.15,1.95-.04,4.06.05,5.87.86"/><path class="b" d="M11.74,220.79c2.77.07,5.61-.22,8.38-.22,3.06.14,6.2.43,9.22-.28,2.75-.59,5.6-.38,8.38-.39,1.94-.1,3.94-.57,5.87-.72,1.67-.14,3.46.18,5.03.74,1.57.59,3.4,1.27,5.03.5,2.22-.94,4.08-3.48,6.71-3.06,2.57.59,4.96,1.99,7.55,2.54,3.27.69,6.72.88,10.06.86,1.94-.12,3.95-.6,5.87-.87,2.79-.54,5.62,0,8.38.4,2.19.25,4.5.25,6.71.29,3.05.04,6.17-.16,9.22-.28,2.51-.1,5.14-.16,7.55-.93,1.72-.53,3.45-1.41,5.03-2.26,1.53-.8,3.25-1.76,5.03-1.69,4.01.43,6.9,4.02,10.9,4.62,4.07.94,8.48.96,12.58.17,2.45-.67,4.5-2.45,6.71-3.63,2.01-1.08,4.47-1.38,6.71-1.03,1.36.28,2.79.97,4.19,1.06,2.2.19,4.51-.07,6.71-.23,2.19-.27,4.49-.96,6.71-.48"/><path class="b" d="M11.74,218.25c3.31.64,6.72.08,10.06.18,3.35.31,6.74.04,10.06-.44,2.2-.3,4.52-.34,6.71-.72,2.74-.58,5.67-.98,8.38-.06,4.97,1.63,5.57,2.21,10.06-.9,2.22-1.54,4.53-.31,6.71.62,2.09.88,4.45,1.26,6.71,1.32,3.9-.05,7.84.54,11.74.24,5.01-.47,10.07,0,15.09,0,4.45.05,8.99.34,13.41-.24,3.6-.4,6.84-2.26,10.06-3.76,2.34-1.03,4.97-2.69,7.55-1.45,2.9,1.36,5.17,4.09,8.38,4.82,2.98.79,6.17.68,9.22.54,1.34-.1,2.87-.17,4.19-.44,1.7-.37,3.42-1.15,5.03-1.77,2.09-.85,4.49-1.07,6.71-.65,1.37.19,2.82.8,4.19.98,2.49.27,5.08-.22,7.55-.51,2.25-.38,4.42-1.53,6.71-1.78"/><path class="b" d="M11.74,215.02c1.32.51,2.79,1.05,4.19,1.23,1.63.2,3.39.08,5.03.07,2.77.04,5.63.12,8.38-.24,2.51-.28,5.08-.77,7.55-1.31,1.88-.47,3.92-.98,5.87-.72,4.14.61,8.41,3.65,12.58,1.53,1.54-.68,3.36-1.26,5.03-.73,1.62.46,3.35,1.06,5.03,1.26,2.76.32,5.62.14,8.38.03,4.17.03,8.4.33,12.58.21,5.02.01,10.08-.22,15.09.01,3.9-.19,7.99.49,11.74-.85,3.04-1.23,6.06-2.7,9.22-3.63,3.2-1.51,5.23-2.39,8.38-.03,4.49,3.69,6.72,4.43,12.58,4.25,2.2-.1,4.51-.14,6.71-.23,2.21-.17,4.49-.71,6.71-.85,3.08-.21,6.16.64,9.22.77,2.79-.01,5.64-.5,8.38-.92,2.01-.47,3.93-1.58,5.87-2.25"/><path class="b" d="M11.74,210.83c3,2.18,5.43,3.45,9.22,3.31,3.9.03,7.87-.13,11.74-.65,2.53-.28,5.01-1.27,7.55-1.43,2.3-.08,4.53.91,6.71,1.49,1.88.45,3.94.71,5.87.53,1.36-.17,2.83-.62,4.19-.79,2.53-.3,5.03.81,7.55.84,7.54.1,15.1-.19,22.64-.1,4.49.28,8.95-.14,13.41.09,1.63.07,3.4-.01,5.03,0,2.53.12,5.18-.01,7.55-1,1.62-.63,3.34-1.42,5.03-1.86,1.62-.44,3.44-.57,5.03-1.12,4.37-2.18,6.36-1.16,10.06,1.57,3.34,2.55,7.77,2.22,11.74,2.12,3.05-.05,6.17.14,9.22-.02,5.58-.06,11.21.78,16.77-.03,1.34-.19,2.88-.25,4.19-.59,1.69-.43,3.4-1.26,5.03-1.85"/><path class="b" d="M11.74,206.14c3.52,3.26,5.71,5.8,10.9,5.7,5.32,0,10.71.11,15.93-1.02,3.95-.49,7.76,1.39,11.74,1.12,2.5.08,5.05-.55,7.55-.47,1.64.08,3.39.43,5.03.46,1.63.05,3.4-.07,5.03-.06,6.14.2,12.32-.12,18.44-.47,2.78-.02,5.6.69,8.38.51,4.17-.39,8.4.17,12.58.02,2.87.06,5.65-1.01,8.38-1.74,1.88-.5,3.94-.6,5.87-.73,2.81-.21,5.52-1.99,8.38-1.2,2.61.68,4.87,2.54,7.55,3.02,2.46.41,5.06.38,7.55.45,3.05.12,6.17.23,9.22.19,3.61.05,7.29-.03,10.9-.05,5.07.23,10.21-.38,15.09-1.75"/><path class="b" d="M11.74,202.38c2.44,2.16,4.45,5.12,7.55,6.42,2.1.87,4.48.83,6.71.88,2.77.06,5.62.07,8.38.02,1.93-.03,3.94-.36,5.87-.35,2.21.02,4.5.38,6.71.38,3.9.11,7.84-.45,11.74-.22,6.96.48,13.99.11,20.96.04,3.06-.03,6.17-.97,9.22-.47,1.63.26,3.38.63,5.03.65,1.35.02,2.85-.14,4.19-.18,3.05.05,6.17.27,9.22.14,2.82-.05,5.61-.89,8.38-1.27,2.47-.39,5.07-.29,7.55-.58,2.47-.39,5.01-1.32,7.55-.93,2,.28,3.94,1.21,5.87,1.77,1.88.45,3.95.56,5.87.75,3.32.36,6.73.3,10.06.22,3.33.03,6.73,0,10.06-.23,2.21-.09,4.5.31,6.71.31,3.62-.17,7.31-.32,10.9-.78"/><path class="b" d="M11.74,200.61c2.01,1.47,3.8,3.44,5.87,4.83,3.9,2.73,8.93,2.07,13.41,1.88,2.77-.11,5.61.28,8.38.2,5.02.02,10.08-.14,15.09-.31,2.78-.19,5.61.17,8.38.29,3.05.06,6.18-.04,9.22-.23,2.77-.12,5.61.24,8.38.13,2.22,0,4.5-.46,6.71-.54,1.93,0,3.95.44,5.87.58,1.92.15,3.95.02,5.87.04,4.46.06,9,.18,13.41-.58,3.88-.5,7.84-.89,11.74-1.19,2.19-.25,4.49-.67,6.71-.47,1.97.15,3.96.8,5.87,1.27,2.19.37,4.51.52,6.71.82,3.05.48,6.17-.08,9.22-.21,1.92-.06,3.95.03,5.87,0,1.63-.02,3.39-.33,5.03-.26,2.22.01,4.49.57,6.71.65,3.33.06,6.73.04,10.06-.05"/><path class="b" d="M11.74,200.22c2.77,1.41,5.41,3.32,8.38,4.29,3.81,1.25,7.87.77,11.74.13,2.78-.24,5.6.56,8.38.48,2.5.04,5.06-.26,7.55-.4,1.35-.03,2.85.09,4.19.01,2.2-.08,4.5-.33,6.71-.21,1.93.12,3.93.6,5.87.53,2.49,0,5.06-.31,7.55-.29,2.5.04,5.04.57,7.55.52,3.34.13,6.72-.39,10.06-.27,4.17.26,8.4.29,12.58.26,3.35.15,6.74-.1,10.06-.51,4.76-.33,9.45-1.81,14.25-1.53,3.1.03,6.19.77,9.22,1.35,2.18.36,4.51.26,6.71.52,3.35.52,6.74-.13,10.06-.51,3.38-.19,6.65-.09,10.06-.44,2.8-.1,5.61.67,8.38.88,3.04.25,6.18-.02,9.22.2"/><path class="b" d="M11.74,199.57c7.86,2.55,12.59,4.64,20.96,2.72,2.77-.21,5.6.56,8.38.25,2.23-.13,4.49-.74,6.71-1.01,1.05-.1,2.3.05,3.35,0,2.49-.09,5.05-.59,7.55-.37,1.68.11,3.36.84,5.03,1.02,2.48.27,5.06.18,7.55.38,2.21.15,4.49.56,6.71.53,7.26-.05,14.54-.12,21.8-.24,2.49-.08,5.06.29,7.55.23,4.2-.32,8.46-.73,12.58-1.68,4.21-1.11,8.47.25,12.58,1.16,3.29.69,6.73.43,10.06.49,3.64.21,7.3-.29,10.9-.78,3.05-.26,6.17-.46,9.22-.69,3.08-.14,6.16.69,9.22.89,2.77.18,5.63-.13,8.38.32"/><path class="b" d="M11.74,198.01c4.77.8,9.39,2.61,14.25,2.84,2.24.22,4.51-.39,6.71-.66,1.35-.13,2.85-.05,4.19,0,3.81.29,7.32-1.39,10.9-2.37,1.62-.26,3.4-.13,5.03-.35,2.78-.29,5.76-.46,8.38.65,2.87,1.35,6.12,1.8,9.22,2.33,1.9.3,3.94.51,5.87.41,1.92-.13,3.94-.37,5.87-.25,4.17.34,8.4.33,12.58.2,2.77-.08,5.62-.34,8.38-.12,4.48.53,9-.28,13.41-.98,3.57-.7,7.38-1.47,10.9-.14,1.6.52,3.34,1.11,5.03,1.26,1.63.15,3.4-.14,5.03-.19,3.61.05,7.29.32,10.9.15,5.88-.16,11.76-.86,17.61-1.46,2.21-.05,4.51.36,6.71.56,2.49.16,5.08.32,7.55.73"/><path class="b" d="M11.74,196.22c4.28.22,8.32,2.01,12.58,2.36,2.49.24,5.06-.04,7.55-.25,2.2-.14,4.52.08,6.71-.27,2.98-.43,5.65-2.06,8.38-3.21,1.56-.65,3.38-.77,5.03-1.08,2.74-.47,5.71-.95,8.38.06,3.73,1.91,7.51,4.17,11.74,4.74,3.07.4,6.15-.64,9.22-.55,4.73.21,9.51.66,14.25.63,2.2-.06,4.5-.27,6.71-.22,1.92.04,3.95.28,5.87.22,4.76-.25,9.47-1.51,14.25-1.56,3.17-.29,6.12,1.32,9.22,1.57,2.82.05,5.53-1.5,8.38-1,1.93.21,3.94.67,5.87.82,2.48.16,5.06.12,7.55.16,2.77.01,5.63-.09,8.38-.4,1.65-.21,3.38-.81,5.03-1,1.93-.23,3.97.19,5.87.52,2.47.37,5.04.77,7.55.89"/><path class="b" d="M11.74,194.46c1.64.08,3.42.18,5.03.52,1.93.4,3.91,1.06,5.87,1.31,2.76.32,5.62.09,8.38.11,2.49-.01,5.07.17,7.55-.13,2.7-.35,5.14-1.79,7.55-2.96,2.12-1.04,4.53-1.63,6.71-2.53,2.35-.89,5.01-2.11,7.55-1.27,3.71,1.99,6.77,5.39,10.9,6.62,2.47.74,5.07-.05,7.55-.33,3.04-.34,6.17-.11,9.22-.15,2.51.07,5.04.71,7.55.8,2.49.05,5.06-.28,7.55-.3,2.21-.02,4.5.31,6.71.31,2.78,0,5.61-.46,8.38-.65,3.04-.13,6.2-.31,9.22.12,1.62.25,3.38.64,5.03.5,1.69-.17,3.4-.9,5.03-1.35,3.09-1.04,6.21.33,9.22.98,3.03.5,6.17.39,9.22.34,2.2.02,4.51.16,6.71-.06,1.65-.2,3.36-.85,5.03-.92,1.95-.07,3.94.6,5.87.82,2.19.3,4.51.26,6.71.07"/><path class="b" d="M11.74,192.82c1.64.03,3.4,0,5.03.21,1.94.24,3.93.81,5.87,1.04,3.88.32,7.86.21,11.74-.04,2.49-.15,5.1.63,7.55-.18,1.99-.59,3.95-1.59,5.87-2.37,2.42-.87,4.71-2.26,6.71-3.87,6.33-5.22,6.66-2.19,11.74,2.19,2.3,2.13,5,4.71,8.38,4.43,3.33-.44,6.69-1.1,10.06-1.23,1.92-.19,3.97-.38,5.87.09,2.18.52,4.44,1.3,6.71,1.14,2.22-.09,4.5-.53,6.71-.71,1.93-.15,3.96.14,5.87.42,2.75.42,5.62.32,8.38.2,2.49-.08,5.06-.09,7.55-.19,2.77-.15,5.62.53,8.38.18,2.28-.27,4.46-1.37,6.71-1.74,1.99-.29,4,.51,5.87,1.06,1.32.34,2.84.59,4.19.75,1.92.16,3.95-.21,5.87-.15,2.77.1,5.65.46,8.38-.19,2.49-.63,5.06.24,7.55.38,2.52.1,5.06-.62,7.55-.94"/><path class="b" d="M11.74,191.47c2.21,0,4.5-.26,6.71-.12,2.21.13,4.49.52,6.71.57,1.92.05,3.96,0,5.87-.27,1.35-.18,2.83-.59,4.19-.67,2.53.12,4.94,1.6,7.55.85,2.6-.71,5.15-1.93,7.55-3.16,2.3-1.44,4.11-3.71,5.87-5.73,1.45-1.67,3.91-4.31,5.87-1.79,1.43,1.47,2.89,3.23,4.19,4.81,2.49,2.98,5.65,7.16,10.06,5.83,2.76-.69,5.56-1.61,8.38-2.03,1.34-.23,2.85-.46,4.19-.13,2.01.47,3.87,1.71,5.87,2.2,3.96.85,7.79-1.51,11.74-1.39,3.65.26,7.21,1.58,10.9,1.55,5.02.26,10.08-.42,15.09,0,1.64.1,3.43.04,5.03-.33,2.17-.55,4.43-1.5,6.71-1.13,2.49.43,5.02,1.23,7.55,1.47,1.34.09,2.85-.04,4.19-.05,1.92,0,3.95.15,5.87.04,1.93-.1,3.93-.78,5.87-.51,5.71,1.35,7.32-.27,12.58-1.4"/><path class="b" d="M11.74,189.72c2.49,0,5.06-.25,7.55-.25,2.49,0,5.06.27,7.55.13,2.89-.01,5.57-1.38,8.38-1.74,2.35.09,4.3,2.09,6.71,1.97,3.02-.26,5.72-2.15,8.38-3.45,2.63-1.68,4.57-4.36,6.71-6.58,3.13-3.21,4.33-1.84,6.71,1.1,2.56,2.97,4.75,6.76,8.38,8.54,2.57,1.09,5.23-.51,7.55-1.54,2.1-.98,4.38-1.92,6.71-2.12,3.24-.08,5.37,3.15,8.38,3.87,2.22.5,4.56-.3,6.71-.84,2.42-.71,5.03-1.2,7.55-.78,6.62,1.53,13.34,2.14,20.12,1.58,3.91-.01,7.93.68,11.74-.53,3.6-1.1,7.32.11,10.9.65,3.88.15,7.91.33,11.74-.48,1.02-.26,2.3-.48,3.35-.34,1.06.15,2.3.57,3.35.79,3.56.63,6.75-1.76,10.06-2.63"/><path class="b" d="M11.74,187.61c2.77.02,5.61-.14,8.38-.22,2.2-.08,4.51.07,6.71-.14,2.84-.17,5.54-1.62,8.38-1.65,2.33.21,4.28,2.25,6.71,2,2.14-.26,4.01-1.67,5.87-2.65,3.44-1.43,6.25-3.98,9.22-6.16,2.41-1.6,4.03-1.42,5.87.8,2.91,3,5.5,7.61,10.06,8.02,3.84-.26,6.62-3.6,10.06-5,7.52-3.48,6.94,6.91,15.93,4.69,2.78-.46,5.57-1.31,8.38-1.58,1.94-.22,3.97.18,5.87.53,2.48.41,5.05.84,7.55,1.13,3.33.52,6.73-.11,10.06-.07,3.61.14,7.31.59,10.9-.07,3.33-.65,6.74-.08,10.06.3,2.76.09,5.63.17,8.38-.17,1.67-.14,3.39-.76,5.03-1.07,1.4-.18,2.91.38,4.19.86,3.86,1.51,7.47-1.57,10.9-2.94"/><path class="b" d="M11.74,185.39c4.46.08,8.96-.28,13.41-.38,2.5-.1,5.05-.64,7.55-.8,1.37-.08,2.88.08,4.19.45,1.32.39,2.8.89,4.19.67,2.47-.47,4.47-2.31,6.71-3.34,1.61-.71,3.42-1.3,5.03-2.02,1.86-.78,3.84-1.68,5.87-1.9,2.04-.36,3.72,1.02,5.03,2.4,1.72,1.71,3.55,3.66,5.87,4.53,6.73,2.6,11.33-8.74,17.61-6.46,2.45,1.78,3.91,4.9,6.71,6.24,1.54.72,3.38.64,5.03.5,3.12-.19,6.2-1.04,9.22-1.76,1.63-.41,3.41-.15,5.03.13,2.79.4,5.58,1.29,8.38,1.64,2.21.29,4.51-.18,6.71-.37,1.63-.13,3.4-.03,5.03.1,2.48.14,5.06.34,7.55.37,2.77-.08,5.62-.22,8.38-.06,3.33.06,6.74.15,10.06-.05,2.27-.09,4.46-1.18,6.71-1.33,1.72.07,3.34,1.15,5.03,1.4,3.43.15,6.32-2.41,9.22-3.92"/><path class="b" d="M11.74,183.18c7.82.17,15.67-1.34,23.48-.19,3.19.46,5.61.16,8.38-1.54,1.29-.71,2.76-1.45,4.19-1.8,1.33-.31,2.85-.47,4.19-.72,2.75-.45,5.58-1.13,8.38-.95,3.24.64,5.18,4.08,8.38,4.92,5.06,1.49,8.78-3.29,12.58-5.78,6.05-4.21,6.96.76,10.9,4.24,1.58,1.41,3.8,1.89,5.87,1.83,12.04.14,7.59-5.32,20.96-.46,3.33,1.16,6.72-.34,10.06-.6,2.49-.14,5.05.36,7.55.33,2.21.18,4.49.63,6.71.67,4.46.26,8.97-.38,13.41,0,1.63.13,3.42,0,5.03-.31,1.35-.26,2.8-.89,4.19-.88,1.7.07,3.34,1.1,5.03,1.23,1.46.05,2.96-.73,4.19-1.44,1.65-.97,3.4-2.11,5.03-3.13"/><path class="b" d="M11.74,180.95c1.92,0,3.95.07,5.87-.13,2.2-.22,4.49-.63,6.71-.59,3.62.07,7.26.96,10.9.68,1.97-.09,4.03-.45,5.87-1.19,2.37-.98,4.96-1.69,7.55-1.36,2.5.29,5.11-.02,7.55-.6,2.16-.42,4.64-1.53,6.71-.25,8.04,5.75,10.1,3.59,17.61-1.29,7.11-4.5,7.36-.07,12.58,3.49,2.49,1.49,5.59,1.33,8.38,1.19,8.3-1.13,6.26-5.06,15.93-.82,4.4,1.91,7.47.19,11.74-.73,2.46-.45,5.06-.16,7.55-.17,1.67.18,3.39.81,5.03,1.14,3.85.8,7.85.43,11.74.3,1.92,0,3.94.43,5.87.35,1.95-.04,3.95-.61,5.87-.9,1.69-.14,3.39.67,5.03.89,1.8.19,3.54-.86,5.03-1.74,1.62-.98,3.38-2.06,5.03-2.99"/><path class="b" d="M11.74,178.76c3.38.21,6.72-.6,10.06-.88,2.53-.16,5.04.69,7.55.86,2.26.15,4.52-.55,6.71-1.01,2.5-.31,5.01-1.17,7.55-1.17,2.55,0,5.02,1.1,7.55,1.26,2.25.13,4.58-.3,6.71-1.01,2.05-.74,3.77-1.42,5.87-.38,1.89.81,3.8,1.96,5.87,2.25,2.34.35,4.65-.63,6.71-1.63,2.16-1.02,4.4-2.16,6.71-2.81,6.54-2.05,7.96,3.98,14.25,4.43,2.22.18,4.57.07,6.71-.59,2.17-.64,4.39-1.74,6.71-1.57,3.13.36,6.08,1.85,9.22,2.15,4.63.63,8.91-1.82,13.41-2.41,1.04-.13,2.3-.25,3.35-.19,2.29.41,4.4,1.76,6.71,2.14,3.86.78,7.85.05,11.74.29,1.91.18,3.95.35,5.87.16,2.49-.28,5.07-.65,7.55-.05,1.98.4,4.07-.15,5.87-.98,1.93-.82,3.95-1.74,5.87-2.59"/><path class="b" d="M11.74,176.44c2.81.1,5.59-.81,8.38-.92,2.82-.1,5.58,1.1,8.38,1.01,2.3-.16,4.48-1.29,6.71-1.78,2.46-.3,5.08-.38,7.55-.02,3.06.57,6.06,1.89,9.22,1.78,1.93.02,3.98-.01,5.87-.4,1.35-.25,2.8-.87,4.19-.85,2.25.02,4.5.74,6.71,1.11,3.49.74,6.8-.91,10.06-1.87,1.88-.55,3.92-1,5.87-1.25,1.64-.23,3.46-.3,5.03.32,1.98.73,3.84,2.04,5.87,2.63,3.36.97,6.8-.27,10.06-1.03,3.36-.65,6.76.51,10.06.99,3.02.41,6.19.53,9.22.19,2.26-.28,4.54-1.02,6.71-1.72,6.8-2.5,7.25,1.18,13.41,1.68,3.33.33,6.73-.14,10.06,0,4.17.45,8.4-.02,12.58.21,2.24.16,4.55-.33,6.71-.86,1.91-.42,3.96-.81,5.87-1.24"/><path class="b" d="M11.74,173.63c2.78-.02,5.59-1.22,8.38-.6,7.38,1.94,6.42,1.54,13.41-.29,1.63-.34,3.4-.08,5.03.04,2.82.16,5.61.95,8.38,1.42,2.77.42,5.61-.51,8.38-.12,4.44.57,8.96-.26,13.41.17,3.12.36,6.22-.33,9.22-1.09,2.74-.61,5.6-.99,8.38-1.36,3.79-.8,5.93,1.18,9.22,2.32,4.32,1.1,8.23-2.62,12.58-1.14,5.7,1.59,11.74,1.54,17.61,1.19,3.14-.21,6.16-1.4,9.22-1.98,2.62-.46,5.02,1.29,7.55,1.67,3.58.63,7.29.27,10.9.1,4.46.03,8.95.58,13.41.29,2.22-.1,4.5-.54,6.71-.77,2.2-.16,4.51-.01,6.71-.04"/><path class="b" d="M11.74,170.35c1.66-.04,3.38-.58,5.03-.61,2.06-.04,3.99.97,5.87,1.67,1.3.46,2.81.72,4.19.71,1.66-.05,3.39-.57,5.03-.77,1.92-.26,3.95-.03,5.87.14,4.16.07,8.55,1.43,12.58-.1,4.34-1.79,7.49.55,11.74.64,3.89.12,7.85.17,11.74,0,3.07-.35,6.17-.98,9.22-1.43,3.04-.44,6.35-1.41,9.22.19,1.02.48,2.24,1.07,3.35,1.26,2.99.37,5.61-1.63,8.38-2.32,2.33-.5,4.53.85,6.71,1.43,2.72.64,5.58,1.03,8.38.95,3.06.02,6.19-.02,9.22-.44,2.51-.29,5.03-1.09,7.55-1.27,1.98-.04,3.93.85,5.87,1.12,2.46.39,5.07.34,7.55.13,2.2-.24,4.49-.71,6.71-.58,2.49.17,5.05.62,7.55.41,3.36-.08,6.68-1.32,10.06-1.08,2.23.29,4.47,1.09,6.71,1.32"/><path class="b" d="M11.74,167.16c5.46-.54,5.79-.95,10.9,1.51,3.7,1.64,7.81,1.16,11.74,1.15,2.2.04,4.5.09,6.71.09,2.22,0,4.6,0,6.71-.8,1.95-.77,3.74-2.27,5.87-2.58,3.01-.42,5.52,1.89,8.38,2.32,1.62.38,3.36.91,5.03,1,2.2.11,4.5.01,6.71.05,5.05.05,10.07-1.07,15.09-1.27,1.39.06,2.87.55,4.19.94,3.25,1.12,6.31-1.12,9.22-2.27,1.87-.84,4.05-.52,5.87.3,1.29.56,2.8,1,4.19,1.25,1.62.4,3.37.85,5.03.96,5.34.41,10.68-.56,15.93-1.4,2.21-.45,4.53-.24,6.71.24,1.9.31,3.95.37,5.87.2,3.13-.12,6.14-1.28,9.22-1.68,2.49-.27,5.06.48,7.55.12,3.89-.36,7.99-2.91,11.74-.71,1.85,1.11,3.72,2.57,5.87,3.05"/><path class="b" d="M11.74,164.58c1.64.09,3.39-.24,5.03-.26,3.48.01,6.67,1.85,10.06,2.43,2.73.61,5.6.67,8.38.71,2.49-.05,5.08.02,7.55-.32,6.36-.56,9.1-7.64,14.25-5.17,1.97,1.08,3.84,2.54,5.87,3.52,1.26.82,2.7,1.74,4.19,2.03,1.9.35,3.95.02,5.87.06,2.49.07,5.06.14,7.55.09,3.9,0,7.86-.6,11.74-.06,3.05.56,5.67-1.24,8.38-2.29,2.41-1.11,5.14-.77,7.55.16,1.58.6,3.38.71,5.03.96,2.46.55,5,1.24,7.55,1.25,4.84.09,9.47-1.82,14.25-2.24,2.49-.24,5.05.34,7.55.16,2.49-.19,5.08-.5,7.55-.93,1.65-.4,3.39-1.04,5.03-1.49,2.15-.64,4.49-.71,6.71-.92,2.24-.32,4.48-1.17,6.71-1.54,5.49-.94,7.32,5.15,11.74,6.74"/><path class="b" d="M11.74,162.81c2.77.33,5.61-.35,8.38-.24,3.62.2,7.27.73,10.9.83,3.87.28,7.9,1.13,11.74.16,2.59-.67,4.68-2.57,6.71-4.21,2.72-2.31,5.21-4.19,8.38-1.34,1.62,1.48,3.36,3.07,5.03,4.5,1.54,1.59,3.51,3.2,5.87,2.98,2.48-.28,5.05-.46,7.55-.28,5.85.08,11.76.51,17.61.15,3.42-.42,6.5-2.76,10.06-2.36,1.94.14,3.93.72,5.87.89,1.63.09,3.41-.21,5.03.13,3.96.89,7.68,2.28,11.74.81,2.78-.88,5.45-2.43,8.38-2.8,1.91-.2,3.95.03,5.87-.09,2.2-.11,4.5-.39,6.71-.35,4.21.49,7.95-1.88,11.74-3.31,2.15-.61,4.49-.89,6.71-1.16,3.11-.44,6.3.79,8.38,3.14,1.77,1.79,3.41,4.18,5.87,5.06"/><path class="b" d="M11.74,161.42c3.35.54,6.76-.3,10.06-.83,1.34-.24,2.86-.34,4.19-.61,1.92-.42,3.9-1.15,5.87-1.29,1.39-.12,2.84.39,4.19.6,2.79.44,5.88.77,8.38-.83,3.05-1.65,7.13-7.35,10.9-5.47,1.65.96,2.96,2.69,4.19,4.11.98,1.18,2.3,2.41,3.35,3.51,1.88,2.17,3.83,3.21,6.71,2.36,2.16-.58,4.49-.58,6.71-.55,2.2,0,4.5-.1,6.71-.11,3.36-.06,6.7.95,10.06.77,2.85.06,5.59-1.03,8.38-1.38,2.48-.27,5.06.11,7.55.08,1.37,0,2.86-.35,4.19-.59,2.29-.37,4.6.48,6.71,1.28,9.16,3.49,10.19-5.47,18.44-4.46,2.49.11,5.09.04,7.55.53,1.34.23,2.82.68,4.19.74,1.38.06,2.92-.26,4.19-.8,2.03-.83,3.86-2.32,5.87-3.18,3.6-1.15,7.65-.31,10.9,1.48,3.33,1.7,5.56,5.34,9.22,6.4"/><path class="b" d="M11.74,159.85c4.77.62,9.73-.39,14.25-1.9,2.34-1.05,4.27-3.05,6.71-3.9,3.31-.66,6.76,1.27,10.06.32,3.92-1.01,7.37-6.78,11.74-4.22,2.38,1.77,3.87,4.62,5.87,6.76,1.51,1.43,3.04,3.29,5.03,4.03,2.03.49,3.95-.86,5.87-1.31,1.89-.45,3.95-.23,5.87-.33,2.2-.05,4.5-.27,6.71-.18,2.86.08,5.52,1.61,8.38,1.73,3.36.33,6.74-.32,10.06-.75,3.34-.39,6.82-.37,10.06-1.37,1.9-.61,4.05-.41,5.87.39,3.13,1.47,6.97,3.09,10.06.65,2.29-1.59,4.03-4.21,6.71-5.18,4.52-.55,9.16,1.17,13.41,2.51,4.64,1.44,7.85-1.09,11.74-3.06,4.36-1.53,8.88.96,12.58,3.12,2.39,1.42,4.69,3.52,7.55,3.87"/><path class="b" d="M11.74,158.39c4.5.5,9.21.14,13.41-1.61,5.21-2.57,5.85-7.66,12.58-7.56,2.79.33,5.68.97,8.38-.17,1.6-.59,3.3-1.39,5.03-1.45,4.51.28,6.49,7.05,10.06,9.45,4.7,3.81,6.23.41,10.9-.39,2.2-.19,4.51-.06,6.71-.12,3.42-.1,6.89.32,10.06,1.66,2.13.73,4.49.67,6.71.67,3.65.08,7.32-.44,10.9-1.12,1.64-.3,3.41-.65,5.03-1.07,1.59-.48,3.39-.77,5.03-.4,3.33.72,6.52,3.25,10.06,2.39,1.69-.56,3.06-2.08,4.19-3.4,1.42-1.55,2.8-3.87,5.03-4.23,3.56.12,6.8,2.06,10.06,3.31,2.87,1.21,6.15,1.9,9.22,1.06,2.81-.66,5.39-2.66,8.38-2.39,3.82.36,7.4,2.24,10.9,3.7,1.84.89,3.78,2.06,5.87,2.15"/><path class="b" d="M11.74,156.61c7.17.03,12.22.92,17.61-4.79,1.29-1.26,2.65-2.78,4.19-3.73.75-.36,1.77-.74,2.52-1.1,1.77-1.12,3.93-.98,5.87-.43,1.88.47,3.92.85,5.87.76,1.35-.06,2.88-.34,4.19.13,3.32,1.51,4.82,5.33,7.55,7.58,4.36,3.35,6.69.54,10.9-.8,3.29-.63,6.78-.16,10.06.3,3.65.51,7.2,2.04,10.9,2.1,2.77-.19,5.61-.09,8.38,0,2.23-.01,4.53-.43,6.71-.9,2.76-.5,5.56-1.45,8.38-1.45,4,.09,7.7,2.77,11.74,2.24,2.63-.73,4.21-3.39,5.87-5.36,2.76-3.76,4.85-2.55,8.38-.67,4.77,2.75,10.37,4.73,15.93,3.75,2.5-.42,4.96-1.64,7.55-1.3,3.36.46,6.72,1.32,10.06,1.9,1.93.52,3.85,1.57,5.87,1.77"/><path class="b" d="M11.74,154.36c1.63-.13,3.39-.39,5.03-.3,1.92.11,3.97.63,5.87.13,3.42-.99,6.19-3.48,9.22-5.24.99-.59,2.27-1,3.35-1.36.81-.36,1.77-1.08,2.52-1.55,3.02-1.63,6.24.49,9.22,1.17,1.04.27,2.29.31,3.35.32,3.31.18,5.25,3.34,7.55,5.32,3.81,3.38,7.21.46,10.9-1.24,2.65-1.03,5.69-.59,8.38.06,6.37,2.14,8.96,3.41,15.93,2.35,3.62-.23,7.29.89,10.9.07,3.32-.52,6.68-1.54,10.06-1.49,4.2.29,8.32,2.28,12.58,1.68,2.42-.54,4.17-2.62,5.87-4.28,2.93-3.23,5.12-1.76,8.38-.02,4.55,2.57,9.91,3.52,15.09,3.61,2.52.07,5.04-.74,7.55-.79,2.77,0,5.61.41,8.38.26,1.34-.09,2.86-.22,4.19.04,1.36.25,2.84.78,4.19,1.08"/><path class="b" d="M11.74,152c1.91-.32,3.93-.86,5.87-.52,1.63.28,3.36.93,5.03.65,1.73-.36,3.39-1.36,5.03-1.99,2.11-.84,4.44-1.38,6.71-1.53,1.22-.08,2.4-.88,3.35-1.58,2.56-1.73,5.68-.85,8.38.01,1.59.54,3.38.52,5.03.67,2.97.44,4.84,3.24,7.55,4.27,7.85,1.47,8.15-9.61,20.96-1.42,4.53,2.88,8.6,1.09,13.41.78,1.95-.02,3.94.57,5.87.77,4.79.47,9.47-1.64,14.25-1.48,2.24.25,4.47,1.05,6.71,1.33,4.29.6,8.06.22,11.74-2.24,3.14-2.05,5.07-1.77,8.38-.28,4.97,2.23,10.55,2.6,15.93,2.7,2.2.04,4.51-.09,6.71-.2,2.2-.06,4.51.02,6.71-.09,2.24-.02,4.5-.7,6.71-.95,1.35-.11,2.88.1,4.19.42"/><path class="b" d="M11.74,149.71c2.18-.45,4.49-1.12,6.71-.51,1.61.41,3.36,1.01,5.03.69,1.93-.45,3.89-1.22,5.87-1.41,1.91-.26,3.95-.11,5.87-.24,2-.45,3.77-1.91,5.87-2.09,1.93-.27,3.96.11,5.87.4,1.34.23,2.85.19,4.19.34,2.15.27,3.97,1.71,5.87,2.63,3.91,1.76,7.22-2.04,10.06-4.18,3.32-2.77,7.11-1.14,10.06,1.28,2.36,1.98,5.13,3.94,8.38,3.27,3.33-.38,6.71-1.67,10.06-.67,1.88.46,3.92.9,5.87.76,3.36-.36,6.69-1.35,10.06-1.68,2.29-.14,4.49,1.03,6.71,1.42,5.06.88,10.19-.37,15.09-1.54,2.81-.64,5.67.36,8.38,1,2.72.63,5.6.8,8.38.82,2.49.01,5.06-.21,7.55-.19,4.73.13,9.52.24,14.25.14,2.84-.13,5.53-1.56,8.38-1.57"/><path class="b" d="M11.74,146.89c5.08-1.67,6.34.18,10.9.88,2.5.04,5.04-.68,7.55-.61,1.92-.08,3.96.15,5.87-.13,1.38-.31,2.83-.91,4.19-1.29,2.7-.86,5.63-.76,8.38-.25,2.61.23,5.11,1.18,7.55,2.06,4.19,1.2,7.41-2.7,10.06-5.34,1.3-1.27,3.14-2.54,5.03-1.91,3.84,1.47,6.27,5.34,10.06,6.9,3.78,1.42,7.85-.19,11.74-.12,2.78.05,5.59.86,8.38.69,3.09-.21,6.13-1.23,9.22-1.44,2.86-.33,5.54,1.41,8.38,1.43,5.29-.03,10.63-.37,15.93-.53,3.9-.1,7.83.68,11.74.56,5.3-.1,10.63-.59,15.93-.43,1.63-.06,3.4-.2,5.03-.08,1.92.12,3.94.55,5.87.51,2.44-.06,4.59-1.56,6.71-2.58"/><path class="b" d="M11.74,143.25c3.82-1.35,7.25,1.5,10.9,2.13,2.47.37,5.06.07,7.55.06,2.78-.11,5.68.05,8.38-.72,2.97-.9,6.14-1.79,9.22-.9,6.56,1.61,9.7,3.56,15.09-1.92,4.9-5.58,5.94-7.57,11.74-1.36,5.64,5.92,10.12,5.16,17.61,4.8,3.05-.15,6.17.19,9.22.23,2.22,0,4.51-.44,6.71-.71,1.34-.15,2.85-.26,4.19-.07,1.62.29,3.37.71,5.03.76,2.2.07,4.5-.16,6.71-.16,3.89.1,7.84.22,11.74.07,9.78.02,19.62.41,29.34-.83,7.01-.26,8.9,3.59,15.09-2.68"/><path class="b" d="M11.74,139.3c3.34-.47,6.13,2.16,9.22,2.98,3.49,1.1,7.27,1.11,10.9,1.04,2.22-.11,4.54-.28,6.71-.77,2.16-.53,4.45-1.32,6.71-.99,1.69.23,3.38.97,5.03,1.38,4.95,1.32,8.36-.64,11.74-4.11,1.85-1.81,3.19-4.83,5.87-5.48,3,.18,4.63,4.08,6.71,5.9,1.96,2.12,4.65,3.62,7.55,3.85,3.6.37,7.29.24,10.9.18,3.62-.17,7.29,0,10.9.07,2.77-.05,5.62-.42,8.38-.13,3.89.38,7.84-.37,11.74-.11,5.85.56,11.75-.07,17.61.03,5.57.28,11.19.21,16.77.16,2.5-.1,5.05-.72,7.55-.77,7.19.76,8.76,2.48,14.25-3.81"/><path class="b" d="M11.74,136.12c3,.24,5.49,2.46,8.38,3.17,3.27.88,6.71,1.38,10.06,1.81,2.24.21,4.52-.35,6.71-.75,2.47-.39,5.01-1.38,7.55-.89,1.68.31,3.37,1.1,5.03,1.48,4.73,1.15,8.66-2.13,11.74-5.3,1.7-1.69,2.98-4.11,5.03-5.43,2.22-1.1,3.89,1.49,5.03,3.02,1.2,1.77,2.58,3.74,4.19,5.17,2.88,2.85,7.13,2.72,10.9,2.74,3.61.01,7.29.02,10.9-.16,2.49-.19,5.06.03,7.55.13,2.2.06,4.5.03,6.71.03,2.79-.01,5.58-.93,8.38-.83,5.01.29,10.07,1.29,15.09.54,1.91-.27,3.94-.6,5.87-.54,2.77.08,5.61.54,8.38.34,1.63-.13,3.4-.36,5.03-.2,1.35.13,2.84.48,4.19.63,2.49.27,5.06-.32,7.55-.22,7.16.88,9.33-.22,14.25-5.45"/><path class="b" d="M11.74,134.12c2.29.38,4.47,1.55,6.71,2.13,2.45.7,5.09.94,7.55,1.6,5.98,1.86,6.15.98,11.74-.32,2.18-.5,4.56-.64,6.71.09,8.27,3.4,11.38-.43,16.77-6.07,1.63-1.62,2.9-4,5.03-5.01,2.9-.62,4.42,3.23,5.87,5.12,1.13,1.76,2.63,3.56,4.19,4.95,2.7,2.54,6.61,2.36,10.06,2.34,4.74.04,9.52-.08,14.25-.28,2.77.06,5.61.28,8.38.23,1.35-.01,2.87-.09,4.19-.41,2.18-.53,4.42-1.43,6.71-1.37,2.54.05,5.07.77,7.55,1.26,2.47.39,5.11.33,7.55-.24,1.9-.46,3.91-1.02,5.87-1.11,1.92-.09,3.95.15,5.87.15,2.23.04,4.47-.94,6.71-.68,2.04.25,3.92,1.44,5.87,2,1.87.51,3.95.45,5.87.45,3.52.21,7.15-.67,10.06-2.71,1.76-1.33,3.36-3.12,5.03-4.55"/><path class="b" d="M11.74,132.3c5.04,1,10.23,1.72,15.09,3.44,5.29,2.17,6.18.19,10.9-.89,3.51-.69,6.66,1.57,10.06,1.85,4.13.35,7.6-2.39,10.06-5.43,1.48-1.84,3.34-3.57,5.03-5.21,3.03-3.25,5.04-2.88,7.55.63,1.53,2.21,3.15,4.62,5.03,6.55,2.26,2.66,4.95,3.63,8.38,3.47,3.89-.03,7.85.02,11.74-.1,3.61-.27,7.28-.17,10.9-.03,2.21.02,4.55.04,6.71-.49,3.28-.85,6.61-2.21,10.06-1.73,1.67.18,3.38.83,5.03,1.13,1.9.36,3.97.39,5.87.02,3.67-.87,7.08-2.84,10.9-3.14,1.66-.17,3.43-.54,5.03-1.03,1.65-.48,3.55-.26,5.03.61,1.68.95,3.28,2.34,5.03,3.16,3.42,1.49,7.52,1.5,10.9-.13,1.38-.67,2.99-1.35,4.19-2.34,1.7-1.36,3.29-3.12,5.03-4.44"/><path class="b" d="M11.74,130.91c2.2.17,4.53.08,6.71.52,3.67.75,7.2,2.34,10.9,2.99,2.93.53,5.59-1.15,8.38-1.61,2.3-.25,4.52.81,6.71,1.35,1.89.49,3.97.4,5.87-.01,4.12-.82,6.57-4.58,9.22-7.48,1.44-1.39,3.29-2.55,5.03-3.51,3.28-1.64,5.74,1.98,7.55,4.19,1.24,1.57,2.79,3.17,4.19,4.59,2.23,2.37,5.31,2.67,8.38,2.56,5.02.02,10.08-.01,15.09-.16,3.61,0,7.29.18,10.9-.05,4.27-.22,8.36-1.84,12.58-2.37,2.83-.1,5.57,1.16,8.38,1.3,5.64.77,9.42-4.18,14.25-6.06,3.01-1.15,6.27-2.46,9.22-.38,4.28,3.08,8.49,7.3,14.25,5.57,1.69-.51,3.49-1.23,5.03-2.1,2.02-1.29,3.79-3.19,5.87-4.4"/><path class="b" d="M11.74,130c1.92-.02,3.95-.37,5.87-.11,1.99.26,3.94,1.11,5.87,1.61,1.61.38,3.38.62,5.03.74,1.93.13,3.97.02,5.87-.3,1.35-.21,2.82-.6,4.19-.6,2.51.06,5.02.92,7.55.94,3.22.06,6.74-.31,9.22-2.57,2-1.63,3.5-4.13,5.87-5.28,2.37-.89,5.12-2.28,7.55-.8,3.11,1.95,5.38,5.11,8.38,7.21,2.43,1.68,5.57,1.41,8.38,1.44,3.33-.02,6.73.01,10.06,0,6.14-.04,12.32.14,18.44-.39,3.14-.07,6.22-.89,9.22-1.74,4.22-.85,8.35,2.02,12.58.97,4.78-1.4,7.16-6.66,11.74-8.46,5.88-2.62,9.64,1.62,14.25,4.55,3.87,2.94,8.35,2.56,12.58.6,1.94-.99,3.77-2.49,5.87-3.16"/><path class="b" d="M11.74,129.24c2.2-.11,4.5-.56,6.71-.25,2.48.38,5.01,1.07,7.55,1.05,3.05.06,6.17.08,9.22,0,3.05-.29,6.17-.21,9.22,0,3.63.02,7.7.53,10.9-1.55,1.75-1.11,3.21-2.88,5.03-3.89.72-.35,1.75-.54,2.52-.72,1.32-.35,2.82-.73,4.19-.61,4.01.57,6.56,4.32,10.06,6,2.6,1.17,5.61.71,8.38.81,4.17-.02,8.4,0,12.58-.01,4.74-.07,9.52.13,14.25-.2,3.36-.06,6.83-.05,10.06-1.12,4.98-1.89,10.18,2.4,15.09.11,2.97-1.43,4.97-4.35,7.55-6.31,2.55-1.98,6.11-2.66,9.22-1.81,3.4.96,6.2,3.36,9.22,5.07,3.09,1.71,6.81,1.2,10.06.23,2.19-.68,4.36-1.92,6.71-1.95"/><path class="b" d="M11.74,127.79c1.92-.04,3.95-.26,5.87-.25,2.21.02,4.5.31,6.71.32,2.77.04,5.61-.05,8.38-.09,2.49.03,5.06.15,7.55.08,2.77-.02,5.61.03,8.38.02,3.17.09,6.52-.19,9.22-2.02,1.49-1.01,3.25-1.73,5.03-1.97,1.88-.48,3.97-.89,5.87-.26,2.95.97,5.34,3.35,8.38,4.08,1.91.39,3.95-.01,5.87-.07,2.77-.06,5.62.12,8.38.18,4.74.18,9.52-.16,14.25.06,3.62,0,7.28-.32,10.9-.3,1.35-.05,2.87-.2,4.19-.5,1.62-.36,3.35-.97,5.03-.94,2.24.03,4.49.8,6.71,1.06,4.83.88,8.11-2.49,11.74-5.01,4.52-3.06,9.7-2.26,14.25.3,3.14,1.72,6.33,3.49,10.06,2.99,1.95-.2,3.98-.7,5.87-1.23,1.86-.6,3.89-1.29,5.87-1.04"/><path class="b" d="M11.74,125.65c4.74-.08,9.52,0,14.25,0,3.06-.01,6.17-.71,9.22-.31,3.03.44,6.17.32,9.22.33,3.33-.03,6.73.06,10.06-.04,1.98-.05,3.98-.63,5.87-1.18,1.63-.37,3.39-.76,5.03-1.04,4.39-.83,8.22,2.6,12.58,2.24,2.21-.21,4.47-.81,6.71-.75,3.07-.02,6.17.45,9.22.67,2.2.18,4.5.08,6.71-.02,1.92-.03,3.95.16,5.87.11,1.92-.05,3.95-.3,5.87-.33,2.2-.07,4.52-.01,6.71-.38,1.94-.3,3.91-1.08,5.87-1.29,2.8-.34,5.61.56,8.38.76,5.63.41,9.65-4.88,15.09-5.45,4.21-.35,7.89,2.44,11.74,3.71,3.95,1.68,8.38,1.82,12.58,1.14,2.51-.33,4.96-1.67,7.55-1.36"/><path class="b" d="M11.74,123.38c4.45.11,8.96.07,13.41.01,2.23-.07,4.49-.67,6.71-.77,2.24-.1,4.48.73,6.71.79,3.89.06,7.84-.03,11.74-.1,2.77-.18,5.61.18,8.38.1,2.51-.14,5.05-.77,7.55-1.03,3.38-.3,6.69,1.06,10.06,1.05,3.08,0,6.13-1.03,9.22-.93,3.35,0,6.73.6,10.06.84,1.92.16,3.95.01,5.87.02,2.2.04,4.51.14,6.71-.07,3.32-.36,6.76-.1,10.06-.65,1.67-.28,3.39-.91,5.03-1.29,2.18-.4,4.5-.57,6.71-.37,1.63.13,3.4.37,5.03.23,1.7-.22,3.46-.87,5.03-1.56,2.71-1.15,5.39-2.86,8.38-3.09,1.79-.03,3.51,1,5.03,1.84,1.57.9,3.31,1.83,5.03,2.42,4.58,1.41,9.46,2.06,14.25,1.9,2.53-.08,4.99-1.34,7.55-1.17"/><path class="b" d="M11.74,121.13c4.17.2,8.41.11,12.58-.01,2.23-.14,4.47-.9,6.71-.93,2.26-.04,4.46.97,6.71,1.04,5.03-.09,10.1-.42,15.09-.97,2.54-.16,5.02.94,7.55.97,1.93.04,3.95-.33,5.87-.5,1.64-.14,3.4,0,5.03.18,2.19.23,4.5.37,6.71.3,2.77-.14,5.6-.59,8.38-.51,5.59-.02,11.18.68,16.77.53,2.21.03,4.51-.1,6.71-.22,2.2-.06,4.51-.03,6.71-.3,3.12-.38,6.06-1.82,9.22-1.96,2.75-.43,5.61-.26,8.38-.23,4.25-.03,7.96-2.42,11.74-4.05,2.1-.95,4.1-.36,5.87,1.01,1.82,1.29,3.75,2.72,5.87,3.49,1.84.69,3.95.82,5.87,1.19,2.76.4,5.59.9,8.38.93,2.8.19,5.6-.76,8.38-.69"/><path class="b" d="M11.74,118.81c4.15.39,8.41.2,12.58,0,2.21-.23,4.47-.96,6.71-.8,2.23.16,4.45,1.19,6.71.99,4.8-.56,9.55-1.74,14.25-2.8,3.64-.44,6.42,2.99,10.06,2.82,1.93.06,3.95-.28,5.87-.33,2.49-.04,5.06.22,7.55.25,4.73.19,9.52-.02,14.25,0,4.18-.16,8.4.11,12.58.09,4.73-.09,9.53-.06,14.25-.39,3.11-.35,6.07-1.69,9.22-1.77,6.8-.82,10.14,1.23,16.77-2.55,1.81-.91,3.75-2.27,5.87-2.06,1.55.32,2.94,1.48,4.19,2.39,2.61,2.11,5.87,3.33,9.22,3.45,3.05.32,6.16.83,9.22.91,3.05.15,6.17-.25,9.22-.14"/><path class="b" d="M11.74,116.32c4.12.83,8.41.4,12.58.23,1.92-.15,3.94-.5,5.87-.4,1.65.08,3.38.53,5.03.65,1.73.11,3.48-.6,5.03-1.28,1.89-.85,3.89-1.73,5.87-2.34,2.42-.62,5.04-2.07,7.55-1.08,1.49.61,2.88,1.76,4.19,2.66,2.88,2.13,6.64,2.15,10.06,1.99,5.58-.28,11.19.03,16.77.05,10.34,0,20.7.11,31.02-.49,2.24-.14,4.51-.71,6.71-1.1,1.62-.2,3.4-.17,5.03-.19,7.45.18,9.17.83,15.93-3.19,2.11-1.21,4.59-1.81,6.71-.24,5.36,3.96,7.66,4.36,14.25,4.62,2.49.11,5.05.49,7.55.53,2.77.06,5.62-.09,8.38.06"/><path class="b" d="M11.74,113.89c3.28.88,6.71.73,10.06.52,3.62-.11,7.29-.12,10.9.17,2.13.19,4.26-.55,5.87-1.95,1.85-1.47,3.65-3.29,5.87-4.2,1.29-.52,2.82-.65,4.19-.73,1.39-.23,2.94,0,4.19.65,2.05,1.05,3.87,2.71,5.87,3.84,5.13,2.67,11.15,2.61,16.77,2.07,4.18.02,8.4.44,12.58.14,4.46-.03,8.96.27,13.41.18,3.35.1,6.73-.49,10.06-.69,3.9-.15,7.83-.87,11.74-.88,4.71.25,9.68,1.2,14.25-.4,1.73-.75,3.39-1.97,5.03-2.89,2.52-1.55,5.22-1.37,7.55.48,1.76,1.28,3.73,2.57,5.87,3.07,2.99.65,6.17.64,9.22.6,2.21,0,4.51.28,6.71.4,2.77.06,5.62.14,8.38.32"/><path class="b" d="M11.74,111.77c1.35.21,2.83.54,4.19.6,1.64.07,3.39-.11,5.03-.15,2.49-.03,5.06.17,7.55.16,4.46.12,7.42-.38,10.06-4.25,1.86-2.25,3.48-5.8,6.71-6.16,1.44,0,2.85.8,4.19,1.22,2.8,1.26,4.84,3.89,7.55,5.31,1.78,1.03,3.93,1.38,5.87,2,2.48.6,5,1.5,7.55,1.82,1.94.24,3.94-.34,5.87-.39,1.92-.03,3.95.25,5.87.32,3.63.27,7.28-.57,10.9-.36,3.88.28,7.84.57,11.74.43,3.07-.28,6.16-.95,9.22-1.27,3.03-.46,6.19-.51,9.22-.06,5.56.99,12.09,1.76,16.77-2.11,2.73-2.12,5.22-3.05,8.38-1.03,1.86,1.18,3.7,2.73,5.87,3.33,1.86.54,3.94.55,5.87.56,1.63.06,3.4.03,5.03-.13,2.49-.17,5.06.06,7.55.19,2.5.02,5.07.22,7.55.52"/><path class="b" d="M11.74,109.81c3.04.5,6.16.3,9.22.26,3.34.14,6.77.2,10.06-.48,1.83-.39,3.75-1.21,5.03-2.61,1.72-1.99,2.95-4.7,4.19-6.99,1.36-2.47,3.56-6.61,6.71-3.77,1.4,1.26,3.05,2.59,4.19,4.11,2.16,2.81,4.6,6.17,8.38,6.66,2.24.23,4.56.81,6.71,1.49,1.62.58,3.31,1.43,5.03,1.65,1.66.19,3.38-.42,5.03-.47,2.49-.02,5.05.48,7.55.44,3.09.17,6.14-.89,9.22-.92,4.73.15,9.51,1.38,14.25.81,3.89-.47,7.8-1.63,11.74-1.44,4.46.48,8.89,1.9,13.41,1.34,1.67-.18,3.5-.47,5.03-1.19,2.61-1.38,5.16-4.37,8.38-3.1,2.06.77,3.91,2.22,5.87,3.2,1.26.59,2.81.92,4.19,1,4.46.26,8.96-.31,13.41-.31,3.61.23,7.32-.13,10.9.46"/><path class="b" d="M11.74,107.66c2.48.28,5.05.33,7.55.28,4.51.12,9.24-.32,13.41-2.13,4.31-1.93,5.67-7.07,7.55-11,1.08-1.98,2.27-6.12,5.03-5.95,5.77,3.26,6.63,11.27,11.74,15.23,1.67,1.26,3.91,1.26,5.87,1.7,3.74.29,7.11,2.84,10.9,1.96,3.58-.81,7.28.34,10.9.15,3.1.08,6.12-1.22,9.22-1.15,4.19.21,8.39.96,12.58,1.2,3.35.04,6.74-.47,10.06-.84,3.64-.34,7.27.71,10.9.81,3.33,0,6.82.27,10.06-.64,1.41-.5,2.83-1.4,4.19-2,4.37-1.97,8.26,2.34,12.58,2.49,6.13.38,12.31-.37,18.44-.19,2.49.02,5.06-.57,7.55-.25"/><path class="b" d="M11.74,105.13c5,.68,10.17.97,15.09-.36,3.29-.69,7.06-1.45,9.22-4.28,2.89-3.29,5.34-14.33,9.22-14.94,6.31,1.9,7.19,13.52,12.58,17.37,1.43,1.05,3.33,1.25,5.03,1.51,1.94.21,3.97.57,5.87.98,2.47.64,5.05.1,7.55.07,2.77.14,5.61.33,8.38.27,2.52.09,5.07-.5,7.55-.87,1.91-.26,3.95-.1,5.87-.04,3.93-.23,7.84.6,11.74.86,3.34.25,6.72-.33,10.06-.26,3.61.22,7.28.39,10.9.3,3.37.09,6.83.06,10.06-.99,4.19-1.37,8.41.56,12.58.95,6.69.19,13.43-.02,20.12-.21,2.22-.14,4.47-.9,6.71-.87"/><path class="b" d="M11.74,102.48c4.75.63,9.52,1.41,14.25.13,3.1-.63,6.6-.71,9.22-2.67,4.25-3.73,5.33-11.74,10.06-14.69,4.12-.96,6.06,4.19,7.55,7.12,1.37,2.76,2.76,5.91,5.03,8.06,2.26,2.02,5.58,1.86,8.38,2.49,2.46.48,5.04.76,7.55.56,1.92-.12,3.95.07,5.87.07,2.49-.04,5.06-.01,7.55,0,1.93-.05,3.95-.39,5.87-.54,1.63-.12,3.4-.07,5.03-.12,1.64-.08,3.39-.36,5.03-.45,3.37-.2,6.72.82,10.06,1.05,1.92.15,3.95-.03,5.87-.05,1.92,0,3.95.09,5.87.1,4.17-.04,8.4.06,12.58-.05,3.33-.17,6.72-.65,10.06-.56,2.22-.02,4.49.49,6.71.55,5.3.14,10.64-.04,15.93-.24,1.65-.09,3.45-.21,5.03-.7,1.61-.49,3.33-1.2,5.03-1.31"/><path class="b" d="M11.74,100.06c1.94.02,3.95.51,5.87.73,2.48.29,5.09.34,7.55-.12,3.31-.6,7-.14,10.06-1.74,4.58-3.39,5.92-10.05,10.9-13.04,3.37-1.56,5.16.92,6.71,3.54,1.95,3.1,3.55,6.93,6.71,9.02,1.27.67,2.84.96,4.19,1.39,1.61.49,3.36,1.04,5.03,1.29,2.19.35,4.5.09,6.71.13,4.18.14,8.4-.2,12.58.06,3.61-.11,7.29-.15,10.9-.23,2.51-.15,5.02-1.01,7.55-.91,2.52.13,5.03.95,7.55,1.1,6.13.04,12.31.03,18.44.03,3.61-.02,7.29.09,10.9-.14,1.93-.12,3.94-.5,5.87-.63,1.34-.04,2.85.13,4.19.24,3.05.33,6.18.12,9.22-.14,2.77-.12,5.64-.03,8.38-.44,3.31-.29,5.94-2.91,9.22-3.23"/><path class="b" d="M11.74,98.13c4.46.06,8.94,1.22,13.41.55,3.32-.38,6.84.24,10.06-.82,1.7-.71,3-2.38,4.19-3.73,2.35-2.75,4.49-5.99,7.55-8.02,2.4-1.52,4.04-1.24,5.87.88,2.25,2.53,3.91,5.84,6.71,7.85.99.61,2.31,1,3.35,1.49,1.87.95,3.78,2.17,5.87,2.58,2.19.44,4.5-.05,6.71.07,3.33.33,6.73-.21,10.06-.01,4.73.25,9.52.1,14.25.13,2.23.02,4.49-.61,6.71-.71,2.23-.07,4.5.54,6.71.68,6.97.06,13.98.03,20.96,0,3.33-.11,6.74.21,10.06-.12,1.97-.23,3.9-1.15,5.87-1.4,3.33-.31,6.78.44,10.06-.39,3.8-1.25,7.95.52,11.74-.89,2.94-1.03,5.11-4.07,8.38-4.15"/><path class="b" d="M11.74,96.56c5.02.08,10.07.35,15.09.06,3.04-.05,6.26.46,9.22-.41,4.81-2.4,7.3-7.79,11.74-10.71,4.22-3.12,7.26,2.61,10.06,5.01,1.36,1.42,3.37,1.98,5.03,2.92,1.61,1.05,3.2,2.46,5.03,3.11,2.17.8,4.5-.04,6.71-.15,1.93.03,3.93.53,5.87.51,3.89-.08,7.84.03,11.74-.02,3.05-.06,6.18-.4,9.22-.01,2.21.15,4.5-.25,6.71-.2,2.49.11,5.06.31,7.55.21,7.82.08,15.66-.22,23.48-.17,1.92.12,3.98.4,5.87-.11,2.21-.68,4.36-1.91,6.71-2.09,2.21-.26,4.55-.3,6.71-.9,1.38-.33,2.75-1.27,4.19-1.36,2.22.04,4.46.96,6.71.8,4.47.14,6.67-5.07,10.9-5.52"/><path class="b" d="M11.74,94.67c4.74.02,9.52-.06,14.25-.09,3.6-.05,7.34.44,10.9-.25,4.74-1.45,7.43-6.2,11.74-8.37,4.78-2.01,8.35,3.12,12.58,4.4,2.83,1.29,4.99,4.53,8.38,4.31,1.4-.11,2.85-.72,4.19-1.1,2.22-.63,4.52.36,6.71.7,2.18.37,4.5.36,6.71.37,1.92.02,3.96.11,5.87-.08,1.93-.17,3.93-.73,5.87-.71,1.65.08,3.39.53,5.03.68,3.6.28,7.29.1,10.9.12,3.34.11,6.73-.08,10.06-.22,4.18.05,8.4-.12,12.58-.33,2.78.02,5.68,1.19,8.38.04,3.22-1.47,6.75-2.26,10.06-3.47,1.07-.4,2.33-.95,3.35-1.46,1.25-.66,2.72-1.47,4.19-1.24,4.14,1.06,8,2.19,11.74-.73,1.51-1.01,3.18-2.21,5.03-2.47"/><path class="b" d="M11.74,92.45c5.86.01,11.75.04,17.61.02,3.61-.16,7.48.55,10.9-.91,4.87-2.15,6.55-6.1,12.58-5.26,2.01.21,4,1.02,5.87,1.76,1.07.41,2.38.79,3.35,1.42,2.23,1.47,4.68,3.59,7.55,2.86,5.78-1.97,5.08-3.64,11.74-1.34,1.87.59,3.92.91,5.87,1.05,1.63.21,3.38.53,5.03.4,2.53-.16,4.99-1.4,7.55-1.3,2.79.14,5.6.84,8.38,1.01,4.17.25,8.4.35,12.58.3,5.57-.31,11.2-.05,16.77-.53,2.78,0,5.66,1.14,8.38.07,2.47-.92,5.17-1.45,7.55-2.61,2.81-1.23,5.39-3.22,8.38-4.02,1.33-.36,2.86-.05,4.19.1,2.2.18,4.5.41,6.71.37,2.57-.07,5.01-1.35,7.55-1.65"/><path class="b" d="M11.74,90.21c3.33-.04,6.73.08,10.06.01,2.77-.07,5.61-.26,8.38-.12,8.39.25,9.53.89,16.77-3.7,1.26-.71,2.81-.59,4.19-.51,1.95.06,3.99.34,5.87.87,7.88,1.77,8.57,6.48,16.77.73,3.09-2.42,6.02-1.44,9.22.11,2.41,1.02,5.04,1.77,7.55,2.51,2.55.57,5.09-.51,7.55-1.06,2.45-.47,5.06-.58,7.55-.28,3.34.45,6.67,1.35,10.06,1.36,6.69.19,13.43.21,20.12.05,2.49-.24,5.06.2,7.55.04,1.37-.13,2.86-.59,4.19-.93,1.66-.27,3.46-.62,5.03-1.25,2.26-.85,4.43-2.18,6.71-2.96,2.72-.73,5.62-.96,8.38-1.47,2.25-.45,4.57.16,6.71.83,1.88.44,3.95.37,5.87.35"/><path class="b" d="M11.74,88.02c3.05-.04,6.18.05,9.22-.16,2.21-.14,4.49-.7,6.71-.45,4.41.46,9.05,1.21,13.41.07,2.09-.63,3.92-2.07,5.87-3.01,1.31-.68,2.83-.31,4.19-.06,1.65.27,3.42.65,5.03,1.1,1.63.48,3.41.93,5.03,1.41,3.54,1.65,6.8,1.41,10.06-.71,2.24-1.26,4.03-3.7,6.71-4.03,2.49-.18,4.63,1.56,6.71,2.68,2.95,1.27,5.84,3.61,9.22,3.11,4.18-.63,8.28-2.58,12.58-2.25,2.84.3,5.49,1.84,8.38,1.85,2.2.12,4.5-.02,6.71.01,3.33.27,6.72.25,10.06.22,4.17.07,8.44.59,12.58-.19,1.89-.47,3.92-.81,5.87-.93,1.95-.25,3.97-.78,5.87-1.29,1.87-.57,3.92-.8,5.87-.9,1.97-.34,3.99-.97,5.87-1.65,1.01-.33,2.3-.52,3.35-.35,1.13.18,2.33.86,3.35,1.32,1.81.8,3.9,1.16,5.87,1.34"/><path class="b" d="M11.74,85.83c2.77-.02,5.62.05,8.38-.17,2.21-.15,4.48-.81,6.71-.6,4.14.63,8.42,1.19,12.58.34,2.15-.47,4.08-1.82,5.87-3.04.96-.62,2.17-1.3,3.35-1.24,1.72.37,3.43,1.23,5.03,1.92,3.38,1.6,7.14,2.71,10.9,2.79,3.23-.17,5.98-2.28,8.38-4.26,4.34-4.31,6.53-2.84,10.9.34,1.53,1.08,3.4,1.86,5.03,2.78,2.83,1.68,6.22,1.18,9.22.29,3.55-.88,7.2-2.87,10.9-1.57,1.36.41,2.78,1.18,4.19,1.4,3.89.63,7.85-.58,11.74.14,3.05.13,6.18-.28,9.22.11,2.19.33,4.49.63,6.71.46,1.94-.09,3.96-.56,5.87-.9,3.6-.27,7.29-.25,10.9-.38,1.34-.04,2.85.07,4.19-.01,1.97-.2,4-.74,5.87-1.36,1.01-.31,2.29-.54,3.35-.45,1.1.1,2.33.63,3.35,1,1.85.64,3.92.94,5.87,1.14"/><path class="b" d="M11.74,83.58c2.77-.07,5.61.08,8.38.02,1.92-.06,3.94-.37,5.87-.31,3.05.15,6.19.6,9.22.05,2.76-.25,5.41-1.34,7.55-3.11,1.27-.94,2.65-2.11,4.19-2.54,3.8-.77,6.63,5.93,12.58,5.89,5.68.54,8.56-1.67,12.58-5.26,3.13-2.88,4.95-3.28,8.38-.55,1.32,1.03,2.75,2.26,4.19,3.14,1.82.98,3.87,1.85,5.87,2.41,4.54.94,9.15-.66,13.41-2.06,4.44-1.38,6.14.72,10.06,1.4,2.49.34,5.07-.06,7.55-.27,1.92-.07,3.95.22,5.87-.1,1.91-.23,3.95-.45,5.87-.24,2.49.32,5.01,1.14,7.55,1.13,2.5.1,5.06-.37,7.55-.45,3.34-.07,6.73.25,10.06.5,2.2.17,4.52.12,6.71-.17,1.92-.27,3.92-.89,5.87-.94,1.36-.03,2.85.39,4.19.58,1.62.24,3.4.35,5.03.44"/><path class="b" d="M11.74,81.24c4.18-.34,8.4.35,12.58.12,3.33-.05,6.77.3,10.06-.39,2.04-.44,4.15-1.17,5.87-2.4,1.81-1.19,3.63-2.88,5.87-3.14,4.81-.07,6.43,7.16,11.74,5.84,2.2-.54,4.63-.53,6.71-1.5,3.52-1.53,5.83-4.98,9.22-6.68,2.23-.94,4.29,1.03,5.87,2.37,1.53,1.37,3.2,2.87,5.03,3.83,1.83.85,3.89,1.51,5.87,1.91,4.81.68,9.67-.52,14.25-1.9,1.61-.4,3.44-.41,5.03.08,1.61.55,3.32,1.24,5.03,1.39,3.33.38,6.73-.27,10.06-.33,2.22-.25,4.46-1.05,6.71-1.15,3.16-.17,6.13,1.37,9.22,1.74,3.6.42,7.29-.1,10.9-.02,5.29.24,10.64.69,15.93.14,4.16-.76,8.39.08,12.58.13"/><path class="b" d="M11.74,79c2.77-.33,5.62-.15,8.38.11,2.48.15,5.06.07,7.55.08,5.58.14,8.79-.66,13.41-3.78,2.12-1.37,4.59-1.51,6.71-.07,4.04,2.45,5.19,5.88,10.06,2.19,1.43-1.12,3.33-1.17,5.03-1.51,1.47-.4,2.96-1.25,4.19-2.12,2.1-1.38,4.06-3.66,6.71-3.84,2.41.26,4.11,2.47,5.87,3.92,1.91,1.73,4.18,3.31,6.71,3.96,2.42.77,4.99,1.42,7.55,1.24,3.37-.16,6.8-.53,10.06-1.43,2.17-.56,4.56-.68,6.71.02,3.46,1.3,7.26,1.41,10.9,1.06,1.35-.13,2.87-.17,4.19-.49,1.36-.33,2.84-.87,4.19-1.22,2.19-.59,4.58-.26,6.71.41,1.85.74,3.85,1.5,5.87,1.56,3.33.19,6.73-.06,10.06-.08,3.61.11,7.28.21,10.9.17,2.78.09,5.62-.24,8.38-.37,2.77.03,5.61.39,8.38.37"/><path class="b" d="M11.74,76.85c3.05-.35,6.17,0,9.22.13,4.17-.09,8.43.26,12.58-.28,3.02-.45,5.52-2.46,8.38-3.33,3.48-.84,6.2,2.22,9.22,3.38,4.44,1.45,5.86-5.51,10.06-5.27,1.7.04,3.48-.45,5.03-1.13,5.6-2.66,6.84-3.45,11.74.98,1.74,1.46,3.73,2.86,5.87,3.66,1.88.65,3.95,1.1,5.87,1.62,3.57.77,7.3.16,10.9-.04,2.49-.27,5.03-.94,7.55-.83,2.24.09,4.47.95,6.71,1.1,3.33.23,6.76.11,10.06-.41,2.54-.52,4.92-2.02,7.55-2.1,2.33-.07,4.64.74,6.71,1.76,1.54.65,3.36.87,5.03.88,3.05.08,6.17-.13,9.22-.16,3.89.13,7.84.26,11.74.18,2.49-.01,5.05-.45,7.55-.4,2.48.14,5.05.55,7.55.38"/><path class="b" d="M11.74,74.76c2.49-.07,5.06.05,7.55-.02,1.64-.06,3.39-.33,5.03-.3,2.77.06,5.61.45,8.38.28,5.55-.6,8.49-4.29,14.25-1.19,2.07.99,4.74,1.97,6.71.25,2.5-1.79,4.02-5.97,7.55-5.74,1.36.07,2.87-.1,4.19-.4,8.89-2.67,8.12.12,15.09,4.05,2.05,1.11,4.43,1.68,6.71,2.09,1.62.38,3.37.78,5.03.9,5.03.34,10.08-.16,15.09-.51,3.34.02,6.7.78,10.06.6,2.78-.02,5.7-.16,8.38-.93,2.44-.82,4.89-2.22,7.55-2.01,2.03.09,4.07.76,5.87,1.69,3.4,1.51,7.29,1.1,10.9.91,4.74-.55,9.5.52,14.25.23,2.49-.06,5.06-.4,7.55-.35,2.77.13,5.61.72,8.38.35"/><path class="b" d="M11.74,72.46c2.21.01,4.52-.04,6.71-.35,1.92-.25,3.92-.83,5.87-.82,2.54.08,5.03.99,7.55,1.22,1.96.19,3.97-.37,5.87-.74,3.04-.73,6.23-.54,9.22.32,2.29.65,4.83.73,6.71-.96,2.39-1.77,4.16-5.52,7.55-5.22,1.36.08,2.86-.09,4.19-.35,12.89-3.43,6.61,6.23,30.18,6.85,4.18.16,8.4.13,12.58.04,4.45.07,8.98.3,13.41-.07,1.35-.2,2.88-.4,4.19-.83,2.16-.72,4.38-1.79,6.71-1.77,1.36.02,2.87.25,4.19.54,1.63.51,3.33,1.28,5.03,1.54,3.32.49,6.76.03,10.06-.37,3.91-.63,7.82.72,11.74.58,2.48-.02,5.06-.15,7.55,0,3.04.23,6.17.7,9.22.36"/><path class="b" d="M11.74,69.96c2.22-.15,4.53-.46,6.71-.91,2.18-.42,4.47-1.08,6.71-.89,2.01.25,3.93,1.23,5.87,1.76,2.72.81,5.61.17,8.38.07,3.34-.23,6.73.15,10.06.35,4.37.26,6.55-4.27,10.06-5.94,1.32-.36,2.85-.13,4.19-.36,3.02-.41,6.23-1.72,9.22-.53,7.5,4.37,12.04,6.38,20.96,6,4.21-.28,8.38.85,12.58.79,2.78.08,5.61-.33,8.38-.33,2.21.05,4.5.53,6.71.32,4.27-.18,8.25-2.56,12.58-1.88,2.81.16,5.56,1.22,8.38,1.29,3.93.08,7.85-.82,11.74-1.19,2.24-.11,4.5.58,6.71.82,1.91.21,3.95.14,5.87.2,4.46.19,8.93,1.07,13.41.76"/><path class="b" d="M11.74,67.54c3.06-.52,6.15-1.31,9.22-1.77,1.91-.26,4-.55,5.87.06,2.46.82,4.91,2.06,7.55,2.22,4.73.26,9.52-.23,14.25.02,4.78.64,6.72-2.07,10.06-4.73,1.42-1.09,3.36-.84,5.03-1.08,2.2-.29,4.47-.87,6.71-.82,1.75,0,3.48.74,5.03,1.47,1.61.68,3.37,1.34,5.03,1.89,2.97.92,6.08,1.98,9.22,1.82,3.33-.15,6.78-1.09,10.06-.1,2.68.83,5.58,1.23,8.38.87,1.92-.22,3.93-.74,5.87-.68,2.55.09,4.99,1.33,7.55,1.4,3.68.19,7.24-1.3,10.9-1.23,4.19.05,8.39,1.18,12.58.57,1.62-.27,3.4-.38,5.03-.59,1.34-.22,2.84-.54,4.19-.6,2.24-.12,4.5.59,6.71.87,2.76.3,5.62-.11,8.38.17,3.66.48,7.18.89,10.9.82"/><path class="b" d="M11.74,65.22c4.91-1.01,10.05-2.84,15.09-1.81,2.22.61,4.44,1.58,6.71,2,4.41.74,8.97.53,13.41.32,1.64-.09,3.39.24,5.03.18,3.11-.15,5.07-2.94,7.55-4.43,1.26-.63,2.83-.55,4.19-.66,2.2-.15,4.5-.35,6.71-.24,1.67.05,3.41.49,5.03.85,1.62.3,3.39.48,5.03.68,2.51.23,5.05.93,7.55,1.21,2.5.13,5.05-.48,7.55-.5,3.18-.1,6.05,1.82,9.22,1.81,3.11.16,6.11-1.44,9.22-1.16,3.16.42,5.94,2.62,9.22,2.45,3.36.05,6.69-1.12,10.06-.92,2.49.04,5.06.37,7.55.5,2.22.11,4.52-.21,6.71-.49,2.5-.05,5.04-.77,7.55-.66,2.51.13,5.02,1.01,7.55.92,2.49-.08,5.04-.67,7.55-.53,1.36.05,2.85.43,4.19.63,1.91.23,3.95.32,5.87.44"/><path class="b" d="M11.74,62.6c4.9-1.14,10.07-2.18,15.09-1.29,3.32.7,6.68,1.58,10.06,1.97,2.75.34,5.62.61,8.38.25,1.34-.17,2.84-.41,4.19-.27,1.06.12,2.29.41,3.35.45,2.98.17,4.93-2.58,7.55-3.45,1.32-.3,2.85-.18,4.19-.21,3.05.02,6.17-.07,9.22.06,2.78.2,5.63-.14,8.38-.46,1.92-.29,3.95-.08,5.87.01,1.64-.03,3.39-.28,5.03-.34,6.49-.27,8.6,3.62,15.93,1.85,6.23-1.61,8.59,2.67,14.25,2.54,2.8.03,5.6-.8,8.38-.97,3.34-.19,6.73.31,10.06.33,1.64,0,3.4-.23,5.03-.42,1.63-.13,3.4-.08,5.03-.21,2.51-.16,5.08.36,7.55.76,3.62.63,7.29-.3,10.9-.56,1.35-.1,2.86.15,4.19.32,1.91.16,3.96.22,5.87.39"/><path class="b" d="M11.74,59.58c3.84-.68,7.84-.88,11.74-.63,5.86.79,11.69,2.22,17.61,2.53,1.36.05,2.86-.06,4.19-.34,1.61-.34,3.38-.86,5.03-.51,1.34.29,2.8.86,4.19.86,2.09,0,3.88-1.45,5.87-1.85,1.63-.2,3.4-.03,5.03-.15,1.93-.09,3.96-.37,5.87-.68,3.31-.59,6.8-.35,10.06-1.28,2.17-.65,4.44-1.28,6.71-1.46,2.75-.56,5.71-.8,8.38.22,2.72,1.01,5.46,2.3,8.38,2.56,2.48.29,5.08.01,7.55.42,1.98.36,3.92,1.31,5.87,1.81,4.45,1.13,9-.34,13.41-.95,3.04-.34,6.17.03,9.22,0,2.49.04,5.06-.63,7.55-.35,4.49.3,8.91,1.54,13.41,1.64,3.05.08,6.18-.18,9.22-.38,3.05,0,6.17-.17,9.22-.13"/><path class="b" d="M11.74,55.94c2.21-.04,4.5.29,6.71.45,2.22.18,4.56.32,6.71.96,7.3,2.16,15.32,2.84,22.64.45,2.63-.82,5.03,1.01,7.55,1.41,1.65.25,3.39-.22,5.03-.32,1.35-.04,2.85.02,4.19-.09,3.23-.12,6.2-1.56,9.22-2.52,2.76-.56,5.77-.31,8.38-1.53,3.2-1.41,6.44-3.59,10.06-3.5,2.46.23,4.56,1.85,6.71,2.92,3.96,1.86,8.29,3.05,12.58,3.89,2.47.5,5,1.26,7.55,1.23,2.49-.03,5.09-.13,7.55-.55,2.49-.46,5.01-1.27,7.55-1.47,2.48-.11,5.07.02,7.55-.28,2.48-.26,5.11-.8,7.55.03,3.32.74,6.67,1.73,10.06,2.07,6.98.48,14.01.13,20.96-.58"/><path class="b" d="M11.74,52.35c1.64.44,3.37,1.06,5.03,1.44,1.9.45,3.96.67,5.87,1.08,2.52.58,4.94,1.9,7.55,2.13,2.5.23,5.08-.14,7.55-.5,2.49-.28,5.11-.35,7.55-.99,3.51-1.01,4.99-1.42,8.38.26,2.86,1.41,6.12,1.33,9.22,1.29,4.4.25,6.44-.48,10.06-2.87,1.74-1.06,3.92-.96,5.87-1.23,1.45-.21,2.97-.81,4.19-1.6,3.17-2.04,6.87-6.4,10.9-3.83,1.74,1.06,3.29,2.66,5.03,3.72,4.51,2.36,9.06,5.27,14.25,5.66,2.19.26,4.5.16,6.71.1,2.2-.07,4.52.02,6.71-.3,2.82-.37,5.54-1.63,8.38-1.89,2.21,0,4.52-.12,6.71-.5,2.47-.41,5.13-.93,7.55,0,4.64,1.34,9.4,2.49,14.25,2.68,3.61.12,7.3.16,10.9-.08,1.92-.18,3.94-.63,5.87-.76"/><path class="b" d="M11.74,50.16c3.11,1.69,6.59,2.57,10.06,3.14,2.23.39,4.42,1.5,6.71,1.56,3.76-.04,7.1-2.69,10.9-2.52,1.92.09,3.96.24,5.87-.04,2.19-.3,4.56-1.12,6.71-.18,1.91.74,3.84,1.77,5.87,2.13,1.62.33,3.39.18,5.03.24,2.51.26,5.3.82,7.55-.69,1.08-.66,2.26-1.62,3.35-2.25,1.52-.8,3.38-.91,5.03-1.29,1.48-.34,3-1.13,4.19-2.07,6.64-5.98,7.5-7.72,14.25-.45,1.43,1.38,3.33,2.39,5.03,3.38,1.6.92,3.32,1.93,5.03,2.64,2.62,1.12,5.59,1.12,8.38,1.07,3.89-.13,7.85.18,11.74-.14,2.82-.24,5.54-1.55,8.38-1.6,3.36.13,6.73-.61,10.06-.96,1.65-.16,3.41.28,5.03.52,5.28.84,10.57,2.02,15.93,2.15,2.2.04,4.51.02,6.71-.16,2.2-.2,4.49-.65,6.71-.66"/><path class="b" d="M11.74,48.43c2.8,1.69,6.06,2.46,9.22,3.12,1.91.38,3.9,1.1,5.87,1.09,3.27-.21,5.44-3.21,8.38-4.29,2.49-1.29,5.05-.11,7.55.46,1.9.42,3.94.34,5.87.27,3.24-.08,6.07,2.05,9.22,2.54,1.62.34,3.4.14,5.03.26,1.92.2,3.92.98,5.87.69,2.21-.35,3.91-2.13,5.87-3.05,1.86-.83,4.02-1.14,5.87-1.98,6.11-2.7,8.21-10.54,15.09-3.41,1.92,2,4.4,3.48,6.71,4.97,2.73,1.87,5.81,3.6,9.22,3.53,5.58.06,11.19-.08,16.77,0,2.52-.06,5.04-.84,7.55-1.04,5.59-.09,11.17-1.3,16.77-.84,5.02.48,10.04,1.52,15.09,1.65,4.18.17,8.4-.42,12.58-.28"/><path class="b" d="M11.74,47.21c2.06,1.11,4.45,1.65,6.71,2.18,1.9.42,3.91.95,5.87,1.05,3.28.25,5.42-2.7,7.55-4.73,2.37-2.43,5.4-2.99,8.38-1.35,1.58.73,3.32,1.42,5.03,1.73,1.93.35,4.03.43,5.87,1.15,2.16.81,4.4,1.77,6.71,2.11,2.48.35,5.1.03,7.55.64,3.98,1,5.76.23,9.22-1.61,2.75-1.23,5.8-1.98,8.38-3.56,4.52-2.81,6.99-6.52,12.58-2.99,2.9,1.69,5.83,3.45,8.38,5.65,1.91,1.51,4.23,2.75,6.71,2.87,3.89.24,7.84-.17,11.74-.23,2.49-.02,5.06.31,7.55.33,2.21.03,4.51-.26,6.71-.47,2.76-.23,5.62-.23,8.38-.45,1.93-.13,3.94-.59,5.87-.77,3.07-.31,6.18.33,9.22.58,6.72.4,13.37,1.04,20.12.99"/><path class="b" d="M11.74,46.48c2.39.89,5.04,1.12,7.55,1.52,3.82.64,6.77,0,9.22-3.12,1.69-1.84,3.25-4.51,5.87-5.06,3.65-.33,6.61,2.53,10.06,3.27,2.24.58,4.64.99,6.71,2.09,3.09,1.62,6.55,2.59,10.06,2.49,3.06-.05,6.16.54,9.22.52,2-.1,4-.89,5.87-1.56,2.23-.83,4.56-1.72,6.71-2.76,4.27-2.1,8.29-5.93,13.41-5.06,4.81.36,7.16,5.19,10.9,7.55,4.29,2.77,9.54.45,14.25,1.06,4.16.38,8.4.65,12.58.77,3.61-.08,7.29-.22,10.9-.32,1.96-.04,3.96-.63,5.87-1.02,1.61-.3,3.4-.35,5.03-.23,3.32.45,6.74.14,10.06.43,1.93.27,3.93.81,5.87.98,2.76.23,5.62.12,8.38.14"/><path class="b" d="M11.74,45.65c1.9.31,3.94.33,5.87.36,2.28.05,4.69-.25,6.71-1.37,2.45-1.33,3.99-3.96,5.87-5.92,3.57-4.13,7.08-.4,10.9,1.11,2.66,1.22,5.74,1.4,8.38,2.63,4.14,2.37,6.87,3.54,11.74,3.43,2.2.04,4.5-.06,6.71.02,2.78.16,5.68.17,8.38-.61,3.77-1.09,7.55-2.57,10.9-4.62,3.08-1.85,5.9-4.34,9.22-5.76,2.97-1.31,4.84.33,6.71,2.51,1.78,2.03,3.52,4.41,5.87,5.82,1.74,1.11,3.92.92,5.87.65,1.63-.19,3.42-.13,5.03.25,1.63.37,3.36.92,5.03,1.06,2.48.2,5.07.08,7.55.32,3.04.43,6.16.56,9.22.46,3.09.05,6.25-.05,9.22-.98,2.99-.8,6.17-.48,9.22-.4,1.63-.03,3.4-.18,5.03,0,1.37.19,2.85.7,4.19,1.03,3.57.94,7.29-.33,10.9,0"/><path class="b" d="M11.74,43.7c3.92-.5,8.12-.29,11.74-2.12,3.81-1.41,5.78-6.86,10.06-6.68,2.74.51,4.99,2.52,7.55,3.52,2.38,1.05,5.09,1.28,7.55,2.09,1.7.62,3.35,1.7,5.03,2.36,3.72,1.44,7.85.8,11.74.93,3.33-.09,6.74.18,10.06-.22,4.75-.7,9.48-2.43,13.41-5.22,3.56-2.37,6.17-6.2,10.06-8.06,3.83-1.06,7.31,6.84,10.9,8.51,1.5.89,3.38.57,5.03.48,2.69-.2,5.18,1.14,7.55,2.22,2.88,1.27,6.17.93,9.22,1.27,2.5.25,5.01,1.05,7.55.97,3.05-.02,6.19.22,9.22-.17,1.64-.31,3.38-.82,5.03-1.06,1.9-.28,3.95-.19,5.87-.1,1.92.09,3.96-.09,5.87.16,1.94.31,3.89,1.17,5.87,1.21,3.1.09,6.12-1.4,9.22-1.04"/><path class="b" d="M11.74,40.17c3.68-1.72,7.88-.96,11.74-1.88,3.2-.67,5.81-3.51,9.22-3.32,3.26.2,6.07,2.26,9.22,2.91,2.17.53,4.53.53,6.71,1.02,1.98.51,3.91,1.55,5.87,2.11,2.7.85,5.61.46,8.38.48,4.17.06,8.41.2,12.58-.1,3.96-.49,8.04-1.27,11.74-2.82,9.49-4.03,10.6-17.53,17.61-9.72,2.31,2.29,4.63,6.1,8.38,5.39,1.35-.17,2.9-.21,4.19.27,2.45.92,4.35,3.02,6.71,4.1,2.09.93,4.47,1.29,6.71,1.69,1.93.31,3.94.81,5.87,1.1,3.6.19,7.29.25,10.9.08,3.04-.47,6.12-1.36,9.22-.91,2.76.37,5.61.37,8.38.34,2.21.11,4.48.84,6.71.62,2.85-.14,5.5-1.82,8.38-1.65"/><path class="b" d="M11.74,36.55c4.33-2.98,7.06-1.87,11.74-1.03,2.77.21,5.61-.37,8.38-.07,3.69.11,7.26,1.32,10.9,1.78,1.91.21,3.95.16,5.87.35,1.95.22,3.96.76,5.87,1.22,3,.86,6.16.44,9.22.43,3.89.04,7.85.16,11.74-.14,2.49-.24,5.05-.66,7.55-.83,5.94-.23,9.54-2.48,12.58-7.55,1.7-2.24,3.31-7.16,6.71-6.72,3.09,1.05,4.76,4.4,7.55,5.96,3.27,1.6,5.34-1.74,9.22,1.22,1.43,1.08,2.8,2.55,4.19,3.67,2.43,1.89,5.37,3.19,8.38,3.81,4.38,1.02,8.95.68,13.41.68,2.53.04,5.03-.85,7.55-.94,2.79-.05,5.59.81,8.38.84,1.92.07,3.95-.13,5.87-.06,1.63.06,3.4.28,5.03.15,2.94-.09,5.48-2.11,8.38-2.32"/><path class="b" d="M11.74,34.46c6.95-4.98,7.27-2.33,14.25-.49,2.18.56,4.47,1.1,6.71,1.3,2.49.14,5.08.07,7.55.55,4.14.71,8.4.33,12.58.56,2.77.23,5.58.95,8.38.75,4.45-.18,8.96,0,13.41-.28,2.2-.17,4.49-.53,6.71-.48,2.49.08,5.09.25,7.55-.31,8.03-1.1,8.88-16.21,15.09-12.92,2.08,1.22,3.69,3.35,5.87,4.41,4.57,1.47,5.5-4.65,11.74,2.49,3.06,3.45,6.92,6.76,11.74,7.01,2.76.22,5.62,0,8.38.07,3.08.1,6.19-.29,9.22-.72,2.51-.22,5.05.54,7.55.71,4.45.03,8.97.19,13.41-.09,3.09-.22,5.45-2.68,8.38-3.36"/><path class="b" d="M11.74,33.3c1.41-.69,2.82-1.71,4.19-2.47,2.13-1.3,4.59-.97,6.71.15,1.6.74,3.37,1.4,5.03,1.99,1.86.63,3.91,1.02,5.87,1.07,2.5-.05,5.07-.12,7.55.32,4.16.6,8.4.25,12.58.01,2.22-.04,4.5.46,6.71.56,4.17.03,8.4,0,12.58-.13,1.93-.06,3.95-.36,5.87-.49,1.92-.12,3.95.11,5.87.22,2.51.04,5.28.06,7.55-1.16,5.3-2.62,6.57-15.38,13.41-10.16,1.53,1.05,3.11,2.56,5.03,2.77,1.51-.03,2.84-1.17,4.19-1.7,3.28-1.44,5.68,2.09,7.55,4.24,4.34,5.1,7.41,6.96,14.25,6.35,4.74,0,9.53.16,14.25-.34,1.93-.09,3.95.22,5.87.37,1.63.12,3.4-.05,5.03-.09,3.33,0,6.78.38,10.06-.39,3.26-.59,5.37-3.61,8.38-4.73"/><path class="b" d="M11.74,32.1c1.75-.47,3.41-1.52,5.03-2.31,3.95-2.16,7.91.94,11.74,1.9,4.09,1.23,8.4.28,12.58.76,4.46.45,8.96.03,13.41-.23,2.21-.01,4.5.42,6.71.48,3.89.06,7.84.02,11.74.03,3.94-.09,7.77-.76,11.74-.34,2.5.03,5.21.1,7.55-.93,5.69-2.57,6.43-13.21,14.25-8.35,5.65,3.21,5.4-.44,10.06-.59,2.98.59,4.65,3.67,6.71,5.63,4.25,4.51,8.37,4.87,14.25,4.47,4.74.11,9.52.1,14.25,0,3.33.13,6.73.13,10.06-.09,3.07-.01,6.31.23,9.22-.94,1.43-.56,3.02-1.27,4.19-2.29,1.58-1.3,3.09-3.06,5.03-3.83"/><path class="b" d="M11.74,30.46c2.35-.11,4.49-1.34,6.71-1.99,3.15-.87,6.22.86,9.22,1.58,2.44.59,5.05.46,7.55.46,3.89-.12,7.84-.06,11.74-.1,2.49-.03,5.05-.42,7.55-.41,4.18.14,8.39.61,12.58.26,2.77-.17,5.62.12,8.38.25,2.49.04,5.05-.39,7.55-.33,7.48.23,9.83,0,15.09-5.58,3.27-3.17,7.03-1.29,10.9-1.02,3.46.15,5.74-2.76,9.22-.49,1.79,1.14,3.36,2.85,5.03,4.15,1.46,1.11,3.27,1.98,5.03,2.48,3.25.95,6.72.81,10.06.68,3.33,0,6.73.13,10.06.1,3.9.05,7.85-.05,11.74-.25,2.49-.09,5.11.15,7.55-.46,1.43-.37,2.91-1.14,4.19-1.86,1.08-.54,2.42-1.11,3.35-1.91,1.58-1.25,3.1-2.94,5.03-3.65"/><path class="b" d="M11.74,28.29c2.84.28,5.57-1,8.38-1.02,2.23.06,4.49.73,6.71.97,1.35.14,2.85.01,4.19-.12,2.49-.29,5.06.13,7.55.18,4.18-.02,8.41-.12,12.58-.49,4.73-.4,9.55.26,14.25-.5,1.62-.24,3.4-.39,5.03-.19,1.94.23,3.93.84,5.87,1.1,1.92.23,3.95-.11,5.87-.27,1.63-.14,3.4-.09,5.03-.14,2.3-.08,4.67-.65,6.71-1.72,2.1-1.11,4.23-2.62,6.71-2.53,3.06.01,6.23.15,9.22-.65,4.37-1.25,6.11-1.44,10.06,1.18,1.3.84,2.76,1.79,4.19,2.4,1.84.72,3.92,1.08,5.87,1.4,3.31.65,6.72.3,10.06.27,4.17.12,8.41.31,12.58-.12,1.91-.2,3.94-.41,5.87-.38,2.48.04,5.07.39,7.55.06,2.99-.42,5.5-2.42,8.38-3.2,1.95-.92,3.72-2.56,5.87-3.03"/><path class="b" d="M11.74,25.96c2.21.3,4.5-.04,6.71-.16,1.64-.06,3.4.16,5.03.26,1.35.07,2.86.05,4.19-.2,1.63-.31,3.36-.81,5.03-.76,1.95.1,3.93.74,5.87.9,2.2.22,4.51-.04,6.71-.14,5.32-.25,10.69-.59,15.93-1.61,3.57-.55,6.48-1.9,10.06-.28,5.15,2.12,6.2,2.72,11.74,1.34,1.62-.32,3.4-.21,5.03-.35,1.37-.14,2.87-.49,4.19-.86,6.62-2.29,6.76-.1,12.58-.48,4.43-.53,8.02-3.33,12.58-1.27,3.22,1.36,6.52,2.8,10.06,3.01,1.92.24,3.94.61,5.87.72,1.92.1,3.95-.19,5.87-.19,2.77.05,5.63.42,8.38-.03,2.54-.14,5.03-1.09,7.55-1.41,3.38-.32,6.68,1.21,10.06,1.06,2.61.03,5.05-1.22,7.55-1.75,2.59-.09,4.96-1.64,7.55-1.74"/><path class="b" d="M11.74,23.63c2.19.37,4.5.21,6.71.2,2.21.04,4.51.13,6.71-.13,2.77-.35,5.56-1.65,8.38-.92,1.62.39,3.36.89,5.03,1.03,1.92.17,3.95-.02,5.87-.08,3.06-.05,6.2-.11,9.22-.63,2.33-.37,4.57-1.4,6.71-2.35,1.59-.56,3.36-1.09,5.03-1.35,2.46-.33,4.7,1.1,6.71,2.33,2.53,1.45,5.5,2.96,8.38,1.57,2.1-.93,4.37-1.78,6.71-1.54,2.21-.03,4.5-.44,6.71-.46,1.98-.05,4.01.48,5.87,1.12,1.59.46,3.38.64,5.03.54,3.67-.19,7.17-2.31,10.9-1.61,2.51.42,5.02,1.3,7.55,1.67,3.05.32,6.17.6,9.22.86,1.92.09,3.95-.27,5.87-.26,1.63.02,3.39.31,5.03.27,2.26-.16,4.51-1.03,6.71-1.55,1.59-.53,3.32-1.22,5.03-1.21,3.17.17,6.03,2.08,9.22,2.26,2.5.28,5.08-.21,7.55-.57,2.79.02,5.6-.79,8.38-.71"/><path class="b" d="M11.74,21.34c4.14.54,8.41.38,12.58.17,2.22-.1,4.48-.73,6.71-.79,2.24-.05,4.49.68,6.71.85,2.76.24,5.61-.05,8.38,0,3.06-.02,6.27,0,9.22-.9,1.76-.55,3.44-1.63,5.03-2.54,1.79-.83,3.87-1.57,5.87-1.48,3.48.48,5.94,3.53,9.22,4.6,3.85,1.83,6.49-2.8,10.06-3.23,1.35-.03,2.85.16,4.19.24,3.18.2,6.3,1.18,9.22,2.39,2.1.8,4.48.92,6.71.85,3.08-.02,6.14-1.11,9.22-.94,3.61.35,7.25,1.03,10.9.94,2.77.02,5.62.35,8.38.04,1.34-.16,2.85-.33,4.19-.22,1.91.18,3.97.61,5.87.12,1.38-.35,2.8-1.11,4.19-1.4,7.91-2.14,8.01.2,15.09,1.36,5.56.55,11.2-.22,16.77-.08"/><path class="b" d="M11.74,19.17c6.69.6,13.43.09,20.12-.15,2.49,0,5.05.36,7.55.43,3.89,0,7.84-.09,11.74-.15,1.95-.05,4.02-.21,5.87-.87,3.2-1.31,6.44-3.55,10.06-3.14,3.03.62,5.44,2.94,8.38,3.83,3.77,1.58,6.1-2.83,9.22-4,1.04-.36,2.3-.12,3.35.05,2.28.36,4.59,1.06,6.71,1.99,2.14.9,4.34,2.14,6.71,2.26,3.89.07,7.85.08,11.74-.15,5.85.17,11.75.27,17.61.16,2.21-.02,4.49-.62,6.71-.48,1.92.17,3.93.7,5.87.45,1.37-.17,2.84-.68,4.19-.95,1.33-.18,2.85-.23,4.19-.25,3.65-.03,7.27.91,10.9,1.18,5.85.21,11.75.03,17.61.09"/><path class="b" d="M11.74,17.12c7.82.13,15.66.05,23.48-.07,6.14.28,12.31.1,18.44.14,1.95,0,4.01-.2,5.87-.82,2.7-.78,5.53-2,8.38-1.73,3.63.46,7.16,3.53,10.9,2.26,1.75-.73,3.29-2.15,5.03-2.91,1.58-.72,3.41-.26,5.03.02,3.48.53,6.66,2.31,10.06,3.12,2.21.41,4.49-.39,6.71-.41,2.21-.01,4.49.47,6.71.49,3.06.11,6.17-.21,9.22-.31,2.49-.02,5.06.3,7.55.24,2.22.02,4.51-.35,6.71-.54,2.22-.1,4.49.57,6.71.64,2.2.08,4.5-.27,6.71-.19,6.7.17,13.43.27,20.12.06,3.61-.02,7.29.15,10.9.04"/><path class="b" d="M11.74,15.02c8.1-.23,16.22.14,24.31-.13,6.42.09,12.87.21,19.28.1,1.92.07,3.96.1,5.87-.23,1.93-.23,3.92-.79,5.87-.89,2.25-.12,4.5.6,6.71.92,7.43,1.28,6.93-3.48,15.93-1.45,3.86.52,7.93,2.81,11.74.92,1.81-.82,3.85-1.64,5.87-1.27,1.93.34,3.9,1.1,5.87,1.22,2.21.13,4.5-.21,6.71-.21,3.64,0,7.25,1.08,10.9.84,1.92-.03,3.94-.38,5.87-.36,3.61.24,7.27.65,10.9.53,2.49,0,5.06-.22,7.55-.19,3.33.12,6.73.19,10.06-.05,5.02-.25,10.07.32,15.09.18"/><path class="b" d="M11.74,12.8c4.18.06,8.4-.13,12.58-.07,5.02.06,10.07.12,15.09-.04,3.05,0,6.17.08,9.22-.08,1.93-.08,3.94-.51,5.87-.46,1.94.06,3.93.62,5.87.67,2.5.07,5.05-.42,7.55-.36,2.49.09,5.05.48,7.55.34,1.97-.08,3.96-.71,5.87-1.12,3.32-.69,6.77.05,10.06.58,3.19.65,6.56,1.14,9.22-1.18,1.91-1.46,4.11-3.47,6.71-2.81,2.24.64,4.36,2,6.71,2.31,3.93.38,7.88.98,11.74,1.8,3.31.55,6.74.26,10.06.01,1.92-.08,3.95.12,5.87.18,3.63.17,7.3-.16,10.9-.6,2.21-.21,4.51.12,6.71.28,2.77.15,5.61-.37,8.38-.2,4.18.25,8.38.87,12.58.76"/></svg>