<?xml version="1.0" encoding="UTF-8"?><svg id="a" xmlns="http://www.w3.org/2000/svg" width="1920" height="2400" viewBox="0 0 192 240"><defs><style>.b{fill:none;stroke:#fff;stroke-miterlimit:10;stroke-width:.3px;}.c{stroke-width:0px;}</style></defs><rect class="c" width="192" height="240"/><path class="b" d="M8,211.01c5.46,1.35,8.98,11.93,11.38,16.67,1.64.51,3.55.15,5.25.25,2.6,0,5.28,0,7.88,0,2.89,0,5.86,0,8.76,0,1.71-.06,3.58.06,5.25-.37,6.44-1.6,9.99-12.18,14.89-12.77,1,.09,1.95,1.04,2.63,1.71.95.77,2.3,1.32,3.5,1.52,5.19.47,8.01,1.65,11.38,5.75,1.15,1.25,2.12,3.14,3.5,4.15h12.26c1.98-1.22,3.22-3.76,5.25-5.05,3.23-2.17,5.78,2.05,10.51-2.11,4.76-4.68,6.87-11.41,10.51-16.89,4.41-5.2,8.51-15.32,14.01-4.54,4.42,9.32,7.23,19.53,12.26,28.58h35.02c.67-.27,1.44-1.45,1.75-2.06"/><path class="b" d="M8,209.46c5.45,1.43,8.98,12.1,11.38,16.87l.88.59c4.95,0,9.94,0,14.89,0,3.48-.06,7.07.2,10.51-.4,8.14-1.65,12.74-20.32,18.39-13.34,1.94,1.64,4.65,1.75,7.01,2.34,3.74.93,6.52,3.96,8.76,6.93,1.12,1.37,2.12,3.33,3.5,4.47h10.51c2.93-2.15,5.28-8.08,9.63-6.72,6.75,2.1,10.39-5.22,13.13-10.07,1.99-3.85,4.21-7.78,7.01-11.11,1.89-2.31,4.25-7.25,7.88-5.64,4.18,3.13,5.88,10.1,7.88,14.8,1.53,4.18,3.4,8.62,5.25,12.67,1.03,1.9,1.85,4.62,3.5,6.07,7.29,0,14.6,0,21.89,0,2.89,0,5.87,0,8.76,0,.8,0,1.88.07,2.63-.27.99-.82,1.97-2.29,2.63-3.39"/><path class="b" d="M8,208c4.49,1.32,6.73,7.29,8.76,11.11,1.14,2.09,1.88,5.04,3.5,6.81,4.95,0,9.94,0,14.89,0,3.49,0,7.1.15,10.51-.71,8.05-2.23,12.73-21.85,18.39-14.93,1.95,1.62,4.66,1.76,7.01,2.42,6.29,1.84,9.21,8.38,13.13,13.04,2.55.44,5.29.08,7.88.19,1.08-.06,1.91-1.3,2.63-1.99,1.9-1.97,3.63-4.51,6.13-5.75,1.68-.61,3.53.43,5.25.37,4.13.04,6.76-3.89,8.76-7.01,2.79-4.65,5.18-9.74,8.76-13.86,1.71-2.17,3.27-5.26,6.13-6.02,5.12-.4,8.68,13.33,10.51,17.31,2.27,5.72,4.71,11.66,7.88,16.95,6.99,0,14.02,0,21.01,0,2.89,0,5.86,0,8.76,0,.96,0,1.79-.99,2.63-1.34,1.56-.62,2.63-2.41,3.5-3.75"/><path class="b" d="M8,206.65c6.07,1.77,9.14,13.2,12.26,18.26,4.65,0,9.36,0,14.01,0,2.59-.11,5.35.31,7.88-.36,1.44-.23,3.08-.42,4.38-1.13,6.15-2.75,11.17-18.32,15.76-17.01.87.47,1.77,1.45,2.63,1.94,1.58.88,3.52,1.11,5.25,1.49,4.64.88,7.86,4.75,10.51,8.37,1.58,2.09,3.05,4.64,5.25,6.13.96.73,2.37.55,3.5.57,2.52-.09,4.4-2.54,6.13-4.14,1.79-1.73,3.56-4.15,6.13-4.68.79,0,1.85.24,2.63.39,7.77,1.7,11.47-8.81,14.89-14.05,1.4-2.57,3.59-4.87,5.25-7.25,2.85-4.05,6.04-7.43,9.63-1.73,2.64,4.31,4.3,9.46,6.13,14.14,2.27,5.7,4.7,11.63,7.88,16.9,1.26.77,2.97.3,4.38.42,2,0,4.13,0,6.13,0,6.12,0,12.27,0,18.39,0,1.17-.75,2.21-2.1,3.5-2.67,1.53-.63,2.62-2.36,3.5-3.68"/><path class="b" d="M8,205.42c5.78,1.51,9.62,13.3,12.26,18.37,4.34.27,8.78.03,13.13.11,2.3-.01,4.7.03,7.01-.02,1.66-.67,3.61-.79,5.25-1.48,7.04-2.99,10.4-16.16,15.76-18.08,1.39-.13,2.36,1.32,3.5,1.88,1.31.67,2.94.92,4.38,1.13,13.1,1.09,13.7,23.61,26.27,11.27,1.59-1.44,3.24-3.21,5.25-4.05,1.08-.41,2.41-.05,3.5.14,2.51.54,5.18-.26,7-2.07,4.11-4.02,6.31-9.63,9.63-14.23,4.46-4.78,8.52-15,14.01-4.62,3.41,6.69,5.55,14.18,8.76,20.97.71,1.64,1.8,3.87,2.63,5.46.65,1.13,1.42,3.05,2.63,3.71h27.14c1.23-.88,2.25-2.4,3.5-3.26.43-.26,1.31-.76,1.75-.99.96-.77,1.96-2.12,2.63-3.14"/><path class="b" d="M8,204.32c5.8,1.47,9.61,12.93,12.26,17.97l.88.59c4.36,0,8.77,0,13.13,0,2-.07,4.15.16,6.13-.14,1.96-.86,4.29-1.09,6.13-2.25,6.3-3.64,9.88-15.9,14.89-17.78,1.36-.19,2.36,1.19,3.5,1.69,1.33.6,2.94.76,4.38.89,12.91.35,13.75,21.78,26.27,11.17,1.62-1.27,3.3-2.85,5.25-3.59,1.08-.37,2.41-.06,3.5.1,2.1.37,4.41-.04,6.13-1.36,4.7-3.77,6.95-9.77,10.51-14.49,4.54-4.73,8.54-14.69,14.01-4.39,3.41,6.67,5.56,14.14,8.76,20.91.71,1.64,1.8,3.88,2.63,5.47.65,1.15,1.45,3.05,2.63,3.76,8.45,0,16.94,0,25.39,0,1.14.21,2.05-.58,2.63-1.48.4-.49,1.29-1.45,1.75-1.89.68-.66,1.8-1.32,2.63-1.76.94-.76,1.95-2.08,2.63-3.07"/><path class="b" d="M8,203.36c4.88,1.29,7.42,7.88,9.63,11.97,1.12,2.02,1.92,4.84,3.5,6.55,4.36,0,8.77,0,13.13,0,1.71,0,3.55,0,5.25,0,1.74-.48,3.53-1.32,5.25-1.88,4.95-2.14,7.69-7.26,10.51-11.56,1.71-2.43,3.22-5.77,6.13-6.93.94-.18,1.93.5,2.63,1.05,1.28.76,2.92.98,4.38,1.01,14.29-.99,14.24,20.63,28.02,10.25,6.48-4.97,6.41-1.09,12.26-2.89,5.97-2.96,8.26-10.03,12.26-14.96,4.65-4.69,8.56-14.32,14.01-4.11,3.4,6.66,5.57,14.1,8.76,20.86.72,1.65,1.81,3.9,2.63,5.5.65,1.11,1.38,3.08,2.63,3.66h26.27c1.46-1.45,2.73-3.42,4.38-4.69,1.76-.91,3.31-2.42,4.38-4.09"/><path class="b" d="M8,202.54c6.49,1.61,9.71,13.2,13.13,18.32,4.65,0,9.36,0,14.01,0,1.41,0,2.97,0,4.38,0,1.76-.52,3.52-1.53,5.25-2.17,4.81-2.19,7.68-7.03,10.51-11.26,1.73-2.39,3.28-5.62,6.13-6.81.91-.21,1.92.38,2.63.89,1.31.67,2.94.76,4.38.68,14-2.05,14.37,18.2,28.02,9.71,2.6-1.57,4.73-2.78,7.88-2.16,6.36.94,10.1-5.34,13.13-9.9,1.7-2.82,3.89-5.5,6.13-7.9,1.99-2.2,4.35-6.66,7.88-5.08,3.81,2.79,5.18,8.02,7.01,12.17,2.81,7.27,5.69,14.78,9.63,21.52,1.03.52,2.39.27,3.5.32,2,0,4.13,0,6.13,0,5.82,0,11.69,0,17.51,0,1.29-1.7,2.73-3.63,4.38-5,1.73-.95,3.29-2.45,4.38-4.1"/><path class="b" d="M8,201.85c6.38,1.47,9.96,12.78,13.13,18,4.95,0,9.94,0,14.89,0,1.41-.06,3,.16,4.38-.18,1.65-.97,3.57-1.75,5.25-2.66,4.19-2.31,6.97-6.49,9.63-10.33,1.75-2.32,3.34-5.41,6.13-6.6.88-.24,1.9.26,2.63.71,1.34.58,2.96.52,4.38.34,14.12-3.06,14.41,16.39,28.9,8.5,1.35-.64,2.88-1.37,4.38-1.56,1.1-.07,2.41.1,3.5.11,6.42.18,9.85-6.36,13.13-10.89,1.66-2.68,4.15-4.9,6.13-7.31,1.84-2.29,4.89-5.98,7.88-3.17,3.54,3.73,5.07,9.14,7,13.8,2.58,6.48,5.21,13.23,8.76,19.25,9.04,0,18.11,0,27.14,0,1.29-1.71,2.74-3.66,4.38-5.06,1.69-1,3.27-2.48,4.38-4.11"/><path class="b" d="M8,201.29c6.27,1.28,10.15,12.39,13.13,17.55,5.82,0,11.69,0,17.51,0,.46,0,1.3,0,1.75-.04.45-.28,1.29-.79,1.75-1.05,1.4-.79,3.01-1.57,4.38-2.42,3.63-2.23,6.28-5.8,8.76-9.19,1.77-2.24,3.42-5.16,6.13-6.35.85-.26,1.88.14,2.63.54,1.37.47,2.99.28,4.38,0,6.2-1.65,9.52.35,14.01,4.44,5.29,4.82,9.14,5.77,15.76,2.79,1.06-.42,2.36-.86,3.5-1.01,1.4-.11,2.98.08,4.38-.03,6.86-.68,10.01-7.99,14.01-12.66,1.31-1.59,3.11-3.04,4.38-4.66,1.87-2.27,4.95-5.78,7.88-2.97,3.53,3.73,5.06,9.12,7,13.77,1.56,4.12,3.47,8.48,5.25,12.5,1,2.01,1.95,4.69,3.5,6.36h27.14c1.47-1.5,2.76-3.51,4.38-4.87,1.66-1.05,3.25-2.52,4.38-4.14"/><path class="b" d="M8,200.85c6.34,1.27,10.1,11.83,13.13,16.99,6.41,0,12.85,0,19.26,0,1.49-.64,2.93-1.78,4.38-2.52,2.57-1.36,5.04-3.15,7-5.31,1.83-1.97,3.56-4.3,5.25-6.38,1.54-1.69,3.49-4.6,6.13-3.85,1.93.93,4.18.29,6.13-.26,12.84-4.11,14.23,12.24,28.9,6.37,2.21-.87,4.65-1.07,7-.99,5.53.06,9.2-4.76,12.26-8.74,1.72-2.45,3.96-4.66,6.13-6.71,2.03-2.06,4.54-6.11,7.88-4.4,3.76,2.84,5.17,7.99,7,12.14,2.63,6.75,5.44,13.67,8.76,20.11l.88.52c8.75,0,17.52,0,26.27,0,1.13.24,2.07-.73,2.63-1.59.41-.52,1.3-1.53,1.75-2.01.69-.73,1.79-1.56,2.63-2.11.88-.76,1.92-1.97,2.63-2.9"/><path class="b" d="M8,200.5c6.57,1.36,9.84,11.17,13.13,16.32,6.41,0,12.85,0,19.26,0,.59.05,1.34-.34,1.75-.72.77-.53,1.82-1.22,2.63-1.69,2.11-1.18,4.33-2.48,6.13-4.11,1.87-1.67,3.63-3.74,5.25-5.66,1.85-1.91,3.96-5.35,7-4.83,2.01.75,4.21-.07,6.13-.71,12.87-4.81,14.08,10.48,29.77,4.87,2.23-.76,4.68-.69,7-.82,5.98-.48,9.51-6.06,13.13-10.17,1.51-1.86,3.7-3.31,5.25-5.13,1.97-2.23,5.01-5.37,7.88-2.58,3.5,3.72,5.06,9.06,7,13.68,2.39,5.97,4.94,12.15,7.88,17.87h28.9c1.12-1.17,2.29-2.72,3.5-3.8,1.61-1.14,3.21-2.62,4.38-4.22"/><path class="b" d="M8,200.23c6.73,1.35,9.51,10.66,13.13,15.58,6.7,0,13.44,0,20.14,0,1.24-.42,2.36-1.55,3.5-2.17,2.39-1.35,4.95-2.68,7-4.52,1.84-1.6,3.6-3.56,5.25-5.34,1.65-1.61,3.56-4.09,6.13-3.79,2.4.62,4.79-.69,7.01-1.45,8.03-3.41,12.73,3.64,20.14,4.78,3.24.54,6.52-.42,9.63-1.24,2.54-.74,5.31-.38,7.88-.95,6.56-1.6,9.64-8.48,14.89-12.11,1.72-1.53,3.25-3.58,5.25-4.76,4.67-2.27,7.11,4.64,8.76,7.83,2.32,5.51,4.54,11.35,7.01,16.81,1.03,2.18,1.96,5.05,3.5,6.93,6.41,0,12.85,0,19.26,0,3.47-.09,7.05.2,10.51-.13,1.97-2.69,5.06-4.42,7-7.13"/><path class="b" d="M8,200.02c4.7.87,7.31,5.63,9.63,9.36,1.14,1.65,1.87,4.21,3.5,5.43h21.02c2.98-2.3,6.64-3.63,9.63-5.92,3.43-2.48,5.89-6.33,9.63-8.37,1.06-.51,2.39-.14,3.5-.29,1.48-.25,3.01-.93,4.38-1.51,6.88-3.23,10.32-.29,16.64,2,7.67,2.78,11.35-.6,18.39-1.04,6.24.14,9.95-3.38,14.01-7.59,1.28-1.32,2.85-2.66,4.38-3.67,1.45-1.23,2.85-2.87,4.38-4.02,6.37-4.84,10.31,9.55,12.26,13.63,1.29,3.35,2.96,7.02,4.38,10.32.4.98,1.32,2.98,1.75,3.95,0,0,.88,1.86.88,1.86l.88.63c6.41,0,12.85,0,19.26,0,2.3,0,4.7,0,7,0,1.4-.07,3.02.2,4.38-.23,1.86-2.17,4.46-3.8,6.13-6.15"/><path class="b" d="M8,199.83c6.17,1.29,9.28,8.9,12.26,13.81,2.57.36,5.29.06,7.88.15,4.95,0,9.94,0,14.89,0,2.58-2.17,6.02-3.08,8.76-5.02,3.48-2.25,6.02-5.86,9.63-7.89,1.04-.54,2.39-.32,3.5-.54,1.79-.42,3.56-1.35,5.25-2.04,6.02-2.75,10,.09,15.76,1.47,3.44.87,7.11.68,10.51-.29,2.57-.68,5.2-1.64,7.88-1.7,6.18.12,9.69-2.53,14.01-6.56,1.3-1.2,2.87-2.4,4.38-3.32,1.46-1.16,2.86-2.75,4.38-3.85,6.04-4.3,9.47,7.4,11.38,11.36,2.43,6.08,5.14,12.3,7.88,18.24,1.98.32,4.13.07,6.13.15,3.48,0,7.03,0,10.51,0,3.19,0,6.45,0,9.63,0,2-.07,4.15.17,6.13-.15,1.73-1.69,3.81-3.29,5.25-5.26"/><path class="b" d="M8,199.63c6.4,1.4,8.65,8.55,12.26,13.16h23.64c2.4-1.7,5.41-2.46,7.88-4.03,2.88-1.75,5.27-4.31,7.88-6.41.73-.56,1.75-1.22,2.63-1.52,1.11-.21,2.45-.27,3.5-.7,2.59-.98,5.11-2.47,7.88-2.89,3.28-.58,6.48.76,9.63,1.41,3.15.66,6.49.77,9.63.03,3.54-.74,6.9-2.48,10.51-2.86,6.18-.04,9.12-.78,14.01-4.75,1.86-1.63,4.16-2.87,6.13-4.34,2-1.63,4.1-4.48,7-3.85,4.5,1.88,6.79,9.99,8.76,14.21,2.22,5.18,4.42,10.69,7,15.7h33.27c1.57-1.24,3.14-2.83,4.38-4.4"/><path class="b" d="M8,199.38c5.74,1.4,8.54,7.5,11.38,12.12.77.34,1.81.28,2.63.27,1.1,0,2.4,0,3.5,0,3.19,0,6.45,0,9.63,0,2.3,0,4.7,0,7.01,0,.79,0,1.84,0,2.63,0,.84-.15,1.84-.7,2.63-1,2.82-1.03,5.59-2.46,7.88-4.42,2.27-1.8,4.32-4.2,7.01-5.39,4.27-.61,7.9-3.58,12.26-3.8,3.55-.21,6.96,1.43,10.51,1.39,5.93.31,11.12-3.01,16.64-4.59,1.97-.5,4.12-.29,6.13-.34,2.42-.03,4.89-.71,7.01-1.88,1.78-.96,3.55-2.24,5.25-3.33,1.08-.69,2.52-1.28,3.5-2.11,1.84-1.46,3.62-3.69,6.13-3.87,4.9.41,7.75,10.19,9.63,14.1,1.01,2.55,2.39,5.52,3.5,8.03,1.07,2.26,2.01,5.2,3.5,7.22h34.15c1.41-.69,2.48-2.29,3.5-3.43"/><path class="b" d="M8,199.05c5.75,1.38,8.02,7.56,11.38,11.71,9.33,0,18.69,0,28.02,0,5.71-1.75,8.75-5.2,13.13-8.84,1.22-1.03,2.89-1.41,4.38-1.85,2.02-.75,4.05-1.82,6.13-2.41,3.46-1.12,7.07-.1,10.51.58,7.12,1.09,12.99-3.92,19.26-6.31,2.22-.85,4.7-.57,7.01-.4,2.67.21,5.46-.27,7.88-1.42,1.44-.67,2.98-1.56,4.38-2.32,1.1-.6,2.52-1.1,3.5-1.9,1.86-1.42,3.65-3.6,6.13-3.8,4.91.35,7.74,9.92,9.63,13.8,1.31,3.22,3,6.72,4.38,9.9.68,1.48,1.46,3.79,2.63,4.97h35.02c1.03-.46,1.91-1.74,2.63-2.56"/><path class="b" d="M8,198.59c5.13,1.5,7.89,6.75,10.51,11,1.38.32,2.97.11,4.38.17,2.01,0,4.12,0,6.13,0,6.41,0,12.85,0,19.26,0,5.19.48,9.7-6.97,14.01-9.28,4.02-1.27,7.9-3.75,12.26-3.43,5.75.63,8.09,2.78,14.01-.17,5.09-2.24,10.08-8.06,15.76-7.95,4.3.45,8.02,1.52,12.26-.24,1.11-.42,2.42-1.01,3.5-1.5,1.11-.5,2.53-.93,3.5-1.7,1.88-1.38,3.67-3.53,6.13-3.76,5.2.18,8.45,11.39,10.51,15.47,1.06,2.43,2.45,5.28,3.5,7.71.68,1.44,1.43,3.74,2.63,4.85h35.9c.49-.41,1.36-1.35,1.75-1.86"/><path class="b" d="M8,197.94c3.49,1.08,5.91,4.2,7.88,7.11.77,1.1,1.59,2.82,2.63,3.7,11.08,0,22.19,0,33.27,0,3.86-1.79,6.26-5.94,9.63-8.46,1.24-.98,2.96-1.38,4.38-2.02,2.19-.93,4.6-1.76,7.01-1.7,3.3,0,6.36,1.78,9.63,1.89,7.97-.68,12.12-9.26,19.26-11.85,1.99-.63,4.18-.03,6.13.51,2.24.64,4.67,1.14,7.01.86,2.7-.34,5.34-1.42,7.88-2.36,2.11-1.2,3.79-3.36,6.13-4.16,5.37-1.39,8.61,9.11,10.51,12.83,1.31,3.11,3,6.49,4.38,9.58.68,1.46,1.5,3.69,2.63,4.88,8.16,0,16.35,0,24.52,0,2.6,0,5.28,0,7.88,0,1.1,0,2.41,0,3.5,0,.62-.11,1.41-.91,1.75-1.41"/><path class="b" d="M8,197.06c4.58,1.74,7.2,6.42,9.63,10.4.75.35,1.82.28,2.63.27,1.1,0,2.4,0,3.5,0,3.48,0,7.03,0,10.51,0,4.07,0,8.19,0,12.26,0,2.29-.1,4.74.22,7.01-.18,3.11-2.76,5.4-6.52,8.76-9.01,3.24-1.55,6.83-3.21,10.51-2.76,3.59.32,6.84,2.95,10.51,2.45,7.73-1.47,13.6-15.6,21.02-14.59,3.56.72,6.8,2.95,10.51,3.03,2.67.08,5.38-.69,7.88-1.55,1.85-1.02,3.4-2.77,5.25-3.78,5.53-2.79,8.57,6.31,10.51,10,1.33,3.06,2.92,6.45,4.38,9.46,1.06,2.17,2.11,4.93,3.5,6.92,7.87,0,15.77,0,23.64,0,2.6,0,5.28,0,7.88,0,1.7-.1,3.61.25,5.25-.24l.88-1.01"/><path class="b" d="M8,195.98c4.59,1.97,7.02,6.78,9.63,10.75,7.87,0,15.77,0,23.64,0,2.6,0,5.28,0,7.88,0,1.7-.1,3.61.26,5.25-.25,2.67-2.9,4.79-6.52,7.88-9.01,3.39-1.9,7.47-3.54,11.38-2.38,3.45.8,6.84,3.8,10.51,2.45,7.06-2.87,11.54-15,18.39-16.78,3.23-.25,5.94,2.16,8.76,3.38,3.51,1.84,7.71,1.79,11.38.46,4.98-3.18,7.52-7.66,12.26-.75,4.34,7.28,7.21,15.5,11.38,22.87,7.87,0,15.77,0,23.64,0,2.6,0,5.28,0,7.88,0,1.7-.11,3.63.29,5.25-.28l.88-.99"/><path class="b" d="M8,194.74c4.58,2.15,6.76,7.13,9.63,10.98h36.78c1.1-.51,1.9-2.02,2.63-2.93,1.34-1.82,2.79-3.9,4.38-5.51,1.17-1.2,2.88-1.91,4.38-2.57,2.44-1.1,5.31-1.46,7.88-.6,3.43.91,6.82,4.14,10.51,2.67,5.14-2.67,7.89-8.32,11.38-12.7,2.49-3.21,5.98-8.17,10.51-5.32,3.21,1.8,6.02,4.56,9.63,5.59,2.25.63,4.8.48,7-.29,4.94-3.1,7.5-7.73,12.26-.88,2.07,3.15,3.66,6.91,5.25,10.31,1.98,4,4.02,8.28,6.13,12.22,8.16.03,16.35,0,24.52.01,2.6,0,5.28,0,7.88,0,1.1,0,2.41,0,3.5,0,.57-.17,1.4-.93,1.75-1.4"/><path class="b" d="M8,193.38c4.56,2.37,6.64,7.46,9.63,11.32h37.65c3.13-3.96,5.41-9.21,10.51-10.99,8.99-4.49,13.12,5.2,19.26,1.56,4.66-3.27,7.27-8.73,10.51-13.27,2.36-3.28,5.89-9.2,10.51-5.86,2.76,1.81,5.08,4.39,7.88,6.14,2.54,1.67,5.87,2.3,8.76,1.2,4.01-2.35,7.05-7.41,11.38-2.11,2.6,3.35,4.29,7.58,6.13,11.38,1.97,3.9,4.02,8.07,6.13,11.9,11.96.13,23.94,0,35.9.05.47-.37,1.35-1.2,1.75-1.65"/><path class="b" d="M8,191.95c4.51,2.61,6.65,7.74,9.63,11.74h37.65c1.2-.46,1.89-2.23,2.63-3.19,1.27-1.89,2.68-4.04,4.38-5.58,13.13-9.59,16.06,4.21,23.64-1.57,4.16-3.59,6.67-8.77,9.63-13.3,2.29-3.31,5.79-10.14,10.51-6.39,3.13,2.35,5.53,5.69,8.76,7.93,2.46,1.78,6.1,2.62,8.76.8,3.55-2.75,6.68-6.39,10.51-1.57,2.59,3.35,4.27,7.56,6.13,11.33,1.97,3.79,3.98,7.85,6.13,11.53,7.87,0,15.77,0,23.64,0,2.6,0,5.28,0,7.88,0,1.4-.09,3.05.25,4.38-.28.43-.43,1.32-1.28,1.75-1.71"/><path class="b" d="M8,190.48c4.44,2.86,6.77,7.97,9.63,12.21h38.53c3.92-5.94,5.25-9.04,12.26-11.86,8.15-3.14,12.3,7.28,19.26-.6,3.51-3.98,5.95-8.92,8.76-13.38,2.61-3.88,5.66-9.66,10.51-4.7,3,2.87,5.39,6.55,8.76,9.04,2.2,1.68,5.51,2.4,7.88.65,4.51-3.71,7.25-6.41,11.38-.28,2.38,3.67,4.1,8,6.13,11.87,1.76,2.97,3.22,6.47,5.25,9.27h35.02c.78-.71,1.84-1.71,2.63-2.41"/><path class="b" d="M8,188.99c4.36,3.06,6.87,8.15,9.63,12.56,4.63.31,9.36.03,14.01.12,8.16,0,16.35,0,24.52,0,1.47-1.14,2.35-3.3,3.5-4.74,1.33-2,3.16-3.77,5.25-4.94,11.92-8.92,15.01,5.97,23.64-4.36,3.43-4.22,5.87-9.3,8.76-13.88,3.15-4.8,5.72-8.47,10.51-2.65,3.33,3.68,5.85,8.65,10.51,10.82,7.8,3.12,10.09-13.43,18.39,2.28,1.98,3.92,3.88,8.18,6.13,11.96,1.07,1.71,1.91,4.21,3.5,5.51h34.15c1.21-.77,2.39-2.02,3.5-2.91"/><path class="b" d="M8,187.53c2.97,2.09,5.06,5.37,7,8.37.44.7,1.32,2.12,1.75,2.82.31.6,1.04,1.75,1.75,1.95,8.16,0,16.35,0,24.52,0,2.89,0,5.87,0,8.76,0,1.7-.1,3.61.25,5.25-.24,1.55-2.38,3.19-5.01,5.25-6.99,1.95-1.49,4.05-3.04,6.13-4.34,9.49-5.6,13.26,7.01,21.89-5.3,3.21-4.48,5.6-9.66,8.76-14.17,3.77-5.45,6.23-3.56,9.63.92,2.95,3.73,5.31,8.49,9.63,10.81,7.35,3.28,9.78-12.46,17.51.99,1.53,2.76,2.97,5.99,4.38,8.82,1.63,3.05,3.54,6.27,5.25,9.27,1.36.43,2.97.16,4.38.23,2.6,0,5.28,0,7.88,0,7.29,0,14.6,0,21.89,0,1.56-.89,2.93-2.41,4.38-3.47"/><path class="b" d="M8,186.1c4.68,3.43,6.93,9.18,10.51,13.56h38.53c1.48-1.75,2.8-3.97,4.38-5.64,1.54-1.61,3.6-2.86,5.25-4.34,13.63-11.52,14.92,9.88,28.9-15.61,2.01-3.15,3.69-7.17,7-9.16,3.15-.83,5.37,3.5,7.01,5.58,2.73,3.66,5.67,10.01,10.51,10.91,6.53.19,9.02-13.88,17.51,4.25,1.54,3.33,3.29,6.91,5.25,10.01.71,1.21,1.6,3.02,2.63,4.01h33.27c1.83-1.15,3.49-2.82,5.25-4.07"/><path class="b" d="M8,184.73c4.55,3.56,7.15,9.07,10.51,13.65,1.63.56,3.56.16,5.25.27,2.89,0,5.86,0,8.76,0,8.16,0,16.35,0,24.52,0,.6-.23,1.43-1.2,1.75-1.74,1.01-1.33,2.26-2.87,3.5-3.99,3.34-2.39,5.99-5.82,9.63-7.79,3-1.7,6.46-.81,9.63-.2,8.43,1.09,12.67-10.43,16.64-16.16,1.42-1.9,3.29-5.77,6.13-5.05,1.88.83,3.22,2.82,4.38,4.44,1.74,2.57,3.43,5.46,5.25,7.97,10.24,14.49,12.36-9.67,21.01,4.44,1.94,3.31,3.52,7.15,5.25,10.56,1.3,2.43,3.01,5,4.38,7.39,2.57.31,5.29.05,7.88.13,4.95,0,9.94,0,14.89,0,3.47-.1,7.06.22,10.51-.15,2.12-1.34,4.08-3.13,6.13-4.57"/><path class="b" d="M8,183.43c4.87,3.73,7.3,9.78,11.38,14.2,12.83-.09,25.71.18,38.53-.1,1.31-1.64,2.81-3.43,4.38-4.82,1.15-.91,2.5-2,3.5-3.08,2.39-2.46,4.72-5.34,7.88-6.84,2.76-1.37,5.87-.54,8.76-.22,9.03.75,12.82-11.12,17.51-17.01,3.06-4.21,5.06-3.33,7.88.5,2.44,3.42,4.45,7.36,7.01,10.7,9.23,12.39,11.7-10.72,20.14,3.74,2.52,4.37,4.2,9.46,7,13.68.73,1.03,1.44,2.85,2.63,3.45,7.58,0,15.19,0,22.77,0,11.23-.09,7.47,1.21,16.64-5.38"/><path class="b" d="M8,182.23c3.25,2.45,5.49,6.14,7.88,9.37,1.32,1.66,2.55,3.88,4.38,5.03h37.65c1.25-.86,2.36-2.31,3.5-3.3,1.07-.99,2.5-1.98,3.5-3.05,2.35-2.51,4.42-5.49,7-7.78,4.58-4.13,7.82-2.26,13.13-2.27,7.84-.46,11.18-10.93,15.76-16.11,3.22-4.22,5.84-.34,7.88,2.65,2.3,3.52,4.3,7.48,7,10.72,8.03,9.71,10.8-10.19,18.39,1.54,3.54,5.61,5.18,12.57,9.63,17.6,7.87,0,15.77,0,23.64,0,2.3,0,4.7,0,7.01,0,3.58-1.2,6.48-4.06,9.63-6.07"/><path class="b" d="M8,181.11c5.3,3.89,7.75,10.74,13.13,14.5,10.79,0,21.61,0,32.4,0,1.7-.08,3.59.21,5.25-.19.44-.41,1.3-1.19,1.75-1.58,1.75-1.53,3.85-2.96,5.25-4.86,2.98-3.65,5.44-8.18,9.63-10.59,3.83-2.15,8.21.14,12.26-.42,5.09-1.14,7.71-6.43,10.51-10.34,1.44-1.82,3.47-6.03,6.13-5.62,3.9,1.65,6.96,9.39,9.63,12.91,2.32,3.42,5.7,7.34,9.63,3.4,5.4-5.45,7.93-4.09,11.38,2.23,2.69,4.9,4.28,10.71,7.88,15.07,9.33,0,18.69,0,28.02,0,.78,0,1.85,0,2.63,0,.82-.37,1.86-1.03,2.63-1.5,2.7-1.58,5.3-3.52,7.88-5.29"/><path class="b" d="M8,180.1c5.17,3.68,7.68,10.29,13.13,13.62.76.37,1.79.62,2.63.49.47-.15,1.27-.21,1.75-.16,1.66.71,3.49.55,5.25.55,2.3,0,4.7,0,7,0,4.65,0,9.36,0,14.01,0,1.71,0,3.55,0,5.25,0,.85.01,1.93.11,2.63-.48,2.15-1.64,4.58-3.23,6.13-5.51,3.48-4.48,5.97-10.55,11.38-13.02,3.75-1.47,7.6.83,11.38.68,5.54-.88,8.19-7.05,11.38-11.01,1.12-1.3,2.39-3.54,4.38-3.28,3.57,1.45,5.76,6.94,7.88,10.03,2.06,2.99,5.18,9.4,9.63,7.24,1.85-1.17,3.35-3.09,5.25-4.18,4.56-2.31,7.08,4.14,8.76,7.3,1.99,3.99,3.38,8.68,6.13,12.23h30.65c3.83-2.39,7.69-4.9,11.38-7.5"/><path class="b" d="M8,179.18c4.83,2.78,9.98,14.03,15.76,12.83,1.89-.89,3.88.32,5.25,1.59,8.16,0,16.35,0,24.52,0,2-.03,4.13.08,6.13-.06,5-2.66,6.82-6.28,9.63-10.9,2.44-3.71,4.96-8.52,9.63-9.62,1.72-.28,3.62.02,5.25.56,1.93.71,4.02,1.69,6.13,1.32,4.06-.95,6.37-5.04,8.76-8.12,1.5-1.71,3.38-5.71,6.13-4.28,1.86,1.2,3.19,3.38,4.38,5.19,1.68,2.68,3.35,5.67,5.25,8.19,2.52,3.31,5.35,5.24,8.76,1.66,3.63-3.64,6.35-5.04,9.63,0,3.2,4.97,4.76,11.04,7.88,16.05,9.92,0,19.86,0,29.77,0,.93.18,1.95-.5,2.63-1.08.76-.57,1.84-1.33,2.63-1.86,2.6-1.73,5.35-3.43,7.88-5.27"/><path class="b" d="M8,178.36c2.37,1.49,4.26,3.83,6.13,5.88,2.37,2.45,4.97,6.08,8.76,5.9,1.11-.24,2.34-.93,3.5-.56,1.72.46,2.94,2.08,4.38,3,8.16,0,16.35,0,24.52,0,1.41,0,2.97,0,4.38,0,5.01-1.31,7.16-6.82,9.63-10.86,2.32-3.79,4.54-8.44,8.76-10.41,4.57-1.69,7.37,1.67,11.38,2.66,3.87.69,6.63-2.94,8.76-5.63,1.53-1.69,3.71-5.95,6.13-5.86,3.81,1.08,7.06,8.97,9.63,12.17,1.99,2.87,5.35,6.6,8.76,3.31,3.97-3.82,6.74-6.49,10.51-.52,2.82,4.64,4.54,10.1,7.01,14.92,1.66.44,3.55.12,5.25.21,2.89,0,5.86,0,8.76,0,5.82-.1,11.71.2,17.51-.12,3.69-3.44,8.22-5.84,12.26-8.81"/><path class="b" d="M8,177.62c2.35,1.38,4.25,3.61,6.13,5.54,10.78,11.75,8.85-1.64,17.51,8.26,2.27.34,4.71.07,7,.15,4.36,0,8.77,0,13.13,0,2.3,0,4.7,0,7.01,0,3.75.46,6.22-3.22,7.88-6.07,3.22-5.21,5.43-11.67,10.51-15.41,1.8-1.18,4.16-1.18,6.13-.44,2.89,1.23,5.36,4.26,8.76,3.82,3.09-.61,5.13-3.5,7.01-5.8.75-.98,1.81-2.32,2.63-3.25.6-.71,1.62-1.6,2.63-1.52,3.64.92,6.49,7.57,8.76,10.53,2.09,3.12,5.82,8.04,9.63,4.22,5.18-5.34,7.6-5.74,11.38,1.21,1.24,2.37,2.47,5.32,3.5,7.78.68,1.46,1.34,3.88,2.63,4.94,10.21,0,20.44,0,30.65,0,1.89-1.11,3.41-3.04,5.25-4.26,2.51-1.89,5.43-3.4,7.88-5.38"/><path class="b" d="M8,176.96c2.7,1.47,4.78,3.98,7,6.04,8.38,7.88,7.95.68,13.13,3.2,2.02,1.02,3.4,3.15,5.25,4.36,6.99,0,14.02,0,21.01,0,2,0,4.12,0,6.13,0,4.18-1.13,5.9-5.8,7.88-9.21,2.47-4.4,4.58-9.58,8.76-12.66,1.79-1.23,4.18-1.21,6.13-.37,2.97,1.45,5.22,4.81,8.76,4.92,2.58-.1,4.55-2.25,6.13-4.07,1.69-1.85,3.08-4.42,5.25-5.75,3.53-.94,6.89,6.35,8.76,8.75,2.82,4.13,6.59,9.85,11.38,4.32,2.19-2.28,5.1-4.85,7.88-1.76,3.77,4.53,5.34,10.62,7.88,15.84h31.52c2.1-2.23,4.45-4.44,7-6.15,2.02-1.35,4.28-2.6,6.13-4.19"/><path class="b" d="M8,176.36c2.33,1.14,4.23,3.16,6.13,4.87,11.75,10.99,7.94-4.54,20.14,8.2,4.05.31,8.2.03,12.26.12.82.07,1.86-.17,2.63-.44,1.08-.28,2.39-.38,3.5-.32,3.17.15,6.64,1.52,9.63-.12,2.48-1.47,3.86-4.44,5.25-6.84,2.39-4.32,4.48-9.13,7.88-12.78,2.1-2.28,5.06-2.99,7.88-1.61,3.23,1.71,5.58,5.92,9.63,5.65,4.02-.86,6.14-5.08,8.76-7.87,1.17-1.49,2.7-2.22,4.38-.94,4.55,3.83,6.39,10.31,11.38,13.68,3.19,2,5.74-1.59,7.88-3.5,7.49-6.81,10.76,11.17,14.01,15.09,10.21,0,20.44,0,30.65,0,1.07-.27,1.86-1.57,2.63-2.29,1.03-1.07,2.34-2.27,3.5-3.2,2.47-2.02,5.51-3.4,7.88-5.56"/><path class="b" d="M8,175.8c3.02,1.36,5.29,4.05,7.88,6.04,7.88,6.23,7.64-1.78,14.01,2.08,2.15,1.31,4.05,3.22,6.13,4.63,2.6,0,5.28,0,7.88,0,.93-.04,1.83-.88,2.63-1.26,1.58-.8,3.49-1.13,5.25-.94,3.19.27,6.41,2.12,9.63,1.18,5.6-1.98,8.95-15.76,14.89-20.06,3.07-2.46,7.17-.94,9.63,1.64,7.52,7.8,10.41,2.62,15.76-3.78,1.6-2.09,3.41-2.1,5.25-.26,3.86,3.84,5.87,9.57,10.51,12.63,5.34,3.09,7.87-7.9,13.13-4.53,4.11,3.79,5.57,9.8,7.88,14.72l.88.66h30.65c2.2-2.32,4.39-4.88,7.01-6.76,2.26-1.7,4.96-2.98,7-4.96"/><path class="b" d="M8,175.31c2.3.83,4.24,2.6,6.13,4.09,10.39,8.64,8.75-1.8,17.51,3.93,2.5,1.51,4.9,3.76,7.88,4.21,1.66.15,3.13-.22,4.38-1.36,2.16-1.81,5.08-2.79,7.88-2.26,3.19.45,6.36,2.47,9.63,1.6,3-1.03,4.54-4.32,6.13-6.83,1.89-3.22,3.75-6.75,6.13-9.64,2.6-3.22,5.8-4.49,9.63-2.45,3.71,2.26,7.37,8.52,12.26,5.18,2.04-1.41,3.67-3.56,5.25-5.43.91-1.01,1.99-2.58,3.5-2.62,4.08.65,7.84,9.64,11.38,12.6,6.99,6.88,9.54-8.43,15.76-2.59,3.33,3.87,4.92,9.14,7,13.72,6.4.21,12.86.01,19.26.08,2.6,0,5.28,0,7.88,0,1.4-.09,3.05.25,4.38-.29,2.06-2.52,4.4-5.02,7.01-6.99,2.27-1.73,4.98-3.04,7-5.09"/><path class="b" d="M8,174.85c2.25.56,4.24,2.08,6.13,3.36,10.76,7.77,8.54-2.02,18.39,3.68,12.44,7.69,9.6-2.49,20.14-.23,2.85.62,5.79,2.22,8.76,1.43,2.91-.96,4.52-4.05,6.13-6.44,1.88-2.98,3.76-6.26,6.13-8.89,2.96-3.4,6.75-3.99,10.51-1.42,3.59,2.8,7.41,8.16,12.26,4.33,1.59-1.21,3.05-2.9,4.38-4.38,1.09-1.2,2.56-3.05,4.38-2.21,1.83.94,3.18,2.88,4.38,4.49,1.91,2.66,3.75,5.67,6.13,7.95,7.27,7.07,10.05-9.8,16.64-1.66,2.69,3.43,3.83,8.05,6.13,11.68h30.65c1-.55,1.87-1.86,2.63-2.68,1.31-1.48,2.87-3.05,4.38-4.32,2.47-2.15,5.6-3.62,7.88-6"/><path class="b" d="M8,174.35c3.84.51,6.91,3.33,10.51,4.56,4.82,1.79,5.95-1.56,10.51-.35,3.01.76,5.75,2.53,8.76,3.27,5.49,1.39,6.7-3.12,12.26-2.89,2.37.05,4.72.86,7.01,1.38,4.6,1.2,7.18-1.08,9.63-4.67,2.47-3.41,4.66-7.31,7.88-10.09,2.76-2.5,6.64-2.38,9.63-.36,5.35,4.28,8.52,8.95,14.89,2.67,2.09-1.71,4.04-5.48,7-3.04,4.12,3.64,6.14,9.3,10.51,12.72,8.6,6.13,10.38-18.21,21.02,7.57,1.27.73,2.97.28,4.38.39,2.3,0,4.7,0,7.01,0,6.7,0,13.44,0,20.14,0,2.61-2.64,4.92-5.77,7.88-8.07,2.26-1.87,5-3.36,7-5.54"/><path class="b" d="M8,173.77c5.2-.16,9.63,4.15,14.89,3.43,6.55-2.47,11.2,2.46,17.51,2.21,1.88-.08,3.56-1.23,5.25-1.91,3.97-1.62,8.22-.27,12.26.23,3.87.53,6.56-1.67,8.76-4.58,2.47-3.05,4.73-6.56,7.88-8.98,2.5-2.02,5.9-2.16,8.76-.83,3.59,1.86,6.16,6.11,10.51,6.3,3.56-.09,6.1-3.12,8.76-5.11,1.55-1.04,3.32.25,4.38,1.41,3.69,3.95,5.8,9.61,10.51,12.53,5.5,3.08,8.7-8.22,14.01-3.73,2.87,2.58,3.97,6.69,6.13,9.76h31.52c2.55-2.79,4.97-5.91,7.88-8.36,2.25-1.99,4.99-3.59,7-5.85"/><path class="b" d="M8,173.07c4.17-.87,8.21,1.09,12.26,1.72,1.72.33,3.55.03,5.25-.21,1.11-.07,2.41.04,3.5.23,4.59.81,9.34,3.12,14.01,1.54,2.2-.93,4.61-1.62,7-1.7,3.19-.18,6.45.55,9.63.18,3.31-.3,5.81-2.79,7.88-5.17,2.39-2.64,4.75-5.61,7.88-7.4,2.65-1.53,6.1-1.39,8.76.05,2.13,1.29,4.01,3.16,6.13,4.47,2.04,1.34,4.71,1.86,7.01.89,2.21-.74,3.96-2.69,6.13-3.43,3.53.11,6.63,6.75,8.76,9.33,12.18,17.86,13.56-13.45,24.52,9.88,10.79.11,21.61,0,32.4.04,2.61-2.81,5.01-6.02,7.88-8.6,2.23-2.12,4.96-3.88,7-6.2"/><path class="b" d="M8,172.21c4.54-1.84,9.39-.35,14.01.24,2.3.14,4.72-.06,7.01.42,4.04.67,8.13,1.93,12.26,1.54,1.75-.16,3.54-.8,5.25-1.11,1.98-.39,4.11-.61,6.13-.72,6.18-.24,10.36-.57,14.89-5.26,3.66-3.4,7.69-7.84,13.13-7.48,4.88.14,7.91,4.75,12.26,6.32,2.56,1.05,5.49.48,7.88-.77.76-.37,1.76-1.02,2.63-1.09,1.91.21,3.26,2.07,4.38,3.45,2.58,3.4,4.69,7.42,7.88,10.31,8.88,7.35,11.27-12.8,20.14,3.96,1.16.84,2.99.35,4.38.47,2.6,0,5.28,0,7.88,0,6.99,0,14.02,0,21.01,0,2.78-2.7,5.05-6.11,7.88-8.79,2.2-2.27,4.92-4.2,7-6.59"/><path class="b" d="M8,171.16c4.95-2.88,9.55-2.35,14.89-1.19,5.54.65,11.04,2.07,16.64,2.23,3.51.1,7.05-.58,10.51-1.12,4.12-.71,8.34-1.43,12.26-2.95,7.08-2.85,12.5-11.41,21.01-9.45,4.69,1.51,8.11,5.93,13.13,6.64,1.41.21,3.01.06,4.38-.33.78-.22,1.8-.72,2.63-.68,3.84,1,7.43,9.22,10.51,12.33,8.05,8.91,10.52-2.58,16.64-.41,1.4.66,2.61,2.08,3.5,3.31,0,0,.88,1.32.88,1.32l.88.62h33.27c1.07-.46,1.89-1.87,2.63-2.72,1.37-1.71,2.93-3.6,4.38-5.24,2.39-2.84,5.43-5.21,7.88-8"/><path class="b" d="M8,169.92c8.12-5.96,11.57-3.16,20.14-1.17,4.01.85,8.17,1.18,12.26,1.35,4.12.34,8.33.11,12.26-1.26,2.64-.83,5.3-1.91,7.88-2.91,2.03-.78,4.22-1.49,6.13-2.55,5.61-2.87,11.72-8.16,18.39-5.84,2.48,1,4.74,2.68,7.01,4.07,11.19,7.14,9.53-2.59,16.64,8.08,3.16,4.23,6.7,11.99,13.13,10.13,2.88-.98,5.46-4.3,8.76-2.96.93.4,1.96,1.3,2.63,2.05.22.45,1.23,1.42,1.75,1.57,3.77,0,7.61,0,11.38,0,4.95,0,9.94,0,14.89,0,1.7,0,3.55,0,5.25,0,1.09-.04,2.44.13,3.5-.19,2.58-3.27,5.15-6.73,7.88-9.88,1.91-2.2,4.24-4.24,6.13-6.46"/><path class="b" d="M8,168.48c3.64-3.3,8.04-6.42,13.13-4.45,2.33.84,4.58,2.17,7.01,2.74,3.69.97,7.6,1,11.38,1.3,2.61.12,5.25,1.07,7.88.73,4.46-.56,8.3-3.2,12.26-5.12,3.04-1.52,6.54-2.02,9.63-3.43,5.04-1.85,10.15-5.85,15.76-4.52,4.58,1.31,8.11,4.86,12.26,7.03,1.31.68,2.89,1.26,4.38,1.29,1.78-.37,3.33,1.02,4.38,2.29,3.51,4.18,5.79,9.75,10.51,12.79.71.41,1.84.33,2.63.32,1.09,0,2.41,0,3.5,0,4.18-1.72,6.47-4.37,10.51-.15,4.33.38,8.78.04,13.13.15,7.87,0,15.77,0,23.64,0,2.57-2.76,4.63-6.19,7.01-9.12,2.09-2.8,4.73-5.31,7-7.95"/><path class="b" d="M8,166.83c3.76-3.93,8.3-8.52,14.01-5.23,1.98,1.11,3.92,2.58,6.13,3.22,3.66,1.19,7.61.95,11.38,1.41,1.77.17,3.57.78,5.25,1.3,4.98,1.08,9.24-2.62,13.13-5.15,1.58-1.04,3.37-2.13,5.25-2.51,2.92-.45,5.96-.84,8.76-1.86,4.82-1.6,9.59-5.44,14.89-3.63,5.1,1.61,8.52,6.17,13.13,8.64,1.34.76,3.19.51,4.38,1.57,4.35,4.07,6.45,10.29,11.38,13.81,2.89.11,5.87.02,8.76.05.84-.04,1.83-.58,2.63-.82,1.09-.34,2.44-.34,3.5.09,1,.68,2.33.82,3.5.73,1.1,0,2.4,0,3.5,0,3.77,0,7.61,0,11.38,0,4.65,0,9.36,0,14.01,0,1.7,0,3.55,0,5.25,0,.82,0,1.92.1,2.63-.39,2.65-3.62,5.15-7.56,7.88-11.12,1.62-2.05,3.57-4.09,5.25-6.07"/><path class="b" d="M8,165c3.53-4.11,8.15-10.23,14.01-6.11,2.21,1.58,4.31,3.61,7.01,4.34,3.38,1.07,7.04.71,10.51,1.29,1.83.25,3.6,1.11,5.25,1.86,4.78,1.58,8.83-2.55,12.26-5.28,1.56-1.26,3.3-2.66,5.25-3.26,1.68-.38,3.55-.17,5.25-.22,2.05-.01,4.21-.37,6.13-1.1,5.43-2.16,9.6-6.11,15.76-3.14,4.12,2.07,6.88,6.06,10.51,8.79,1.26,1.04,3.2,1.12,4.38,2.29,3.91,3.93,6.07,9.53,10.51,12.98h56.04c2.59-3.22,4.63-7.06,7-10.44,1.78-2.66,4.05-5.19,6.13-7.62"/><path class="b" d="M8,163.01c5.14-6.65,9.25-12.61,16.64-4.3,4.01,4.01,8.87,3.47,14.01,4.07,1.48.23,3.08.75,4.38,1.51,1.48,1.08,3.39,1.9,5.25,1.48,3.97-1,6.67-4.54,9.63-7.12,7.24-7.04,9.45,1.98,20.14-4.96,9.7-6.26,13.79-1.78,20.14,5.79.98,1.1,2.23,2.38,3.5,3.13.88.31,1.97.97,2.63,1.65,3.49,3.74,5.67,8.74,9.63,12.06,4.05.3,8.2.03,12.26.12,7.58,0,15.19,0,22.77,0,4.95,0,9.94,0,14.89,0,1.7,0,3.55,0,5.25,0,.82.01,1.93.1,2.63-.43,3.86-6.13,7.3-12.68,12.26-18.03"/><path class="b" d="M8,160.88c5.14-7.18,9.27-13.91,16.64-4.27,1.61,1.78,3.77,3.23,6.13,3.76,3.74.86,7.95.12,11.38,2.16,1.13.66,2.26,1.77,3.5,2.24,5.45,1.69,9.52-5.45,13.13-8.49,1.72-1.63,3.74-2.78,6.13-1.88,4.12,1.41,7.45,2.26,11.38-.23,2.04-1.19,3.95-2.89,6.13-3.84,1.93-.67,4.06-1.44,6.13-1.04,4.45,1.12,6.94,5.61,9.63,8.95.98,1.28,2.2,2.81,3.5,3.79.87.45,1.97,1.22,2.63,1.96,3.08,3.49,5.24,7.93,8.76,11.03.7.5,1.81.42,2.63.41,1.09,0,2.41,0,3.5,0,3.77,0,7.61,0,11.38,0,13.71,0,27.44,0,41.15,0,2.33-3.18,4.06-7.04,6.13-10.4,1.7-2.95,3.92-5.8,6.13-8.39"/><path class="b" d="M8,158.66c5.23-7.78,9.31-14.79,16.64-3.99,4.63,5.8,8.77,4,14.89,5.41,3.71.83,5.47,5.44,9.63,3.91,3.72-1.62,6.03-5.36,8.76-8.19,6.07-7.07,8.14.35,14.89-.57,3.07-.58,5.44-2.96,7.88-4.74,9.53-6.12,12.21-1.22,17.51,6.53.98,1.45,2.2,3.18,3.5,4.37,1.29.81,2.59,2.07,3.5,3.3,2.5,3.23,4.62,7.05,7.88,9.61,12.23.31,24.53,0,36.78.11,4.95,0,9.94,0,14.89,0,1.7,0,3.55,0,5.25,0,.82.01,1.93.1,2.63-.44,3.49-6.32,6.5-13.14,11.38-18.56"/><path class="b" d="M8,156.4c2.68-3.61,6.67-12.83,12.26-8.76,2.16,1.67,3.56,4.31,5.25,6.38,3.08,3.77,6.89,3.98,11.38,4.21,1.47.14,3.09.57,4.38,1.31,2.57,1.53,4.38,5.01,7.88,3.71,4.57-2.07,6.85-7.11,10.51-10.32,4.72-4.47,8.01,3.63,14.01,1.88,3.46-1.08,5.72-4.31,8.76-6.1,1.95-.88,3.92-2.28,6.13-2.34,5.09.32,7.89,7.22,10.51,10.91.68,1.09,1.73,2.54,2.63,3.47,1.26.95,2.57,2.29,3.5,3.56,2.42,3.13,4.53,6.86,7.88,9.09h59.54c2.05-3.03,3.48-6.78,5.25-9.98,1.63-3.2,3.81-6.35,6.13-9.09"/><path class="b" d="M8,154.15c2.79-4.16,7.51-14.12,13.13-7.7,3.02,3.39,4.79,8.6,9.63,9.84,5.15,1.16,9.19-.47,13.13,4.29,5.94,6.4,11.07-4.07,14.89-7.78,1.83-1.92,3.68-3.06,6.13-1.36,2.61,1.61,5.45,4.18,8.76,3.24,3.55-1.11,5.72-4.56,8.76-6.5,1.99-.97,3.88-2.59,6.13-2.89,4.43-.11,6.66,4.87,8.76,8.05,1.32,2.21,2.69,4.77,4.38,6.72,1.22,1.06,2.55,2.45,3.5,3.76,2.03,2.45,5.44,8.38,8.76,8.55,7.87,0,15.77,0,23.64,0,7.58,0,15.19,0,22.77,0,2.59,0,5.29,0,7.88,0,1.09,0,2.41,0,3.5,0,0,0,.88,0,.88,0,0,0,.88-.45.88-.45,3.09-6.34,5.81-13.15,10.51-18.52"/><path class="b" d="M8,151.99c2.89-4.34,7.5-14.18,13.13-7.17,2.99,3.57,4.64,9.08,9.63,10.37,4.41.99,8.72-.61,12.26,3.2,5.92,7.92,10.79-.77,14.89-5.43,1.98-2.22,4.12-4.37,7-2.09,2.58,1.75,5.34,4.66,8.76,3.77,3.62-1.12,5.72-4.72,8.76-6.76,1.76-.91,3.4-2.36,5.25-3.1,4.14-1.54,6.9,3.13,8.76,6.09,1.41,2.36,2.84,5.1,4.38,7.39,1.62,2.08,3.79,3.97,5.25,6.19,2.12,2.69,4.35,6.08,7.88,6.93,1.4-.04,3,.13,4.38-.18.76-.16,1.84-.3,2.63-.25,1.16.26,2.26.55,3.5.44,16.34,0,32.69,0,49.03,0,1.75-2.69,2.91-6.15,4.38-9,1.59-3.4,3.74-6.78,6.13-9.67"/><path class="b" d="M8,149.98c3.02-4.59,7.54-13.9,13.13-6.43,2.94,3.68,4.51,9.46,9.63,10.68,4.44.84,8.67-1.15,12.26,2.75,5.92,7.98,10.58.06,14.89-4.72,2.03-2.22,4.19-4.19,7-1.81,2.56,1.86,5.25,5,8.76,4.19,3.66-1.09,5.72-4.78,8.76-6.84,1.8-.95,3.41-2.49,5.25-3.36,4.05-1.91,6.95,2.71,8.76,5.66,1.43,2.39,2.85,5.17,4.38,7.49.92,1.41,2.47,2.7,3.5,4.02,2.71,3.15,5.15,7.7,9.63,8.37,2.66.32,5.24-1.57,7.88-.89,1.67.53,3.52,1.04,5.25,1.3,2.89,0,5.87,0,8.76,0,8.16,0,16.35,0,24.52,0,2.89,0,5.87,0,8.76,0,1.09,0,2.41,0,3.5,0,.43.07,1.37-.1,1.75-.35,2.68-6.14,5.28-12.6,9.63-17.78"/><path class="b" d="M8,148.22c3.22-4.88,7.59-13.3,13.13-5.52,2.75,3.52,4.12,8.94,8.76,10.5,3.7,1.12,7.86-1.29,11.38.78,1.7.95,2.83,2.87,4.38,4,5.06,3.39,9.07-3.34,12.26-6.4,2.11-2.17,4.29-3.86,7.01-1.48,2.9,2.35,6.54,6.32,10.51,3.81,2.63-1.56,4.49-4.29,7-6.01,1.83-.94,3.44-2.53,5.25-3.49,3.91-2.17,6.97,2.2,8.76,5.14,1.44,2.35,2.86,5.1,4.38,7.41,1.23,1.78,3.09,3.35,4.38,5.09,1.96,2.34,3.99,5.15,7.01,6.15,3.31,1.13,6.36-1.98,9.63-1.26,1.38.5,3,.84,4.38,1.34.79.29,1.81.87,2.63,1.09,4.95,0,9.94,0,14.89,0,10.21,0,20.44,0,30.65,0,1.9-2.6,2.83-6.24,4.38-9.06,1.39-2.86,3.31-5.74,5.25-8.25"/><path class="b" d="M8,146.53c4.26-6.53,8.29-12.48,14.01-3.14,2.73,4.46,4.93,10.55,11.38,9.12,2.27-.41,4.71-1.26,7-.57,3.67,1.2,5,6.29,9.63,5.14,3.97-1.28,6.31-5.21,9.63-7.5,1.83-1.32,3.58-1.08,5.25.35,2.57,1.96,5.16,5.27,8.76,4.67,3.64-.88,5.73-4.5,8.76-6.42,3.06-1.39,5.93-5.58,9.63-3.67,4.6,3.07,6.23,8.98,9.63,13.12,2.96,2.74,5.17,6.54,8.76,8.54,3.27,1.8,6.52-.78,9.63-1.63,1.14-.26,2.43.31,3.5.64,2.2.6,4.41,1.65,6.13,3.17h45.53c2.34-5.68,4.93-11.49,8.76-16.34"/><path class="b" d="M8,144.6c4.73-7.01,8.52-10.92,14.01-1.82,2.3,3.66,4.36,9.57,9.63,9.13,3.45-.31,7.19-2.84,10.51-.7,1.51,1.06,2.72,2.81,4.38,3.67,2.25,1.31,5,.58,7-.84,2.85-1.65,6.05-6.12,9.63-5.01,1.6.76,3.02,2.16,4.38,3.27,7.35,6.34,9.81-1.16,15.76-4.14,2.9-1.7,6.16-5.39,9.63-2.78,3.1,2.44,4.88,6.3,7,9.53,1.58,2.62,4.08,4.72,6.13,6.96,3.26,3.38,6.33,4.37,10.51,1.72,1.32-.75,2.82-1.72,4.38-1.79,1.8.28,3.64,1.15,5.25,1.96,1.61.88,3.07,2.33,4.38,3.59h44.66c.75-.42,1.47-2.17,1.75-2.93.42-.98,1.3-2.94,1.75-3.9,1.41-2.96,3.37-5.93,5.25-8.61"/><path class="b" d="M8,142.53c5.28-7.45,8.85-9.01,14.01-.39,1.81,2.84,3.12,6.52,6.13,8.35,3.45,1.97,7.06-.71,10.51-1.29,4.01-.78,5.49,3.07,8.76,4.33,6.52,2.72,11.31-6.96,16.64-3.67,3.32,2.25,7.01,6.73,11.38,4.24,2.24-1.2,4.05-3.24,6.13-4.65.74-.47,1.87-.85,2.63-1.31,2.53-1.67,5.7-4.4,8.76-2.29,3.9,2.84,5.7,7.74,8.76,11.35,3.09,2.82,6.63,7.81,11.38,5.94,2.79-1.02,4.86-3.86,7.88-4.24,1.19.1,2.45.81,3.5,1.31,2.45,1.28,4.51,3.43,6.13,5.63,0,0,.88.49.88.49h.88c1.09,0,2.41,0,3.5,0,2.89,0,5.87,0,8.76,0,10.5,0,21.02,0,31.52,0,2.23-5.01,4.68-10.12,7.88-14.59"/><path class="b" d="M8,140.43c5.77-7.65,9.29-6.85,14.01,1.07,2.18,3.44,3.99,8.82,8.76,9.05,3.9.06,7.45-3.64,11.38-2.14,2.06,1.13,3.77,3.15,6.13,3.75,3.66,1.15,7.17-.97,10.51-2.19,6.06-2.58,8.9,6,14.89,4.72,2.72-.68,4.78-2.88,7.01-4.45,1.27-.97,3.07-1.23,4.38-2.12,1.59-.98,3.33-2.23,5.25-2.37,4.66.15,7.13,5.86,9.63,9.11,1.13,1.75,2.79,3.38,4.38,4.71,1.87,1.66,4.43,3.26,7,2.39,3.07-1.05,5.15-3.9,7.88-5.52,2.11-1.35,4.42.44,6.13,1.66,2.52,1.89,4.15,4.84,6.13,7.22h44.66l.88-.63c1.8-4.56,4.36-8.98,7-13.09"/><path class="b" d="M8,138.39c6.17-7.57,9.73-4.64,14.01,2.52,1.94,3.08,3.43,7.19,7,8.73,3.69,1.34,7.03-1.63,10.51-2.39,1.96-.51,3.76.41,5.25,1.6,1.3.85,2.86,1.63,4.38,1.99,1.98.48,4.16.3,6.13-.14,2.26-.47,4.69-1.28,7.01-.72,2.26.68,4.09,2.49,6.13,3.59,2.95,1.82,6.1,1.17,8.76-.83,1.39-.96,2.86-2.19,4.38-2.94,1.44-.47,3.09-.82,4.38-1.68,4.44-2.8,7.31-1.86,10.51,2.09,2.91,3.64,5.31,8.11,9.63,10.28,3.71,2,7.23-1.3,9.63-3.86,1.49-1.42,3.07-3.45,5.25-3.7,5.17,1.38,7.85,7.21,10.51,11.4h45.53c.98-1.43,1.84-3.66,2.63-5.19,1.33-2.48,2.96-5.18,4.38-7.61"/><path class="b" d="M8,136.48c6.41-7.19,10.15-2.55,14.01,3.89,1.93,3.09,3.5,7.11,7,8.73,4.03,1.61,7.59-1.95,11.38-2.69,1.92-.46,3.64.75,5.25,1.59,2.68,1.37,5.75,2.04,8.76,1.94,3.2-.06,6.73-.66,9.63,1.05,3.63,2.21,7.11,4.72,11.38,2.32,2.08-1.06,3.95-2.77,6.13-3.62.76-.25,1.86-.25,2.63-.48.8-.27,1.86-.75,2.63-1.11,8.52-4.52,11.59,7.63,17.51,11.07,5.08,3.47,9.27-2.66,12.26-6.08,1.33-1.38,3.09-3.63,5.25-2.87,4.8,2.78,7.12,8.39,9.63,13.09,9.92,0,19.86,0,29.77,0,5.52-.11,11.13.22,16.64-.14,1.68-3.98,4.06-7.89,6.13-11.68"/><path class="b" d="M8,134.78c8.64-8.96,13.2,5.03,17.51,10.81,2.12,2.92,5.24,4.51,8.76,3.03,2.85-.99,5.58-3.39,8.76-2.84,2,.71,4.07,1.62,6.13,2.16,4.56,1.4,9.58.86,14.01,2.7,5.44,2.88,8.26,4.68,14.01.94,1.84-1.09,3.87-2.59,6.13-2.27,1.79-.08,3.54-1.02,5.25-1.45,4.56-1.34,7.96,2.85,10.51,6,2.04,2.41,4.38,5.7,7.88,5.63,3.1-.38,5.18-3.26,7.01-5.51,1.95-2.23,3.86-6.19,7-6.67,4.9,1.45,8.29,10.66,10.51,14.98h46.41c1.32-.74,1.83-2.97,2.63-4.17,1.15-2.02,2.41-4.5,3.5-6.56"/><path class="b" d="M8,133.34c8.58-7.83,13.29,6.36,17.51,11.81,2.39,3.28,5.75,4.95,9.63,3.09,6.6-3.18,5.78-3.92,13.13-1.85,4.95,1.3,10.15,2.04,14.89,4.06,7.9,4.09,9.33,2.54,16.64-1.19.74-.31,1.82-.54,2.63-.45.77.2,1.85.25,2.63.11,1.7-.31,3.5-.95,5.25-.93,4.23.13,7.03,3.96,9.63,6.83,1.91,2.21,4.71,5.16,7.88,3.61,3.1-1.66,5.01-4.99,7.01-7.75,1.59-1.97,3.97-6.76,7-5.56,5.03,3.87,6.87,10.7,9.63,16.17h47.28c2.25-2.7,3.56-6.46,5.25-9.53"/><path class="b" d="M8,132.19c11.19-8.19,13.93,14.43,22.77,16.67,5.21,1.25,8.87-4.83,14.01-4.06,4.8.35,9.54,1.59,14.01,3.34,5.45,2.02,9.86,5.47,15.76,2.48,1.99-.88,3.96-2.2,6.13-2.59,1.46-.26,2.92.66,4.38.56,2.01-.1,4.12-.65,6.13-.3,4.97.96,7.72,5.83,11.38,8.84,1.89,1.61,4.33,1.35,6.13-.28,3.99-3.59,5.99-8.95,9.63-12.84,5.43-6.17,11.05,12.95,13.13,16.28h48.16c1.94-2.28,3.01-5.59,4.38-8.23"/><path class="b" d="M8,131.35c10.47-6.76,14.21,13.69,21.89,17.2,5.23,2.62,9.2-3.37,14.01-4.19,4.13-.61,8.41-.04,12.26,1.57,5.9,2.33,10.97,6.56,17.51,3.43,2.26-.91,4.51-2.4,7.01-2.55,1.51-.06,2.89,1.06,4.38,1.17,2.3.21,4.76-.18,7.01.53,3.95,1.24,6.66,4.7,9.63,7.38,1.76,1.8,4.08,2.28,6.13.59,3.81-3.3,5.85-8.24,8.76-12.26,2.09-2.93,4.34-5.05,7-1.21,3.58,4.84,5.06,11.05,7.88,16.28h49.03c1.62-1.78,2.43-4.69,3.5-6.81"/><path class="b" d="M8,130.84c9.22-5.52,14.3,11.85,20.14,16.53,6.2,5.56,10.16-1.06,15.76-3.2,7.4-2.6,11.97-.02,18.39,3.35,2.67,1.38,5.87,1.85,8.76.9,3.47-.9,6.77-3.8,10.51-2.9,1.13.43,2.3,1.33,3.5,1.61,6.81,1.05,8.53.75,14.01,5.77,1.62,1.33,3.13,3.35,5.25,3.87,4.66.31,8.19-8.14,10.51-11.49,2.08-3.24,5.3-9.09,8.76-3.59,2.2,3.27,3.78,7.27,5.25,10.91.71,1.66,1.38,4.31,2.63,5.67h49.91c1.16-1.33,1.9-3.72,2.63-5.3"/><path class="b" d="M8,130.66c4.85-2.58,8.69,1.28,11.38,4.98,2.64,3.57,4.91,7.61,7.88,10.93,7.15,7.84,10.89.34,17.51-2.85,7.1-3.67,11.17-1.18,17.51,2.27,2.4,1.29,5.31,1.49,7.88.63,3.46-.95,6.76-3.66,10.51-2.97,1.27.29,2.4,1.35,3.5,1.98,2.15,1.13,4.71,1.32,7.01,2.01,2.19.64,4.32,1.84,6.13,3.22,2.07,1.48,3.9,3.57,6.13,4.82,3.73,1.09,6.08-3.43,7.88-5.97,2.31-3.26,5.03-10.13,8.76-11.49,4.34-.54,8.85,14.73,10.51,18.31l.88.71h50.79c.57-.83,1.41-2.75,1.75-3.71"/><path class="b" d="M8,130.78c5.29-2.5,9.5,2.55,12.26,6.43,2.26,3.16,4.47,6.58,7,9.53,7.5,8.81,11.61.41,18.39-3.64,6.62-4.48,10.34-2.44,16.64,1.04,2.42,1.34,5.37,1.19,7.88.2,3.58-1.23,7.58-4.25,11.38-2.15,1.15.74,2.28,1.93,3.5,2.56,2.46,1.31,5.34,1.81,7.88,2.94,2.88,1.24,5.47,3.23,7.88,5.19,3.12,2.95,5.15,2.52,7.88-.67,3.31-4.03,5.38-9.11,8.76-13.09,3.17-3.65,5.27-.72,7.01,2.41,2.41,4.55,4.25,9.71,6.13,14.49,2.25.46,4.71.09,7.01.2,3.77,0,7.61,0,11.38,0,11.38,0,22.77,0,34.15,0l.88-2.06"/><path class="b" d="M8,131.19c4.71-1.98,8.73,1.88,11.38,5.36,2.35,3.06,4.6,6.39,7,9.41,7.28,9.39,10.6,4.92,17.51-1.47,3.59-3.15,8.04-7.04,13.13-4.99,4.5,1.68,7.11,4.82,12.26,2.69,3.6-1.25,7.49-4.23,11.38-2.42,1.92,1.02,3.3,3.06,5.25,4.06,3.07,1.71,6.61,2.61,9.63,4.43,1.8,1.03,3.61,2.34,5.25,3.6,1.99,1.68,3.74,2.84,6.13.93,3.77-3.32,5.83-8.24,8.76-12.24,2.52-3.53,5.09-5.55,7.88-.84,2.93,4.79,4.62,10.47,7.01,15.52,11.38,0,22.77,0,34.15,0,4.07,0,8.19,0,12.26,0,1.4,0,2.98,0,4.38,0,.82,0,1.91.1,2.63-.39"/><path class="b" d="M8,131.83c4.64-1.75,8.71,1.95,11.38,5.35,2.35,2.96,4.67,6.17,7,9.14,5.19,6.84,8.89,7.98,14.89,1.19,1.66-1.8,3.56-3.64,5.25-5.4,2.69-2.8,6.35-5.86,10.51-4.67,2.74.63,5.08,2.68,7.88,3.05,3.79.17,6.97-2.49,10.51-3.4,6.17-1.63,7.42,4.06,12.26,6.35,3.47,1.83,7.25,3.24,10.51,5.46,1.12.73,2.43,1.66,3.5,2.46.91.79,2.26,1.5,3.5,1.15,4.31-1.71,6.87-7.82,9.63-11.39,2.6-3.7,5.64-6.89,8.76-1.51,1.69,2.78,3.11,6.16,4.38,9.15.7,1.62,1.48,4.08,2.63,5.45h53.41"/><path class="b" d="M8,132.66c5.12-1.73,9.35,2.62,12.26,6.28,2.01,2.56,4.15,5.26,6.13,7.84,4.44,5.91,8.26,8.91,14.01,2.32,2.02-2.3,4.19-4.72,6.13-7.09,1.98-2.35,4.12-4.97,7.01-6.22,4.31-1.81,7.43,1.61,11.38,2.19,2.48.07,4.8-1.24,7-2.21,8.66-3.95,9.12,1.38,14.89,5.69,2.42,1.72,5.26,2.95,7.88,4.32,2.73,1.4,5.41,3.13,7.88,4.96,5.17,3.36,10.61-9.26,14.01-12.18,3.65-3.84,5.91-.95,7.88,2.65,1.93,3.59,3.6,7.68,5.25,11.4l.88.6h53.41"/><path class="b" d="M8,133.6c5.04-1.59,9.31,2.47,12.26,6.06,1.72,2.1,3.57,4.37,5.25,6.5,1.58,2.05,3.24,4.35,5.25,6,2.3.09,4.7.02,7,.04,3.41-2.87,6.06-6.75,8.76-10.28,2.22-2.97,4.45-6.43,7.88-8.11,4.87-2.18,7.83,2.47,12.26,1.41,7.03-2.22,10.93-6.45,16.64,1.25,4.19,5.46,11.07,7.47,16.64,11.11,1.62.93,3.21,2.78,5.25,2.36,4.26-1.43,6.69-6.54,9.63-9.71,3.02-3.59,5.89-5.04,8.76-.3,2.37,3.8,4.18,8.2,6.13,12.21,18.09.14,36.2,0,54.29.05"/><path class="b" d="M8,134.56c4.97-1.51,9.27,2.29,12.26,5.82,3.03,3.43,5.8,7.23,8.76,10.72,3.47.17,7.04.15,10.51.01,2.85-3.3,5.55-6.95,7.88-10.64,2.16-3.19,4.34-6.9,7.88-8.71,4.47-2.08,7.25,1.98,11.38.98,6.36-1.97,10.46-5.67,15.76.95,4.49,6.69,10.98,8.68,17.51,12.58,1.4.78,2.74,2.18,4.38,2.41,4.35-.03,7.58-5.93,10.51-8.68,1.72-1.87,4.67-4.11,7-1.91,3.56,3.65,5.07,8.93,7.88,13.1h54.29"/><path class="b" d="M8,135.46c7.03-1.89,11.77,5.13,15.76,9.74,1.49,1.51,2.58,3.83,4.38,4.98h12.26c2.63-3.02,4.98-6.52,7.01-9.98,2.21-3.55,4.34-7.61,7.88-10.01,4.61-2.82,7.12,1.19,11.38.27,6.68-1.97,10.44-4.96,15.76,1.79,4.34,6.54,10.09,8.65,16.64,12.18,1.76.86,3.31,2.53,5.25,2.94,4.34.16,7.46-5.01,10.51-7.54,3.29-3.08,6.05-3.46,8.76.56,1.22,1.73,2.47,3.93,3.5,5.78.7,1.2,1.52,3.08,2.63,3.99h54.29"/><path class="b" d="M8,136.24c4.89-1.43,9.24,2.06,12.26,5.54,2.06,2.35,4.21,4.86,6.13,7.33,4.94.13,9.95.1,14.89.01,2.6-3.35,5-7.05,7-10.79,2.15-3.6,4.25-7.75,7.88-10.07,4.85-2.64,6.93,1.8,12.26-.15,13.33-4.97,12.04,4.44,21.01,10.06,3.03,1.96,6.5,3.3,9.63,5.07,2.25,1.08,4.28,3.58,7,2.9,3.89-1.16,6.4-4.82,9.63-7.06,4.6-3.49,7.18.15,9.63,3.92.79,1.22,1.85,2.92,2.63,4.16.22.54,1.19,1.76,1.75,2.02h54.29"/><path class="b" d="M8,137.22c6.46-1.72,11.16,4.22,14.89,8.57.77.75,1.48,2.17,2.63,2.37,1.41,0,2.97,0,4.38,0,2.89,0,5.86,0,8.76,0,3.7.14,3.17-.05,5.25-2.84,4.22-5.59,7.48-16.58,14.01-19.38,2.68-1.05,5.22.83,7.88.79,3.21-.13,6.39-1.61,9.63-1.01,4.99.84,7.17,5.96,10.51,9.12,2.24,2.14,5.08,3.69,7.88,4.97,2.03.94,4.2,1.92,6.13,3.05,1.67.9,3.24,2.54,5.25,2.55,3.1-.12,5.55-2.54,7.88-4.32,2.17-1.68,5-4.05,7.88-2.72,3.45,2.23,5.34,6.34,7.88,9.46.74.43,1.81.35,2.63.34,1.41,0,2.97,0,4.38,0,4.07,0,8.19,0,12.26,0,11.96,0,23.94,0,35.9,0"/><path class="b" d="M8,138.35c6.45-1.63,11.11,4.34,14.89,8.62,2.26.4,4.71.08,7.01.18,4.07,0,8.19,0,12.26,0,5.76-5.82,8.89-20.3,16.64-23.05,2.37-.7,4.66.76,7,.82,3.48.04,7.18-.96,10.51.51,6.94,3.27,6.6,9.27,15.76,13.16,2.92,1.33,6.02,2.53,8.76,4.23,5.62,4.61,9.16.07,14.01-2.96,2.03-1.37,4.89-2.27,7-.58,2.7,2.2,4.59,5.39,7.01,7.87h55.16"/><path class="b" d="M8,139.5c5.51-1.39,9.62,3.14,13.13,6.64,4.65,0,9.36,0,14.01,0,1.7,0,3.55,0,5.25,0,.8,0,1.89.08,2.63-.31,4.95-5.77,9.47-23.12,17.51-23.52,1.76-.03,3.51.82,5.25.95,2.91.27,5.99.13,8.76,1.2,6.17,2.21,8.05,8.35,13.13,11.75,2.67,1.8,5.82,2.86,8.76,4.13,1.45.63,3.02,1.42,4.38,2.23,1.32.82,2.75,1.94,4.38,1.98,5.31-.01,8.72-5.81,14.01-5.86,2.63.19,4.43,2.59,6.13,4.35,3.13,3.46,2.31,3.15,7.01,3.1,3.19,0,6.45,0,9.63,0,14,0,28.03,0,42.03,0"/><path class="b" d="M8,140.57c2.77-.64,5.67.35,7.88,2.04,1.17.7,2.12,2.27,3.5,2.52,7.87,0,15.77,0,23.64,0,5.3-5.77,8.78-21.67,16.64-24.06,2.05-.5,4.13.43,6.13.74,2.98.49,6.09,1.03,8.76,2.52,2.71,1.48,5.05,3.74,7.01,6.1,1.74,2.27,3.64,4.67,6.13,6.15,2.69,1.68,5.85,2.61,8.76,3.84,1.45.61,3.02,1.38,4.38,2.18,1.32.8,2.76,1.89,4.38,1.9,5.47,0,9.27-6.38,14.89-5.35,2.85.95,4.77,3.69,7.01,5.57.7.51,1.81.42,2.63.41,1.09,0,2.41,0,3.5,0,3.77,0,7.61,0,11.38,0,13.13,0,26.27,0,39.4,0"/><path class="b" d="M8,141.48c2.43-.52,5,.27,7,1.66,1.03.95,2.18,1.07,3.5.98,5.53,0,11.11,0,16.64,0,1.7,0,3.55,0,5.25,0,1.12-.06,2.51.24,3.5-.41,4.42-6.08,8.94-22.66,16.64-23.93,1.75-.21,3.57.43,5.25.81,3.1.74,6.17,1.99,8.76,3.86,2.62,1.87,4.96,4.32,7.01,6.8,2.06,2.8,4.61,5.45,7.88,6.8,2.55,1.13,5.33,1.93,7.88,3.06,1.78.78,3.61,1.79,5.25,2.82,1.07.3,2.4.15,3.5.18,1.96.3,3.64-.86,5.25-1.82,3.05-1.87,7.04-4.51,10.51-2.12,1.82,1.12,3.28,3.12,5.25,3.94,1.1,0,2.41,0,3.5,0,4.95,0,9.94,0,14.89,0,12.84,0,25.69,0,38.53,0"/><path class="b" d="M8,142.16c1.1-.2,2.42-.15,3.5.15.8.22,1.77.8,2.63.8,9.92,0,19.86,0,29.77,0,4.67-6.47,8.29-20.93,15.76-23.98,4.92-1.26,11.28,2.49,14.89,5.66,2.53,2.22,4.87,4.86,7.01,7.45,1.67,2.18,3.63,4.39,6.13,5.64,2.48,1.29,5.29,2.02,7.88,3.02,1.44.55,3.01,1.27,4.38,2,1.07.35,2.4.17,3.5.21,1.4,0,2.97,0,4.38,0,.79,0,1.86.05,2.63-.17.78-.48,1.84-1.15,2.63-1.63,4.69-2.87,7.23-2.72,11.38.88.89.97,2.28.99,3.5.92,1.4,0,2.98,0,4.38,0,4.36,0,8.77,0,13.13,0,12.84,0,25.69,0,38.53,0"/><path class="b" d="M8,142.1h35.9c1.17-.89,1.94-2.88,2.63-4.14,1.12-2.24,2.39-4.94,3.5-7.19,5.45-11.07,10.39-17.51,21.89-7.95,2.87,2.49,5.45,5.47,7.88,8.37,1.91,2.2,3.66,4.85,6.13,6.48,2.63,1.74,5.83,2.46,8.76,3.54.78.28,1.8.77,2.63.88.44,0,1.31,0,1.75,0,2,0,4.13,0,6.13,0,2.29-.11,4.76.26,7.01-.2,1.32-.89,2.86-1.83,4.38-2.34,3.15-1.14,5.47.62,7.88,2.4.77.19,1.84.14,2.63.14,18.97,0,37.95,0,56.92,0"/><path class="b" d="M8,141.09c7.87,0,15.77,0,23.64,0,2.6,0,5.28,0,7.88,0,1.1,0,2.41,0,3.5,0,.48.09,1.34-.12,1.75-.37,5.97-10,11.59-32.44,26.27-18.44,3.86,3.68,7.09,8.08,10.51,12.15,1.81,2.36,4.16,4.46,7,5.45,1.38.44,2.91,1.24,4.38,1.21,6.41,0,12.85,0,19.26,0,.9.17,1.9-.47,2.63-.94,1.02-.58,2.33-1.09,3.5-1.2,1.17-.1,2.51.27,3.5.88.76.45,1.68,1.32,2.63,1.25,6.12,0,12.27,0,18.39,0,13.71,0,27.44,0,41.15,0"/><path class="b" d="M8,140.08h36.78c5.42-8.98,12.1-31.56,25.39-18.33,3.86,3.88,7.03,8.52,10.51,12.73,1.71,2.1,3.61,4.35,6.13,5.48,1.39.23,2.97.08,4.38.12,5.24,0,10.52,0,15.76,0,1.71,0,3.55,0,5.25,0,1.16.04,2.55.07,3.5-.7,1.86-1.05,4.28-1.22,6.13-.04.92.83,2.34.77,3.5.74,19.55,0,39.12,0,58.67,0"/><path class="b" d="M8,139.07h36.78c2.21-2.72,3.46-6.48,5.25-9.49,2.24-3.96,4.6-8.49,8.76-10.73,2.45-1.15,5.59-1.34,7.88.26,4.73,3.37,7.83,8.59,11.38,13.08,1.89,2.32,3.7,5.08,6.13,6.87,7.29,0,14.6,0,21.89,0,2.89,0,5.86,0,8.76,0,.5-.01,1.34-.34,1.75-.62.75-.34,1.8-.61,2.63-.6,1.21.01,2.45.7,3.5,1.22,1.71,0,3.55,0,5.25,0,5.24,0,10.52,0,15.76,0,13.42,0,26.86,0,40.28,0"/><path class="b" d="M8,138.06h36.78l.88-.53c3.58-6.14,7.44-16.91,14.89-18.84,2.63-.64,4.92-.37,7.01,1.47,4.19,3.66,7.13,8.61,10.51,12.98,1.34,1.61,2.61,3.75,4.38,4.93,7.58,0,15.19,0,22.77,0,3.48,0,7.03,0,10.51,0,1.11-.33,2.31-1.05,3.5-1.04,1.2-.05,2.4.69,3.5,1.04,1.71,0,3.55,0,5.25,0,4.95,0,9.94,0,14.89,0,13.71,0,27.44,0,41.15,0"/><path class="b" d="M8,137.05c12.54-.01,25.11.02,37.65-.01,3.76-6.36,7.56-16.64,15.76-17.87,1.79-.37,3.76-.27,5.25.89,5.82,4.55,8.93,11.73,14.01,16.99,7.87,0,15.77,0,23.64,0,3.77,0,7.61,0,11.38,0,1.18,0,2.29-1.02,3.5-1.02,1.2-.1,2.43.59,3.5,1.03.78,0,1.85,0,2.63,0,5.82,0,11.69,0,17.51,0,13.71,0,27.44,0,41.15,0"/><path class="b" d="M8,136.04h37.65c2.3-2.92,3.8-6.69,6.13-9.62,1.97-2.67,4.57-5.27,7.88-6.11,1.67-.33,3.57-.86,5.25-.45,5.25,2.06,10.11,11.41,14.01,15.84,1.5.68,3.61.21,5.25.34,2.89,0,5.86,0,8.76,0,7.87-.02,15.77.05,23.64-.03,1.22-.9,2.9-1.44,4.38-.92.82.29,1.71,1.09,2.63.95,2.3,0,4.7,0,7.01,0,17.8,0,35.61,0,53.41,0"/><path class="b" d="M8,135.03c8.16,0,16.35,0,24.52,0,2.89,0,5.87,0,8.76,0,1.1,0,2.41,0,3.5,0,.49.1,1.35-.14,1.75-.44,3.18-5.31,6.57-11.99,13.13-13.46,1.98-.28,4.23-1.11,6.13-.16,2.5,1.34,4.38,3.79,6.13,5.96,2.03,2.62,4.05,5.5,6.13,8.08,12.83,0,25.69.09,38.53-.03,2.89-2.25,4.13-1.29,7,.05,2.6,0,5.28,0,7.88,0,17.51,0,35.03,0,52.54,0"/><path class="b" d="M8,133.65c1.12-.04,2.38.48,3.5.37,3.77,0,7.61,0,11.38,0,7.87,0,15.77,0,23.64,0,3.28-4.93,6.69-11.14,13.13-12.09,1.99-.18,4.21-1.11,6.13-.23,4.93,2.79,7.63,8.26,11.38,12.31,8.45,0,16.94,0,25.39,0,4.65-.1,9.38.21,14.01-.13,1.37-1.33,3.49-2.13,5.25-1.08.76.44,1.76,1.05,2.63,1.21,2.3,0,4.7,0,7.01,0,17.51,0,35.03,0,52.54,0"/><path class="b" d="M8,131.48c1.6-.14,2.98.97,4.38,1.53,3.48,0,7.03,0,10.51,0,7.87,0,15.77,0,23.64,0,1.49-.78,2.33-3.09,3.5-4.33,3.49-4.54,6.66-5.91,12.26-6.39,2.71-.96,5.16.75,7,2.61,2.5,2.49,4.72,5.44,7.01,8.12,9.04,0,18.1,0,27.14,0,4.07,0,8.19,0,12.26,0,.58-.01,1.38-.59,1.75-1,.7-.53,1.74-1.02,2.63-1.03,2.17.12,3.88,2.3,6.13,2.04,5.82,0,11.69,0,17.51,0,13.13,0,26.27,0,39.4,0l.88-.52"/><path class="b" d="M8,129.32c2.03-.05,3.84,1.35,5.25,2.67,11.38.01,22.77,0,34.15,0,3.49-4.89,6.67-8.73,13.13-8.95,1.43-.05,2.95-.68,4.38-.5,4.15,1.16,6.78,5.19,9.63,8.15.98,1.43,1.94,1.34,3.5,1.29,1.71,0,3.55,0,5.25,0,5.53,0,11.11,0,16.64,0,5.24,0,10.52,0,15.76,0,.58-.05,1.39-.69,1.75-1.12,1.17-1.03,2.95-1.53,4.38-.73,1.33.76,2.88,1.51,4.38,1.85,1.7,0,3.55,0,5.25,0,4.07,0,8.19,0,12.26,0,12.54,0,25.11,0,37.65,0,1.03-.47,1.87-1.79,2.63-2.58"/><path class="b" d="M8,127.28c2.48,0,4.49,1.94,6.13,3.59,10.19.32,20.44.01,30.65.11,1.12-.06,2.51.24,3.5-.39,1.43-1.99,3.18-4.05,5.25-5.4,2.56-1.77,5.8-1.75,8.76-2.14,2.22-.78,4.32-.1,6.13,1.29,2.55,1.9,4.74,4.42,7.01,6.64,9.33,0,18.69,0,28.02,0,4.07,0,8.19,0,12.26,0,.65-.04,1.36-.66,1.75-1.13.68-.59,1.72-1.18,2.63-1.26,1.23-.05,2.42.8,3.5,1.28,1.05.47,2.37.87,3.5,1.07,5.53.12,11.11,0,16.64.04,11.96,0,23.94,0,35.9,0,1.53-1.33,2.95-3.11,4.38-4.54"/><path class="b" d="M8,125.49c2.92.07,5.08,2.57,7,4.49h33.27c3.44-3.83,5.83-6.6,11.38-6.85,1.74,0,3.53-.68,5.25-.66,4.33.84,7.32,4.7,10.51,7.46,13.71.08,27.45.13,41.15-.01,4.11-4.65,5.77-.42,10.51-.1,2.3.28,4.7-.12,7-.21,1.11-.05,2.42.15,3.5.38.78,0,1.85,0,2.63,0,8.45,0,16.94,0,25.39,0,2,0,4.13,0,6.13,0,1.41-.04,3.02.16,4.38-.31,3.29-.89,5.5-3.74,7.88-5.97"/><path class="b" d="M8,123.63c3.4.14,5.53,3.31,7.88,5.34,6.99,0,14.02,0,21.02,0,2.6,0,5.28,0,7.88,0,1.4-.06,3.01.17,4.38-.19,2.97-3.96,6.38-6.01,11.38-6.08,1.43-.03,2.95-.63,4.38-.59,3.79.51,6.73,3.46,9.63,5.7.4.37,1.24.97,1.75,1.16.78,0,1.85,0,2.63,0,2,0,4.13,0,6.13,0,10.5,0,21.02,0,31.52,0,5.95-5.05,4.6,1.61,15.76-.53,1.4-.2,2.98-.36,4.38-.13,1.1.29,2.33.82,3.5.66,5.24,0,10.52,0,15.76,0,4.35-.09,8.8.19,13.13-.12,2.52-1.07,5.36-1.47,7.88-2.53,2.74-1.08,4.82-3.4,7-5.28"/><path class="b" d="M8,121.54c3.89.29,6.03,4.17,8.76,6.42h32.4c.93-.56,1.82-1.75,2.63-2.46,1.23-1.1,2.79-2.08,4.38-2.53,2.55-.7,5.33-.4,7.88-1.08,4.31-.18,7.9,2.99,11.38,5.13,1.07.91,2.16,1.05,3.5.95,1.71,0,3.55,0,5.25,0,5.24,0,10.52,0,15.76,0,5.53,0,11.11,0,16.64,0,.53-.05,1.37-.54,1.75-.9,1-.64,2.4-.85,3.5-.37,3.82,2.03,8.21,1.16,12.26.49,1.1-.13,2.43-.11,3.5.2.75.3,1.8.69,2.63.58,9.04,0,18.11,0,27.14,0,3.16-2.33,7.03-3.4,10.51-5.1,2.24-1.1,4.16-2.93,6.13-4.43"/><path class="b" d="M8,119.32c4.41.47,6.5,5.15,9.63,7.63,10.79-.08,21.62.16,32.4-.09,2.79-3.44,6.09-4.93,10.51-4.75,1.12,0,2.41-.2,3.5-.42,1.12-.11,2.43.08,3.5.38,2.72.8,5.34,2.13,7.88,3.35.79.39,1.85.93,2.63,1.35.78.23,1.83.18,2.63.18,8.45,0,16.94,0,25.39,0,3.77,0,7.61,0,11.38,0,1.06-.48,2.29-1.19,3.5-1.02,1.12.23,2.35.88,3.5,1.02.78,0,1.85,0,2.63,0,1.1,0,2.41,0,3.5,0,1.41-.18,2.96-.54,4.38-.62.79-.05,1.86.03,2.63.23.4.2,1.3.4,1.75.39,6.41,0,12.86,0,19.26,0,2.6,0,5.29,0,7.88,0,1.54-.85,2.85-2.41,4.38-3.3,2.46-1.64,5.3-2.83,7.88-4.25,1.8-.97,3.55-2.36,5.25-3.48"/><path class="b" d="M8,117.07c3.47.46,5.77,3.71,7.88,6.2.75.84,1.51,2.3,2.63,2.67,10.5,0,21.02,0,31.52,0,3.87-3.23,5.17-4.46,10.51-4.16,1.72.13,3.53-.45,5.25-.29,4.17.52,8.28,1.88,12.26,3.22.81.31,1.87.8,2.63,1.23,2,.02,4.13,0,6.13,0,4.65,0,9.36,0,14.01,0,4.36,0,8.77,0,13.13,0,1.4,0,2.97,0,4.38,0,.77-.19,1.82-.5,2.63-.43,1.96.62,4.1.4,6.13.43,2.89.02,5.87.02,8.76-.15,3.76.32,7.61.08,11.38.15,6.41,0,12.86,0,19.26,0,2.22-2.68,4.9-5.14,7.88-6.95,3.15-1.86,6.51-3.51,9.63-5.41"/><path class="b" d="M8,114.88c4.81.89,7.6,6.46,10.51,9.95,9.61.29,19.28.01,28.9.1,1.11-.04,2.45.16,3.5-.25,1.59-1.72,3.74-3.18,6.13-3.39,1.41-.14,2.97.05,4.38.13,1.11.07,2.4-.19,3.5-.21,2.91.03,5.86.59,8.76.84,2.03.21,4.2.42,6.13,1.11,1.2.37,2.31,1.4,3.5,1.76,9.62,0,19.27,0,28.9,0,11.67,0,23.36,0,35.02,0,4.07,0,8.19,0,12.26,0,1.4,0,2.98,0,4.38,0,.79,0,1.9.09,2.63-.32,4.93-7.01,9.83-9.86,17.51-13.15"/><path class="b" d="M8,112.83c3.56.59,5.83,3.99,7.88,6.65,1.1,1.38,2.06,3.38,3.5,4.44,10.5,0,21.02,0,31.52,0,2.66-3.02,5.76-3.84,9.63-3.07,2.29.35,4.7-.1,7,.11,3.49.24,7.02-.35,10.51-.26,2.36.03,4.45,1.35,6.13,2.9.75.41,1.81.33,2.63.32,1.4,0,2.97,0,4.38,0,4.36,0,8.77,0,13.13,0,20.43,0,40.87,0,61.29,0,.61-.31,1.42-1.4,1.75-1.99.74-1.07,1.8-2.49,2.63-3.48,3.86-4.82,8.16-7.16,14.01-8.85"/><path class="b" d="M8,110.96c5.37,1.1,8.28,7.95,11.38,11.95h31.52c5.36-5.38,7.81-2.12,14.01-2.44,2.31.05,4.73.03,7-.4,6.98-1.45,8.45-2.68,14.01,2.76,26.55.23,53.13,0,79.68.08,5.28-7.54,8.34-13.53,18.39-14.88"/><path class="b" d="M8,109.34c5.42,1.05,8.47,8.17,11.38,12.34,1.36.43,2.97.16,4.38.23,2.3,0,4.7,0,7.01,0,6.7,0,13.44,0,20.14,0,5.46-5.58,7.77-1.95,14.01-1.99,2.32.12,4.77-.03,7-.7,6.79-2.13,8.32-4.22,14.01,1.53.96,1.27,2.06,1.22,3.5,1.17,1.1,0,2.4,0,3.5,0,3.77,0,7.61,0,11.38,0,20.43-.07,40.87.14,61.29-.07,2.95-5.06,6.08-10.73,11.38-13.64,2.12-1.1,4.66-1.29,7-1.42"/><path class="b" d="M8,107.98c5.55.98,8.56,8.23,11.38,12.52,1.27.71,2.97.28,4.38.39,2.3,0,4.7,0,7.01,0,6.7,0,13.44,0,20.14,0,5.21-5.96,7.92-1.95,14.01-1.68,2.33.22,4.8,0,7-.83,8.57-3.68,8.77-5.13,15.76,2.29,1.07.36,2.4.18,3.5.22,2,0,4.12,0,6.13,0,5.82,0,11.69,0,17.51,0,16.63,0,33.28,0,49.91,0,.71-.27,1.45-1.58,1.75-2.22.74-1.32,1.8-3.08,2.63-4.34,3.85-5.71,7.48-9.56,14.89-8.5"/><path class="b" d="M8,106.92c5.67.82,8.65,8.17,11.38,12.54.44.28,1.23.52,1.75.42,1.1,0,2.4,0,3.5,0,2.6,0,5.28,0,7.88,0,3.77,0,7.61,0,11.38,0,2.29-.11,4.75.25,7.01-.2,5.22-6.24,7.91-1.95,14.01-1.33,2.65.42,5.47.04,7.88-1.15,2.31-1.04,4.49-2.74,7.01-3.26,3.39-.56,6.46,3.9,8.76,5.94h76.18c3.42-5.28,6.09-12.15,12.26-14.78,2.23-.82,4.75-.41,7,.09"/><path class="b" d="M8,106.15c5.82.61,8.71,7.95,11.38,12.38,1.3.63,2.97.24,4.38.34,2,0,4.12,0,6.13,0,6.41,0,12.85,0,19.26,0,1.08.24,2.05-.74,2.63-1.53,1.51-1.69,3.83-2.91,6.13-2.28,1.47.36,2.97,1.16,4.38,1.68,3.1.89,6.58,1.43,9.63.07,2.43-.99,4.59-2.74,7.01-3.74,1.97-.86,3.73-.13,5.25,1.22,1.55,1.23,3.1,2.82,4.38,4.33,1.06.39,2.4.19,3.5.24,2,0,4.12,0,6.13,0,5.53,0,11.11,0,16.64,0,16.34,0,32.69,0,49.03,0l.88-.52c2.92-5.16,5.73-11.46,11.38-14.09,2.54-1.02,5.41-.3,7.88.6"/><path class="b" d="M8,105.67c5.95.29,8.78,7.58,11.38,12.04,3.74.39,7.62.04,11.38.16,6.41,0,12.85,0,19.26,0,3.37-3.84,5.36-6,10.51-3.25,3.17,1.53,7,2.73,10.51,1.77,3.17-.89,5.66-3.4,8.76-4.44,2.42-.78,4.44,1.32,6.13,2.75,1.17.92,2.09,2.63,3.5,3.16,3.77,0,7.61,0,11.38,0,21.01,0,42.03,0,63.04,0,3.19-5.26,5.99-12.43,12.26-14.58,2.67-.69,5.49.34,7.88,1.51"/><path class="b" d="M8,105.46c6.15-.07,8.69,6.96,11.38,11.4,10.21-.02,20.44.04,30.65-.02,1.87-3.02,4.89-6.39,8.76-4.59,2,.92,3.99,2.13,6.13,2.7,4.86,1.93,8.18.36,12.26-2.32,4.41-2.9,6.21-1.06,9.63,2.02.98.91,1.94,2.52,3.5,2.21,3.48,0,7.03,0,10.51,0,20.72,0,41.45,0,62.17,0,1.74-2.02,2.81-4.91,4.38-7.07,4.49-6.93,9.1-9.63,16.64-4.8"/><path class="b" d="M8,105.48c6.13-.68,8.54,6.25,11.38,10.37,6.7,0,13.44,0,20.14,0,2.3,0,4.7,0,7.01,0,1.12-.06,2.52.25,3.5-.42,5.87-9.24,8.13-4.3,15.76-1.49,2.17.94,4.73,1.36,7.01.53,2.15-.73,4.1-2.17,6.13-3.15,1.34-.67,3.08-.87,4.38.02,1.93,1.12,3.73,2.75,5.25,4.36,3.16.36,6.45.05,9.63.15,5.53,0,11.11,0,16.64,0,15.76,0,31.53,0,47.28,0,.68-.33,1.45-1.68,1.75-2.34.74-1.34,1.79-3.14,2.63-4.41,5.01-7.75,9.79-9.3,17.51-3.74"/><path class="b" d="M8,105.68c6.47-1.18,8.14,5.31,11.38,9.15h29.77c1.65-1.46,2.56-3.93,4.38-5.27,2.55-2.21,5.46-.85,7.88.77,1.34.84,2.99,1.47,4.38,2.22,2.11,1.11,4.62,1.95,7.01,1.34,2.16-.51,4.14-1.84,6.13-2.77,3.74-2.09,6.82,1.77,9.63,3.7h72.68c.8-.23,1.43-1.49,1.75-2.16.74-1.34,1.79-3.13,2.63-4.41,5.67-8.7,10.53-8.48,18.39-2.41"/><path class="b" d="M8,106.01c3.95-1.22,6.72,1.14,8.76,4.29.79,1.03,1.39,2.93,2.63,3.52h29.77c2.2-2.85,4.29-8.08,8.76-6.95,1.54.46,3.01,1.52,4.38,2.35,1.43.73,3.01,1.6,4.38,2.45,2.06,1.25,4.59,2.15,7.01,1.56,7.11-2.2,7.04-5.12,14.01.6,15.76,0,31.53,0,47.28,0,5.53,0,11.11,0,16.64,0,2,0,4.13,0,6.13,0,1.12-.07,2.53.26,3.5-.44,2.86-4.96,6.94-14.22,14.01-12.29,3.18,1.16,6.25,3.06,8.76,5.34"/><path class="b" d="M8,106.39c5.28-2.11,8.18,2.02,10.51,6.11,1.31.59,2.97.22,4.38.32,2.3,0,4.7,0,7.01,0,6.41,0,12.85,0,19.26,0,3.12-5.16,5.76-10.64,12.26-5.75,1.06.72,2.44,1.37,3.5,2.08,1.91,1.29,3.87,2.85,6.13,3.47,3.39.97,6.47-1.21,9.63-2,2.24-.43,4.31,1.12,6.13,2.21,15.76,0,31.53,0,47.28,0,5.53,0,11.11,0,16.64,0,2,0,4.13,0,6.13,0,1.11-.06,2.49.22,3.5-.36,3.36-6.13,8.33-16.61,16.64-10.68,2.36,1.63,5.01,3.13,7,5.22"/><path class="b" d="M8,106.73c5.23-2.5,7.97.68,10.51,4.94,3.75.34,7.62.04,11.38.13,6.41,0,12.85,0,19.26,0,2.43-4.32,5.6-10.95,11.38-6.82,1.37.95,3.02,1.78,4.38,2.74,1.4,1.05,2.89,2.32,4.38,3.25,1.75,1.32,4.09.71,6.13.83,2.13.29,4.04-1.1,6.13-1.2,1.52-.08,2.92,1,4.38,1.2,2.3,0,4.7,0,7.01,0,14.3,0,28.61,0,42.91,0,4.95,0,9.94,0,14.89,0,1.7,0,3.55,0,5.25,0,1.1-.05,2.47.19,3.5-.3,3.99-6.88,8.49-17.42,17.51-9.7,2.27,1.91,5,3.47,7,5.68"/><path class="b" d="M8,106.93c5.08-2.79,7.72-.67,10.51,3.75,10.19.31,20.44.01,30.65.11,2.49-4.21,5.52-11.2,11.38-7.16,1.38.94,3.05,1.78,4.38,2.78,1.43,1.14,2.91,2.54,4.38,3.63.92.89,2.32.77,3.5.76,1.71,0,3.55,0,5.25,0,1.41.09,2.97-.17,4.38-.13,2.87.31,5.87.05,8.76.13,14.59,0,29.19,0,43.78,0,4.95,0,9.94,0,14.89,0,1.7,0,3.55,0,5.25,0,1.1-.04,2.44.13,3.5-.19,3.45-5.27,7.88-16.81,15.76-10.95,1.82,1.28,3.53,2.98,5.25,4.38,1.5,1.07,3.15,2.32,4.38,3.72"/><path class="b" d="M8,107c4.84-2.9,7.43-1.96,10.51,2.59,1.37.36,2.97.13,4.38.19,2.3,0,4.7,0,7.01,0,6.41,0,12.85,0,19.26,0,2.42-3.5,5.08-10.62,10.51-7.83,1.73,1,3.65,2.05,5.25,3.25,1.74,1.44,3.39,3.28,5.25,4.57,29.18-.07,58.39.14,87.56-.08,3.44-4.13,6.37-14.13,13.13-12.52,2.79.94,4.91,3.31,7,5.26,1.88,1.89,4.38,3.27,6.13,5.3"/><path class="b" d="M8,107.19c4.49-2.77,7.17-2.98,10.51,1.5,10.2.23,20.44,0,30.65.08,2.68-3.31,4.91-10.66,10.51-8.02,1.75.96,3.68,2,5.25,3.23,1.79,1.45,3.27,3.6,5.25,4.79,18.68,0,37.36,0,56.04,0,6.41,0,12.85,0,19.26,0,2.3,0,4.71,0,7.01,0,1.4-.06,3.01.16,4.38-.18,3.24-3.61,4.87-8.69,8.76-11.72,4.75-3.44,9.14,2.23,12.26,5.32,1.83,1.96,4.37,3.33,6.13,5.36"/><path class="b" d="M8,107.44c4.41-2.52,6.48-3.54,10.51.33h30.65c1.18-.86,1.84-2.86,2.63-4.03,1.65-2.75,4.38-5.87,7.88-4.14,1.76.93,3.7,1.95,5.25,3.21,1.18,1.06,2.43,2.47,3.5,3.64.37.51,1.15,1.16,1.75,1.33,5.24,0,10.52,0,15.76,0,15.17,0,30.36,0,45.53,0,7.58,0,15.19,0,22.77,0,3.18.45,7.12-8.85,9.63-11.02,4.95-5.28,9.63.26,13.13,4.12,1.97,2.44,4.88,4.03,7,6.3"/><path class="b" d="M8,106.75c.83.01,1.92.1,2.63-.42,1.3-.67,2.9-1.21,4.38-.94.88.17,1.93.74,2.63,1.28.78.1,1.84.08,2.63.08,9.62,0,19.27,0,28.9,0,1.32-.61,1.82-2.75,2.63-3.86,1.07-1.72,2.45-3.72,4.38-4.55,2.15-.85,4.34.52,6.13,1.62,2.92,1.4,4.9,4.23,7.01,6.59,1.07.34,2.4.17,3.5.21,1.71,0,3.55,0,5.25,0,4.95,0,9.94,0,14.89,0,14.59,0,29.19,0,43.78,0,3.77,0,7.61,0,11.38,0,1.7,0,3.55,0,5.25,0,1.4-.19,2.52-1.61,3.5-2.52,2.96-2.94,4.57-7.22,7.88-9.82,4.9-3.51,9.27,2.66,12.26,5.93,1.92,2.49,4.84,4.07,7,6.29"/><path class="b" d="M8,105.74c8.74-.1,17.5.05,26.27,0,3.19,0,6.45,0,9.63,0,1.1,0,2.41,0,3.5,0,.81,0,1.9.09,2.63-.34,1.93-3.91,5.23-10.62,10.51-7.4,1.43.86,3.14,1.66,4.38,2.79,1.55,1.46,2.96,3.38,4.38,4.95,17.22,0,34.45,0,51.66,0,1.76.18,3.53-.51,5.25-.7,3.47-.33,7.03-.32,10.51-.57,1.4-.07,2.98-.1,4.38.05,1.74.21,3.54.79,5.25,1.14,4.76.4,6.98.05,10.51-3.41,2.67-2.51,4.31-6.09,7-8.55,5.12-4.45,10,2.49,13.13,6.07,1.92,2.38,4.54,4.22,7,5.97"/><path class="b" d="M8,104.73c14-.05,28.03.1,42.03-.05,2.85-5.5,5.51-11.24,12.26-6.38,1.68.81,3.21,2.2,4.38,3.64.76.85,1.61,2.22,2.63,2.8,16.63,0,33.28,0,49.91,0,2.14.22,4.04-1.28,6.13-1.51,4.33-.62,8.77-.9,13.13-1.18,2.68-.16,5.32.73,7.88,1.36,5.52,1.51,9.88-1.6,13.13-5.79,2.84-3.9,6.22-8.86,11.38-4.91,3.95,2.97,6.29,7.8,10.51,10.45.76.5,1.68,1.47,2.63,1.57"/><path class="b" d="M8,103.72h42.03c2.2-3.78,5.2-10.3,10.51-6.95,1.1.65,2.41,1.42,3.5,2.09,1.65,1.27,3.1,3.12,4.38,4.74,5.51.33,11.11.02,16.64.12,10.21,0,20.44,0,30.65,0,3.37.11,6.41-1.8,9.63-2.45,4.61-.71,9.34-1.3,14.01-1.41,2.69.02,5.28,1.15,7.88,1.69,4.92,1.24,9.23-1.6,12.26-5.26,3.51-4.61,6.81-8.43,12.26-3.48,2.53,2.3,4.6,5.25,7,7.67,1.23,1.26,2.97,2.21,4.38,3.25h.88"/><path class="b" d="M8,102.72h42.03c2.77-3.62,4.89-9.65,10.51-6.19,1.4.92,3.11,1.73,4.38,2.83,1.2.96,2.12,2.67,3.5,3.36,12.84,0,25.69,0,38.53,0,2.3,0,4.7.02,7.01-.02,1.67-.61,3.54-1.03,5.25-1.46,1.76-.4,3.5-1.31,5.25-1.73,2.27-.55,4.69-.79,7.01-1.06,3.75-.38,7.7-1.12,11.38.02,5.07,1.7,9.43,2.87,14.01-.81,2.33-1.71,4.01-4.31,6.13-6.23,8.5-6.65,13.46,10.91,21.01,11.29"/><path class="b" d="M8,101.71h42.03c.68-.27,1.45-1.5,1.75-2.12,1.06-1.62,2.45-3.52,4.38-4.13,2.27-.58,4.33,1.07,6.13,2.22.81.47,1.92,1.1,2.63,1.72.79.68,1.7,1.8,2.63,2.31,12.25,0,24.52,0,36.78,0,2.6-.03,5.29.06,7.88-.05,1.62-.85,3.49-1.5,5.25-1.96,2.37-.49,4.68-1.52,7-2.16,2.27-.54,4.69-.78,7.01-1.02,4.38-.51,8.97-.94,13.13.84,5.27,2.05,9.71,1.92,14.01-2.07,1.77-1.53,3.21-3.72,5.25-4.93,8.16-4.46,13.04,11.91,20.14,11.35"/><path class="b" d="M8,100.7c9.33,0,18.69,0,28.02,0,4.94-.09,9.96.19,14.89-.12,4.91-8.38,7.57-5.05,14.01-.88.92,1.1,2.2,1.04,3.5.99,1.71,0,3.55,0,5.25,0,8.75,0,17.52,0,26.27,0,3.48,0,7.03,0,10.51,0,1.46-.57,2.89-1.63,4.38-2.14,1.66-.66,3.54-1.11,5.25-1.59,1.12-.31,2.39-.86,3.5-1.18,1.96-.54,4.11-.78,6.13-.96,3.18-.24,6.45-.58,9.63-.29,5.01.54,9.71,4.32,14.89,2.64,2.33-.71,4.41-2.3,6.13-3.99,1.61-1.73,3.62-3.64,6.13-3.69,5.02.32,7.99,5.32,11.38,8.43.97.97,2.27,2.03,3.5,2.64.75.19,1.85.15,2.63.15"/><path class="b" d="M8,99.69h42.91c1.16-1.05,2.13-2.7,3.5-3.53,3.26-1.98,6.12,1.54,8.76,3.03,1.17.89,2.98.38,4.38.5,2.3,0,4.7,0,7.01,0,11.67,0,23.36,0,35.02,0,3.04-2.45,6.73-3.92,10.51-4.78,1.7-.5,3.48-1.26,5.25-1.5,4.03-.56,8.2-.62,12.26-.43,4.35.09,8.1,2.67,12.26,3.56,3.43.79,7.01-.49,9.63-2.72,1.62-1.36,3.18-3.17,5.25-3.87,5.13-1.55,8.93,3.62,12.26,6.69,1.27,1.1,2.63,2.79,4.38,3.05.77,0,1.85,0,2.63,0"/><path class="b" d="M8,98.68c9.33,0,18.69,0,28.02,0,5.23-.1,10.55.2,15.76-.12,3.54-4.44,5.84-2.58,9.63.12,15.75-.1,31.54.19,47.28-.1,3.63-3.43,7.5-4.86,12.26-5.98,5-1.94,10.53-1.37,15.76-.97,1.74.19,3.6.51,5.25,1.09,2.63.95,5.17,2.41,7.88,3.14,3.3.99,6.93.14,9.63-1.93,1.64-1.25,3.23-2.94,5.25-3.58,5.85-1.69,9.89,4.39,14.01,7.47,1.36,1.35,3.53.74,5.25.87"/><path class="b" d="M8,97.67c12.84,0,25.69,0,38.53,0,1.7,0,3.55,0,5.25,0,.53,0,1.37-.47,1.75-.83,1.69-1.09,3.82-.36,5.25.82,15.76.04,31.53,0,47.28.01,1.58.27,2.45-.94,3.5-1.86,1.03-.89,2.33-1.86,3.5-2.54,2.92-1.78,6.44-2.2,9.63-3.28,3.12-.84,6.47-.51,9.63-.15,2.92.37,5.94.81,8.76,1.71,3.58,1.2,6.78,3.57,10.51,4.33,2.34.51,4.91.1,7.01-1.08,1.52-.81,2.91-2.17,4.38-3.05,3.53-2.25,7.46-.89,10.51,1.53,1.12.85,2.42,1.93,3.5,2.82.71.56,1.67,1.5,2.63,1.56,1.4,0,2.98,0,4.38,0"/><path class="b" d="M8,96.66c30.06,0,60.13,0,90.19,0,2.6,0,5.28,0,7.88,0,.56-.15,1.39-.85,1.75-1.3,1.03-1.03,2.33-2.2,3.5-3.07,2.52-1.96,5.66-2.97,8.76-3.59,1.41-.32,2.93-.91,4.38-1.02,2.31-.21,4.74.16,7.01.6,4.8,1.02,9.75,2.11,14.01,4.66,14.93,8.86,13.95-3.02,23.64-1.43,3.32.8,6.02,3.19,8.76,5.09,2,.15,4.13.03,6.13.07"/><path class="b" d="M8,95.65h97.19c1.3-.78,2.37-2.29,3.5-3.29,1.54-1.47,3.34-2.92,5.25-3.88,1.88-.96,4.07-1.44,6.13-1.84,1.69-.38,3.49-1,5.25-.9,3.61.15,7.11,1.44,10.51,2.57,4,1.27,7.9,2.94,11.38,5.3,1.35.74,2.82,1.84,4.38,2.04,2.6,0,5.28.02,7.88-.01,6.62-4.51,9.82-4.7,16.64-.27,1.04.46,2.4.23,3.5.28,1.4,0,2.98,0,4.38,0"/><path class="b" d="M8,94.64h96.32c3.44-3.37,6.6-7.54,11.38-9.06,1.66-.56,3.54-.81,5.25-1.16,1.67-.48,3.53-.74,5.25-.42,3.67.64,7.11,2.36,10.51,3.8,2,.91,4.18,1.74,6.13,2.77,1.78,1.01,3.56,2.31,5.25,3.44.91.87,2.36.58,3.5.62,1.4,0,2.97,0,4.38,0,2.3-.07,4.72.15,7.01-.12.74-.4,1.82-.85,2.63-1.09,2.92-.91,6.09-.17,8.76,1.17,3.18.1,6.45.01,9.63.04"/><path class="b" d="M8,93.63c31.81-.09,63.64.17,95.44-.09,3.39-3.62,6.61-7.94,11.38-9.79,1.64-.63,3.52-.91,5.25-1.15,1.11-.15,2.38-.54,3.5-.6,2.76-.07,5.44,1.12,7.88,2.31,3.76,1.97,7.6,3.94,11.38,5.87,1.81.95,3.34,2.75,5.25,3.46.78,0,1.85,0,2.63,0,11.08,0,22.19,0,33.27,0"/><path class="b" d="M8,92.62c17.51,0,35.03,0,52.54,0,8.46,0,16.94,0,25.39,0,3.77,0,7.61,0,11.38,0,1.4,0,2.97,0,4.38,0,1.07-.26,1.9-1.52,2.63-2.27,2.39-2.66,4.82-5.56,7.88-7.48,2.33-1.5,5.17-2,7.88-2.24,3.91-.85,6.09-.46,9.63,1.45,4.39,2.5,8.65,5.34,13.13,7.67.81.53,1.88,1.34,2.63,1.96,0,0,.88.73.88.73,0,0,.88.17.88.17,12.25,0,24.52,0,36.78,0"/><path class="b" d="M8,91.61h92.82c1-.48,1.86-1.74,2.63-2.5,1.4-1.55,2.92-3.32,4.38-4.81,4.07-4.25,7.37-5.38,13.13-5.64,4.98-1.25,9.28,2.39,13.13,5.01,1.68,1.19,3.5,2.46,5.25,3.53,1.41.86,3.09,1.64,4.38,2.69.45.35,1.33,1.1,1.75,1.48,1.65.48,3.55.14,5.25.23,3.77,0,7.61,0,11.38,0,7.29,0,14.6,0,21.89,0"/><path class="b" d="M8,90.6c24.22,0,48.45,0,72.68,0,4.36,0,8.77,0,13.13,0,2,0,4.13,0,6.13,0,1.16-.34,1.79-1.92,2.63-2.69,4.7-5.13,8.88-11.18,16.64-10.92,2.02-.03,4.17-.64,6.13.1,3.96,1.41,7.16,4.42,10.51,6.87,1.91,1.46,4.02,2.9,6.13,4.06,1.18.69,2.29,1.95,3.5,2.59h38.53"/><path class="b" d="M8,89.59c19.84,0,39.7,0,59.54,0,6.99,0,14.02,0,21.01,0,3.77-.1,7.64.21,11.38-.14,1.34-2.41,3.43-4.49,5.25-6.52,2.47-2.71,5.19-5.6,8.76-6.8,1.94-.65,4.11-.66,6.13-.66,2.07-.16,4.2-.36,6.13.63,3.93,1.86,7.11,5.04,10.51,7.69,2.47,2.09,5.49,3.61,7.88,5.8h39.4"/><path class="b" d="M8,88.58h91.06c1.72-2.73,3.85-5.32,6.13-7.59,2.45-2.59,5.23-5.3,8.76-6.28,1.96-.55,4.12-.45,6.13-.41,2.05-.1,4.24-.27,6.13.72,3.99,1.92,7.17,5.23,10.51,8.06,2.15,2,4.8,3.57,7.01,5.5h40.28"/><path class="b" d="M8,87.57h90.19c1.62-1.66,2.69-4.11,4.38-5.72,3.63-3.72,7.56-8.27,13.13-8.55,1.71-.11,3.55.1,5.25.1,1.75-.18,3.65-.04,5.25.72,6.48,3.16,10.71,9.48,16.64,13.45h41.15"/><path class="b" d="M8,86.56h89.31c1.75-1.48,2.82-3.95,4.38-5.63,2.61-2.69,5.37-5.55,8.76-7.25,3.25-1.7,7-1.13,10.51-.97,8.23-.95,13.75,7.81,19.26,12.64.38.4,1.23,1.04,1.75,1.22.43,0,1.32,0,1.75,0,1.1,0,2.41,0,3.5,0,3.48,0,7.03,0,10.51,0,8.75,0,17.52,0,26.27,0"/><path class="b" d="M8,85.55h88.44c2.31-2.09,3.8-5.19,6.13-7.29,5.24-5.07,9.19-7.34,16.64-6.19,2,.24,4.16-.2,6.13.38,6.03,1.85,9.83,7.46,14.01,11.82.57.78,1.61,1.49,2.63,1.29,1.1,0,2.41,0,3.5,0,3.48,0,7.03,0,10.51,0,9.33,0,18.69,0,28.02,0"/><path class="b" d="M8,84.54c18.97,0,37.95,0,56.92,0,6.41,0,12.85,0,19.26,0,3.77-.09,7.63.19,11.38-.13,2.15-2.15,4.03-4.77,6.13-6.96,4.5-4.46,9.27-7.1,15.76-6.03,2.29.41,4.7.16,7.01.33,6.28.94,10.18,6.73,14.01,11.23.34.5,1.15,1.36,1.75,1.55,1.4,0,2.97,0,4.38,0,2.89,0,5.87,0,8.76,0,10.21,0,20.44,0,30.65,0"/><path class="b" d="M8,83.53c22.18,0,44.37,0,66.55,0,4.07,0,8.19,0,12.26,0,1.7,0,3.55,0,5.25,0,.43.03,1.32-.04,1.75-.14.45-.32,1.34-1.01,1.75-1.37,3.72-3.33,6.77-7.66,11.38-9.85,3.78-2,8.18-1.49,12.26-.94,2.3.28,4.74-.24,7.01.34,6.1,1.55,9.15,7.69,13.13,11.96h44.66"/><path class="b" d="M8,82.52c21.59,0,43.2,0,64.8,0,4.07,0,8.19,0,12.26,0,1.7,0,3.55,0,5.25,0,1.19-.28,2.47-.98,3.5-1.6,6.6-4.24,10.33-11.28,19.26-10.68,3.19.12,6.42.98,9.63.67,7.56-1.06,12.06,6.04,15.76,11.47,1.98.32,4.13.07,6.13.15,3.48,0,7.03,0,10.51,0,9.62,0,19.27,0,28.9,0"/><path class="b" d="M8,81.51c21.3,0,42.62,0,63.92,0,3.77,0,7.61,0,11.38,0,1.1,0,2.41,0,3.5,0,1.73-.59,3.6-1.27,5.25-2.04,9.77-4.61,11.11-11.53,23.64-9.36,1.7.23,3.54.47,5.25.48,1.4,0,2.97-.24,4.38-.22,4.17-.05,7.35,3.24,9.63,6.39,1.15,1.44,2.12,3.52,3.5,4.75h45.53"/><path class="b" d="M8,80.5c20.43,0,40.87,0,61.29,0,3.77,0,7.61,0,11.38,0,1.4,0,2.98,0,4.38,0,1.46-.51,2.95-1.44,4.38-2.05,4.9-2.13,9.58-4.79,14.01-7.77,3.45-1.95,7.61-1.6,11.38-1.05,3.46.59,7.03.64,10.51.16,6.11-.39,9.48,5.9,12.26,10.4.75.4,1.81.32,2.63.31,1.1,0,2.4,0,3.5,0,3.48,0,7.03,0,10.51,0,9.92,0,19.86,0,29.77,0"/><path class="b" d="M8,79.49c19.84,0,39.7,0,59.54,0,4.07,0,8.19,0,12.26,0,1.7-.05,3.56.12,5.25-.12.76-.56,1.83-1.3,2.63-1.8,3.55-2.28,7.57-3.79,11.38-5.56,2.06-.89,3.94-2.44,6.13-3.02,4.03-1,8.21.23,12.26.52,2.91.37,5.87-.12,8.76-.45,5.87-.13,8.64,6.22,11.38,10.42h46.41"/><path class="b" d="M8,78.48c5.82,0,11.69,0,17.51,0,1.8.2,3.44-1.1,5.25-.97,1.15.02,2.46.39,3.5.88,3.47.21,7.03.03,10.51.09,6.99,0,14.02,0,21.01,0,4.36,0,8.77,0,13.13,0,1.4,0,2.97,0,4.38,0,.96.12,2.01-.18,2.63-.96,3.69-3.42,8.36-5.47,13.13-6.88,2.09-.62,3.97-2.09,6.13-2.48,4.66-.7,9.33,1.02,14.01.89,1.09,0,2.41-.03,3.5-.16,1.4-.23,2.95-.66,4.38-.65,5.58.25,7.55,6.53,10.51,10.24h46.41"/><path class="b" d="M8,77.47c5.53,0,11.11,0,16.64,0,1.3.21,2.38-1.07,3.5-1.53,2.93-1.55,6.29-.33,8.76,1.53,16.05-.06,32.12.11,48.16-.06,3.58-3.99,7.75-6.98,13.13-7.85,1.12-.25,2.44-.59,3.5-1.03,1.04-.53,2.33-1.05,3.5-1.18,4.68-.33,9.31,1.35,14.01,1,1.1-.04,2.41-.08,3.5-.21,1.41-.26,2.94-.78,4.38-.84,3.72-.13,6.14,3.4,7.88,6.23.77,1.16,1.42,3.16,2.63,3.95h46.41"/><path class="b" d="M8,76.46h16.64c1.92-1.25,3.73-3.12,6.13-3.42,3.1-.51,5.54,1.81,7.88,3.42h46.41c4.59-4.77,6.94-7.72,14.01-8.31,1.48-.15,3.01-.75,4.38-1.28,3.16-.85,6.47.23,9.63.54,3.18.38,6.46.13,9.63-.16,1.7-.34,3.49-1.11,5.25-.99,4.67.71,6.75,6,8.76,9.69l.88.52c9.92,0,19.86,0,29.77,0,3.48,0,7.03,0,10.51,0,1.98-.12,4.22.3,6.13-.26"/><path class="b" d="M8,75.45c4.65,0,9.36,0,14.01,0,.82,0,1.9.1,2.63-.37.74-.74,1.8-1.7,2.63-2.34,4.78-3.85,8.67-1.07,12.26,2.71,13.13,0,26.27,0,39.4,0,2,0,4.13,0,6.13,0,1.46-.68,2.34-2.57,3.5-3.64,1.86-2.03,4.24-3.88,7-4.43,1.69-.35,3.56-.3,5.25-.58,1.41-.31,2.89-1.07,4.38-1.04,2.92-.02,5.84.85,8.76.96,2.9.14,5.87-.3,8.76-.52,1.71-.35,3.48-1.2,5.25-1.12,4.76.67,6.78,6.27,8.76,10.02.74.45,1.8.36,2.63.36,1.1,0,2.4,0,3.5,0,3.48,0,7.03,0,10.51,0,9.92,0,19.86,0,29.77,0l.88-1.29"/><path class="b" d="M8,74.44h15.76c6.69-7.27,10.02-7.47,16.64,0,15.17-.07,30.37.14,45.53-.08,2.89-4.18,6.65-8.79,12.26-8.46,1.1,0,2.42-.03,3.5-.29.77-.26,1.82-.59,2.63-.67,2.62-.19,5.28.58,7.88.76,3.5.33,7.03-.49,10.51-.72,1.99-.42,4.05-1.55,6.13-1.05,4.26,1.5,6.01,6.53,7.88,10.25,1.93.54,4.14.13,6.13.25,3.19,0,6.45,0,9.63,0,9.92,0,19.86,0,29.77,0,.65-.33,1.44-1.57,1.75-2.2"/><path class="b" d="M8,73.43c4.65,0,9.36,0,14.01,0,1.03.21,2.05-.58,2.63-1.35.75-.79,1.81-1.85,2.63-2.58,3.64-3.37,7.08-3.09,10.51.4,1.15,1.05,2.2,2.66,3.5,3.53h44.66c2.8-3.14,5.11-7.58,9.63-8.45,1.99-.4,4.14.02,6.13-.37,2.81-1.12,5.87-.4,8.76-.07,3.81.57,7.61-.54,11.38-.84,2.07-.06,4.03-1.36,6.13-1.24,4.79.69,6.87,6.96,8.76,10.77,1.96.43,4.13.1,6.13.2,3.48,0,7.03,0,10.51,0,9.62,0,19.27,0,28.9,0,.44-.73,1.32-2.21,1.75-2.95"/><path class="b" d="M8,72.42h14.89c1.82-1.53,3.38-3.61,5.25-5.09,5.49-4.73,9.71.72,13.13,4.89,1.95.44,4.13.1,6.13.2,3.19,0,6.45,0,9.63,0,9.62,0,19.27,0,28.9,0,1.53-.82,2.31-2.96,3.5-4.18,1.75-2.16,4.12-4.23,7-4.51,2-.23,4.19.24,6.13-.44,2.26-.68,4.72-.18,7.01.03,3.53.46,7.06-.33,10.51-.99,1.09-.18,2.43-.11,3.5-.42,1.09-.32,2.37-.77,3.5-.88,5.33-.17,7.71,7.23,9.63,11.2,1.07.33,2.4.16,3.5.2,2,0,4.13,0,6.13,0,5.53,0,11.11,0,16.64,0,4.07,0,8.19,0,12.26,0,1.4,0,2.98,0,4.38,0,.83.01,1.93.1,2.63-.45.43-.75,1.31-2.27,1.75-3.01"/><path class="b" d="M8,71.41h14.89c3.71-3.94,8.39-10.55,14.01-5.43,1.95,1.53,3.31,3.94,5.25,5.43,9.62,0,19.27,0,28.9,0,3.19,0,6.45,0,9.63,0,1.99-.12,4.2.29,6.13-.25,2.85-4.46,6.32-9.27,12.26-8.67,1.77.17,3.54-.49,5.25-.72,1.71-.12,3.55.11,5.25.2,3.24.26,6.49-.49,9.63-1.21,1.38-.35,2.99-.2,4.38-.52,1.66-.45,3.54-1.1,5.25-.51,4.35,2.03,5.98,7.38,7.88,11.44,1.93.53,4.14.13,6.13.25,3.19,0,6.45,0,9.63,0,9.62,0,19.27,0,28.9,0,1.25-.62,1.88-2.56,2.63-3.65"/><path class="b" d="M8,70.4h14.89c8.46-10.03,10.97-9.99,19.26,0h44.66c2.96-4.37,6.3-9.43,12.26-9.05,1.76.11,3.54-.53,5.25-.77,1.4-.11,2.97,0,4.38.06,3.56.27,7.08-.63,10.51-1.48,1.38-.36,2.99-.18,4.38-.46,1.67-.41,3.57-.98,5.25-.33,4.34,2.19,5.97,7.58,7.88,11.72.75.4,1.81.32,2.63.31,1.1,0,2.4,0,3.5,0,3.19,0,6.45,0,9.63,0,9.62,0,19.27,0,28.9,0,1.29-.54,1.88-2.53,2.63-3.61"/><path class="b" d="M8,69.39c4.94-.04,9.94.07,14.89-.05,1.52-1.95,3.4-3.89,5.25-5.54,2.82-2.49,5.92-2.62,8.76-.06,1.93,1.62,3.46,3.9,5.25,5.64h44.66c1.44-1,2.32-3.02,3.5-4.29,1.59-1.92,3.65-3.78,6.13-4.37,1.68-.42,3.56-.29,5.25-.59,2.24-.74,4.69-.57,7.01-.46,3.58.24,7.08-.79,10.51-1.68,1.08-.26,2.4-.31,3.5-.29,1.42-.17,2.94-.73,4.38-.75,5.34.3,7.71,7.97,9.63,12.09,1.02.57,2.39.29,3.5.35,1.71,0,3.55,0,5.25,0,4.95,0,9.94,0,14.89,0,4.65,0,9.36,0,14.01,0,1.7,0,3.55,0,5.25,0,.83.01,1.93.1,2.63-.44.43-.76,1.31-2.3,1.75-3.06"/><path class="b" d="M8,68.38c4.94-.05,9.95.11,14.89-.07,3.67-4.22,8.32-10.69,14.01-5.43,1.94,1.56,3.26,4.05,5.25,5.5h45.53c2.42-3.5,5.18-7.64,9.63-8.55,1.09-.22,2.4-.29,3.5-.4,1.11-.12,2.38-.54,3.5-.58,1.71-.06,3.55.16,5.25.18,3.29.13,6.49-.99,9.63-1.81,1.38-.4,2.98-.17,4.38-.42,1.67-.39,3.56-.99,5.25-.37,4.35,2.12,5.97,7.51,7.88,11.62,1.03.53,2.39.27,3.5.33,1.4,0,2.97,0,4.38,0,4.65,0,9.36,0,14.01,0,4.95,0,9.94,0,14.89,0,1.7,0,3.55,0,5.25,0,1.1-.05,2.46.18,3.5-.28.43-.76,1.31-2.28,1.75-3.04"/><path class="b" d="M8,67.37c4.94-.05,9.95.1,14.89-.06,7.61-9.27,10.87-10.21,18.39-.21,1.63.56,3.56.16,5.25.27,2.89,0,5.86,0,8.76,0,8.16,0,16.35,0,24.52,0,2.3,0,4.7,0,7.01,0,1.23.24,2.07-.76,2.63-1.69.72-.98,1.78-2.28,2.63-3.15,2.79-3,5.73-3.56,9.63-3.87,2.86-.77,5.86.08,8.76.03,3.32.04,6.44-1.4,9.63-2.08,1.09-.21,2.42,0,3.5-.26,1.09-.26,2.38-.67,3.5-.76,5.36-.04,7.72,7.53,9.63,11.55,2.24.48,4.71.1,7.01.21,3.77,0,7.61,0,11.38,0,9.04-.07,18.11.14,27.14-.08.44-.75,1.31-2.25,1.75-2.99"/><path class="b" d="M8,66.36c4.94-.04,9.94.08,14.89-.05,7.92-9.61,10.7-9.82,18.39.05h47.28c2.46-2.5,4.44-5.87,7.88-7.2,2.2-.86,4.7-.87,7-1.2,2.02-.03,4.12.51,6.13.63,3.32.31,6.52-.98,9.63-1.92,1.07-.32,2.39-.37,3.5-.33,1.44-.19,2.94-.87,4.38-1.05,5.35-.36,7.74,7.13,9.63,11.06h45.53c.47-.66,1.35-2.05,1.75-2.76"/><path class="b" d="M8,65.35c4.95-.03,9.94.07,14.89-.04,3.27-3.81,7.89-10.24,13.13-5.56,1.24,1.07,2.5,2.56,3.5,3.85.33.53,1.18,1.47,1.75,1.74h48.16c2.88-3.8,6.28-7.35,11.38-7.4,2.95-.57,5.86.41,8.76.79,3.33.44,6.53-.93,9.63-1.95,1.07-.34,2.39-.41,3.5-.38,1.45-.21,2.94-.97,4.38-1.24,5.51-.64,7.39,6.39,9.63,10.16h45.53c.55-.5,1.4-1.74,1.75-2.39"/><path class="b" d="M8,64.34c4.94-.04,9.94.07,14.89-.05,7.14-8.83,10.52-10.17,17.51-.25,1.04.49,2.39.25,3.5.3,1.41,0,2.97,0,4.38,0,4.95,0,9.94,0,14.89,0,5.82,0,11.69,0,17.51,0,2,0,4.13,0,6.13,0,1.1-.03,2.43.12,3.5-.19,3.9-4.95,7.58-7.09,14.01-6.29,2.01.42,4.07,1.2,6.13,1.35,3.06.29,5.95-1.09,8.76-2.07,1.06-.38,2.39-.46,3.5-.44,1.47-.25,2.94-1.08,4.38-1.45,5.46-1.13,7.05,5.76,9.63,9.08h45.53c.66-.25,1.44-1.37,1.75-1.97"/><path class="b" d="M8,63.33c4.94-.05,9.95.11,14.89-.07,7.27-9.05,10.56-10.06,17.51-.02,14.58.24,29.2,0,43.78.09,2,0,4.13,0,6.13,0,1.07-.2,1.85-1.48,2.63-2.14,2.96-3.03,7.3-4.12,11.38-3.14,1.71.49,3.5,1.27,5.25,1.61,3.36.76,6.59-.83,9.63-2.03,1.65-.7,3.65-.22,5.25-1.08,1.34-.61,2.87-1.4,4.38-1.36,3.72.47,5.45,4.7,7.01,7.64.71.6,1.77.51,2.63.49,1.4,0,2.97,0,4.38,0,4.07,0,8.19,0,12.26,0,6.12,0,12.27,0,18.39,0,2,0,4.13,0,6.13,0,1.1-.03,2.43.12,3.5-.19l.88-1.31"/><path class="b" d="M8,62.32c4.94-.09,9.96.19,14.89-.12,7.37-9.22,10.57-10.08,17.51.12,7.29,0,14.6,0,21.89,0,1.1,0,2.4.02,3.5-.03.98-.67,2.31-1.11,3.5-.97.85.11,1.9.55,2.63.99,1.4,0,2.97,0,4.38,0,3.48,0,7.03,0,10.51,0,1.4,0,2.97,0,4.38,0,.99-.24,1.84-1.34,2.63-1.94,1.24-1,2.82-1.9,4.38-2.27,6.94-1.67,9.99,4.24,16.64,1.97,1.75-.58,3.5-1.57,5.25-2.13,1.41-.38,3.08-.13,4.38-.93,6.38-3.96,8.33.18,11.38,5.3h47.28l.88-.99"/><path class="b" d="M8,61.31c3.19,0,6.45,0,9.63,0,1.7-.08,3.59.2,5.25-.19,7.42-9.32,10.55-10.23,17.51.13,7.86.17,15.77,0,23.64.06,3.09-3.33,6.4-3.09,9.63-.11,5.52.28,11.11.02,16.64.11.81,0,1.87.07,2.63-.27,1.26-1.06,2.8-2.08,4.38-2.58,2.57-.77,5.51-.45,7.88.8,2.16,1.13,4.49,2.34,7.01,2.04,2.53.19,4.77-1.42,7.01-2.36,1.32-.72,3.01-.49,4.38-.98,2.18-.96,4.48-3.05,7-2.06,1.45.64,2.65,2.14,3.5,3.43.34.65.97,1.76,1.75,1.97,5.24,0,10.52,0,15.76,0,6.99,0,14.02,0,21.01,0,2.3,0,4.71,0,7.01,0,1.41-.12,3.14.37,4.38-.44"/><path class="b" d="M8,60.3c3.19,0,6.45,0,9.63,0,1.7-.11,3.63.29,5.25-.28,7.43-9.32,10.48-10.55,17.51,0,.75.37,1.82.29,2.63.29,1.1,0,2.4,0,3.5,0,3.77,0,7.61,0,11.38,0,1.1,0,2.41,0,3.5,0,.51.11,1.34-.15,1.75-.46,4.51-5.24,7.82-3.85,12.26.46,6.12,0,12.27.02,18.39-.01,2.75-2.02,6.46-2.55,9.63-1.28.8.35,1.82.95,2.63,1.3,1.1,0,2.41,0,3.5,0,2.6,0,5.28,0,7.88,0,1.17-.17,2.34-1.04,3.5-1.28.79-.1,1.89-.12,2.63-.48,1.14-.55,2.38-1.42,3.5-2.01,3.94-2.01,5.6,1.26,7.88,3.76h49.03"/><path class="b" d="M8,59.29c4.65,0,9.36,0,14.01,0,1.13-.28,1.82-1.77,2.63-2.51,1.57-1.74,3.2-3.77,5.25-4.96,3.61-2.07,6.81,1.68,8.76,4.35.74.95,1.56,2.48,2.63,3.11h20.14c5.82-6.52,8.9-7.27,14.89-.32,1.31.59,2.97.22,4.38.32,2,0,4.13,0,6.13,0,2,0,4.13,0,6.13,0,.78,0,1.85,0,2.63,0,.43-.16,1.31-.41,1.75-.51,2.04-.53,4.13.23,6.13.51,4.65,0,9.36,0,14.01,0,2-.1,4.17.23,6.13-.2,4.53-2.75,6.47-4.85,10.51.2h49.91"/><path class="b" d="M8,58.28c4.36,0,8.77,0,13.13,0,1.15.24,2.06-.77,2.63-1.64.79-.87,1.85-2.09,2.63-2.97,6.75-8.15,10.53-1.41,14.89,4.61h19.26c3.01-3.59,7.26-8.96,12.26-5.22,2.02,1.37,3.45,3.63,5.25,5.22,14,0,28.03,0,42.03,0,1.7,0,3.55,0,5.25,0,3.3-1.87,4.66-2.85,7.88,0h50.79"/><path class="b" d="M8,57.27h14.01c3.74-2.71,7.49-11.61,13.13-7.9,2.97,1.99,4.41,5.68,7.01,7.9h17.51c7.78-9.8,11.65-10.57,19.26-.07,10.49.2,21.02,0,31.52.07,3.77,0,7.61,0,11.38,0,1.71,0,3.55,0,5.25,0,.81-.1,1.81-.57,2.63-.59.47,0,1.34.26,1.75.49,1.99.23,4.13.05,6.13.11,4.07,0,8.19,0,12.26,0,11.38,0,22.77,0,34.15,0"/><path class="b" d="M8,56.26h14.01c4.23-3.52,8.72-13.64,14.89-7.02,1.22,1.25,2.47,2.93,3.5,4.33.72.86,1.47,2.38,2.63,2.69,5.24,0,10.52,0,15.76,0,1.84-1.73,3.26-4.14,5.25-5.73,6.55-6.3,10.63-1.59,14.89,4.15,1.14,2.03,2.4,1.53,4.38,1.57,2,0,4.12,0,6.13,0,5.53,0,11.11,0,16.64,0,25.97,0,51.96,0,77.93,0"/><path class="b" d="M8,55.25h14.01c4.15-3.42,8.7-13.9,14.89-7.72,1.58,1.54,3.03,3.55,4.38,5.29.7.81,1.52,2.16,2.63,2.43,4.65,0,9.36,0,14.01,0,1.76-1.09,2.88-3.3,4.38-4.72,2.9-2.85,7.23-6.96,11.38-3.98,2.08,1.43,3.76,3.63,5.25,5.64.73.94,1.57,2.44,2.63,3.06h102.45"/><path class="b" d="M8,54.24h14.01c4.25-3.26,8.53-14.09,14.89-8.42,2.87,2.51,4.67,6.28,7.88,8.42,2.6,0,5.28,0,7.88,0,1.7-.09,3.6.23,5.25-.22,2.45-2.8,4.9-5.77,7.88-8.03,2.58-2.24,5.83-3.37,8.76-1.02,3.29,2.42,5.04,6.46,7.88,9.27h101.57"/><path class="b" d="M8,53.23h14.01c4.07-2.7,8.08-13.18,14.01-9.68,3.15,2.04,4.99,5.67,7.88,8,2.17,2,2.44,1.69,5.25,1.68,2.6,0,5.28,0,7.88,0,1.3-.86,2.44-2.37,3.5-3.5,1.27-1.49,2.9-2.94,4.38-4.21,3.1-2.91,6.71-5.28,10.51-1.94,3.23,2.63,4.96,6.78,7.88,9.65h100.7"/><path class="b" d="M8,52.22c3.48,0,7.03,0,10.51,0,5.02.09,3.73.2,7.01-3.43,2.51-2.82,5.16-8.09,9.63-7.07,2.57.91,4.35,3.33,6.13,5.27,1.75,1.97,3.96,3.74,6.13,5.22,3.18-.04,6.45.08,9.63-.06,1.52-1.28,3.01-2.94,4.38-4.37,1.32-1.39,2.99-2.73,4.38-4.06,3.92-3.77,7.41-4.84,11.38-.41,1.58,1.73,3.06,3.91,4.38,5.84.71.96,1.52,2.5,2.63,3.06h99.82"/><path class="b" d="M8,51.21c4.94-.04,9.94.09,14.89-.06,1.81-1.99,3.64-4.23,5.25-6.38,3-3.89,6.31-6.33,10.51-2.28,1.46,1.34,2.9,3.05,4.38,4.38,1.75,1.3,3.49,2.89,5.25,4.17,1.07.28,2.4.14,3.5.17,1.7-.03,3.55.07,5.25-.07,1.89-1.41,3.57-3.32,5.25-4.95,1.75-1.53,3.51-3.32,5.25-4.86,6.76-6.26,11.33,2.17,14.89,7.25.71.87,1.41,2.42,2.63,2.63,2.3,0,4.7,0,7.01,0,4.95,0,9.94,0,14.89,0,25.68,0,51.37,0,77.05,0"/><path class="b" d="M8,50.2h14.89c3.13-2.56,4.98-6.48,7.88-9.27,4-3.99,7.36-1.07,10.51,2.17,1.26,1.34,2.99,2.47,4.38,3.67,1.35,1.16,2.82,2.54,4.38,3.42,2.3-.01,4.7.02,7.01-.02,3.13-2.18,5.97-5.27,8.76-7.9,3.35-3.53,7.11-6.5,11.38-2.31,3.09,2.92,4.99,7,7.88,10.09,4.04.35,8.2.04,12.26.14,7.58,0,15.19,0,22.77,0,21.3,0,42.62,0,63.92,0"/><path class="b" d="M8,49.2c4.65,0,9.36,0,14.01,0,4.75.41,8.56-16.5,16.64-10.49,1.5,1.09,2.94,2.59,4.38,3.75,1.88,1.23,3.6,2.95,5.25,4.45,1.01.84,2.2,1.96,3.5,2.29.43,0,1.32,0,1.75,0,1.41-.12,3.13.35,4.38-.43,2.86-1.99,5.43-4.58,7.88-7.05,2.62-2.84,6.53-6.76,10.51-3.88,4.09,2.91,6.03,7.97,9.63,11.36h98.07"/><path class="b" d="M8,48.19c3.19,0,6.45,0,9.63,0,2-.1,4.18.24,6.13-.21,3.81-3.29,7.17-13.47,13.13-12.07,2.01.65,3.67,2.28,5.25,3.6,1.07.89,2.5,1.74,3.5,2.72,2.2,2.05,4.24,4.61,7.01,5.93.78.04,1.85.03,2.63.03,2.31.25,3.55-.61,5.25-2.04,2.83-2.29,5.31-5.11,7.88-7.66,8.85-8.41,12.62,5.51,18.39,9.69h97.19"/><path class="b" d="M8,47.18h15.76c3.91-3.52,6.64-12.59,12.26-13.14,2.41.07,4.34,1.94,6.13,3.34,1.87,1.28,3.79,2.76,5.25,4.51,1.32,1.43,2.81,3.06,4.38,4.22.41.29,1.28.81,1.75,1.01.44.04,1.31.07,1.75.06,1.12-.04,2.52.21,3.5-.46,2.26-1.34,4.29-3.29,6.13-5.15,2.12-2.2,4.17-4.86,7-6.16,6.32-2.66,11.1,8.01,14.89,11.76,32.4.04,64.8,0,97.19.01"/><path class="b" d="M8,46.17h15.76c5.27-4.51,8.59-19.38,17.51-11.41,1.73,1.37,3.84,2.52,5.25,4.25,2.22,2.21,5.39,7.24,8.76,7.16,1.1-.04,2.44.14,3.5-.22,1.95-.98,3.68-2.62,5.25-4.1,2.25-2.23,4.3-4.93,7.01-6.65,6.82-4.26,11.96,6.4,15.76,10.62,1.3.65,2.97.25,4.38.35,2.6,0,5.28,0,7.88,0,7.29,0,14.6,0,21.89,0,21.01,0,42.03,0,63.04,0"/><path class="b" d="M8,45.16h15.76c1.55-.95,2.52-3.03,3.5-4.5,1.33-2.2,2.77-4.7,4.38-6.7,3.59-4.48,6.51-3.48,10.51-.22,1.52,1.01,3.22,2.13,4.38,3.58,2.26,2.34,5.38,7.53,8.76,7.84,1.1,0,2.41.03,3.5-.04,2.35-1.09,4.32-3.07,6.13-4.88,5.61-6.15,9.99-10.19,16.64-2.38,1.15,1.32,2.45,2.96,3.5,4.36.73.9,1.53,2.43,2.63,2.94h96.32"/><path class="b" d="M8,44.15h15.76c1.15-.49,1.96-2.06,2.63-3.04.8-1.3,1.84-3.1,2.63-4.41,3.09-5.03,6.3-10,12.26-5,1.05.84,2.44,1.62,3.5,2.44.86.76,1.9,1.94,2.63,2.83,2.09,2.32,4.67,6.63,7.88,7.19,1.1,0,2.41,0,3.5,0,2.03-.73,3.7-2.44,5.25-3.87,5.04-5.12,9.87-10.99,16.64-4.29,1.55,1.48,3.1,3.32,4.38,5.04.74.94,1.55,2.5,2.63,3.12,25.39,0,50.79,0,76.18,0,.82.12,1.84-.34,2.63-.52,1.44-.28,2.98.26,4.38.52,4.36,0,8.77,0,13.13,0"/><path class="b" d="M8,43.14c3.48,0,7.03,0,10.51,0,1.1,0,2.4,0,3.5,0,.85.02,1.93.11,2.63-.48,3.52-4.28,5.43-11.3,10.51-13.94,2.62-.97,5.03,1.1,7.01,2.56,4.13,2.2,6.4,6.53,9.63,9.74,1.76,1.69,2.75,2.33,5.25,2.11,2.24.3,3.65-.87,5.25-2.25,4.33-3.69,9.33-10.94,15.76-7.47,2.36,1.32,4.41,3.39,6.13,5.45,1.17,1.27,2.01,3.36,3.5,4.28,24.81,0,49.62,0,74.43,0,.91.18,1.89-.55,2.63-.99,2.28-1.1,4.89-.09,7.01.93,4.06.15,8.19.02,12.26.06"/><path class="b" d="M8,42.13c5.24,0,10.52,0,15.76,0,1.67-.73,2.51-3.08,3.5-4.51,2.58-4.06,6.21-13.04,12.26-8.96,1.44.94,2.86,2.24,4.38,3.07,1.3.84,2.52,2.24,3.5,3.42,2.14,2.34,5.23,7.48,8.76,6.98.79,0,1.84,0,2.63,0,.47-.2,1.34-.7,1.75-.99,3.81-2.8,6.79-7.05,11.38-8.66,5.77-1.81,10.98,3.58,14.01,7.88.98,1.78,1.56,1.85,3.5,1.76,2,0,4.13,0,6.13,0,22.18,0,44.37,0,66.55,0,2.15-2.61,4.95-2.87,7.88-1.41,1.11.42,2.27,1.42,3.5,1.41,3.48,0,7.03,0,10.51,0"/><path class="b" d="M8,41.12c3.77,0,7.61,0,11.38,0,5.95.06,4.76.48,7.88-4.54,1.98-3.2,3.71-7.12,7-9.17,2.94-1.57,5.71,1.11,7.88,2.83,1.09.82,2.56,1.56,3.5,2.57,1.79,1.82,3.45,4.05,5.25,5.86,1.18,1.07,2.64,2.64,4.38,2.45,1.1-.03,2.42.1,3.5-.15.46-.23,1.34-.78,1.75-1.09,3.8-3,7.16-7.41,12.26-8.08,5.67-.53,11.31,4.61,14.01,9.19,3.16.32,6.45.04,9.63.13,5.53,0,11.11,0,16.64,0,16.05,0,32.11,0,48.16,0,2.76-3.99,5.76-3.73,9.63-1.45,1.08.49,2.24,1.63,3.5,1.45,3.19,0,6.45,0,9.63,0"/><path class="b" d="M8,40.11h15.76c.63-.2,1.43-1.18,1.75-1.73.83-1.26,1.86-3.03,2.63-4.33,2.48-4.12,6.07-10.56,11.38-6.01,1.11.87,2.35,2.03,3.5,2.85,1.25.66,2.54,1.74,3.5,2.78,2.06,1.96,4.93,6.28,7.88,6.45,1.1,0,2.41,0,3.5,0,1.63-.66,3.1-1.99,4.38-3.17,4-4.09,9.13-7.24,14.89-4.66,2.16.92,4.26,2.29,6.13,3.7,1.3,1.11,2.38,2.85,3.5,4.13h73.55c1.61-1.93,3.22-4.41,6.13-3.82,2.91.55,5.14,2.9,7.88,3.82,3.19,0,6.45,0,9.63,0"/><path class="b" d="M8,39.1h15.76c1.14-.56,1.95-2.17,2.63-3.18,1.61-2.59,3.19-5.53,5.25-7.79,3.52-3.87,6.66-1.29,9.63,1.62.97.98,2.35,1.84,3.5,2.59,1.19.94,2.44,2.24,3.5,3.31,1.27,1.26,2.76,2.65,4.38,3.44,1.1.01,2.41,0,3.5,0,.86.1,1.95-.2,2.63-.74,3.67-2.64,6.51-7.09,11.38-7.53,4.48-.48,8.55,2.1,12.26,4.29.94.5,1.96,1.5,2.63,2.32.27.53,1.17,1.48,1.75,1.67,5.82,0,11.69,0,17.51,0,2.89,0,5.86,0,8.76,0,.8-.14,1.81-.57,2.63-.57.81.02,1.83.45,2.63.57,1.1,0,2.41,0,3.5,0,3.48,0,7.03,0,10.51,0,9.04,0,18.11,0,27.14,0,1.37-.94,2.1-2.93,3.5-3.87,3.97-2.48,7.9,2.32,11.38,3.81,3.18.14,6.45.02,9.63.06"/><path class="b" d="M8,38.09h15.76c3.65-3,5.51-10.72,10.51-12.14,3.43-.36,5.57,3.17,7.88,5.14,1.7,1.33,3.73,2.5,5.25,4.07,1.51,1.23,3.1,3.21,5.25,2.93,1.1,0,2.41,0,3.5,0,.56.11,1.31-.16,1.75-.49,3.92-2.76,6.78-8.22,12.26-7.72,3.48.26,6.62,2.12,9.63,3.73,1.08.6,2.41,1.26,3.5,1.85.91.64,1.91,1.79,2.63,2.63,8.45,0,16.94,0,25.39,0,2.18-2.33,4.67-2.34,7.01-.25,1.06.41,2.4.21,3.5.25,9.62,0,19.27,0,28.9,0,2.6,0,5.28,0,7.88,0,1.17-.42,1.9-2.03,2.63-2.95.8-1.1,2.08-2.24,3.5-2.31,3.75.17,6.38,3.54,9.63,5.04,1.06.36,2.4.18,3.5.22,2,0,4.13,0,6.13,0"/><path class="b" d="M8,37.08h15.76c3.31-3.21,4.75-8.33,8.76-10.88,4.19-2.05,6.99,3.27,9.63,5.64.69.69,1.81,1.35,2.63,1.86,1.13.8,2.39,1.87,3.5,2.69.9.91,2.34.65,3.5.68,1.4,0,2.97,0,4.38,0,.62.04,1.33-.4,1.75-.82,1.18-1.02,2.45-2.39,3.5-3.55,6.91-8.87,13.55-.83,21.01,2.21,3.45,1.52,1.33,2.39,6.13,2.15,6.99,0,14.02,0,21.02,0,1.63-1.62,3.56-4.07,6.13-2.81,1.3.61,2.36,1.98,3.5,2.81,12.84,0,25.69,0,38.53,0,3.23-1.57,3.95-7.45,8.76-5.45,3.14,1.38,5.51,4.3,8.76,5.45,1.7,0,3.55,0,5.25,0,1.1-.24,2.4-.19,3.5,0"/><path class="b" d="M8,36.07h15.76c3.65-3.81,7.74-15.25,14.01-8.43,1.5,1.55,2.9,3.51,4.38,5.08,1.23,1.23,3.01,2.04,4.38,3.1.76.32,1.83.25,2.63.25,1.4,0,2.97,0,4.38,0,1.11-.05,2.48.2,3.5-.32,2.19-2.04,4.02-4.65,6.13-6.77,4.77-4.81,10.61,1.09,14.89,3.7,1.59,1.04,3.44,1.93,5.25,2.47.39.29,1.29.76,1.75.91.78,0,1.85,0,2.63,0,6.99-.1,14.04.2,21.01-.12,3.76-6.29,6.57-5.28,10.51.12h37.65c2.17-1.25,3.55-3.68,5.25-5.44,3.69-2.94,7.51,2.19,10.51,4,.73.51,1.78,1.14,2.63,1.44,1.4,0,2.97,0,4.38,0,.46.06,1.33-.08,1.75-.26.79-.21,1.87-.03,2.63.26"/><path class="b" d="M8,35.06c3.19,0,6.45,0,9.63,0,2-.08,4.16.19,6.13-.16,3.33-3.58,7.37-13.89,13.13-7.83,2.5,2.42,4.03,6.04,7,7.94,4.06.12,8.19.01,12.26.05,1.05-.45,1.92-1.78,2.63-2.62,1.88-2.24,3.49-5.19,6.13-6.61,5.77-2.29,11.82,8.28,18.39,9.14,4.93.26,9.94.02,14.89.1,2,0,4.13,0,6.13,0,1.11-.05,2.48.2,3.5-.33,4.1-7.83,7.26-6.69,11.38.3,7.87.08,15.77,0,23.64.03,2.89,0,5.86,0,8.76,0,1.83-.04,3.71.34,5.25-.89,1.25-.79,2.54-2,3.5-3.12,1.55-2.23,3.45-3.7,6.13-2.13,3.07,1.76,5.41,4.84,8.76,6.14,1.7,0,3.55,0,5.25,0,1.05-.52,2.46-.6,3.5-.01"/><path class="b" d="M8,34.05c4.95,0,9.94,0,14.89,0,1.15-.31,1.92-1.81,2.63-2.67,1.3-1.8,2.71-3.9,4.38-5.39,5.75-4.66,8.74,5.19,12.26,8.06h14.01c2.48-2.13,3.95-5.48,6.13-7.91,2.31-2.99,5-2.97,7.88-.76,3.35,2.22,8.26,9.07,12.26,8.67,5.24,0,10.52,0,15.76,0,1.7,0,3.55,0,5.25,0,1.1-.05,2.46.18,3.5-.28,4.47-9.29,7.6-8.61,12.26.05,2.19.51,4.75.1,7.01.23,4.36,0,8.77,0,13.13,0,3.78-.04,7.62.16,11.38-.27,3.61-.14,7.27-1.45,9.63-4.29,1.64-2.27,3.47-3.5,6.13-1.81,3.06,1.85,5.33,5.16,8.76,6.38,1.7,0,3.55,0,5.25,0,1.06-.47,2.45-.61,3.5-.04"/><path class="b" d="M8,33.04h14.89c3.63-2.62,6.7-12.22,12.26-7.68,1.32,1.19,2.54,2.94,3.5,4.43.74.99,1.41,2.77,2.63,3.25h14.89c2.97-3.08,4.45-7.67,7.88-10.36,3.39-2,6.54,1.8,8.76,3.97,2.17,2.23,4.3,4.79,7.01,6.39h26.27c4.73-10.39,7.87-11.02,13.13-.5.45.35,1.18.6,1.75.5,1.1,0,2.4,0,3.5,0,2.6,0,5.28,0,7.88,0,3.48,0,7.03,0,10.51,0,1.45-.13,2.89-1.05,4.38-1.14,7.43-.66,9.52.45,14.89-5.71,2.08-1.53,4.52.25,6.13,1.66,1.41,1.23,2.91,2.69,4.38,3.83.71.53,1.71,1.3,2.63,1.36,1.4,0,2.98,0,4.38,0,1.43.08,3-.74,4.38,0"/><path class="b" d="M8,32.03h14.89c3.18-3.11,7.07-12.28,12.26-7.11,2.13,1.99,3.22,5.09,5.25,7.11h15.76c5.81-7.15,7.1-17.85,16.64-6.48,1.37,1.54,2.88,3.3,4.38,4.72,1.54,1.49,2.19,1.93,4.38,1.76,7.87,0,15.77,0,23.64,0,2.31-3.55,5.57-13.46,10.51-6.9.9,1.2,1.93,2.99,2.63,4.31.3.7,1.11,2.13,1.75,2.58,6.7,0,13.44,0,20.14,0,.44,0,1.31,0,1.75,0,.45-.19,1.33-.64,1.75-.88,1.04-.5,2.36-.87,3.5-1.02,7.32-.53,9.45.87,14.89-5.21,2.14-1.47,4.54.45,6.13,1.88,1.4,1.28,2.9,2.79,4.38,3.98.4.33,1.3.95,1.75,1.22.43.03,1.32.05,1.75.04,1.7,0,3.55,0,5.25,0,.77-.2,1.85-.12,2.63,0"/><path class="b" d="M8,31.02c3.19,0,6.45,0,9.63,0,1.7-.08,3.59.2,5.25-.19,7.62-10.25,9.8-11.9,16.64.19h16.64c5.74-7.25,7-18.41,16.64-6.62,1.37,1.59,2.88,3.39,4.38,4.87,1.58,1.58,2.12,1.89,4.38,1.75,7.58,0,15.19,0,22.77,0,2.04-2.57,2.96-6.23,5.25-8.67,5.03-5.21,8.24,5.54,10.51,8.67h21.01c7.22-5.74,13.97.96,20.14-6.64,1.88-2.21,4.31-1.11,6.13.54,1.47,1.29,2.95,2.9,4.38,4.24,1.51,1.42,2.19,2.07,4.38,1.86,2.6,0,5.28,0,7.88,0"/><path class="b" d="M8,30.01h14.01c3.3-2.03,6.48-10.56,11.38-7.62,1.86,1.31,3.22,3.54,4.38,5.45.29.63,1.07,1.89,1.75,2.16h16.64c1.58-1.32,2.39-3.82,3.5-5.53,3.21-5.73,5.83-9.13,11.38-3.16,1.77,1.86,3.5,4.04,5.25,5.92,1.21,1.14,2.5,3.03,4.38,2.76,7.58,0,15.19,0,22.77,0,1.85-2.17,2.75-5.4,4.38-7.75,5.51-9.25,9.65,2.57,12.26,7.31.71.54,1.79.45,2.63.44,1.4,0,2.97,0,4.38,0,4.36,0,8.77,0,13.13,0,4.76-4.42,8.25-3.03,14.01-3.22,3.62-.22,5.48-2.26,7.88-4.61,3.77-2.34,8.5,5.73,11.38,7.78,3.48.11,7.03.01,10.51.05"/><path class="b" d="M8,29h14.01c2.11-2.07,3.87-4.73,6.13-6.67,4.89-4.26,8.34,3.16,10.51,6.67,3.77,0,7.61,0,11.38,0,1.4,0,2.97,0,4.38,0,.82.01,1.92.1,2.63-.4,5.16-9.19,7.27-16.92,16.64-5.48,1.35,1.54,2.86,3.27,4.38,4.65.39.38,1.25,1.01,1.75,1.23.44,0,1.32,0,1.75,0,6.99,0,14.02,0,21.01,0,2.8-3.8,3.91-9.21,7.88-12.07,4.94-2.3,8.09,9.14,10.51,12.07h18.39c5-5.13,7.5-3.99,14.01-3.73,4.13.05,6.03-1.91,8.76-4.57,4.31-2.26,8.17,6.48,11.38,8.29h10.51"/><path class="b" d="M8,27.99h14.01c1.25-1.73,2.92-3.44,4.38-4.99,2.4-2.58,5.13-3.89,7.88-.92.91.96,1.94,2.46,2.63,3.6.31.65,1.13,1.92,1.75,2.31h18.39c4.98-8.67,7.2-16.89,16.64-6.05,1.37,1.48,2.88,3.17,4.38,4.53.42.37,1.29,1.07,1.75,1.39.43.1,1.31.18,1.75.14,4.36,0,8.77,0,13.13,0,1.4,0,2.98,0,4.38,0,.8,0,1.89.08,2.63-.3,3.29-4.25,7.74-19.91,14.01-10.17,1.25,1.91,2.48,4.34,3.5,6.38.7,1.24,1.41,3.25,2.63,4.09h16.64c.99-.59,1.8-1.94,2.63-2.71,3.42-3.24,8.1-1.78,12.26-1.58,3.06.16,5.98-1.43,7.88-3.78,4.02-4.29,8.9,5.24,11.38,7.76,1.32.58,2.97.22,4.38.31,2.3,0,4.7,0,7,0"/><path class="b" d="M8,26.98c2.89,0,5.86,0,8.76,0,1.7-.13,3.66.33,5.25-.32,6.76-7.88,9.98-10.55,15.76.06.75.34,1.83.27,2.63.26,1.4,0,2.97,0,4.38,0,4.07,0,8.19,0,12.26,0,1.58-1.4,2.34-3.99,3.5-5.72,3.05-5.57,6.55-6.62,11.38-2.16,2.19,1.66,7.19,8.24,9.63,7.89,6.12,0,12.27,0,18.39,0,2.1-2.43,3.68-5.58,5.25-8.36,2.08-3.67,5.52-9.74,9.63-4.41,2.1,2.72,3.63,6.14,5.25,9.16.66,1.13,1.45,2.92,2.63,3.61h14.89c1.37-.92,2.25-2.78,3.5-3.85,3.43-3.19,8.18-1.26,12.26-1.01,3.07.22,5.98-1.43,7.88-3.76,4.13-4.39,9.05,5.89,11.38,8.54,3.76.21,7.61.02,11.38.08"/></svg>