<?xml version="1.0" encoding="UTF-8"?><svg id="a" xmlns="http://www.w3.org/2000/svg" width="1920" height="2400" viewBox="0 0 192 240"><defs><style>.b{fill:none;stroke:#fff;stroke-miterlimit:10;stroke-width:.3px;}.c{stroke-width:0px;}</style></defs><rect class="c" x="0" width="192" height="240"/><path class="b" d="M13.57,231.77c2.98-.13,6.06.08,9.02-.36,2.69-.41,5.45-1.45,8.2-.97,2.17.38,4.34,1.26,6.56,1.37,2.98.16,6.04-.11,9.02.02,2.43.06,4.96.08,7.38-.22,2.7-.37,5.46-.92,8.2-.81,6.96.3,13.28,2.09,19.68-1.87,2.94-1.71,5.5-3.14,9.02-2.93,1.91-.01,3.92-.3,5.74-.9,1.95-.7,3.75-1.35,5.74-.34,1.61.71,3.24,1.74,4.92,2.29,4.33,1.56,5.64-3,9.84-.44,1.97,1.23,3.66,3.09,5.74,4.15,4.17,2.15,8.86.64,13.12-.37,2.8-.6,5.51.8,8.2,1.32,2.14.36,4.41-.02,6.56-.12,1.88-.11,3.86.25,5.74.28,1.92-.01,3.88-.67,5.74-1.09,3.47-.83,7.13-.73,10.66-.54,1.95.15,3.86,1.02,5.74,1.47"/><path class="b" d="M13.57,229.26c2.98-.29,6.05.03,9.02-.39,2.44-.28,4.9-1.22,7.38-.95,1.95.23,3.83,1.14,5.74,1.53,2.41.46,4.95.13,7.38.12,3.26-.03,6.58.23,9.84.09,2.45-.09,4.93-.67,7.38-.77,4.36-.02,8.76,1.11,13.12.32,2.54-.38,5.02-1.35,7.38-2.31,2.17-.87,4.46-1.73,6.56-2.78,2.38-1,5.03-1.49,7.38-2.56,1.69-.67,3.26-1.9,4.92-2.6,3.07-.53,5.39,2.41,8.2,3.12,3.58,1.03,4.65-2.79,8.2.51,1.94,1.79,3.55,4.16,5.74,5.67,4.3,2.72,8.77.99,13.12-.51,2.5-.76,5.05.41,7.38,1.23,1.54.54,3.3.75,4.92.72,2.98-.14,6.06.18,9.02-.17,2.2-.39,4.35-1.4,6.56-1.77,2.69-.49,5.5-.12,8.2.08,2.53,0,4.98.99,7.38,1.67"/><path class="b" d="M13.57,226.9c2.97-.42,6.06-.22,9.02-.71,2.44-.31,4.89-1.42,7.38-1.15,2,.26,3.84,1.41,5.74,2.01,1.28.4,2.77.5,4.1.47,6.55-.26,13.14.26,19.68-.29,4.08-.04,8.22.54,12.3.19,2.51-.22,4.96-1.18,7.38-1.79,1.86-.49,3.89-.72,5.74-1.23,1.42-.41,2.78-1.36,4.1-1.98,1.86-.92,3.9-1.75,5.74-2.7,1.73-.82,3.32-2.15,4.92-3.17,2.55-1.1,5.04.95,7.38,1.74.99.36,2.24.57,3.28.36,1.01-.3,2.24-.81,3.28-.34,2.75,1.55,4.27,4.7,6.56,6.78,3.21,3.2,8.35,2.79,12.3,1.34,2.93-1.21,5.25-1.08,8.2.01,2.6.97,5.45,1.16,8.2,1.08,1.87-.02,3.87.06,5.74-.1,2.81-.19,5.41-1.68,8.2-1.92,2.45-.22,4.96.32,7.38.58,2.75.13,5.53.62,8.2,1.26"/><path class="b" d="M13.57,225.01c2.99-.32,6.09-.43,9.02-1.16,2.44-.52,4.84-1.81,7.38-1.71,2.95.28,5.26,2.69,8.2,3.05,3.52.37,7.13.03,10.66.15,7.1.06,14.23-.09,21.32,0,4.16.28,8.14-1.54,12.3-1.48,1.04-.05,2.28-.17,3.28-.46,1.65-.63,3.3-1.64,4.92-2.35,1.89-.89,3.92-1.76,5.74-2.79,1.38-.71,2.6-2.05,4.1-2.52,3.17-.65,5.92,1.94,9.02,2.14,1.04.09,2.25-.27,3.28-.17,3.68,1.18,5.46,5.42,9.02,6.9,2.57,1.01,5.52.87,8.2.49,2.16-.34,4.35-1.14,6.56-1.04,2.19.12,4.39.83,6.56,1.12,2.42.31,4.95.17,7.38.2,1.88,0,3.88.02,5.74-.29,1.89-.32,3.81-1.11,5.74-1.24,2.74-.17,5.49.64,8.2.85,2.71.17,5.51.1,8.2.48"/><path class="b" d="M13.57,223.15c3.58-.11,7.28-.32,10.66-1.6,5.28-2.07,6.5-2.24,11.48.54,2.26,1.14,4.91,1.12,7.38,1.11,2.98-.02,6.04-.02,9.02-.02,5.18.03,10.4.07,15.58-.06,2.72.05,5.51.2,8.2-.24,3.24-.47,6.61-.02,9.84-.58,3.79-1.15,7.24-3.37,10.66-5.33,3.29-2.16,4.45-3.26,8.2-.93,1.79,1.08,3.65,2.41,5.74,2.83,1.64.14,3.43.19,4.92,1,1.87.89,3.75,2.08,5.74,2.71,4.26,1.26,8.79.33,13.12.03,4.37-.11,8.74.83,13.12.58,2.98-.09,6.04.12,9.02-.07,1.61-.12,3.31-.61,4.92-.78,2.73-.24,5.49.54,8.2.68,2.98.22,6.04-.1,9.02-.09"/><path class="b" d="M13.57,221.02c2.43.02,4.97.07,7.38-.32,3.85-.49,7.51-3.64,11.48-2.19,1.9.66,3.74,1.83,5.74,2.2,4.32.6,8.77.25,13.12.15,8.19.13,16.41.31,24.61.06,7.26-.15,11.06.89,17.22-3.94,1.3-.94,2.74-2.01,4.1-2.85,1.19-.74,2.67-1.54,4.1-1.08,3.15,1.16,5.16,4.31,8.2,5.69,1.5.71,3.32.73,4.92,1.06,2.69.51,5.47,1,8.2,1.16,4.36.24,8.77-.39,13.12-.05,5.18.26,10.4-.01,15.58-.19,1.88-.02,3.86.27,5.74.3,1.32.01,2.79-.2,4.1-.31,2.16-.17,4.41.18,6.56.27,3.53.05,7.14.14,10.66-.22"/><path class="b" d="M13.57,218.65c2.15.1,4.4.3,6.56.19,4.24-.05,7.99-3.81,12.3-2.35,1.91.58,3.77,1.63,5.74,2,4.61.7,9.33.36,13.94-.16,2.73-.11,5.47.73,8.2.52,6.82-.22,13.68.15,20.5,0,2.48-.03,5.11-.29,7.38-1.38,4.38-1.81,8.81-9.05,13.94-5.99,7.59,6.07,5.37,7.13,16.4,7.37,3.54.09,7.13-.09,10.66-.15,3.81.12,7.67.25,11.48-.04,2.99-.15,6.06-.21,9.02-.7,2.46-.5,4.99.08,7.38.66,2.95.52,6.04,0,9.02.23,1.88.07,3.87-.09,5.74-.09,2.15.06,4.41.19,6.56,0"/><path class="b" d="M13.57,215.94c2.16.19,4.39.68,6.56.77,5.04.16,7.7-4.06,13.12-1.98,1.59.54,3.26,1.28,4.92,1.57,2.69.37,5.49.47,8.2.36,2.2-.09,4.36-1.03,6.56-1.09,1.65,0,3.33.6,4.92.94,1.31.27,2.78.2,4.1.1,6.54-.32,13.15.51,19.68-.1,2.98-.56,5.74-2.25,8.2-3.97,4.35-3.39,7.96-5.8,13.12-2.11,7.17,6.39,6.44,6.6,16.4,6.09,2.98,0,6.04-.22,9.02-.16,2.71.13,5.5.6,8.2.09,3.24-.47,6.59-.58,9.84-1,2.44-.3,4.89-1.7,7.38-.95,1.64.48,3.25,1.46,4.92,1.87,2.12.47,4.41.3,6.56.33,1.88.02,3.87-.1,5.74-.14,2.43.01,4.95.19,7.38.13"/><path class="b" d="M13.57,212.73c3.53.47,7.08,2.79,10.66,1.31,1.83-.7,3.74-1.63,5.74-1.64,3.1-.02,5.94,1.74,9.02,1.94,2.43.17,4.96.33,7.38.04,5.06-.96,6.07-3.07,11.48-.64,2.59,1.03,5.48.77,8.2.8,3.81.03,7.67-.11,11.48,0,5.63.34,7.05-3.68,11.48-6.05,3.27-2.1,6.52-1.79,9.84,0,1.33.6,2.85,1.2,4.1,1.95,1.64.97,3.24,2.29,4.92,3.19,2.79,1.54,6.1.77,9.02.07,1.84-.43,3.86-.51,5.74-.38,1.6.07,3.33.08,4.92.3,1.88.25,3.84.83,5.74.91,2.46,0,4.94-.75,7.38-1.01,2.16-.32,4.45-.54,6.56-1.11,2.37-.83,4.91-2.27,7.38-.89,4.82,2.95,6.69,3.06,12.3,2.92,3.81-.23,7.67.14,11.48.1"/><path class="b" d="M13.57,209.42c3.38.57,6.32,3.12,9.84,2.95,2.47-.22,4.88-1.33,7.38-1.33,2.21-.03,4.4.8,6.56,1.13,4.1.47,8.43.28,12.3-1.25,3.37-1.45,5.7-1.24,9.02.13,4.72,1.59,9.86.94,14.76,1.04,8.5.93,7.94-.35,13.12-6.24,3.52-3.3,6.45-2.16,9.84.56,1.74,1.39,3.76,2.56,5.74,3.56,3.38,1.88,5.94,3.22,9.84,1.77,3.22-.99,6.33-3.07,9.84-2.47,1.62.21,3.37.57,4.92,1.1,1.87.63,3.78,1.55,5.74,1.89,2.72.38,5.51-.44,8.2-.73,3.02-.46,6.17-.83,9.02-1.99,4.49-1.9,7.23,1.72,11.48,2.29,2.68.42,5.49.28,8.2.33,2.98.14,6.04.29,9.02.2"/><path class="b" d="M13.57,207.14c8.26,2.01,8.04,4.05,17.22,2.51,2.73-.24,5.47.75,8.2.55,3.87-.3,7.73-1.23,11.48-2.17,3.67-1.21,7.04-.25,10.66.46,2.15.3,4.39.68,6.56.82,2.72.13,5.52.25,8.2.76,6.06,1.21,7.5-3.52,10.66-7.37,4.25-4.76,7.39-.06,10.66,2.97,2.68,2.15,7.09,5.56,10.66,4.21,2.19-1.01,4.34-2.34,6.56-3.31,2.73-1.49,5.99-2.37,9.02-1.3,2.37.81,4.37,2.56,6.56,3.72,3.23,1.87,7.13,1.14,10.66.82,2.43-.31,4.96-.64,7.38-1.03,1.86-.39,3.82-.98,5.74-.91,2.78.14,5.44,1.35,8.2,1.63,5.45.32,10.94.98,16.4.55"/><path class="b" d="M13.57,206.04c2.13.47,4.42.46,6.56.84,2.16.35,4.37.95,6.56,1.11,1.88.17,3.86-.13,5.74-.11,1.6.02,3.32.27,4.92.11,2.27-.22,4.4-1.31,6.56-1.95,1.56-.46,3.3-.58,4.92-.62,4.61-.4,9.33-.89,13.94-.39,3.26.78,6.54,1.72,9.84,2.31,2.38.51,4.99,1.1,7.38.38,3.51-1.29,4.81-5.34,7.38-7.74,3.6-3.67,6.56.72,9.02,3.29,1.13,1.25,2.68,2.32,4.1,3.22,1.41.93,3.18,1.87,4.92,1.45,2.29-.64,3.83-2.79,5.74-4.07,2.06-1.06,4.35-1.94,6.56-2.63,7.56-2.29,8.33,3.1,13.94,5.9,1.76.8,3.84.89,5.74.91,2.44.05,4.96-.18,7.38-.45,1.88-.19,3.88-.23,5.74-.57,2.68-.46,5.47-1.03,8.2-.66,2.96.53,6.05.56,9.02.97,1.6.18,3.32.54,4.92.68,1.89.13,3.89-.1,5.74-.46"/><path class="b" d="M13.57,205.19c2.98.4,6.04-.3,9.02-.06,2.72.21,5.46.92,8.2.75,2.16-.09,4.45.24,6.56-.33,3.36-.88,6.12-4.12,9.84-3.38,3.22.65,6.63.52,9.84-.14,2.41-.51,5.03-1.63,7.38-.3,4.95,2.59,10.74,5.51,16.4,3.54,2.5-1.09,4-3.67,5.74-5.63,4.06-4.73,6.62-1.03,9.84,2.2,1.13,1.17,2.71,2.04,4.1,2.84,2.17,1.41,4.51,1.71,6.56-.1,1.36-1.11,2.62-2.66,4.1-3.6,2.94-1.16,6.02-2.21,9.02-3.23,2.37-.74,4.01-.51,5.74,1.39,1.99,2.02,3.88,4.5,6.56,5.63,1.78.73,3.85.79,5.74.97,3.81.36,7.68-.13,11.48-.29,3.06-.22,5.97-1.67,9.02-1.87,2.99.23,6.09.09,9.02.81,3.68.86,6.9,2.44,10.66.67"/><path class="b" d="M13.57,203.66c3.27.16,6.58-.31,9.84-.24,2.71.16,5.48.39,8.2.28,1.89.02,3.93.14,5.74-.48,3.11-.87,5.59-3.93,9.02-3.59,1.33.12,2.76.6,4.1.66,2.2.11,4.5-.23,6.56-.99,3.25-1.17,5.04-2.76,8.2-.27,2.04,1.47,4.14,3.14,6.56,3.94,2.86.9,6.13,1.09,9.02.23,2.42-.87,4-3.19,5.74-4.95,4.25-4.5,7.18.9,10.66,3.21,2,1.07,4.3,1.98,6.56,2.26,2.83.21,5.02-1.99,7.38-3.17,1.96-.68,4-1.5,5.74-2.65,1.84-1.12,3.65-2.63,5.74-3.26,2.1-.48,3.62,1.74,4.92,3.04,1.41,1.57,3.01,3.28,4.92,4.25,2.54,1.12,5.49,1.23,8.2,1.7,1.87.2,3.87.02,5.74-.09,1.6-.04,3.35-.12,4.92-.48,2.82-.51,5.31-2.5,8.2-2.62,1.6.05,3.33-.19,4.92-.13,2.26.18,4.52,1,6.56,1.96,2.25,1.23,4.97,2.07,7.38.73"/><path class="b" d="M13.57,201.43c4.91.06,9.86.21,14.76.1,2.71-.16,5.53.31,8.2-.27,5.39-1.19,6.97-4.53,13.12-3.36,2.79.28,5.63-.42,8.2-1.45,2.24-.88,4.43-1.9,6.56-.19,2.52,1.88,5.04,4.1,8.2,4.76,3.51.69,7.72,1.17,10.66-1.3,1.94-1.52,3.78-4.22,6.56-3.78,3.07.76,5.14,3.73,8.2,4.55,4.03.85,8.32,1.71,12.3.21,4.66-.94,7.21-4.26,10.66-7.12,2.23-1.82,3.82-1.33,5.74.63,5.24,5.65,6.37,5.98,13.94,7.15,2.14.28,4.41.18,6.56.13,2.84.03,5.8-.51,8.2-2.11,1.76-1.23,3.61-2.19,5.74-2.6,1.82-.66,3.86-1.24,5.74-.46,1.75.63,3.42,1.8,4.92,2.88,1.82,1.44,4.16,3,6.56,2.06"/><path class="b" d="M13.57,198.88c2.17-.06,4.4.37,6.56.42,2.71.11,5.49,0,8.2-.08,3.27-.02,6.61.45,9.84-.2,3.12-.4,5.92-2.19,9.02-2.68,1.31-.22,2.78-.14,4.1-.18,1.63-.09,3.35-.45,4.92-.85,2.1-.47,4.4-1.29,6.56-.75,1.73.65,3.28,1.96,4.92,2.8,2,1.06,4.33,1.52,6.56,1.73,1.87.17,3.87.44,5.74.18,5.15-1,6.11-5.31,12.3-2.74,1.84.72,3.77,1.57,5.74,1.84,1.87.2,3.87.21,5.74.43,2.15.23,4.39.64,6.56.58,5.74.27,7.83-5.03,12.3-7.27,2.1-.93,4.16.8,5.74,2.01,3.87,3.4,8.06,4.67,13.12,5.09,1.87.15,3.86.16,5.74.18,1.88,0,3.91.05,5.74-.47,1.84-.53,3.47-1.85,4.92-3.05.94-.78,2.27-1.46,3.28-2.15,2.1-1.58,4-2.87,6.56-1.14,1.72,1.17,3.37,2.7,4.92,4.08,1.52,1.46,3.49,3.02,5.74,2.71"/><path class="b" d="M13.57,196.83c2.44.02,4.94.34,7.38.3,2.44.03,4.95-.23,7.38-.27,3.81.03,7.67.57,11.48.32,2.8-.09,5.5-1.11,8.2-1.72,1.3-.29,2.78-.22,4.1-.37,2.16-.24,4.39-.73,6.56-.85,1.32-.06,2.81-.03,4.1.28,1.63.5,3.26,1.37,4.92,1.79,3.19.8,6.59.55,9.84.88,1.61.11,3.36.04,4.92-.38,2.11-.7,4.32-1.35,6.56-1.31,2.98-.1,6.04,0,9.02-.06,1.88,0,3.86-.3,5.74-.19,2.8.15,5.45,1.4,8.2,1.85,4.23,1.05,6.95-3.29,10.66-4.36,2.46-.8,5.09.16,7.38,1.09,2.13.87,4.35,1.84,6.56,2.5,2.64.73,5.48.8,8.2.83,2.43.02,4.95.17,7.38.04,3.72-.13,6.35-3.23,9.02-5.45,1.49-1.49,3.48-3.75,5.74-2.32,2.07,1.37,3.78,3.41,5.74,4.93,1.57,1.44,3.53,2.85,5.74,2.88"/><path class="b" d="M13.57,195.02c2.98,0,6.04.11,9.02-.07,2.98-.26,6.02-.75,9.02-.65,2.71.09,5.5.25,8.2.47,2.71.4,5.51.37,8.2-.14,1.59-.26,3.33-.19,4.92-.38,2.97-.36,6.04-.69,9.02-.31,1.89.23,3.83.84,5.74.95,3.53.24,7.13-.03,10.66.16,2.44.12,4.95-.18,7.38-.4,1.89-.05,3.9-.15,5.74-.64,2.25-.55,4.36-1.79,6.56-2.47,2.66-.57,5.56-1.36,8.2-.26,1.94.78,3.82,1.96,5.74,2.79,1.48.77,3.27,1.3,4.92.81,1.88-.54,3.79-1.41,5.74-1.68,2.95-.45,6.05-.8,9.02-.34,2.51.37,4.85,1.71,7.38,1.95,4.34.4,8.77.22,13.12.26,3.63.2,6.57-2.3,9.02-4.67,1.49-1.54,3.48-3.81,5.74-2.21,3.48,2.7,6.77,6.58,11.48,6.85"/><path class="b" d="M13.57,192.9c3.54-.06,7.2.26,10.66-.62,7.33-1.94,12.42-2.48,19.68.05,4.82,1.09,9.87.43,14.76.3,2.44-.1,4.95.18,7.38.27,2.71,0,5.49-.03,8.2,0,3.26-.03,6.58,0,9.84,0,2.16-.06,4.45.1,6.56-.44,2.92-.74,4.97-3.22,7.38-4.85,3.37-1.74,6.37-3.13,9.84-.71,1.33.89,2.8,1.92,4.1,2.85,1.47,1.15,3.05,2.53,4.92,2.94,4.34.55,8.83-.2,13.12-.89,1.3-.2,2.79-.28,4.1-.06,1.59.34,3.28.91,4.92,1.04,2.7.22,5.5.06,8.2.05,2.43-.06,4.97.14,7.38-.22,2.12-.32,4.05-1.6,5.74-2.86,1.47-1.05,2.94-2.89,4.92-2.71,1.92.4,3.37,2.09,4.92,3.17,2.42,1.57,5.29,2.68,8.2,2.67"/><path class="b" d="M13.57,190.74c2.43-.03,4.98.14,7.38-.36,3.91-1.1,7.46-3.52,11.48-4.3,4.96-.79,9.37,2.18,13.94,3.51,2.65.68,5.5.67,8.2,1.05,4.63.21,9.33.22,13.94-.21,3.26-.19,6.57.46,9.84.32,2.16-.05,4.41-.07,6.56-.02,1.88,0,3.91.17,5.74-.32,3.12-.92,5.08-3.84,7.38-5.93,3.38-2.58,6.48-5.6,10.66-2.45,2.36,1.55,4.46,3.6,6.56,5.47,1.82,1.55,4.21,2.39,6.56,2.65,2.15.26,4.39.68,6.56.59,1.88-.07,3.85-.5,5.74-.45,2.15.15,4.39.58,6.56.44,2.99-.1,6.03-.78,9.02-.52,3.32.33,6.89.3,9.84-1.46,1.58-.82,3.09-2.28,4.92-2.44,1.52.02,2.92,1.08,4.1,1.93,2.75,2.18,6.44,2.62,9.84,2.51"/><path class="b" d="M13.57,188.56c3.37.05,7.01-.02,9.84-2.12,1.51-1.11,3.3-1.99,4.92-2.91,1.93-1.18,4.28-2.22,6.56-1.51,4.82,1.83,9.6,4.02,14.76,4.67,2.74.42,5.39,1.67,8.2,1.69,2.15.09,4.41.07,6.56-.09,2.42-.29,4.95-.62,7.38-.19,3.79.82,7.66.21,11.48.28,5.96.4,8.62.62,13.12-3.85,1.28-1.24,2.8-2.53,4.1-3.73,1.77-1.62,3.96-3.65,6.56-3.13,3.76,1.06,6.55,4.17,9.84,6.11,2.01,1.21,4.38,1.84,6.56,2.62,1.58.62,3.26,1.39,4.92,1.79,1.57.38,3.32.42,4.92.38,2.43-.05,4.95.1,7.38-.1,2.46-.16,4.94-.85,7.38-1.1,4.3.22,8.28,1.31,12.3-1.05,5.75-3.77,6.42.57,11.48,1.89,2.11.52,4.41.34,6.56.33"/><path class="b" d="M13.57,186.33c7.71.15,7.86-1.51,13.94-4.88,2.63-1.76,5.22-3.1,8.2-1.23,5.88,3.85,8.84,1.88,14.76,3.17,2.14.79,4.24,2.05,6.56,2.29,4.62.53,9.36-.69,13.94.36,1.58.3,3.32.45,4.92.28,1.88-.21,3.84-.69,5.74-.59,5.39.61,8.9,1.54,13.94-1.42,1.73-.97,3.45-2.26,4.92-3.59,2.04-1.81,4.42-4.15,7.38-3.72,2.25.44,4.39,1.62,6.56,2.34,2.4.93,5,1.55,7.38,2.51,3.46,1.59,6.78,3.85,10.66,4.25,3.52.35,7.14.32,10.66,0,1.9-.15,3.84-.79,5.74-.9,6.66.21,7.72.76,13.94-2.5,3.47-1.21,5.82,2.85,9.02,3.38,2.12.54,4.41.23,6.56.18"/><path class="b" d="M13.57,184.15c2.44-.02,5.02.02,7.38-.69,1.4-.43,2.82-1.21,4.1-1.88,1.66-.68,3.34-1.62,4.92-2.45,4.91-2.51,7.26,2.82,12.3,1.94,2.96-.31,6.17-2.1,9.02-.45,1.54.84,3.19,1.83,4.92,2.22,2.68.66,5.49-.04,8.2.27,2.48.09,4.91,1.09,7.38,1.14,2.85,0,5.4-1.75,8.2-1.93,2.83-.05,5.39,1.71,8.2,1.87,3.05.27,6.19-.39,9.02-1.51,6.42-3.07,6.65-6.46,14.76-4.36,2.7.33,5.51-.04,8.2.36,2.33.37,4.41,1.8,6.56,2.67,2.84,1.27,5.92,2.22,9.02,2.54,4.63.63,9.34.28,13.94-.38,3.62-.2,7.42-.44,10.66-2.23,5.56-3.64,6.71,1.13,11.48,2.59,2.1.68,4.42.24,6.56.04"/><path class="b" d="M13.57,182.08c3.27-.03,6.69.18,9.84-.87,1.31-.47,2.8-.87,4.1-1.34,1.58-.64,3.22-1.53,4.92-1.78,2.56-.41,4.88,1.28,7.38,1.37,3.68.24,7.01-3.01,10.66-1.91,2.39,1.06,4.69,2.71,7.38,2.91,1.6.21,3.33-.14,4.92.07,3,.27,6,2.32,9.02,1.21,3.42-1.31,6.78-5.24,10.66-3.16,1.62.81,3.22,1.97,4.92,2.61,2.84,1.18,6.09,1.09,9.02.28,3.64-.87,6.79-3.65,10.66-3.52,2.16.07,4.39.69,6.56.35,2.44-.27,4.91-1.13,7.38-.99,1.99.19,3.89,1.22,5.74,1.88,2.63,1.04,5.4,2.03,8.2,2.48,2.95.56,6.03.38,9.02.41,4.42.02,9.01-.32,13.12-2.06,2.61-.89,5.39-3.2,8.2-1.79,1.41.71,2.75,1.89,4.1,2.7,1.43.85,3.26,1.24,4.92,1.13,1.33-.12,2.79-.55,4.1-.8"/><path class="b" d="M13.57,179.85c2.98,0,6.06.24,9.02-.17,3.32-.45,6.55-1.61,9.84-2.19,1.89-.26,3.86.13,5.74.27,2.23.14,4.47-.62,6.56-1.3,5.2-1.94,6.76.09,11.48,1.3,2.12.57,4.43.22,6.56.65,2.14.51,4.3,1.86,6.56,1.4,1.56-.38,2.93-1.59,4.1-2.63,1.23-1.05,2.68-2.16,4.1-2.94,2.22-1.3,4.75-.19,6.56,1.3,1.51,1.17,3.2,2.39,4.92,3.23,2.25,1.14,4.92,1.42,7.38.88,3.02-.54,5.92-2.05,9.02-2.11,2.17-.05,4.39.57,6.56.49,3.84-.09,7.65-2.21,11.48-1.09,3.75,1.16,7.54,2.53,11.48,2.85,2.7.3,5.49,0,8.2.02,7.76.27,8.6.41,15.58-3.3,2.27-.94,4.47-.92,6.56.53,5.18,3.75,7.2,3.34,13.12,1.57"/><path class="b" d="M13.57,177.59c2.98.09,6.04.25,9.02.07,2.73-.21,5.49-.74,8.2-1.06,2.42-.32,4.95-.15,7.38-.37,2.19-.24,4.39-.96,6.56-1.33,3.85-.73,7.71.32,11.48.97,2.14.41,4.45.31,6.56.85,2.47.87,5.07,1.72,7.38-.05,2.46-1.84,4.46-4.52,7.38-5.69,2.68-1.16,5.34.65,7.38,2.28,1.75,1.37,3.69,2.75,5.74,3.62,3.66,1.67,7.73.47,11.48-.19,2.7-.54,5.5-.03,8.2.21,3.87.32,7.63-1.28,11.48-1.21,2.77.17,5.44,1.38,8.2,1.68,3.51.53,7.13.37,10.66.23,4.64-.34,9.68,1.17,13.94-1.27,1.55-.8,3.15-1.98,4.92-2.19,2.07-.32,4.03.83,5.74,1.85,4.58,3.03,8.25,1.34,13.12.54"/><path class="b" d="M13.57,175.47c3.26.13,6.58.16,9.84.04,2.44-.12,4.94-.49,7.38-.55,2.16-.1,4.42-.03,6.56-.3,2.17-.33,4.36-1.07,6.56-1.24,1.89-.16,3.87.13,5.74.29,2.44.1,4.96.28,7.38.55,1.6.19,3.33.33,4.92.6,1.58.35,3.29.91,4.92.62,4.19-.89,6.48-5.48,10.66-6.43,4.79-.8,8.07,3.95,12.3,5.32,4.16,1.81,8.77,1.1,13.12.62,2.99-.32,6.03.32,9.02.25,3.29-.03,6.56-.99,9.84-.97,2.2.02,4.39.79,6.56,1.03,2.97.34,6.04.3,9.02.17,2.71-.09,5.49-.05,8.2,0,1.88.06,3.88.21,5.74-.14,6.72-1.7,6.48-4.5,13.94-.78,4.16,1.93,8.76.36,13.12.49"/><path class="b" d="M13.57,173.39c5.74.15,11.5-.02,17.22-.36,2.16-.07,4.42-.01,6.56-.29,1.89-.3,3.83-.92,5.74-1.11,2.17-.24,4.41.2,6.56.38,2.71.09,5.5.16,8.2.47,1.6.19,3.34.31,4.92.64,2.2.56,4.62.35,6.56-.87,2.71-1.48,5-4.21,8.2-4.6,3.72-.19,6.61,2.74,9.84,4.13,6,2.36,12.58,1.46,18.86,1.46,2.71.1,5.49.24,8.2.07,2.44-.13,4.94-.6,7.38-.62,1.89-.04,3.86.41,5.74.58,2.98.23,6.04.19,9.02.11,4.63-.22,9.32.26,13.94-.07,3.6-.34,6.98-2.56,10.66-1.83,2.71.58,5.41,1.6,8.2,1.82,2.97.28,6.04.03,9.02.13"/><path class="b" d="M13.57,171.25c3.81-.05,7.67.04,11.48-.01,3.54-.15,7.13-.34,10.66-.5,2.75-.12,5.47-.98,8.2-1.21,2.16-.19,4.41.16,6.56.28,2.16.1,4.41.14,6.56.31,1.88.18,3.89.26,5.74.67,2.55.76,5.17.56,7.38-.99,2.13-1.27,4.03-3.38,6.56-3.79,3.72-.19,6.49,3.03,9.84,4.15,2.61.88,5.48.82,8.2.96,3.53.12,7.13.13,10.66.12,2.16.02,4.41-.17,6.56-.16,3.26.21,6.58.16,9.84-.03,5.18.07,10.4.36,15.58.11,2.43-.08,4.95-.06,7.38-.02,2.43.1,4.97.21,7.38-.22,2.44-.38,4.89-1.3,7.38-1.3,3.84-.05,7.68.86,11.48,1.3,2.41.33,4.96.22,7.38.04"/><path class="b" d="M13.57,169.05c4.08-.06,8.22.13,12.3.01,6.02-.33,12.06-.95,18.04-1.72,2.43-.27,4.95-.08,7.38.15,1.88.1,3.86.09,5.74.17,1.88.13,3.9.12,5.74.58,2.48.85,5.04,1.34,7.38-.17,1.65-.95,3.2-2.35,4.92-3.17,3.95-1.49,7.05,2.69,10.66,3.56,2.1.61,4.4.52,6.56.56,2.43,0,4.95,0,7.38-.03,3.57.07,7.15-.44,10.66-1.06,2.19-.24,4.41.52,6.56.82,3.78.53,7.68.28,11.48.32,4.91.08,9.86-.29,14.76-.22,2.71.06,5.5.43,8.2.07,3.54-.47,7.07-1.38,10.66-1.33,2.44.04,4.97.18,7.38.56,2.95.64,6.07.72,9.02.01"/><path class="b" d="M13.57,166.89c4.63-.04,9.33.21,13.94-.26,3.84-.36,7.59-1.81,11.48-1.63,2.99.02,6.04-.32,9.02-.21,2.71.29,5.47.62,8.2.57,2.43.15,5.03-.06,7.38.67,3.51,1.34,5.85,1.15,9.02-.86,1.22-.71,2.65-1.5,4.1-1.51,3.49.18,6.32,2.97,9.84,3.16,2.43.19,4.95.09,7.38.11,2.71-.03,5.52,0,8.2-.41,2.88-.35,5.43-2,8.2-2.72,1.67-.31,3.39.48,4.92,1.04,1.55.6,3.28,1.14,4.92,1.41,4.59.7,9.31.33,13.94.45,3.26-.08,6.58-.39,9.84-.05,4.1.54,8.27.16,12.3-.71,3.49-.57,7.14-.77,10.66-.33,1.88.22,3.85.74,5.74.88,1.9.09,3.93-.15,5.74-.74"/><path class="b" d="M13.57,164.76c6.64.04,13.61.28,19.68-2.85,3.16-1.53,5-.93,8.2-.27,3.25.59,6.64.58,9.84,1.42,3.51.5,7.13.53,10.66.65,2.98.34,6.01,1.6,9.02.76,1.61-.37,3.28-1.08,4.92-1.32,3.36-.45,6.53,1.37,9.84,1.55,2.98.12,6.04,0,9.02.06,2.73-.02,5.64.05,8.2-1.02,2.69-1.04,4.7-3.47,7.38-4.49,2.35-.5,4.48,1.34,6.56,2.16,2.8,1.32,5.94,2,9.02,2.2,2.98.19,6.03.45,9.02.53,1.88.03,3.87-.17,5.74.05,2.43.22,4.94.64,7.38.55,3.02-.13,6.05-.76,9.02-1.22,2.69-.29,5.51-.47,8.2-.1,4.31.75,8.83,1.87,13.12.41"/><path class="b" d="M13.57,162.55c2.71-.11,5.5.2,8.2-.07,2.2-.3,4.5-.79,6.56-1.63,1.73-.76,3.38-1.97,4.92-3.03,2.87-2.07,4.41-1.84,7.38-.22,2.57,1.35,5.4,2.31,8.2,3.04,1.57.49,3.28.95,4.92,1.12,4.06.6,8.23.25,12.3.65,3.82.46,7.67-.1,11.48-.23,3.54.08,7.12.64,10.66.31,4.61-.22,9.51.85,13.94-.82,2.18-.92,4-2.7,5.74-4.26.9-.79,2.06-1.73,3.28-1.92,2.33.13,4.41,1.67,6.56,2.46,3.11,1.33,6.54,1.8,9.84,2.39,3.51.71,7.07,1.51,10.66,1.54,2.43.24,4.93.75,7.38.71,3.27-.11,6.57-.75,9.84-.96,2.42-.21,4.95-.11,7.38-.1,5.16.36,10.45,1.83,15.58.44"/><path class="b" d="M13.57,160.32c5.93-.09,8.18.86,13.94-1.94,2.99-1.39,5.19-4.18,8.2-5.49,2.2-.75,4.11,1.09,5.74,2.29,1.5,1.16,3.18,2.34,4.92,3.11,4.34,2.04,9.24,2.11,13.94,2.1,9.29-.28,18.63.47,27.89-.41,8.61.36,12.24,1.83,19.68-4,1.19-.8,2.6-1.81,4.1-1.79,2.16.19,4.39.63,6.56.79,2.16.19,4.45.17,6.56.74,2.58.69,4.91,2.23,7.38,3.19,1.79.71,3.84.92,5.74,1.12,1.59.22,3.32.43,4.92.4,1.9,0,3.87-.39,5.74-.65,1.59-.17,3.33-.14,4.92-.07,5.18.29,10.4.64,15.58.72,2.98-.11,6.11.31,9.02-.49"/><path class="b" d="M13.57,158.05c6.38-.09,7.92,1.3,13.94-2.38,1.66-.98,3.34-2.22,4.92-3.32,1.21-.8,2.61-1.73,4.1-1.81,1.99-.02,3.55,1.58,4.92,2.83,1.45,1.36,3.1,2.77,4.92,3.6,3.06,1.4,6.55,1.31,9.84,1.29,6.01-.02,12.05.11,18.04-.48,4.08-.31,8.23.06,12.3-.28,2.44-.36,4.97.15,7.38.48,5.67,1.05,10.46-.83,15.58-2.98,1.25-.57,2.75-.77,4.1-.9,1.63-.24,3.36-.71,4.92-1.24,6.01-2.35,7.47-1.44,12.3,2.46,2.95,2.42,6.98,2.87,10.66,2.94,2.74-.02,5.47-.91,8.2-.89,3.54.22,7.1.94,10.66.9,3.54.1,7.12-.51,10.66-.47,2.44.07,4.96.88,7.38.17"/><path class="b" d="M13.57,155.66c3.26-.28,6.67,1.17,9.84-.1,2.87-1.21,5.41-3.25,8.2-4.62,1.5-.76,3.2-1.57,4.92-1.53,1.99.04,3.58,1.46,4.92,2.77,5.17,5.36,9.75,3.77,16.4,3.61,4.36-.15,8.77.66,13.12.16,2.72-.3,5.47-.96,8.2-1.13,2.44-.14,4.94.48,7.38.29,4.68-.67,9.3.78,13.94,1,3.3-.06,6.63-.75,9.84-1.47,1.3-.36,2.81-.45,4.1-.85,2.03-.6,3.97-1.72,5.74-2.85,7.5-5.45,8.67,1.29,14.76,3.9,2.08.71,4.34,1.35,6.56,1.27,2.99-.11,6.02-.94,9.02-.57,3.51.39,7.14.9,10.66.32,3.02-.49,5.88-2.36,9.02-1.92,2.82.35,5.23,2.65,8.2,2.12"/><path class="b" d="M13.57,152.97c1.92-.2,3.88.41,5.74.78,2.27.52,4.64-.09,6.56-1.35,1.79-1.12,3.75-2.18,5.74-2.9,2.58-.96,5.83-1.54,8.2.23,2.01,1.54,3.97,3.57,6.56,4.04,4.08.49,8.23-.57,12.3-.83,1.9-.19,3.86.33,5.74.51,3.8.44,7.72.8,11.48-.12,1.58-.35,3.3-.7,4.92-.65,1.61.05,3.32.39,4.92.44,2.45-.02,4.94-.54,7.38-.73,2.52-.31,4.99.49,7.38,1.14,1.85.39,3.86.45,5.74.36,2.99-.23,6.09-.46,9.02-1.14,2.73-.73,5.12-2.48,7.38-4.1,2.29-1.72,4.82-2.7,7.38-.84,1.36.91,2.73,2.16,4.1,3.05,1,.59,2.25,1.21,3.28,1.73,2.24,1.23,4.87,1.51,7.38,1.26,4.36-.39,8.76.24,13.12.02,1.7-.04,3.49-.53,4.92-1.46,1.63-1,3.13-2.52,4.92-3.24,4.37-1.4,6.5,4.55,10.66,4.7"/><path class="b" d="M13.57,149.92c2.3-.36,4.43.94,6.56,1.56,2.93,1,5.64-.76,8.2-1.94,2.57-1.06,5.39-2.04,8.2-1.99,3.26-.06,5.26,3.05,8.2,3.93,1.85.56,3.88.2,5.74-.14,3.04-.41,6.01-1.45,9.02-1.98,2.21-.16,4.39.9,6.56,1.22,2.14.46,4.36,1.09,6.56,1.19,2.17.11,4.41-.34,6.56-.54,2.99-.25,6.04.53,9.02.11,3.3-.24,6.5-2.32,9.84-1.53,1.59.53,3.27,1.24,4.92,1.58,3.5.78,7.13.18,10.66.03,11.15-.41,12.11-10.49,19.68-5.29,2.27,1.28,4.36,3.05,6.56,4.44,1.45.84,3.26,1.17,4.92,1.2,3.26.05,6.58.03,9.84,0,2.83-.03,6,0,8.2-2.07,2.28-1.65,4.15-5.73,7.38-5.03,3.18,1.49,4.69,5.41,8.2,6.49"/><path class="b" d="M13.57,147.78c3.69-.89,6.94,2.81,10.66,1.61,2.67-.86,5.43-1.69,8.2-2.17,2.12-.4,4.43-.98,6.56-.39,2.17.87,4.1,2.77,6.56,2.78,1.38,0,2.82-.51,4.1-.96,1.66-.52,3.41-1.23,4.92-2.09,2.02-1.02,4.15-3.02,6.56-2.42,12.98,6.5,10.21,5.36,24.61,5.46,1.88,0,3.9.08,5.74-.39,1.89-.45,3.77-1.46,5.74-1.53,2.23.12,4.36,1.29,6.56,1.61,2.68.52,5.49.24,8.2.13,7.54-.04,9.45.2,15.58-4.56,3.07-2.32,7-1.46,9.84.8,2.33,1.96,5.05,3.74,8.2,3.77,2.7.14,5.5.03,8.2-.03,2.76-.15,5.91.09,8.2-1.73,2.5-1.83,3.95-4.96,6.56-6.63,1.97-1.06,3.7,1.05,4.92,2.34,1.42,1.55,3.07,3.19,4.92,4.23"/><path class="b" d="M13.57,146.3c2.49-.87,4.99.27,7.38.9,1.59.39,3.33.24,4.92-.05,2.15-.33,4.41-.41,6.56-.72,1.61-.21,3.3-.68,4.92-.82,2.34-.32,4.35,1.33,6.56,1.75,1.72.32,3.47-.43,4.92-1.27,1.04-.58,2.32-1.19,3.28-1.9,2.5-1.5,5.96-7.07,9.02-5.54,1.74,1.09,3.27,2.75,4.92,3.97,6.25,5.09,12.1,4.93,19.68,4.41,2.17-.06,4.39.61,6.56.35,2.16-.24,4.37-1.04,6.56-.69,4.32.79,8.75.83,13.12.66,3.26,0,6.61.24,9.84-.21,4.03-.78,7.28-4.05,11.48-4.26,5.77-.52,7.1,4.53,14.76,4.04,2.43-.1,4.95-.36,7.38-.5,1.9-.15,4.02-.15,5.74-1.09,3.28-1.66,4.88-5.6,8.2-7.13,1.61-.42,2.96,1.1,4.1,2,1.54,1.34,3.22,2.79,4.92,3.93"/><path class="b" d="M13.57,144.8c2.69-.91,5.51-.35,8.2.23,2.14.37,4.4.23,6.56.24,1.88-.01,3.87-.01,5.74-.25,1.32-.17,2.77-.53,4.1-.64,1.93-.14,3.84.72,5.74.89,1.77.16,3.5-.68,4.92-1.65,1.06-.7,2.36-1.47,3.28-2.37,1.43-1.37,2.77-3.14,4.1-4.61,1.72-1.93,3.67-3.1,5.74-.87,3.34,3.77,6.5,6.42,11.48,7.68,3.93,1.48,8.2,1.09,12.3.82,2.48-.14,4.92.86,7.38.96,6,.11,12.04.03,18.04.04,3.81-.08,7.69.22,11.48-.21,4.35-1.02,8.71-2.19,13.12-2.92,3.92-.31,7.53,2.24,11.48,1.9,2.46-.18,4.93-.91,7.38-1.12,2.15-.25,4.48.12,6.56-.57,1.8-.63,3.45-1.9,4.92-3.1,1.36-1.06,3.07-2.54,4.92-1.97,2.6,1.25,5.01,3.06,7.38,4.68"/><path class="b" d="M13.57,142.96c1.59-.3,3.29-.71,4.92-.7,2.17,0,4.4.5,6.56.59,1.6.07,3.32-.04,4.92.02,1.6.05,3.32.27,4.92.24,2.16-.12,4.4-.55,6.56-.23,4.15.74,6.51-.33,9.84-2.68,1.84-1.48,3.32-3.57,4.92-5.28,1.84-1.98,3.7-2.7,5.74-.52,3.78,4.23,6.06,5.02,11.48,6.02,2.61.94,5.41,1.57,8.2,1.53,2.16.07,4.41-.33,6.56-.21,2.16.22,4.39.67,6.56.75,1.88.12,3.86-.06,5.74,0,1.89.08,3.86.42,5.74.55,2.43.15,4.95.05,7.38.08,3.82,0,7.71.14,11.48-.58,2.7-.34,5.52-.27,8.2-.74,1.88-.39,3.8-1.15,5.74-1.19,2.43-.18,4.95.32,7.38.18,1.93-.18,3.85-.98,5.74-1.37,2.43-.58,4.98,0,7.38.44,2.24.31,4.53-.48,6.56-1.35,1.25-.52,2.71-1.14,4.1-1.1,2.91.61,5.58,2.32,8.2,3.65"/><path class="b" d="M13.57,140.92c2.43-.28,4.91-.94,7.38-.85,1.32.02,2.78.13,4.1.13,1.6-.02,3.32-.28,4.92-.18,1.91.1,3.84.73,5.74.9,1.6.09,3.32-.08,4.92-.05,3.98.24,7.13.14,10.66-1.93,3-1.5,6.21-7.53,9.84-5.64,1.35.86,2.63,2.14,4.1,2.81,2.53,1.31,5.5.92,8.2,1.46,2.39.82,4.82,1.86,7.38,1.98,2.47.27,4.96-.34,7.38-.7,2.71-.17,5.49.17,8.2.04,1.32-.03,2.8-.22,4.1.02,2.21.44,4.32,1.57,6.56,1.89,2.14.28,4.41.12,6.56.16,2.71,0,5.5.06,8.2-.15,4.33-.66,8.87.09,13.12-1.08,3.42-1.21,7.1-1.62,10.66-2.15,2.2-.38,4.3-1.59,6.56-1.65,3.49-.09,6.38,2.63,9.84,2.73,2.45.11,4.94-.51,7.38-.54,3.08.2,6.01,1.61,9.02,2.22"/><path class="b" d="M13.57,138.78c2.46.09,4.94-.55,7.38-.76,2.98-.11,6.12-.68,9.02-.59,1.92.14,3.85.81,5.74,1.14,1.31.21,2.78.21,4.1.22,3.84.02,7.87.04,11.48-1.44,3.12-1.12,5.61-4.08,9.02-4.31,1.43.07,2.74,1.06,4.1,1.4,2.92.87,6.08.08,9.02.76,3.88,1.5,7.24,3.05,11.48,1.66,1.84-.71,3.71-1.76,5.74-1.79,1.88-.11,3.86.09,5.74.12,1.32.05,2.81-.22,4.1.14,2.56.79,4.71,2.8,7.38,3.27,1.86.31,3.87.17,5.74.2,3.54.02,7.13-.07,10.66-.21,3.54-.15,7.2.07,10.66-.79,4.1-1.07,8.39-1.68,12.3-3.39,2.31-1.18,5.07-1.48,7.38-.13,1.61.83,3.23,1.96,4.92,2.63,1.78.75,3.83,1.01,5.74,1.16,4.36.18,8.76.67,13.12.73"/><path class="b" d="M13.57,136.52c4.93.42,9.84-1.13,14.76-1.26,3.03,0,6,1.11,9.02,1.25,4.08.11,8.25.04,12.3-.46,2.84-.48,5.62-1.52,8.2-2.79,1.93-.99,3.63-1.28,5.74-.73,1.87.25,3.87.3,5.74.54,5.03.48,9.67,4.08,14.76,1.87,2.04-.86,3.59-2.8,5.74-3.45,2.11-.68,4.41-.2,6.56-.01,1.32.17,2.81-.23,4.1.12,2.98,1.01,5.08,3.89,8.2,4.63,1.84.44,3.86.27,5.74.32,3.26.04,6.58.06,9.84.05,4.1.04,8.27-.14,12.3-.93,3.76-.22,7.35-1.55,10.66-3.28,2.39-1.3,5.11-1.11,7.38.38,2.52,1.58,5.19,3.25,8.2,3.64,2.14.32,4.41.16,6.56.06,2.99-.06,6.04-.32,9.02-.46"/><path class="b" d="M13.57,134.38c5.21.51,10.39-1.47,15.58-.94,2.16.31,4.38.79,6.56.92,2.98.18,6.04.01,9.02-.02,6.12.06,10.24-.1,15.58-3.41,2.87-1.27,6.25-.23,9.02.87,4.29,1.87,9.33,3.24,13.94,1.84,2.63-.97,4.18-3.66,6.56-5.02,1.95-1.21,4.37-1.05,6.56-.87,1.33.16,2.78-.42,4.1-.16,2.28.64,3.95,2.64,5.74,4.07,1.15.96,2.61,1.85,4.1,2.14,2.15.25,4.41.43,6.56.63,2.44.19,4.95-.28,7.38-.31,3.53.24,7.13.56,10.66.08,2.45-.23,5.05-.18,7.38-1.07,1.96-.69,3.79-2,5.74-2.71,2.52-1.03,5.24.06,7.38,1.46,2.65,1.65,5.84,3.18,9.02,2.37,1.64-.4,3.28-1.25,4.92-1.64,1.29-.31,2.79-.2,4.1-.27,1.59-.08,3.34-.11,4.92.17"/><path class="b" d="M13.57,132.29c4.37-.22,8.73-1.14,13.12-1.2,2.19.1,4.37.93,6.56,1.11,2.98.21,6.04.02,9.02.1,3.81-.05,7.68.12,11.48-.12,2.44-.14,4.62-1.44,6.56-2.81,2.24-1.64,5.18-.78,7.38.49,2.52,1.55,5.21,2.54,8.2,2.42,2.43-.05,4.98.21,7.38-.22,3.4-.94,5.25-4.48,8.2-6.2,1.93-1.3,4.35-1.56,6.56-2.02,3.89-1.72,6.5,2.63,9.02,4.84,1.32,1.26,3.07,2.26,4.92,2.42,1.34.22,2.77.77,4.1,1.04,3.93.82,6.61-2.01,10.66-.64,2.91.85,6.02.91,9.02.68,1.89-.08,3.92-.11,5.74-.7,2.59-.78,4.68-2.91,7.38-3.36,4.6-.71,7.8,4.1,12.3,4.18,4.18.25,6.47-5.02,10.66-4.48,2.19.12,4.53.25,6.56,1.17"/><path class="b" d="M13.57,129.42c4.55-.82,9.33-1.4,13.94-.91,1.62.43,3.26,1.24,4.92,1.5,2.71.37,5.48-.44,8.2-.23,2.99.12,6.04-.17,9.02-.06,3.64.41,6.63.97,9.84-1.28,2.51-1.82,4.81-1.35,7.38.03,3.21,1.83,5.47,1.8,9.02,1.48,2.44-.28,4.95.08,7.38.17,5.01-.3,7.68-5.47,11.48-8.08,8.3-6.23,9.24,2.63,15.58,5.65,1.03.35,2.3.61,3.28,1.09,1.25.59,2.69,1.29,4.1,1.34,1.39.03,2.83-.57,4.1-1.06,2.42-1.07,5,.09,7.38.67,2.12.5,4.4.42,6.56.3,1.61-.08,3.38-.16,4.92-.68,2.41-.74,4.25-2.78,6.56-3.72,5.27-1.62,8.72,4.88,13.94,4.49,4.27-.07,6.46-5.58,10.66-5.02,2.22.17,4.56.52,6.56,1.55"/><path class="b" d="M13.57,125.88c2.15-.28,4.41-.03,6.56.05,2.16.12,4.41-.03,6.56.09,2.23.37,4.25,1.9,6.56,1.95,1.65.04,3.31-.67,4.92-.92,3.51-.39,7.15-.86,10.66-.29,2.16.37,4.33,1.38,6.56,1.18,1.4-.13,2.83-.77,4.1-1.33,2.91-1.53,5.44-.11,8.2.89,2.1.76,4.41.37,6.56.11,1.88-.13,3.87-.15,5.74.07,9.57,1.68,10.71-3.83,16.4-9.48,4.52-3.99,8.86,2.27,12.3,4.78,1.17.94,2.76,1.45,4.1,2.08,1.59.92,3.1,2.34,4.92,2.8,2.57.57,4.82-1.62,7.38-1.38,1.92.14,3.85.91,5.74,1.22,2.95.39,6.1.42,9.02-.17,2.52-.63,4.4-2.68,6.56-3.97,4.42-2.08,8.27,4,13.12,4.3,1.93.31,4.04-.13,5.74-1.08,1.56-.84,3.15-2.06,4.92-2.41,2.74-.1,5.62.46,8.2,1.39"/><path class="b" d="M13.57,123.29c2.46.27,4.89,1.26,7.38,1.32,2.43.18,4.98-.37,7.38.2,1.85.44,3.81,1.22,5.74.92,1.08-.17,2.26-.66,3.28-1.03,1.6-.42,3.31-.91,4.92-1.28,4.93-1.28,8.46,3.12,13.12,2.22,2.15-.49,4.3-1.58,6.56-1.36,2.22.15,4.34,1.27,6.56,1.45,3.26.17,6.58-.46,9.84-.06,3.26.19,6.72.25,9.84-.81,3.21-1.4,5.09-4.68,7.38-7.15,3.92-5.12,12.01,2.1,16.4,3.78,2.98,1.36,5.34,5.17,9.02,4.12,1.58-.47,3.24-1.21,4.92-1.17,3.02.13,5.97,1.36,9.02,1.31,4.18.24,6.53-.05,9.84-2.87,2.57-2.24,4.7-1.58,7.38.07,3.37,2.19,7.48,3.26,11.48,2.7,1.93-.24,3.84-1.07,5.74-1.44,1.3-.25,2.79,0,4.1.1,1.6.14,3.34.36,4.92.67"/><path class="b" d="M13.57,122.08c1.61.37,3.28,1.01,4.92,1.21,2.7.37,5.49.09,8.2.07,2.16-.05,4.4.34,6.56.24,1.38-.08,2.82-.6,4.1-1.08,1.04-.31,2.27-.68,3.28-1.09,6.72-2.93,8.33,4.65,15.58,1.27,1.53-.59,3.3-.84,4.92-.53,2.46.3,4.9,1.22,7.38,1.38,4.08.1,8.24.22,12.3-.19,6.02-.75,8.31.21,13.12-4.38,2.96-2.62,3.49-2.88,7.38-2.21,3.33.35,6.85.59,9.84,2.25,4.56,1.51,7,6.26,12.3,3.96,2.07-.79,4.41-.87,6.56-.35,2.12.5,4.38.79,6.56.86,2.58.32,5.23.14,7.38-1.48,2.68-1.96,4.23-2.58,7.38-.96,5.51,2.92,12,2.82,18.04,2.2,2.98-.05,6.04.22,9.02.29"/><path class="b" d="M13.57,121.02c3.77.84,7.67.11,11.48.4,2.98,0,6.06.19,9.02-.2,2.47-.51,4.97-1.29,7.38-2.03,3.96-1.41,6.8,2.73,10.66,2.24,1.99-.32,3.75-1.71,5.74-2.03,1.35-.21,2.81.18,4.1.5,1.89.32,3.83.96,5.74,1.19,2.69.31,5.5.29,8.2.11,1.89-.17,3.85-.65,5.74-.86,1.87-.23,3.86-.01,5.74.03,3.26-.01,6.1-1.9,9.02-3.08,2.08-.73,4.41.01,6.56-.31,2.72-.22,5.67-.66,8.2.63,2.62.71,4.91,2.38,7.38,3.44,4.57,1.61,6.27-2.42,12.3-.82,1.85.44,3.85.64,5.74.78,1.87.21,3.88.77,5.74.23,2.96-.97,4.78-3.3,8.2-2.06,3.16,1.11,6.5,1.76,9.84,1.85,5.98.68,12.04.43,18.04.41"/><path class="b" d="M13.57,119.29c2.8.3,5.46-.99,8.2-1.23,3.54-.09,7.11.76,10.66.58,3.83-.19,7.63-1.78,11.48-1.45,1.98.3,3.81,1.43,5.74,1.91,2.31.67,4.54-.48,6.56-1.47,2.63-1.33,5.53-.15,8.2.42,2.65.72,5.47.93,8.2.74,3.05.01,6-1.15,9.02-1.32,3.01-.02,5.99,1.19,9.02.79,2.21-.16,4.41-.87,6.56-1.35,1.3-.25,2.79-.24,4.1-.46,3.82-.67,6.96-1.13,10.66.45,3.44,1.03,6.99,3.4,10.66,1.92,1.8-.71,3.77-1.45,5.74-1.35,1.61.05,3.33.45,4.92.68,1.31.19,2.8.18,4.1.44,1.85.37,3.85,1.04,5.74.51,2.17-.63,4.18-2.34,6.56-1.94,1.9.25,3.84.92,5.74,1.19,1.86.32,3.87.26,5.74.4,5.71.74,11.49.52,17.22.25"/><path class="b" d="M13.57,117.05c1.72-.1,3.42-.83,4.92-1.64,4.18-2.69,8.65-.82,13.12-.25,1.6.19,3.32.1,4.92-.03,2.43-.01,4.97,0,7.38.32,3.25.43,6.52,2.32,9.84,1.45,3.81-1.33,4.88-2.17,9.02-1.11,4.85,1.33,9.99.94,14.76-.53,3.3-1.17,5.89-.17,9.02.84,2.11.56,4.39.73,6.56.6,3.88-.26,7.65-1.58,11.48-2.14,4.8-.44,9.15,2.67,13.94,2.58,2.81.09,5.45-1.27,8.2-1.58,2.71-.3,5.5.21,8.2.38,3.03-.03,6,1.74,9.02,1,1.89-.52,3.71-1.76,5.74-1.65,3.01.23,5.97,1.41,9.02,1.36,3.26-.07,6.58.35,9.84.37,3.27.06,6.59-.36,9.84-.62"/><path class="b" d="M13.57,114.46c3.56-.64,6.09-4.21,9.84-4.16,4.39.38,8.7,1.7,13.12,1.86,1.9.3,3.84.95,5.74,1.25,2.42.44,4.96.68,7.38,1.13,1.58.32,3.32.61,4.92.28,1.6-.31,3.28-.92,4.92-.97,3.8.23,7.66,1.37,11.48.52,1.62-.35,3.33-.86,4.92-1.32,2.07-.79,4.44-1.35,6.56-.42,2.34,1.03,4.78,2.15,7.38,2.25,2.71.13,5.54.17,8.2-.46,2.46-.44,4.84-1.75,7.38-1.64,2.24.15,4.38,1.19,6.56,1.63,3.2.91,6.6.49,9.84.09,4.58-.78,9.31-1.12,13.94-.69,3.02.1,5.99,1.63,9.02.99,6.24-2.17,6.21-1.01,12.3-.21,3.8.17,7.68.02,11.48.06,3.29.05,6.6-.56,9.84-1.07"/><path class="b" d="M13.57,111.54c3.1-1,5.58-3.98,9.02-3.87,1.9.12,3.83.8,5.74.9,2.98.32,6.13.32,9.02,1.15,1.59.61,3.25,1.43,4.92,1.82,1.85.45,3.85.52,5.74.63,1.89.08,3.84.62,5.74.65,1.89,0,3.85-.49,5.74-.52,3.26.15,6.58.71,9.84.29,4.37-.48,8.78-4.5,13.12-1.86,4.06,2.48,6.19,2.09,10.66,1.99,1.88.09,3.89.2,5.74-.23,1.63-.32,3.28-1.1,4.92-1.38,3.09-.43,5.96,1.48,9.02,1.63,1.88.21,3.87-.13,5.74-.27,2.43-.13,4.95-.11,7.38-.26,3.54-.13,7.13-.87,10.66-.33,2.46.08,4.92.88,7.38.93,2.2.01,4.36-1.03,6.56-1.02,3.28.09,6.54,1.09,9.84.81,3.82-.09,7.67-.48,11.48-.69,2.18-.19,4.4-.84,6.56-1.17"/><path class="b" d="M13.57,108.23c2.81-1.42,5.64-4.07,9.02-2.99,1.59.45,3.25,1.16,4.92,1.28,2.98.26,6.08.17,9.02.78,1.38.39,2.77,1.2,4.1,1.71,1.54.59,3.28.91,4.92,1,2.73.03,5.49.5,8.2.65,1.88.02,3.86-.31,5.74-.28,4.06.11,8.38.86,12.3-.52,2.8-1.09,6.01-2.84,9.02-1.58,1.61.68,3.19,1.81,4.92,2.2,1.88.42,3.87-.03,5.74-.25,1.32-.13,2.8.05,4.1.25,1.59.25,3.34.22,4.92-.09,2.12-.5,4.39-1.04,6.56-.49,1.85.43,3.83.81,5.74.75,1.89-.07,3.85-.53,5.74-.54,2.43.04,4.95.29,7.38.21,2.44,0,4.95-.33,7.38-.41,3.54.08,7.13.55,10.66.75,2.73,0,5.45-.99,8.2-.74,1.88.12,3.86.45,5.74.52,2.71.09,5.51-.14,8.2-.5,2.14-.32,4.4-.47,6.56-.62,1.88-.21,3.85-.63,5.74-.71"/><path class="b" d="M13.57,105.54c3.96-2.39,5.88-4.35,10.66-2.38,3.97,1.14,8.23,1.16,12.3,1.76,2.2.52,4.32,1.67,6.56,2.06,3.25.54,6.62.63,9.84,1.38,2.15.33,4.4-.07,6.56-.1,2.43.07,4.95.28,7.38.21,3.89.22,7.6-1.59,11.48-1.34,1.93.14,3.85.91,5.74,1.23,3.02.56,6.01-.81,9.02-.61,1.89.16,3.84.72,5.74.74,2.44.07,4.94-.5,7.38-.24,1.59.16,3.32.32,4.92.2,1.89-.12,3.85-.59,5.74-.63,2.44-.02,4.94.48,7.38.47,6,.09,12.04.21,18.04.2,3.01.1,6.03-.54,9.02-.69,2.99-.09,6.03.53,9.02.46,2.72,0,5.5-.36,8.2-.59,3.25-.18,6.59-.28,9.84-.09"/><path class="b" d="M13.57,102.76c2.36-1.4,4.51-3.7,7.38-3.94,1.35-.08,2.8.33,4.1.62,1.94.21,3.9.77,5.74,1.42,2.09.77,4.38.92,6.56,1.19,2.98.72,6,1.6,9.02,2.18,2.49.44,4.94,1.33,7.38,1.94,1.59.3,3.33.05,4.92-.12,2.98-.21,6.03.34,9.02.19,3.81-.08,7.67-.55,11.48-.1,2.43.19,4.96.28,7.38.02,2.97-.37,6.03-.87,9.02-.38,4.32.62,8.77.7,13.12.38,2.71-.34,5.44-1.3,8.2-1.05,3.25.4,6.56.91,9.84,1.02,3.26.33,6.59.13,9.84-.2,4.08.18,8.23.45,12.3,0,4.09-.52,8.21.39,12.3.34,5.73-.05,11.49-.48,17.22-.04"/><path class="b" d="M13.57,99.76c3.33-2.24,6.18-5.9,10.66-5.02.74.09,1.72.16,2.46.25,2.34.69,4.24,2.57,6.56,3.35,1.27.48,2.77.44,4.1.55,1.33.14,2.8.35,4.1.63,3.12.65,6.03,2.18,9.02,3.23,5.11,2.43,5.76.93,10.66.94,3.52.37,7.12.3,10.66.31,3.26.05,6.58.26,9.84.1,4.64.06,9.31-.4,13.94-.55,3.26-.05,6.58.57,9.84.28,3.9-.19,7.5-2.64,11.48-1.88,2.71.45,5.48.95,8.2,1.33,1.86.35,3.83.93,5.74.88,2.49-.05,4.86-1.62,7.38-1.06,2.14.34,4.39.71,6.56.75,2.43.09,4.95-.19,7.38-.06,1.6.09,3.32.32,4.92.36,1.88.03,3.86-.15,5.74-.13,5.18.11,10.4.23,15.58.05"/><path class="b" d="M13.57,96.44c2.47-1.63,4.5-4.18,7.38-5.1,1.84-.53,3.87-.19,5.74,0,1.19.42,2.32,1.43,3.28,2.22,1.61,1.35,3.55,2.74,5.74,2.77,2.76.1,5.66.27,8.2,1.45,2.18.98,4.27,2.39,6.56,3.11,4.72,2.06,6.19.45,10.66.6,3.52.43,7.13.16,10.66.29,4.08.34,8.22,0,12.3.16,3.26.06,6.61.11,9.84-.34,1.31-.19,2.77-.49,4.1-.58,1.6-.06,3.32.11,4.92.08,1.92-.02,3.94-.33,5.74-1,1.85-.7,3.72-1.78,5.74-1.9,3.29-.13,6.65.58,9.84,1.33,1.94.59,3.77,1.82,5.74,2.32,2.56.7,4.86-1.36,7.38-1.23,2.17.15,4.39.67,6.56.82,2.7.22,5.5.09,8.2.39,1.31.13,2.79.23,4.1.06,2.15-.34,4.36-1.06,6.56-.99,2.17.07,4.4.55,6.56.74,2.97.25,6.04.17,9.02.05"/><path class="b" d="M13.57,92.53c5.32-3.79,5.89-4.48,12.3-2.67,2.9.62,4.65,3.65,7.38,4.72,1.25.59,2.76.63,4.1.79,1.63.23,3.37.59,4.92,1.15,1.91.69,3.82,1.71,5.74,2.37,1.81.59,3.83.92,5.74.94,1.89-.02,3.85-.44,5.74-.43,1.88.05,3.86.36,5.74.28,2.43-.03,4.95-.25,7.38-.17,2.43.12,4.94.4,7.38.32,2.99.07,6.04-.17,9.02-.05,1.6.07,3.34.1,4.92-.19,1.33-.24,2.77-.73,4.1-1.01,1.86-.29,3.87-.13,5.74-.27,2.59-.13,5.14-1.04,7.38-2.32,3.69-2.03,8.36-2.35,12.3-.9,2.4.93,4.32,2.9,6.56,4.11,2.33,1.36,4.93-.09,7.38-.15,3.54.08,7.12.48,10.66.55,2.71.11,5.63.61,8.2-.53,1.79-.82,3.71-1.84,5.74-1.81,2.54.07,4.92,1.35,7.38,1.84,2.94.57,6.04.56,9.02.61"/><path class="b" d="M13.57,88.82c6.15-3.31,7.04-2.55,13.12.03,2.51,1.68,4.41,4.45,7.38,5.43,1.85.52,3.9.64,5.74,1.21,2.7.71,5.41,1.71,8.2,2.02,4.35.51,8.76-.33,13.12-.05,4.08.35,8.22-.26,12.3-.1,2.71.14,5.49.35,8.2.19,1.88-.08,3.85-.55,5.74-.46,2.16.08,4.39.73,6.56.55,1.66-.14,3.31-.89,4.92-1.25,3.8-.76,7.88-.56,11.48-2.17,1.9-.89,3.86-1.92,5.74-2.85,1.77-.84,3.72-1.96,5.74-1.74,3.91.97,5.79,5.22,9.02,7.3,2.22,1.47,4.94.23,7.38.4,3.81.16,7.67.36,11.48.36,6.48.37,7.73-4.41,13.12-3.44,2.26.54,4.34,1.91,6.56,2.57,2.89.85,6.03.92,9.02.84"/><path class="b" d="M13.57,86.18c2.2-.24,4.33-1.35,6.56-1.31,2.38.06,4.62,1.33,6.56,2.6,1.41,1.2,2.7,2.82,4.1,4.03,1.79,1.66,4.2,2.28,6.56,2.57,1.89.35,3.84.95,5.74,1.22,3.79.5,7.67-.04,11.48.08,3.26-.03,6.58,0,9.84.03,3.26-.09,6.58-.22,9.84-.13,2.16.03,4.42.09,6.56-.16,1.9-.19,3.83-.89,5.74-.96,3.33-.11,6.51,1.78,9.84,1.25,2.75-.5,5.48-1.45,8.2-2.07,2.15-.51,4.48-.73,6.56-1.53,2.73-.97,5.16-2.75,7.38-4.56,2.61-2.12,4.18-2.24,6.56.3,2.81,2.7,4.59,7.79,9.02,7.96,1.6-.07,3.32-.21,4.92-.11,4.07.11,8.26.3,12.3-.32,2.39-.43,4.46-1.95,6.56-3.06,2.36-1.09,5.2-.35,7.38.85,4.42,2.63,8.06,3.14,13.12,2.18"/><path class="b" d="M13.57,84.89c1.93.47,3.89-.38,5.74-.81,4.92-1.32,7.69,2.59,10.66,5.69,1.13,1.06,2.59,1.99,4.1,2.38,2.14.44,4.41.66,6.56,1.06,3,.45,6.02-.55,9.02-.51,3.53.27,7.11.72,10.66.54,2.99,0,6.04-.12,9.02-.14,2.99.02,6.05.1,9.02-.19,2.79-.15,5.43-1.51,8.2-1.64,1.61.03,3.36.18,4.92.61,2.13.6,4.31,1.53,6.56,1.45,3.51.02,6.5-2.24,9.84-2.99,1.9-.42,3.93-.8,5.74-1.51,2.13-.83,3.99-2.42,5.74-3.85,2.2-1.86,3.68-1.77,5.74.26,2.74,2.54,4.39,6.82,8.2,7.94,1.58.28,3.33.04,4.92.12,2.99.14,6.04-.26,9.02-.38,3.22,0,6.3-1.24,9.02-2.87,2.52-1.64,5.73-.71,8.2.57,5.67,3.45,7.69,3.14,13.94,1.43"/><path class="b" d="M13.57,84.52c1.86.79,3.91.05,5.74-.47,5.2-1.71,7.19,2.15,10.66,4.96,2.56,2.01,5.96,1.83,9.02,2.11,3.71.61,6.99-2.19,10.66-1.66,2.18.44,4.3,1.54,6.56,1.6,3.81.19,7.68.01,11.48-.1,2.99-.08,6.05.07,9.02-.31,1.63-.18,3.36-.55,4.92-1.04,1.83-.59,3.78-1.33,5.74-1.14,1.89-.06,3.92-.09,5.74.51,3.38,1.19,7.16,3.35,10.66,1.36,1.82-.94,3.72-2.06,5.74-2.51,1.86-.48,3.92-.58,5.74-1.2,4.27-1.33,6.2-5.59,10.66-1.75,6.22,5.88,5.63,6.77,14.76,6.18,2.43-.23,4.94-.6,7.38-.62,2.29-.13,4.57-.97,6.56-2.08,3.29-1.97,4.72-1.82,8.2-.26,1.91.88,3.68,2.33,5.74,2.87,3.43.87,6.54-1.66,9.84-2.16"/><path class="b" d="M13.57,84.53c2.12.78,4.42.05,6.56-.24,6.41-.88,7.37,4.89,14.76,4.67,3.29.14,6.19.24,9.02-1.72,1.23-.73,2.64-1.59,4.1-1.69,1.85-.08,3.42,1.22,4.92,2.12,1.69,1.05,3.78,1.34,5.74,1.32,3.54.05,7.13-.01,10.66-.28,2.44-.13,4.98-.21,7.38-.68,2.83-.42,5.48-1.73,8.2-2.52,1.01-.26,2.25-.12,3.28-.15,1.32-.05,2.81-.03,4.1.28,2.56.64,4.85,2.22,7.38,2.95,2.2.89,4.58.12,6.56-.94,1.53-.76,3.25-1.42,4.92-1.79,2.18-.37,4.49-.59,6.56-1.41,2.47-.99,4.72-2.18,7.38-.96,6,2.97,5.98,6.04,13.94,5.44,2.71-.1,5.48-.53,8.2-.49,2.92.09,5.76-1.04,8.2-2.57,2.82-1.84,4.56-1.19,7.38.27,1.61.85,3.14,2.21,4.92,2.71,2.04.59,4.07-.61,5.74-1.66,1.49-.91,3.2-1.79,4.92-2.15"/><path class="b" d="M13.57,84.49c3.25.66,6.58-.55,9.84-.09,2.53.37,4.85,1.79,7.38,2.16,2.14.35,4.41.32,6.56.21,2.11,0,4.12-.96,5.74-2.25,1.81-1.45,4.26-3.15,6.56-1.71,1.43.82,2.68,2.2,4.1,3.04,2.98,1.63,6.59.8,9.84,1,2.44.02,4.95-.24,7.38-.4,3.67-.1,7.36-.88,10.66-2.53,2.31-1.15,4-1.66,6.56-1.05,3.46.33,6.62,1.95,9.84,3.1,2.63.94,5.54,1.19,8.2.22,2.98-.98,5.99-2.1,9.02-2.91,2.63-.73,5.46-1.7,8.2-1.06,4.38.77,7.69,4.76,12.3,4.61,3.26.07,6.59-.07,9.84-.29,3.41.07,6.9-.27,9.84-2.16,2.71-1.74,4.45-1.77,7.38-.36,1.64.81,3.12,2.24,4.92,2.71,1.76.42,3.55-.61,4.92-1.61,1.8-1.31,3.63-2.88,5.74-3.67"/><path class="b" d="M13.57,83.81c3.8.36,7.68-.13,11.48.29,4.63.71,9.55,1.04,13.94-.89,1.48-.74,2.83-2.02,4.1-3.06,1.72-1.49,3.77-2.14,5.74-.7,1.45.99,2.75,2.47,4.1,3.59,2.97,2.45,7.11,1.45,10.66,1.65,2.16,0,4.4-.21,6.56-.27,2.16-.06,4.45-.02,6.56-.55,2.59-.57,4.89-2.16,7.38-2.98,1.94-.6,3.91.49,5.74,1.01,2.67.89,5.42,1.87,8.2,2.37,13.54,2.16,15.13-4.2,22.14-3.78,2.53.38,5.04,1.34,7.38,2.33,2.05.91,4.27,1.93,6.56,1.87,2.43-.22,4.95-.24,7.38-.03,1.88.09,3.87-.05,5.74-.07,3.05.03,6.25-.17,9.02-1.57,2.23-1.24,4.99-1.62,7.38-.61,1.33.62,2.69,1.62,4.1,2.08,4.34,1.06,7.28-3.47,10.66-5.36"/><path class="b" d="M13.57,82.33c4.9.17,9.86.24,14.76.14,1.95-.05,4.02-.42,5.74-1.39,1.99-1.2,3.96-2.71,5.74-4.2,3.54-3.54,5.47-4.43,9.02-.3,1.77,1.81,3.42,4.11,5.74,5.25,1.51.66,3.3.67,4.92.68,1.88,0,3.86,0,5.74-.08,5.2-.36,10.72.83,15.58-1.55,2.84-1.3,4.44-1.76,7.38-.41,4.7,1.73,9.8,2.06,14.76,2.04,3.3.01,6.86.19,9.84-1.47,2-1.09,4.16-2.62,6.56-2.17,3.84,1.06,7.5,3.02,11.48,3.57,2.78.49,5.43-1.22,8.2-.75,1.6.22,3.31.64,4.92.75,2.15.14,4.41.05,6.56.07,1.6,0,3.34-.02,4.92-.33,1.63-.33,3.29-1.04,4.92-1.38,3.47-1,5.12.54,8.2,1.53,3.87,1,6.95-2.18,9.84-4.2"/><path class="b" d="M13.57,80.35c2.99.04,6.04-.19,9.02-.38,2.16-.15,4.45-.14,6.56-.65,3.77-.9,5.92-4.49,8.2-7.31,2.28-2.13,5.13-6.39,8.2-2.94,2.78,3.24,4.67,7.48,8.2,10.04,1.67,1.11,3.8,1.2,5.74,1.2,2.71.02,5.49-.1,8.2-.09,3.26.05,6.59.28,9.84-.04,2.74-.23,5.42-1.72,8.2-1.32,1.59.4,3.28.9,4.92,1.06,5.98.48,12.05.46,18.04.36,1.36-.09,2.86-.4,4.1-.96,1.78-.81,3.71-1.94,5.74-1.64,1.68.26,3.3,1.18,4.92,1.66,2.9.75,6.04,1.33,9.02.78,1.93-.35,3.71-1.74,5.74-1.6,1.94.11,3.85.95,5.74,1.33,2.12.46,4.4.34,6.56.33,2.15-.03,4.41.31,6.56.08,2.2-.24,4.37-1.17,6.56-1.4,1.66-.07,3.35.64,4.92,1.09,3.63,1.16,6.68-.4,9.84-2.05"/><path class="b" d="M13.57,78.15c3.06-.03,6.06-.9,9.02-1.54,2.15-.5,4.52-.44,6.56-1.35,3.81-1.8,5.65-5.98,8.2-9.09,3.68-3.54,5.97-4.24,9.02.38,2.43,3.6,4.52,7.9,8.2,10.4,1.7,1,3.81,1.13,5.74,1.15,6.82-.14,13.72.55,20.5-.36,1.31-.16,2.78-.28,4.1-.16,1.32.14,2.77.47,4.1.51,3.81.17,7.67-.09,11.48.06,2.98-.02,6.06.23,9.02-.18,2.49-.24,4.85-1.67,7.38-1.52,1.96.17,3.82,1.19,5.74,1.53,3.24.41,6.67.32,9.84-.47,1.4-.35,2.77-1.24,4.1-1.77,3.04-.98,6.07.81,9.02,1.33,2.13.4,4.42.08,6.56.35,2.42.32,4.92,1.05,7.38.65,1.88-.24,3.83-.9,5.74-.81,1.9.09,3.85.68,5.74.85,2.48.31,5.01-.3,7.38-.94"/><path class="b" d="M13.57,75.94c3.29-.08,6.12-1.96,9.02-3.27,2.06-1,4.54-.76,6.56-1.84,3.02-1.56,4.99-4.58,7.38-6.88,1.46-1.4,3.78-1.87,5.74-1.58,4.23,1.18,6.83,6.31,9.84,9.3,3.95,4.76,9.18,4.17,14.76,4.32,4.64.12,9.32,0,13.94-.46,2.73-.17,5.48.53,8.2.49,3.26.04,6.58-.06,9.84-.07,2.71,0,5.5.18,8.2-.03,2.75-.18,5.45-1.25,8.2-1.33,2.77.16,5.36,1.9,8.2,1.35,2.98-.43,6.08-.6,9.02-1.27,1.43-.31,2.8-1.2,4.1-1.83,3.46-1.56,7.16.02,10.66.54,1.91.17,3.93.52,5.74,1.16,2.34.86,4.85,1.67,7.38,1.47,2.43-.17,4.94-.59,7.38-.44,3.54.2,7.14.81,10.66.07"/><path class="b" d="M13.57,73.69c4.02-.29,6.51-3.9,9.84-5.67,1.24-.68,2.75-.64,4.1-.81,1.7-.3,3.4-1.1,4.92-1.89,1.99-1.01,4.24-2.4,6.56-1.83,3.03.59,6.24,1,9.02,2.41,3.69,2.16,6.41,6.02,10.66,7.24,3.17.95,6.58.65,9.84.69,2.16-.01,4.41.09,6.56-.13,1.88-.2,3.84-.67,5.74-.71,2.19-.05,4.4.61,6.56.8,3.26.1,6.58-.06,9.84.04,3.26-.03,6.6.11,9.84-.23,2.71-.28,5.47-1.12,8.2-.97,1.36.15,2.78.71,4.1,1.03,2.49.61,4.96-.68,7.38-1.08,2.14-.42,4.44-.38,6.56-.89,2.26-.71,4.28-2.25,6.56-2.95,3.14-1.15,6.87-.92,9.84.61,6.51,4.1,7.59,4.93,15.58,4.32,2.15-.12,4.41-.33,6.56-.18,2.15.22,4.4.48,6.56.22"/><path class="b" d="M13.57,71.38c4.64-.72,6.53-5.98,10.66-7.62,1.3-.4,2.77.07,4.1.04,3.88-.11,7.86.16,11.48,1.69,2.35.9,4.93.77,7.38.47,5.28-.42,9.01,6.35,15.58,5.73,1.88-.07,3.86-.28,5.74-.2,1.88.08,3.86.32,5.74.14,2.48-.18,4.87-1.4,7.38-1.37,1.94.04,3.86.84,5.74,1.21,2.14.45,4.41.1,6.56-.07,4.9-.33,9.86.37,14.76-.13,2.43-.08,4.95-.68,7.38-.36,2.14.39,4.4,1.23,6.56.46,10.39-3.8,8.65,1.17,18.86-6.77,3.39-2.41,6.29-2.43,9.02.96,2.07,2.28,4.26,4.94,7.38,5.72,3.2.67,6.6.46,9.84.2,1.59-.17,3.32-.45,4.92-.28,1.87.22,3.85.6,5.74.5"/><path class="b" d="M13.57,69.04c5.2-.87,7.61-9.75,13.12-7.51,2.17.62,4.45,1.19,6.56,1.99,2.94,1.05,5.93,2.36,9.02,2.88,2.73.47,5.51-1.01,8.2-.33,3.61.9,6.77,3.86,10.66,3.41,1.88-.22,3.84-.75,5.74-.77,1.91-.02,3.86.55,5.74.76,1.62.17,3.38,0,4.92-.51,2.33-.89,4.94-1.68,7.38-.72,6.14,2.47,6.56.65,12.3.13,2.19-.14,4.41.45,6.56.71,2.97.31,6.05.34,9.02.14,1.31-.12,2.79-.2,4.1-.05,1.87.24,3.89.61,5.74.07,2.13-.6,4.33-1.39,6.56-1.49,2.49-.12,5.22.05,7.38-1.44,3.6-1.78,6.59-8.14,10.66-7.68,1.4.43,2.43,1.91,3.28,3.01,1.47,2.01,2.98,4.31,4.92,5.9,2.02,1.71,4.83,1.98,7.38,2,2.74.14,5.51-.35,8.2-.77,2.46-.21,4.93.68,7.38.75"/><path class="b" d="M13.57,66.77c4.4-1.04,6.32-6.3,10.66-7.34,1.99-.09,3.93,1.04,5.74,1.75,1.91.88,3.81,2.05,5.74,2.89,2.58.98,5.43,1.62,8.2,1.45,1.61-.1,3.31-.53,4.92-.65,2.56-.04,5.01,1.15,7.38,1.96,1.55.55,3.34.72,4.92.21,5.35-1.87,6.17-1.9,11.48-.05,1.56.41,3.35.52,4.92.1,1.6-.44,3.24-1.28,4.92-1.38,4.3.12,5.63,2.76,10.66,1.12,3.19-1.04,6.61-.85,9.84-.09,2.4.45,4.94.58,7.38.6,3.54-.03,7.13-.12,10.66.01,2.48-.07,4.94-.92,7.38-1.29,3.04-.49,6.42-.27,9.02-2.19,2.8-1.92,4.56-5.16,7.38-7.04,6-3.51,7.54,10.69,17.22,10.49,3.28.25,6.58-.4,9.84-.61,2.17.01,4.4.53,6.56.61"/><path class="b" d="M13.57,64.44c2.48-.77,4.52-2.6,6.56-4.12,1.41-1.04,3.11-2.06,4.92-2.02,3.67.3,6.72,2.6,9.84,4.3,3,1.5,6.57,1.57,9.84,1.17,1.32-.18,2.77-.48,4.1-.53,1.35-.01,2.8.39,4.1.7,1.86.48,3.79,1.29,5.74,1.25,4.97-.6,6.79-4.81,12.3-1.55,1.73.94,3.74,1.69,5.74,1.53,1.67-.16,3.29-1.03,4.92-1.35,3.1-.56,5.9,1.87,9.02,1.31,2.97-.48,6.01-.89,9.02-.67,2.99.15,6.02.76,9.02.72,6.56-.34,13.27.7,19.68-1.09,3.3-.85,7.02-.88,9.84-3,2.47-1.74,4.34-4.71,7.38-5.49,5.73-.56,9.43,9.37,16.4,9.52,2.98.16,6.04-.16,9.02-.2,2.43-.04,4.95.34,7.38.24"/><path class="b" d="M13.57,61.76c5.96-2.63,9.71-5.11,16.4-2.67,2.2.85,4.25,2.31,6.56,2.87,3.78.85,7.69.07,11.48-.29,3.03-.07,6.04.92,9.02,1.3,2.76.48,5.12-1.29,7.38-2.58,5.66-3.19,7.48,4.69,14.76,2.13,4.29-1.59,6.54.96,10.66.44,4.34-.6,8.76-.23,13.12-.13,1.59.1,3.32.27,4.92.16,1.33-.08,2.78-.48,4.1-.66,4.09-.29,8.22.93,12.3.24,2.48-.34,4.96-1.16,7.38-1.76,2.51-.59,5.22-.97,7.38-2.49,2.17-1.41,4.64-3.25,7.38-2.55,2.2.66,4.52,1.34,6.56,2.42,3.05,1.45,5.54,4.42,9.02,4.78,2.7.14,5.49-.11,8.2-.02,2.71.01,5.51.22,8.2-.2"/><path class="b" d="M13.57,58.69c4.63-2.36,9.88-.6,14.76-.32,2.24.2,4.41,1.08,6.56,1.66,1.57.4,3.31.53,4.92.53,3.54.11,7.14-.67,10.66-.21,2.7.19,5.5.68,8.2.44,1.47-.19,2.89-1.04,4.1-1.84,7.49-5.63,7.39,4.09,16.4,1.48,2.45-.71,4.95.14,7.38.43,2.72.03,5.48-.7,8.2-.38,2.15.2,4.4.27,6.56.28,1.88.02,3.88.25,5.74-.03,2.26-.34,4.25-1.9,6.56-2.02,3.58-.2,7.06,1.77,10.66,1.03,2.75-.4,5.47-1.28,8.2-1.77,1.31-.25,2.81-.35,4.1-.71,1.35-.37,2.78-1.04,4.1-1.51,1.54-.56,3.35-.67,4.92-.2,1.29.42,2.72,1.01,4.1,1.06,2.53.09,5.2.41,7.38,1.82,1.28.75,2.63,1.83,4.1,2.2,2.4.5,4.95.07,7.38.18,3.27.03,6.66.31,9.84-.67"/><path class="b" d="M13.57,55.28c2.41-1.18,5.06-.03,7.38.83,1.82.67,3.8,1.24,5.74,1.41,3.56.07,7.12.76,10.66,1,3.26.14,6.58.05,9.84.05,2.43.02,4.95.18,7.38.15,7.81.55,9.09-6.43,13.94-3.83,1.66,1,3.11,2.58,4.92,3.33,2.37.97,4.95.18,7.38-.02,1.9-.1,3.85.53,5.74.52,1.61-.04,3.32-.43,4.92-.55,3.27-.17,6.57.5,9.84.49,1.89.09,3.96.2,5.74-.56,1.97-.83,3.6-2.62,5.74-3.06,3.11-.71,6.01,1.24,9.02,1.6,3.27.09,6.57-.74,9.84-.71,1.6-.06,3.35,0,4.92-.32,2.15-.45,4.32-1.45,6.56-1.34,1.67.05,3.33.83,4.92,1.27,1.86.34,3.87-.05,5.74.03,3.07-.04,5.34,2.4,8.2,2.98,2.41.35,4.95.05,7.38.13,3.01.04,6.15.25,9.02-.86"/><path class="b" d="M13.57,51.7c1.42-.41,2.9.26,4.1.96,1.56.94,3.21,2.03,4.92,2.67,2.33.9,4.92.95,7.38.92,2.43,0,4.95.11,7.38.17,3.53.1,7.13.07,10.66.09,2.71.01,5.54.16,8.2-.45,3.2-.66,5.35-3.44,8.2-4.77,4.37-1.7,6.73,4.77,11.48,5.13,1.59.27,3.32,0,4.92-.06,1.32-.05,2.79.11,4.1.18,2.45.09,4.93-.64,7.38-.53,2.71.14,5.48.55,8.2.53,1.92.05,4.02,0,5.74-.95,2.05-1.07,3.53-3.24,5.74-4.02,3.03-1.04,6.08.53,9.02,1.13,1.87.32,3.86-.24,5.74.04,2.47.24,4.91,1.17,7.38,1.44,3.04.32,5.99-1.16,9.02-.98,1.95.02,3.82,1.06,5.74,1.19,2.99,0,6.15-1.2,9.02.16,1.29.59,2.69,1.41,4.1,1.7,2.67.52,5.5.22,8.2.28,2.72-.01,5.56.21,8.2-.58"/><path class="b" d="M13.57,49.25c2.49.2,4.41,2.24,6.56,3.31,2.98,1.68,6.51,1.83,9.84,1.74,3.26-.06,6.58-.08,9.84.02,2.98.06,6.04.02,9.02.05,3.12.16,6.47-.09,9.02-2.1,2.07-1.49,3.95-3.65,6.56-4.15,2.96-.54,5.23,1.99,7.38,3.6,1.41,1.12,3.18,1.94,4.92,2.37,1.57.36,3.32.28,4.92.28,1.6,0,3.33.06,4.92-.17,3.25-.66,6.58,0,9.84.17,3-.03,6.25.22,9.02-1.12,2.37-1.1,3.96-3.72,6.56-4.34,2.99-.65,6.04.37,9.02.53,1.89.03,3.85-.72,5.74-.23,6.06,1.77,5.91,3.65,13.12,2.49,1.59-.18,3.34-.17,4.92.14,1.32.23,2.74.87,4.1.87,2.18,0,4.38-.82,6.56-.76,2.6.04,4.84,1.8,7.38,2.12,2.69.4,5.49.27,8.2.3,2.43-.01,4.97.09,7.38-.27"/><path class="b" d="M13.57,48.45c2.23.62,4.33,1.86,6.56,2.48,2.64.73,5.46,1.1,8.2,1.13,2.99,0,6.04-.18,9.02-.1,3.81.22,7.67.16,11.48.21,3.13.23,5.77,0,8.2-2.19,2.18-1.86,4.24-4.23,7.38-3.98,2.74,0,5.15,1.61,7.38,3.02,2.24,1.37,4.73,2.72,7.38,3.02,1.87.18,3.87.16,5.74,0,1.32-.14,2.77-.45,4.1-.39,2.98.26,6.02.82,9.02.36,2.46-.19,5.09-.23,7.38-1.24,1.71-.73,3.26-2.05,4.92-2.87,3.97-1.16,8.31.63,12.3-.62,7.06-2.8,8.64,2.38,15.58,1.86,1.88,0,3.89.08,5.74.45,1.62.26,3.27,1.05,4.92,1.08,2.18-.01,4.38-.77,6.56-.73,2.54.03,4.87,1.5,7.38,1.71,2.42.31,4.95.25,7.38.3,2.7.12,5.49.3,8.2.13"/><path class="b" d="M13.57,48.3c3.18.93,6.56,1,9.84.9,1.33-.04,2.78.15,4.1.21,1.88.04,3.86-.1,5.74-.14,4.65-.14,9.29.69,13.94.62,2.74.06,5.8.64,8.2-1.06,1.93-1.21,3.54-3.19,5.74-3.93,2.43-.41,5.04.14,7.38.82,7.08,2.54,8.99,5.08,17.22,3.94,2.72-.62,5.48.32,8.2.38,1.61.01,3.32-.32,4.92-.46,1.88-.13,3.9-.18,5.74-.61,1.67-.37,3.34-1.2,4.92-1.84,1.53-.63,3.32-.31,4.92-.19,1.87.16,3.87.28,5.74.03,3.98-.46,7.28-4.03,11.48-2.73,3.45,1.17,7.17,1.38,10.66,2.37,1.9.48,3.84,1.29,5.74,1.75,1.02.14,2.26.04,3.28-.1,1.86-.28,3.87-.53,5.74-.19,1.87.38,3.8,1.08,5.74,1.08,2.43.11,4.95-.2,7.38-.08,2.7.37,5.45,1.07,8.2.88"/><path class="b" d="M13.57,47.55c3.56.4,7.18-.02,10.66-.8,1.03-.2,2.24-.16,3.28-.21,1.6-.11,3.32-.35,4.92-.47,4.75-.59,9.26,1.17,13.94,1.55,4.24.46,6.99.58,10.66-1.91,2.95-1.98,4.84-1.86,8.2-1.43,5.36.42,10.18,3.54,15.58,3.52,3,.19,6.04-.62,9.02-.26,3.8.68,7.66.05,11.48-.03,3.14.05,6.03-.98,9.02-1.67,2.71-.11,5.49.45,8.2.22,8.43-.24,8.66-7.08,18.04-4.12,2.83.72,5.51,2.11,8.2,3.22,1,.41,2.22.93,3.28,1.16,1.02.16,2.26.08,3.28-.06,1.59-.22,3.31-.52,4.92-.48,1.33.02,2.79.38,4.1.57,2.16.23,4.42-.21,6.56-.43,1.6-.2,3.4-.22,4.92.38,2.04.89,4.32,1.5,6.56,1.46"/><path class="b" d="M13.57,45.65c3.27-.09,6.69.45,9.84-.68,1.56-.55,3.3-.8,4.92-1.06,2.68-.48,5.47-.94,8.2-.93,2.57-.07,4.99,1.03,7.38,1.79,5.53,1.71,8.78.96,13.94-1.14,2.09-.8,4.39-.49,6.56-.37,3.61.11,7.18.9,10.66,1.8,3.46.88,7.13.69,10.66.52,2.98-.33,6.03.27,9.02.11,2.98-.23,6.04-.17,9.02-.22,2.18-.03,4.4-.53,6.56-.73,4.1.08,8.29-.24,12.3-1.13,2.03-.5,3.94-1.67,5.74-2.68,6.32-4.06,10.64.05,16.4,2.61,3.41,1.71,6.33,1.09,9.84.12,1-.25,2.24-.47,3.28-.5,1.32.02,2.8.21,4.1-.12,2.65-.62,5.45-1.91,8.2-1.15,1.45.46,2.78,1.58,4.1,2.31,1.2.68,2.72,1.12,4.1,1.24"/><path class="b" d="M13.57,42.72c2.73.02,5.46,1.16,8.2.74,1.93-.29,3.83-1.12,5.74-1.5,3.23-.69,6.56-1.27,9.84-1.6,5.2-.4,8.01,4.34,14.76,2.97,2.49-.44,4.89-1.58,7.38-1.99,1.31-.2,2.78-.03,4.1-.01,1.88.03,3.88.07,5.74.34,2.75.35,5.46,1.32,8.2,1.72,2.7.27,5.5.16,8.2.11,2.16-.16,4.41.05,6.56.05,2.16-.01,4.4-.34,6.56-.3,3.54.19,7.14.21,10.66-.21,2.17-.04,4.43-.07,6.56-.56,2.95-.69,6.06-.72,9.02-1.31,2.81-.58,5.4-2.09,8.2-2.68,6.57-.64,11.65,6.16,18.86,3.82,1.63-.45,3.31-1.23,4.92-1.75,1.28-.45,2.82-.35,4.1-.8,2.37-.9,4.72-2.58,7.38-2.18,1.91.29,3.48,1.77,4.92,2.95,1.39,1.15,3.14,2.12,4.92,2.45"/><path class="b" d="M13.57,39.83c3.23.62,6.5,2.19,9.84,1.3,1.89-.44,3.81-1.19,5.74-1.47,3-.43,6.04-.99,9.02-1.53,5.29-.39,7.61,4.64,14.76,2.95,2.53-.52,4.86-1.94,7.38-2.47,3.24-.2,6.63-.32,9.84.22,2.51.46,4.91,1.6,7.38,2.21,2.12.45,4.4.34,6.56.35,2.43-.09,4.95-.02,7.38,0,1.89-.05,3.85-.49,5.74-.57,3.53.11,7.12.69,10.66.28,2.44-.23,5-.02,7.38-.69,1.57-.38,3.3-.76,4.92-.76,2.43.03,4.95.35,7.38.05,1.91-.2,3.86-.83,5.74-1.21,3.88-.48,7.7,1.12,11.48,1.76,4.77,1.2,8.17-.07,12.3-2.42,1.25-.69,2.86-.92,4.1-1.62,1.99-1.16,4.09-2.96,6.56-2.47,1.95.42,3.5,2.01,4.92,3.31,1.61,1.49,3.59,2.83,5.74,3.37"/><path class="b" d="M13.57,37.4c5.43,1.86,7.55,2.67,13.12.51,2.37-.72,4.95-.71,7.38-1.04,2.15-.2,4.4-1.04,6.56-.59,1.98.45,3.84,1.56,5.74,2.25,3.18,1.16,6.89.88,9.84-.79,1.82-.96,3.62-2.4,5.74-2.57,2.99-.1,6.12-.51,9.02.46,5.77,2.08,6.24,3.88,13.12,3.59,2.43-.09,4.95.07,7.38-.05,1.89-.16,3.83-.8,5.74-.82,2.44.15,4.92.83,7.38.72,1.6,0,3.33-.14,4.92-.27,1.6-.05,3.34-.05,4.92-.4,1.58-.31,3.31-.59,4.92-.48,2.43.23,4.93.69,7.38.69,2.46.07,4.95-.52,7.38-.79,2.71,0,5.49.23,8.2.31,2.71.05,5.52.54,8.2-.02,3.58-.73,6.53-3.15,9.84-4.55,2.24-1.33,4.54-3.9,7.38-2.78,1.96.8,3.4,2.64,4.92,4.03,1.59,1.44,3.65,2.55,5.74,3.06"/><path class="b" d="M13.57,35.39c3.71,1.41,6.81,2.46,10.66.79,1.31-.51,2.71-1.23,4.1-1.5,2.68-.51,5.49-.24,8.2-.32,1.04-.02,2.25-.13,3.28.04,1.66.28,3.34,1,4.92,1.57,3.09,1.12,6.69,1.59,9.84.48,2.09-.8,3.83-2.44,5.74-3.57,1.21-.7,2.74-.76,4.1-.85,3.13-.29,6.27.59,9.02,2.04,4.76,2.61,5.95,3.16,11.48,3,1.88-.01,3.87.05,5.74-.07,1.89-.13,3.85-.65,5.74-.74,2.17-.03,4.38.68,6.56.65,2.99.14,6.03-.41,9.02-.37,1.88-.11,3.86-.4,5.74-.27,2.43.21,4.93.67,7.38.69,2.99.14,6.05-.11,9.02-.37,2.15-.02,4.41,0,6.56-.13,3.53-.32,7.22,0,10.66-.96,3.28-.98,6.09-3.15,9.02-4.82,2.12-1.52,4.6-4.09,7.38-2.62,1.59.85,2.91,2.39,4.1,3.71,1.71,1.86,4.09,3.2,6.56,3.7"/><path class="b" d="M13.57,33.77c3.92,1.49,7.71,1.54,11.48-.37,1.53-.75,3.21-1.56,4.92-1.77,2.48-.34,4.97.46,7.38.91,3.59.48,7.01,2.07,10.66,2.24,11.66,1.32,9.82-5.64,18.04-4.95,4.62.68,8.75,3.24,13.12,4.7,2.11.57,4.4.29,6.56.24,2.71.03,5.5-.11,8.2-.35,2.72-.33,5.49.24,8.2.29,3.54.05,7.12-.3,10.66-.23,2.99-.19,6.04.19,9.02.37,7.92.05,15.88.13,23.79-.41,3.12-.11,6.4-.57,9.02-2.38,2.26-1.62,4.44-3.55,6.56-5.35,2.21-2.17,4.69-3.62,7.38-1.12,3.08,2.98,5.27,6.75,9.84,7.65"/><path class="b" d="M13.57,32.04c4.33,1.34,9.1.65,13.12-1.33,3.86-2.02,6.09-1.4,9.84.29,2.89.97,5.97,1.67,9.02,1.71,4.67-.05,9.86.67,13.94-2.11,1.7-1.11,3.63-2.3,5.74-2.13,2.81.2,5.46,1.54,8.2,2.12,2.54.32,4.86,1.73,7.38,2.09,1.89.24,3.86-.31,5.74-.41,6.28,0,12.59.36,18.86.35,5.45.08,10.95.17,16.4.08,2.44-.03,4.94-.48,7.38-.48,4.35.27,8.75.63,13.12.51,2.71-.05,5.52.05,8.2-.41,4.38-.67,6.86-4.77,9.84-7.6,1.85-2.1,4.61-4.8,7.38-2.45,3.54,2.99,5.89,7.81,10.66,9.06"/><path class="b" d="M13.57,30.13c3.74.84,7.77.43,11.48-.41,1.9-.48,3.75-1.59,5.74-1.68,1.73-.05,3.39.84,4.92,1.53,2.55,1.13,5.47,1.11,8.2.88,4.35-.32,8.79.35,13.12-.26,3.15-.34,5.77-2.92,9.02-2.54,1.9.16,3.85.72,5.74.98,1.31.23,2.79.14,4.1.34,2.18.45,4.29,1.69,6.56,1.61,1.62-.06,3.29-.71,4.92-.7,1.89.03,3.86.38,5.74.47,5.17.09,10.42.42,15.58.08,3.79-.54,7.67.1,11.48-.16,3.04.02,6-1.11,9.02-1.2,1.91.02,3.86.64,5.74.85,3.24.44,6.57.66,9.84.6,2.98-.08,6.23.56,9.02-.76,4.3-1.92,8.77-12.85,13.94-8.98,3.65,2.74,6.12,7.34,10.66,8.77"/><path class="b" d="M13.57,28.14c3.77.58,7.72.11,11.48-.37,1.62-.26,3.28-.9,4.92-1.02,1.07-.06,2.29.22,3.28.58,5.02,2.3,7.48.12,12.3,0,4.88.44,9.88,1.6,14.76.54,1.34-.33,2.74-.99,4.1-1.24,2.69-.48,5.49.01,8.2-.07,1.32-.03,2.79-.34,4.1-.02,1.92.45,3.76,1.59,5.74,1.81,1.9.19,3.84-.54,5.74-.41,4.35.39,8.76.41,13.12.45,1.89.03,3.93,0,5.74-.61,1.58-.51,3.21-1.49,4.92-1.34,3.51.44,7.14,1.23,10.66.44,1.89-.4,3.78-1.35,5.74-1.41,1.97-.06,3.88.85,5.74,1.36,2.14.41,4.38.94,6.56,1.1,2.15.17,4.41-.03,6.56.16,2.42.15,5.03.68,7.38-.14,3.74-1.59,5.97-5.69,9.84-7.05,2.07-.69,4.14.62,5.74,1.82,2.65,1.71,5.01,4.23,8.2,4.9"/><path class="b" d="M13.57,26.07c5.2.63,10.39-1.11,15.58-1.11,2.22.07,4.34,1.21,6.56,1.27,2.52-.02,4.94-1.06,7.38-1.51,2.76-.49,5.5.6,8.2,1.01,3.49.57,7.17.7,10.66.11,3.21-.83,6.59-1.06,9.84-1.64,1.32-.21,2.76-.71,4.1-.75,3.21.13,5.7,3.17,9.02,2.77,2.15-.28,4.4-.33,6.56-.16,2.71.14,5.49.2,8.2.17,7.82.31,8.91-5.35,13.12-3.72,11.17,4.56,10.81-1.66,18.04-.26,1.32.35,2.75.94,4.1,1.17,1.63.22,3.32.85,4.92,1.21,2.39.57,4.96.53,7.38.91,2.95.39,6.09,1.16,9.02.29,3.05-.98,5.79-3.02,9.02-3.44,4.62-.49,8.61,2.87,13.12,3.27"/><path class="b" d="M13.57,23.93c2.49.45,5.01-.25,7.38-.95,4.69-1.39,7.85-.21,12.3.93,3.02.56,6.03-.65,9.02-.89,3.01-.34,6.05.38,9.02.75,2.7.34,5.49.31,8.2.3,4.43,0,9.02-.45,13.12-2.22,6.03-2.96,6.48.95,11.48,2.18,1.61.15,3.31-.35,4.92-.39,7.99.06,12.08,2.2,18.86-3.75,2.17-1.69,3.44-1.82,5.74-.24,2.63,1.69,5.9,2.93,9.02,1.94,1.92-.63,3.8-1.72,5.74-2.29,1.55-.47,3.32-.5,4.92-.39,1.32.08,2.82-.07,4.1.33,3.28,1.08,6.48,2.62,9.84,3.47,3.16.96,6.53,1.65,9.84,1.22,3.81-.42,7.64-1.3,11.48-1.38,3.29,0,6.56.87,9.84,1.01"/><path class="b" d="M13.57,21.74c3.11.73,5.48-.82,8.2-1.99,3.36-1.4,6.65.69,9.84,1.58,2.1.6,4.39.65,6.56.52,4.9-.25,9.86.1,14.76.06,2.43,0,4.95-.12,7.38-.14,2.16.04,4.41.21,6.56.1,1.66-.07,3.41-.46,4.92-1.15,2.02-.92,4.27-2.33,6.56-1.64,1.44.47,2.78,1.54,4.1,2.24,1.79,1.04,3.88.37,5.74-.08,1.58-.38,3.34-.34,4.92.02,6.95,1.83,9.26-.34,14.76-3.9,2.3-1.29,3.71-.9,5.74.62,8.48,6.01,13.97-1.51,22.14-3.59,4.56-.87,7.61,3.79,11.48,5.32,1.55.71,3.24,1.52,4.92,1.84,2.67.5,5.49.34,8.2.34,3.28.05,6.59-.38,9.84-.74,2.71-.12,5.5.09,8.2.14"/><path class="b" d="M13.57,19.68c3.29.59,5.47-1.67,8.2-2.94,2.55-1.1,5.08.49,7.38,1.47,1.79.75,3.81,1.12,5.74,1.26,4.35.4,8.76.01,13.12,0,2.71-.09,5.49,0,8.2-.09,1.88-.06,3.86-.41,5.74-.33,3.52.08,7.26,1.47,10.66.03,1.81-.71,3.74-1.74,5.74-1.69,2.08.16,3.76,1.78,5.74,2.26,1.64.33,3.35-.35,4.92-.73,2.48-.76,4.96.37,7.38.78,5.46.79,8.77-4.61,13.94-4.2,2.07.27,3.74,1.96,5.74,2.51,4.14,1.4,8.7.07,12.3-2.14,1.97-1.2,3.86-2.76,5.74-4.09,1.19-.81,2.61-1.74,4.1-1.76,2.8.12,4.67,2.74,6.56,4.5,1.38,1.42,3.27,2.45,4.92,3.51,3.17,1.99,7.1,1.5,10.66,1.58,2.99.1,6.08.35,9.02-.33,2.95-.47,6.04-.33,9.02-.32"/><path class="b" d="M13.57,17.57c2.81.06,4.97-1.98,7.38-3.08,2.2-1,4.53.05,6.56.96,1.53.67,3.26,1.16,4.92,1.32,2.7.15,5.5.29,8.2.23,4.34-.45,8.76-.54,13.12-.31,3.58.28,7.09-1.24,10.66-.61,3.44.42,6.33,2.41,9.84.95,2.36-.76,4.91-2.19,7.38-.97,1.29.55,2.69,1.31,4.1,1.48,1.61.17,3.32-.24,4.92-.39,1.32-.11,2.8.07,4.1.28,5.75.99,8.23-2.61,13.12-3.41,3.27-.48,5.9,1.95,9.02,2.35,4.54.61,9.19-.98,13.12-3.15,2.8-1.47,5.14-4.03,8.2-4.97,3.07-.67,5.29,2.25,7.38,4.01,1.52,1.2,3.29,2.35,4.92,3.39,3.22,1.96,7.12,1.04,10.66,1.36,2.7.34,5.51.94,8.2.17,2.94-.56,6.04-.39,9.02-.4"/></svg>