<?xml version="1.0" encoding="UTF-8"?><svg id="a" xmlns="http://www.w3.org/2000/svg" width="1920" height="2400" viewBox="0 0 192 240"><defs><style>.b{fill:none;stroke:#fff;stroke-miterlimit:10;stroke-width:.3px;}.c{stroke-width:0px;}</style></defs><rect class="c" width="192" height="240"/><path class="b" d="M8.62,224.12c2.64,1.32,4.83,3.47,6.96,5.48,6.65,0,13.34,0,20,0,2.28,0,4.67,0,6.96,0,1.4-.12,3.12.36,4.35-.44,2.19-3.76,5.88-11.62,10.43-5.61.88,1.11,1.91,2.77,2.61,4,.32.64.96,1.83,1.74,2.05,2.28,0,4.67,0,6.96,0,1.39-.12,3.15.37,4.35-.45,2.97-5.04,4.62-11.29,8.69-15.59,3.21-2.07,7.82,2.63,10.43,4.34,3.37,2.69,7.35,4.49,11.3,6.12,2.86,1.43,5.14,3.91,7.82,5.58h72.16"/><path class="b" d="M8.62,223.48c1.81.8,3.69,1.87,5.22,3.14,2.3,2.14,2.08,2.03,5.22,1.97,9.27,0,18.56,0,27.82,0,2.33-3.84,5.93-11.04,10.43-5.06,1.23,1.49,2.18,3.63,3.48,5.06h12.17c2.43-3.63,3.89-8.12,6.09-11.9,1.72-2.96,3.21-5.36,6.96-3.54,3.74,1.87,6.8,4.96,10.43,7.02,2.16,1.33,4.66,2.25,6.96,3.31,2.49,1.33,4.75,3.25,6.96,4.99,3.73.28,7.56.03,11.3.11,4.62-.05,9.3.11,13.91-.07,15.93.19,31.88,0,47.82.07"/><path class="b" d="M8.62,222.6c1.77.58,3.65,1.32,5.22,2.36,1.16.73,2.33,1.88,3.48,2.63h29.56c1.39-1.1,2.25-3.13,3.48-4.4,4.08-4.89,7.42.5,9.56,4.1,1.6.61,3.53.18,5.22.3,2.58,0,5.25,0,7.82,0,1.3-.8,1.89-3.01,2.61-4.27,1.8-3.55,3.28-7.71,6.09-10.62,3.85-2.97,10.53,4.46,13.91,6.38,2.4,1.69,5.17,2.92,7.82,4.13,2.14,1.17,4.16,2.81,6.09,4.3,4.9.2,9.87.02,14.78.08,2.87,0,5.82,0,8.69,0,.76-.25,1.81-.53,2.61-.57,1.44-.11,2.91.69,4.35.57,4.62,0,9.29,0,13.91,0,9.85,0,19.71,0,29.56,0"/><path class="b" d="M8.62,221.47c4.54.73,6.96,2.27,10.43,5.11h28.69c4.93-7.1,7.25-6.96,12.17,0,2.87,0,5.82,0,8.69,0,1.09,0,2.39,0,3.48,0,.48.09,1.33-.12,1.74-.37,2.56-4.59,4.26-10.04,7.82-13.98,4-3.07,9.84,3.48,13.04,5.67,2.63,2.12,5.64,3.83,8.69,5.24,1.82.93,3.4,2.54,5.22,3.44,4.33,0,8.71,0,13.04,0,3.16,0,6.4,0,9.56,0,.89.08,1.81-.65,2.61-.94,1.35-.51,2.98-.56,4.35-.09.8.27,1.77.9,2.61,1.03,1.39,0,2.95,0,4.35,0,3.16,0,6.4,0,9.56,0,9.56,0,19.14,0,28.69,0"/><path class="b" d="M8.62,220.11c4.05.1,7.27.96,10.43,3.6,1.02.72,2.09,2.11,3.48,1.88,8.58-.11,17.57.21,26.08-.12,1.79-2.39,4.79-5.5,7.82-3.1,1.27.83,2.12,2.56,3.48,3.23,2.87,0,5.82,0,8.69,0,1.69-.07,3.55.17,5.22-.16,1.76-3.22,3.41-6.84,5.22-10.03,1.87-3.27,3.77-5.8,7.82-3.89,3.92,1.97,6.95,5.39,10.43,7.99,1.84,1.47,4,2.69,6.09,3.74,1.14.66,2.37,1.64,3.48,2.34,8.1-.09,16.26.18,24.34-.1,3.42-2.98,7.03-2.97,10.43.02,13.9.22,27.83,0,41.73.08"/><path class="b" d="M8.62,218.5c6.57-.75,8.88.71,13.91,4.63.73.52,1.72,1.24,2.61,1.45,1.09,0,2.39,0,3.48,0,6.94,0,13.92,0,20.87,0,3.39-3.66,6.21-3.84,9.56-.03,4.91.06,9.87.03,14.78.01,1.47-2.54,2.93-5.47,4.35-8.04,1.16-1.97,2.4-4.39,4.35-5.7,5.09-2.17,10.36,4.78,13.91,7.68,2.53,2.48,5.68,4.26,8.69,6.07h25.21c4.02-4.24,8.09-4.92,12.17-.33,1.02.53,2.37.27,3.48.33,1.99,0,4.1,0,6.09,0,10.43,0,20.87,0,31.3,0"/><path class="b" d="M8.62,216.68c3.17-.65,6.57-1.36,9.56.31,1.81.91,3.54,2.27,5.22,3.4,1.54.82,3.03,2.05,4.35,3.19,5.78,0,11.61,0,17.39,0,1.98-.08,4.13.2,6.09-.17.96-.72,2.26-1.38,3.48-1.41.83,0,1.89.34,2.61.75.38.32,1.24.76,1.74.83,4.91,0,9.87,0,14.78,0,5.41-7.57,7.46-19.93,18.26-9.64,2.86,2.37,8.55,9.89,12.17,9.64,8.39,0,16.82,0,25.21,0,1.74-1.33,3.13-3.4,5.22-4.28,3.4-1.57,6.9,1.15,8.69,3.91.44.25,1.24.45,1.74.37,1.09,0,2.39,0,3.48,0,2.87,0,5.82,0,8.69,0,8.69,0,17.4,0,26.08,0"/><path class="b" d="M8.62,214.66c2.79-.78,5.79-2,8.69-.99,2.21.71,4.18,2.23,6.09,3.52,2.37,1.27,4.33,3.31,6.09,5.31,4.9.21,9.87.02,14.78.08,3.75-.06,7.59.22,11.3-.3,2.26.45,4.66.27,6.96.3,3.75,0,7.56,0,11.3,0,3.19-3.71,4.8-8.93,8.69-12.05,6.82-3.88,13.45,8.38,18.26,11.92,5.47.34,11.03.02,16.52.13,2.58,0,5.25,0,7.82,0,1.39-.09,3.04.27,4.35-.31,5.13-7.3,9.95-7.78,14.78.1,1.65.43,3.53.12,5.22.21,2.87,0,5.82,0,8.69,0,8.39,0,16.82,0,25.21,0"/><path class="b" d="M8.62,212.46c2.76-.99,5.7-2.51,8.69-1.65,2.23.6,4.21,2.1,6.09,3.4,3.11,1.75,5.41,4.67,7.82,7.23,4.88.36,9.88.03,14.78.14,9.27,0,18.56,0,27.82,0,1.1-.61,1.9-2.18,2.61-3.16,1.84-2.65,3.53-5.77,6.09-7.79,7.28-4.48,12.65,7.48,17.39,10.96h28.69c1.88-2.23,3.46-5.09,6.09-6.57,4.74-2.43,8.28,3.12,10.43,6.57h38.25"/><path class="b" d="M8.62,210.09c2.72-1.14,5.64-2.84,8.69-2.02,2.61.67,4.77,2.56,6.96,4.04,3.37,2.18,5.79,5.64,8.69,8.35,7.51.31,15.09.02,22.6.11,4.04,0,8.13,0,12.17,0,2.28-.09,4.7.2,6.96-.16,6.81-8.79,10.38-16.69,20-4.75.79.98,1.84,2.34,2.61,3.33.36.51,1.1,1.41,1.74,1.58,3.75,0,7.56,0,11.3,0,5.49,0,11.03,0,16.52,0,1.34.23,2.05-.8,2.61-1.84.7-1.1,1.76-2.57,2.61-3.57,3.5-4.24,7.19-3.46,10.43.59,1.19,1.43,2.11,3.54,3.48,4.82h37.38"/><path class="b" d="M8.62,207.6c2.93-1.41,6.28-3.25,9.56-1.82,2.87,1.25,5.3,3.48,7.82,5.28,3.03,2.63,5.68,5.83,8.69,8.48,6.94.09,13.92,0,20.87.03,6.07,0,12.18,0,18.26,0,1.59.3,2.56-1.5,3.48-2.5,1.35-1.63,2.82-3.5,4.35-4.97,4.56-4.36,8.75-1.89,12.17,2.35.81.98,1.86,2.36,2.61,3.38.26.54,1.17,1.51,1.74,1.74h29.56c1.92-2.69,3.46-5.98,6.09-8.09,5.46-4.07,9.72,3.78,12.17,7.73.44.25,1.24.44,1.74.36,1.09,0,2.39,0,3.48,0,2.58,0,5.25,0,7.82,0,8.1,0,16.24,0,24.34,0"/><path class="b" d="M8.62,205c5.25-2.79,8.22-3.3,13.04.68,1.96,1.65,4.22,3.17,6.09,4.92,2.9,2.59,5.57,5.64,8.69,7.96,10.43,0,20.87,0,31.3,0,1.69,0,3.52,0,5.22,0,1.76-.02,3.15.35,4.35-1.28,4.1-4.41,8.85-10.69,14.78-4.81,1.99,1.72,3.25,4.39,5.22,6.09h29.56c1.28-.51,1.85-2.51,2.61-3.55.95-1.57,2.18-3.4,3.48-4.71,6.06-5.94,10.74,4.15,13.91,8.26h36.52"/><path class="b" d="M8.62,202.34c5.45-2.91,8.44-2.61,13.04,1.54,3.4,2.97,7.1,5.73,10.43,8.79,1.7,1.49,3.53,3.1,5.22,4.6.74.37,1.81.29,2.61.29,1.39,0,2.95,0,4.35,0,11.01,0,22.03,0,33.04,0,3.42-2.61,6.44-7.62,11.3-7,3.61.85,5.49,4.49,7.82,7h30.43c3.51-5.6,7.61-15.89,14.78-7.68,1.22,1.37,2.45,3.18,3.48,4.7.73.92,1.39,2.62,2.61,2.98,5.78,0,11.61,0,17.39,0,6.07,0,12.18,0,18.26,0"/><path class="b" d="M8.62,199.66c7.52-3.98,10.42.48,15.65,5.19,3.11,2.5,6.45,4.86,9.56,7.36,1.77,1.32,3.4,3.12,5.22,4.36h39.99c1.84-1.15,3.4-2.96,5.22-4.15,4.95-3.58,8.33.3,11.3,4.15h30.43c1.25-.71,1.86-2.73,2.61-3.88,1.18-2.07,2.58-4.39,4.35-6.02,6.29-5.29,11.06,6.38,14.78,9.9h35.65"/><path class="b" d="M8.62,196.99c7.97-3.97,11.26,3.28,16.52,7.63,2.71,2.15,5.87,3.8,8.69,5.78,2.19,1.45,4.15,3.41,6.09,5.17,13.9-.03,27.83.06,41.73-.03,5.09-4.55,8.3-5.86,13.04.03,10.43-.01,20.87.02,31.3-.01,3.2-5.61,7.51-16.93,14.78-8.72,2.53,2.61,4.52,5.89,6.96,8.58,1.67.31,3.53.09,5.22.15,2.58,0,5.25,0,7.82,0,7.52,0,15.08,0,22.6,0"/><path class="b" d="M8.62,194.38c7.81-3.51,11.58,5.46,16.52,9.6,2.57,2.08,5.84,3.17,8.69,4.78,2.67,1.41,4.85,3.68,6.96,5.8,14.48-.06,28.99.11,43.47-.06,3.66-3,5.97-2.98,9.56.06h31.3c4.19-5.64,7.55-17.84,15.65-8.49,1.82,1.94,3.49,4.28,5.22,6.3.71.74,1.53,2,2.61,2.19,5.49,0,11.03,0,16.52,0,6.07,0,12.18,0,18.26,0"/><path class="b" d="M8.62,191.88c5.95-2.29,9.92,3.73,13.04,7.81,1.78,2.44,4.01,4.85,6.96,5.83,6.99,2.18,8.05,2.66,13.04,8.03,10.14,0,20.29,0,30.43,0,3.46,0,6.98,0,10.43,0,1.39,0,2.95,0,4.35,0,.77-.2,1.8-.59,2.61-.62.81-.01,1.86.34,2.61.62,3.45,0,6.98,0,10.43,0,7.23,0,14.5,0,21.74,0,1.27-.63,1.87-2.68,2.61-3.81,1.22-2.18,2.62-4.64,4.35-6.47,3.11-3.31,6.11-1.58,8.69,1.28,2.68,2.78,4.91,6.17,7.82,8.72.74.36,1.81.28,2.61.28,1.09,0,2.39,0,3.48,0,3.75,0,7.56,0,11.3,0,6.07,0,12.18,0,18.26,0"/><path class="b" d="M8.62,189.55c6.9-1.81,10.38,6.43,13.91,10.85,1.47,2.09,3.5,4.09,6.09,4.63,3.85.71,7.47.85,10.43,3.82,1.23,1.03,2.13,2.82,3.48,3.7,17.67,0,35.36,0,53.03,0,6.07,0,12.18,0,18.26,0,1.99,0,4.1,0,6.09,0,1.39-.09,3.03.25,4.35-.28,3.26-5.27,7.66-17.34,14.78-9.1,2.92,3.04,5.34,6.75,8.69,9.34,3.16.11,6.4.01,9.56.04,1.12-.02,2.34-.63,3.48-.57.8.04,1.84.35,2.61.57,1.99,0,4.1,0,6.09,0,4.62,0,9.29,0,13.91,0"/><path class="b" d="M8.62,187.44c8.03-1.55,11.48,11.39,16.52,15.7,1.66,1.43,3.98,1.68,6.09,1.57,5.34-.5,8.61,2.05,11.3,6.41.71.53,1.77.44,2.61.43,1.09,0,2.39,0,3.48,0,16.22,0,32.46,0,48.69,0,8.68-.1,17.42.2,26.08-.12,2.53-3.75,5.03-10.72,9.56-12.17,3.04-.44,5.17,2.54,6.96,4.55,1.38,1.64,2.91,3.48,4.35,5.07.99.93,2.05,2.46,3.48,2.66,2.87,0,5.82,0,8.69,0,1.6-.72,3.41-1.64,5.22-1.29,1.16.2,2.42.79,3.48,1.29,1.69,0,3.52,0,5.22,0,4.33,0,8.71,0,13.04,0"/><path class="b" d="M8.62,185.62c6.72-1.09,10.64,9.59,13.91,14.1,1.52,2.46,3.78,4.94,6.96,4.49,1.7-.15,3.5-.65,5.22-.66,4.1-.08,6.87,3.62,8.69,6.86,4.3.35,8.72.03,13.04.14,7.81,0,15.66,0,23.47,0,14.19-.09,28.42.18,42.6-.1,3.86-5.4,8.24-18.4,15.65-8.98,1.69,2.05,3.44,4.31,5.22,6.29,1,.95,2.02,2.59,3.48,2.79,2.87,0,5.82,0,8.69,0,.88-.04,1.84-.71,2.61-1.08,1.02-.51,2.34-.84,3.48-.67,1.82.17,3.49,1.3,5.22,1.74,5.49,0,11.03,0,16.52,0"/><path class="b" d="M8.62,184.05c6.97-.95,11.16,11.89,14.78,16.55,1.65,2.52,3.93,3.85,6.96,2.89,7.81-2.87,9.96-.61,13.91,6.05,16.8,0,33.62,0,50.43,0,5.78,0,11.61,0,17.39,0,3.15-.11,6.44.23,9.56-.16,3.23-3.77,7.57-16.46,13.91-11.05,3.51,3.33,5.93,7.8,9.56,11.03,1.36.35,2.95.13,4.35.19,1.99,0,4.1,0,6.09,0,.92.1,1.84-.71,2.61-1.09,1.01-.56,2.32-.95,3.48-.84,2.42.11,4.64,1.43,6.96,1.93,4.91,0,9.87,0,14.78,0"/><path class="b" d="M8.62,182.47c3-.38,5.35,2.13,6.96,4.35,3.6,4.87,5.47,11.07,9.56,15.56,3.85,3.29,8.02-1.94,12.17-1.56,4.12.4,5.61,4.91,7.82,7.71h75.64c5.15-6.54,9.15-19.52,17.39-7.65,1.33,1.82,2.83,3.84,4.35,5.5.9.99,1.95,2.45,3.48,2.14,3.16,0,6.4,0,9.56,0,.9-.14,1.84-.93,2.61-1.38,1.25-.8,2.87-1.15,4.35-.99,3.52.36,6.92,1.77,10.43,2.19,3.44.37,6.98.08,10.43.17"/><path class="b" d="M8.62,180.87c3.12-.25,5.36,2.56,6.96,4.87,3.58,5.18,5.42,11.66,9.56,16.44,4.64,3.86,8.95-4.19,13.91-2.62,1.9.63,3.32,2.46,4.35,4.1.77,1.13,1.34,3.21,2.61,3.88h73.9c3.86-3.43,8.16-16.49,14.78-10.89,3.6,3.19,5.62,8.07,9.56,10.89,3.75-.04,7.56.09,11.3-.06,1.33-.98,2.79-2.16,4.35-2.77,3.41-.92,7,.24,10.43.54,2.27.26,4.67.28,6.96.23,2.01-.04,4.19-.1,6.09.64"/><path class="b" d="M8.62,179.27c3.84-.03,6.06,3.96,7.82,6.84,3.05,5.12,4.86,11.24,8.69,15.86,4.18,3.65,8.13-3.07,12.17-3.92,4.85-.98,6.82,5.02,8.69,8.38,8.67.3,17.4.01,26.08.11,15.93,0,31.88,0,47.82,0,1.43-2.67,3.43-5.27,5.22-7.7,3.08-4.11,6.46-6.07,10.43-1.65,2.68,2.95,4.79,6.58,7.82,9.21,3.72.34,7.56.06,11.3.12,1.65-1.25,3.31-2.83,5.22-3.7,3.34-1.1,6.99-.36,10.43-.38,2.29.05,4.67-.11,6.96-.22,2.02-.1,4.24-.09,6.09.86"/><path class="b" d="M8.62,177.68c3.94.16,6.06,4.38,7.82,7.38,3.05,5.38,4.84,11.74,8.69,16.64,4.78,4.32,8.98-5.29,13.91-5.23,4.51.47,5.39,6.1,7.82,9.07h72.16c1.24-.55,1.79-2.47,2.61-3.46,3.15-4.11,7.53-11.35,13.04-5.97,3.14,2.85,5.13,7.04,8.69,9.43,3.45-.07,6.99.15,10.43-.1,6.76-5.87,6.77-5.49,15.65-5.84,2.29-.1,4.67-.36,6.96-.55,2.33-.19,4.91-.3,6.96,1.02"/><path class="b" d="M8.62,176.14c4.02.33,6.05,4.74,7.82,7.84,3.05,5.63,4.83,12.21,8.69,17.36,4.42,4.42,8.9-4.75,13.04-6,4.88-1.49,6.81,5.61,8.69,8.82,1,.59,2.37.31,3.48.37,1.69,0,3.52,0,5.22,0,5.49,0,11.03,0,16.52,0,15.64,0,31.3,0,46.95,0,.53-.55,1.4-1.89,1.74-2.58.96-1.49,2.31-3.11,3.48-4.44,3.1-3.6,6.56-5.21,10.43-1.57,2.78,2.52,4.85,5.92,7.82,8.24.73.44,1.8.36,2.61.35,1.09,0,2.39,0,3.48,0,1.75-.1,3.9.47,5.22-.99,6.49-5.98,6.86-5.95,15.65-6.85,2.29-.24,4.67-.61,6.96-.84,2.35-.24,4.99-.29,6.96,1.23"/><path class="b" d="M8.62,174.65c4.08.47,6.05,5.01,7.82,8.2,3.05,5.85,4.85,12.62,8.69,18.02,5.13,5.22,9.54-6.97,14.78-7.06,4.44.5,5.33,6.81,7.82,9.72h71.29c2.37-4.09,7.47-11.84,13.04-9.41,3.91,1.87,6.22,5.91,9.56,8.52,1.12,1.16,2.89.87,4.35.89,1.69,0,3.52.02,5.22-.02,7.81-5.66,6.37-8.19,17.39-9.61,2.58-.39,5.23-.87,7.82-1.16,2.38-.27,5.07-.26,6.96,1.43"/><path class="b" d="M8.62,173.23c4.12.56,6.05,5.2,7.82,8.44,1.86,3.85,3.52,8.16,5.22,12.08,1.16,2.46,2.28,5.51,4.35,7.37,4.21,2.97,8.67-6.01,12.17-7.8,5.15-3.1,7.61,5.88,9.56,9.15,14.19.11,28.41,0,42.6.04,6.07,0,12.18,0,18.26,0,3.45-.09,7,.19,10.43-.13,2.73-5.31,8.57-11.88,14.78-7.34,3.1,2.08,5.45,5.28,8.69,7.15,1.31.58,2.95.22,4.35.31.77,0,1.83,0,2.61,0,.84-.38,1.88-1.07,2.61-1.64,2.73-2.13,4.99-5,7.82-7,3.64-2.22,8.06-2.7,12.17-3.49,3.69-.49,8.27-1.89,11.3,1.01"/><path class="b" d="M8.62,171.9c4.14.62,6.06,5.28,7.82,8.57,1.87,3.92,3.53,8.32,5.22,12.33,1.17,2.55,2.3,5.68,4.35,7.67,4.23,3.32,8.82-5.96,12.17-7.93,5.16-3.62,7.58,5.11,9.56,8.41l.87.57c15.06,0,30.14,0,45.21,0,5.49,0,11.03,0,16.52,0,1.69,0,3.52,0,5.22,0,1.11-.06,2.49.24,3.48-.39,2.5-5.03,8.2-9.91,13.91-6.62,3.42,1.76,6.08,4.86,9.56,6.51,1.31.66,2.93.48,4.35.5,4.38-.89,7.31-4.85,10.43-7.74,3.56-3.94,8.88-5.24,13.91-6.11,2.26-.41,4.65-.81,6.96-.85,1.91-.13,3.9.5,5.22,1.93"/><path class="b" d="M8.62,170.65c4.14.63,6.07,5.28,7.82,8.58,1.88,3.97,3.54,8.42,5.22,12.48,1.17,2.64,2.32,5.84,4.35,7.97,4.6,3.81,9.2-6.53,13.04-8.37,5.25-2.69,6.8,6.6,9.56,9.21h69.55c.67-.23,1.44-1.4,1.74-1.99.66-.99,1.65-2.23,2.61-2.94,6.41-5.26,12.47.23,18.26,3.41,4,2.33,8.16.5,11.3-2.36,6.78-6.24,8.33-9.89,18.26-11.56,2.26-.42,4.65-.8,6.96-.89,2.32-.15,4.5.22,6.09,2.09"/><path class="b" d="M8.62,169.49c8.67.94,12.06,25.31,18.26,29.95,2.38.26,3.49.13,5.22-1.62,2.08-2.02,3.87-4.57,6.09-6.45,5.56-4.66,7.74,4.96,10.43,8.15h69.55c1.38-.99,2.14-2.98,3.48-4.05,5.89-4.98,13.18.13,19.13,2.36,4.06,1.86,8.33-.58,11.3-3.33,6.37-5.85,8.9-10.68,18.26-12.06,2.26-.4,4.66-.7,6.96-.73,2.42-.1,4.48.27,6.09,2.26"/><path class="b" d="M8.62,168.44c8.81.94,12.08,24.93,18.26,30.07,1.09,0,2.39,0,3.48,0,2.47-1.32,4.17-3.88,6.09-5.85,6.68-7.68,8.64.84,12.17,5.85h69.55c.95-.76,1.78-2.21,2.61-3.09,2.21-2.35,5.72-2.58,8.69-1.85,3.2.73,6.37,1.83,9.56,2.59,3.13.98,5.77,1.15,8.69-.55,3.68-2.09,6.6-5.38,9.56-8.34,2.28-2.32,4.73-4.77,7.82-5.95,3.29-1.29,6.92-1.72,10.43-1.9,2.96-.08,5.87-.26,7.82,2.4"/><path class="b" d="M8.62,167.49c8.93.87,12.15,24.47,18.26,30.01,1.39,0,2.96.07,4.35-.06,3.52-2.27,5.5-6.8,9.56-8.24,3.62-.63,5.85,5.95,7.82,8.31h69.55c3.39-4.2,4.88-5.38,10.43-4.11,3.4.88,6.91,1.59,10.43,1.78,1.09.07,2.38.31,3.48.3,1.47-.06,3.05-.58,4.35-1.26,4.38-2.4,7.8-6.28,11.3-9.77,2.03-2.08,4.2-4.33,6.96-5.44,3.54-1.47,7.51-1.74,11.3-1.73,2.84.04,5.12.07,6.96,2.59"/><path class="b" d="M8.62,166.64c9.07.76,12.25,23.95,18.26,29.81,1.68.03,3.58.26,5.22-.16,1.55-1.16,3-2.77,4.35-4.15,6.58-7.19,8.15-.75,12.17,4.37h69.55c2.54-3.34,4.37-4.82,8.69-3.64,1.98.51,4.05,1.17,6.09,1.4,1.99.25,4.1.07,6.09-.1,1.09-.11,2.39-.02,3.48-.13,1.49-.21,3.05-.86,4.35-1.6,4.28-2.55,7.82-6.27,11.3-9.78,2.27-2.38,4.61-5.05,7.82-6.15,3.3-1.21,6.95-1.31,10.43-1.19,2.9.13,5.12.12,6.96,2.74"/><path class="b" d="M8.62,165.88c9.18.6,12.39,23.43,18.26,29.51,1.68.22,3.52.06,5.22.11,2.09-.77,3.53-2.97,5.22-4.36,6.01-5.86,7.44.51,11.3,4.36,23.18-.05,46.38.1,69.55-.05,2.08-2.97,4.18-4.41,7.82-3.13,4.37,1.6,7.56,2.4,12.17,1.07,1.37-.39,2.95-.5,4.35-.72,1.15-.26,2.45-.81,3.48-1.37,4.59-2.65,8.47-6.46,12.17-10.21,2.7-2.97,5.43-6.21,9.56-7.06,3.1-.75,6.4-.66,9.56-.42,2.7.16,4.42.43,6.09,2.8"/><path class="b" d="M8.62,165.22c9.31.46,12.52,22.89,18.26,29.17,1.98.25,4.1.06,6.09.11,3.54-1.38,7.15-8.66,11.3-4.57.83.85,1.86,2.1,2.61,3.03.6.86,1.46,1.76,2.61,1.54,1.99,0,4.1,0,6.09,0,5.78,0,11.61,0,17.39,0,11.88,0,23.77,0,35.65,0,2.28,0,4.67,0,6.96,0,2.85.2,2.52-.48,4.35-2.24,2.84-2.73,6.55.04,9.56.97,3.17,1.19,6.55.24,9.56-.96,1.35-.52,3-.61,4.35-1.14,2.17-.84,4.23-2.23,6.09-3.62,4.49-3.36,8.55-7.37,12.17-11.63,3.29-3.58,8.39-4.42,13.04-4.07,1.99.14,4.14.23,6.09.73.99.44,1.97,1.5,2.61,2.35"/><path class="b" d="M8.62,164.65c9.4.34,12.65,22.43,18.26,28.84,2.28.04,4.67,0,6.96.02,1.69-.46,2.92-2.23,4.35-3.18,4.66-3.82,6.4,0,9.56,3.17,3.45.04,6.98,0,10.43.02,1.09,0,2.39,0,3.48,0,.8-.15,1.79-.61,2.61-.6.48.04,1.33.34,1.74.58,1.99.06,4.1.01,6.09.03,3.75,0,7.56,0,11.3,0,11.3,0,22.61,0,33.91,0,2.31-1.86,3.5-4.39,6.96-3.03,3.69,1.61,7.1,4.09,11.3,2.48,2.29-.86,4.54-2.07,6.96-2.58,5.63-2.32,10.39-6.59,14.78-10.73,2.83-2.74,4.91-6.58,8.69-8.16,3.25-1.44,6.97-1.33,10.43-1.04,3.05.3,5.07.19,6.96,3.03"/><path class="b" d="M8.62,164.15c9.55.26,12.66,22.34,18.26,28.35,2.87-.07,5.84.15,8.69-.11,2.35-1.83,5.77-5.43,8.69-2.66,1.11.84,2.07,2.44,3.48,2.76,2.87,0,5.82,0,8.69,0,.77,0,1.83,0,2.61,0,.49-.18,1.35-.74,1.74-1.09,3.41-2.69,4.93-1.3,7.82,1.09,16.22-.05,32.47.1,48.69-.05,1.7-2.27,3.97-4.59,6.96-2.95,1.74.84,3.44,2.09,5.22,2.85,1.07.25,2.38.13,3.48.15.78,0,1.83,0,2.61-.01,1.75-.65,3.46-1.77,5.22-2.39,5.52-1.5,12.34-7.2,16.52-11.16,2.69-2.57,4.53-6.2,7.82-8.1,3.36-2.03,7.5-2.08,11.3-1.77,3.08.29,5.08.18,6.96,3.06"/><path class="b" d="M8.62,163.71c8.94.27,12.85,20.63,17.39,27.32,1.16.83,2.96.34,4.35.47,1.99,0,4.1,0,6.09,0,2.04-1.26,4.37-3.72,6.96-2.48,1.18.67,2.16,2.08,3.48,2.48,2.28,0,4.67,0,6.96,0,1.39-.1,3.04.27,4.35-.32,2.12-1.79,4.78-5.3,7.82-3.39.88.54,1.91,1.5,2.61,2.26.57.79,1.55,1.68,2.61,1.45,4.62,0,9.29,0,13.91,0,10.43,0,20.87,0,31.3,0,2.11-1.61,3.77-5.03,6.96-3.63,2.15.9,3.91,2.8,6.09,3.63,2.28,0,4.67,0,6.96,0,1.2-.15,2.38-1.04,3.48-1.51,2.75-.91,5.45-2.18,7.82-3.86,3.01-2.02,6.04-4.22,8.69-6.7,2.64-2.31,4.42-5.58,6.96-7.98,3.22-3.06,7.86-3.95,12.17-3.72,3.36.24,5.78-.12,7.82,3.09"/><path class="b" d="M8.62,163.33c9.3.85,12.48,20.6,17.39,27.16,3.75,0,7.56,0,11.3,0,1.49-.4,2.74-1.8,4.35-1.93,1.79-.26,2.81,1.48,4.35,1.93,1.09,0,2.39,0,3.48,0,1.69,0,3.52,0,5.22,0,.81,0,1.89.09,2.61-.37,3.24-3.04,6.04-7.82,10.43-3.24,1.18,1.05,2.17,2.73,3.48,3.61,9.85,0,19.71,0,29.56,0,3.16,0,6.4,0,9.56,0,1.97-.12,4.18.3,6.09-.26,1.56-2.11,3.97-5.46,6.96-3.9,2.19,1.05,3.86,3.2,6.09,4.16,1.99,0,4.1,0,6.09,0,.78,0,1.83,0,2.61,0,.83-.15,1.83-.7,2.61-.99,4.17-1.26,7.79-3.96,11.3-6.44,2.14-1.58,4.31-3.41,6.09-5.4,1.54-1.67,2.85-3.87,4.35-5.58,3.01-3.54,7.58-5.43,12.17-5.57,1.99-.06,4.16-.07,6.09.47,1,.47,1.98,1.61,2.61,2.5"/><path class="b" d="M8.62,163.36c5.01.75,7.53,5.89,9.56,9.97,2.47,5.17,4.39,10.87,6.96,16,2.84.39,5.83.06,8.69.16,1.69,0,3.52,0,5.22,0,.79-.24,1.79-.77,2.61-.91.87-.13,1.93.25,2.61.78,1.67.28,3.53.08,5.22.13,1.39,0,2.95,0,4.35,0,1.64.1,2.42-.02,3.48-1.39,1.86-1.92,3.51-4.55,6.09-5.56,3.79-.52,6.43,4.55,8.69,6.94h43.47c2.61-3.44,5.2-7.71,9.56-3.63,1.41,1.14,2.76,2.72,4.35,3.63,4.03-.08,8.15.16,12.17-.1,2.79-.97,5.37-2.67,7.82-4.29,3.11-2.1,6.21-4.47,8.69-7.31,4.23-5.39,6.61-10.09,13.91-11.93,2.52-.62,5.26-.74,7.82-.33,1.49.23,2.66,1.65,3.48,2.81"/><path class="b" d="M8.62,163.84c6.89,1.49,9.5,10.16,12.17,15.82.77,1.83,1.81,4.34,2.61,6.16.26.68,1,2.33,1.74,2.66h29.56c3.09-2.18,5.64-8.5,9.56-8.82,2.66.37,4.46,2.91,6.09,4.81,1.11,1.23,2.04,3.13,3.48,4.01h40.86c1.55-1.48,2.65-3.7,4.35-5.06,4.15-3.61,7.43,2.91,10.43,5.06,4.91,0,9.87,0,14.78,0,3.42-1.67,6.58-4.04,9.56-6.38,1.87-1.52,3.73-3.37,5.22-5.27,2.51-3.53,4.96-7.4,8.69-9.78,3.03-2.03,6.78-3.11,10.43-2.81,2.43.03,3.96,1.19,5.22,3.21"/><path class="b" d="M8.62,164.67c8.8,2.15,11.31,16.11,15.65,22.81,9.85,0,19.71.02,29.56,0,2.55-2.66,4.51-6.01,6.96-8.75,3.21-3.81,6.12-1.37,8.69,1.62,1.15,1.35,2.42,3.05,3.48,4.47.9,1.09,1.76,3.03,3.48,2.67,6.07,0,12.18,0,18.26,0,6.36,0,12.76,0,19.13,0,1.49-.89,2.28-2.98,3.48-4.21,5.31-6.61,8.29.36,12.17,4.19,4.04.05,8.13,0,12.17.02,5.18-.06,4.41.66,8.69-2.53,3.18-2.3,6.3-4.93,8.69-8.06,2.58-3.66,5.04-7.67,8.69-10.38,2.92-2.27,6.7-3.7,10.43-3.23,2.43.12,4,1.48,5.22,3.49"/><path class="b" d="M8.62,165.75c8.28,2.48,10.93,13.91,14.78,20.73,6.36,0,12.76,0,19.13,0,3.45-.09,7,.19,10.43-.13,2.91-3.22,5.01-7.24,7.82-10.53,3.09-3.8,6.1-1.62,8.69,1.36,2.45,2.84,4.58,6.13,6.96,9.03.75.34,1.81.27,2.61.26,1.39,0,2.95,0,4.35,0,4.33,0,8.71,0,13.04,0,3.75,0,7.56,0,11.3,0,1.09,0,2.39,0,3.48,0,.8,0,1.89.09,2.61-.35,1.92-2.65,4.8-8.21,8.69-7.26,3.02,1.6,4.76,4.98,6.96,7.47,4.01.37,8.14.04,12.17.15,1.69,0,3.52,0,5.22,0,.44.02,1.3-.03,1.74-.11.44-.32,1.31-.95,1.74-1.27,2.79-2.09,5.58-4.44,7.82-7.13,2.93-3.67,5.19-8.05,8.69-11.25,2.76-2.65,6.48-4.82,10.43-4.44,2.9.19,4.65,1.47,6.09,3.96"/><path class="b" d="M8.62,166.99c7.76,2.75,10.35,11.86,13.91,18.49,9.84-.08,19.73.16,29.56-.09,3.55-4.1,5.78-9.36,9.56-13.26,3.51-3.41,7.43,1.29,9.56,4.03,2.32,2.99,4.47,6.33,6.96,9.19,5.76.34,11.61.02,17.39.13,3.75,0,7.56,0,11.3,0,1.99-.07,4.12.17,6.09-.14,2.08-2.87,5.37-9.11,9.56-8.16,3.12,1.71,4.8,5.32,6.96,8.01,1.6.6,3.53.18,5.22.3,2.58,0,5.25,0,7.82,0,1.69,0,3.52,0,5.22,0,.44,0,1.3,0,1.74,0,.51-.13,1.36-.67,1.74-1.04,2.84-2.23,5.63-4.76,7.82-7.65,2.75-3.87,5.21-8.18,8.69-11.47,2.51-2.44,5.94-4.48,9.56-3.9,2.87.34,4.72,1.95,6.09,4.43"/><path class="b" d="M8.62,168.31c6.9,2.64,9.7,10.18,13.04,16.17h29.56c4.3-4.73,6.33-11.49,11.3-15.62,6.33-3.63,13.09,12.21,17.39,15.62h32.17c2.29-3.1,5.9-9.76,10.43-8.88,1.87.88,3.17,2.9,4.35,4.53,3.38,4.85,1.76,4.4,7.82,4.35,3.75,0,7.56,0,11.3,0,1.09,0,2.39,0,3.48,0,.91.11,2-.18,2.61-.89,2.5-2.06,4.98-4.39,6.96-6.96,2.61-3.6,4.87-7.66,7.82-11,2.06-2.32,4.64-4.69,7.82-5.14,3.81-.45,7.02,1.71,8.69,5.06"/><path class="b" d="M8.62,169.64c6.25,2.63,8.63,8.64,12.17,13.83h29.56c1.57-.94,2.44-3.16,3.48-4.61,1.95-3.19,3.84-6.68,6.09-9.68,7.22-10.23,14.79,7.04,19.13,11.96,2.24,3.11,2.62,2.22,6.09,2.33,2.58,0,5.25,0,7.82,0,6.07,0,12.18,0,18.26,0,2.5-3.16,7.35-11.51,12.17-8.85,1.78,1.4,3.12,3.6,4.35,5.47.73,1.03,1.46,2.75,2.61,3.38,4.62,0,9.29,0,13.91,0,1.39,0,2.95,0,4.35,0,1.1-.04,2.42.14,3.48-.22,2.48-2.05,4.98-4.35,6.96-6.91,2.43-3.26,4.49-7.01,6.96-10.25,2.21-2.83,4.9-6.1,8.69-6.59,3.83-.33,7.1,2.48,8.69,5.75"/><path class="b" d="M8.62,170.93c4.69,2.3,7.85,6.74,10.43,11.14,1.25.74,2.95.29,4.35.41,2.28,0,4.67,0,6.96,0,6.65,0,13.34,0,20,0,3.07-4.54,5.56-9.63,8.69-14.12,4.81-7.33,9.61-4.31,13.91,1.51,2.11,2.84,4.05,6.05,6.09,8.94,1.17,1.33,2.25,3.93,4.35,3.67,8.98,0,17.98,0,26.95,0,2.58-3.2,4.9-7.06,8.69-8.96,1.31-.59,3.06-1.1,4.35-.19,3.08,2.33,4.32,6.47,6.96,9.15,7.23,0,14.5,0,21.74,0,6.83-4.18,10.17-11.93,14.78-18.16,1.97-2.52,4.42-5.45,7.82-5.75,3.96-.11,7.04,3.18,8.69,6.48"/><path class="b" d="M8.62,172.11c2.25,1.33,4.4,3.11,6.09,5.12,1.17,1.26,2.14,3.14,3.48,4.24h31.3c.67-.24,1.44-1.41,1.74-2.02.79-1.32,1.84-3.14,2.61-4.48,2.51-4.08,4.71-8.89,8.69-11.75,8.92-4.59,14.77,13.19,20,18.02,1.05.37,2.38.19,3.48.23,1.99,0,4.1,0,6.09,0,5.78,0,11.61,0,17.39,0,2.77-3.36,5.35-7.43,9.56-9.12,1.34-.46,3.05-1.03,4.35-.18,3.11,2.35,4.5,6.4,6.96,9.3,4.91,0,9.87,0,14.78,0,2.57-.08,5.27.18,7.82-.14,4.35-3.26,7.78-7.62,10.43-12.34,2.74-4.06,6.42-11.9,12.17-11.34,3.66.72,6.21,4,7.82,7.16"/><path class="b" d="M8.62,173.16c1.49,1.01,3.07,2.27,4.35,3.55,1.17,1.11,2.25,2.72,3.48,3.76h33.04c5.15-6.79,11.89-26.99,22.6-16.02,2.75,3.04,4.82,6.83,6.96,10.31,1.27,1.89,2.43,4.4,4.35,5.72h25.21c3.64-4.62,7.41-9.67,13.91-9.66,3.64,1.53,5.49,6.64,7.82,9.66h22.6c3.87-2.77,7.24-6.35,9.56-10.52,2.88-4.25,7.5-15.33,13.91-12.92,3.22,1.4,5.4,4.54,6.96,7.56"/><path class="b" d="M8.62,174.02c1.14.87,2.45,1.97,3.48,2.97.77.74,1.68,1.91,2.61,2.47,7.52,0,15.08,0,22.6,0,2.58,0,5.25,0,7.82,0,1.39-.05,2.98.14,4.35-.16,3.6-5.84,7.97-16.07,14.78-18.35,2.81-1.09,5.76-.27,7.82,1.86,4.83,4.72,6.81,11.72,11.3,16.65h24.34c4.54-5.68,6.98-8.93,14.78-9.46,3.47,1.16,5.72,6.42,7.82,9.28,2.83.43,5.83.06,8.69.18,4.62-.01,9.29.03,13.91-.02,3.38-2.26,6.57-5.08,8.69-8.59,6.52-10.77,11.99-24.29,21.74-6.52"/><path class="b" d="M8.62,174.68c1.49,1.1,2.75,2.85,4.35,3.78h35.65c.7-.26,1.45-1.55,1.74-2.18.43-.76,1.29-2.27,1.74-3.02,1.74-2.92,3.71-5.98,6.09-8.43,2.6-2.75,8.4-6.12,12.17-4.41,3.21,1.62,5.15,5.07,6.96,8.04,2.03,3.22,3.48,7.2,6.09,10h23.47c3.23-3.73,5.85-8.03,11.3-8.51.77-.09,1.84-.2,2.61-.32.78-.19,1.84-.4,2.61-.05,2.26,1.25,3.75,3.76,5.22,5.81.73.94,1.44,2.61,2.61,3.07,4.62,0,9.29,0,13.91,0,2.57-.11,5.29.25,7.82-.19,3.39-1.98,6.63-4.55,8.69-7.94,6.81-11.33,11.74-24.96,21.74-6.27"/><path class="b" d="M8.62,175.13c.77.7,1.73,1.76,2.61,2.33h37.38c1.36-1.53,2.34-3.82,3.48-5.52,2.24-3.55,4.95-7.14,8.69-9.19,1.35-.75,2.96-1.36,4.35-2.04,1.57-.76,3.47-1.42,5.22-.94,4.43,1.66,6.46,6.7,8.69,10.52,1.38,2.26,2.35,5.4,4.35,7.16h22.6c1.02-.68,1.84-2.17,2.61-3.09,1.76-2.21,4.07-4.4,6.96-4.88,1.97-.36,4.14.03,6.09-.52,3.94-.98,7.01,6.24,9.56,8.49,4.62,0,9.29,0,13.91,0,1.69,0,3.52,0,5.22,0,.44,0,1.3,0,1.74-.04.44-.22,1.31-.66,1.74-.89,3.1-1.52,5.98-3.78,7.82-6.73,7.1-11.83,11.5-25.51,21.74-6.05"/><path class="b" d="M8.62,175.35l.87.89c1.64.44,3.53.13,5.22.21,2.87,0,5.82,0,8.69,0,8.39,0,16.82,0,25.21,0,3.43-6.05,6.84-11.77,13.91-13.9,2.09-.76,3.94-2.32,6.09-2.94,6.7-1.81,11.01,11.78,13.91,16.31l.87.53c4.91,0,9.87,0,14.78,0,1.69,0,3.52,0,5.22,0,.82.01,1.9.1,2.61-.41,2.97-4.56,6.15-8.56,12.17-7.3,3.76.65,4.46-1.86,7.82,1.38,1.19,1.14,2.43,2.66,3.48,3.93.73.77,1.47,2.2,2.61,2.4,5.78,0,11.61,0,17.39,0,1.17.13,2.42-.45,3.48-.86,1.11-.42,2.42-.96,3.48-1.51,4.35-2.14,6.5-6.86,8.69-10.91,6.99-13.75,11.21-12.86,18.26.25"/><path class="b" d="M8.62,175.36c8.09.26,16.24.01,24.34.1,3.16,0,6.4,0,9.56,0,1.09,0,2.39,0,3.48,0,.8,0,1.88.08,2.61-.31,2.44-4.3,5.4-9.17,10.43-10.64,2.44-.61,4.98-1.34,6.96-2.99,2.99-2.29,5.87-3.18,8.69-.06,3.45,3.97,5.37,9.19,7.82,13.79,1.06.36,2.38.18,3.48.22,1.39,0,2.95,0,4.35,0,4.91,0,9.87,0,14.78,0,2.29-3.34,4.92-8.04,9.56-7.85,1.73.09,3.49.8,5.22.91,1.14.09,2.34-.7,3.48-.55,3.7,1.14,5.85,4.95,8.69,7.35,1.67.29,3.53.08,5.22.14,3.16,0,6.4,0,9.56,0,1.76.12,3.51-.76,5.22-1.09,2.05-.48,4.27-.98,6.09-2.09,3.92-2.51,5.59-7.32,7.82-11.19,7.08-13.86,11.29-9.09,17.39,1.97"/><path class="b" d="M8.62,174.45h39.12c1.14-.68,1.83-2.44,2.61-3.46,1.15-1.65,2.63-3.4,4.35-4.47,2.31-1.55,5.25-1.21,7.82-1.88,3.24-1.07,5.18-4.79,8.69-5.23,5.52,0,8.82,10.94,11.3,15.05h21.74c1.5-.99,2.26-3.18,3.48-4.48,3.24-4.01,5.91-4.04,10.43-2.18,4.07,1.42,4.2-2.17,8.69,1.31,2.33,1.68,4.31,4.15,6.96,5.35,3.45-.01,6.98.03,10.43-.02,1.65-.59,3.48-1.11,5.22-1.36,2.27-.36,4.71-.29,6.96-.82,5.3-1.31,7.11-7.29,9.56-11.51,7.17-14.19,11.11-9.21,17.39,1.94"/><path class="b" d="M8.62,173.45h39.12c2.36-2.97,4.44-7.2,8.69-7.59,1.7-.17,3.52.26,5.22.14,3.71-.51,5.47-4.64,8.69-6.16,6.19-2.67,9.52,9.84,12.17,13.61h21.74c2.2-3.11,4.3-7.91,8.69-7.97,1.83.1,3.56,1.12,5.22,1.82,3.01,1.35,3.49-.61,6.09-.28,2.61.61,4.72,2.59,6.96,3.96,8.01,5.33,11.6-.91,20,.18,2.57.23,5.43.83,7.82-.46,1.97-1.08,3.27-3.3,4.35-5.19,1.42-2.58,2.87-5.54,4.35-8.08,6.69-12.02,11.17-2.47,15.65,4.88"/><path class="b" d="M8.62,172.44h39.12c1.89-3.06,4.59-6.96,8.69-6.38,1.72.21,3.47.98,5.22,1,3.45-.3,5.26-4.37,7.82-6.31,6.83-5.62,10.08,7.73,13.04,11.69,4.62,0,9.29,0,13.91,0,1.69,0,3.52,0,5.22,0,.79,0,1.87.08,2.61-.27,1.94-3.19,4.3-8.09,8.69-7.72,2.19.34,4.04,1.89,6.09,2.62,1.15.44,2.47.07,3.48-.54,3.77-1.04,6.99,2.31,10.43,3.3,8.33,2.52,9.42-3.72,20.87.49,3.9,1.28,6.62.23,8.69-3.3,2.15-3.5,3.89-7.51,6.09-10.98,6.34-10.44,10.86-.04,14.78,5.9"/><path class="b" d="M8.62,171.44c8.4,0,16.82,0,25.21,0,2.87,0,5.82,0,8.69,0,1.68-.12,3.62.31,5.22-.3,1.67-2.66,4.29-5.88,7.82-5.13,1.77.35,3.47,1.37,5.22,1.8,2.71.71,4.57-1.98,6.09-3.78,2-2.5,5.32-6.81,8.69-3.89,3.34,2.97,4.55,7.69,6.96,11.3h20.87c.67-.26,1.45-1.51,1.74-2.13.43-.67,1.25-1.97,1.74-2.59,3.87-5.04,6.65-3.48,11.3-.7,3.15,1.69,3.89-.98,6.96-.58,3.24.48,6.24,2.32,9.56,2.42,2.35.14,4.72-.55,6.96-1.17,5.39-1.57,9.25,1.49,13.91,3.48,3.84,1.58,6.13-1.21,7.82-4.29,2.01-3.51,3.76-7.46,6.09-10.79,5.95-8.7,10.4,1.7,13.91,6.54"/><path class="b" d="M8.62,170.44h38.25c1.4-.73,2.18-2.61,3.48-3.53,3.6-3.04,6.92.2,10.43,1.43,2.22.73,3.98-1.26,5.22-2.83,2.14-2.41,4.16-6.69,7.82-6.67,4.66,1.29,6.13,8.06,8.69,11.6h20.87c1.09-.82,1.83-2.59,2.61-3.68,2-3.05,4.95-5.75,8.69-3.66,1.93.9,3.82,2.74,6.09,2.49.82-.25,1.78-.93,2.61-1.16,2.91-.68,5.82.74,8.69,1.03,3.25.49,6.47-.58,9.56-1.41,4.66-1.15,8.65,2.19,12.17,4.73.73.51,1.79,1.16,2.61,1.52,1.07.22,2.39.12,3.48.12,2.03-1.11,3.22-3.57,4.35-5.49,1.89-3.42,3.63-7.25,6.09-10.31,5.53-6.91,9.82,2.95,13.04,6.88"/><path class="b" d="M8.62,169.44h38.25c1.3-.77,2.17-2.46,3.48-3.26,3.27-2.33,6.66.69,9.56,2.17,2.73,1.43,4.55-.61,6.09-2.65,3.45-4.62,7.3-11.1,12.17-3.65,1.66,2.2,2.53,5.34,4.35,7.38h20.87c2.33-2.51,3.56-6.45,6.96-7.89,4.58-1.9,7.97,5.07,12.17,1.84,3.6-1.61,7.55.53,11.3.15,3.54-.02,6.88-2.26,10.43-1.69,3.09.64,5.55,2.96,7.82,5.01,1.05.85,2.12,2.27,3.48,2.58,1.99,0,4.1,0,6.09,0,3.85-3.54,7.65-17.97,13.91-16.22,3.56,1.64,5.23,5.72,7.82,8.45"/><path class="b" d="M8.62,168.43c10.72,0,21.45,0,32.17,0,1.39,0,2.95,0,4.35,0,1.7.11,2.41-.03,3.48-1.47.66-.67,1.71-1.44,2.61-1.75,3.32-1.02,5.89,2.07,8.69,3.22,1.09,0,2.39,0,3.48,0,2.5-1.9,4-5.01,6.09-7.31,5.71-7.06,9.74,2.17,12.17,6.91.99.64,2.37.34,3.48.4,1.39,0,2.95,0,4.35,0,4.62,0,9.29,0,13.91,0,1.07-.85,1.83-2.61,2.61-3.7,1.44-2.07,3.36-4.54,6.09-4.69,2.54-.04,4.63,1.83,6.96,2.55,1.94.68,3.4-1.15,5.22-1.39,2.88-.39,5.81.63,8.69.5,2.66-.03,5.27-.94,7.82-1.57,5.72-1.27,9.45,4.67,13.04,8.12,2.83.42,5.83.06,8.69.17.75-.21,1.41-1.31,1.74-1.94.44-.77,1.31-2.32,1.74-3.09,1.89-3.16,3.6-7.1,6.96-8.96,4.7-1.74,7.43,5.17,10.43,7.66"/><path class="b" d="M8.62,167.43c8.4,0,16.82,0,25.21,0,2.87,0,5.82,0,8.69,0,1.69-.08,3.56.19,5.22-.18,3.73-4.24,6.47-2.21,10.43.18,1.99,0,4.1,0,6.09,0,2.29-2.13,3.79-5.21,6.09-7.34,5.37-5.17,8.8,3.7,11.3,7.34h21.74c1.16-.69,1.84-2.5,2.61-3.55,1.31-1.91,2.94-4.08,5.22-4.85,2.77-.86,5.27,1.17,7.82,1.86,1.62.5,2.94-.71,4.35-1.25,3.13-.87,6.39.49,9.56.36,2.65,0,5.26-.87,7.82-1.42,5.42-.98,9.02,5.21,12.17,8.67,1.66.37,3.53.11,5.22.18,1.99-.04,4.1.1,6.09-.08,2.69-3.87,6.96-15.47,13.04-10.85,2.25,1.77,3.8,4.49,6.09,6.22"/><path class="b" d="M8.62,166.43h39.12c2.37-1.7,4.15-2.53,6.96-1.07.78.37,1.68,1.22,2.61,1.07,2.57-.11,5.29.25,7.82-.19,6.62-9.24,9.59-11.19,15.65-.05,1.63.48,3.53.14,5.22.24,2.58,0,5.25,0,7.82,0,2.28,0,4.67,0,6.96,0,1.11-.06,2.5.25,3.48-.41,2.17-3.49,4.74-8.79,9.56-8.43,2.06.23,4,1.51,6.09,1.57,1.24,0,2.34-1.03,3.48-1.38,3.73-.88,7.52,1.11,11.3.6,2.32-.16,4.64-.97,6.96-1.18,4.74.28,7.7,5.63,10.43,8.94,1.61.58,3.53.17,5.22.29,2.58,0,5.25,0,7.82,0,2.99-3.55,6.26-12.7,12.17-8.56,2.18,1.62,3.7,4.22,6.09,5.59"/><path class="b" d="M8.62,165.43c8.98,0,17.98,0,26.95,0,2.87,0,5.82,0,8.69,0,1.39,0,2.95,0,4.35,0,.42-.2,1.31-.57,1.74-.74.76-.22,1.84-.22,2.61-.02.79.21,1.76.82,2.61.75,3.16,0,6.4,0,9.56,0,3.06-2.97,6.52-9.94,11.3-5.28.9.88,1.93,2.26,2.61,3.31.29.59,1.07,1.74,1.74,1.97,7.81-.03,15.66.06,23.47-.03,2.36-3.8,5.14-9.65,10.43-9.1,2,.23,4.06,1.35,6.09.83,2.62-1.46,3.98-1.78,6.96-1.09,1.97.44,4.06.96,6.09,1,1.71.04,3.54-.24,5.22-.54,4.47-1.25,7.02,1.7,9.56,4.89.44.58,1.32,1.76,1.74,2.35.31.55,1.08,1.54,1.74,1.7,4.33,0,8.71,0,13.04,0,1.27.24,2.07-.82,2.61-1.81.94-1.39,2.18-3.01,3.48-4.1,5.27-4.18,7.97,3.02,12.17,4.77"/><path class="b" d="M8.62,164.42c14.48,0,28.99,0,43.47,0,2.87,0,5.82,0,8.69,0,1.09,0,2.39,0,3.48,0,.49.1,1.34-.15,1.74-.45,2.65-3.42,6.31-7.87,10.43-3.52,1.25,1.11,2.06,3.08,3.48,3.97h24.34c2.47-3.02,4.1-7.21,7.82-8.98,1.9-.89,4.11-.46,6.09-.12,1.5.31,3.11-.14,4.35-1.01,2.85-1.21,5.89.43,8.69,1.03,3.12.85,6.41.33,9.56.01,3.03-.23,5.23,2.56,6.96,4.68,1.14,1.32,2.04,3.35,3.48,4.39h16.52c2.61-2.96,5.39-6.55,9.56-3.62,1.52,1,2.8,2.65,4.35,3.62h1.74"/><path class="b" d="M8.62,163.42c12.46,0,24.93,0,37.38,0,4.33,0,8.71,0,13.04,0,2.28-.1,4.71.22,6.96-.17,2.38-2.99,5.83-6.64,9.56-3.28,1.26.93,2.06,2.78,3.48,3.46,5.49,0,11.03,0,16.52,0,1.99,0,4.1,0,6.09,0,1.12-.07,2.53.27,3.48-.47,2.2-3.5,4.46-7.94,8.69-9.22,1.67-.43,3.52-.1,5.22-.07,1.2.04,2.48-.53,3.48-1.15,3.24-1.21,6.45,1.09,9.56,1.78,2.52.71,5.24.57,7.82.37,5.26-.54,7.48,5.52,10.43,8.76h19.13c3.73-3.28,5.76-2.8,9.56,0h4.35"/><path class="b" d="M8.62,162.42h57.38c4-4.75,7.27-5.46,11.3-.25,1.04.42,2.38.21,3.48.25,1.99,0,4.1,0,6.09,0,6.07,0,12.18,0,18.26,0,3.26-4.92,6.12-10.98,13.04-10.37,1.5.05,3.08-.44,4.35-1.23,3.33-1.1,6.47,1.46,9.56,2.34,10.59,2.88,9.17-3.37,17.39,9.26,11.3,0,22.61,0,33.91,0"/><path class="b" d="M8.62,161.42h57.38c4.02-3.82,6.5-4.33,10.43,0h28.69c.68-.23,1.44-1.42,1.74-2.03.43-.68,1.28-2.02,1.74-2.68,2.01-2.98,4.9-5.84,8.69-6,1.79-.09,3.67-.45,5.22-1.4,3.42-.99,6.48,1.82,9.56,2.85,9.89,3.28,9.35-2.45,16.52,8.93,1.29.63,2.95.24,4.35.34,2.58,0,5.25,0,7.82,0,7.52,0,15.08,0,22.6,0"/><path class="b" d="M8.62,160.41c13.04,0,26.09,0,39.12,0,6.07,0,12.18,0,18.26,0,.5-.19,1.36-.8,1.74-1.17.95-.71,2.28-1.26,3.48-1.14,1.27.15,2.55.98,3.48,1.82.93.78,2.36.43,3.48.49,1.99,0,4.1,0,6.09,0,7.23,0,14.5,0,21.74,0,2.46-3.62,4.58-8.09,8.69-10.11,1.6-.76,3.51-.9,5.22-1.27,1.15-.24,2.3-1.11,3.48-1.26,3.2-.06,5.83,2.34,8.69,3.46,1.88.84,4.03,1.29,6.09,1.43,1.78.13,3.83.15,5.22,1.43,2.14,1.67,3.27,4.52,5.22,6.32h34.78"/><path class="b" d="M8.62,159.41c12.75,0,25.51,0,38.25,0,6.07,0,12.18,0,18.26,0,.89.1,1.98-.13,2.61-.81.7-.45,1.77-.84,2.61-.84,1.24.03,2.54.74,3.48,1.51,3.43.33,6.98.04,10.43.13,7.23,0,14.5,0,21.74,0,.76-.22,1.41-1.34,1.74-1.97.43-.69,1.28-2.04,1.74-2.7,1.89-2.76,4.43-5.49,7.82-6.24,1.75-.36,3.63-.8,5.22-1.66,3.2-.74,5.96,1.9,8.69,3.15,9.05,4.44,9.99-1.44,16.52,9.41h35.65"/><path class="b" d="M8.62,158.41c13.04,0,26.09,0,39.12,0,5.78,0,11.61,0,17.39,0,.43,0,1.31,0,1.74,0,1.05-.45,2.29-1.1,3.48-.94.83.12,1.84.65,2.61.94.77,0,1.84,0,2.61,0,2.87,0,5.82,0,8.69,0,7.52,0,15.08,0,22.6,0,2.56-3.53,4.62-7.95,8.69-10,1.6-.81,3.53-1.08,5.22-1.67,1.04-.49,2.29-1.09,3.48-.85,2.84.6,5.2,2.64,7.82,3.8,1.88.9,4.03,1.41,6.09,1.65,2.55.23,4.43.69,6.09,2.81,1.22,1.22,1.97,3.38,3.48,4.26h35.65"/><path class="b" d="M8.62,157.4c20.84.06,41.83-.08,62.6,0,7.81,0,15.66,0,23.47,0,2.58,0,5.25,0,7.82,0,1.08,0,2.39,0,3.48,0,.45.08,1.34-.11,1.74-.35,2.61-4.46,5.85-9.4,11.3-10.43,1.46-.27,2.88-1.24,4.35-1.4,3.22.15,5.8,2.63,8.69,3.8,8.06,3.3,9.33-.85,14.78,8.38h36.52"/><path class="b" d="M8.62,156.4h99.11c3.93-4.95,5.24-8.87,12.17-10.4,1.12-.29,2.31-1.06,3.48-1.12,2.86.1,5.27,2.1,7.82,3.17,1.88.87,4.03,1.39,6.09,1.61,2.16.21,4.61.5,6.09,2.29,1.25,1.27,2.21,3.22,3.48,4.46h36.52"/><path class="b" d="M8.62,155.4c33.32-.1,66.67.2,99.98-.11,2.43-3.99,5.59-8.17,10.43-9.16,1.45-.28,2.88-1.19,4.35-1.35,3.11.09,5.77,2.23,8.69,3.06,1.64.53,3.5.77,5.22.89,2.2.1,4.64.49,6.09,2.33,1.25,1.23,2.03,3.34,3.48,4.33h36.52"/><path class="b" d="M8.62,154.4h99.98c1.09-.55,1.84-2.09,2.61-2.98,2.16-2.89,5.16-4.7,8.69-5.38,1.12-.27,2.32-.99,3.48-1.08,2.73-.03,5.23,1.53,7.82,2.15,1.94.53,4.08.6,6.09.59,2.23-.08,4.67.43,6.09,2.3,1.25,1.25,1.98,3.44,3.48,4.4h36.52"/><path class="b" d="M8.62,153.39h100.85c2.76-3.28,5.08-6.01,9.56-6.76,1.45-.23,2.9-1.06,4.35-1.28,2.94-.14,5.77,1.29,8.69,1.39,3.43.38,7.54-1.52,10.43,1.02,1.76,1.52,2.67,4.08,4.35,5.63h36.52"/><path class="b" d="M8.62,152.39c33.9-.06,67.82.11,101.72-.06,2.6-3.3,5.45-4.74,9.56-5.28,1.13-.21,2.34-.89,3.48-1.08,3.16-.29,6.41.73,9.56.06,2-.32,4.05-1.08,6.09-1.17,4.19-.13,5.75,4.71,7.82,7.53h36.52"/><path class="b" d="M8.62,151.39c34.19-.08,68.41.16,102.59-.08,2.43-2.51,5.36-3.11,8.69-3.44,1.44-.25,2.87-1.12,4.35-1.25,2.29-.24,4.72-.2,6.96-.84,2.06-.55,4.08-1.58,6.09-2.27,5.21-2.08,7.49,3.9,9.56,7.51.44.26,1.24.46,1.74.38,1.09,0,2.39,0,3.48,0,2.58,0,5.25,0,7.82,0,7.81,0,15.66,0,23.47,0"/><path class="b" d="M8.62,150.39c27.24,0,54.49,0,81.72,0,7.23,0,14.5,0,21.74,0,1.17-.09,2.32-.98,3.48-1.17,1.37-.31,2.96-.34,4.35-.55,1.46-.25,2.89-1.16,4.35-1.45,2.32-.51,4.79-.98,6.96-2.01,3.21-1.22,6.91-5.05,10.43-3.21,2.9,2,3.82,5.9,6.09,8.39h35.65"/><path class="b" d="M8.62,149.38c28.4,0,56.8,0,85.2,0,6.07,0,12.18,0,18.26,0,2.58,0,5.25,0,7.82,0,1.49-.28,2.91-1.27,4.35-1.74,2.7-.92,5.44-2.06,7.82-3.66,2.84-1.6,6.1-5.18,9.56-3.37,2.86,2.15,4.12,5.91,6.09,8.76h35.65"/><path class="b" d="M8.62,148.38c28.98,0,57.96,0,86.94,0,6.36,0,12.76,0,19.13,0,2.28,0,4.67,0,6.96,0,.41,0,1.32-.01,1.74-.04.76-.4,1.84-.94,2.61-1.34,2.43-1.25,4.79-2.88,6.96-4.54,2.45-1.71,5.57-4.76,8.69-2.96,2.82,2.2,4.3,5.87,6.09,8.87h35.65"/><path class="b" d="M8.62,147.38c38.83,0,77.67.01,116.5,0,2.39-1.55,4.76-3.38,6.96-5.2,2.48-1.84,5.32-4.89,8.69-3.98,3.46,1.79,5.03,6.01,6.96,9.18h35.65"/><path class="b" d="M8.62,146.38h117.37c2.04-1.64,4.09-3.5,6.09-5.2,2.4-1.9,5.38-4.77,8.69-3.65,3.35,1.79,4.97,5.79,6.96,8.85h35.65"/><path class="b" d="M8.62,145.37c29.27,0,58.54,0,87.81,0,6.65,0,13.34,0,20,0,2.28,0,4.67,0,6.96,0,.76,0,1.84,0,2.61,0,.55-.15,1.38-.82,1.74-1.24,3.46-3.01,8.95-9.81,13.91-6.58,2.61,2.01,4.13,5.25,6.09,7.82h35.65"/><path class="b" d="M8.62,144.37c29.27,0,58.54,0,87.81,0,6.65,0,13.34,0,20,0,2.28,0,4.67,0,6.96,0,1.59-.05,3.34.4,4.35-1.2,3.49-3.46,8.66-9.41,13.91-5.89,1.71,1.32,3.12,3.31,4.35,5.06.21.59,1.25,1.66,1.74,2.02h35.65"/><path class="b" d="M8.62,143.37c25.5,0,51.01,0,76.51,0,8.98,0,17.98,0,26.95,0,3.16,0,6.4,0,9.56,0,1.68-.11,3.61.29,5.22-.28,7.71-9.04,12.94-10.55,20,.12,1.67.33,3.53.09,5.22.16,2.58,0,5.25,0,7.82,0,7.81,0,15.66,0,23.47,0"/><path class="b" d="M8.62,142.36c29.27,0,58.54,0,87.81,0,6.65,0,13.34,0,20,0,2.28,0,4.67,0,6.96,0,3.36.08,3.03.16,5.22-2.47,4.03-4.65,8.89-6.6,13.91-1.97,1.54,1.27,2.63,3.42,4.35,4.44h36.52"/><path class="b" d="M8.62,141.36h117.37c1.01-.57,1.84-1.94,2.61-2.76,1.2-1.33,2.7-2.7,4.35-3.42,3.4-1.53,7.03.62,9.56,2.85,1.15.99,2.2,2.51,3.48,3.34h37.38"/><path class="b" d="M8.62,140.36h117.37c2.64-3.02,5.75-7.78,10.43-6.13,2.24.83,4.27,2.42,6.09,3.94.76.67,1.66,1.77,2.61,2.19h38.25"/><path class="b" d="M8.62,139.36h117.37c5.99-8.98,9.19-7.4,16.52-1.03,1.01,1.38,2.86.99,4.35,1.03,1.69,0,3.52,0,5.22,0,10.43,0,20.87,0,31.3,0"/><path class="b" d="M8.62,138.35c25.5,0,51.01,0,76.51,0,8.68,0,17.4,0,26.08,0,3.16,0,6.4,0,9.56,0,1.69-.08,3.56.19,5.22-.18,2.27-3.71,5.85-8.22,10.43-4.85,2.12,1.49,3.97,3.55,6.09,5.04h40.86"/><path class="b" d="M8.62,137.35c25.5,0,51.01,0,76.51,0,8.68,0,17.4,0,26.08,0,3.16,0,6.4,0,9.56,0,1.08,0,2.39,0,3.48,0,.45.09,1.35-.12,1.74-.38,5.53-9.06,8.59-6.3,14.78.03,1.29.64,2.95.24,4.35.34,1.99,0,4.1,0,6.09,0,10.72,0,21.45,0,32.17,0"/><path class="b" d="M8.62,136.35c25.5,0,51.01,0,76.51,0,8.68,0,17.4,0,26.08,0,3.16,0,6.4,0,9.56,0,1.08,0,2.39,0,3.48,0,0,0,.87,0,.87,0,0,0,.87-.46.87-.46,5.11-8.68,8.3-6.35,13.91.15,1.31.57,2.95.21,4.35.31,1.99,0,4.1,0,6.09,0,11.01,0,22.03,0,33.04,0"/><path class="b" d="M8.62,135.35c25.5,0,51.01,0,76.51,0,8.68,0,17.4,0,26.08,0,3.16,0,6.4,0,9.56,0,1.08,0,2.39,0,3.48,0,.44.09,1.35-.12,1.74-.37,2.11-3.7,5.34-8.02,9.56-4.03,1.55,1.26,2.68,3.31,4.35,4.4h43.47"/><path class="b" d="M8.62,134.34c39.12-.05,78.25.1,117.37-.05,4.62-8.28,7.84-6.88,13.04-.11,1.96.35,4.1.08,6.09.16,3.16,0,6.4,0,9.56,0,9.56,0,19.14,0,28.69,0"/><path class="b" d="M8.62,133.34h117.37c1.24-1.21,2.15-3.13,3.48-4.27,3.76-3.48,7.24,1.62,9.56,4.27,14.77-.09,29.58.17,44.34-.09"/><path class="b" d="M8.62,132.34c39.41,0,78.83,0,118.24,0,4.26-7.29,7.41-5.87,12.17-.05,9.55.15,19.14,0,28.69.05,3.16,0,6.4,0,9.56,0,1.39,0,2.95,0,4.35,0,.53-.2,1.37-.89,1.74-1.32"/><path class="b" d="M8.62,131.34c25.79,0,51.59,0,77.38,0,8.98,0,17.98,0,26.95,0,3.16,0,6.4,0,9.56,0,1.69-.07,3.55.16,5.22-.16,3.85-6.1,6.89-5.12,11.3-.28,1.23.8,2.95.32,4.35.44,1.99,0,4.1,0,6.09,0,10.43,0,20.87,0,31.3,0,.94-.56,1.79-1.8,2.61-2.52"/><path class="b" d="M8.62,130.33c13.9,0,27.83,0,41.73,0,6.07,0,12.18,0,18.26,0,.77,0,1.83,0,2.61,0,1.06-.4,2.31-.94,3.48-.82.81.08,1.87.41,2.61.75,1.69.13,3.52.04,5.22.06,4.04,0,8.13,0,12.17,0,11.3-.02,22.61.04,33.91-.02,2.72-4.09,5.67-5.22,9.56-1.73.97.83,2.06,2.02,3.48,1.75,3.45,0,6.98,0,10.43,0,6.36,0,12.76,0,19.13,0,2.87,0,5.82,0,8.69,0,1.43-.62,2.19-2.52,3.48-3.53"/><path class="b" d="M8.62,129.33c20.57-.04,41.16.08,61.73-.04,1.93-1.87,4.59-2.18,6.96-.96.78.34,1.73,1,2.61,1,1.69,0,3.52,0,5.22,0,14.77,0,29.57,0,44.34,0,4.88-5.57,6.91-3.36,12.17,0,12.74-.03,25.51.06,38.25-.04.96-1.45,2.22-3.13,3.48-4.34"/><path class="b" d="M8.62,128.33c13.04,0,26.09,0,39.12,0,4.62,0,9.29,0,13.91,0,2.57-.11,5.29.25,7.82-.19,2.11-2.41,4.89-3.29,7.82-1.78,1.41.61,2.82,1.69,4.35,1.97,3.75,0,7.56,0,11.3,0,8.39,0,16.82,0,25.21,0,2.87,0,5.82,0,8.69,0,1.09,0,2.39,0,3.48,0,.56-.17,1.38-.91,1.74-1.36,3.12-3.09,6.3-1.54,9.56.32.4.29,1.29.82,1.74,1.04.42,0,1.31,0,1.74,0,1.69,0,3.52,0,5.22,0,9.56,0,19.14,0,28.69,0,1.64-1.39,2.73-3.64,4.35-5.08"/><path class="b" d="M8.62,127.32c13.04,0,26.09,0,39.12,0,4.33,0,8.71,0,13.04,0,1.69,0,3.52,0,5.22,0,.79,0,1.87.08,2.61-.27,4.86-5.91,7.49-3.05,13.04-.53.76.24,1.84.25,2.61.43.43.18,1.27.38,1.74.37,2.87,0,5.82,0,8.69,0,12.45-.1,24.95.21,37.38-.11,3.28-4.06,7.36-3.78,11.3-.83.86,1.06,2.25.98,3.48.94,1.69,0,3.52,0,5.22,0,5.78,0,11.61,0,17.39,0,3.15-.11,6.44.24,9.56-.16,1.29-1.84,2.78-3.89,4.35-5.51"/><path class="b" d="M8.62,126.32c12.75,0,25.51,0,38.25,0,4.33,0,8.71,0,13.04,0,1.69,0,3.52,0,5.22,0,.8,0,1.89.09,2.61-.33,2.32-3.29,5.51-5.87,9.56-3.68,1.95.93,3.85,2.49,6.09,2.64,1.18.18,2.41.89,3.48,1.38,3.16,0,6.4,0,9.56,0,12.17,0,24.35,0,36.52,0,2.55-2.95,5.84-4.73,9.56-2.61,1.2.67,2.27,1.96,3.48,2.61h32.17c1.95-1.74,3.34-4.33,5.22-6.17"/><path class="b" d="M8.62,125.32c12.46,0,24.93,0,37.38,0,4.33,0,8.71,0,13.04,0,1.69,0,3.52,0,5.22,0,.81,0,1.9.1,2.61-.39,3.89-5.67,6.98-7.36,13.04-3.22,1.27.86,2.89,1.26,4.35,1.63,1.19.43,2.42,1.31,3.48,1.99h46.08c2.14-2.45,5.27-5.29,8.69-3.49,1.62.82,2.94,2.39,4.35,3.49,6.65,0,13.34,0,20,0,2.28,0,4.67,0,6.96,0,1.39-.07,3,.19,4.35-.21,1.67-2.09,3.42-4.4,5.22-6.38"/><path class="b" d="M8.62,124.32c6.94,0,13.92,0,20.87,0,2.28,0,4.67,0,6.96,0,1.09,0,2.39,0,3.48,0,.43-.16,1.29-.4,1.74-.47.83-.04,1.78.55,2.61.47,3.16,0,6.4,0,9.56,0,2.58,0,5.25,0,7.82,0,1.09,0,2.39,0,3.48,0,.67-.18,1.42-1.21,1.74-1.77,3.93-5.56,7.13-7.1,13.04-2.91,1.26.89,2.9,1.4,4.35,1.87,1.57.63,2.93,1.94,4.35,2.82h46.08c5.2-6.68,7.62-5.33,13.04,0h29.56c2.21-2.06,4.04-4.74,6.09-6.96"/><path class="b" d="M8.62,123.31c6.65,0,13.34,0,20,0,3.16,0,6.4,0,9.56,0,.54,0,1.36-.45,1.74-.81.41-.24,1.27-.51,1.74-.53.89,0,1.94.51,2.61,1.07,1.62.55,3.53.16,5.22.27,4.91,0,9.87,0,14.78,0,1.46-.97,2.3-3.04,3.48-4.32,3.39-4.29,6.67-5.3,11.3-2.03,1.06.69,2.31,1.53,3.48,2.01,1.55.44,3.1,1.38,4.35,2.39,1.72,1.46,1.89,2.16,4.35,1.95,2.28,0,4.67,0,6.96,0,8.1,0,16.24,0,24.34,0,2.58,0,5.25,0,7.82,0,1.69-.08,3.57.21,5.22-.2,2.54-3.66,5.42-6.59,9.56-2.93,1.17.9,2.19,2.4,3.48,3.13,6.94,0,13.92,0,20.87,0,1.69,0,3.52,0,5.22,0,.82.01,1.91.1,2.61-.44,2.08-2.16,4.13-4.57,6.09-6.84"/><path class="b" d="M8.62,122.31c6.36,0,12.76,0,19.13,0,1.99,0,4.1,0,6.09,0,1.39-.06,2.99.17,4.35-.2,2.21-2.45,4.84-2.23,6.96.2h18.26c4.46-5.21,7.7-13.31,15.65-7.49,1.58,1.17,3.43,2.16,5.22,2.96,1.94,1.13,3.69,2.83,5.22,4.46,15.35.19,30.73,0,46.08.07,1.44-.76,2.2-2.74,3.48-3.75,3.37-3.26,7.26.96,9.56,3.48.75.35,1.81.28,2.61.27,1.39,0,2.95,0,4.35,0,6.36,0,12.76,0,19.13,0,1.45.28,2.56-1.01,3.48-1.92,1.79-1.75,3.6-3.76,5.22-5.67"/><path class="b" d="M8.62,121.31h28.69c1.48-1.89,3.82-3.22,6.09-1.77,1.12.68,1.98,2.05,3.48,1.77,5.2,0,10.45,0,15.65,0,2.83-3.7,5.64-9.43,10.43-10.67,2.59-.44,4.96,1.23,6.96,2.65,1.57,1.27,3.6,2.06,5.22,3.24,1.92,1.31,3.32,3.49,5.22,4.78h46.08c1.19-1.19,2.15-3,3.48-4.06,3.61-2.64,7.07,1.84,9.56,4.06,7.81,0,15.66,0,23.47,0,.43,0,1.31,0,1.74,0,.91-.29,1.88-1.14,2.61-1.73,2.17-1.82,4.26-3.98,6.09-6.15"/><path class="b" d="M8.62,120.31h27.82c2.22-1.99,3.92-3.73,6.96-1.87,1.09.63,2.05,2.14,3.48,1.87,3.16,0,6.4,0,9.56,0,1.68-.13,3.63.33,5.22-.32,2.33-3.4,4.75-7.02,7.82-9.8,3.14-2.78,6.47-2.03,9.56.36,1.88,1.54,4.17,2.72,6.09,4.21,1.89,1.6,3.64,3.65,5.22,5.56h46.95c2.61-4.35,5.08-6.29,9.56-2.68.82.66,1.86,1.64,2.61,2.39.74.37,1.81.29,2.61.29,6.65,0,13.34,0,20,0,3.4.23,9.14-5.66,11.3-8.17"/><path class="b" d="M8.62,119.3c8.4,0,16.82,0,25.21,0,.81,0,1.9.1,2.61-.39,1.04-1.27,2.6-2.57,4.35-2.41,1.24.14,2.51.91,3.48,1.65.35.41,1.21,1.02,1.74,1.14,4.62,0,9.29,0,13.91,0,1.55-.88,2.3-3.11,3.48-4.4,3.7-4.62,8.21-11.94,14.78-7.07,1.99,1.45,4.05,3.04,6.09,4.42,2.29,1.9,4.26,4.38,6.09,6.72,1.01.55,2.37.28,3.48.34,1.39,0,2.95,0,4.35,0,4.91,0,9.87,0,14.78,0,5.49,0,11.03,0,16.52,0,1.69,0,3.52,0,5.22,0,1.09-.05,2.44.17,3.48-.26,1.83-3.17,4.28-5.01,7.82-2.94,1.54.82,2.85,2.32,4.35,3.2,6.07,0,12.18,0,18.26,0,5.46.15,11.36-4.51,14.78-8.47"/><path class="b" d="M8.62,118.02c1.32.53,2.95.2,4.35.28,1.99,0,4.1,0,6.09,0,5.49-.03,11.03.05,16.52-.03,2.99-4.21,6.21-3.17,9.56-.06,4.61.23,9.29.02,13.91.09,1.13-.66,1.87-2.36,2.61-3.39,1.23-1.92,2.9-3.84,4.35-5.59,3.85-4.67,7.64-7.33,13.04-2.91,2.27,1.93,4.97,3.57,6.96,5.81,1.16,1.29,2.44,2.92,3.48,4.31.31.53,1.17,1.52,1.74,1.78,11.88,0,23.77,0,35.65,0,2.58,0,5.25,0,7.82,0,1.39-.12,3.16.37,4.35-.46,3.28-5.19,7.56-2.53,11.3.46,5.2,0,10.45,0,15.65,0,6.86-1.37,12.7-3.29,17.39-8.79"/><path class="b" d="M8.62,116.68l.87.62h25.21c2.47-2.72,4.43-4.09,7.82-1.72.77.52,1.75,1.35,2.61,1.72.43,0,1.31,0,1.74,0,3.75,0,7.56,0,11.3,0,.66-.23,1.43-1.35,1.74-1.94,1.03-1.65,2.24-3.64,3.48-5.14,3.85-4.41,8.43-11.25,14.78-6.4,2.34,1.84,4.85,3.74,6.96,5.85,2.26,2.27,3.81,5.41,6.09,7.63,12.17,0,24.35,0,36.52,0,2.58,0,5.25,0,7.82,0,1.09,0,2.39,0,3.48,0,.57-.17,1.39-.93,1.74-1.39,3.06-2.6,6.77-.54,9.56,1.39,3.75,0,7.56,0,11.3,0,.78,0,1.84.02,2.61-.08,1.05-.51,2.36-.98,3.48-1.29,6.13-1.44,11.31-2.84,15.65-7.78"/><path class="b" d="M8.62,115.28l.87,1.01h24.34c.88-.6,1.74-1.78,2.61-2.4,2.78-2,5.66.74,7.82,2.4,2.87,0,5.82,0,8.69,0,1.69-.09,3.57.22,5.22-.21,1.42-2.18,2.84-4.72,4.35-6.84,1.31-1.66,2.93-3.39,4.35-4.96,3.8-4.16,7.51-5.58,12.17-1.65,2.02,1.76,4.31,3.49,6.09,5.5,2.26,2.46,3.83,5.73,6.09,8.16,11.01,0,22.03,0,33.04,0,5.2,0,10.45,0,15.65,0,.54,0,1.36-.47,1.74-.84.71-.44,1.77-.83,2.61-.91,1.46-.13,3.05.37,4.35,1.01.99.68,2.31.84,3.48.75,3.45,0,6.98,0,10.43,0,1.44-.5,2.87-1.5,4.35-1.93,6.4-1.93,11.64-2.32,16.52-7.6"/><path class="b" d="M8.62,113.81l.87,1.46c7.81.07,15.66,0,23.47.02.95-.57,1.75-1.85,2.61-2.53,1.57-1.32,3.67-1.01,5.22.17,1.36.87,2.53,2.67,4.35,2.36,4.04,0,8.13,0,12.17,0,1.43-1.37,2.4-3.6,3.48-5.24,1.13-2,2.75-3.97,4.35-5.61,3.56-4.05,7.71-8.23,13.04-4.13,2.42,1.93,4.94,4.05,6.96,6.42,2.26,2.58,3.81,6.13,6.09,8.57,11.3,0,22.61,0,33.91,0,3.75,0,7.56,0,11.3,0,1.69,0,3.52,0,5.22,0,.82-.06,1.8-.61,2.61-.76,1.74-.37,3.57.24,5.22.76,2.28,0,4.67,0,6.96,0,1.98-.11,4.15.25,6.09-.22,1.28-.95,2.86-1.79,4.35-2.36,6.22-2.15,11.56-2.29,16.52-7.38"/><path class="b" d="M8.62,112.22c.32.61,1.1,1.75,1.74,2.07h21.74c.94-.66,1.76-2.03,2.61-2.79,3.21-2.98,6.27.74,8.69,2.79h13.91c2.5-3.8,4.45-8.19,7.82-11.34,2.79-3.09,6.76-7.48,11.3-5.16,1.94.96,3.65,2.6,5.22,4.07,1.17,1.06,2.53,2.35,3.48,3.62,1.19,1.55,2.46,3.51,3.48,5.18.73,1.09,1.48,2.88,2.61,3.63,16.8,0,33.62,0,50.43,0,4.62,0,9.29,0,13.91,0,1.39,0,2.95,0,4.35,0,.42,0,1.31,0,1.74,0,.47-.21,1.34-.76,1.74-1.08,6.55-4.41,13.94-3.41,20-9.34"/><path class="b" d="M8.62,110.48c.46.66,1.33,2.04,1.74,2.74,6.94.18,13.92.01,20.87.07,1.7-1.79,3.14-5.02,6.09-4.6,2.57.58,4.06,3.16,6.09,4.6,4.62-.06,9.3.12,13.91-.08,2.45-3.86,4.42-8.28,7.82-11.43,2.37-2.47,4.98-5.75,8.69-5.85,2.77.09,5.03,2.13,6.96,3.92,4.16,3.48,6.94,8.29,9.56,12.95.72.61,1.74.49,2.61.48,1.09,0,2.38,0,3.48,0,3.46,0,6.98,0,10.43,0,10.43,0,20.87,0,31.3,0,7.81,0,15.66,0,23.47,0,1.21-.46,2.34-1.57,3.48-2.18,1.33-.78,2.91-1.51,4.35-2.06,4.9-1.72,9.95-3.16,13.91-6.71"/><path class="b" d="M8.62,108.64c.8,1.07,1.73,2.64,2.61,3.64h19.13c1.98-3.08,4.69-7.69,8.69-4.34,1.55,1.23,2.82,3.08,4.35,4.34h13.91c2.46-3.85,4.42-8.26,7.82-11.41,2.38-2.48,4.98-5.77,8.69-5.89,2.77.07,5.04,2.13,6.96,3.93,4.2,3.57,6.95,8.53,9.56,13.29,13.03.19,26.09,0,39.12.07,11-.09,22.05.18,33.04-.1,6.2-5.11,14.68-6.19,20.87-11.33"/><path class="b" d="M8.62,106.9c1.17,1.3,2.07,3.32,3.48,4.38,3.75,0,7.56,0,11.3,0,1.98-.09,4.14.21,6.09-.18,2.01-3.69,5.27-8.81,9.56-4.49,1.52,1.38,2.76,3.37,4.35,4.68h13.91c2.5-3.79,4.41-8.2,7.82-11.3,2.38-2.45,4.99-5.72,8.69-5.8,3.22.15,5.66,2.77,7.82,4.88,3.87,3.3,5.81,8.2,8.69,12.22h72.16c6.43-4.82,14.48-6.85,20.87-11.73"/><path class="b" d="M8.62,105.3c.82.94,1.87,2.29,2.61,3.29.54.9,1.42,1.94,2.61,1.69,4.62,0,9.29,0,13.91,0,.65-.32,1.43-1.55,1.74-2.18.91-1.45,2.09-3.17,3.48-4.2,4.73-2.96,7.34,4.1,10.43,6.38h13.91c2.48-3.78,4.41-8.16,7.82-11.23,2.37-2.41,5.02-5.6,8.69-5.59,3.24.23,5.66,2.89,7.82,5.04,3.36,3.12,5.66,7.31,7.82,11.3.72.6,1.74.48,2.61.48,1.09,0,2.38,0,3.48,0,3.75,0,7.56,0,11.3,0,10.72,0,21.45,0,32.17,0,5.2,0,10.45,0,15.65,0,1.69,0,3.52,0,5.22,0,1.11-.06,2.51.25,3.48-.43,6.33-4.36,13.85-6.74,20-11.39"/><path class="b" d="M8.62,103.84c1.15,1.19,2.43,2.7,3.48,3.98.35.5,1.11,1.34,1.74,1.46,4.33,0,8.71,0,13.04,0,2.53-3.88,6.24-11.35,11.3-5.93,1.21,1.23,2.44,2.89,3.48,4.26.33.51,1.16,1.43,1.74,1.67,4.62-.04,9.3.09,13.91-.05,1.74-2.69,3.31-5.8,5.22-8.38,1-1.22,2.39-2.51,3.48-3.65,1.92-1.89,4.14-4.07,6.96-4.38,3.64-.22,6.36,2.87,8.69,5.24,3.34,3.12,5.51,7.35,7.82,11.23,17.09,0,34.2,0,51.3,0,7.23,0,14.5,0,21.74,0,6.9-3.95,14.43-6.98,20.87-11.72"/><path class="b" d="M8.62,102.53c2.08,1.78,3.79,4.27,6.09,5.75h10.43c1.47-1.06,2.33-3.19,3.48-4.57,1.78-2.51,4.73-5.43,7.82-3.05,1.69,1.27,3.1,3.2,4.35,4.88.71.87,1.47,2.37,2.61,2.74,2.87,0,5.82,0,8.69,0,1.69-.1,3.59.26,5.22-.25,2.24-3.34,3.94-7.37,6.96-10.12,2.07-2.01,4.19-4.38,6.96-5.43,5.4-1.84,9.83,4.66,13.04,8.13,1.22,1.6,2.48,3.63,3.48,5.37.27.64,1.1,1.96,1.74,2.3,16.8,0,33.62,0,50.43,0,7.52,0,15.08,0,22.6,0,7.07-3.56,14.57-6.56,20.87-11.45"/><path class="b" d="M8.62,101.37c1.39,1.19,2.93,2.53,4.35,3.68,1.04.76,2.18,1.95,3.48,2.22,2.28,0,4.67,0,6.96,0,.59-.22,1.4-1.11,1.74-1.62,1.07-1.44,2.31-3.18,3.48-4.53,6.06-7.38,10.16,1.17,13.91,5.81.43.24,1.25.43,1.74.35,1.09,0,2.39,0,3.48,0,2.87,0,5.82,0,8.69,0,1.64-.89,2.41-3.33,3.48-4.79,1.36-2.38,3.11-4.76,5.22-6.53,3-2.99,7.08-6.19,11.3-3.42,5.19,3.69,9.15,9.09,12.17,14.65,16.79.28,33.63,0,50.43.1,7.81-.04,15.66.07,23.47-.04,2.79-1.38,5.86-2.35,8.69-3.63,4.26-2.01,8.52-4.33,12.17-7.33"/><path class="b" d="M8.62,100.38c4.82,3.61,11.72,8.89,16.52,2.34,8.28-10.9,11.04-5.02,17.39,3.25,1.6.61,3.53.18,5.22.3,2.87,0,5.82,0,8.69,0,2.08-2.23,3.4-5.36,5.22-7.81,1.13-1.67,2.85-3.12,4.35-4.45,4.63-4.22,8.54-4.45,13.04.1,2.12,2.18,4.31,4.56,6.09,7.03,1.17,1.55,2.17,3.69,3.48,5.13,16.8,0,33.62,0,50.43,0,7.52,0,15.08,0,22.6,0,3.12-1.14,6.46-1.87,9.56-3.06,4.31-1.86,8.65-4.22,12.17-7.35"/><path class="b" d="M8.62,99.54c4.14,2.87,10.2,5.63,14.78,2.2,2.33-1.88,4.16-4.65,6.96-5.9,5.54-2.08,9.06,5.8,12.17,9.13.74.39,1.81.31,2.61.31,1.09,0,2.39,0,3.48,0,2.57-.09,5.28.21,7.82-.16,2.09-2.92,3.83-6.34,6.09-9.14,2.26-2.23,4.79-4.63,7.82-5.73,6-1.76,10.45,5.51,13.91,9.34.83,1.08,1.88,2.61,2.61,3.76.3.59,1.01,1.73,1.74,1.92,16.51,0,33.04,0,49.56,0,7.52,0,15.08,0,22.6,0,3.34-1.26,7.06-1.24,10.43-2.37,2.43-.78,4.78-2.08,6.96-3.4,1.87-1.03,3.74-2.36,5.22-3.91"/><path class="b" d="M8.62,98.84c3.77,2.46,8.85,3.32,13.04,1.45,2.31-1,4.05-3.09,6.09-4.51,3.04-2.26,6.09-1.71,8.69.88,2.23,2.14,4.05,4.89,6.09,7.21.98.63,2.37.33,3.48.39,3.16,0,6.4,0,9.56,0,2.85-2.69,4.33-6.79,6.96-9.71,4.37-4.21,9.26-8.05,14.78-3.14,4.01,3.71,7.53,8.15,10.43,12.78,16.8.21,33.62,0,50.43.07,6.65,0,13.34,0,20,0,1.14.12,2.4-.45,3.48-.73.76-.17,1.83-.28,2.61-.31,3.21-.04,6.58-.12,9.56-1.45,3.43-1.63,7.03-3.46,9.56-6.36"/><path class="b" d="M8.62,98.28c3.93,2.43,9.01,1.82,13.04-.06,3.65-1.63,6.89-5.96,11.3-4.5,4.62,1.67,6.69,6.8,10.43,9.55,2.58,0,5.25,0,7.82,0,1.39-.08,3.02.24,4.35-.28,2.48-3.11,4.37-6.88,6.96-9.91,1.24-1.27,2.86-2.45,4.35-3.42,5.2-3.49,9.52-.41,13.04,3.7,2.78,3.1,5.34,6.57,7.82,9.9,19.41,0,38.84,0,58.25,0,3.16,0,6.4,0,9.56,0,2.16-.48,4.77-1.05,6.96-1.25,3.17.07,6.41,1.03,9.56.25,2.14-.48,4.21-1.58,6.09-2.69,1.97-1.02,3.85-2.47,5.22-4.23"/><path class="b" d="M8.62,97.83c3.81,2.23,8.43.71,12.17-.93,2.38-.99,4.58-2.6,6.96-3.59,6.9-2.77,11.23,5.08,15.65,8.94,3.75.01,7.56,0,11.3,0,4.47-5.1,6.41-11.41,13.04-14.37,5.32-2.74,9.91,1.94,13.04,5.79,1.41,1.71,2.98,3.64,4.35,5.39.76.96,1.65,2.42,2.61,3.2,14.48,0,28.99,0,43.47,0,6.94,0,13.92,0,20.87,0,.84.13,1.85-.37,2.61-.67,1.05-.36,2.37-.59,3.48-.69,1.4-.08,2.95-.45,4.35-.28,2.61.39,5.16,1.56,7.82,1.61,2.79.1,5.48-1.14,7.82-2.53,2.04-1,3.9-2.53,5.22-4.39"/><path class="b" d="M8.62,97.49c2.7,1.56,5.99.75,8.69-.38,2.32-.96,4.67-2.14,6.96-3.18,2.66-1.29,5.79-2.29,8.69-1.22,3.07,1.11,5.5,3.57,7.82,5.77,1.04.92,2.15,2.27,3.48,2.77,3.16,0,6.4,0,9.56,0,4.09-3.65,5.92-9.49,10.43-12.7,4.61-3.46,8.81-3.57,13.04.53,2.89,2.75,5.29,6.13,7.82,9.2.75.9,1.6,2.33,2.61,2.98,20.57,0,41.16,0,61.73,0,.43,0,1.31,0,1.74,0,1.12-.48,2.3-1.34,3.48-1.68,1.93-.63,4.09-.45,6.09-.55,1.81-.02,3.59.85,5.22,1.55.74.32,1.77.82,2.61.69,1.39,0,2.96,0,4.35,0,.77,0,1.84.03,2.61-.08.79-.34,1.86-.88,2.61-1.31,2.13-.99,3.93-2.57,5.22-4.54"/><path class="b" d="M8.62,97.22c2.78,1.58,6.06.33,8.69-.96,7.99-4.11,14-6.82,21.74-.39,1.1.86,2.39,1.93,3.48,2.81.72.55,1.66,1.45,2.61,1.57,2.58,0,5.25,0,7.82,0,4.55-3.66,6.47-9.91,11.3-13.24,4.71-3.34,8.95-2.93,13.04,1.11,3.87,3.64,6.59,8.51,10.43,12.12,13.9,0,27.83,0,41.73,0,4.91,0,9.87,0,14.78,0,1.98-.09,4.14.22,6.09-.19.97-.88,2.26-1.78,3.48-2.26,1.62-.64,3.51-.65,5.22-.47,1.1.09,2.44.08,3.48.51,1.14.46,2.42,1.21,3.48,1.83.35.31,1.26.62,1.74.58,2.58,0,5.25,0,7.82,0,1.15.07,2.52,0,3.48-.73,1.85-.79,3.26-2.55,4.35-4.19"/><path class="b" d="M8.62,97c4.59,2.29,8.94-2.02,13.04-3.61,1.88-.85,4.05-1.2,6.09-1.41,6.27-.85,11.72,2.91,16.52,6.44,1.43,1.24,3.49.75,5.22.83.78,0,1.85.06,2.61-.19,1.26-.85,2.51-2.16,3.48-3.33,2.38-2.87,4.32-6.32,6.96-8.97,2.8-2.36,6.81-4.26,10.43-2.7,3.23,1.39,5.64,4.27,7.82,6.93,2.24,2.74,4.4,5.82,6.96,8.27h60.86c3.07-2.6,5.22-4.57,9.56-3.76,1.09.21,2.41.32,3.48.61,1.89.67,3.46,2.22,5.22,3.14,3.16,0,6.4,0,9.56,0,1.09-.02,2.4.06,3.48-.09,1.47-.78,2.57-2.49,3.48-3.84"/><path class="b" d="M8.62,96.79c5.33,2.65,10.35-4.13,15.65-4.59,7.54-.83,13.74.03,20,4.58,4.55,3.19,8.22.96,11.3-2.88,3.97-4.79,6.88-11.23,13.91-11.72,5.44-.03,9.05,5,12.17,8.82,1.85,2.49,4.04,4.94,6.09,7.26,13.04,0,26.09,0,39.12,0,4.33,0,8.71,0,13.04,0,2.57-.11,5.29.25,7.82-.19,2.73-3.24,6.03-5.64,10.43-4.27,1.41.41,3.08.57,4.35,1.37.82.52,1.87,1.34,2.61,1.97.64.64,1.66,1.3,2.61,1.12,4.33,0,8.71,0,13.04,0,1.15-.47,1.94-2.04,2.61-3.01"/><path class="b" d="M8.62,96.57c4.69,2.31,8.81-2.64,13.04-4,1.34-.53,2.93-.57,4.35-.5,1.4,0,2.95-.03,4.35-.06,5.41-.23,10.3.36,14.78,3.64,4.11,2.51,7.83-.32,10.43-3.53,3.95-4.7,6.92-11.01,13.91-11.26,5.94.21,9.65,5.9,13.04,10.09,1.54,2.1,3.55,4.07,5.22,6.05,1.05.4,2.38.2,3.48.24,1.4,0,2.95,0,4.35,0,4.33,0,8.71,0,13.04,0,12.46,0,24.93,0,37.38,0,1.77-1.45,3.2-3.55,5.22-4.71,3.34-2.18,7.07-.32,10.43.81,1.23.67,2.47,1.8,3.48,2.76.59.74,1.64,1.31,2.61,1.14,4.62,0,9.29,0,13.91,0,.58-.41,1.4-1.57,1.74-2.19"/><path class="b" d="M8.62,96.24c1.69,0,3.52,0,5.22,0,2.98-1.12,5.54-3.45,8.69-4.14,1.39-.32,2.95.03,4.35.05,2,.05,4.1-.15,6.09-.37,3.16-.35,6.59-.69,9.56.67,1.13.53,2.32,1.46,3.48,1.95,4.26,1.93,8-1.95,10.43-5.01,1.96-2.39,3.77-5.16,6.09-7.23,4.11-3.15,8.94-3.57,13.04-.13,5.04,4.03,8.01,10.21,13.04,14.22,14.48,0,28.99,0,43.47,0,2.87,0,5.82,0,8.69,0,1.09,0,2.39,0,3.48,0,.61-.08,1.4-.84,1.74-1.32,2.26-2.49,5-5.62,8.69-5.28,2.41.35,4.7,1.59,6.96,2.44,1.6,1,3.03,2.58,4.35,3.91,1.05.4,2.38.2,3.48.24,1.39,0,2.95,0,4.35,0,2.87-.09,5.85.19,8.69-.14l.87-1.38"/><path class="b" d="M8.62,95.24c1.99,0,4.1,0,6.09,0,1.23-.1,2.4-1.09,3.48-1.62,2.55-1.5,4.89-2.22,7.82-1.53,2.91.3,5.88-.38,8.69-1.05,2.52-.59,5.33-1.14,7.82-.15,1.44.62,2.8,1.8,4.35,2.2,4.54,1.19,7.88-3.22,10.43-6.3,1.62-2,3.25-4.3,5.22-5.98,3.61-2.72,8.38-3.43,12.17-.65,3.51,2.44,6.11,6.07,8.69,9.42,1.59,1.93,3.62,3.74,5.22,5.66,13.9.03,27.83,0,41.73,0,2.58,0,5.25,0,7.82,0,1.69-.09,3.58.24,5.22-.23,3.23-2.9,6.32-7.98,11.3-7.04,2.41.62,4.66,2.03,6.96,2.97,1.61,1.07,3.03,2.72,4.35,4.12,1.95.4,4.1.09,6.09.18,3.45,0,6.98,0,10.43,0l.87-1.03"/><path class="b" d="M8.62,94.24c2.57-.08,5.27.19,7.82-.14,1.9-1.04,3.91-2.25,6.09-2.57,1.12-.17,2.38.18,3.48.33,1.1.12,2.39.07,3.48-.11,3.83-.56,7.37-2.88,11.3-2.76,1.59.06,3.06,1,4.35,1.83,2.53,1.57,5.62,1.05,7.82-.83,5.33-4.23,8-12.19,15.65-12.79,8.72-.25,12.54,9.78,18.26,14.75,2.22,2.44,1.88,2.36,5.22,2.28,11.01,0,22.03,0,33.04,0,3.45,0,6.98,0,10.43,0,2-.1,4.24.36,6.09-.6,4.06-2.32,6.84-8.14,12.17-7.35,2.19.42,4.11,1.86,6.09,2.82,2.54.82,4.32,3.13,6.09,5,5.47.35,11.03.03,16.52.13l.87-.78"/><path class="b" d="M8.62,93.23c1.69,0,3.52,0,5.22,0,1.1-.05,2.46.2,3.48-.32,1.34-.72,2.86-1.48,4.35-1.84,1.41-.39,2.95,0,4.35.25,1.41.15,2.99-.04,4.35-.42,4.22-1.02,8.63-4.83,13.04-2.62,1.3.86,2.78,1.85,4.35,2.1,5.16.52,8.3-4.81,11.3-8.17,3.53-4.94,10.09-8.14,15.65-4.42,3.54,2.31,6.16,5.88,8.69,9.19,1.9,2.12,3.97,4.36,6.09,6.24,12.75,0,25.51,0,38.25,0,1.09-.02,2.4.08,3.48-.12,1.03-.47,2.35-.8,3.48-.92,2.29-.26,4.8-.1,6.96-1.04,3.95-2.11,7.06-7.59,12.17-6.18,2.19.64,4.08,2.21,6.09,3.22,2.52.84,4.31,3.09,6.09,4.93,5.47.3,11.03.02,16.52.11l.87-.79"/><path class="b" d="M8.62,92.23c2.87,0,5.82,0,8.69,0,1.37-.62,2.86-1.43,4.35-1.76,1.41-.39,2.95.03,4.35.26,1.43.12,3.01-.18,4.35-.66,4.18-1.3,8.5-5.67,13.04-3.38,1.54,1.07,3.28,2.28,5.22,2.37,4.67-.01,7.59-4.57,10.43-7.67,3.87-5.1,10.84-8.17,16.52-4.02,3.13,2.21,5.54,5.43,7.82,8.46,1.86,2.21,4.12,4.3,6.09,6.4h39.99c1.93-1.64,4.45-2.55,6.96-2.8,2.02-.26,4.28-.33,6.09-1.37,2.06-1.26,3.91-3.1,6.09-4.17,3.8-2.04,7.33.71,10.43,2.74,1.46.76,3.18,1.42,4.35,2.64,1.11.89,2.09,2.48,3.48,2.95,5.2,0,10.45,0,15.65,0l.87-.95"/><path class="b" d="M8.62,91.23c2.29,0,4.67,0,6.96,0,1.11-.06,2.47.22,3.48-.36,1.57-.77,3.45-1.41,5.22-1.08,1.07.3,2.38.39,3.48.19,2.52-.49,4.79-1.98,6.96-3.29,8.91-5.43,7.6-.48,13.91.88,4.54.38,7.61-3.89,10.43-6.8,1.68-1.89,3.65-3.77,6.09-4.63,2.98-1.39,6.6-1.81,9.56-.14,3.65,1.99,6.26,5.53,8.69,8.8,1.83,2.25,4.13,4.29,6.09,6.43h39.12c6.43-6.88,10.43-3.01,16.52-7.42,5.25-3.69,8.22-2.52,13.04,1.03,1,.74,2.37,1.28,3.48,1.81,1.89,1.19,3.54,2.99,5.22,4.45,2.85.32,5.83.05,8.69.13,2.28-.11,4.72.25,6.96-.2l.87-.97"/><path class="b" d="M8.62,90.23c2.29,0,4.67,0,6.96,0,1.39-.09,3.03.25,4.35-.29,1.04-.48,2.33-.88,3.48-.88,1.4.15,2.95.57,4.35.12,4.98-1.14,9.56-8.1,14.78-6.54,2.05,1,3.74,2.98,6.09,3.4,3.88.79,7.03-2.4,9.56-4.88,2-2.06,4.17-4.21,6.96-5.15,2.42-1.06,5.18-1.9,7.82-1.28,4.68,1.19,7.73,5.47,10.43,9.18,1.79,2.24,4.02,4.35,6.09,6.33h38.25c1.3-.83,2.27-2.46,3.48-3.42,1.93-1.73,4.41-2.93,6.96-3.39,1.08-.21,2.39-.35,3.48-.51,1.49-.36,2.98-1.23,4.35-1.89,4.85-2.59,8.2-.42,12.17,2.47,1.28.96,3.04,1.4,4.35,2.3,1.77,1.25,3.46,2.88,5.22,4.15,1.61.58,3.53.17,5.22.28,2.87,0,5.82,0,8.69,0,.47-.29,1.34-1,1.74-1.39"/><path class="b" d="M8.62,89.22c3.75,0,7.56,0,11.3,0,1.09-.33,2.32-.88,3.48-.9,1.1.05,2.37.43,3.48.16,5.42-1.02,10.05-9.54,15.65-7.78,1.83.91,3.29,2.69,5.22,3.46,3.85,1.85,7.69-.96,10.43-3.5,2.03-1.9,4.26-3.8,6.96-4.65,2.95-1.31,6.38-2.53,9.56-1.29,4.34,1.69,6.85,5.97,9.56,9.48,1.6,1.7,3.26,3.73,5.22,5.02h38.25c3.19-4.86,7.68-9.31,13.91-9.01,2.93-.39,5.66-2.25,8.69-1.93,3.33.31,5.94,2.75,8.69,4.39,1.05.6,2.46.97,3.48,1.63,2.31,1.46,4.46,3.41,6.96,4.56.71.45,1.81.36,2.61.36,1.09,0,2.39,0,3.48,0,2.66-.02,5.65.26,7.82-1.57"/><path class="b" d="M8.62,88.22c3.75,0,7.56,0,11.3,0,.85.14,1.81-.44,2.61-.63,1.1-.3,2.37.1,3.48.05,6.28-.59,11.87-13.45,18.26-7.63,4.33,4.12,8.24,4.65,13.04.89,2.4-1.88,4.84-3.92,7.82-4.78,2.97-1.28,6.27-2.88,9.56-1.9,3.93,1.24,6.49,4.93,8.69,8.19,1.45,2.04,3.42,3.91,5.22,5.63,2.54.4,5.25.07,7.82.17,4.91,0,9.87,0,14.78,0,3.45,0,6.98,0,10.43,0,1.09,0,2.39,0,3.48,0,.8,0,1.89.09,2.61-.34,2.96-4.57,6.91-10.53,13.04-10.23,4.39.43,7.54-2.1,12.17.11,2.12.95,4.07,2.48,6.09,3.6,1.05.57,2.43.91,3.48,1.48,2.55,1.39,5,3.26,7.82,4.09,2.52.79,5.25.43,7.82.27.77-.04,1.84.07,2.61.12.81-.06,1.87-.41,2.61-.74"/><path class="b" d="M8.62,87.22c4.04,0,8.13,0,12.17,0,.79-.22,1.79-.67,2.61-.78.79-.06,1.82.18,2.61.08,5.8-1,10.37-11.93,16.52-9.59,3.63,2.49,6.17,6.49,11.3,5.1,2.89-.85,5.24-2.99,7.82-4.44,1.02-.59,2.39-.9,3.48-1.33,4.38-1.98,8.7-4.32,13.04-.77,3.28,2.53,4.95,6.62,7.82,9.53,1.51,1.49,2,2.48,4.35,2.21,12.17,0,24.35,0,36.52,0,.67-.25,1.44-1.45,1.74-2.06.74-1.19,1.77-2.77,2.61-3.89,2.39-3.18,6.03-7.16,10.43-5.72,3.14.5,6.48-.48,9.56.57,2.81.83,5.25,2.7,7.82,4.02,1.05.52,2.41.83,3.48,1.31,2.27,1.01,4.55,2.3,6.96,2.98,2.51.75,5.23.66,7.82.71,2.02.06,4.05.99,6.09.47"/><path class="b" d="M8.62,86.22c4.04,0,8.13,0,12.17,0,1.08-.41,2.29-1.09,3.48-1.02,3.26.57,5.72-2.43,7.82-4.46,2.49-2.37,4.97-5.89,8.69-6.07,2.24.1,3.66,2.23,5.22,3.56,3.41,3.18,7.15,4,11.3,1.64,1.41-.74,2.91-1.69,4.35-2.37,1.35-.62,3.02-.82,4.35-1.49,3.9-1.94,8.18-4.32,12.17-1.13,3.97,3.03,5.56,8.33,9.56,11.35h39.12c1.15-.76,1.86-2.61,2.61-3.72,1.01-1.64,2.27-3.55,3.48-5.05,2.74-3.25,5.25-5.44,9.56-3.44,1.96.48,4.1.46,6.09.78,3.44.48,6.53,2.3,9.56,3.88,1.6.84,3.53,1.19,5.22,1.82,2.51.91,5.16,1.77,7.82,2.08,2.28.29,4.71.24,6.96.76,1.7.48,3.41,1.41,5.22,1.48"/><path class="b" d="M8.62,85.21h12.17c.98-.71,2.24-1.44,3.48-1.44.81.14,1.87-.03,2.61-.38,5.04-2.19,10.41-14.25,16.52-9.26,4.88,5.29,8.58,8.27,15.65,4.38,1.06-.52,2.34-1.14,3.48-1.47.78-.18,1.86-.34,2.61-.62,2.35-.91,4.53-2.48,6.96-3.2,7.82-2.11,10.25,7.78,14.78,11.96,13.32.1,26.67,0,39.99.03,1.17-.79,1.87-2.69,2.61-3.83,1.27-2.16,2.75-4.53,4.35-6.46,2.7-3.07,4.87-4.6,8.69-2.19,3.06,1.21,6.48,1.39,9.56,2.54,3.21,1.08,6.21,2.98,9.56,3.6,2.26.54,4.64,1.05,6.96,1.31,2.58.31,5.28.31,7.82.87,2.51.48,4.55,2.32,6.96,3.09"/><path class="b" d="M8.62,84.21c2.58,0,5.25,0,7.82,0,1.39-.1,3.05.28,4.35-.32.95-.81,2.2-1.67,3.48-1.74,1.2.18,2.52-.34,3.48-1.03,4.09-2.8,7.06-9.13,12.17-9.92,2.75-.11,4.35,2.59,6.09,4.29,2.69,2.86,6.48,4.9,10.43,3.51,1.73-.52,3.49-1.4,5.22-1.94,1.72-.41,3.66-.5,5.22-1.47,3.12-1.69,6.84-4.37,10.43-2.4,4.16,2.33,5.64,7.37,8.69,10.77,1.62.53,3.53.15,5.22.26,3.16,0,6.4,0,9.56,0,8.69,0,17.4,0,26.08,0,.68-.28,1.45-1.58,1.74-2.22.44-.77,1.29-2.29,1.74-3.05,2.06-3.12,4.56-8.34,8.69-8.73,1.3.03,2.43,1.06,3.48,1.7,1.03.6,2.34,1.15,3.48,1.51,2.56.8,5.28,1.43,7.82,2.3,2.27.74,4.6,1.7,6.96,2.16,5.71,1.29,12.03-.64,17.39,2.16,1.78,1.04,3.41,2.6,5.22,3.62"/><path class="b" d="M8.62,83.21h11.3c4.41-4.78,4.73-1.21,8.69-4.75,3.98-3.26,9.11-12.69,14.78-7.09,4.52,5.41,8.27,9.17,15.65,6.08,1.07-.38,2.35-.81,3.48-.98.78-.06,1.86-.08,2.61-.33,2.44-.85,4.56-2.64,6.96-3.6,4.1-1.83,7.45,1.11,9.56,4.42,1.4,1.97,2.35,4.8,4.35,6.25,8.98,0,17.98,0,26.95,0,3.16,0,6.4,0,9.56,0,1.09,0,2.39,0,3.48,0,.48.1,1.34-.13,1.74-.41,2.32-3.67,6.49-13.44,11.3-13.41,1.36.15,2.45,1.38,3.48,2.16,1.28.95,2.86,1.78,4.35,2.33,4.51,1.53,9.25,2.53,13.91,3.44,5.19.73,10.67-1.98,15.65.4,2.75,1.17,4.49,3.91,6.96,5.48"/><path class="b" d="M8.62,82.21h10.43c.55-.24,1.39-1.07,1.74-1.55.92-.97,2.11-2.1,3.48-2.32,1.65.11,3.18-.96,4.35-2.01,3.92-3.48,9.34-12.24,14.78-6.1,4.42,5.57,8.16,9.36,15.65,6.51,1.07-.34,2.36-.7,3.48-.8,1.47.11,3.07-.15,4.35-.91,2.25-1.2,4.4-2.98,6.96-3.52,6.18-.83,8.37,6.65,11.3,10.66,14.19.05,28.41.12,42.6-.03,2.3-3.48,6.59-13.57,11.3-13.15.97.2,1.97,1.07,2.61,1.79.98,1,2.27,2.05,3.48,2.77,4.17,2.51,9.21,2.66,13.91,3.22,3.24.73,6.45-.35,9.56-1.16,7.16-1.71,9.54,1.99,13.91,6.59h.87"/><path class="b" d="M8.62,81.2c3.45-.1,7.01.21,10.43-.14,5.41-7.8,5.17-2.47,10.43-7.8,3.15-2.96,7.38-8.96,12.17-5.64,1.71,1.25,2.94,3.3,4.35,4.84,4.35,4.91,7.93,5.19,13.91,3.17,1.36-.42,2.94-.47,4.35-.32,2.6-.3,4.7-2.27,6.96-3.44,4.59-2.72,7.97-.07,10.43,3.92,1.13,1.65,1.92,4.1,3.48,5.41h42.6c2.8-3.09,6.38-12.91,11.3-12.17,1,.3,1.99,1.32,2.61,2.12.97,1.13,2.25,2.36,3.48,3.21,3.76,2.77,8.61,2.54,13.04,2.4,1.09-.02,2.39.14,3.48.12,2.11-.2,4.13-1.25,6.09-1.99,6.68-2.87,10.29,1.09,13.91,6.22.43.06,1.3.1,1.74.08"/><path class="b" d="M8.62,80.2h9.56c1.25-1.28,2.27-3.17,3.48-4.48.67-.72,1.63-1.59,2.61-1.84.46,0,1.31-.19,1.74-.36,1.25-.57,2.49-1.65,3.48-2.58,3.15-3.04,7.71-8.24,12.17-4.32,1.66,1.39,2.91,3.51,4.35,5.11,3.9,4.5,7.57,5.05,13.04,3.12,1.06-.31,2.36-.6,3.48-.58,1.1.17,2.42.3,3.48-.17,2.41-1,4.49-2.9,6.96-3.78,5.99-2.01,8.92,5.35,11.3,9.49.99.63,2.37.33,3.48.39,1.39,0,2.95,0,4.35,0,4.91,0,9.87,0,14.78,0,4.62,0,9.29,0,13.91,0,1.69,0,3.52,0,5.22,0,.82.01,1.91.1,2.61-.44,2.15-2.91,6.81-12.95,11.3-9.82,2.23,2.25,4,5.25,6.96,6.69,4.07,2.31,8.71.49,13.04.34,6.02.53,10.2-7.35,16.52-2.46,1.3,1.03,2.55,2.57,3.48,3.93.96,1.74,1.56,1.84,3.48,1.74"/><path class="b" d="M8.62,79.2c2.29,0,4.67,0,6.96,0,.85.02,1.92.11,2.61-.5,1.02-1.67,2.24-3.67,3.48-5.19.66-.76,1.62-1.72,2.61-2.01,1.23-.05,2.52-.73,3.48-1.46,3.02-2.2,5.58-5.91,9.56-6.25,7.68.39,8,14.04,19.13,10.72,1.68-.49,3.46-1.22,5.22-1.38,1.11-.11,2.38.41,3.48.22,2.55-.59,4.61-2.54,6.96-3.6,6.32-3.08,9.78,4.92,12.17,9.37,14.76.24,29.57,0,44.34.08,2.65-2.65,6.66-11.94,11.3-8.39,2.01,2.19,3.52,5.12,6.09,6.79,3.43,2.56,7.59,1.38,11.3.22,1.36-.44,2.94-.44,4.35-.55.83-.19,1.88-.7,2.61-1.15,3.8-2.49,7.92-6.04,12.17-2.16,1.72,1.4,2.8,3.7,4.35,5.25h2.61"/><path class="b" d="M8.62,78.2h8.69c7.74-13.41,4.65-5.88,12.17-11.97,8.45-7.57,11.06-2.83,16.52,4.4,3.69,4.26,7.31,4.15,12.17,2.02,1.34-.51,2.9-1.02,4.35-.9.77.14,1.81.45,2.61.33,2.55-.51,4.61-2.44,6.96-3.45,6.38-2.96,9.72,5.13,12.17,9.57,15.06-.1,30.16.19,45.21-.11,2.15-2.49,5.64-8.76,9.56-6.82,2.52,1.39,3.94,7.17,6.96,6.93,4.32-.1,8.74.22,13.04-.14.76-.18,1.84-.16,2.61-.31,1.96-.63,3.61-2.19,5.22-3.42,6.06-5.12,9.51-1.84,13.04,3.87h3.48"/><path class="b" d="M8.62,77.19h7.82c1.49-1.45,2.36-3.87,3.48-5.6,1.13-1.78,2.33-4.11,4.35-5,1.59-.16,3.09-1.13,4.35-2.06,8.31-6.96,11.39-2.93,16.52,4.58,3.09,4.12,6.62,5.22,11.3,2.86,1.9-.84,3.94-2.02,6.09-1.84,1.08.28,2.37.63,3.48.24,2.43-.8,4.51-2.63,6.96-3.38,6.14-1.64,8.91,5.95,11.3,10.2,9.85,0,19.71,0,29.56,0,3.45,0,6.98,0,10.43,0,1.98-.09,4.14.21,6.09-.18,5.09-5.86,7.92-7.74,12.17.12,6.36.16,12.77,0,19.13.06.43,0,1.31,0,1.74,0,1.32-.49,2.41-1.83,3.48-2.7,5.24-4.96,8.75-3.22,12.17,2.46,1.34.46,2.95.17,4.35.24"/><path class="b" d="M8.62,76.19c1.69,0,3.52,0,5.22,0,.81,0,1.89.09,2.61-.35,2.13-3.41,4.31-9.71,7.82-11.63,1.92-.25,3.64-1.49,5.22-2.53,7.79-5.84,11.56,1.09,15.65,7.03,2.84,3.81,6.25,4.73,10.43,2.31,8.68-5.19,6.04-.99,11.3-2.64,2.3-.96,4.44-2.68,6.96-3.05,5.74-.35,8.08,6.45,10.43,10.57.74.38,1.8.3,2.61.3,1.09,0,2.39,0,3.48,0,3.46,0,6.98,0,10.43,0,10.14,0,20.29,0,30.43,0,3.29-3.09,6.58-5.12,9.56-.38,1,.61,2.37.32,3.48.38,1.69,0,3.52,0,5.22,0,5.2,0,10.45,0,15.65,0,2.55-1.5,4.47-4.86,7.82-4.64,1.78.19,3.28,1.62,4.35,2.96.3.54,1.09,1.51,1.74,1.67,1.39,0,2.95,0,4.35,0"/><path class="b" d="M8.62,75.19h6.96c2.79-4.05,4.24-9.27,7.82-12.75.98-.69,2.44-.74,3.48-1.36,2.22-1.14,4.39-2.87,6.96-3.12,5.13-.11,7.9,5.4,10.43,9.08,2.6,4.1,6.01,5.97,10.43,3.07,1.71-1.03,3.41-2.39,5.22-3.25,3.38-1.57,4.06,1.18,7.82-.76,4.81-2.59,8.21-4.17,12.17.82,1.31,1.65,2.53,3.86,3.48,5.74.24.68,1.16,2.1,1.74,2.54,10.72,0,21.45,0,32.17,0,4.91,0,9.87,0,14.78,0,.52.09,1.34-.21,1.74-.54.72-.38,1.78-.71,2.61-.71.89.02,1.94.53,2.61,1.1,2.84.34,5.83.05,8.69.14,6.36,0,12.76,0,19.13,0,2.54-2.2,5.37-5.05,8.69-2.33.83.65,1.6,1.93,2.61,2.33,1.69,0,3.52,0,5.22,0"/><path class="b" d="M8.62,74.18h6.09c.66-.31,1.45-1.63,1.74-2.27,1.11-2.08,2.35-4.59,3.48-6.66,1.13-1.89,2.29-4.36,4.35-5.39.45-.07,1.31-.3,1.74-.45,2.79-1.1,5.52-3.38,8.69-2.8,3.6.84,5.84,4.32,7.82,7.17,1.64,2.44,3.13,5.64,6.09,6.68,3.39.93,6.22-1.99,8.69-3.87,5.86-4.7,4.95-.93,9.56-2.28,2.29-.83,4.47-2.4,6.96-2.61,6.16,0,8.58,7.83,11.3,12.22,1.34.47,2.95.17,4.35.25,1.99,0,4.1,0,6.09,0,6.36,0,12.76,0,19.13,0,17.96,0,35.94,0,53.9,0,1.6-1.47,3.96-2.84,6.09-1.64.84.43,1.63,1.51,2.61,1.64,1.99,0,4.1,0,6.09,0"/><path class="b" d="M8.62,73.18c1.99-.04,4.1.1,6.09-.08,2.17-3.55,3.97-7.6,6.09-11.18,1.44-2.29,2.38-3.81,5.22-4.24,2.77-1.02,5.62-3.03,8.69-2.15,6.79,2.15,8.7,12.78,13.91,14.15,3.18.52,5.67-2.28,7.82-4.2,7.08-6.82,5.42-1.64,11.3-3.82,2.19-.88,4.51-2.2,6.96-1.9,6.23,1.43,7.91,8.86,11.3,13.42,25.79,0,51.59,0,77.38,0,2.28,0,4.67,0,6.96,0,.79-.15,1.8-.61,2.61-.65.81,0,1.83.44,2.61.65,2.58,0,5.25,0,7.82,0"/><path class="b" d="M8.62,72.18h5.22c1.09-.87,1.92-2.67,2.61-3.85,1.39-2.55,2.84-5.47,4.35-7.96.88-1.33,1.95-3.05,3.48-3.69.8-.11,1.85-.37,2.61-.65,2.45-.95,5.19-2.18,7.82-1.22,3.54,1.39,5.77,4.91,7.82,7.93,1.43,2.11,2.72,4.91,5.22,5.93,3.68,1.04,6.4-2.79,8.69-5.07,7.03-7.73,5.33-2.04,12.17-4.65,7.06-3.14,10.5.93,13.91,6.67.76,1.35,1.82,3.22,2.61,4.55.23.53,1.12,1.8,1.74,2.01h96.5"/><path class="b" d="M8.62,71.18c1.69-.1,3.58.25,5.22-.24,2.27-3.25,4.09-7.05,6.09-10.47,1.55-2.46,2.82-5.07,6.09-5.17,3.07-.88,6.54-2.28,9.56-.48,2.97,1.71,5.05,4.75,6.96,7.52,1.55,2.19,3.02,5.55,6.09,5.69,3.51-.38,5.65-3.91,7.82-6.33,1.69-1.88,3.41-4.54,6.09-4.96.79.05,1.81.43,2.61.44,1.74,0,3.53-.66,5.22-.99,8.98-1.75,12.05,9.44,16.52,14.99,32.17-.01,64.33,0,96.5,0"/><path class="b" d="M8.62,70.17h4.35c2.96-3.05,4.64-7.34,6.96-10.86,1.58-2.38,2.88-4.81,6.09-4.72,4.25-.98,7.67-1.82,11.3,1.3,2,1.68,3.72,3.95,5.22,6.08,1.52,2.07,3.06,5.39,6.09,5.18,4.23-1.01,6.81-6.47,9.56-9.55,1.14-1.33,2.53-3,4.35-3.32.79,0,1.82.35,2.61.37,1.41.03,2.96-.29,4.35-.45,6.08-1.07,10.18,4.49,13.04,9.03,1.05,1.68,2.32,3.68,3.48,5.29.26.51,1.18,1.47,1.74,1.66,7.52,0,15.08,0,22.6,0,.44,0,1.3,0,1.74,0,1.28-.72,2.85-1.33,4.35-1.22,1.18.09,2.46.64,3.48,1.22,1.99,0,4.1,0,6.09,0,5.2,0,10.45,0,15.65,0,13.9,0,27.83,0,41.73,0"/><path class="b" d="M8.62,69.17c1.39-.09,3.03.25,4.35-.29,2.34-2.75,4.17-6.14,6.09-9.19,1.19-1.81,2.48-3.99,4.35-5.17,1.32-.54,2.96-.25,4.35-.57,5.78-1.2,9.48,1.1,13.04,5.46,2.25,2.23,4.1,7.44,7.82,6.83,5.67-2.04,7.97-10.86,13.04-13.98,1.05-.58,2.37-.09,3.48-.01,1.09.04,2.39-.05,3.48-.09,9.96-.46,13.13,11.14,19.13,16.94,6.94.21,13.92.01,20.87.08.43,0,1.31,0,1.74,0,.84-.32,1.82-1.06,2.61-1.48,3.37-1.82,5.84-.45,8.69,1.48h61.73"/><path class="b" d="M8.62,68.17h3.48c2.93-2.5,4.75-6.25,6.96-9.36,1.18-1.67,2.5-3.68,4.35-4.67,1.35-.43,2.95-.01,4.35-.21,6.13-.72,10.08,1.75,13.91,6.31,2.01,2.21,4.24,6.75,7.82,4.69,4.93-2.62,9.02-15.17,13.91-15.1,2.86.52,5.96-.03,8.69,1.16,7.58,3.37,10.02,12.54,16.52,17.17,6.94-.05,13.93.09,20.87-.05,4.88-4.09,8.28-4.75,13.04-.04,20.27.26,40.58,0,60.86.09"/><path class="b" d="M8.62,67.17c1.1-.04,2.42.14,3.48-.21,2.38-2.17,4.22-5.07,6.09-7.66,1.62-2.04,3.26-5.09,6.09-5.45,1.39.23,2.94.32,4.35.35,12.72-.05,14.15,10.7,19.13,10.41,5.93-1.54,8.88-12.55,13.91-16.12,1.01-.69,2.34-.46,3.48-.35,1.72.09,3.58.24,5.22.81,8.66,3.24,11.03,14.16,19.13,18.12,2.27.25,4.67.05,6.96.11,2.58,0,5.25,0,7.82,0,1.39-.1,3.05.28,4.35-.32,2.32-1.73,4.76-4.02,7.82-4.08,1.57,0,3.15.82,4.35,1.79,1.08.82,2.09,2.31,3.48,2.62,1.69,0,3.52,0,5.22,0,17.96,0,35.94,0,53.9,0"/><path class="b" d="M8.62,66.16c2.97.12,3.23.01,5.22-2.15,2.7-2.9,4.76-6.57,7.82-9.13.73-.52,1.7-1.01,2.61-.94.46.1,1.28.29,1.74.38,1.69.3,3.52.43,5.22.67,11.48,1.45,12.46,10.49,17.39,8.43,4.48-2.63,6.62-8.26,9.56-12.36,1.33-1.79,2.79-4.39,5.22-4.67,3.37.04,6.9.63,9.56,2.85,3.07,2.41,5.45,5.74,7.82,8.8,2.13,2.74,4.5,5.73,7.82,7.03,3.93,1.7,8.2-.8,12.17.36.43.19,1.3.56,1.74.74.77,0,1.84,0,2.61,0,.43.01,1.31-.02,1.74-.07.45-.26,1.32-.83,1.74-1.14,1.64-1.2,3.36-2.61,5.22-3.46,2.3-1.14,5.08-.53,6.96,1.15,4.63,4.45,3.28,3.42,9.56,3.52,4.62,0,9.29,0,13.91,0,13.04,0,26.09,0,39.12,0"/><path class="b" d="M8.62,65.16h2.61c4.36-2.58,7.49-9.8,12.17-10.99,1.44,0,2.92.79,4.35.98,2.58.52,5.29.8,7.82,1.51,2.49.68,4.93,1.91,6.96,3.51,1.48,1.21,3.08,3.1,5.22,2.58,4.66-1.64,7.61-8.85,10.43-12.74,1.17-1.67,2.48-3.7,4.35-4.65,3.68-.81,7.67.59,10.43,3.08,2.63,2.31,4.81,5.28,6.96,8.03,2.11,2.69,4.45,5.7,7.82,6.82,4.81,1.78,10.4-2.35,14.78,1.04,4,2.41,8.28-3.87,12.17-4.87,3.02-1.12,5.92.91,7.82,3.12,1.02.87,2.09,2.34,3.48,2.57,19.12,0,38.26,0,57.38,0"/><path class="b" d="M8.62,64.16c.77,0,1.83,0,2.61-.01,2.3-1.46,4.2-3.68,6.09-5.62,1.98-1.97,4.76-5.18,7.82-3.55,4.4,1.92,9.36,1.82,13.91,3.21,1.5.47,3.07,1.25,4.35,2.17,1.17,1.01,2.76,1.93,4.35,1.47,4.98-1.89,8.08-9.68,11.3-13.82,1.94-2.66,3.42-4.27,6.96-3.73,10.22,1.15,13.51,17.16,22.6,17.78,5.88.18,9.17-3.19,14.78.82,2.18.71,4.35-.78,6.09-1.94,3.46-2.51,7.47-5.07,11.3-1.62,1.67,1.59,3.33,3.5,5.22,4.85h57.38"/><path class="b" d="M8.62,63.16c2.9.13,3.05-.03,5.22-1.86,2.27-1.93,4.33-4.35,6.96-5.81,1.04-.54,2.36-.78,3.48-.35,1.36.69,2.89,1.41,4.35,1.85,3.35,1.1,6.97.96,10.43,1.39,1.13.16,2.43.49,3.48.95,1.11.5,2.25,1.45,3.48,1.66,5.78.6,10.41-10.73,13.91-14.58,1.9-2.48,3.88-3.26,6.96-2.66,7.3,1.98,10.4,9.98,15.65,14.73,3.55,3.41,8,1.88,12.17.82,1.97-.46,4.2-.56,6.09.29,1.12.51,2.22,1.58,3.48,1.74,3.67.13,6.34-3.14,9.56-4.43,2.83-1.38,5.81-.44,7.82,1.86,1.29,1.44,2.84,2.96,4.35,4.17,1.64.47,3.53.13,5.22.23,4.62,0,9.29,0,13.91,0,12.75,0,25.51,0,38.25,0"/><path class="b" d="M8.62,62.15c1.11-.05,2.44.19,3.48-.29,2.98-1.89,5.4-4.83,8.69-6.22,4.5-1.71,5.65,4.39,16.52,3.03,1.69-.14,3.56-.25,5.22.19.82.23,1.81.78,2.61,1.06,6.01,1.53,10.64-8.73,13.91-12.6,1.78-2.38,3.73-4.43,6.96-4.05,5.05.57,8.27,5.22,11.3,8.82,5.31,6.59,6.98,9.07,15.65,5.84,1.92-.6,4.08-1.04,6.09-.6,4.34,1.21,4.38,4.09,9.56,1.29,3.35-1.89,7.48-5.21,11.3-2.56,2.49,1.72,4.11,4.92,6.96,6.1,5.78,0,11.61,0,17.39,0,13.04,0,26.09,0,39.12,0"/><path class="b" d="M8.62,61.15h3.48c3.52-1.87,6.91-6.33,11.3-5.17,1.77.82,3.37,2.24,5.22,2.93,3.04,1.35,6.46.89,9.56.04,2.5-.69,4.53-.79,6.96.17,6.19,1.04,10.44-7.74,13.91-11.74,5.5-7.69,11.74-3.4,16.52,2.38,2.68,2.88,4.91,6.83,8.69,8.35,2.34.66,4.78-.36,6.96-1.17,3-1.22,6.56-2.07,9.56-.43,1.35.75,2.7,2.01,4.35,1.95,5.07-.3,9.59-6.79,14.78-3.38,2.5,1.7,4.07,5,6.96,6.08,5.78,0,11.61,0,17.39,0,13.04,0,26.09,0,39.12,0"/><path class="b" d="M8.62,60.15c1.4-.03,2.96.09,4.35-.1,2.92-1.65,5.97-4.5,9.56-3.77,1.94.56,3.43,2.29,5.22,3.18,1.01.66,2.31.78,3.48.7,1.09,0,2.39,0,3.48,0,3,.02,5.61-2.5,8.69-2.18,8.26,2.39,12.4-7.57,17.39-12.25,8.32-7.64,15.13,5.61,20.87,10.21,5.17,4.3,10.54-3,16.52-1.59,3.9.74,5.11,4.26,9.56,2.48,3.82-1.44,8.07-5.27,12.17-2.53,2.19,1.66,3.83,4.16,6.09,5.77,19.11.25,38.26,0,57.38.09"/><path class="b" d="M8.62,59.14c1.69-.03,3.53.08,5.22-.07,4.76-2.71,7.73-4.12,12.17.07,2.87,0,5.82,0,8.69,0,1.4-.03,2.96.08,4.35-.09.46-.25,1.27-.7,1.74-.92,1.32-.69,2.89-.84,4.35-.59,1.44.09,3.03-.19,4.35-.78,5.8-2.64,8.45-9.32,13.91-12.36,9.12-3.53,13.91,10.36,20.87,11.99,2.14.18,4.19-.92,6.09-1.76,2.14-.99,4.57-1.85,6.96-1.5,2.27.27,4.18,1.74,6.09,2.86,4.64,1.78,8.53-3.04,13.04-3.25,4.43-.36,6.08,4.79,9.56,6.41,2.28,0,4.67,0,6.96,0,16.8,0,33.62,0,50.43,0"/><path class="b" d="M8.62,58.14c1.99,0,4.1,0,6.09,0,1.68-.53,3.41-1.43,5.22-1.41,1.56-.08,2.99.8,4.35,1.41,4.62,0,9.29,0,13.91,0,.78,0,1.84.04,2.61-.12,1-.62,2.28-1.21,3.48-1.16,8.49.66,12.28-7.04,18.26-11.35,8.8-4.99,13.88,7.04,20.87,9.87,6.6.92,9.74-7.29,19.13-.53,1.78,1.22,4.16,1.05,6.09.27,3.86-1.55,8.43-4.68,12.17-1.18,1.4,1.33,2.68,3.16,4.35,4.19h58.25"/><path class="b" d="M8.62,57.14c3.46-.07,7,.21,10.43-.23,4.31.42,8.71.16,13.04.23,3.16,0,6.4,0,9.56,0,2.16-1.05,4.67-.77,6.96-1.3,6.14-1.29,9.58-7.21,14.78-10.13,8.34-3.88,13.22,6.33,20,8.84,1.77.38,3.62-.4,5.22-1.1,5.44-2.71,8.93-2.44,13.91,1.07,1.8,1.16,4.15,1.01,6.09.27,3.84-1.47,8.49-4.57,12.17-1.1,1.11,1.05,2.22,2.56,3.48,3.46h59.12"/><path class="b" d="M8.62,56.14c7.81,0,15.66,0,23.47,0,4.92-.09,9.91.33,14.78-.49,7.56-.63,10.65-5.94,16.52-9.35,8.4-3.99,13.13,4.95,20,7.39,1.76.35,3.6-.38,5.22-1.01,5-2.24,8.52-1.72,13.04,1.28,1.98,1.52,4.69,1.62,6.96.7,3.55-1.26,7.61-4.19,11.3-1.79,1.27.82,2.3,2.34,3.48,3.27h59.99"/><path class="b" d="M8.62,55.13c11.3,0,22.61,0,33.91,0,3.2-.02,6.56.3,9.56-1.05,4.25-1.63,7.33-5.29,11.3-7.38,7.77-3.77,12.74,2.84,19.13,5.85,1.64.71,3.57.32,5.22-.18,5.72-2.04,8.87-1.22,13.91,1.95,1,.74,2.26.93,3.48.82,1.1,0,2.45.09,3.48-.39,5.54-2.29,9.08-5.18,13.91.39h60.86"/><path class="b" d="M8.62,54.13c10.72,0,21.45,0,32.17,0,3.46,0,6.98,0,10.43,0,4.66-1.24,7.94-5.25,12.17-7.33,4.92-2.35,9.6-.83,13.91,2.01,1.93,1.17,3.92,2.56,6.09,3.24,1.99.47,4.12-.14,6.09-.45,1.99-.35,4.16-.3,6.09.34,1.47.48,3.01,1.3,4.35,2.06,2.56.29,5.25.05,7.82.13.77,0,1.84,0,2.61,0,.77-.36,1.83-.89,2.61-1.24,3.21-1.55,6.12-1.43,8.69,1.24h61.73"/><path class="b" d="M8.62,53.13c10.72,0,21.45,0,32.17,0,2.87,0,5.82,0,8.69,0,3.68.07,3.86.19,6.96-1.95,2.27-1.52,4.43-3.47,6.96-4.57,3.94-1.73,8.47-1.13,12.17.92,3.35,1.58,6.53,4.44,10.43,4.23,1.69-.07,3.52-.32,5.22-.22,2.11.02,4.11,1.02,6.09,1.59,1.99,0,4.1,0,6.09,0,2.87,0,5.82,0,8.69,0,2.89-1.34,5.98-2.38,8.69,0h62.6"/><path class="b" d="M8.62,52.13c10.43,0,20.87,0,31.3,0,4.62,0,9.29,0,13.91,0,2.84-1.2,5.12-3.65,7.82-5.14,4-2.31,9-1.82,13.04.13,3.18,1.36,6.14,3.56,9.56,4.28,1.98.29,4.1.09,6.09.3,1.69.31,3.5.53,5.22.43,5.49,0,11.03,0,16.52,0,1.84.24,3.38-.92,5.22-.82.83.03,1.9.38,2.61.8,2.87.03,5.82,0,8.69.01,5.78,0,11.61,0,17.39,0,1.39,0,2.96,0,4.35,0,.79-.03,1.82-.41,2.61-.47.79-.05,1.87.17,2.61.47,9.27,0,18.56,0,27.82,0"/><path class="b" d="M8.62,51.12h46.08c2.57-1.75,4.97-3.99,7.82-5.29,6.06-2.29,12.03,1.52,17.39,4,1.07.48,2.34,1.03,3.48,1.29,2.29,0,4.67,0,6.96,0,5.49,0,11.03,0,16.52,0,3.47-.01,7,.15,10.43-.36,2.25.51,4.65.34,6.96.36,3.45,0,6.98,0,10.43,0,3.45,0,6.98,0,10.43,0,1.39,0,2.95,0,4.35,0,.75-.32,1.8-.74,2.61-.89,1.11-.2,2.45,0,3.48.47.68.52,1.8.43,2.61.42,8.39,0,16.82,0,25.21,0"/><path class="b" d="M8.62,50.12c10.72,0,21.45,0,32.17,0,3.16,0,6.4,0,9.56,0,1.09,0,2.38,0,3.48,0,.55.1,1.3-.15,1.74-.47,2.17-1.68,4.36-3.67,6.96-4.67,6.27-1.72,11.76,3.24,17.39,5.14,15.07.01,30.15-.02,45.21,0,5.49,0,11.03,0,16.52,0,1.99,0,4.1,0,6.09,0,1.43-.38,2.84-1.36,4.35-1.48,1.12-.13,2.47.14,3.48.64.69.45,1.76.99,2.61.84,8.39,0,16.82,0,25.21,0"/><path class="b" d="M8.62,49.12c11.59,0,23.19,0,34.78,0,2.58,0,5.25,0,7.82,0,3.47-.05,3.43.53,6.09-1.93,1.77-1.42,3.77-3.04,6.09-3.36,4.91-.26,8.69,3.7,13.04,5.29,4.33,0,8.71,0,13.04,0,12.75,0,25.51,0,38.25,0,6.07,0,12.18,0,18.26,0,2-.68,3.89-2.1,6.09-2.12,1.14-.05,2.47.31,3.48.84.45.25,1.34.83,1.74,1.16.4.09,1.32.15,1.74.12,8.1,0,16.24,0,24.34,0"/><path class="b" d="M8.62,48.12h46.08c1.55-.9,2.85-2.5,4.35-3.49,5.32-4.28,9.46.4,13.91,3.36,3.72.33,7.56.04,11.3.13,6.65,0,13.34,0,20,0,10.14,0,20.29,0,30.43,0,1.99,0,4.1,0,6.09,0,1.44.02,3.06.14,4.35-.64,5.35-2.74,8.07-3.26,13.04.64h25.21"/><path class="b" d="M8.62,47.11h46.08c7.74-7.16,8.78-7.02,16.52,0,9.56,0,19.14,0,28.69,0,3.46,0,6.98,0,10.43,0,1.99-.05,4.12.17,6.09-.24,6.62.45,13.34.17,20,.24.83-.02,1.83-.52,2.61-.74,1.06-.34,2.39-.28,3.48-.47,2.35-.54,4.57-1.87,6.96-2.32,2.43-.52,5,.31,6.96,1.77.77.53,1.66,1.54,2.61,1.75,8.1,0,16.24,0,24.34,0"/><path class="b" d="M8.62,46.11h46.08c3.52-3.7,7.54-8.14,12.17-3.14.82.79,1.86,1.94,2.61,2.79.46.24,1.23.43,1.74.34,4.62,0,9.29,0,13.91,0,6.36,0,12.76,0,19.13,0,2.87,0,5.82,0,8.69,0,1.14.12,2.36-.53,3.48-.63,1.13-.11,2.45.17,3.48.63,2.58,0,5.25,0,7.82,0,1.99,0,4.1,0,6.09,0,1.2-.16,2.37-1.06,3.48-1.51,1.31-.61,2.89-1.09,4.35-1.13,2.06-.27,4.08-1.21,6.09-1.69,4.34-1.27,8.34,1.2,11.3,4.19,2.84.33,5.83.05,8.69.14,5.2,0,10.45,0,15.65,0"/><path class="b" d="M8.62,45.11c15.35-.09,30.74.17,46.08-.1,5.46-6.46,8.7-7.82,13.91-.21,1.6.61,3.53.18,5.22.3,2.87,0,5.82,0,8.69,0,8.39,0,16.82,0,25.21,0,1.69,0,3.52,0,5.22,0,2.47-1.39,5.34-1.55,7.82-.1,2.56.24,5.25.04,7.82.1,1.09-.03,2.41.1,3.48-.15.78-.41,1.84-1,2.61-1.43,2.14-1.2,4.47-2.47,6.96-2.66,2.02-.32,4.06-1.1,6.09-1.4,4.81-.89,8.95,2.4,12.17,5.56,7.8.23,15.66.01,23.47.08"/><path class="b" d="M8.62,44.11c9.85,0,19.71,0,29.56,0,3.45,0,6.98,0,10.43,0,1.09,0,2.39,0,3.48,0,.79,0,1.87.08,2.61-.27,2.18-2.69,5.82-7.11,9.56-4.54.92.73,1.93,1.99,2.61,2.95.31.57,1.11,1.62,1.74,1.86h43.47c3.85-2.79,6.52-1.83,10.43,0,1.4,0,2.95,0,4.35,0,.79,0,1.86.07,2.61-.24,3.29-1.38,6.23-3.66,9.56-4.95,1.35-.52,2.96-.67,4.35-1.02,3.11-.83,6.56-1.27,9.56.16,1.88.84,3.66,2.18,5.22,3.51,1.09.78,2.1,2.3,3.48,2.54,7.23,0,14.5,0,21.74,0"/><path class="b" d="M8.62,43.1c11.59,0,23.19,0,34.78,0,3.45,0,6.98,0,10.43,0,.63-.15,1.41-1.02,1.74-1.54.7-.85,1.75-1.96,2.61-2.66,4.9-3.75,6.93.6,9.56,4.19h43.47c2.06-1.94,5.04-3.05,7.82-2.13,4.36,1.66,5.77,2.63,10.43.57,2.98-1.36,5.72-3.36,8.69-4.72,1.32-.63,2.91-1.02,4.35-1.29,1.96-.44,4.07-.86,6.09-.7,5.65.46,9.61,5.09,13.91,8.26,6.94.04,13.92,0,20.87.01"/><path class="b" d="M8.62,42.1h45.21c1.39-.77,2.26-2.57,3.48-3.57,4.41-4.15,7.36-1.09,9.56,3.28.75.38,1.8.3,2.61.29,1.09,0,2.39,0,3.48,0,3.16,0,6.4,0,9.56,0,9.27,0,18.56,0,27.82,0,7.63-7.41,10.01.71,17.39-2.13,3.68-1.38,6.88-3.89,10.43-5.52,4.6-1.93,10.19-2.94,14.78-.48,4.08,2.04,7.24,5.62,11.3,7.67.69.48,1.8.49,2.61.46,1.39,0,2.95,0,4.35,0,4.04,0,8.13,0,12.17,0"/><path class="b" d="M8.62,41.1h45.21c.57-.29,1.4-1.22,1.74-1.74.94-1.13,2.17-2.4,3.48-3.09,4.33-1.95,5.67,2.17,7.82,4.84h42.6c2.98-2.74,5.22-4.84,9.56-3.6,1.68.45,3.44,1.24,5.22,1.1,3.51-.29,6.59-2.37,9.56-4.06,6.48-4.06,14.02-6.31,20.87-1.71,3.72,2.26,6.97,5.58,11.3,6.65,3.09.86,6.39.8,9.56,1.07,1.1.1,2.4.31,3.48.56,1.39,0,2.96,0,4.35,0"/><path class="b" d="M8.62,40.09h45.21c1.62-1.06,2.64-3.14,4.35-4.14,3.63-2.43,6.39.8,7.82,3.96,1.37.34,2.95.12,4.35.18,1.99,0,4.09,0,6.09,0,6.36,0,12.76,0,19.13,0,2.87,0,5.82,0,8.69,0,1.09,0,2.39,0,3.48,0,.52.1,1.32-.15,1.74-.45,1.35-1.68,3.09-3.4,5.22-4.01,7.9-1.14,6.07,4.52,18.26-2.76,5.15-3.06,11.3-6.11,17.39-4.21,5.14,1.43,8.86,5.83,13.91,7.39,3.66,1.04,7.58.78,11.3,1.42,2.66.29,5.11,1.93,7.82,1.71"/><path class="b" d="M8.62,39.09c11.59,0,23.19,0,34.78,0,2.28,0,4.67,0,6.96,0,1.39-.12,3.17.37,4.35-.46,2.06-2.76,5.47-5.69,8.69-2.75.91.84,1.63,2.43,2.61,3.21h42.6c2-2.81,4.91-5.88,8.69-5.3,1.72.21,3.48.91,5.22,1.03,2.43.08,4.82-.95,6.96-2.02,6.16-3.19,12.69-7.93,20-6.38,3.12.67,5.99,2.33,8.69,3.97,1.87,1.16,3.88,2.41,6.09,2.8,3.42.65,7.02.38,10.43,1.1,3,.42,5.65,2.39,8.69,2.51"/><path class="b" d="M8.62,38.09c9.85,0,19.71,0,29.56,0,3.45,0,6.98,0,10.43,0,1.98-.09,4.13.21,6.09-.18,3.52-4.45,7.29-4.94,10.43.18,10.43,0,20.87,0,31.3,0,2.87,0,5.82,0,8.69,0,3.71.15,3.03-.11,5.22-2.76,1.14-1.27,2.66-2.53,4.35-2.95,2.62-.68,5.22.75,7.82.79,3.79-.13,7.16-2.31,10.43-3.99,4.33-2.25,8.92-4.71,13.91-4.84,3.34-.06,6.62,1.15,9.56,2.64,2.27,1.08,4.46,2.68,6.96,3.18,3.72.66,7.64.15,11.3,1.2,3.01.65,5.62,2.7,8.69,3.09"/><path class="b" d="M8.62,37.09h46.08c1.1-.76,2.21-1.94,3.48-2.44,2.32-1,4.76.57,6.09,2.44h43.47c2.23-2.41,4.15-5.97,7.82-6.25,1.73-.15,3.53.44,5.22.75,2.04.36,4.2-.2,6.09-.95,6.57-2.76,12.75-7.12,20-7.84,3.26-.27,6.57.55,9.56,1.8,2.3.87,4.49,2.38,6.96,2.75,4.05.47,8.31-.03,12.17,1.55,2.65.92,5.03,2.75,7.82,3.27"/><path class="b" d="M8.62,36.08h46.95c1.49-1.03,3.38-2,5.22-1.33.84.3,1.75,1.07,2.61,1.33,1.69,0,3.52,0,5.22,0,13.04,0,26.09,0,39.12,0,2.73-3.59,5.26-7.47,10.43-6.2,2.26.6,4.7.89,6.96.11,3.01-.92,5.85-2.48,8.69-3.79,3.91-1.78,7.97-3.54,12.17-4.5,3.74-.83,7.71-.46,11.3.83,2,.65,3.97,1.83,6.09,2.08,2.27.28,4.68.13,6.96.42,2.07.25,4.2.91,6.09,1.79,2.28,1.06,4.47,2.62,6.96,3.2"/><path class="b" d="M8.62,34.81c1.61.56,3.53.16,5.22.28,2.58,0,5.25,0,7.82,0,7.52,0,15.08,0,22.6,0,21.15-.01,42.31,0,63.47,0,2.92-3.53,5.12-7.32,10.43-6.08,1.96.49,4.09.84,6.09.3,5.13-1.37,9.77-4.2,14.78-5.94,5.79-2.18,11.99-4.91,18.26-3.21,1.75.38,3.47,1.3,5.22,1.69,4.05.63,8.36.26,12.17,2.06,2.96,1.19,5.57,3.33,8.69,4.13"/><path class="b" d="M8.62,32.94l.87,1c4.01.35,8.14.04,12.17.14,7.52,0,15.08,0,22.6,0,21.15,0,42.31,0,63.47,0,1.06-.56,1.81-2.05,2.61-2.9,1.69-2.01,4.27-3.46,6.96-3.03,1.4.17,2.93.6,4.35.62,1.12-.03,2.41-.28,3.48-.6,5.01-1.68,9.75-4.21,14.78-5.85,7.51-2.74,13.61-6.66,21.74-3.14,3.71.91,7.72.61,11.3,2.1,3.64,1.28,6.67,4.03,10.43,4.99"/><path class="b" d="M8.62,30.89c.48.49,1.35,1.56,1.74,2.12,18.83.18,37.68,0,56.51.06,8.98,0,17.98,0,26.95,0,4.9-.11,9.9.22,14.78-.14,6.65-9.53,9.39-2.75,17.39-6.17,3.76-1.52,7.45-3.37,11.3-4.65,4.18-1.26,8.15-3.18,12.17-4.83,3.27-1.28,7-2,10.43-.95,2.76,1.07,5.83,1.15,8.69,1.77,2.76.58,5.42,1.83,7.82,3.27,2.18,1.3,4.41,2.84,6.96,3.33"/><path class="b" d="M8.62,28.72c.91.88,1.94,2.28,2.61,3.35h97.37c4.15-4.08,5.04-5.52,11.3-5.04,3.1.1,5.97-1.54,8.69-2.82,4.39-2.34,9.24-3.64,13.91-5.28,4.03-1.6,7.87-3.94,12.17-4.77,2.66-.61,5.28.08,7.82.8,2.91.55,5.97.97,8.69,2.21,4.23,1.66,7.6,5.38,12.17,6.14"/><path class="b" d="M8.62,26.51c1.32,1.24,2.5,3.05,3.48,4.56,32.46,0,64.92.01,97.37,0,4.28-5.14,6.4-4.21,12.17-5.13,4.27-1.41,7.92-4.36,12.17-5.86,3.4-1.29,7.11-1.89,10.43-3.4,4.48-1.84,8.93-4.59,13.91-4.54,1.43.02,2.96.54,4.35.83,2.96.55,6.02,1.25,8.69,2.69,4.13,1.93,7.46,5.94,12.17,6.41"/><path class="b" d="M8.62,24.31c1.75,1.55,3.01,3.87,4.35,5.76,21.15,0,42.31,0,63.47,0,7.23,0,14.5,0,21.74,0,2.58,0,5.25,0,7.82,0,1.39-.07,3,.2,4.35-.22,4.34-4.63,7.31-3.25,12.17-5.39,3.53-1.89,6.7-4.57,10.43-6.07,3.33-1.41,7.07-1.74,10.43-3.06,4.61-1.61,8.99-4.29,13.91-4.87,1.73-.21,3.54.25,5.22.62,10.84,1.62,14.28,9.66,20.87,9.81"/></svg>