<?xml version="1.0" encoding="UTF-8"?><svg id="a" xmlns="http://www.w3.org/2000/svg" width="1920" height="2400" viewBox="0 0 192 240"><defs><style>.b{fill:none;stroke:#fff;stroke-miterlimit:10;stroke-width:.3px;}.c{stroke-width:0px;}</style></defs><rect class="c" width="192" height="240"/><path class="b" d="M8.41,228.82c3.66-1.18,6.75-3.83,10.46-4.9,7.24-2.23,11.4,2.15,17.43,4.8,4.16,1.6,7.27-2.65,9.59-5.46,6.45,1.29,12.89-.41,19.17-1.78,5.7-1.22,11.68-1.82,17.43-.63,4.27.83,8.32,2.63,12.2,4.54,3.81,1.82,7.85,3.97,12.2,3.66,3.34-.22,6.43-1.82,9.59-2.76,3.74-1.08,7.73-.35,11.33.91,2.52.82,5.15,1.89,7.84,1.88,4.1-.1,7.48-2.96,10.46-5.49l.87.05c2.29,2.07,4.53,5.2,7.84,5.44,5.94-.86,9.53-12.17,16.56-14.14,1.69-.69,3.57-.15,5.23.36,2.36.73,4.73,1.77,6.97,2.8"/><path class="b" d="M8.41,225.23c4.12-1.6,7.68-4.82,12.2-5.32,3.74-.52,7.36,1.13,10.46,3.06,1.88,1.09,3.87,2.53,6.1,2.65,3.13-.01,4.81-3.13,6.97-4.86,2.57.39,5.25.66,7.84.59,3.2-.13,6.43-.72,9.59-1.21,6.02-1.01,12.22-1.75,18.3-.89,4.48.59,8.84,2.02,13.07,3.55,4.18,1.49,8.56,3.07,13.07,2.78,3.56-.18,6.99-1.49,10.46-2.17,12.12-1.68,16.06,7.49,27.89-2.8l.87.13c2.08,1.82,4.18,4.18,6.97,4.82,4.69.56,8.94-7.57,12.2-10.47,5.04-5.67,12.71-4.7,19.17-2.34"/><path class="b" d="M8.41,221.36c1.78-.89,3.53-2.14,5.23-3.17,2.54-.66,5.23-1.08,7.84-1.31,1.69-.14,3.53-.19,5.23-.15,6.21,2.67,9.81,9.51,15.69,1.76,4.31.59,8.74.91,13.07.38,7.22-.75,14.52-1.71,21.79-1.01,9.12.62,17.82,4.51,27.02,4.27,4.39-.09,8.71-1.34,13.07-1.62,6.42-.45,12.89,3.15,19.17.8,1.48-.53,3.04-1.37,4.36-2.22.75-.48,1.72-1.3,2.61-1.5,2.33,1.82,4.72,4.37,7.84,4.55,5.58-.42,10.04-10.37,15.69-13.09,2.36-1.3,5.19-1.58,7.84-1.56,2.91-.11,5.91.13,8.72.94"/><path class="b" d="M8.41,217.54c5.72-1.26,11.55-2.43,17.43-2.41,1.4,0,2.96.03,4.36.11.91-.06,1.99.36,2.61,1.02,3.17,2.61,5.69,3.61,8.72.11,3.46.19,6.98.6,10.46.47,7.24-.43,14.53-1.08,21.79-.62,8.17.39,16.23,2.15,24.4,2.43,1.99.07,4.11.02,6.1-.09,2.3.03,4.73-.03,6.97-.57,4.34-.51,8.76-.36,13.07.27,6.61,1.06,11.75.19,17.43-3.46.98-.09,1.85.88,2.61,1.36,1.3.91,2.82,1.88,4.36,2.32,4.45,1.06,7.65-3.39,10.46-6.13,2.31-2.43,4.78-4.99,7.84-6.45,3.24-1.62,6.96-1.39,10.46-1.12,1.99.17,4.15-.42,6.1.02"/><path class="b" d="M8.41,214.83c7.49-1.1,15.07-2.16,22.66-1.66,1.09.05,2.4.13,3.49.21.53.05,1.37.54,1.74.9,1.78,1.32,3.64,1.13,5.23-.37,8.7.87,17.43-.27,26.15.07,8.42.22,16.84,1.19,25.28,1.24,4.05,0,8.15-.02,12.2-.1,2.29-.02,4.71.31,6.97-.14,1.64-.58,3.53-.34,5.23-.31,2.88.13,5.83.44,8.72.53,3.21.11,6.51-.25,9.59-1.2,1.11-.34,2.42-.82,3.49-1.28.75-.31,1.76-.93,2.61-.84,2.81,1.75,6.11,4.17,9.59,3.03,7.53-3.1,11.38-12.49,20.92-12.46,1.75-.02,3.52.67,5.23.96,1.97.34,4.11.38,6.1.25"/><path class="b" d="M8.41,211.64c7.53-.65,15.09-1.52,22.66-1.1,2.29.09,4.68.23,6.97.36.77.37,1.74.89,2.61.84.47-.1,1.31-.4,1.74-.6,1.1.05,2.39.1,3.49.14,2.29.07,4.68.09,6.97.04,11.33-.55,22.66.68,33.99.41,2.89-.07,5.84-.22,8.72.03,1.41-.02,2.96-.31,4.36-.44,1.7-.05,3.53-.09,5.23-.1,2.32-.18,4.68.36,6.97.54.79.02,1.84-.22,2.61-.36,2.58.11,5.26.28,7.84.34,5.59.19,11.24-.53,16.56-2.25.77-.23,1.8-.73,2.61-.45,1.07.59,2.37,1.28,3.49,1.76,6.46,3.27,11.63-2.77,16.56-6.1,3.24-2.27,7.32-4.12,11.33-3.08,1.46.39,2.92,1.3,4.36,1.78,1.92.67,4.07,1.03,6.1,1.09"/><path class="b" d="M8.41,208.21c7.82-.54,15.68-1.19,23.53-.73,3.43.28,7.13.01,10.46.81,2.84-.55,5.84-.06,8.72-.19,4.63-.1,9.31-.15,13.94.03,7.25.28,14.54.17,21.79-.29,1.75-.33,3.49.48,5.23.45,1.74,0,3.52-.63,5.23-.87,4.64-.08,9.32.12,13.94.43,1.07.3,2.38.57,3.49.32,1.09-.1,2.4.05,3.49.07,6.7.24,13.45-.34,20.05-1.56,1.09-.2,2.4-.45,3.49-.68.84.08,1.85.64,2.61.97,6.61,3.19,10.93-.14,16.56-3.39,3.62-2.09,8.13-3.73,12.2-1.98,1.46.62,2.89,1.71,4.36,2.32,1.89.83,4.05,1.32,6.1,1.52"/><path class="b" d="M8.41,204.6c5.21-.41,10.46-.89,15.69-.86,6.39,0,12.79.58,19.17.78.8.21,1.83.39,2.61.07,1.4.03,2.96.05,4.36.05,5.22-.1,10.47-.1,15.69.12,6.1.22,12.23-.18,18.3-.74.84-.24,1.82.33,2.61.53,1.07.27,2.39.33,3.49.17,2.05-.2,4.02-1.44,6.1-1.34,5.52,0,11.08.55,16.56,1.2,9.53.78,19.22-.44,28.76-1.09.77-.06,1.85-.16,2.61-.22.78.23,1.84.64,2.61.88,3.75,1.33,7.79.4,11.33-1.12,4.62-1.98,9.98-3.88,14.82-1.5,1.4.64,2.87,1.61,4.36,2.08,1.93.64,4.08.88,6.1.98"/><path class="b" d="M8.41,200.48c5.48-.7,11.04-1.13,16.56-.94,6.68.2,13.36,1.04,20.05,1.29.9-.11,1.72.55,2.61.53,2.22-.7,4.68-.31,6.97-.5,4.93-.15,9.89.42,14.82.5,4.06.08,8.17-.28,12.2-.77.83-.08,1.82.39,2.61.55,1.08.23,2.39.27,3.49.11,1.44-.22,2.99-.72,4.36-1.22.75-.31,1.79-.66,2.61-.59,6.41-.08,12.89.66,19.17,1.86,9.27.21,18.6-.49,27.89-.44,2.29-.01,4.68-.02,6.97-.04,1.69.19,3.51.66,5.23.52,1.72-.04,3.53-.56,5.23-.74,3.18-.14,6.44-.38,9.59-.86,2.37-.51,4.69.97,6.97,1.41,2.57.48,5.27-.04,7.84-.22"/><path class="b" d="M8.41,195.15c9.22-1.77,18.66-1.06,27.89.25,3.45.44,6.98.84,10.46,1.02.58-.02,1.35.47,1.74.85.45.26,1.23.58,1.74.61,1.24,0,2.5-.73,3.49-1.4,3.47-.35,7.02.14,10.46.57,5.18.76,10.48,1.16,15.69.47.8-.08,1.83.21,2.61.3,1.09.12,2.4.06,3.49-.12,2.05-.34,4.14-1.08,6.1-1.75,2.86-.33,5.84-.35,8.72-.2,3.19.18,6.43.67,9.59,1.19,1.06.39,2.33.93,3.49.94,2.57-.39,5.26.14,7.84,0,7.25-.13,14.54-.12,21.79-.03,8.41,0,16.86.12,25.28-.06,1.09-.02,2.4-.2,3.49-.12,1.08.17,2.4.28,3.49.12,2.62-.44,5.21-1.43,7.84-1.83"/><path class="b" d="M8.41,188.11c6.89-1.3,14.01-1.09,20.92,0,4.06.62,8.14,1.46,12.2,2.08,2.27.42,4.71.46,6.97.88,4.15,5.38,6.89,2.87,12.2,1.44,1.7-.43,3.55-.76,5.23-.12,4.26,1.09,8.65,2.14,13.07,2.02,1.7-.03,3.54.07,5.23-.23,1.72-.25,3.51-.8,5.23-1.02,4.59-.75,9.3-1.21,13.94-.86,1.1.1,2.42.14,3.49.47,1.94.68,3.99,1.74,6.1,1.63.45-.06,1.32-.29,1.74-.45.77.11,1.84.23,2.61.29,1.69.12,3.53.16,5.23.18,7.25,0,14.54.08,21.79-.1,3.17-.08,6.42-.22,9.59-.31,2.29.11,4.64.59,6.97.4,4.05-.3,8.15-.04,12.2,0,3.48.1,7-.35,10.46-.65"/><path class="b" d="M8.41,180.41c10.03-1.05,19.96,1.3,29.63,3.68,3.42.78,6.95,1.48,10.46,1.69,1.1-.18,2.03.82,2.61,1.61.44.45,1.25,1.3,1.74,1.68,3.17,2.71,7.53,1.72,11.33,1.59,3.76-.18,7.57.28,11.33.29,3.2-.25,6.4.14,9.59-.12,5.22-.44,10.44-1.46,15.69-1.43,2.59,0,5.27.2,7.84.53,1.09.3,2.35.83,3.49.98.78.1,1.84-.12,2.61-.17,1.69.17,3.53.21,5.23.21,6.38-.08,12.8.06,19.17-.05,4.93-.1,9.9-.55,14.82-.92,2.02-.19,4.08.66,6.1.71,3.74.25,7.6.37,11.33-.11,1.68-.29,3.53.32,5.23.32,2.29.12,4.69.01,6.97-.17"/><path class="b" d="M8.41,173.78c6.77.04,13.54,1.03,20.05,2.9,7.73,2.25,15.38,5.06,23.53,5.01,4.9,6.16,12.05,5.74,19.17,5.42,1.41-.09,2.97-.26,4.36-.47.79-.15,1.84-.32,2.61-.03,5.71,1.34,11.64.8,17.43.45,4.34-.26,8.74-.15,13.07.17,5.8.6,11.63-.24,17.43-.13,4.63.06,9.31.45,13.94.36,4.36-.07,8.75-.61,13.07-1.13,1.39-.15,2.96-.37,4.36-.41.76.13,1.84.28,2.61.36,2.87.29,5.87.34,8.72-.15,2.31-.02,4.68.7,6.97.99,2.56.38,5.26.43,7.84.19"/><path class="b" d="M8.41,169.24c6.49-.1,13.04.72,19.17,2.92,8.96,3.16,17.24,7.22,27.02,5.79,5.83,5.09,12.95,4.37,20.05,3.53,3.96,1.16,8.08,2.01,12.2,2.31,5.21.38,10.47.18,15.69.23,3.76,0,7.6.08,11.33-.49,1.1.15,2.36.62,3.49.47,1.79-.14,3.51-1.05,5.23-1.47,6.42-.12,12.76,1.48,19.17,1.49,6.14.06,12.2-1.44,18.3-1.88,3.47-.26,7.03-.09,10.46.51,4.29.82,8.69,1.89,13.07,1.1"/><path class="b" d="M8.41,165.77c2.88.04,5.84-.09,8.72.09,7.83.62,14.54,5.2,21.79,7.76,5.27,1.99,11.04,2.6,16.56,1.38,1.09-.13,2.39-.22,3.49-.17,1.62.7,3.48,1.18,5.23,1.39,1.69.2,3.53.2,5.23.06,3.76.79,7.54,1.83,11.33,2.51,8.31,1.51,16.86,1.72,25.27,1.11,1.71-.15,3.55-.4,5.23-.75,1.1-.17,2.36-.77,3.49-.61,5.44,4.13,11.55.7,17.43.04,13.38,3.53,16.04,1.49,28.76.27,3.48-.24,7.04.04,10.46.7,3.99.87,8.21,1.57,12.2.31"/><path class="b" d="M8.41,162.31c2.88.04,5.84-.08,8.72.06,8.03.95,14.29,6.89,21.79,9.43,4.14,1.51,8.68,2.21,13.07,1.65,3.43-.65,6.95-1.24,10.46-1.05,6.73.23,13.37,1.75,20.05,2.51,10.72,1.18,22.06,1.56,32.25-2.51,6.81,5.76,13.57,5.07,21.79,3.77.78-.11,1.83-.28,2.61-.35.44.12,1.3.36,1.74.46,1.96.47,4.08.77,6.1.81,4.96.06,9.87-1.18,14.82-1.35,4.09-.23,8.18.5,12.2,1.14,3.24.55,6.64-.02,9.59-1.44"/><path class="b" d="M8.41,158.84c2.58.06,5.27-.15,7.84.15,3.51.6,6.64,2.6,9.59,4.5,3.61,2.37,7.27,4.86,11.33,6.4,4.4,1.69,9.26,2.28,13.94,1.82,3.18-.41,6.37-1.27,9.59-1.43,8.13-.61,16.28.53,24.4.79,10.03.41,20.38-.33,29.63-4.51.95.04,1.85.93,2.61,1.4,1.62,1.09,3.45,2.14,5.23,2.95,4.6,2.12,9.77,2.93,14.82,2.69,2.3.01,4.69-.65,6.97-.55,6.04,1.43,12.21-.26,18.3-.27,8.29-.15,13.3,3.07,20.92-2.35"/><path class="b" d="M8.41,155.38c2.95-.06,6.07-.13,8.72,1.39,6.06,3.27,10.87,8.72,17.43,11.1,5.25,1.96,11.03,2.08,16.56,1.72,3.19-.29,6.4-1.03,9.59-1.36,20.15-2.17,35.24,1.42,54.91-7.36,7.7,4.64,16.17,8.68,25.28,9.24,2,.11,4.12,0,6.1-.3,2.87.3,5.83.47,8.72.22,4.63-.36,9.32-.32,13.94.06,5.75.6,9.73-1.52,13.94-5.23"/><path class="b" d="M8.41,151.91c6.77.31,11.91,7.54,17.43,10.94,5.6,3.99,11.73,3.99,18.3,3.81,3.17-.04,6.42.12,9.59-.04,4.35-.29,8.73-.93,13.07-1.35,14.93-1.52,30.35-1.57,44.45-7.33.78-.3,1.84-.73,2.61-1.05.75-.32,1.78-.82,2.61-.61,2.58,1.15,5.25,2.35,7.84,3.46,6.76,2.78,13.6,5.94,20.92,6.84,1.99.31,4.11-.17,6.1,0,4.63.28,9.31-.15,13.94.05,8.89.55,12.11-1.4,18.3-7.59"/><path class="b" d="M8.41,149.71c7.29,3.91,12.08,12.66,20.92,13.46,3.78.29,7.57-.65,11.33-.88,3.77-.31,7.6.05,11.33.55,4.61.68,9.33.35,13.94-.1,4.35-.43,8.74-.93,13.07-1.44,7.61-.91,15.26-1.95,22.66-3.98,2.92-.8,5.89-1.79,8.72-2.87,2-.7,4.02-1.78,6.1-2.26,7.03,2.25,14.05,4.63,20.92,7.34,3.95,1.48,7.98,3.15,12.2,3.63,2.58.13,5.26,0,7.84.09,14,.02,16.23.92,26.15-9.88"/><path class="b" d="M8.41,150.21c4.98,4.2,10.16,10.69,17.43,9.39,3.23-.53,6.38-1.73,9.59-2.37,4-.87,8.2-.84,12.2-.02,4.33.89,8.61,2.38,13.07,2.49,9.64.26,19.26-1.33,28.76-2.73,5.89-.98,11.78-2.28,17.43-4.22,2.02-.69,4.13-1.51,6.1-2.33,1.35-.47,2.89-1.57,4.36-1.14,5.53,1.23,11.15,2.31,16.56,4.01,2.38.92,4.61,2.46,6.97,3.45,3.8,1.78,8.01,2.74,12.2,2.91,3.16.24,6.42.07,9.59.09,3.88-.04,7.98-.47,11.33-2.6,3.75-2.32,6.41-6.08,9.59-9.06"/><path class="b" d="M8.41,152.17c9.47,8.11,13.82,2.07,23.53-.74,4.82-1.44,10.03-1.21,14.82.26,3.23.91,6.36,2.34,9.59,3.25,3.38.93,6.96,1.32,10.46,1.36,5.52.03,11.07-.56,16.56-1.16,6.13-.71,12.3-1.55,18.3-3.01,3.24-.79,6.5-1.81,9.59-3.05,1.71-.58,3.41-1.76,5.23-1.94.77.11,1.84.24,2.61.33,2.29.26,4.68.46,6.97.69,1.1.15,2.46.13,3.49.6,10.09,4.72,14.36,7.7,26.15,7.52,10.39.14,16.36.2,23.53-8.42,1.35-.45,2.95-.49,4.36-.41"/><path class="b" d="M8.41,152.5c4.02,1.18,7.91-1.09,11.33-2.96,2.78-1.54,5.67-3.1,8.72-4.05,3.63-1.16,7.58-1.43,11.33-.77,1.88.99,3.41,2.81,5.23,3.93,2.3,1.6,5.04,2.76,7.84,3,1.99.14,4.11.1,6.1.06,1.41.12,2.95.55,4.36.7,5.77.73,11.64.37,17.43.05,6.39-.4,12.84-.82,19.17-1.78,3.52-.55,7.09-1.33,10.46-2.51,1.11-.39,2.41-.9,3.49-1.38.7-.49,1.81-.41,2.61-.33,3.17.16,6.42-.02,9.59-.18,2.41.33,4.71,1.6,6.97,2.45,3.36,1.42,6.85,2.78,10.46,3.43,4.58.84,9.31.64,13.94.67,1.69,0,3.54,0,5.23-.07,1.7.09,3.56.11,5.23-.28,5.38-1.14,9.99-5.06,15.69-4.8"/><path class="b" d="M8.41,148.43c6.22-2.7,11.51-7.59,18.3-8.98,1.67-.38,3.51-.6,5.23-.62.86-.02,1.93-.05,2.61.54,4.21,3.09,7.97,7.22,13.07,8.85,4.78,1.4,9.9.7,14.82.72,2.29-.05,4.67.38,6.97.37,4.34.11,8.73,0,13.07-.07,7.25-.17,14.57-.11,21.79-.89,2.01-.23,4.13-.58,6.1-1.07,1.39-.41,2.89-.89,4.36-.65,2.59.08,5.28-.17,7.84-.55,1.09-.16,2.4-.39,3.49-.59,1.11.19,2.4.58,3.49.89,3.98,1.2,8.04,2.46,12.2,2.8,4.91.43,9.89-.11,14.82.03,3.46.04,7.03.41,10.46-.23,1.99.13,4.09.56,6.1.27,3.48-.46,6.93-1.56,10.46-1.68"/><path class="b" d="M8.41,141.71c6.04-3.88,12.65-7.63,20.05-7.52,4.52,1.87,8.18,5.33,12.2,8.02,5.99,4.36,12.22,3.58,19.17,3.58,6.09-.06,12.21.17,18.3.1,12.2.02,24.41-.03,36.61-.08,2.59,0,5.27-.07,7.84-.35,1.71-.07,3.53-.83,5.23-.53,3.15.47,6.39.95,9.59.95,3.18.02,6.42-.37,9.59-.65,3.16-.29,6.42-.41,9.59-.18,3.18.2,6.4.84,9.59.83,1.1-.02,2.42-.19,3.49-.48.77-.21,1.78-.78,2.61-.62,3.63,1.23,7.55,1.17,11.33,1.03"/><path class="b" d="M8.41,135.11c8.63-4.6,14.51-6.42,23.53-1.54,3.86,2.06,7.35,4.9,11.33,6.76,4.32,2.12,9.25,2.01,13.94,1.95,6.08.27,12.21.06,18.3.15,5.8.04,11.64-.15,17.43-.54,3.76-.17,7.57-.76,11.33-.66,4.08.05,8.14.96,12.2,1.17,3.17.06,6.42.03,9.59.02,1.7-.04,3.54.1,5.23-.18,7.56-.78,15-3.3,22.66-2.75,3.24.21,6.47,1.01,9.59,1.86,4.23,1.26,8.46,1.85,12.2-1.07,1.14.04,2.38.64,3.49.86,1.38.32,2.95.57,4.36.72"/><path class="b" d="M8.41,135.91c11.06-8.27,18.62-7.71,30.5-1.58,3.04,1.47,6.25,2.86,9.59,3.46,1.71.29,3.48,1,5.23,1.09,3.75.26,7.57-.28,11.33-.23,5.5.16,11.07.63,16.56.03,7.39-.75,14.36-3.93,21.79-4.45,10.49-.65,11.22,4.38,23.53,2.53,1.72.58,3.43,1.62,5.23,1.96,4.76,1.08,9.12-1.98,13.07-4.19,1.37-.72,2.83-1.79,4.36-2.14,2.61-.06,5.32.25,7.84.91,3,.77,5.92,2.09,8.72,3.4,2.45,1.1,5.09,2.44,7.84,2.23,1.19-.11,2.53-.66,3.49-1.39.78-.58,1.63-1.75,2.61-2,1.08.38,2.38.76,3.49,1.04"/><path class="b" d="M8.41,135.41c3.42-.67,6.42-2.73,9.59-4.08,6.78-3.27,13.87-2.88,20.92-.75,1.95.41,3.48,2.06,5.23,2.92,2.1,1.19,4.54,2.01,6.97,2.01,4.64-.2,9.28-1.36,13.94-.88,5.2.37,10.52,1.6,15.69.28,10.58-2.67,19.72-11.6,31.38-8.07,1.44.43,2.93,1.25,4.36,1.7,3.07.98,6.43.97,9.59.51,2.46,1.43,4.44,3.8,6.97,5.16,2.82,1.78,5.91,1.57,8.72-.11,3.01-1.71,5.76-4,8.72-5.8,1.62-.99,3.45-1.93,5.23-2.58,2.1.18,4.19,1.15,6.1,1.99,3.99,1.84,7.45,4.73,11.33,6.76,4.54,2.44,7.03.11,9.59-3.62l.87.27"/><path class="b" d="M8.41,130.33c4.27,2.95,8.69,1.41,13.07-.33,3.63-1.4,7.44-2.61,11.33-3.01,1.39-.15,2.96-.23,4.36-.23,2.35,1.35,4.39,3.47,6.97,4.45,2.46,1.1,5.29.95,7.84.27,13.92-4.45,20.35,4.29,30.5-1.47,4.47-2.5,8.51-5.82,13.07-8.16,5.04-2.59,10.98-3.64,16.56-2.5,1.74.37,3.49,1.2,5.23,1.57,2.54.59,5.26.64,7.84.38,4.43,3.06,9.63,12.62,15.69,10.34,4.26-1.82,7.42-5.54,11.33-7.94,2.37-1.54,5.07-2.77,7.84-3.35,1.2-.02,2.43.78,3.49,1.27,3.82,2,7.07,5.01,10.46,7.63,3.85,2.95,6.25,4.3,9.59-.26"/><path class="b" d="M8.41,122c11,11.24,15.38,5.28,27.89,1.79.95.26,1.85,1.24,2.61,1.81,1.03.79,2.3,1.65,3.49,2.18,4.67,2.28,9.32-1.17,13.94-1.83,5.7-1.06,11.02,1.89,16.56,2.58.78.07,1.83.03,2.61-.04,1.11.18,2.43.04,3.49-.33,6.21-2.47,9.66-9.04,15.69-11.83,3.73-1.96,8.05-2.43,12.2-2.44,3.19-.08,6.46.11,9.59.78,1.68.28,3.52.45,5.23.47,1.15.02,2.59-.21,3.49.68,2.67,2,4.81,4.79,6.97,7.3,2.37,2.65,5.59,6.72,9.59,5.04,2.97-1.33,5.33-3.83,7.84-5.84,2.82-2.35,6.03-4.46,9.59-5.45,1.65-.47,3.51-.75,5.23-.82,2.97,1.11,5.49,3.38,7.84,5.45,1.71,1.57,3.54,3.3,5.23,4.9,1.69,1.63,3.98,3.15,6.1,1.19"/><path class="b" d="M8.41,113.68c5.26,4.04,10.12,11.68,17.43,11.4,3.76-.39,7.13-2.44,10.46-4.08,1.99,1.25,3.77,3.14,6.1,3.79,4.9,1.37,9.17-2.74,13.94-3.08,3.26-.39,6.54.54,9.59,1.63,2.76.96,5.74,2.17,8.72,1.63.81-.37,1.79.09,2.61.14.82.02,1.88-.25,2.61-.6,6.11-3.3,9.02-11,15.69-13.43,3.36-1.07,6.99-.69,10.46-.75,4.63,0,9.32-.05,13.94.19,1.09.06,2.41-.07,3.49.17,2.05.73,3.79,2.39,5.23,3.98,3.47,3.43,8.18,12.93,13.94,9.78,5.17-3.03,9.04-8.18,14.82-10.24,2.74-1.06,5.78-1.51,8.72-1.42.77.03,1.85.11,2.61.22.45.25,1.34.85,1.74,1.18,2.16,1.71,4.25,3.78,6.1,5.82,1.93,1.88,3.92,5.41,6.97,5.03"/><path class="b" d="M8.41,107.41c7.4,2.87,11.47,12.23,19.17,14.14,3.2.49,6.16-1.44,8.72-3.11,1.31.15,2.32,1.53,3.49,2.07,4.05,2.61,8.3-.09,12.2-1.57,2.75-1.07,5.86-1.26,8.72-.55,4.86,1.02,9.78,4.75,14.82,2.52,7.49,4.11,12.3-11.86,20.05-13.82,2.26-.42,4.68-.19,6.97-.25,3.46,0,7,0,10.46,0,1.99,0,4.11,0,6.1,0,1.4.04,3-.14,4.36.31,6.48,2.77,8.61,10.96,14.82,14.11,4.36,1.83,9.51-4.59,13.07-6.75,6.21-4.68,14.52-5.56,21.79-3.03,2.32,1.81,4.19,4.36,6.1,6.57,1.18,1.34,2.59,2.98,4.36,3.51"/><path class="b" d="M8.41,103.39c8.52-.22,12.73,9.51,19.17,13.59,3.55,2.4,6.53.7,9.59-1.51,5.56,4.72,8.96,2.17,14.82.09,2.5-.84,5.28-.93,7.84-.34,5.14,1.12,10.55,4.83,15.69,1.7,3.24,2.21,5.35,1.19,7.84-1.42,3.93-3.97,6.6-10.03,12.2-11.89,1.67-.36,3.53-.15,5.23-.2,2.88,0,5.84,0,8.72,0,4.04.07,8.17-.15,12.2.12,6.49,1.96,9.2,10.32,14.82,13.8,4.44,2.71,8.66-1.98,12.2-4.22,9.15-6.73,17.77-6.04,27.89-2.04,2.44,2.05,4.05,5.28,6.97,6.78"/><path class="b" d="M8.41,99.92c1.99.06,4.15-.2,6.1.3,4.85,1.49,7.99,5.96,11.33,9.5,2.25,2.31,5.1,5.81,8.72,4.76,1.21-.35,2.31-1.41,3.49-1.82,5,3.68,8.74,1.42,13.94-.03,2.54-.67,5.3-.6,7.84-.02,5.76,1.38,10.07,3.75,15.69.16,3.41,3.23,5.95,1.95,8.72-1.18,3.36-3.68,5.92-8.53,10.46-10.92,1.31-.66,2.92-.77,4.36-.75,1.7,0,3.53,0,5.23,0,5.51.01,11.09-.14,16.56.52,5.23,2.52,7.93,8.23,12.2,11.93,3.49,3.23,6.65,2.74,10.46.36,7.85-5.09,13.98-7.95,23.53-5.64,4.11.93,8.07,2.63,12.2,3.47,1.3,1.3,2.7,2.85,4.36,3.7"/><path class="b" d="M8.41,96.46c1.7,0,3.53,0,5.23.03,1.43.01,3.03.06,4.36.65,4.83,2.11,7.8,6.87,11.33,10.56,3.12,3.29,5.53,4.94,9.59,1.82,4.43,2.83,8.38,1.44,13.07.51,2.57-.45,5.29-.29,7.84.17,4,.77,8.29,1.8,12.2.1,1.13-.35,2.27-1.37,3.49-1.37,3.17,3.12,5.69,2.96,8.72-.2,3.93-3.94,6.81-9.52,12.2-11.68,4.02-.58,8.16-.53,12.2-.37,2.64.07,5.29.68,7.84,1.28.77.15,1.83.28,2.61.34.53-.08,1.34.23,1.74.56,4.8,3.51,9.27,12.66,15.69,12.36,2.15-.23,4.21-1.34,6.1-2.32,2.5-1.33,5.12-2.7,7.84-3.52,10.7-3.47,20,3.57,30.5,4.05.72.54,1.76,1.2,2.61,1.51"/><path class="b" d="M8.41,93.6c4.66-.24,9.49-.09,13.94,1.42,2.33,1.57,4.28,3.87,6.1,5.99,2.27,2.47,4.39,5.92,7.84,6.74.84.09,1.9-.22,2.61-.64.41-.37,1.18-.72,1.74-.65.75.34,1.81.72,2.61.92,3.42.87,7,0,10.46-.09,8.4,0,12.86,2.04,20.92-2.61,2.27,1.84,4.82,4.27,7.84,2.39,5.06-2.92,9.74-12.6,15.69-12.43,4.06-.33,8.25-.1,12.2.94,3.2.82,6.19,2.72,9.59,2.64,3.36,2.61,5.74,6.59,9.59,8.63,3.75,2.19,7.87-.16,11.33-1.82,3.52-1.72,7.37-3.1,11.33-3.13,6.07-.14,11.69,2.59,17.43,4.16,2.53.69,5.22,1.13,7.84,1.25,2,.14,4.14-.09,6.1.43"/><path class="b" d="M8.41,91.84c6.45-1.19,13.33-.33,19.17,2.69,3.17,2.94,6.25,8.57,10.46,9.73.82.12,1.89-.14,2.61-.54.37-.33,1.25-.71,1.74-.73,4.15,1.62,8.71,1.29,13.07,1.31,6.61.23,12.31-.62,18.3-3.56,2.07,1.5,4.19,3.78,6.97,3.53,4.74-.86,8.93-7.27,13.07-10.01.92-.81,2.35-.57,3.49-.61,1.71.02,3.55.18,5.23.46,3.29.54,6.54,1.63,9.59,2.97,1.39.6,2.89,1.43,4.36,1.83,1.36.42,2.96.36,4.36.58,8.44,8.75,11.82,3.36,20.92.09,4.19-1.49,8.83-1.46,13.07-.19,4.12,1.16,8.03,3.17,12.2,4.17,5.41,1.28,11.06.5,16.56.74"/><path class="b" d="M8.41,90.93c6.19-2.14,13.1-1.78,19.17.57,1.11.42,2.41.99,3.49,1.5,3.55,3.17,7.67,10.92,13.07,6.43.81-.1,1.83.26,2.61.42,1.08.22,2.39.41,3.49.5,7.41.64,14.85-.76,21.79-3.34.94.2,1.85,1.11,2.61,1.64,1.02.72,2.3,1.48,3.49,1.88,5.37,1.73,10.55-5.01,14.82-7.59,5.11.07,10.09,1.83,14.82,3.64,4.18,1.63,8.47,3.64,13.07,3.2.87-.08,1.81.57,2.61.8,2.03.63,4.24,0,6.1-.87,6.63-3.45,12.22-7,20.05-4.97,5.74,1.33,10.67,5.23,16.56,6,3.19.4,6.42-.43,9.59-.66,1.36.43,2.9.95,4.36.72,1.09-.13,2.37-.64,3.49-.38"/><path class="b" d="M8.41,90.17c7.34-3.63,16.01-3.41,23.53-.43.43.16,1.31.5,1.74.67.94.55,1.87,1.72,2.61,2.49,3.52,3.72,6.59,6.37,11.33,2.56,7.29,1.49,14.73-.35,21.79-2.17,2.1.83,3.96,2.48,6.1,3.28,5.8,2.74,10.93-2.38,15.69-5.03,6.87,1.15,13.15,4.62,20.05,5.62,2.57.38,5.26.1,7.84.08,2.58.04,5.26.19,7.84.09,4.67-.15,9.01-2.22,13.07-4.35,1.96-1.01,4.05-2.06,6.1-2.86,1.46-.25,3.01.64,4.36,1.12,8.8,3.95,11.41,8.23,21.79,4.86,2.81,1.68,4.93,1.52,7.84.19,1.03-.68,2.39-.26,3.49-.01"/><path class="b" d="M8.41,88.79c9.27-5.13,18.12-4.97,27.89-1.41,2.43,1.7,4.27,4.39,6.97,5.75,2.89,1.72,6.14.11,8.72-1.43,1.03-.45,2.39-.26,3.49-.41,1.4-.12,2.97-.32,4.36-.54,5.45-.98,4.39-1.13,9.59,1.07,8.25,3.9,11.81,1.69,19.17-2.47,6.17,1.09,11.92,4.5,18.3,4.55,2.97.1,5.85-.95,8.72-1.5,2.86,1.98,5.8,1.86,8.72.09,5.85,1.45,9.88,2.23,15.69-.16,3.99-1.44,7.92-3.68,12.2-4.01,5.9,3.41,10.24,7.37,17.43,4.67,4.83,1.81,5.38.61,9.59-1.38,1.42.2,2.98.6,4.36.98"/><path class="b" d="M8.41,86.57c8.58-4.76,16.67-5.94,26.15-3.24,2.01.53,4.11,1.2,6.1,1.81,1.61,1.44,3.34,3.03,5.23,4.1,2.36,1.45,5.27,1.42,7.84.62,2.24-.63,4.64-1.13,6.97-1.09,2.62.02,5.28.6,7.84,1.1,5.36,1.27,9.96.31,14.82-2.14.76-.36,1.78-.92,2.61-1.07,1.41.34,2.97.78,4.36,1.2,5.32,1.64,11,3.62,16.56,1.93,1.11-.3,2.42-.74,3.49-1.16.75-.29,1.77-.84,2.61-.71,5.47,4.04,7.8,2.68,13.07-.53,11.95,4.89,12.7,3.06,24.4.24,1.97-.39,4.1-.6,6.1-.47,2.13,1.34,4.46,2.7,6.97,3.15,1.39.24,2.98.12,4.36-.19,1.7.23,3.58.58,5.23-.11.85-.33,1.9-1,2.61-1.56,2.55-.7,5.35.35,7.84.93"/><path class="b" d="M8.41,84.12c8.05-3.87,15.57-5.49,24.4-3.42,4.09.87,8.12,2.24,12.2,3.17,1.09.25,2.38.5,3.49.66,1.34.75,2.86,1.59,4.36,1.97,2.82.73,5.84.42,8.72.44,3.46-.03,7,.18,10.46-.14,2.02-.19,4.14-.58,6.1-1.11,1.1-.29,2.39-.71,3.49-1,.43.07,1.31.22,1.74.29,7.72,1.46,14.15,3.5,21.79.09,2.51-.98,2.56-1.82,5.23-.22,7.69,4.52,10.17.84,16.56-3.27,3.46,1.52,6.82,3.5,10.46,4.57,4.82,1.56,9.91.45,14.82.03,4.07-.39,8.2.09,12.2.78,2.66.11,5.51,0,7.84-1.45,3.53-1.77,7.75-.7,11.33.4"/><path class="b" d="M8.41,81.51c9.64-3.52,17.02-4.19,27.02-1.63,4.87,1.17,9.8,2.47,14.82,2.83,4.92.38,9.9-.09,14.82.21,3.47.04,6.99-.26,10.46.02,7.25.36,14.74,1.44,21.79-.87,1.1-.32,2.37-.89,3.49-1.14,2.02.38,4.12.96,6.1,1.52,2.23.61,4.64,1.32,6.97.98,5.05-1.06,8.71-5.25,13.07-7.73.51-.08,1.31.14,1.74.41,1.11.52,2.4,1.19,3.49,1.76,2.53,1.33,5.15,2.72,7.84,3.71,4.7,1.81,9.84,1.96,14.82,1.94,2.29,0,4.69.01,6.97-.12,1.4-.02,2.96.29,4.36-.06,7.49-1.98,9.35-4.27,17.43-1.08"/><path class="b" d="M8.41,78.75c12.12-2.86,18.6-1.86,30.5.37,5.74,1.02,11.62.96,17.43.9,6.67-.05,13.38.01,20.05-.33,2.59-.14,5.27-.38,7.84-.76,3.76-.02,7.58.15,11.33.42,5.19.3,10.61,1.47,15.69-.16,4.55-1.6,8.08-5.21,12.2-7.61,1.05-.64,2.36-1.33,3.49-1.82.84-.07,1.86.43,2.61.74,6.55,2.87,12.84,6.8,20.05,7.79,2.85.44,5.83.58,8.72.4,2.18.91,4.59,1.77,6.97,1.11,7.69-2.24,9.9-5.39,18.3-1.4"/><path class="b" d="M8.41,75.98c5.43-.91,11.07-.86,16.56-.52,6.08.45,12.19,1.45,18.3,1.01,3.18-.19,6.41-.67,9.59-.96,4.92-.4,9.9-.74,14.82-1.26.82-.21,1.83.22,2.61.42,1.38.36,2.95.68,4.36.91,4.3.69,8.72.93,13.07,1,8.93.08,18.52-.3,26.15-5.5,2.92-1.96,10.6-7.47,13.94-6.42,8.75,2.57,16.86,7.53,26.15,8.07,4.2,3.31,7.88,5.16,13.07,2.65,6.59-3.06,9.7-4.67,16.56-.86"/><path class="b" d="M8.41,73.01c8.94-.87,18.05.69,27.02-.11,5.01-.39,9.94-1.59,14.82-2.72,4.32-.95,8.75-1.69,13.07-2.62,6.44,4.01,11.36,6.25,19.17,5.4,8.59-1.08,17.18-3.02,25.28-6.12,4.5-1.69,8.46-4.67,13.07-6.08,1.65-.42,3.51-1.17,5.23-.84,5.95.93,11.65,3.06,17.43,4.65,1.68.48,3.53.86,5.23,1.27,2.28,1.77,4.54,3.78,6.97,5.35,6.61,4.62,11.18-.5,17.43-2.56,3.58-1.39,7.37.07,10.46,1.98"/><path class="b" d="M8.41,69.63c9.01.01,18.13.28,27.02-1.48,8.6-1.57,16.78-5.07,25.28-6.97,4.18,3.77,8.74,8.63,14.82,8.46,3.65-.2,7.09-1.77,10.46-3.06,3.7-1.48,7.5-2.87,11.33-3.98,4.33-1.28,8.78-2.34,13.07-3.71,3.96-1.22,7.98-3.16,12.2-3.03,7.05.53,14.03,2.04,20.92,3.58,3.39,2.09,6.39,4.88,9.59,7.23,5.04,3.81,8.5,3.73,13.94.72,6.39-3.38,10.03-4.97,16.56-.59"/><path class="b" d="M8.41,66.17c9.07-.19,18.18-1.13,27.02-3.21,7.74-1.8,15.22-4.6,22.66-7.35,1.34.73,2.42,2.25,3.49,3.31,1.61,1.74,3.35,3.63,5.23,5.09,4.24,3.46,7.95,2.24,12.2-.36,3.13-1.87,6.26-3.92,9.59-5.43,5.73-2.69,12.09-3.57,18.3-4.38,2-.27,4.11-.59,6.1-.96,1.39-.27,2.93-.62,4.36-.48,7.29.22,14.57,1.05,21.79,2.03,4.5,2.08,8.24,5.5,12.2,8.41,4.76,3.57,8.5,4.45,13.94,1.59,6.95-3.42,11.08-6.31,18.3-1.27"/><path class="b" d="M8.41,62.46c7.01-.72,13.99-2.01,20.92-3.27,9.27-1.65,18.4-4.21,27.02-8.04,4.22,3.1,7.5,10.85,13.07,11.56,3.85-.17,6.67-3.49,9.59-5.65,9.96-8.6,19.04-7.9,31.38-8.09,8.67.98,17.45,1.16,26.15,1.88,4.45,1.87,8.3,4.95,12.2,7.74,3.49,2.51,7.76,5.05,12.2,3.79,5.33-1.38,10.03-5.27,15.69-5.34,2.51.13,4.88,1.42,6.97,2.71"/><path class="b" d="M8.41,58.48c6.65-1.41,13.31-2.96,20.05-3.9,8.93-1.26,18.02-2.63,26.15-6.76,1.11.18,1.91,1.53,2.61,2.29,1.12,1.36,2.38,3.04,3.49,4.41,5.59,7.17,8.32,5.33,13.94-.4,3.04-3.06,6.35-6.18,10.46-7.71,6.11-2.17,12.8-1.63,19.17-1.45,3.24.2,6.39,1.46,9.59,1.95,4.59.77,9.3,1.07,13.94,1.17,2.29.07,4.68,0,6.97.1,4.33,1.85,8.24,4.63,12.2,7.13,6.04,3.88,10.54,5.23,17.43,2.35,3.94-1.45,7.92-3.5,12.2-3.57,2.48.11,4.85,1.31,6.97,2.52"/><path class="b" d="M8.41,54.21c6.49-2.08,13.23-3.53,20.05-3.92,8.58-.55,17.63-.68,25.28-5.12,3.33,3.01,6.05,9.37,10.46,10.58,2.56.17,4.47-2.17,6.1-3.83,9.37-11.09,12.09-11.11,26.15-10.92,8.23-.26,10.17,1.71,17.43,4.05,3.1.87,6.38,1.3,9.59,1.42,11.72.34,7.23-1.96,18.3,4.06,15.33,8.67,16.98,4.72,32.25,1.23,3.2,1.02,6.26,2.74,9.59,3.42"/><path class="b" d="M8.41,49.66c17.58-7.29,31.25,1.69,44.45-5.94,2.67,2.63,4.49,6.41,7.84,8.27,3.85,1.65,7.33-4.59,9.59-6.98,1.97-2.36,4.18-4.82,6.97-6.21,3.77-1.86,8.15-1.14,12.2-1.28,2.29,0,4.68,0,6.97,0,2.02-.03,4.18.03,6.1.71,3.37,1.11,6.4,3.18,9.59,4.71,2.97,1.44,6.3,2.21,9.59,2.43,2.29.16,4.69.09,6.97-.09,1.44-.14,3.03-.42,4.36.34,7.05,2.76,14.08,6.4,21.79,6.67,5.6.18,11.09-1.42,16.56-2.4,1.5-.06,2.93,1.04,4.36,1.41,2.48.89,5.24,1.25,7.84.81"/><path class="b" d="M8.41,44.87c12.96-5.44,23.04.92,35.73.59,1.73-.09,3.58-.38,5.23-.92,1.13-.27,2.29-1.25,3.49-1.13,6.25,8.09,8.36,6.43,13.94-.94,3-3.96,6.75-8.56,12.2-8.41,6.38.09,12.81-.2,19.17.13,3.94.51,7.25,3.05,10.46,5.2,4.35,3.22,9.37,5.06,14.82,4.98,1.09.01,2.4-.03,3.49-.11.79-.06,1.85-.24,2.61.06,13.85,4.16,23,5.54,37.48,3.69,1.09-.11,2.39-.31,3.49-.32,1.64.59,3.48,1.1,5.23,1.14,1.76.02,3.61-.49,5.23-1.15.78.08,1.85.35,2.61.53"/><path class="b" d="M8.41,39.89c8.16-3.15,16.55.08,24.4,2.56,6.43,1.84,13.68,3.04,20.05.4,3.24,3.44,5.7,3.24,8.72-.26,2.64-3.02,4.83-6.63,7.84-9.31,3.4-3.18,7.06-2.67,11.33-2.67,4.63.03,9.32-.06,13.94.04,7.35.54,11.71,7.67,18.3,10.08,1.69.53,3.47,1.3,5.23,1.59,1.98.4,4.13.35,6.1.8,9.48,1.72,19.14,2.28,28.76,2.28,5.21.01,10.48-.08,15.69-.27,1.4.08,2.95.41,4.36.19,3.4-1,6.99-.33,10.46-.02"/><path class="b" d="M8.41,34.79c10.96-2.93,19.9,6.54,30.5,7.04,3.75.19,7.57,0,11.33.09.79,0,1.84-.06,2.61-.18.51-.18,1.27-.12,1.74.12,3.13.34,5.18-2.91,6.97-4.99.91-1.31,2.34-2.53,3.49-3.62,5.7-5.44,9.74-6.4,17.43-6.12,10.09.06,12.38-1.19,20.05,6.53,3.21,3.13,6.72,6.58,11.33,7.3,8.07,1.12,16.28.92,24.4.95,15.1-.05,30.22.09,45.32-.06"/><path class="b" d="M8.41,30.36c10.69-1.25,17.46,8.88,27.02,8.03,4.92-.6,9.81-2.91,14.82-1.65.9.91,2.14,1.82,3.49,1.7.48-.14,1.26-.22,1.74-.17,4.16.97,7.63-2.24,10.46-4.83,4.76-4.63,9.61-8.78,16.56-9.17,1.69-.15,3.53-.19,5.23-.12,1.43.07,3.08.07,4.36.81,6.18,3.12,9.15,10.58,15.69,13.09,1.94.63,4.11.36,6.1.14,1.7-.15,3.53-.31,5.23-.44,2.28-.23,4.68.05,6.97-.07,3.17-.16,6.41-.31,9.59-.03,5.79.35,11.62.87,17.43.79,2.88-.03,5.84-.18,8.72-.32,1.69.2,3.53.43,5.23.27.78-.07,1.86-.27,2.61-.49,1.39-.12,2.96-.02,4.36.02,3.17.2,6.44.1,9.59-.37"/><path class="b" d="M8.41,27.93c8.58-.09,15.14,8.38,22.66,6.85,4.9-1.12,8.95-4.69,13.94-5.55,3.68,4.32,4.63,8.52,10.46,3.28,2.03,1.34,4.44,2.83,6.97,2.39,4.83-1.22,8.09-5.58,12.2-8.14,4.51-3.17,10.27-4.47,15.69-3.38,1.36.58,2.47,2.01,3.49,3.03,1.71,1.87,3.43,4.02,5.23,5.81,3.18,3.2,5.78,3.56,9.59,1.07.5-.04,1.31.17,1.74.4,1.07.4,2.36.74,3.49.92,2.86.43,5.84.34,8.72.36,7.84.14,15.7-.44,23.53-.67,3.43.69,6.99.84,10.46.42,3.76.3,7.7.56,11.33-.66.8-.27,1.87-.72,2.61-1.1.71-.44,1.76-.94,2.61-.8,3.48.26,7.03.2,10.46-.52"/><path class="b" d="M8.41,26.99c4.29.45,8.14,2.7,12.2,3.97,7.78,2.65,13.51-4.98,20.05-7.75l.87.23c1.64,2.41,4.21,9.1,7.84,7.88,2.41-1.23,4.09-3.67,6.1-5.42,2.98,2.46,6.22,6.1,10.46,5.55,2.88-.54,5.37-2.41,7.84-3.88,4.12-2.63,8.97-4.63,13.94-3.99,1.13.16,2.55.28,3.49,1,1.63,1.89,3.3,4.05,5.23,5.64,1.47,1.27,3.55,1.74,5.23.58.35-.36,1.23-.76,1.74-.72,4.82,2.31,8.97,1.19,13.94.53,4.63-.54,9.33-.08,13.94.33,6.65.65,13.37.58,20.05.57,9.38.15,16.02-.23,23.53-6.56,2.9.07,5.86-.25,8.72-.69"/><path class="b" d="M8.41,26.49c3.19.41,6.36,1.5,9.59,1.57,7.69-.06,12.72-7.02,19.17-10.2,2.69,2.36,4.7,10.02,8.72,10.18,1.84-.42,3.17-2.22,4.36-3.57,1.32-1.61,2.81-3.4,4.36-4.8l.87.17c3.97,3.44,8.04,9.04,13.94,8.09,4.71-1,9.04-3.72,13.95-3.89,2.32-.14,4.74.2,6.97.81.98.33,1.82,1.45,2.61,2.06.95.74,2.27,1.37,3.49,1.03.43-.22,1.26-.49,1.74-.53,3.45,1.13,7.18.61,10.46-.83,8.99-4.25,14.17-3.42,23.53-1.27,4,.9,8.11,1.66,12.2,1.97,2.58.33,5.34-.07,7.84.67,1.44.31,3-.18,4.36-.6,4.2-.3,8.45-1.25,12.2-3.22,3.44-1.75,6.48-4.29,9.59-6.53.33-.27,1.3-.57,1.74-.52,1.08-.1,2.4-.22,3.49-.31"/><path class="b" d="M8.41,24.59c7.59.39,12.51-2.78,18.3-7.18,2.2-1.49,4.42-3.42,6.97-4.25,2.18,2.92,3.87,6.44,6.1,9.33,2.6,3.38,4.69,2.13,6.97-.73,2.19-2.69,4.15-5.86,6.97-7.94.58.05,1.37.62,1.74,1.03,1.12,1.01,2.4,2.27,3.49,3.33,5.29,5.23,8.97,7.59,16.56,5.84,3.71-.72,7.58-1.03,11.33-.47,1.71.25,3.58.47,5.23,1.02,1.1-.03,2.39.03,3.49.03,6.67-.16,11.47-5.6,17.43-7.84,6.01-2.19,12.5-.29,18.3,1.67,5.92,2.06,12,4.01,18.3,4.38,1.61.81,3.29,2.23,5.23,1.67,1.22-.31,2.38-1.27,3.49-1.84,3.28-.38,6.58-1.26,9.59-2.64,5.56-2.42,10.01-6.92,15.69-9.08"/></svg>