<?xml version="1.0" encoding="UTF-8"?><svg id="a" xmlns="http://www.w3.org/2000/svg" width="1920" height="2400" viewBox="0 0 192 240"><defs><style>.b{fill:none;stroke:#fff;stroke-miterlimit:10;stroke-width:.3px;}.c{stroke-width:0px;}</style></defs><rect class="c" x="0" width="192" height="240"/><path class="b" d="M9.86,226.68c8.42-3.05,13.27-5.25,22.28-2.16,3.36,1.07,6.72,2.6,10.29,2.77,4.78.23,9.05-2.57,13.71-3.07,6.74-.53,12.93,4.54,19.71,2.69,8.7-2.35,14.51-6.49,24-3.25,3.45,1.06,6.67,3.15,10.28,3.62,3.26.38,5.75-2.23,8.57-3.34.76-.04,1.81-.13,2.57-.21,2.29-.18,4.6-.88,6.86-1.2,9.54,2.46,12.53,9.36,21.43-.12,4.69-4.86,8.87-9.95,16.29-9.63,8.8-.06,11.16-.81,16.28,7.4"/><path class="b" d="M9.86,223.89c4.31.01,8.55-1.32,12.86-1.37,4.31-.18,8.59.77,12.86,1.24,3.15.37,6.42-.03,9.43-1.02,8.36-2.84,11.06-4.91,19.71-.9,5.44,2.46,9.08,2.81,14.57.24,8.09-3.85,14.53-6.18,23.14-2.02,3.08,1.33,6.02,3.49,9.43,3.83,2.16.18,4.04-1.26,6-1.88,4.02.06,8.12-.33,12-1.38,1.74-.8,3.54.45,5.14,1.06,4.23,1.97,7.87,3.56,12,.26,5.25-3.9,8.64-10.88,15.43-12.37,3.09-.45,6.31-.13,9.43-.22,4.87-.18,7.12.08,10.29,4.26"/><path class="b" d="M9.86,219.87c3.92.86,8.02.58,12,.57,3.98-.06,8.02.2,12-.09,3.2-.24,6.41-1.02,9.43-2.09,5.95-2.06,11.84-5.28,18-2,3.1,1.39,6.03,3.5,9.43,4.12,7.54,1.09,13.91-8.1,24-7.36,1.14.05,2.51.23,3.43.98,1.34.82,2.87,1.69,4.29,2.38,1.88.92,3.98,1.7,6,2.26,1.29.73,2.81,1.49,4.29,1.77,1.41.29,2.94-.23,4.29-.57,6.02.25,12.25.2,18-1.79,3.1.77,6.09,2.89,9.43,2.36,4-.8,6.74-4.3,9.43-7.09,4.48-4.88,7.52-7.9,14.57-7.36,2.25,0,4.61,0,6.86,0,2.52-.21,5.09.62,6.86,2.47"/><path class="b" d="M9.86,215.48c3.61.93,7.42,1.19,11.14,1.23,3.99.03,8.06-.15,12-.87,5.31-.92,10.29-3.14,15.43-4.68,6.57-1.98,9.8-1.24,15.43,2.53,3.01,1.93,6.57,4.31,10.29,3.02,3.11-1.05,5.79-3.2,8.57-4.87,3.09-1.89,6.6-3.59,10.28-3.67,8.45,6.29,14.09,9.16,24.86,8.92,5.13-.05,10.31.17,15.43-.17,1.39-.12,2.94-.37,4.29-.73,1.1-.35,2.33-.86,3.43-.19,4.4,1.88,7.63,1.27,11.14-1.96,4.59-3.98,8.13-10.24,14.57-11.3,2.24-.31,4.61-.15,6.86-.19,2.93-.07,6.14-.07,8.57,1.83"/><path class="b" d="M9.86,211.4c7.33,1.46,15.01,1.18,22.28-.46,4.93-1.11,9.69-3.04,14.57-4.32,4.63-1.21,9.56-1.82,13.71,1.07,3.14,1.87,5.87,4.71,9.43,5.78,4.33,1.02,7.86-2.71,11.14-4.95,2.59-1.91,5.45-3.72,8.57-4.59,6.67,4.26,12.04,9.59,20.57,9.72,2.26.08,4.61-.25,6.86.01,1.41-.07,2.87-.71,4.29-.72,3.69-.33,7.46-.3,11.14.13,3.67.39,7.54,1.12,11.14-.06,1.37-.74,2.89.43,4.29.55,3.35.6,6.31-1.7,8.57-3.89,3.48-3.32,6.55-7.51,11.14-9.35,4.39-1.52,10.51-1.51,14.57.9"/><path class="b" d="M9.86,207.97c6.27.74,12.69.34,18.86-1.01,5.79-1.24,11.36-3.45,17.14-4.7,4.53-.92,9.71-1.48,13.71,1.32,4.18,2.36,8.39,8.47,13.71,6.11,3.98-1.6,9.96-8.82,13.71-9,9.91,6.57,14.76,11.58,27.43,8.71,4.73,2.48,7.85-1.07,12-2.37,2.54-.24,5.2-.12,7.71.36,3.77.65,7.35,2.34,11.14,2.82,1.08.11,2.38,0,3.43-.3.42-.21,1.25-.35,1.71-.26,3.09,1.38,6.16.16,8.57-1.94,3.19-2.65,5.89-6.03,9.43-8.26,4.06-2.68,9.47-2.58,13.71-.38"/><path class="b" d="M9.86,205.24c5.75.18,11.56-.44,17.14-1.81,5.76-1.37,11.34-3.55,17.14-4.74,4.78-.88,10.28-1.52,14.57,1.25,3.76,2.08,7.44,7.27,12,6.86,3.45-.73,5.95-3.65,8.57-5.8,1.32-1.02,2.66-2.53,4.29-3.01,6.77,3.59,13.39,9.03,21.43,8.85,2.92,0,5.74-1.15,8.57-1.59,4.54,3.25,8.07.83,12-1.94,1.62-1.06,3.31-2.41,5.14-3.08,5.87-.44,11.26,2.31,16.28,4.99,3.06,1.55,5.23,2.11,8.57,1.01,9.2,3.79,12.81-13.16,26.57-8.15"/><path class="b" d="M9.86,202.88c5.48-.11,10.99-.78,16.28-2.2,5.74-1.49,11.31-3.75,17.14-4.91,4.48-.81,9.47-1.24,13.71.71,2.79,1.4,5.14,3.66,7.71,5.38,5.96,4.4,10.21-1.84,14.57-5.33,1.16-.23,2.36.64,3.43,1,1.67.7,3.47,1.47,5.14,2.17,8.73,3.74,14.84,5.24,24,1.63.52,0,1.32.41,1.71.74,1,.61,2.26,1.19,3.43,1.34,4.61.25,8.44-5.06,12-7.51,3-2.28,3.9-2.76,7.71-2.34,5.88.51,10.76,4.16,15.43,7.44,2.45,1.7,5.64,3.31,8.57,1.82,7.34,2.88,10.29-6.37,21.43-4.79"/><path class="b" d="M9.86,200.03c5.15.07,10.39-.13,15.43-1.32,5.79-1.3,11.33-3.63,17.14-4.84,4.48-.91,9.37-1.18,13.71.47,8.32,4.07,10.15,9.62,18.86,1.44,7.75.92,15.29,3.76,23.14,4.21,4.38.31,8.75-.68,12.86-2.14,3.08,2.34,6.25,3.11,9.43.47,3.08-2.44,5.54-5.7,8.57-8.19.73-.6,1.76-1.36,2.57-1.84,1.02-.45,2.34-.56,3.43-.68,16.47-1.51,20.3,12.17,29.14,12.41.78-.06,1.79-.42,2.57-.45,1.03.37,2.34.53,3.43.42,3.99-.61,7.93-1.95,12-2.02"/><path class="b" d="M9.86,196.18c1.67,0,3.47-.26,5.14-.17,3.1.42,6.3.75,9.43.56,5.56-.3,10.89-2.17,16.28-3.4,2.22-.5,4.58-.89,6.86-.99,2.28.15,4.64.57,6.86,1.15,1.06.28,2.34.56,3.43.75,1.39.57,2.87,1.39,4.29,1.92,2.87,1.19,5.08.49,7.71-.83,2.54.11,5.17.2,7.71.32,4.56.19,9.16.51,13.71.83,6,.45,12.19.62,18-1.17,4.19,2.33,6.89,1.8,10.28-1.51,1.78-1.74,3.47-3.83,5.14-5.66,1.17-1.33,2.56-2.72,4.29-3.26,6.85-2.75,16.6-2.88,23.14.78,5.76,2.92,10.76,10.64,17.14,11.12,1.41.17,2.94-.64,4.29-.27,2.81.43,5.74.25,8.57.13"/><path class="b" d="M9.86,193.18c5.42,0,10.88-.13,16.28-.42,2.23.38,4.6.54,6.86.42,4.61-.22,9.06-1.55,13.71-1.01,4.56.23,9.14,1.02,13.71,1,12.56.16,25.15-.3,37.71.05,3.12.03,6.33-.03,9.43-.5,1.02.43,2.34.62,3.43.39,2.32-.45,4.09-2.25,6-3.48,6.41-3.8,11.9-9.64,19.71-10.37,6.29-.6,13.14-.78,18.86,2.31,4.09,2.21,7.4,5.67,11.14,8.38,5,3.83,9.51,3.4,15.43,3.02"/><path class="b" d="M9.86,189.8c10.85.02,21.72-.17,32.57-.01,3.69-.04,7.45.14,11.14-.13,1.96.05,4.04.25,6,.09,1.1-.09,2.38-.33,3.43-.64.77-.03,1.8-.01,2.57,0,5.13.13,10.29.58,15.43.67,5.41.11,10.87-.07,16.28-.02,11.02.07,17.52.97,26.57-6.55,3.17-2.42,6.48-4.93,10.29-6.23,5.2-1.71,10.89-1.64,16.28-1.05,13.67,1.88,16.41,14.3,31.71,13.81"/><path class="b" d="M9.86,186.28c9.13.06,18.29.11,27.43.12,3.41.06,6.88-.32,10.28-.12,3.98.08,8.06.2,12-.44,1.4-.24,2.93-.64,4.29-1.07,1.06-.43,2.28-.78,3.43-.53,5.14.5,10.27,1.54,15.43,1.92,5.12.42,10.3.17,15.43.1,1.07.23,2.35.05,3.43,0,1.96.02,4.04.08,6,.12,5.2.24,10.19-.3,14.57-3.36,3.74-2.43,7.15-5.5,11.14-7.55,7.05-3.61,16.72-3.68,24-.69,9.33,4.22,13.43,11.2,24.86,11.25"/><path class="b" d="M9.86,182.31c9.14.11,18.29.71,27.43.66,2.26-.05,4.61-.19,6.86-.46,1.38-.09,2.91-.63,4.29-.38,3.97.44,8.06.31,12-.33,3.44-.46,6.84-1.64,10.29-1.94,4.84.93,9.66,2.31,14.57,2.83,4.54.53,9.16.26,13.71,0,3.69-.19,7.45-.15,11.14.1,4.89.46,9.39.3,13.71-2.34,3.5-2,6.73-4.59,10.29-6.51,7.83-4.43,17.8-4.32,25.71-.15,7.97,4.2,12.54,8.87,22.28,8.76"/><path class="b" d="M9.86,177.62c4.85.11,9.74.38,14.57.88,4.55.44,9.14,1.09,13.71,1.08,3.75,0,7.54-.63,11.14-1.68,5.37,1,10.88.37,16.28,0,3.4-.24,6.89-.31,10.28.07,3.15.32,6.29,1.11,9.43,1.5,1.67.25,3.47-.05,5.14.09,3.71.16,7.45-.34,11.14-.63,2.82-.23,5.74-.3,8.57-.07,2.83.19,5.72.78,8.57.73,7.36-.24,13.03-5.77,19.71-8.15,9.02-3.55,17.52-1.25,25.71,3.2,6.21,3.31,10.83,4.95,18,4.73"/><path class="b" d="M9.86,172.23c5.74-.08,11.52.48,17.14,1.69,5.89,1.19,11.96,3.07,18,1.85,2.02-.34,4.04-1.11,6-1.64,1.36.33,2.89.56,4.29.67,4.83.38,9.74.33,14.57.69,3.69.22,7.44.79,11.14.65,1.71.01,3.46-.65,5.14-.76,4.77,1.19,9.76.82,14.57.07,3.95-.57,8.02-.93,12-.39,4.52.69,9.2,1.79,13.71.45,5.24-1.42,10.09-4.19,15.43-5.32,11.03-2.56,18.27,2.45,28.28,5.14,3.9.99,8.01.82,12,.84"/><path class="b" d="M9.86,166.48c8.47-.79,16.16,1.04,24,4.08,4.34,1.6,9.11,2.97,13.71,1.68,1.1-.27,2.37-.69,3.43-1.09.46-.27,1.21-.38,1.71-.23,3.63.89,7.43,1.17,11.14,1.5,3.97.29,8.03.57,12,.1,2.01-.24,4.11-.74,6-1.48,1.34-.82,2.92.24,4.29.51,1.93.54,4,.97,6,1.14,6.34.55,12.52-1.97,18.86-1.69,3.45.12,6.87,1.1,10.28,1.52,2.82.39,5.77.3,8.57-.2,4.01-.69,7.97-1.9,12-2.49,3.95-.62,8.05-.6,12,0,4.88.71,9.66,2.23,14.57,2.74,2.82.34,5.74.04,8.57.19,1.67-.03,3.47-.26,5.14-.12"/><path class="b" d="M9.86,160.83c7.57-1.31,15.44-.14,22.28,3.34,4.17,1.91,8.21,4.61,12.86,5.14,1.69.17,3.52-.1,5.14-.57,1.1-.23,2.29-1.04,3.43-.81,1.64.47,3.45.81,5.14,1.04,5.12.69,10.43.52,15.43-.85,1.41-.39,2.94-.93,4.29-1.49.77-.3,1.7-.96,2.57-.72,10.78,3.69,13.55,4.46,24.86,2.03,3.96-.8,8.06-.58,12,.21,4.23.74,8.55,1.38,12.86,1.21,5.14-.17,10.28-.94,15.43-.98,5.14-.1,10.3.56,15.43.89,2.83.18,5.75.14,8.57-.15,1.36.26,2.91.32,4.29.14,1.38-.15,2.93-.45,4.29-.76,1.07-.06,2.37.13,3.43.25"/><path class="b" d="M9.86,155.63c8.08-2.01,16.87-1.03,24,3.39,3.95,2.21,7.59,5.28,12,6.56,1.93.54,4.08.44,6-.09.45-.11,1.28-.37,1.71-.51.45.07,1.28.26,1.71.38,6.99,1.69,14.21-.53,20.57-3.42.44-.2,1.28-.61,1.71-.81,1.72-.02,3.5.73,5.14,1.18,3.68,1.15,7.33,2.65,11.14,3.32,5.17,1.04,10.33-.66,15.43-1.34,2.83-.4,5.76-.1,8.57.25,3.4.41,6.87.88,10.29,1.12,7.41.53,14.87.18,22.28.29,5.13.04,10.33,0,15.43-.66.79-.26,1.84.17,2.57.47.73.21,1.82.23,2.57.09,2.29-.48,4.62-1.24,6.86-1.94,1.39.03,2.93.36,4.29.66"/><path class="b" d="M9.86,151.06c7.53-2.21,16.12-2.19,23.14,1.6,4.57,2.38,8.3,6.17,12.86,8.56,2.82,1.53,5.52,1.48,8.57.89,3.41.91,7.02.19,10.28-.96,3.52-1.16,6.85-2.99,10.29-4.37,4.41.1,8.73,1.4,12.86,2.89,4.64,1.7,9.56,3.38,14.57,2.73,3.42-.36,6.84-1.27,10.29-1.36,5.42.04,10.87.66,16.28.89,11.7.51,23.52.61,35.14-1.02,1.47,1.05,3.29,2.03,5.14,1.44,2.61-.82,5.1-2.24,7.71-3.06,1.71.15,3.51.62,5.14,1.15"/><path class="b" d="M9.86,147.14c6.78-2.41,15.51-2.7,22.28-.12,5.25,2.08,9.18,6.36,13.71,9.56,2.46,1.76,5.52,2.95,8.57,2.44,2.63.39,5.31-.37,7.71-1.4,2.6-1.11,5.18-2.49,7.71-3.74,7.13-2.3,14.72-.29,21.43,2.46,5.4,2.22,10.43,3.44,16.28,2.42,3.95-.65,8.01-.64,12-.55,4.84.06,9.73.14,14.57.12,5.99-.02,12.02-.18,18-.63,1.96-.15,4.04-.34,6-.54,1.37-.07,2.92-.53,4.29-.26,4.86,5.25,8.69-.52,13.71-1.74,2.03.16,4.1.81,6,1.54"/><path class="b" d="M9.86,143.86c5.96-2.93,16.86-3.18,23.14-.98,5.74,2.06,9.72,7.01,14.57,10.46,5.54,4.08,10.69,2.18,16.28-.52,12.46-6.22,19.38-5.11,31.71.43,5.69,2.49,10.18,2.81,16.28,2.18,16.3-.38,32.62-.8,48.85-2.44,1.15.63,2.2,1.82,3.43,2.32,3.78,1.52,7.01-2.15,10.28-3.47,2.64-.16,5.28.79,7.71,1.71"/><path class="b" d="M9.86,141.32c3.83-2.39,8.39-3.27,12.86-3.3,4.03-.06,8.25.08,12,1.7,6,2.52,9.82,8.28,15.43,11.4,10.04,5.24,18.12-8.83,32.57-7.09,8.88.71,16.01,7.36,24.86,8.15,11.71.42,23.46-.4,35.14-1.08,4.27-.27,8.59-.55,12.86-.79,1.07-.06,2.36-.13,3.43-.19.4-.02,1.31-.07,1.71-.09.49.11,1.34.62,1.71.96,4.37,3.12,7.14-.16,11.14-1.55,2.91-.16,5.83.72,8.57,1.59"/><path class="b" d="M9.86,139.75c3.9-3.05,8.76-4.75,13.71-4.8,3.75-.12,7.67.19,11.14,1.72,5.33,2.3,9,7.09,13.71,10.31,7.46,5.38,14.8-2.01,21.43-5.2,2.99-1.07,6.25-1.56,9.43-1.47,4.97.11,9.83,1.54,14.57,2.91,1.37.39,2.9.81,4.29,1.14,1.93.97,3.97,2.02,6,2.77,5.99,2.29,12.57,1.64,18.86,1.77,12-.11,24-.93,36-.98,1.37-.02,2.92-.03,4.29-.04.8.08,1.79.62,2.57.82.73.19,1.82.24,2.57.13,1.11-.17,2.39-.61,3.43-1.01,3.44-.2,6.9.38,10.29.89"/><path class="b" d="M9.86,139.26c6.69-5.8,14.58-8.33,23.14-5.19,4.26,1.62,7.67,4.84,11.14,7.68,2.61,2.15,5.88,4.35,9.43,3.61,3.2.58,5.86-.87,8.57-2.36,11.68-6.8,19.02-4.3,30.86-.06,4.4,1.49,9.07,2.27,13.71,2.28,1.97.05,4.04-.12,6-.33,1.07.1,2.36.15,3.43.21,12.27.62,24.58.32,36.85.39,5.7.01,11.44,0,17.14,0,3.98-.03,8.05.15,12-.45"/><path class="b" d="M9.86,139.18c9.23-7.02,16.84-10.46,27.43-3.42,3.58,2.23,6.81,5.69,11.14,6.31,1.76.24,3.47-.68,5.14-1.01,6.86,4.25,13.02-6.84,28.28-2.51,5.62,1.49,11.21,3.86,17.14,3.53,3.41-.13,6.87-.66,10.29-.5,2.83.07,5.74.84,8.57.34.78-.14,1.81-.48,2.57-.69,1.37.07,2.91.12,4.29.16,3.12.09,6.31.12,9.43.11,8.87-.01,17.74-.6,26.57-1.38,1.67-.14,3.47-.28,5.14-.39,1.08-.01,2.42-.36,3.43.16,3.86,2.31,8.5,2.24,12.86,2.19"/><path class="b" d="M9.86,137.86c5.07-2.43,9.59-6.57,15.43-7.02,6.46-.74,11.84,3.43,17.14,6.44,3.63,2.07,6.82,1.67,10.29-.51,4.13,2.87,6.75,2,11.14.42,3.28-1.18,6.78-2.09,10.28-2,6.47,0,12.42,3.38,18.86,3.5,4.09.03,8.02-1.5,12-2.24,10.56-2.24,13.01,6.21,22.28-.34,6.59-.07,13.21-.71,19.71-1.76,6.28-.98,12.54-2.35,18.86-3.13,5.83,3.54,8.91,6.49,16.28,6.4"/><path class="b" d="M9.86,135.22c2.47-.38,4.71-1.81,6.86-2.99,2.65-1.5,5.52-2.92,8.57-3.36,4.18-.67,8.37.78,12,2.78,2.47,1.29,4.95,2.93,7.71,3.49,1.39.27,2.98.05,4.29-.47,1.12-.36,2.23-1.38,3.43-1.44,2.88,2.48,6.03,2.41,9.43,1.15,2.78-.94,5.64-1.97,8.57-2.31,5.27-.73,10.41,1.05,15.43,2.43,9.98,3.04,15-3.84,24-3.91,9.46.76,11.66,9.54,21.43.85,1.08-.88,2.26-2.05,3.43-2.82,1.97-.27,4.05-.61,6-.96,4-.73,8.02-1.62,12-2.44,2.24-.46,4.6-.92,6.86-1.3.75-.13,1.81-.31,2.57-.36.77.3,1.83.77,2.57,1.15,5.68,2.83,10.41,7.65,17.14,7.67"/><path class="b" d="M9.86,131.82c2.45.28,4.78-1.05,6.86-2.17,2.44-1.36,4.99-2.79,7.71-3.49,12.62-3.19,17.67,10.29,27.43,3.89.89.07,1.78.85,2.57,1.2,1.59.74,3.48.74,5.14.27,5.89-1.91,10.67-4.46,17.14-3.3,6.29.86,12.4,5.21,18.86,3.01,8.74-3.06,13.85-8.93,23.14-2.67,7.39,4.93,9.86,4.14,16.28-1.64,3.1-2.77,6.35-5.67,10.29-7.2,3.39-.62,6.87-1.13,10.28-1.53,2.87,0,5.84.46,8.57,1.34,3.69,1.19,7.02,3.37,10.28,5.42,2.32,1.38,5.02,2.3,7.71,2.59"/><path class="b" d="M9.86,128.3c3.15.7,5.98-1.54,8.57-3,2.37-1.43,4.97-2.79,7.71-3.31,11.45-2.21,16.88,10.25,25.71,5.19.83.16,1.77.75,2.57,1,1.36.42,2.94.28,4.29-.14,4.28-1.47,8.27-4.05,12.86-4.53,5.4-.76,10.55,1.48,15.43,3.5,10.51,4.76,14.65-3.85,24-5.19,6.31-.74,10.52,5.35,16.28,6.58,3.35.44,6.18-2.07,8.57-4.07,3.64-3.2,7.32-6.71,12-8.3,6.34-1.99,13.51-1.77,19.71.61,4.99,2.01,9.09,6.09,14.57,6.91"/><path class="b" d="M9.86,124.96c4.91.89,10.58-7.43,18-7.9,4.69-.52,9.07,1.79,12.86,4.31,2.37,1.5,4.85,3.32,7.71,3.65,1.11.1,2.39-.15,3.43-.53.47,0,1.29.19,1.71.36,4.63,1.08,9.44-3.53,13.71-5.04,6-2.68,12.36-1.61,18,1.4,3.27,1.56,6.55,3.76,10.29,3.84,4.47-.12,8.08-3.28,12-5.04,11.41-5.8,16.31,8.03,24.86,4.34,5.87-3.05,9.95-8.95,16.29-11.26,6.55-2.36,14.2-2.16,20.57.69,4.34,2.1,8.06,5.57,12.86,6.7"/><path class="b" d="M9.86,121.63c6.42-1.4,11.54-6.32,18-7.69,3.37-.8,7-.63,10.28.47,2.08,1.21,4.05,2.84,6,4.25,1.78,1.28,3.79,2.61,6,2.92.77.1,1.8,0,2.57-.06,1.09.2,2.38.08,3.43-.27,5.65-2.24,10.1-7.12,16.28-8.19,5.05-1.09,10.26.54,14.57,3.18,2.81,1.62,5.51,3.69,8.57,4.84,3.88,1.6,7.8-.64,11.14-2.5,4.71-2.71,8.69-3.52,13.71-.98,4.23,2.01,8.95,5.74,13.71,3.1,5.2-2.74,9.16-7.5,14.57-9.91,6.41-2.89,14.2-2.9,20.57.1,4.42,2.2,8.07,5.89,12.86,7.37"/><path class="b" d="M9.86,117.76c1.67-.01,3.44.67,5.14.44,5.38-.51,10.12-3.64,15.43-4.53,12.76-2.52,18.34,7.95,27.43,3.34,4.63-2.33,8.3-6.28,12.86-8.73,1.89-.7,3.99-1.12,6-1.17,5.77-.27,11.02,2.68,15.43,6.13,2.62,1.91,5.3,4.24,8.57,4.88,3.71.59,6.98-1.86,10.29-3.13,7.66-3.37,12.66,2.43,19.71,3.22,4.26.15,7.82-2.77,11.14-5.06,3.17-2.28,6.54-4.53,10.29-5.72,5.58-1.8,11.93-1.47,17.14,1.29,4.41,2.35,8.01,6.23,12.86,7.79"/><path class="b" d="M9.86,112.8l.86-.66c10.23,5.52,14.78.77,24.86.16,4.69-.31,9.2,1.29,13.71,2.29,1.37.26,2.92.34,4.29.02.77.14,1.79.25,2.57.2,4.25-.42,7.71-3.38,11.14-5.67,3.92-2.77,8.17-5.28,12.86-6.48.76-.2,1.8-.44,2.57-.57.44.08,1.29.26,1.71.37,3.15.81,6.05,2.57,8.57,4.59,4.47,3.39,9.14,9.52,15.43,7.28,3.05-.99,6.14-2.44,9.43-2.26,6.06.17,11.94,4.42,18,1.97,4.57-1.69,8.46-4.85,12.86-6.91,6.08-3.06,13.59-3.61,19.71-.37,4.71,2.32,8.39,6.74,13.71,7.75"/><path class="b" d="M9.86,106.63l.86-.4c12.5,7.04,13.34,5.2,26.57,4.02,2.84-.14,5.77.16,8.57.62,2.8.45,5.85.98,8.57-.13,9.92,3.82,16.22-10.72,36.85-11.06,3.44.22,9.84,8.68,13.71,10.55,3.55,2.23,7.4.62,11.14,0,9.84-1.24,14.38,3.96,24.86-1.13,8.3-4.01,16.47-8.22,25.71-4.19,5.2,1.9,9.45,7.48,15.43,6.34"/><path class="b" d="M9.86,100.64c11.1,5.45,13.37,8.56,26.57,6.92,3.11-.26,6.32-.22,9.43.11,3.12.32,6.53.76,9.43-.74,5.3,2.67,10.62-.43,15.43-2.7,4.33-2.08,8.94-3.78,13.71-4.48,5.09-.8,10.3-.59,15.43-.49,3.91,3.66,7.75,9.07,13.71,8.73,2.54-.13,5.16-.55,7.71-.52,3.13-.02,6.31.41,9.43.52,6.28.36,12.16-2.2,18-4.13,4.93-1.63,10.37-2.36,15.43-.83,3.61.98,6.83,3.11,10.28,4.48,2.6,1.08,5.49.19,7.71-1.33"/><path class="b" d="M9.86,96.67c9.6,3.9,14.39,9.09,25.71,7.76,3.4-.28,6.88-.46,10.28-.17,3.42.27,7.16.9,10.29-.9,6.03,3.03,12.12-.47,18-2.11,3.6-1.08,7.39-1.76,11.14-1.94,7.14-.3,14.29.71,21.43.48,5.69,5.92,9.74,4.75,17.14,4.69,3.98,0,8.03.31,12-.06,3.76-.32,7.48-1.26,11.14-2.13,5.01-1.23,10.31-2.04,15.43-.95,8.87,1.81,11.96,6.85,19.71-1.32"/><path class="b" d="M9.86,94c10.29,3.48,14.61,8.6,26.57,6.86,3.39-.37,6.88-.58,10.29-.22,3.4.32,7.15,1.27,10.28-.57,4.96,2.32,10.38.34,15.43-.6,5.63-1.16,11.44-1.2,17.14-.62,7.37.63,14.95,1.91,22.28.35,1.43.31,2.81,1.32,4.29,1.54,3.36.68,6.88.37,10.29.42,3.98,0,8.03.1,12-.25,3.72-.31,7.45-1,11.14-1.51,2.27-.53,4.59.06,6.86.32,3.1.35,6.3.53,9.43.46,5.16,1.22,7.4,1.85,12-1.47,1.39,0,2.93.21,4.29.48"/><path class="b" d="M9.86,92.71c6.59,1.53,12.75,5.46,19.71,5.05,4.58-.22,9.11-1.58,13.71-1.53,3.47-.06,6.88.95,10.28,1.47,1.41.23,2.93-.11,4.29-.49,1.34.41,2.89.59,4.29.56,3.43-.13,6.87-.93,10.28-1.21,3.97-.39,8.03-.21,12,.2,6.53.8,13.13,1.17,19.71.97,3.69-.09,7.47.28,11.14-.23.42-.06,1.29-.19,1.71-.26.76.14,1.81.31,2.57.38,1.96.17,4.04.15,6,.14,3.98-.03,8.02.07,12-.08,2.84-.02,5.74-.66,8.57-.27,5.97.58,12.01.27,18,.22,2.54-.04,5.17.16,7.71.13,3.41-.01,6.88-.18,10.29-.01"/><path class="b" d="M9.86,92.39c5.95.87,11.96,2.87,18,1.54,5.4-1,10.71-3.16,16.28-2.83,3.89.11,7.5,1.81,11.14,2.98,5.69,1.13,11.42-1.14,17.14-1.02,5.74-.11,11.41,1.36,17.14,1.32,5.2,0,10.27-1.6,15.43-2,2.26-.17,4.64-.03,6.86.45,2.24.54,4.56,1.17,6.86,1.42,4.26.29,8.59.06,12.86.12,7.14.09,14.33-.05,21.43-.93,5.15-.85,10.32.32,15.43.89,1.7.16,3.56-.07,5.14-.74,2.8.5,5.76.42,8.57.08"/><path class="b" d="M9.86,90.94c5.18.17,10.45-.16,15.43-1.7,7.17-2.13,14.73-5.49,22.28-3.21,2.04,2.26,4.41,4.96,7.71,4.94.78,0,1.8-.13,2.57-.24.45.13,1.25.25,1.71.24,1.22-.07,2.49-.75,3.43-1.5.76-.23,1.79-.43,2.57-.55,2.81-.45,5.76-.41,8.57.01,6.44,1.03,12.36,3.33,18.86,1,3.63-.95,12.16-5.51,15.43-3.97,3.49,3.69,6.83,5.44,12,4.97,4.26-.3,8.59-.36,12.86-.11,3.69.19,7.46.24,11.14-.1,3.98-.34,8-.99,12-1.08,2.84-.08,5.77.2,8.57.67,3.39.59,7.27,1.39,10.29-.77,2.26.1,4.64.09,6.86-.44"/><path class="b" d="M9.86,86.61c4.94-.24,9.84-1.35,14.57-2.75,6.09-1.78,12.43-3.82,18.86-2.93,2.52,2.13,4.1,6.02,7.71,6.6,1.79.22,3.47-.83,5.14-1.25,2.2,1.33,4.68,1.85,6.86.19.84-.59,1.87-1.56,2.57-2.32.37-.46,1.11-1.22,1.71-1.35,1.99-.04,4.08.27,6,.79,8.24,2.32,12.9,6.6,21.43,1.59,2.72-1.31,8.38-5.39,11.14-5.12,2.72,2.79,5.5,6.12,9.43,7.15,2.5.6,5.18.27,7.71.12,2.83-.2,5.74-.23,8.57-.11,3.69.16,7.45.43,11.14.31,3.7-.1,7.45-.53,11.14-.74,3.41-.21,6.9-.09,10.29.33,4.17.59,8.69,1.02,12-2.13,1.99.12,4.11-.22,6-.84"/><path class="b" d="M9.86,80.97c7.24-.47,14.24-2.77,21.43-3.63,1.95-.23,4.03-.35,6-.29,1.09.07,2.42.02,3.43.49,1.9,2.41,3.7,5.72,6.86,6.56,1.93.23,3.67-1.16,5.14-2.23,2.06.4,3.86,2,6,2.23,4.58.3,7.49-4.86,10.29-7.79,3.69.57,7.09,2.4,10.28,4.25,3.12,1.74,6.53,4.07,10.29,3.48,5.89-1.34,9.92-6.6,15.43-8.83,9.5,9.77,9.85,9.27,23.14,8.62,6.85-.09,13.72.54,20.57.25,4.27-.13,8.59-.23,12.86-.04,5.96.3,9.7.36,14.57-3.55,2.04,0,4.15-.58,6-1.41"/><path class="b" d="M9.86,75.3c7.14-.52,14.24-2.07,21.43-1.81,1.38.04,2.92.17,4.29.35.82.09,1.92.22,2.57.79,3.31,4.3,6.01,9.05,11.14,3.55,2.82.82,5.55,2.54,8.57,2.55,5.75-.47,8.62-7.51,12.86-10.54,3.81,1.1,7.17,3.45,10.29,5.83,3.7,2.82,8.15,6.57,12.86,3.58,2.77-1.59,5.17-3.91,7.71-5.83,1.3-.84,2.68-2.28,4.29-2.37,10.31,10.99,12.45,9.36,26.57,9.1,5.42-.05,10.87.18,16.28.2,6.27-.1,12.69.46,18.86-.85,2.47-.59,4.89-1.79,6.86-3.38,1.05-.29,2.37-.22,3.43-.53,1.45-.37,2.99-1.05,4.29-1.79"/><path class="b" d="M9.86,70.14c6.25-.54,12.6-1.19,18.86-.36,1.38.18,2.92.45,4.29.76.43.1,1.29.31,1.71.42.6.21,1.39,1.12,1.71,1.65,2.74,3.48,5.44,7.02,9.43,2.6,3.35.85,6.71,2.56,10.29,2.05,6.88-1.29,9.85-9.14,15.43-12.65,10.12,2.35,15.99,15.7,23.14,12.08,4.43-2.33,7.58-6.61,12-8.98.96.34,1.84,1.42,2.57,2.09,1.58,1.53,3.31,3.16,5.14,4.38,3.98,2.76,8.99,3.3,13.71,3.15,3.69-.08,7.45-.26,11.14-.31,5.13-.09,10.3-.03,15.43-.23,5.24-.22,10.69-.71,15.43-3.14.43-.22,1.3-.71,1.71-.97.74-.27,1.8-.13,2.57-.12,2.8-.07,5.45-1.47,7.71-3.03"/><path class="b" d="M9.86,65.59c7.45-.93,15.19-.73,22.28,1.92.6.19,1.38,1.05,1.71,1.56.99,1.24,2.21,2.71,3.43,3.73,2.48,2,3.71.91,6-.55,4.03,1.74,8.72,2.33,12.86.61,6.26-2.72,9.33-9.78,15.43-12.74,1.08-.43,2.37.15,3.43.43,2.51.81,4.86,2.33,6.86,4.03,3.71,2.77,8.74,10.37,13.71,9.2,2.3-.65,4.22-2.39,6-3.91,2.14-1.88,4.36-3.9,6.86-5.3l.86.14c4.48,4.39,9.85,8.37,16.28,8.98,3.97.48,8.03.15,12-.11,3.98-.28,8.02-.55,12-.86,4-.32,8.08-.72,12-1.6,1.08-.25,2.37-.6,3.43-.94.76-.24,1.75-.72,2.57-.66,6.5.08,9.32.16,14.57-4.22"/><path class="b" d="M9.86,61.6c6.59-1.14,13.54-.64,19.71,2.05,3.35,2.14,6.48,9.9,11.14,5.49,4.96,2.23,8.93,1.42,13.71-.71,6.69-2.6,10.12-10.44,17.14-12.31,14.04-1.74,19.08,17.28,27.43,13.95,4.45-2.11,7.52-6.43,12-8.52.9.34,1.82,1.27,2.57,1.85,1.33,1.05,2.85,2.16,4.29,3.07,8.45,5.62,17.17,4.13,26.57,2.67,4.57-.69,9.18-1.49,13.71-2.41,5.65.65,11.6.99,17.14-.53,2.6-.96,4.83-2.88,6.86-4.73"/><path class="b" d="M9.86,58.05c5.67-1.36,11.79-1,17.14,1.37,3.42,2.34,7.21,10.53,12,6.54,4.69,2.3,8.62.65,12.86-1.68,3.04-1.44,6.07-3.11,8.57-5.4,3.07-2.51,6.16-5.77,10.29-6.28,9.71-.49,12.98.7,19.71,7.83,2.85,2.69,5.88,7.14,10.28,6.59,4.92-1.4,8.1-6.16,12.86-7.98.95.08,1.83.98,2.57,1.49,1.34.98,2.86,2.04,4.29,2.9,6.73,4.26,13.04,4.31,20.57,2.53,2.26-.49,4.61-1.06,6.86-1.6,1.07-.26,2.35-.57,3.43-.83.77.15,1.81.4,2.57.56,6.73,1.32,13.92,1.89,20.57-.11,3.07-1.13,5.48-3.61,7.71-5.91"/><path class="b" d="M9.86,54.81c4.51-1.39,10.29-1.86,14.57.38,2.7,2.2,4.97,5.05,7.71,7.2,2.39,1.75,3.44,1.47,6,.39,4.35,2.25,8.37-.24,12-2.63,3.03-2.02,6.57-3.3,9.43-5.59,3.32-2.38,6.8-5.52,11.14-5.41,10.86,0,14.22-1.05,22.28,7.47,2.95,2.76,5.84,7.06,10.29,7.06,4.61-.44,9.39-6.77,13.71-6.9,9.25,6.99,14.48,8.61,25.71,5.05,5.77-1.8,3.76-1.31,9.43,0,6.86,1.41,14.62,2.01,21.43.14,3.59-1.12,6.19-4.18,8.57-6.93"/><path class="b" d="M9.86,51.73c3-1.21,8.18-2.61,11.14-.89,2.85,1.58,5.3,3.92,7.71,6.08,2.29,2.08,5.53,4.73,8.57,2.44,4.05,1.9,6.93.45,10.28-1.97,1.64-1.16,3.38-2.48,5.14-3.47,1.65-.88,3.56-1.57,5.14-2.59,3.3-1.96,6.45-4.61,10.28-5.41,4.24-.43,8.6-.07,12.86-.18,5.46-.3,10,2.35,13.71,6.15,2.98,2.77,5.6,6.37,9.43,8.02,1.98.8,4.22.13,6-.88,2.81-1.58,5.52-3.55,8.57-4.67,10.82,7.37,13.49,7.06,25.71,3.33,6.57,2.44,13.64,2.72,20.57,2.59,8.79.12,11.79-.71,17.14-7.94"/><path class="b" d="M9.86,48.63c1.58-.82,3.37-1.61,5.14-1.87,2.06.23,4.16.92,6,1.87,2.78,1.44,5.25,3.55,7.71,5.46,2.39,1.91,5.62,3.91,8.57,1.94,4.17,1.54,5.92.78,9.43-1.72,1.93-1.41,3.89-3.03,6-4.18,1.64-.84,3.55-1.41,5.14-2.35,3.34-1.81,6.53-4.25,10.28-5.14,1.64-.39,3.47-.28,5.14-.29,2.25,0,4.6,0,6.86,0,3.73,0,7.69-.26,11.14,1.41,3.33,1.56,6.02,4.29,8.57,6.87,2.98,2.86,6.5,7.32,11.14,5.98,3.28-1.06,6.09-3.42,9.43-4.36,7.74,5.57,12.62,5.57,21.43,2.62,9.31,3.09,13.13,1.67,22.28,1.56,9.45.37,11.89,2.26,18-6.53"/><path class="b" d="M9.86,45.29c13.76-4.02,20.3,11.92,28.28,7.29,4.41,1.98,6.76.13,10.29-2.43,1.59-1.16,3.33-2.42,5.14-3.2,1.72-.6,3.56-1.31,5.14-2.21,3.61-1.97,7.07-4.56,11.14-5.48,3.89-.66,8.05-.19,12-.32,3.7.06,7.6-.32,11.14,1.01,7.47,2.38,13.15,14.46,19.71,13.46,3.01-.53,5.57-2.73,8.57-3.21,6.19,3.99,11.15,3.89,18,1.89.81-.23,1.8.2,2.57.4,1.06.29,2.34.57,3.43.74,6.62,1.13,13.09-1.98,19.71-1.44,8.76.83,11.01,4.96,17.14-4.21"/><path class="b" d="M9.86,43.46c14.39-4.79,20.88,10.28,30,5.67,1.59.72,3.43,1.27,5.14.66,3.6-1.26,6.5-4.19,10.28-5.03,4.35-1.44,8.01-4.42,12-6.57,2.36-1.29,5.02-2.28,7.71-2.54,3.69-.24,7.45-.06,11.14-.11,3.78-.07,7.81.08,11.14,2.07,3.31,1.91,5.93,4.88,8.57,7.58,2.63,2.73,6.21,6.17,10.29,4.38,1.09-.38,2.35-.91,3.43-1.33.41-.25,1.25-.37,1.71-.22,2.63,1.32,5.62,2.15,8.57,2.05,2.88.02,5.73-1,8.57-1.2,5.03,1.59,9.55,1.54,14.57-.08,2.51-.72,5.11-1.55,7.71-1.9,1.67,0,3.48.08,5.14.07,7.63.96,10.38,7.3,16.28-1.74"/><path class="b" d="M9.86,41.57c15.41-6.13,21.86,8.65,32.57,4.17,4.26,1.83,6.29.41,10.29-1.03,8.54-1.67,12.4-6.34,19.71-10.01,3.97-1.97,8.48-2.49,12.86-2.52,3.13-.02,6.38-.16,9.43.63,5.4,1.36,9.11,5.91,12.86,9.71,2.06,1.99,4.59,4.56,7.71,4.04,1.43-.21,2.87-1.03,4.29-1.23,5.21,2.26,10.93,1.02,16.28.07,1.62-.18,3.48.8,5.14.96,2.54.48,5.24.3,7.71-.4,1.09-.3,2.37-.74,3.43-1.13,2.83-.09,5.74.52,8.57.69,4.56.52,9.15.43,13.71.36,1.67.97,3.65,1.02,5.14-.33.6-.69,1.67-1.41,2.57-1.61"/><path class="b" d="M9.86,39.43c9.08-4.23,15.49-1.83,24,2.08,4.47,2,8.19,2.21,12.86.7,2.09,1.09,4.56,1.14,6.86.91,2.6-.12,5.29-.49,7.71-1.45,4.33-1.7,8.02-4.73,12-7.07,3.39-2.04,7.2-3.54,11.14-4.01,5.86-.75,12,.26,17.14,3.21,3.1,2.3,5.46,5.63,8.57,7.93,2.66,1.93,3.89,1.61,6.86.93,5.97,1.63,12.03-.78,18-1.21,1.43-.04,2.9.77,4.29,1.07,3.35,1.02,7.01.91,10.28-.35,3.39.48,6.86.97,10.29,1.05,3.12.09,6.31-.13,9.43-.19,4.27-.14,8.59.47,12.86.07"/><path class="b" d="M9.86,37.25c9.87-4.93,16.03-3.57,25.71.6,2.97,1.19,6.19,2.13,9.43,1.97,2.85-.12,5.72-.82,8.57-.97,2.27.15,4.59.74,6.86.93,11.3.9,17.69-11.73,32.57-8.82,5.31,1.02,9.89,4.15,14.57,6.68,1.21.97,2.71,1.98,4.29,2.18,1.96-.11,4.05.17,6-.2,5.67-1.09,11.28-3.1,17.14-2.74,1.16-.06,2.37.71,3.43,1.09,1.89.78,3.96,1.53,6,1.78,1.68.26,3.48-.14,5.14-.37,1.36.23,2.91.41,4.29.44,6.12.2,11.89-2.7,18-2.61,1.86,1,3.75,2.78,6,2.58.84-.16,1.77-.85,2.57-1.11.43.1,1.29.28,1.71.37"/><path class="b" d="M9.86,35.29c7.94-3.65,13.57-5.79,22.28-2.91,3.7,1.16,7.32,2.84,11.14,3.59,2.8.58,5.74.49,8.57.32,2.25-.13,4.62-.05,6.86-.44.78-.13,1.82-.39,2.57-.63,1.68.32,3.42,1.01,5.14,1.14,6.06.53,11.37-3.3,17.14-4.5,4.23-1.03,8.73-.74,12.86.6,5.29,1.56,10.59,5.13,16.28,3.56,2.93-.79,5.72-2.22,8.57-3.23,5.17-1.99,10.95-2.37,16.28-.82,3.07,1.48,6.04,3.49,9.43,4.21,1.35.3,2.91.27,4.29.12,1.37.19,2.93.16,4.29-.08,2.96-.52,5.79-1.83,8.57-2.91,1.58-.9,3.5-.47,5.14.06,2.64.75,4.94,2.78,7.71,3.06,1.24.01,2.53-.75,3.43-1.56,0,0,.86-.85.86-.85l.86-.3"/><path class="b" d="M9.86,32.86c2.68-.58,5.19-1.96,7.71-2.98,3.49-1.48,7.34-2.35,11.14-2,5.66.45,10.8,3.22,16.28,4.44,3.07.7,6.3.74,9.43.7,3.51.1,7.07-.43,10.28-1.88,7.81,3.52,12.77,1.09,20.57.15,3.7-.42,7.5-.07,11.14.66,2.8.52,5.7,1.23,8.57,1.05.44-.04,1.28-.14,1.71-.2.76.24,1.8.28,2.57.08,2.02-.54,3.5-2.29,5.14-3.45,1.9-1.15,3.95-2.32,6-3.18,5.4-2.39,11.7-2.35,17.14-.1,2.96,1.16,5.78,2.83,8.57,4.33,2.11,1.17,4.42,2.3,6.86,2.51,2.6.23,5.22-.55,7.71-1.16,2.48-.63,5.15-1.08,7.71-.74,5.96.89,8.55,4.41,13.71-1.25"/><path class="b" d="M9.86,29.54c2.71.36,5.31-1.03,7.71-2.1,2.71-1.28,5.59-2.49,8.57-2.93,6.56-1.12,12.73,1.95,18.86,3.79,3.31.99,6.84,1.3,10.28,1.3,3.89.23,7.84-.61,11.14-2.71,8.17,3.48,12.96,2.69,21.43,2.49,5.12-.11,10.4.84,15.43-.48,1.86.51,3.27,1.14,5.14.13,3.11-1.72,5.15-4.93,7.71-7.3,3.57-2.25,7.76-3.63,12-3.65,5.59-.15,10.93,2.13,15.43,5.31,2.78,1.86,5.48,4.1,8.57,5.44,1.57.67,3.45.97,5.14.6,3.7.57,7.44-.57,11.14-.51,5.76.2,8.61,2.2,13.71-2.18"/><path class="b" d="M9.86,25.56c2.84,1.48,5.98,0,8.57-1.32,2.19-1.11,4.49-2.27,6.86-2.96,7.56-2.43,14.41,1.35,21.43,3.63,4.12,1.21,8.59,1.56,12.86,1.11,2.8-.42,5.4-1.86,7.71-3.41,3.05,1.12,6.21,2.21,9.43,2.75,3.37.59,6.87.72,10.28.74,4.58,0,9.29-.02,13.71-1.35.85.17,1.77.86,2.57,1.16,2.22.91,4.46-.54,6-2.06,2.95-2.84,5.21-6.57,8.57-8.98,1.86-.88,3.97-1.5,6-1.81,7.2-1.14,14.82.3,20.57,4.94,3.41,2.48,6.42,5.72,10.29,7.51,1.3.57,2.88.85,4.29.61.77-.13,1.77-.55,2.57-.43,2.77.72,5.74.48,8.57.49,4.28.18,8.24-.03,12-2.34"/></svg>