<?xml version="1.0" encoding="UTF-8"?><svg id="a" xmlns="http://www.w3.org/2000/svg" width="1920" height="2400" viewBox="0 0 192 240"><defs><style>.b{fill:none;stroke:#fff;stroke-miterlimit:10;stroke-width:.3px;}.c{stroke-width:0px;}</style></defs><rect class="c" width="192" height="240"/><path class="b" d="M10.34,225.34c5.4.19,10.8-.79,16.2-.89,1.14-.15,2.34.33,3.41.64,1.35.31,2.89.33,4.26.17,1.95-.45,4-.04,5.97.06,2.55.16,5.23-.06,7.67-.84,3.09.32,6.43,1.74,9.38,0,4.75-2.67,7.96-7.53,12.79-10.12,4.35-2.4,9.81-2.78,14.49-1.13,3.37,1.23,6.11,3.8,8.52,6.37,3.7,3.75,6.96,8.73,11.93,3.3,3.6,2.37,5.96,3.02,10.23,1.98,6.58-1.68,11.18-7.22,17.05-10.31,5.15-2.92,11.24-3.4,17.05-3.25,7.07,0,13.23,2.03,19.6,4.88,1.87.98,4.02,1.55,5.97,2.32,2.52,1.24,4.62,3.35,6.82,5.05"/><path class="b" d="M10.34,220.13c4.52.45,9.1.94,13.64,1.13,1.66.07,3.45.12,5.11.14,1.05.28,2.31.6,3.41.58,1.7.01,3.45-.58,5.11-.8,2.84-.17,5.73-.64,8.52-1.18,2.61.2,5.14,1.21,7.67,1.8,1.71.42,3.61.02,5.11-.86,7.33-4.82,11.07-12.12,21.31-11.23,11.9.77,15.86,17.44,23.01,10.54,1.14.11,2.3.9,3.41,1.17,2.46.78,5.15.6,7.67.27,6.32-.68,11.64-4.49,17.05-7.49,5.92-3.44,12.76-5.19,19.6-5.02,3.42.03,6.89.43,10.23,1.16,1.07.23,2.35.55,3.41.84,1.08.7,2.33,1.58,3.41,2.28,2.06,1.47,4.51,2.43,6.82,3.41,2.38,1.25,4.44,3.22,6.82,4.48"/><path class="b" d="M10.34,213.4c4.24-.32,8.55-.22,12.79.05,8.73,8.76,10.61,4,20.46,2.26,2.9-.39,5.87.32,8.52,1.46,1.85.76,3.92,1.75,5.97,1.28,4.78-1.45,7.8-6,11.93-8.57,1.6-.5,3.46-.31,5.11-.33,4.36.14,8.71,1.13,12.79,2.64,1.38.51,2.91,1.13,4.26,1.71,1.16.83,2.29,2.1,3.41,2.98,1.38,1.14,3.33,2.21,5.11,1.37.4-.31,1.2-.58,1.7-.5,1.05.26,2.33.51,3.41.63,7.17.55,14.6-.17,21.31-2.86,4.27-1.65,8.44-3.69,12.79-5.16,7.62-2.68,15.9-3.18,23.87-2.05,2.02,1.41,3.89,3.27,5.97,4.61,1.52,1.09,3.43,1.82,5.11,2.6,2.19,1.08,4.31,2.8,6.82,3.04"/><path class="b" d="M10.34,206.67c2.48-.72,5.1-1.24,7.67-1.49,4.29,3.12,7.08,9.12,12.79,9.99,3.02.2,5.79-1.51,8.52-2.56,2.92-1.23,6.25-1.94,9.38-1.11,2.73.63,5.09,2.4,7.67,3.38,4.52,1.59,7.63-3.1,11.08-5.01,9.49.84,18.67,3.74,28.13,4.83,1.39.03,2.88.6,4.26.44,3.67.04,7.41.11,11.08,0,5.69-.05,11.45-.09,17.05-1.2,6.37-1.21,12.5-3.52,18.75-5.17,5.54-1.49,11.3-2.4,17.05-2.39,3.08,2.81,6.1,6.1,10.23,7.33,2.39.94,5.16,2.21,7.67.96"/><path class="b" d="M10.34,200.77c1.33-.5,2.82-1.3,4.26-1.26,5.22,3.15,9.98,12.36,16.19,12.29,2.76-.22,5.23-1.86,7.67-3.02,3.11-1.59,6.75-2.73,10.23-1.81,6.71,1.79,9.06,8.38,16.2,2.22,1.98-.01,4,.89,5.97,1.18,3.35.71,6.81,1.19,10.23,1.35,5.38.25,10.81-.12,16.2-.18.79-.11,1.77.29,2.56.26.43-.1,1.27-.24,1.7-.27,2.53.01,5.14.07,7.67.14,9.65.13,19.41.57,28.98-.86,8.65-1.3,16.9-4.57,25.57-5.73.99.34,1.81,1.52,2.56,2.2.98.96,2.24,2.02,3.41,2.73,2.01,1.21,4.48,1.79,6.82,1.79,1.87-.07,3.69-1.05,5.11-2.21"/><path class="b" d="M10.34,195.88l.85-.39c6.76,2.48,12.12,13.34,18.75,12.91,3.45-.47,6.3-2.86,9.38-4.31,3.65-1.95,8.2-2.59,11.93-.51,3.71,1.85,7.47,6.83,11.93,3.95.79-.15,1.8.22,2.56.38,1.06.23,2.33.41,3.41.48,5.77.32,11.35-1.75,17.05-2.28,2.8-.3,5.72-.32,8.52-.07.88-.04,1.93.49,2.56,1.08,1.8,1.41,4.07,1.8,5.97.31,3.35.21,6.73,1.03,10.23.99,5.67.05,11.38-.41,17.05-.22,5.67.13,11.41.55,17.05-.22,5.79-.72,11.36-2.67,17.05-3.88,1.61,1.3,3.13,3.03,5.11,3.78,3.51,1.37,7.52.08,10.23-2.36.47.02,1.3.3,1.7.54"/><path class="b" d="M10.34,193.56c3.55,1.6,6.48,4.38,9.38,6.93,3.39,3.03,7.3,6.06,11.93,3.65,3.97-1.87,7.53-4.9,11.93-5.77,1.35-.27,2.9-.31,4.26-.06,1.65,1.12,3.31,2.53,5.11,3.4,1.03.55,2.39.9,3.41,1.47.98.71,2.22,1.47,3.41,1.76.76.17,1.8.04,2.56-.04,1.36.22,2.91.18,4.26-.1,4.49-.99,8.45-3.63,12.79-5.09,4.34-1.57,9.15-1.93,13.64-.82,2.98,1.71,4.93,5.43,8.52,6.13,1.56.27,2.88-.95,4.26-1.39,6.88,2.74,14.25.69,21.31,0,3.95-.39,7.99-.34,11.93.1,11.68,1.52,14.66,2.14,26.42-.68,1.12.49,2.21,1.48,3.41,1.79,2.63.64,5.47-.51,7.67-1.92,1.65-.3,3.5.78,5.11,1.14"/><path class="b" d="M10.34,192.91c3.71,1.65,6.84,4.41,10.23,6.59,3.27,2.2,6.63,2.88,10.23,1,4.91-2.41,9.56-6.44,15.34-6.16,1.24.71,2.3,2.08,3.41,2.97,1.92,1.73,4.32,3,6.82,3.65,11.15,3.96,16.1-11.77,31.54-10.2,1.97,0,3.68,1.19,5.11,2.42,2.38,1.97,4.48,4.44,6.82,6.46,2.64,2.29,4.7,2.61,7.67.62,7.52,3.62,15.44-1.12,23.01-2.18,4.79-.83,9.76-.51,14.49.57,5.88,1.34,11.78,3.39,17.9,2.91,1.37-.08,2.9-.24,4.26-.39,1.01.47,2.34.54,3.41.23.43-.13,1.3-.44,1.7-.63.75-.04,1.8-.02,2.56.03,2.25.14,4.57.56,6.82.74"/><path class="b" d="M10.34,192.66c5.14,1.64,9.68,6,15.34,5.53,6.92-1.07,12.31-7.63,19.6-7.12,3.04,3.63,6.78,7.54,11.93,7.17.79-.04,1.79-.4,2.56-.07,1.14.23,2.45-.19,3.41-.8,3.24-2.21,5.58-5.62,8.52-8.18,3.8-3.64,9.35-5,14.49-4.28,6.69.68,10.89,6.42,15.34,10.79,2.18,2.11,4.82,3.48,7.67,1.67,2.46.81,5.12,1.17,7.67.56,5.29-1.17,10.07-4.04,15.34-5.27,4.73-1.21,9.77-1.09,14.49.1,5.47,1.33,10.64,3.85,16.2,4.85,3.35.63,6.83.65,10.23.63,2.82,0,5.73.04,8.52-.35"/><path class="b" d="M10.34,191.99c4.26.87,8.36,3.01,12.79,2.86,7.3-.5,13.08-6.46,20.46-6.71,1.37.69,2.29,2.39,3.41,3.41,2.86,3.11,6.23,4.18,10.23,2.56,6.58,3.97,11.12-9.56,18.75-12.35,4.03-1.54,8.57-1.35,12.79-.92,10.46.95,14.5,16.14,22.16,13.74.78-.27,1.78.13,2.56.21,1.37.15,2.92.04,4.26-.28,6.23-1.65,11.55-5.83,17.9-7.19,8.16-2.13,16.3.61,23.87,3.59,1.64.6,3.43,1.21,5.11,1.67,1.35.76,2.65,2.05,4.26,2.24,1.44.2,2.95-.45,4.26-.97,2.84.05,5.76-.29,8.52-.95"/><path class="b" d="M10.34,190.52c6.1.73,11.04,1.83,17.05-.49,4.77-1.67,9.38-4.23,14.49-4.63,1,.44,1.82,1.7,2.56,2.45,1.58,1.66,3.54,3.53,5.97,3.62,1.12,0,2.38-.4,3.41-.82.4-.23,1.24-.43,1.7-.37,8.2,5.59,11.87-11.24,21.31-12.93,1.93-.41,4.01-.33,5.97-.34,2.53.02,5.15-.06,7.67.06,11.44.44,13.69,16.11,23.87,14.25,5.61.91,10.55-2.69,15.34-5.05,3.97-2.05,8.3-3.63,12.79-3.97,5.2-.45,10.42.67,15.34,2.27,1.94.7,4.12,1.18,5.97,2.1.38.46,1.29,1.37,1.7,1.8,3.4,3.56,6.99,3.87,11.08,1.14.76-.51,1.74-1.35,2.56-1.77.75-.13,1.81-.34,2.56-.51"/><path class="b" d="M10.34,188.07c4.9.04,9.87-.51,14.49-2.18,2.84-.97,5.68-2.2,8.52-3.16,1.62-.44,3.41-1.33,5.11-1.09,2.79,2.61,5.84,7.37,10.23,6.24,1.15-.36,2.4-1.1,3.41-1.75.37-.32,1.2-.72,1.7-.72,2.17,1.51,4.98,3.69,7.67,2.12,5.52-3.55,8.04-10.92,14.49-13.23,3.55-1.11,7.42-.52,11.08-.66,8.68-.43,11.36,1.51,17.05,7.77,2.77,2.95,5.87,6.56,10.23,6.69,6.35.45,9.97-1.86,15.34-4.72,4.73-2.56,9.92-4.55,15.34-4.79,5.8-.36,11.53,1.11,17.05,2.74,2.13,1.55,3.7,4.02,5.97,5.44,4.76,3.47,10.1-.55,13.64-3.9"/><path class="b" d="M10.34,182.99c5.6-.26,10.99-2.1,16.2-4.06,5.06-1.73,4.1-2.4,8.52,1,7.86,6.43,9.4,6.22,17.05-.3.95.09,1.83,1,2.56,1.54,1.79,1.37,3.64,3.19,5.97,3.5,7.07-.34,9.94-14.23,21.31-14.36,2.24-.12,4.58-.09,6.82-.07,2.28.04,4.73.13,6.82,1.15,5.94,2.81,9.49,9,15.34,11.92,6.71,3.41,13.55-.09,19.6-3.21,4.02-2,8.31-3.7,12.79-4.29,6-.86,12.09.22,17.9,1.75,2.16,1.49,3.77,3.91,5.97,5.39,5.06,4.02,10.45.14,14.49-3.36"/><path class="b" d="M10.34,180.6c7.16-2.84,11.91-5.01,19.6-1.96,2.77.99,5.53,2.54,8.52,2.67,5.3-.15,8.79-4.97,12.79-7.83l.85.02c3.34,2.17,5.79,5.69,9.38,7.47,5.69,2.51,10.84-10.35,18.75-12.64,2.98-1.01,6.26-1.12,9.38-.94,3.34.06,5.94,1.28,8.52,3.32,3.74,2.82,6.93,6.52,11.08,8.78,7.27,3.73,14.43,1.08,21.31-2.06,4.86-2.14,10.01-3.9,15.34-4.2,3.4-.22,6.88.08,10.23.67,1.66.36,3.55.54,5.11,1.24,4.84,4.8,8.48,8.51,15.34,4.28,1.1-.65,2.33-1.59,3.41-2.28.4-.03,1.3-.11,1.7-.15"/><path class="b" d="M10.34,177.73c3.95.48,7.97-.18,11.93-.09,3.96,0,8.02.69,11.93-.14,6.7-1.46,11.22-7.18,17.05-10.35,3,1.42,5.37,4.02,7.67,6.35,1.71,1.69,3.55,3.74,5.97,4.34,3.14.43,5.53-2.39,7.67-4.27,1.86-1.77,3.83-3.66,5.97-5.09,4.38-2.96,10.33-3.93,15.34-2.15,4.54,2.63,8.23,6.59,12.79,9.2,4.85,2.8,10.85,2.84,16.2,1.67,4.63-1.07,9.06-3,13.64-4.24,4.69-1.32,9.63-1.89,14.49-1.54,3.13.21,6.31.76,9.38,1.4,1.96,1.41,3.74,3.33,5.97,4.37,3.5,1.89,7.09-.42,10.23-1.93,1.66,0,3.46-.07,5.11-.18"/><path class="b" d="M10.34,172.08c8.14,1.94,17.08,1.57,24.72-2.01,5.49-2.51,10.38-6.39,16.2-8.18,7.08,1.66,12.41,14.52,18.75,12.37,2.21-.77,4.12-2.39,5.97-3.78,2.35-1.82,4.88-3.63,7.67-4.7,2.74-1.04,7.6-1.82,10.23-.27,4.67,2.96,9.06,6.76,14.49,8.22,4.99,1.2,10.31.92,15.34.09,5.42-.97,10.74-2.69,16.2-3.47,5.64-.88,11.43-.67,17.05.23,1.07.16,2.35.38,3.41.57,1.55,1.15,3.26,2.43,5.11,3.05,2.3.83,4.75-.14,6.82-1.18,3.09.32,6.28.32,9.38.19"/><path class="b" d="M10.34,165.17c11.69,1.46,20.74-1.74,31.54-5.39,3.04-.95,6.21-1.74,9.38-2.16,2.56-.34,5.82,2.35,7.67,3.98,3.59,3.14,6.38,7.79,11.08,9.35,5.57,1.38,11.7-6.71,20.46-6.56,1.97-.27,3.46,1.13,5.11,1.95,2.43,1.34,5.02,2.61,7.67,3.45,3.83,1.25,7.94,1.39,11.93,1.34,7.45.08,14.8-1.36,22.16-2.29,5.64-.7,11.39-.76,17.05-.17,1.95.19,4.02.45,5.97.71,1.28.73,2.79,1.48,4.26,1.7,1.41.23,2.93-.29,4.26-.66,4.23.44,8.54.55,12.79.46"/><path class="b" d="M10.34,158.38c11.11-1.04,22.11-3.21,33.24-3.98,3.38-.24,6.84-.42,10.23-.43,4.94,1.42,8.33,5.65,11.93,9.04,6.76,6.58,9.84,5.15,17.9,2.26,1.63-.52,3.42-.97,5.11-1.19.79-.1,1.83-.27,2.56.15,2.46,1.03,5.07,1.93,7.67,2.51,5.01,1.16,10.23,1.01,15.34,1,9.96.08,19.89-1.12,29.83-1.3,3.96-.05,7.98.12,11.93.4,1.36.1,2.9.21,4.26.32.73.21,1.79.49,2.56.57.75.06,1.82-.07,2.56-.21,1.65.1,3.46.17,5.11.21,3.67.07,7.41-.04,11.08,0"/><path class="b" d="M10.34,152.47c10.86-2.59,22.15-2.45,33.24-2.04,3.39.15,6.84.42,10.23.67.77.05,1.79.13,2.56.21,1.19.31,2.4,1.15,3.41,1.83,2.71,1.93,5.14,4.4,7.67,6.54,7.61,6.64,11.56,4.59,20.46,3.23,2.21.52,4.55.97,6.82,1.17,5.65.49,11.38.18,17.05.25,10.79.04,21.6-.2,32.39-.31,7.38-.06,14.78.38,22.16.32,5.11,0,10.23-.71,15.34-.62"/><path class="b" d="M10.34,147.59c7.82-1.7,15.92-.92,23.87-1.09,3.11-.02,6.29.04,9.38.47,3.44.46,6.85,1.38,10.23,2.12,3.25.58,6.44,1.75,9.38,3.26,2,1.42,3.94,3.15,5.97,4.54,3.22,2.33,7.07,3.97,11.08,4.05,4.25-.07,8.54.11,12.79-.17,4.25-.38,8.54.09,12.79.18,12.77-.12,25.58.07,38.36,0,7.38-.04,14.79.13,22.16-.24,5.12-.19,10.21-1.33,15.34-1.3"/><path class="b" d="M10.34,145.7c6.59-2.17,13.55-2.78,20.46-2.59,3.67.1,7.45-.3,11.08.4,3.6.72,6.91,2.51,10.23,4,1.63.75,3.49,1.32,5.11,2.1,2.02.96,4.05,2.18,5.97,3.33,3.41,2.04,7.06,4.09,11.08,4.53,1.66.19,3.46.1,5.11-.12,3.38.33,6.84.21,10.23.15,4.53-.09,9.11.1,13.64.07,2.24,0,4.58-.2,6.82-.24,1.65.15,3.45.23,5.11.24,8.23-.11,16.49-.43,24.72-.26,5.67.08,11.38.08,17.05.09,2.61.43,4.97-.28,7.67-.23,5.73-.09,11.33-1.7,17.05-1.89"/><path class="b" d="M10.34,145.19c5.95-2.57,12.25-4.51,18.75-4.83,2.52-.17,5.14-.21,7.67-.14,1.66.1,3.51,0,5.11.47,5.18,2.32,9.19,6.7,14.49,8.83,4.69,2.51,9.8,5.9,15.34,4.23.77-.19,1.76-.57,2.56-.54,1.06.25,2.33.48,3.41.61,2.51.32,5.14.37,7.67.37,7.38-.08,14.79.17,22.16-.24,1.38-.18,2.89.09,4.26.19,1.36.08,2.9.06,4.26-.02,6.52-.45,13.07-1.04,19.6-.86,6.24.1,12.51.47,18.75.57,1.95.09,4.01.61,5.97.22,3.36-.46,6.86-.18,10.23-.7,3.68-.5,7.36-1.44,11.08-1.67"/><path class="b" d="M10.34,145.59c11.19-5.31,20.8-8.27,33.24-5.34,1.32.49,2.36,1.91,3.41,2.8,2.05,1.95,4.26,3.99,6.82,5.25,3.19,1.35,6.68,3,10.23,2.32.79-.15,1.81-.46,2.56-.76.47-.29,1.18-.41,1.7-.26,5.27,1.36,10.8,1.21,16.2,1.13,7.95-.13,15.92.25,23.87-.15,2.24.14,4.58.32,6.82-.04,2.81-.34,5.73-.4,8.52-.84,3.36-.61,6.81-.86,10.23-.68,8.81.33,17.62,1.63,26.42,1.7,3.38-.23,6.85,0,10.23-.34,3.7-.33,7.39-1.25,11.08-1.64"/><path class="b" d="M10.34,145.67c6.98-2.28,13.84-5.55,21.31-5.75,4.91-.22,9.84.78,14.49,2.3,1.78,1.01,3.14,2.96,5.11,3.89,2.04,1.1,4.53,1.45,6.82,1.22,1.11-.05,2.31-.79,3.41-.51,7.61,1.39,15.35-.17,23.01-.11,5.68-.05,11.38.47,17.05.63,5.95.12,11.95.07,17.9-.07,6.01-.12,11.93-1.53,17.9-2.01,4.24.58,8.52,1.38,12.79,1.78,4.23.41,8.54.39,12.79.35,3.39-.05,6.84.09,10.23-.03,2.83-.14,5.72-.55,8.52-.92"/><path class="b" d="M10.34,143.97c7.7-.6,15.21-3.4,23.01-2.84,7.2.2,14.14,2.96,21.31,2.89,8.05-.04,15.83-2.77,23.87-2.99,8.6-.46,17.05,1.62,25.57,2.38,1.09.02,2.32.52,3.41.59,1.08.11,2.33-.26,3.41-.22,3.67,0,7.41.09,11.08.23,3.69.1,7.44-.27,11.08-.88,2.19-.24,4.65-1.08,6.82-.86,3.89.95,7.91,1.79,11.93,1.76,1.66,0,3.46-.14,5.11-.32,1.37-.15,2.9-.42,4.26-.06,1.93.31,4.02.49,5.97.29,1.39-.07,2.88-.7,4.26-.71,3.36.51,6.82.94,10.23.78"/><path class="b" d="M10.34,139.97c5.05.88,10.24.65,15.34.55,3.96-.09,7.97.05,11.93.11,1.95.02,4.02-.03,5.97-.21,1.08-.07,2.33-.38,3.41-.3.44.19,1.23.44,1.7.49,1.45.12,2.97-.48,4.26-1.08,1.7-.78,3.54-1.61,5.11-2.63,2.22-.73,4.55-1.45,6.82-2.04,8.06-2.2,16.62-2.08,24.72-.11,3.12.71,6.27,1.59,9.38,2.36,2.38,1.91,5.29,4.04,8.52,3.4,1.44-.22,2.86-1.07,4.26-1.38,1.36.06,2.9-.02,4.26.06,3.41.2,6.82,1.01,10.23,1.31,4.29.45,8.62-.4,12.79-1.38,7.65,2.33,11.28,1.76,18.75-.88,1.99-.03,4.03.79,5.97,1.17,5.37,1.47,10.11,1.8,15.34-.52.77.17,1.8.47,2.56.66"/><path class="b" d="M10.34,134.14c6.69,1.47,13.63,1.99,20.46,1.39,3.15-.18,6.28-1.06,9.38-1.54,4.67,5.05,7.18,3.47,11.93-.25,3.28-2.28,6.84-4.28,10.23-6.41,1.75-1.26,3.89-1.39,5.97-1.5,2.81-.17,5.72-.11,8.52.18,6.16.59,12.11,2.51,17.9,4.61,1.32.44,2.34,1.85,3.41,2.68,2.34,2.03,5.21,4.43,8.52,3.83,2.12-.32,3.95-1.78,5.97-2.37,1.37,0,2.9-.06,4.26.1,8.06,1.09,12.79,3.81,21.31,1.37,1.41,0,2.86.76,4.26.88,3.94.64,7.76-1.18,11.08-3.11.73-.4,1.68-1.13,2.56-1.12,1.97.06,4.04.33,5.97.73,6.48,1.26,12.87,4.8,19.6,3.21"/><path class="b" d="M10.34,127.39c7.08.84,14.34.7,21.31-.9,3.3,2.05,5.32,6.41,9.38,7.31,3.99.28,7.28-4.93,10.23-7.18,1.71-1.55,3.89-2.58,5.97-3.51,2.17-1.01,4.49-1.97,6.82-2.57,2.76-.83,5.68-.86,8.52-.54,4.95.38,9.87,1.52,14.49,3.33,2.56.98,5.16,2.15,7.67,3.24.77.7,1.8,1.69,2.56,2.41,3.92,3.7,7.4,6.56,12.79,3.55.76-.38,1.8-.92,2.56-1.31.76,0,1.8-.06,2.56-.06,4.34.02,8.55,1.46,12.79,2.23,3.37.69,6.88.48,10.23-.24,3.09,1.15,6.58.75,9.38-.97,1.45-.83,2.95-1.93,4.26-2.96,2.7-.88,5.7-.99,8.52-.98,3.46.09,6.94.83,10.23,1.87,3.66,1.16,7.28,2.7,11.08,3.36"/><path class="b" d="M10.34,120.81c3.4-.17,6.86-.53,10.23-1.02,9.2,2.75,13.71,14.97,20.46,8.98,4.45-3.81,7.58-9.86,13.64-11.34,4.44-1.11,9.06-1.52,13.64-1.42,3.99-.06,8.09,0,11.93,1.18,5.73,1.67,10.82,4.97,16.2,7.47,5.55,4.4,7.87,8,15.34,4.13,1.26-.6,2.9-.37,4.26-.46,2.84.01,5.74.49,8.52,1.02,4.19.81,8.53,1.55,12.79.82,1.08-.04,2.33.37,3.41.3,1.45-.04,3-.56,4.26-1.25,1.13-.61,2.33-1.59,3.41-2.28,1.35-.47,2.89-.99,4.26-1.4,4.12-1.26,8.47-2.08,12.79-1.94,5.61.09,10.93,2.2,16.2,3.92"/><path class="b" d="M10.34,117.79c12.9-1.84,18.46,13.2,25.57,8.21,4.78-3.46,7.42-9.48,12.79-12.22,3.43-1.64,7.4-1.05,11.08-1.17,4.81.02,9.68-.03,14.49.02,6.41.35,11.7,4.52,17.05,7.63,2.42,1.44,5.02,2.8,7.67,3.76.76.27,1.83.58,2.56.94.72.5,1.75,1.1,2.56,1.45,2.44,1.13,5.26.62,7.67-.33,1.66-.09,3.45-.23,5.11-.26,6.56-.18,13.05,1.5,19.6,1.22,1.66-.19,3.48.26,5.11-.21.8-.21,1.84-.65,2.56-1.07,1.68-.47,3.47-1.07,5.11-1.66,12.56-4.77,18.83-7.03,32.39-3.67"/><path class="b" d="M10.34,115.89c5.15.34,9.4,3.56,13.64,6.17,2,1.22,4.56,2.23,6.82,1.08,4.3-2.32,6.79-6.91,10.23-10.23,4.26-4.43,7.22-3.68,12.79-3.71,5.1,0,10.24,0,15.34,0,1.66.03,3.47-.11,5.11.16,4.2.81,7.68,3.62,11.08,6.04,8.02,5.97,12.28,7.51,22.16,8.19,5.09.05,10.24-.57,15.34-.47,5.11-.02,10.24.55,15.34.54,4.95.04,9.9-1.09,14.49-2.91,11.88-4.92,15.41-7.48,28.98-7.16"/><path class="b" d="M10.34,114c4.32,1.14,7.84,4.17,11.93,5.82,7.64,2.98,12.58-10.14,18.75-13.11,2.06-1.17,4.55-.85,6.82-.89,3.39,0,6.84,0,10.23,0,3.1,0,6.27,0,9.38,0,2.3-.06,4.76-.05,6.82,1.12,4.1,2.18,7.35,5.71,11.08,8.42,5.49,4.29,11.1,5.23,17.9,4.9,4.53-.14,9.11.06,13.64.02,5.39-.06,10.81-.49,16.2-.36,4.82.11,9.68.68,14.49.16,7.21-.66,13.29-4.97,19.6-8.11,4.51-2.25,9.57-3.24,14.49-4.15"/><path class="b" d="M10.34,112.02c4.25,1.61,8.9,6.48,13.64,4.27,5.57-3,8.29-9.46,13.64-12.75,1.77-1.13,3.94-1.17,5.97-1.1,5.67,0,11.38,0,17.05,0,6.49.06,8.47-.86,13.64,3.89,4.93,4.45,9.81,10.58,17.05,10.57,2.84.03,5.71-.54,8.52-.84,1.94-.22,4.01-.35,5.97-.33,1.95.35,3.95,1.12,5.97,1.15,1.67.14,3.45-.21,5.11-.24,1.65.16,3.45.28,5.11.27,3.97,0,7.97-.62,11.93-.86,2.57-.33,5.1.92,7.67.86,1.09.03,2.34-.34,3.41-.46,1.94.21,4.01.46,5.97.46,6.55.14,11.91-4.15,17.05-7.67,4.13-2.76,8.83-4.83,13.64-6.07"/><path class="b" d="M10.34,109.88c2.7,1.4,5.38,3.5,8.52,3.63,5.83-.35,10.03-8.63,14.49-12.02,1.44-1.18,3.23-2.22,5.11-2.41,2.24-.09,4.58-.02,6.82-.04,5.95.03,11.95-.05,17.9.03,3.56.47,6.15,3.44,8.52,5.87,2.59,2.72,5.14,5.79,8.52,7.54,3.51,1.92,7.54.64,11.08-.49,3.28-.93,6.79-2.07,10.23-1.75,4.34,1.71,8.92,3.32,13.64,3.26,1.38-.03,2.91-.22,4.26-.47,2.21.43,4.58.62,6.82.32,1.98-.25,4.03-.75,5.97-1.22.75-.18,1.8-.43,2.56-.55.41.06,1.29.22,1.7.31,4.17.87,8.82,2.87,12.79.34,2.83.23,5.6,1.62,8.52,1.22,4.4-.51,7.82-3.79,11.08-6.5,1.84-1.59,3.91-3.14,5.97-4.44,2.08-1.36,4.36-2.74,6.82-3.26"/><path class="b" d="M10.34,107.55c3.2,1.93,6.76,3.82,10.23,1.33,5.56-3.72,8.63-11.01,15.34-12.99,1.63-.37,3.45-.2,5.11-.24,2.53,0,5.14,0,7.67,0,2.24,0,4.58,0,6.82,0,1.38,0,2.94-.07,4.26.39,7.1,2.36,11.01,14.34,18.75,14.05,4.6-.76,8.34-4.1,12.79-5.36,5.1,1.28,10.24,2.55,15.34,3.82,4.43,1.08,9.1,2.2,13.64,1.11,1.09-.07,2.32.42,3.41.45,2.67.16,5.29-.91,7.67-2,.76-.35,1.8-.84,2.56-1.18,1.66-.3,3.49.15,5.11.49,5.4,1.27,10.3,4.94,15.34.57,1.17.11,2.32.97,3.41,1.35,1.85.8,4.08,1.1,5.97.25,4.39-2.14,7.36-6.38,11.08-9.43,1.99-1.77,4.12-3.87,6.82-4.41"/><path class="b" d="M10.34,105.01c3.23,1.9,6.24,2.5,9.38.06,5.27-3.9,8.68-10.7,15.34-12.49,3.05-.61,6.28-.22,9.38-.32,2.81.1,5.76-.28,8.52.32,8.56,1.49,12.64,14.52,19.6,14.11,2.96-.47,5.17-2.86,7.67-4.29,7.85,1.64,15.94,1.49,23.87,2.53,5.36.49,10.82,2.71,16.2,1.31.8-.27,1.77.23,2.56.38,1.4.27,2.98-.02,4.26-.59,2.45-1.12,4.63-2.94,6.82-4.48,2.15-.73,4.64-.42,6.82.03,4.55.91,8.23,4.33,12.79,5.14,2.28.31,4.15-1.3,5.97-2.38,4.56,3.68,7.26,2.87,11.08-1.21,1.71-1.82,3.52-3.81,5.11-5.73,1.68-1.89,3.43-4.3,5.97-5.04"/><path class="b" d="M10.34,102.27c4.44,2.4,7.82.29,11.08-2.85,3.24-3.05,6.23-6.67,10.23-8.77,2.85-1.52,6.2-1.8,9.38-1.77,2.25.04,4.69-.24,6.82.68,3.52,1.6,6.56,4.3,9.38,6.91,2.78,2.47,6.02,7.57,10.23,6.74,1.2-.33,2.45-1.16,3.41-1.93.45-.16,1.28-.1,1.7.1,1.06.27,2.33.53,3.41.69,3.93.58,7.97.64,11.93.59,5.95-.06,11.94-.67,17.9-.35,4.81.1,9.8,2.03,14.49.27,3.54,1.55,5.82.43,8.52-2,2.01-1.73,3.8-3.96,5.97-5.49,4.91-1.63,10.32-.38,14.49,2.53,3.26,1.91,6.26,5.57,10.23,5.72,1.58-.02,2.84-1.32,4.26-1.76,2.82,2.57,5.13,2.1,7.67-.52,1.89-1.89,3.62-4.21,5.11-6.41,1.44-1.97,2.87-4.42,5.11-5.56"/><path class="b" d="M10.34,99.34c6.68,2.7,11.47-4.74,16.2-8.22,4.26-3.69,9.76-5.31,15.34-5.06,4.63,1.27,7.61,5.86,11.08,8.91,2.99,2.46,7.03,6.85,11.08,4.02.81-.08,1.79.34,2.56.51.76.17,1.79.32,2.56.38,2.53.19,5.15,0,7.67-.09,4.53-.21,9.11,0,13.64.14,5.39.21,10.81-.36,16.2-.33,2.82,0,5.7.43,8.52.35,1.41-.01,2.89-.59,4.26-.83,3.92,2.37,6.95-.85,9.38-3.68,2.16-2.32,4.02-5.38,6.82-6.97,5.72-1.97,12.36-.91,17.05,2.95,2.39,1.85,4.54,4.19,6.82,6.17,2.33,2.06,4.76,3.25,7.67,1.43,4.04,3.17,7.45-2.98,9.38-5.86.75-1.23,1.77-2.93,2.56-4.14.51-1,1.54-1.73,2.56-2.14"/><path class="b" d="M10.34,96.25c3.75,1.14,7.36-1.06,10.23-3.29,2.75-2.1,5.47-4.44,8.52-6.09,2.85-1.56,6.13-2.46,9.38-2.5,2.74-.14,3.2.4,5.11,2.22,2.04,1.98,3.95,4.33,5.97,6.34,2.35,2.44,6.01,4.81,9.38,2.93,3.02,1.4,6.38.33,9.38-.58,2.76-.84,5.64-1.6,8.52-1.82,6.07-.53,11.98,1.36,17.9,2.37,5.61.96,11.38.71,17.05.69,1.08-.03,2.36-.15,3.41-.38.78-.17,1.75-.67,2.56-.41.73.34,1.76.71,2.56.8,4.28.09,6.9-5.2,9.38-8.07,4-5.03,5.34-6.33,11.93-6.29,8.92-.29,12.84,1.01,18.75,7.9,2.43,2.47,4.76,6.21,8.52,6.48,1.07-.24,2.39.21,3.41-.31,1.83-.89,2.9-2.95,4.26-4.36,1.65-1.55,3.39-3.29,5.11-4.76"/><path class="b" d="M10.34,93.04c4.79.81,8.95-2.37,12.79-4.77,3.13-2.01,6.53-3.88,10.23-4.55,2.22-.41,4.61-.39,6.82.11,1.46.17,2.45,1.73,3.41,2.69,1.05,1.17,2.3,2.56,3.41,3.66,1.95,2.03,4.84,3.85,7.67,2.5,2.75,1.07,5.28.02,7.67-1.38,2.48-1.41,5-2.97,7.67-3.99,13.42-5.35,23.44,5.24,36.65,5.3,1.37.04,2.9.02,4.26-.12.77-.08,1.78-.32,2.56-.23,1.07.25,2.33.6,3.41.79,6.43,1.2,10.06-9.01,14.49-12.51.92-.8,2.19-1.56,3.41-1.77,1.94-.16,4.02-.04,5.97-.07,3.96,0,7.97,0,11.93,0,7.69.26,10.83,8.75,16.2,12.95,4.44,3.99,9.46-.88,12.79-3.98"/><path class="b" d="M10.34,89.78c8.64-.1,15.13-8.09,24.72-7.52,2.33.1,4.7.73,6.82,1.68,1.6,1.62,3.22,3.5,5.11,4.79,1.8,1.24,3.1,1.11,5.11.79,1.07.34,2.37.32,3.41-.1,2.52-1.08,4.64-3.07,6.82-4.67,2.79-2.14,5.94-4.04,9.38-4.92,10.06-2.66,18.31,2.56,27.28,6.08,2.17.79,4.52,1.41,6.82,1.66,2.03,1.3,4.34,2.43,6.82,2.22,6.15.23,9.4-4.69,12.79-9.02,1.64-2,3.44-4.35,5.97-5.23,1.62-.38,3.46-.14,5.11-.21,2.53,0,5.14,0,7.67,0,2.81,0,5.71,0,8.52,0,1.95.07,4.1-.25,5.97.47,7.68,2.99,9.66,16,15.34,13.67,2.72.99,5.53-.59,7.67-2.19"/><path class="b" d="M10.34,85.77c6.69-1.6,12.6-5.98,19.6-6.37,2.81-.11,7.36.13,9.38,2.28,2.53,2.21,5.66,5.88,9.38,4.3,9.73,3.32,11.7-16.49,34.95-11.26,5.11,1.2,9.73,3.89,14.49,6.01,2.97,2.43,5.75,6.92,10.23,5.34,1.42-.47,2.91-1.26,4.26-1.89,1.08-.48,2.41-.94,3.41-1.59,2.97-1.92,5.22-4.87,7.67-7.37,2.28-2.4,4.27-3.57,7.67-3.3,5.95,0,11.95,0,17.9,0,2.24,0,4.58,0,6.82,0,1.37,0,2.95-.1,4.26.38,5.51,1.24,9.24,18.02,15.34,13.11,1.8.97,4.02,1.26,5.97.58"/><path class="b" d="M10.34,79.77c4.47-1.74,8.86-3.98,13.64-4.76.75-.12,1.79-.24,2.56-.28,1.15.09,2.38.73,3.41,1.22,3.9,1.87,7.02,5.25,11.08,6.77.74.23,1.79.34,2.56.21.78-.15,1.76-.65,2.56-.75,10.95,5.09,10.8-16.54,35.8-11.96,2.93.55,5.83,1.61,8.52,2.89,4.12,2.95,8.52,13.03,14.49,8.81,1.13-.62,2.11-1.99,3.41-2.22,2.73.04,5.45-.9,7.67-2.47,4.28-2.76,7.62-7.43,12.79-8.58,1.94-.25,4.02-.08,5.97-.12,7.38,0,14.78,0,22.16,0,1.68,0,3.53-.1,5.11.56,3.49,2.34,5.19,6.66,7.67,9.92,1.39,1.81,3.35,4.54,5.97,3.82.49-.2,1.33-.81,1.7-1.18,0,0,.85-.18.85-.18,1.01.55,2.28,1.06,3.41,1.31"/><path class="b" d="M10.34,75.42c5.98-2.02,12.19-1.69,17.9,1.01,2.76,1.16,5.5,2.79,8.52,3.15,1.42.14,3-.25,4.26-.89.77-.37,1.65-1.19,2.56-1.15,6.13,4.7,9.38.27,13.64-4.08,2.64-2.7,5.73-5.22,9.38-6.36,5.22-1.56,10.93-1.36,16.2-.13,3.94,1.69,6.49,5.66,9.38,8.68,4.07,4.59,6.64,5.53,11.08.64,12.72,3.15,15.13-5.57,24.72-10.28,2.66-1.2,5.69-.79,8.52-.85,3.67,0,7.41,0,11.08,0,3.1,0,6.28,0,9.38,0,3.03-.09,6.65.01,8.52,2.78,3.11,3.41,6.2,11.07,11.08,11.68.89-.07,1.91-.7,2.56-1.29.29-.42,1.15-1.11,1.7-1.16l.85.43"/><path class="b" d="M10.34,73.2c3.13-.08,6.32.28,9.38.96,2.82.6,5.66,1.51,8.52,1.92,4.82.88,9.2-1.81,12.79-4.73,4.45,4.23,7.57,7.32,12.79,1.94,6.96-7.49,11.4-11.14,22.16-10.44,6.39.11,10.69,8.41,15.34,12.03,3.58,2.92,5.82.38,8.52-2.11,3.98,1.67,8.57,2.45,12.79,1.29,5.26-1.74,9.12-6.06,13.64-9.06,5.97-4.25,11.08-3.1,17.9-3.24,3.1,0,6.28,0,9.38,0,2.83,0,5.78-.1,8.52.68,1.09.29,2.37.75,3.41,1.19,1.58,1.47,2.96,3.47,4.26,5.19,1.91,2.54,4.03,5.28,6.82,6.91,1.7,1.01,3.76.21,5.11-1.02"/><path class="b" d="M10.34,71.13c7.43,1.54,13.44,3.2,20.46-.96,3-1.56,5.58-4,8.52-5.63,2.81,2.73,5.4,7.3,9.38,8.27,7.2-.15,9.49-13.73,25.57-12.82,4.8.76,9.7,8.54,13.64,11.46,3.33,2.78,6.11.75,8.52-2.02,3.22,1.47,6.66,2.64,10.23,2.77,3.17.21,6.51-.09,9.38-1.56,6.5-3.17,11.65-8.93,18.75-10.92,3.85-1.14,7.95-1.24,11.93-1.27,4.26-.01,8.59.08,12.79.87,1.68.31,3.47.77,5.11,1.25,1.12.37,2.56.56,3.41,1.45,3.17,3.31,8.64,11.49,13.64,10.74"/><path class="b" d="M10.34,68.92c10.68,2.89,18.36-7.33,27.28-11.22,1.41.58,2.42,2.22,3.41,3.31,1.9,2.34,3.69,5.05,5.97,7.06,2.77,2.53,5.33,1.03,7.67-1.17,3.93-3.75,8.09-7.87,13.64-8.88,1.63-.24,3.51-.69,5.11-.16,2.52,1.68,4.72,3.97,6.82,6.14,2.51,2.34,5.48,6.48,9.38,5.13.85-.35,1.87-1.08,2.56-1.69.3-.41,1.17-1.03,1.7-1.07,4.13,2.37,8.93,3.16,13.64,3.05,3.14.04,6.41.02,9.38-1.14,4.21-1.54,7.99-4.13,11.93-6.22,6.22-3.49,13.35-5.15,20.46-5.02,4.56.01,9.14.63,13.64,1.34,1.36.21,2.89.44,4.26.62.78.09,1.86.14,2.56.56,3.63,3.45,7.15,7.58,11.93,9.41"/><path class="b" d="M10.34,66.05c4.37-.21,7.79-3.52,11.08-6.06,3.37-2.74,6.94-5.49,11.08-6.93,1.05-.36,2.32-.71,3.41-.91.5-.18,1.24-.1,1.7.16,3.72,2.4,5.8,6.68,8.52,10.05,3.02,3.87,5.34,5.04,9.38,1.55,2.7-2.22,5.36-4.72,8.52-6.28,1.57-.78,3.38-1.37,5.11-1.65.78-.13,1.84-.31,2.56.14,3.8,2.96,6.74,7.21,11.08,9.43,2.79,1.39,5.7-.57,7.67-2.49,7.67,3.72,9.79,2.98,17.9,2.74,2.24-.02,4.58.34,6.82.2,5.67-.51,10.84-3.27,16.2-4.98,4.4-1.5,9.01-2.52,13.64-2.95,5.94-.59,11.95-.25,17.9-.38,1.66-.04,3.46-.15,5.11-.34,1.07-.08,2.33-.46,3.41-.32,3.2,2.56,6.49,5.24,10.23,6.98"/><path class="b" d="M10.34,61.9c8.37-5.45,11.04-14.25,23.01-13.7,1.95.12,4.18-.39,5.97.56,4.5,3.08,6.31,8.81,10.23,12.47,5.31,5.05,10.04-5.48,19.6-6.75,1.62.78,2.89,2.45,4.26,3.58,2.39,2.08,5.12,4.74,8.52,4.57,1.16-.12,2.43-.66,3.41-1.27.76-.45,1.64-1.32,2.56-1.44,10.31,5.59,14.1.49,23.87,1.99,1.65.3,3.43.72,5.11.73,3.43.04,6.86-.69,10.23-1.25,4.78-.84,9.65-1.45,14.49-1.77,6.81-.49,13.72-.51,20.46-1.77,2.28-.43,4.64-1.06,6.82-1.87,1.4-.41,2.8-1.45,4.26-1.56,2.68,1.69,5.54,3.27,8.52,4.35"/><path class="b" d="M10.34,56.35c3.89-4.04,6.9-10.04,12.79-11.37,4.79-.4,9.68-.05,14.49-.17,2.76-.32,4.35,1.01,5.97,3.08,2.08,2.69,3.81,5.88,5.97,8.52,2.98,3.71,5.58,3.41,9.38,1.05,2.68-1.59,5.47-3.26,8.52-4.03,3.31,2.77,7.19,6.89,11.93,5.58,1.83-.46,3.43-1.76,5.11-2.51,9.79,4.58,11.68,2.44,21.31.84,1.96-.23,4.05-.11,5.97.36,1.94.52,3.95,1.27,5.97,1.42,4.52.39,9.11-.07,13.64-.08,6.81-.11,13.65.09,20.46-.16,8.32-.19,15.6-1.74,22.16-7.17,1.14.04,2.32.78,3.41,1.08,1.34.45,2.87.84,4.26,1.09"/><path class="b" d="M10.34,49.77c2.7-3.72,5.75-9,11.08-8.34,3.39,0,6.84,0,10.23,0,2.24,0,4.58,0,6.82,0,2.87-.2,4.13.31,5.97,2.56,3.39,3.71,6.67,13.25,12.79,11.72,2.65-.72,5.1-2.23,7.67-3.15,1.53.4,2.77,1.85,4.26,2.44,3.71,2.03,7.85.12,11.08-1.96,1.14-.05,2.34.62,3.41.94,1.64.58,3.41,1.18,5.11,1.54,5.83,1.47,11.36-1.68,17.05-2.35,1.96-.22,4.07-.05,5.97.51,2.21.74,4.46,1.71,6.82,1.87,7.64.63,15.36.15,23.01-.18,3.96-.19,7.98-.23,11.93.06,3.66.21,7.43.83,11.08.17,2.47-.45,4.85-1.65,6.82-3.2,1.45-.99,2.63-2.77,4.26-3.44,1.91.46,4,.66,5.97.65"/><path class="b" d="M10.34,42.87c1.48-2.01,3.27-4.57,5.97-4.83,3.96-.01,7.97,0,11.93,0,3.39,0,6.84,0,10.23,0,4.25-.17,5.07.09,7.67,3.52,3.43,4.41,6.66,12.89,13.64,10.53,4.59-1.72,2.72-.37,6.82.36,2.74.32,5.36-1.07,7.67-2.36,1.5-1.25,3.45-.35,5.11,0,2.25.58,4.56,1.32,6.82,1.84,3.06.75,6.32.76,9.38,0,5.26-1.3,10.77-3.62,16.2-1.78,2.46.92,5,1.91,7.67,1.97,4.25.26,8.58.04,12.79-.58,3.98-.59,7.95-1.61,11.93-2.17,3.94-.58,8.05-.51,11.93.44,5.55,1.19,11.13,5.02,16.19.44,1.48-1.11,2.61-3.04,4.26-3.9,1.67.09,3.47-.07,5.11-.36"/><path class="b" d="M10.34,36.54c.7-.68,1.61-1.5,2.56-1.77,1.65-.25,3.45-.07,5.11-.12,3.67,0,7.41,0,11.08,0,3.1,0,6.27,0,9.38,0,1.66.1,3.58-.32,5.11.44,4.95,3.47,6.44,10.57,11.93,13.44,1.29.6,2.88.71,4.26.43.78-.09,1.78.18,2.56.15,2.51-.05,4.59-1.72,6.82-2.62,2.8-.45,5.74-.33,8.52.18,7.82,1.59,12.26,3.72,20.46,1.38,4.14-1.06,8.54-2.12,12.79-1,1.69.39,3.4,1.22,5.11,1.52,4.5.63,9.19.42,13.64-.46,3.5-.73,6.88-2.11,10.23-3.33,4.85-1.81,10.22-3.03,15.34-1.71,2.69.65,5.28,1.95,7.67,3.31,1.87,1.03,3.83,2.3,5.97,2.67,3.37.44,5.65-2.8,7.67-4.99,1.7-.1,3.5-.49,5.11-1"/><path class="b" d="M10.34,31.5c1.04-.37,2.33-.21,3.41-.24,1.37,0,2.89,0,4.26,0,4.24,0,8.54,0,12.79,0,2.53,0,5.14,0,7.67,0,3.45-.22,4.65.37,6.82,3.02,6.42,8.34,7.6,14.54,19.6,9.76,10.13-3.53,15.96.09,25.57,1.53,4.28.55,8.56-.5,12.79-1.02,1.1-.25,2.36.14,3.41.43,1.05.24,2.33.43,3.41.52,4.81.23,9.68.28,14.49.18,13.04-1.42,26.01-4.48,39.21-4.11,2.71,1.72,5.92,5.51,9.38,3.57,1.23-.75,2.28-2.12,3.41-3,1.71-.22,3.51-.74,5.11-1.37"/><path class="b" d="M10.34,27.97c7.93-.3,15.93-.01,23.87-.11,1.95.08,4.05-.2,5.97.17,3.71,2,5.28,6.55,7.67,9.81,1.51,2.22,3.75,5.24,6.82,4.3.78-.07,1.78.21,2.56.17,2.7-.25,5.18-1.7,7.67-2.64,11.56-4.9,18.83.73,29.83,2.39,3.09.47,6.28.09,9.38.25,1.37.03,2.89-.21,4.26-.1,1.66.04,3.46.18,5.11.06,1.95-.23,4-.65,5.97-.63,2.83-.02,5.7.64,8.52.68,2.81-.25,5.7.03,8.52,0,3.68-.03,7.42-.34,11.08-.73,6.5-.7,13.05-1.49,19.6-1.44,2.83,1.43,4.6,3.6,7.67.76.57-.64,1.77-.67,2.56-.79,1.4-.25,2.94-.72,4.26-1.25"/><path class="b" d="M10.34,26.48c2.5-2.71,5.25-1.9,8.52-2.01,3.96,0,7.97,0,11.93,0,2.52.08,5.17-.18,7.67.14,4.24,2.13,6.17,8.91,9.38,12.45.85.94,2.05,1.98,3.41,1.86.45-.14,1.24-.26,1.7-.24,2.41.84,4.81-.74,6.82-1.92,1.91-1.18,3.92-2.45,5.97-3.4,10.44-5.04,19.9.3,29.83,3.67,2.82,1.97,5.25,2.32,8.52,1.31,2.24.11,4.6.07,6.82-.32,1.76-.26,3.44-1.18,5.11-1.72,4.68-1.51,9.2,1.16,13.64,2.31,1.34.32,2.9.43,4.26.17.76-.14,1.77-.55,2.56-.51,3.65.52,7.4.75,11.08.64,6.25-.18,12.5-.96,18.75-1.05,1.06,0,2.36-.11,3.41.12.67.44,1.75.9,2.56.96.84.01,1.88-.48,2.56-.97,2.29-.07,4.67-.52,6.82-1.31"/><path class="b" d="M10.34,26.14c2.03-2.69,4.9-5.39,8.52-5.05,2.53,0,5.14,0,7.67,0,1.95,0,4.01,0,5.97,0,1.71-.05,3.59,0,5.11.89,1.96.99,3.14,3.21,4.26,5,1.77,2.77,3.21,6.25,5.97,8.2.74.41,1.75.38,2.56.24.8.22,1.82.06,2.56-.29,3.16-1.68,5.63-4.52,8.52-6.59,4.79-3.76,11.05-5.24,17.05-4.46,1.88.1,3.57.73,5.11,1.8,2.43,1.54,4.66,3.55,6.82,5.43,3.11,2.73,6.86,5.7,11.08,3.37,1.12-.54,2.37-1.33,3.41-2.01,1.95-.18,4.06.03,5.97-.55,1.47-.35,2.92-1.19,4.26-1.84,2.13-.93,4.66-.83,6.82-.05,4.13,1.36,7.52,4.78,11.93,5.3,1.76.22,3.46-.72,5.11-1.08,3.62.73,7.38,1.11,11.08,1.1,5.96-.04,11.94-.78,17.9-.86,1.06-.01,2.35-.05,3.41.03.66.44,1.75.86,2.56.83.82-.08,1.82-.64,2.56-.98,1.7-.2,3.51-.65,5.11-1.27"/><path class="b" d="M10.34,25.78c2.48-3.1,5.35-6.46,9.38-7.44,2.2-.55,4.57-.56,6.82-.55,2.59.03,5.36.28,7.67,1.55,3.6,2.01,5.98,5.64,8.52,8.77,1.24,1.38,2.46,3.27,4.26,3.96,2.49.56,4.42-1.59,5.97-3.21,1.83-1.99,3.67-4.22,5.97-5.7,5.34-3.85,12.6-4.63,18.75-2.41,4.25,1.53,7.69,4.66,11.08,7.54,6.29,5.47,9.02,4.72,15.34-.11,1.03-.71,2.22-1.69,3.41-2.12.42.02,1.29.02,1.7-.01,1.75-.11,3.58-.68,5.11-1.51,1-.59,2.34-.07,3.41.04,1.97.35,4.04.85,5.97,1.41,1.6.34,2.96,1.64,4.26,2.54,3.27,2.5,7,5.06,11.08,2.6,0,0,.85-.22.85-.22,0,0,.85.19.85.19.74.16,1.8.36,2.56.48,2.5.4,5.13.6,7.67.58,7.39-.08,14.76-1.41,22.16-1.18,4.12,2.98,5.19-.47,8.52-1.91"/><path class="b" d="M10.34,24.79c2.56-2.64,5.16-5.55,8.52-7.17,3.69-1.78,8.22-1.84,11.93-.09,3.43,1.62,6.01,4.64,8.52,7.38,2.3,2.45,4.03,4.43,7.67,3.76,1.67-.56,3.04-2.03,4.26-3.24,1.54-1.62,3.28-3.3,5.11-4.58,6.02-4.61,14.56-5.3,21.31-1.87,3.08,1.51,5.83,3.76,8.52,5.87,2.26,1.71,4.74,3.72,7.67,3.92,6.99-.18,12.09-9.87,20.46-8.56,2.87.42,5.76,1.15,8.52,2.01,1.37.44,2.92.93,4.26,1.44.41.36,1.29,1.09,1.7,1.45,2.16,1.76,4.68,4.02,7.67,3.59,1.15-.11,2.25-1.12,3.41-1.01,1.64.37,3.44.68,5.11.86,8.84.91,17.61-1.44,26.42-1.8,1.06-.02,2.36-.24,3.41.03,1.98,1.87,4.44,2.79,6.82.87"/><path class="b" d="M10.34,23.04c6.66-5.58,12.91-10.25,21.31-4.58,3.25,2.03,5.68,5.58,9.38,6.84.78.17,1.79-.09,2.56-.19,2.24.93,4.38-.88,5.97-2.28,4.9-4.95,10.65-8.72,17.9-8.16,13.34.69,19.23,14.83,28.98,9.43,3.49-1.81,6.6-4.44,10.23-5.99,3.39-1.57,6.73-1.4,10.23-.32,3.45.9,6.87,2.11,10.23,3.3.4.15,1.3.46,1.7.62.38.37,1.29,1.11,1.7,1.46,2.17,1.86,5.02,3.04,7.67,1.36,2.8.42,5.68.91,8.52.85,4.57-.02,9.14-.82,13.64-1.57,3.09-.53,6.26-1.06,9.38-1.47,1.95-.29,4.06-.34,5.97-.89,1.84,1.41,3.5,3.63,5.97,3.92"/></svg>