<?xml version="1.0" encoding="UTF-8"?><svg id="a" xmlns="http://www.w3.org/2000/svg" width="1920" height="2400" viewBox="0 0 192 240"><defs><style>.b{fill:none;stroke:#fff;stroke-miterlimit:10;stroke-width:.3px;}.c{stroke-width:0px;}</style></defs><rect class="c" width="192" height="240"/><path class="b" d="M8.13,227.87c6.16-2.56,9.32-9.26,14.86-12.75,2.3-1.61,5.15-1.87,7.87-1.73,2.3,0,4.7,0,6.99,0,3.76.06,7.61-.14,11.37.09,7.03,1.38,10.31,7.71,14.86,12.44,3.43,3.51,6.13,2.5,9.62-.25,2.44-1.87,4.95-3.93,7.87-5,4.49-1.82,9.45-.12,13.11,2.71,2.25,1.57,4.38,3.67,6.99,4.62,1.88.66,3.88-.37,5.25-1.64.76-.65,1.6-1.88,2.62-2.16,9.06,4.89,12.93,4,22.73,3.91,8.17.07,16.41.44,24.48-1.16,3.41,1.97,4.92,1.46,7.87-.97,1.93-.58,4.13-.34,6.12-.25,2.04.14,4.12.73,6.12,1.08,2.28.32,4.71.26,6.99,0"/><path class="b" d="M8.13,224.75c5.75-.24,10.28-9.26,14.86-12.58,1.24-.98,2.8-1.87,4.37-2.15,2.58-.24,5.28-.05,7.87-.11,4.65,0,9.34,0,13.99,0,6.64.09,10.26,5.17,13.99,9.89,4.68,5.77,7.06,6.47,13.11,1.84,9.2-6.83,14.18-4.63,22.73,1.57,2.13,1.46,4.75,2.2,6.99.5.79-.53,1.66-1.59,2.62-1.81,9.08,4.44,13.36,2.33,22.73,2.29,4.95-.06,9.92.47,14.86.55,4.08.08,8.19-.37,12.24-.83,1.7,1.28,3.69.86,5.25-.42,1.08-.26,2.4-.22,3.5-.23,3.22-.05,6.45.63,9.62,1.08,2.29.21,4.7.19,6.99.06"/><path class="b" d="M8.13,220.99c6.4,2.25,11.92-10.67,17.49-13.49,1.55-.96,3.47-1.15,5.25-1.06,1.7,0,3.54,0,5.25,0,3.47,0,7.02,0,10.49,0,3.24-.05,6.74-.08,9.62,1.61,3.24,1.98,5.49,5.32,7.87,8.19,2.33,2.89,5.63,6.6,9.62,4.27,3.99-2.16,7.54-5.65,12.24-6.18,10.25-1.27,14.73,11.31,21.86,5.15,2.77,1.03,5.76,1.92,8.74,1.77,4.95-.37,9.88-1.51,14.86-1.37,7.59.08,15.13,1.71,22.73,1.35,2-.06,4.12-.2,6.12-.31.41.17,1.3.34,1.75.33.44-.09,1.33-.33,1.75-.48.77-.02,1.85-.03,2.62-.02,2.89,0,5.86.34,8.74.5,2.89.05,5.86-.1,8.74,0"/><path class="b" d="M8.13,217c8.29,4.59,13.32-13.54,21.86-14.01,6.98.03,14.01-.18,20.98.1,2.47.22,5.04.94,6.99,2.54,2.34,1.87,4.25,4.42,6.12,6.73,2.16,2.52,4.95,6.42,8.74,5.19,2.56-.94,4.71-2.88,6.99-4.32,3.51-2.39,8.14-3.81,12.24-2.13,2.88.97,5.41,2.83,7.87,4.56,2.65,1.82,4.71,2.87,7.87,1.4,4.66,1.43,8.55.48,13.11-.62,3.99-.89,8.16-1.26,12.24-.98,4.38.27,8.76,1.09,13.11,1.64,4.04.53,8.17.74,12.24.71,4.65-.08,9.34.07,13.99-.06,1.72-.06,3.55-.46,5.25-.7,1.99-.27,4.12-.27,6.12-.08"/><path class="b" d="M8.13,213.1c3.78,2.48,6.84.69,9.62-2.22,4.54-4.45,8.47-11.84,15.74-11.4,4.06,0,8.18-.04,12.24.04,4.18.17,8.84.29,12.24,3.05,3.02,2.42,5.25,5.8,7.87,8.62,2.6,2.84,5.24,4.26,8.74,1.82,3.17-2.1,6.02-4.9,9.62-6.3,1.47.14,2.97.92,4.37,1.35,2.3.82,4.69,1.69,6.99,2.5,2.28.81,4.67,1.64,6.99,2.32,1.08.5,2.29,1.25,3.5,1.39.46.04,1.31-.05,1.75-.19,1.69.24,3.55.29,5.25.03,3.24-.6,6.38-1.91,9.62-2.53,5.46-1.19,11.15-.73,16.61.21,4.63.78,9.3,1.68,13.99,2.05,5.23.38,10.52.53,15.74.17,2.68-.13,5.36-.84,7.87-1.76,2.23-.67,4.7-.77,6.99-.4"/><path class="b" d="M8.13,209.51c3.06,1.86,5.95,1.7,8.74-.54,2.54-1.98,4.72-4.56,6.99-6.83,1.04-1,2.24-2.26,3.5-3,.78-.18,1.84-.42,2.62-.59,5.72-1.24,11.63-1.92,17.49-1.62,6.41.27,9.85,1.84,13.99,6.78,2.53,2.6,4.83,6.7,8.74,7.13,2-.08,3.75-1.49,5.25-2.68,1.7-1.26,3.25-3.19,5.25-3.96,5.21,1.51,10.49,2.97,15.74,4.37,4.55,1.14,9.25,2.52,13.99,2.22,4.53-.39,8.63-2.85,13.11-3.52,5.8-1.1,11.75-.25,17.49.82,7.47,1.47,15.1,2.51,22.73,2.22.83-.17,1.84.34,2.62.52.45.03,1.34-.18,1.75-.4.65-.58,1.81-.75,2.62-.91.79-.18,1.87-.5,2.62-.79,3.59-1.69,6.36-3.04,10.49-2.14"/><path class="b" d="M8.13,206.27c3.38,1.69,6.6,1.3,9.62-.9,1.15-.69,2.19-2,3.5-2.38,6.62-1.51,12.69-4.82,19.23-6.58,5.09-1.28,11.05-1.95,15.74.88,4.21,2.33,8.54,10.34,13.11,10.05,2.85-.52,4.93-2.99,6.99-4.83.81-.14,1.84.15,2.62.3,1.4.27,2.97.55,4.37.79,4.65.79,9.35,1.54,13.99,2.35,5.73.9,11.84,2.45,17.49.37,5.86-2.35,12.04-3.66,18.36-2.9,5.27.51,10.49,1.73,15.74,2.42,5.78.76,11.69,1.05,17.49.41,5.37,4.53,8.01-6.94,17.49-4.54"/><path class="b" d="M8.13,203.55c1.11.05,2.39.29,3.5.34,1.1-.03,2.39-.17,3.5-.12,4.09-.03,8.28-.26,12.24-1.38,5.21-1.42,9.87-4.32,14.86-6.29,4.11-1.61,9.02-2.5,13.11-.4,4.1,1.91,7.84,8.2,12.24,8.17,2.07-.17,3.54-1.95,5.25-2.89,8.12.98,16.35.81,24.48,1.67,5.49.37,11.14,1.99,16.61.8,2.61-.69,5.23-1.67,7.87-2.22,4.57-1.03,9.36-.91,13.99-.32,10.67,1.47,21.62,3.55,32.35,1.47,3.05,2.44,4.81,1.41,7.87-.27,2.51-1.41,5.12-2.89,7.87-3.79"/><path class="b" d="M8.13,200.3c2.01.23,4.16.1,6.12-.4.79-.2,1.82-.58,2.62-.72.44.03,1.31.1,1.75.14,6.14.74,11.49,2.15,17.49-.42,5.1-1.93,10.05-5.43,15.74-4.95,1.52.55,2.9,1.79,4.37,2.46,1.34.76,3.07,1.14,4.37,1.95,2.5,1.85,5.02,2.87,7.87,1.02,10.78.77,21.58-1.15,32.35-.36,4.37.23,8.73,1.46,13.11,1.37,2.63-.19,5.27-.95,7.87-1.36,2.57-.44,5.26-.65,7.87-.62,8.47.22,16.87,1.84,25.35,1.79,5.24,0,10.68.19,15.74-1.38,3.93,3.61,8.84-.13,13.11-1.18"/><path class="b" d="M8.13,196.87c2.95-.17,5.94-.82,8.74-1.73,1.11-.36,2.41-.82,3.5-1.22.77-.36,1.83-.59,2.62-.17,6.79,2.36,11.14,4.71,18.36,1.81,2.83-1,5.72-2.24,8.74-2.49,2.02.87,4,2.15,6.12,2.77,3.68,1.08,7.57,1.09,11.37,1.07,6.12.05,12.3-.16,18.36-1.13,6.06-.91,12.21-2.23,18.36-1.54,1.42.15,2.99.43,4.37.76,1.12.57,2.22,1.65,3.5,1.9.8.14,1.83-.19,2.62-.28,1.38.29,2.96.36,4.37.33,4.94-.23,9.92-.53,14.86-.29,7.56.39,15.16.28,22.73.18,4.06-.05,8.19.31,12.24-.02,1.69-.03,3.66-.87,5.25-.97,2.92,1.76,6.47.98,9.62.41"/><path class="b" d="M8.13,192.8c3.83-.46,7.63-1.39,11.37-2.32,1.4-.35,2.96-.73,4.37-1.03.79-.16,1.82-.46,2.62-.25,2.83,1.36,5.69,2.95,8.74,3.77,4.67,1.41,9.36-.64,13.99-1.19,2.29.57,4.59,1.61,6.99,1.65,2.3.06,4.7.03,6.99-.15,2.59-.07,5.28.01,7.87.11,4.99.27,10.06-.09,14.86-1.53,6.28-1.78,12.56-4.62,19.23-4.09,2.42,1.97,4.31,5.85,7.87,5.67,1.28-.18,2.38-1.26,3.5-1.8,4.17,1.5,8.73,1.51,13.11,1.54,8.19.09,16.32-1.2,24.48-1.59,3.19-.12,6.46.03,9.62.49,2.9.39,5.83,1.12,8.74,1.36,2.04.2,4.13-.38,6.12-.74,1.69.32,3.51.74,5.25.75"/><path class="b" d="M8.13,189.16c8.15-.55,16.28-2.29,24.48-1.86,1.86-.13,3.55.88,5.25,1.46,2.5.88,5.23,1.24,7.87,1.22,3.77-.13,7.6.09,11.37-.07,1.14-.1,2.45-.44,3.5-.9.73-.39,1.82-.38,2.62-.38,4.69-.06,9.31,1.3,13.99,1.35,9.48.1,16.93-7.49,26.23-8.26,4.44,4.82,8.94,12.95,14.86,4.6.82-.04,1.84.35,2.62.53,1.39.32,2.96.55,4.37.66,7.93.62,15.78-1.19,23.61-2.11,4.63-.54,9.41-.63,13.99.32,4.82.8,9.19,3.42,13.99,4.18,2.29.19,4.7.02,6.99.06"/><path class="b" d="M8.13,186.14c8.15-.02,16.33-.41,24.48-.05,4.93.16,9.93.71,14.86.2,1.42-.16,3-.45,4.37-.84,1.1-.16,2.42-.3,3.5-.61,1.47-.3,2.87-1.39,4.37-1.5,6.03-.71,11.63,2.29,17.49,3.08,9.56.94,16.33-8.09,25.35-9.58,6.19,6.25,11.17,15.72,18.36,4.18,1.39-.28,2.96.29,4.37.26,2.6.13,5.29-.05,7.87-.36,10.1-1.35,20.52-4.32,30.6-1.28,4.32,1.18,8.23,3.54,12.24,5.47,2.46.99,5.25,1.12,7.87,1.15"/><path class="b" d="M8.13,183.03c9.32-.11,18.67-.06,27.98-.57,4.1-.26,8.26-.72,12.24-1.74,2.68-.6,5.24-1.87,7.87-2.61,6.4-1.71,12.53,1.6,18.36,3.83,7.98,3.35,13.64-1.91,20.11-5.79,1.64-.99,3.47-1.96,5.25-2.67.75-.29,1.8-.79,2.62-.53,4.08,3.39,8.85,11.23,14.86,9.88,3.2-1.24,5.07-4.6,6.99-7.26,1.35-.47,2.97-.24,4.37-.46,2.31-.23,4.71-.63,6.99-1.03,10.66-2.07,22.3-3.54,32.35,1.6,5.93,2.85,8.6,6.34,15.74,6.47"/><path class="b" d="M8.13,178.74c7.25-1.01,14.55-1.85,21.86-2.3,8.54-.52,17.17-1.12,25.35-3.78,5.5-1.18,10.93,1.17,15.74,3.64,3.26,1.6,6.75,3.52,10.49,3.21,3.55-.37,6.68-2.44,9.62-4.32,3.58-2.25,7.2-4.96,11.37-5.96,4.71,3.66,10.92,11.3,17.49,10.1,4.38-1.79,6.64-6.55,9.62-9.97,12.61-2.47,26.59-4.99,38.47,1.39,5.68,2.92,8.91,6.85,15.74,7.35"/><path class="b" d="M8.13,172.87c7.31-2.55,14.97-4.25,22.73-4.37,5.52-.17,11.09.24,16.61.03,2.92-.01,5.84-.72,8.74-.9,7.09-.2,13.05,4.21,19.23,7.03,4.6,2.2,8.78,1.62,13.11-.87,4.61-2.55,8.95-5.81,13.99-7.52.96.05,1.87.94,2.62,1.45,1.68,1.22,3.48,2.54,5.25,3.63,3.01,1.78,6.35,3.19,9.62,4.41,6.77,2.18,11.83-8.5,16.61-12.08.63-.67,1.73-.99,2.62-1.03,1.4-.18,2.97-.33,4.37-.42,5.53-.32,11.21-.26,16.61,1.08,4.07,1.01,7.89,3,11.37,5.32,1.71,1.11,3.47,2.46,5.25,3.47,2.13,1.18,4.6,1.92,6.99,2.3"/><path class="b" d="M8.13,169.98c5.89-1.83,11.64-4.19,17.49-6.17,1.99-.67,4.1-1.35,6.12-1.93,1.46-.47,2.84-.85,4.37-.49,5.24.63,10.45,1.93,15.74,2.15,10.58-.64,16.23,5.05,25.35,8.35,4.76,1.74,9.77-.1,13.99-2.4,3.97-2.09,7.94-4.4,12.24-5.77,1.84.38,3.5,1.76,5.25,2.45,2.2,1.08,4.63,1.85,6.99,2.46,3.56,1.08,6.75,3.48,10.49,3.94,6.55.38,11.63-8.45,16.61-11.99,1.52-1.13,3.33-2.32,5.25-2.56,2.89.02,5.88.14,8.74.58,4.72.67,9.18,2.69,13.11,5.33,2.33,1.49,4.61,3.29,6.99,4.69,2.14,1.2,4.59,2,6.99,2.46"/><path class="b" d="M8.13,168.51c7.13-1.03,13.75-4.11,20.11-7.35,2.56-1.28,5.22-2.6,7.87-3.7,1.35-.46,2.92-1.51,4.37-.92,3.21.85,6.41,2.02,9.62,2.86,1.97.55,4.13.73,6.12,1.17,4.59,1.02,8.88,3.13,13.11,5.11,3.84,1.77,7.94,3.53,12.24,3.45,4.93-.15,9.51-2.38,13.99-4.23,3.12-1.25,6.31-2.72,9.62-3.36,1.38.47,2.95.92,4.37,1.22,2.26.56,4.69.48,6.99.71,2.4.33,4.79,1.2,6.99,2.19,2.83,1.24,5.65,2.91,8.74,3.4,6.9.75,11.77-7.1,16.61-10.97,4.56-3.75,5.66-4.03,11.37-2.35,8.68,2.54,14.48,10.9,23.61,12.27"/><path class="b" d="M8.13,165.59c15.75,1,20.69-7.5,33.22-13.18,3.36.9,6.4,2.9,9.62,4.17,3.45,1.31,7.1,2.28,10.49,3.78,10.04,4.26,16.99,7.01,27.98,3.94,5.84-1.49,11.6-3.44,17.49-4.74,1.69-.25,3.55-.04,5.25-.35,2.3-.37,4.64-1.1,6.99-1.07,12.55-.31,18.93,11.86,27.1,5.68,4.55-3.34,7.54-8.52,12.24-11.67,2.72-.42,8.23,3.71,10.49,5.32,4.41,3.43,9.17,6.84,14.86,7.53"/><path class="b" d="M8.13,160.7c10,1.65,14.89,3.19,23.61-3.52,2.33-1.74,4.64-3.71,6.99-5.42,1.34-.86,2.77-2.14,4.37-2.43,3.3,1.82,6.26,4.33,9.62,6.04,7.69,3.59,15.86,6.86,24.48,6.79,5.86,0,11.71-.97,17.49-1.84,6.44-1.03,12.93-2.05,19.23-3.74,2.43-.61,4.81-1.76,6.99-2.97,1.09-.55,2.29-1.46,3.5-1.73,2.63-.19,5.38.17,7.87,1.03,4.95,1.64,8.75,5.46,13.11,8.14,3.34,2.12,6.22.86,8.74-1.83,2.77-2.87,5-6.41,7.87-9.19,7.57,4.39,12.37,11.29,21.86,11.91"/><path class="b" d="M8.13,154.6c5.13.51,9.86,2.84,14.86,3.88,8.94,1.7,14.15-7.65,20.98-11.52,2.64,2.12,5.08,4.67,7.87,6.6,10.07,6.69,20.99,5.14,32.35,4.48,9.32-.67,18.87-.25,27.98-2.62,4.19-1.05,7.86-3.54,11.37-5.97,2.45-1.64,5.04-3.38,7.87-4.28,3.68.01,7.45.99,10.49,3.11,2.59,1.77,4.82,4.19,6.99,6.43,2.02,1.96,4.81,5.22,7.87,3.42,3.38-2.22,5.18-6.22,7.87-9.13,6.16,5.02,10.68,9.69,19.23,9.67"/><path class="b" d="M8.13,148.31c11.1-.03,18.11,9.53,25.35,6.13,4.41-2.01,7.42-6.15,11.37-8.81,9.58,11.44,14.31,9.97,27.98,8.71,4.63-.29,9.37-.53,13.99-.09,2.84.62,5.84.76,8.74.79,2.89,0,5.89-.05,8.74-.61,2.61-.22,5.33-.43,7.87-1.13,5.07-1.27,9.04-4.93,13.11-7.98,2.36-1.76,5.01-3.4,7.87-4.19,3.67-.91,7.76-1.17,11.37.14,6.95,2.3,11.69,16.17,16.61,13.57,1.79-1.05,3.15-2.99,4.37-4.63,0,0,.87-1.22.87-1.22l.87-.46c5.01,4.64,9.61,7.11,16.61,6.64"/><path class="b" d="M8.13,142.67c12.99-1.25,18.23,8.41,26.23,9.07,4.65-.12,7.67-4.31,11.37-6.5,6.42,8.32,10,7,19.23,4.85,2.85-.6,5.83-.98,8.74-1.02.53-.04,1.33.27,1.75.57.76.4,1.81.88,2.62,1.16,4.5,1.72,9.35.55,13.99.28,1.71-.16,3.54.11,5.25.19,2.31.03,4.69.38,6.99.46,1.74.08,3.53-.5,5.25-.63,9.14-.61,14.04-9.43,21.86-12.87,3.28-1.44,6.98-1.35,10.49-1.33,1.4,0,2.97,0,4.37,0,1.43-.04,3.07-.02,4.37.68,4.81,2.82,6.8,8.6,10.49,12.54,3.08,3.51,5.74.32,7.87-2.33l.87.06c3.94,3.38,8.93,4.31,13.99,3.76"/><path class="b" d="M8.13,138.1c6.36-1.51,13.05.32,18.36,3.97,3.14,1.97,6.07,4.57,9.62,5.8,4.33,1.42,6.93-1.36,10.49-2.9,4.89,5.85,9.14,2.35,14.86.28,1.37-.43,2.91-1.21,4.37-1.08,2.22,1.32,4.52,2.77,6.99,3.56,4.45,1.52,8.91-.69,13.11-1.99,6.57,1.6,13.33,2.55,20.11,2.28,1.72.18,3.63.45,5.25-.37,2.12-.56,4.31-1.34,6.12-2.62,6.14-4.21,11.05-11.65,19.23-11.59,5.52.02,11.1-.13,16.61.07,4.61.48,7.69,8.45,10.49,11.77,2.53,3.38,4.63,3.99,7.87.91.52-.09,1.34.18,1.75.49.75.37,1.81.77,2.62.99,2.53.68,5.27.66,7.87.47"/><path class="b" d="M8.13,134.84c9.15-3.16,17.07-.16,24.48,5.39,5.26,3.63,8.36,5.86,14.86,3.59,3.51,2.58,7.35-.91,10.49-2.5,8.63,1.64,10.77,6.27,20.11,1.06,1.1-.58,2.39-1.3,3.5-1.88.45-.32,1.2-.55,1.75-.46,3.16,1.03,6.38,2.17,9.62,2.95,4.83,1.17,9.9,1.56,14.86,1.24.48-.13,1.31,0,1.75.22.76.26,1.82.42,2.62.29,2.18-.41,3.9-2.21,5.25-3.86,4.58-3.51,8.31-8.63,13.99-10.42,2.82-.79,5.86-.41,8.74-.49,4.65,0,9.34-.02,13.99.01,3.87.19,5.75,1.29,7.87,4.55,2.47,3.3,4.25,7.64,7.87,9.87,1.7.89,3.69.06,5.25-.76,2.83.75,5.79,1.31,8.74,1.17"/><path class="b" d="M8.13,133.37c6.21-3.16,13.75-3.46,20.11-.55,3.99,1.71,7.54,4.37,11.37,6.4,3.17,1.78,6.91,2.44,10.49,1.96,1.36-.41,2.96-.57,4.37-.76,2.91-.31,5.87.36,8.74.75,6.79,1.22,12.01-4.04,17.49-7.07,9.32,2.83,18.9,7.2,28.85,5.14,1.83,1.04,3.9,2.67,6.12,1.82,5.17-2.73,6.91-9.73,11.37-13.41,2.36-1.4,5.23-1.17,7.87-1.17,3.47,0,7.02,0,10.49,0,2.89,0,5.86,0,8.74,0,2.74-.04,5.93-.24,7.87,2.07,4.4,4.1,7.58,14.11,14.86,12.59.81-.2,1.77-.85,2.62-.92,1.37.37,2.96.63,4.37.78"/><path class="b" d="M8.13,133.8c8.41-4.86,16.31-6.02,25.35-2.02,2.93,1.22,5.81,2.77,8.74,3.97,1.97.76,4.11,1.46,6.12,2.06,4.63-.15,9.36.3,13.99-.18,3.18-.39,6.16-1.92,8.74-3.75,2.35-1.51,4.47-3.68,6.99-4.89,10.66,1.57,21.52,7.6,32.35,3.79,1.8,1.27,3.32,3.17,5.25,4.29,4.47,2.84,7.41-3.55,9.62-6.48,2.74-3.89,5.02-8.24,10.49-7.59,2.59,0,5.28,0,7.87,0,3.47,0,7.02,0,10.49,0,2.7.01,5.66-.38,7.87,1.54,4.78,3.71,7.3,10.24,13.11,12.61,2.63,1.09,4.97.87,6.99-1.27.46-.1,1.31-.01,1.75.16"/><path class="b" d="M8.13,133.88c5.81-1.76,11.28-5.03,17.49-5.28,6.64-.5,12.95,2.06,19.23,3.81,1.26.9,2.76,1.93,4.37,1.94.81-.01,1.87-.32,2.62-.6,1.4.15,2.97.25,4.37.19,5.68.04,10.62-2.82,14.86-6.35,1.08-.79,2.23-1.98,3.5-2.46,1.7-.04,3.55.03,5.25.17,10.4.85,21.51,4.88,31.47-.01,3.6,2.39,5.69,6.86,9.62,8.83,5.23,2.01,9.96-12.14,16.61-14.05,3.36-1.03,7.03-.39,10.49-.56,3.47.14,7.11-.41,10.49.51,6.53,2.2,9.84,9.14,15.74,12.37,3.65,1.77,6.44,3.32,9.62-.32"/><path class="b" d="M8.13,129.94c5.76,2.42,11.76-.65,17.49-1.66,6.35-1.36,12.89-.62,19.23.41.93.1,1.82.99,2.62,1.4,1.02.54,2.34.88,3.5.75,1.15-.15,2.44-.63,3.5-1.11,2.69-.06,5.45-.64,7.87-1.83,2.51-1.18,4.76-3.01,6.99-4.62,1.08-.27,2.39-.54,3.5-.72,13.77-2.06,25.96,2,39.34-4.36,4.91,2.23,7.4,7.68,11.37,11.12,3.72,3.5,6.9.13,9.62-2.69,2.62-2.75,5.32-5.73,8.74-7.49,3.19-1.65,6.94-2.1,10.49-1.83,8.35.4,13.47,6.35,20.11,10.4,1.33.79,2.96,1.39,4.37,2,2.33,1.16,4.84,1.79,6.99-.13"/><path class="b" d="M8.13,126.52c.86-.64,1.9-1.68,2.62-2.47,1.17.39,2.36,1.27,3.5,1.75,1.63.74,3.47,1.28,5.25,1.48,6.15.52,12.22-1.41,18.36-1.56,2.89-.16,5.86-.14,8.74-.09.92,0,1.82.79,2.62,1.13,1.62.74,3.54.77,5.25.33,5.66-1.64,10.87-4.69,16.61-6.11,6.55-1.82,13.39-2.35,20.11-3.21,6.55-.73,12.95-2.45,19.23-4.38,7.22-2.71,12.17,6.38,16.61,10.61,2.73,2.84,5.84,4.53,9.62,2.39,3.53-1.87,6.73-4.51,10.49-5.96,3.85-1.57,8.23-1.74,12.24-.7,6.02,1.6,11.42,5.01,17.49,6.51,2.2.85,4.82,1.81,6.99.39"/><path class="b" d="M8.13,123.66c2.54-1.24,4.04-3.96,6.12-5.75,11.23,8.46,19.53,5.78,32.35,4.85,1.1-.04,2.42-.37,3.5-.02,1.57.84,3.47,1.26,5.25,1.16,3.92-.27,7.66-1.83,11.37-3.02,4.58-1.56,9.29-2.91,13.99-4.07,5.24-1.3,10.55-2.53,15.74-4.03,4.63-1.25,9.21-3.06,13.99-3.63,1.7-.13,3.54-.05,5.25-.07,1.41-.03,3.01,0,4.37.43,7.39,2.57,11.16,10.7,18.36,13.63,5.18,2.06,10.57-.72,15.74-1.47,3.44-.61,7.02-.69,10.49-.35,3.79.38,7.59,1.09,11.37,1.58,2.56.46,5.32,1.64,7.87.51"/><path class="b" d="M8.13,120.32c3.8-1.72,5.47-6.21,8.74-8.58,11.23,7.92,18.7,10.02,32.35,7.99,1.1-.12,2.39-.42,3.5-.39,1.35.55,2.92.92,4.37,1.04,3.23.26,6.5-.44,9.62-1.19,8.58-2.22,17.07-4.93,25.35-8.09,6.51-2.35,12.99-5.94,20.11-5.49,4.35.12,8.79-.27,13.11.21,3.92.73,7.32,3.12,10.49,5.42,4.09,3.01,8.24,6.26,13.11,7.89,6.47,2.22,13.43.96,20.11.85,2.59-.05,5.28-.13,7.87.05,2.29.21,4.74.75,6.99.05"/><path class="b" d="M8.13,116.7c4.31-2.7,6.31-8.07,10.49-10.97,12.07,6.85,21.14,13.82,35.85,10.3.8-.34,1.84-.14,2.62.14.78.2,1.83.42,2.62.54,2.28.33,4.7.31,6.99.09,6.6-.7,13.09-2.55,19.23-5.03,4.78-1.92,9.37-4.4,13.99-6.65,2.49-1.18,5.13-2.36,7.87-2.82,1.69-.26,3.54-.14,5.25-.16,6.11,0,12.25,0,18.36,0,4.68.02,9.15,1.91,13.11,4.27,4.09,2.4,7.99,5.25,12.24,7.36,5.62,3,12.11,3.46,18.36,3.13,2.88-.13,5.89.34,8.74-.21"/><path class="b" d="M8.13,112.59c4.1-3.71,6.44-9.37,11.37-12.2,12.2,3.69,23.1,16.11,36.72,12.38.79-.22,1.8-.65,2.62-.76,1.09.32,2.39.62,3.5.83,2.57.46,5.26.68,7.87.65,7.95-.07,15.81-2.32,22.73-6.19,4.69-2.49,9.03-5.8,13.99-7.76,3.31-1.34,7.01-.76,10.49-.88,5.23,0,10.51,0,15.74,0,3.77.06,7.61-.13,11.37.1,6.53.68,11.55,5.43,16.61,9.16,3.35,2.51,7.15,4.75,11.37,5.3,3.74.42,7.62.37,11.37.08"/><path class="b" d="M8.13,107.51c3.47-4.1,6.05-9.74,11.37-11.72,1.73.22,3.57.68,5.25,1.17,5.96,1.74,11.33,5.04,16.61,8.22,6.62,4.02,12.63,6.84,20.11,2.91,10.33,2.18,21.74,3.46,31.47-1.56,5.29-2.55,9.79-6.5,14.86-9.4,3.66-2.18,6.43-2.01,10.49-1.95,4.06,0,8.18,0,12.24,0,4.94,0,9.92,0,14.86,0,3.48.16,7.26-.59,10.49,1.01,5.08,2.6,8.49,7.53,13.11,10.76,4.22,3.28,9.78,3.16,14.86,2.96"/><path class="b" d="M8.13,101.25c2.58-3.54,5.11-8.05,9.62-9.29,6.94.03,14.03,1.45,20.11,4.91,3.32,1.83,6.44,4.13,9.62,6.18,2.39,1.51,5.02,3.03,7.87,3.41,3.35.4,6.64-1,9.62-2.37,3.75.69,7.59,1.22,11.37,1.7,3.75.45,7.59.93,11.37.67,6.61-.32,12.43-3.9,17.49-7.9,3.93-2.84,7.97-6.85,13.11-6.86,8.73,0,17.49,0,26.23,0,2.89,0,5.86,0,8.74,0,2.01.06,4.25-.29,6.12.65,4.63,2.53,7.37,7.45,11.37,10.76,3.71,3.44,8.35,3.49,13.11,3.41"/><path class="b" d="M8.13,94.2c1.77-2.21,3.86-5.48,6.99-5.53,3.18-.07,6.44-.09,9.62.07,10.63.33,16.41,3.7,24.48,10.13,6.04,4.76,9.44,5.16,16.61,2.6,1.1-.37,2.4-.82,3.5-1.19.79-.18,1.84,0,2.62.07,5.26.49,10.52,1.34,15.74,2.18,14.42,2.8,19.24-5.5,29.73-12.77,1.26-.83,2.83-1.59,4.37-1.53,2,0,4.12,0,6.12,0,9.9,0,19.83,0,29.73,0,1.46-.06,3.12-.02,4.37.85,2.83,1.92,4.82,4.97,6.99,7.55,4.53,5.68,7.66,6.82,14.86,6.39"/><path class="b" d="M8.13,88.09c9.78-2.62,22.82-4.39,32.35-.14,3.55,1.63,6.65,4.2,9.62,6.7,2.74,2.35,5.82,4.91,9.62,4.93,3.54.04,7.03-1.04,10.49-1.6,3.73-.67,7.58-.99,11.37-1.03,2.59.06,5.34-.25,7.87.42,5.13,1.05,10.51,3.25,15.74,1.62,4.42-1.44,8.05-4.68,11.37-7.82,2.39-2.26,4.63-5.19,7.87-6.24,2.27-.36,4.7-.08,6.99-.17,4.06,0,8.18,0,12.24,0,4.06,0,8.18,0,12.24,0,3.67.1,5.96-.77,8.74,2.42,4.13,4.2,6.65,11.35,13.11,12.34,2.01.28,4.13-.41,6.12.07"/><path class="b" d="M8.13,89.19c4.27-2.03,8.51-4.37,13.11-5.56,6.54-1.62,13.81-1.81,20.11.83,5.45,2.23,9.18,7.08,13.99,10.26,2.89,1.7,6.41,1.52,9.62,1.12,2.58-.3,5.27-.58,7.87-.63,7.58-.12,15.15.92,22.73.86,3.18.01,6.44.05,9.62-.19,1.7.13,3.56.44,5.25,0,8.33-1.88,11.16-11.86,18.36-14.39,2.27-.39,4.7-.1,6.99-.19,7.27,0,14.58,0,21.86,0,9.85-.69,10.85,15.53,20.11,14.78.76-.24,1.85.02,2.62.05,1.25-.05,2.57-.81,3.5-1.61"/><path class="b" d="M8.13,90.45c5.16-2.32,9.62-6.07,14.86-8.23,6.63-2.79,14.65-2.93,20.98.71,2.86,1.61,5.3,4.01,7.87,6.03,1.74,1.54,3.76,3.08,6.12,3.47,2.58.45,5.28.02,7.87-.16,2.88-.23,5.86-.23,8.74-.06,3.76.22,7.59.56,11.37.37,4.37-.18,8.74-1,13.11-1.17,2.6-.11,5.3.1,7.87.53,2.28.44,4.67.77,6.99.7,5.63-.11,8.7-5.92,12.24-9.49,4.79-5.26,7.14-5.54,13.99-5.34,3.18,0,6.44,0,9.62,0,2,.05,4.16-.18,6.12.32,7.04,1.49,13.02,15.28,19.23,14.47,2.23.3,4.51-.68,6.12-2.21.67-.69,1.69-1.71,2.62-2.03"/><path class="b" d="M8.13,89.15c3.5-.08,6.7-1.84,9.62-3.62,3.35-2.06,6.74-4.29,10.49-5.55,5.45-1.93,11.66-1.34,16.61,1.66.94.47,1.85,1.59,2.62,2.28,1.02.93,2.29,1.93,3.5,2.59,4.57,2.23,5.09,3.1,10.49,2.43,2.87-.34,5.85-.54,8.74-.38,3.18.15,6.43.61,9.62.58,3.25-.02,6.52-.7,9.62-1.62,9.95-3.15,14.86-4.49,24.48.76,4.83,2.26,8.12.04,11.37-3.55,3.13-3.33,6.15-7.22,10.49-9.01,3.29-1.33,6.99-1.3,10.49-1.24,8.99-.08,12.69,5.05,18.36,10.96,3.99,4.11,7.13,4.78,12.24,1.91,1.61-.99,3.12-2.49,4.37-3.9.58-.81,1.68-1.85,2.62-2.22"/><path class="b" d="M8.13,84.19c4.37,2.27,8.07,1.71,12.24-.61,5.84-3.27,12.27-7.09,19.23-5.64,2.44.45,4.85,1.49,6.99,2.72,1.03.94,2.29,2,3.5,2.7,1.64.83,3.49,1.59,5.25,2.12,3.46.57,7.01-.43,10.49-.28,4.64.01,9.39,1.05,13.99,0,4.68-1.02,8.82-3.64,13.11-5.63,6.85-3.35,13.95-3.97,20.11,1.16,2.67,1.95,5.08,5.35,8.74,4.95,7.67-1.17,11.77-15.16,26.23-11.88,4.93,1.22,8.62,5,12.24,8.33,2.9,2.6,4.65,3.89,8.74,3.51,2.52-.59,4.14-3.03,6.12-4.51,3.1-1.92,5.21-5.31,8.74-6.54"/><path class="b" d="M8.13,77.75c9.94,7.87,12.71,3.56,22.73-.26,3.89-1.42,8.26-1.71,12.24-.47,3.99,1.09,7.42,3.73,11.37,4.92,2.56.54,5.28.07,7.87.06,3.18-.09,6.44.32,9.62.16,11.94-.71,18.19-12.99,31.47-12.55,5.84-.1,10.07,4.77,13.99,8.47,2.85,2.66,5.46,5.48,9.62,3.45,5.36-2.87,10.05-8.1,16.61-7.73,3.88.12,7.42,2.15,10.49,4.36,2.41,1.61,4.85,3.86,7.87,4.05.79,0,1.83-.4,2.62-.26,1.49.63,3.21-.12,4.37-1.11,4.74-4.38,8.28-9.83,14.86-11.77"/><path class="b" d="M8.13,71.63c4.83,4.01,9.84,8.89,16.61,6.44,2.91-.89,5.78-2.17,8.74-2.9,3.7-.97,7.69-.94,11.37.12,3.54.89,6.85,2.88,10.49,3.35,2.59.2,5.28,0,7.87.08,2.91.05,5.95.05,8.74-.85,10.78-3.93,14.45-13.53,27.98-13.72,16.34-1.15,18.44,15.71,27.98,14.48,2.45-.49,4.72-1.85,6.99-2.81,3.8-1.78,8.25-2.31,12.24-.83,4.25,1.22,8.56,5.28,13.11,3.06.83-.06,1.82.53,2.62.66,2.5.26,4.52-1.84,6.12-3.48,4.07-4.71,8.45-9.39,14.86-10.6"/><path class="b" d="M8.13,66.54c4.64,3.66,9.31,8.99,15.74,8.69,2.97-.18,5.87-1.22,8.74-1.9,3.97-1.02,8.19-1.34,12.24-.58,3.52.56,6.94,1.99,10.49,2.37,7.43.34,13.19.44,19.23-4.5,5.11-3.91,9.83-9.42,16.61-10.09,2.58-.22,5.28-.08,7.87-.12,4.11.03,8.55-.39,12.24,1.77,6.67,3.54,10.56,14.39,19.23,12.9,5.14-1.16,9.49-2.77,14.86-1.41,2.59.53,5.2,1.6,7.87,1.57.79-.03,1.88-.25,2.62-.54.34-.27,1.31-.49,1.75-.42.38.21,1.33.58,1.75.71,5.4,1.56,9.46-5.81,13.11-8.8,3.11-2.87,7.2-4.71,11.37-5.37"/><path class="b" d="M8.13,62.6c5.37,4.18,10.98,9.89,18.36,9.12,3.21-.26,6.42-1.1,9.62-1.5,4.05-.57,8.22-.38,12.24.29,6.01,1.12,12.65,2.09,18.36-.7,4.34-2.2,7.62-6.02,11.37-9.04,2.9-2.49,6.6-4.19,10.49-3.84,4.06,0,8.18,0,12.24,0,3.5.08,7.29-.46,10.49,1.28,6.28,3.42,9.33,11.56,16.61,13.34,4.35.74,8.73-1.04,13.11-.62,4.36.2,9.02,1.91,13.11-.38,2.16.93,4.7,1.7,6.99.78,4.91-2.13,7.84-7.12,12.24-10.02,3.14-2,6.84-3.2,10.49-3.86"/><path class="b" d="M8.13,59.74c9.87,7.48,13.63,9.8,26.23,7.91,3.75-.43,7.59-.61,11.37-.4,6.09.23,12.71,1.98,18.36-1.16,3.69-2.01,6.55-5.29,9.62-8.09,2.48-2.42,5.24-4.08,8.74-4.42,4.34-.28,8.76-.05,13.11-.12,2.59,0,5.28,0,7.87,0,2.33-.01,4.84-.14,6.99.88,6.94,3.41,10.04,12.93,18.36,13.87,2.89.29,5.85-.36,8.74-.39,3.19-.14,6.43.48,9.62.46,1.11-.03,2.44-.25,3.5-.61,0,0,.87-.34.87-.34l.87.06c1.94.58,4.09,1.13,6.12.78,5.36-1.15,8.74-6.1,13.11-9.01,3.62-2.45,8.07-3.44,12.24-4.55"/><path class="b" d="M8.13,57.9c11.73,8.09,17.17,7.17,30.6,6.43,3.77-.15,7.6-.12,11.37-.03,3.19.07,6.56.33,9.62-.8,4.28-1.56,7.35-5.22,10.49-8.35,2.47-2.66,6.13-4.14,9.62-4.91,4.32-.55,8.77-.13,13.11-.26,3.18,0,6.44,0,9.62,0,3.01-.11,6.24-.02,8.74,1.88,5.25,3.79,8.22,10.89,14.86,12.64,1.96.42,4.13.35,6.12.21,1.08-.2,2.39-.41,3.5-.43,2.6-.15,5.29.12,7.87.39,2.32.25,4.82.21,6.99-.73,2.28.36,4.65,1.14,6.99.77,5.51-.88,9.28-5.6,13.99-8.17,1.83-1.11,4.07-1.59,6.12-2.11,2.01-.54,4.12-1.18,6.12-1.76"/><path class="b" d="M8.13,56.85c8.68,4.83,17.5,4.69,27.1,4.4,4.35-.09,8.76-.12,13.11-.19,2.89-.11,5.93.06,8.74-.69,4.41-1.24,7.49-5,10.49-8.23,1.08-1.39,2.85-2.19,4.37-2.97,1.91-.97,4.02-1.85,6.12-2.29,4.3-.72,8.77-.22,13.11-.36,4.35.01,8.76-.02,13.11.02,3.48.08,6.5,2.27,8.74,4.77,2.96,3.25,5.52,7.33,9.62,9.27,1.6.72,3.52.9,5.25.68.77.1,1.85.12,2.62.01,2.03-.22,4.05-1.2,6.12-1.09,4.38-.17,8.76,1.86,13.11.87.4-.14,1.33-.38,1.75-.49.41.11,1.33.31,1.75.4,2.9.7,6.06.4,8.74-.92,3.58-1.66,6.76-4.29,10.49-5.63,1.63-.62,3.54-.66,5.25-.95,2.03-.35,4.15-.91,6.12-1.53"/><path class="b" d="M8.13,55.94c5.91,1.87,12.22,1.9,18.36,1.92,6.11,0,12.25,0,18.36-.04,11.21-.09,13.63,0,20.98-8.98.99-1.44,2.89-2.03,4.37-2.82,3.25-1.62,6.82-2.93,10.49-2.99,6.98-.03,14,0,20.98,0,10.83-.03,12.91,14.54,21.86,14.83.77-.07,1.85-.14,2.62,0,1.11.03,2.43-.22,3.5-.54,2.59-.64,5.14-2.25,7.87-1.95,5.3.21,10.47,3.97,15.74,1.74,6.97,2.28,11.26-1.17,17.49-3.36,2.22-.83,4.67-.63,6.99-.66,2.03-.1,4.16-.48,6.12-1.01"/><path class="b" d="M8.13,54.18c4.34.34,8.76.17,13.11.19,5.52,0,11.09.04,16.61,0,3.47-.03,7.02.02,10.49.02,4.03.06,8.35-.27,11.37-3.27,2.27-1.94,3.93-4.71,6.12-6.72,8.78-4.1,11.12-5.15,20.98-4.85,4.06.01,8.18-.02,12.24.01,3.65,0,7.1,1.77,9.62,4.34,2.51,2.43,4.57,5.48,6.99,7.99,1.16,1.14,2.72,2.25,4.37,2.45,1.4-.06,2.99.13,4.37-.16,2.73-.69,5.26-2.22,7.87-3.25,1.36-.55,2.93-1.07,4.37-1.34,1.42.05,3.01.35,4.37.77,4.86,1.29,9.69,5.63,14.86,3.32,5.35,1.72,9.69-.26,14.86-1.27,2-.39,4.12-.17,6.12.07,2.3.17,4.72.03,6.99-.35"/><path class="b" d="M8.13,50.61c6.4-.51,12.84.04,19.23.25,4.65.15,9.34-.15,13.99-.21,2.6-.04,5.28.09,7.87.21,2.99.17,6.29.04,8.74-1.89,1.63-1.23,3.11-2.98,4.37-4.58.76-.88,1.53-2.33,2.62-2.83,9.38-4.13,12.07-5.82,22.73-5.49,9.08.04,14.43-1.07,20.98,6.54,2.54,2.63,4.57,6.18,7.87,7.94,3.82,1.41,7.38-1.48,10.49-3.32,2.92-1.81,6.17-3.39,9.62-3.83,6.24-.3,11.15,4.55,16.61,6.8,1.91.8,4.17.93,6.12.21,1.4.13,2.95.51,4.37.49,1.7.03,3.55-.17,5.25-.31,2.59-.28,5.28-.11,7.87.12,2.29.11,4.7.1,6.99.02"/><path class="b" d="M8.13,47.31c3.48-.1,7.02.14,10.49.12,2.01.09,4.12-.56,6.12-.29,5.82.78,11.67-.26,17.49-.43,11.19-.09,13.4,4.06,20.98-6.95,11.06-4.59,13.34-7.38,26.23-7.1,7.4-.13,12.36.9,17.49,6.58,1.52,1.75,2.78,4.05,4.37,5.75,5.16,5.85,9.63-.12,13.99-3.42,7.32-5.41,15.07-6.03,22.73-.89,4.17,2.5,8.04,6.34,13.11,6.73,1.1.05,2.42-.11,3.5-.34,2.57.36,5.27.34,7.87.33,2.3.02,4.7-.31,6.99-.41,1.4.06,2.96.39,4.37.41"/><path class="b" d="M8.13,42.01c5.02-.59,9.96.9,14.86,1.71,4.64.55,9.4.16,13.99-.65,2.86-.46,5.85-.79,8.74-.53,8.82,1.07,10.26,4,16.61-4.33,6.12-1.81,11.26-6.1,17.49-7.65,6.2-1.47,15.33-1.87,20.98,1.42,1.18.69,2.48,1.67,3.5,2.58,1.49,1.98,2.85,4.41,4.37,6.36,1.08,1.33,2.52,2.96,4.37,3.03.78-.21,1.83.02,2.62-.04.88-.17,1.92-.76,2.62-1.29,7.81-6.88,11.85-13.06,23.61-10.53,3.74.81,7.24,2.61,10.49,4.59,3.36,2.24,6.62,4.92,10.49,6.23,2.78.96,5.83,1.03,8.74,1.03,4.14.13,8.33-.53,12.24-1.9"/><path class="b" d="M8.13,36.51c5.13.2,9.9,2.43,14.86,3.49,1.97.42,4.11.59,6.12.39,1.1.09,2.4.12,3.5-.03,2.4-.31,4.74-1.3,6.99-2.13,2.27-.42,4.7-.56,6.99-.22,1.75.26,3.58.84,5.25,1.44,1.63.57,3.49,1.31,5.25.88,1.74-.42,2.93-2.06,4.37-2.97,3.79-.83,7.21-2.91,10.49-4.91,4.02-2.51,8.36-4.85,13.11-5.54,5.59-.81,11.78-.58,16.61,2.66,3.23,2.34,6.34,12.89,11.37,10.5,3.69,1.57,6.41-2.45,8.74-4.68,2.54-2.68,5.32-5.42,8.74-6.94,6.21-2.9,13.47-1.11,19.23,2.04,6.37,3.59,12.42,8.82,20.11,8.88,2.37.14,4.78-.39,6.99-1.2,2.23-.67,4.66-1.04,6.99-1.01"/><path class="b" d="M8.13,33.89c5.66.25,10.94,3.03,16.61,3.12,1.73,0,3.58-.29,5.25-.74,1.43.01,2.93.66,4.37.7,3.55.28,7.04-.93,10.49-1.56,3.8-.78,7.86-.36,11.37,1.32.77.26,1.84.35,2.62.13.78-.3,1.77-.86,2.62-.88,10.3-1.79,15.97-11.62,27.1-12.51,3.49-.36,7.17-.19,10.49,1,3,2.21,4.67,6.24,6.99,9.13,1.77,2.4,4.05,4.73,6.99,2.4,2.9,2.42,5.78-.19,7.87-2.32,5.05-5.39,9.62-10.12,17.49-10.5,4.63-.1,9.17,1.81,13.11,4.11,6.16,3.77,12.47,8.73,20.11,8.13,2.11-.06,4.14-.98,6.12-1.6,1.95-.58,4.09-.92,6.12-.96"/><path class="b" d="M8.13,31.63c8.98.6,13.57,4,22.73-.25,1.17.1,2.38.86,3.5,1.18,1.93.65,4.08.99,6.12.96,2.6-.04,5.27-.47,7.87-.53,2.31-.1,4.7.31,6.99.44,5.31.28,10.35-.14,14.86-3.24,6.47-4.4,11.79-10.02,20.11-10.53,1.4-.02,3.12-.47,4.37.3,4.19,2.38,6.6,6.89,9.62,10.48,3.34,3.88,4.84,3.94,8.74.69,3.12,3.26,5.52,2.92,8.74.05,5.24-4.9,9.87-10.16,17.49-10.95,2.27-.21,4.78-.54,6.99.1,8.49,2.48,15.22,10.21,24.48,10.02,2.46.03,4.75-1.16,6.99-2,1.94-.66,4.08-1.06,6.12-1.16"/><path class="b" d="M8.13,29.24c10.52.55,13.56,2.49,23.61-3.19,3.2,1.9,6.74,3.52,10.49,3.85,4.34.28,8.76.06,13.11.12,2.59,0,5.28-.02,7.87.02,6.34-.9,10.81-6.1,15.74-9.7,1.59-1.16,3.4-2.32,5.25-3.03,2.69-.14,5.5.47,7.87,1.77,2.66,1.46,4.92,3.73,6.99,5.9,2.01,1.94,4.03,4.71,6.99,5.06,3.06-.06,4.66-3.28,6.99-4.71,3.56,4.19,6.4,6.62,11.37,2.59,3.67-2.87,7.07-6.32,11.37-8.26,4.88-2.26,10.49-2.46,15.74-1.63,2.79.47,5.28,2.22,7.87,3.28,4.3,2,9.25,3.75,13.99,2.34,1.45-.44,2.93-1.29,4.37-1.77,1.93-.67,4.08-1.07,6.12-1.2"/><path class="b" d="M8.13,26.41c6.33.07,12.49.88,18.36-2.19,1.12-.54,2.42-1.25,3.5-1.88.76-.42,1.7-1.21,2.62-1.15,9.35,6.59,14.75,5.24,25.35,5.27,2,.08,4.13.24,6.12-.1,1.1-.41,2.37.28,3.5.21,4.54-.51,7.98-4.2,12.24-5.61,3.34-1.31,7.18-1.26,10.49.11,2.76,1.08,5.27,2.86,7.87,4.26,2.6,1.51,5.38,1.73,7.87-.15,1.56-1.11,3.06-2.65,4.37-4.03.72-.7,1.58-1.95,2.62-2.17,2.35,2.59,4.56,5.78,7.87,7.22,3.54,1.35,6.84-1.48,9.62-3.34,2.47-1.76,5.08-3.56,7.87-4.8,4.34-1.99,9.26-2.55,13.99-2.15,7.27.43,14.59,3.6,21.86,1.65,3.14-1.06,6.35-2.2,9.62-2.81"/><path class="b" d="M8.13,23.1c10.89.2,15.31-.3,24.48-6.6.53.05,1.36.5,1.75.85,1.08.75,2.37,1.63,3.5,2.3,4.39,2.86,9.72,3.56,14.86,3.36,4.96-.38,10.37,1.13,14.86-1.66,4.27,2.39,8.5,1.78,13.11,1.18,3.17-.36,6.45-.25,9.62.16,7.4,1.25,11.15-.33,16.61-5.3,1.09-.97,2.39-2.14,3.5-3.09.72-.56,1.63-1.59,2.62-1.57,4.64,4.15,9.29,12.55,16.61,9.79,3.64-1.4,6.92-3.72,10.49-5.26,4.09-1.87,8.62-2.81,13.11-2.86,6.4-.17,12.86,1.42,19.23.36,3.81-.8,7.5-2.38,11.37-2.98"/></svg>