<?xml version="1.0" encoding="UTF-8"?><svg id="a" xmlns="http://www.w3.org/2000/svg" width="1920" height="2400" viewBox="0 0 192 240"><defs><style>.b{fill:none;stroke:#fff;stroke-miterlimit:10;stroke-width:.3px;}.c{stroke-width:0px;}</style></defs><rect class="c" x="0" width="192" height="240"/><path class="b" d="M9.99,216.55c19.43-5.42,29.67,10.5,44.5,7.44,6.65-1.58,12.87-5.11,19.68-5.94,12.19,8.03,17.82,12.25,32.52,6.72,6.81,2.53,14.22,2.48,21.4,2.55,7.41,0,14.89.12,22.25-.91,10.83-1.43,20.9-5.73,31.67-1.39"/><path class="b" d="M9.99,212.05c7.15-2.87,16.71-2.48,23.96-.07,5.55,1.85,10.51,5.34,16.26,6.61,3.09.72,6.33.15,9.41-.34,4.26-.72,8.54-1.68,12.84-2.2,1.38-.45,2.47.95,3.42,1.72,1.04.89,2.31,1.91,3.42,2.71,8.04,6.04,13.9,2.8,22.25-.14,7.73,2.93,14.03,3.81,22.25,3.59,5.69-.08,11.43.15,17.12-.16,4.94-.27,9.84-1.35,14.55-2.82,9.39-2.99,16.93-5.6,26.53-1.36"/><path class="b" d="M9.99,207.86c4.74-2.45,10.26-1.74,15.41-1.85,9.55-.28,13.14.83,21.4,5.49,2.9,1.57,6.08,2.87,9.41,3.02,3.68.31,7.44.22,11.13.1,1.95.02,4.06-.34,5.99,0,7.82,8.23,11.25,6.7,20.54,2.08.79-.41,1.77-.04,2.57.14,1.38.33,2.91.71,4.28,1.06,4.21,1.07,8.49,2.18,12.84,2.51,3.97.3,8.01-.08,11.98-.1,1.38-.03,2.92-.04,4.28.22.42-.09,1.28-.16,1.71-.15,4.26.13,8.61.36,12.84-.34,14.24-2.47,22.21-12.3,37.66-5.65"/><path class="b" d="M9.99,203.89c3.37-1.92,7.42-1.14,11.13-1.29,5.12,0,10.28,0,15.4,0,3.02-.06,5.99,1.08,8.56,2.6,2.55,1.48,5.03,3.29,7.7,4.56,6.18,2.74,13.09,2.92,19.68,3.71,5.07,5.34,8.06,4.09,13.69.56,8.62.41,17.09,2.35,25.67,3.05,4.56.22,9.13-.68,13.69-.67.84-.15,1.8.41,2.57.65.81.17,1.85-.14,2.57-.5,2.25.14,4.6.38,6.85.51,5.63.48,11.24-.97,16.26-3.47,10.73-5.3,16.26-8.19,28.24-3.82"/><path class="b" d="M9.99,200.09c1.8-1.06,3.98-.89,5.99-.89,2.25,0,4.6,0,6.85,0,3.98,0,8.01,0,11.98,0,2.25.07,4.62-.17,6.85.17,4.01.91,7.01,4.07,10.27,6.36,2.57,1.86,5.56,3.21,8.56,4.22,3.3,1.09,6.81,1.71,10.27,2.07,1.39.53,2.68,1.79,4.28,1.7,1.17-.04,2.42-.65,3.42-1.21,3.69.12,7.44.14,11.13.2,7.14-.02,14.27.75,21.4,1.01,3.44.06,6.87-.78,10.27-1.14,1.07-.09,2.36-.34,3.42-.08.66.53,1.71,1.11,2.57,1.22.45.02,1.31-.18,1.71-.4.33-.33,1.24-.74,1.71-.78,5.1.48,10.3,1.89,15.41.75,8.96-1.96,16.15-9.62,25.67-9.4,2.28.1,4.62.63,6.85,1.1,1.6.08,2.53,1.73,3.42,2.84"/><path class="b" d="M9.99,196.38c1.58-.64,3.46-.57,5.14-.58,1.67,0,3.47,0,5.13,0,5.41,0,10.85,0,16.26,0,1.96.05,4.05-.12,5.99.11,4.98,1.38,7.85,6.35,11.98,9.13,3.04,2.18,6.59,3.74,10.27,4.42,1.94.45,4.07.39,5.99.84,9.68-.04,19.41-.03,29.1-.14,3.97-.03,8.01.3,11.98.1,3.45-.25,6.84-1.39,10.27-1.79,1.53.9,3.25,2.49,5.13,1.56.83-.4,1.7-1.34,2.57-1.68,5.97.5,11.97,3,17.97,1.48,8.28-2.08,15.04-9.2,23.96-8.88,1.69.08,3.47.51,5.14.78.59.17,1.38,1,1.71,1.49,1.03,1.26,2.29,2.74,3.42,3.91"/><path class="b" d="M9.99,194.58c2.15-.97,4.5-1.79,6.85-2.06,1.66-.19,3.47-.11,5.13-.13,3.69,0,7.44,0,11.13,0,3.11.06,6.31-.13,9.41.09,4.69,1.42,7.44,7.08,11.13,10.14,4.07,3.7,8.37,4.51,13.69,4.29,7.37-.94,14.85-.6,22.25-.16,4.54.23,9.15.15,13.69.14,3.11-.03,6.31.17,9.41-.15,2.58-.34,5.15-1.2,7.7-1.71,2.97,2.57,5.1,2.46,7.7-.5,1.63-.43,3.49.12,5.13.31,4.8.79,9.63,2.6,14.55,1.91,9.15-1.36,16.81-9.94,26.53-7.58,2.6,2.25,4.58,5.45,7.7,7.07"/><path class="b" d="M9.99,194.54c3.66-2.34,7.63-4.49,11.98-5.12,3.09-.48,6.3-.41,9.41-.42,2.83.01,5.74-.07,8.56.23,1.77.25,3.89.4,5.14,1.85,2.8,2.87,4.85,6.56,7.7,9.38,2.2,2.25,5.42,3.53,8.56,2.92,1.13-.09,2.33.37,3.42-.2,1.99-1.37,4.52-1.63,6.85-2.01,6.61-.98,13.18.81,19.68,1.78,4.52.69,9.14.58,13.69.53,2.54-.03,5.17.13,7.7-.02,2-.15,4.05-.73,5.99-1.21,3.32,1.99,5.15,1.51,7.7-1.31,4-.41,8.08.34,11.98,1.18,3.63.79,7.39,1.72,11.13,1.27,7.7-.86,14.31-6.59,22.25-6.03,2.75,2.67,5.94,6.96,10.27,5.95"/><path class="b" d="M9.99,195.32c4.81-3.1,9.66-6.59,15.41-7.65,6.03-1.17,12.61-.56,17.97,2.58,2.22,1.33,4.66,2.79,5.99,5.1,1.76,2.46,4.34,5.39,7.7,4.66,1.09-.08,2.37.29,3.42-.17,1.26-.5,2.49-1.57,3.42-2.54,1.82-1,3.96-1.64,5.99-2.06,10.97-2.14,19.67,5.95,30.81,4.83,4.26-.35,8.58-.29,12.84.05,1.38.04,2.91-.21,4.28-.39.4.16,1.28.36,1.71.39.82.03,1.87-.3,2.57-.73.34-.33,1.24-.79,1.71-.88,2.8-.49,5.72-.72,8.56-.58,6.88.24,13.62,2.95,20.54,1.98,5.78-.7,11.24-3.58,17.12-3.52,3.96,4.25,7.4,5.08,11.98,1.11"/><path class="b" d="M9.99,195.34c4.94-2.11,9.34-5.54,14.55-7.05,10.46-3.05,16.46,1.83,24.82,6.9,1.33.59,2.75,1.68,4.28,1.48,3.65.44,6.23-2.62,8.56-4.93,4.05-2.51,9.05-3.46,13.69-2.29,7.14,1.51,13.02,7.34,20.54,7.26,3.16-.08,6.28-1.06,9.41-1.37,1.96-.21,4.06-.11,5.99.31,1.95.4,3.96,1.22,5.99,1.06,5.43-.02,10.81-1.49,16.26-1.37,6.3-.06,12.53,1.42,18.83,1.38,5.45.03,10.82-1.5,16.26-1.49,1.98,1.77,4.64,1.9,6.85.47,1.96.07,4.04-.02,5.99-.25"/><path class="b" d="M9.99,193.3c3.91-.06,7.53-1.88,11.13-3.19,3.79-1.44,7.92-2.37,11.98-1.83,3.27.4,6.42,1.67,9.41,2.97,3.45,1.54,7.58,3.11,11.13,1.02,3.13-1.44,5.24-4.38,7.7-6.64,3.78-2.38,8.58-2.92,12.84-1.63,3.4.98,6.49,2.94,9.41,4.89,3.52,2.32,7.53,5.19,11.98,4.21,3.53-.75,6.74-2.76,10.27-3.51,1.24.56,2.24,1.91,3.42,2.57,3.01,1.87,5.49,1.07,8.56.1,3.57,1.17,7.42,1.17,11.13.87,5.11-.43,10.28-.74,15.41-.45,7.4.52,14.84.79,22.25.45,5.11,0,10.27.32,15.41-.01"/><path class="b" d="M9.99,188.29c4.04,1.78,8.54,1.88,12.84,1.16,3.95-.58,8-.96,11.98-.51,3.68.33,7.43,1.37,11.13.74.48-.15,1.28-.04,1.71.19.91.07,1.91-.53,2.57-1.1,2.37-2.37,5.4-4.14,7.7-6.61,1.34-1.29,2.83-2.75,4.28-3.91,1.31-.51,2.88-.77,4.28-.85,9.51-.55,14.41,5.93,21.4,10.84,5.44,3.81,9.66-.01,14.55-2.56,1.8,1.57,3.47,3.83,5.99,4.18,1.46.16,2.99-.46,4.28-1.07,1.11-.52,2.42-1.16,3.42-1.87,1.17.1,2.33.97,3.42,1.35,1.33.54,2.87,1,4.28,1.26,6.82,1.12,13.69-.91,20.54-.74,6.56-.03,13.13.83,19.68.96,5.98.23,11.99-.25,17.97.14"/><path class="b" d="M9.99,180.82c5.27,2.9,11.05,5.06,17.12,5.28,5.12.24,10.41.31,15.4-1.01,3.11,3,4.91.28,6.85-2.29.54-.98,1.62-1.94,2.57-2.51,1.09-.78,2.36-1.74,3.42-2.56,3.48-2.61,7.34-5.96,11.98-5.49,7.69.04,12.08,4.18,17.12,9.36,1.98,1.89,4.11,4.07,6.85,4.76,3.24.71,5.84-1.89,8.56-3.13,5.55,6.47,8.51,1.67,13.69-1.91h.86c9.94,6.91,13.74,5.5,24.82,3.4,4.22-.71,8.58-.85,12.84-.49,3.7.3,7.43.86,11.13,1.21,1.07.1,2.35.21,3.42.27.73.33,1.75.77,2.57.76,4.16-1.25,8.59-.59,12.84-.1"/><path class="b" d="M9.99,172.86c8.97,3.73,17.36,7.66,27.39,6.25,1.3.84,2.13,2.59,3.42,3.46,3.14,1.99,5.35-3.01,6.85-5.05.39-.65,1.19-1.87,1.71-2.4,1.69-.88,3.47-1.91,5.14-2.85,2.65-1.51,5.53-2.85,8.56-3.34,3.08-.45,6.32-.46,9.41-.21,5.19.71,8.67,5.17,11.98,8.8,3.88,4.27,7.16,7.8,12.84,3.72,5.2,4.99,9.06-1.67,12.84-4.9,2.62-.17,4.7,2.26,6.85,3.47,7.99,5.57,12.3,2.83,20.54.18,4.67-1.5,9.68-2.01,14.55-1.36,4.32.53,8.57,1.72,12.84,2.49.53-.03,1.35.43,1.71.79.67.52,1.72,1.06,2.57,1.17,1.15.11,2.44-.41,3.42-.97,3.12-.49,6.32.54,9.41.87"/><path class="b" d="M9.99,166.78c1.01-.63,2.34-.09,3.42.08,1.38.29,2.91.65,4.28.99,4.23,1.05,8.51,2.22,12.84,2.8,2.23,2.14,3.86,5.05,5.99,7.28,2.19,2.37,4.02,2.22,5.99-.23,1.9-2.4,3.43-5.36,5.13-7.9,1.15-.99,2.9-1.16,4.28-1.73,2.22-.77,4.53-1.62,6.85-2.06,3.92-.77,8-.78,11.98-.71,4.4.11,6.19.18,9.41,3.44,3.66,3.21,8.21,12.02,13.69,10.8.77-.41,1.79-.12,2.57.1,1.97.26,3.76-1.11,5.14-2.36,1.13-1.06,2.38-2.42,3.42-3.56.74-.28,1.78-.48,2.57-.54,5.09-.43,8.38,4.33,12.84,5.91,3.14,1.32,6.57.14,9.41-1.38,9.73-5.51,16.37-7.74,27.39-3.89,2.55.86,5.14,1.9,7.7,2.75.52.18,1.35.85,1.71,1.26.91.81,2.2,1.61,3.42,1.81,1.44.19,3.01-.39,4.28-1.03,2.56-.13,5.14.92,7.7,1.04"/><path class="b" d="M9.99,165.94c3.09-1.68,6.82-2.3,10.27-1.57,8.36,1.47,12.35,12.43,17.12,11.85,3.81-1.48,6.05-7.54,8.56-10.71.94-1.53,1.75-1.62,3.42-1.72,1.68-.19,3.48-.47,5.14-.77,7.99-1.23,17.06-1.42,23.96,3.4,4.26,2.75,7.41,7.16,11.98,9.42,4.93,1.89,9.15-3.23,13.69-4.41,9.24-3.17,12.35,8.11,20.54,3.84,4.19-2.28,7.65-5.82,11.98-7.87,10.06-4.83,18.53-.83,27.39,4.3.39.22,1.31.67,1.71.88.38.4,1.3,1.19,1.71,1.57,1.61,1.4,3.82,2.43,5.99,2.06.77-.11,1.82-.47,2.57-.67,1.94.37,4.01.8,5.99.74"/><path class="b" d="M9.99,165.61c14.63-7.41,19.95,10.99,26.53,6.49,2.95-2.32,4.7-5.95,6.85-8.95.94-1.25,1.98-2.97,3.42-3.68,3.4.3,6.87.07,10.27-.05,4.7-.04,9.54.78,13.69,3.05,5,2.56,8.75,7.06,13.69,9.67,1.56.78,3.5,1,5.14.32.82-.29,1.76.28,2.57.39,3.7.29,6.85-2.35,10.27-3.34,2.46-.83,5.24-.94,7.7-.06,2.08.69,3.98,2.07,5.99,2.92,4.41,1.96,8.17-2.16,11.13-4.89,3-2.87,6.26-5.8,10.27-7.12,6.44-1.97,13.86-1.36,19.68,2.12,3.58,2.1,6.72,5,10.27,7.16,1.57,1.1,3.23,2.44,5.13,2.93,1.34.38,2.92.39,4.28.11,1.65.25,3.49.31,5.13-.02"/><path class="b" d="M9.99,165c13.47-5.99,18.65,9.12,25.68,2.86,3.97-3.53,5.95-9.02,10.27-12.19,1.96-.15,4.03.53,5.99.66,2.55.27,5.22.26,7.7.96,5.58,1.36,10.1,5.16,14.55,8.6,4.23,3.26,8.03,5.2,12.84,1.62,1.2.18,2.25,1.29,3.42,1.61,3.81,1.24,7.48-1.28,11.13-2.05,2.21-.55,4.63-.62,6.85-.06,7.09,2.17,8.45,4.83,14.55-1.6,8.32-9.24,9.47-10.86,22.25-10.45,11.47-.62,13.6,3.49,21.4,10.46,4.07,3.74,10.18,5.11,15.41,3.2"/><path class="b" d="M9.99,163.63c12.11-4.31,17.24,5.84,23.96,1.12,4.74-3.42,6.97-9.55,11.98-12.62,2.02.16,4.04,1.03,5.99,1.53,1.96.58,4.11.89,5.99,1.7,5.79,2.28,9.83,7.49,15.4,10.1,3.69,1.74,7.48-.68,10.27-3.02l.86.07c5.87,5.71,9.45,3.04,16.26,1.76,2.84-.48,5.82-.13,8.56.71,1.91.53,3.98,1.37,5.99.95,4.27-1.32,6.59-5.75,9.41-8.9,2.18-2.59,4.93-5.47,8.56-5.49,3.69,0,7.44,0,11.13,0,6.03-.14,11.15-.03,16.26,3.69,2.07,2.08,3.96,4.54,5.99,6.66,2.66,2.95,6.23,4.79,10.27,4.02.76-.29,1.8.05,2.57.13.76.06,1.83-.03,2.57-.23"/><path class="b" d="M9.99,161.37c3.9-1.02,8.07-1.14,11.98-.1,2.51.57,5.09,1.57,7.7,1.37,7.39-1.18,10.28-9.88,16.26-13.49.85-.11,1.82.45,2.57.79,1.08.53,2.35,1.21,3.42,1.77,2.96,1.4,6.03,2.78,8.56,4.92,8.62,7.07,10.93,8.67,19.68.49,7.89,8.09,10.06,5.25,19.68,3.99,2.27-.19,4.64.07,6.85.59,2.21.47,4.57,1.32,6.85.8,6.54-2.17,8.44-11.14,14.55-14.01,1.6-.55,3.47-.26,5.13-.33,2.25,0,4.6,0,6.85.01,5.76.02,11.69.25,17.12,2.35,1.72.65,3.52,1.51,5.13,2.4,4.32,5.17,7.38,12.44,15.41,8.75,1.37.33,2.85.93,4.28.99"/><path class="b" d="M9.99,158.43c11.42-2.69,16.54,2.94,23.11-.14,5.48-2.67,8.47-8.69,13.69-11.65,2.05,1.35,4.01,3.06,5.99,4.5,2.63,1.7,5.25,3.58,7.7,5.54,6.82,5.57,10.3.86,15.41-3.93,3.48,3.34,7.57,7.39,12.84,6.41,2.56-.37,5.13-1.17,7.7-1.48,2.24-.29,4.63-.2,6.85.23,2.26.41,4.55,1.22,6.85,1.37,7.22.06,9.69-9.34,14.55-13.3,9.41.03,18.95-.49,28.24,1.28,2.59.5,5.23,1.24,7.7,2.14,1.15.46,2.62.81,3.42,1.83,2.1,2.91,3.94,7.04,7.7,8,2.12.26,4.15-.92,5.99-1.79,1.33.59,2.86,1.17,4.28,1.51"/><path class="b" d="M9.99,154.96c13.21-3.2,18.36,4.08,26.53-.98,3.75-2.35,6.73-5.82,10.27-8.45l.86-.06c2.64,2.7,5.34,5.52,8.56,7.54,1.55,1.08,3.26,2.31,5.13,2.74,4.5.68,7.23-4.02,10.27-6.51,3.67,3.5,8.18,7.8,13.69,6.34,2.56-.55,5.12-1.51,7.7-1.99,3.4-.69,6.98-.32,10.27.71,2.21.63,4.51,1.6,6.85,1.54,5.6-.57,7.99-6.69,11.13-10.57,14.46,1.73,29.68-1.76,43.65,3.43,1.77,2.62,3.39,6.57,6.85,7.15,1.87-.03,3.6-1.21,5.14-2.15,1.73.13,3.42,1.18,5.13,1.5"/><path class="b" d="M9.99,150.89c13.59-3.91,18.99,3.78,27.39.85,3.81-1.47,6.92-4.35,10.27-6.61l.86-.05c2.73,3.27,7.26,8.25,11.98,7.17,2.87-.92,4.63-3.68,6.85-5.51,10.25,8.58,10.99,5.93,22.25,2.06,3.03-.89,6.36-.98,9.41-.13,2.95.77,5.69,2.36,8.56,3.35,5.08,1.98,8.73-2.97,11.13-6.73,12.05,3.3,24.55.18,36.8.49,3.43.08,6.92.43,10.27,1.18,1.37,1.05,2.14,3.06,3.42,4.22,2.19,2.34,4.69.87,6.85-.66.81-.07,1.81.34,2.57.55,1.06.3,2.34.61,3.42.82"/><path class="b" d="M9.99,145.81c5.94-2.18,12.14-1.83,17.97.5,3.05,1.09,6.14,2.55,9.41,2.74,4.4.18,8.21-2.51,11.98-4.38,4.68,5.36,8.86,6.07,13.69.42,2.12.59,3.92,2.28,5.99,3.06,6.17,3.04,11.64-2.66,17.12-4.75,3.75-1.62,8.11-1.97,11.98-.55,3.06,1.05,5.8,2.99,8.56,4.63,4.25,2.72,7.36,1.71,10.27-2.23,9.16,2.72,18.86,2.06,28.24,1.12,7.63-.68,15.57-1.93,23.11-.08,1.97,2.8,3.87,3.64,6.85,1.56,2.21.54,4.57.89,6.85,1.06"/><path class="b" d="M9.99,139.32c6.5-2.66,13.54-1.83,19.68,1.35,3.37,1.59,6.63,3.7,10.27,4.63,2.23.57,4.65.36,6.85-.25,1.38-.28,2.85-1.12,4.28-1.04,2.67,2.32,6.01,2.02,8.56-.31.84-.21,1.8.25,2.57.51,1.63.58,3.4,1.22,5.13,1.39,7.55.63,13.6-9.42,23.11-10.17,12.41-1.4,17.57,11.5,23.96,10.03.48-.15,1.32-.64,1.71-.96.78-.23,1.8.11,2.57.25,1.94.35,4.02.53,5.99.63,5.97.25,12,.18,17.97-.03,7.12-.24,14.26-1.07,21.4-.78,2.83.21,5.83.2,8.56,1.04,3.11-.09,6.3.13,9.41-.11"/><path class="b" d="M9.99,132.11c6.73-2.38,14.36-1.52,20.54,1.98,4.07,2.16,7.72,5.21,11.98,7.01,2.13.89,4.54,1.28,6.85,1.12,1.08-.05,2.34-.26,3.42-.24.44.13,1.25.27,1.71.27.8-.02,1.81-.31,2.57-.54,2.25.11,4.58.6,6.85.53,8.24-.42,13.58-10.12,22.25-12.27,3.03-.85,6.3-1.02,9.41-.58.77.11,1.82.34,2.57.55.82.48,1.85,1.29,2.57,1.92,3.82,3.27,7.08,7.67,11.98,9.38,1.09.26,2.3.9,3.42,1.01,1.35-.28,2.91.04,4.28,0,4.55,0,9.14-.32,13.69-.32,8.26-.02,16.55.34,24.82.3,4.55-.04,9.18.09,13.69-.57,3.13,1.76,6.3-1.13,9.41-1.55"/><path class="b" d="M9.99,126.27c6.68-1.7,14.05-1.61,20.54.83,4.97,1.93,9.12,5.46,13.69,8.11,1.32.75,2.84,1.5,4.28,2,1.99,1.19,3.62,2.15,5.99,1.3,3.48-.04,7.12-.24,10.27-1.88,6.36-3.18,10.92-9.53,17.97-11.41,5.54-1.42,10.83-1.24,15.4,2.53,10.99,9.56,10.64,12.34,26.53,10.63,5.39-.56,10.84-1.1,16.26-1.32,9.98-.54,20.19.06,29.95-2.46,3.43,4.74,5.75,4.75,11.13,3.51"/><path class="b" d="M9.99,122.84c2.82-1.71,6.19-1.96,9.41-1.89,2.54,0,5.17-.02,7.7.11,7.7.25,9.72,2.49,14.55,8.02,2.36,2.51,4.77,6.26,8.56,6.36,2.97-.27,5.25-2.54,7.7-3.97,1.75-.23,3.56-.87,5.13-1.64,5.25-2.57,9.6-7.07,15.41-8.47,2.21-.54,4.59-.44,6.85-.43,3.57-.04,7.26.68,10.27,2.68,9.95,6.94,10.72,12.91,24.82,11.72.79-.01,1.85.2,2.57-.24,1.07-.12,2.36-.3,3.42-.47,5.45-.89,10.87-2.16,16.26-3.3,8.54-1.87,17.17-3.45,25.67-5.48l.86.28c3.31,4.83,6.07,10.05,12.84,9.28"/><path class="b" d="M9.99,120.95c4.17-2.19,9.04-2.82,13.69-2.4,13.24.66,17.66,16.75,25.67,12.84,4.33-2.38,8.06-5.82,11.98-8.8.98-.66,2.35-1,3.42-1.49,1.95-.82,3.99-1.76,5.99-2.45,2.72-1.04,5.68-1.17,8.56-1.11,11.29-.29,14.71,1.96,23.11,9,4.6,3.82,8.56,5.34,14.55,5.42,2.54.26,5.18-.23,7.7.05,1.57-.73,3.49-.84,5.14-1.35,2.6-.7,5.22-1.65,7.7-2.67,9.41-4,18.82-8.55,29.1-9.73,5.49,4.06,7.69,12.84,15.41,13.58"/><path class="b" d="M9.99,119.59c7.34-2.66,15.03-1.58,21.4,2.91,3.55,2.18,6.8,5.68,11.13,6.13,3.73,0,6.61-2.94,9.41-5.02,2.14-1.69,4.54-3.23,6.85-4.68,3.85-2.45,8.28-4.05,12.84-4.39,5.69-.37,11.61-.51,17.12,1.16,4.41,1.38,8.22,4.21,11.98,6.81,3.35,2.34,7.04,4.5,11.13,5.16,2.81.4,5.73.57,8.56.85,1.96.21,4.03.03,5.99.06.47.1,1.32-.12,1.71-.41,2.36-.49,4.71-1.42,6.85-2.53,8.04-4.22,15.26-11.25,24.82-11.49,1.96-.04,4.03-.03,5.99-.01,1.24.12,2.51.92,3.42,1.73,4.25,3.99,6.85,10.28,12.84,12.05"/><path class="b" d="M9.99,118.66c4.01-.39,8.14,0,11.98,1.21,5.23,1.43,9.89,5.06,15.4,5.37,9.97-.48,13.72-13.29,34.23-13.85,22.6-1.08,25.52,11.11,41.94,12.36,8.65.06,14.16,4.12,22.25-1.5,6.57-4.16,11.98-12.1,20.54-11.53,2.25,0,4.6,0,6.85,0,1.37.04,2.93-.13,4.28.17,2.54.81,4.36,3.14,5.99,5.13,2.41,3.04,4.95,6.4,8.56,8.06"/><path class="b" d="M9.99,117.84c5.8.76,11.35,2.87,17.12,3.79,10.28,1.7,17.62-7.34,26.53-10.66,4.62-1.75,9.63-2.36,14.55-2.39,6.71-.07,13.44,1.15,19.68,3.61,8.5,3.33,17.11,8.01,26.53,7.02,9.11-.71,14.72,6.62,23.11-.75,2.99-2.48,5.59-5.54,8.56-8.04,2.42-2.12,5.28-3.44,8.56-3.12,4.26.06,8.59-.13,12.84.08,5.87,1.41,8.73,10.21,14.55,13.23"/><path class="b" d="M9.99,116.73c6.34,1.88,12.54,2.5,18.83.07,14.27-5.65,21.69-12.76,38.51-10.71,18.1,2.28,29.07,12.65,48.78,8.16,12.12-.26,14.55,10.83,25.67-2.15,2.58-2.76,5.03-6.08,8.56-7.7,1.29-.57,2.9-.5,4.28-.49,2.82,0,5.73,0,8.56,0,1.67.04,3.52-.18,5.13.36,6.05,2.59,8.05,10.12,13.69,13.32"/><path class="b" d="M9.99,114.78c4.1.81,8.25-.5,11.98-2.14,3.71-1.62,7.37-3.53,11.13-5.03,5.45-2.24,11.27-3.6,17.12-4.27,6.15-.94,12.06-.58,17.97,1.42,5.76,1.85,11.27,4.55,17.12,6.15,8.89,2.45,18.62,2.65,27.39-.42,5.71-2.68,10.32-.87,15.41,2.15,2.11,1.1,4.36,2.69,6.85,2.36,5.69-1.02,9.33-8.68,13.69-12.22,2.47-2.24,4.5-2.41,7.7-2.27,2.82,0,5.73,0,8.56,0,8.52.14,10.35,10.98,17.12,14.25"/><path class="b" d="M9.99,111.47c3.44-.69,6.45-2.77,9.41-4.54,3.24-2,6.65-3.9,10.27-5.1,6.31-2.14,13.1-2.14,19.68-1.83,4.01.2,8.16.04,11.98,1.45,5.63,1.88,10.67,5.26,16.26,7.25,7.62,2.69,16.03,2.83,23.96,1.66,2.93-.5,5.86-1.44,8.56-2.68,2-.85,3.94-2.16,5.99-2.89,4.89-1.69,9.77,1.06,13.69,3.79.96,1,2.12,2.29,3.42,2.84.4.15,1.29.22,1.71.11,1.08.08,2.39.17,3.42-.27,4.41-2.09,6.93-6.75,10.27-10.11,3.45-3.62,5.3-4.3,10.27-4.05,3.16,0,6.6-.16,9.41,1.53,5.07,2.54,9.02,13.05,13.69,12.98"/><path class="b" d="M9.99,106.79c4.13-2.57,7.63-6.18,11.98-8.41,9.61-5.15,20.78-2.48,30.81-.17,6.05.53,11.07,4.14,16.26,6.94,3.16,1.68,6.69,2.82,10.27,3,4.83.2,9.72-.26,14.55,0,4.02.17,8.21.11,11.98-1.47,2.4-.96,4.7-2.4,6.85-3.84,2.01-1.45,4.31-2.82,6.85-2.99,2.02-.17,4.15.32,5.99,1.13,2.76,1.99,4.48,5.5,7.7,6.93,1.05.48,2.36.17,3.42-.11,3.31,1.4,6.42-1.27,8.56-3.54,3.45-3.52,6.38-8.11,11.13-10,1.91-.46,4.06-.17,5.99.04,10.62.95,13.91,17.27,19.68,13.2"/><path class="b" d="M9.99,103.54c3.93-1.6,7.45-4.14,11.13-6.22,5.42-3.23,11.65-5.1,17.97-5.18,4.82.81,9.1,3.63,13.69,5.19,8.91,1.99,13.48,9.49,23.11,6.97.75-.28,1.8-.17,2.57-.03,1.07.13,2.35.24,3.42.29,4.55.18,9.19.21,13.69-.51,1.38-.39,2.9.4,4.28.55,1.96.37,4.11.27,5.99-.44,5.34-1.79,8.73-7.58,14.55-8.13,2.92,1.15,5.34,3.38,7.7,5.37,2.64,2.3,5.98,4.76,9.41,2.44,4.42,2.52,8.02-.52,11.13-3.54,3.35-3.13,6.6-7.06,11.13-8.42,5.91.3,10.2,4.7,13.69,9.04,2.86,3.37,5.19,5.93,8.56,1.31"/><path class="b" d="M9.99,100.98c4.79-1.04,9.16-3.5,13.69-5.28,6.72-2.81,14.23-3.78,21.4-2.31.83.14,1.92.34,2.57.93,1.05.69,2.31,1.48,3.42,2.07,2.13,1.19,4.64,1.74,6.85,2.77,2.17.95,4.45,2.05,6.85,2.23.77.05,1.81-.03,2.57-.2,1.66.22,3.47.3,5.13.06,5.11-.77,10.18-2.46,15.41-2.03,5.19.19,10.19,2.49,15.4,2.12,1.39,0,2.96.18,4.28-.41,2.46-.97,4.42-3,6.85-4.05,2.36-1.24,5.25-1.21,7.7-.26,5.59,2.05,10.17,7.35,16.26,3.17,5.19,2.89,8.37,1.45,12.84-1.82,3.67-2.67,7.42-5.72,11.98-6.63,4.21,1.47,7.07,5.33,10.27,8.23,2.05,1.91,3.93,2.65,5.99.27.33-.51,1.17-1.39,1.71-1.67l.86.23"/><path class="b" d="M9.99,97.8c4.64-.55,9.14-2.08,13.69-3.09,6.44-1.55,13.21-1.59,19.68-.19,2.55.51,5.17,1.18,7.7,1.77,3.81,1.34,7.95,2.07,11.98,1.59,3.69-.56,6.99-2.57,10.27-4.24,4.68-2.51,10.05-4.31,15.4-3.41,4.31.63,8.22,2.79,11.98,4.88,1.05.57,2.33,1.23,3.42,1.71.98.59,2.26,1.14,3.42,1.2,1.69.01,3.51-.02,5.13-.57,2.46-.85,5.06-1.76,7.7-1.54,4.6.23,9.04,2.97,13.69,1.81,1.11-.27,2.4-.78,3.42-1.3.32-.27,1.28-.59,1.71-.6,10.53,6.09,15.62-2.74,25.67-2.63,4.62.02,5,2.44,8.56,4.37,1.03.59,2.36.47,3.42.05,1.64.36,3.46.41,5.13.41"/><path class="b" d="M9.99,94.18c7.93-1.03,15.95-2.44,23.96-1.37,9.3,1.05,19.51,3.94,28.24-.86,7.85-4.52,13.28-10.04,23.11-9.87,5.99-.11,11.61,2.52,16.26,6.13,1.88,1.86,3.73,4.03,5.99,5.44,1.23.76,2.86,1.17,4.28.76,3.11.43,6.29-.24,9.41-.14,6.87.4,10.68.9,17.12-2.5,11.21,4.15,11.96,2.69,23.11,1.82,4.31-.35,8.55,1.33,12.84.91,2.46-.97,5.08-1.86,7.7-2.27"/><path class="b" d="M9.99,89.62c5.39-.55,10.88-.63,16.26.06,5.38.61,10.81,1.96,16.26,1.37.77-.08,1.79-.29,2.57-.22.45.15,1.25.34,1.71.36,2.75.04,5.18-1.69,7.7-2.53,2.88-.89,5.23-2.98,7.7-4.6,7.97-5.54,12.39-7.48,22.25-7.28,8.31-.15,13.34,1.34,19.68,6.84,1.67,1.71,3.31,3.74,5.14,5.29,1.41,1.2,3.23,2.28,5.13,2.29,1.08-.03,2.34-.35,3.42-.16,4.86.21,9.89.17,14.55-1.37,1.08-.29,2.28-1.02,3.42-1,1.97.31,4.04.73,5.99,1.1,5.62,1.17,11.39,1.49,17.12,1.42,3.69-.06,7.53.22,11.13-.78,4.06,2.42,6.7-1.39,8.56-4.55.93-.72,2.3-1,3.42-1.21"/><path class="b" d="M9.99,83.71c4.63.12,9.24,1.06,13.69,2.26,5.35,1.51,10.92,2.85,16.26.53,4.72,3.42,8.2-1.12,11.98-3.59,1.84-1.29,4.14-1.99,5.99-3.26,3.08-1.96,5.94-4.54,9.41-5.8,1.61-.6,3.44-.61,5.13-.58,2.25,0,4.6,0,6.85,0,5.69.06,11.43-.12,17.12.08,5.18.56,9.05,4.53,12.84,7.74,1.9,1.72,3.72,3.79,5.99,5.04,3.35,1.94,7.4,1.77,11.13,1.49,3.68-.27,7.43-.45,11.13-.41,5.41.04,10.85.28,16.26.18,4.63-.03,9.32-.49,13.69-2.09,1.75,1.17,3.76,2.72,5.99,2.45,4.18-1.16,6.22-7.33,8.56-10.66"/><path class="b" d="M9.99,76.81c4.2.9,8.16,2.75,11.98,4.66,4.98,2.52,9.35,4.4,14.55,1.14,2.64,2.25,5.05,2.33,7.7.1,2.64-2.16,4.88-4.96,7.7-6.91,1.52-1.1,3.47-1.63,5.13-2.44,2.49-1.19,4.98-2.69,7.7-3.28,3.94-.47,8.01-.09,11.98-.2,8.26.07,16.56-.14,24.82.08,5.17,1,8.6,5.6,12.84,8.35,1.51,1.01,3.35,1.78,5.13,2.13.75.37,1.79.86,2.57,1.18,6.77,2.65,14.23,2.7,21.4,2.79,5.16-.03,10.43-.25,15.41-1.73,1.41-.42,2.95-1.02,4.28-1.66.74-.36,1.75-.99,2.57-1.16,2.18,1.52,4.3,3.46,6.85,4.35,4.67,1.33,7.29-5.67,9.41-8.75"/><path class="b" d="M9.99,69.94c4.1,1.36,7.73,3.91,11.13,6.53,3.86,2.92,8.16,6.63,12.84,2.92,3.49,2.47,5.63,1.89,8.56-.97,3.06-2.99,5.62-6.78,9.41-8.91,2.38-1.21,5.17-1.64,7.7-2.45,3.6-.97,7.44-.45,11.13-.58,5.69,0,11.42,0,17.12,0,3.97,0,8.01,0,11.98,0,3.52.02,6.32-.43,9.41,1.73,4.79,3.24,8.34,6.54,14.55,6.52.76.01,1.81-.03,2.57-.1,1.45.23,2.9,1.09,4.28,1.55,6.82,2.4,14.97,5.76,22.25,4.53,2.73-.5,5.38-1.72,7.7-3.21,1.43-.85,2.82-2.14,4.28-2.94,7.87,5.15,10.65,11.23,17.12.2"/><path class="b" d="M9.99,67.2c1.63-.45,3.45-.66,5.14-.57,1.22.59,2.41,1.69,3.42,2.57,2.02,1.83,3.97,3.97,5.99,5.8,2.19,2.03,4.96,3.69,7.7,1.55,3.7,2.05,5.88.68,8.56-2.09,3.24-3.36,5.94-7.65,10.27-9.72,2.11-.99,4.57-1.1,6.85-1.44,4.81-.47,9.72-.11,14.55-.22,10.26,0,20.55,0,30.81,0,3.92-.05,5.9-.27,9.41,1.93,7.15,4.56,12.37,4.77,20.54,3.53,3.21,1.57,6.34,3.47,9.41,5.29,3.58,2.02,7.71,4.69,11.98,3.42,4.21-1.23,6.92-5,10.27-7.51,3.03,1.76,5.71,4.19,8.56,6.21,3.65,2.76,5.91,1.75,8.56-1.61"/><path class="b" d="M9.99,65.08c3.77-.8,7.79,0,11.13,1.88,2.9,2.41,5.76,8.73,10.27,6.78,6.95,3.01,11.99-11.53,19.68-13.33,3.03-.8,6.3-.71,9.41-.76,3.69,0,7.44,0,11.13,0,10.83,0,21.69,0,32.52,0,1.96.02,4.04-.06,5.99.05,1.77.25,3.52,1.11,5.13,1.83,7.62,3.81,14.96,3.34,23.11,2.03,2.88,1.38,5.25,3.84,7.7,5.85,2.06,1.73,4.22,3.74,6.85,4.56,5.1,1.24,8.94-5.28,11.98-8.46.9-.18,1.83.56,2.57.98,1.75,1.08,3.53,2.44,5.13,3.72,2.61,1.99,6.05,5.6,9.41,3.02"/><path class="b" d="M9.99,63.39c6.43-1,11.9,2.86,17.12,5.99.74.5,1.68,1.2,2.57,1.37.45-.03,1.27-.01,1.71.03,3.65-.12,6.22-3.35,8.56-5.78,3.1-3.39,6.39-7.35,11.13-8.28,2.79-.51,5.73-.41,8.56-.46,3.69,0,7.44,0,11.13,0,11.4,0,22.83,0,34.23,0,2.25.06,4.61-.14,6.85.12,1.42.28,2.94.87,4.28,1.4,5.64,2.45,11.84,3.51,17.97,2.96,1.96-.13,4.04-.36,5.99-.58,1.07-.08,2.36-.44,3.42-.16,2.14,1.82,4.1,4.07,5.99,6.14,2.15,2.2,5.15,6.01,8.56,4.08,3.26-2.12,5.28-5.77,7.7-8.72,1.2-.04,2.39.86,3.42,1.39,1.44.84,2.96,1.92,4.28,2.94,2.61,1.88,5.11,4.88,8.56,4.95"/><path class="b" d="M9.99,61.96c5.88-.6,11.03,2.64,16.26,4.76,1.6.62,3.44.77,5.13.58.83-.29,1.81-.96,2.57-1.39,3.84-2.56,6.66-6.44,10.27-9.28,4.42-3.74,9.11-3.6,14.55-3.71,5.69-.15,11.42-.04,17.12-.07,9.98,0,19.98,0,29.95,0,1.96.04,4.04-.09,5.99.07,1.42.23,2.94.8,4.28,1.33,11.25,5.06,18.99,4.18,30.81,2.65,1.04.39,1.87,1.69,2.57,2.49,1.08,1.36,2.32,3,3.42,4.34,1.48,1.66,3.47,4.27,5.99,3.43,3.52-1.87,5.31-5.95,7.7-8.96l.86-.25c2.77,1,5.37,2.62,7.7,4.4,2.16,1.61,4.33,3.48,6.85,4.5"/><path class="b" d="M9.99,60.56c3.49-.16,6.98.68,10.27,1.75,3.29,1.1,6.81,2.23,10.27,1.26,3.83,1.86,5.81-4.32,8.56-6,3.65-3.31,7.77-6.68,12.84-7.28,2.81-.34,5.73-.19,8.56-.34,4.26-.14,8.57-.37,12.84-.46,7.98-.08,15.99-.01,23.96-.03,3.11,0,6.3,0,9.41,0,1.67.05,3.5-.15,5.13.22,4.96,1.54,9.43,4.54,14.55,5.66,5.02,1.26,10.3,1.2,15.4.59,1.96-.23,4.04-.54,5.99-.84,1.07-.11,2.36-.54,3.42-.24,1.96,2.56,3.69,5.56,5.99,7.84,2.24,2.21,4.23,1.17,5.99-.96,1.86-2.07,3.12-4.94,5.13-6.86,5.1,1.38,9.08,5.12,13.69,7.5"/><path class="b" d="M9.99,58.88c3.14-.09,6.33.39,9.41.97,3.65.73,7.59,1.21,11.13-.28,1.15.15,2.19,1.19,3.42.96,2.31-.61,3.79-2.96,5.13-4.77.97-1.35,1.9-3.19,3.42-4,3.28-2.23,7.11-3.91,11.13-4.03,8.55.14,17.14.66,25.67-.21,4.55-.39,9.13-1.06,13.69-1.36,2.82-.18,5.73-.1,8.56-.12,1.67,0,3.47,0,5.13,0,1.71-.05,3.58-.03,5.13.77,4.58,2.21,8.82,5.25,13.69,6.83,5.47,1.88,11.42,2.06,17.12,1.32,4.02-.4,7.98-1.61,11.98-2.02,6.77,10.75,7.95,9.49,14.55-.37,1.77-.07,3.55.95,5.13,1.65,2.54,1.25,5.11,2.68,7.7,3.84"/><path class="b" d="M9.99,56.65c5.13-.18,10.29.88,15.41.36,1.4-.16,2.94-.5,4.28-.94.76-.24,1.74-.78,2.57-.59,5.61,5.34,9.51-3.92,12.84-7.4,3.18-1.44,6.77-2.31,10.27-1.89,8.54.87,17.03,3.3,25.68,2.46,4.97-.39,9.83-1.79,14.55-3.32,2.79-.89,5.67-1.8,8.56-2.29,2.74-.53,4.47-.48,6.85,1.16,4.42,2.95,8.71,6.32,13.69,8.28,6.48,2.58,13.71,2.67,20.54,1.68,4.32-.6,8.57-1.84,12.84-2.71,2.59,3.86,5.25,8.66,9.41,3.18,1.13-1.17,1.94-3.18,3.42-3.92,3.78.91,7.38,2.67,11.13,3.73"/><path class="b" d="M9.99,53.74c4.83-.07,9.74.26,14.55-.31,1.99-.24,4.07-.7,5.99-1.29,1.08-.26,2.29-1.04,3.42-.85,4.63,4.33,7.48,2.3,11.13-1.81.78-.87,1.8-2.08,2.57-2.96.38-.47,1.1-1.24,1.71-1.38,4.33-.82,8.71.45,12.84,1.71,10.79,3.69,21.6,5.84,32.52,1.22,4.73-1.91,9.02-4.84,13.69-6.85.56,0,1.34.5,1.71.89,1.08.92,2.33,2.04,3.42,2.93,3.14,2.47,6.51,4.87,10.27,6.3,4.88,1.88,10.23,2.08,15.4,2.06,7.55.11,14.96-1.48,22.25-3.24,2.41,3,4.37,5.31,7.7,1.75.76-.73,1.55-2.01,2.57-2.41,3.4.7,6.82,1.64,10.27,2.09"/><path class="b" d="M9.99,50.27c5.41.04,10.9.07,16.26-.76,1.98-.31,4.06-.76,5.99-1.29,1.38-.3,2.86-1.02,4.28-1.07,7.3,6.67,10.42,1.4,16.26-3.47,6.88.66,12.89,4.75,19.68,5.84,3.93.73,8,.78,11.98.78,3.7-.02,7.51-.08,11.13-.95,5.44-1.25,10-4.68,14.55-7.74,4.57,3.91,9.14,7.83,15.41,8.54,4.25.52,8.58-.07,12.84-.06,4.84-.08,9.71.41,14.55.23,4.01-.13,8.02-.9,11.98-1.47,3.31,2.1,3.68,1.98,6.85-.35,3.39.39,6.85.81,10.27.84"/><path class="b" d="M9.99,46.59c5.41.16,10.89.05,16.26-.63,4.61-.57,9.17-1.72,13.69-2.76,6.9,5.35,9.45,4.67,16.26-.4,2.36.16,4.61,1.56,6.85,2.28,6.16,2.55,10.77,2,17.12.99,3.09-.42,6.3-.58,9.41-.28,10.36,1.27,12.88,2.76,22.25-3.41,8.06,6.78,13.09,4.4,22.25,2.7,4.23-.73,8.6-.69,12.84-.07,4.55.64,9.09,1.68,13.69,1.88,3.4.11,6.9.04,10.27-.06,3.69.06,7.44.14,11.13.08"/><path class="b" d="M9.99,43.08c5.7.2,11.46.05,17.12-.65,5.17-.62,10.28-1.89,15.41-2.76,1.52-.47,2.3.43,3.42,1.23,2.22,1.56,4.91,2.97,7.7,2.6,1.13-.13,2.43-.55,3.42-1.12.78-.4,1.62-1.36,2.57-1.28,1.65.65,3.43,1.38,5.13,1.86,2.19.64,4.61.77,6.85.31,4.62-.96,8.97-3.17,13.69-3.72,3.42-.46,6.97-.03,10.27.95,3.13.89,6.2,2.28,9.41,2.86,1.66.29,3.51.22,5.13-.23,1.1-.25,2.29-.96,3.42-1.06,2.6,1.38,5.7,1.86,8.56,1.1,4.37-1.1,8.45-3.27,12.84-4.3,4.46-1.14,9.18-1.15,13.69-.31,4.32.77,8.55,2.16,12.84,3.06,2.22.47,4.58.82,6.85.97.78.25,1.75.84,2.57.94,1.16.1,2.38-.56,3.42-.99,2.54-.17,5.17-.05,7.7.17"/><path class="b" d="M9.99,39.75c5.69.2,11.45.1,17.12-.54,4.88-.53,9.72-1.63,14.55-2.5,1.37-.24,2.9-.47,4.28-.61,1.21-.19,2.49-.24,3.42.71,3.36,2.44,8.25,4.94,11.98,1.85,4.28,1.6,7.65,2.13,11.98.31,6.31-2.68,12.56-6.23,19.68-5.01,6.39.76,11.66,5.19,17.97,6.13,1.39.21,2.9-.18,4.28-.15,1.66.36,3.51.23,5.14-.24,3.9-1.16,7.41-3.45,11.13-5.08,4.01-1.84,8.41-3.02,12.84-3.14,6.7-.27,13.19,1.81,19.68,3.14,1.04.5,1.81,1.89,2.57,2.71,1.72,2.07,4.19,3.76,6.85,2.17,1.88-1,3.58-2.59,5.13-4.02,1.02-.52,2.36,0,3.42.16"/><path class="b" d="M9.99,36.31c8.83.51,17.76.32,26.53-.9,6.49-.86,13.17-2.28,19.68-.89,1.81.33,3.27,1.93,5.13,2.17.78.12,1.79-.11,2.57-.13.44.07,1.27.16,1.71.18,3.35.12,6.52-1.4,9.41-2.93,12.28-7.07,19.37-7.09,31.67-.05,17.7,10.05,20.87-8.41,43.65-8.72,1.66-.05,3.47-.02,5.13.07.77.04,1.85.05,2.57.4,1.86,1.79,3.54,4.04,5.13,6.06,1.81,2.1,3.78,5.14,6.85,5.17,1.95-.24,3.66-1.64,5.14-2.83,2.31-1.98,4.5-4.3,6.85-6.24"/><path class="b" d="M9.99,32.84c5.09.63,10.28.47,15.41.5,7.42.1,14.85-.35,22.25-.88,4.28-.31,8.61.04,12.84.72,1.07.13,2.35.2,3.42.14.78-.06,1.81-.24,2.57,0,2.71.21,4.64-2.1,6.85-3.24,3.83-2.11,7.7-4.42,11.98-5.5,6.71-1.87,13.81-.02,19.68,3.43,2.01,1.09,3.91,2.65,5.99,3.62,3.14,1.49,6.87,2.25,10.27,1.24,3.77-1.12,7.03-3.57,10.27-5.72,3.46-2.35,7.14-4.59,11.13-5.91,2.19-.71,4.55-1.3,6.85-1.5,1.47.38,3.02,1.09,4.28,1.94,3.68,2.49,6.25,6.35,9.41,9.41,3.44,3.43,6.04,2.53,9.41-.45,3.19-2.63,6.06-5.78,9.41-8.21"/><path class="b" d="M9.99,29.39c4.5.93,9.15.43,13.69.21,4.26-.23,8.58-.17,12.84.02,5.4.27,10.85.35,16.26.31,4.88.03,9.96.22,14.55-1.72.85.21,1.77.94,2.57,1.27,1.64.73,3.56.45,5.14-.31,7.42-4.06,12.03-9.01,21.4-7.22,6.39,1.22,11.7,5.49,17.97,7.05,10.27,3.97,16.97-5,24.82-9.86,1.03-.55,2.2-1.56,3.42-1.49,3.36.04,6.7,1.24,9.41,3.21,3.67,2.5,6.36,6.4,10.27,8.55,4.15,1.96,7.45-2.65,10.27-5.01,2.96-2.55,5.95-5.3,9.41-7.16"/><path class="b" d="M9.99,26.04c6.3,1.61,12.55-1.48,18.83-1.86,3.97-.4,8.03-.16,11.98.32,11.06,1.39,18.52,2.66,29.1-2.16,4.03,4.01,7.47,5.4,12.84,2.93,4.1-1.77,8.31-3.71,12.84-3.96,4.35-.32,8.69.76,12.84,1.96,2.98.61,5.58,2.47,8.56,3.08,1.41.4,2.89-.08,4.28.08,6.66.96,11.63-4.6,16.26-8.51,2.24-1.55,7.07-.33,9.41.72,4.07,1.76,7.22,5.16,11.13,7.2,5.61,2.81,9.8-4.35,13.69-7.31,3.07-2.43,6.52-4.66,10.27-5.87"/></svg>