<?xml version="1.0" encoding="UTF-8"?><svg id="a" xmlns="http://www.w3.org/2000/svg" width="1920" height="2400" viewBox="0 0 192 240"><defs><style>.b{fill:none;stroke:#fff;stroke-miterlimit:10;stroke-width:.3px;}.c{stroke-width:0px;}</style></defs><rect class="c" x="0" width="192" height="240"/><path class="b" d="M8.53,226.55c1.1-.16,2.38-.37,3.48-.46,1.99.4,4.1.83,6.09,1.21,4.56.87,9.28,1.58,13.93,1.02,2.94-.33,5.9-1.1,8.7-2.04,3.17.09,6.4.58,9.57.68,4.63.15,9.32.18,13.93.76,5.18.56,10.6,1.54,15.67-.15,5.34-1.64,9.44-5.66,13.93-8.76,4.67-.41,9.36-1.19,13.93-2.23,3.45-.69,6.9-1.94,10.44-1.98,14.01-.38,16.7,12.23,24.37,13.93,1.65.06,3.2-1.07,4.35-2.15,0,0,.87-.88.87-.88,0,0,.87-.34.87-.34,2.31,2.87,4.76,4.95,7.83,1.6,4-4.01,6.41-11.14,12.18-12.84,4.89-.35,9.89-.04,14.8-.14"/><path class="b" d="M8.53,224.96c4.04-.09,8.14-.22,12.18-.34,1.99.06,4.08.58,6.09.43,2.61-.11,5.2-.94,7.83-.8,6.96-.17,13.95-.4,20.89-.91,3.47-.17,7.02.11,10.44.66,3.43.51,6.96,1.35,10.44.95,3.57-.41,6.81-2.31,9.57-4.52,1.12-.89,2.41-2.01,3.48-2.97.35-.41,1.16-.99,1.74-.99,5-.21,10-1.17,14.8-2.57,4.03-1.06,7.99-2.84,12.18-3.07,7.55-.49,12.46,1.99,17.41,7.59,2.15,2.2,4.13,4.96,6.96,6.33,1.08.48,2.51.25,3.48-.4.79-.49,1.61-1.63,2.61-1.69,7.13,8.97,10.96-11.27,18.28-12.34,5.49-.12,11.04,0,16.54-.04"/><path class="b" d="M8.53,220.86c5.22.08,10.49.09,15.67.74,4.33-.3,8.72.11,13.06-.02,5.24-.09,10.51-.7,15.67-1.6,3.99-.79,8.17-.97,12.18-.26,3.76.56,7.48,1.95,11.31,1.87,4.95-.11,8.63-3.84,12.18-6.81,5.62.25,11.28-.82,16.54-2.81,4.6-1.57,8.97-4.33,13.93-4.61,11.32-.84,14.8,3.84,21.76,11.51,2.48,2.56,4.93,3.98,7.83.99,6.98,7.56,10.98-13.43,18.28-13.03,5.5,0,11.04,0,16.54,0"/><path class="b" d="M8.53,214.7c.78-.04,1.83-.09,2.61-.12,1.45.39,2.95,1.16,4.35,1.66,4.5,1.87,9.33,2.72,13.93.65,1.31-.8,2.96.02,4.35.19,1.98.39,4.08.75,6.09.93,4.7.49,9.43-.5,13.93-1.8,4.21-1.26,8.76-1.54,13.06-.53,8.61,2.12,12.58,4.99,20.02-2.14,8,1.05,15.74-1.14,22.63-5.18,4.42-2.53,7.76-4.49,13.06-4.43,9.34-.36,13.44,3.93,19.15,10.5,1.44,1.48,3.07,3.38,5.22,3.7.83.03,1.83-.47,2.61-.7,5.95,4.1,10.58-12.6,16.54-13.93,5.76-.35,11.62-.03,17.41-.13"/><path class="b" d="M8.53,210.2c9.63,3.83,14.58,7.2,24.37,1.01,1.17.1,2.39.84,3.48,1.23,1.38.56,2.92,1.14,4.35,1.55,6.11,1.97,10.88-.75,16.54-2.49,4.27-1.25,8.88-.87,13.06.58,4.15,1.31,8.74,3.91,13.06,1.76.8-.37,1.76-1.07,2.61-1.33,1.09.17,2.38.3,3.48.37,6.72.47,13.55-1.24,19.15-5.03,3.18-1.95,6.05-4.64,9.57-5.97,5.29-1.76,11.52-1.72,16.54.84,4.59,2.45,7.53,7.01,11.31,10.41.92.78,2.22,1.61,3.48,1.56.41-.19,1.32-.19,1.74-.02,6.53.1,10.26-14.41,17.41-14.74,4.92,0,9.88,0,14.8,0"/><path class="b" d="M8.53,207.33c7.17,2.56,13.38,5.94,20.89,2.14,2.09-.87,4.01-2.36,6.09-3.21,4.82,3.05,9.81,6.64,15.67,4.03,2.32-.9,4.6-2.17,6.96-2.95,3.61-1.28,7.64-1.38,11.31-.31,3.87,1.01,7.39,3.26,11.31,4.06,1.42.31,2.95-.07,4.35-.23,4.32.36,8.74.37,13.06,0,13.7-1.12,15.85-12.79,28.72-13.41,5.31-.69,10.05,2.53,13.93,5.8,3.12,2.54,5.86,5.87,9.57,7.56,6.99,2.84,12.55-11.65,19.15-13.88,1.9-.74,4.1-.42,6.09-.49,2.58,0,5.25,0,7.83,0"/><path class="b" d="M8.53,204.74c13.3,4.21,16.36,4.47,28.72-2.55,2.18,1.03,3.93,3.08,6.09,4.19,5.46,3.49,9.87-.66,14.8-2.84,2.44-1.09,5.16-1.78,7.83-1.76.92.14,1.86.96,2.61,1.44,3.36,2.3,7.16,4.36,11.31,4.51,2,.03,4.1-.08,6.09,0,2.31-.54,4.58-.75,6.96-.62,12.3.93,13.91,1.98,23.5-6.95,1.58-1.38,3.38-2.8,5.22-3.82.74-.39,1.74-.98,2.61-.96,7.23,1.11,13.98,4.19,20.02,8.26,3.16,1.89,6.56,4.49,10.44,4.06.81.16,1.9-.07,2.61-.48,1.5-1,2.97-2.41,4.35-3.57,4.3-3.8,8.01-9.2,13.93-10.46,2.56-.32,5.27-.15,7.83.02"/><path class="b" d="M8.53,202.27c8.73,1.81,14.82,3.43,23.5-.14,1.41-.54,2.97-1.2,4.35-1.81,1.08-.41,2.3-1.2,3.48-1.25,10.01,9.93,11.63,3.22,21.76-.72.53,0,1.34.37,1.74.7,1.09.71,2.38,1.58,3.48,2.28,5.26,3.48,8.93,3.65,14.8,1.59,3.52-1.33,5.69,4.65,14.8-1.3,3.22.64,6.3,2.17,9.57,2.61,5.95.76,9.7-4.85,13.93-7.99,6.97,1.06,14.12,1.37,20.89,3.48,4.68,1.3,9.13,3.56,13.93,4.42,1.08.17,2.39.2,3.48.04.78.1,1.85.15,2.61-.12,1.27-.48,2.5-1.52,3.48-2.43,3.7-2.49,6.85-5.83,10.44-8.47,2.5-1.43,5.99-.94,8.7-.36"/><path class="b" d="M8.53,199.74c15.12,1.83,18.51,1.58,33.07-2.96.58.03,1.38.63,1.74,1.05.73.65,1.78,1.46,2.61,1.97,4.67,3.13,8.98-1.82,13.06-3.62,8.68,4.38,10.61,6.95,20.02,1.69,3.29-1.72,2.84-1.75,6.09.02,7.37,3.99,10.71,3.61,18.28.51,5.16,2.79,8.27,3.75,13.06-.45,7.21,1.16,14.52.02,21.76-.13,5.87-.2,11.72.79,17.41,2.15,2.54.54,5.23,1.08,7.83.8,1.13.21,2.46-.11,3.48-.62,1.42-.79,3.01-1.69,4.35-2.6.77-.53,1.75-1.38,2.61-1.77,2.92-1.48,6.4-1.77,9.57-1.06"/><path class="b" d="M8.53,196.97c5.79.12,11.62.56,17.41.35,5.54-.17,11.06-1.08,16.54-1.91.78-.11,1.83-.33,2.61-.14.98.78,2.27,1.59,3.48,1.93,2.93.87,5.31-1.39,7.83-2.35,9.13,2.69,10.48,4.42,19.15-1.3,1.09-.69,2.37-1.52,3.48-2.17,1.1-.66,2.22-1.45,3.48-.67,5.47,2.21,10.57,5.76,16.54,6.5,3.16.41,6.41-.03,9.57-.14,1.12-.14,2.38.21,3.48.31,2.28-.28,4.67.07,6.96,0,4.34,0,8.74.05,13.06-.44,4.65-.51,9.27-1.59,13.93-2.06,4.04-.43,8.2-.22,12.18.6,3.45.64,6.9,1.87,10.44,1.9,2.35.15,4.7-.59,6.96-1.08,2.54-.54,5.25-.7,7.83-.45"/><path class="b" d="M8.53,193.87c8.4-.1,16.84.13,25.24.02,4.63-.06,9.3-.26,13.93-.38,1.1.12,2.36.56,3.48.36,2.81-.87,5.83-.09,8.7.03,7.86.69,13.39-5.99,20.02-9.02,2.06-.04,4.15.92,6.09,1.54,4.1,1.52,8.04,3.59,12.18,5,3.06,1.05,6.34,1.68,9.57,1.83.77.04,1.84.04,2.61.07.74.32,1.8.6,2.61.62,1.55.03,3.05-.82,4.35-1.56,6.72-.64,13.3,2.48,20.02,1.29,6.68-1.07,13.14-4.03,20.02-3.48,4.83.2,9.31,2.3,13.93,3.47,1.37.34,2.96.3,4.35.12,2.57.2,5.25.15,7.83.15"/><path class="b" d="M8.53,190.39c11.02.24,22.05-.69,33.07-.5,1.7,0,3.53.02,5.22.04.79.13,1.81.47,2.61.51.81.03,1.86-.19,2.61-.48.44,0,1.3,0,1.74,0,8.45.26,13.95-4.27,20.89-8.13,1.63-.83,3.43-1.74,5.22-2.17,2.95.33,5.91,1.11,8.7,2.08,5.75,2,11.3,4.91,17.41,5.69,1.46.67,2.83,1.91,4.35,2.48,3.61,1.67,7.22-.96,9.57-3.57,1.11-.31,2.4.15,3.48.4,1.73.47,3.54,1.16,5.22,1.79,9.22,3.86,13.15,1.04,21.76-1.97,4.16-1.42,8.75-1.99,13.06-.91,2.39.56,4.75,1.58,6.96,2.63,1.92.88,3.96,1.94,6.09,2.15,2.39.17,4.79-.74,6.96-1.63"/><path class="b" d="M8.53,186.5c8.78,1.56,17.49-1.03,26.11-2.42,1.69-.27,3.52-.52,5.22-.7.92.15,1.85.97,2.61,1.45,1.3.84,2.83,1.7,4.35,2.03,3.3.67,6.21-1.7,8.7-3.54.73-.38,1.82-.46,2.61-.61,1.11-.22,2.41-.6,3.48-.97,3.84-1.34,7.5-3.31,11.31-4.73,2.5-.94,5.18-1.66,7.83-1.99,3.56.34,7.08,1.37,10.44,2.56,3.45,1.26,6.94,2.65,10.44,3.76,4.88,3.68,9.74,8.41,15.67,3.5,1.54-1.07,2.72-2.95,4.35-3.87,4.91,1.18,9.02,4.58,13.93,5.75,9.94,2.03,17.45-10.61,31.33-5.33,5.98,2.21,9.55,7.22,16.54,5.1"/><path class="b" d="M8.53,183.5c.8.07,1.84-.06,2.61-.27,1.4,0,2.94.39,4.35.29,4.61-.17,8.89-2.26,13.06-4.03,4.22-1.89,3.67-1.86,7.83.16,5.22,2.72,9.23,6.07,14.8,1.78,2.95-2.12,5.59-4.83,8.7-6.73,6.1-.94,12.07-2.97,18.28-3.22,10.08-.62,16.51,2.79,24.37,8.59,8.67,6.3,12.35,3.17,19.15-3.45,5.01,1.3,9,5.03,13.93,6.52,9.21,2.59,16.63-10.42,29.59-7.13,3.17.79,6.05,2.59,8.7,4.44,2.71,2.08,6.11,3.48,9.57,2.98"/><path class="b" d="M8.53,178.61c1.51.98,3.4,1.63,5.22,1.42,1.42.11,3-.02,4.35-.48,1.15-.37,2.43-.99,3.48-1.59.77-.43,1.72-1.12,2.61-1.22,2.84-.66,5.9-.52,8.7.28,6.33,1.84,10.44,5.45,16.54.46,4.21-3.21,7.83-7.84,13.06-9.4,3.17-.02,6.41-.17,9.57-.16,11.56-.08,18.31,2.65,27.85,8.85,2.65,1.56,5.55,3.25,8.7,3.29,4.86-.16,8.85-3.6,12.18-6.82,1.49-.09,3.01.74,4.35,1.3,3.23,1.51,6.2,3.73,9.57,4.93,8.87,3.26,16.01-9.14,27.85-8.1,9.6.66,12.34,8.91,20.89,8.68"/><path class="b" d="M8.53,173.99c5.58,4.28,9.55,2.33,15.67,1.04,2.56-.48,5.28-.48,7.83,0,4.88.95,9.36,3.02,13.93-.2,5.55-3.77,9.61-10.18,16.54-11.63,1.7.2,3.53.41,5.22.64,4.99.64,10.03,1.55,14.8,3.21,4.54,1.54,8.83,3.83,13.06,6.05,7.13,3.8,11.8,5.1,19.15.73,1.83-.9,3.36-2.63,5.22-3.42,5.4.54,9.68,4.43,14.8,5.87,8.8,2.37,16.02-9.76,27.85-8.6,9.69.79,12.21,9.02,20.89,8.94"/><path class="b" d="M8.53,170.14c1.74,1.39,3.77,2.98,6.09,3.01,1.4-.27,2.94.09,4.35-.04,2.88-.26,5.8-.97,8.7-.96,4.91-.2,10.1,2.28,14.8,0,6.25-3.08,9.8-10.13,16.54-12.41.77-.26,1.81-.56,2.61-.65,2.01.36,4.12.86,6.09,1.41,7.56,2.07,14.67,5.51,21.76,8.79,6.89,3.19,13.5,5.45,20.89,2.29,1.43-.56,2.99-1.29,4.35-1.99.98-.64,2.32-1.03,3.48-1.09,4.97-.39,9.37,2.48,13.93,3.96,5.63,2.16,10.95-1.38,15.67-4.11,9.39-5.58,17.42-5.77,26.11,1.29,2.65,2.24,6.06,3.72,9.57,3.49"/><path class="b" d="M8.53,166.62c1.86,1.63,4.31,3.71,6.96,2.85,4.06.6,8.12-.51,12.18-.47,4.62-.02,9.61,1.82,13.93-.58,5.9-3.15,9.3-9.87,15.67-12.29,2.5-1,3.65-.72,6.09.16,2.68.93,5.32,2.22,7.83,3.53,5.13,2.69,10.21,5.66,15.67,7.65,5.8,2.2,12.22,2.88,18.28,1.41,1.07-.35,2.37-.36,3.48-.28,1.71.01,3.57-.17,5.22-.65,5.82-2.36,10.87-.34,16.54,1.21,6.38,1.91,11.98-1.78,17.41-4.63,9.76-5.2,17.4-4.49,26.11,2.33,2.66,2.18,6.16,3.2,9.57,2.72"/><path class="b" d="M8.53,163.43c1.64,1.44,3.75,3.22,6.09,2.68,1.1-.07,2.38.2,3.48.08,2.88-.25,5.8-.92,8.7-.85,4.61-.06,9.56,2.1,13.93-.21,6-3.12,9.26-10.06,15.67-12.55.77-.27,1.78-.63,2.61-.49,1.47.47,3.02,1.21,4.35,1.97,3.59,2.06,6.93,4.65,10.44,6.82,3.71,2.32,7.83,4.22,12.18,4.93,4.89.83,9.93.27,14.8-.45,2.53.61,5.24.75,7.83.76,1.7,0,3.54-.04,5.22-.31,1.68-.34,3.51-.7,5.22-.77,3.2-.17,6.42.52,9.57.95,7.39,1.37,13.55-2.81,20.02-5.61,9.94-4.26,16.76-2.24,25.24,3.85,2.75,2.07,6.3,2.33,9.57,1.64"/><path class="b" d="M8.53,160.52c2.98,2.76,5.86,2.58,9.57,1.67,2.82-.72,5.78-1.38,8.7-1.16,4.63.15,9.44,3.14,13.93.85,6.04-2.97,9.77-11.61,16.54-12.83,7.85,3.94,13.37,12.55,22.63,13.56,4.94.56,9.9-.63,14.8-1.14.49-.06,1.31.13,1.74.36,1.06.37,2.36.67,3.48.8,2.28.26,4.68.07,6.96,0,2.58-.12,5.25.12,7.83.14,2.87-.12,5.83-.32,8.7-.16,4.06.23,8.25.38,12.18-.81,6.74-1.96,12.88-6.1,20.02-6.59,6.5-.66,12.12,2.48,17.41,5.86,3.44,2.31,6.64,1.85,10.44.87"/><path class="b" d="M8.53,158.98c1.35.47,2.95.26,4.35.3,1.24-.16,2.52-.93,3.48-1.71,2.43-1.14,5.13-2.02,7.83-2.09,4.34-.17,8.18,2.19,12.18,3.47,7.87,2.44,12.47-9.66,19.15-12.43,6.35,4.15,10.89,12.36,19.15,12.77,3.84.03,7.57-1.35,11.31-2.04,1.38-.19,2.96-.76,4.35-.42,1.83,1.14,3.94,2.08,6.09,2.36,4.37.51,8.68-1.25,13.06-.98,2.32.05,4.66.76,6.96.96,4.33.2,8.74.23,13.06-.21,4.54-.43,8.77-2.3,13.06-3.68,7.83-.02,15.7-.07,23.5-.77,7.92,3.85,8.16,6.49,17.41,3.33"/><path class="b" d="M8.53,155.28c1.11.09,2.34.69,3.48.54,4.13-.64,6.5-4.67,9.57-7.05,8.83-1.22,12.96,6.54,19.15,7.08,5.06-.42,8.89-7.63,13.06-10.46l.87.11c4.57,3.92,8.81,11.11,15.67,10.25,3.02-.51,5.84-1.99,8.7-3.02,1.08-.4,2.37-.82,3.48-1.11.8-.2,1.82-.55,2.61-.16,2.35,1.74,4.94,3.48,7.83,4.13,4.13.91,8.17-1.04,12.18-1.69.78-.22,1.83-.03,2.61.11,1.39.21,2.95.36,4.35.41,1.14-.09,2.41.26,3.48.59,1.08.24,2.38.4,3.48.47,2.87.16,5.84.09,8.7-.21,1.4-.09,2.94-.59,4.35-.51,12.75.62,25.62.97,38.3-.79,5.34,3.16,7.72,1.59,13.06-.19"/><path class="b" d="M8.53,152.08c3.65,1.21,7-1.46,9.57-3.75,2.52-2.24,5.01-4.72,7.83-6.57,3.37.47,6.19,3,8.7,5.14,2.58,2.1,5.08,5.5,8.7,5.47,4.09-.87,6.49-4.99,9.57-7.5,1.03.31,1.87,1.52,2.61,2.23,1.3,1.34,2.8,2.81,4.35,3.86,3.55,2.59,7.07,1.11,10.44-.93,2.77-1.62,5.63-3.35,8.7-4.32,1.86.76,3.49,2.3,5.22,3.32,3.06,2.02,6.68,3.8,10.44,3.27,2.97-.27,5.77-1.78,8.7-2.07,5,1.92,10.4,1.8,15.67,1.86,6.95.28,13.94.41,20.89.12,9.28-.47,18.57.16,27.85.16,1.7-.03,3.53-.12,5.22-.27,1.09.06,2.38.42,3.48.21,2.39-.41,4.68-1.55,6.96-2.32"/><path class="b" d="M8.53,148.89c7.29.64,13.54-9.91,22.63-11.79,5.02,2.4,8.84,10.69,13.93,11.8,2.79.16,4.95-2.23,6.96-3.84l.87-.03c7.27,7.49,10.61,2.45,17.41-2.08,1.05-.6,2.21-1.69,3.48-1.67,1.43.6,2.99,1.39,4.35,2.14,9.99,5.66,12.16,7.02,23.5,3.63,4.97,2.3,9.51,1.9,14.8,1.83,3.75-.07,7.57-.21,11.31-.53,3.46-.46,6.97-1.06,10.44-1.45,5.76-.74,11.63-.96,17.41-.34,5.52.54,11.01,1.73,16.54,2.19,3.79.31,7.88.51,11.31-1.4"/><path class="b" d="M8.53,145.45c9.57-.91,15.34-12.41,28.72-10.21,2.41,2.55,4.44,5.65,6.96,8.09,2.45,2.41,4.89,2.74,7.83.93.5,0,1.34.31,1.74.6.73.35,1.79.63,2.61.6,4.26-.51,6.97-4.48,10.44-6.57,8.03-.03,14.87,5.04,22.63,6.33,3.76.63,7.6-.1,11.31-.67,1.42.15,2.89.9,4.35.9,2.33.18,4.66-.7,6.96-.78,4.82,1.2,9.88.75,14.8.75,4.49-.08,8.92-1.21,13.06-2.92,1.99-.79,4.08-1.68,6.09-2.44,1.7-.04,3.53.05,5.22.2,7.1.6,13.91,2.94,20.89,4.25,1.42.2,2.97.53,4.35.89,2.3.09,4.8.23,6.96-.71"/><path class="b" d="M8.53,141.87c4.43-.64,8.26-3.25,12.18-5.2,6.72-3.63,14.05-4.51,20.89-.66,1.45.84,3.19,1.68,4.35,2.93,2.53,2.76,5.04,3.6,8.7,2.85,13.54-6.69,20.37-3.32,33.94-.54,5.44,1.02,11.04.74,16.54.69,2.58-.01,5.26.17,7.83,0,2.29-.23,4.65-.85,6.96-.9,2.9-.12,5.84.41,8.7.76,6.44,1.1,11.91-1.78,17.41-4.7,1.37-.67,2.9-1.48,4.35-1.95,2.01.28,4.12.7,6.09,1.18,6.11,1.47,12.06,3.77,18.28,4.8,2.85.54,5.81,1.29,8.7.56"/><path class="b" d="M8.53,137.95c11.59-3.02,17.85-8.93,30.46-3.2,3.83,1.55,7.86,4.8,12.18,3.41,4.09,1.13,8.21-.81,12.18-1.63,4.25-1.04,8.69-1.43,13.06-1.16,4.95.28,9.88,1.2,14.8,1.78,1.39.17,2.95.33,4.35.44,1.06.4,2.32.95,3.48.94,1.15.05,2.35-.68,3.48-.66,3.79-.03,7.74-.24,11.31-1.62,9.99-4.84,15.72,3.68,24.37,2.01,5.43-1.39,9.69-5.48,14.8-7.63,7.65,1.66,14.94,4.79,22.63,6.29,2.56.6,5.15,1.84,7.83,1.58"/><path class="b" d="M8.53,133.53c14.44-3.63,17.22-4.06,31.33.96,2.87.93,6.11.73,8.7-.88.91-.17,1.81.63,2.61.91,1.91.72,4.11.63,6.09.34,4.94-.84,9.8-2.35,14.8-2.88,6.05-.74,12.21-.45,18.28-.12,5.05,4.54,7.1,3.95,12.18.06,3.23-.23,6.54-.81,9.57-1.97,2.48-1.07,5.03-2.47,7.83-2.22,7.69.16,13.89,8.84,20.89,7.1,3.92-1.12,7.08-4,10.44-6.16,1.35-.75,2.76-2.1,4.35-2.18,5.55,1.34,11,3.2,16.54,4.56,1.7.43,3.59.71,5.22,1.36,2,.76,4.02,1.85,6.09,2.42"/><path class="b" d="M8.53,128.6c21.39-3.75,25.87,8.52,37.42-.28,1.67,1.03,3.23,2.57,5.22,2.99,4.96.97,9.98-.85,14.8-1.85,6.56-1.59,13.29-2.58,20.02-3.02,1.58.94,2.82,2.66,4.35,3.7,4.52,3.7,8.2-.69,11.31-3.85.39-.44,1.18-1.18,1.74-1.38.44-.07,1.3-.23,1.74-.31,1.41-.27,2.97-.64,4.35-1.04,3.19-.8,6.2-2.73,9.57-2.58,6.92.14,11.89,5.62,17.41,9.05,2.3,1.47,5.28,2.13,7.83.89,4.77-2.1,8.25-6.56,13.06-8.54,4.63.96,9.28,2.09,13.93,2.99,1.69.36,3.56.54,5.22,1.01,2.46.77,4.73,2.24,6.96,3.48"/><path class="b" d="M8.53,123.39c5.34-.06,10.64,1.08,15.67,2.81,7.72,2.76,11.75,2.99,18.28-2.52l.87.13c1.87,1.96,4.19,3.9,6.96,4.25,3.79.29,7.63-.61,11.31-1.4,4.92-1.15,9.85-2.49,14.8-3.56,2.28-.4,4.65-1.2,6.96-1.24,7.19,7.95,9.3,8.55,16.54.23,4.32-4.86,3.56-3.67,9.57-5.1,3.14-.67,6.31-1.9,9.57-1.66,7.87.2,13.27,6.41,19.15,10.77,2.22,1.62,5.18,2.71,7.83,1.51,4.86-2.16,8.36-6.58,13.06-9.03,4.03.53,8.13,1.02,12.18,1.39,5.33.26,7.7.81,12.18,3.88"/><path class="b" d="M8.53,118.16c3.91.59,7.71,1.97,11.31,3.55,3.3,1.37,6.76,3.26,10.44,2.92,2.22-.26,4.32-1.42,6.09-2.73,1.13-.73,2.17-2.1,3.48-2.47,5.85,6.29,7.79,5.66,15.67,4.31,8.56-1.34,16.87-3.96,25.24-6.12,2.58,2.56,4.93,6.27,8.7,7.04,5.29.22,10.37-10.19,15.67-12.39,5.73-.85,11.62-2.29,17.41-1.1,10.4,1.68,16.19,13.63,23.5,13.49,2.63-.25,4.93-1.97,6.96-3.53,2.54-2,5.07-4.23,7.83-5.93,1.36-.33,2.96-.09,4.35-.16,1.99-.01,4.1-.06,6.09-.11,4.76-.31,7.98-.14,12.18,2.47"/><path class="b" d="M8.53,113.17c5.33,1.44,9.85,4.81,14.8,7.1,5.24,2.58,9.38-.57,13.06-4.16,1.85,1.07,3.28,3.05,5.22,4.04,3.6,2.32,7.59.19,11.31-.54,8.59-.85,17.02-2.87,25.24-5.44,1.07.26,1.87,1.55,2.61,2.27,1.52,1.61,3.2,3.4,5.22,4.37,3.93,1.7,7.09-2.46,9.57-4.9,2.37-2.51,4.82-5.2,7.83-6.96,1.04-.59,2.33-1.15,3.48-1.46,1.39-.15,2.95-.29,4.35-.38,3.47-.38,7.01-.11,10.44.44,2,.32,4.13.64,6.09,1.15,3.2,1.3,6.07,3.45,8.7,5.64,3.22,2.55,6.3,5.91,10.44,6.82,5.15.62,9.19-4.22,13.06-6.94,1.34-.94,2.76-2.26,4.35-2.74,1.09-.15,2.39-.33,3.48-.49,5.34-.76,10.5-2.1,15.67.26"/><path class="b" d="M8.53,108.55c4.79,1.74,8.72,5.16,13.06,7.72,4.93,3.07,8.51.85,12.18-2.81,3.53,2.75,6.54,5.55,11.31,3.71,2.29-.79,4.57-1.95,6.96-2.39,3.15-.33,6.42-.15,9.57-.62,5.01-.59,9.97-1.78,14.8-3.23,2.46,2.28,4.61,5.32,7.83,6.57,3.89,1.2,6.98-2.56,9.57-4.88,2.16-2.1,4.42-4.32,6.96-5.96,5.35-3.57,12.19-3.48,18.28-2.21,5.92,1.21,11.59,3.51,17.41,5.12,3.97,2.7,7.52,6.43,12.18,7.92,7.5,2.02,14.07-8.63,20.89-10.44,4.49-1.31,9.27-2.37,13.93-1.29"/><path class="b" d="M8.53,104.38c3.85,1.61,7.14,4.37,10.44,6.86,4.45,3.4,7.71,4.46,12.18.37l.87-.02c6.25,4.9,9.48,2.13,15.67-.71,2.15-.95,4.63-1.44,6.96-.97,4.32.53,8.76.36,13.06-.29,1.4-.21,2.97-.51,4.35-.82.78-.17,1.82-.55,2.61-.27,2.44,2.38,5.06,5.55,8.7,5.79,4.88-.17,10.3-7.17,14.8-9.67,5.08-3.3,11.53-4.28,17.41-2.91,6.69,1.5,12.64,5.21,19.15,7.23,3.36,1.07,6.92,1.71,10.44,1.8,1.63,1.03,3.42,2.12,5.22,2.82,10.87,4.42,17.61-13.74,33.07-12.52"/><path class="b" d="M8.53,100.66c3.54,1.54,6.59,4.1,9.57,6.49,3.47,2.79,7.14,5.38,11.31,2.16.51-.05,1.33.23,1.74.51.75.35,1.8.73,2.61.89,4.17.74,7.76-2.23,11.31-3.93,2.38-1.2,5.14-2.13,7.83-1.66,6.2,1.82,12.81,1.99,19.15.8,3.51,3.21,7.28,6.64,12.18,3.9,5.78-3.22,10.75-8.22,17.41-9.68,7.33-1.89,14.46.2,20.89,3.79,7.05,3.9,13.58,6.28,21.76,6.18,2.59.02,5.28-.14,7.83-.58,1.73.24,3.43,1.28,5.22,1.3,2.85.19,5.57-1.24,7.83-2.83,5.38-3.74,11.5-10.45,18.28-10.99"/><path class="b" d="M8.53,99.28c3.64-.4,4.21.29,6.96,2.41,3.71,2.76,8.07,7.47,13.06,4.91,5.66,2.57,10.79-1.98,15.67-4.28,2.4-1.14,5.18-1.9,7.83-1.36,2.04.51,4.03,1.56,6.09,2,3.67.92,7.55,1.14,11.31.88,1.67,1.07,3.3,2.52,5.22,3.14,4.81,1.55,9.07-2.34,13.06-4.45,8.01-4.94,16.4-5.68,25.24-2.56,4.26,1.31,8.08,3.8,12.18,5.49,6.59,3,13.92,1.44,20.89,1.71,4.04.11,8.24.59,12.18-.58,2.67.8,5.24,1.19,7.83-.15,6.48-3.32,10.53-10.3,17.41-12.98"/><path class="b" d="M8.53,97.54c2.33-.16,4.75.24,6.96.97,2.77,1.86,5.42,4.28,8.7,5.2.79.19,1.82.26,2.61.13.51-.18,1.24-.21,1.74-.06,4.09.74,7.85-1.59,11.31-3.44,4.15-2.36,9.4-4.33,13.93-1.81,3.98,2.16,8.55,3.12,13.06,3.26,1.3.83,2.82,1.67,4.35,1.99,4.86.9,8.75-3.08,13.06-4.52,3.19-.96,6.4-2.13,9.57-3.13,6.98-.86,13.59,2.21,20.02,4.47,3.17,1.02,6.27,2.57,9.57,3.13,5.37.92,10.45-1.8,15.67-2.57,4.37-.78,8.87-.05,13.06,1.28,2.52.73,5.17,1.65,7.83,1.46,1.12-.04,2.36-.64,3.48-.61,8.31,3.48,13.58-9.06,20.02-12.56"/><path class="b" d="M8.53,94.95c2.95-.17,5.95.54,8.7,1.58,2.21,1.32,4.47,2.86,6.96,3.59,1.07.31,2.38.43,3.48.27,1.09.06,2.39.13,3.48-.04,3.07-.48,5.9-2.02,8.7-3.28,3.74-1.77,8.18-3.06,12.18-1.38,1.44.59,2.9,1.55,4.35,2.12,2.19.9,4.62,1.44,6.96,1.71.82.05,1.82.55,2.61.74,1.08.26,2.4.28,3.48.04,1.64-.6,3.5-.55,5.22-.67,2.3-.18,4.7-.51,6.96-.97,5.62-1.09,10.99-3.31,16.54-4.68,3.86,1.27,7.5,3.26,11.31,4.65,2.77,1.01,5.77,1.6,8.7,1.83,11.81.41,18.3-13.69,34.81-4.63,4.24,2.23,8.95,6.36,13.93,3.8,3.9,2.19,7.07-.4,9.57-3.32,2.27-2.58,4.38-5.53,6.96-7.82"/><path class="b" d="M8.53,91.25c5.35-.42,7.69,1.68,12.18,3.82,2.16,1.02,4.55,1.91,6.96,1.94,2-.14,4.12.16,6.09-.3,3.53-.71,6.89-2.32,10.44-2.95,6.67-1.27,8.96,2.19,14.8,2.97,4.02.49,8.14.2,12.18.27,7.03.19,14.13-.26,20.89-2.35,2.28-.63,4.66-1.34,6.96-1.87,1.24-.06,2.39,1,3.48,1.46,5.6,3.26,12.44,3.75,18.28.79,1.54-.93,3.56-.92,5.22-1.55,2.99-.95,5.88-2.41,8.7-3.76,3.83-1.85,7.91-3.5,12.18-3.91,2.13.41,4.24,1.42,6.09,2.54,2.45,1.51,4.72,3.47,6.96,5.26,2.63,2.14,6.13,4.49,9.57,2.8.43-.1,1.36.1,1.74.35.74.26,1.86.29,2.61.03,4.24-2.03,6.4-6.83,9.57-10.1"/><path class="b" d="M8.53,87.71c6.69.75,12.49,4.87,19.15,5.72,2.3.34,4.68-.3,6.96.08,4.36.21,8.69-1.12,13.06-.82,2.89.1,5.8,1.11,8.7.78,2.05.18,4.21,0,6.09-.89,7.25-1.43,14.52.56,21.76.95,3.8.16,7.63-.55,11.31-1.45,1.39-.33,2.95-.71,4.35-1,1.21.07,2.36,1.06,3.48,1.46,1.6.69,3.47,1.11,5.22.98,2.36-.07,4.64-1.27,6.96-1.42.76.17,1.83.31,2.61.35,7.11.51,13.3-3.48,19.15-6.97,4.46-2.56,9.58-4.54,14.8-4.17,1.85.83,3.67,2.08,5.22,3.37,4.19,3.12,8.93,10.51,14.8,8.48,1.12.01,2.37.65,3.48.17,3.45-1.69,5.4-5.47,7.83-8.29"/><path class="b" d="M8.53,85.72c6.28,0,12.19,2.54,18.28,3.72,4.57.97,9.3.61,13.93.26,2.28-.1,4.67.22,6.96.06,2-.03,4.09.4,6.09.32,3.15-.09,6.1-1.59,8.7-3.25,1.09-.67,2.32-1.6,3.48-2.16,2.61-.11,5.31.31,7.83.98,11.9,3.55,13.97,6.18,26.98,2.9,3.98,2.31,7.32,1.67,11.31-.13,7.17,2,13.62,1.24,20.02-2.67,5.69-3.46,11.4-7.67,18.28-8.13,1.99-.17,4.13-.09,6.09.29,4.38,2.43,7.4,6.76,11.31,9.81,1.48,1.15,3.32,2.19,5.22,2.33.42.03,1.32,0,1.74-.07.42.1,1.32.07,1.74-.07,2.82-1.27,4.89-4.04,6.96-6.26"/><path class="b" d="M8.53,83.81c7.28-1.07,14.57.58,21.76,1.58,4.02.56,8.13.86,12.18.86,3.18-.01,6.49-.11,9.57-.99,6.04-1.94,10.7-6.71,16.54-9.1,4.39.75,8.41,2.96,12.18,5.24,3.53,2.1,7.17,4.49,11.31,5.09,2.91.42,5.88-.29,8.7-.95,2.42,1.38,5.36,1.33,7.83.11.79-.32,1.72-.99,2.61-.87,2.9.63,5.67,1.57,8.7,1.38,4.22,0,8.45-1.05,12.18-3.02,7.15-3.86,14.04-8.92,22.63-8.09,8.24.57,12.25,6.04,18.28,10.56,1.26.91,2.84,1.14,4.35.87,2.26.56,4.51-.72,6.09-2.24"/><path class="b" d="M8.53,81.68c4.83-1.2,9.81-2.04,14.8-2.18,5.5-.21,11.04.23,16.54.08,4.44-.12,9.01-.73,13.06-2.67,4.82-2.46,9.43-5.65,14.8-6.83,1.08-.24,2.37-.5,3.48-.56.8.21,1.85.56,2.61.87,7.71,2.87,13.63,12.8,21.76,12.75,1.74.01,3.51-.69,5.22-.83,1.02.51,2.33.89,3.48.83,2.22-.07,4.08-1.61,6.09-2.31,1.43.17,2.99.61,4.35,1.09,4.8,1.28,10.02.82,14.8-.38,3.92-1.06,7.61-2.96,11.31-4.59,24.44-11.32,29.07,11.58,38.3,4.86,1.43.35,2.78,1.52,4.35,1.33"/><path class="b" d="M8.53,79.13c6.98-2.01,13.67-5.14,20.89-6.34,8.11-1.57,16.56-1.81,24.37-4.71,4.72-1.82,9.73-2.97,14.8-3.03,3.37-.14,6.64-.31,9.57,1.69,6.17,3.52,11.35,14.25,19.15,12.81.78-.15,1.85-.45,2.61-.72.45.03,1.34.3,1.74.52,3.17,1.21,6.13-1.12,8.7-2.67,2.69.3,5.13,1.88,7.83,2.17,4.9.64,9.95.28,14.8-.65,4.4-.86,8.69-2.37,13.06-3.38,4.82-1.16,9.98-1.49,14.8-.12,4.54,1.07,8.47,4.08,13.06,4.95,2.93.32,5.56-1.6,7.83-3.2.47.31,1.34,1.02,1.74,1.4"/><path class="b" d="M8.53,76.12c3.48-.63,6.56-2.68,9.57-4.43,3.33-2,6.8-3.96,10.44-5.34,5.83-2.26,12.1-3.08,18.28-3.78,3.46-.37,6.97-.84,10.44-1.03,4.91-.17,9.88-.04,14.8-.08,1.69.05,3.55-.16,5.22.19,4.19,1.33,6.77,5.39,9.57,8.51,3.68,4.3,7.13,7.95,13.06,4.89,4.57,3,7.49-.54,11.31-2.6,1.49.32,2.98,1.12,4.35,1.74,1.35.56,2.92.97,4.35,1.2,8.37,1.11,16.89.29,25.24-.59,5.18-.57,10.47-1.01,15.67-.37,11.49,1.53,11.59,3.92,22.63-2.23"/><path class="b" d="M8.53,72.78c5.14-.39,9.73-6.09,13.93-8.88,1.92-1.64,4.66-1.74,6.96-2.56,3.45-.99,6.92-2.22,10.44-2.94,3.99-.73,8.15-.27,12.18-.39,6.37,0,12.78,0,19.15,0,6.9.09,8.29-1.1,13.06,4.87,2.97,3.37,5.73,8.96,10.44,9.87,1.14.1,2.46-.28,3.48-.75.35-.29,1.29-.51,1.74-.44,4.77,3.28,8.27-.98,12.18-3.25,1.78.67,3.45,1.92,5.22,2.61,2.18.91,4.61,1.41,6.96,1.63,7.52.49,15.1.04,22.63.22,4.62.02,9.3-.03,13.93-.02,3.75-.02,7.58.17,11.31-.27,3.89-.51,7.53-2.29,11.31-3.25"/><path class="b" d="M8.53,69.29c3.69.22,6.06-3.29,8.7-5.28,3.88-.84,7.71-2.15,11.31-3.82,3.19-1.44,6.32-3.24,9.57-4.54,2.18-.94,4.61-1.21,6.96-1.09,2.29,0,4.68,0,6.96,0,6.95,0,13.94,0,20.89,0,1.99.08,4.13-.19,6.09.17,3.57,1.47,5.56,5.3,7.83,8.2,3.38,4.51,6.35,8.78,12.18,4.66,1.59.85,3.34,1.94,5.22,1.7,3.4-.44,5.84-3.25,8.7-4.83,10.05,7.06,14.11,4.76,25.24,3.16,4.31-.58,8.72-.63,13.06-.35,6.36.4,12.76,1.26,19.15.89,4.39-.23,8.65-1.74,13.06-1.85"/><path class="b" d="M8.53,65.81c1.61.29,2.98-.87,4.35-1.46,5.1-.33,10.26-1.38,14.8-3.82,2.74-1.43,5.34-3.31,7.83-5.13,2.84-1.98,5.92-4.49,9.57-4.31,7.53,0,15.1,0,22.63,0,3.46.03,6.99-.08,10.44.06,2.24.46,3.86,2.51,5.22,4.19,2.8,3.26,5.85,10.04,10.44,10.51,1.19-.02,2.48-.6,3.48-1.21.33-.33,1.27-.71,1.74-.72,4.12,3.03,7.43,2.12,11.31-.7,1.1-.66,2.18-1.92,3.48-2.14,10.54,8.67,13.69,3.52,24.37-.51,4.41-1.65,9.26-2.16,13.93-1.54,5.9.73,11.53,2.95,17.41,3.79,4.6.68,9.33-.19,13.93.63"/><path class="b" d="M8.53,62.38c9.84-.13,18.23,1.18,26.11-6.02,2.64-2.23,5.05-4.91,7.83-6.97,2.78-2.23,5.41-1.73,8.7-1.76,3.17,0,6.41,0,9.57,0,3.75.02,7.56-.04,11.31.03,1.7.05,3.54.2,5.22.48.43.07,1.32.25,1.74.35.47.32,1.34,1.06,1.74,1.46,3.73,3.71,5.84,9.22,10.44,12,2.43,1.25,5.01-.51,6.96-1.91,6.77,4.2,9.81,2.18,15.67-2.17,1.26.48,2.36,1.71,3.48,2.44,4.71,3.61,8.02,1.96,12.18-1.38,3.26-2.59,6.55-5.4,10.44-6.98,7.68-3.24,16.35-1.27,23.5,2.41,2.82,1.35,5.7,2.83,8.7,3.74,3.73.94,7.62,1.46,11.31,2.59"/><path class="b" d="M8.53,58.92c1.16-.16,2.28-1.11,3.48-1.05,4.05-.4,8.18-.04,12.18.64,10.75,2.4,14.29-5.27,20.89-11.71,3.03-2.91,4.78-2.7,8.7-2.64,3.75-.03,7.57,0,11.31.34,4.67.39,9.41,1,13.93,2.3,1.08.29,1.91,1.6,2.61,2.39,1.11,1.39,2.38,3.1,3.48,4.5,3.82,4.82,6.57,7.21,12.18,2.93l.87-.04c6.12,3.63,10.19,2.77,15.67-1.43l.87.09c3.33,2.88,6.46,5.44,10.44,1.89,6.63-6.04,9.82-12.78,20.02-12.84,9.83-.38,14.58.3,22.63,6.27,2.18,1.5,4.49,3.07,6.96,4.05,2.88,1.09,5.77,2.4,8.7,3.32"/><path class="b" d="M8.53,55.26c1.31-.51,2.54-1.66,3.48-2.67.6-.82,1.57-1.53,2.61-1.59,4.41-.93,9.01-.03,13.05,1.85,2.24.95,4.52,2.24,6.96,2.58,6.42.51,10.45-8.54,14.8-12.26,2.83-2.47,3.42-2.49,6.96-1.53,6.3,1.67,12.75,2.83,19.15,4.05,6.21,1.17,4.64.96,8.7,5.46,2.16,2.39,5.23,5.32,8.7,3.97,1.5-.45,2.86-1.66,4.35-2.07,6.16,2.79,10.79,3.74,16.54-.6.98.05,1.84,1.05,2.61,1.57.98.7,2.24,1.42,3.48,1.45,4.98-.43,9.03-10.6,13.93-13.42,1.77-1.21,4.01-1.45,6.09-1.35,1.99,0,4.1,0,6.09,0,3.17,0,6.41,0,9.57,0,2.66-.1,5.5.02,7.83,1.46,3.21,1.85,5.82,4.69,8.7,6.98,3.4,2.52,7.23,4.79,11.31,5.97"/><path class="b" d="M8.53,51.26c3.16-2,5.02-5.58,7.83-7.93,7.63-2.22,13.44,1.67,19.15,6.22,2.18,1.67,5.19,3.45,7.83,1.7,4.28-2.65,6.38-7.93,10.44-10.73,7.47,4.72,15.76,5.7,24.37,6.29,1.1.12,2.42.12,3.48.46,2.55,2.42,5.76,5.43,9.57,4.59,1.82-.3,3.45-1.59,5.22-1.99,6.22,1.7,11.48,3.77,17.41-.15,1.71,1.23,3.9,2.99,6.09,1.94,3.95-2.44,5.79-7.22,8.7-10.67,3.23-4.05,4.75-3.85,9.57-3.75,4.04,0,8.14,0,12.18,0,4.04.12,8.18-.29,12.18.24,3.71,1.05,6.08,4.62,8.7,7.21,3.25,3.3,7.41,6.85,12.18,7.31"/><path class="b" d="M8.53,46.89c4.22-3.46,7.19-8.63,12.18-11.1,1.99-.24,4.13-.16,6.09.25,8.92,1.78,12.23,10.58,18.28,12.45,3.78.33,6.29-3.75,8.7-6.08,7.17,5.03,15.1,4.88,23.5,4.57,1.7-.07,3.53-.15,5.22-.22,2.18.95,4.5,2.1,6.96,1.73,1.12-.13,2.42-.5,3.48-.89.77-.28,1.77-.83,2.61-.57,5.73.42,11.98,3.09,17.41.11,1.56.82,3.45,1.9,5.22,1.11,3.69-2.11,5.4-6.54,7.83-9.85,3.5-5.16,4.66-4.66,10.44-4.62,4.33,0,8.72,0,13.06,0,2.9-.02,5.96-.15,8.7.97,3.5,1.35,6.49,3.82,9.57,5.9,1.59,1.17,3.56,2.03,5.22,3.07,2.67,2.71,6.4,5.66,10.44,4.58"/><path class="b" d="M8.53,42.28c5.6-5.22,9.97-10.83,18.28-11.23,14.43-2.34,17.76,19.36,26.98,12.69,4.97,2.07,10.44,1.13,15.67,1.27,4.63.05,9.3.18,13.93-.1,1.1-.13,2.38.16,3.48.17,1.41.02,2.98-.21,4.35-.52,3.42-.49,7.01-.15,10.44.1,2.86.24,5.86.73,8.7.12.78-.3,1.85-.32,2.61.03,1.09.32,2.44.36,3.48-.12,4.12-2.42,5.87-7.45,8.7-11.09,1.19-1.08,2.85-1.85,4.35-2.38,3.91-1.27,8.14-.82,12.18-.91,6.51-.19,11.29.31,16.54,4.58,5.23,4.17,10.22,9.62,17.41,9.72,1.11,0,2.39.29,3.48.45,1.39-.09,2.95-.28,4.35-.19"/><path class="b" d="M8.53,37.69c3.24-2.8,6.44-5.94,10.44-7.64,5.84-2.44,12.91-1.95,18.28,1.46,4.92,2.85,8.38,8.18,13.93,9.92,1.98.37,4.19.27,6.09-.42,2.51-.93,5.13-1.84,7.83-1.89,5.88-.29,11.63,1.44,17.41,2.23,4.31.56,8.73.17,13.06.08,3.46-.13,6.99.09,10.44.19,1.09.02,2.4-.04,3.48-.21.77.12,1.83.24,2.61.2,4.81-.34,6.86-5.53,9.57-8.77,3.55-3.32,8.15-5.53,13.06-5.69,11.81-.7,15.94,1.11,24.37,9.28,2.68,2.42,5.79,5.02,9.57,5.18,1.71.07,3.54-.27,5.22-.49,1.12-.06,2.33.65,3.48.48.8-.09,1.88-.44,2.61-.8,1.07-.21,2.4-.12,3.48-.13"/><path class="b" d="M8.53,33.58c1.55-1.99,3.98-3.34,6.09-4.67,4.94-2.9,11.23-3.51,16.54-1.25,3.95,1.63,7.17,4.65,10.44,7.31,3.74,3.09,6.91,4.43,11.31,1.58.92-.05,1.8.75,2.61,1.05,2.49.97,5.27.45,7.83.12,4.02-.59,8.15-.59,12.18-.2,3.74.34,7.55.71,11.31.64,3.46-.16,6.98.08,10.44-.03,2.58-.05,5.25,0,7.83.03,2.33.03,4.84.04,6.96-1.04,3.99-2.03,6.89-5.73,10.44-8.38,5.97-4.91,14.55-5.7,21.76-3.43,4.87,1.67,8.48,5.59,12.18,8.98,2.54,2.35,5.97,4.87,9.57,3.47,1.45-.43,2.88-1.44,4.35-1.79,3.9,4.85,8.58.28,12.18-2.4l.87-.06"/><path class="b" d="M8.53,32.01c1.82-1.97,3.41-4.41,5.22-6.38,6.4-2.9,13.57-1.77,19.15,2.35,4.38,2.73,9.18,9.09,14.8,5.72,2.18-1.15,3.96-3.14,6.09-4.35,4.21,4.56,9.76,5.36,15.67,5.32,4.33.05,8.72.03,13.06-.02,4.05-.1,8.14-.08,12.18.05,4.04-.02,8.14-.09,12.18,0,2.35.05,4.87-.18,6.96-1.33,4.29-2.56,7.7-6.51,12.18-8.78,5.33-2.83,12.04-2.97,17.41-.17,2.88,1.48,5.42,3.71,7.83,5.84,2.06,1.74,4.23,3.86,6.96,4.4,3.51.37,6.2-2.66,8.7-4.68,1.49,1.7,2.75,4.37,5.22,4.73,3.87-.23,7.97-5.46,11.31-7.56"/><path class="b" d="M8.53,30.07c2.71-2.35,4.66-5.63,6.96-8.35,13.65-2.49,20.21,12.56,27.85,8.93,4.28-2.13,7.23-6.26,11.31-8.69,7.86,6.83,15.25,7.64,25.24,8.23,2.29.15,4.68.29,6.96.45,1.08.23,2.38.47,3.48.55,2.29.12,4.67-.06,6.96.06,2.12.11,4.11-.49,6.09-.53,3.17.03,6.42.85,9.57.35,5.18-1.3,9-5.64,13.93-7.58,5.02-2.3,10.99-1.77,15.67,1.09,11.2,7.16,11.57,10.73,21.76-.85,2.06,2.4,3.27,7.32,6.96,7.49,2.05-.5,3.67-2.27,5.22-3.6,2.19-2.05,4.44-4.27,6.96-5.91"/><path class="b" d="M8.53,27.55c2.63-1.25,4.34-3.99,6.09-6.2.73-.83,1.44-2.39,2.61-2.65,9.82,1.06,16.19,11.3,22.63,8.6,5.33-2.46,8.64-7.94,13.93-10.5,3.67-1.83,3.7-.64,6.96.88,2.78,1.39,5.75,2.58,8.7,3.53,2.84.92,5.81,1.7,8.7,2.46,2.19,1.34,4.48,2.8,6.96,3.52,2.51.78,5.27.69,7.83.24,2.27.34,4.7.56,6.96,0,1.14-.26,2.43-.77,3.48-1.27,2.02.05,4.13.4,6.09.84,2.25.5,4.67,1.1,6.96.54,3.92-.96,7.42-3.3,11.31-4.37,3.68-1.12,7.73-.92,11.31.47,3.52,1.2,6.69,3.69,10.44,4.13,4.16.13,7.04-3.68,9.57-6.48,1.06-1.11,2.09-2.8,3.48-3.52,1.74,2.63,4.27,10.11,7.83,9.98,2.14-.62,3.64-2.69,5.22-4.13,2.4-2.43,4.88-5.04,7.83-6.81"/><path class="b" d="M8.53,24.3c3.8-.02,6.45-5.08,8.7-7.67,2.64-.49,9.48,4.73,12.18,6.07,2.7,1.59,5.88,2.28,8.7.58,4.77-2.76,8.14-7.54,13.06-10.11,8.5-4.42,16.83.37,23.5,5.77,4.24,3.32,9.18,6.56,14.8,4.96.78-.18,1.84-.47,2.61-.71.8.11,1.83.54,2.61.75,3.01.94,6.26-.04,8.7-1.92,1.11-1.07,2.05-1.1,3.48-.74,2.98.53,5.8,1.92,8.7,2.7,3.17.78,6.47-.06,9.57-.73,2.83-.62,5.81-1.05,8.7-.82,3.23.2,6.39,1.26,9.57,1.76,8.07,1.22,12.21-7.5,17.41-12.04,2.48,3.05,3.69,7.21,6.09,10.34,2.89,4.05,5.56.1,7.83-2.25,2.66-2.79,5.32-5.84,8.7-7.76"/></svg>