<?xml version="1.0" encoding="UTF-8"?><svg id="a" xmlns="http://www.w3.org/2000/svg" width="1920" height="2400" viewBox="0 0 192 240"><defs><style>.b{fill:none;stroke:#fff;stroke-miterlimit:10;stroke-width:.3px;}.c{stroke-width:0px;}</style></defs><rect class="c" x="0" width="192" height="240"/><path class="b" d="M10.63,215.65c5.25,1.38,10.2,3.79,15.29,5.63,4.09,1.5,8.4,2.54,12.74,2.92,4.22.36,8.53.42,12.74-.09,2.83-.33,5.61-1.48,8.49-1.46,2.57-.05,5.18.53,7.65,1.2,3.29.96,7.01,1.76,10.19.02,6.97,1.87,14.13.61,21.24.85,14.48.71,20.33-.17,33.98-5.11,7.38,7.67,8.61,5.23,17.84,3.61,4.32-.69,8.55.78,12.74,1.57,6.98,1.24,11.26-5.67,16.14-9.38.44.31,1.29.97,1.7,1.32"/><path class="b" d="M10.63,213.47c6.67,1.66,12.85,4.92,19.54,6.52,4.42,1.1,9.05,1.41,13.59,1.45,4.25.06,8.57-.04,12.74-.92,2.51-.39,5.16-.21,7.65.25,2.77.49,5.72,1.23,8.49.42,1.86-.41,3.39-1.86,5.1-2.55,8.03,3.33,16.97,2.79,25.48,2.68,5.38-.25,10.83-.5,16.14-1.41,2.56-.47,5.17-1.17,7.65-1.97,1.67-.47,3.39-1.33,5.1-1.63,6.77,9.04,9.39,3.95,17.84,2.04,4.09-.85,8.15.64,11.89,2.17,2.12.83,4.59,1.48,6.8.61,4.47-1.89,7.33-6.22,11.04-9.18l.85.02.85.76"/><path class="b" d="M10.63,211.89c6.89,1.47,13.4,4.54,20.39,5.61,4.19.69,8.51.69,12.74.67,3.09-.02,6.26.06,9.34-.08,3.37-.34,6.82-.62,10.19-.15,6.04.87,9.1-.63,13.59-4.5,9.35,4.01,19.77,3.7,29.73,3.23,3.66-.25,7.39-.1,11.04-.37,4.35-.37,8.66-1.5,12.74-3.02,6.73,9.54,9.3,2.49,16.99-.44,3.31-1.3,7.07-.82,10.19.77,3.12,1.41,5.87,4.03,9.34,4.54,3.99.11,6.73-3.6,9.34-6.11,1.31-1.2,2.55-3.01,4.25-3.68l.85.82"/><path class="b" d="M10.63,210.65c6.28.97,12.36,3.15,18.69,3.82,6.2.73,12.47-.04,18.69.15,3.66.16,7.38.19,11.04.1,2.23,0,4.57.21,6.8-.07,2.1-.26,4.2-1.14,5.95-2.34,1.47-.89,2.72-2.46,4.25-3.24,9.51,3.5,19.78,2.95,29.73,2.79,3.97-.15,7.94.58,11.89.66,2.25-.01,4.59-.28,6.8-.73,1.38-.22,2.85-.86,4.25-.93,6.42,9.9,9.54-2.04,17.84-5,3.67-1.45,7.87-.5,11.04,1.69,3.52,2.14,6.14,6,10.19,7.18,5.02.67,8.93-7.3,12.74-9.4l.85.87"/><path class="b" d="M10.63,209.31c5.96.51,11.85,1.9,17.84,2.08,5.94.23,11.9-.71,17.84-.63,6.48.08,13.13,1.51,19.54-.03,3.28-.85,5.94-3.15,8.49-5.24,9.95,2.93,20.39,1.36,30.58,1.51,2.25.07,4.59.3,6.8.74,1.66.34,3.41.9,5.1,1.09,3.09.37,6.3.15,9.34-.48,2.39,2.21,3.62,4.65,6.8,1.63,1.81-1.8,3.4-4.07,5.1-5.98,3.59-1.7,7.24-3.49,11.04-4.69.75-.23,1.78-.53,2.55-.71.79.06,1.81.35,2.55.63,5.09,1.94,8.03,6.91,11.89,10.45,2.18,2.03,4.42,2.31,6.8.37,2.54-1.99,4.56-4.72,6.8-7.01l.85-.14.85.9"/><path class="b" d="M10.63,207.4c5.65.16,11.33.83,16.99.61,5.67-.17,11.32-1.14,16.99-1.23,10.44-.15,17.9,4.1,27.18-3.69,1.66-.05,3.43.52,5.1.58,2.8.25,5.69.24,8.49.07,5.94-.33,11.87-1.44,17.84-1.37,3.45.04,6.97.64,10.19,1.9,3.18,1.39,6.76,1.77,10.19,1.53.86.49,1.67,1.58,2.55,2.04,2.32.81,3.82-2.07,5.1-3.54,8.63-2.84,16.25-8.75,25.48-9.69,5.65,2.62,8.51,11.87,13.59,13.39,3.9.15,6.87-4.97,9.34-7.49.5.28,1.33,1.06,1.7,1.5"/><path class="b" d="M10.63,204.64c5.08,0,10.22.14,15.29-.22,5.1-.32,10.19-1.15,15.29-1.51,3.09-.22,6.27-.19,9.34.2,2.53.28,5.09,1.04,7.65,1,2.27,0,4.65-.33,6.8-1.1.78-.28,1.82-.76,2.55-1.15.39-.3,1.2-.62,1.7-.58,5.04.89,10.26.56,15.29-.23,8.65-1.31,17.73-4.63,26.33-1.4,1.71.6,3.4,1.64,5.1,2.26,1.59.57,3.41.91,5.1,1.03,1.23,1.22,2.63,2.46,4.25,1.05.57-.77,1.58-1.34,2.55-1.34,7.04-1,13.17-4.85,19.54-7.73,4.01-1.81,8.34-3.05,12.74-3.34,3.99,2.89,7.22,12.84,11.89,13.09,3.01-.41,4.93-3.37,6.8-5.49l.85-.1c.42.41,1.27,1.22,1.7,1.62"/><path class="b" d="M10.63,201.18c5.66.03,11.36-.11,16.99-.69,5.37-.52,10.74-1.45,16.14-1.58,2.53-.06,5.15.1,7.64.5,1.95.27,3.97.91,5.95.99,1.66.07,3.47-.07,5.1-.42.43-.09,1.28-.32,1.7-.46.43.03,1.28.16,1.7.25,9.18,1.53,18.42-.68,27.18-3.35,6.35-1.9,13.55-2.77,19.54.67,1.59.91,3.31,1.91,5.1,2.38,1.83,1.48,2.88,2.67,5.1.77,15.66.88,22.81-8.86,36.53-10.54,1.06-.11,2.33-.17,3.4-.14.7.16,1.37,1.09,1.7,1.67,1.91,2.89,3.49,6.31,5.95,8.79,1.88,1.88,4.15,1.43,5.95-.31.76-.65,1.54-1.89,2.55-2.18.73.6,1.76,1.39,2.55,1.92"/><path class="b" d="M10.63,197.6c9.68.31,19.29-1,28.88-2.06,4.51-.41,9.14-.35,13.59.59,1.92.45,3.96.87,5.95.74,1.05.33,2.31.62,3.4.75,2.79.33,5.69.27,8.49.28,3.1-.01,6.27-.05,9.34-.47,5.57-.69,10.79-2.99,16.14-4.55,5.31-1.65,11.3-1.61,16.14,1.36,1.07.91,2.25,2.13,3.4,2.96.66.48,1.73.86,2.55.6.35-.29,1.24-.6,1.7-.58.75.1,1.79.2,2.55.24,4.83.23,9.77-.09,14.44-1.4,9.48-2.64,18.63-9.53,28.88-6.9,2.44,2.79,4.03,8.9,8.49,8.71,1.27-.19,2.18-1.51,3.4-1.75,1.01.6,2.27,1.2,3.4,1.51"/><path class="b" d="M10.63,194.33c5.09.06,10.22-.06,15.29-.51,4.53-.38,9.07-1.09,13.59-1.51,4.79-.43,9.76-.47,14.44.74,2.74,1.9,6.21,1.55,9.34,1.16,2.51-.28,5.12-.41,7.65-.28,4.23.19,8.51.96,12.74.39,5.29-.64,10.15-3.12,15.29-4.36,3.03-.73,6.32-.9,9.34-.03,1.22.67,2.29,1.97,3.4,2.8,1.38,1.07,3.32,2.37,5.1,1.47.4-.23,1.23-.31,1.7-.11,1.05.18,2.33.29,3.4.34,4.51.13,9.1.17,13.59-.3,11.49-1.1,22.51-9.6,33.98-3.69,1.91,1.7,3.74,5.19,6.8,3.75,1.66.1,3.43.6,5.1.19"/><path class="b" d="M10.63,191.15c6.22,0,12.49.05,18.69-.52,6.21-.53,12.44-1.61,18.69-1.24,1.08.09,2.39.07,3.4.51,1.98,1.43,4.54,1.48,6.8.74,2.55-.11,5.2-.33,7.65-1.14.77-.24,1.75-.68,2.55-.77,1.37.01,2.89.16,4.25.38,10.95,2.18,12.68,3.27,23.78-.32,3.82-1.13,7.97-1.86,11.89-.84,1.58,1.11,3.17,2.62,5.1,3.1.77.18,1.82.02,2.55-.28,1.05.24,2.33.36,3.4.38,3.95-.01,7.95-.27,11.89-.09,3.95.13,7.97.21,11.89-.32,3.98-.5,7.93-1.5,11.89-2.06,3.36-.48,6.86-.53,10.19.16,6.76,1.47,9,3.95,16.14.63"/><path class="b" d="M10.63,187.74c5.93-.05,11.91.13,17.84-.03,5.65-.13,11.33-.58,16.99-.48,2,0,4,.1,5.95.55,3.08-.25,6.25.13,9.34,0,5.45.14,9.72-1.34,14.44-3.91,5.74,1.96,11.61,4.82,17.84,3.68,3.1-.44,6.22-1.27,9.34-1.5,2.54-.21,5.18.06,7.65.68,1.67.39,3.33,1.27,5.1,1.06,2.56.03,5.13-.68,7.65-1.05,3.06-.5,6.25-.63,9.34-.42,4.53.3,9.06,1.13,13.59,1.37,4.51.28,9.08-.11,13.59-.17,5.09-.21,10.38,1.1,15.29-.69,2.68,2.25,5.1-.06,6.8-2.25"/><path class="b" d="M10.63,184.37c9.34-.11,18.7.05,28.03.03,3.37-.03,6.83.04,10.19-.09,2.82-.11,5.69-.58,8.49-.86,2.83-.17,5.7.39,8.49.75,5.97.97,10.13-1.5,15.29-3.87,10.36,5.41,13.04,3.85,23.78,3.71,1.95.03,4,.27,5.95.35.76.03,1.8-.02,2.55-.15.43.1,1.26.17,1.7.14,1.28-.14,2.46-1.12,3.4-1.93,1.63-.67,3.4-1.35,5.1-1.84,5.23-1.57,10.84-1.3,16.14-.24,7.01,1.44,14.03,3.31,21.24,3.31,4.34.05,8.93-.27,12.74-2.53,2.33,2.09,4.59,4.81,7.65,2.03"/><path class="b" d="M10.63,181.02c9.91-.08,19.85-.13,29.73-.9.85-.26,1.78.38,2.55.64.74.24,1.78.32,2.55.15,1.2-.29,2.45-1.08,3.4-1.85,1.65-.44,3.46-.77,5.1-1.26,3.59-1.35,7.53-.82,11.04.51,9.63,3.85,11.87,3.5,21.24-.8,1.98.65,3.91,1.78,5.95,2.29,2.45.72,5.1,1.03,7.65,1.12,4.26.15,8.6.17,12.74-.87,2.36,1.15,4.77,1.49,6.8-.48,1.26-1.17,2.45-2.86,3.4-4.29.36-.58,1.07-1.67,1.7-2,2.69-1.02,5.62-1.6,8.49-1.72,13.36-.98,27.21,9.79,39.92,3.66l.85.22c2.11,2.08,4.3,5.81,7.65,5.54"/><path class="b" d="M10.63,177.53c5.37.18,10.79.16,16.14-.36,3.12-.22,6.25-.96,9.34-1.31,2.27,1.32,5.14,2.53,7.65,1.12,2.33-1.18,4.01-3.42,5.95-5.09,2.51-.76,5.03-1.94,7.65-2.28,7.99-.78,13.86,6.1,21.24,7.79,4.42.95,8.69-1.23,12.74-2.71,6.09,2.25,13.41,3.14,19.54.59.85-.11,1.8.5,2.55.82,2.08.95,4.57,2.23,6.8,1,4.77-2.99,6.75-8.9,11.04-12.43,4.74-.81,9.71-.4,14.44.37,4.33.76,8.54,2.24,12.74,3.51,4.63,1.41,9.77,2.4,14.44.65,2.97,2.45,5.1,6.05,8.49,7.98"/><path class="b" d="M10.63,174.26c.77-.02,1.79-.25,2.55-.33,2.23.19,4.56.34,6.8.33,4.01,0,8.07-.64,11.89-1.85,4.23,1.41,6.98,3.26,11.04.03,1.85-1.46,3.53-3.4,5.1-5.15,1.03-.99,1.99-2.62,3.4-3.07,2.17-.75,4.48-1.53,6.8-1.59,9.17-.4,15.31,6.79,22.94,10.48,3.84,1.9,8.07,1.1,11.89-.42,1.06-.34,2.27-.99,3.4-1.02,1.05.22,2.33.41,3.4.49,3.46.26,7.1-.2,10.19-1.84,3.6.67,6.64,3.13,10.19,3.89,6.5.8,11.25-11.32,17.84-13.64,2.67-1.08,5.69-.62,8.49-.72,5.54-.18,10.93,1.37,16.14,3.1,14.43,4.15,5.39-3.64,18.69,9.25"/><path class="b" d="M10.63,170.88c1.41.06,2.89-.4,4.25-.7,2.5.39,5.11.76,7.65.7,1.68-.04,3.47-.31,5.1-.74.77-.21,1.76-.59,2.55-.7.45.14,1.26.42,1.7.56,2.15.73,4.61,1.33,6.8.42,5.66-2.6,8.36-9,13.59-12.22,1.82-.8,3.99-.89,5.95-1,2.54-.06,5.17.14,7.65.73,10.27,2.06,17.27,14.26,26.33,12.85,2.94-.47,5.72-1.82,8.49-2.84.76,0,1.8-.08,2.55-.19,1.09-.15,2.36-.46,3.4-.82.76-.26,1.73-.81,2.55-.85,11.35.13,13.45,10.64,24.63.02,3.78-3.36,7.74-6.96,12.74-8.32,3.29-.92,6.8-1.04,10.19-1.03,2.91-.16,5.77.68,8.49,1.63,2.17.71,4.5,1.4,6.8,1.5,3.7,1.35,6.5,4.41,9.34,7.01"/><path class="b" d="M10.63,167.5c1.4-.07,2.91-.48,4.25-.89,1.09-.51,2.31-.14,3.4.14,1.64.37,3.42.7,5.1.75,1.69.05,3.5-.24,5.1-.8,1.07-.64,2.32.03,3.4.3,9.51,3.06,13.12-9.43,20.39-12.81,2.88-1.41,6.24-1.02,9.34-1.07,4.98-.04,10.15.62,14.44,3.33,6.04,3.25,12.3,12.04,19.54,10.94,5.84-1.17,10.84-5.51,16.99-5.44,7.99-.17,14.86,8.13,22.94,4.68,6.2-2.64,11.34-7.47,17.84-9.49,6.27-2.08,13.19-2.1,19.54-.35,3.22.88,5.97,3.04,8.49,5.15"/><path class="b" d="M10.63,163.93c1.99-.43,3.99-1.26,5.95-1.82,4.82,1.06,8.54,3.36,13.59.97,2.15.7,4.55,1.49,6.8.74,6.67-2.62,9.36-10.81,16.14-13.32,3.53-1.13,7.39-.7,11.04-.72,9.62-.14,15.57,5.93,23.78,9.59,2.47,2.04,5.19,4.36,8.49,4.74,2.73.22,5.31-1.16,7.65-2.41,2.69-1.47,5.47-3.08,8.49-3.75,5.81-1.2,11.68.79,16.99,3.02,4.03,1.63,8.29,3.62,12.74,3.07,6.2-.89,11.32-4.98,16.99-7.36,4.49-1.98,9.53-3.18,14.44-2.45,2.7.91,5.28,2.38,7.65,3.95"/><path class="b" d="M10.63,159.77c1.94-.79,3.94-1.75,5.95-2.36,3.67,1.01,7.11,3.38,11.04,3.34,1.44.03,2.87-.71,4.25-.97,4.11,1.89,7.11.8,10.19-2.23,3.56-3.36,6.43-7.84,11.04-9.86,3.47-1.37,7.39-1.16,11.04-.82,7.75.72,13.64,6.32,20.39,9.57,2.13,1.02,4.47,1.82,6.8,2.25,1.35.36,3.02.12,4.25.82,3.13,2,6.36,1.27,9.34-.59,2.77-1.62,5.46-3.62,8.49-4.74,5.41-1.91,11.41-2.35,16.99-.93,6.31,1.41,11.65,5.48,17.84,7.17,8.84,2.12,15.73-7.5,24.63-8.16,3.02,1.28,5.72,3.38,8.49,5.11"/><path class="b" d="M10.63,154.71c1.6-.86,3.31-1.96,5.1-2.37,2.92.94,5.7,2.42,8.49,3.66,3.01,1.43,6.33,1.99,9.34.24,4.14,2.3,7.1.74,10.19-2.29,2.74-2.64,5.22-5.78,8.49-7.79,3.27-2.03,7.37-2.14,11.04-1.4,5.39,1.08,9.87,4.53,14.44,7.36,4.55,2.96,9.85,4.72,15.29,4.82,1.36.06,2.89.06,4.25,0,1.09-.1,2.37-.16,3.4.28,4.59.82,8.18-3.44,11.89-5.46,5.93-3.38,12.58-6.19,19.54-5.8,13.94.27,20.29,13.79,28.88,11,4.18-1.39,7.62-4.56,11.89-5.75,2.89,1.51,5.46,3.79,8.49,5.07"/><path class="b" d="M10.63,148.79c.73-.47,1.7-1.14,2.55-1.36,1.7.2,3.49.65,5.1,1.23,4.36,1.44,8.16,4.56,12.74,5.29,1.76.27,3.47-.56,5.1-1.05,8.71,5.24,12.8-11.2,23.78-9.7,7.42.77,12.8,6.73,19.54,9.32,4.03,1.64,8.48,1.53,12.74,1.42,3.66-.07,7.38.15,11.04-.07,3.99.66,7.1-2.81,10.19-4.77,7.6-5.29,12.24-9.19,22.09-9.04,8.7-.19,13.48,2.73,19.54,8.65,2.25,2.02,4.61,4.41,7.65,5.14,3.69.68,6.89-2.04,10.19-3.22,1.23.1,2.3,1.25,3.4,1.74,1.53.84,3.34,1.51,5.1,1.6"/><path class="b" d="M10.63,143.88c13.06-1.92,19.62,10.2,28.03,5.66,2.74,1.59,5.11,1.26,7.65-.5,2.79-1.86,5.31-4.39,8.49-5.6,9.08-3,15.89,6.83,24.63,7.15,4.56.18,9.03-1.42,13.59-1.4,4.58-.19,9.02,1.57,13.59,1.41,4.86-.06,10.81-6.51,14.44-9.55,5.49-4.88,9.14-5.02,16.14-4.85,4.22.18,8.67-.56,12.74.79,6.76,2.45,9.78,10.13,16.14,13.15,2.49,1.05,5.21.02,7.65-.7,2.32,1.32,5.18,1.49,7.65.47"/><path class="b" d="M10.63,141.13c15.3-4.2,21.2,9.1,31.43,5.39,7.08,3.37,10.34-7.17,21.24-2.74,4.99,1.93,9.79,4.65,15.29,2.9,7.58-2.34,13.15-5.22,21.24-2.3,3.07.96,6.05,2.84,9.34,2.86,8.46-.22,11.67-10.38,18.69-13.63,1.82-.88,3.97-.81,5.95-.78,2.52,0,5.13,0,7.65,0,2.52,0,5.13,0,7.65,0,2.31-.08,4.79,0,6.8,1.29,5.96,3.47,8.91,11.85,16.14,13.05,3.11.35,6.24-.46,9.34-.51"/><path class="b" d="M10.63,139.09c7.31-3.22,14.21-2.43,21.24,1.04,3.51,1.59,7.09,3.64,11.04,3.72.77,0,1.79-.09,2.55-.23,1.07.13,2.32.33,3.4.12,3.1-.63,6.1-2.22,9.34-2.01,5.4.26,10.74,3.49,16.14,1.41,3.53-1.17,6.76-3.21,10.19-4.61,7.95-3.42,14.27-1.61,21.24,2.92,12.51,7.9,14.7-5.06,22.94-10.81,2.23-1.56,5.08-1.18,7.65-1.21,4.23,0,8.51,0,12.74,0,2.51.1,5.17-.24,7.65.24,3.13.87,5.48,3.47,7.65,5.75,2.45,2.99,4.22,7.75,8.49,8.41.76.06,1.83-.11,2.55-.37,1.94.16,4,.38,5.95.36"/><path class="b" d="M10.63,137.57c8.97-4.74,16.1-5.45,25.48-1.36,4.11,1.75,8.28,3.61,12.74,4.22,3.08.12,6.28.12,9.34-.27,2.22-.72,4.55,0,6.8.23,8.1,1.17,14.08-5.64,21.24-8.09,6.46-2.48,13.23-1.02,18.69,3.03,2.95,1.86,5.67,4.99,9.34,5.16.75-.18,1.8-.2,2.55,0,.8.05,1.85-.23,2.55-.63,4.85-3.22,7.03-9.34,11.89-12.57,1.72-1.2,3.93-1.28,5.95-1.2,1.94,0,4,0,5.95,0,4.23,0,8.51,0,12.74,0,2.71-.24,4.29.75,5.95,2.88,1.81,2.3,3.38,5.05,5.1,7.42,2.84,4.04,5.69,5.39,10.19,2.61,1.37,0,2.87.46,4.25.52"/><path class="b" d="M10.63,135.8c5.48-2.68,10.75-6.36,16.99-6.99,3.09-.38,6.31-.12,9.34.56,1.45.4,3.33.51,4.25,1.86,8.69,9.59,10.68,4.07,21.24,5.64,10.15,1.92,15.86-6.53,24.63-9.47,17.7-5.89,23.78,13.02,30.58,9.07,2.62,1.56,5.08-.27,6.8-2.26,2.06-2.33,3.88-5.09,5.95-7.41,3.16-3.56,5.5-4.4,10.19-4.13,5.37,0,10.77,0,16.14,0,3.73-.15,5.73,3.94,7.65,6.55,4.28,6.4,6.65,10.76,14.44,5.39.77-.09,1.79.17,2.55.27"/><path class="b" d="M10.63,133.45c3.78-1.15,6.88-3.88,10.19-5.94,4.53-3.02,9.82-5.01,15.29-5.25,4.97,3.72,8.28,11.55,15.29,11.46,2.52-.17,5.1-.78,7.65-.61,2.81.11,5.67.8,8.49.56.43-.04,1.28-.17,1.7-.26.43.06,1.28.21,1.7.29,1.12.11,2.41-.26,3.4-.78,3.76-2.12,6.64-5.58,10.19-8,3.81-2.15,8.41-3.02,12.74-2.43,11.72,1.51,15.86,14.45,22.09,10.32,3.43,2.5,6.42-.87,8.49-3.43,3.28-3.9,6.37-9.28,11.89-9.99,5.93-.2,11.91-.02,17.84-.08,3.74.47,5.61,4.63,7.65,7.34,4.96,7.53,7.22,9.19,15.29,4.03l.85.09"/><path class="b" d="M10.63,130.34c4.1-.02,7.19-3.41,10.19-5.79,2.61-2.21,5.39-4.44,8.49-5.91,4.81-2.1,4.77-2.14,8.49,1.58,3.58,3.5,6.53,9.33,11.89,10.1,2.28.14,4.55-.76,6.8-.98,5.85-.68,11.34,2.69,16.99-.3,1.31.59,2.74,1.47,4.25,1.28,3.37-.58,5.88-3.35,8.49-5.32,3.42-2.82,7.42-5.27,11.89-5.83,5.39.25,9.78,4.13,13.59,7.6,2.41,2.09,5.59,5.43,8.49,2.11,2.92,2.19,5.13,1.76,7.65-.72,4.08-3.96,7.07-9.7,12.74-11.61,2.72-.86,5.69-.56,8.49-.61,3.09.04,6.26-.1,9.34.09,3.55.5,5.66,5.06,7.65,7.68,5,7.48,7.33,8.32,15.29,3.9"/><path class="b" d="M10.63,126.59c7.07,2.82,13.47-11.62,22.09-13.57,6.28,2.61,8.44,10.48,14.44,13.5,2.21.99,4.65.03,6.8-.69,1.6-.53,3.41-.88,5.1-.83,8.34.62,10.1,4.31,18.69-.44,3.95,3.81,7.1,2.5,11.04-.42,3.18-2.31,6.42-4.8,10.19-6.05,1.04-.34,2.31-.64,3.4-.79.47-.14,1.28-.02,1.7.23,3.91,1.8,6.9,5.09,10.19,7.77,3.01,2.35,3.91,2.06,6.8-.17,3.63,2.94,6.27,2.01,9.34-1.06,2.55-2.51,4.85-5.46,7.65-7.71,3.28-2.82,7.67-3.75,11.89-3.72,3.09-.04,6.29-.07,9.34.5.78.15,1.84.41,2.55.77.46.42,1.31,1.34,1.7,1.82,1.76,2.24,3.36,4.88,5.1,7.14,4.03,5.33,7.18,4.68,12.74,2.14"/><path class="b" d="M10.63,122.52c4.39,2.95,8.2-.99,11.04-4.12,2.84-3.04,5.51-6.65,9.34-8.5,5.17-2.3,10.82,12.3,16.14,13.52,2.72.69,5.21-1.28,7.65-2.18,6.55-2.78,11.6,1.92,17.84,2.35,3.1.05,5.96-1.59,8.49-3.22.58.01,1.34.59,1.7,1,.95.81,2.19,1.65,3.4,2.01,4.43,1.22,9.54-4.05,13.59-5.75,1.31-.64,2.83-1.23,4.25-1.59.42-.1,1.27-.27,1.7-.34.48.11,1.31.56,1.7.86,2.39,1.61,4.53,3.74,6.8,5.5,2.72,2.25,4.69,1.89,6.8-.88,1.95,1.35,4.32,2.94,6.8,2.23,4.15-1.49,6.86-5.42,10.19-8.11,3.28-2.95,7.46-4.94,11.89-5.24,4.28-.36,8.76-.02,12.74,1.69.43.19,1.29.59,1.7.81.46.53,1.31,1.67,1.7,2.26,1.03,1.52,2.26,3.34,3.4,4.78,3.54,4.58,6.74,4.72,11.89,2.74"/><path class="b" d="M10.63,118.42c5.07,3.82,8.38.74,11.89-3.23,2.53-2.64,6.44-8.64,10.19-8.97,6.06,2.23,10.26,16.83,16.99,13.46,4.79-2.62,7.71-5.34,13.59-3.57,10.54,3.79,11.37,6.94,22.09-.05,6.42,6.82,9.93,3.87,16.99.31,1.32-.63,2.84-1.25,4.25-1.66.87-.38,1.88-.16,2.55.5,2.47,1.67,4.64,4.32,7.65,4.99,1.8.13,2.95-1.63,4.25-2.56,2.05,1.22,4.33,2.62,6.8,2.56,5-.54,8.69-5.37,12.74-7.98,7.74-5.84,18.49-5.58,26.33-.07,1.65,1.37,2.69,3.67,4.25,5.17,2.93,3.24,6.23,3.37,10.19,2.14"/><path class="b" d="M10.63,114.48c1.96,1.3,4.34,2.79,6.8,2.22,6.49-2.24,9.27-10.53,15.29-13.68,4.21,1.59,7.05,8.15,10.19,11.39,2.92,3.33,5.25,2.88,8.49.32,4.22-3.47,8.24-5.14,13.59-3.03,6.01,2.29,11.1,7.35,17.84,3.99,1.4-.61,2.91-1.43,4.25-2.16.73-.38,1.69-1.05,2.55-1.02,7.55,7.58,11.19,3.31,19.54.77,1.24.27,2.33,1.39,3.4,2.02,3.32,2.28,5.07,1.95,7.65-1.08,2.95,1.22,6.04,2.95,9.34,2.55,3.5-.51,6.46-2.78,9.34-4.65,3.37-2.27,7.02-4.42,11.04-5.25,5.53-1.24,11.37.16,16.14,3.1,2.37,1.45,4.86,2.96,6.8,4.98,1.4,1.16,3.27,1.94,5.1,1.9,1.07,0,2.33-.31,3.4-.17"/><path class="b" d="M10.63,110.78c2.32,1.29,4.88,2.91,7.65,2.64,6.44-1.29,9.98-9.53,15.29-13.06,3.94,1.06,7.51,10.92,11.89,12.84,3.43,1.24,6.6-3.43,9.34-5,3.2-2.3,7.47-2.46,11.04-.97,5.82,2.14,11.2,7.86,17.84,5.78,3.51-.97,6.68-3.07,10.19-4,2.94,2.76,6.85,5.21,11.04,4.27,1.98-.3,3.96-1.17,5.95-1.42,2.75,1.63,5.24,2.55,7.65-.17,1.06-.49,2.33.17,3.4.38,3.83,1.16,8.02,2.11,11.89.58,3.84-1.35,7.31-3.66,11.04-5.26,9.03-4.07,16.59-2.26,24.63,2.93,4.2,2.73,6.9,3.38,11.89,3.14"/><path class="b" d="M10.63,107.34c2.73,1.09,5.51,2.57,8.49,2.74,6.9-.1,11.13-8.13,16.14-11.98,3.78,2.3,7.61,13.66,12.74,11.71,3.18-1.56,5.34-4.75,8.49-6.37,3.4-1.91,7.58-1.52,11.04.02,6.35,2.71,12.13,8.55,19.54,6,3.92-1.13,7.77-2.92,11.89-3.12,2.94,2.18,6.39,4.15,10.19,3.7.77-.06,1.79-.2,2.55-.33.43.13,1.25.32,1.7.36,1.18.12,2.41-.47,3.4-1.05.76-.04,1.79-.03,2.55.01,11.76,1.32,12.34,2.1,23.78-2.62,5.33-2.17,11.29-3.54,16.99-2.08,4.83,1.02,8.9,4.17,13.59,5.53,1.05.22,2.33.25,3.4.19,1.37.05,2.9.02,4.25-.25"/><path class="b" d="M10.63,104.11c6.87,1.47,12.23,4.92,18.69-.05,1.78-1.29,3.51-2.92,5.1-4.43,1.04-.84,2.03-2.37,3.4-2.66,1.71,2.23,3.31,4.81,5.1,6.97,1.86,2.27,4.11,3.8,6.8,1.75,3.92-3.05,7.29-7.25,12.74-7.12,6.99.04,12.31,5.41,18.69,7.46,4.79,1.67,9.71-.32,14.44-1.2,3.95-.8,8.08-.37,11.89.87,3.01,1.14,6.19,1.11,9.34.79,5.37-.49,10.78.55,16.14.04,5.53-.52,10.74-2.77,16.14-3.91,3.89-.84,8.01-.98,11.89-.03,4.1.86,7.79,3.21,11.89,4.02,1.06.15,2.35.04,3.4-.12,1.65.33,3.47.19,5.1-.17"/><path class="b" d="M10.63,101.02c14.57.55,16.44,6.99,29.73-4.55,1.98,2.06,3.38,4.98,5.95,6.44,4.71,2.42,8.55-7.48,16.99-7.24,6.23.02,11.4,4.06,16.99,6.25,2.93,1.2,6.2,1.66,9.34,1.27,4.49-.55,9.05-1.55,13.59-.88,2.24.26,4.54.9,6.8,1.01,1.1.08,2.32-.34,3.4-.45.42.1,1.27.26,1.7.31,2.8.28,5.69.05,8.49.09,3.66.01,7.39.17,11.04-.19,5.17-.47,10.19-2.07,15.29-2.94,3.91-.68,8.01-.73,11.89.17,3.45.71,6.71,2.39,10.19,2.95,1.06.13,2.35-.03,3.4-.26,1.92.61,4.06.19,5.95-.34"/><path class="b" d="M10.63,97.96c5.65-1.17,11.46-.47,16.99.99,6.31,1.7,10.49,1.24,16.14-2.11l.85.14c2.19,2.61,4.53,4.03,7.65,1.85,2.45-1.63,4.81-3.66,7.65-4.61,3.58-1.28,7.54-.72,11.04.53,5.56,1.99,10.92,5.22,16.99,5.19,3.1.04,6.25-.48,9.34-.62,2.52-.14,5.14.03,7.65.33,2.84.38,6.01.63,8.49-1.07,4,1.75,8.49,1.29,12.74,1.36,3.66,0,7.4.01,11.04-.41,3.99-.44,7.95-1.39,11.89-2.09,4.18-.76,8.55-1.04,12.74-.2,3.16.57,6.2,1.9,9.34,2.55,1.41.37,2.9-.18,4.25.05,2.01.35,4.08-.48,5.95-1.14"/><path class="b" d="M10.63,94.83c8.29-3.01,14.53-3.42,22.94-.56,3.57,1.11,7.25,2.42,11.04,2.29,1.38-.04,2.9-.27,4.25-.56.75.24,1.75.59,2.55.56,1.82-.16,3.51-1.25,5.1-2.07,1.36-.6,2.95-1.08,4.25-1.8,1.61-.48,3.42-.71,5.1-.65,5,.16,9.65,2.34,14.44,3.55,4.7,1.33,9.64,1,14.44.59,2.8-.2,5.7-.17,8.49.09,3.43.36,7.29.74,10.19-1.52,1.4.3,2.8,1.17,4.25,1.36,3.06.56,6.25.41,9.34.44,3.66,0,7.4,0,11.04-.44,3.99-.45,7.95-1.44,11.89-2.19,4.46-.87,9.15-1.19,13.59-.08,4.46,1.02,8.91,3.75,13.59,2.35,1.29-.54,2.87-.7,4.25-.83"/><path class="b" d="M10.63,91.52c5.12-2.4,10.34-5.23,16.14-5.36,6.58-.33,12.65,2.66,18.69,4.84,2.74.93,5.67,1.6,8.49,2.19,2.23-.26,4.56.17,6.8-.11,1.1-.15,2.38-.52,3.4-.96.76-.33,1.7-.99,2.55-1.05,6.27.17,12.38,2.42,18.69,2.11,4.8-.16,9.63-1.01,14.44-.69,4.51.15,9.62,1.96,13.59-1.02,1.62.63,3.33,1.41,5.1,1.54,3.65.35,7.38.11,11.04.18,3.97.04,8.01-.16,11.89-1,4.55-.94,8.99-2.57,13.59-3.24,5.52-.87,11.44.36,16.14,3.36.92.7,2.26,1.01,3.4.82,2.23.19,4.56-.23,6.8-.3"/><path class="b" d="M10.63,88.28c6.3-3.57,11.95-8.08,19.54-8.41,6.19-.46,12.16,1.68,17.84,3.87.57.17,1.36.94,1.7,1.41.97,1.07,2.2,2.26,3.4,3.07,2.71,1.94,6.2,1.65,9.34,1.4,1.38-.24,2.87.22,4.25.17,1.07-.17,2.3-.41,3.4-.26,3.94.19,7.95.45,11.89.05,4.52-.41,9.04-1.41,13.59-1.5,2.83-.07,5.73.29,8.49.88,3.12.71,6.3,1.38,9.34-.04,3.74,1.63,7.96.49,11.89.63,5.08.02,10.29.74,15.29-.49,8.57-2.02,17.43-7.95,26.33-4.02,1.64,2.66,4.16,6.16,7.65,4.15,2.22.35,4.54.67,6.8.6"/><path class="b" d="M10.63,85.73c3.46-1.68,6.25-4.54,9.34-6.77,5.85-4.64,13.06-6.09,20.39-5.5,1.11.13,2.52-.02,3.4.81,1.83,1.5,3.51,3.43,5.1,5.18,6.47,7.6,10.28,7,19.54,6.98,4.84.1,9.71-.45,14.44-1.46,5.83-1.25,11.88-2.68,17.84-1.45,4.3.66,8.3,3.33,12.74,2.86,2.26.27,4.58-.46,6.8-.81,2.21-.38,4.56-.52,6.8-.36,6.09.52,11.79,2.32,17.84.18,6.13-1.92,12.05-5.63,18.69-5,.82.06,1.92.22,2.55.81.89,1.45,2.09,3.18,3.4,4.29.87.75,2.27,1.16,3.4.8.77-.23,1.73-.85,2.55-.92,1.88.6,3.99.74,5.95.76"/><path class="b" d="M10.63,83.03c4.72-.86,9.28-8.18,13.59-10.99,2.68-2.01,6-3.16,9.34-3.32,1.95-.1,4.06-.21,5.95.39,3.78,1.25,6.56,4.42,9.34,7.11,4.43,4.55,7.98,6.56,14.44,6.54,3.38.08,6.85-.09,10.19-.62.85-.21,1.76.47,2.55.68,2.63.75,5.3-.53,7.65-1.6,6-3.03,11.45-4.11,17.84-1.43,2.52.97,5.01,2.32,7.65,2.99,1.34.4,2.88.18,4.25.2,1.5.29,3.12-.33,4.25-1.32.76-1.01,2.24-1.3,3.4-1.61,2.47-.61,5.14-.67,7.65-.26,5.15.76,10.01,3.38,15.29,3.25,7.6-.35,14.29-6.07,22.09-4.76,2.85,3.69,4.47,6.21,9.34,3.69,1.9.51,3.99.61,5.95.56"/><path class="b" d="M10.63,79.27c4.38,2.31,9.1-6.61,11.89-9.26,1.82-2,4.06-4.04,6.8-4.59,3.75-.39,7.75.32,11.04,2.19,4.34,2.48,7.67,6.45,11.89,9.11,6.12,4.06,17.13,2.6,23.78.35,1.2.32,2.24,1.46,3.4,1.91,3.58,1.67,7.45-.16,11.04-.85,2.48-.53,5.13-.65,7.65-.28,4.75.66,9.83,3.27,14.44.67,1.42.18,2.76,1.27,4.25,1.16,3.22-.46,5.02-3.84,6.8-6.22,3.6-1.11,7.61.09,11.04,1.32,5.47,2.06,10.89,5.73,16.99,4.75,5.35-.75,10.65-3.82,16.14-2.63,2.19,2.56,4.44,3.5,7.65,2.11,1.93.31,4,.33,5.95.19"/><path class="b" d="M10.63,74.36c3.55,4.1,6.16.65,8.49-2.54,2.12-2.87,3.96-6.28,6.8-8.51,15.75-.67,19.65,12.44,33.13,12.64,6.53.34,12.9-1.26,18.69-4.23,6.62,5.97,8.85,4.51,16.99,4.09,6.69-.16,11.93,2.17,17.84-2.49,2.08.63,3.66,2.77,5.95,2.96,4.47-.12,7.26-7.15,10.19-10,7.29.2,13.28,4.81,19.54,7.98,2.87,1.43,6.13,2.28,9.34,1.97,3.66-.33,7.34-1.35,11.04-1.09.42.03,1.28.11,1.7.17.7.4,1.74.82,2.55.93.76.09,1.8-.03,2.55-.14,1.94.1,4.01.08,5.95-.1"/><path class="b" d="M10.63,68.94c1.22,1.6,2.73,4.34,5.1,3.88,3.27-1.72,4.73-5.72,6.8-8.61.7-.48,1.74-.53,2.55-.54,1.66-.05,3.46.1,5.1.42,8.38,1.56,15.13,8.08,23.78,8.63,10.82.69,15.43-.45,24.63-6.07,5.59,5.56,8.27,6.52,16.14,6.28,7.34.09,12.03.39,17.84-4.91,2.51,1,4.22,3.65,6.8,4.63,3.84,1.29,6.36-3.23,8.49-5.68,1.76-2.26,3.63-4.73,5.95-6.46,9.16.4,15.57,8.53,23.78,11.47,3.53,1.25,7.37.94,11.04.88,4.23.02,8.52.19,12.74.01"/><path class="b" d="M10.63,67.51c.42-.14,1.28-.42,1.7-.56.88.53,1.69,1.69,2.55,2.25,2.85,1.38,4.23-2.7,5.95-4.19,8.21-1.04,15.86,2.76,23.78,4.11,3.63.6,7.38.4,11.04.34,2.8-.03,5.7.26,8.49-.09,5.49-.66,9.95-4.3,14.44-7.2,1.31.62,2.28,2.15,3.4,3.04,2.33,2.15,5.33,3.65,8.49,3.99,4.21.39,8.6.49,12.74-.43,3.61-.88,6.68-3.26,9.34-5.76,5.23,2.43,8.28,10.49,14.44,4.05,3.81-3.69,8.56-11.42,14.44-11.15,6.61,1.34,11.5,6.35,16.99,9.88,4.22,2.85,9.42,3.78,14.44,3.41,1.38-.2,2.87.36,4.25.35,1.36-.07,2.88-.13,4.25,0"/><path class="b" d="M10.63,65.52c1.36-.08,2.91-.56,4.25-.17.42.33,1.16.78,1.7.82.9-.07,1.77-.89,2.55-1.27,2.24-.03,4.57.09,6.8.28,4.51.39,9.06,1.06,13.59.99,4.81-.04,9.63-.91,14.44-.84,4.52,0,9.23,1.87,13.59-.07,2.45-1,4.7-2.65,6.8-4.23.75-.57,1.79-1.36,2.55-1.93.32-.35,1.21-.8,1.7-.79,5.01,5.91,9.22,7.91,16.99,7.68,7.48.15,11.81-2.23,16.99-7.42,3.82,1.73,6.22,5.87,10.19,7.37,3.93,1.08,6.8-3.01,9.34-5.35,2.04-2.08,4.25-4.22,6.8-5.67,3.06-1.77,6.7-2.37,10.19-2.29,2.53.39,4.74,2.21,6.8,3.64,3.27,2.47,6.41,5.35,10.19,7.03,2.1.93,4.49,1.45,6.8,1.39,2.66,1.08,5.61,1.68,8.49,1.43"/><path class="b" d="M10.63,62.74c5.65-.08,11.35.22,16.99-.13,5.13-.28,10.21-1.3,15.29-2,3.64-.49,7.41-.66,11.04-.05,2.59.37,5.1,1.43,7.65,1.98,6.22,1.42,10.82-4.18,15.29-7.55,1.41.4,2.28,2.14,3.4,3.02,2.29,2.26,5.27,3.98,8.49,4.39,4.2.45,8.58.53,12.74-.28,4.45-.97,7.91-4.25,11.04-7.35,4.32,2.02,7.2,6.64,11.89,7.92,7.98.85,12.2-13.98,28.03-11.9,3.63.44,7.1,1.95,10.19,3.85,2.19,1.49,4.38,3.19,6.8,4.33,3.58,2.16,7.73,3.43,11.89,3.72"/><path class="b" d="M10.63,59.32c1.66-.04,3.44-.11,5.1-.23.44.2,1.22.35,1.7.28,1.01-.51,2.29-.74,3.4-.86,1.67-.26,3.45-.61,5.1-.98,4.23-.94,8.46-2.18,12.74-2.87,4.2-.69,8.6-.74,12.74.33,2.96.7,5.75,2.11,8.49,3.38,6.36,3.3,10.84-2.22,15.29-6,1.41.41,2.27,2.15,3.4,3.03,4.01,4,8.26,4.19,13.59,3.99,10.55.25,12.79.01,20.39-7.69,2.05,1.14,4.09,2.53,5.95,3.96,2.47,1.79,5.25,4.07,8.49,3.71,4.26-.8,7.45-4.23,11.04-6.41,7-4.83,15.3-5.2,22.94-1.62,3.45,1.52,6.73,3.56,10.19,5.04,3.22,1.38,6.73,2.17,10.19,2.6"/><path class="b" d="M10.63,55.56c1.07-.12,2.34-.31,3.4-.51,3.15,1.96,4.57.5,6.8-1.83,1.66-.56,3.45-1.21,5.1-1.8,8.5-3.27,17.8-5.11,26.33-.91,3.53,1.47,6.5,4.27,10.19,5.35,2.89.72,5.57-1.23,7.64-3.01,1.08-.79,2.06-2.27,3.4-2.61,7.19,8.52,10.26,4.99,19.54,5.07,4.23.12,8.79,1.73,12.74-.47,2.64-1.26,4.47-3.79,6.8-5.45,2.31,1.17,4.61,2.56,6.8,3.95,2.29,1.39,4.88,2.81,7.65,2.67,4.09-.37,7.51-3.09,11.04-4.93,8.5-4.94,16.62-4.66,25.48-.86,3.06,1.23,6.16,2.63,9.34,3.53,2.75.77,5.66,1.19,8.49,1.47"/><path class="b" d="M10.63,51.77c.43-.09,1.28-.3,1.7-.41,2,1.29,3.85,1.84,5.95.38,1.93-1.29,3.47-3.29,5.1-4.9,3.77-1.74,7.75-3.3,11.89-3.87,9.3-1.38,15.77,2.39,22.94,7.73,4.91,3.6,7.96,1.59,11.89-2.12l.85.08c5.94,6.48,9.08,3.4,16.14,1.66,2.49-.55,5.17-.5,7.65.11,8.02,2.3,10.39,4.32,16.99-2.53l.85-.21c4.43,1.8,8.67,4.84,13.59,4.96,4.25-.09,8.06-2.37,11.89-3.94,8.77-4.01,16.53-3.56,25.48-.48,3.34,1.07,6.74,2.21,10.19,2.82,2.49.47,5.13.49,7.65.77"/><path class="b" d="M10.63,48.52c3.35,1.83,6.74-.1,9.34-2.3,2.28-1.76,4.32-4.09,6.8-5.57,5.6-2.3,12.05-2.95,17.84-.95,5.49,1.73,9.55,6.09,14.44,8.87,1.87,1.04,4.21.81,5.95-.39.76-.47,1.66-1.35,2.55-1.59,6.37,6.21,10.61-.29,16.99-2.39,3.27-1.22,6.98-1.09,10.19.26,6.61,2.63,10.42,8.28,16.99,1.62,2.83.75,5.63,1.98,8.49,2.64,6.73,1.89,13.18-1.63,19.54-3.33,4.39-1.23,9.06-1.65,13.59-1.07,5.47.64,10.74,2.48,16.14,3.49,2.21.42,4.55.71,6.8.79,1.65.15,3.49-.18,5.1.23"/><path class="b" d="M10.63,45.82c3.78-.55,7.03-2.9,10.19-4.88,4.12-2.64,8.54-5.37,13.59-5.41,5.5-.37,10.88,1.67,15.29,4.85,2.5,1.68,4.88,3.79,7.65,5.02,1.31.57,2.93.63,4.25.05.77-.31,1.66-1.11,2.55-1.03,3.82,2.76,6.9,1.06,10.19-1.5,10.24-8.54,16.94-8.8,27.18-.08,1.95,1.45,4.21,3.33,6.8,2.99,1.17-.17,2.32-1,3.4-1.44,10.81,3.28,16.14.37,26.33-1.73,4.46-.86,9.1-.97,13.59-.33,5.41.74,10.71,2.33,16.14,2.99,2.79.35,5.68.49,8.49.48,1.65.07,3.46-.21,5.1.05"/><path class="b" d="M10.63,41.48c8.93-2.69,16.4-8.91,26.33-7.24,3.98.6,7.67,2.49,11.04,4.61,3.68,2.24,7.61,5.27,11.89,2.53,10.71,5.95,14.27-14.63,31.43-10.52,3.61.92,6.68,3.3,9.34,5.81,2.34,2.07,4.56,4.8,7.65,5.73.77.18,1.81.1,2.55-.17,1.66.06,3.43.35,5.1.29,4.89,0,9.69-1.28,14.44-2.26,4.17-.87,8.48-1.39,12.74-1.15,6.61.3,12.98,2.48,19.54,3.18,3.93.45,7.95.11,11.89,0,1.37-.07,2.89.11,4.25.23.75-.02,1.8-.1,2.55-.04"/><path class="b" d="M10.63,38.59c7.94-1.42,15.51-5.75,23.79-4.63,3.54.39,6.95,1.7,10.19,3.1,3.49,1.55,7.42,3.11,11.04,1.04,2.44.72,5.17,1.57,7.65.54,2.98-1.22,5.31-3.71,7.65-5.85,4.58-4.51,9.54-7.39,16.14-7.08,10.09-.19,14.39,14.41,24.63,13.38,9.69-.74,19.04-5.01,28.88-3.65,9.25,1.06,16.72,5.18,26.33,3.13,1.37-.16,2.98-.83,4.25,0,2.74,1.04,5.87.52,8.49-.63.42.07,1.28.22,1.7.3"/><path class="b" d="M10.63,35.76c7.41,0,14.66-2.42,22.09-1.98,2.84.13,5.71.66,8.49,1.23,3.33.7,6.96,1.27,10.19-.13.8-.12,1.78.22,2.55.36,1.64.27,3.43.59,5.1.49,6.72-.66,11.05-8.4,16.99-11.36,2.83-1.56,6.14-2.2,9.34-2.22,4.42-.06,8,3.42,11.04,6.25,3.36,3.09,6.82,7.77,11.89,7.31,1.08-.07,2.36.17,3.4-.28.44-.17,1.3-.6,1.7-.85,1.02-.42,2.34-.64,3.4-.94,2.52-.66,5.11-1.42,7.64-2,5.55-1.34,11.42-1.57,16.99-.24,6.5,1.36,12.73,4.96,19.54,4.26,1.07-.11,2.35-.35,3.4-.59.74-.18,1.77-.53,2.55-.4,2.82,2.04,6.49.69,9.34-.59.72-.34,1.73-.95,2.55-1.03.75.14,1.81.39,2.55.6"/><path class="b" d="M10.63,31.55c7.03.99,14.16.84,21.24.77,5.65-.06,11.6.67,16.99-1.43,1.12.08,2.3.73,3.4.95,3.05.66,6.44.93,9.34-.42,5.86-2.89,9.84-8.83,16.14-10.99,1.6-.58,3.4-.94,5.1-1.08,1.07-.04,2.39-.24,3.4.23,6.52,2.41,10.09,9.15,16.14,12.25.72.31,1.76.56,2.55.57.76,0,1.78-.28,2.55-.18,2.13.63,4.27-.6,5.95-1.81.43-.31,1.3-.97,1.7-1.33,1.33-.52,2.89-.93,4.25-1.37,3.03-.92,6.19-1.75,9.34-2.12,7.37-1.04,14.6,1.35,21.24,4.33,4.64,2.06,9.44,3.35,14.44,1.66,1.74.72,3.27,1.14,5.1.35,2.3-.98,4.59-2.25,6.8-3.41,1.68.02,3.48.34,5.1.79"/><path class="b" d="M10.63,25.42c7.89,1.06,15.78,2.71,23.79,2.58,2.82-.01,5.71-.17,8.49-.63,1.08-.18,2.34-.46,3.4-.75.87-.43,1.82-.11,2.55.43,3.8,2.08,8.7,2.7,12.74.97,6.22-2.98,10.83-9.07,17.84-10.47,1.62-.32,3.45-.63,5.1-.32,1.78.79,3.56,1.93,5.1,3.12,2.61,2.02,5.01,4.48,7.65,6.46,2.17,1.71,4.91,2.73,7.65,1.88,3.98,1.36,7.31-2.38,10.19-4.57.98-.6,2.32-.91,3.4-1.29,8.78-3.08,17.65-3.96,26.33-.01,3.73,1.57,7.25,3.79,11.04,5.22,2.4.94,5.11,1.19,7.65.72,1.04.38,2.39.25,3.4-.19,1.46-.6,2.85-1.74,4.25-2.44,3.22-1.24,6.82-1.53,10.19-.75"/><path class="b" d="M10.63,18.12c8.31.27,16.37,2.81,24.63,3.54,2.51.23,5.13.32,7.65.16,1.07-.07,2.34-.21,3.4-.38.53.07,1.33.59,1.7.96,1.73,1.33,3.8,2.42,5.95,2.85,3.88.9,7.71.14,11.04-2.01,4.59-2.81,8.98-6.47,14.44-7.36,1.06-.18,2.33-.27,3.4-.24.78.36,1.81.91,2.55,1.35,4.72,2.54,9.83,8.76,15.29,8.62.42-.04,1.28-.17,1.7-.26.41.12,1.27.27,1.7.27,1.49-.01,3.02-.74,4.25-1.55,1.44-.96,2.91-2.22,4.25-3.32.71-.55,1.62-1.46,2.55-1.61,5.51-1.84,11.12-3.87,16.99-4.07,17.27-.93,23.53,13.62,34.83,9.9,2.55-.77,5.06-1.96,7.65-2.63,2.18-.56,4.56-.73,6.8-.5"/></svg>