<?xml version="1.0" encoding="UTF-8"?><svg id="a" xmlns="http://www.w3.org/2000/svg" width="1920" height="2400" viewBox="0 0 192 240"><defs><style>.b{fill:none;stroke:#fff;stroke-miterlimit:10;stroke-width:.3px;}.c{stroke-width:0px;}</style></defs><rect class="c" width="192" height="240"/><path class="b" d="M9.3,214.24c6.74,2.37,10.47,9.26,16.39,12.91,5.31,3.62,10.48-.92,14.67-4.11,3.69-2.83,7.58-5.74,12.08-7.11,3.07,1,6.1,2.35,8.63,4.4,4.96,3.61,10.47,10.75,17.25,7.2,6.03-3.08,11.33-7.85,18.12-9.29.44-.1,1.29-.29,1.73-.36,1.42.36,2.92,1,4.31,1.45,4.14,1.46,8.53,2.49,12.94,2.23,3.82.08,7.59,1.16,11.22,2.28,3.68,1.15,7.42,2.34,11.22,3.06,4.24.83,8.62,1.12,12.94,1.15,8.65.19,17.39-1.31,25.02-5.54.83-.07,1.83.39,2.59.68,1.39.54,2.93,1.18,4.31,1.74"/><path class="b" d="M9.3,210.46c7.06-.3,11.54,7.12,16.39,11.22,2.29,2.07,5.42,4.25,8.63,3.09,5.03-2.01,8.52-6.59,12.94-9.57,1.83-1.17,5.58-3.89,7.76-3.13,4.44,1.09,7.96,4.31,11.22,7.36,2.31,2.09,4.7,4.53,7.76,5.46,5.1,1.31,10.42-4.68,14.67-7.02,3.62-2.3,7.79-3.87,12.08-4.23,2.06.32,4.03,1.49,6.04,2.06,1.92.65,4.02,1.19,6.04,1.39,1.98.11,4.08.14,6.04.48,7.27,1.2,14.26,3.89,21.57,4.92,13.13,2.07,26.83.01,38.82-5.71,1.15.17,2.38.82,3.45,1.24"/><path class="b" d="M9.3,207.03c1.38.02,2.94-.08,4.31.1,3.83.68,6.81,3.59,9.49,6.21,3.41,3.1,7.74,9.4,12.94,8.11,3.05-.98,5.44-3.45,7.76-5.54,3.31-3.09,6.82-6.34,11.22-7.76,9.48,1.36,14.28,13.67,21.57,13.5,2.24-.25,4.25-1.63,6.04-2.9,2.52-1.85,5.04-3.91,7.76-5.47,4.13-2.43,9.03-3.59,13.8-3.2,2.5,1.05,5.1,2.16,7.76,2.72,1.37.37,3.01.14,4.31.71,2.75,1.11,5.7,1.97,8.63,2.45,2.82.54,5.78.43,8.63.58,3.69.71,7.47,1.26,11.22,1.51,12.85.98,25.61-1.82,37.96-5.08"/><path class="b" d="M9.3,203.6c3.2-.02,6.62-.25,9.49,1.46,3.64,1.98,6.54,5.15,9.49,7.99,2.89,2.78,6.94,6.8,11.22,4.46,6.02-3.29,9.7-10.29,16.39-12.45,6.98,1.41,10.86,8.06,16.39,11.87,8.37,5.74,13.95-10.03,28.47-10.08,3.86-.1,7.76.88,11.22,2.58,2.28,1.14,4.53,2.57,6.9,3.53,4.33,1.84,9.11,2.64,13.8,2.51,3.79-.09,7.61-.79,11.22-1.96,2.84-.16,5.78.13,8.63-.02,10.08-.2,20.1-1.9,30.2-1.94"/><path class="b" d="M9.3,200.17c3.49-.07,7.14-.08,10.35,1.48,3.95,1.79,7.19,4.89,10.35,7.79,3.19,2.88,7.56,7.21,12.08,4.45,5.16-3.01,8.43-8.67,13.8-11.34,8.39,1.43,13.86,13.36,20.71,12.15,2.94-.69,5.36-2.82,7.76-4.54,2.65-1.98,5.5-3.91,8.63-5.02,5.96-2.21,12.74-1.12,18.12,2.11,2.02,1.14,3.99,2.64,6.04,3.73,2.65,1.43,5.64,2.37,8.63,2.79,5.72.72,11.67.61,17.25-.9,1.73-.49,3.55-1.19,5.18-1.96,1.09-.46,2.27-1.34,3.45-1.53,10.34,0,20.88-1.04,31.06,1.27"/><path class="b" d="M9.3,196.76c4.4.09,8.93.71,12.94,2.62,3.48,1.62,6.57,4.09,9.49,6.54,3.18,2.45,6.81,6.42,11.22,5.18,4.93-1.93,8.02-6.74,12.08-9.94,5.25-.24,10.39,6.02,14.67,8.62,8.42,5.79,13.79-6.51,25.02-8.25,6.19-1.18,12.3,1.43,17.25,4.99,4.3,3.24,8.33,5.02,13.8,4.86,3.43-.04,6.92-.18,10.35-.06,4.66.2,9.55.1,13.8-2.07,1.77-.85,3.56-1.99,5.18-3.1,1.04-.39,2.37-.17,3.45-.18,1.38.04,2.93.1,4.31.17,6.73.32,13.46,1.31,19.84,3.54"/><path class="b" d="M9.3,194.53c11.7.29,17.63,2.64,26.74,9.86,8.49,6.75,11.61,2.73,18.12-3.72,3.98-.63,7.96,2.63,11.22,4.56,2.3,1.44,4.95,2.98,7.76,2.68,4.89-.81,8.59-4.64,12.94-6.75,5.25-2.9,11.75-3.45,17.25-.93,2.74,1.17,5.29,2.92,7.76,4.56,1.84,1.21,3.85,2.52,6.04,2.96,2.57.53,5.26-.15,7.76-.73,3.92-.98,8.05-1.53,12.08-.9,10.12,1.79,12.39,3.92,21.57-2.77,5.22.33,10.43,1.16,15.53,2.3,2.87.62,5.71,1.75,8.63,2.16"/><path class="b" d="M9.3,194.41c8.89-1.41,17.32-.98,25.02,4.13,3.38,1.99,6.47,4.9,10.35,5.85,3.66.73,5.9-2.08,8.63-3.82,2.65-.23,5.33.38,7.76,1.41,3.26,1.29,6.74,3.11,10.35,2.34,3.45-.75,6.46-2.89,9.49-4.59,4.38-2.6,9.49-4.54,14.67-3.82,4.79.57,8.98,3.27,12.94,5.84,4.39,2.88,7.2,3.73,12.08,1.23,1.08-.47,2.28-1.26,3.45-1.48,1.97.08,4.07.09,6.04.05,4.3-.08,8.65-.36,12.94-.54,6.14,2.44,9.91,5.65,16.39,1.36.33-.3,1.29-.75,1.73-.87.4.05,1.32.17,1.73.23,1.08.15,2.38.36,3.45.55,2.85.5,5.77,1.12,8.63,1.63,2.52.51,5.25.94,7.76.18"/><path class="b" d="M9.3,195.64c8.76-3.19,17.17-5.2,25.88-.6,3.53,1.7,6.65,4.34,10.35,5.68,2.17.8,4.05.11,6.04-.76,1.09.07,2.37.03,3.45-.02,3.76-.07,7.45,1.3,11.22,1.13,4.4-.23,8.27-2.71,12.08-4.69,3.72-1.99,7.81-3.65,12.08-3.7,10.99-.43,17.5,10.39,24.16,8.04,1.41-.44,2.74-1.78,4.31-1.32,2.84.29,5.78.36,8.63.33,6.9-.06,13.81-.71,20.71-.79,1.07-.01,2.37,0,3.45.01.85.12,1.82.78,2.59,1.13,1.29.61,2.87,1.05,4.31.99,1.12-.06,2.42-.42,3.45-.84,0,0,.86-.38.86-.38l.86.06c6.28.7,13.38,2.77,18.98-1.22"/><path class="b" d="M9.3,196.2c4.65-1.48,9.03-3.92,13.8-5.02,1.42-.5,2.95.09,4.31.5,2.01.63,4.09,1.45,6.04,2.24,4.65,1.98,9.57,3.55,14.67,3.69,4.87,0,9.81.23,14.67-.17,3.64-.39,7.1-1.88,10.35-3.5,7.5-3.94,15.08-6.65,23.29-2.9,3.02,1.3,5.79,3.26,8.63,4.89,2.83,1.68,5.55,2.35,8.63.78,12.58,1.68,25.33-.05,37.96.2,3.72.12,7.54.1,11.22.7,2.26,0,4.63.04,6.9.02,2.62-.06,5.3-.53,7.76-1.41,1.68.05,3.5.09,5.18.13"/><path class="b" d="M9.3,194.21c4.24.14,8.2-1.76,12.08-3.21,1.9-.91,4.1.07,6.04.41,4.27,1.04,8.53,2.52,12.94,2.76,2.28.19,4.63-.2,6.9-.19.77.19,1.8.28,2.59.18.8-.11,1.78-.56,2.59-.62,3.45.14,6.99.11,10.35-.74,9.79-2.53,17.68-9.39,28.47-6.29,5.05,1.31,9.13,4.83,13.8,6.99,1.03.43,2.33.76,3.45.71.79-.05,1.81-.4,2.59-.51,2.22.55,4.63.5,6.9.52,3.14,0,6.35-.05,9.49-.04,7.47.05,14.96.03,22.43.02,5.74-.03,11.54.23,17.25-.45,5.13.64,10.36.37,15.53.4"/><path class="b" d="M9.3,190.39c1.09-.08,2.38-.48,3.45-.12,1.64.47,3.48.64,5.18.42,1.42-.13,2.9-.72,4.31-.83,3.43.26,6.91.83,10.35.92,3.48.11,6.98-.51,10.35-1.33,1.44-.09,2.9.84,4.31,1.07,2.02.53,4.27.24,6.04-.87.8-.44,1.63-1.4,2.59-1.47,6.62.13,12.7-2.95,18.98-4.57,7.22-2.04,14.3-.98,20.71,2.88,3.89,2.06,8.39,5.9,12.94,3.51.81-.11,1.81.34,2.59.49.76.15,1.82.25,2.59.28,5.16.09,10.37-.28,15.53-.27,9.48-.11,19.02.25,28.47-.64,3.78-.38,7.6-1.08,11.22-2.26,0,0,.86-.13.86-.13l.86.26c.74.21,1.82.39,2.59.46,3.14.08,6.35-.01,9.49.09"/><path class="b" d="M9.3,187.3c8.34.02,16.9.66,25.02-1.66,2.48-.82,5.26-.24,7.76.2,9.16,2.26,10.2,2.69,17.25-3.98,5.22-.36,10.31-1.95,15.53-2.37,5.64-.58,11.39.65,16.39,3.3,2.84,1.4,5.58,3.27,8.63,4.22,3.15.99,5.1-.31,7.76-1.69,3.58,2.27,8.01,2.06,12.08,2.01,4.01-.1,8.07-.3,12.08-.49,7.78-.39,15.64-.76,23.29-2.31,5.34-1.03,10.52-2.9,15.53-4.99,1.89.76,4.03.82,6.04.89,1.98.1,4.07.23,6.04.37"/><path class="b" d="M9.3,182.98c3.72.15,7.53,0,11.22-.55.48,0,1.31.24,1.73.47,1.05.42,2.34.76,3.45.91,4.9.52,9.75-1.28,14.67-1.02,2.88.05,5.78.7,8.63,1.05,5.91,1.01,10.04-4.12,13.8-7.84,6.59-.54,13.49-.67,19.84,1.44,4.22,1.34,8.03,3.79,12.08,5.54,2.83,1.31,6.03,1.27,8.63-.55,1.15-.63,2.15-2,3.45-2.31,3.18,2.53,7.23,3.47,11.22,3.65,4.29.31,8.66.13,12.94-.25,7-.64,13.99-1.93,20.71-4.05,6.47-2,12.66-4.87,18.98-7.28,3.94.97,8.06,1.13,12.08,1.64"/><path class="b" d="M9.3,178.17c3.79-.26,7.59-1.04,11.22-2.17.53.05,1.34.51,1.73.85,1.04.72,2.31,1.5,3.45,2.04,5.39,2.83,11.5.93,17.25,1.03,2.57,0,5.2.42,7.76.55,5.83.46,9.9-4.48,13.8-8.04.36-.4,1.19-1.03,1.73-1.15,1.08.13,2.37.29,3.45.45,2.9.43,5.85,1.07,8.63,2,3.26,1.08,6.42,2.65,9.49,4.18,2.42,1.17,5.02,2.5,7.76,2.56,4.29-.05,7.44-3.55,10.35-6.28,4.59,3.76,8.89,5.03,14.67,5.83,9.76,1.57,19.61-1.07,28.47-5.08,7.08-3.03,13.92-7.1,21.57-8.55,3.96.88,8.07,1.15,12.08,1.73"/><path class="b" d="M9.3,173.35c3.85-.97,7.58-2.53,11.22-4.1.97.11,1.85,1.09,2.59,1.64,1.34,1.07,2.87,2.24,4.31,3.16,6.06,4.09,11.36,2.83,18.12,2.76,4.98.06,9.42,1.19,13.8-2,1.8-1.21,3.56-2.78,5.18-4.23,1.06-.84,2.12-2.22,3.45-2.6,4.76,1.24,9.4,3.03,13.8,5.21,3.56,1.63,7.18,3.9,11.22,3.89,3.36-.15,6.24-2.36,8.63-4.53,1.43-1.13,2.63-3.05,4.31-3.78,1.92,1.32,3.96,2.73,6.04,3.79,1.89.96,4.04,1.63,6.04,2.31,4.42,1.44,9.13,2.62,13.8,2.08,9.92-1.19,17.84-7.99,26.74-11.89,8.56-4.03,15.23-2.39,24.16-1.34"/><path class="b" d="M9.3,168.77c3.81-1.74,7.44-3.99,11.22-5.79.98-.07,1.85.88,2.59,1.4,1.4,1.09,2.92,2.37,4.31,3.48,3.68,3.03,8.04,5.66,12.94,5.74,2.85.11,5.78-.15,8.63-.07,4.43.25,8.27.29,12.08-2.36,1.79-1.17,3.55-2.66,5.18-4.03.72-.57,1.61-1.59,2.59-1.68,4.1,1.6,8.1,3.56,12.08,5.43,4.73,2.27,9.79,4.16,14.67,1.13,3.94-2.18,6.82-5.87,10.35-8.56,3.87,2.37,7.87,4.61,12.08,6.33,3.32,1.47,6.75,2.99,10.35,3.61,7.77,1.39,14.54-3.79,20.71-7.75,4-2.6,8.22-5.24,12.94-6.25,2.23-.51,4.63-.4,6.9-.4,4.62-.16,9.25.39,13.8,1.09"/><path class="b" d="M9.3,164.5c2.57-1.69,5.12-3.61,7.76-5.18,1.33-.68,2.78-1.81,4.31-1.85,6.47,3.32,11,9.91,18.12,12.04,3.06.9,6.34.67,9.49.65,2.56-.05,5.23.22,7.76-.19,2.83-.45,5.47-1.91,7.76-3.59,1.42-.9,2.71-2.45,4.31-3.01,5.6,2.53,11.09,5.9,17.25,6.76,4.47.53,8.67-1.81,12.08-4.47,1.73-1.34,3.51-2.9,5.18-4.32,1.05-.75,2.1-2.17,3.45-2.32,4.02,2.06,8.07,4.19,12.08,6.28,3.81,2,7.73,4.32,12.08,4.83,5.89.54,10.94-3.34,15.53-6.51,4.5-3.17,9.15-6.68,14.67-7.77,3.68-.58,7.5-.18,11.22-.3,3.48.11,6.94,1.04,10.35,1.62"/><path class="b" d="M9.3,160.54c3.66-3.01,7.31-6.71,12.08-7.79,8.4,2.37,13.06,11.4,21.57,13.52,2.51.6,5.2.51,7.76.51,1.97-.01,4.07.07,6.04-.12,4.19-.33,7.94-2.61,11.22-5.09,10.46,4.75,17.82,8.18,28.47,1.28,3.9-2.31,7.26-5.59,11.22-7.77,3.84,1.69,7.61,3.71,11.22,5.84,3.57,2.09,7.16,4.51,11.22,5.53,8.16,1.91,15.12-5.83,21.57-9.72,7.53-4.93,11.22-4.75,19.84-4.56,3.83.52,7.45,2.22,11.22,3.06"/><path class="b" d="M9.3,156.8c8.4-8.81,13.34-11.06,23.29-2.56,4.52,3.92,9.16,8.76,15.53,8.99,3.71.14,7.54.28,11.22-.3,2.77-.44,5.33-1.8,7.76-3.12,10.76,5.26,20.68,4.34,31.06-1.3,2.33-1.23,4.68-2.68,6.9-4.09,1.38-.76,2.76-2.03,4.31-2.39,3.9,1.73,7.62,3.98,11.22,6.25,3.93,2.38,8.16,5.21,12.94,5.04,5.21-.4,9.57-3.79,13.8-6.55,5.46-3.71,11.35-7.54,18.12-8.02,1.98-.07,4.17-.28,6.04.55,3.71,1.71,7.23,4.03,11.22,5.1"/><path class="b" d="M9.3,153.17c3.18-3.57,6.85-8,12.08-7.9,2.31-.06,4.75.11,6.9,1.01,5.1,2.12,8.62,6.7,12.94,9.95,3.42,2.81,7.73,3.78,12.08,3.63,4.1.08,8.28-.36,12.08-1.97,7.39,3.04,15.64,2.09,23.29.64,4.4-.86,8.8-2.07,12.94-3.8,3.3-1.31,6.39-3.21,9.49-4.9,5.87,2.88,11,7.32,17.25,9.4,6.76,2.31,13.3-1.86,18.98-5.1,4.94-2.88,10.02-5.75,15.53-7.38,1.65-.49,3.47-.91,5.18-1.15,1.22.36,2.45,1.27,3.45,2.04,3.35,2.8,6.9,5.71,11.22,6.82"/><path class="b" d="M9.3,149.53c2.57-3.06,5.34-6.75,9.49-7.55,1.67-.24,3.5-.1,5.18-.13,2.64-.1,5.42.22,7.76,1.51,5.77,3.09,9.42,9.26,15.53,11.82,4.71,1.76,10.67,1.29,15.53.33,3.59,1.18,7.49,1.09,11.22.78,6.02-.55,12.09-1.07,18.12-1.54,7.18-.57,14.65-1.72,20.71-5.9,6.36,3.58,12.97,8.64,20.71,7.48,5.76-.87,11.06-3.61,16.39-5.82,5.89-2.54,11.94-4.84,18.12-6.57,1.67.96,2.95,2.8,4.31,4.13,2.72,3.05,6.24,5.61,10.35,6.29"/><path class="b" d="M9.3,145.7c2.61-3.28,5.75-7.33,10.35-7.29,1.98,0,4.06,0,6.04,0,2.3-.05,4.76-.03,6.9.95,5.73,2.6,9.21,8.42,14.67,11.45,3.38,1.93,7.43,1.99,11.22,1.75.8-.13,1.81.23,2.59.34.76.11,1.82.16,2.59.14,3.74-.15,7.48-.97,11.22-1.24,4-.35,8.07-.28,12.08-.08,6.88.27,13.89.98,20.71-.32,1.43-.3,2.99-.79,4.31-1.4.76-.35,1.74-1.03,2.59-1.15,10.43,6.32,17.48,4.29,28.47,1.33,5.71-1.53,11.51-2.88,17.25-4.25,1.68-.41,3.5-.87,5.18-1.33,1.08-.22,2.33-.92,3.45-.65,3.92,4.94,6.98,8.77,13.8,8.89"/><path class="b" d="M9.3,141.5c5.81-7.47,7.71-6.52,16.39-6.52,1.97.04,4.08-.12,6.04.15,4.62.82,7.92,4.6,11.22,7.63,2.48,2.33,5.28,4.66,8.63,5.55,1.07.3,2.36.42,3.45.57,1.31.59,2.89.83,4.31.71,4.34-.51,8.55-2.11,12.94-2.29,8.41-.52,16.62,2.25,25.02,2.27,2.85.07,5.78.05,8.63.05,2.57-.02,5.28.01,7.76-.71,1.07-.61,2.37-.16,3.45.17,1.36.33,2.92.52,4.31.54,3.76.02,7.52-.82,11.22-1.47,3.69-.68,7.47-1.25,11.22-1.59,5.72-.55,11.53-.59,17.25-1.09,1.68-.15,3.51-.37,5.18-.67,1.09-.11,2.38-.76,3.45-.33,4.14,5.15,6.6,5.56,12.94,4.94"/><path class="b" d="M9.3,136.74c1.99-2.37,4.52-4.86,7.76-5.15,4.58-.11,9.22,0,13.8-.04,7.48-.3,11.58,7.24,17.25,10.85,3,1.62,4.78,4.41,8.63,3.68,2.03-.31,3.96-1.42,6.04-1.43,3.17-.34,6.38-1,9.49-1.7,1.67-.32,3.52.22,5.18.47,2.87.58,5.76,1.44,8.63,2.05,2.8.6,5.76.87,8.63.63,3.44-.26,6.9-.98,10.35-1.06,2.64-.26,5.15.99,7.76,1.11,1.68,0,3.56.21,5.18-.38,2.49-.89,5.2-1.43,7.76-2.08,5.06-1.19,10.34-1.54,15.53-1.17,9.74.65,19.57,3.09,29.33,1.42,4.71,3.77,6.82,1.68,12.08,1.22"/><path class="b" d="M9.3,131.96c1.83-1.89,4.2-3.61,6.9-3.8,3.43-.09,6.92-.01,10.35-.04,2.84.12,5.84-.32,8.63.35,5.16,1.75,8.74,6.29,12.08,10.36,4.47,5.01,6.29,4.51,12.08,2.19,3.73-.02,7.51-.42,11.22-.82,1.96-.1,4.1-.71,6.04-.34,3.68,1.07,7.35,2.64,11.22,2.87,1.7.1,3.53-.14,5.18-.53,1.09-.21,2.33-.81,3.45-.76,6.14,1.53,11.4,2.15,17.25-.85,1.65.76,3.36,1.81,5.18,2.12,3.91.35,6.38-3.65,8.63-6.25,1.9-1.33,8.85.16,11.22.72,6.88,1.78,13.56,4.6,20.71,5.16,4.28.36,8.65.43,12.94.12,1.08.15,2.36.42,3.45.17,2.26-.46,4.56-1.38,6.9-1.15"/><path class="b" d="M9.3,128.94c3.86-3.78,7.74-4.47,12.94-4.25,3.14.06,6.37-.18,9.49.2,6.73.96,10.17,7.61,14.67,11.93,4.02,3.82,5.92,2.57,10.35.6,7.45.62,14.98-.17,22.43.48,2.17.82,4.56,1.54,6.9,1.42.78-.04,1.84-.22,2.59-.42,1.39-.02,2.93.27,4.31.34,4.73.44,9.57-.47,13.8-2.63,1.1-.54,2.39-1.25,3.45-1.87.73-.43,1.72-1.15,2.59-1.26,2.47,1.31,4.55,3.41,6.9,4.89,2.5,1.67,4.85.92,6.9-1.03,2.15-2,4.03-4.49,6.04-6.62l.86-.18c7.39,2.39,13.6,8.25,21.57,8.77,4.34.2,8.61-1.19,12.94-1.32.56-.09,1.3.23,1.73.59,1.26.74,2.92.96,4.31.49,1.02-.53,2.36-.2,3.45-.13,1.68.12,3.5.16,5.18.15"/><path class="b" d="M9.3,127.54c2.27-1.92,4.89-3.66,7.76-4.51,4.46-1.25,9.44-1.23,13.8.39,4.52,1.75,7.8,5.55,11.22,8.82,2.24,2.17,5.36,4.66,8.63,3.21,1.14-.38,2.25-1.37,3.45-1.54,3.4.56,6.91.78,10.35.99,4.3.24,8.65.48,12.94.74,4.87.29,9.85.54,14.67-.42,5.95-1.11,11.27-4.23,16.39-7.3,2.27-1.22,2.64-2.34,5.18-.57,3.48,2.2,5.93,5.86,9.49,7.93,4.12,2.2,7.57-2.45,10.35-4.88,1.03-.82,2.06-2.36,3.45-2.49,4.96,3.14,9.93,9.23,16.39,7.71,3.06-.8,5.81-2.61,8.63-3.99,10.13,9.98,10.84-.95,20.71-.13"/><path class="b" d="M9.3,127.42c8.46-5.68,16.46-6.46,25.02-.51,3.49,2.14,6.85,5.66,11.22,5.55,1.84-.17,3.63-1.12,5.18-2.09.84-.28,1.79.27,2.59.46,1.37.31,2.92.5,4.31.69,6.85.79,13.82,1.25,20.71.73,1.38.34,2.97.26,4.31-.19,1.05-.45,2.33-.87,3.45-1.08,8.65-2.05,16.04-7.29,24.16-10.68,7.26.66,12.28,13.21,18.98,12.08,2.54-.57,4.73-2.3,6.9-3.66,1.04-.58,2.21-1.65,3.45-1.64,6.51,6.24,9.31,7.53,16.39,1.06,3.61,2.07,7.69,5.75,12.08,3.72,5.05-2.31,8.38-7.68,14.67-5.77"/><path class="b" d="M9.3,127.46c7.17-2.35,13.4-3.2,20.71-.76,3.36.99,6.78,2.48,10.35,2.31,1.76-.1,3.59-.69,5.18-1.44,1.1-.4,2.22-1.55,3.45-1.38,2.76,1.93,6.24,2.25,9.49,2.56,5.16.51,10.43.32,15.53-.65,3.9,1.97,7.26.4,10.35-2.19,1.39-1.43,3.4-2.01,5.18-2.77,2.57-1.09,5.2-2.29,7.76-3.41,2.8-1.22,5.71-2.43,8.63-3.36,1.65-.45,3.47-1.33,5.18-.68,7.97,1.94,11.84,12.46,19.84,13.32,3.57.06,6.89-1.76,10.35-2.41,1.91,1.59,4.41,3.3,6.9,1.85.8-.42,1.72-1.27,2.59-1.57,3.65.87,7.39,2.8,11.22,1.89,7.34-1.77,12.35-11.94,20.71-7.95"/><path class="b" d="M9.3,125.6c3.72.02,7.5-.12,11.22-.07,3.43.02,6.93.18,10.35-.04,5.13-.26,10.07-2,14.67-4.19.89.35,1.81,1.28,2.59,1.81,1.26.88,2.82,1.61,4.31,1.95,3.67.69,7.52.69,11.22.2,1.4-.19,2.94-.5,4.31-.84.76-.18,1.79-.55,2.59-.47,5.35,3.63,8.97.47,12.94-3.28,1.38-1.13,2.6-2.96,4.31-3.57,3.93-1.55,7.98-2.97,12.08-4.01,1.96-.5,4.05-.95,6.04-1.27,1.68-.31,3.51-.57,5.18-.02,4.1,1.01,7.29,4.11,10.35,6.85,5.95,5.54,9.82,7.65,18.12,6.81,1.08-.06,2.37-.12,3.45-.12.41.16,1.29.29,1.73.24.74-.28,1.81-.21,2.59-.16,3.74.23,7.68.48,11.22-1,7.91-2.95,14.99-13.89,24.16-8.35"/><path class="b" d="M9.3,120.19c11.11.32,22.1-1.67,32.78-4.56,1.03.27,1.84,1.51,2.59,2.2,1.24,1.22,2.75,2.49,4.31,3.26,2.64,1.3,5.77,1.19,8.63.92,3.27-.26,6.38-1.52,9.49-2.39,2.16,1.64,5.03,3.37,7.76,2.09,3.43-1.64,5.9-4.83,8.63-7.38,1.31-1.14,2.64-2.76,4.31-3.33,3.09-.89,6.31-1.56,9.49-2.02,3.7-.54,7.49-.86,11.22-1.09,6.63.71,11.1,6.3,16.39,9.74,4.5,3.22,10.08,4.34,15.53,4.3.78-.07,1.81.24,2.59.26.42-.08,1.3-.24,1.73-.34,4.18-.17,8.39-1.17,12.08-3.19,7.8-4.24,16.85-13.09,25.88-6.64"/><path class="b" d="M9.3,112.61c8.55-1.7,17.15-3.48,25.88-3.8,1.1.01,2.46-.31,3.45.28,1.1,1.18,2.37,2.64,3.45,3.85,2.14,2.33,4.56,4.9,7.76,5.62,4.74.68,9.57-.99,13.8-2.98.94.16,1.82,1.09,2.59,1.6,1.24.85,2.77,1.66,4.31,1.56,3.28-.48,5.55-3.42,7.76-5.63,2.34-2.49,4.78-5.13,7.76-6.85,4.16-1.16,8.65-1.14,12.94-1.37,3.14-.09,6.35-.11,9.49-.14,3.23.68,6.03,2.67,8.63,4.61,2.98,2.21,6.06,4.48,9.49,5.95,3.51,1.52,7.41,2.15,11.22,2.17,1.09.41,2.25,1.23,3.45,1.28,1.64.05,3.1-1.11,4.31-2.08,4.65-1.02,8.89-3.39,12.94-5.8,7.01-4.41,16.98-8.27,24.16-2.18"/><path class="b" d="M9.3,104.98c7.12-2.76,14.83-3.71,22.43-3.37,3.61,1.24,6.06,4.71,8.63,7.37,2.87,3.16,6.47,7.25,11.22,6.17,3.31-.63,6.56-1.83,9.49-3.5,2.21,1.26,4.11,3.77,6.9,3.65,4.73-.61,9.32-9.1,13.8-11.92,1.26-.85,2.75-1.81,4.31-1.82,2.26-.19,4.63-.26,6.9-.25,5.18,0,10.38.48,15.53.96,2.93.92,5.31,3.24,7.76,5,3.09,2.34,6.57,4.38,10.35,5.35,2.78.73,5.76.99,8.63.9,3.17,1.83,5.44,2.7,8.63.2.83-.64,1.87-1.64,2.59-2.41,2.54-1.33,5.28-2.54,7.76-4,3.8-2.11,7.77-4.21,12.08-5.05,5.97-1.22,11.89-.55,16.39,3.9"/><path class="b" d="M9.3,98.69c3.55-1.4,7.45-1.52,11.22-1.45,2.56.05,5.25-.2,7.76.41,8.13,1.9,11.8,12.01,18.98,14.1,2.05.42,4.17-.41,6.04-1.16,1.75-.66,3.58-1.52,5.18-2.48,2.32,1.07,4.07,3.86,6.9,3.76,4.54-.58,8.84-9.03,12.94-11.89,1.24-.96,2.78-1.85,4.31-2.24,2.85-.18,5.78-.18,8.63-.05,5.87.18,11.62,1.59,17.25,3.15.95.09,1.89.94,2.59,1.51,1.39,1.14,2.89,2.49,4.31,3.58,2.98,2.32,6.61,3.87,10.35,4.36,2.54.41,5.2.27,7.76.26,3.66,1.95,7.07,1.66,10.35-.89,1.49-1.1,3-2.54,4.31-3.85,2.19-1.39,4.61-2.65,6.9-3.86,5.74-3.02,12.57-4.61,18.98-3.05,3.37.89,6.21,3.21,8.63,5.63"/><path class="b" d="M9.3,94.37c3.11-.49,6.35-.5,9.49-.47,3.49.04,7.14.28,10.35,1.76,5.15,2.33,8.62,7.09,12.94,10.56,3.97,3.27,7.04,2.47,11.22.14,1.09-.43,2.23-1.51,3.45-1.41,2.08,1.75,4.86,4.62,7.76,2.98,5.38-3.56,7.65-10.84,13.8-13.45,1.32-.56,2.92-.44,4.31-.49,2.27-.03,4.64,0,6.9.17,7.96.35,13.68,3.96,20.71,7,4.44,4.49,8.21,6.74,14.67,6.9,2.27.1,4.64.07,6.9-.12.76.15,1.82.35,2.59.43,3.66.44,7.31-.95,10.35-2.9,4.16-2.48,7.47-6.39,12.08-8.08,4.84-2,10.44-2.83,15.53-1.31,4.13,1.36,7.28,4.66,10.35,7.59"/><path class="b" d="M9.3,93.13c6.08-1.96,13.02-2.15,18.98.35,4.28,1.84,7.69,5.21,11.22,8.15,5.82,4.95,8.64,3.88,14.67.09,2.18,1.13,4.16,3.8,6.9,3.18,5.5-2.3,7.99-11.1,13.8-13.84,1.57-.73,3.49-.51,5.18-.6,2.27-.03,4.64-.01,6.9.13,10.5.35,15.45,6.98,24.16,11.04,2.85,2.79,6.47,3.58,10.35,3.38,4.29-.16,8.65.16,12.94-.11,3.22-.26,6.46-1,9.49-2.11,4.83-1.75,9.32-4.39,13.8-6.84,1.94-1.02,3.97-2.2,6.04-2.95,2.93-.22,6.02.25,8.63,1.65,3.86,2.19,6.78,5.77,10.35,8.35"/><path class="b" d="M9.3,93.16c9.6-4.63,18.5-3.17,26.74,3.36,6.04,4.46,9.35,7.36,16.39,2.43,1.18.48,2.28,1.57,3.45,2.09,3.28,1.83,6-1.6,7.76-3.97,1.92-2.59,3.73-5.54,6.04-7.81,1.6-1.58,2.95-2.08,5.18-2.12,4.29-.21,8.68-.3,12.94.25,6.93.84,11.93,6.12,17.25,10.09,1.81,1.31,3.89,2.51,6.04,3.16,1.33.54,2.85,1.08,4.31.92,1.67-.18,3.5.08,5.18.02,3.14,0,6.35-.15,9.49-.32,2.27-.19,4.62.51,6.9.3,2.05-.08,4.11-.77,6.04-1.41,2.57-.33,5.23-.77,7.76-1.33,6.29-1.3,12.26-3.78,18.12-6.35,5.24,1.9,8.33,7.54,13.8,8.96"/><path class="b" d="M9.3,93.47c10.83-5.85,18.32-5.17,28.47,1.56,5.14,3.21,8.26,4.42,13.8,1.11,7.96,7.39,11.61-8.28,17.25-11.39,3.31-1.09,6.9-1.16,10.35-1.17,10.31-.26,14.22,2.04,21.57,8.91,2.52,2.22,5.28,4.59,8.63,5.37,3.69.74,7.51-.18,11.22-.39,4.28-.37,8.64-.39,12.94-.27,2.25.42,4.58,1.11,6.9.93,1.1-.07,2.4-.32,3.45-.63,1.08.02,2.37.04,3.45.04,8.12,0,16.59-.09,24.16-3.41,3.81,2.15,6.36,5.38,11.22,3.4"/><path class="b" d="M9.3,92.95c6.63-3.08,13.2-6.46,20.71-4.34,3.33.86,6.43,2.56,9.49,4.1,3.67,1.94,7.37,2.88,11.22.78,4.53,3.53,7.97-1.48,10.35-4.92,1.55-2.01,2.7-4.82,5.18-5.84,5.51-2.92,12.07-2.68,18.12-2.25,12.92.89,16.92,15.85,27.61,14.1,4.26-.73,8.6-1.53,12.94-1.35,6.62.18,13.21,1.53,19.84,1.49,6.89,0,13.81-.42,20.71-.05,1.68.05,3.5.09,5.18-.02,1.09,0,2.4-.53,3.45-.08,1.4.35,3.02.03,4.31-.55.42-.2,1.32-.64,1.73-.88.71-.32,1.82-.32,2.59-.31"/><path class="b" d="M9.3,91.05c3.59-.77,6.89-2.64,10.35-3.81,3.28-1.17,6.89-1.72,10.35-1.19,3.31.47,6.46,1.83,9.49,3.17,2.69,1.16,5.64,2.43,8.63,1.97.79-.12,1.78-.53,2.59-.38.45.21,1.24.47,1.73.48,3.63-.25,5.79-3.88,7.76-6.51.75-1.35,2.23-2.36,3.45-3.24,2.32-1.68,4.97-3.09,7.76-3.78,5.31-1.13,11.14-1.19,16.39.24,4,1.2,7.33,3.98,10.35,6.76,2.61,2.32,5.24,5.01,8.63,6.13,2.83.93,5.82-.05,8.63-.57,2.81-.55,5.77-.78,8.63-.61,5.18.28,10.32,1.6,15.53,1.58,1.68.02,3.5-.21,5.18-.3,1.37.23,2.93.33,4.31.3,3.15-.09,6.34-.68,9.49-.86,2.56-.17,5.23,0,7.76.37,2.54.36,5.31.93,7.76-.12,2.79.68,5.77.6,8.63.62"/><path class="b" d="M9.3,87.71c3.55.63,7.04-.84,10.35-1.94,3.3-1.14,6.84-1.99,10.35-1.79,3.25.16,6.44,1.18,9.49,2.25,3.29,1.23,6.89,2.22,10.35,1.14,2.53,1.4,5.2-.66,6.9-2.46,1.71-1.82,3.03-4.25,5.18-5.62,2.8-2.19,5.99-4.11,9.49-4.9,4.78-1,9.92-1.03,14.67.17,9.55,2.4,14.14,14.07,22.43,13.3,7.51-2.3,10.78-3.89,18.98-2.13,4.26.88,8.54,2.31,12.94,2.12,1.7-.08,3.53-.4,5.18-.84,1.07-.27,2.36-.87,3.45-.38,4.2,1.07,8.62,1.18,12.94,1.16,4.16,0,8.7-.25,12.08-2.97,1.14-.25,2.34.59,3.45.79,1.65.44,3.48.72,5.18.89"/><path class="b" d="M9.3,83.05c5.16,2.7,10.28.66,15.53-.42,2.81-.56,5.78-.73,8.63-.36,5.15.51,10.35,3.33,15.53,1.58,3.36,1.8,6.57-1.26,8.63-3.67,1.68-1.87,2.95-4.41,5.18-5.7,3.5-2.54,7.76-3.97,12.08-4.14,3.15-.16,6.43-.06,9.49.76,5.69,1.49,9.63,6.19,13.8,10.01,2.9,2.59,4.68,3.59,8.63,3.29.9-.19,1.91-.9,2.59-1.5,1.32-.86,2.88-1.69,4.31-2.34,7.04-3.23,14.03-.42,20.71,2.25,3.26,1.25,6.88,2.13,10.35,1.27,1.74-.4,3.55-1.11,5.18-1.85,1.08-.44,2.28-1.26,3.45-1.42,5.26,1.56,11.15,2.19,16.39.21,1.15-.45,2.44-1.16,3.45-1.87,0,0,.86-.65.86-.65,0,0,.86-.18.86-.18,2.45,1.05,5.14,1.73,7.76,2.16"/><path class="b" d="M9.3,77.78c7.72,5.13,12.44,2.63,20.71,2.16,2.86-.13,5.8.2,8.63.61,3.12.48,6.47.8,9.49-.34.47.09,1.3.41,1.73.61.79.24,1.81.19,2.59-.08,5.01-2.05,7.52-7.39,11.22-11.03,2.33-1.97,5.67-2.5,8.63-2.84,8.23-.65,14.02.52,19.84,6.68,2.9,2.65,5.42,6.6,9.49,7.43.8.07,1.81-.3,2.59.01,1.82.02,3.2-1.68,4.31-2.92,4.75-6.04,13.11-6.93,19.84-3.91,5.26,2.02,9.8,6.18,15.53,6.82,4.83.23,8.92-2.99,12.94-5.23.73-.42,1.73-1.08,2.59-1.15.75.19,1.82.4,2.59.52,4.14.67,8.56-.08,12.08-2.43,1.13.02,2.36.62,3.45.87,1.66.45,3.48.82,5.18,1.11"/><path class="b" d="M9.3,72.89c.92.03,1.83.82,2.59,1.25,1.33.8,2.86,1.61,4.31,2.16,3.83,1.54,8.04,1.34,12.08,1.09,3.14-.18,6.35-.11,9.49.08,3.16.2,6.5.2,9.49-1,.55-.08,1.31.25,1.73.57.45.2,1.24.47,1.73.52,5.06-.16,8.07-5.25,11.22-8.57,2.12-2.32,4.55-5.02,7.76-5.65,4.28-.34,8.8-.49,12.94.83,5.55,1.91,8.89,7.13,12.94,11.03,1.67,1.62,3.65,2.82,6.04,2.17,1.71.69,3.28-.84,4.31-2.03,1.81-1.97,3.06-4.76,5.18-6.43,3.6-2.82,8.53-3.4,12.94-2.67,6.61,1.02,11.8,5.59,17.25,9.09,7.71,5.19,12.43,0,18.98-3.99,1.6-.98,3.41-1.94,5.18-2.58.75.09,1.83.18,2.59.19,1.08.01,2.39-.12,3.45-.36.76-.17,1.79-.62,2.59-.53,2.8.72,5.76,1.15,8.63,1.51"/><path class="b" d="M9.3,69.49l.86-.97c.92-.05,1.83.75,2.59,1.18,1.06.64,2.34,1.36,3.45,1.9,3.98,2.03,8.52,2.59,12.94,2.54,6.04-.16,12.41.73,18.12-1.74,6.86,5.65,12.64-4.42,17.25-8.41,2.35-2.24,5.35-3.96,8.63-4.27,4.47-.5,9.39.1,12.94,3.08,2.25,1.82,4.19,4.21,6.04,6.41,1.49,1.7,3.07,3.73,5.18,4.68.76.3,1.81.24,2.59.02,2.21.87,3.97-1.49,5.18-3,1.43-1.94,2.86-4.24,4.31-6.17.83-1.2,2.08-2.38,3.45-2.92,6.07-2.3,14.05-1.71,19.84,1.15,3.13,1.57,5.93,3.85,8.63,6.05,2.36,1.88,4.82,3.99,7.76,4.86,4.2,1.13,7.94-2.04,11.22-4.22,2.65-1.84,5.49-3.69,8.63-4.58,2.21-.69,4.64-.61,6.9-.25,2.26.23,4.63.32,6.9.43"/><path class="b" d="M9.3,65.63c.37-.46,1.22-1.27,1.73-1.57,6.52,4.08,12,6.5,19.84,6.51,5.19.05,10.69.31,15.53-1.88.57-.03,1.32.41,1.73.77.99.64,2.26,1.2,3.45,1.25,6.79-.25,10.86-8.28,16.39-11.5,4.04-2.61,9.15-2.98,13.8-2.25,3.73,1.02,6.28,4.48,8.63,7.34,1.79,2.16,3.47,4.86,6.04,6.18.75.32,1.8.16,2.59.19,3.45.36,5.93-5.17,7.76-7.54,4.16-6.28,5.49-6.78,12.94-6.94,5.84-.08,12.1-.15,17.25,2.98,5.37,2.98,9.09,8.4,14.67,11.02,6.91,2.93,13.24-7.65,21.57-8.11,1.97-.06,4.07-.05,6.04-.2,1.26-.08,2.42,1,3.45,1.6"/><path class="b" d="M9.3,61.42c.37-.44,1.2-1.2,1.73-1.44,4.92,2.66,9.92,5.56,15.53,6.41,6.25.84,14.03,1.19,19.84-1.5,1.71.71,3.23,2.2,5.18,2.34,7.06.41,11.52-7.52,17.25-10.62,4.87-2.92,11.37-3.32,16.39-.54,2.58,1.3,4.41,3.72,6.04,6.03,1.76,2.14,3.68,5.59,6.9,5.14,5.01.39,8.67-11.61,13.8-13.92,1.56-.76,3.49-.61,5.18-.68,2.56,0,5.21,0,7.76,0,5.66-.06,11.53-.31,16.39,3.11,2.82,1.84,5.3,4.3,7.76,6.57,2.25,2.01,4.69,4.33,7.76,4.89,5,.49,9.27-4.42,13.8-6.11,2.14-.98,4.62-1.08,6.9-1.53.49,0,1.36.41,1.73.74,1.12.8,2.4,1.85,3.45,2.75"/><path class="b" d="M9.3,56.99l.86-.84c2.1.56,4.06,1.87,6.04,2.75,2.75,1.35,5.65,2.61,8.63,3.37,6.38,1.5,15.52,1.93,21.57-.83.53.05,1.33.5,1.73.83.74.47,1.75,1,2.59,1.25,7.06,1.82,11.92-5.18,17.25-8.5,4.46-3.09,10.44-4.23,15.53-2.05,4.16,1.82,7.44,5.31,10.35,8.7,6.25,7.17,10.96-4.91,14.67-8.8,2.04-2.5,4.46-3.93,7.76-3.65,4.87,0,9.79,0,14.67,0,3.76-.01,7.73-.21,11.22,1.44,3.66,1.66,6.62,4.59,9.49,7.33,3.21,3.01,7.27,7.22,12.08,5.42,2.7-.95,5.15-2.65,7.76-3.8,1.6-.75,3.5-1.11,5.18-1.64.95.21,1.86,1.16,2.59,1.75,1.06.91,2.31,2.01,3.45,2.82"/><path class="b" d="M9.3,52.52c5.25,1.87,10.11,4.86,15.53,6.27,3.91,1.05,8.04,1.32,12.08,1.26,2.28-.05,4.68-.22,6.9-.77,1.11-.24,2.34-.86,3.45-1.08,10.31,7.56,17.38-6.13,26.74-8.4,7.98-2.2,13.61,2.13,18.98,7.43,1.99,1.69,4.04,4.12,6.9,2.87,5.44-3.21,7.29-10.48,12.94-13.48,1.83-.93,4.04-.81,6.04-.83,2.27,0,4.64,0,6.9,0,3.14,0,6.35,0,9.49,0,2.27.02,4.66-.12,6.9.31,9.93,1.45,15.72,15.94,24.16,14.16,2.38-.53,4.63-1.77,6.9-2.62,1.07-.28,2.32-1.1,3.45-.78,1.79,1.4,3.64,3.42,6.04,3.57"/><path class="b" d="M9.3,49.7c3.85,1.15,7.48,3.04,11.22,4.48,5.72,2.35,11.99,2.81,18.12,2.64,1.99-.05,4.1-.19,6.04-.63,1.12-.17,2.3-.99,3.45-.79,1.78,1.08,3.95,1.7,6.04,1.59,3.54-.08,6.71-2.04,9.49-4.06,5.77-4.42,12.32-8.58,19.84-6.09,5.52,1.7,9.07,6.65,13.8,9.65,4.06,2.09,7.23-2.77,9.49-5.47,2.02-2.53,4.1-5.35,6.9-7.06,2.27-1.43,5.17-1.4,7.76-1.58,7.18-.01,14.39-.08,21.57.03,11.25.42,15.37,12.93,24.16,14.54,2.98.31,5.79-1.23,8.63-1.86,2.3,1.81,4.53,2.84,6.9.46"/><path class="b" d="M9.3,47.01c4.16,1.09,8.03,3.14,12.08,4.55,3.3,1.19,6.85,1.82,10.35,1.93,2.56.09,5.21.06,7.76.06,2.57-.02,5.27,0,7.76-.7,1.16-.63,2.33.03,3.45.37,1.07.27,2.36.38,3.45.32,4.27-.1,7.9-2.7,11.22-5.13,5.12-3.96,11.48-7.32,18.12-5.64,5.58,1.23,9.48,5.73,13.8,9.1,4.28,4.16,8.3-.2,11.22-3.59,2.29-2.59,4.67-5.47,7.76-7.1,1.66-.56,3.47-1.12,5.18-1.51,3.94-.94,8.06-.74,12.08-.75,4.01.05,8.08-.11,12.08.09,3.84.23,7.46,2.04,10.35,4.52,3.99,3.17,7.21,7.68,12.08,9.57,2.21.8,4.7.39,6.9-.22,3.83,1.97,5.84-1.11,7.76-3.98"/><path class="b" d="M9.3,44.27c5.59,1.41,10.65,4.64,16.39,5.52,4.85.79,9.79-.13,14.67.09,1.98.05,4.06.26,6.04.24,1.1.02,2.36-.33,3.45-.34.45.11,1.27.26,1.73.3,9.1.95,14.64-7.81,22.43-10.77,8.89-3.37,16.01-.16,22.43,6.16,1.75,1.37,3.09,3.54,5.18,4.44.75.28,1.81.13,2.59.2,4.23-.64,7.1-5.2,10.35-7.68,1.37-1.44,3.47-2.08,5.18-3.02,2.46-1.23,5.08-2.41,7.76-3.07,3.07-.77,6.34-.86,9.49-.87,2.85.01,5.78-.05,8.63.09,13.09.29,16.34,12.69,25.88,14.49.75.09,1.83.06,2.59-.05.76.07,1.85.17,2.59-.13.49-.22,1.35-.85,1.73-1.24,1.42-1,3.02-2.13,4.31-3.3"/><path class="b" d="M9.3,41.26c5.81,1.55,11.08,5.35,17.25,5.43,3.76.06,7.48-.99,11.22-1.23,2.28-.17,4.66,0,6.9.41,2.81.59,5.76,1.13,8.63.64,8.02-.83,12.82-8.36,19.84-11.44,6.24-2.71,14.02-2.62,19.84,1.08,1.83,1.19,3.66,2.71,5.18,4.29,1.28,1.63,2.72,3.47,4.31,4.81,1.16.98,2.78,1.65,4.31,1.39,1.13.17,2.44-.18,3.45-.68,1.81-.91,3.51-2.3,5.18-3.43.78-.33,1.84-.85,2.59-1.26,9.02-5.41,12.83-9.11,24.16-8.9,4.77-.04,9.76.67,13.8,3.38,9.89,6.69,14.86,17.64,26.74,5.67"/><path class="b" d="M9.3,37.74c5.47,1.7,10.41,5.88,16.39,5.49,3.25-.25,6.36-1.55,9.49-2.36,1.92-.45,4.06-1.02,6.04-.68.76.52,1.78,1.19,2.59,1.63,2.07,1.16,4.55,1.74,6.9,1.29,1.09-.24,2.35.37,3.45.04,1.68-.39,2.84-1.98,4.31-2.74,4-2.44,7.25-6.03,11.22-8.53,3.8-2.54,8.46-3.19,12.94-3.15,3.46,0,7.08.03,10.35,1.29,6.09,2.1,8.49,8.97,13.8,12.19,2.89,1.76,6.41.93,9.49.23,4.52-1.14,8.27-4.16,12.08-6.71,3.37-2.3,7.15-4.25,11.22-4.91,18.43-3.01,22.54,13.49,32.78,12.34.76.03,1.85.17,2.59-.11.91-.38,1.88-1.32,2.59-1.99,1.87-1.32,3.6-3.09,5.18-4.74"/><path class="b" d="M9.3,34.93l.86-.46c4.94,2.12,9.8,6.55,15.53,5.04,3.61-.94,6.85-3.08,10.35-4.32,1.57.33,2.9,1.74,4.31,2.46,4.48,2.78,7.29,2.59,12.08.85,3.2,2.27,5.35,1.32,7.76-1.37,2.39-2.69,4.39-5.91,6.9-8.5,1.74-1.38,3.88-2.48,6.04-3.01,2.23-.55,4.63-.41,6.9-.43,2.56,0,5.21,0,7.76,0,2.56.07,5.31-.28,7.76.58,4.25,1.68,7.11,5.59,10.35,8.62,2.38,2.37,5.4,4.22,8.63,5.18,1.36.43,2.93.04,4.31.23,6.18.36,11.08-4.18,16.39-6.62,8.45-4.19,15.81-2.27,23.29,2.83,4.28,2.73,7.76,5.09,12.94,2.88,5.68,3.95,7.78-6.46,11.22-8.98"/><path class="b" d="M9.3,32.54l.86-.53c5.1,2.4,9.72,6.29,15.53,3.26,2.69-1.15,5.05-3.19,7.76-4.25,8.25,4.78,10.34,7.53,19.84,3.07,1.39.75,2.66,2.15,4.31,2.3,3.55-.17,5.69-4.31,7.76-6.75,2.48-3.19,5.23-7.07,9.49-7.77,1.96-.21,4.07-.07,6.04-.11,3.43,0,6.92,0,10.35,0,2.27.04,4.7-.2,6.9.46,2.92.88,5.42,2.89,7.76,4.78,2,1.6,4.17,3.23,6.04,4.99,1.85,1.48,3.92,2.98,6.04,4.05.73.32,1.82.45,2.59.19.4-.22,1.3-.6,1.73-.78,6.21,2.52,12.05-.81,18.12-1.98,3.4-.67,6.99-.55,10.35.29,6.89,1.75,11.39,4.73,18.12.18,6.66,7.69,10.55-5.31,13.8-9.66"/><path class="b" d="M9.3,29.78c10.74,5.39,12.2,3.46,21.57-2.81,5.52,2.3,10.84,7.65,17.25,5.5,1.41-.41,2.94-1.03,4.31-1.54.76-.27,1.76-.75,2.59-.52,1.91,1.91,4.4,3.63,6.9,1.63,3.39-2.74,5.57-6.79,8.63-9.86,1.83-1.89,4.22-3.53,6.9-3.78,3.42-.15,6.93-.02,10.35-.06,3.72.06,7.51-.14,11.22.1,2.74.3,5.37,1.49,7.76,2.8,1.91.97,3.54,2.66,5.18,4,1.7,1.45,3.61,2.92,5.18,4.51,1.78,1.7,4.35,4.42,6.9,2.55.81-.55,1.61-1.71,2.59-2,5.89,2.91,12.57,2.73,18.98,2.66,7.59.16,13.36.02,19.84-4.52.59.23,1.39,1.14,1.73,1.67.67.82,1.67,1.87,2.59,2.41,5.77,2.59,9.68-9.72,12.94-12.95"/><path class="b" d="M9.3,28.16c5.36,1.99,8.96,1.92,13.8-1.29,2.03-1.18,3.88-2.97,6.04-3.91,5.71,2.1,10.79,7.33,17.25,6.47,3.21-.58,6.34-1.82,9.49-2.62,3.11,2.64,5.22,4.05,8.63.81,4.24-4.02,7.2-9.94,12.94-12.06,2.75-.95,5.77-.59,8.63-.66,3.72,0,7.5,0,11.22,0,3.48-.07,7.1.33,10.35,1.62,4.22,2.33,8.13,5.41,11.22,9.12,5.96,6.94,7.16,3.43,12.08-1.74,9.93,3.88,20.81,3.49,30.2-1.7,1.15.3,1.86,1.84,2.59,2.67,1.41,1.73,2.93,3.96,5.18,4.62,2.13.3,3.82-1.63,5.18-3,3.33-3.34,4.81-8.47,8.63-11.32"/><path class="b" d="M9.3,25.96c7.65,1.19,12.07-4.04,18.12-7.21,5.68,1.88,10.37,6.41,16.39,7.29,4.09.37,8.06-1.32,12.08-1.83.94-.43,1.91-.08,2.59.62,2.34,1.81,4.69,1.57,6.9-.28,4.18-3.48,7.23-8.41,12.08-11.09,3.91-2.24,8.59-1.99,12.94-1.98,5.74.06,11.61-.3,17.25.89,4.34,1.58,8.32,4.35,11.22,7.96,2.21,2.26,4.91,7.09,8.63,5.37,3.83-2.21,5.81-6.78,9.49-9.14,6.03.82,12.22.42,18.12-1.09,4.14,1.83,8.53,11.27,12.94,10.58,1.75-.48,3.14-2.05,4.31-3.36,1.12-1.32,2.44-2.9,3.45-4.3,1.82-2.19,3.8-6.69,6.9-6.9"/></svg>