<?xml version="1.0" encoding="UTF-8"?><svg id="a" xmlns="http://www.w3.org/2000/svg" width="1920" height="2400" viewBox="0 0 192 240"><defs><style>.b{fill:none;stroke:#fff;stroke-miterlimit:10;stroke-width:.3px;}.c{stroke-width:0px;}</style></defs><rect class="c" x="0" width="192" height="240"/><path class="b" d="M8.42,229.14c3.49-.33,7-.99,10.46-1.57.9.01,1.82.74,2.61,1.07,1.33.58,2.94.79,4.36.42,2.94-.77,5.31-2.93,7.84-4.49,1.73-.47,3.56-1.07,5.23-1.71,1.74-.67,3.57-1.51,5.23-2.38,1.7-1.03,2.4-1.27,4.36-.8,3,.54,5.32,2.71,7.84,4.23,2.64,1.53,5.7,2.41,8.72,2.77,9.58,1.16,19.17-1.43,28.76-.81,4.74.32,9.46,1.46,13.94,2.96,2.53.84,5.27.22,7.84-.06,9.75-1.15,18.82-6,28.76-5.99,10.21-.33,19.63,4.41,29.63,5.61,3.17.24,6.41,1.29,9.59.61"/><path class="b" d="M8.42,225.62c2.93-.4,5.87-1.24,8.72-2.03,1.81,1.14,3.89,2.34,6.1,2.19,4.48-.58,7.74-4.28,11.33-6.69,1.73-1.45,4.07-1.93,6.1-2.8,1.11-.44,2.4-.98,3.49-1.46,1.07-.31,2.38-.28,3.49-.2,3.28.15,5.98,2.14,8.71,3.72,2.15,1.13,4.58,1.93,6.97,2.34,6.94,1.17,13.98-.17,20.92-.69,5.83-.49,11.84-.2,17.43,1.66.92.19,1.9.98,2.61,1.56,1.26.93,2.83,1.77,4.36,2.16,3.98.83,8.17.27,12.2.22,7.25-.35,14.52-1.03,21.79-1.09,9.88-.13,19.76.83,29.63,1,3.76-.07,7.58.45,11.33.22"/><path class="b" d="M8.42,222c2.05-.42,4.14-1.14,6.1-1.86,1.21.16,2.34,1.14,3.49,1.53,2.94,1.35,6.19.32,8.72-1.43,3.54-2.35,6.72-5.37,10.46-7.42,1.3-.78,2.93-1.19,4.36-1.66,1.91-.76,4.05-1.07,6.1-.93,1.76.1,3.62.53,5.23,1.26,1.39.7,2.9,1.55,4.36,2.1,4.68,1.87,9.86,1.98,14.82,1.54,8.66-.82,17.54-2.62,26.14-.41,2.77,2.16,5.37,4.81,8.71,6.11,2.73,1.13,5.79,1.31,8.71,1.31.77.2,1.85.22,2.61,0,1.09,0,2.4,0,3.49-.01,6.09-.04,12.21-.18,18.3-.25,9.29-.15,18.6.19,27.89.4,5.21.09,10.47-.03,15.69.04"/><path class="b" d="M8.42,218.24c4.29-1.28,2.72-1.91,6.97-.04,3.98,1.67,8.07-.14,11.33-2.51,3.15-2.19,6.19-4.72,9.59-6.53,1.83-1.11,4.05-1.5,6.1-2.01,2.51-.84,5.25-.96,7.84-.45,3.29.64,6.24,2.59,9.59,3.06,5.48,1.02,11.11.12,16.56-.65,5.46-.8,11.04-1.47,16.56-.99,5.63,3.94,11.12,9.04,18.3,9.61,1.39.15,2.96.14,4.36.04,1.11.31,2.3,1.06,3.49,1.1.88.01,1.92-.44,2.61-.96.4-.4,1.18-.99,1.74-1.09,2.89-.5,5.84-1.14,8.71-1.7,6-1.2,12.2-1.85,18.3-1.08,6.51.72,12.75,3,19.17,4.16,4.58.89,9.31.64,13.94.63"/><path class="b" d="M8.42,214.29l.87-.35c2.76.95,5.78,1.83,8.71,1.28,7.19-1.56,12.4-7.52,19.17-10.12,2.59-.38,5.27-.78,7.84-1.3.79-.16,1.83-.39,2.61-.58,1.11-.1,2.4.12,3.49.33,3.17.81,6.26,2.26,9.59,2.37,8.52.51,16.8-2.48,25.27-2.87,3.71,1.21,7.03,3.59,10.46,5.42,5.73,3.33,12.49,5.76,19.17,4.38,2.85,1.01,4.5,4.09,7.84,1.56,2.16-1.66,3.31-4.48,5.23-6.32,7.57-3.46,16.29-5.11,24.4-2.62,12.1,3.72,16.27,11.56,30.5,9.7"/><path class="b" d="M8.42,211.67c10.2,1.86,18.09-5.55,27.02-8.97,2.58-.15,5.26-.18,7.84-.4,1.71-.14,3.55-.38,5.23-.72.78-.16,1.83-.44,2.61-.58.44.09,1.31.3,1.74.43,1.66.55,3.48,1.09,5.23,1.28,3.18.38,6.46.02,9.59-.57,3.48-.65,6.98-1.55,10.46-2.21,1.77.02,3.56.91,5.23,1.43,10.2,3.87,21.08,10.11,32.24,6.5,1.31.44,2.37,1.8,3.49,2.57,3.27,2.7,5.52,1.31,7.84-1.63,1.82-2.33,3.46-5.07,5.23-7.43,1.13-1.39,2.39-3.26,4.36-3.36,3.13-.57,6.41-.65,9.59-.6,4.17.06,8.49.66,12.2,2.68,8.78,4.7,13.84,14.47,25.27,11.22"/><path class="b" d="M8.42,208.34c7.36-.39,14.14-3.56,20.92-6.15,1.38-.52,2.94-1.06,4.36-1.49,1.1-.1,2.39.12,3.49.2,5.5.57,11.25,1.06,16.56-.86,4.84,1.52,10.04.6,14.82-.71.78-.21,1.81-.54,2.61-.62.78.13,1.84.32,2.61.48,2.01.42,4.12.96,6.1,1.52,11.43,3.31,24.16,7.42,35.73,2.52,2.55,1.71,4.58,4.93,7.84,5.22,5.94-.94,9.07-12.99,15.69-14.63,3.14-.36,6.42-.06,9.59-.15,2.87.09,5.9-.3,8.72.42,6.65,2.01,10.13,8.82,15.69,12.52,3.28,2.25,6.93,2.31,10.46.57"/><path class="b" d="M8.42,203.92c5.29-.66,10.51-1.98,15.69-3.23,1.99-.48,4.09-.96,6.1-1.36,1.09-.16,2.38-.61,3.49-.36,5.43,1.14,10.95,2.75,16.56,2.28,2.06-.13,4.1-.9,6.1-1.34,1.4-.01,2.97.02,4.36-.17,4.32-.99,8.77-.07,13.07.61,10.87,2.02,22.1,4.06,33.12,2,1.73-.33,3.57-.83,5.23-1.43,1.1-.33,2.31-1.17,3.49-1.15,2.48,1.81,4.67,4.69,7.84,5.21,6.3-.22,10.19-13.54,18.3-14.63,2.86-.31,5.84-.08,8.71-.15,2.87.09,5.86-.2,8.72.16,6.6,2,9.28,9.6,14.82,13.21,3.36,2.28,6.49,1.49,9.59-.8"/><path class="b" d="M8.42,199.36c5.51-.47,11.04-1.17,16.56-1.58,2.86-.12,5.86-.56,8.71-.21,5.62,1.81,11.48,3.33,17.43,3.04,3.47-.26,6.96-1.04,10.46-.96,4.94-.04,9.9.58,14.82.97,5.2.43,10.47.64,15.69.61,7.7-.02,15.7-.53,22.66-4.12,2.62,1.35,4.8,3.96,7.84,4.41,3.81.1,6.3-3.63,8.71-6.07,2.08-2.3,4.31-4.73,6.97-6.36,3.36-2.11,7.48-2.3,11.33-2.29,3.18,0,6.5-.02,9.59.86,7.85,2.23,8.47,7.36,13.94,12.08,1.9,1.63,4.72,2.45,6.97,1.05,1.1-.15,2.39.27,3.49.34"/><path class="b" d="M8.42,195.5c8.42-.09,16.88.15,25.27.92,1.75.04,3.53.61,5.23.96,2.26.46,4.67.65,6.97.68,6.38.08,12.79-.13,19.17-.07,7.54.19,15.12-.05,22.66-.12,6.09-.1,12.23.55,18.3-.06,2.66-.29,5.37-.95,7.84-1.96,1.53.03,2.91,1.29,4.36,1.71,8.36,3.35,13.06-11.68,24.4-13.2,8.24-1.3,14.78.43,20.92,6.18,2.97,2.55,5.83,5.62,9.59,6.98,3.37,1.15,7.02.17,10.46-.1"/><path class="b" d="M8.42,192.76c9.3.45,18.58,1.63,27.89,1.82,3.18.07,6.42-.05,9.59-.32,2.29-.14,4.67-.59,6.97-.35,2.87.32,5.83.42,8.72.39,1.7.03,3.54-.18,5.23.06,2.58.3,5.28.31,7.84-.09,2.03-.23,4.07-1.01,6.1-1.18,6.08-.55,12.25-.58,18.3.23,4.89.57,9.88,1.76,14.82,1.03,3.06.71,6.26-.22,8.71-2.13,3.32-2.45,6.17-5.63,9.59-7.95,4.74-3.38,10.92-4.14,16.56-3.14,8.68,1.45,12.29,8.91,19.17,12.75,1.58.82,3.52.81,5.23.45,1.06.39,2.46.28,3.49-.19,1.24-.54,2.38-1.69,3.49-2.45,1.06-.32,2.39-.6,3.49-.75"/><path class="b" d="M8.42,190.6c6.66.34,13.37.69,20.04.44,1.7-.04,3.53-.23,5.23-.25,1.68.31,3.53.41,5.23.27,4.09-.35,8.08-1.85,12.2-1.89,1.41-.03,2.96.24,4.36.39,1.99.18,4.11.2,6.1.12,1.4-.06,2.96-.18,4.36-.33,2.01.31,4.08.98,6.1,1.29,6.95,1.36,13.95-.55,20.92-.73,3.48-.11,7.02.22,10.46.68,3.74.54,7.64.89,11.33-.15,4.28,1.34,7.17.68,10.46-2.39,8.11-7.79,10.94-13.49,23.53-10.09,3.73,1.13,6.86,3.75,9.59,6.44,2.41,2.28,4.71,5.07,7.84,6.37,1.04.4,2.42.44,3.49.1.76.12,1.84.32,2.61.16.84-.19,1.9-.73,2.61-1.21,3.96-2.77,3.01-4.41,8.71-4.98"/><path class="b" d="M8.42,187.62c6.98-.07,13.96-.67,20.92-1.12,8.42,2.71,12.18,0,20.04-1.58,3.16-.58,6.41.31,9.59.04,1.71-.08,3.54-.3,5.23-.59,1.1.23,2.4.59,3.49.87,3.7,1,7.51,1.88,11.33,2.2,4.62.4,9.31.16,13.94.18,5.81-.03,11.82.51,17.43-1.34,2.11-.57,4.05-1.91,6.1-2.59,2.51,1.42,4.92,3.48,7.84,3.93,3.4.32,6.19-2.28,8.71-4.2,2.41-1.93,4.97-3.91,7.84-5.09,4.18-1.79,9.12-1.45,13.07.78,1.83,1,3.63,2.38,5.23,3.71,1.59,1.51,3.25,3.27,5.23,4.26,6.45,3,9.26-6.43,19.17-7.02"/><path class="b" d="M8.42,182.59c3.46-.33,6.99-.63,10.46-.86,1.7-.11,3.53-.22,5.23-.3,1.12.21,2.4.64,3.49.96,10.1,3.43,12.34,1.32,21.79-1.32,2.54-.69,5.25-.3,7.84-.51,3.51-.67,7.02.5,10.46,1.16,7.98,1.9,16.22,2.48,24.4,2.27,10,.02,17.87-2.27,26.14-7.95,1.33.27,2.43,1.56,3.49,2.34,2.41,1.99,4.86,4.28,7.84,5.36,6.1,2.06,11.91-4.21,20.04-2.77,3.31.46,6.39,2.02,9.59,2.9,1.69.52,3.55.29,5.23-.14,5.8,2.58,10.22-7.16,19.17-7.23"/><path class="b" d="M8.42,178.09c6.42-2.25,12.81-1.91,19.17.32,3.38,1.06,6.86,2.39,10.46,2.33,3.63-.08,7.06-1.59,10.46-2.69,4.62-.24,9.34-.41,13.94.26,7.79,1.13,15.64,2.13,23.53,1.96,5.87-.05,11.85-.56,17.43-2.47,4.22-1.43,8.25-3.52,12.2-5.57,1.09-.6,2.4-1.34,3.49-1.95.73-.39,1.73-1.13,2.61-.97,5.29,3.34,9.53,8.59,15.69,10.44,4.5,1.29,9.31.96,13.94.93,2.02-.07,4.16-.29,6.1-.88.8-.25,1.87-.68,2.61-1.06.38-.3,1.26-.6,1.74-.56,8.11,7.49,11.47-4.15,21.79-4.2"/><path class="b" d="M8.42,174.48c8.71-3.36,15.09-2.31,23.53,1.01,3.04,1.09,6.32,2.1,9.59,1.68,2.06-.24,4.14-.96,6.1-1.6,2.57.36,5.25.4,7.84.37,9,.3,18,1.3,27.02,1,5.87-.11,11.83-.63,17.43-2.48,7.81-2.66,15.06-6.78,22.66-9.95.75-.29,1.8-.71,2.61-.72,1.78.73,3.59,1.76,5.23,2.77,8.93,5.98,17.5,9.67,27.89,4.4,1.04.21,1.87,1.4,2.61,2.06,1.28,1.23,2.79,2.56,4.36,3.41,5.89,3.2,10.26-4.37,18.3-4.25"/><path class="b" d="M8.42,170.71c10.01-4.42,16.47-3.35,26.14,1.03,2.74,1.13,5.71,2.21,8.71,2.04,1.11-.06,2.41-.31,3.49-.6,2,.14,4.09.43,6.1.43,4.92.05,9.89.17,14.82.18,7.25-.07,14.56.27,21.79-.49,4.49-.5,8.92-1.78,13.07-3.55,2.91-1.22,5.82-2.64,8.72-3.88,2.57-1.08,5.3-2.02,7.84-3.18,3.32-1.46,6.84-2.75,10.46-3.22,2.07.22,4.14,1.06,6.1,1.72,4.73,1.74,9.7,3.41,14.82,3.08,1.72.01,3.53-.68,5.23-.59,3.32,2.56,6.14,5.87,9.59,8.28,2.6,1.91,5.72,2.31,8.71,1.11,3.06-1.16,6.27-2.31,9.59-2.3"/><path class="b" d="M8.42,166.77c8.41-4.36,15.71-5.37,24.4-1.12,3.69,1.66,7.26,4.01,11.33,4.6,5.5.28,11.05-.23,16.56-.29,5.5-.19,11.06-.24,16.56.05,6.69.39,13.58.83,20.04-1.3,4.18-1.28,8.17-3.26,12.2-4.94,2.81-1.23,5.89-1.97,8.71-3.14,7.07-3.11,14.85-5.8,22.66-4.35,3.15.44,6.4.85,9.59.85,5.86,1.57,10.12,6.36,14.82,9.9,7.13,5.65,10.53,2.28,18.3,2.15"/><path class="b" d="M8.42,162.64c5.72-3.42,12.43-6.13,19.17-4.57,1.12.23,2.42.63,3.49,1.03,1.58.83,2.94,2.36,4.36,3.43,2.5,2.04,5.39,4.1,8.71,4.32,1.11.11,2.39-.25,3.49-.02,2.7.27,5.31-.85,7.84-1.6,5.2-.47,10.47-.82,15.69-.49,7.85.29,15.65,2.98,23.53,1.83,4.85-.72,9.39-2.81,13.94-4.53,3.08-1.28,6.47-1.81,9.59-2.97,3.49-1.32,6.91-3.03,10.46-4.21,3.35-1.14,6.93-1.79,10.46-1.97,8.61-.54,15.73.98,22.66,6.34,3.34,2.39,6.58,5.22,10.46,6.73,3.59,1.43,7.57.79,11.33.82"/><path class="b" d="M8.42,158.34c4.46-2.94,9.37-5.69,14.82-6,2.03-.02,4.57-.4,6.1,1.22,3.52,2.92,6.4,6.82,10.46,9.03,2.16,1.18,4.78.91,6.97-.03,3.28,1.02,5.47,1.21,8.72-.11,2.14-.85,4.18-2.18,6.1-3.41,2.58-.21,5.26-.25,7.84-.08,4.41.27,8.8,1.21,13.07,2.31,4.82,1.22,9.8,2.6,14.82,2.02,4.48-.48,8.75-2.16,13.07-3.32,2.85-.8,5.93-.98,8.72-2.04,6.4-2.33,12.36-6.1,19.17-7.21,11.44-1.9,19.41.47,28.76,7.07,5.76,3.89,9.42,5.66,16.56,5.48"/><path class="b" d="M8.42,153.92c5.04-3.79,10.95-6.94,17.43-6.75,3.41,1.96,6.02,5.14,8.72,7.94,1.74,1.79,3.67,3.81,6.1,4.61,1.41.44,3.05.11,4.36-.5.78-.35,1.76-1,2.61-1.15,5.08,3.55,9.4,1.35,13.94-1.75,1.1-.74,2.39-1.64,3.49-2.39.42-.4,1.17-.72,1.74-.68,3.8.02,7.65.58,11.33,1.51,6.13,1.49,12,4.23,18.3,5,4.67.6,9.36-.5,13.94-1.26,2.27-.42,4.7-.43,6.97-.86,2.37-.45,4.76-1.28,6.97-2.24,4.64-2.03,9.09-4.67,13.94-6.21,8.88-2.92,18.89-1.99,27.02,2.65,6.31,3.36,10.67,7.37,18.3,7.13"/><path class="b" d="M8.42,149.43c3.62-2.81,7.63-5.46,12.2-6.34,1.08-.22,2.39-.4,3.49-.47.45.17,1.32.56,1.74.79,5.29,2.89,8.23,8.64,13.07,12.06,3,2.15,6.14.29,8.72-1.58l.87.02c1.94,1.53,4.41,2.95,6.97,2.47,4.24-.96,7.63-4.07,11.33-6.19,1.07-.59,2.26-1.5,3.49-1.69,1.41.09,2.97.26,4.36.48,7.53,1.12,14.46,4.55,21.79,6.41,4.82,1.27,9.88,1.19,14.82.89,4.68-.11,9.5-.18,13.94-1.86,5.42-1.94,10.29-5.22,15.69-7.21,8.11-3.16,17.43-2.82,25.27.93,3.57,1.57,6.89,3.84,10.46,5.41,2.19.83,4.64,1.15,6.97,1.17"/><path class="b" d="M8.42,144.96c3.99-3.28,8.69-5.96,13.94-6.31,3.83.49,7.01,3.13,9.59,5.84,3.01,2.87,6.05,8.05,10.46,8.52,2.28-.05,4.28-1.59,6.1-2.81l.87-.03c4.84,4.45,8.09,2.92,13.07-.16,3.29-2.02,6.74-4.02,10.46-5.14,1.4-.19,2.97.18,4.36.35,6.88,1.06,13.37,3.78,20.04,5.64,5.65,1.63,11.58,2.09,17.43,2.04,4.35.05,8.84.46,13.07-.81,5.21-1.5,9.83-4.56,14.82-6.62,8-3.5,16.32-3.58,24.4-.28,3.29,1.29,6.36,3.27,9.59,4.69,2.18.83,4.64,1.13,6.97,1.12"/><path class="b" d="M8.42,140.61c9.71-7.81,17.83-7.43,26.14,2,2.75,2.69,5.41,6.7,9.59,6.93,2.2-.11,4.21-1.43,6.1-2.44,4.09,3.72,7.02,2.57,11.33.08,4.51-2.6,9.48-5.15,14.82-5.09,4.1.24,8.21,1,12.2,1.98,6.9,1.72,13.79,3.85,20.92,4.31,2.87.26,5.85,0,8.71.32,3.16.33,6.39,1.01,9.59.79,8.1-.65,14.77-6.22,22.66-7.79.83-.09,1.85.37,2.61.63,1.39.5,2.96,1.05,4.36,1.52,4.2,1.41,8.62,2.54,13.07,2.48,1.09,0,2.39-.22,3.49-.21.74.38,1.82.87,2.61,1.14,2.21.73,4.66.93,6.97.89"/><path class="b" d="M8.42,136.48c3.07-2.32,6.6-4.29,10.46-4.81,4.16-.35,8.64.39,12.2,2.67,5.13,3.12,8.35,8.92,13.94,11.31,2.26.87,4.74.19,6.97-.41,4.32,2.72,8.12-2.1,12.2-2.88,5.98-1.32,12.18-2.14,18.3-1.68,3.51,1.03,6.95,2.48,10.46,3.53,5.89,1.8,12.2,2.04,18.3,1.52,1.45-.16,3.02-.62,4.36-1.21,1.03-.54,2.39-.13,3.49-.03,2.01.3,4.1.78,6.1,1.12,6.06,1.33,11.8-.55,17.43-2.66,1.38-.46,2.92-1.08,4.36-1.33,1.09.35,2.4.78,3.49,1.14,4.78,1.63,9.75,2.94,14.82,3.14,4.34.2,8.74.19,13.07-.18,1.69.07,3.53.16,5.23.11"/><path class="b" d="M8.42,132.67c4.23-3.87,10.13-4.92,15.69-4.59,5.18-.02,10.02,1.73,13.94,5.12,3.64,2.9,6.9,6.63,11.33,8.36,1.36.45,2.93.89,4.36,1.05.78-.12,1.83-.03,2.61-.01,3.78.09,7.6-.38,11.33-.95,6.05-.96,12.16-1.94,18.3-2.02,2.83,1.04,5.7,2.29,8.71,2.72,3.74.62,7.58-.05,11.33-.18,2.89-.16,5.83.37,8.72.45,2.34,0,4.68-.76,6.97-1.13,1.39.24,2.96.53,4.36.74,5.24.94,10.58,0,15.69-1.24,1.42-.19,2.96.44,4.36.64,1.98.4,4.09.76,6.1.91,4.39.39,8.78-.58,13.07-1.33,2.88.38,5.77,1.41,8.71,1.41,3.17-.04,6.41-.57,9.59-.35"/><path class="b" d="M8.42,130.41c2.74-2.98,6.32-5.48,10.46-5.84,3.74-.33,7.58-.23,11.33-.11,6.4.1,10.8,3.98,14.82,8.53,2.06,2.16,4.12,4.76,6.97,5.9,2.57.97,4.69-1.04,6.97-1.74,9.77,3.02,18,1.83,27.89,1.12,1.1-.04,2.4-.23,3.49-.03,1.93.62,4.07.98,6.1.89,2.32-.09,4.69-.66,6.97-1.03,1.99.05,4.11.1,6.1.13,1.09.02,2.39.02,3.49.02,2.24.64,4.64,1.01,6.97.89,1.09-.04,2.4-.14,3.49-.23,1.99.09,4.1.31,6.1.24,2.9,0,5.82-.78,8.72-.34,3.75.31,7.6.61,11.33-.04,1.42-.24,2.98-.62,4.36-1.05,1.05-.49,2.39-.36,3.49-.15,4.32.62,8.67,1.84,13.07,1.53,2.36-.12,4.69-.97,6.97-1.51,1.96-.43,4.11-.5,6.1-.26"/><path class="b" d="M8.42,127.18c6.25-7.39,9.53-6.23,18.3-6.28,6.65-.24,10.87.5,15.69,5.44,2.07,2.04,4.02,4.42,6.1,6.45,2.11,2.11,4.88,3.82,7.84,2.29,1.78-.8,3.54-1.98,5.23-2.96.74-.42,1.74-1.07,2.61-1.14,4.98,2.18,10.25,3.88,15.69,4.39,8.98.74,18.02.03,27.02.22,7.54,0,15.12.15,22.66.09,3.76-.02,7.58.15,11.33-.21,2.03-.2,4.15-.6,6.1-1.19.77-.23,1.81-.64,2.61-.77.77.06,1.84.17,2.61.27,6.62.84,13.48,3.26,20.04.85,1.72-.54,3.48-1.44,5.23-1.92,1.94-.53,4.11-.6,6.1-.28"/><path class="b" d="M8.42,123.21c2.39-2.89,5.54-6.03,9.59-5.78,3.46,0,6.99,0,10.46,0,11.48-.82,13.73,4.79,20.92,11.98,3.63,3.57,6.27,3.47,10.46.84,3.02-1.82,6.13-3.77,9.59-4.63,2.62.98,5.17,2.44,7.84,3.31,3.63,1.32,7.49,2.13,11.33,2.53,1.69.18,3.53.31,5.23.38,1.99.3,4.1.54,6.1.18,6.67.06,13.39-.22,20.04-.14,6.65.38,13.46.55,20.04-.63,2.36-.47,4.77-1.25,6.97-2.22,3.53.2,7.03,1.27,10.46,2.08,14.61,4.08,15.95-4.59,26.14-3.08"/><path class="b" d="M8.42,118.77c1.83-2.1,4.06-4.43,6.97-4.78,4.05-.09,8.15,0,12.2-.03,2.58.06,5.27-.14,7.84.14,5.74.85,9.38,5.95,13.07,9.91,3.91,4.26,6.78,6.44,12.2,2.92,4.26-2.51,8.78-5.91,13.94-5.73,3.6,1.82,7.41,3.43,11.33,4.42,2.26.61,4.68.91,6.97,1.31,2.17.97,4.58,1.74,6.97,1.82,4.09.1,8.1-1.46,12.2-1.21,1.71.09,3.52.52,5.23.67,3.16.32,6.41.36,9.59.33,5.91-.04,11.96-.66,17.43-3.05,3.66-1.71,3-1.66,6.97-.43,3.19,1,6.34,2.35,9.59,3.17,9.92,2.68,13.88-5.39,22.66-3.95"/><path class="b" d="M8.42,114.14c3.27-3.48,4.98-3.83,9.59-3.64,3.46,0,6.99,0,10.46,0,2.87.08,5.86-.22,8.71.22,6.6,1.47,10.06,8.04,14.82,12.22,4.83,4.59,8.6,1.35,13.07-1.68,3.38-2.33,7.18-4.4,11.33-4.81,4.24,1.81,8.5,3.79,13.07,4.63,1.69.45,3.72.31,5.23,1.27,3.19,1.75,6.77,3.09,10.46,2.93,2.88-.1,5.83-.61,8.71-.44,6.37.39,12.82.46,19.17-.22,3.57-.42,7.15-1.33,10.46-2.73,1.11-.46,2.42-1.07,3.49-1.62.74-.38,1.76-1.03,2.61-1.09,8.59,3.2,14.05,9.01,23.53,4.25,3.22-1.61,6.8-2.95,10.46-2.41"/><path class="b" d="M8.42,109.55c1.22-1.08,2.73-2.13,4.36-2.43,2.28-.19,4.68-.04,6.97-.09,5.21,0,10.47,0,15.69,0,8.87-.33,12.82,9.17,19.17,13.64,4.04,3.01,8.16-.79,11.33-3.26,3.11-2.34,6.5-5.09,10.46-5.6,6.5,3.2,12.8,4.99,20.04,5.34,2.95,1.86,6.11,3.71,9.59,4.33,2.27.42,4.68.34,6.97.32,2.88,0,5.84.02,8.71,0,9.21.08,17.87-.78,26.14-5.17.77-.39,1.85-.94,2.61-1.35,0,0,.87-.47.87-.47,0,0,.87.02.87.02,1.73.92,3.55,2.03,5.23,3.05,5.81,3.6,9.89,5.41,16.56,2.37,2.99-1.33,6.28-2.34,9.59-2.09"/><path class="b" d="M8.42,105.2c2.11-1.62,4.43-1.75,6.97-1.63,2.58,0,5.26,0,7.84,0,3.17,0,6.42,0,9.59,0,2.6.03,5.37-.23,7.84.76,8.05,2.71,13.8,17.75,20.92,13.1,3.19-2.02,5.72-5.04,8.71-7.31,1.31-.89,2.74-2.24,4.36-2.44,5.74,2.71,11.89,4.93,18.3,5.12,1.4.06,2.96.04,4.36-.05.79-.05,1.84-.22,2.61,0,8.79,6.61,13.24,5.31,23.53,5.6,13.2.18,19.69-1.75,31.37-7.47,6,3.87,11.47,9.62,19.17,6.62,3.07-1.06,6.3-2.08,9.59-2.04"/><path class="b" d="M8.42,101.17c1.84-1.05,4.04-1.14,6.1-1.06,1.7,0,3.53,0,5.23,0,5.8.02,11.63-.05,17.43.03,10.86.04,16.64,17.23,23.53,14.39,4.54-2.37,7.08-7.4,11.33-10.17,10.21,5.14,19.3,6.8,30.5,3.89.91.28,1.85,1.16,2.61,1.69,1.59,1.16,3.4,2.3,5.23,3.03,2.18.9,4.64,1.14,6.97,1.37,2.58.25,5.25.43,7.84.51,7.02.24,14.15-.32,20.92-2.31,2.64-.76,5.31-1.75,7.84-2.81,1.41-.5,2.86-1.48,4.36-1.67,4.86,3.76,9.95,8.34,16.56,6.38,2.85-.68,5.78-1.48,8.71-1.64"/><path class="b" d="M8.42,97.44c1.61-.65,3.52-.62,5.23-.75,2.58-.1,5.26-.04,7.84-.05,5.21.07,10.48-.15,15.69.11,11.04.57,16.34,15.49,22.66,14.59,4.31-1.52,6.16-6.45,9.59-9.11,8.48,4.51,17.49,6.64,27.02,4.57,2.03-.41,4.14-1,6.1-1.65,1.1-.27,2.34-1.1,3.49-.79,2.1,1.78,4.4,3.57,6.97,4.61,5.01,1.74,10.42,2.2,15.69,2.41,11.28.39,22.63-1.34,33.12-5.57,9.04,7.58,11.18,5.72,21.79,4.15"/><path class="b" d="M8.42,95.06c5.97-1.53,12.16-2,18.3-1.89,3.76.03,7.62-.14,11.33.56,4.89.87,8.87,4.19,12.2,7.68,2.17,2.14,4.25,4.72,6.97,6.18,3.93,1.61,6.61-3.56,8.71-6.06l.87-.27c8.47,4.57,18.47,6.06,27.89,4.04,4.54-.92,8.86-2.8,13.07-4.68.98.19,1.85,1.21,2.61,1.78,1.03.81,2.31,1.68,3.49,2.26,6.5,3.02,13.87,3.22,20.92,3.28,10.23-.11,20.79-.24,30.5-3.81,6.98,5,10.33,4.06,18.3,2.76"/><path class="b" d="M8.42,94.06c5.65-1.84,11.44-3.59,17.43-3.79,4.65-.19,9.49-.18,13.94,1.32,6.09,1.98,10.08,7.32,14.82,11.28,3.9,3.33,6,.8,8.72-2.32,5.44,2.55,11.44,3.71,17.43,3.75,4.34.08,8.77.08,13.07-.56,3.29-.49,6.55-1.54,9.59-2.9,1.41-.63,2.97-1.39,4.36-2.08.75-.36,1.76-.96,2.61-1.02,7.79,7.66,19.56,6.53,29.63,6.74,9.59-.16,19.45.68,28.76-2.09,4.43,2.89,9.91,2.19,14.82,1.17"/><path class="b" d="M8.42,93.97c6.8-2.45,13.55-5.65,20.92-5.79,1.4-.05,2.96-.02,4.36.12,2.08.56,4.18,1.51,6.1,2.48,3.21,1.67,6.37,3.59,9.59,5.25,2.82,2.29,6.79,7.27,10.46,3.69,2.86.57,5.77,1.33,8.72,1.31,5.22.04,10.46-.83,15.69-.57,7.56.36,13.69,1.65,20.92-1.76,1.42-.62,2.97-1.38,4.36-2.07.75-.36,1.75-.97,2.61-.96,5.13,4.81,12.5,5.27,19.17,5.3,5.5.07,11.05,0,16.56-.03,5.8-.11,11.64.21,17.43.04,2.04.02,4.12-.64,6.1-.74,3.93,1.46,8.26.64,12.2-.35"/><path class="b" d="M8.42,94.01c6.18-1.89,11.9-5.28,18.3-6.47,1.69-.27,3.62-.79,5.23.06,5.46,2.17,10.23,5.83,15.69,8,2.49.97,5.23,1.49,7.84,1.96,1.08-.23,2.39.02,3.49,0,2.01.02,4.13-.23,6.1-.61,5.74-1.17,11.5-3.04,17.43-2.68,3.53.15,7.05,1,10.46,1.9,3.38.89,6.95,1.77,10.46,1.2,3.34-.51,6.49-2.01,9.59-3.27,4.62,3.02,8.55,3.47,13.94,3.45,4.34,0,8.73.02,13.07-.01,6.09-.03,12.21-.54,18.3-.45,4.64.04,9.31.75,13.94.29,3.84.65,7.73-.55,11.33-1.8"/><path class="b" d="M8.42,93.14c5.13-.93,9.9-3.24,14.82-4.88,1.95-.64,4.06-1.19,6.1-1.47,1.49.18,2.98,1.05,4.36,1.62,4.51,2.08,8.95,4.78,13.94,5.48,4.37.55,8.85-.02,13.07-1.22,4.68-1.36,9.17-3.49,13.94-4.53,9.74-2.29,16.53,1.16,25.27,4.64,4.99,1.94,8.92,1.43,13.94.06,2.66,1.39,5.8,1.35,8.72,1.15,2.58-.17,5.26-.34,7.84-.32,4.34.01,8.73.4,13.07.42,3.76.04,7.58-.24,11.33-.42,2.88-.14,5.84-.17,8.71.02,2.87.16,5.83.56,8.72.36,3.99-.44,7.73-2.19,11.33-3.87"/><path class="b" d="M8.42,90.62c6.9.09,13.32-2.86,20.04-3.9.79-.11,1.82-.22,2.61-.25.79.26,1.83.64,2.61.92,1.99.73,4.07,1.55,6.1,2.17,2.79.87,5.8,1.29,8.71.94,1.11.2,2.42.14,3.49-.23,2.19-.98,4.75-1.17,6.97-2.09,3.83-1.37,7.52-3.28,11.33-4.69,8.5-3.37,17.15-2.8,25.27,1.32,7.55,3.73,12.04,6.71,20.92,5.65,3.17-.57,6.36-1.54,9.59-1.79,4.95-.47,9.93.38,14.82,1.08,6.04.97,12.2.93,18.3.8,3.46-.07,7,.2,10.46,0,3.25-.15,6.44-1.54,8.71-3.89,1.65-1.02,3.52-1.99,5.23-2.92"/><path class="b" d="M8.42,86.74c6.42.94,12.78.02,19.17-.58,2.88-.21,5.85-.16,8.72.16,1.41.17,2.94.61,4.36.73,1.99.15,4.13.23,6.1-.16,1.7-.48,3.52-1.08,5.23-1.55,6.46-1.52,12.13-5.15,18.3-7.44,8.96-3.43,18.71-2.46,27.02,2.26,3.45,1.82,6.81,4,10.46,5.42,1.14.39,2.24,1.4,3.49,1.54.78.1,1.84-.07,2.61-.09,1.09.1,2.39.16,3.49.13,4.35-.09,8.37-2.12,12.2-3.99,4.4-.13,8.78.92,13.07,1.74,6,1.27,12.16,2.01,18.3,1.95,1.1-.09,2.4.08,3.49.28,1.43.13,3.03-.2,4.36-.72,2.4-.73,4.95-1.47,6.97-3.04.81-.61,1.86-1.55,2.61-2.23,1.67-1.02,3.5-2.13,5.23-3.05"/><path class="b" d="M8.42,82.45c3.46.33,6.98.88,10.46,1.04,4.63.25,9.31.21,13.94.17,1.4,0,2.96-.12,4.36-.14,1.4.17,2.96.22,4.36.09,2.68-.24,5.34-1.1,7.84-2.04,2.57-1.02,5.31-1.87,7.84-3,3.2-1.43,6.35-3.16,9.59-4.53,5.18-2.25,10.92-3.31,16.56-2.88,5.95.33,11.55,2.75,16.56,5.85,1.39.83,2.95,1.78,4.36,2.59,1.16.94,2.21,2.42,3.49,3.23,1.53,1.08,3.57.99,5.23.26,1.97.34,4.09.62,6.1.58,3.69-.09,7.18-1.66,10.46-3.2,1.67-.78,3.49-1.62,5.23-2.26,1.4-.11,2.97.21,4.36.38,4.93.73,9.85,1.85,14.82,2.39,1.09.16,2.45.09,3.49.52,1.89.95,3.97,1.93,6.1,2.15,3.56.32,6.73-1.9,9.59-3.75,3.46-2.17,6.87-4.59,10.46-6.54"/><path class="b" d="M8.42,79.11c1.4-.2,2.94-.52,4.36-.56,3.17.25,6.41.47,9.59.52,2,.05,4.1-.05,6.1-.09,3.15.55,6.37,1.27,9.59,1.26,6.25-.03,11.76-3.47,17.43-5.67,4.07-1.82,7.99-4.12,12.2-5.61,6.1-2.17,12.82-2.61,19.17-1.41,5.42,1,10.25,3.89,14.82,6.85,1.06.48,1.84,1.91,2.61,2.73,1.14,1.28,2.63,2.66,4.36,3.03,1.12.2,2.44-.12,3.49-.54,1.41-.05,2.95.39,4.36.48,6.33,1.01,11.89-2.71,17.43-5.14,1.92-.79,4.02-1.58,6.1-1.8,1.4.06,2.96.16,4.36.27,2.31.25,4.84.12,6.97,1.19,4.77,1.78,9.49,6.39,14.82,5.45,2.57-.57,4.85-2.2,6.97-3.68,3.45-2.33,6.82-4.95,10.46-6.99"/><path class="b" d="M8.42,75.36c5.47-.8,11.08-1.06,16.56-.21,5.74.81,11.69,2.62,17.43.84,3.02-.86,5.9-2.34,8.71-3.71,3.8-1.73,7.58-3.67,11.33-5.5,8.03-3.89,17.55-4.76,26.14-2.38,4.44,1.29,8.4,3.88,12.2,6.44,2,1.78,3.54,4.39,6.1,5.49,1.66.82,3.53.21,5.23-.08.77.15,1.84.29,2.61.35,9.44,1.52,15.14-5.26,23.53-7.65,14.73-4.16,21.14,9.93,29.63,7.49,5.85-2.3,10.29-7.29,15.69-10.42"/><path class="b" d="M8.42,71.27c5.49-.66,11.1-.68,16.56.27,5.44.86,11.06,2.64,16.56,1.19,3.37-.83,6.53-2.52,9.59-4.12,4.64-2.25,9.13-4.98,13.94-6.86,8.54-3.09,18.82-3.17,27.02,1,3.05,1.57,5.89,3.66,8.71,5.59,1.35,1.27,2.76,2.83,4.36,3.8,1.26.78,2.87,1.25,4.36,1.12,1.1-.23,2.38-.21,3.49-.05,12.28,1.42,17.48-8.77,28.76-10.15,13.41-1.69,19.24,11.43,27.02,10.08,5.74-1.77,9.85-6.89,14.82-10.07"/><path class="b" d="M8.42,67.81c2.01-.29,4.08-.99,6.1-1.16,3.79,0,7.62.45,11.33,1.2,4.86.92,9.83,2.55,14.82,1.76,3.72-.58,7.18-2.36,10.46-4.14,5.44-2.78,10.62-6.35,16.56-8.01,7.11-1.86,15.05-1.72,21.79,1.42,5,2.38,9.21,6.16,13.94,8.98,2.3,1.67,5.07,2.11,7.84,1.96,3.23-.03,6.6-.28,9.59-1.6,3.13-1.6,6.43-3.03,9.59-4.58,4.78-2.36,9.65-4.72,14.82-6.12,12.55.1,17.91,13.34,25.27,12.19,5.23-1.47,8.81-6.09,13.07-9.18"/><path class="b" d="M8.42,64.86c1.72-.37,3.55-.85,5.23-1.38,1.11-.3,2.33-.92,3.49-.99,4.41.3,8.79,1.24,13.07,2.32,5.09,1.35,10.62,2.41,15.69.38,8.7-3.22,15.87-10.21,25.27-11.56,21.13-3.09,24.8,12.63,37.47,12.73,5.57.01,11.37-.04,16.56-2.33,7.76-3.33,14.29-9.4,22.66-11.35,11.8.03,17.24,14.54,24.4,13.62,4.63-1.07,7.76-5.19,11.33-8.04"/><path class="b" d="M8.42,61.95c3.28-.67,6.53-1.8,9.59-3.14.76-.54,1.77-.3,2.61-.19,1.41.19,2.97.46,4.36.75,5.24,1.01,10.34,3.06,15.69,3.5,8.26.54,14.87-5.37,21.79-8.96,3.75-1.98,7.95-3.26,12.2-3.4,6.67-.42,13.05,2.28,18.3,6.23,3.27,2.26,6.5,5.02,10.46,5.94,1.69.4,3.54.17,5.23-.09,1.39.15,2.96.23,4.36.27,4.36.06,8.94.35,13.07-1.31,8.1-3.23,13.93-10.91,22.66-12.8,5.3-1.35,10.43,2.21,13.94,5.86,3,2.84,5.51,6.82,9.59,8.16,4.67.8,8.12-4.03,11.33-6.69"/><path class="b" d="M8.42,58.93c3.93-.63,7.74-2.05,11.33-3.74,1.59-1.06,3.51-.33,5.23-.09,4.71.84,9.3,2.4,13.94,3.55,4.32,1.18,9,1.03,13.07-.93,5.92-2.71,11.02-7.26,17.43-8.9,1.08-.29,2.38-.54,3.49-.67.83-.01,1.85.41,2.61.69,6.73,2.45,13.15,5.83,20.04,7.81,2.23,1.06,4.43,2.56,6.97,2.74,1.75.24,3.53-.47,5.23-.63,3.46.3,7,.09,10.46.4,2.88.27,5.92.53,8.72-.36,8.99-3.06,14.47-13.05,24.4-13.99,12.05-1.73,14.48,11.43,22.66,14.49,3.99.71,6.91-3.17,9.59-5.53"/><path class="b" d="M8.42,55.76c3.58-.37,7.13-1.43,10.46-2.77,1.1-.44,2.4-1,3.49-1.49.74-.38,1.78-.77,2.61-.52,4.43.57,8.8,1.76,13.07,3.05,5.55,1.74,11.09,3.11,16.56.27,4.17-1.98,7.9-4.94,12.2-6.64,6.28,2.32,12.56,4.86,19.17,6.08,2.56.49,5.24.84,7.84,1.05,1.09.09,2.39.17,3.49.22.78.23,1.82.61,2.61.78,2.03.48,4.15-.11,6.1-.66,1.7-.03,3.53-.09,5.23-.17,2.59-.14,5.28-.38,7.84.1,2.85.44,5.82,1.29,8.71.71,7.39-1.8,11.71-9.06,18.3-12.4,2.9-1.59,6.3-2.2,9.59-2.18,2.52-.19,5.06.73,6.97,2.37,4.25,3.09,8.71,12.55,13.94,12.41,2.87-.41,4.97-2.87,6.97-4.76"/><path class="b" d="M8.42,52.42c4.16-.24,8.27-1.28,12.2-2.6,1.41-.47,2.96-1.02,4.36-1.51,1.1-.31,2.32-1.06,3.49-.85,4.44.5,8.82,1.69,13.07,3.05,3.9,1.19,8.1,2.7,12.2,1.62,2.13-.56,4.2-1.64,6.1-2.72,2-1.19,2.16-1.47,4.36-.51,6.93,2.68,14.39,3.61,21.79,3.56,4.34.08,8.73-.04,13.07-.09,2.32.48,4.66-.5,6.97-.6,4.33-.34,8.72-1.81,13.07-1.03,2.61.45,5.2,1.46,7.84,1.73,10.36.66,15.01-14.03,28.76-14.55,1.7-.08,3.6-.39,5.23.24,4.26,1.81,6.72,6.18,9.59,9.59,4.85,6.12,7.74,6.25,13.07.46"/><path class="b" d="M8.42,48.97c6.2-.23,12.26-1.79,18.3-3.06,3.14-.61,6.38-1.27,9.59-1.32,1.42.28,2.97.67,4.36,1.07,4.84,1.23,9.69,4.14,14.82,3.13.8-.18,1.85-.53,2.61-.84,1.72.14,3.51.73,5.23.87,6.4.77,12.78-.95,19.17-.98,6.41-.22,12.77,1.36,19.17,1.16,3.22-.12,6.46-.82,9.59-1.55,2.25-.52,4.64-1.15,6.97-.87,4.94.47,9.88,3.94,14.82,1.65,6.36-2.98,10.75-9.19,17.43-11.65,3.83-1.39,8.16-2,12.2-1.4,5.13,3.22,7.32,9.58,12.2,13.06,2.89,2.07,5.9-.61,7.84-2.72l.87.36"/><path class="b" d="M8.42,45.38c7.85-.34,15.66-1.75,23.53-1.78,7.02-.16,13.95,1.36,20.92,1.91,8.19.76,15.58-3.68,23.53-4.7,5.29-.76,10.68.27,15.69,1.98,2.07.56,4.06,1.67,6.1,2.29,2.51.7,5.27.51,7.84.35,4.66-.5,9.19-2.95,13.94-1.97,2.92.49,5.77,1.7,8.72,2.04,6.92.61,11.86-5.45,17.43-8.56,5.38-3.35,12.16-4.66,18.3-2.85,1.08.15,1.99,1.3,2.61,2.1.78,1.01,1.86,2.42,2.61,3.45,1.87,2.29,3.79,5.49,6.97,5.92,1.23.03,2.43-.85,3.49-1.38,1.05.44,2.36.82,3.49,1.01"/><path class="b" d="M8.42,42.03c2.9-.07,5.85-.51,8.72-.94,2.88-.07,5.84-.08,8.71.01,7.25.12,14.53,1.49,21.79.8,1.41-.12,2.95-.49,4.36-.63,4.02,1.66,7.72.53,11.33-1.51,8.11-4.74,15.09-7.87,24.4-4.08,3.89,1.51,7.44,3.91,11.33,5.42,1.9.73,4.06,1.14,6.1.96,1.4.02,2.97.09,4.36-.12,2.59-.33,5.22-1.14,7.84-1.2,5.53-.11,11.14,2.69,16.56.49,3.69-1.33,7-3.64,10.46-5.46,5.24-2.9,11.56-4.45,17.43-2.67,2.12.61,4.24,1.66,6.1,2.83,2.3,1.97,3.79,5.38,6.97,6.12.78.12,1.83-.27,2.61-.22,1.97.48,4.13.19,6.1-.14"/><path class="b" d="M8.42,37.44c3.13.63,6.37,1.3,9.59,1.19,1.41-.04,2.97-.24,4.36-.51.77-.17,1.82-.4,2.61-.23,8.52.97,15.24,1.37,23.53-1.43,6.15,2.35,8.81,3.39,14.82-.19,9.07-5.75,16.24-9.58,27.02-5.22,5.86,2.32,11.02,6.7,17.43,7.45,3.75.45,7.58-.23,11.33-.2,3.75.11,7.6.72,11.33,0,6.97-1.32,12.97-5.83,20.04-6.83,7.56-1.29,14.96,2.28,20.92,6.63.69.41,1.81.65,2.61.46,3.32.45,6.44-1.37,9.59-2.11"/><path class="b" d="M8.42,32.57c2.59.27,5.26.59,7.84.95,1.68.55,3.46,1.26,5.23,1.5,2.3.46,4.68-.27,6.97.06,5.35.48,10.77-.52,15.69-2.65,4.42-.38,8.58,3.12,13.07,2.71,3.62-.43,6.66-2.82,9.59-4.81,3.22-2.27,6.65-4.47,10.46-5.6,3.92-1.16,8.22-1.32,12.2-.37,7.14,3.17,12.84,9.81,20.92,10.67,2.87.3,5.84.03,8.72.09,3.47.06,7.03.19,10.46-.41,5.38-.9,10.39-3.35,15.69-4.59,4.56-1.12,9.45-1.09,13.94.34,2.97.92,5.87,2.31,8.71,3.55.93.71,2.29,1.32,3.49,1.1,1.09.08,2.42.09,3.49-.22,2.9-.93,5.69-2.48,8.71-3"/><path class="b" d="M8.42,28.97c7.53.86,15.03,3.11,22.66,2.64,2.04-.17,4.16-.62,6.1-1.26,1.1-.33,2.32-.98,3.49-1.05,2.59-.32,5.31-.14,7.84.5,2.31.54,4.61,1.54,6.97,1.86,4.41.49,8.06-2.69,11.33-5.19,2.72-2.15,5.56-4.36,8.71-5.84,2.7-1.19,5.74-2.21,8.72-2.12,4.84,1.23,9.07,4.1,13.07,6.98,7.81,5.73,11.36,6.51,20.92,6.23,3.18.1,6.43-.21,9.59,0,.81-.07,1.88-.4,2.61-.75,3.52-.67,6.99-1.81,10.46-2.69,5.37-1.45,11.13-1.89,16.56-.45,2.03.5,4.13,1.23,6.1,1.95,1.37.69,2.76,1.87,4.36,1.96,1.4-.23,2.96.06,4.36-.03,1.79-.14,3.58-.96,5.23-1.61,1.91-.76,4.04-1.35,6.1-1.45"/><path class="b" d="M8.42,25.91c5.51.68,11.02,1.82,16.56,2.25,1.4.09,2.96.11,4.36,0,1.1.08,2.39.11,3.49-.04,2.91-.41,5.8-1.38,8.71-1.76,2.28-.32,4.71-.27,6.97.17,2.32.42,4.63,1.35,6.97,1.66,7.08.81,13.06-8.45,19.17-11.6,1.86-1.07,3.99-1.91,6.1-2.34,5.18.81,9.8,3.56,13.94,6.64,11.12,8.55,13.75,7.3,27.02,7.34,2.59-.02,5.28-.21,7.84-.63,1.06.33,2.35.74,3.49.62,2.88-.2,5.18-2.44,7.84-3.1,5.43-1.2,11.14-1.36,16.56-.03,2.66.81,4.91,3.18,7.84,3.15.43-.02,1.34-.21,1.74-.38,1.4.04,2.95.45,4.36.38,2.07,0,4.14-.76,6.1-1.32,1.94-.54,4.09-.8,6.1-.65"/><path class="b" d="M8.42,23.19c7.53.66,15.09,2.04,22.66,1.38,3.81.76,7.58-.85,11.33-1.3,2.28-.32,4.71-.28,6.97.15,2.01.35,4.07,1.06,6.1,1.31,7.13.69,12.06-7.51,17.43-11.16,1.8-1.2,3.87-2.74,6.1-2.82,3.74.63,7.32,2.25,10.46,4.36,5.29,3.44,10.09,8.38,16.56,9.41,3.44.53,7,.11,10.46.21,5.53.18,11.13.04,16.56-1.17,2.76,1.65,5.78,1.37,8.72.37,2.8-.87,5.75-1.72,8.71-1.58,2.36.08,4.74.75,6.97,1.46,2.21.7,4.71,1.43,6.97.55,1.02-.71,2.38-.13,3.49.03,1.38.24,2.95.41,4.36.39,1.71,0,3.54-.37,5.23-.59,1.99-.25,4.11-.22,6.1.01"/></svg>