<?xml version="1.0" encoding="UTF-8"?><svg id="a" xmlns="http://www.w3.org/2000/svg" width="1920" height="2400" viewBox="0 0 192 240"><defs><style>.b{fill:none;stroke:#fff;stroke-miterlimit:10;stroke-width:.3px;}.c{stroke-width:0px;}</style></defs><rect class="c" width="192" height="240"/><path class="b" d="M8.53,220.12c2.96,2.3,5.88,5.1,9.57,6.13,3.92.99,7.48-1.74,10.44-3.95,2.81-2.16,5.63-4.5,8.7-6.27,2.8,2.95,4.67,6.91,7.83,9.52,5.51,4.31,9.37-8.57,20.02-10.34,6.3,2.68,11.08,10.42,18.28,11.24,3.44.32,6.46-1.74,9.57-2.77,4.1,1.71,8.62,2.39,13.05,2.29,4.93.04,8.75-1.42,12.18-4.99,1.44.05,2.95.73,4.35,1.03,2.55.67,5.22,1.25,7.83,1.62,6.63.95,13.45.83,20.02-.5,3.23-.65,6.46-1.63,9.57-2.71,1.7-.49,3.45-1.44,5.22-1.61,5.82,7.45,9.4,10.2,18.28,4.87"/><path class="b" d="M8.53,215.99c7.22,5.81,11.31,10.36,20.02,3.57,1.72-1.25,3.52-2.69,5.22-3.95,1.06-.69,2.19-1.86,3.48-2.05,2.62,2.98,4.87,7.97,8.7,9.39,5.07.77,9.09-10.71,20.02-12.08,6.88,3,12.57,11.54,20.02,12.14,3.07.08,5.98-1.34,8.7-2.6,3.92,1.36,8,2.3,12.18,2.21,4.62.14,8.76-.94,12.18-4.18,3.44.49,6.84,1.51,10.44,1.73,6.09.58,12.33.2,18.28-1.28,5.68-1.38,11.05-3.84,16.54-5.78,1.97,1.47,3.45,3.78,5.22,5.48,4.06,4.39,8.45,5.73,13.93,2.88"/><path class="b" d="M8.53,212.58c13.78,11.48,15.58,7.12,28.72-1.6,2.61,2.72,4.72,7.81,8.7,8.57,2.12-.05,3.78-1.87,5.22-3.23,3.84-4.02,8.28-8.02,13.93-9.07,3.43-.99,11.67,6.8,14.8,8.8,5.94,4.35,9.94,4.33,16.54,1.39,1.43.28,2.92.97,4.35,1.24,2.25.5,4.66.68,6.96.71,4.24.15,8.78-.29,12.18-3.08,9.83,1.53,19.24,1.52,28.72-1.95,5.3-1.85,10.34-4.5,15.67-6.27,5.56,4.58,10.68,13.84,19.15,10.9"/><path class="b" d="M8.53,209.86c8.3,5.83,13.09,8.86,22.63,3.09,2.33-1.21,4.52-3,6.96-3.96,2.13,2.53,4.23,6.72,7.83,7.11,2.1-.19,3.75-1.94,5.22-3.29,3.91-3.9,8.38-7.75,13.93-8.94,3.82-1.09,12.31,6.06,15.67,8.22,6.17,4.34,10.28,5.05,17.41,2.45,3.29,1.32,6.93,1.58,10.44,1.55,2.58-.02,5.27.12,7.83-.27,1.48-.24,3.06-.83,4.35-1.59,1.7-.04,3.52.32,5.22.33,7.71.37,15.54-.83,22.63-3.94,5.23-2.2,10.23-5.09,15.67-6.77,2.06.73,3.62,2.78,5.22,4.2,3.77,3.73,8.08,8.68,13.93,7.96"/><path class="b" d="M8.53,207.67c12.52,7.53,18.07,5.65,30.46-.57,2.17,1.89,3.79,5.24,6.96,5.54,2.86-.22,4.88-2.81,6.96-4.52,2.65-2.29,5.51-4.56,8.7-6.03,1.35-.62,2.91-1.15,4.35-1.48,3.74.63,7.22,2.52,10.44,4.44,7.06,4.39,12.89,9.4,21.76,6.94,1.11-.44,2.39.07,3.48.3,1.38.27,2.95.37,4.35.35,2.58-.05,5.25-.25,7.83-.13,2.59.13,5.37.37,7.83-.62,4.33.03,8.74.22,13.05-.35,4.82-.54,9.55-1.98,13.93-4.05,5.47-2.53,10.69-5.8,16.54-7.42,6.56,3.37,10.29,11.95,18.28,12.55"/><path class="b" d="M8.53,205.79c11.5,5.03,20.76,3.95,32.2-.43,5.88,6.89,8.26,2.98,13.93-1.25,3.17-2.43,6.6-4.79,10.44-6.01,2.36.04,4.75.81,6.96,1.58,6.65,2.38,12.25,7.23,19.15,8.99,3.14.88,6.4.32,9.57.12,4.31,1.04,8.71-.48,13.05-.31,2.01.04,4.1.49,6.09.65,1.99.06,4.09-.23,6.09-.11,6.45.02,13.07-.34,19.15-2.7,6.87-2.56,12.95-7.01,20.02-9.09,1.29-.67,2.51.32,3.48,1.11,1.48,1.17,3.01,2.64,4.35,3.97,2.89,2.95,6.19,6.07,10.44,6.7"/><path class="b" d="M8.53,203.85c11.08,2.62,22.88,2.49,33.94-.19.9.25,1.79,1.13,2.61,1.53,2.79,1.48,5.6-.69,7.83-2.23,2.58-1.72,5.16-3.64,7.83-5.21,1.64-.97,3.25-1.89,5.22-1.59,9.49.22,17.18,6.68,26.11,8.95,1.96.46,4.08.65,6.09.59,1.7-.14,3.52-.16,5.22.01,2.32.09,4.65-.85,6.96-.74,2,.06,4.1.41,6.09.56,2.87.2,5.83.18,8.7.18,4.63-.02,9.33.12,13.93-.5,10.37-1.13,18.7-8.38,28.72-10.67,2.41.98,4.19,3.36,6.09,5.08,2.58,2.73,5.75,5.3,9.57,5.88"/><path class="b" d="M8.53,201.51c6.34.69,12.77.67,19.15.74,5.79-.01,11.68.11,17.41-.88,2.68,1.66,5.37.58,7.83-.9,2.96-1.62,5.78-3.66,8.7-5.35,3.09-.83,6.43-.84,9.57-.37,9.57,1.43,17.92,8.06,27.85,7.5,1.7-.17,3.52.02,5.22-.02,1.41-.09,2.93-.56,4.35-.51,3.18-.05,6.4.51,9.57.52,4.04.04,8.14-.06,12.18-.01,5.22.07,10.56.12,15.67-1.13,8.07-1.85,15.26-6.64,23.5-7.86,1.7.75,2.98,2.54,4.35,3.75,2.51,2.7,5.79,4.96,9.57,5.19"/><path class="b" d="M8.53,198.62c9.27.27,18.58-.02,27.85.12,3.46.03,6.99.17,10.44-.16,1.1.03,2.38.35,3.48.07,3.12-.78,5.99-2.53,8.7-4.19,5.72-2.56,12.35-2.37,18.28-.63,6.06,1.7,11.9,4.65,18.28,4.92,1.99.1,4.11-.05,6.09-.24,2.28.52,4.72.18,6.96-.37,3.17-.34,6.4.56,9.57.58,4.33.14,8.72-.03,13.05.01,5.21.03,10.49.21,15.67-.51,8.27-.98,16.01-4.8,24.37-5.2,4.24,3.47,6.05,6.2,12.18,5.71"/><path class="b" d="M8.53,195.3c8.7.12,17.42-.19,26.11-.27,4.92,0,9.88.36,14.8.27,3.11.12,6.02-1.5,8.7-2.88,2.49-.98,5.17-1.77,7.83-2.05,5.02-.59,10.05.62,14.8,2.16,5.3,1.77,10.89,3.47,16.54,2.54,1.4-.12,2.94-.65,4.35-.51,1.06.36,2.37.64,3.48.73,2.31.17,4.69-.33,6.96-.69,1.77-.39,3.46-.32,5.22.08,1.98.29,4.09.46,6.09.54,4.03.22,8.14.06,12.18.11,5.21,0,10.47.03,15.67-.36,6.39-.42,12.74-1.7,19.15-1.83.4,0,1.33,0,1.74,0,.45.18,1.35.68,1.74.98,2.85,2.02,6.46.93,9.57.23"/><path class="b" d="M8.53,191.86c9.86.14,19.74-.32,29.59-.25,3.46.04,6.98.36,10.44.21,1.74.01,3.55.09,5.22-.53,2.73-.73,5.04-2.69,7.83-3.21,4.27-1.08,8.82-.78,13.05.36,10.99,3.16,13.8,5.32,25.24.85,6.66,3.24,9.54,2.56,16.54,2.37,2.58.02,5.25.35,7.83.13,1.11-.09,2.41-.35,3.48-.64,1.09.13,2.39.25,3.48.33,11,.65,22.06.29,33.07.22,6.37-.23,12.82.62,19.15-.43"/><path class="b" d="M8.53,188.32c10.15-.03,20.31.14,30.46.07,3.17,0,6.42.13,9.57-.18,1.09.09,2.39.29,3.48.13,3.45-.39,6.57-2.18,9.57-3.8,4.08-.68,8.29.08,12.18,1.33,6.82,2.26,11.43,4.07,18.28.39,1.11-.56,2.41-1.29,3.48-1.91.34-.3,1.28-.65,1.74-.63,5.29,3.04,10.36,4.92,16.54,4.69,4.34-.04,8.84.27,13.06-1,1.44-.35,2.9-1.2,4.35-1.45,1.97.53,4.08.99,6.09,1.32,7.46,1.22,15.09,1.11,22.63,1.13,5.21-.03,10.46.02,15.67-.2,2.58-.07,5.25.26,7.83.18"/><path class="b" d="M8.53,184.17c11.89-.39,23.79,1.16,35.68.47,1.09-.05,2.39-.21,3.48-.25.76.24,1.82.46,2.61.53,3.98.25,7.83-1.4,11.31-3.14.43-.22,1.31-.66,1.74-.88.78-.06,1.84.09,2.61.23,2.35.43,4.72,1.25,6.96,2.06,9.51,3.83,12.47.85,20.02-4.55,4.85,2.04,9.56,4.73,14.8,5.69,5.14.81,10.51.82,15.67.11,3.97-.66,7.68-2.42,11.31-4.07,1.48.13,2.94,1.05,4.35,1.46,1.96.69,4.07,1.31,6.09,1.76,5.69,1.28,11.6,1.46,17.41,1.34,1.99.03,4.12-.29,6.09.01,1.12.11,2.37-.38,3.48-.38,1.69-.08,3.52-.26,5.22-.19,2,.08,4.1.42,6.09.55"/><path class="b" d="M8.53,181.35c3.14.71,5.89-1.41,8.7-2.34,7.83.36,15.65,1.44,23.5,1.29,1.4.03,2.96-.23,4.35-.06,1.06.4,2.36.79,3.48,1,5.73,1.03,11.32-1.44,16.54-3.52,5.91,1.52,11.42,6.21,17.41,2.04,1.16-.73,2.45-1.76,3.48-2.66.75-.6,1.59-1.73,2.61-1.84,5.03,1.25,9.8,3.47,14.8,4.8,4.51,1.24,9.27,1.44,13.93,1.35,8.72.13,14-3.63,21.76-6.35,3.19,1.29,6.25,3.16,9.57,4.19,3.62,1.25,7.49,1.96,11.31,2.16,2.87.19,5.83-.02,8.7.07,2.56-.39,5.25-.48,7.83-.6,2.3,0,4.67.43,6.96.59"/><path class="b" d="M8.53,175.82c3.25,2.54,6.68,2.69,10.44,1.27,3.38-1.17,6.84-2.5,10.44-2.75,14.94-.13,15.06,7.15,33.94,1.59,3.34-.97,2.96-1.06,6.09.53,6.2,3.19,9.27,1.07,13.93-3.27,6.51.52,12.75,2.71,19.15,3.86,4,.74,8.13.93,12.18.94,3.48.02,7.07-.09,10.44-1.04,6.23-1.72,11.78-5.7,18.28-6.51,8.39,5.28,16.07,8.06,26.11,7.57,2.58-.04,5.25-.32,7.83-.29,1.99.04,4.1.32,6.09.32"/><path class="b" d="M8.53,169.51c7.35,7.16,11.09,4.97,20.02,3.51,3.15-.44,6.43-.36,9.57.07,4.32.6,8.67,1.58,13.05,1.46,5.55-.08,11.05-1.14,16.54-1.85,3.21,1.88,6.39,2.75,9.57.31,1.4-1.37,2.58-1.11,4.35-1.03,2,.09,4.11.27,6.09.5,5.5.63,11.01,1.57,16.54,1.87,5.78.21,11.64.46,17.41-.09,8.85-1.15,16.07-8.23,25.24-7.91,3.2,1.61,6.23,3.78,9.57,5.13,3.56,1.65,7.48,2.36,11.31,3.03,2.87.03,5.83.07,8.7.02,2.29-.02,4.68.14,6.96-.1"/><path class="b" d="M8.53,163.84c9.53,9.48,13.27,7.06,25.24,6.62,4.64-.08,9.3.53,13.93.63,5.5.08,11.04-.36,16.54-.6,1.4-.06,2.95-.13,4.35-.17.76.29,1.8.66,2.61.76.81.08,1.86-.11,2.61-.42.45-.29,1.22-.52,1.74-.42,11.31.17,22.62,1.11,33.94.85,4.62-.16,9.36.41,13.93-.48,6.22-1.34,11.34-5.58,17.41-7.37,3.06-.94,6.41-1.24,9.57-.68,1.39.81,2.94,1.76,4.35,2.54,1.93,1.08,4.04,2.14,6.09,2.97,1.7.69,3.63,1.18,5.22,2.11,1.02.48,2.35.88,3.48.92,1.1.02,2.38-.47,3.48-.26,3.45.24,7.03.32,10.44-.32"/><path class="b" d="M8.53,159.32c11.09,10.52,16.64,7.98,30.46,8.25,6.37.17,12.78-.05,19.15-.09,6.67-.04,13.35.13,20.02.15,9.28.08,18.58-.18,27.85-.19,3.17,0,6.41.02,9.57.1,2.58.1,5.29.24,7.83-.33,7.17-1.67,12.74-7.36,20.02-8.79,3.12-.64,6.54-.69,9.57.37,1.08.61,2.39,1.33,3.48,1.92,1.94,1.07,4.08,2.06,6.09,2.99,1.9,1.27,3.92,2.69,6.09,3.48,1.04.37,2.38.55,3.48.37.78-.14,1.82-.58,2.61-.66,2.87.34,5.9.17,8.7-.55"/><path class="b" d="M8.53,156.02c4.08,3.33,8.66,6.38,13.93,7.35,3.7.73,7.55.75,11.31.79,4.33.02,8.72,0,13.05-.08,7.82-.2,15.69.3,23.5.03,11.3-.57,22.63-1.29,33.94-.63,3.75.18,7.56.34,11.31.51,3.81.36,7.82.36,11.31-1.4,6.07-2.94,11.39-7.82,18.28-8.77,2.57-.38,5.32-.33,7.83.38,2.87,1.39,5.79,2.88,8.7,4.17,3.06,2.01,5.95,4.7,9.57,5.65,2.06.52,4.22-.28,6.09-1.09,2.01-.12,4.15-.24,6.09-.81"/><path class="b" d="M8.53,153.87c3.91,2.73,8.33,4.88,13.05,5.72,8.03,1.38,16.26.81,24.37.81,4.63-.09,9.3.27,13.93.32,2,0,4.1-.09,6.09-.26.81-.12,1.81.27,2.61.26.84-.03,1.89-.4,2.61-.82,3.44-.56,6.97-1.03,10.44-1.38,9.9-1.14,19.76.68,29.59,1.62,3.45.16,6.99.79,10.44.47,4.26-.52,7.86-3.19,11.31-5.53,3.68-2.54,7.71-4.9,12.18-5.62,1.38-.23,2.95-.34,4.35-.28,2.37.56,4.69,1.73,6.96,2.6,2.27,1.02,4.79,1.81,6.96,3.01,1.97,1.44,3.99,3.08,6.09,4.34,4.99,3.27,8.77.42,13.93-.32"/><path class="b" d="M8.53,152.69c6.92,3.7,14.94,4.12,22.63,4.12,8.41-.07,16.85-.45,25.24.39,2.59.14,5.27.02,7.83-.38.83-.22,1.8.31,2.61.41,1.93.2,3.78-.91,5.22-2.07,8.27-2.37,16.8-3,25.24-1.17,4.91.95,9.81,2.22,14.8,2.73,2.87.2,5.83.69,8.7.47,3.94-.37,7.33-2.77,10.44-5.03,3.23-2.37,6.61-4.81,10.44-6.11,1.06-.34,2.36-.77,3.48-.77,2,.47,4.12,1.03,6.09,1.61,4.38,1.27,8.74,2.79,13.05,4.26.93.22,1.87,1.13,2.61,1.69,1.6,1.25,3.39,2.58,5.22,3.47,3.55,1.89,7.59.32,11.31-.07"/><path class="b" d="M8.53,151.84c4.5,1.3,9.27,1.53,13.93,1.61,5.5.08,11.04-.19,16.54-.46,3.46-.16,6.99-.22,10.44.06,3.17.23,6.39.87,9.57.73,1.1-.05,2.4-.2,3.48-.41.5-.2,1.27-.14,1.74.1,3.27,1.18,6.36-1.21,8.7-3.24,1.95-.69,4.07-1.26,6.09-1.68,6.37-1.39,12.99-.48,19.15,1.44,5.39,1.65,10.86,3.4,16.54,3.64,3.21.32,6.63.31,9.57-1.18,5-2.46,8.92-6.75,13.93-9.22,9.13.84,18.17,2.71,26.98,5.23.79.22,1.89.5,2.61.9.76.6,1.82,1.41,2.61,1.96,4.54,3.35,7.88,2.48,13.05,1.94"/><path class="b" d="M8.53,150.16c6.36.29,12.78.21,19.15.04,4.64-.16,9.3-.71,13.93-.97,2.88-.15,5.84-.09,8.7.28,2.58.31,5.22.91,7.83.83,1.42.05,2.95-.52,4.35-.38,2.36.9,4.94,0,6.96-1.31,1.46-.93,2.99-2.12,4.35-3.19,4.95-1.89,10.43-2.6,15.67-1.63,5.43.93,10.44,3.44,15.67,5.04,2.79.86,5.78,1.34,8.7,1.42,2.3.08,4.74.08,6.96-.6,2.17-.65,4.25-1.89,6.09-3.19,1.36-.79,2.64-2.57,4.35-2.39,9.87-.11,19.84-.36,29.59,1.43,2.89.5,5.85,1.16,8.7,1.85,1.16.45,2.34,1.42,3.48,1.92,3.23,1.67,6.99.78,10.44.57"/><path class="b" d="M8.53,146.45c6.38-.45,12.77.43,19.15.42,5.24,0,10.45-1.01,15.67-1.26,4.09-.28,8.16.56,12.18,1.16,1.09.12,2.39.13,3.48.02.8-.1,1.83-.38,2.61-.04,5.03.78,8.91-3.51,13.05-5.62,1.37-.46,2.93-.87,4.35-1.12,10.72-1.96,17.44,3.77,26.98,6.29,3.4.79,7,.67,10.44.26,1.42-.12,2.92-.9,4.35-.77,10.76.31,21.45-1.51,32.2-1.53,6.42-.05,12.82.85,19.15,1.87,1.39.26,2.9.84,4.35.74,2.28-.2,4.68-.05,6.96-.16"/><path class="b" d="M8.53,141.13c6.17-.35,12.19,1.46,18.28,2.1,4.35.5,8.75-.09,13.05-.65,3.44-.44,7-.6,10.44-.08,2.29.32,4.64.94,6.96.92,1.7-.22,3.53.15,5.22-.16,3.79-.84,6.96-3.37,10.44-4.96,5.27-1.97,11.17-2.21,16.54-.45,3.87,1.17,7.5,3.12,11.31,4.44,4.16,1.54,8.72,1.2,13.05.89,4.03-.3,8.14-.37,12.18-.21,5.5.21,11.03.52,16.54.45,8.11-.15,16.26-.3,24.37-.01,2.58,0,5.26.05,7.83-.07,2.82-.68,5.83-.61,8.7-.42"/><path class="b" d="M8.53,137.62c1.11-.42,2.4-.97,3.48-1.46.81-.18,1.82.05,2.61.2,4.09.78,8.09,2.21,12.18,3.01,5.47,1.24,11.05.14,16.54-.38,4.08-.44,8.16.39,12.18.91,5.54.62,10.54-2.41,15.67-4,6.72-2.4,13.48-1.87,20.02.83,3.15,1.11,6.16,3.04,9.57,3.2,3.6.27,7.11-.81,10.44-2.05,2.27-.82,4.78-1.3,6.96-2.37,7.3-.64,14.56,1.17,21.76,2.11,8.34,1.18,16.85,1.66,25.24.81,1.85.94,3.97,1.91,6.09,1.32,4.07-1.06,7.73-4.85,12.18-3.76"/><path class="b" d="M8.53,135.33c2.64-.7,5.25-1.82,7.83-2.7,10.73,3.29,13.74,4.81,25.24,3.18,2.85-.2,5.94-.65,8.7.26,1.37.38,2.95.53,4.35.32,1.09.11,2.39.14,3.48.05,3.58-.3,7.02-1.6,10.44-2.61,5.04-1.59,10.49-2.16,15.67-.89,1.1.25,2.4.61,3.48.96,1.36.73,2.9,1.52,4.35,2.03.75.26,1.81.51,2.61.56.78.04,1.83-.18,2.61-.03,3.01.28,6.02-.73,8.7-2.01,3.1-1.5,6.23-3.17,9.57-4.09,2.96-1.03,5.83-2.53,8.7-3.78.4-.2,1.31-.29,1.74-.13,1.09.17,2.4.4,3.48.62,2.59.52,5.26,1.16,7.83,1.76,6.26,1.48,12.69,2.69,19.15,2.58,2.77,1.81,5.2,4.8,8.7,5.09,6.85-.28,9.94-9.04,18.28-7.97"/><path class="b" d="M8.53,132.27c2.91-.6,5.83-1.53,8.7-2.28,1.45-.2,2.96.7,4.35,1.02,2.54.78,5.2,1.49,7.83,1.81,4.34.57,8.73-.17,13.06-.52,1.94.54,4.08.93,6.09.61.46-.07,1.3-.28,1.74-.42.79-.03,1.83.14,2.61.24,5.29.96,10.54-.65,15.67-1.79,3.98-.87,8.15-1.18,12.18-.55,1.71.25,3.54.67,5.22,1.09,1.37.56,2.84,1.42,4.35,1.52,2.06-.24,4.05.19,6.09-.15,7.02-1.23,12.2-7.08,19.15-8.59,6.2-2,12.53-4.25,19.15-3.91,2.58.57,5.24,1.23,7.83,1.78,2.25.34,4.25,1.8,6.09,3.05,3.51,2.4,6.46,5.85,10.44,7.48,8.42,2.62,12.72-13.64,24.37-11.27"/><path class="b" d="M8.53,128.74c2.59-.49,5.24-1.14,7.83-1.59,1.73-.14,3.52.8,5.22,1.09,2.83.7,5.79,1.22,8.7,1.31,2.29.07,4.68-.11,6.96-.33,1.1.12,2.38.35,3.48.34,1.12,0,2.42-.22,3.48-.55.76-.4,1.79-.32,2.61-.29,4.34.13,8.7,1.26,13.05.67,3.77-.41,7.53-1.28,11.31-1.57,3.47-.3,7.02-.05,10.44.54,1.69.34,3.59.49,5.22,1.08,2.56.19,5.32.26,7.83-.44,6.96-1.99,12.11-7.92,19.15-9.75,9.39-2.36,20.12-3.85,28.72,1.67,4.25,2.44,7.6,6.46,12.18,8.32,5.73,1.96,10.75-6.63,14.8-9.76,3.93-3.69,8.67-4.7,13.93-3.94"/><path class="b" d="M8.53,124.77c1.4-.28,2.94-.61,4.35-.83,1.4.28,2.95.61,4.35.89,3.42.7,6.95,1.23,10.44,1.27,2,.05,4.1-.18,6.09-.21,1.09.18,2.38.26,3.48.15,1.14-.09,2.36-.62,3.48-.78,3.17-.19,6.42-.1,9.57.26,2.57.29,5.24.67,7.83.57,4.06-.12,8.13-.82,12.18-.96,5.24-.31,10.46.69,15.67.98,10.48.67,17.43-8.92,26.98-11.38,7.14-1.47,14.93-1.8,21.76,1.11,4.17,1.76,7.72,4.75,11.31,7.43,2.44,1.8,5.65,3.81,8.7,2.28,6.37-3.38,9.48-11.27,16.54-13.62,1.92-.62,4.09-.6,6.09-.58,1.99,0,4.1,0,6.09,0"/><path class="b" d="M8.53,121.27c4.89.69,9.84,1.47,14.8,1.37,2.29-.03,4.68-.21,6.96-.41,1.4.17,2.93.55,4.35.36,1.15-.11,2.39-.66,3.48-.99,2.58-.14,5.25-.14,7.83.03,3.47.19,6.97.83,10.44.98,3.76.14,7.56-.24,11.31-.35,5.51-.3,11.04.49,16.54.35,10.6-.06,17.98-9.25,27.85-11.69,6.65-1.39,13.92-.87,20.02,2.25,4.4,2.17,8,5.69,12.18,8.2,9.34,5.86,14.62-11.09,23.5-13.18,1.95-.49,4.1-.26,6.09-.31,3.17,0,6.41,0,9.57,0"/><path class="b" d="M8.53,118.95c6.09.55,12.22.01,18.28-.68.46-.05,1.29-.13,1.74-.18.46.15,1.28.46,1.74.61,2.32.85,4.96.48,6.96-.97,7.54-.67,15.07,1.62,22.63,1.44,5.5-.07,11.04-.18,16.54-.01,2.59.11,5.26-.23,7.83-.02,1.32-.64,2.96-.81,4.35-1.25,2.06-.61,4.17-1.49,6.09-2.45,5.16-2.56,10.05-5.93,15.67-7.44,6.72-1.84,14.13-.61,20.02,3.06,3.89,2.26,7.22,5.57,11.31,7.48,8.87,3.92,14.59-12.82,23.5-14,6.06-.31,12.2-.03,18.28-.12"/><path class="b" d="M8.53,115.62c6.41-.31,12.74-1.96,19.15-2.22,3.76,2.41,6.86,3.54,10.44.08,4.94.07,9.87,1.29,14.8,1.75,4.6.54,9.3.48,13.93.48,4.63-.03,9.31.11,13.93-.32.82-.24,1.8.27,2.61.31.52-.1,1.36-.6,1.74-.95,0,0,.87-.19.87-.19,8.84-1.89,16.35-7.68,25.24-9.37,6.88-1.52,13.64,1.14,19.15,5.18,3,1.98,5.94,4.62,9.57,5.29,4.79.44,8.19-3.97,11.31-6.95,1.06-1.09,2.35-2.38,3.48-3.4,1.03-.58,2.41-.97,3.48-1.46,2.79-1.15,5.62-2.74,8.7-2.9,5.5-.01,11.04,0,16.54,0"/><path class="b" d="M8.53,111.12c5.46-1.16,10.93-2.67,16.54-2.99.79-.05,1.85-.15,2.61.12.76.62,1.82,1.47,2.61,2.06,4.54,3.27,5.67,2.07,9.57-.98,5.46,1.08,10.96,2.3,16.54,2.6,8.1.37,16.29.48,24.37-.32,2.84,1.61,2.86-.44,5.22-.85,4.45-.92,8.79-2.48,13.05-4.01,5.3-1.87,10.84-3.75,16.54-3.51,6.98.36,12.19,5.62,18.28,8.34,4.63,2.16,8.97-1.32,12.18-4.39,5.85,1.05,11.23-1.9,15.67-5.41,2.37-1.71,4.84-3.83,7.83-4.25,4.62-.09,9.3,0,13.93-.03"/><path class="b" d="M8.53,105.88c6.12-2.17,12.6-3.87,19.15-3.3,1.01.28,1.87,1.43,2.61,2.12,1.74,1.62,3.59,3.83,6.09,4.1,2.24.03,3.51-2.22,5.22-3.25,6.47,2.03,13.25,2.88,20.02,2.93,6.08.12,12.22.05,18.28-.51,1.69,1.05,2.91,1.08,4.35-.36.75-.3,1.82-.43,2.61-.56,7.01-1.15,13.85-3.31,20.89-4.28,4.36-.6,8.98-.73,13.05,1.18,6.38,2.69,11.49,7.67,18.28,2.63,4.93,2.29,11.43,2.37,16.54.6,4.25-1.64,7.34-5.26,10.44-8.43,2.13-2.11,4.61-4.71,7.83-4.71,3.16.07,6.43-.19,9.57.23"/><path class="b" d="M8.53,100.51c6.47-3.03,13.82-4.48,20.89-2.96,1.78.92,2.92,3.08,4.35,4.45,3.66,4.15,5.99,4.57,9.57.02,5.55,2.09,11.52,2.6,17.41,2.7,6.08.16,12.21.05,18.28-.31,3.55,2.36,3.57-.66,6.96-.54,6.67-.61,13.33-1.6,20.02-1.97,4.04-.14,8.25-.4,12.18.67,4.77,1.34,9.9,4.25,14.8,1.78,1.39.41,2.85,1.17,4.35.98,3.5-.41,6.86-2.07,10.44-1.89,3.85-.06,7.47,2.16,11.31,1.84,7.37-1.61,9.78-11.34,16.54-14.19.75-.37,1.82-.14,2.61,0,1.74.31,3.58.85,5.22,1.51"/><path class="b" d="M8.53,95.5c5.81-3.13,12.63-4.51,19.15-3.21,1.73.35,3.61.76,5.22,1.48,2.44,2.71,4.33,6.57,7.83,8.01,2.16.49,3.73-1.59,5.22-2.79,3.89,1.41,8.08,1.75,12.18,1.86,4.33.17,8.72.19,13.06.16,1.99-.02,4.1-.05,6.09-.09,1.15.14,2.27,1.09,3.48.94.86-.1,1.88-.66,2.61-1.09,2.87-.07,5.83-.15,8.7-.22,7.24-.16,14.53-.16,21.76.27,4.62.19,9.38,1.97,13.93.33,2.89,1.49,4.73.16,6.96-1.7,3.84-3.4,8.39-7.47,13.93-6.42,5.3.88,8.69,5.53,13.05,8.17,4.63,2.53,7.85-3.56,10.44-6.46,1.01-1.27,2.3-2.73,3.48-3.85.3-.39,1.17-1.04,1.74-1.05,2.05.81,4.15,1.86,6.09,2.91"/><path class="b" d="M8.53,91.21c7.69-4.69,17.01-5.02,25.24-1.52,1.15.5,2.64.93,3.48,1.92,3.06,3.84,6.2,9.89,11.31,4.75.51-.14,1.26-.1,1.74.06,1.09.22,2.38.39,3.48.46,4.33.23,8.72.32,13.05.4,1.99.03,4.1.06,6.09.09,1.45,0,3.05-.07,4.35.68,1.76.73,3.56.14,5.22-.51,2.58.06,5.25.13,7.83.21,7.82.24,15.67.6,23.5.66,1.99.01,4.11.03,6.09-.21,1.43-.12,3.07-.96,4.35.05,3.24.82,4.76-3.23,6.96-4.76,2.28-1.49,4.61-3.12,6.96-4.48,3.46-2.04,7.33-3.5,11.31-4.05.76-.11,1.84-.25,2.61-.24.81.27,1.88.76,2.61,1.21,2.4,1.5,4.35,3.82,6.09,6.01,2.12,2.33,4.98,7.7,8.7,6.14,3.16-1.81,5.23-5.14,7.83-7.59,1.98,1.09,4.07,2.27,6.09,3.27"/><path class="b" d="M8.53,87.88c7.23-4.84,16.32-5.59,24.37-2.41,2.05.76,4.14,1.75,6.09,2.72,1.16.62,2.71,1.1,3.48,2.24,2.08,2.69,5.07,5.91,8.7,3.85.45-.22,1.31-.69,1.74-.94,1.07-.31,2.39-.08,3.48-.08,4.92.18,9.88.31,14.8.51.83-.08,1.84.4,2.61.64,1.35.42,2.94.66,4.35.48.79-.11,1.85-.41,2.61-.66,1.09.06,2.39.13,3.48.19,3.16.17,6.41.34,9.57.44,5.21.18,10.47.1,15.67-.21,2.88-.21,5.87-.25,8.7-.86,2.61,1.82,4.11,1.32,6.09-.99.88-1.31,2.04-2.39,3.48-3.03,8.42-5.23,14.98-8.66,25.24-8.09,2.59.24,5.49.29,7.83,1.5,1.92,2.18,3.56,4.88,5.22,7.25,1.16,1.58,2.52,3.48,4.35,4.31,2.75.88,5.18-1.75,6.96-3.5,1.92.99,4.02,1.91,6.09,2.53"/><path class="b" d="M8.53,85.69c9.56-6.77,19.36-6.45,29.59-1.41,2.85,1.32,5.73,2.79,8.7,3.81,1.28.46,2.26,1.84,3.48,2.44,2.37,1.44,5.25.88,7.83.5,2.27-.32,4.68-.39,6.96-.2,2.87.22,5.81.75,8.7.64,1.73.04,3.51-.69,5.22-.65,5.78.41,11.61.81,17.41.61,3.76-.12,7.58-.49,11.31-.95,1.69-.21,3.53-.45,5.22-.66.87.14,1.83.86,2.61,1.22,1.43.76,3.2.38,4.35-.71.89-.8,1.89-2.11,2.61-3.06,1.42-.64,2.98-1.43,4.35-2.15,3.63-1.93,7.35-3.92,11.31-5.06,9.1-2.7,19.02-1.16,26.98,3.97.84.48,1.98,1.15,2.61,1.9.36.63,1.32,1.86,1.74,2.45,2.28,2.9,4.32,3.99,7.83,2.11,1.93.62,4.06.98,6.09.99"/><path class="b" d="M8.53,84.79c7.8-5.22,15.03-7.85,24.37-5.16,4.17,1.15,8.12,3.1,12.18,4.56,1.94.7,4.05,1.29,6.09,1.61,1.4.27,3.07.08,4.35.8,2.74,1.05,5.8,1.15,8.7,1.18,3.18.09,6.41-.36,9.57-.57,7.22.55,14.52,1.16,21.76.6,2.89-.21,5.84-.57,8.7-1.01,1.4-.15,2.95-.64,4.35-.49.76.36,1.82.83,2.61,1.13,1.98.84,4.41.81,6.09-.66.9-.73,1.93-1.94,2.61-2.87,1.97-.94,4.14-1.75,6.09-2.72,3.9-1.85,7.93-3.68,12.18-4.56,6.37-1.36,13.21-.8,19.15,1.93,3.96,1.77,7.55,4.37,11.31,6.5,2.18,1.17,4.58,2.28,6.96,2.93,2.6.07,5.3.07,7.83-.6"/><path class="b" d="M8.53,84.1c3.3-1.05,6.36-2.92,9.57-4.19,7.17-3.12,14.53-2.33,21.76.09,3.7,1.14,7.46,2.38,11.31,2.88,4.61.47,9.31.47,13.93.82,7.52.42,15.09,1.11,22.63.8,3.18-.13,6.43-.46,9.57-.93,1.09-.16,2.39-.37,3.48-.56.46-.16,1.3-.08,1.74.13,4.64,1.51,9.05,2.56,13.05-1.06,1.08-.89,2.02-2.52,3.48-2.79,7.13-2.57,14.01-6.46,21.76-6.77,8.12-.64,15.18,2.3,21.76,6.83,4.15,2.71,8.74,5.69,13.93,5.19.76-.18,1.84.09,2.61,0,1.55-.19,2.9-1.38,4.35-1.86"/><path class="b" d="M8.53,80.46c4.03,1.57,8.28-.11,12.18-1.26,3.37-1.03,6.91-1.77,10.44-1.81,6.48-.11,12.75,1.94,19.15,2.65,4.9.48,9.88.53,14.8.79,7.24.31,14.54.5,21.76-.23,2.59-.25,5.27-.62,7.83-1.06,2.84.68,5.76,1.55,8.7,1.57,4.75.12,8.77-2.82,12.18-5.79,6.53-1.57,12.49-5.08,19.15-6.2,8.06-1.58,16.67-.13,23.5,4.53,3.96,2.45,7.64,5.7,12.18,7.03,2.54.72,5.35.45,7.83-.36.79.09,1.82.57,2.61.71.76.13,1.86.06,2.61-.14"/><path class="b" d="M8.53,73.01c8.47,6.98,13.84,4.16,23.5,3.35,6.1-.49,12.21.46,18.28.88,9.55.5,19.18.66,28.72-.13,3.47-.3,7-.74,10.44-1.3,2.85.68,5.7,1.97,8.7,1.84,5.3-.09,9.87-3.34,13.93-6.43,5.12-.8,9.93-2.83,14.8-4.53,4.46-1.51,9.21-2.35,13.93-2.27,20.23-.25,23.75,19.27,39.17,11.28,1.15.26,2.34,1.06,3.48,1.37"/><path class="b" d="M8.53,67.44c.33-.52,1.1-1.41,1.74-1.54,7.58,6.52,12.5,8.94,22.63,8.21,7.53-.44,15.09.11,22.63.09,7.55-.03,15.13-.51,22.63-1.43,2-.24,4.1-.53,6.09-.83.78-.12,1.82-.35,2.61-.18.43.24,1.3.71,1.74.93,1.33.64,2.89,1.21,4.35,1.42,6.1.83,10.73-4.09,15.67-6.72,2.87-.62,5.88-1.01,8.7-1.83,4.35-1.32,8.59-3.22,13.05-4.18,6.26-1.31,12.95-1.53,19.15.2,7.43,1.98,12.42,8.4,19.15,11.7,4.8,2.28,9.9-.02,13.93-2.81l.87.4"/><path class="b" d="M8.53,66.01c1.42-1.6,2.93-3.47,4.35-5.07l.87-.11c11.13,9.11,15.38,10.13,29.59,9.9,13.72.29,27.37-1.52,40.91-3.53,8.18,7.02,12.87,2.04,20.02-3.11,5.22-1.09,10.65-1.55,15.67-3.46,7.32-2.87,13.83-4.49,21.76-4.18,11.69.08,15.82,4.7,24.37,11.35,6.21,4.76,11.87,3.28,17.41-1.64"/><path class="b" d="M8.53,64.38c2.78-2.36,5.18-5.31,7.83-7.81l.87.08c4.63,3.4,9.2,7.26,14.8,8.95,5.04,1.56,10.44,1.53,15.67,1.5,11.71-.14,23.19-3.24,34.81-4.11,6.5,6.52,10.07,4.77,16.54-.46.76-.59,1.74-1.45,2.61-1.88,1.09-.13,2.39-.3,3.48-.44,5.29-.74,10.71-1.41,15.67-3.5,7.08-2.99,13.19-4.21,20.89-4.01,11.88-.15,15.81,3.42,24.37,10.73,6.16,5.15,11.57,5.19,17.41-.49"/><path class="b" d="M8.53,62.41c4.3-2.26,7.6-6.05,11.31-9.09.58-.04,1.33.37,1.74.75,1.09.8,2.38,1.76,3.48,2.55,2.43,1.75,5.06,3.42,7.83,4.57,6.78,2.7,14.61,2.65,21.76,1.7,8.68-1.33,17.33-3.56,26.11-3.99,7.57,8.44,10.97,4.46,18.28-1.36,6.11-.45,12.39-.74,18.28-2.57,3.8-1.3,7.42-3.32,11.31-4.37,2.87-.06,5.83-.09,8.7-.07,4.04.02,8.14.11,12.18.29,1.99.09,4.1.2,6.09.31,1.16.47,2.44,1.25,3.48,1.95,7.73,5.31,15,16.68,24.37,6.87"/><path class="b" d="M8.53,59.96c5.73-1.18,10.26-5.23,14.8-8.66l.87-.05c8.42,6.53,14.43,9.11,25.24,8.62,4.72-.17,9.32-1.57,13.93-2.47,3.43-.73,6.96-1.37,10.44-1.82,1.69-.14,3.53-.59,5.22-.36,5.88,6.42,8.96,6.69,15.67,1.17,2.21-1.9,2.41-1.77,5.22-1.73,5.23-.07,10.57-.25,15.67-1.53,2.4-.68,4.74-1.84,6.96-2.94,1.42-.21,2.96.45,4.35.66,2.57.55,5.24,1.11,7.83,1.53,8.05,1.39,16.34,1.25,24.37-.25.77-.14,1.84-.34,2.61-.49,0,0,.87-.17.87-.17,0,0,.87.26.87.26,1.41,1.21,2.95,2.61,4.35,3.83,4.95,4.36,10.4,7.3,15.67,1.51"/><path class="b" d="M8.53,56.89c7.85.13,12.82-2.7,19.15-6.83,7.65,5.77,14.95,7.15,24.37,6.25,4.1-.58,8.13-1.83,12.18-2.67,2.85-.63,5.81-1.16,8.7-1.51,1.39-.04,3.08-.69,4.35.04,7.05,7.28,10.1,5.11,17.41-.14,8.35.35,17.59,1.46,25.24-2.57.5-.04,1.32.21,1.74.48,1.09.52,2.38,1.15,3.48,1.66,2.5,1.17,5.16,2.25,7.83,2.98,7.06,1.83,14.63,1.9,21.76.38,4.28-.96,8.31-2.88,12.18-4.88,4.59,4.07,10.98,10.33,16.54,4.1"/><path class="b" d="M8.53,53.11c8.19.25,15.16,1.32,22.63-3.08.9-.2,1.83.52,2.61.85,1.06.49,2.36.97,3.48,1.3,3.37.97,6.96,1.12,10.44,1.12,6.55.23,12.78-2.17,19.15-3.33,1.68-.32,3.52-.61,5.22-.81.77-.09,1.84-.26,2.61-.03,7.04,6.23,10,4.96,17.41.39,8.19.72,18.35,2.45,26.11-.78.53-.03,1.34.33,1.74.66,1.07.67,2.36,1.44,3.48,2.02,5.34,2.97,10.01,1.92,15.67.97,2.85-.42,5.84-.52,8.7-.19,10.41,1.61,12.8,2.57,21.76-4.18,2.67,2.04,5.34,4.51,8.7,5.31,1.98.41,3.87-.84,5.22-2.16"/><path class="b" d="M8.53,48.75c4.32-.56,8.75-.47,13.05.2,4.58.69,9.39,1.73,13.93.23,1.11.02,2.38.41,3.48.52,1.98.24,4.1.27,6.09.27,3.17-.05,6.43.15,9.57-.27,5.53-.84,10.96-2.5,16.54-3.06,7.3,4.38,9.88,4.3,17.41.37,5.77.69,11.58,1.56,17.41,1.71,3.76.05,7.7.07,11.31-1.1,2.13,1.15,4.44,2.55,6.96,2.33,5.19-.78,9.04-5.05,13.93-6.7,3.9-1.54,8.37-1.39,12.18.32,8.81,3.84,11.66,10.78,20.89,2.33l.87.13c1.81,1.48,3.88,2.94,6.09,3.74,1.92.66,3.89-.46,5.22-1.78"/><path class="b" d="M8.53,43.93c4.94-1.69,10.5-3.09,15.67-1.67,2.48,1.32,5.12,2.61,7.83,3.38,4.23,1.24,8.72.87,13.05.61,2.88-.13,5.83.13,8.7.25,4.39.05,8.73-1.06,13.05-1.67,1.46-.07,2.93.83,4.35,1.1,1.95.51,4.09.74,6.09.44,1.75-.25,3.58-.84,5.22-1.48,1.03-.59,2.36-.44,3.48-.29,7.22.84,14.48,1.76,21.76,1.72,2.88,0,5.86.02,8.7-.44,1.06.33,2.35.71,3.48.6,7.16-1.34,10.77-11.81,20.89-13.15,5.77-.95,11.52.97,15.67,5.07,2.61,2.34,4.88,5.29,7.83,7.22,3.12,2.16,6.3-.25,8.7-2.33,3.72,2.19,6.58,5.22,10.44,1.2"/><path class="b" d="M8.53,38.81c.77-.44,1.83-1.02,2.61-1.43,7.17.91,13.57,5.35,20.89,5.63,2.9.15,5.85-.34,8.7-.74,1.09-.15,2.38-.31,3.48-.39.79.19,1.82.54,2.61.72,2.54.61,5.25.46,7.83.22,2.58.29,5.26.27,7.83,0,1.7.05,3.52.23,5.22.22,2.62.02,5.31-.36,7.83-1.05,1.37-.34,2.96-.1,4.35-.1,5.22.22,10.45.86,15.67,1.06,4.62.2,9.3,0,13.93.02,3.75-.08,7.66.51,11.31-.57,7.88-2.72,12.55-11.15,20.89-13.02,2.24-.57,4.66-.76,6.96-.8,1.4.02,3.02-.14,4.35.35,5.89,2.2,8.59,8.56,13.05,12.55,2.69,2.48,5.19,1.61,7.83-.46.87.17,1.84.88,2.61,1.27,2.71,1.56,5.04.42,6.96-1.72"/><path class="b" d="M8.53,37.69c12.19.29,15.33,3.87,28.72.28,3.66-.8,7.56-1.76,11.31-1.07,2.97,1.46,6.3,2.05,9.57,2.26,5.46.87,11.04.16,16.54.15,8.7-.06,17.43.68,26.11-.11,3.16-.2,6.41-.46,9.57-.33.75.26,1.82.54,2.61.65,1.1.18,2.39-.07,3.48-.2,2.28.32,4.76.47,6.96-.33,5.69-2.18,9.53-7.42,14.8-10.34,4.67-2.75,10.36-3.32,15.67-2.63,1.74.26,3.64.68,5.22,1.48,2.28,2.24,4.14,5.09,6.09,7.61,1.56,1.89,3.41,4.4,6.09,4.48,1.17,0,2.34-.88,3.48-.92,3.74,2.05,6.29.25,8.7-2.7"/><path class="b" d="M8.53,36.07c5.21-.07,10.49.33,15.67-.36,5.04-.62,9.88-2.37,14.8-3.54,3.97-.95,8.24-1.28,12.18-.07,2.61.83,5.14,2.17,7.83,2.77,5.39,1.35,11.02,1.22,16.54,1.25,5.21,0,10.47.04,15.67-.3,4.64-.28,9.29-.96,13.93-1.29.81-.06,1.89-.21,2.61.27,1.35.55,2.9,1.07,4.35,1.26,1.43.18,3.05-.04,4.35-.67.8-.16,1.84.17,2.61.34,11.17,2.87,15.86-11.33,29.59-11.74,4.63-.25,9.27,1.28,13.05,3.91,1.47,1.07,3.28,2.14,4.35,3.65,1.57,1.92,3.43,4.34,6.09,4.58.77-.02,1.85-.29,2.61-.04,3.87.45,6.57-3.15,8.7-5.86"/><path class="b" d="M8.53,32.24c6.12.18,12.32-.24,18.28-1.69,6.05-1.39,12-3.8,18.28-3.9,2.33-.03,4.76.34,6.96,1.12,2.01.75,4.04,1.77,6.09,2.39,4.75,1.56,9.82,2.03,14.8,2.17,5.5.14,11.05.04,16.54-.44,4.64-.39,9.29-1.16,13.93-1.66.41-.04,1.32-.13,1.74-.16,1.12.36,2.38,1,3.48,1.42,3.02,1.25,6.72,1.86,9.57-.11,4.83,1.12,7.29,2.24,12.18-.07,5.85-2.87,11.44-7.29,18.28-7.16,10.28-.16,16.27,9.3,23.5,8.45,5.6.57,8.24-5.64,11.31-9.22"/><path class="b" d="M8.53,27.83c6.42.39,12.9-.36,19.15-1.83,6.29-1.41,12.62-3.56,19.15-3.18,4.6.14,8.68,2.58,13.05,3.69,5.65,1.53,11.58,1.91,17.41,1.91,7.58.05,15.15-.91,22.63-2.04,1.69-.21,3.52-.53,5.22-.56.41.2,1.32.59,1.74.78,3.25,1.39,6.82,3.04,10.44,2.45,1.18-.2,2.35-1.05,3.48-1.39,8.66,3.36,12.71.31,20.89-1.67,3.4-.78,7.03-.85,10.44-.08,5.7,1.11,11.66,5.21,17.41,2.13,6.75,3.81,10.42-3.17,13.93-7.82"/><path class="b" d="M8.53,23.74c6.7.49,13.45-.29,20.02-1.59,6.86-1.31,13.86-3.26,20.89-2.26,4.43.72,8.61,2.69,13.05,3.36,6.87,1.28,13.93,1.42,20.89,1.05,6.12-.32,12.21-1.29,18.28-2.1,1.39-.17,2.95-.38,4.35-.45.77.32,1.84.77,2.61,1.09,2.79,1.15,5.74,2.2,8.7,2.78,2.13.44,4.35-.36,6.09-1.56,7.88,2.69,13.84,1.28,21.76,1.21,8.26.08,14.33,2.07,21.76-3.11,7.46,7.8,11.76,1.14,16.54-5.18"/><path class="b" d="M8.53,20.21c10.24.79,20.38-1.26,30.46-2.71,4.31-.55,8.76-.77,13.06.03,8.53,2.13,17.31,3.31,26.11,3.14,6.69-.04,13.39-.72,20.02-1.59,3.16-.4,6.4-.81,9.57-1.03,1.46-.04,2.95.83,4.35,1.18,1.71.54,3.57,1.07,5.22,1.76,2.44,1.04,5.32,1.87,7.83.59.44-.21,1.33-.71,1.74-1,.78-.14,1.84.14,2.61.27,6.59,1.09,13.39,1.3,20.02.5,4.99-.61,9.74-2.63,13.93-5.36,2.35,1.77,4.27,4.32,6.96,5.64,5.86,2.68,9.83-4.38,13.05-8.12"/></svg>