<?xml version="1.0" encoding="UTF-8"?><svg id="a" xmlns="http://www.w3.org/2000/svg" width="1920" height="2400" viewBox="0 0 192 240"><defs><style>.b{fill:none;stroke:#fff;stroke-miterlimit:10;stroke-width:.3px;}.c{stroke-width:0px;}</style></defs><rect class="c" width="192" height="240"/><path class="b" d="M8.71,229.01c6.76,1.08,12.44-1.24,18.24-4.43,6.58-3.6,14.05-6.91,21.71-5.43,3.15.57,6.18,2.03,8.69,4.01,2.2,2.12,4.27,6.48,7.82,5.99.79-.14,1.82.15,2.61.07,1.57-.19,3.1-1.12,4.34-2.06,7.25-6.08,11.33-11.46,21.71-11.58,8.72-.39,15.32,3.21,22.58,7.48,3.85,2.31,7.51,5.7,12.16,6.16,4.13.19,7.77-2.32,11.29-4.14,1.37-.75,2.92-1.55,4.34-2.19,1.35-.36,2.95-.34,4.34-.42,5.32-.21,10.7.74,15.63,2.76,8.27,3.18,12.55,7.7,19.11-1.4"/><path class="b" d="M8.71,225.64c4.93.26,10,.35,14.76-1.11,9.51-2.83,18.25-9.99,28.66-8.57,7.32,1.03,6.66,4.26,11.29,8.52.92.79,2.22,1.52,3.47,1.24.44-.2,1.26-.42,1.74-.43,1.05.41,2.36.61,3.47.42,4.75-1.15,8.11-5.22,12.16-7.71,6.77-4.8,15.87-5.47,23.45-2.25,1.83.72,3.49,2.1,5.21,3.04,1.33.86,3.08,1.35,4.34,2.31,2.89,1.96,5.86,4.69,9.55,4.69,2.21-.11,4.28-1.31,6.08-2.51.76-.51,1.77-1.3,2.61-1.68.41-.04,1.32-.12,1.74-.16,5.47-.52,11.04-.9,16.5-.1,3.53.49,7.04,1.49,10.42,2.59,3.87,1.21,8.22,2.85,12.16,1.05,1.62-.76,3.13-2.11,4.34-3.41.72-.73,1.54-2.11,2.61-2.35"/><path class="b" d="M8.71,222.22c8.13-.13,16.65,1.11,24.32-2.3,7.08-2.82,13.76-7.93,21.71-7.64,1.59.14,3.52.4,4.34,1.94,1.65,2.11,3.29,4.51,5.21,6.38,1.33,1.35,3.42,2.3,5.21,1.24.35-.32,1.26-.68,1.74-.68,9.2,5.15,15.61-9.12,29.53-8.74,2.01.12,4.3.19,6.08,1.22,3.03,1.88,6.11,3.94,9.55,4.96,2.89,1.66,5.95,4.7,9.55,3.4,1.2-.43,2.47-1.26,3.47-2.04,2.26-.3,4.67-.25,6.95-.43,5.48-.32,11.05-.45,16.5.32,8.77,1.02,17.55,5.56,25.19-1.29,1.7.02,3.54.13,5.21-.25"/><path class="b" d="M8.71,218.74c4.31-.37,8.7-.64,13.03-.29,6.17.57,11.68,1.06,17.37-1.99,4.94-2.45,9.36-6.15,14.76-7.58,2-.41,3.96-.93,5.21,1.13,1.96,2.38,3.8,5.11,6.08,7.21,1.71,1.62,3.98,2.26,6.08.94.78-.42,1.66-1.35,2.61-1.32,2.81,1.79,6.34,2.73,9.55,1.49,4.76-1.71,8.96-4.89,13.9-6.18,2.22-.61,4.65-.87,6.95-.63,1.72.9,3.49,2.03,5.21,2.92,1.62.86,3.44,1.66,5.21,2.16.77.22,1.84.43,2.61.67.42.26,1.29.74,1.74.95,1.6.82,3.62.93,5.21.02.7-.55,1.78-.44,2.61-.43,7.23-.03,14.49-.63,21.71-.14,9.25.49,17.53,3.36,26.06-1.97,2.59,1.5,5.73,1.94,8.68,1.77"/><path class="b" d="M8.71,215.11c3.45-.66,6.9-1.76,10.42-2.02,12.15-.93,16.24,7.06,27.79-2.29,3.2-2.31,6.43-5.13,10.42-5.86,3.83,3.2,6.17,9.07,11.29,10.45,2.62.32,4.92-1.55,6.95-2.95l.87-.05c7.15,4.79,10.96,3.12,18.24.04,2.48-.99,5.14-1.84,7.82-2.05,1.52.2,2.93,1.35,4.34,1.91,2.18,1.04,4.56,1.92,6.95,2.33,1.7.28,3.54.39,5.21.79.45.04,1.31-.06,1.74-.19.77-.01,1.83.01,2.61.02,5.49.05,11.02-.14,16.5-.19,7.23-.22,14.5.76,21.71.16,2.03-.22,4.15-.67,6.08-1.35,1.44-.42,2.88-1.38,4.34-1.68,3.16,2.85,7.21,3.3,11.29,3.21"/><path class="b" d="M8.71,211.2c8.78-3.97,13.74-7.55,23.45-2.81,3.75,1.7,7.91,4.92,12.16,2.96,4.1-1.53,9.48-8.79,13.03-8.97,3.52,3.34,7.47,10.44,13.03,9.49,2.83-.67,5.29-2.51,7.82-3.85,1.56.24,2.9,1.61,4.34,2.21,5.58,3.09,10.01,1.41,15.63-.29,1.37-.29,2.94-.98,4.34-.64,2.2.98,4.57,1.88,6.95,2.3,5.73.84,11.6.12,17.37.34,6.94.08,13.91.05,20.84.06,7.34.06,14.99-.09,21.71-3.4l.87.14c4.33,4.66,7.55,3.05,13.03,2.44"/><path class="b" d="M8.71,206.7c4.96-3.59,9.91-8.53,16.5-8.26,6.29.05,10.92,4.83,15.63,8.35,6.61,5.22,10.71-3.08,15.63-6.41,1.37.62,2.38,2.21,3.47,3.2,1.96,1.96,4.17,4.14,6.95,4.81,4.97.79,9.2-3.49,13.9-4.48,7.29,4.82,10.63,5.55,19.11,3.51.8-.23,1.85-.17,2.61.17,1.07.33,2.36.64,3.47.79,2.28.32,4.68.08,6.95-.18,1.7.41,3.65.54,5.21-.38,4.32-.24,8.71.09,13.03.28,6.06.3,12.17.4,18.24.3,6.48-.08,13.12-.67,19.11-3.33,1.23.72,2.2,2.18,3.47,2.85,1.92,1.18,4.22.35,6.08-.54,1.65-.76,3.45-1.59,5.21-2.06"/><path class="b" d="M8.71,201.29c3.13-3.19,6.18-6.88,10.42-8.62,5.71-2.25,12.72-1.4,17.37,2.74,2.17,1.84,4.12,4.14,6.08,6.2,1.94,2.09,4.93,4.71,7.82,2.73,2.28-1.34,3.88-3.78,6.08-5.19,8.81,8.89,10.68,6.14,20.84,2.05,1.07-.38,2.36-.74,3.47-.95.53-.19,1.26-.08,1.74.18,2.96,1.83,6.09,3.74,9.55,4.4,2.87.6,5.82-.04,8.68-.3,1.65.43,3.5.64,5.21.51,1.41-.03,2.94-.63,4.34-.47,7.81,1.75,5.82-1.61,10.42-1.3,4.63.13,9.28.78,13.9,1.13,4.6.37,9.28.51,13.9.48,6.72-.03,13.64-.33,19.98-2.78,1.89,2.36,4.03,4.04,6.95,2.08,2.59-1.63,4.98-3.77,7.82-4.99"/><path class="b" d="M8.71,194.82c7.44-9.68,10.71-7.75,21.71-7.92,8.1-.4,11.7,7.78,16.5,12.8,3.32,3.45,5.77,1.58,8.69-1.14l.87-.03c6.72,5.75,10.6,2.13,17.37-.82,1.91-.81,4.02-1.48,6.08-1.75.92-.2,1.85.58,2.61.99,5.35,3.24,10.07,5.57,16.5,4.39.78-.22,1.83.05,2.61.18,1.08.15,2.39.14,3.47,0,1.1-.12,2.37-.53,3.47-.61,4.12.61,7.16,1.79,10.42-1.73,6.69.2,13.29,1.8,19.98,2.14,5.77.35,11.59.32,17.37.23,2.58-.06,5.26-.2,7.82-.58,1.72-.18,3.5-.82,5.21-.98,2.77,3.23,5.39.85,7.82-1.35,1.87-1.69,3.87-3.49,6.08-4.74"/><path class="b" d="M8.71,187.57c1.93-2.32,4.62-4.47,7.82-4.14,2.28,0,4.67,0,6.95,0,4.32.02,8.7-.04,13.03.03,8,.58,11.52,19.26,19.11,13.56,1.4.39,2.85,1.19,4.34,1.15,3.88-.14,7.09-2.81,10.42-4.5,1.07-.57,2.35-1.2,3.47-1.64.79-.36,1.81-.62,2.61-.15,4.72,1.74,8.94,4.89,13.9,5.98,2.86.64,5.86.15,8.68-.46,1.42.05,2.9.75,4.34.75,1.41.08,2.97-.14,4.34-.46,1.09-.22,2.38-.81,3.47-.34,1.08.29,2.36.67,3.47.79,1.59.19,3.21-.61,4.34-1.68.42-.26,1.25-.43,1.74-.3,1.09.09,2.39.24,3.47.39,2.58.36,5.23.81,7.82,1.12,8.36,1.11,16.8-.12,25.19.22,3.16.08,6.39.32,9.55.26,1.39-.03,2.96-.15,4.34-.36.37.2,1.31.39,1.74.35.88-.15,1.91-.77,2.61-1.32,2.83-1.21,5.48-2.99,7.82-4.99"/><path class="b" d="M8.71,183.66c4.16-3.17,8.8-3.88,13.9-3.68,3.45.05,6.98-.15,10.42.16,7.16.6,11.54,6.94,16.5,11.35,1.37,1.01,2.71,2.49,4.34,3.07,2.34.41,4.88.06,6.95-1.16,1.13-.62,2.42-1.47,3.47-2.21.37-.34,1.23-.78,1.74-.83,7.39-1.97,13.87,2.79,20.84,4.17,4.18.78,8.26-.98,12.16-2.27,5.43,3.23,8.88,2.57,14.76,1.74.84-.23,1.83.31,2.61.56,1.14.36,2.49-.01,3.47-.64,4.61.27,9.26,1.03,13.9.73,5.26-.29,10.42-1.65,15.63-2.34,4.3-.6,8.73-.65,13.03-.03,2,.28,4.1.7,6.08,1.13,1.42.3,3.03.56,4.34,1.22.43.1,1.31.06,1.74-.08.42.05,1.31.13,1.74.16,2.45.18,4.95-.66,6.95-2.05"/><path class="b" d="M8.71,183.6c6.27-5.12,13.77-7.12,21.71-5.31,6.4,1.39,10.76,6.65,15.63,10.6,3.7,2.77,5.28,2.81,9.55,1.48,2.67,1.6,5.86.63,8.68.04,2.54-.54,5.23-.81,7.82-.62,3.48.22,6.94,1.19,10.42,1.44,5.96.57,11.15-2.91,16.5-4.94,3.09,2.25,6.55,4.36,10.42,4.79,4.31.38,8.71.11,13.03.18,4.09-.02,8.24-.56,12.16-1.74,6.08-1.79,11.95-4.49,18.24-5.51,4.59-.78,9.37-.67,13.9.44.67.2,1.42,1.28,1.74,1.85.38.61,1.29,1.8,1.74,2.37,1.49,1.89,3.69,3.41,6.08,2.04.78-.39,1.7-1.23,2.61-1.31,1.32.73,2.84,1.52,4.34,1.79"/><path class="b" d="M8.71,183.74c11.57-7.6,19.31-7.82,30.4.74,6.75,5.06,9.53,3.96,15.63-1.22l.87.07c4.88,5.36,11.69,4.42,18.24,4.48,11.67.27,15.33-3.57,25.19-7.7.52.09,1.36.6,1.74.96,1.07.81,2.35,1.76,3.47,2.5,4.64,3.28,10.11,3.93,15.63,3.4,1.92,1.41,3.65.81,5.21-.75,2.96-.63,5.91-1.69,8.69-2.88,9.64-4.42,17.69-8.42,28.66-8.12,4.07,2.93,7.03,12.02,12.16,12.61,3.07-.26,5.39-2.81,7.82-4.46l.87.31"/><path class="b" d="M8.71,183.06c8.63-3.28,14.46-5.44,23.45-1.46,3.04,1.19,6.17,3.08,9.55,2.7,5.49-1.1,8.84-6.31,13.03-9.57,1,.27,1.85,1.41,2.61,2.06,1.54,1.41,3.35,2.79,5.21,3.75,5.59,2.82,12.27,2.64,18.24,1.22,6.7-1.6,12.52-5.63,19.11-7.55,1.54.69,2.93,2.02,4.34,2.94,2.6,1.83,5.51,3.52,8.69,4.08,1.38.24,2.95.25,4.34.19.78-.04,1.84-.23,2.61,0,1.88,2.04,4.37,4.24,6.95,1.88,1.27-1.1,2.49-2.7,3.47-4.06.61-.9,1.51-2.12,2.61-2.43,5.82-2.78,11.77-5.68,18.24-6.55,1.97-.24,4.09-.58,6.08-.42,6.58,1.57,9.17,8.87,13.9,12.98,4.12,3.93,8.52-.93,12.16-3.1"/><path class="b" d="M8.71,180.86c5.19-.38,10.4-1.63,15.63-1.09,7,.67,12.07,2.93,18.24-2.07,4.19-3.19,7.46-7.7,12.16-10.2,1.23.41,2.41,1.45,3.47,2.17,1.91,1.38,3.97,2.81,6.08,3.88,7.29,3.9,15.99,2.78,23.45-.06,3.16-1.13,6.34-2.44,9.55-3.4,1.66-.35,3.72-1.53,5.21-.21,5.53,3.63,9.6,6.19,16.5,4.95,3.46,2.92,6.49,9.13,11.29,4.18,7.76-8.41,9.61-13.57,22.58-12.37,8.78.59,12.08,8.47,18.24,13.2,4.19,3.03,8.49-1.49,12.16-3.34"/><path class="b" d="M8.71,177.05c4.02.47,8.12.38,12.16.4,4.05-.02,8.26.12,12.16-1.14,6.26-1.97,10.5-7.34,15.63-11.11,5.81-4.3,9.07-2.07,14.76.75,9.52,5.03,17.73,4.56,27.79,1.59,2.56-.7,5.21-1.45,7.82-1.98,1.68-.24,3.67-1.08,5.21,0,4.76,2.58,8.36,4.07,13.9,3.14,3.01,1.89,4.91,5.36,7.82,7.45,3.24,2.65,6.14.56,8.68-1.85,4.31-4.25,9.15-9.05,15.63-9.05,6.74-.36,11.9,4.28,16.5,8.58,6.96,6.57,9.44,2.58,16.5-.71"/><path class="b" d="M8.71,172.4c7.46.99,15.42,1.39,22.58-1.31,4.88-1.87,8.87-5.41,13.03-8.47,4.65-3.42,6.62-3.5,12.16-3.36,4.91-.3,9.34,2.26,13.9,3.67,4.72,1.59,9.8,2.22,14.76,1.76,4.38-.37,8.72-1.41,13.03-2.22,1.68-.32,3.51-.61,5.21-.8.78-.09,1.84-.25,2.61,0,2.47.98,5.13,1.9,7.82,1.89,3.41-.21,3.29-.59,6.08,1.73,3.23,2.61,5.8,6.25,9.55,8.16,4.57,2.02,8.51-2.55,12.16-4.66,6.55-4.48,13.31-4.54,19.98-.22,3.11,1.82,5.97,4.46,9.55,5.31,2.1.45,4.25-.48,6.08-1.42,1.95-.98,4.02-2.04,6.08-2.76"/><path class="b" d="M8.71,167.66c7.85.9,16.16.89,23.45-2.52,3.99-1.79,7.57-4.45,11.29-6.72,4.62-2.9,6.98-2.69,12.16-2.62,2.28.05,4.68-.15,6.95.2,5.33,1.02,10.28,3.61,15.63,4.6,4.55.95,9.3.94,13.9.35,8.07-.89,18.4-4.21,26.06-.62,6.03,2.75,11.11,11.32,18.24,10.04,3.32-.7,6.35-2.52,9.55-3.59,3.87-1.41,8.21-1.61,12.16-.4,5.39,1.39,10.81,5.96,16.5,3.3,2.81-1.29,5.64-2.82,8.68-3.48"/><path class="b" d="M8.71,163.24c13.51.95,21.35-.53,33-7.48,5.55-3.1,7.61-3.63,13.9-3.41,2.28.04,4.67-.1,6.95.1,6.35.97,11.97,4.59,18.24,5.89,5.39,1.3,11.05,1.17,16.5.34,5.75-.82,11.52-2.31,17.37-1.94,8.3.74,13.65,8.77,21.71,10.19,3.19.52,6.44-.35,9.55-.98,2.83-.59,5.79-1.01,8.68-.89,6.38.03,12.89,3.73,19.11.97,3.02-1.44,6.16-3.01,9.55-3.28"/><path class="b" d="M8.71,159.29c12.48.43,21.72-.07,33-6.02,5.75-2.86,9-4.8,15.63-4.37,6.11-.52,11.21,2.37,16.5,4.97,8.27,4.24,16.92,5.48,26.06,3.81,4.34-.7,8.66-1.84,13.03-2.36,7.27-1.15,13.57,3.53,19.98,6.16,3.81,1.64,8.02,2.34,12.16,2.13,4.03-.17,8.12-.52,12.16-.34,3.74.11,7.56.65,11.29.15,2.74-.32,5.36-1.51,7.82-2.7,2.15-.94,4.6-1.45,6.95-1.37"/><path class="b" d="M8.71,155.81c5.78,0,11.6.4,17.37-.04,5.35-.36,10.69-1.55,15.63-3.65,2.94-1.22,5.83-2.77,8.68-4.18,2.42-1.14,5.07-2.46,7.82-2.36,5.12.61,9.53,3.61,13.9,6.13,7.77,4.84,16.06,6.88,25.19,5.96,4.1-.35,8.18-1.27,12.16-2.26,3.11-.75,6.32-1.67,9.55-1.43,6.01.38,11.59,3,17.37,4.46,5.64,1.55,11.56,1.75,17.37,1.72,4.62-.03,9.32.15,13.9-.54,2.69-.41,5.38-1.33,7.82-2.52,2.41-1.08,5.2-1.44,7.82-1.05"/><path class="b" d="M8.71,152.7c12.72.26,26.2,3.11,38.21-2.49,4.23-1.73,7.77-5.04,12.16-6.37,6.81,2.64,12.22,8.03,19.11,10.53,4.96,1.88,10.38,2.12,15.63,2.11,6.44.06,12.91-.76,19.11-2.53,6.2-1.97,12.82-1.37,19.11-.15,11.11,2.27,22.56,3.33,33.87,2.14,2.64-.32,5.34-.92,7.82-1.89,2.94-1.45,6.36-1.97,9.55-1.12"/><path class="b" d="M8.71,150.91c1.1-.24,2.39-.6,3.47-.89,1.4.14,2.95.33,4.34.51,3.16.43,6.38.91,9.55,1.24,7.78.67,15.99,1.22,23.45-1.51,3.71-1.42,6.82-4.11,10.42-5.75,1.26-.07,2.41,1.05,3.47,1.6,1.69,1.05,3.49,2.23,5.21,3.23,3.91,2.38,8.41,3.97,13.03,3.93,4.62-.02,9.27-.59,13.9-.4,6.07.23,12.25.92,18.24-.48,7.95-2.01,16.22-1.92,24.32-1,4.07.25,8.07,1.44,12.16,1.51,5.51.34,11.03-.28,16.5-.82,2.95-.35,5.92-1.09,8.68-2.19,2.5-.86,5.31-.67,7.82.09"/><path class="b" d="M8.71,149.79c3.48-.08,7.02-.44,10.42-1.18,5.77.91,11.52,1.4,17.37,1.18,5.47-.26,11.11.6,16.5-.62,2.97-.87,5.81-2.34,8.69-3.47,13.1,7.33,15.63,2.82,28.66,1.54,7.07-.67,13.88,1.92,20.84,2.51,3.18.23,6.41-.28,9.55-.67,3.44-.44,6.96-.76,10.42-.83.77-.02,1.83-.04,2.61.01.76.28,1.82.63,2.61.84,1.94.52,4.07.77,6.08.7,2.59-.1,5.25-.58,7.82-.91,1.39.04,2.95.1,4.34.13,2.57.08,5.24,0,7.82,0,1.98.3,4.07.71,6.08.78,1.75.06,3.64-.33,5.21-1.1,1.16-.55,2.36-1.55,3.47-2.18,2.01-.25,4.15.12,6.08.7"/><path class="b" d="M8.71,145.58c6.33.68,12.75,1.06,19.11.62,4.92-.52,9.79-1.93,14.76-1.96,2.3-.03,4.7.26,6.95.77,2.27.49,4.61,1.28,6.95,1.35,2.01.06,4.12-.27,6.08-.67,2.55.47,5.22.97,7.82.47,3.58-.59,6.99-2.08,10.42-3.2,6.07-.32,12.18.64,18.24.92,2.28.14,4.67.16,6.95.11,3.63,1.22,7.43,2.34,11.29,2.37,3.17.05,6.4-.29,9.55-.49,1.68-.01,3.57-.47,5.21-.03,1.94.52,4.1.68,6.08.32.78-.14,1.84-.41,2.61-.61.76.01,1.84.04,2.61.06,8.67.2,17.41.75,26.06-.11.4-.05,1.33-.17,1.74-.23.41.12,1.33.41,1.74.58,2.7,1.13,5.66.19,7.82-1.64.79-.01,1.84.24,2.61.43"/><path class="b" d="M8.71,140.77c3.78.45,7.44,2.05,11.29,2.13,1.1.04,2.39-.05,3.47-.22,2.57.14,5.24.3,7.82.21,4.91-.13,9.85-.72,14.76-.83,4.64-.18,9.29.43,13.9.81,2.29.04,4.66-.04,6.95.03,2.88-.06,5.82-.39,8.68-.63,11.55-1.26,23.21.45,34.74-.8,1.44-.41,2.95.31,4.34.62,1.67.39,3.51.61,5.21.71,3.74.26,7.55-.08,11.29.04,1.09.12,2.39,0,3.47-.11,2.57-.02,5.24,0,7.82.03,6.07.07,12.17.14,18.24.11,4.92-.05,9.94.04,14.76-1.02,2.53.96,4.32,1.64,6.95.08l.87.07"/><path class="b" d="M8.71,138.25c5.24,1.37,9.73,1.93,14.76-.58,10.61,1.73,21.41,2.02,32.13,1.59,2.01-.12,4.12-.4,6.08-.86,1.11-.17,2.36-.95,3.47-.54,7.86,2.4,16.22,1.42,24.32,1.5,6.36-.07,12.76.08,19.11-.24,2.61-.08,5.25-.63,7.82-1.01,1.41-.22,2.95.23,4.34.41,2.58.27,5.24.61,7.82.92,1.4.16,2.95-.25,4.34-.21,6.65.08,13.33-.06,19.98-.05,7.51-.18,15.1.84,22.58-.12,1.07-.14,2.39-.24,3.47-.25,1.29.65,2.96.85,4.34.38"/><path class="b" d="M8.71,135.86c5.05.81,9.89-1.38,13.9-4.29,9.77,1.41,19.62,3.13,29.53,2.71,4.12-.12,8.24-.97,12.16-2.25.82-.45,1.84-.14,2.61.28,1.07.47,2.36.96,3.47,1.32,5.3,1.72,10.96,2.06,16.5,2.21,5.78.13,11.59.11,17.37.15,3.16,0,6.4.06,9.55-.24,3.44-.52,6.98-.29,10.42.11,2.29.23,4.73.19,6.95-.46,1.46-.35,2.9-1.26,4.34-1.63,2.28.03,4.67.03,6.95.06,4.91.05,9.87.23,14.76.69,4.33.38,8.69,1.06,13.03,1.38,2.87.26,5.82-.12,8.68-.2,1.4-.12,2.95.25,4.34.29"/><path class="b" d="M8.71,132.22c4.68-.86,8.53-3.96,12.16-6.84,13.3.45,26.65,4.37,39.95,2.01,2-.24,4.06-1.04,6.08-1.07,2.99,1.65,6.24,3.01,9.55,3.87,10.78,2.61,22.02,1.63,33,2.27,2.87.16,5.82,0,8.68-.05,2.57-.02,5.24.23,7.82.07,5.17-.24,9.69-3.12,13.9-5.88,5.24.09,10.52.8,15.63,1.94,4.93,1.08,9.79,2.71,14.76,3.58,4.29.85,8.71,0,13.03.41"/><path class="b" d="M8.71,126.8c3.51-1.76,6.51-4.47,9.55-6.91,10.15-.81,20.33.79,30.4,1.9,6.04.72,12.18.74,18.24.19,1.58-.34,2.97,1,4.34,1.56,1.92.95,4.03,1.79,6.08,2.41,5.33,1.61,10.97,2,16.5,2.2,4.03.14,8.13.18,12.16.38,3.45.14,6.96.56,10.42.56,8.67.12,13.18.17,20.84-4.61,2.82-1.68,5.69-3.5,8.69-4.85,2.34-.07,4.72.92,6.95,1.54,7.34,2.28,13.93,7.12,21.71,7.86,2.86.17,5.82-.13,8.69.06"/><path class="b" d="M8.71,120.22c2.07-1.43,4-3.28,6.08-4.68,2.56-.4,5.23-.73,7.82-.93,9.59-.81,19.23.33,28.66,2.04,4.31.73,8.68,1.45,13.03,1.93,1.98.24,4.09.33,6.08.53,1.07.6,2.36,1.25,3.47,1.75,9.79,4.43,20.8,3.42,31.27,3.89,8.93.43,18.35,2.32,26.92-1.1,4.78-1.92,9.11-4.93,13.9-6.85,2.47-.98,5.15-1.79,7.82-1.97,2.39,1.04,4.75,2.43,6.95,3.84,4.56,2.9,9.18,6.5,14.76,6.91,2.57.1,5.24.01,7.82.03"/><path class="b" d="M8.71,113.43c1-.62,2.36-.83,3.47-1.14,1.69-.43,3.51-.86,5.21-1.2,7.69-1.56,15.66-1.88,23.45-.95,8.64.96,16.88,3.87,25.19,6.28,2.54.68,5.21,1.25,7.82,1.58,2.79,1.06,5.72,2.02,8.69,2.44,6.6,1.02,13.33.69,19.98.73,4.34-.04,8.71.45,13.03.88,4.92.17,9.99.23,14.76-1.1,5.44-1.53,10.32-4.62,15.63-6.48,4.69-1.69,9.9-2.3,14.76-1.05,1.97.79,3.49,2.72,5.21,3.93,6.51,5.37,9.41,4.9,17.37,4.8"/><path class="b" d="M8.71,110.39c13.64-5.27,28.55-6.78,42.56-1.98,5.14,1.6,9.82,4.42,14.76,6.48,4.92,2.08,10.31,2.97,15.63,2.95,3.16.07,6.39.4,9.55.33,4.91,0,9.86-.31,14.76-.25,3.47,0,6.97.55,10.42.74,10.76.37,15.28-.61,25.19-4.66,11.12-4.37,18.46-3.48,28.66,2.59,1.6.88,3.39,1.78,5.21,2.07,2.57.2,5.24-.03,7.82.03"/><path class="b" d="M8.71,108.16c4.52-1.9,9.09-3.92,13.9-4.99,7.68-1.68,15.86-1.71,23.45.41,3.95,1.16,7.8,2.9,11.29,5.08,4.53,2.89,9.22,6.19,14.76,6.54,3.16.28,6.39-.14,9.55-.09,8.1.42,16.22-.17,24.32-.33,3.17-.06,6.4.29,9.55.48,4.03.05,8.13.13,12.16-.15,8.34-.52,15.96-4.85,24.32-5.17,3.84-.17,7.72.63,11.29,2,3.14,1.12,6.2,2.88,9.55,3.32,1.09.14,2.4-.24,3.47-.02,2.28.15,4.67-.07,6.95-.03"/><path class="b" d="M8.71,106.4c4.29-1.99,8.51-4.3,13.03-5.73,6.69-2.11,14-2.46,20.84-.89,4.68,1.11,9.05,3.41,13.03,6.08,3.27,2.21,6.41,5.18,10.42,5.87,1.4.21,2.98.02,4.34-.35,1.7.07,3.5.48,5.21.44,3.16.03,6.39-.19,9.55-.18,3.74-.01,7.55.18,11.29.19,5.78-.02,11.6-.4,17.37-.02,2.57.07,5.24-.07,7.82-.03,3.16.04,6.4.14,9.55-.15,4.98-.42,9.84-1.88,14.76-2.7,4-.68,8.17-.75,12.16.04,3.8.67,7.46,2.28,11.29,2.79,1.4.16,3.01,0,4.34-.49,3.1.85,6.38.43,9.55.43"/><path class="b" d="M8.71,104.88c5.21-2.4,10.1-5.65,15.63-7.32,6.16-1.88,12.97-2,19.11.07,4.42,1.5,8.39,4.18,12.16,6.87,2.72,1.97,5.96,4.79,9.55,3.55.79-.07,1.82.21,2.61.28,1.4.11,2.96-.03,4.34-.22,4.29-.69,8.66-1.42,13.03-1.18,4.64.19,9.26,1.06,13.9,1.31,4.61.25,9.28.07,13.9.13,2.87-.06,5.81-.37,8.68-.29,4.32.09,8.71.51,13.03.12,5.21-.41,10.39-1.63,15.63-1.76,3.48-.11,7.01.32,10.42.99,3.99.8,8.38,1.69,12.16-.34,3.15,1.91,6.95,1.08,10.42,1.12"/><path class="b" d="M8.71,103.21c5.11-1.98,9.66-5.27,14.76-7.26,10-4.02,19.27-2.03,27.79,4.2,2.52,1.59,4.95,3.69,7.82,4.61.79.2,1.84.17,2.61-.08.77.18,1.82.27,2.61.21,2.69-.27,5.27-1.42,7.82-2.23,10.54-3.77,17.63-.07,27.79,1.65,4.3.62,8.7.66,13.03.47,2.57-.22,5.23-.64,7.82-.6,6.36.12,12.74,1.22,19.11.5,5.47-.5,11.01-1.08,16.5-.5,5.2.49,10.86,1.76,15.63-1.08.89.1,1.8.89,2.61,1.21,2.75,1.06,5.82.42,8.68.47"/><path class="b" d="M8.71,100.99c5.3-1.27,9.8-4.62,14.76-6.72,6.26-2.87,13.7-3.25,19.98-.23,3.36,1.5,6.39,3.76,9.55,5.61,1.57.85,3.36,1.89,5.21,1.8,2.46.23,4.84-.68,6.95-1.86,3.56-1.93,7.24-3.98,11.29-4.65,9.79-1.84,18.35,4.79,27.79,5.88,1.38.18,2.95.27,4.34.33.41.18,1.29.33,1.74.3,2.55-.52,5.23-.87,7.82-1.2,4.05-.37,8.15.26,12.16.74,7.5,1.11,15.06-.18,22.58-.06,6.38.06,13.37,1.91,19.11-1.81.88.26,1.79,1.1,2.61,1.5,2.68,1.28,5.82.72,8.68.75"/><path class="b" d="M8.71,98c7.26-.42,13.01-5.81,19.98-7.38,5.91-1.62,12.19-.18,17.37,2.9,3.07,1.62,6.03,4,9.55,4.48,7.46.53,12.18-10.89,26.06-9.15,6.53.79,12.16,4.56,18.24,6.76,2.21.79,4.61,1.35,6.95,1.58,1.39.21,2.99-.02,4.34.36,1.69.9,3.79.27,5.21-.86.71-.38,1.81-.45,2.61-.5,4.66-.29,9.3.85,13.9,1.42,6.92,1.01,13.9-.27,20.84-.11,6.39.08,13.46,1.9,19.11-2.05,2.72,2.81,6.81,2.65,10.42,2.54"/><path class="b" d="M8.71,94.43c5.3.79,10.09-2.24,14.76-4.25,6.48-3.05,13.43-3.61,19.98-.42,2.93,1.3,5.68,3.17,8.69,4.28,3.81,1.55,6.7-.67,9.55-2.96,3.61-2.92,7.53-5.84,12.16-6.82,15.53-3.26,23.43,11.21,39.08,9.25,3.04,1.96,4.46.86,6.95-1.12,5.57-.06,10.96,1.86,16.5,2.11,5.51.31,11-.94,16.5-1.01,5.23-.28,10.42,1.28,15.63,1,1.12-.11,2.43-.42,3.47-.84.78-.31,1.75-.95,2.61-1.04,2.47,1.84,5.73,1.92,8.68,1.93"/><path class="b" d="M8.71,90.69c5.52,1.54,10.7-1.62,15.63-3.65,6.25-2.77,12.86-3.11,19.11-.16,3.17,1.33,6.15,3.42,9.55,4.12,7.16,1.42,11.52-9.79,23.45-10.57,14.54-1.11,22.74,12.83,38.21,9.3,1.71.95,3.37,2.07,5.21.67.38-.39,1.23-1.02,1.74-1.23,3.49.27,6.95,1.24,10.42,1.69,5.88.92,11.65-.98,17.37-2.04,3.41-.62,6.98-.81,10.42-.3,4.11.49,8.02,2.33,12.16,2.59,1.78.1,3.54-.69,5.21-1.18,1.89.77,4.06.97,6.08,1.04"/><path class="b" d="M8.71,86.8c9.21,3.51,16.1-5.65,26.92-4.47,5.29.37,9.81,3.47,14.76,5,1.67.59,3.53-.03,5.21.3,7.06-.3,11.99-10.38,25.19-8.88,8.33.91,15.23,6.59,23.45,7.93,4.02.72,8.18.56,12.16-.27,1.13.32,2.23,1.35,3.47,1.22.86-.14,1.8-.9,2.61-1.2,3.73.44,7.5,1.48,11.29,1.16,7.85-.75,14.63-5.95,22.58-6.26,6.34-.53,11.9,2.56,17.37,5.29,2.96,1.54,6.38.86,9.55.84"/><path class="b" d="M8.71,82.89c6.44,3.27,12.05-.64,18.24-2.31,3.37-.93,7.01-1.11,10.42-.32,4.46.85,8.45,3.69,13.03,3.94,1.54.1,2.91-.82,4.34-.91,4.06,2.31,8.41-.48,12.16-2.13,3.53-1.63,7.37-2.86,11.29-2.93,4.45-.13,8.84,1.11,13.03,2.5,3.12,1.03,6.32,2.09,9.55,2.65,4.27.72,8.71.84,13.03.48,1.68-.19,3.52-.52,5.21-.32.4.25,1.26.59,1.74.64.47.02,1.33-.2,1.74-.43.43-.02,1.31.04,1.74.1,12.24,2.25,17.97-6.23,28.66-9.33,4.81-1.39,10.14-1.29,14.76.71,1.47.47,2.48,2.07,3.47,3.15,3.44,4.09,6.78,5.73,12.16,5.72"/><path class="b" d="M8.71,80.74c.8.02,1.85-.23,2.61-.5,5.67,1.8,11.01-2.09,16.5-2.92,3.15-.59,6.48-.38,9.55.48,4.25,1.01,8.55,3.92,13.03,2.54,1.54-.41,2.88-1.65,4.34-2.2,6.22,4.7,12.32,1.63,19.11.6,4-.65,8.15-.59,12.16-.05,4.33.57,8.67,1.48,13.03,1.81,6.35.43,12.76.24,19.11.02,3.45.01,6.99.53,10.42-.05,8.32-1.55,13.92-8.9,21.71-11.74,2.47-.96,5.18-1.52,7.82-1.73,1.1-.03,2.48-.36,3.47.25,5.44,3.09,8.34,9.38,13.9,12.3,2.4,1.16,5.21,1.19,7.82,1.2"/><path class="b" d="M8.71,75.74c5.92,3.66,11.42-.39,17.37-1.56,3.13-.67,6.47-.51,9.55.35,8.81,2.73,11.58,5.22,19.11-2.2,3.61,2.48,7.76,4.34,12.16,4.74,6.05.54,12.17-.17,18.24.05,7.23.24,14.49.12,21.71-.01,4.03,0,8.12.24,12.16.17,1.99-.05,4.12.15,6.08-.23,10.82-1.23,16.8-13.53,27.79-14.18,10.43.63,13.6,9.7,21.71,13.63,2.73,1.12,5.82.73,8.69.63"/><path class="b" d="M8.71,72.72c1.56.82,3.45,1.28,5.21,1.06.79-.09,1.81-.43,2.61-.33,3.79,1.35,7.41-1.28,10.42-3.29,2.58-.51,5.34.09,7.82.85,2.6.81,5.14,2.12,7.82,2.67,5.11,1.02,8.91-3.57,12.16-6.8l.87-.11c13.45,7.63,28.54,6.5,43.43,6.38,3.45-.04,6.97,0,10.42.18,3.74.24,7.54.59,11.29.34,1.11-.16,2.38-.11,3.47.14,1.86.15,3.71-.75,5.21-1.77,7.76-5.9,12.54-11.97,23.45-10.19,4.21.71,7.98,3.05,11.29,5.65,3.2,2.4,6.36,5.41,10.42,6.18,2.87.43,5.82-.35,8.68-.56"/><path class="b" d="M8.71,69.92c3.57,1.42,6.32-.8,9.55-1.7,3.88,2.8,7.29,2.75,11.29.22,1.11-.57,2.22-1.71,3.47-1.9,2.94,1.02,5.66,2.85,8.68,3.64,6.11,1.3,9.88-5.8,13.9-9.2,6.53,2.1,13.21,3.87,19.98,4.99,8.04,1.36,16.2,1.96,24.32,2.66,3.45.29,6.97.62,10.42.96,4.02.46,8.14.78,12.16.11,2.82,1.05,5.99.78,8.68-.51,7.15-3.5,13.18-8.33,21.71-6.83,4.04.65,7.76,2.63,11.29,4.61,3.18,1.75,6.66,3.7,10.42,3.37,2.9-.31,5.79-1.25,8.68-1.6"/><path class="b" d="M8.71,66.92c3.94-.1,7-3.23,10.42-4.82l.87.07c5.65,4.89,9.17,6.73,15.63,1.74.94-.12,1.85.72,2.61,1.14,1.3.78,2.82,1.61,4.34,1.83,5.7.53,9.6-8.64,13.9-10.91,9.33,1,18.65,2.36,27.79,4.45,10.35,2.31,20.64,5.33,31.27,6.02,2.3.17,4.67-.24,6.95-.35,2.81.69,5.81,1.07,8.68.64,6.14-.95,11.95-3.81,18.24-3.86,3.82-.12,7.66.71,11.29,1.82,3.92,1.17,8.01,2.73,12.16,2.06,3.51-.64,6.88-2.14,10.42-2.68"/><path class="b" d="M8.71,62.95c4.32-2.08,7.43-6.58,12.16-7.8,3.37,2.73,6.26,6.5,10.42,8.06,2.49.83,5.02-.58,6.95-2.06.92.15,1.82,1.01,2.61,1.45,1.01.58,2.3,1.03,3.47.8,2.6-.69,4.4-3.1,6.08-5.03,1.87-2.28,3.83-4.73,6.08-6.65,1.05-.39,2.37-.29,3.47-.36,1.69-.05,3.52-.07,5.21-.05,7.05.08,14.14,1.11,20.84,3.33,7.27,2.32,14.2,5.87,21.71,7.4,3.12.62,6.37,1.03,9.55.97,1.4-.03,2.96-.16,4.34-.4,1.09.01,2.39.22,3.47.33,3.43.41,6.96.65,10.42.47,5.2-.25,10.42-1.03,15.63-.96,7.23-.13,14.6,2.19,21.71.17,3.46-1.06,6.85-2.61,10.42-3.29"/><path class="b" d="M8.71,57.49c3.67-3.45,7.09-7.8,12.16-9.17,1.69.36,3.04,1.98,4.34,3.04,2.33,2.16,4.49,4.71,6.95,6.73,3.61,2.8,4.98,2.19,8.68.21,4.1,3.82,6.9.24,9.55-3.04,1.61-2.04,3.31-4.28,5.21-6.06.74-.62,1.61-1.59,2.61-1.73,4.85-.83,9.85-1.1,14.76-.82,7.69.29,15.03,2.96,21.71,6.67,2.11,1.01,4.21,2.25,6.08,3.65,2.56,1.69,5.63,2.65,8.69,2.8,3.16.17,6.39-.08,9.55-.14,1.99-.19,4.08-.44,6.08-.32,9.25.36,18.53.84,27.79.7,5.78-.05,11.69.18,17.37-1.06,4.45-1,8.56-3.3,13.03-4.25"/><path class="b" d="M8.71,50.68c3.08-3.89,6.92-7.88,12.16-8.28,1.51.29,3.06,1.06,4.34,1.9,3.02,2.05,5.4,5.04,7.82,7.74,2.5,2.79,5.78,6.37,9.55,3.33,3.58,2.67,5.52.12,7.82-2.6,2.59-3.06,5.49-7.94,9.55-9.01,6.79-1.59,13.99-1.69,20.84-.45,4.12.73,7.29,3.93,10.42,6.48,6.48,5.67,9.5,7.35,18.24,6.68,5.2.07,10.49.28,15.63-.7,5.18-.46,10.44-.49,15.63-.34,9.82.18,19.82,1.09,29.53-.79,4.47-.95,8.59-3.17,13.03-4.26"/><path class="b" d="M8.71,43.29c4.44-5.55,7.43-4.97,13.9-4.9,10.54-.29,14.77,17.95,21.71,14.14.51,0,1.31.26,1.74.5,1.78.39,3.24-1.19,4.34-2.36,3.92-4.68,7.35-10,13.9-10.93,4.58-1.05,9.53-.71,13.9,1.04,3.55,1.45,6.62,3.95,9.55,6.37,6.1,5.08,9.3,7.09,17.37,5.29,2.27.37,4.64.76,6.95.68,4.61-.12,9.31.28,13.9-.37,2.95-.35,5.69-1.89,8.68-1.97,4.6-.48,9.28-.43,13.9-.2,7.79.34,15.75,1.3,23.45-.36,3.83-.95,7.49-2.68,11.29-3.75"/><path class="b" d="M8.71,36.54c1.76-1.66,3.81-1.71,6.08-1.62,2.28,0,4.67,0,6.95,0,3.55.06,7.5-.58,10.42,1.93,2.76,2.2,4.8,5.32,6.95,8.08,1.87,2.38,4.38,5.72,7.82,4.4,5.25,2.39,8.55-12.74,21.71-12.08,9.82.17,14.7,7.46,22.58,11.42,3.31,1.64,7.07.85,10.42-.22,5.25,2.3,9.55.41,14.76.93,1.68.39,3.52.27,5.21.13,1.09.07,2.38.13,3.47.15,5.14.18,10.19-1.33,14.76-3.58,1.26-.79,2.92-.63,4.34-.64,2.58.03,5.25.25,7.82.52,6.89.71,13.96,1.97,20.84.57,3.54-.85,6.97-2.34,10.42-3.47"/><path class="b" d="M8.71,31.53c4.9-.16,9.86-.01,14.76-.06,1.69,0,3.52,0,5.21,0,1.41-.01,3.02-.07,4.34.51,5.5,2.72,7.61,9.25,12.16,13.07.69.53,1.72,1.08,2.61,1.15.78-.1,1.83.05,2.61-.09,2.07-.78,3.62-2.71,5.21-4.16,2.65-2.06,5.38-4.59,8.68-5.5,9.32-2.38,15.9,4.66,23.45,8.53,3.96,1.99,7.31,1.15,11.29-.13,5.04,2.74,9.59.41,14.76-.01,2.16.95,4.57,1.65,6.95,1.27,1.11-.09,2.36-.66,3.47-.5,7.67,1.28,13.6.42,20.84-2.28,5.79-2.07,4.33-2.01,10.42-.89,5.98,1.06,12.2,2.24,18.24,1.02,2.65-.57,5.23-1.69,7.82-2.47.43.12,1.3.35,1.74.46"/><path class="b" d="M8.71,28.14c4.31-.32,8.71-.04,13.03-.13,4.32.09,8.72-.19,13.03.12,5.94,1.83,8.39,9.42,13.03,13.17,2.68,2.42,5.93,1.26,8.68-.35,2.93-1.71,5.69-3.87,8.69-5.47,3.84-1.56,8.57.09,12.16,1.72,5.87,2.83,11.38,7.21,18.24,4.89,1.42-.68,2.92.37,4.34.53,2.97.49,5.92-.67,8.68-1.6.76-.25,1.79-.65,2.61-.55.43.16,1.31.52,1.74.71,1.6.77,3.4,1.53,5.21,1.57,2.38.05,4.75-.8,6.95-1.62,2.89.26,5.78,1.15,8.69,1.39,7.93,1.03,15.69-1.52,23.45-2.69,4.56.92,9.22,1.8,13.9,1.53,2.03-.03,4.09-.67,6.08-.97,1.98.34,4.09.68,6.08.95"/><path class="b" d="M8.71,24.89c1.07-.38,2.36-.34,3.47-.33,1.7,0,3.52,0,5.21,0,4.91,0,9.86,0,14.76,0,1.98.09,4.15-.26,6.08.31,2.1.77,3.78,2.58,5.21,4.23,1.43,1.75,3.03,3.7,4.34,5.53,1.27,1.86,2.78,4.32,5.21,4.66,1.1-.12,2.38,0,3.47,0,1.46-.11,3.01-.63,4.34-1.2,2.89-1.27,5.71-2.91,8.68-3.96.77-.27,1.81-.59,2.61-.76,1.11.15,2.4.45,3.47.77,5.25,1.54,10.06,4.84,15.63,5.15,1.4.07,2.97-.09,4.34-.35,1.37.33,2.95.46,4.34.26,1.44-.21,3-.73,4.34-1.28.76-.31,1.75-.87,2.61-.69,2.99.08,5.79,1.46,8.68,2.01,3.65.41,7.1-1.43,10.42-2.68,0,0,.87-.23.87-.23l.87.21c.77.19,1.84.44,2.61.63,4.54,1.11,9.21,2.01,13.9,2.12,5.21.15,10.44-.48,15.63-.7,2.87-.23,5.82.01,8.69.17,4.91-.12,9.85.51,14.76.53"/><path class="b" d="M8.71,21.58c1.05-.48,2.34-.51,3.47-.48,1.7,0,3.52,0,5.21,0,4.62,0,9.28,0,13.9,0,3.16.09,6.42-.19,9.55.14,3.42,1.12,5.7,7.01,7.82,9.86,1.43,2.07,3.28,4.77,6.08,4.74,1.16.01,2.33-.82,3.47-.67,4.93,1.89,9.92-.9,14.76-1.78,3.7-.79,7.61-.69,11.29.15,2.83.85,5.7,1.98,8.69,2.2,3.47.35,6.98-.39,10.42-.66,2.88-.27,5.85,0,8.68.51,5.23,1.1,9.99-2.08,14.76-3.66.42-.18,1.31-.18,1.74,0,1.09.24,2.39.52,3.47.76,8.53,2.04,17.29,3.06,26.06,3.07,8.39.16,16.81-.08,25.19-.57"/><path class="b" d="M8.71,18.24c1.3-.7,2.92-.6,4.34-.59,1.69,0,3.52,0,5.21,0,5.2,0,10.44,0,15.63,0,1.39,0,2.95,0,4.34,0,1.1.02,2.45-.14,3.47.37,5.13,3.38,6.47,11.45,12.16,14.11,2.41.8,4.86-.65,6.95-1.74,5.33,2.41,8.24,2.2,13.9,1.56,4.03-.44,8.14-.35,12.16.09,3.16.39,6.4.43,9.55.05,3.14.43,6.39.25,9.55.23,9.63.33,9.47-.29,18.24-3.65,1.07-.39,2.37-.82,3.47-1.13,1.4.04,2.95.37,4.34.56,2.86.43,5.81.88,8.68,1.26,6.32.95,12.75,1.16,19.11,1.6,4.84.91,9.86,1.23,14.76.76,1.7-.2,3.54-.52,5.21-.91,1.09-.22,2.36-.72,3.47-.75"/><path class="b" d="M8.71,14.95c1.28-.76,2.9-.8,4.34-.75,1.69,0,3.52,0,5.21,0,4.91,0,9.86,0,14.76,0,1.69,0,3.52,0,5.21,0,1.14-.05,2.49,0,3.47.65,5.02,3.37,7.08,12.34,13.03,14.02,3.25.37,6.01-2.08,8.69-3.55,1.46.5,2.87,1.56,4.34,2.07,4.11,1.66,8.67,1.57,13.03,1.55,5.49-.05,11.12.31,16.5-1,1.38-.5,2.94.24,4.34.35,1.98.28,4.09.4,6.08.41,2,0,4.13-.07,6.08-.53,3.51-.98,6.93-2.48,10.42-3.5,1.08-.32,2.37-.68,3.47-.89,1.99.09,4.09.19,6.08.29,4.61.22,9.28.43,13.9.57,1.74-.04,3.53.59,5.21.97,2.27.56,4.65,1.11,6.95,1.53,4.27.77,8.69,1.14,13.03.9,3.49-.24,7.01-.95,10.42-1.7"/><path class="b" d="M8.71,12.18c2.41-2.09,5.77-1.3,8.69-1.44,4.32,0,8.7,0,13.03,0,1.99,0,4.09,0,6.08,0,1.82-.13,3.79.13,5.21,1.38,4.55,3.22,8.54,14.78,14.76,13.18,3.26-1.05,5.85-3.62,8.69-5.45,5.77,4.3,12.05,5.48,19.11,5.42,5.53.07,11.13-.31,16.5-1.7.44-.13,1.28-.3,1.74-.33.44.12,1.29.34,1.74.43,1.08.23,2.37.43,3.47.52,4.19.54,8.2-.98,12.16-2.11,1.68-.46,3.5-.92,5.21-1.26,2.28-.2,4.67-.27,6.95-.44,2.28-.15,4.66-.35,6.95-.49,1.7.11,3.53.3,5.21.53,7.81,1.1,15.54,3.15,23.45,3.46,5.24.32,10.46-.66,15.63-1.28"/></svg>