<?xml version="1.0" encoding="UTF-8"?><svg id="a" xmlns="http://www.w3.org/2000/svg" width="1920" height="2400" viewBox="0 0 192 240"><defs><style>.b{fill:none;stroke:#fff;stroke-miterlimit:10;stroke-width:.3px;}.c{stroke-width:0px;}</style></defs><rect class="c" width="192" height="240"/><path class="b" d="M9.64,226.11c2.06-.46,4.12-1.33,6.02-2.25,1.32-.68,2.75-1.52,4.3-1.45,4.17-.33,8.24,1.11,12.03,2.69,2.14.84,4.55,1.74,6.87,1.2,4.84-1.41,7.71-6.12,11.17-9.45.79-.27,1.8.03,2.58.18,1.39.29,2.93.64,4.3,1,4.06,1.07,8.08,2.51,12.03,3.92,10.16,3.78,18.36,5.85,29.22,3.54.47.14,1.32.59,1.72.87,1.43.45,2.59-.99,3.44-1.93,5.11-1.26,10.38-2.01,15.47-3.34,6.29-1.79,12.43-4.31,18.9-5.43,1.07-.19,2.36-.39,3.44-.51.8-.1,1.86-.31,2.58.19,3.27,2.81,5.98,6.39,9.45,8.98,5.33,4.17,9.71.95,15.47.63,2.32-.14,4.64.58,6.87,1.1,2.23.44,4.61.48,6.87.39"/><path class="b" d="M9.64,222.92c1.96-.08,4.05.33,6.02.02,2.81-.61,5.74-.41,8.59-.17,12.65,1.59,15.23-3.03,24.06-10.35,7.23-.59,14.56.6,21.48,2.64,5.54,1.64,10.86,4.05,16.33,5.92,5.84,2.1,11.99,2.72,18.05,1.33,5.68-1.28,11.48-2.15,17.19-3.31,9.59-2.15,19.33-4.2,29.22-3.92,1.63.94,2.85,2.78,4.3,3.97,3.6,3.44,7.11,4.6,12.03,3.76,2.83-.43,5.76-.28,8.59.09,2.25.19,4.62.18,6.87.12"/><path class="b" d="M9.64,219.45c3.13,0,6.33-.01,9.45-.18,1.38.17,2.9.4,4.3.37,5.66-.05,10.68-3.11,15.47-5.8,7.4-4.34,12.86-6.14,21.48-6.01,7.36-.08,14.75,1.35,21.48,4.35,4.88,2.07,9.53,4.83,14.61,6.4.8.21,1.87.55,2.58.97,1.08.06,2.35-.08,3.44.07,5.19.05,10.3-1.33,15.47-1.69,9.7-1.1,19.46-1.76,29.22-1.95,3.41-.08,6.9-.13,10.31-.22,1.69-.25,2.87,1.6,4.3,2.24,3.07,1.91,6.85,1.65,10.31,1.56,3.41.04,6.9.1,10.31.01"/><path class="b" d="M9.64,214.94c3.73-.5,7.51-1.15,11.17-2.03,4.1,1.52,8.36,4.1,12.89,3.08,3.9-.92,7.11-3.6,10.31-5.88,5.78-4.41,10.04-5.78,17.19-6.54,9.08-1.05,18.59.08,26.64,4.62,2.29,1.21,4.61,2.62,6.87,3.89,1.28.88,2.16,2.58,3.44,3.48.69.51,1.75.82,2.58.49.4-.32,1.21-.62,1.72-.56,5.61,1.54,11.48.14,17.19.15,10.02-.29,20.06.23,30.08.01,4.86-.1,9.78-.32,14.61-.95,0,0,.86-.05.86-.05,0,0,.86.41.86.41,1.02.44,2.33.79,3.44.93,4.26.41,8.61.13,12.89.16"/><path class="b" d="M9.64,209.85c3.99-1.42,8-2.96,12.03-4.26,1.54-.81,3.01.65,4.3,1.35,1.99,1.26,4,2.75,6.01,3.99,2.26,1.42,5.13,2.52,7.73,1.39,4.59-2.02,7.76-6.29,12.03-8.84,8.55-4.63,18.87-5.33,28.36-3.91,4.28.72,8.36,2.53,12.03,4.83,2.67,2.56,4.75,7.63,8.59,8.4,1.32.05,2.24-1.18,3.44-1.4,4.91,1.93,10.31,1.3,15.47,1.37,6.58.05,13.19.04,19.76-.2,7.73-.36,15.48.24,23.2.2,2.27-.06,4.65-.3,6.87-.77,4.21.95,8.6.68,12.89.74"/><path class="b" d="M9.64,204.51c4.57-2.64,9.42-5.02,14.61-6.17,2.73-1.21,8.99,5.87,11.17,7.67,3.33,3.09,6.33,4.84,10.31,1.57,2.36-1.83,4.48-4.15,6.87-5.93,7.28-5.05,14.43-6.78,23.2-6.54,4.05.04,8.22.39,12.03,1.84,3.57,1.67,5.96,5.28,8.59,8.1,2.61,2.95,5.71,6.34,9.45,2.74,1.41.22,2.88.88,4.3,1.07,2.52.44,5.18.44,7.73.45,7.21.12,14.37-.99,21.48-2.04,4.54-.61,9.2-.79,13.75-.2,4.61.52,9.12,1.94,13.75,2.29,1.99.23,4.05-.33,6.02-.43,3.1.49,6.33.42,9.45.46"/><path class="b" d="M9.64,199.1c5.47-4.18,12.02-6.39,18.91-6.42,3.96,1.09,6.78,5.2,9.45,8.12,2.74,3.14,6.03,7.27,10.31,3.83,4.6-3.81,9.2-7.84,14.61-10.5,3.71-1.83,7.93-2.45,12.03-2.51,4.02-.03,8.21,0,12.03,1.37,9.42,3.1,14.44,17.03,21.48,11.75,5.91,1.3,12.1,1.17,18.05.04,4.64-.89,9.14-2.54,13.75-3.56,4.78-1.09,9.84-1.26,14.61-.07,4.71,1.06,9.04,3.51,13.75,4.57,1.66.35,3.51.33,5.16-.11,2.81.46,5.76.35,8.59.35"/><path class="b" d="M9.64,193.68c6.67-5.53,15.86-5.77,24.06-4.61,5.37,2.89,8.44,11.9,13.75,13.44,2.31.27,4.26-1.51,6.02-2.75,2.64-1.86,5.17-4.06,7.73-6.01,1.67-1.49,3.94-2.05,6.02-2.74,4.96-1.63,10.26-2.34,15.47-2.01,14.45.66,17.6,12.17,25.78,13.56,1.13.1,2.33-.59,3.44-.57,2.24.32,4.62.32,6.87.21,3.8-.17,7.61-1.01,11.17-2.34,5.06-1.86,10.05-4.29,15.47-4.93,5.32-.73,10.74.62,15.47,3.06,3.36,1.6,6.58,3.9,10.31,4.51,1.07.2,2.37-.17,3.44,0,2.54.2,5.19-.07,7.73-.11"/><path class="b" d="M9.64,188.33c3.94-2.93,8.96-3.62,13.75-3.58,4.96-.07,10.08.41,14.61,2.59,2.4.75,3.75,3.11,5.16,5.02,2.06,2.6,4.1,6.41,7.73,6.78,4.1-.38,7.17-3.67,10.31-6.01,8.94-3.54,14.61-7.64,24.92-7.05,5.6,1.12,10.13,4.87,14.61,8.18,3.48,2.65,7.63,4.59,12.03,4.89,3.41-.18,6.92.11,10.31-.47,8.18-1.2,14.94-7,23.2-7.93,5.4-.75,10.85.92,15.47,3.66,3.05,1.67,5.98,3.98,9.45,4.65,3.73.4,7.46-.62,11.17-.77"/><path class="b" d="M9.64,183.13c3.67-1.96,7.98-1.95,12.03-1.96,3.73,0,7.62.03,11.17,1.33,5.46,1.96,9.57,6.37,14.61,9.1,1.63,1.75,3.47,3.88,6.02,4.1,2.54.17,4.9-1.27,6.87-2.7,1.71-.61,3.55-1.3,5.16-2.15,4-2.06,7.8-4.67,12.03-6.27,1.06-.4,2.34-.81,3.44-1.08,1.09.03,2.37.19,3.44.4,4.1.79,7.82,2.97,11.17,5.38,3.45,2.43,6.93,5.31,11.17,6.15,2.53.53,5.19.11,7.73.1,1.07.33,2.35-.01,3.44-.02,1.96.08,4.05.25,6.02.17,7.44-.22,13.53-5.28,20.62-6.9,13.85-3.25,19.53,7.43,27.5,6.87,3.45-.64,6.76-2.25,10.31-2.38"/><path class="b" d="M9.64,179.6c2.08-2.01,4.19-1.93,6.87-1.87,2.84.01,5.76-.04,8.59.03,8.16-.07,12.94,5.74,18.9,10.26,2.73,2.05,6.02,3.47,9.45,3.67,1.39.17,2.87.82,4.3.56,1.14-.16,2.42-.67,3.44-1.21,2.71-.86,5.35-2.14,7.73-3.69,2.28-1.36,4.46-3.15,6.87-4.26,1.35-.31,2.91-.49,4.3-.47,10.37.04,15.8,8.88,24.06,9.66,3.22.17,6.3-1.29,9.45-1.64,3.06,1.93,4.51,2.16,7.73.49,11.16,3.04,13.99-.77,24.06-3.1,3.98-.85,8.19-.51,12.03.81,4.67,1.41,9.72,5.15,14.61,2.5,1.16-.59,2.36-1.56,3.44-2.28,2.1-1.09,4.5-1.84,6.87-1.98"/><path class="b" d="M9.64,177.71c3.15-3.68,4.96-3.49,9.45-3.4,3.12.09,6.37-.27,9.45.38,7.08,1.72,11.07,8.66,17.19,12.09,3.36,1.94,7.39,2.1,11.17,1.93,1.09-.16,2.35.23,3.44.18,1.46-.09,2.99-.65,4.3-1.28,3.41-1.69,6.65-3.92,10.31-5.07,7.62-2.59,14.05.83,20.62,4.36,4.02,2.13,7.73,2.64,12.03.95,2.22-.77,4.53-1.71,6.87-2.02.96.05,1.82,1.04,2.58,1.54,2.87,2.1,4.8,1.84,7.73,0,10.09,3.38,14.49.02,24.06-.5,2.86-.11,5.8.28,8.59.87,2.8.56,5.71,1.42,8.59,1.07,4.55-.53,7.73-4.19,11.17-6.82.72-.53,1.72-1.28,2.58-1.57.75-.14,1.81-.24,2.58-.25"/><path class="b" d="M9.64,175.67c2.77-3.47,4.84-5.17,9.45-4.78,3.12.11,6.38-.31,9.45.35,6.39,1.8,10.12,7.98,15.47,11.49,3.73,2.66,8.48,2.82,12.89,2.6,1.08-.05,2.37-.2,3.44-.37.74.26,1.79.48,2.58.5,4.94-.17,9.04-3.62,13.75-4.76,4.84-1.47,10.04-.58,14.61,1.39,3.07,1.23,6.14,2.85,9.45,3.28,6.25.75,11.76-4.34,18.05-3.17,1.85,1.68,4.2,3.59,6.87,3.19,1.15-.14,2.3-.91,3.44-1.09,3.91.97,8.01,1.3,12.03,1.1,3.7-.16,7.47-.37,11.17-.2,3.7.1,7.52.62,11.17-.18,7.7-1.45,11.48-8.85,18.9-10.72"/><path class="b" d="M9.64,173.43c2.66-3.39,5.65-6.48,10.31-5.95,3.42.13,7.13-.52,10.31,1.04,6.15,3.03,9.91,9.6,16.33,12.2,4.43,1.62,10.1,1.54,14.61.23,1.4.26,2.83,1.08,4.3,1.09,3.64.11,6.96-1.86,10.31-3,6.09-2.4,12.07-1.8,18.05.57,3.3,1.19,6.74,2.61,10.31,2.42,4.11-.24,7.94-2.23,12.03-2.63,2.54-.29,5.2-.13,7.73.19,1.64.83,3.28,2.06,5.16,2.32,1.37.24,2.94.09,4.3-.19.76-.15,1.79-.47,2.58-.35,5.12.55,10.32.6,15.47.49,1.08-.1,2.36.21,3.44.18,1.11-.02,2.4-.36,3.44-.73,3.63-.55,7.18-1.87,10.31-3.78,4.49-2.71,8.28-6.66,13.75-7.29"/><path class="b" d="M9.64,171.05c2.36-2.72,4.97-5.79,8.59-6.73,2.51-.48,5.19-.23,7.73-.22,2.5.21,4.88,1.45,6.87,2.91,4.07,2.98,7.49,7,12.03,9.31,5.31,2.59,11.82,2.42,17.19.07,9.25,6.63,14.81-4.05,27.5-1.96,5.3.75,10.13,3.6,15.47,4.15,4.35.4,8.59-1.19,12.89-1.57,4.55-.52,9.19-.33,13.75-.09,1.64.55,3.43,1.11,5.16,1.3,5.7.48,11.8.77,17.19-1.44,3.81-.49,7.63-1.46,11.17-2.94,3.27-1.35,6.39-3.19,9.45-4.95,2.35-1.26,5.07-1.98,7.73-2.11"/><path class="b" d="M9.64,168.61c4.4-4.79,9.34-9.14,16.33-7.73,4.33.95,7.77,4.07,11.17,6.72,7.55,6.42,15.76,8.91,24.92,4.06,2.42,1.93,5.36,3.85,8.59,3.51,5.36-.83,9.99-4.4,15.47-4.95,7.94-1.26,14.78,3.6,22.34,4.8,3.12.43,6.34.02,9.45-.35,3.7-.46,7.46-.95,11.17-1.29,8.87-.86,17.84-1.08,26.64-2.58,4.67-.79,9.32-2.03,13.75-3.7,1.99-.71,4.02-1.68,6.02-2.38,2.18-.7,4.59-.98,6.87-.87"/><path class="b" d="M9.64,166.2c4.23-3.7,8.78-7.9,14.61-8.56,2.1.51,4.17,1.53,6.01,2.65,4.03,2.47,7.73,5.62,12.03,7.62,5.95,2.9,13.34,2.93,18.9-.87.97.11,1.83,1.12,2.58,1.66,1.28.99,2.78,2.02,4.3,2.59,3.9,1.54,7.76-.93,11.17-2.61,2.95-1.51,6.13-2.86,9.45-3.27,9.22-1.42,16.9,5.4,25.78,6.24,5.5.57,11-.7,16.33-1.93,5.39-1.28,10.85-2.53,16.33-3.39,6.56-1.07,13.22-1.65,19.76-2.77,2.87-.45,5.76-1.24,8.59-1.88,2.23-.4,4.63-.41,6.87-.06"/><path class="b" d="M9.64,163.86c4.63-3.11,9.17-6.71,14.61-8.27,4.84,1.92,9.04,5.24,13.75,7.43,7.06,3.52,15.62,4.17,22.34-.45l.86.07c2.99,2.44,6.14,5.9,10.31,5.73,3.52-.42,6.45-2.81,9.45-4.49,3.39-2.02,7.19-3.64,11.17-3.84,10.28-.73,18.29,7.8,28.36,8.32,4.48.24,8.79-1.49,12.89-3.09,4.45-1.79,9.02-3.49,13.75-4.4,6.77-1.38,13.75-1.1,20.62-1.11,2.55.02,5.19-.23,7.73-.41,2.28-.08,4.67.22,6.87.79"/><path class="b" d="M9.64,161.64c4.91-2.14,9.47-5.32,14.61-6.88,4.2,2.12,8.38,4.48,12.89,5.88,7.35,2.39,15.8,2.09,22.34-2.32,1.35.16,2.38,1.6,3.44,2.35,1.81,1.51,3.76,3.17,6.02,3.97,6.69,2.35,13.16-9.19,24.06-9.85,6.15-.63,11.99,2.01,17.19,5.01,3.82,2.01,7.7,4.45,12.03,5.11,3.68.43,7.17-1.39,10.31-3.07,3.06-1.67,6.18-3.44,9.45-4.66,8.25-3.29,17.3-2.1,25.78-.42,4.85.92,9.92.81,14.61,2.54"/><path class="b" d="M9.64,159.47c4.7-1.16,9.2-3.11,13.75-4.73,10.92,5.35,24.7,6.6,35.23-.3,3.31,1.89,5.9,5.08,9.45,6.6,4.24,1.84,8.04-1.89,11.17-4.28,2.87-2.3,5.95-4.58,9.45-5.81,5.26-1.88,11.22-1.48,16.33.7,3.95,1.69,7.55,4.22,11.17,6.5,3.22,2.19,7.25,4.58,11.17,2.74,5.42-2.45,9.77-6.97,15.47-8.9,9.12-3.41,18.01-.35,26.64,2.93,4.22,1.42,8.68,2.22,12.89,3.71"/><path class="b" d="M9.64,157.22c2.86-.27,5.79-.74,8.59-1.37,1.08-.24,2.36-.56,3.44-.85.44.08,1.3.3,1.72.44,7.5,2.06,15.61,2.25,23.2.54,2.34-.57,4.71-1.46,6.87-2.52,1.41-.62,2.83-1.68,4.3-2.16,3.58,1.89,6.46,5.14,10.31,6.53,4.85,1.39,8.56-3.33,12.03-5.95,2.79-2.34,5.93-4.52,9.45-5.58,6.25-1.87,13.26-1,18.9,2.26,2.99,1.72,5.87,3.82,8.59,5.94,4.01,3.19,7.33,5.23,12.03,1.81,3.48-2.41,6.57-5.51,10.31-7.53,5.72-3.22,12.82-3.32,18.9-1.09,4.21,1.49,8.02,4.02,12.03,5.94,3.8,1.75,7.95,2.85,12.03,3.75"/><path class="b" d="M9.64,154.6c3.13-.03,6.34-.12,9.45-.42,3.97.54,8.03.54,12.03.53,3.42-.01,6.91.05,10.31-.32,3.25-.34,6.5-1.26,9.45-2.65,2.05-.86,3.96-2.29,6.02-3.1,3.65,1.46,6.59,4.43,10.31,5.74,6.91,2.41,13.02-9.66,22.34-11.96,5.03-1.39,10.58-1.2,15.47.64,3.81,1.47,7.15,4.03,10.31,6.55,5.52,4.67,8.33,7.65,14.61,1.8,4.96-4.45,10.75-10.48,18.05-8.61,4.03.6,8.13,1.35,12.03,2.53,8.08,5.1,11.83,9.57,22.34,9.37"/><path class="b" d="M9.64,151.13c1.96.24,4.05.17,6.02.04,2.84.06,5.75.19,8.59.11,1.98-.06,4.06-.24,6.01-.55,1.08-.13,2.34-.6,3.44-.36,8.58,1.26,12.83,1.88,20.62-2.79,1.02-.59,2.25-1.6,3.44-.83,2.05.84,4.05,2.1,6.02,3.12,2.72,1.54,5.81,2.02,8.59.34,4.32-2.5,7.68-6.46,12.03-8.93,2.09-1.2,4.48-2.18,6.87-2.54,4.94.76,9.74,2.36,14.61,3.45,1.36.37,3,.36,4.3.93,2.65,1.88,5.2,4.08,7.73,6.11,3.45,2.81,6.13,2.71,9.45-.28,3.14-2.73,5.84-6.18,9.45-8.33,9.24-.1,18.11,2.77,26.64,6.04.76.27,1.81.64,2.58.9,1.34.92,2.81,2,4.3,2.67,2.66,1.23,5.75,1.28,8.59.82,1.06.23,2.36.37,3.44.15"/><path class="b" d="M9.64,146.81c1.62-.63,3.46-.52,5.16-.46,2.85.11,5.77.49,8.59.88,5.12.82,10.44.99,15.47-.48,1.7-.67,3.47.59,5.16.81,3.19.78,6.56.03,9.45-1.4,1.41-.55,2.79-1.72,4.3-1.95,3.18,1.06,6.09,3.14,9.45,3.62,6.58.69,12.6-8.04,18.9-10.11,6.49,1.17,12.52,4.11,18.9,5.67,2.79.77,5.74.81,8.59.93,4.56,3.38,7.31,5.45,12.03.83,1.45-1.21,2.64-3.11,4.3-4.02,5.97-.96,12.16-.88,18.05.54,8.07,1.86,15.64,6.04,24.06,6.21,4.19.15,6.78-.25,10.31-2.7"/><path class="b" d="M9.64,140.47c4.63-.4,9.3.45,13.75,1.71,5.27,1.54,10.85,3.18,16.33,1.68,1.09-.25,2.37-.62,3.44-.94.43-.23,1.26-.28,1.72-.09,5.32,2.74,9.47,1.6,14.61-.81,2.33.44,4.5,1.88,6.87,2.26,6.3,1.18,11.06-4.33,16.33-6.76,5.9.97,11.43,3.48,17.19,5,4.73,1.25,9.72,1.71,14.61,1.36,2.76,1.13,4.4.47,6.87-.84,2.55-.41,5.18-.93,7.73-1.36,5.94-1.06,12.09-1.32,18.05-.22,4.6.77,9.12,2.23,13.75,2.81,2.54.36,5.19.14,7.73-.12.73.25,1.81.37,2.58.27,3.92-.67,7.43-2.9,11.17-4.15"/><path class="b" d="M9.64,134.09c4.12-.07,8.21.95,12.03,2.43,3.96,1.49,7.83,3.56,12.03,4.31,4.74.89,9.31-1.16,13.75-2.5,1.49.22,2.85,1.41,4.3,1.84,3.59,1.47,7.57.79,11.17-.29,1.42.07,2.88.84,4.3,1,3.25.6,6.52-.54,9.45-1.85,3.88-1.81,3.47-1.83,7.73-1.04,3.73.7,7.43,1.79,11.17,2.44,4.24.81,8.61.65,12.89.42,1.08-.11,2.35.28,3.44.18,1.96-.36,4.04-.08,6.02-.04,6.02.28,12.05-.47,18.05-.8,4.28-.23,8.63-.04,12.89.37,3.69.33,7.47.72,11.17.29,1.08-.12,2.38-.34,3.44-.58.75-.17,1.79-.54,2.58-.36.67.47,1.76.94,2.58,1.08,2.11.27,4.16-.87,6.02-1.71,2.51-1.22,5.09-2.55,7.73-3.44"/><path class="b" d="M9.64,129.32c5.14.28,10.02,2.24,14.61,4.46,4.28,2.02,8.87,4.38,13.75,3.75,4.12-.51,7.97-2.4,12.03-3.18,2.08-.55,2.6,0,4.3,1.01,1.58.86,3.39,1.58,5.16,1.94,2.52.53,5.2.32,7.73-.02,2.53.51,5.21.4,7.73-.06,1.68-.25,3.46-.83,5.16-.93,1.97.09,4.06.31,6.02.55,4.25.56,8.61,1.1,12.89.53,1.97.05,4.06.51,6.02,0,1.46-.3,2.96-1.04,4.3-1.68,1.07-.12,2.36-.18,3.44-.15,4.31.24,8.6,1.15,12.89,1.55,4.84.5,9.75.53,14.61.53,4.57-.02,9.21.04,13.75-.6,1.69-.24,3.51-.63,5.16-1.09,1.08-.26,2.32-.87,3.44-.91,3.74,3.98,6.31,2.76,10.31.05,2.95-1.84,6.1-3.6,9.45-4.57"/><path class="b" d="M9.64,126.1c4.82.6,9.37,2.54,13.75,4.56,4.79,2.25,10.09,4.43,15.47,3.21,4.86-.95,9.58-3.14,14.61-3,2,.06,4.08.48,6.02.96,2.12,1.09,4.5,1.92,6.87,2.2,5.12.42,10.33.06,15.47.03,3.7-.07,7.47.33,11.17.06,7.63-.32,14.62-5.05,22.34-4.1,5.75.65,11.42,2.13,17.19,2.65,5.7.55,11.52.59,17.19-.29,1.99-.32,4.09-.8,6.02-1.4,1.08-.29,2.31-.93,3.44-.98,8.24,10.91,9.48-2.84,23.2-5.35"/><path class="b" d="M9.64,124.15c9.25,1.67,17.77,8.2,27.5,6.31,6.55-1.22,13.02-3.68,19.76-2.17,5.12.96,10.28,1.97,15.47,2.44,2.55.13,5.19,0,7.73-.02,4.85-.09,9.8.43,14.61-.44,6.53-1.03,12.25-5.23,18.9-5.63,6.08-.05,12.04,1.6,18.05,2.32,8.04,1.1,16.41.73,24.06-2.11,4.36,5.77,6.27,8.68,12.03,2.09,4.05-4.74,8.25-7.51,14.61-8.01"/><path class="b" d="M9.64,123.11c5.72,1.36,11.29,3.64,17.19,4.16,6.1.57,12.06-1.32,18.05-2.12,4.57-.73,9.22-.27,13.75.53,3.39.52,6.88.9,10.31.99,1.4-.02,2.9.53,4.3.6,3.7.27,7.47-.13,11.17-.01,10.09.48,13.3-.19,22.34-4.72,2.16-1,4.5-1.94,6.87-2.25,6.03-.62,12.07.72,18.05,1.36,4.54.52,9.2.71,13.75.15,1.38-.17,2.93-.44,4.3-.75,1.08-.17,2.34-.83,3.44-.55,1.77,2.38,3.6,6.55,6.87,6.88,2.69-.52,4.32-3.3,6.02-5.21,1.75-2.15,3.65-4.48,6.01-5.98,3.06-1.83,6.81-2.22,10.31-2.26"/><path class="b" d="M9.64,122.27c14.59,3.61,19.79.36,33.51-.66,5.77-.46,11.48.79,17.19,1.38,3.12.32,6.32.27,9.45.26,1.04.37,2.33.63,3.44.69,4.29.11,8.59-.89,12.89-.54,5.22.38,10.52,1.36,15.47-.99,4.32-1.81,8.2-4.9,12.89-5.73,6.26-1.06,12.64.07,18.9.49,5.74.51,11.55.18,17.19-1.02,1.86,2.61,3.57,6.9,6.87,7.81,4.26-.04,8.2-10.63,13.75-12.94,3.46-1.54,7.46-1.33,11.17-1.31"/><path class="b" d="M9.64,120.46c9.85.66,19.37-3.22,29.22-2.89,6.08,0,12.06,1.36,18.05,2.18,3.97.47,8.04.44,12.03.23,4.27,1.69,8.62-1.03,12.89-1.47,2.54-.37,5.22-.21,7.73.32,4.49,1,9.29,2.82,13.75.71,3.55-1.47,6.67-3.99,10.31-5.27,5.81-1.88,12.05-1.37,18.05-1.04,5.43.33,10.95.45,16.33-.5.75.18,1.39,1.25,1.72,1.86,1.19,1.86,2.49,4.08,4.3,5.42,3.3,2.07,5.97-3.21,7.73-5.32,1.73-2.39,3.59-5,6.02-6.74,2.21-1.62,5.07-1.94,7.73-1.94,2.26-.04,4.62-.04,6.87.02"/><path class="b" d="M9.64,116.46c11.71-2.76,18.4-5.92,30.94-3.13,5.98,1.27,11.89,3.32,18.05,3.56,2.84.13,5.76.14,8.59-.01,1.09,0,2.35.41,3.44.1,1.72-.5,3.48-1.34,5.16-1.96,1.47-.62,2.92-1.66,4.3-2.45,7.29-2.82,12.51,1.04,18.9,3.8,5.45,2.44,9.91-1.84,14.61-3.96,3.24-1.37,6.81-2.03,10.31-2.21,7.43-.35,14.93.71,22.34-.24.75.18,1.38,1.23,1.72,1.83,1.16,1.75,2.45,3.87,4.3,4.98,3.29,1.49,5.96-3.75,7.73-5.84,1.93-2.61,4-5.49,6.87-7.13,2.32-1.32,5.14-1.31,7.73-1.28,2.55.01,5.19-.03,7.73.04"/><path class="b" d="M9.64,110.57c8.57-3.88,16.46-6.2,25.78-3.32,4.1,1.19,8.01,3.1,12.03,4.53,4.37,1.66,9.11,2.03,13.75,1.93,3.13-.03,6.34.11,9.45-.27,6.41-.58,11.18-5.33,15.47-9.68,6.2.18,10.65,5.04,15.47,8.29,5.23,3.69,8.81.16,13.75-1.77,3-1.19,6.24-1.91,9.45-2.17,4.27-.36,8.61-.11,12.89-.04,2.55.14,5.2-.2,7.73-.02,4.6,7.13,6.86,7.54,12.03.58.76-.98,1.79-2.32,2.58-3.27.67-.78,1.54-1.97,2.58-2.27,3.06-1.41,6.11-3.19,9.45-3.82,3.4-.27,6.91-.14,10.31.04"/><path class="b" d="M9.64,104.01c8.46-5.02,17.73-6.02,26.64-1.47,6.33,3.14,12.31,8.15,19.76,7.75,4.29-.15,8.61-.13,12.89,0,5.37.28,9.93-1.76,13.75-5.47,1.73-1.59,3.47-3.44,5.16-5.07,1-.83,2.07-2.29,3.44-2.42,5.43,1.72,8.83,6.66,12.89,10.32,2.97,2.73,5.71,3.31,9.45,1.75,3.06-1.1,6.22-2.2,9.45-2.7,6.82-1.1,13.76-.18,20.62-.34,1.36,1.22,2.55,3,4.3,3.71,3.85,1.06,6.04-3.58,8.59-5.6,5.91-1.7,10.76-5.74,16.33-8.18,1.32-.6,2.9-.47,4.3-.38,1.68.09,3.5.28,5.16.61"/><path class="b" d="M9.64,97.85c7.36-4.66,17.23-5.18,24.92-1,5.12,2.65,9.16,7.23,14.61,9.28,3.58,1.33,7.48.49,11.17.26,0,0,.86.03.86.03.4.25,1.25.49,1.72.42,1.58-.81,3.47-.4,5.16-.29,9.55,1.37,13.29-1.48,19.76-8.03,2.31-2.1,4.6-4.95,7.73-5.72,6.86,2.5,9.36,12.11,16.33,13.96,2.59.39,5.22-.54,7.73-1.04,3.08-.7,6.29-1.11,9.45-1.19,4.28-.11,8.61.22,12.89.33,1.43.57,2.65,1.98,4.3,2.01,1.99.12,3.46-1.58,5.16-2.26,1.39-.14,2.93-.37,4.3-.67,5.83-1.13,10.9-4.45,15.47-8.1,1.32-.9,2.69-2.29,4.3-2.6,2.3.27,4.68.79,6.87,1.54"/><path class="b" d="M9.64,92.66c6.4-4.08,17.39-4.32,24.06-.75,6.09,3.03,10.39,10.23,17.19,11.46,2.57.34,5.2-.38,7.73-.72,1.61,1.38,2.83.66,4.3-.45,5.19-.38,10.29,1.69,15.47,1.14,8.92-1.36,13.23-11.16,21.48-13.92,6.43,3.7,8.57,14.29,17.19,14.04,3.14-.08,6.31-.68,9.45-.81,3.99-.23,8.04-.03,12.03.14,1.53-.11,2.84.49,4.3.66,1.11.05,2.33-.55,3.44-.43,4.29.02,8.67,0,12.89-.85,4.16-.8,8.02-2.91,11.17-5.71,1.75-1.35,3.2-3.42,5.16-4.46,2.33.57,4.69,1.44,6.87,2.41"/><path class="b" d="M9.64,88.58c4.04-2.66,9.04-3.04,13.75-2.93,6.25-.07,10.97,1.79,15.47,6.14,4.11,3.65,8.39,9.48,14.61,8.03.77-.14,1.82-.38,2.58-.57.47.05,1.33.4,1.72.66,1.38.44,2.64-.8,3.44-1.78,3.11-.5,6.36-.39,9.45.17,2.85.49,5.72,1.33,8.59,1.64,10.1,1.04,16.09-9.33,24.92-12.27,1.48.71,2.42,2.6,3.44,3.82,3.4,4.83,6.49,8.58,12.89,8.52,3.13.05,6.32-.16,9.45-.13,4.85.03,9.75.2,14.61.13,6-.21,12.07.35,18.05-.28,4.91-.52,8.92-3.77,12.03-7.39l.86-.2c2.3.8,4.64,1.8,6.87,2.78"/><path class="b" d="M9.64,85.7c3.43-2.61,7.8-3.48,12.03-3.47,2.85-.03,5.83.04,8.59.81,5.35,1.46,9.02,5.96,12.89,9.63,7.68,7.24,9.24,1.95,12.89,3.87.9.24,1.93-.27,2.58-.88.35-.48,1.16-1.25,1.72-1.45,2.21-.56,4.59-.89,6.87-.88,3.78,0,7.54.93,11.17,1.91,4.16,1.19,8.68,2.05,12.89.59,6.14-1.95,11.49-6.35,18.05-7,2.89,3.19,4.89,6.24,9.45,7.2,3.08.68,6.32.56,9.45.59,3.42,0,6.9-.01,10.31-.19,4.86-.23,9.74-.85,14.61-.8,2.56.02,5.2.27,7.73.6,2.53.31,5.23.69,7.73,0,1.17-.32,2.46-.98,3.44-1.7.78-.56,1.68-1.57,2.58-1.96,2.54.85,5.15,1.78,7.73,2.5"/><path class="b" d="M9.64,84.4c4.93-4.67,11.5-5.84,18.05-4.85,12.07,1.48,15.76,16.72,25.78,13.06,1.58,1.01,3.12.52,4.3-.8.42-.54,1.01-1.18,1.72-1.26,10.35-3.65,17.55-.94,27.5,1.76,8.12,2.24,13.67-.45,21.48-1.11,3.78-.32,7.5.79,11.17,1.53,2.23.5,4.61.47,6.87.4,4.57.04,9.21-.1,13.75-.71,4.84-.62,9.71-1.67,14.61-1.59,4.69-.08,9.16,1.68,13.75,2.33.76.07,1.83,0,2.58-.19.78-.2,1.74-.82,2.58-.8,2.8.58,5.73,1,8.59,1.03"/><path class="b" d="M9.64,84.36c2.55-2.35,5.32-4.72,8.59-5.99,4.68-1.8,10.14-1.52,14.61.76,4.21,2.12,7.42,5.78,11.17,8.54,3.09,2.23,4.98,2.41,8.59,1.71,2.03,1.2,3.93-.64,5.16-2.14,4.1-1.69,8.44-3.06,12.89-3.28,8.9-.61,17.19,3.36,25.78,4.95,5.65,1.01,11.47.92,17.19.79,1.08-.05,2.37-.16,3.44-.3.42-.13,1.29-.11,1.72.04,2.52.41,5.18.34,7.73.35,3.13,0,6.34,0,9.45-.33,4.64-.44,9.18-1.76,13.75-2.63,3.65-.57,7.69-1.28,11.17.31,7.36,3.03,13.72,3.24,21.48,1.71"/><path class="b" d="M9.64,83.38c5.18-4.32,10.88-8.66,18.05-7.26,9.24,1.37,14.85,12.51,22.34,9.8,3.26,1.5,4.68-1.46,6.87-3.13,3.02-1.46,6.2-2.82,9.45-3.66,7.33-1.98,15.07-1.14,22.34.68,7.3,1.75,14.75,4.14,22.34,3.29,1.35.93,2.67,2.26,4.3,2.71,3.61,1.04,7.48.32,11.17.5,4.3.11,8.7.17,12.89-.92,4.91-1.2,9.59-3.44,14.61-4.25,5.98,2.83,11.06,6.17,18.05,5.03,1.09-.11,2.34.39,3.44.08,2.28-.59,4.52-1.63,6.87-1.95"/><path class="b" d="M9.64,81.37c3.35-1.99,6.54-4.52,10.31-5.7,7.15-2.4,13.12,1.45,18.9,5.18,2.27,1.38,5.04,2.64,7.73,1.84.46-.05,1.29.08,1.72.24,1.28.12,2.54-.74,3.44-1.56.82-.78,1.83-1.95,2.58-2.79,1.36-.76,2.9-1.59,4.3-2.28,5.32-2.69,11.23-4.23,17.19-4.5,7.5-.44,14.95.92,22.34,1.94,2.46.44,5.43.33,7.73.76,7.2,11.63,8.24,7.66,19.76,8.08,3.12.18,6.33.62,9.45.18,6.47-.89,11.86-5.09,18.05-6.89,5.23,3.27,10.54,8.09,17.19,6.95,1.39-.11,2.9-.63,4.3-.52.41.19,1.27.47,1.72.55,1.98.31,4.07-.19,6.02-.48"/><path class="b" d="M9.64,78.63c2.87-1.2,5.62-2.88,8.59-3.84,6.63-2.33,12.21.28,18.05,3.27,2.1.99,4.54,1.85,6.87,1.3,1.89.58,3.81-.39,5.16-1.69.82-.77,1.84-1.94,2.58-2.79,2.62-1.99,5.59-3.61,8.59-4.93,12.98-5.65,27.51-3.47,41.25-3.33,3.79,3.78,5.44,9.84,10.31,12.51,1.91.83,4.08.19,6.02-.21,3.67-.88,7.51-.53,11.17.17,10.56,2.51,15.97-5.36,24.92-8.7,6.02,4.22,10.6,10.59,18.91,8.94,1.68-.2,3.47-.62,5.16-.69,1.58.68,3.45.9,5.16.92"/><path class="b" d="M9.64,75.88c3.8-.85,7.32-2.86,11.17-3.51,3.21-.27,6.46.49,9.45,1.58,3.27,1.16,6.78,2.8,10.31,1.94,2.9-1.01,5.37-3.15,7.73-5.05,9.82-9.04,23.51-9.16,36.09-9.19,3.99.02,8.04-.1,12.03.03,4.85,2.27,6.97,9.61,11.17,13.08,4.69,3.9,8.06-2.36,16.33-.46,4.21.87,8.67,2.91,12.89.99,4.99-1.79,12.5-10.06,17.19-10.11,5.46,4.33,10.27,11.46,18.05,10.93,3.42-.06,6.9-.8,10.31-.61"/><path class="b" d="M9.64,72.03c5.33,1.32,10.91.26,16.33.61,2.26.1,4.62.09,6.87-.15,2.99.66,6.11-.21,8.59-1.92,4.16-2.77,7.51-6.79,12.03-9.04,5.61-2.63,11.93-3.19,18.05-3.34,5.71-.12,11.47-.04,17.19-.06,1.96.12,4.17-.36,6.02.46,4.91,3.06,6.77,9.27,11.17,12.89,4.88,3.84,8.38-3.08,15.47-1.77,3.54.5,6.76,2.48,10.31,2.95,7.73.78,13.61-10.38,22.34-12.66,1.29.42,2.42,1.64,3.44,2.5,1.7,1.58,3.45,3.38,5.16,4.95,6.47,6.29,11.52,5.21,19.76,5.21"/><path class="b" d="M9.64,68.28c1.67-.36,3.46-.71,5.16-.91,1.38.11,2.91.34,4.3.38,1.38.06,2.92.02,4.3-.08.78.14,1.81.36,2.58.53,7.07,1.91,10.68,1.43,16.33-3.38,4.73-4.08,8.98-8.3,15.47-9.22,5.36-1,10.89-.88,16.33-.9,5.43.04,10.9-.08,16.33.05,6.67,1.53,9.27,11.77,15.47,14.31,2.77.85,5.35-1.21,7.73-2.33,7.17-3.75,11.5,1.64,18.05,2.54,7.94.12,12.89-12.16,23.2-13.74,3.04,1.33,5.34,4.05,7.73,6.26,6.5,6.6,10.76,7.39,19.76,7.21"/><path class="b" d="M9.64,64.32c4.84-.93,9.84-.64,14.61.53,2.79.6,5.73,1.36,8.59.84,7.63-1.67,11.9-9.37,18.91-12.32,4.59-1.87,9.72-1.88,14.61-2.03,5.72-.08,11.47-.04,17.19-.05,5.69-.57,8.58,2.59,12.03,6.56,2.55,2.81,4.9,6.4,8.59,7.78,4.4,1.13,7.89-3.09,12.03-3.76,6.37-1.32,11.43,5.45,17.19,3.64,6.08-2.53,9.57-9.01,15.47-11.95,2.09-1.11,4.52-1.73,6.87-1.95,1.56.36,3.05,1.43,4.3,2.4,7.83,6.76,10.92,11.3,22.34,10.31"/><path class="b" d="M9.64,60.11c4.91-.63,9.86.22,14.61,1.45,13.55,4.27,17.41-8.15,28.36-12.02,4.14-1.29,8.59-1.35,12.89-1.47,5.43-.09,10.9-.01,16.33,0,3.7.13,6.83,2.81,9.45,5.18,3.72,3.27,6.93,8.04,12.03,9.13,4.64.51,8.42-3.27,12.89-3.79,5.86-.79,10.77,5.39,16.33,3.43,2.66-1.04,4.83-3.19,6.87-5.12,4.3-4.34,9.05-8.43,15.47-8.73,3.33-.68,6.16,1.77,8.59,3.71,2.93,2.42,5.86,5.15,9.45,6.55,1.6.62,3.45.94,5.16.99.75.02,1.83-.01,2.58-.08.39.19,1.32.57,1.72.75"/><path class="b" d="M9.64,55.75c5.28-.33,10.43,1.13,15.47,2.52,12,3.9,17.48-8.14,27.5-11.55,4.41-1.42,9.16-1.44,13.75-1.43,3.13.04,6.33.2,9.45.37,1.67.2,3.58-.09,5.16.54,3.8,1.7,7.08,4.46,10.31,7.04,3.87,3.1,8.48,6.67,13.75,5.6,3.51-.62,6.8-2.33,10.31-2.9,5.92-.92,11.45,5.43,17.19,2.04,5.07-2.96,8.54-8.14,13.75-10.92,2.6-1.44,5.64-2.11,8.59-2.27,1.69-.06,3.6-.34,5.16.48,4.05,1.92,7.23,5.35,11.17,7.45,1.01.55,2.32,1.09,3.44,1.39.76.19,1.87.28,2.58.66,1.49,1.2,3.33,2.24,5.16,2.84"/><path class="b" d="M9.64,51.41c5.94-.07,11.54,2.09,17.19,3.63,10.63,3.25,17.38-7.84,26.64-10.6,4.15-1.26,8.61-1.23,12.89-.9,3.72.3,7.48.92,11.17,1.46,2.77.84,5.22,2.81,7.73,4.21,6.81,4.31,13.16,7.73,21.48,5.92,2.84-.47,5.72-1.25,8.59-1.53,7.25-.14,10.97,4.93,18.05-.64,4.49-3.41,8.34-7.97,13.75-9.97,2.99-1.12,6.28-1.43,9.45-1.39,1.38.04,2.95.1,4.3.42.79.36,1.85.94,2.58,1.41,3.1,1.96,6.03,4.42,9.45,5.83,2.51,2.79,5.63,5.39,9.45,5.99"/><path class="b" d="M9.64,47.33c6.55.07,12.67,2.66,18.9,4.32,9.49,2.81,16.55-5.5,24.92-8.2,4.43-1.44,9.24-1.07,13.75-.21,2.86.54,5.76,1.3,8.59,1.97,2.57,1.1,5.13,2.45,7.73,3.47,8.38,3.62,16.82,4,25.78,3.12,2.26-.14,4.61-.47,6.87-.42,1.98.07,4.05.5,6.02.73,7.03,1.05,11.98-5.05,17.19-8.71,5.55-4.28,12.97-5.61,19.76-4.15,5.18,1.04,9.25,4.73,12.89,8.34,2.83,2.98,6.03,5.02,10.31,4.59"/><path class="b" d="M9.64,44.66c.47-.17,1.27-.53,1.72-.71,1.09-.18,2.36.07,3.44.19,5.29.69,10.32,2.63,15.47,3.92,10.57,3,16.97-4.13,26.64-5.43,8.02-.69,15.55,2.91,23.2,4.66,5.63,1.22,11.45,1.4,17.19,1.47,5.72.05,11.47.03,17.19-.04,3.13-.05,6.38.35,9.45-.41,4.58-1.15,8.24-4.44,12.03-7.08,3.32-2.38,7.1-4.37,11.17-5.02,11.21-1.68,16.28,2.89,24.06,9.87,3.8,3.34,6.55,3.12,11.17,1.63"/><path class="b" d="M9.64,43.87c2.33-.71,4.66-1.71,6.87-2.71,5.84.17,11.49,2.27,17.19,3.42,3.93.88,8.07,1.05,12.03.28,3.43-.59,6.85-1.65,10.31-2.05,2.26-.23,4.63-.09,6.87.23,3.74.48,7.39,1.75,11.17,2,4.55.43,9.18.32,13.75.33,4.85-.04,9.76.08,14.61-.07,3.12-.12,6.33-.19,9.45-.2,3.73.08,7.61.1,11.17-1.2,7.5-2.8,13.31-9.41,21.48-10.57,6.38-1.19,13.07.66,18.05,4.8,3.1,2.3,5.81,5.46,9.45,6.92,3.67,1.2,7.04-1.76,10.31-2.99"/><path class="b" d="M9.64,41.92c4.76-.19,9.29-2,13.75-3.52,4.62.34,9.21,1.32,13.75,2.21,5.35,1.11,10.87,1.6,16.33,1.19,3.41-.23,6.91-.25,10.31.08,3.7.14,7.48.1,11.17-.3,7.44-.44,14.9.61,22.34.29,1.97-.05,4.05-.42,6.02-.43,1.95.33,4.04.6,6.02.47,1.73-.12,3.56-.59,5.16-1.28,2.29-.22,4.7-.45,6.87-1.25,6.83-2.42,12.51-7.63,19.76-8.99,6.64-1.46,13.65.3,18.9,4.59,3.09,2.24,5.81,5.33,9.45,6.7,1.36.51,2.95.14,4.3-.26,2.83.33,5.83.18,8.59-.53"/><path class="b" d="M9.64,37.72c5.38,1.44,10.96.64,16.33-.4,4.23-.76,8.59-1.25,12.89-.93,5.2.29,10.27,1.88,15.47,2.13,1.98.06,4.06-.17,6.01-.47,1.97-.16,4.06-.27,6.02-.57,2.55-.34,5.14-1.11,7.73-.94,6.64-.05,13.13,2.06,19.76,1.99,2.28-.05,4.65-.42,6.87-.93,1.35-.18,3-1.09,4.3-.64,4.12,1.48,8.81,2.39,12.89.3,3.34-1.56,6.31-3.94,9.45-5.85,3.4-2,7.2-3.68,11.17-4,14.54-1.3,20.02,11.3,30.94,11.11,2.27-.07,4.6-.59,6.87-.6,1.98-.01,4.05.32,6.02.51"/><path class="b" d="M9.64,34.85c1.39-.17,2.93-.46,4.3-.77,1.94.48,4.02.83,6.02.95,4.57.27,9.18-.33,13.75-.34,6-.16,12.09,1.02,18.05-.05,3.79-.73,7.42-2.3,11.17-3.17,4.76-1.2,9.83-1.25,14.61-.12,13.65,3.55,14.36,6.21,28.36-.01,3.29,1.53,6.62,3.47,10.31,3.74,3.04.2,5.96-1.14,8.59-2.5,3.04-1.59,6.13-3.34,9.45-4.3,4.8-1.49,10.07-.88,14.61,1.19,5.87,2.5,10.39,6.72,17.19,5.36,2.86.99,5.64-.95,7.73-2.73,2.81-.96,5.92-.08,8.59.94"/><path class="b" d="M9.64,31.69c2.29.08,4.67-.31,6.87-.93,1.69.07,3.46.61,5.16.7,3.41.31,6.9.23,10.31.23,3.41-.02,6.9.09,10.31-.13,3.21-.2,6.46-.85,9.45-2.02,3.15-1.24,6.21-2.92,9.45-3.91,5.27-1.77,11.1-1.69,16.33.21,6.44,1.97,12.72,7.8,19.76,5.13,3.63-1.32,6.81-3.74,10.31-5.33,4.65,2.86,9.69,6.76,15.47,5.92,3.24-.51,6.32-1.95,9.45-2.86,3.58-1.11,7.47-1.51,11.17-.81,4.98.77,9.52,3.69,14.61,3.8,1.75.05,3.48-.71,5.16-1.03,5.71,3.53,10.02-3.08,14.61-5.44,1.45.26,2.98.85,4.3,1.5"/><path class="b" d="M9.64,27.9c2.85.72,5.79.24,8.59-.42,3.66.73,7.46.77,11.17.79,3.42,0,6.91.05,10.31-.25,3.86-.31,7.7-1.41,11.17-3.12,3.14-1.53,6.16-3.48,9.45-4.68,5.48-2.14,11.75-2.16,17.19.13,3.65,1.47,6.93,3.82,10.31,5.8,3.72,2.27,7.28,2.99,11.17.6,2.38-1.36,4.61-3.18,6.87-4.71,1.03-.64,2.22-1.59,3.44-1.81,5.41,3.64,11.09,8.62,18.05,8,3.44-.3,6.86-1.25,10.31-1.48,3.44-.28,6.94.17,10.31.81,3.97.84,8.27,1.19,12.03-.63.39-.28,1.24-.48,1.72-.37,0,0,.86.52.86.52.72.41,1.77.86,2.58,1.05,3.95.82,7.22-2.35,10.31-4.3,2.09-1.23,4.4-2.84,6.87-3.01"/><path class="b" d="M9.64,23.86c2.74,1.04,5.75,1.24,8.59.58,2.82.42,5.75.42,8.59.41,9.76,0,16.23.69,24.92-4.81,5.2-3.29,10.85-6.51,17.19-6.52,8.6-.3,14.11,4.53,20.62,9.23,2.21,1.52,5.08,2.79,7.73,1.67,4.86-2.11,8.16-6.74,12.89-9.1.95,0,1.83.87,2.58,1.36,1.38.95,2.92,2,4.3,2.95,6.54,4.71,10.93,5.78,18.9,5.03,4.86-.41,9.75.21,14.61.18,3.3-.04,6.53-1.12,9.45-2.6,4.19,3.14,7.47,3.39,12.03.81,3.23-1.8,6.62-3.56,10.31-4.16"/></svg>