<?xml version="1.0" encoding="UTF-8"?><svg id="a" xmlns="http://www.w3.org/2000/svg" width="1920" height="2400" viewBox="0 0 192 240"><defs><style>.b{fill:none;stroke:#fff;stroke-miterlimit:10;stroke-width:.3px;}.c{stroke-width:0px;}</style></defs><rect class="c" x="0" width="192" height="240"/><path class="b" d="M9.73,231.86h172.54"/><path class="b" d="M9.73,227.2h172.54"/><path class="b" d="M9.73,222.54c27.75-.04,55.52.12,83.27-.15,29.75.28,59.52.11,89.28.15"/><path class="b" d="M9.73,217.88c7.15.05,14.32-.05,21.46-.12,11.15,0,22.33.2,33.48.06,6.58,0,13.17-.58,19.74-.74,3.41-.11,6.89-.01,10.3-.06,2.84-.06,5.75-.27,8.58-.33,4.86-.17,9.75.28,14.59.68,10.01.11,20.04.33,30.04.25,6-.03,12.03-.27,18.03-.25.4,0,1.31,0,1.72,0,.36.18,1.31.44,1.72.5,4.27,0,8.6,0,12.88,0"/><path class="b" d="M9.73,213.22c4.85,0,9.74,0,14.59,0,2.55-.07,5.18-.3,7.73-.22,6.57.09,13.17.19,19.74.06,3.7,0,7.46.28,11.16-.04,8.03-.3,16-1.73,24.04-1.83,1.96-.06,4.05.07,6.01,0,4.26-.5,8.58-1.09,12.88-.98,4.89-.01,9.73,1.11,14.59,1.36,6.85.43,13.73,1.08,20.6,1.08,6.01.12,12.04-.44,18.03-.97,1.67-.13,3.48-.24,5.15-.29,1.71.48,3.4,1.51,5.15,1.84,4.27,0,8.6,0,12.88,0"/><path class="b" d="M9.73,208.56c6-.03,12.03.06,18.03-.05,3.99-.15,8.03-.46,12.02-.52,6-.16,12.04.51,18.03-.12,3.7-.34,7.48-.67,11.16-1.2,6.24-1.03,12.54-2.24,18.89-2.19,1.38-.06,2.94.27,4.29-.04,3.08-.69,6.28-1.2,9.44-1.2,6.74-.13,13.15,2.34,19.74,3.32,8.19,1.44,16.58,2.16,24.89,1.71,4.9-.28,9.75-1.34,14.59-2.1,2.97.22,5.73,1.73,8.58,2.39,4.27,0,8.6,0,12.88,0"/><path class="b" d="M9.73,203.9c6.57-.12,13.2.31,19.74-.33,3.17-.28,6.27-1.35,9.44-1.59,4.54-.62,9.17-.38,13.73-.4,5.72-.16,11.53-.57,17.17-1.57,6.22-1.27,12.48-3.03,18.89-2.88,2.64.3,5.13-1.14,7.73-1.4,8.53-1.44,16.04,3.96,24.04,5.83,11.18,2.9,23.13,3.13,34.34.26.75-.18,1.82-.43,2.58-.61,1.99-.13,4.09.26,6.01.75,2.02.46,4,1.51,6.01,1.95,4.27,0,8.6,0,12.88,0"/><path class="b" d="M9.73,199.23c3.41,0,6.89,0,10.3,0,2.85.03,5.77.03,8.58-.43,2.59-.35,5.24-.95,7.73-1.77,1.66-.56,3.39-1.34,5.15-1.51,4.23-.73,8.58-1.23,12.88-.89,3.12.2,6.32.12,9.44-.08,2.57-.18,5.24-.35,7.73-1.07,4.3-1.04,8.55-2.48,12.88-3.4,1.07-.22,2.35-.42,3.43-.52,1.09-.07,2.4-.07,3.43-.5,10.93-5.49,16.42.94,25.75,5.6,11.05,4.73,23.69,4.59,35.2,1.64,3.34-1.03,6.99-.28,10.3.56,2.33.56,4.56,1.8,6.87,2.36,4.27,0,8.6,0,12.88,0"/><path class="b" d="M9.73,194.57c4.85,0,9.74,0,14.59,0,6.49-.79,12.88-2.49,18.89-5.06,2.26-.42,4.62-.89,6.87-1.38,1.69-.47,3.46-.66,5.15-.12,6.78,1.33,14.01,1.68,20.6-.7,3.48-1.11,6.88-2.65,10.3-3.92,1.94-.81,4.25-.97,6.01-2.19,7.09-4.62,11.34-4.04,18.03.89,1.68,1.2,3.46,2.56,5.15,3.74,2.41,1.43,5.07,2.68,7.73,3.59,8.02,2.36,16.7,2.55,24.89.99,1.07-.17,2.34-.55,3.43-.54,2.87.16,5.81.62,8.58,1.38,2.92.79,5.81,1.94,8.58,3.14,1.64.36,3.48.1,5.15.18,2.83,0,5.75,0,8.58,0"/><path class="b" d="M9.73,189.91c4.85,0,9.74,0,14.59,0,7.16-1.87,14.64-3,21.46-6,2.57-.76,5.33-1.27,7.73-2.56,1.45-.19,2.91.85,4.29,1.2,14.98,5.33,21.95.61,34.34-7.31,6.22-5.03,10.53-8.03,18.03-2.96,2.93,2.16,6.15,3.98,9.44,5.54,3.48,1.77,7.34,2.72,11.16,3.44,4.77,1.13,9.67,2.08,14.59,1.82,1.72-.25,3.5.18,5.15.63,2.57.62,5.21,1.33,7.73,2.14,3.48,1.1,6.93,2.5,10.3,3.9,1.64.33,3.48.09,5.15.16,2.83,0,5.75,0,8.58,0"/><path class="b" d="M9.73,185.25c4.85,0,9.74,0,14.59,0,2.82-.91,5.65-2.08,8.58-2.62,4.27-.97,8.69-1.5,12.88-2.82,1.44-.43,2.92-1.21,4.29-1.81,1.5-.47,3.02-1.37,4.29-2.29,3.27.98,6.19,3.17,9.44,4.29,11.64,4.59,19.26-.24,27.47-8.29,4.97-3.92,10.07-10.36,17.17-8.45,2.22.75,4.63,1.12,6.87,1.8,2.85.86,5.71,1.98,8.58,2.75,3.42.85,7.08,1.05,10.3,2.62,3.08,1.33,6.19,2.81,9.44,3.68,4.62,2.84,9.51,5.12,14.59,7.04,3.41,1.32,6.88,2.69,10.3,3.97,4.53.35,9.18.03,13.73.14"/><path class="b" d="M9.73,180.59c4.85,0,9.74,0,14.59,0,1.14-.26,2.33-1.03,3.43-1.43,1.9-.75,4-1.31,6.01-1.66,5.1-1,10.55-.4,15.45-2.29,1.98-.76,3.56-2.43,5.15-3.76,3.65,1.34,6.75,4,10.3,5.57,6.44,3.24,14.03,3.02,19.74-1.59,1.49-1.14,3.02-2.59,4.29-3.96,1.08-1.1,2.14-2.66,3.43-3.53,5.22-4.15,8.49-7.7,15.45-8.69,5.94-1.54,12.05.02,18.03.51,1.99.25,4.04-.37,6.01-.3,3.12.24,5.94,1.96,8.58,3.5,1.8,1.6,3.34,3.77,5.15,5.38,3.7,3.56,8.19,6.3,12.88,8.34,3.33,1.46,6.85,2.67,10.3,3.8,4.54.31,9.18.03,13.73.12"/><path class="b" d="M9.73,175.93c4.85,0,9.74,0,14.59,0,1.15-.24,2.34-.99,3.43-1.4,1.91-.78,4-1.4,6.01-1.83,6.72-1.5,14.57-1.21,19.74-6.44,1.28-.11,2.52.78,3.43,1.59,1.08.9,2.34,1.99,3.43,2.87,2.78,2.24,5.93,4.32,9.44,5.16,1.08-.12,2.34-.34,3.43-.32,1.39-.06,2.95.59,4.29.02,4.88-1.59,8.66-5.39,12.02-9.11,1.97-1.88,4.59-3.13,6.87-4.61,7.59-4.75,15.38-5.18,24.04-4.19,2.54.21,5.2.49,7.73.08,2.55-.55,5.04-1.93,7.73-1.54.42.05,1.3.18,1.72.28.89.49,1.85,1.48,2.58,2.18,1.67,1.63,3.45,3.42,5.15,5.01,4.01,3.79,8.62,7.1,13.73,9.23,3.01,1.28,6.25,2.2,9.44,2.92,4.55.21,9.18.02,13.73.08"/><path class="b" d="M9.73,171.27c4.85,0,9.74,0,14.59,0,2.33-.69,4.55-2.02,6.87-2.78,3.65-1.38,7.47-2.47,11.16-3.74,2.33-.81,4.73-1.75,6.87-2.99.81-.47,1.85-1.2,2.58-1.8.71-.63,1.66-.97,2.58-.6,2.12.82,3.53,3.01,5.15,4.51,2.26,2.3,4.77,4.63,7.73,6,6.81,3.35,14.08-1.06,18.89-5.89,1.28-1.24,2.76-2.59,4.29-3.51,1.31-.74,2.89-1.32,4.29-1.86,5.71-2.2,11.96-2.73,18.03-2.17,5.14.32,10.29,1.75,15.45,1.26,2.29-.36,4.57-1.3,6.87-1.63.75-.12,1.81-.22,2.58-.25,1.5.38,2.95,1.41,4.29,2.16,2.59,1.58,5.17,3.37,7.73,5.01,5.99,3.88,12.64,7.17,19.74,8.28,4.27,0,8.6,0,12.88,0"/><path class="b" d="M9.73,166.61c3.12,0,6.32,0,9.44,0,1.96-.1,4.1.24,6.01-.21,3.14-1.43,6.34-2.89,9.44-4.4,4.41-2.16,8.81-4.49,12.88-7.25,4.28-2.7,5.97-7.02,10.3-1.31,5.79,7.19,11.57,14.41,21.46,8.93,3.4-1.82,6.16-4.72,9.44-6.73,4.86-2.76,11.71-2.84,17.17-2.34,6.69.62,13.1,2.96,19.74,3.78,2.56.3,5.18-.35,7.73-.5,1.67-.09,3.48-.6,5.15-.47,3.15.62,6.37,1.32,9.44,2.28,7.35,2.11,14.02,6.51,21.46,8.21,4.27,0,8.6,0,12.88,0"/><path class="b" d="M9.73,161.95c4.85,0,9.74,0,14.59,0,6.89-2.39,13.21-6.54,18.89-11.09,2.04-1.67,4.13-3.53,6.01-5.38,1.41-1.29,2.66-3.08,4.29-4.1,1.4-.72,2.48-.4,3.43.8.82.9,1.85,2.22,2.58,3.21,5.64,8,11.16,15.38,21.46,8.93,3.11-1.92,6.04-4.35,9.44-5.75,10.05-3.34,19.99,2.08,29.19,5.65,2.19.82,4.54,1.59,6.87,1.86,1.07.16,2.36-.02,3.43.1,2.22.46,4.62.5,6.87.2,2.24-.32,4.62-.21,6.87-.49,3.69-.33,7.51-.62,11.16.17,4.27.87,8.11,3.15,12.02,4.97.73.31,1.77.81,2.58.91,1.37,0,2.92,0,4.29,0,2.83,0,5.75,0,8.58,0"/><path class="b" d="M9.73,157.29c4.85,0,9.74,0,14.59,0,3.32-.91,6.46-2.73,9.44-4.41,5.53-3.32,10.43-7.74,14.59-12.65,1.12-1.32,2.4-2.95,3.43-4.35,1.19-1.41,2.27-3.89,4.29-4.12,3.48,2.02,5.35,6.04,7.73,9.14,4.34,6.3,9.49,10.65,17.17,6.52,6.66-3.54,11.54-8.44,19.74-6.43,7.45,1.9,13.06,7.66,19.74,11.13,2.37,1.36,5.11,1.92,7.73,2.55,7.37,3.16,15.09-.72,22.32-2.45,3.37-.86,7.08-.89,10.3.55,2.68,1.14,5.16,2.89,7.73,4.26,1.6.51,3.49.15,5.15.25,2.83,0,5.75,0,8.58,0"/><path class="b" d="M9.73,152.63c3.41,0,6.89,0,10.3,0,1.97-.11,4.17.35,6.01-.5,8.92-3.32,17.41-8.49,23.18-16.2,1.52-1.97,3.04-4.31,4.29-6.46.66-1.14,1.52-2.87,2.58-3.7,7.15-1.39,10.92,18.57,23.18,16.08,7.33-1.36,12.83-8.39,20.6-7.94,5.2.4,9.25,4.23,12.88,7.62,3.41,3.23,6.84,6.74,11.16,8.73,1.66.74,3.33,2.01,5.15,2.25,3.54-1.52,7.57-.98,11.16.1,3.17-1,6.32-2.31,9.44-3.45,2.99-1.07,6.22-2.17,9.44-1.73,3.59.5,6.51,2.95,9.44,4.88,1.57.64,3.49.19,5.15.32,2.83,0,5.75,0,8.58,0"/><path class="b" d="M9.73,147.97c3.12,0,6.32,0,9.44,0,1.96-.08,4.08.2,6.01-.17,12.48-4.46,22.55-8.33,29.19-20.64,2.77-5.96,6.48-4.97,10.3-.58,5.8,6.74,10.78,12.75,20.6,10.07,4.7-1.26,8.44-4.71,12.88-6.58,8.18-3.93,13.72,2.93,18.89,8.28,3.54,3.64,7.52,7.08,12.02,9.47.81.03,1.79-.4,2.58-.54,1.37-.25,2.92-.25,4.29-.07.78.1,1.82.3,2.58.5.46.2,1.25.24,1.72.06,2.19-.64,4.65-.35,6.87-.95,2.9-.6,5.74-1.7,8.58-2.48,2.49-.7,5.29-.91,7.73.12,2.18.78,3.92,2.63,6.01,3.52,4.27,0,8.6,0,12.88,0"/><path class="b" d="M9.73,143.3c3.41,0,6.89,0,10.3,0,2.36-.02,4.67.27,6.87-.79,6.57-2.43,13.98-3.17,19.74-7.41,2.77-2.05,5.06-4.89,6.87-7.8,1.66-2.74,3.16-6.77,6.87-7.05,6.12.06,11.64,14.07,23.18,13.45,5.69-.36,9.84-4.68,14.59-7.28,7.16-4.31,12.28-2.22,18.03,3.11,4.89,4.43,9.24,9.61,14.59,13.5.91.14,1.81-.64,2.58-1.01,1.04-.53,2.32-1.07,3.43-1.43,4.28-1.34,8.86.2,12.88,1.77,2.01.88,2.26,1.07,4.29.08,1.63-.66,3.42-1.33,5.15-1.67,2.29-.47,4.77-.13,6.87.87,1.1.47,2.27,1.34,3.43,1.65,4.27,0,8.6,0,12.88,0"/><path class="b" d="M9.73,138.64c4.85,0,9.74,0,14.59,0,2.26-.34,4.59-.89,6.87-1.11,5.9-.67,12.33-.95,17.17-4.83,1.93-1.48,3.7-3.43,5.15-5.37,2.11-3.11,4.47-7,8.58-7.43,6.81-.41,13.84,9.83,24.89,9.82,2.5.06,4.85-1.11,6.87-2.5,1.96-1.25,3.99-2.66,6.01-3.82,6.3-3.84,11.13-2.43,16.31,2.41,4.24,3.92,8.01,8.41,12.02,12.55.56-.04,1.35-.59,1.72-.99,1.01-.82,2.28-1.69,3.43-2.3,1.57-.78,3.38-1.57,5.15-1.65,3.62.09,7.06,1.59,10.3,3.07,1.08.5,2.36,1.11,3.43,1.6.75.53,1.82.43,2.58-.02,3.21-1.35,6.89-2.19,10.3-1.08,1.44.38,2.85,1.31,4.29,1.66,4.27,0,8.6,0,12.88,0"/><path class="b" d="M9.73,133.98c6.86.03,13.75-.02,20.6-.12,7.15.2,13.92.42,19.74-4.45,4.59-3.53,7.14-8.75,13.74-8.62,3.64.13,7.03,1.82,10.3,3.28,4.57,2.02,9.47,4.39,14.59,3.8,4.29-.7,7.47-4.16,11.16-6.21,3.54-2.31,8.09-3.6,12.02-1.46,5.84,3.19,9.92,8.79,14.59,13.39l.86-.04c3.16-2.93,7.52-5.81,12.02-5.12,2.99.6,5.85,1.96,8.58,3.28,1.66.7,3.35,1.88,5.15,2.18,3.74-1.63,8.02-2.6,12.02-1.39,1.43.34,2.86,1.21,4.29,1.5,4.27,0,8.6,0,12.88,0"/><path class="b" d="M9.73,129.32c5.71-.07,11.47.16,17.17-.13,5.41-.34,10.98-1.3,16.31.11,4.14-1.16,7.55-3.99,11.16-6.19,7.72-4.95,16.85-.45,24.89,1.19,4.56.95,9.73,1.16,13.73-1.6,3.3-2.13,6.5-4.71,10.3-5.89,9.27-2.83,16.02,7.24,22.32,12.39,1.16-.59,2.29-1.66,3.43-2.29,1.83-1.05,3.92-1.91,6.01-2.27,2.31-.54,4.71.05,6.87.9,2.89,1.09,5.73,2.53,8.58,3.7,6.66-2.24,11.34-3.21,18.03-.11,1.63.38,3.48.11,5.15.18,2.83,0,5.75,0,8.58,0"/><path class="b" d="M9.73,124.66c5.42-.09,10.9.19,16.31-.13,5.39-.5,11.01-1.43,16.31.12,3.35-.99,6.26-3.12,9.44-4.49,3.25-1.34,6.85-1.28,10.3-1.07,4.87.3,9.72,1.17,14.59,1.42,5.22.22,10.95.15,15.45-2.84,8.71-6.36,14.16-8,23.18-.88,2.01,1.54,4.04,3.29,6.01,4.88,1.32.98,2.7,2.37,4.29,2.87,3.57-2.1,7.88-3.15,12.02-2.83,3.25.49,6.32,1.98,9.44,2.91,6.53-2.55,14.07-3.6,20.6-.5,1.82.92,4.04.42,6.01.54,2.83,0,5.75,0,8.58,0"/><path class="b" d="M9.73,120c4.85,0,9.74,0,14.59,0,2.55-.15,5.17-.43,7.73-.45,1.97-.03,4.07.07,6.01.44,3.74-.56,6.99-2.71,10.3-4.38,3.73-1.97,8.07-.72,12.02-.25,8.82,1,18.1,1.12,26.61-1.72,3.6-1.16,6.14-4.22,9.44-5.92,6.68-3.7,12.79.44,18.03,4.58,4.34,3.38,8.91,7.11,14.59,7.66,1.96-.06,4.04-.39,6.01-.3,1.38-.03,2.92.36,4.29.25,3.15-.56,6.31-1.48,9.44-2.11,4.21-.88,8.64-1.18,12.88-.33,1.4.27,2.95.71,4.29,1.2,1.07.41,2.28,1.17,3.43,1.33,4.27,0,8.6,0,12.88,0"/><path class="b" d="M9.73,115.34c6.28-.03,12.6.08,18.89-.09,1.68-.09,3.48.18,5.15-.01,4.45-.38,7.69-2.71,11.16-5.24,4.67-3.15,5.95-2.64,11.16-1.47,6.28,2.25,13.21,2.29,19.74,1.27,5.15-1.28,10.42-3.07,14.59-6.46,5.9-6.12,11.38-6.09,18.03-1.02,4.22,3.17,7.94,7.3,12.88,9.37,2.69,1.06,5.74.98,8.58.84,4-.11,8.03-.61,12.02-.85,5.4-.49,10.93-1.17,16.31-.13,2.62.48,5.27,1.29,7.73,2.32,1.09.41,2.26,1.28,3.43,1.46,4.27,0,8.6,0,12.88,0"/><path class="b" d="M9.73,110.68c6.86,0,13.75.1,20.6-.29,1.39-.02,2.92.1,4.29.28,4.37-.62,7.89-3.51,11.16-6.25,3.36-2.89,5.34-2.61,9.44-1.93,6.27,2.14,11.68,1.87,18.03.2,6.52-1.7,13.38-3.97,18.03-9.12,5.54-6.9,9.82-6.25,15.45.12,4.43,4.67,8.59,11.66,15.45,12.66,2.58.18,5.21-.43,7.73-.91,2.55-.5,5.19-.97,7.73-1.53,5.14-.2,10.43-.15,15.45,1.09,5.59,1.37,10.94,3.73,16.31,5.69,4.27,0,8.6,0,12.88,0"/><path class="b" d="M9.73,106.02c6.57,0,13.18.04,19.74-.13,6.03.74,10.99-2.31,15.45-5.99,3.12-2.58,5.54-2.99,9.44-2.24,1.71.13,3.44.82,5.15.95,4.01.42,8.08-.26,12.02-.95,4.96-.98,10.18-1.76,14.59-4.36,2.34-1.39,4.4-3.46,6.01-5.64,2.36-2.8,4.39-7.5,8.58-7.52,7.18,1.44,11.23,17.71,18.89,20.9,2.77,1.05,5.83.14,8.58-.52,2.54-.66,5.17-1.36,7.73-1.97,7.87-1.88,18.08,3.52,25.75,5.45,2.56.62,5.16,1.48,7.73,2.04,4.27,0,8.6,0,12.88,0"/><path class="b" d="M9.73,101.36c7.99-.2,16.14.61,24.04-.91,4.15-.87,7.73-3.34,11.16-5.71,2.9-2.15,5.98-2.56,9.44-1.77,1.99.25,3.99,1.02,6.01,1.12,3.12.27,6.32.11,9.44.04,4.56-.19,9.3.13,13.73-1.16,10.72-2.84,12.09-18.95,18.89-19.62,5.84.73,10.26,16.71,16.31,20.7,4.52,3,11.26.94,16.31.4,3.46-.79,6.97.35,10.3,1.27,3.98,1.19,7.96,2.66,12.02,3.57,3.66.87,7.48,1.22,11.16,1.96,4.55.24,9.18.02,13.73.09"/><path class="b" d="M9.73,96.7c4.85,0,9.74,0,14.59,0,3.72-.59,7.54-1.16,11.16-2.25,3.35-1.03,6.44-2.86,9.44-4.63,3.32-2.17,6.6-2.13,10.3-1.1,4.69,1.67,9.71,2.09,14.59,2.87,4.51.67,9.2,1.74,13.73.7,6.93-1.57,10.13-8.72,12.88-14.56,1.6-3.19,3.02-7.09,6.01-9.26,4.55-2.63,8.98,8.33,11.16,11.27,2.89,4.65,5.44,8.11,11.16,9.07,2.51.53,5.16.86,7.73.97,2.26.18,4.69-.06,6.87.66,5.67,1.69,11.3,3.79,17.17,4.71,4.25.67,8.61.99,12.88,1.53,4.27,0,8.6,0,12.88,0"/><path class="b" d="M9.73,92.03c3.41,0,6.89,0,10.3,0,1.38,0,2.91,0,4.29,0,.81-.12,1.8-.56,2.58-.82,4.22-1.42,8.72-2.08,12.88-3.71,3.45-1.13,6.57-3.7,10.3-3.77,3.02-.02,5.84,1.43,8.58,2.51,3.36,1.19,6.88,2.13,10.3,3.13,4.15,1.16,8.55,2.25,12.88,1.52,8.52-1.21,12.39-9.81,15.45-16.85,1.6-3.27,3.07-7.19,6.01-9.51,4.43-2.86,8.75,6.21,11.16,8.97,2.39,3.28,5.36,6.57,9.44,7.59,4.48,1.62,9.04,3.15,13.73,4.05,3.65,1.46,7.33,3.06,11.16,4,3.91,1.03,8,1.48,12.02,1.86,2.85.23,5.75.71,8.58,1.03,4.27,0,8.6,0,12.88,0"/><path class="b" d="M9.73,87.37c3.41,0,6.89,0,10.3,0,1.98-.14,4.31.49,6.01-.78,6.02-3.6,13.34-3.36,19.74-5.9,3.74-1.71,7.83-.14,11.16,1.77,2.18,1.14,4.56,2.1,6.87,2.96,1.94.71,4.01,1.4,6.01,1.9,3.38-.61,6.91-1.09,10.3-.23,2.29.81,6.81-2.04,8.58-3.52,6.91-5.73,7.96-15.94,14.59-21.82,2.72-2.03,5.8.34,7.73,2.36,2,2.03,3.94,4.35,6.01,6.31,1.75,1.66,3.8,3.25,6.01,4.25,1.64.71,3.54,1.14,5.15,1.94,3.02,1.63,6.21,3.08,9.44,4.24,2.19,1.11,4.5,2.27,6.87,2.97,5.26,1.7,10.88,1.46,16.31,2.09,2.87.29,5.73,1.11,8.58,1.47,4.27,0,8.6,0,12.88,0"/><path class="b" d="M9.73,82.71c3.12,0,6.32,0,9.44,0,1.08,0,2.36,0,3.43,0,.43,0,1.29,0,1.72,0,.49-.12,1.33-.61,1.72-.93,2.57-1.8,5.47-3.4,8.58-3.98,2.8-.55,5.75-.39,8.58-.57,1.99-.05,4.02-.81,6.01-.63,2.8.28,5.33,1.83,7.73,3.18,2.15,1.18,4.53,2.18,6.87,2.93,4.39-1.38,9.17-1.83,13.73-1.21,1.41.22,2.95.61,4.29,1.09,1.87-.16,3.61-1.47,5.15-2.45,4.32-3.03,6.96-7.85,9.44-12.37,1.85-3.06,3.64-6.75,6.87-8.56,4.87-2.36,10.93,5.76,14.59,8.45,3.27,2.84,7.03,5.2,11.16,6.55,3.16,1.92,6.84,2.71,10.3,3.86,3.58,1.23,7.38,2.02,11.16,2.24,3.12.2,6.33-.04,9.44.28,3.22.25,6.29,1.58,9.44,2.12,4.27,0,8.6,0,12.88,0"/><path class="b" d="M9.73,78.05c4.85,0,9.74,0,14.59,0,.9-.23,1.84-1.08,2.58-1.62,1.6-1.21,3.36-2.52,5.15-3.44,4.18-2.34,8.5-.99,12.88-.19,1.37.22,2.94.09,4.29.45,3.92,1.01,7.29,3.59,11.16,4.77,5.85-1.74,12.2-1.88,18.03.03,9.43-2.88,13.17-9.33,18.89-16.47,4.67-5.55,8.77-5.63,14.59-1.67,4.14,2.72,8.15,5.91,12.88,7.57,1.62.61,3.45.88,5.15,1.1,2.54.73,5.17,1.46,7.73,2.13,3.86,1.74,7.79,3.62,12.02,4.22,3.1.5,6.33.31,9.44.61,2.93.24,5.78,1.32,8.58,2.12,1.88.69,4.05.31,6.01.4,2.83,0,5.75,0,8.58,0"/><path class="b" d="M9.73,73.39c4.85,0,9.74,0,14.59,0,3.22-1.02,5.72-3.73,8.58-5.46,3.61-2.49,7.13-2.64,11.16-1.11,2.53.86,5.27,1.36,7.73,2.44,5.2,1.99,10.67,3.74,16.31,3.31,7.25-.32,14.17-3.37,19.74-7.94,3.65-2.89,6.85-6.63,11.16-8.57,6.99-3.08,14.03,1.74,20.6,3.82,2.48.86,5.12,1.59,7.73,1.96,3.46.29,7,.69,10.3,1.83,2.83,1.56,5.56,3.53,8.58,4.72,4.59,2.06,9.77,1.61,14.59,2.62,2.89.59,5.69,1.87,8.58,2.38,4.27,0,8.6,0,12.88,0"/><path class="b" d="M9.73,68.73c5.13-.1,10.34.2,15.45-.12,3.9-1.1,7-3.96,10.3-6.16,3.16-2.24,6.63-2.84,10.3-1.56,2.25.65,4.55,1.51,6.87,1.9,1.38.2,2.94.03,4.29.41,6.49,1.42,13.4,1.65,19.74-.58,4.53-1.51,8.75-3.91,12.88-6.28,10.76-6.24,19.56-3.37,30.9-1.32,2.82.5,5.72,1.02,8.58,1.15,3.14.15,6.64-.22,9.44,1.45,2.47,1.8,5,3.74,7.73,5.14,4.75,2.59,10.34,2.49,15.45,3.91,2.55.65,5.12,1.68,7.73,2.07,4.27,0,8.6,0,12.88,0"/><path class="b" d="M9.73,64.07c3.41,0,6.89,0,10.3,0,1.96-.05,4.06.15,6.01-.18,4.66-.79,8.27-4.13,12.02-6.73,2.7-1.95,6.11-3.17,9.44-2.4,1.64.39,3.46.71,5.15.47,1.4-.19,2.85-1.04,4.29-.8,4,.26,8.01,1.06,12.02,1.08,6.21.11,12.18-1.98,18.03-3.82,12.26-3.67,25.25-1.88,37.77-.86,1.96.14,4.05.28,6.01.08,1.67-.21,3.46-.66,5.15-.37,2.44.15,4.16,2.24,6.01,3.6,2.35,1.89,4.93,3.71,7.73,4.87,3,1.25,6.3,1.84,9.44,2.6,2.85.66,5.73,1.55,8.58,2.19,1.92.48,4.05.21,6.01.27,2.83,0,5.75,0,8.58,0"/><path class="b" d="M9.73,59.41c3.7,0,7.46,0,11.16,0,3.15,0,6.45.18,9.44-.99,6.27-2.12,10.47-8.55,17.17-9.56,1.69-.08,3.55.14,5.15-.57,2.26-.23,4.57-.84,6.87-.7,4.3.1,8.58,1.09,12.88,1.25,4-.17,8.02-.88,12.02-1.16,3.69-.44,7.45-.41,11.16-.43,4.56-.04,9.18-.06,13.73.03,4.84.59,9.73.53,14.59.39,2.25-.1,4.65.04,6.87-.43,2.97-1.15,5.44-1.8,8.58-.6,2.08.55,3.5,2.48,5.15,3.75,2.05,1.73,4.4,3.32,6.87,4.41,5.47,2.25,11.38,3.43,17.17,4.55,4.55.16,9.18.01,13.73.06"/><path class="b" d="M9.73,54.75c3.99,0,8.03,0,12.02,0,3.76.09,7.66,0,11.16-1.54,4.39-1.77,8-5.01,12.02-7.42,1.3-.76,2.82-1.47,4.29-1.77.78.18,1.78.53,2.58.6,2.04.09,4.01-.98,6.01-1.22,4.86-.98,9.74.37,14.59.61,5.71.39,11.48,0,17.17.68,8.53.9,17.17,1.32,25.75,1.09,4.31-.09,8.59-1.07,12.88-1.48,1.86,0,3.56-1,5.15-1.84,1.29-.58,2.87-.91,4.29-.81,2.45.21,4.8,1.42,6.87,2.69,1.81,1.82,3.85,3.64,6.01,5.02,5.11,3.27,11.28,4.3,17.17,5.26,4.83.32,9.75.04,14.59.13"/><path class="b" d="M9.73,50.09c5.99-.12,12.05.28,18.03-.23,4.22-.47,8.3-1.99,12.02-4.01,1.98-1.05,4.02-2.28,6.01-3.32,1.36-.29,2.91-.33,4.29-.21,1.08.1,2.34.47,3.43.26,3.32-1.05,6.79-1.96,10.3-2.02,2.84-.02,5.75.25,8.58.42,4.86.53,9.76,1.24,14.59,2,7.33,1.35,14.87,2.46,22.32,1.47,6.88-.75,13.77-1.64,20.6-2.74,1.21-.33,2.38-1.28,3.43-1.93,1.28-.79,2.82-1.54,4.29-1.87,3.43-.9,6.67,1.08,9.44,2.87,1.52,1.02,2.8,2.68,4.29,3.76,2.49,1.98,5.5,3.4,8.58,4.16,2.79.65,5.71,1.25,8.58,1.36,4.56.03,9.17,0,13.73.01"/><path class="b" d="M9.73,45.43c4.85,0,9.74,0,14.59,0,3.43-.05,6.95.09,10.3-.76,2.98-.58,5.77-1.99,8.58-3.04,3.06-.83,6.26-1.58,9.44-1.58,1.12.13,2.37-.29,3.43-.55,1.66-.4,3.46-.76,5.15-.99,4.53-.5,9.22-.54,13.73.16,6.34,1.02,12.52,3.07,18.89,3.95,6.29.65,12.62-.38,18.89-.87,5.71-.43,11.49-.46,17.17-1.18,2.49-.71,4.47-2.74,6.87-3.7,3.7-1.88,7.77-.68,11.16,1.3,1.08.6,2.39,1.29,3.43,1.96,1,.85,2.29,1.77,3.43,2.42,2.6,1.48,5.65,2.19,8.58,2.63,2.24.36,4.61.2,6.87.26,3.99,0,8.03,0,12.02,0"/><path class="b" d="M9.73,40.77c6.86,0,13.75.09,20.6-.24,2.85-.14,5.78.54,8.58-.17,6.33-1.03,12.53-2.89,18.89-3.74,3.11-.45,6.3-.8,9.44-.94,3.68-.44,7.48-.49,11.16,0,3.16.42,6.35,1.08,9.44,1.84,2.24.56,4.56,1.27,6.87,1.46,5.99.51,12.03-.28,18.03-.39,5.71-.18,11.48.36,17.17-.23,2.16-.5,4.04-2.04,6.01-3,5.35-3.09,9.42-1.74,14.59.83,2.26,1,4.59,2.11,6.87,3.05,2.45.87,5.13,1.39,7.73,1.5,5.71-.06,11.46.05,17.17,0"/><path class="b" d="M9.73,36.1c7.44-.04,14.91.25,22.32-.59,2.26-.21,4.62-.22,6.87.07,1.67.08,3.49.7,5.15.34,3.75-.59,7.45-1.74,11.16-2.53,3.12-.2,6.32-.31,9.44-.48,6.28-.33,12.58-1.48,18.89-.9,3.21.11,6.37.95,9.44,1.85,2.22.5,4.6.68,6.87.77,5.13.16,10.32-.03,15.45.15,4.84.11,9.76.65,14.59.15,2.95-.79,5.66-2.53,8.58-3.42,6.42-2.22,12.63,1.82,18.88,2.83,4.14,1.34,8.53,1.87,12.88,1.78,3.99,0,8.03,0,12.02,0"/><path class="b" d="M9.73,31.44c5.14-.02,10.32.05,15.45-.03,2.85-.13,5.73-.77,8.58-.74,2.55.02,5.19.19,7.73.47.78.08,1.8.23,2.58.28,1.08-.15,2.36-.36,3.43-.55,2.57-.37,5.15-1.22,7.73-1.51,3.99.1,8.03.18,12.02.05,6.59-.29,13.13-1.66,19.74-1.63,2.02-.06,4.07.59,6.01,1.1,1.94.46,4.03.74,6.01.92,4.84.42,9.74.47,14.59.69,4.56.18,9.17.52,13.73.4,2.64,0,5.21-.98,7.73-1.66,2.76-.81,5.7-1.4,8.58-1.29,3.74.14,7.45,1.03,11.16,1.47,2.25.31,4.62.42,6.87.7,1.94.47,4.03.86,6.01,1.16,4.82.42,9.75.06,14.59.17"/><path class="b" d="M9.73,26.78c5.14-.01,10.32.03,15.45-.02,2.26-.13,4.6-.38,6.87-.32,4.28-.13,8.61.62,12.88.06,3.14-.26,6.32-.75,9.44-1.1,5.7.29,11.46.5,17.17.21,5.73-.36,11.44-1.3,17.17-1.63,2.86.08,5.73.92,8.58,1.14,4.83.52,9.74.71,14.59.95,5.42.23,10.89.54,16.31.26,5.69-.63,11.41-1.67,17.17-1.33,6.28.31,12.6.6,18.89.57,1.71.17,3.43,1.06,5.15,1.21,4.27,0,8.6,0,12.88,0"/><path class="b" d="M9.73,22.12c11.15-.03,22.33.08,33.48-.1,9.15-.33,18.32-.09,27.47-.11,4.57.02,9.18-.32,13.73-.6,2.83-.2,5.75-.46,8.58-.22,8.57.42,17.17.88,25.75.91,8.29.11,16.6-.26,24.89-.21,7.43.04,14.89.08,22.32.03,1.08-.06,2.38.06,3.43.31,4.27,0,8.6,0,12.88,0"/><path class="b" d="M9.73,17.46h172.54"/><path class="b" d="M9.73,12.8h172.54"/><path class="b" d="M9.73,8.14h172.54"/></svg>