<?xml version="1.0" encoding="UTF-8"?><svg id="a" xmlns="http://www.w3.org/2000/svg" width="1920" height="2400" viewBox="0 0 192 240"><defs><style>.b{fill:none;stroke:#fff;stroke-miterlimit:10;stroke-width:.3px;}.c{stroke-width:0px;}</style></defs><rect class="c" x="0" width="192" height="240"/><path class="b" d="M9.73,231.86h172.54"/><path class="b" d="M9.73,227.2h172.54"/><path class="b" d="M9.73,222.54c21.46,0,42.92,0,64.38,0,6,.14,12.02-.51,18.03-.41,7.43-.02,14.88.59,22.32.41,22.6,0,45.21,0,67.82,0"/><path class="b" d="M9.73,217.88c4.85,0,9.74,0,14.59,0,1.09-.21,2.32-.44,3.43-.33,13.16.16,26.33-.06,39.49-.17,5.46-.24,10.88-1.44,16.31-1.98,3.42-.5,6.9-.16,10.3-.44,7.58-.84,14.78,2.69,22.32,2.82,6.56.16,13.17-.12,19.74.05,8,.13,16.03-.27,24.04-.27,2.54-.01,5.18.03,7.73.06.73.18,1.81.29,2.58.26,3.99,0,8.03,0,12.02,0"/><path class="b" d="M9.73,213.22c3.41,0,6.89,0,10.3,0,1.38,0,2.91,0,4.29,0,1.41-.18,2.9-.7,4.29-.98,1.94-.33,4.05.04,6.01,0,3.41.08,6.89.09,10.3.04,2.84-.05,5.75-.14,8.58-.32,5.13.15,10.33.32,15.45-.07,3.73-.4,7.51-.98,11.16-1.84,3.4-.77,6.82-1.83,10.3-2.22,1.08-.1,2.38-.15,3.43-.45.77-.27,1.8-.68,2.58-.92,3.53-1.25,7.23.09,10.3,1.9,7.44,4.31,11.23,5.19,19.74,4.66,2.84-.02,5.75.19,8.58.19,3.12-.11,6.32-.25,9.44-.4,6.28-.3,12.61-.76,18.89-.31,1.68.12,3.46.64,5.15.7,4.56.08,9.17,0,13.73.03"/><path class="b" d="M9.73,208.56c3.41,0,6.89,0,10.3,0,1.97-.08,4.11.27,6.01-.38,2.23-.6,4.57-1.23,6.87-1.55,3.7.2,7.46.33,11.16.3,3.13.02,6.32-.26,9.44-.37,5.11.6,10.32.72,15.45.45,4.92-.37,9.9-1.02,14.59-2.61,1.98-.65,4.03-1.45,6.01-2.09,1.68-.53,3.57-.89,5.15-1.7,1.97-.91,3.77-2.84,6.01-2.95,1.97.18,4.05.43,6.01.74.88.23,1.86.98,2.58,1.51,2.75,2.11,5.43,4.53,8.58,6.02,4.32,1.83,9.13,1.9,13.73,1.57,2.83-.11,5.75-.18,8.58-.27,5.42-.14,10.89-.55,16.31-.36,1.38.05,2.92.17,4.29.34,1.94.52,4,1.09,6.01,1.26,5.13.21,10.32.03,15.45.09"/><path class="b" d="M9.73,203.9c4.85,0,9.74,0,14.59,0,3.45-.85,6.83-2.3,10.3-3.13,1.07-.38,2.32-.39,3.43-.28,1.38.07,2.91.13,4.29.18,3.41.17,6.89-.05,10.3.04,8.98,1.93,18.45,2.25,27.47.37,4.83-1.17,9.38-3.47,13.73-5.82,2.06-1.24,4.01-2.88,6.01-4.2.72-.47,1.75-1.06,2.58-1.32.42.06,1.29.16,1.72.22,2.26.37,4.68.63,6.87,1.32,2.35,1.64,4.56,3.69,6.87,5.38,2.41,1.37,5.03,2.64,7.73,3.34,2.21.6,4.61.39,6.87.45,3.41.05,6.89.17,10.3.15,3.12,0,6.32-.13,9.44-.17,1.96.07,4.12-.18,6.01.39,3.07,1.13,6.18,2.48,9.44,2.93,4.83.33,9.75.04,14.59.14"/><path class="b" d="M9.73,199.23c3.12,0,6.32,0,9.44,0,1.96-.09,4.08.21,6.01-.18,3.75-1.48,7.43-3.29,11.16-4.82,1.07-.41,2.3-1.01,3.43-1.21.45.03,1.27.08,1.72.11,2.55.18,5.18.43,7.73.64,3.62.02,6.8,2.11,10.3,2.73,5.9,1.25,12.05,1.48,18.03.73,4.58-.55,9.02-2.21,12.88-4.73,5.48-3.27,12.05-10.85,18.89-9.55,2.89.6,5.4,2.43,7.73,4.15,3.43,1.77,6.71,4,10.3,5.45,1.84.86,4.04.48,6.01.66,2.83.12,5.75.26,8.58.33,2.83.07,5.75.06,8.58.05,1.7.03,3.6-.23,5.15.61,4.25,1.68,8.41,3.87,12.88,4.93,4.55.22,9.18.02,13.73.09"/><path class="b" d="M9.73,194.57c4.85,0,9.74,0,14.59,0,3.98-1.18,7.54-3.71,11.16-5.71,2.48-1.33,4.98-3.1,7.73-3.78,2.57.34,5.22.84,7.73,1.51,1.48.48,2.95,1.4,4.29,2.17,4.94,2.79,10.68,3.99,16.31,4.06,5.53,0,11.34-.49,16.31-3.13,2.52-1.31,4.65-3.4,6.87-5.14,1.51-1.25,3.37-2.25,5.15-3.05,2.17-1.04,4.49-2.08,6.87-2.55,2.87-.61,5.94-.13,8.58,1.1,2.35.66,4.73,1.56,6.87,2.74,2.26,1.2,4.55,2.58,6.87,3.68,1.01.48,2.35.3,3.43.31,3.99-.07,8.03-.17,12.02-.21,1.37-.01,2.92-.03,4.29-.04,1.12-.08,2.44.02,3.43.61,3.43,1.52,6.89,3.15,10.3,4.71,2.24.91,4.49,2.25,6.87,2.72,4.27,0,8.6,0,12.88,0"/><path class="b" d="M9.73,189.91c3.41,0,6.89,0,10.3,0,1.96-.13,4.22.41,6.01-.59,4.25-1.98,8.13-4.75,12.02-7.34,1.9-1.25,3.94-2.52,6.01-3.48,1.71-.86,2.5-.97,4.29-.32,3.27.73,5.86,2.98,8.58,4.78,2.85,1.85,6.09,3.22,9.44,3.81,3.37.63,6.88.69,10.3.49,2.86-.16,5.83-.4,8.58-1.23,1.82-.54,3.66-1.49,5.15-2.67,2.1-1.85,4.2-4.01,6.87-5.02,1.93-.61,4.04-.99,6.01-1.46,3.35-.74,6.88-1.24,10.3-.71,2.59-.13,5.28.26,7.73,1.14,2.04.72,4.09,1.77,6.01,2.77,1.04.53,2.26,1.3,3.43,1.45.76,0,1.82-.12,2.58-.21,3.69-.5,7.44-1.1,11.16-1.35.75-.06,1.82-.12,2.58-.16,1.46.28,2.92,1.14,4.29,1.7,3.73,1.69,7.48,3.51,11.16,5.29,2.27.97,4.49,2.45,6.87,3.1,4.27,0,8.6,0,12.88,0"/><path class="b" d="M9.73,185.25c4.85,0,9.74,0,14.59,0,7.57-2.52,13.54-8.34,20.6-11.9,1.82-.73,4.04-2.23,6.01-1.28,4.2,2.03,7.56,5.66,12.02,7.26,5.44,2.06,11.43,1.99,17.17,1.88,13.67-.09,9.74-8.27,21.46-8.11,3.12-.2,6.31-.52,9.44-.59,2.81-.43,5.78-.52,8.58.03,2.36.45,4.71,1.39,6.87,2.44,1.62.67,3.29,2.17,5.15,1.71,2.87-.54,5.72-1.51,8.58-2.06,1.36-.21,2.91-.69,4.29-.46,2.3.8,4.65,1.82,6.87,2.82,4.01,1.83,8.02,3.8,12.02,5.65,1.97.81,3.94,2.06,6.01,2.59,4.27,0,8.6,0,12.88,0"/><path class="b" d="M9.73,180.59c3.12,0,6.32,0,9.44,0,1.96-.09,4.08.21,6.01-.18,5.07-1.98,9.94-4.55,14.59-7.37,4.07-2.3,8.18-5.18,12.88-5.93,1.52.31,2.94,1.43,4.29,2.15,1.89,1.11,3.95,2.22,6.01,3,4.92,1.83,10.28,2.06,15.45,2.59,1.07.11,2.36.08,3.43.03,1.38.06,2.91.38,4.29.46,4.57.42,5.66-2.81,9.44-4.1,1.89-.71,4.02-.69,6.01-.71,1.7-.1,3.52-.42,5.15-.9,5.17-2.03,9.95-5.21,15.45-2.04,2.65,1.29,4.97,3.47,7.73,4.51,3.48-.79,6.77-2.52,10.3-3.16,1.44-.07,2.95.67,4.29,1.12,2.61,1.02,5.22,2.31,7.73,3.56,3.28,1.7,6.87,2.89,10.3,4.25,2.3.78,4.54,2.1,6.87,2.74,4.27,0,8.6,0,12.88,0"/><path class="b" d="M9.73,175.93c3.41,0,6.89,0,10.3,0,1.96-.1,4.14.32,6.01-.45,5.96-1.95,11.58-4.81,17.17-7.61,1.94-.95,4.02-1.9,6.01-2.75,1.85-.89,3.94-1.52,6.01-1.53,1.14.06,2.36.7,3.43,1.03,1.65.58,3.46,1.15,5.15,1.6,3.12.87,6.43,1.37,9.44,2.6,4.53,1.71,8.24,5.22,12.88,6.67,3.22.96,4.97-.19,7.73-1.58,2.74-1.22,5.73-2.03,8.58-2.94,6.63-2.23,11.8-13.61,18.03-12.59,3.5.78,5.91,3.88,8.58,6.04,2.95-.14,5.75-1.47,8.58-2.16,2.36.09,4.68,1.2,6.87,2.03,2.86,1.21,5.75,2.56,8.58,3.84,3.43,1.55,6.93,3.14,10.3,4.82,2.01.87,3.93,2.32,6.01,2.98,4.27,0,8.6,0,12.88,0"/><path class="b" d="M9.73,171.27c4.85,0,9.74,0,14.59,0,9.52-2.3,17.82-7.81,26.61-11.91,3.64-1.54,6.98,1.32,10.3,2.43,3.17,1.21,6.46,2.36,9.44,4,2.97,1.58,5.69,3.74,8.58,5.44,3.28-2.09,7.22-3.53,11.16-3.06,4.28.95,8.73,1.59,12.88,3.06,7.4-3.18,10.69-16.29,17.17-19.31,3.77-1.18,5.95,2.93,8.58,4.7,2.58.33,5.21-.48,7.73-.98,1.75-.53,3.54.69,5.15,1.24,2.6,1.11,5.21,2.42,7.73,3.7,6.35,3.33,12.75,6.68,18.89,10.4,1.59.55,3.49.16,5.15.27,2.83,0,5.75,0,8.58,0"/><path class="b" d="M9.73,166.61c3.41,0,6.89,0,10.3,0,1.38,0,2.92,0,4.29,0,1.12-.15,2.36-.69,3.43-1.04,5.48-1.88,10.71-4.57,15.45-7.91,2-1.39,4.06-2.93,6.01-4.39,1.3-.88,2.62-2.32,4.29-2.36,1.68.01,3.11,1.13,4.29,2.21,1.34,1.1,2.88,2.28,4.29,3.29,4.84,3.31,9.67,6.75,14.59,9.95.9.17,1.81-.58,2.58-.94,1.04-.52,2.32-1.05,3.43-1.39,3.31-1.01,6.86-1.25,10.3-1.13,3.13.04,6.34,0,9.44.45,1.96.32,3.77,1.56,5.15,2.95l.86-.3c2.78-3.29,4.82-7.34,6.87-11.11,1.96-3.23,3.88-8.27,7.73-9.53,2.66-.44,4.15,2.27,6.01,3.59,1.86.78,4.03.76,6.01.62.77-.06,1.81-.15,2.58-.23,1.16.22,2.37.98,3.43,1.47,2.59,1.3,5.22,2.75,7.73,4.21,5.94,3.53,11.91,7.09,18.03,10.31.75.41,1.72,1.12,2.58,1.29,1.37,0,2.92,0,4.29,0,2.83,0,5.75,0,8.58,0"/><path class="b" d="M9.73,161.95c4.85,0,9.74,0,14.59,0,6.93-1.92,13.5-5.5,18.89-10.27,2.42-2.14,4.75-4.6,6.87-7.03,1.68-1.58,3.21-5.22,6.01-4.08,5.52,4.78,9.95,10.77,15.45,15.59,1.33,1.21,2.86,2.52,4.29,3.62,1.03.68,2.15,1.86,3.43,1.99,4.87-3.07,10.67-3.99,16.31-4.43,6-.71,9.51-.57,13.73,4.25l.86-.3c2.74-3.52,4.82-7.72,6.87-11.66,1.79-3.01,4.52-10.18,8.58-10.04,1.36.23,2.45,1.46,3.43,2.32.71.51,1.75,1.05,2.58,1.33,1.9.64,4.02.81,6.01.91,2.09.89,4.04,2.39,6.01,3.53,4.86,3,9.58,6.35,14.59,9.1,2.47,1.36,5.15,2.52,7.73,3.66,1.09.44,2.27,1.27,3.43,1.52,4.27,0,8.6,0,12.88,0"/><path class="b" d="M9.73,157.29c3.7,0,7.46,0,11.16,0,1.08,0,2.36,0,3.43,0,1.75-.35,3.5-1.27,5.15-1.92,7.42-3.17,13.99-8.3,18.89-14.72,1.5-1.93,3.02-4.21,4.29-6.3,1-1.43,1.74-3.78,3.43-4.52,5.15.69,9.8,9.31,12.88,13.25,3.57,5.02,7.3,10.15,12.02,14.17,2.59-1.95,5.4-3.88,8.58-4.7,1.06-.3,2.36-.39,3.43-.57,1.67-.31,3.45-.83,5.15-.98,4.76-.16,8.87,3.02,12.02,6.27,3.1-3.42,5.49-7.59,7.73-11.61,2-3.16,4.69-9.98,8.58-10.74,1.36-.06,2.49,1.09,3.43,1.92.98.78,2.27,1.52,3.43,1.99,1.34.54,2.89.95,4.29,1.26,2.07,1.2,4.01,2.88,6.01,4.2,4.42,3.07,8.85,6.31,13.73,8.63,3.86,1.77,8.04,2.97,12.02,4.39,4.27,0,8.6,0,12.88,0"/><path class="b" d="M9.73,152.63c3.12,0,6.32,0,9.44,0,1.96-.09,4.08.21,6.01-.18,9.56-3.86,19.55-8.68,25.75-17.24,1.23-1.73,2.49-3.94,3.43-5.85,1.05-2.52,2.99-5.34,6.01-5.41,5.32.32,9.41,9.62,12.02,13.71,2.84,4.94,5.71,10.1,9.44,14.43l.86.15c1.88-1.96,4.18-3.85,6.87-4.51.76-.18,1.83-.16,2.58-.42.4-.32,1.25-.86,1.72-1.06,5.52-2.12,11.46,3.04,15.45,6.37,3.7-3.2,6.74-7.23,9.44-11.28,2.35-3.23,4.22-7.35,7.73-9.48,1.34-.64,2.54-.06,3.43,1,.72.64,1.76,1.43,2.58,1.93,1.58.97,3.42,1.75,5.15,2.38,3.67,2.71,7.27,5.66,11.16,8.05,3.18,2.03,6.66,3.75,10.3,4.79,3.4.94,6.94,1.6,10.3,2.63,4.27,0,8.6,0,12.88,0"/><path class="b" d="M9.73,147.97c4.85,0,9.74,0,14.59,0,2.62-.62,5.17-1.87,7.73-2.73,3.49-1.22,6.99-2.59,10.3-4.23,3.91-1.85,7.69-4.35,10.3-7.86,2.61-3.61,7.47-13.53,12.88-12.09,7.84,3.21,12.26,21.46,19.74,26.82.96-.79,2.24-1.53,3.43-1.88,1.17-.43,2.42-1.22,3.43-1.93,3.72-2.22,7.81.35,11.16,2.1,1.09.48,2.21,1.55,3.43,1.59,4.49-2.82,8.53-6.43,12.02-10.41,2.56-2.63,5.68-7.24,9.44-7.87,1.24.53,2.29,1.81,3.43,2.53,1.83,1.28,3.96,2.33,6.01,3.2,3.83,2.82,7.7,5.75,12.02,7.79,2.72,1.33,5.63,2.49,8.58,3.15,2.51.58,5.18.8,7.73,1.14,1.09.12,2.35.53,3.43.68,1.07,0,2.36,0,3.43,0,3.12,0,6.32,0,9.44,0"/><path class="b" d="M9.73,143.3c4.85,0,9.74,0,14.59,0,2.32-.51,4.6-1.58,6.87-2.29,3.38-1.18,6.87-2.22,10.3-3.24,3.62-1.09,7.36-2.37,10.3-4.82,1.64-1.32,3.02-3.25,4.29-4.91,2.45-2.62,4.47-5.81,6.87-8.47,3.89-4.49,7.06-3.62,10.3.97,2.51,3.55,4.56,7.62,6.87,11.3,1.44,2.29,3.13,4.72,5.15,6.54,2.2,1.67,4.57,3.36,6.87,4.9,2.03-1.23,4.59-1.35,6.87-.86,1.1.16,2.31.84,3.43.71,2.35-.91,4.7-2.12,6.87-3.41,3.09-1.83,6.01-4.12,8.58-6.63,2.54-2.39,4.81-5.29,7.73-7.24.71-.42,1.73-.87,2.58-.7,1.48.89,2.85,2.3,4.29,3.26,1.58,1.14,3.4,2.21,5.15,3.08,1.11.77,2.33,1.84,3.43,2.62,4.91,3.5,10.32,6.69,16.31,7.85,3.65.79,7.51.46,11.16,1.21,4.54.29,9.18.03,13.73.11"/><path class="b" d="M9.73,138.64c4.85,0,9.74,0,14.59,0,2.3-.52,4.58-1.54,6.87-2.11,3.08-.89,6.3-1.59,9.44-2.22,5.6-1.02,11.36-2.51,15.45-6.72,4.52-3.18,7.26-8.25,11.16-12.05,3.74-3.59,6.89-.96,9.44,2.39,2.06,2.68,3.94,5.73,6.01,8.41,2.38,3.1,5.53,5.67,8.58,8.08,5.03,3.83,11.83,1.77,17.17-.32,5.55-2.15,10.19-6.03,14.59-9.94,1.71-1.25,3.7-3.45,6.01-2.81,2.07.74,4.1,1.9,6.01,2.98,1.09.66,2.49,1.31,3.43,2.19,4.64,4.43,10.07,8.37,16.31,10.14,3.6,1.06,7.44,1.12,11.16,1.43,1.08.08,2.36.42,3.43.55.75,0,1.82,0,2.58,0,3.41,0,6.89,0,10.3,0"/><path class="b" d="M9.73,133.98c4.85,0,9.74,0,14.59,0,4.28-1.27,8.41-2.68,12.88-3.37,4.29-.78,8.72-1.29,12.88-2.67,2.08-.66,4.12-1.71,6.01-2.8,1.47-.59,3.02-1.47,4.29-2.41,3.29-2.42,5.61-5.99,8.58-8.74,5.46-5.31,9.9.57,13.73,4.52,3.14,3.15,6.47,6.39,10.3,8.7,6.95,3.59,15.53,1.99,22.32-1.25,4.53-2.07,8.24-5.74,12.88-7.56,3.2-.94,6.58.32,9.44,1.75,1.46,1.11,2.88,2.63,4.29,3.81,5.23,4.76,11.78,8.12,18.89,8.74,2.86.28,5.79.65,8.58,1.29,4.27,0,8.6,0,12.88,0"/><path class="b" d="M9.73,129.32c4.85,0,9.74,0,14.59,0,2.28-.57,4.55-1.59,6.87-2.09,4.8-1.23,9.77-1.84,14.59-2.95,4.04-.81,7.96-2.4,12.02-3.07,7.25-1.17,10.72-10.3,18.03-10.65,5.14.25,10.21,5.31,14.59,7.88,7.82,5.14,17.86,6.4,26.61,2.96,3.5-1.26,6.84-3.1,10.3-4.48,2.72-1.46,5.39-2.78,8.58-2.19,2.45.15,4.16,2.27,6.01,3.66,2.67,2.2,5.51,4.38,8.58,5.98,4.75,2.56,10.21,3.26,15.45,4.16,1.09.18,2.34.65,3.43.8,1.07,0,2.36,0,3.43,0,3.12,0,6.32,0,9.44,0"/><path class="b" d="M9.73,124.66c3.41,0,6.89,0,10.3,0,1.38,0,2.91,0,4.29,0,.81-.11,1.81-.52,2.58-.77,5.07-1.62,10.36-2.6,15.45-4.14,3.08-.88,6.24-1.89,9.44-2.18,2.31-.3,4.64.26,6.87.02,7.56-1.53,13.19-9.14,21.46-7.58,2.98.44,5.83,1.69,8.58,2.86,5.6,2.14,11.18,4.75,17.17,5.58,5.47.8,11.03-.18,16.31-1.61,1.67-.46,3.49-.9,5.15-1.4,1.51-.64,2.85-1.93,4.29-2.69,2.03-1.02,4.6-2.08,6.87-1.38,3,1.52,5.76,3.65,8.58,5.46,3.17,2.08,6.66,3.83,10.3,4.93,3.93,1.2,8.06,1.86,12.02,2.9,4.27,0,8.6,0,12.88,0"/><path class="b" d="M9.73,120c4.85,0,9.74,0,14.59,0,3.16-.67,6.35-1.58,9.44-2.52,2.93-.94,5.78-2.32,8.58-3.58,3.17-1.46,6.86-2.59,10.3-1.41.78.25,1.75.77,2.58.84.45-.06,1.27-.11,1.72-.1,3.79-.03,7.54-1.01,11.16-2.04,4.43-1.29,9.11-2.04,13.73-1.57,2.28.18,4.61.7,6.87,1.06,3.16.4,6.36,1,9.44,1.82,6.97,1.96,14.24,2.76,21.46,2.11,11.73-.65,6.42-1.09,15.45-5.48.73-.31,1.8-.68,2.58-.88,1.76-.04,3.55.77,5.15,1.42,3.2,1.44,6.28,3.31,9.44,4.83,3.01,1.46,6.22,2.68,9.44,3.58,2.25.61,4.66,1.02,6.87,1.76,1.64.31,3.48.09,5.15.15,2.83,0,5.75,0,8.58,0"/><path class="b" d="M9.73,115.34c3.41,0,6.89,0,10.3,0,2.27-.02,4.64.15,6.87-.39,6.7-.98,10.96-3.95,16.31-7.72,2.47-1.64,5.74-3.21,8.58-1.54.44.27,1.24.7,1.72.87.78-.02,1.8-.22,2.57-.16,6.47,1.51,13.14,1.84,19.74,2.26,3.71.25,7.45.81,11.16,1.02,2.84.04,5.75-.24,8.58-.08,4.58.19,9.17.81,13.73,1.19,5.13.45,10.32.74,15.45,1.1,2.58.16,4.76-1.52,6.87-2.75,1.34-.77,2.88-1.56,4.29-2.19,1.28-.68,2.84-1.03,4.29-.84,3.88.24,7.6,1.76,11.16,3.22,3.93,1.62,7.93,3.28,12.02,4.45,1.97.46,4.03,1.15,6.01,1.56,4.27,0,8.6,0,12.88,0"/><path class="b" d="M9.73,110.68c3.41,0,6.89,0,10.3,0,3.13.02,6.35.06,9.44-.55,4.63-.76,8.54-3.59,12.02-6.58,2.81-2.3,6.46-5.57,10.3-3.74,1.41.47,2.88-.38,4.29-.34,4.46.93,8.58,3.1,12.88,4.56,5.5,1.84,11.33,3.34,17.17,3.15,3.14-.25,6.3-.99,9.44-1.27,4.26-.44,8.6-.49,12.88-.3,3.71.16,7.46.49,11.16.77,2.25.1,4.66.52,6.87-.08,2.67-.85,5.02-2.69,7.73-3.49,1.34-.41,2.87-1.01,4.29-.99,2.9.29,5.81,1.04,8.58,1.91,7.4,2.42,14.51,5.98,22.32,6.95,4.27,0,8.6,0,12.88,0"/><path class="b" d="M9.73,106.02c4.27,0,8.6,0,12.88,0,3.43-.03,7,.22,10.3-.9,3.26-1.05,6.06-3.27,8.58-5.53,2.1-1.81,4.2-4.01,6.87-4.97,1.65-.62,3.51.33,5.15-.34.76-.3,1.75-.76,2.58-.82.78.09,1.82.28,2.58.48,3.26.86,6.35,2.44,9.44,3.76,5.35,2.37,11.29,4.01,17.17,3.17,3.44-.59,6.84-1.71,10.3-2.18,7.37-1.21,14.9-1.03,22.32-.39,1.67.14,3.48.3,5.15.44,1.99.25,4.17.31,6.01-.65,1.61-.81,3.42-1.53,5.15-2.03,1.35-.33,2.89-.89,4.29-.71,2.64.59,5.26,1.63,7.73,2.72,7.66,3.52,15.48,7.47,24.04,7.94,3.99,0,8.03,0,12.02,0"/><path class="b" d="M9.73,101.36c6-.07,12.04.2,18.03-.21,1.39-.09,2.91.15,4.29.15,3.58-.6,6.76-2.68,9.44-5.05,2.67-2.17,5.09-5.28,8.58-6.08,1.5.04,3.07-.33,4.29-1.23,3.54-2.43,10.01.42,13.73,1.62,3.03,1.07,6.22,1.99,9.44,2.21,4.4.39,8.76-.76,12.88-2.19,3.07-.88,6.28-1.5,9.44-1.91,6.27-.82,12.68-.39,18.89.72,2.26.39,4.62.87,6.87,1.34.75.16,1.8.41,2.58.42.81-.09,1.82-.57,2.58-.85,2.2-.81,4.57-1.47,6.87-1.94,1.43.05,2.95.68,4.29,1.12,7.79,2.83,14.29,8.56,22.32,10.79,1.96.36,4.01,1.11,6.01,1.08,3.99,0,8.03,0,12.02,0"/><path class="b" d="M9.73,96.7c4.85,0,9.74,0,14.59,0,1.68-.15,3.46-.49,5.15-.52,1.69-.06,3.51.1,5.15.52,1.46-.38,3-1.05,4.29-1.81,3.45-2.01,6.16-5.17,9.44-7.41,1.32-.98,2.84-1.04,4.29-1.56,1.18-.6,2.27-1.76,3.43-2.38,6.44-2.43,13.16.43,19.74.32,4.41-.02,8.81-1.14,12.88-2.8,2.7-1.2,5.72-1.69,8.58-2.31,4.49-.91,9.16-1.43,13.73-.97,4.11.39,8.16,1.53,12.02,2.95,2.29.75,4.54,1.99,6.87,2.6,1.68-.3,3.47-.81,5.15-1.13,1.07-.17,2.34-.67,3.43-.45,4.52,1.26,8.94,3.12,12.88,5.7,4.25,2.64,8.16,6.08,12.88,7.86,1.65.51,3.44,1.13,5.15,1.4.75,0,1.82,0,2.58,0,3.41,0,6.89,0,10.3,0"/><path class="b" d="M9.73,92.03c4.85,0,9.74,0,14.59,0,2.25-.29,4.58-.84,6.87-.82,1.39-.02,2.94.14,4.29.45,1.19.5,2.36.1,3.43-.46,3.52-1.65,6.35-4.52,9.44-6.81,1.23-.98,2.82-1.52,4.29-2,1.21-.67,2.3-1.92,3.43-2.69,3.17-1.68,6.73-2.68,10.3-2.92,4.57-.31,9.23-.43,13.73-1.34,2.87-.54,5.8-1.21,8.58-2.08,1.41-.39,2.86-1.2,4.29-1.51,5.76-.43,11.4-2.1,17.17-2.44,4.74-.29,9.51.92,13.73,3.04,1.41.69,2.95,1.55,4.29,2.36,1.49,1,3.31,1.89,5.15,1.68,1.37-.15,2.92-.31,4.29-.5,2.89.7,5.76,1.94,8.58,2.9,3.38,1.26,6.58,3.15,9.44,5.34,2.79,2.05,5.46,4.51,8.58,6.04,1.62.69,3.41,1.47,5.15,1.77.75,0,1.82,0,2.58,0,3.41,0,6.89,0,10.3,0"/><path class="b" d="M9.73,87.37c4.85,0,9.74,0,14.59,0,4.52-.86,9.27-1.55,13.73,0,4.22-1.34,7.53-4.47,11.16-6.86,1.28-.89,3.04-1.14,4.29-2.08,1.96-1.87,4.36-3.25,6.87-4.26,4.32-1.83,9.09-2.36,13.73-2.71,4.85-.47,9.74-.04,14.59.11,1.7.04,3.48-.43,5.15-.7,1.66-.28,3.47-.3,5.15-.3,3.85-.16,7.52-1.63,11.16-2.74,5.62-1.9,11.18-1.65,16.31,1.48,1.95,1.11,3.82,2.67,6.01,3.32,1.62.56,3.47.38,5.15.27.8.12,1.82.55,2.58.81,4.86,1.54,10.21,1.9,14.59,4.71,4.15,2.45,7.5,6.27,12.02,8.1.73.31,1.77.77,2.58.85,1.07,0,2.36,0,3.43,0,3.12,0,6.32,0,9.44,0"/><path class="b" d="M9.73,82.71c4.85,0,9.74,0,14.59,0,4.24-.69,8.65-1.26,12.88-.18,3.43.36,8.82-4.08,12.02-5.53,1.06-.49,2.43-.76,3.43-1.37,1.7-1.06,3.25-2.61,5.15-3.34,8.97-4.46,17.55-2.9,26.61.23,1.91.59,3.99,1.15,6.01,1.16,3.14-.22,6.31-.94,9.44-1.27,9.83-1.46,15.26-14.64,26.61-9.43,2.26,1.02,4.44,2.52,6.87,3.15,1.62.6,3.61.27,5.15,1.08,2.71,1.78,5.55,3.58,8.58,4.76,3.09,1.22,6.46,1.92,9.44,3.42,3.04,1.46,5.73,3.67,8.58,5.43,1.31.72,2.8,1.64,4.29,1.9,1.07,0,2.36,0,3.43,0,3.12,0,6.32,0,9.44,0"/><path class="b" d="M9.73,78.05c6-.04,12.04.12,18.03-.14,1.38-.02,2.92.02,4.29.14,2.9-.23,5.86-.84,8.58-1.89,2.31-.87,4.55-2.14,6.87-2.98,1.38-.44,3-.61,4.29-1.29,1.47-.67,2.88-1.8,4.29-2.57,1.06-.41,2.33-.85,3.43-1.14,5.65-1.46,11.76-.8,17.17,1.28,3.72,1.4,7.25,3.55,11.16,4.41,3.12.69,6.33-.36,9.44-.61,2-.27,4.2-.32,6.01-1.32,5.21-2.92,8.56-8.23,12.88-12.21,2.88-2.85,7.05-5.23,11.16-3.68,2.53,1.01,5.04,2.37,7.73,2.97,1.11.29,2.52.38,3.43,1.14,1.93,1.67,3.98,3.44,6.01,4.99,3.84,3.05,8.43,5,12.88,6.97,3.81,1.7,7.3,4.2,11.16,5.78,1.64.35,3.48.1,5.15.17,2.83,0,5.75,0,8.58,0"/><path class="b" d="M9.73,73.39c4.85,0,9.74,0,14.59,0,4.01-.54,8.07-1.24,12.02-2.16,2.94-.7,5.77-1.97,8.58-3.03,1.92-.71,4.13-.7,6.01-1.55,1.74-.65,3.42-1.78,5.15-2.43,1.36-.27,2.9-.44,4.29-.47,5.35-.09,10.71,1.3,15.45,3.74,3.93,1.96,7.63,4.76,12.02,5.59,2.85.56,5.71-.7,8.58-.51,5.55.41,8.01-.77,12.02-4.59,5.29-4.88,9.77-13.58,16.31-16.41,2.84-1.14,5.82.3,8.58,1.01,1.37.41,2.93.83,4.29,1.25,1.21.8,2.36,2.12,3.43,3.09,2.68,2.55,5.54,5.1,8.58,7.21,3.18,2.23,6.76,3.96,10.3,5.54,2.81,1.24,5.67,2.6,8.58,3.57,4.53.35,9.18.03,13.73.14"/><path class="b" d="M9.73,68.73c3.41,0,6.89,0,10.3,0,1.97-.12,4.2.39,6.01-.59,5.56-2.35,11.62-3.34,17.17-5.75,1.6-.69,3.46-.87,5.15-1.21,1.72-.42,3.51-1.1,5.15-1.75,1.31-.64,2.84-.99,4.29-.71,2,.22,4.08.71,6.01,1.29,6.2,1.75,11.78,5.09,17.17,8.54,1.49-.19,2.84-1.35,4.29-1.75,1.6-.57,3.47-.85,5.15-.51.77.18,1.77.6,2.58.64,1.41.04,2.92-.45,4.29-.73,3.01-.52,6.09.61,8.58,2.24h.86c4.32-3.12,7.73-7.4,11.16-11.43,2.53-2.9,5.09-6.16,8.58-7.93,3.54-1.52,7.62-.34,11.16.64,4.31,3.5,8.2,7.67,12.88,10.73,5.46,3.74,11.7,6.32,18.03,8.18,4.54.3,9.18.03,13.73.12"/><path class="b" d="M9.73,64.07c3.41,0,6.89,0,10.3,0,1.08,0,2.36,0,3.43,0,.88.14,1.9-.35,2.58-.87,3.91-2.61,8.48-3.97,12.88-5.51,2.26-.8,4.53-1.93,6.87-2.51,2.92-.47,5.75-1.62,8.58-2.44,1.41-.56,2.97.11,4.29.62,2.34.95,4.66,2.23,6.87,3.44,4.05,2.24,8.11,4.61,12.02,7.09,1.54-.24,2.88-1.55,4.29-2.16,2.83-1.53,6.47-2.58,9.44-.84.85-.14,1.79-.8,2.58-1.11,1.03-.41,2.32-.69,3.43-.73,2.71-.1,5.4.9,7.73,2.22,1.45.74,2.8,2.02,4.29,2.67,3.69-2.9,7.04-6.33,10.3-9.69,3.41-3.38,6.91-7.67,12.02-8.13,1.98-.24,4.08.04,6.01.51,1.19.63,2.36,1.75,3.43,2.56,2.76,2.19,5.64,4.4,8.58,6.34,6.01,3.89,12.74,6.99,19.74,8.55,4.27,0,8.6,0,12.88,0"/><path class="b" d="M9.73,59.41c3.12,0,6.32,0,9.44,0,1.08,0,2.36,0,3.43,0,.44,0,1.28,0,1.72,0,.49-.12,1.33-.62,1.72-.95,4.12-3.1,8.94-5.05,13.73-6.82,1.98-.78,4.01-1.76,6.01-2.49,2.35-.62,4.63-1.72,6.87-2.63,4.32-.05,7.86,2.86,11.16,5.3,3.54,2.69,7.26,5.27,11.16,7.41,1.21-.03,2.35-1.02,3.43-1.49,1.61-.81,3.4-1.59,5.15-2.02,2.5-.73,5.24-.06,7.73-.71,6.58-3.33,12.77.44,18.03,4.4,4.53-3.31,9.17-6.58,13.73-9.86,5.49-4.07,9.54-5.18,16.31-4.16.43.05,1.29.16,1.72.23.77.48,1.81,1.14,2.58,1.62,1.95,1.22,4.02,2.51,6.01,3.67,4.89,2.89,10.09,5.34,15.45,7.22,1.36.44,2.86,1.11,4.29,1.28,1.07,0,2.36,0,3.43,0,3.12,0,6.32,0,9.44,0"/><path class="b" d="M9.73,54.75c3.12,0,6.32,0,9.44,0,1.08,0,2.36,0,3.43,0,.79,0,1.84.08,2.58-.28,2.51-1.55,5.09-3.19,7.73-4.52,2.76-1.4,5.74-2.5,8.58-3.71,2.53-1.17,5.21-2.27,7.73-3.48,1.38-.22,2.91-.52,4.29-.71,4.52-.76,8.01,3.07,11.16,5.72,2.89,2.61,6.01,5.12,9.44,6.98,3.16-1.79,6.69-3.02,10.3-3.46,2.25-.33,4.65-.16,6.87-.69,3.71-1.29,7.86-.58,11.16,1.47.78.47,1.83,1.17,2.58,1.71.35.35,1.2.8,1.72.78,4.31-2.45,9.28-3.5,13.73-5.63,6.93-3.39,9.9-5.6,18.03-5.74,1.96-.09,4.05-.21,6.01-.06,4.01,2.03,7.99,4.24,12.02,6.23,3.9,1.93,7.95,3.71,12.02,5.25,1.64.33,3.48.09,5.15.16,2.83,0,5.75,0,8.58,0"/><path class="b" d="M9.73,50.09c4.85,0,9.74,0,14.59,0,2.08-.55,4.03-1.86,6.01-2.71,3.61-1.76,7.41-3.25,11.16-4.68,1.39-.55,2.93-1.21,4.29-1.84.76-.07,1.81-.08,2.58-.09,3.01.1,5.56-2.34,8.58-2.21,3.78.29,6.65,3.29,9.44,5.54,2.61,2.23,5.5,4.33,8.58,5.86,1.43-.19,2.86-1.04,4.29-1.29,3.08-.68,6.31-.6,9.44-.5,1.4.07,2.91-.24,4.29-.39,1.71-.11,3.51.28,5.15.71,1.35.32,2.92.04,4.29.27,1.99.23,4.06.74,6.01,1.21,1.41.11,2.91-.54,4.29-.77,1.97-.44,4.06-.89,6.01-1.39,4.13-1.04,7.94-3.2,12.02-4.4,5.59-1.45,11.4-2.5,17.17-2.72,4.94,1.95,9.75,4.33,14.59,6.5,2.26.92,4.5,2.29,6.87,2.89,4.27,0,8.6,0,12.88,0"/><path class="b" d="M9.73,45.43c3.12,0,6.32,0,9.44,0,1.96-.09,4.08.21,6.01-.18,5.11-2.06,10.31-4.02,15.45-6.01,1.05-.49,2.26-.9,3.43-.82,1.67-.07,3.48-.18,5.15-.23,2.15-.03,4.07-1.39,6.01-2.16,3.92-1.67,7.98.44,11.16,2.72,1.92,1.32,4.01,2.64,6.01,3.83,2.12,1.22,4.45,2.36,6.87,2.84,1.36-.29,2.91-.44,4.29-.57,2.26-.2,4.64-.24,6.87-.66,2.22-.56,4.56-1.16,6.87-1.15,5.8-.08,11.45,1.75,17.17,2.35,4.71-.74,9.26-2.27,13.73-3.86,3.92-1.16,8.01-1.98,12.02-2.77,2.52-.46,5.16-.8,7.73-.94,1.07-.04,2.37-.14,3.43,0,.76.34,1.82.81,2.58,1.16,5.07,2.27,10.1,4.97,15.45,6.47,4.27,0,8.6,0,12.88,0"/><path class="b" d="M9.73,40.77c3.41,0,6.89,0,10.3,0,1.96-.1,4.15.32,6.01-.46,4.26-1.5,8.63-2.87,12.88-4.41,3.7-.26,7.46-.46,11.16-.79,2.71-.37,5.06-2.16,7.73-2.7,3.22-.8,6.57.18,9.44,1.64,3.2,1.28,6.24,3.12,9.44,4.4,3.25,1.36,6.85,1.75,10.3,2.32,3.13-.43,6.27-1.28,9.44-1.32,4-.11,8.05.27,12.02.67,2.26.13,4.62.91,6.87.39,5.8-.82,11.41-2.75,17.17-3.77,7.04-1.49,14.21-3.11,21.46-2.62.86.04,1.83.69,2.58,1.07,1.06.57,2.36,1.24,3.43,1.78,3.04,1.42,6.16,3.06,9.44,3.8,4.27,0,8.6,0,12.88,0"/><path class="b" d="M9.73,36.1c4.85,0,9.74,0,14.59,0,3.17-.73,6.3-1.98,9.44-2.84,2.16-.89,4.59-.52,6.87-.65,3.7-.19,7.51-.18,11.16-.8,3.93-1.08,7.87-2.68,12.02-2.54,4.06.19,8.14.93,12.02,2.16,3.34,1.09,6.85,1.77,10.3,2.4,4.25.82,8.54,1.81,12.88,2,6.58.34,13.2-.24,19.74-.9,5.45-.65,10.89-1.63,16.31-2.5,4.54-.8,9.13-1.75,13.73-2.09,1.96-.15,4.05-.18,6.01-.07,1.08.08,2.4.08,3.43.43.4.26,1.31.78,1.72,1.04,2.98,1.68,6.11,3.53,9.44,4.37,4.27,0,8.6,0,12.88,0"/><path class="b" d="M9.73,31.44c4.85,0,9.74,0,14.59,0,2.01-.38,4.03-1.27,6.01-1.8,2.17-.9,4.59-.48,6.87-.5,3.41.05,6.89.03,10.3-.08,4.34.03,8.61-1.02,12.88-1.68,3.67-.64,7.46-.68,11.16-1.04,8.38-.42,16.74,1.26,24.89,3.03,5.34,1.18,10.87,1.21,16.31,1.09,4.86-.04,9.76-.25,14.59-.83,8.61-.65,17.12-2.62,25.75-2.96,1.96-.06,4.05.01,6.01.19,1.15.06,2.53.23,3.43,1.03,2.17,1.28,4.43,2.86,6.87,3.55,4.27,0,8.6,0,12.88,0"/><path class="b" d="M9.73,26.78c4.85,0,9.74,0,14.59,0,2.01-.3,3.92-1.69,6.01-1.47,7.71.12,15.47.49,23.18.15,5.72-.31,11.45-.89,17.17-1.21,7.07-1.16,14.31-1.68,21.46-.93,4.02.52,7.98,1.78,12.02,2.19,7.97.79,16.05.68,24.04.18,10.88-.33,21.72-2.29,32.62-1.82,1.07.06,2.36.16,3.43.21,1.84.49,3.29,2.25,5.15,2.7,4.27,0,8.6,0,12.88,0"/><path class="b" d="M9.73,22.12c4.56,0,9.17,0,13.73,0,.8.08,1.8-.21,2.58-.34,1.08,0,2.35,0,3.43,0,12.3.07,24.61.22,36.91.02,10.03.23,20.02-1.76,30.04-1.16,8.83,1.05,17.72,1.5,26.61,1.29,9.72-.07,19.47-.2,29.19-.38,5.14-.11,10.32-.04,15.45-.02,1.86.86,4.02.51,6.01.57,2.83,0,5.75,0,8.58,0"/><path class="b" d="M9.73,17.46h172.54"/><path class="b" d="M9.73,12.8h172.54"/><path class="b" d="M9.73,8.14h172.54"/></svg>