<?xml version="1.0" encoding="UTF-8"?><svg id="a" xmlns="http://www.w3.org/2000/svg" width="1920" height="2400" viewBox="0 0 192 240"><defs><style>.b{fill:none;stroke:#fff;stroke-miterlimit:10;stroke-width:.3px;}.c{stroke-width:0px;}</style></defs><rect class="c" x="0" width="192" height="240"/><path class="b" d="M9.73,231.86h172.54"/><path class="b" d="M9.73,227.2h172.54"/><path class="b" d="M9.73,222.54c27.18-.05,54.38.18,81.55-.22,30.32.41,60.66.16,90.99.22"/><path class="b" d="M9.73,217.88c3.41,0,6.89,0,10.3,0,1.99-.12,4.29.47,6.01-.81,14.28,1.12,28.62.77,42.92.26,3.97-.48,8.01-1.07,12.02-1.11,5.17-.18,10.29,1.06,15.45.88,7.43,0,14.89.27,22.32.42,7.43-.01,14.89-.21,22.32-.36,8.86-.01,17.75.49,26.61.44,1.93.46,4.05.21,6.01.27,2.83,0,5.75,0,8.58,0"/><path class="b" d="M9.73,213.22c4.85,0,9.74,0,14.59,0,1.75-.64,3.26-2.17,5.15-2.49.78.17,1.8.4,2.58.57,10.99,2.52,22.38,1.06,33.48.06,4.31-.36,8.51-1.95,12.88-1.88,4.71-.1,9.23,1.52,13.73,2.66,7.43.25,14.89.48,22.32.05,5.43-.19,10.88-.84,16.31-.98,3.95-.67,7.99-1.34,12.02-1.13,4.31.18,8.61.98,12.88,1.53,4.27.56,8.61.96,12.88,1.55,4.56.14,9.17.01,13.73.06"/><path class="b" d="M9.73,208.56c3.12,0,6.32,0,9.44,0,1.08,0,2.35,0,3.43,0,.81,0,1.85.09,2.58-.35,2.23-1.66,4.88-3.29,7.73-3.41,3.58,1.25,7.38,1.94,11.16,2.23,3.4.33,6.9.48,10.3.15,4.62-.46,9.25-1.3,13.73-2.49,4.07-1.53,8.51-3.08,12.88-1.93,3.36.77,6.35,2.7,9.44,4.13,8.97,1.64,18.44,1.16,27.47.19,4.26-.67,8.59-1.22,12.88-1.64,3.11-.82,6.22-2,9.44-2.32,4.39-.52,8.74.78,12.88,2.11,3.08,1.04,6.32,1.8,9.44,2.69,3.06.74,6.32.6,9.44.64,3.41,0,6.89,0,10.3,0"/><path class="b" d="M9.73,203.9c3.12,0,6.32,0,9.44,0,1.08,0,2.35,0,3.43,0,.82,0,1.87.1,2.58-.4,2.23-1.94,4.77-3.86,7.73-4.45,1.07-.2,2.36-.37,3.43-.15,1.62.75,3.42,1.42,5.15,1.88,3.61.95,7.44,1.27,11.16,1.05,4.99-.37,9.93-1.58,14.59-3.38,4.1-1.67,8.2-4.85,12.88-3.76,4.04.82,6.79,4.23,10.3,6.07,9.14,2.8,18.99,2.13,28.33.78,2.55-.46,5.17-1.01,7.73-1.44,1.37-.26,2.95-.32,4.29-.73,3.08-1.17,6.16-2.68,9.44-3.18,5.54-.91,10.59,2.22,15.45,4.38,2.27.91,4.42,2.39,6.87,2.83,2.79.57,5.75.49,8.58.51,3.7,0,7.46,0,11.16,0"/><path class="b" d="M9.73,199.23c3.12,0,6.32,0,9.44,0,1.08,0,2.35,0,3.43,0,.82,0,1.87.1,2.58-.4,2.34-2.06,4.75-4.35,7.73-5.44,2.15-.73,4.65-.92,6.87-.38,2.65,1.39,5.62,2.29,8.58,2.62,7.12.75,14.34-1.04,20.6-4.42,3.49-2.2,6.83-5.56,11.16-5.81,4.86-.08,7.34,4.85,11.16,6.96,9.05,4.23,19.5,4.49,29.19,2.64,3.12-.65,6.33-1.28,9.44-1.95,3.38-1.42,6.65-3.41,10.3-4.07,5.03-.96,9.6,2.04,13.73,4.49,2.46,2.23,5.3,4.26,8.58,5.03,3.06.78,6.31.75,9.44.74,3.41,0,6.89,0,10.3,0"/><path class="b" d="M9.73,194.57c3.12,0,6.32,0,9.44,0,1.08,0,2.35,0,3.43,0,.82,0,1.86.1,2.58-.37,2.49-2.04,4.87-4.45,7.73-6,2.07-1.14,4.52-1.63,6.87-1.59,1.41.04,3.04-.03,4.29.7,2.95,1.3,6.23,1.88,9.44,1.94,5.36.41,10.83-.9,15.45-3.65,4.46-2.61,7.45-7.29,12.02-9.75,5.46-2.59,7.28,2.41,11.16,4.69,3.58,2.14,7.21,4.42,11.16,5.83,5.46,1.92,11.45,2.67,17.17,1.64,2.86-.42,5.77-1.05,8.58-1.71,3.17-1.27,6.17-3.14,9.44-4.15,4.07-1.45,8.47-.2,12.02,2.01,1.15,1.04,2.32,2.48,3.43,3.56,3.24,3.27,7.43,5.78,12.02,6.52,2.23.41,4.61.32,6.87.33,3.12,0,6.32,0,9.44,0"/><path class="b" d="M9.73,189.91c3.12,0,6.32,0,9.44,0,1.08,0,2.35,0,3.43,0,.81,0,1.85.09,2.58-.32,2.87-2.09,5.5-4.67,8.58-6.46,3.59-2.21,7.9-2.53,12.02-2.54,1.13.13,2.34.75,3.43,1.02,1.36.4,2.91.63,4.29.91,5.62,1.9,12.04,1.33,17.17-1.68,4.61-2.72,7.62-7.49,11.16-11.38,2.98-3.26,3.3-3.53,7.73-3.71,1.24.31,2.19,1.61,3.43,1.89,6.16,2.83,10.89,8.15,17.17,10.82,2.38,1.21,5.06,1.79,7.73,1.84,3.14.14,6.38-.14,9.44-.84,3.28-.77,6.28-2.62,9.44-3.74,3.24-1.28,6.95-1.73,10.3-.6,1.26.83,2.37,2.28,3.43,3.34,4.49,4.81,9.74,9.55,16.31,11.1,1.93.49,4.04.34,6.01.36,3.12,0,6.32,0,9.44,0"/><path class="b" d="M9.73,185.25c4.56,0,9.17,0,13.73,0,1.29.2,2.44-.73,3.43-1.42,1.68-1.17,3.44-2.51,5.15-3.65,4.03-2.84,8.84-4.43,13.73-4.86,1.08-.12,2.35-.25,3.43-.36,1.69.21,3.47.75,5.15,1.03,2.02,1.38,4.45,2.3,6.87,2.63,3.18.49,6.46-.18,9.44-1.28,6.87-2.15,11.09-8.39,15.45-13.7,1.4-1.61,3-3.54,5.15-4.09,1.37-.19,2.92-.07,4.29-.28,5.52-.02,9.6,5.03,13.74,8.08,4.49,3.46,10.65,5.36,16.31,4.91,4.15-.49,8-2.49,12.02-3.53,1.35-.37,2.9-.67,4.29-.78.79-.06,1.87-.14,2.58.3,2.06,1.58,4.1,3.45,6.01,5.21,4.38,4.1,9.1,8.06,14.59,10.58,1.03.45,2.33.87,3.43,1.1,1.36.16,2.92.06,4.29.09,3.12,0,6.32,0,9.44,0"/><path class="b" d="M9.73,180.59c4.56,0,9.17,0,13.73,0,.86.11,1.87-.25,2.58-.72,1.09-.62,2.36-1.38,3.43-2.02,3.24-1.94,6.67-3.73,10.3-4.81,3.34-1.03,6.89-1.47,10.3-2.2,1.13-.19,2.34-.73,3.43-1.03,1.09-.29,2.37-.04,3.43.23,3.06.78,6.29,1.04,9.44,1.17,3.13.13,6.37.17,9.44-.54,4.64-.9,8-4.56,11.16-7.8,1.28-1.3,2.73-2.77,4.29-3.72,1.32-.73,2.89-1.38,4.29-1.95,1.85-.92,3.88-1.94,6.01-1.63,1.8.19,3.57,1.04,5.15,1.88,5.79,2.23,10.83,6.64,17.17,7.34,2.91.41,5.78-.67,8.58-1.28,1.66-.4,3.46-.8,5.15-1.06,1.07-.11,2.39-.46,3.43-.07,6.07,3.81,11.18,9.03,17.17,12.96,3.24,2,6.59,4.16,10.3,5.16,4.54.27,9.18.02,13.73.1"/><path class="b" d="M9.73,175.93c3.41,0,6.89,0,10.3,0,1.38,0,2.91,0,4.29,0,1.49-.31,2.93-1.28,4.29-1.93,8.33-4.77,17.76-7.48,25.75-12.83,1.86-1.36,4.13.2,6.01.78,2.53.99,5.14,2.08,7.73,2.93,3.83,1.22,8.12,2.01,12.02.67,3.66-1.24,6.48-4.12,9.44-6.46,2.7-2.05,6.05-3.29,8.58-5.58,6-5.13,11.65-1.34,17.17,2.28,3.63,2.26,7.57,4.91,12.02,4.78,2.6-.32,5.2-1.17,7.73-1.84.75-.21,1.81-.49,2.58-.67.82.03,1.84.5,2.58.82,2.38,1.06,4.71,2.5,6.87,3.96,5.32,3.68,10.48,7.73,16.31,10.59,1.91.91,3.88,2.2,6.01,2.49,4.27,0,8.6,0,12.88,0"/><path class="b" d="M9.73,171.27c3.12,0,6.32,0,9.44,0,1.96-.09,4.09.22,6.01-.19,2.56-1.08,5.17-2.27,7.73-3.36,3.63-1.56,7.4-2.96,11.16-4.16,3.5-1.14,7.17-2.2,10.3-4.2,2.02-1.39,4.66-.38,6.87,0,3.17.7,6.32,1.73,9.44,2.59,3.61.96,7.61,1.44,11.16-.01,2.78-1.09,5.2-3.05,7.73-4.59,2.22-1.26,4.82-2.06,6.87-3.64,6.62-5.96,10.69-7.99,18.89-3,9.75,5.91,9.9,6.93,21.46,4.98,1.78-.4,3.53.88,5.15,1.46,2.61,1.17,5.23,2.56,7.73,3.96,4.53,2.56,9.06,5.24,13.73,7.54,1.96.85,3.92,2.16,6.01,2.63,4.27,0,8.6,0,12.88,0"/><path class="b" d="M9.73,166.61c3.41,0,6.89,0,10.3,0,1.97-.11,4.17.36,6.01-.51,3.9-1.5,7.92-2.86,12.02-3.71,3.96-.87,8.07-1.17,12.02-2.08,2.09-.4,4.04-1.51,6.01-2.24,3.37-.55,6.88-.86,10.3-.61,8.18,1.13,11.74,3.06,19.74-1.09,1.34-.63,2.86-1.32,4.29-1.71,1.08-.25,2.39-.39,3.43-.79,2.96-1.05,5.17-3.57,7.73-5.3,7.68-5.71,12.86-4.25,20.6.25,2.89,1.63,6.06,3.03,9.44,2.84,1.37.05,2.92.09,4.29.14.78.03,1.86,0,2.58.37,4.3,2.24,8.58,4.66,12.88,6.9,5.77,2.96,11.8,5.72,18.03,7.53,4.27,0,8.6,0,12.88,0"/><path class="b" d="M9.73,161.95c4.85,0,9.74,0,14.59,0,3.4-.98,6.78-2.36,10.3-2.94,6.79-1.48,14.08-.62,20.6-3.24,2.81-.81,5.74-1.56,8.58-2.23,2.24-.52,4.63-.31,6.87.1,5.46,1.17,9.29.79,14.59-.74,1.64-.4,3.45-.74,5.15-.69,1.08.08,2.36.25,3.43,0,2.18-.52,4.13-1.97,6.01-3.13,3.39-2.19,6.66-4.75,10.3-6.52,6.88-3.49,11.87-.21,18.03,2.82,1,.49,2.35.45,3.43.64,1.98.28,4.06.65,6.01,1.07,5.11,3.14,10,6.82,15.45,9.41,5.14,2.53,10.71,4.31,16.31,5.45,4.27,0,8.6,0,12.88,0"/><path class="b" d="M9.73,157.29c4.85,0,9.74,0,14.59,0,1.43-.3,2.89-1.09,4.29-1.5,2.21-.74,4.57-1.33,6.87-1.73,4.81-.88,9.76-.97,14.59-1.7,3.21-.5,6.35-1.61,9.44-2.58,1.68-.56,3.39-1.48,5.15-1.76,4.32-.44,8.54,1.47,12.88,1.26,4.87-.14,9.87-.81,14.59.79,2.04.21,4.13-.66,6.01-1.35,5.76-2.27,10.36-6.61,15.45-10,5.8-3.9,9.93-2.74,15.45.87,2.3.15,4.66.63,6.87,1.28,2.43.44,4.12,2.53,6.01,3.95,2.44,1.98,5.06,3.93,7.73,5.59,5.93,3.8,12.82,5.88,19.74,6.87,4.27,0,8.6,0,12.88,0"/><path class="b" d="M9.73,152.63c4.85,0,9.74,0,14.59,0,1.44-.33,2.89-1.2,4.29-1.66,2.21-.83,4.57-1.52,6.87-2.04,7.67-1.85,15.85-1.97,23.18-5.07,5.62-3.79,9.51-1.23,15.45-.29,4.56.72,9.27.92,13.73,2.2,1.39.33,2.88.94,4.29,1.16,3.85.12,7.73-.85,11.16-2.57,3.45-1.71,6.55-4.18,9.44-6.7,3.42-2.77,7.18-6.97,12.02-6.03,1.17.27,2.45.91,3.43,1.59.33.36,1.21.8,1.72.77,1.08-.04,2.37.05,3.43.23,1.41.24,2.95.68,4.29,1.17.86.54,1.83,1.53,2.58,2.22,2.19,2.05,4.51,4.15,6.87,6.01,6.45,5.3,14.09,8.05,22.32,9.02,4.27,0,8.6,0,12.88,0"/><path class="b" d="M9.73,147.97c4.85,0,9.74,0,14.59,0,1.73-.38,3.45-1.28,5.15-1.79,3.38-1.16,6.87-2.18,10.3-3.17,3.39-.97,6.86-1.97,10.3-2.75,1.65-.45,3.54-.53,5.15-1.12,2.74-1.25,4.64-4,7.73-4.69,3.84-.15,7.49,1.78,11.16,2.7,5.12,1.41,10.26,2.94,15.45,4.07,2.51.5,5.18.5,7.73.65,18.09,1.02,21.59-19.79,32.62-12.08,1.67-.15,3.46-.51,5.15-.3,1.12.14,2.52.21,3.43.95,2.87,2.46,5.67,5.16,8.58,7.58,6.43,5.58,13.88,8.87,22.32,9.94,4.27,0,8.6,0,12.88,0"/><path class="b" d="M9.73,143.3c3.41,0,6.89,0,10.3,0,1.96-.08,4.11.26,6.01-.37,4.63-1.26,9.24-2.79,13.73-4.47,4.68-1.78,9.53-3.41,14.59-3.42,2.62-2.8,6.57-4.15,10.3-4.6,3.76-.39,7.57.43,11.16,1.48,6.98,2.03,13.64,5.12,20.6,7.21,10.19,2.77,16.67-2.55,24.04-8.64,1.96-1.47,4.3-3.04,6.87-2.86,1.12.08,2.3.78,3.43.73.85-.11,1.83-.72,2.58-1.09,1.03-.49,2.32-.96,3.43-1.2,1.2-.43,2.45.42,3.43,1.02,7.15,4.76,13.04,11.72,21.46,14.36,2.49.82,5.13,1.49,7.73,1.85,4.27,0,8.6,0,12.88,0"/><path class="b" d="M9.73,138.64c5.13-.09,10.33.18,15.45-.11,2.9-.68,5.82-1.6,8.58-2.7,4.29-1.66,8.45-3.82,12.88-5.12,1.92-.67,4.06-.62,6.01-1.06,1.18-.46,2.28-1.51,3.43-2.01,3.61-1.01,7.48-.99,11.16-.4,7.67,1.11,14.34,5.31,21.46,8.03,4.12,1.3,8.56,1.92,12.88,1.76,6.88-.19,13.03-2.99,18.89-6.38,1.85-.97,3.9-1.94,6.01-2.14,1.09-.11,2.37.14,3.43.36,3.2.18,5.13-3.06,7.73-4.42,5.56-1.41,11.15,4.26,15.45,7.12,3.39,2.47,7.14,4.61,11.16,5.85,1.64.51,3.46.94,5.15,1.23,1.07,0,2.36,0,3.43,0,3.12,0,6.32,0,9.44,0"/><path class="b" d="M9.73,133.98c3.7,0,7.46,0,11.16,0,1.38-.04,2.92.1,4.29-.11,1.7-.42,3.51-.99,5.15-1.6,6.98-2.6,13.34-6.8,20.6-8.66,4.64-1.78,4.11-2.65,9.44-1.67,6.06,1.1,11.7,3.82,17.17,6.56,5.04,2.51,10.52,5.16,16.31,4.39,2.57-.28,5.17-.89,7.73-1.27,3.12-.49,6.33-.83,9.44-1.33,4.04-.59,8-1.84,12.02-2.53,1.36-.21,2.92-.31,4.29-.18,1.08.09,2.34.5,3.43.37,3.39-.42,5.05-3.95,7.73-5.61,9.8-4.59,17.13,9.66,30.9,11.64,4.27,0,8.6,0,12.88,0"/><path class="b" d="M9.73,129.32c3.41,0,6.89,0,10.3,0,1.96-.09,4.12.28,6.01-.38,6.7-2.05,12.84-5.61,18.89-9.08,1.94-1.12,4.02-2.27,6.01-3.31,1.59-.78,3.34-1.82,5.15-1.88,11.41,2.65,20.63,11.99,32.62,12.5,4.23.3,8.09-1.69,12.02-2.9,3.61-.98,7.45-.9,11.16-.81,4.56.17,9.19-.02,13.73.48,1.39.14,2.91.49,4.29.68,3.34.12,5.61-2.78,7.73-4.94,6.77-5.41,13.94.2,19.74,4.2,3.4,2.34,7.11,4.39,11.16,5.3,4.42.37,9.25.03,13.73.14"/><path class="b" d="M9.73,124.66c3.7,0,7.46,0,11.16,0,1.08,0,2.35,0,3.43,0,1.75-.27,3.5-1.1,5.15-1.72,5.75-2.37,11.19-5.54,16.31-9.07,2.02-1.39,4.1-2.95,6.01-4.5,1.18-.93,2.73-1.86,4.29-1.77.78.26,1.82.65,2.58.96,9.52,4.08,18.39,11.08,29.19,11.01,3.86.14,7.01-.79,10.3-2.77,5.55-3.33,12.15-1.38,18.03-.1,3.11.68,6.32,1.32,9.44,1.94,1.95.31,4.05,1.13,6.01.53,3.2-.8,4.83-4.19,7.73-5.46,3.91-1.82,8.44-.69,12.02,1.39,5.93,3.26,11.12,8.49,18.03,9.56,4.27,0,8.6,0,12.88,0"/><path class="b" d="M9.73,120c4.85,0,9.74,0,14.59,0,2.66-.6,5.22-1.94,7.73-2.99,4.38-2.01,8.69-4.3,12.88-6.68,2.35-1.35,4.76-2.84,6.87-4.56,3.01-2.52,2.74-3.69,6.87-1.97,7.83,3.07,15.46,7.32,24.04,7.8,2.25.18,4.61.16,6.87.07,1.73-.02,3.62-.16,5.15-1.04,2.32-1.25,4.3-3.32,6.87-4.12,6.35-2.06,12.9,2.36,18.89,4.11,1.94.66,4.02,1.27,6.01,1.75,1.36.28,2.89.81,4.29.61,5.27-1.11,5.66-5.76,12.02-5.37,9.57.73,15.89,9.67,24.89,12.08,1.91.56,4.05.25,6.01.32,2.83,0,5.75,0,8.58,0"/><path class="b" d="M9.73,115.34c3.12,0,6.32,0,9.44,0,1.96-.1,4.09.23,6.01-.2,3.7-1.57,7.43-3.25,11.16-4.75,2.5-1,5.13-1.94,7.73-2.69,1.98-.57,4.11-1.08,6.01-1.91,1.14-.49,2.43-1.2,3.43-1.92,1.32-1.09,2.51-1.97,4.29-1.41,4.04.89,7.96,2.44,12.02,3.26,3.36.71,6.88.84,10.3.57,2.55-.18,5.17-.52,7.73-.68,1.67-.19,3.52.11,5.15-.29,3-1.11,4.89-4.11,7.73-5.54,7.77-4.61,16.28,1.05,23.18,4.77,1.37.76,2.91,1.62,4.29,2.36.97.61,2.27,1.1,3.43.88,2.27-.43,4.09-2.2,6.01-3.37,1.82-.84,4.03-1.01,6.01-.88,8.81,1.06,14.79,9,23.18,11.3,1.91.61,4.03.47,6.01.47,3.12,0,6.32,0,9.44,0"/><path class="b" d="M9.73,110.68c4.85,0,9.74,0,14.59,0,2.06-.63,3.99-1.96,6.01-2.73,6.57-3.04,14-3.6,20.6-6.54,1.48-.66,2.96-1.68,4.29-2.59,1-.58,2.33-.5,3.43-.37,1.4.17,2.93.49,4.29.84,10.18,2.98,13.03,2.33,23.18,1.04,1.96-.21,4.04-.14,6.01-.07,2.47-.59,3.94-3.16,6.01-4.47,5.25-4.09,10.86-2.94,16.31.05,4.05,2.15,7.96,4.69,12.02,6.83,1.33.61,2.76,1.79,4.29,1.58,2.82-.74,5.03-3.08,7.73-4.1,11.5-3.2,19.42,8.72,30.04,10.43,4.55.23,9.18.02,13.73.09"/><path class="b" d="M9.73,106.02c3.41,0,6.89,0,10.3,0,1.38,0,2.91,0,4.29,0,.86-.19,1.82-.86,2.58-1.28,3.5-2.01,7.29-3.61,11.16-4.74,4-1.21,8.19-2.1,12.02-3.82,2.17-.84,3.99-2.52,6.01-3.59,2.25-.4,4.66-.07,6.87.44,4.2,1.06,8.5,2.25,12.88,1.95,3.14-.14,6.31-.71,9.44-.88,2.29-.25,4.73.23,6.87.13,3.88-3.79,8.71-8.25,14.59-6.92,3.76.8,7.09,3.01,10.3,5.03,3.88,2.52,7.84,5.04,12.02,7.03,1.2-.14,2.37-1.03,3.43-1.53,1.68-.9,3.48-1.91,5.15-2.83,9.43-2.78,17.09,4.86,24.89,8.77,2.4,1.11,5.04,2.27,7.73,2.24,3.99,0,8.03,0,12.02,0"/><path class="b" d="M9.73,101.36c3.41,0,6.89,0,10.3,0,1.38,0,2.91,0,4.29,0,.87-.2,1.82-.93,2.58-1.38,3.5-2.18,7.27-4.04,11.16-5.41,4.01-1.46,8.24-2.58,12.02-4.63,2.22-1.05,3.97-2.99,6.01-4.29,3.13-.86,6.41.03,9.44.9,2.77.81,5.69,1.45,8.58,1.53,3.42.12,6.89-.28,10.3-.33,1.38-.02,2.92.01,4.29.11.78.05,1.82.24,2.58-.04,3.11-2.66,6.25-5.71,10.3-6.82,4.96-1.38,9.75,1.5,13.73,4.17,3.1,2.09,6.21,4.34,9.44,6.24,1.31.66,2.73,1.94,4.29,1.69,2.58-1.21,5.2-2.55,7.73-3.86,2.02-1.18,4.65-.71,6.87-.45,9.36,1.75,15.69,10.24,24.89,12.44,4.53.36,9.18.03,13.73.14"/><path class="b" d="M9.73,96.7c3.12,0,6.32,0,9.44,0,1.08,0,2.35,0,3.43,0,.8,0,1.84.08,2.58-.29,3.3-2.09,6.76-4.08,10.3-5.73,3.38-1.59,6.96-2.93,10.3-4.6,2.81-1.4,5.54-3.25,7.73-5.52.75-.78,1.65-1.93,2.58-2.52,1.9-.7,4.07-.62,6.01-.11,3.71,1.03,7.31,2.69,11.16,3.21,5.1.73,10.32.55,15.45.81,1.72.29,3.07-.71,4.29-1.77,1.05-.83,2.33-1.79,3.43-2.54,8.22-5.88,14.1-2.86,21.46,2.46,1.95,1.38,4.01,2.87,6.01,4.19,1.33.81,2.73,2,4.29,2.33,1.49-.07,2.93-1.11,4.29-1.65,1.99-.81,3.91-2.24,6.01-2.72,4.58-.14,9.07,1.49,12.88,3.96,5.82,3.51,11.92,9.89,18.89,10.49,3.99,0,8.03,0,12.02,0"/><path class="b" d="M9.73,92.03c3.12,0,6.32,0,9.44,0,1.08,0,2.35,0,3.43,0,.79,0,1.84.08,2.58-.27,3.33-1.98,6.82-3.84,10.3-5.54,4.73-2.34,9.71-4.51,13.73-8,1.54-1.33,3.08-3.02,4.29-4.66,1.1-1.54,2.23-3.57,4.29-3.85,4.65-.93,8.71,2.46,12.88,3.95,4.63,1.89,9.65,2.73,14.59,3.33,1.95.15,4.08.56,6.01.11,2.31-1.44,4.56-3.2,6.87-4.65,9.54-6.46,15.85-2.13,24.04,3.81,1.37.99,2.91,2.09,4.29,3.06.7.49,1.67,1.3,2.58,1.31,2.91-1.2,5.78-2.69,8.58-4.1,11.13-1.02,18.45,9.25,27.47,13.92,1.35.56,2.85,1.32,4.29,1.59,1.07,0,2.36,0,3.43,0,3.12,0,6.32,0,9.44,0"/><path class="b" d="M9.73,87.37c4.85,0,9.74,0,14.59,0,2.64-.96,5.12-2.63,7.73-3.72,10.74-4.92,17.59-7.78,23.18-18.89,2.93-4.17,7.48-3.02,11.16-.58,4.39,2.86,8.84,5.78,13.74,7.69,3.28,1.3,6.74,2.57,10.3,2.75,2,.27,3.58-1.39,5.15-2.37,1.93-1.34,3.97-2.78,6.01-3.96,8.5-5.2,14.91-2.1,22.32,3.17,1.08.76,2.37,1.68,3.43,2.45.71.51,1.68,1.35,2.58,1.52,1.78-.59,3.48-1.75,5.15-2.59,1.07-.51,2.23-1.43,3.43-1.55,10.83.12,17.81,9.6,26.61,14.45,1.34.59,2.85,1.33,4.29,1.61,1.07,0,2.36,0,3.43,0,3.12,0,6.32,0,9.44,0"/><path class="b" d="M9.73,82.71c3.12,0,6.32,0,9.44,0,1.95-.12,4.11.28,6.01-.24,3.03-1.59,6.27-2.93,9.44-4.21,6.99-2.7,14.13-6.4,18.03-13.1,1.52-2.24,2.36-5.34,4.29-7.29,4.37-4.54,8.9-1.82,12.88,1.59,3.07,2.59,6.13,5.35,9.44,7.63,3.4,2.24,10.51,6.82,14.59,5.33,7.32-3.56,13.25-12.49,22.32-10.6,3.32.69,6.42,2.33,9.44,3.8,1.65.7,3.32,1.99,5.15,2.08,2.54-.22,4.55-2.25,6.87-3.15,4.19-.08,8.67,2.99,12.02,5.3,6.26,4.34,12.17,11.09,19.74,12.86,4.27,0,8.6,0,12.88,0"/><path class="b" d="M9.73,78.05c3.41,0,6.89,0,10.3,0,1.97-.12,4.22.42,6.01-.62,6.96-3.39,14.86-4.75,21.46-8.86,2.92-1.91,5.26-4.81,6.87-7.88,1.85-3.46,3.94-7.84,7.73-9.47,5.03-1.53,10.4,6.1,13.73,9.17,3.86,3.95,7.98,7.9,12.88,10.54,2.36,1.34,5.15,2.07,7.73.89,8.9-3.61,14.57-14.3,24.89-14.29,2.04.06,4.14.64,6.01,1.44,2.42,1.27,4.94,2.28,7.73,1.56,1.12-.19,2.27-1.09,3.43-.98,6.61,1.54,12.06,6.01,17.17,10.26,3.9,3.19,7.89,6.78,12.88,8.11,4.54.34,9.18.03,13.73.13"/><path class="b" d="M9.73,73.39c4.85,0,9.74,0,14.59,0,2-.43,4.01-1.33,6.01-1.8,5.97-1.74,12.44-2.11,18.03-4.98,5.01-2.51,7.29-8.02,10.3-12.43,1.37-2.12,2.78-4.73,5.15-5.86,4.82-1.93,10.01,6.79,12.88,9.86,3.3,4,6.84,8.03,11.16,10.96,7.65,5.82,15.65.76,22.32-3.94,4.63-3.16,9.6-6.86,15.45-6.8,2.01-.03,4.02.79,6.01.95,1.97.15,4.08-.05,6.01-.51,3.57.13,7.06,1.47,10.3,2.89,3.96,1.75,7.62,4.21,11.16,6.68,3.14,2.09,6.48,4.45,10.3,4.98,4.27,0,8.6,0,12.88,0"/><path class="b" d="M9.73,68.73c4.85,0,9.74,0,14.59,0,2.83-.48,5.72-1.13,8.58-1.39,6.09-.72,12.62-.98,18.03-4.18,3.41-2.14,5.56-5.9,7.73-9.19,2.04-2.93,3.74-8.49,7.73-9,4.35.28,8.51,8.48,11.16,11.73,3.36,4.45,6.9,9.45,12.02,11.95,3.35-1.86,7.43-2.32,11.16-1.5,1.73.28,3.44,1.19,5.15,1.47,6.4-2.71,12.07-7.22,18.89-8.94,2.22-.6,4.6-.44,6.87-.51,2.27-.01,4.61-.6,6.87-.55,4.94.7,9.82,2,14.59,3.42,5.39,1.59,10.02,5.16,15.45,6.59,4.54.3,9.18.03,13.73.11"/><path class="b" d="M9.73,64.07c4.85,0,9.74,0,14.59,0,2.25-.19,4.6-.42,6.87-.48,6.65-.25,13.65-.43,19.74-3.4,6.12-3.46,8.46-10.74,12.02-16.38,4.76-7.29,9.47,2.83,12.02,6.72,1.84,3.05,3.82,6.28,6.01,9.1,1.26,1.47,2.57,3.37,4.29,4.3,1.94-1.75,4.39-2.91,6.87-3.68,2.99-1.12,6.37-1.09,9.44-.34,2.35.57,4.69,1.54,6.87,2.58,1.08.44,2.24,1.35,3.43,1.41,5.2-2.69,10.43-5.85,16.31-6.74,3.39-.3,6.91-.69,10.3-.41,2.85.58,5.72,1.47,8.58,2,2.52.47,5.18.6,7.73.95,4.81.53,9.13,2.95,13.73,4.24,4.54.32,9.18.03,13.73.12"/><path class="b" d="M9.73,59.41c6.28,0,12.6,0,18.89-.04,5.73.11,11.56.11,17.17-1.24,3.57-.75,6.94-2.6,9.44-5.25,1.67-1.83,3.11-4.22,4.29-6.39,1.64-2.63,3.72-8.94,7.73-7.44,2.77,1.63,4.28,4.89,6.01,7.48,2.65,4.21,5.15,8.75,8.58,12.4l.86.12c1.9-1.83,4.36-3.12,6.87-3.89,1.92-.63,3.97-1.28,6.01-1.33,5.91-.26,11.27,2.78,16.31,5.48,2.07-.62,4.01-1.96,6.01-2.78,3.26-1.5,6.72-2.83,10.3-3.29,4.28-.49,8.67.11,12.88.92,1.91.74,3.98,1.43,6.01,1.77,5.11.8,10.46-.39,15.45,1.34,2.28.64,4.53,1.75,6.87,2.16,4.27,0,8.6,0,12.88,0"/><path class="b" d="M9.73,54.75c7.43,0,14.89.09,22.32-.23,2.26-.06,4.61.06,6.87.21,1.98-.19,4.07-.48,6.01-.92,3.36-.84,6.87-2.09,9.44-4.48,1.74-1.69,3.14-4.05,4.29-6.16,1.67-2.97,4.29-9.6,8.58-6.61,5.57,5.19,7.96,13.13,13.73,18.16,3.77-3.36,9.63-4.75,14.59-4.63,4.63.27,8.87,2.49,12.88,4.64,3.3-1.74,6.72-3.4,10.3-4.5,3.57-1.21,7.36-2.22,11.16-2.01,3.49.26,6.92,1.32,10.3,2.15,1.95.5,4.06.78,6.01,1.26,5.09,1.06,10.37-.44,15.45.69,2.64.51,5.14,1.82,7.73,2.45,4.27,0,8.6,0,12.88,0"/><path class="b" d="M9.73,50.09c7.43.03,14.89.01,22.32-.18,2.55-.11,5.19.19,7.73.1,3.46-.38,6.97-1.06,10.3-2.05,6.28-1.7,8.38-7.9,12.02-12.54,3.46-4.27,5.77-2.01,8.58,1.41,3.7,4.56,6.51,10.57,12.02,13.22,3.44-1.59,7.4-2.11,11.16-1.79,2.34.22,4.64,1.1,6.87,1.79,5-1.94,10.24-3.38,15.45-4.64,3.66-.71,7.4-1.69,11.16-1.52,2.34.07,4.66.86,6.87,1.55,2.79.88,5.69,1.76,8.58,2.23,3.09.48,6.33.43,9.44.24,2.83-.23,5.75-.63,8.58-.33,2.99.22,5.78,1.6,8.58,2.5,4.27,0,8.6,0,12.88,0"/><path class="b" d="M9.73,45.43c5.14,0,10.32,0,15.45,0,3.41-.01,6.9.06,10.3-.3,2.57-.22,5.18-.75,7.73-1.16,2.86-.39,5.85-.74,8.58-1.72,4.61-1.5,7.17-6.09,11.16-8.56,5.61-3.26,10.47,2.8,14.59,5.86,2.69,2.15,6,3.52,9.44,3.8,10.75,1.49,21.15-2.54,31.76-3.4,2.54-.16,5.19-.43,7.73-.03,4.63.88,9.05,2.9,13.73,3.6,2.52.45,5.17.66,7.73.52,3.98-.33,8.01-1.01,12.02-.84,3.25.09,6.39,1.25,9.44,2.23,4.27,0,8.6,0,12.88,0"/><path class="b" d="M9.73,40.77c5.71-.1,11.47.22,17.17-.17,4.36-.3,8.63-1.5,12.88-2.4,4.29-.46,8.72-.56,12.88-1.83,2.64-.88,5.16-2.3,7.73-3.37,3.21-1.44,6.89-1.45,10.3-.87,2.9.59,5.74,1.74,8.58,2.54,3.6,1.13,7.42,1.34,11.16,1.36,4.85.36,9.75.26,14.59-.15,4.84-.37,9.73-1,14.59-.73,2.26.09,4.64.12,6.87.62,4.26,1,8.53,2.2,12.88,2.75,3.39.46,6.89.58,10.3.26,1.68-.14,3.48-.48,5.15-.73,1.37-.01,2.92.02,4.29.14,3.54.25,6.98,1.42,10.3,2.56,4.27,0,8.6,0,12.88,0"/><path class="b" d="M9.73,36.1c5.13-.08,10.33.17,15.45-.11,2.3-.53,4.65-1.25,6.87-2.06,1.39-.43,2.84-1.26,4.29-1.46,4.27-.32,8.61-.39,12.88-.69,3.14-.27,6.32-.76,9.44-1.17,3.1-.48,6.31-.58,9.44-.48,3.41-.16,6.89.07,10.3.2,2.83.11,5.75.14,8.58,0,2.26-.16,4.6-.37,6.87-.18,9.14.51,18.34.01,27.47.81,5.75.28,11.44,1.53,17.17,2.08,5.69.62,11.48.55,17.17-.13,2.31-.53,4.66.18,6.87.84,1.38.4,2.95.85,4.29,1.37.75.29,1.77.84,2.58.97,4.27,0,8.6,0,12.88,0"/><path class="b" d="M9.73,31.44c4.56,0,9.17,0,13.73,0,1.19.15,2.4-.5,3.43-.99,1.09-.51,2.36-1.14,3.43-1.69.46-.22,1.27-.67,1.72-.9,1.06-.29,2.35-.22,3.43-.29,1.97-.08,4.04-.16,6.01-.22,10.01-.45,20.04.76,30.04.36,4.57-.22,9.19-.44,13.73-.94,3.42-.36,6.85-1.12,10.3-.88,7.72.21,15.48.59,23.18,1.33,3.41.04,6.89.15,10.3.29,8.28.4,16.59,1.1,24.89.85,2.54.04,5.2-.32,7.73-.03,2.25.96,4.68,1.79,6.87,2.9,1.62.45,3.49.13,5.15.22,2.83,0,5.75,0,8.58,0"/><path class="b" d="M9.73,26.78c4.85,0,9.74,0,14.59,0,1.49-.39,2.91-1.44,4.29-2.09,1.35-.34,2.91-.12,4.29-.2,1.97-.03,4.04-.12,6.01-.24,4.84-.32,9.75-.68,14.59-.2,7.68.84,15.47,1.17,23.18.63,3.71-.21,7.48-.5,11.16-1,1.38-.18,2.92-.43,4.29-.65,1.96-.17,4.04-.14,6.01-.13,6.3.12,12.62.73,18.89,1.34,4.56.04,9.17.07,13.73.03,10.58.04,21.19,0,31.76.34.76.03,1.84,0,2.58.25,1.37.6,2.82,1.58,4.29,1.92,4.27,0,8.6,0,12.88,0"/><path class="b" d="M9.73,22.12c4.56,0,9.17,0,13.73,0,.8.07,1.8-.21,2.58-.32,2.55.03,5.18.05,7.73.03,8-.05,16.03-.6,24.04-.23,7.14.12,14.32.35,21.46-.06,6.58-.16,13.16-1.05,19.74-.86,5.44.05,10.89.7,16.31.93,12.01.13,24.04,0,36.05-.06,5.42-.03,10.89.08,16.31.13,1.9.67,4.03.39,6.01.44,2.83,0,5.75,0,8.58,0"/><path class="b" d="M9.73,17.46h172.54"/><path class="b" d="M9.73,12.8h172.54"/><path class="b" d="M9.73,8.14h172.54"/></svg>