<?xml version="1.0" encoding="UTF-8"?><svg id="a" xmlns="http://www.w3.org/2000/svg" width="1920" height="2400" viewBox="0 0 192 240"><defs><style>.b{fill:none;stroke:#fff;stroke-miterlimit:10;stroke-width:.3px;}.c{stroke-width:0px;}</style></defs><rect class="c" width="192" height="240"/><path class="b" d="M9.73,231.86h172.54"/><path class="b" d="M9.73,227.2h172.54"/><path class="b" d="M9.73,222.54c18.59,0,37.2,0,55.8,0,4.85,0,9.74,0,14.59,0,4.27-.32,8.6-.53,12.88-.54,4.28,0,8.6.32,12.88.54,7.14,0,14.32,0,21.46,0,18.31,0,36.63,0,54.94,0"/><path class="b" d="M9.73,217.88c4.85,0,9.74,0,14.59,0,.47-.07,1.29-.33,1.72-.52,1.08-.01,2.35-.02,3.43-.03,10.58-.07,21.18.22,31.76.07,2.55-.05,5.18,0,7.73-.12,2.26-.26,4.61-.54,6.87-.84,5.68-.83,11.43-1.5,17.17-1.73,6.34-.12,12.6,1.4,18.88,1.99,5.11.77,10.3.63,15.45.65,8.29.08,16.61-.27,24.89-.15,3.7.1,7.46.42,11.16.64,6.28.06,12.6.03,18.88.04"/><path class="b" d="M9.73,213.22c4.85,0,9.74,0,14.59,0,1.75-.3,3.45-1.27,5.15-1.76,1.67-.02,3.48-.02,5.15-.01,8.29.07,16.61.49,24.89.14,3.41-.17,6.91.05,10.3-.4,6.33-.68,12.57-2.21,18.89-3,3.11-.47,6.28-1.17,9.44-.83,6.93.7,13.7,2.76,20.6,3.65,4.56.34,9.15.94,13.73.81,4.6.04,9.19-.68,13.73-1.3,3.12-.42,6.4-.39,9.44.49,2.56.66,5.12,1.73,7.73,2.19,6.28,0,12.6.05,18.89.03"/><path class="b" d="M9.73,208.56c3.12,0,6.32,0,9.44,0,1.96-.08,4.07.18,6.01-.15,2.58-.82,5.15-1.94,7.73-2.76,3.41-.06,6.89-.07,10.3-.11,5.43.05,10.88-.49,16.31-.63,2.84-.05,5.75.11,8.58.17,3.7-.27,7.47-.3,11.16-.59,3.45-.25,6.92-.87,10.3-1.55,3.33-1,6.79-1.99,10.3-1.63,6.21.51,12.1,2.81,18.03,4.55,5.33,1.2,10.85,1.9,16.31,1.41,2.91-.22,5.84-.97,8.58-1.94,2.76-.94,5.61-2.19,8.58-2.05,3.79.27,7.06,2.65,10.3,4.42,2.41.98,5.19.63,7.73.87,4.27,0,8.6,0,12.88,0"/><path class="b" d="M9.73,203.9c3.12,0,6.32,0,9.44,0,1.96-.08,4.08.19,6.01-.17,2.57-.93,5.2-1.95,7.73-2.97,1.64-.67,3.33-1.55,5.15-1.37,4.28-.14,8.62-.29,12.88-.73,4.25-.6,8.58-1.13,12.88-.76,3.44.39,6.86.39,10.3.56,3.98.26,8.04.62,12.02.17,2.35-.15,4.66-.92,6.87-1.69,3.04-.91,6.35-.91,9.44-.3,5.3,1.03,10.3,3.25,15.45,4.8,6.97,1.76,14.69,2.65,21.46-.33,6.57-2.74,11.04-8.67,18.03-2.81,1.49,1.61,2.97,3.69,5.15,4.38,2.76.73,5.72,1.25,8.58,1.21,3.7,0,7.46,0,11.16,0"/><path class="b" d="M9.73,199.23c4.85,0,9.74,0,14.59,0,1.76-.38,3.48-1.38,5.15-2.02,2.84-1.23,5.76-2.5,8.58-3.77,1.54-.92,3.44-.64,5.15-.75,2.55-.09,5.19-.22,7.73-.5,2.85-.29,5.72-1.02,8.58-1.24,3.13-.25,6.34-.06,9.44.4,6.05-.16,11.98,1.78,18.03,1.55,2.38,0,4.59-1.24,6.87-1.74,5.59-1.25,11.16,1.04,16.31,2.99,12.14,4.87,22.55,7.18,33.48-1.82,3.03-2.17,6.25-5.55,10.3-4.82,2.91,2.44,4.71,6.19,7.73,8.55,2.28,1.55,5.08,2.49,7.73,3.18,4.27,0,8.6,0,12.88,0"/><path class="b" d="M9.73,194.57c4.85,0,9.74,0,14.59,0,2.08-.62,4.02-1.98,6.01-2.86,3.36-1.66,6.84-3.25,10.3-4.7.77-.31,1.75-.79,2.58-.91,1.08.06,2.35.12,3.43.16,2.26.08,4.62.1,6.87-.08,3.45-.27,6.83-1.44,10.3-1.6,2.25-.2,4.61-.09,6.87-.02,2.55-.22,5.2-.07,7.73.34,3.41.42,6.85,1.77,10.3,1.45,2.01-.34,3.96-1.38,6.01-1.59,6.13-.63,11.69,2.82,17.17,5.05,14.03,5.91,22.35,4.69,33.48-5.8,1.62-1.46,3.36-3.06,5.15-4.31,1.19-.3,2.47.55,3.43,1.15,3.32,2.39,5.72,5.93,8.58,8.81,1.25,1.22,2.85,2.39,4.29,3.37.72.5,1.7,1.31,2.58,1.52,4.27,0,8.6,0,12.88,0"/><path class="b" d="M9.73,189.91c4.56,0,9.17,0,13.73,0,.89.13,1.89-.33,2.58-.86,1.07-.68,2.34-1.48,3.43-2.12,2.99-1.76,6.19-3.35,9.44-4.56,1.65-.61,3.45-1.19,5.15-1.65,1.07-.31,2.34-.68,3.43-.3,3.08.53,6.31,1.33,9.44.89,1.69-.34,3.47-.91,5.15-1.29,3.38-.79,6.85-1.51,10.3-1.91,2.2-.62,4.58-1.03,6.87-.92,1.7.07,3.52.44,5.15.92,1.37.37,2.84,1.11,4.29.96,2.05-.16,3.95-1.38,6.01-1.54,5.69-.46,10.6,3.23,15.45,5.66,4.71,2.56,10.05,4.33,15.45,4.37,6.1-.12,11.62-3.58,16.31-7.21,1.41-1.12,2.95-2.45,4.29-3.65.79-.98,2.2-1.44,3.43-1.39,4.79-.13,7.18,2.81,10.3,5.87,1.96,1.9,4.05,3.92,6.01,5.82,1.06.91,2.11,2.38,3.43,2.91,4.27,0,8.6,0,12.88,0"/><path class="b" d="M9.73,185.25c4.56,0,9.17,0,13.73,0,.93.16,1.91-.41,2.58-.99,1.07-.79,2.33-1.72,3.43-2.46,2.9-1.97,6.08-3.7,9.44-4.73,3.03-.94,6.28-1.32,9.44-1.35,1.16-.13,2.38.41,3.43.8,2.58,1.03,5.04,1.46,7.73.53,4.69-1.16,9.31-2.73,13.73-4.66,3.08-1.16,6.01-3.27,9.44-3.14,1.44.03,3,.47,4.29,1.08,1.29.78,2.97.65,4.29.02,7.15-4.21,13.91,2.67,19.74,6.16,5.43,2.92,11.84,5.35,18.03,3.57,3.6-1.12,7.05-2.85,10.3-4.74,1.7-.88,3.34-2.28,5.15-2.92,1.07-.1,2.36-.12,3.43-.03,5.24.4,9.81,3.46,13.73,6.75,1.39,1.16,2.92,2.5,4.29,3.68,1.03.8,2.15,2.06,3.43,2.44,4.27,0,8.6,0,12.88,0"/><path class="b" d="M9.73,180.59c3.12,0,6.32,0,9.44,0,1.08,0,2.35,0,3.43,0,.81,0,1.85.09,2.58-.33,3.06-2.2,6.09-4.63,9.44-6.39,3.65-1.97,7.91-2.73,12.02-2.22,1.99.2,4.05.67,6.01,1.03,1.35.48,2.82,1.14,4.29.96,13.43-1.6,15.23-4.8,25.75-11.22,4.98-2.26,5.97,1.32,8.58-.03,5.19-4.14,9.81-2.29,14.59,1.34,3.03,2.03,6.2,4.06,9.44,5.73,4.18,2.13,9.14,3.17,13.73,1.86,2.86-.88,5.64-2.24,8.58-2.84,1.07-.21,2.33-.67,3.43-.61.76.18,1.82.44,2.58.64,2.61.71,5.26,1.66,7.73,2.77,4.14,1.84,8.08,4.24,12.02,6.46,1.05.6,2.35,1.29,3.43,1.84,1,.52,2.26,1.16,3.43,1.01,3.99,0,8.03,0,12.02,0"/><path class="b" d="M9.73,175.93c4.85,0,9.74,0,14.59,0,5.84-2.22,10.22-7.56,16.31-9.42,4.5-1.48,9.4-.55,13.73,1.08,2.85.21,5.71.96,8.58.95,13.24.63,19.96-13.43,28.33-9.53.96-.13,1.81-1.11,2.58-1.62,1.25-.88,2.78-1.66,4.29-1.96,6.59-1.2,13.34,5.38,18.89,8.37,4.4,2.54,9.37,5.03,14.59,4.57,2.57-.02,5.17-.94,7.73-.68,4.32.37,8.7.98,12.88,2.18,4.69,1.31,9.19,3.31,13.73,5.02,1.06.37,2.31.93,3.43,1.05,1.07,0,2.36,0,3.43,0,3.12,0,6.32,0,9.44,0"/><path class="b" d="M9.73,171.27c3.12,0,6.32,0,9.44,0,1.96-.08,4.07.19,6.01-.16,7.83-2.55,13.72-10.21,22.32-10.38,2.36,0,4.74.73,6.87,1.71,2.63.65,5.04,2.24,7.73,2.75,3.36.84,7,.76,10.3-.31,3.37-1.07,6.46-3.02,9.44-4.88,3.08-1.92,6.52-3.98,10.3-3.49,1.29-.3,2.32-1.59,3.43-2.24,2.76-1.97,6.45-2.17,9.44-.61,3.68,1.78,6.88,4.52,10.3,6.72,7.24,4.84,12.85,6.03,21.46,5.05,1.96-.23,4.05.19,6.01.32,3.14.31,6.34.75,9.44,1.35,5.5,1.04,10.89,2.71,16.31,4.06,4.54.27,9.18.02,13.73.11"/><path class="b" d="M9.73,166.61c3.41,0,6.89,0,10.3,0,2.59.02,5.27.16,7.73-.81,3.94-1.23,7.59-3.34,11.16-5.39,3.65-2.06,7.69-4.25,12.02-3.85,2.53.18,4.83,1.48,6.87,2.9,1.58.95,3.39,1.79,5.15,2.32,3.03.92,6.37,1,9.44.24,5.69-1.34,10.33-5.16,15.45-7.74,1.57-.87,3.48-1.12,5.15-1.7,3.98-2.74,7.04-5.07,12.02-2.76,3.39,1.6,6.32,4.13,9.44,6.17,6.89,4.76,12.43,5.42,20.6,5.36,2.27-.16,4.62.11,6.87.45,3.13.41,6.33.85,9.44,1.35,5.75.9,11.47,2.19,17.17,3.38,4.55.23,9.18.02,13.73.09"/><path class="b" d="M9.73,161.95c5.13-.05,10.32.09,15.45-.06,4.44-.53,8.84-1.76,12.88-3.69,4.55-2.01,8.74-5.27,13.73-6.07,2.72-.54,4.02,1.09,6.01,2.53,1.8,1.26,3.89,2.3,6.01,2.87,3.36.92,7,.66,10.3-.39,4.98-1.54,9.28-4.67,13.73-7.26,1.84-1.2,4.16-1.69,6.01-2.85,3.4-2.47,7.21-3.71,11.16-1.65,5.76,3,10.65,7.89,17.17,9.32,1.93.49,4.03.57,6.01.64,1.96.19,4.04.44,6.01.51,2.28.03,4.64.17,6.87.73,2.83.54,5.75,1.06,8.58,1.58,6.31,1.11,12.6,2.49,18.89,3.72,4.55.21,9.18.02,13.73.08"/><path class="b" d="M9.73,157.29c10.9-.31,22.72,1.51,32.62-4.11,2.34-1.28,4.62-2.9,6.87-4.32,1.56-.94,3.31-2.01,5.15-2.23,2.35,1.39,4.22,3.57,6.87,4.57,8.68,3.79,17.72-1.47,24.89-6.19,2.4-1.68,5.14-2.9,7.73-4.23,3.68-2.15,7.38-2.51,11.16-.38,5.97,3.39,11.66,8.12,18.89,8.17,1.38.04,2.92-.12,4.29-.1,1.08.06,2.36.27,3.43.38,1.96.21,4.04.38,6.01.5,3.14.79,6.3,1.83,9.44,2.6,7.13,1.79,14.23,3.9,21.46,5.26,4.55.19,9.18.02,13.73.07"/><path class="b" d="M9.73,152.63c5.14,0,10.32,0,15.45,0,5.85.09,12-.25,17.17-3.28,2.44-1.36,4.72-3.2,6.87-4.97,1.58-1.24,3.24-2.76,5.15-3.46,1.23.57,2.34,1.75,3.43,2.53,1.27.9,2.8,1.69,4.29,2.14,9.46,2.6,18.3-3.76,25.75-8.81,3.28-2.2,7.08-4.41,11.16-4.28,3.49.25,6.51,2.36,9.44,4.08,4.59,2.88,9.93,5.05,15.45,4.5,2.26-.24,4.58-.89,6.87-.44,2.25.23,4.61.45,6.87.65,2.31.78,4.59,1.97,6.87,2.85,7.88,3.1,15.64,6.97,24.04,8.45,4.56.16,9.17.01,13.73.06"/><path class="b" d="M9.73,147.97c5.42-.04,10.89.09,16.31-.06,6.07-.15,12-1.18,17.17-4.55,2.37-1.45,4.66-3.26,6.87-4.95,1.33-.86,2.67-2.37,4.29-2.55,1.16.6,2.34,1.59,3.43,2.28,2.29,1.39,5.07,1.99,7.73,1.82,7.56-.8,14.82-4.31,20.6-9.19,1.12-.96,2.39-2.17,3.43-3.2.98-.94,2.07-2.21,3.43-2.57,6.5-2.71,11.73,1.87,17.17,4.76,5.7,3.18,12.65,4.06,18.89,2,1.96,0,4.05.03,6.01.04,1.08.06,2.42-.16,3.43.31,6.51,3.34,12.63,7.41,18.88,11.18,3.46,2.02,7.19,3.85,11.16,4.58,4.55.2,9.18.02,13.73.08"/><path class="b" d="M9.73,143.3c4.85,0,9.74,0,14.59,0,5.11-1.19,10.13-3.26,14.59-6.02,2.36-1.48,4.66-3.24,6.87-4.93,2.33-1.66,4.78-3.82,7.73-4.12,1.54.82,2.93,2.17,4.29,3.24,1.74,1.25,3.89,2.07,6.01,2.34,6.39.73,16.9-1.65,22.32-5.19,1.51-.99,3.04-2.32,4.29-3.61.72-.73,1.59-1.86,2.58-2.25,4.35-2.72,7.81-4.19,12.88-2.25,5.02,1.91,10.02,4.26,15.45,4.65,3.16.39,6.36-.09,9.44-.78,1.96-.05,4.04.21,6.01.19,1.57-.16,2.95,1.15,4.29,1.78,1.97,1.09,4.07,2.21,6.01,3.35,6.9,3.78,12.45,9.82,19.74,12.88,1.85.9,4.01.72,6.01.72,3.12,0,6.32,0,9.44,0"/><path class="b" d="M9.73,138.64c4.56,0,9.17,0,13.73,0,1.83.13,3.52-1.11,5.15-1.78,3.38-1.61,6.64-3.7,9.44-6.2,2.73-2.4,5.18-5.25,7.73-7.84,2.59-2.52,5.98-5.77,9.44-2.71,5.18,5.28,8.91,6.74,16.31,6.91,4.88.01,10.06.13,14.59-1.92,1.17-.55,2.46-1.42,3.43-2.27.78-.67,1.66-1.79,2.58-2.29,2.01-.46,4.01-1.37,6.01-1.89,5.42-1.52,10.98.36,16.31,1.42,3.93.79,7.99,1.61,12.02,1.28,2.87-.25,5.65-1.83,8.58-1.4,1.09.16,2.46.06,3.43.65,1.9,1.29,3.99,2.54,6.01,3.62,3.45,1.82,7.04,3.56,10.3,5.71,3.45,2.23,6.73,4.88,10.3,6.92,1.31.69,2.82,1.53,4.29,1.77,1.07,0,2.36,0,3.43,0,3.12,0,6.32,0,9.44,0"/><path class="b" d="M9.73,133.98c4.85,0,9.74,0,14.59,0,2.99-.71,5.94-2.09,8.58-3.65,3.04-1.88,5.62-4.6,7.73-7.47,2.88-3.36,7.61-13.95,12.02-13.85,1.62.22,3.33.98,4.29,2.35,1.26,1.37,2.79,2.8,4.29,3.9,3.76,2.79,8.35,4.29,12.88,5.28,6.13,1.36,12.72,2.12,17.17-3.27,2.85.13,5.74-.41,8.58-.53,3.15-.11,6.36.32,9.44.93,5.66.97,11.36,3.18,17.17,2.45,2.08-.3,4.03-1.42,6.01-2.07,1.87-.62,4.2-1.02,6.01-.04,2.46,1.68,5.05,3.37,7.73,4.7,3.66,1.82,7.56,3.28,11.16,5.2,3.71,1.92,7.28,4.3,11.16,5.87,1.63.38,3.48.11,5.15.18,2.83,0,5.75,0,8.58,0"/><path class="b" d="M9.73,129.32c5.13-.07,10.33.14,15.45-.09,8.3-1.24,13-4.2,17.17-11.56,2.18-3.56,3.74-7.76,6.01-11.26,1.97-1.88,4-3.93,6.01-5.77.99-.34,1.94.21,2.58.95.77.72,1.8,1.7,2.58,2.41,2.13,1.97,4.46,3.91,6.87,5.53,5.17,3.32,10.94,6.5,17.17,6.96,1.77.06,3.66-.41,5.15-1.38.8-.52,1.68-1.51,2.58-1.88,2.74.96,5.73,1.01,8.58,1.34,3.16.35,6.36.97,9.44,1.72,5.33,1.2,10.77,3.26,16.31,2.5,2.14-.27,4.09-1.46,6.01-2.34,5.63-2.52,6.6-.65,11.16,2.25,5.73,3.78,12.58,5.16,18.89,7.66,2.27.88,4.6,1.88,6.87,2.76,1.64.36,3.48.1,5.15.17,2.83,0,5.75,0,8.58,0"/><path class="b" d="M9.73,124.66c6.57-.08,13.19.21,19.74-.25,8.99-.35,12.84-6.34,16.31-13.78,1.97-3.98,3.47-8.54,6.01-12.2,1.34-1.11,2.53-3.01,4.29-3.43,5.17,2.14,9.12,6.45,13.74,9.51,5.51,3.67,14.58,10.28,20.6,4.39l.86-.16c2.37,1.31,5.1,1.95,7.73,2.52,2.85.63,5.76,1.31,8.58,2.04,7.49,1.89,16.12,4.73,23.18.1,4.41-2.2,6.63-1.47,10.3,1.48,6.21,4.68,12.33,5.95,19.74,7.42,2.9.54,5.74,1.65,8.58,2.33,4.27,0,8.6,0,12.88,0"/><path class="b" d="M9.73,120c7.43.05,14.89,0,22.32-.24,7.49,1.28,11.52-4.42,14.59-10.33,1.75-3.33,3.36-7.07,5.15-10.38,1.49-2.56,3.45-5.71,6.87-5.06,3.11.37,5.94,2.07,8.58,3.63,3.64,2.21,7.27,4.62,11.16,6.36,2.91,1.27,6.29,2.41,9.44,1.39,1.21-.32,2.23-1.51,3.43-1.8,4.61,3.03,10.21,4.01,15.45,5.44,7.12,1.65,16.64,3.96,23.18-.32,3.91-2.43,7.08-1.4,10.3,1.53,6.86,5.8,12.79,7.13,21.46,8.16,2.59.3,5.19,1.07,7.73,1.62,4.27,0,8.6,0,12.88,0"/><path class="b" d="M9.73,115.34c4.85,0,9.74,0,14.59,0,2.84-.2,5.74-.68,8.58-.75,1.98-.06,4.1,0,6.01.6,3.94-.33,6.79-5.5,8.58-8.61,1.7-3.15,3.28-6.7,5.15-9.75.86-1.26,1.97-2.9,3.43-3.51.42-.03,1.29-.11,1.72-.12,7.22-.04,13.72,3.87,20.6,5.56,4.19,1.12,9.31,2,12.88-1.11.87.23,1.8,1,2.58,1.43,1.32.74,2.87,1.41,4.29,1.91,4.69,1.74,9.68,2.52,14.59,3.33,4.22.68,8.6,1.85,12.88,1.01,1.87-.34,3.54-1.51,5.15-2.44,2.2-1.35,4.64-.78,6.87.16,1.16.7,2.35,1.8,3.43,2.62,7.05,5.74,12.78,6.73,21.46,7.99,2.31.32,4.61,1.17,6.87,1.69,4.27,0,8.6,0,12.88,0"/><path class="b" d="M9.73,110.68c5.13-.06,10.33.13,15.45-.08,3.94-.67,8.01-1.27,12.02-.95,1.43.05,2.9.71,4.29.89,4.27-2.27,6.48-7.04,8.58-11.16,1.42-2.44,4.18-10.31,6.87-10.76,4.94-.71,9.88.78,14.59,2.12,3.67,1.06,7.39,2.22,11.16,2.83,3.24.59,6.77.33,9.44-1.77.88.05,1.81.74,2.58,1.11,1.06.52,2.33,1.07,3.43,1.48,3.94,1.47,8.04,2.67,12.02,4.03,4.71,1.48,9.56,3.52,14.59,3.08,2.2-.17,4.19-1.36,6.01-2.49,2.05-1.32,4.59-1.19,6.87-.63,1.16.51,2.36,1.43,3.43,2.1,6.9,4.75,12.7,5.77,20.6,7.56,1.39.36,2.94.83,4.29,1.34,1.09.37,2.3,1.09,3.43,1.3,4.27,0,8.6,0,12.88,0"/><path class="b" d="M9.73,106.02c5.13-.07,10.33.14,15.45-.09,5.6-.98,11.72-2.04,17.17.08,5.91-2.72,8.39-9.47,11.16-14.91,2.98-6.78,4.12-6.39,11.16-5.89,7.56.85,14.76,3.8,22.32,4.56,1.09.07,2.38.01,3.43-.25,1.36-.45,2.92-1.31,4.29-.41,1.06.53,2.34,1.11,3.43,1.58,4.23,1.77,8.58,3.4,12.88,4.99,3.85,1.37,7.88,2.8,12.02,2.71,1.42-.04,2.98-.35,4.29-.89,1.48-.62,2.91-1.73,4.29-2.53,1.75-1.12,3.96-1.46,6.01-1.42.82.17,1.83.7,2.58,1.08,3.34,1.74,6.74,3.56,10.3,4.82,3.93,1.43,8.07,2.38,12.02,3.76,2.31.68,4.71,2.13,6.87,2.81,4.27,0,8.6,0,12.88,0"/><path class="b" d="M9.73,101.36c4.85,0,9.74,0,14.59,0,3.12-.33,6.29-.91,9.44-.96,2.56-.07,5.22.01,7.73.57,2.69,1.09,6.07-2.18,7.73-4.07,1.68-2.04,3.13-4.65,4.29-7.02,1.41-2.81,2.65-6.7,6.01-7.68,3.99-.44,8.07-.1,12.02.53,5.78.83,11.4,2.67,17.17,3.56,1.97.35,4.08-.55,6.01.12,6.88,3.39,13.93,6.77,21.46,8.41,3.7.76,7.77.71,11.16-1.1,3.6-1.94,6.7-6.05,11.16-5.64,4.46,1.6,8.49,4.3,12.88,6.07,5.37,2.31,11.05,4,16.31,6.56,1.76,1.09,4.04.52,6.01.65,2.83,0,5.75,0,8.58,0"/><path class="b" d="M9.73,96.7c5.14-.02,10.32.03,15.45-.02,5.41-.29,10.91-.73,16.31-.05,4.17-.06,8.01-2.69,10.3-6.06,1.97-2.68,3.05-6.21,5.15-8.79,2.21-2.87,4.43-2.72,7.73-2.94,4.58-.26,9.24.11,13.73,1,3.47.65,6.88,1.82,10.3,2.69,1.94.57,4.17.17,6.01,1.08,7.86,4.64,17.22,9.48,26.61,7.98,2.84-.53,5.56-1.95,7.73-3.85,1.96-1.7,3.74-3.87,6.01-5.17,1.91-1.08,3.03-1.55,5.15-.44,2.38,1.1,4.65,2.67,6.87,4.06,6.93,4.43,14.62,7.72,22.32,10.52,4.27,0,8.6,0,12.88,0"/><path class="b" d="M9.73,92.03c4.85,0,9.74,0,14.59,0,2.54-.19,5.17-.32,7.73-.33,5.41-.24,11.31.7,16.31-1.83,2.16-1.18,3.9-3.26,5.15-5.34,1.87-3.24,3.7-7.71,7.73-8.63,6.48-1.3,13.3-1.96,19.74-.14,2.9.75,5.72,2.04,8.58,2.89,1.38.42,3.06.33,4.29,1.17,2.65,2.03,5.53,3.95,8.58,5.33,10.1,4.6,21.14,4.28,28.33-5.09,1.89-2.28,4-4.77,6.87-5.82,1.92.02,3.64,1.51,5.15,2.55,4.42,3.53,8.7,7.4,13.73,10.06,4.07,2.14,8.43,4.04,12.88,5.18,4.27,0,8.6,0,12.88,0"/><path class="b" d="M9.73,87.37c4.85,0,9.74,0,14.59,0,3.65-.74,7.42-1.13,11.16-1.04,5.47-.15,12.16,1.5,16.31-3.07,2.61-2.84,3.78-6.98,6.87-9.44,1.42-1.19,3.45-1.49,5.15-2.09,2.5-.78,5.13-1.5,7.73-1.84,4.05-.6,8.24.06,12.02,1.6,2.79,1.12,5.58,2.49,8.58,2.93,3.61,3.59,7.89,6.75,12.88,8.06,6.52,1.77,14.01,1.16,19.74-2.57,2.36-1.58,4.35-3.87,6.01-6.15,1.86-2.53,3.87-5.41,6.87-6.67,3.59.16,9.65,8.49,12.88,10.99,5.23,4.81,11.93,7.97,18.89,9.3,4.27,0,8.6,0,12.88,0"/><path class="b" d="M9.73,82.71c4.85,0,9.74,0,14.59,0,2.8-.59,5.71-1.1,8.58-.86,2.27.12,4.62.49,6.87.82,1.68-.07,3.47-.42,5.15-.4,1.09,0,2.38.13,3.43.41.84-.16,1.87-.66,2.58-1.13,2.99-2,4.21-5.81,6.87-8.15,1.69-1.52,4.07-2.21,6.01-3.35,3-1.56,6.13-3.15,9.44-3.95,3.38-.86,6.99-.52,10.3.48,2.49.79,5.1,1.48,7.73,1.58,2.54,2.69,5.23,5.49,8.58,7.16,7.15,3.46,16.13,4.53,23.18.28,2.75-1.63,5.05-4.11,6.87-6.71,2.13-3.02,4.27-6.54,7.73-8.18,3.58.16,9.1,9.22,12.02,11.93,2.88,3.11,6.33,5.9,10.3,7.47,3.04,1.09,6.25,2.08,9.44,2.6,4.27,0,8.6,0,12.88,0"/><path class="b" d="M9.73,78.05c4.56,0,9.17,0,13.73,0,1.4.07,2.9-.37,4.29-.46,1.96-.16,4.05-.08,6.01.12,1.08.08,2.35.36,3.43.27,2.25-.3,4.6-.63,6.87-.66,1.4-.01,2.95.14,4.29.55,1.26.27,2.47-.82,3.43-1.5,1.65-1.34,2.82-3.45,4.29-4.95.93-.84,2.33-1.29,3.43-1.83,1.1-.54,2.37-1.25,3.43-1.86,4.57-2.59,9.2-5.81,14.59-6.18,4.18-.36,7.98,1.89,12.02,2.5,1.73.79,2.86,2.73,4.29,3.93,1.97,1.82,4.35,3.37,6.87,4.31,8.24,2.91,18.53.76,24.89-5.23,4.19-3.95,6.32-10.31,12.02-12.52,3.9.69,10.18,10.91,13.73,14.03,4.79,4.97,11.3,8.18,18.03,9.5,4.27,0,8.6,0,12.88,0"/><path class="b" d="M9.73,73.39c4.85,0,9.74,0,14.59,0,2.53-.43,5.15-.81,7.73-.7,7.7.25,15.92,2.03,21.46-4.8.89-1.46,2.81-1.67,4.29-2.22,2.04-.74,4.11-1.76,6.01-2.8,5.01-2.61,9.7-6.52,15.45-7.27,3.23-.33,6.43.88,9.44,1.89,1.69,1.07,2.93,2.98,4.29,4.4,2.47,2.66,5.83,4.61,9.44,5.13,5.84.78,11.87-.71,17.17-3.15,3-1.44,5.69-3.69,7.73-6.32,1.15-1.46,2.25-3.42,3.43-4.85,1.93-1.81,4.21-3.65,6.87-4.19,2.49.99,4.22,3.57,6.01,5.47,2.78,3.31,5.51,6.84,8.58,9.9,4.63,4.72,10.66,8.22,17.17,9.5,4.27,0,8.6,0,12.88,0"/><path class="b" d="M9.73,68.73c4.85,0,9.74,0,14.59,0,1.68-.29,3.44-.86,5.15-1.02,4.83-.57,9.83-.03,14.59-1.19,1.75-.42,3.58-1.11,5.15-1.99,1.41-.78,2.78-2,4.29-2.58,1.63-.61,3.47-.95,5.15-1.38,2.37-.67,4.73-1.72,6.87-2.95,3-1.71,5.81-3.9,8.58-5.95,2.56-1.85,5.35-3.88,8.58-4.25,1.71-.18,3.54.24,5.15.8,1.82.89,3.06,2.88,4.29,4.41,3.02,4.05,7.75,6.84,12.88,6.76,6.61-.12,14.72-1.61,19.74-6.16,1.24-1.14,2.5-2.7,3.43-4.09.68-1.06,1.54-2.7,2.58-3.47,2.03-1.35,4.39-2.57,6.87-2.72,1.33.55,2.43,1.95,3.43,2.94,1.75,1.89,3.51,4.06,5.15,6.05,4.22,5.12,8.7,10.38,14.59,13.61,2.68,1.38,5.62,2.62,8.58,3.18,4.27,0,8.6,0,12.88,0"/><path class="b" d="M9.73,64.07c4.85,0,9.74,0,14.59,0,2.26-.6,4.52-1.56,6.87-1.83,3.69-.56,7.51-.67,11.16-1.49,2.98-.56,5.77-1.92,8.58-2.97,2.74-1.02,5.74-1.07,8.58-1.53,5.32-1.01,9.93-4.27,13.73-7.99,3.74-3.29,7.85-9.63,12.88-10.48,6.88-.92,6.04,12.08,22.32,12.99,8.7.45,16.02-.17,20.6-8.61.24-.6,1.22-1.8,1.72-2.21.39-.2,1.3-.59,1.72-.76,1.59-.64,3.43-1.09,5.15-1.11,1.32.61,2.41,2.02,3.43,3.02,2.05,2.19,4.07,4.64,6.01,6.92,5.64,6.8,11.86,13.15,20.6,15.64,1.87.74,4.05.32,6.01.42,2.83,0,5.75,0,8.58,0"/><path class="b" d="M9.73,59.41c4.85,0,9.74,0,14.59,0,1.73-.51,3.39-1.62,5.15-2.1,2.76-.91,5.72-1.27,8.58-1.66,2.27-.32,4.64-.71,6.87-1.26,2.24-.59,4.55-1.38,6.87-1.62,1.11-.22,2.35.31,3.43.49,1.36.25,2.91.35,4.29.3,7.98-.21,14.5-5.47,18.89-11.78,2.55-2.87,7.17-10.91,11.16-10.73,1.89-.25,3.05,1.88,4.29,2.96,1.58,1.63,3.35,3.35,5.15,4.74,3.76,3.04,8.43,4.57,12.88,6.3,5.46,2.28,12.5,2.23,16.31-2.91,1-1.29,2.01-3.09,3.43-3.98,2.97-1.09,6.3-1.64,9.44-1.07,8.58,8.34,16.03,19.4,28.33,22.32,4.27,0,8.6,0,12.88,0"/><path class="b" d="M9.73,54.75c3.41,0,6.89,0,10.3,0,1.08,0,2.35,0,3.43,0,.89.14,1.89-.35,2.58-.88,2.83-1.87,6.09-3.19,9.44-3.75,3.1-.56,6.33-.8,9.44-1.29,1.98-.22,4.03-1.15,6.01-.55,2.62.52,5.03,2.04,7.73,2.26,5.29.55,10.93-.62,15.45-3.46,3.05-1.95,5.58-4.78,7.73-7.67,2.62-3.17,6.11-10.26,10.3-10.92,2.95.76,5.28,3.16,7.73,4.85,3.89,2.86,7.74,5.92,12.02,8.19,4.33,2.5,9.96,4.22,14.59,1.52,1.99-1.14,3.36-3.27,5.15-4.65,3.09-2.06,9.32-2.38,12.88-1.64,7.58,6.83,14.68,15.24,24.89,17.99,4.27,0,8.6,0,12.88,0"/><path class="b" d="M9.73,50.09c3.12,0,6.32,0,9.44,0,1.08,0,2.35,0,3.43,0,.82,0,1.86.09,2.58-.37,2.12-1.69,4.4-3.39,6.87-4.53,4.27-2.03,9.11-2.12,13.73-2.43,1.94.49,4.02.79,6.01,1.03,2.41.53,4.41,2.43,6.87,3.04,3.85,1.19,8.05,1.39,12.02.73,14.65-1.86,17.31-20.27,24.89-17.73,2.8.93,5.28,2.8,7.73,4.4,3.3,2.23,6.71,4.45,10.3,6.19,3.93,1.96,8.5,3.43,12.88,2.19,1.9-.53,3.52-1.97,5.15-3.02,1.78-1.23,3.98-1.89,6.01-2.55,3.02-.98,6.25-1.69,9.44-1.65,1.35.02,2.39,1.44,3.43,2.15,1.69,1.4,3.48,2.97,5.15,4.38,4.04,3.45,8.61,6.63,13.73,8.16,4.27,0,8.6,0,12.88,0"/><path class="b" d="M9.73,45.43c3.12,0,6.32,0,9.44,0,1.08,0,2.35,0,3.43,0,1.31.09,2.44-.02,3.43-.95,4.78-3.68,10.12-6.57,16.31-6.49,1.39.44,2.89,1.06,4.29,1.48,2.21.68,4.57,1.22,6.87,1.45,1.13.43,2.3,1.28,3.43,1.73,5.11,2.1,10.86,2.32,16.31,1.82,5.38-.39,10.1-3.23,13.73-7.1,1.89-1.84,3.73-4.02,6.01-5.38,4.8-2.48,10.2,1.25,14.59,3.14,3.84,1.86,7.84,3.62,12.02,4.59,3.73.76,7.75.51,11.16-1.28,2.44-1.12,5.19-1.63,7.73-2.49,3.91-1.27,7.9-2.66,12.02-3.03,1.31-.07,2.39,1.24,3.43,1.88,1.4,1.06,2.93,2.29,4.29,3.39,3.45,2.68,7.08,5.63,11.16,7.24,4.27,0,8.6,0,12.88,0"/><path class="b" d="M9.73,40.77c4.56,0,9.17,0,13.73,0,.9.14,1.9-.34,2.58-.88,1.07-.72,2.34-1.56,3.43-2.24,2.88-1.8,6.07-3.33,9.44-3.91,4.82,1.3,9.59,3.11,14.59,3.63,1.17.07,2.34.9,3.43,1.25,1.91.71,4,1.23,6.01,1.57,1.66.28,3.47.48,5.15.59,1.37-.09,2.91-.16,4.29-.15,1.08,0,2.36.05,3.43.15,2.01-.14,4.11-.58,6.01-1.25,4.69-1.49,8.25-5.34,12.88-6.93,6.85-1.6,13.9,1.66,20.6,2.86,3.64.82,7.44,1.23,11.16.74,1.71-.18,3.47-.81,5.15-1.13,2.85-.4,5.8-.69,8.58-1.45,3.15-.77,6.31-1.77,9.44-2.61,1.65-.36,3.44-1.05,5.15-.96,3.66,2.23,6.92,5.18,10.3,7.8,1.38.93,2.71,2.38,4.29,2.93,4.27,0,8.6,0,12.88,0"/><path class="b" d="M9.73,36.1c4.85,0,9.74,0,14.59,0,1.53-.47,2.9-1.71,4.29-2.47,2.16-1.33,4.49-2.61,6.87-3.51,3.75.34,7.45,1.6,11.16,2.27,2.52.54,5.16.94,7.73,1.25,3.32,1.14,6.83,1.92,10.3,2.4,3.69-.23,7.44-.76,11.16-.59,1.38.04,2.92.17,4.29.37,1.1.29,2.36.19,3.43-.17,3.52-.84,6.82-2.57,10.3-3.51,8.22-1.45,16.64-.11,24.89.32,4,.25,8.06-.26,12.02-.76,3.13.06,6.34.07,9.44-.37,3.76-.47,7.52-1.34,11.16-2.4,1.37-.4,2.92-.86,4.29-1.25.74-.21,1.79-.57,2.58-.45,3.8,2.28,7.04,5.48,10.3,8.44.41.27,1.23.5,1.72.41,1.08,0,2.36,0,3.43,0,2.83,0,5.75,0,8.58,0"/><path class="b" d="M9.73,31.44c4.56,0,9.17,0,13.73,0,.89.13,1.89-.32,2.58-.84,1.07-.68,2.34-1.47,3.43-2.12.77-.44,1.79-1.03,2.58-1.44,1.67-.24,3.48.22,5.15.35,5.43.66,10.86,1.71,16.31,2.18,3.41.55,6.87,1.28,10.3,1.71,2.54.3,5.18-.38,7.73-.4,4.28-.25,8.64-.11,12.88.54,2.58-.27,5.18-.95,7.73-1.42,6.55-.56,13.17-.94,19.74-1.11,6.01.02,12.04-.23,18.03-.64,9.18.99,18.6.46,27.47-2.2,4.61-1.37,3.87-1.5,7.73,1.67.76.72,1.82,1.74,2.58,2.47.53.7,1.65,1.45,2.57,1.25,3.99,0,8.03,0,12.02,0"/><path class="b" d="M9.73,26.78c4.85,0,9.74,0,14.59,0,1.53-.49,2.9-1.74,4.29-2.51.77-.27,1.78-.18,2.58-.15,5.72.18,11.47.65,17.17,1.12,4.28.32,8.61.54,12.88,1.03,1.96.18,4.04.41,6.01.5,3.12-.2,6.32-.34,9.44-.36,3.42-.07,6.89.24,10.3.33,3.98-.41,8.03-.39,12.02-.64,10-.66,20.03-.9,30.04-1.27,10.85.86,21.91,1.26,32.62-.99,1.07-.15,2.36-.68,3.43-.33,1.49.89,2.72,2.54,4.29,3.27,4.27,0,8.6,0,12.88,0"/><path class="b" d="M9.73,22.12c4.56,0,9.17,0,13.73,0,.84.13,1.79-.37,2.58-.58,1.38,0,2.91,0,4.29.01,16.02,0,32.05.61,48.07.51,11.15.17,22.32-.28,33.48-.27,5.42.09,10.89-.13,16.31-.13,7.14.07,14.32.24,21.46.2,5.71,0,11.46-.13,17.17-.36,1.15-.26,2.29.8,3.43.62,3.99,0,8.03,0,12.02,0"/><path class="b" d="M9.73,17.46h172.54"/><path class="b" d="M9.73,12.8h172.54"/><path class="b" d="M9.73,8.14h172.54"/></svg>