<?xml version="1.0" encoding="UTF-8"?><svg id="a" xmlns="http://www.w3.org/2000/svg" width="1920" height="2400" viewBox="0 0 192 240"><defs><style>.b{fill:none;stroke:#fff;stroke-miterlimit:10;stroke-width:.3px;}.c{stroke-width:0px;}</style></defs><rect class="c" x="0" width="192" height="240"/><path class="b" d="M9.43,232.24h173.13"/><path class="b" d="M9.43,227.56h173.13"/><path class="b" d="M9.43,222.89c16.94,0,33.88,0,50.82,0,12.63,0,25.28.07,37.9-.3,2.85-.07,5.77.2,8.61.3,7.74,0,15.51,0,23.26,0,17.51,0,35.03,0,52.54,0"/><path class="b" d="M9.43,218.21c7.45-.03,14.94.1,22.39-.16,6.02-.2,12.06-.87,18.09-.67,12.9.55,25.86.99,38.76.28,4.62-.33,9.15-1.7,13.78-1.96,4.95-.37,9.8,1.07,14.64,1.85,1.67.17,3.49.18,5.17.25,10.9.32,21.83.17,32.73.2,9.18.06,18.38.28,27.56.21"/><path class="b" d="M9.43,213.53c3.71,0,7.49,0,11.2,0,2.85,0,5.79.06,8.61-.43,5.83-.36,11.42-2.46,17.23-2.9,3.49-.22,6.9.97,10.34,1.36,5.69.85,11.47,1.28,17.23,1.17,5.44-.09,11.03.27,16.37-1.01,5.11-1.4,10.05-4.28,15.5-3.91,4.76.21,9.12,2.63,13.78,3.26,9.99,1.22,20.1,1.4,30.15,1.43,6.32-.13,12.69.05,18.95.97,4.57.14,9.21.01,13.78.05"/><path class="b" d="M9.43,208.86c3.42,0,6.91,0,10.34,0,3.15.03,6.39.07,9.47-.64,3.43-1,6.96-1.92,10.34-3.13,3.29-1.15,6.78-2.6,10.34-2.12,2.03.31,4.02,1.26,6.03,1.68,4.77,1.26,9.7,2.27,14.64,2.44,7.16.24,14.88,1.27,21.53-2.01,3.55-1.81,7.22-3.78,11.2-4.41,5.41-.86,10.46,1.85,15.5,3.31,7.09,1.34,14.32,2.24,21.53,2.34,6.59.08,13.25-.63,19.81.22,1.14.1,2.35.79,3.45,1.06,1.95.49,4.03,1.02,6.03,1.25,4.29,0,8.63,0,12.92,0"/><path class="b" d="M9.43,204.18c3.42,0,6.91,0,10.34,0,4.04.1,8.2-.1,12.06-1.42,1.46-.48,2.96-1.3,4.31-2.04,1.71-.6,3.51-1.35,5.17-2.06,2.73-1.15,5.6-2.5,8.61-2.48,1.46,0,2.96.55,4.31,1.02,5.47,1.3,10.71,3.79,16.37,4.25,5.7.59,11.65,1.13,17.23-.49,2.13-.6,4.12-1.85,6.03-2.93,4.17-2.3,8.96-4.16,13.78-3.08,3.9.69,7.45,2.7,11.2,3.83,10.9,2.92,18.28,3.63,29.29.6,3-.61,7.6-1.71,10.34-.21,1.36.92,2.83,2.07,4.31,2.8,2.17.94,4.56,1.77,6.89,2.2,4.29,0,8.63,0,12.92,0"/><path class="b" d="M9.43,199.5c8.92-.27,18.58,1.32,26.7-3.24,1.14-.62,2.35-1.55,3.45-2.24,1.09-.47,2.36-1.04,3.45-1.52,2.7-1.18,5.6-2.5,8.61-2.3.8.06,1.83.31,2.58.59,1.72.14,3.55.47,5.17,1.1,4.48,1.75,8.92,3.91,13.78,4.33,4.55.58,9.31.73,13.78-.46,2.46-.61,4.67-2.07,6.89-3.23,4.54-2.52,9.66-3.47,14.64-1.67,2.94.95,5.79,2.38,8.61,3.61,3.64,1.23,7.38,2.47,11.2,3.05,3.7.62,7.59.7,11.2-.45,4.96-1.4,9.07-4.79,13.78-6.75,2.39-1.29,6.78,3.77,8.61,5.22,2.25,1.77,5,3.21,7.75,3.97,4.29,0,8.63,0,12.92,0"/><path class="b" d="M9.43,194.83c3.42,0,6.91,0,10.34,0,2.86.05,5.8.02,8.61-.57,3.64-.61,7.25-1.91,10.34-3.96,1.77-1.03,3.27-2.78,5.17-3.57,3.2-1.41,6.78-2.95,10.34-2.1.79.15,1.8-.12,2.58-.14,1.13,0,2.41.36,3.45.79,4.27,1.92,8.19,4.92,12.92,5.65,5.08.94,10.56,1.17,15.5-.53,2.62-1.03,5.07-2.67,7.75-3.54,7.12-2.71,13.52,1.18,19.81,4.12,4.14,1.7,8.44,3.32,12.92,3.82,1.08-.03,2.36-.24,3.45-.21.76.01,1.82.13,2.58.22,2.08-.38,4.18-1.18,6.03-2.19,2.48-1.35,4.8-3.2,6.89-5.09,1.32-1.07,2.52-2.83,4.31-3.09,4.36-.86,7.59,3.06,10.34,5.84,1.24,1.2,2.85,2.32,4.31,3.23.71.45,1.73,1.16,2.58,1.31,4.29,0,8.63,0,12.92,0"/><path class="b" d="M9.43,190.15c10.97-.19,21.52,1.48,31.01-5.41,2.11-1.4,3.98-3.35,6.03-4.81,1.62-.69,3.42-1.33,5.17-1.57,1.08-.17,2.36.02,3.45-.09,1.3-.64,2.89-1.03,4.31-.52,2.59.91,4.7,2.93,6.89,4.52,3.73,2.99,8.17,4.62,12.92,4.96,10.91,1.17,11.97-3.64,20.67-4.78,6.3-.57,11.68,3.43,17.23,5.75,1.65.64,3.38,1.72,5.17,1.85,1.06-.36,2.36-.72,3.45-.96,3.09-.64,6.4-1.18,9.47-.15,1.1.26,2.3,1.04,3.45,1.06,3.17-1.6,6.07-3.86,8.61-6.32,3.35-2.69,8.17-4.85,12.06-1.95,1.89,1.28,3.51,3.17,5.17,4.72,1.32,1.16,2.9,2.34,4.31,3.4,1.57.65,3.5.19,5.17.32,2.84,0,5.77,0,8.61,0"/><path class="b" d="M9.43,185.47c9.2-.26,19.06,1.24,27.56-3.11,4.58-2.33,8.3-6.06,12.06-9.49,1.71-1.32,4.08-1,6.03-1.58,1.87-1.71,4.06-1.68,6.03-.13,7.39,6.54,9.49,11.76,20.67,12.65,4.51.48,8.16-1.08,12.06-3.12,10.16-5.1,16.74,1.2,25.84,4.75,3.52-1.44,7.36-2.66,11.2-2.62,2.43.2,4.79,1.27,6.89,2.46.93.06,1.85-.74,2.58-1.2,1.11-.74,2.39-1.66,3.45-2.46,2.61-1.75,5.59-3.16,8.61-4.02,7.13-2.08,10.43,3.17,15.5,6.86.63.62,1.67,1.19,2.58,1.03,1.08,0,2.37,0,3.45,0,2.84,0,5.77,0,8.61,0"/><path class="b" d="M9.43,180.8c4.58,0,9.2,0,13.78,0,7.31.26,14.3-2.79,19.81-7.46,2.37-1.92,4.68-4.12,6.89-6.21,1.27-1.07,2.51-2.8,4.31-2.9,1.17-1.06,2.57-2.52,4.31-2.17,3.19,1.04,4.93,4.49,6.89,6.97,2.39,3.34,5.04,6.79,8.61,8.94,4.07,2.42,9.2,3.4,13.78,2,2.12-.64,4.09-1.92,6.03-2.94,2.39-1.26,5.04-2.31,7.75-2.54,5.83-.42,11.21,2.43,16.37,4.76,1.06.47,2.35,1.01,3.45,1.42.81.07,1.82-.36,2.58-.58,2.47-.69,5.22-1.34,7.75-.62,1.12.26,2.29,1.09,3.45,1.17,2.84-1.61,5.47-3.82,8.61-4.86,7.14-2.48,14.4-3.08,20.67,1.8,1.62,1.08,3.35,2.53,5.17,3.22,4.29,0,8.63,0,12.92,0"/><path class="b" d="M9.43,176.12c3.42,0,6.91,0,10.34,0,2.58,0,5.25.14,7.75-.6,6.86-1.62,12.73-5.84,18.09-10.25,1.69-1.38,3.48-2.9,5.17-4.28,1.11-.96,2.63-1.89,3.45-3.14,3.49-6.8,7.81-1.16,10.34,2.98,1.88,2.95,3.79,6.14,6.03,8.84,2.95,3.5,7.22,6.91,12.06,6.33,3.2.42,6.17-1.56,8.61-3.4,11.86-9.81,19.2-5.41,31.87-.89,2.76.82,5.69,1.96,8.61,1.57,2.38-.34,4.63-1.48,6.89-2.22,1.94-.49,4.04-.85,6.03-1.03,5.44-.36,11.23-.63,16.37,1.48,2.99,1.23,5.57,3.53,8.61,4.61,4.29,0,8.63,0,12.92,0"/><path class="b" d="M9.43,171.44c3.13,0,6.34,0,9.47,0,1.97-.08,4.09.19,6.03-.17,7.08-2.46,13.17-7,18.95-11.65,1.95-1.54,4.02-3.16,6.03-4.63,1.09-.83,2.52-1.66,3.45-2.69,4.17-7.88,9.35-1.6,12.92,3.03,2.37,3.06,4.72,6.38,7.75,8.83,7.24,5.87,13.23.28,18.95-4.5,2.59-1.98,5.5-3.75,8.61-4.75,9.41-3.14,17.99,3.67,25.84,7.93,2.85,1.97,6.07,2.48,9.47,2.09,1.67-.22,3.49.15,5.17.24,6.61.7,13.5.53,19.81,2.83,2.62.97,5.08,2.63,7.75,3.44,4.29,0,8.63,0,12.92,0"/><path class="b" d="M9.43,166.77c4.87,0,9.78,0,14.64,0,1.86-.57,3.53-1.99,5.17-2.99,3.3-2.24,6.45-4.85,9.47-7.44,4.3-3.79,8.87-7.34,13.78-10.31,1.48-1.21,2.27-3.8,4.31-4.16,8.02-1.36,14.19,12.25,24.12,12.75,4.71.46,8.97-1.93,12.92-4.17,6.75-3.55,14.83-7.86,22.39-4.16,3.82,1.75,7.11,4.57,10.34,7.22,2.53,2.3,5.19,4.76,8.61,5.58,3.16.66,6.27,1.83,9.47,2.31,4.27.71,8.66.85,12.92,1.59,4.2.57,8.05,2.57,12.06,3.76,4.29,0,8.63,0,12.92,0"/><path class="b" d="M9.43,162.09c4.87,0,9.78,0,14.64,0,9.27-5.26,15.07-15.14,24.12-20.77,1.59-1.12,3.72-1.62,5.17-2.9.76-.85,1.62-2.17,2.58-2.81,4.95-1.4,9.69,1.53,13.78,4,3.28,2.01,6.68,4.03,10.34,5.28,7.33,2.66,13.57,1.49,20.67-1.13,5.7-2.05,12.1-5.43,18.09-2.48,3.34,1.59,6.09,4.33,8.61,6.98,2.4,2.77,5.16,5.45,8.61,6.83,2.53.93,5.07,2.17,7.75,2.6,3.96.74,8.06.67,12.06,1.09,4.75.32,9.25,2.05,13.78,3.32,4.29,0,8.63,0,12.92,0"/><path class="b" d="M9.43,157.41c4.87,0,9.78,0,14.64,0,1.59-.48,2.99-1.83,4.31-2.8,3.17-2.58,5.96-5.75,8.61-8.85,2.3-2.87,5.12-5.43,7.75-7.99,1.83-1.96,4.29-3.42,6.89-4.07.45-.09,1.27-.24,1.72-.27.94-.4,1.69-1.56,2.58-2.02,4.47-.74,8.94.82,12.92,2.73,11.14,5.53,21.55,13.16,34.45,8.04,4.53-1.5,8.87-4.36,13.78-4.3,7.59.4,10.62,8.69,16.37,12.37,3.6,2.24,7.81,3.77,12.06,4.01,6.33.23,12.82-.28,18.95,1.66,1.69.43,3.46,1.15,5.17,1.51,4.29,0,8.63,0,12.92,0"/><path class="b" d="M9.43,152.74c4.87,0,9.78,0,14.64,0,8.9-2.76,13.44-11.84,19.81-17.94,2.67-2.63,6.48-5.03,10.34-3.69,3.79-.21,7.62.52,11.2,1.76,10.55,3.42,24.2,12.16,35.32,8.96,5.34-1.3,10.11-4.42,15.5-5.52,8.12-1.47,10.66,6.73,16.37,10.35,3.29,2.13,7.3,3.25,11.2,3.37,6.02.02,12.15-1.05,18.09.4,2.63.49,5.18,1.65,7.75,2.31,4.29,0,8.63,0,12.92,0"/><path class="b" d="M9.43,148.06c3.71,0,7.49,0,11.2,0,1.09,0,2.36,0,3.45,0,2.11-.33,4.19-1.36,6.03-2.4,3.93-2.35,7.09-5.83,10.34-9.01,2.5-2.38,5.19-5.03,8.61-5.96,3.05-.83,5.94.94,8.61,2.15,7.83,1.01,15.43,3.43,23.26,4.53,14.14,1.88,14.48,4.65,28.42-1.81,4.59-2.06,10.41-2.42,14.64.63,2.2,1.61,3.81,4.09,6.03,5.68,3.41,2.62,7.85,3.42,12.06,3.35,6.3-.35,12.71-1.73,18.95-.11,1.71.4,3.54.98,5.17,1.63,1.08.4,2.3,1.12,3.45,1.31,4.29,0,8.63,0,12.92,0"/><path class="b" d="M9.43,143.38c5.15-.1,10.37.2,15.5-.12,3.08-.8,6.04-2.27,8.61-4.14,4.82-3.28,8.78-8.42,14.64-9.84,2.38-.54,4.75.31,6.89,1.28,1.09.47,2.26,1.28,3.45,1.5,3.71.09,7.49.32,11.2.56,3.42.15,6.91-.04,10.34-.06,2.86-.02,5.81.17,8.61.79,2.54.58,5.1,1.66,7.75,1.36,3.3-.3,6.48-1.58,9.47-2.93,2.95-1.33,6.17-2.75,9.47-2.27,3.57.55,6.82,2.61,9.47,4.98,2.77,2.89,6.22,5.41,10.34,5.74,6.9.63,13.77-1.43,20.67-.8,2.91.24,5.86.9,8.61,1.88,1.73.54,3.41,1.68,5.17,2.09,4.29,0,8.63,0,12.92,0"/><path class="b" d="M9.43,138.71c4.87,0,9.78,0,14.64,0,3.74-.46,7.28-2.24,10.34-4.38,4.81-3.15,9.25-8.65,15.5-8.29,2.78.25,5.15,2.08,7.75,2.91,1.37.23,2.92-.14,4.31-.09,2.84-.02,5.77.13,8.61-.08,4.29-.27,8.6-1.23,12.92-1.04,2.95.1,5.89.88,8.61,1.97,1.97.61,4.13.1,6.03-.51,6.18-1.78,12.29-7.84,18.95-4.34,3.27,1.55,6,4.11,8.61,6.56,2.94,2.87,7.16,4.1,11.2,3.5,2.55-.31,5.21-.54,7.75-.92,4.56-.62,9.28-.75,13.78.33,3.3.76,6.5,2.11,9.47,3.71,1.76,1.11,4.06.52,6.03.66,2.84,0,5.77,0,8.61,0"/><path class="b" d="M9.43,134.03c4.87,0,9.78,0,14.64,0,12.68-.78,18.72-16.86,29.29-10.39.98.68,2.27,1.22,3.45,1.44,1.97-.19,4.04-.45,6.03-.41,3.14.02,6.36-.01,9.47-.41,5.12-.68,10.44-1.55,15.5-.09,5.49,1.72,4.68,2.42,10.34-.2,5.63-2.64,11.52-8.93,18.09-5.32,2.54,1.3,4.83,3.25,6.89,5.21,2.37,2.32,5.16,4.72,8.61,4.99,1.99.21,4.11-.1,6.03-.61,2.25-.33,4.63-.59,6.89-.83,4.59-.46,9.36-.32,13.78,1.12,2.7.87,5.33,2.2,7.75,3.65,1.06.59,2.24,1.57,3.45,1.84,1.07,0,2.37,0,3.45,0,3.13,0,6.34,0,9.47,0"/><path class="b" d="M9.43,129.35c5.15-.04,10.36.09,15.5-.05,6.13-.58,10.86-4.84,15.5-8.46,2.64-2.02,6.08-3.95,9.47-2.78,1.55.5,3.03,1.55,4.31,2.53.82.32,1.77-.21,2.58-.29,1.08-.17,2.36-.26,3.45-.29,3.13-.04,6.34.16,9.47,0,3.42-.15,6.9-.58,10.34-.5,4.14,0,8.16,1.18,12.06,2.43,1.19-.06,2.41-.84,3.45-1.38,2.09-1.17,4.14-2.68,6.03-4.15,3.63-2.79,8.02-6.64,12.92-4.84,6.68,2.22,10.03,10.55,17.23,10.99,2,.11,4.1-.26,6.03-.78,1.96-.23,4.06-.23,6.03-.32,4.88-.1,9.96-.2,14.64,1.39,3.79,1.33,7.13,3.81,10.34,6.18,1.57.65,3.5.19,5.17.32,2.84,0,5.77,0,8.61,0"/><path class="b" d="M9.43,124.68c5.44-.11,10.94.23,16.37-.15,11.8-1.3,17.51-18.02,27.56-8.82,1.18.11,2.19-.92,3.45-.87,3.72-.33,7.49.25,11.2.43,5.74.29,11.58.25,17.23,1.47,2.28.4,4.6,1.16,6.89,1.45,4.65-2.05,8.17-6.13,12.06-9.3,4.4-3.84,8.67-5.45,13.78-1.72,4.48,2.96,7.45,8.38,12.92,9.7,2.52.64,5.2.23,7.75.27,3.4.45,6.9.69,10.34.63,4.33-.08,8.96-.55,12.92,1.58,2.46,1.32,4.76,3.16,6.89,4.94.35.25,1.29.48,1.72.38,1.07,0,2.37,0,3.45,0,2.84,0,5.77,0,8.61,0"/><path class="b" d="M9.43,120c5.44-.11,10.94.22,16.37-.15,4.25-.59,7.98-3.06,11.2-5.78,2.71-2.19,5.29-4.9,8.61-6.15,1.66-.6,3.62-.43,5.17.4.78.4,1.68,1.24,2.58,1.32.81-.27,1.76-.89,2.58-1.1,1.08-.1,2.36-.09,3.45,0,3.17.27,6.35.99,9.47,1.54,7.19,1.14,14.32,2.79,21.53,3.78,2.1.57,3.64-1.18,5.17-2.32,2.95-2.36,5.72-5.1,8.61-7.53,5.32-4.61,9.92-5.46,15.5-.66,3.84,3.14,6.67,7.65,11.2,9.91,2.15,1.05,4.56,1.74,6.89,2.25,1.93.59,4,1.18,6.03,1.34,3.79.39,7.55-.65,11.2-1.52,2.83-.7,5.98-.79,8.61.62,2.19.99,3.9,3.03,6.03,4.06,4.29,0,8.63,0,12.92,0"/><path class="b" d="M9.43,115.32c3.42,0,6.91,0,10.34,0,1.97-.05,4.08.14,6.03-.17,8.52-1.2,13.07-8.6,19.81-12.83,1.52-.86,3.43-1.37,5.17-.94.79.2,1.77.75,2.58.87.81-.36,1.73-1.12,2.58-1.4.45-.05,1.28-.1,1.72-.1,3.55.02,7.01,1.24,10.34,2.38,7.8,2.82,15.82,5.38,24.12,6.05,6.95-3.33,12.25-13.26,20.67-12.39,9.87,1.99,13.49,14.56,22.39,18.42,2.66-1.68,3-1.68,6.03-.97.77.17,1.82.44,2.58.65.78.26,1.81.51,2.58.11,2.27-.68,4.63-1.45,6.89-2.17,3.29-1.02,6.93-2.23,10.34-1.04,1.17.41,2.44,1.15,3.45,1.87.76.52,1.68,1.4,2.58,1.66,4.29,0,8.63,0,12.92,0"/><path class="b" d="M9.43,110.65c3.71,0,7.49,0,11.2,0,4.19.21,8.33-.35,12.06-2.37,3.48-1.77,6.55-4.36,9.47-6.92,3.38-2.79,7.23-6.99,12.06-5.73,6.59-4.27,14.58,1.2,20.67,4.11,5.24,2.69,10.68,5.15,16.37,6.71,4.56-1.76,8.33-5.2,12.06-8.27,4.63-3.98,9.69-7.69,15.5-3.4,2.95,2.11,5.45,4.97,7.75,7.74,2.12,2.63,4.43,5.52,7.75,6.64,3.58,1.27,7.51.86,11.2.38,3.72-.49,7.48-1.17,11.2-1.71,3.14-.46,6.57-.61,9.47.89,1.14.5,2.25,1.56,3.45,1.94,4.29,0,8.63,0,12.92,0"/><path class="b" d="M9.43,105.97c3.42,0,6.91,0,10.34,0,3.18.08,6.43.03,9.47-.99,7.6-2.17,13.95-7.06,20.67-11,2.39-1.44,5.31-1.84,7.75-3.14,6.08-3.76,11.84-.75,17.23,2.66,4.24,2.66,8.48,5.43,12.92,7.75,2.46,1.57,5.32.22,7.75-.71,3.6-1.46,7-3.54,10.34-5.52,3.9-2.28,8.23-4.76,12.92-4.27,3.54.37,6.71,2.37,9.47,4.5,2.05,2.03,4.17,4.26,6.89,5.41,4.33,1.88,9.08,2.62,13.78,2.72,5.72.36,11.66-.27,17.23,1.34,1.1.31,2.32,1.02,3.45,1.26,1.07,0,2.37,0,3.45,0,3.13,0,6.34,0,9.47,0"/><path class="b" d="M9.43,101.29c5.15-.09,10.37.18,15.5-.11,4.99-1.22,9.83-3.11,14.64-4.86,5.96-2.1,11.68-4.88,17.23-7.88,2.82-1.63,5.16-4.5,8.61-4.8,6.91-.76,15.63,8.94,21.53,12.39,3.72,1.97,8.14.87,12.06.15,4.68-1.03,9.25-2.64,13.78-4.16,5.48-1.81,11.46-3.72,17.23-2.17,2.58,1.08,5.08,2.59,7.75,3.47,1.65.85,3.42,1.82,5.17,2.47,3.86,1.48,7.99,2.33,12.06,3.01,4.88.75,9.82,1.42,14.64,2.48,4.29,0,8.63,0,12.92,0"/><path class="b" d="M9.43,96.62c3.13,0,6.34,0,9.47,0,1.96-.1,4.11.24,6.03-.2,3.91-1.72,7.95-3.32,12.06-4.49,3.99-1.16,8.15-1.94,12.06-3.38,3.4-1.24,6.61-3.18,9.47-5.36,1.61-1.51,3.21-3.33,5.17-4.4,8.25-4.71,17.74,10.2,24.98,12.93,7.37,2.78,18.25,1.96,25.84.15,3.53-.87,7-2.22,10.34-3.66,2.76-1.13,5.58-2.58,8.61-2.72,1.39-.06,2.95.14,4.31.45,1.46.63,2.93,1.69,4.31,2.48,2.73,1.65,5.63,3.2,8.61,4.35,6.03,2.34,12.54,3.28,18.95,3.85,4.29,0,8.63,0,12.92,0"/><path class="b" d="M9.43,91.94c3.13,0,6.34,0,9.47,0,1.09,0,2.36,0,3.45,0,.81,0,1.85.09,2.58-.32,2.65-1.8,5.59-3.3,8.61-4.36,5.3-1.91,11.06-2.31,16.37-4.21,3.14-1.14,6.08-3.08,8.61-5.23,2.18-2.27,4.42-5.2,7.75-5.64,4.06-.27,7.34,2.88,10.34,5.2,3.13,2.54,6.18,5.36,9.47,7.69,3.13,2.12,6.66,3.81,10.34,4.71,8.18,2.03,17.16,2.14,24.98-1.32,3.05-1.34,5.93-3.24,8.61-5.21,2.35-1.72,4.65-4.2,7.75-4.3,1.94.49,3.6,2.03,5.17,3.2,1.92,1.55,3.96,3.22,6.03,4.57,9.86,6.69,22.31,4.98,33.59,5.21"/><path class="b" d="M9.43,87.26c3.42,0,6.91,0,10.34,0,1.39,0,2.92,0,4.31,0,.89-.25,1.82-1.05,2.58-1.53,2.65-1.73,5.61-3.13,8.61-4.13,5.66-1.96,11.88-2.42,17.23-5.25,1.83-.99,3.57-2.45,5.17-3.78,2.52-2.65,5.32-6.57,9.47-5.85,4.76,1.21,8.19,5.34,12.06,8.13,2.7,2.16,5.73,4.03,8.61,5.94,3.69,2.51,7.64,4.82,12.06,5.75,1.36.29,2.9.7,4.31.66,2.25-.26,4.63-.31,6.89-.16,7.23.76,16.13-3.61,20.67-9.17,1.69-2.15,3.31-4.9,6.03-5.86.88-.05,1.89.57,2.58,1.07,7.47,6.53,10.32,12.69,21.53,13.88,6.86.55,13.8.19,20.67.29"/><path class="b" d="M9.43,82.59c4.58,0,9.2,0,13.78,0,.88.13,1.89-.31,2.58-.81,1.07-.64,2.34-1.36,3.45-1.93,3-1.55,6.23-2.8,9.47-3.72,5.44-1.68,11.58-2.05,16.37-5.37,3.81-2.38,7.63-10.89,12.92-8.89,2.58,1.11,4.75,3.15,6.89,4.92,3.14,2.65,6.47,5.34,10.34,6.83,3.07,1.21,5.77,3.29,8.61,4.92,2.92,1.55,6.22,2.46,9.48,2.93,6.57.97,12.61,1.81,18.95-.92,2.74-1.18,5.44-2.76,7.75-4.65,1.67-1.78,2.85-4.29,4.31-6.24,1.25-1.46,2.93-4.53,5.17-3.86,2.96,1.27,4.78,4.37,6.89,6.67,3.52,4.35,8.12,8.2,13.78,9.17,7.37,1.38,14.94.86,22.39.95"/><path class="b" d="M9.43,77.91c4.58,0,9.2,0,13.78,0,2.12.11,4.11-1.56,6.03-2.32,3.33-1.63,6.78-3.19,10.34-4.25,4.81-1.5,9.97-1.96,14.64-3.9,3.8-3.34,8.09-8.53,13.78-6.45,6.33,2.43,11.13,8.31,18.09,9.27,3.11.51,5.79,2.36,8.61,3.63,3.26,1.42,6.8,2.34,10.34,2.73,9.44,1.12,15.9-2,24.12-5.88,2.24-2.62,4.16-5.77,6.89-7.95.37-.32,1.29-.9,1.72-1.14,1.92-.35,3.74,1.14,5.17,2.24,2.66,2.27,5.05,5.02,7.75,7.26,2.97,2.52,6.56,4.37,10.34,5.31,2.8.69,5.75,1.17,8.61,1.45,4.29,0,8.63,0,12.92,0"/><path class="b" d="M9.43,73.23c4.58,0,9.2,0,13.78,0,1.49.14,2.97-.64,4.31-1.19,2.31-1.01,4.62-2.25,6.89-3.33,4.06-2.03,8.5-3.28,12.92-4.23,1.97-.57,4.28-.73,6.03-1.84,2.66-3.26,6.94-5.45,11.2-4.54,5.68,1.36,10.06,5.73,15.5,7.7,2.99,1.31,6.34,1.03,9.47,1.59,3.94,1.05,7.94,2.21,12.06,2.26,4.35.17,8.76-.5,12.92-1.76,4.3-1.31,8.49-3.18,12.92-4.04,1.29-.64,2.39-1.99,3.45-2.93,1.74-1.58,3.78-3.12,6.03-3.88,2.97-1.43,10.2,6.51,12.92,8.32,5.61,4.67,12.66,6.96,19.81,7.88,4.29,0,8.63,0,12.92,0"/><path class="b" d="M9.43,68.56c4.58,0,9.2,0,13.78,0,1.46.12,2.97-.49,4.31-1.02,2.34-.96,4.64-2.25,6.89-3.38,4.07-2.11,8.5-3.52,12.92-4.67,1.43-.37,3.05-.73,4.31-1.56,1.5-.88,2.8-2.35,4.31-3.21,2.47-.84,5.25-.89,7.75-.14,5.76,1.76,10.54,5.88,16.37,7.51,2.77.88,5.75.77,8.61.83,3.42.16,6.92.49,10.34-.01,7.59-.77,14.27-4.84,21.53-6.79,1.65-.42,3.48-.45,5.17-.37,1.87-.15,3.55-1.35,5.17-2.18,1.84-.91,3.97-1.54,6.03-1.65,2-.17,3.6,1.71,5.17,2.71,2.85,2.21,5.66,4.66,8.61,6.74,5.52,4.09,12.23,6.15,18.95,7.19,4.29,0,8.63,0,12.92,0"/><path class="b" d="M9.43,63.88c4.58,0,9.2,0,13.78,0,3.71-.03,7.03-2.32,10.34-3.78,3.88-1.91,7.96-3.52,12.06-4.89,2.44-.7,4.82-1.87,6.89-3.34,1.34-.83,2.64-2.3,4.31-2.41,3.86-.57,7.74.62,11.2,2.25,4.22,1.97,8.36,4.38,12.92,5.51,7.14,1.6,14.89.96,21.53-2.18,4.19-1.91,8.01-4.64,12.06-6.82,3.69-2.01,7.11-2.86,11.2-1.49,1.69.31,3.5-.14,5.17-.39,1.67-.2,3.51-.14,5.17.13,2.5.12,4.18,2.33,6.03,3.76,2.49,2.13,5.08,4.34,7.75,6.24,2.89,2.06,6.11,3.82,9.47,4.96,3.34,1.09,6.88,1.86,10.34,2.45,4.29,0,8.63,0,12.92,0"/><path class="b" d="M9.43,59.2c3.42,0,6.91,0,10.34,0,1.39,0,2.92,0,4.31,0,1.13-.1,2.38-.59,3.45-.96,4.34-1.68,8.6-3.69,12.92-5.41,4.16-1.68,8.45-3.29,12.06-6.02,10.62-3.23,16.83,1.27,26.7,4.06,8.97,3.24,15.82,3.02,24.12-1.94,3.79-2.29,7.2-5.31,11.2-7.26,4.11-2.4,7.51-3.77,12.06-1.42,1.32.51,2.92.59,4.31.77,1.72.28,3.54.82,5.17,1.44,1.72.66,3.54,1.48,5.17,2.33,2.65,2.69,5.51,5.36,8.61,7.54,5.74,4.25,12.9,5.75,19.81,6.87,4.29,0,8.63,0,12.92,0"/><path class="b" d="M9.43,54.53c3.42,0,6.91,0,10.34,0,2.29-.04,4.72.26,6.89-.64,5.8-1.95,11.57-4.17,17.23-6.51,1.72-.72,3.56-1.56,5.17-2.51,4.23-1.02,8.54-2.08,12.92-2.19,2.57-.09,5.23.11,7.75.56,3.48.3,6.97,1.03,10.34,1.96,4.28.94,8.44,3.26,12.92,2.81,5.24-.34,10.14-2.66,14.64-5.21,3.37-1.93,6.68-4.17,10.34-5.53,2.34-1.2,5.17-1.93,7.75-1.12,1.39.46,2.79,1.4,4.31,1.43,5.01.85,9.4,3.74,13.78,6.14.91.43,1.83,1.46,2.58,2.11,1.3,1.14,2.85,2.31,4.31,3.23,5.37,3.53,11.89,4.34,18.09,5.4,4.57.22,9.21.02,13.78.08"/><path class="b" d="M9.43,49.85c4.87,0,9.78,0,14.64,0,4.65-1.07,9.19-2.86,13.78-4.17,1.68-.52,3.5-1.08,5.17-1.64,1.09-.31,2.3-.97,3.45-1.01,2.3-.14,4.64-.67,6.89-1.12,3.7-.55,7.48-1.07,11.2-1.49,4.29-.31,8.61-1.15,12.92-.83,3.18.19,6.4.79,9.47,1.61,1.38.35,2.89.92,4.31,1.12,1.38.1,2.93.07,4.31-.01,5.61-.32,11.07-1.93,16.37-3.72,2.5-.84,5.14-1.57,7.75-1.99,1.92-.51,4.06-.75,6.03-.39,1.47.18,2.88,1.11,4.31,1.37,1.39-.08,2.95.08,4.31.4,4.56,1.09,8.67,3.58,12.92,5.48,1.98,1.02,3.9,2.46,6.03,3.21,4.92,1.97,10.31,2.38,15.5,3.12,4.57.18,9.21.02,13.78.07"/><path class="b" d="M9.43,45.17c4.87,0,9.78,0,14.64,0,5.4-1.31,10.81-2.7,16.37-3.3,2.53-.47,5.2.06,7.75-.29,1.7-.17,3.49-.66,5.17-.96,3.45-.37,6.94-.96,10.34-1.71,5.75-1.1,11.32-3.35,17.23-3.54,4.66-.34,9.25.81,13.78,1.71,3.11.49,6.36.46,9.47.07,3.75-.46,7.48-1.44,11.2-2.07,2.53-.41,5.19-.54,7.75-.71,1.39-.02,2.96.16,4.31.52,1.09.28,2.32.87,3.45.98,1.38-.03,2.93-.19,4.31-.03,5.54.65,10.86,2.62,16.37,3.5,4.66,2.2,9.67,3.68,14.64,4.99,1.07.26,2.34.71,3.45.83,1.07,0,2.37,0,3.45,0,3.13,0,6.34,0,9.47,0"/><path class="b" d="M9.43,40.5c4.87,0,9.78,0,14.64,0,3.11-.59,6.29-1.32,9.47-1.41,4.01-.34,8.05.32,12.06.11,3.19-.09,6.29-1.31,9.47-1.38,4.03-.26,8.07-.89,12.06-1.48,3.12-.65,6.32-1.34,9.47-1.8,5.41-.83,10.96-.79,16.37,0,3.97.63,8.06,1.13,12.06.44,4.89-.69,9.69-2.32,14.64-2.57,1.97-.12,4.05-.43,6.03-.22,1.71.1,3.49.68,5.17.98,1.67.21,3.49-.16,5.17-.03,2.57.11,5.2.52,7.75.81,3.69.51,7.49.37,11.2.46,2.27.89,4.65,1.83,6.89,2.8,2.27.99,4.63,2.07,6.89,3.09,1.63.4,3.5.11,5.17.2,2.84,0,5.77,0,8.61,0"/><path class="b" d="M9.43,35.82c4.87,0,9.78,0,14.64,0,3.38-.74,6.87-1.2,10.34-.97,3.13.23,6.32.71,9.47.57,2.88-.04,5.78-.63,8.61-1.04,6.02-.28,12.09-.51,18.09-1.17,6.28-.65,12.64-.93,18.95-.59,5.44.24,10.95,1.36,16.37.25,3.16-.53,6.33-1.42,9.47-2.05,2.82-.52,5.76-.89,8.61-1.15,3.16-.32,6.32.77,9.47.55,3.43-.19,6.92.24,10.34.39,3.13.16,6.35.1,9.47-.15,1.68-.06,3.49-.47,5.17-.34.76.33,1.83.79,2.58,1.15,1.71.81,3.53,1.77,5.17,2.71,1.32.71,2.7,2.01,4.31,1.81,4,0,8.06,0,12.06,0"/><path class="b" d="M9.43,31.14c4.58,0,9.2,0,13.78,0,1.75.1,3.44-.93,5.17-1.09,2.28-.45,4.63-.13,6.89.28,1.96.27,4.05.45,6.03.51,3.73.16,7.49-.35,11.2-.65,3.71-.08,7.49-.09,11.2-.23,6.3-.12,12.64-.49,18.95-.34,5.74,0,11.5.56,17.23.76,4.64-.02,9.24-.99,13.78-1.81,2.83-.5,5.77-.84,8.61-1.27,3.12-.46,6.34-.26,9.47-.09,3.72-.13,7.49.09,11.2.27,4,.17,8.06.11,12.06-.09,2.26-.01,4.65-.49,6.89-.24,2.32,1.1,4.71,2.36,6.89,3.72,1.6.54,3.5.16,5.17.26,2.84,0,5.77,0,8.61,0"/><path class="b" d="M9.43,26.47c4.87,0,9.78,0,14.64,0,5.46-2.36,3.65-1.89,9.47-1.05,5.98.89,12.07.74,18.09.42,5.44-.09,10.92-.08,16.37-.1,6.88-.04,13.79-.07,20.67.18,5.44.17,10.93.7,16.37.12,4.29-.37,8.63-.79,12.92-1.11,3.7-.39,7.47-.75,11.2-.71,11.2-.07,22.24.64,33.59.57.76,0,1.84-.06,2.58.13,1.39.47,2.86,1.3,4.31,1.57,4.29,0,8.63,0,12.92,0"/><path class="b" d="M9.43,21.79c4.58,0,9.2,0,13.78,0,.86.14,1.79-.43,2.58-.64,2.56.09,5.2.21,7.75.3,8.6.33,17.24.11,25.84.13,12.92.03,25.85-.15,38.76.13,12.34-.1,24.7-.35,37.04-.41,15.79.07,31.59.51,47.37.49"/><path class="b" d="M9.43,17.11h173.13"/><path class="b" d="M9.43,12.44h173.13"/><path class="b" d="M9.43,7.76h173.13"/></svg>