<?xml version="1.0" encoding="UTF-8"?><svg id="a" xmlns="http://www.w3.org/2000/svg" width="1920" height="2400" viewBox="0 0 192 240"><defs><style>.b{fill:none;stroke:#fff;stroke-miterlimit:10;stroke-width:.3px;}.c{stroke-width:0px;}</style></defs><rect class="c" x="0" width="192" height="240"/><path class="b" d="M9.7,231.89h172.59"/><path class="b" d="M9.7,227.23h172.59"/><path class="b" d="M9.7,222.57c21.75,0,43.51,0,65.26,0,5.72.1,11.46-.4,17.17-.29,30.04.54,60.11.2,90.16.29"/><path class="b" d="M9.7,217.91c19.75.14,39.5-.56,59.25-.47,6.86-.44,13.72-1.87,20.61-1.46,7.12.89,14.33-.05,21.47.55,2.26.12,4.61.48,6.87.63,4.56-.02,9.18-.18,13.74-.18,12.01.26,24.05.12,36.06.09,1.68,1.36,3.93.7,6.01.84,2.84,0,5.75,0,8.59,0"/><path class="b" d="M9.7,213.25c9.44-.04,18.92.27,28.34-.68,6-.47,12.02-1.23,18.03-1.49,4.27-.16,8.62.36,12.88.05,3.43-.38,6.91-.94,10.3-1.58,3.93-.77,8.08-1.39,12.02-.31,1.62.5,3.47.45,5.15.58,3.41.19,6.89.19,10.3.36,4.59.1,9.16,1.03,13.74,1.18,4.29.26,8.6-.22,12.88-.36,8.58.11,17.18.32,25.76-.03,1.67-.05,3.48-.11,5.15-.12,1.72.67,3.35,1.97,5.15,2.4,4.27,0,8.61,0,12.88,0"/><path class="b" d="M9.7,208.58c6.28-.07,12.61.14,18.89-.1,8.01-1.06,16.03-2.27,24.04-3.37,5.1-.89,10.32-.23,15.46-.27,5.24-.51,10.34-1.97,15.46-3.15,1.94-.39,4.05-.54,6.01-.19,1.38.32,2.86.76,4.29.65,5.76.35,11.49,1.49,17.17,2.45,3.12.52,6.28,1.31,9.45,1.42,4.58.42,9.17-.15,13.74-.37,8.58-.11,17.18-.35,25.76-.64,1.17-.19,2.4.6,3.43,1.03,1.67.76,3.47,1.63,5.15,2.37,1.63.39,3.49.11,5.15.19,2.83,0,5.75,0,8.59,0"/><path class="b" d="M9.7,203.92c6.57-.14,13.21.35,19.75-.35,2.59-.25,5.16-1.11,7.73-1.49,5.14-.64,10.36-1.1,15.46-2.05,3.36-.75,6.86-1.07,10.3-1.15,2.26-.09,4.64.16,6.87-.31,2.88-.48,5.81-1.16,8.59-2.06,2.53-.8,5.11-1.81,7.73-2.28,1.97-.41,4.06-.12,6.01.21,2.25-.27,4.63-.14,6.87.22,6.71,1.1,13.09,3.81,19.75,5.09,2.82.37,5.74.69,8.59.7,1.97-.03,4.04-.23,6.01-.27,5.72-.06,11.47-.5,17.17-.85,2.25-.11,4.61-.17,6.87-.2,1.11.3,2.37.9,3.43,1.33,2.55,1.06,5.15,2.28,7.73,3.29,1.64.36,3.49.1,5.15.17,2.83,0,5.75,0,8.59,0"/><path class="b" d="M9.7,199.26c5.14-.03,10.32.06,15.46-.04,4.02-.35,8.06-1.07,12.02-1.81,2.22-.55,4.6-.5,6.87-.61,3.15-.14,6.38-.43,9.45-1.16,3.1-.78,6.28-1.55,9.45-1.99,2.54-.37,5.23-.23,7.73-.83,5.36-.95,10.35-3.23,15.46-4.99,1.91-.61,4.01-.91,6.01-.83,1.65-.38,3.45-.76,5.15-.75,4.16-.05,8.21,1.38,12.02,2.92,3.13,1.18,6.17,2.89,9.45,3.66,2.8.69,5.71,1.35,8.59,1.62,6.01.41,12.05-.23,18.03-.77,2.83-.24,5.75-.36,8.59-.36,1.12.27,2.37.88,3.43,1.3,3.69,1.5,7.4,3.16,11.16,4.49,1.64.32,3.48.09,5.15.16,2.83,0,5.75,0,8.59,0"/><path class="b" d="M9.7,194.6c4.85,0,9.75,0,14.6,0,3.42-.39,6.87-1.14,10.3-1.5,2.83-.32,5.74-.56,8.59-.67,2.84.12,5.79.03,8.59-.53,3.51-.71,6.85-2.24,10.3-3.15,2.78-.72,5.75-.82,8.59-1.15,6.25-1.08,12.09-3.63,18.03-5.72,1.35-.46,2.92-.77,4.29-1.17,1.08-.35,2.34-.87,3.43-1.17,4.58-1.37,9.51-.4,13.74,1.63,1.71.79,3.51,1.76,5.15,2.69,1.35.62,2.92,1.18,4.29,1.75,3.32,1.31,6.74,2.7,10.3,3.13,4.29.06,8.59-.89,12.88-1.06,2.54-.16,5.18-.2,7.73-.14,1.43.36,2.92,1.14,4.29,1.68,4.79,1.9,9.58,4.18,14.6,5.39,4.27,0,8.61,0,12.88,0"/><path class="b" d="M9.7,189.93c4.85,0,9.75,0,14.6,0,3.39-.65,6.83-1.47,10.3-1.59,5.71-.28,11.58.24,17.17-1.2,3.27-.8,6.3-2.47,9.45-3.62,3.85-1.36,8.04-.98,12.02-1.45,4.32-.66,8.65-1.58,12.88-2.67,3.18-.82,6.45-1.7,9.45-3.09,4.49-2.15,9.63-3.91,14.6-2.47,1.11.3,2.4.81,3.43,1.32,1.1.32,2.39.8,3.43,1.29,2.65,1.22,5.19,2.86,7.73,4.28.75.42,1.8.97,2.58,1.34.72.37,1.76.87,2.58.52,3.09-.63,6.29-1.18,9.45-1.32,2.55-.12,5.19,0,7.73.21,1.45.41,2.91,1.29,4.29,1.88,5.82,2.6,11.81,5.15,18.03,6.57,4.27,0,8.61,0,12.88,0"/><path class="b" d="M9.7,185.27c4.85,0,9.75,0,14.6,0,2.53-.53,5.13-1.19,7.73-1.26,3.99-.23,8.07.19,12.02-.47,2.37-.33,4.64-1.38,6.87-2.17,2.6-.91,5.29-1.89,7.73-3.18,3.95-2.04,8.58-1.78,12.88-1.45,2.83.32,5.74.28,8.59.28,3.12.02,6.33.2,9.45-.08,4.31-.38,8.25-2.45,12.02-4.42,4.01-2.07,8.32-4.03,12.88-4.35,2.49-.02,4.88,1.17,6.87,2.59,2.06,1.43,3.99,3.27,6.01,4.75,1.4.61,2.93-.41,4.29-.72,3.87-1.21,8.05-1.22,12.02-.49,1.48.55,2.9,1.67,4.29,2.42,2.2,1.29,4.55,2.55,6.87,3.62,4.67,2.09,9.59,3.89,14.6,4.94,4.27,0,8.61,0,12.88,0"/><path class="b" d="M9.7,180.61c4.85,0,9.75,0,14.6,0,1.97-.24,4.03-.6,6.01-.69,4.88-.32,9.96-.18,14.6-1.92,2.77-1.02,5.3-2.76,7.73-4.42,1.04-.58,2.43-.91,3.43-1.57,2.18-1.77,4.91-2.79,7.73-2.67,8.48.13,16.37,4.74,24.9,4.15,6.39-.77,12.01-4.36,18.03-6.38,1.98-.95,4.07-2.01,6.01-3.04,1.9-.97,3.88-2.17,6.01-2.53,3.67-.08,6.03,3.47,8.59,5.58,1.2.46,2.41-.54,3.43-1.03,1.58-.81,3.39-1.53,5.15-1.82,1.66-.2,3.62-.41,5.15.36,1.71,1.32,3.49,2.84,5.15,4.21,3.68,3.06,7.68,5.89,12.02,7.93,3.28,1.57,6.82,2.69,10.3,3.71,4.54.32,9.18.03,13.74.13"/><path class="b" d="M9.7,175.95c3.41,0,6.89,0,10.3,0,1.38,0,2.91,0,4.29,0,1.09-.1,2.35-.4,3.43-.54,5.15-.76,10.47-.92,15.46-2.51,3.89-1.13,7.27-3.69,11.16-4.79,2.15-1.95,4.93-3.32,7.73-4.06,4.3-1.06,8.71.27,12.88,1.32,4.18,1.08,8.55,2,12.88,1.56,4.15-.49,8.04-2.39,12.02-3.57,4.19-1.3,8.57-2.06,12.88-2.84,3.68-.55,7.4-2.27,11.16-1.54,1.56.32,2.97,1.41,4.29,2.22.97-.13,1.85-1.12,2.58-1.71,1.34-1.15,2.84-2.43,4.29-3.43,1.01-.58,2.2-1.65,3.43-1.41,2.64,1.02,4.85,3.05,6.87,4.97,3.85,3.75,7.58,7.8,12.02,10.88,3.62,2.46,7.73,4.54,12.02,5.45,4.28,0,8.6,0,12.88,0"/><path class="b" d="M9.7,171.29c3.41,0,6.89,0,10.3,0,2.28-.02,4.68.2,6.87-.59,4.27-1.08,8.66-1.93,12.88-3.21,2.92-.86,5.79-2.12,8.59-3.31,1.33-.56,2.86-1.02,4.29-1.19,1.19-.35,2.33-1.3,3.43-1.83,7.33-2.92,13.05-2.08,20.61-1.32,4.27.34,8.7.49,12.88-.61,3.38-1.08,6.69-2.81,10.3-3.01,5.17-.47,10.33.49,15.46.98,3.12.3,6.34-.04,9.45.42,1.45.2,2.95.89,4.29,1.43,2.1-1.24,4.08-2.91,6.01-4.38,1.04-.7,2.15-1.89,3.43-2.1,4.81.09,8.6,3.66,12.02,6.65,5.5,5.01,11.38,10.49,18.89,12.06,4.28,0,8.6,0,12.88,0"/><path class="b" d="M9.7,166.62c4.85,0,9.75,0,14.6,0,2.62-.65,5.17-1.91,7.73-2.8,4-1.53,8.07-3.07,12.02-4.72,1.64-.67,3.42-1.41,5.15-1.8,1.09-.18,2.38-.32,3.43-.66,1.11-.31,2.33-.95,3.43-1.28,1.97-.27,4.04-.64,6.01-.87,5.4-.67,10.89-.59,16.31-.86,4.37-.23,8.96-.58,12.88-2.69,1.57-.9,3.35-1.8,5.15-2.1,6.02-.44,11.58,2.58,17.17,4.31,3.58,1.19,7.41,1.58,11.16,1.79,1.08.08,2.37.2,3.43.36.76.2,1.84.2,2.58-.12,2.34-.75,4.65-1.88,6.87-2.91,1.36-.29,2.94.01,4.29.23,10.02,2.16,16.81,11.2,26.62,13.98,4.54.34,9.18.03,13.74.13"/><path class="b" d="M9.7,161.96c4.85,0,9.75,0,14.6,0,1.8-.46,3.49-1.66,5.15-2.47,3.09-1.69,6.25-3.42,9.45-4.91,2.77-1.27,5.64-2.6,8.59-3.43,2.22-.57,4.63-.62,6.87-1.05,1.92-.54,4.04-.09,6.01-.29,3.42-.18,6.89-.49,10.3-.74,5.47-.49,11.2-.54,16.31-2.75,2.53-1.01,4.58-3,6.87-4.41,5.57-2.62,12.31,3.43,17.17,5.75,4.44,2.42,9.55,3.54,14.6,3.26,1.38-.05,2.92-.23,4.29-.35,1.96.01,4.05.07,6.01-.09,2.35-.43,4.64.67,6.87,1.24,3.15.92,6.37,1.86,9.45,2.99,3.52,1.27,6.95,2.96,10.3,4.6,2.46,1.03,4.99,2.69,7.73,2.66,3.99,0,8.03,0,12.02,0"/><path class="b" d="M9.7,157.3c4.85,0,9.75,0,14.6,0,2.18-.73,4.07-2.44,6.01-3.65,3.28-2.28,6.68-4.57,10.3-6.28,4.01-1.81,8.38-3.77,12.88-2.94,2.31.09,4.57.92,6.87,1.09,5.41.36,10.91.44,16.31.03,7.45-.58,11.61-4.47,16.32-9.77,3.27-3.3,8.16-.79,11.16,1.64,3.01,2.3,5.98,4.86,9.45,6.45,4.78,2.24,10.42,2.48,15.46,1,1.67-.58,3.52.05,5.15.46,1.07.26,2.36.56,3.43.79,1.42.6,2.89,1.54,4.29,2.19,2.71,1.33,5.64,2.42,8.59,3.12,3.42.81,6.99,1.33,10.3,2.56,2.59.92,5.15,2.2,7.73,3.14,1.64.32,3.48.09,5.15.15,2.83,0,5.75,0,8.59,0"/><path class="b" d="M9.7,152.64c4.56,0,9.18,0,13.74,0,1.67.21,3.01-1.28,4.29-2.12,1.99-1.49,4.02-3.17,6.01-4.66,4.05-3.16,8.77-5.45,13.74-6.74,1.35-.39,2.88-.9,4.29-.49,2.08.63,4.1,1.76,6.01,2.79,2.7,1.25,5.7,1.9,8.59,2.54,15.28,3.72,18.79-1.48,26.62-13.38,5.42-6.63,10.83-.06,15.46,3.7,5.32,4.69,12.85,6.55,19.75,4.9,1.94-.81,4.14-.56,6.01.33,1.37.63,3.04,1.08,4.29,1.93,3.81,2.9,8.15,5.33,12.88,6.3,2.81.62,5.78.78,8.59,1.43,2.99.66,5.79,2.13,8.59,3.31,1.64.36,3.49.1,5.15.18,2.83,0,5.75,0,8.59,0"/><path class="b" d="M9.7,147.97c4.85,0,9.75,0,14.6,0,1.25-.34,2.39-1.43,3.43-2.15,1.7-1.3,3.48-2.76,5.15-4.08,6.15-5.03,10.41-6.03,18.03-7.21,1.29.08,2.52,1.01,3.43,1.85,1.43,1.08,2.82,2.53,4.29,3.54,3.18,2.13,6.71,3.93,10.3,5.24,13.67,4.25,19-6.32,24.04-16.8,5.66-9.85,8.7-7.34,16.32-1.3,1.84,1.4,3.91,2.73,6.01,3.7,1.61.81,3.51,1.3,5.15,2.03,2.86,1.61,6.05,3.34,9.45,2.76,2.12.08,4.16,1.15,6.01,2.09,2.66,1.21,4.98,3.24,7.73,4.29,2.7,1.13,5.67,1.75,8.59,1.98,2.84.23,5.79.15,8.59.74,2.72.55,5.26,1.92,7.73,3.13,1.63.41,3.49.12,5.15.2,2.83,0,5.75,0,8.59,0"/><path class="b" d="M9.7,143.31c4.56,0,9.18,0,13.74,0,1.31.21,2.45-.79,3.43-1.5,1.11-.82,2.37-1.84,3.43-2.71,5.81-4.87,10.06-8.14,18.03-7.16,3.11.07,3.91-.19,6.01,2.39,2.84,3.34,6.15,6.46,10.3,8.05,1.05.35,2.31,1.13,3.43.73,1.93-.47,4.03-.7,6.01-.65,1.7.04,3.53.3,5.15.8,2.66-.58,5.02-2.42,6.87-4.36,3.25-3.46,5.15-8.05,7.73-11.97,3.55-4.4,7.43-7.24,12.88-3.8,6.61,3.73,15.29,14.25,23.18,12.74,3.92.04,7.48,2.2,11.16,3.28,4.45,1.27,9.18.84,13.74.63,5.36-.4,9.02,1.05,13.74,3.34,1.63.37,3.49.11,5.15.18,2.83,0,5.75,0,8.59,0"/><path class="b" d="M9.7,138.65c4.85,0,9.75,0,14.6,0,1.56-.4,2.98-1.63,4.29-2.52,2.02-1.5,4.04-3.25,6.01-4.82,3.64-3.03,8.02-5.36,12.88-4.31.77.13,1.81.33,2.58.47.81.12,1.9.25,2.58.77,2.63,2.55,4.58,5.99,7.73,8.02,1.54.95,3.31,2.14,5.15,2.29.75-.24,1.8-.49,2.58-.64,3.68-.66,7.61-.54,11.16.69,4.51-1.3,7.77-5.2,10.3-8.96,1.78-2.71,3.33-5.88,6.01-7.83,4.08-3.43,8.23-1.75,12.02,1.11,5.8,4.04,12.45,11.53,19.75,12.01.78,0,1.81-.2,2.58-.34,1.76-.09,3.55.66,5.15,1.29,6.34,2.54,12.53.33,18.89-.71,2.84-.44,5.87-.33,8.59.67,2.03.71,4.02,1.84,6.01,2.64,1.64.35,3.48.1,5.15.17,2.83,0,5.75,0,8.59,0"/><path class="b" d="M9.7,133.99c4.85,0,9.75,0,14.6,0,6.93-2.33,11.34-9.15,18.03-11.96,2.73-1.14,5.79-.77,8.59-.13,1.45.06,2.63,1.24,3.43,2.33,1.1,1.28,2.29,2.9,3.43,4.14,2.89,3.11,6.94,5.17,11.16,5.6,1.67-.2,3.49-.21,5.15,0,6.1-.5,11.17-4.66,14.6-9.5,2.02-2.74,3.7-6.13,6.87-7.74,5.97-3.11,12.03,4.72,16.31,8.06,3.83,3.21,7.88,6.78,12.88,7.89,1.06.2,2.38.21,3.43-.06.37-.18,1.3-.39,1.72-.42,1.13.42,2.3,1.3,3.43,1.72,3.37-1.01,6.08-1.07,9.45.04,5.85-1.65,11.77-5.48,18.03-3.55,2.69.77,5.13,2.41,7.73,3.41,1.64.34,3.48.1,5.15.17,2.83,0,5.75,0,8.59,0"/><path class="b" d="M9.7,129.32c4.85,0,9.75,0,14.6,0,7.03-2.15,11.83-8.38,18.03-12.02,2.3-1.36,5.06-2.01,7.73-1.74,1.16.08,2.58.13,3.43,1.03,2.59,2.64,4.6,6.04,7.73,8.13,4.94,3.51,11.69,3.81,17.17,1.42,4.22-1.8,7.6-5.21,10.3-8.84,2.98-4.31,6.27-9.58,12.02-5.61,6.66,5.08,11.26,12.76,18.89,16.62,1.02.45,2.31,1.26,3.43.77,1.37-.34,2.92-.09,4.29.06,1.6,0,2.86-1.45,4.29-1.99,4.68-2.17,8.74-.14,12.88,2.16,5.66-3.11,11.65-6.43,18.03-3.12,2.26,1,4.41,2.66,6.87,3.13,4.28,0,8.6,0,12.88,0"/><path class="b" d="M9.7,124.66c3.12,0,6.32,0,9.45,0,1.96-.1,4.09.23,6.01-.2,4.73-1.98,8.91-5.11,12.88-8.3,3.78-3.01,7.91-6.18,12.88-6.68,1.43-.32,2.45.02,3.43,1.09,1.56,1.39,2.82,3.37,4.29,4.85,3.47,3.74,8.64,5.84,13.74,5.17,8.48-.86,14.63-7.65,18.89-14.49,8.79-11.9,15.21,13.49,27.48,18.55,3.3-1.33,7.15-1.16,10.3-2.95,2.81-1.66,6.48-1.89,9.45-.5,1.11.56,2.38,1.31,3.43,1.97.74.45,1.68,1.22,2.58,1.31,5.09-3.38,11.14-6.58,17.17-3.53,2.58,1.11,4.94,3.12,7.73,3.7,4.28,0,8.6,0,12.88,0"/><path class="b" d="M9.7,120c4.85,0,9.75,0,14.6,0,10.41-3.72,17.96-12.84,28.34-16.68,2.25.29,3.69,2.66,5.15,4.17,1.69,1.82,3.75,3.52,6.01,4.57,9.19,4.23,19.68-1.47,24.9-9.3,1.76-2.32,3.02-5.33,5.15-7.36,5.15-4.62,9.77,6.85,12.02,10.23,3.17,5.27,6.2,11.6,12.02,14.35,3.4-1.13,6.93-2.11,10.3-3.33,5.68-2.61,10.02-.03,14.6,3.3,5.86-3.81,11.93-7.53,18.89-3.88,2.59,1.18,4.92,3.29,7.73,3.92,4.28,0,8.6,0,12.88,0"/><path class="b" d="M9.7,115.34c3.12,0,6.32,0,9.45,0,1.93-.12,4.17.3,6.01-.26,6.84-3.95,13.83-7.7,20.61-11.74,1.71-1.06,3.53-2.26,5.15-3.45.74-.52,1.66-1.43,2.58-1.63,2.5.64,3.99,3.11,6.01,4.54,4.78,3.9,10.38,4.55,16.31,3.86,6.47-.23,11.65-4.79,14.6-10.28,1.71-3.01,3-6.6,5.15-9.34,4.29-4.45,7.77,4.66,9.45,7.63,1.65,3.41,3.34,7.14,5.15,10.47,2.55,4.63,5.56,9.21,11.16,10.16,2.23-.78,4.6-1.46,6.87-2.13,3.81-1.6,7.97-.09,11.16,2.18,5.62-3.98,12.72-8.11,19.75-5.46,3.41,1.2,6.23,3.69,9.45,5.26,1.63.42,3.48.12,5.15.2,2.83,0,5.75,0,8.59,0"/><path class="b" d="M9.7,110.68c3.12,0,6.32,0,9.45,0,1.08,0,2.36,0,3.43,0,.79,0,1.85.09,2.58-.32,2.99-2.06,6.14-4.04,9.45-5.55,6.54-3.08,14.07-3.59,18.89-9.6,2.01-.68,3.62,1.11,5.15,2.11,1.88,1.32,3.94,2.6,6.01,3.59,8.36,4.2,18.68,3.71,24.9-3.89,1.71-2.03,3.13-4.66,4.29-7.04,1.51-2.6,3.87-8.85,7.73-7.15,2.9,1.97,4.38,5.62,6.01,8.6,2.93,5.51,5.19,12.07,10.3,15.97,2.41,1.31,5.16,2.16,7.73,3.12,1.44.16,2.91-.79,4.29-1.09,3.14-.67,6.48.19,9.45,1.25,6.52-2.39,13.41-7.25,20.61-5.33,3.23.93,5.82,3.29,8.59,5.07,1.6.53,3.49.16,5.15.26,2.83,0,5.75,0,8.59,0"/><path class="b" d="M9.7,106.01c3.41,0,6.89,0,10.3,0,1.38,0,2.91,0,4.29,0,.9-.25,1.83-1.11,2.58-1.63,2.37-1.73,4.97-3.35,7.73-4.38,2.45-.93,5.13-1.36,7.73-1.56,2.89-.23,5.98-.39,8.59-1.81,1.79-.8,3.02-3.02,5.15-2.91,2.9.55,5.75,1.67,8.59,2.47,3.32.97,6.83,1.6,10.3,1.56,6.2-.11,12.94-1.81,17.17-6.63,2.47-3.08,3.94-7.13,6.87-9.85,4.85-4.14,8.25,4.21,10.3,7.53,2.3,4.16,4.43,8.73,7.73,12.22,1.13,1.23,2.81,2.08,4.29,2.79,1.36.71,2.9,1.5,4.29,2.15,1.42-.45,2.89-1.24,4.29-1.72,2.77-.87,5.86-.57,8.59.31,1.39.36,2.83,1.35,4.29,1.29.77-.3,1.81-.71,2.58-1,4.64-1.69,9.57-3.62,14.6-3.03,3.17.39,6.01,2.15,8.59,3.92,1.59.56,3.49.16,5.15.28,2.83,0,5.75,0,8.59,0"/><path class="b" d="M9.7,101.35c4.85,0,9.75,0,14.6,0,.91-.25,1.83-1.11,2.58-1.65,1.33-1,2.85-2.07,4.29-2.89,2.58-1.49,5.59-2.38,8.59-2.34,4.55,0,9.38,1.68,13.74-.31,1.58-.9,3.35-1.66,5.15-1.95,7.04-1.49,14.3-1.75,21.47-1.86,2.84-.06,5.79-.08,8.59-.65,2.14-.39,4.03-1.13,5.15-3.12,2.45-3.02,4.59-7.28,8.59-8.39,4.43-.36,7.24,5.63,9.45,8.72,2.04,3.16,4.07,6.62,6.87,9.17,1.56,1.27,3.48,2.35,5.15,3.46,1.04.57,2.21,1.56,3.43,1.66,5.65-3.29,11.36-1.6,17.17.14,7.88-2.12,16.47-4.64,24.04-.21,1.62.45,3.49.13,5.15.22,2.84,0,5.75,0,8.59,0"/><path class="b" d="M9.7,96.69c4.28,0,8.6,0,12.88,0,.44,0,1.28,0,1.72,0,1.25-.34,2.38-1.45,3.43-2.15,4.44-3.41,8.92-5.51,14.6-4.18,3.94.8,7.96,2.14,12.02,1.58,1.19-.31,2.4-1.18,3.43-1.81,7.36-4.68,14.04-9.75,23.18-6.63,3.41,1.03,6.79,2.42,10.3,3.11,3.89-2.98,6.69-7.51,11.16-9.73,6.58-2.95,11.49,6.65,15.46,10.51,1.47,1.66,3.39,3.08,5.15,4.41,2.11,1.61,4.41,3.2,6.87,4.24.42.17,1.28.47,1.72.6.78-.06,1.81-.32,2.58-.43,1.66-.24,3.48-.32,5.15-.21,2.27.08,4.61.59,6.87.65,3.69-.51,7.44-1.11,11.16-1.35,2.26-.14,4.63-.1,6.87.24,1.71.2,3.46.88,5.15,1.16,4.28,0,8.6,0,12.88,0"/><path class="b" d="M9.7,92.03c3.13,0,6.32,0,9.45,0,1.93-.12,4.16.3,6.01-.26,2.61-1.53,5.03-3.58,7.73-4.97,2.87-1.56,6.29-1.86,9.45-1.12,2.86.61,5.71,1.59,8.59,2.12,1.36.19,2.93.66,4.29.29,1.63-.6,3-2,4.29-3.11,2-1.79,4.02-3.78,6.01-5.59,7.95-7.45,12.13-5.52,19.75.92.76.62,1.8,1.46,2.58,2.07.92.8,2.18,1.71,3.43,1.12,4.2-2.46,7.76-6.01,12.02-8.38,6.18-3.58,11.03.51,15.46,4.69,3.42,3.06,6.89,6.4,11.16,8.23,10.71,4.66,18.07,3.65,29.2,3.3,3.43-.09,6.91.28,10.3.69,4.27,0,8.61,0,12.88,0"/><path class="b" d="M9.7,87.36c3.13,0,6.32,0,9.45,0,1.96-.11,4.1.26,6.01-.22,2.97-1.51,5.6-3.77,8.59-5.24,2.89-1.5,6.29-1.77,9.45-1.12,2.57.48,5.18,1.24,7.73,1.81,1.37.23,2.9.87,4.29.61,1.65-.46,3.06-1.76,4.29-2.89,2.43-2.23,4.68-4.84,6.87-7.3,6.86-8.02,10.64-7.84,17.17.37,1.1,1.34,2.37,2.98,3.43,4.34.95,1.34,2.55,2.67,4.29,2.19,3.97-1.46,7.6-3.83,11.16-6.06,2.88-1.77,5.99-3.68,9.45-3.94,4.35-.3,8.07,2.59,11.16,5.3,1.52,1.36,3.29,2.72,5.15,3.56,1.98.73,4.09,1.46,6.01,2.32,3.73,1.46,7.23,3.67,11.16,4.58,5.03,1.25,10.3,1.22,15.46,1.41,7.14.3,14.32.3,21.47.28"/><path class="b" d="M9.7,82.7c3.13,0,6.32,0,9.45,0,1.96-.1,4.1.25,6.01-.21,2.97-1.45,5.64-3.6,8.59-5.1,3.13-1.67,6.79-2.26,10.3-1.86,3.45.33,6.86,1.31,10.3,1.69,4.26-.67,10.47-8.05,13.74-11.14,10.41-10.96,13.6-2.91,19.75,6.37,1.79,2.49,3.23,2.59,6.01,1.72,2.65-.7,5.28-1.8,7.73-3.02,7.6-3.84,14.45-9.26,22.33-2.48,1.22,1.09,2.68,2.3,4.29,2.73,2.61.32,5.28.83,7.73,1.84,1.87.57,3.52,1.86,5.15,2.89,2.4,1.51,5.05,2.84,7.73,3.77,5.77,1.95,11.95,2.85,18.03,2.68,5.13.19,10.32.06,15.46.1"/><path class="b" d="M9.7,78.04c3.13,0,6.32,0,9.45,0,1.96-.11,4.1.26,6.01-.22,4.57-2.31,8.66-5.81,13.74-7.03,3.34-.85,6.88-.8,10.3-.71,1.67.03,3.48.09,5.15.03.8-.18,1.81-.61,2.58-.9,3.35-1.74,6.45-4.08,9.45-6.36,3.41-2.49,7.48-6.25,12.02-4.67,3.88,1.6,6.32,5.47,8.59,8.81,1,1.49,1.96,3.5,3.43,4.58,3.36,1.48,8.88-.33,12.02-1.92,5.42-2.59,10.14-7.27,16.31-7.91,2.06-.15,4.22.42,6.01,1.43,1.07.58,2.2,1.62,3.43,1.84,1.09.04,2.35-.35,3.43-.39,1.97-.14,4.07.07,6.01.45,1.16.49,2.37,1.39,3.43,2.05,7.57,4.84,15.73,9.85,24.9,10.5,2.24.34,4.6.5,6.87.42,3.12,0,6.32,0,9.45,0"/><path class="b" d="M9.7,73.38c3.13,0,6.32,0,9.45,0,1.96-.11,4.1.26,6.01-.22,3.5-1.74,6.75-4.1,10.3-5.73,5.08-2.44,10.79-2.93,16.31-3.47,4.86-.33,9.46-2.35,13.74-4.58,3.5-1.74,7.07-4.41,11.16-4.09,6.22,1.03,9.66,8.32,12.88,13.08.87,1.2,1.97,1.67,3.43,1.6,2,.05,4.11-.3,6.01-.95,8.83-2.81,16.03-12.48,25.76-11.68,1.11.13,2.4.49,3.43.92.81.28,1.81-.24,2.58-.46,1.05-.31,2.35-.6,3.43-.77,3.5-.52,3.82-.48,6.87,1.45,2.6,1.58,5.2,3.35,7.73,5.04,6.55,4.32,13.43,9.2,21.47,9.85,3.99,0,8.03,0,12.02,0"/><path class="b" d="M9.7,68.72c3.13,0,6.32,0,9.45,0,1.96-.11,4.1.26,6.01-.22,3.77-1.87,7.3-4.31,11.16-6,4.06-1.82,8.5-2.77,12.88-3.44,2.26-.36,4.63-.59,6.87-1.06,2.89-.08,5.84-.65,8.59-1.52,4.49-1.27,8.89-4.63,13.74-3.51,5.37,1.76,8.23,7.37,11.16,11.8.91,1.31,1.86,1.7,3.43,1.57,2.64-.04,5.31-.73,7.73-1.76,7.39-3.21,13.67-8.77,21.47-11.09,1.34-.39,2.89-.7,4.29-.8,1.07-.11,2.37.11,3.43-.05,2.23-.72,4.59-1.38,6.87-1.92.77-.32,1.86-.1,2.58.28,1.09.46,2.38,1.06,3.43,1.62,4.88,2.57,9.28,6.03,13.74,9.26,3.22,2.28,6.55,4.7,10.3,6.01.74.27,1.78.74,2.58.83,1.37,0,2.92,0,4.29,0,2.83,0,5.75,0,8.59,0"/><path class="b" d="M9.7,64.05c3.13,0,6.32,0,9.45,0,1.96-.11,4.1.26,6.01-.22,3.75-1.85,7.31-4.2,11.16-5.85,4.61-2.02,9.63-2.99,14.6-3.57,1.67-.16,3.47-.42,5.15-.51,2.82.39,5.78.49,8.59-.09,2.66-.52,5.24-1.65,7.73-2.69,2.14-.87,4.54-1.7,6.87-1.28,4.93,1.13,7.68,6.1,10.3,9.99,1.13,1.6,2.57,1.36,4.29,1.17,2.63-.28,5.28-1.07,7.73-2.07,6.59-2.76,12.86-6.41,19.75-8.44,3.32-1.11,6.88-1.43,10.3-2.07,1.38-.27,2.93-.63,4.29-.99.75-.2,1.78-.6,2.58-.43,5.6,1.36,10.84,3.98,15.46,7.41,4.97,3.39,9.58,7.93,15.46,9.64,4.27,0,8.61,0,12.88,0"/><path class="b" d="M9.7,59.39c4.56,0,9.18,0,13.74,0,1.22.16,2.41-.56,3.43-1.1,1.68-.89,3.46-1.91,5.15-2.79,4-2.14,8.38-3.67,12.88-4.29,2.53-.37,5.17-.54,7.73-.65,4.17,1.11,8.56,2.28,12.88,1.38,11.87-2.54,14.16-11.91,24.04,2.01,1.09,1.26,2.84.86,4.29.67,4.99-.6,9.8-2.28,14.6-3.7,8.73-2.05,17.68-3.26,26.62-4,1.39-.17,2.93-.45,4.29-.78.41-.1,1.3-.32,1.72-.41.41.1,1.31.29,1.72.39,4.23.93,8.35,2.59,12.02,4.9,4.29,2.59,8.25,5.89,12.88,7.87,1.83.87,4.05.39,6.01.5,2.83,0,5.75,0,8.59,0"/><path class="b" d="M9.7,54.73c4.85,0,9.75,0,14.6,0,1.5-.34,2.93-1.37,4.29-2.04,2.48-1.35,5.07-2.71,7.73-3.65,3.01-1.08,6.26-1.63,9.45-1.8,1.7-.08,3.54-.26,5.15.39,5.63,1.43,10.48,3.08,16.31,1.36,2.77-.7,5.31-2.22,7.73-3.69,3.28-2.07,7.66-4.36,11.16-1.47,1.23.92,2.38,2.33,3.43,3.44.95.79,2.31.61,3.43.41,1.38-.18,2.92-.36,4.29-.54,4.26-.61,8.58-1.2,12.88-1.31,3.13-.16,6.32.14,9.45.1,3.7.02,7.47.16,11.16-.2,2.26-.07,4.62.08,6.87-.14,2.27-.16,4.62-.6,6.87-.95,3.84.83,7.66,2.05,11.16,3.84,3.99,1.95,7.75,4.59,12.02,5.9,1.9.6,4.05.26,6.01.34,2.83,0,5.75,0,8.59,0"/><path class="b" d="M9.7,50.07c3.13,0,6.32,0,9.45,0,1.96-.11,4.11.27,6.01-.24,3.09-1.6,6.18-3.41,9.45-4.63,3.54-1.36,7.39-1.85,11.16-1.93,2.78.8,5.71,1.22,8.59,1.47,4.51,1,9.3.76,13.74-.5,2.68-.87,5.25-2.3,7.73-3.63,3.08-1.66,6.78-3.65,10.3-2.17.84.34,1.88,1.01,2.58,1.59.63.63,1.65,1.21,2.58,1.13,6.79-1.29,13.8-.97,20.61-.01,6.81,1.07,13.67,2.68,20.61,2.05,5.26.07,10.34-1.52,15.46-2.43,7.43,1.71,13.11,7.75,20.61,9.21,4.55.23,9.18.02,13.74.09"/><path class="b" d="M9.7,45.4c3.13,0,6.32,0,9.45,0,1.95-.12,4.12.29,6.01-.25,3.08-1.69,6.18-3.56,9.45-4.87,2.46-1,5.12-1.72,7.73-2.22,1.68.25,3.47.7,5.15.94,2.24.37,4.6.58,6.87.71,4.48.99,9.25,1.01,13.74.03,4.49-1.13,8.57-3.53,12.88-5.14,2.47-.92,5.37-1.08,7.73.25.76.42,1.67,1.19,2.58,1.22,3.1-.47,6.32-.5,9.45-.22,4.64.4,9.25,1.44,13.74,2.68,5.29,1.51,10.75,3.19,16.31,2.78,6.25-.32,12.15-2.53,18.03-4.47.74-.22,1.8-.53,2.58-.57,1.77.55,3.57,1.45,5.15,2.39,3.9,2.32,7.58,5.35,12.02,6.59,4.53.35,9.18.03,13.74.14"/><path class="b" d="M9.7,40.74c4.85,0,9.75,0,14.6,0,1.8-.52,3.46-1.82,5.15-2.62,2.73-1.47,5.64-2.78,8.59-3.72,1.04-.5,2.35-.1,3.43.05,1.96.3,4.04.59,6.01.79,2.54.31,5.18.29,7.73.39,2.82.41,5.74.67,8.59.58,4.4,0,8.72-1.21,12.88-2.53,4.68-1.57,10.01-3.55,14.6-.65,13-2.38,24.92,6.07,37.78,5.96,4.67-.19,9.3-1.34,13.74-2.76,3.7-1.18,7.35-2.74,11.16-3.53.47-.1,1.31.09,1.72.36,1.12.53,2.39,1.27,3.43,1.93,2.8,1.78,5.54,3.87,8.59,5.22,1.82.93,4.05.42,6.01.54,2.83,0,5.75,0,8.59,0"/><path class="b" d="M9.7,36.08c3.13,0,6.32,0,9.45,0,1.96-.12,4.12.28,6.01-.24,3.06-1.64,6.21-3.29,9.45-4.54,1.3-.68,2.91-.15,4.29-.07,2.25.24,4.61.47,6.87.64,4.56.44,9.18.02,13.74.35,3.12.12,6.34.18,9.45-.21,5.17-.62,10.28-1.95,15.46-2.5,2.29-.2,4.72.04,6.87.89,1.08.39,2.33-.3,3.43-.35,6.16-.61,12.13,1.75,18.03,3.15,6.96,1.92,14.3,3.03,21.47,1.7,6.98-1.04,13.73-3.29,20.61-4.78,1.06-.17,2.35-.51,3.43-.32.77.4,1.83.99,2.58,1.45,2.81,1.6,5.46,3.91,8.59,4.84,4.27,0,8.61,0,12.88,0"/><path class="b" d="M9.7,31.42c4.85,0,9.75,0,14.6,0,1.77-.46,3.45-1.59,5.15-2.26,1.07-.42,2.26-1.16,3.43-1.17,1.38.09,2.91.19,4.29.29,5.7.36,11.46.78,17.17.54,3.99-.1,8.04.08,12.02-.12,4.88-.17,9.73-1.2,14.6-1.54,3.72-.37,7.54-.27,11.16.73,1.94-.45,4.01-.85,6.01-.74,5.53.3,10.87,2.12,16.31,3.01,6.21,1.16,12.62,1.37,18.89.63,7.75-.81,15.45-2.28,23.18-3.24,1.66-.11,3.51-.5,5.15-.14.4.24,1.31.72,1.72.97,1.94,1.02,3.87,2.51,6.01,3.05,4.27,0,8.61,0,12.88,0"/><path class="b" d="M9.7,26.75c4.85,0,9.75,0,14.6,0,2.03-.37,3.86-2.05,6.01-1.77,10.01.39,20.04.65,30.05.53,3.7-.02,7.48-.05,11.16-.37,5.4-.6,10.87-1.37,16.31-.96,1.39.09,2.92.36,4.29.54,2.23-.46,4.6-.72,6.87-.58,5.75.38,11.42,1.77,17.17,2.18,14.6,1.06,29.2-1.18,43.79-1.47,1.67.04,3.52-.19,5.15.22,1.34.59,2.83,1.45,4.29,1.68,4.27,0,8.61,0,12.88,0"/><path class="b" d="M9.7,22.09c4.56,0,9.18,0,13.74,0,.8.08,1.8-.21,2.58-.34.78,0,1.8,0,2.58.01,10.87.07,21.76.19,32.63.12,3.99-.01,8.03-.06,12.02-.11,3.41-.18,6.89-.49,10.3-.58,4-.16,8.03.29,12.02-.09,5.72-.15,11.46.62,17.17.8,7.14.21,14.32.11,21.47.05,10.01-.09,20.04-.21,30.05-.14,1.97-.07,4.05.18,6.01.27,3.99,0,8.03,0,12.02,0"/><path class="b" d="M9.7,17.43h172.59"/><path class="b" d="M9.7,12.77h172.59"/><path class="b" d="M9.7,8.11h172.59"/></svg>