<?xml version="1.0" encoding="UTF-8"?><svg id="a" xmlns="http://www.w3.org/2000/svg" width="1920" height="2400" viewBox="0 0 192 240"><defs><style>.b{fill:none;stroke:#fff;stroke-miterlimit:10;stroke-width:.3px;}.c{stroke-width:0px;}</style></defs><rect class="c" x="0" width="192" height="240"/><path class="b" d="M9.73,231.86h172.54"/><path class="b" d="M9.73,227.2h172.54"/><path class="b" d="M9.73,222.54c19.74,0,39.49,0,59.23,0,3.7,0,7.46,0,11.16,0,3.12-.24,6.32-.37,9.44-.31,30.9.62,61.81.2,92.71.31"/><path class="b" d="M9.73,217.88c4.85,0,9.74,0,14.59,0,.47-.09,1.29-.38,1.72-.58,1.08.03,2.35.07,3.43.11,2.26.07,4.61.14,6.87.2,10.86.2,21.77.23,32.62-.26,4.58-.57,9.13-1.7,13.73-2.04,4.89-.42,9.72.99,14.59,1.21,7.14.4,14.32.52,21.46.8,3.41-.07,6.89-.22,10.3-.24,6,.19,12.03.53,18.03.62,6.28.15,12.6.08,18.89-.04,5.41.38,10.88.19,16.31.23"/><path class="b" d="M9.73,213.22c4.85,0,9.74,0,14.59,0,1.97-.51,3.87-2.4,6.01-1.92,6.8,1.14,13.71,1.71,20.6,1.48,5.43.04,10.91-.12,16.31-.79,6.43-.86,12.37-4.23,18.89-4.51,2.65-.14,5.22.81,7.73,1.5,7.85,1.9,16.02,1.56,24.04,1.97,2.55-.16,5.19-.46,7.73-.77,1.67-.18,3.47-.58,5.15-.35,4.31.44,8.58,1.55,12.88,2.1,5.67.78,11.46,1.02,17.17.59,1.07-.08,2.36-.25,3.43-.3,1.68.27,3.44.95,5.15,1.01,4.27,0,8.6,0,12.88,0"/><path class="b" d="M9.73,208.56c4.85,0,9.74,0,14.59,0,1.18-.34,2.31-1.29,3.43-1.77,1.31-.61,2.85-1.09,4.29-1.26,1.43-.08,2.9.71,4.29.98,2.22.57,4.58,1.02,6.87,1.24,4.26.35,8.6.21,12.88.25,4.58-.36,9.24-.82,13.73-1.79,3.51-.82,6.98-2.02,10.3-3.41,4.01-1.56,8.5-3.93,12.88-2.55,3.34,1.1,6.83,1.95,10.3,2.51,4.81.79,9.73,1.22,14.59,1.53,3.45-.18,6.95-.83,10.3-1.66,3.38-1.15,7.02-.22,10.3.86,8.57,3.03,14.02,4.26,23.18,3.4,2.33.15,4.59,1.16,6.87,1.6,4.55.23,9.18.02,13.73.09"/><path class="b" d="M9.73,203.9c4.85,0,9.74,0,14.59,0,1.83-.77,3.34-2.45,5.15-3.32,2.24-1.12,5.3-2.35,7.73-1.21,2.44,1.04,5.09,1.87,7.73,2.21,1.96.25,4.04.25,6.01.37,5.7.57,11.46.32,17.17-.06,3.74-.41,7.54-.98,11.16-2.04,3.52-.99,6.88-2.61,10.3-3.88,3.6-1.59,7.44-.86,11.16-.18,5.68,1,11.41,2.06,17.17,2.49,4.06-.23,8.15-.93,12.02-2.2,7.41-3.27,12.9.85,19.74,3.23,1.63.56,3.44,1.04,5.15,1.29,1.06.19,2.38.13,3.43.41,2.89.56,5.81,1.34,8.58,2.34,1.89.7,4.03.54,6.01.54,3.12,0,6.32,0,9.44,0"/><path class="b" d="M9.73,199.23c4.85,0,9.74,0,14.59,0,.9-.23,1.84-1.06,2.58-1.59,1.34-1,2.84-2.1,4.29-2.92,2.46-1.37,6.73-2.9,9.44-1.63,3.51,1.6,7.38,2.05,11.16,2.52,5.63,1.26,11.42,1.61,17.17,1.81,4.86,0,9.81,0,14.59-.95,4.1-.75,7.97-2.55,12.02-3.51,4.19-1.02,8.59-1.19,12.88-.83,2.84.21,5.75.58,8.58.88,4.58-.13,9.28-.37,13.73-1.52,2.61-.9,4.93-2.79,7.73-3.19,5.15-.97,9.91,1.91,14.59,3.58,1.85.6,3.36,2.2,5.15,2.96,2.82,1.25,5.73,2.51,8.58,3.68,1.85.89,4.02.71,6.01.71,3.12,0,6.32,0,9.44,0"/><path class="b" d="M9.73,194.57c4.56,0,9.17,0,13.73,0,1.28.2,2.44-.72,3.43-1.39,1.66-1.13,3.41-2.4,5.15-3.41,3.08-1.88,6.71-2.76,10.3-2.82,1.14.08,2.34.72,3.43,1,2.49.81,5.19,1.01,7.73,1.62,6.99,1.94,14.24,3.03,21.46,3.61,10.81,1.03,17.57-.65,27.47-4.66,3.84-1.33,8.03-1.33,12.02-.85,3.4.33,6.89.25,10.3.47,2.25,0,4.65.53,6.87,0,1.59-.4,3-1.58,4.29-2.54,1.32-.95,2.85-1.96,4.29-2.71,3.12-1.7,6.88-2.13,10.3-1.16,1.83,1.3,3.4,3.21,5.15,4.63,3.58,3.1,7.78,5.55,12.02,7.62,1.8.98,4.05.45,6.01.57,2.83,0,5.75,0,8.58,0"/><path class="b" d="M9.73,189.91c4.56,0,9.17,0,13.73,0,1.25.18,2.43-.64,3.43-1.26,1.68-1.03,3.44-2.21,5.15-3.18,4.13-2.5,8.97-3.43,13.73-3.62,1.41.11,2.89.73,4.29.94,2.56.41,5.21.8,7.73,1.47,6.25,1.51,12.47,3.41,18.89,4.05,5.98.65,12.22.58,18.03-1.11,3.31-.98,6.29-2.92,9.44-4.25,4.37-1.78,9.19-.89,13.73-.47,2.87.38,5.79.96,8.58,1.7,1.94.49,3.98,1.51,6.01.93,1.24-.32,2.45-1.26,3.43-2.05,1.68-1.32,3.46-2.8,5.15-4.11,1.84-1.43,3.88-2.88,6.01-3.85.83-.14,1.85.36,2.58.73,1.48.78,3,1.9,4.29,2.95,4.6,3.94,9.25,7.97,14.59,10.88,1.6.51,3.49.15,5.15.25,2.83,0,5.75,0,8.58,0"/><path class="b" d="M9.73,185.25c3.41,0,6.89,0,10.3,0,1.38,0,2.91,0,4.29,0,.86-.16,1.83-.82,2.58-1.25,3-1.79,6.1-3.65,9.44-4.74,4.41-1.38,9.15-1.8,13.73-2.06,3.1.59,6.36.23,9.44.98,6.28,1.31,12.41,3.75,18.89,3.96,3.42.19,6.91-.03,10.3-.47,2.61-.28,5.31-.68,7.73-1.78,2.93-1.17,5.52-3.26,8.58-4.1,6.31-1.51,13,.23,18.89,2.6,1.4.58,2.94,1.29,4.29,1.98,1.77,1.15,4.13,1.56,6.01.39,3.32-2.01,6.43-4.49,9.44-6.93,6.63-3.4,13.1,2.44,18.03,6.37,2.41,1.83,4.92,3.92,7.73,5.05,4.27,0,8.6,0,12.88,0"/><path class="b" d="M9.73,180.59c3.12,0,6.32,0,9.44,0,1.08,0,2.35,0,3.43,0,.8,0,1.84.08,2.58-.28,2.97-1.85,6.08-3.7,9.44-4.76,4.14-1.35,8.58-1.4,12.88-1.73,2.88-.17,5.72-1.01,8.58-1.29,5.74-.51,11.45.87,17.17,1.12,5.43.37,10.88-.36,16.31-.53,8.63.1,9.46-5.08,18.89-5.32,5.41-.23,10.79,1.55,15.45,4.19,1.43.82,2.97,1.84,4.29,2.82,1.37,1.22,3.31,2.15,5.15,1.45,1.74-.66,3.55-1.55,5.15-2.49,1.04-.62,2.25-1.48,3.43-1.81,11.1-4.37,16.91,2.98,25.75,7.92,1.72,1.21,4.04.59,6.01.73,2.83,0,5.75,0,8.58,0"/><path class="b" d="M9.73,175.93c3.12,0,6.32,0,9.44,0,1.08,0,2.35,0,3.43,0,.81,0,1.85.09,2.58-.34,2.42-1.79,4.96-3.64,7.73-4.86,4.87-2.21,10.4-2.15,15.45-3.75,1.75-.55,3.59-1.31,5.15-2.28,1.3-.95,2.63-1.72,4.29-1.69,3.71-.24,7.47.33,11.16.68,4.26.44,8.6.71,12.88.93,2.26.12,4.61.24,6.87.33,1.67.04,3.51.28,5.15-.18,2.4-.63,4.54-2.18,6.87-2.99,5.41-2.2,11.35-.5,16.31,2.06,4.66,2.2,8.74,5.45,12.88,8.46,1.04.47,2.38.23,3.43-.08,1.41-.38,2.96-.94,4.29-1.54,3.37-1.11,6.8-2.31,10.3-2.93,5.58-1.13,10.98,1.26,15.45,4.44,1.07.73,2.36,1.61,3.43,2.34.97.65,2.18,1.61,3.43,1.4,3.99,0,8.03,0,12.02,0"/><path class="b" d="M9.73,171.27c4.85,0,9.74,0,14.59,0,1.28-.44,2.37-1.68,3.43-2.48,1.36-1.13,2.88-2.37,4.29-3.43,6.71-5.36,15.21-7.69,22.32-12.38,1.22-1.11,2.8-.87,4.29-.67,2.28.28,4.62.77,6.87,1.21,5.37,1.1,10.85,1.78,16.31,2.27,2.25.22,4.61.43,6.87.63,1.98.18,4.13.54,6.01-.32,7.25-3.49,12.9-2.65,19.74,1.26,3.23,1.79,6.41,3.83,9.44,5.94,1.08.76,2.37,1.68,3.43,2.46.72.5,1.63,1.41,2.58,1.42,2.57.16,5.24-.19,7.73-.86,2.25-.38,4.61-.7,6.87-1.04,4.55-.67,9.33-.69,13.73.77,2.99.95,5.87,2.45,8.58,4,.73.41,1.74,1.08,2.58,1.23,1.37,0,2.92,0,4.29,0,2.83,0,5.75,0,8.58,0"/><path class="b" d="M9.73,166.61c3.12,0,6.32,0,9.44,0,1.08,0,2.35,0,3.43,0,.81,0,1.85.09,2.58-.35,7.23-5.68,13.84-12.21,21.46-17.39,1.96-1.38,4.05-2.81,6.01-4.19,1.07-.68,2.16-1.85,3.43-2.12,4.35.8,8.56,2.4,12.88,3.33,7.59,1.69,15.44,1.87,23.18,2.31,1.43-.14,2.9-.87,4.29-1.2,1.64-.43,3.46-.68,5.15-.61,5.08.22,9.56,3.1,13.73,5.74,3.99,2.56,7.99,5.25,12.02,7.74,3.11,1.64,6.86,1.77,10.3,1.51,3.41.12,6.89.11,10.3.25,4.34.19,8.7.89,12.88,2.1,2.9.72,5.71,2.09,8.58,2.86,4.27,0,8.6,0,12.88,0"/><path class="b" d="M9.73,161.95c3.12,0,6.32,0,9.44,0,1.08,0,2.36,0,3.43,0,.79,0,1.84.08,2.58-.28,8.32-5.15,15.78-11.62,23.18-17.99,1.4-1.23,2.94-2.63,4.29-3.92,1.06-.92,2.12-2.35,3.43-2.92,2.34.08,4.66,1,6.87,1.72,3.07,1.07,6.24,2.13,9.44,2.7,4.51.84,9.19.76,13.73.23,2.87-.38,5.88-.56,8.58-1.66,5.48-1.96,10.8-.19,15.45,2.89,5.08,3.26,9.97,6.95,15.45,9.53,2.48,1.22,5.02,2.61,7.73,3.26,1.64.46,3.48.57,5.15.88,3.93.94,8.03,1.3,12.02,1.89,6.35.85,12.64,2.31,18.89,3.67,4.27,0,8.6,0,12.88,0"/><path class="b" d="M9.73,157.29c4.85,0,9.74,0,14.59,0,2.06-.51,4.05-1.67,6.01-2.49,3.52-1.63,7.04-3.47,10.3-5.59,5.62-3.55,10.44-8.28,14.59-13.44,2.85-2.44,7.27.03,10.3,1.07,2.77,1.1,5.65,2.2,8.58,2.74,3.69.71,7.61.46,11.16-.78,6.53-2.08,11.49-8.19,18.89-5.44,5.38,1.99,9.65,6.12,14.59,8.93,2.37,1.5,5.13,2.35,7.73,3.35,3.1,1.53,6.07,3.55,9.44,4.49,2.6.68,5.1,1.94,7.73,2.56,5.06,1.32,10.29,2.1,15.45,2.95,3.42.49,6.89,1.14,10.3,1.65,4.27,0,8.6,0,12.88,0"/><path class="b" d="M9.73,152.63c3.41,0,6.89,0,10.3,0,1.97-.09,4.13.29,6.01-.42,8.13-2.42,16.62-4.89,23.18-10.52,2.6-2.03,4.49-4.95,6.87-7.18,4.78-2.48,10.16,1.94,14.59,3.65,6.78,3.15,13.23,3.17,18.89-2.15,2.45-2.32,4.64-5.18,7.73-6.71,7.59-4.05,14.34,3.56,20.6,6.89,1.58.88,3.38,1.7,5.15,2.09,1.07.22,2.38.27,3.43.58,2.43.74,4.58,2.38,6.87,3.45,1.34.68,2.89,1.38,4.29,1.93,1.08.57,2.33,1.37,3.43,1.91,2.97,1.49,6.22,2.53,9.44,3.3,6.21,1.46,12.6,2.16,18.89,3.2,4.27,0,8.6,0,12.88,0"/><path class="b" d="M9.73,147.97c4.85,0,9.74,0,14.59,0,4.89-1.17,9.81-2.56,14.59-4.12,4.24-1.45,8.46-3.32,12.02-6.09,1.85-1.31,3.32-3.32,5.15-4.63,3.21-1.43,6.61.24,9.44,1.8,6.08,3.42,13.79,8.23,20.6,3.9,5.64-3.46,7.78-11.22,14.59-13.03,7.8-2.02,13.54,5.67,20.6,7.44,2.51.82,5.21-.39,7.73.38,2.92.84,5.78,2.1,8.58,3.25,3.24,2.23,6.59,4.49,10.3,5.89,6.59,2.63,13.72,3.52,20.6,5.1,4.54.28,9.18.02,13.73.11"/><path class="b" d="M9.73,143.3c3.12,0,6.32,0,9.44,0,1.96-.08,4.07.18,6.01-.15,8.81-2.85,18.04-5.23,25.75-10.58,1.13-.79,2.41-1.81,3.43-2.74.92-.93,2.14-1.41,3.43-1.15,2.5.49,4.74,2.04,6.87,3.37,2.75,1.77,5.58,3.62,8.58,4.92,5.75,2.62,11.93,2.34,16.31-2.59,1.56-1.67,2.87-3.88,4.29-5.65,1.7-1.96,3.78-3.82,6.01-5.15,8.85-5.28,15.71,4.26,24.04,5.29,2.3.09,4.55-1.03,6.87-.87,2.56.1,5.44.22,7.73,1.47,3.55,2.67,7.2,5.39,11.16,7.44,6.15,3.23,13.04,4.81,19.74,6.39,4.27,0,8.6,0,12.88,0"/><path class="b" d="M9.73,138.64c4.85,0,9.74,0,14.59,0,5.63-1.49,11.15-3.73,16.31-6.44,3.86-2.09,7.61-4.52,11.16-7.09,4.32-3.3,3.86-3.5,8.58-.42,7.57,5.7,17.63,14.21,27.47,8.79,2.82-1.6,4.48-4.64,6.87-6.73,5.83-4.54,12.43-6.87,19.74-4.72,4.48,1.03,9.06,3.72,13.73,2.41,1.66-.67,3.41-1.53,5.15-1.96,4.54-1.11,4.95-.5,8.58,2.15,3.35,2.48,6.69,5.12,10.3,7.22,5.32,3.09,11.27,5.17,17.17,6.79,4.27,0,8.6,0,12.88,0"/><path class="b" d="M9.73,133.98c4.85,0,9.74,0,14.59,0,5.52-1.22,10.83-3.73,15.45-6.98,3.55-2.49,6.85-5.44,10.3-8.07,1.06-.8,2.32-1.71,3.43-2.43.72-.47,1.68-1.06,2.58-.89,3.58,1.77,6.34,4.91,9.44,7.36,4.82,4.03,10.72,7.45,17.17,7.42,2.7,0,5.51-.74,7.73-2.31,1.63-1.25,3.21-2.88,5.15-3.66,2.49-.89,5.14-1.61,7.73-2.16,4.21-.88,8.57-1.34,12.88-1.38,3.7-.08,7.46.36,11.16.15.78-.05,1.85-.17,2.58-.49.42-.3,1.3-.94,1.72-1.26,1.57-1.16,3.35-2.35,5.15-3.12,3.08-1.94,12.37,7.31,15.45,9.18,3.69,2.71,7.79,4.95,12.02,6.7,1.67.61,3.39,1.62,5.15,1.93,4.27,0,8.6,0,12.88,0"/><path class="b" d="M9.73,129.32c4.85,0,9.74,0,14.59,0,6.53-.96,12.53-4.39,17.17-9.03,4.63-4.26,8.52-10.18,14.59-12.38,3.8,1.41,6.48,4.83,9.44,7.45,4.5,4.3,9.95,8.17,16.31,8.83,2.87.31,5.93.02,8.58-1.15,1.36-.68,2.8-1.59,4.29-1.95,2.21-.54,4.61-.48,6.87-.67,3.71-.21,7.48-.41,11.16-.96,3.45-.5,6.9-1.39,10.3-2.15,8.93-1.9,5.83.34,12.88-5.95.93-.77,2.13-1.78,3.43-1.35,3.71.81,6.62,3.61,9.44,5.98,3.01,2.63,6.11,5.32,9.44,7.55,3.22,2.19,6.77,3.98,10.3,5.61,1.63.38,3.48.11,5.15.19,2.83,0,5.75,0,8.58,0"/><path class="b" d="M9.73,124.66c4.85,0,9.74,0,14.59,0,6.63-.49,12.81-3.8,17.17-8.77,3.35-3.58,6.08-7.83,9.44-11.4.95-.99,2.23-2.05,3.43-2.71.36-.42,1.25-1.23,1.72-1.53,4.62-.63,8.1,4.24,11.16,7.02,2.59,2.6,5.38,5.2,8.58,7.03,4.59,2.66,10.32,3.61,15.45,2.1,3.01-1.12,6.32-.66,9.44-.5,4.27.22,8.63.54,12.88-.05,4.21-.53,8.11-2.41,12.02-3.92,5.15-1.73,5.42-.75,9.44-5.18,1.02-.91,2.07-2.36,3.43-2.75,1.79-.14,3.65.56,5.15,1.5,4.44,2.92,7.95,7.09,12.02,10.47,3.87,3.38,8.27,6.21,12.88,8.47,1.62.43,3.48.12,5.15.21,2.83,0,5.75,0,8.58,0"/><path class="b" d="M9.73,120c4.85,0,9.74,0,14.59,0,7.33-.21,14.19-3.9,18.89-9.45,4.7-5.17,7.86-11.94,13.73-15.96,9.43-6.82,14.77,14.29,31.76,15.11,1.97.17,4.05-.26,6.01.1,5.11.96,10.22,2.38,15.45,2.37,5.72.23,10.56-2.15,15.45-4.8,2.54-1.33,5.68-1.64,7.73-3.83,1.66-1.51,3.1-3.89,5.15-4.83,3.33-.44,6.24,1.87,8.58,3.94,3.48,3.19,6.71,6.78,10.3,9.84,3.35,2.91,7.15,5.41,11.16,7.31,1.63.41,3.48.12,5.15.2,2.83,0,5.75,0,8.58,0"/><path class="b" d="M9.73,115.34c3.41,0,6.89,0,10.3,0,2.26-.03,4.63.13,6.87-.26,6.78-1.09,13.18-4.48,18.03-9.33,3.8-3.82,6.77-8.49,10.3-12.55.66-.79,1.79-1.53,2.58-2.16.76-.7,1.74-1.71,2.58-2.33,5.8-4.25,11.22,3.1,15.45,6.39,3.9,3.37,8.12,6.6,12.88,8.67,1.61.72,3.5,1.03,5.15,1.66,7.74,3.21,17.02,5.18,24.89,1.36,2.73-1.34,5.19-3.34,7.73-5,1.57-1.08,3.59-1.66,5.15-2.76,1.58-1.08,2.96-2.74,4.29-4.1.89-.9,2-2.27,3.43-1.96,3.97.57,6.75,4.03,9.44,6.7,2.72,2.88,5.53,5.84,8.58,8.36,3.38,2.82,7.2,5.2,11.16,7.1,1.62.42,3.48.12,5.15.2,2.83,0,5.75,0,8.58,0"/><path class="b" d="M9.73,110.68c3.41,0,6.89,0,10.3,0,1.97-.05,4.07.16,6.01-.21,3.83-.68,7.56-2.03,11.16-3.48,3.9-1.59,7.79-3.49,11.16-6.05,3.7-2.85,6.93-6.38,10.3-9.59,2.39-2.7,4.17-6.47,7.73-7.83,4.92-1.43,8.86,4.05,12.02,7.03,2.92,3.03,5.95,6.14,9.44,8.5,1.55,1.09,3.41,1.9,5.15,2.62,2.2,1.05,4.52,2.11,6.87,2.77,7.82,2.31,16.66,1.63,23.18-3.6,1.97-1.44,3.93-3.14,6.01-4.43,2.32-1.38,4.3-3.47,6.01-5.53,1.04-1.08,2.04-2.75,3.43-3.41,6.21-1.33,11.56,7.12,15.45,10.99,3.1,3.42,6.48,6.76,10.3,9.37,1.61.99,3.3,2.37,5.15,2.85,4.27,0,8.6,0,12.88,0"/><path class="b" d="M9.73,106.02c5.13-.08,10.33.16,15.45-.1,3.17-.71,6.33-1.74,9.44-2.65,7.13-2.26,14.79-3.26,21.46-6.8,6.75-2.7,7.86-12.83,15.45-14.1,4.33-.04,7.39,3.83,10.3,6.53,2.4,2.39,4.9,4.91,7.73,6.8,4.03,2.39,8.3,4.65,12.88,5.79,6.88,1.76,14.39.82,20.6-2.63,2.61-1.46,5.28-3.07,7.73-4.8,2.14-1.66,4.1-3.76,6.01-5.67.97-1.3,2.74-1.75,4.29-1.72,6.09.33,10.34,6.05,14.59,9.81,3.81,3.68,8.04,7.1,12.88,9.32,1.63.41,3.48.12,5.15.2,2.83,0,5.75,0,8.58,0"/><path class="b" d="M9.73,101.36c4.85,0,9.74,0,14.59,0,2.01-.35,4.03-1.19,6.01-1.7,3.07-.89,6.27-1.6,9.44-2.03,3.11-.43,6.31-.64,9.44-.7,2.83-.08,5.79.08,8.58-.51,3.18-.79,5.03-3.81,6.87-6.26,2.39-2.99,4.93-6.37,8.58-7.86,6.08-2.05,11,5.07,15.45,8.17,3.68,2.65,7.85,4.77,12.02,6.54,8.24,3.3,17.64,2.32,25.75-.87,2.76-1.07,5.38-2.7,7.73-4.5,2.76-2.08,3.97-3.46,7.73-3.39,4.82.03,9.02,2.91,12.88,5.49,4.04,2.77,8.22,5.55,12.88,7.18,1.86.76,4.05.33,6.01.44,2.83,0,5.75,0,8.58,0"/><path class="b" d="M9.73,96.7c4.85,0,9.74,0,14.59,0,2.01-.46,4-1.43,6.01-1.92,3.06-.86,6.27-1.41,9.44-1.62,3.42-.23,6.92-.02,10.3.53,2.82.37,5.72,1.34,8.58.98,2.97-.46,4.79-3.23,6.87-5.12,3.6-3.3,7.08-7.56,12.02-8.75,4.73-.81,8.41,3.08,12.02,5.49,1.31.86,2.94,1.54,4.29,2.33,2.24,1.28,4.54,2.72,6.87,3.84,3.74,1.85,7.88,2.91,12.02,3.3,4.84.42,9.88.42,14.59-.92,3.59-1.18,6.9-3.24,10.3-4.85,4.15-1.36,8.75-.84,12.88.39,6.34,1.88,12.26,5.43,18.89,6.31,4.27,0,8.6,0,12.88,0"/><path class="b" d="M9.73,92.03c4.85,0,9.74,0,14.59,0,1.44-.32,2.89-1.15,4.29-1.58,1.92-.68,4-1.24,6.01-1.61,3.94-.73,8.07-.77,12.02-.02,1.99.36,4.06.92,6.01,1.45,1.92.52,4.01,1.14,6.01.82,1.88-.35,3.51-1.72,5.15-2.62,3.53-2.06,6.96-4.42,10.3-6.77,3.18-2.26,7.24-4.41,11.16-2.77,1.43.54,2.87,1.49,4.29,2.05,2.39.83,4.8,1.87,6.87,3.36,3.23,2.2,6.61,4.39,10.3,5.75,1.35.52,2.9,1.01,4.29,1.41,1.06.38,2.35.6,3.43.18,3.63-.82,7.45-1.46,11.16-.91,1.43.14,2.9.88,4.29,1.16,2.78-1.16,5.68-2.33,8.58-3.14,8.34-1.83,16.8.26,24.89,2.28,2.79.67,5.71,1.1,8.58.96,3.41,0,6.89,0,10.3,0"/><path class="b" d="M9.73,87.37c3.12,0,6.32,0,9.44,0,1.96-.11,4.1.25,6.01-.22,3.03-1.41,6.21-2.7,9.44-3.54,4.47-1.25,9.26-1.15,13.73.05,2.82.6,5.66,1.87,8.58,1.76,4.32-1.03,8.71-2.13,12.88-3.66,3.31-1.25,6.37-3.22,9.44-4.96,2.57-1.51,5.62-2.46,8.58-1.67,1.97.2,4.16-.03,6.01.82,3.16,1.53,5.72,4.16,8.58,6.14,3.14,2.16,6.63,4.15,10.3,5.2,4.32-1.62,9.08-3.42,13.73-2.25,1.78.43,3.39,1.66,5.15,2.15.81.23,1.81-.18,2.58-.39,1.07-.31,2.35-.67,3.43-.96,3.07-.72,6.3-1.03,9.44-1.1,6.68-.29,13.21,1.36,19.74,2.41,5.11.48,10.32.1,15.45.21"/><path class="b" d="M9.73,82.71c4.56,0,9.17,0,13.73,0,1.2.16,2.41-.56,3.43-1.07,1.08-.53,2.35-1.17,3.43-1.68,3.77-1.81,7.79-3.47,12.02-3.69,4.05-.23,8.09.74,12.02,1.63,1.97-.08,4.04.12,6.01.09,6.56.08,13.1-1.49,18.89-4.59,1.95-.95,3.96-2.1,6.01-2.82,1.05-.38,2.4-.5,3.43-.92,1.62-.62,3.35-1.67,5.15-1.43,3.93.88,6.51,4.53,9.44,7.02,3.26,3.05,7.07,5.63,11.16,7.43,3.5-1.38,7.4-2.75,11.16-1.61,1.16.28,2.28,1.2,3.43,1.49,3.09-1.02,6.26-2.07,9.44-2.73,8.03-1.18,16.21-.1,24.04,1.85,3.07.76,6.28,1.15,9.44,1.03,3.41,0,6.89,0,10.3,0"/><path class="b" d="M9.73,78.05c4.85,0,9.74,0,14.59,0,4.23-1.51,7.94-4.43,12.02-6.32,3.95-2.1,8.6-2.6,12.88-1.24,1.4.38,2.91.93,4.29,1.37,1.39.24,2.93.53,4.29.91,5.4,1.16,11.13.56,16.31-1.28,4.22-1.45,7.99-4.01,12.02-5.87,1.1-.46,2.47-.86,3.43-1.59,1.33-.92,2.7-2.21,4.29-2.66,4.42-.93,7.48,3.78,10.3,6.44,2.33,2.45,4.86,4.9,7.73,6.72,5.74,3.71,10.4,3.56,16.31.33,2.19-.84,4.61-1.35,6.87-1.97,2.2-.71,4.57-.89,6.87-.79,2.85.05,5.79.31,8.58.88,5.31.97,10.19,3.59,15.45,4.69,2.23.46,4.61.41,6.87.39,3.12,0,6.32,0,9.44,0"/><path class="b" d="M9.73,73.39c3.41,0,6.89,0,10.3,0,1.96-.12,4.19.39,6.01-.55,3.4-1.45,6.52-3.58,9.44-5.82,3.25-2.42,6.86-5.35,11.16-5.04,2.42.16,4.71,1.29,6.87,2.32,2.29.77,4.49,2.09,6.87,2.61,3.65.84,7.53.58,11.16-.23,4.57-1.01,8.83-3.15,12.88-5.44,2.24-1.37,4.94-2.16,6.87-4,3.96-3.73,7.61-2.11,11.16,1.16,2.54,2.28,4.97,4.88,7.73,6.92,4.95,3.9,11.47,4.89,17.17,2.02,2.71-1.13,5.76-1.43,8.58-2.2,2.19-.75,4.6-.4,6.87-.31,3.17.17,6.43.56,9.44,1.62,3.61,1.23,6.89,3.37,10.3,5.02,3.18,1.57,6.78,2.13,10.3,1.92,3.12,0,6.32,0,9.44,0"/><path class="b" d="M9.73,68.73c3.41,0,6.89,0,10.3,0,2.28-.04,4.72.27,6.87-.68,10.05-2.85,14.79-15.87,22.32-14.83,1.87.29,3.53,1.52,5.15,2.4,1.79.81,3.33,2.33,5.15,3.09,5.69,2.53,12.32,1.65,18.03-.38,3.91-1.39,7.53-3.59,11.16-5.57,1.54-.66,2.91-1.94,4.29-2.86,3.97-2.67,8.1.25,11.16,2.91,5.83,5.2,12.32,10.08,20.6,8.11,1.45-.3,2.94-1.02,4.29-1.6,2.26-.22,4.62-.46,6.87-.82,2.23-.62,4.6,0,6.87.06,3.44.18,7.04.14,10.3,1.38,4.74,1.71,8.27,5.68,12.88,7.63,1.04.42,2.3,1.02,3.43,1.15,1.07,0,2.36,0,3.43,0,3.12,0,6.32,0,9.44,0"/><path class="b" d="M9.73,64.07c4.27,0,8.6,0,12.88,0,2.92.11,5.91-.68,8.58-1.8,3.55-1.6,6.26-4.65,8.58-7.69,2.87-3.41,5.77-9.33,10.3-10.49,1.17-.19,2.46.29,3.43.91,1.16.68,2.55,1.49,3.43,2.53,1.71,1.61,3.81,2.98,6.01,3.82,5.52,2.09,11.79,1.52,17.17-.72,3.29-1.34,6.39-3.29,9.44-5.08,2.97-1.77,5.8-3.98,9.44-2.56,3.23,1.25,5.84,3.79,8.58,5.81,4.58,3.64,10.35,6.24,16.31,5.54,1.41-.14,2.97-.49,4.29-1.01.72-.35,1.75-.79,2.58-.72,1.37.14,2.91.27,4.29.33,1.07.08,2.38-.08,3.43.18,1.91.58,4.01.96,6.01,1.05,3.71.19,7.64-.48,11.16,1.01,2.89,1.19,5.32,3.38,7.73,5.32,1.57,1.22,3.44,2.32,5.15,3.33,1.6.51,3.49.15,5.15.25,2.83,0,5.75,0,8.58,0"/><path class="b" d="M9.73,59.41c3.41,0,6.89,0,10.3,0,4.02.08,8.16-.09,12.02-1.31,5.02-1.62,8.37-6.11,11.16-10.34,2.52-3.44,5.28-9.73,9.44-11.11,1.34.83,2.33,2.48,3.43,3.57,1.74,1.83,3.81,3.52,6.01,4.76,3.36,1.84,7.3,3.04,11.16,2.77,4.97-.73,9.59-3.11,13.73-5.86,6.09-4.18,9.67-6.32,16.31-1.49,3.95,2.68,7.63,6,12.02,7.95,3.54,1.25,7.42,1.78,11.16,1.36,1.1-.12,2.37-.5,3.43-.79,2.01-.38,4.07.41,6.01.82,1.65.37,3.46.67,5.15.77,1.89.7,4,1.11,6.01,1.14,3.99.03,8.26-1.22,12.02.68,2.86,1.33,5.15,3.73,7.73,5.49.73.51,1.69,1.37,2.58,1.59,1.37,0,2.92,0,4.29,0,2.83,0,5.75,0,8.58,0"/><path class="b" d="M9.73,54.75c7.14-.12,14.37.42,21.46-.67,8.21-.99,12.97-7.21,17.17-13.66,1.18-2.12,4.59-4.2,6.87-2.62,7.83,7.24,17,11.03,26.61,4.52,2.37-1.6,4.64-3.54,6.87-5.32,3.22-2.84,6.87-4.89,11.16-2.95,2.22.94,4.17,2.6,6.01,4.12,2.42,2.01,4.99,4.04,7.73,5.61,3.86,2.33,8.4,3.44,12.88,3.69,2.27.03,4.61-.66,6.87-.06,3.38.81,6.82,1.8,10.3,2.08,1.96.23,4.01.8,6.01.67,3.7-.02,7.51-1.44,11.16-.27,2.84.91,5.26,2.92,7.73,4.53,1.57.65,3.49.19,5.15.32,2.83,0,5.75,0,8.58,0"/><path class="b" d="M9.73,50.09c4.85,0,9.74,0,14.59,0,2.56-.28,5.19-.78,7.73-1.28,3.61-.75,7.23-1.98,10.3-4.05,1.15-.76,2.42-1.79,3.43-2.73,1.06-.64,2.35-1.34,3.43-1.94,2.3-1.17,5.33-2.97,7.73-1.09,4.97,3.41,11.1,5.6,17.17,4.65,15.72-2.15,17.16-19.31,28.33-11.06,6.38,4.71,12.93,12.27,21.46,12.16,3.21.15,6.24-1.48,9.44-.82,3.39.63,6.86,1.24,10.3,1.58,1.96.22,4.06.08,6.01.38,2.83.26,5.75-.18,8.58-.1,2.05.06,4.18.61,6.01,1.53,1.74.76,3.35,2.18,5.15,2.75,4.27,0,8.6,0,12.88,0"/><path class="b" d="M9.73,45.43c5.13-.1,10.34.21,15.45-.13,3.97-1.09,8.06-1.92,12.02-3.06,1.7-.49,3.51-1.09,5.15-1.77,1.08-.22,2.36-.4,3.43-.64,2.28-.47,4.61-1.17,6.87-1.72,1.98-.62,4.16-.44,6.01.5,7.24,3.15,15.73,3.94,23.18,1.01,3.88-1.53,7.2-4.26,10.3-6.99,3.95-3.74,7.05-5.85,12.02-2.15,6.12,4.68,12.25,10.53,20.6,9.45,2.59-.11,5.15-1.4,7.73-.58,4.52.84,9.14,1.48,13.73,1.74,1.67.1,3.48,0,5.15-.12,1.66.21,3.48.29,5.15.38,2.6.12,5.32.49,7.73,1.53,1.76.64,3.38,1.99,5.15,2.56,4.27,0,8.6,0,12.88,0"/><path class="b" d="M9.73,40.77c4.85,0,9.74,0,14.59,0,4.27-1.18,8.54-2.59,12.88-3.55,2.2-.74,4.6-.29,6.87-.34,3.42.05,6.89-.2,10.3-.42,3.76-.06,7.44,1.23,11.16,1.58,5.11.57,10.39.51,15.45-.41,3.99-.74,7.79-2.48,11.16-4.7,3.97-3.01,7.45-7.03,12.88-4.57,6.14,2.9,11.66,7.26,18.89,6.61,1.68-.08,3.5-.29,5.15-.62.77-.02,1.82.23,2.58.37,5.38.95,10.85,1.76,16.31,2.1,1.37.07,2.92.1,4.29.05,1.39-.12,2.93-.17,4.29.17,2.57.41,5.25.88,7.73,1.72,1.73.5,3.42,1.56,5.15,2,4.27,0,8.6,0,12.88,0"/><path class="b" d="M9.73,36.1c4.85,0,9.74,0,14.59,0,2.59-.61,5.14-1.73,7.73-2.4,1.65-.43,3.41-1.18,5.15-.92,6.57.48,13.17.92,19.74,1.21,7.13.53,14.31,1.05,21.46.72,4.37-.17,8.79-.88,12.88-2.47,5.44-2.6,8.62-6.94,15.45-5.33,5.67,1.36,11.21,3.95,17.17,3.52,1.97.06,4.06-.44,6.01-.18,4.85.67,9.73,1.53,14.59,2.14,3.11.39,6.31.68,9.44.74,1.37.05,2.92-.06,4.29.03.75.18,1.82.42,2.58.61,2.88.59,5.73,1.69,8.58,2.33,4.27,0,8.6,0,12.88,0"/><path class="b" d="M9.73,31.44c4.85,0,9.74,0,14.59,0,2.02-.36,4.04-1.24,6.01-1.8,1.34-.55,2.86-.72,4.29-.6,6.3.11,12.6.87,18.89,1.25,8.28.25,16.6.58,24.89.63,4.01,0,8.09-.25,12.02-1.09,2.38-.54,4.61-1.85,6.87-2.74,4.01-1.84,8.54-2.23,12.88-1.58,3.99.46,7.98,1.45,12.02,1.33,2.55.08,5.18-.13,7.73-.05,3.43.21,6.9.68,10.3,1.14,7.1,1.09,14.29,1.57,21.46,1.83,2.54.56,5.15,1.33,7.73,1.67,4.27,0,8.6,0,12.88,0"/><path class="b" d="M9.73,26.78c4.85,0,9.74,0,14.59,0,1.42-.16,2.92-.71,4.29-1.1,1.66-.24,3.48-.13,5.15-.18,6.29-.06,12.6.44,18.89.74,8.29.08,16.61.29,24.89.45,4.28.02,8.64.04,12.88-.61,3.14-.59,6.29-1.51,9.44-2.02,3.38-.57,6.89-.65,10.3-.46,2.84.09,5.74.59,8.58.57,6.57.13,13.18-.18,19.74.3,8.57.66,17.16,1.39,25.75,1.59,1.68.16,3.46.64,5.15.72,4.27,0,8.6,0,12.88,0"/><path class="b" d="M9.73,22.12c11.28.13,22.21-.39,33.48-.22,8.29.12,16.61.1,24.89.16,7.43,0,14.9.23,22.32-.2,4.84-.32,9.74-.69,14.59-.6,4.85.07,9.74.53,14.59.41,7.43.07,14.89-.07,22.32,0,13.44.16,26.9.52,40.35.45"/><path class="b" d="M9.73,17.46h172.54"/><path class="b" d="M9.73,12.8h172.54"/><path class="b" d="M9.73,8.14h172.54"/></svg>