<?xml version="1.0" encoding="UTF-8"?><svg id="a" xmlns="http://www.w3.org/2000/svg" width="1920" height="2400" viewBox="0 0 192 240"><defs><style>.b{fill:none;stroke:#fff;stroke-miterlimit:10;stroke-width:.3px;}.c{stroke-width:0px;}</style></defs><rect class="c" width="192" height="240"/><path class="b" d="M9.73,231.86h172.54"/><path class="b" d="M9.73,227.2h172.54"/><path class="b" d="M9.73,222.54c28.61-.06,57.23.17,85.84-.18,28.89.38,57.8.1,86.7.18"/><path class="b" d="M9.73,217.88c4.56,0,9.17,0,13.73,0,.83.09,1.84-.2,2.58-.56,1.97-.03,4.04-.07,6.01-.09,12.01-.04,24.04-.23,36.05-.12,2.83-.19,5.74-.39,8.58-.21,3.99.21,8.02.55,12.02.56,2.84-.08,5.74-.5,8.58-.52,5.72-.12,11.46.49,17.17.7,14.3.43,28.62-.55,42.92-.39,2.25,0,4.61.03,6.87.07,1.07.02,2.36.05,3.43.06.36.19,1.31.44,1.72.49,4.27,0,8.6,0,12.88,0"/><path class="b" d="M9.73,213.22c4.85,0,9.74,0,14.59,0,1.49-.33,2.93-1.32,4.29-1.98.74-.47,1.74-.42,2.58-.44,1.38-.04,2.91-.07,4.29-.05,7.14.03,14.32.38,21.46.04,3.71-.16,7.44-.81,11.16-.64,2.85-.39,5.8-.07,8.58.59,3.65.82,7.38,1.94,11.16,1.86,3.42-.23,6.86-1.01,10.3-.95,7.73.05,15.43,1.46,23.18,1.11,12.01-.5,24-2.41,36.05-1.7,2.26.1,4.62.25,6.87.44,1.65.61,3.39,1.53,5.15,1.74,4.27,0,8.6,0,12.88,0"/><path class="b" d="M9.73,208.56c3.12,0,6.32,0,9.44,0,1.96-.11,4.11.27,6.01-.24,1.67-.86,3.47-1.78,5.15-2.61.77-.37,1.76-.91,2.58-1.17.45,0,1.27.03,1.72.04,7.14.14,14.32.64,21.46.38,3.75-.02,7.42-1.18,11.16-1.33,2.25-.24,4.62-.52,6.87-.05,3.58.62,6.81,2.58,10.3,3.51,2.51.68,5.21.09,7.73-.3,2.24-.37,4.6-.52,6.87-.47,8,.34,16.05,1.73,24.04.5,9.12-1.27,18.23-3.32,27.47-3.28,2.26.03,4.62.23,6.87.51,1.38.27,3.08.16,4.29.96,2.4,1.41,4.97,2.99,7.73,3.53,4.27,0,8.6,0,12.88,0"/><path class="b" d="M9.73,203.9c3.12,0,6.32,0,9.44,0,1.96-.11,4.11.27,6.01-.23,3.11-1.58,6.29-3.23,9.44-4.73,1.04-.64,2.25-.75,3.43-.6,1.08.05,2.35.11,3.43.17,3.99.2,8.03.44,12.02.49,3.47.14,6.93-.42,10.3-1.15,1.37-.23,2.91-.39,4.29-.41,2.24-.38,4.64-.4,6.87.05,2.33.45,4.66,1.33,6.87,2.18,1.89.77,3.93,1.54,6.01,1.4,3.14-.11,6.29-.97,9.44-.92,5.43-.02,10.88.69,16.31.57,4.88.1,9.78-.49,14.59-1.25,3.42-.51,6.92-.96,10.3-1.71,5.09-1.05,10.21-2.53,15.45-2.45,1.4.13,3.17-.17,4.29.83,2.94,2.57,6.02,5.18,9.44,7.09,1.75,1.12,4.05.52,6.01.66,2.83,0,5.75,0,8.58,0"/><path class="b" d="M9.73,199.23c4.85,0,9.74,0,14.59,0,1.79-.49,3.48-1.71,5.15-2.5,3.09-1.64,6.26-3.3,9.44-4.76.76-.33,1.78-.19,2.58-.14,1.08.07,2.36.16,3.43.24,3.7.25,7.45.73,11.16.78,2.86-.02,5.73-.81,8.58-1.01,1.67-.2,3.48-.06,5.15-.22,2.85-.26,5.8.06,8.58.68,2.86.52,5.66,1.82,8.58,1.96,2.57.05,5.17-.64,7.73-.84,2.83-.25,5.76-.14,8.58.07,5.43.31,10.87,1.27,16.31,1.23,3.13-.03,6.35-.1,9.44-.67,1.94-.36,4.06-.31,6.01-.6,6.57-.72,12.56-3.78,18.89-5.41,1.23.3,2.41,1.29,3.43,1.99,2.05,1.53,4.06,3.34,6.01,4.99,1.89,1.43,3.73,3.45,6.01,4.21,4.27,0,8.6,0,12.88,0"/><path class="b" d="M9.73,194.57c3.12,0,6.32,0,9.44,0,1.96-.12,4.11.28,6.01-.24,3.75-1.95,7.46-4.11,11.16-6.15,1.37-.75,2.9-1.57,4.29-2.26.76-.36,1.73-.91,2.58-1.02.45.04,1.27.13,1.72.18,3.44.36,6.88,1.2,10.3,1.65,2.26.05,4.61-.24,6.87-.29,2.84-.15,5.75-.06,8.58.06,1.67-.1,3.48-.09,5.15.02,3.75.17,7.46,1.08,11.16,1.63,2.26.17,4.61-.2,6.87-.34,2.54-.16,5.19-.1,7.73.14,5.18.41,10.29,1.71,15.45,2.29,2.83.24,5.75.43,8.58.25,1.99-.07,4.03-.65,6.01-.76,5.26.17,10.61-.38,15.45-2.58,1.09-.47,2.38-1.08,3.43-1.63,2.91-.5,6.03.54,8.58,1.9,2.43,1.35,4.68,3.2,6.87,4.91,1.03.73,2.17,1.91,3.43,2.22,4.27,0,8.6,0,12.88,0"/><path class="b" d="M9.73,189.91c3.41,0,6.89,0,10.3,0,1.97-.13,4.25.44,6.01-.66,4.15-2.08,8.1-4.64,12.02-7.11,1.91-1.19,3.96-2.4,6.01-3.32,1.7-.83,2.51-.94,4.29-.3,2.01.53,4,1.52,6.01,2.01,2.54.19,5.18.34,7.73.48,3.41.18,6.89.38,10.3.68,1.97-.06,4.05-.03,6.01.08,3.45.12,6.89.85,10.3,1.31,3.99.29,8.06.32,12.02.92,6.32.83,12.5,2.71,18.89,3.11,2.54.2,5.2.21,7.73-.15,2.23-.46,4.6-.84,6.87-.4,3.1.45,6.36.44,9.44-.13,1.41-.23,2.91-.79,4.29-1.11,1.37-.22,2.92-.5,4.29-.7,3.46-.58,7.15-.33,10.3,1.31,1.44.71,2.96,1.68,4.29,2.57.71.48,1.71,1.26,2.58,1.43,4.27,0,8.6,0,12.88,0"/><path class="b" d="M9.73,185.25c3.12,0,6.32,0,9.44,0,1.96-.1,4.09.23,6.01-.2,3.98-1.68,7.71-4.02,11.16-6.61,3.48-2.5,6.91-5.54,11.16-6.61,2.89-1.03,4.26,1.72,6.87,2.12,4.25.78,8.59,1.37,12.88,1.93,2.55.33,5.18.67,7.73,1.04,2.26.15,4.62.31,6.87.63,2.87.36,5.74,1.15,8.58,1.68,6,1.06,12.05,2.14,18.03,3.33,4.79.9,9.71,1.57,14.59,1.41,1.38-.06,2.93-.22,4.29-.47,1.07-.19,2.33-.59,3.43-.55,2.01.16,4.01,1.04,6.01,1.28,2.81.47,5.76.42,8.58.05,5.44-.56,10.79-3.08,16.31-2.12,2.42.44,4.74,1.62,6.87,2.84,1.61.49,3.49.14,5.15.24,2.83,0,5.75,0,8.58,0"/><path class="b" d="M9.73,180.59c3.7,0,7.46,0,11.16,0,1.08,0,2.35,0,3.43,0,2.09-.39,4.13-1.46,6.01-2.41,3.48-1.9,6.53-4.61,9.44-7.27,3.16-2.73,6.64-6.42,11.16-6.12,7.75,1.95,15.61,3.83,23.18,6.47,4.84,1.7,9.76,3.28,14.59,5,3.92,1.14,8,1.88,12.02,2.58,6.51,1.03,13.14,1.95,19.74,1.69,2.87-.13,5.81-.58,8.58-1.33,1.48-.17,2.87,1.04,4.29,1.36,4.77-1.46,9.79-1.2,14.59-.04,3.73-.45,7.38-1.92,11.16-2.14,1.98-.16,4.1.05,6.01.64,1.43.37,2.85,1.28,4.29,1.57,4.27,0,8.6,0,12.88,0"/><path class="b" d="M9.73,175.93c4.56,0,9.17,0,13.73,0,5.35-.17,10.54-2.61,14.59-6.02,4-3.16,7.22-7.66,12.02-9.68,1.36-.59,2.88-.27,4.29-.35,1.49-1.06,3.44-.66,5.15-.69,2.86.06,5.83.31,8.58,1.13,7.98,2.25,13.28,9.34,20.6,12.8,4.08,1.51,8.57,1.84,12.88,2.19,6,.36,12.09.24,18.03-.76,2.85-.37,5.74-1.09,8.58-1.5,1.75.55,3.36,1.85,5.15,2.36.4.15,1.3.41,1.72.52.75-.18,1.81-.38,2.58-.48,1.37-.16,2.92-.15,4.29-.05,1.38.08,2.91.42,4.29.48,3.13-.57,6.3-1.38,9.44-1.86,2.82-.44,5.81-.5,8.58.22,1.73.35,3.42,1.36,5.15,1.69,4.27,0,8.6,0,12.88,0"/><path class="b" d="M9.73,171.27c5.42-.02,10.89.03,16.31-.02,5.31.05,10.48-1.86,14.59-5.21,3.82-2.75,7.18-6.94,12.02-7.79.45-.04,1.27-.04,1.72,0,1.09-.28,2.31-.79,3.43-.94,10.4-2.65,15.96-5.6,24.89,2.65,2.59,2.34,5.06,5.23,8.58,6.12,7.84,2.01,16.02,1.72,24.04,1.34,2.55-.12,5.19-.28,7.73-.51,1.67-.12,3.53-.59,5.15.05,2.17,1.15,4.43,2.42,6.87,2.92,6.28,1.48,12.64-.47,18.89-1.21,2.83-.34,5.8-.35,8.58.31,2.36.42,4.54,1.83,6.87,2.3,4.27,0,8.6,0,12.88,0"/><path class="b" d="M9.73,166.61c6-.08,12.04.22,18.03-.24,1.68-.12,3.48.12,5.15.18,2.72-.46,5.37-1.58,7.73-2.98,3.69-2.1,6.99-5.21,11.16-6.36.76-.18,1.79-.28,2.58-.24,2.01-.34,4.08-1.04,6.01-1.71,3.19-1.15,6.31-2.68,9.44-3.98,3.76-1.67,8.31-2.54,12.02-.27,2.87,1.51,4.85,4.38,7.73,5.86,8.71,3.21,18.27,3.46,27.47,3.65,1.96.01,4.05-.02,6.01-.13,1.38-.1,2.94-.26,4.29.14,1.74.54,3.39,1.67,5.15,2.18,5.27,1.6,10.92,1.02,16.31.43,8.47-.95,12.04-.19,19.74,3.3,1.64.32,3.48.09,5.15.16,2.83,0,5.75,0,8.58,0"/><path class="b" d="M9.73,161.95c4.85,0,9.74,0,14.59,0,1.68-.14,3.47-.43,5.15-.45,1.68-.04,3.5.1,5.15.43,1.43-.22,2.95-.74,4.29-1.26,3.81-1.49,7.25-3.97,11.16-5.21,1.63-.6,3.47-.4,5.15-.6,4.12-.99,8.19-2.43,12.02-4.25,6.18-2.71,13.28-8.37,19.74-3.25,1.91,1.69,4.41,2.46,6.87,2.93,2.55.64,5.17,1.37,7.73,1.98,5.34,1.27,10.82,2.16,16.31,2.42,1.67.07,3.48.08,5.15-.03,1.38-.12,2.93-.28,4.29.07,1.71.45,3.41,1.38,5.15,1.74,1.93.5,4.04.5,6.01.56,7.13.56,14.5-1.04,21.46,1.17,2.97.85,5.72,2.49,8.58,3.61,1.64.34,3.48.1,5.15.17,2.83,0,5.75,0,8.58,0"/><path class="b" d="M9.73,157.29c4.85,0,9.74,0,14.59,0,1.96-.17,4.03-.44,6.01-.36,1.39-.04,2.91.4,4.29.25,4.19-.78,8.04-2.83,12.02-4.27,1.62-.57,3.43-1.01,5.15-1.05.78-.01,1.8.11,2.58.16.44-.13,1.27-.36,1.72-.46,6.27-1.13,12.31-3.49,18.03-6.26,4.82-2.35,10.17-5.73,15.45-2.63,1.9.64,4.08.47,6.01,1.02,7.46,1.85,14.58,5.29,22.32,5.98,1.67.16,3.48.2,5.15.05,1.37-.15,2.91-.44,4.29-.18,1.97.4,3.98,1.21,6.01,1.35,1.37.14,2.92.14,4.29.02,1.37.03,2.92.19,4.29.2,5.74.09,11.65,0,17.17,1.82,2.97.92,5.77,2.5,8.58,3.79,1.8.96,4.05.44,6.01.56,2.83,0,5.75,0,8.58,0"/><path class="b" d="M9.73,152.63c5.71-.06,11.46.13,17.17-.12,1.98-.04,4.06.26,6.01-.21,4.44-.73,8.57-2.75,12.88-3.97,1.64-.44,3.45-.72,5.15-.63,1.39.16,2.93.37,4.29-.05,8.27-1.16,16.43-3.55,24.04-6.99,3.46-1.55,7.3-3.38,11.16-2.29,1.38.03,2.9-.36,4.29-.21,2.02.13,4.11.71,6.01,1.39,5.95,2.18,11.64,5.5,18.03,6.21,1.37.15,2.92.16,4.29,0,1.37-.22,2.9-.57,4.29-.39,1.97.29,4,.91,6.01.93,2.26.12,4.6-.37,6.87-.13,5.73.12,11.59.07,17.17,1.59,3.92.97,7.54,2.93,11.16,4.67,1.63.41,3.48.12,5.15.2,2.83,0,5.75,0,8.58,0"/><path class="b" d="M9.73,147.97c5.99-.11,12.05.26,18.03-.21,4.46-.48,8.73-2.08,12.88-3.72,2.99-1.15,6.19-2.27,9.44-2.05,1.98.28,4.05.2,6.01-.2,2.86-.12,5.76-.61,8.58-1.01,6.35-1.09,12.77-2.23,18.89-4.28,2.18-.72,4.56-1.3,6.87-1.04,1.39-.14,2.87-.73,4.29-.69,3.65-.02,7.09,1.61,10.3,3.17,6.16,3.13,12.67,6.57,19.74,4.49,2.58-.34,5.16.67,7.73.75,2.56.18,5.17-.39,7.73-.32,6.01-.18,12.13-.4,18.03.97,3.6.75,7.01,2.32,10.3,3.92,1.63.41,3.48.12,5.15.2,2.83,0,5.75,0,8.58,0"/><path class="b" d="M9.73,143.3c15.73-.18,17.39,1.62,31.76-6.52,3.53-1.97,7.07-3.26,11.16-3.09,1.1-.04,2.34-.46,3.43-.55,1.96.12,4.05.1,6.01-.02,4.65-.26,9.28-1.21,13.73-2.54,4.73-1.37,9.59-3.25,14.59-2.41,4.7-1.09,7.78-.35,12.02,1.85,5.76,2.9,11.26,7.58,18.03,7.42,1.4-.02,2.9-.55,4.29-.66,2.02-.16,4.06.55,6.01.93,2.85.55,5.75-.24,8.58-.4,5.45-.44,10.99-.02,16.31,1.26,2.58.6,5.24,1.32,7.73,2.24,2.01.68,3.95,1.97,6.01,2.48,4.27,0,8.6,0,12.88,0"/><path class="b" d="M9.73,138.64c5.13-.07,10.33.15,15.45-.09,3.92-.8,7.7-2.38,11.16-4.35,5.06-2.7,9.62-7.01,15.45-7.91,1.44.01,2.9-.6,4.29-.79,1.08.1,2.35.18,3.43.19,3.76.06,7.58-.57,11.16-1.7,6.26-1.77,12.19-5.77,18.89-5.38,1.42.3,2.9-.45,4.29-.59,2.91-.36,5.89.41,8.58,1.46,5.93,2.29,11.49,6.28,18.03,6.56,1.08.03,2.38-.1,3.43-.35,1.04-.33,2.33-.62,3.43-.43,1.41.24,2.87.96,4.29,1.19,1.94.36,4.05.36,6.01.21,4.35.98,8.67,2.47,12.88,3.97,4.32,1.61,8.65,3.36,12.88,5.2,2.03.76,3.92,2.24,6.01,2.81,4.27,0,8.6,0,12.88,0"/><path class="b" d="M9.73,133.98c5.13-.1,10.34.2,15.45-.12,5.12-1.4,10.02-3.66,14.59-6.34,3.92-2.21,7.69-4.98,12.02-6.35,1.39-.34,2.94-.61,4.29-1.09,2.87-.03,5.82-.43,8.58-1.2,6-1.63,11.41-4.89,17.17-7.13,2.97-1.14,6.25-1.97,9.44-1.48,2.21-.56,4.59-.93,6.87-.58,5.44.74,10.36,3.46,15.45,5.32,3,1.11,6.22,2.01,9.44,2.03,1.08,0,2.37-.11,3.43-.32,1.09-.33,2.4-.52,3.43.1,1.62.6,3.44,1,5.15,1.23,1.43.17,3.07.15,4.29,1.05,7.27,3.92,14.97,7.05,22.32,10.8,2.3,1.17,4.67,2.47,6.87,3.83,1.6.52,3.49.15,5.15.26,2.83,0,5.75,0,8.58,0"/><path class="b" d="M9.73,129.32c4.85,0,9.74,0,14.59,0,5.92-1.64,11.66-4.22,17.17-6.94,3.96-1.97,7.79-4.42,12.02-5.78,1.77-.64,3.34-.87,5.15-1.22,2.02-.47,4.1-1.2,6.01-2,8.07-3.28,15.84-8.91,24.89-8.6,1.09.05,2.35.37,3.43.36,1.96-.24,4.06-.19,6.01.16,5.01.91,9.74,3.02,14.59,4.48,3.33,1.03,6.82,1.81,10.3,2.06,2.54.35,5.32-.4,7.73.65,1.92.71,4.01,1.3,6.01,1.72,2.55,1.41,5.04,3.14,7.73,4.31,4.7,2.25,9.82,3.6,14.59,5.7,2.98,1.31,5.88,3,8.58,4.81,1.58.58,3.49.17,5.15.29,2.83,0,5.75,0,8.58,0"/><path class="b" d="M9.73,124.66c4.85,0,9.74,0,14.59,0,2.03-.45,4.03-1.44,6.01-2.06,3.45-1.22,6.96-2.48,10.3-3.97,4.36-1.88,8.47-4.43,12.88-6.21,1.34-.58,2.84-1.07,4.29-1.28,1.73-.48,3.52-1.22,5.15-1.97,8.75-4.31,17.5-8.87,27.47-5.7,3.85,1.48,8.09,1.43,12.02,2.64,3.96,1.09,7.96,2.32,12.02,3.01,3.95.71,8.02.94,12.02,1.29,1.38.14,2.96.25,4.29.68,2.29.77,4.56,1.93,6.87,2.68,2.95,1.76,6.08,3.42,9.44,4.23,5.97,1.57,12.51,1.19,18.03,4.3.77.41,1.84,1.03,2.58,1.51.62.53,1.74.99,2.57.85,3.99,0,8.03,0,12.02,0"/><path class="b" d="M9.73,120c4.85,0,9.74,0,14.59,0,6.06-1.87,12.24-3.74,18.03-6.4,3.77-1.74,7.34-4.04,11.16-5.68,1.08-.4,2.27-1.08,3.43-1.21,1.44-.33,2.95-1,4.29-1.61,6.48-3.18,13.22-6.28,20.6-4.5,4.57.88,8.59,3.42,12.88,5.07,3.32,1.08,6.92,1.21,10.3,2.08,5.9,1.43,11.99,1.75,18.03,1.95,2.59.19,5.33.53,7.73,1.58,3.9,1.86,7.8,4.01,12.02,5.06,6.2,1.49,12.63-.01,18.89.75,1.42.22,2.98.69,4.29,1.28,1.1.45,2.27,1.35,3.43,1.63,4.27,0,8.6,0,12.88,0"/><path class="b" d="M9.73,115.34c3.12,0,6.32,0,9.44,0,1.96-.08,4.07.19,6.01-.16,3.7-1.29,7.52-2.43,11.16-3.9,3.27-1.31,6.45-3.02,9.44-4.87,3.53-2.13,7.14-4.57,11.16-5.63,8.22-3.1,14.54-5.98,23.18-1.89,3.01,1.38,5.85,3.28,8.58,5.13,2.39,1.61,4.88,3.41,7.73,4.1,2.22.54,4.61.15,6.87.28,3.99.13,8.04.17,12.02-.2,4.88-.47,10.05-.74,14.59,1.41,8.77,5.15,15.15,4.67,24.89,3.76,3.11-.27,6.36-.63,9.44.06,1.78.31,3.44,1.42,5.15,1.9,4.27,0,8.6,0,12.88,0"/><path class="b" d="M9.73,110.68c4.85,0,9.74,0,14.59,0,4.7-1.25,9.41-2.94,13.73-5.18,4.64-2.43,8.55-6.07,12.88-8.97,1.88-1.16,3.99-2.22,6.01-3.09,9.83-4.62,16.67-2.09,24.89,4.12,2.85,2.11,5.67,4.44,8.58,6.47,2.68,2.01,5.26,2.85,8.58,2.05,4.57-.56,9.24-.84,13.73-1.89,4.47-1.02,9.32-2.09,13.73-.26,2.19.73,3.97,2.43,6.01,3.44,6.13,2.96,13.18,2,19.74,1.69,3.69-.18,7.47-.57,11.16-.13,2.08.16,4.05,1.19,6.01,1.76,4.27,0,8.6,0,12.88,0"/><path class="b" d="M9.73,106.02c4.85,0,9.74,0,14.59,0,4.74-.99,9.5-2.59,13.73-4.96,4.38-2.49,8.05-6.09,12.02-9.15,1.29-.98,2.81-1.95,4.29-2.61.78-.5,1.71-1.34,2.58-1.7,11.5-6.31,19.01,1.16,27.47,8.31,1.62,1.36,3.4,2.81,5.15,4,1.25.8,2.7,1.98,4.29,1.66,5.7-1.22,11.58-1.72,17.17-3.45,4.42-1.31,9.34-2.53,13.73-.49,2.74,1.19,4.91,3.55,7.73,4.6,3.24,1.26,6.86,1.46,10.3,1.62,4.27.08,8.6,0,12.88.16,2.84.1,5.77.21,8.58.68,1.72.21,3.47.97,5.15,1.32,4.27,0,8.6,0,12.88,0"/><path class="b" d="M9.73,101.36c4.85,0,9.74,0,14.59,0,3.2-.43,6.41-1.35,9.44-2.44,6.22-2.22,11.16-6.8,16.31-10.75,1.31-.98,2.84-1.96,4.29-2.7.98-.94,2.18-1.92,3.43-2.45,12.79-7.1,19.78,2.67,29.19,9.77,1.3.85,2.71,2.13,4.29,2.34,1.67-.34,3.47-.76,5.15-1.05,4.92-.8,9.83-1.89,14.59-3.35,4.14-1.22,8.75-2.08,12.88-.36,2.95,1.28,5.52,3.5,8.58,4.53,1.62.57,3.45.94,5.15,1.13,5.07,1.2,10.31,1.71,15.45,2.47,5.46.76,10.96,1.57,16.31,2.86,4.27,0,8.6,0,12.88,0"/><path class="b" d="M9.73,96.7c5.13-.06,10.32.11,15.45-.07,5.7-.82,11.36-2.46,16.31-5.46,4.12-2.4,7.92-5.42,12.02-7.84.88-.47,1.76-1.5,2.58-2.07,1.65-.83,3.44-1.72,5.15-2.43,7.99-3.52,13.85-1.71,20.6,3.27,2.51,1.64,4.88,3.87,7.73,4.88,1.4.33,2.92-.24,4.29-.48,1.96-.38,4.04-.69,6.01-1.01,3.75-.59,7.5-1.53,11.16-2.5,4.43-1.13,9.19-2.25,13.73-1.12,2.04.54,4.07,1.51,6.01,2.32,2.19.89,4.56,1.62,6.87,2.16,4.68,2.38,9.57,4.45,14.59,6,5.62,1.77,11.4,3.23,17.17,4.36,4.27,0,8.6,0,12.88,0"/><path class="b" d="M9.73,92.03c4.85,0,9.74,0,14.59,0,8.15-.65,16.05-3.29,23.18-7.24,2.97-1.54,5.82-3.47,8.58-5.33,4.29-1.62,8.47-3.69,12.88-5,7.03-2.25,12.58-.43,18.89,2.8,2.17,1.14,4.61.15,6.87-.11,2.82-.37,5.75-.52,8.58-.82,5.49-.55,10.9-1.87,16.31-2.89,5.16-1.04,9.46-1.58,14.59.11,1.08.32,2.37.76,3.43,1.15,1.18.79,2.35,2.02,3.43,2.93,2.42,2.12,5.04,4.21,7.73,5.99,6.2,4.13,13.31,6.95,20.6,8.41,4.27,0,8.6,0,12.88,0"/><path class="b" d="M9.73,87.37c5.13-.04,10.32.09,15.45-.05,6.97-.8,13.98-1.97,20.6-4.36,3.35-1.09,6.26-3.23,9.44-4.67,3.14-1.01,6.43-1.83,9.44-3.22,6.24-2.54,12.11-6.47,18.89-7.41,2.27-.37,4.61.09,6.87.21,2.24-.44,4.56-1.04,6.87-.95,5.43.11,10.87,1.04,16.31.99,4.58,0,9.27-.14,13.73-1.24,2.53-.75,5.03-2.02,7.73-2.03.76-.03,1.82.02,2.58.13.5.24,1.34.93,1.72,1.33,2.92,2.81,5.69,5.92,8.58,8.75,5.88,5.94,13.24,10.69,21.46,12.51,4.27,0,8.6,0,12.88,0"/><path class="b" d="M9.73,82.71c4.85,0,9.74,0,14.59,0,3.12-.33,6.31-.77,9.44-1.04,4.01-.42,8.12-.77,12.02-1.86,2.36-.63,4.59-1.91,6.87-2.77,3.04-1.05,6.4-1.06,9.44-2.16,4.62-1.43,8.76-4.08,12.88-6.55,5.48-3.32,10.88-7.13,17.17-8.75,2.31-1.3,5.1-1.81,7.73-1.44,7.24,1.2,13.5,5.63,20.6,7.37,3.04.75,6.4,1.23,9.44.29,1.76-.91,3.41-2.31,5.15-3.26,2.08-1.14,2.8-1.89,5.15-.53,2.53,1.32,4.79,3.31,6.87,5.24,6.46,6.32,13.34,13.04,22.32,15.43,4.27,0,8.6,0,12.88,0"/><path class="b" d="M9.73,78.05c4.85,0,9.74,0,14.59,0,2.54-.34,5.16-.84,7.73-1,7.99-.59,11.55-.36,18.89-4.13,2.95-1.35,6.36-1.09,9.44-1.98,6.25-1.75,12.31-4.3,18.03-7.36,4.96-2.67,9.55-6.07,14.59-8.58,4.4-2.65,8.11-3,12.88-.97,4.67,1.96,8.98,4.83,13.73,6.61,2.72,1.04,5.66,1.78,8.58,1.8,1.88.15,3.71-.78,5.15-1.91,1.06-.76,2.35-1.65,3.43-2.38.32-.31,1.25-.72,1.72-.72,3.2.29,6.12,2.04,8.58,4,7.11,5.86,13.41,13.48,22.32,16.62,4.27,0,8.6,0,12.88,0"/><path class="b" d="M9.73,73.39c4.85,0,9.74,0,14.59,0,2.56-.49,5.14-1.36,7.73-1.8,5.86-1.06,11.91-1.85,17.17-4.84,3.56-1.86,6.57-.93,10.3-.98,4.02-.2,8.06-.87,12.02-1.57,5.89-.99,11.52-3.37,16.31-6.95,3.9-2.65,7.42-6.27,12.02-7.66,4.75-1.33,9.5.92,13.73,2.89,3.58,1.68,7.27,3.39,11.16,4.22,5.73,1.3,7.31.14,12.02-2.89.63-.55,1.75-.85,2.58-.66,1.42.14,2.97.53,4.29,1.06,5.35,2.28,9.42,6.72,13.73,10.49,2.43,2.18,5.04,4.37,7.73,6.23,1.33.84,2.75,2.05,4.29,2.45,4.27,0,8.6,0,12.88,0"/><path class="b" d="M9.73,68.73c4.85,0,9.74,0,14.59,0,2.64-.76,5.14-2.28,7.73-3.24,3.62-1.53,7.42-2.75,11.16-3.95,2.64-.76,5.18-2.02,7.73-2.99,1.68-.54,3.51-.07,5.15.39,3.24,1.34,6.85,1.68,10.3,2.08,4.84.49,9.9.81,14.59-.71,3.85-1.21,7.23-3.64,10.3-6.19,2.68-2.2,5.32-4.75,8.58-6.06,6.22-2.81,12.85.1,18.89,1.99,3.59,1.09,7.39,1.99,11.16,1.79,2.72-.32,5.31-1.59,7.73-2.8,8.18-.06,14.77,6,20.6,11.06,2.22,1.95,4.55,3.99,6.87,5.81,1.34.94,2.71,2.34,4.29,2.83,4.27,0,8.6,0,12.88,0"/><path class="b" d="M9.73,64.07c4.27,0,8.6,0,12.88,0,.8,0,1.84.08,2.58-.28,1.1-.68,2.36-1.51,3.43-2.22,2.52-1.68,5.11-3.47,7.73-5.01,3.7-2.23,7.81-3.86,12.02-4.82,1.66-.29,3.45-1.12,5.15-.86,1.85.55,3.48,1.79,5.15,2.71,2.16,1.13,4.54,2.03,6.87,2.76,8.28,2.66,16.03,2.82,23.18-2.71,2.6-1.87,5.06-4.11,7.73-5.87,6.68-4.21,13.23-3.63,20.6-2.12,3.66.66,7.44,1.23,11.16.96,1.96-.23,4.05-.39,6.01-.67,1.4-.14,2.89-.97,4.29-.79,11.81,2.91,19.78,10.94,29.19,17.98.59.58,1.72,1.1,2.58.94,1.07,0,2.36,0,3.43,0,2.83,0,5.75,0,8.58,0"/><path class="b" d="M9.73,59.41c4.85,0,9.74,0,14.59,0,1.24-.34,2.38-1.41,3.43-2.11,1.4-1.02,2.93-2.21,4.29-3.29,5.15-3.98,10.38-8.99,17.17-9.62,1.08-.09,2.36-.06,3.43.07,2.14,1.28,3.89,3.31,6.01,4.62,5.54,3.5,12.23,6.21,18.89,5.24,8.37-.87,13.59-8.48,21.46-10.58,3.31-.97,6.86-1.45,10.3-1.24,1.98.26,4.04.75,6.01,1.09,1.37.11,2.92.21,4.29.27,2.26.09,4.63.07,6.87-.24,1.39-.15,2.89-.68,4.29-.77,1.38.04,2.91.38,4.29.37,1.97.06,4.05-.14,6.01-.3,9.35,4.34,18.04,9.94,26.61,15.62.66.54,1.71,1,2.58.86,1.07,0,2.36,0,3.43,0,2.83,0,5.75,0,8.58,0"/><path class="b" d="M9.73,54.75c3.12,0,6.32,0,9.44,0,1.95-.12,4.11.28,6.01-.24,4.25-2.16,8.26-4.87,12.02-7.79,3.65-2.69,7.35-6.07,12.02-6.64,3.5,1.63,6.27,4.51,9.44,6.63,4.75,3.19,10.64,4.51,16.31,4.05,8.95-.5,11.95-6.26,18.89-10.03,4.84-2.05,10.38-1.65,15.45-.76,2.84.47,5.73,1.17,8.58,1.56,1.96.07,4.05.05,6.01-.15,1.4-.15,2.95-.44,4.29-.86,1.32-.52,2.89-.93,4.29-.48,3.62.95,7.44,1.22,11.16,1.52.9-.04,1.83.73,2.58,1.15,1.07.64,2.35,1.39,3.43,2.01,3.34,1.91,6.84,3.71,10.3,5.4,2.85,1.4,5.8,2.82,8.58,4.35,1.61.49,3.49.14,5.15.24,2.83,0,5.75,0,8.58,0"/><path class="b" d="M9.73,50.09c4.85,0,9.74,0,14.59,0,3.96-1.03,7.7-3.1,11.16-5.26,3.41-2.16,6.59-4.89,10.3-6.53,5.18.43,9.03,4.45,13.73,6.19,5.89,2.21,17.09,3.29,23.18,1.58,3.79-1.07,6.87-3.75,10.3-5.56,2.92-1.46,6.2-2.39,9.44-2.78,5.48-.56,10.94.86,16.31,1.74,3.12.29,6.39.21,9.44-.54,1.34-.44,2.87-.86,4.29-.67,2.29.41,4.59,1.25,6.87,1.74,2.81.71,5.74,1.22,8.58,1.77,3.53,1.93,7.36,3.37,11.16,4.65,3.15,1.07,6.39,2.16,9.44,3.48,1.63.39,3.48.11,5.15.19,2.83,0,5.75,0,8.58,0"/><path class="b" d="M9.73,45.43c4.85,0,9.74,0,14.59,0,4.6-.91,9.01-2.99,12.88-5.62,1.1-.75,2.36-1.68,3.43-2.46.76-.5,1.63-1.37,2.58-1.44,1.97-.25,4.09-.09,6.01.45,2.69.69,5.12,2.29,7.73,3.2,3.61,1.12,7.42,1.76,11.16,2.22,5.68.42,11.54,1.57,17.17.16,2.61-.63,5.12-1.87,7.73-2.49,4.81-.7,9.71-1.45,14.59-1.28,5.73.09,11.42,1.52,17.17,1.14,1.99-.05,4.05-.49,6.01-.84,1.96-.28,4.08-.12,6.01.31,3.09.57,6.3.92,9.44,1.08,1.95.22,4.12-.18,6.01.4,3.41.97,6.92,1.84,10.3,2.9,2.3.62,4.56,1.74,6.87,2.29,4.27,0,8.6,0,12.88,0"/><path class="b" d="M9.73,40.77c4.56,0,9.17,0,13.73,0,4.19-.18,8.43-1.8,12.02-3.92,1.12-.69,2.39-1.6,3.43-2.4,3.2-1.33,6.87-1.94,10.3-1.3,2.05.33,4.04,1.28,6.01,1.88,2.54.43,5.18.79,7.73,1.19,2.82.47,5.74.84,8.58,1.15,3.11.38,6.3.82,9.44.77,3.46,0,6.89-.89,10.3-1.36,3.97.17,8.03.35,12.02.37,5.99.13,12.03.42,18.03.32,3.71-.09,7.46-.52,11.16-.79,2.26-.14,4.61.1,6.87.17,2.84.06,5.76-.12,8.58-.33,2.26-.13,4.61-.48,6.87-.51,1.98.49,4.07,1.09,6.01,1.72,2.58.84,5.21,1.83,7.73,2.86,1.63.37,3.48.1,5.15.18,2.83,0,5.75,0,8.58,0"/><path class="b" d="M9.73,36.1c3.41,0,6.89,0,10.3,0,2.86.06,5.8.05,8.58-.72,2.76-.53,5.22-1.92,7.73-3.08,3.08-.93,6.22-2.06,9.44-2.37,1.98-.19,4.08-.02,6.01.43,1.38.37,2.85.83,4.29.69,8.92.14,17.67,2.81,26.61,2.6,2.26-.05,4.61-.28,6.87-.35,1.69.05,3.47.55,5.15.7,5.11.6,10.31.82,15.45.54,6.86-.35,13.74-.98,20.6-1.22,3.12-.13,6.32.1,9.44-.09,4-.27,8.03-.85,12.02-1.18,1.96-.11,4.05-.44,6.01-.29,1.38.5,2.93,1.09,4.29,1.65,2.27.82,4.52,2.12,6.87,2.7,4.27,0,8.6,0,12.88,0"/><path class="b" d="M9.73,31.44c3.41,0,6.89,0,10.3,0,1.97-.04,4.06.13,6.01-.17,2.32-.26,4.63-.96,6.87-1.56,3.16-.49,6.32-1.34,9.44-1.99,3.95-.93,8.04-.86,12.02-.2,3.11-.35,6.33-.37,9.44-.04,4.85.6,9.72,1.34,14.59,1.75,3.12.27,6.32.16,9.44.31,3.42.34,6.86,1.11,10.3,1.27,4.27.32,8.61.07,12.88-.31,5.42-.43,10.88-.91,16.31-1.14,3.7-.16,7.46.09,11.16-.09,6.85-.51,13.72-1.24,20.6-1.18.76,0,1.83-.05,2.58.14.4.19,1.31.58,1.72.77,1.67.74,3.47,1.55,5.15,2.27,1.63.37,3.48.1,5.15.18,2.83,0,5.75,0,8.58,0"/><path class="b" d="M9.73,26.78c4.85,0,9.74,0,14.59,0,1.39-.08,2.92-.36,4.29-.6,1.67-.18,3.48-.2,5.15-.36,3.71-.29,7.46-.85,11.16-1.21,3.12-.32,6.32-.33,9.44-.08,5.12-.63,10.34-.63,15.45.05,3.41.29,6.89.51,10.3.73,3.13.16,6.33.2,9.44.58,7.4,1.07,14.89.69,22.32.22,4.57-.16,9.17-.51,13.73-.72,3.41-.15,6.89.01,10.3-.05,8.29-.34,16.6-.63,24.89-.5,1.37.06,2.95-.13,4.29.19,1.36.58,2.81,1.51,4.29,1.74,4.27,0,8.6,0,12.88,0"/><path class="b" d="M9.73,22.12c4.56,0,9.17,0,13.73,0,3.12-.19,6.32-.18,9.44-.2,10.87-.16,21.75-.29,32.62-.41,6,.15,12.03.05,18.03.12,6,.1,12.03.52,18.03.39,20.88-.19,41.78-.37,62.66-.31,1.07,0,2.36.02,3.43.04.74.18,1.8.45,2.58.38,3.99,0,8.03,0,12.02,0"/><path class="b" d="M9.73,17.46h172.54"/><path class="b" d="M9.73,12.8h172.54"/><path class="b" d="M9.73,8.14h172.54"/></svg>