<?xml version="1.0" encoding="UTF-8"?><svg id="a" xmlns="http://www.w3.org/2000/svg" width="1920" height="2400" viewBox="0 0 192 240"><defs><style>.b{fill:none;stroke:#fff;stroke-miterlimit:10;stroke-width:.3px;}.c{stroke-width:0px;}</style></defs><rect class="c" width="192" height="240"/><path class="b" d="M9.73,231.86h172.54"/><path class="b" d="M9.73,227.2h172.54"/><path class="b" d="M9.73,222.54c17.74,0,35.49,0,53.22,0,5.71,0,11.46,0,17.17,0,4.56-.18,9.17-.49,13.73-.48,4.28-.04,8.6.3,12.88.48,6.57,0,13.17,0,19.74,0,18.59,0,37.2,0,55.8,0"/><path class="b" d="M9.73,217.88c11.16.01,22.33.03,33.48-.53,8.29-.47,16.61,0,24.89.16,6.01-.21,12.03-.76,18.03-1.16,1.97-.12,4.04-.32,6.01-.48,1.97.06,4.04.15,6.01.23,5.14.26,10.33.34,15.45.79,6.82.74,13.74.79,20.6.8,10.58-.08,21.18-.16,31.76-.33.4-.01,1.31-.04,1.72-.05.36.2,1.3.48,1.72.56,4.27,0,8.6,0,12.88,0"/><path class="b" d="M9.73,213.22c6-.04,12.03.12,18.03-.12,1.09-.04,2.35.08,3.43.1,1.68-.15,3.48-.33,5.15-.52,4.32-.44,8.6-1.4,12.88-2.09,1.37-.22,2.91-.12,4.29-.19,2.25-.27,4.62-.29,6.87-.02,2.55.29,5.17.8,7.73,1.04,2.26.03,4.61.03,6.87-.03,5.13-.23,10.33-.2,15.45-.57,1.97-.39,4.04.08,6.01.29,2.25.25,4.61.43,6.87.49,5.14.22,10.31-.49,15.45-.35,4.03-.13,7.99,1.15,12.02,1.09,5.42.14,10.89-.05,16.31-.12,4.56-.04,9.18-.03,13.73-.27,1.07-.04,2.36-.11,3.43-.18,1.72.27,3.45,1.11,5.15,1.45,4.27,0,8.6,0,12.88,0"/><path class="b" d="M9.73,208.56c5.42-.08,10.9.18,16.31-.12,2.29-.23,4.63-.71,6.87-1.23,1.38-.14,2.92-.31,4.29-.52,4.12-.51,8.04-2.09,12.02-3.19,1.36-.36,2.9-.4,4.29-.33,1.07-.22,2.34-.47,3.43-.53,3.52-.32,6.98.81,10.3,1.83,2.79.64,5.74.95,8.58,1.27,4.83.33,9.76,1.16,14.59.58,1.39-.41,2.91-.03,4.29.17,1.66.22,3.47.38,5.15.47,3.41.17,6.91.11,10.3-.29,3.41-.43,6.87-1.06,10.3-1.33,2.89-.18,5.71,1.03,8.58,1.13,7.71.47,15.47.18,23.18-.29,2.83-.14,5.75-.21,8.58-.34,2.6.64,5.26,1.47,7.73,2.53,1.63.4,3.48.11,5.15.2,2.83,0,5.75,0,8.58,0"/><path class="b" d="M9.73,203.9c5.13-.09,10.34.19,15.45-.12,3.69-.92,7.48-1.66,11.16-2.63,1.7-.13,3.51-.43,5.15-.9,4.14-1,7.69-4.13,12.02-4.34,1.15-.12,2.31-.92,3.43-1.17,1.35-.37,2.92-.42,4.29-.13,2.76.55,5.16,2.27,7.73,3.31,4.93,1.99,10.08,3.84,15.45,4.06,2.29.18,4.62-.33,6.87-.63,3.1.44,6.31.69,9.44.68,3.42,0,6.92-.19,10.3-.75,3.43-.54,6.86-1.49,10.3-1.97,2.28-.21,4.59.63,6.87.65,6.29.16,12.6-.29,18.88-.5,2.54-.09,5.18-.12,7.73-.11.75,0,1.82,0,2.58,0,1.1.3,2.36.87,3.43,1.26,2.55.99,5.25,1.89,7.73,3.07,1.62.43,3.48.12,5.15.21,2.83,0,5.75,0,8.58,0"/><path class="b" d="M9.73,199.23c4.85,0,9.74,0,14.59,0,3.37-.84,6.84-1.58,10.3-1.99,2.59-.39,5.2-1.16,7.73-1.84,4.23-1.23,7.57-4.9,12.02-5.41,2.97-2.01,5.73-4.05,9.44-2.44,1.83.77,3.56,2.07,5.15,3.25,5.86,3.71,11.67,7.11,18.89,5.63,2.24-.51,4.6-.41,6.87-.28,2.54.06,5.18.04,7.73-.04,4.01-.11,8.07-.48,12.02-1.24,2.29-.32,4.59-1.07,6.87-1.41,1.96-.31,4.04.18,6.01.1,5.71-.44,11.43-1.31,17.17-1.35,3.12-.07,6.32.04,9.44.21,1.43.51,2.91,1.4,4.29,2.03,3.35,1.64,6.91,3,10.3,4.57,1.62.42,3.48.12,5.15.21,2.83,0,5.75,0,8.58,0"/><path class="b" d="M9.73,194.57c4.85,0,9.74,0,14.59,0,1.96-.36,4.01-.92,6.01-1.05,4.01-.41,8.32-.12,12.02-1.98,3.05-1.23,5.79-3.17,8.58-4.86,1.32-.89,2.95-1.02,4.29-1.73,2.06-2.06,4.59-4.5,7.73-4.32,3.44.34,5.85,3.23,8.58,5.01,6.25,4.54,10.37,6.09,18.03,4.05,5.64-1.03,11.46-.68,17.17-.67,3.12,0,6.34-.06,9.44-.43,3.09-.58,6.29-1.14,9.44-.84,2.3.08,4.63-.61,6.87-1.03,2.81-.55,5.73-.98,8.58-1.19,3.12-.23,6.32-.21,9.44,0,1.15.38,2.36,1.21,3.43,1.78,4.97,2.7,10.08,5.5,15.45,7.27,4.27,0,8.6,0,12.88,0"/><path class="b" d="M9.73,189.91c4.85,0,9.74,0,14.59,0,1.96-.28,4.02-.67,6.01-.7,3.71-.17,7.6.17,11.16-1.07,3.76-1.4,6.68-4.49,10.3-6.18.74-.35,1.76-.67,2.58-.77.95-.48,1.82-1.65,2.58-2.36.99-.96,2.23-2.02,3.43-2.69,5.9-3.31,10.42,3.68,15.45,5.69,3.14,1.65,6.88,2.2,10.3,1.17,2.31-.59,4.55-1.7,6.87-2.27,6.84-1.82,13.8.47,20.6,1.34,2.83.08,5.75-.05,8.58.01,1.68,0,3.48.29,5.15.26,2.88-.33,5.71-1.43,8.58-1.85,3.66-.68,7.44-1.02,11.16-1.03,2.09.62,4.05,1.96,6.01,2.91,3.09,1.64,6.27,3.33,9.44,4.81,2.22.95,4.5,2.22,6.87,2.73,4.27,0,8.6,0,12.88,0"/><path class="b" d="M9.73,185.25c4.85,0,9.74,0,14.59,0,1.96-.22,4.03-.49,6.01-.51,4.02-.12,8.27.04,12.02-1.65,2.18-.96,4.21-2.5,6.01-4.04,1.58-1.56,3.81-2.44,6.01-2.56,12.95-14.24,15.79,2.43,29.19-.45,5.81-1.24,10.03-6.55,16.31-6.14,3.62.13,7.04,1.72,10.3,3.16,3.03,1.15,6.29,1.85,9.44,2.59,11.52,2.44,6.23,1.92,17.17-.15,2.52-.32,5.19-1.03,7.73-.79,1.69.59,3.5,1.3,5.15,2,5.78,2.42,11.33,5.47,17.17,7.77,1.84.95,4,.79,6.01.78,3.12,0,6.32,0,9.44,0"/><path class="b" d="M9.73,180.59c5.13-.06,10.33.13,15.45-.08,3.97-.68,8.09-.64,12.02-1.53,4.54-.94,8.3-3.85,12.02-6.45,1.01-.7,2.25-1.47,3.43-1.82.57.07,1.3-.28,1.72-.64,2.86-2.3,6.54-4.13,10.3-3.57,4.45.71,8.36,3.5,12.88,3.98,4.97.52,9.97-1.85,13.73-4.96,3.34-2.76,7.43-5.83,12.02-4.98,1.75.33,3.48,1.21,5.15,1.82,6.91,3.27,13.21,8.02,20.6,10.22,3.35-.94,6.86-1.28,10.3-1.7,1.7-.37,3.5.35,5.15.67,2.58.61,5.22,1.37,7.73,2.25,3.79,1.32,7.49,3.06,11.16,4.68,2.19.83,4.46,2.2,6.87,2.13,3.99,0,8.03,0,12.02,0"/><path class="b" d="M9.73,175.93c3.41,0,6.89,0,10.3,0,1.97-.07,4.09.22,6.01-.31,4.95-1.04,10.23-1.61,14.59-4.38,3.48-2.08,6.19-5.29,9.44-7.67.98-.76,2.4-.99,3.43-1.62.74-.6,1.66-1.49,2.58-1.8,7.04-.37,12.99,4.39,19.74,5.54,4.62.75,9.62.06,13.73-2.21,3.95-2.66,6.9-6.79,11.16-9.04,6.62-3.81,12.65,2.77,17.17,6.94,2.47,2.33,5.05,4.74,7.73,6.83,1.02.74,2.17,1.84,3.43,2.1.41-.05,1.3-.17,1.72-.24,3.45-.44,6.79-1.86,10.3-1.71,4.62-.15,9.34.3,13.73,1.81,4.99,1.53,9.51,4.58,14.59,5.76,4.27,0,8.6,0,12.88,0"/><path class="b" d="M9.73,171.27c4.85,0,9.74,0,14.59,0,5.62-1.52,11.58-2.92,16.31-6.5,4.64-3.3,7.51-8.58,12.02-11.99,1.17-.75,2.06-2.31,3.43-2.73,1.9.16,3.64,1.33,5.15,2.4,1.99,1.47,4,3.15,6.01,4.6,5.82,4.36,13.33,6.68,20.6,5.9,3.83-.39,6.27-3.65,8.58-6.37,2.91-3.14,5.77-7.45,10.3-8.13,5.25-.12,8.94,6.17,12.02,9.73,1.87,2.38,3.89,4.88,6.01,7.04,2.22,2.29,3.86,2.52,6.87,1.76,2-.41,4.08-1,6.01-1.66,1.65-.38,3.47-.56,5.15-.75,4.3-.46,8.75-.15,12.88,1.21,4.73,1.38,8.97,4.31,13.73,5.49,4.27,0,8.6,0,12.88,0"/><path class="b" d="M9.73,166.61c4.85,0,9.74,0,14.59,0,2.9-.83,5.77-2.13,8.58-3.21,11.8-4.62,15.69-14.38,23.18-23.31,4.06-.91,7.81,5.37,10.3,7.96,2.3,2.72,4.84,5.43,7.73,7.53,4.44,3.14,9.93,5.5,15.45,5.14,4.08-.26,6.37-4.15,8.58-7.08,2.81-3.48,5.75-8.85,10.3-10.06,4.81-.5,7.92,5.8,10.3,9.16,2.5,3.46,4.38,8.52,8.58,10.16,1.65.5,3.51-.02,5.15-.33,1.7-.38,3.51-.92,5.15-1.49,1.64-.4,3.47-.61,5.15-.82,4.28-.51,8.72-.38,12.88.84,2.95.84,5.82,2.17,8.58,3.47,1.65.7,3.37,1.73,5.15,2.04,4.27,0,8.6,0,12.88,0"/><path class="b" d="M9.73,161.95c3.41,0,6.89,0,10.3,0,1.97-.12,4.22.41,6.01-.61,4.32-1.93,8.85-3.63,12.88-6.14,8.01-4.83,12.97-13.17,17.17-21.26,6.88-8.35,12.45,13.31,24.04,19.92,4.1,2.43,10.41,4.78,14.59,1.44,2.41-2.07,4.09-5.06,6.01-7.56,2.27-3.01,4.48-6.46,7.73-8.52,7.96-4.21,11.96,13.81,17.17,17.35,1.66,1.38,3.97,1.47,6.01,1.12,2-.27,4.08-.78,6.01-1.34,3.09-.51,6.31-.75,9.44-.84,4.69-.12,9.44.77,13.73,2.67,1.7.72,3.49,1.61,5.15,2.42,1.32.6,2.78,1.52,4.29,1.36,3.99,0,8.03,0,12.02,0"/><path class="b" d="M9.73,157.29c3.12,0,6.32,0,9.44,0,1.96-.11,4.1.25,6.01-.22,3.64-1.72,7.47-3.2,11.16-4.8,6.94-2.84,13.37-7,17.17-13.65,1.73-2.93,3.15-6.36,5.15-9.13,5.07-6.88,10.09,4.48,12.88,8.1,2.64,3.95,5.54,8.01,9.44,10.81,3.73,2.59,9.53,4.75,13.73,2.13,2.1-1.35,3.61-3.64,5.15-5.55,2.9-3.55,5.61-7.6,9.44-10.23,8.23-4.89,11.58,11.28,16.31,15.27,3.15,3.16,8.09,2.07,12.02,1.37,2.54-.21,5.18-.27,7.73-.4,5.23-.25,10.61.2,15.45,2.32,1.71.72,3.5,1.64,5.15,2.49,1.05.5,2.26,1.3,3.43,1.47,4.27,0,8.6,0,12.88,0"/><path class="b" d="M9.73,152.63c4.85,0,9.74,0,14.59,0,1.74-.4,3.45-1.37,5.15-1.93,2.79-1.04,5.71-1.94,8.58-2.73,15.63-3.77,15.19-6.6,22.32-19.67,7.06-11.1,12.41,9.48,22.32,14.93,2.79,1.68,6.18,2.55,9.44,2.26,2.38-.4,4.44-2.06,6.01-3.81,3.97-3.95,9-10.95,14.59-12.11,8.79-.39,9.49,13.95,17.17,16.2,2.76.89,5.75.54,8.58.35,4.85.2,9.76-.4,14.59.21,3.59.41,7.12,1.62,10.3,3.31,1.08.57,2.37,1.27,3.43,1.87.98.58,2.24,1.28,3.43,1.12,3.99,0,8.03,0,12.02,0"/><path class="b" d="M9.73,147.97c4.85,0,9.74,0,14.59,0,1.72-.33,3.45-1.15,5.15-1.59,3.07-.91,6.28-1.63,9.44-2.12,4.28-.77,8.92-.69,12.88-2.69,5.36-3.09,6.67-9.91,10.3-14.53,7.44-9.98,12,8.01,24.04,11.15,2.13,1.08,4.41,2.51,6.87,2.55,4.29-.44,7.33-4.46,10.3-7.22,3.3-3.07,6.93-8.69,12.02-7.86,5.95,1.14,8.23,7.6,12.02,11.56,1.55,1.6,3.84,2.45,6.01,2.75,1.67.28,3.48-.02,5.15,0,5.72.39,11.58.01,17.17,1.53,3.01.77,5.91,2.17,8.58,3.74,1.9.91,3.81,2.9,6.01,2.75,3.99,0,8.03,0,12.02,0"/><path class="b" d="M9.73,143.3c4.85,0,9.74,0,14.59,0,1.73-.38,3.45-1.31,5.15-1.82,2.5-.86,5.13-1.57,7.73-2.05,2.53-.48,5.17-.76,7.73-1.01,2.6-.28,5.39-.55,7.73-1.83,5.17-3.14,6.09-10.94,12.02-13.19,6.45-1.99,13.79,12.44,24.89,14.53,5.08,1.2,9.81-2.62,13.73-5.36,4.37-3.12,7.86-7.71,12.88-9.84,4.16-1.59,7.84,1.92,10.3,4.89.68.86,1.67,2.03,2.58,2.66,1.01.57,2.31,1.09,3.43,1.38,2.57.74,5.19.23,7.73,1.17,5.11,1.27,10.43,1.85,15.45,3.46,3,.93,5.93,2.33,8.58,4.01,1.08.68,2.36,1.53,3.43,2.22.62.51,1.75.91,2.57.79,3.99,0,8.03,0,12.02,0"/><path class="b" d="M9.73,138.64c4.56,0,9.17,0,13.73,0,1.53.16,2.94-.87,4.29-1.43,1.66-.76,3.45-1.55,5.15-2.21,4.39-1.77,9.06-2.86,13.73-3.56,2.71-.44,5.64-1.06,7.73-2.97,5.16-7.66,8.93-12.58,17.17-4.73,4.66,4.24,9.72,9.05,16.31,9.63,8.58.14,16.83-3.5,24.04-7.9,4.09-2.4,8.78-5.84,13.73-4.06,1.85.59,3.42,2.03,5.15,2.84,1.62.55,3.45.85,5.15,1.02.77.07,1.84.05,2.58.35,7.37,2.93,15.22,4.75,22.32,8.37,2.63,1.29,5.2,2.91,7.73,4.4,1.6.51,3.49.15,5.15.25,2.83,0,5.75,0,8.58,0"/><path class="b" d="M9.73,133.98c4.85,0,9.74,0,14.59,0,1.5-.37,2.92-1.42,4.29-2.1,1.98-1.1,4.04-2.3,6.01-3.42,3.01-1.7,6.14-3.39,9.44-4.45,2.21-.73,4.62-1.12,6.87-1.71,2.33-.56,3.15-1.3,4.29-3.34,1.23-1.78,3.14-3.29,5.15-4.07,8.57-2.87,14.43,14.27,27.47,12.61,1.07-.12,2.35-.34,3.43-.31,1.66.23,3.47.31,5.15.24,4.04-.18,8.09-.91,12.02-1.86,3.19-.77,6.37-1.83,9.44-2.97,3.03-1.09,6.18-2.35,9.44-2.41,1.68,0,3.47.41,5.15.35,1.39-.04,2.92-.36,4.29-.58,1.1-.34,2.39.16,3.43.51,1.08.36,2.37.83,3.43,1.25,5.88,2.41,11.38,5.73,17.17,8.35,2.86,1.22,5.62,2.99,8.58,3.91,4.27,0,8.6,0,12.88,0"/><path class="b" d="M9.73,129.32c3.12,0,6.32,0,9.44,0,1.95-.12,4.11.28,6.01-.24,5.34-2.68,10.09-6.42,14.59-10.32,2.77-2.3,5.82-4.68,9.44-5.35,1.36-.31,2.95-.19,4.29-.58.81-.92,1.68-2.33,2.58-3.17,3.35-2.33,7.14-1.83,10.3.53,5.21,3.72,9.59,9.53,16.31,10.46,2.54.37,5.19-.36,7.73.02,1.4.32,2.87,1.01,4.29,1.25,4.79.89,9.75.56,14.59.32,3.44-.22,6.94-.58,10.3-1.36,3.75-.9,7.44-2.22,11.16-3.23,2.45-.76,4.59-2.41,6.87-3.52,1.09-.25,2.39.14,3.43.47,3.16,1.14,5.9,3.32,8.58,5.27,2.69,2,5.56,3.95,8.58,5.42,3.56,1.66,7.34,3.13,11.16,4.04,4.27,0,8.6,0,12.88,0"/><path class="b" d="M9.73,124.66c3.12,0,6.32,0,9.44,0,1.96-.1,4.1.24,6.01-.21,3.3-1.45,6.66-3.1,9.44-5.43,2.94-2.43,5.38-5.55,7.73-8.54,2.71-3.3,6.23-8.5,11.16-6.68.97-.55,1.69-1.9,2.58-2.56.45-.16,1.25-.43,1.72-.5,8.31-1.14,14.36,9.7,22.32,11.75,5.1,1.58,8.01-1.32,12.88,2.14,5.03,2.47,10.84,2.44,16.31,2.73,7.37.37,13.94-.01,20.6-3.56,2.73-1.41,4.6-4.07,6.87-6.04,1.77-1.84,4.41-.1,6.01,1.15,4.15,3.55,7.39,8.24,12.02,11.24,4.29,2.92,9.56,3.78,14.59,4.49,4.27,0,8.6,0,12.88,0"/><path class="b" d="M9.73,120c3.41,0,6.89,0,10.3,0,1.97-.09,4.14.3,6.01-.43,3.89-1.23,7.99-2.49,11.16-5.18,3.31-2.77,5.61-6.68,7.73-10.38,2.01-3.06,4.86-10.47,9.44-8.91.47-.34,1.33-1.14,1.72-1.57.44-.17,1.25-.43,1.72-.48,5.65-.4,10.91,5.48,15.45,8.33,3.04,2.08,6.55,3.84,10.3,3.93,2.01.17,4.02-.75,6.01-.62,1.62.21,2.89,1.62,4.29,2.34,1.84,1.03,3.96,1.76,6.01,2.23,4.21.96,8.59,1.18,12.88,1.58,6.08.84,10.94.56,16.31-2.72,3.87-2.04,5.15-6.82,8.58-9.33,3.54-.62,7.47,7.4,9.44,9.92,3.08,4.66,7.09,9.46,12.88,10.5,7.37,1.08,14.89.7,22.32.77"/><path class="b" d="M9.73,115.34c4.85,0,9.74,0,14.59,0,3.15-.77,6.33-1.86,9.44-2.8,10.16-2.91,12.37-11.84,18.03-19.36,1.04-1.38,2.82-2.05,4.29-2.82,1.71-1.27,3.79-2.51,6.01-1.97,2.53.71,4.75,2.42,6.87,3.91,2.95,2.13,6.01,4.33,9.44,5.62,2.98,1.13,6.37,1.44,9.44.53,1.12-.27,2.29-1.06,3.43-1.22,5.81,3.19,11.85,6,18.03,8.41,7.04,2.87,13.02,4.49,19.74-.21,3.73-2.73,4.63-7.91,6.87-11.73.63-1.06,1.38-2.83,2.58-3.37l.86.06c2.02,1.4,3.1,4.17,4.29,6.24,1.65,3.24,3.31,6.82,5.15,9.95,3.89,6.59,7.59,9.4,15.45,8.71,5.99-.02,12.03.1,18.03.05"/><path class="b" d="M9.73,110.68c3.41,0,6.89,0,10.3,0,1.97-.1,4.16.34,6.01-.5,5.63-2.24,12.17-2.51,17.17-6.18,5.32-3.78,7.46-11.24,13.73-13.75,1.95-1.54,4.25-3.12,6.87-2.74,4.76.77,8.53,4.28,12.88,6.14,2.67,1.24,5.63,2.12,8.58,2.23,1.39.05,2.94-.09,4.29-.42,1.09-.21,2.3-1.04,3.43-.7,5.57,2.17,10.95,4.91,16.31,7.55,7.53,3.77,12.96,5.1,20.6.55,2.26-2.54,3.39-6.21,5.15-9.1.93-1.47,1.84-3.65,3.43-4.5,4.15-.52,7.44,7.99,9.44,10.96,3.02,5.36,6.84,10.84,13.73,10.37,2.84-.1,5.75,0,8.58.1,3.99,0,8.03,0,12.02,0"/><path class="b" d="M9.73,106.02c3.12,0,6.32,0,9.44,0,1.96-.1,4.1.24,6.01-.21,2.73-1.22,5.67-2.1,8.58-2.73,2.85-.63,5.86-1.05,8.58-2.15,4.2-1.63,7.12-5.3,10.3-8.32,1.76-1.69,4.07-2.77,6.01-4.2,6.57-4.99,13.14.04,19.74,2.08,2.75.89,5.69,1.49,8.58,1.53,2.01.12,4.05-.49,6.01-.77,5.61.25,10.57,3.49,15.45,5.95,4.16,2.25,8.97,4.15,13.73,2.88,1.4-.33,2.93-.86,4.29-1.32.86-.25,2-.57,2.58-1.32,2.12-2.59,6.2-9.83,9.44-10.21,4.47,1.34,7.29,6.75,10.3,10.07,2.7,3.28,6.01,6.56,10.3,7.51,3.38.64,6.9.72,10.3,1.23,4.27,0,8.6,0,12.88,0"/><path class="b" d="M9.73,101.36c3.7,0,7.46,0,11.16,0,1.08,0,2.35,0,3.43,0,1.44-.37,2.87-1.29,4.29-1.74,5.22-2.09,11.13-1.54,16.31-3.71,3.22-1.38,5.84-3.91,8.58-6.02,3.56-2.59,7.51-5.31,12.02-5.72,4.96-.35,9.77,1.49,14.59,2.35,2.8.54,5.72.98,8.58.97,1.99.03,4.03-.53,6.01-.59,2.98-.12,5.92.94,8.58,2.19,9.49,4.76,11.65,6.16,22.32,3.23,4.13-2.07,7.24-6.24,12.02-7,1.91.3,3.61,1.73,5.15,2.82,4.92,3.84,9.43,8.62,15.45,10.72,3.61,1.16,7.46,1.73,11.16,2.5,4.27,0,8.6,0,12.88,0"/><path class="b" d="M9.73,96.7c3.12,0,6.32,0,9.44,0,1.08,0,2.35,0,3.43,0,.8,0,1.83.08,2.58-.27,6.2-3.76,11.43-2.96,18.03-4.24,4.64-1.01,8.35-4.22,12.02-7.03,2.07-1.34,4.55-2.26,6.87-3.08,8.69-2.71,17.78.2,26.61.47,2.59.18,5.17-.64,7.73-.82,7.72.07,12.97,6.06,21.46,4.96,2.54-.33,5.24-.21,7.73-.9,3.1-.84,6.22-2.01,9.44-2.27,1.08-.06,2.4-.29,3.43.12,5.28,2.48,10.14,5.86,15.45,8.28,4.07,1.96,8.55,2.95,12.88,4.15,2.16.87,4.59.62,6.87.64,2.83,0,5.75,0,8.58,0"/><path class="b" d="M9.73,92.03c3.12,0,6.32,0,9.44,0,1.08,0,2.35,0,3.43,0,.8,0,1.84.08,2.58-.3,2.08-1.34,4.45-2.43,6.87-2.98,3.08-.71,6.33-.65,9.44-1.08,2.7-.35,5.41-1.28,7.73-2.74,2.39-1.43,4.36-3.64,6.87-4.87,10.8-4.21,19.58-4.15,30.9-3.1,2.57.21,5.25.1,7.73-.68,4.98-1.3,9.86,1.13,14.59,2.37,3.33.95,6.87.95,10.3.99,5.98.62,12.04.7,18.03,1.31,5.14,2.11,10.15,4.71,15.45,6.43,5.05,1.78,10.37,2.81,15.45,4.49,4.53.35,9.18.03,13.73.14"/><path class="b" d="M9.73,87.37c4.85,0,9.74,0,14.59,0,2.03-.83,3.86-2.46,6.01-3.18,5.21-2.12,11.21-1.16,16.31-3.63,3.24-1.36,5.47-4.33,8.58-5.89,1.58-.74,3.49-.95,5.15-1.46,3.93-1.03,7.97-1.91,12.02-2.35,5.12-.62,10.32-.25,15.45-.01,1.68.05,3.51-.03,5.15-.4,2.21-.61,4.56-1.17,6.87-.93,3.78.3,7.45,1.59,11.16,2.28,3.66.76,7.5.77,11.16,1.54,2.31.56,4.61,1.5,6.87,2.22,2.79.9,5.73,1.62,8.58,2.29,3.89,1.85,7.86,3.75,12.02,4.95,6.18,1.92,12.7,2.56,18.89,4.46,4.54.3,9.18.03,13.73.11"/><path class="b" d="M9.73,82.71c4.85,0,9.74,0,14.59,0,1.22-.34,2.36-1.37,3.43-1.99,1.34-.85,2.86-1.73,4.29-2.41,3.27-1.59,6.87-2.46,10.3-3.58,2.43-.82,4.85-2.04,6.87-3.63,1.49-1.1,2.77-2.77,4.29-3.82.76-.4,1.74-1,2.58-1.23,1.39-.09,2.92-.31,4.29-.54,3.11-.5,6.29-1.17,9.44-1.32,4.61.22,9.16,1.56,13.73,2.16,3.1.45,6.38.77,9.44-.06,1.98-.5,4-1.32,6.01-1.74,3.07-.68,6.31-.88,9.44-.64,2.29.14,4.62.69,6.87,1.14,2.84.57,5.79,1.05,8.58,1.85,2.07.58,4.06,1.7,6.01,2.58,2.52,1.16,5.16,2.3,7.73,3.36,3.27,2.15,6.62,4.39,10.3,5.79,4.62,1.92,9.69,2.27,14.59,2.9,2.26.37,4.59,1,6.87,1.2,4.27,0,8.6,0,12.88,0"/><path class="b" d="M9.73,78.05c3.12,0,6.32,0,9.44,0,1.96-.11,4.1.26,6.01-.22,3.16-1.55,6.24-3.41,9.44-4.87,3.35-1.57,6.95-2.75,10.3-4.33,2.87-1.33,5.55-3.26,7.73-5.56.94-.78,2.24-1.44,3.43-1.69,1.08.06,2.35.11,3.43.14,2.84.09,5.76.26,8.58.56,6.85.67,13.69,2.29,20.6,2.1,2.9-.13,5.74-1.16,8.58-1.63,7.38-1.25,14.8-3,22.32-2.88,2.89.08,5.86.59,8.58,1.57,1.69.37,3.54.66,5.15,1.33,1.42.54,2.96,1.27,4.29,1.99.82.62,1.82,1.62,2.58,2.33,2.38,2.22,4.95,4.42,7.73,6.13,3.83,2.5,8.39,3.43,12.88,3.86,2.53.43,5.16.88,7.73,1.12,4.56.11,9.17.01,13.73.04"/><path class="b" d="M9.73,73.39c4.85,0,9.74,0,14.59,0,3-.52,5.86-1.97,8.58-3.28,3.8-1.94,7.54-4.15,11.16-6.4,2.33-1.46,4.72-3.05,6.87-4.77,1.48-1.27,3.14-2.75,5.15-3.02.77.11,1.81.27,2.58.39,9.71,1.47,19.29,4.72,29.19,4.43,1.72-.06,3.51-.56,5.15-1.03,1.64-.4,3.46-.59,5.15-.57,5.77-.11,11.46-1.45,17.17-2.13,3.39-.4,6.91-.58,10.3-.07,1.4.19,2.92.63,4.29.95.77.09,1.81-.19,2.58-.29,1.68-.19,3.52.03,5.15.47,2.15,1.3,4.03,3.23,6.01,4.76,4.73,4.05,10.2,7.33,16.31,8.76,3.04.95,6.25,1.66,9.44,1.79,4.27,0,8.6,0,12.88,0"/><path class="b" d="M9.73,68.73c3.41,0,6.89,0,10.3,0,1.97-.05,4.06.14,6.01-.18,11.44-1.39,18.44-11.5,27.47-17.46.75-.44,1.7-1.08,2.58-1.18,2.01.29,4.08.88,6.01,1.52,3.98,1.33,7.95,2.87,12.02,3.92,3.9,1,7.98,1.72,12.02,1.62,1.4-.04,2.95-.24,4.29-.63,1.88-.76,3.97-1.3,6.01-.96,6.56,1.33,13.21-.03,19.74-.82,2.82-.31,5.76-.43,8.58-.08,2.01.17,4.03.97,6.01,1.27,1.14.1,2.37-.51,3.43-.79,1.05-.28,2.35-.48,3.43-.56,1.79.38,3.51,1.47,5.15,2.24,2.85,1.47,5.74,3.06,8.58,4.53,2.79,1.47,5.73,2.86,8.58,4.2,2.71,1.36,5.6,2.63,8.58,3.26,4.55.24,9.18.02,13.73.09"/><path class="b" d="M9.73,64.07c5.71-.04,11.46.09,17.17-.07,5.63-.14,10.78-3,14.59-7.02,3.44-3.36,6.29-7.51,10.3-10.23,1.45-.76,2.71-2.24,4.29-2.72,2.38.17,4.72,1.1,6.87,2.09,6.95,3.49,14.36,6.87,22.32,6.57,2.35-.04,4.77-.58,6.87-1.63,2.01-.65,4.1.37,6.01.94,1.92.55,4.02.89,6.01,1.01,5.2.39,10.32-1.06,15.45-1.61,3.48-.39,7.07.18,10.3,1.52,2,.74,4.05-.51,6.01-.84,2.23-.83,4.62.04,6.87.37,4.08.72,8.2,1.68,12.02,3.32,3.32,1.39,6.5,3.27,9.44,5.34,1.05.72,2.34,1.58,3.43,2.24.64.49,1.76.85,2.57.74,3.99,0,8.03,0,12.02,0"/><path class="b" d="M9.73,59.41c5.71-.04,11.46.09,17.17-.08,6.01.61,11.64-2.34,15.45-6.86,3.19-3.4,5.55-7.83,9.44-10.52.45-.3,1.17-.69,1.72-.69,1.62-.56,3.46-.77,5.15-.43,4.9,1.08,9.04,4.29,13.73,5.96,2.2.68,4.59,1,6.87,1.29,2.81.43,5.77.56,8.58.1,4.2-.71,4.13-2.69,8.58-.27,6.99,3.33,15.03,2.71,22.32.77,2.51-.54,5.23-.67,7.73.03,1.44.35,2.87,1.23,4.29,1.59,3.45-.09,7-.5,10.3-1.53,6.1.21,12.48.28,18.03,3.17,2.81,1.39,5.46,3.31,7.73,5.47.7.64,1.64,1.7,2.58,2.01,1.37,0,2.92,0,4.29,0,2.83,0,5.75,0,8.58,0"/><path class="b" d="M9.73,54.75c5.42-.06,10.89.12,16.31-.08,1.38-.07,2.92-.05,4.29.08,3-.24,6.06-1.15,8.58-2.83,2.72-1.8,4.92-4.45,6.87-7.03.77-1.02,1.79-2.41,2.58-3.42.35-.55,1.1-1.32,1.72-1.55.75-.32,1.77-.47,2.58-.42.82-.15,1.81-.66,2.58-.94,4.42-1.65,8.89.71,12.88,2.47,5.61,2.45,11.97,2.9,18.03,2.68,1.4-.06,2.95-.26,4.29-.67.76-.26,1.75-.72,2.58-.62,3.03.76,5.64,2.86,8.58,3.89,8.03,3.5,13.14-.32,20.6-2.42,2.71-.56,5.39.66,7.73,1.89,1.67.25,3.47.55,5.15.67,3.15.26,6.37-.26,9.44-.92,1.97.27,4.06.6,6.01,1.04,5.06,1.18,10.01,3.06,14.59,5.5,1.48.69,2.78,2.09,4.29,2.69,4.27,0,8.6,0,12.88,0"/><path class="b" d="M9.73,50.09c4.85,0,9.74,0,14.59,0,6.82.03,14.58-.29,19.74-5.36,2.01-2.13,4.31-4.23,6.87-5.7.74-.38,1.8-.62,2.58-.89,1.31-.75,2.82-1.54,4.29-1.91,3.75-1.06,7.55.3,11.16,1.23,3.97.76,8.04,1.25,12.02,1.97,2.55.69,5.11,1.72,7.73,2.18,1.67.39,3.55-.28,5.15.43,2.9,1.28,5.47,3.47,8.58,4.27,4.04,1.23,8.3,0,12.02-1.69,3.63-1.45,7.21-3.56,11.16-3.98,1.41-.19,2.91.39,4.29.49,3.47.05,6.87,1.14,10.3,1.5,2.54.32,5.19.46,7.73.77,2.5.97,5.15,1.85,7.73,2.6,4.24,1.36,8.89,1.74,12.88,3.84,1.6.51,3.49.15,5.15.25,2.83,0,5.75,0,8.58,0"/><path class="b" d="M9.73,45.43c4.85,0,9.74,0,14.59,0,4.58-.4,9.23-.94,13.73-1.92,2.9-.75,5.77-1.91,8.58-2.95,1.36-.56,2.86-1.2,4.29-1.56.77-.17,1.83-.24,2.58-.51,3.75-1.67,7.89-2.78,12.02-2.24,3.45.42,6.99.79,10.3,1.93,3.79,1.18,7.36,3.13,11.16,4.25,1.05.29,2.34.52,3.43.53,1.08-.05,2.36-.23,3.43-.04,3.41.57,6.79,1.98,10.3,1.6,7.21-.65,13.33-5.63,20.6-6.1,1.41-.09,2.94.27,4.29.6,3.13.39,6.32.89,9.44,1.33,5.47.82,11.03,1.5,16.31,3.17,3.91,1.04,8.03.96,12.02,1.42,2.21.6,4.59.49,6.87.48,2.83,0,5.75,0,8.58,0"/><path class="b" d="M9.73,40.77c4.85,0,9.74,0,14.59,0,4.56-.98,9.16-2.01,13.73-2.95,1.63-.43,3.48-.28,5.15-.54,1.98-.22,4.04-.63,6.01-.89,3.45-.09,6.86-.94,10.3-1.1,7.05-.2,14.05,1.51,20.6,4.02,1.36.48,2.89,1,4.29,1.36,1.97-.11,4.02-.71,6.01-.46,3.1.61,6.31.45,9.44.44,3.22.3,6.42-.89,9.44-1.86,5.21-1.87,10.69-3.88,16.31-3.37,4.55.9,9.18,1.69,13.73,2.55,2.85.54,5.76,1.18,8.58,1.82,1.66.3,3.45.93,5.15.89,4.24-.84,8.62-.3,12.88.03,5.42.11,10.89.02,16.31.05"/><path class="b" d="M9.73,36.1c4.85,0,9.74,0,14.59,0,3.71-1.12,7.38-2.68,11.16-3.64,2.54-.06,5.18.2,7.73.13,4.85-.12,9.75-.13,14.59,0,5.19.25,10.39,1.17,15.45,2.31,1.68.33,3.44,1.03,5.15,1.13,3.07-.76,6.27-1.4,9.44-1.35,2-.02,4.04.53,6.01.81,1.67.22,3.49.25,5.15.49,1.98.28,4.07-.61,6.01-.99,6.14-1.74,12.45-3.37,18.89-3,4.59.52,9.18,1.49,13.73,2.31,1.96.37,4.05.78,6.01,1.17,1.69.35,3.43.83,5.15.29,3.1-.52,6.3-1,9.44-1.05,3.14.27,6.32.89,9.44,1.27,4.83.3,9.75.04,14.59.12"/><path class="b" d="M9.73,31.44c3.12,0,6.32,0,9.44,0,1.96-.11,4.11.27,6.01-.23,1.38-.68,2.91-1.43,4.29-2.09,1.07-.44,2.25-1.25,3.43-1.31,10.01.5,20.11.25,30.04,1.8,3.99.54,8.02,1.3,12.02,1.79,2.82-.46,5.73-.9,8.58-1.05,2.26-.12,4.63-.05,6.87.29,2.52.37,5.19,1.04,7.73.53,5.98-.97,11.94-2.46,18.03-2.6,9.23-.43,18.37,1.3,27.47,2.62,2.25.5,4.61-.28,6.87-.42,3.11-.34,6.31-.56,9.44-.61,2.87-.05,5.74.92,8.58,1.21,4.56.14,9.17.01,13.73.05"/><path class="b" d="M9.73,26.78c3.12,0,6.32,0,9.44,0,1.95-.12,4.12.29,6.01-.25,1.65-.75,3.23-2.34,5.15-2.19,7.43-.07,14.89.11,22.32.29,7.17.4,14.3,1.49,21.46,2.02,2.25.24,4.61-.22,6.87-.25,3.41-.16,6.91-.08,10.3.33,5.44-.25,10.87-1.27,16.31-1.52,12.02-.45,24.09.14,36.05,1.32,2.54.37,5.18.06,7.73-.1,3.41-.21,6.89-.33,10.3-.32,2.58-.17,5.17.49,7.73.67,4.27,0,8.6,0,12.88,0"/><path class="b" d="M9.73,22.12c4.56,0,9.17,0,13.73,0,.82.11,1.8-.3,2.58-.49,1.97-.02,4.04-.05,6.01-.06,8-.03,16.03-.06,24.04.01,7.14.12,14.32.42,21.46.44,8.87.28,17.75-.44,26.61-.52,10.8.26,21,.29,31.76.37,15.44.34,30.91.17,46.35.25"/><path class="b" d="M9.73,17.46h172.54"/><path class="b" d="M9.73,12.8h172.54"/><path class="b" d="M9.73,8.14h172.54"/></svg>