<?xml version="1.0" encoding="UTF-8"?><svg id="a" xmlns="http://www.w3.org/2000/svg" width="1920" height="2400" viewBox="0 0 192 240"><defs><style>.b{fill:none;stroke:#fff;stroke-miterlimit:10;stroke-width:.3px;}.c{stroke-width:0px;}</style></defs><rect class="c" x="0" width="192" height="240"/><path class="b" d="M9.7,231.89h172.59"/><path class="b" d="M9.7,227.23h172.59"/><path class="b" d="M9.7,222.57c21.46,0,42.94,0,64.4,0,6.01.14,12.03-.5,18.03-.39,4.57,0,9.18.18,13.74.38,6.28,0,12.61,0,18.89,0,19.17,0,38.36,0,57.53,0"/><path class="b" d="M9.7,217.91c3.12,0,6.32,0,9.45,0,1.38,0,2.92,0,4.29,0,.93.18,1.92-.51,2.58-1.1,14.02.43,28.05.87,42.08.65,7.17-.38,14.25-2.53,21.47-2.14,4.29.06,8.62.31,12.88.84,4.55.49,9.17.84,13.74,1.21,17.16.4,34.36.34,51.52-.27,1.69,1.32,4.03.67,6.01.81,2.84,0,5.75,0,8.59,0"/><path class="b" d="M9.7,213.25c4.85,0,9.75,0,14.6,0,1.98-.92,3.32-3.08,5.15-4.26,4.32.15,8.61,1.04,12.88,1.63,3.97.62,8.03.79,12.02,1.2,5.11.46,10.33.8,15.46.35,4.4-.41,8.7-1.66,12.88-3.03,2.79-.98,5.64-1.4,8.59-1.14,3.45-.39,6.96.23,10.3,1.01,5.35,1.3,10.83,2.21,16.32,2.71,3.41.06,6.9,0,10.3.3,12.01,1.08,24.25,1.18,36.06-1.5,1.89.46,3.37,2.09,5.15,2.73,4.28,0,8.6,0,12.88,0"/><path class="b" d="M9.7,208.58c3.12,0,6.32,0,9.45,0,1.08,0,2.36,0,3.43,0,.79,0,1.86.09,2.58-.33,2.63-1.83,4.91-4.38,7.73-5.93,6.7.92,13.03,3.71,19.75,4.55,6.99,1.62,14.47,2.24,21.47.31,3.65-1,6.97-2.98,10.3-4.69,2.09-1.07,4.49-1.86,6.87-1.57,4.01-1.07,8.22-.26,12.02,1.21,4.72,1.77,9.58,3.41,14.6,4.11,2.83.3,5.76,0,8.59.3,2.85.35,5.71,1.17,8.59,1.34,8.32.59,16.8.11,24.9-1.92,1.96-.59,4.17.3,6.01.97,1.12.42,2.27,1.35,3.43,1.64,4.27,0,8.61,0,12.88,0"/><path class="b" d="M9.7,203.92c4.85,0,9.75,0,14.6,0,2.9-.96,5.17-3.45,7.73-5.06,4.24-2.85,4.19-2.24,8.59-.35,3.6,1.66,7.29,3.36,11.16,4.29,1.39.3,2.86,1.01,4.29,1.06,3.35-.77,6.88-.96,10.3-.74,1.99.1,4.05.47,6.01.77,4.84-1.08,8.93-4.08,12.88-6.93,2.03-1.5,4.33-2.52,6.87-2.66,2.13-.92,4.62-1.08,6.87-.52,3.61.9,6.91,2.86,10.3,4.33,4.82,2.24,10.12,3.59,15.46,3.1,2.01-.32,4.1.05,6.01.67,1.93.48,4.03.8,6.01.96,6.62.55,13.33-.31,19.75-1.91,2.51-.64,5.29.12,7.73.81,1.77.48,3.41,1.68,5.15,2.19,4.27,0,8.61,0,12.88,0"/><path class="b" d="M9.7,199.26c3.41,0,6.89,0,10.3,0,4.45,0,4.78.45,8.59-2.24,2.9-1.95,5.81-4.55,9.45-4.85.85-.12,1.91.2,2.58.73,1.08.68,2.35,1.5,3.43,2.18,2.66,1.72,5.64,3.03,8.59,4.16,7.09-2.88,15.14-2.2,22.33,0,5.32-1.76,9.22-6.01,13.74-9.09,1-.63,2.28-1.16,3.43-1.38.78-.37,1.77-1.01,2.58-1.32,3.62-1.42,7.3.74,10.3,2.64,2.5,1.6,5.06,3.3,7.73,4.61,4.71,2.38,10.25,3.36,15.46,2.37.8-.05,1.81.33,2.58.51,1.36.32,2.9.56,4.29.67,6.42.48,12.82-1.05,18.89-2.99,2.55-.31,5.26.07,7.73.75,2.38.68,4.71,1.83,6.87,3.02,1.61.48,3.49.14,5.15.24,2.83,0,5.75,0,8.59,0"/><path class="b" d="M9.7,194.6c3.41,0,6.89,0,10.3,0,1.38,0,2.92,0,4.29,0,.85-.12,1.85-.7,2.58-1.13,4.75-2.87,9.5-8.01,15.46-5.01,3.07,2.07,5.96,4.68,9.45,6.08,5.76-3.24,12.67-2.72,18.89-1.3,4.79.88,3.93,2.28,8.59-.37,4.39-2.3,7.59-6.48,12.02-8.68,2.2-.72,3.61-3.12,6.01-3.42,7.6-.76,13.01,13.4,27.48,13.63,1.39.02,2.95-.15,4.29-.52,1.95.36,4.02.75,6.01.65,5.39-.17,10.59-2.05,15.46-4.24,3.33-.97,7.03-.81,10.3.3,2.7.91,5.23,2.45,7.73,3.78,1.61.47,3.49.14,5.15.23,2.83,0,5.75,0,8.59,0"/><path class="b" d="M9.7,189.93c3.12,0,6.32,0,9.45,0,1.96-.12,4.11.28,6.01-.24,5.73-3.08,10.94-9.95,18.03-6.1,3.46,1.56,6.02,4.68,9.45,6.3,4.16-2.34,9.17-2.23,13.74-1.4,1.39.24,2.92.56,4.29.88,1.07.26,2.36.72,3.43.23,3.37-.97,6.64-2.56,9.45-4.67,2.8-2.02,5.35-4.63,8.59-5.96,2.22-1.57,3.69-4.96,6.87-4.67,5.75.95,10.47,12.06,18.89,15.49,1.13,0,2.33-.69,3.43-.89,2.51-.59,5.26-.57,7.73.19,3.42-.74,7.01-.24,10.3.84,3.01-.85,5.82-2.42,8.59-3.83,7.81-3.27,12.1-1.64,18.89,2.69.75.39,1.73,1.01,2.58,1.15,1.38,0,2.92,0,4.29,0,2.83,0,5.75,0,8.59,0"/><path class="b" d="M9.7,185.27c4.56,0,9.18,0,13.74,0,.88.13,1.9-.31,2.58-.85,1.11-.77,2.38-1.75,3.43-2.59,5.29-4.34,9.73-7.02,16.31-3.28,2.46,1.19,4.61,3.04,6.87,4.54,4.93,2.99,10.98,1.71,16.32.73,4.41-.81,8.96-1.71,12.88-4,2.37-1.32,4.59-3.09,6.87-4.54,1.28-.95,3.16-1.2,4.29-2.34,8.73-15.07,12.63,5.51,23.18,12.31,3.68-2.52,7.7-3.23,12.02-2.18,1.38.02,2.91-.33,4.29-.12,2.65.27,5.29,1.16,7.73,2.2,1.52-.15,2.94-1.26,4.29-1.89,4.01-1.9,8.28-4.41,12.88-3.83,3.9.53,6.92,3.41,10.3,5.15,1.73,1.18,4.04.56,6.01.71,2.83,0,5.75,0,8.59,0"/><path class="b" d="M9.7,180.61c4.85,0,9.75,0,14.6,0,1.27-.34,2.41-1.48,3.43-2.26,2.29-1.86,4.44-4.12,6.87-5.8,3.95-2.83,8.46-3.05,12.88-1.23,3.44,1.19,6.63,3.41,10.3,3.85,1.66.24,3.48.07,5.15.17,4.57.48,9.28.28,13.74-.85,5.61-1.13,9.69-6.18,15.46-6.73,1.06-.91,1.8-2.73,2.58-3.87,2.69-4.24,5.42-4.89,8.59-.64,4.25,5.72,7.14,12.84,12.88,17.3,3.92-3.17,7.35-2.77,12.02-2.53,1.38-.12,2.91-.3,4.29-.08,1.99.29,4.03.93,6.01,1.31,1.42.23,2.85,1.15,4.29,1.19,4.87-1.85,10.13-6.12,15.46-5.57,2.55.36,4.8,1.95,6.87,3.38,1.31.84,2.78,1.91,4.29,2.34,1.07,0,2.36,0,3.43,0,3.12,0,6.32,0,9.45,0"/><path class="b" d="M9.7,175.95c3.12,0,6.32,0,9.45,0,1.08,0,2.36,0,3.43,0,.79,0,1.84.08,2.58-.29,4.14-2.6,7.7-6.15,12.02-8.47,3.92-2.22,8.72-2.3,12.88-.7,1.7.55,3.39,1.55,5.15,1.88,1.93.62,3.97,1.31,6.01,1.41,6.09.27,12.47-.55,18.03-3.14,4.39-1.96,7.86-6.24,12.88-6.57,1.07-1.03,1.8-2.98,2.58-4.21,2.47-4.17,5.21-5.74,8.59-1.33,5.17,6.78,7.57,15.91,14.6,21.19.5.05,1.31-.23,1.72-.51.74-.33,1.79-.64,2.58-.83,2.54-.65,5.3-.79,7.73-1.83,6.37-2.27,11.53.52,17.17,3.23.87.08,1.82-.56,2.58-.92,1.36-.68,2.89-1.42,4.29-2,6.19-2.71,9.38-.2,14.6,2.83,1.6.54,3.49.16,5.15.26,2.84,0,5.75,0,8.59,0"/><path class="b" d="M9.7,171.29c4.56,0,9.18,0,13.74,0,1.26.19,2.44-.7,3.43-1.34,1.39-.89,2.91-1.93,4.29-2.84,6.58-4.53,11.92-6.05,19.75-3.83,4.99,1.49,10.3,1.87,15.46,1.07,8.81-1.13,13.33-3.04,20.61-7.98,6.53-3.72,4.66.63,8.59-7.53,9.08-17.31,13.51,16.8,24.9,22.25,1.22-.01,2.34-1.04,3.43-1.48,1.93-.94,4.03-1.8,6.01-2.64,2.7-.95,5.75-1.41,8.59-.93,4.73,1.27,9.21,3.42,13.74,5.25,6.39-2.76,9.92-3.37,16.31-.2,1.62.43,3.48.12,5.15.21,2.84,0,5.75,0,8.59,0"/><path class="b" d="M9.7,166.62c3.12,0,6.32,0,9.45,0,1.95-.12,4.12.29,6.01-.25,3.12-1.73,6.2-3.71,9.45-5.21,3.46-1.65,7.33-2.52,11.16-2.37,2.85.06,5.75.53,8.59.81,1.08-.1,2.36,0,3.43.05,4.32.09,8.66-.63,12.88-1.46,3.81-.77,7.64-1.88,11.16-3.54,3.36-1.53,6.6-3.65,10.3-4.24,1.76-.77,2.68-3.02,3.43-4.66.93-2,2.14-4.37,3.43-6.16,4.55-6.43,8.35,2.25,10.3,6.11,2.18,4.52,4.2,9.39,6.87,13.65,1.69,2.83,4.29,5.13,6.87,7.11,1.79-.71,3.39-2.18,5.15-3,2.35-1.35,5.05-2.21,7.73-2.56,2-.41,4.09.14,6.01.67,2.29.64,4.63,1.46,6.87,2.26,1.67.6,3.48,1.26,5.15,1.85,1.07.29,2.31,1.07,3.43.74,4.64-1.46,7.47-.97,12.02.19,4.28,0,8.6,0,12.88,0"/><path class="b" d="M9.7,161.96c3.12,0,6.32,0,9.45,0,1.96-.11,4.11.27,6.01-.23,2.82-1.41,5.68-2.94,8.59-4.15,3.79-1.62,7.91-2.55,12.02-2.78,2.54-.16,5.18-.17,7.73-.24,1.09-.05,2.34-.44,3.43-.36,6.65-.26,13.26-1.52,19.75-2.9,4.34-.92,8.54-2.61,12.88-3.52.75-.14,1.81-.24,2.58-.33,2.17-.62,3.39-3.04,4.29-4.92,1.47-2.96,3-6.27,5.15-8.8,4.11-4.82,7.66,2.01,9.45,5.39,2,3.88,3.86,8.12,6.01,11.91,1.34,2.47,3.27,4.83,5.15,6.9,1.3,1.26,2.54,3.21,4.29,3.83,3.52-2.94,8.19-5.34,12.88-5.1,5.89.67,11.51,2.86,17.17,4.49,1.06.28,2.32.76,3.43.73,1.36-.29,2.9-.49,4.29-.5,1.69-.04,3.48.37,5.15.58,4.28,0,8.6,0,12.88,0"/><path class="b" d="M9.7,157.3c4.56,0,9.18,0,13.74,0,1.18.14,2.4-.5,3.43-.97,1.08-.48,2.35-1.04,3.43-1.51,3.32-1.42,6.79-2.69,10.3-3.55,2.81-.7,5.74-1.2,8.59-1.68,1.98-.37,4.13-.55,6.01-1.31,9.39-1.37,18.88-2.43,28.34-3.3,2.83-.28,5.75-.42,8.59-.13,3.2-.3,4.61-3.88,6.01-6.31,1.74-3.05,3.43-6.5,6.01-8.95,3.55-3.29,6.75.95,8.59,3.88,1.8,2.87,3.47,6.14,5.15,9.07,1.44,2.6,3.31,5.21,5.15,7.53,2,2.59,4.19,5.3,6.87,7.22,2.53-1.77,5.53-3.12,8.59-3.58,6.42-.4,12.71,1.59,18.89,3.06.76.18,1.8.42,2.58.51,1.36-.25,2.91-.43,4.29-.44,1.69-.04,3.48.28,5.15.46,4.28,0,8.6,0,12.88,0"/><path class="b" d="M9.7,152.64c4.85,0,9.75,0,14.6,0,1.75-.37,3.48-1.32,5.15-1.92,3.1-1.25,6.29-2.5,9.45-3.62,5.7-2.13,11.71-3.61,17.17-6.3,4.52-.85,9.13-1.6,13.74-1.69,6.04-.09,12.12.6,18.03,1.8,2.25.31,4.66,1.97,6.87.72,1.89-1.14,3.05-3.42,4.29-5.16,2.49-3.45,4.62-7.85,8.59-9.81,5.59-2.16,10.73,9.05,13.74,12.66,2.38,3.1,4.79,6.45,7.73,9.05,2.27,1.8,4.91,3.47,7.73,4.22,6.08-2.15,12.7-1.2,18.89-.1,1.37.31,2.91-.29,4.29-.34,1.96-.21,4.05-.21,6.01.03,2.25.36,4.59.55,6.87.46,3.12,0,6.32,0,9.45,0"/><path class="b" d="M9.7,147.97c3.41,0,6.89,0,10.3,0,1.97-.11,4.18.36,6.01-.52,7.33-2.89,14.57-6.14,21.47-9.96,2.28-1.27,4.65-2.61,6.87-3.98,1.57-1.61,3.92-2.1,6.01-2.66,8.91-2.33,17.78,1.47,25.76,5.14,2.28.91,4.57,2.59,6.87,3.26,2.72.2,4.3-2.72,6.01-4.39,2.15-2.4,4.27-5.07,6.87-7.02,7.09-5.37,12.74,3.21,17.17,7.87,2.1,2.23,4.21,4.76,6.87,6.35,4.42,2.63,9.49,4.38,14.6,4.96,4.85.54,9.75-.35,14.6-.41,3.46-.01,6.93.72,10.3,1.37,4.27,0,8.61,0,12.88,0"/><path class="b" d="M9.7,143.31c3.13,0,6.32,0,9.45,0,1.96-.11,4.1.26,6.01-.22,6.81-3.2,13.47-6.8,19.75-10.95,3.7-2.4,7.44-4.88,11.16-7.24,2.32-.65,4.54-1.87,6.87-2.49,9.18-2.98,16.26,3.51,23.18,8.51,1.38,1.01,2.92,2.13,4.29,3.14.71.52,1.64,1.33,2.58,1.34,1.64-.41,2.95-1.97,4.29-2.93,2.99-2.41,5.93-5.16,9.45-6.8,8.16-3.74,14.55,4.88,20.61,8.99,2.83,1.79,6.28,2.52,9.45,3.5,2.56.74,5.09,1.9,7.73,2.38,5.07,1.2,10.33.2,15.46.71,3.17.44,6.36,1.24,9.45,2.05,4.27,0,8.61,0,12.88,0"/><path class="b" d="M9.7,138.65c3.12,0,6.32,0,9.45,0,1.96-.11,4.1.26,6.01-.22,10.23-4.83,20.2-10.34,30.91-14.06,6.22-.97,9.31-8.02,15.46-9.17,4.58-.63,8.13,3.25,11.16,6.13,2.84,2.85,5.71,5.83,8.59,8.64,1.24.08,2.36-1.04,3.43-1.54,1.65-.94,3.44-1.93,5.15-2.75,9.88-5.03,16.22-1.9,24.9,3.49,1.36.77,2.8,1.84,4.29,2.34,1.67.31,3.48.64,5.15.96,2.93.39,5.76,1.44,8.59,2.26,2.49.68,5.15,1.1,7.73,1.21,3.12.13,6.35-.08,9.45.46,1.97.4,4.04.88,6.01,1.26,1.1.22,2.33.82,3.43,1,4.28,0,8.6,0,12.88,0"/><path class="b" d="M9.7,133.99c3.12,0,6.32,0,9.45,0,1.96-.09,4.09.22,6.01-.19,6.51-2.68,12.93-5.8,19.75-7.63,3.62-1.05,7.44-1.29,11.16-1.64,7.05.05,9.68-7.79,13.74-12.23,6.6-8.21,11.89.59,16.31,5.9.76.98,1.82,2.32,2.58,3.3.57.79,1.49,2.02,2.58,2.01,11.48-5.23,19.21-3.75,30.05,1.94,2.54,1.21,5.09,2.69,7.73,3.68,1.96-.06,4.04-.13,6.01-.12,3.77-.17,7.45,1.11,11.16,1.6,3.96.67,8.05.5,12.02,1.01,2.27.34,4.59,1,6.87,1.29,1.42.19,2.9.84,4.29,1.09,4.28,0,8.6,0,12.88,0"/><path class="b" d="M9.7,129.32c4.85,0,9.75,0,14.6,0,2.65-.59,5.19-1.94,7.73-2.88,5.72-2.35,11.76-4.52,18.03-4.4,3.13-.07,6.34,1.03,9.45.42,8.21-1.3,11.49-24.24,20.61-17.96,2.78,2.13,4.85,5.22,6.87,8.03,1.02,1.33,1.93,3.29,3.43,4.14.81.29,1.81-.16,2.58-.4,3.03-.91,6.32-1.15,9.45-.7,8.42,1.28,15.52,6.45,23.18,9.8,1.06.45,2.3,1.09,3.43,1.32,1.67-.35,3.47-.75,5.15-1.05,3.09-.75,6.32-.61,9.45-.16,5.69.91,11.54,1.09,17.17,2.36,2.52.57,5.25.52,7.73,1.34,4.53.35,9.18.03,13.74.14"/><path class="b" d="M9.7,124.66c4.85,0,9.75,0,14.6,0,3.26-.71,6.33-2.36,9.45-3.52,7.09-3,13.92-4.28,21.47-2.21,4.58,1.32,7.88-.64,10.3-4.51,2.92-4.26,5.12-9.22,8.59-13.09,3.64-4.02,7.26-2.05,10.3,1.46,1.16,1.3,2.42,2.96,3.43,4.38.96,1.18,1.79,3.25,3.43,3.55,10.56-3.9,19.68,3.24,28.34,8.33,1.92,1.12,3.99,2.24,6.01,3.18,2.12,1.03,2.9,1.43,5.15.42,2.78-.88,5.64-2.1,8.59-2.25,6.08-.1,12.07,1.52,18.03,2.55,1.38.26,2.9.68,4.29.89,1.67.18,3.49.21,5.15.42,2.23.5,4.6.39,6.87.39,2.83,0,5.75,0,8.59,0"/><path class="b" d="M9.7,120c4.85,0,9.75,0,14.6,0,3.27-.69,6.34-2.36,9.45-3.55,7.21-3.1,13.94-4.51,21.47-1.51,4.02,1.51,7.08.17,9.45-3.28,3.69-4.72,6.05-10.86,11.16-14.29,6.64-3.96,11.76,4.69,15.46,9,2.26-.51,4.51-1.59,6.87-1.7,8.31-.83,14.99,5.15,21.47,9.44,1.63,1.1,3.43,2.24,5.15,3.21,1.55.97,3.45,1.78,5.15.67,2.75-1.2,5.6-2.6,8.59-3.1,6.5-.35,12.65,2.44,18.89,3.86,2.76.88,5.71,1.02,8.59,1.01,5.41.45,10.89.18,16.31.25"/><path class="b" d="M9.7,115.34c4.85,0,9.75,0,14.6,0,3.27-.76,6.32-2.53,9.45-3.74,7.59-3.32,13.99-4.02,21.47,0,4.5,2.14,7.24-.13,10.3-3.3,2.39-2.47,4.56-5.35,6.87-7.9,2.84-3.23,6.81-6.37,11.16-3.83,3.42,1.86,5.83,5.14,8.59,7.78.89.12,1.81-.55,2.58-.9,1.35-.66,2.88-1.33,4.29-1.83,8.95-3.35,14.59,1.15,21.47,6.25,1.93,1.32,3.85,2.99,6.01,3.9,1.53.57,3.02-.38,4.29-1.13,2.62-1.27,5.59-3.06,8.59-2.74,8.09,1.08,14.91,7.29,23.18,7.43,6.57-.07,13.18.04,19.75,0"/><path class="b" d="M9.7,110.68c3.41,0,6.89,0,10.3,0,1.96-.11,4.18.37,6.01-.52,4-1.64,7.86-3.81,12.02-5.02,3.91-1.19,8.24-1.07,12.02.51,2.36.81,4.37,2.72,6.87,3.13,7.74-.32,14.16-8.21,21.47-10.3,2.22-.64,4.69-.58,6.87.17,1.47.5,3,1.32,4.29,2.19,1.08.64,2.14,1.87,3.43,2.05,1.91-.27,3.49-1.91,5.15-2.81,5.25-3.49,10.4-6.13,16.31-2.27,2.46,1.52,4.74,3.52,6.87,5.47,2.03,1.74,3.93,4.49,6.87,4.48,3.24-.7,6.33-2.29,9.45-3.4,3.67-.91,7.68-.48,11.16.95,3.75,1.52,7.22,3.92,11.16,4.97,2.8.58,5.75.3,8.59.4,4.56.04,9.18,0,13.74.01"/><path class="b" d="M9.7,106.01c3.13,0,6.32,0,9.45,0,1.96-.09,4.09.22,6.01-.19,4.62-1.86,8.92-4.65,13.74-6.01,3.67-1.08,7.7-.7,11.16.91.79.35,1.83.9,2.58,1.34.71.58,1.72.67,2.58.47,13.91-.81,21.55-5.13,36.06-.9,2.68.87,4.87-1.63,6.87-3.02,5.23-3.82,11.42-11.4,18.03-5.75,1.91,1.54,3.63,3.57,5.15,5.48,1.7,2.24,3.76,5.04,6.87,5.06,4.17-.45,7.96-2.92,12.02-3.63,3.98-.78,8.2-.58,12.02.83,2.94,1,5.69,2.66,8.59,3.75,2.75.91,5.72,1.35,8.59,1.66,4.27,0,8.61,0,12.88,0"/><path class="b" d="M9.7,101.35c3.13,0,6.32,0,9.45,0,1.96-.09,4.08.21,6.01-.18,3.55-1.39,6.91-3.34,10.3-5.05,3.4-1.74,7.32-3.09,11.16-2.21,2.03.39,3.93,1.62,6.01,1.82,1.08.12,2.35-.08,3.43,0,1.67.23,3.48.49,5.15.74,7.2.9,14.26,2.86,21.47,3.74,3.4.27,7.06.33,10.3-.83,3.12-1.58,5.91-3.92,8.59-6.14,3.48-2.73,6.67-7.01,11.16-7.95,3.96-.38,6.56,3.51,8.59,6.35,2.44,3.92,5.33,6.86,10.3,5.61,2.33-.34,4.62-1.25,6.87-1.87,4.5-.86,9.23-1.37,13.74-.3,5.96,1.34,11.19,5.02,17.17,6.28,4.27,0,8.61,0,12.88,0"/><path class="b" d="M9.7,96.69c3.41,0,6.89,0,10.3,0,1.96-.1,4.15.33,6.01-.46,3.31-1.19,6.45-2.95,9.45-4.77,2.67-1.57,5.47-3.32,8.59-3.76,2.94-.45,5.71,1.13,8.59,1.42,1.07.16,2.38.17,3.43.47,1.68.64,3.48,1.37,5.15,2.04,4.26,1.7,8.56,3.49,12.88,5.03,6.46-2.1,9.89-2.48,16.31-.08,4.44-2.45,8.97-4.95,12.88-8.21,2.04-1.66,4.05-3.59,6.01-5.34,2.09-1.79,4.76-4.16,7.73-3.27,2.28.82,3.84,3.06,5.15,4.98,2.57,3.71,5.54,6.34,10.3,6.04,2.3.05,4.59-.76,6.87-.81,11.18-.82,17.5.88,27.48,5.76.74.34,1.76.86,2.58.96,1.37,0,2.92,0,4.29,0,2.83,0,5.75,0,8.59,0"/><path class="b" d="M9.7,92.03c4.85,0,9.75,0,14.6,0,3-.43,5.94-1.67,8.59-3.12,4.69-2.34,9.99-8.7,15.46-7.57,2.53.62,5.32.78,7.73,1.79,4.75,3.12,9.43,6.49,14.6,8.91,4.2-2.03,9.07-3.79,13.74-2.4,1.13.33,2.41.9,3.43,1.48.38.3,1.23.69,1.72.72.79-.55,1.72-1.44,2.58-1.88,1.1-.38,2.37-.9,3.43-1.38,2.33-1.05,4.69-2.3,6.87-3.63,4.71-2.69,8.37-6.9,12.88-9.85,3.82-2.29,6.18.06,8.59,2.92,1.7,1.83,3.66,3.73,6.01,4.69,2.68,1.23,5.71,1.24,8.59,1.44,5.99,1.15,12.13,1.75,18.03,3.37,2.58.68,5.24,1.47,7.73,2.43,1.97.64,3.87,2.2,6.01,2.09,3.99,0,8.03,0,12.02,0"/><path class="b" d="M9.7,87.36c3.41,0,6.89,0,10.3,0,2.26-.03,4.64.14,6.87-.29,8.06-1.09,12.04-6.5,18.03-11.04.98-.66,2.25-1.29,3.43-1.42,1.67,0,3.48.08,5.15.2,2.91-.03,4.81,2.7,6.87,4.38,3.17,2.96,6.49,5.96,10.3,8.06,5.67-2.38,9.81-3.61,15.46-.09,2.04-.34,3.28-2.63,5.15-3.4,1.4-.27,2.94-.63,4.29-1.08,6.74-2.23,13.33-5.2,18.89-9.67,3.8-2.83,6.89-5.32,11.16-1.61,2.12,1.63,4.41,3.24,6.87,4.31,1.88.94,4.08,1.35,6.01,2.14,5.65,2.93,11.87,4.69,18.03,6.16,2.54.59,5.2,1.06,7.73,1.71,1.71.42,3.42,1.35,5.15,1.64,4.28,0,8.6,0,12.88,0"/><path class="b" d="M9.7,82.7c4.28,0,8.6,0,12.88,0,3.43,0,7.02.18,10.3-1.02,4.11-1.42,7.31-4.63,10.3-7.65,1.81-1.78,3.65-3.9,6.01-4.95,1.07-.33,2.38-.53,3.43-.93,1.06-.33,2.31-.94,3.43-.61,4.02,2.26,6.89,6.13,10.3,9.15,4.72,4.49,10.93,7.67,17.17,4.11,2.17-1.11,4.02-2.93,6.01-4.31,1.22-.92,2.87-.72,4.29-.86,2.55-.34,5.2-.67,7.73-1.13,3.5-.7,7.01-1.7,10.3-3.07,2.32-.98,4.67-2.15,6.87-3.37,2.56-1.49,5.62-3.01,8.59-1.77,3.52,1.21,6.92,2.91,10.3,4.44,3.52,2.66,7.11,5.39,11.16,7.21,2.7,1.27,5.65,2.21,8.59,2.73,2.24.43,4.63.51,6.87.92,1.69.29,3.45.93,5.15,1.13,4.27,0,8.61,0,12.88,0"/><path class="b" d="M9.7,78.04c4.85,0,9.75,0,14.6,0,1.67-.13,3.47-.41,5.15-.37,1.09,0,2.36.19,3.43.34,4.22-.92,7.62-3.98,10.3-7.21,2.57-2.96,4.66-6.58,7.73-9.07.79-.48,1.87-1.12,2.58-1.72.69-.58,1.64-1.46,2.58-1.59,5.82,1.33,11.26,10.37,17.17,13.43,4.72,2.84,9.96,1.66,14.6-.68,1.03-.43,2.3-.83,3.43-.73,1.36.3,2.9.44,4.29.36,3.8-.25,7.52-1.42,11.16-2.46,3.79-1.11,7.61-2.4,11.16-4.13,3.05-1.39,6.04-3.42,9.45-3.77,2.56-.22,5.24-.16,7.73.54,1.54.35,3.2.89,4.29,2.1,4.69,4.11,9.64,8.2,15.46,10.58,2.73,1.17,5.72,1.82,8.59,2.57,1.98.53,3.98,1.51,6.01,1.81,4.28,0,8.6,0,12.88,0"/><path class="b" d="M9.7,73.38c4.85,0,9.75,0,14.6,0,2.25-.25,4.59-.72,6.87-.65,1.4.02,2.94.22,4.29.57.83-.02,1.83-.44,2.58-.77,4.85-2.22,8.2-6.69,11.16-10.96,1.81-2.82,4.13-5.5,6.01-8.27,4.62-5.28,10.36,1.1,13.74,4.6,2.76,2.79,5.7,5.77,9.45,7.16,4.98,2,8.26-1.25,12.88-.32,5.4,1.77,11.02-.65,16.32-1.79,4-1,8.09-1.88,12.02-3.11,3.13-.93,6.22-2.31,9.45-2.91,1.93-.54,3.98-1.14,6.01-1.13,1.1.02,2.47-.11,3.43.5,4.29,3.01,8.37,6.45,12.88,9.14,3.75,2.3,7.9,3.94,12.02,5.44,2.01.69,3.94,2.02,6.01,2.49,4.27,0,8.61,0,12.88,0"/><path class="b" d="M9.7,68.72c4.85,0,9.75,0,14.6,0,4.53-.62,9.23-1.3,13.74-.18,1.45.35,2.99-.68,4.29-1.23,5.01-2.58,8.31-7.5,11.16-12.19,2.57-4.77,7.57-12.03,13.74-8.29,5.29,3.16,9.13,9.02,15.46,10.29,2.25.34,4.66.11,6.87.72,1.97.55,3.92,1.6,6.01,1.63,4.61.17,9.18-1.04,13.74-1.57,6.88-.86,13.77-1.82,20.61-2.95,1.97-.44,3.98-1.23,6.01-1.34.77-.07,1.85-.18,2.58.17,1.4.71,2.94,1.59,4.29,2.39,3.63,2.16,7.32,4.36,11.16,6.13,3.34,1.57,6.88,2.85,10.3,4.23,1.71.59,3.39,1.75,5.15,2.17,4.27,0,8.61,0,12.88,0"/><path class="b" d="M9.7,64.05c4.85,0,9.75,0,14.6,0,3.12-.25,6.31-.71,9.45-.73,2.56-.04,5.23.12,7.73.7,1.79-.26,3.6-1.09,5.15-2,6.14-3.68,8.15-11.11,12.88-16.13,1.99-2.28,4.51-4.79,7.73-4.86,5.02.25,8.62,4.52,12.88,6.69,2.62,1.6,5.78,1.93,8.59,3.05,2.52,1.01,4.95,2.57,7.73,2.83,5.97.63,12.04.11,18.03-.03,3.41-.15,6.89-.36,10.3-.48,2.25-.14,4.64.04,6.87-.33,6.64-1.68,7.05-.42,12.88,2.23,3.61,1.72,7.37,3.28,11.16,4.54,4.28,1.44,8.71,2.61,12.88,4.35,1.63.37,3.49.11,5.15.18,2.83,0,5.75,0,8.59,0"/><path class="b" d="M9.7,59.39c8.29-.02,16.62.13,24.9-.3,2.26-.05,4.63-.03,6.87.26,1.42-.07,2.96-.5,4.29-.98,4.51-1.58,7.31-5.74,10.3-9.2,3.59-3.87,7.25-8.97,12.88-9.63,2.89-.08,5.87.69,8.59,1.64,2.85,1.13,5.6,2.71,8.59,3.48,3.79,1.25,7.18,3.7,11.16,4.39,5.91,1.21,12.03,1.26,18.03,1.61,3.99-.13,8.04-.3,12.02,0,1.07.07,2.36.24,3.43.21,1.08-.05,2.35-.34,3.43-.38,2.27-.11,4.64.15,6.87.51.75.34,1.82.81,2.58,1.15,7.6,3.57,15.96,4.86,24.04,6.87,1.89.63,4.05.29,6.01.37,2.83,0,5.75,0,8.59,0"/><path class="b" d="M9.7,54.73c4.85,0,9.75,0,14.6,0,2.81-.48,5.73-.77,8.59-.71,11.86.24,15.19-1.08,24.04-8.87,2.83-2.28,5.91-4.56,9.45-5.59,2.2-.56,4.61-.72,6.87-.73,2.31.1,4.66.68,6.87,1.29,2.83.85,5.81,1.47,8.59,2.5,2.54.97,5.06,2.24,7.73,2.85,6.16,1.51,12.58,1.62,18.89,1.47,3.13.03,6.32-.37,9.45-.16,1.68.07,3.49.36,5.15.6,1.08.07,2.35-.23,3.43-.24,3.18-.07,6.37.71,9.45,1.42,2.08.37,4.01,1.56,6.01,2.22,2.76,1.01,5.7,1.75,8.59,2.27,3.97.68,8.03,1.2,12.02,1.69,4.27,0,8.61,0,12.88,0"/><path class="b" d="M9.7,50.07c4.85,0,9.75,0,14.6,0,1.12-.19,2.33-.76,3.43-1.02,1.93-.51,4.03-.81,6.01-1.02,3.44-.35,6.97-.65,10.3-1.6,2.23-.77,4.7-1.11,6.87-2.06,3.23-1.38,6.13-3.59,9.45-4.81,2.7-1.12,5.7-1.36,8.59-1.32,4.36-.29,8.68.85,12.88,1.86,2.52.65,5.2,1.03,7.73,1.64,1.96.52,4,1.22,6.01,1.53,7.11,1.17,14.33-.09,21.47-.29,2.84,0,5.76-.27,8.59.02,1.98.1,4.05.94,6.01.32,4.63-.79,9.34.53,13.74,1.88,1.74.44,3.51,1.24,5.15,1.95,1.91.75,4,1.36,6.01,1.77,8.48,1.59,17.18,1.07,25.76,1.16"/><path class="b" d="M9.7,45.4c4.85,0,9.75,0,14.6,0,1.74-.46,3.43-1.52,5.15-2.07,2.49-.92,5.15-1.6,7.73-2.19,1.68-.39,3.49-.8,5.15-1.25,2.56-.02,5.2-.08,7.73-.52,2.32-.29,4.59-1.22,6.87-1.7,2.51-.51,5.17-.65,7.73-.52,2.84.26,5.77.33,8.59.74,3.99.56,8,1.38,12.02,1.68,1.67.13,3.49.09,5.15.3,3.09.57,6.3.94,9.45.81,4.9-.11,9.75-1.14,14.6-1.7,4.26-.37,8.66-.55,12.88.25.76.15,1.79.47,2.58.41.41-.11,1.3-.31,1.72-.39,1.65-.29,3.48-.35,5.15-.2,3.8.36,7.51,1.6,11.16,2.65,2.6.62,5.14,1.73,7.73,2.39,3.34.86,6.87,1.06,10.3,1.08,5.41.42,10.89.18,16.31.24"/><path class="b" d="M9.7,40.74c4.85,0,9.75,0,14.6,0,4.83-1.4,9.2-4.27,13.74-6.41,1.24-.81,2.9-.48,4.29-.53,2.55.03,5.18.11,7.73.16,2.26.14,4.61-.33,6.87-.17,3.18.2,6.35.97,9.45,1.68,5.39,1.01,10.84,2.05,16.32,2.5,2.84.31,5.75-.17,8.59-.12,6.98.96,13.89-1,20.61-2.65,5.58-1.26,11.59-1.83,17.17-.29,3.91-1.03,8.06-1.24,12.02-.33,4.33.91,8.56,2.42,12.88,3.37,1.96.56,3.97,1.4,6.01,1.66,3.13.35,6.34.61,9.45,1.13,4.27,0,8.61,0,12.88,0"/><path class="b" d="M9.7,36.08c4.85,0,9.75,0,14.6,0,3.8-.46,7.27-2.56,10.3-4.78,1.37-1.25,3.42-1.37,5.15-1.75,3.95-.74,8.05-.64,12.02-.15,6.3-.01,11.97,3.13,18.03,4.35,6.74,1.47,13.75,2.64,20.61,1.29,4.02.1,8.1-.11,12.02-1.09,5.45-1.2,10.75-3.29,16.31-3.9,3.11-.36,6.34-.74,9.45-.06.76.31,1.81.01,2.58-.16,1.06-.22,2.35-.43,3.43-.54,2.84-.3,5.79-.09,8.59.42,4.59.86,9.13,2.22,13.74,2.97,1.43.14,2.91.81,4.29,1.16,2.55.67,5.23,1.23,7.73,2.1,1.64.31,3.48.09,5.15.15,2.83,0,5.75,0,8.59,0"/><path class="b" d="M9.7,31.42c3.41,0,6.89,0,10.3,0,2.56-.04,5.25.21,7.73-.54,1.46-.41,3-1.12,4.29-1.92,1.33-.58,2.91-.94,4.29-1.36,4.44-1.28,9.09-2.29,13.74-2,2.57.2,5.26.26,7.73,1.06,4.54,1.44,9.01,3.34,13.74,4.09,1.37.24,2.9.55,4.29.65,2.24-.3,4.6-.5,6.87-.52,1.98-.02,4.07.14,6.01.49,2.25-.24,4.61-.14,6.87-.29,2.86-.22,5.78-.72,8.59-1.3,4.84-.98,9.68-2.32,14.6-2.87,3.36-.68,6.88-1.16,10.3-.75,1.69.03,3.47-.52,5.15-.65,2.53-.31,5.18-.38,7.73-.2,4.02.28,8.04,1.04,12.02,1.59,2.53.44,5.21.48,7.73.87,1.36.69,2.92,1.41,4.29,2.09,1.07.48,2.27,1.33,3.43,1.57,4.27,0,8.61,0,12.88,0"/><path class="b" d="M9.7,26.75c5.42-.07,10.9.15,16.31-.1,3.69-.71,7.45-1.33,11.16-1.92,5.1-.84,10.28-1.65,15.46-1.53,5-.22,9.76,1.71,14.6,2.65,2.23.36,4.61,1.01,6.87.79,3.4-.35,6.89-.55,10.3-.41,2.55.1,5.17.59,7.73.48,6.03.02,12.05-.91,18.03-1.52,2.25-.24,4.61-.47,6.87-.6,2.54-.35,5.17-.73,7.73-.95,1.96-.2,4.05-.17,6.01-.23,2.83-.27,5.74-.6,8.59-.69,6.58-.24,13.18.53,19.75.81,1.07.05,2.36.1,3.43.12,1.16-.06,2.55-.01,3.43.89,1.07.69,2.2,1.84,3.43,2.21,4.27,0,8.61,0,12.88,0"/><path class="b" d="M9.7,22.09c14.89.17,29.77-.52,44.65-.74,5.72-.07,11.46.55,17.17.68,3.41.12,6.89-.14,10.3-.11,4.28.03,8.6.2,12.88.13,7.72-.21,15.47-.21,23.18-.31,12.87-.34,25.76-.63,38.64-.39,2.54.03,5.18.06,7.73.08,1.07,0,2.36,0,3.43,0,.4.16,1.31.49,1.72.66,4.27,0,8.61,0,12.88,0"/><path class="b" d="M9.7,17.43h172.59"/><path class="b" d="M9.7,12.77h172.59"/><path class="b" d="M9.7,8.11h172.59"/></svg>