<?xml version="1.0" encoding="UTF-8"?><svg id="a" xmlns="http://www.w3.org/2000/svg" width="1920" height="2400" viewBox="0 0 192 240"><defs><style>.b{fill:none;stroke:#fff;stroke-miterlimit:10;stroke-width:.3px;}.c{stroke-width:0px;}</style></defs><rect class="c" x="0" width="192" height="240"/><path class="b" d="M9.7,231.89h172.59"/><path class="b" d="M9.7,227.23h172.59"/><path class="b" d="M9.7,222.57c18.6,0,37.21,0,55.81,0,4.85,0,9.75,0,14.6,0,4.85-.23,9.74-.49,14.6-.52,4-.1,8.04.31,12.02.52,5.71,0,11.46,0,17.17,0,19.46,0,38.93,0,58.39,0"/><path class="b" d="M9.7,217.91c4.85,0,9.75,0,14.6,0,1.66-.45,3.45-.41,5.15-.38,11.73-.09,23.48.15,35.21.12,11.48-.06,22.87-2.27,34.35-2.48,5.79-.17,11.51.99,17.17,2.03,3.67.48,7.46.49,11.16.59,11.16-.05,22.33-.51,33.49-.36,2.25.03,4.61.07,6.87.1.72.26,1.81.44,2.58.38,3.99,0,8.03,0,12.02,0"/><path class="b" d="M9.7,213.25c4.85,0,9.75,0,14.6,0,1.7-.19,3.47-.78,5.15-1.08,3.99-.04,8.03-.24,12.02-.32,4-.15,8.03.24,12.02.41,3.99.13,8.04,0,12.02-.15,4.88-.17,9.74-1.06,14.6-1.49,4.85-.52,9.8-.65,14.6-1.61,5.1-.85,10.41-.87,15.46.34,3.73.86,7.37,2.34,11.16,2.94,4.78,1.2,9.75.55,14.6.25,6.56-.47,13.16-1.02,19.75-1,2.84,0,5.76.11,8.59.31,1.65.51,3.42,1.24,5.15,1.39,4.27,0,8.61,0,12.88,0"/><path class="b" d="M9.7,208.58c3.41,0,6.89,0,10.3,0,1.97-.04,4.06.13,6.01-.18,2.29-.29,4.64-.8,6.87-1.36,3.41-.32,6.88-.77,10.3-.85,3.44-.16,6.87.75,10.3.79,6.88.12,13.76-.63,20.61-1.11,5.13-.26,10.35.17,15.46-.55,4.09-.66,7.96-2.39,12.02-3.2,3.71-1.02,7.76-.75,11.16,1.12,3.83,1.99,7.7,4.37,12.02,5.07,4.58.42,9.19-.61,13.74-1.04,6.25-.78,12.58-1.37,18.89-1.35,1.07,0,2.36.02,3.43.04,2.57.74,5.13,1.84,7.73,2.5,4.54.28,9.18.03,13.74.11"/><path class="b" d="M9.7,203.92c4.85,0,9.75,0,14.6,0,2.91-.33,5.83-1.17,8.59-2.14,1.1-.39,2.33-.97,3.43-1.33,2.53-.35,5.17-.63,7.73-.43,3.18.28,6.23,1.64,9.45,1.72,5.42.21,10.89-.25,16.31-.26,6.85-.35,13.83,1.34,20.61-.17,2.04-.5,4.09-1.41,6.01-2.25,1.65-.72,3.51-1.31,5.15-2.04,3.46-1.5,7.41-3.42,11.16-1.77,4.04,1.79,7.16,5.3,11.16,7.15,3.59,1.3,7.5.19,11.16-.24,5.14-.8,10.3-1.78,15.46-2.52,2.25-.32,4.61-.62,6.87-.82,1.12.24,2.38.83,3.43,1.27,2.59,1.11,5.18,2.46,7.73,3.66,1.63.39,3.49.11,5.15.19,2.83,0,5.75,0,8.59,0"/><path class="b" d="M9.7,199.26c4.85,0,9.75,0,14.6,0,4.55-.94,8.85-3.07,12.88-5.32.77-.42,1.74-1.04,2.58-1.31,1.97-.19,4.09-.14,6.01.38,3.62,1.31,7.27,2.87,11.16,3.15,7.14.54,14.37.48,21.47,1.55,4.26.52,8.79.77,12.88-.77,1.99-.79,4.02-1.82,6.01-2.61,1.71-.57,3.54-1.22,5.15-2.03,3.85-1.74,7.52-5.28,12.02-4.58,3.66.88,6.71,3.3,9.45,5.78,2.66,2.16,6.26,1.84,9.45,1.5,4.02-.4,8.05-1.18,12.02-1.91,2.83-.52,5.74-1.03,8.59-1.41,1.46.29,2.94,1.12,4.29,1.72,2.3,1.11,4.64,2.39,6.87,3.64,1.38.68,2.79,1.82,4.29,2.19,4.27,0,8.61,0,12.88,0"/><path class="b" d="M9.7,194.6c4.85,0,9.75,0,14.6,0,3.97-1.13,7.68-3.35,11.16-5.54,2.59-1.55,4.94-3.81,7.73-4.97,3.09-.09,5.9,1.45,8.59,2.77,2.98,1.53,6.16,2.87,9.45,3.61,4.52,1.04,9.17,1.74,13.74,2.55,4.5.84,9.26,1.6,13.74.27,2.38-.67,4.51-2.21,6.87-2.94,3.2-.77,6.55-1.37,9.45-3.05,5.03-2.51,12.23-9.89,18.03-6.59,1.73.93,3.23,2.56,5.15,3.15,5.89,1.42,12.07.56,18.03.12,1.37-.11,2.92-.23,4.29-.3,2.12.74,4.06,2.24,6.01,3.35,3.96,2.48,7.97,5,12.02,7.32,1.6.51,3.49.15,5.15.25,2.83,0,5.75,0,8.59,0"/><path class="b" d="M9.7,189.93c4.85,0,9.75,0,14.6,0,3.04-.97,5.86-2.85,8.59-4.5,4.25-2.72,8.04-6.17,12.02-9.24,1.2-1.21,2.8-.96,4.29-.55,3.92,1.1,6.95,4.1,10.3,6.24,4.91,3.28,10.56,5.43,16.31,6.68,5.49,1.39,11.67,1.12,16.31-2.44,1.79-1.11,4.02-.68,6.01-.85,2.6-.19,5.27-.75,7.73-1.65,3.05-1.17,6.07-2.83,8.59-4.93,2.76-2.35,5.29-5.26,8.59-6.86,1.29-.59,2.91-.8,4.29-.4,1.31.56,2.89.81,4.29.99,3.4.48,6.89.8,10.3,1.15,1.37.14,2.92.31,4.29.47.93-.04,1.94.69,2.58,1.32,4.4,3.75,8.9,7.53,13.74,10.71,2.21,1.31,4.42,3.04,6.87,3.85,4.27,0,8.61,0,12.88,0"/><path class="b" d="M9.7,185.27c3.99,0,8.03,0,12.02,0,.77,0,1.81,0,2.58,0,1.8-.48,3.49-1.68,5.15-2.5,4.92-2.7,9.52-6.04,13.74-9.74,1.4-1.22,2.93-2.61,4.29-3.86,1.35-1.27,2.26-2.32,4.29-2.06,4.88.5,9.7,7.57,13.74,10.54,8.26,6.77,17.88,9.09,26.62,1.71,3.9,1.08,8.01,1.05,12.02.66,3.83-.31,7.8-.8,11.16-2.8,5.21-2.71,8.48-8.2,13.74-10.73,2.73-.9,5.73-1.18,8.59-1.28,1.97-.03,4.06.15,6.01.46,1.29.64,2.37,2.04,3.43,2.98,3.3,3.19,6.69,6.41,10.3,9.25,3.45,2.74,7.26,5.09,11.16,7.12,1.61.47,3.49.14,5.15.23,2.83,0,5.75,0,8.59,0"/><path class="b" d="M9.7,180.61c4.85,0,9.75,0,14.6,0,1.77-.46,3.47-1.57,5.15-2.29,2.58-1.24,5.23-2.55,7.73-3.95,3.97-2.21,7.85-4.78,11.16-7.91,1.14-1.08,2.42-2.45,3.43-3.65.96-1.49,2.56-2.13,4.29-1.73,3.23.85,5.5,3.73,7.73,6.03,2.81,3.05,5.75,6.27,9.45,8.26,6.67,3.73,12.82.79,18.03-3.88,3.23,1.52,6.8,2.06,10.3,2.59,5.07.8,10.38,1.54,15.46.39,4.62-1.04,8.24-4.33,12.02-6.97,1.82-1.25,3.97-2.19,6.01-3.01,1.06-.44,2.34-.93,3.43-1.27,1.08-.38,2.41-.75,3.43-.02,4,1.98,7.57,4.82,11.16,7.43,3.84,2.84,7.84,5.6,12.02,7.91,1.36.68,2.8,1.72,4.29,2.07,1.07,0,2.36,0,3.43,0,3.12,0,6.32,0,9.45,0"/><path class="b" d="M9.7,175.95c4.85,0,9.75,0,14.6,0,2.28-.44,4.59-1.26,6.87-1.76,10.58-2.39,16.7-5.12,23.18-14.13,3.07-4.37,8.08-1.45,11.16,1.31,3.32,2.76,6.76,5.98,11.16,6.73,5.24.76,10.4-1.69,14.6-4.62,3.95,2.48,8.35,4.16,12.88,5.24,4.45,1.09,9.16,2.16,13.74,1.29,3.88-.73,7.19-3.14,10.3-5.42,2.17-1.57,4.56-3.02,6.87-4.36.76-.45,1.8-1.06,2.58-1.47,1.69-.36,3.56.3,5.15.83,4.07,1.59,7.63,4.34,11.16,6.85,3.59,2.6,7.31,5.16,11.16,7.35,1.37.7,2.79,1.78,4.29,2.16.76,0,1.82,0,2.58,0,3.41,0,6.89,0,10.3,0"/><path class="b" d="M9.7,171.29c4.85,0,9.75,0,14.6,0,3.4-.43,6.88-.77,10.3-1,10.66-.76,14.07-3.28,20.61-11.35,3.05-3.09,7.39-3.17,11.16-1.4,3.07,1.31,6.14,2.9,9.45,3.51,5.24.96,10.95-.02,15.46-2.89.91.05,1.82.83,2.58,1.26,1.34.8,2.88,1.62,4.29,2.3,5.89,2.67,12.31,5.23,18.89,4.77,5.41-.45,9.97-3.79,14.6-6.32,2.01-1.18,4.05-2.57,6.01-3.84,2.19-.74,4.71-.25,6.87.41,3.73,1.27,7.06,3.59,10.3,5.77,3.62,2.48,7.34,4.95,11.16,7.1,1.06.55,2.25,1.43,3.43,1.69,1.07,0,2.36,0,3.43,0,3.12,0,6.32,0,9.45,0"/><path class="b" d="M9.7,166.62c6-.04,12.04.12,18.03-.14,3.7.03,7.46.13,11.16.1,4,.11,8.15-1.21,11.16-3.89,2.02-1.83,3.92-4.02,6.01-5.77,3.97-2.79,8.29-3.05,12.88-1.91,6.43,1.54,13.31,2.58,19.75.56,1.12-.25,2.27-1.18,3.43-1.06,1.67.89,3.47,1.86,5.15,2.72,7.31,3.75,15.77,7.44,24.04,4.8,2.02-.6,4.07-1.48,6.01-2.3,1.7-.69,3.57-1.37,5.15-2.32,1.1-.65,2.38-1.49,3.43-2.2.99-.69,2.18-1.57,3.43-1.67,5.94-1.09,11.46,2.24,16.31,5.24,4.2,2.64,8.48,5.28,12.88,7.58,1.61.49,3.49.14,5.15.24,2.83,0,5.75,0,8.59,0"/><path class="b" d="M9.7,161.96c6.28-.03,12.61.08,18.89-.06,4.56-.23,9.17-1.16,13.74-.64,1.1.09,2.33.57,3.43.59,1.88-.67,3.63-1.94,5.15-3.2,7.55-6.92,12.44-7.54,22.33-6.18,5.39.6,10.98,1.12,16.31-.15.78-.19,1.76-.7,2.58-.43,1.71.61,3.5,1.39,5.15,2.14,8.33,3.94,15.61,6.87,24.9,4.13,1.68-.44,3.47-.98,5.15-1.41,1.08-.28,2.41-.47,3.43-.93,1.74-.88,3.51-2.05,5.15-3.1,1-.68,2.21-1.52,3.43-1.71,6.4-1.65,12.61,1.63,18.03,4.71,2.54,1.43,5.15,2.93,7.73,4.29,1.36.65,2.81,1.63,4.29,1.96,4.27,0,8.61,0,12.88,0"/><path class="b" d="M9.7,157.3c6.28-.07,12.61.16,18.89-.12,5.11-.35,10.36-1.64,15.46-.51.8.17,1.75.69,2.58.38,1.79-.83,3.55-2.05,5.15-3.19,7.29-5.78,15.28-5.59,24.04-4.53,3.4.34,6.88.71,10.3.67,1.69.03,3.48-.34,5.15-.46,1.1.12,2.37.42,3.43.71,13.57,4.48,15.21,6.27,30.05,3.75,1.37-.18,2.91-.27,4.29-.33,2.02-1.01,4.08-2.24,6.01-3.41,1.33-.78,2.74-1.87,4.29-2.17,11.01-2.84,20.22,5.97,30.05,9.2,4.27,0,8.61,0,12.88,0"/><path class="b" d="M9.7,152.64c6.29.02,12.61-.02,18.89-.02,4.55-.24,9.18-1.19,13.74-.5.78.12,1.78.44,2.58.42,1.78-.61,3.57-1.61,5.15-2.62,6.57-4.87,13.47-5.94,21.47-4.93,4.59.54,9.14,1.63,13.74,2.09,3.7.37,7.5-.26,11.16.55,4.85.94,9.64,2.51,14.6,2.82,4.84.39,9.75-.25,14.6.16,2.17.15,4.17-1.09,6.01-2.07,2.82-1.35,5.44-3.53,8.59-4.04,10.54-2.11,19.59,5.31,29.2,8.14,4.27,0,8.61,0,12.88,0"/><path class="b" d="M9.7,147.97c5.71-.12,11.49.29,17.17-.24,3.7-.26,7.46.18,11.16.03,3.29-.09,6.63-.93,9.45-2.67,2.59-1.54,5-3.58,7.73-4.9,3.23-1.23,6.88-1.41,10.3-1.17,7.08.58,13.62,3.86,20.61,4.9,3.99.54,8.02-.66,12.02-.19,4,.27,8.03.87,12.02,1.17,3.99.33,8.07.47,12.02,1.13,2.96.69,5.99-.37,8.59-1.74,2.26-1.09,4.6-2.27,6.87-3.34,6.59-2.04,13.59,0,19.75,2.52,3.98,1.49,7.87,3.57,12.02,4.51,4.27,0,8.61,0,12.88,0"/><path class="b" d="M9.7,143.31c4.85,0,9.75,0,14.6,0,1.97-.43,3.99-1.16,6.01-1.38,3.11-.46,6.34-.58,9.45-1.12,3.02-.51,6.04-1.58,8.59-3.3,6.26-4.3,7.11-6.5,15.46-6.07,8.04.64,14.64,6.07,22.33,7.96,3.12.67,6.32-.14,9.45-.36,4.55-.36,9.17-.53,13.74-.55,3.13,0,6.34.11,9.45.5,1.38.15,2.91.51,4.29.65,1.71.11,3.55-.23,5.15-.81,2.83-1.13,5.7-2.36,8.59-3.34,1.3-.56,2.91-.46,4.29-.41,2.9.16,5.83.81,8.59,1.69,6.59,2.08,12.87,5.43,19.75,6.52,4.27,0,8.61,0,12.88,0"/><path class="b" d="M9.7,138.65c3.41,0,6.89,0,10.3,0,1.97-.14,4.3.49,6.01-.77,2.91-1.66,6.16-2.82,9.45-3.43,3.42-.67,6.99-.98,10.3-2.12,3.93-1.23,6.99-4.19,10.3-6.47,3.26-1.34,6.74-2.58,10.3-2.53,8.01-.01,13.68,6.52,20.61,9.47,2.17.81,4.58.92,6.87.92,3.13.04,6.34-.17,9.45-.56,5.14-.62,10.28-1.63,15.46-1.94,2.25-.21,4.62.14,6.87-.15,2.62-.39,5.14-1.54,7.73-2.1,1.36-.33,2.91-.63,4.29-.84,2.94.29,5.83,1.46,8.59,2.47,5.99,2.36,11.78,5.41,18.03,7.03,2.23.47,4.57,1.15,6.87,1.01,3.7,0,7.46,0,11.16,0"/><path class="b" d="M9.7,133.99c3.13,0,6.32,0,9.45,0,1.08,0,2.35,0,3.43,0,.81,0,1.85.09,2.58-.33,3.82-2.75,7.62-5.77,12.02-7.55,4.11-1.73,8.68-2.07,12.88-3.52,2.21-.71,4.09-2.28,6.01-3.5,5.03-1.75,9.98-4.6,15.46-4.47,14.82,1.34,13.25,16.36,37.78,11.57,6.03-1.17,12.01-2.78,18.03-3.98,2.49-.83,5.1-1.66,7.73-1.9.75-.08,1.82-.16,2.58-.18,1.47.33,2.94,1.24,4.29,1.89,2.59,1.36,5.2,2.91,7.73,4.37,6.08,3.64,12.67,6.68,19.75,7.6,4.27,0,8.61,0,12.88,0"/><path class="b" d="M9.7,129.32c3.99,0,8.03,0,12.02,0,3.33.17,3.47-.23,6.01-2.15,2.64-2.04,5.15-4.43,7.73-6.55,2.76-2.28,5.91-4.34,9.45-5.13,2.5-.65,5.21-.46,7.73-.95,1.16-.27,2.33-1.05,3.43-1.44.78-.09,1.82-.31,2.58-.5,2.62-.7,5.22-1.79,7.73-2.82,8.64-3.71,14.16-5.25,21.47,1.98,3.04,2.87,6.21,5.97,10.3,7.23,7.95,2.4,16.41-.11,24.04-2.58,3.81-1.16,7.22-3.58,11.16-4.27,4.68-.75,4.82-.29,8.59,2.36,2.86,2.03,5.72,4.25,8.59,6.28,5.62,4.06,12,7.37,18.89,8.54,4.27,0,8.61,0,12.88,0"/><path class="b" d="M9.7,124.66c3.41,0,6.89,0,10.3,0,1.38,0,2.91,0,4.29,0,.87-.15,1.84-.79,2.58-1.23,3.54-2.19,6.53-5.27,9.45-8.21,3.29-3.27,7.07-7.08,12.02-7.16,1.71-.08,3.46.54,5.15.63,1.09-.04,2.36-.41,3.43-.06,5.64.7,11.34-1.16,16.31-3.69,5.12-2.6,11.09-7.29,16.31-2.23,3.92,4.25,7.81,8.4,13.74,9.64,6.77,1.4,15.09.19,21.47-2.39,5.28-2.38,6.1-5.44,12.88-5.47,1.9.8,3.52,2.45,5.15,3.69,2.83,2.34,5.68,4.82,8.59,7.06,5.14,4.01,10.97,7.25,17.17,9.29,4.53.35,9.18.03,13.74.14"/><path class="b" d="M9.7,120c3.41,0,6.89,0,10.3,0,1.96-.12,4.2.39,6.01-.55,10.2-3.9,15.99-18.76,24.9-16.27.8.23,1.81.7,2.58,1.02.76.28,1.83.49,2.58.81,1.02.62,2.3,1.22,3.43,1.61,6.08,2.17,12.85,1.58,18.03-2.42,3.58-2.33,6.8-6.81,11.16-7.41,2.21-.17,3.58,2.08,5.15,3.27,2.32,2.03,4.93,3.91,7.73,5.22,5.91,2.81,18.06,4.71,24.04,1.77,5-2.65,5.26-6.33,12.02-7.53,1.92.5,3.56,2.07,5.15,3.2,2.86,2.25,5.69,4.71,8.59,6.91,5.01,3.9,10.64,6.99,16.32,9.81,1.81.95,4.05.43,6.01.55,2.83,0,5.75,0,8.59,0"/><path class="b" d="M9.7,115.34c3.41,0,6.89,0,10.3,0,1.96-.1,4.15.33,6.01-.46,11.69-3.68,17.15-18.01,25.76-15.34,1.46.56,2.98,1.46,4.29,2.31,1,.88,2.28,1.77,3.43,2.44,3.16,1.79,6.67,3.23,10.3,3.64,12.96,1.51,17.49-14.65,23.18-10.46,5.58,2.95,11.15,6.08,17.17,8.08,4.35,1.52,9.14,3.24,13.74,1.77,2.84-.83,4.97-3.1,6.87-5.25,1.41-1.43,3.39-2.45,5.15-3.37.73-.34,1.74-.9,2.58-.76,2.14.51,4.17,1.7,6.01,2.86,3.15,2.03,6.26,4.29,9.45,6.26,3.31,2.08,6.84,3.96,10.3,5.76,1.7.76,3.32,2.13,5.15,2.53,4.27,0,8.61,0,12.88,0"/><path class="b" d="M9.7,110.68c3.13,0,6.32,0,9.45,0,1.96-.07,4.07.17,6.01-.14,4.98-1.45,9.65-3.95,13.74-7.13,3.7-2.62,7.26-6.45,12.02-6.8,3.91-.13,6.45,3.28,9.45,5.22,6.38,4.53,14.58,6.14,21.47,1.74,1.73-1.03,3.47-2.35,5.15-3.46,1.5-.98,3.3-2.04,5.15-1.6,5.95.73,11.44,3.42,17.17,5.01,3.87,1.08,8.04,1.8,12.02.97,2.16-.45,4.3-1.47,6.01-2.86,1.13-.84,2.1-2.35,3.43-2.89,1.62-.72,3.44-1.34,5.15-1.77.75-.18,1.8-.49,2.58-.29,5.39,1.66,10.35,4.55,15.46,6.91,3.39,1.62,6.89,3.19,10.3,4.77,1.7.67,3.37,1.88,5.15,2.32,4.27,0,8.61,0,12.88,0"/><path class="b" d="M9.7,106.01c3.7,0,7.46,0,11.16,0,1.08,0,2.35,0,3.43,0,1.72-.26,3.49-.97,5.15-1.46,4.07-1.31,8.09-2.95,12.02-4.65,3.51-1.45,7.27-3.18,11.16-2.75,2.75.31,5.19,1.87,7.73,2.85,3.27,1.32,6.78,2.26,10.3,2.51,5.9.55,10.31-1.61,15.46-4.03,2.4-1.04,5.15-1.06,7.73-1.1,9.97.1,20.51,4.92,30.05.09,4.41-2.38,3.63-3.61,9.45-3.93,1.37-.08,2.92-.06,4.29.03,1.45.43,2.92,1.32,4.29,1.96,3.37,1.68,6.83,3.34,10.3,4.8,5.55,2.33,11.36,4.2,17.17,5.68,4.27,0,8.61,0,12.88,0"/><path class="b" d="M9.7,101.35c4.85,0,9.75,0,14.6,0,2.58-.5,5.15-1.48,7.73-2.03,3.65-.88,7.42-1.53,11.16-1.89,2.54-.24,5.18-.37,7.73-.22,1.69.06,3.47.47,5.15.51,6.29-.27,12.62.79,18.89.19,3.22-.32,6.33-1.51,9.45-2.29,1.65-.37,3.49-.43,5.15-.7,2.82-.44,5.73-.89,8.59-1.01,7.75-.31,15.82.35,23.18-2.57,2.61-.9,4.92-2.91,7.73-3.19,2.29-.14,4.67.31,6.87.92,1.57.29,3.03,1.23,4.29,2.17,9.55,6.55,17.69,9.21,29.2,10.11,4.27,0,8.61,0,12.88,0"/><path class="b" d="M9.7,96.69c4.85,0,9.75,0,14.6,0,2.28-.47,4.56-1.4,6.87-1.77,3.94-.78,8.05-.74,12.02-.24,3.42.41,6.87,1.09,10.3,1.39,1.8.28,3.46-.95,5.15-1.38,2.2-.7,4.57-1.11,6.87-1.26,2.83-.19,5.76-.09,8.59-.35,2.57-.21,5.18-.78,7.73-1.16,1.66-.25,3.49-.18,5.15-.42,2.87-.38,5.75-1.11,8.59-1.67,8.06-1.6,16.31-2.74,24.04-5.63,3.12-1.03,6.08-3.05,9.45-3.13,2.06,0,4.17.71,6.01,1.59,1.53.7,3.17,1.64,4.29,2.93,6.7,6.75,15.12,11.62,24.9,11.05,6,.07,12.03.02,18.03.04"/><path class="b" d="M9.7,92.03c4.85,0,9.75,0,14.6,0,1.42-.26,2.89-.98,4.29-1.31,2.2-.6,4.59-.88,6.87-.78,3.49.14,6.94,1.14,10.3,2.02,1.98-.18,4-.89,6.01-.92,1.21-.17,2.46.19,3.43.93,5.48-3.04,9.26-3.71,15.46-3.8,4-.08,8.02-.8,12.02-.77,4.35.02,8.68-1.01,12.88-2.06,4.63-1.18,9.26-2.6,13.74-4.25,4.06-1.49,8.08-3.24,12.02-5,3.04-1.23,6.1-3.07,9.45-3.16,2.58.08,4.93,1.58,6.87,3.16,1.18,1.3,2.35,3.04,3.43,4.42,2.48,3.21,5.23,6.43,8.59,8.76,1.79,1.2,3.88,2.31,6.01,2.73,1.92-.5,4.03-.67,6.01-.6,2.55.07,5.18.51,7.73.63,4.27,0,8.6,0,12.88,0"/><path class="b" d="M9.7,87.36c4.85,0,9.75,0,14.6,0,7.35-2.85,10.5-2.89,18.03-.43,1.68.8,3.45-.32,5.15-.51,1.37-.23,2.94-.36,4.29-.02.81.21,1.71.9,2.58.68,4.88-3.47,10.46-4.35,16.31-4.39,2.84-.09,5.75-.24,8.59-.29,3.13.02,6.33.07,9.45-.3,7.71-.73,15.25-2.98,22.33-6.08,5-2.16,9.71-5.04,14.6-7.44,4.52-1.87,6.79-6.28,12.02-2.39,5.38,7,8.57,17.36,17.17,21.16,4.39-1.77,9.22-.59,13.74-.05,4.56.15,9.18.01,13.74.06"/><path class="b" d="M9.7,82.7c4.85,0,9.75,0,14.6,0,2-.62,3.92-1.87,6.01-2.27,2.81-.69,5.81-.38,8.59.33,5.17,1.38,9.67,3.09,14.6-.11,2.09-1.39,4.44-2.53,6.87-3.17,7.56-1.89,15.48-.73,23.18-1.02,4.28-.18,8.6.47,12.88.24,6.81-.45,13.56-2.23,19.75-5.11,4.15-1.84,7.99-4.42,12.02-6.48,1.51-.51,2.43-2.25,3.43-3.37,1.54-1.73,3.49-3.9,6.01-3.78,2.78,2.06,4.25,5.73,6.01,8.62,3.24,5.59,6.04,12.41,12.02,15.59,1.03.68,2.33.23,3.44.05,1.07-.13,2.36-.14,3.43-.08,6.6.75,13.12.54,19.75.55"/><path class="b" d="M9.7,78.04c4.85,0,9.75,0,14.6,0,2-.74,3.87-2.16,6.01-2.6,5.14-1.45,10.29,1.01,15.46.75,3.81-.26,7.05-2.52,10.3-4.27,2.72-1.04,5.68-1.66,8.59-1.81,4.88-.25,9.77.59,14.6,1.19,2.82.43,5.78.33,8.59.87,2.04.35,4.04,1.23,6.01,1.82,2.48.71,5.15,1.05,7.73,1.03,8.3-.13,16.15-3.63,23.18-7.8,1.67-1.03,3.55-2.04,5.15-3.17,1.65-1.53,2.88-3.77,4.29-5.49.69-.89,1.75-2.08,2.58-2.85,0,0,.86-.71.86-.71,0,0,.86-.15.86-.15,2.68.72,4.46,3.3,6.01,5.43,4.09,5.69,7.06,13.12,13.74,16.25,2.95,1.28,6.3,1.22,9.45,1.42,4.84.24,9.75.04,14.6.1"/><path class="b" d="M9.7,73.38c3.13,0,6.32,0,9.45,0,1.08,0,2.35,0,3.43,0,.46,0,1.27,0,1.72,0,.5-.14,1.33-.64,1.72-.97,6.64-4.8,10.9-2.31,18.03-2.55,4.38-.4,8.13-3,12.02-4.81,1.93-.49,4.02-.82,6.01-.9,6.22-.3,12.15,2.01,18.03,3.69,2.21.68,4.6.88,6.87,1.23,1.75.35,3.55,1.06,5.15,1.85,7.69,3.36,16.42,1.25,24.04-1.28,4.53-1.55,8.92-3.69,12.88-6.39,2.79-1.95,4.55-5.16,6.87-7.59,1.86-2.28,3.18-2.82,6.01-1.57,5,2.86,7.89,8.28,12.02,12.15,4.34,4.5,9.42,6.17,15.46,7.14,4.27,0,8.6,0,12.88,0"/><path class="b" d="M9.7,68.72c3.41,0,6.89,0,10.3,0,1.38,0,2.91,0,4.29,0,.92-.31,1.82-1.27,2.58-1.85,2-1.58,4.36-2.92,6.87-3.46,4.54-.92,9.5-.01,13.74-2.27,2.96-1.25,5.67-3.2,8.59-4.51,5.45-1.04,11.16-.51,16.32,1.52,3.48,1.29,6.83,3.09,10.3,4.38,1.94.74,4.16.98,6.01,1.95,1.72.81,3.39,2.01,5.15,2.73,4.05,1.65,8.61,1.57,12.88.97,7.8-1.3,15.9-3.26,22.33-8.08,2.11-1.63,3.99-3.78,6.01-5.52,1.02-.81,2.14-2.05,3.43-2.39,6.74-.53,12.01,6.46,17.17,9.97,4.07,3.04,8.83,5.28,13.74,6.55,4.27,0,8.61,0,12.88,0"/><path class="b" d="M9.7,64.05c4.85,0,9.75,0,14.6,0,1.61-.77,2.84-2.48,4.29-3.51,2.25-1.84,4.92-3.3,7.73-4.05,2.83-.78,5.85-1.2,8.59-2.31,2.11-.84,4.09-2.23,6.01-3.43,1.67-.99,3.34-2.33,5.15-3.03,2.83-.23,5.76-.27,8.59.08,5.84.66,11.28,3.16,16.31,6.09,2.17,1.34,4.68,2.29,6.87,3.59,4.32,3.11,7.28,5.45,12.88,5.77,3.72.26,7.51-.23,11.16-.9,3.79-.73,7.63-1.66,11.16-3.23,1.79-.8,3.62-1.9,5.15-3.13,1.33-1.13,2.78-2.47,4.29-3.35,1.86-1.02,3.86-2.47,6.01-2.64,4.7.66,8.85,3.3,12.88,5.64,5.4,3.36,11.25,5.97,17.17,8.25,1.63.38,3.49.11,5.15.19,2.83,0,5.75,0,8.59,0"/><path class="b" d="M9.7,59.39c4.85,0,9.75,0,14.6,0,1.31-.52,2.36-1.92,3.43-2.79,1.31-1.19,2.83-2.46,4.29-3.47,3.59-2.56,7.93-3.75,12.02-5.23,3.04-1.05,5.87-2.74,8.59-4.43,5.73.32,11.45,1.23,17.17,1.6,6.49.54,8.5-.38,14.6,3.15,6.85,3.74,8.08,7.92,17.17,8.72,3.13.28,6.34.01,9.45-.32,4.4-.48,8.86-1.39,12.88-3.27,2.2-1,4.21-2.6,6.01-4.19,1.26-.73,2.87-1.11,4.29-1.37,2.23-.36,4.62-.38,6.87-.16,3.98,2.02,7.92,4.28,12.02,6.07,5.27,2.29,10.87,3.91,16.31,5.68,4.28,0,8.6,0,12.88,0"/><path class="b" d="M9.7,54.73c3.41,0,6.89,0,10.3,0,4.67-.08,4.12.71,7.73-2.45,2.63-2.19,5.45-4.35,8.59-5.76,2.97-1.35,6.24-2.11,9.45-2.64,1.08-.18,2.35-.37,3.43-.54.45.12,1.28.34,1.72.46,1.07.28,2.35.45,3.43.63,1.66.49,3.46.99,5.15,1.36,3.92.83,8.22,1.07,12.02-.39,3.17-1.17,6.12-3.12,9.45-3.86,5.58-1.31,9.09,4.19,13.74,6.12,7.01,3.4,20.22,2.74,27.48.11,1.77-.64,3.6-1.54,5.15-2.61,1.09-.69,2.14-1.97,3.43-2.26,4.38-.93,8.78.85,12.88,2.24.88.24,1.83,1.05,2.58,1.54,1.04.7,2.33,1.49,3.43,2.09,2.94,1.61,6.19,2.78,9.45,3.55,3.12.76,6.41,1.19,9.45,2.26,1.64.33,3.48.09,5.15.16,2.83,0,5.75,0,8.59,0"/><path class="b" d="M9.7,50.07c3.13,0,6.32,0,9.45,0,1.08,0,2.35,0,3.43,0,.8,0,1.84.08,2.58-.29,2.8-1.78,5.54-3.85,8.59-5.2,3.73-1.73,8.02-2.02,12.02-1.2,2.98,1.5,6.16,2.68,9.45,3.27,4.97,1.69,10.68,2,15.46-.45,2.78-1.37,5.3-3.38,7.73-5.27,2.48-1.9,5.3-4.1,8.59-4,2.43.3,4.59,1.86,6.87,2.66,4.88,2.03,10.21,2.67,15.46,2.85,3.98.19,8.14.4,12.02-.64,2.06-.55,4.18-1.39,6.01-2.48,1.89-1.17,3.68-2.92,6.01-3.1,3.75-.39,7.2,1.74,10.3,3.57,1.37.85,2.94,1.76,4.29,2.64,1.75,1.65,3.83,3.17,6.01,4.19,3.73,1.82,7.99,2.03,12.02,2.68,1.09.17,2.34.63,3.43.77,1.07,0,2.37,0,3.43,0,3.12,0,6.32,0,9.45,0"/><path class="b" d="M9.7,45.4c3.13,0,6.32,0,9.45,0,1.96-.11,4.11.27,6.01-.23,2.25-1.18,4.51-2.57,6.87-3.52,3.46-1.37,7.63-1.83,11.16-.5,2.47,1.12,5.09,2.17,7.73,2.8,1.07.26,2.35.43,3.43.56.76.28,1.79.63,2.58.84,1.96-.3,4.01-.77,6.01-.72,1.09,0,2.37.11,3.43.29.78.13,1.78.46,2.58.34,1.12-.35,2.4-.89,3.43-1.43,3.16-1.66,5.92-4.09,8.59-6.43,2.49-2.07,5.16-4.74,8.59-4.88,2.65.22,5.2,1.46,7.73,2.21,3.62,1.22,7.38,2.27,11.16,2.88,5.97.89,12.3,1.38,18.03-.87,2.72-.96,5.11-2.81,7.73-4,5.96-2.52,11.48,2.28,16.31,5.19.85.51,1.8,1.49,2.58,2.1,1.5,1.2,3.33,2.23,5.15,2.85,2.19.75,4.6,1.04,6.87,1.45,1.4.22,2.9.83,4.29,1.06,4.27,0,8.61,0,12.88,0"/><path class="b" d="M9.7,40.74c3.13,0,6.32,0,9.45,0,1.96-.1,4.09.23,6.01-.2,2.25-.98,4.53-2.17,6.87-2.91,2.18-.7,4.59-.98,6.87-.77,1.1.31,2.35.82,3.43,1.18,3.86,1.41,7.94,2.23,12.02,2.59,2.71-1.06,5.68-1.59,8.59-1.61,2.57,0,5.24.34,7.73.98.77.2,1.77.6,2.58.63,1.11-.42,2.39-1.01,3.43-1.57,2.7-1.43,5.24-3.31,7.73-5.07,2.52-1.74,5.37-3.77,8.59-3.54,4.95.68,9.7,2.55,14.6,3.52,10.72,2.16,18.51,2.55,28.34-2.93,4.66-2.29,9.31-1.45,13.74.93,1.66.87,3.52,1.72,5.15,2.64.7.62,1.78,1.39,2.58,1.89,2.59,1.63,5.69,2.28,8.59,3.13,1.09.3,2.32.93,3.43,1.11,1.07,0,2.37,0,3.43,0,3.12,0,6.32,0,9.45,0"/><path class="b" d="M9.7,36.08c4.85,0,9.75,0,14.6,0,2.63-.59,5.1-2.04,7.73-2.67,1.07-.29,2.34-.54,3.43-.65,1.7.2,3.48.76,5.15,1.11,3.09.72,6.28,1.36,9.45,1.62.78.05,1.81.14,2.58.29.79.31,1.81.14,2.58-.17,3.04-.89,6.3-1.12,9.45-.95,3.16.17,6.36.7,9.45,1.39,2.31-.6,4.68-1.43,6.87-2.38,9.07-4,10.2-6.44,20.61-3.9,8.98,2,18.27,3.98,27.48,2.49,3.24-.52,6.36-1.81,9.45-2.9,7.7-2.94,12.28-1.48,19.75,1.18,3.01,2.49,6.86,3.6,10.3,5.31,1.62.46,3.49.13,5.15.23,2.83,0,5.75,0,8.59,0"/><path class="b" d="M9.7,31.42c4.85,0,9.75,0,14.6,0,2.61-.52,5.13-1.8,7.73-2.42,1.09-.1,2.36.11,3.43.2,3.7.4,7.45.93,11.16,1.2,2.86.17,5.81.21,8.59,1.01,2.79-.59,5.74-.72,8.59-.63,2.55.09,5.19.33,7.73.63,5.86-.55,11.56-2.2,17.17-3.9,7.34-2.35,14.96.22,22.33,1.15,8.82,1.37,17.89,1.5,26.62-.51,9.07-2.14,12.68-3.53,22.33-1.74,1.29.02,2.45,1.02,3.43,1.74,1.03.7,2.35,1.42,3.43,2.02.73.41,1.74,1.08,2.58,1.25,1.37,0,2.92,0,4.29,0,2.83,0,5.75,0,8.59,0"/><path class="b" d="M9.7,26.75c4.85,0,9.75,0,14.6,0,1.43-.19,2.92-.83,4.29-1.24,2.82-.3,5.76,0,8.59.04,4.85.21,9.75.32,14.6.39,3.12.28,6.3.8,9.45.75,5.72.01,11.49-.21,17.17-.82,3.72-.39,7.46-1.16,11.16-1.67,7.45-1.01,14.92.46,22.33,1.21,7.69.79,15.48.7,23.18.14,8.9-.33,17.68-2.71,26.62-1.94.75.05,1.82.12,2.58.19,1.83.63,3.24,2.48,5.15,2.95,4.27,0,8.61,0,12.88,0"/><path class="b" d="M9.7,22.09c4.56,0,9.18,0,13.74,0,.79.06,1.8-.15,2.58-.25,1.68-.01,3.48-.02,5.15-.02,12.59-.07,25.19.14,37.78.15,10.6.14,21.17-1.46,31.77-.83,8.57.63,17.17.91,25.76.78,11.44.03,22.9-.32,34.35-.41,2.25,0,4.62.03,6.87.07.74.23,1.79.61,2.58.5,3.99,0,8.03,0,12.02,0"/><path class="b" d="M9.7,17.43h172.59"/><path class="b" d="M9.7,12.77h172.59"/><path class="b" d="M9.7,8.11h172.59"/></svg>