<?xml version="1.0" encoding="UTF-8"?><svg id="a" xmlns="http://www.w3.org/2000/svg" width="1920" height="2400" viewBox="0 0 192 240"><defs><style>.b{fill:none;stroke:#fff;stroke-miterlimit:10;stroke-width:.3px;}.c{stroke-width:0px;}</style></defs><rect class="c" x="0" width="192" height="240"/><path class="b" d="M9.7,231.89h172.59"/><path class="b" d="M9.7,227.23h172.59"/><path class="b" d="M9.7,222.57c16.88,0,33.78,0,50.66,0,6.28,0,12.61,0,18.89,0,3.7-.1,7.46-.4,11.16-.35,12.59.33,25.19.41,37.78.35,18.03,0,36.07,0,54.1,0"/><path class="b" d="M9.7,217.91c3.41,0,6.89,0,10.3,0,1.99-.13,4.3.48,6.01-.79,14.59.22,29.21.84,43.79.49,6.33-.27,12.56-1.95,18.89-2.04,3.43.03,6.88.68,10.3.9,5.42.45,10.89.63,16.31.95,3.69.26,7.46.07,11.16.14,3.41.04,6.89.3,10.3.32,10.01-.12,20.06.26,30.05-.31.78-.17,1.81.23,2.58.34,4.27,0,8.61,0,12.88,0"/><path class="b" d="M9.7,213.25c4.85,0,9.75,0,14.6,0,1.85-.72,3.28-2.51,5.15-3.24,8.23,1.34,16.54,2.54,24.9,2.42,5.12.46,10.35.48,15.46-.07,4.07-.47,8.1-1.48,12.02-2.61,2.5-.69,5.12-1.39,7.73-1.44,3.73.1,7.47.91,11.16,1.37,5.69.86,11.45,1.51,17.17,2.07,2.83.08,5.75.08,8.59.15,3.13.33,6.28,1.14,9.45,1.27,3.69.11,7.46-.25,11.16-.15,2.84-.05,5.76.19,8.59.18,2.84-.23,5.77-.53,8.59-1,1.74-.04,3.5.65,5.15,1.05,4.27,0,8.61,0,12.88,0"/><path class="b" d="M9.7,208.58c3.12,0,6.32,0,9.45,0,1.08,0,2.36,0,3.43,0,.81,0,1.88.1,2.58-.39,2.35-1.91,4.71-4.38,7.73-5.15,3.1,1.04,6.25,2.22,9.45,2.94,3.64.85,7.43,1.18,11.16,1.16,5.1.75,10.36.61,15.46-.04,4.39-.65,8.69-1.97,12.88-3.41,2.74-.9,5.66-1.81,8.59-1.62,4.56.68,9.17,1.46,13.74,2.08,4.55.65,9.17,1.17,13.74,1.64,2.83.15,5.76-.12,8.59.13,2.3.4,4.56,1.38,6.87,1.72,4.23.72,8.6.83,12.88.57,3.43-.22,6.91-.68,10.3-1.19,1.97-.2,4.03-.97,6.01-.54,1.4.22,2.96.59,4.29,1.08.76.29,1.77.87,2.58,1.03,4.27,0,8.61,0,12.88,0"/><path class="b" d="M9.7,203.92c4.56,0,9.18,0,13.74,0,.99.19,1.94-.54,2.58-1.22,1.07-1,2.31-2.19,3.43-3.12,1.71-1.34,5.56-4.33,7.73-2.84,5.49,2.96,10.11,4.28,16.32,4.61,3.07.71,6.31.77,9.45.6,3.77-.14,7.56-.77,11.16-1.89,5.37-1.37,10.62-4.78,16.31-4.07,3.66.88,7.48,1.33,11.16,2.12,7.33,1.39,14.89,2.34,22.33,1.21,2.68-.52,5.23.8,7.73,1.52,2.49.66,5.16.9,7.73.88,4.31-.03,8.63-.72,12.88-1.33,1.67-.24,3.48-.48,5.15-.7.77.08,1.83.39,2.58.61,2,.59,4.09,1.29,6.01,2.1,1.1.41,2.29,1.24,3.43,1.51,4.27,0,8.61,0,12.88,0"/><path class="b" d="M9.7,199.26c4.85,0,9.75,0,14.6,0,1.68-.75,2.93-2.56,4.29-3.76,2.46-2.41,5.18-4.95,8.59-5.88.78-.2,1.79-.42,2.58-.19,1.07.65,2.33,1.41,3.43,2,2.65,1.44,5.59,2.54,8.59,2.97,2.26.46,4.54,1.3,6.87,1.37,5.2.28,10.54-.19,15.46-1.98,4.81-1.44,9.44-4.44,14.6-4.21.79.07,1.84.33,2.58.63,1.68.24,3.5.42,5.15.81,3.98.88,7.95,2.12,12.02,2.54,3.11.27,6.38.37,9.45-.23,2.9-.57,5.68-1.92,8.59-2.41,1.45-.15,2.95.51,4.29.94,1.05.31,2.35.57,3.43.71,3.98.51,8.05.06,12.02-.26,2.54-.21,5.18-.37,7.73-.41,1.45.45,2.92,1.37,4.29,2.01,2.24,1.14,4.6,2.3,6.87,3.39,1.39.59,2.82,1.6,4.29,1.96,4.27,0,8.61,0,12.88,0"/><path class="b" d="M9.7,194.6c4.85,0,9.75,0,14.6,0,1.68-.67,2.96-2.4,4.29-3.57,2.64-2.6,5.29-5.46,8.59-7.23,1.3-.68,2.84-1.19,4.29-1.37.88-.21,1.9.11,2.58.67,2.65,1.71,5.55,3.21,8.59,4.08,3.21,1.51,6.76,2.24,10.3,2.18,3.15-.05,6.45-.23,9.45-1.31,4.35-1.39,8.4-3.82,12.88-4.78,1.68-.34,3.55-.21,5.15.41,1.98.19,4.09.24,6.01.82,3.14.83,6.24,2.08,9.45,2.64,3.67.59,7.66.49,11.16-.83,2.35-.93,4.69-2.14,6.87-3.42,1.87-.95,3.75-3.02,6.01-2.18,6.49,1.32,13.23.99,19.75,2.14,1.33.03,2.43,1.24,3.43,1.97,1.05.82,2.35,1.78,3.43,2.55,2.71,1.93,5.64,3.73,8.59,5.28,1.36.64,2.81,1.62,4.29,1.94,4.27,0,8.61,0,12.88,0"/><path class="b" d="M9.7,189.93c4.85,0,9.75,0,14.6,0,1.97-.7,3.56-2.51,5.15-3.81,3.5-3.13,6.81-6.82,11.16-8.78,1.32-.57,2.86-.97,4.29-1.1.88-.18,1.89.19,2.58.72,3.01,1.81,6.23,3.52,9.45,4.92,2.72.97,5.71,1.32,8.59,1.21,2.58-.15,5.32-.5,7.73-1.47,4.95-1.87,9.91-5.97,15.46-5.02,1.63.58,3.48.1,5.15.35,2.04.26,4.1,1.01,6.01,1.74,10.56,4.35,15.41,1.18,24.9-3.37,1.84-.86,3.48-2.32,5.15-3.42,1.09-.13,2.36.22,3.43.37,4.61.76,9.2,1.87,13.74,2.95,2.67,1.87,5.04,4.35,7.73,6.22,2.72,2.05,5.63,4.01,8.59,5.71,1.91,1,3.89,2.32,6.01,2.79,4.27,0,8.61,0,12.88,0"/><path class="b" d="M9.7,185.27c3.13,0,6.32,0,9.45,0,1.96-.12,4.11.28,6.01-.24,8.06-4.19,14.15-13.6,24.04-13.24,2.44.89,4.6,2.68,6.87,3.92,5.58,3.11,12.44,2.59,18.03-.22,2.67-1.25,5.07-3.2,7.73-4.48,2.35-1.23,5.11-1.89,7.73-1.2,1.68-.04,3.48-.49,5.15-.14,3.58.63,6.79,2.66,10.3,3.54,1.92.49,4.03.71,6.01.6,1.97-.31,4.03-.79,6.01-.99,3.13-.42,6.32.45,9.45.23,1.17-.1,2.43-.68,3.43-1.27,1.57-.72,3.47-.83,5.15-.54,2.81.65,5.69,1.38,8.59,1.48,1.46.41,2.9,1.38,4.29,1.97,2.26,1.06,4.64,2.13,6.87,3.26,3.77,1.88,7.38,4.2,11.16,6.05,1.04.47,2.29,1.14,3.43,1.29,1.07,0,2.37,0,3.43,0,3.12,0,6.32,0,9.45,0"/><path class="b" d="M9.7,180.61c3.13,0,6.32,0,9.45,0,1.96-.08,4.08.2,6.01-.17,8.04-2.92,14.31-10.36,23.18-10.91,1.68-.04,3.63-.05,5.15.76,2.08,1.49,4.33,3.02,6.87,3.59,2.82.69,5.89.46,8.59-.59,3.88-1.5,7.03-4.43,10.3-6.9,2.62-2.22,5.8-4.73,9.45-4.26,1.38.39,2.91-.17,4.29-.22,2.39-.05,4.74.89,6.87,1.89,2.22,1.05,4.52,2.22,6.87,2.96,3.13.66,6.48.8,9.45,2.1,4.08,1.63,7.38,5.62,12.02,5.6,2.52-.45,5.16-.78,7.73-.79,1.37-.04,2.92-.06,4.29-.07,1.67.13,3.47.47,5.15.5,3.43.14,6.97.09,10.3,1.02,4.21,1.11,7.95,3.59,12.02,5.07,1.87.74,4.05.32,6.01.42,2.83,0,5.75,0,8.59,0"/><path class="b" d="M9.7,175.95c4.85,0,9.75,0,14.6,0,2.36-.35,4.66-1.45,6.87-2.33,3.41-1.45,6.84-3.07,10.3-4.4,3.77-1.45,8.02-2.58,12.02-1.41,1.83.56,3.42,1.96,5.15,2.73,3.79,1.89,8.46,1.77,12.02-.59,5.99-3.73,9.18-10.53,14.6-14.89,1.2-.88,2.78-1.56,4.29-1.38,1.07.29,2.35-.08,3.43,0,4.09.59,7.61,3.15,11.16,5.09,2.54,1.47,5.25,2.87,7.73,4.44,2.35,1.49,4.64,3.3,6.87,4.97,5.59,4.16,7.86,4.32,14.6,4.09,4.57-.16,9.22.05,13.74-.8,3.98-.76,8.21-1,12.02.61,3.14,1.2,6.16,2.97,9.45,3.77,4.55.28,9.18.02,13.74.11"/><path class="b" d="M9.7,171.29c5.13-.09,10.34.19,15.46-.12,5.1-1.45,10.21-3.08,15.46-3.92,4.22-.7,8.63-1.5,12.88-.62,2.11.69,3.87,2.44,6.01,3.12,4.75,1.99,10.03.37,13.74-2.95,4.18-3.59,7.18-8.4,10.3-12.88,1.72-2.39,3.52-5.08,6.01-6.73.41-.23,1.25-.63,1.72-.73,1.03-.53,2.23-1.27,3.43-1.24,4.15.39,7.31,4.51,10.3,7.08,4.14,3.91,8.4,7.82,12.88,11.34,3.02,2.34,6.49,4.37,10.3,5.02,6.65,1.15,13.42-.16,19.75-2.25,3.35-1.1,7.08-1.11,10.3.4,3.14,1.33,6.11,3.34,9.45,4.17,1.91.54,4.05.24,6.01.31,2.83,0,5.75,0,8.59,0"/><path class="b" d="M9.7,166.62c4.85,0,9.75,0,14.6,0,2.84-.51,5.69-1.48,8.59-1.72,4.55-.49,9.18-.12,13.74.07,2.26.11,4.62.23,6.87.4.81.24,1.72.99,2.58,1.12,4.77-2.74,9.81-2.35,14.6.08,4.97-2.77,8.75-7.29,12.02-11.86,3.22-4.49,6.07-9.46,10.3-13.1,1.99-2.52,4.71-4.29,7.73-2.19,3.45,2.45,5.91,6.16,8.59,9.37,4.49,5.52,9.18,11.29,15.46,14.85,2.82,1.59,6.23,2.48,9.45,1.76,2.59-.62,5.25-1.4,7.73-2.37,2.26-.9,4.53-2.08,6.87-2.75,4.98-1.63,9.6,1.54,13.74,3.91,2.34,1.24,5.05,2.38,7.73,2.42,3.99,0,8.03,0,12.02,0"/><path class="b" d="M9.7,161.96c5.13-.1,10.34.2,15.46-.13,3.04-.85,6.3-1.17,9.45-.86,2.28.12,4.6.83,6.87.91,2.53-.47,5.16-.96,7.73-1.12,1.38-.15,2.94.17,4.29-.12,7.17-4.25,12.88-2.27,19.75,1.22,8.22-4.86,13.73-12.89,19.75-20.06,4.72-6.63,7.8-12.67,14.6-3.6,5.73,7.58,10.02,16.77,18.03,22.28,1.25.82,2.75,1.63,4.29,1.31,1.12.28,2.36-.42,3.43-.69,2.96-.93,5.83-2.39,8.59-3.8,2.17-1.13,4.45-2.39,6.87-2.88,4.77-1.02,9.01,2.12,12.88,4.45,2.39,1.34,5.07,2.47,7.73,3.09,4.28,0,8.6,0,12.88,0"/><path class="b" d="M9.7,157.3c4.85,0,9.75,0,14.6,0,1.95-.34,4.01-.85,6.01-.74,1.69.04,3.5.33,5.15.69,2.01-.22,4.05-.99,6.01-1.45,2.5-.65,5.13-1.28,7.73-1.23,1.08.07,2.36.2,3.43.02,1.14-.22,2.33-.94,3.43-1.26,6.26-1.53,12.55,1.13,18.03,3.95,7.03-3.46,13.54-8.21,18.89-13.95,3.24-3.28,7.07-14.31,12.02-13.63,4.28,1.28,7.16,8.21,9.45,11.84,2.52,4.42,5.08,9.07,8.59,12.8,1.21,1.06,2.57,2.84,4.29,2.83.77-.2,1.8.09,2.58-.04,2-.69,4.12-1.46,6.01-2.42,4.61-2.31,9.22-5.78,14.6-5.65,3.78.2,7.14,2.32,10.3,4.21,2.42,1.5,5.15,2.63,7.73,3.83,1.63.42,3.49.12,5.15.2,2.83,0,5.75,0,8.59,0"/><path class="b" d="M9.7,152.64c4.85,0,9.75,0,14.6,0,1.66-.29,3.44-.77,5.15-.67,1.4.04,2.94.29,4.29.61,1.12-.03,2.37-.52,3.43-.81,2.8-.84,5.67-1.83,8.59-2.14,2.54-.21,5.23.23,7.73-.4,6.62-2.33,13.6.91,19.75,3.31,1.46-.19,2.92-1.08,4.29-1.58,1.97-.83,4.06-1.7,6.01-2.58,4.39-2.07,9.23-4.12,12.02-8.31,3.31-4.36,5.03-10.31,9.45-13.73,4.1-2.13,6.85,4.09,8.59,6.86,1.99,3.63,3.89,7.59,6.01,11.15,1.94,2.86,3.93,6.96,7.73,7.46,1.77.03,3.51-.91,5.15-1.44,4.58-1.8,8.86-4.54,13.74-5.54,7.95-1.81,14.71,3.9,21.47,7.1,1.74,1.17,4.04.56,6.01.7,2.83,0,5.75,0,8.59,0"/><path class="b" d="M9.7,147.97c4.56,0,9.18,0,13.74,0,1.44.13,2.88-.69,4.29-.85,1.98-.29,4.09-.02,6.01.47,1.72.72,3.49-.36,5.15-.77,2.2-.67,4.56-1.25,6.87-1.26,2.26-.08,4.62.06,6.87-.13,2.3-.43,4.54-.69,6.87-.24,2.3.34,4.65.99,6.87,1.7,1.36.31,2.92,1.43,4.29.71,2.51-.91,5.15-1.75,7.73-2.46,4.86-1.46,10.13-2.16,14.6-4.66,2.58-1.75,4.41-4.58,6.01-7.19,2.18-3.13,5.3-11,9.45-11.13,4.05.63,6.58,6.87,8.59,10.04,2.04,3.58,4.07,7.48,6.87,10.54,2.82,2.8,5.3,1.53,8.59.64,2-.48,4.03-1.27,6.01-1.8,5.65-1.14,11.64-1.89,17.17.17,4.81,1.5,9.05,4.53,13.74,6.23,4.27,0,8.61,0,12.88,0"/><path class="b" d="M9.7,143.31c4.85,0,9.75,0,14.6,0,.83-.17,1.8-.75,2.58-1.05,1.32-.53,2.87-.84,4.29-.83,2.93.03,5.77,1.1,8.59,1.8,1.39-.02,2.89-.5,4.29-.46,2.85,0,5.74.49,8.59.54,1.08,0,2.35-.17,3.43-.14.77.02,1.8.15,2.58.07,4.34-.63,8.61-1.91,12.88-2.88,5.64-1.39,11.49-1.86,17.17-3.02,6.86-.95,9.9-6.66,13.74-11.67,1.84-2.31,3.85-5.15,6.87-5.87,6.77-1.02,12.08,12.99,18.03,14.94,1.36.37,2.91-.05,4.29-.04,2.25.03,4.64-.1,6.87.19,6.27,1.55,12.82,2.14,18.89,4.46,3.69,1.29,7.37,2.84,11.16,3.83,4.54.32,9.18.03,13.74.12"/><path class="b" d="M9.7,138.65c3.41,0,6.89,0,10.3,0,1.67-.11,3.56.28,5.15-.27.77-.44,1.78-1.01,2.58-1.38,5.52-2.87,10.62-.48,16.31-.93,2.59-.36,5.15-1.34,7.73-1.79,2.24-.38,4.61-.06,6.87-.18,4.89-.33,9.73-1.48,14.6-1.97,4.26-.49,8.61-.63,12.88-1.08,2.9-.39,6.07-.58,8.59-2.22,3.38-2.16,6.18-5.21,9.45-7.52,5.91-4.42,10.98-2.08,16.31,1.85,2.27,1.6,4.52,3.45,6.87,4.92,1.56.76,3.48.32,5.15.6,1.68.18,3.49.5,5.15.8,1.1.37,2.35,1,3.43,1.43,4.15,1.7,8.58,2.74,12.88,3.97,3.98,1.11,7.96,2.49,12.02,3.3,2.52.53,5.17.48,7.73.45,2.83,0,5.75,0,8.59,0"/><path class="b" d="M9.7,133.99c4.85,0,9.75,0,14.6,0,2.36-.78,4.49-2.45,6.87-3.25,5.23-2.12,11.29-1.36,16.32-4.09,6.85-3.9,7.6-2.1,14.6-2.22,6.86-.29,13.75-.49,20.61-.71,3.13-.15,6.33-.33,9.45-.66,2.34-.58,4.64-1.64,6.87-2.53,9.22-4.11,15.44-1.51,24.04,2.37,1.93.84,4,1.7,6.01,2.33,3.69-.34,7.72-.8,11.16.84,4.47,1.83,9.13,3.29,13.74,4.7,3.39,1.01,6.81,2.23,10.3,2.81,5.97.75,12.04.32,18.03.43"/><path class="b" d="M9.7,129.32c3.41,0,6.89,0,10.3,0,1.38,0,2.91,0,4.29,0,1.17-.21,2.37-.98,3.43-1.47,6.88-3.83,15.03-5.02,21.47-9.68,2.72-2.21,5.09-3.4,8.59-2.2,2.51.54,5.17.76,7.73.87,5.15.24,10.34-.15,15.46-.68,2.25-.22,4.61-.41,6.87-.4,2.55.12,5.18.24,7.73.02,6.8-.56,13.42,1.09,19.75,3.45,4.69,1.55,9.58,3.51,14.6,3.06,1.94-.49,4.02-.98,6.01-1.22,1.4-.28,2.95-.1,4.29.34,1.99.54,4.06,1.24,6.01,1.92,4.87,1.66,9.67,3.69,14.6,5.17,3.34.82,6.89.76,10.3.81,3.7,0,7.46,0,11.16,0"/><path class="b" d="M9.7,124.66c4.85,0,9.75,0,14.6,0,2.36-.52,4.61-1.8,6.87-2.66,2.83-1.2,5.76-2.34,8.59-3.54,3.25-1.39,6.51-2.98,9.45-4.95,1.45-.88,2.75-2.34,4.29-3.06.78-.1,1.81-.11,2.58.08,6.23,2.6,13.35,2.63,19.75.62,4.19-1.2,8.43-3.15,12.88-2.71,4.06.67,8.15,1.64,12.02,3.06,4.34,1.57,8.56,3.61,12.88,5.26,4.61,1.72,9.66,3.22,14.6,2.25,2.58-.67,5.14-1.74,7.73-2.37,1.64-.6,3.48-.44,5.15-.06,2.01.4,4.09,1.06,6.01,1.79,4.34,1.62,8.51,3.82,12.88,5.35,3.31,1,6.88.91,10.3.96,3.99,0,8.03,0,12.02,0"/><path class="b" d="M9.7,120c3.12,0,6.32,0,9.45,0,1.96-.07,4.07.16,6.01-.14,2.85-.87,5.75-1.87,8.59-2.79,6.74-2.37,14.13-3.92,19.75-8.57,2.15-.2,4.01,1.38,6.01,1.9,5.46,1.91,11.51.79,16.31-2.27,4.13-2.28,7.9-6.28,12.88-6.36,4.98.56,9.45,3.23,13.74,5.65,5.88,3.36,12,7.01,18.89,7.58,1.98.15,4.1,0,6.01-.56,1.68-.6,3.43-1.44,5.15-1.93,2.23-.6,4.51-1.88,6.87-1.64,7.81.56,14.28,5.53,21.47,8.08,3.3,1.04,6.87,1.06,10.3,1.05,3.7,0,7.46,0,11.16,0"/><path class="b" d="M9.7,115.34c4.85,0,9.75,0,14.6,0,3.72-.68,7.43-1.79,11.16-2.41,4.55-.94,9.29-1.26,13.74-2.65,1.5-.41,2.85-1.54,4.29-2.04,2.09.5,3.94,1.95,6.01,2.54,4.33.86,8.96-.24,12.88-2.14,3.15-1.57,5.97-3.86,8.59-6.19,2.17-1.86,4.3-4.08,6.87-5.39,6.2-2.19,12.16,2.97,17.17,5.99,3.97,2.54,8.21,4.98,12.88,5.93,2.81.56,5.85.57,8.59-.33.8-.26,1.85-.75,2.58-1.18,1.97-.53,4.06-1.08,6.01-1.66.76-.22,1.81-.53,2.58-.75,1.98-.15,4.08.3,6.01.71,7.91,1.8,14.44,7.34,22.33,9.16,2.22.5,4.61.41,6.87.41,3.12,0,6.32,0,9.45,0"/><path class="b" d="M9.7,110.68c4.85,0,9.75,0,14.6,0,2.84-.47,5.72-1.24,8.59-1.6,5.53-.77,11.34-1.14,16.31-3.94,4.8-3,3.35-2.96,8.59-.57,5.84,2.39,12.69,1.55,18.03-1.69,3.97-2.27,7.25-5.65,11.16-8,2.79-1.63,6.33-1.73,9.45-1.16,3.97.85,7.54,3.02,11.16,4.77,4.23,2.1,8.96,3.67,13.74,3.29,2.73-.11,5.3-1.22,7.73-2.36,1.99-.29,4.07-.77,6.01-1.31,1.07-.25,2.31-.84,3.43-.78,2.59.35,5.25.94,7.73,1.79,5.48,1.87,10.46,4.98,15.46,7.83,2.5,1.3,4.92,3.21,7.73,3.74,4.27,0,8.61,0,12.88,0"/><path class="b" d="M9.7,106.01c4.85,0,9.75,0,14.6,0,3.13-.7,6.27-1.69,9.45-2.22,4.6-.93,9.34-1.62,13.74-3.3,1.12-.44,2.42-1.08,3.43-1.72.72-.49,1.67-1.29,2.58-1.38,2.11.61,3.94,2.13,6.01,2.84,5.01,1.94,10.79,1.42,15.46-1.21,4.69-2.45,8.23-6.67,12.88-9.16,2.59-1.13,5.81-1.3,8.59-.86,5.98,1.18,11.25,4.64,17.17,6.03,3.62.9,7.53,1.22,11.16.26.79-.21,1.84-.6,2.58-.96.7-.44,1.73-.87,2.58-.75,2.6-.06,5.25-.61,7.73-1.35,4.05.19,8.17,1.11,12.02,2.36,4.28,1.47,8.28,3.79,12.02,6.32,1.69,1.14,3.49,2.42,5.15,3.6.71.51,1.69,1.32,2.58,1.5,4.27,0,8.6,0,12.88,0"/><path class="b" d="M9.7,101.35c4.85,0,9.75,0,14.6,0,3.13-.86,6.24-2.12,9.45-2.73,4.84-1.11,9.89-1.59,14.6-3.23,1.83-.55,3.46-1.8,5.15-2.62,2.14.63,3.92,2.3,6.01,3.06,4.37,1.83,9.5,1.63,13.74-.49,5.29-2.51,9-7.32,13.74-10.62,1.24-.82,2.79-1.46,4.29-1.5,1.05-.28,2.35-.4,3.43-.3,3.35.36,6.45,2,9.45,3.43,3.31,1.62,6.74,3.21,10.3,4.21,4.76,1.36,10.17,1.84,14.6-.75,1.95.36,4.04.43,6.01.24,1.09-.06,2.35-.44,3.43-.33,8.56,1.2,15.63,2.15,23.18,6.82,1.71,1.01,3.51,2.19,5.15,3.31.74.49,1.69,1.28,2.58,1.48,4.28,0,8.6,0,12.88,0"/><path class="b" d="M9.7,96.69c4.85,0,9.75,0,14.6,0,1.14-.21,2.35-.88,3.43-1.26,1.92-.73,4.01-1.38,6.01-1.85,6.54-1.71,13.82-1.36,19.75-4.96,2.42.8,4.38,2.84,6.87,3.53,10.33,3.51,17.55-4.19,24.04-10.99,1.91-1.83,4.09-4,6.87-4.25,2.89-1.21,6.04-.02,8.59,1.47,7.64,4.64,15.51,10.76,24.9,10.48,1.11-.08,2.41-.37,3.43-.81.39-.29,1.23-.52,1.72-.41,1.35.39,2.9.64,4.29.73,1.07.07,2.36.06,3.43,0,1.68.15,3.47.51,5.15.65,3.72.37,7.52.69,11.16,1.54,3.55.81,7.03,2.14,10.3,3.73,1.08.52,2.37,1.18,3.43,1.74.67.44,1.76.78,2.58.68,3.99,0,8.03,0,12.02,0"/><path class="b" d="M9.7,92.03c3.12,0,6.32,0,9.45,0,1.96-.11,4.1.26,6.01-.22,2.73-1.32,5.64-2.49,8.59-3.23,6.48-1.79,13.53-1.03,19.75-3.77,2.08.91,3.85,2.65,6.01,3.42,4.81,1.97,10.39.88,14.6-2,3.65-2.43,6.59-5.87,9.45-9.16,1.8-2.03,3.67-4.3,6.01-5.74,1.34-.58,2.85-1.29,4.29-1.54,4.81-.22,9.24,5.27,12.88,7.98,5.38,4.31,11.72,8.77,18.89,8.73,1.12-.06,2.42-.36,3.43-.82,1.1-.37,2.34.35,3.43.47,1.36.25,2.91.36,4.29.35,1.97-.07,4.04.28,6.01.27,4.29.09,8.66.14,12.88.98,2.9.55,5.82,1.45,8.59,2.48,1.68.55,3.41,1.47,5.15,1.8,4.28,0,8.6,0,12.88,0"/><path class="b" d="M9.7,87.36c4.85,0,9.75,0,14.6,0,1.76-.45,3.44-1.56,5.15-2.16,2.72-1.09,5.67-1.82,8.59-2.13,3.4-.39,6.9-.28,10.3-.61.78-.08,1.82-.25,2.58-.44.78-.23,1.77-.6,2.58-.32,1.93,1.21,3.81,2.8,6.01,3.52,5.26,1.84,11.12.07,15.46-3.16,3.66-2.69,6.62-6.32,9.45-9.84,2.77-3.45,5.84-7.4,10.3-8.56,4.04-.2,6.83,3.62,9.45,6.17,2.18,2.33,4.46,4.77,6.87,6.87,4.83,4.09,11.49,8.61,18.03,6.16,1.37-.34,2.89.42,4.29.4,1.97.18,4.04-.17,6.01-.17,5.43-.23,10.95-.74,16.31.39,4.39.8,8.64,2.4,12.88,3.75,4.53.36,9.18.03,13.74.14"/><path class="b" d="M9.7,82.7c4.85,0,9.75,0,14.6,0,1.74-.41,3.44-1.44,5.15-1.96,2.19-.77,4.56-1.29,6.87-1.47,3.41-.29,6.89.08,10.3.06,1.7.07,3.47-.53,5.15-.4,1.28.17,2.43,1.16,3.43,1.88,1.01.69,2.27,1.39,3.43,1.78,1.1.02,2.34-.41,3.43-.45,2.28-.25,4.61.37,6.87.46,2.48-.69,4.85-2.03,6.87-3.6,3.71-2.91,6.67-6.77,9.45-10.54,2.68-3.49,5.93-8.77,10.3-10.1,3.7-.38,6.37,2.9,8.59,5.4,1.97,2.33,3.96,4.87,6.01,7.12,4.57,4.97,11.84,11.28,18.89,7.54,3.19.39,6.36-.53,9.45-1.21,4.86-.61,9.85-.32,14.6.87,5.22,1.2,10.26,3.21,15.46,4.52,4.54.28,9.18.03,13.74.11"/><path class="b" d="M9.7,78.04c4.85,0,9.75,0,14.6,0,2.3-.74,4.48-2.16,6.87-2.71,4.2-1.24,8.65-.55,12.88.17,1.37.24,2.92.27,4.29.39,1.83.23,3.68,1.07,5.15,2.16,5.74-5.17,14.47-3.86,20.61-.11,5.57-2.63,10.19-8.52,13.74-13.46,1.69-2.43,3.44-5.12,5.15-7.54,2.11-3.04,5.64-6.87,9.45-3.97,6.99,5.5,10.77,17.31,20.61,18.56,1.73.15,3.55-.3,5.15-.93,1.36-.3,2.93-.25,4.29-.55,1.69-.3,3.48-.74,5.15-1.13,1.08-.09,2.37.12,3.43.26,9.56,1.49,17.99,6.97,27.48,8.78,4.55.23,9.18.02,13.74.09"/><path class="b" d="M9.7,73.38c3.12,0,6.32,0,9.45,0,1.08,0,2.36,0,3.43,0,.43,0,1.29,0,1.72,0,.49-.12,1.33-.61,1.72-.93,3.69-2.69,8.21-4.91,12.88-3.93,2,.34,4.04,1.07,6.01,1.54,2.5.4,4.85,1.7,6.87,3.18.91-.27,1.84-1.15,2.58-1.72.96-.77,2.25-1.44,3.43-1.77,4.51-1.22,9.38-.45,13.74,1.01,2.05.62,4,1.83,6.01,2.52,4.53-2.52,8.75-5.84,12.02-9.88,3.95-4.56,7.35-13.45,13.74-14.73,6.87-.25,11.79,12.33,20.61,13.02,1.39.15,2.93-.08,4.29-.36,1.97-.26,4.05-.55,6.01-.9,1.07-.18,2.36-.37,3.43-.49,1.14.12,2.38.72,3.43,1.13,9.43,4.04,17.88,11.05,28.34,12.3,4.28,0,8.6,0,12.88,0"/><path class="b" d="M9.7,68.72c3.12,0,6.32,0,9.45,0,1.08,0,2.36,0,3.43,0,.81.01,1.88.1,2.58-.42,3.95-3.43,8.06-8.25,13.74-8.08,1.75.1,3.54.74,5.15,1.38,1.1.42,2.44.84,3.43,1.49,2.18,1.44,4.11,3.44,6.01,5.22l.86.02c4.11-3.82,10.29-3.49,15.46-2.62,2.01.37,4.1.97,6.01,1.69,1.09.36,2.28,1.09,3.43,1.21,4.25-2.05,8.63-4.27,12.02-7.62,2.87-3.13,5.41-6.7,8.59-9.55,2.2-2.07,4.66-4.37,7.73-4.97,2.7-.48,5.38.74,7.73,1.94,2.46,1.27,5.02,2.62,7.73,3.3,3.08.86,6.33.57,9.45.14,1.07-.11,2.36-.21,3.43-.26.79-.04,1.85-.12,2.58.28,9.91,5.71,18.29,14.99,30.05,16.76,4.55.27,9.18.02,13.74.1"/><path class="b" d="M9.7,64.05c4.85,0,9.75,0,14.6,0,.96-.35,1.84-1.44,2.58-2.11,1.38-1.33,2.92-2.83,4.29-4.16,5.79-5.69,8.9-9.78,17.17-4.73,4.02,3.26,6.52,8.35,11.16,10.87,1.41-.24,2.86-1.02,4.29-1.22,3.68-.67,7.54-.38,11.16.47,1.09.21,2.31.76,3.43.77,1.39-.46,2.93-1.04,4.29-1.57,2.89-1.18,5.96-2.27,8.59-3.98,2.61-1.86,4.98-4.2,7.73-5.87,13.12-9.55,12.9-10.18,29.2-6.9,1.36.36,2.92.04,4.29,0,1.67-.1,3.48-.16,5.15-.16,6.29,3.16,11.46,8.26,17.17,12.32,2.64,1.91,5.54,3.65,8.59,4.84,1.92.62,4.02,1.11,6.01,1.43,4.28,0,8.6,0,12.88,0"/><path class="b" d="M9.7,59.39c3.13,0,6.32,0,9.45,0,1.08,0,2.35,0,3.43,0,.81,0,1.85.09,2.58-.35,4.13-3.08,7.8-6.84,11.16-10.74,1.28-1.49,2.89-2.96,4.29-4.33,2.45-2.8,6.18-3.71,9.45-1.74,1.82,1.04,3.19,2.86,4.29,4.59,1.02,1.41,2.27,3.06,3.44,4.35,5.48,6.44,13.35,8.33,21.47,6.87,4.66-.87,9.56-1.64,13.74-4,3.18-1.89,6.98-2.45,10.3-4.02,2.32-1,4.54-2.45,6.87-3.42,4.06-1.56,8.51-2.62,12.88-2.32,2.6.08,5.17.97,7.73,1.25,3.15-.02,6.34-.62,9.45-1.08,0,0,.86-.11.86-.11l.86.34c1.09.45,2.39,1.04,3.43,1.6,3.99,2.07,7.51,5.02,11.16,7.61,2.13,1.49,4.45,2.97,6.87,3.94,1.93.62,4.02,1.22,6.01,1.56,4.27,0,8.61,0,12.88,0"/><path class="b" d="M9.7,54.73c4.85,0,9.75,0,14.6,0,4.48-1.44,8.71-4.12,12.02-7.48,2.2-2.23,4.15-4.92,6.01-7.43,1.9-2.41,3.85-5.37,6.87-6.45,1.18.62,2.32,1.74,3.43,2.47,1.45.95,3.03,2.05,4.29,3.24,3.82,3.56,7.38,7.64,12.02,10.17,5.99,3.19,13.19,3.44,19.75,2.2,2.04-.35,3.92-1.65,6.01-1.8,4.89-.39,9.83-.75,14.6-1.95,6.46-1.48,13.22-1.65,19.75-.51,2.59.44,5.25-.3,7.73-1.02,2.57-.72,5.16-1.69,7.73-2.41,4.8.5,8.99,3.14,12.88,5.81,1.9,1.24,3.92,2.58,6.01,3.46,1.93.65,4.01,1.34,6.01,1.69,4.27,0,8.6,0,12.88,0"/><path class="b" d="M9.7,50.07c4.85,0,9.75,0,14.6,0,6.05-1.09,11.38-3.31,15.46-8.05,1.46-1.61,2.95-3.52,4.29-5.23,1.55-2.15,2.39-2.96,5.15-3.07,1.49-.09,2.89.75,4.29,1.05,1.38-.19,2.92-.33,4.29-.02,3.92.94,7.03,3.83,10.3,6.03,3.19,1.99,6.66,3.72,10.3,4.71,3.05.82,6.29,1.13,9.45.99,1.1-.05,2.39-.31,3.43-.67.76-.09,1.81-.09,2.58-.08,5.71.26,11.47.54,17.17,0,6.86-.53,13.76-.95,20.61-1.63,4.02-.64,8.04-1.63,12.02-2.46,1.37-.27,2.9-.67,4.29-.8,2.35.61,4.72,1.56,6.87,2.7,2.58,1.39,5.12,3.06,7.73,4.39,1.87.91,4.05,1.36,6.01,2.01,4.53.36,9.18.03,13.74.14"/><path class="b" d="M9.7,45.4c3.41,0,6.89,0,10.3,0,3.18.11,6.33-.1,9.45-.77,5.27-.77,9.69-3.95,12.88-8.11,2.66-2.1,5.88-4.45,9.45-4.04.79.11,1.77.54,2.58.49.77-.18,1.8-.37,2.58-.45,3.61-.43,7.17.92,10.3,2.6,4.28,1.8,8.41,4.17,12.88,5.5,3.35,1.1,6.84,1.09,10.3.67,3.41.17,6.88.61,10.3.46,4.29-.1,8.6-.58,12.88-.83,3.99-.21,8.04-.28,12.02-.64,6.32-.39,12.59-1.57,18.89-2.18,2.25-.19,4.61-.58,6.87-.57,1.7.64,3.52,1.41,5.15,2.2,2.29,1.11,4.6,2.45,6.87,3.6,1.62.74,3.5,1.24,5.15,1.9,1.64.35,3.49.1,5.15.17,2.83,0,5.75,0,8.59,0"/><path class="b" d="M9.7,40.74c4.28,0,8.6,0,12.88,0,4.92-.1,10.23-.18,14.6-2.71,1.9-1.32,4.05-2.47,6.01-3.69,2.17-1.34,4.41-2.85,6.87-3.61,1.35-.41,2.91-.48,4.29-.25.77-.17,1.8-.41,2.58-.55,3.41-.69,7.01-.38,10.3.74,4.39.8,8.54,2.69,12.88,3.68,3.07.83,6.3.73,9.45.82,1.99.2,4.02.86,6.01,1.03,2.82.32,5.75.32,8.59.25,3.7-.09,7.46-.25,11.16-.26,3.13.02,6.32.06,9.45-.16,6.59-.25,13.15-1.4,19.75-1.46,3.12-.07,6.32-.07,9.45-.11,1.48.1,2.93,1.09,4.29,1.61,3.65,1.63,7.25,3.71,11.16,4.65,4.27,0,8.61,0,12.88,0"/><path class="b" d="M9.7,36.08c4.85,0,9.75,0,14.6,0,2.55-.02,5.2.02,7.73-.37,1.73-.24,3.48-.91,5.15-1.39,4.49-1.32,8.53-3.88,12.88-5.53,1.89-.77,4.03-.76,6.01-1.12,2.52-.45,5.16-.81,7.73-.81,1.68-.04,3.48.27,5.15.18,5.17-.06,10.3,1.02,15.46,1.19,1.97.1,4.08-.18,6.01.32,3.3,1.19,6.79,1.96,10.3,2.12,4.27.28,8.61.27,12.88.52,3.7.23,7.45.58,11.16.49,6.3.12,12.59-.9,18.89-.67,3.13.08,6.32.31,9.45.43,2.3.15,4.79-.23,6.87.99,2.82,1.2,5.7,2.47,8.59,3.49,1.64.33,3.48.09,5.15.16,2.83,0,5.75,0,8.59,0"/><path class="b" d="M9.7,31.42c5.71-.04,11.47.1,17.17-.08,1.38-.06,2.91.02,4.29.06,1.39-.15,2.92-.38,4.29-.62,5.3-.86,10.35-2.81,15.46-4.37,2.48-.76,5.16-.92,7.73-1.17,2.25-.22,4.61-.4,6.87-.48,1.68-.06,3.49-.02,5.15-.35,4.25-.6,8.6-.8,12.88-1.02,1.38-.07,2.92-.16,4.29-.27,1.08-.08,2.37-.3,3.43,0,5.49,2.04,11.41,2.47,17.17,3.21,4.85.55,9.7,1.57,14.6,1.58,5.14.24,10.32-.21,15.46-.41,3.71-.08,7.47.25,11.16.52,3.69.28,7.46.43,11.16.47,2.05.36,4.04,1.47,6.01,2.12.73.29,1.78.73,2.58.81,1.07,0,2.37,0,3.43,0,3.12,0,6.32,0,9.45,0"/><path class="b" d="M9.7,26.75c6-.05,12.04.13,18.03-.15,1.09-.03,2.35.06,3.43.13,2.26-.09,4.62-.36,6.87-.59,5.47-.56,10.89-1.74,16.31-2.59,4.55-.32,9.18-.29,13.74-.4,2.57.1,5.18-.4,7.73-.66,3.41-.37,6.89-.61,10.3-.91,1.97-.16,4.05-.44,6.01-.68,1.98.21,4.04.67,6.01.96,4.27.69,8.6,1.37,12.88,1.99,3.11.45,6.29.93,9.45.9,8.3.3,16.61-.86,24.9-.21,6.28.41,12.6.67,18.89.62,1.75.19,3.41,1.34,5.15,1.59,4.27,0,8.61,0,12.88,0"/><path class="b" d="M9.7,22.09c15.74.09,31.5-.1,47.23-.67,5.42,0,10.89.03,16.31.08,6.85-.47,13.75-.68,20.61-.99,6.87.16,13.75.87,20.61,1.21,7.43.07,14.89-.02,22.33-.16,9.72,0,19.47.28,29.2.23,1.08-.06,2.38.06,3.43.31,4.27,0,8.61,0,12.88,0"/><path class="b" d="M9.7,17.43h172.59"/><path class="b" d="M9.7,12.77h172.59"/><path class="b" d="M9.7,8.11h172.59"/></svg>