<?xml version="1.0" encoding="UTF-8"?><svg id="a" xmlns="http://www.w3.org/2000/svg" width="1920" height="2400" viewBox="0 0 192 240"><defs><style>.b{fill:none;stroke:#fff;stroke-miterlimit:10;stroke-width:.3px;}.c{stroke-width:0px;}</style></defs><rect class="c" x="0" width="192" height="240"/><path class="b" d="M9.7,231.89h172.59"/><path class="b" d="M9.7,227.23h172.59"/><path class="b" d="M9.7,222.57c18.03,0,36.07,0,54.1,0,5.42,0,10.89,0,16.31,0,4.27-.2,8.6-.47,12.88-.45,4.57-.03,9.18.29,13.74.46,6.28,0,12.61,0,18.89,0,18.89,0,37.79,0,56.67,0"/><path class="b" d="M9.7,217.91c4.85,0,9.75,0,14.6,0,.47-.09,1.29-.39,1.72-.59.45,0,1.27.01,1.72.02,12.02.24,24.05-.38,36.06-.15,2.85.11,5.76.05,8.59-.28,3.12-.25,6.32-.44,9.45-.66,4.56-.31,9.15-.98,13.74-.69,7.17.19,14.35.89,21.47,1.73,5.71.1,11.46.05,17.17.29,11.16.13,22.34.06,33.49-.48,1.69,1.33,4.02.68,6.01.82,2.84,0,5.75,0,8.59,0"/><path class="b" d="M9.7,213.25c4.85,0,9.75,0,14.6,0,1.98-.22,4-1.15,6.01-1.04,5.43.13,10.91.02,16.31-.51,3.72-.3,7.44-1.1,11.16-1.35,3.41-.22,6.89-.04,10.3.11,4.84-.45,9.75-.29,14.6-.49,2.86-.04,5.75-.56,8.59-.84,1.97.01,4.05.08,6.01.15,5.44.22,10.91.64,16.31,1.23,4.25.68,8.59.52,12.88.38,3.13.23,6.29.94,9.45,1.03,7.71.36,15.49.41,23.18-.31,1.07-.11,2.37-.27,3.43-.44.4-.07,1.31-.22,1.72-.3.42.1,1.32.39,1.72.59,1.14.44,2.26,1.45,3.43,1.79,4.27,0,8.61,0,12.88,0"/><path class="b" d="M9.7,208.58c4.85,0,9.75,0,14.6,0,3.11-.47,6.28-1.47,9.45-1.42,5.15.16,10.37-.13,15.46-1.02,3.43-.56,6.82-1.75,10.3-1.97,3.12-.36,6.32.03,9.45-.07,5.14-.32,10.32.3,15.46.18,2.29.03,4.61-.51,6.87-.72,5.42.31,10.89.63,16.32.85,3.41.15,6.89.29,10.3.51,3.13-.1,6.33-.4,9.45-.7,1.12,0,2.37.48,3.43.75,1.36.35,2.91.65,4.29.85,4.82.66,9.74.83,14.6.97,2.55.05,5.19.05,7.73-.12,1.07-.08,2.37-.21,3.43-.38,1.08.05,2.37.28,3.43.49,1.79.25,3.47,1.26,5.15,1.81,4.27,0,8.61,0,12.88,0"/><path class="b" d="M9.7,203.92c4.85,0,9.75,0,14.6,0,2.55-.44,5.16-1.11,7.73-1.49,1.68-.23,3.45-.77,5.15-.77,4.32-.12,8.68-.69,12.88-1.69,3.39-.86,6.76-2.08,10.3-2.08,3.13-.24,6.32.28,9.45.14,4.57-.14,9.17.44,13.74.51,1.68.02,3.49-.06,5.15-.33,1.39-.36,2.89-.44,4.29-.11,6.52,1,13.16,1.39,19.75,1.28,5.22.17,10.4-.77,15.46-2.01,1.38-.55,2.94.22,4.29.51,1.66.44,3.47.89,5.15,1.27,5.93,1.28,11.97,2.36,18.03,2.65,1.98-.05,4.04.39,6.01.59,2.64.19,5.2.79,7.73,1.52,4.27,0,8.61,0,12.88,0"/><path class="b" d="M9.7,199.26c4.85,0,9.75,0,14.6,0,2.86-.51,5.75-1.34,8.59-2,2.3-.55,4.62-1.39,6.87-2.12,2.57-.32,5.21-.8,7.73-1.38,2.58-.55,5.17-1.44,7.73-2.08,2.82-.28,5.76-.11,8.59.04,1.68.11,3.48.27,5.15.45,1.67-.06,3.48-.08,5.15-.04,3.41.06,6.89.31,10.3.22,1.38-.04,2.93-.17,4.29-.41.77-.14,1.79-.46,2.58-.43,1.38.3,2.91.69,4.29.99,7.56,1.67,15.49,2.28,23.18,1.38,2.57-.42,5.22-.97,7.73-1.68,2.22-.63,4.5-1.8,6.87-1.36,4.42.57,8.66,2.26,12.88,3.61,3.36,1.19,6.92,1.91,10.3,2.99,3.9,1.09,8.07.91,12.02,1.74,4.55.26,9.18.02,13.74.1"/><path class="b" d="M9.7,194.6c4.56,0,9.18,0,13.74,0,2.33.03,4.64-1,6.87-1.58,3.23-1.01,6.46-2.29,9.45-3.88,1.1-.55,2.3-1.38,3.43-1.87,1.38-.32,2.92-.69,4.29-1.03,2.26-.56,4.61-1.2,6.87-1.77,1.09-.09,2.36.23,3.43.35,4.26.56,8.59,1.2,12.88,1.48,5.72-.32,11.53-.38,17.17-1.44,1.09-.2,2.36-.58,3.43-.84,2.87.68,5.73,1.72,8.59,2.48,5.28,1.46,10.84,2.09,16.31,1.99,2.85-.27,5.78-.64,8.59-1.19,4.07-.62,7.84-3.01,12.02-2.9,5.05.32,9.35,3.46,13.74,5.67,4.43,3.37,9.13,4.31,14.6,4.36,5.7.33,11.46.16,17.17.2"/><path class="b" d="M9.7,189.93c3.41,0,6.89,0,10.3,0,1.96-.08,4.11.26,6.01-.36,5.19-1.41,10.15-3.76,14.6-6.77,1.73-1.15,3.52-2.49,5.15-3.78.97-.65,2.33-.85,3.43-1.15,1.37-.34,2.91-.69,4.29-.96.83-.29,1.81.15,2.58.46,5.21,1.89,10.78,2.91,16.32,3.11,4.97-.49,9.88-1.72,14.6-3.35,1.69-.47,3.4-1.46,5.15-1.63,2.32.46,4.66,1.27,6.87,2.12,4.69,1.9,9.57,3.46,14.6,4.14,4.56.09,9.2.17,13.74-.32,2.04-.26,4.13-.94,6.01-1.77,1.64-.7,3.34-1.75,5.15-1.93,3.29-.31,6.18,1.85,8.59,3.83,1.1,1.13,2.3,2.6,3.43,3.7,2.31,2.31,5.32,4.1,8.59,4.59,1.67.02,3.48-.25,5.15-.16,5.99.34,12.03.22,18.03.24"/><path class="b" d="M9.7,185.27c5.13-.09,10.34.19,15.46-.12,7.08-1.7,13.38-5.68,18.89-10.33,1.71-1.42,3.5-3,5.15-4.48.96-.68,2.32-.85,3.43-1.11.45-.09,1.27-.24,1.72-.29,1.18.37,2.33,1.31,3.43,1.84,5,2.59,10.68,4.05,16.31,3.95,5.34-.39,10.14-3.32,14.6-6.07,1.06-.65,2.32-1.44,3.43-1.99,3.24-.59,6.56.75,9.45,2.12,3.1,1.51,6.2,3.24,9.45,4.43,3.1.77,6.32,1.32,9.45,1.95,6.12,1.17,10.37,2.89,15.46-2.02,2.11-2.02,5.07-3.3,7.73-1.44,1.66,1.57,2.92,3.83,4.29,5.64,2.24,3.11,4.86,6.42,8.59,7.77.78.08,1.81-.26,2.58-.37,3.41-.52,6.91.17,10.3.51,4.27,0,8.61,0,12.88,0"/><path class="b" d="M9.7,180.61c4.85,0,9.75,0,14.6,0,10.39-1.53,18.63-8.8,25.76-16.02,1.49-1.32,2.87-3.73,5.15-3.41.88.25,1.84,1.03,2.58,1.55,1.32.92,2.86,1.86,4.29,2.61,5,2.53,10.63,4.61,16.31,4.11,5.25-.74,9.23-4.82,12.88-8.34,4.48-4.7,9.86-3.03,14.6.26,2.45,1.46,5.18,2.62,7.73,3.9,5.39,2.15,14.13,11.53,19.75,7.09,2.89-2.23,4.35-6.38,7.73-7.95,4.59.46,8.7,13.97,15.46,16.17,4.1-1.77,8.66-.52,12.88.03,4.28,0,8.6,0,12.88,0"/><path class="b" d="M9.7,175.95c3.41,0,6.89,0,10.3,0,1.96-.09,4.12.27,6.01-.37,8.31-2.51,15.63-7.55,22.33-12.95,1.43-1.19,2.98-2.6,4.29-3.92,1.04-.96,2.04-2.51,3.43-2.98,1.92.12,3.59,1.42,5.15,2.42,1.94,1.27,3.99,2.59,6.01,3.72,5.35,2.95,12.04,5.87,18.03,3.1,3.84-1.79,6.59-5.25,9.45-8.25,3.21-3.43,6.81-5.05,11.16-2.45,7.75,4.67,13.11,12.78,21.47,16.55,7.96,3.76,8.97-11.27,17.17-6.8,4.9,3.25,7.31,9.54,12.88,11.93,3.81-1.77,8.09-.63,12.02.02,4.28,0,8.6,0,12.88,0"/><path class="b" d="M9.7,171.29c3.13,0,6.32,0,9.45,0,1.96-.07,4.07.18,6.01-.15,4.7-1.54,9.25-3.6,13.74-5.65,4.05-1.88,8.22-3.7,12.02-6.05,1.78-.99,3.32-2.65,5.15-3.52,7.52-.92,13.88,4.22,20.61,6.69,6.09,2.51,11.6,1.54,16.32-3.09,4.11-4.54,8.37-12.78,15.46-7.8,5.61,3.45,14.73,16.64,21.47,15.34,1.77-1.05,3.55-2.39,5.15-3.68,1.51-1.22,3.11-2.76,5.15-2.93,6.63-.86,11.62,8.4,18.03,10.8,4.01-1.36,7.17-.7,11.16.06,4.28,0,8.6,0,12.88,0"/><path class="b" d="M9.7,166.62c3.13,0,6.32,0,9.45,0,1.96-.08,4.08.2,6.01-.17,2.83-1.03,5.73-2.11,8.59-3.08,5.1-1.76,10.39-3.06,15.46-4.92,2.36-.78,4.59-2.11,6.87-3.06,2.56-.36,5.18-.96,7.73-1.38,7.28-.08,12.97,7.97,20.61,8.5,2.97.2,6.27-.55,8.59-2.48,4.94-5.32,10.33-17.61,18.89-10.47,4.61,3.32,9.65,10.94,15.46,11.43,3.69-.32,7.01-2.48,10.3-4.01,3.81-1.11,7.92.23,11.16,2.29,3.71,2.29,7.1,5.3,11.16,6.98.71.46,1.81.15,2.58-.02,1.06-.17,2.36-.2,3.43-.11,1.08.08,2.36.39,3.43.48,1.07,0,2.37,0,3.43,0,3.12,0,6.32,0,9.45,0"/><path class="b" d="M9.7,161.96c4.56,0,9.18,0,13.74,0,2.06.07,4.03-1.15,6.01-1.59,4.21-1.26,8.61-1.97,12.88-2.99,3.48-.82,6.94-1.95,10.3-3.16,1.09-.36,2.34-.9,3.43-1.23,1.11-.19,2.4-.53,3.43-.96,2.84-1.38,4.31-3.35,7.73-1.76,5.74,3.14,9.57,9.62,16.31,10.98,2.54.55,5.28.29,7.73-.53,1.27-.86,2.42-2.3,3.43-3.43,3.97-4.21,9.01-13.63,15.46-13.14,3.41.45,6.06,3.06,8.59,5.17,7.48,6.95,10.79,5.52,19.75,2.85,4.08-.31,8.32.19,12.02,2.02,4.18,1.95,7.82,5.03,12.02,6.95.72.31,1.8.63,2.58.77,1.37-.06,2.92-.08,4.29.05,4.27,0,8.61,0,12.88,0"/><path class="b" d="M9.7,157.3c4.85,0,9.75,0,14.6,0,1.98-.37,4.01-1.04,6.01-1.32,2.83-.48,5.78-.82,8.59-1.44,4.16-.86,8.09-2.65,12.02-4.19,2.47-1.07,5.41-1.23,7.73-2.62.84-.65,1.74-1.82,2.58-2.49,2.41-2.01,5.18.02,6.87,1.96,3.06,3.37,5.64,7.43,9.45,10.04,4.36-2.55,10.49-3.73,14.6-.11.96-.24,1.86-1.23,2.58-1.86,1.12-1.05,2.39-2.35,3.43-3.47,3.75-3.87,7.08-8.63,12.02-11.06,4.74-2.27,9.28,1.36,12.88,4.14,4.09,3.15,8.78,4,13.74,2.59,1.9-.59,4.05-.25,6.01-.35,7.35-.23,12.24,2.24,18.03,6.46,2.3,1.64,4.82,3.43,7.73,3.69,4.56.09,9.18,0,13.74.04"/><path class="b" d="M9.7,152.64c4.85,0,9.75,0,14.6,0,1.67-.17,3.47-.44,5.15-.54,3.77-.27,7.64-.73,11.16-2.17,3.66-1.39,6.8-3.96,10.3-5.65,1.3-.65,2.9-.73,4.29-1.01,2.71-.61,3.26-4.34,6.01-4.96,3.3-.19,5.17,3.98,6.87,6.25,1.77,2.73,3.64,5.68,6.01,7.94,6.86-4.96,12.72-4.13,19.75.04,1.58-.52,2.97-1.85,4.29-2.82,2.37-1.91,4.68-4.11,6.87-6.22,4.07-3.64,8.55-9.13,14.6-8.22,2.97.58,5.3,2.8,7.73,4.45,2.91,2.23,6.7,3.07,10.3,2.47,3.11.32,6.31.51,9.45.6,13.13.21,16.68,9.74,23.18,9.85,3.99,0,8.03,0,12.02,0"/><path class="b" d="M9.7,147.97c5.14,0,10.32.01,15.46,0,6.33.11,12.74-.24,18.03-4.14,1.76-1.21,3.51-2.72,5.15-4.08,1.71-1.38,3.7-2.95,6.01-2.97.68-.43,1.43-1.96,1.72-2.68,1.02-1.72,2.89-4.15,5.15-3.17,2.41,1.39,3.76,4.27,5.15,6.56,2.01,3.54,3.99,7.4,6.87,10.33.85-.37,1.78-1.22,2.58-1.69,1.27-.75,2.84-1.3,4.29-1.54,5.6-.57,11.2,1.23,16.31,3.35,5.09-2.49,9.45-6.27,13.74-9.92,3.36-2.74,6.79-6.02,11.16-6.94,5.48-1.01,7.55,3.92,12.02,5.64,1.32.55,2.87.93,4.29,1.09,1.38.4,2.88,1,4.29,1.28,8.14,1.39,14.16-.15,21.47,5.28,1.93,1.2,3.8,2.99,6.01,3.61,4.28,0,8.6,0,12.88,0"/><path class="b" d="M9.7,143.31c5.71-.05,11.47.12,17.17-.1,1.67-.09,3.48.04,5.15.06,3.7-.35,7.29-1.82,10.3-3.98,2.58-1.74,4.89-4.12,7.73-5.46,1.02-.5,2.34-.43,3.43-.46,1.35-2.04,2.39-4.67,4.29-6.3,2.96-2.75,5.12-.41,6.87,2.23,3.04,4.59,5.35,9.94,9.45,13.73.55,0,1.32-.43,1.72-.79,1.01-.66,2.28-1.26,3.43-1.58,5.08-1.18,10.44-.19,15.46.86,6.96,1.73,4.21,2.66,11.16-.53,3.27-1.59,6.41-3.61,9.45-5.6,3.46-2.16,10.65-7.49,14.6-4.64,1.48,1.18,3.31,2.15,5.15,2.63,1.06.3,2.37.32,3.43.59,4.16,1.25,8.6.95,12.88,1.3,3.29.22,6.6,1.15,9.45,2.84,2.9,1.58,5.49,4.04,8.59,5.19,4.28,0,8.6,0,12.88,0"/><path class="b" d="M9.7,138.65c5.71-.04,11.47.09,17.17-.08,5.81.55,11.06-1.74,15.46-5.43,1.91-1.48,3.81-3.27,6.01-4.32.73-.33,1.78-.54,2.58-.47.51-.09,1.35-.61,1.72-.97,2.05-2.13,3.37-5.3,6.87-5.02,6.14.92,10.82,13.21,17.17,16.22,3.59-2.14,7.94-2.44,12.02-2.55,3.42-.12,6.92-.1,10.3.42,1.99.28,4.07.71,6.01,1.24,1.09.24,2.31.84,3.43.83,2.01-.7,4.09-1.58,6.01-2.5,3.51-1.67,6.92-3.7,10.3-5.6,1.63-.84,3.35-1.95,5.15-2.34.82.04,1.82.53,2.58.81,1.61.56,3.45.8,5.15.74,2.24.35,4.59.69,6.87.72,6.54.12,12.47-.19,18.03,3.91,2.24,1.43,4.39,3.4,6.87,4.36,4.28,0,8.6,0,12.88,0"/><path class="b" d="M9.7,133.99c3.99,0,8.03,0,12.02,0,3.13,0,6.39.15,9.45-.67,5.46-1.32,9.52-5.45,13.74-8.88,1-.76,2.23-1.59,3.43-1.95,1.18-.17,2.46-.74,3.43-1.43,1.98-1.22,3.42-3.74,6.01-3.52,7.1.07,13.31,10.29,19.75,13.66,1.56.91,3.42,1.5,5.15,2,1.07.27,2.32.74,3.43.7,2.84-.58,5.7-1.52,8.59-1.89,3.4-.38,6.9-.25,10.3.08,2.28.23,4.64.6,6.87,1.12.77.18,1.82.46,2.58.69,1.14-.04,2.38-.64,3.43-1.03,4.36-1.64,8.2-4.41,12.02-7,1.66-.48,3.46.45,5.15.35.76.01,1.82-.04,2.58-.13,1.38.02,2.92.21,4.29.2,2.83.05,5.75-.07,8.59-.06,3.52-.03,7.2.44,10.3,2.2,2.67,1.53,5.18,3.52,7.73,5.23,1.57.64,3.49.19,5.15.32,2.83,0,5.75,0,8.59,0"/><path class="b" d="M9.7,129.32c3.7,0,7.46,0,11.16,0,3.46.09,7.05-.04,10.3-1.34,3.95-1.48,7.27-4.32,10.3-7.18,1.62-1.5,3.32-3.19,5.15-4.44,1.01-.67,2.36-1.17,3.43-1.72,1.73-.86,3.51-1.94,5.15-2.96,1.01-.5,2.35-.23,3.43-.16,7.04.76,12.86,5.22,18.89,8.53,2.92,1.77,6.4,2.42,9.45,3.91,3.25,1.51,6.07,3.99,9.45,5.25,7.5-2,15.77-2.66,23.18.06,2.47-.77,4.8-2.24,6.87-3.78,1.13-.8,2.23-2.07,3.43-2.75,1.38.03,2.9.44,4.29.35,1.39,0,2.91-.34,4.29-.41,4.85.01,9.74-.51,14.6-.42,3.29.03,6.64.83,9.45,2.58,2.34,1.31,4.43,3.37,6.87,4.46,4.28,0,8.6,0,12.88,0"/><path class="b" d="M9.7,124.66c3.41,0,6.89,0,10.3,0,2.57,0,5.26.18,7.73-.68,5.87-1.63,10.5-5.92,14.6-10.23,2.14-2.18,4.27-4.62,6.87-6.26,2.11-1.22,4.48-2.41,6.87-2.92,2.52.48,5.18.66,7.73.93,6.17.52,12.29,1.86,18.03,4.21,2.64,1.02,5.56,1.73,7.73,3.66,4.43,3.88,8.02,9.1,13.74,11.23,6-1.94,12.09-2.47,18.03,0,1.82-.85,3.63-2.06,5.15-3.37.76-.64,1.64-1.71,2.58-2.11,3.09.95,6.35.33,9.45-.16,4.56-.24,9.17-.61,13.74-.57,3.51,0,7.16.47,10.3,2.12,2.4,1.12,4.47,3.09,6.87,4.15,4.28,0,8.6,0,12.88,0"/><path class="b" d="M9.7,120c4.85,0,9.75,0,14.6,0,11.21-1.94,17.95-12.03,25.76-19.26,1.57-1.49,3.91-2.07,6.01-1.75,1.31.65,2.87,1.16,4.29,1.49,3.35.76,6.88.92,10.3.81,6.27-.22,12.91-1.58,18.89.96,2.95,1.51,4.91,4.5,6.87,7.07,3.18,4.27,6.74,8.98,12.02,10.66,3.57-1.33,7.59-1.29,11.16,0,1.83-.72,3.63-1.86,5.15-3.09,1.45-1.1,3.17-2.88,5.15-2.12,3.15.67,6.32-.45,9.45-.62,5.71-.23,11.5-.26,17.17.53,2.99.43,5.97,1.44,8.59,2.94.77.44,1.81,1.08,2.58,1.52.66.52,1.71,1,2.58.86,3.99,0,8.03,0,12.02,0"/><path class="b" d="M9.7,115.34c4.85,0,9.75,0,14.6,0,11.01-2.43,19.07-10.99,27.48-17.89,1.93-1.95,4.26-.22,6.01,1.06,1.31.85,2.85,1.66,4.29,2.24,5.95,2.76,12.32.86,18.03-1.56,1.98-.83,3.95-2.02,6.01-2.66,1.34-.44,2.9-.59,4.29-.76,7.36-.76,11.43,17.56,23.18,18.12,8.01.38,11.53-7,15.46-6.8,2.77.94,5.75.14,8.59.37,7.35,1.73,15.03,1.75,22.33,3.71,3.02.84,5.89,2.33,8.59,3.9,1.59.55,3.49.16,5.15.27,2.83,0,5.75,0,8.59,0"/><path class="b" d="M9.7,110.68c5.13-.09,10.34.19,15.46-.12,6.47-1.6,12.62-4.49,18.03-8.37,3.86-2.62,7.26-6.01,11.16-8.56.87.13,1.91.66,2.58,1.23,1.03.71,2.3,1.45,3.43,1.98,4.55,2.22,9.95,2.22,14.6.3,4.61-1.71,8.76-4.96,13.74-5.55,2.79-.24,4.1-1.28,6.87.33,5.52,3.4,8.59,9.95,14.6,12.72,3.23,1.58,7.02,1.14,10.3-.05,2.07-.63,4.14-1.54,6.01-2.62,1.04-.61,2.42-.69,3.43.03,1.03.47,2.33.89,3.43,1.13,1.94.49,4.08.34,6.01.83,4.24.86,8.6,1.24,12.88,1.85,3.45.48,6.98,1.08,10.3,2.15,2.35.65,4.55,2.02,6.87,2.71,4.28,0,8.61,0,12.88,0"/><path class="b" d="M9.7,106.01c5.14-.06,10.33.12,15.46-.07,8.7-1.4,17.44-3.76,24.9-8.6,1.69-.95,3.32-2.39,5.15-3.05,1.19,0,2.33.95,3.43,1.31,8.56,3.6,15.61-.59,22.33-5.72,2.1-1.49,4.36-3.1,6.87-3.8.75-.2,1.81-.28,2.58-.4.75-.25,1.77-.65,2.58-.65,2.44.18,4.35,2.18,6.01,3.78,3.47,3.55,6.79,7.5,11.16,9.98,5.49,3.23,12.01,2.61,17.17-.96.77-.44,1.88-.26,2.58.27,1.02.51,2.32.98,3.43,1.25,1.35.33,2.91.53,4.29.61,2.25.41,4.59.86,6.87,1.09,7.83.81,15.8,1.57,23.18,4.48,1.85.82,4.05.37,6.01.48,2.83,0,5.75,0,8.59,0"/><path class="b" d="M9.7,101.35c4.85,0,9.75,0,14.6,0,3.13-.26,6.32-.74,9.45-1.1,6.46-.72,12.96-1.85,18.89-4.61,2.53-1.22,3.36-1.24,6.01-.48,3.41.73,7.05.41,10.3-.83,6.82-2.5,11.42-8.47,17.17-12.58.72-.48,1.76-1.05,2.58-1.35,1.17-.28,2.48-.69,3.43-1.46,4.52-2.31,8.54,4.82,11.16,7.61,2.67,3.22,5.64,6.51,9.45,8.4,3.7,1.87,8.2,1.96,12.02.39,1.39-.44,2.75-1.87,4.29-1.48.4.25,1.29.71,1.72.91,2.39,1.14,5.13,1.43,7.73,1.74,5.93,1.16,12.06.87,18.03,1.69,4.41.47,8.6,2.17,12.88,3.15,4.27,0,8.61,0,12.88,0"/><path class="b" d="M9.7,96.69c4.85,0,9.75,0,14.6,0,3.13-.34,6.3-.86,9.45-1.08,3.7-.31,7.48-.4,11.16-.9,3.18-.41,6.33-1.32,9.45-2.05,1.96-.44,4.04.25,6.01.15,3.55-.02,7.12-.96,10.3-2.53,6.06-2.9,10.51-8.12,15.46-12.5,1.47-1.4,3.43-2.33,5.15-3.34.68-.74,1.67-1.72,2.58-2.18,6.25-3.19,11.84,13.58,20.61,17.83,2.84,1.55,6.28,2.04,9.45,1.35,1.42-.25,2.85-1.1,4.29-1.22.47.04,1.33.41,1.72.69,1.02.54,2.32,1.04,3.43,1.33,5.9,1.31,12.02,1.28,18.03,1.11,2.85-.04,5.8.15,8.59.76,2.89.62,5.75,1.66,8.59,2.45,4.54.31,9.18.03,13.74.12"/><path class="b" d="M9.7,92.03c4.85,0,9.75,0,14.6,0,2.27-.32,4.59-.93,6.87-1.18,5.98-.77,12.1-.65,18.03-1.88,1.95-.35,4.02-.77,6.01-.81,1.67.09,3.47.34,5.15.22,5.13-.25,10.18-1.95,14.6-4.52,6.13-3.39,10.51-9.17,16.31-12.99,1.42-1.85,2.83-4.26,5.15-5.06,6.15-1.76,11.72,15.95,20.61,20.03,1.82.94,3.96,1.47,6.01,1.44,1.39,0,2.9-.43,4.29-.44.83,0,1.88.4,2.58.82,1.02.49,2.32.94,3.43,1.19,4.79.93,9.78.64,14.6.02,3.68-.47,7.51-.79,11.16.08,3.21.71,6.27,2.14,9.45,2.97,4.54.3,9.18.03,13.74.12"/><path class="b" d="M9.7,87.36c4.85,0,9.75,0,14.6,0,2.27-.42,4.58-1.21,6.87-1.57,3.68-.69,7.48-1.08,11.16-1.78,4.26-.74,8.51-2.34,12.88-1.93,9.97,1.59,21.17-2.18,29.2-8.1,2.62-2.03,5.35-4.14,7.73-6.44,1.76-2.72,3.88-7.65,7.73-7.26,6.35,2.04,10.6,17.76,19.75,21.68,2.38,1.2,5.17.93,7.73,1.36,2,.46,3.93,1.61,6.01,1.8,5.5.74,10.98-.79,16.31-1.92,3.4-.72,7.05-.62,10.3.66,2.86,1.05,5.61,2.64,8.59,3.37,4.54.32,9.18.03,13.74.12"/><path class="b" d="M9.7,82.7c3.13,0,6.32,0,9.45,0,1.96-.08,4.08.2,6.01-.17,6.38-2.47,13.35-2.91,19.75-5.29,3.85-1.51,7.84-3.42,12.02-2,11.26,2.99,24.72-1.13,33.49-8.53,1.97-1.33,3.17-3.68,4.29-5.69,1.58-2.54,4.24-6.64,7.73-5,3.12,1.92,4.9,5.53,6.87,8.49,3.48,5.38,7.09,12.03,13.74,13.79,1.67.4,3.5.75,5.15,1.23,1.06.36,2.33.82,3.43,1.01,6.15,1.04,12.18-1.2,18.03-2.76,3.37-.91,7.1-.98,10.3.55,2.87,1.33,5.52,3.31,8.59,4.21,1.64.31,3.48.09,5.15.15,2.83,0,5.75,0,8.59,0"/><path class="b" d="M9.7,78.04c4.85,0,9.75,0,14.6,0,1.75-.44,3.44-1.48,5.15-2.05,2.76-1.07,5.69-1.87,8.59-2.48,2.26-.47,4.62-.96,6.87-1.45,2.5-.53,5.19-1.14,7.73-.53,2.27.49,4.57,1.27,6.87,1.63,4,.54,8.09-.05,12.02-.82,7.39-1.73,17.92-3.4,22.33-10.2,2.04-3.19,5.33-12.78,10.3-10.04,2.63,1.81,4.29,4.89,6.01,7.5,3.44,5.31,6.76,11.63,12.88,14.2,3.03,1.11,6.21,2.29,9.45,2.58,5.58.17,10.94-2.03,16.31-3.24,3.36-.84,7.04-1.11,10.3.25,3.19,1.35,6.12,3.43,9.45,4.51,1.64.34,3.48.1,5.15.16,2.83,0,5.75,0,8.59,0"/><path class="b" d="M9.7,73.38c3.13,0,6.32,0,9.45,0,1.96-.11,4.11.27,6.01-.23,3.37-1.72,6.74-3.61,10.3-4.91,4.36-1.43,9.11-2.91,13.74-2.22,1.44.31,2.93,1.03,4.29,1.56,1.37.47,2.91.97,4.29,1.37,6.27,1.47,12.72-.26,18.89-1.43,5.16-1.21,10.75-1.6,15.46-4.21,2.43-1.65,3.67-4.68,5.15-7.11,4.33-7.35,7.62-8.92,12.88-1.16,5.8,8.43,9.76,16.34,21.47,15.81,2.3-.08,4.64-.67,6.87-1.17,1.97-.33,4.05-.73,6.01-1.07,4.22-.73,8.69-1.57,12.88-.26,3.56,1.15,6.73,3.41,10.3,4.55,1.84.84,4.05.38,6.01.49,2.83,0,5.75,0,8.59,0"/><path class="b" d="M9.7,68.72c3.13,0,6.32,0,9.45,0,1.96-.11,4.1.26,6.01-.22,4.12-2.03,7.82-4.96,12.02-6.84,3.43-1.49,7.47-2.81,11.16-1.51,11.44,5.95,15.05,5.53,27.48,3.06,4.81-1.04,9.75-1.65,14.6-2.5,3.39-.39,5.12-3.07,6.87-5.66,2.65-3.63,6.56-8.68,11.16-4.58,5.88,5.18,9.93,14.54,18.89,14.53,3.78-.18,7.45-1.57,11.16-2.12,5.42-.1,10.97-.47,16.31.55,4.49,1,8.44,3.66,12.88,4.86,1.87.75,4.05.34,6.01.44,2.83,0,5.75,0,8.59,0"/><path class="b" d="M9.7,64.05c4.85,0,9.75,0,14.6,0,3.56-.98,6.43-3.74,9.45-5.76,4.11-2.85,9.49-6.46,14.6-4.09,2.52,1.27,4.99,2.82,7.73,3.59,2.93,1.3,6.27,1.63,9.45,1.47,8.08-.47,15.91-3.18,24.04-3.2,2.45.03,4.44-.3,6.01-2.36,2.9-2.9,6.62-7.06,11.16-5.69,2.65.92,4.79,3.02,6.87,4.82,2.96,2.63,6.28,5.35,10.3,6,3.65.75,6.88-1.59,10.3-2.4,1.06-.29,2.35-.56,3.43-.73,1.09-.02,2.37.27,3.43.47,2.84.6,5.75,1.28,8.59,1.87,3.51.71,7.02,1.72,10.3,3.15,2.72,1.22,5.71,1.97,8.59,2.73,4.54.31,9.18.03,13.74.12"/><path class="b" d="M9.7,59.39c4.85,0,9.75,0,14.6,0,2.56-.54,4.78-2.36,6.87-3.85,3.98-2.95,7.89-6.63,12.88-7.69,3.06-.64,5.87,1.11,8.59,2.24,4.91,3.57,11.37,3.72,17.17,3.06,3.19-.28,6.31-1.28,9.45-1.87,4.27-.83,8.62-.4,12.88.22.94-.09,1.84-.96,2.58-1.48.73-.51,1.78-1.14,2.58-1.55,5.9-3.15,10.2-1.87,15.46,1.73,3.99,2.58,8.96,4.39,13.74,3.34,2.41-.6,4.49-2.28,6.87-2.98,2.45-.83,5.16-1.07,7.73-.81,1.39.6,2.92,1.32,4.29,1.94,3.33,1.54,6.86,2.77,10.3,4.01,3.61,1.4,7.31,2.76,11.16,3.29,2.22.53,4.61.36,6.87.38,2.83,0,5.75,0,8.59,0"/><path class="b" d="M9.7,54.73c4.85,0,9.75,0,14.6,0,2.52-.52,4.76-2.24,6.87-3.64,3.06-2.18,6.08-4.63,9.45-6.34,2.6-1.36,5.7-2.14,8.59-1.31,2.57,1.85,5.45,3.43,8.59,4.05,5.7,1.3,11.7.56,17.17-1.34,6.27-2.04,10.16-2.38,16.31.38,4.4-2.51,9.82-2.96,14.6-1.29,5.07,1.7,9.94,4.69,15.46,4.48,2.98,0,6.06-.61,8.59-2.25,3.6-2.08,7.92-3.06,12.02-2.15.77.15,1.83.4,2.58.66.76.49,1.81,1.15,2.58,1.62,1.62.99,3.43,1.99,5.15,2.8,3.29,1.49,6.73,2.98,10.3,3.65,6.51,1.1,13.18.55,19.75.68"/><path class="b" d="M9.7,50.07c4.85,0,9.75,0,14.6,0,2.81-.65,5.3-2.52,7.73-4,2.97-1.95,6.08-3.89,9.45-5.09,1.34-.47,2.88-.84,4.29-.95,1.13.37,2.38,1.01,3.43,1.55,4.62,2.76,10.2,3.44,15.46,2.6,4.19-.47,8.12-2.2,12.02-3.7,2.97-1.14,6.23-2.22,9.45-1.65,1.14.19,2.42.67,3.43,1.21.77.36,1.82.17,2.58-.15,7.96-2.2,19.27,7.35,30.05,6.19,2.99-.09,5.95-.95,8.59-2.35,2.94-1.32,6.19-2.34,9.45-2.22,2.64.11,5.32.88,7.73,1.93,1.88,1.34,3.95,2.66,6.01,3.7,2.42,1.2,5.05,2.28,7.73,2.69,1.95.35,4.04.2,6.01.24,4.85.06,9.75,0,14.6.03"/><path class="b" d="M9.7,45.4c4.85,0,9.75,0,14.6,0,6.5-1.78,11.51-7.08,18.03-8.88,2.34.35,4.66,1.32,6.87,2.14,1.38.52,2.86,1.25,4.29,1.62,3.39.51,6.91.39,10.3.06,6.25-.39,11.93-3.46,18.03-4.55,1.37-.21,2.92-.23,4.29,0,1.1.15,2.32.72,3.43.76,1.13-.02,2.36-.54,3.43-.82,1.06-.26,2.35-.39,3.43-.35,3.89.18,7.52,1.96,11.16,3.19,4.4,1.56,9.05,2.76,13.74,2.93,2.26.04,4.66.07,6.87-.49,4.18-1.31,8.44-2.94,12.88-2.86,3.25.03,6.47,1.06,9.45,2.3,2.79,1.53,5.48,3.51,8.59,4.4,2.19.85,4.59.28,6.87.4,5.42.3,10.89.11,16.31.16"/><path class="b" d="M9.7,40.74c4.85,0,9.75,0,14.6,0,4.95-1.14,9.29-4.16,13.74-6.5.72-.5,1.73-.63,2.58-.56,1.39.04,2.92.19,4.29.41,1.99.32,4.07.84,6.01,1.39,1.38.32,2.86,1.07,4.29,1.03,1.97-.13,4.04-.26,6.01-.39,2.84-.21,5.79-.28,8.59-.85,3.99-.66,7.98-1.79,12.02-2.1,1.38-.09,2.93-.03,4.29.2,1.06.24,2.34.47,3.43.36,3.4-.55,6.82-1.5,10.3-1.19,9.33.56,18.04,5.28,27.48,4.91,10.34-1.93,14.72-5.07,25.76-.94,2.93,1.1,5.39,3.25,8.59,3.78,2.79.61,5.75.39,8.59.44,3.99,0,8.03,0,12.02,0"/><path class="b" d="M9.7,36.08c4.85,0,9.75,0,14.6,0,2.67-.46,5.27-1.63,7.73-2.74,1.41-.58,2.8-1.67,4.29-2.01,4.25-.6,8.62-.81,12.88-.22,1.99.22,4.03.75,6.01,1.01,1.98.1,4.03-.51,6.01-.58,4.28-.2,8.61-.08,12.88-.46,3.12-.19,6.32-.45,9.45-.24,1.68.1,3.46.51,5.15.5,1.68.02,3.48-.25,5.15-.42,5.99-.69,12.09-.45,18.03.55,5.66.88,11.41,2.32,17.17,1.92,4.58-.75,9.11-2.09,13.74-2.53,4.9-.5,9.89.27,14.6,1.64,2.23.99,4.43,2.36,6.87,2.85,2.78.72,5.73.8,8.59.74,3.12,0,6.32,0,9.45,0"/><path class="b" d="M9.7,31.42c5.13-.1,10.34.2,15.46-.12,2.31-.63,4.68-1.44,6.87-2.43,2.22-.47,4.62-.57,6.87-.88,3.4-.38,6.88-.67,10.3-.54,2.27.03,4.61.47,6.87.53,2.56-.07,5.15-.83,7.73-.67,4.85.29,9.74.62,14.6.77,3.71.07,7.45.64,11.16.77,6.29.04,12.6-.31,18.89-.27,5.14-.02,10.32.39,15.46.52,2.84.2,5.76.3,8.59-.19,8.51-1.31,17.17-2.46,25.76-1.16,1.08.16,2.41.26,3.43.66,1.86,1.07,3.95,2.03,6.01,2.66,1.89.63,4.05.27,6.01.36,2.83,0,5.75,0,8.59,0"/><path class="b" d="M9.7,26.75c4.85,0,9.75,0,14.6,0,1.74-.18,3.43-1.1,5.15-1.33,3.13-.13,6.32-.32,9.45-.54,5.13-.38,10.32-.78,15.46-.42,2.86.25,5.74-.48,8.59-.52,2.56-.04,5.19.3,7.73.63,3.7.21,7.46.52,11.16.74,5.99.45,12.02.83,18.03.71,6.57-.14,13.18-.52,19.75-.74,3.7-.25,7.46.06,11.16-.06,9.43-.52,18.88-1.32,28.34-.98,1.96.14,4.13-.09,6.01.51,1.32.73,2.78,1.75,4.29,2.01,4.27,0,8.61,0,12.88,0"/><path class="b" d="M9.7,22.09c4.56,0,9.18,0,13.74,0,2.83-.23,5.74-.24,8.59-.23,5.71-.03,11.46-.18,17.17-.24,4.57.02,9.18-.01,13.74-.18,5.71.02,11.46.32,17.17.3,6.57.17,13.17.41,19.75.32,21.46-.24,42.94-.54,64.4-.48,1.07,0,2.36.02,3.43.04.74.21,1.79.57,2.58.48,3.99,0,8.03,0,12.02,0"/><path class="b" d="M9.7,17.43h172.59"/><path class="b" d="M9.7,12.77h172.59"/><path class="b" d="M9.7,8.11h172.59"/></svg>