<?xml version="1.0" encoding="UTF-8"?><svg id="a" xmlns="http://www.w3.org/2000/svg" width="1920" height="2400" viewBox="0 0 192 240"><defs><style>.b{fill:none;stroke:#fff;stroke-miterlimit:10;stroke-width:.3px;}.c{stroke-width:0px;}</style></defs><rect class="c" width="192" height="240"/><path class="b" d="M9.73,231.86h172.54"/><path class="b" d="M9.73,227.2h172.54"/><path class="b" d="M9.73,222.54c28.04-.07,56.09.21,84.13-.24,29.46.46,58.95.16,88.42.24"/><path class="b" d="M9.73,217.88c5.71-.05,11.47.15,17.17-.16,6,.03,12.03.03,18.03-.02,7.43,0,14.89-.47,22.32-.33,6.85-.31,13.74-.38,20.6-.3,6,.01,12.03-.35,18.03-.26,3.71.05,7.47.27,11.16.59,3.41.09,6.89.07,10.3.17,6.29.23,12.6-.41,18.89-.42,4.56-.04,9.17.18,13.73.33,2.83.2,5.79-.09,8.58.31,4.55.23,9.18.02,13.73.09"/><path class="b" d="M9.73,213.22c6.57-.05,13.19.2,19.74-.32,6,.08,12.03.1,18.03-.12,4.3-.09,8.6-.75,12.88-1.06,8-.29,16.03-.28,24.04,0,6.31.32,12.6-.58,18.89-.81,5.45-.28,10.9.44,16.31.89,2.26.13,4.62.35,6.87.6,1.37.13,2.91.46,4.29.35,5.71-.5,11.41-1.7,17.17-1.66,4.01.01,8.05.65,12.02,1.17,2.55.26,5.19.46,7.73.83,4.83.34,9.75.05,14.59.14"/><path class="b" d="M9.73,208.56c6.86,0,13.75.03,20.6-.1,5.14,0,10.32,0,15.45-.38,4.9-.21,9.72-1.39,14.59-1.88,7.99-.53,16.03-.42,24.04-.45,2.84-.05,5.76-.14,8.58-.48,3.97-.57,8-1.18,12.02-1.14,4.34,0,8.68.81,12.88,1.86,2.56.45,5.2.95,7.73,1.57.76.18,1.81.47,2.58.6,1.99,0,4.05-.55,6.01-.87,4.23-.82,8.55-1.7,12.88-1.55,5.53.09,10.86,1.88,16.31,2.58,6.27.49,12.6.16,18.89.25"/><path class="b" d="M9.73,203.9c11.73.03,23.5.1,35.2-1.02,5.2-.43,10.25-2.01,15.45-2.43,2.54-.24,5.18-.32,7.73-.29,2.83-.22,5.75-.32,8.58-.36,5.71-.13,11.53.02,17.17-1.06,14.51-3.74,16.65-1.99,30.04,3.23,2.4,1.31,5.2.87,7.73.23,3.11-.67,6.28-1.44,9.44-1.84,3.7-.49,7.52-.27,11.16.54,1.68.36,3.49.85,5.15,1.31,1.61.65,3.42,1.19,5.15,1.4,6.54.59,13.18.17,19.74.29"/><path class="b" d="M9.73,199.23c5.14-.03,10.32.06,15.45-.04,3.42-.27,6.9-.59,10.3-1.07,2.82-.5,5.73-.85,8.58-1.11,2.88-.31,5.78-.94,8.58-1.64,5.63-1.19,11.44-1.21,17.17-1.24,7.42-.51,14.93-.25,22.32-1.26,3.81-.66,7.42-2.3,11.16-3.25,7.28-2.09,11.07.66,17.17,4.05,2.12,1.26,4.24,3.08,6.87,2.9,5.17-.64,10.2-2.62,15.45-2.97,3.72-.35,7.53.05,11.16.91,1.69.76,3.43,1.79,5.15,2.48,7.3,3.19,15.44,2.04,23.18,2.24"/><path class="b" d="M9.73,194.57c3.41,0,6.89,0,10.3,0,1.97-.06,4.07.18,6.01-.24,4-.74,8.06-1.49,12.02-2.45,1.69-.38,3.47-.99,5.15-1.4,1.39-.15,2.92-.38,4.29-.64,1.99-.37,4.02-1.05,6.01-1.4,4.53-.62,9.16-.85,13.73-.77,3.42.19,6.89-.24,10.3-.35,4.85-.23,9.75-.32,14.59-.66,5.17-.58,9.8-3.22,14.59-5.01,1.88-.67,4.04-1,6.01-.54,2.38.71,4.8,1.83,6.87,3.22,2.31,1.41,4.07,4.08,6.87,4.57,2.03.32,4.07-.6,6.01-1.07,2.53-.71,5.15-1.45,7.73-1.99,2.23-.47,4.59-.8,6.87-.87,1.38.04,3.03-.22,4.29.43,4.98,3.1,9.89,6.56,15.45,8.53,1.87.81,4.02.65,6.01.64,3.12,0,6.32,0,9.44,0"/><path class="b" d="M9.73,189.91c4.85,0,9.74,0,14.59,0,2.87-.67,5.72-1.81,8.58-2.57,4.02-1.2,8.13-2.35,12.02-3.95,1.57-.8,3.48-.82,5.15-1.29,3.31-1.1,6.86-1.19,10.3-1.44,3.98-.25,8.03-.24,12.02-.09,3.4-.33,6.89-.46,10.3-.41,4.85-.1,9.83,1.2,14.59-.16,2.71-.67,5.34-1.87,7.73-3.3,2.65-1.5,5.43-3.38,8.58-3.41,3.5-.92,6.93,1.01,9.44,3.31,1.08.92,2.17,2.27,3.43,2.96,2.24,1.03,4.66-.5,6.87-.99,3.95-1.2,7.94-2.55,12.02-3.26.4-.07,1.3-.2,1.72-.25.87.15,1.85.87,2.58,1.34,1.41.94,2.95,2.06,4.29,3.09,3.91,3.01,7.81,6.18,12.02,8.79,1.02.6,2.25,1.44,3.43,1.63,1.07,0,2.36,0,3.43,0,3.12,0,6.32,0,9.44,0"/><path class="b" d="M9.73,185.25c3.12,0,6.32,0,9.44,0,1.95-.12,4.11.28,6.01-.24,5.73-3.03,11.96-5.02,18.03-7.23,2.32-.77,4.58-2,6.87-2.83,1.41-.13,2.9-.64,4.29-.84,2.55-.15,5.18-.36,7.73-.55,4.27-.32,8.61-.44,12.88-.1,2.84-.12,5.76-.1,8.58.28,3.17.33,6.3,1.32,9.44,1.82,2.27.21,4.66-.14,6.87-.65,4.13-.98,7.57-3.73,11.16-5.84,2.26-1.68,4.83-3.44,7.73-3.62,4.22-.26,7.25,3.17,10.3,5.52,3.16-.57,6.35-1.38,9.44-2.26,1.67-.47,3.47-.99,5.15-1.41.88,0,1.84.64,2.58,1.04,5.34,3.05,9.86,7.38,14.59,11.26,1.62,1.33,3.41,2.71,5.15,3.87,1.03.63,2.22,1.57,3.43,1.79,4.27,0,8.6,0,12.88,0"/><path class="b" d="M9.73,180.59c3.12,0,6.32,0,9.44,0,1.08,0,2.35,0,3.43,0,.8,0,1.83.08,2.58-.27,3.27-1.95,6.75-3.71,10.3-5.08,4.17-1.64,8.58-2.77,12.88-4.02,2.01-.48,3.95-1.62,6.01-1.84,8.3-.34,16.57-2.26,24.89-1.53,3.15-.08,6.37.2,9.44.9,2.79.73,5.66,1.52,8.58,1.32,8.22.05,11.37-3.31,18.03-6.85,3.44-1.85,7.72-2.19,11.16-.15,1.44.71,2.75,2.04,4.29,2.52,1.07.28,2.37.01,3.43-.19,1.68-.31,3.49-.74,5.15-1.17.75-.3,1.85-.29,2.58.09,1.09.39,2.38.91,3.43,1.4,8.15,3.62,14.2,10.72,22.32,14.38,1.83.87,4.05.38,6.01.5,2.83,0,5.75,0,8.58,0"/><path class="b" d="M9.73,175.93c4.85,0,9.74,0,14.59,0,1.51-.42,2.91-1.55,4.29-2.25,2.49-1.41,5.11-2.78,7.73-3.94,5.24-2.37,10.84-3.87,16.31-5.61,1.09-.33,2.31-.93,3.43-1.14.77.02,1.81.05,2.58.06,2.56.01,5.2-.29,7.73-.74,10.81-2.25,16.17-2.6,26.61,1.55,16.51,4.27,22.53-9.82,34.34-5.77,3.64,1.74,5.47,2.04,9.44.97,1.41-.53,2.95.34,4.29.74,1.71.6,3.52,1.34,5.15,2.13,3.98,1.91,7.64,4.54,11.16,7.18,3.47,2.55,7.03,5.3,11.16,6.68,4.53.35,9.18.03,13.73.14"/><path class="b" d="M9.73,171.27c4.56,0,9.17,0,13.73,0,1.24.17,2.42-.61,3.43-1.19,1.09-.62,2.36-1.4,3.43-2.05,3.62-2.24,7.29-4.56,11.16-6.37,4.6-2.14,9.59-3.63,14.59-4.42,4.52.89,9.19.84,13.73.17,5.68-.85,11.56-1.17,17.17.34,3.14.78,6.23,2.02,9.44,2.47,3.93.86,8.09.87,12.02-.04,5.49-1.16,10.63-4.05,16.31-4.26,2.01-.13,4.05.49,6.01.77,1.38.11,2.94-.04,4.29-.31.76-.16,1.82-.42,2.58-.6,1.44.07,2.94.76,4.29,1.22,8.38,3.11,15.08,9.43,23.18,13.07,1.03.44,2.34.86,3.43,1.11,1.36.18,2.92.07,4.29.1,3.12,0,6.32,0,9.44,0"/><path class="b" d="M9.73,166.61c4.85,0,9.74,0,14.59,0,5.41-1.41,9.98-5.09,14.59-8.1,5.1-3.48,10.85-6.8,17.17-7,3.06.92,6.25,1.72,9.44,2.02,3.69.36,7.46.26,11.16.5,5.19.28,10.31,1.44,15.45,2.06,3.17.28,6.28,1.3,9.44,1.62,3.7.41,7.51.18,11.16-.53,5.13-.95,10.18-2.87,15.45-2.79,1.97.15,4.07.04,6.01-.36,1.38-.19,2.89-.87,4.29-.69,2.97.72,5.88,1.95,8.58,3.35,7.22,3.65,14.02,9.14,22.32,9.92,4.27,0,8.6,0,12.88,0"/><path class="b" d="M9.73,161.95c3.41,0,6.89,0,10.3,0,1.38,0,2.91,0,4.29,0,1.43-.13,2.95-.67,4.29-1.14,9.73-3.42,16.11-13.52,26.61-15.03,1.17-.03,2.37.73,3.43,1.12,1.65.7,3.45,1.44,5.15,2.01,3.61,1.23,7.43,1.97,11.16,2.74,5.63,1.06,11.41,2.84,17.17,1.81,2.6-.41,5.18.59,7.73.97,3.37.58,6.88.83,10.3.6,4.95-.3,9.77-1.75,14.59-2.8,3.66-.76,7.48-.94,11.16-1.65,2.04-.58,4.11.29,6.01.98,4.13,1.54,8.06,3.71,12.02,5.65,4.58,2.27,9.47,4.2,14.59,4.7,4.56.13,9.17.01,13.73.05"/><path class="b" d="M9.73,157.29c4.85,0,9.74,0,14.59,0,6.15-.64,11.62-4,16.31-7.84,3.88-2.94,10.44-9.58,15.45-9.4,2.64,1.3,5.15,3.05,7.73,4.47,3,1.68,6.23,3.08,9.44,4.27,4.4,1.57,8.99,3.33,13.73,3.22,1.75-.05,3.58-.57,5.15-1.33,1.64-.69,3.49-.1,5.15.19,2.24.4,4.6.76,6.87.92,6.74.63,13.4-1.06,19.74-3.19,3.32-1.08,6.79-1.99,10.3-2.11,1.37-.02,2.95-.29,4.29.09,6.15,2.22,11.93,5.42,18.03,7.75,3.84,1.48,7.93,2.46,12.02,2.9,4.56.15,9.17.01,13.73.06"/><path class="b" d="M9.73,152.63c3.41,0,6.89,0,10.3,0,1.97-.06,4.08.2,6.01-.26,11.86-2.17,18.17-11.39,27.47-17.75.72-.48,1.69-1.01,2.58-.75,1.16.62,2.41,1.54,3.43,2.36,2.24,1.81,4.52,3.78,6.87,5.45,4.69,3.28,9.87,6.16,15.45,7.54,2.83.66,6,.61,8.58-.86,1.01-.62,2.16-1.63,3.43-1.25,8.28,1.46,16.07,1.69,24.04-1.43,2.58-.94,5.18-2.1,7.73-3.15,1.63-.62,3.39-1.47,5.15-1.64,2.26-.07,4.62.06,6.87.27,1.13.33,2.37,1.03,3.43,1.52,5.62,2.72,11.21,5.69,17.17,7.59,3.88,1.15,7.96,2.15,12.02,2.35,3.99,0,8.03,0,12.02,0"/><path class="b" d="M9.73,147.97c3.41,0,6.89,0,10.3,0,1.96-.08,4.1.24,6.01-.33,7.8-1.89,15.01-5.98,20.6-11.74,1.74-1.73,3.53-3.7,5.15-5.54,1.05-1.11,2.12-2.68,3.43-3.5l.86-.08c2.36,1.07,4.23,3.17,6.01,5,2.44,2.59,4.97,5.28,7.73,7.55,5.67,4.61,14.88,10.15,21.46,4.24,1.08-.28,2.35.12,3.43.2,1.37.16,2.91.29,4.29.34,3.75.14,7.57-.34,11.16-1.43,4.54-1.32,8.8-3.55,12.88-5.9,2.23-1.19,4.45-2.75,6.87-3.53,1.07-.08,2.36-.09,3.43-.04,1.38.07,2.93.24,4.29.47,1.17.48,2.37,1.39,3.43,2.05,2.8,1.82,5.68,3.69,8.58,5.34,6.04,3.61,12.89,5.56,19.74,6.9,4.27,0,8.6,0,12.88,0"/><path class="b" d="M9.73,143.3c4.85,0,9.74,0,14.59,0,2.6-.53,5.18-1.55,7.73-2.31,3.84-1.27,7.73-2.72,11.16-4.9,3.3-2.08,6.19-4.94,8.58-8,1.14-1.41,2.28-3.25,3.43-4.65.87-.91,2.27-.98,3.43-.73,1.97.5,3.69,1.95,5.15,3.31,2.04,1.95,4.01,4.18,6.01,6.17,4.62,4.57,11.12,9.85,18.03,7.59,2.1-1,2.88-1.32,5.15-.47,1.93.55,4.01,1.01,6.01,1.25,10.2,1.45,19.41-3.32,27.47-9.08.75-.52,1.81-1.22,2.58-1.72,1-.5,2.34-.65,3.43-.8,1.94-.11,4.16-.48,6.01.25,5.22,2.96,10.08,6.64,15.45,9.34,4.8,2.53,10.23,3.5,15.45,4.76,4.27,0,8.6,0,12.88,0"/><path class="b" d="M9.73,138.64c3.41,0,6.89,0,10.3,0,1.38,0,2.91,0,4.29,0,.81-.11,1.81-.55,2.58-.81,6.53-2.41,13.87-3.01,19.74-6.98,2.29-1.56,4.35-3.69,6.01-5.91,2.32-3.4,3.28-5.36,7.73-6.05,7.36-.83,14.61,9.71,22.32,11.88,1.05.33,2.33.56,3.43.56,1.38-.1,2.94-.33,4.29.12,1.71.61,3.43,1.6,5.15,2.21,11.87,4.86,24.16-.89,33.48-8.39,1.88-.81,4-1.37,6.01-1.77,1.07-.15,2.38-.55,3.43-.17,4.91,2.17,9.21,5.54,13.73,8.38,2.94,1.87,6.14,3.48,9.44,4.58,1.35.47,2.92.88,4.29,1.29,1.08.29,2.32.9,3.43,1.07,4.27,0,8.6,0,12.88,0"/><path class="b" d="M9.73,133.98c4.85,0,9.74,0,14.59,0,2-.55,3.97-1.6,6.01-2.06,5.38-1.52,11.27-1.53,16.31-4.16,1.89-.99,3.71-2.45,5.15-4.02,1.19-1.22,2.21-3,3.43-4.19,2.34-1.81,5.1-3.29,7.73-4.64,7.36-3.66,13.25-.44,19.74,3.19,2.12,1.27,4.64,1.81,6.87,2.82,2.65,1.42,5.08,3.42,7.73,4.86,10.23,6.21,23.14,1.93,31.76-5.17,2.8-1.21,5.69-2.45,8.58-3.41,5.44.65,10.19,4.61,14.59,7.63,3.74,2.73,7.73,5.26,12.02,7.04,1.69.63,3.4,1.7,5.15,2.12,4.27,0,8.6,0,12.88,0"/><path class="b" d="M9.73,129.32c3.41,0,6.89,0,10.3,0,1.38,0,2.91,0,4.29,0,.83-.16,1.8-.72,2.58-1.04,5.68-2.55,12.13-1.77,18.03-3.45,3.81-1.02,6.95-3.65,9.44-6.62,1.58-1.06,3.56-1.68,5.15-2.72,3.01-1.86,5.79-4.21,8.58-6.37,6.53-5.14,11.41-7.45,18.88-2.33,2.02,1.26,4.16,2.6,6.01,4.11,2.3,1.92,4.51,4.14,6.87,5.99,6.22,5.23,13.9,6.01,21.46,3.46,2.78-.86,5.38-2.41,7.73-4.11,1.4-.56,2.94-1.25,4.29-1.92,1.39-.69,2.93-1.51,4.29-2.25.75-.22,1.82-.1,2.58,0,5.98.68,10.88,4.6,15.45,8.21,4.28,3.3,8.75,6.91,13.73,9.04,4.27,0,8.6,0,12.88,0"/><path class="b" d="M9.73,124.66c4.85,0,9.74,0,14.59,0,1.72-.52,3.38-1.63,5.15-2.06,2.76-.83,5.72-.98,8.58-1.1,4.44-.13,9.14-.71,12.88-3.33,1.17-.69,2.16-2.06,3.43-2.56,1.66-.48,3.54-.6,5.15-1.28,5.41-2.14,9.7-6.35,13.73-10.41,4.24-4.17,9.96-11.42,16.31-6.65.93.84,2.34,1.16,3.43,1.68,1.58.88,3.05,2.29,4.29,3.59,6.66,7.41,12.26,13.8,23.18,12.85,3.04-.2,6.03-1.23,8.58-2.87,1.42-.36,2.96-.9,4.29-1.51,1.43-.65,2.96-1.51,4.29-2.33.72-.29,1.81-.35,2.58-.4,12.4-1.22,19.4,11.26,29.19,16.37,4.27,0,8.6,0,12.88,0"/><path class="b" d="M9.73,120c4.85,0,9.74,0,14.59,0,1.73-.51,3.39-1.63,5.15-2.1,4.15-1.34,8.6-.88,12.88-1.3,2.65-.25,5.36-.92,7.73-2.16,1.45-.58,2.68-2.25,4.29-2.23,2.26.12,4.63.39,6.87-.17,4.73-1,9.17-3.36,12.88-6.44,2.75-2.29,5.27-5.03,7.73-7.63,2.68-2.82,6.1-6.41,10.3-4.41,8.48-4.21,13.25,16.1,30.04,17.24,2.32.19,4.8-.13,6.87-1.25,1.7-.05,3.53-.33,5.15-.87,1.43-.39,2.85-1.33,4.29-1.67,3.97-.51,8.15-.94,12.02.36,4.92,1.62,8.93,5.16,12.88,8.39,1.06.87,2.34,1.9,3.43,2.73.96.71,2.14,1.74,3.43,1.52,3.99,0,8.03,0,12.02,0"/><path class="b" d="M9.73,115.34c4.85,0,9.74,0,14.59,0,1.15-.23,2.34-.99,3.43-1.4,1.61-.67,3.43-1.21,5.15-1.51,5.13-.84,10.57-.38,15.45-2.46,1.81-.64,3.42-1.98,5.15-2.75,1.73.15,3.45.95,5.15,1.26,7.51,1.46,14.01.25,19.74-4.99,3.67-2.99,6.63-7.31,11.16-9.05,1.06-.36,2.35-.13,3.43-.26,1.35-.61,2.73-1.64,4.29-1.58,4.08-.22,6.58,2.07,9.44,4.62,2.94,2.65,5.99,5.38,9.44,7.36,3.8,2.08,8.58,4.29,12.88,2.47,1.66-.17,3.49.15,5.15-.22,1.09-.18,2.38-.51,3.43-.85,1.36-.23,2.92-.2,4.29-.29,4.66-.28,9.45.29,13.73,2.23,2.98,1.29,5.82,3.06,8.58,4.75,1.64.9,3.31,2.24,5.15,2.7,4.27,0,8.6,0,12.88,0"/><path class="b" d="M9.73,110.68c4.85,0,9.74,0,14.59,0,1.14-.22,2.35-.94,3.43-1.33,1.63-.65,3.44-1.21,5.15-1.59,7.98-1.5,13.19-1.17,20.6-5.47,2.12.51,3.95,2.07,6.01,2.78,5.19,2.14,11.36,2.42,16.31-.51,4.88-2.67,8.37-7.26,12.88-10.43,1.5-1.13,3.5-1.4,5.15-2.18,1.35-.88,2.68-2.17,4.29-2.57,5.1-1.12,9.14,3.57,12.88,6.31,4.85,3.78,10.65,8.24,17.17,7.22,1.34-.44,2.89-.57,4.29-.49,1.68-.03,3.49-.25,5.15-.55,5.21.23,10.49,1.04,15.45,2.67,5.54,1.69,10.65,4.87,16.31,6.14,4.27,0,8.6,0,12.88,0"/><path class="b" d="M9.73,106.02c4.85,0,9.74,0,14.59,0,1.14-.22,2.34-.91,3.43-1.29,1.91-.72,4-1.3,6.01-1.68,6.61-1.23,13.71-.96,19.74-4.31,2.16.6,3.94,2.33,6.01,3.16,5.07,2.43,11.15,2.77,16.31.44,4.79-2.03,8.6-5.75,12.88-8.61,1.83-1.27,4.14-1.85,6.01-3.05,1.58-1.13,3.2-2.55,5.15-2.97,5.92-1.16,10.81,4.05,15.45,6.93,3.81,2.54,8.15,5.05,12.88,4.92,3.19-.26,6.34-1.25,9.44-1.97,4.36-.15,8.76.95,12.88,2.31,6.27,2.03,12.22,5.56,18.89,6.11,4.27,0,8.6,0,12.88,0"/><path class="b" d="M9.73,101.36c4.85,0,9.74,0,14.59,0,1.13-.21,2.34-.88,3.43-1.22,1.91-.67,4.01-1.16,6.01-1.45,6.57-1.03,13.62.03,19.74-3.03,2.11.53,3.96,2.05,6.01,2.78,5.15,2.15,11.06,2.22,16.31.37,4.25-1.42,8.09-3.87,12.02-5.98,1.88-1.07,4.08-1.7,6.01-2.64,1.76-.84,3.34-2.28,5.15-3.03,5.03-2.16,10.28.68,14.59,3.2,5.2,2.94,10.93,6.64,17.17,5.81,2.46-.52,4.61-2.1,6.87-3.11,4.03-1.07,8.3.36,12.02,1.92,4.81,2.05,9.44,4.84,14.59,5.97,2.5.58,5.18.37,7.73.41,3.41,0,6.89,0,10.3,0"/><path class="b" d="M9.73,96.7c4.85,0,9.74,0,14.59,0,1.99-.51,3.97-1.47,6.01-1.81,3.36-.71,6.88-.75,10.3-.71,2.84.02,5.79.1,8.58-.45,4.05-.91,3.37-2.19,7.73-.32,9.4,3.68,18.44,1.47,27.47-2.05,2.5-.92,5.12-1.82,7.73-2.39,1.8-.5,3.56-1.51,5.15-2.47,9.05-4.81,18.05,2.76,26.61,5.26,2.46.63,5.21,1.71,7.73.84,2.65-.91,4.4-3.48,6.87-4.68,4.87-1.81,9.68,1.28,13.73,3.7,3.24,1.95,6.6,4,10.3,4.91.75.21,1.81-.05,2.58-.07.75-.02,1.82.04,2.58.11,4.84.27,9.75.04,14.59.11"/><path class="b" d="M9.73,92.03c4.85,0,9.74,0,14.59,0,2.8-.8,5.64-1.82,8.58-1.94,6.25-.62,12.9,1.34,18.88-1.16,2.45-1.07,5.2-.04,7.73.18,3.68.46,7.47.51,11.16.16,5.48-.49,10.88-1.82,16.31-2.66,1.95-.36,4.07-.36,6.01-.78,2.05-.61,3.92-1.99,6.01-2.5,7.27-1.97,14.64,1.01,21.46,3.34,1.95.67,4.03,1.34,6.01,1.89,1.64.42,3.5,1.19,5.15.39,2.8-1.29,4.34-4.39,6.87-6.05,4.12-2.52,8.7.31,12.02,2.89,3.21,2.33,6.43,5.06,10.3,6.2,2.79-.84,5.76-.17,8.58.02,4.27,0,8.6,0,12.88,0"/><path class="b" d="M9.73,87.37c3.7,0,7.46,0,11.16,0,1.08,0,2.35,0,3.43,0,1.41-.26,2.88-.9,4.29-1.14,5.36-1.18,10.89-.17,16.31-.35,1.7-.08,3.54-.35,5.15-.93,1.91-.77,3.94-1.6,6.01-1.78,9.72-.36,19.46-1.19,29.19-1.32,1.38,0,2.92.04,4.29.12,1.08.04,2.38.28,3.43-.06,1.9-.85,3.93-1.76,6.01-2.08,7.2-1.13,14.57.38,21.46,2.48,2.57.8,5.2,1.7,7.73,2.63,2.45,1.36,4.53-.56,6.01-2.41,1.06-1.23,2.34-2.69,3.43-3.88,4.58-4.28,8.96-1.51,12.88,2.04,2.91,2.46,5.8,5.35,9.44,6.67,3.1-.77,6.32-.16,9.44.03,4.27,0,8.6,0,12.88,0"/><path class="b" d="M9.73,82.71c4.85,0,9.74,0,14.59,0,1.97-.4,3.99-1.11,6.01-1.29,5.12-.66,10.35.3,15.45-.51,3.74-.49,6.82-2.92,10.3-4.15,7.52-2.06,15.4-2.89,23.18-2.2,4.06.27,8.1,1.12,12.02,2.19.85.19,1.81-.42,2.58-.7,1.05-.4,2.33-.8,3.43-1.04,2.79-.62,5.75-.68,8.58-.45,7.33.54,14.56,2.14,21.46,4.66,2.44,1.07,3.29.84,5.15-1.11,3.35-3.14,6.1-7.05,11.16-7.05,4.37-.09,7.27,3.89,10.3,6.48,4.36,4.07,6.74,5.46,12.88,5.13,5.13.05,10.32.02,15.45.03"/><path class="b" d="M9.73,78.05c4.85,0,9.74,0,14.59,0,1.97-.41,3.99-1.16,6.01-1.37,5.11-.75,10.37-.04,15.45-.99,3.38-.55,6.34-2.5,9.44-3.81,4.71-1.41,9.68-2.26,14.59-2.5,4.89-.18,9.78.57,14.59,1.35,1.67.27,3.48.55,5.15.77,1.14.25,2.41.24,3.43-.4,8.24-3.8,17.78-5.76,26.61-2.88,2.02.62,4.1,1.46,6.01,2.36,1.39.55,2.8,1.63,4.29,1.83,1.88-.78,3.45-2.45,5.15-3.55,1.31-.88,2.67-2.15,4.29-2.36,9.15-1.96,14.62,7.74,22.32,10.52,6.74,1.56,13.74.93,20.6,1.05"/><path class="b" d="M9.73,73.39c4.85,0,9.74,0,14.59,0,2.81-.84,5.63-1.99,8.58-2.33,4.86-.75,9.96-.67,14.59-2.48,2.34-.9,4.53-2.35,6.87-3.24,1.58-.73,3.46-.6,5.15-.67,2.55-.05,5.18-.04,7.73.05,4.87.14,9.75.79,14.59,1.24,3.97.22,8.29.79,12.02-.92,9.38-3.82,18.08-9.19,28.33-4.57,1.74.74,3.54,1.72,5.15,2.7,1.01.57,2.18,1.68,3.43,1.33,2.29-1.16,4.54-2.65,6.87-3.75,1.34-.38,2.93-.19,4.29-.03,4.61.67,8.45,3.66,12.02,6.46,2.41,1.81,4.86,3.9,7.73,4.95,6.58,1.84,13.7,1.15,20.6,1.27"/><path class="b" d="M9.73,68.73c4.85,0,9.74,0,14.59,0,2.04-.63,3.98-1.92,6.01-2.62,4.47-1.81,9.26-2.87,13.73-4.67,3.02-1.13,5.76-2.99,8.58-4.5,2.83-1.48,4-.98,6.87-.19,2.82.78,5.73,1.58,8.58,2.22,5.06,1.1,10.25,2.13,15.45,2.08,3.23.01,6.44-.77,9.44-1.93,2.96-.8,5.86-2.06,8.58-3.46,7.85-4.18,14.68-8,23.18-2.68,1.12.67,2.4,1.56,3.43,2.35.92.77,2.16,1.69,3.43,1.43,1.97-.76,4-1.73,6.01-2.41,2.01-.12,4.11.58,6.01,1.15,5.51,1.84,9.87,5.92,14.59,9.15,1.56,1.06,3.33,2.14,5.15,2.69,1.94.54,4.02,1.08,6.01,1.4,4.27,0,8.6,0,12.88,0"/><path class="b" d="M9.73,64.07c3.12,0,6.32,0,9.44,0,1.08,0,2.35,0,3.43,0,.8,0,1.83.08,2.58-.27,4.5-2.67,9.17-5.16,13.73-7.71,2.92-1.64,5.87-3.42,8.58-5.39,2.37-1.44,6.56-6.32,9.44-4.64,4.32,2.18,8.34,5.09,12.88,6.83,6.71,2.65,14.67,3.96,21.46.91,2.1-1.15,4.6-1.48,6.87-2.14,2.06-.64,4.13-1.62,6.01-2.66,7.72-4.37,13.94-9.75,22.32-2.96,2.07,1.38,4.02,4.67,6.87,3.45,1.64-.43,3.43-1.33,5.15-1.16,3.55,1,7.08,2.38,10.3,4.2,6.88,3.73,13.47,10.63,21.46,11.54,3.99,0,8.03,0,12.02,0"/><path class="b" d="M9.73,59.41c3.41,0,6.89,0,10.3,0,1.97-.14,4.3.49,6.01-.76,9.54-5.64,19.37-11.43,26.61-19.99,4.22-1.1,7.9,2.32,11.16,4.5,2.94,2.08,6.03,4.23,9.44,5.47,5.24,1.48,10.88,2.61,16.31,1.63,1.7-.38,3.41-1.2,5.15-1.44,2.24-.44,4.64-.46,6.87-.96,3.09-.66,5.86-2.38,8.58-3.88,2.76-1.42,5.6-3,8.58-3.89,5.19-1.28,8.3,2.33,12.02,5.11,1.31.87,2.91.27,4.29-.07,1.36-.3,2.91-.56,4.29-.78.42-.07,1.3-.19,1.72-.24,1.39.55,2.93,1.2,4.29,1.82,5.44,2.4,10.45,5.72,15.45,8.9,2.76,1.6,5.51,3.65,8.58,4.57,4.27,0,8.6,0,12.88,0"/><path class="b" d="M9.73,54.75c3.41,0,6.89,0,10.3,0,1.97-.13,4.23.43,6.01-.64,5.78-2.85,11.68-5.63,17.17-9.03,2.13-1.35,4.25-2.99,6.01-4.81,1.12-.55,2.42-1.28,3.43-2.02.71-.58,1.69-1.26,2.58-1.53,5.48-1.65,10.09,3.09,14.59,5.45,5.66,2.75,11.88,4.26,18.03,5.5,2.56.53,5.16-.5,7.73-.52,3.43-.25,7.02-.23,10.3-1.39,5.75-1.95,10.78-7.05,17.17-6.57,2.59.34,4.86,1.93,6.87,3.5,1.77,1.29,3.25.6,5.15.15,2.23-.48,4.6-.77,6.87-1.05.75-.09,1.81-.23,2.58-.26.76.32,1.82.77,2.58,1.11,2.29,1.02,4.65,2.15,6.87,3.33,3.19,1.68,6.36,3.56,9.44,5.43,1.98,1.04,3.84,2.73,6.01,3.35,4.27,0,8.6,0,12.88,0"/><path class="b" d="M9.73,50.09c4.85,0,9.74,0,14.59,0,2.3-.49,4.58-1.48,6.87-2.06,2.83-.82,5.79-1.52,8.58-2.45,2.04-.67,4.15-1.5,6.01-2.58,2.08-.59,4.22-1.44,6.01-2.67,1.16-.75,2.31-1.92,3.43-2.72,3.68-2.39,8.27-1.41,12.02.28,3.38,1.35,6.87,2.63,10.3,3.85,3.37.89,6.89,1.52,10.3,2.25,1.95.42,4.04.25,6.01.25,2.55.07,5.18.14,7.73-.07,5.2-.27,9.43-3.7,13.73-6.25,4.54-2.48,8.45-3.41,12.88-.08,2.47,2,2.95,1.87,6.01,1.65,3.41-.05,6.89.17,10.3.06,1.07-.01,2.36-.13,3.43-.07,1.37.62,2.92,1.3,4.29,1.92,3.76,1.7,7.54,3.53,11.16,5.51,1.08.59,2.37,1.3,3.43,1.92.71.44,1.73,1.12,2.58,1.25,4.27,0,8.6,0,12.88,0"/><path class="b" d="M9.73,45.43c5.13-.08,10.33.17,15.45-.1,5.62-1.38,11.45-1.4,17.17-2,3.61-.1,7.33-.98,10.3-3.11,1.13-.8,2.3-1.97,3.43-2.76,1.82-1.05,3.94-1.81,6.01-2.15,5.82-.62,11.71.89,17.17,2.8,3.11,1.07,6.23,2.42,9.44,3.17,1.64.4,3.47.38,5.15.48,4.28.22,8.83.54,12.88-1.14,5.11-2.05,9.22-6.17,14.59-7.63,1.93-.63,4.15-.49,6.01.32,1.1.45,2.28,1.31,3.43,1.64,6.64.17,13.13,2.02,19.74,2.54,1.19.12,2.36,1.02,3.43,1.48,1.36.67,2.91,1.39,4.29,2.01,2.23,1,4.6,1.96,6.87,2.87,1.38.48,2.84,1.33,4.29,1.57,4.27,0,8.6,0,12.88,0"/><path class="b" d="M9.73,40.77c5.13-.05,10.32.1,15.45-.06,1.96-.24,4.04-.33,6.01-.25,1.39,0,2.91.38,4.29.21,2.53-.38,5.16-.81,7.73-.7,2-.04,4.04.54,6.01.71,2.52-.63,4.74-2.17,6.87-3.59,2.87-1.44,6.26-1.88,9.44-2.09,4.03-.21,8.12.04,12.02,1.14,5.07,1.31,10.13,3.32,15.45,3.05,6.81.28,11.7.7,18.03-2.53,4.84-2.23,10.84-6.43,16.31-5.81,1.4.19,2.87.83,4.29.9,2.58-.01,5.23.48,7.73,1.1,3.42.85,6.87,1.86,10.3,2.66,2.28.58,4.76.84,6.87,1.96,4.09,1.69,8.51,2.69,12.88,3.3,4.27,0,8.6,0,12.88,0"/><path class="b" d="M9.73,36.1c6.57-.06,13.19.14,19.74-.12,3.73-.42,7.37-1.73,11.16-1.7,2.85-.1,5.79.11,8.58.69,1.1.23,2.38.59,3.43,1,.87.02,1.82-.59,2.58-.93,1.3-.63,2.88-.79,4.29-.95,2.25-.25,4.61-.38,6.87-.38,6.36-.24,12.63,1.02,18.89,1.92,4.26.61,8.61-.05,12.88.42,7.2.59,13.93-2.2,20.6-4.48,2.53-.78,5.08-1.87,7.73-2.19,1.66-.24,3.48-.05,5.15-.03,4.68-.26,9.28,1.05,13.73,2.32,4.22,1.22,8.55,2.28,12.88,3.09,7.81,2.06,16.04,1.14,24.04,1.34"/><path class="b" d="M9.73,31.44c5.71-.05,11.46.1,17.17-.07,2-.11,4.05-.65,6.01-1.02,3.11-.39,6.31-.66,9.44-.62,3.73.07,7.58.38,11.16,1.51.8.23,1.78-.19,2.58-.18,2.54-.12,5.18-.16,7.73-.16,4.57-.01,9.18.25,13.73.52,4.84-.37,9.76-.78,14.59-.22,3.13,0,6.3-.74,9.44-.43,1.38.07,2.92.23,4.29.42,1.09.25,2.35.25,3.43-.04,3.7-.7,7.48-1.38,11.16-2.17,4.21-1.03,8.54-1.73,12.88-1.9,7.89-.31,15.42,2.8,23.18,3.77,1.66.23,3.47.5,5.15.56,1.37-.1,2.92-.1,4.29-.07,5.42.16,10.89.05,16.31.08"/><path class="b" d="M9.73,26.78c5.71-.05,11.46.11,17.17-.07,6.53-.8,13.17-1.14,19.74-.8,2.57.05,5.17.68,7.73.81,9.15.02,18.32-.29,27.47-.52,3.13-.03,6.33.04,9.44.37,1.38-.15,2.91-.36,4.29-.42,3.41-.18,6.9-.02,10.3.26,1.38.1,2.91.27,4.29.36,1.07-.1,2.36-.22,3.43-.31,9.43-.51,18.87-2.71,28.33-1.57,5.14.62,10.29,1.52,15.45,1.88,3.99-.32,8.03-.32,12.02,0,4.27,0,8.6,0,12.88,0"/><path class="b" d="M9.73,22.12c10.3.05,20.61-.07,30.9-.17,9.15.1,18.32.17,27.47.08,5.42.02,10.89-.16,16.31-.1,4.56.2,9.17-.08,13.73-.06,6.57.07,13.17.36,19.74.15,10.58-.17,21.18-.53,31.76-.04,5.13.2,10.32.09,15.45.1,5.71.02,11.46.08,17.17.05"/><path class="b" d="M9.73,17.46h172.54"/><path class="b" d="M9.73,12.8h172.54"/><path class="b" d="M9.73,8.14h172.54"/></svg>