<?xml version="1.0" encoding="UTF-8"?><svg id="a" xmlns="http://www.w3.org/2000/svg" width="1920" height="2400" viewBox="0 0 192 240"><defs><style>.b{fill:none;stroke:#fff;stroke-miterlimit:10;stroke-width:.3px;}.c{stroke-width:0px;}</style></defs><rect class="c" width="192" height="240"/><path class="b" d="M9.73,231.86h172.54"/><path class="b" d="M9.73,227.2h172.54"/><path class="b" d="M9.73,222.54c57.52-.03,115.03-.01,172.54,0"/><path class="b" d="M9.73,217.88c9.72,0,19.47.07,29.19-.44,3.7-.2,7.45-.47,11.16-.45,4.56.06,9.17.42,13.73.49,4.28.18,8.6-.05,12.88-.07,4.57.03,9.18-.26,13.73-.4,2.55.18,5.16,1.11,7.73.7,6.26-.69,12.61-.58,18.89-.15,5.42.06,10.89.38,16.31.23,10.87-.11,21.76-.24,32.62-.54.4-.01,1.31-.04,1.72-.05.34.24,1.3.59,1.72.68,4.27,0,8.6,0,12.88,0"/><path class="b" d="M9.73,213.22c8.86-.11,17.79.37,26.61-.62,3.16-.37,6.34-1.07,9.44-1.77,3.36-.8,6.9-1.26,10.3-.47,3.68.6,7.44,1.11,11.16,1.44,4.27.17,8.6.22,12.88.17,1.68-.04,3.48-.14,5.15-.33,1.38-.15,2.9-.51,4.29-.33,1.73.24,3.47.98,5.15,1.42.43.12,1.29.35,1.72.45,1.08-.16,2.35-.48,3.43-.65,1.95-.33,4.03-.55,6.01-.65,6.3-.27,12.64.43,18.89,1.22,1.09.18,2.35-.27,3.43-.33,2.83-.13,5.75-.13,8.58-.25,8.87-.34,17.76-.78,26.61-1.46,2.16-.3,4,1.66,6.01,2.15,4.27,0,8.6,0,12.88,0"/><path class="b" d="M9.73,208.56c9.45-.02,18.98.34,28.33-1.33,4.98-.74,9.61-3.15,14.59-3.81,2.29-.06,4.62.82,6.87,1.2,4.5,1.02,9.11,1.72,13.73,1.68,4.3.07,8.7-.11,12.88-1.21,2.34-.93,4.7-.34,6.87.76,2.74,1.06,5.62,2.46,8.58,2.63,4.21-.87,8.61-.91,12.88-.47,1.38.14,2.92.35,4.29.55,3.18-.35,6.26-1.65,9.44-1.91,5.71.04,11.46-.15,17.17-.42,4.27-.13,8.6-.08,12.88-.24,1.39-.07,2.96-.26,4.29.27,1.39.38,2.94.84,4.29,1.34.75.29,1.77.82,2.58.95,4.27,0,8.6,0,12.88,0"/><path class="b" d="M9.73,203.9c4.85,0,9.74,0,14.59,0,2.84-.33,5.76-.73,8.58-1.22,1.68-.32,3.45-.84,5.15-1.04,3.23-.53,6.4-1.61,9.44-2.77,1.63-.6,3.41-1.25,5.15-1.46,1.12,0,2.37.45,3.43.74,8.51,2.66,15.2,3.75,24.04,1.64,2.02-.49,4.1-1.18,6.01-2,1.07-.44,2.26-1.2,3.43-1.32,2.11-.01,4.05,1.36,6.01,2,3.02,1.2,6.23,2.17,9.44,2.68,4.8.71,9.8.78,14.59,0,2.59-.35,5.11-1.54,7.73-1.7,1.69-.02,3.48.39,5.15.55,8.54.94,17.2.97,25.75,1.6,3.7.75,7.5,1.37,11.16,2.29,4.27,0,8.6,0,12.88,0"/><path class="b" d="M9.73,199.23c4.85,0,9.74,0,14.59,0,4.25-1.11,8.65-1.87,12.88-3.06,3.06-1.14,6.41-1.52,9.44-2.78,4.17-1.47,5.15-2.36,9.44-.54,6.45,2.43,13,3.82,19.74,1.68,5.36-1.51,10.26-4.42,14.59-7.86,1.11-.41,2.36.36,3.43.61,1.94.59,4.03,1.13,6.01,1.56,3.66.8,7.44,1.34,11.16,1.8,2.25.2,4.61.73,6.87.63,2.86-.17,5.79-.56,8.58-1.2,2.39-.24,4.66,1.12,6.87,1.84,2.78,1.05,5.7,1.97,8.58,2.66,3.94.94,8,1.69,12.02,2.22,3.91,1.06,7.99,1.56,12.02,1.96,2.24.39,4.59.56,6.87.47,3.12,0,6.32,0,9.44,0"/><path class="b" d="M9.73,194.57c3.12,0,6.32,0,9.44,0,1.96-.11,4.11.27,6.01-.23,5.68-2.87,12.31-3.03,18.03-5.8,2.61-.48,5.14-1.65,7.73-2.21,1.46-.13,2.98.48,4.29,1.03,4.84,2.04,10.18,3.49,15.45,2.62,8.22-1.95,15.87-6.58,21.46-12.91l.86-.21c5,1.49,10.3,1.65,15.45,2.18,2.26.22,4.62.5,6.87.87,3.12-.07,6.32-.41,9.44-.5,1.38-.02,2.92-.29,4.29-.16,2.55.56,4.77,2.24,6.87,3.72,4.23,3.15,8.75,6.09,13.73,7.91,2.24.87,4.48,2.05,6.87,2.51,2.79.64,5.73.81,8.58.92,5.7.42,11.46.22,17.17.26"/><path class="b" d="M9.73,189.91c3.41,0,6.89,0,10.3,0,1.08,0,2.35,0,3.43,0,.89.13,1.88-.34,2.58-.84,2.36-1.43,5.04-2.47,7.73-3.12,3.75-.9,7.72-1.42,11.16-3.28,1.26-.82,2.88-1.16,4.29-1.62,3.28-1.06,6.37,1.29,9.44,2.12,5.87,2.09,12.36,1.46,18.03-.96,3.43-1.33,7.06-2.44,10.3-4.21,1.56-.88,3.12-2.16,4.29-3.52,1.17-1.56,3.06-3.18,5.15-2.53,5.53,2.37,12.1,3.7,18.03,2.24,3.41-1.23,6.75-2.93,10.3-3.76,2.22-.54,4.62-.48,6.87-.84,2.88.2,5,2.67,6.87,4.62,2.76,3.08,5.45,6.41,8.58,9.14,3.07,3.51,7.29,6.09,12.02,6.43,7.7.27,15.46.06,23.18.13"/><path class="b" d="M9.73,185.25c4.85,0,9.74,0,14.59,0,.87-.22,1.82-.97,2.58-1.42,1.33-.81,2.85-1.61,4.29-2.2,5.57-2.33,12.14-2.05,17.17-5.71,2.21-2.03,5.3-.6,7.73.24,2.2.76,4.55,1.46,6.87,1.77,3.12.44,6.33.12,9.44-.22,2.55-.19,5.17-.65,7.73-.66,2.54-.04,5.2.3,7.73-.16,1.58-.31,3.12-1.25,4.29-2.33,3.2-2.63,7.26-.4,10.3,1.35,10.42,5.35,15.86-2.17,23.18-8.28,1.99-1.81,4.97-2.1,6.87-4.01,2.95-2.78,5.92.17,7.73,2.69,1.48,2.08,3.1,4.45,4.29,6.71,2.07,4.08,4.54,8.47,8.58,10.88,1.27.62,2.84,1.59,4.29,1.2,3.4-.57,6.89.09,10.3.15,4.85,0,9.74,0,14.59,0"/><path class="b" d="M9.73,180.59c3.12,0,6.32,0,9.44,0,1.92-.12,4.18.3,6.01-.26,3.53-2,7.31-3.7,11.16-4.96,3.43-1.13,7.08-1.89,10.3-3.56,2.03-1,3.78-2.78,6.01-3.35,2.02.09,4.02,1.14,6.01,1.54,5.01,1.53,10.34,1.34,15.45,2.25,2.04.32,4.01,1.34,6.01,1.77,3.37.43,7.01,1.05,10.3-.09,3.54-2.02,5.79-1.76,9.44-.15,3.56,1.6,7.13,3.68,11.16,3.66,8.47.42,12.63-7.79,18.89-11.88,1.83-1.28,3.07-3.44,4.29-5.25,2.17-2.97,4.77-3.68,6.87-.12,3.64,6.68,6.27,16.71,13.73,19.97,1.6.76,3.46-.05,5.15.1,7.42.53,14.89.31,22.32.35"/><path class="b" d="M9.73,175.93c3.12,0,6.32,0,9.44,0,1.95-.12,4.12.29,6.01-.25,3.53-1.96,7.31-3.6,11.16-4.81,3.47-1.12,7.12-2.06,10.3-3.9,3.33-1.92,5.12-4.88,9.44-4.68,3.95,1.02,8.02,1.84,12.02,2.65,3.14.65,6.38,1.2,9.44,2.16,3.35.97,6.77,2.24,10.3,2.25,1.1,0,2.41-.23,3.43-.65,1.27-.65,2.87-.96,4.29-.76,3.06.44,5.83,2.1,8.58,3.39,2.42,1.09,5.07,1.99,7.73,2.25,7.93,1.01,12.26-6.43,18.03-10.35,3.2-2.68,3.83-7.88,7.73-9.85,3.1.58,6.67,9.35,8.58,12.13,3.1,5.4,7,10.03,13.73,10.03,3.12.1,6.32.22,9.44.41,4.27,0,8.6,0,12.88,0"/><path class="b" d="M9.73,171.27c3.12,0,6.32,0,9.44,0,1.96-.12,4.11.28,6.01-.24,3.59-1.87,7.36-3.55,11.16-4.95,4.36-1.65,9.04-2.88,12.88-5.63.77-.57,1.75-1.43,2.58-1.92,1-.59,2.32-.92,3.43-1.2,1.08-.2,2.35.15,3.43.23,3.43.37,6.93.77,10.3,1.51,3.49.75,6.92,1.99,10.3,3.13,3.28,1.08,6.83,2.12,10.3,1.49,1.13-.19,2.35-.82,3.43-1.15,1.05-.29,2.36-.34,3.43-.17,2.13.33,4.1,1.53,6.01,2.47,3.22,1.58,6.66,3.18,10.3,3.39,7,.43,11.56-5.86,17.17-8.96,2.67-2.98,4.16-7.3,7.73-9.44,3.58-.22,8.56,9.83,11.16,12.55,3.61,4.69,7.89,7.05,13.73,7.78,2.26.34,4.6.87,6.87,1.1,4.27,0,8.6,0,12.88,0"/><path class="b" d="M9.73,166.61c4.85,0,9.74,0,14.59,0,2.36-.67,4.6-2.05,6.87-2.98,3.69-1.7,7.46-3.39,11.16-5.07,2-.92,4.11-1.91,6.01-3.02,1.41-.77,2.75-2.03,4.29-2.55,1.06-.28,2.34-.51,3.43-.53.77.15,1.8.3,2.58.38,2.55.27,5.2.49,7.73.95,8.76,1.34,17.93,7.14,26.61,2.57,2.28-.93,4.77-.35,6.87.77,4.8,2.35,9.85,5.71,15.45,4.56,3.46-.67,6.53-2.68,9.44-4.55.75-.49,1.8-1.14,2.58-1.59.83-.45,1.98-.97,2.58-1.75,1.93-2.14,3.86-4.53,6.01-6.47,1.9-1.84,2.83-1.8,5.15-.52,2.99,1.86,5.31,4.72,7.73,7.23,2.79,2.99,5.87,5.91,9.44,7.95,3.23,1.85,6.84,3.1,10.3,4.46,1.64.33,3.48.09,5.15.16,2.83,0,5.75,0,8.58,0"/><path class="b" d="M9.73,161.95c4.85,0,9.74,0,14.59,0,4.79-1.45,9.33-3.91,13.73-6.25,3.13-1.74,6.29-3.6,9.44-5.31,1.67-.81,3.34-2.07,5.15-2.53,1.08-.1,2.37-.02,3.43.15,1.62.6,3.45.97,5.15,1.28,10.4,1.56,20.81,6.04,30.9.81,2.67-1.41,5.09-1.27,7.73.11,4.83,2.59,9.67,5.95,15.45,4.78,5.64-1.13,10.74-4.28,15.45-7.45,2.28-1.67,4.56-3.58,6.87-5.22,1.94-.63,4.18.15,6.01.86,4.92,2.26,8.8,6.29,12.88,9.75,2.7,2.35,5.59,4.66,8.58,6.63,1.36.78,2.77,1.98,4.29,2.4,4.27,0,8.6,0,12.88,0"/><path class="b" d="M9.73,157.29c3.41,0,6.89,0,10.3,0,1.38,0,2.91,0,4.29,0,1.13-.14,2.36-.68,3.43-1.04,4.56-1.62,8.88-3.99,12.88-6.71,2.78-1.85,5.58-3.87,8.58-5.36,2.4-1.12,3.45-1.71,6.01-.64,3.03,1.58,6.09,2.9,9.44,3.68,3.89,1.01,7.98,1.74,12.02,1.39,4.21-.33,8.23-1.95,12.02-3.72,2.25-.94,4.48-2.32,6.87-2.88,2.16-.24,4.23.94,6.01,2.02,1.92,1.19,3.92,2.51,6.01,3.38,6.95,2.96,14.79-.05,20.6-4.18,1.01-.57,2.38-.84,3.43-1.3,2.02-.81,4.09-1.85,6.01-2.87,12.86-.41,21.23,11.24,30.9,17.92,1.57.63,3.49.19,5.15.31,2.83,0,5.75,0,8.58,0"/><path class="b" d="M9.73,152.63c4.85,0,9.74,0,14.59,0,5.18-1,10.2-3.18,14.59-6.1,4.51-2.75,9.13-7.9,14.59-8.18,2.49,1.14,4.4,3.38,6.87,4.58,5.44,2.99,12.17,4,18.03,1.61,3.74-1.43,6.96-3.98,10.3-6.12,1.58-1.08,3.59-1.67,5.15-2.76,2.48-1.71,5.51-.38,7.73,1.14,7.24,5.27,12.8,7.1,21.46,3.66,2.14-.89,4.26-2.18,6.01-3.7,1.02-.45,2.35-.19,3.43-.31,1.68-.1,3.49-.32,5.15-.56,3.53.95,6.91,2.71,10.3,4.09,6.13,2.6,11.82,6.16,17.17,10.11,1.34.85,2.74,2.12,4.29,2.54.75,0,1.82,0,2.58,0,3.41,0,6.89,0,10.3,0"/><path class="b" d="M9.73,147.97c4.85,0,9.74,0,14.59,0,5.75-.91,11.46-2.85,16.31-6.11,4.03-2.38,8.94-8.05,13.73-7.79,2.22,1.4,3.78,3.87,6.01,5.3,4.59,3.52,10.88,4.52,16.31,2.49,6.2-2.04,10.16-7.61,15.45-11.06,2.25-2.41,4.43-3.78,7.73-2.34,2.72,1.24,5.1,3.27,7.73,4.68,5.19,3.03,11.52,2.8,17.17,1.33,1.1-.28,2.4-.67,3.43-1.14.73-.38,1.74-.94,2.58-1.02,1.42-.12,2.96.36,4.29.79,1.07.36,2.45.53,3.43,1.12,5.95,4.08,13.34,4.98,19.74,8.11,3.49,1.65,6.78,3.86,10.3,5.45,1.63.4,3.48.11,5.15.2,2.83,0,5.75,0,8.58,0"/><path class="b" d="M9.73,143.3c4.85,0,9.74,0,14.59,0,4.33-.62,8.69-1.61,12.88-2.9,2.64-.84,5.26-1.99,7.73-3.25,2.5-1.25,5.02-2.76,7.73-3.52,2.52-.85,3.36.4,5.15,1.81,2.01,1.5,4.41,2.65,6.87,3.19,3.67.81,7.6.47,11.16-.69,4.56-1.44,8.3-4.61,12.02-7.49.74-.55,1.77-1.25,2.58-1.69.84-.37,1.96-.92,2.58-1.64,4.08-3.68,8.17-3.63,12.88-1.15,3.83,1.96,7.93,3.43,12.02,4.77,2.54.86,5.1,2,7.73,2.59,1.67.46,3.48.05,5.15-.09,2.3,0,4.64.62,6.87,1.12,2.7,1.21,5.62,2.12,8.58,2.34,4.31.36,8.79.26,12.88,1.88,3.26,1.2,6.26,3.15,9.44,4.53,1.63.39,3.48.11,5.15.19,2.83,0,5.75,0,8.58,0"/><path class="b" d="M9.73,138.64c4.85,0,9.74,0,14.59,0,7.48-1.52,15.12-2.75,22.32-5.36,1.94-.67,3.99-1.42,6.01-1.84,1.65-.46,2.89-.12,4.29.77,6.4,3.33,14.29,2.57,20.6-.6,4.26-2.02,7.7-5.55,12.02-7.44,1.86-.4,3.38-1.81,5.15-2.42,5.01-1.84,10.16.86,14.59,3.07,5.79,2.76,10.93,7.09,17.17,8.82,1.64.44,3.48.29,5.15.54,2.85.42,5.76.98,8.58,1.54,3.7.61,7.5-.07,11.16-.65,3.41-.58,7.02-.55,10.3.62,2.31.78,4.59,1.93,6.87,2.79,1.64.34,3.48.1,5.15.16,2.83,0,5.75,0,8.58,0"/><path class="b" d="M9.73,133.98c4.85,0,9.74,0,14.59,0,2.27-.48,4.56-1.35,6.87-1.74,3.97-.79,8.05-1.27,12.02-2.04,4.23-.64,8.59-2.38,12.88-1.37,6.91,1.92,14.44.36,20.6-3.12,3.81-2.04,7.16-5.03,11.16-6.69.75-.28,1.82-.5,2.58-.74,1.07-.43,2.3-1.02,3.43-1.27,4.92-1.08,9.65,1.64,13.73,4.08,6.88,4.19,13.32,9.79,21.46,11.29,2.28.38,4.59,1.14,6.87,1.58.75-.17,1.81-.37,2.58-.47,1.66-.19,3.49-.16,5.15.04,1.08.06,2.37.64,3.43.25,4.21-1.01,8.47-2.67,12.88-2.21,3.25.23,6.28,1.79,9.44,2.4,4.27,0,8.6,0,12.88,0"/><path class="b" d="M9.73,129.32c4.85,0,9.74,0,14.59,0,1.43-.34,2.87-1.19,4.29-1.58,2.2-.71,4.58-1.13,6.87-1.39,4.84-.47,9.73-.94,14.59-1.12,4.56-.06,9.24.27,13.73-.7,7.34-1.38,13.51-5.79,19.74-9.62,2.59-1.67,5.73-2.12,8.58-3.15,7.57-2.17,14.07,4.09,19.74,8.18,4.56,3.52,9.27,7.06,14.59,9.34,10.98-3.98,12.92-4.19,24.04-.32.76.43,1.8.16,2.58-.12.76-.22,1.8-.49,2.58-.65,2.22-.47,4.62-.57,6.87-.27,2.3.25,4.59,1.09,6.87,1.38,4.27,0,8.6,0,12.88,0"/><path class="b" d="M9.73,124.66c4.85,0,9.74,0,14.59,0,1.17-.32,2.32-1.22,3.43-1.68,1.87-.87,3.97-1.48,6.01-1.77,4.25-.55,8.61-.42,12.88-.25,1.96.11,4.04.37,6.01.25,1.4-.08,2.9-.52,4.29-.65,8.1-1.04,15.47-4.88,22.32-9.14,3.19-1.96,6.59-3.79,10.3-4.49,1.95-.61,3.93-1.62,6.01-1.71,6.23-.33,11.16,4.45,15.45,8.36,3.94,3.71,7.72,7.73,12.02,11.04,4.01-2.92,8.72-4.85,13.73-4.87,2.03-.06,4.09.74,6.01,1.32,3.43,1.15,6.82,2.61,10.3,3.6,5.98-1.82,10.39-.99,16.31,0,4.27,0,8.6,0,12.88,0"/><path class="b" d="M9.73,120c3.12,0,6.32,0,9.44,0,1.08,0,2.35,0,3.43,0,.8,0,1.85.09,2.58-.32,2.57-1.79,5.48-3.35,8.58-3.93,3.66-.69,7.48-.39,11.16,0,3.1.41,6.39,1,9.44.03,2.81-.85,5.81-1.35,8.58-2.35,4.74-1.57,9.3-3.75,13.73-6.02,3.05-1.54,6.17-3.2,9.44-4.24,1.63-.6,3.56-.6,5.15-1.31,3.88-2.35,8.7-3.7,12.88-1.28,7.66,4.59,11.78,13.11,18.03,19.25.9-.39,1.8-1.36,2.58-1.93,1.25-.94,2.77-1.84,4.29-2.22,2.79-.62,5.77-.64,8.58-.21,2.61.68,5.18,1.79,7.73,2.67,1.36.49,2.9,1.01,4.29,1.41.43.12,1.29.35,1.72.46.43-.11,1.29-.3,1.72-.38,5.09-1.1,10.37-.56,15.45.32,4.56.16,9.17.01,13.73.06"/><path class="b" d="M9.73,115.34c4.85,0,9.74,0,14.59,0,.87-.2,1.82-.93,2.58-1.38,1.63-.99,3.4-2.05,5.15-2.82,2.67-1.2,5.66-1.77,8.58-1.76,4.01-.17,8.03,1.36,12.02.56,1.12-.23,2.35-.79,3.43-1.12,1.08-.23,2.36-.53,3.43-.8,7.86-1.93,15.39-5.06,23.18-7.21,1.93-.5,4.01-.9,6.01-1.01.76-.04,1.82-.03,2.58.03.45-.17,1.32-.62,1.72-.89,3.45-1.95,6.99-4.78,11.16-4.49,8.42,1.05,13.71,15.51,20.6,20.6,1.18.08,2.24-.99,3.43-1.16,2.53-.39,5.21-.07,7.73.32,1.69.26,3.47.8,5.15,1.09.76-.18,1.81-.42,2.58-.58,8.22-1.96,16.69-.88,24.89.55,4.56.14,9.17.01,13.73.05"/><path class="b" d="M9.73,110.68c3.12,0,6.32,0,9.44,0,1.92-.12,4.18.3,6.01-.26,3.12-1.79,6.19-3.86,9.44-5.41,3.71-1.8,7.89-2.77,12.02-2.54,2.84.24,5.79.91,8.58-.03,4.26-.22,8.61.06,12.88-.38,4.88-.35,9.74-1.25,14.59-1.87,14.03-1.47,5.02,3.12,18.89-6.43,6.21-4.29,10.5-2.44,15.45,2.52,2.25,2.2,4.46,4.65,6.87,6.68,1.84,1.72,4.35,2.68,6.87,2.4,2.84.05,5.75-.63,8.58-.41,4.6.36,9.23.95,13.73,1.92,5.17,1.07,10.28,2.66,15.45,3.73,4.55.19,9.18.02,13.73.07"/><path class="b" d="M9.73,106.02c4.85,0,9.74,0,14.59,0,5.12-1.62,9.66-4.87,14.59-6.98,3.99-1.81,8.49-3.03,12.88-2.19,1.37.42,2.9.1,4.29.16,3.37.68,6.86,1.11,10.3,1.24,6.31.3,12.6-.67,18.89-.98,1.38-.05,2.92-.05,4.29.05,1.09.06,2.43.46,3.43-.16,10.85-4.93,15.42-12.63,28.33-6.51,1.97.8,3.97,1.9,6.01,2.53,3.07.59,6.33.14,9.44.17,1.79-.15,3.51.99,5.15,1.54,2.56,1.04,5.2,2.17,7.73,3.28,3.98,1.75,7.99,3.6,12.02,5.26,2.51.93,5.07,2.18,7.73,2.58,4.27,0,8.6,0,12.88,0"/><path class="b" d="M9.73,101.36c4.85,0,9.74,0,14.59,0,6.27-1.58,12.12-4.61,18.03-7.19,4.09-1.86,8.36-3.09,12.88-2.54,1.99.31,4,1.11,6.01,1.4,3.09.57,6.3.8,9.44.77,6.01-.02,12.01-1.03,18.03-.96.77.01,1.81.07,2.58.14,1.7-.18,3.5-.67,5.15-1.12,4.64-1.35,9.07-3.5,13.73-4.8,8.36-2.35,17.13-2.71,25.75-3.14.41-.02,1.3-.07,1.72-.09,1.17.29,2.37,1.11,3.43,1.65,1.99,1.1,4.07,2.31,6.01,3.49,6.51,3.91,12.84,8.26,19.74,11.47.72.34,1.77.83,2.58.91,1.07,0,2.36,0,3.43,0,3.12,0,6.32,0,9.44,0"/><path class="b" d="M9.73,96.7c4.85,0,9.74,0,14.59,0,7.33-1.93,14.54-4.53,21.46-7.63,3.24-1.23,7.76-3.72,11.16-2.06,6.83,2.6,14.34,2.17,21.46,1.29,4.82-.47,9.74-1.61,14.59-1.02,5.15.66,10.36-.17,15.45-.96,4.57-.73,9.24-1.27,13.73-2.44,2.04-.54,4.15-1.33,6.01-2.34,1.49-1.05,3.36-1.49,5.15-1.66,1.38-.22,2.92-.49,4.29-.74.81.07,1.83.54,2.58.85,10.2,4.11,18.69,11.34,28.33,16.48,1.62.46,3.49.13,5.15.22,2.83,0,5.75,0,8.58,0"/><path class="b" d="M9.73,92.03c4.85,0,9.74,0,14.59,0,1.72-.35,3.46-1.19,5.15-1.66,2.53-.81,5.18-1.55,7.73-2.33,4.72-1.37,9.28-3.33,13.73-5.38,4.65-2.26,4.21-.83,8.58.39,3.04.84,6.29,1.09,9.44.96,5.52-.24,10.96-1.57,16.31-2.85,6.89-1.88,4.96-.91,11.16,1.4,4.65,1.7,9.71,1.84,14.59,2.27,4.26.26,8.64,1.04,12.88.21,1.49-.32,3.06-1.02,4.29-1.92,1.29-1.06,2.71-2.32,4.29-2.93,1.64-.56,3.49-.9,5.15-1.41,5.01.32,9.99,1.94,14.59,3.91,5.39,2.38,10.35,5.7,15.45,8.62,1.71,1.22,4.04.58,6.01.73,2.83,0,5.75,0,8.58,0"/><path class="b" d="M9.73,87.37c3.41,0,6.89,0,10.3,0,1.97-.12,4.2.4,6.01-.59,6.88-3.13,14.63-3.76,21.46-6.99,2.04-.97,4.08-2.2,6.01-3.36,1.47-.17,2.95.57,4.29,1.07,9.46,3.27,19.57-.06,28.33-3.94.77-.35,1.82-.85,2.58-1.22.75-.47,1.81-.54,2.58-.06,3.05,2.34,5.95,5.09,9.44,6.77,3.25,1.63,6.84,2.64,10.3,3.7,3.1.91,6.24,1.99,9.44,2.5,2.63.43,5.54.09,7.73-1.52,1.06-.85,2.25-1.97,3.43-2.64,1.53-.93,3.44-1.31,5.15-1.75,1.33-.46,2.91-.29,4.29-.26,2.27.1,4.63.35,6.87.75,6.92,1.16,13.52,3.73,19.74,6.91,1.77,1.06,4.04.5,6.01.63,2.83,0,5.75,0,8.58,0"/><path class="b" d="M9.73,82.71c3.12,0,6.32,0,9.44,0,1.96-.11,4.11.27,6.01-.23,2.45-1.21,5.09-2.24,7.73-2.95,5.79-1.61,12.54-1.34,17.17-5.73.76-.68,1.8-1.61,2.58-2.27,2.24-1,4.65.47,6.87.86,6.69,1.55,13.63-.24,19.74-3.04,4.07-1.72,7.7-4.29,11.16-6.98,2.18-.08,5.28,4.48,6.87,6.02,1.82,2.04,3.85,4.1,6.01,5.77,3.12,2.43,6.7,4.33,10.3,5.93,1.62.69,3.4,1.43,5.15,1.74,2.63.19,5.41-.32,7.73-1.6,1.86-.96,3.25-2.86,5.15-3.75,1.88-.78,4.05-1,6.01-1.5,2.84-.12,5.78.32,8.58.75,5.25.91,10.42,2.46,15.45,4.21,2.58.81,5.11,2.12,7.73,2.78,4.27,0,8.6,0,12.88,0"/><path class="b" d="M9.73,78.05c3.12,0,6.32,0,9.44,0,1.95-.12,4.11.28,6.01-.24,2.44-1.27,5.06-2.4,7.73-3.09,5.34-1.6,11.54-.23,16.31-3.56,1.07-.75,2.17-1.91,3.43-2.34,2.22-.8,4.61-.38,6.87,0,11.81,1.8,24.56-1.19,31.76-11.34,6.9-1.83,14.05,16.65,29.19,16.49,2.37-.02,4.83-.66,6.87-1.89,1.12-.64,2.18-1.82,3.43-2.2,2.24-.31,4.62-.4,6.87-.7,1.69.1,3.48.56,5.15.86,8.81,1.74,17.37,4.66,25.75,7.83,1.64.35,3.48.1,5.15.17,2.83,0,5.75,0,8.58,0"/><path class="b" d="M9.73,73.39c4.85,0,9.74,0,14.59,0,2.34-.78,4.5-2.34,6.87-3.1,3.81-1.54,7.99-1.5,12.02-1.84,2.5-.17,4.76-1.38,6.87-2.64,2.71-1.26,5.81-.99,8.58-.15,10.49,2.44,23.19.96,30.9-7.18.8-.86,1.69-2.2,2.58-2.97,4.32-2.12,8.61,1.34,12.02,3.72,5.86,4.37,13.03,8.55,20.6,6.89,1.12-.24,2.41-.69,3.43-1.19.69-.43,1.73-.93,2.58-.74,2.25.19,4.61.26,6.87.24,3.14.64,6.31,1.54,9.44,2.23,7.3,1.64,14.4,4.13,21.46,6.58,1.64.31,3.48.09,5.15.15,2.83,0,5.75,0,8.58,0"/><path class="b" d="M9.73,68.73c3.41,0,6.89,0,10.3,0,1.38,0,2.91,0,4.29,0,.86-.17,1.82-.82,2.58-1.23,2.94-1.69,6.08-3.3,9.44-3.89,2.81-.53,5.79-.39,8.58-1.05,1.45-.33,2.89-1.15,4.29-1.62,1.9-.64,4.02-.78,6.01-.62,2.57.55,5.12,1.62,7.73,2.07,4.5.93,9.2.99,13.73.27,4.23-.68,8.52-2,12.02-4.56,1.19-.85,2.39-2.12,3.43-3.14,3.6-2.35,8.16-2.08,12.02-.54,6.36,2.48,12.74,5.75,19.74,5.57,1.69-.02,3.51-.22,5.15-.62.78,0,1.82.3,2.58.45,2.22.53,4.63.57,6.87.98,4.47,1.36,9.17,1.94,13.73,2.84,5.59,1.03,10.95,3.09,16.31,4.94,1.64.3,3.48.09,5.15.15,2.83,0,5.75,0,8.58,0"/><path class="b" d="M9.73,64.07c3.41,0,6.89,0,10.3,0,1.38,0,2.91,0,4.29,0,1.21-.28,2.38-1.22,3.43-1.82,2.93-1.85,6.03-3.71,9.44-4.5,2.51-.61,5.21-.71,7.73-1.29,3.34-1.03,6.75-2.23,10.3-2.16,2.03.27,4.03,1.26,6.01,1.8,3.06.98,6.25,1.79,9.44,2.18,5.73.67,11.76.34,17.17-1.8,1.81-.67,3.44-1.98,5.15-2.85,3.94-2,8.5-2.69,12.88-2.18,5.49.62,10.86,2.24,16.31,3.1,2.24.38,4.6.69,6.87.91,2.19.83,4.54,1.56,6.87,1.91,2.86.33,5.69,1.29,8.58,1.48,3.99.39,8.07.37,12.02,1.13,4.15.74,8.1,2.44,12.02,3.92,1.64.34,3.48.09,5.15.16,2.83,0,5.75,0,8.58,0"/><path class="b" d="M9.73,59.41c4.85,0,9.74,0,14.59,0,2.19-.69,4.07-2.44,6.01-3.64,5.37-3.88,9.13-4.7,15.45-5.83,1.7-.4,3.49-.99,5.15-1.51.45-.13,1.28-.41,1.72-.54.45.04,1.28.12,1.72.16,7.4.8,14.08,4.74,21.46,5.63,4.82.66,9.85.95,14.59-.34,2.8-1.09,5.64-2.33,8.58-2.99,3.34-.81,6.86-1.32,10.3-1.25,2.28.13,4.61.64,6.87.97,5.61.77,11.06,2.47,16.31,4.53,6.1,1.82,12.62,1.16,18.89.8,6.32-.55,11.52,1.25,17.17,3.85,1.63.38,3.48.11,5.15.18,2.83,0,5.75,0,8.58,0"/><path class="b" d="M9.73,54.75c4.85,0,9.74,0,14.59,0,1.56-.4,2.96-1.63,4.29-2.48,2.51-1.78,5.03-3.75,7.73-5.25,2.89-1.64,6.18-2.58,9.44-3.15,1.08-.21,2.36-.43,3.43-.69.77.12,1.8.22,2.58.22,1.39.01,2.91-.27,4.29-.32,1.98-.07,4.07.15,6.01.57,2.61.57,5.23,1.5,7.73,2.45,2.83.88,5.73,1.81,8.58,2.58,2.51.68,5.15,1.17,7.73,1.48,1.98.28,4.14.39,6.01-.45,7.93-2.73,16.62-4.01,24.89-2.18,4.8.71,9.31,2.59,13.73,4.5,4.09,1.45,8.63,1.82,12.88.91,6.18-1.2,12.71-3.16,18.89-.9,2.34.67,4.53,2.1,6.87,2.71,4.27,0,8.6,0,12.88,0"/><path class="b" d="M9.73,50.09c4.85,0,9.74,0,14.59,0,1.87-.6,3.5-2.11,5.15-3.13,3.52-2.42,7.09-5.03,11.16-6.45,1.63-.57,3.44-.97,5.15-1.17,1.39.44,2.9,1.07,4.29,1.5,1.95.67,4.06.16,6.01-.23,1.95-.34,4.03-.6,6.01-.65,6.77-.03,13.36,1.9,19.74,3.98,2.24.63,4.55,1.51,6.87,1.81,1.41.15,2.94-.25,4.29-.61,4.2-.92,8.58-1.15,12.88-1.24,6.13-.17,12.29.92,18.03,3.06,3.05,1.22,6.12,2.78,9.44,3.08,1.67-.02,3.48-.16,5.15.03,4.18-.19,8.03-2.1,12.02-3.11,3.62-.94,7.55-1.27,11.16-.13,2.37.71,4.67,1.91,6.87,3.02,1.62.46,3.49.13,5.15.22,2.83,0,5.75,0,8.58,0"/><path class="b" d="M9.73,45.43c3.12,0,6.32,0,9.44,0,1.08,0,2.35,0,3.43,0,.81,0,1.85.09,2.58-.35,2.78-2.14,5.54-4.49,8.58-6.26,2.26-1.29,6.91-3.22,9.44-2.12,10.66,5.4,9.14,2.98,19.74,1.11,9.05-1.41,14.3.13,22.32,4.18,3.3,1.83,6.75,1.21,10.3.88,5.42-.38,10.87-1.15,16.31-1.01,3.76.1,7.54.85,11.16,1.85,2.22.68,4.57,1.34,6.87,1.72,1.66-.21,3.47-.34,5.15-.27,1.38-.04,2.93.42,4.29.16,4.13-.63,8.15-2.02,12.02-3.57,3.37-.74,6.99-.81,10.3.26,2.38.75,4.68,2,6.87,3.18,1.61.49,3.49.14,5.15.24,2.83,0,5.75,0,8.58,0"/><path class="b" d="M9.73,40.77c4.85,0,9.74,0,14.59,0,1.63-.68,2.91-2.33,4.29-3.41,2.95-2.55,6.26-5.34,10.3-5.69,3.98,1.92,7.65,4.75,12.02,5.82,2.89.54,5.79-.72,8.58-1.29,4.2-1.02,8.54-2.05,12.88-2.1,3.29.06,6.53,1.18,9.44,2.67,3.27,1.91,6.42,3.26,10.3,2.81,6.86-.28,13.73-1.19,20.6-.93,6.33.26,12.54,2.09,18.89,2.1,7.31.16,14.54-1.6,21.46-3.8,2.73-1.03,5.86-.25,8.58.5,2.36.75,4.68,1.93,6.87,3.08,1.61.48,3.49.14,5.15.23,2.83,0,5.75,0,8.58,0"/><path class="b" d="M9.73,36.1c3.7,0,7.46,0,11.16,0,1.08,0,2.36,0,3.43,0,1.65-.65,2.94-2.3,4.29-3.41,2.1-1.92,4.28-4.03,6.87-5.28,1.18.06,2.39.82,3.43,1.3,1.99,1.03,4.02,2.24,6.01,3.26,4.46,2.32,7.09,2.91,12.02,1.84,4.57-.85,9.16-1.86,13.73-2.72,9.98-1.65,11.15,3.05,18.89,3.8,6.57.2,13.17-.38,19.74-.22,5.44.09,10.87,1.01,16.31,1.05,9.52.51,19.01-.83,28.33-2.65,1.37-.23,2.9-.64,4.29-.7,1.4.24,2.95.64,4.29,1.09,2.33.68,4.54,2.03,6.87,2.66,4.27,0,8.6,0,12.88,0"/><path class="b" d="M9.73,31.44c3.7,0,7.46,0,11.16,0,1.38-.09,3,.26,4.29-.3,2.13-1.45,4.11-3.34,6.01-5.07,1.91-2.59,8.69.54,11.16,1.54,3.01,1.26,6.13,2.72,9.44,2.9,6.04.05,12.08-1.13,18.03-2.11,3.63-.78,7.48-1.45,11.16-.63,2.55.64,5.07,1.78,7.73,1.99,5.98.48,12.03.4,18.03.64,4.28.12,8.6.53,12.88.67,4.27.08,8.6-.04,12.88-.08,8.88-.22,17.75-1.2,26.61-1.83,3.59-.57,6.87,1.65,10.3,2.28,4.27,0,8.6,0,12.88,0"/><path class="b" d="M9.73,26.78c3.41,0,6.89,0,10.3,0,1.38,0,2.91,0,4.29,0,.87-.13,1.85-.76,2.58-1.22.79-.49,1.67-1.35,2.58-1.61.77-.12,1.8-.25,2.58-.32,4.96-.55,9.81.92,14.59,2,4.77,1.14,9.75.75,14.59.48,3.13-.2,6.32-.5,9.44-.81,2.83-.43,5.72-.97,8.58-1.12,2.87-.23,5.74.56,8.58.82,4.56.35,9.18.56,13.73.88,19.44,1.41,38.92.22,58.37-.05,1.67.02,3.49-.11,5.15.07,1.37.29,2.9.73,4.29.87,4.27,0,8.6,0,12.88,0"/><path class="b" d="M9.73,22.12c4.56,0,9.17,0,13.73,0,.8.07,1.8-.2,2.58-.36,3.12-.1,6.32-.23,9.44-.24,5.71-.04,11.46.46,17.17.51,9.73.05,19.49,0,29.19-.8,11.16-.23,22.32.84,33.48.85,15.16.03,30.34-.12,45.5-.09,7.14.02,14.31.2,21.46.13"/><path class="b" d="M9.73,17.46h172.54"/><path class="b" d="M9.73,12.8h172.54"/><path class="b" d="M9.73,8.14h172.54"/></svg>