<?xml version="1.0" encoding="UTF-8"?><svg id="a" xmlns="http://www.w3.org/2000/svg" width="1920" height="2400" viewBox="0 0 192 240"><defs><style>.b{fill:none;stroke:#fff;stroke-miterlimit:10;stroke-width:.3px;}.c{stroke-width:0px;}</style></defs><rect class="c" x="0" width="192" height="240"/><path class="b" d="M9.65,231.96h172.7"/><path class="b" d="M9.65,227.3h172.7"/><path class="b" d="M9.65,222.63c27.49-.09,55,.22,82.48-.2,30.07.43,60.15.11,90.22.2"/><path class="b" d="M9.65,217.97c4.57,0,9.18,0,13.75,0,.81.06,1.83-.14,2.58-.42,3.13-.11,6.32-.19,9.45-.21,12.02.02,24.06.79,36.09.42,6.58-.14,13.18-.62,19.76-.86,5.13.34,10.32.51,15.47.41,3.99-.08,8.04.17,12.03.21,5.43-.05,10.9-.35,16.32-.38,8.58.25,17.19.54,25.78.37,2.26,0,4.62-.12,6.87-.08.69.37,1.79.63,2.58.55,3.99,0,8.04,0,12.03,0"/><path class="b" d="M9.65,213.3c4.85,0,9.75,0,14.61,0,1.79-.23,3.51-1.24,5.16-1.93,1.38-.15,2.91-.3,4.3-.38,7.51-.59,14.88,1.63,22.34,1.96,6,.23,12.05.27,18.04-.18,4.3-.29,8.61-1.01,12.89-1.57,1.37-.16,2.91-.34,4.3-.32.76.14,1.81.32,2.58.42,2.53.32,5.18.39,7.73.36,3.7-.04,7.47-.26,11.17-.28,2.55-.05,5.19.15,7.73-.14,2.55-.22,5.19-.42,7.73-.69,2.53-.44,5.17-.78,7.73-.47,3.72.38,7.44,1.19,11.17,1.48,5.41.43,10.9.41,16.33.31,2.06-.19,4.02,1.15,6.01,1.44,4.28,0,8.61,0,12.89,0"/><path class="b" d="M9.65,208.64c5.13-.09,10.35.19,15.47-.12,2.71-.67,5.24-2.06,7.73-3.27,2.82-.39,5.77-.43,8.59.01,3.79.54,7.45,1.9,11.17,2.71,2.81.45,5.75.47,8.59.48,7.84.03,15.71-.96,23.2-3.34,1.94-.56,4.01-1.13,6.01-1.4,1.1,0,2.35.44,3.44.61,5.37.93,10.89.84,16.32,1.05,2.55.07,5.19.15,7.73.22,2.86-.15,5.8-.54,8.59-1.17,2.04-.37,3.97-1.5,6.01-1.81,2.6-.42,5.27.35,7.73,1.1,2.52.78,5.14,1.57,7.73,2.05,4.23.8,8.6.97,12.89,1.35,1.66.39,3.47.75,5.16.99,2.25.5,4.57.61,6.87.53,3.12,0,6.33,0,9.45,0"/><path class="b" d="M9.65,203.97c5.13-.09,10.35.19,15.47-.12,3.3-.84,6.43-2.42,9.45-3.96,1.02-.63,2.26-.86,3.44-.74,1.69.04,3.5.29,5.16.65,3.5.69,6.81,2.29,10.31,2.96,4.53.69,9.19.6,13.75.32,4.05-.3,8.14-1.01,12.03-2.19,3.5-1.05,6.87-2.63,10.31-3.84,1.62-.79,3.46-.35,5.16-.12,1.97.27,4.05.56,6.01.82,5.7.73,11.45,1.52,17.18,1.91,3.17-.13,6.43-.49,9.45-1.48,1.47-.45,2.85-1.53,4.3-2.04,3.73-1.56,7.74.04,11.17,1.63,2.76,1.25,5.66,2.45,8.59,3.24,3.09.84,6.33,1.32,9.45,2.01,2.24.39,4.63.46,6.87.81,4.84.31,9.76.04,14.61.13"/><path class="b" d="M9.65,199.31c5.13-.1,10.35.2,15.47-.12,3.87-1.05,7.53-2.87,11.17-4.51,1.07-.44,2.29-1.06,3.44-1.26,1.99.11,4.08.43,6.01.89,2.87.67,5.69,1.85,8.59,2.37,5.93.99,12.08,1.13,18.04.31,4.1-.56,8.18-1.65,12.03-3.19,3.13-1.09,6.12-3.04,9.45-3.45,7.26-.74,14.4,1.45,21.48,2.72,3.95.7,8.18.31,12.03-.78,2.8-1.32,5.36-3.55,8.59-3.7,6-.24,10.94,4.36,16.32,6.41,1.43.51,2.92,1.32,4.3,1.95,1.6.68,3.44,1.15,5.16,1.43,2.25.31,4.6.75,6.87.91,4.56.05,9.18,0,13.75.02"/><path class="b" d="M9.65,194.64c4.85,0,9.75,0,14.61,0,5.11-1.07,9.84-3.62,14.61-5.67,1.37-.56,2.84-1.36,4.3-1.63,1.98.07,4.07.29,6.01.69,9.24,2.27,18.85,4.33,28.35,2.54,5.63-.91,11.06-2.91,16.32-5.06,4.52-2.27,9.79-2.3,14.61-1.04,3.43.78,6.77,2.23,10.31,2.42,2.82.24,5.82.36,8.59-.3,1.81-.7,3.44-2.06,5.16-2.94,2.58-1.45,5.6-2.48,8.59-2.15,3.42.37,6.55,2.16,9.45,3.89,2.59,2.52,5.23,5.27,8.59,6.76,2.97,1.28,6.23,2.16,9.45,2.46,4.56.08,9.18,0,13.75.03"/><path class="b" d="M9.65,189.98c4.85,0,9.75,0,14.61,0,2.34-.4,4.65-1.41,6.87-2.22,5.05-1.98,9.86-4.59,14.61-7.19,4.87-1.32,9.92.49,14.61,1.8,3.92,1.12,7.96,2.11,12.03,2.52,2.26.07,4.62.02,6.87-.17,4.63-.46,9.33-1.28,13.75-2.73,2.63-1.2,4.9-3.3,7.73-4.1,4.25-1.43,8.83-.34,12.89,1.19,4.51.87,9.12,2.4,13.75,2.11,1.84-.45,3.51-1.71,5.16-2.59,3.25-1.86,6.6-3.88,10.31-4.65,5.24-.96,5.26.63,8.59,4.07,3.9,4.39,8,9.1,13.75,11,2.44.97,5.14,1.04,7.73.95,3.12,0,6.33,0,9.45,0"/><path class="b" d="M9.65,185.31c3.13,0,6.32,0,9.45,0,1.96-.07,4.07.16,6.01-.14,4.41-1.35,8.78-3.02,12.89-5.11,2.64-1.34,5.27-2.91,7.73-4.54,1.4-.85,2.78-2.11,4.3-2.76.77-.17,1.8-.35,2.58-.4,3.56-.04,7,1.41,10.31,2.58,4.18,1.54,8.45,3.17,12.89,3.77,3.69.35,7.47.36,11.17.19,1.96-.16,4.11-.02,6.01-.56,1.59-.57,3-1.85,4.3-2.89,1.29-1,2.82-2.01,4.3-2.7,4.05-2.04,7.79-1.26,12.03-.58,3.2.63,6.35,1.75,9.45,2.72,2.19.71,4.65,1.75,6.87.58,3.9-1.54,7.59-3.69,11.17-5.86,1.05-.55,2.21-1.57,3.44-1.67,1.8.32,3.63,1.11,5.16,2.11,6.26,4.14,10.02,11.59,17.18,14.45,1.82,1,4.01.82,6.01.81,3.12,0,6.33,0,9.45,0"/><path class="b" d="M9.65,180.65c4.85,0,9.75,0,14.61,0,6.86-1.78,13.53-4.62,19.76-8,2.03-1.13,4.12-2.41,6.01-3.76,1.11-.72,2.21-1.89,3.44-2.41,3.79-.54,7.63.61,11.17,1.87,6.41,2.42,12.89,4.91,19.76,5.6,2.79.29,5.84,1.25,8.59.43,1.21-.58,2.37-1.71,3.44-2.5,1.31-.98,2.85-1.97,4.3-2.73,2.94-1.51,6.19-2.67,9.45-3.23,2.57-.34,5.27.05,7.73.8,2.33.71,4.68,1.72,6.87,2.78,1.32.64,2.78,1.55,4.3,1.56,2.61-.22,5.28-.83,7.73-1.73,2-.77,3.77-2.3,6.01-2.24,4.48-.59,9.2.23,12.89,2.96,4.74,3.27,8.2,8.62,13.75,10.61,4.28,0,8.61,0,12.89,0"/><path class="b" d="M9.65,175.98c4.85,0,9.75,0,14.61,0,2.9-.62,5.75-1.82,8.59-2.68,4.03-1.35,8.12-2.7,12.03-4.38,3.42-1.42,6.55-3.52,9.45-5.79,1.91-1.48,4.58-1.23,6.87-1.37,8.18-.03,16.09,2.52,24.06,4.03,1.96.39,4.04.78,6.01,1.13.96.07,1.82-.88,2.58-1.33,3.8-2.55,8.41-3.5,12.89-4.06,4.25-.57,8.67-.85,12.89.09,3.24.61,6.31,2.08,9.45,3.02,2.91.08,5.86-.69,8.59-1.64,1.67-.18,3.49.11,5.16.19,4.78.32,9.62,1.44,13.75,3.95,2.72,1.59,5.25,3.66,7.73,5.59,1.59,1.15,3.26,2.66,5.16,3.25,4.28,0,8.61,0,12.89,0"/><path class="b" d="M9.65,171.32c4.85,0,9.75,0,14.61,0,2.89-.63,5.74-1.79,8.59-2.56,4.34-1.31,8.75-2.61,12.89-4.47,1.73-.77,3.55-1.71,5.16-2.71,1.66-1.03,3.31-2.41,5.16-3.09,2.27-.38,4.63-.84,6.87-1.33,11.07-2.66,17.34-3.66,28.35.32,6.1-3.66,12.41-1.21,18.9-.46,3.98.5,8.04.72,12.03,1.08,3.13.21,6.31.78,9.45.81,1.38-.02,2.93-.16,4.3-.35.77-.1,1.8-.35,2.58-.19,4.33,1.03,8.76,1.98,12.89,3.69,3.9,1.59,7.56,3.82,11.17,5.97,1.35.8,2.88,1.68,4.3,2.37,1.01.49,2.28,1.07,3.44.93,3.99,0,8.04,0,12.03,0"/><path class="b" d="M9.65,166.65c4.85,0,9.75,0,14.61,0,2.61-.65,5.16-1.9,7.73-2.7,3.7-1.28,7.51-2.47,11.17-3.86,2.31-.88,4.68-1.88,6.87-3.02,1.38-.7,2.82-1.69,4.3-2.19,1.57-.75,3.48-.57,5.16-.94,2.32-.42,4.68-1.17,6.87-2.04,7.97-3.08,16.24-9.47,24.92-4.91,9.07-3.8,13.29,7,30.93,7.45,3.99.21,8.04,0,12.03-.13,1.38,0,2.93-.43,4.3-.19,2.85.81,5.81,1.59,8.59,2.61,3.91,1.4,7.58,3.53,11.17,5.59,3.47,1.91,7.15,3.97,11.17,4.33,4.28,0,8.61,0,12.89,0"/><path class="b" d="M9.65,161.99c4.85,0,9.75,0,14.61,0,2.07-.58,4.02-1.85,6.01-2.64,3.08-1.38,6.29-2.63,9.45-3.78,2.85-1.05,5.78-2.09,8.59-3.23,1.95-.72,3.89-1.98,6.01-2.11,1.96-.32,4.04.31,6.01.05,4.88-.38,9.6-2.2,13.75-4.74,4.95-2.67,11.3-9.81,17.18-8.01.86.16,1.77-.53,2.58-.71,1.09-.25,2.41-.07,3.44.36,3.3,1.52,5.82,4.41,8.59,6.67,4.09,3.62,9.18,6.13,14.61,6.9,3.96.71,8.04.71,12.03.26,1.99-.07,4.04-.83,6.01-.85,4.15.59,8.36,1.58,12.03,3.69,5.29,2.92,10.06,7.5,16.32,8.1,5.14.1,10.33.01,15.47.04"/><path class="b" d="M9.65,157.32c4.85,0,9.75,0,14.61,0,1.19-.28,2.36-1.17,3.44-1.73,1.94-1.09,4.02-2.22,6.01-3.21,4.42-2.21,9.09-3.98,13.75-5.6,1.67-.53,3.41-1.35,5.16-1.61,1.76-.07,3.54.65,5.16,1.27,1.63.52,3.45.84,5.16.99,3.75.32,7.69.03,11.17-1.48,6.07-2.55,9.71-8.41,14.61-12.51.96-.76,2.25-1.42,3.44-1.71,1.35-.86,2.55-2.43,4.3-2.46,3.42.22,5.59,3.62,7.73,5.91,1.86,2.2,3.85,4.52,6.01,6.42,3.59,3.24,8.2,5.14,12.89,6.13,3.65.9,7.56.96,11.17-.17,2-.61,3.84-1.85,6.01-1.73,9.98-.96,13.99,8.57,22.34,11.35,1.08.1,2.35-.3,3.44-.25,1.08.02,2.35.38,3.44.38,4.28,0,8.61,0,12.89,0"/><path class="b" d="M9.65,152.66c4.85,0,9.75,0,14.61,0,2.43-.88,4.59-2.67,6.87-3.89,3.59-2.14,7.32-4.17,11.17-5.81,2.21-.95,4.57-1.82,6.87-2.53,1.35-.35,2.88-1.09,4.3-.76,2.13.9,3.94,2.57,6.01,3.58,3.47,1.71,7.32,2.85,11.17,3.24,8.37,1.05,12.85-4.71,17.18-10.86,1.45-2.16,3.4-4.15,5.16-6.05.77-1.07,1.7-2.65,2.58-3.64,6.43-6.73,10.84,11.67,23.2,16.63,4.25,1.82,9.13,3.83,13.75,2.21,1.85-.6,3.63-1.76,5.16-2.94,4.96-2.7,8.84-2.42,12.89,1.71,3.07,2.79,6.28,7.86,10.31,9,2.86-1.45,5.66-.05,8.59.11,4.28,0,8.61,0,12.89,0"/><path class="b" d="M9.65,147.99c4.85,0,9.75,0,14.61,0,1.5-.37,2.93-1.43,4.3-2.13,1.98-1.13,4.05-2.37,6.01-3.52,5.96-3.49,12.14-6.97,18.9-8.6,1.31.3,2.49,1.46,3.44,2.35,1.04.94,2.3,2.02,3.44,2.84,3.82,2.74,8.18,5.13,12.89,5.8,8.78,1.34,13.09-7.79,18.04-13.28,3.08-2.4,5.38-11.51,10.31-9.18,3.2,2,5.24,5.52,7.73,8.27,2.64,3.14,5.82,5.97,9.45,7.91,1.9,1.09,4.11,1.84,6.01,2.93,4.84,2.82,9.06,1.6,12.89-2.2,3.15-2.17,7.2-5.9,11.17-3.59,3.27,2.24,5.03,6.22,7.73,9.05,1.19,1.19,2.54,2.93,4.3,3.21,2.45-1.04,5.2.06,7.73.12,4.56.06,9.18,0,13.75.02"/><path class="b" d="M9.65,143.33c4.85,0,9.75,0,14.61,0,3.28-1,6.35-2.89,9.45-4.34,6.06-3.06,12.23-6.22,18.9-7.7,2.64-.89,3.38.58,5.16,2.13,1.82,1.6,3.91,3.11,6.01,4.3,3.39,1.89,7.23,3.41,11.17,3.29,8.37-.39,11.81-9.35,17.18-14.39,2.43-2.89,3.23-7.55,6.87-9.3,2.91-.85,5.13,2.15,6.87,4.03,1.69,2.01,3.44,4.25,5.16,6.23,3.72,4.24,7.93,8.29,12.89,11.05,2.84,1.6,6.39,2.43,9.45.97,4.18-2.13,7.61-5.73,12.03-7.45,7.91-2.64,10.98,10.13,18.04,10.9,6.28.42,12.61.23,18.9.27"/><path class="b" d="M9.65,138.66c4.85,0,9.75,0,14.61,0,4.39-1.25,8.59-3.36,12.89-4.91,5.01-1.95,10.2-3.54,15.47-4.62,3.3-1.03,4.2.44,6.87,1.91,2.7,1.55,5.61,2.9,8.59,3.8,3.59,1.1,7.65,1.54,11.17-.05,3.42-1.52,6.05-4.44,8.59-7.1,1.5-1.79,3.63-3.17,5.16-4.91,2.28-3.38,4.07-9.66,8.59-10.42,4.34.13,8.45,7.73,11.17,10.84,3.15,4.04,6.69,8.07,11.17,10.67,2.68,1.53,5.63,2.52,8.59,1.12,4.72-1.74,8.86-5,13.75-6.35,8.31-1.98,11.87,8.71,19.76,9.35,1.07.19,2.35.57,3.44.67,1.07,0,2.37,0,3.44,0,3.12,0,6.33,0,9.45,0"/><path class="b" d="M9.65,134c4.85,0,9.75,0,14.61,0,2.61-.58,5.17-1.77,7.73-2.56,4.22-1.44,8.54-2.73,12.89-3.73,2.54-.6,5.2-1.13,7.73-1.76,1.07-.26,2.32-.71,3.44-.67,1.1.18,2.37.52,3.44.82,8.83,2.49,16.57,6.02,24.92.03,2.49-1.65,4.95-3.58,7.73-4.74,1.95-1.41,2.97-4.04,4.3-5.98,2.07-2.97,4.39-7.61,8.59-7.34,4.5,1.09,7.52,6.74,10.31,10.15,2.74,3.65,5.64,7.47,9.45,10.07,1,.65,2.26,1.36,3.44,1.61,2.59.1,5.28-.65,7.73-1.45,3.04-1.23,6.29-2.11,9.45-2.99,3.77-1.06,7.86-.38,11.17,1.69,2.33,1.33,4.53,3.1,6.87,4.41,1.61.85,3.48,1.55,5.16,2.26,1.63.38,3.49.11,5.16.18,2.84,0,5.76,0,8.59,0"/><path class="b" d="M9.65,129.33c3.13,0,6.32,0,9.45,0,1.96-.08,4.08.19,6.01-.17,7.79-3.01,15.96-4.8,24.06-6.74,2.34-.54,4.62-1.59,6.87-2.37,2.54-.38,5.2-.43,7.73.03,6.57,1.25,12.16,3.47,18.9,1.27,2.82-.8,5.65-1.98,8.59-2.28,2.42-.1,3.8-2.64,5.16-4.32,1.67-2.25,3.38-4.75,5.16-6.92,5.18-6.48,9.08-5.39,13.75.86,3.44,4.09,8.95,15.44,14.61,15.11,2.57.11,5.25-.13,7.73-.79,2.26-.29,4.62-.56,6.87-.91,4.28-.68,8.81-.74,12.89.9,3.95,1.52,7.47,4.06,11.17,6.07,1.61.5,3.49.14,5.16.24,2.84,0,5.76,0,8.59,0"/><path class="b" d="M9.65,124.67c3.13,0,6.32,0,9.45,0,1.96-.09,4.09.21,6.01-.18,2.8-1.11,5.71-2.15,8.59-3,5.12-1.54,10.45-2.58,15.47-4.47,1.42-.54,2.97-1.24,4.3-1.99,1.33-.84,2.78-1.77,4.3-2.22,4.13-1.93,8.76-.98,12.89.43,2.5.79,5.12,1.55,7.73,1.89,2.82.38,5.75.32,8.59.46,1.08.06,2.37.19,3.44.37,1.09.26,2.4.44,3.44-.11,3.93-2.42,6.63-6.51,9.45-10.06,1.99-2.49,3.97-5.42,6.87-6.92,5.86-2.62,10.22,8.18,12.89,11.99,2.16,3.61,4.03,6.62,8.59,7.08,1.94.35,4.05.44,6.01.29,3.41.27,6.89.29,10.31.33,3.75.07,7.57.48,11.17,1.57,2.98.89,5.9,2.25,8.59,3.79,1.71,1.24,4.05.6,6.01.74,2.84,0,5.76,0,8.59,0"/><path class="b" d="M9.65,120c4.85,0,9.75,0,14.61,0,2.32-.63,4.57-1.89,6.87-2.62,3.67-1.33,7.5-2.41,11.17-3.74,3.88-1.42,7.8-3.1,11.17-5.53,1.8-1.59,3.91-2.87,6.01-4.02,2.87-1.67,6.41-1.6,9.45-.43,3.21,1.18,6.29,2.88,9.45,4.17,3.08,1.3,6.35,2.34,9.45,3.57,1.97.62,3.87,2.22,6.01,1.97,7.29-1.85,11.1-9.26,15.47-14.74,4.5-5.97,7.88-6.46,12.03.2,2.77,3.85,4.06,9.63,8.59,11.82,2.4,1.17,5.08,1.97,7.73,2.32,4.46,1.39,9.14,2.05,13.75,2.76,4.01.64,8.09,1.31,12.03,2.34,2.03.44,4.02,1.43,6.01,1.92,4.28,0,8.61,0,12.89,0"/><path class="b" d="M9.65,115.33c4.85,0,9.75,0,14.61,0,1.17-.25,2.35-1.03,3.44-1.5,1.66-.79,3.46-1.58,5.16-2.29,5.76-2.32,11.39-5.05,17.18-7.29,1.78-.73,3.68-1.65,5.16-2.91,1.02-.78,2.41-1.42,3.44-2.21,2.67-2.13,5.87-4.22,9.45-3.72,6.59,1.01,13.3,7.29,18.9,10.92,1.97,1.19,3.8,3.04,6.01,3.73,2.37.25,4.84-.64,6.87-1.81,3.96-2.42,6.73-6.4,9.45-10.07,2.93-3.83,6.68-9.98,12.03-5.89,2.63,2.2,4.05,5.64,6.01,8.37.83,1.13,2.23,2.04,3.44,2.7,1.89,1.11,3.97,2.14,6.01,2.93,1.77.61,3.42,1.84,5.16,2.54,6.21,2.85,13.05,3.85,19.76,4.76,2.6.31,5.2,1.14,7.73,1.73,4.28,0,8.61,0,12.89,0"/><path class="b" d="M9.65,110.67c4.57,0,9.18,0,13.75,0,1.23.17,2.41-.62,3.44-1.17,1.66-.88,3.46-1.79,5.16-2.6,5.14-2.5,10.58-4.67,16.32-5.18,1.7-.21,3.55-.43,5.16-1.03,1.43-.65,2.94-1.58,4.3-2.36,1.83-1.25,3.44-3.04,5.16-4.43,4.88-4.16,9.57-3.1,14.61.09,5.18,3.21,9.81,7.31,14.61,11.03,5.36,2.01,11.13-1.09,14.61-5.18,3.15-3.48,5.6-7.67,8.59-11.27,4.26-5.19,7.62-4.09,11.17,1.08.73,1.05,1.59,2.65,2.58,3.49,2.35,1.38,4.62,3.11,6.87,4.63,1.87,1.06,3.47,2.73,5.16,4.04,1.81,1.38,3.91,2.59,6.01,3.46,5.46,2.27,11.46,2.72,17.18,4.01,1.71.32,3.46,1.06,5.16,1.39,4.28,0,8.61,0,12.89,0"/><path class="b" d="M9.65,106c4.57,0,9.18,0,13.75,0,1.23.17,2.4-.61,3.44-1.14,1.37-.7,2.9-1.46,4.3-2.09,6.24-2.96,11.23-3.67,18.04-2.92,1.38.09,2.94.09,4.3-.24,1.81-.59,3.67-1.59,5.16-2.78,8.21-8.03,10.97-13,22.34-5.32,2.66,1.79,5.26,3.85,7.73,5.88,1.62,1.26,3.17,2.97,5.16,3.64,5.03,2.02,10.74.56,14.61-3.12,2.62-2.35,4.8-5.34,6.87-8.17,2.36-2.91,4.59-7.22,8.59-7.92,1.65-.09,3.2,1.02,4.3,2.15.65.73,1.54,1.9,2.58,2.04,2.91,1.18,5.58,3.31,7.73,5.57,2.37,3.04,5.21,5.93,8.59,7.83,5.26,2.97,11.41,3.7,17.18,5.17,1.7.36,3.45,1.1,5.16,1.43,4.28,0,8.61,0,12.89,0"/><path class="b" d="M9.65,101.34c4.85,0,9.75,0,14.61,0,2.61-.89,5.07-2.48,7.73-3.28,6-2.24,11.1-1.4,17.18-.38,3.98.77,7.55-1.11,10.31-3.85,5.65-5.74,9.97-12.51,18.9-7.93,4.61,2.26,8.73,5.5,12.89,8.47,4.73,3.88,11.55,5.44,17.18,2.62,4.35-2.11,7.43-6.13,10.31-9.89,2-2.48,3.92-5.5,6.87-6.92.73-.3,1.81-.4,2.58-.19.77.27,1.77.82,2.58,1.01.76.02,1.83-.08,2.58.12,3.03.86,5.19,3.41,6.87,5.94,1.93,2.55,4.22,5.07,6.87,6.89,5.09,3.46,11.33,4.52,17.18,6.03,1.69.36,3.46,1.07,5.16,1.37,4.28,0,8.61,0,12.89,0"/><path class="b" d="M9.65,96.67c3.42,0,6.9,0,10.31,0,1.97-.13,4.25.44,6.01-.67,8.51-4.17,13.53-3.11,22.34-1.66,3.96.59,6.52-.71,9.45-3.22,5.55-4.78,10.48-12.58,18.9-9.69,5.5,1.8,10.36,5.19,15.47,7.84,1.66,1.08,3.33,2.44,5.16,3.25,3.72,1.67,8.06,2.15,12.03,1.19,4.73-1.13,8.24-4.86,11.17-8.53,2.06-2.43,3.97-5.43,6.87-6.92,1.02-.48,2.36-.26,3.44-.43,1.08-.37,2.23-1.22,3.44-1.09,3.38.33,5.03,3.71,6.87,6.11,1.71,2.26,3.73,4.53,6.01,6.22,5,3.67,11.26,4.98,17.18,6.38,1.69.33,3.46.96,5.16,1.23,4.28,0,8.61,0,12.89,0"/><path class="b" d="M9.65,92.01c3.13,0,6.32,0,9.45,0,1.96-.12,4.12.28,6.01-.24,7.12-3.73,13.05-2.84,20.62-1.97,3.36.35,7.02-.26,9.45-2.78,1.92-1.74,4.06-3.46,6.01-5.15,3.3-2.93,7.41-5.66,12.03-5.1,6.68.84,12.55,4.65,18.9,6.66,1.78.91,3.39,2.38,5.16,3.31,3.64,1.94,7.92,2.81,12.03,2.48,8.32-.58,11.65-8.1,17.18-12.97.37-.29,1.27-.8,1.72-.96.79-.18,1.89-.24,2.58-.71,1.05-1.18,2.6-2.45,4.3-2.13,2.98.55,4.31,3.7,6.01,5.85,1.7,2.31,3.72,4.64,6.01,6.37,4.96,3.72,11.21,5.1,17.18,6.28,1.68.28,3.47.81,5.16,1.05,4.28,0,8.61,0,12.89,0"/><path class="b" d="M9.65,87.34c4.85,0,9.75,0,14.61,0,2.52-.84,5.04-2.05,7.73-2.34,5.67-.95,11.7.6,17.18-1.49,2.87-1.01,4.91-3.45,6.87-5.64,4.44-3.41,9.52-7.3,15.47-6.3,5.09.74,9.79,3.15,14.61,4.83,2.19.92,4.69,1.24,6.87,2.13,2,1.14,3.86,2.8,6.01,3.67,5.28,2,12.18,2.65,17.18-.38,3.74-2.35,6.15-6.33,9.45-9.18.65-.56,1.72-1.19,2.58-1.36.43.06,1.33-.14,1.72-.35,2.07-3.13,4.57-4.49,7.73-1.75,2.08,2.55,3.79,5.63,6.01,8.07,3.11,3.65,7.44,6.11,12.03,7.39,4.48,1.3,9.19,1.8,13.75,2.7,4.28,0,8.61,0,12.89,0"/><path class="b" d="M9.65,82.68c3.42,0,6.9,0,10.31,0,1.38,0,2.92,0,4.3,0,.81-.12,1.81-.57,2.58-.82,5.84-1.96,12.22-1.62,18.04-3.6,4.52-1.44,7.89-5.07,10.31-9.01,3.03-3.21,7.43-6.08,12.03-5.45,3.66.48,7.02,2.29,10.31,3.84,4.39,2,8.93,4.06,13.75,4.72,1.54.1,3,1.07,4.3,1.82,1.3.74,2.86,1.37,4.3,1.8,5.23,1.32,12.25,2.78,17.18.08,2.69-1.51,4.78-4.02,6.87-6.23.68-.74,1.74-1.71,2.58-2.29.68-.47,1.82-.73,2.58-1.04,2.07-3.74,4.87-6.09,8.59-2.57,1.52,1.92,2.84,4.34,4.3,6.32,2.6,3.71,6.05,7.03,10.31,8.73,4.34,1.87,9.14,2.22,13.75,2.99,1.09.18,2.34.59,3.44.72,1.07,0,2.36,0,3.44,0,3.13,0,6.33,0,9.45,0"/><path class="b" d="M9.65,78.01c3.13,0,6.32,0,9.45,0,1.96-.1,4.1.24,6.01-.21,5.97-2.8,12.81-2.62,18.9-4.99,3.93-1.54,7.17-4.59,9.45-8.09.74-1.13,1.63-2.73,2.58-3.7.76-.64,1.79-1.52,2.58-2.14,7.77-6.57,13.69-3.33,21.48.95,2.76,1.48,5.62,2.99,8.59,4.01,1.34.51,2.96.65,4.3,1.17,3.51,1.9,7.26,3.47,11.17,4.34,3.07.72,6.27,1.5,9.45,1.37,4.02-.1,7.17-2.89,10.31-5.06.96-.63,2.26-1.2,3.44-1.13,1.77-.95,2.7-3.2,4.3-4.4,3.8-3.09,6.48-.4,8.59,2.99,1.28,1.8,2.79,3.78,4.3,5.4,2.74,2.98,6.37,5.23,10.31,6.2,4.84,1.14,9.77,2.15,14.61,3.3,4.28,0,8.61,0,12.89,0"/><path class="b" d="M9.65,73.35c4.85,0,9.75,0,14.61,0,2.56-.73,5.1-1.88,7.73-2.39,6.99-1.48,13.9-2.61,18.9-8.25,1.95-1.93,3.23-4.67,5.16-6.6,5.75-4.32,11.4-8.26,18.9-5.86,4.49,1.33,8.57,3.85,12.89,5.61,7.13,2.3,14.27,4.75,21.48,6.81,5.04,1.46,8.32.55,12.89-1.71,1.02-.44,2.32-.82,3.44-.73,1.73-.25,3-1.89,4.3-2.92,2.17-1.91,5.18-2.3,7.73-.9,2.42,2.14,4.41,4.95,6.87,7.07,2.92,2.71,6.56,4.63,10.31,5.91,4.76,1.63,9.71,2.88,14.61,3.97,4.28,0,8.61,0,12.89,0"/><path class="b" d="M9.65,68.68c3.42,0,6.9,0,10.31,0,1.97-.1,4.16.33,6.01-.48,6.45-2.38,13.61-2.63,19.76-5.84,2.18-1.14,4.28-2.72,6.01-4.46,1.17-1.12,2.26-2.72,3.44-3.82,1.8-1.24,4.06-1.93,6.01-2.9,9.18-4.26,16.22-3.92,25.78-1.35,2.23.54,4.59,1.06,6.87,1.31,2.57.1,5.24.15,7.73.85,8.83,2.36,10.87,5.51,20.62,2.81.75-.13,1.81-.16,2.58-.14,1.87-.37,3.51-1.72,5.16-2.61,2.36-1.32,5.29-1.19,7.73-.16.86.57,1.84,1.59,2.58,2.31,3.53,3.52,7.51,6.74,12.03,8.91,5.42,2.61,11.32,4.32,17.18,5.58,4.28,0,8.61,0,12.89,0"/><path class="b" d="M9.65,64.02c4.85,0,9.75,0,14.61,0,3.4-.87,6.83-1.94,10.31-2.52,5-.97,10.12-2.1,14.61-4.62,1.14-.63,2.42-1.5,3.44-2.3.98-.86,2.09-1.86,3.44-2.02,6.05-.46,12.1-1.38,18.04-2.6,4.87-1,9.67-2.57,14.61-3.28,1.67-.26,3.5-.22,5.16-.58,1.13-.24,2.35-.87,3.44-1.24,5.71-1.98,11.01,1.84,16.32,3.34,3.36,1.02,6.89.24,10.31.19,2.74-.29,5.05-2.26,7.73-2.79,1.96-.42,4.11-.15,6.01.45,1.85,1.26,3.45,3.11,5.16,4.56,7.36,6.9,16.79,11.4,26.64,13.43,4.28,0,8.61,0,12.89,0"/><path class="b" d="M9.65,59.35c3.13,0,6.32,0,9.45,0,1.96-.07,4.07.18,6.01-.15,7.26-2.29,15.01-2.52,22.34-4.56,1.72-.47,3.55-1.09,5.16-1.86,1.1-.49,2.36.05,3.44.32,1.66.41,3.47.75,5.16.98,10.52,1.55,16.33-1.35,24.92-6.88,2.36-1.63,5.14-2.63,7.73-3.79,1.5-.76,2.85-2.09,4.3-2.93,6.43-3.67,11.4.82,17.18,3.05,3.07.75,6.35.6,9.45.17,2.9-.69,5.57-2.45,8.59-2.68,2.6-.26,5.3.28,7.73,1.17.75.73,1.82,1.73,2.58,2.46,7.14,6.95,15.87,12.78,25.78,14.71,4.28,0,8.61,0,12.89,0"/><path class="b" d="M9.65,54.69c4.85,0,9.75,0,14.61,0,5.59-1.55,11.4-2.19,17.18-2.57,2.55-.2,5.19-.33,7.73-.61,1.68.05,3.58-.36,5.16.39,9.64,4.43,19.85,2.95,28.35-3.2,2.28-1.64,4.54-3.52,6.87-5.09,1.63-1.09,3.58-1.92,5.16-3.1,2.55-2.03,5.14-4.71,8.59-4.88,5.92-.09,10.55,4.84,16.32,5.37,2.26.19,4.68.08,6.87-.54,3.59-1.33,7.23-3.1,11.17-2.79,2.32.14,4.73.67,6.87,1.56,2.46,2.43,5.04,4.93,7.73,7.1,4.97,4.02,10.87,7.2,17.18,8.37,4.28,0,8.61,0,12.89,0"/><path class="b" d="M9.65,50.02c4.85,0,9.75,0,14.61,0,3.92-1.04,7.96-1.77,12.03-1.82,5.43-.12,10.94.09,16.32.77,1.12.2,2.29.95,3.44.96,2.48-.68,5.19-.62,7.73-.44,1.39.11,2.92.33,4.3.53,2.3-.39,4.67-.96,6.87-1.71,5.94-1.84,10.58-6.15,15.47-9.79,1.36-.91,2.96-1.81,4.3-2.76,1.56-1.15,3.23-2.51,5.16-2.97,5.31-1.22,10.05,2.52,14.61,4.66,3.43,1.88,7.24,2.98,11.17,2.48,3.6-.44,6.73-2.72,10.31-3.33,3.99-.85,8.26-.21,12.03,1.27,1.05.96,2.34,2.08,3.44,2.98,5.24,4.25,11.44,7.66,18.04,9.17,4.28,0,8.61,0,12.89,0"/><path class="b" d="M9.65,45.36c4.57,0,9.18,0,13.75,0,2.01.05,4.02-.84,6.01-1.04,5.97-.98,12.04-.25,18.04-.3,1.67-.09,3.48-.24,5.16-.11,2.53.46,5.13,1.1,7.73,1.06,7.3-.01,14.83-1.05,21.48-4.18,2.68-1.28,5.23-3.01,7.73-4.61,2.28-1.4,4.74-2.72,6.87-4.34,10.83-8.83,18.82,9.85,31.79,6.86,3.53-1.3,6.74-3.55,10.31-4.78,4.07-1.47,8.74-1.73,12.89-.44,3.25,2.9,6.62,5.83,10.31,8.16,2.42,1.43,4.99,3.03,7.73,3.72,4.28,0,8.61,0,12.89,0"/><path class="b" d="M9.65,40.69c4.85,0,9.75,0,14.61,0,3.11-.56,6.28-1.25,9.45-1.42,3.41-.36,6.89-.22,10.31-.2,2.56-.01,5.18-.46,7.73-.61,1.4-.1,2.92.27,4.3.46,2.25.3,4.61.4,6.87.4,5.75,0,11.57-.51,17.18-1.75,3.52-.79,6.95-2.13,10.31-3.44,2.06-.71,4.18-1.66,6.01-2.84,2.11-1.39,4.26-3.16,6.87-3.38,5.27-.39,9.46,3.63,13.75,6.08,3.53,2.24,7.82,3.62,12.03,3.18,2.66-.77,5.24-2.02,7.73-3.21,4.59-2.23,9.44-4.39,14.61-4.64,1.08-.03,2.4-.16,3.44.22,1.39,1.2,2.92,2.59,4.3,3.81,2.92,2.6,6.05,5.14,9.45,7.08,1.6.52,3.49.15,5.16.26,2.84,0,5.76,0,8.59,0"/><path class="b" d="M9.65,36.03c4.85,0,9.75,0,14.61,0,3.68-.73,7.42-1.5,11.17-1.84,3.7.11,7.47.24,11.17-.08,1.98-.13,4.04-.5,6.01-.66,1.68-.06,3.48.29,5.16.37,11.77.91,23.64.17,35.23-2.07,2.09-.5,4.19-1.45,6.01-2.58,2.47-1.74,5.53-3.03,8.59-2.43,4.09.8,7.5,3.53,11.17,5.34,3.17,1.54,6.78,2.52,10.31,2.56,4.43-.6,8.71-2.16,12.89-3.68,5.01-1.83,10.1-3.87,15.47-4.31,0,0,.86.19.86.19l.86.71c.77.66,1.83,1.59,2.58,2.27,1.93,1.75,3.96,3.63,6.01,5.23.58.6,1.72,1.14,2.58.98,1.07,0,2.37,0,3.44,0,2.84,0,5.76,0,8.59,0"/><path class="b" d="M9.65,31.36c4.85,0,9.75,0,14.61,0,2.84-.51,5.69-1.65,8.59-1.77,4.85.25,9.76.32,14.61.08,3.13-.13,6.31-.7,9.45-.38,8.29.46,16.62.63,24.92.34,4.26-.25,8.66-.02,12.89-.64,4.49-.7,8.19-4.32,12.89-3.97,3.68.2,6.99,2.15,10.31,3.56,3.25,1.33,6.8,2.21,10.31,2.47,3.44,0,6.93-.55,10.31-1.12,6.95-1.14,13.71-3.31,20.62-4.64.76-.13,1.82-.37,2.58-.08.41.33,1.32,1.01,1.72,1.35,1.09.91,2.37,2.03,3.44,2.97.7.6,1.66,1.57,2.58,1.83,4.28,0,8.61,0,12.89,0"/><path class="b" d="M9.65,26.7c4.85,0,9.75,0,14.61,0,1.99-.32,3.94-1.58,6.01-1.3,5.71.24,11.47.38,17.18.34,3.99-.02,8.04-.29,12.03-.16,10.3.33,20.63.01,30.93.18,2.57.13,5.23-.05,7.73-.67,2.54-.66,5.09-1.73,7.73-1.92,5.03-.51,9.73,1.9,14.61,2.67,2.81.55,5.73.98,8.59.78,2.26.03,4.62.11,6.87-.07,9.21-.42,18.36-1.68,27.49-2.85.84-.22,1.95.13,2.58.73.76.56,1.83,1.35,2.58,1.93.33.23,1.31.41,1.72.33,1.07,0,2.37,0,3.44,0,2.84,0,5.76,0,8.59,0"/><path class="b" d="M9.65,22.03c4.57,0,9.18,0,13.75,0,.8.08,1.8-.21,2.58-.33,1.08.01,2.35.02,3.44.03,18.9.23,37.81.16,56.71-.04,3.41-.01,6.9.18,10.31-.05,4.27-.35,8.6-.95,12.89-.53,7.69.83,15.47.96,23.2.88,10.02.07,20.06-.1,30.07-.34,1.67-.04,3.48-.08,5.16-.1.74.2,1.79.58,2.58.48,3.99,0,8.04,0,12.03,0"/><path class="b" d="M9.65,17.37h172.7"/><path class="b" d="M9.65,12.7h172.7"/><path class="b" d="M9.65,8.04h172.7"/></svg>