<?xml version="1.0" encoding="UTF-8"?><svg id="a" xmlns="http://www.w3.org/2000/svg" width="1920" height="2400" viewBox="0 0 192 240"><defs><style>.b{fill:none;stroke:#fff;stroke-miterlimit:10;stroke-width:.3px;}.c{stroke-width:0px;}</style></defs><rect class="c" x="0" width="192" height="240"/><path class="b" d="M9.65,231.96h172.7"/><path class="b" d="M9.65,227.3h172.7"/><path class="b" d="M9.65,222.63c57.57-.04,115.13-.01,172.7,0"/><path class="b" d="M9.65,217.97c4.85,0,9.75,0,14.61,0,.48-.1,1.3-.44,1.72-.67,1.08,0,2.35,0,3.44,0,10.88-.01,21.78.32,32.65.04,2.26-.1,4.62-.07,6.87-.29,3.1-.6,6.28-1.3,9.45-1.36,5.78-.05,11.41,1.87,17.18,2.03,3.12.27,6.32.22,9.45.15,3.41-.03,6.9.05,10.31.09,9.16-.05,18.33-.7,27.49-.71,7.72,0,15.48.16,23.2.32,1.1-.07,2.36.23,3.44.4,4.28,0,8.61,0,12.89,0"/><path class="b" d="M9.65,213.3c4.85,0,9.75,0,14.61,0,1.79-.41,3.44-1.63,5.16-2.26,3.13-.03,6.33,0,9.45.07,8.87.2,17.81.94,26.64-.3,5.28-.42,10.04-4.2,15.47-3.38,3.67.54,6.77,2.94,10.31,3.9,7.29,1.78,14.87,2.02,22.34,1.96,3.71-.04,7.48-.18,11.17-.54,3.42-.34,6.88-.87,10.31-1.08,7.14-.53,14.33-.43,21.48-.3,2.55.05,5.19,0,7.73.08,1.68.56,3.39,1.57,5.16,1.83,4.28,0,8.61,0,12.89,0"/><path class="b" d="M9.65,208.64c3.13,0,6.32,0,9.45,0,1.96-.08,4.08.19,6.01-.16,2.62-.9,5.18-2.22,7.73-3.27,4.85-.28,9.75-.39,14.61-.4,6.86,0,13.89.49,20.62-1.13,3.98-1.43,7.74-3.94,12.03-4.32,2.39-.18,4.82.65,6.87,1.83,1.39.77,2.79,1.92,4.3,2.48,6.11,2.04,12.46,3.55,18.9,3.93,3.7.22,7.48.24,11.17-.14,3.71-.33,7.44-1.06,11.17-1.24,7.15-.45,14.33.09,21.48.09,2.26,0,4.62-.06,6.87-.2,2.62.52,5.21,1.53,7.73,2.38,1.65.3,3.49.08,5.16.15,2.84,0,5.76,0,8.59,0"/><path class="b" d="M9.65,203.97c4.85,0,9.75,0,14.61,0,3.94-.83,7.63-2.82,11.17-4.68,1.27-.65,2.91-.52,4.3-.72,2.54-.23,5.18-.37,7.73-.41,6.87-.06,13.88.81,20.62-.95,2.63-1.05,5.16-2.53,7.73-3.71,6.45-3.12,10.27-.84,15.47,3.11,3.1.93,6.3,1.8,9.45,2.56,5.33,1.28,10.84,1.97,16.32,1.99,4.29-.06,8.59-1.01,12.89-.95,8.31-.04,16.61,1.01,24.92,1.12,2.3-.16,4.63.27,6.87.75,2.59.42,5.16,1.41,7.73,1.89,4.28,0,8.61,0,12.89,0"/><path class="b" d="M9.65,199.31c4.85,0,9.75,0,14.61,0,4.57-1.05,8.8-3.46,12.89-5.69.77-.42,1.74-1.06,2.58-1.34,1.96-.2,4.04-.32,6.01-.36,6.86-.17,13.86,1.33,20.62-.45,7.67-1.75,13-9.02,21.48-4.19,1.46.74,2.83,1.99,4.3,2.71,3.4.78,6.87,1.54,10.31,2.11,4.81.82,9.73,1.29,14.61,1.53,2.84-.17,5.75-.48,8.59-.46,3.43.11,6.89.81,10.31,1.11,5.41.58,10.88.98,16.32,1.03,2.33-.17,4.62.74,6.87,1.19,3.49.63,6.87,2.04,10.31,2.81,4.28,0,8.61,0,12.89,0"/><path class="b" d="M9.65,194.64c3.13,0,6.32,0,9.45,0,1.96-.09,4.09.22,6.01-.18,5.96-2.34,11.47-5.72,17.18-8.58,1.04-.42,2.35-.18,3.44-.17,1.97.1,4.05.29,6.01.49,6.77.93,10.75.62,17.18-1.66,2.07-.59,4.02-1.83,6.01-2.62,4.88-2.22,9.91-2.28,14.61.45.78.42,1.8,1.07,2.58,1.5,1.35.4,2.91.68,4.3.9,3.39.52,6.89.64,10.31.62,2.84-.01,5.76-.09,8.59.02,2.55-.19,5.17-.57,7.73-.5,2.64-.06,5.24.77,7.73,1.54,2.5.67,5.16,1.12,7.73,1.36,2.83.27,5.76.31,8.59.2,1.07-.04,2.37-.12,3.44-.2,1.11.13,2.37.61,3.44.92,3.17.99,6.4,2.06,9.45,3.37,2.22.84,4.44,2.64,6.87,2.56,3.99,0,8.04,0,12.03,0"/><path class="b" d="M9.65,189.98c4.85,0,9.75,0,14.61,0,1.79-.49,3.48-1.69,5.16-2.48,2.82-1.49,5.71-3.05,8.59-4.43,1.94-.93,4.01-1.84,6.01-2.61.77-.28,1.75-.73,2.58-.75.45.06,1.28.17,1.72.23,4.81.61,9.88,1.79,14.61.12,2.78-1.07,5.67-2.13,8.59-2.76,6.2-2.03,10.93-2.69,17.18-.17,1.41.52,2.87,1.39,4.3,1.87,3.3,1.05,6.88,1.25,10.31.87,3.45-.37,6.88-1.29,10.31-1.83,2.49-.8,5.11-1.6,7.73-1.84,1.98-.18,4.13-.03,6.01.63,1.41.61,2.85,1.57,4.3,2.11,4.89,1.91,10.36,1.87,15.47.97,3.82.66,7.6,2.09,11.17,3.6,3.35,1.48,6.49,3.54,9.45,5.67.62.53,1.75.93,2.58.8,1.07,0,2.37,0,3.44,0,2.84,0,5.76,0,8.59,0"/><path class="b" d="M9.65,185.31c22.16-.2,8.87,1.65,27.49-6.19,2.82-1.14,5.75-2.23,8.59-3.29,1.65-.51,3.37-1.61,5.16-1.34,3.42.26,7.06.54,10.31-.78,5.26-2.74,8.66-3.7,14.61-3.29,4.7-.22,9.35,1.08,13.75,2.6,1.72.53,3.46,1.41,5.16,2.01,2.46.8,5.17,1.04,7.73.78,3.23-.4,6.54-1.28,9.45-2.73,3.59-1.87,7.11-4.31,11.17-4.98,1.69-.25,3.57-.08,5.16.59.8.55,1.78,1.45,2.58,2.01,2.73,1.92,6.14,2.8,9.45,2.83,1.68.11,3.55-.53,5.16.18,4.89,1.53,10.03,2.58,14.61,4.96,3.17,1.59,5.99,3.92,8.59,6.29,0,0,.86.36.86.36h.86c1.07,0,2.37,0,3.44,0,2.84,0,5.76,0,8.59,0"/><path class="b" d="M9.65,180.65c3.13,0,6.32,0,9.45,0,1.96-.1,4.1.25,6.01-.21,4.44-2.01,9.19-3.35,13.75-5.06,4.13-1.52,8.14-3.51,12.03-5.57.45-.22,1.28-.68,1.72-.9.75-.28,1.8-.32,2.58-.42,1.42-.21,2.97-.62,4.3-1.17,1.46-.62,2.89-1.69,4.3-2.42,2.09-1.12,4.49-1.9,6.87-1.97,2.93-.09,5.87.73,8.59,1.76,4.37,1.15,8.58,2.97,12.89,4.3,7.15,4.28,13.62,4.61,20.62-.19,4.71-2.79,9.54-7.81,15.47-6.47,1.04.3,1.8,1.59,2.58,2.27.96.92,2.26,1.87,3.44,2.5,2.08,1.22,4.59,1.56,6.87,2.19,2.15,1.12,4.53,2.01,6.87,2.64,6.79,1.83,14.37,2.56,19.76,7.55.26.39,1.27,1.03,1.72,1.17,1.37,0,2.92,0,4.3,0,2.84,0,5.76,0,8.59,0"/><path class="b" d="M9.65,175.98c4.85,0,9.75,0,14.61,0,5.76-1.22,11.7-2.14,17.18-4.35,4.88-1.99,9.31-5.01,13.75-7.83,1.3-.77,2.97-1.17,4.3-1.9,1.7-.88,3.39-2.1,5.16-2.86,6.72-3.29,13.31,1.66,18.9,5.01,2.7,1.63,5.59,3.16,8.59,4.15,1.37.63,2.83,1.48,4.3,1.87,6.35,1.91,12.6-1.72,17.18-5.87,3.26-2.71,6.2-6.28,10.31-7.71,1.69-.49,3.77-.34,5.16.82.37.61,1.28,1.78,1.72,2.34,1.59,1.93,3.69,3.65,6.01,4.61,2.04.79,3.91,2.23,6.01,2.9,4.45,1.62,9.17,2.49,13.75,3.65,2.89.72,5.88,1.46,8.59,2.71,1.49.58,2.81,1.89,4.3,2.45.75,0,1.82,0,2.58,0,3.41,0,6.9,0,10.31,0"/><path class="b" d="M9.65,171.32c4.85,0,9.75,0,14.61,0,1.97-.18,4.04-.5,6.01-.67,5.94-.52,11.95-1.7,17.18-4.68,4.11-2.21,7.75-5.27,12.03-7.16,2.76-1.49,5.48-3.37,8.59-4.04,6.21-1.29,11.38,3.44,16.32,6.43,2.41,1.54,5.04,2.91,7.73,3.87,2.58,1.44,5.66,2.07,8.59,1.66,12.49-1.41,18.9-18.1,26.64-16.44,1.6.28,2.45,2.14,3.44,3.24.96,1.16,2.25,2.44,3.44,3.37.99.77,2.29,1.55,3.44,2.06,1.62,1.11,3.36,2.35,5.16,3.17,4.12,1.95,8.55,3.3,12.89,4.66,3.11.97,6.35,1.79,9.45,2.81,1.44.4,2.87,1.34,4.3,1.72,4.28,0,8.61,0,12.89,0"/><path class="b" d="M9.65,166.65c7.16,0,14.34.14,21.48-.39,7.8-.19,14.94-1.83,21.48-6.21,2.96-2.11,6.23-3.82,9.45-5.5,3.19-1.74,6.53-3.92,10.31-3.81,4.53.21,8.31,3.2,12.03,5.49,2.97,1.9,6.17,3.61,9.45,4.9,4.26,1.38,8.99.42,12.89-1.6,5.16-2.65,8.97-7.25,12.89-11.41,2.26-2.24,5.07-5.36,8.59-4.57,1.29.71,2.37,2.14,3.44,3.13,1.82,1.81,3.87,3.61,6.01,5.02,3.45,3.58,7.5,6.63,12.03,8.71,6.21,3.11,13.09,4.52,19.76,6.24,4.28,0,8.61,0,12.89,0"/><path class="b" d="M9.65,161.99c9.73-.04,19.52.2,29.21-.73,4.82-.57,9.55-2.15,13.75-4.58,1.42-.76,2.84-1.88,4.3-2.56,2.23-1.2,4.71-2.13,6.87-3.44,4.07-2.52,8.79-5.58,13.75-3.83,5.56,1.88,10.08,6.01,15.47,8.28,5.71,2.03,12.21.33,17.18-2.83,4.37-2.81,7.7-6.98,11.17-10.77,6.63-7.4,9.11-4.93,15.47.98,2.01,1.84,3.34,4.57,5.16,6.6,2.21,2.7,4.83,5.23,7.73,7.17,5.04,3.49,11.18,4.76,17.18,5.34,2.23.49,4.61.36,6.87.37,2.84,0,5.76,0,8.59,0"/><path class="b" d="M9.65,157.32c10.59-.06,21.28.28,31.79-1.21,3.53-.6,7.05-1.66,10.31-3.14,2.54-1.18,5.01-2.73,7.73-3.5,7.89-2.69,13.07-11.15,22.34-6.97,3.64,1.5,6.88,3.91,10.31,5.8,2.1,1.05,4.54,1.54,6.87,1.63,7.18.34,13.99-2.4,18.9-7.66,2.92-2.89,5.42-6.37,8.59-9,.68-.54,1.74-1.19,2.58-1.47.96-.62,2.27-1.16,3.44-.98,3.94.83,6.09,4.77,7.73,8.09,5.51,10.27,11.09,18.82,24.06,18.25,6,.17,12.04.17,18.04.15"/><path class="b" d="M9.65,152.66c5.14-.04,10.33.09,15.47-.05,7.47-.79,15.06-1.2,22.34-3.21,2.91-.74,5.8-1.81,8.59-2.89,3.02-.54,6.02-1.52,8.59-3.23,6.2-3.99,11.87-9.37,19.76-6.3,3.75,1.21,6.75,4.01,10.31,5.57,5.64,2.1,12.23,2.99,18.04,1.1,7.3-2.57,11.19-9.92,17.18-14.34,1.76-2.49,4.51-6.19,7.73-3.46,1.77,2.47,2.98,5.7,4.3,8.42,3.39,6.81,6.52,15.97,14.61,18.22.75.25,1.81,0,2.58-.05.75-.05,1.82-.05,2.58-.02,6.86.3,13.76.23,20.62.23"/><path class="b" d="M9.65,147.99c4.85,0,9.75,0,14.61,0,5.99-1.25,12.02-2.6,18.04-3.71,5.65-1.29,11.54-1.39,17.18-2.67,2.75-.8,5.29-2.36,7.73-3.81,4.8-2.87,9.65-6.57,15.47-6.75,2.66-.08,5.38.67,7.73,1.89,1.15.67,2.32,1.75,3.44,2.47,1.32.9,2.89,1.76,4.3,2.52,2.67,1.63,5.52,3.24,8.59,3.97,10.37,2.67,16.31-7.02,23.2-12.78,2.69-2.91,3.69-7.94,7.73-9.4,2.17,1.21,3.14,4.22,4.3,6.3,2.23,4.78,4.19,9.96,6.87,14.52,2.05,3.52,5.15,7.03,9.45,7.43,1.67-.14,3.48-.21,5.16-.21,6.29.22,12.61.26,18.9.22"/><path class="b" d="M9.65,143.33c4.85,0,9.75,0,14.61,0,3.4-.93,6.79-2.25,10.31-2.8,3.94-.73,8.03-.96,12.03-.74,2.27.11,4.62.43,6.87.68,8.2.2,15-4.9,22.34-7.74,3.79-1.46,8.02-2.18,12.03-1.25,1.86.42,3.88,1.07,5.16,2.57,6.34,6.08,15.74,10.1,24.06,5.53,3.29-1.74,6.06-4.44,8.59-7.12,1.65-1.85,3.67-3.64,5.16-5.63,2.49-3.48,3.77-8.01,6.87-11.05l.86-.16c4.18,1.96,7.09,10.78,9.45,14.86,2.62,5.06,5.86,11.13,12.03,12.15,3.08.73,6.31.7,9.45.71,4.28,0,8.61,0,12.89,0"/><path class="b" d="M9.65,138.66c4.85,0,9.75,0,14.61,0,1.45-.32,2.89-1.2,4.3-1.68,1.92-.74,4-1.37,6.01-1.78,3.65-.75,7.49-.84,11.17-.24,3.12.52,6.24,1.73,9.45,1.35,8.6-.29,16.54-4.18,24.92-5.74,3.4-.59,8.91-1.38,12.03.26,3.86,3.98,8.98,7.03,14.61,7.41,7.33.62,14.51-2.65,19.76-7.64,3.26-2.75,5.87-6.33,7.73-10.16,2.62-4.76,4.28-10.13,9.45-3.64,3.47,4.74,5.81,10.38,9.45,15.01,4.12,5.82,11.35,7.06,18.04,6.85,3.7,0,7.47,0,11.17,0"/><path class="b" d="M9.65,134c4.85,0,9.75,0,14.61,0,2.36-.8,4.51-2.41,6.87-3.26,3.23-1.35,6.8-2.12,10.31-1.92,3.24.08,6.3,1.43,9.45,1.98,6.56.94,13.29.31,19.76-.96,4.92-.93,9.73-2.5,14.61-3.63,1.94-.43,4.03-.74,6.01-.62,1.25.65,2.3,2.02,3.44,2.84,2.93,2.37,6.55,3.98,10.31,4.36,5.22.52,10.55-.52,15.47-2.24,5.81-2,10.75-6.13,13.75-11.48,2.78-4.45,4.69-9.71,10.31-4.51,4.14,4.31,6.82,9.96,11.17,14.09,3.6,3.54,8.79,5.11,13.75,5.34,4.28,0,8.61,0,12.89,0"/><path class="b" d="M9.65,129.33c3.41,0,6.9,0,10.31,0,2-.15,4.34.52,6.01-.81,3-1.86,6.07-3.86,9.45-4.97,4.2-1.51,8.76-.94,12.89.52,9.2,2.6,19.25,3.19,28.35-.09,4.91-1.55,9.4-4.77,14.61-5.26,1.5.93,2.82,2.44,4.3,3.41,3.23,2.35,7.19,3.65,11.17,3.82,6.21.15,15.12-.67,20.62-3.6,3.2-1.72,5.59-4.7,7.73-7.55,1.63-2.05,2.98-4.55,6.01-4.2,4.53.74,7.32,5.11,10.31,8.19,2.73,3.05,5.73,6.14,9.45,7.97,2.43,1.12,5.08,2.08,7.73,2.5,4.56.17,9.18.01,13.75.06"/><path class="b" d="M9.65,124.67c3.41,0,6.9,0,10.31,0,1.38,0,2.92,0,4.3,0,.88-.18,1.84-.91,2.58-1.39,3.04-2.02,6.06-4.31,9.45-5.74,4.46-2.01,9.29-1.46,13.75.24,3.38,1.06,6.83,2.22,10.31,2.87,6.45,1.03,13.27-.13,18.9-3.49,4.03-2.15,7.47-5.77,12.03-6.78,1.86.74,3.4,2.41,5.16,3.38,2.61,1.66,5.57,2.9,8.59,3.55,5.66,1.12,16.1,1.83,21.48-.14,3.44-1.29,5.98-4.21,8.59-6.67,2-1.86,3.04-3.16,6.01-2.54,3.72.79,6.65,3.58,9.45,5.98,3.42,3.03,6.99,6.12,11.17,8.06,2.21.95,4.53,2,6.87,2.58,4.55.25,9.19.02,13.75.1"/><path class="b" d="M9.65,120c3.13,0,6.32,0,9.45,0,1.08,0,2.36,0,3.44,0,.79,0,1.84.08,2.58-.27,4.4-2.59,8.23-6.2,12.89-8.36,4.59-2.25,10.04-1.97,14.61.2,2.58.98,5.07,2.44,7.73,3.17,6.69,1.9,14.33.96,19.76-3.59,2.11-1.65,4.1-3.68,6.01-5.54,1.75-1.57,3.61-3.63,6.01-4.08,3.86,1.38,7.36,3.75,11.17,5.26,5.74,2.31,11.85,4.12,18.04,4.56,6.13.4,8.31-2.66,12.89-5.73,1.31-.73,2.75-1.92,4.3-1.94,3.16.55,6,2.35,8.59,4.15,4.92,3.54,9.79,7.39,15.47,9.67,2.27.77,4.48,2.19,6.87,2.5,4.28,0,8.61,0,12.89,0"/><path class="b" d="M9.65,115.33c4.57,0,9.18,0,13.75,0,1.6.19,3-1.01,4.3-1.77,2.01-1.3,4.05-2.8,6.01-4.17,4.44-3.2,9.86-5.8,15.47-4.76,3.23.43,5.96,2.52,8.59,4.29,2.32,1.49,4.97,2.61,7.73,2.87,7.57,1.03,13.99-1.59,18.9-7.37,2.59-2.79,4.77-6.19,7.73-8.61,4.09-2.37,9.83.83,13.75,2.45,3.09,1.41,6.25,2.89,9.45,4.02,4.06,1.39,8.84,2.66,12.89.58,2.45-1.56,4.91-3.36,7.73-4.19.75-.23,1.8-.56,2.58-.25,1.47.66,2.99,1.63,4.3,2.57,2.86,2.07,5.67,4.38,8.59,6.38,3.67,2.56,7.78,4.56,12.03,5.94,1.71.52,3.42,1.47,5.16,1.9,4.55.28,9.19.02,13.75.11"/><path class="b" d="M9.65,110.67c3.13,0,6.32,0,9.45,0,1.96-.08,4.08.2,6.01-.17,5.87-2.2,10.59-6.64,16.32-9.12,4.55-1.89,10.32-2.67,14.61.24,4.9,3.56,11.23,4.71,17.18,4.41,4.83-.21,9.35-2.47,12.89-5.69,2.53-2.13,4.77-4.87,7.73-6.42,7.8-3.23,16.3-.28,24.06,1.62,3.33.78,6.96,1.58,10.31.48,2.46-1.09,5.04-2.19,7.73-2.54.41-.06,1.3-.16,1.72-.19.85.17,1.84.8,2.58,1.24,4.61,2.84,8.96,6.22,13.75,8.77,3.32,1.82,6.88,3.31,10.31,4.9,1.41.67,2.86,1.68,4.3,2.29,1.63.38,3.49.11,5.16.19,2.84,0,5.76,0,8.59,0"/><path class="b" d="M9.65,106c3.13,0,6.32,0,9.45,0,1.96-.07,4.07.17,6.01-.14,8.41-2.68,15.27-9.13,24.06-10.77,2.53-.41,5.46-1,7.73.52,5.76,2.96,12.42,4.56,18.9,3.9,3.32-.36,6.56-1.59,9.45-3.25,2.82-1.55,5.48-3.65,8.59-4.59,6.79-1.44,13.67-2.99,20.62-3.38,4-.25,8.04.34,12.03.3,1.71,0,3.48-.56,5.16-.82,1.37-.19,2.92-.23,4.3-.14.8.04,1.89.09,2.58.58,3.61,2.63,7.26,5.35,11.17,7.52,4.15,2.35,8.64,4.15,12.89,6.32,1.41.73,2.98,1.58,4.3,2.47.69.51,1.7,1.3,2.58,1.47,4.28,0,8.61,0,12.89,0"/><path class="b" d="M9.65,101.34c4.85,0,9.75,0,14.61,0,6.66-1.61,12.56-5.52,18.9-8.01,3.24-1.28,10.42-3.82,13.75-2.72,11.19,3.5,19.07,3.79,30.07-.51,1.64-.55,3.43-1.09,5.16-1.27,1.67-.14,3.48.11,5.16.08,2.89-.06,5.83-.66,8.59-1.52,5.29-1.58,10.1-4.61,15.47-5.97,2.5-.62,5.18-.64,7.73-.51,1.98-.22,4.09-.14,6.01.39,1.57.34,3.25.91,4.3,2.2,1.61,1.52,3.4,3.1,5.16,4.45,4.15,3.24,8.97,5.57,13.75,7.73,2.27,1.04,4.66,2.12,6.87,3.29,1.43.64,2.79,1.89,4.3,2.36,4.28,0,8.61,0,12.89,0"/><path class="b" d="M9.65,96.67c4.85,0,9.75,0,14.61,0,5.9-1.57,11.41-4.55,17.18-6.55,4.69-1.75,9.63-2.86,14.61-3.38,2.26.1,4.61.2,6.87.25,7.21.26,14.38-.86,21.48-1.95,2.53-.32,5.23-.46,7.73.14,5.97,2.43,12.28,2.23,18.04-.72,2.77-1.4,5.32-3.37,7.73-5.31,2.98-2.33,6.27-5.26,10.31-5.03,1.07.22,2.36.02,3.44.07,1.78.16,3.58.91,5.16,1.72,1.42.58,2.42,2.19,3.44,3.27,1.56,1.78,3.36,3.61,5.16,5.16,4.53,3.89,9.98,6.64,15.47,8.93,2.54,1.07,5.26,1.97,7.73,3.2,1.62.44,3.49.13,5.16.22,2.84,0,5.76,0,8.59,0"/><path class="b" d="M9.65,92.01c4.85,0,9.75,0,14.61,0,3.79-1.07,7.43-2.91,11.17-4.18,5.52-2.05,11.29-3.65,17.18-4.09,5.82-.57,11.47-2.52,17.18-3.71,6.46-1.38,13.43-2,19.76.25,1.84.54,3.46,1.82,5.16,2.65,1.86.84,3.99,1.29,6.01,1.45,7.14.66,13.3-2.21,18.04-7.46,2.69-2.63,4.99-6.16,8.59-7.59.74-.23,1.81-.22,2.58-.2.73-.26,1.8-.43,2.58-.36,1.85.19,3.63,1.19,5.16,2.21.87.88,1.83,2.27,2.58,3.25,7.49,10.29,16.88,15.37,29.21,17.77,4.28,0,8.61,0,12.89,0"/><path class="b" d="M9.65,87.34c4.85,0,9.75,0,14.61,0,3.2-1,6.26-2.72,9.45-3.8,5.23-1.98,10.73-3.46,16.32-3.84,1.38-.1,2.92-.12,4.3-.14,2.36-.6,4.67-1.71,6.87-2.72,4.44-2.1,8.79-4.85,13.75-5.52,6.11-.76,12.4,1.76,17.18,5.44,2.57,2.29,6.09,3.19,9.45,3.46,3.11.39,6.35.63,9.45.04,5.71-.87,9.5-5.6,12.89-9.85,1.58-1.83,3.44-3.97,6.01-4.21.99-.6,2.24-1.29,3.44-1.32,1.91.02,3.99.94,5.16,2.46,8.08,11.86,15.21,18.58,30.07,19.92,4.56.19,9.18.02,13.75.07"/><path class="b" d="M9.65,82.68c3.13,0,6.32,0,9.45,0,1.96-.11,4.11.26,6.01-.22,3.93-1.89,7.93-3.8,12.03-5.3,3.89-1.41,7.95-2.51,12.03-3.21,1.95-.44,4.1-.32,6.01-.86,3.59-1.27,7.05-3.03,10.31-4.98,3.75-2.17,7.62-4.66,12.03-5.11,4.84-.53,9.33,2.14,12.89,5.17,1.78,1.48,3.22,3.59,5.16,4.9,4.17,3.09,9.57,3.64,14.61,3.82,5.94.3,9.86-1.27,13.75-5.81,1.55-1.64,3.08-3.7,5.16-4.71,1.01-.34,1.85-1.53,2.58-2.25,1.3-1.34,3.29-2.3,5.16-1.59,1.54.42,2.48,2.21,3.44,3.36,1.88,2.51,3.86,5.2,6.01,7.49,4.09,4.35,9.51,7.82,15.47,8.81,6.83.75,13.76.4,20.62.48"/><path class="b" d="M9.65,78.01c4.85,0,9.75,0,14.61,0,5.07-1.28,9.84-3.75,14.61-5.87,3.89-1.79,7.87-3.6,12.03-4.66,3.1-.83,6.4-1,9.45-1.98,4.59-1.48,8.49-4.56,12.89-6.46,9.65-4.22,15.51,4.12,22.34,9.19,2.57,1.61,5.63,2.42,8.59,2.96,2.53.45,5.17.82,7.73,1.1,3.52.44,7.34.24,10.31-1.9,2.3-1.45,4.21-3.84,6.87-4.62,2.12-1.9,3.7-5.1,6.87-5.38,1.9-.3,3.21,1.41,4.3,2.69,1.68,1.99,3.41,4.23,5.16,6.16,3.75,4.3,8.83,7.69,14.61,8.31,7.41.63,14.9.43,22.34.46"/><path class="b" d="M9.65,73.35c4.85,0,9.75,0,14.61,0,6.25-1.2,12.19-3.78,18.04-6.22,4.21-1.82,8.54-3.49,12.89-4.92,1.93-.44,4.07-.42,6.01-.82,4.51-.81,8.25-3.75,12.03-6.15,8.55-5.77,13.29-1.49,19.76,4.51,2.27,1.89,4.98,3.37,7.73,4.4,5.3,1.8,13.48,4.5,18.9,2.9,2.12-.63,4.1-1.9,6.01-2.96,1.03-.66,2.52-.83,3.44-1.65,1.77-2.36,3.81-5.24,6.87-5.88,2.32-.55,3.79,1.84,5.16,3.3,1.93,2.29,3.87,4.8,6.01,6.9,4.6,4.72,9.96,5.86,16.33,6.07,6.26.8,12.61.47,18.9.53"/><path class="b" d="M9.65,68.68c4.85,0,9.75,0,14.61,0,7.09-1.33,13.93-3.95,20.62-6.61,2.55-1.02,5.18-2.07,7.73-3.08,1.36-.49,2.81-1.36,4.3-1.34,9.97-.34,11.05-1.24,18.9-7.2,6.54-5.07,10.62-4.34,16.32,1.35,3.28,2.32,6.71,4.6,10.31,6.41,6.01,3.08,13.21,5.5,19.76,2.66,1.08-.41,2.36-.95,3.44-1.35.8-.28,1.93-.55,2.58-1.14,2.46-2.65,4.77-6.26,8.59-6.95.91-.24,1.94.42,2.58,1.03,1.17,1.03,2.42,2.42,3.44,3.6,1.88,2.2,3.84,4.58,6.01,6.5,1.73,1.53,3.83,2.85,6.01,3.59,2.2.72,4.6,1.11,6.87,1.52,2.25.37,4.61.74,6.87.97,4.56.11,9.18,0,13.75.04"/><path class="b" d="M9.65,64.02c4.85,0,9.75,0,14.61,0,7.06-1.65,13.86-4.42,20.62-7.03,2.54-.99,5.18-1.93,7.73-2.88,1.68-.68,3.3-1.43,5.16-1.19,2.26,0,4.61.27,6.87.2,6.27-.31,10.79-5.21,15.47-8.81,3.6-2.85,7.45-3.84,11.17-.55,1.63,1.04,3.59,1.82,5.16,2.97,3.4,2.29,6.67,4.94,10.31,6.85,6.81,3.76,13.71,2.77,20.62-.13,2.39-1.88,4.25-4.58,6.87-6.2,1.24-.7,2.82-1.84,4.3-1.35,5.12,2.92,8.21,8.38,12.89,11.87,4.92,3.74,11.22,5.1,17.18,6.17,4.56.18,9.18.02,13.75.07"/><path class="b" d="M9.65,59.35c4.85,0,9.75,0,14.61,0,6.1-2.01,11.97-4.86,18.04-6.99,2.51-.92,5.16-1.72,7.73-2.47.77-.22,1.81-.54,2.58-.79,1.08.03,2.36-.01,3.44.04,3.15.1,6.3.92,9.45.98,8.09.23,12.13-5.76,18.04-10.06,2.16-1.62,5.07-3.01,7.73-1.8,1.06.3,2.39.27,3.44.65,2.52.85,4.76,2.56,6.87,4.13,4.73,3.56,10.16,7.32,16.33,7.13,3.48-.14,7.21-.61,10.31-2.27,3.69-3,7.93-6.1,12.89-6.13,5.62,3.61,9.65,9.35,15.47,12.71,3.96,2.3,8.39,4.02,12.89,4.86,4.28,0,8.61,0,12.89,0"/><path class="b" d="M9.65,54.69c4.85,0,9.75,0,14.61,0,1.79-.54,3.45-1.81,5.16-2.58,3.05-1.57,6.23-3.07,9.45-4.24,3.31-1.2,6.84-1.83,10.31-2.35,1.66.31,3.46.61,5.16.52,3.79-.15,7.42,1.38,11.17,1.59,5.43.55,10.53-2.12,14.61-5.48,2.59-2.05,4.93-4.59,7.73-6.37,1.76-1.24,4.02-1.5,6.01-2.16,2.71-.65,5.47.51,7.73,1.93,2.87,1.85,5.54,4.19,8.59,5.76,4.94,2.71,9.95,3.34,15.47,2.36,1.43-.27,3.07-.6,4.3-1.43,1.57-.89,3.4-1.63,5.16-2.08,3.05-.73,6.33-1.07,9.45-.7,1.41,1,2.95,2.18,4.3,3.27,3.58,2.88,7.16,5.93,11.17,8.21,2.96,1.58,6.19,2.98,9.45,3.76,4.28,0,8.61,0,12.89,0"/><path class="b" d="M9.65,50.02c3.13,0,6.32,0,9.45,0,1.08,0,2.35,0,3.44,0,.8,0,1.84.08,2.58-.3,3.26-2.08,6.67-4.12,10.31-5.48,2.46-.92,5.12-1.53,7.73-1.76.77-.07,1.8-.12,2.58-.14.78.21,1.8.56,2.58.78,1.36.39,2.89.75,4.3.89,1.69.08,3.52.05,5.16.54,6.23,2.17,12.92,2.37,18.9-.68,3.86-1.86,7.16-4.77,10.31-7.62,3.19-2.83,6.83-5.84,11.17-6.51,3.41-.35,6.57,1.48,9.45,3.05,6.69,3.76,13.54,7.43,21.48,6.11,2.28-.55,4.5-1.72,6.87-1.91,2.86-.35,5.83.15,8.59.89,1.07.26,2.38.42,3.44.73.4.31,1.31.91,1.72,1.21,6.1,4.19,12.39,8.67,19.76,10.19,4.28,0,8.61,0,12.89,0"/><path class="b" d="M9.65,45.36c3.13,0,6.32,0,9.45,0,1.08,0,2.35,0,3.44,0,.8,0,1.84.08,2.58-.28,2.78-1.71,5.6-3.56,8.59-4.88,2.42-1.08,5.09-1.8,7.73-1.95,1.16-.19,2.37.53,3.44.87,3,1.08,6.22,2.06,9.45,1.82,6.18,2.71,13.14,3.47,19.76,2.07,4.92-.96,9.66-3,13.75-5.89,7.84-6.03,12.32-9.84,22.34-5.12,3.41,1.49,6.78,3.31,10.31,4.52,3.33.83,6.95,1.37,10.31.43,2.84-.86,5.63-2.22,8.59-2.67,2.81-.5,5.77-.47,8.59-.14,1.08.15,2.4.26,3.44.63.4.34,1.31,1,1.72,1.34,4.97,3.74,10.25,7.63,16.32,9.27,4.28,0,8.61,0,12.89,0"/><path class="b" d="M9.65,40.69c4.85,0,9.75,0,14.61,0,1.85-.58,3.48-2.04,5.16-2.99,2.89-1.83,6.03-3.59,9.45-4.15,2.6.65,5.13,1.87,7.73,2.51,1.64.49,3.47.61,5.16.87,1.43.33,2.9,1.08,4.3,1.51,3.87,1.2,8,1.61,12.03,1.61,4.32-.02,8.67-.63,12.89-1.54,4.47-.92,8.89-2.35,12.89-4.57,9.73-4.73,16.46-.97,25.78,2.01,11.38,3.12,14.03-1.43,24.06-3.08,2.53-.38,5.19-.45,7.73-.28,1.42.14,3.15.05,4.3,1.05,4.29,2.77,8.72,5.85,13.75,7.03,4.28,0,8.61,0,12.89,0"/><path class="b" d="M9.65,36.03c4.57,0,9.18,0,13.75,0,1.27.19,2.43-.69,3.44-1.32,1.69-1.07,3.46-2.3,5.16-3.35,3.2-1.85,3.22-2.35,6.87-1.29,1.98.51,4.03,1.15,6.01,1.64,1.66.42,3.51.62,5.16,1.12,3.63,1.16,7.34,2.29,11.17,2.56,9.81,1.1,19.54-1.24,29.21-2.56,3.97-.72,7.96-1.85,12.03-1.58,7.02.17,13.68,2.86,20.62,3.55,3.12.34,6.37.33,9.45-.35,4.57-1.04,9.06-2.72,13.75-3.21,3.96-.4,8.12-.53,12.03.29,3.26,1.78,6.69,3.49,10.31,4.38,4.55.29,9.19.03,13.75.11"/><path class="b" d="M9.65,31.36c3.13,0,6.32,0,9.45,0,1.96-.12,4.12.29,6.01-.25,1.73-.97,3.51-2.14,5.16-3.25.77-.47,1.64-1.28,2.58-1.37,4.92-.09,9.78,1.03,14.61,1.83,2.84.6,5.72,1.44,8.59,1.86,5.68.79,11.49.77,17.18.12,6.56-.82,13.15-1.68,19.76-1.8,9.84-1.14,19.45,1.98,29.21,2.55,3.7.26,7.5.23,11.17-.33,4.57-.7,9.13-1.81,13.75-2.14,4.27-.36,8.63-.21,12.89.29,1.14.04,2.4.58,3.44,1,1.62.61,3.44,1.13,5.16,1.41,4.56.2,9.18.02,13.75.08"/><path class="b" d="M9.65,26.7c3.13,0,6.32,0,9.45,0,1.96-.12,4.11.28,6.01-.24,1.11-.58,2.38-1.32,3.44-1.98.76-.3,1.78-.3,2.58-.34,4.86-.26,9.77-.1,14.61.37,3.71.33,7.45.99,11.17,1.2,4.85.27,9.76.23,14.61-.06,6.56-.55,13.17-1.22,19.76-1.1,2.84.09,5.76-.14,8.59.06,6.86.62,13.72,1.72,20.62,1.86,10.63.64,21.17-1.58,31.79-1.36,4,.05,8.05.35,12.03.75,1.37.24,2.9.66,4.3.77,4.56.13,9.18.01,13.75.05"/><path class="b" d="M9.65,22.03c3.42,0,6.9,0,10.31,0,1.99-.04,4.1.22,6.01-.44,5.71-.05,11.47-.12,17.18-.07,9.73.16,19.48.31,29.21.18,6.57-.25,13.18-.73,19.76-.59,6.01-.15,12.04.34,18.04.63,5.71.27,11.47.19,17.18.18,8.58-.03,17.19-.32,25.78-.23,9.73.12,19.48.44,29.21.34"/><path class="b" d="M9.65,17.37h172.7"/><path class="b" d="M9.65,12.7h172.7"/><path class="b" d="M9.65,8.04h172.7"/></svg>