<?xml version="1.0" encoding="UTF-8"?><svg id="a" xmlns="http://www.w3.org/2000/svg" width="1920" height="2400" viewBox="0 0 192 240"><defs><style>.b{fill:none;stroke:#fff;stroke-miterlimit:10;stroke-width:.3px;}.c{stroke-width:0px;}</style></defs><rect class="c" x="0" width="192" height="240"/><path class="b" d="M9.65,231.96h172.7"/><path class="b" d="M9.65,227.3h172.7"/><path class="b" d="M9.65,222.63c22.05,0,44.11,0,66.16,0,5.44.11,10.88-.67,16.32-.45,6.87-.08,13.75.6,20.62.45,23.2,0,46.4,0,69.6,0"/><path class="b" d="M9.65,217.97c4.85,0,9.75,0,14.61,0,.46-.07,1.28-.27,1.72-.41.46.01,1.27.04,1.72.05,12.31.3,24.64.44,36.95.02,4.34.05,8.63-.9,12.89-1.61,3.95-.66,8.03-.99,12.03-.73,5.41.57,10.91.05,16.32.6,4.01.29,8.04.98,12.03,1.39,3.7.04,7.47.08,11.17.16,8.01.05,16.04-.7,24.06-.47,3.13.08,6.32.34,9.45.47,2.28.13,4.67-.08,6.87.54,4.28,0,8.61,0,12.89,0"/><path class="b" d="M9.65,213.3c4.85,0,9.75,0,14.61,0,1.7-.38,3.4-1.29,5.16-1.49,1.08.12,2.35.26,3.44.36,11.42,1.13,22.97.77,34.37-.37,4.89-.75,9.67-2.38,14.61-2.91,2.54-.3,5.19-.33,7.73-.06,3.11.47,6.31.81,9.45.55,6.31-.29,12.69.13,18.9,1.28,3.42.16,6.9.34,10.31.67,7.2.87,14.32-1.21,21.48-1.61,3.73-.24,7.53.15,11.17.98,1.05.25,2.36.45,3.44.56,1.65.69,3.38,1.71,5.16,2.04,4.28,0,8.61,0,12.89,0"/><path class="b" d="M9.65,208.64c4.85,0,9.75,0,14.61,0,2.81-.85,5.6-2.26,8.59-2.36,1.08.18,2.35.38,3.44.53,9.39,1.3,18.95,1.52,28.35.22,6.37-.72,12.48-3.15,18.9-3.51,4.03-.41,8.03.65,12.03.88,6.58.04,13.21-.4,19.76.41,2.82.44,5.75.44,8.59.71,2.84.21,5.73.84,8.59.84,4.97.06,9.85-1.25,14.61-2.57,4.47-1.32,9.33-1.49,13.75.14,1.07.83,2.27,1.95,3.44,2.65,1.6.82,3.4,1.69,5.16,2.07,4.28,0,8.61,0,12.89,0"/><path class="b" d="M9.65,203.97c4.85,0,9.75,0,14.61,0,2.05-.65,3.94-2.04,6.01-2.66,2.46-.8,5.24-1.52,7.73-.52,8.64,2.67,17.8,2.15,26.64.84,6.62-.8,13.06-3.02,19.76-3.18,3.15-.18,6.33.39,9.45.75,3.12.26,6.33.02,9.45.04,4.57-.03,9.2,0,13.75.53,2.54.22,5.2.21,7.73.54,1.97.19,4.04.6,6.01.8,2.83.21,5.78.12,8.59-.31,6.17-.85,11.77-4.33,18.04-4.6,3.07,1.67,5.59,4.38,8.59,6.19,1.03.59,2.27,1.33,3.44,1.58,1.38,0,2.92,0,4.3,0,2.84,0,5.75,0,8.59,0"/><path class="b" d="M9.65,199.31c4.57,0,9.18,0,13.75,0,1.25.18,2.42-.63,3.44-1.23,1.37-.82,2.88-1.75,4.3-2.5,2.59-1.34,5.64-2.47,8.59-2.02,1.37.58,2.89,1.2,4.3,1.69,4.1,1.52,8.57,1.67,12.89,1.34,4-.31,8.04-.86,12.03-1.28,4.82-.9,9.7-1.86,14.61-2.09,3.74-.31,7.46.51,11.17.75,5.43.03,10.9-.08,16.32.11,4.85.36,9.77.51,14.61,1.01,8.09,1.17,14.41,1.84,22.34-.99,1.97-.65,4.04-1.42,6.01-2.07,3.44.21,6.56,2.26,9.45,3.98,1.94,1.1,3.85,2.7,6.01,3.3,4.28,0,8.61,0,12.89,0"/><path class="b" d="M9.65,194.64c3.13,0,6.32,0,9.45,0,1.96-.1,4.1.24,6.01-.21,5.66-2.5,9.92-8.19,16.32-8.88,1.58-.3,2.96.88,4.3,1.51,1.59.86,3.39,1.62,5.16,2.05,3.63.93,7.47.72,11.17.5,3.12-.25,6.35-.3,9.45-.74,4.82-.75,9.72-1.51,14.61-1.35,2.28,0,4.61.57,6.87.75,3.7.04,7.47.12,11.17.18,5.44.02,10.89.72,16.32.84,3.13.17,6.33.33,9.45.57,1.96.38,4.02.9,6.01,1.04,4.92.46,9.91-.42,14.61-1.86,3.17-.25,6.46.39,9.45,1.4,2.96,1.03,5.79,2.6,8.59,3.98,1.62.44,3.49.13,5.16.22,2.84,0,5.76,0,8.59,0"/><path class="b" d="M9.65,189.98c3.13,0,6.32,0,9.45,0,1.96-.09,4.09.21,6.01-.18,6.05-2.29,10.22-7.55,15.47-11.08,1.52-.97,3.34-1.77,5.16-1.93.9.08,1.84.81,2.58,1.27,3.08,2.04,6.6,3.55,10.31,3.88,4.26.47,8.61.4,12.89.33,3.99-.3,8.01-1.11,12.03-1.03,2.88-.1,5.75.66,8.59.86,5.14.21,10.33.45,15.47.87,3.98.42,8.02.82,12.03.83,3.13.08,6.35.07,9.45-.37,1.13.09,2.34.73,3.44.98,1.92.53,4.02.85,6.01.96,3.15.25,6.34-.33,9.45-.65,2.55.14,5.21.3,7.73.72,2.92.48,5.85,1.36,8.59,2.48,1.69.61,3.4,1.66,5.16,2.05,4.28,0,8.61,0,12.89,0"/><path class="b" d="M9.65,185.31c4.85,0,9.75,0,14.61,0,8.05-2.03,13.55-8.76,19.76-13.78,1.27-.96,2.78-1.9,4.3-2.38.85-.38,1.86-.1,2.58.44,2.4,1.55,4.95,3.08,7.73,3.83,3.6,1.06,7.43,1.43,11.17,1.48,1.67.02,3.48-.02,5.16-.06,2.54-.33,5.17-.75,7.73-.73,2.28-.01,4.65.35,6.87.84,1.96.28,4.05.36,6.01.61,8.58.88,17.1,2.97,25.78,2.47,1.69-.09,3.52-.34,5.16-.78,1.1-.21,2.29-1.05,3.44-.85,2.67,1.23,5.66,1.89,8.59,2.05,1.97.18,4.05-.13,6.01-.08,3.13.53,6.35.94,9.45,1.62,3.51.76,7,1.92,10.31,3.3,1.96.65,3.89,2.13,6.01,2.04,3.99,0,8.04,0,12.03,0"/><path class="b" d="M9.65,180.65c3.13,0,6.32,0,9.45,0,1.96-.07,4.07.18,6.01-.15,4.83-1.54,9.54-3.68,13.75-6.52,3.81-2.45,7.13-5.76,11.17-7.86,3.09-1.55,3.24-.8,6.01.56,3.73,1.73,7.93,2.51,12.03,2.17,3.77-.28,7.45-1.47,11.17-2.1,2.48-.7,5.17-1.06,7.73-.62,3.39.77,6.94,1.04,10.31,1.92,3.14.75,6.31,1.67,9.45,2.43,2.25.36,4.61.69,6.87.88,3.72.33,7.62.23,11.17-1.05,1.11-.4,2.39-1.02,3.44-1.57.97-.69,2.3-1.27,3.44-.59,2.97,1.36,6.29,1.79,9.45,2.42,5.8,2.58,12.11,3.8,18.04,6.01,3.18,1.14,6.35,2.55,9.45,3.9,1.63.39,3.49.11,5.16.19,2.84,0,5.76,0,8.59,0"/><path class="b" d="M9.65,175.98c4.85,0,9.75,0,14.61,0,5.3-1.15,10.59-2.85,15.47-5.24,3.28-1.64,6.39-3.75,9.45-5.76,1.35-.87,2.86-1.82,4.3-2.55.74-.38,1.73-.8,2.58-.71,2.5.63,5.16.93,7.73.92,6.07-.03,12.04-1.48,18.04-2.15,2.54-.31,5.18-.47,7.73-.41,1.97-.16,4.03-.63,6.01-.43,3.49.3,6.93,1.38,10.31,2.24,3.4.89,6.9,1.67,10.31,2.52,3.63.81,7.42,1.98,11.17,1.4,1.11-.18,2.32-.84,3.44-.97,1.46-.16,2.96.54,4.3,1.02.74.25,1.81.53,2.58.69,1.09.39,2.34,1,3.44,1.36,3.04,1.05,6.3,1.62,9.45,2.23,3.77.7,7.57,1.62,11.17,2.93,2.59.83,5.1,2.25,7.73,2.92,4.28,0,8.61,0,12.89,0"/><path class="b" d="M9.65,171.32c4.85,0,9.75,0,14.61,0,6.02-1.31,12.16-2.41,18.04-4.28,2.95-.97,5.88-2.28,8.59-3.79,1.71-.88,3.39-2.15,5.16-2.93,6.6-1.31,13.05-3.56,19.76-4.24,4.88-.56,9.77.44,14.61.77,2.84-.46,5.69-1.37,8.59-1.38,5.37-.13,10.56,1.77,15.47,3.77,3.63,1.45,7.28,3.23,11.17,3.84,2.86.48,5.75-.87,8.59,0,1.06.25,2.35.46,3.44.56,1.67.4,3.46.93,5.16,1.2,3.4.59,6.91.91,10.31,1.52,3.19.56,6.4,1.42,9.45,2.49,2.29.71,4.54,1.92,6.87,2.45,4.28,0,8.61,0,12.89,0"/><path class="b" d="M9.65,166.65c4.85,0,9.75,0,14.61,0,3.12-.59,6.28-1.35,9.45-1.65,6.93-.82,14.22-.96,20.62-4.05,10.59-4.54,16.56-12.65,29.21-8.9,9.15,2.76,5.21,2.34,14.61.94,9.87-1.45,17.57,3.66,26.64,6.1,2.22.61,4.6.49,6.87.43,1.67.02,3.48.22,5.16.18,1.69-.09,3.48.42,5.16.57,2.84.36,5.77.65,8.59,1.11,4.07.64,8.12,1.67,12.03,2.96,2.29.66,4.56,1.79,6.87,2.31,4.28,0,8.61,0,12.89,0"/><path class="b" d="M9.65,161.99c4.85,0,9.75,0,14.61,0,3.65-.86,7.39-1.63,11.17-1.61,8.34-.28,18.12,1.8,24.92-4.31,7.13-6.48,13.09-12.52,23.2-7.69,2.34.94,4.55,2.41,6.87,3.35,1.35.33,2.92.13,4.3.07,6.58-.61,13.24-.55,19.76.57,5.44.76,10.83,2.27,16.32,2.62,2.26,0,4.62-.29,6.87-.52,4.6.38,9.23,1.22,13.75,2.21,6.12,1.33,12.07,3.5,18.04,5.3,4.28,0,8.61,0,12.89,0"/><path class="b" d="M9.65,157.32c4.85,0,9.75,0,14.61,0,2.8-.73,5.65-1.7,8.59-1.74,4.89-.23,9.75.81,14.61,1.17,2.82.12,5.95.44,8.59-.76,2.02-.95,3.66-2.74,5.16-4.34,1.89-1.97,3.9-4.06,6.01-5.79,6.24-5.35,11.69-3.96,18.04.25,1.72,1.05,3.38,2.49,5.16,3.44,2.69,1.02,5.75.92,8.59,1.1,4,.11,8.07,0,12.03-.55,3.72-.48,7.43-1.5,11.17-1.82,1.68-.13,3.51-.05,5.16.28,1.08.2,2.32.73,3.44.64,2.24-.44,4.6-.82,6.87-1.08,2.3.19,4.64.93,6.87,1.47,8.38,2.3,16.6,5.28,24.92,7.74,4.28,0,8.61,0,12.89,0"/><path class="b" d="M9.65,152.66c3.13,0,6.32,0,9.45,0,1.96-.1,4.1.25,6.01-.21,6.69-3.36,12.8-2.05,19.76-.71,2.24.39,4.6.7,6.87.72,2.08.09,3.65-.23,5.16-1.74,4.87-4.6,10.69-13.22,18.04-12.83,4.29.41,7.91,3.25,11.17,5.85,1.39,1.12,2.82,2.52,4.3,3.52,1.25.81,2.87,1.26,4.3,1.66,5.02,1.29,10.53,1.67,15.47-.16,2.75-1,5.32-2.65,7.73-4.28,2.56-1.66,5.38-3.73,8.59-3.46,1.14.07,2.33.79,3.44.98.41-.13,1.3-.38,1.72-.49,2.2-.45,4.63-1.13,6.87-.74,4.36,1.56,8.61,3.58,12.89,5.35,5.9,2.41,11.95,4.7,18.04,6.55,4.28,0,8.61,0,12.89,0"/><path class="b" d="M9.65,147.99c3.7,0,7.47,0,11.17,0,1.08,0,2.35,0,3.44,0,1.48-.4,2.87-1.46,4.3-2.01,6.02-2.97,12.65-.78,18.9.02,2.23.19,4.69.51,6.87-.11.73-.75,1.76-1.71,2.58-2.38,2.63-2.25,5.14-4.79,7.73-7.09,3.19-3.07,7.7-5.03,12.03-3.2,4.39,1.8,7.86,5.32,11.17,8.62,1.9,2.1,4.22,3.95,6.87,4.99,1.07.34,2.28,1.24,3.44.95,2.17-.77,4.61-.93,6.87-.56,3.16.64,2.96,1.14,6.01-.58,5.72-3.09,8.82-9.22,13.75-13.22.94-.67,2.26-1.21,3.44-1.02.39.17,1.29.32,1.72.33.73-.31,1.8-.65,2.58-.84,5.72-1.22,5.63-.52,10.31,2.47,3.08,2.07,6.35,3.98,9.45,6.01,5.24,3.46,11.1,6.1,17.18,7.62,4.28,0,8.61,0,12.89,0"/><path class="b" d="M9.65,143.33c4.57,0,9.18,0,13.75,0,1.23.18,2.42-.64,3.44-1.2,1.06-.58,2.33-1.23,3.44-1.7,6.05-2.84,12.81-1.08,18.9.68,1.36.33,2.87,1,4.3.83,2.15-1.06,4.11-2.75,6.01-4.18,3.77-2.89,7.29-6.68,12.03-7.89,8.63-1.58,14.3,8.29,19.76,13.34,1.92-.97,3.82-2.34,6.01-2.65,4.68-.77,9.53.68,13.75,2.65,1.97-.36,3.63-2.04,5.16-3.26,3.78-3.27,6.27-7.98,10.31-10.96.42-.25,1.24-.62,1.72-.71.8-.06,1.86.05,2.58-.38,2.08-1.17,4.48-1.99,6.87-2.08,2.55.93,4.69,2.99,6.87,4.56,4.07,3.2,8.25,6.44,12.89,8.79,3.78,1.88,7.9,3.31,12.03,4.19,4.28,0,8.61,0,12.89,0"/><path class="b" d="M9.65,138.66c4.57,0,9.18,0,13.75,0,1.21.17,2.41-.59,3.44-1.12,1.06-.55,2.33-1.16,3.44-1.61,6.13-2.76,12.87-.78,18.9,1.25,1.33.44,2.92.72,4.3.33,2.09-.94,4.11-2.31,6.01-3.58,3.62-2.44,6.99-5.57,11.17-7.04,8.61-2.62,14.22,6.67,19.76,11.6,1.43-.56,2.77-1.71,4.3-2.08,4.27-1.21,8.75.21,12.89,1.34.78.23,1.82.56,2.58.83,2.14-.39,4.19-1.64,6.01-2.78,4.25-2.73,7.02-7.31,11.17-10.13.99-.63,2.39-.71,3.44-1.19,1.55-1.01,3.35-1.94,5.16-2.38,1.19-.36,2.4-.36,3.44.41,1.44.84,2.96,1.93,4.3,2.94,3.08,2.34,6.17,4.83,9.45,6.9,4.93,3.17,10.59,5.21,16.32,6.32,4.28,0,8.61,0,12.89,0"/><path class="b" d="M9.65,134c3.13,0,6.32,0,9.45,0,1.96-.11,4.1.25,6.01-.22,8.52-4.49,13.39-4.36,22.34-1.26,4.29,1.52,6.57.53,10.31-1.57,6.6-3.27,13.53-11.86,21.48-8.43,3.71,1.64,6.6,4.72,9.45,7.51,1.68,1.66,3.67,3.32,6.01,3.92.77-.07,1.81-.24,2.58-.28,1.38-.05,2.93.1,4.3.31,1.39-.16,2.92-.5,4.3-.75,4.73-.93,9.7-1.77,13.75-4.57,2.98-1.91,5.43-4.74,8.59-6.37,1.13-.42,2.5-.85,3.44-1.65,1.52-1.06,3.34-2.01,5.16-2.45,1.16-.45,2.45.31,3.44.86,1.11.64,2.39,1.5,3.44,2.25,2.54,1.84,5.11,3.84,7.73,5.57,5.38,3.68,11.66,5.96,18.04,7.13,4.28,0,8.61,0,12.89,0"/><path class="b" d="M9.65,129.33c3.42,0,6.9,0,10.31,0,1.97-.12,4.21.4,6.01-.58,8.81-4.24,13.5-2.98,22.34-.28,3.98,1.07,7.74-.67,11.17-2.55,3.32-1.85,6.37-4.27,9.45-6.47,3.65-2.65,8.29-5.32,12.89-3.59,5.63,1.82,8.64,8.2,14.61,9.24,3.38.61,6.9.2,10.31.12,3.42-.14,6.96-.1,10.31-.93,3.44-.81,6.46-2.86,9.45-4.63,1.29-.84,3.03-1.16,4.3-2.03,1.99-1.6,4.34-3.03,6.87-3.54,2.89.51,5.33,2.65,7.73,4.22,5.25,3.86,10.84,7.53,17.18,9.31,2.24.6,4.58,1.34,6.87,1.72,4.28,0,8.61,0,12.89,0"/><path class="b" d="M9.65,124.67c4.85,0,9.75,0,14.61,0,1.74-.38,3.44-1.38,5.16-1.88,2.18-.74,4.56-1.2,6.87-1.18,2.6.01,5.24.56,7.73,1.28,3.02.97,6.27,1.87,9.45,1.25,9.7-2.04,15.93-10.46,24.06-15.36,4.07-2.4,8.37-1.91,12.03.99,2.09,1.73,4.26,3.61,6.87,4.5,3.58,1.3,7.45,1.81,11.17,2.54,3.94.71,8.05,1.43,12.03.66,3.57-.7,6.84-2.55,10.31-3.58,2.27-1.81,4.83-3.59,7.73-4.13,2.54.4,4.75,2.2,6.87,3.54,2.79,1.92,5.63,3.95,8.59,5.61,5.03,2.86,10.71,4.5,16.32,5.77,4.28,0,8.61,0,12.89,0"/><path class="b" d="M9.65,120c4.85,0,9.75,0,14.61,0,2.58-.71,5.06-2.08,7.73-2.52,3.1-.64,6.38-.43,9.45.28,2.85.63,5.66,1.8,8.59,2.05,4.91.5,9.72-1.59,13.75-4.23,3.71-2.45,7.05-5.55,10.31-8.56,3.91-3.38,8.13-8.13,13.75-7.79,2.32.17,4.21,1.71,6.01,3.01,2.4,1.59,5.09,2.91,7.73,4.06,6.46,2.74,13.5,5.42,20.62,4.15,2.28-.37,4.59-1.14,6.87-1.46,1.18-.5,2.31-1.58,3.44-2.2,1.78-.94,3.95-2.22,6.01-1.78,2.11.89,4.13,2.25,6.01,3.54,4.07,2.84,8.27,5.66,12.89,7.54,3.89,1.51,8.01,2.83,12.03,3.9,4.28,0,8.61,0,12.89,0"/><path class="b" d="M9.65,115.33c4.85,0,9.75,0,14.61,0,1.45-.34,2.88-1.25,4.3-1.71,2.17-.81,4.55-1.32,6.87-1.32,4.46-.09,8.62,1.78,12.89,2.77,1.94.48,4.04-.15,6.01.15,9.09-.04,19.57-10.4,26.64-15.61,3.14-2.3,7.15-4.83,11.17-3.45,1.47.67,2.92,1.79,4.3,2.62,7.04,4.61,14.73,7.94,23.2,5.35,1.96-.51,4.02-1.19,6.01-1.56.75-.14,1.81-.25,2.58-.26.46.11,1.32-.1,1.72-.36,2.37-1.39,5.81-3.45,8.59-2.71,3.64,1.91,6.86,4.63,10.31,6.84,3.06,1.93,6.29,3.75,9.45,5.51,2.95,1.57,6.21,2.65,9.45,3.41,1.91.56,4.05.24,6.01.32,2.84,0,5.76,0,8.59,0"/><path class="b" d="M9.65,110.67c4.85,0,9.75,0,14.61,0,1.46-.38,2.87-1.38,4.3-1.88,3.23-1.36,6.89-1.65,10.31-.9,1.71.35,3.51.92,5.16,1.51,1.36.44,2.85,1.16,4.3,1.19,1.65-.41,3.46-.69,5.16-.77,1.99-.13,4.09.18,6.01.66,1.13.37,2.38-.42,3.44-.77,5.15-2.18,9.79-5.44,14.61-8.23,3.47-1.98,7.14-4.07,11.17-4.57,2.93-.46,5.36.8,7.73,2.34,1.9,1.1,3.97,2.18,6.01,2.98,9.71,3.77,15.08.43,23.2-4.56,1.29-.79,2.94-1.16,4.3-1.76,2.2-1.85,4.8-3.63,7.73-3.91,1.96.6,3.58,2.29,5.16,3.55,2.56,2.26,5.1,4.71,7.73,6.89,11.23,9.41,18.21,8.25,31.79,8.25"/><path class="b" d="M9.65,106c4.85,0,9.75,0,14.61,0,1.47-.42,2.86-1.49,4.3-2.03,2.13-.93,4.54-1.46,6.87-1.37,2.94.1,5.85,1.01,8.59,1.99,1.91.58,3.99,1.75,6.01,1.11,1.94-.34,4.05-.56,6.01-.34,1.1.09,2.33.61,3.44.51,2.34-.72,4.67-1.78,6.87-2.82,7.74-3.6,16.11-8.19,24.92-6.76,1.53.28,2.99,1.23,4.3,2,1.62.94,3.42,1.88,5.16,2.6,9.09,3.88,16.31,1.37,24.06-3.97,1.85-1.31,4.08-2.23,6.01-3.39,2.13-1.61,4.37-3.34,6.87-4.32,4.49.19,9.39,5.77,12.89,8.44,5.41,4.73,11.68,7.78,18.9,8.35,4.28,0,8.61,0,12.89,0"/><path class="b" d="M9.65,101.34c4.85,0,9.75,0,14.61,0,.87-.21,1.82-.95,2.58-1.39,1.32-.79,2.84-1.56,4.3-2.06,5.98-2.22,12.07.58,18.04,1.28,4.64.59,9.38-.04,13.75-1.71,8.96-3.45,18.92-6,28.35-2.88,1.49.56,2.89,1.7,4.3,2.44,1.88,1.08,3.96,2.09,6.01,2.8,7.52,2.79,15.56.64,22.34-3.1,3.96-2.19,8.11-4.15,12.03-6.4,6.43-4.12,14.27,2.95,19.76,6.05,3.68,2.26,7.78,3.93,12.03,4.73,1.93.44,4.05.18,6.01.25,2.84,0,5.76,0,8.59,0"/><path class="b" d="M9.65,96.67c4.57,0,9.18,0,13.75,0,.91.15,1.91-.4,2.58-.97.76-.54,1.79-1.25,2.58-1.73,2.58-1.62,5.56-2.78,8.59-3.16,3.4-.43,6.9-.17,10.31-.46,3.43-.21,6.88-.84,10.31-.95,4.3-.4,8.56-1.57,12.89-1.71,6.48-.27,12.93,1.42,18.9,3.83,3.19,1.54,6.12,3.77,9.45,5.04,1.71-.26,3.43-1.1,5.16-1.34,3.97-.77,8.13-.46,12.03.51,1.09.24,2.33.73,3.44.86,1.4-.47,2.94-1.06,4.3-1.63,2.32-.92,4.57-2.25,6.87-3.19,1.98-.53,4.14-.88,6.01-1.76,4.57-1.78,9.91-2.36,14.61-.74,5.86,2.08,10.99,6.09,17.18,7.29,4.55.25,9.19.02,13.75.1"/><path class="b" d="M9.65,92.01c3.13,0,6.32,0,9.45,0,1.08,0,2.36,0,3.44,0,.44,0,1.28,0,1.72,0,.51-.14,1.34-.69,1.72-1.05,2.63-2.08,5.49-4.05,8.59-5.36,3.57-1.55,7.5-2.22,11.17-3.46,3.38-1.2,6.71-2.96,10.31-3.38,4.55.48,9.23.05,13.75.93,4.56.8,8.82,2.83,12.89,4.95,4.65,2.27,9.06,5.11,13.75,7.29,9.85-3.87,17.6-3.38,27.49.04,1.41-.53,2.95-1.2,4.3-1.88.74-.4,1.73-.92,2.58-.96,3.5.59,6.97-.39,10.31-1.36,7.2-2.36,11.86-3.93,18.9.17,2.99,1.6,6.05,3.54,9.45,4.07,4.28,0,8.61,0,12.89,0"/><path class="b" d="M9.65,87.34c4.85,0,9.75,0,14.61,0,.92-.28,1.83-1.2,2.58-1.77,1.06-.84,2.33-1.81,3.44-2.57,4.41-3.17,9.65-4.88,14.61-6.96,3.06-1.2,5.68-3.36,8.59-4.84.75-.31,1.76-.8,2.58-.89,1.37.15,2.92.26,4.3.34,3.44.2,6.98.36,10.31,1.31,6.23,1.74,11,6.41,16.32,9.83,2.39,1.59,5.11,2.8,7.73,3.93,1.36.53,2.83,1.37,4.3,1.52.41-.15,1.3-.42,1.72-.55,7.83-2.37,16.38-2.21,24.06.62,1.42-.54,2.97-1.23,4.3-1.97,1.42.19,2.84,1.04,4.3,1.13,5.76.61,11.05-2.42,16.32-4.23,3.32-1.24,7.12-1.38,10.31.3,2.89,1.43,5.55,3.49,8.59,4.62,1.64.34,3.49.1,5.16.17,2.84,0,5.76,0,8.59,0"/><path class="b" d="M9.65,82.68c3.13,0,6.32,0,9.45,0,1.08,0,2.35,0,3.44,0,.82,0,1.86.1,2.58-.38,2.67-2.19,5.51-4.35,8.59-5.93,4.59-2.45,9.81-3.35,14.61-5.27,2.73-.98,4.9-3.28,7.73-3.99,1.68,0,3.49-.19,5.16-.38,9.09-1.12,13.9-2.86,21.48,3.73,2.83,2.39,5.76,4.93,9.45,5.82,3.76,1.22,7.4,2.98,11.17,4.2,5.77,1.92,12.01,2.8,18.04,1.78,2.02-.33,4.1-.98,6.01-1.69,1.26-.31,2.38.8,3.44,1.29.72.34,1.79.69,2.58.82.75-.14,1.81-.21,2.58-.19.41.01,1.31.11,1.72.17,1.1-.11,2.38-.48,3.44-.8,2.3-.72,4.63-1.66,6.87-2.53,3.78-1.45,7.97-3.09,12.03-1.84,2.85.86,5.24,2.9,7.73,4.44.63.5,1.76.87,2.58.76,1.07,0,2.37,0,3.44,0,2.84,0,5.76,0,8.59,0"/><path class="b" d="M9.65,78.01c4.85,0,9.75,0,14.61,0,.93-.29,1.84-1.24,2.58-1.84,1.35-1.14,2.86-2.39,4.3-3.42,2.82-2.06,6.06-3.68,9.45-4.56,3.37-.93,6.96-1.19,10.31-2.18,1.48-.38,2.88-1.33,4.3-1.85,1.64-.35,3.49,0,5.16-.22,2.87-.2,5.77-.82,8.59-1.4,4.96-1.16,10.04-1.08,14.61,1.39,1.98.9,3.8,2.53,6.01,2.82,1.37.2,2.92-.02,4.3.14,1.73.18,3.54.7,5.16,1.33,6.72,2.77,13.17,6.93,20.62,7.29,2.28.25,4.61-.54,6.87-.4,1.89.15,3.39,1.68,5.16,2.21,4.57,1.44,9.31-.5,13.75-1.57,5.01-1.24,10.28-2.84,15.47-1.83,2.83.58,5.4,2.18,7.73,3.82,1.58.59,3.49.17,5.16.29,2.84,0,5.76,0,8.59,0"/><path class="b" d="M9.65,73.35c4.85,0,9.75,0,14.61,0,1.24-.34,2.38-1.41,3.44-2.1,1.65-1.18,3.43-2.45,5.16-3.52,3.36-2.13,7.2-3.63,11.17-4.01,2.54-.28,5.19-.19,7.73-.46,1.42-.11,2.91-.68,4.3-.95,5.33-.07,10.4-2,15.47-3.46,4.16-1.22,8.67-1.65,12.89-.49,2.27.45,4.52,2.22,6.87,1.22,9.13-4.29,16.71,3.78,24.92,6.5,1.62.55,3.44.95,5.16,1.06,1.38.04,2.94.06,4.3.37,1.82.33,3.5,1.41,5.16,2.15,2.43.98,5.17.93,7.73.73,2.55-.07,5.18-.33,7.73-.45,4.85-.21,9.8-.36,14.61.42,1.72.3,3.55.81,5.16,1.49,1.1.41,2.28,1.25,3.44,1.5,4.28,0,8.61,0,12.89,0"/><path class="b" d="M9.65,68.68c3.13,0,6.32,0,9.45,0,1.96-.1,4.1.25,6.01-.21,3.16-1.48,6.27-3.25,9.45-4.7,3.25-1.49,6.75-2.61,10.31-3.01,2.54-.31,5.19-.29,7.73-.51,1.4-.09,2.9-.57,4.3-.64,3.83-.59,7.52-2.03,11.17-3.27,6.84-2.41,14.2-4.16,21.48-3.12,1.27.3,2.43-.75,3.44-1.35,1.82-1.09,3.91-2,6.01-2.37,6.29-1.15,11.73,3.03,17.18,5.44,2.95,1.48,6.28,1.91,9.45,2.65,2.6.68,5.08,2.03,7.73,2.54,1.36.3,2.91.53,4.3.67,2.83.81,5.72,1.77,8.59,2.46,5.09,1.34,10.32,2.26,15.47,3.33,2.61.47,5.17,1.48,7.73,2.09,4.28,0,8.61,0,12.89,0"/><path class="b" d="M9.65,64.02c4.85,0,9.75,0,14.61,0,5.52-1.51,10.78-4.09,16.32-5.57,5.6-1.69,11.52-2.04,17.18-3.43,3.46-.95,6.86-2.32,10.31-3.3,4.22-1.23,8.58-2.1,12.89-2.94,3.4-.65,6.88-1.27,10.31-1.77.51-.09,1.34-.59,1.72-.93,1.04-.73,2.32-1.54,3.44-2.14,3.13-1.69,6.72-2.86,10.31-2.69,5.14.26,9.78,2.87,14.61,4.37,4.43,1.6,9.25,1.66,13.75,2.98.76.22,1.82.56,2.58.82,1.77,1.12,3.44,2.69,5.16,3.89,3.19,2.36,6.66,4.5,10.31,6.08,5.21,2.18,10.79,3.6,16.32,4.63,4.28,0,8.61,0,12.89,0"/><path class="b" d="M9.65,59.35c4.85,0,9.75,0,14.61,0,5.77-1.49,11.45-3.55,17.18-5.19,3.7-1.13,7.47-2.26,11.17-3.39,1.39,0,2.96-.02,4.3-.44,2.83-.82,5.7-1.84,8.59-2.43,2.81-.66,5.78-.77,8.59-1.39,5.93-1.52,12.2-1.63,18.04-3.51,3.61-1.83,7.21-3.89,11.17-4.89,2.48-.65,5.17-1.32,7.73-.78,2.28.43,4.58,1.2,6.87,1.57,3.77.86,7.51,2.08,11.17,3.31,3.9-1.3,8.24-1.23,12.03.4,1.39,1.37,2.91,2.92,4.3,4.29,4.4,4.42,9.48,8.44,15.47,10.44,2.76.92,5.69,1.73,8.59,2.02,4.28,0,8.61,0,12.89,0"/><path class="b" d="M9.65,54.69c3.13,0,6.32,0,9.45,0,1.96-.08,4.08.19,6.01-.16,7.66-2.79,15.77-4.42,23.2-7.82,2.09-.98,4.65-.78,6.87-1.35,3.9-1.24,7.9-2.46,12.03-2.53,4.01-.03,8.03-.67,12.03-.92,3.69-.38,7.49-.27,11.17-.72,2.07-.3,4.08-1.25,6.01-1.98,2.48-.88,5.1-1.74,7.73-1.99,4.62-.53,9.32.12,13.75,1.48,2.91.49,5.83,1.35,8.59,2.38,3.22,1.33,4.51,2.05,7.73-.03,3.08-1.7,6.77-3.13,10.31-2.19,1.44,1.24,2.96,2.75,4.3,4.1,5.68,6.01,12.1,10.95,20.62,11.73,4.28,0,8.61,0,12.89,0"/><path class="b" d="M9.65,50.02c4.85,0,9.75,0,14.61,0,2.9-.89,5.69-2.42,8.59-3.35,3.65-1.34,7.47-2.32,11.17-3.51,1.06-.43,2.29-.76,3.44-.74,1.4-.12,2.93-.38,4.3-.71,3.26-.67,6.23-2.42,9.45-3.22,2.51-.64,5.18-.47,7.73-.4,5.49-.33,10.92.84,16.32,1.61,1.95.26,4.05.44,6.01.19,1.71-.24,3.49-.83,5.16-1.25,4.21-1.04,8.53-2.02,12.89-1.96,3.46,0,6.93.69,10.31,1.36,3.44.3,6.9.95,10.31,1.46,2.83.15,5.33-1.53,7.73-2.8,3.11-1.57,6.85-2.9,10.31-1.81,6.23,6.11,12.28,13.85,21.48,15.12,4.28,0,8.61,0,12.89,0"/><path class="b" d="M9.65,45.36c4.57,0,9.18,0,13.75,0,.87.11,1.87-.27,2.58-.74,1.07-.58,2.34-1.24,3.44-1.77,3.3-1.61,6.8-2.95,10.31-4.02,1.08-.27,2.3-.9,3.44-.75,2.25.23,4.62.3,6.87.1,4.12-.23,7.93-2.21,12.03-2.61,1.67-.19,3.48-.19,5.16-.04,2.56-.02,5.2.14,7.73.53,4.29.6,8.56,1.74,12.89,2.09,2.29.23,4.63-.25,6.87-.64,7.71-.83,15.4-2.92,23.2-1.95,2.53.37,5.19.34,7.73.61,1.67.13,3.47.5,5.16.49,1.72-.05,3.54-.47,5.16-1.06,3.98-1.49,7.74-3.93,12.03-4.46,2.64-.24,3.3-.21,5.16,1.93,1.67,1.73,3.44,3.65,5.16,5.33,3.15,3.01,6.82,6.04,11.17,6.98,4.28,0,8.61,0,12.89,0"/><path class="b" d="M9.65,40.69c4.85,0,9.75,0,14.61,0,2.37-.88,4.55-2.53,6.87-3.56,1.94-.96,4.02-1.91,6.01-2.73.45-.18,1.27-.52,1.72-.69.78-.06,1.8.07,2.58.13,3.69.31,7.47.43,11.17.12,3.12-.45,6.27-1.35,9.45-1.34,3.63.04,7.56.3,11.17.7,4.01.52,8.01,1.45,12.03,1.94,1.67.19,3.48.29,5.16.14,1.08-.12,2.35-.39,3.44-.42,7.17.25,14.31-1.15,21.48-.9,3.13.13,6.32.34,9.45.33,2.55.04,5.19.33,7.73.13,4.79-.26,9.38-1.84,13.75-3.71,1.9-.75,3.98-1.43,6.01-1.7,1.18-.18,2.6-.28,3.44.81,4.11,3.68,7.86,8.06,12.89,10.53,1.62.45,3.49.13,5.16.22,2.84,0,5.76,0,8.59,0"/><path class="b" d="M9.65,36.03c4.85,0,9.75,0,14.61,0,2.37-.75,4.59-2.22,6.87-3.21,1.38-.67,2.92-1.42,4.3-2.11,1.66-.26,3.48-.11,5.16-.19,3.99-.08,8.04-.15,12.03-.12,2.55-.21,5.17-.68,7.73-.66,2.56-.06,5.19.23,7.73.48,4.31.13,8.62.89,12.89,1.47,3.68.51,7.49.83,11.17.12,5.12.62,10.33.33,15.47.2,9.44-.17,18.91.3,28.35.07,5.65.22,11.01-1.82,16.32-3.45,1.92-.44,4.04-1.26,6.01-.92,2.36,1.69,4.62,3.73,6.87,5.55,1.31.96,2.7,2.33,4.3,2.78,4.28,0,8.61,0,12.89,0"/><path class="b" d="M9.65,31.36c3.13,0,6.32,0,9.45,0,1.96-.08,4.08.18,6.01-.16,1.68-.57,3.49-1.19,5.16-1.82,1.33-.64,2.82-.95,4.3-.96,6-.46,12.01-1.54,18.04-1.2,5.43-.42,10.91-.41,16.32.26,7.15.07,14.33,1.78,21.48.91,2.26-.06,4.61.45,6.87.43,4.56.15,9.18.04,13.75.06,3.13-.03,6.33.18,9.45.14,4.56,0,9.19-.17,13.75.09,3.12.25,6.33.43,9.45.09,4.34-.4,8.64-1.44,12.89-2.35,1.66-.25,3.48-.94,5.16-.66.78.47,1.84,1.16,2.58,1.69,1.7,1.07,3.26,2.79,5.16,3.48,4.28,0,8.61,0,12.89,0"/><path class="b" d="M9.65,26.7c3.42,0,6.9,0,10.31,0,2.87.07,5.79,0,8.59-.65,3.42-.22,6.91-.31,10.31-.71,4.55-.48,9.16-1.15,13.75-.96,3.7-.04,7.47-.26,11.17-.07,4.57.26,9.18.4,13.75.49,4.28.2,8.61.22,12.89,0,6.85.53,13.76.44,20.62.54,6.86.27,13.76.02,20.62.14,10.3,1.09,20.71.21,30.93-1.23.76-.1,1.82-.32,2.58-.08,1.44.69,2.78,2.02,4.3,2.54,4.28,0,8.61,0,12.89,0"/><path class="b" d="M9.65,22.03c8.58-.01,17.19.04,25.78-.09,10.59-.29,21.2-.48,31.79-.36,10.3.18,20.63-.56,30.93-.17,9.73.14,19.48.48,29.21.34,11.45.17,22.92.28,34.37-.05,1.96-.06,4.05-.14,6.01-.22.75.2,1.77.67,2.58.55,3.99,0,8.04,0,12.03,0"/><path class="b" d="M9.65,17.37h172.7"/><path class="b" d="M9.65,12.7h172.7"/><path class="b" d="M9.65,8.04h172.7"/></svg>