<?xml version="1.0" encoding="UTF-8"?><svg id="a" xmlns="http://www.w3.org/2000/svg" width="1920" height="2400" viewBox="0 0 192 240"><defs><style>.b{fill:none;stroke:#fff;stroke-miterlimit:10;stroke-width:.3px;}.c{stroke-width:0px;}</style></defs><rect class="c" width="192" height="240"/><path class="b" d="M9.65,231.96h172.7"/><path class="b" d="M9.65,227.3h172.7"/><path class="b" d="M9.65,222.63c21.19,0,42.39,0,63.58,0,6.29.13,12.61-.4,18.9-.33,4.86,0,9.76.17,14.61.33,5.71,0,11.47,0,17.18,0,19.47,0,38.95,0,58.43,0"/><path class="b" d="M9.65,217.97c4.85,0,9.75,0,14.61,0,1.38-.29,2.89-.35,4.3-.29,8.87.08,17.77.12,26.64-.31,4.28-.22,8.61-.43,12.89-.37,5.96-.88,12.02-1,18.04-.95,4-.15,8.04.19,12.03.35,4.85.19,9.76.18,14.61.39,2.26.08,4.61.48,6.87.3,3.7-.15,7.47-.06,11.17.01,7.44.07,14.9.67,22.34.78,9.73.14,19.48.04,29.21.08"/><path class="b" d="M9.65,213.3c4.85,0,9.75,0,14.61,0,1.68-.21,3.45-.73,5.16-.83,5.13.39,10.34.5,15.47,0,4.91-.45,9.77-1.55,14.61-2.49,2.81-.5,5.75-.45,8.59-.31,7.41-.86,14.91.26,22.34-.17,1.69-.18,3.48.4,5.16.54,3.98.45,8.02.9,12.03.99,3.7.02,7.49-.11,11.17-.45,3.67-.65,7.44-1.19,11.17-.87,7.35-.92,14.29,2.31,21.48,3.19,1.96.34,4.04.43,6.01.21,2.26-.1,4.62-.12,6.87-.27,1.68,0,3.49.3,5.16.46,4.28,0,8.61,0,12.89,0"/><path class="b" d="M9.65,208.64c7.15.02,14.33-.04,21.48-.05,2.26-.14,4.62-.07,6.87.03,1.98-.14,4.06-.41,6.01-.79,5.97-1.01,11.39-3.97,17.18-5.57,2.52-.73,5.17-.34,7.73-.47,3.71-.22,7.47.34,11.17.63,4.27.46,8.63.64,12.89,1.08,8.96,3.12,15.43,4.61,24.92,2.35,3.14-.86,6.21-2.29,9.45-2.74,1.07-.15,2.36-.12,3.44-.23,1.67-.32,3.44-.9,5.16-.91,4.34-.21,8.23,2.11,12.03,3.89,2.96,1.36,6.18,2.48,9.45,2.74,4.01-.58,8.02-.58,12.03.02,4.28,0,8.61,0,12.89,0"/><path class="b" d="M9.65,203.97c5.43-.05,10.9.11,16.32-.08,4.56-.35,9.22-1.07,13.75-.08,1.1.32,2.36-.22,3.44-.43,2.32-.59,4.69-1.42,6.87-2.4,3.99-1.8,7.75-4.3,12.03-5.43,1.92-.55,4.02-.82,6.01-.76,1.66-.3,3.47-.45,5.16-.35,4.71.27,9.26,1.84,13.75,3.16,2.22.74,4.67,1.04,6.87,1.81,7.75,3.43,14.73,5.52,23.2,3.03,4.75-1.44,8.81-4.71,13.75-5.62,1.13-.3,2.37-.93,3.44-1.38,1.59-.62,3.45-.92,5.16-.75,5.75.71,10.14,5.11,15.47,7.02,3.32,1.07,6.8,2.16,10.31,2.22,5.71-.04,11.47.06,17.18.02"/><path class="b" d="M9.65,199.31c5.14-.03,10.33.06,15.47-.04,4.55-.39,9.21-.99,13.75-.19,1.4.43,2.94-.23,4.3-.56,2.32-.66,4.69-1.53,6.87-2.56,2.34-1.06,4.56-2.55,6.87-3.65,2.72-1.14,5.7-1.89,8.59-2.42,1.07-.17,2.35-.29,3.44-.31,1.07-.22,2.35-.41,3.44-.47,2.58-.14,5.25.26,7.73.96,4.67,1.4,9.21,3.38,13.75,5.15,3.53,1.53,7.26,3.83,11.17,3.99,3.37-.66,6.94-.77,10.31-.04,2.06.2,4.2-1.15,6.01-2.01,2.04-1.12,4.05-2.56,6.01-3.8,1.96-1.18,4.12-2.28,6.01-3.57,4.08-3.06,8.58-2.64,12.89-.27,2.59,1.34,5.12,3,7.73,4.3,1.05.76,2.29,1.7,3.44,2.31,3.2,1.58,6.77,2.63,10.31,3.07,4.84.3,9.76.04,14.61.12"/><path class="b" d="M9.65,194.64c7.15.02,14.33.06,21.48-.25,1.97-.08,4.05.23,6.01.18,3.5-.44,6.95-1.55,10.31-2.61,3.29-.97,6.25-2.91,9.45-4.08,2.2-.68,4.62-.8,6.87-1.25,2.25-.41,4.62-.72,6.87-1.07,3.05-.8,6.3-1.3,9.45-.95,8.38.86,14.6,7.37,22.34,10.01,6-1.99,10.36-1.66,16.32-.1,6.73-2.66,11.31-8.68,17.18-12.62,4.86-2.87,10.27.24,14.61,2.68,3.02,2.97,6.26,5.97,10.31,7.46,2.51.94,5.11,1.95,7.73,2.5,4.55.23,9.18.02,13.75.09"/><path class="b" d="M9.65,189.98c9.44-.13,18.99.48,28.35-.97,4.37-.68,8.61-2.17,12.89-3.28,1.41-.41,2.9-1.09,4.3-1.52,1.35-.35,2.91-.43,4.3-.42,4.05.21,8.14-.38,12.03-1.47,3.15-.94,6.15-2.67,9.45-3.12,5.05-.86,9.29,2.71,12.89,5.76,2.31,1.95,4.96,3.69,7.73,4.91,1.42-.17,2.87-.91,4.3-1.11,3.39-.67,6.98-.38,10.31.48.77.2,1.77.62,2.58.63,1.45-.58,3-1.42,4.3-2.29,2.55-1.72,4.85-4,6.87-6.3,2.56-2.94,5.31-6.54,9.45-7.07,2.68-.33,5.37.73,7.73,1.89.87.67,1.83,1.84,2.58,2.64,2.94,3.17,6.36,6.09,10.31,7.93,1.62.77,3.45,1.42,5.16,1.99,1.36.46,2.85,1.19,4.3,1.33,4.28,0,8.61,0,12.89,0"/><path class="b" d="M9.65,185.31c4.85,0,9.75,0,14.61,0,5.16-.57,10.35-1.34,15.47-2.24,3.78-.57,7.45-1.76,11.17-2.49,1.69-.2,3.44-.87,5.16-.76,2.85.23,5.71,1.14,8.59,1.06,6.02.04,10.69-3.4,15.47-6.56,5.09-3.2,8.48-.91,12.03,3.09,2,2.2,4.37,4.26,6.87,5.86,5.15,3.08,4.29,1.44,9.45,1.36,1.99-.03,4.06.33,6.01.64,1.09-.25,2.38-.63,3.44-1.01,3.56-1.26,6.89-3.38,9.45-6.17,3.85-4.19,6.96-11.42,13.75-10.48.78.11,1.84.39,2.58.67,1.28.87,2.37,2.4,3.44,3.5,1.86,2.05,3.89,4.18,6.01,5.96,4.59,3.99,10.51,6.11,16.32,7.55,4.28,0,8.61,0,12.89,0"/><path class="b" d="M9.65,180.65c4.85,0,9.75,0,14.61,0,4.54-1.14,9.1-2.5,13.75-3.25,3.97-.74,8.04-1.3,12.03-1.92,4.48-.95,5.32-.43,9.45,1.06,3.95,1.4,8.47,1.01,12.03-1.24,2.84-1.71,5.25-4.18,7.73-6.34,3.13-3.07,6.52-5.46,10.31-1.78,5.61,6.38,10.4,12.02,19.76,11.1,3.12-.27,6.34-.03,9.45-.42,3.68-.33,7.22-2.15,9.45-5.13,2.73-3.6,4.6-8.26,8.59-10.71,1.24-.67,2.97-1.39,4.3-.61,5.02,4.68,8.72,10.86,14.61,14.61,4.07,2.71,9.01,3.8,13.75,4.65,4.28,0,8.61,0,12.89,0"/><path class="b" d="M9.65,175.98c4.85,0,9.75,0,14.61,0,2.33-.62,4.56-1.89,6.87-2.6,3.32-1.17,6.82-1.99,10.31-2.47,2.82-.39,5.75-.58,8.59-.72,1.67,0,3.5-.4,5.16-.11,2.2.94,4.42,2.23,6.87,2.39,11.77,1.07,15.75-12.97,23.2-15.6,4.03-.75,6.14,3.81,8.59,6.18,2.21,2.46,4.82,4.74,7.73,6.32,3.48,1.9,7.35,3.15,11.17,4.15,6.08,1.64,12.4,2.13,16.32-3.75,2.3-3.4,4.47-7.16,7.73-9.76,3.57-3.16,9.37,3.4,12.03,5.63,2.36,2.17,4.92,4.34,7.73,5.92,3.7,2.15,7.99,3.02,12.03,4.28,4.54.3,9.19.03,13.75.12"/><path class="b" d="M9.65,171.32c4.57,0,9.18,0,13.75,0,2.11.09,4.07-1.27,6.01-1.91,3.34-1.35,6.79-2.6,10.31-3.39,4.77-1.07,9.73-1.35,14.61-1.26,6.59,3.79,12.13,3.46,18.04-1.42,4.22-3.47,7.17-8.3,11.17-11.98,4.96-4.49,7.8-.1,11.17,3.55,3.03,3.42,6.42,6.68,10.31,9.11,6.63,3.95,16.97,9.02,23.2,1.91,1.83-2.32,3.62-4.92,6.01-6.71,1.51-1.09,3.12-2.96,5.15-2.67,3.55.38,6.58,2.67,9.45,4.62,3.51,2.49,7.19,4.91,11.17,6.6,2.8,1.2,5.78,2.21,8.59,3.39,1.64.33,3.49.09,5.16.16,2.84,0,5.76,0,8.59,0"/><path class="b" d="M9.65,166.65c4.85,0,9.75,0,14.61,0,5.27-1.41,10.2-4.08,15.47-5.55,4.44-1.36,9.11-2.03,13.75-2.09,2.3.71,4.4,2.3,6.87,2.5,9.79,1.07,16.41-7.73,22.34-14.16,5.03-5.31,7.76-5.86,12.89-.28,6.52,6.94,16.95,18.16,27.49,15.49,1.55-.46,3.11-1.43,4.3-2.52,1.16-1.01,2.12-2.66,3.44-3.48,2.19-1.32,4.5-2.7,6.87-3.69,1.39-.24,2.96.24,4.3.62,4.86,1.62,9.19,4.55,13.75,6.83,2.78,1.45,5.73,2.78,8.59,4.06,1.7.66,3.37,1.87,5.16,2.28,4.28,0,8.61,0,12.89,0"/><path class="b" d="M9.65,161.99c4.85,0,9.75,0,14.61,0,5.91-1.47,11.43-4.38,17.18-6.34,2.47-.85,10.65-3.53,12.89-2.46,1.66.71,3.35,1.74,5.16,2.04,5.2.93,10.39-1.38,14.61-4.25,4.69-3.13,8.39-7.57,12.89-10.94,5.55-4.2,8.85.16,12.89,3.86,4.34,4.23,8.82,8.78,14.61,10.96,3,1.12,6.48,1.31,9.45,0,1.18-.51,2.46-1.34,3.44-2.17.76-.6,1.55-1.82,2.58-1.95,1.67-.5,3.48-1.09,5.16-1.58,1.35-.38,2.9-1,4.3-.47,5.71,1.43,11.01,4.19,16.32,6.65,2.84,1.35,5.77,2.71,8.59,4.1,1.72.73,3.36,2.04,5.16,2.56,4.28,0,8.61,0,12.89,0"/><path class="b" d="M9.65,157.32c4.85,0,9.75,0,14.61,0,6.54-1.69,12.69-4.81,18.9-7.42,2.5-1.07,5.12-2.13,7.73-2.91,1.07-.26,2.38-.91,3.44-.33,1.12.42,2.34,1.13,3.44,1.58,1.6.6,3.45.82,5.16.74,8.75-.61,16.14-6.02,23.2-10.75,5.26-3.4,7.55-4.39,12.89-.36,4.9,3.61,9.47,8.18,15.47,9.92,3.08.9,6.51.75,9.45-.54,1.49-.64,3.04-1.62,4.3-2.65.67-.51,1.78-.47,2.58-.5,1.67-.09,3.48-.25,5.16-.4.41-.03,1.3-.11,1.72-.15.8.1,1.83.52,2.58.8,4.92,1.86,9.78,4,14.61,6.1,4.32,1.92,8.78,3.72,12.89,6.06.63.5,1.75.91,2.58.79,1.07,0,2.37,0,3.44,0,2.84,0,5.76,0,8.59,0"/><path class="b" d="M9.65,152.66c4.85,0,9.75,0,14.61,0,5-1.49,9.84-3.75,14.61-5.88,4.86-2.21,9.57-4.92,14.61-6.75,1.5.26,2.93,1.16,4.3,1.76,1.04.41,2.33.7,3.44.82,8.75.51,17.01-3.47,24.92-6.72,6.19-2.53,7.54-3.75,13.75-.15,11.05,6.65,17.88,9.02,29.21,1.13,2.83.39,5.75.74,8.59,1.02,5.14,2.54,10.16,5.52,15.47,7.75,3.66,1.63,7.49,3.04,11.17,4.62,1.75.63,3.42,1.83,5.16,2.41,4.28,0,8.61,0,12.89,0"/><path class="b" d="M9.65,147.99c4.85,0,9.75,0,14.61,0,1.47-.36,2.9-1.32,4.3-1.9,2.24-1.04,4.61-2.07,6.87-3.06,6.1-2.54,12.01-5.6,18.04-8.29,1.49.11,2.95.88,4.3,1.45,1.33.48,2.88.78,4.3.86,8.12.04,16.23-1.35,24.06-3.45,2.25-.51,4.57-1.34,6.87-1.53,1.82.04,3.55,1.11,5.16,1.86,7.9,4.33,15.77,6.58,24.06,1.69,2.86-1.52,5.15-4.02,7.73-5.9,1.7-.06,3.51.29,5.16.66,1.11.29,2.5.45,3.44,1.16,3.8,3.08,7.77,6.11,12.03,8.54,5.9,3.5,12.68,5.15,18.9,7.9,4.28,0,8.61,0,12.89,0"/><path class="b" d="M9.65,143.33c4.85,0,9.75,0,14.61,0,.88-.22,1.82-.99,2.58-1.45,1.35-.86,2.88-1.76,4.3-2.51,3.88-2.06,8.02-3.74,12.03-5.51,2.27-1,4.62-2.08,6.87-3.11,2.57-1.2,4.07-2.14,6.87-.77,5.99,2.21,12.62,2.18,18.9,1.58,4.88-.55,9.71-1.77,14.61-2.24.77-.09,1.82-.19,2.58.07,1.12.54,2.38,1.32,3.44,1.97,2.2,1.37,4.51,2.78,6.87,3.86,6.48,3.17,14.52,3.25,20.62-.85,1.5-.96,3.03-2.23,4.3-3.48.7-.74,1.68-1.79,2.58-2.31,1.31-.49,2.91-.46,4.3-.56,1.08,0,2.42-.22,3.44.23,3.98,2.04,7.99,4.19,12.03,6.12,4.24,2.05,8.63,3.93,12.89,5.96,1.07.53,2.37,1.16,3.44,1.7.74.4,1.73,1.12,2.58,1.3,4.28,0,8.61,0,12.89,0"/><path class="b" d="M9.65,138.66c4.57,0,9.18,0,13.75,0,.92.15,1.91-.4,2.58-.97,1.06-.76,2.33-1.64,3.44-2.33,3.2-2.03,6.75-3.59,10.31-4.85,2.83-1.01,5.75-1.99,8.59-2.96,2.23-.67,4.5-1.82,6.87-1.73,1.99.29,3.99,1.12,6.01,1.3,4.26.61,8.66.38,12.89-.41,3.99-.72,7.97-1.91,12.03-2.21,1.67-.12,3.49-.09,5.16.11,2.35,1.32,4.56,3.08,6.87,4.46,6.78,4.41,15.56,6.16,23.2,2.99,2.13-.84,4.23-2.07,6.01-3.5,1.58-1.19,2.99-3.26,5.16-3.28,1.67-.09,3.48-.05,5.16.02,1.75.54,3.47,1.58,5.16,2.28,6.94,3.32,14.51,5.17,21.48,8.43,1.74.73,3.39,2.03,5.16,2.66,4.28,0,8.61,0,12.89,0"/><path class="b" d="M9.65,134c3.42,0,6.9,0,10.31,0,1.38,0,2.91,0,4.3,0,.89-.21,1.83-.99,2.58-1.47,2.67-1.82,5.54-3.55,8.59-4.65,5.24-1.86,10.86-2.53,16.32-3.42,1.37-.2,2.91-.41,4.3-.36.77.14,1.8.28,2.58.35,2.56.21,5.22.03,7.73-.48,6.49-1.15,12.25-5.26,18.9-5.6,1.7-.02,3.59.15,5.16.85,2.33,1.29,4.55,2.99,6.87,4.29,6.88,4.23,15.44,5.54,23.2,3.13,2.38-.7,4.78-1.74,6.87-3.07,1.35-.82,2.66-2.21,4.3-2.39,1.98.02,4.07.4,6.01.75,2.31,1.05,4.55,2.54,6.87,3.59,6.22,3.16,13.2,4.24,19.76,6.43,1.73.52,3.42,1.6,5.16,2.08,4.28,0,8.61,0,12.89,0"/><path class="b" d="M9.65,129.33c3.13,0,6.32,0,9.45,0,1.08,0,2.35,0,3.44,0,.8,0,1.83.08,2.58-.27,2.5-1.47,5.02-3.13,7.73-4.19,4.07-1.63,8.56-1.73,12.89-1.71,4.28.11,8.61-.08,12.89-.15,3.61-.21,7.15-1.47,10.31-3.19,3.81-2.04,7.27-4.83,11.17-6.71,2.91-1.46,6.45-1.86,9.45-.43,3.45,1.57,6.78,3.59,10.31,5,8.97,3.81,19.53,3.33,28.35-.68,2.4-1.55,4.29-.99,6.87-.3,1.1.33,2.47.62,3.44,1.27,1.63,1.15,3.43,2.36,5.16,3.38,3.2,1.9,6.71,3.43,10.31,4.38,3.09.84,6.33,1.33,9.45,1.99,2.01.35,4.03,1.17,6.01,1.59,4.28,0,8.61,0,12.89,0"/><path class="b" d="M9.65,124.67c3.13,0,6.32,0,9.45,0,1.96-.12,4.12.28,6.01-.24,2.21-1.17,4.48-2.48,6.87-3.21,3.6-1.14,7.48-.84,11.17-.34,17.56,2.86,21.51.31,34.37-11.11,2.87-2.33,6.38-5.04,10.31-4.29,6.02,1.66,11.92,3.92,18.04,5.18,5.64,1.13,11.49,1.21,17.18.53,1.38-.17,2.93-.41,4.3-.7,1.36-.3,2.88-.83,4.3-.55,2.34.49,4.88,1.14,6.87,2.5,2.94,2.47,6.06,4.89,9.45,6.71,5,2.79,10.74,3.71,16.32,4.56,1.68.24,3.47.74,5.16.97,4.28,0,8.61,0,12.89,0"/><path class="b" d="M9.65,120c4.85,0,9.75,0,14.61,0,2.03-.58,3.93-1.9,6.01-2.39,4.54-1.31,9.28,0,13.75,1.01,5.01,1.1,10.41,2.03,15.47.78,9.31-2.55,15.16-10.88,22.34-16.72,1.95-1.51,4.32-2.99,6.87-2.92,1.39.16,2.89.59,4.3.61,4.58.39,9.18,1.02,13.75,1.51,5.69.62,11.46.92,17.18.91,3.12.09,6.36-.43,9.45.19,1.43.31,2.97.9,4.3,1.52,1.18.88,2.36,2.19,3.44,3.19,2.62,2.51,5.47,4.98,8.59,6.84,5.42,3.37,11.87,4.21,18.04,5.23,1.93.41,4.05.18,6.01.24,2.84,0,5.76,0,8.59,0"/><path class="b" d="M9.65,115.33c4.85,0,9.75,0,14.61,0,1.15-.25,2.33-1.01,3.44-1.38,2.71-1.06,5.76-1.11,8.59-.52,2.29.45,4.62,1.17,6.87,1.77,1.4.14,2.9-.55,4.3-.69,2.24-.4,4.61-.54,6.87-.76,2.62-.23,5.31.49,7.73,1.45,1.21,0,2.4-.89,3.44-1.41,7.91-4.45,13.53-12.11,21.48-16.48,1.83-.96,4-1.14,6.01-.76,1.67.17,3.48.23,5.16.21,6.29-.12,12.61-.64,18.9-.72,3.99-.08,8.04-.16,12.03-.17,2.55.03,5.22-.52,7.73.14.98.11,1.94,1.02,2.58,1.71.77.78,1.82,1.86,2.58,2.66,2.93,3.07,5.97,6.23,9.45,8.68,5.25,3.76,11.74,5.36,18.04,6.27,4.28,0,8.61,0,12.89,0"/><path class="b" d="M9.65,110.67c3.13,0,6.33,0,9.45,0,1.96-.11,4.11.26,6.01-.23,5.93-3.23,11.14-1.63,17.18.11,1.7.03,3.47-.69,5.16-.87,2.83-.39,5.74-.91,8.59-1.16,3.23.08,6.47.94,9.45,2.12,8.42-3.11,15.05-9.71,23.2-13.27,1.04-.39,2.32-.72,3.44-.73,1.1.08,2.35.47,3.44.61,2.24.34,4.61.42,6.87.35,4.88-.18,9.78-.86,14.61-1.55,4.59-.72,9.25-1.42,13.75-2.59,1.69-.51,3.46-1.22,5.16-1.72.42-.11,1.29-.32,1.72-.39.47.06,1.33.41,1.72.69,1.79,1.04,3.57,2.4,5.16,3.71,7.5,6.54,14.68,13.23,24.92,14.92,4.28,0,8.61,0,12.89,0"/><path class="b" d="M9.65,106c4.85,0,9.75,0,14.61,0,1.15-.23,2.34-.95,3.44-1.33,1.62-.61,3.43-1.06,5.16-1.19,4.64-.31,9.17,1.21,13.75,1.7,1.08.15,2.36.34,3.44.51.79.13,1.8.42,2.58.11,3.62-1.25,7.53-1.06,11.17.02,1.14.28,2.37-.46,3.44-.79,1.4-.53,2.94-1.18,4.3-1.81,4.92-2.24,9.67-4.97,14.61-7.18,1.89-.78,3.95-1.67,6.01-1.73,1.65.53,3.45,1.05,5.16,1.33,4.24.72,8.61.67,12.89.54,5.75-.24,11.6-.5,17.18-2,3.7-.89,6.9-3.15,10.31-4.74,2.27-.28,4.71.38,6.87,1.05,9.06,3.36,14.6,12.67,24.06,15.32,1.64.34,3.49.1,5.16.17,2.84,0,5.76,0,8.59,0"/><path class="b" d="M9.65,101.34c3.13,0,6.32,0,9.45,0,1.96-.11,4.11.27,6.01-.23,3.55-1.78,7.25-3.51,11.17-4.25,2.52-.5,5.17-.61,7.73-.61,2.27-.05,4.66-.06,6.87.5,1.75.39,3.46,1.28,5.16,1.84,1.61.58,3.45.81,5.16.77,4.13-.14,8.15-1.45,12.03-2.78,5.16-1.78,10.24-3.96,15.47-5.55.76-.22,1.8-.48,2.58-.59.78.23,1.81.62,2.58.86,1.93.61,4.02,1.08,6.01,1.41,4.53.72,9.17,1.01,13.75,1.32,4.56.26,9.26.56,13.75-.51,3.68-.87,6.92-3.06,10.31-4.65,2.55-.42,5.18-.92,7.73-1.31,6.01-1.01,10.67,3.64,14.61,7.49,2.47,2.5,5.38,4.65,8.59,6.09,1.62.44,3.49.13,5.16.21,2.84,0,5.76,0,8.59,0"/><path class="b" d="M9.65,96.67c4.85,0,9.75,0,14.61,0,1.51-.36,2.94-1.42,4.3-2.13,1.99-1.15,4.05-2.43,6.01-3.62,4.78-2.79,10.57-6.52,16.32-5.81,2.5.57,4.71,2.17,6.87,3.46,2.6,1.42,5.66,1.94,8.59,1.87,7.62-.32,15.03-2.61,22.34-4.62,1.07-.38,2.38-.54,3.44-.04,1.37.47,2.91.96,4.3,1.35,3.93,1.11,8.01,1.86,12.03,2.55,6.49.94,13.22,2.75,19.76,1.29,3.16-.88,6.27-2.22,9.45-3.03,2.34-.08,4.72-.66,6.87-1.6,2.69-1.09,5.62-2.5,8.59-1.88,3.54.83,6.12,3.79,8.59,6.27,1.99,2.16,4.33,4.17,6.87,5.67,1.6.54,3.49.16,5.16.26,2.84,0,5.76,0,8.59,0"/><path class="b" d="M9.65,92.01c3.7,0,7.47,0,11.17,0,1.08,0,2.35,0,3.44,0,1.81-.45,3.52-1.64,5.16-2.52,4.37-2.56,8.3-5.9,12.03-9.32,3.04-2.57,6.15-6.07,10.31-6.51,1.49.1,3.07.79,4.3,1.62,1.02.96,2.28,2.01,3.44,2.78,5.47,3.81,12.47,4.18,18.9,3.52,2.58-.26,5.23-.7,7.73-1.35,3.56-.97,4.04-1.69,7.73-.26,8.68,2.97,17.53,5.76,26.64,7.11,2.24.28,4.63.38,6.87.02,2.25-.48,4.56-1.18,6.87-1.28,1.97-.2,4.05.05,6.01.07,3.99-.11,7.49-2.36,11.17-3.61,3.47-1.3,6.86.05,9.45,2.49,2.29,1.79,6.69,7.6,9.45,7.24,3.99,0,8.04,0,12.03,0"/><path class="b" d="M9.65,87.34c3.13,0,6.32,0,9.45,0,1.96-.08,4.08.2,6.01-.17,14.44-5.03,15.51-9.33,24.92-19.6,1.53-1.56,3.87-2.69,6.01-1.74,1.06.8,2.33,1.72,3.44,2.45,2.63,1.75,5.56,3.23,8.59,4.13,4.15,1.24,8.59,1.56,12.89,1.19,2.92-.26,5.9-.9,8.59-2.06,3.39-1.4,12.57,3.91,16.32,5.22,6.01,2.39,12.36,4.65,18.9,4.65,2.6.1,5.14-1.17,7.73-.78,9.78,2.08,9.61,2.92,19.76-.21,4.3-1.36,7.77-.48,11.17,2.46,1.96,1.44,3.69,3.65,6.01,4.46,4.28,0,8.61,0,12.89,0"/><path class="b" d="M9.65,82.68c4.85,0,9.75,0,14.61,0,7.23-1.05,13.99-3.17,18.9-8.87,2.12-2.32,4.05-5.04,6.01-7.5,1.56-1.91,3.38-4.08,6.01-4.27,1.15-.1,2.35.66,3.44.96,1.94.67,4.02,1.33,6.01,1.83,5.59,1.44,11.53,1.6,17.18.43,2.64-.52,5.34-1.33,7.73-2.57.44-.23,1.3-.73,1.72-.99,1.68-.33,3.54.04,5.16.54,5.45,1.9,10.16,5.49,15.47,7.73,2.74,1.26,5.74,2.05,8.59,3.02,2.77.9,5.64,2.01,8.59,2.09,2.45.04,4.68,1.49,6.87,2.41,2.71,1.06,5.65,1.92,8.59,1.57,5.14-.44,10.31-3.01,15.47-1.35,2.81.87,5.25,2.75,7.73,4.26,1.72,1.18,4.05.55,6.01.7,2.84,0,5.76,0,8.59,0"/><path class="b" d="M9.65,78.01c5.14-.06,10.33.12,15.47-.07,5-.76,10.29-1.5,14.61-4.33,5.22-3.38,8.26-9.08,12.03-13.84,1.2-1.52,3.1-3.49,5.16-2.24,1.36.55,2.9,1.09,4.3,1.53,4.19,1.29,8.55,2.16,12.89,2.75,4.25.54,8.75.96,12.89-.41,2.27-.69,4.2-2.28,6.01-3.73,3.71-2.19,8.38-1.32,12.03.58,6.98,3.56,12.85,9.01,19.76,12.7,1.83,1.04,4,1.47,6.01,1.98,2.26.73,4.5,1.93,6.87,2.25,6.75,1.42,13.02-3.54,19.76-2.4,3.12.5,5.9,2.27,8.59,3.82,1.01.56,2.27,1.28,3.44,1.41,1.07,0,2.37,0,3.44,0,3.12,0,6.33,0,9.45,0"/><path class="b" d="M9.65,73.35c6.87-.11,13.81.4,20.62-.64,5.25-.57,10.72-1.95,14.61-5.75,2.23-2.07,4.17-4.64,6.01-7.05,1.26-1.36,3.07-4.76,5.15-4.39,7.11,2.55,14.17,5.42,21.48,7.34,4.51,1.12,9.76,1.53,13.75-1.29,1.7-1.2,3.3-2.83,5.16-3.8,4.11-2.23,9.03-1.06,12.89,1.15,5.96,3.24,10.91,8.24,17.18,10.93,2.45.93,5.17,1.35,7.73,1.86,4.18.74,8.26-1.08,12.03-2.68,3.74-1.64,8.07-2.85,12.03-1.27,3.07,1.11,5.7,3.28,8.59,4.73,1.8,1.08,4.01.85,6.01.86,3.12,0,6.33,0,9.45,0"/><path class="b" d="M9.65,68.68c8.88,0,17.82.21,26.64-1.01,3.75-.5,7.43-1.96,10.31-4.44,3.13-2.44,5.33-6.1,8.59-8.36.49-.1,1.27.02,1.72.23,1.09.37,2.36.82,3.44,1.23,9.5,3.34,21.86,11.18,31.79,5.86,3.57-2.17,6.68-4.99,11.17-4.65,7.71.49,13.73,6.1,20.62,8.95,3.73,1.56,8.03,2.2,12.03,1.47,4.32-1.16,7.96-4.05,12.03-5.81,3.23-1.52,7.12-1.7,10.31.02,3.33,1.64,6.08,4.4,9.45,5.96,1.81.93,4.05.41,6.01.54,2.84,0,5.76,0,8.59,0"/><path class="b" d="M9.65,64.02c8.02.04,16.05.03,24.06-.41,5.75-.13,11.09-1.59,15.47-5.46,1.98-1.54,3.77-3.63,6.01-4.8,1.42-.2,2.94.59,4.3.94,2.29.75,4.64,1.68,6.87,2.58,8.25,3.36,17.96,6.89,26.64,3.05,1.97-.87,3.92-2.14,6.01-2.71,5.26-1.3,10.62.78,15.47,2.67,4.17,1.67,8.39,3.59,12.89,4.12,1.37-.06,2.92-.13,4.3-.05,4.95.43,10.82-5.62,15.47-7.63,7.47-3.84,12.42.73,18.04,5.24,1.54,1.01,3.19,2.64,5.16,2.46,3.99,0,8.04,0,12.03,0"/><path class="b" d="M9.65,59.35c8.87.03,17.78.07,26.64-.61,3.6-.32,7.21-1.35,10.31-3.25,7.85-5.05,5.8-5.74,15.47-3.12,7.27,2.27,14.61,4.94,22.34,4.77,2.58-.04,5.28-.33,7.73-1.16,2.23-.75,4.49-1.87,6.87-2,4.39-.22,8.72,1.12,12.89,2.34,3.92,1.18,7.96,2.26,12.03,2.75,2.53.27,5.2.3,7.73.05,1.8-.31,3.61-1.14,5.16-2.09,6.09-4.31,12.73-10.44,20.62-6.4,4.17,2.11,7.4,5.72,11.17,8.41,1.57.64,3.49.19,5.16.31,2.84,0,5.76,0,8.59,0"/><path class="b" d="M9.65,54.69c7.16-.03,14.35.23,21.48-.58,6.37-.35,11.94-2.04,17.18-5.72,3.82-2.55,8.68-1.29,12.89-.57,3.44.66,6.86,1.73,10.31,2.33,5.36.99,10.92,1.32,16.32.47,2.64-.29,5.13-1.52,7.73-1.95,5.94-.55,11.48,2.47,17.18,3.66,6.13,1.49,12.64,2.12,18.9,1.2,3.46-.89,6.56-2.94,9.45-4.96,1.08-.77,2.36-1.74,3.44-2.52,2.14-.88,4.55-1.44,6.87-1.35,6.9.3,12.11,5.53,17.18,9.63,0,0,.86.36.86.36h.86c1.07,0,2.37,0,3.44,0,2.84,0,5.76,0,8.59,0"/><path class="b" d="M9.65,50.02c3.7,0,7.47,0,11.17,0,2.57.11,5.19-.17,7.73-.49,3.44-.32,7.01-.5,10.31-1.61,1.78-.59,3.59-1.53,5.16-2.56,1.28-.97,2.79-1.84,4.3-2.37,1.33-.53,2.86-.97,4.3-1.01,1.08.04,2.36.13,3.44.14,4.32.1,8.61.93,12.89,1.44,5.99.38,12.06.75,18.04.16,2.34-.17,4.62-1.04,6.87-1.61,3.17-.63,6.47.17,9.45,1.27,10.1,4.16,16.51,5.41,27.49,4.43,4.2-.78,8.1-2.82,12.03-4.43,1.07-.46,2.36-1,3.44-1.43.72-.31,1.77-.74,2.58-.56,4.86.43,9.49,2.38,13.75,4.66,1.4.76,2.95,1.69,4.3,2.55.99.64,2.17,1.63,3.44,1.42,3.99,0,8.04,0,12.03,0"/><path class="b" d="M9.65,45.36c6-.11,12.07.3,18.04-.3,2.85-.22,5.8-.33,8.59-1,2.1-.5,4.2-1.43,6.01-2.58,2.22-.99,4.53-2.08,6.87-2.72,1.35-.37,2.91-.46,4.3-.3,1.68-.07,3.48-.25,5.16-.33,4.56-.25,9.18.06,13.75-.08,4.57,0,9.18.41,13.75.3,2.3,0,4.64-.51,6.87-1.01,1.95-.34,4.04-.45,6.01-.32,4.66.31,9.19,1.73,13.75,2.63,4.22.93,8.57,1.27,12.89,1.15,2.26.01,4.61.45,6.87.21,3.46-.33,6.89-1.24,10.31-1.83,1.95-.35,4.04-.63,6.01-.76,1.09-.06,2.43-.26,3.44.27,5.4,2.22,10.91,4.31,16.32,6.49,1.63.39,3.49.11,5.16.19,2.84,0,5.76,0,8.59,0"/><path class="b" d="M9.65,40.69c8.01-.08,16.11.4,24.06-.9,2.97-.5,5.73-1.95,8.59-2.82,3.28-1.2,6.77-2.39,10.31-1.88,3.42-.02,6.89-.55,10.31-.7,4-.09,8.03-.63,12.03-.74,4.85-.18,9.76.26,14.61-.13,4.26-.53,8.59-1,12.89-1.06,5.14-.07,10.33.25,15.47.48,2.55.25,5.18-.07,7.73-.14,1.7-.04,3.5.38,5.16.7,3.96.65,8.04.61,12.03.88,3.73.23,7.49.74,11.17,1.39,2.04.58,3.98,1.82,6.01,2.45,3.05,1.05,6.27,1.93,9.45,2.46,4.28,0,8.61,0,12.89,0"/><path class="b" d="M9.65,36.03c6.58-.12,13.22.37,19.76-.47,5.8-.74,11.39-2.84,17.18-3.67,1.97-.3,4.05-.06,6.01.08,1.38.05,2.92-.04,4.3-.1,3.7-.22,7.47-.41,11.17-.65,3.4-.45,6.88-.83,10.31-1.06,5.71-.4,11.48-.28,17.18-.75,6.58-.62,13.16-1.66,19.76-1.99,1.67-.12,3.49-.04,5.16-.17,2.54-.36,5.17-.74,7.73-.86,6.13.74,12.06,2.86,18.04,4.32,3.68.97,7.44,1.95,11.17,2.72,2.78.93,5.65,1.89,8.59,2.21,2.52.46,5.18.42,7.73.4,2.84,0,5.76,0,8.59,0"/><path class="b" d="M9.65,31.36c5.14-.05,10.33.1,15.47-.06,3.44-.38,6.85-1.32,10.31-1.56,3.7-.42,7.44-1.15,11.17-1.22,2.56-.06,5.18.4,7.73.4,4.86.05,9.76-.12,14.61-.37,4.86-.54,9.74-1.28,14.61-1.73,4.55-.53,9.19-.1,13.75-.45,6.57-.51,13.16-1.49,19.76-1.4,4.01.16,8.02-1.02,12.03-1,2.26.03,4.62-.07,6.87.06,2.3.46,4.64,1.2,6.87,1.92,8.05,2.76,16.44,4.6,24.92,5.32,4.84.25,9.76.04,14.61.1"/><path class="b" d="M9.65,26.7c4.85,0,9.75,0,14.61,0,1.71-.12,3.45-.81,5.16-.96,3.13-.06,6.33-.21,9.45-.36,5.15-.38,10.33-.03,15.47.25,5.14.14,10.33.08,15.47-.1,5.74-.3,11.45-1.38,17.18-1.78,2.55-.22,5.18.01,7.73.05,2.84.02,5.76-.1,8.59-.16,4.57-.11,9.19,0,13.75.36,4.57-.11,9.21-.13,13.75-.78,8.32-1.79,15.12.98,23.2,2.18,4.53.76,9.18.79,13.75,1.19,4.84.26,9.76.04,14.61.11"/><path class="b" d="M9.65,22.03c4.57,0,9.18,0,13.75,0,.79.06,1.8-.16,2.58-.27,1.38,0,2.92,0,4.3-.01,10.02-.1,20.06.1,30.07.15,5.43-.04,10.9.07,16.32-.24,5.42-.28,10.89-.9,16.33-.66,7.15.09,14.34.25,21.48.66,8.3.06,16.62-.03,24.92-.35,5.72-.07,11.47.35,17.18.47,8.59.13,17.19.3,25.78.25"/><path class="b" d="M9.65,17.37h172.7"/><path class="b" d="M9.65,12.7h172.7"/><path class="b" d="M9.65,8.04h172.7"/></svg>