<?xml version="1.0" encoding="UTF-8"?><svg id="a" xmlns="http://www.w3.org/2000/svg" width="1920" height="2400" viewBox="0 0 192 240"><defs><style>.b{fill:none;stroke:#fff;stroke-miterlimit:10;stroke-width:.3px;}.c{stroke-width:0px;}</style></defs><rect class="c" x="0" width="192" height="240"/><path class="b" d="M17.68,224.77c4.07-2.87,7.61-8.31,13.25-7.28,1.03.19,2.2.64,3.12,1.13.7.36,1.55,1.05,2.34,1.19,10.4-8.83,17.13-11.57,28.05-1.52,2.09,1.87,4.18,3.92,6.23,5.84.68.64,1.64,1.5,2.34,2.11.27.32,1.06.86,1.56.83,3.06-2.36,6.82-5.2,10.91-4.1,2.55.96,5.08,2.23,7.79,2.73,7.18,1.53,14.6,1.46,21.82,2.73,2.6.37,5.21,1.09,7.79,1.51,4.16-1.39,8.33-2.89,12.47-4.35,4.17-1.48,8.4-2.93,12.47-4.65,5.16-2.24,7.09-4.33,12.47-.55,4.9,3.56,8.64,8.71,14.03,11.62"/><path class="b" d="M17.68,221.42c2.18-1.7,4.11-3.87,6.23-5.63,4.58-3.76,9.21-2.17,13.25,1.45.48.01,1.21-.35,1.56-.66.69-.46,1.63-1.07,2.34-1.5,2.16-1.31,4.54-2.49,7.01-3.05,10.73-2.35,17.82,8.16,25.72,13.39,3.12-2.57,6.55-6.03,10.91-5.71,1.63.17,3.15,1.13,4.68,1.65,3.25,1.18,6.72,1.84,10.13,2.38,4.41.68,8.88,1.28,13.25,2.19,1.52.31,3.16.69,4.68,1.07.98.27,2.18.67,3.12.05,4.38-1.88,8.78-3.87,13.25-5.54,4.34-1.65,8.83-3.01,13.25-4.45,1.26-.41,2.66-.9,3.9-1.37,1.43-.65,3.13-1.07,4.68-.61,3.13.93,5.53,3.45,7.79,5.68,3.38,3.4,6.61,7.25,10.91,9.52"/><path class="b" d="M17.68,218.43c2.44-1.98,4.48-4.58,7.01-6.45,5.17-3.84,10.23-.36,14.03,3.57,15.36-8.76,22.2-.42,34.29,8.32,3.83-2.58,7.26-7.53,12.47-6.77,2.35.65,4.62,1.82,7.01,2.36,8.01,2.02,16.25,3.14,24.16,5.6,4.23-1.9,8.21-4.46,12.47-6.32,4.71-2.19,9.73-3.76,14.81-4.86,2.05-.46,4.19-.89,6.23-1.37,1.76-.5,3.72-.96,5.45-.12,2.78,1.24,4.96,3.62,7.01,5.79,3.56,3.77,6.92,8.16,11.69,10.45"/><path class="b" d="M17.68,215.88c2.43-2.04,4.47-4.67,7.01-6.58,6.14-4.54,11.32.67,15.59,4.98,9.1-3.84,16.1-2.33,24.16,2.95,1.8,1.14,3.67,2.42,5.45,3.59.96.52,1.96,1.63,3.12,1.56,3.47-2.96,6.81-7.3,11.69-7.62,2.16.06,4.16,1.27,6.23,1.76,7.76,2.14,15.73,3.59,23.38,6.17,1.38-.42,2.65-1.51,3.9-2.23,2.03-1.3,4.15-2.67,6.23-3.89,4.57-2.71,9.55-4.87,14.81-5.8,3.07-.57,6.24-.79,9.35-1.02,2.34-.15,4.9-.8,7.01.58,6.67,3.99,11.25,14.14,18.7,16.58"/><path class="b" d="M17.68,213.83c2.42-2.06,4.48-4.68,7.01-6.6,6.76-5.14,12.71,1.59,17.14,6.37,12.29-3.47,20.14,2.12,30.39,7.75,4.22-2.88,7.61-8.42,13.25-8.37,1.84.23,3.65,1.07,5.46,1.48,3.34.91,6.78,1.69,10.13,2.57,2.33.61,4.72,1.3,7.01,2.02,1.53.39,3.1,1.21,4.68,1.34,7.1-4.95,13.85-11.23,22.6-12.97,4.09-.85,8.34-.6,12.47-.24,3.32.33,5.84-.09,8.57,2.28,4.07,3.39,7.08,7.94,10.91,11.57,1.15,1.1,2.53,2.24,3.9,3.06.95.32,2.14.48,3.12.68"/><path class="b" d="M17.68,212.29c2.66-2.23,4.87-5.13,7.79-7.03,7.06-4.64,13.56,3.12,17.92,7.98,2.04.08,4.18-.38,6.23-.23,4.28.1,8.52,1.23,12.47,2.83,2.08.83,4.2,1.82,6.23,2.75,1.24.51,2.56,1.35,3.9,1.57,4.09-3.05,8.45-9.02,14.03-8.49,8.1,2,16.3,3.78,24.16,6.62.5-.03,1.22-.48,1.56-.82.99-.79,2.15-1.75,3.12-2.56,2.52-2.12,5.1-4.34,7.79-6.24,10.52-7.55,17.3-5.32,28.83-2.56,4.71,1.13,7.74,5.99,10.91,9.32,1.89,2.11,3.88,4.36,6.23,5.96,1.8.24,3.68.63,5.46,1.03"/><path class="b" d="M17.68,211.21c3.31-2.67,6-6.47,10.13-7.93,5.14-1.8,9.83,2.19,13.25,5.58,1.58,1.42,2.93,3.38,4.68,4.59,6.37-.38,12.73.91,18.7,3.06,2.32.8,4.7,1.7,7.01,2.51.5.04,1.21-.35,1.56-.69.71-.54,1.65-1.31,2.34-1.88,3-2.39,6.1-5.51,10.13-5.77,2.35.11,4.7.88,7.01,1.27,5.53,1.13,11.03,2.62,16.36,4.46,2.62-1.54,4.71-4.07,7.01-6.04,5.53-5.16,12.15-10.96,20.26-10.05,3.8.36,7.41,1.85,10.91,3.27,2.28,1.06,4.89,1.6,7.01,2.96,4.74,3.4,7.82,8.72,12.47,12.22,2.61.14,5.26.65,7.79,1.26"/><path class="b" d="M17.68,210.53c2.39-1.87,4.54-4.19,7.01-5.95,5.57-4.06,10.84-2.06,15.59,2.1,12.17,11.09,2.58,4.73,20.26,8.41,2.33.5,4.71,1.14,7.01,1.76.98.27,2.14.58,3.12.84.76.38,1.72,0,2.34-.5,3.12-2.05,5.94-4.72,9.35-6.3,2.95-1.52,6.27-.47,9.35-.02,5.27.87,10.5,2.16,15.59,3.79,8.27-6.29,15.36-19.04,27.27-17.31,6.56,1.17,11.93,5.54,17.92,8.17,4.58,2.74,7.61,7.45,11.69,10.81,3.4.01,6.84.37,10.13,1.23"/><path class="b" d="M17.68,210.14c8.43-6.75,13.12-11.81,23.38-4,2.14,1.63,4.21,3.53,6.23,5.29.96.74,1.93,1.92,3.12,2.28,3.11.12,6.27.4,9.35.84,3.9.55,7.81,1.37,11.69,2.09,1.39-.26,2.69-1.27,3.9-1.97,2.02-1.28,4.08-2.73,6.23-3.79,3.34-1.82,6.57-1.09,10.13-.65,4.73.6,9.44,1.59,14.03,2.88,8.52-6.84,16.77-22.68,29.61-17.75,5.98,2.34,10.76,6.92,16.36,9.96,2.67,1.43,4.85,3.76,7.01,5.83.68.66,1.63,1.57,2.34,2.2.53.6,1.5,1.16,2.34.9,3.64-.33,7.36.02,10.91.86"/><path class="b" d="M17.68,209.9c2.89-1.86,5.52-4.26,8.57-5.87,7.65-4.27,14.26.28,20.26,5.04,2,1.49,4.01,3.23,6.23,4.39,2.84.11,5.74.31,8.57.58,3.37.27,6.76.9,10.13,1.11,1.65.03,3.21-1.13,4.68-1.78,2.97-1.55,5.96-3.49,9.35-3.91,3.63-.13,7.31.39,10.91.83,2.6.29,5.21,1.03,7.79,1.34,7.12-5.75,13.52-17.44,22.6-19.49,7.8-1.26,13.77,5.5,19.48,9.74,2.18,1.79,4.65,3.34,7.01,4.86,2.43,1.78,4.64,3.99,7.01,5.84,4.64-.66,9.41-.94,14.03.1"/><path class="b" d="M17.68,209.04l.78.18c6-3.73,11.99-8.45,19.48-6.08,6.32,1.92,11.18,6.81,17.14,9.48,1.76.32,3.68.18,5.45.32,2.57.15,5.21.3,7.79.24,1.78,0,3.67,0,5.46,0,1.59-.34,3.18-1.13,4.68-1.74,2.23-.96,4.58-1.95,7.01-2.25,4.4-.21,8.87.22,13.25.72,1.25.07,2.66.62,3.9.3,1.03-.83,2.19-1.91,3.12-2.85,3.25-3.3,6.17-7.03,9.35-10.39,10.59-11.5,17.18-7.74,27.27,1.7,3.16,2.88,6.42,5.8,10.13,7.97,2.14,1.32,4.06,3.18,6.23,4.44,5.1-1.05,10.41-1.7,15.59-.81"/><path class="b" d="M17.68,208c.37.2,1.15.48,1.56.56,10.3-5.67,16.11-8.58,27.27-2.48,2.32,1.21,4.65,2.58,7.01,3.71,1.46.62,3.04,1.56,4.68,1.45,5.96,0,11.96,0,17.92,0,2.87-.64,5.65-1.87,8.57-2.31,5.16-.5,10.43-.06,15.59.38,2.77-1.45,4.88-4.12,7.01-6.36,4.19-4.6,7.89-9.97,13.25-13.3,8.93-5.46,16.66,4.48,22.6,10.01,2.83,2.73,5.88,5.41,9.35,7.31,1.54.85,3.03,2.12,4.68,2.75,5.63-1.12,11.38-2.38,17.14-1.74"/><path class="b" d="M17.68,207c.67.31,1.59.75,2.34.8,9.64-4.16,16.03-7.46,26.5-3.09,3.89,1.44,7.6,3.74,11.69,4.56,6.48,0,13,0,19.48,0,2.09.14,4.18-.62,6.23-.89,2.03-.33,4.18-.3,6.23-.33,2.84-.07,5.74.13,8.57.1,6.34-3.94,10.39-10.53,15.59-15.73,5.01-5.22,10.56-8.17,17.14-3.45,7.3,5.2,12.18,13.43,20.26,17.6,1.25.58,2.58,1.43,3.9,1.85.36-.07,1.19-.2,1.56-.27,5.66-1.03,11.34-2.58,17.14-2.36"/><path class="b" d="M17.68,205.96c.96.36,2.06.97,3.12.88,1.54-.44,3.17-.99,4.68-1.52,3.54-1.23,7.17-2.48,10.91-2.87,4.49-.53,9.02.43,13.25,1.9,3.09.97,6.15,2.43,9.35,2.97,1.78,0,3.67,0,5.45,0,6.74-.01,13.52.03,20.26-.02,3.87-.27,7.81-.22,11.69-.23,8.42-3.38,13.57-14.15,21.04-19.36,5.65-4.15,10.89-2.02,15.59,2.34,5.91,5.3,10.57,12.39,17.92,15.85.95.42,2.14.86,3.12,1.22.36-.04,1.19-.13,1.56-.19,6.26-.83,12.37-2.86,18.7-3.15"/><path class="b" d="M17.68,204.82c1.21.57,2.59.58,3.9.53,1.84.1,3.69-.59,5.45-1.02,3.58-.98,7.21-2.06,10.91-2.48,3.89-.48,7.89-.08,11.69.85,3.12.74,6.23,1.78,9.35,2.52,2.03.28,4.19.06,6.23.13,8.04,0,16.11,0,24.16,0,1.52,0,3.16,0,4.68,0,1.03.08,2.21-.05,3.12-.6,8.78-4.54,12.98-14.86,21.82-19.3,5.58-2.68,11.06,1.63,14.81,5.49,5.45,5.26,10.22,12.4,17.92,14.4,1.51,0,3.16,0,4.68,0,2.07-.2,4.2-.62,6.23-1.04,3.86-.9,7.8-1.7,11.69-2.47"/><path class="b" d="M17.68,203.4c3.35-.09,6.8.18,10.13-.12,5.65-1.17,11.32-2.81,17.14-2.6,3.41.08,6.82.73,10.13,1.49,2.3.44,4.65,1.33,7.01,1.23,7.26,0,14.55,0,21.82,0,2.57,0,5.22,0,7.79,0,1.51-.1,3.22.24,4.68-.23,9.16-3.79,14.72-16.89,24.16-18.95,8.1-1.19,14.7,9.39,20.26,14.12,2.27,2.08,4.85,4.04,7.79,5.04,2.04.07,4.19.01,6.23.03,1.78,0,3.67,0,5.46,0,2.61-.34,5.24-1,7.79-1.62,2.46-.41,4.25-2.54,6.23-3.91"/><path class="b" d="M17.68,201.44c4.66-.03,9.37.07,14.03-.04,3.87-.69,7.76-1.57,11.69-1.87,6.03-.56,12.03.69,17.92,1.81,3.08.26,6.26.03,9.35.11,7.52,0,15.07,0,22.6,0,.98-.02,2.15.08,3.12-.13.4-.16,1.18-.51,1.56-.71,2.93-1.56,5.44-3.91,7.79-6.22,4.47-4.16,8.98-10.33,15.59-10.56,8.99.39,15.31,12.96,23.38,16.87.89.53,2.07.86,3.12.74,1.25,0,2.65,0,3.9,0,3.62,0,7.29,0,10.91,0,3.56.15,8.87-5.48,11.69-7.66"/><path class="b" d="M17.68,199.48c5.7,0,11.44,0,17.14,0,3.89-.41,7.77-1.36,11.69-1.52,5.49-.37,10.97.56,16.36,1.45,2.57.16,5.22.02,7.79.07,6.48,0,13,0,19.48,0,2.05,0,4.19,0,6.23,0,3.64-1.06,6.57-3.83,9.35-6.28,4.51-3.92,9.07-9.61,15.59-9.41,9.22.96,14.82,12.94,23.38,15.69,4.92,0,9.88,0,14.81,0,.68,0,1.65,0,2.34,0,1.36-.48,2.73-1.35,3.9-2.19,3.04-2.24,5.72-5.04,8.57-7.52"/><path class="b" d="M17.68,197.52c7-.01,14.04.02,21.04-.01,3.34-.51,6.75-1.05,10.13-1.21,5.22-.3,10.44.45,15.59,1.2,2.57.08,5.22.01,7.79.03,6.48,0,13,0,19.48,0,1.78,0,3.67,0,5.45,0,3.59-.89,6.52-3.62,9.35-5.89,4.27-3.48,8.86-8.18,14.81-7.72,8.49.58,16.33,14.12,23.38,13.61,5.18,0,10.4,0,15.59,0,5.67-2.33,9.46-7.55,14.03-11.41"/><path class="b" d="M17.68,195.56c8.04,0,16.11,0,24.16,0,3.87-.39,7.78-1,11.69-.96,3.9-.01,7.82.45,11.69.92,4.66.09,9.37,0,14.03.04,5.96,0,11.96,0,17.92,0,1.37.18,2.72-.43,3.9-1.07,1.89-1.01,3.74-2.34,5.46-3.63,4.34-3.21,9.02-7.46,14.81-6.9,7.46,1.04,12.19,7.89,18.7,11.03.89.55,2.1.65,3.12.58.97,0,2.14,0,3.12,0,4.14,0,8.33,0,12.47,0,6.07-1.93,10.72-8.8,15.59-12.8"/><path class="b" d="M17.68,193.61c9.34,0,18.71,0,28.05,0,4.14-.22,8.31-.76,12.47-.53,2.58.06,5.22.39,7.79.53,5.44,0,10.92,0,16.36,0,3.88,0,7.81,0,11.69,0,1.25,0,2.65,0,3.9,0,1.01.03,2.21.04,3.12-.46,4.46-1.97,8.15-5.36,12.47-7.59,5.03-2.78,10.05-2.16,14.81.87,3.9,2.33,7.41,5.5,11.69,7.15,5.44.07,10.92,0,16.36.03,5.73.42,13.41-10.38,17.92-13.91"/><path class="b" d="M17.68,191.38c2,.51,4.19.17,6.23.26,3.62,0,7.29,0,10.91,0,5.44,0,10.92,0,16.36,0,3.36-.06,6.77-.32,10.13-.14,7.78.31,15.59.06,23.38.14,3.62,0,7.29,0,10.91,0,1.25,0,2.65,0,3.9,0,1.03.08,2.19-.07,3.12-.56,4.06-1.78,7.62-4.63,11.69-6.39,5.48-2.55,10.69-1.06,15.59,2,3.04,1.71,5.95,4.03,9.35,4.95,5.96-.01,11.96.02,17.92-.01,7.16-2.87,11.4-9.89,17.14-14.69"/><path class="b" d="M17.68,188.28c1.99.62,4.12,1.42,6.23,1.41,3.36,0,6.77,0,10.13,0,8.3,0,16.63,0,24.94,0,8.04,0,16.11,0,24.16,0,4.14,0,8.33,0,12.47,0,1.52,0,3.16,0,4.68,0,.99-.02,2.2.13,3.12-.33,4.02-1.57,7.62-4.17,11.69-5.61,5.83-2.26,11.26-.09,16.36,2.84,2,1.03,4.04,2.33,6.23,2.91.97.02,2.14.05,3.12.08,4.92.19,9.88.06,14.81.1,6.51-.64,13.57-11.09,18.7-15.15"/><path class="b" d="M17.68,184.8c3.01,1.24,6.2,2.16,9.35,2.93,2.57,0,5.22,0,7.79,0,6.48,0,13,0,19.48,0,5.7,0,11.44,0,17.14,0,2.57-.07,5.22-.34,7.79-.18,5.95.38,11.96.1,17.92.18,2.05,0,4.19,0,6.23,0,3.02-.6,5.74-2.41,8.57-3.57,6.85-3.26,12.09-2.51,18.7.84,1.5.72,3.13,1.51,4.68,2.13,1.52.04,3.16.05,4.68.11,3.62.09,7.29.43,10.91.49,2.33-.13,4.9.47,7.01-.74,6.59-3.37,10.79-9.86,16.36-14.53"/><path class="b" d="M17.68,181.01c2.27,1.03,4.69,1.9,7.01,2.78,2.02.73,4.12,1.59,6.23,1.98,8.56,0,17.15,0,25.72,0,3.62,0,7.29,0,10.91,0,3.08-.41,6.23-.9,9.35-.89,2.87-.06,5.75.47,8.57.89,5.44,0,10.92,0,16.36,0,.98,0,2.14,0,3.12,0,1.85-.47,3.69-1.34,5.46-2.06,6.18-2.81,11.48-3.67,17.92-1,1.8.64,3.61,1.61,5.45,2.13,1.52,0,3.16.02,4.68.08,4.15.14,8.33.45,12.47.7,4.17.32,5.66.53,9.35-1.96,5.3-3.57,9.18-8.86,14.03-12.95"/><path class="b" d="M17.68,177.05c2.29,1.05,4.72,2,7.01,3.05,2.78,1.29,5.62,2.65,8.57,3.5,1.21.39,2.65.14,3.9.21,1.79,0,3.67,0,5.46,0,5.44,0,10.92,0,16.36,0,1.78,0,3.67.01,5.45,0,2.57-.46,5.2-1.03,7.79-1.37,4.15-.61,8.42-.31,12.47.74,3,1,6.24.54,9.35.64,4.14-.04,8.33.09,12.47-.06,7.11-2.4,12.53-5.37,20.26-2.91,1.82.46,3.62,1.39,5.45,1.75,1.78-.01,3.67.03,5.45.1,4.41.18,8.85.56,13.25.83,2.33.07,4.86.79,7.01-.45,6.55-3.12,10.89-9.3,16.36-13.85"/><path class="b" d="M17.68,173.04c2.6,1.1,5.31,2.19,7.79,3.55,3.75,1.99,7.51,4.31,11.69,5.27,8.04,0,16.11,0,24.16,0,5.18-.88,10.27-2.78,15.59-2.62,4.03.02,7.89,1.4,11.69,2.6,5.96.07,11.96,0,17.92.02,2.41-.06,4.7-1.36,7.01-1.95,3.24-1.03,6.74-1.6,10.13-1.12,2.1.27,4.23.88,6.23,1.53,1.77.21,3.67.06,5.45.19,6.49.31,13,.91,19.48,1.35,6.82.07,14.31-9.75,19.48-13.81"/><path class="b" d="M17.68,169.13c2.37.86,4.81,1.81,7.01,3.04,4.36,2.46,8.48,5.55,13.25,7.2,1.21.53,2.6.58,3.9.52,1.25,0,2.64,0,3.9,0,3.88,0,7.81,0,11.69,0,1.85.15,3.69-.51,5.45-.97,3.07-.86,6.19-1.86,9.35-2.35,3.91-.66,7.97-.19,11.69,1.16,2.07.64,4.1,1.78,6.23,2.17,5.96,0,11.96,0,17.92,0,3.9-.75,7.66-2.5,11.69-2.68,1.79-.13,3.69,0,5.45.3,1.26.17,2.62.7,3.9.75,8.85.01,17.65,1.48,26.49,1.63,6.61-.22,13.66-8.88,18.7-12.82"/><path class="b" d="M17.68,165.47c8,1.76,13.68,8.2,21.04,11.34,1.46.6,3.06,1.29,4.68,1.13,2.31,0,4.7,0,7.01,0,2.05,0,4.19,0,6.23,0,3.7-.83,7.28-2.26,10.91-3.34,9.69-2.97,13.95-.54,22.6,3.17,1.75.36,3.68.08,5.45.17,2.83,0,5.74,0,8.57,0,2.06.03,4.2.02,6.23-.36,2.07-.38,4.15-1.15,6.23-1.5,3.33-.7,6.8-.57,10.13.06,10.16.06,20.22,2.16,30.39,1.8,6.78-1.42,11.85-7.55,17.14-11.65"/><path class="b" d="M17.68,162.17c4.7.6,8.79,3.16,12.47,6,4.29,3.14,8.74,6.6,14.03,7.8,2.31,0,4.7,0,7.01,0,.98,0,2.14,0,3.12,0,1-.2,2.15-.54,3.12-.84,7.97-2.63,15.66-7,24.16-3.57,3.22,1.16,6.16,3.09,9.35,4.3,3.86.28,7.81.03,11.69.11,3.13.14,6.26-.64,9.35-1.03,2.83-.36,5.73-.81,8.57-1.02,6.77-.13,13.54.61,20.26,1.42,5.93.8,11.95.67,17.92.59,6.08-1.83,10.69-6.52,15.59-10.32"/><path class="b" d="M17.68,159.35c7.23.04,12.39,5.7,17.92,9.57,3.07,2.19,6.44,4.19,10.13,5.09,2.05,0,4.19,0,6.23,0,1.29-.17,2.66-.66,3.9-1.07,7.69-2.73,15.82-7.75,24.16-4.55,3.57,1.21,6.73,3.44,10.13,5.02.92.51,2.08.69,3.12.6,1.25,0,2.65,0,3.9,0,1.78-.02,3.67.04,5.45-.04,2.84-.43,5.73-.96,8.57-1.38,4.62-.7,9.35-1.02,14.03-.73,5.48.31,10.92,1.28,16.36,1.88,2.56.37,5.22.25,7.79.26,3.36,0,6.77,0,10.13,0,5.71-1.36,10.2-5.59,14.81-8.99"/><path class="b" d="M17.68,157.07c4.36-.52,8.34,1.47,11.69,4.08,3.11,2.32,6.1,4.92,9.35,7.05,8.98,5.82,11.87,4.35,21.04.32,9.34-4.39,15.67-6,24.94-.26,2.02,1.18,4.08,2.53,6.23,3.46.9.5,2.13.32,3.12.35,2.05-.04,4.19.1,6.23-.08,4.4-.72,8.81-1.71,13.25-2.17,8.63-1.07,17.21.81,25.72,1.99,4.37.53,8.85.14,13.25.25,2.83,0,5.74,0,8.57,0,4.96-1.38,9.12-4.65,13.25-7.59"/><path class="b" d="M17.68,155.36c5.1-1.24,9.38,1.31,13.25,4.34,3.78,2.89,7.45,6.08,11.69,8.29,1.7.89,3.59,1.64,5.45,2.12,2.68-.53,5.3-1.63,7.79-2.73,9.4-4.41,16.51-8.51,26.49-2.6,2.09,1.17,4.16,2.59,6.23,3.8,1.19.59,2.52,1.57,3.9,1.54,1.78-.04,3.68.1,5.45-.08,4.15-.73,8.29-1.76,12.47-2.33,8.89-1.47,17.75.66,26.49,2.12,4.05.6,8.36.16,12.47.29,4.14,0,8.33,0,12.47,0,1.61,0,3.22-.9,4.68-1.51,2.72-1.3,5.29-3.04,7.79-4.71"/><path class="b" d="M17.68,154.19c5.39-1.92,9.83.7,14.03,3.87,3.78,2.81,7.46,5.92,11.69,8.04,1.46.61,3.06,1.67,4.68,1.58,2.11-.62,4.24-1.5,6.23-2.43,8.64-4.14,16.23-8.94,25.72-3.79,3.77,1.88,7.05,4.71,10.91,6.41.66.34,1.62.27,2.34.27,1.55.09,3.18-.13,4.68-.51,2.84-.61,5.72-1.33,8.57-1.88,6.95-1.49,14.15-1,21.04.56,3.09.64,6.23,1.34,9.35,1.81,2.83.02,5.74,0,8.57,0,6.22,0,12.48.02,18.7,0,3.62-1,6.95-2.95,10.13-4.9"/><path class="b" d="M17.68,153.52c5.64-2.52,10.23.03,14.81,3.31,4.23,3,8.39,6.32,13.25,8.24,1.03.6,2.11.24,3.12-.19,1.55-.58,3.18-1.31,4.68-2.03,9.67-4.87,16.92-9.26,27.27-2.85,3.4,1.95,6.49,4.57,10.13,6.07,1.8.33,3.71-.03,5.45-.48,10.43-2.72,17.2-4.46,28.05-1.82,2.58.57,5.21,1.25,7.79,1.81,1.5.32,3.13.7,4.68.6,6.74,0,13.52,0,20.26,0,2.83,0,5.74,0,8.57,0,3.01-.75,5.86-2.22,8.57-3.71"/><path class="b" d="M17.68,153.26c5.48-2.82,10.03-.94,14.81,2.19,4.28,2.76,8.45,5.9,13.25,7.71,1.05.22,2.15-.5,3.12-.83,1.55-.64,3.18-1.43,4.68-2.18,11.8-6.27,17.93-8.49,29.61-.29,2.49,1.56,4.93,3.58,7.79,4.37,1.84.1,3.69-.58,5.45-1.01,9.67-2.87,16.44-4.46,26.5-1.74,2.55.7,5.19,1.32,7.79,1.82,2.03.42,4.14,1.07,6.23.93,7,0,14.04,0,21.04,0,3.1,0,6.25,0,9.35,0,2.52-.48,5.03-1.55,7.01-3.2"/><path class="b" d="M17.68,153.27c4.98-2.73,9.26-1.93,14.03.72,4.39,2.39,8.55,5.34,13.25,7.1,1.9-.12,3.71-1.31,5.45-2.01,2.86-1.36,5.69-2.94,8.57-4.25,8.64-4.11,14.93-2.7,22.6,2.54,1.77,1.16,3.62,2.43,5.45,3.5,1.17.61,2.51,1.53,3.9,1.4,4.5-.81,8.79-2.65,13.25-3.65,6.77-1.79,13.7-.74,20.26,1.38,2.86.46,5.76,1.05,8.57,1.73,2,.6,4.16.57,6.23.54,6.48,0,13,0,19.48,0,3.09-.04,6.26.07,9.35-.05,2.24-.75,4.37-2.04,6.23-3.47"/><path class="b" d="M17.68,153.42c2.83-1.52,6.15-2.44,9.35-1.69,6.11,1.43,11.23,5.49,17.14,7.48,5.72-1.8,10.75-5.32,16.36-7.37,10.21-3.94,16.73,1.5,24.94,6.67,4.13,2.62,4.97,1.9,9.35.56,4.09-1.32,8.19-2.89,12.47-3.47,3.35-.47,6.83-.25,10.13.51,2.6.52,5.13,1.67,7.79,1.85,3.67.53,7.27,1.67,10.91,2.34,3.62,0,7.29,0,10.91,0,4.92,0,9.88,0,14.81,0,1.78-.01,3.67.03,5.45-.03,2.52-.78,4.9-2.16,7.01-3.71"/><path class="b" d="M17.68,153.55c7.84-4.26,13.67-.93,21.04,2.2,1.5.52,3.07,1.48,4.68,1.51,1-.33,2.15-.78,3.12-1.18,5.93-2.45,11.44-6.35,17.92-7.21,11.8-1.65,20.22,11.35,26.5,9.25,5.72-1.56,11.17-4.36,17.14-4.9,4.5-.47,9.01.56,13.25,2.01,3.13.39,6.31.86,9.35,1.73,2.04.48,4.15,1.17,6.23,1.38,3.88,0,7.81,0,11.69,0,4.92,0,9.88,0,14.81,0,.97,0,2.15,0,3.12,0,2.79-.74,5.43-2.2,7.79-3.83"/><path class="b" d="M17.68,153.51c7.54-3.62,12.9-1.65,20.26.95,1.24.4,2.61.92,3.9,1.16,1.55-.46,3.19-1.07,4.68-1.71,6.3-2.63,12.4-6.88,19.48-6.73,5.48.12,10.29,3.18,14.81,5.97,1.98,1.19,4.05,2.47,6.23,3.25.98-.01,2.14.03,3.12-.05,6.49-1.73,12.62-5.3,19.48-5.36,3.44-.07,6.89.73,10.13,1.82,1.75.4,3.7.3,5.45.73,3.14.6,6.25,1.6,9.35,2.35,2,.64,4.17.51,6.23.5,3.1,0,6.25,0,9.35,0,5.18,0,10.4,0,15.59,0,3.07-.56,5.94-2.17,8.57-3.79"/><path class="b" d="M17.68,153.16c7.29-2.85,12.21-1.9,19.48.1.98.25,2.13.54,3.12.76,2.11-.51,4.24-1.29,6.23-2.13,6.68-2.79,13.49-7.22,21.04-5.9,6.35,1.05,11.4,5.45,17.14,8.01,1.16.62,2.63.4,3.9.44,1.31.13,2.68-.27,3.9-.71,1.53-.51,3.17-1.14,4.68-1.72,4.22-1.65,8.66-3.18,13.25-3.04,2.91.04,5.81.79,8.57,1.64,5.09-.06,9.96,1.76,14.81,3.06.97.26,2.14.54,3.12.74,1.25.05,2.65.02,3.9.03,3.1,0,6.25,0,9.35,0,5.18,0,10.4.02,15.59-.01,3-.72,5.9-2.05,8.57-3.57"/><path class="b" d="M17.68,152.38c7.07-1.99,11.6-1.75,18.7-.34,1.29.26,2.62.55,3.9.07,2.1-.51,4.23-1.26,6.23-2.08,7.1-2.97,14.71-7.32,22.6-4.82,5.3,1.49,9.75,4.99,14.81,7.03,1.2.43,2.65.16,3.9.23.98-.02,2.15.06,3.12-.09.99-.28,2.15-.66,3.12-1.01,5.74-2.15,11.64-4.9,17.92-4.22,1.82.14,3.69.63,5.45,1.05,3.15-.15,6.34.48,9.35,1.35,3.35.97,6.71,2.18,10.13,2.88,3.36.07,6.77,0,10.13.03,5.7,0,11.44,0,17.14,0,1.29.11,2.68-.25,3.9-.65,2.12-.66,4.25-1.58,6.23-2.57"/><path class="b" d="M17.68,150.52c1.52-.02,3.16.04,4.68-.04,1.51-.2,3.15-.33,4.68-.35,3.37-.05,6.76.53,10.13.39,3.51.19,6.89-1.28,10.13-2.46,6.62-2.71,13.76-6.18,21.04-4.06,3.57.93,6.87,2.76,10.13,4.43,1.97.88,3.99,2.3,6.23,2.1,2.31-.06,4.72.13,7.01-.09,6.89-2.05,13.61-5.99,21.04-4.97.7.08,1.65.23,2.34.38.97.03,2.14-.1,3.12-.05,1.81.06,3.7.37,5.46.81,3.15.79,6.24,2,9.35,2.93,1.75.5,3.61,1.14,5.45.99,6.48,0,13,0,19.48,0,2.57,0,5.22,0,7.79,0,2.95-.43,5.82-1.59,8.57-2.7"/><path class="b" d="M17.68,148.56c7,0,14.04,0,21.04,0,3.23.11,6.34-1.29,9.35-2.31,7.18-2.82,14.13-5.56,21.82-2.76,2.66.89,5.25,2.18,7.79,3.36,1.49.61,3.06,1.54,4.68,1.71,3.1,0,6.25,0,9.35,0,1.58.01,3.18-.81,4.68-1.27,2.56-.93,5.16-1.97,7.79-2.68,1.75-.47,3.64-.82,5.46-.91,1.53-.08,3.17.14,4.68-.2,7.96-1.1,14.99,3.9,22.6,5.06,7,0,14.04,0,21.04,0,3.09-.04,6.26.09,9.35-.06,2.36-.48,4.74-1.21,7.01-2.01"/><path class="b" d="M17.68,146.6c5.44,0,10.92,0,16.36,0,1.79,0,3.67,0,5.46,0,1.55.07,3.19-.03,4.68-.52,6.44-1.7,12.67-5.03,19.48-4.72,5.25.17,10.02,2.63,14.81,4.53,1.93.97,4.15.69,6.23.71,3.1-.03,6.26.07,9.35-.05,4.69-1.28,9.18-3.46,14.03-4.17,2.52-.74,5.14-1.46,7.79-1.38,4.63.05,8.99,1.91,13.25,3.52,2.51.84,5.1,2.11,7.79,2.08,7.26,0,14.56,0,21.82,0,3.36-.02,6.77.05,10.13-.03,1.8-.34,3.69-.82,5.46-1.31"/><path class="b" d="M17.68,144.64c5.96,0,11.96,0,17.92,0,2.05,0,4.19,0,6.23,0,1.56.1,3.19-.14,4.68-.6,5.86-1.58,11.73-4.08,17.92-3.57,3.77.26,7.4,1.57,10.91,2.88,1.24.45,2.62.98,3.9,1.29,1.25,0,2.65,0,3.9,0,3.88,0,7.81,0,11.69,0,3.86-.3,7.39-2.4,10.91-3.86,3.41-1.47,7.18-2.39,10.91-1.95,4.37.47,8.42,2.41,12.47,3.99,2.25.78,4.59,1.94,7.01,1.82,7.78,0,15.59,0,23.38,0,2.57,0,5.22,0,7.79,0,2.34.06,4.74.03,7.01-.6"/><path class="b" d="M17.68,142.68c9.34,0,18.71,0,28.05,0,3.95-.38,7.76-2.02,11.69-2.66,3.32-.65,6.8-.77,10.13-.16,3.44.59,6.77,1.87,10.13,2.8,3.62.08,7.29,0,10.91.03,2.31,0,4.7,0,7.01,0,7.08-2.36,13.06-7.35,21.04-5.86,5.74.96,10.79,4.22,16.36,5.73,1.76.3,3.68.07,5.45.14,3.1,0,6.25,0,9.35,0,8.82,0,17.67,0,26.5,0"/><path class="b" d="M17.68,140.73c7.78,0,15.59,0,23.38,0,2.84,0,5.74.01,8.57,0,2.84-.55,5.71-1.28,8.57-1.72,3.59-.59,7.33-.58,10.91.1,2.34.42,4.7,1.08,7.01,1.63,3.1,0,6.25,0,9.35,0,2.05,0,4.19,0,6.23,0,.98,0,2.14.02,3.12-.04.71-.24,1.65-.62,2.34-.91,6.98-3.28,13.05-7.03,21.04-4.47,3.48,1.02,6.77,2.74,10.13,4.07,2.54.6,5.15,1.51,7.79,1.35,12.72,0,25.46,0,38.18,0"/><path class="b" d="M17.68,138.77c8.3,0,16.63,0,24.94,0,2.84,0,5.74,0,8.57,0,3.11-.39,6.24-1.02,9.35-1.37,4.39-.55,8.89-.5,13.25.24,2.06.3,4.17.88,6.23,1.13,4.4,0,8.85,0,13.25,0,3.55-1.03,6.73-3.17,10.13-4.6,4.64-2.21,9.98-2.62,14.81-.76,2.11.72,4.19,1.76,6.23,2.63,1.8.3,3.68.73,5.45,1.15,2.3.55,4.68,1.13,7.01,1.53,2.57.1,5.22.01,7.79.04,9.86,0,19.75,0,29.61,0"/><path class="b" d="M17.68,136.81c9.86,0,19.75,0,29.61,0,4.46-.32,8.82-1.81,13.25-2.43,3.58-.59,7.3-.76,10.91-.27,3.97.47,7.79,1.88,11.69,2.7,1.78,0,3.67,0,5.45,0,1.25-.06,2.68.16,3.9-.18,7.91-3.19,14.23-9.06,23.38-6.02,2.42.64,4.64,2.08,7.01,2.81,5.02.27,9.9,1.76,14.81,2.74,4.6,1.1,9.28.52,14.03.65,7.52,0,15.07,0,22.6,0"/><path class="b" d="M17.68,134.85c3.12.17,6.24-.61,9.35-.41,5.69.62,11.43.37,17.14.41,2.36.11,4.73-.68,7.01-1.2,4.12-1.05,8.24-2.37,12.47-2.93,4.43-.63,8.99-.12,13.25,1.22,2.07.63,4.19,1.43,6.23,2.13,1.22.43,2.58.91,3.9.77.98,0,2.14,0,3.12,0,1.9-.5,3.73-1.54,5.45-2.45,5.39-3.09,11.52-6.49,17.92-4.66,2.72.68,5.32,1.97,7.79,3.27,3.91-.24,7.87.24,11.69,1.1,5.39,1.16,10.82,2.62,16.36,2.75,8.3-.07,16.64.15,24.94-.09"/><path class="b" d="M17.68,132.2c8.87-2.09,10.88-1.23,19.48.67,2.31.01,4.71.06,7.01-.03,1.26-.23,2.66-.56,3.9-.89,7.19-1.89,14.22-5.44,21.82-4.92,4.36.26,8.51,1.92,12.47,3.67,1.76.77,3.63,1.59,5.45,2.17,1.35.08,2.69-.83,3.9-1.35,11.49-6.41,16.16-10.32,28.83-2.84,8.53-1.5,15.18.86,23.38,2.47,4.09.88,8.33.79,12.47,1.27,2.56.44,5.2.53,7.79.46,3.37.11,6.77-.34,10.13-.55"/><path class="b" d="M17.68,128.64c9.56-3.13,11.96-1.36,21.04,1.42,1.24.33,2.61.83,3.9.87,1.54-.26,3.18-.68,4.68-1.13,7.25-2.1,14.1-6.29,21.82-6.31,4.69-.02,9.15,1.82,13.25,3.95,1.51.77,3.14,1.63,4.68,2.36,1.08.75,2.12.15,3.12-.4,5.29-2.74,10.21-6.95,16.36-7.46,3.54-.29,7.04.96,10.13,2.61.99.52,2.15,1.19,3.12,1.76.72.24,1.64-.15,2.34-.32,5.63-1.53,11.56-.74,17.14.61,3.08.7,6.22,1.45,9.35,1.87,2.83.36,5.77.36,8.57.96,2.32.38,4.68,1.07,7.01,1.3,3.36-.31,6.77-.7,10.13-.93"/><path class="b" d="M17.68,124.61c2.03-.68,4.12-1.55,6.23-1.94,5.8-.89,11.11,2.39,16.36,4.31,1.49.45,3.09,1.41,4.68,1.27,2.37-.66,4.75-1.57,7.01-2.54,7.6-3.37,15.73-7.71,24.16-4.53,4.17,1.43,7.86,4,11.69,6.12,1.12.06,2.16-.91,3.12-1.39,1.79-1.08,3.65-2.29,5.45-3.34,9.13-5.53,14.91-3.65,23.38,1.77,12.36-5.53,19.91-.41,31.95.86,3.17.21,6.3,1.06,9.35,1.88,1.51.31,3.12,1.07,4.68.98,2.83-.34,5.73-.7,8.57-.91"/><path class="b" d="M17.68,120.25c2.74-1.09,5.55-2.56,8.57-2.47,3.59.09,6.96,1.69,10.13,3.23,3.3,1.63,6.64,3.35,10.13,4.52,5.18-1.58,9.81-4.65,14.81-6.69,10.96-4.82,17.5-.59,26.49,5.53.8-.12,1.67-.76,2.34-1.16,1.25-.78,2.64-1.68,3.9-2.45,4.56-2.93,10.13-5.36,15.59-3.65,2.18.61,4.3,1.69,6.23,2.85.7.42,1.65,1.02,2.34,1.46.33.31,1.09.64,1.56.56,8.13-4.43,14.58-4.52,23.38-2.22,2.3.54,4.68,1.12,7.01,1.49,1.79.25,3.7.43,5.45.89,2.35.58,4.72,1.38,7.01,2.12,1.49.38,3.1,1.31,4.68.97,2.3-.33,4.69-.65,7.01-.82"/><path class="b" d="M17.68,115.73c3.16-1.49,6.53-3.28,10.13-2.66,3.64.53,6.95,2.39,10.13,4.13,3.53,1.97,7.12,3.99,10.91,5.4,6.28-2.72,11.93-7.13,18.7-8.62,7.7-1.82,14.43,3.15,20.26,7.49,12.74-8.25,17.87-10.97,31.17-1.47,8.59-5.23,14.22-6.81,24.16-4.21,2.31.55,4.68,1.19,7.01,1.64,2.07.34,4.24.67,6.23,1.32,3.68,1.08,7.22,2.76,10.91,3.79,2.3-.39,4.69-.76,7.01-.95"/><path class="b" d="M17.68,111.25c3.13-1.6,6.49-3.49,10.13-2.92,3.96.53,7.51,2.65,10.91,4.62,4.03,2.34,8.05,4.94,12.47,6.5,8.42-4.43,17.4-12.03,27.27-7.06,2.19,1.03,4.3,2.45,6.23,3.9.98.63,1.94,1.79,3.12,2.02,7.42-4.67,14.56-9.41,23.38-4.98,1.58.75,3.21,1.72,4.68,2.68.98.54,1.97,1.61,3.12,1.73,8.41-6.1,14.6-8.55,24.94-5.63,2.05.52,4.17,1.13,6.23,1.6,2.35.46,4.77.98,7.01,1.83,3.67,1.24,7.19,3.08,10.91,4.15,2.03-.4,4.17-.76,6.23-.96"/><path class="b" d="M17.68,106.99c3.6-2.02,7.46-3.97,11.69-2.88,3.94.88,7.48,3.08,10.91,5.13,4.27,2.55,8.54,5.33,13.25,7,13.63-8.44,19.94-12.41,33.51-.8,1.09-.22,2.14-1.08,3.12-1.59,1.74-1,3.61-2.03,5.45-2.82,8.72-3.99,15.42-.36,22.6,4.71,1.7-.73,3.11-2.27,4.68-3.26,2.39-1.7,5-3.28,7.79-4.21,5.37-1.91,11.11-.54,16.36,1.08,3.07.97,6.33,1.52,9.35,2.66,3.93,1.45,7.77,3.28,11.69,4.77.71.12,1.65-.16,2.34-.3,1.24-.25,2.64-.48,3.9-.62"/><path class="b" d="M17.68,103.14c4.68-2.72,8.62-4.34,14.03-2.5,4.17,1.37,7.93,3.8,11.69,6.01,3.99,2.4,8.11,4.73,12.47,6.4,7.12-4.46,14.88-9.81,23.38-5.38,1.61.79,3.24,1.85,4.68,2.92.99.65,1.97,1.78,3.12,2.13,7.64-4.26,14.84-7.67,23.38-3.42,1.58.74,3.21,1.69,4.68,2.62.98.56,2.02,1.5,3.12,1.8,8.96-7.64,15.16-12.27,27.27-8.1,3.86,1.32,7.9,2.25,11.69,3.76,3.91,1.48,7.7,3.47,11.69,4.76,1.76-.46,3.65-.88,5.46-1.13"/><path class="b" d="M17.68,99.83c5.3-3.08,9.57-4.43,15.59-2.32,8.72,3.2,16.14,9.24,24.94,12.29,2.41-1.01,4.58-2.76,7.01-3.76,8.15-3.97,14.54-1.17,21.04,4.26,12.92-6.26,18.97-6.67,31.17,1.45.87-.23,1.67-1.14,2.34-1.7,1.23-1.08,2.62-2.29,3.9-3.31,3.57-2.88,7.77-5.44,12.47-5.65,4.6-.24,8.99,1.54,13.25,3.03,6.68,1.96,12.94,5.1,19.48,7.42,1.76-.54,3.64-1.03,5.46-1.33"/><path class="b" d="M17.68,97.16c4.38-2.46,8.95-4.13,14.03-3.02,7.58,1.58,14.1,6.1,21.04,9.3,1.76.84,3.64,1.68,5.45,2.39.96.33,2.08.93,3.12.92,9.11-5.55,15.7-5.57,24.16,1.15,2.39-.41,4.66-1.7,7.01-2.31,4.25-1.36,8.88-1.93,13.25-.83,2.71.65,5.35,1.83,7.79,3.15,1.27.57,2.51,1.71,3.9,1.93,6.23-5.67,13.35-13.04,22.6-11.04,3.22.59,6.31,1.9,9.35,3.07,2.56.98,5.25,1.87,7.79,2.9,3.61,1.42,7.25,2.91,10.91,4.21.74.2,1.65-.25,2.34-.46,1.23-.4,2.63-.78,3.9-1.04"/><path class="b" d="M17.68,95.18c3.17-1.58,6.55-3.07,10.13-3.3,8.66-.54,16.49,4.08,24.16,7.48,2.79,1.29,5.68,2.55,8.57,3.61,1.5.43,3.2,1.62,4.68.57,7.11-3.46,13.24-2.29,19.48,2.29,2.89-.36,5.7-1.55,8.57-2.06,8.7-2.05,15.79.13,23.38,4.4,6.73-5.76,13.48-13.82,23.38-11.43,3.79.82,7.33,2.59,10.91,4.01,5.67,2.16,11.36,4.36,17.14,6.2,2.02-.77,4.13-1.6,6.23-2.1"/><path class="b" d="M17.68,93.9c14.27-7.2,25.5-1.31,38.96,4.17,3.31,1.34,6.71,2.62,10.13,3.64,1.55-.02,3.11-.86,4.68-.95,3.78-.55,7.64.56,10.91,2.44.35.24,1.15.63,1.56.76,1.26-.09,2.66-.29,3.9-.52,2.04-.36,4.18-.74,6.23-1,7.7-1.16,14.91.54,21.82,3.94.87-.26,1.68-1.2,2.34-1.77.97-.9,2.13-1.96,3.12-2.84,3.57-3.16,7.61-6.35,12.47-7.03,5.82-.8,11.2,2.25,16.36,4.47,5.55,2.36,11.33,4.25,17.14,5.85,2.32-.84,4.61-2.05,7.01-2.68"/><path class="b" d="M17.68,93.26c16.39-6.99,28.08-2.24,43.64,3.69,2.81,1.04,5.7,2.05,8.57,2.88,1.21.49,2.64.07,3.9.13,1.82.02,3.74.39,5.45,1,1.25.39,2.54,1.29,3.9,1.22,4.15.15,8.32-.57,12.47-.72,6.65-.43,13.32.81,19.48,3.3.49-.09,1.23-.62,1.56-.98.98-.87,2.14-1.92,3.12-2.8,3.04-2.69,6.28-5.44,10.13-6.87,7.03-2.76,14,1.41,20.26,4.28,5.21,2.36,10.79,3.89,16.36,5.12,2.53-1.24,5.1-2.61,7.79-3.49"/><path class="b" d="M17.68,93.17c20-6.84,30.1-3.77,49.09,3.29,5.8,2.03,11.77,3.86,17.92,4.36,4.92.35,9.88-.12,14.81.07,5.01.12,10.02.97,14.81,2.43,3.29-2.2,6.03-5.32,9.35-7.52,8.37-6.09,14.98-3.72,23.38.62,5.58,2.95,11.7,4.75,17.92,5.75,1.12.07,2.14-.91,3.12-1.34,1.99-1.09,4.11-2.19,6.23-2.99"/><path class="b" d="M17.68,93.47c14.23-3.71,25.14-6.73,39.74-2.15,8.86,2.63,17.33,6.71,26.49,8.25,5.65.97,11.44.65,17.14.91,2.58.11,5.23.32,7.79.69,1.52.14,3.14.71,4.68.65,4.49-3.45,8.64-7.71,14.03-9.74,8-3.11,15.56,2.42,22.6,5.57,4.4,2.03,9.24,3,14.03,3.58,3.39-1.74,6.59-4,10.13-5.44"/><path class="b" d="M17.68,94.01c7.07-1.26,13.97-3.4,21.04-4.63,13.44-2.47,23.59,1.95,35.85,6.47,5.03,1.78,10.25,3.29,15.59,3.73,7.26.51,14.58.33,21.82,1.06,8.47-6.2,15.2-13.56,26.49-8.7,5.27,2.13,10.09,5.41,15.59,6.98,1.75.5,3.65.86,5.46,1.11,1.24.08,2.69.57,3.9.13,3.63-2.05,7.11-4.51,10.91-6.25"/><path class="b" d="M17.68,94.59c9.29-.98,18.04-4.61,27.27-5.82,14.5-2.1,26.25,5.92,39.74,9.2,5.08,1.28,10.38,1.37,15.59,1.42,2.05.02,4.19.03,6.23.07,1.25-.06,2.71.33,3.9-.16,7.05-4.63,14.2-11.82,23.38-9.21,5.25,1.37,9.85,4.49,14.81,6.61,4.09,1.76,8.79,2.99,13.25,2.77,4.27-2.19,8.15-5.18,12.47-7.29"/><path class="b" d="M17.68,95.03c3.66-.32,7.35-.81,10.91-1.72,5.46-1.34,10.82-3.23,16.36-4.24,15.51-3.18,26.27,4.89,40.52,8.31,6.62,1.57,13.51,1.22,20.26,1.19.38,0,1.17-.01,1.56-.02,1.07-.31,2.17-1.08,3.12-1.65,1.81-1.14,3.66-2.45,5.45-3.61,5.48-3.73,11.38-5.93,17.92-3.58,6.91,2.38,12.97,7.03,20.26,8.36,1.23.23,2.64.41,3.9.52.99.07,2.23.3,3.12-.27,4.64-2.15,8.7-5.43,13.25-7.74"/><path class="b" d="M17.68,95.15c5.27-.18,10.52-1.06,15.59-2.52,7.37-2.05,14.84-4.7,22.6-4.24,7.34.34,14.19,3.28,21.04,5.65,5.51,1.94,11.28,3.38,17.14,3.47,3.36.12,6.77.07,10.13-.01,3.11-.79,5.83-2.87,8.57-4.48,4.63-2.96,9.89-5.91,15.59-5.14,5.63.72,10.5,3.96,15.59,6.24,4.38,2.08,9.17,3.33,14.03,3.47.73.13,1.67-.27,2.34-.53,1.29-.51,2.69-1.21,3.9-1.89,3.42-1.93,6.65-4.3,10.13-6.11"/><path class="b" d="M17.68,94.82c4.97-.05,9.97-.6,14.81-1.79,5.46-1.28,10.82-3.16,16.36-4.11,5.15-.92,10.5-.72,15.59.53,7.59,1.83,14.81,5.21,22.6,6.23,2.84,0,5.74,0,8.57,0,2.57-.08,5.24.18,7.79-.13,8.22-3.08,15.47-10.78,24.94-8.49,9.07,2.11,16.76,9.45,26.49,8.62,1.74-.12,3.81.29,5.45-.27,5.05-1.83,9.29-5.32,14.03-7.78"/><path class="b" d="M17.68,93.72c4.42.03,8.89.11,13.25-.72,6.31-1,12.41-3.08,18.7-4.14,5.15-.9,10.49-.74,15.59.4,5.5,1.19,10.84,3.18,16.36,4.25,2.02.4,4.19.14,6.23.21,3.62,0,7.29,0,10.91,0,.98,0,2.14,0,3.12,0,1.87-.56,3.73-1.47,5.46-2.37,7.06-3.9,13.52-7.83,21.82-4.9,6.11,2.05,11.56,5.91,17.92,7.24,2.04.06,4.19.01,6.23.03,2.31,0,4.7,0,7.01,0,5.07-1.63,9.32-5.06,14.03-7.45"/><path class="b" d="M17.68,91.76c5.44-.07,10.93.15,16.36-.09,5.23-.74,10.37-2.15,15.59-2.99,5.67-.98,11.52-.81,17.14.39,3.9.78,7.78,1.88,11.69,2.6,3.87.22,7.81.02,11.69.09,3.62-.07,7.31.15,10.91-.1,2.98-.96,5.79-2.52,8.57-3.94,6.44-3.49,12.44-5.02,19.48-2.13,5.22,1.9,10.03,5.33,15.59,6.17,2.83,0,5.74,0,8.57,0,2.57-.02,5.22.05,7.79-.03,4.73-1.56,8.8-4.64,13.25-6.8"/><path class="b" d="M17.68,89.8c7.26,0,14.56.01,21.82,0,3.89-.55,7.79-1.34,11.69-1.81,5.7-.75,11.51-.42,17.14.62,2.57.37,5.19,1.16,7.79,1.2,5.44,0,10.92,0,16.36,0,2.31,0,4.7,0,7.01,0,4.67-1.18,8.76-4.02,13.25-5.7,6.16-2.58,12.05-1.62,17.92,1.19,3.57,1.61,7.11,3.48,10.91,4.48,3.88.08,7.81,0,11.69.03,2.57,0,5.22,0,7.79,0,4.74-1.04,8.81-4.33,13.25-6.21"/><path class="b" d="M17.68,87.85c9.08,0,18.19,0,27.27,0,3.36-.34,6.76-.84,10.13-.98,4.94-.27,9.91.22,14.81.89,2.3.21,4.71.04,7.01.09,4.92,0,9.88,0,14.81,0,1.52,0,3.16,0,4.68,0,.98-.03,2.17.12,3.12-.18,4.57-1.44,8.71-4.05,13.25-5.56,6.22-2.26,12.18-.68,17.92,2.1,2.79,1.27,5.62,2.64,8.57,3.5,1.49.3,3.16.08,4.68.14,2.57,0,5.22,0,7.79,0,3.1,0,6.26,0,9.35,0,1.62.06,3.21-.91,4.68-1.5,2.85-1.32,5.66-2.93,8.57-4.13"/><path class="b" d="M17.68,85.89c12.72-.1,25.47.2,38.18-.14,5.44-.09,10.92.26,16.36.14,5.7,0,11.44,0,17.14,0,3.09-.08,6.28.18,9.35-.12,4.56-1.36,8.72-3.86,13.25-5.29,5.84-2.03,11.7-.72,17.14,1.82,2.8,1.22,5.63,2.59,8.57,3.45,4.3.34,8.9.03,13.25.13,3.62,0,7.29,0,10.91,0,4.37-.93,8.24-3.6,12.47-5.01"/><path class="b" d="M17.68,83.93c18.18,0,36.37,0,54.55,0,8.56-.09,17.17.18,25.72-.1,4.27-1.2,8.24-3.34,12.47-4.65,5.8-1.98,11.65-.97,17.14,1.45,2.81,1.15,5.64,2.46,8.57,3.28,4.66.07,9.37,0,14.03.03,2.83,0,5.74,0,8.57,0,1.78-.09,3.74.27,5.45-.33,3.41-1.11,6.69-2.72,10.13-3.74"/><path class="b" d="M17.68,81.97c17.92,0,35.85,0,53.77,0,8.3,0,16.63,0,24.94,0,4.28-.9,8.26-2.94,12.47-4.1,5.38-1.71,11.18-1.09,16.36.98,2.83,1.03,5.67,2.27,8.57,3.08,5.18.12,10.4,0,15.59.05,5.18-.09,10.42.18,15.59-.11,3.12-.85,6.2-2.06,9.35-2.8"/><path class="b" d="M17.68,79.86c17.39.22,34.81.16,52.21.16,8.56-.06,17.16.11,25.72-.06,3.95-.92,7.76-2.49,11.69-3.46,5.13-1.4,10.59-.99,15.59.74,2.84.9,5.68,2.06,8.57,2.79,5.44-.02,10.92,0,16.36,0,6.22,0,12.48,0,18.7,0,2.59-.47,5.19-1.28,7.79-1.71"/><path class="b" d="M17.68,76.3c2.84-.28,5.77-.07,8.57.47,2.32.36,4.67,1.12,7.01,1.29,10.38,0,20.79,0,31.17,0,9.34,0,18.71,0,28.05,0,1.56.08,3.18-.46,4.68-.82,2.57-.68,5.19-1.49,7.79-2.06,4.86-1.17,10-1.06,14.81.3,2.86.75,5.71,1.78,8.57,2.51,1.78.2,3.67-.23,5.45-.27,2.57-.16,5.23-.12,7.79.12,2.56.34,5.22.19,7.79.22,2.84.08,5.74-.17,8.57-.11,3.09.19,6.25.09,9.35.11,2.34.14,4.71-.34,7.01-.64"/><path class="b" d="M17.68,71.96c6.81-1.12,13.03,2.58,19.48,4.04,1.77.2,3.67.05,5.45.09,11.16,0,22.34,0,33.51,0,3.88,0,7.81,0,11.69,0,1.25,0,2.65.02,3.9-.02,1.8-.33,3.68-.76,5.45-1.19,5.58-1.41,11.4-2.54,17.14-1.53,3.96.54,7.76,2.08,11.69,2.74,1.8.06,3.67-.4,5.45-.59,2.82-.37,5.73-.55,8.57-.38,2.6.07,5.21.81,7.79.96,1.27.06,2.65-.39,3.9-.59,1.5-.28,3.15-.45,4.68-.44,2.87,0,5.75.6,8.57,1.03,3.1,0,6.26,0,9.35,0"/><path class="b" d="M17.68,66.94c4.34-.95,8.64.65,12.47,2.6,3.52,1.73,7.09,3.58,10.91,4.55,2.57.13,5.22.02,7.79.05,13.24,0,26.5,0,39.74,0,7.23-1.06,14.43-3.43,21.82-2.49,3.95.41,7.82,1.54,11.69,2.41,2.88.39,5.76-.43,8.57-.93,3.32-.61,6.76-1,10.13-.72,2.33.07,4.76.93,7.01,1.06,2.77-.8,5.66-1.64,8.57-1.52,3.71.1,7.32,1.29,10.91,2.1,2.3.2,4.71.03,7.01.09"/><path class="b" d="M17.68,61.4c5.15-1.42,9.93,1.56,14.03,4.35,3.88,2.58,7.89,5.28,12.47,6.43,13.76-.04,27.54.08,41.3-.04,5.7-.77,11.36-2.26,17.14-2.37,5.27-.18,10.48,1.05,15.59,2.2,1.22.32,2.65.18,3.9.21,1.56.12,3.18-.32,4.68-.69,6.95-1.85,13.18-3.07,20.26-.86,7.07-2.84,10.87-2.37,17.92.08,1.51.49,3.14,1.01,4.68,1.4,1.51.14,3.16.04,4.68.07"/><path class="b" d="M17.68,55.57c6.16-1.94,11.22,3.05,15.59,6.66,3.72,3.03,9.08,7.7,14.03,7.99,7,0,14.04,0,21.04,0,4.4-.08,8.86.21,13.25-.23,6.5-.6,12.92-2.35,19.48-2.1,3.13.08,6.29.54,9.35,1.16,2.05.35,4.16,1.04,6.23,1.17,2.04-.07,4.21.17,6.23-.13,4.43-1.05,8.73-2.8,13.25-3.47,2.29-.34,4.72-.36,7.01.04,1.27.11,2.63.86,3.9.67.68-.29,1.65-.67,2.34-.92,6.08-2.58,11.45-.25,17.14,2.08,2.5.98,5.05,2.02,7.79,1.74"/><path class="b" d="M17.68,49.71c6.09-2.17,10.91,3.23,14.81,7.12,3.97,4.01,7.99,8.36,13.25,10.67,1.91,1.04,4.15.72,6.23.76,2.84,0,5.74,0,8.57,0,6.24.13,12.48-.38,18.7-.81,4.17-.24,8.32-1.02,12.47-1.45,3.88-.38,7.84-.25,11.69.36,3.39.45,6.74,1.49,10.13,1.9,2.31,0,4.7,0,7.01,0,1.29-.06,2.66-.61,3.9-.97,7.1-2.43,14.26-5.81,21.82-3.06,7.45-3.74,11.49-2.69,18.7.78,1.76.82,3.63,1.68,5.45,2.36,1.21.42,2.59.99,3.9.89"/><path class="b" d="M17.68,44.1c3.45-1.29,6.77-.08,9.35,2.35,2.56,2.28,4.8,5.06,7.01,7.66,3.94,4.53,10.57,12.79,17.14,12.19,2.31-.05,4.72.14,7.01-.14,4.39-.52,8.83-.97,13.25-1.24,4.14-.26,8.33-.39,12.47-.73,3.61-.35,7.27-.9,10.91-.64,5.28.24,10.42,1.73,15.59,2.75,2.31,0,4.7,0,7.01,0,2.71.27,5.31-.78,7.79-1.74,3.84-1.49,7.63-3.36,11.69-4.18,2.02-.4,4.2-.49,6.23-.16,1.27.14,2.71,1.01,3.9.17,2.65-1.2,5.62-2.21,8.57-1.77,6.72,1.13,12.13,5.98,18.7,7.63"/><path class="b" d="M17.68,38.98c3.06-1.2,6.24-.35,8.57,1.88,2.66,2.39,4.86,5.41,7.01,8.25,3.87,5.06,7.66,10.61,13.25,13.91,2.72,1.74,4.8,1.46,7.79.8,2.83-.54,5.72-1.1,8.57-1.49,7.47-1.14,15.07-.71,22.6-1.05,4.42-.45,8.92-.16,13.25.85,2.06.45,4.19,1.01,6.23,1.51,1.5.37,3.12.82,4.68.69,2.83,0,5.74,0,8.57,0,1.58.02,3.19-.79,4.68-1.28,7.19-2.76,14.6-8.13,22.6-5.47,2.76-.97,5.56-2.37,8.57-2.16,3.35.19,6.45,1.8,9.35,3.36,3.52,1.93,7.06,4.02,10.91,5.22"/><path class="b" d="M17.68,34.59c6.48-2.64,10.74,4.31,14.03,8.76,4.96,6.75,9.23,15.04,17.14,18.72,2.62-.45,5.21-1.42,7.79-2.06,3.55-.96,7.23-1.67,10.91-1.9,4.93-.34,9.89.16,14.81.4,3.1.2,6.27-.11,9.35.38,4.5.64,8.84,2.22,13.25,3.29,1.74.42,3.68.13,5.46.21,2.57-.02,5.22.04,7.79-.03,4.68-1.22,8.92-3.72,13.25-5.78,4.31-2.15,9.28-3.56,14.03-2.1,3.13-1.39,6.71-2.42,10.13-1.56,6.72,1.81,12.08,6.82,18.7,8.91"/><path class="b" d="M17.68,31.11c3.82-1.44,6.83.06,9.35,2.99,2.33,2.62,4.32,5.71,6.23,8.63,3.31,4.88,9.16,14.93,14.81,16.75,16.53-6.69,18.61-6.09,35.85-3.58,2.58.28,5.26.28,7.79.93,3.69.84,7.27,2.26,10.91,3.25,1.21.43,2.63.35,3.9.35,2.05,0,4.19,0,6.23,0,1.78-.1,3.73.25,5.45-.23,7.15-1.99,13.02-7.17,20.26-8.85,1.23-.26,2.64-.37,3.9-.29.99.04,2.13.41,3.12.41,1.21-.46,2.62-.87,3.9-1.1,4.71-1.07,9.28,1.11,13.25,3.44,3.77,2.17,7.55,4.51,11.69,5.91"/><path class="b" d="M17.68,28.63c2.3-.82,5.07-.71,7.01.88,3.27,2.63,5.51,6.42,7.79,9.88,4.12,6.21,7.75,13.32,14.03,17.64,14.14-7.33,17.71-9.07,33.51-4.54,4.35,1.27,8.99,1.37,13.25,2.97,3.09.98,6.14,2.47,9.35,3.01,2.57,0,5.22,0,7.79,0,2.05,0,4.19,0,6.23,0,7.6-1.68,13.64-7.24,21.04-9.43,1.48-.41,3.14-.63,4.68-.55.7.04,1.66.18,2.34.34.71.04,1.65-.28,2.34-.42,5.12-1.24,9.57.16,14.03,2.72,4.31,2.37,8.54,5.07,13.25,6.6"/><path class="b" d="M17.68,27.21c2-.63,4.39-.72,6.23.41,3.37,2.23,5.57,5.92,7.79,9.21,4.02,6.07,7.54,12.83,13.25,17.52,1.13-.12,2.16-1.08,3.12-1.63,1.52-.99,3.13-2.07,4.68-3.01,8.66-5.53,15.01-4.89,24.16-1.11,2.54.99,5.16,2.02,7.79,2.74,2.33.58,4.78,1.03,7.01,1.93,3.09,1.05,6.11,2.74,9.35,3.24,2.31,0,4.7,0,7.01,0,2.57,0,5.22,0,7.79,0,7.68-1.31,13.76-6.97,21.04-9.43,1.72-.57,3.64-.93,5.45-.85.7.03,1.66.16,2.34.32.98-.02,2.14-.29,3.12-.34,5-.57,9.76,1.44,14.03,3.86,4.01,2.18,8.07,4.47,12.47,5.79"/><path class="b" d="M17.68,26.82c2.01-.55,4.38-.64,6.23.45,3.35,2.16,5.56,5.77,7.79,8.99,3.6,5.33,6.87,11.13,11.69,15.49l.78.1c11.49-8.75,16.59-15.11,31.17-6.93,2.79,1.46,5.63,3.02,8.57,4.16,2.28.89,4.77,1.39,7.01,2.37,2.81,1.04,5.58,2.69,8.57,3.12,2.05,0,4.19,0,6.23,0,3.36,0,6.77,0,10.13,0,7.37-1.4,13.36-6.45,20.26-9.09,1.71-.64,3.62-1.1,5.46-1.16,1.26-.1,2.64.31,3.9.29,2.85-.16,5.82.08,8.57.87,6.99,2.28,13.07,6.86,20.26,8.61"/><path class="b" d="M17.68,27.33c6.57-1.77,9.79,3.34,13.25,7.93,2.31,3.22,4.56,6.66,7.01,9.77.92,1.16,2.07,2.5,3.12,3.55.3.36,1.07.98,1.56,1.06,6.19-4.82,11.64-13.22,20.26-13.14,4.67.24,8.69,3.08,12.47,5.57,2.75,1.85,5.57,3.78,8.57,5.2,1.98.96,4.22,1.53,6.23,2.43,2.29.98,4.63,2.09,7.01,2.83,1.78.14,3.67.03,5.45.07,4.14,0,8.33,0,12.47,0,3.31-.07,6.43-1.78,9.35-3.19,3.32-1.71,6.73-3.37,10.13-4.9,3.42-1.56,7.2-2.15,10.91-1.41,3.71.24,7.47.96,10.91,2.38,3.66,1.49,7.22,3.36,10.91,4.79,2.24.81,4.58,1.89,7.01,1.7"/><path class="b" d="M17.68,28.57c5.48-1.2,8.4,1.51,11.69,5.46,2.39,2.88,4.63,6.05,7.01,8.93,1.43,1.56,2.79,3.6,4.68,4.63,6.78-5.68,13.74-18.94,24.16-14.97,5.67,2.34,9.86,7.13,14.81,10.61,3.02,2.36,6.62,3.74,10.13,5.16,1.76.77,3.62,1.61,5.45,2.19,1.51.11,3.16.03,4.68.05,4.66,0,9.36,0,14.03,0,4.99-1.17,9.33-4.34,14.03-6.31,4.6-2.17,9.73-3.17,14.81-2.77,4.77.67,9.55,1.8,14.03,3.6,3.85,1.54,7.7,3.25,11.69,4.38,1.72.6,3.67.38,5.45.41"/><path class="b" d="M17.68,30.33c5.37-.91,8.19,1.19,11.69,4.95,2.1,2.25,4.14,4.74,6.23,6.99,1.19,1.15,2.37,2.75,3.9,3.44,6.28-5.47,13.72-21.03,23.38-18.05,5.76,2.02,9.63,7.2,14.03,11.16,2.14,2.02,4.47,4.02,7.01,5.52,1.68,1.02,3.65,1.7,5.46,2.48,1.5.64,3.12,1.33,4.68,1.83,1.25.05,2.65.02,3.9.03,4.92-.05,9.89.11,14.81-.06,4.37-1.46,8.3-4.04,12.47-5.96,4.57-2.21,9.73-3.4,14.81-2.68,3.17.4,6.32,1.2,9.35,2.19,2.6.74,5.26,1.53,7.79,2.47,3.57,1.25,7.18,2.68,10.91,3.39,2.04.09,4.19.11,6.23.06"/><path class="b" d="M17.68,32.34c6.59-.93,9.62,2.34,14.03,6.54,1.23,1.19,2.61,2.51,3.9,3.64.65.52,1.45,1.42,2.34,1.48,6.13-5.49,13.15-21.52,21.82-21.16,4.99.48,8.47,4.8,11.69,8.22,4.61,5.08,9.01,11.02,15.59,13.63,1.78.68,3.62,1.51,5.46,2.03.7,0,1.64,0,2.34,0,3.36,0,6.77,0,10.13,0,1.25,0,2.65,0,3.9,0,.71,0,1.68.07,2.34-.25,4.08-1.53,7.76-4.01,11.69-5.87,6.02-3.07,12.28-3.48,18.7-1.45,2.55.89,5.33,1.27,7.79,2.41,1.69.82,3.68,1.18,5.45,1.79,3.07.96,6.21,1.95,9.35,2.66,3.31.57,6.78.34,10.13.31"/><path class="b" d="M17.68,34.31c2.05-.11,4.26-.16,6.23.48,4.41,1.66,7.76,5.26,11.69,7.75l.78-.11c6.59-6.11,12.14-20.75,20.26-23.56,5.31-1.41,9.37,3.61,12.47,7.19,6.29,7.55,12.42,18.29,23.38,18.69,3.36,0,6.77,0,10.13,0,2.04-.08,4.22.19,6.23-.15,4.39-1.63,8.24-4.48,12.47-6.46,6.94-3.5,13.28-2.71,20.26.15.97.38,2.14.84,3.12,1.22,2.13.37,4.28,1.07,6.23,1.98,3.19,1.4,6.75,1.99,10.13,2.79,4.36.65,8.85.47,13.25.37"/><path class="b" d="M17.68,35.98c7.34-.58,10.3,2.31,16.36,5.46,2.67-1.72,4.42-4.78,6.23-7.32,2.87-4.35,5.45-9.03,8.57-13.2,5.7-7.69,10.83-8.51,17.14-.91,6.64,7.41,12.96,22.43,24.16,22.78,5.44-.02,10.92.04,16.36-.02,4.45-1.61,8.26-4.6,12.47-6.7,8.62-4.61,15.19-2.01,23.38,1.85.68.31,1.65.73,2.34,1.02,1.24.35,2.67.55,3.9.96,2.08.61,4.12,1.63,6.23,2.12,3.04.81,6.23.84,9.35.78,3.36,0,6.77,0,10.13,0"/><path class="b" d="M17.68,37.1c2.59-.02,5.29-.03,7.79.73,2.37.58,4.62,1.94,7.01,2.35,2.56-1.87,4.5-4.63,6.23-7.24,2.7-4.17,5.11-8.68,7.79-12.86,5.03-7.85,10.49-13.3,17.92-4.14,6.26,6.89,13.69,25.52,24.16,24.9,3.36,0,6.77,0,10.13,0,2.04-.09,4.22.2,6.23-.16,4.45-1.76,8.23-4.9,12.47-7.07,9.48-5.2,16.37-.62,24.94,3.63.96.45,2.12.99,3.12,1.34.98.14,2.15.37,3.12.61,2.06.49,4.14,1.29,6.23,1.62,6.48.06,13,0,19.48.02"/><path class="b" d="M17.68,37.49c2.05,0,4.2,0,6.23.25,2.08.22,4.16.93,6.23,1.14,8.24-2.9,14.35-24.42,22.6-29.79,6.17-3.92,11.03,3.99,14.03,8.4,3.11,4.79,5.89,9.94,9.35,14.49,2.08,2.69,4.59,5.35,7.79,6.67.93.4,2.13.2,3.12.24,3.88,0,7.81,0,11.69,0,1.25,0,2.65,0,3.9,0,1.61-.54,3.23-1.44,4.68-2.32,3.82-2.33,7.43-5.24,11.69-6.77,9.76-3.69,17.84,5.05,26.5,8,1.78.35,3.69.59,5.45,1,1.5.2,3.16.06,4.68.1,6.22,0,12.48,0,18.7,0"/></svg>