<?xml version="1.0" encoding="UTF-8"?><svg id="a" xmlns="http://www.w3.org/2000/svg" width="1920" height="2400" viewBox="0 0 192 240"><defs><style>.b{fill:none;stroke:#fff;stroke-miterlimit:10;stroke-width:.3px;}.c{stroke-width:0px;}</style></defs><rect class="c" x="0" width="192" height="240"/><path class="b" d="M8,228.31c6.13-.95,11.78-3.83,17.51-6.04,16.72-7.08,25.74-5.5,42.03,1.26,9.06,3.46,19.36,7.7,28.9,3.59,9.13-3.72,15.84-11.34,22.77-18.06,4.2-4.05,8.57-8.31,14.01-10.63,19.63-7.98,29.94,26.39,50.79,32.82"/><path class="b" d="M8,224.56c4.5-.45,8.81-2.09,13.13-3.32,6.55-1.98,13.27-3.78,20.14-4.02,12.7-.62,24.55,4.76,36.78,7.26,8.93,1.9,14.95,1.54,22.77-3.55,6.62-4.34,11.98-10.33,17.51-15.93,6.63-6.57,15.13-15.61,25.39-12.28,6.83,2.39,11.86,8.08,16.64,13.27,6.99,7.92,13.77,16.77,23.64,21.21"/><path class="b" d="M8,220.97c5.9-.36,11.65-2.14,17.51-2.86,7.52-1.14,15.2-1.41,22.77-.64,8.83.85,17.5,2.9,26.27,4.15,6.36.77,13.16,1.92,19.26-.64,9.62-3.93,16.51-12.17,23.64-19.4,4.25-4.32,8.62-8.81,14.01-11.69,7.49-4.12,14.8-1.66,21.01,3.49,5.92,4.73,10.77,10.65,15.76,16.3,4.6,5.14,9.64,10.16,15.76,13.46"/><path class="b" d="M8,217.63c5.25.07,10.5-.92,15.76-.93,8.18-.25,16.38.28,24.52,1.02,9.03.82,18.08,1.87,27.14,2.17,6.47.11,13.34.62,19.26-2.47,14.3-7.07,22.26-22.32,35.9-30.28,11.92-6.8,22.31,2.14,30.65,10.23,7.29,7.56,13.66,16.36,22.77,21.9"/><path class="b" d="M8,214.63c4.64.46,9.37.12,14.01.63,9.06.79,18.08,2.2,27.14,2.86,9.31.73,18.7.8,28.02.1,8.37-.65,13.79-.83,21.01-5.75,7.55-5.05,13.59-11.99,20.14-18.2,4.4-4.13,9.12-8.33,14.89-10.4,7.73-2.94,15.66.76,21.89,5.34,10.94,7.34,17.78,19.36,28.9,26.52"/><path class="b" d="M8,212.03c4.04.76,8.23.91,12.26,1.75,9.85,1.93,19.71,4.17,29.77,4.61,9.36.52,18.78-.2,28.02-1.75,5.67-.98,11.59-1.61,16.64-4.6,13.18-7.23,21.58-20.94,35.02-27.75,9.28-4.61,18.1-1.11,26.27,4.02,5.03,2.76,9.2,6.82,13.13,10.94,4.64,4.77,9.35,9.65,14.89,13.41"/><path class="b" d="M8,209.87c3.45.96,7.07,1.43,10.51,2.42,8.34,2.37,16.72,4.86,25.39,5.63,11.72,1.19,23.61.09,35.02-2.75,4.72-1.2,9.66-1.99,14.01-4.28,13.39-6.72,22.24-20.08,35.9-26.33,6.38-2.94,13.76-2.38,20.14.27,4.16,1.73,8.38,3.59,12.26,5.88,8.18,5.76,14.39,13.96,22.77,19.48"/><path class="b" d="M8,208.13c3.15,1.11,6.49,1.84,9.63,2.95,5.74,2,11.52,4.12,17.51,5.24,1.43.46,2.96.02,4.38-.24,2.28-.39,4.69-.65,7-.67,4.73-.07,9.43.94,14.01,2,6.23-.26,12.41-1.68,18.39-3.39,3.18-.98,6.49-1.81,9.63-2.9,3.38-1.25,6.63-3.04,9.63-5.03,12.01-7.66,22.61-21.21,37.65-22.17,5.72-.31,11.33,1.47,16.64,3.42,3.49,1.41,7.32,2.27,10.51,4.32,7.45,4.93,13.46,11.82,21.02,16.62"/><path class="b" d="M8,206.79c4.34,1.68,8.83,3.12,13.13,4.92,2.27.88,4.66,1.73,7,2.39.79.22,1.83.5,2.63.68.82-.03,1.85-.38,2.63-.6,4.81-1.42,9.84-2.59,14.89-2.16,5.41.38,10.55,2.38,15.76,3.71,1.38.46,2.98-.03,4.38-.19,2.02-.32,4.15-.77,6.13-1.29,5-1.4,10.02-2.99,14.89-4.79,14.42-5.8,24.81-19.44,40.28-22.9,7.35-1.6,14.84.33,21.89,2.42,1.69.49,3.54,1,5.25,1.41,1.73.39,3.63.74,5.25,1.5,8.01,3.88,14.22,10.64,21.89,15.08"/><path class="b" d="M8,205.76c2.55,1.16,5.29,2.11,7.88,3.17,3.15,1.3,6.36,2.68,9.63,3.65.47.14,1.28.36,1.75.43.8-.25,1.84-.61,2.63-.88,2-.71,4.11-1.5,6.13-2.15,4.76-1.6,9.95-2.23,14.89-1.07,4.51.97,8.75,2.96,13.13,4.34,1.36.56,2.93.55,4.38.51,1.41-.03,3,.11,4.38-.22,5.38-1.11,10.59-3.06,15.76-4.85,14.05-5.33,25.02-17.69,40.28-19.93,7.69-1.14,15.33,1.01,22.77,2.71,3.14.82,6.47.97,9.63,1.61,3.8,1.02,7.23,3.21,10.51,5.33,4.01,2.64,8.02,5.45,12.26,7.72"/><path class="b" d="M8,204.97c3.13,1.47,6.45,2.67,9.63,4,1.39.56,2.95,1.15,4.38,1.61.8.24,1.79.65,2.63.47,4.17-1.37,8.12-3.49,12.26-4.95,9.33-3.51,16.1-.38,24.52,3.53,1.67.71,3.48,1.49,5.25,1.91,2,0,4.13,0,6.13,0,3,.25,5.94-.61,8.76-1.54,2.9-.96,5.93-1.85,8.76-3.02,10.5-4.27,19.63-11.65,30.65-14.69,8.64-2.54,17.68-.86,26.27,1.04,2.87.59,5.84,1.14,8.76,1.37,1.7.16,3.56.01,5.25.28,3.73.59,7.21,2.33,10.51,4.09,4.04,2.19,8.07,4.59,12.26,6.49"/><path class="b" d="M8,204.31c4.25,1.89,8.66,3.63,13.13,4.92,1.17.2,2.42-.51,3.5-.88,2.06-.84,4.15-1.91,6.13-2.93,7.23-3.92,13.89-6.42,21.89-2.94,4.79,1.94,9.12,5,14.01,6.69,1.38.33,2.97.12,4.38.18,2.6,0,5.28,0,7.88,0,2.96-.39,5.88-1.54,8.76-2.35,11.08-3.58,20.85-10.73,32.4-12.92,8.77-1.81,17.65.21,26.27,1.9,3.16.58,6.42,1.08,9.63,1.14,2.6,0,5.31-.34,7.88.27,7.07,1.55,13.36,5.44,20.14,7.83"/><path class="b" d="M8,203.66c2.25.99,4.66,1.85,7.01,2.59,1.38.42,2.91,1.02,4.38.91,2.83.15,5.43-1.61,7.88-2.83,6.96-3.98,14.39-9.44,22.77-6.37,4.41,1.48,8.26,4.28,12.26,6.57,2.17,1.1,4.47,2.76,7,2.63,3.19,0,6.45,0,9.63,0,1.1,0,2.4,0,3.5,0,1.12-.13,2.41-.51,3.5-.77,11.33-2.8,21.55-9.41,33.27-10.75,9.44-1.25,18.76,1.39,28.02,2.86,2.87.43,5.85.74,8.76.68,2.89-.12,5.87-.57,8.76-.03,6.62,1.08,12.81,3.95,19.26,5.67"/><path class="b" d="M8,202.89c2.25.83,4.63,1.69,7.01,2.06,2-.12,4.19.28,6.13-.24,9.32-3.33,17.2-14.01,28.02-10.63,4.86,1.53,8.9,4.87,13.13,7.58,2.17,1.25,4.46,3.02,7,3.29,4.95,0,9.94,0,14.89,0,2.06.15,4.16-.41,6.13-.93,2.33-.62,4.72-1.38,7-2.14,6.27-2.1,12.64-4.29,19.26-4.93,9.74-1.08,19.33,1.55,28.9,2.95,3.45.49,7.02.82,10.51.69,2.89-.16,5.86-.64,8.76-.31,6.53.6,12.83,2.73,19.26,3.87"/><path class="b" d="M8,201.92c1.09.32,2.36.76,3.5.84,1.11,0,2.4,0,3.5,0,1.11,0,2.4,0,3.5,0,.82,0,1.88.08,2.63-.31,9.38-3.54,16.92-15.22,28.02-11.86,5.3,1.72,9.49,5.67,14.01,8.76,1.35.93,2.9,1.9,4.38,2.62.76.35,1.76.88,2.63.79,4.36,0,8.77,0,13.13,0,2.89-.1,5.93.32,8.76-.41,6.98-1.57,13.86-3.87,21.01-4.57,9.4-1.07,18.76.98,28.02,2.36,4.62.67,9.34,1.15,14.01,1.05,3.19-.07,6.43-.61,9.63-.42,6.46.13,12.8,2.07,19.26,1.98"/><path class="b" d="M8,200.55c2.6,0,5.28,0,7.88,0,1.7-.1,3.61.26,5.25-.25,9.48-3.58,16.77-16.17,28.02-13.07,5.75,1.82,10.08,6.35,14.89,9.77,1.34.97,2.9,1.98,4.38,2.73.76.36,1.76.9,2.63.82,3.77,0,7.61,0,11.38,0,4.06-.07,8.21.15,12.26-.1,7.8-1.46,15.66-3.14,23.64-2.82,9.1.27,18.07,2.25,27.14,2.81,6.11.25,12.28.08,18.39-.04,6.7.2,13.44.14,20.14.14"/><path class="b" d="M8,198.35c2.89,0,5.86,0,8.76,0,1.7-.12,3.67.34,5.25-.41,8.86-3.69,15.82-15.62,26.27-14.03,9.05,2,14.36,10.96,22.77,14.32,3.46.31,7.03.04,10.51.13,5.82,0,11.69,0,17.51,0,5.5-.7,11.08-1.33,16.64-1.21,5.85,0,11.68.97,17.51,1.21,16.92,0,33.86,0,50.79,0"/><path class="b" d="M8,196.15c3.19,0,6.45,0,9.63,0,1.7-.12,3.68.35,5.25-.43,8.81-3.81,15.8-16.14,26.27-14.49,9.4,2.12,14.7,11.82,23.64,14.92,3.77,0,7.61,0,11.38,0,33.27-.03,66.55,0,99.82,0"/><path class="b" d="M8,193.95c3.19,0,6.45,0,9.63,0,1.11,0,2.4,0,3.5,0,.82,0,1.87.08,2.63-.29,8.92-3.78,15.74-16.25,26.27-14.87,9.44,1.97,14.8,11.56,23.64,14.86,1.04.48,2.39.24,3.5.29,2,0,4.13,0,6.13,0,33.56,0,67.13,0,100.7,0"/><path class="b" d="M8,191.75c3.19,0,6.45,0,9.63,0,1.7-.12,3.66.33,5.25-.36,9.57-3.7,17.07-16.99,28.02-15.51,10.06,2.09,15.82,12.54,25.39,15.82,2.89.13,5.87.02,8.76.05,32.98,0,65.97,0,98.95,0"/><path class="b" d="M8,189.55c2.6,0,5.28,0,7.88,0,1.7-.09,3.59.22,5.25-.21,9.58-3.78,14.88-14.13,24.52-17.77,9.99-3.19,17.49,7.8,24.52,13.12,2.6,2,5.47,4.21,8.76,4.85,5.53,0,11.11,0,16.64,0,29.48,0,58.96,0,88.44,0"/><path class="b" d="M8,187.35c3.77,0,7.61,0,11.38,0,10.64-3.46,16.12-15.86,26.27-20.19,10.03-3.83,17.83,7.93,24.52,13.61,2.95,2.57,7.36,6.35,11.38,6.58,4.65,0,9.36,0,14.01,0,18.68,0,37.36,0,56.04,0,6.41,0,12.86,0,19.26,0,4.37-.02,8.8.17,13.13-.45"/><path class="b" d="M8,184.58c2.05.56,4.02.64,6.13.57,1.71-.06,3.57.15,5.25-.14,10.95-4.32,15.94-16.72,26.27-21.95,6.66-3.29,13.03,1.87,17.51,6.45,5.94,5.7,11.68,13.85,20.14,15.64,3.77,0,7.61,0,11.38,0,11.67,0,23.36,0,35.02,0,7.88-.03,15.78.18,23.64-.37,3.78-.13,7.6.46,11.38.37,6.44.07,12.9-.54,19.26-1.51"/><path class="b" d="M8,181.35c2.04.4,4.08,1.32,6.13,1.59,1.7-.1,3.61.24,5.25-.23,10.83-4.59,15.75-16.69,25.39-22.91,6.17-3.97,11.89-.99,16.64,3.57,7.27,6.68,12.89,16.21,22.77,19.3,1.06.39,2.4.25,3.5.27,2,0,4.13,0,6.13,0,14.88,0,29.78,0,44.66,0,5.28.24,10.49-1.15,15.76-1.16,3.78-.05,7.6.61,11.38.48,6.16-.05,12.34-.82,18.39-1.98"/><path class="b" d="M8,177.94c1.75.44,3.57,1.1,5.25,1.75,1.65.69,3.44,1.25,5.25,1.06,10.4-3.2,16.82-17.09,25.39-23.6,5.82-4.65,11.34-3.55,16.64,1.18,8.62,7.43,14.52,19.28,26.27,22.22,1.96.43,4.13.1,6.13.2,14.59,0,29.19,0,43.78,0,5.58.1,11.05-1.71,16.64-1.86,4.08-.24,8.18.64,12.26.47,6.18-.08,12.37-1.01,18.39-2.37"/><path class="b" d="M8,174.41c2.4.59,4.75,1.67,7.01,2.66,1.38.51,2.88,1.4,4.38,1.38,2.99-1.09,5.62-3.14,7.88-5.33,3.83-3.77,7.08-8.21,10.51-12.33,4.02-4.62,8.93-10.88,15.76-10.03,9.98,1.77,18.3,18.9,28.02,24.55,2.63,1.62,5.69,2.8,8.76,3.24,2.3,0,4.7,0,7,0,6.12,0,12.27,0,18.39,0,7.29-.02,14.61.04,21.89-.02,4.96-.69,9.89-1.92,14.89-2.36,4.37-.47,8.76.57,13.13.37,6.2-.11,12.39-1.15,18.39-2.69"/><path class="b" d="M8,170.87c4.32,1,8.1,3.58,12.26,5.01,8.36-2.43,16.23-17.01,22.77-23.15,7.59-7.79,13.96-6.28,21.01,1.13,5.36,5.51,9.77,12.04,15.76,16.93,3.49,2.9,7.82,4.73,12.26,5.55,3.19,0,6.45,0,9.63,0,7.29,0,14.6,0,21.89,0,4.36-.04,8.78.08,13.13-.05,5.27-.74,10.47-2.17,15.76-2.72,4.37-.54,8.76.51,13.13.29,6.21-.14,12.41-1.25,18.39-2.92"/><path class="b" d="M8,167.43c5,1,9.25,4.17,14.01,5.86,10.72-4.77,17.92-24.37,28.9-28.17,8.2-2.33,14.49,6.82,19.26,12.13,3.97,4.66,7.94,9.61,13.13,12.96,3.17,1.98,6.83,3.29,10.51,3.94,3.19,0,6.45,0,9.63,0,7.87,0,15.77,0,23.64,0,3.47-.11,7.06.26,10.51-.22,5.26-.81,10.45-2.29,15.76-2.79,4.07-.42,8.18.5,12.26.27,6.22-.17,12.42-1.3,18.39-3.04"/><path class="b" d="M8,164.17c5.66.88,10.43,4.53,15.76,6.42,10.52-5.37,19.48-29.54,31.52-28.27,10.37,1.45,19.09,20.52,29.77,26.11,2.97,1.66,6.29,2.84,9.63,3.48,3.48.1,7.03.01,10.51.04,7.87,0,15.77,0,23.64,0,2.89-.08,5.89.18,8.76-.14,5.27-.77,10.46-2.25,15.76-2.8,4.07-.46,8.18.4,12.26.16,6.22-.18,12.43-1.28,18.39-3.04"/><path class="b" d="M8,161.18c2.75.15,5.4,1.24,7.88,2.36,3.17,1.42,6.37,2.99,9.63,4.22,2.39-1.34,4.31-3.62,6.13-5.62,3.07-3.57,5.86-7.54,8.76-11.25,4.45-5.7,11.31-13.94,19.26-9.46,3.81,2.08,6.79,5.47,9.63,8.68,5.3,6.01,10.21,12.92,17.51,16.63,2.73,1.4,5.74,2.42,8.76,3,3.19,0,6.45,0,9.63,0,7.87,0,15.77,0,23.64,0,3.18-.05,6.45.1,9.63-.07,4.97-.71,9.89-2.03,14.89-2.58,4.06-.49,8.19.28,12.26.05,6.21-.19,12.42-1.21,18.39-2.93"/><path class="b" d="M8,158.53c3.03-.09,5.98,1.02,8.76,2.11,3.48,1.36,6.98,2.9,10.51,4.14,9.11-5.38,18.43-29.53,30.65-26.07,11.01,3.7,17.95,21.21,30.65,26.48,2.21,1.02,4.63,1.81,7,2.3,3.48.1,7.03.01,10.51.04,7.58,0,15.19,0,22.77,0,3.77-.03,7.61.06,11.38-.04,4.67-.66,9.31-1.81,14.01-2.24,3.77-.34,7.61.23,11.38.03,6.19-.18,12.41-1.08,18.39-2.7"/><path class="b" d="M8,156.26c3.28-.37,6.53.67,9.63,1.61,3.79,1.18,7.59,2.57,11.38,3.76,1.08-.05,1.9-1.29,2.63-1.96,1.16-1.22,2.45-2.75,3.5-4.06,5.28-6.07,12.78-19.67,21.89-18.62,11.2,1.83,19.02,21.32,32.4,26.4,1.93.84,4.06,1.54,6.13,1.95,3.48,0,7.03,0,10.51,0,7.58,0,15.19,0,22.77,0,4.65-.03,9.36.06,14.01-.04,4.07-.57,8.16-1.44,12.26-1.73,3.48-.22,7.03.18,10.51.01,6.17-.17,12.38-.9,18.39-2.36"/><path class="b" d="M8,154.37c3.2-.63,6.49.06,9.63.68,4.7.9,9.34,2.36,14.01,3.38,5.98-5.96,10.26-13.55,16.64-19.14,6.11-5.36,11.84-4.16,17.51,1.04,8.21,7.48,14.37,18.02,25.39,21.73,1.08.39,2.39.78,3.5,1.04,1.1.07,2.4.04,3.5.04,2.6,0,5.28,0,7.88,0,8.16,0,16.35,0,24.52,0,4.95,0,9.94,0,14.89,0,3.48-.33,7-1.03,10.51-1.17,5.53-.05,11.12.17,16.64-.35,3.79-.39,7.73-.63,11.38-1.79"/><path class="b" d="M8,152.84c3.42-.92,7.03-.45,10.51-.18,4.98.45,9.98,1.25,14.89,2.21,1.08-.29,1.9-1.61,2.63-2.38,1.44-1.68,2.98-3.61,4.38-5.33,4.11-4.8,8.3-10.9,14.89-12.2,12.68-1.57,20.56,21.65,37.65,25.72,1.65.49,3.55.18,5.25.26,2.89,0,5.86,0,8.76,0,8.45,0,16.94,0,25.39,0,5.82,0,11.69,0,17.51,0,3.17-.34,6.43-.67,9.63-.57,3.19.05,6.45.02,9.63-.1,2-.15,4.18-.02,6.13-.5,2.93-1.01,5.86-2.28,8.76-3.4"/><path class="b" d="M8,151.62c3.65-1.19,7.59-1.02,11.38-1.21,5.54-.17,11.14,0,16.64.72,7.3-6.79,15.28-22.53,27.14-14.93,8.45,5.55,13.74,15.04,22.77,19.85,2.19,1.13,4.58,2.18,7.01,2.69,1.1,0,2.4,0,3.5,0,12.84,0,25.69,0,38.53,0,10.79-.02,21.61.05,32.4-.04,1.09-.04,2.42.02,3.5-.18,1.11-.32,2.43-.77,3.5-1.2,3.27-1.3,6.45-3,9.63-4.49"/><path class="b" d="M8,150.65c3.92-1.42,8.18-1.6,12.26-2.33,6.06-.94,12.25-1.69,18.39-1.23,4.59-4.16,8.14-9.92,14.01-12.53,6.66-3.12,12.99,2.22,17.51,6.66,3.7,3.58,7.24,7.48,11.38,10.56,2.86,2.13,6.2,3.74,9.63,4.7,4.06.16,8.19.02,12.26.06,15.17,0,30.36,0,45.53,0,6.7-.02,13.44.05,20.14-.03,5.37-1.45,10.07-4.63,14.89-7.3"/><path class="b" d="M8,149.82c2.23-.87,4.66-1.43,7.01-1.9,2.62-.6,5.29-1.34,7.88-2.05,4.02-1.11,8.12-2.21,12.26-2.73,1.4-.17,2.97-.29,4.38-.32.79-.01,1.88.09,2.63-.24,7.03-7.57,13.98-13.4,23.64-5.8,7.75,5.93,13.81,14.77,23.64,17.43,2.87.32,5.87.05,8.76.13,5.24,0,10.52,0,15.76,0,12.84,0,25.69,0,38.53,0,5.24,0,10.52.01,15.76,0,5.85-1.64,10.72-5.51,15.76-8.74"/><path class="b" d="M8,149.03c2.54-.99,5.27-1.62,7.88-2.38,2.95-.9,5.9-2.06,8.76-3.21,4.27-1.71,8.6-3.51,13.13-4.4,1.39-.27,2.96-.47,4.38-.54,1.11-.11,2.46.2,3.5-.28,6.04-5.57,12.11-7.59,19.26-2.54,7.89,5.36,13.89,14.3,23.64,16.45,2.89,0,5.86,0,8.76,0,16.34,0,32.69,0,49.03,0,6.99,0,14.02,0,21.01,0,6.4-1.59,11.39-6.38,16.64-10.11"/><path class="b" d="M8,148.16c2.56-.92,5.3-1.59,7.88-2.45,3.31-1.15,6.53-2.72,9.63-4.34,7.25-3.81,15.14-8.39,23.64-6.78,3.95-2.22,7.96-3.16,12.26-1.24,7.92,3.61,13.21,11.23,21.01,15.05,1.35.63,2.89,1.33,4.38,1.54.79,0,1.84,0,2.63,0,2.89,0,5.86,0,8.76,0,8.75,0,17.52,0,26.27,0,13.42,0,26.86,0,40.28,0,6.72.57,14.21-7.46,19.26-11.37"/><path class="b" d="M8,147.11c2.59-.78,5.32-1.43,7.88-2.31,3.04-1.09,5.99-2.64,8.76-4.31,6.66-3.89,13.06-9.33,21.01-10.05,2.98-.29,5.96.49,8.76,1.43,2.35-.37,4.84.08,7,1.02,8.54,3.77,14.32,12.72,23.64,14.86,4.07,0,8.19,0,12.26,0,9.33-.01,18.69.1,28.02-.21,6.99.32,14.02.2,21.02.21,5.53,0,11.11,0,16.64,0,1.4-.04,2.99.12,4.38-.13,1.47-.49,3.05-1.25,4.38-2.05,4.55-2.79,8.29-6.77,12.26-10.3"/><path class="b" d="M8,145.54c20.48-1.41,29.82-24.94,47.28-16.84,2.13.95,4.16,2.36,6.13,3.6,1.81.8,3.63,1.94,5.25,3.08,4.32,3.04,8.34,6.7,13.13,9,2.17,1.05,4.63,1.3,7,1.17,2.6,0,5.28,0,7.88,0,5.53,0,11.11,0,16.64,0,6.38-.58,12.86-.97,19.26-.29,3.17.46,6.44.25,9.63.29,4.95,0,9.94,0,14.89,0,3.77,0,7.61,0,11.38,0,7.19-1.77,12.28-8.53,17.51-13.36"/><path class="b" d="M8,143.34c19.45,2.02,28.88-23.87,45.53-18.33,10.76,4.11,17.48,15.32,28.9,18.2,3.75.34,7.62.04,11.38.13,4.65,0,9.36,0,14.01,0,5.19-.9,10.48-1.78,15.76-1.42,4.09.21,8.2.95,12.26,1.42,5.82,0,11.69,0,17.51,0,4.36,0,8.77,0,13.13,0,6.99-1.49,12.6-9.16,17.51-13.99"/><path class="b" d="M8,141.14c2.01,0,4.12,0,6.13,0,1.46.08,3.02-.09,4.38-.65,6.44-2.29,11.45-7.23,16.64-11.48,3.39-2.76,7.05-5.6,11.38-6.62,11.65-2.61,20.81,12.26,30.65,16.9,1.35.69,2.92,1.33,4.38,1.74,1.09.18,2.4.09,3.5.11,2.89,0,5.86,0,8.76,0,3.77-.03,7.61.07,11.38-.04,4.33-.92,8.7-2.06,13.13-2.31,6.51-.48,12.9,1.25,19.26,2.36,7.29,0,14.6,0,21.89,0,2.59,0,5.29,0,7.88,0,7.07-2.55,11.64-9.05,16.64-14.31"/><path class="b" d="M8,138.93c2.3,0,4.7,0,7.01,0,1.71-.06,3.64.25,5.25-.45,6.11-2.28,10.82-7.06,15.76-11.13,3.36-2.76,7.03-5.61,11.38-6.48,11.3-2.08,20.03,12.44,29.77,16.75,1.06.5,2.36,1.03,3.5,1.32,2,0,4.13,0,6.13,0,4.65,0,9.36,0,14.01,0,2.68.17,5.3-.96,7.88-1.55,3.98-1.06,8.12-1.87,12.26-1.76,6.26.1,12.3,2.11,18.39,3.31,6.7,0,13.44,0,20.14,0,2.88-.09,5.89.2,8.76-.15,6.69-2.73,11.03-8.99,15.76-14.15"/><path class="b" d="M8,136.73c2.89,0,5.86,0,8.76,0,1.7-.11,3.64.3,5.25-.35,9.68-3.57,16.03-14.58,26.27-16.38,11.62-1.29,19.73,13.63,30.65,16.73,4.95,0,9.94,0,14.89,0,2.59-.12,5.34.27,7.88-.2,4.07-1.07,8.1-2.56,12.26-3.3,3.15-.57,6.44-.6,9.63-.6,5.75.21,11.13,2.55,16.64,3.97,6.09.33,12.28.02,18.39.13,3.18,0,6.45,0,9.63,0,6.73-2.2,11.16-8.9,15.76-13.93"/><path class="b" d="M8,134.53c3.19,0,6.45,0,9.63,0,1.11,0,2.4,0,3.5,0,.82,0,1.88.08,2.63-.32,9.26-3.44,15.95-14.27,26.27-14.46,10.27.54,16.88,11.28,26.27,14.56,1.07.36,2.4.18,3.5.22,1.4,0,2.97,0,4.38,0,3.48,0,7.03,0,10.51,0,2.32-.05,4.79.26,7-.58,3.47-1.06,6.98-2.26,10.51-3.14,4.72-1.77,9.93-2.56,14.89-1.39,5.12,1.1,9.85,3.58,14.89,4.98,5.5.35,11.11.03,16.64.13,3.48,0,7.03,0,10.51,0,6.41-2.24,10.48-8.36,14.89-13.19"/><path class="b" d="M8,132.33c5.24,0,10.52,0,15.76,0,1.19.1,2.44-.64,3.5-1.09,1.79-.86,3.61-2,5.25-3.1,6.75-4.64,13.16-9.8,21.89-7.65,5.28,1.44,9.54,5.17,14.01,8.15,2.17,1.44,4.51,2.91,7.01,3.7,2,0,4.13,0,6.13,0,4.95,0,9.94,0,14.89,0,3.43.3,6.6-1.45,9.63-2.81,8-3.96,14.81-6.68,23.64-3.18,4.73,1.75,9.16,4.39,14.01,5.83,1.97.35,4.13.08,6.13.16,3.18,0,6.45,0,9.63,0,3.48,0,7.03,0,10.51,0,5.75-1.74,10.06-7.83,14.01-12.11"/><path class="b" d="M8,130.13c5.24,0,10.52,0,15.76,0,11.38-3.37,20.21-18.48,33.27-11.29,4.08,2.11,7.62,5.21,11.38,7.81,2.15,1.35,4.44,3.13,7.01,3.48,4.65,0,9.36,0,14.01,0,2,0,4.13,0,6.13,0,1.16-.11,2.43-.68,3.5-1.1,10.76-4.78,18.21-12.34,30.65-6.54,5.59,2.35,10.63,6.41,16.64,7.63,4.07,0,8.19,0,12.26,0,2.59,0,5.29,0,7.88,0,1.7-.07,3.58.17,5.25-.16,5.01-2.29,8.61-6.79,12.26-10.78"/><path class="b" d="M8,127.93c3.19,0,6.45,0,9.63,0,1.7-.11,3.62.27,5.25-.26,5.55-1.92,10.06-5.9,14.89-9.11,11.67-8.17,18.25-3.08,28.02,4.53,1.64,1.23,3.46,2.51,5.25,3.5,1.06.53,2.29,1.3,3.5,1.34,3.19,0,6.45,0,9.63,0,2.89,0,5.86,0,8.76,0,4.41-1.21,8.37-3.69,12.26-6.02,7.82-4.88,14.8-7.71,23.64-3.25,6.2,2.83,11.62,7.85,18.39,9.27,3.77,0,7.61,0,11.38,0,4.36,0,8.77,0,13.13,0,5.06-1.76,8.63-6.3,12.26-10.04"/><path class="b" d="M8,125.73c4.07,0,8.19,0,12.26,0,8.31-1.94,14.15-9.06,21.89-12.26,10.7-4.72,18.83,5.6,27.14,10.56,1.06.62,2.35,1.27,3.5,1.7,1.41,0,2.97,0,4.38,0,2.89,0,5.86,0,8.76,0,1.1,0,2.4,0,3.5,0,1.47-.19,3.01-.83,4.38-1.38,4.65-1.97,8.8-5.01,13.13-7.55,7.44-4.54,14.09-5.49,21.89-1.09,6.14,3.24,11.54,8.27,18.39,10.01,3.48,0,7.03,0,10.51,0,4.36,0,8.77,0,13.13,0,4.4.28,10.15-6.42,13.13-9.35"/><path class="b" d="M8,123.53c2.6,0,5.28,0,7.88,0,1.41-.08,3.03.22,4.38-.25,10.25-2.76,18.57-14.83,29.77-12.31,7.75,1.98,13.04,8.72,20.14,12.03,1.3.74,2.95.5,4.38.53,2.3,0,4.7,0,7,0,10.09.97,17.89-6.67,26.27-11.03,7.33-4.03,13.97-3.53,21.01.83,3.86,2.29,7.49,5.09,11.38,7.33,2.18,1.16,4.53,2.54,7.01,2.87,3.48,0,7.03,0,10.51,0,4.07,0,8.19,0,12.26,0,.76,0,1.86,0,2.63-.03,1.16-.46,2.47-1.17,3.5-1.86,2.87-1.94,5.43-4.48,7.88-6.9"/><path class="b" d="M8,121.33c2.3,0,4.7,0,7.01,0,1.41-.07,3.02.2,4.38-.23,10.98-2.77,20.21-15.76,32.4-10.66,4.48,1.83,8.27,5.03,12.26,7.68,1.35.9,2.91,1.85,4.38,2.55.75.37,1.78.76,2.63.65,3.77,0,7.61,0,11.38,0,4.29-.87,8.46-2.54,12.26-4.71,4.67-2.61,9.06-5.87,14.01-7.95,6.73-3,13.22-1.57,19.26,2.25,6.04,3.54,11.46,8.7,18.39,10.42,3.77,0,7.61,0,11.38,0,4.07,0,8.19,0,12.26,0,.76,0,1.86.01,2.63-.03,1.15-.44,2.46-1.12,3.5-1.78,2.85-1.82,5.42-4.22,7.88-6.52"/><path class="b" d="M8,119.13c3.48-.08,7.05.17,10.51-.11,11.37-2.55,20.9-15.08,33.27-9.39,4.07,1.75,7.64,4.54,11.38,6.86,1.63,1,3.44,2.03,5.25,2.65,1.1,0,2.4,0,3.5,0,2.6,0,5.28,0,7.88,0,1.74-.47,3.56-1.2,5.25-1.81,8.46-2.61,15.29-8.77,23.64-11.6,6.81-2.39,13.49-.05,19.26,3.75,3.51,2.21,6.91,4.74,10.51,6.8,2.18,1.16,4.53,2.52,7.01,2.86,3.77,0,7.61,0,11.38,0,4.95,0,9.94,0,14.89,0,4.44-.77,8.85-5.1,12.26-7.92"/><path class="b" d="M8,116.93c3.47-.09,7.05.19,10.51-.13,7.8-1.73,14.16-7.23,21.89-9.13,7.75-2.03,14.71,2.84,21.01,6.67,1.64.96,3.46,1.92,5.25,2.57,1.71.03,3.55,0,5.25.01,1.71,0,3.55,0,5.25,0,2.4-.59,4.72-1.79,7-2.73,3.9-1.48,7.73-3.29,11.38-5.31,4.18-2.23,8.46-4.62,13.13-5.62,6.86-1.63,13.63,1.43,19.26,5.13,5.05,3.13,9.94,6.97,15.76,8.53,4.36,0,8.77,0,13.13,0,4.65,0,9.36,0,14.01,0,4.27-.07,9.79-4.98,13.13-7.52"/><path class="b" d="M8,114.73c3.19,0,6.45,0,9.63,0,6.23-.77,11.71-4.38,17.51-6.56,10.72-4.38,17.08.1,26.27,5.02,1.08.53,2.37,1.12,3.5,1.52,2.6.06,5.28.01,7.88.03,1.47.09,3.05-.06,4.38-.73,2.05-.83,4.13-1.91,6.13-2.86,3.48-1.55,7.11-2.94,10.51-4.66,4.46-2.13,9.06-4.37,14.01-5.05,7.29-1.13,14.16,2.42,20.14,6.19,4.46,2.7,8.92,5.76,14.01,7.12,4.95,0,9.94,0,14.89,0,4.65,0,9.36,0,14.01,0,1.83-.04,3.63-1.14,5.25-1.9,2.74-1.47,5.36-3.37,7.88-5.2"/><path class="b" d="M8,112.53c3.48,0,7.03,0,10.51,0,5.82-.77,11.09-3.8,16.64-5.56,9.65-3.38,16-.04,24.52,4.13,1.37.53,2.87,1.48,4.38,1.43,2.89,0,5.86,0,8.76,0,4.38-1.02,8.13-3.9,12.26-5.59,7.18-2.59,14.14-6.55,21.89-7.06,7.66-.55,14.62,3.36,21.02,7.1,3.62,2.08,7.36,4.2,11.38,5.41,1.98.31,4.13.07,6.13.14,3.48,0,7.03,0,10.51,0,4.94-.14,9.94.05,14.89,0,4.8-1.17,9.01-4.05,13.13-6.64"/><path class="b" d="M8,110.33c4.07,0,8.19.01,12.26,0,5.39-1.04,10.46-3.38,15.76-4.73,4.28-1.13,8.88-1.17,13.13.11,4.19,1.18,8.11,3.3,12.26,4.62,2.3.03,4.7,0,7,.01,1.43-.01,3.05.15,4.38-.49,3.97-1.5,7.53-4,11.38-5.74,6.79-2.43,13.71-5.3,21.01-5.48,8.62-.24,16.23,4.41,23.64,8.2,2.79,1.39,5.73,2.75,8.76,3.51,1.4,0,2.98,0,4.38,0,4.94-.1,9.96.22,14.89-.17,3.77-.37,7.61.21,11.38.17,2.1.19,4.2-.54,6.13-1.3,3.32-1.31,6.51-3.11,9.63-4.83"/><path class="b" d="M8,108.12c4.65-.03,9.36.06,14.01-.04,4.73-.91,9.3-2.63,14.01-3.61,4.31-.94,8.87-.89,13.13.26,2.35.6,4.72,1.47,7.01,2.27,1.39.41,2.91,1.2,4.38,1.11,2.89,0,5.86,0,8.76,0,1.5-.09,3.02-.92,4.38-1.5,3.27-1.54,6.35-3.62,9.63-5.12,3.06-1.31,6.42-2.02,9.63-2.84.78-.18,1.86-.38,2.63-.61.76-.43,1.83-.98,2.63-1.33,1.9-.84,4.05-1.46,6.13-1.59,6.68-.39,12.31,3.98,17.51,7.59,3.02,1.74,6.38,3.09,9.63,4.35,1.08.38,2.38.81,3.5,1.05,2.6,0,5.28,0,7.88,0,4.95-.06,9.97.25,14.89-.39,3.49-.19,7.03.19,10.51.39,2.08.06,4.18-.8,6.13-1.41,3.27-1.15,6.48-2.7,9.63-4.14"/><path class="b" d="M8,105.92c5.24,0,10.52,0,15.76,0,4.1-.7,8.15-1.94,12.26-2.63,4.33-.78,8.85-.7,13.13.31,2.93.62,5.83,1.71,8.76,2.31,1.41,0,2.97,0,4.38,0,2,0,4.12,0,6.13,0,1.8-.41,3.61-1.27,5.25-2.08,3.5-1.74,6.82-4.03,10.51-5.37,2.53-.86,5.31-1.1,7.88-1.75,3.62-2.53,7.73-4.91,12.26-4.99,10.55.11,17.04,10.3,26.27,13.87,1.65.53,3.55.25,5.25.32,2.6,0,5.28,0,7.88,0,3.18,0,6.45,0,9.63,0,2-.21,4.11-.57,6.13-.52,2.9,0,5.87.2,8.76.47,5.45-.78,10.61-3,15.76-4.85"/><path class="b" d="M8,103.72c6.12-.01,12.27.02,18.39-.01,3.48-.58,7-1.38,10.51-1.82,3.76-.49,7.65-.41,11.38.25,2.32.39,4.71.98,7.01,1.5,2.29.19,4.71.04,7,.08,1.71,0,3.55,0,5.25,0,2.42-.66,4.79-1.8,7.01-2.96,5.1-2.78,8.88-5.12,14.89-5.39,4.37-3.25,9.18-6.91,14.89-6.8,10.63.63,16.96,11.03,26.27,14.89,1.63.54,3.56.16,5.25.27,2.89,0,5.87,0,8.76,0,2.89,0,5.87,0,8.76,0,2.29-.33,4.69-.61,7-.51,2.6-.03,5.29.35,7.88.3,5.34-.87,10.56-2.53,15.76-3.97"/><path class="b" d="M8,101.52c6.99,0,14.02,0,21.01,0,5.5-.7,11.07-1.71,16.64-1.14,3.21.16,6.41,1.22,9.63,1.14,2.6,0,5.28,0,7.88,0,1.4-.06,3.01.18,4.38-.2,6.88-2.01,12.71-7.48,20.14-7.45,13.72-11.78,20.03-10.31,33.27.95,2.47,2,5.07,4.06,7.88,5.58.75.4,1.8.9,2.63,1.13.78,0,1.85,0,2.63,0,6.12,0,12.27,0,18.39,0,1.72.05,3.54-.39,5.25-.43,2.89-.06,5.87.08,8.76.23,5.89-.68,11.7-2.11,17.51-3.22"/><path class="b" d="M8,99.32c7.87,0,15.77,0,23.64,0,4.65-.16,9.34-.93,14.01-.51,3.19.29,6.43.64,9.63.51,3.77-.04,7.62.09,11.38-.06,4.88-1.35,9.26-4.12,14.01-5.81,1.07-.37,2.38-.71,3.5-.87.83-.09,1.94-.03,2.63-.6,5.03-4.12,10.56-9.26,17.51-8.88,10.6,1.14,16.88,11.89,26.27,15.9,1.31.6,2.98.22,4.38.32,2.3,0,4.71,0,7,0,5.24-.06,10.54.2,15.76-.29,2.3-.06,4.71.1,7.01.08,6.43-.6,12.85-1.66,19.26-2.4"/><path class="b" d="M8,97.12c19.26,0,38.53-.03,57.79,0,6.63-1.15,12.39-5.8,19.26-5.96,10.6-9.06,17.89-15.15,30.65-5.07,4.87,3.63,9.27,8.18,14.89,10.68,1.02.56,2.39.3,3.5.35,2,0,4.13,0,6.13,0,5.24,0,10.52.01,15.76,0,9.35-.21,18.68-1.36,28.02-1.8"/><path class="b" d="M8,94.92c14.88,0,29.78,0,44.66,0,4.65-.03,9.36.06,14.01-.04,2.96-.75,5.89-1.9,8.76-2.93,2.24-.8,4.63-1.54,7-1.81,1.81.16,3.07-1.4,4.38-2.41,5.03-4.08,10.6-9.12,17.51-8.73,10.54,1.11,16.92,11.57,26.27,15.53,1.58.73,3.56.27,5.25.39,2.6,0,5.28,0,7.88,0,5.54.01,11.11.09,16.64-.35,7.86-.42,15.77-.68,23.64-.67"/><path class="b" d="M8,92.72c14.3,0,28.61,0,42.91,0,5.53-.09,11.12.18,16.64-.11,2.63-.64,5.28-1.53,7.88-2.29,2.53-.84,5.27-1.13,7.88-1.53,1.44-1.05,2.99-2.3,4.38-3.41,4.8-3.79,10.17-8.19,16.64-7.91,10.52.91,16.97,10.96,26.27,14.82,1.3.66,2.97.36,4.38.42,2,0,4.13,0,6.13,0,5.83.06,11.69.01,17.51-.44,8.45-.41,16.94-.16,25.39.12"/><path class="b" d="M8,90.52c15.46,0,30.94,0,46.41,0,4.65-.06,9.37.12,14.01-.08,4.62-1.03,9.24-2.49,14.01-2.64,4.47-2.87,8.45-6.58,13.13-9.13,6.64-3.81,13.04-2.77,19.26,1.3,3.59,2.25,6.95,4.98,10.51,7.28,2.16,1.28,4.48,2.91,7.01,3.27,4.07,0,8.19,0,12.26,0,6.42.08,12.84-.73,19.26-.61,6.71.02,13.43.75,20.14.61"/><path class="b" d="M8,88.32c15.76,0,31.53,0,47.28,0,4.94-.08,9.96.17,14.89-.11,2.59-.48,5.26-1.04,7.88-1.34,1.4-.26,3.07.08,4.38-.54,4.52-2.56,8.53-6.07,13.13-8.49,6.52-3.64,12.94-3.08,19.26.66,4.87,2.49,13.29,9.82,18.39,9.81,4.95-.04,9.95.13,14.89-.17,5.53-.2,11.11-.51,16.64-.29,2.6.1,5.29.32,7.88.46,3.77,0,7.61,0,11.38,0"/><path class="b" d="M8,86.12c16.63,0,33.28,0,49.91,0,4.07,0,8.19,0,12.26,0,2.02.1,4.12-.37,6.13-.54,1.1-.11,2.4-.19,3.5-.22.82.01,1.91.04,2.63-.43,4.87-2.32,9.13-5.83,14.01-8.12,6.5-3.28,12.99-2.62,19.26.81,5.27,2.71,10.1,6.44,15.76,8.34,5.5.49,11.12-.12,16.64-.12,6.41-.05,12.87-.34,19.26.21,5.52.17,11.11.01,16.64.06"/><path class="b" d="M8,83.92c17.22,0,34.45,0,51.66,0,4.95,0,9.94,0,14.89,0,1.41.01,2.97-.01,4.38-.06,1.48.07,3.03,0,4.38-.69,4.84-2.01,9.17-5.18,14.01-7.21,6.02-2.75,12.45-2.41,18.39.38,5.59,2.33,10.67,6.25,16.64,7.54,4.36-.22,8.77-.29,13.13-.26,12.84.13,25.69.38,38.53.29"/><path class="b" d="M8,81.72c17.51,0,35.03,0,52.54,0,4.95,0,9.94,0,14.89,0,1.71,0,3.55,0,5.25,0,1.11-.04,2.45.16,3.5-.25,4.83-1.66,9.23-4.46,14.01-6.24,5.96-2.44,12.48-2.19,18.39.25,3.25,1.24,6.43,2.85,9.63,4.21,1.67.59,3.45,1.67,5.25,1.65,4.07-.12,8.19-.05,12.26.09,6.99.35,14.02.33,21.02.3,6.41-.06,12.86.12,19.26-.07"/><path class="b" d="M8,79.52c17.8,0,35.61,0,53.41,0,5.53,0,11.11,0,16.64,0,1.71,0,3.55,0,5.25,0,1.11-.03,2.45.15,3.5-.29,4.45-1.44,8.66-3.65,13.13-5.03,5.68-1.9,11.89-1.63,17.51.31,3.82,1.23,7.56,2.9,11.38,4.14,1.97.35,4.13.08,6.13.23,3.19.1,6.45.31,9.63.51,6.99.29,14.02.04,21.02.12,6.11-.11,12.3.22,18.39-.13"/><path class="b" d="M8,77.31c18.38,0,36.78,0,55.16,0,8.46,0,16.94,0,25.39,0,4.15-1.02,8.13-2.8,12.26-3.9,5.4-1.57,11.2-1.61,16.64-.19,2.33.57,4.72,1.33,7,2.06,1.4.36,2.92,1.13,4.38,1.09,7.01.16,14,1.2,21.01.93,7.29,0,14.6,0,21.89,0,4.05-.11,8.23.24,12.26-.16"/><path class="b" d="M8,75.11c12.25,0,24.52,0,36.78,0,2.9.07,5.86-.3,8.76-.27,2.9-.04,5.86.33,8.76.27,9.62,0,19.27,0,28.9,0,1.45-.01,2.98-.63,4.38-.96,2.58-.73,5.25-1.51,7.88-2.05,5.18-1.12,10.6-.97,15.76.17,2.32.48,4.71,1.12,7.01,1.7,2,.2,4.13.24,6.13.45,2.3.2,4.71.46,7,.69,4.65.02,9.36,0,14.01,0,6.41,0,12.86,0,19.26,0,2.3,0,4.71,0,7,0,1.4-.05,3,.14,4.38-.18"/><path class="b" d="M8,72.91c11.38,0,22.77,0,34.15,0,4.35-.43,8.74-1.17,13.13-1.04,3.81-.04,7.61.78,11.38,1.04,8.46,0,16.94,0,25.39,0,1.1,0,2.41,0,3.5-.01,1.41-.29,2.98-.65,4.38-.97,3.15-.71,6.41-1.35,9.63-1.56,4.99-.37,10.01.39,14.89,1.39,3.47.4,7.04.59,10.51,1.05,9.02.28,18.11.01,27.14.1,4.65,0,9.36,0,14.01,0,2.59-.1,5.32.23,7.88-.17"/><path class="b" d="M8,70.71c10.21,0,20.44,0,30.65,0,4.94-.77,9.87-2,14.89-2.14,5.62-.26,11.17.99,16.64,2.11,2.89.07,5.86.01,8.76.03,6.7,0,13.44,0,20.14,0,4.93-.65,9.88-1.77,14.89-1.66,7.32.04,14.56,1.91,21.89,1.66,10.21,0,20.44,0,30.65,0,3.77,0,7.61,0,11.38,0,2-.08,4.16.18,6.13-.15"/><path class="b" d="M8,68.51c9.04,0,18.11.01,27.14,0,5.84-1.12,11.56-3.14,17.51-3.58,6.89-.66,13.57,1.51,20.14,3.27,2.79.66,5.89.18,8.76.32,7.29,0,14.6,0,21.89,0,4.93-.41,9.91-1.15,14.89-.81,3.2.08,6.44.65,9.63.81,9.04,0,18.1,0,27.14,0,5.53,0,11.11,0,16.64,0,2.59,0,5.29,0,7.88,0,1.41-.24,2.99-.61,4.38-.94"/><path class="b" d="M8,66.31c8.16-.1,16.38.2,24.52-.12,6.5-1.37,12.66-4.24,19.26-5.16,5.62-.86,11.34.3,16.64,2.19,2.3.79,4.68,1.68,7.01,2.4,1.65.65,3.5.78,5.25.69,8.45,0,16.94,0,25.39,0,2.89-.14,5.86-.37,8.76-.32,9.33.34,18.68.37,28.02.32,7.58,0,15.19,0,22.77,0,3.18,0,6.45,0,9.63,0,2.94-.48,5.9-1.36,8.76-2.18"/><path class="b" d="M8,64.11c4.65,0,9.36,0,14.01,0,3.19-.13,6.54.4,9.63-.55,6.86-1.76,13.17-5.36,20.14-6.72,10.81-2.32,19.15,3.85,28.9,7,1.35.47,2.97.19,4.38.26,2.6,0,5.28,0,7.88,0,6.12.04,12.27,0,18.39-.24,9.91.33,19.85.24,29.77.24,9.04,0,18.11,0,27.14,0,5.43.16,10.64-2.04,15.76-3.6"/><path class="b" d="M8,61.91c4.07,0,8.19,0,12.26,0,2.59-.11,5.33.26,7.88-.23,8.33-1.78,15.46-6.93,23.64-9.14,9.75-2.8,17.91,2.1,26.27,6.42,2.23,1.1,4.61,2.16,7,2.87,2.59.2,5.29.03,7.88.09,2.89,0,5.86,0,8.76,0,3.77-.19,7.61-.42,11.38-.2,9.61.46,19.27.09,28.9.2,5.24,0,10.52,0,15.76,0,2.89-.07,5.89.19,8.76-.19,6.03-.77,11.81-2.87,17.51-4.9"/><path class="b" d="M8,59.71c5.82-.06,11.7.13,17.51-.08,9.26-1.63,16.79-7.74,25.39-11.11,6.88-2.79,13.76-1.73,20.14,1.8,6.1,3.09,11.64,7.79,18.39,9.39,2.89,0,5.86,0,8.76,0,2.3-.21,4.7-.4,7-.45,3.49-.1,7.04.13,10.51.45,5.24,0,10.52,0,15.76,0,4.95,0,9.94,0,14.89,0,2.89-.05,5.88.17,8.76-.22,3.48-.34,7.06-.22,10.51-.84,6.35-.95,12.37-3.35,18.39-5.48"/><path class="b" d="M8,57.51c5.24-.04,10.53.07,15.76-.04,10.55-1.57,18.61-9.15,28.02-13.47,6.9-3.21,13.7-2.39,20.14,1.44,5.13,2.91,9.72,6.76,14.89,9.61,2.68,1.41,5.64,3.04,8.76,2.28,6.39-.83,12.89-.75,19.26.12,3.77.18,7.61.02,11.38.07,7.29,0,14.6,0,21.89,0,2.9-.37,5.83-1.2,8.76-1.43,4.1-.16,8.27-.49,12.26-1.55,5.06-1.23,9.95-3.21,14.89-4.84"/><path class="b" d="M8,55.31c4.94-.08,9.96.17,14.89-.11,11.54-1.59,19.87-10.42,29.77-15.67,7.77-4.12,14.83-2.89,21.89,1.96,4.4,2.54,16.76,14.29,21.01,13,5.22-.67,10.56-.56,15.76.2,1.4.18,2.97.46,4.38.61,1.7,0,3.55,0,5.25,0,3.77,0,7.61,0,11.38,0,4.36,0,8.77.01,13.13,0,2.02-.47,4.13-1.08,6.13-1.6,4.57-1.44,9.36-.97,14.01-1.89,6.29-1.13,12.29-3.53,18.39-5.36"/><path class="b" d="M8,53.09c4.36.03,8.77,0,13.13.01,6.38-.63,12.34-3.47,17.51-7.15,9.2-6.24,19.37-17.8,31.52-12.41,4.96,2.15,9.08,5.87,13.13,9.37,2.8,2.43,5.67,4.98,8.76,7.05.76.5,1.82,1.15,2.63,1.57.44.03,1.32,0,1.75-.07,6.47-.74,12.93.48,19.26,1.65,7.87,0,15.77,0,23.64,0,1.4-.04,2.99.12,4.38-.13,3.81-1.03,7.51-2.67,11.38-3.49,1.68-.38,3.54-.44,5.25-.49,2.02-.11,4.15-.4,6.13-.78,5.93-1.12,11.67-3.19,17.51-4.67"/><path class="b" d="M8,50.68c2.57.41,5.28.16,7.88.22,1.71-.01,3.55.03,5.25-.03,2.35-.28,4.77-.8,7-1.58,6.65-2.27,12.19-6.86,17.51-11.31,7.26-6.1,16.33-13.94,26.27-8.95,9.28,4.58,15.11,13.8,23.64,19.43,6.82-.69,13.53.95,20.14,2.43,7.58.02,15.19,0,22.77,0,1.1-.02,2.42.08,3.5-.11,1.11-.33,2.42-.79,3.5-1.2,3.16-1.21,6.32-2.7,9.63-3.48,1.67-.42,3.54-.48,5.25-.5,2.01-.09,4.14-.34,6.13-.67,5.89-.98,11.66-2.75,17.51-3.91"/><path class="b" d="M8,48.33c1.99.42,4.11.4,6.13.38,2.63.14,5.29-.32,7.88-.69,2.62-.41,5.44-.28,7.88-1.45,6.72-2.7,12.17-7.7,17.51-12.44,6.77-6.05,15.75-14.34,25.39-9.65,6.34,3.05,10.99,8.66,15.76,13.66,2.47,2.48,4.84,5.43,7.88,7.21,6.28-.37,12.37,1.59,18.39,3.11,1.66.45,3.55.17,5.25.25,3.19,0,6.45,0,9.63,0,3.19,0,6.45,0,9.63,0,1.81.07,3.6-.95,5.25-1.57,4.26-1.79,8.45-4.27,13.13-4.68,2.3-.06,4.71-.07,7.01-.35,6.46-.69,12.83-2.3,19.26-3.18"/><path class="b" d="M8,46.04c3.17.77,6.48.49,9.63-.19,2.88-.49,5.85-.93,8.76-1.19,1.4-.16,2.99-.14,4.38-.37,1.46-.61,3.03-1.41,4.38-2.22,6.22-3.77,11.29-9.14,16.64-13.99,6.55-6.03,14.74-12.24,23.64-6.82,8.57,5.19,13.63,14.36,21.01,20.9,2.61.23,5.33.37,7.88,1.03,3.83.88,7.58,2.28,11.38,3.24,4.94.18,9.94.02,14.89.07,2-.01,4.13.02,6.13-.02,1.43-.05,3.05.1,4.38-.54,5.31-1.94,10.09-5.52,15.76-6.38,3.18-.23,6.46-.04,9.63-.41,5.84-.52,11.67-1.48,17.51-1.93"/><path class="b" d="M8,43.83c.79.17,1.83.36,2.63.47,1.42-.19,2.97-.56,4.38-.82,2.88-.57,5.84-1.1,8.76-1.44,3.17-.46,6.46-.37,9.63-.67,2.8-1.38,5.47-3.24,7.88-5.21,5.23-4.28,9.79-9.39,14.89-13.81,6.63-5.86,13.95-9.38,21.89-3.48,7.38,5.43,11.96,13.7,18.39,20.09,1.02.53,2.4.4,3.5.62,1.73.27,3.58.72,5.25,1.22,3.8,1.04,7.49,2.87,11.38,3.5,2.89,0,5.87,0,8.76,0,3.48.02,7.03.04,10.51-.28,1.4-.1,2.98-.07,4.38-.18.78-.3,1.86-.75,2.63-1.1,4.84-2.18,9.45-5.52,14.89-5.92,8.76.27,17.52-.71,26.27-.91"/><path class="b" d="M8,41.69c.82.3,1.82.1,2.63-.13,1.1-.26,2.4-.56,3.5-.79,3.74-.81,7.57-1.46,11.38-1.78,2-.17,4.12-.26,6.13-.27,1.41-.1,3.04.28,4.38-.23,2.81-1.58,5.46-3.62,7.88-5.74,3.94-3.46,7.58-7.37,11.38-10.98,3.14-2.94,6.51-5.94,10.51-7.64,6.75-3.03,12.99.91,17.51,5.84,3.18,3.35,5.93,7.22,8.76,10.86,1.06,1.36,2.36,2.97,3.5,4.26.56.8,1.6,1.53,2.63,1.46,4.24.55,8.29,2.16,12.26,3.66,2.53.89,5.13,2.14,7.88,1.89,3.77,0,7.61,0,11.38,0,3.47-.41,7.01-.8,10.51-.79,3.1-.74,5.87-2.76,8.76-4.07,6.9-3.6,9.35-2.62,16.64-2.53,6.12.08,12.27-.01,18.39.18"/><path class="b" d="M8,39.42c9.63-2.92,19.75-3.85,29.77-3.2,6.72-3.93,11.99-9.85,17.51-15.23,3.87-3.7,7.94-7.71,13.13-9.4,12.74-3.7,20.71,14.3,28.02,21.93,1.38.42,2.99.53,4.38.94,2.36.62,4.74,1.52,7.01,2.43,1.7.68,3.53,1.43,5.25,2.05,1.37.48,2.9,1.09,4.38.96,3.48,0,7.03,0,10.51,0,2.3-.3,4.69-.73,7-.94,2.29-.32,4.73-.1,7-.43,1.11-.5,2.42-1.14,3.5-1.69,6.95-3.55,9.55-4.92,17.51-4.04,6.99.42,14.03.79,21.02,1.29"/><path class="b" d="M8,36.63c5.64-1.83,11.59-2.8,17.51-3.07,3.18-.14,6.45-.08,9.63.09,4.44.15,4.12,1.03,7.88-1.84,5.09-3.75,9.46-8.47,14.01-12.83,5.71-5.53,13.76-12.51,21.89-7.39,7.61,4.71,11.41,13.38,17.51,19.61,6.49.77,12.24,4.21,18.39,6.17,1.06.43,2.39.34,3.5.34,1.4,0,2.97,0,4.38,0,1.4-.03,2.98.08,4.38-.09,2-.38,4.11-.79,6.13-1.07,1.99-.28,4.12-.46,6.13-.49,1.41-.12,3.11.35,4.38-.4,4.21-1.91,8.43-4.38,13.13-4.75,3.49-.07,7.03.51,10.51.79,5.53.56,11.1,1.18,16.64,1.73"/><path class="b" d="M8,33.87c5.61-1.93,11.61-2.64,17.51-2.78,3.78-.08,7.62.12,11.38.39,1.7.02,3.58.54,5.25.17.8-.49,1.87-1.2,2.63-1.75,4.74-3.42,8.87-7.68,13.13-11.66,5.31-4.88,12.44-11.45,20.14-8.07,7.86,3.81,11.9,12.23,17.51,18.5,2.61.63,5.37,1.1,7.88,2.13,4.08,1.5,8.06,3.48,12.26,4.66,3.18.04,6.45.08,9.63-.02,5.72-1.33,11.61-2.45,17.51-1.94,1.52.29,3.01-.77,4.38-1.28,2.51-1.07,5.17-2.12,7.88-2.54,3.77-.54,7.63.35,11.38.73,5.82.78,11.67,1.66,17.51,2.32"/><path class="b" d="M8,31.2c7.56-2.58,15.75-2.58,23.64-2.16,2.6.15,5.29.38,7.88.6,1.69-.01,3.79.84,5.25-.3,6.77-4.2,12.15-10.25,18.39-15.13,4.67-3.76,10.9-6.74,16.64-3.44,4.33,2.38,7.48,6.45,10.51,10.24,1.08,1.37,2.38,3,3.5,4.34.56.82,1.57,1.66,2.63,1.6,5.82.88,11.11,3.72,16.64,5.6,1.36.52,2.92.89,4.38.75,1.7,0,3.55,0,5.25,0,1.44.06,2.98-.58,4.38-.86,2.28-.57,4.68-1.1,7-1.4,2.58-.33,5.29-.39,7.88-.19,1.36-.02,3.14.67,4.38.08,1.97-.74,4.08-1.51,6.13-2.01,4.6-1.26,9.4-.2,14.01.44,5.81.91,11.66,1.91,17.51,2.55"/><path class="b" d="M8,28.68c5.6-1.9,11.66-2,17.51-1.88,6.72.12,13.44,1.23,20.14,1.41,6.12-3.32,11.18-8.27,16.64-12.51,4.6-3.61,10.65-7.37,16.64-5,4.75,1.87,8.14,6.02,11.38,9.78,1.08,1.27,2.38,2.78,3.5,4.02.68.58,1.79.61,2.63.72,5.16.79,9.99,3.03,14.89,4.73,1.94.71,4.03,1.36,6.13,1.16,1.7-.08,3.59.19,5.25-.18,5.14-1.41,10.38-2.99,15.76-2.83,2.92.02,5.89.52,8.76,1,3.38-1.05,6.94-1.97,10.51-1.83,8.8.73,17.45,2.91,26.27,3.6"/><path class="b" d="M8,26.34c3.65-1.2,7.57-1.43,11.38-1.49,5.55-.07,11.12.48,16.64.98,2.6.24,5.28.49,7.88.69,1.41.04,3.12.54,4.38-.33,6.9-3.55,12.5-9.19,19.26-12.95,7.39-4.17,13.49-2.3,19.26,3.43,10.25,10.58,3.46,4.51,16.64,8.72,3.48,1.11,6.97,2.45,10.51,3.36,1.68.31,3.55.09,5.25.15,1.14.1,2.43-.37,3.5-.68,1.7-.51,3.54-1.09,5.25-1.54,4.53-1.26,9.36-1.61,14.01-.87,2.32.32,4.71.91,7.01,1.38,3.41-.78,7.01-1.24,10.51-.82,5.85.63,11.66,1.84,17.51,2.47,2.29.15,4.71.03,7.01.07"/><path class="b" d="M8,24.22c3.96-1.15,8.17-1.16,12.26-1.09,5.55.15,11.11.78,16.64,1.28,2.6.24,5.28.46,7.88.64,1.71.03,3.68.58,5.25-.32,6.19-2.78,11.49-7.23,17.51-10.31,6.1-3.23,12-3.04,17.51,1.26,2.13,1.6,4.16,3.56,6.13,5.35.37.42,1.18,1.01,1.75,1.06,1.1.02,2.41.12,3.5.26,2.34.31,4.74.88,7,1.51,3.48.93,6.96,2.2,10.51,2.85,1.7-.08,3.59.21,5.25-.2,2.9-.86,5.82-1.97,8.76-2.73,4.55-1.24,9.4-1.34,14.01-.4,2.92.56,5.87,1.4,8.76,2.12,2.87-.38,5.87-.54,8.76-.24,3.79.36,7.61.99,11.38,1.45,4.36,0,8.78,0,13.13,0"/><path class="b" d="M8,22.3c6.01-1.39,12.3-.7,18.39-.27,5.24.46,10.51,1.01,15.76,1.37,1.7.12,3.55.23,5.25.31,1.1,0,2.44.28,3.5-.12,9.35-2.92,18.75-12.42,28.9-9.71,4.35,1.19,7.85,4.29,11.38,6.94,4.42.09,8.85.67,13.13,1.78,3.74.83,7.5,2.19,11.38,1.91,1.47.08,2.99-.74,4.38-1.15,1.99-.71,4.1-1.49,6.13-2.08,4.52-1.39,9.39-1.62,14.01-.63,4.13.83,8.17,2.27,12.26,3.25,2.3-.03,4.71-.12,7,.1,2.01.11,4.12.51,6.13.51,6.12,0,12.27,0,18.39,0"/><path class="b" d="M8,20.58c5.18-.98,10.54-.45,15.76-.1,6.7.56,13.42,1.24,20.14,1.55,2.59.08,5.29.32,7.88.19,2.67-.65,5.35-1.65,7.88-2.71,13.07-5.7,17.93-8.01,30.65.33,4.69-.27,9.41.4,14.01,1.27,3.7.6,7.67,1.91,11.38.82,3.5-1.18,6.93-2.77,10.51-3.72,4.26-1.2,8.84-1.19,13.13-.13,5.01,1.18,9.83,3.25,14.89,4.22,9.92,0,19.86,0,29.77,0"/><path class="b" d="M8,18.99c8.14-.99,16.38.41,24.52.85,6.69.51,13.44.16,20.14.26,3.32.28,6.51-.94,9.63-1.91,5.08-1.64,10.34-3.56,15.76-3.08,2.38.2,4.8.9,7,1.81,1.42.54,2.9,1.44,4.38,1.82,4.07-.26,8.21.01,12.26.51,2.6.25,5.26.89,7.88.85.78,0,1.85,0,2.63,0,1.76-.44,3.57-1.23,5.25-1.91,3.65-1.52,7.42-3.1,11.38-3.55,8.3-1.07,15.8,3.52,23.64,5.34,3.75.3,7.62.03,11.38.12,6.7,0,13.44,0,20.14,0"/><path class="b" d="M8,17.47c5.82-.53,11.7.11,17.51.43,5.82.01,11.69,0,17.51,0,5.82-.07,11.7.14,17.51-.08,3.2-.62,6.42-1.47,9.63-2.04,5.97-1.23,11.83-.4,17.51,1.65,2.58.18,5.29-.17,7.88,0,3.19.03,6.44.51,9.63.47,1.4,0,2.98,0,4.38,0,2.43-.38,4.74-1.7,7-2.62,5.16-2.4,10.88-4.39,16.64-3.37,6.09.97,11.58,4.14,17.51,5.71,1.35.44,2.98.23,4.38.27,2.59,0,5.29,0,7.88,0,6.99,0,14.02,0,21.02,0"/><path class="b" d="M8,15.7c12.84,0,25.69,0,38.53,0,4.36,0,8.77,0,13.13,0,2.9-.04,5.89.18,8.76-.34,3.46-.46,7.02-.76,10.51-.5,2.62.1,5.25.95,7.88.84,6.99-.04,14.03.09,21.02-.05,3.62-1.18,7.02-3.08,10.51-4.55,5.19-2.38,11.17-3.1,16.64-1.25,5.36,1.62,10.29,4.58,15.76,5.86,11.08,0,22.19,0,33.27,0"/></svg>