<?xml version="1.0" encoding="UTF-8"?><svg id="a" xmlns="http://www.w3.org/2000/svg" width="1920" height="2400" viewBox="0 0 192 240"><defs><style>.b{fill:none;stroke:#fff;stroke-miterlimit:10;stroke-width:.3px;}.c{stroke-width:0px;}</style></defs><rect class="c" x="0" width="192" height="240"/><path class="b" d="M8,220.19c2.82.63,5.3,2.34,7.88,3.55,3.06,1.44,6.35,2.55,9.63,3.34,5.15,1.3,10.47,1.81,15.76,2.02,6.67.85,13.43.75,20.14.73,8.16,0,16.35,0,24.52,0,4.07,0,8.19,0,12.26,0,1.4,0,2.97,0,4.38,0,1.16.1,2.45-.09,3.5-.62,5.53-2.26,10.28-6.15,15.76-8.51,8.76-4.02,15.99-.42,23.64,4.04,3.07,1.73,6.27,3.45,9.63,4.55,3.47.18,7.04-.14,10.51.27,3.17.36,6.44.31,9.63.24,3.64-1.89,6.3-5.3,8.76-8.49"/><path class="b" d="M8,217c3.51.71,6.41,3.09,9.63,4.52,4.43,2.13,9.19,3.63,14.01,4.58,2,.03,4.12-.28,6.13-.2,3.21.04,6.47.45,9.63.97,1.41.23,2.97.5,4.38.74,3.48.07,7.03,0,10.51.03,6.99,0,14.02,0,21.01,0,5.24,0,10.52,0,15.76,0,1.7,0,3.55,0,5.25,0,1.41-.03,3.04.16,4.38-.39,4.82-1.61,9.26-4.26,14.01-6.05,10.21-4.11,17.79-.58,27.14,3.56,2.25.89,4.61,1.97,7,2.4,3.49-.11,7.03.44,10.51.49,2.89,0,5.87,0,8.76,0,3.26-1.27,5.66-4.25,7.88-6.83"/><path class="b" d="M8,214.18c3.24.52,5.92,2.67,8.76,4.16,3.87,2.12,8.01,3.89,12.26,5.08,1.1.37,2.39-.17,3.5-.26,1.99-.28,4.12-.44,6.13-.42,5.95-.08,11.69,1.88,17.51,2.7,8.16,0,16.35,0,24.52,0,9.33,0,18.69,0,28.02,0,2.12.18,4.15-.34,6.13-1.05,2.62-.86,5.27-1.9,7.88-2.78,11.41-4.15,18.79-2.07,29.77,1.78,1.98.62,4.08,1.34,6.13,1.71,3.77.33,7.6.42,11.38.36,2.59-.1,5.32.23,7.88-.17,2.34-1.22,4.37-3.19,6.13-5.13"/><path class="b" d="M8,211.76c2.57.31,4.85,1.79,7.01,3.11,2.25,1.35,4.64,2.7,7,3.84,1.38.66,2.94,1.34,4.38,1.88.81.31,1.79.73,2.63.32,5.68-1.58,11.72-2.06,17.51-.79,4.12.82,8.16,2.2,12.26,3.11,3.48,0,7.03,0,10.51,0,10.79,0,21.61,0,32.4,0,3.19,0,6.45,0,9.63,0,2.01-.06,4.18.22,6.13-.35,11.15-2.95,18.86-5.79,30.65-2.93,4.38,1,8.75,2.29,13.13,3.29,2.89,0,5.87,0,8.76,0,2.89-.02,5.87.04,8.76-.03,1.93-.92,3.73-2.42,5.25-3.91"/><path class="b" d="M8,209.78c2.93.26,5.44,2.07,7.88,3.54,3.35,2.04,6.85,4.03,10.51,5.48,3.47-.89,6.91-2.29,10.51-2.7,7.91-1.27,15.39,2.13,22.77,4.41,1.65.63,3.52.55,5.25.53,2.6,0,5.28,0,7.88,0,15.76,0,31.53,0,47.28,0,2.35.06,4.72-.73,7.01-1.16,3.74-.82,7.56-1.63,11.38-1.96,7.69-.75,15.36.96,22.77,2.85,1.35.45,2.98.2,4.38.26,2,0,4.13,0,6.13,0,2.59,0,5.29,0,7.88,0,1.59-.53,3.1-1.72,4.38-2.78"/><path class="b" d="M8,208.2c3.27.21,6.02,2.32,8.76,3.92,1.68,1.02,3.51,2.1,5.25,3.02,1.07.5,2.29,1.34,3.5,1.41,10.48-4.48,17.1-6.32,28.02-1.7,2.31.92,4.68,1.96,7,2.82,1.38.44,2.91,1.19,4.38,1.17,14.59,0,29.19,0,43.78,0,6.41-.05,12.86.1,19.26-.06,4.07-.68,8.16-1.56,12.26-2.05,4.63-.58,9.39-.55,14.01.17,2.93.44,5.91,1.08,8.76,1.92,3.18.04,6.45,0,9.63.02,2.59,0,5.29,0,7.88,0,1.25-.2,2.48-1.12,3.5-1.82"/><path class="b" d="M8,206.98c2.54.1,4.88,1.39,7.01,2.67,2.85,1.68,5.75,3.48,8.76,4.87,4.4-1.46,8.51-4.25,13.13-5.43,9.86-3.03,17.65,2.72,26.27,6.41,1.64.7,3.44,1.32,5.25,1.13,2.3,0,4.7,0,7.01,0,6.7,0,13.44,0,20.14,0,10.21,0,20.44,0,30.65,0,2.59-.05,5.29.11,7.88-.08,3.48-.55,7.01-1.23,10.51-1.62,4.05-.47,8.22-.46,12.26.16,2.35.29,4.71,1,7.01,1.54,2.89,0,5.87,0,8.76,0,2,0,4.13,0,6.13,0,1.09-.02,2.42.08,3.5-.12.42-.2,1.35-.67,1.75-.92"/><path class="b" d="M8,206.06c5.55.32,9.8,4.81,14.89,6.56,5.01-2.31,9.62-5.62,14.89-7.36,9.23-3.29,16.81,2.22,24.52,6.52,1.93,1.03,4.03,2.04,6.13,2.66,2.6,0,5.28,0,7.88,0,5.82,0,11.69,0,17.51,0,14.88,0,29.78,0,44.66,0,4.93-.68,9.88-1.77,14.89-1.68,2.31.03,4.74.26,7,.74,1.99.48,4.05,1.14,6.13.94,3.77,0,7.61,0,11.38,0,1.09,0,2.41,0,3.5,0,.8.03,1.93.04,2.63-.44"/><path class="b" d="M8,205.35c4.51.14,8.27,3.12,12.26,4.89,1.52,1.09,3-.25,4.38-.93,2.36-1.33,4.71-2.9,7-4.33,3.72-2.3,7.79-4.56,12.26-4.77,7.76-.3,13.85,5.39,20.14,9.11,1.91,1.14,4,2.25,6.13,2.91,1.41,0,2.97,0,4.38,0,21.59,0,43.2,0,64.8,0,5.87.11,11.63-1.78,17.51-1.29,2.34.12,4.74.63,7.01,1.2,2.29.21,4.71.04,7,.09,2.89-.07,5.88.16,8.76-.11,1.41-.37,2.98-.85,4.38-1.28"/><path class="b" d="M8,204.73c4.42.07,8.25,2.75,12.26,4.28,1.89-.37,3.62-1.68,5.25-2.63,3.26-2.1,6.36-4.58,9.63-6.66,12.48-8.32,19.71-.43,29.77,6.73,2.15,1.41,4.48,2.97,7.01,3.58,1.71,0,3.55,0,5.25,0,4.95,0,9.94,0,14.89,0,4.36.04,8.77-.57,13.13-.25,7.27.5,14.61.16,21.89.25,6.41,0,12.85,0,19.26,0,2.88-.39,5.84-.92,8.76-1,2.92-.12,5.91.3,8.76.96,2.3.09,4.71.02,7,.04,1.7,0,3.55,0,5.25,0,2.68-.72,5.3-1.95,7.88-2.97"/><path class="b" d="M8,204.1c4.01.02,7.66,2.05,11.38,3.28,6.35-2.41,11.14-7.56,16.64-11.37,12.62-9.28,19.98-.03,29.77,7.64,1.34,1.02,2.9,2.1,4.38,2.91,1.05.51,2.29,1.3,3.5,1.27,5.24,0,10.52,0,15.76,0,4.11.24,8.17-.82,12.26-1.01,4.67-.3,9.39.21,14.01.9,6.97.3,14.03.02,21.01.11,5.53-.12,11.15.36,16.64-.44,3.49-.46,7.05-.03,10.51.44,3.18,0,6.45,0,9.63,0,3.74-.93,7.05-3.27,10.51-4.92"/><path class="b" d="M8,203.35c3.63-.06,7.02,1.56,10.51,2.26,10.54-3.15,18.04-17.57,28.9-17.42,10.03.85,16.48,12.82,25.39,16.89,1.02.6,2.36.58,3.5.55,1.4,0,2.97,0,4.38,0,2.6,0,5.28,0,7.88,0,1.7-.05,3.58.17,5.25-.24,7.35-1.74,14.42-2.54,21.89-.97,2.01.36,4.12.82,6.13,1.2,4.07.04,8.19,0,12.26.01,7.28-.11,14.62.24,21.89-.19,2-.14,4.13.04,6.13.19,3.18,0,6.45,0,9.63,0,4.49-1.54,8.21-4.77,12.26-7.16"/><path class="b" d="M8,202.39c2.34.02,4.73.48,7.01,1,1.1.07,2.4.03,3.5.04,10.03-2.78,15.78-14.58,25.39-18.29,10.08-3.5,17.62,8.64,24.52,14.11,2.08,1.66,4.36,3.58,7,4.19,2.3,0,4.7,0,7,0,2.3,0,4.7,0,7.01,0,1.1-.02,2.41.07,3.5-.11.78-.19,1.85-.47,2.63-.69,11.87-3.6,17.18-2.92,28.9.39,2.23.69,4.7.31,7.01.4,4.07,0,8.19,0,12.26,0,8.75,0,17.52,0,26.27,0,5.41-1.85,9.37-6.45,14.01-9.6"/><path class="b" d="M8,201.15c2.6.12,5.28.08,7.88.08,1.41-.1,3.06.27,4.38-.31,6.4-2.72,10.82-8.45,15.76-13.11,2.78-2.63,5.86-5.38,9.63-6.41,10.27-2.67,18.5,12.61,26.27,17.69,1.04.73,2.33,1.5,3.5,2,1.08.24,2.4.12,3.5.15,2.6,0,5.28,0,7.88,0,2-.04,4.13.1,6.13-.08,5.22-1.48,10.29-3.86,15.76-4.3,7-.73,13.56,2.31,20.14,4.19,2.55.46,5.29.08,7.88.2,4.36,0,8.77,0,13.13,0,5.53,0,11.11,0,16.64,0,.77,0,1.86.02,2.63-.06,1.51-.65,3.07-1.65,4.38-2.66,3.69-2.87,6.88-6.45,10.51-9.4"/><path class="b" d="M8,199.03c2.6,0,5.28,0,7.88,0,1.7-.11,3.67.33,5.25-.43,9.74-4.29,15.48-17.4,25.39-20.33,10.79-2.47,19.04,15.27,28.02,19.9.75.39,1.74,1,2.63.86,1.4,0,2.97,0,4.38,0,3.77,0,7.61,0,11.38,0,6.4-1.92,12.41-5.72,19.26-5.73,6.82-.13,12.92,3.44,19.26,5.43,2.22.62,4.72.16,7,.3,4.36,0,8.77,0,13.13,0,5.53-.09,11.12.17,16.64-.11,6.47-3.24,10.48-9.73,15.76-14.45"/><path class="b" d="M8,196.83c2.89,0,5.86,0,8.76,0,1.7-.1,3.69.33,5.25-.5,9.55-4.43,15.54-18.24,25.39-20.74,11.14-1.97,18.99,17,28.9,21.08,1.97.36,4.13.08,6.13.17,3.19,0,6.45,0,9.63,0,1.5.15,3.03-.56,4.38-1.12,1.73-.73,3.55-1.62,5.25-2.41,4.34-2.06,9.13-3.79,14.01-3.26,6.57.65,12.22,4.51,18.39,6.5,1.04.44,2.4.24,3.5.28,1.4,0,2.98,0,4.38,0,4.36,0,8.77,0,13.13,0,4.07-.02,8.19.03,12.26-.02,7.13-3.67,11.08-11.25,16.64-16.75"/><path class="b" d="M8,194.63c3.19,0,6.45,0,9.63,0,1.71-.1,3.7.34,5.25-.54,9.33-4.46,15.58-18.74,25.39-20.68,11.58-1.82,20.68,21.78,30.65,21.22,4.65,0,9.36,0,14.01,0,1.51.13,3.03-.73,4.38-1.3,1.73-.8,3.56-1.77,5.25-2.65,4.79-2.55,10.25-4.67,15.76-3.58,5.63,1.02,10.53,4.27,15.76,6.41,1.07.42,2.36.96,3.5,1.12,2,0,4.13,0,6.13,0,4.65,0,9.36,0,14.01,0,2,0,4.13,0,6.13,0,1.09-.04,2.44.14,3.5-.21,7.25-4.22,11.09-12.33,16.64-18.36"/><path class="b" d="M8,192.43c3.19,0,6.45,0,9.63,0,1.99-.15,4.3.43,6.13-.53,9.1-4.37,15.6-18.83,25.39-20.08,8.44-.5,15.2,10.93,21.02,16.03,2.04,1.79,4.29,3.97,7,4.58,1.4,0,2.97,0,4.38,0,4.07,0,8.19,0,12.26,0,1.18.13,2.45-.54,3.5-.99,1.75-.8,3.57-1.8,5.25-2.73,5.5-3.2,11.95-6.03,18.39-4.14,4.96,1.29,9.36,4.16,14.01,6.22,1.37.61,2.94,1.22,4.38,1.63,2,.01,4.13,0,6.13,0,4.65,0,9.36,0,14.01,0,1.7,0,3.55,0,5.25,0,1.16.07,2.55.01,3.5-.76,6.8-4.82,10.51-12.75,15.76-19.03"/><path class="b" d="M8,190.23c3.48,0,7.03,0,10.51,0,1.11,0,2.4,0,3.5,0,.84.04,1.9-.01,2.63-.47,8.89-4.19,15.56-18.44,25.39-18.94,2.91-.03,5.64,1.46,7.88,3.2,6.26,4,10.57,10.37,16.64,14.61,1.03.63,2.25,1.56,3.5,1.6,2.3,0,4.7,0,7,0,3.48,0,7.03,0,10.51,0,9.88-3.32,16.3-11.62,28.02-7.74,5.48,1.79,10.33,5.19,15.76,7.1,1.33.59,2.94.71,4.38.64,1.7,0,3.55,0,5.25,0,4.95,0,9.94,0,14.89,0,1.09-.02,2.42.08,3.5-.11,1.99-1.02,3.77-2.7,5.25-4.36,4.25-4.88,7.5-10.64,11.38-15.8"/><path class="b" d="M8,188.03c3.48,0,7.03,0,10.51,0,1.11,0,2.4,0,3.5,0,1.15.06,2.48,0,3.5-.6,9.22-4.18,15.67-17.55,25.39-19.12,9.06-.88,16.21,11.59,22.77,16.68,1.55,1.18,3.28,2.71,5.25,3.04,2,0,4.13,0,6.13,0,3.77,0,7.61,0,11.38,0,3.14-.64,5.95-2.65,8.76-4.12,6.34-3.77,12.82-6.31,20.14-3.66,5.45,1.83,10.32,5.14,15.76,7.01,1.35.52,2.92.91,4.38.77,1.7,0,3.55,0,5.25,0,4.65,0,9.36,0,14.01,0,1.1-.05,2.46.17,3.5-.26,2-1.12,3.77-2.9,5.25-4.63,3.91-4.69,6.98-10.13,10.51-15.09"/><path class="b" d="M8,185.83c3.48,0,7.03,0,10.51,0,1.99-.13,4.27.4,6.13-.51,9.77-4.3,16.25-18.91,26.27-20.8,8.82-1.1,15.98,11.2,21.89,16.51,2.04,1.88,4.29,4.01,7,4.8,1.4,0,2.97,0,4.38,0,4.36,0,8.77,0,13.13,0,1.19.07,2.44-.68,3.5-1.13,1.75-.83,3.57-1.87,5.25-2.83,6.24-3.74,12.82-6.61,20.14-4.22,6.93,2.13,13,6.62,20.14,8.16,5.53.05,11.11,0,16.64.02,5.01-.13,5.66.95,9.63-3.06,4.51-4.73,7.71-10.63,11.38-16"/><path class="b" d="M8,183.63c3.48,0,7.03,0,10.51,0,2.03-.1,4.3.4,6.13-.69,9.8-4.64,16.25-19.68,26.27-21.96,9.52-1.66,17.7,13.85,24.52,19.29,1.54,1.32,3.33,2.66,5.25,3.35,1.1,0,2.4,0,3.5,0,4.65,0,9.36,0,14.01,0,1.18.13,2.45-.5,3.5-.97,2.07-.96,4.15-2.18,6.13-3.32,5.48-3.3,11.88-6.16,18.39-4.56,8.23,1.93,15.23,7.45,23.64,8.83,3.77.06,7.61,0,11.38.02,2.88-.12,5.91.25,8.76-.18,6.37-4,9.83-11.4,14.01-17.42"/><path class="b" d="M8,181.43c3.19,0,6.45,0,9.63,0,1.11,0,2.4,0,3.5,0,.83,0,1.89.09,2.63-.34,10.55-4.51,16.7-20.43,27.14-23.35,12.58-2.89,22.05,24.73,33.27,23.69,5.24,0,10.52,0,15.76,0,1.19-.04,2.44-.76,3.5-1.23,2.06-1.01,4.15-2.26,6.13-3.41,5.23-3.15,11.28-5.89,17.51-4.7,5.26.9,10.02,3.59,14.89,5.67,3.89,1.7,8.03,3.03,12.26,3.54,2.58.27,5.29.06,7.88.12,3.19.04,6.47,0,9.63-.5,5.43-3.75,8.64-9.91,12.26-15.26"/><path class="b" d="M8,179.22c3.19,0,6.45,0,9.63,0,1.11,0,2.4,0,3.5,0,.82,0,1.87.08,2.63-.29,10.73-4.64,16.61-20.61,27.14-24.15,12.39-3.22,21.05,21.67,32.4,24.44,5.82,0,11.69,0,17.51,0,1.19.13,2.44-.64,3.5-1.08,2.07-.99,4.16-2.25,6.13-3.42,4.77-2.87,10.03-5.7,15.76-5.48,4.93.14,9.57,2.22,14.01,4.17,4.49,2.01,9.13,3.92,14.01,4.7,6.67,1.1,13.51.25,20.14-.77,1.48-.37,2.49-2.07,3.5-3.11,2.21-2.68,4.23-5.77,6.13-8.67"/><path class="b" d="M8,177.02c3.19,0,6.45,0,9.63,0,2-.08,4.16.19,6.13-.16,10.82-4.71,15.93-19.31,26.27-24.4,6.78-3,12.6,3.39,16.64,8.07,3.7,4.31,7.11,9.04,11.38,12.82,1.79,1.5,3.84,3.07,6.13,3.67,1.4,0,2.97,0,4.38,0,4.36,0,8.77,0,13.13,0,2.53.03,4.82-1.72,7.01-2.83,3.97-2.31,7.88-4.99,12.26-6.48,7.46-2.79,15.02.2,21.89,3.22,4.75,2.01,9.71,3.84,14.89,4.29,6.75.54,13.49-.81,20.14-1.83,2.49-2.08,4.25-5.18,6.13-7.79"/><path class="b" d="M8,174.82c5.24,0,10.52,0,15.76,0,11.04-4.37,16.58-20.37,27.14-25.04,7.44-2.76,13.2,4.74,17.51,9.7,3.82,4.53,7.43,9.49,12.26,13.03,1.3.92,2.86,1.8,4.38,2.32,3.19,0,6.45,0,9.63,0,3.18-.09,6.47.19,9.63-.13,1.46-.55,3.02-1.33,4.38-2.1,6.55-3.75,13.08-8.93,21.01-8.69,6.81.16,12.94,3.61,19.26,5.75,7.64,2.9,14.85,2.56,22.77,1.21,2.89-.45,5.85-.96,8.76-1.28,1.57-.65,2.44-2.7,3.5-3.95"/><path class="b" d="M8,172.62c5.53-.09,11.12.18,16.64-.11,10.76-4.8,15.9-19.66,26.27-24.79,6.71-3.03,12.58,3.18,16.64,7.81,3.46,3.96,6.69,8.28,10.51,11.91,2.43,2.14,5.44,4.81,8.76,5.18,5.24,0,10.52,0,15.76,0,1.12,0,2.48.12,3.5-.43,2.1-.88,4.19-2.11,6.13-3.31,4.18-2.59,8.37-5.46,13.13-6.85,12.49-3.78,23.52,6.72,35.9,6.35,4.99-.01,9.96-1.02,14.89-1.73,1.39-.2,2.97-.4,4.38-.52,1.11-.16,2.52.07,3.5-.56"/><path class="b" d="M8,170.42c3.77,0,7.61,0,11.38,0,2-.1,4.18.25,6.13-.21,10.54-4.98,15.84-20,26.27-24.65,6.82-2.63,12.52,3.7,16.64,8.29,3.43,3.89,6.67,8.1,10.51,11.6,2.5,2.13,5.42,4.51,8.76,4.97,5.24,0,10.52,0,15.76,0,1.54.08,3.01,0,4.38-.79,2.09-.97,4.18-2.25,6.13-3.48,4.4-2.79,8.88-5.82,14.01-7.04,10.96-2.71,20.8,5.12,31.52,5.75,8.24.46,16.28-2.41,24.52-2.2"/><path class="b" d="M8,168.22c5.82,0,11.69,0,17.51,0,10.37-4.07,16.13-19.53,26.27-24.24,6.6-2.93,12.51,2.92,16.64,7.43,3.73,4.06,7.19,8.53,11.38,12.14,2.52,2.03,5.48,4.26,8.76,4.67,5.53,0,11.11,0,16.64,0,1.53.18,3.05-.54,4.38-1.22,2.08-1.05,4.17-2.37,6.13-3.63,4.84-3.13,9.93-6.43,15.76-7.21,7.26-1.03,14.17,2.16,21.01,4.05,3.67,1.05,7.56,1.61,11.38,1.3,6.72-.47,13.36-2.4,20.14-2.06"/><path class="b" d="M8,166.02c6.12,0,12.27,0,18.39,0,10.49-4.64,15.8-19.36,26.27-23.75,6.7-2.46,12.42,3.45,16.64,7.89,3.68,3.93,7.17,8.2,11.38,11.58,2.32,1.87,5.05,3.37,7.88,4.27,1.4,0,2.97,0,4.38,0,4.36-.08,8.79.17,13.13-.12,1.11-.16,2.5-.15,3.5-.71,2.41-1.12,4.77-2.61,7-4.04,5.1-3.29,10.47-6.76,16.64-7.44,8.77-1.04,16.84,3.65,25.39,4.64,8.53.89,16.86-2.57,25.39-1.98"/><path class="b" d="M8,163.82c6.41-.06,12.86.12,19.26-.07,10.17-4.76,15.16-18.13,25.39-22.66,6.51-2.63,12.38,2.79,16.64,7.12,3.71,3.77,7.21,7.89,11.38,11.17,2.58,1.95,5.57,3.77,8.76,4.44,5.55.07,11.14,0,16.64-.83,2.61-.5,5.61-.41,7.88-1.92,5.39-3.17,10.53-7.12,16.64-8.84,7.61-2.32,15.38.43,22.77,2.31,3.41.85,6.99,1.4,10.51,1.08,6.72-.51,13.35-2.64,20.14-2.18"/><path class="b" d="M8,161.62c4.36,0,8.77,0,13.13,0,2.3-.08,4.73.19,7-.15,5.78-2.78,9.72-8.22,14.01-12.8,3.05-3.29,6.29-6.83,10.51-8.6,5.89-2.54,11.65,1.67,15.76,5.61,3.52,3.3,6.81,6.98,10.51,10.1,2.1,1.77,4.48,3.42,7,4.52,1.07.42,2.32,1.16,3.5,1.03,5.26-.03,10.56-.46,15.76-1.21,2.31-.33,4.71-.75,7.01-1.18,1.1-.21,2.41-.46,3.5-.69.81-.39,1.86-1.05,2.63-1.52,6.29-4.01,13.31-7.86,21.01-7.31,7.44.33,14.44,3.67,21.89,3.87,7.66.03,15.08-2.98,22.77-2.53"/><path class="b" d="M8,159.42c6.7,0,13.44,0,20.14,0,8.85-3.21,14.86-15.57,23.64-19.85,7.73-3.99,14.89,2.91,20.14,7.93,4.68,4.39,9.48,9.29,15.76,11.23,5.26-.11,10.56-.62,15.76-1.39,5.25-.83,10.56-1.69,15.76-2.78,3.62-2.13,7.36-4.3,11.38-5.58,4.49-1.49,9.38-1.58,14.01-.76,6.11.96,12.13,3.3,18.39,2.95,7.06-.42,13.89-3.12,21.02-2.89"/><path class="b" d="M8,157.22c6.99,0,14.02,0,21.01,0,8.81-3.89,13.55-13.4,21.89-18.03,6.39-3.69,12.47-.44,17.51,3.86,5.81,4.68,11.04,10.94,18.39,13.17,4.67-.27,9.38-.82,14.01-1.5,6.99-1.09,14.01-2.24,21.01-3.23,3.06-1.65,6.28-3.21,9.63-4.16,4.53-1.33,9.39-1.3,14.01-.51,5.81.88,11.57,2.96,17.51,2.62,7.1-.46,13.87-3.36,21.02-3.41"/><path class="b" d="M8,155.02c4.95,0,9.94,0,14.89,0,1.41,0,2.97,0,4.38,0,.79,0,1.84.03,2.63-.09.47-.19,1.31-.63,1.75-.87,6.88-4.08,11.52-11.1,18.39-15.19,5.36-3.29,10.82-2.22,15.76,1.24,6.74,4.43,12.22,11.38,20.14,13.77,3.79-.39,7.62-.93,11.38-1.51,8.42-1.33,16.87-2.83,25.39-3.27,1.52.02,2.96-1.08,4.38-1.53,1.95-.78,4.07-1.46,6.13-1.88,4.6-.98,9.41-.66,14.01.18,4.93.8,9.86,2.31,14.89,2.2,7.46-.29,14.45-3.62,21.89-4.04"/><path class="b" d="M8,152.82c4.95,0,9.94,0,14.89,0,1.71,0,3.55,0,5.25,0,1.17.07,2.49,0,3.5-.66,7.95-4.19,13.09-12.87,21.89-15.56,11.58-3.06,20.81,12.26,31.52,15.13,9.34-1.4,18.6-3.56,28.02-4.35,4.06-.39,8.19-.4,12.26-.43,3.07-1.23,6.34-2.21,9.63-2.61,4.66-.61,9.42-.03,14.01.81,4.05.68,8.14,1.71,12.26,1.78,7.83-.06,15.06-3.81,22.77-4.69"/><path class="b" d="M8,150.56c5.23.15,10.52.01,15.76.06,2.3-.03,4.71.06,7-.05,2.18-.88,4.26-2.28,6.13-3.7,5.06-3.8,9.6-8.81,15.76-10.79,11.21-3.44,20.44,9.94,30.65,13.34,1.06.58,2.4,0,3.5-.16,2.01-.41,4.13-.87,6.13-1.3,5.48-1.18,11.04-2.25,16.64-2.72,5.52-.49,11.12-.38,16.64.06,2.82-.92,5.8-1.63,8.76-1.92,6.77-.71,13.49.88,20.14,1.93,10.69,2.33,18.82-2.73,28.9-4.68"/><path class="b" d="M8,148.24c1.99.32,4.12.13,6.13.18,3.19,0,6.45,0,9.63,0,7.1-.12,7.03.96,13.13-3.33,5.05-3.53,9.67-8.2,15.76-9.86,11.89-2.97,20.62,10.58,31.52,12.55,6.4-1.44,12.75-3.33,19.26-4.22,6.37-.93,12.87-.85,19.26-.19,1.4.1,2.97.44,4.38.37,1.68-.43,3.53-.8,5.25-1.03,3.46-.47,7.04-.43,10.51-.07,6.43.57,12.79,2.44,19.26,2.32,7.63-.35,14.58-3.98,21.89-5.78"/><path class="b" d="M8,145.98c1.99.38,4.12.19,6.13.23,3.19,0,6.45,0,9.63,0,2.3,0,4.7,0,7,0,2.22-.39,4.24-1.87,6.13-3.02,5.03-3.27,9.75-7.61,15.76-8.93,10.03-1.95,17.63,6.74,26.27,10.21,1.37.58,2.94,1.13,4.38,1.5,1.12-.1,2.41-.49,3.5-.77,13.23-3.87,22.05-5.46,35.9-3.35,1.4.16,2.96.51,4.38.55,1.39-.28,2.97-.53,4.38-.68,3.47-.38,7.04-.32,10.51.02,5.26.52,10.5,1.57,15.76,2.08,1.1.19,2.41-.17,3.5-.22,1.09-.07,2.41.06,3.5.12,6.7-.86,12.86-3.92,19.26-5.89"/><path class="b" d="M8,143.81c1.98.36,4.12.15,6.13.2,2.89,0,5.86,0,8.76,0,2.01,0,4.12,0,6.13,0,1.56.1,3.01-.09,4.38-.87,6.73-3.23,12.43-9.22,20.14-10.05,7.86-.72,14.34,4.72,21.01,7.99,2.74,1.26,5.7,2.8,8.76,2.94,2.36-.08,4.72-1.11,7.01-1.67,10.7-3.37,19.58-4.05,30.65-2.13,2.01.21,4.11.92,6.13.82,3.74-.55,7.61-.69,11.38-.45,6.44.4,12.83,1.69,19.26,2.2,1.98-.39,4.1-.78,6.13-.66.77.03,1.86.15,2.63.27,1.73-.25,3.58-.73,5.25-1.23,4.16-1.25,8.17-3.09,12.26-4.55"/><path class="b" d="M8,141.72c4.93.24,9.94.02,14.89.09,2.01,0,4.12,0,6.13,0,1.52.12,3.04-.14,4.38-.88,6.64-3.08,12.52-8.64,20.14-9.02,10.05-.3,17.6,8.09,27.14,9.9,1.71-.02,3.55.06,5.25-.05,4.37-1.1,8.7-2.59,13.13-3.41,8.72-1.8,17.64-.3,26.27,1.32,4.06-.29,8.19-.56,12.26-.22,6.43.45,12.83,1.57,19.26,2,2.3-.24,4.67-.91,7.01-.86,1.4-.02,2.98.16,4.38.29,5.49-1.01,10.63-3.41,15.76-5.51"/><path class="b" d="M8,139.61c4.95,0,9.94,0,14.89,0,1.71,0,3.55,0,5.25,0,1.11-.04,2.44.16,3.5-.25,7.32-2.79,13.68-8.86,21.89-8.79,6.7.07,12.47,4.02,18.39,6.67,2.22.96,4.59,2.02,7,2.36,2.89-.04,5.87.09,8.76-.07,4.34-1.09,8.69-2.46,13.13-3.06,7.61-1.14,15.28.24,22.77,1.6,1.99.22,4.12-.23,6.13-.16,3.19-.05,6.46.15,9.63.44,4.95.39,9.91,1.32,14.89,1.24,1.7-.02,3.55.06,5.25-.05,1.98-.33,4.12-.53,6.13-.49,1.4-.04,2.98.33,4.38.13,4.88-.95,9.49-3.03,14.01-5.04"/><path class="b" d="M8,137.41c7.57-.1,15.21.21,22.77-.12,7.33-2.59,13.77-8.4,21.89-8.27,8.59.17,15.53,6.24,23.64,8.29,2.58.22,5.29.04,7.88.09,2-.1,4.17.23,6.13-.22,11.78-3.17,18.73-3.03,30.65-.87,1.39.33,2.97.13,4.38.08,2-.07,4.13-.07,6.13,0,4.67.1,9.35.86,14.01,1,8.16,0,16.35,0,24.52,0,1.75.1,3.59-.49,5.25-.97,2.99-.92,5.92-2.25,8.76-3.56"/><path class="b" d="M8,135.21c4.65,0,9.36,0,14.01,0,1.71,0,3.55,0,5.25,0,1.12,0,2.46.08,3.5-.41,6.68-2.53,12.74-7.4,20.14-7.58,8.6-.2,15.61,5.76,23.64,7.88,3.46.27,7.03.03,10.51.11,2.3-.03,4.71.07,7.01-.05,4.31-.89,8.72-1.69,13.13-1.73,3.2-.05,6.46.24,9.63.64,2,.18,4.11.77,6.13.64,5.53-.31,11.12,0,16.64.47,3.77.07,7.61,0,11.38.03,6.41,0,12.86,0,19.26,0,2-.03,4.13.07,6.13-.06,3.33-.78,6.56-2.16,9.63-3.62"/><path class="b" d="M8,133.01c4.36,0,8.77,0,13.13,0,2.59-.12,5.33.26,7.88-.2,6.77-2.35,12.78-7.23,20.14-7.68,8.94-.58,16.17,5.88,24.52,7.87,2.6,0,5.28,0,7.88,0,4.36,0,8.77,0,13.13,0,3.47-.37,7-.92,10.51-.89,2.6-.02,5.29.15,7.88.39,1.71.15,3.54.48,5.25.28,4.95-.3,9.94,0,14.89.22,4.65,0,9.36,0,14.01,0,6.7,0,13.44,0,20.14,0,2.89,0,5.87,0,8.76,0,2.71-.63,5.37-1.76,7.88-2.95"/><path class="b" d="M8,130.81c6.12,0,12.27,0,18.39,0,3.1-.53,5.94-2.33,8.76-3.67,4.35-2.24,9.01-4.51,14.01-4.48,8.64-.04,15.48,6.4,23.64,8.14,2.89,0,5.86,0,8.76,0,8.16-.01,16.36.06,24.52-.1,4.66.18,9.36.08,14.01-.08,8.45.16,16.94.24,25.39.18,7.58,0,15.19,0,22.77,0,3.18-.02,6.45.04,9.63-.02,2.07-.56,4.19-1.41,6.13-2.31"/><path class="b" d="M8,128.61c5.53,0,11.11,0,16.64,0,8.12-2.12,14.85-9.02,23.64-8.77,4.34.07,8.45,1.89,12.26,3.83,2.28.9,4.75,1.63,7,2.6,1.98.79,4.08,1.62,6.13,2.23,2.87.27,5.87.04,8.76.11,21.31,0,42.62-.06,63.92,0,7.58,0,15.19,0,22.77,0,3.18,0,6.45,0,9.63,0,1.78-.35,3.6-1.15,5.25-1.87"/><path class="b" d="M8,126.41c4.95,0,9.94,0,14.89,0,8.89-2.59,16.41-10.77,26.27-9.29,2.09.27,4.17,1.04,6.13,1.78,3.32.15,6.6,1.18,9.63,2.48,4.07,1.63,7.95,4.12,12.26,5.03,2.6,0,5.28,0,7.88,0,11.08-.03,22.19.1,33.27-.15,9.91.25,19.86.11,29.77.15,7.29,0,14.6,0,21.89,0,3.18,0,6.45,0,9.63,0,1.46-.25,3.01-.92,4.38-1.48"/><path class="b" d="M8,124.21c2.89,0,5.86,0,8.76,0,2.01-.1,4.23.33,6.13-.49,7.66-2.77,14.26-9.12,22.77-9.14,1.11,0,2.42.15,3.5.38.79.29,1.83.19,2.63-.01,10.47-2.06,18.63,6.42,28.02,9.26,2.6,0,5.28,0,7.88,0,9.63,0,19.28.07,28.9-.24,11.08.37,22.19.21,33.27.24,6.99,0,14.02,0,21.01,0,2.3,0,4.71,0,7,0,.76,0,1.86,0,2.63,0,1.14-.15,2.43-.68,3.5-1.1"/><path class="b" d="M8,122.01c3.77,0,7.61,0,11.38,0,2.13-.03,4.2-1.29,6.13-2.1,3.22-1.56,6.37-3.47,9.63-4.95,2.2-1,4.6-1.83,7-2.13,1.4-.23,2.97-.03,4.38-.18,2.72-1.29,5.72-2.29,8.76-2.41,10.4-.34,17.78,8.57,27.14,11.63,2.28.31,4.71.06,7.01.14,5.24,0,10.52,0,15.76,0,3.18-.21,6.44-.41,9.63-.4,3.19-.02,6.45.23,9.63.4,7.87,0,15.77,0,23.64,0,7.58,0,15.19,0,22.77,0,2.59,0,5.29,0,7.88,0,1.75.06,3.64.05,5.25-.72"/><path class="b" d="M8,119.81c3.48,0,7.03,0,10.51,0,2.12,0,4.19-1.22,6.13-1.99,3.5-1.61,6.91-3.6,10.51-5,1.37-.53,2.93-1.02,4.38-1.3,1.1-.26,2.44-.2,3.5-.59,4.44-2.83,9.45-5.59,14.89-5.27,10.56.85,17.55,10.35,27.14,13.76,2.17.77,4.73.25,7.01.39,2.89,0,5.86,0,8.76,0,4.35-.33,8.76-.7,13.13-.62,3.78-.02,7.61.47,11.38.62,3.77,0,7.61,0,11.38,0,2.3-.13,4.7-.5,7-.64,2.89-.22,5.87-.25,8.76.02,2.6.28,5.25.77,7.88.62,4.95,0,9.94,0,14.89,0,1.7,0,3.55,0,5.25,0,1.1,0,2.46.09,3.5-.36"/><path class="b" d="M8,117.61c2.6,0,5.28,0,7.88,0,1.11-.03,2.41.09,3.5-.13.8-.23,1.85-.59,2.63-.89,3.85-1.47,7.53-3.5,11.38-4.95,1.38-.52,2.94-1,4.38-1.3.87-.12,1.98-.33,2.63-.98,5.66-4.04,11.89-9.03,19.26-8.34,11.07,1.47,17.93,12,28.02,15.83,2.47,1.1,5.25.7,7.88.76,5.23-.28,10.5-1.03,15.76-.93,4.97-.09,9.94.73,14.89.93,6.49.31,12.82-1.63,19.26-2.04,2.89-.22,5.89-.14,8.76.33,2.63.39,5.25,1.28,7.88,1.65,7.28.14,14.61.05,21.89.04"/><path class="b" d="M8,115.4c2.3,0,4.7,0,7.01,0,1.41-.05,3,.14,4.38-.16,3.89-1.11,7.6-2.93,11.38-4.35,1.94-.86,4.22-1.12,6.13-2,5.68-4.07,10.84-9.28,17.51-11.72,8.22-3.11,15.83,2.39,21.89,7.42,5.49,4.3,11.09,9.88,18.39,10.46,4.64-.49,9.34-.94,14.01-.95,3.49-.02,7.04.21,10.51.58,2,.12,4.12.68,6.13.55,5.59-.66,11.1-2.02,16.64-2.97,4.02-.68,8.22-.97,12.26-.23,3.53.64,6.92,2.13,10.51,2.52,6.37.88,12.85.8,19.26.8"/><path class="b" d="M8,113.2c2.3,0,4.7,0,7.01,0,1.71-.07,3.61.22,5.25-.33,2.94-.85,5.86-2.03,8.76-3.02,1.67-.7,3.72-.84,5.25-1.81,7.16-4.8,12.95-11.82,21.01-15.2,7.87-3.32,15.17,1.36,21.01,6.37,5.04,4.07,9.59,9.19,15.76,11.56,1.65.53,3.49,1.43,5.25,1.19,4.64-.43,9.36-.63,14.01-.37,3.5.1,7.03.79,10.51.97,6.82-.75,13.45-2.67,20.14-4.11,4.29-.89,8.82-1.33,13.13-.37,3.23.74,6.34,2.21,9.63,2.72,6.34,1.16,12.84,1.24,19.26,1.4"/><path class="b" d="M8,111c2.6,0,5.28,0,7.88,0,1.41-.05,3,.14,4.38-.16,3.22-.82,6.42-1.97,9.63-2.81,2.91-1.08,5.43-3.29,7.88-5.15,5.77-4.61,10.87-10.3,17.51-13.7,8.23-4.29,15.59-.13,21.89,5.4,4.39,3.62,8.22,8.09,13.13,11.03,1.89,1.11,4.03,2.03,6.13,2.67,1.08.29,2.37.79,3.5.67,4.36-.23,8.79-.13,13.13.31,1.41.14,2.98.33,4.38.52,2.02-.04,4.14-.39,6.13-.69,6.53-1,12.85-3.13,19.26-4.66,4.27-1,8.83-1.49,13.13-.4,3.2.91,6.33,2.3,9.63,2.86,6.04,1.21,12.25,1.51,18.39,1.9"/><path class="b" d="M8,108.8c4.07,0,8.19,0,12.26,0,2.04-.29,4.12-.97,6.13-1.44,12.26-4.27,19.36-16.45,30.65-22.29,7.85-4.03,14.99-.28,21.01,5.04,5.85,5.02,10.88,11.46,18.39,14.1,3.34,1.3,6.92,2.07,10.51,2.06,2.31.07,4.7.55,7.01.49,7.14-.16,14.21-1.64,21.01-3.74,6.25-1.82,12.65-4.36,19.26-3.59,3.91.5,7.51,2.44,11.38,3.13,6.04,1.33,12.25,1.9,18.39,2.59"/><path class="b" d="M8,106.6c2.89,0,5.86,0,8.76,0,2.64.11,5.34-.15,7.88-.91,13.73-3.69,21.35-17.15,33.27-23.87,7.76-4.33,14.83-1.29,21.01,4.13,3.95,3.27,7.28,7.38,11.38,10.47,7.18,5.53,16.49,7.41,25.39,7.03,6.87-.23,13.64-1.81,20.14-3.97,6.23-1.95,12.6-4.73,19.26-4.03,3.57.48,6.96,2.06,10.51,2.72,6.06,1.36,12.26,2.21,18.39,3.24"/><path class="b" d="M8,104.4c5.83-.16,11.85.63,17.51-1.12,13.72-3.86,21.5-17.11,33.27-24.18,7.64-4.56,14.64-2.34,21.01,3.14,3.98,3.25,7.26,7.4,11.38,10.48,7.39,5.8,16.99,8.09,26.27,7.59,6.59-.28,13.07-1.9,19.26-4.08,5.97-1.98,11.97-4.8,18.39-4.6,3.57.22,7,1.61,10.51,2.22,6.11,1.3,12.3,2.43,18.39,3.81"/><path class="b" d="M8,102.2c5.83-.15,11.82.57,17.51-.97,14.16-3.48,22.35-16.82,34.15-24.27,7.49-4.71,14.44-3.36,21.01,2.13,3.7,2.96,6.77,6.74,10.51,9.66,7.53,6.26,17.41,9.24,27.14,8.77,6.6-.21,13.09-1.87,19.26-4.14,5.45-1.91,10.82-4.52,16.64-5.08,3.83-.33,7.63.91,11.38,1.49,6.17,1.15,12.34,2.53,18.39,4.23"/><path class="b" d="M8,100c5.82-.17,11.78.53,17.51-.75,14.53-2.93,23.23-16.12,35.02-23.84,7.31-4.77,14.27-4.26,21.01,1.18,3.95,3.14,7.29,7.11,11.38,10.08,7.65,6.01,17.45,8.95,27.14,8.41,5.99-.25,11.91-1.7,17.51-3.78,5.23-1.87,10.3-4.44,15.76-5.62,4.04-.92,8.22-.08,12.26.44,6.24.92,12.4,2.5,18.39,4.47"/><path class="b" d="M8,97.78c3.19,0,6.45.04,9.63.02,3.21.08,6.5-.04,9.63-.81,14.32-2.95,23.22-15.65,35.02-23.1,6.88-4.32,13.7-4.14,20.14.87,3.92,3.05,7.33,6.82,11.38,9.72,7.93,6.13,18.02,9.22,28.02,8.56,6.32-.31,12.54-2.01,18.39-4.37,5.2-2.01,10.24-4.72,15.76-5.77,9.51-1.11,19.13,1.3,28.02,4.53"/><path class="b" d="M8,95.57c3.77.04,7.61.02,11.38.02,2.61-.01,5.31.14,7.88-.4,14.8-2.22,23.99-14.13,35.9-21.74,7.24-4.57,14.24-4.59,21.01.83,12.37,10.88,22,18.11,39.4,17.1,6.02-.36,11.95-1.95,17.51-4.24,5.24-2.07,10.26-4.92,15.76-6.25,9.16-1.85,18.61.32,27.14,3.74"/><path class="b" d="M8,93.4c4.36,0,8.77,0,13.13,0,2.6-.07,5.31.21,7.88-.23,14.92-2.09,23.76-12.9,35.9-20.16,6.88-4.05,13.7-4.17,20.14.8,12.99,10.69,22.57,17.44,40.28,16.24,25.25-1.99,29.95-19.69,58.67-7.8"/><path class="b" d="M8,91.2c5.24,0,10.52,0,15.76,0,3.19-.09,6.5.29,9.63-.42,6.3-1.17,12.18-4.02,17.51-7.51,5.27-3.37,10.2-7.39,15.76-10.29,7.1-3.8,13.74-3.49,20.14,1.51,13.37,10.26,22.78,15.66,40.28,14.39,24.41-1.76,30.18-19.82,56.92-8.62"/><path class="b" d="M8,89c7.29,0,14.6,0,21.89,0,6.75.46,13.29-1.6,19.26-4.62,6.63-3.29,12.54-7.96,19.26-11.08,7.52-3.52,13.52-2.61,20.14,2.2,4.78,3.2,9.56,6.59,14.89,8.82,7.96,3.4,16.84,4.11,25.39,3.44,7.66-.54,15.06-3.02,21.89-6.47,12.22-6.46,20.11-7.85,33.27-2.63"/><path class="b" d="M8,86.8c7.29,0,14.6,0,21.89,0,3.19,0,6.45,0,9.63,0,2.34-.38,4.75-.97,7-1.7,8.38-2.62,15.55-7.98,23.64-11.26,7.87-3.13,13.27-1.63,20.14,2.8,5,3.05,10.12,6.13,15.76,7.84,8.18,2.49,16.93,2.63,25.39,1.99,7.34-.55,14.46-2.84,21.01-6.13,11.53-6.06,18.97-7.56,31.52-2.91"/><path class="b" d="M8,84.59c8.16,0,16.35,0,24.52,0,2.89,0,5.86,0,8.76,0,2.35.12,4.75-.15,7-.8,8.3-1.97,15.6-6.67,23.64-9.35,7.99-2.64,13.15-.62,20.14,3.26,5.74,3.13,11.86,5.83,18.39,6.74,2.87.34,5.87.07,8.76.16,4.95,0,9.94,0,14.89,0,9.41.43,17.94-4.27,26.27-8,7.68-3.38,15.85-2.86,23.64-.15"/><path class="b" d="M8,82.39c9.33,0,18.69,0,28.02,0,3.19,0,6.45,0,9.63,0,2.01-.04,4.16.18,6.13-.36,4.8-1,9.44-2.76,14.01-4.48,4.49-1.67,9.16-3.36,14.01-3.34,3.99-.04,7.8,1.52,11.38,3.11,3.41,1.51,6.91,3.06,10.51,4.08,1.39.39,2.95.78,4.38.99,2,0,4.13,0,6.13,0,4.95,0,9.94,0,14.89,0,5.53,0,11.11,0,16.64,0,5.53-.85,10.7-3.22,15.76-5.48,8.03-3.69,16.13-3.8,24.52-1.23"/><path class="b" d="M8,80.19c16.05-.06,32.12.12,48.16-.06,8.52-1.37,16.63-5.55,25.39-5.2,6.7.42,12.73,3.95,19.26,5.19,11.08.2,22.19,0,33.27.07,4.95,0,9.94,0,14.89,0,4.23-.83,8.25-2.61,12.26-4.14,7.31-2.91,15.2-3.02,22.77-1.04"/><path class="b" d="M8,77.99c16.05,0,32.11,0,48.16,0,4.11-.14,8.17-1.45,12.26-1.91,1.99-.28,4.12-.46,6.13-.45,2.58-.33,5.27-.62,7.88-.46,3.25.16,6.49,1.02,9.63,1.82,1.98.46,4.07,1.16,6.13,1.01,14.59,0,29.19,0,43.78,0,2.6,0,5.29,0,7.88,0,1.09,0,2.41,0,3.5,0,1.12-.16,2.42-.56,3.5-.88,9.76-3.46,16.75-4.94,27.14-2.79"/><path class="b" d="M8,75.79c16.92,0,33.86,0,50.79,0,5.23-.58,10.47-1.68,15.76-1.46,1.72.04,3.55.28,5.25.48,1.41-.04,2.98-.02,4.38.08,2.62.11,5.27.86,7.88.9,11.38,0,22.77,0,34.15,0,10.21,0,20.44,0,30.65,0,1.75.05,3.56-.72,5.25-1.07,2.28-.58,4.68-1.12,7.01-1.45,4.92-.74,9.98-.48,14.89.26"/><path class="b" d="M8,73.59c13.42,0,26.86,0,40.28,0,4.65,0,9.36,0,14.01,0,3.18-.34,6.44-.65,9.63-.67,3.21-.11,6.45.47,9.63.67,6.12,0,12.27,0,18.39,0,15.76,0,31.53,0,47.28,0,4.95,0,9.94,0,14.89,0,3.47-.55,6.99-1.24,10.51-1.42,3.77-.24,7.63-.04,11.38.36"/><path class="b" d="M8,71.39c37.65-.02,75.31.05,112.96-.03,4.07-.36,8.19-.02,12.26.03,7.29,0,14.6,0,21.89,0,6.12-.03,12.28.16,18.39-.35,1.7-.07,3.55-.08,5.25-.04,1.72-.14,3.54-.57,5.25-.79"/><path class="b" d="M8,69.19c27.43,0,54.88,0,82.31,0,7.29,0,14.6,0,21.89,0,5.21-.77,10.47-1.8,15.76-1.48,3.81.14,7.62.93,11.38,1.48,6.41,0,12.86,0,19.26,0,5.82-.04,11.69.08,17.51-.05,2.6-.51,5.28-1.14,7.88-1.62"/><path class="b" d="M8,66.99c22.47,0,44.95,0,67.42,0,10.79-.01,21.61.02,32.4-.01,4.37-.87,8.71-2.17,13.13-2.76,5.87-.89,11.83.07,17.51,1.59,1.7.4,3.52.96,5.25,1.19,1.4,0,2.98,0,4.38,0,4.07,0,8.19,0,12.26,0,4.94-.05,9.95.1,14.89-.06,2.91-.62,5.86-1.45,8.76-2.1"/><path class="b" d="M8,64.79c21.89,0,43.78,0,65.67,0,10.21,0,20.44,0,30.65,0,5.02-1.03,9.86-2.95,14.89-3.96,6.11-1.38,12.49-.56,18.39,1.37,2.88.88,5.82,1.91,8.76,2.59,4.65,0,9.36,0,14.01,0,4.65-.04,9.36.07,14.01-.05,3.22-.72,6.44-1.75,9.63-2.57"/><path class="b" d="M8,62.59c21.6,0,43.2,0,64.8,0,6.41,0,12.85,0,19.26,0,3.47-.09,7.05.2,10.51-.14,5.35-1.2,10.44-3.47,15.76-4.78,6.37-1.74,13.13-.92,19.26,1.36,3.47,1.19,6.95,2.61,10.51,3.51,4.06.09,8.19,0,12.26.04,4.65-.06,9.37.12,14.01-.07,3.22-.75,6.44-1.82,9.63-2.71"/><path class="b" d="M8,60.39c21.3,0,42.62,0,63.92,0,9.62-.09,19.29.19,28.9-.11,5.69-1.23,11.04-3.74,16.64-5.29,6.32-1.91,13.13-1.39,19.26.92,4.36,1.44,8.6,3.63,13.13,4.47,3.77,0,7.61,0,11.38,0,4.36,0,8.77,0,13.13,0,3.25-.61,6.45-1.76,9.63-2.64"/><path class="b" d="M8,58.19c21.01,0,42.03,0,63.04,0,9.91-.13,19.87.33,29.77-.31,5.67-1.3,11.03-3.81,16.64-5.33,6.32-1.88,13.12-1.34,19.26.96,2.92,1.01,5.85,2.25,8.76,3.28,1.68.52,3.48,1.32,5.25,1.4,3.48,0,7.03,0,10.51,0,4.94-.09,9.96.18,14.89-.11,2.62-.6,5.29-1.41,7.88-2.13"/><path class="b" d="M8,55.99c4.65,0,9.36,0,14.01,0,2.6-.06,5.28-.34,7.88-.28,14,.52,28.02.2,42.03.28,6.99,0,14.02,0,21.01,0,2.88-.3,5.87-.35,8.76-.57,5.33-1.3,10.44-3.52,15.76-4.88,6.03-1.66,12.48-1.33,18.39.66,4.97,1.46,9.74,4,14.89,4.79,3.48,0,7.03,0,10.51,0,5.24,0,10.52,0,15.76,0,2.33-.39,4.71-1.1,7.01-1.67"/><path class="b" d="M8,53.79c4.36,0,8.77,0,13.13,0,3.18-.17,6.44-.51,9.63-.44,3.49-.03,7.03.37,10.51.44,10.21,0,20.44,0,30.65,0,6.7-.04,13.44.08,20.14-.04,2-.23,4.12-.41,6.13-.47,1.4-.1,3,.13,4.38-.15,4.42-1.06,8.74-2.64,13.13-3.8,6.27-1.78,12.99-1.88,19.26-.04,5,1.32,9.81,3.46,14.89,4.5,3.77,0,7.61,0,11.38,0,4.07,0,8.19,0,12.26,0,2-.03,4.13.07,6.13-.06,1.4-.28,2.98-.63,4.38-.95"/><path class="b" d="M8,51.58c4.36,0,8.77,0,13.13,0,3.48-.2,7.02-.57,10.51-.51,3.78-.02,7.61.33,11.38.51,9.62,0,19.27,0,28.9,0,6.12,0,12.27,0,18.39,0,3.47-.33,7.02-.63,10.51-.48,1.75.24,3.57-.29,5.25-.71,2.6-.65,5.28-1.41,7.88-2.06,5.97-1.57,12.29-2.2,18.39-.98,3.84.7,7.63,1.92,11.38,2.99,2.26.6,4.63,1.42,7.01,1.25,6.99,0,14.02,0,21.01,0,2.3,0,4.71,0,7,0,1.71,0,3.58.08,5.25-.34"/><path class="b" d="M8,49.38c4.65,0,9.36,0,14.01,0,3.48-.18,7.02-.53,10.51-.48,4.07-.03,8.19.28,12.26.48,7.58,0,15.19,0,22.77,0,9.63-.06,19.29.24,28.9-.39,2.3-.05,4.71.09,7,.2,2.01-.35,4.13-.8,6.13-1.24,7.15-1.67,14.55-3.01,21.89-1.87,5.32.7,10.49,2.39,15.76,3.31,12.25,0,24.52,0,36.78,0"/><path class="b" d="M8,47.18c5.24,0,10.52,0,15.76,0,3.48-.12,7.02-.44,10.51-.39,4.07-.03,8.19.25,12.26.39,9.92,0,19.86,0,29.77,0,6.41,0,12.86.07,19.26-.22,3.19-.07,6.44.34,9.63.19,5.82-.85,11.63-2.14,17.51-2.42,4.38-.23,8.82.16,13.13.88,3.19.44,6.42,1.39,9.63,1.57,12.84,0,25.69,0,38.53,0"/><path class="b" d="M8,44.83c4.05.32,8.19.08,12.26.15,5.54.11,11.1-.23,16.64-.26,11.67.31,23.35.28,35.02.26,12.25,0,24.52,0,36.78,0,4.65-.45,9.33-1.18,14.01-1.31,3.78-.14,7.63.05,11.38.45,2.6.21,5.27.81,7.88.86,14,0,28.03,0,42.03,0"/><path class="b" d="M8,42.15c1.72.11,3.56.35,5.25.63,2.6.02,5.28,0,7.88,0,5.53,0,11.11.04,16.64-.11,14,.13,28.02.12,42.03.11,15.18-.05,30.37.22,45.53-.37,4.95,0,9.93.51,14.89.37,14.59,0,29.19,0,43.78,0"/><path class="b" d="M8,39.42c2.63.12,5.29.7,7.88,1.11,6.11.13,12.27,0,18.39.05,12.84,0,25.69,0,38.53,0,37.07,0,74.14,0,111.2,0"/><path class="b" d="M8,36.71c3.53.11,7.02,1.11,10.51,1.6,5.23.19,10.52.01,15.76.07,13.42,0,26.86,0,40.28,0,36.48,0,72.97,0,109.45,0"/><path class="b" d="M8,34.05c3.84.05,7.6,1.22,11.38,1.78,2.28.49,4.69.33,7,.35,16.05,0,32.11,0,48.16,0,36.48.01,72.97-.05,109.45,0"/><path class="b" d="M8,31.49c5.62.04,11.04,2.14,16.64,2.49,16.34,0,32.69,0,49.03,0,15.17,0,30.36,0,45.53,0,9.92.03,19.86.05,29.77-.28,3.78-.04,7.61.14,11.38.28,7.87,0,15.77,0,23.64,0"/><path class="b" d="M8,29.06c2.64-.14,5.31.44,7.88.96,3.17.63,6.43,1.23,9.63,1.66,15.74.27,31.53,0,47.28.1,15.46,0,30.94,0,46.41,0,5.53,0,11.11,0,16.64,0,3.77-.2,7.61-.37,11.38-.39,5.83-.08,11.69.22,17.51.39,6.41,0,12.86,0,19.26,0"/><path class="b" d="M8,26.79c2.94-.24,5.89.45,8.76.99,3.47.65,7.01,1.28,10.51,1.72,14.58.25,29.2,0,43.78.09,15.46,0,30.94,0,46.41,0,4.65,0,9.36,0,14.01,0,4.06-.22,8.19-.41,12.26-.45,13.42-.11,26.85.65,40.28.45"/><path class="b" d="M8,24.69c3.23-.33,6.47.44,9.63.96,3.76.66,7.59,1.28,11.38,1.71,12.84.06,25.69,0,38.53.02,13.13,0,26.27,0,39.4,0,7.28-.08,14.61.18,21.89-.13,9.32-.57,18.69-.32,28.02-.21,9.04-.09,18.1.39,27.14.35"/><path class="b" d="M8,22.75c3.21-.39,6.47.29,9.63.76,3.76.59,7.59,1.17,11.38,1.58,13.12.22,26.28,0,39.4.08,16.05,0,32.11,0,48.16,0,5.54.11,11.1-.53,16.64-.54,7.58-.12,15.19.26,22.77.27,9.33-.09,18.69-.38,28.02.12"/><path class="b" d="M8,20.96c3.2-.43,6.46.16,9.63.56,3.77.51,7.6,1.03,11.38,1.4,18.67.12,37.36,0,56.04.04,9.92,0,19.86,0,29.77,0,6.4-.41,12.84-.86,19.26-.68,7.58.13,15.18.65,22.77.56,9.04-.2,18.1-.85,27.14-.52"/><path class="b" d="M8,19.3c2.9-.4,5.87-.03,8.76.29,3.77.41,7.6.88,11.38,1.19,10.5,0,21.02,0,31.52,0,12.54,0,25.11,0,37.65,0,4.36,0,8.77,0,13.13,0,3.77-.31,7.6-.71,11.38-.83,10.51-.47,21.01.96,31.52.83,10.23.22,20.42-1.24,30.65-1.12"/><path class="b" d="M8,17.69c6.12-.66,12.27.81,18.39.88,12.54,0,25.11,0,37.65,0,14,0,28.03,0,42.03,0,5.81-.47,11.66-1.3,17.51-1.16,6.42.03,12.86.7,19.26,1.1,4.65.15,9.36.01,14.01.06,9.08.3,18.08-1.34,27.14-1.51"/><path class="b" d="M8,16.1c4.65-.54,9.35.31,14.01.27,23.05,0,46.12,0,69.17,0,4.36-.05,8.78.1,13.13-.06,6.08-.86,12.24-1.53,18.39-1.31,5.84.16,11.69.9,17.51,1.36,5.53.02,11.11,0,16.64,0,3.18-.02,6.45.04,9.63-.03,5.83-.53,11.67-1.42,17.51-1.75"/><path class="b" d="M8,14.17c29.77,0,59.54,0,89.31,0,1.4,0,2.97,0,4.38,0,2.3-.33,4.7-.71,7.01-.99,4.04-.51,8.19-.72,12.26-.55,5.26.2,10.53.94,15.76,1.47,5.23.19,10.52.01,15.76.07,5.53-.03,11.11.07,16.64-.04,4.95-.55,9.92-1.4,14.89-1.85"/><path class="b" d="M8,11.97c29.48,0,58.96,0,88.44,0,3.53.22,7.03-.52,10.51-1.02,4.04-.56,8.18-.8,12.26-.61,5.27.21,10.52,1.09,15.76,1.63,5.82,0,11.69,0,17.51,0,6.41-.05,12.86.1,19.26-.06,4.07-.53,8.18-1.26,12.26-1.75"/></svg>