<?xml version="1.0" encoding="UTF-8"?><svg id="a" xmlns="http://www.w3.org/2000/svg" width="1920" height="2400" viewBox="0 0 192 240"><defs><style>.b{fill:none;stroke:#fff;stroke-miterlimit:10;stroke-width:.3px;}.c{stroke-width:0px;}</style></defs><rect class="c" width="192" height="240"/><path class="b" d="M11.17,217.06c2.52,2.1,5.75,3.19,8.44,5.02,4.21,2.82,8.11,6.24,12.66,8.51,1.03.51,2.28,1.04,3.38,1.41.76-.07,1.78-.27,2.53-.4,2.5-.45,5.08-.92,7.6-1.28,11.49-1.93,23.07-.11,34.61-.5,12.97-.56,22.15-7.96,35.45-2.12,14-5.48,20.23-5.14,34.61-1.26,8.26-8.71,16.91-23.13,30.39-13.82"/><path class="b" d="M11.17,213.02c1.78,1.3,3.87,2.3,5.91,3.12,1.76.85,3.5,2.04,5.06,3.2,4.6,3.45,9,7.43,14.35,9.72.75.31,1.75.7,2.53.88.76-.1,1.77-.23,2.53-.33,6.15-.84,12.36-1.46,18.57-1.65,6.74-.25,13.54-.06,20.26-.7,7.26-.51,13.96-3.77,21.1-4.88,3.66-.55,7.48-.21,10.97,1.02,1.7.48,3.34,1.59,5.06,1.95,11.67-4.1,20.21-3.36,32.07-.94,8.49-9.2,16.89-25.82,31.23-15.01"/><path class="b" d="M11.17,209.48c1.8,1.16,3.88,1.96,5.91,2.61,1.44.58,2.94,1.47,4.22,2.35,6.35,4.48,11.9,10.47,19.41,13.03,1.59.76,3.39.4,5.06.25,11.79-1.27,23.72-1.27,35.45-2.99,7.82-1.03,14.89-5.31,22.79-5.85,3.16-.18,6.38.49,9.28,1.72,1.08.45,2.34,1.07,3.38,1.63.73.38,1.66,1.1,2.53,1.02,4.68-1.15,9.53-1.82,14.35-1.79,5.08,0,10.16.71,15.19,1.31,2.94-2.73,5.01-6.48,7.6-9.55,6.92-8.74,14.16-14.81,24.48-6.53"/><path class="b" d="M11.17,206.56c1.82.99,3.9,1.55,5.91,1.99,1.45.44,2.94,1.21,4.22,2.01,7.57,4.99,13.82,12.42,22.79,15,1.87.58,3.98.23,5.91.32,11.29-.72,22.72-1.38,33.76-4.02,8.41-1.9,16.4-7.72,25.32-5.83,2.67.57,5.25,1.78,7.6,3.15,1.38.68,2.69,2.01,4.22,2.31,8.94-1.48,18.03-.72,27.01-.08,1.41-.75,2.37-2.54,3.38-3.74,1.37-1.85,2.85-3.95,4.22-5.8,7.02-9.33,14.39-16.5,25.32-7.38"/><path class="b" d="M11.17,204.33c2.12.97,4.52,1.03,6.75,1.49,4.18,1.22,7.62,4.19,10.97,6.84,5.62,4.5,12.8,10.64,20.26,11.1,3.35,0,6.77,0,10.13,0,3.08-.18,6.22-.55,9.28-.94,8.4-1.1,16.76-3.06,24.48-6.61,13.11-6.06,18.22-4.34,29.54,3.88,5.32-.39,10.71-.28,16.04-.06,1.93.07,3.98.16,5.91.22,1.07-.02,2.37.24,3.38-.21,8.92-9.96,17.32-30.49,32.92-17.16"/><path class="b" d="M11.17,202.81c1.89.58,3.95.63,5.91.59,1.41.09,2.93.54,4.22,1.11,7.4,3.58,12.98,10.06,20.26,13.86,3.38,1.72,7.1,3.49,10.97,3.27,4.48-.04,9.02.07,13.5-.05,6.6-.74,13.15-2.22,19.41-4.42,8.51-2.69,16.82-9.97,26.17-6.71,4.76,1.64,8.64,5.07,12.66,7.97.89.76,2.3.42,3.38.5,1.64.02,3.42.06,5.06.11,4.77.13,9.58.34,14.35.24,9.79-9.58,17.43-31.09,33.76-17.53"/><path class="b" d="M11.17,201.96c1.93.37,3.98.16,5.91-.1,3.34-.17,6.52,1.37,9.28,3.08,8.12,5.3,15.51,12.45,25.32,14.43,2.76.35,5.66.05,8.44.15,3.35-.05,6.78.11,10.13-.08,8.55-1.35,16.89-4.18,24.48-8.34,16.06-8.97,20.14-2.46,32.92,6.8,6.17.29,12.39.53,18.57.34,1.34-.46,2.4-1.88,3.38-2.86,2.07-2.32,4-5,5.91-7.46,7.27-9.35,14.33-15.56,25.32-6.83"/><path class="b" d="M11.17,201.7c1.98.16,4-.26,5.91-.72,1.36-.22,2.88-.16,4.22.12,4.71,1.06,8.72,4.05,12.66,6.68,4.75,3.27,9.68,6.51,15.19,8.33,1.61.53,3.39,1.01,5.06,1.29,1.65,0,3.42,0,5.06,0,4.2,0,8.46,0,12.66,0,3.15-.11,6.28-1.22,9.28-2.11,3.44-1.15,6.93-2.38,10.13-4.11,6.48-3.34,13.4-8.87,21.1-6.5,4.54,1.4,8.21,4.69,11.82,7.65,2.11,1.63,4.21,3.71,6.75,4.62,4.2.18,8.46.28,12.66.2.74-.02,1.79-.05,2.53-.08.43-.25,1.3-.84,1.69-1.16,2.19-1.8,4.12-4.13,5.91-6.32,7.63-9.49,14.95-17.77,27.01-8.72"/><path class="b" d="M11.17,201.91c2.62.05,5.05-1.2,7.6-1.55,5.92-.58,11.18,2.99,16.04,5.88,6.49,4.03,13.39,8.1,21.1,9.04,4.49,0,9.02,0,13.5,0,2.79-.09,5.73.32,8.44-.49,4.93-1.33,9.9-2.97,14.35-5.52,5.84-3.16,11.54-8.2,18.57-7.76,9.08.98,14.19,9.94,21.94,13.71,3.07.14,6.22.02,9.28.06,1.64-.06,3.44.14,5.06-.13,2.62-1.44,4.76-3.77,6.75-5.95,7.94-9.01,15.02-16.5,27.01-8.31"/><path class="b" d="M11.17,202.42c2.34-.16,4.55-1.18,6.75-1.87,4.6-1.27,9.37.31,13.5,2.32,8.13,4.05,16.09,9.3,25.32,10.29,3.64,0,7.33,0,10.97,0,3.63-.08,7.35.17,10.97-.11,4.97-1.24,9.97-2.85,14.35-5.55,5.43-3.12,10.44-7.8,16.88-8.56,9.67-.62,15.27,9.07,22.79,13.48.93.69,2.25.83,3.38.74,1.35,0,2.87,0,4.22,0,2.5,0,5.09,0,7.6,0,1.22-.32,2.4-1.28,3.38-2.03,9.44-8.39,15.88-18.26,29.54-10.05"/><path class="b" d="M11.17,203.04c2.35-.27,4.56-1.34,6.75-2.14,5.36-1.81,11.06-.11,16.04,2.08,7.35,3.26,14.69,7.11,22.79,8.05,3.92,0,7.9,0,11.82,0,3.92,0,7.9,0,11.82,0,4.41-.88,8.81-2.35,12.66-4.7,5.35-3.11,10.01-7.72,16.04-9.55,12.54-3.69,20.71,15.15,28.7,14.25,2.5,0,5.09,0,7.6,0,1.63-.13,3.53.32,5.06-.31,3.09-1.7,5.68-4.3,8.44-6.47,7.14-5.91,13.48-7.31,21.94-2.94"/><path class="b" d="M11.17,203.57c2.65-.35,5.08-1.67,7.6-2.47,6.84-2.15,13.88.45,20.26,2.92,5.46,2.11,11.06,4.11,16.88,4.9,4.49,0,9.02,0,13.5,0,3.07,0,6.21,0,9.28,0,1.35,0,2.87,0,4.22,0,1.08-.15,2.32-.52,3.38-.79,8.79-2.19,14.69-9.85,22.79-13.4,6.89-3.02,12.88,1.44,17.72,6.01,2.45,2.24,4.89,4.68,7.6,6.61.7.5,1.75,1.12,2.53,1.49.74.1,1.79.07,2.53.07,3.64,0,7.34,0,10.97,0,1.18.16,2.41-.55,3.38-1.14,1.69-1.03,3.43-2.3,5.06-3.41,5.62-4.03,11.69-6.32,18.57-4.07,1.08-.35,2.3-.94,3.38-1.29"/><path class="b" d="M11.17,203.81c3.22-.42,6.14-2.09,9.28-2.79,9.25-2.19,18.18,2.26,27.01,4.39,2.2.55,4.51,1.03,6.75,1.37,2.22.03,4.53,0,6.75.02,4.77,0,9.58,0,14.35,0,2.5,0,5.09,0,7.6,0,1.67.03,3.47.05,5.06-.51,9.19-2.47,14.91-11.19,23.63-14.53,5.66-2.14,11.2,1.48,15.19,5.25,3.05,2.5,9.71,10.44,13.5,9.79,4.48-.03,9.02.05,13.5-.03,2.9-1.21,5.61-3,8.44-4.36,2.37-1.16,4.97-2.09,7.6-2.4,1.63-.26,3.43-.02,5.06-.09,1.86-1.12,3.89-2.25,5.91-3.07"/><path class="b" d="M11.17,203.59c3.19-.34,6.18-1.72,9.28-2.41,8.49-2.08,17.04.65,25.32,2.41,1.61.37,3.42.05,5.06.19,2.8.11,5.66.49,8.44.89,7.87,0,15.76,0,23.63,0,1.93-.03,3.98.07,5.91-.06,3.39-.86,6.51-2.69,9.28-4.78,5.44-3.9,10.08-9.74,16.88-11.23,7.04-1.13,12.26,5.03,16.88,9.39,2.55,2.46,5.2,5.1,8.44,6.63,1.93.09,3.98.02,5.91.04,3.35-.06,6.78.12,10.13-.08,1.37-.49,2.88-1.14,4.22-1.7,2.16-.91,4.46-1.78,6.75-2.3,1.61-.43,3.44-.42,5.06-.74,2.72-1.76,5.5-3.64,8.44-5.01"/><path class="b" d="M11.17,202.55c2.87.18,5.67-.85,8.44-1.41,3.03-.65,6.19-1.01,9.28-.98,3.95.03,7.92.63,11.82,1.26,3.05-.5,6.18-1,9.28-.94,4.56.01,9.06,1.1,13.5,2.03,3.92.11,7.9.01,11.82.04,3.64,0,7.34,0,10.97,0,1.35,0,2.87,0,4.22,0,1.12-.15,2.36-.7,3.38-1.17,8.23-3.69,14.84-14.71,23.63-15.61,9.66-.3,15.7,12.08,23.63,16.31,1.2.78,2.86.38,4.22.47,2.5,0,5.09,0,7.6,0,1.93,0,3.98,0,5.91,0,2.78-.76,5.6-1.75,8.44-2.27.74-.14,1.8-.27,2.53-.44,1.07-.65,2.34-1.47,3.38-2.16,2.45-1.63,4.97-3.37,7.6-4.69"/><path class="b" d="M11.17,200.43c2.5,0,5.09,0,7.6,0,2.79-.27,5.63-.77,8.44-.84,2.79-.12,5.66-.02,8.44.2,2.53-.54,5.06-1.4,7.6-1.92,4.7-1.09,9.66-1.09,14.35.04,3.1.7,6.19,1.73,9.28,2.48,5.05.12,10.14,0,15.19.04,3.63-.07,7.35.14,10.97-.09,3.87-1.32,7.14-4.03,10.13-6.74,4.9-4.2,9.86-10.66,16.88-10.55,9.38.46,16.73,15.73,24.48,17.38,4.2,0,8.46,0,12.66,0,2.52-.02,5.14.19,7.6-.48,1.43-.23,3-.45,4.22-1.3,4.05-2.26,7.71-5.27,11.82-7.43"/><path class="b" d="M11.17,198.31c4.49,0,9.02,0,13.5,0,2.5-.08,5.12.17,7.6-.13,3.98-1.04,7.83-2.69,11.82-3.72,4.39-1.2,9.1-1.24,13.5-.05,4.29.99,8.33,3.15,12.66,3.9,8.15-.09,16.34.18,24.48-.1,9.46-3.38,15.68-16.54,25.32-17.79,9.41-.49,15.96,12.58,23.63,16.99.38.24,1.27.69,1.69.88.4.01,1.28.03,1.69.02,1.35,0,2.87,0,4.22,0,4.48,0,9.02,0,13.5,0,2.12.03,4.09-1.46,5.91-2.41,3.4-2.04,6.62-4.53,10.13-6.39"/><path class="b" d="M11.17,196.19c4.2,0,8.46,0,12.66,0,1.36,0,2.86,0,4.22,0,1.07-.04,2.35.14,3.38-.22,4.59-1.34,8.9-3.63,13.5-4.94,4.38-1.33,9.15-1.27,13.5.12,4.31,1.3,8.36,3.45,12.66,4.77,1.02.4,2.31.24,3.38.27,1.35,0,2.87,0,4.22,0,4.2,0,8.46,0,12.66,0,1.35,0,2.87,0,4.22,0,1.84-.39,3.55-1.6,5.06-2.67,6.42-4.58,11.67-13.43,19.41-15.45,7.86-1.44,13.55,7.01,18.57,11.78,1.79,1.81,3.77,3.68,5.91,5.08.69.45,1.72,1.03,2.53,1.26.4,0,1.28,0,1.69,0,3.35,0,6.77,0,10.13,0,2.5-.07,5.11.15,7.6-.11,5.18-1.97,9.44-5.75,14.35-8.23"/><path class="b" d="M11.17,194.07c4.2,0,8.46,0,12.66,0,2.5-.14,5.22.42,7.6-.52,4.61-1.55,8.88-4.08,13.5-5.6,4.34-1.51,9.14-1.59,13.5-.14,5.22,1.63,9.94,4.65,15.19,6.18,5.04.2,10.15.02,15.19.08,2.79-.03,5.66.06,8.44-.05,9.12-3.84,13.52-14.43,22.79-17.99,6.53-2.1,11.9,3.69,16.04,7.92,3.59,3.66,7.05,7.88,11.82,10.05,3.35.16,6.78.02,10.13.06,2.5,0,5.09,0,7.6,0,2.11-.16,4.06-1.56,5.91-2.51,3.07-1.79,6.07-3.87,9.28-5.39"/><path class="b" d="M11.17,191.95c3.92,0,7.9,0,11.82,0,1.36,0,2.86,0,4.22,0,1.08.01,2.36.06,3.38-.36,6.6-2.14,12.43-6.61,19.41-7.52,7.99-1.13,14.89,3.86,21.94,6.74,1.04.41,2.29.86,3.38,1.15,1.06,0,2.32,0,3.38,0,2.79,0,5.65,0,8.44,0,3.64-.02,7.34.04,10.97-.03,8.89-3.94,13.19-14.09,21.94-18.23,6.27-2.82,12,2.54,16.04,6.78,4.15,4.1,7.88,9.35,13.5,11.47,2.5,0,5.09,0,7.6,0,2.79,0,5.65,0,8.44,0,2.09-.26,4.05-1.55,5.91-2.49,3.05-1.7,6.06-3.66,9.28-5.01"/><path class="b" d="M11.17,189.82c4.2,0,8.46,0,12.66,0,1.36,0,2.86,0,4.22,0,.78,0,1.8.05,2.53-.27,6.9-2.17,12.94-6.98,20.26-7.81,8.01-.96,14.86,4.09,21.94,6.94,1.04.41,2.3.85,3.38,1.14,1.06,0,2.32,0,3.38,0,2.79,0,5.65,0,8.44,0,2.22,0,4.53,0,6.75,0,1.35-.05,2.89.15,4.22-.17,8.62-4.28,12.8-14.13,21.1-18.85,6.18-3.51,11.93,1.29,16.04,5.69,4.51,4.58,8.42,10.23,14.35,13.08.7.31,1.78.24,2.53.24,1.35,0,2.87,0,4.22,0,2.79,0,5.65,0,8.44,0,5.38-1.57,9.9-5.31,15.19-7.13"/><path class="b" d="M11.17,186.99c1.37.16,2.87.42,4.22.68,1.07.05,2.31.03,3.38.03,3.92-.01,7.9.03,11.82-.02,5.3-1.49,10.03-4.53,15.19-6.38,4.57-1.74,9.71-1.93,14.35-.33,3.78,1.22,7.34,3.15,10.97,4.74,1.88.73,3.87,1.79,5.91,1.9,4.2.2,8.46.03,12.66.09,3.07-.05,6.22.1,9.28-.07,9.2-4.6,13.19-15.47,21.94-20.67,6.63-3.91,12.74,2.23,16.88,6.94,4.61,4.96,8.68,11.21,15.19,13.8,2.22,0,4.54,0,6.75,0,1.93-.05,3.99.12,5.91-.11,5.25-1.76,9.86-5.15,15.19-6.7"/><path class="b" d="M11.17,183.16c3.41.48,6.69,1.88,10.13,2.24,1.92.3,3.97.15,5.91.18,1.64-.05,3.44.13,5.06-.12,4.66-1.35,8.95-3.79,13.5-5.41,4.84-1.84,10.26-2.09,15.19-.45,4.05,1.25,7.86,3.25,11.82,4.75,1.83.68,3.99.4,5.91.74,4.46.72,9.01.47,13.5.5,2.22-.04,4.54.1,6.75-.08,1.15-.52,2.4-1.35,3.38-2.14,4.62-3.87,7.99-9.05,11.82-13.65,2.4-2.86,5.02-5.89,8.44-7.54,7.07-3.25,12.81,4.14,16.88,8.93,4.49,5.25,8.6,11.59,15.19,14.35,1.33.24,2.87.08,4.22.12,1.93-.03,3.98.07,5.91-.06,5.5-1.72,10.38-5.17,16.04-6.42"/><path class="b" d="M11.17,178.82c3.21.39,6.14,2.04,9.28,2.68,4.69,1.08,9.56,1.36,14.35,1.44,1.43-.11,2.88-.86,4.22-1.32,2.49-.97,5.04-2.05,7.6-2.86,4.6-1.55,9.65-1.83,14.35-.53,2.27.59,4.57,1.44,6.75,2.29,1.62.6,3.29,1.5,5.06,1.38,4.23.23,8.48.87,12.66,1.55,3.64,0,7.34,0,10.97,0,9.42.79,18.07-23.23,27.85-26.43,7.94-2.63,14.27,8.19,18.57,13.37,3.69,4.62,9.03,12.18,15.19,13.06,1.93-.03,3.98.07,5.91-.06.75-.23,1.8-.58,2.53-.86,4.74-1.81,9.28-4.45,14.35-5.23"/><path class="b" d="M11.17,174.12c2.37.19,4.59,1.28,6.75,2.16,2.43.92,5.04,1.58,7.6,2.02,5.28.91,10.69,1.11,16.04,1.11,2.53-.61,5.03-1.7,7.6-2.22,4.42-1.07,9.12-.93,13.5.24,1.67.42,3.43.99,5.06,1.53,3.36.19,6.79.38,10.13.84,3.09.39,6.22.97,9.28,1.46,1.93.13,3.98.03,5.91.06,1.64,0,3.42,0,5.06,0,.82-.3,1.83-.92,2.53-1.43,8.89-6.35,15.53-25.68,25.32-28.23,6.74-1.12,11.58,6.7,15.19,11.3,2.97,4.07,5.86,8.37,9.28,12.08,3.26,3.41,7.61,7.12,12.66,6.18,5.96-1.7,11.46-5.17,17.72-5.72"/><path class="b" d="M11.17,169.26c3.33.08,6.18,2.14,9.28,3.08,4.08,1.39,8.39,2.19,12.66,2.68,5.87.67,11.82.8,17.72.89,2.22-.11,4.52-.48,6.75-.3,1.95.05,3.96.57,5.91.58,5.64.22,11.3.74,16.88,1.61,2.79.4,5.64.99,8.44,1.31,2.49.23,5.1.06,7.6.11,8.38-.06,18.06-24.33,25.32-30.14,6.7-6.29,12.51-.78,16.88,5.01,6.16,7.74,11.26,19.16,20.26,23.78,1.01.46,2.29.92,3.38,1.14,1.97-.55,4-1.3,5.91-2.02,4.06-1.55,8.27-3.16,12.66-3.27"/><path class="b" d="M11.17,164.44c3.35-.23,6.22,1.88,9.28,2.88,4.08,1.5,8.38,2.54,12.66,3.29,9.48,1.64,19.13,2.07,28.7,2.88,8.48.65,16.93,1.8,25.32,3.12,2.77.37,5.64.55,8.44.49,3.28.41,6.51-3.71,8.44-6,6.41-7.65,13.53-26.31,21.94-29.75,13.1-4.54,21.63,31.81,37.14,34.95,5.79-1.79,11.53-4.53,17.72-4.32"/><path class="b" d="M11.17,159.86c3.62-.64,6.8,1.74,10.13,2.74,4.67,1.69,9.51,3.02,14.35,4.11,9.46,2.11,19.1,3.39,28.7,4.69,8.15,1.04,16.31,2.28,24.48,3.19,2.5.21,5.09.37,7.6.39,3.66-1.52,6.21-4.96,8.44-8.1,3.44-5.09,6.28-10.7,9.28-16.05,3.12-5.13,7.23-13.73,13.5-15.13,12.83-1.38,20.71,34.04,36.29,37.81,5.48-1.63,11.06-3.79,16.88-3.26"/><path class="b" d="M11.17,155.7c1.95-.62,4.07-.27,5.91.54,1.93.71,3.97,1.44,5.91,2.12,6.11,2.15,12.32,4.14,18.57,5.86,16.53,4.49,33.55,7.38,50.64,8.44,3.29.17,4.08.5,6.75-1.79,6.17-5.65,9.56-13.69,13.5-20.91,3.18-5.87,6.13-12.25,10.97-16.96.66-.57,1.63-1.42,2.53-1.57,1.35,0,2.87,0,4.22,0,5.32-1.15,12.62,13.42,15.19,17.49,3.07,5.26,6.15,10.73,10.13,15.38,1.85,2.17,4.17,4.15,6.75,5.39.71.35,1.77.78,2.53,1.04.41-.05,1.3-.24,1.69-.39,4.63-1.36,9.51-2.42,14.35-1.82"/><path class="b" d="M11.17,152.13c3.34-1.61,6.87.24,10.13,1.19,4.82,1.61,9.6,3.48,14.35,5.28,11.99,4.65,24.36,8.59,37.14,10.34,5.3.76,10.69,1.24,16.04,1.5,2.21.01,4.56.39,6.75.08,1.93-.94,3.66-2.52,5.06-4.13,5.79-7.02,9.3-15.66,13.5-23.65,2.44-4.62,4.88-9.55,8.44-13.43h12.66c2.49,2.04,4.16,5.19,5.91,7.85,2.62,4.32,5.07,8.94,7.6,13.32,4.15,6.97,8.68,14.98,16.88,17.6,1.96-.12,3.95-.87,5.91-1.1,3.04-.49,6.23-.58,9.28-.13"/><path class="b" d="M11.17,149.25c2.47-1.53,4.94-1.21,7.6-.5,4.05.96,8,2.47,11.82,4.1,6.76,2.9,13.38,6.19,20.26,8.8,9.96,3.89,20.56,6.01,31.23,6.58,2.78.17,5.65.24,8.44.3,1.65-.06,3.6.45,5.06-.51,10.74-6.58,17.1-30.17,25.32-40.81h16.04c1.48.95,2.38,3.02,3.38,4.43,2.06,3.35,4.03,7.03,5.91,10.49,5.12,8.84,9.78,20.05,20.26,23.48,1.94.12,3.96-.62,5.91-.68,2.79-.26,5.68-.17,8.44.28"/><path class="b" d="M11.17,147.13c7.62-6.18,27.55,7.08,35.45,10.58,12.37,6.31,25.82,9.07,39.67,8.78,2.5-.08,5.12.18,7.6-.13,3.64-1.63,6.27-4.96,8.44-8.2,4.66-7.21,8.02-15.3,11.82-22.98,1-2.06,2.26-4.51,3.38-6.51.65-1.09,1.44-2.86,2.53-3.6,3.92,0,7.9,0,11.82,0,1.35,0,2.87,0,4.22,0,.78,0,1.83-.09,2.53.32,4.71,7.2,8.28,15.18,12.66,22.57,3.63,6.18,8.07,12.71,15.19,15.07,1.85.83,3.97-.01,5.91.02,2.79-.15,5.68.03,8.44.5"/><path class="b" d="M11.17,145.75c8.73-7.53,25.47,4.82,33.76,9.17,10.23,5.88,21.87,9.78,33.76,9.44,3.07,0,6.21,0,9.28,0,2.34-.12,4.72.51,6.75-.95,5.62-3.65,8.75-10.06,11.82-15.8,2.62-5.16,5.06-10.64,7.6-15.84,1-2.07,2.26-4.52,3.38-6.53.21-.58,1.17-1.93,1.69-2.3h19.41c1.82,1.77,2.91,4.56,4.22,6.71,2.25,4.16,4.47,8.58,6.75,12.72,4.18,7.49,8.98,15.98,17.72,18.63,1.58.69,3.4.25,5.06.26,2.8-.06,5.68.17,8.44.64"/><path class="b" d="M11.17,145.07c8.81-8.2,22.18,1.32,30.39,6.25,5.35,3.3,10.9,6.47,16.88,8.46,3.54,1.19,7.27,1.99,10.97,2.44,3.07.06,6.21,0,9.28.02,3.07,0,6.21,0,9.28,0,1.64-.12,3.55.34,5.06-.41,10.87-5.14,18.36-30.25,25.32-41h20.26c1.49,1.25,2.36,3.56,3.38,5.18,1.69,3.09,3.43,6.49,5.06,9.61,4.83,8.71,9.41,19.36,19.41,23.06,1.03.37,2.28.78,3.38.93,1.06-.04,2.32-.05,3.38-.03,2.52.05,5.11.3,7.6.7"/><path class="b" d="M11.17,144.98c9.74-9.67,22.96.55,32.07,6.12,6,3.75,12.43,7.07,19.41,8.49,2.46.65,5.08.55,7.6.53,3.07,0,6.21,0,9.28,0,2.79,0,5.65,0,8.44,0,1.7-.02,3.57.26,5.06-.73,11.27-6.03,17.82-30.39,25.32-40.69,6.74.09,13.53-.18,20.26.11,4.33,6.95,7.76,14.53,11.82,21.63,3.56,6.14,7.61,12.77,14.35,15.77,1.58.72,3.37,1.29,5.06,1.65,1.05.07,2.32.04,3.38.09,2.52.03,5.09.44,7.6.6"/><path class="b" d="M11.17,145.33c9.47-9.78,21.17-2.04,30.39,3.79,5.28,3.3,10.82,6.43,16.88,8.05,1.05.28,2.31.57,3.38.77,1.35.14,2.87.05,4.22.07,2.5,0,5.09,0,7.6,0,3.64,0,7.34,0,10.97,0,1.35,0,2.87,0,4.22,0,.76,0,1.81.07,2.53-.23,12.16-4.74,19.19-30.65,27.01-41.19,4.2,0,8.46,0,12.66,0,2.21.1,4.58-.23,6.75.19,4.4,6.79,7.82,14.29,11.82,21.31,3.75,6.48,7.98,13.6,15.19,16.62,1.58.68,3.38,1.21,5.06,1.55,1.06.05,2.32.06,3.38.1,2.51.06,5.09.39,7.6.56"/><path class="b" d="M11.17,145.92c8.86-8.97,18.62-4.64,27.85,1.01,5.37,3.19,10.83,6.46,16.88,8.18,1.89.62,3.93.9,5.91.78,2.22,0,4.53,0,6.75,0,7.02,0,14.08,0,21.1,0,8.53-1.76,13.9-13.66,17.72-20.7,3.51-6.8,6.68-13.95,10.97-20.31.69-.51,1.73-.42,2.53-.41,1.35,0,2.87,0,4.22,0,3.64,0,7.34,0,10.97,0,5.44,7.09,8.87,15.64,13.5,23.26,3.72,6.25,8.07,13.01,15.19,15.67,2.39,1,5.01,1.44,7.6,1.36,2.79.09,5.66.27,8.44.55"/><path class="b" d="M11.17,146.55c11.31-10.68,21.64-3.3,32.92,2.64,3.74,1.92,7.7,3.6,11.82,4.5,6.45.19,12.96.01,19.41.07,3.35,0,6.77,0,10.13,0,1.94-.09,4.1.34,5.91-.55,9.76-4.33,15.88-20.55,21.1-29.61,1.27-2.36,2.76-4.98,4.22-7.23.97-1.29,1.9-3.26,3.38-4.03,3.07,0,6.21,0,9.28,0,1.64.1,3.49-.26,5.06.25,6.15,7.64,10,16.89,15.19,25.15,3.68,5.96,8.21,12.23,15.19,14.42,2.45.96,5.01.98,7.6.99,2.79.08,5.66.21,8.44.41"/><path class="b" d="M11.17,147.02c11.84-9.98,20.95-4.08,32.92,1.45,2.97,1.32,6.1,2.48,9.28,3.17,2.5,0,5.09,0,7.6,0,6.46,0,12.95,0,19.41,0,3.07,0,6.21.01,9.28,0,2.15-.61,4.21-1.82,5.91-3.26,7.25-6.63,11.17-16.05,16.04-24.4,2.86-4.84,5.6-10.24,10.13-13.75h9.28c11.44,9.45,17.01,34.08,31.23,39.86,1.31.53,2.84.97,4.22,1.25,1.63.2,3.42.11,5.06.17,3.07.07,6.21.17,9.28.13"/><path class="b" d="M11.17,147.13c15.85-11.22,24.23-.81,39.67,2.39,8.43,0,16.89,0,25.32,0,4.49,0,9.02,0,13.5,0,6.63-1.88,10.78-8.06,14.35-13.54,3.2-5.07,6.09-10.49,9.28-15.56,3.16-4.63,7.74-12.53,14.35-10.83,6.44,2.34,10.79,11.24,14.35,16.79,3.58,5.92,7.01,12.17,11.82,17.21,3.09,3.15,7.29,5.84,11.82,5.93,5.05,0,10.14,0,15.19,0"/><path class="b" d="M11.17,146.73c11.08-5.94,17.13-5.32,28.7-1.42,2.48.78,5.05,1.55,7.6,2.09,1.65,0,3.42,0,5.06,0,10.4,0,20.83,0,31.23,0,2.21-.08,4.56.18,6.75-.15,5.56-1.82,9.4-6.71,12.66-11.32,3.24-4.68,6.13-9.76,9.28-14.5,3.55-5.04,8.83-13.49,16.04-10.11,4.46,2.42,7.33,6.98,10.13,11.06,4.79,7.13,8.77,15.13,15.19,20.99,2.15,1.88,4.79,3.42,7.6,4.03,1.93,0,3.98,0,5.91,0,4.48,0,9.02,0,13.5,0"/><path class="b" d="M11.17,145.28c1.13.11,2.34-.25,3.38-.66,1.63-.57,3.39-1.12,5.06-1.54,6.13-1.67,12.53-.63,18.57.89,1.93.45,3.96.93,5.91,1.3,2.5.03,5.09,0,7.6.01,8.43,0,16.89,0,25.32,0,3.07,0,6.21,0,9.28,0,1.64-.09,3.48.24,5.06-.23,15.26-4.51,24.41-43.78,39.67-30.31,9.2,8.4,13.22,21.56,23.63,28.77,1.26.75,2.75,1.58,4.22,1.78,2.22,0,4.54,0,6.75,0,5.05,0,10.14,0,15.19,0"/><path class="b" d="M11.17,143.16c1.65,0,3.42,0,5.06,0,2.77-.54,5.61-1.19,8.44-1.37,4.8-.37,9.62.42,14.35,1.18,1.91.33,3.98.13,5.91.18,2.79,0,5.65,0,8.44,0,8.71,0,17.45,0,26.16,0,3.64,0,7.34,0,10.97,0,3.52-.11,6.84-3.08,9.28-5.4,6.83-6.45,13.65-20.95,21.94-23.95,7.79-2.34,13.67,7.55,17.72,12.77,3.37,4.61,6.63,9.52,10.97,13.29,1.71,1.38,3.71,2.86,5.91,3.29,2.5,0,5.09,0,7.6,0,5.61,0,11.27,0,16.88,0"/><path class="b" d="M11.17,141.03c3.64,0,7.33,0,10.97,0,3.06-.28,6.21-.4,9.28-.21,7.01.45,14.08.11,21.1.21,11.53,0,23.08,0,34.6,0,1.93-.06,4,.14,5.91-.12,3.25-1.14,6.05-3.42,8.44-5.84,6-5.61,13.57-19.72,21.94-20.12,10.01-.22,18.17,18.96,27.01,24.4,1.47,1,3.22,1.94,5.06,1.68,2.22,0,4.54,0,6.75,0,6.18,0,12.39,0,18.57,0"/><path class="b" d="M11.17,138.91c18.56,0,37.14,0,55.71,0,6.18,0,12.39,0,18.57,0,2.79,0,5.65,0,8.44,0,1.47-.35,2.95-1.19,4.22-1.99,8.15-5,15.34-19.38,24.48-20.48,8.46-.64,15.48,11.49,21.1,16.78,2.19,2.22,4.69,4.39,7.6,5.6,3.06.24,6.22.03,9.28.1,6.74,0,13.52,0,20.26,0"/><path class="b" d="M11.17,136.79c18.85,0,37.7,0,56.55,0,6.18,0,12.39,0,18.57,0,3.07,0,6.21,0,9.28,0,1.46-.39,2.95-1.24,4.22-2.05,7.4-4.57,14.06-16.2,22.79-17.03,8.21-.29,14.51,9.68,20.26,14.57,1.51,1.37,3.27,2.76,5.06,3.74.69.38,1.71.91,2.53.77,2.79,0,5.65,0,8.44,0,7.3,0,14.64,0,21.94,0"/><path class="b" d="M11.17,134.67c16.31,0,32.64,0,48.95,0,7.87,0,15.76,0,23.63,0,4.49,0,9.02,0,13.5,0,6.29-1.83,10.92-7.76,16.04-11.61,5.78-4.72,11.39-5.99,17.72-1.35,5.84,3.98,10.16,10.36,16.88,12.96,10.97.01,21.95,0,32.92-.03"/><path class="b" d="M11.17,132.55c16.59,0,33.2,0,49.8,0,7.87,0,15.76,0,23.63,0,5.05-.05,10.15.11,15.19-.07,5.74-2.21,10.05-6.91,15.19-10.13,5.34-3.53,10.65-3.68,16.04-.12,5.21,3.16,9.37,8.25,15.19,10.32,7.3,0,14.64,0,21.94,0,4.18-.5,8.43-1.06,12.66-.84"/><path class="b" d="M11.17,130.43c16.88,0,33.77,0,50.64,0,7.59,0,15.2,0,22.79,0,3.64,0,7.34,0,10.97,0,1.35,0,2.87,0,4.22,0,.78,0,1.82.08,2.53-.3,4.85-1.99,8.86-5.59,13.5-7.96,5.47-2.98,10.84-2.38,16.04.88,3.96,2.33,7.55,5.44,11.82,7.21,1.61.35,3.43.1,5.06.17,5.33,0,10.71,0,16.04,0,5.25-1.16,10.63-2.24,16.04-1.94"/><path class="b" d="M11.17,128.31c9.84,0,19.7,0,29.54,0,7.03.04,14.08.03,21.1-.37,4.49-.16,9.02.1,13.5.37,2.79,0,5.65,0,8.44,0,5.34-.04,10.72.18,16.04-.35,1.06-.06,2.32-.11,3.38-.12.79.03,1.84-.02,2.53-.45,3.99-1.81,7.67-4.42,11.82-5.89,5.14-2.02,10.56-.67,15.19,1.99,3.04,1.63,6.03,3.58,9.28,4.78,5.89.1,11.83,0,17.72.04,3.19.21,6.22-1.27,9.28-1.94,3.83-1,7.85-1.56,11.82-1.38"/><path class="b" d="M11.17,126.19c8.71,0,17.45,0,26.17,0,2.79-.03,5.66.07,8.44-.05,3.36-.3,6.77-.66,10.13-.93,5.32-.44,10.72-.53,16.04-.04,2.8.24,5.66.66,8.44,1.01,2.5,0,5.09,0,7.6,0,1.67.1,3.43-.27,5.06-.52,1.92-.29,3.97-.54,5.91-.66,2.78-.18,5.66-.14,8.44.06,1.16.19,2.33-.7,3.38-1.08,2.17-.98,4.46-2.02,6.75-2.69,8.33-2.67,14.54,1.93,21.94,4.74,2.75.38,5.66.06,8.44.16,3.92-.05,7.9.1,11.82-.07,6.88-2.15,13.73-5.28,21.1-4.85"/><path class="b" d="M11.17,123.98c8.98.22,18.02,0,27.01.08,5.92-.44,11.82-1.48,17.72-2.04,5.03-.5,10.16-.58,15.19-.01,2.81.31,5.67.8,8.44,1.31,1.64.25,3.4.78,5.06.74,1.68-.02,3.42-.69,5.06-.99,2.75-.62,5.62-1.11,8.44-1.28,3.07-.19,6.23-.03,9.28.33,1.36.12,2.86.49,4.22.45.41-.15,1.27-.45,1.69-.6,9.06-3.4,14.18-1.63,22.79,1.61,1.29.58,2.85.49,4.22.48,1.93,0,3.98,0,5.91,0,2.5,0,5.09,0,7.6,0,1.35-.06,2.91.18,4.22-.21,7.44-2.61,14.66-6.82,22.79-6.48"/><path class="b" d="M11.17,121.59c1.26.62,2.86.26,4.22.35,2.5,0,5.09,0,7.6,0,5.06-.03,10.18.22,15.19-.58,6.76-.85,13.46-2.36,20.26-2.9,5.06-.42,10.2-.14,15.19.79,3.1.56,6.22,1.33,9.28,2.04,3.42-.48,6.69-2,10.13-2.48,3.32-.58,6.78-.63,10.13-.26,3.68.4,7.36,1.22,10.97,1.98,4.69-1.18,9.63-1.61,14.35-.35,2.24.49,4.51,1.3,6.75,1.76,3.07,0,6.21,0,9.28,0,2.5,0,5.09,0,7.6,0,1.68-.01,3.51.19,5.06-.59,7.7-3.08,15.05-8.04,23.63-7.93"/><path class="b" d="M11.17,119.24c.99.57,2.28.45,3.38.51,2.22.14,4.53.05,6.75.08,5.07.11,10.18-.1,15.19-.97,10.34-1.61,20.66-5.01,31.23-3.68,3.41.38,6.82,1.16,10.13,2.06,1.06.29,2.32.64,3.38.94,1.68-.31,3.46-.8,5.06-1.38,4.01-1.53,8.37-2.33,12.66-1.99,4,.28,7.96,1.32,11.82,2.36,1.35.36,2.86.77,4.22,1.12,1.04.33,2.29.53,3.38.28,3.07-.36,6.25-.2,9.28.35,1.36.24,2.87.56,4.22.85,1.35.14,2.87.05,4.22.07,3.92,0,7.9,0,11.82,0,1.93,0,3.98.01,5.91-.01.75-.25,1.8-.65,2.53-.96,7.99-3.47,15.45-9.15,24.48-9.39"/><path class="b" d="M11.17,116.94c1,.59,2.26.59,3.38.59,1.65.1,3.41.2,5.06.17,5.94.14,11.91-.52,17.72-1.74,10.24-2.2,20.64-5.9,31.23-3.91,2.25.37,4.56.94,6.75,1.58,1.36.28,2.81,1.16,4.22.99,3.19-.49,6.24-1.75,9.28-2.77,7.99-2.49,16.08.86,23.63,3.33,2.19.71,4.51,1.39,6.75,1.91,1.35-.07,2.87-.08,4.22,0,2.23.06,4.52.63,6.75.61,6.18,0,12.39,0,18.57,0,1.05,0,2.32,0,3.38,0,2.02-.58,4.02-1.61,5.91-2.53,7.3-3.77,14.35-8.94,22.79-9.57"/><path class="b" d="M11.17,114.71c1.02.62,2.21.77,3.38.71,1.65.07,3.42.18,5.06.16,5.67-.02,11.37-.77,16.88-2.13,11.47-2.93,21.71-7.4,33.76-4.15,1.97.41,3.94,1.28,5.91,1.64,4.05-.47,8.03-1.57,11.82-3.05,7.85-2.51,15.61,1.6,22.79,4.4,3.27,1.29,6.68,2.44,10.13,3.15,2.22.13,4.53.17,6.75.15,6.46,0,12.95,0,19.41,0,1.35-.04,2.89.12,4.22-.13,2-.71,4.02-1.74,5.91-2.7,7.66-3.97,14.84-9.69,23.63-10.8"/><path class="b" d="M11.17,112.56c1.54.96,3.34.84,5.06.89,2.79.05,5.66.02,8.44-.28,10.29-.77,19.56-5.54,29.54-7.61,3.87-.75,7.93-.85,11.82-.16,1.37.24,2.88.6,4.22.98.43.13,1.26.37,1.69.49.43-.04,1.26-.12,1.69-.17,4.89-.39,9.74-1.34,14.35-3.02,6.86-1.75,13.41,2.08,19.41,4.92,4.3,2.05,8.78,4.07,13.5,4.86,8.43,0,16.89,0,25.32,0,1.05,0,2.32,0,3.38,0,2.34-.67,4.59-1.92,6.75-3.02,8.08-4.06,15.38-10.22,24.48-11.88"/><path class="b" d="M11.17,110.47c2.3,1.34,5.07.75,7.6.86,7.23.18,14.37-1.69,21.1-4.22,9.82-3.71,16.3-6.57,27.01-4.63,4.19-.47,8.47-.57,12.66-1.06,7.66-.83,9.61-3.83,17.72-.29,7.33,3.33,13.94,8.46,21.94,10.15,5.89.11,11.83,0,17.72.04,3.92,0,7.9.02,11.82-.01,2.01-.65,4.03-1.64,5.91-2.61,8.85-4.11,16.55-10.84,26.17-13.2"/><path class="b" d="M11.17,108.45c2.05,1.16,4.51.67,6.75.76,7.28.41,14.43-1.51,21.1-4.31,5.75-2.33,11.49-5.17,17.72-5.86,2.85-.1,5.61-1.18,8.44-1.44,4.18-.55,8.46-.44,12.66-.52,2.23-.05,4.56-.18,6.75-.56,2.79-.73,5.68-.95,8.44.08,3.96,1.37,7.46,3.87,10.97,6.09,4.19,2.69,8.63,5.24,13.5,6.44,3.34.21,6.78.03,10.13.08,4.77,0,9.58,0,14.35,0,1.93,0,3.98,0,5.91,0,1.08-.33,2.35-.83,3.38-1.3,4.27-2.05,8.6-4.13,12.66-6.58,5.41-3.18,10.8-6.72,16.88-8.47"/><path class="b" d="M11.17,106.49c1.03.53,2.24.7,3.38.6,1.65,0,3.42,0,5.06,0,7.09.46,13.91-2.05,20.26-4.97,2.22-1.01,4.51-2.09,6.75-3.04,1.63-.74,3.53-1.2,5.06-2.13,5.61-3.26,12.07-5.01,18.57-4.69,3.65.1,7.33.59,10.97.69,2.23.14,4.53-.29,6.75-.36,4.46.22,8.27,3.03,11.82,5.48,3.77,2.68,7.57,5.52,11.82,7.43,1.59.65,3.34,1.46,5.06,1.6,2.79,0,5.65,0,8.44,0,6.46,0,12.95,0,19.41,0,1.06-.03,2.34.11,3.38-.16,2.3-.76,4.57-1.88,6.75-2.93,9.11-3.67,16.89-10.09,26.17-13.38"/><path class="b" d="M11.17,104.56c1.55.69,3.42.32,5.06.41,2.79,0,5.65,0,8.44,0,5.35-.57,10.4-2.83,15.19-5.17,1.36-.69,2.91-1.38,4.22-2.15,2.18-1.69,4.46-3.47,6.75-5.01,10.25-7.03,17.27-5.82,28.7-3.49,2.48.46,5.08.65,7.6.58,4.93.43,8.86,3.99,12.66,6.82,3.43,2.66,6.98,5.39,10.97,7.16,1.03.46,2.29.92,3.38,1.22,1.05.06,2.32.03,3.38.03,9.84,0,19.7,0,29.54,0,2.6-.74,5.13-1.97,7.6-3.05,2.83-1.16,5.75-2.32,8.44-3.78,5.91-3.08,11.49-6.93,17.72-9.34"/><path class="b" d="M11.17,102.66c1.61.38,3.42.11,5.06.19,3.07,0,6.21,0,9.28,0,1.99-.07,4.02-.82,5.91-1.42,2.58-.95,5.24-2.05,7.6-3.48,10.62-8.98,18.32-19.26,33.76-14.14,4.45,1.28,8.85,3.15,13.5,3.52,6.06.77,10.49,5.98,15.19,9.42,3.06,2.4,6.41,4.66,10.13,5.89,1.31.38,2.87.14,4.22.2,10.4,0,20.83,0,31.23,0,2.58-.71,5.11-1.85,7.6-2.82,2.82-1.01,5.75-2,8.44-3.35,6.01-2.88,11.58-6.69,17.72-9.3"/><path class="b" d="M11.17,100.73c5.05,0,10.14,0,15.19,0,2-.02,4.03-.9,5.91-1.54,2.31-.7,4.18-2.43,5.91-4.03,8.79-8.14,17.48-21.33,31.23-16.19,4.05,1.36,7.85,3.5,11.82,5.07,2.41,1.11,5.18,1.32,7.6,2.35,4.76,2.34,8.45,6.39,12.66,9.53,2.55,1.95,5.37,3.75,8.44,4.75,1.35.14,2.87.05,4.22.07,7.3,0,14.64,0,21.94,0,3.82-.11,8.07.23,11.82-.15,2.25-.65,4.53-1.55,6.75-2.29,2.82-.85,5.75-1.66,8.44-2.88,6.09-2.63,11.69-6.35,17.72-9.1"/><path class="b" d="M11.17,98.61c5.61,0,11.27,0,16.88,0,4.62-.82,7.85-4.75,10.97-7.94,7.81-8.34,16.39-21.89,29.54-15.54,4.42,1.97,8.38,4.91,12.66,7.13,2.1,1.19,4.53,1.84,6.75,2.72,5.06,2.55,8.88,7.01,13.5,10.21,2.05,1.39,4.31,2.87,6.75,3.42,1.64,0,3.42,0,5.06,0,11.53,0,23.08,0,34.61,0,2.25-.51,4.53-1.33,6.75-1.94,3.12-.74,6.32-1.48,9.28-2.73,5.84-2.33,11.21-5.72,16.88-8.4"/><path class="b" d="M11.17,96.49c5.61,0,11.27,0,16.88,0,5.77-2.36,9.58-8.06,13.5-12.65,8.57-10.5,15.91-20.08,29.54-10.02,3.67,2.54,7.14,5.49,10.97,7.78,2.38,1.53,5.28,2.22,7.6,3.85,4.35,2.97,8.06,6.92,12.66,9.52,1.01.57,2.27,1.16,3.38,1.52,1.64,0,3.42,0,5.06,0,3.92,0,7.9,0,11.82,0,5.9,0,11.83,0,17.72,0,3.06-.09,6.24.19,9.28-.13,4.72-1.36,9.71-1.79,14.35-3.44,5.89-2.02,11.29-5.25,16.88-7.93"/><path class="b" d="M11.17,94.37c4.2,0,8.46,0,12.66,0,1.69-.05,3.62.32,5.06-.78,3.73-2.31,6.59-5.88,9.28-9.28,5.1-6.15,11.08-16.75,19.41-18.28,4.8-.7,9.11,2.32,12.66,5.19,3.94,3.22,7.6,6.91,11.82,9.79,2.34,1.71,5.25,2.61,7.6,4.3,4.1,2.68,9.55,8.38,14.35,9.06,9.56-.04,19.14.09,28.7-.05,5.89-.04,11.83.12,17.72.05,1.93-.32,3.96-.79,5.91-1.01,8.79-.76,16.69-4.99,24.48-8.8"/><path class="b" d="M11.17,92.24c4.2,0,8.46,0,12.66,0,1.42.01,3.02.17,4.22-.76,3.78-2.38,6.61-6.09,9.28-9.6,5.58-6.9,13.75-22.92,24.48-18.27,5.04,2.26,8.77,6.61,12.66,10.39,2.87,2.85,5.86,5.77,9.28,7.96,1.29.85,2.89,1.52,4.22,2.29,2.02,1.2,3.99,2.71,5.91,4.06,2.09,1.47,4.35,2.94,6.75,3.85,4.19.19,8.46.02,12.66.07,3.64,0,7.34,0,10.97,0,4.17-.67,8.44-1.08,12.66-.72,3.36.29,6.74.91,10.13.72,5.35.1,10.78-.25,16.04-1.29,6.22-1.28,12-4.12,17.72-6.77"/><path class="b" d="M11.17,90.12c3.92,0,7.9,0,11.82,0,1.4-.02,3.03.21,4.22-.69,3.42-2.12,6.04-5.44,8.44-8.61,3.66-4.9,6.92-10.23,10.97-14.82,4.87-5.56,10.37-8.24,16.88-3.32,5.44,4.1,9.48,9.79,14.35,14.5,1.79,1.76,3.8,3.51,5.91,4.88,1.57,1.04,3.47,1.8,5.06,2.79,3.02,1.82,5.96,3.98,9.28,5.22,5.33.14,10.71.09,16.04-.11,2.51-.12,5.15.47,7.6-.29,4.95-1.18,10.12-1.81,15.19-1.05,3.1.3,6.18,1.37,9.28,1.51,4.76-.08,9.59.18,14.35-.13,7.1-.66,13.8-3.36,20.26-6.23"/><path class="b" d="M11.17,88c4.76-.09,9.6.19,14.35-.12,4.76-2.46,7.9-7.16,10.97-11.38,4.17-5.75,7.76-12.33,13.5-16.7,4.22-3.15,8.82-2.22,12.66,1.01,5.45,4.53,9.44,10.59,14.35,15.65,2.01,2.1,4.28,4.16,6.75,5.71,1.57.99,3.44,1.71,5.06,2.6,2.17,1.15,4.42,2.43,6.75,3.23.75,0,1.78,0,2.53,0,2.79,0,5.65,0,8.44,0,2.21-.27,4.53-.48,6.75-.54,1.35-.03,2.87,0,4.22.06,2.21-.63,4.51-1.35,6.75-1.85,4.14-.97,8.51-.94,12.66-.04,3.1.63,6.2,1.6,9.28,2.29,3.34.19,6.78.02,10.13.08,2.79-.02,5.66.05,8.44-.04,5.54-.74,10.87-2.66,16.04-4.73"/><path class="b" d="M11.17,85.88c4.49,0,9.02,0,13.5,0,9.6-4.76,15.02-20.33,23.63-27.31,6.45-5.43,12.23-1.14,16.88,4.13,6.42,7,11.38,16.11,20.26,20.32,2.51.91,4.97,2.35,7.6,2.87,1.64,0,3.42,0,5.06,0,1.93,0,3.98.02,5.91-.02,3.33-.52,6.75-.98,10.13-.99,1.44.13,2.89-.68,4.22-1.12,1.62-.6,3.39-1.19,5.06-1.61,3.85-1,7.97-.93,11.82.05,3.99.97,7.84,2.62,11.82,3.62,3.35.17,6.78.02,10.13.07,3.92-.05,7.9.1,11.82-.06,4.02-.68,7.98-1.93,11.82-3.29"/><path class="b" d="M11.17,83.76c2.79,0,5.65,0,8.44,0,1.64-.07,3.45.18,5.06-.17,10.03-5.55,14.82-21.37,24.48-27.62,7.81-4.65,14.22,4.56,18.57,9.91,5.89,7.56,11.78,16.23,21.95,17.89,2.79,0,5.65,0,8.44,0,1.35-.03,2.87.07,4.22-.08,1.93-.35,3.97-.72,5.91-.98,1.63-.28,3.45-.21,5.06-.57,1.06-.47,2.32-1.05,3.38-1.52,4.96-2.35,10.62-3.74,16.04-2.23,5.23,1.26,9.95,4.18,15.19,5.38,2.5,0,5.09,0,7.6,0,5.61-.03,11.27.07,16.88-.04,2.83-.51,5.69-1.29,8.44-2.13"/><path class="b" d="M11.17,81.64c2.79,0,5.65,0,8.44,0,1.63-.13,3.54.32,5.06-.32,9.83-5.6,14.69-21.46,24.48-26.78,6.21-3.02,11.59,3.1,15.19,7.46,3.38,4.14,6.48,8.65,10.13,12.57,3.32,3.43,7.61,7.22,12.66,7.07,3.92,0,7.9,0,11.82,0,1.97.09,3.98-.58,5.91-.9,1.91-.48,4.04-.49,5.91-1.09,3.3-1.68,6.57-3.65,10.13-4.77,6.1-2.13,12.27.08,17.72,2.91,2.99,1.44,6.04,3.08,9.28,3.85,3.92,0,7.9,0,11.82,0,4.48,0,9.02,0,13.5,0,2.54-.48,5.08-1.38,7.6-1.97"/><path class="b" d="M11.17,79.52c4.2,0,8.46,0,12.66,0,9.96-4.58,15.36-21.71,25.32-25.87,7.02-2.29,12.12,5.25,16.04,9.9,3.44,4.34,6.71,9.02,10.97,12.61,1.72,1.42,3.77,2.68,5.91,3.36,1.93,0,3.98,0,5.91,0,2.5,0,5.09,0,7.6,0,1.65-.04,3.46.16,5.06-.28,2.21-.53,4.55-.95,6.75-1.51,4.68-2.5,9.06-5.96,14.35-7.09,9.18-1.97,16.39,5.63,24.48,8.48,2.11.76,4.55.26,6.75.39,3.35,0,6.77,0,10.13,0,2.79,0,5.65,0,8.44,0,3.19-.58,6.21-2.11,9.28-3.09"/><path class="b" d="M11.17,77.4c2.79,0,5.65,0,8.44,0,1.07,0,2.31,0,3.38,0,.52.08,1.25-.1,1.69-.34,9.34-4.88,15.37-22.04,25.32-23.97,10.54-1.2,18.4,19.94,28.7,24.01.99.5,2.31.26,3.38.31,1.35,0,2.87,0,4.22,0,4.2-.02,8.46.05,12.66-.03,1.36-.3,2.87-.67,4.22-.99,3.28-1.5,6.22-3.79,9.28-5.66,9.99-6.55,16.08-4.07,25.32,2.06,1.88,1.19,3.9,2.43,5.91,3.39,1.29.57,2.77,1.36,4.22,1.23,7.58-.07,15.21.13,22.79-.07,3.5-1.09,6.79-2.91,10.13-4.38"/><path class="b" d="M11.17,75.27c2.79,0,5.65,0,8.44,0,1.36,0,2.86,0,4.22,0,.86-.09,1.82-.71,2.53-1.16,7.92-4.83,15.63-22.42,25.32-20.83,7.62,1.63,13.61,12.65,19.41,17.8,1.72,1.62,3.72,3.18,5.91,4.1,1.64.19,3.42.05,5.06.09,3.64,0,7.34,0,10.97,0,1.93-.09,4.02.22,5.91-.18,7.25-2.75,12.58-9.4,20.26-11.19,7.78-1.7,14.16,4.33,20.26,8.18,2.57,1.51,5.32,3.5,8.44,3.2,7.02-.03,14.08.05,21.1-.03,4.21-1.38,7.95-3.96,11.82-6.07"/><path class="b" d="M11.17,73.15c3.07,0,6.21,0,9.28,0,1.07,0,2.31,0,3.38,0,.52.08,1.25-.11,1.69-.35,8.96-4.18,16.88-23.14,27.85-18.44,5.96,2.86,9.74,8.71,14.35,13.21,2.4,2.27,5.41,4.09,8.44,5.39,1.32.34,2.87.12,4.22.18,1.93,0,3.98,0,5.91,0,3.35-.06,6.79.13,10.13-.09,8.92-2.99,15.25-12.89,25.32-12.29,6.94.8,12.03,6.25,17.72,9.76,1.56.99,3.33,1.94,5.06,2.56,1.35.12,2.87.04,4.22.06,6.18,0,12.39,0,18.57,0,4.99-1.65,9.13-5.13,13.5-7.92"/><path class="b" d="M11.17,71.03c4.77-.04,9.58.08,14.35-.05,10.38-4.52,18.32-24.27,31.23-13.8.92.85,2.33,1.31,3.38,1.96,1.74,1.02,3.48,2.31,5.06,3.55,3.98,3.03,7.79,6.81,12.66,8.34,5.33-.09,10.72.18,16.04-.11,10.56-3.37,18.97-17.93,31.23-12.08,5.91,2.37,14.72,12.39,20.26,12.19,7.02-.07,14.09.14,21.1-.08,5.44-1.93,9.75-6.03,14.35-9.37"/><path class="b" d="M11.17,68.91c3.36,0,6.77,0,10.13,0,1.36,0,2.86,0,4.22,0,1.13-.29,2.41-.83,3.38-1.48,6.09-3.88,10.53-10.59,17.72-12.61,8.99-4.87,16.31,2.45,22.79,7.94,2.82,2.35,5.82,4.73,9.28,6.04,2.77.27,5.66.04,8.44.11,1.06,0,2.32,0,3.38,0,1.09-.31,2.35-.81,3.38-1.3,4.01-1.95,7.48-4.93,10.97-7.65,7.18-5.78,13.59-8.93,21.94-3.03,5.74,3.78,10.29,9.61,16.88,11.98,2.5,0,5.09,0,7.6,0,4.77,0,9.58,0,14.35,0,5.92-2.02,10.42-6.69,15.19-10.52"/><path class="b" d="M11.17,66.79c3.07,0,6.21,0,9.28,0,2.25-.05,4.7.34,6.75-.83,6.15-2.88,10.68-8.2,16.04-12.23,11.67-9.28,18.92-.9,27.85,6.91,2.55,2.19,5.32,4.36,8.44,5.69,1.26.65,2.85.42,4.22.46,8.79.79,16.17-8.09,22.79-12.88,7.14-5.51,13.16-5.76,20.26,0,5.37,4.14,9.75,9.81,16.04,12.65,1.01.38,2.32.19,3.38.23,1.64,0,3.42,0,5.06,0,4.77-.04,9.59.09,14.35-.06,5.99-2.12,10.49-6.95,15.19-11.02"/><path class="b" d="M11.17,64.67c3.07,0,6.21,0,9.28,0,1.36,0,2.86,0,4.22,0,1.12-.3,2.36-.87,3.38-1.4,6.42-3.53,11.02-9.52,16.88-13.8,11.54-8.87,19.47,1.58,27.85,8.9,2.99,2.59,6.29,5.14,10.13,6.3,9.74-1.62,16.08-10.2,23.63-15.77,7.51-5.71,13.61-4.28,20.26,1.82,5.26,4.59,9.6,10.62,16.04,13.67.99.45,2.32.23,3.38.28,1.35,0,2.87,0,4.22,0,5.05,0,10.14,0,15.19,0,6.06-2.04,10.58-6.93,15.19-11.13"/><path class="b" d="M11.17,62.55c3.07,0,6.21,0,9.28,0,1.95-.09,4.12.35,5.91-.62,10.71-4.22,19.75-23.28,32.07-18.69,9.57,4.03,14.92,14.3,24.48,18.41,5.48-2,10.18-5.7,14.35-9.71,4.18-3.82,8.15-8.34,13.5-10.52,10.8-4.16,19.07,10.51,26.16,16.55,1.98,1.81,4.24,3.55,6.75,4.55,1.64.07,3.42.02,5.06.03,5.05,0,10.14,0,15.19,0,5.82.56,12.8-6.98,16.88-10.69"/><path class="b" d="M11.17,60.42c3.07,0,6.21,0,9.28,0,1.35,0,2.87,0,4.22,0,.8-.15,1.81-.59,2.53-.95,10.25-4.61,19.29-23.48,31.23-19.95,3.93,1.2,7.15,4.03,10.13,6.74,4.56,4.2,8.84,8.98,14.35,11.97,5.04-2.82,9.52-6.36,13.5-10.53,4.34-4.17,8.48-9.24,14.35-11.26,10.16-3.14,18.24,11.07,24.48,17.21,2.65,2.67,5.55,5.76,9.28,6.77,2.5,0,5.09,0,7.6,0,5.05-.08,10.16.17,15.19-.1,5.3-1.89,9.48-5.95,13.5-9.73"/><path class="b" d="M11.17,58.3c3.07,0,6.21,0,9.28,0,2.24-.09,4.73.4,6.75-.8,10.25-4.65,18.28-21.94,29.54-21.72,9.45.54,17.72,13.9,26.16,18.74,2.24-1.66,4.64-3.33,6.75-5.16,2.66-2.33,5.16-5,7.6-7.56,4.11-4.12,8.33-9.23,14.35-10.35,7.47-.83,12.54,6.24,16.88,11.27,3.48,4.24,6.8,8.79,10.97,12.39,1.49,1.25,3.25,2.44,5.06,3.16,3.35.12,6.78.01,10.13.05,4.48-.01,9.02.03,13.5-.02,4.9-1.64,8.91-5.18,12.66-8.62"/><path class="b" d="M11.17,56.18c4.77,0,9.58,0,14.35,0,10.63-3.62,16.41-16.68,26.16-22.04,6.94-3.94,13.47.59,18.57,5.31,4.14,3.74,8.04,7.91,12.66,11.08,4.7-3.32,8.8-7.57,12.66-11.82,4.38-4.53,8.71-10.31,15.19-11.7,7.54-.98,12.63,6.31,16.88,11.43,3.53,4.49,6.86,9.31,10.97,13.3,1.94,1.81,4.19,3.63,6.75,4.45,3.64,0,7.34,0,10.97,0,4.2,0,8.46,0,12.66,0,4.55-.99,8.32-4.29,11.82-7.2"/><path class="b" d="M11.17,54.06c5.05-.02,10.14.04,15.19-.02,7.12-2.78,11.77-9.37,16.88-14.73,17.47-19.97,24.48-4.3,39.67,7.11l.84-.18c1.87-1.9,4.07-3.68,5.91-5.62,3.18-3.26,6.15-6.86,9.28-10.15,8.14-8.73,14.96-11.11,23.63-1.39,6.8,7.01,14.33,22.24,23.63,24.99,6.46,0,12.95,0,19.41,0,1.64,0,3.42,0,5.06,0,3.78-.85,7.09-3.33,10.13-5.63"/><path class="b" d="M11.17,51.94c5.05,0,10.14,0,15.19,0,7.96-1.77,15.7-14.07,21.94-19.46,14.88-14.08,23.45,2.83,35.45,10.18,4.4-4.33,8.66-8.88,12.66-13.59,5.37-6.03,12.79-13.93,21.1-7.84,6.74,5.05,10.92,12.69,16.04,19.22,3.09,4,6.45,8.16,10.97,10.6,2,1.3,4.5.81,6.75.89,3.35,0,6.77,0,10.13,0,3.64,0,7.34,0,10.97,0,3.07-.51,5.86-2.39,8.44-4.05"/><path class="b" d="M11.17,49.82c5.05,0,10.14,0,15.19,0,4.07.06,9.07-5.19,11.82-7.96,7.8-7.95,16.78-22.65,29.54-15.05,5.82,3.33,10.5,8.33,16.04,12.06,1-.29,1.8-1.48,2.53-2.15,1.41-1.38,2.91-3,4.22-4.47,4.78-5.21,9-11.35,15.19-14.99,9.5-5.33,16.98,5.69,21.95,12.36,4.43,5.99,8.47,12.57,14.35,17.27,1.5,1.15,3.28,2.2,5.06,2.83,1.05.15,2.32.07,3.38.09,3.35,0,6.77,0,10.13,0,3.92,0,7.9,0,11.82,0,.74,0,1.79,0,2.53,0,2.04-.56,4.07-1.52,5.91-2.55"/><path class="b" d="M11.17,47.7c5.61,0,11.27,0,16.88,0,3.26-.88,5.99-3.32,8.44-5.55,4.42-4.21,8.21-9.13,12.66-13.31,5.27-5.08,11.46-8.16,18.57-4.66,6.16,2.95,11.07,7.94,16.88,11.47,4.12-4.16,7.95-8.69,11.82-13.09,5.17-5.77,12.33-12.77,20.26-7.3,6.8,4.82,11.02,12.38,16.04,18.87,3.56,4.69,7.36,9.64,12.66,12.44.72.37,1.76.81,2.53,1.06,1.64.14,3.42.04,5.06.07,3.35,0,6.77,0,10.13,0,3.35,0,6.77,0,10.13,0,1.35,0,2.87.02,4.22-.02,1.08-.31,2.35-.77,3.38-1.22"/><path class="b" d="M11.17,45.58c5.05,0,10.14,0,15.19,0,1.4.01,2.98.14,4.22-.65,4.29-2.18,7.7-5.79,10.97-9.24,8.69-9.24,16.86-19.92,30.39-11.61,2.89,1.66,5.67,3.67,8.44,5.51,1.61.94,3.23,2.38,5.06,2.82,4.42-4.41,8.33-9.39,12.66-13.88,5.46-5.71,12.06-10.19,19.41-4.59,10.84,8.28,16.37,24.32,28.7,30.62.73.34,1.76.74,2.53.96,1.35.1,2.87.04,4.22.05,2.5,0,5.09,0,7.6,0,4.2,0,8.46,0,12.66,0,2.48-.12,5.17.26,7.6-.2"/><path class="b" d="M11.17,43.45c5.33,0,10.7,0,16.04,0,.76,0,1.78,0,2.53,0,.8-.24,1.81-.73,2.53-1.14,3.85-2.2,7.05-5.47,10.13-8.6,8.87-9.14,16.89-18.59,30.39-11.14,2.86,1.47,5.65,3.25,8.44,4.85,1.61.8,3.26,2.09,5.06,2.34,4.92-4.87,9.14-10.51,14.35-15.08,6.09-5.42,12.17-6.38,18.57-.81,10.02,8.47,16.21,24.01,28.7,28.99,1.56.72,3.39.59,5.06.58,2.22,0,4.54,0,6.75,0,7.02,0,14.08,0,21.1,0"/><path class="b" d="M11.17,41.33c6.18,0,12.39,0,18.57,0,3.5-.16,8.38-4.72,10.97-7.04,9.05-8.46,17.49-19.5,31.23-13.49,5.16,2.04,9.87,5.27,15.19,6.9,6.17-5.79,12.78-15.71,21.1-17.95,5.6-1.38,10.66,2.48,14.35,6.26,8.32,8.22,14.64,20.8,26.16,24.8,1.58.64,3.4.52,5.06.52,2.5,0,5.09,0,7.6,0,6.46-.05,12.96.12,19.41-.08"/><path class="b" d="M11.17,39.21c6.46,0,12.95,0,19.41,0,4.41-.51,10.14-6.15,13.5-9.05,9.09-8.35,16.71-14.76,29.54-9.57,4.76,1.77,9.35,4.22,14.35,5.26,7.78-6.13,16.19-20.46,27.85-15.32,4.73,2.21,8.35,6.24,11.82,10.03,6.01,6.57,11.65,14.4,20.26,17.67,1.03.38,2.3.73,3.38.95,1.05.06,2.32.03,3.38.04,2.22,0,4.54,0,6.75,0,6.46-.06,12.97.22,19.41-.35"/><path class="b" d="M11.17,37.09c7.02-.06,14.09.12,21.1-.07,10.82-4.29,17.68-15.93,29.54-18.06,5.77-1.02,11.49,1.01,16.88,2.88,3.53,1.1,7.23,2.61,10.97,2.41,11.36-10.73,20.05-21.77,34.6-7.83,7.94,7.18,14.51,17.1,25.32,20.1,1.88.62,3.95.61,5.91.57,2.22,0,4.54,0,6.75,0,3.64,0,7.34,0,10.97,0,2.51-.13,5.09-.44,7.6-.6"/><path class="b" d="M11.17,34.97c7.02,0,14.08,0,21.1,0,1.47-.12,2.92-1,4.22-1.64,2.64-1.43,5.17-3.25,7.6-5,6.61-4.94,14.12-10.14,22.79-9.33,7.74.5,14.96,4.43,22.79,4.19,1.39.21,2.44-1.05,3.38-1.87,1.34-1.2,2.85-2.54,4.22-3.7,4.28-3.57,9.33-7.34,15.19-7.01,10.9.79,19.94,15.05,29.54,20.5,3.31,2.02,7.1,3.44,10.97,3.86,2.79,0,5.65,0,8.44,0,3.64,0,7.34,0,10.97,0,2.78-.28,5.65-.58,8.44-.8"/><path class="b" d="M11.17,32.85c7.02,0,14.08,0,21.1,0,3.64.04,9.43-4.16,12.66-6.05,6.51-4.27,13.92-8.09,21.94-7.34,8.47.57,16.76,4.47,25.32,2.62.93-.18,1.81-1.11,2.53-1.66,1.33-1.08,2.84-2.28,4.22-3.3,4.13-3.06,9.02-5.91,14.35-5.5,10.92,1.01,19.58,13.43,29.54,18.17,3.14,1.61,6.63,2.65,10.13,3.06,2.79,0,5.65,0,8.44,0,3.35,0,6.77,0,10.13,0,3.07-.31,6.21-.71,9.28-.93"/><path class="b" d="M11.17,30.73c6.74,0,13.52,0,20.26,0,.76,0,1.77,0,2.53,0,2.34-.55,4.6-1.69,6.75-2.74,10.2-5.44,17.51-9.59,29.54-7.64,8.84,1.35,16.58,3.71,25.32.06,5.44-3.9,11.54-8.27,18.57-7.71,5.33.43,10.04,3.42,14.35,6.37,4.88,3.38,9.67,7.1,15.19,9.38,2.67,1.11,5.57,1.85,8.44,2.22,2.78.14,5.66.02,8.44.06,3.64-.02,7.34.04,10.97-.03,3.06-.39,6.21-.75,9.28-.97"/><path class="b" d="M11.17,28.61c5.33,0,10.7,0,16.04,0,1.65,0,3.42,0,5.06,0,1.07-.04,2.36.15,3.38-.26,5.19-1.63,10.03-4.3,15.19-6.03,5.39-1.91,11.22-2.44,16.88-1.78,18.09,2.45,20.18,3.85,37.14-4.85,3.93-1.72,8.38-2.48,12.66-2.13,3.62.4,7.06,1.99,10.13,3.9,2.91,1.74,5.56,4.06,8.44,5.84,4.19,2.36,8.74,4.25,13.5,5.03,1.91.4,3.97.26,5.91.28,2.79,0,5.65,0,8.44,0,2.5-.03,5.1.07,7.6-.05,3.06-.4,6.2-.75,9.28-.94"/><path class="b" d="M11.17,26.48c8.15-.08,16.34.15,24.48-.09,4.84-1.28,9.5-3.32,14.35-4.57,5.48-1.5,11.26-1.72,16.88-1.06,10.57,1.22,19.43,3.65,29.54-1.39,3.99-1.81,7.8-4.12,11.82-5.88,7.66-3.54,14.24-2.6,21.1,2.16,3.17,2.12,6.18,4.62,9.28,6.83,1.02.73,2.29,1.56,3.38,2.19,1.31.51,2.85.89,4.22,1.2,2.18.56,4.51.68,6.75.61,2.5,0,5.09,0,7.6,0,3.35,0,6.77,0,10.13,0,3.35-.29,6.76-.8,10.13-.91"/><path class="b" d="M11.17,24.36c8.15-.08,16.34.17,24.48-.1,4.82-.88,9.5-2.62,14.35-3.4,5.56-1.01,11.29-.79,16.88-.08,11.87,1.5,21.07,3.4,32.07-2.87,3.68-1.94,7.22-4.28,10.97-6.08,7.27-3.67,13.65-2.85,20.26,1.76,3.18,2.13,6.17,4.68,9.28,6.91,2.08,1.41,4.29,3.05,6.75,3.69,2.48.35,5.1.08,7.6.16,4.48,0,9.02,0,13.5,0,4.51.19,9-.72,13.5-.78"/><path class="b" d="M11.17,22.24c7.59,0,15.2,0,22.79,0,4.22-.75,8.38-2.15,12.66-2.56,6.17-.39,12.43-.27,18.57.54,10.03,1.14,20.76,3.15,30.39-.91,5.08-2.08,9.57-5.4,14.35-8.06,6.53-3.8,12.78-4.55,19.41-.47,5.85,3.39,10.58,8.64,16.88,11.27,1.89.42,3.98.1,5.91.19,3.64,0,7.34,0,10.97,0,2.79,0,5.65,0,8.44,0,3.06-.29,6.2-.59,9.28-.6"/></svg>