<?xml version="1.0" encoding="UTF-8"?><svg id="a" xmlns="http://www.w3.org/2000/svg" width="1920" height="2400" viewBox="0 0 192 240"><defs><style>.b{fill:none;stroke:#fff;stroke-miterlimit:10;stroke-width:.3px;}.c{stroke-width:0px;}</style></defs><rect class="c" x="0" width="192" height="240"/><path class="b" d="M12.66,230.32c2.72-.51,5.56-.17,8.29-.5,5.31-.6,10.31-2.81,14.93-5.41,6.05-3.29,11.99-7.73,19.07-8.25,12.9-.54,20.73,12.39,32.34,15.82,16.3.05,32.62,0,48.93.02,3.57,0,7.21,0,10.78,0,3.32.12,6.69-.16,9.95-.79,8.64-1.5,15.43-7.47,22.39-12.35"/><path class="b" d="M12.66,227.8c2.74-.36,5.55.15,8.29-.03,4.59-.27,9.08-1.66,13.27-3.51,6.56-2.81,12.73-7.04,19.9-8.12,11.6-1.75,20.14,7.95,29.85,12.45,1.01.46,2.25.95,3.32,1.27,1.33.08,2.82.03,4.15.04,3.02,0,6.11,0,9.12,0,9.11,0,18.25,0,27.37,0,6.62-.01,13.28.03,19.9-.02,4.71-.72,9.57-1.06,14.1-2.63,6.26-2.12,11.71-6.01,17.42-9.23"/><path class="b" d="M12.66,225.39c2.2-.13,4.45.26,6.63.44,2.47.14,5.03-.07,7.46-.49,9.31-1.47,17.37-6.99,26.54-8.95,7.7-1.74,15.07,1.34,21.56,5.25,4,2.28,8,4.83,12.44,6.17,7.45.03,14.94,0,22.39.01,7.45,0,14.94,0,22.39,0,4.4-.11,8.89.23,13.27-.16,5.23-.91,10.61-1.3,15.76-2.61,6.39-1.7,12.22-4.98,18.24-7.61"/><path class="b" d="M12.66,223.11c3.32.11,6.61,1.15,9.95,1.04,10.5.15,19.91-4.86,29.85-7.37,6.06-1.54,12.53-.92,18.24,1.57,5.35,2.17,10.26,5.42,15.76,7.24,1.3.32,2.82.12,4.15.17,1.9,0,3.91,0,5.81,0,6.07,0,12.17,0,18.24,0,5.79,0,11.62,0,17.42,0,3.85-.1,7.8.31,11.61-.4,3.02-.47,6.1-1.03,9.12-1.45,2.74-.35,5.59-.58,8.29-1.2,6.24-1.31,12.18-3.77,18.24-5.68"/><path class="b" d="M12.66,220.96c3.59.46,7.13,1.67,10.78,1.62,5.31.12,10.63-.72,15.76-2.03,4.98-1.25,9.88-2.97,14.93-3.96,6.36-1.38,13.04-.73,19.07,1.68,4.46,1.66,8.71,3.99,13.27,5.38,8.56.05,17.15,0,25.71.02,5.79,0,11.62,0,17.42,0,3.57-.11,7.25.29,10.78-.32,3.85-.61,7.74-1.41,11.61-1.91,3.01-.38,6.12-.46,9.12-.95,6.14-.9,12.17-2.56,18.24-3.79"/><path class="b" d="M12.66,218.95c2.76.52,5.49,1.55,8.29,1.87,4.67.55,9.44.31,14.1-.27,7.29-.87,14.33-3.2,21.56-4.38,7.28-1.33,14.75-.06,21.56,2.68,2.45.91,4.96,1.92,7.46,2.66,2.73.15,5.56.02,8.29.06,6.35,0,12.73,0,19.07,0,7.73-.03,15.49.06,23.22-.03,3.59-.53,7.21-1.27,10.78-1.88,4.91-.98,9.96-.88,14.93-1.3,5.81-.5,11.62-1.36,17.42-1.97"/><path class="b" d="M12.66,217.07c2.73.73,5.47,1.79,8.29,2.15,3.27.48,6.66.21,9.95.27,9.55.2,18.81-2.57,28.2-3.87,5.52-.76,11.21-.44,16.59,1.07,3.05.81,6.08,1.92,9.12,2.76,1.9.09,3.91.02,5.81.04,14.64-.05,29.31.1,43.95-.06,5.53-.81,11.01-2.19,16.59-2.72,3.56-.33,7.21-.07,10.78-.18,5.79-.09,11.62-.35,17.42-.53"/><path class="b" d="M12.66,215.29c2.16.71,4.4,1.56,6.63,2.01,4.11.26,8.31.03,12.44.1,4.4-.1,8.88.22,13.27-.17,6.09-.68,12.13-2.04,18.24-2.55,3.57-.29,7.24-.19,10.78.41,3.35.52,6.65,1.58,9.95,2.31,8.84,0,17.7,0,26.54,0,7.45,0,14.94.02,22.39,0,5.26-.75,10.48-2.03,15.76-2.63,4.4-.57,8.86-.08,13.27.11,5.79.28,11.62.48,17.42.6"/><path class="b" d="M12.66,213.59c1.6.61,3.33,1.23,4.98,1.68,1.9.13,3.91.03,5.81.06,4.13,0,8.31,0,12.44,0,2.46.04,5-.12,7.46-.1,2.74.06,5.55.15,8.29.09,6.06-.67,12.13-1.82,18.24-1.72,2.76.04,5.58.37,8.29.87,1.62.23,3.33.84,4.98.85,12.99,0,25.99,0,38.98,0,3.57-.09,7.23.2,10.78-.14,5.52-.82,11.01-2.16,16.59-2.54,4.14-.33,8.32.31,12.44.68,5.78.58,11.61,1.07,17.42,1.34"/><path class="b" d="M12.66,211.93c1.31.49,2.74,1.17,4.15,1.31,2.18,0,4.45,0,6.63,0,4.68-.07,9.42.16,14.1-.15,3.86-.3,7.76.07,11.61.15,3.3,0,6.66,0,9.95,0,2.18-.22,4.45-.47,6.63-.63,3.29-.25,6.66-.29,9.95.02,2.19.17,4.43.72,6.63.61,10.22,0,20.46,0,30.68,0,6.34-.05,12.73.11,19.07-.06,5.79-.8,11.56-2.16,17.42-2.38,3.88-.19,7.78.46,11.61.97,6.04.79,12.14,1.65,18.24,1.48"/><path class="b" d="M12.66,210.29c1.29.59,2.72,1.02,4.15.87,1.9,0,3.91,0,5.81,0,3.3,0,6.66,0,9.95,0,3.29-.32,6.65-.56,9.95-.42,1.9.07,3.91.24,5.81.42,2.46,0,5,0,7.46,0,5.24,0,10.52.06,15.76-.16,16.3.34,32.62.09,48.93.16,4.12-.09,8.33.2,12.44-.14,5.5-.75,11.02-1.86,16.59-1.91,5.57-.07,11.07,1.3,16.59,1.9,4.39.35,8.87.05,13.27.15"/><path class="b" d="M12.66,208.62c1.26.63,2.79.42,4.15.45,1.9,0,3.91,0,5.81,0,2.74-.01,5.55.03,8.29-.02,2.17-.29,4.44-.53,6.63-.61,3.58-.14,7.22.17,10.78.6,2.74.09,5.55.01,8.29.04,22.11,0,44.23,0,66.34,0,3.57-.08,7.22.16,10.78-.12,4.94-.62,9.93-1.41,14.93-1.43,4.73-.08,9.42.95,14.1,1.54,5.52,0,11.07,0,16.59,0"/><path class="b" d="M12.66,206.91c5.23.22,10.52.02,15.76.08,3.84-.3,7.73-1.09,11.61-.86,3.04.06,6.11.51,9.12.86,5.24,0,10.52,0,15.76,0,12.71,0,25.44,0,38.15,0,10.5,0,21.02,0,31.51,0,4.4-.42,8.84-.99,13.27-.97,3.88-.11,7.76.69,11.61.97,6.62,0,13.28,0,19.9,0"/><path class="b" d="M12.66,204.9c4.96,0,9.97,0,14.93,0,3.57-.37,7.17-1.17,10.78-1.07,3.6,0,7.23.52,10.78,1.05,4.41.06,8.86,0,13.27.02,16.86,0,33.73,0,50.59,0,10.78-.07,21.58.25,32.34-.38,3.3-.14,6.66.25,9.95.38,8.01,0,16.04,0,24.05,0"/><path class="b" d="M12.66,202.82c4.96,0,9.97,0,14.93,0,3.27-.62,6.62-1.18,9.95-1.21,3.88-.07,7.79.53,11.61,1.14,2.17.18,4.46.03,6.63.08,41.19,0,82.38,0,123.57,0"/><path class="b" d="M12.66,200.74c4.96-.03,9.97.06,14.93-.03,3.53-.7,7.17-1.3,10.78-1.27,3.89,0,7.78.68,11.61,1.29,2.74.01,5.55,0,8.29,0,11.33,0,22.67,0,34,0,4.13,0,8.31,0,12.44,0,2.46-.15,5-.36,7.46-.33,2.46,0,5.01.16,7.46.33,6.07,0,12.17,0,18.24,0,13.82,0,27.65,0,41.47,0"/><path class="b" d="M12.66,198.65c4.96,0,9.97,0,14.93,0,3.54-.65,7.16-1.32,10.78-1.3,3.89-.03,7.78.61,11.61,1.23,4.12.19,8.31.02,12.44.07,12.71,0,25.44,0,38.15,0,3.86.09,7.74-.65,11.61-.57,3.31-.04,6.66.34,9.95.57,4.68,0,9.41,0,14.1,0,14.37,0,28.75,0,43.12,0"/><path class="b" d="M12.66,196.57c5.24,0,10.52,0,15.76,0,3.54-.64,7.17-1.25,10.78-1.23,4.17-.08,8.31.85,12.44,1.23,11.33,0,22.67,0,34,0,5.52,0,11.07,0,16.59,0,6.04-.77,12.18-1,18.24-.28,4.38.54,8.86.19,13.27.28,6.9,0,13.83,0,20.73,0,4.68,0,9.41,0,14.1,0,2.18-.01,4.46.03,6.63-.03,1.33-.25,2.82-.56,4.15-.83"/><path class="b" d="M12.66,194.48c5.52,0,11.07,0,16.59,0,4.11-.57,8.28-1.22,12.44-1.05,3.32.1,6.67.58,9.95,1.03,8.01.04,16.04,0,24.05.02,8.84,0,17.7,0,26.54,0,3.56-.4,7.19-.83,10.78-.79,3.87-.05,7.76.54,11.61.79,8.84,0,17.7,0,26.54,0,6.35,0,12.73,0,19.07,0,3.09-.06,6.12-1.32,9.12-1.96"/><path class="b" d="M12.66,192.4c5.24,0,10.52,0,15.76,0,2.46-.22,4.98-.69,7.46-.7,3.3,0,6.66-.24,9.95.05,2.19.14,4.45.45,6.63.65,3.02,0,6.1,0,9.12,0,6.9,0,13.83,0,20.73,0,6.62,0,13.28,0,19.9,0,4.95-.34,9.95-1.04,14.93-.65,3.3.13,6.64.76,9.95.65,7.73,0,15.49,0,23.22,0,6.07-.05,12.18.1,18.24-.06,3.63-.78,7.21-2.01,10.78-2.99"/><path class="b" d="M12.66,190.31c4.96,0,9.97,0,14.93,0,1.91-.04,3.89-.56,5.81-.64,2.74-.22,5.56-.13,8.29.16,3.58-.03,7.21.2,10.78.48,11.05,0,22.12,0,33.17,0,6.07,0,12.17,0,18.24,0,4.4-.26,8.85-.84,13.27-.58,2.75.07,5.55.43,8.29.58,8.01,0,16.04,0,24.05,0,3.57,0,7.21,0,10.78,0,1.89-.07,3.94.18,5.81-.15,4.49-.96,8.84-2.63,13.27-3.83"/><path class="b" d="M12.66,188.23c4.96,0,9.97,0,14.93,0,3.27-.53,6.63-.96,9.95-.81,2.48.04,5,.5,7.46.69,8.28.17,16.59.12,24.88.12,7.18,0,14.38,0,21.56,0,3.03.11,6.1-.46,9.12-.58,5.79-.41,11.62.18,17.42.14,2.46.05,5.01.27,7.46.44,2.18,0,4.46,0,6.63,0,10.22-.07,20.47.13,30.68-.07,5.64-1.03,11.02-3.22,16.59-4.56"/><path class="b" d="M12.66,186c1.59.3,3.36.08,4.98.15,3.02,0,6.1,0,9.12,0,4.09-.7,8.29-1.19,12.44-.75,1.91.17,3.91.46,5.81.74,2.18.02,4.45,0,6.63.01,5.79,0,11.62,0,17.42,0,6.35,0,12.73,0,19.07,0,3.86-.52,7.72-1.45,11.61-1.81,7.18-.82,14.43-.09,21.56.83,2.73.34,5.55.68,8.29.94,2.74.1,5.56.01,8.29.04,6.62,0,13.28,0,19.9,0,7.39-.4,14.31-3.69,21.56-4.96"/><path class="b" d="M12.66,183.28c.75.25,1.73.58,2.49.78.75,0,1.74,0,2.49,0,2.18,0,4.45,0,6.63,0,2.5.13,4.98-.69,7.46-.85,3.3-.33,6.68-.09,9.95.39,4.08.79,8.31.37,12.44.47,6.35,0,12.73,0,19.07,0,2.46,0,5,0,7.46,0,1.62-.04,3.39.15,4.98-.22,4.68-1.09,9.33-2.58,14.1-3.29,7.44-1.25,15.03-.34,22.39,1.02,7.39,1.31,14.86,2.73,22.39,2.49,4.41-.11,8.9.33,13.27-.39,7.27-1.04,14.26-3.65,21.56-4.56"/><path class="b" d="M12.66,180.44c1.33.51,2.79,1.08,4.15,1.5,1.33.05,2.81.02,4.15.03,1.33,0,2.81,0,4.15,0,1.91-.26,3.89-.75,5.81-.92,4.14-.48,8.35.03,12.44.74,2.15.36,4.46.11,6.63.18,3.85,0,7.76,0,11.61,0,3.85,0,7.76,0,11.61,0,2.46-.06,5.02.15,7.46-.15,6.6-.77,12.57-4.16,19.07-5.43,7.4-1.74,15.1-.82,22.39.98,11.33,2.83,23.11,5.5,34.83,3.72,7.48-1.07,14.81-3.35,22.39-3.72"/><path class="b" d="M12.66,177.53c2.68,1.02,5.33,2.69,8.29,2.36,1.62-.03,3.39.15,4.98-.28,2.7-.58,5.53-.99,8.29-.94,3.33.02,6.68.66,9.95,1.22,5.24,0,10.52,0,15.76,0,8.58-.14,17.5.81,25.71-2.27,4.67-1.92,9.23-4.26,14.1-5.66,7.31-2.32,15.17-1.5,22.39.76,11.22,3.55,22.9,7.61,34.83,5.68,7.42-1.04,14.86-2.66,22.39-2.47"/><path class="b" d="M12.66,174.6c2.19.9,4.39,2.04,6.63,2.8,2.4.84,5.06.34,7.46-.22,2.43-.5,4.99-.78,7.46-.7,3.34.05,6.66.87,9.95,1.33,4.96,0,9.97,0,14.93,0,3.85,0,7.76,0,11.61,0,4.78-.47,9.65-1.21,14.1-3.11,5.01-2.34,9.73-5.41,14.93-7.34,7.35-2.99,15.08-2.42,22.39.36,10.71,4.06,21.35,9.48,33.17,8.24,7.97-.94,16.02-1.98,24.05-1.25"/><path class="b" d="M12.66,171.71c3.53,1.34,6.94,3.7,10.78,3.96,2.97-.73,6.05-1.38,9.12-1.4,3.62-.05,7.24.71,10.78,1.41,2.74.11,5.55.02,8.29.05,3.85,0,7.76,0,11.61,0,2.46-.08,5.03.19,7.46-.17,2.45-.56,5.06-.78,7.46-1.52,4.84-1.24,9.13-3.92,13.27-6.61,5.78-3.65,12.04-7.44,19.07-7.55,11.29-.05,20.34,8,30.68,11.37,3.45,1.2,7.12,2,10.78,2.17,3.3.14,6.65-.41,9.95-.51,5.8-.3,11.66-.06,17.42.68"/><path class="b" d="M12.66,168.92c3.84,1.4,7.48,3.91,11.61,4.31,2.42-.6,4.97-1.08,7.46-1.14,3.91-.12,7.8.78,11.61,1.55,1.62,0,3.36,0,4.98,0,4.41,0,8.86,0,13.27,0,2.45-.09,5.03.19,7.46-.14,1.9-.45,3.89-.98,5.81-1.34,2-.2,3.99-.86,5.8-1.7,9.91-4.31,17.21-13.96,28.2-15.87,12.57-1.89,22.81,9.8,34,13.95,3.15,1.26,6.55,2.14,9.95,2.36,2.74.15,5.55-.16,8.29-.08,6.11.04,12.21.8,18.24,1.68"/><path class="b" d="M12.66,166.28c3.36,1.14,6.52,3,9.95,3.95,1.03.29,2.26.79,3.32.38,2.42-.53,4.99-.8,7.46-.67,3.36.13,6.66,1.06,9.95,1.61,4.13,0,8.31,0,12.44,0,3.85-.01,7.76.02,11.61-.01,1.63-.41,3.36-.94,4.98-1.38,1.86-.54,3.88-.91,5.81-1.15,1.98-.85,3.99-1.93,5.8-3.09,9.09-5.64,17.58-17.18,29.03-17.01,6.28.26,11.66,4.1,16.59,7.64,4.77,3.48,9.5,7.2,14.93,9.61,2.61,1.16,5.45,2.01,8.29,2.35,2.45.27,5.01.09,7.46.3,2.73.32,5.55,0,8.29.2,3.6.21,7.23.81,10.78,1.45"/><path class="b" d="M12.66,163.85c3.39.96,6.55,2.73,9.95,3.66,1.31.28,2.8,1.08,4.15.74,2.15-.41,4.45-.57,6.63-.43,3.36.14,6.64,1.22,9.95,1.65,4.68,0,9.41,0,14.1,0,3.02-.01,6.11.02,9.12-.02,2.49-.66,4.98-1.6,7.46-2.28,1.58-.44,3.34-.73,4.98-.84,3.26-1.7,6.33-3.91,9.12-6.29,7.54-6.04,15.95-17.39,26.54-16.34,6.18.78,11.14,5.1,15.76,8.94,4.94,4.2,9.84,8.72,15.76,11.52,2.08.98,4.37,1.74,6.63,2.13,1.88.34,3.91.31,5.81.51,2.16-.36,4.44-.63,6.63-.68,4.73-.13,9.48.66,14.1,1.63"/><path class="b" d="M12.66,161.64c2.26.47,4.47,1.41,6.63,2.19,2.14.74,4.43,1.36,6.63,1.86,1.87.55,3.9-.19,5.81-.04,2.78.03,5.59.56,8.29,1.17,3.22.93,6.65.47,9.95.57,5.24,0,10.52,0,15.76,0,4.69-1.15,9.16-3.68,14.1-3.62,5.64-3.39,10.38-8.09,14.93-12.78,5.02-4.91,10.14-11.02,17.42-12.24,15.05-1.76,25.19,24.42,43.12,25.91,1.35.24,2.82-.36,4.15-.57,1.6-.31,3.35-.54,4.98-.65,5.01-.36,10.06.46,14.93,1.59"/><path class="b" d="M12.66,159.68c2.25.32,4.48,1.12,6.63,1.78,2.43.71,4.98,1.28,7.46,1.76,2.73.71,5.51.1,8.29.61,2.77.27,5.52,1.35,8.29,1.47,6.62,0,13.28,0,19.9,0,2.61.27,5.07-.95,7.46-1.81,3.16-1.21,6.52-2.34,9.95-2.14,5.33-3.55,9.88-8.18,14.1-12.97,5.27-5.55,11.54-14.31,19.9-14.32,9.36.41,17.52,13.09,24.05,19.15,4.4,4.29,10.2,9.19,16.59,9.49,8.06-2.55,15.9-2.54,24.05-.36"/><path class="b" d="M12.66,157.95c3.64.33,7.16,1.65,10.78,2.17,4.11.72,8.3,1.28,12.44,1.8,2.73.51,5.54.93,8.29,1.29,6.9,0,13.83,0,20.73,0,5.53-1.27,10.69-4.78,16.59-4.12,5.03-3.57,9.37-8.08,13.27-12.83,5.3-5.92,12.59-17.37,21.56-16.2,7.18,1.39,12.03,8.41,16.59,13.6,3.83,4.59,7.66,9.4,12.44,13.06,1.99,1.51,4.27,2.83,6.63,3.66.4.14,1.25.4,1.66.51.42-.05,1.26-.23,1.66-.37,8.07-2.71,15.82-3.05,24.05-.8"/><path class="b" d="M12.66,156.44c3.34.07,6.64,1.04,9.95,1.36,4.96.58,9.98.95,14.93,1.66,3.59.47,7.2,1.18,10.78,1.68,4.68,0,9.41,0,14.1,0,.74,0,1.75,0,2.49,0,1.97-.36,3.93-1.27,5.81-1.95,2.39-.92,4.91-1.85,7.46-2.15,1.33-.19,2.82,0,4.15,0,5.13-3.7,9.44-8.46,13.27-13.46,5.06-5.99,12.56-18.65,21.56-17.01,6.9,1.7,11.49,8.85,15.76,14.07,3.83,4.94,7.6,10.14,12.44,14.16,1.73,1.42,3.74,2.72,5.81,3.6,1.03.52,2.2.83,3.32.33,8.53-2.92,16.04-3.92,24.88-1.55"/><path class="b" d="M12.66,155.09c3.32-.11,6.64.62,9.95.72,5.24.26,10.54.3,15.76.93,4.45.5,8.87,1.46,13.27,2.28,2.74.05,5.56,0,8.29.02,2.47-.09,5.12.36,7.46-.64,3.8-1.28,7.56-3.11,11.61-3.37,1.34-.15,2.82.26,4.15.14,5.27-3.73,9.48-8.75,13.27-13.92,4.69-5.85,11.59-18.04,19.9-17.83,7.26.66,12.48,9.28,16.59,14.59,3.37,4.64,6.7,9.48,10.78,13.53,1.84,1.8,7.39,6.56,9.95,5.55,9.02-2.97,16.2-4.72,25.71-2.33"/><path class="b" d="M12.66,153.87c3.57-.24,7.2.29,10.78.13,6.07-.14,12.2-.53,18.24.29,4.47.55,8.87,1.74,13.27,2.67,2.46.03,5,0,7.46.01,1.33-.07,2.87.2,4.15-.24,3.04-.9,6.03-2.19,9.12-2.93,2.41-.58,5.04-.72,7.46-.14,1.27-.1,2.31-1.36,3.32-2.03,2.81-2.23,5.26-5.05,7.46-7.88,5.44-6.56,12.03-19.39,19.9-22.31,9.39-3.19,17.59,12.9,22.39,19.13,4.07,5.66,8.39,11.82,14.93,14.77.67.47,1.76.28,2.49.03.73-.2,1.76-.5,2.49-.74,2.16-.69,4.43-1.39,6.63-1.92,5.41-1.36,11.14-1.43,16.59-.2"/><path class="b" d="M12.66,152.7c3.84-.35,7.77-.03,11.61-.47,7.15-.68,14.43-1.68,21.56-.31,3.91.67,7.76,1.9,11.61,2.84,2.16.28,4.46.06,6.63.12,2.87.25,5.59-1.08,8.29-1.84,3.71-1.19,7.79-1.89,11.61-.8,8.72-4.33,14.76-16.53,20.73-24.09,10.14-13.76,16.88-10.61,25.71,2.1,5.9,7.97,11.82,20.38,21.56,23.85,3.64-.77,7.17-2.14,10.78-3.02,5.39-1.43,11.1-1.78,16.59-.7"/><path class="b" d="M12.66,151.51c4.13-.41,8.34-.3,12.44-1.02,6.03-.89,12.11-2.33,18.24-1.89,3.95.24,7.85,1.28,11.61,2.48,2.7.81,5.42,2,8.29,1.72,1.33-.02,2.82.05,4.15-.05,1.62-.4,3.36-.91,4.98-1.34,4.02-1.15,8.38-1.7,12.44-.45,6.6-3.49,10.78-10.08,14.93-16.05,3.75-5.34,7.15-11.34,12.44-15.32,14.67-10.47,23.96,27.91,38.98,32.71,1.32.4,2.84-.32,4.15-.57,2.46-.69,4.99-1.47,7.46-2.12,5.37-1.47,11.06-2.09,16.59-1.19"/><path class="b" d="M12.66,150.23c4.13-.4,8.36-.44,12.44-1.31,5.52-1.03,10.96-2.81,16.59-3.15,6.95-.59,13.48,2.21,19.9,4.45,1.54.67,3.33.48,4.98.5,2.81.15,5.54-1.01,8.29-1.42,2.15-.4,4.45-.59,6.63-.39,1.35.07,2.8.57,4.15.61,11.87-6.04,16.52-22.25,26.54-30.54,14.32-11.34,23.53,25.38,37.32,31.04,1.78,1.06,3.91.66,5.8.16,2.19-.53,4.46-1.18,6.63-1.77,5.64-1.57,11.56-2.58,17.42-1.85"/><path class="b" d="M12.66,148.63c4.44.01,8.94-.4,13.27-1.4,4.74-1.07,9.34-2.83,14.1-3.79,4.38-.93,9-.76,13.27.58,2.81.84,5.58,2.07,8.29,3.16,1.58.54,3.27,1.51,4.98,1.45,1.04,0,2.28,0,3.32,0,1.91-.24,3.89-.71,5.81-.92,2.45-.32,5.02-.35,7.46.02.75.11,1.75.31,2.49.47,1.48-.23,2.91-1.21,4.15-2.02,9.7-6.41,17.48-28.2,27.37-29.94,6.41-.63,10.78,6.62,14.1,11.13,3.01,4.4,5.84,9.08,9.12,13.29,2.51,3.06,6.59,7.85,10.78,7.97,1.33,0,2.82,0,4.15,0,2.76-.54,5.56-1.3,8.29-1.98,2.98-.74,6.06-1.41,9.12-1.71,1.6-.24,3.4,0,4.98-.37.38-.32,1.27-.95,1.66-1.28"/><path class="b" d="M12.66,146.54c3.02-.03,6.11.07,9.12-.05,6.92-.84,13.22-4.09,19.9-5.82,4.35-1.13,9.02-.99,13.27.5,3.98,1.31,7.69,3.45,11.61,4.92,1,.46,2.25.49,3.32.45,2.48.12,5-.28,7.46-.44,3.04-.3,6.1.39,9.12.44,11.83-2.52,18.53-24.89,29.03-30.09,7.47-3.15,12.85,6.07,16.59,11.13,4.7,6.52,9.03,15.3,16.59,18.81,2.99.35,6.11.05,9.12.14,5.53-1,10.97-2.72,16.59-3.18,1.7-1.27,3.4-2.82,4.98-4.24"/><path class="b" d="M12.66,144.46c3.85,0,7.76,0,11.61,0,6.42-.95,12.12-4.39,18.24-6.34,4.56-1.54,9.61-1.52,14.1.25,4.56,1.66,8.67,4.48,13.27,6.05,2.18.09,4.46.02,6.63.04,2.74,0,5.55,0,8.29,0,1.33,0,2.82,0,4.15,0,1.12-.36,2.35-1.05,3.32-1.71,9.04-5.88,16.19-25.47,25.71-27.18,6.04-.55,10.02,5.69,13.27,9.9,2.75,3.84,5.36,7.95,8.29,11.65,2.28,2.83,4.91,5.71,8.29,7.21,3.27.32,6.66.04,9.95.13,4.5.22,8.85-1.4,13.27-2.02,3.14-1.91,5.65-4.85,8.29-7.37"/><path class="b" d="M12.66,142.38c4.68,0,9.41.02,14.1,0,6.17-1.35,11.52-4.95,17.42-7.05,4.54-1.71,9.65-1.62,14.1.33,4.85,1.85,9.06,5.42,14.1,6.73,4.13,0,8.31,0,12.44,0,1.33,0,2.82,0,4.15,0,.76,0,1.78.08,2.49-.27,10.36-4.79,16.36-24.03,26.54-26.71,7.73-1.38,14.1,10.83,18.24,16.06,3,3.91,6.7,9.49,11.61,10.92,3.02,0,6.11,0,9.12,0,2.18,0,4.46,0,6.63,0,1.34-.16,2.82-.47,4.15-.71,4.68-2.29,7.99-6.73,11.61-10.36"/><path class="b" d="M12.66,140.29c3.57,0,7.21,0,10.78,0,1.89-.1,3.96.23,5.81-.2,5.59-1.59,10.42-5.06,15.76-7.24,4.46-1.95,9.62-2.12,14.1-.13,4.35,1.78,8.19,4.68,12.44,6.67,2.32,1.35,4.91.82,7.46.91,3.85,0,7.76,0,11.61,0,9.43.25,17.64-22.77,27.37-25.16,7.73-1.8,14.05,9.9,18.24,15.01,3.01,3.83,6.12,8.25,10.78,10.15,3.85,0,7.76,0,11.61,0,2.43-.12,5.09.27,7.46-.2,5.45-2.64,9.16-7.77,13.27-12.04"/><path class="b" d="M12.66,138.21c3.85,0,7.76,0,11.61,0,2.46-.14,5.14.43,7.46-.54,5.26-1.88,9.79-5.38,14.93-7.53,10.73-4.72,17.61,2.75,26.54,7.18,2.01,1.21,4.41.85,6.63.88,3.3,0,6.66,0,9.95,0,1.33-.03,2.83.1,4.15-.11,1.47-.68,2.94-1.76,4.15-2.84,6.49-5.6,12.09-17.81,19.9-20.55,7.5-2.07,13.32,7.97,17.42,12.88,3.09,3.89,6.22,8.23,10.78,10.48,1.59.31,3.36.09,4.98.15,2.46,0,5.01,0,7.46,0,2.18-.03,4.46.07,6.63-.06,5.85-2.66,9.7-8.21,14.1-12.68"/><path class="b" d="M12.66,136.12c6.34-.08,12.74.17,19.07-.1,8.27-2.5,14.91-10.33,24.05-9.73,6.94.63,12.22,5.77,18.24,8.72.73.35,1.73.79,2.49,1.06,1.33.1,2.82.04,4.15.05,2.74,0,5.55,0,8.29,0,5.99-.06,6.04.84,10.78-3.53,5.9-5.43,10.88-15.63,18.24-18.6,7.54-2.41,13.21,7.01,17.42,11.88,3.11,3.78,6.26,8,10.78,10.15,4.12.24,8.31.02,12.44.09,2.18-.05,4.47.12,6.63-.09,5.77-2.62,9.64-8.02,14.1-12.31"/><path class="b" d="M12.66,134.04c6.35,0,12.73,0,19.07,0,1.11.11,2.31-.41,3.32-.82,1.98-.84,3.96-1.95,5.81-3.04,5.23-3.13,11.04-6.91,17.42-5.63,6.19,1.21,11.04,5.64,16.59,8.34.73.35,1.73.79,2.49,1.06,1.03.16,2.28.08,3.32.1,2.46,0,5,0,7.46,0,1.62,0,3.36,0,4.98,0,1.06-.06,2.38.23,3.32-.37,8.52-4.8,12.71-16.49,21.56-20.54,7.55-2.7,13.1,6.06,17.42,10.9,3.14,3.68,6.31,7.78,10.78,9.9,3.83.29,7.76.03,11.61.12,2.46,0,5.01,0,7.46,0,5.67-2.35,9.58-7.43,14.1-11.37"/><path class="b" d="M12.66,131.95c6.9,0,13.83,0,20.73,0,1.43.12,2.87-.64,4.15-1.18,1.66-.76,3.39-1.72,4.98-2.62,5-2.9,10.59-6.13,16.59-5.02,6.13,1.08,11.04,5.3,16.59,7.82.73.33,1.73.74,2.49.98,1.04,0,2.28,0,3.32,0,2.18,0,4.46,0,6.63,0,2.74,0,5.55.01,8.29,0,8.81-4.19,13.3-16.44,22.39-19.81,7.16-1.95,12.32,5.59,16.59,10.15,3.17,3.55,6.38,7.48,10.78,9.53,3.82.36,7.77.04,11.61.14,2.73-.1,5.59.22,8.29-.16,5.11-2.2,8.93-6.51,13.27-9.86"/><path class="b" d="M12.66,129.87c6.9,0,13.83,0,20.73,0,1.05-.02,2.28.05,3.32-.08,1.67-.54,3.4-1.31,4.98-2.09,5.65-2.86,11.64-6.61,18.24-5.52,6.03.92,11.03,4.78,16.59,7.01,1.78.92,3.87.65,5.81.68,2.46,0,5,0,7.46,0,2.46-.05,5.01.11,7.46-.08,8.53-4.15,12.66-14.74,21.56-18.21,7.43-2.18,12.81,5.36,17.42,9.97,2.94,3.08,6,6.39,9.95,8.16,1.3.3,2.82.11,4.15.16,2.46,0,5.01,0,7.46,0,2.74,0,5.56,0,8.29,0,5.02-1.66,8.88-5.65,13.27-8.45"/><path class="b" d="M12.66,127.6c1.02.3,2.27.15,3.32.18,1.9,0,3.91,0,5.81,0,5.52,0,11.07,0,16.59,0,4.63-1.06,8.75-3.8,13.27-5.22,4.26-1.51,8.99-1.56,13.27-.1,4.53,1.44,8.71,3.94,13.27,5.3,2.74.07,5.55.01,8.29.03,1.62-.13,3.35-.51,4.98-.64,2.45-.24,5.01-.25,7.46-.07,7.67-3.79,12.84-14.67,21.56-16.34,8.03-.98,14.22,8.56,19.9,13.08,1.96,1.57,4.12,3.42,6.63,3.96,3.85,0,7.76,0,11.61,0,2.74,0,5.56,0,8.29,0,4.51-1.48,8.28-4.63,12.44-6.82"/><path class="b" d="M12.66,124.7c.72.37,1.69.83,2.49,1,1.62,0,3.36,0,4.98,0,3.57,0,7.21,0,10.78,0,3.3,0,6.66,0,9.95,0,4.27-.77,8.21-3.02,12.44-3.99,4.33-1.19,8.98-1.01,13.27.28,3.63,1.04,7.15,2.6,10.78,3.61,2.17.24,4.48-.22,6.63-.5,2.19-.38,4.42-1.1,6.63-1.37,2.16-.3,4.46-.33,6.63-.13,1.33.07,2.81.47,4.15.43,11.89-8.49,17.54-21.4,32.34-7.76,3.9,3.34,7.61,7.26,12.44,9.27,1.86.38,3.91.09,5.81.18,3.57,0,7.21,0,10.78,0,1.89-.1,3.96.25,5.81-.21,3.72-1.31,7.14-3.48,10.78-4.99"/><path class="b" d="M12.66,121.55c3.06,2.15,5.55,2.16,9.12,2.07,3.02,0,6.1,0,9.12,0,4.68-.1,9.44.2,14.1-.12,4.11-1.04,8.2-2.5,12.44-2.93,3.59-.4,7.28.01,10.78.86,1.62.39,3.37.87,4.98,1.31,1.04-.04,2.28-.13,3.32-.22,12.13-.83,13.05-5.37,26.54-1.29,3.3-1.87,6.04-4.76,9.12-6.97,8.55-6.66,14.47-4.94,22.39,1.48,3.65,2.83,7.24,6.04,11.61,7.72,1.58.34,3.36.1,4.98.16,6.07-.07,12.19.15,18.24-.09,3.36-1.01,6.6-2.59,9.95-3.62"/><path class="b" d="M12.66,118.17c1.24.92,2.72,1.81,4.15,2.41,1.04.17,2.28.34,3.32.54,1.87.49,3.89.44,5.81.42,2.74,0,5.55,0,8.29,0,4.68,0,9.41,0,14.1,0,2.74-.45,5.53-1.13,8.29-1.45,3.01-.47,6.11-.23,9.12-.2,4.41-.44,8.89-.79,13.27-1.52,3.11-.46,6.16-1.44,9.12-2.45,5.62-1.66,11.39.44,16.59,2.55.91,0,1.78-.83,2.49-1.29,1.61-1.14,3.33-2.4,4.98-3.5,6.88-4.77,12.75-5.32,19.9-.73,4.23,2.39,11.03,8.57,15.76,8.59,7.45,0,14.94,0,22.39,0,3.07-.53,6.06-1.79,9.12-2.39"/><path class="b" d="M12.66,114.63c1.49,1.21,3.22,2.38,4.98,3.17,1.35.2,2.83.53,4.15.85,1.88.52,3.85.96,5.81.8,2.74,0,5.55,0,8.29,0,3.57,0,7.21,0,10.78,0,2.79.17,5.58-.32,8.29-.91,7.97-1.7,16.07-2.87,24.05-4.49,1.92-.42,3.94-.94,5.8-1.57,1.59-.57,3.29-1.29,4.98-1.5,4.02-.58,8.02.88,11.61,2.56,1.04.49,2.29,1.1,3.32,1.61.71.34,1.66.96,2.49.88,11.49-7.32,16.87-9.25,29.03-1.64,2.14,1.27,4.38,2.61,6.63,3.66,1.8.88,3.77,1.6,5.81,1.38,6.35,0,12.73,0,19.07,0,1.61-.01,3.36.03,4.98-.03,2.17-.44,4.44-.95,6.63-1.25"/><path class="b" d="M12.66,111.01c1.73,1.52,3.74,2.92,5.81,3.95,1.64.32,3.37.79,4.98,1.25,1.33.37,2.81.79,4.15,1.11,3.01.11,6.11.01,9.12.04,3.02,0,6.1,0,9.12,0,2.27.08,4.45,0,6.63-.71,4.99-1.3,9.94-2.92,14.93-4.23,4.67-1.27,9.44-2.3,14.1-3.62,2.78-.67,5.43-2.14,8.29-2.44,5.17-.4,9.81,2.55,14.1,5.05,1.61.83,3.19,2.2,4.98,2.6,11.19-6.03,16.84-6.41,28.2-.47,2.14,1.06,4.39,2.16,6.63,2.99.73.27,1.74.6,2.49.81.74.02,1.75.02,2.49.02,6.07,0,12.17,0,18.24,0,4.14-.01,8.33.16,12.44-.42"/><path class="b" d="M12.66,107.41c1.98,1.82,4.29,3.41,6.63,4.73,3.31.9,6.63,1.99,9.95,2.87,2.13.54,4.46.17,6.63.27,3.57,0,7.21,0,10.78,0,3.18.27,6.19-1.15,9.12-2.17,4.41-1.69,8.81-3.57,13.27-5.13,4.35-1.55,8.85-2.81,13.27-4.13,5.72-1.88,8.22-3.12,14.1-.23,3.2,1.6,6.16,3.78,9.12,5.76,1.59.95,3.18,2.36,4.98,2.87,11.25-4.87,17.17-4.04,28.2.63,2.41.91,4.91,1.97,7.46,2.41,1.33,0,2.82,0,4.15,0,9.67,0,19.36,0,29.03,0"/><path class="b" d="M12.66,103.93c2.5,2.2,5.28,4.38,8.29,5.81,3.88,1.02,7.69,2.46,11.61,3.33,3.27.32,6.66.04,9.95.13,1.33,0,2.82,0,4.15,0,1.06.01,2.32.06,3.32-.36,4.62-1.53,8.93-3.93,13.27-6.09,4.28-2.16,8.72-4.14,13.27-5.66,2.44-.82,4.99-1.56,7.46-2.27,1.6-.44,3.3-1.09,4.98-1.12,8.33-.01,15.92,10.12,23.22,12.99,10.08-3.34,16.65-2.59,26.54.7,2.16.66,4.42,1.33,6.63,1.81,1.61,0,3.36,0,4.98,0,9.67,0,19.36,0,29.03,0"/><path class="b" d="M12.66,100.66c2.8,2.42,5.88,4.75,9.12,6.53,3.32.85,6.64,1.99,9.95,2.88,1.32.35,2.8.71,4.15.97,2.17.17,4.46.03,6.63.08,1.9,0,3.91,0,5.81,0,1.1-.19,2.3-.72,3.32-1.15,5.79-2.62,10.98-6.43,16.59-9.39,5.18-2.83,10.82-4.84,16.59-6.11,4.97-1.67,9.37.72,13.27,3.68,4.16,3.12,8.02,6.74,12.44,9.51,1,.57,2.15,1.45,3.32,1.62,1.6-.35,3.35-.69,4.98-.93,3.82-.58,7.78-.61,11.61-.08,4.74.63,9.4,1.99,14.1,2.85,11.6,0,23.23,0,34.83,0"/><path class="b" d="M12.66,97.7c1.8,1.56,3.82,3.05,5.81,4.37,1.35.85,2.65,2.15,4.15,2.72,2.48.58,5.01,1.32,7.46,1.99,4.6,1.24,9.29,2.58,14.1,2.26,1.33,0,2.81,0,4.15,0,1.09-.3,2.31-.86,3.32-1.35,5.57-2.84,10.44-6.92,15.76-10.17,5.04-3.19,10.67-5.56,16.59-6.49,5.41-1.34,9.12.78,13.27,4.03,4.42,3.48,8.49,7.52,13.27,10.54,1.54.87,3.2,2.09,4.98,2.35,1.03-.15,2.28-.31,3.32-.43,3.28-.37,6.65-.51,9.95-.33,4.72.24,9.43,1.12,14.1,1.81,12.15.12,24.33,0,36.49.04"/><path class="b" d="M12.66,95.1c3.17,2.57,6.74,4.72,9.95,7.23,3.31.69,6.66,1.48,9.95,2.27,3.27.77,6.63,1.49,9.95,2.01,1.88.37,3.9.38,5.81.32,1.08-.38,2.31-.96,3.32-1.51,10.42-6.04,18.78-16.17,31.51-17.34,5.66-.92,8.97.92,13.27,4.36,4.16,3.35,8.01,7.21,12.44,10.23,2.53,1.6,5.29,3.44,8.29,3.9,4.67-.43,9.41-.63,14.1-.4,3.02.14,6.11.43,9.12.74,3.01.08,6.11.01,9.12.03,9.94,0,19.91,0,29.85,0"/><path class="b" d="M12.66,92.91c3.23,2.4,6.81,4.44,9.95,6.96,1.47.77,3.37.67,4.98,1.05,2.47.42,5.01.91,7.46,1.38,3.29.62,6.64,1.24,9.95,1.74,3.26.45,3.71.97,6.63-.86,10.01-6.06,18.17-16.83,30.68-17.45,2.48-.11,5.16-.13,7.46.92,5.72,2.7,9.98,7.67,14.93,11.48,3.83,2.94,8.38,6.16,13.27,6.73,6.07,0,12.17-.09,18.24,0,14.37,0,28.75,0,43.12,0"/><path class="b" d="M12.66,91.14c3.61,2.32,7.37,4.5,10.78,7.11,3.31.26,6.66.62,9.95,1.05,3.86.5,7.76,1.09,11.61,1.65,1.04.15,2.27.33,3.32.48,1.21.24,2.29.34,3.32-.46,9.66-5.98,17.56-16.87,29.85-16.99,2.49.02,5.15.22,7.46,1.21,5.36,2.51,9.46,7.04,14.1,10.6,3.92,3.09,8.32,5.95,13.27,6.99,6.35,0,12.73,0,19.07,0,14.65,0,29.31,0,43.95,0"/><path class="b" d="M12.66,89.78c2.14,1.29,4.5,2.43,6.63,3.73,1.06.68,2.29,1.54,3.32,2.27.4.36,1.11.74,1.66.69,9.15.1,18.31.84,27.37,2.2,5.95-3.41,10.66-8.75,16.59-12.24,3.01-1.84,6.42-3.24,9.95-3.56,3.93-.29,8.12.32,11.61,2.23,7.46,4.43,13.26,11.55,21.56,14.59,1.02.38,2.25.78,3.32,1,.74,0,1.75,0,2.49,0,2.18,0,4.46,0,6.63,0,6.62,0,13.28,0,19.9,0,11.88,0,23.78,0,35.66,0"/><path class="b" d="M12.66,88.79c2.16,1.13,4.51,2.1,6.63,3.28,1.06.62,2.29,1.41,3.32,2.09.39.33,1.14.7,1.66.67,9.67-.53,19.43-.8,29.03.74,6.49-4.42,12.19-10.51,19.9-12.78,5.82-1.65,12.33-.33,17.42,2.84,6.31,4.09,11.84,9.66,19.07,12.15,1.86.78,3.81.92,5.81.82,2.46,0,5,0,7.46,0,6.9,0,13.83,0,20.73,0,11.88,0,23.78,0,35.66,0"/><path class="b" d="M12.66,88.09c2.45,1.09,5.1,1.96,7.46,3.25,1.06.58,2.29,1.31,3.32,1.93.42.07,1.24.07,1.66,0,5.79-.59,11.59-1.47,17.42-1.63,4.15-.19,8.33.28,12.44.72,10.45-7.61,18.09-14.16,31.51-8.52,5.41,2.28,9.82,6.41,14.93,9.24,2.58,1.48,5.4,2.71,8.29,3.41,3.85.1,7.76.01,11.61.04,19.35,0,38.7,0,58.05,0"/><path class="b" d="M12.66,87.59c2.46.9,5.09,1.61,7.46,2.72,1.05.49,2.28,1.13,3.32,1.66.42.02,1.24-.04,1.66-.12,6.09-.87,12.12-2.39,18.24-2.98,4.41-.48,8.89-.22,13.27.43,5.06-3.36,10.38-7.03,16.59-7.63,8.56-.76,16.24,3.98,23.22,8.33,3.1,1.83,6.44,3.46,9.95,4.35,3.84.22,7.76.02,11.61.09,20.45,0,40.92,0,61.37,0"/><path class="b" d="M12.66,87.19c3.65.97,7.35,1.96,10.78,3.57,11.68-1.69,22.83-7.15,34.83-4.34,3.97-1.93,7.95-4.23,12.44-4.7,8.31-.95,16.1,3.2,23.22,6.96,2.89,1.5,5.95,2.87,9.12,3.65,4.13.06,8.31,0,12.44.02,21.28,0,42.57,0,63.86,0"/><path class="b" d="M12.66,86.76c1.9.42,3.91.81,5.81,1.25,1.64.37,3.33,1.1,4.98,1.42,13.42-1.97,23.19-9.33,37.32-5.56,10.9-4.94,19.65-1.16,29.85,3.26,2.67,1.18,5.46,2.35,8.29,3.07,4.4.21,8.86.02,13.27.08,22.39,0,44.79,0,67.17,0"/><path class="b" d="M12.66,86.18c3.31.53,6.7.99,9.95,1.82,10.66-.63,19.97-7.58,30.68-7.83,3.37-.07,6.78.64,9.95,1.74,2.7-.55,5.54-.82,8.29-.54,7.2.77,13.86,3.98,20.73,6.06,1.57.56,3.31.87,4.98.75,2.18,0,4.46,0,6.63,0,6.62,0,13.28,0,19.9,0,18.52,0,37.05,0,55.56,0"/><path class="b" d="M12.66,85.36c3.57.4,7.18.88,10.78.74,2.23.14,4.49-.32,6.63-.92,7.59-1.97,14.49-6.46,22.39-7.25,4.85-.51,9.69.87,14.1,2.82,8.33,0,15.99,3.81,24.05,5.35,29.58,0,59.16,0,88.74,0"/><path class="b" d="M12.66,84.02c3.57,0,7.21,0,10.78,0,2.18-.08,4.51.26,6.63-.33,8.23-1.88,15.48-7.3,24.05-7.82,5.89-.37,11.41,2.19,16.59,4.7,3.33.64,6.67,1.57,9.95,2.41,2.15.51,4.4,1.18,6.63,1.04,6.9,0,13.83,0,20.73,0,3.01-.13,6.1-.5,9.12-.41,2.46,0,5.01.26,7.46.41,5.79,0,11.62,0,17.42,0,12.43,0,24.88,0,37.32,0"/><path class="b" d="M12.66,81.93c4.13,0,8.31,0,12.44,0,2.17-.11,4.51.25,6.63-.22,7.66-1.85,14.42-6.8,22.39-7.46,5.56-.49,10.86,1.75,15.76,4.12,1.88.89,3.87,1.84,5.81,2.6,2.42.63,4.95,1.12,7.46.96,7.18,0,14.38,0,21.56,0,3.82-.61,7.73-1.19,11.61-1.17,2.75,0,5.57.26,8.29.62,2.17.32,4.43.66,6.63.55,16.03,0,32.07,0,48.1,0"/><path class="b" d="M12.66,79.85c4.41,0,8.86,0,13.27,0,1.62,0,3.36,0,4.98,0,1.07.04,2.3-.02,3.32-.37,6.97-1.93,13.36-6.2,20.73-6.56,7.16-.42,13.46,3.55,19.9,6.05.73.28,1.74.62,2.49.84,1.9.09,3.91.02,5.81.04,6.35-.04,12.73.09,19.07-.05,4.63-.95,9.34-2.02,14.1-1.96,5.3,0,10.52,1.33,15.76,2,15.75.05,31.52,0,47.27.02"/><path class="b" d="M12.66,77.76c4.96,0,9.97,0,14.93,0,1.62,0,3.36,0,4.98,0,1.06.02,2.3.03,3.32-.33,6.87-1.9,13.41-5.81,20.73-5.55,4.02.1,7.92,1.45,11.61,2.96,2.71,1.01,5.42,2.45,8.29,2.92,4.13,0,8.31,0,12.44,0,2.46,0,5,0,7.46,0,1.33-.05,2.85.16,4.15-.21,6.21-1.6,12.6-3.33,19.07-2.46,5.62.15,11.09,1.66,16.59,2.67,14.37,0,28.75,0,43.12,0"/><path class="b" d="M12.66,75.68c5.24,0,10.52,0,15.76,0,1.9,0,3.91,0,5.81,0,1.05,0,2.3.07,3.32-.27,11.94-3.5,17.27-6.65,29.85-1.96,2.17.75,4.42,1.58,6.63,2.18,4.68.11,9.41,0,14.1.04,3.29-.09,6.68.19,9.95-.13,4.4-1.13,8.74-2.76,13.27-3.35,3.56-.39,7.19-1.01,10.78-.58,5.96.54,11.57,2.96,17.42,4.05,13.26,0,26.54,0,39.81,0"/><path class="b" d="M12.66,73.59c7.18-.02,14.39.04,21.56-.02,3.57-.55,7.2-1.07,10.78-1.57,1.88-.49,3.88-.97,5.81-1.27,3.83-.64,7.82-.49,11.61.35,3.06.65,6.09,1.65,9.12,2.41,5.22.29,10.52.02,15.76.11,2.74,0,5.55,0,8.29,0,8.29-1.87,16.12-6.67,24.88-5.88,7.23.51,13.76,4.1,20.73,5.72,1.59.32,3.37.09,4.98.15,2.74,0,5.56,0,8.29,0,8.28,0,16.59,0,24.88,0"/><path class="b" d="M12.66,71.51c5.79-.04,11.63.09,17.42-.05,4.4-.59,8.83-1.43,13.27-1.72,2.46-.16,5.01-.15,7.46.06,3.29-.32,6.67-.4,9.95.09,2.77.37,5.56,1.02,8.29,1.58,3.85.12,7.76.01,11.61.05,3.57,0,7.21,0,10.78,0,1.95-.36,3.94-1.04,5.81-1.71,8.76-3.4,16.83-7.95,26.54-5.27,6.55,1.66,12.49,5.21,19.07,6.78,1.57.4,3.37.12,4.98.2,2.74,0,5.56,0,8.29,0,7.73,0,15.49,0,23.22,0"/><path class="b" d="M12.66,69.43c4.13-.08,8.33.16,12.44-.1,4.42-.55,8.84-1.41,13.27-1.84,3.57-.35,7.22-.34,10.78.11,2.76.29,5.51,1.12,8.29,1.01,2.76.08,5.56.51,8.29.82,4.41,0,8.86,0,13.27,0,2.46,0,5,0,7.46,0,4.65-.71,9.03-2.76,13.27-4.7,7.42-3.61,14.94-6.56,23.22-3.91,6.88,2.04,12.97,6.2,19.9,8.09,1.83.65,3.89.52,5.81.52,2.46,0,5.01,0,7.46,0,7.73,0,15.49,0,23.22,0"/><path class="b" d="M12.66,67.34c9.78.52,19.25-3.04,29.03-2.68,5.06.13,10.02,1.42,14.93,2.52,1.3.31,2.82.11,4.15.17,2.18,0,4.45,0,6.63,0,4.96-.05,9.97.1,14.93-.06,3.07-.84,6.2-1.78,9.12-3.06,9.71-4.29,18.73-11.05,29.85-7.25,7.25,2.32,13.48,7.08,20.73,9.41,1.02.33,2.27.67,3.32.9,1.03.11,2.28.05,3.32.07,2.46,0,5.01,0,7.46,0,7.73,0,15.49,0,23.22,0"/><path class="b" d="M12.66,65.21c3.58-.49,7.23-.96,10.78-1.63,5.45-1,11.01-2.09,16.59-1.69,5.38.31,10.55,2.07,15.76,3.33,6.35.08,12.73,0,19.07.03,1.04,0,2.28,0,3.32,0,2.28-.51,4.49-1.64,6.63-2.53,7.94-2.97,14.88-8.44,23.22-10.34,6-1.39,12.15.54,17.42,3.42,6.21,3.3,12.15,7.47,19.07,9.15,1.57.47,3.36.26,4.98.3,2.46,0,5.01,0,7.46,0,7.45,0,14.94,0,22.39,0"/><path class="b" d="M12.66,62.53c5.81-1,11.58-2.46,17.42-3.33,4.68-.67,9.52-.4,14.1.81,3.62.88,7.15,2.34,10.78,3.16,5.79,0,11.62,0,17.42,0,1.04-.01,2.28.05,3.32-.07,2.92-1.03,5.63-2.74,8.29-4.29,3-1.68,6.15-3.23,9.12-4.95,4.18-2.31,8.52-4.66,13.27-5.53,6.44-1.29,12.82,1.31,18.24,4.59,6.61,3.92,13.05,8.67,20.73,10.2,6.62.1,13.28,0,19.9.04,4.69-.08,9.45.28,14.1-.42"/><path class="b" d="M12.66,59.82c17.89-4.3,21.21-6.63,38.98.53,2.34,1.06,4.97.69,7.46.74,3.85,0,7.76,0,11.61,0,.74,0,1.75,0,2.49-.02.77-.29,1.77-.76,2.49-1.16,2.92-1.62,5.57-3.82,8.29-5.75,2.63-1.82,5.54-3.38,8.29-5,3.63-2.05,7.48-3.99,11.61-4.73,6.83-1.36,13.48,1.74,19.07,5.39,6.81,4.36,13.46,9.59,21.56,11.23,6.07.13,12.18,0,18.24.05,3.29-.04,6.66.08,9.95-.05,2.18-.26,4.46-.58,6.63-.91"/><path class="b" d="M12.66,57.17c9.89-2.85,18.77-6.76,29.03-2.81,3.64,1.27,7.14,3.09,10.78,4.36,1.81.6,3.92.17,5.81.29,3.57,0,7.21,0,10.78,0,.75,0,1.75.03,2.49-.1.77-.33,1.78-.87,2.49-1.32,3.32-2.12,6.15-5.04,9.12-7.59,2.24-1.98,4.91-3.56,7.46-5.08,3.34-1.95,6.94-3.72,10.78-4.39,7.26-1.39,14.14,2.35,19.9,6.38,6.75,4.65,13.38,10.12,21.56,11.95,2.15.34,4.46.07,6.63.15,3.57,0,7.21,0,10.78,0,3.02,0,6.11.02,9.12-.01,3.31-.39,6.67-.96,9.95-1.54"/><path class="b" d="M12.66,54.62c9.16-3.14,17.68-7.32,27.37-3.41,3.98,1.46,7.67,3.69,11.61,5.24,2.06.85,4.46.32,6.63.46,3.3,0,6.66,0,9.95,0,5.09.58,12.49-10.05,16.59-13.21,4.15-3.19,8.9-6.03,14.1-7.01,7.35-1.37,14.2,2.71,19.9,6.89,6.98,5.07,13.78,11.12,22.39,13.14,2.14.4,4.46.08,6.63.18,3.85,0,7.76,0,11.61,0,2.46-.02,5.01.04,7.46-.03,4.16-.5,8.33-1.33,12.44-2.15"/><path class="b" d="M12.66,52.24c8.87-3.45,16.96-8.01,26.54-3.9,4.01,1.58,7.68,4.03,11.61,5.78,2.01,1.12,4.43.61,6.63.71,3.02,0,6.1,0,9.12,0,.75,0,1.75.04,2.49-.13,1.13-.55,2.36-1.4,3.32-2.2,4.37-3.72,7.57-8.66,11.61-12.7,3.43-3.23,7.8-5.73,12.44-6.69,7.82-1.52,14.87,3.42,20.73,7.99,6.88,5.35,13.69,11.57,22.39,13.63,2.72.29,5.56.04,8.29.12,5.24,0,10.52,0,15.76,0,5.32-.29,10.56-1.73,15.76-2.81"/><path class="b" d="M12.66,50.04c8.51-3.6,16.29-8.65,25.71-4.55,4.35,1.76,8.19,4.63,12.44,6.6,1.75,1.02,3.88.57,5.81.66,3.02,0,6.1,0,9.12,0,.75,0,1.75.04,2.49-.12,1.14-.57,2.36-1.47,3.32-2.32,4.15-3.77,7.19-8.65,10.78-12.91,3.1-3.85,7.55-6.78,12.44-7.68,8.03-1.32,14.9,4.35,20.73,9.09,6.76,5.58,13.59,11.94,22.39,13.94,8.56-.09,17.16.21,25.71-.12,5.32-.66,10.55-2.06,15.76-3.31"/><path class="b" d="M12.66,48.04c7.05-3.06,14.34-8.29,22.39-6.11,5.5,1.39,9.98,5.13,14.93,7.69.73.36,1.7.84,2.49,1.04,1.33,0,2.82,0,4.15,0,3.02,0,6.1,0,9.12,0,.43,0,1.24,0,1.66,0,.44-.2,1.26-.67,1.66-.95,2.22-1.57,4.13-3.76,5.81-5.88,5.18-6.42,9.27-15.47,18.24-16.98,7.81-1.27,14.34,4.54,19.9,9.21,6.79,5.7,14.13,13.23,23.22,14.61,5.52,0,11.07,0,16.59,0,3.29-.09,6.68.22,9.95-.2,5.62-.74,11.11-2.39,16.59-3.81"/><path class="b" d="M12.66,46.23c4.99-2.15,9.57-5.46,14.93-6.69,8.16-2.09,14.98,3.66,21.56,7.53.43.23,1.21.65,1.66.83,1.33.02,2.82.06,4.15.11,3.3.12,6.66.31,9.95.48,1.09.07,2.42.25,3.32-.51,2.25-1.46,4.15-3.63,5.81-5.72,2.59-3.32,4.92-7.02,7.46-10.39,2.57-3.62,6.23-6.8,10.78-7.37,7.24-.83,13.13,4.66,18.24,9.02,6.23,5.41,15.44,14.83,24.05,15.07,5.79,0,11.62,0,17.42,0,3.29-.09,6.68.23,9.95-.23,5.93-.8,11.66-2.71,17.42-4.29"/><path class="b" d="M12.66,44.58c4.26-1.81,8.12-4.54,12.44-6.21,9.24-3.81,15.75,1.34,23.22,6.07,1.74.52,3.96.15,5.81.36,3.58.17,7.21.54,10.78.91,1.04.07,2.28.37,3.32.15,1.88-1.24,3.55-3.04,4.98-4.78,2.65-3.28,4.98-6.97,7.46-10.38,2.59-3.69,6.03-7.4,10.78-7.84,6.98-.58,12.51,4.89,17.42,9.12,6.44,5.72,12.9,12.46,21.56,14.53,3.3,0,6.66,0,9.95,0,4.41,0,8.86,0,13.27,0,2.46-.06,5.03.17,7.46-.2,6.24-.83,12.22-3.02,18.24-4.75"/><path class="b" d="M12.66,43.03c8.06-3.37,15.57-10.55,24.88-6.88,2.32.85,4.55,2.15,6.63,3.46,1.03.55,2.1,1.67,3.32,1.71,4.42-.25,8.9.12,13.27.79,1.62.24,3.36.54,4.98.81,1.04.14,2.27.51,3.32.37,6.83-5.28,9.89-14.13,16.59-19.52,8.96-5.94,17.69,3.61,24.05,9.18,4.73,4.25,9.69,8.64,15.76,10.84,1.27.56,2.77.69,4.15.62,1.61,0,3.36,0,4.98,0,5.24,0,10.52,0,15.76,0,3.29-.08,6.67.16,9.95-.11,6.56-.83,12.78-3.28,19.07-5.17"/><path class="b" d="M12.66,41.54c3.49-1.25,6.68-3.32,9.95-5.04,8.51-4.72,14.46-3.74,22.39,1.46,1.62.02,3.35-.33,4.98-.32,2.47-.06,5.03.15,7.46.54,4.19.59,8.28,2.03,12.44,2.72,3.99-3.24,6.82-7.74,9.95-11.76,2.79-3.75,6.47-7.93,11.61-7.49,7.61.72,14.09,8.6,19.9,13.11,3.04,2.5,6.32,4.89,9.95,6.45,1.01.42,2.24.89,3.32,1.12.74,0,1.75,0,2.49,0,7.18,0,14.38,0,21.56,0,4.08-.12,8.41.27,12.44-.21,6.28-.95,12.2-3.44,18.24-5.29"/><path class="b" d="M12.66,40.04c11.65-4.04,17.49-12.86,30.68-5.23,11.23-2.42,16.98.52,27.37,3.85,5.89-4.17,10.67-14.94,17.42-16.47,6.88-1.34,12.44,4.33,17.42,8.22,3.87,3.2,7.84,6.49,12.44,8.58,1.01.45,2.25.92,3.32,1.22,1.33.07,2.82.02,4.15.04,2.74,0,5.55,0,8.29,0,5.79,0,11.62,0,17.42,0,3.57-.13,7.25.31,10.78-.29,6-1.04,11.64-3.52,17.42-5.33"/><path class="b" d="M12.66,38.16c1.41.11,2.87-.57,4.15-1.09,1.66-.73,3.38-1.65,4.98-2.5,4.55-2.46,9.6-5.02,14.93-4.17,1.06.16,2.3.48,3.32.83.75.25,1.67.83,2.49.56,1.3-.48,2.79-.93,4.15-1.23,8.81-2.16,16.94,2.83,24.88,5.88,1.63-.66,2.89-2.31,4.15-3.5,2.94-3.01,5.57-6.58,9.12-8.91,7.14-4.17,14.36,2.31,19.9,6.38,3.84,2.89,7.85,5.82,12.44,7.38.99.43,2.26.35,3.32.35,1.9,0,3.91,0,5.81,0,5.24,0,10.52,0,15.76,0,4.13,0,8.31,0,12.44,0,2.74-.09,5.6.27,8.29-.34,5.71-1.1,11.07-3.53,16.59-5.29"/><path class="b" d="M12.66,36.08c1.04-.02,2.28.07,3.32-.11,1.37-.44,2.85-1.09,4.15-1.71,3.53-1.7,6.99-3.78,10.78-4.87,2.12-.61,4.44-.85,6.63-.57,1.39.15,2.88.92,4.15-.03,8.15-4.17,14.66-2.85,22.39,1.41,1.9,1,3.88,2.1,5.81,3.05,1.02.41,2.17,1.31,3.32,1.13,3.82-2.74,6.83-6.59,10.78-9.16,8.3-4.95,16.32,3.46,23.22,7.32,2.33,1.4,4.86,2.67,7.46,3.45,2.72.23,5.56.04,8.29.1,12.71,0,25.44,0,38.15,0,6.35-.63,12.21-3.65,18.24-5.54"/><path class="b" d="M12.66,33.99c1.62-.03,3.36.07,4.98-.06,4.02-1.32,7.69-3.61,11.61-5.18,2.09-.84,4.38-1.49,6.63-1.62.74-.04,1.75-.02,2.49.05,1.2-.13,2.27-1.18,3.32-1.7,13.54-8.27,20.76,2.13,32.34,7.35,3.46-2.06,6.39-5.04,9.95-6.95,7.57-3.84,14.97,2.54,21.56,5.69,1.83.92,3.83,1.77,5.81,2.34,3.01.15,6.11.02,9.12.06,12.99,0,25.99,0,38.98,0,1.04,0,2.28,0,3.32,0,1.34-.25,2.83-.61,4.15-.98,4.21-1.2,8.28-3.01,12.44-4.37"/><path class="b" d="M12.66,31.91c2.18-.02,4.46.03,6.63-.03,5.88-1.88,11.13-5.86,17.42-6.39.91-.12,1.77-.99,2.49-1.49,1.02-.75,2.24-1.62,3.32-2.3,2.94-1.87,6.4-3.34,9.95-3.04,7.18.76,12.38,6.51,18.24,10.14,1.28.82,2.76,1.65,4.15,2.27.86.07,1.77-.58,2.49-.96,2.42-1.37,4.82-3.03,7.46-3.95,5.71-1.9,11.43,1.14,16.59,3.37,8.06,3.6,6.82,2.01,14.93,1.81,3.59-.15,7.21.3,10.78.57,7.73,0,15.49,0,23.22,0,4.41,0,8.86,0,13.27,0,5.46-.91,10.53-3.39,15.76-5.11"/><path class="b" d="M12.66,29.83c2.74,0,5.55.01,8.29-.01,3.13-.99,6.11-2.57,9.12-3.87,1.83-.88,3.93-1.36,5.81-2.09,5.45-4.62,12.18-11.24,19.9-8.07,7.79,3.18,12.82,10.9,20.73,13.87,2.49-.88,4.94-2.15,7.46-2.93,5.57-1.79,11.28.5,16.59,2.17,1.31.33,2.77,1.04,4.15.87,2.46-.44,4.99-.95,7.46-1.27,6.09-.92,12.26,0,18.24,1.2,4.66.33,9.42.03,14.1.13,4.41,0,8.86,0,13.27,0,2.73-.12,5.61.3,8.29-.27,4.54-1.08,8.86-3.05,13.27-4.54"/><path class="b" d="M12.66,27.74c3.3-.02,6.66.04,9.95-.03,2.55-.81,5.03-2.02,7.46-3.11,1.31-.64,2.9-1.1,4.15-1.86,1.06-.94,2.28-2.09,3.32-3.06,4.15-3.78,8.83-8.72,14.93-8.23,8.2,1.14,13.86,10.27,20.73,14.44,4.02,2.7,5.62,1.97,9.95.8,5.22-1.4,10.61-.09,15.76,1,2.54.31,5.04-.5,7.46-1.13,6.18-1.79,12.76-2.51,19.07-.93,1.91.42,3.91.95,5.81,1.44,1.3.41,2.79.63,4.15.44,5.24-.23,10.51.42,15.76.23,3.29,0,6.66,0,9.95,0,1.89-.09,3.95.22,5.81-.21,4.25-1.03,8.31-2.84,12.44-4.26"/><path class="b" d="M12.66,25.66c3.85-.08,7.78.17,11.61-.11,1.96-.64,3.94-1.55,5.81-2.4,2.71-.96,4.61-3.39,6.63-5.32,3.49-3.44,6.92-7.46,11.61-9.25,9.33-3.26,16.63,9.07,23.22,13.93,4.77,3.68,5.09,3.17,10.78,3.16,1.9.07,3.9-.19,5.8-.18,2.18.03,4.45.25,6.63.18,1.61,0,3.36,0,4.98,0,1.93-.47,3.92-1.14,5.81-1.77,4.52-1.55,9.27-2.93,14.1-2.54,4.87.32,9.48,2.2,14.1,3.62,2.73.13,5.56,0,8.29.34,3,.44,6.1.37,9.12.35,3.57,0,7.21,0,10.78,0,1.89-.07,3.94.18,5.81-.15,3.96-.97,7.77-2.63,11.61-3.97"/></svg>