<?xml version="1.0" encoding="UTF-8"?><svg id="a" xmlns="http://www.w3.org/2000/svg" width="1920" height="2400" viewBox="0 0 192 240"><defs><style>.b{fill:none;stroke:#fff;stroke-miterlimit:10;stroke-width:.3px;}.c{stroke-width:0px;}</style></defs><rect class="c" width="192" height="240"/><path class="b" d="M11.26,227.01c9.09-4.77,13.45-3.12,21.92,1.74,11.14-2.46,19.84-4.45,31.2-1.21,3.57,1.1,2.94.9,5.9-1.1,2.13-1.44,4.38-2.93,6.75-3.95,5.2-2.23,7.72-.93,12.65.7,4.09,1.18,8.4,1.72,12.65,1.74,9.31.07,18.44-2.52,26.98-6.06,8.82-3.37,18.08-9.02,27.82-6.62,3.77,1.32,6.57,4.53,9.27,7.32,4.32,4.57,8.5,9.75,14.33,12.43"/><path class="b" d="M11.26,223.51c5.08-2.82,9.51-4.48,15.18-2.04,2.99,1.12,5.59,3.19,8.43,4.58,12.65-3.59,20.96-5.19,33.73-.53,1.58-.38,2.85-1.92,4.22-2.77,2.32-1.69,4.83-3.41,7.59-4.29,1.59-.5,3.42-.66,5.06-.32,1.92.5,3.94,1.06,5.9,1.36,5,.81,10.16.74,15.18.05,12.12-1.52,23.07-7.26,34.57-10.97,5.63-1.63,12.19-2.92,17.71-.32,3.33,1.95,5.91,5.05,8.43,7.91,4.08,4.65,8.05,9.75,13.49,12.88"/><path class="b" d="M11.26,220.21c10.16-6.42,15.48-3.19,24.45,3.05,1.41.19,2.86-.7,4.22-1.01,1.91-.6,3.95-1.2,5.9-1.67,8.5-2.25,16.43-1.03,24.45,2.29,4.56-2.86,8.54-7.79,14.33-7.99,2.79.19,5.62.85,8.43.81,4.52.1,9.07-.45,13.49-1.37,13.26-2.6,25.38-9.45,38.78-11.39,2.77-.35,5.66-.41,8.43-.06,1.69.23,3.56.51,5.06,1.39,3.35,1.98,5.92,5.15,8.43,8.07,4.13,4.88,8.1,10.2,13.49,13.77"/><path class="b" d="M11.26,217.21c11.15-7.28,16.49-2.96,26.14,3.7,13.38-5.21,21.07-6.72,34.57-.53,4.08-3.21,8.02-7.71,13.49-8.2,7.13.41,14.25-.87,21.08-2.86,13.86-3.94,27.42-10.73,42.16-10.12,3.65.31,7.8.36,10.96,2.4,8.12,6.05,12.73,15.83,21.08,21.67"/><path class="b" d="M11.26,214.57c11.11-7.4,17.38-3.56,26.98,3.69,1.45,0,2.86-1,4.22-1.44,2.18-.88,4.48-1.75,6.74-2.38,5.79-1.74,12.07-1.43,17.71.72,2.28.7,4.44,2.1,6.75,2.68,3.57-3.01,7.07-6.83,11.8-7.87,6.96-.53,13.71-2.57,20.24-4.97,16.53-6.24,29.14-11.14,47.22-7.72,1.65.33,3.48.54,5.06,1.14,3.39,1.52,5.99,4.47,8.43,7.18,4.55,5.17,8.74,10.89,14.33,15.01"/><path class="b" d="M11.26,212.35c7.27-4.62,13.36-5.96,21.08-1.34,1.71.99,3.46,2.2,5.06,3.37.72.51,1.64,1.34,2.53,1.55,13.67-6.66,20.84-7.73,34.57-.34l.84-.1c9.36-8.46,7.86-5.91,18.55-9.52,7.16-2.57,13.95-6.12,21.08-8.77,10.25-4.03,20.43-4.77,31.2-2.58,2.51.46,5.09,1.02,7.59,1.54,1.98.41,4.16.69,5.9,1.81,3.25,2,5.88,4.97,8.43,7.77,3.95,4.39,7.83,9.05,12.65,12.52"/><path class="b" d="M11.26,210.56c12.03-7.37,18.85-4.88,29.51,3.1,14.47-7.54,21.02-8.15,35.41.09,1.25-.51,2.31-1.79,3.37-2.59,1.54-1.29,3.26-2.62,5.06-3.54,1.59-.77,3.44-1.23,5.06-1.92,2.86-1.14,5.7-2.53,8.43-3.95,9.99-5.25,20.36-11.43,32.04-10.96,6.33.15,12.49,1.98,18.55,3.66,1.92.53,3.96,1.07,5.9,1.49,1.69.32,3.55.64,5.06,1.52,3.55,2,6.44,5.1,9.27,7.97,3.69,3.79,7.4,7.75,11.8,10.73"/><path class="b" d="M11.26,209.17c12.13-6.76,19.17-6.06,30.35,1.98,1.19.02,2.32-.96,3.37-1.42,1.89-.98,3.91-1.96,5.9-2.72,10.47-4.19,17.97.08,26.98,5.12,2.14-1.78,4.34-3.71,6.74-5.13,3.38-1.66,6.91-3.18,10.12-5.17,7.39-4.3,14.46-9.54,22.76-11.97,9.88-3.07,19.44.37,28.67,3.87,3.55,1.3,7.22,2.48,10.96,3.06,4.31,1.09,7.71,4.36,10.96,7.22,4.01,3.65,7.99,7.52,12.65,10.35"/><path class="b" d="M11.26,208.13c7.8-3.79,15.99-7.01,24.45-3.14,1.71.73,3.47,1.69,5.06,2.65.73.43,1.67,1.16,2.53,1.3,14.82-8.76,21.22-7.15,35.41,1.47h.84c2.12-1.66,4.33-3.45,6.74-4.67,3.21-1.58,6.31-3.55,9.27-5.55,7.17-4.78,14.18-10.54,22.76-12.46,9.49-2.22,18.55,2.52,26.98,6.29,2.71,1.18,5.55,2.32,8.43,3.04,1.93.5,4.07.6,5.9,1.42,7.74,3.6,13.44,10.5,21.08,14.3"/><path class="b" d="M11.26,207.36c12.58-5.15,20.38-8.46,32.88-.58,16.04-9.26,21.3-6.27,36.25,2.57,1.73-.94,3.34-2.34,5.06-3.3,3.84-2.03,7.49-4.52,10.96-7.11,6.52-4.74,13-10.34,21.08-12.1,10.44-2.27,19.69,4.46,28.67,8.71,2.42,1.14,4.99,2.2,7.59,2.84,2.53.56,5.24.73,7.59,1.92,6.74,3.17,12.46,8.28,19.39,11.1"/><path class="b" d="M11.26,206.74c8.46-2.55,17.06-7.43,26.14-5.36,1.7.38,3.47,1.01,5.06,1.72,1.07.38,2.19,1.37,3.37,1.27,9.76-5.78,16.83-6.9,26.98-1.16,1.95,1.06,3.98,2.27,5.9,3.38,1.04.49,2.17,1.53,3.37,1.46,2.15-1.43,4.53-2.69,6.75-4.02,2.91-1.81,5.72-3.93,8.43-6.02,6.15-4.67,12.39-10.16,20.24-11.53,11.75-1.81,21.02,7.45,31.2,11.65,1.87.79,3.91,1.49,5.9,1.88,2.55.36,5.2.71,7.59,1.73,6.28,2.54,12.04,6.37,18.55,8.37"/><path class="b" d="M11.26,206.15c12.98-2.95,22.06-10.6,35.41-3.86,5.33-2.65,10.72-5.3,16.86-4.12,7.14,1.25,12.9,6.09,19.39,8.97,5.41-2.69,10.49-6,15.18-9.81,6.99-5.42,14.98-12.12,24.45-10.5,6.53,1.1,12.11,5.03,17.71,8.32,3.97,2.36,8.14,4.66,12.65,5.81,2.75.7,5.71.63,8.43,1.48,6.53,1.87,12.71,4.99,19.39,6.37"/><path class="b" d="M11.26,205.45c5.82-.95,11.37-3.02,16.86-5.09,7.06-2.67,13.15-3.28,20.24-.29,15.27-8.21,22.02.06,35.41,5.91,6.63-2.29,12.13-6.93,17.71-11.05,4.53-3.33,9.46-6.73,15.18-7.47,9.21-1.1,16.88,5.29,24.45,9.52,3.69,2.12,7.63,4.04,11.8,4.95,1.9.46,3.97.49,5.9.73,1.95.26,3.99.7,5.9,1.17,3.35.83,6.74,1.79,10.12,2.51,1.91.4,3.94.86,5.9.74"/><path class="b" d="M11.26,204.52c5.21-.53,10.34-1.89,15.18-3.89,7.83-3.24,15.24-6.25,23.61-2.76,11.44-5.32,18.55-.78,28.67,4.43,1.88.92,3.91,1.8,5.9,2.41.79-.11,1.79-.49,2.53-.77,9.72-3.69,16.77-12.59,26.98-15.19,5.84-1.47,11.79.68,16.86,3.52,7.02,3.88,13.85,8.74,21.92,10.11,3.9.57,7.92.56,11.8,1.31,2.78.43,5.63.95,8.43,1.28,2.5,0,5.09,0,7.59,0"/><path class="b" d="M11.26,202.85c9.09.63,16.32-3.26,24.45-6.55,3.72-1.44,7.8-2.39,11.8-1.82,1.08.15,2.33.43,3.37.75.76.32,1.76.47,2.53.1,7.46-2.38,14.45.4,21.08,3.78,1.9.92,3.93,1.89,5.9,2.66,1.32.45,2.79,1.17,4.22,1.07,10.44.61,21.12-14.3,33.73-13.58,8.11.39,14.8,5.67,21.92,8.99,5.74,2.9,12.14,4.26,18.55,4.24,7.28.6,14.62.27,21.92.34"/><path class="b" d="M11.26,200.73c3.63-.09,7.35.2,10.96-.13,10.02-1.88,18.85-10.49,29.51-7.97,1.4.19,2.87,1.18,4.22,1,2.79-.37,5.71-.13,8.43.58,5.84,1.51,11.06,4.83,16.86,6.46,3.06.12,6.21.06,9.27.03,8.79-2.59,15.91-9.81,25.29-10.54,8.29-.62,15.44,4.43,22.76,7.52,3.99,1.64,8.27,3.22,12.65,3.05,9.83,0,19.68,0,29.51,0"/><path class="b" d="M11.26,198.62c4.76-.01,9.57.03,14.33-.02,7.97-1.8,14.56-7.66,22.76-8.59,3.78-.41,7.58.66,10.96,2.29,1.59.55,3.45.58,5.06,1.11,3.16.86,6.23,2.2,9.27,3.39,1.62.63,3.38,1.27,5.06,1.74,1.64.16,3.42.05,5.06.08,1.93,0,3.97,0,5.9,0,1.35-.06,2.89.16,4.22-.18,5.52-1.72,10.49-4.94,16.02-6.63,9.17-3.07,16.97.88,25.29,4.31,2.44.97,5.02,1.84,7.59,2.4,1.63.21,3.42.06,5.06.1,10.95,0,21.93,0,32.88,0"/><path class="b" d="M11.26,196.5c5.33,0,10.69,0,16.02,0,1.43.12,2.9-.46,4.22-.95,1.69-.65,3.45-1.5,5.06-2.32,6.15-3.27,13.08-7.13,20.24-4.93,4.56,1.16,8.39,4.14,12.65,5.95,2.47.78,4.99,2.06,7.59,2.25,5.33,0,10.69,0,16.02,0,1.06-.02,2.32.06,3.37-.09,2.85-.8,5.66-1.97,8.43-2.99,4.54-1.73,9.45-2.94,14.33-2.39,4.65.47,9.09,2.21,13.49,3.69,2.72.85,5.53,1.99,8.43,1.79,13.2,0,26.42,0,39.63,0"/><path class="b" d="M11.26,194.38c6.73-.1,13.52.19,20.24-.11,7.78-2.36,14.31-8.82,22.76-8.77,8.21.14,14.41,6.48,21.92,8.88,3.07,0,6.21,0,9.27,0,4.48-.02,9.01.03,13.49-.02,4.49-1.12,8.89-2.82,13.49-3.43,4.5-.66,9.12-.07,13.49,1.08,3.07.77,6.17,1.74,9.27,2.38,4.76,0,9.57,0,14.33,0,10.39,0,20.8,0,31.2,0"/><path class="b" d="M11.26,192.26c5.04,0,10.13,0,15.18,0,2.22,0,4.53,0,6.74,0,2.04-.49,4.04-1.52,5.9-2.46,4.6-2.4,9.11-5.48,14.33-6.28,7.16-1.15,13.38,3.35,19.39,6.52,2.4,1.22,4.81,2.55,7.59,2.23,5.33,0,10.69.02,16.02-.01,4.17-.78,8.4-1.66,12.65-1.82,2.51-.04,5.07-.6,7.59-.51,3.39.01,6.81.59,10.12,1.29,1.93.33,3.94,1.03,5.9,1.05,16.01,0,32.04,0,48.06,0"/><path class="b" d="M11.26,190.14c5.04,0,10.13,0,15.18,0,1.64-.02,3.42.04,5.06-.04,1.36-.24,2.87-.54,4.22-.83,2.03-.39,4.15-.82,5.9-1.99,4.04-2.23,8.06-4.89,12.65-5.83,6.38-1.41,12.36,2.01,17.71,5.07,2.67,1.36,5.42,3.23,8.43,3.62,3.91-.06,7.9.12,11.8-.08,7.15-1.79,14.49-3.79,21.92-2.64,4.81.61,9.52,2.02,14.33,2.65,4.47.18,9.01.02,13.49.07,12.92,0,25.86,0,38.78,0"/><path class="b" d="M11.26,188.02c5.61-.03,11.26.06,16.86-.03,4.76-.78,9.59-1.59,14.33-2.41,4.57-2.54,9.04-5.79,14.33-6.56,7.19-1.06,13.35,3.64,19.39,6.77,1.59.82,3.35,1.62,5.06,2.17,1.05.12,2.31.06,3.37.07,1.36-.03,2.91.15,4.22-.3,2.81-.78,5.63-1.79,8.43-2.59,4.89-1.46,10.12-2.03,15.18-1.16,5.44.85,10.64,2.93,16.02,4.05,1.93,0,3.97,0,5.9,0,9.83,0,19.68,0,29.51,0,5.61-.1,11.27.23,16.86-.2"/><path class="b" d="M11.26,185.13c2.24.02,4.55.32,6.75.75,1.64,0,3.42.1,5.06-.08,4.5-.47,9-1.31,13.49-1.83,1.35-.15,2.86-.28,4.22-.34,1.07-.1,2.37.13,3.37-.34,4.75-2.76,9.51-6.31,15.18-6.69,6.93-.43,12.68,4.16,18.55,7.14,1.04.53,2.29,1.12,3.37,1.54,1.03.42,2.29.89,3.37.4,5.1-1.58,9.94-4.11,15.18-5.25,7.8-1.96,15.53.87,22.76,3.61,1.9.68,3.94,1.34,5.9,1.82,2.21.11,4.53.02,6.74.05,8.42,0,16.87,0,25.29,0,3.92,0,7.89,0,11.8,0,2.79-.28,5.65-.63,8.43-.97"/><path class="b" d="M11.26,181.64c1.66.02,3.44.25,5.06.63,1.08.22,2.27.74,3.37.78,8.12-.72,16.28-2.39,24.45-1.38,2.39-.89,4.49-2.71,6.75-3.91,3.54-2.11,7.6-3.84,11.8-3.45,5.95.55,10.88,4.35,16.02,7.03,1.04.55,2.29,1.15,3.37,1.6,1.76-.17,3.43-1.32,5.06-1.97,6.02-2.92,12.53-5.95,19.39-4.99,5.36.66,10.28,3.17,15.18,5.28,2.96,1.18,6.01,2.79,9.27,2.52,8.99,0,18,0,26.98,0,3.63-.03,7.33.06,10.96-.04,3.94-.45,7.9-1.13,11.8-1.82"/><path class="b" d="M11.26,177.86c1.67.02,3.46.32,5.06.81,1.43.45,2.66,1.21,4.22.86,4.75-.42,9.56-.93,14.33-.78,3.39.03,6.78.67,10.12,1.12,5.57-3.19,10.94-7.98,17.71-7.9,6.96.18,12.52,5.06,18.55,7.93,10.95-5.8,18.57-11.57,31.2-5.68,5.37,2.37,10.35,5.76,16.02,7.42,8.98.1,18,0,26.98.03,3.63-.01,7.33.03,10.96-.02,4.82-.58,9.62-1.66,14.33-2.8"/><path class="b" d="M11.26,173.92c1.69.02,3.48.4,5.06,1,.76.29,1.72.82,2.53.96.42-.02,1.26-.07,1.69-.1,4.19-.24,8.46-.35,12.65.1,3.98.4,7.94,1.31,11.8,2.32,8.07-4.43,14.47-11.33,24.45-7.22,2.32.91,4.6,2.2,6.75,3.46.75.44,1.78,1.04,2.53,1.47.37.3,1.2.6,1.69.51,14.99-9.79,21.16-12.51,37.1-2.28,3.48,2.07,7.04,4.29,10.96,5.42,1.35,0,2.86,0,4.22,0,10.11,0,20.24,0,30.35,0,6.05-.06,11.95-2.1,17.71-3.78"/><path class="b" d="M11.26,169.94c2.38-.02,4.61,1.02,6.75,1.91,2.5-.07,5.09-.06,7.59.12,6.66.41,13.06,2.51,19.39,4.47,3.56-1.68,6.66-4.34,10.12-6.22,9.05-5.36,15.53-1.76,23.61,3.13,8-5.65,16.67-12.64,26.98-8.48,5.52,2.11,10.19,5.94,15.18,9.02,2.37,1.39,4.87,2.97,7.59,3.53,3.63,0,7.33,0,10.96,0,8.42-.03,16.87.07,25.29-.04,5.51-.82,10.85-2.63,16.02-4.65"/><path class="b" d="M11.26,166.07c1.09.04,2.35.3,3.37.67.76.27,1.71.83,2.53.92,3.09,0,6.25.29,9.27.91,6.41,1.25,12.35,4.18,18.55,6.14,3.54-1.75,6.71-4.3,10.12-6.28,8.13-5,14.27-3.09,21.92,1.55.56.02,1.3-.44,1.69-.81,1.06-.82,2.31-1.81,3.37-2.63,2.58-2,5.42-3.84,8.43-5.13,13-5.93,22.6,6.03,32.88,11.9,1.3.73,2.81,1.44,4.22,1.93,1.64.13,3.42.04,5.06.06,3.35,0,6.77,0,10.12,0,2.78,0,5.65,0,8.43,0,3.33-.52,6.75-.69,10.12-.61,1.64.02,3.42.1,5.06.19,4.99-.9,9.74-3,14.33-5.1"/><path class="b" d="M11.26,162.43c1.42.05,2.87.66,4.22,1.01,3.7-.07,7.45.64,10.96,1.8,4.06,1.34,7.93,3.29,11.8,5.07,2.17.88,4.4,2.21,6.74,2.5,6.9-3.24,12.86-10.07,21.08-9.31,2.32.21,4.65,1.02,6.75,2.02,1.07.45,2.22,1.31,3.37,1.51,4.44-3.64,8.8-7.72,14.33-9.61,8.52-3.28,16.23,1.56,22.76,6.69,3.93,2.82,11.16,9.44,16.02,9.07,6.17,0,12.38,0,18.55,0,2.55.09,5.06-.92,7.59-1.13,4.47-.46,9.03-.32,13.49.09,4.12-1.21,8.03-3.17,11.8-5.19"/><path class="b" d="M11.26,159.12c.77.08,1.76.36,2.53.43,1.05-.24,2.31-.23,3.37-.11,2.89.29,5.77,1.19,8.43,2.35,6.34,2.72,11.96,7.06,18.55,9.22,3.1-.75,5.73-3.04,8.43-4.66,7.62-5.2,13.53-6.55,21.92-1.99,3.39-2.57,6.44-5.74,10.12-7.93,10.28-6.05,18.4-2.46,26.98,4.37,4.34,3.32,8.52,7.1,13.49,9.47,1.63.27,3.42.38,5.06.64,2.2.31,4.53.09,6.74.15,3.63,0,7.33,0,10.96,0,3.35-.7,6.68-1.88,10.12-2.09,4.19-.41,8.47-.21,12.65.33,3.61-.96,6.89-3.2,10.12-5.03"/><path class="b" d="M11.26,156.21c.81.17,1.75-.34,2.53-.5.75-.15,1.77-.2,2.53-.11,8.03,1.04,14.26,6.84,21.08,10.68,1.85,1.03,3.85,2.11,5.9,2.66,1.84.18,3.52-1.03,5.06-1.87,8.27-5.2,14.43-10.18,24.45-5.38.55-.07,1.32-.63,1.69-1.02,1.06-.92,2.3-2.02,3.37-2.92,2.78-2.33,5.78-4.71,9.27-5.85,14.29-5.27,24.4,8.72,35.41,15.15.67.54,1.72.5,2.53.53,1.06.07,2.32.22,3.37.37,1.94.26,3.96.74,5.9.98,1.64,0,3.42,0,5.06,0,2.5,0,5.09,0,7.59,0,2.26-.5,4.51-1.38,6.74-1.98,5.74-1.58,11.85-1.57,17.71-.63,1.5.46,2.94-.78,4.22-1.41,1.68-.96,3.45-2.09,5.06-3.17"/><path class="b" d="M11.26,153.22c7.33-3.99,16.89,5.45,22.76,9.27,1.85,1.28,3.86,2.56,5.9,3.51,1.28.72,2.77.94,4.22.83,1.81-.21,3.48-1.46,5.06-2.3,3.02-1.82,6-3.89,9.27-5.23,2.9-1.21,6.19-1.63,9.27-.98,1.39.18,2.81,1.04,4.22,1.01,3.73-3.16,7.37-6.69,11.8-8.85,8.72-3.88,17.21-.72,24.45,4.64,3.96,2.81,7.72,6.02,11.8,8.65.68.48,1.67,1.01,2.53.83,1.06-.02,2.32.03,3.37.13,3.7.32,7.33,1.43,10.96,2.11,3.07,0,6.21,0,9.27,0,4.01-.78,7.74-2.87,11.8-3.53,5.28-1.1,10.78-.73,16.02.4,2.38-1.12,4.59-2.79,6.75-4.29"/><path class="b" d="M11.26,150.29c7.12-3.93,16.36,6.25,21.92,10.06,1.57,1.16,3.33,2.34,5.06,3.25,1.02.46,2.21,1.25,3.37,1.12,1.06-.03,2.33.1,3.37-.15,1.09-.45,2.35-1.09,3.37-1.67,3.05-1.73,6.03-3.77,9.27-5.13,3.97-1.77,8.58-1.87,12.65-.35,4.24-3.38,8.31-7.38,13.49-9.27,12.08-3.63,21.97,3.97,31.2,10.65,1.04.73,2.3,1.59,3.37,2.28.39.32,1.17.67,1.69.61,3.64-.54,7.41-.14,10.96.78,2.8.67,5.6,1.73,8.43,2.25,2.21,0,4.53,0,6.75,0,4.83-1.33,9.34-3.87,14.33-4.62,4.46-.81,9.09-.43,13.49.57.38.15,1.28.22,1.69.13.4-.27,1.29-.83,1.69-1.11,1.07-.74,2.34-1.66,3.37-2.44"/><path class="b" d="M11.26,147.91c6.74-3.6,15.13,6.07,20.24,9.78,2.32,1.83,4.84,3.62,7.59,4.73,1.03.28,2.31.14,3.37.17,2.14.28,4.09-.95,5.9-1.91,2.49-1.38,5-2.95,7.59-4.14,3.9-1.89,8.47-2.47,12.65-1.18.52-.09,1.32-.6,1.69-.96,1.05-.84,2.3-1.82,3.37-2.63,2.81-2.09,5.87-4.14,9.27-5.11,6.21-1.43,12.86.19,18.55,2.81,5.66,2.58,10.59,6.54,16.02,9.52,8.02-2.49,14.47.47,21.92,3.03,1.58.66,3.38.61,5.06.58,1.74.2,3.47-.52,5.06-1.14,10.16-4.45,15.93-6.15,26.98-3.16,1.39-.94,2.89-2.06,4.22-3.09"/><path class="b" d="M11.26,146.11c6.18-3.02,13.18,4.87,17.71,8.38,2.82,2.32,5.8,4.74,9.27,5.99,1.64,0,3.42,0,5.06,0,1.47-.08,2.91-1.03,4.22-1.64,2.5-1.31,5.01-2.83,7.59-3.99,4.11-1.95,8.23-2.28,12.65-1.34,4.6-3.36,9.39-7.16,15.18-8.06,3.37-.43,6.83.3,10.12.97,7.91,1.75,14.92,6.04,21.92,9.92,1.96-.28,3.89-1.37,5.9-1.62,6.54-1.36,12.7,1.87,18.55,4.34,1.86.74,3.85,1.62,5.9,1.41,1.74.09,3.46-.82,5.06-1.4,10.05-4.58,15.93-6.71,26.98-3.31,1.12-.69,2.34-1.67,3.37-2.47"/><path class="b" d="M11.26,144.85c3.93-1.76,7.89.91,10.96,3.2,3.4,2.59,6.56,5.62,10.12,7.99,1.28.85,2.78,1.69,4.22,2.25,2.21.13,4.53.03,6.74.06,3.8-1.39,7.25-3.71,10.96-5.3,3.41-1.51,7.27-2.24,10.96-1.54.84.34,1.88-.07,2.53-.63.74-.5,1.77-1.16,2.53-1.64,6.63-4.16,11.7-5.57,19.39-3.5,4.89,1.03,9.73,2.53,14.33,4.47,1.95.81,3.99,1.73,5.9,2.62,1.04.41,2.21,1.28,3.37,1.23,11.1-6.3,16.67-3.1,26.98,2.28,5.01,2.37,5.78,2.72,10.96.47,10.17-4.73,15.71-7.05,26.98-3.44.78-.52,1.79-1.3,2.53-1.88"/><path class="b" d="M11.26,144.09c4.36-1.63,8.48,1.61,11.8,4.08,2.75,2.12,5.47,4.46,8.43,6.28,1.01.62,2.27,1.27,3.37,1.7,1.05.14,2.32.07,3.37.09,1.35,0,2.86,0,4.22,0,3.21-1.12,6.2-2.94,9.27-4.36,4.15-2.03,8.93-3.08,13.49-1.97,5.19-2.86,10.72-6,16.86-5.49,2.27.11,4.55.8,6.75,1.36,2.79.71,5.66,1.43,8.43,2.22,2.81.79,5.67,1.7,8.43,2.66,1.65.48,3.34,1.42,5.06,1.6,13.24-9.02,17.71-6.33,30.35,1.39,1.85,1,3.84,2.1,5.9,2.58,1.73-.05,3.46-.95,5.06-1.53,5.39-2.37,10.79-5.43,16.86-5.32,3.44-.12,6.8.97,10.12,1.65.42-.31,1.27-.94,1.69-1.25"/><path class="b" d="M11.26,143.71c4.01-1.25,7.8,1.36,10.96,3.53,2.48,1.75,4.96,3.69,7.59,5.21,1.02.59,2.27,1.21,3.37,1.62.75.05,1.78.04,2.53.04,1.93-.03,3.98.07,5.9-.06,2.6-.92,5.11-2.29,7.59-3.48,4.64-2.37,10-3.86,15.18-2.51,5.7-2.98,12.08-5.08,18.55-3.59,1.97.38,3.97,1.11,5.9,1.64,3.04.85,6.2,1.58,9.27,2.31,1.93.46,3.98.95,5.9,1.44,1.35.27,2.83.91,4.22.88,9.03-6.56,15.28-12.09,26.14-4.87,4.43,2.78,8.51,6.37,13.49,8.14.78.21,1.79-.13,2.53-.37,1.07-.35,2.33-.84,3.37-1.28,3.58-1.59,7.1-3.54,10.96-4.38,4.74-1.14,9.73-.46,14.33.97.51-.04,1.32-.49,1.69-.83"/><path class="b" d="M11.26,143.59c4-.96,7.71,1.44,10.96,3.45,2.96,1.8,5.9,4.02,9.27,4.96,1.36,0,2.86,0,4.22,0,1.36,0,2.86,0,4.22,0,3.25-.84,6.2-2.74,9.27-4.05,4.42-2.12,9.52-3.14,14.33-1.81,3.27-1.13,6.61-2.44,10.12-2.6,5.23-.45,10.27,1.32,15.18,2.88,3.58,1,7.3,1.69,10.96,2.33,6.59,1.09,4.81,1.71,10.12-2.54,4.78-3.86,10.22-8.97,16.86-7.72,6.66,1.46,11.35,6.99,16.86,10.6,1.8,1.16,3.78,2.45,5.9,2.92,1.42,0,2.9-.7,4.22-1.15,10.58-4.8,14.31-6.7,26.14-3.8l.84-.57"/><path class="b" d="M11.26,143.58c4.95-.8,9.26,2.48,13.49,4.51,1.58.68,3.29,1.84,5.06,1.79,2.79,0,5.65,0,8.43,0,1.76-.2,3.46-1.22,5.06-1.91,3-1.44,6.05-3.05,9.27-3.93,2.16-.59,4.51-.83,6.74-.59,1.38.08,2.84.64,4.22.67,1.61-.52,3.38-.95,5.06-1.18,4.23-.62,8.57.02,12.65,1.19,3.08.85,6.14,2.09,9.27,2.74,2.48.54,5.07.93,7.59,1.24,1.05.13,2.32.27,3.37.39.46.14,1.27.01,1.69-.23,5.18-3.36,9.16-8.33,14.33-11.69,6.46-4.36,12.19-2.2,17.71,2.44,4.86,3.78,9.13,9,15.18,10.86,3.61.13,6.83-2.14,10.12-3.34,6.35-2.79,12.73-3.02,19.39-1.2l.84-.53"/><path class="b" d="M11.26,143.51c5.12-.54,9.63,2.56,14.33,4.05,1.04.33,2.31.16,3.37.2,1.36,0,2.86,0,4.22,0,1.36-.03,2.87.09,4.22-.1,1.09-.37,2.33-.91,3.37-1.39,7.34-3.64,13.58-7.09,21.92-4.11,9.51-1.49,14.72.63,23.61,3.37,4.36,1.28,8.97,1.67,13.49,1.95,7.3-3.56,11.73-11.01,18.55-15.27,6.27-4.05,11.88-1.19,16.86,3.34,4.86,4.2,9.09,9.6,15.18,12.1,1.04.2,2.32.1,3.37.12,2.02-.39,3.99-1.37,5.9-2.1,4.51-1.87,9.41-3.19,14.33-2.8,1.95.04,3.97.67,5.9.73l.84-.49"/><path class="b" d="M11.26,143.25c4.08-.29,7.93,1.43,11.8,2.39,4.19-.1,8.47.2,12.65-.13,5.7-2.02,10.76-5.97,16.86-6.82,2.22-.31,4.57-.15,6.74.39,1.39.28,2.82,1.01,4.22,1.24.43-.03,1.26-.07,1.69-.08,8.18-.14,15.66,3.85,23.61,5.15,1.91.36,3.97.21,5.9.24,1.35-.08,2.93.24,4.22-.27,7.8-3.86,12.19-12.11,19.39-16.8,5.89-3.95,11.33-1.38,16.02,3.01,5.44,4.73,9.88,11.55,16.86,14.06,1.64-.03,3.42.07,5.06-.07,2.23-.69,4.52-1.59,6.75-2.29,5.13-1.73,10.7-2.14,16.02-1.12.43-.2,1.27-.62,1.69-.84"/><path class="b" d="M11.26,142.64c2.53-.08,5.11.39,7.59.88,4.48,0,9.01,0,13.49,0,1.46.13,2.92-.67,4.22-1.23,1.97-.91,3.97-2.03,5.9-3.02,4.84-2.65,10.56-4.43,16.02-2.73,2.02.44,3.91,1.65,5.9,2.09,5.21.36,10.19,2.23,15.18,3.64,1.63.46,3.4.91,5.06,1.23,1.35.03,2.86.01,4.22.01,1.93,0,3.97,0,5.9,0,1.06-.04,2.35.14,3.37-.21,8.6-4.15,12.95-13.73,21.08-18.55,6.09-3.64,11.74.41,16.02,4.81,4.13,3.86,11.21,13.56,16.86,13.94,1.93,0,3.97,0,5.9,0,2.54-.51,5.06-1.49,7.59-2.04,2.73-.66,5.62-1.03,8.43-1,1.35-.03,2.87.24,4.22.15.73-.36,1.79-.84,2.53-1.19"/><path class="b" d="M11.26,141.4c6.73,0,13.5,0,20.24,0,7.45-2.29,13.7-8.78,21.92-8.31,4.23.2,8.12,2.2,11.8,4.12,2.55.49,5.12,1.28,7.59,2.05,2.48.77,5.05,1.57,7.59,2.11,2.21.07,4.53.01,6.74.03,3.35-.05,6.77.11,10.12-.07,8.79-4.02,13.13-13.71,21.08-18.89,6.06-4.05,11.58-.58,16.02,4,5.17,5.03,9.32,11.63,16.02,14.79,2.74.41,5.66.06,8.43.17,1.68.13,3.44-.28,5.06-.69,1.91-.44,3.96-.83,5.9-1.06,2.2-.37,4.56-.08,6.74-.4,1.34-.59,2.86-1.25,4.22-1.81"/><path class="b" d="M11.26,139.28c5.89,0,11.82,0,17.71,0,1.14.12,2.35-.51,3.37-.94,1.7-.77,3.45-1.76,5.06-2.69,4.85-2.86,10.16-6.12,16.02-5.4,3.95.44,7.56,2.39,10.96,4.32,1.06.59,2.29,1.34,3.37,1.87,1.06.33,2.32.74,3.37,1.08,1.91.62,3.94,1.25,5.9,1.7,2.21.13,4.53.03,6.74.06,4.2,0,8.45,0,12.65,0,8.13-2.62,13.88-13.75,21.08-18.56,5.97-4.3,11.38-1.52,16.02,3.16,4.37,3.95,11.94,15.05,17.71,15.41,4.2,0,8.45,0,12.65,0,2.78-.32,5.62-.89,8.43-.99,1.13.06,2.33-.65,3.37-1.03,1.63-.67,3.4-1.4,5.06-1.99"/><path class="b" d="M11.26,137.16c5.61,0,11.25,0,16.86,0,8.47-2.31,15.05-10.89,24.45-9.91,6.66.76,11.88,5.5,17.71,8.36,1.27.69,2.81,1.14,4.22,1.48,2.21.16,4.53.03,6.74.07,5.04,0,10.13,0,15.18,0,7.58-2.51,13.03-12.05,19.39-16.87,6.11-5.01,11.52-3.47,16.86,1.69,5.29,4.72,10.16,12.66,16.86,15.18,4.2,0,8.45,0,12.65,0,1.35,0,2.87,0,4.22,0,1.06-.04,2.36.15,3.37-.23,3.69-1.17,7.25-2.9,10.96-4.02"/><path class="b" d="M11.26,135.04c5.04,0,10.13,0,15.18,0,1.15.12,2.35-.55,3.37-.98,2.02-.95,4.03-2.19,5.9-3.4,7.9-5.3,14.37-9.17,23.61-4.01,3.75,2,7.2,4.64,10.96,6.63,1.3.67,2.79,1.39,4.22,1.75,1.06,0,2.31,0,3.37,0,6.45-.08,12.95.16,19.39-.1,6.89-3.02,11.21-9.67,16.86-14.35,5.66-4.93,10.98-5.43,16.86-.47,4.93,3.69,12.01,13.95,17.71,14.92,4.2,0,8.45,0,12.65,0,2.16-.12,4.66.27,6.74-.22,4.25-1.36,8.31-3.45,12.65-4.53"/><path class="b" d="M11.26,132.92c5.04,0,10.13,0,15.18,0,9.73-2.8,17.56-14.36,28.67-10.6,4.95,1.63,9.07,5.05,13.49,7.7,2.09,1.14,4.33,2.69,6.75,2.9,7.3,0,14.62,0,21.92,0,5.77-2.05,9.79-7.15,14.33-11.03,5.4-4.91,11.07-7.75,17.71-3.03,4.98,2.96,13.38,14.36,18.55,14.06,3.92,0,7.89,0,11.8,0,2.17-.13,4.68.33,6.75-.32,4.79-1.61,9.33-4.16,14.33-5.1"/><path class="b" d="M11.26,130.81c3.07,0,6.21,0,9.27,0,1.93-.08,4.02.22,5.9-.28,3.42-.66,6.38-2.69,9.27-4.51,5-3.22,10.62-6.97,16.86-5.96,7.93,1.35,13.65,7.87,21.08,10.51,1.01.41,2.31.2,3.37.25,1.64,0,3.42,0,5.06,0,4.76,0,9.57,0,14.33,0,4.3,0,10.15-6.06,13.49-8.71,5.54-4.83,11.54-8.49,18.55-3.93,5.49,3.4,9.53,8.82,15.18,11.98.94.65,2.27.73,3.37.66,1.05,0,2.32,0,3.37,0,4.2,0,8.45,0,12.65,0,2.33-.36,4.57-1.58,6.75-2.46,3.5-1.54,7.13-3.1,10.96-3.54"/><path class="b" d="M11.26,128.69c3.07,0,6.21.02,9.27-.01,5.54-.95,10.73-3.31,16.02-5.11,2.06-.63,3.91-2.02,5.9-2.82,4.47-2.14,9.75-2.42,14.33-.46,3.84,1.52,7.34,3.9,10.96,5.85,2.36,1.15,4.87,2.78,7.59,2.54,7.3,0,14.62,0,21.92,0,5.21-1.48,9.18-5.64,13.49-8.71,5.18-3.99,10.76-6.23,16.86-2.64,5.48,2.98,9.49,8.29,15.18,10.89,1.94.03,3.97.35,5.9.46,2.21,0,4.53,0,6.74,0,2.21-.09,4.56.2,6.75-.16,6.17-2.08,11.86-6.09,18.55-6.31"/><path class="b" d="M11.26,126.57c9.23.18,17.47-4.56,26.14-6.96,2.72-.7,5.63-1.03,8.43-.76,2.5-.26,5.1-.54,7.59.03,4.5.89,8.56,3.24,12.65,5.22,1.88.91,3.9,1.8,5.9,2.4,1.05.12,2.31.06,3.37.07,7.3,0,14.62,0,21.92,0,4.72-1.48,8.6-4.84,12.65-7.56,5.18-3.68,10.84-5.86,16.86-2.63,4.87,2.47,8.75,6.56,13.49,9.22,0,0,.84.42.84.42l.84-.02c1.05-.02,2.32.01,3.37.08,1.65.07,3.41.39,5.06.48,3.07,0,6.21,0,9.27,0,2.96-.62,5.69-2.27,8.43-3.49,3.93-1.89,8.21-3.59,12.65-3.35"/><path class="b" d="M11.26,123.34c4.63-.43,9.16-1.73,13.49-3.39,4.66-1.73,9.34-3.8,14.33-4.32,4.65-.53,9.32.74,13.49,2.75.71.42,1.75.57,2.53.75,1.38.34,2.88.82,4.22,1.31,3.64,1.32,7.21,3.04,10.96,4.01,2.78,0,5.65,0,8.43,0,2.78,0,5.65,0,8.43,0,3.87-.84,7.87-1.05,11.8-.73,6.94-2.8,12.5-9.16,20.24-9.8,6.55-.34,11.72,4.46,16.86,7.83,1.29.84,2.77,1.79,4.22,2.34,2.21-.18,4.53-.22,6.75-.06,2.78.32,5.63.51,8.43.41,1.05-.02,2.33.06,3.37-.09.75-.26,1.8-.66,2.53-.98,6.16-2.75,12.33-7.03,19.39-6.03"/><path class="b" d="M11.26,119.46c12.81-1.59,23.13-11.27,36.25-5.57,3.83,1.56,7.36,3.86,10.96,5.86,1.89.68,3.97,1.2,5.9,1.79,1.05.28,2.29.67,3.37.8,1.64,0,3.42,0,5.06,0,3.63,0,7.33,0,10.96,0,2.26-.33,4.48-1.32,6.75-1.67,3.32-.67,6.8-.52,10.12.04,7.78-3.76,15.33-10.62,24.45-6.57,4.8,1.96,8.8,5.52,13.49,7.7.98.61,2.29.36,3.37.27,1.05-.08,2.32-.14,3.37-.14,2.8-.07,5.64.48,8.43.37,1.05,0,2.32,0,3.37,0,.78-.19,1.8-.6,2.53-.92,3.42-1.5,6.67-3.53,10.12-4.97,3.41-1.47,7.29-2.18,10.96-1.38"/><path class="b" d="M11.26,115.17c4.32-.84,8.53-2.28,12.65-3.81,6.13-2.34,13-4.08,19.39-1.72,7.02,2.35,12.53,7.76,19.39,10.43,2.19.31,4.53.06,6.75.14,3.92,0,7.89,0,11.8,0,1.12.03,2.33-.6,3.37-.96,1.9-.75,3.91-1.58,5.9-2.07,3.86-1.03,7.98-.71,11.8.3,5.22-2.09,10.14-5.77,16.02-5.71,7.33-.05,12.98,5.37,19.39,8.11.98.53,2.3.29,3.37.34,1.35.03,2.86-.05,4.22-.12,2.5-.13,5.09.18,7.59.12,1.05,0,2.32.02,3.37-.03,1.4-.48,2.9-1.16,4.22-1.83,3.06-1.56,6.07-3.41,9.27-4.68,3.44-1.41,7.36-1.84,10.96-.81"/><path class="b" d="M11.26,110.64c16.05-3.91,23.13-10.87,38.78.18,3.81,2.53,7.51,5.48,11.8,7.16,1.92.23,3.97.05,5.9.11,2.78,0,5.65,0,8.43,0,1.97-.02,4.12.25,5.9-.78,3.06-1.36,6.02-3.16,9.27-4.03,2.43-.68,5.09-.82,7.59-.43,1.98.24,3.96,1.02,5.9,1.43,9.26-4.49,15.22-5.31,24.45-.16,1.92,1.01,3.93,2.14,5.9,3.05,1.01.44,2.23,1.06,3.37.93,4.48,0,9.01,0,13.49,0,1.06,0,2.32.02,3.37-.03,1.4-.49,2.9-1.18,4.22-1.87,3.33-1.73,6.58-3.83,10.12-5.14,3.48-1.34,7.43-1.52,10.96-.29"/><path class="b" d="M11.26,106.04c15.42-4.09,22.7-9.08,37.1,1.62,2.78,1.98,5.54,4.17,8.43,6,1.56.88,3.25,2.1,5.06,2.31,2.78,0,5.65,0,8.43,0,2.5,0,5.09,0,7.59,0,2.07-.07,4.09-1.66,5.9-2.59,2.91-1.75,5.93-3.6,9.27-4.39,2.74-.67,5.71-.53,8.43.19,2,.46,3.96,1.44,5.9,2.04,12.63-4.88,17.6.13,28.67,4.61,3.6.35,7.33.04,10.96.14,1.64,0,3.42,0,5.06,0,1.06-.05,2.37.17,3.37-.27,8.35-3.39,15.64-10.87,25.29-6.99"/><path class="b" d="M11.26,101.55c4.14-1.28,8.42-2.26,12.65-3.2,6.03-1.37,12.41-.51,17.71,2.74,5.1,2.93,9.44,7.07,14.33,10.31,4.18,2.7,4.48,2.53,9.27,2.45,3.63,0,7.33,0,10.96,0,6.05-.14,12.66-10.44,22.76-9.42,2.62.23,5.21,1.13,7.59,2.22,1.07.49,2.33,1.13,3.37,1.68.76.24,1.77-.07,2.53-.19,6.15-1.13,12.2,1.08,17.71,3.63,1.9.73,3.86,1.88,5.9,2.08,3.63,0,7.33,0,10.96,0,2.21,0,4.53,0,6.74,0,1.46-.14,2.91-1.01,4.22-1.61,2.54-1.3,5.05-2.87,7.59-4.17,4.7-2.57,10.14-3.55,15.18-1.33"/><path class="b" d="M11.26,97.36c3.81-1.26,7.86-1.84,11.8-2.51,7.98-1.34,14.75,1.05,21.08,5.85,4.52,3.26,8.61,7.24,13.49,9.97.73.39,1.72.89,2.53,1.07.76,0,1.77,0,2.53,0,1.93,0,3.97,0,5.9,0,1.93,0,3.97,0,5.9,0,.43,0,1.26,0,1.69,0,.83-.11,1.81-.65,2.53-1.05,11.11-7.14,16.23-15.11,30.35-7.29,1.67.92,3.43,1.99,5.06,2.99,2.23.05,4.57.15,6.74.68,4.65,1.02,8.96,3.25,13.49,4.63,5.89.12,11.82,0,17.71.04,2.75.28,5.23-1.43,7.59-2.61,6.71-3.85,13.24-7.83,21.08-4.31"/><path class="b" d="M11.26,93.6c4.05-1.33,8.43-1.57,12.65-1.92,7.58-.57,14.42,2.66,20.24,7.26,4.94,3.66,9.42,8.28,15.18,10.67,4.76.03,9.57,0,14.33.01.76,0,1.78.04,2.53-.13,1.45-.64,2.94-1.58,4.22-2.51,2.86-2.11,5.54-4.6,8.43-6.66,7.03-5.25,13.54-5.67,21.08-1.12,3.18,1.84,6.2,4.08,9.27,6.07,4.3.93,8.49,2.43,12.65,3.84,2.39.91,5.09.39,7.59.51,3.92,0,7.89,0,11.8,0,.74,0,1.79,0,2.53,0,1.74-.41,3.47-1.33,5.06-2.13,7.06-3.85,13.71-8.26,21.92-4.56"/><path class="b" d="M11.26,90.39c2.15-.74,4.49-.93,6.75-1,2.21-.12,4.53-.22,6.74-.11,8.79.16,16.23,5.38,22.76,10.77,2.43,1.93,4.94,3.95,7.59,5.59,1.02.62,2.27,1.28,3.37,1.73,1.05.22,2.31.11,3.37.13,4.2,0,8.45,0,12.65,0,3.31-.03,8.34-5.19,10.96-7.3,2.63-2.25,5.38-4.54,8.43-6.2,6.83-3.91,13.37-1.76,19.39,2.51,4.51,3.04,8.63,6.81,13.49,9.29,1.92.58,3.95,1.22,5.9,1.7,1.64,0,3.42,0,5.06,0,4.48,0,9.01,0,13.49,0,1.05-.03,2.34.1,3.37-.15,2-.7,4.03-1.7,5.9-2.69,6.47-3.58,12.84-6.84,20.24-3.58"/><path class="b" d="M11.26,87.81c2.44-.79,5.07-.66,7.59-.58,3.08.06,6.25.21,9.27.85,7.01,1.37,13,5.59,18.55,9.88,3.46,2.61,6.95,5.43,10.96,7.15,2.18.34,4.54-.11,6.74-.09,3.91-.15,7.89-.27,11.8-.34,1.23-.15,2.37-1.18,3.37-1.85,1.41-1.05,2.9-2.34,4.22-3.52,4.43-3.86,8.78-8.26,14.33-10.47,6.71-2.78,13.39,1.05,18.55,5.22,4.14,3.22,8.06,6.88,12.65,9.48,1.29.71,2.8,1.43,4.22,1.84,1.35,0,2.87,0,4.22,0,3.63,0,7.33,0,10.96,0,1.35,0,2.87,0,4.22,0,.76,0,1.82.06,2.53-.3,8.5-3.17,15.69-9.83,25.29-5.85"/><path class="b" d="M11.26,85.89c2.75-.78,5.65-.25,8.43-.02,5.18.41,10.43,1.31,15.18,3.53,4.52,2.05,8.62,4.98,12.65,7.84,2.44,1.57,4.81,3.7,7.59,4.61,7.57-.48,15.19-.38,22.76-.04,11.41-7,21.17-25.17,36.25-14.58,7.54,4.97,13.19,12.96,21.92,16.02,6.45-.07,12.95.14,19.39-.08,4.09-1.28,7.84-3.54,11.8-5.14,4.24-1.82,9.12-2.3,13.49-.65"/><path class="b" d="M11.26,84.61c2.79-.65,5.66.13,8.43.5,3.67.51,7.41,1.09,10.96,2.18,7.4,2.17,13.71,6.78,20.24,10.71,6.16-.6,12.39-.6,18.55.03,2.22.21,4.53.47,6.75.73,1.4.13,3.11.68,4.22-.5,3.84-2.95,7.38-6.39,10.96-9.65,4.48-3.99,9.61-8.74,16.02-8.48,8.59.74,14.88,9.35,21.08,14.59,2.99,2.6,6.26,5.26,10.12,6.41,2.5,0,5.09,0,7.59,0,3.07,0,6.21,0,9.27,0,1.73-.12,3.46-1.02,5.06-1.63,6.4-2.88,13.08-6.39,20.24-3.97"/><path class="b" d="M11.26,83.9c3.7-.53,7.33.98,10.96,1.43,4.27.73,8.58,1.65,12.65,3.18,4.09,1.49,7.97,3.62,11.8,5.66,12.72-2.82,21.56.25,33.73,2.44,4.89-3.45,9.17-7.77,13.49-11.89,5.77-5.54,12.97-11.35,21.08-6.57,8.15,4.79,13.26,13.34,21.08,18.56,1.53.94,3.25,2.06,5.06,2.31,2.78,0,5.65,0,8.43,0,2.5,0,5.09,0,7.59,0,3.17-.88,6.23-2.32,9.27-3.56,4.48-1.91,9.53-3.1,14.33-1.78"/><path class="b" d="M11.26,83.65c3.45-.32,6.75,1.2,10.12,1.7,5.98,1.08,12.03,2.2,17.71,4.42,1.06.32,2.23,1.15,3.37.98,1.9-.67,3.94-1.3,5.9-1.74,11.62-2.92,21.92,2.62,32.88,5.42,4.44-2.63,8.17-6.47,11.8-10.1,4.97-4.77,10.23-11.5,17.71-11.62,5.98.28,10.42,5.08,14.33,9.1,4.52,4.74,8.66,10.15,14.33,13.58,1,.57,2.25,1.2,3.37,1.5,1.35,0,2.87,0,4.22,0,3.63,0,7.33,0,10.96,0,2.01-.25,4.01-1.18,5.9-1.87,5.31-2.17,11.03-4.49,16.86-3.25"/><path class="b" d="M11.26,83.72c3.47-.11,6.73,1.48,10.12,1.98,5.4.91,10.67,1.85,16.02,2.99,10.12-5.52,17.67-7.56,28.67-2.82,5.32,2.19,10.47,4.97,16.02,6.58,1.89-.58,3.48-2.21,5.06-3.35,3.35-2.76,6.33-6.07,9.27-9.24,3.71-3.87,7.47-8.27,12.65-10.13,7.33-2.44,13.28,4.22,17.71,9.13,3.55,4,6.91,8.34,10.96,11.85,1.98,1.68,4.26,3.25,6.75,4.06.75,0,1.78,0,2.53,0,2.78,0,5.65,0,8.43,0,1.93-.08,4.05.27,5.9-.41,6.31-1.96,12.57-5.47,19.39-4.51"/><path class="b" d="M11.26,83.96c2.89.02,5.63,1.24,8.43,1.79,3.88.81,7.88,1.2,11.8,1.73,1.3.41,2.37-.41,3.37-1.1,1.64-1.07,3.4-2.24,5.06-3.27,5.81-3.77,12.53-6.3,19.39-3.95,6.06,1.94,11.24,5.87,16.86,8.72,1.6.82,3.37,1.63,5.06,2.26.76.26,1.72.75,2.53.42,5.35-3.05,9.5-7.78,13.49-12.38,4.34-4.69,8.58-10.74,15.18-12.17,9.59-1.63,18.17,14.19,24.45,20.19,2.5,2.48,6.46,6.39,10.12,6.47,4.76,0,9.57,0,14.33,0,6.45-1.58,12.56-5.24,19.39-4.78"/><path class="b" d="M11.26,84.19c2.58.12,5.09,1.09,7.59,1.63,3.31.7,6.75,1,10.12,1.27,9.19-5.63,18.39-17.65,30.35-12.21,7.87,3.45,13.91,10.14,21.92,13.36,1.04.34,2.26,1.13,3.37.77,1.43-.74,2.95-1.7,4.22-2.69,7.73-6.07,12.38-15.3,20.24-21.21,6.45-4.77,12.16-1.3,16.86,3.92,6.58,6.89,11.47,16.8,20.24,21.1.97.54,2.31.41,3.37.42,1.64,0,3.42,0,5.06,0,2.78,0,5.65.01,8.43,0,5.9-1.5,11.5-4.6,17.71-4.67"/><path class="b" d="M11.26,84.26c2.27.18,4.54.88,6.75,1.37,2.47.5,5.07.76,7.59.92,7.02-3.64,11.91-10.36,18.55-14.57,13.53-9.11,23.02,6.76,33.73,12.81,2.08,1.24,4.41,2.28,6.74,2.91,1.5-.27,2.95-1.27,4.22-2.07,8.22-5.86,12.79-15.4,20.24-22.07,7.19-6.48,13.08-2.96,18.55,3.46,5.87,6.63,10.18,15.02,17.71,20.01.99.57,2.21,1.31,3.37,1.4,1.93,0,3.97,0,5.9,0,2.21,0,4.53,0,6.75,0,1.35-.04,2.91.16,4.22-.29,5.04-1.45,9.89-3.89,15.18-4.34"/><path class="b" d="M11.26,84.02c3.93.47,7.82,1.63,11.8,1.71,5.7-2.52,9.94-7.38,14.33-11.63,13.99-14.42,20.29-9.01,32.88,3.03,4.33,4.02,9.24,7.92,15.18,9.11,5.77-1.77,9.85-6.67,13.49-11.22,4.67-5.47,11.44-17.66,19.39-17.28,8.43.65,16.12,16.02,21.92,22.01,2.35,2.63,5.1,5.19,8.43,6.47,3.34.2,6.77.02,10.12.08,2.21,0,4.53,0,6.75,0,5.16-1.14,9.92-3.86,15.18-4.66"/><path class="b" d="M11.26,83.37c3.62.38,7.32,1.24,10.96.67,8.83-3.63,13.75-12.59,21.08-18.28,4.32-3.53,9.38-4.72,14.33-1.68,6.49,3.97,10.97,10.44,16.86,15.16,3.76,3.05,8.49,5.81,13.49,4.79,7.2-2.9,11.45-10,16.02-15.89,5.39-7.14,12.73-17.71,21.92-9,6.79,6.34,10.9,15.08,17.71,21.4,1.7,1.49,3.68,3.04,5.9,3.64,1.64,0,3.42,0,5.06,0,3.92,0,7.89,0,11.8,0,4.94-.92,9.41-3.7,14.33-4.76"/><path class="b" d="M11.26,82.07c3.63,0,7.33,0,10.96,0,7.56-2.87,12.1-10.22,17.71-15.64,14.75-15.76,22.67,1.5,33.73,10.85,2.45,2.07,5.29,3.98,8.43,4.79,2.22,0,4.53,0,6.75,0,3.77-.31,7.72-4.75,10.12-7.48,3.81-4.55,7.06-9.67,10.96-14.14,4.52-5.25,9.91-8.56,16.02-3.34,6.68,5.81,10.67,14.07,16.86,20.33,1.91,1.88,4.15,3.79,6.75,4.62,1.35,0,2.87,0,4.22,0,3.07,0,6.21,0,9.27,0,1.93-.1,4.05.29,5.9-.37,4-1.3,7.79-3.33,11.8-4.59"/><path class="b" d="M11.26,79.95c3.92-.02,7.89.05,11.8-.03,6.37-2.66,10.53-8.6,15.18-13.42,15.56-17.78,22.45-1.74,34.57,9,2.22,1.87,4.75,3.71,7.59,4.45,1.93,0,3.97,0,5.9,0,1.64,0,3.42,0,5.06,0,3-1.09,5.46-3.43,7.59-5.73,3.93-4.37,7.16-9.42,10.96-13.9,4.7-5.64,10.31-9.62,16.86-3.86,6.73,5.17,15.45,23.13,23.61,23.5,3.92,0,7.89,0,11.8,0,2.15-.12,4.68.27,6.74-.22,4.06-1.31,7.83-3.51,11.8-5.04"/><path class="b" d="M11.26,77.83c4.2-.02,8.45.04,12.65-.02,6.66-2.88,10.89-9.25,16.02-14.11,14.38-14.91,22.03,2.35,32.88,10.9,1.75,1.32,3.74,2.73,5.9,3.23,2.5,0,5.09,0,7.59,0,2.22,0,4.53,0,6.75,0,2.6-1.05,4.83-3.05,6.74-5.05,3.93-4.19,7.15-9.09,10.96-13.38,4.48-5.12,9.86-8.64,16.02-3.64,7.71,5.95,12.9,18.47,21.92,22.07,4.2,0,8.45,0,12.65,0,2.49-.1,5.12.22,7.59-.16,4.12-1.36,7.87-3.73,11.8-5.53"/><path class="b" d="M11.26,75.71c4.48,0,9.01,0,13.49,0,7.9-3.15,12.34-11.31,19.39-15.77,11.77-7.72,19.96,8.36,28.67,13.8,1.5.92,3.21,2.14,5.06,1.97,2.78,0,5.65,0,8.43,0,2.78-.06,5.66.13,8.43-.09,2.97-1.36,5.41-3.77,7.59-6.15,4.18-4.56,7.67-9.97,12.65-13.73,4.21-3.21,8.69-2.7,12.65.64,6.7,5.22,12.36,16.58,20.24,19.34,4.48,0,9.01,0,13.49,0,1.35,0,2.87,0,4.22,0,1.05-.04,2.35.13,3.37-.21,4.18-1.46,7.91-4.02,11.8-6.06"/><path class="b" d="M11.26,73.59c5.04-.05,10.14.11,15.18-.07,8.41-3.44,13.52-13.46,22.76-14.96,9.31-.73,15.81,10.37,23.61,14.21,2.05,1.3,4.42.69,6.74.82,3.63,0,7.33,0,10.96,0,1.06,0,2.32,0,3.37,0,.77,0,1.81.08,2.53-.27,5.16-2.69,8.7-7.6,12.65-11.72,5.78-6.29,11.72-10.67,19.39-4.09,5.07,3.81,12.65,15.37,18.55,16.08,7.02-.03,14.06.06,21.08-.03,4.57-1.52,8.52-4.49,12.65-6.9"/><path class="b" d="M11.26,71.47c5.33,0,10.69,0,16.02,0,1.18.08,2.36-.75,3.37-1.26,1.73-.99,3.47-2.27,5.06-3.48,5.2-4.05,11.54-9.39,18.55-6.74,4.77,1.73,8.55,5.36,12.65,8.22,2.05,1.33,4.2,3.1,6.75,3.14,7.56.29,15.19.02,22.76.11,4.49-.28,11.43-8.91,15.18-11.83,5.95-5.25,11.39-5.97,17.71-.76,3.83,3.05,7.1,6.87,10.96,9.89,1.25.97,2.76,1.95,4.22,2.58,1.04.21,2.32.1,3.37.13,4.2,0,8.45,0,12.65,0,2.49-.12,5.17.34,7.59-.38,4.77-1.03,8.58-4.34,12.65-6.83"/><path class="b" d="M11.26,69.35c5.61,0,11.25,0,16.86,0,7.64.43,15.35-12.8,26.98-8.5,4.87,1.76,8.88,5.28,13.49,7.56,1.65.1,3.42.19,5.06.4,3.39.62,6.69.58,10.12.54,4.76,0,9.57,0,14.33,0,4.19-.28,11.15-7.84,15.18-10.18,5.94-4.05,11.29-3.2,16.86.99,2.86,2.07,5.55,4.52,8.43,6.56,1.54,1.01,3.23,2.26,5.06,2.63,2.78,0,5.65,0,8.43,0,4.46-.11,9.06.22,13.49-.14,3.13-.82,6.22-2.02,9.27-3.08,2.03-1.09,3.96-2.62,5.9-3.85"/><path class="b" d="M11.26,66.86c2.43.69,5.09.27,7.59.38,4.48,0,9.01,0,13.49,0,4.16-1.18,7.76-3.92,11.8-5.44,3.72-1.56,7.99-1.81,11.8-.44,2.31.77,4.58,1.95,6.74,3.07.75.39,1.77.91,2.53,1.28.45.29,1.17.46,1.69.34,4.23-.24,8.5.32,12.65,1.12,2.49.17,5.09.03,7.59.07,4.49.16,9-.42,13.49-.23,1.18.11,2.36-.78,3.37-1.27,1.39-.78,2.89-1.75,4.22-2.63,4.87-3.35,10.78-6.92,16.86-4.8,6.15,1.85,10.73,7.15,16.86,8.93,4.76,0,9.57,0,14.33,0,1.64,0,3.42,0,5.06,0,1.06,0,2.35.08,3.37-.27,3.13-.84,6.22-2.05,9.27-3.12,1.33-.51,2.91-.89,4.22-1.47.73-.51,1.79-1.22,2.53-1.73"/><path class="b" d="M11.26,63.45c1.65.54,3.39,1.21,5.06,1.66,3.63,0,7.33,0,10.96,0,2.5,0,5.09,0,7.59,0,3.49-.66,6.69-2.67,10.12-3.61,3.52-1.14,7.38-1.3,10.96-.31,1.68.44,3.45,1.09,5.06,1.73,1.06.36,2.23,1.09,3.37,1.08,2.48-.34,5.08-.52,7.59-.42,3.4.12,6.8.81,10.12,1.5,1.35.03,2.86.01,4.22.02,2.25.15,4.52-.41,6.75-.66,3.06-.35,6.22-.33,9.27-.03.76.07,1.78.26,2.53.05,1.38-.57,2.88-1.31,4.22-1.98,6.46-3.44,12.28-5.4,19.39-2.35,13.64,6.12,7.43,4.88,22.76,4.97,2.5,0,5.09,0,7.59,0,1.65-.04,3.46.18,5.06-.33,3.7-.97,7.32-2.4,10.96-3.57,1.04-.34,2.31-.71,3.37-.99.8-.19,1.9-.38,2.53-.97"/><path class="b" d="M11.26,59.57c2.24.94,4.48,2.13,6.75,3,3.65-.46,7.33.3,10.96.43,1.93,0,3.97,0,5.9,0,1.35-.05,2.89.15,4.22-.16,3.59-1.03,7.21-2.34,10.96-2.57,2.52-.17,5.14.15,7.59.76,1.66.28,3.37,1.24,5.06,1.15,2.2-.41,4.51-.77,6.75-.92,3.08-.21,6.24.02,9.27.58,2.23.32,4.48,1.22,6.74,1.16,1.09.08,2.32-.38,3.37-.58,1.63-.37,3.4-.69,5.06-.86,3.93-.42,7.93.02,11.8.69.42.07,1.27.22,1.69.29.42-.1,1.28-.36,1.69-.51,1.64-.56,3.4-1.2,5.06-1.69,4.07-1.29,8.49-1.59,12.65-.56,3.43.79,6.74,2.2,10.12,3.16,7.29.18,14.63,0,21.92.06,3.18.26,6.27-.86,9.27-1.77,4.15-1.3,8.34-2.75,12.65-3.43"/><path class="b" d="M11.26,55.26c1.68.86,3.43,1.91,5.06,2.88,1.03.52,2.15,1.57,3.37,1.33,1.65-.05,3.42.08,5.06.31,1.94.27,3.97.7,5.9,1.07,3.35.07,6.77,0,10.12.03,1.39.09,2.87-.35,4.22-.61,1.63-.33,3.4-.61,5.06-.73,2.22-.16,4.55-.03,6.75.31,1.36.16,2.84.65,4.22.65,2.77-.57,5.62-1.18,8.43-1.48,3.06-.33,6.24-.25,9.27.26,2.24.31,4.51,1.05,6.74,1.39,3.28-.96,6.68-1.91,10.12-2.04,5.15-.31,10.16,1.26,15.18,2.08,1.92-.41,3.96-.86,5.9-1.16,5.64-1,11.35.04,16.86,1.29,5.89.09,11.82,0,17.71.03,3.35-.07,6.78.15,10.12-.1,6.5-1.32,12.78-3.76,19.39-4.54"/><path class="b" d="M11.26,50.65c2.92,1.69,5.6,3.92,8.43,5.73,4.31-.07,8.5,1.27,12.65,2.23,1.62.29,3.42.08,5.06.14,2.5,0,5.09,0,7.59,0,2.23.08,4.52-.4,6.74-.41,2.51-.12,5.09.29,7.59.41,3.94-.41,7.83-1.77,11.8-2.06,4.83-.59,9.66.34,14.33,1.45,5.1-1.89,10.62-2.89,16.02-1.81,2.24.38,4.54.97,6.75,1.53,1.9.49,3.92,1.04,5.9.89,2.79.08,5.64-.24,8.43-.21,5.04.25,10.13.23,15.18.21,7.58-.03,15.19.06,22.76-.03,6.75-1.19,13.37-3.3,20.24-3.81"/><path class="b" d="M11.26,45.86c3.28,2.15,6.21,4.91,9.27,7.34,1.65.28,3.44.45,5.06.89,1.95.48,3.98,1.12,5.9,1.69,1.33.35,2.82.94,4.22.85,7.58,0,15.19,0,22.76,0,4,.21,7.86-1.4,11.8-1.88,5.04-.86,10.25-.41,15.18.92,6.38-2.55,11.88-3.12,18.55-1.28,2.79.7,5.62,1.61,8.43,2.24,3.92,0,7.89,0,11.8,0,7.86-.05,15.76.16,23.61-.21,3.92.15,7.88.28,11.8.21,7.02-.86,13.97-2.71,21.08-2.89"/><path class="b" d="M11.26,41.07c2.38,1.7,4.64,3.77,6.75,5.8,1.34,1.16,2.6,2.82,4.22,3.6,3.16.52,6.25,1.67,9.27,2.69,2.17.73,4.42,1.58,6.75,1.36,7.86,0,15.75,0,23.61,0,4.21-.64,8.37-1.96,12.65-2.24,3.66-.32,7.4.07,10.96.92,5.43-1.83,9.31-3.09,15.18-1.92,3.13.59,6.22,1.64,9.27,2.52.74.21,1.78.49,2.53.67,1.05.07,2.32.04,3.37.04,5.61,0,11.26,0,16.86,0,3.35-.08,6.8.24,10.12-.3,2.77-.37,5.65-.55,8.43-.31,2.5.26,5.06.78,7.59.61,2.8.03,5.65-.6,8.43-.89,4.46-.57,8.99-.99,13.49-1"/><path class="b" d="M11.26,36.44c2.73,2.08,5.24,4.6,7.59,7.09,1.05,1.1,2.28,2.41,3.37,3.47.45.47,1.01.97,1.69,1,4.01,1.05,7.83,2.84,11.8,4.01,2.41.74,5.1.25,7.59.38,3.92,0,7.89,0,11.8,0,2.78,0,5.65,0,8.43,0,3.63-.7,7.28-1.64,10.96-2.05,2.49-.29,5.09-.32,7.59-.06,1.36.07,2.85.61,4.22.44,4.22-1.8,8.93-2.73,13.49-1.87,4.31.72,8.42,2.44,12.65,3.49,2.21.1,4.53.02,6.74.05,6.45,0,12.94,0,19.39,0,2.79-.36,5.61-1.07,8.43-1.22,2.22-.16,4.55-.03,6.74.35,1.93.3,3.92,1.04,5.9.87,2.79.04,5.65-.41,8.43-.56,4.19-.3,8.45-.44,12.65-.35"/><path class="b" d="M11.26,32.15c2.74,2.19,5.27,4.81,7.59,7.43,1.91,1.99,3.62,4.5,5.9,6.06,3.7,1.15,7.28,2.8,10.96,3.98,2.13.88,4.5.64,6.75.66,3.35,0,6.77,0,10.12,0,4.2-.01,8.45.03,12.65-.02,3.07-.58,6.18-1.3,9.27-1.73,3.9-.59,7.91-.5,11.8.07,4.22-1.81,8.93-2.74,13.49-1.86,4.31.74,8.42,2.47,12.65,3.53,3.63.02,7.33,0,10.96,0,4.76,0,9.57.02,14.33-.01,3.88-.83,7.81-1.91,11.8-1.87,2.25,0,4.58.4,6.74.99,1.34.3,2.82.98,4.22.9,6.73.01,13.5-.38,20.24-.07"/><path class="b" d="M11.26,28.33c5.45,4.37,9.4,10.29,14.33,15.17,3.37,1.22,6.72,2.65,10.12,3.78,1.05.32,2.27.76,3.37.87,1.36,0,2.86,0,4.22,0,3.35,0,6.77,0,10.12,0,4.48,0,9.01,0,13.49,0,2.5-.42,5.08-.97,7.59-1.35,3.88-.62,7.89-.84,11.8-.37,1.68-.3,3.37-1.15,5.06-1.46,3.02-.71,6.24-.67,9.27-.06,3.71.73,7.31,2.13,10.96,3.09,3.6.37,7.33.04,10.96.15,4.76-.03,9.57.05,14.33-.03,2.79-.65,5.61-1.51,8.43-2.02,3.62-.69,7.44-.5,10.96.6,1.64.45,3.37,1.19,5.06,1.45,1.93,0,3.97,0,5.9,0,4.48,0,9.01,0,13.49,0"/><path class="b" d="M11.26,25.12c3.76,3.14,7.05,6.92,10.12,10.72,1.85,2.06,3.58,4.59,5.9,6.14,1.36.49,2.86,1.06,4.22,1.57,2.46.92,5.03,1.83,7.59,2.45,4.2.11,8.45.01,12.65.04,3.92,0,7.89,0,11.8,0,1.93-.03,3.97.06,5.9-.05,1.35-.22,2.86-.48,4.22-.71,4.43-.75,8.99-1.23,13.49-.87,4.55-1.74,9.57-2.31,14.33-1.17,3.4.72,6.74,1.93,10.12,2.76,3.91.09,7.89,0,11.8.04,4.2,0,8.45,0,12.65,0,3.09-.75,6.16-1.83,9.27-2.47,3.61-.79,7.45-.66,10.96.5,1.94.61,3.95,1.41,5.9,1.97,1.35,0,2.87,0,4.22,0,4.76,0,9.57,0,14.33,0"/><path class="b" d="M11.26,22.59c6.14,4.91,10.4,11.69,16.02,17.11,1.13,1,2.85,1.25,4.22,1.81,2.19.76,4.49,1.52,6.75,2.09,1.32.43,2.85.32,4.22.33,1.93,0,3.97,0,5.9,0,7.58,0,15.19,0,22.76,0,2.52-.16,5.08-.75,7.59-1.01,3.05-.41,6.2-.53,9.27-.53,4.59-1.59,9.6-1.87,14.33-.74,2.52.44,5.01,1.59,7.59,1.65,4.76.22,9.57.62,14.33.63,3.91-.09,7.91.19,11.8-.12,3.09-.81,6.16-1.97,9.27-2.67,3.59-.86,7.45-.81,10.96.39,1.66.54,3.41,1.25,5.06,1.83.72.25,1.75.66,2.53.57,5.61,0,11.26,0,16.86,0"/><path class="b" d="M11.26,20.76c2.32,1.99,4.68,4.15,6.75,6.41,3.07,3.42,5.9,7.2,9.27,10.33,1.72,1.86,4.47,2.07,6.74,2.87,1.91.54,3.94,1.12,5.9,1.43,2.5,0,5.09,0,7.59,0,7.02,0,14.06,0,21.08,0,1.93,0,3.97,0,5.9,0,2.79-.27,5.64-.76,8.43-1.01,1.92-.19,3.97-.28,5.9-.38,1.91-.42,3.94-.91,5.9-1.02,2.51-.19,5.12.05,7.59.52,1.35.12,2.86.04,4.22.08,9.01.09,18.01.94,26.98,1.63,1.7.33,3.46-.24,5.06-.78,2.2-.7,4.49-1.49,6.75-2.04,3.01-.74,6.25-.93,9.27-.19,3.16.75,6.14,2.35,9.27,3.18,5.61,0,11.26,0,16.86,0"/><path class="b" d="M11.26,19.63c2.59,2.21,5.29,4.5,7.59,7.02,3,3.27,5.85,6.85,9.27,9.71.88.88,2.2,1.23,3.37,1.49,1.06.27,2.31.59,3.37.84,1.64.36,3.39.82,5.06.99,2.78,0,5.65,0,8.43,0,7.3,0,14.62,0,21.92,0,2.5,0,5.09,0,7.59,0,1.94-.12,3.97-.47,5.9-.66,9.82-.9,19.63-2.52,29.51-2.34,7.64.1,15.21,1.38,22.76,2.42,1.1.3,2.33-.4,3.37-.67,1.92-.62,3.94-1.3,5.9-1.79,3.28-.84,6.84-1.01,10.12-.07,2.85.81,5.6,2.14,8.43,3.01,5.59.25,11.26.02,16.86.09"/><path class="b" d="M11.26,19.13c3.54,2.85,7.08,5.82,10.12,9.21,2.21,2.16,6.3,7.06,9.27,7.66,2.77.58,5.63,1.15,8.43,1.56,3.92,0,7.89,0,11.8,0,8.99,0,18,0,26.98,0,13.64.26,26.78-5.52,40.47-4.4,6.57.44,12.97,2.2,19.39,3.51,1.11.08,2.32-.53,3.37-.81,1.62-.52,3.39-1.05,5.06-1.41,3.02-.68,6.27-.76,9.27.05,2.85.76,5.61,2.06,8.43,2.93,1.9.3,3.98.07,5.9.14,3.63,0,7.33,0,10.96,0"/><path class="b" d="M11.26,19.16c2.2,1.77,4.6,3.46,6.75,5.3,3.08,2.73,5.95,5.85,9.27,8.29,1.25.96,2.6,1.77,4.22,1.82,1.93.3,3.97.59,5.9.82,5.89.14,11.82,0,17.71.05,7.02,0,14.06,0,21.08,0,4.78-.03,9.65.3,14.33-.86,7.08-1.4,13.89-4.15,21.08-5.05,4.19-.54,8.52-.3,12.65.59,5.14,1.08,10.1,2.99,15.18,4.31,10.56-3.32,13.35-3.18,23.61.65,2.13.67,4.54.22,6.75.35,3.63,0,7.33,0,10.96,0"/><path class="b" d="M11.26,19.57c2.16,1.65,4.57,3.15,6.75,4.78,1.97,1.53,3.94,3.29,5.9,4.83,1.81,1.35,3.74,2.89,5.9,3.61,2.21.21,4.52.57,6.75.54,9.55,0,19.12,0,28.67,0,5.04,0,10.13,0,15.18,0,2.78-.1,5.68.22,8.43-.18,5.53-1.01,10.76-3.27,16.02-5.18,8.13-3.1,15.42-3.46,23.61-.3,2.53.91,5.09,2.01,7.59,3,1.04.41,2.31.89,3.37,1.26.37.21,1.27.33,1.69.22,2.19-.59,4.49-1.19,6.75-1.5,2.78-.4,5.71-.27,8.43.45,2.53.63,5.04,1.69,7.59,2.25,5.61,0,11.26,0,16.86,0"/><path class="b" d="M11.26,20.2c2.41,1.73,5.15,3.1,7.59,4.78,3.23,2.22,6.41,4.76,10.12,6.13,4.75.26,9.57.02,14.33.1,7.86,0,15.75,0,23.61,0,5.04,0,10.13,0,15.18,0,1.64,0,3.42,0,5.06,0,1.06-.03,2.34.11,3.37-.2,5.95-1.37,11.29-4.54,16.86-6.91,8.54-3.81,15.43-2.94,23.61,1.24,2.22,1.08,4.51,2.28,6.74,3.32,1.32.55,2.77,1.4,4.22,1.55,1.91-.44,3.95-.88,5.9-1.12,2.78-.35,5.7-.25,8.43.38,2.24.48,4.5,1.32,6.75,1.74,1.93,0,3.97,0,5.9,0,2.21,0,4.53,0,6.74,0,1.65.05,3.44,0,5.06-.4"/><path class="b" d="M11.26,20.86c2.12,1.37,4.51,2.44,6.75,3.59,2.75,1.5,5.49,3.25,8.43,4.37.74.34,1.74.27,2.53.27,1.06,0,2.31,0,3.37,0,3.07,0,6.21,0,9.27,0,13.2,0,26.42,0,39.63,0,3.35-.06,6.78.13,10.12-.09,2.93-.76,5.78-2.07,8.43-3.51,9.98-5.63,17.22-10.89,28.67-4.75,4.82,2.43,9.24,5.8,14.33,7.66,7.02-1.47,11.68-1.15,18.55.68,4.2.03,8.45,0,12.65.01,2.27,0,4.54-.9,6.75-1.38"/><path class="b" d="M11.26,21.38c2.39,1.35,5.08,2.22,7.59,3.3,2.43.93,4.9,2.53,7.59,2.3,5.33,0,10.69,0,16.02,0,3.36-.05,6.79.2,10.12-.32,4.48-.56,9.03-.18,13.49.32,3.35,0,6.77,0,10.12,0,5.33-.01,10.69.03,16.02-.02,7.21-2.05,12.72-7.56,19.39-10.72,7.86-3.9,14.45-.8,21.08,3.84,2.46,1.66,4.98,3.44,7.59,4.87,1.3.6,2.74,1.64,4.22,1.6,2.76-.38,5.64-.62,8.43-.46,2.24.08,4.53.61,6.74.88,2.78,0,5.65,0,8.43,0,1.35,0,2.87,0,4.22,0,2.85-.53,5.67-1.61,8.43-2.47"/><path class="b" d="M11.26,21.57c3.22,1.45,6.75,2.22,10.12,3.23,3.63.11,7.33.01,10.96.04,4.48,0,9.01,0,13.49,0,1.94-.23,3.96-.72,5.9-.95,5.04-.77,10.19-.29,15.18.67,3.02.58,6.21.17,9.27.29,5.04,0,10.13,0,15.18,0,4.55.31,10.67-5,14.33-7.57,4.38-3.23,9.44-6.82,15.18-6.08,8.93.75,18.95,14.5,26.14,13.55,3.07-.27,6.21-.11,9.27.1,4.76,0,9.57,0,14.33,0,3.46-.82,6.8-2.31,10.12-3.57"/><path class="b" d="M11.26,21.32c2.97,1.05,6.13,1.59,9.27,1.41,3.07,0,6.21,0,9.27,0,4.2,0,8.45,0,12.65,0,2.81-.44,5.61-1.33,8.43-1.75,4.17-.73,8.5-.59,12.65.23,2.23.42,4.53.99,6.74,1.45,4.47.16,9.01.01,13.49.06,3.35,0,6.77,0,10.12,0,3.78-1.28,7.04-3.82,10.12-6.29,4.89-3.84,10.16-9.01,16.86-8.38,9.17.84,17.23,13.79,25.29,14.68,7.86-.08,15.76.17,23.61-.1,3.78-1.08,7.36-2.89,10.96-4.42"/></svg>