<?xml version="1.0" encoding="UTF-8"?><svg id="a" xmlns="http://www.w3.org/2000/svg" width="1920" height="2400" viewBox="0 0 192 240"><defs><style>.b{stroke:#fff;stroke-miterlimit:10;stroke-width:.6px;}.c{stroke-width:0px;}</style></defs><rect class="c" x="0" width="192" height="240"/><path class="b" d="M14.45,231.95c2.4-.18,4.89-.67,7.3-.31,4.86.86,7.36.38,11.36-2.5,1.87-1.29,4.22-2.16,6.49-1.51,2.36.83,4.73,2.07,7.3,2,1.58.01,3.29-.31,4.87-.13,3.25.45,6.39,2.23,9.74,1.74,3.27-.42,6.34-2.93,9.74-1.94,1.96.55,3.7,1.94,5.68,2.45,2.92.72,5.97-.23,8.93-.1,3.38.41,6.48-1.3,9.74-1.78,1.33-.15,2.77.19,4.06.47,2.18.38,4.5-.1,6.49-1.02,1.25-.55,2.65-1.34,4.06-1.28,2.21.48,4.32,1.63,6.49,2.27,3.65,1.16,7.58,1.23,11.36,1.66,2.95.15,5.98-.12,8.93-.3,2.67-.27,5.43-.65,8.11-.42,2.41.21,4.88.69,7.3.76,2.68.13,5.44-.18,8.11-.18,3.22.19,6.51.29,9.74.02,2.43-.14,4.97-.28,7.3-1.01"/><path class="b" d="M14.45,229.63c2.13-.19,4.35-.6,6.49-.42,2.67.26,5.43,1.01,8.11.48,3.35-.61,6.18-3.56,9.74-3.07,2.46.54,4.73,2.06,7.3,2.21,2.4.21,4.9.04,7.3.17,2.14.06,4.35.4,6.49.48,2.46.09,4.96-.52,7.3-1.2,2.06-.61,4.34-1.33,6.49-.73,1.34.42,2.72,1.2,4.06,1.64,1.52.53,3.26.73,4.87.69,2.96-.21,6.16.3,8.93-1.01,2.08-.92,4.1-2.62,6.49-2.46,8.04,2.13,8.94-2.78,13.79-1.34,2.8.64,5.45,1.98,8.11,3.01,2.33.81,4.86,1.31,7.3,1.65,4.3.32,8.67.07,12.98.14,4.59.02,9.24.11,13.79-.55,1.85-.22,3.82-.54,5.68-.44,1.88.17,3.8.76,5.68.93,4.07.17,8.34-.27,12.17-1.73"/><path class="b" d="M14.45,227.08c2.12-.24,4.35-.58,6.49-.34,3.21.4,6.48,1.35,9.74.87,1.34-.21,2.77-.68,4.06-1.09,2.65-1.01,4.74-.68,7.3.32,2.07.67,4.34.8,6.49.8,2.96.08,5.97-.13,8.93-.17,4.39.14,8.94-.16,12.98-2.02,4.96-2.6,6.8,1.01,11.36,2.01,2.37.42,4.91.32,7.3.17,1.79-.21,3.46-1.25,4.87-2.31,1.39-1.01,3.05-2.27,4.87-2,1.57.27,3.26.72,4.87.67,1.63-.03,3.31-.56,4.87-.98,1.83-.43,3.84.01,5.68.17,2.31.37,4.42,1.65,6.49,2.65,1.25.59,2.74,1.03,4.06,1.41,2.62.71,5.43.45,8.11.5,4.88.12,9.78-.32,14.61-1.01,4.02-.39,8.14-1.43,12.17-.81,2.15.48,4.29,1.43,6.49,1.72,3.86.35,7.92-.37,11.36-2.17"/><path class="b" d="M14.45,224.35c2.12-.28,4.36-.52,6.49-.19,2.94.54,5.94,1.16,8.93,1.39,2.72.3,5.42-.62,8.11-.77,1.89,0,3.8.69,5.68.77,2.95.11,5.97-.05,8.93.03,2.13.04,4.36-.07,6.49-.08,2.97-.02,6.11-.06,8.93-1.13,4.32-1.7,5.78-5.79,10.55-1.94,1.9,1.43,4.05,2.86,6.49,3.03,2.13.07,4.46.43,6.49-.36,2.29-.91,4.07-3.03,6.49-3.62,2.42-.25,4.86.88,7.3.59,2.14-.21,4.32-.84,6.49-.62,1.88-.16,3.92-.14,5.68.62,2.63,1.2,5.23,2.74,8.11,3.3,1.84.34,3.82.16,5.68.18,2.68,0,5.46.18,8.11-.27,2.73-.54,5.42-1.53,8.11-2.19,3.43-.73,7.09-.9,10.55-.26,2.48.56,4.84,1.81,7.3,2.42,4.17.95,8.66-.12,12.17-2.49"/><path class="b" d="M14.45,221.96c3.24-.4,6.54-.04,9.74.54,2.41.28,4.9.52,7.3.87,2.68.33,5.43-.31,8.11-.09,4.03.44,8.13-.23,12.17-.02,2.68.17,5.43.21,8.11.2,3.32.05,6.96-.06,9.74-2.11,2.11-1.3,3.77-4.18,6.49-4.04,1.9.36,3.4,1.91,4.87,3.06,1.17.95,2.59,1.9,4.06,2.32,1.83.36,3.81.69,5.68.77,2.31-.04,4.39-1.38,6.49-2.18,1.25-.48,2.73-.62,4.06-.59,2.69.13,5.44-.15,8.11-.35,2.13.17,4.37-.05,6.49.22,2.23.33,4.35,1.41,6.49,2.04,2.34.75,4.86.95,7.3.84,10.31.11,9.98.18,19.47-3.74,2.88-.98,6.14-.92,8.93.32,2.38,1.09,4.73,2.55,7.3,3.16,4.32.96,8.84-.55,12.17-3.35"/><path class="b" d="M14.45,220.25c4.58.07,9.21.23,13.79.2,2.95.33,5.94.97,8.93.87,2.97.08,5.98-.13,8.93-.47,2.68-.15,5.44-.13,8.11.08,2.95.19,5.97.27,8.93.39,3.03.07,5.94-1.27,8.11-3.33,1.67-1.43,3.32-3.55,5.68-3.68,2.97.16,4.93,2.95,7.3,4.42,1.17.83,2.71,1.23,4.06,1.67,2.57,1.01,5.46,1.2,8.11.38,4.96-1.66,9.42-2.25,14.61-1.25,1.85.2,3.83.28,5.68.56,2.41.35,4.87.92,7.3,1.11,5.12.21,10.3.17,15.42-.02,2.25-.17,4.52-.92,6.49-2.02,1.89-1.03,3.69-2.47,5.68-3.3,6.39-2.46,9.12,6.2,16.23,5.43,3.61-.1,6.98-1.67,9.74-3.93"/><path class="b" d="M14.45,218.82c2.95.16,6,.14,8.93-.3,2.39-.41,4.87-1.02,7.3-.51,2.94.46,5.93,1.21,8.93,1,2.15-.1,4.35-.62,6.49-.85,1.85-.18,3.82-.14,5.68-.16,2.69.08,5.45.28,8.11.63,2.39.4,4.97.96,7.3-.02,4.43-1.33,8.32-8.92,12.98-7.07,2.15,1,3.75,3.02,5.68,4.35,4.56,2.91,9.43,4.48,14.61,2.12,2.59-1.17,5.41-1.33,8.11-.43,6.06,1.59,12.43,1.64,18.66,1.6,4.85-.07,9.76.18,14.61-.13,4.04-.4,6.81-3.69,9.74-6.12,5.39-4.04,8.23,5.07,12.98,6.05,1.56.4,3.31.11,4.87-.17,2.85-.43,5.59-1.61,8.11-2.97"/><path class="b" d="M14.45,217.03c2.68-.05,5.48.21,8.11-.37,2.17-.49,4.21-1.87,6.49-1.86,3.04-.04,5.93,1.3,8.93,1.56,3.55.12,7-1.33,10.55-1.24,3.23,0,6.55.02,9.74.64,2.66.43,5.4,1.82,8.11.98,4.77-1.05,10.3-10.1,14.61-8.24,2.21,1.06,3.74,3.28,5.68,4.72,3.61,2.67,8.54,5.02,12.98,3.05,2.29-1.13,4.74-2.33,7.3-1.26,5.09,2.26,10.78,2.15,16.23,1.84,3.77-.03,7.59.24,11.36.12,1.3,0,2.76-.15,4.06-.15,1.3.02,2.76.22,4.06.2,3.91-.06,6.47-3.43,8.93-6.02,1.75-1.81,3.77-2.11,5.68-.26,2.41,2.02,3.97,5.58,7.3,6.23,1.6.2,3.31-.34,4.87-.65,2.68-.51,5.44-1.07,8.11-1.61"/><path class="b" d="M14.45,214.77c1.86-.14,3.82.1,5.68.12,4.6.07,6.46-4.79,11.36-3.78,2.76.33,5.28,2.19,8.11,1.87,1.87-.18,3.8-.72,5.68-.83,2.71-.15,5.45.57,8.11.95,2.14.36,4.37.82,6.49,1.27,1.83.38,3.84.79,5.68.26,2.52-.73,4.56-2.63,6.49-4.32,1.44-1.32,3.2-2.49,4.87-3.5,2.44-1.56,4.65-.46,6.49,1.41,4.18,4.42,10.96,8.71,17.04,5.57,3.09-1.65,4.99-1.47,8.11-.05,1.77.7,3.8.94,5.68,1.12,3.23.18,6.52-.3,9.74-.45,4.59.17,9.24.31,13.79-.45,1.91-.13,3.8.73,5.68.93,3.79.36,6.25-2.99,8.93-5.06,1.51-1.17,3.48-.82,4.87.39,1.67,1.25,3.05,3.13,4.87,4.19,2.35,1.28,4.93-.35,7.3-.76,2.64-.54,5.43-.48,8.11-.43"/><path class="b" d="M14.45,212.48c3.55-.07,6.8,1.23,9.74-1.56,2.61-2.47,4.92-5.32,8.93-4.21,1.39.32,2.76,1.1,4.06,1.67,2.61.84,5.46-.15,8.11.49,4.85,1.28,9.46,3.95,14.61,3.89,5.22.34,8.79-3.8,12.98-6.14,6.06-2.87,8.32.56,12.98,3.58,2.98,1.53,6.37,2.56,9.74,2.56,2.49.03,4.87-1.07,7.3-1.43,1.91-.23,3.85.44,5.68.9,1.28.31,2.75.41,4.06.48,3.79.24,7.61-.35,11.36-.84,1.85-.13,3.83-.03,5.68-.13,2.15-.11,4.38-.5,6.49-.9,3.19-1.06,5.84,1.8,8.93,1.92,1.36.02,2.85-.36,4.06-.98,1.97-1.04,4.18-2.54,6.49-1.74,1.95.64,3.68,2.1,5.68,2.63,1.69.35,3.39-.56,4.87-1.27,1.72-.84,3.77-1.23,5.68-1.11,1.89.19,3.83.77,5.68,1.16"/><path class="b" d="M14.45,210.17c2.67.15,5.63,1.06,8.11-.37,3.13-1.71,4.82-5.36,8.11-6.83,2.83-1.25,4.76.09,7.3,1.09,1.58.38,3.34.51,4.87,1.07,3.91,1.48,7.13,4.65,11.36,5.34,3.42.61,6.82-1,9.74-2.62,2.3-1.41,4.52-3.43,7.3-3.77,4.64-.4,8.15,3.29,12.17,4.94,2.02.86,4.32,1.14,6.49,1.37,2.67.28,5.45.31,8.11-.01,1.57-.2,3.28-.44,4.87-.39,1.87.05,3.82.42,5.68.55,3.77.14,7.63.2,11.36-.37,1.6-.23,3.26-.82,4.87-1,2.13-.22,4.37-.13,6.49-.39,4.64-.53,6.04-2.44,10.55.52,4.38,2.7,7.74.38,12.17.38,1.89.11,3.79.89,5.68.93,2.14.02,3.94-1.5,5.68-2.55,1.89-1.2,4.35-1.34,6.49-.86,1.92.58,3.78,1.65,5.68,2.27"/><path class="b" d="M14.45,207.75c8.29,1.81,9.69.16,15.42-5.26,3.57-2.87,4.85-2.57,8.93-1.28,3.84.82,6.5,4.01,9.74,5.97,2.16,1.27,4.96,1.76,7.3.71,1.75-.76,3.33-2.1,4.87-3.21,1-.69,2.25-1.4,3.25-2.09,2.71-2.02,5.12-3.18,8.11-.89,2.7,1.86,5.09,4.4,8.11,5.75,2.55,1.03,5.42.92,8.11.99,3.77.09,7.59-.04,11.36-.2,4.31.07,8.67.31,12.98.22,3.25,0,6.65.1,9.74-1.09,2.55-1.09,5.42-.77,8.11-.75,1.91.06,3.85-.45,5.68-.91,3.52-.7,6.27,2.67,9.74,2.7,2.41.19,4.9-.14,7.3-.11,1.86.03,3.84.35,5.68,0,2.51-.54,4.29-2.73,6.49-3.88,1.47-.8,3.31-.58,4.87-.2,2.6.41,4.83,2.16,7.3,2.98"/><path class="b" d="M14.45,205.19c3.9,1.03,8.36,1.91,12.17.15,2.27-1.27,4.24-3.19,6.49-4.5,2.46-1.5,5.69-.86,8.11.42,3.49,2.09,6.83,6.31,11.36,4.76,4.17-1.34,6.56-5.61,10.55-7.29,2.63-1.58,4.76-2.68,7.3-.25,3.26,3.18,6.21,8.08,11.36,7.85,4.58,0,9.21.01,13.79-.08,5.67-.1,11.37.2,17.04.07,2.4-.08,4.91.19,7.3-.17,1.35-.21,2.75-.86,4.06-1.21,2.39-.56,4.9.09,7.3.17,1.91.19,3.81-.56,5.68-.73,1.95-.07,3.84.91,5.68,1.43,1.54.45,3.28.53,4.87.52,1.85.02,3.82-.05,5.68-.01,2.16.04,4.51.13,6.49-.88,1.96-1.03,3.58-2.89,5.68-3.67,1.59-.55,3.35.1,4.87.58,2.46.59,4.84,1.73,7.3,2.34"/><path class="b" d="M14.45,202.7c4.22.88,8.67,1.92,12.98,1.27,2.56-.57,4.83-2.13,7.3-2.94,3.42-1.06,6.8.14,9.74,1.9,7.59,4.56,12-4.82,18.66-6.32,1.52-.53,3.25-1.33,4.87-.75,4.28,1.98,6.13,8.08,11.36,8.32,2.95-.02,5.97-.08,8.93-.01,3.5.03,7.05-.16,10.55-.19,4.86.18,9.76.12,14.61-.25,2.96-.11,5.99.93,8.93.18,4.25-1.19,8.71.49,12.98-.51,2.15-.42,4.38.14,6.49.54,1.84.33,3.82.26,5.68.25,3.22-.15,6.53.18,9.74-.12,2.11-.23,3.94-1.57,5.68-2.68,2.49-1.7,4.65-1.1,7.3-.17,2.37.58,4.87,1,7.3,1.14"/><path class="b" d="M14.45,200.33c4.36.11,8.64,1.46,12.98,1.72,3.81.02,7.54-1.31,11.36-1.17,2.18-.07,4.38.53,6.49.97,2.56.63,5.13-.31,7.3-1.63,2.4-1.34,4.78-2.94,7.3-4.04,1.78-.69,3.79-1.09,5.68-1.31,1.51-.06,2.98.81,4.06,1.79,1.81,1.63,3.4,3.82,5.68,4.83,2.3,1.01,4.89.32,7.3.34,4.04.14,8.14.21,12.17-.14,3.22-.3,6.51-.11,9.74-.14,2.42-.03,4.9-.36,7.3-.59,3.01-.36,5.97.74,8.93,1.04,3.73.07,7.57-.13,11.36-.03,2.68-.07,5.44-.32,8.11,0,2.41.22,4.9-.1,7.3-.11,2.41-.1,4.9.09,7.3.2,3.2.26,5.95-1.6,8.93-2.37,2.17-.49,4.38.43,6.49.81,2.39.31,4.91.27,7.3.01"/><path class="b" d="M14.45,198.5c2.94-.68,6.03-.44,8.93.34,2.63.71,5.39,1.1,8.11,1.06,3.23.02,6.51-.07,9.74-.1,2.4-.03,4.94.37,7.3-.22,1.38-.35,2.77-1.12,4.06-1.72,1.83-.85,3.8-1.65,5.68-2.39,2.06-.8,4.28-1.59,6.49-1.79,1.91-.08,3.57,1.24,4.87,2.49,1.21,1.15,2.52,2.52,4.06,3.22,2.85,1.12,5.98-.03,8.93.14,2.41.08,4.9.26,7.3.09,3.77-.23,7.58-.74,11.36-.7,3.86.13,7.59-.61,11.36-.7,2.72.16,5.42.99,8.11,1.31,4.29.51,8.67.31,12.98.35,2.4-.04,4.9.05,7.3-.04,2.14-.09,4.35-.46,6.49-.52,2.97-.26,5.96.84,8.93.46,1.62-.26,3.27-.95,4.87-1.29,2.69-.6,5.45.28,8.11.61,2.68.17,5.45.03,8.11-.26"/><path class="b" d="M14.45,197.07c8.05-2.9,8.77-.02,16.23.22,2.41.11,4.9.11,7.3.22,3.22.19,6.53.41,9.74-.05,1.66-.26,3.29-1.04,4.87-1.55,2.4-.73,4.95-1.28,7.3-2.18,1.81-.58,3.72-1.68,5.68-1.39,2.95.71,4.59,3.81,7.3,4.98,2.32.86,4.91.22,7.3.18,3.22-.13,6.52.2,9.74-.07,7.02-.56,14.09-.92,21.1-1.63,2.44.02,4.87.89,7.3,1.09,3.49.28,7.05.48,10.55.75,4.58.19,9.22.19,13.79-.2,2.13-.16,4.35-.61,6.49-.58,1.89.05,3.8.76,5.68.89,2.74.07,5.34-1.46,8.11-1.11,1.86.12,3.82.5,5.68.62,2.95.05,5.97-.07,8.93-.06"/><path class="b" d="M14.45,195.38c1.66-.34,3.29-1.15,4.87-1.73,2.64-1.11,5.45-.29,8.11.23,4.3.53,8.75.04,12.98,1.11,2.38.45,4.9.52,7.3.22,1.62-.2,3.27-.82,4.87-1.09,3.6-.41,7.25-1,10.55-2.6,4.26-2.08,6.8,3.03,10.55,3.89,2.11.37,4.36.18,6.49.19,2.68-.04,5.44.02,8.11-.05,3.77-.21,7.6-.29,11.36-.66,3.51-.38,7.03-1.21,10.55-1.49,2.75-.17,5.37,1.3,8.11,1.35,1.85.14,3.83-.04,5.68.1,2.41.23,4.88.68,7.3.73,4.04.09,8.14-.09,12.17-.39,2.41-.13,4.88-1,7.3-.59,1.59.27,3.25.93,4.87,1.03,1.88.07,3.81-.58,5.68-.64,2.41-.08,4.9.22,7.3.23,2.98-.21,5.95-.06,8.93.19"/><path class="b" d="M14.45,193.23c3.76-.71,6.51-4.55,10.55-4.16,4.04.61,8.16,1.15,12.17,1.97,1.61.36,3.26,1.06,4.87,1.45,2.92.71,6.02.44,8.93-.2,2.93-.47,6.01-.03,8.93-.66,2.43-.37,4.78-1.98,7.3-1.49,2.8.69,5.12,2.98,8.11,3.06,3.22.28,6.51.19,9.74.21,2.95,0,5.97.15,8.93-.02,3.27-.12,6.64-.42,9.74-1.55,2.83-.86,5.94-2.67,8.93-1.56,2.31.98,4.76,1.97,7.3,2.04,2.98-.02,5.98.37,8.93.79,2.67.31,5.44.25,8.11.05,2.41-.15,4.92-.33,7.3-.73,1.6-.24,3.26-.84,4.87-1.05,2.57-.36,4.91,1.19,7.3,1.82,2.91.59,5.98.04,8.93.04,2.13-.04,4.36-.19,6.49-.26,1.86.05,3.82.35,5.68.42"/><path class="b" d="M14.45,190.79c4.06-1.13,6.38-5.54,10.55-6.39,3.19-.58,6.11,1.29,8.93,2.48,1.8.8,3.81,1.3,5.68,1.9,3.07,1.26,6.4,2.06,9.74,1.69,3.75-.58,7.6-.27,11.36-.64,5.29-.9,6.04-1.34,11.36.35,4.76,1.14,9.77.46,14.61.42,3.23.09,6.48,1.09,9.74.63,1.91-.19,3.92-.55,5.68-1.34,3.11-1.23,6.19-4.11,9.74-3.18,1.64.61,3.23,1.66,4.87,2.28,2.04.81,4.33,1.02,6.49,1.24,5.63.88,11.42,1.13,17.04.01,1.91-.38,3.87-1.02,5.68-1.73,2.28-.97,4.94-2,7.3-.69,1.34.66,2.71,1.64,4.06,2.29,1.48.68,3.25,1.04,4.87,1.16,2.96.2,5.97-.33,8.93-.44,2.14-.02,4.35.4,6.49.46"/><path class="b" d="M14.45,187.89c4.86-1.89,9.7-9.67,15.42-6.22,2.09,1.34,4.08,3.13,6.49,3.9,1.27.44,2.77.55,4.06.94,4.73,1.8,7.92,2.51,12.98,1.66,3.48-.48,7.06-.17,10.55-.44,2.97-.1,5.97.48,8.93.61,4.88.19,9.76-.53,14.61-.94,2.5.18,4.77,1.78,7.3,1.8,2.21-.05,4.5-.7,6.49-1.62,2.16-1.05,4.18-2.63,6.49-3.35,2.55-.87,5.07.43,7.3,1.57,1.77.85,3.76,1.5,5.68,1.9,4.23,1.06,8.65,1.25,12.98.83,1.87-.17,3.88-.32,5.68-.88,1.69-.52,3.38-1.44,4.87-2.37,2.62-1.56,5.93-3.97,8.93-1.96,4.51,3.35,7.57,6.66,13.79,5.77,3.49-.56,7.05-.04,10.55.13"/><path class="b" d="M14.45,184.55c2.1-1.16,4.25-2.45,6.49-3.31,1.81-.71,3.8-1.15,5.68-1.6,2.19-.56,4,1.4,5.68,2.5,1.64,1.21,3.62,2.14,5.68,2.24,1.34-.02,2.8.16,4.06.62,4.78,1.86,7.99,2.15,12.98,1,3.2-.64,6.52-.13,9.74.03,2.39.3,4.89.56,7.3.44,3.23-.25,6.52-.61,9.74-.96,2.14-.15,4.34-1.06,6.49-.83,2.69.7,5.16,3.21,8.11,2.11,1.61-.59,3.36-1.26,4.87-2.08,2.67-1.56,5.76-3.13,8.93-2.2,3.78,1.1,7.5,2.54,11.36,3.36,3.13.98,6.52.95,9.74.49,8-1.14,8.34-.81,14.61-6.33,4.28-3.28,6.49-1.75,9.74,1.88,2.66,2.97,6.37,5.62,10.55,5.12,3.76-.45,7.59.02,11.36.03"/><path class="b" d="M14.45,181.38c2.67-1.67,5.89-1.7,8.93-1.53,1.61.17,3.29-.44,4.87-.23,3.01,1,5.59,3.46,8.93,3.47,1.02.07,2.23-.08,3.25.05,1.62.22,3.28.83,4.87,1.19,3.77.96,7.64.27,11.36-.53,4.32-.51,8.66.73,12.98.74,2.44.07,4.9-.51,7.3-.82,2.68-.28,5.45-.35,8.11-.8,5.38-1.75,6.67,3.51,11.36,1.5,2.63-1.24,5.27-2.83,8.11-3.53,2.19-.46,4.44.32,6.49,1,2.37.7,4.87,1.21,7.3,1.63,1.87.29,3.81.83,5.68,1.1,1.57.16,3.3.13,4.87-.03,1.61-.17,3.31-.64,4.87-1.06,1.28-.32,2.77-.48,4.06-.81,3.74-1,6.03-4.45,8.93-6.74,7.05-5.28,8.36,9.18,17.85,8.95,1.86,0,3.82-.18,5.68-.12,2.4.05,4.9.23,7.3.03"/><path class="b" d="M14.45,178.93c2.88-1.28,6.01-.16,8.93.37,1.85.44,3.86-.02,5.68.49,2.63.85,5.3,1.98,8.11,2.03,3-.08,5.96.71,8.93.92,2.4.05,4.91.13,7.3-.08,1.86-.22,3.8-.73,5.68-.81,3.77-.1,7.59.54,11.36.32,2.18-.09,4.34-.88,6.49-1.11,2.13-.19,4.36-.03,6.49-.11,1.31-.02,2.75-.28,4.06-.38,2.03.09,3.77,1.53,5.68,2.05,2.58.65,4.92-1.24,7.3-1.94,4.01-1.81,6.58-1.24,10.55.18,2.9.77,5.95,1.12,8.93,1.46,4.28.54,8.86.91,12.98-.64,2.33-1.01,5.06-.97,7.3-2.19,3.1-1.53,5.08-4.75,8.11-6.35,4.92-1.83,7.09,8.1,12.98,9.31,2.36.58,4.9.22,7.3.26,2.95,0,6,.28,8.93-.23"/><path class="b" d="M14.45,176.82c3.07-.36,5.96,1.27,8.93,1.79,1.84.41,3.82.36,5.68.6,2.41.34,4.88.84,7.3,1.02,2.4.16,4.89.44,7.3.39,1.86-.06,3.81-.38,5.68-.38,1.31,0,2.75.24,4.06.35,2.44.22,4.89-.5,7.3-.7,2.95-.22,5.98-.05,8.93-.31,2.2-.15,4.35-.99,6.49-1.42,2.14-.25,4.36.19,6.49.29,1.59.12,3.29-.07,4.87-.2,2.86.13,5.18,2.66,8.11,2.35,4.03-.62,8.03-2.75,12.17-1.7,1.58.35,3.25.89,4.87,1.07,4.29.57,8.66.74,12.98.57,1.58,0,3.29.18,4.87,0,1.65-.17,3.29-.93,4.87-1.41,6.33-.89,7.57-2.48,12.17-6.52,4.43-3.1,7.25,4.65,10.55,6.55,1.64,1.1,3.74,1.43,5.68,1.45,2.13.03,4.36-.03,6.49,0,2.41.02,4.95.09,7.3-.54"/><path class="b" d="M14.45,175.26c2.46.36,4.85,1.37,7.3,1.77,2.93.52,5.97.6,8.93.83,3.22.23,6.5.8,9.74.56,2.17-.18,4.34-.89,6.49-1.19,2.45-.38,4.96.13,7.3.86,1.82.5,3.83.46,5.68.17,3.22-.4,6.55-.52,9.74-1.16,2.19-.35,4.32-1.32,6.49-1.73,2.43-.18,4.88.61,7.3.68,1.86.17,3.85-.45,5.68.08,1.65.49,3.23,1.5,4.87,2.02,3.18.87,6.52-.36,9.74-.47,2.15-.14,4.37.3,6.49.59,2.39.26,4.9.23,7.3.19,2.43,0,4.9-.45,7.3-.76,1.6-.13,3.31.25,4.87.58,2.45.65,4.9-.4,7.3-.75,3.93-.25,7.19-2.76,9.74-5.58,4.52-4.94,7.75,3.25,11.36,5.22,1.92,1.13,4.31,1.27,6.49,1.32,2.13.04,4.36-.04,6.49,0,2.15.06,4.45.07,6.49-.7"/><path class="b" d="M14.45,174.21c2.1.54,4.32,1.03,6.49,1.14,2.13.13,4.36.02,6.49.22,1.86.09,3.83.16,5.68.41,1.85.23,3.82.52,5.68.27,2.23-.29,4.33-1.4,6.49-1.93,3.24-.72,6.71-.24,9.74,1.05,3.85,1.5,8.18,1.04,12.17.42,3.06-.49,5.93-1.93,8.93-2.58,1.88-.16,3.82.35,5.68.53,2.13.32,4.36-.13,6.49-.03,1.99.26,3.82,1.4,5.68,2.08,2.84,1.02,5.98.35,8.93.39,2.41-.03,4.9.29,7.3.11,3.79-.3,7.68-.47,11.36-1.5,2.48-.89,4.83-1.4,7.3-.1,1.51.72,3.16,1.59,4.87,1.65,2.15-.07,4.45-.21,6.49-.93,2.72-1.04,4.65-3.49,6.49-5.63,4.39-5.42,7.74,2.93,11.36,4.93,2.42,1.38,5.38,1.62,8.11,1.64,1.58,0,3.29-.21,4.87-.16,2.15.13,4.49.43,6.49-.58"/><path class="b" d="M14.45,173.24c2.11.36,4.35.47,6.49.3,1.87-.13,3.81-.56,5.68-.56,1.58.06,3.3.04,4.87.26,1.87.25,3.79.86,5.68.97,2.86.19,5.41-1.48,8.11-2.11,2.37-.46,4.91-.34,7.3-.2,2.19.31,4.34,1.21,6.49,1.67,4,.7,8.29,1.09,12.17-.34,2.11-.67,4.21-1.94,6.49-1.77,1.86.09,3.81.43,5.68.43,1.59.05,3.29-.29,4.87-.19,2.27.22,4.33,1.53,6.49,2.13,2.62.67,5.44.28,8.11.38,1.87.03,3.86-.02,5.68-.5,2.08-.68,4.32-1.09,6.49-1.38,2.17-.34,4.43-.81,6.49-1.57,1.51-.59,3.2-1.4,4.87-1.03,2.46.62,4.23,2.8,6.49,3.84,1.74.78,3.82.72,5.68.53,3.82-.43,5.96-4.11,8.11-6.86,4.35-5.87,7.74,2.73,11.36,4.86,2.89,1.68,6.42,2.5,9.74,1.91,1.28-.23,2.75-.48,4.06-.26,1.85.37,3.94.83,5.68-.17"/><path class="b" d="M14.45,171.55c2.4.22,4.92.24,7.3-.17,2.92-.65,5.9-1.46,8.93-1.15,2.49.2,4.85,1.34,7.3,1.74,2.45.39,4.94-.4,7.3-.94,2.11-.49,4.36-.77,6.49-1.18,3.82-.69,7.63.6,11.36,1.27,3.16.94,6.6,1.43,9.74.14,1.3-.46,2.69-1.12,4.06-1.36,1.84-.33,3.82-.26,5.68-.28,2.13.06,4.39-.42,6.49.07,1.91.48,3.77,1.48,5.68,1.96,2.63.59,5.44.44,8.11.27,2.96-.16,5.49-1.92,8.11-3.09,3.49-.82,7.2-.99,10.55-2.42,5.14-2.5,6.86.03,10.55,3.26,2.4,2.08,7.03,3.45,9.74,1.34,2.32-1.9,3.6-4.92,5.68-7.03,3.71-3.35,6.91,3.9,9.74,5.67,1.86,1.33,4.25,2.01,6.49,2.34,2.45.43,4.88-.67,7.3-.72,2.15.14,4.37,1.37,6.49.46"/><path class="b" d="M14.45,169.47c2.68.15,5.49.24,8.11-.44,2.89-.88,5.83-2.23,8.93-1.81,2.51.3,4.9,1.4,7.3,2.11,1.81.5,3.81.68,5.68.55,4-.15,7.48-2.52,11.36-3.15,2.46-.26,4.99.47,7.3,1.22,2.34.85,4.76,2.01,7.3,1.97,2.58-.03,4.91-1.43,7.3-2.2,3.11-1.02,6.5-1.09,9.74-.79,3.27.77,6.27,2.79,9.74,2.78,6.97.42,8.38-2.91,13.79-5.13,1.56-.27,3.3-.14,4.87-.38,2.8-.3,5.37-1.77,8.11-2.3,4.55-.84,7.12,4,10.55,6.03,2.15,1.12,5.02,2.97,7.3,1.21,2.6-1.82,4.03-7.05,7.3-7.3,1.24.13,2.38,1.12,3.25,1.95,1.51,1.5,3.03,3.3,4.87,4.42,2.43,1.32,5.38,1.68,8.11,1.69,1.88-.02,3.81-.66,5.68-.73,2.16-.06,4.33.94,6.49.68"/><path class="b" d="M14.45,167.27c12.15,1.12,10.64-4.75,19.47-2.81,3.81.9,7.5,2.46,11.36,3.19,2.95.64,5.66-1.08,8.11-2.48,5.41-3.59,10.86,1.59,16.23,2.54,5.02.7,8.72-4.6,13.79-3.85,1.31.14,2.77.41,4.06.72,1.35.45,2.74,1.23,4.06,1.75,2.79,1.07,6.06,1.42,8.93.49,2.12-.79,3.89-2.44,5.68-3.76,1.6-1.17,3.62-2.32,5.68-2.07,6.49,1.5,7.68-1.8,12.98-1.68,4.33.28,6.99,4.37,10.55,6.34,2.25,1.33,4.97,3.33,7.3,1.02,2.33-2.03,4.42-6.91,8.11-4.46,5.92,4.38,6.72,5.54,14.61,5.58,2.15-.02,4.35-.6,6.49-.66,1.88-.12,3.83.32,5.68.59"/><path class="b" d="M14.45,165c3.6.18,7.52.28,10.55-2,1.65-1.2,3.57-2.34,5.68-2.18,3.56.34,7.08,1.34,10.55,2.17,2.52.56,4.66,2.66,7.3,2.64,3.55-.38,6.01-4.25,9.74-3.82,4.81.66,9.72,5.57,14.61,3.1,2.21-1.11,4.13-2.98,6.49-3.78,1.9-.61,3.92.1,5.68.82,1.92.59,3.86,1.43,5.68,2.27,2.79,1.07,6.08,1.26,8.93.28,2.56-1.14,4.28-3.64,6.49-5.29,1.35-1.05,3.18-1.49,4.87-1.28,1.03.24,2.2.76,3.25.97,2.21.51,4.47-.31,6.49-1.14,4.18-1.54,8.2,1.44,11.36,3.88,1.72,1.29,3.72,2.38,5.68,3.26,4.93,2.71,6.44-2.94,10.55-3.57,2.64-.02,4.91,1.81,7.3,2.7,2.54,1.09,5.37,1.48,8.11,1.58,4.61.39,9.23-1.89,13.79-.63"/><path class="b" d="M14.45,162.71c11.85,1.01,10.07-7.28,17.04-5.2,2.09.78,4.3,1.46,6.49,1.88,1.57.43,3.35.46,4.87,1.09,2.41.93,4.51,3.51,7.3,2.93,2.61-.57,4.61-2.87,7.3-3.19,4.74-.28,9.04,4.93,13.79,2.7,2.02-1.06,3.67-2.92,5.68-4,2.48-1.47,5.14.12,7.3,1.42,1.74.99,3.83,1.39,5.68,2.12,3.29.95,7.45,1.24,10.55-.42,3.5-2.24,5.64-7.83,10.55-6.89,1.31.4,2.68,1.16,4.06,1.37,1.92.35,3.89-.33,5.68-.95,5.49-1.58,9.27,4.22,13.79,6.21,2.77,1.2,6.1,2.63,8.93.81,2.26-1.41,4.51-2.77,7.3-2.14,5.12.95,10.11,3.51,15.42,2.96,3.72-.62,7.59-2.76,11.36-1.36"/><path class="b" d="M14.45,160.45c10.16.74,9.63-7.28,14.61-7.09,1.77.4,3.3,1.7,4.87,2.53,1.21.7,2.71,1.03,4.06,1.33,1.88.38,3.97.39,5.68,1.36,1.6.83,3.11,2.15,4.87,2.64,2.3.54,4.48-.81,6.49-1.74,3.86-2.09,7.64.85,11.36,1.76,3.77.84,6.09-2.92,8.93-4.63,3.59-2.24,6.67,1.69,9.74,3.06,4.62,1.56,9.89,2.12,14.61.7,2.17-.89,3.87-2.77,5.68-4.21,3.11-2.54,5.3-1.99,8.93-1.69,2.22.02,4.36-.93,6.49-1.41,4.75-.63,8.26,4.58,12.17,6.56,3.17,1.63,7.19,2.41,10.55.91,6.25-3.27,9.89-1.85,16.23.1,2.06.64,4.4,1.06,6.49.3,1.34-.47,2.71-1.34,4.06-1.79,2.38-.68,5.05-.99,7.3.29"/><path class="b" d="M14.45,158.04c6.81.49,7.86-2.78,12.17-6.7,2.71-1.56,5.04,1.74,7.3,2.81,1.2.72,2.7.96,4.06,1.15,1.32.15,2.81.24,4.06.74,1.69.66,3.24,1.88,4.87,2.65,5.02,2.06,8.07-3.02,14.61-.47,3.52,1.19,5.86,1.65,8.93-.87,1.49-1.12,3-2.63,4.87-3.07,3.72-.7,6.45,2.77,9.74,3.84,1.53.51,3.27.7,4.87.87,3.51.25,7.19.17,10.55-.99,1.91-.71,3.78-1.81,5.68-2.53,2.87-1.13,6.17-1.01,8.93-2.49,2-.94,4.18-2.34,6.49-1.89,3.93,1.39,6.86,4.76,10.55,6.64,3.72,2.06,8.28,1.77,12.17.36,6.3-2.42,8.49-1.45,14.61.57,2.08.66,4.45.8,6.49-.08,1.33-.55,2.72-1.42,4.06-1.96,2.68-.94,5.68-.26,8.11,1.06"/><path class="b" d="M14.45,155.44c6.62.65,7.34-1.55,12.17-4.72,1.36-.57,2.86.09,4.06.75,1.26.69,2.66,1.48,4.06,1.83,4.72.57,5.29-.56,9.74,2.45,3.57,2.54,6.7.54,10.55.33,2.17-.15,4.37.41,6.49.78,6.28,1.38,7.79-3.44,12.98-3.81,4.55.17,8.48,3.1,12.98,3.57,5.7.95,11.46,0,17.04-1.23,2.99-.65,6.3-.79,8.93-2.51,1.31-.88,2.66-2.05,4.06-2.8,3.12-1.81,5.59,1.11,8.11,2.57,2.79,1.67,5.76,3.34,8.93,4.19,4.94.97,9.8-1.22,14.61-2.01,2.21-.3,4.46.47,6.49,1.26,6.98,2.88,9.44-1.41,15.42-1.4,2.24.11,4.4,1.1,6.49,1.8"/><path class="b" d="M14.45,153.02c2.96.4,6.11.72,8.93-.54,1.28-.5,2.66-1.26,4.06-1.35,2.19,0,4.32,1.04,6.49,1.21,1.88.2,3.8-.49,5.68-.38,1.77.22,3.33,1.4,4.87,2.2,2.15,1.27,4.24.63,6.49.14,1.57-.23,3.29-.22,4.87,0,4.84.87,7.78,1.13,12.17-1.43,1.47-.75,3.21-1.29,4.87-1.1,3.21.66,6.48,1.36,9.74,1.81,2.68.41,5.4,1.09,8.11,1.24,5.96.26,11.99-.35,17.85-1.37,1.69-.35,3.49-.91,4.87-1.98,1.51-1.1,2.99-2.66,4.87-3.11,1.86-.33,3.5,1.04,4.87,2.11.94.68,2.17,1.33,3.25,1.76,2.89,1.03,5.89,2.15,8.93,2.65,2.15.13,4.38-.31,6.49-.7,2.13-.37,4.37-.75,6.49-1.16,3.96-.84,7.43,2.45,11.36,1.81,1.88-.31,3.8-1.02,5.68-1.34,1.56-.28,3.3-.23,4.87-.05,2.45.21,4.85,1.24,7.3,1.44"/><path class="b" d="M14.45,151.56c3.22.38,6.53.86,9.74.1,2.95-.88,5.93-.3,8.93-.17,2.44.15,4.88-1.01,7.3-.58,1.65.36,3.23,1.34,4.87,1.73,2.45.58,4.84-.94,7.3-.7,2.97.1,5.94,1.18,8.93.75,3.38-.29,6.27-2.9,9.74-2.63,2.17.22,4.31,1.15,6.49,1.33,4.05.34,8.14.84,12.17,1.33,6.78.11,13.81.51,20.29-1.91,3.16-.67,5.51-4.19,8.93-3.56,2.08.56,3.68,2.35,5.68,3.1,3.13,1.1,6.49,1.72,9.74,2.38,2.43.22,4.92-.44,7.3-.8,2.12-.31,4.36-.5,6.49-.8,2.49-.33,4.96.57,7.3,1.31,1.55.47,3.32.43,4.87-.02,1.55-.43,3.25-.89,4.87-.98,1.59-.09,3.3.18,4.87.43,2.4.33,4.86,1.12,7.3.89"/><path class="b" d="M14.45,150.48c3.77.16,7.61.23,11.36-.23,2.4-.24,4.9,0,7.3-.14,4.87-.42,5.5-1.63,10.55.22,2.52.88,4.83-.33,7.3-.56,2.99-.16,5.97.64,8.93.87,3.39.4,6.45-1.54,9.74-1.86,2.45-.15,4.88.71,7.3.94,5.38.5,10.82.99,16.23.93,4.31-.18,8.76.46,12.98-.6,2.18-.64,4.35-1.61,6.49-2.34,1.76-.75,3.72-1.64,5.68-1.32,2.26.39,4.25,1.89,6.49,2.36,1.84.43,3.83.72,5.68,1.14,1.56.33,3.26.79,4.87.77,2.18-.06,4.37-.74,6.49-1.17,1.56-.31,3.29-.37,4.87-.46,4.43-.59,8.58,2.3,12.98,1.44,2.37-.53,4.85-1.13,7.3-.88,3.5.3,7.02,1.4,10.55.96"/><path class="b" d="M14.45,148.35c3.5-.24,7.05.3,10.55.12,2.68-.19,5.44-.03,8.11-.17,1.88-.05,3.81-.56,5.68-.6,2.16.01,4.32.96,6.49.79,1.91-.12,3.76-1.12,5.68-1.1,2.14,0,4.37.06,6.49.38,1.85.26,3.8.73,5.68.73,2.17-.06,4.33-.84,6.49-1.01,3.78-.19,7.59.54,11.36.78,4.3.32,8.67.19,12.98.23,3.77-.07,7.61.18,11.36-.18,1.94-.23,3.82-1.1,5.68-1.64,2.35-.6,4.87-1.15,7.3-.78,1.31.18,2.75.55,4.06.78,1.57.26,3.29.3,4.87.52,3.48.51,7.02,1.97,10.55.92,1.59-.4,3.25-1.09,4.87-1.4,1.84-.3,3.85-.29,5.68.01,2.68.58,5.35,1.64,8.11,1.75,3.27.18,6.47-1.14,9.74-1.01,3.79.09,7.54,1.39,11.36.96"/><path class="b" d="M14.45,145.15c3.04-.45,5.93,1.05,8.93,1.2,3.22-.07,6.51-.11,9.74-.08,2.68-.06,5.44-.46,8.11-.01,2.83.51,5.46-.66,8.11-1.42,1.29-.23,2.75-.03,4.06-.12,2.14-.1,4.41-.1,6.49.47,2.1.6,4.27,1.46,6.49,1.13,2.94-.38,5.96-.64,8.93-.53,2.14.09,4.35.48,6.49.55,4.58.15,9.21-.11,13.79-.09,4.03.08,8.15.34,12.17-.1,2.12-.39,4.33-.87,6.49-.91,2.41-.12,4.9.11,7.3.13,2.13,0,4.37-.38,6.49-.03,2.4.4,4.84,1.26,7.3,1,2.54-.13,4.86-1.51,7.3-2.05,2.13-.35,4.49-.16,6.49.67,2.28.98,4.82,1.55,7.3,1.4,3.53-.12,7-1.3,10.55-1.21,3.53.1,6.98,1.49,10.55,1.2"/><path class="b" d="M14.45,142.11c2.89-.56,5.35,1.65,8.11,2.04,1.86.27,3.81-.26,5.68-.17,3.77.25,7.59.1,11.36.22,3.43.38,5.91-.94,8.93-2.23,1.26-.51,2.74-.28,4.06-.34,3-.29,6.19-.47,8.93,1.04,1.48.81,3.15,1.56,4.87,1.56,3.23,0,6.5-.55,9.74-.43,1.58.1,3.28.35,4.87.41,2.13.07,4.36-.08,6.49.01,2.42.14,4.89-.47,7.3-.45,5.65.49,11.37.63,17.04.3,2.95-.11,5.98,0,8.93-.12,2.14-.05,4.35-.59,6.49-.55,2.7.13,5.39,1.08,8.11.79,2.22-.08,4.36-.99,6.49-1.52,1.83-.39,3.85-.24,5.68.09,1.31.38,2.72,1,4.06,1.26,5.17.82,10.27-1.26,15.42-1.39,3.58-.08,6.95,1.79,10.55,1.59"/><path class="b" d="M14.45,140.39c2.83-.45,5.35,1.49,8.11,1.68,1.89.14,3.8-.59,5.68-.56,3.77.25,7.58.55,11.36.58,3.9.26,6.43-2.5,9.74-3.89.99-.33,2.22-.21,3.25-.28,3.16-.36,6.29.35,8.93,2.14,1.22.78,2.61,1.63,4.06,1.87,3.21.44,6.51-.17,9.74-.13,2.95.08,5.97.41,8.93.28,2.41.01,4.92.1,7.3-.37,3.23-.64,6.5.29,9.74.38,6.21-.27,12.45.08,18.66,0,2.97.12,5.96-.56,8.93-.52,2.41.14,4.88.61,7.3.52,2.15,0,4.35-.44,6.49-.56,1.58-.06,3.29-.02,4.87.06,1.57.2,3.27.55,4.87.5,2.7-.12,5.45-.54,8.11-.97,2.65-.5,5.41-.98,8.11-.7,2.99.38,5.86,1.82,8.93,1.67"/><path class="b" d="M14.45,139.3c3.23-.05,6.52,1.17,9.74.37,1.31-.28,2.72-.82,4.06-.97,2.72-.2,5.44.66,8.11.98,2.14.34,4.52.53,6.49-.55,4.31-2.46,5.63-6.16,11.36-5.75,3.92.34,6.46,3.87,9.74,5.63,3,1.54,6.51.72,9.74.79,4.04.01,8.13.21,12.17.14,2.71.17,5.42-.55,8.11-.67,2.15,0,4.35.52,6.49.64,2.14.14,4.36-.28,6.49-.39,4.31-.1,8.68-.03,12.98.31,1.58.1,3.29.16,4.87.03,1.86-.18,3.8-.63,5.68-.64,2.69.05,5.43.49,8.11.61,2.68.15,5.44.11,8.11.1,4.34.17,8.69-.41,12.98-.98,2.67-.39,5.41-.94,8.11-.76,3.31.1,6.39,1.89,9.74,1.75"/><path class="b" d="M14.45,137.72c2.95.08,6.02.27,8.93-.37,2.48-.44,4.72-2.13,7.3-2.06,2.57.09,4.89,1.54,7.3,2.24,1.99.64,4.15.05,5.68-1.33,3.42-2.85,6.89-9.65,12.17-6.85,3.48,2.32,5.6,6.61,9.74,7.99,2.34.72,4.9.36,7.3.42,5.13.07,10.29-.07,15.42.03,2.15-.04,4.34-.65,6.49-.64,2.69.07,5.41.79,8.11.63,3.77-.21,7.58-.75,11.36-.71,2.96.12,5.95.82,8.93.72,2.79.07,5.4-1.26,8.11-1.68,2.13-.29,4.37.13,6.49.3,2.95.44,5.97.82,8.93,1.17,4.59.38,9.22-.48,13.79-.84,2.66-.42,5.4-1.02,8.11-.86,3.05.15,5.84,1.88,8.93,1.87"/><path class="b" d="M14.45,135.67c3.52-.08,7.18-.18,10.55-1.28,1.4-.47,2.74-1.41,4.06-2.04,3.44-1.85,6.16.91,8.93,2.62,2.51,1.51,4.8.27,6.49-1.75,3-3.18,7.25-12.28,12.17-6.72,7.39,9.57,7.32,9.45,19.47,9.07,2.4-.12,4.89-.33,7.3-.26,2.14.03,4.36.34,6.49.35,2.69-.15,5.41-1.01,8.11-.51,5.09.85,10.3.48,15.42.14,2.96-.06,5.96.58,8.93.31,4.42.13,7.76-3.91,12.17-3.6,2.78.03,5.53.58,8.11,1.61,1.58.53,3.25,1.24,4.87,1.62,1.28.22,2.76.22,4.06.18,3.22-.22,6.53-.39,9.74-.8,2.4-.53,4.84-1.34,7.3-1.48,3.13-.16,5.8,2.12,8.93,2.19"/><path class="b" d="M14.45,133.48c3.52-.2,7.16-.4,10.55-1.42,1.72-.53,3.26-1.73,4.87-2.49,3.15-1.63,5.77,1.33,8.11,3.04,2.57,1.84,4.77.52,6.49-1.65,3.63-4.3,7.62-13.94,12.98-5.5,1.83,2.56,3.51,5.68,6.49,7.06,4.74,2.03,11.23.48,16.23,0,2.13-.2,4.37-.03,6.49.25,1.58.24,3.24.86,4.87.73,1.88-.15,3.78-.86,5.68-.83,2.95.27,5.96.62,8.93.63,6.16.09,12.68.89,18.66-.84,3.5-1.37,6.5-4.64,10.55-4.04,4.56-.32,8.09,3.14,12.17,4.53,1.55.37,3.29.34,4.87.28,1.58-.07,3.29-.26,4.87-.39,1.3-.08,2.78-.08,4.06-.39,2.46-.66,4.8-2.01,7.3-2.51,1.71-.38,3.43.49,4.87,1.32,1.21.65,2.69,1.2,4.06,1.38"/><path class="b" d="M14.45,131.22c3.77-.31,7.64-.34,11.36-1.06,5.08-1.55,6.36-3.02,11.36.17,2.43,1.56,4.57,1.34,6.49-.82,4.39-4.97,7.6-14.01,13.79-4.81,1.74,2.36,3.53,5.22,6.49,6.15,4.78,1.19,9.92.38,14.61-.89,2.35-.66,4.91-.83,7.3-.31,4.5,1.04,4.52,2.63,9.74,1.11,2.1-.55,4.36-.18,6.49-.31,3.23-.17,6.56-.49,9.74.3,4.57.71,9.45.32,13.79-1.29,2.11-.9,4.22-2.14,6.49-2.57,2.06-.26,4.44-.35,6.49-.11,8.96,2.74,6.42,5.32,17.85,3.82,1.58-.2,3.34-.16,4.87-.66,3.15-.96,6.34-4.2,9.74-3.39,2.21.92,4.11,2.73,6.49,3.27"/><path class="b" d="M14.45,128.55c3.77-.53,7.59.05,11.36.03,5.53-.54,7.4-1.58,12.98.46,2.28.75,4.3-.63,5.68-2.34,3.47-4.25,5.79-9.56,11.36-4.04,2.23,2.19,4.17,5.19,7.3,6.14,2.08.61,4.36.41,6.49.44,3.41.07,6.72-1.13,9.74-2.61,2.29-1.14,4.98-1.07,7.3-.08,2.13.89,4.03,2.79,6.49,2.7,1.33-.03,2.77-.43,4.06-.71,1.3-.27,2.78-.45,4.06-.84,2.12-.6,4.27-1.58,6.49-1.73,1.67-.13,3.36.51,4.87,1.14,1.52.59,3.24,1,4.87,1.07,4.13.2,8.15-1.15,12.17-1.83,1.84-.29,3.82-.31,5.68-.44,1.57-.21,3.29-.48,4.87-.16,2.23.39,4.42,1.34,6.49,2.21,3.35,1.21,7.08.72,10.55.36,1.92-.19,3.96-.55,5.68-1.48,2.83-1.18,5.69-3.76,8.93-2.92,1.95.66,3.76,1.93,5.68,2.65"/><path class="b" d="M14.45,125.37c3.58-.86,7.06.55,10.55,1.13,3.21.34,6.51-.04,9.74.02,2.16-.11,4.34.74,6.49.53,2.05-.39,3.55-2.19,4.87-3.67,1.12-1.21,2.34-2.86,4.06-3.19,3.19.2,5.65,2.69,8.11,4.46,3.05,2.44,6.01,2.59,9.74,2.45,4.52.33,7.87-1.11,11.36-3.86,2.45-1.82,4.78-1.64,7.3-.08,2.14,1.26,3.96,3.38,6.49,3.84,2.48.38,5.11-.41,7.3-1.53,1.64-.93,3.22-2.25,4.87-3.16,4.78-2.79,7.66,2.11,12.17,2.77,3.21.55,6.51-.31,9.74-.13,2.4.03,4.9.26,7.3.09,1.59-.13,3.27-.58,4.87-.56,3.04-.02,5.99,1.07,8.93,1.71,3.46.58,7.09.59,10.55-.03,4.24-.68,8-3.14,12.17-4.06,2.19-.42,4.49.23,6.49,1.1"/><path class="b" d="M14.45,122.2c5.1-1.83,8.18,1.86,12.98,2.15,3.21.39,6.51.34,9.74.34,4.17.41,5.67.6,8.93-2.37,3.31-3.06,4.4-2.33,8.11-.58,4.17,2.16,7.36,3.58,12.17,3.17,1.58-.03,3.3.15,4.87-.1,2.86-.58,5.34-2.42,7.3-4.51,7.02-7.74,10.31,5.59,17.85,4.61,3.5-.29,5.68-3.44,8.11-5.58,1.5-1.42,3.73-2.15,5.68-1.21,2.46,1.14,4.54,3.28,7.3,3.79,2.37.55,4.92.03,7.3.47,2.67.47,5.39,1.22,8.11,1.29,1.59.06,3.29-.21,4.87-.33,1.86-.11,3.84.12,5.68.36,4.02.49,8.11,1.13,12.17,1.01,2.44-.04,4.92-.64,7.3-1.13,2.46-.51,4.95-1.26,7.3-2.14,2.31-.85,4.81-2.13,7.3-1.24"/><path class="b" d="M14.45,120.06c5.03-2.24,6.75-.75,11.36,1.04,3.68,1.07,7.52,1.67,11.36,1.51,1.59,0,3.28.29,4.87.18,4.33-.51,5.8-4.11,10.55-2.01,3.92,1.27,8.02,2.34,12.17,2,2.13-.14,4.42.35,6.49-.29,1.78-.7,3.46-2,4.87-3.27,1.61-1.63,2.97-3.8,4.87-5.12,1.99-1.37,4.15.26,5.68,1.57,3.52,3.15,7.62,9.89,12.98,6.03,3.92-3.11,6.31-10.05,12.17-5.62,2.09,1.59,4.63,2.83,7.3,2.86,1.59.05,3.34,0,4.87.51,2.65.9,5.3,2.18,8.11,2.49,1.57.22,3.29.1,4.87.12,1.86.02,3.82.28,5.68.42,4.3.25,8.67.29,12.98.29,3.51-.13,7.09-.6,10.55-1.23,1.91-.44,3.91-1.07,5.68-1.91,1.73-.89,3.66-2.01,5.68-1.62"/><path class="b" d="M14.45,118.36c2.03-.89,4.21-2.01,6.49-1.77,1.95.2,3.81,1.18,5.68,1.72,2.4.72,4.76,1.94,7.3,2.1,2.94.17,5.98.31,8.93.21,2.96-.28,5.94-1.31,8.93-.64,5.64.7,11.37.77,17.04.64,1.87-.12,3.55-1.3,4.87-2.56,2.16-1.71,3.86-4.07,5.68-6.11,2.81-3.19,5.35-1.82,8.11.52,2.63,2.67,4.29,6.9,8.11,8.08,4.75.83,6.88-4.75,9.74-7.48,2.08-2.21,4.24-2.07,6.49-.17,1.62,1.3,3.6,2.36,5.68,2.62,1.58.22,3.33.12,4.87.57,1.95.69,3.79,1.9,5.68,2.72,2.01.9,4.29,1.38,6.49,1.46,4.58.31,9.2.47,13.79.4,5.67.05,11.4,0,17.04-.64,2.16-.33,4.43-.81,6.49-1.54,1.83-.74,3.67-1.93,5.68-2.1"/><path class="b" d="M14.45,116.82c4.88-2.27,7.06-2.45,12.17-.9,2.45.65,4.74,2.1,7.3,2.36,6.46.56,13,.02,19.47.25,3.22,0,6.51-.02,9.74.01,2.13-.04,4.41.17,6.49-.4,1.52-.46,2.91-1.57,4.06-2.63,1.96-1.61,3.75-3.63,5.68-5.28,1.9-1.65,4.23-1.83,6.49-.84,4.4,1.33,5.37,8.8,10.55,9.15,4.81-.16,6.8-5.48,9.74-8.48,1.34-1.49,3.2-2.25,4.87-.73,1.83,1.67,3.99,3.23,6.49,3.66,1.59.31,3.38.43,4.87,1.13,2.36,1.26,4.71,2.8,7.3,3.55,4.2,1.15,8.68.91,12.98.71,2.68-.17,5.43.13,8.11.15,3.5.09,7.06-.14,10.55-.38,3.52-.02,7.08-.57,10.55-1.11,1.92-.44,3.79-1.42,5.68-1.96"/><path class="b" d="M14.45,115.53c2.1-.68,4.28-1.49,6.49-1.72,2.69-.23,5.54.06,8.11.91,3.34,1.37,6.97,1.71,10.55,1.65,4.58.1,9.21-.08,13.79-.07,2.95.09,5.97.12,8.93.09,2.13-.02,4.38.08,6.49-.29,4.36-.86,7.2-4.95,11.36-6.3,1.8-.61,3.82-.46,5.68-.32,1.27-.15,2.46.63,3.25,1.56,1.02,1.14,2.14,2.58,3.25,3.64,2.19,2.29,5.65,2.07,8.11.35,2.32-1.71,3.88-4.4,5.68-6.61,1.21-1.55,3.13-3.18,4.87-1.31,1.81,1.88,3.96,3.64,6.49,4.39,1.59.51,3.38.9,4.87,1.68,6.84,4.21,11.97,3.27,19.47,2.65,2.97-.2,5.96.51,8.93.57,3.25.05,6.5-.81,9.74-.97,2.69.02,5.44-.21,8.11-.46,1.3-.08,2.76.06,4.06-.09,1.61-.18,3.31-.66,4.87-1.08"/><path class="b" d="M14.45,114.11c6.46-1.19,10.38-2.82,17.04-.86,6.11,1.29,12.47.82,18.66.69,6.47-.13,13.03.86,19.47-.02,2.01-.35,3.9-1.41,5.68-2.36,2.73-1.48,5.91-1.46,8.93-1.35.73,0,1.72-.05,2.43-.17,2.29-.1,3.81,2.24,5.68,3.23,1.93,1.24,4.37,1.1,6.49.49,6.13-1.37,8.39-12.88,12.98-7.03,2.31,2.65,5.63,4.08,8.93,5.07,2.6,1.06,5.26,2.27,8.11,2.4,4.66.52,9.15-1.8,13.79-1.13,3.76.4,7.68,2.09,11.36.4,1.54-.6,3.19-1.42,4.87-1.56,1.57-.27,3.29-.11,4.87-.1,1.58-.07,3.29-.3,4.87-.22,1.32.06,2.75.48,4.06.64,1.57.2,3.29.16,4.87.03"/><path class="b" d="M14.45,112.03c4.18.62,8.06-1.7,12.17-1.77,2.71.07,5.42.82,8.11,1.1,3.22.25,6.51.3,9.74.44,5.4.07,10.83-.21,16.23.11,3.22,0,6.54.48,9.74-.01,1.66-.28,3.31-1.04,4.87-1.66,3.91-1.46,8.14.1,12.17-.53,1.99.31,3.72,1.73,5.68,2.17,2.4.52,5.04.09,7.3-.8,1.88-.87,3.45-2.49,4.87-3.96,4.88-5.36,5.26-.75,9.74,1.51,2,1.06,4.34,1.51,6.49,2.16,3.6,1.39,7.6,1.72,11.36.78,7.48-2.24,7.05-2.02,14.61.15,2.23.81,4.66.27,6.49-1.2.99-.73,2.16-1.66,3.25-2.26,1.46-.65,3.28-.87,4.87-.74,1.86.26,3.82-.27,5.68-.2,1.69.03,3.35.81,4.87,1.48,1.52.65,3.24,1.16,4.87,1.46"/><path class="b" d="M14.45,109.14c3.96,1.74,6.72.27,10.55-.61,1.85-.28,3.83,0,5.68.09,2.95.29,5.97.32,8.93.47,3.49.32,7.04.66,10.55.58,4.04-.02,8.13-.38,12.17-.37,2.42.04,4.87.77,7.3.67,2.52-.09,4.81-1.54,7.3-1.76,2.14-.19,4.36.18,6.49.27,1.59.15,3.29-.29,4.87-.08,1.62.33,3.24,1.12,4.87,1.42,2.44.45,5.08-.08,7.3-1.14,2.85-1.31,4.89-4.47,8.11-4.89,1.6,0,2.83,1.39,4.06,2.24,1.43,1,3.19,1.75,4.87,2.22,5.6,1.52,9.61,2.5,15.42.94,2.4-.55,4.77-2.02,7.3-1.56,3.25.55,6.34,2.83,9.74,2.23,4.27-1.36,5.74-7.13,10.55-7.47,1-.21,2.23.06,3.25-.07,1.01-.13,2.23-.38,3.25-.45,4.39-.29,6.86,4.29,10.55,5.94"/><path class="b" d="M14.45,106.07c4.11,2.67,6.19,1.63,10.55.86,3.77-.11,7.59-.17,11.36-.34,2.69-.09,5.43.28,8.11.38,3.22.16,6.51.14,9.74.04,2.71-.04,5.42-.8,8.11-.97,1.36-.02,2.8.48,4.06.96,2.92,1.26,5.21.84,8.11-.07,2.1-.49,4.36-.36,6.49-.36,1.3,0,2.76-.06,4.06-.2,1.3-.17,2.76-.43,4.06-.14,2.66.58,5.32,2.04,8.11,1.48,2.06-.34,3.97-1.46,5.68-2.6,4.67-3.16,6.11-1.77,10.55.52,2.3.97,4.85,1.48,7.3,1.88,2.66.49,5.44.32,8.11.01,2.45-.25,4.98-.66,7.3-1.5,1.81-.76,3.91-.63,5.68.17,2.75,1.19,6.29,2.71,8.93.48,3.63-3.02,5.27-8.63,10.55-9.22,1.02,0,2.24.04,3.25-.18,1.87-.41,4.03-.53,5.68.63,2.77,2.09,4.52,5.41,7.3,7.51"/><path class="b" d="M14.45,103.59c3.03,2.18,5.35,2.37,8.93,1.83,2.4-.26,4.9-.04,7.3-.32,2.13-.2,4.35-.45,6.49-.53,1.58-.03,3.29.05,4.87-.11,2.41-.2,4.88-.66,7.3-.79,1.86-.11,3.82.2,5.68.15,1.62-.04,3.33-.42,4.87-.9,1.27-.4,2.76-.82,4.06-.32,1.4.55,2.73,1.59,4.06,2.28,1.72.97,3.81.93,5.68.48,1.56-.3,3.28-.36,4.87-.47,1.88-.11,3.86-.4,5.68-.88,1.81-.49,3.8-1.03,5.68-.63,1.67.34,3.29,1.24,4.87,1.82,1.81.71,3.92.57,5.68-.22,1.58-.7,3.17-1.76,4.87-2.17,1.92-.46,3.91.31,5.68.99,1.79.7,3.79,1.12,5.68,1.41,1.84.28,3.81.51,5.68.46,2.95-.22,5.96-.58,8.93-.61,1.31-.05,2.79-.18,4.06-.52,1.28-.33,2.71-.82,4.06-.69,3.23.39,6.49,3,9.74,1.23,4.74-2.93,6.65-10.31,12.98-10.54,1.58.1,3.29-.25,4.87-.08,4.93.7,6.86,6.25,10.55,8.95"/><path class="b" d="M14.45,101.66c3.13,2.1,6.16,1.98,9.74,1.8,5.15.13,10.28-.62,15.42-.78,5.32-.44,8.21-4.64,13.79-2.84,2.77.72,5.54-.16,8.11-1.14,4.05-1.13,6.1,5.38,11.36,4.83,2.96-.24,6.06-.18,8.93-1.07,3.1-1.09,6.34-3.19,9.74-2.04,2.48.86,4.58,2.98,7.3,3.1,2.24.15,4.32-1.09,6.49-1.41,2.18-.31,4.37.54,6.49.87,2.39.36,4.89.51,7.3.55,2.44.09,4.88-.63,7.3-.73,2.41-.09,4.89.32,7.3.22,1.61-.05,3.28-.59,4.87-.8,2.21-.27,4.37.72,6.49,1.17,2.88.71,5.45-1.06,7.3-3.11,1.93-2.01,3.93-4.27,6.49-5.49,1.19-.65,2.69-1.08,4.06-.94,1.3,0,2.79.03,4.06.36,4.37,1.15,6.78,5.54,10.55,7.72"/><path class="b" d="M14.45,99.6c2.48,1.33,5.31,1.89,8.11,1.8,2.41,0,4.9.01,7.3-.09,2.14-.1,4.36-.3,6.49-.42,2.21-.1,4.56-.4,6.49-1.56,2.83-1.47,5.42-4.79,8.93-3.98,1.29.28,2.73.67,4.06.68,5.12-.09,6.15-3.95,10.55,1.11,2.16,2.4,4.7,4.49,8.11,4.27,4.76.12,7.22-.45,11.36-2.76,2.57-1.01,5.6-1.7,8.11-.18,7.22,4.59,7.96,2.2,15.42,2.83,4.86.23,9.87.27,14.61-.98,2.96-.59,5.97.35,8.93.54,2.72.29,5.4-.93,8.11-.72,2.45.19,4.82,1.43,7.3,1.25,4.19-.65,6.69-4.85,10.55-6.33,3.28-1.61,7.39-1.26,10.55.48,2.77,1.56,5.09,4.03,8.11,5.15"/><path class="b" d="M14.45,97.62c4.94,1.81,10.23,1.78,15.42,1.54,3.5-.26,7.27.12,10.55-1.31,3.77-1.61,6.27-5.97,10.55-6.35,2.69.06,5.47.12,8.11-.5,1.3-.23,2.85-.61,4.06.11,2.45,1.68,4.09,4.47,6.49,6.23,1.82,1.44,4.22,1.89,6.49,1.9,1.88.07,3.89-.03,5.68-.64,3.13-1.27,6.23-3.22,9.74-3.13,2.32.12,4.39,1.5,6.49,2.36,3.06,1.27,6.47,1.43,9.74,1.29,3.77-.28,7.62-.53,11.36-1.12,2.42-.37,4.81-1.55,7.3-1.25,2.71.28,5.37,1.37,8.11,1.43,2.96-.02,5.96-1.01,8.93-.36,3.87.73,6.79,2.68,10.55.12,1.79-1.1,3.62-2.48,5.68-3.04,3.47-.94,7.24-.21,10.55,1.02,2.44.96,4.7,2.61,7.3,3.14"/><path class="b" d="M14.45,95.65c2.98.25,5.95,1.08,8.93,1.37,2.95.25,5.97-.05,8.93-.08,4.26-.06,6.56-.38,9.74-3.4,4.45-4.16,5.92-5.76,12.17-6.6,3.41-.49,7.32.43,9.74,3,2.19,2.29,4.28,5.05,7.3,6.29,3.06,1.13,6.55,1.11,9.74.53,2.74-.62,5.33-2.02,8.11-2.5,3.33-.84,6.57.61,9.74,1.43,3.18.71,6.53.53,9.74.14,2.98-.31,6.05-.64,8.93-1.53,2.39-.62,4.79-1.79,7.3-1.81,3.62.15,6.96,2.06,10.55,2.44,3.76.41,7.64-.22,11.36.61,2.66.78,5.31,2.34,8.11,1.15,1.82-.7,3.69-1.71,5.68-1.8,3.5-.2,7.08.3,10.55.76,2.15.42,4.29,1.33,6.49,1.47"/><path class="b" d="M14.45,93.63c3.33-.43,6.52.42,9.74,1.15,2.66.42,5.44.09,8.11.05,4.48-.11,6.11-.84,8.93-4.29,2.28-2.65,4.65-5.7,8.11-6.8,1.58-.43,3.23-1.16,4.87-1.29,2.73-.03,4.66,2.36,6.49,4.07,2.76,2.29,4.92,5.46,8.11,7.19,4.74,2.33,12.01,1.04,17.04-.04,2.36-.6,4.86-1.05,7.3-.81,2.42.18,4.87.89,7.3.82,2.7-.11,5.42-.81,8.11-1.02,1.3-.12,2.77-.02,4.06-.28,2.01-.42,3.93-1.49,5.68-2.53,3.8-2.48,6.37-2.41,10.55-.89,3.79,1.16,7.42,3.15,11.36,3.74,2.94.48,6.09-.66,8.93.48,5.67,2.63,5.62,1.65,11.36,1.28,3.5,0,7.05.17,10.55.12,2.14.04,4.35.46,6.49.39"/><path class="b" d="M14.45,91.59c7.34-1.75,8.16,1.4,14.61,1.25,3.3-.12,7.39.22,9.74-2.57,2.92-3.36,4.83-8.04,8.93-10.2.97-.45,2.2-.72,3.25-.91,1.34-.35,2.9-.34,4.06.5,2.38,1.82,3.8,4.76,5.68,7.03,2.24,2.4,4.85,4.98,8.11,5.81,3.46.79,7.05-.06,10.55-.09,2.13-.06,4.37-.06,6.49-.34,2.12-.37,4.33-.77,6.49-.78,2.41-.06,4.89.32,7.3.31,2.43-.13,4.87-.87,7.3-1.04,1.3-.1,2.76-.03,4.06.04,3.27.07,5.79-2.47,8.11-4.44,3.35-3.3,6.67-1.98,10.55-.54,1.9.73,3.92,1.55,5.68,2.58,2.34,1.67,5.18,2.92,8.11,2.5,1.59-.14,3.26-.76,4.87-.67,3.1.32,5.78,2.46,8.93,2.67,3.22.23,6.51.05,9.74.1,3.49-.01,7.06.15,10.55-.13"/><path class="b" d="M14.45,89.53c7.22-1.75,6.6-.32,12.98,1,3.21.23,6.78.49,9.74-1.02,5.37-3.46,7.9-16.78,16.23-11.92,3.13,2.54,4.57,6.69,7.3,9.59,2.16,2.04,5.12,3.44,8.11,3.51,3.25.14,6.49-.81,9.74-.59,2.4.14,4.9.39,7.3.19,2.14-.24,4.34-.72,6.49-.86,2.41-.2,4.9.06,7.3.12,2.41-.05,4.89-.42,7.3-.33,7.11.67,7.78-.11,12.98-4.82,2.86-2.96,7.17-1.5,10.55-.38,1.63.56,3.38,1.25,4.87,2.14,2.11,1.5,4.65,2.68,7.3,2.29,2.19-.2,4.28-1.41,6.49-1.38,3.42.12,6.35,2.44,9.74,2.78,2.67.21,5.44.1,8.11.2,3.49.21,7.06.51,10.55.06"/><path class="b" d="M14.45,87.16c4.98-1.16,6.64-.76,11.36.78,3.91.85,8.58,1.15,12.17-.9,2.75-1.97,4.49-5.14,6.49-7.8,2.28-3.09,4.73-5.53,8.11-2.13,7.03,7.96,5.8,12.69,18.66,11.15,1.86-.16,3.8-.7,5.68-.63,2.41.18,4.87.76,7.3.77,2.44.1,4.9-.49,7.3-.79,1.85-.24,3.83-.2,5.68-.03,2.67.31,5.43.18,8.11.25,2.41.02,4.9.42,7.3.19,3.55-.36,5.99-3.31,8.93-4.99,2.25-1.06,4.91-.52,7.3-.38,1.59.14,3.33.29,4.87.76,1.37.44,2.73,1.32,4.06,1.88,2.05.82,4.42.68,6.49,0,1.81-.6,3.72-1.51,5.68-1.27,3.4.41,6.29,2.84,9.74,3.06,2.4.19,4.9.28,7.3.44,3.49.39,7.1.64,10.55-.16"/><path class="b" d="M14.45,84.78c1.57-.27,3.28-.43,4.87-.22,1.9.24,3.82.89,5.68,1.31,4.57.97,9.63.72,13.79-1.53,2.95-1.74,4.87-4.82,7.3-7.14,2.72-2.6,4.47-1.24,6.49,1.22,2.42,2.75,4.35,6.7,8.11,7.74,2.11.43,4.36.2,6.49.08,2.42-.17,4.91-.41,7.3-.8,2.16-.44,4.38.26,6.49.62,2.11.33,4.37.4,6.49.17,2.94-.42,5.94-1.12,8.93-.69,3.75.53,7.59.36,11.36.5,3.31.21,6.83.3,9.74-1.56,1.54-.86,3.13-2.02,4.87-2.46,2.11-.36,4.37-.07,6.49-.31,1.58-.14,3.28-.5,4.87-.35,2.19.38,4.22,1.74,6.49,1.72,1.61.07,3.33-.28,4.87-.75,1.79-.65,3.83-1.08,5.68-.4,2.21.73,4.27,2.1,6.49,2.79,2.34.66,4.9.63,7.3.82,4.33.23,8.86.97,12.98-.82"/><path class="b" d="M14.45,82.56c4.14-.63,8.05,1.68,12.17,1.67,3.04.28,6.07-.4,8.93-1.38,2.56-.67,5.21-1.5,7.3-3.19,1.72-1.19,3.46-3.04,5.68-3.09,1.76.17,2.94,1.9,4.06,3.09,1.58,1.75,3.31,3.8,5.68,4.44,2.4.52,4.89-.33,7.3-.38,3.23-.09,6.53-.18,9.74-.63,2.73-.08,5.39,1.11,8.11,1.13,1.58.06,3.3.07,4.87-.17,1.85-.28,3.79-.79,5.68-.8,1.87,0,3.82.41,5.68.53,1.86.1,3.82.03,5.68,0,2.95-.2,6.02.38,8.93-.27,2.81-.62,5.25-2.56,8.11-2.96,1.58-.12,3.29.12,4.87.01,2.48-.05,4.83-1.44,7.3-1.35,1.33.2,2.74.74,4.06,1.01,1.83.37,3.83.43,5.68.23,1.58-.15,3.28-.69,4.87-.3,1.98.48,3.83,1.64,5.68,2.44,2.76,1.31,5.94,1.22,8.93,1.33,4.62-.04,9.61.91,13.79-1.58"/><path class="b" d="M14.45,80.79c2.47-.31,4.91.61,7.3,1.03,2.11.37,4.36.35,6.49.25,2.84-.1,5.42-1.57,8.11-2.28,1.56-.41,3.32-.45,4.87-.94,1.89-.56,3.74-1.6,5.68-1.96,3.49-.59,5.32,3.26,8.11,4.59,2.33,1.32,4.95.23,7.3-.42,2.08-.66,4.36-.37,6.49-.2,1.86.14,3.82.13,5.68,0,3.28-.17,6.43,1.48,9.74,1.28,1.87.03,3.85,0,5.68-.39,2.37-.54,4.89-.75,7.3-.35,4.03.66,8.13-.11,12.17-.08,1.87.13,3.87.11,5.68-.47,1.88-.54,3.76-1.46,5.68-1.87,1.85-.42,3.82.11,5.68.2,1.91.12,3.89-.38,5.68-1.02,3.21-1.36,6.52.54,9.74.97,1.84.35,3.82.37,5.68.3,1.35.07,2.8.52,4.06.99,1.54.58,3.23,1.18,4.87,1.44,2.93.4,5.98.22,8.93.24,4.09-.08,8.46.42,12.17-1.68"/><path class="b" d="M14.45,79.49c2.15-.16,4.36.31,6.49.46,2.68.11,5.45-.06,8.11-.34,2.23-.33,4.35-1.35,6.49-1.99,1.55-.47,3.27-.48,4.87-.51,3.23-.2,6.75-.93,9.74.7,1.28.69,2.65,1.55,4.06,1.95,3.39.97,6.48-1.43,9.74-1.9,2.41-.25,4.9.32,7.3.44,2.44.1,4.97.18,7.3,1,2.87.89,5.96.7,8.93.69,2.15-.06,4.35-.61,6.49-.73,2.14-.13,4.36.25,6.49.23,3.5-.07,7.05-.45,10.55-.15,3.39.22,6.49-1.53,9.74-2.14,1.6-.27,3.3.2,4.87.44,1.57.25,3.31.2,4.87-.15,1.58-.34,3.23-1.05,4.87-.98,3.87.44,7.4,2.71,11.36,2.68,2.69.08,5.42.65,8.11.79,2.68.1,5.43-.21,8.11-.08,4.87.1,9.99.56,14.61-1.31"/><path class="b" d="M14.45,77.84c3.52.1,7.07-.09,10.55-.65,1.86-.14,3.84,0,5.68-.37,2.15-.35,4.32-1.07,6.49-1.33,3.24-.27,6.59.19,9.74.97,3.15.86,6.46,1.9,9.74,1.06,2.68-.56,5.38-1.47,8.11-1.69,4.64-.17,9.36.15,13.79,1.59,2.1.53,4.35.41,6.49.38,2.96.13,5.97-.11,8.93-.3,3.5-.05,7.05-.04,10.55-.24,2.41-.07,4.9.24,7.3.26,3.05.04,5.95-1.23,8.93-1.69,1.32-.17,2.77.16,4.06.4,1.84.33,3.83.41,5.68.11,1.86-.28,3.78-.99,5.68-.81,2.23.2,4.34,1.3,6.49,1.82,2.36.59,4.89.48,7.3.48,2.14-.02,4.38-.11,6.49-.46,1.84-.34,3.79-.87,5.68-.7,1.61.12,3.28.65,4.87.9,3.51.58,7.18.22,10.55-.89"/><path class="b" d="M14.45,75.41c3.3.26,6.52-.75,9.74-1.27,2.42-.29,4.88.53,7.3.44,3.23.04,6.51-.7,9.74-.32,3.25.35,6.44,1.54,9.74,1.45,2.15,0,4.36-.4,6.49-.68,1.85-.24,3.83-.34,5.68-.56,4.6-.49,9.34-.58,13.79.87,2.64.68,5.43.15,8.11.15,6.2.32,12.46.3,18.66-.05,4.59-.1,9.23.59,13.79-.2,1.29-.18,2.75-.4,4.06-.38,2.41.18,4.88.62,7.3.5,2.42-.02,4.88-.61,7.3-.66,2.17-.09,4.36.62,6.49.9,2.41.29,4.9-.22,7.3-.38,3.37-.18,6.72-.96,9.74-2.5,1.54-.63,3.4-.57,4.87.24,4.42,2.68,7.91,3.54,12.98,1.88"/><path class="b" d="M14.45,72.5c4.12.6,8.09-2.35,12.17-1.16,2.33.84,4.8,1.59,7.3,1.64,3.78.05,7.61-.25,11.36.39,3.49.46,7.06-.04,10.55-.33,2.13-.17,4.36-.08,6.49-.18,2.68-.14,5.43-.34,8.11-.23,2.44.04,4.87.86,7.3.93,2.43,0,4.87-.79,7.3-.68,3.76.41,7.59.37,11.36.46,5.39.33,10.83.12,16.23.23,8.11-.15,16.24.18,24.34-.16,3.51-.15,7.11.59,10.55-.42,3.29-.66,6.83-.93,9.74-2.76,1.97-1.14,4-3.55,6.49-2.64,1.85.85,3.28,2.59,4.87,3.82,2.48,1.99,5.91,2.72,8.93,1.6"/><path class="b" d="M14.45,70.02c4.4.61,8.73-2.63,12.98-.26,3.27,1.61,6.99,1.63,10.55,1.57,2.95-.04,5.97.06,8.93.09,9.46-.1,18.97-1.2,28.4-.03,3.83.31,7.52-1.87,11.36-1.05,4.29.54,8.71-.21,12.98.56,2.64.62,5.42.51,8.11.49,3.77.05,7.59.02,11.36-.01,3.78.1,7.58-.89,11.36-.51,3.48.41,7.04.62,10.55.55,2.73.14,5.49-.27,8.11-1,3.17-.64,6.4-1.68,8.93-3.78,2.13-1.71,4.62-4.49,7.3-1.99,3.34,3.11,6.94,8.28,12.17,6.37"/><path class="b" d="M14.45,68.22c3.24.49,6.5-.74,9.74-.39,1.91.21,3.77,1.14,5.68,1.35,2.67.27,5.43-.07,8.11,0,8.92.13,17.86.2,26.78-.21,5.14,0,10.4.93,15.42-.59,1.55-.36,3.27-.59,4.87-.48,1.3.11,2.75.35,4.06.31,2.69-.02,5.43-.5,8.11-.47,2.51-.11,4.84,1.23,7.3,1.44,4.85.15,9.76.13,14.61-.02,3.83,0,7.54-1.51,11.36-1.36,2.72.16,5.43.99,8.11,1.37,8.13.53,12.89-.12,19.47-5.31,1.87-1.24,4.17-3.39,6.49-1.98,4.05,2.64,7.31,9.16,12.98,6.94"/><path class="b" d="M14.45,66.55c2.67.33,5.43,0,8.11.07,1.87.02,3.81.45,5.68.52,2.98-.03,5.92-1.16,8.93-1.02,3.53-.02,7.03.89,10.55,1,3.77.02,7.59-.14,11.36.03,4.58-.15,9.21-.02,13.79-.02,2.43-.03,4.9-.56,7.3-.85,2.13-.25,4.37-.12,6.49.09,4.1.41,8.12-.96,12.17-1.21,2.51.11,4.81,1.57,7.3,1.82,4.29.31,8.68.19,12.98.05,1.86-.15,3.85-.33,5.68-.72,2.37-.55,4.85-1.26,7.3-.97,2.22.14,4.36,1.07,6.49,1.59,2.11.37,4.36.12,6.49.19,5.49.46,7.97-2.05,12.17-4.92,1.91-1.04,4.34-2.06,6.49-1.24,4.49,2.08,8.25,8.31,13.79,5.39"/><path class="b" d="M14.45,64.65c2.4.26,4.9.17,7.3.22,2.13,0,4.37.31,6.49,0,3.24-.64,6.33-2.54,9.74-2.12,3.61.13,6.98,1.79,10.55,2.17,2.41.26,4.89-.21,7.3-.13,5.12.27,10.29.21,15.42.22,3.5.05,7.04-.58,10.55-.39,3.22.15,6.52.36,9.74.08,2.44-.17,4.9-.8,7.3-1.19,3.3-.5,6.49,1.03,9.74,1.31,5.94.35,12,.26,17.85-.9,2.92-.68,6.01-.7,8.93.02,1.29.36,2.72.84,4.06.97,1.85.19,3.82.04,5.68.07,4.3.32,6.3-.62,9.74-3.13,3.33-2.66,7.97-1.68,11.36.36,3.87,2.02,7,3.99,11.36,1.73"/><path class="b" d="M14.45,62.55c4.03.34,8.13.25,12.17.29,2.59-.04,4.92-1.43,7.3-2.27,2.6-.95,5.46-.52,8.11-.02,2.73.54,5.36,1.75,8.11,2.18,3.21.32,6.51-.25,9.74.03,6.21.18,12.45.08,18.66.02,4.85.08,9.75.11,14.61.05,3.53,0,7.03-.92,10.55-1.06,3.24.07,6.49.78,9.74.84,5.15.34,10.28-.74,15.42-.88,4.34,0,8.64,1.19,12.98,1.12,6.32.03,7.19.38,12.98-2.69,2.31-1.16,4.94-.49,7.3.13,3.47.92,6.94,2.26,10.55,2.56,1.63.06,3.34-.48,4.87-1"/><path class="b" d="M14.45,60.39c2.67.3,5.43.2,8.11.24,2.13-.01,4.38.26,6.49-.12,1.91-.37,3.79-1.25,5.68-1.7,1.56-.4,3.28-.37,4.87-.27,2.15.04,4.4.13,6.49.64,2.14.48,4.29,1.34,6.49,1.48,8.65.16,17.32-.09,25.97.05,4.31,0,8.67-.16,12.98-.08,2.68.04,5.44.16,8.11-.01,1.87-.13,3.82-.54,5.68-.71,5.13-.34,10.3.72,15.42-.08,4.05-.55,8.15.09,12.17.59,3.49.29,7.05.28,10.55.26,2.14-.04,4.4-.01,6.49-.51,2.38-.57,4.82-1.5,7.3-1.31,3.77.46,7.58,1.06,11.36,1.41,2.97.48,5.98.62,8.93-.17"/><path class="b" d="M14.45,58.17c2.94.29,5.97.12,8.93.19,2.13.03,4.36.31,6.49.18,2.15-.15,4.35-.67,6.49-.91,2.94-.24,5.97-.49,8.93-.31,3.78.39,7.53,1.43,11.36,1.26,3.5,0,7.05.06,10.55-.06,2.68-.13,5.43-.53,8.11-.27,6.2.36,12.45.23,18.66.19,2.68-.06,5.44.15,8.11.13,1.89-.07,3.83-.56,5.68-.92,2.92-.63,5.97-.35,8.93-.3,2.68.05,5.46-.22,8.11.27,2.12.4,4.33.91,6.49.96,2.95-.01,5.97-.05,8.93.01,2.68-.03,5.44-.28,8.11-.53,2.13-.28,4.34-.77,6.49-.74,4.05.22,8.12.8,12.17.97,3.5.3,7.07.46,10.55-.14"/><path class="b" d="M14.45,56.06c2.95.13,5.97-.1,8.93-.04,2.96.05,5.97.41,8.93.41,4.6.1,9.2-.74,13.79-.62,6.48.29,12.99.79,19.47.58,2.71-.06,5.41-.87,8.11-.9,2.96.13,5.96.71,8.93.77,5.4.28,10.84.05,16.23-.27,1.87,0,3.81.52,5.68.43,3.02-.23,5.87-1.67,8.93-1.73,2.96-.21,6.01.13,8.93.64,1.86.32,3.78,1.02,5.68,1.09,2.7.13,5.42-.79,8.11-.49,1.85.24,3.81.59,5.68.48,1.86-.11,3.81-.51,5.68-.61,1.85-.18,3.82-.44,5.68-.41,1.86.02,3.82.29,5.68.43,6.21.28,12.45.91,18.66.32"/><path class="b" d="M14.45,54.11c7.29-.3,14.63-.55,21.91.05,2.4.23,4.9.1,7.3,0,2.95-.09,5.98-.16,8.93-.34,3.78-.12,7.58.51,11.36.41,2.72,0,5.43-.7,8.11-.99,2.7-.26,5.44.4,8.11.64,3.49.32,7.05.39,10.55.39,2.99.09,5.98-.48,8.93-.87,1.61-.08,3.3.41,4.87.72,4.11.78,8.07-1.52,12.17-1.47,3.85-.07,7.5,2.1,11.36,1.56,2.66-.42,5.4-1.33,8.11-.82,1.83.43,3.78.94,5.68.92,4.58-.2,9.2-1.05,13.79-.57,3.22.33,6.51.17,9.74.24,4.04.24,8.13.41,12.17.27"/><path class="b" d="M14.45,52.11c4.05-.06,8.12-.61,12.17-.64,2.42-.08,4.88-.7,7.3-.62,1.91.03,3.83.67,5.68,1.06,1.84.29,3.82.27,5.68.21,1.59-.06,3.3-.18,4.87-.44,1.57-.32,3.26-.72,4.87-.76,2.71-.08,5.42.74,8.11.84,2.97.08,5.96-.6,8.93-.57,2.69.02,5.43.41,8.11.53,3.77.11,7.59.37,11.36.38,1.87-.01,3.87-.17,5.68-.67,2.07-.69,4.35-1.26,6.49-.55,1.57.45,3.23,1.12,4.87,1.26,3.01.32,5.95-.86,8.93-1,2.18-.07,4.35.71,6.49.98,3.3.37,6.43-1.45,9.74-1.25,1.62-.04,3.31.42,4.87.78,1.56.32,3.28.5,4.87.52,2.95.03,5.97-.3,8.93-.3,3.22.01,6.51.33,9.74.06,1.85-.14,3.82-.34,5.68-.28,3.22.16,6.5.55,9.74.45"/><path class="b" d="M14.45,49.99c2.69.02,5.44-.29,8.11-.6,1.86-.22,3.84-.25,5.68-.55,5.76-1.3,6.6-2.13,12.17.47,2.32.78,4.91.89,7.3.39,1.66-.31,3.31-1.06,4.87-1.68,3.33-1.46,6.46-.35,9.74.54,2.38.47,4.9.18,7.3.31,2.68.12,5.42.54,8.11.57,2.41.07,4.9-.14,7.3-.12,2.68.12,5.42.57,8.11.36,5.84-.2,7.69-4.2,13.79-1.14,2.76,1.31,5.92,1.76,8.93,1.23,2.13-.33,4.37-.1,6.49.18,2.5.33,4.94-.69,7.3-1.31,1.55-.39,3.29-.43,4.87-.28,1.62.1,3.28.69,4.87.97,2.11.39,4.35.61,6.49.67,2.4.05,4.9-.09,7.3-.05,2.95,0,5.98.18,8.93-.09,2.43-.25,4.85-1.15,7.3-1.18,2.68.06,5.42.54,8.11.34"/><path class="b" d="M14.45,47.83c2.97.05,5.98-.39,8.93-.72,2.14-.23,4.4-.19,6.49-.72,2.87-.59,6.09-2.55,8.93-.88,1.27.7,2.68,1.49,4.06,1.95,2.13.77,4.52.35,6.49-.67,5.34-2.91,7.17-3.81,12.98-1.29,1.79.62,3.81.63,5.68.77,2.15.14,4.36.5,6.49.77,3.77.59,7.59-.19,11.36-.26,6.56.8,10.07,1.28,16.23-1.72,1.82-.74,3.94-.58,5.68.3,2.54,1.25,5.17,2.79,8.11,2.5,2.68-.14,5.5.31,8.11-.47,1.87-.56,3.76-1.45,5.68-1.83,1.84-.36,3.83-.2,5.68,0,2.69.6,5.36,1.62,8.11,1.95,4.82.66,9.75.23,14.61.34,1.87,0,3.87-.08,5.68-.58,1.87-.52,3.77-1.4,5.68-1.79,2.65-.48,5.44-.03,8.11-.12"/><path class="b" d="M14.45,45.5c3.52.11,7.03-.74,10.55-.76,2.14-.01,4.38.07,6.49-.31,1.9-.28,3.78-1.13,5.68-1.34,3.35.21,6.21,3.6,9.74,2.4,3.72-1.38,7.14-4.54,11.36-4.01,1.98.21,3.78,1.37,5.68,1.86,1.83.4,3.82.44,5.68.67,2.42.27,4.88.88,7.3,1.07,2.13.17,4.37.02,6.49-.22,3.23-.45,6.5.4,9.74.38,2.15.03,4.45-.04,6.49-.79,1.35-.52,2.73-1.38,4.06-1.96,2.22-1.1,4.65-.1,6.49,1.28,1.61,1.25,3.62,2.03,5.68,1.94,1.86.02,3.88.06,5.68-.48,3.19-1.11,6.25-3.04,9.74-3.03,1.58,0,3.32-.05,4.87.28,2.66.98,5.31,2.29,8.11,2.85,2.37.51,4.89.41,7.3.41,2.4-.01,4.9.03,7.3-.1,4.25-.09,8.14-2.05,12.17-3.17,2.1-.49,4.38-.24,6.49.01"/><path class="b" d="M14.45,42.73c2.14.23,4.36-.17,6.49-.35,1.86-.17,3.83-.1,5.68.07,2.13.22,4.35.55,6.49.29,1.88-.14,3.77-1.08,5.68-.84,4.27.95,6.17,2.96,10.55.41,3.51-1.51,7.47-3.5,11.36-2.36,1.31.42,2.68,1.16,4.06,1.38,2.67.43,5.46.58,8.11,1.13,2.65.52,5.41.9,8.11.82,2.95-.16,5.97-.24,8.93-.15,3.49-.13,7.29.28,10.55-1.22,1.62-.82,3.12-2.17,4.87-2.73,3.97-.99,5.84,4.3,9.74,4.2,1.59.12,3.33.06,4.87-.37,1.36-.41,2.76-1.19,4.06-1.76,2.52-1.17,5.35-1.7,8.11-1.74,1.3,0,2.77-.21,4.06.05,3,1.06,5.79,2.89,8.93,3.55,3.45.67,7.06.38,10.55.43,4.1-.14,8.22-1,12.17-2.05,4.03-1.29,5.22-2.27,9.74-.93"/><path class="b" d="M14.45,39.73c2.93.57,5.97-.29,8.93-.02,3.28.09,6.46,1.36,9.74,1.32,2.16.05,4.34-.75,6.49-.55,2.67.31,5.43,1.56,8.11.6,2.1-.82,4.35-1.43,6.49-2.12,2.31-.77,4.89-1.59,7.3-.8,3.09,1.3,6.48,1.7,9.74,2.37,5.05,1.12,10.28.92,15.42.84,4.07,0,8.25-.4,12.17-1.53,1.82-.65,3.33-2.15,4.87-3.27,1.91-1.51,3.95-1.36,5.68.35,2.9,3.04,4.39,4.66,8.93,4.09,3.04-.5,5.82-2.23,8.93-2.51,2.66-.37,5.44-.43,8.11-.69,3.64.29,6.98,2.31,10.55,3,1.83.4,3.82.41,5.68.5,2.13.08,4.37.3,6.49.04,3.22-.59,6.54-.98,9.74-1.66,4.33-1.16,4.89-2.35,9.74-.54"/><path class="b" d="M14.45,36.86c2.89.75,5.98.11,8.93.45,1.31.12,2.76.29,4.06.5,1.58.38,3.24.92,4.87,1.04,2.69.32,5.43-.42,8.11-.18,2.67.35,5.45,1.04,8.11.26,2.13-.54,4.41-.87,6.49-1.61,2.31-.78,4.9-1.66,7.3-.76,3.65,1.29,7.49,2.31,11.36,2.63,4.85.23,9.75.04,14.61.12,4,.03,7.93-1.46,11.36-3.42,3.07-2.14,5.96-6.73,9.74-2.88,4.14,4.56,5.45,6.61,12.17,5.34,3.71-.85,7.58-.85,11.36-.99,4.88-.56,9.81.02,14.61.95,2.41.22,4.91.3,7.3.7,4.34.77,8.79-.2,12.98-1.33,4.15-1.33,5.29-2.18,9.74-.31"/><path class="b" d="M14.45,34.11c4.21,1.05,8.66,1.19,12.98,1.45,1.87.22,3.8.76,5.68.9,1.86.17,3.82.06,5.68.01,2.15-.05,4.35.53,6.49.65,3.8.09,7.69-.33,11.36-1.31,3.68-1.1,5.43-.38,8.93.54,5.85,1.32,11.92.62,17.85.63,2.4-.02,4.91.36,7.3.03,3.62-.84,6.75-3.26,9.74-5.36,4.48-3.77,7.27-4.13,11.36.43,4.14,5.19,7.76,4.73,13.79,4.3,4.86-.17,9.78.08,14.61-.62,3.78-.67,7.56-.1,11.36-.02,2.73.13,5.4,1.11,8.11,1.37,3.05.26,6.12-.52,8.93-1.67,3.17-1.4,5.68-1.69,8.93-.12"/><path class="b" d="M14.45,32.45c3.44.87,6.98,1.71,10.55,1.67,4.04-.36,8.12-.21,12.17-.02,2.44-.08,4.9.39,7.3.71,2.13.23,4.36.22,6.49.2,4.06.15,8.14-1.25,12.17-.41,4.27.7,8.67.34,12.98.39,2.96-.04,5.97-.57,8.93-.38,1.86.05,3.82.6,5.68.32,4.25-.93,7.51-4.23,11.36-6.04,2.77-1.3,6.18-1.6,8.93-.09,1.73,1.18,3.14,3.01,4.87,4.19,3.78,2.66,8.67,1.49,12.98,1.66,3.23.05,6.53.17,9.74-.27,2.7-.36,5.37-1.47,8.11-1.5,2.41-.03,4.93-.17,7.3.33,2.43.47,4.82,1.53,7.3,1.75,6.15.88,10.13-4.76,16.23-1.62"/><path class="b" d="M14.45,31.62c3.99.83,8.09,1.45,12.17,1.07,2.97-.28,5.93-1.21,8.93-1.13,1.58.07,3.3.04,4.87.25,2.12.39,4.33.8,6.49.86,2.68.08,5.43.18,8.11.22,2.95-.07,5.97-.16,8.93,0,1.86,0,3.82-.24,5.68-.25,2.41,0,4.9.26,7.3.06,2.42-.15,4.87-.84,7.3-.81,1.62,0,3.29.54,4.87.87,2.79.48,5.55-.79,8.11-1.73,2.06-1.02,4.19-2.12,6.49-2.51,2.62-.42,5.5-1.65,8.11-.75,1.44.74,2.74,2.02,4.06,2.95,2.99,2.33,6.97,2.07,10.55,2,4.04-.1,8.15.29,12.17-.27,3.34-.47,6.31-2.61,9.74-2.64,4.55-.37,8.6,2.24,12.98,2.91,1.86.26,3.88.19,5.68-.38,3.35-1.16,7.14-2.71,10.55-.9"/><path class="b" d="M14.45,30.43c2.95.35,5.97.34,8.93.25,1.86-.02,3.83.18,5.68-.06,2.95-.5,5.89-1.55,8.93-1.35,2.99-.15,5.94.96,8.93.97,4.05.04,8.12.6,12.17.48,2.97.05,6,.01,8.93-.53,2.13-.3,4.36-.04,6.49.01,1.61,0,3.32-.33,4.87-.77,5.16-1.63,5.86-.89,10.55.96,3.19.74,6.68.12,9.74-.9,2.1-.66,4.38-1.03,6.49-1.65,1.57-.44,3.23-1.1,4.87-1.19,3.02.29,5.12,3.19,8.11,3.72,2.64.55,5.44.3,8.11.35,3.22-.04,6.52.1,9.74-.11,1.99-.11,4-.85,5.68-1.9,2.44-1.61,5.11-3.26,8.11-2.11,2.24.76,4.31,2.15,6.49,3.04,1.76.75,3.78,1.07,5.68,1.09,4.94.35,9.8-3.56,14.61-1.17"/><path class="b" d="M14.45,28.54c2.96.18,5.97-.11,8.93-.22,1.87-.06,3.82.28,5.68.28,3.27-.12,6.46-1.27,9.74-1.42,2.69-.2,5.42.57,8.11.63,3.79.02,7.57.91,11.36.78,2.13-.11,4.36.05,6.49-.02,1.91-.13,3.82-.81,5.68-1.18,1.57-.32,3.29-.36,4.87-.62,1.34-.25,2.78-.76,4.06-1.22,8.99-3.41,7.48,4.06,18.66,2.99,2.45-.27,4.97-.79,7.3-1.6,2.57-.87,5.46-2.88,8.11-1.2,1.78,1.04,3.59,2.4,5.68,2.73,2.94.31,5.97-.12,8.93.08,3.22,0,6.54.25,9.74-.18,2.22-.37,4.11-1.9,5.68-3.42,1.18-1.08,2.47-2.49,4.06-2.96,1.88-.33,3.54,1.15,4.87,2.28,1.46,1.29,3.06,2.74,4.87,3.54,3.6,1.3,7.75.93,11.36-.16,2.99-1.01,5.95-1.88,8.93-.21"/><path class="b" d="M14.45,26.41c3.5.17,7.05-.13,10.55-.19,2.13.05,4.36.38,6.49.16,2.17-.2,4.36-.82,6.49-1.24,2.65-.68,5.44-.16,8.11.06,3.54.13,7.02,1.15,10.55,1.26,2.13-.03,4.36-.37,6.49-.12,2.52.42,5.05-.24,7.3-1.36,2.09-.95,4.37-1.68,6.49-2.54,2.05-.8,4.25-1.69,6.49-1.67,2.91-.04,5.05,2.2,7.3,3.7,2.14,1.4,4.79,1.85,7.3,1.96,3.4.25,6.8-.67,9.74-2.37,1.74-1.03,3.89-1.43,5.68-.26,6.52,4.59,7.05,1.65,13.79,2.25,3.48.31,7.09.75,10.55.06,2.36-.57,4.16-2.51,5.68-4.29,1.36-1.37,2.68-3.86,4.87-3.72,4.38,1.85,5.58,8.15,11.36,8.32,2.41.1,4.97.11,7.3-.59,1.62-.5,3.24-1.39,4.87-1.88,1.92-.69,4.04,0,5.68,1.07"/><path class="b" d="M14.45,24.14c5.93.13,11.93.4,17.85,0,2.51-.27,4.87-1.47,7.3-2.05,1.3-.24,2.76-.16,4.06.03,4.08.48,8.08,1.9,12.17,2.21,1.88.05,3.81-.5,5.68-.51,1.6,0,3.27.54,4.87.51,2.99-.13,5.57-2.05,8.11-3.43,3.41-1.9,7.31-4.22,11.36-3.52,3,.82,4.6,4.06,7.3,5.46,3.71,1.96,9.24,2.05,12.98.14,1.99-1.07,4.21-2.37,6.49-1.3,2.55,1.21,5.11,3.21,8.11,2.53,1.57-.29,3.26-.73,4.87-.68,1.88.05,3.82.55,5.68.72,2.14.16,4.42.04,6.49-.51,3.95-1.23,5.82-5.41,8.93-7.81,3.96-2.16,6.52,7.99,12.17,8.27,2.4.18,4.97.28,7.3-.38,1.73-.54,3.28-1.79,4.87-2.61,2.33-1.37,4.54-.45,6.49,1.16"/><path class="b" d="M14.45,21.71c1.86.11,3.82-.05,5.68,0,1.86.05,3.82.28,5.68.32,5.16.06,7.81-.27,12.17-3.13,2.82-1.78,6.13-.41,8.93.72,2.87,1.06,5.84,2.34,8.93,2.56,1.6.06,3.29-.37,4.87-.55,2.7-.25,5.43,1.07,8.11.32,5.51-1.51,9.53-6.06,14.61-8.49,2.45-1.18,4.13-.67,5.68,1.52,1.67,2.16,3.25,4.76,5.68,6.15,2.45,1.25,5.44,1.16,8.11.92,1.96-.25,3.84-1.19,5.68-1.86,3.08-1.08,5.99,1.19,8.93,1.8,2.13.5,4.37-.1,6.49-.39,1.58-.21,3.31-.05,4.87.23,4.08.72,8.82.44,12.17-2.22,2.21-1.59,3.82-4.39,6.49-5.24,4.32.29,6.02,7.42,12.17,7.72,2.13.12,4.44.31,6.49-.38,4.63-2.1,6.14-6.62,11.36-1.73"/><path class="b" d="M14.45,19.5c2.69.12,5.42-.54,8.11-.35,3.78.24,8,.59,11.36-1.48,3.39-2.15,5.32-5.98,9.74-3.23,3.99,2.45,8.13,5.44,12.98,5.6,1.87,0,3.81-.57,5.68-.43,8.57,1.62,13.08-1.71,18.66-7.75,1.78-1.83,4.99-5.9,7.3-2.62,3.08,4.31,4.95,10.93,11.36,10.72,1.86.13,3.85.09,5.68-.29,2.11-.46,4.32-1.19,6.49-.71,2.41.35,4.86,1.03,7.3,1.06,2.68.04,5.43-.54,8.11-.3,4.11.54,8.36.33,12.17-1.43,2.34-1.17,4.24-3.22,6.49-4.52,4.21-2.33,7.48,5.39,12.98,6.01,2.38.26,4.97.5,7.3-.19,4.7-2.08,6.03-6.18,11.36-1.54"/></svg>